<svg id="Layer_1" data-name="Layer 1" xmlns="http://www.w3.org/2000/svg" viewBox="0 0 400 76.794">
	<defs>
		<style>
			.cls-6{fill:#252525}
		</style>
	</defs>
	<path d="M76.77 33.63c-2.81-1.384-5.636-2.738-8.427-4.158-2.81-1.43-3.815-4.052-2.604-6.604 1.097-2.311 3.947-3.197 6.647-1.895 5.489 2.649 10.932 5.39 16.394 8.094-4.43.074-7.73 2.977-11.548 4.584a3.156 3.156 0 0 0-.462-.022Z" style="fill:#dcac29"/>
	<path d="M81 42.28c2.58 1.788 5.555 2.816 8.306 4.277 2.73 1.45 3.844 4.078 2.71 6.557-1.114 2.434-3.972 3.3-6.806 1.924-5.338-2.59-10.638-5.26-15.954-7.897 4.216-.527 7.624-2.901 11.206-4.878Z" style="fill:#2e9bc2"/>
	<path d="M77.232 33.65c3.818-1.606 7.119-4.51 11.548-4.582a4.43 4.43 0 0 1 3.66 4.68 4.55 4.55 0 0 1-3.762 4.63c-4.379-.216-7.733-2.903-11.446-4.727Z" style="fill:#287316"/>
	<path d="M80.462 42.263c-3.582 1.977-6.99 4.351-11.206 4.878-2.445-.65-3.94-2.046-3.926-4.754a4.25 4.25 0 0 1 3.452-4.562 9.613 9.613 0 0 1 4.849 1.002c2.264 1.17 4.553 2.293 6.831 3.436Z" style="fill:#096763"/>
	<path d="M80.462 42.263c-2.278-1.143-4.567-2.266-6.831-3.436a9.613 9.613 0 0 0-4.849-1.002l7.987-4.196a3.222 3.222 0 0 1 .463.022c3.713 1.824 7.067 4.51 11.446 4.728L81 42.279l-.538-.016Z" style="fill:#2da880"/>
	<path class="cls-6" d="M357.924 14.347v18.804c3.845 0 7.545-.009 11.245.003 3.85.011 6.02 1.858 5.98 5.062-.04 3.072-2.24 4.952-5.89 4.976-3.711.024-7.423.005-11.309.005v19.354h2.743c9.141.001 18.283-.022 27.424.015 3.598.015 5.36 1.75 5.342 5.061-.016 2.976-1.585 4.58-4.593 4.68-.727.025-1.456.013-2.184.013h-31.55c-6.608 0-7.465-.869-7.465-7.567V11.924c0-.643-.011-1.287.006-1.93.102-3.877 1.944-5.7 5.914-5.71q17.11-.036 34.22.002c3.74.008 5.658 1.78 5.652 5.067-.005 3.325-1.852 4.98-5.679 4.988q-13.469.028-26.938.006h-2.918Z"/>
	<path class="cls-6" d="M128.12 72.672a67.012 67.012 0 0 1-8.52-1.538 17.58 17.58 0 0 1-12.077-15.703 5.11 5.11 0 0 1 4.028-5.288 4.826 4.826 0 0 1 5.638 3.43c.405 1.3.563 2.677.992 3.967 1.55 4.655 5.003 6.795 10.553 6.631 5.189-.153 8.56-2.506 9.716-6.78 1.437-5.312-.018-9.538-4.437-12.095a54.24 54.24 0 0 0-6.608-2.969c-2.385-.981-4.832-1.815-7.222-2.786-11.171-4.54-13.29-13.556-11.017-22.258 2.287-8.761 11.201-14.063 20.988-12.876 9.584 1.163 15.282 5.909 16.831 14.02a5.045 5.045 0 0 1-3.31 5.942 4.765 4.765 0 0 1-5.954-2.863 23.749 23.749 0 0 1-.768-2.28c-1.769-5.162-6.354-7.621-11.729-6.295-4.612 1.139-7.356 5.503-6.674 10.595a7.467 7.467 0 0 0 3.98 5.738 57.495 57.495 0 0 0 6.612 2.942c2.474.98 5.033 1.745 7.502 2.734 9.62 3.85 13.863 10.941 11.72 22.794-1.575 8.71-8.835 14.354-17.752 14.546-.808.018-1.617.002-2.426.002Z"/>
	<path class="cls-6" d="M250.349 27.378c-.44 1.114-.668 1.598-.823 2.103-2.1 6.813-4.19 13.63-6.444 20.974 2.245 0 4.13-.02 6.014.004 3.493.043 5.622 1.896 5.66 4.894.04 2.998-2.092 5.015-5.515 5.105-2.506.066-5.025-.108-7.516.093a3.04 3.04 0 0 0-2.143 1.564c-.874 2.15-1.37 4.447-2.122 6.65-1.055 3.092-3.622 4.34-6.767 3.394-2.373-.714-3.725-3.515-2.868-6.325q8.71-28.573 17.485-57.127c.736-2.404 2.235-3.884 4.841-3.987 2.466-.097 4.233 1.224 5.083 3.982q8.798 28.546 17.514 57.117c.856 2.804-.512 5.626-2.888 6.343-3.307.998-5.838-.369-6.914-3.855q-5.86-18.991-11.662-38c-.234-.762-.485-1.52-.935-2.929Z"/>
	<path class="cls-6" d="M38.754 35.63c8.462 4.985 11.74 12.206 9.51 21.4-2.103 8.67-9.708 14.839-19.33 15.077a38.464 38.464 0 0 1-11.684-1.463A16.519 16.519 0 0 1 5.49 54.9a4.61 4.61 0 0 1 3.691-4.705 4.861 4.861 0 0 1 5.468 2.612 6.281 6.281 0 0 1 .537 1.588c1.66 8.497 8.708 9.569 14.363 8.489 6.12-1.168 9.623-5.443 9.298-10.853-.418-6.968-4.485-11.39-11.168-12.136-1.045-.116-2.104-.143-3.135-.327a3.886 3.886 0 0 1-3.403-4.069 4.065 4.065 0 0 1 3.636-4.153c1.594-.25 3.231-.274 4.804-.608 4.425-.942 6.5-3.818 6.514-8.83.013-4.393-2.33-7.589-6.433-8.483-5.194-1.132-10.381.125-12.466 6.222-1.217 3.558-3.558 4.676-6.765 3.752a4.589 4.589 0 0 1-3.222-5.461C8.685 10.356 15.387 4.689 23.92 4.32c3.577-.154 7.43-.127 10.746 1.008C45.97 9.199 49.07 21.8 43.333 31.122c-1.081 1.757-3.011 2.999-4.58 4.508Z"/>
	<path class="cls-6" d="M176.278 33.04c4.622 0 8.969-.004 13.316.002 1.293.002 2.593-.04 3.88.068a4.984 4.984 0 0 1 4.64 4.727 4.826 4.826 0 0 1-4.243 5.061c-2.642.275-5.326.172-7.992.194-3.067.025-6.135.006-9.482.006-.044.993-.113 1.843-.114 2.692-.01 6.995.005 13.99-.015 20.985a5.013 5.013 0 0 1-2.944 4.876 4.308 4.308 0 0 1-5.186-.66 6.449 6.449 0 0 1-1.872-3.93c-.118-19.376-.1-38.753-.062-58.13.006-3.018 1.898-4.753 4.865-4.78 3.219-.027 5.143 1.712 5.18 5.014.08 6.994.027 13.99.029 20.984v2.89Z"/>
	<path class="cls-6" d="M325.95 3.657c4.367.56 6.547 4.354 4.476 7.838-1.231 2.071-2.689 4.01-4.055 6-4.328 6.304-8.616 12.637-13.027 18.882a2.61 2.61 0 0 0 .035 3.573c5.625 8.05 11.145 16.171 16.71 24.262 1.307 1.899 1.624 3.844.292 5.836a4.32 4.32 0 0 1-4.79 2.08 6.563 6.563 0 0 1-3.524-2.23c-6.706-9.551-13.273-19.2-19.868-28.828a4.8 4.8 0 0 1 .004-5.853c6.599-9.626 13.158-19.28 19.876-28.823.856-1.215 2.56-1.839 3.872-2.737Z"/>
	<path class="cls-6" d="M298.262 38.723c-.002 9.487.03 18.974-.019 28.46-.017 3.315-1.907 5.123-5.079 5.118-3.165-.004-5.017-1.82-5.022-5.162q-.042-28.702-.02-57.403a5.01 5.01 0 0 1 3.092-5.005 4.252 4.252 0 0 1 5.32.988 8.007 8.007 0 0 1 1.655 4.544c.148 9.485.074 18.973.073 28.46Z"/>
	<path class="cls-6" d="M202.116 38.461q0-14.107.003-28.215c.004-3.626 1.867-5.878 4.883-5.96 3.085-.084 5.2 2.283 5.204 5.956q.025 28.216-.001 56.431c-.004 3.756-1.749 5.626-5.078 5.629-3.399.002-5.002-1.773-5.007-5.625q-.02-14.108-.004-28.216Z"/>
</svg>
