<svg xmlns="http://www.w3.org/2000/svg" viewBox="0 0 216 108" style="enable-background:new 0 0 216 108" xml:space="preserve">
	<style>
		.st0{fill:#1d1d1b;stroke:#fff;stroke-miterlimit:10}.st4{fill:#7f0a1e}
	</style>
	<g id="Layer_1">
		<path class="st0" d="M47.29 95.5 4.65 53.29l42.64-42.21 42.64 42.21z"/>
		<path style="fill:#b2b2b2" d="M36.8 84.94 4.81 53.29l31.33-31 31.98 31.65z"/>
		<path d="M70.03 53.78c0-12.17-9.85-22.02-22-22.02s-22 9.86-22 22.02 9.85 22.03 22 22.03 22-9.87 22-22.03z" style="fill:#fff"/>
		<path transform="rotate(-44.972 48.026 53.776)" class="st0" d="M32.46 38.21h31.13v31.13H32.46z"/>
		<path d="M36.37 84.39s-80.69-7.31 29.91-58.75c.17-.08 16.53-7.46 25.96-11.39.03-.01-117.55 50.93-55.87 70.14z" style="fill:#510311"/>
		<path d="M141.95 73.58c0 1.38-.56 2.63-1.67 3.76-1.12 1.12-2.36 1.68-3.73 1.68l-39.08-.04V68.09l29.65.04V57.31h-19.19V46.43h19.19V35.55l-29.65-.04V24.69l39.08.04c1.37 0 2.61.56 3.73 1.69s1.67 2.38 1.67 3.76v16.26c0 1.33-.56 2.57-1.67 3.72-1.12 1.15-2.36 1.72-3.73 1.72 1.37 0 2.61.56 3.73 1.69 1.12 1.12 1.67 2.38 1.67 3.75v16.26z"/>
		<path d="m165.27 54.39-5.77 6.96v17.58h-11.39V24.77h11.39v26.11l21.39-26.11h8.79l-17.57 21.15 20.99 33.01h-13.59l-14.24-24.54z"/>
		<path class="st4" d="M82.29 91.61v-8.37h1.62v4.44l1.9-2.13h2l-2.09 2.21 2.24 3.85H86.2l-1.54-2.72-.76.78v1.94h-1.61z"/>
		<path class="st4" d="m93.35 89.68 1.61.27c-.21.59-.54 1.03-.98 1.34-.45.31-1.01.46-1.68.46-1.06 0-1.85-.34-2.36-1.03-.4-.55-.61-1.25-.61-2.09 0-1 .27-1.79.8-2.36.53-.57 1.2-.85 2.01-.85.91 0 1.63.3 2.16.89.53.6.78 1.51.76 2.74H91c.01.48.14.85.39 1.11.25.26.56.4.93.4.25 0 .47-.07.64-.21.17-.14.3-.36.39-.67zm.09-1.62c-.01-.46-.13-.82-.36-1.06a1.12 1.12 0 0 0-.84-.36c-.35 0-.65.13-.88.38-.23.25-.34.6-.34 1.04h2.42z"/>
		<path class="st4" d="m100.8 89.68 1.61.27c-.21.59-.54 1.03-.98 1.34-.45.31-1.01.46-1.68.46-1.06 0-1.85-.34-2.36-1.03-.4-.55-.6-1.25-.6-2.09 0-1 .27-1.79.8-2.36.53-.57 1.2-.85 2.01-.85.91 0 1.63.3 2.16.89.53.6.78 1.51.76 2.74h-4.06c.01.48.14.85.39 1.11.25.26.56.4.93.4.25 0 .47-.07.64-.21.16-.14.29-.36.38-.67zm.09-1.62c-.01-.46-.13-.82-.36-1.06a1.12 1.12 0 0 0-.84-.36c-.35 0-.65.13-.88.38-.23.25-.34.6-.34 1.04h2.42z"/>
		<path class="st4" d="M110.28 91.61h-1.62v-3.09c0-.66-.03-1.08-.1-1.27a.906.906 0 0 0-.34-.45.947.947 0 0 0-.56-.16c-.28 0-.53.08-.76.23-.22.15-.38.35-.46.61-.08.25-.12.71-.12 1.39v2.74h-1.62v-6.06h1.5v.89c.53-.69 1.21-1.03 2.02-1.03.36 0 .68.06.98.19.3.13.52.29.67.49.15.2.26.42.32.67.06.25.09.61.09 1.08v3.77z"/>
		<path class="st4" d="M112.77 90.01h1.62v1.15c0 .46-.04.83-.12 1.1-.08.27-.23.51-.46.72-.22.21-.51.38-.86.5l-.32-.66c.33-.11.56-.25.7-.44.14-.19.21-.44.22-.77h-.78v-1.6z"/>
		<path class="st4" d="M121.08 91.61v-8.37h1.62v4.44l1.9-2.13h1.99l-2.09 2.21 2.24 3.85H125l-1.54-2.72-.75.78v1.94h-1.63z"/>
		<path class="st4" d="M128.59 84.73v-1.48h1.62v1.48h-1.62zm0 6.88v-6.06h1.62v6.06h-1.62z"/>
		<path class="st4" d="M138.33 91.61h-1.62v-3.09c0-.66-.03-1.08-.1-1.27a.906.906 0 0 0-.34-.45.947.947 0 0 0-.56-.16c-.28 0-.53.08-.75.23-.22.15-.38.35-.46.61-.08.25-.12.71-.12 1.39v2.74h-1.62v-6.06h1.5v.89c.53-.69 1.21-1.03 2.02-1.03.36 0 .68.06.98.19.3.13.52.29.67.49.15.2.26.42.32.67.06.25.09.61.09 1.08v3.77z"/>
		<path class="st4" d="m144.4 89.68 1.61.27c-.21.59-.54 1.03-.98 1.34-.45.31-1.01.46-1.68.46-1.07 0-1.85-.34-2.36-1.03-.4-.55-.61-1.25-.61-2.09 0-1 .26-1.79.8-2.36.53-.57 1.2-.85 2.01-.85.91 0 1.63.3 2.16.89.53.6.78 1.51.76 2.74h-4.06c.01.48.14.85.39 1.11.25.26.56.4.93.4.25 0 .47-.07.64-.21.17-.14.3-.36.39-.67zm.1-1.62c-.01-.46-.13-.82-.36-1.06a1.12 1.12 0 0 0-.84-.36c-.35 0-.65.13-.88.38-.23.25-.34.6-.34 1.04h2.42z"/>
		<path class="st4" d="M151.12 85.55v1.28h-1.11v2.44c0 .49.01.78.03.87.02.08.07.15.14.2.08.05.17.08.27.08.15 0 .37-.05.65-.15l.14 1.24c-.38.16-.8.24-1.28.24-.29 0-.55-.05-.79-.14-.24-.1-.41-.22-.52-.38-.11-.15-.19-.36-.23-.62-.04-.19-.05-.56-.05-1.13v-2.64h-.74v-1.28h.74v-1.21l1.63-.94v2.14h1.12z"/>
		<path class="st4" d="M153.13 84.73v-1.48h1.62v1.48h-1.62zm0 6.88v-6.06h1.62v6.06h-1.62z"/>
		<path class="st4" d="m162.63 87.34-1.6.29c-.05-.32-.18-.55-.37-.71-.19-.16-.44-.24-.74-.24-.4 0-.73.14-.97.41-.24.28-.36.74-.36 1.38 0 .72.12 1.23.37 1.52.24.3.57.45.98.45.31 0 .56-.09.75-.26.2-.17.34-.47.42-.89l1.59.27c-.17.72-.48 1.27-.95 1.64-.47.37-1.1.55-1.89.55-.9 0-1.61-.28-2.14-.84-.53-.56-.8-1.33-.8-2.32 0-1 .27-1.78.8-2.34.53-.56 1.26-.84 2.17-.84.75 0 1.34.16 1.78.48.46.32.77.8.96 1.45z"/>
		<path class="st4" d="M164.71 90.01h1.62v1.15c0 .46-.04.83-.12 1.1-.08.27-.23.51-.46.72-.22.21-.51.38-.86.5l-.32-.66c.33-.11.56-.25.7-.44.14-.19.21-.44.22-.77h-.78v-1.6z"/>
		<path class="st4" d="M173.02 91.61v-8.37h1.62v4.44l1.9-2.13h1.99l-2.09 2.21 2.24 3.85h-1.75l-1.54-2.72-.75.78v1.94h-1.62z"/>
		<path class="st4" d="m181.74 87.4-1.47-.26c.17-.59.45-1.02.85-1.3.4-.28 1-.42 1.8-.42.72 0 1.26.08 1.61.25.35.17.6.38.75.64.14.26.22.74.22 1.44l-.02 1.87c0 .53.03.93.08 1.18.05.25.15.52.29.81h-1.6c-.04-.11-.09-.26-.16-.47-.03-.1-.05-.16-.06-.19-.28.27-.57.47-.89.6-.32.13-.65.2-1.01.2-.63 0-1.13-.17-1.49-.51-.36-.34-.54-.77-.54-1.28 0-.34.08-.65.25-.92.17-.27.4-.47.69-.62.3-.14.73-.27 1.29-.37.76-.14 1.28-.27 1.57-.39v-.16c0-.31-.08-.53-.23-.66-.15-.13-.44-.2-.87-.2-.29 0-.51.06-.67.17-.16.11-.29.31-.39.59zm2.17 1.3c-.21.07-.54.15-.99.25-.45.09-.74.19-.88.28-.21.15-.32.34-.32.56 0 .22.08.42.25.58.17.16.38.25.65.25.29 0 .57-.1.84-.29.2-.14.33-.32.39-.53.04-.14.06-.4.06-.78v-.32z"/>
		<path class="st4" d="M187.99 84.73v-1.48h1.62v1.48h-1.62zm0 6.88v-6.06h1.62v6.06h-1.62z"/>
		<path class="st4" d="M191.5 91.61v-1.25l2.29-2.61c.38-.43.66-.73.84-.91-.19.01-.44.02-.74.02l-2.16.01v-1.33h5.06v1.14l-2.34 2.67-.82.88c.45-.03.73-.04.84-.04h2.51v1.41h-5.48z"/>
		<path class="st4" d="m202.49 89.68 1.61.27c-.21.59-.54 1.03-.98 1.34-.45.31-1.01.46-1.68.46-1.07 0-1.85-.34-2.36-1.03-.4-.55-.61-1.25-.61-2.09 0-1 .26-1.79.8-2.36.53-.57 1.2-.85 2.01-.85.91 0 1.63.3 2.16.89.53.6.78 1.51.76 2.74h-4.06c.01.48.14.85.39 1.11.25.26.56.4.93.4.25 0 .47-.07.64-.21.17-.14.3-.36.39-.67zm.09-1.62c-.01-.46-.13-.82-.36-1.06a1.12 1.12 0 0 0-.84-.36c-.35 0-.65.13-.88.38-.23.25-.34.6-.34 1.04h2.42z"/>
		<path class="st4" d="M211.97 91.61h-1.62v-3.09c0-.66-.03-1.08-.1-1.27a.906.906 0 0 0-.34-.45.947.947 0 0 0-.56-.16c-.28 0-.53.08-.75.23-.22.15-.38.35-.46.61-.08.25-.12.71-.12 1.39v2.74h-1.62v-6.06h1.5v.89c.53-.69 1.21-1.03 2.02-1.03.36 0 .68.06.98.19.3.13.52.29.67.49.15.2.26.42.32.67.06.25.09.61.09 1.08v3.77z"/>
	</g>
</svg>
