<svg xmlns="http://www.w3.org/2000/svg" viewBox="107.55 131.55 907.4 231.4">
	<defs>
		<clipPath id="a" clipPathUnits="userSpaceOnUse">
			<path d="M0 371.27h841.89V0H0z"/>
		</clipPath>
	</defs>
	<g fill="#0f51a1">
		<path d="m130.161 194.454 47.317 24.316 35.432-19.297.05-50.121z"/>
		<path d="m222.2 149.343 82.817 45.11-47.319 24.316-35.547-19.293z"/>
		<path d="m125.005 202.17 46.267 23.691v41.65l-46.267 25.225z"/>
		<path d="m187.32 223.826 30.209-16.454 30.268 16.486-30.208 15.524z"/>
		<path d="m180.513 230.609 32.456 16.679v37.9l-32.456-17.678z"/>
		<path d="m263.785 225.924 46.388-23.838v90.658l-46.388-25.234z"/>
		<path d="m222.209 247.289 32.336-16.616v36.839l-32.336 17.612z"/>
		<path d="m222.209 295.54 36.957-20.131 46.061 25.056-83.018 45.221z"/>
		<path d="m129.944 300.46 83.025 45.227-.062-50.116-37.014-20.16z"/>
		<path d="M389.154 278.446v12.395h-11.47v-12.395h-33.36v-11.004l29.076-59.077h12.742l-28.96 59.077h20.502v-19.229h11.47v19.23h8.804v11.003z"/>
		<path d="M410.814 232.112h11.814v58.728h-11.814zm-.347-24.094h12.51v12.511h-12.51z"/>
		<g clip-path="url(#a)" transform="matrix(1.33333 0 0 -1.33333 0 495.027)">
			<path d="M357.456 153.14v26.845c0 6.545-2.953 9.817-8.861 9.817-2.664 0-4.808-.782-6.429-2.346-1.796-1.737-2.693-4.228-2.693-7.471V153.14h-8.862v44.046h8.688v-4.43c3.069 3.301 6.979 4.952 11.728 4.952 4.459 0 8.08-1.333 10.86-3.997 2.954-2.896 4.431-7.037 4.431-12.423V153.14z"/>
			<path d="M392.64 153.14c-3.881 0-6.921 1.245-9.122 3.735-1.97 2.259-2.953 5.097-2.953 8.515v24.238h-5.039v6.777h5.039v13.379h8.861v-13.379h8.514v-6.777h-8.514v-23.804c0-3.418 1.621-5.125 4.865-5.125h3.649v-7.559z"/>
			<path d="M414.882 171.21c.23-3.418 1.303-6.081 3.214-7.992 1.969-2.029 4.604-3.041 7.906-3.041 4.17 0 7.733 1.505 10.686 4.517l5.647-5.299c-4.517-4.577-10.02-6.864-16.507-6.864-5.966 0-10.629 1.68-13.987 5.039-3.881 3.823-5.82 9.672-5.82 17.549 0 7.008 1.707 12.539 5.126 16.594 3.357 3.938 7.875 5.908 13.552 5.908 5.849 0 10.425-1.97 13.727-5.908 3.301-3.822 4.951-8.92 4.951-15.29v-3.996h-21.458v6.255h12.771c-.117 2.258-.522 4.257-1.216 5.994-1.565 3.706-4.489 5.56-8.775 5.56-4.287 0-7.211-1.854-8.775-5.56-.579-1.39-.927-2.897-1.042-4.518z"/>
			<path d="M466.746 153.14c-3.996 0-7.067 1.216-9.209 3.648-1.911 2.143-2.867 4.981-2.867 8.515v49.693h8.861v-49.172c0-3.418 1.593-5.125 4.778-5.125h3.911v-7.559z"/>
			<path d="M493.33 153.14c-3.996 0-7.066 1.216-9.208 3.648-1.912 2.143-2.867 4.981-2.867 8.515v49.693h8.861v-49.172c0-3.418 1.592-5.125 4.778-5.125h3.91v-7.559z"/>
			<path d="M508.098 197.187h8.861v-44.046h-8.861zm-.261 18.07h9.383v-9.383h-9.383z"/>
			<path d="M555.358 175.989c0 4.285-.493 7.472-1.478 9.557-1.389 2.837-3.909 4.256-7.557 4.256-3.592 0-6.082-1.419-7.472-4.256-1.042-2.085-1.563-5.272-1.563-9.557 0-4.287.521-7.472 1.563-9.557 1.39-2.838 3.88-4.256 7.472-4.256.521 0 1.042.028 1.563.086v-7.732a22.367 22.367 0 0 0-3.996-.347c-4.402 0-7.906 1.303-10.512 3.91-3.301 3.3-4.952 9.265-4.952 17.896 0 8.629 1.651 14.596 4.952 17.896 2.548 2.548 6.082 3.823 10.599 3.823 4.865 0 8.744-1.738 11.642-5.212v4.691h8.6v-43.786c0-5.502-1.68-9.961-5.039-13.379-3.474-3.532-8.109-5.3-13.9-5.3-6.14 0-11.323 1.942-15.551 5.822l5.648 5.646c2.779-2.606 5.963-3.909 9.555-3.909 3.532 0 6.197 1.129 7.993 3.388 1.621 1.969 2.433 4.604 2.433 7.906z"/>
			<path d="M584.201 171.21c.23-3.418 1.303-6.081 3.215-7.992 1.967-2.029 4.603-3.041 7.904-3.041 4.17 0 7.733 1.505 10.688 4.517l5.646-5.299c-4.517-4.577-10.021-6.864-16.508-6.864-5.965 0-10.629 1.68-13.986 5.039-3.881 3.823-5.82 9.672-5.82 17.549 0 7.008 1.707 12.539 5.125 16.594 3.359 3.938 7.877 5.908 13.552 5.908 5.85 0 10.426-1.97 13.727-5.908 3.301-3.822 4.953-8.92 4.953-15.29v-3.996h-21.459v6.255h12.77c-.116 2.258-.52 4.257-1.215 5.994-1.565 3.706-4.49 5.56-8.776 5.56-4.287 0-7.211-1.854-8.773-5.56-.58-1.39-.928-2.897-1.043-4.518z"/>
			<path d="M651.095 153.14v26.845c0 6.545-2.954 9.817-8.861 9.817-2.665 0-4.808-.782-6.429-2.346-1.796-1.737-2.693-4.228-2.693-7.471V153.14h-8.862v44.046h8.688v-4.43c3.069 3.301 6.978 4.952 11.728 4.952 4.459 0 8.079-1.333 10.86-3.997 2.954-2.896 4.43-7.037 4.43-12.423V153.14z"/>
			<path d="M705.045 158.874c-3.939-4.17-8.774-6.255-14.509-6.255-5.559 0-10.077 1.708-13.553 5.126-4.054 3.938-6.081 9.759-6.081 17.462 0 7.702 2.027 13.523 6.081 17.463 3.476 3.358 7.994 5.038 13.553 5.038 5.791 0 10.628-2.056 14.509-6.168l-6.081-5.907c-2.55 2.78-5.358 4.17-8.428 4.17-3.474 0-6.198-1.303-8.166-3.909-1.737-2.203-2.606-5.764-2.606-10.687 0-4.981.869-8.572 2.606-10.772 1.968-2.607 4.692-3.91 8.166-3.91 3.07 0 5.878 1.39 8.428 4.17z"/>
			<path d="M719.64 171.21c.23-3.418 1.304-6.081 3.215-7.992 1.968-2.029 4.604-3.041 7.905-3.041 4.17 0 7.733 1.505 10.687 4.517l5.646-5.299c-4.517-4.577-10.02-6.864-16.507-6.864-5.966 0-10.629 1.68-13.987 5.039-3.881 3.823-5.82 9.672-5.82 17.549 0 7.008 1.708 12.539 5.126 16.594 3.358 3.938 7.876 5.908 13.552 5.908 5.849 0 10.425-1.97 13.727-5.908 3.301-3.822 4.952-8.92 4.952-15.29v-3.996h-21.459v6.255h12.771c-.117 2.258-.521 4.257-1.216 5.994-1.564 3.706-4.489 5.56-8.775 5.56-4.287 0-7.211-1.854-8.774-5.56-.58-1.39-.928-2.897-1.043-4.518z"/>
		</g>
	</g>
</svg>
