<svg xmlns="http://www.w3.org/2000/svg" xml:space="preserve" width="1122.52" height="495.027">
	<defs>
		<clipPath clipPathUnits="userSpaceOnUse" id="a">
			<path d="M0 371.27h841.89V0H0Z"/>
		</clipPath>
	</defs>
	<path d="m0 0 35.488-18.237L62.062-3.764l.038 37.591Z" style="fill:#0f51a1;fill-opacity:1;fill-rule:nonzero;stroke:none" transform="matrix(1.33333 0 0 -1.33333 130.161 194.452)"/>
	<path d="m0 0 62.112-33.833L26.623-52.07-.037-37.6Z" style="fill:#0f51a1;fill-opacity:1;fill-rule:nonzero;stroke:none" transform="matrix(1.33333 0 0 -1.33333 222.202 149.341)"/>
	<path d="m0 0 34.7-17.769v-31.238L0-67.925Z" style="fill:#0f51a1;fill-opacity:1;fill-rule:nonzero;stroke:none" transform="matrix(1.33333 0 0 -1.33333 125.005 202.168)"/>
	<path d="m0 0 22.657 12.341L45.358-.024 22.702-11.667Z" style="fill:#0f51a1;fill-opacity:1;fill-rule:nonzero;stroke:none" transform="matrix(1.33333 0 0 -1.33333 187.32 223.825)"/>
	<path d="m0 0 24.342-12.509v-28.426L0-27.676Z" style="fill:#0f51a1;fill-opacity:1;fill-rule:nonzero;stroke:none" transform="matrix(1.33333 0 0 -1.33333 180.513 230.609)"/>
	<path d="m0 0 34.791 17.878v-67.993L0-31.19Z" style="fill:#0f51a1;fill-opacity:1;fill-rule:nonzero;stroke:none" transform="matrix(1.33333 0 0 -1.33333 263.785 225.923)"/>
	<path d="m0 0 24.252 12.462v-27.629L0-28.376Z" style="fill:#0f51a1;fill-opacity:1;fill-rule:nonzero;stroke:none" transform="matrix(1.33333 0 0 -1.33333 222.21 247.288)"/>
	<path d="m0 0 27.718 15.098L62.264-3.694 0-37.61Z" style="fill:#0f51a1;fill-opacity:1;fill-rule:nonzero;stroke:none" transform="matrix(1.33333 0 0 -1.33333 222.21 295.54)"/>
	<path d="m0 0 62.269-33.92-.046 37.587-27.761 15.12Z" style="fill:#0f51a1;fill-opacity:1;fill-rule:nonzero;stroke:none" transform="matrix(1.33333 0 0 -1.33333 129.944 300.46)"/>
	<path d="M0 0v-9.296h-8.602V0h-25.02v8.253l21.807 44.308h9.556l-21.72-44.308h15.377v14.422H0V8.253h6.603V0Z" style="fill:#0f51a1;fill-opacity:1;fill-rule:nonzero;stroke:none" transform="matrix(1.33333 0 0 -1.33333 389.155 278.445)"/>
	<path d="M308.111 197.187h8.861v-44.046h-8.861zm-.26 18.07h9.383v-9.383h-9.383z" style="fill:#0f51a1;fill-opacity:1;fill-rule:nonzero;stroke:none" transform="matrix(1.33333 0 0 -1.33333 0 495.027)"/>
	<g clip-path="url(#a)" transform="matrix(1.33333 0 0 -1.33333 0 495.027)">
		<path d="M0 0v26.845c0 6.545-2.953 9.817-8.861 9.817-2.664 0-4.808-.782-6.429-2.346-1.796-1.737-2.693-4.228-2.693-7.471V0h-8.862v44.046h8.688v-4.43c3.069 3.301 6.979 4.952 11.728 4.952 4.459 0 8.08-1.333 10.86-3.997 2.954-2.896 4.431-7.037 4.431-12.423V0Z" style="fill:#0f51a1;fill-opacity:1;fill-rule:nonzero;stroke:none" transform="translate(357.456 153.14)"/>
		<path d="M0 0c-3.881 0-6.921 1.245-9.122 3.735-1.97 2.259-2.953 5.097-2.953 8.515v24.238h-5.039v6.777h5.039v13.379h8.861V43.265H5.3v-6.777h-8.514V12.684c0-3.418 1.621-5.125 4.865-5.125H5.3V0Z" style="fill:#0f51a1;fill-opacity:1;fill-rule:nonzero;stroke:none" transform="translate(392.64 153.14)"/>
		<path d="M0 0c.23-3.418 1.303-6.081 3.214-7.992 1.969-2.029 4.604-3.041 7.906-3.041 4.17 0 7.733 1.505 10.686 4.517l5.647-5.299c-4.517-4.577-10.02-6.864-16.507-6.864-5.966 0-10.629 1.68-13.987 5.039-3.881 3.823-5.82 9.672-5.82 17.549 0 7.008 1.707 12.539 5.126 16.594 3.357 3.938 7.875 5.908 13.552 5.908 5.849 0 10.425-1.97 13.727-5.908 3.301-3.822 4.951-8.92 4.951-15.29V1.217H7.037v6.255h12.771c-.117 2.258-.522 4.257-1.216 5.994-1.565 3.706-4.489 5.56-8.775 5.56-4.287 0-7.211-1.854-8.775-5.56C.463 12.076.115 10.569 0 8.948Z" style="fill:#0f51a1;fill-opacity:1;fill-rule:nonzero;stroke:none" transform="translate(414.882 171.21)"/>
		<path d="M0 0c-3.996 0-7.067 1.216-9.209 3.648-1.911 2.143-2.867 4.981-2.867 8.515v49.693h8.861V12.684c0-3.418 1.593-5.125 4.778-5.125h3.911V0Z" style="fill:#0f51a1;fill-opacity:1;fill-rule:nonzero;stroke:none" transform="translate(466.746 153.14)"/>
		<path d="M0 0c-3.996 0-7.066 1.216-9.208 3.648-1.912 2.143-2.867 4.981-2.867 8.515v49.693h8.861V12.684c0-3.418 1.592-5.125 4.778-5.125h3.91V0Z" style="fill:#0f51a1;fill-opacity:1;fill-rule:nonzero;stroke:none" transform="translate(493.33 153.14)"/>
		<path d="M508.098 197.187h8.861v-44.046h-8.861zm-.261 18.07h9.383v-9.383h-9.383z" style="fill:#0f51a1;fill-opacity:1;fill-rule:nonzero;stroke:none"/>
		<path d="M0 0c0 4.285-.493 7.472-1.478 9.557-1.389 2.837-3.909 4.256-7.557 4.256-3.592 0-6.082-1.419-7.472-4.256C-17.549 7.472-18.07 4.285-18.07 0c0-4.287.521-7.472 1.563-9.557 1.39-2.838 3.88-4.256 7.472-4.256.521 0 1.042.028 1.563.086v-7.732a22.367 22.367 0 0 0-3.996-.347c-4.402 0-7.906 1.303-10.512 3.91-3.301 3.3-4.952 9.265-4.952 17.896 0 8.629 1.651 14.596 4.952 17.896 2.548 2.548 6.082 3.823 10.599 3.823 4.865 0 8.744-1.738 11.642-5.212v4.691h8.6v-43.786c0-5.502-1.68-9.961-5.039-13.379-3.474-3.532-8.109-5.3-13.9-5.3-6.14 0-11.323 1.942-15.551 5.822l5.648 5.646c2.779-2.606 5.963-3.909 9.555-3.909 3.532 0 6.197 1.129 7.993 3.388C-.812-28.351 0-25.716 0-22.414z" style="fill:#0f51a1;fill-opacity:1;fill-rule:nonzero;stroke:none" transform="translate(555.358 175.989)"/>
		<path d="M0 0c.23-3.418 1.303-6.081 3.215-7.992 1.967-2.029 4.603-3.041 7.904-3.041 4.17 0 7.733 1.505 10.688 4.517l5.646-5.299c-4.517-4.577-10.021-6.864-16.508-6.864-5.965 0-10.629 1.68-13.986 5.039-3.881 3.823-5.82 9.672-5.82 17.549 0 7.008 1.707 12.539 5.125 16.594 3.359 3.938 7.877 5.908 13.552 5.908 5.85 0 10.426-1.97 13.727-5.908 3.301-3.822 4.953-8.92 4.953-15.29V1.217H7.037v6.255h12.77c-.116 2.258-.52 4.257-1.215 5.994-1.565 3.706-4.49 5.56-8.776 5.56-4.287 0-7.211-1.854-8.773-5.56C.463 12.076.115 10.569 0 8.948Z" style="fill:#0f51a1;fill-opacity:1;fill-rule:nonzero;stroke:none" transform="translate(584.201 171.21)"/>
		<path d="M0 0v26.845c0 6.545-2.954 9.817-8.861 9.817-2.665 0-4.808-.782-6.429-2.346-1.796-1.737-2.693-4.228-2.693-7.471V0h-8.862v44.046h8.688v-4.43c3.069 3.301 6.978 4.952 11.728 4.952 4.459 0 8.079-1.333 10.86-3.997 2.954-2.896 4.43-7.037 4.43-12.423V0Z" style="fill:#0f51a1;fill-opacity:1;fill-rule:nonzero;stroke:none" transform="translate(651.095 153.14)"/>
		<path d="M0 0c-3.939-4.17-8.774-6.255-14.509-6.255-5.559 0-10.077 1.708-13.553 5.126-4.054 3.938-6.081 9.759-6.081 17.462 0 7.702 2.027 13.523 6.081 17.463 3.476 3.358 7.994 5.038 13.553 5.038 5.791 0 10.628-2.056 14.509-6.168l-6.081-5.907c-2.55 2.78-5.358 4.17-8.428 4.17-3.474 0-6.198-1.303-8.166-3.909-1.737-2.203-2.606-5.764-2.606-10.687 0-4.981.869-8.572 2.606-10.772 1.968-2.607 4.692-3.91 8.166-3.91 3.07 0 5.878 1.39 8.428 4.17z" style="fill:#0f51a1;fill-opacity:1;fill-rule:nonzero;stroke:none" transform="translate(705.045 158.874)"/>
		<path d="M0 0c.23-3.418 1.304-6.081 3.215-7.992 1.968-2.029 4.604-3.041 7.905-3.041 4.17 0 7.733 1.505 10.687 4.517l5.646-5.299c-4.517-4.577-10.02-6.864-16.507-6.864-5.966 0-10.629 1.68-13.987 5.039-3.881 3.823-5.82 9.672-5.82 17.549 0 7.008 1.708 12.539 5.126 16.594 3.358 3.938 7.876 5.908 13.552 5.908 5.849 0 10.425-1.97 13.727-5.908 3.301-3.822 4.952-8.92 4.952-15.29V1.217H7.037v6.255h12.771c-.117 2.258-.521 4.257-1.216 5.994-1.564 3.706-4.489 5.56-8.775 5.56-4.287 0-7.211-1.854-8.774-5.56C.463 12.076.115 10.569 0 8.948Z" style="fill:#0f51a1;fill-opacity:1;fill-rule:nonzero;stroke:none" transform="translate(719.64 171.21)"/>
	</g>
</svg>
