<svg xmlns="http://www.w3.org/2000/svg" xmlns:xlink="http://www.w3.org/1999/xlink" viewBox="0 0 106 41" fill="#fff" fill-rule="evenodd" stroke="#000" stroke-linecap="round" stroke-linejoin="round"><use xlink:href="#D" x=".5" y=".5"/><defs><linearGradient id="A" spreadMethod="pad" y2="-3.70%" x2="5.90%" y1="97.43%" x1="85.47%"><stop offset="0%" stop-color="#4f66b9"/><stop offset="1%" stop-color="#484fab"/></linearGradient><linearGradient id="B" spreadMethod="pad" y2="-3.45%" x2="14.49%" y1="94.28%" x1="110.58%"><stop offset="0%" stop-color="#4f66b9"/><stop offset="1%" stop-color="#484fab"/></linearGradient><linearGradient id="C" spreadMethod="pad" y2="17.57%" x2="11.69%" y1="94.54%" x1="63.02%"><stop offset="0%" stop-color="#4c68bb"/><stop offset="1%" stop-color="#5180c9"/></linearGradient></defs><symbol id="D" overflow="visible"><g stroke="none" fill-rule="nonzero"><path d="M42.496 20.778h2.679l-1.345-3.897zm3.725 3.203l-.708-2.119h-3.372l-.682 2.119h-1.487l3.086-8.439h1.607l3.04 8.439h-1.486m10.06 0V19.78c0-.374-.073-.641-.219-.804s-.387-.243-.719-.243a2.8 2.8 0 0 0-.804.127 3.14 3.14 0 0 0-.743.323v4.798H52.36V19.78c0-.374-.073-.641-.219-.804s-.387-.243-.719-.243c-.258.003-.514.042-.761.116-.272.076-.532.189-.774.335v4.798h-1.437v-6.197h1.194l.133.621c.406-.276.789-.479 1.15-.608.349-.128.718-.193 1.09-.195.755 0 1.275.28 1.548.84.813-.56 1.592-.84 2.338-.84.575 0 1.023.155 1.34.469s.475.765.475 1.36v4.555h-1.437m4.873-.847a1.92 1.92 0 0 0 .724-.153 2.81 2.81 0 0 0 .736-.442v-1.17c-.42-.088-.792-.133-1.105-.133-.824 0-1.235.328-1.235.986 0 .284.077.505.238.663s.376.238.663.238zm1.643.84l-.111-.597a3.35 3.35 0 0 1-.943.573c-.346.138-.689.207-1.028.207-.568 0-1.028-.17-1.382-.512s-.531-.774-.531-1.327c0-.6.217-1.079.663-1.437s1.017-.536 1.747-.536c.442 0 .901.061 1.413.182v-.719c0-.415-.088-.702-.268-.864s-.491-.243-.937-.243c-.633 0-1.36.133-2.18.401v-1.01c.305-.155.68-.276 1.122-.365s.884-.133 1.332-.133c.81 0 1.407.163 1.791.486s.577.832.577 1.522v4.372h-1.255m2.178 0V22.92l3.46-4.043H65.1v-1.105h4.883v1.059l-3.458 4.043h3.495v1.105H64.99m8.632-.949c1.023 0 1.534-.719 1.534-2.156 0-1.428-.512-2.142-1.534-2.142s-1.534.714-1.534 2.142c0 1.437.512 2.156 1.534 2.156zm0 1.133c-.942 0-1.677-.29-2.204-.871s-.789-1.384-.789-2.418.263-1.835.792-2.41 1.262-.864 2.204-.864 1.676.287 2.204.864.792 1.382.792 2.41-.265 1.837-.792 2.418-1.262.871-2.204.871m8.291-.182v-4.104c0-.398-.081-.688-.243-.871s-.422-.274-.779-.274c-.536 0-1.083.177-1.644.535v4.713h-1.437v-6.198h1.194l.146.682c.774-.575 1.548-.864 2.388-.864.593 0 1.044.155 1.352.469s.464.765.464 1.36v4.555h-1.437m4.319-.001v-8.44h4.981v.646h-4.263v3.095h3.654v.646h-3.654v3.397h4.263v.646h-4.981m6.418 0v-8.429h.719v3.909l3.872-3.909h.926l-4.092 4.116 4.422 4.311h-.987l-4.152-4.043v4.043h-.719m8.196-4.248c-.625-.243-1.083-.534-1.376-.87s-.439-.752-.439-1.249c0-.663.241-1.219.724-1.638s1.119-.627 1.906-.627a5.24 5.24 0 0 1 1.128.128c.394.085.765.206 1.114.359v.621c-.829-.292-1.563-.439-2.204-.439-.626 0-1.105.136-1.437.409s-.5.66-.5 1.163c0 .284.051.514.153.688s.268.332.5.475.562.295.993.457l1.304.5c.586.227 1.01.505 1.279.834s.401.741.401 1.236a2.18 2.18 0 0 1-.797 1.753c-.531.447-1.233.67-2.1.67-.901 0-1.705-.17-2.41-.511v-.621c.851.31 1.636.464 2.35.464.663 0 1.212-.158 1.614-.475s.602-.747.602-1.291c.006-.316-.112-.622-.329-.852-.219-.235-.573-.447-1.059-.633l-1.413-.548" fill="#232a3a"/><path d="M13.813 13.567h1.623v4.786l4.673-4.786h2.142l-5.127 5.273 5.451 6.085h-2.077l-5.062-5.679v5.679h-1.623V13.567" fill="url(#A)"/><path d="M18.896 9.059l7.992 4.614a.44.44 0 0 1 .22.382v9.228a.44.44 0 0 0 .221.382l7.132 4.118a.44.44 0 0 0 .661-.382V9.427a.44.44 0 0 0-.22-.382L19.338.06c-.294-.17-.662.043-.662.382v8.235a.44.44 0 0 0 .221.382" fill="url(#B)"/><path d="M25.773 25.596l-7.992 4.614a.44.44 0 0 1-.441 0l-9.107-5.258c-.136-.079-.221-.225-.221-.382V14.054a.44.44 0 0 1 .221-.382l7.992-4.614a.44.44 0 0 0 .221-.381V.442c0-.339-.368-.551-.662-.382L.22 9.046a.44.44 0 0 0-.22.382v19.769c0 .158.084.303.22.382l17.121 9.884a.44.44 0 0 0 .441 0l15.564-8.986a.44.44 0 0 0 0-.764l-7.132-4.118a.44.44 0 0 0-.441 0" fill="url(#C)"/></g></symbol></svg>