<svg xmlns="http://www.w3.org/2000/svg" viewBox="-6.2 -5.95 309.66 72.41">
	<path fill="#fff" d="M281.777 51.033h-82.22V9.703h82.22v41.33"/>
	<path fill="#3580cb" d="M277.945 18.789h-13.29v28.899h-6.12v-28.9h-25.88c-5.089 0-9.097 3.084-10.42 7.806a13.007 13.007 0 0 0-.469 3.513c0 1.238.163 2.416.464 3.508 1.314 4.747 5.298 7.957 10.424 7.957h18.98v6.116h-18.98c-2.442 0-4.729-.48-6.782-1.36-4.618-1.985-8.06-5.988-9.49-11.085a20.022 20.022 0 0 1-.731-5.423c0-1.934.254-3.745.732-5.414 1.429-4.997 4.871-8.702 9.489-10.506 2.053-.801 4.34-1.23 6.782-1.23h45.291zm-67.69-6.119v35.018h-6.117V12.67h6.117zM284.525 0h-35.7c-4.262 0-8.09 2.045-10.53 5.199C235.875 2.045 232.07 0 227.806 0h-35.732c-7.272 0-13.222 5.945-13.222 13.222V47.48c0 7.275 5.95 13.223 13.222 13.223h35.732c4.263 0 8.068-2.042 10.49-5.198.366.477.77.924 1.2 1.346.442.526.977.98 1.586 1.344a13.238 13.238 0 0 0 7.742 2.508h35.7c7.275 0 13.223-5.948 13.223-13.223V13.223c0-7.277-5.948-13.222-13.222-13.222"/>
	<path fill="#1c4f9c" d="M109.193 18.924v-4.536c0-2.56-2.099-4.718-4.66-4.718H71.1c-2.561 0-4.659 2.158-4.659 4.718v31.986c0 2.565 2.103 4.661 4.659 4.661h33.435c2.56 0 4.66-2.096 4.66-4.661V41.78h-3.653v4.594c0 .586-.426 1.01-1.007 1.01H71.099c-.581 0-1.069-.424-1.069-1.01V14.388c0-.582.49-1.07 1.069-1.07h33.435c.578 0 1.007.488 1.007 1.07v4.536h3.652m56.72 0v-4.536c0-2.56-2.098-4.718-4.658-4.718h-33.436c-2.56 0-4.66 2.158-4.66 4.718v31.986c0 2.565 2.1 4.661 4.66 4.661h33.436c2.557 0 4.658-2.096 4.658-4.661V41.78h-3.65v4.594a.98.98 0 0 1-1.008 1.01h-33.436c-.585 0-1.07-.424-1.07-1.01V14.388c0-.582.487-1.07 1.07-1.07h33.436c.576 0 1.008.493 1.008 1.07v4.536h3.65M48.861 37.18v9.192c0 .582-.485 1.008-1.07 1.008H14.356a.977.977 0 0 1-1.007-1.008V37.18c0-.58.43-1.01 1.007-1.01H47.79c.582 0 1.07.428 1.07 1.01zm-34.505-4.661c-2.56 0-4.658 2.098-4.658 4.66v9.193c0 2.563 2.101 4.662 4.658 4.662H47.79c2.561 0 4.661-2.104 4.661-4.662V37.18c0-2.56-2.097-4.661-4.661-4.661H14.356"/>
	<path fill="#1c4f9c" d="M3.652 13.232c0-5.304 4.275-9.637 9.569-9.637h35.705c3.703 0 6.931 2.123 8.541 5.21l-.037.112h3.987l-.013-.041c1.597-3.125 4.847-5.284 8.577-5.284h35.7c3.707 0 6.91 2.129 8.502 5.224-.012.033-.025.066-.035.101h4.027l-.03-.09c1.609-3.098 4.845-5.235 8.553-5.235H162.4c3.746 0 6.975 2.177 8.547 5.325h3.845a13.359 13.359 0 0 0-2.332-4.106v-.105c-2.428-2.864-6.033-4.703-10.06-4.703h-35.703c-4.26 0-8.087 2.045-10.527 5.198-2.422-3.153-6.227-5.198-10.49-5.198h-35.7c-4.274 0-8.112 2.057-10.55 5.225C57.01 2.06 53.197.006 48.926.006H13.22C5.949.006 0 5.954 0 13.232v.078h3.652v-.078"/>
	<path fill="#1c4f9c" d="M170.966 51.753c-1.566 3.166-4.805 5.36-8.565 5.36h-35.703c-3.708 0-6.947-2.135-8.553-5.233a8.33 8.33 0 0 1 .042-.127h-4.053c.016.046.03.092.049.138-1.59 3.093-4.795 5.222-8.502 5.222h-35.7c-3.727 0-6.977-2.156-8.576-5.278.01-.027.018-.055.027-.082h-4.015c.016.052.035.1.05.152-1.608 3.09-4.838 5.214-8.541 5.214H13.22c-5.294 0-9.568-4.334-9.568-9.635V36.088c0-5.3 4.274-9.634 9.568-9.634h39.231V14.363c0-2.556-2.1-4.66-4.661-4.66H14.356c-2.195 0-4.052 1.548-4.534 3.607h4.375c.05-.008.105-.016.159-.016H47.79c.585 0 1.07.49 1.07 1.069v8.44H13.22C5.949 22.803 0 28.81 0 36.088v11.396c0 7.278 5.949 13.223 13.221 13.223h35.705c4.271 0 8.088-2.055 10.507-5.224 2.44 3.17 6.274 5.221 10.548 5.221h35.7c4.263 0 8.068-2.044 10.49-5.2 2.44 3.156 6.267 5.2 10.527 5.2H162.4c4.022 0 7.635-1.822 10.06-4.68v-.127a13.393 13.393 0 0 0 2.345-4.144h-3.84"/>
</svg>
