<svg xmlns="http://www.w3.org/2000/svg" xml:space="preserve" width="297.76" height="60.707">
	<path d="M2113.38 72.559h-616.66v309.984h616.66V72.559" style="fill:#fff;fill-opacity:1;fill-rule:nonzero;stroke:none" transform="matrix(.13333 0 0 -.13333 0 60.707)"/>
	<path d="M2084.64 314.395h-99.68V97.648h-45.9v216.747h-194.11c-38.16 0-68.22-23.122-78.15-58.543-2.29-8.172-3.51-17.008-3.51-26.348 0-9.285 1.22-18.117 3.48-26.309 9.85-35.605 39.73-59.679 78.18-59.679h142.35V97.648h-142.35c-18.32 0-35.47 3.594-50.87 10.196-34.63 14.89-60.45 44.91-71.17 83.144-3.58 12.742-5.49 26.383-5.49 40.668 0 14.504 1.91 28.094 5.49 40.606 10.72 37.48 36.54 65.269 71.17 78.797 15.4 6.011 32.55 9.226 50.87 9.226H2084.64zm-507.69 45.89V97.648h-45.88v262.637h45.88zm557.04 95.024h-267.76c-31.96 0-60.67-15.336-78.97-38.985-18.16 23.649-46.7 38.985-78.67 38.985h-268c-54.54 0-99.17-44.59-99.17-99.172V99.211c0-54.563 44.63-99.172 99.17-99.172h268c31.97 0 60.51 15.313 78.67 38.984 2.75-3.574 5.78-6.933 9-10.097 3.32-3.946 7.33-7.352 11.9-10.078C1824.58 7.05 1844.64.039 1866.23.039h267.76c54.56 0 99.17 44.61 99.17 99.172v256.926c0 54.582-44.61 99.172-99.17 99.172" style="fill:#3580cb;fill-opacity:1;fill-rule:nonzero;stroke:none" transform="matrix(.13333 0 0 -.13333 0 60.707)"/>
	<path d="M818.969 313.379v34.023c0 19.2-15.742 35.387-34.946 35.387H533.254c-19.207 0-34.941-16.187-34.941-35.387V107.5c0-19.238 15.773-34.96 34.941-34.96h250.769c19.204 0 34.946 15.722 34.946 34.96v34.453h-27.391V107.5c0-4.395-3.199-7.578-7.555-7.578H533.254c-4.359 0-8.016 3.183-8.016 7.578v239.902c0 4.368 3.68 8.028 8.016 8.028h250.769c4.336 0 7.555-3.66 7.555-8.028v-34.023h27.391" style="fill:#1c4f9c;fill-opacity:1;fill-rule:nonzero;stroke:none" transform="matrix(.13333 0 0 -.13333 0 60.707)"/>
	<path d="M1244.38 313.379v34.023c0 19.2-15.74 35.387-34.94 35.387H958.668c-19.195 0-34.957-16.187-34.957-35.387V107.5c0-19.238 15.762-34.96 34.957-34.96h250.772c19.18 0 34.94 15.722 34.94 34.96v34.453H1217V107.5c0-4.375-3.22-7.578-7.56-7.578H958.668c-4.387 0-8.023 3.183-8.023 7.578v239.902c0 4.368 3.652 8.028 8.023 8.028h250.772c4.32 0 7.56-3.7 7.56-8.028v-34.023h27.38" style="fill:#1c4f9c;fill-opacity:1;fill-rule:nonzero;stroke:none" transform="matrix(.13333 0 0 -.13333 0 60.707)"/>
	<path d="M366.465 176.465V107.52c0-4.364-3.633-7.56-8.024-7.56H107.672c-4.359 0-7.555 3.196-7.555 7.56v68.945c0 4.348 3.227 7.578 7.555 7.578h250.769c4.364 0 8.024-3.215 8.024-7.578zm-258.793 34.961c-19.195 0-34.938-15.742-34.938-34.961V107.52c0-19.22 15.762-34.961 34.938-34.961h250.769c19.211 0 34.961 15.78 34.961 34.961v68.945c0 19.199-15.73 34.961-34.961 34.961H107.672" style="fill:#1c4f9c;fill-opacity:1;fill-rule:nonzero;stroke:none" transform="matrix(.13333 0 0 -.13333 0 60.707)"/>
	<path d="M27.395 356.074c0 39.778 32.062 72.278 71.765 72.278h267.793c27.774 0 51.985-15.926 64.063-39.082-.094-.286-.188-.547-.278-.836h29.903l-.098.308c11.98 23.442 36.355 39.633 64.328 39.633h267.758c27.805 0 51.828-15.969 63.762-39.184-.09-.246-.184-.496-.262-.757h30.203c-.07.222-.141.449-.223.671 12.067 23.239 36.34 39.27 64.149 39.27h267.782c28.09 0 52.31-16.332 64.1-39.941h28.84a100.194 100.194 0 0 1-17.49 30.8v.786c-18.21 21.476-45.25 35.269-75.45 35.269H950.258c-31.953 0-60.653-15.336-78.957-38.984-18.16 23.648-46.699 38.984-78.672 38.984H524.871c-32.055 0-60.84-15.422-79.125-39.184-18.164 23.762-46.758 39.165-78.793 39.165H99.16C44.617 455.27 0 410.66 0 356.074v-.586h27.395v.586" style="fill:#1c4f9c;fill-opacity:1;fill-rule:nonzero;stroke:none" transform="matrix(.13333 0 0 -.13333 0 60.707)"/>
	<path d="M1282.28 67.16c-11.75-23.75-36.04-40.207-64.24-40.207H950.258c-27.809 0-52.106 16.016-64.149 39.25.102.32.204.633.313.957H856.023c.125-.351.231-.695.368-1.039-11.926-23.2-35.957-39.168-63.762-39.168H524.871c-27.957 0-52.328 16.172-64.324 39.59.074.203.137.41.207.617h-30.113c.121-.39.261-.754.379-1.144-12.067-23.172-36.293-39.102-64.067-39.102H99.16c-39.703 0-71.765 32.5-71.765 72.258v85.476c0 39.75 32.062 72.258 71.765 72.258h294.242v90.684c0 19.172-15.75 34.953-34.961 34.953H107.672c-16.461 0-30.387-11.613-34.004-27.055h32.809c.382.059.789.121 1.195.121h250.769c4.391 0 8.024-3.675 8.024-8.019v-63.305H99.16C44.617 284.285 0 239.234 0 184.648V99.172C0 44.59 44.617 0 99.16 0h267.793c32.035 0 60.66 15.41 78.809 39.18C464.055 15.41 492.816.02 524.871.02h267.758c31.973 0 60.512 15.332 78.672 39.003C889.605 15.352 918.305.02 950.258.02h267.782c30.16 0 57.26 13.671 75.45 35.097v.957c7.61 9.14 13.59 19.66 17.59 31.086h-28.8" style="fill:#1c4f9c;fill-opacity:1;fill-rule:nonzero;stroke:none" transform="matrix(.13333 0 0 -.13333 0 60.707)"/>
</svg>
