<svg xmlns="http://www.w3.org/2000/svg" viewBox="42.7 5.2 314.6 232.1">
	<defs>
		<style>
			.cls-1{fill:#28bed6}
		</style>
	</defs>
	<path d="M200.002 11.36A50.638 50.638 0 0 1 250.5 58.381a53.79 53.79 0 0 0-15.17 2.384c-1.301.4-2.593.834-3.86 1.35v-.15a31.467 31.467 0 0 0-62.933 0v.15a51.308 51.308 0 0 0-4.552-1.55 53.706 53.706 0 0 0-14.47-2.184 50.638 50.638 0 0 1 50.488-47.02z" class="cls-1"/>
	<path fill="#093149" d="M89.748 192.092v38.668h-8.62v-5a14.012 14.012 0 0 1-5.542 4.125 18.68 18.68 0 0 1-7.286 1.384 20.514 20.514 0 0 1-10.102-2.5 17.505 17.505 0 0 1-6.952-6.953 22.923 22.923 0 0 1 0-20.839 17.622 17.622 0 0 1 6.952-6.918 20.514 20.514 0 0 1 10.102-2.5 17.971 17.971 0 0 1 6.919 1.3 15.304 15.304 0 0 1 5.468 3.842v-4.71zm-12.17 28.099a13.404 13.404 0 0 0 0-17.505 11.028 11.028 0 0 0-8.252-3.334 10.911 10.911 0 0 0-8.22 3.334 13.512 13.512 0 0 0 0 17.505 11.838 11.838 0 0 0 16.472 0zm28.1 8.544a18.622 18.622 0 0 1-7.503-7.06A19.755 19.755 0 0 1 95.5 211.43a19.547 19.547 0 0 1 2.676-10.21 18.788 18.788 0 0 1 7.427-7.028 22.573 22.573 0 0 1 10.836-2.5 20.906 20.906 0 0 1 10.003 2.317 15.004 15.004 0 0 1 6.477 6.668l-6.952 4.06a11.011 11.011 0 0 0-4.168-4.018 11.328 11.328 0 0 0-5.468-1.342 11.461 11.461 0 0 0-8.402 3.334 13.275 13.275 0 0 0 0 17.597 12.195 12.195 0 0 0 13.903 1.959 11.011 11.011 0 0 0 4.168-4.018l6.952 4.05a15.596 15.596 0 0 1-6.552 6.67 20.447 20.447 0 0 1-9.952 2.35 22.648 22.648 0 0 1-10.77-2.584zm41.493 0a18.622 18.622 0 0 1-7.502-7.06 19.755 19.755 0 0 1-2.675-10.245 19.547 19.547 0 0 1 2.675-10.21 18.847 18.847 0 0 1 7.427-7.028 22.573 22.573 0 0 1 10.837-2.5 20.906 20.906 0 0 1 10.002 2.317 15.087 15.087 0 0 1 6.485 6.668l-6.926 4.018a11.095 11.095 0 0 0-4.168-4.018 11.328 11.328 0 0 0-5.468-1.342 11.486 11.486 0 0 0-8.403 3.335 13.275 13.275 0 0 0 0 17.596 12.195 12.195 0 0 0 13.87 1.917 11.095 11.095 0 0 0 4.169-4.018l6.951 4.052a15.663 15.663 0 0 1-6.56 6.668 20.447 20.447 0 0 1-9.952 2.35 22.673 22.673 0 0 1-10.762-2.5zm72.561-36.643v38.668h-8.61v-4.918a14.454 14.454 0 0 1-5.435 4.018 17.505 17.505 0 0 1-7.027 1.409q-7.752 0-12.203-4.31t-4.451-12.778v-22.09h9.052v20.84q0 5.21 2.35 7.785a8.57 8.57 0 0 0 6.67 2.576 10.153 10.153 0 0 0 7.71-3.01q2.867-3 2.859-8.652v-19.538zm31.359-.434v8.62a10.96 10.96 0 0 0-2.1-.217q-5.294 0-8.253 3.075t-2.967 8.87v18.754h-9.053v-38.668h8.62v5.651q3.9-6.085 13.753-6.085zm8.094-7.493a5.36 5.36 0 0 1-.175-7.578q.085-.09.175-.174a5.835 5.835 0 0 1 4.167-1.56 6.01 6.01 0 0 1 4.126 1.485 4.801 4.801 0 0 1 1.668 3.734 5.435 5.435 0 0 1-1.668 4.018 5.643 5.643 0 0 1-4.167 1.667 5.835 5.835 0 0 1-4.126-1.592zm-.434 7.927h9.053v38.668h-9.036zm27.94 36.643a18.572 18.572 0 0 1-7.501-7.06 19.755 19.755 0 0 1-2.676-10.245 19.547 19.547 0 0 1 2.676-10.21 18.738 18.738 0 0 1 7.427-7.028 22.573 22.573 0 0 1 10.836-2.5 20.906 20.906 0 0 1 10.003 2.317 15.004 15.004 0 0 1 6.477 6.668l-6.952 4.06a11.011 11.011 0 0 0-4.168-4.018 11.328 11.328 0 0 0-5.468-1.342 11.461 11.461 0 0 0-8.402 3.334 13.275 13.275 0 0 0 0 17.597 12.195 12.195 0 0 0 13.903 1.959 11.011 11.011 0 0 0 4.168-4.018l6.952 4.05a15.596 15.596 0 0 1-6.552 6.67 20.472 20.472 0 0 1-9.953 2.35 22.648 22.648 0 0 1-10.77-2.584zm37.836 1.309a23.14 23.14 0 0 1-7.169-3.118l3.51-6.835a22.322 22.322 0 0 0 6.26 2.784 26.066 26.066 0 0 0 7.21 1.05q8.102 0 8.11-4.268a2.85 2.85 0 0 0-2.067-2.825 35.392 35.392 0 0 0-6.627-1.526 53.032 53.032 0 0 1-7.785-1.667 11.912 11.912 0 0 1-5.21-3.334 9.192 9.192 0 0 1-2.209-6.552 10.303 10.303 0 0 1 4.593-8.802q4.601-3.284 12.42-3.334a35.576 35.576 0 0 1 7.97.908 22.23 22.23 0 0 1 6.517 2.426l-3.475 6.877a21.422 21.422 0 0 0-11.078-2.901 12.257 12.257 0 0 0-6.052 1.2 3.551 3.551 0 0 0-2.059 3.151 3.143 3.143 0 0 0 2.209 3.076 35.384 35.384 0 0 0 6.843 1.667 53.498 53.498 0 0 1 7.602 1.667 11.937 11.937 0 0 1 5.102 3.184 8.934 8.934 0 0 1 2.142 6.377 10.086 10.086 0 0 1-4.71 8.686q-4.717 3.267-12.82 3.259a34.767 34.767 0 0 1-9.227-1.15z"/>
	<path d="M283.474 79.92a45.612 45.612 0 0 0-50.538-9.586 45.846 45.846 0 0 0-15.196 10.737l-49.28 49.28-.175.191-.516.517a26.574 26.574 0 1 1-8.244-43.228 26.416 26.416 0 0 1 4.284 2.35 17.305 17.305 0 0 1 12.437-14.579 45.845 45.845 0 0 0-9.086-5.276 45.696 45.696 0 1 0 14.17 74.236l50.347-50.413-.758-.75.742.692a26.674 26.674 0 0 1 8.852-6.252 26.674 26.674 0 1 1-8.836 42.578l-11.344-11.345-13.537 13.496 11.344 11.344a45.737 45.737 0 1 0 66.3-63.023q-.475-.5-.966-.985z" class="cls-1"/>
	<circle cx="180.905" cy="92.215" r="12.27" fill="#083149"/>
</svg>
