<svg version="1.1" id="Layer_1" xmlns="http://www.w3.org/2000/svg" x="0" y="0" viewBox="0 0 425.7 104.9" style="enable-background:new 0 0 425.7 104.9" xml:space="preserve">
	<style>
		.st0{fill:#0d0802}
	</style>
	<path class="st0" d="M168.7 38.2V82h-10v-5.9c-2.3 3.9-8.2 6.8-14 6.8-11.8 0-21.1-10-21.1-22.9 0-12.7 9.2-22.8 21.1-22.8 5.8 0 11.7 2.9 14 6.8v-5.9h10zm-9.9 28.7V53.4c-2.2-3.9-6.9-6.6-11.9-6.6-7.5 0-13.3 5.6-13.3 13.3s5.7 13.4 13.3 13.4c4.9-.1 9.7-2.9 11.9-6.6z"/>
	<path class="st0" d="M172.6 60.1c0-13 9.9-22.9 22.7-22.9 10.6 0 19.6 7.1 21 16.6H206c-1.1-4-5.6-7-10.8-7-7.3 0-12.8 5.7-12.8 13.3 0 7.4 5.6 13.2 12.8 13.2 5.2 0 9.8-3 10.8-7.4h10.2c-1.2 10-10.4 16.9-21.1 16.9-12.6.1-22.5-9.7-22.5-22.7z"/>
	<path class="st0" d="M261.6 57v25h-10V58.6c0-7.1-4.1-11.4-10.3-11.4-4.5 0-8.8 2.3-11 6.1V82h-10V38.2h10v5.9c2.7-4.2 7.9-6.8 13.4-6.8 10.9 0 17.9 7.6 17.9 19.7z"/>
	<path class="st0" d="M265.3 60.1c0-13 9.9-22.9 22.7-22.9s22.8 9.9 22.8 22.9-10 22.8-22.8 22.8-22.7-9.8-22.7-22.8zm35.6 0c0-7.5-5.6-13.3-12.9-13.3-7.3 0-12.8 5.7-12.8 13.3 0 7.4 5.6 13.2 12.8 13.2 7.3 0 12.9-5.7 12.9-13.2z"/>
	<path class="st0" d="M356.6 19.2V82h-10v-5.9c-2.3 3.9-8.2 6.8-14 6.8-11.8 0-21.1-10-21.1-22.9 0-12.7 9.2-22.8 21.1-22.8 5.8 0 11.7 2.9 14 6.8V19.2h10zm-10 47.7V53.4c-2.2-3.9-6.9-6.6-11.9-6.6-7.5 0-13.3 5.6-13.3 13.3s5.7 13.4 13.3 13.4c5-.1 9.8-2.9 11.9-6.6z"/>
	<path class="st0" d="M404.7 38.2V82h-10v-5.9c-2.3 3.9-8.2 6.8-14 6.8-11.8 0-21.1-10-21.1-22.9 0-12.7 9.2-22.8 21.1-22.8 5.8 0 11.7 2.9 14 6.8v-5.9h10zm-10 28.7V53.4c-2.2-3.9-6.9-6.6-11.9-6.6-7.5 0-13.3 5.6-13.3 13.3s5.7 13.4 13.3 13.4c4.9-.1 9.8-2.9 11.9-6.6z"/>
	<path class="st0" d="M420.7 82h-10V19.2h10V82z"/>
	<radialGradient id="SVGID_1_" cx="52.982" cy="53.761" r="48.776" gradientUnits="userSpaceOnUse">
		<stop offset="0" style="stop-color:#fff"/>
		<stop offset=".152" style="stop-color:#fcfffc"/>
		<stop offset=".281" style="stop-color:#f1fff1"/>
		<stop offset=".401" style="stop-color:#e0ffe0"/>
		<stop offset=".517" style="stop-color:#c7ffc7"/>
		<stop offset=".629" style="stop-color:#a7ffa7"/>
		<stop offset=".739" style="stop-color:#80ff80"/>
		<stop offset=".846" style="stop-color:#51ff51"/>
		<stop offset=".949" style="stop-color:#1dff1d"/>
		<stop offset=".999" style="stop-color:#0f0"/>
	</radialGradient>
	<circle cx="53" cy="53.8" r="48.8" style="fill:url(#SVGID_1_)"/>
	<linearGradient id="SVGID_2_" gradientUnits="userSpaceOnUse" x1="19.156" y1="44.095" x2="19.156" y2="44.095">
		<stop offset="0" style="stop-color:#fff"/>
		<stop offset=".999" style="stop-color:#0f0"/>
	</linearGradient>
	<path d="M19.2 44.1z" style="fill:url(#SVGID_2_)"/>
	<linearGradient id="SVGID_3_" gradientUnits="userSpaceOnUse" x1="-3.529" y1="59.709" x2="51.365" y2="59.709" gradientTransform="scale(1 -1) rotate(-72.645 -29.749 -1.114)">
		<stop offset="0" style="stop-color:#fff"/>
		<stop offset=".999" style="stop-color:#0f0"/>
	</linearGradient>
	<path d="M27.5 66.3c4-5.8 5.1-17.8 10-30.1C48 11.9 83.3 16.5 84.2 16.6 71.9 6.2 54.8 2.2 38.3 7.3c-8 2.5-14.9 6.9-20.4 12.5-5.5 5.6-9.5 12.5-11.7 20v.1C.7 59.2 13 67.5 17.2 69c5.1 1.7 8.1.5 10.3-2.7z" style="fill:url(#SVGID_3_)"/>
	<linearGradient id="SVGID_4_" gradientUnits="userSpaceOnUse" x1="57.166" y1="73.148" x2="57.779" y2="73.148">
		<stop offset="0" style="stop-color:#fff"/>
		<stop offset=".999" style="stop-color:#0f0"/>
	</linearGradient>
	<path d="M57.2 73.6c.2-.3.4-.6.6-1-.2.4-.4.7-.6 1z" style="fill:url(#SVGID_4_)"/>
	<linearGradient id="SVGID_5_" gradientUnits="userSpaceOnUse" x1="43.7" y1="63.389" x2="93.853" y2="63.389" gradientTransform="scale(1 -1) rotate(-72.645 -29.749 -1.114)">
		<stop offset="0" style="stop-color:#fff"/>
		<stop offset=".999" style="stop-color:#0f0"/>
	</linearGradient>
	<path d="M67.3 100.3c14.9-4.7 26-15.9 31.1-29.5.7-2.3 7.2-25.6-6.1-28.3-3.3-.7-6.1-.7-8.6.1-.2 0-.3.1-.4.2-.1 0-.3.1-.4.2h-.1c-.1 0-.3.1-.4.2-.1.1-.3.1-.4.2l-.6.3c-.1.1-.3.2-.4.3-.5.3-1 .7-1.5 1-.1.1-.3.2-.4.3-.4.3-.8.7-1.2 1.1l-.2.2c-.4.4-.8.8-1.2 1.3-.1.2-.2.3-.4.5-.1.1-.1.2-.2.3-.1.2-.3.3-.4.5-.1.2-.3.4-.4.6-.2.2-.4.5-.5.8-1.3 1.8-2.5 4-3.8 6.5l-.3.6c-1.2 2.3-2.5 4.9-3.8 7.8-.2.5-.4.9-.7 1.4-1.3 2.8-2.6 5.8-4.1 9-.4.8-.7 1.6-1.1 2.3-.1.3-.3.5-.4.7-.1.2-.3.5-.4.7-.3.5-.6.9-.9 1.3-.2.3-.5.7-.7 1-.3.4-.6.7-.8 1.1-.4.5-.8 1-1.2 1.4-1.5 1.6-3.1 2.9-4.8 3.9-.2.2-.5.3-.8.5-.5.3-1 .5-1.5.8-.3.1-.6.3-.9.4l-2.4.9c-.3.1-.5.2-.8.2-.1 0-.2.1-.3.1-.3.1-.6.1-.9.2-.3.1-.6.1-1 .2-.2 0-.5.1-.7.1-.2 0-.4.1-.6.1l-2.4.3H36.9c-1.2 0-2.4 0-3.6-.1-.2 0-.5 0-.7-.1-.3 0-.6-.1-.9-.1-.2 0-.5-.1-.7-.1-.3 0-.6-.1-.9-.1l-.5-.1c-.3-.1-.6-.1-.9-.2-.1 0-.3-.1-.4-.1-.2 0-.5-.1-.7-.2-.2 0-.3-.1-.5-.1-.5-.1-.9-.2-1.4-.3-.1 0-.3-.1-.4-.1-1.9-.5-3.5-1-4.7-1.5-.1 0-.2-.1-.3-.1-1.1-.4-1.8-.7-1.9-.8 12.3 12.5 31 17.8 48.9 12.2z" style="fill:url(#SVGID_5_)"/>
	<linearGradient id="SVGID_6_" gradientUnits="userSpaceOnUse" x1="57.166" y1="73.148" x2="57.779" y2="73.148">
		<stop offset="0" style="stop-color:#fff"/>
		<stop offset=".999" style="stop-color:#0f0"/>
	</linearGradient>
	<path d="M57.2 73.6c.2-.3.4-.6.6-1-.2.4-.4.7-.6 1z" style="fill:url(#SVGID_6_)"/>
	<linearGradient id="SVGID_7_" gradientUnits="userSpaceOnUse" x1="13.357" y1="67.649" x2="78.424" y2="67.649" gradientTransform="scale(1 -1) rotate(-72.645 -29.749 -1.114)">
		<stop offset="0" style="stop-color:#fff"/>
		<stop offset=".999" style="stop-color:#0f0"/>
	</linearGradient>
	<path d="m45.9 90.8 2.4-.9c.3-.1.6-.3.9-.4.5-.2 1-.5 1.5-.8.3-.1.5-.3.8-.5 1.7-1 3.3-2.3 4.8-3.9.4-.4.8-.9 1.2-1.4.3-.3.6-.7.8-1.1.2-.3.5-.6.7-1 .3-.4.6-.9.9-1.3.1-.2.3-.5.4-.7.1-.2.3-.5.4-.7.4-.7.8-1.5 1.1-2.3 1.5-3.3 2.8-6.3 4.1-9 .2-.5.4-1 .7-1.4 1.3-2.9 2.6-5.5 3.8-7.8l.3-.6c1.3-2.5 2.6-4.7 3.8-6.5.2-.3.4-.5.5-.8.1-.2.3-.4.4-.6.1-.2.3-.4.4-.5.1-.1.1-.2.2-.3.1-.2.2-.3.4-.5.4-.5.8-.9 1.2-1.3l.2-.2c.4-.4.8-.8 1.2-1.1.1-.1.3-.2.4-.3.5-.4 1-.7 1.5-1 .1-.1.3-.2.4-.3l.6-.3c-4.8-1.4-14.2 14.7-22.5 4.4-11.8-20.8 24.8-31.1 24.8-31.1-1-.1-36.2-4.7-46.7 19.6-4.9 12.2-6 24.3-10 30.1-.1 6.1 1.2 13.3 5.8 20.4 1.4 2.2 3 4 4.8 5.4H39.3l2.4-.3c.2 0 .4-.1.6-.1.2 0 .5-.1.7-.1.3-.1.6-.1 1-.2.3-.1.6-.1.9-.2.1 0 .2-.1.3-.1.1-.1.4-.2.7-.3z" style="fill:url(#SVGID_7_)"/>
</svg>
