<svg xmlns="http://www.w3.org/2000/svg" width="200" height="128">
	<path d="M61.888 62.845h26.175V40.6l-26.175 3.471zm-2.158 0V44.294L42.3 46.708V62.83zm0 2.346H42.3V80.85l17.422 2.637zm2.158 0v18.515l26.175 3.7V65.191z" fill="#20bdf0"/>
	<path d="M105.642 60.942h-1.385l-1.132-2.994H98.6l-1.065 2.994h-1.397l4.1-10.682h1.3zm-2.927-4.119-1.676-4.552a4.322 4.322 0 0 1-.164-.715h-.03a3.881 3.881 0 0 1-.171.715l-1.661 4.552zm9.535 3.769a3.968 3.968 0 0 1-2.086.529 3.454 3.454 0 0 1-2.633-1.061 3.849 3.849 0 0 1-1-2.753 4.231 4.231 0 0 1 1.08-3.028 3.779 3.779 0 0 1 2.883-1.143 4.02 4.02 0 0 1 1.773.372v1.251a3.109 3.109 0 0 0-1.818-.595 2.454 2.454 0 0 0-1.918.838 3.18 3.18 0 0 0-.749 2.2 3.027 3.027 0 0 0 .7 2.115 2.427 2.427 0 0 0 1.889.775 3.062 3.062 0 0 0 1.877-.663zm5.385.276a2.365 2.365 0 0 1-1.139.238q-2 0-2-2.235v-4.514h-1.311v-1.043h1.311v-1.862l1.221-.395v2.257h1.922v1.043h-1.922v4.3a1.778 1.778 0 0 0 .261 1.095 1.039 1.039 0 0 0 .864.328 1.282 1.282 0 0 0 .8-.253zm2.257-9.49a.774.774 0 0 1-.558-.224.755.755 0 0 1-.231-.566.784.784 0 0 1 .789-.8.786.786 0 0 1 .57.228.794.794 0 0 1 0 1.128.781.781 0 0 1-.57.234zm.6 9.564h-1.221v-7.628h1.221zm8.466-7.628-3.039 7.628h-1.2l-2.89-7.628h1.341l1.937 5.542a5 5 0 0 1 .268 1.066h.03a5.009 5.009 0 0 1 .238-1.036l2.026-5.572zm7.352 4.12h-5.386a2.853 2.853 0 0 0 .686 1.966 2.36 2.36 0 0 0 1.8.693 3.749 3.749 0 0 0 2.369-.849v1.147a4.424 4.424 0 0 1-2.659.73 3.221 3.221 0 0 1-2.54-1.039 4.254 4.254 0 0 1-.924-2.924 4.168 4.168 0 0 1 1.009-2.9 3.239 3.239 0 0 1 2.507-1.121 2.865 2.865 0 0 1 2.316.968 4.034 4.034 0 0 1 .82 2.689zm-1.252-1.034a2.486 2.486 0 0 0-.51-1.646 1.739 1.739 0 0 0-1.4-.588 1.973 1.973 0 0 0-1.467.618 2.8 2.8 0 0 0-.745 1.616zM97.374 76.2V65.517h2.95q5.646 0 5.646 5.206a5.243 5.243 0 0 1-1.57 3.977 5.813 5.813 0 0 1-4.2 1.5zm1.252-9.549v8.417h1.594a4.525 4.525 0 0 0 3.27-1.125 4.218 4.218 0 0 0 1.169-3.188q0-4.1-4.365-4.1zm9.907-.017a.774.774 0 0 1-.559-.224.753.753 0 0 1-.231-.566.784.784 0 0 1 .79-.8.789.789 0 0 1 .57.228.8.8 0 0 1 0 1.128.784.784 0 0 1-.57.234zm.6 9.564h-1.222v-7.627h1.222zm6.446-6.391a1.49 1.49 0 0 0-.923-.246 1.56 1.56 0 0 0-1.308.738 3.409 3.409 0 0 0-.525 2.011v3.89H111.6v-7.629h1.221v1.571h.03a2.673 2.673 0 0 1 .8-1.255 1.819 1.819 0 0 1 1.2-.45 1.981 1.981 0 0 1 .73.1zm7.256 2.883h-5.386a2.851 2.851 0 0 0 .685 1.966 2.362 2.362 0 0 0 1.8.693 3.749 3.749 0 0 0 2.369-.849v1.147a4.427 4.427 0 0 1-2.66.73 3.224 3.224 0 0 1-2.54-1.039 4.255 4.255 0 0 1-.923-2.924 4.17 4.17 0 0 1 1.009-2.9 3.237 3.237 0 0 1 2.507-1.121 2.868 2.868 0 0 1 2.316.968 4.034 4.034 0 0 1 .82 2.689zm-1.252-1.036a2.488 2.488 0 0 0-.51-1.646 1.739 1.739 0 0 0-1.4-.588 1.973 1.973 0 0 0-1.467.618 2.8 2.8 0 0 0-.745 1.616zm8.298 4.194a3.964 3.964 0 0 1-2.085.529 3.456 3.456 0 0 1-2.634-1.061 3.851 3.851 0 0 1-1-2.753 4.227 4.227 0 0 1 1.08-3.027 3.776 3.776 0 0 1 2.882-1.144 4.014 4.014 0 0 1 1.773.372v1.252a3.1 3.1 0 0 0-1.817-.6 2.46 2.46 0 0 0-1.918.837 3.185 3.185 0 0 0-.749 2.2 3.027 3.027 0 0 0 .7 2.115 2.424 2.424 0 0 0 1.888.775 3.06 3.06 0 0 0 1.877-.663zm5.386.276a2.355 2.355 0 0 1-1.14.238q-2 0-2-2.234v-4.515h-1.311v-1.042h1.311v-1.863l1.222-.394v2.257h1.922v1.042h-1.922v4.3a1.782 1.782 0 0 0 .261 1.095 1.042 1.042 0 0 0 .864.327 1.284 1.284 0 0 0 .8-.253zm4.7.253a3.537 3.537 0 0 1-2.7-1.069 3.957 3.957 0 0 1-1.009-2.834 4.126 4.126 0 0 1 1.05-3 3.775 3.775 0 0 1 2.838-1.08 3.422 3.422 0 0 1 2.663 1.05 4.165 4.165 0 0 1 .957 2.913 4.1 4.1 0 0 1-1.031 2.923 3.615 3.615 0 0 1-2.768 1.097zm.09-6.957a2.325 2.325 0 0 0-1.863.8 3.293 3.293 0 0 0-.685 2.208 3.109 3.109 0 0 0 .693 2.138 2.356 2.356 0 0 0 1.855.782 2.235 2.235 0 0 0 1.821-.767 3.334 3.334 0 0 0 .637-2.183 3.392 3.392 0 0 0-.637-2.2 2.225 2.225 0 0 0-1.821-.778zm9.643.387a1.5 1.5 0 0 0-.924-.246 1.557 1.557 0 0 0-1.307.738 3.409 3.409 0 0 0-.526 2.011v3.89h-1.221v-7.629h1.221v1.571h.03a2.673 2.673 0 0 1 .8-1.255 1.822 1.822 0 0 1 1.2-.45 1.989 1.989 0 0 1 .73.1zm8-1.236-3.5 8.849q-.939 2.368-2.637 2.369a2.811 2.811 0 0 1-.8-.1V78.6a2.273 2.273 0 0 0 .722.134 1.5 1.5 0 0 0 1.386-1.1l.611-1.446-2.98-7.612h1.356l2.063 5.869q.037.113.157.581h.044c.025-.119.075-.307.149-.566l2.168-5.884z" fill="#666"/>
</svg>
