<svg xmlns="http://www.w3.org/2000/svg" width="200" height="128">
	<path d="M63.115 59.871h3.728l5.579 15.767h-3.573l-1.04-3.238H62l-1.068 3.242h-3.445zM62.9 69.68h4.039l-1.993-6.2zm13.034-8.161a6.487 6.487 0 0 1 4.846-1.948q3.936 0 5.757 2.611a5.69 5.69 0 0 1 1.079 2.941h-3.3a4.493 4.493 0 0 0-.806-1.712 3.25 3.25 0 0 0-2.61-1.026 3.215 3.215 0 0 0-2.777 1.449 7.087 7.087 0 0 0-1.016 4.1 6.213 6.213 0 0 0 1.073 3.973 3.358 3.358 0 0 0 2.725 1.321A3.087 3.087 0 0 0 83.5 72.1a4.989 4.989 0 0 0 .816-1.829h3.273a7.1 7.1 0 0 1-2.164 4.193 6.3 6.3 0 0 1-4.46 1.615 6.692 6.692 0 0 1-5.296-2.179 8.8 8.8 0 0 1-1.927-6.012 8.711 8.711 0 0 1 2.192-6.369zm25.766-1.648v2.792h-4.714v12.975H93.67V62.663h-4.738v-2.792zm4.935 15.767h-3.274V59.871h3.274zm12.305-15.767h3.424l-5.375 15.767h-3.113l-5.332-15.767h3.519l3.423 11.97zm17.046 2.792h-8.343v3.348h7.657v2.738h-7.659V72.8h8.728v2.835h-11.946V59.871h11.563z" style="isolation:isolate"/>
	<path d="M62.692 50.374h.99l2.348 6.47h-.96l-.67-1.938h-2.544l-.7 1.938h-.9zm1.454 3.818-1-2.858-1.034 2.858zm2.503-2.044h.776v.626a1.931 1.931 0 0 1 .52-.5 1.693 1.693 0 0 1 .946-.264 1.777 1.777 0 0 1 1.364.615 2.51 2.51 0 0 1 .56 1.755 2.69 2.69 0 0 1-.808 2.2 1.833 1.833 0 0 1-1.2.418 1.622 1.622 0 0 1-.9-.233 2.064 2.064 0 0 1-.473-.454v2.41h-.793zm2.983 3.7A2.206 2.206 0 0 0 70 54.457a2.615 2.615 0 0 0-.163-.97 1.2 1.2 0 0 0-2.263.044 3.257 3.257 0 0 0-.164 1.119 2.366 2.366 0 0 0 .164.93 1.2 1.2 0 0 0 2.057.266zm4.628-1.859a.431.431 0 0 0 .366-.228.713.713 0 0 0 .053-.306.648.648 0 0 0-.288-.59 1.545 1.545 0 0 0-.825-.183 1.041 1.041 0 0 0-.878.336 1.1 1.1 0 0 0-.19.553h-.739a1.369 1.369 0 0 1 .564-1.217 2.32 2.32 0 0 1 1.261-.342 2.566 2.566 0 0 1 1.351.317 1.078 1.078 0 0 1 .514.986v2.718a.342.342 0 0 0 .051.2.244.244 0 0 0 .214.076 1.042 1.042 0 0 0 .118-.007c.045 0 .092-.011.142-.02v.586a2.26 2.26 0 0 1-.283.066 2.2 2.2 0 0 1-.263.013.649.649 0 0 1-.595-.291 1.136 1.136 0 0 1-.137-.435 2.025 2.025 0 0 1-.7.55A2.147 2.147 0 0 1 73 57a1.487 1.487 0 0 1-1.072-.4 1.318 1.318 0 0 1-.416-1 1.278 1.278 0 0 1 .41-1.015A1.952 1.952 0 0 1 73 54.147zm-1.669 2.142a.929.929 0 0 0 .6.2 1.81 1.81 0 0 0 .81-.193 1.088 1.088 0 0 0 .66-1.051v-.638a1.317 1.317 0 0 1-.373.155 2.976 2.976 0 0 1-.448.088l-.48.062a1.848 1.848 0 0 0-.647.18.7.7 0 0 0-.368.659.654.654 0 0 0 .246.538zm7.273-3.753a1.855 1.855 0 0 1 .6 1.334h-.771a1.432 1.432 0 0 0-.321-.725 1.022 1.022 0 0 0-.807-.288 1.112 1.112 0 0 0-1.083.739 2.933 2.933 0 0 0-.212 1.184 2.217 2.217 0 0 0 .3 1.191 1.025 1.025 0 0 0 .943.485A1.036 1.036 0 0 0 79.3 56a1.65 1.65 0 0 0 .4-.822h.771a1.862 1.862 0 0 1-2.013 1.8 1.806 1.806 0 0 1-1.475-.675 2.586 2.586 0 0 1-.551-1.69 2.845 2.845 0 0 1 .6-1.933 1.952 1.952 0 0 1 1.537-.692 2.051 2.051 0 0 1 1.295.39zm1.395-2.026h.793v2.414a2.229 2.229 0 0 1 .507-.5 1.705 1.705 0 0 1 .955-.251 1.413 1.413 0 0 1 1.391.718 2.434 2.434 0 0 1 .2 1.088v3.026h-.815v-2.976a1.672 1.672 0 0 0-.132-.763.846.846 0 0 0-.81-.386 1.349 1.349 0 0 0-.895.339 1.632 1.632 0 0 0-.4 1.281v2.5h-.793zm7.93 1.905a1.786 1.786 0 0 1 .713.609 2.1 2.1 0 0 1 .316.833 5.451 5.451 0 0 1 .07 1.039h-3.432a2.041 2.041 0 0 0 .337 1.156 1.122 1.122 0 0 0 .975.434 1.253 1.253 0 0 0 .983-.411 1.4 1.4 0 0 0 .291-.553h.78a1.653 1.653 0 0 1-.2.579 2.1 2.1 0 0 1-.388.522 1.826 1.826 0 0 1-.888.475 2.666 2.666 0 0 1-.642.071 1.968 1.968 0 0 1-1.484-.641 2.5 2.5 0 0 1-.608-1.795 2.72 2.72 0 0 1 .613-1.845 2.017 2.017 0 0 1 1.6-.709 2.126 2.126 0 0 1 .964.236zm.284 1.851a2.055 2.055 0 0 0-.223-.823 1.137 1.137 0 0 0-1.078-.572 1.2 1.2 0 0 0-.909.393 1.5 1.5 0 0 0-.389 1z" style="isolation:isolate"/>
	<path d="M156.84 59.871h4.74v15.767h-3.069V64.974q0-.461.01-1.289t.011-1.279l-2.988 13.232h-3.2l-2.966-13.232q0 .45.011 1.279t.01 1.289v10.664h-3.07V59.871h4.794l2.87 12.4zm21.801 11.156a5.859 5.859 0 0 1-1.226 2.253l1.811 1.7-1.719 1.793-1.894-1.8a7.857 7.857 0 0 1-1.5.742 8.054 8.054 0 0 1-2.538.354 7.26 7.26 0 0 1-5.1-1.84q-2.44-2.213-2.441-6.5 0-4.32 2.5-6.536a7.389 7.389 0 0 1 5.081-1.807 7.288 7.288 0 0 1 5.135 1.915 8.015 8.015 0 0 1 2.4 6.193 10.493 10.493 0 0 1-.509 3.533zm-5.978 2.119a5.493 5.493 0 0 0 .739-.269l-1.6-1.518 1.693-1.767 1.6 1.509a7.413 7.413 0 0 0 .524-1.347 7.8 7.8 0 0 0 .235-2.022 6.729 6.729 0 0 0-1.086-4.1 3.716 3.716 0 0 0-3.171-1.449 3.873 3.873 0 0 0-3.124 1.39 6.353 6.353 0 0 0-1.166 4.161q0 3.242 1.669 4.642a3.894 3.894 0 0 0 2.59.909 4.27 4.27 0 0 0 1.097-.139z" style="isolation:isolate" fill="#c12766"/>
	<path d="m50.3 72.491-9.843-.03-4.9-8.54 4.949-8.51 9.843.031 4.9 8.54z" fill="#c12766"/>
	<path d="m34.739 81.417-9.844-.03L20 72.847l4.948-8.51 9.844.031 4.895 8.54z" fill="#3e489f"/>
	<path d="m50.2 90.387-9.844-.031-4.895-8.54 4.948-8.509 9.844.03 4.9 8.54z" fill="#714099"/>
	<path d="m34.821 63.631-9.844-.03-4.895-8.54 4.948-8.51 9.844.031 4.895 8.54z" fill="#78932c"/>
	<path d="m50.29 54.693-9.844-.03-4.895-8.54 4.948-8.51 9.844.031 4.895 8.54z" fill="#cf242a"/>
	<circle cx="45.395" cy="46.153" r="1.492" fill="#fff"/>
	<circle cx="29.926" cy="55.091" r="1.492" fill="#fff"/>
	<circle cx="29.844" cy="72.877" r="1.492" fill="#fff"/>
	<circle cx="45.305" cy="81.847" r="1.492" fill="#fff"/>
	<path fill="#fff" d="m30.345 53.348 13.545-7.76 1.124 1.963L31.47 55.31zM28.74 56.26l2.26-.006.047 15.61-2.261.006zm1.625 18.24 1.154-1.944 13.421 7.972-1.155 1.944z"/>
	<circle cx="45.402" cy="63.951" r="1.492" fill="#fff"/>
	<path fill="#fff" d="m44.22 47.203 2.26-.006.047 15.61-2.26.006zm.084 17.895 2.26-.007.046 15.61-2.26.007z"/>
	<path fill="#fff" d="m30.369 71.288 13.545-7.759 1.124 1.962-13.545 7.76z"/>
	<path fill="#fff" d="m30.415 56.719 1.155-1.944 13.42 7.972-1.154 1.944z"/>
</svg>
