<svg id="Layer_1" data-name="Layer 1" xmlns="http://www.w3.org/2000/svg" viewBox="0 0 600 101.351">
	<defs>
		<style>
			.cls-1,.cls-3{fill:#808184}.cls-1{fill-rule:evenodd}
		</style>
	</defs>
	<path class="cls-1" d="M165.5 50.869c0-14.004-7.65-23.492-20.848-23.492h-13.674V74.13h14.743c12.606 0 19.78-9.376 19.78-23.262Zm22.234-.23c0 24.185-16.448 40.62-43.438 40.62h-35.08V10.13h35.91c26.399 0 42.608 16.434 42.608 40.508Z"/>
	<path class="cls-1" d="m255.432 10.131-.12 16.898h-40.43V45.08h37.336v16.897h-37.336v29.278h-21.759V10.131Z"/>
	<path class="cls-1" d="M280.363 50.751a23.18 23.18 0 0 0 22.948 23.377c12.485 0 22.474-10.182 22.474-23.377 0-13.193-9.989-23.144-22.474-23.144a22.906 22.906 0 0 0-22.948 23.144Zm67.776-.113c0 23.723-19.26 41.544-45.064 41.544S258.01 74.361 258.01 50.638c0-23.612 19.262-41.085 45.066-41.085s45.064 17.59 45.064 41.085Z"/>
	<path class="cls-1" d="M375.282 10.131v63.073h35.319v18.051h-57.078V10.131Z"/>
	<path class="cls-1" d="m470.887 91.255-21.644-31.362-10.701 11.575v19.787H416.78V10.134h21.762v34.022l31.274-34.022h25.209L464.11 43.693l32.817 47.562Z"/>
	<path class="cls-1" d="M532.717 26.45c-5.232 0-8.682 1.85-8.682 5.556 0 13.422 43.88 5.783 43.88 34.946 0 16.551-14.985 25-33.535 25a69.027 69.027 0 0 1-29.827-7.396 47.013 47.013 0 0 1-8.583-5.566l8.446-16.55c8.561 7.177 21.52 12.267 30.205 12.267 6.418 0 10.463-2.315 10.463-6.595 0-13.772-43.877-5.44-43.877-34.14 0-15.162 13.198-24.767 33.291-24.767 12.247 0 24.614 3.704 33.293 9.145l-8.204 16.779c-8.797-4.862-19.975-8.68-26.87-8.68Z"/>
	<path class="cls-1" d="M591.93 82.113c0 5.904-4.279 10.07-10.226 10.07a9.67 9.67 0 0 1-10.106-10.07c0-5.901 4.162-9.951 10.106-9.951 5.947 0 10.225 4.05 10.225 9.951Z"/>
	<path d="M79.158 69.338V56.62H59.395c-7.677 0-11.516 2.692-11.516 8.368 0 5.526 4.144 9.118 11.208 9.118 9.64 0 13.784 1.353 20.071-4.768Zm-45.942-54.43a93.39 93.39 0 0 1 32.932-5.8c22.873 0 36.232 10.758 36.385 29.286v52.594H79.157s-18.378.267-29.586.267c-10.688 0-25.584-9.533-25.584-24.325 0-15.389 9.464-24.202 30.033-24.504h25.137v-.892c0-10.61-8.864-12.105-19.302-12.105-6.909 0-17.712 2.242-26.616 6.426Z" style="fill:#149981;fill-rule:evenodd"/>
	<path class="cls-3" d="M5.149 13.619h6.967v1.305H9.381v7.304H7.873v-7.304H5.149Z"/>
	<path class="cls-3" d="M14.3 13.619h2.12l2.377 6.74h.024l2.314-6.74h2.098v8.61h-1.434v-6.644h-.024l-2.389 6.643h-1.24l-2.387-6.643h-.024v6.643h-1.436Z"/>
</svg>
