<svg xmlns="http://www.w3.org/2000/svg" width="200" height="128">
    <path d="M76.168 100.783l-.768-4.527c-.219-1.305-.5-3.345-.71-4.757h-.082c-.224 1.423-.536 3.52-.765 4.768l-.822 4.516zm-3.554 2.95l-.993 5.024h-3.67l4.578-20.9h4.5l4.158 20.9H77.5l-.971-5.024zm16.922-4.313a5.079 5.079 0 0 0-.055-.9c-.146-1.032-.695-1.962-1.579-1.962-1.514 0-2.072 2.183-2.072 4.735 0 2.933.8 4.6 2.02 4.6.56 0 1.206-.287 1.556-1.518a2.983 2.983 0 0 0 .13-.957zM93.3 87.3v17.123c0 1.357.069 3.026.125 4.331h-3.251l-.213-1.741h-.077A3.626 3.626 0 0 1 86.728 109c-3.115 0-4.66-3.438-4.66-7.778 0-5.289 2.3-7.861 4.814-7.861a2.667 2.667 0 0 1 2.591 1.573h.064V87.3zm7.844 18.811c1.438 0 1.794-2.709 1.794-4.953 0-2.132-.356-4.911-1.857-4.911-1.589 0-1.923 2.779-1.923 4.911 0 2.575.419 4.953 1.953 4.953zm-.069 2.889c-3.471 0-5.648-2.787-5.648-7.775 0-5.444 2.795-7.864 5.736-7.864 3.424 0 5.571 2.923 5.571 7.776 0 6.235-3.364 7.863-5.629 7.863zm11.53-5.654a3.177 3.177 0 0 0 .149.969c.378 1.267 1.018 1.578 1.531 1.578 1.457 0 2.045-1.846 2.045-4.8 0-2.688-.621-4.539-2.061-4.539-.715 0-1.316.776-1.523 1.609a4.177 4.177 0 0 0-.141.952zM108.839 87.3h3.766v7.89h.06a3.542 3.542 0 0 1 3.165-1.829c2.839 0 4.266 3.228 4.266 7.45 0 5.333-2.128 8.189-4.884 8.189-1.314 0-2.188-.583-2.977-2.058h-.08l-.209 1.812h-3.234c.055-1.255.127-2.974.127-4.331V87.3zm20.282 12.438c.02-2.127-.6-3.618-1.8-3.618-1.363 0-1.942 1.995-1.984 3.618zm-3.8 2.663c.044 2.739 1.484 3.631 3.272 3.631a8.047 8.047 0 0 0 2.823-.522l.507 2.71a11.006 11.006 0 0 1-4.02.7c-4.042 0-6.25-2.762-6.25-7.48 0-5.063 2.561-8.1 5.905-8.1 3.231 0 5.021 2.688 5.021 7.075a13.517 13.517 0 0 1-.107 2.011l-7.151-.021z"/>
    <path d="M108.494 19h24.093v57.68zM91.52 19H67.413v57.68zm-2.047 46.075l10.537-24.822 15.349 36.424H105.3l-4.592-11.6z" fill="#ed1c24"/>
</svg>
