<svg data-name="Layer 1" xmlns="http://www.w3.org/2000/svg" xmlns:xlink="http://www.w3.org/1999/xlink" viewBox="0 0 419 384">
	<defs>
		<linearGradient id="a" x1="241.362" y1="43.393" x2="189.476" y2="43.393" gradientTransform="matrix(1 .0072 .0072 -1 2.977 258.152)" gradientUnits="userSpaceOnUse">
			<stop offset="0" stop-color="#d4a92a"/>
			<stop offset=".503" stop-color="#f79520"/>
			<stop offset=".991" stop-color="#f68a28"/>
			<stop offset="1" stop-color="#f68a28"/>
		</linearGradient>
		<linearGradient id="b" x1="183.655" y1="149.933" x2="98.699" y2="149.933" xlink:href="#a"/>
		<linearGradient id="c" x1="412.711" y1="153.868" x2="130.538" y2="153.868" xlink:href="#a"/>
		<linearGradient id="d" x1="33.452" y1="-23.542" x2="99.357" y2="90.609" gradientTransform="matrix(1 0 0 -1 0 258)" gradientUnits="userSpaceOnUse">
			<stop offset=".251" stop-color="#00bbcb"/>
			<stop offset="1" stop-color="#f79520"/>
		</linearGradient>
	</defs>
	<circle cx="256.008" cy="128.003" r="256.006" style="fill:none"/>
	<path d="M244.9 181.3c-7.6 3.3-14 6.2-20.3 9-8.8 3.9-31.3 14.4-31.3 14.4a73.483 73.483 0 0 0-.4 8.7c.2 13.3-.2 23.1-.3 37.9 11.9-5.6 42.2-18.6 42.2-18.6" style="fill:url(#a)"/>
	<path d="M187.8 96c-6.1 5.6-11.3 10.3-16.4 15-7.1 6.5-25.8 22.8-25.8 22.8s-4.2-1.4-8.1-3.1c-12.1-5.5-21.2-9.2-34.8-15.1 10-8.6 34.1-31 34.1-31" style="fill:url(#b)"/>
	<path d="M358.8 110.4C391.1 83.6 407 48.1 417.5 7.6c-8.9-.8-16.8-1.5-24.6-2.1-30.8-2.5-61 1-89.2 13.3-16.9 7.4-32.6 18.1-47.3 29.3-17.6 13.4-33.7 28.8-50.3 43.5q-35.1 30.9-69.7 62.3a9.017 9.017 0 0 0-2 7.4 100.462 100.462 0 0 0 24.1 40.7c6.8 7.1 6.9 6.9 15.9 2.7 33.5-15.6 66.9-31.8 100.8-46.6 29.5-13.1 58.3-26.8 83.6-47.7ZM292.5 89a22.649 22.649 0 0 1 6.9-31.9c10.6-6.7 25.4-3.6 32.3 6.8a23.212 23.212 0 0 1-6.5 32.2c-10.3 6.9-25.7 3.5-32.7-7.1Z" style="fill:url(#c)"/>
	<path d="M26.9 13.8a256.035 256.035 0 0 0 220.6 370.1C-19.9 280.8 26.6 15.5 26.9 13.8Z" style="fill:#5293cf"/>
	<path d="m137.9 201.9-12.2-19.3c-65.7 32-111.2 30.5-111.2 30.5s9.3 37.9 53 88.1c-8.2-59.5 70.4-99.3 70.4-99.3Z" style="fill:url(#d)"/>
</svg>
