<svg xmlns="http://www.w3.org/2000/svg" viewBox="-2.27 -1.65 163.8 36.05" style="fill-rule:evenodd;clip-rule:evenodd;stroke-linecap:round;stroke-linejoin:round;stroke-miterlimit:1.5">
	<circle cx="368.597" cy="90.999" r="11.729" fill="#002880" transform="translate(-99.668 -22.93) scale(.30829)"/>
	<circle cx="368.597" cy="90.999" r="11.729" fill="#ff005c" transform="translate(-52.841 .047) scale(.15112)"/>
	<circle cx="368.597" cy="90.999" r="11.729" fill="#ff005c" transform="translate(-20.34 6.747) scale(.15112)"/>
	<circle cx="368.597" cy="90.999" r="11.729" fill="#42dfff" transform="translate(-89.869 -19.203) scale(.30829)"/>
	<circle cx="368.597" cy="90.999" r="11.729" fill="#42dfff" transform="translate(-82.7 -.398) scale(.30829)"/>
	<circle cx="368.597" cy="90.999" r="11.729" fill="#42dfff" transform="translate(-69.372 -2.512) scale(.30829)"/>
	<circle cx="368.597" cy="90.999" r="11.729" fill="#002880" transform="translate(-109.075 -5.698) scale(.30829)"/>
	<circle cx="368.597" cy="90.999" r="11.729" fill="#002880" transform="translate(-93.643 -8.865) scale(.30829)"/>
	<path fill="none" stroke="#002880" stroke-width="1.885" d="M14.17 4.978 4.64 22.277"/>
	<path fill="none" stroke="#002880" stroke-width="1.885" d="m14.053 5.219 5.791 13.963"/>
	<path fill="none" stroke="#42dfff" stroke-width="1.885" d="m23.903 9.293 7.168 18.293"/>
	<path fill="none" stroke="#42dfff" stroke-width="1.885" d="m31.074 27.678 13.066-1.9"/>
	<path fill="#002880" fill-rule="nonzero" d="M62.023 22.287h4.843L61.53 6.592h-5.045l-5.359 15.695h4.843l.493-1.816h5.068l.493 1.816zm-4.664-5.202 1.637-6.099 1.637 6.1h-3.274z"/>
	<path fill="#002880" fill-rule="nonzero" d="M68.368 22.287h10.09v-3.498h-5.426v-2.623h5.426v-3.34h-5.426V10.09h5.426V6.592h-10.09v15.695z"/>
	<path fill="#002880" fill-rule="nonzero" d="M88.638 22.78c5.449 0 8.655-3.879 8.655-8.34 0-4.462-3.206-8.341-8.655-8.341-5.448 0-8.654 3.879-8.654 8.34 0 4.462 3.206 8.341 8.654 8.341zm0-4.17c-2.51 0-3.789-1.928-3.789-4.17 0-2.243 1.278-4.171 3.79-4.171 2.533 0 3.811 1.928 3.789 4.17.022 2.243-1.256 4.17-3.79 4.17z"/>
	<path fill="#002880" fill-rule="nonzero" d="M99.108 22.287h10v-4.013h-5.336V6.592h-4.664v15.695z"/>
	<g fill="#ff005c" fill-rule="nonzero">
		<path d="M111.978 22.287h8.43v-.942h-7.443V6.592h-.987v15.695z"/>
		<path d="M132.584 22.287h1.054l-5.36-15.695h-.919l-5.358 15.695h1.054l1.053-3.229h7.4l1.076 3.229zm-8.162-4.148 3.386-10.27 3.408 10.27h-6.794z"/>
		<path d="M142.785 14.372c1.726-.314 2.937-1.614 2.937-3.744 0-2.534-1.816-4.036-4.574-4.036h-5v15.695h5.067c2.78 0 4.62-1.57 4.62-4.126 0-2.107-1.346-3.497-3.05-3.789zm-1.66-6.883c2.198 0 3.61 1.166 3.61 3.228 0 1.996-1.39 3.23-3.183 3.23h-4.417V7.488h3.99zm.09 13.901h-4.08v-6.547h4.506c1.794 0 3.207 1.3 3.207 3.251 0 2.085-1.435 3.296-3.633 3.296z"/>
		<path d="M153.458 22.6c3.116 0 5-1.658 5-4.282 0-2.175-1.189-3.565-3.319-4.058l-2.69-.673c-2.063-.47-3.072-1.502-3.072-3.273 0-1.861 1.502-3.162 3.79-3.162 2.443 0 3.945 1.39 3.945 3.722h.987c0-2.87-1.906-4.596-4.91-4.596-2.87 0-4.799 1.637-4.799 4.058 0 2.22 1.144 3.52 3.476 4.036l2.69.695c1.906.449 2.915 1.525 2.915 3.251 0 2.108-1.48 3.386-4.036 3.386-2.758 0-4.551-1.637-4.551-4.148h-.987c0 3.072 2.152 5.045 5.56 5.045z"/>
	</g>
</svg>
