<svg xmlns="http://www.w3.org/2000/svg" width="512" height="512" class="fl-svgdocument" overflow="hidden">
	<defs transform="translate(-142.338 2.229) scale(1.57802)">
		<linearGradient id="a" x1="0" y1=".5" x2="1" y2=".5">
			<stop offset="0%" stop-color="#74d14c" stop-opacity=".54"/>
			<stop offset="100%" stop-color="#74d14c" stop-opacity=".54"/>
		</linearGradient>
		<linearGradient id="b" x1="0" y1=".5" x2="1" y2=".5">
			<stop offset="0%" stop-color="#61c78c" stop-opacity=".54"/>
			<stop offset="100%" stop-color="#61c78c" stop-opacity=".54"/>
		</linearGradient>
		<linearGradient id="c" x1="0" y1=".5" x2="1" y2=".5">
			<stop offset="0%" stop-color="#33b5cc" stop-opacity=".53"/>
			<stop offset="100%" stop-color="#33b5cc" stop-opacity=".53"/>
		</linearGradient>
		<linearGradient id="d" x1="0" y1=".5" x2="1" y2=".5">
			<stop offset="0%" stop-color="#5accc2" stop-opacity=".53"/>
			<stop offset="100%" stop-color="#5accc2" stop-opacity=".53"/>
		</linearGradient>
	</defs>
	<g fill-rule="evenodd" clip-rule="evenodd">
		<path d="M73.232 28.96c-5.631 0-10.194 4.567-10.194 10.197 0 8.74-4.368 13.108-13.11 13.108-8.737 0-13.111-4.369-13.111-13.108 0-5.63-4.563-10.197-10.194-10.197s-10.194 4.567-10.194 10.197c0 5.631 4.563 10.198 10.194 10.198 8.742 0 13.111 4.369 13.111 13.111 0 5.631 4.563 10.194 10.195 10.194 5.63 0 10.2-4.563 10.2-10.194 0-8.742 4.368-13.111 13.104-13.111 5.637 0 10.2-4.567 10.2-10.198 0-5.63-4.564-10.197-10.201-10.197z" fill="url('#a')" transform="matrix(-3.02422 .05284 -.0527 -3.03275 449.454 464.625)"/>
		<path d="M73.232 28.96c-5.631 0-10.194 4.567-10.194 10.197 0 8.74-4.368 13.108-13.11 13.108-8.737 0-13.111-4.369-13.111-13.108 0-5.63-4.563-10.197-10.194-10.197s-10.194 4.567-10.194 10.197c0 5.631 4.563 10.198 10.194 10.198 8.742 0 13.111 4.369 13.111 13.111 0 5.631 4.563 10.194 10.195 10.194 5.63 0 10.2-4.563 10.2-10.194 0-8.742 4.368-13.111 13.104-13.111 5.637 0 10.2-4.567 10.2-10.198 0-5.63-4.564-10.197-10.201-10.197z" fill="url('#b')" transform="matrix(3.02469 0 0 3.03322 143.379 89.928)"/>
		<path d="M73.232 28.96c-5.631 0-10.194 4.567-10.194 10.197 0 8.74-4.368 13.108-13.11 13.108-8.737 0-13.111-4.369-13.111-13.108 0-5.63-4.563-10.197-10.194-10.197s-10.194 4.567-10.194 10.197c0 5.631 4.563 10.198 10.194 10.198 8.742 0 13.111 4.369 13.111 13.111 0 5.631 4.563 10.194 10.195 10.194 5.63 0 10.2-4.563 10.2-10.194 0-8.742 4.368-13.111 13.104-13.111 5.637 0 10.2-4.567 10.2-10.198 0-5.63-4.564-10.197-10.201-10.197z" fill="url('#c')" transform="matrix(.10561 3.03133 -3.0228 .1059 331.66 -17.807)"/>
		<path d="M73.232 28.96c-5.631 0-10.194 4.567-10.194 10.197 0 8.74-4.368 13.108-13.11 13.108-8.737 0-13.111-4.369-13.111-13.108 0-5.63-4.563-10.197-10.194-10.197s-10.194 4.567-10.194 10.197c0 5.631 4.563 10.198 10.194 10.198 8.742 0 13.111 4.369 13.111 13.111 0 5.631 4.563 10.194 10.195 10.194 5.63 0 10.2-4.563 10.2-10.194 0-8.742 4.368-13.111 13.104-13.111 5.637 0 10.2-4.567 10.2-10.198 0-5.63-4.564-10.197-10.201-10.197z" fill="url('#d')" transform="scale(3.02469 3.03322) rotate(90 35.5 77.46)"/>
	</g>
	<path fill="#3a3a3a" text-anchor="middle" font-size="100" letter-spacing="3" font-family="Work Sans" font-weight="700" d="M30.888 497.324H17.9l17.419-57.419h15.46l17.34 57.419H54.835l-9.68-36.887-2.175-9.05h-.158l-2.018 8.959-9.916 36.978Zm25.897-12.966H29.243v-10.18h27.542v10.18Zm36.783 13.833q-6.233 0-10.773-2.694-4.54-2.693-7.02-7.749-2.472-5.044-2.472-12.178 0-7.133 2.471-12.177 2.482-5.045 6.942-7.738 4.47-2.705 10.25-2.705 5.929 0 10.094 2.66 4.165 2.647 6.341 7.304 2.186 4.656 2.186 10.66 0 1.563-.078 3.126-.08 1.575-.227 2.614H81.554v-7.92h24.096l-6.076 2.704q0-5.227-1.615-8.012-1.615-2.784-4.992-2.784-2.403 0-4.086 1.312-1.694 1.301-2.56 4.086-.857 2.785-.857 7.133 0 4.268.974 6.916.975 2.66 2.777 3.835 1.802 1.164 4.353 1.164 2.855 0 4.539-1.301 1.694-1.301 2.52-3.652l10.202 3.914q-1.044 3.744-3.633 6.312-2.59 2.568-6.155 3.869-3.574 1.3-7.473 1.3Zm40.16-.867h-12.762v-43.507h11.254l.532 9.405q1.428-4.874 4.244-7.567 2.807-2.705 7.169-2.705 1.418 0 2.432.263 1.014.262 1.615.696l-1.27 12.177q-.759-.342-1.92-.559-1.163-.217-2.817-.217-2.245 0-4.204 1.13-1.95 1.13-3.112 3.344-1.162 2.226-1.162 5.615v21.925Zm42.71-16.093V469.75q0-3.047-1.467-4.84-1.457-1.78-3.938-1.78-2.482 0-4.244 1.438-1.763 1.438-2.433 5.09l-10.811-2.955q1.053-6.266 5.553-10.01 4.5-3.743 12.683-3.743 5.485 0 9.345 1.872 3.87 1.871 5.927 5.57 2.068 3.697 2.068 9.095v15.921q0 3.39 2.63 3.39 1.348 0 2.176-.354l-.749 8.446q-2.255 1.221-5.485 1.221-2.924 0-5.179-1.096-2.245-1.084-3.525-3.298-1.28-2.225-1.28-5.615v-.525l1.428-.605q0 3.743-1.91 6.266-1.92 2.522-4.954 3.743-3.042 1.21-6.341 1.21-3.83 0-6.686-1.392-2.856-1.393-4.392-4.04-1.536-2.66-1.536-6.574 0-4.691 2.442-7.784 2.432-3.093 7.69-4.303l14.19-3.4-.079 7.828-7.208 1.747q-2.245.525-3.338 1.518-1.083 1.004-1.083 3.001 0 1.917 1.201 2.876 1.202.959 2.846.959 1.28 0 2.442-.434 1.162-.445 2.068-1.358.896-.913 1.418-2.305.532-1.393.532-3.299Zm51.79-27.414h14.188l-18.01 22.278-2.402.788-10.743 13.912-.069-15.133 17.035-21.845Zm-27.02-18.443h12.76v61.95h-12.76v-61.95Zm16.818 40.196 8.33-8.696 16.888 30.45h-14.111l-11.107-21.754Zm38.503-26.797q-3.9 0-5.672-1.69-1.762-1.7-1.762-5.352 0-3.743 1.762-5.444 1.773-1.689 5.672-1.689 3.83 0 5.632 1.69 1.802 1.7 1.802 5.443 0 3.652-1.802 5.353-1.802 1.689-5.632 1.689Zm-6.38 5.044h12.76v43.507h-12.76v-43.507Zm88.422-13.912h17.636v57.419h-11.403V470.96l.375-17.656h-.148l-12.24 44.02h-10.437l-12.23-44.02h-.148l.374 17.656v26.364h-11.49v-57.419h18.394l7.808 29.229 2.777 12.177h.148l2.856-12.086 7.73-29.32Zm48.266 58.286q-6.233 0-10.773-2.694-4.539-2.693-7.02-7.749-2.472-5.044-2.472-12.178 0-7.133 2.472-12.177 2.481-5.045 6.942-7.738 4.47-2.705 10.25-2.705 5.928 0 10.093 2.66 4.165 2.647 6.342 7.304 2.186 4.656 2.186 10.66 0 1.563-.08 3.126-.078 1.575-.226 2.614h-29.727v-7.92h24.095l-6.076 2.704q0-5.227-1.614-8.012-1.615-2.784-4.993-2.784-2.402 0-4.086 1.312-1.694 1.301-2.56 4.086-.857 2.785-.857 7.133 0 4.268.975 6.916.975 2.66 2.777 3.835 1.802 1.164 4.352 1.164 2.855 0 4.54-1.301 1.693-1.301 2.52-3.652l10.201 3.914q-1.043 3.744-3.633 6.312t-6.154 3.869q-3.575 1.3-7.474 1.3Zm43.163 0q-5.633 0-10.477-2.134-4.835-2.123-7.986-6.13l5.997-8.182q1.88 2.785 4.992 4.656 3.121 1.872 6.942 1.872 2.334 0 3.83-.776 1.507-.788 1.507-2.442 0-1.222-.758-1.952-.749-.742-2.994-1.267l-5.258-1.221q-7.06-1.643-10.024-4.908-2.964-3.264-2.964-8.57 0-3.573 1.88-6.837 1.872-3.253 5.78-5.307 3.9-2.043 9.986-2.043 5.7 0 10.053 1.917 4.352 1.918 6.903 5.57l-6.076 8q-1.802-2.613-4.657-4.085-2.846-1.484-5.702-1.484-1.802 0-3.042.4-1.24.387-1.842 1.084-.6.696-.6 1.734 0 1.13.945 1.963.936.822 3.486 1.438l6.834 1.564q5.78 1.221 8.33 4.44 2.55 3.218 2.55 7.738 0 4.268-1.95 7.658-1.95 3.39-5.858 5.352-3.9 1.952-9.827 1.952Zm39.257-.867h-12.762v-61.95h12.762v26.364q1.654-4.348 4.726-6.562 3.082-2.226 7.13-2.226 3.908 0 6.793 1.746 2.895 1.735 4.54 5.125 1.654 3.4 1.654 8.537v28.966h-12.76v-24.88q0-4.703-1.458-6.483-1.467-1.78-3.87-1.78-1.802 0-3.377 1.038-1.576 1.05-2.481 3.31-.896 2.26-.896 5.912v22.883Z"/>
</svg>
