<svg xmlns="http://www.w3.org/2000/svg" width="200" height="128">
    <path fill="#c31618" d="M20 50.031h160v27.938H20z"/>
    <path d="M30.208 64.935l-1.411-.6 1.411-.653 11.966-5.412v1.441L39.033 61.1v6.468l3.141 1.408v1.374zm7.62-3.31l-6.058 2.7 6.058 2.716zM49 58.408h8.589v1.24h-7.244v4.021h6.484v1.241h-6.484v4.142h7.332v1.239H49zM64.451 58.408h5.109a5.722 5.722 0 0 1 1.961.314 3.823 3.823 0 0 1 1.417.875 3.059 3.059 0 0 1 .678 1.035 3.462 3.462 0 0 1 .238 1.307v.034a3.456 3.456 0 0 1-.238 1.317 3.066 3.066 0 0 1-.669 1.017 3.609 3.609 0 0 1-1.028.713 5.553 5.553 0 0 1-1.29.416l3.65 4.855h-1.648l-3.445-4.617h-3.4v4.617h-1.34zm5 6.06a4.235 4.235 0 0 0 1.226-.168 3.044 3.044 0 0 0 .97-.485 2.267 2.267 0 0 0 .638-.764 2.223 2.223 0 0 0 .228-1.026v-.035a2.06 2.06 0 0 0-.8-1.723 3.579 3.579 0 0 0-2.246-.619h-3.676v4.82zM86.313 70.494A6.015 6.015 0 0 1 83.844 70a5.836 5.836 0 0 1-3.139-3.283 6.35 6.35 0 0 1-.434-2.334v-.033a6.348 6.348 0 0 1 .441-2.343 6.164 6.164 0 0 1 8.107-3.31 5.851 5.851 0 0 1 3.138 3.285 6.321 6.321 0 0 1 .434 2.333.023.023 0 0 1 0 .035 6.335 6.335 0 0 1-.441 2.342 6.025 6.025 0 0 1-1.239 1.96 5.974 5.974 0 0 1-4.4 1.842zm.035-1.24a4.541 4.541 0 0 0 1.875-.38 4.449 4.449 0 0 0 1.469-1.045 4.9 4.9 0 0 0 .959-1.545 5.129 5.129 0 0 0 .348-1.9v-.034a5.193 5.193 0 0 0-.348-1.91 4.661 4.661 0 0 0-2.462-2.606 4.476 4.476 0 0 0-1.876-.391 4.544 4.544 0 0 0-1.874.382 4.469 4.469 0 0 0-1.469 1.044 4.926 4.926 0 0 0-.959 1.545 5.138 5.138 0 0 0-.348 1.9v.035a5.2 5.2 0 0 0 .348 1.909 4.669 4.669 0 0 0 2.462 2.606 4.455 4.455 0 0 0 1.875.39zM103.306 70.461a7.01 7.01 0 0 1-2.606-.468 7.459 7.459 0 0 1-2.25-1.434l.832-.984a7.068 7.068 0 0 0 1.884 1.265 5.451 5.451 0 0 0 2.191.414 3.018 3.018 0 0 0 1.926-.567 1.773 1.773 0 0 0 .717-1.451V67.2a1.905 1.905 0 0 0-.136-.737 1.517 1.517 0 0 0-.476-.6 3.357 3.357 0 0 0-.943-.492 12.145 12.145 0 0 0-1.54-.424 12.334 12.334 0 0 1-1.779-.51 4.406 4.406 0 0 1-1.251-.7 2.583 2.583 0 0 1-.733-.953 3.164 3.164 0 0 1-.237-1.271v-.034a2.926 2.926 0 0 1 .295-1.289 3.057 3.057 0 0 1 .815-1.028 4.009 4.009 0 0 1 1.239-.678 4.785 4.785 0 0 1 1.561-.246 6.528 6.528 0 0 1 2.285.365 7.07 7.07 0 0 1 1.893 1.095l-.783 1.036a5.766 5.766 0 0 0-1.671-.984 5.072 5.072 0 0 0-1.757-.307 2.85 2.85 0 0 0-1.852.553 1.7 1.7 0 0 0-.677 1.367v.037a1.984 1.984 0 0 0 .136.754 1.539 1.539 0 0 0 .492.612 3.626 3.626 0 0 0 .984.509 11.647 11.647 0 0 0 1.612.432 6.828 6.828 0 0 1 2.93 1.213 2.661 2.661 0 0 1 .941 2.149v.031a3.122 3.122 0 0 1-.3 1.383 3.175 3.175 0 0 1-.832 1.061 3.778 3.778 0 0 1-1.278.68 5.408 5.408 0 0 1-1.632.237zM114.153 58.408h4.447a5.968 5.968 0 0 1 1.827.264 4.2 4.2 0 0 1 1.409.747 3.2 3.2 0 0 1 .9 1.179 3.758 3.758 0 0 1 .317 1.579v.033a3.659 3.659 0 0 1-.373 1.692 3.6 3.6 0 0 1-1.011 1.21 4.307 4.307 0 0 1-1.484.739 6.405 6.405 0 0 1-1.8.248h-2.884v4.192h-1.341zm4.287 6.451a4.558 4.558 0 0 0 1.344-.186 3.136 3.136 0 0 0 1.029-.532 2.333 2.333 0 0 0 .663-.83 2.4 2.4 0 0 0 .23-1.058v-.034a2.241 2.241 0 0 0-.876-1.92 3.8 3.8 0 0 0-2.325-.651h-3.011v5.211zM129.684 58.408h1.343v11.883h-1.343zM138.578 58.408h1.343v7.1l6.823-7.1h1.731l-5.093 5.192 5.313 6.69h-1.68l-4.567-5.755-2.527 2.565v3.191h-1.343zM154.858 58.408h8.587v1.24H156.2v4.021h13.558v1.241H156.2v4.142h7.333v1.239h-8.673z" fill="#fff"/>
</svg>
