<svg xmlns="http://www.w3.org/2000/svg" viewBox="-3.55 -3.55 157.49 184.86">
	<path fill="#c41e25" d="m9.035 172.38-2.26-5.228-2.239 5.228zm-3.285-7.953h2.127l5.749 13.16H11.2l-1.325-3.155H3.696l-1.345 3.155H0l5.75-13.16m14.97.095h9.688v2.053h-7.391v3.396h6.552v2.054h-6.552v3.509H30.5v2.053h-9.782v-13.065m23.39 6.457c.82 0 1.475-.193 1.96-.582.484-.388.727-.917.727-1.583v-.037c0-.703-.236-1.237-.709-1.6-.474-.364-1.14-.546-1.997-.546H40.75v4.348zm-5.657-6.457h5.824c.822 0 1.55.115 2.184.344.635.23 1.164.55 1.587.961.348.362.616.777.802 1.25.187.473.28.996.28 1.568v.037c0 1.07-.289 1.93-.867 2.584-.58.653-1.33 1.11-2.25 1.372l3.528 4.949h-2.706l-3.211-4.555h-2.874v4.555h-2.297v-13.065m24.621 11.18c.647 0 1.24-.122 1.782-.364a4.213 4.213 0 0 0 1.39-.99c.386-.416.688-.905.907-1.463a4.925 4.925 0 0 0 .326-1.794v-.037c0-.635-.109-1.235-.326-1.802a4.494 4.494 0 0 0-.916-1.474 4.44 4.44 0 0 0-1.408-.999 4.294 4.294 0 0 0-1.793-.373c-.647 0-1.24.121-1.783.365a4.226 4.226 0 0 0-1.39.988 4.572 4.572 0 0 0-.905 1.466 4.915 4.915 0 0 0-.327 1.791v.038c0 .636.11 1.236.327 1.802a4.43 4.43 0 0 0 .915 1.474c.392.417.86.75 1.409 1a4.293 4.293 0 0 0 1.792.372zm-.038 2.109c-1.008 0-1.928-.176-2.761-.532a6.537 6.537 0 0 1-2.148-1.447 6.752 6.752 0 0 1-1.904-4.741v-.037c0-.92.168-1.788.505-2.604a6.59 6.59 0 0 1 1.417-2.147 6.88 6.88 0 0 1 2.166-1.465c.834-.36 1.755-.54 2.763-.54 1.007 0 1.928.176 2.762.532.834.353 1.55.836 2.148 1.445a6.66 6.66 0 0 1 1.4 2.139c.335.814.503 1.683.503 2.602v.038c0 .921-.168 1.79-.503 2.605a6.582 6.582 0 0 1-1.42 2.145 6.822 6.822 0 0 1-2.165 1.467c-.833.36-1.754.54-2.763.54M82 177.773a8.175 8.175 0 0 1-2.895-.517c-.92-.345-1.772-.876-2.557-1.592l1.381-1.641c.636.547 1.276.967 1.924 1.259.647.293 1.38.438 2.202.438.71 0 1.273-.148 1.69-.446.416-.299.624-.696.624-1.194v-.037c0-.236-.04-.444-.12-.624-.082-.18-.231-.35-.449-.512-.217-.161-.517-.31-.895-.448-.381-.136-.876-.273-1.485-.41a18.013 18.013 0 0 1-1.857-.558c-.54-.2-.996-.444-1.363-.737a2.86 2.86 0 0 1-.84-1.071c-.193-.422-.288-.932-.288-1.528v-.037a3.5 3.5 0 0 1 1.26-2.73c.392-.33.86-.587 1.408-.774a5.527 5.527 0 0 1 1.792-.28c.958 0 1.82.141 2.586.424a7.69 7.69 0 0 1 2.156 1.234l-1.233 1.739a8.03 8.03 0 0 0-1.773-.998 4.826 4.826 0 0 0-1.774-.346c-.672 0-1.194.15-1.567.448-.373.3-.56.664-.56 1.1v.036c0 .25.044.47.132.663.085.192.244.367.475.521.23.155.548.301.952.437.404.138.917.28 1.54.43.696.161 1.306.35 1.829.568.522.217.959.478 1.306.783.349.305.614.655.794 1.053.18.397.271.869.271 1.416v.037a3.77 3.77 0 0 1-.346 1.64 3.51 3.51 0 0 1-.961 1.23c-.41.335-.903.59-1.476.765-.571.173-1.2.26-1.883.26m17.564-6.44c.87 0 1.558-.218 2.063-.654.504-.434.755-.994.755-1.68v-.036c0-.772-.255-1.354-.765-1.745-.51-.392-1.195-.588-2.053-.588h-2.669v4.703zm-4.966-6.812h5.152c.76 0 1.447.101 2.063.308.616.204 1.14.5 1.568.886.43.386.759.846.99 1.38.23.537.344 1.134.344 1.793v.037c0 .735-.137 1.378-.41 1.932a3.998 3.998 0 0 1-1.12 1.39 4.99 4.99 0 0 1-1.661.85 6.94 6.94 0 0 1-2.035.29h-2.594v4.199h-2.297v-13.065m17.454 0h2.296v13.065h-2.296v-13.065m10.64 0h2.296v6.57l6.215-6.57h2.82l-5.433 5.617 5.675 7.448h-2.782l-4.461-5.88-2.034 2.092v3.788h-2.297v-13.065m18.012 0h9.69v2.053h-7.392v3.396h6.552v2.054h-6.552v3.509h7.484v2.053h-9.782v-13.065m9.69-15.251H1.126V0h149.27v149.27"/>
	<path fill="#fff" d="M90.357 57.288 47.462 76.395 90.357 95.63zM36.404 80.723l-9.995-4.279 9.995-4.62L121.13 33.5v10.203l-22.237 9.862v45.794l22.237 9.966v9.734L36.404 80.723"/>
</svg>
