<svg id="Layer_1" data-name="Layer 1" xmlns="http://www.w3.org/2000/svg" viewBox="0 0 747 198">
	<defs>
		<style>
			.cls-1{fill:none}.cls-2{fill:#259d9e}.cls-3{fill:#4a4e52}
		</style>
	</defs>
	<path class="cls-1" d="M656.946 101.402a22.443 22.443 0 0 0-17.483 7.89c-4.713 5.272-6.986 11.869-6.986 19.627 0 8.388 2.273 15.15 6.786 20.422a22.204 22.204 0 0 0 17.482 7.957q11.281 0 18.25-7.691c4.614-5.305 6.954-12.035 6.954-20.224 0-8.19-2.34-14.92-6.953-20.223-4.613-5.205-10.663-7.758-18.05-7.758Z"/>
	<path class="cls-1" d="M152.137 35.294a35169.695 35169.695 0 0 1-23.23 56.076l-2.285 5.493 73.76 52.897-20.745-49.229c-9.915-23.53-19.834-47.062-27.5-65.237Z"/>
	<path class="cls-1" d="M226.947 106.034c-3.11 2.281-5.923 4.345-8.352 6.125l15.243 35.863 2.893 6.8a164247.455 164247.455 0 0 0 39.701-85.147l-9.907 7.285a59887.027 59887.027 0 0 1-39.578 29.074Z"/>
	<path class="cls-1" d="M117.885 129.31a58904.694 58904.694 0 0 1-53.817-38.74Q45.704 77.332 31.385 66.981L77.45 170.624l48.116-35.792-7.68-5.52Z"/>
	<path class="cls-2" d="M193.558 94.665a260916.166 260916.166 0 0 0-28.576-67.79l-5.961-14.13a7.553 7.553 0 0 0-13.943.058c-4.096 9.94-9.55 23.133-15.008 36.32a29846.47 29846.47 0 0 1-15.113 36.45c-1.839 4.425-3.408 8.196-4.587 11.017a7.552 7.552 0 0 0 2.573 9.05l100.394 71.998a7.553 7.553 0 0 0 11.363-9.07Zm-66.936 2.198 2.285-5.493a34867.564 34867.564 0 0 0 23.23-56.076 258091.63 258091.63 0 0 1 27.5 65.237l20.745 49.229Z"/>
	<path class="cls-3" d="m142.767 128.594-16.063-11.548a59612.226 59612.226 0 0 1-53.803-38.732c-22.63-16.31-40.739-29.398-53.825-38.898l-1.557-1.13a7.553 7.553 0 0 0-11.34 9.18l61.3 137.92a7.555 7.555 0 0 0 11.411 2.994l63.978-47.592a7.554 7.554 0 0 0-.1-12.194Zm-65.318 42.03L31.385 66.982q14.28 10.322 32.683 23.587a58904.694 58904.694 0 0 0 53.817 38.742l7.68 5.521Z"/>
	<path class="cls-3" d="M300.535 40.234a7.551 7.551 0 0 0-9.262-.236 60659.47 60659.47 0 0 1-73.264 53.856c-5.396 3.96-9.897 7.26-13.106 9.61l-.133.098a7.554 7.554 0 0 0-2.42 9l17.587 41.372c3.417 8.034 6.755 15.876 9.53 22.39a7.553 7.553 0 0 0 6.821 4.59l.128.001a7.553 7.553 0 0 0 6.844-4.358l5.224-11.195c7.404-15.873 17.276-37.037 27.145-58.205 9.8-21.021 19.597-42.044 26.97-57.89a7.553 7.553 0 0 0-2.064-9.033Zm-38.597 60.54c-9.03 19.37-18.064 38.737-25.207 54.048l-2.893-6.8-15.243-35.863c2.43-1.78 5.242-3.844 8.352-6.125a59887.027 59887.027 0 0 0 49.485-36.359c-4.624 9.926-9.56 20.513-14.494 31.1Z"/>
	<path class="cls-3" d="M386.752 86.86a38.071 38.071 0 0 0-29.405 12.983c-7.81 8.633-11.771 19.577-11.771 32.529 0 13.238 3.96 24.395 11.772 33.16 7.827 8.613 17.9 12.982 29.938 12.982 9.511 0 18.533-3.883 26.815-11.54l.401-.371v9.424h19.911V89.312h-19.879v10.43l-.41-.425c-8.006-8.266-17.215-12.458-27.372-12.458Zm29.02 45.943c0 8.174-2.36 15.03-7.012 20.38-4.664 5.16-10.864 7.774-18.432 7.774a22.497 22.497 0 0 1-17.662-8.04c-4.542-5.305-6.844-12.229-6.844-20.578 0-7.9 2.37-14.558 7.046-19.786a22.741 22.741 0 0 1 17.662-7.971c7.487 0 13.62 2.638 18.228 7.84 4.654 5.35 7.014 12.207 7.014 20.38Z"/>
	<path class="cls-3" d="M414.263 89.073h-.207v9.492c-8.002-8.086-17.185-12.184-27.304-12.184a38.529 38.529 0 0 0-29.76 13.141c-7.893 8.723-11.894 19.775-11.894 32.85 0 13.36 4.001 24.623 11.895 33.48 7.922 8.72 18.115 13.14 30.294 13.14 9.48 0 18.474-3.802 26.737-11.3v8.814h20.868V88.834h-20.629Zm.271.24h19.88v86.714h-19.912v-9.424l-.401.37c-8.282 7.658-17.304 11.54-26.815 11.54-12.038 0-22.11-4.368-29.938-12.982-7.811-8.764-11.772-19.92-11.772-33.159 0-12.952 3.96-23.897 11.771-32.53a38.071 38.071 0 0 1 29.405-12.983c10.157 0 19.366 4.192 27.371 12.458l.411.425Z"/>
	<path class="cls-3" d="M390.53 104.582a22.741 22.741 0 0 0-17.662 7.97c-4.675 5.23-7.046 11.886-7.046 19.787 0 8.35 2.302 15.273 6.844 20.579a22.497 22.497 0 0 0 17.662 8.039c7.568 0 13.768-2.614 18.432-7.774 4.652-5.35 7.012-12.206 7.012-20.38s-2.36-15.03-7.014-20.381c-4.608-5.202-10.741-7.84-18.228-7.84Zm17.872 48.283c-4.567 5.052-10.647 7.613-18.074 7.613a22.034 22.034 0 0 1-17.3-7.873c-4.527-5.289-6.728-11.918-6.728-20.266 0-7.78 2.33-14.33 6.926-19.468a22.281 22.281 0 0 1 17.304-7.81c7.344 0 13.357 2.583 17.869 7.676 4.575 5.26 6.894 12.011 6.894 20.066s-2.32 14.806-6.891 20.062Z"/>
	<path class="cls-3" d="M472.464 71.5v11.678h-17.181v15.17h17.181v77.61h.033v.068h20.213V98.414h21.326v-15.17H492.71v-10.98c0-14.161 3.77-18.706 15.516-18.706a42.94 42.94 0 0 1 7.516.607V38.497a47.264 47.264 0 0 0-11.093-.971c-21.357 0-32.185 11.43-32.185 33.975Z"/>
	<path class="cls-3" d="M504.649 37.047c-21.674 0-32.663 11.592-32.663 34.454V82.7h-17.182v16.126h17.182v77.372l.033.24v.067h21.17V98.893h21.326V82.766h-21.326V72.263c0-13.798 3.654-18.227 15.037-18.227a40.962 40.962 0 0 1 7.704.658l.29.063V38.134l-.174-.05a46.376 46.376 0 0 0-11.397-1.037Zm11.093 17.118a42.94 42.94 0 0 0-7.516-.607c-11.745 0-15.516 4.545-15.516 18.705v10.981h21.326v15.17H492.71v77.612h-20.213v-.067h-.033V98.348h-17.181v-15.17h17.181V71.501c0-22.545 10.828-33.975 32.185-33.975a47.264 47.264 0 0 1 11.093.97Z"/>
	<path class="cls-3" d="M546.774 175.963h17.772V83.049h-5.028l-12.744 5.154v87.76z"/>
	<path class="cls-3" d="M562.946 42.268a9.973 9.973 0 0 0-3.269-2.205 9.707 9.707 0 0 0-3.983-.776 9.426 9.426 0 0 0-3.979.774 10.521 10.521 0 0 0-3.274 2.207 9.91 9.91 0 0 0-2.223 3.24 9.642 9.642 0 0 0-.781 3.95 9.369 9.369 0 0 0 .78 3.944 10.42 10.42 0 0 0 2.225 3.245 9.973 9.973 0 0 0 3.268 2.205 9.7 9.7 0 0 0 3.984.776 9.426 9.426 0 0 0 3.978-.774 10.499 10.499 0 0 0 3.275-2.207 9.923 9.923 0 0 0 2.222-3.24 9.389 9.389 0 0 0 .781-3.95 9.233 9.233 0 0 0-.779-3.944 10.42 10.42 0 0 0-2.225-3.245Z"/>
	<path class="cls-3" d="M546.555 87.775h-.26v88.666h18.73v-93.87h-5.554Zm17.991-4.726v92.914h-17.772v-87.76l12.744-5.154Z"/>
	<path class="cls-3" d="M563.286 41.93a10.442 10.442 0 0 0-3.42-2.307 10.173 10.173 0 0 0-4.172-.815 9.89 9.89 0 0 0-4.173.815 10.973 10.973 0 0 0-3.413 2.302 10.361 10.361 0 0 0-2.327 3.391 10.235 10.235 0 0 0-.823 4.141 9.82 9.82 0 0 0 .823 4.141 10.877 10.877 0 0 0 2.32 3.386 10.442 10.442 0 0 0 3.42 2.307 10.167 10.167 0 0 0 4.173.816 9.883 9.883 0 0 0 4.172-.816 10.971 10.971 0 0 0 3.414-2.3 10.374 10.374 0 0 0 2.327-3.392 9.84 9.84 0 0 0 .822-4.142 9.685 9.685 0 0 0-.822-4.14 10.878 10.878 0 0 0-2.32-3.386Zm1.883 11.476a9.923 9.923 0 0 1-2.222 3.241 10.499 10.499 0 0 1-3.275 2.207 9.426 9.426 0 0 1-3.978.774 9.7 9.7 0 0 1-3.984-.776 9.973 9.973 0 0 1-3.268-2.205 10.42 10.42 0 0 1-2.226-3.245 9.369 9.369 0 0 1-.78-3.945 9.642 9.642 0 0 1 .782-3.948 9.91 9.91 0 0 1 2.223-3.241 10.521 10.521 0 0 1 3.274-2.207 9.426 9.426 0 0 1 3.979-.774 9.707 9.707 0 0 1 3.983.776 9.973 9.973 0 0 1 3.269 2.205 10.42 10.42 0 0 1 2.225 3.245 9.233 9.233 0 0 1 .78 3.944 9.389 9.389 0 0 1-.782 3.95Z"/>
	<path class="cls-2" d="M680.712 95.732C672.59 87.344 663.397 83.2 653.169 83.2c-11.834 0-21.695 4.31-29.583 13.063q-11.834 13.078-11.833 32.689c0 13.328 3.944 24.467 11.833 33.319q11.883 13.078 30.117 13.063c9.594 0 18.586-3.846 26.976-11.604v9.117h20.39V85.653h-20.357Zm-5.716 53.875q-6.97 7.707-18.251 7.69a22.204 22.204 0 0 1-17.482-7.956c-4.513-5.271-6.786-12.034-6.786-20.422 0-7.758 2.273-14.355 6.986-19.627a22.443 22.443 0 0 1 17.483-7.89c7.387 0 13.437 2.553 18.05 7.758 4.613 5.304 6.953 12.034 6.953 20.223 0 8.189-2.34 14.919-6.953 20.224Z"/>
	<path class="cls-2" d="M740.67 41.99a10.699 10.699 0 0 0-2.272-3.315 10.215 10.215 0 0 0-3.343-2.255 9.94 9.94 0 0 0-4.078-.796 9.629 9.629 0 0 0-4.078.796 10.79 10.79 0 0 0-3.343 2.255 10.144 10.144 0 0 0-2.273 3.315 9.94 9.94 0 0 0-.802 4.045 9.622 9.622 0 0 0 .802 4.044 10.698 10.698 0 0 0 2.273 3.316 10.216 10.216 0 0 0 3.343 2.254 9.943 9.943 0 0 0 4.078.796 9.628 9.628 0 0 0 4.078-.796 10.78 10.78 0 0 0 3.343-2.254 10.13 10.13 0 0 0 2.273-3.316 9.622 9.622 0 0 0 .802-4.044 9.418 9.418 0 0 0-.802-4.045Z"/>
	<path class="cls-2" d="M721.885 84.592h-.067v88.188h18.251V79.387h-5.315l-12.869 5.205z"/>
	<circle class="cls-2" cx="591.819" cy="169.477" r="8.544"/>
</svg>
