<svg xmlns="http://www.w3.org/2000/svg" viewBox="0 0 1940 1240.195" xml:space="preserve">
	<defs>
		<clipPath id="a" clipPathUnits="userSpaceOnUse">
			<path d="M0 930.146h1454.995V0H0Z"/>
		</clipPath>
	</defs>
	<g clip-path="url(#a)" transform="matrix(1.33333 0 0 -1.33333 0 1240.195)">
		<path style="fill:#23261f;fill-opacity:1;fill-rule:nonzero;stroke:none" d="M0 0c-5.566 1.016-12.144 1.523-17.202 1.523-41.494 0-70.84-45.537-70.84-84.502 0-24.794 12.651-36.425 27.324-36.425 16.699 0 40.479 14.668 52.114 78.427zm-18.218-185.186c1.016 14.678 2.027 29.346 2.53 44.024h-1.011c-22.261-39.473-55.152-50.098-83.487-50.098-46.547 0-83.486 34.912-83.486 92.598 0 85 57.681 168.486 191.768 168.486 33.393 0 69.824-7.08 93.608-14.668L75.391-72.861c-5.059-27.315-10.625-77.92-9.615-112.325z" transform="translate(183.672 292.451)"/>
		<path style="fill:#f37021;fill-opacity:1;fill-rule:nonzero;stroke:none" d="M0 0c-5.059 2.021-15.181 3.037-23.276 3.037-38.453 0-66.28-35.42-66.28-77.422 0-27.314 15.176-37.939 31.368-37.939 18.72 0 39.975 15.176 48.574 62.236zm-172.031-205.937c14.673-8.096 52.114-13.155 73.364-13.155 33.398 0 60.718 11.133 69.824 57.178l2.027 10.117h-1.011c-19.229-19.736-38.457-28.838-67.803-28.838-53.633 0-90.571 40.479-90.571 96.133 0 80.957 59.707 155.84 180.132 155.84 39.97 0 71.845-5.557 103.725-17.705l-36.43-202.901C53.13-192.783 38.96-238.32 5.059-263.613c-29.849-21.758-68.814-27.324-103.218-27.324-39.468 0-72.862 6.064-93.101 16.699z" transform="translate(496.377 290.938)"/>
		<path style="fill:#f37021;fill-opacity:1;fill-rule:nonzero;stroke:none" d="M0 0c0-27.832 14.673-41.494 36.934-41.494 38.96 0 55.151 49.59 55.151 81.973 0 23.271-10.117 42.5-35.923 42.5C13.657 82.979 0 27.314 0 0m186.704 45.029c0-100.693-72.353-154.834-163.433-154.834-61.728 0-117.89 33.907-117.89 108.789 0 86.524 65.268 152.295 161.914 152.295 66.284 0 119.409-39.97 119.409-106.25" transform="translate(716.494 210.996)"/>
		<path style="fill:#23261f;fill-opacity:1;fill-rule:nonzero;stroke:none" d="M0 0c-5.566 1.016-12.144 1.523-17.202 1.523-41.494 0-70.84-45.537-70.84-84.502 0-24.794 12.651-36.425 27.324-36.425 16.695 0 40.479 14.668 52.114 78.427zm-18.218-185.186c1.016 14.678 2.027 29.346 2.534 44.024h-1.015c-22.261-39.473-55.152-50.098-83.487-50.098-46.547 0-83.486 34.912-83.486 92.598 0 85 57.681 168.486 191.768 168.486 33.393 0 69.824-7.08 93.603-14.668L75.391-72.861c-5.059-27.315-10.625-77.92-9.615-112.325z" transform="translate(1267.017 292.451)"/>
		<path style="fill:#fff;fill-opacity:1;fill-rule:nonzero;stroke:none" d="m0 0 .19.01-.239-.059Z" transform="translate(1007.832 485.41)"/>
		<path style="fill:#23261f;fill-opacity:1;fill-rule:nonzero;stroke:none" d="M0 0c-120.383-88.113-319.265-165.833-401.267-16.353C-299.682-163.98-112.424-68.142-18.081-1.025-6.823 19.741 17.4 55.164 40.047 82.378 18.616 70.146 4.612 65.154-7.153 62.026-40.51 34.409-86.895 2.563-136.719-18.523-207.5-44.832-279.499-56.338-337.634-3.811c93.064-72.642 227.722-10.864 311.309 61.516 21.901 42.293 36.343 66.912 55.874 94.556-19.285-14.124-35.591-22.954-49.632-27.078C-76.719 61.135-150.21 13.137-232.268 8.337c-68.095-3.984-99.204 54.339-99.204 91.228 0 23.243 8.255 43.433 23.108 59.039-10.991-4.786-20.93-11.622-32.414-20.113l-3.98 1.846c-.488 7.168.532 12.725 2.417 17.139-1.806-1.905-3.457-3.809-5.01-5.606-3.169-3.662-5.908-6.826-8.891-8.799l-2.915.108c-2.388 1.855-3.74 4.258-4.024 7.148-.464 4.658 2.012 9.844 5.205 14.58-7.841-5.469-15.952-12.129-22.314-17.607l-4.131 1.914c.049 7.91 5.386 19.433 14.697 30.166-19.721-12.109-27.373-20.166-33.828-26.953-1.958-2.071-3.813-4.024-5.844-5.928l-4.18 1.406c-1.782 10.635 8.052 25.742 16.582 36.162-13.008-8.232-21.343-18.134-26.348-30.996l-4.8.508c-2.866 17.891 4.996 41.104 14.19 56.631-18.589-15.615-27.559-41.24-28.247-53.75l-4.59-1.231c-8.936 13.68-7.734 34.454-2.295 54.498-86.121-127.256-26.094-359.712 176.633-359.712 91.819 0 178.68 41.882 250.693 88.994C-7.067-42.283 25.01-6.182 47.781 17.515 23.862 4.661 10.815 1.519 0 0" transform="translate(989.91 606.9)"/>
		<path style="fill:#344026;fill-opacity:1;fill-rule:nonzero;stroke:none" d="m0 0 10.742-2.139-9.8-4.892c-26.594-13.303-50.908-40.786-63.191-69.214C-43.14-58.931-22.827-44.058 2.642-30.781c33.962 17.705 119.355 30.21 178.532 3.613-8.892 7.122-18.718 12.478-28.967 16.675C62.131 36.023-5.61 16.27-29.907 7.454-35.762 5.33-41.294 2.915-46.685.364-31.294 3.186-15.654 3.101 0 0" transform="translate(1183.482 907.432)"/>
		<path style="fill:#2c3324;fill-opacity:1;fill-rule:nonzero;stroke:none" d="m0 0-11.265-15.283c-22.846-31.004-37.514-54.517-59.37-96.011 6.316 5.84 12.32 11.709 17.881 17.554C-.657-39.004 31.24 1.909 64.38 34.453c9.045 31.318 33.752 63.877 62.344 81.914-21.854 2.373-43.631-1.626-64.605-11.543C14.924 71.05-15.928 18.87-61.299-37.202c-2.327-2.876-4.741-5.679-7.132-8.499 14.984 5.994 32.601 17.095 53.597 33.855z" transform="translate(1044.751 785.313)"/>
		<path style="fill:#344026;fill-opacity:1;fill-rule:nonzero;stroke:none" d="m0 0 12.124-2.539L.63-7.148c-19.185-7.708-45.747-32.369-65.816-55.538 9.771 6.565 20.611 13.372 32.959 20.562 95.03 55.327 216.622-28.706 247.535-120.671C211.784 42.71 37.505 50.327-40.052 13.247A312.295 312.295 0 0 1-68.33-2.122C-42.964 2.703-13.563 2.837 0 0" transform="translate(1239.688 847.852)"/>
		<path style="fill:#2c3324;fill-opacity:1;fill-rule:nonzero;stroke:none" d="m0 0-11.899-13.184C-33.69-37.31-59.487-73.45-74.163-97.935A597.688 597.688 0 0 1-58.975-86.34C24.692-20.132 40.246 15.347 96.599 58.435c16.995 23.621 48.147 57.075 73.982 72.639-21.219 1.336-54.165-1.504-74.438-9.219C46.812 86.462 11.193 40.356-39.868-11.863-46.24-18.379-54.202-25.84-63.34-33.782c11.875 4.143 26.716 10.991 48.267 24.397z" transform="translate(1055.762 710.899)"/>
		<path style="fill:#344026;fill-opacity:1;fill-rule:nonzero;stroke:none" d="M0 0c-15.853-5.701-30.916-13.997-45.428-23.853 35.667 7.618 80.918 3.731 101.004-15.7l4.82-4.668-6.495-1.66c-23.842-6.104-73.03-35.66-104.221-60.215 179.168 60.813 361.748-163.777 32.778-275.713 273.064 14.668 288.47 219.917 219.446 319.136C150.84 10.732 61.823 22.234 0 0" transform="translate(1209.356 785.999)"/>
		<path style="fill:#2c3324;fill-opacity:1;fill-rule:nonzero;stroke:none" d="M0 0c-42.053-33.196-79.553-77.856-117.131-110.996-9.046-7.976-19.007-16.074-29.588-24.136 11.287 2.793 26.387 8.753 51.82 23.931l18.339 10.947-15.317-14.892c-17.767-17.259-51.006-53.809-71.685-78.426C-92.526-145.22-37.473-94.004-8.776-78.164 16.971-53.135 76.18-15.083 108.685-3.643 83.838 13.372 31.489 12.952 0 0" transform="translate(1145.837 748.907)"/>
		<path style="fill:#f37021;fill-opacity:1;fill-rule:nonzero;stroke:none" d="M0 0c-.944 3.213-2.446 6.333-4.963 7.632-1.048.542-2.832 1.396-5.029 2.471-8.653 4.238-23.135 11.328-27.905 14.228l1.298 2.129c4.673-2.842 19.654-10.176 27.705-14.111 2.207-1.084 4.006-1.922 5.049-2.481C4.217 5.552 3.626-5.027 4.085-8.318c.552-3.87.869-8.42 1.079-13.882 28.781 28.97 9.24 69.143-20.732 86.275-5.992-2.471-26.058-24.2-35.43-40.2 15.547-5.931 31.603-13.216 48.132-22.149C-2.146 1.338-1.105.703 0 0" transform="translate(922.336 756.02)"/>
		<path style="fill:#fff;fill-opacity:1;fill-rule:nonzero;stroke:none" d="M0 0a5.508 5.508 0 1 0-11.015.001A5.508 5.508 0 0 0 0 0" transform="translate(931.35 781.812)"/>
		<path style="fill:#23261f;fill-opacity:1;fill-rule:nonzero;stroke:none" d="M0 0c-36.182 4.995-72.246 3.169-111.885 22.544 5.066-14.751 5.674-26.777 31.446-32.749-40.45-1.69-74.317-13.486-101.663-32.192-.098-.181-.295-.44-.427-.65-6.707-4.634-13.13-9.565-19.048-14.985-6.936-6.353-13.399-13.15-19.248-20.445-7.075-19.008-11.509-41.513-6.143-57.251 3.721 16.895 15.952 44.493 40.908 57.1l2.964-3.926c-9.336-10.088-20.688-34.082-21.587-54.15 7.608 13.35 19.629 23.35 37.818 31.699l2.617-4.219c-5.923-4.785-21.86-23.632-25-36.738.356.371.713.742 1.074 1.123 8.745 9.209 19.629 20.664 57.788 40.723l2.466-4.346c-17.197-10.508-27.9-25.986-31.313-36.65 9.311 7.744 20.722 16.455 30.009 21.162l3.033-3.848-1.05-1.221c-4.087-4.736-12.588-14.58-11.963-20.859.083-.889.351-1.66.815-2.344 1.934 1.67 3.975 4.024 6.26 6.66 6.524 7.54 14.644 16.924 28.789 21.075l2.124-4.463c-1.138-.781-2.358-1.553-3.623-2.354-7.29-4.59-15.459-9.746-16.011-24.023 13.902 10.112 26.133 17.69 41.006 21.89.742.581 1.56 1.103 2.324 1.669 10.391 7.701 23.079 13.501 37.371 17.544l-.137.264c-.337.01-.705-.034-1.045-.029.098.005.223.044.32.044.244 0 .486-.005.725-.015 13.379 3.75 28.348 5.747 44.648 5.747 28.387 0 60.833-6.059 96.068-19.497 9.372 16.001 29.438 37.73 35.429 40.2C130.324-45.493 53.034-5.508 0 0" transform="translate(770.908 907.603)"/>
		<path style="fill:#f37021;fill-opacity:1;fill-rule:nonzero;stroke:none" d="M0 0c1.24.234 2.378.693 3.584 1.182 1.953.781 4.187 1.538 7.326 1.784C7.59 6.064 6.647 7.534 7.187 8.74c.196.43.713 1.133 2.276.977 3.532-.415 10.685-2.981 17.441-9.79-2.334 3.547-5.512 7.085-8.792 9.57-3.888 2.949-12.031 9.077-16.955 9.287-2.19.095-4.68-1.916-5.312-3.921-1.268-4.013-9.219-8.376-16.278-11.418C-12.879.996-2.386-.503 0 0" transform="translate(1070.84 479.785)"/>
		<path style="fill:#f37021;fill-opacity:1;fill-rule:nonzero;stroke:none" d="M0 0a8.93 8.93 0 0 1-.394 1.567 10.69 10.69 0 0 1-.41 1.026 17.289 17.289 0 0 1-1.172 2.143c-.929 1.47-2.145 3.02-3.598 4.639a66.057 66.057 0 0 1-3.672 3.74l-.017-.014c-.151.168-.332.297-.488.461a80.07 80.07 0 0 1-3.745 3.281c-7.461 5.535-16.397 7.219-17.661 7.244-3.57-.039-5.86-.84-8.052-1.719-1.255-.508-2.559-1.025-4.033-1.318-3.953-.735-20.145 1.963-27.256 5.903-9.617 4.453-18.823 11.582-31.196 24.507-16.675 16.97-22.93 31.606-26.234 43.403a736.5 736.5 0 0 0-17.233-11.604l-.047-.031c5.752-10.123 18.968-24.908 29.3-33.79l-1.631-1.894c-10.428 8.96-23.74 23.896-29.744 34.331a656.513 656.513 0 0 0-8.381-5.33c3.291-4.514 7.175-8.96 11.476-13.203 11.654-11.562 25.56-22.072 37.354-33.747.096-.093.188-.186.283-.279.008-.097.018-.195.025-.293.642-8.244-8.76-7.041-17.561-6.215-5.352.544-11.048 1.071-14.261.009-4.767-2.702-7.126-5.1-7.36-7.373-.122-1.137.28-2.251 1.144-3.361.433-.555.98-1.111 1.636-1.67.33-.279.684-.559 1.065-.84.381-.281.789-.562 1.218-.845 5.671-3.625 15.083-7.535 23.435-10.015.945-.217 2.01.185 3.047.779-5.801 2.403-12.046 5.987-14.743 9.859-1.172 1.689-1.602 3.339-1.284 4.912l2.451-.508c-.181-.869.122-1.875.888-2.969 2.525-3.636 9.161-7.224 14.973-9.49 1.136 1.214 1.912 2.522 1.57 3.191-1.494 3.052-1.215 5.152.865 6.321 2.172 1.228 6.276 1.35 12.172.193 3.02.977 4.986 3.259 6.104 7.114.871-.281 1.74-.561 2.604-.844C-92.171 4.385-86.914-2.635-76.8-7.669c2.078-.356 3.848-.529 5.57-.654-1.844 3.828-3.003 7.348-1.851 9.539.391.742 1.226 1.66 2.988 1.826 5.681.645 11.314-2.598 14.658-7.632.787.591 1.555 1.221 2.266 1.936.371 3.928-2.161 6.992-6.245 10.027-.02.015-.005.034-.024.049-.376.22-.801.483-1.167.698-8.418 4.942-15.064 8.848-18.531 16.826l2.295.996c3.14-7.236 9.478-10.957 17.5-15.664.564-.329 1.206-.727 1.789-1.071.257-.01.498.026.762-.049 3.655-1.051 7.659-1.099 12.293-.281 2.048 1.938 4.072 2.549 6.203 1.943 2.103-.598 4.046-2.285 5.862-5.11 2.891-2.808 5.611-3.306 7.408-3.278 3.916.099 6.989 2.599 6.955 5.849-.02 2.603-1.936 5.42-5.293 8.072.18.363.354.722.522 1.079C-13.572 11.726-8.198 6.963-5.398 2.868-3.499.01-2.949-2.51-3.999-5.203c1.489.266 2.646.95 3.337 1.936a3.98 3.98 0 0 1 .669 1.706c.049.321.066.66.047 1.014C.044-.369.026-.186 0 0" transform="translate(1114.56 456.275)"/>
		<path style="fill:#fff;fill-opacity:1;fill-rule:nonzero;stroke:none" d="M0 0c-33.083 12.197-64.68 18.374-93.975 18.374-16.191 0-31.422-1.929-45.287-5.737l-.086.005c-7.39 0-15.993-3.052-25.954-6.582-1.36-.484-2.801-.967-4.202-1.456 14.397 19.629 20.96 19.751 27.402 19.742 1.714-.039 3.492-.039 5.411.293l.283 2.373c-11.87 5.205-23.316-.703-34.38-6.407-2.9-1.494-5.669-2.929-8.389-4.121 4.077 15.205 21.958 21.192 25.655 22.276l-.206 2.441c-10.615 1.27-24.301-1.406-37.426-7.217 11.303 13.33 25.508 19.434 41.269 17.764 1.455-.205 2.93-.43 4.458-.693l.464 2.451a51.81 51.81 0 0 1-4.58.723c-36.519 5.019-51.807-1.758-70.43-13.956 13.672 21.221 40.005 23.467 40.284 23.487l-.03 2.5c-20.512.967-36.65-1.338-51.982-15.332 6.719 15.058 18.071 23.476 34.555 25.693l-.073 2.49c-28.535 2.129-51.279-11.816-59.59-26.787-1.679 4.824-1.503 9.551.523 14.102 4.238 9.502 15.386 15.781 21.836 17.685 9.951 2.823 20.078 2.979 27.739 2.705 2.437-.166 4.893-.322 7.383-.459l.161 2.5c-2.051.147-4.575.332-7.441.45-.035.009-.069.009-.098.009-23.694 1.534-46.191 2.979-72.993-17.587 1.218 1.518 2.263 2.861 2.964 3.93 27.902 18.833 60.925 29.17 98.169 30.728l36.858 1.538-35.94 8.33c-16.631 3.852-21.116 9.927-24.307 18.696 26.775-10.923 51.968-13.232 76.426-15.478 8.713-.801 17.721-1.626 26.675-2.857 52.353-5.439 122.519-43.691 130.861-80.107C23.47 30.186 8.623 13.35 0 0" transform="translate(869.245 786.016)"/>
		<path style="fill:#f37021;fill-opacity:1;fill-rule:nonzero;stroke:none" d="M0 0c-3.06-6.934-1.943-14.6 2.16-20.356 1.014-.616 1.953-1.06 2.749-1.177 6.151-.874 22.806 3.12 33.143 5.239.7 1.69 1.105 3.413 1.343 5.147-8.326 8.051-12.933 18.764-19.307 21.718-1.196.557-3.037.982-5.254 1.333C8.479 10.605 2.817 6.387 0 0" transform="translate(839.517 833.345)"/>
		<path style="fill:#000;fill-opacity:1;fill-rule:nonzero;stroke:none" d="M0 0c-2.328-5.278-8.495-7.669-13.774-5.341-5.279 2.329-7.67 8.496-5.341 13.775 2.329 5.278 8.496 7.67 13.774 5.34C-.062 11.446 2.329 5.279 0 0" transform="translate(870.09 821.116)"/>
		<path style="fill:#000;fill-opacity:1;fill-rule:nonzero;stroke:none" d="M0 0c-1.751 1.206-3.315 2.583-4.795 4.019-.237-1.734-.642-3.457-1.343-5.147C-3.696-.625-1.497-.195 0 0" transform="translate(883.706 818.179)"/>
		<path style="fill:#000;fill-opacity:1;fill-rule:nonzero;stroke:none" d="M0 0c2.817 6.387 8.479 10.605 14.834 11.904-12.119 1.909-37.036 1.211-48.73 2.867C-22.588 6.855-6.538-15.068 2.16-20.356-1.943-14.6-3.06-6.934 0 0" transform="translate(839.517 833.345)"/>
		<path style="fill:#23261f;fill-opacity:1;fill-rule:nonzero;stroke:none" d="M0 0c-.098.039-2.373-1.572-3.96-2.07-1.587-.493-3.828-.547-5.615-.616 1.457-2.797 1.299-6.547-.357-9.502-1.655-2.954-6.562-3.271-6.562-3.271S-25.498-7.988-28.75-7.9c1.509-3.301 2.148-9.048 2.148-9.048s-5.752-3.023-10.798-1.621C-43.623-16.841-53.818-7.295-54.839.674a14.672 14.672 0 0 0-1.216-.449L-58.55.068c-4.077.791-6.391.782-7.607.635.005-.019.014-.029.019-.039.918-1.816 1.28-4.873-2.422-8.818l-3.432-2.705c-2.373-1.368-4.531-1.846-6.646-1.319-1.469.435-2.927.948-4.389 1.441l-65.879-344.292h90.063L7.773-6.88C3.137-4.424.603-.171 0 0" transform="translate(1074.883 462.295)"/>
	</g>
</svg>
