<svg xmlns="http://www.w3.org/2000/svg" style="isolation:isolate" viewBox="0 0 460.53 139.11" width="614.04" height="185.48">
	<defs>
		<clipPath id="a">
			<path d="M0 0h460.53v139.11H0z"/>
		</clipPath>
	</defs>
	<g clip-path="url(#a)" fill-rule="evenodd">
		<path d="M232.5 86.53h7.13V45.38h48.14v40.95l8.57.07V45.51l17.15-.13v40l7 .13V45.38h4.22v40.36l21.77-.14v-3.69l-14.25-.13v-41h-11.76v-2.26l9 .06s2.57-.46 2.77-2.31v-2.11l-29.41.07v4.35l10 .07-.07 2-16.42.07v-6.49l-65-.07v4.42h56.56l.06 2.18h-68.78v-2.11l9.49-.07v-4.42h-9.56v-3.69h-7.32l-.07 3.63-7.12.06-.06-3.56h-7.39l-.07 8 14.64.07.07 2.37H183.1l.07-2.76 10.29-.07v-4l-10.36-.07.07-3.69-8.24.07.07 3.58h-5.54l-.07-3.56-7.91.06-.06 7.92h13.45v2.11h-13.46v4.88h71.09v41.02Z" fill="#231815"/>
		<path d="M216.87 52.63c-6.2 1.25-13.72 1.12-23.61-2.24-9.63-2.77-21.11-1.19-23.81-.4a50.75 50.75 0 0 0-9.16 3.39l3.76 5.1s15.82-8.95 29.14-3c8.38 3.82 20.25 3.49 25.13 2.24 4.48-1.32 6.53-1.85 9.43-4.42a44.264 44.264 0 0 0-2.75-5.62s-1.93 3.7-8.13 4.95Z" fill="#231815"/>
		<path d="M224.98 76.05V59.56l-63.64-.07v16.56l8.44.06.07-11.34h47.48l-.06 11.28h7.71Z" fill="#231815"/>
		<path d="m209.55 86.46 15.63-.06.06-7.92-13.65-.06s-7.52.13-14.18-12.73c-5.93-.07-7.64 0-7.64 0s-3 11-13.33 12.79c-9.3-.06-15-.06-15-.06v7.85l15.82-.07s9.17-.46 16.69-10.35c7.22 8.9 13.05 10.35 15.6 10.61Z" fill="#231815"/>
		<path d="M282.15 51.58h-23.67v4.41h16.68l.08 25.13h-21.57V51.84l-7.59-.07.07 34.56h36V51.58Z" fill="#231815"/>
		<path d="M302.87 79.21c0 1.65-1.52 4.09-1.52 4.09s3 2.57 5 4.09a5.16 5.16 0 0 0 3.69-3.76V47.49h-7.24s.07 30.07.07 31.72Z" fill="#231815"/>
		<path d="M419.82 73.15c5.22-4 9.92-12.34 10.29-21.73H416l-.05-6h14V41l-14-.05V30.42h-7.13V41h-21.39V30.47h-6.81V41l-9.71.05-.05 4.65h9.71v13.9s-5.23 4.27-9 5.69c-.89.21-.58.48-3.85.27 0-1.32.06-35 .06-35l-7.78-.09v35.14h-26.07v5.81h26v14.17h7.71l-.06-14.9a8.86 8.86 0 0 0 6.86-2c3.09-2.31 6.06-4.55 6.06-4.55v21.4h7.19l-.13-25.19 7.19-5 26.44-.06s-1.25 9-8.44 14.24c-2.64-.92-6.6-5.14-9.29-12.86-4.82-.07-7.72 0-7.72 0s1 9 9.89 17.15c-2.17 1.78-4 3.62-11.34 3.56v9.3s8.24.59 18.59-8c7.19 7 18.38 8 18.38 8l.11-9.49s-5.8.92-11.6-4.15l.05.11Zm-11-21.68h-14.59L387.16 56V45.5l21.69-.11-.03 6.08Z" fill="#231815"/>
		<path d="m346.8 63.66 11.19-15.36-9.03-14.14-11.66.06 9.97 14.51-11.6 14.93h11.13Z" fill="#00A4AF"/>
		<path d="m167.05 98.53-6.27 15.78h2.47l1.9-4.7h6.49l1.64 4.75h2.63l-6.12-15.83h-2.74Zm-1.21 9.18 2.53-6.54 2.53 6.49-5.06.05Z" fill="#231815"/>
		<path d="M185 105.71v2h5.33l-.06 1.53s-.26 3.48-5.38 3.48c0 0-5.06-5-5-6.27 0 0-.21-6.07 5.28-6.49 4.22-.06 4.64 3.27 4.64 3.27h2.37S191.74 98 185.1 98c-6.44.42-7.55 5.59-7.71 6.86-.16 1.27-.9 8.91 5.91 9.81 5.27.64 6.7-1.84 7.28-2.53v2.22h2l-.06-8.55-7.52-.1Z" fill="#231815"/>
		<path d="M209.38 111.89v-3.17a2.38 2.38 0 0 0-2-2.08 4 4 0 0 0 2.51-3.72c0-1.36-.66-4-4.35-4.39h-9v15.78h2.32l.06-6.65 5.64-.06a2.12 2.12 0 0 1 2.38 1.7c0 2.16.1 4.8.79 5.06h2.58v-.48s-.93.31-.93-2v.01Zm-4.38-6.24h-6.1v-5.24h5.77a2.382 2.382 0 0 1 2.68 2.51 2.78 2.78 0 0 1-2.35 2.73Z" fill="#231815"/>
		<path d="m213.6 114.32 12.43.04-.03-1.88h-9.99v-5.24h9.2v-2.11l-9.24-.04.04-4.71h10.02v-1.85H213.6v15.79Z" fill="#231815"/>
		<path d="m241.83 100.38.03-1.85h-12.43v15.77l12.4.02.03-1.81-10.02-.03v-5.21l9.23-.03-.03-2.11-9.23-.04v-4.71h10.02Z" fill="#231815"/>
		<path d="m263.46 100.34 5.58.04v13.94l2.61.04.02-13.98h5.51V98.5l-13.69.03-.03 1.81Z" fill="#231815"/>
		<path d="m291.98 100.38-.03-1.88-12.33.03-.03 15.79 12.39.04-.03-1.85-10.02-.06.03-5.21h9.2l.03-2.11-9.26-.04.03-4.71h10.02Z" fill="#231815"/>
		<path d="M303.36 112.81a18.532 18.532 0 0 0-2 0 5.45 5.45 0 0 1-4.38-5.67c0-5 1.78-6.5 4-7 2.22-.5 5.11.32 5.8 3.1h2.47s-.59-5.41-7.42-5.28c-4.19.43-6.56 2.87-7.18 6.66-.34 2.08-.37 6.37 2.67 8.64 1.91 1.45 5.14 1.49 7 1.22a6.52 6.52 0 0 0 5-5.93h-2.3s-.56 3.77-3.66 4.26Z" fill="#231815"/>
		<path d="M323.38 98.5v6.63l-8.47-.04v-6.56l-2.39.03v15.76h2.41v-7.35h8.45v7.35h2.41l-.04-15.79-2.37-.03Z" fill="#231815"/>
		<path d="m340.69 110.93-8.31-12.37-2.71-.03v15.79h2.18v-12.36l8.41 12.36 2.6.04V98.5l-2.27.03.1 12.4Z" fill="#231815"/>
		<path d="m367.43 98.53-2.38.03.07 15.76h10.72l.03-1.81-8.44-.03V98.53Z" fill="#231815"/>
		<path d="M403.73 107.8h5.34a4.72 4.72 0 0 1-2 4.12c-1.95 1.32-6.46 1.42-7.76-1.54-1.48-3.77-1.19-9.78 3.57-10.3 5.27-.56 5.64 3.17 5.64 3.17h2.63s-.79-4.29-5-5c-6-1.06-8.37 2.73-8.37 2.73a5.657 5.657 0 0 0-1.29 2.47c-1.42 7.79 1.91 10.42 4.91 11 5.38 1.08 7.88-2.15 7.88-2.15v2.08h2v-8.47h-7.48l-.07 1.89Z" fill="#231815"/>
		<path d="m425.76 98.53-4.49 7.39-4.61-7.32-2.87-.04 6.13 9.41v6.39l2.65.03-.04-6.56 6.1-9.27-2.87-.03Z" fill="#231815"/>
		<path d="M380.52 99.55c-2.84 2.18-4.16 7.06-1.81 11.85 2.83 4.44 9.2 3.55 11.54 2.17s5.44-6.89 2.2-12.47c-4.81-5.17-10.8-2.24-11.93-1.55Zm6.4 13.2c-4.26.62-6.86-1.75-7.06-5.78 0 0-.52-4.15 2.74-6.1 3.26-1.95 7.22-.72 8.41 2.71 1.19 3.43.16 8.54-4.09 9.17Z" fill="#231815"/>
		<path d="M349 99.55c-2.84 2.18-4.16 7.06-1.81 11.85 2.83 4.44 9.2 3.55 11.54 2.17s5.44-6.89 2.21-12.47c-4.82-5.17-10.82-2.24-11.94-1.55Zm6.4 13.2c-4.25.62-6.86-1.75-7.06-5.78 0 0-.53-4.15 2.74-6.1 3.27-1.95 7.22-.72 8.41 2.71 1.19 3.43.11 8.54-4.14 9.17h.05Z" fill="#231815"/>
		<path d="M442.15 29.17a7.097 7.097 0 0 1 3.41.9 6.372 6.372 0 0 1 2.6 2.57 6.998 6.998 0 0 1 0 6.93 6.509 6.509 0 0 1-2.57 2.58 7 7 0 0 1-6.91 0 6.509 6.509 0 0 1-2.57-2.58 6.926 6.926 0 0 1-.92-3.45 7.002 7.002 0 0 1 .93-3.48 6.372 6.372 0 0 1 2.6-2.57 7.11 7.11 0 0 1 3.42-.9h.01Zm0 1.15a5.901 5.901 0 0 0-2.85.75 5.354 5.354 0 0 0-2.17 2.15 5.846 5.846 0 0 0-.78 2.9 5.755 5.755 0 0 0 .77 2.88 5.399 5.399 0 0 0 2.15 2.14 5.77 5.77 0 0 0 5.76 0 5.45 5.45 0 0 0 2.14-2.14 5.782 5.782 0 0 0 0-5.78 5.354 5.354 0 0 0-2.17-2.15 5.933 5.933 0 0 0-2.84-.75h-.01Zm-3 9.64h1.21v-3.18h.7c.353-.029.706.062 1 .26.523.498.95 1.088 1.26 1.74l.58 1.22h1.48l-.92-1.46a8.445 8.445 0 0 0-1.1-1.49 2.117 2.117 0 0 0-.63-.39 2.34 2.34 0 0 0 1.55-.68c.377-.38.586-.895.58-1.43a2.001 2.001 0 0 0-.35-1.1 1.873 1.873 0 0 0-.94-.72 6.24 6.24 0 0 0-1.9-.2h-2.57V40l.05-.04Zm1.21-4.21h1.46c.498.052.999-.056 1.43-.31a1 1 0 0 0 .38-.83 1 1 0 0 0-.69-1 3.687 3.687 0 0 0-1.21-.13h-1.37v2.27Z" fill="#231815"/>
		<path d="M121.7 26.75a5.42 5.42 0 0 1-3.52 1.73c.197.069.402.112.61.13.901.17 1.749.547 2.48 1.1 1.7 1.29 2.3 20.4 2.31 20.4.17-1.68.52-18.26 1.55-19.53.26-.329.562-.622.9-.87a6 6 0 0 1 2.89-1.17 2.413 2.413 0 0 0-.54-.16 5.65 5.65 0 0 1-2.48-1.07c-1.74-1.32-2.23-8.22-2.45-10.31 0 0-.45 8.1-1.75 9.75Z" fill="#00A4AF"/>
		<path d="m108 48 34 55.92c3.51 5.77 2.92 6.67-2.86 6.68H95.32c-7.61-1.42-13.39-7.07-16.18-10.36-1-1.16-1.51-2.21-.74-3.71l17.08-20.24c4-4.75 6.61-4.7 9.64.11l18.74 29.81c.91 1.33 2.23 1.22 3.62 1.22h5.58c1.89 0 2.37-1.67 1.4-3.18l-28.23-43.84c-3.68-5.7-6.12-6.5-11.18-.73l-43.21 49.58c-1.27 1.46.06 2.36 1.48 2.79a10.5 10.5 0 0 0 6.69-.13c3.83-1.26 8.25-4.24 11.74-7.1.58-.48 1.1-.67 1.69-.08 8.86 9 17.25 9.14 17.25 9.14h59.15c4.1-.56 5.2-4.32 3.22-7.68l-45.28-76.88c-4.32-7.32-6.84-6.43-11.85-.46L49.56 84s-10.41-3.21-19.44 0c-11.49 4.13-18.12 19.75-5.53 27.91 10.46 6.81 19.26-2.48 25.51-9.8 6.7-7.83 16.6-19.87 16.6-19.87l28.77-34.7c5.49-6.62 7.14-8.4 12.54.47L108 48ZM43.11 92.32l-6.8 8.26c-3.58 4.34-8.52 9.78-14.53 4-4.42-5.45.89-11.07 6-13.11 5.34-2.13 12.87-3.06 15.24-1.57 1.26.74.84 1.51.09 2.42Z" fill="#00A4AF"/>
	</g>
</svg>
