<svg xmlns="http://www.w3.org/2000/svg" width="200" height="128">
	<path d="m116.93 53.4.058-.067-.058.067a.383.383 0 0 0 .255.091h.577a.342.342 0 0 0 .248-.095.356.356 0 0 0 .107-.26v-3.2a1.667 1.667 0 0 1 .4-1.2 1.45 1.45 0 0 1 1.1-.434 1.347 1.347 0 0 1 1.076.42l.067-.058-.005.005-.062.053a1.749 1.749 0 0 1 .382 1.212v3.2a.383.383 0 0 0 .091.255l.009.009.058-.067-.058.067a.383.383 0 0 0 .255.091h.577a.342.342 0 0 0 .248-.095.356.356 0 0 0 .107-.26v-3.261a2.827 2.827 0 0 0-.646-1.941 2.231 2.231 0 0 0-1.788-.746 2.526 2.526 0 0 0-1.16.24 2.26 2.26 0 0 0-.656.507v-2.474a.32.32 0 0 0-.1-.241h-.006v-.006a.318.318 0 0 0-.242-.1h-.577a.356.356 0 0 0-.26.107.34.34 0 0 0-.095.247v7.672a.383.383 0 0 0 .091.255zm4.726-5.405zm-3.709-2.716zm-16.429 5.45.089.009zm13.78 1.8a1.9 1.9 0 0 0 .325-.916V51.6a.289.289 0 0 0-.095-.251.357.357 0 0 0-.253-.1h-.554a.326.326 0 0 0-.228.079.558.558 0 0 0-.136.211v.005a1.458 1.458 0 0 1-.519.752 1.541 1.541 0 0 1-.853.217 1.413 1.413 0 0 1-1.079-.411 1.956 1.956 0 0 1-.427-1.306l-.011-.39.011-.412a1.937 1.937 0 0 1 .427-1.294 1.413 1.413 0 0 1 1.079-.423 1.49 1.49 0 0 1 .852.227l.045-.067-.045.066a1.4 1.4 0 0 1 .519.741l.084-.029-.084.029v.005a.552.552 0 0 0 .142.22.358.358 0 0 0 .229.065h.554a.383.383 0 0 0 .255-.09.29.29 0 0 0 .1-.257 1.85 1.85 0 0 0-.325-.917 2.23 2.23 0 0 0-.888-.77 3.117 3.117 0 0 0-1.45-.31 2.711 2.711 0 0 0-2 .73 2.883 2.883 0 0 0-.766 2.013h.089-.088l-.011.462h.088-.088l.011.462h.086-.089a2.928 2.928 0 0 0 .765 2.023l.063-.063-.062.064a2.739 2.739 0 0 0 2 .719 3.063 3.063 0 0 0 1.45-.311 2.241 2.241 0 0 0 .879-.768zm-1.427-.152v-.006.006zm1.595-.959zm-.925-.023zm-3.165-.59zm0-.808zm.45-1.352zm3.709.554zm-.312-.878zm-.855 4.9.011.022zm9.3-2.438-.089.005a3.135 3.135 0 0 0 .8 2.067l.064-.061-.064.061a2.643 2.643 0 0 0 1.969.755 3.253 3.253 0 0 0 1.342-.262l-.036-.081.007.015.029.066a2.7 2.7 0 0 0 .919-.645 1.1 1.1 0 0 0 .345-.671.286.286 0 0 0-.1-.23.351.351 0 0 0-.23-.078h-.567a.488.488 0 0 0-.235.046.384.384 0 0 0-.081.067 1.271 1.271 0 0 0-.095.117l.068.051-.068-.051a1.669 1.669 0 0 1-.483.426 1.527 1.527 0 0 1-.819.2 1.291 1.291 0 0 1-1.051-.487 2.1 2.1 0 0 1-.432-1.231v-.022h3.909a.338.338 0 0 0 .248-.1.356.356 0 0 0 .107-.259v-.2a3.315 3.315 0 0 0-.726-2.253 2.883 2.883 0 0 0-4-.084l.063.062-.063-.062a3.153 3.153 0 0 0-.81 2.043l-.012.381v.005l.012.393zm3.535 1.676zm.289-3.825-.066.059a1.776 1.776 0 0 1 .408 1.181h-2.972a1.846 1.846 0 0 1 .388-1.183 1.48 1.48 0 0 1 2.175 0l.063-.056zm-2.306 0zm2.676 3.208zm-2.645.3zm-.452-1.282zm3.559-2.761.01-.008zm10.367 10.923a.584.584 0 0 1 .206.469v20.367a.677.677 0 0 1-.206.5.635.635 0 0 1-.469.176h-1.35a.613.613 0 0 1-.676-.675V67.617h-6.281v12.241a.681.681 0 0 1-.206.5.635.635 0 0 1-.469.176h-1.38a.613.613 0 0 1-.675-.675V67.617h-2.5a.613.613 0 0 1-.675-.675v-1a.634.634 0 0 1 .176-.47.678.678 0 0 1 .5-.2h2.5V63.8q0-4.991 5.049-4.99h1.643a.705.705 0 0 1 .676.675v1a.679.679 0 0 1-.206.5.632.632 0 0 1-.47.176H132.3a2.171 2.171 0 0 0-1.85.7 3.368 3.368 0 0 0-.528 2.084v1.321h6.278v-5.78a.635.635 0 0 1 .176-.469.683.683 0 0 1 .5-.206h1.35a.587.587 0 0 1 .468.206zm-15.73 6.457a.589.589 0 0 1 .206.47v1.2a.587.587 0 0 1-.206.469.631.631 0 0 1-.469.176h-1.761a3.312 3.312 0 0 0-2.5.94 3.373 3.373 0 0 0-.91 2.495v8.63a.68.68 0 0 1-.2.5.744.744 0 0 1-.5.176h-1.438a.613.613 0 0 1-.676-.675V65.973a.744.744 0 0 1 .176-.5.681.681 0 0 1 .5-.2h1.35a.7.7 0 0 1 .7.7v1.292a4.41 4.41 0 0 1 4.11-2h1.157a.586.586 0 0 1 .464.209zm57.039.406-.059.294L175.8 79.8a1.369 1.369 0 0 1-.352.558.928.928 0 0 1-.616.176h-1.145a.892.892 0 0 1-.969-.734l-3.403-10.51-3.405 10.51a.961.961 0 0 1-1 .734h-1.144a.88.88 0 0 1-.588-.176 1.379 1.379 0 0 1-.352-.558l-4.168-13.62-.059-.294a.6.6 0 0 1 .176-.44.668.668 0 0 1 .441-.176h1.291a.638.638 0 0 1 .47.176.672.672 0 0 1 .264.323l3.259 11.065 3.493-10.949a.793.793 0 0 1 .265-.411.751.751 0 0 1 .557-.2h1a.754.754 0 0 1 .558.2.791.791 0 0 1 .264.411l3.493 10.949 3.259-11.066a.674.674 0 0 1 .2-.323.742.742 0 0 1 .5-.176h1.321a.563.563 0 0 1 .411.176.6.6 0 0 1 .179.44zm-68.983-13.066-.062.064zm43.488 14.006a7.656 7.656 0 0 0-9.981 0 6.98 6.98 0 0 0-1.907 4.814l-.03 1.262.03 1.262a7.088 7.088 0 0 0 1.878 4.844 6.725 6.725 0 0 0 5.02 1.82 6.624 6.624 0 0 0 4.99-1.82 7.021 7.021 0 0 0 1.908-4.844q.03-.323.029-1.262t-.029-1.262a6.981 6.981 0 0 0-1.908-4.814zm-.91 7.191a5.114 5.114 0 0 1-1.174 3.376 3.712 3.712 0 0 1-2.906 1.174 3.8 3.8 0 0 1-2.936-1.174 5 5 0 0 1-1.144-3.376l-.03-1.115.03-1.115a5 5 0 0 1 1.144-3.376 3.8 3.8 0 0 1 2.936-1.174 3.712 3.712 0 0 1 2.906 1.174 5.112 5.112 0 0 1 1.174 3.376c.02.195.029.567.029 1.115s-.009.92-.024 1.115zM97.552 55.681h.565a.324.324 0 0 0 .248-.107.34.34 0 0 0 .093-.241v-2.469a2.331 2.331 0 0 0 1.782.738 2.277 2.277 0 0 0 1.884-.8 3.356 3.356 0 0 0 .677-2.011q.012-.133.012-.4t-.012-.4v-.005a3.324 3.324 0 0 0-.677-2.011 2.255 2.255 0 0 0-1.884-.8 2.3 2.3 0 0 0-1.8.753v-.283a.322.322 0 0 0-.1-.242v-.006a.318.318 0 0 0-.241-.1h-.531a.356.356 0 0 0-.26.107.338.338 0 0 0-.095.248v7.672a.335.335 0 0 0 .095.247.356.356 0 0 0 .244.11zm.909-5.688a2.1 2.1 0 0 1 .409-1.2 1.536 1.536 0 0 1 2.273.014 2.66 2.66 0 0 1 .387 1.585 3.217 3.217 0 0 1-.012.326l.089.009h-.089a2.26 2.26 0 0 1-.4 1.291 1.285 1.285 0 0 1-1.118.472 1.359 1.359 0 0 1-1.121-.476 1.834 1.834 0 0 1-.419-1.137l-.012-.447.012-.435zm-.085.885zm4.34-.092zm-4.448-3.316zm-.933 13.161a.915.915 0 0 0-.939-.646h-2a.913.913 0 0 0-.939.646l-7.28 18.992a1.157 1.157 0 0 0-.03.323.6.6 0 0 0 .587.587h1.5a.709.709 0 0 0 .47-.147.824.824 0 0 0 .264-.352l1.615-4.168h9.628l1.614 4.168a.92.92 0 0 0 .235.352.759.759 0 0 0 .5.147h1.5a.6.6 0 0 0 .587-.587l-.058-.323zm-5.9 12.71 3.965-10.42 3.963 10.42zm-2.294-19.855h.589a.368.368 0 0 0 .242-.078l-.058-.068.058.068a.42.42 0 0 0 .128-.175l.613-1.584h3.668L95 53.233a.435.435 0 0 0 .111.17l.063-.063-.063.062.006.006a.389.389 0 0 0 .254.078h.589a.326.326 0 0 0 .32-.32v-.016l-.023-.127v-.016l-.083.032.083-.032-2.857-7.474a.467.467 0 0 0-.171-.232.488.488 0 0 0-.282-.08h-.785a.486.486 0 0 0-.282.08.467.467 0 0 0-.171.232l-2.866 7.475.083.032-.082-.031a.526.526 0 0 0-.016.155.31.31 0 0 0 .095.225.314.314 0 0 0 .218.097zm1.977-3.008 1.431-3.764 1.431 3.764zm.665-4.916zm18.407 14.1a.68.68 0 0 1 .2.5v1.585a.678.678 0 0 1-.2.5.738.738 0 0 1-.5.177h-1.849a.614.614 0 0 1-.676-.676v-1.587a.744.744 0 0 1 .176-.5.682.682 0 0 1 .5-.2h1.849a.678.678 0 0 1 .5.201zm-.235 5.812a.589.589 0 0 1 .206.47v13.914a.681.681 0 0 1-.206.5.636.636 0 0 1-.47.176h-1.409a.613.613 0 0 1-.675-.675V65.944a.638.638 0 0 1 .176-.47.68.68 0 0 1 .5-.2h1.409a.587.587 0 0 1 .469.2zm-2.236-12.612v.269a.383.383 0 0 0 .091.255l.067-.058-.067.058.01.009a.381.381 0 0 0 .254.091h.531a.342.342 0 0 0 .248-.095.356.356 0 0 0 .107-.26v-3.743a2.192 2.192 0 0 0-.59-1.562 2.523 2.523 0 0 0-1.925-.64 2.883 2.883 0 0 0-1.322.275 2.083 2.083 0 0 0-.806.64l.068.047-.07-.049a1.309 1.309 0 0 0-.27.671h.089-.089a.361.361 0 0 0 .091.242l.009.01.058-.068-.058.068a.369.369 0 0 0 .243.09h.5a.283.283 0 0 0 .192-.068.387.387 0 0 0 .107-.169 1.339 1.339 0 0 1 .456-.466 1.363 1.363 0 0 1 .782-.2 1.421 1.421 0 0 1 .956.273 1.021 1.021 0 0 1 .307.816v.258l-1.645.232a3.621 3.621 0 0 0-1.752.665 1.6 1.6 0 0 0-.658 1.318 1.627 1.627 0 0 0 .293.94l.073-.05-.073.05a2.1 2.1 0 0 0 .808.652 2.5 2.5 0 0 0 1.089.24 2.744 2.744 0 0 0 1.278-.265 2.172 2.172 0 0 0 .618-.476zm-1.274-2.249.013.088 1.238-.182v.221a1.861 1.861 0 0 1-.46 1.359 1.7 1.7 0 0 1-2.014.23.725.725 0 0 1-.341-.642.7.7 0 0 1 .375-.607l-.046-.068v-.006l.049.074a2.941 2.941 0 0 1 1.2-.378l-.013-.088zm-1.283-3.074zm.46.83-.021-.033zm.441 1.5-.011-.084zm-1.709.647-.035-.046z" fill="#51504f"/>
	<path d="M48.962 87.4c-3.4-3.316-4.976-9.875 1.54-23.4-10.59 4.733-14.3 10.954-12.475 12.735z" fill="#04d659" fill-rule="evenodd"/>
	<path d="M52.042 40.6c3.4 3.316 4.976 9.875-1.54 23.4 10.589-4.732 14.3-10.953 12.475-12.734z" fill="#ff7557" fill-rule="evenodd"/>
	<path d="M81 34.148c-.159 11.471-1.03 25.17-7.1 31.392-3.3 3.383-9.829 4.952-23.241-1.472a.586.586 0 0 1 .029-.16c10.442-4.721 14.1-10.876 12.29-12.646l-.027-.026 17.069-17.5a.573.573 0 0 1 .98.412z" fill="#00c7d4"/>
	<path d="M73.9 65.54c-3.315 3.4-9.875 4.976-23.4-1.54 4.732 10.59 10.953 14.3 12.734 12.475z" fill="#11e1ee" fill-rule="evenodd"/>
	<path d="m38.053 76.76-17.069 17.5a.573.573 0 0 1-.984-.408c.16-11.471 1.03-25.17 7.1-31.392l10.551-10.816L27.1 62.46c3.3-3.385 9.828-4.958 23.246 1.468a.58.58 0 0 1-.03.16c-10.442 4.722-14.1 10.876-12.289 12.646z" fill="#017cee"/>
	<path d="M80.354 94.5c-11.471-.159-25.17-1.03-31.392-7.1-3.385-3.3-4.956-9.828 1.469-23.244a.579.579 0 0 1 .159.029c4.722 10.443 10.877 14.105 12.647 12.29l.026-.027 17.5 17.07a.572.572 0 0 1-.409.982z" fill="#00ad46"/>
	<path d="M27.1 62.46c3.316-3.4 9.875-4.976 23.4 1.54-4.73-10.59-10.951-14.3-12.732-12.475z" fill="#0cb6ff" fill-rule="evenodd"/>
	<path d="M50.573 63.844a.579.579 0 0 1-.159-.029c-4.721-10.442-10.876-14.1-12.646-12.29l-.026.027-17.5-17.07a.572.572 0 0 1 .405-.983c11.472.159 25.171 1.03 31.393 7.1 3.387 3.301 4.96 9.827-1.467 23.245z" fill="#e43921"/>
	<path d="M50.49 62.69a1.306 1.306 0 1 1-1.29 1.322 1.306 1.306 0 0 1 1.29-1.322z" fill="#4a4848"/>
</svg>
