<svg xmlns="http://www.w3.org/2000/svg" width="200" height="128">
	<g fill="#0099cb">
		<path d="M53.074 95.162a32.534 32.534 0 0 1 .435-62.449c1.4-.408 1.03-1.313-.653-1.313a32.6 32.6 0 1 0 0 65.2c1.683 0 1.751-.97.218-1.438"/>
		<path d="M36.117 71.639A25.9 25.9 0 0 1 61.867 43.1c13.517 0 17.574 6.033 18.077 5.639.549-.434-4.905-12.39-20.776-12.39A25.89 25.89 0 0 0 35.03 71.591c.476 1.218 1.208 1.229 1.087.048"/>
		<path d="M46.959 52.986c6.728-2.932 15.179-3.021 23.488-.118 5.58 1.947 8.814 4.726 9.078 4.612.441-.19-3.246-6.029-9.9-8.552a23.692 23.692 0 0 0-23.056 3.5c-.7.547-.433.914.39.555"/>
	</g>
	<path d="M180 65.16a3.4 3.4 0 1 1-3.4-3.393 3.4 3.4 0 0 1 3.4 3.393M69.047 84.252l.4 4.535h7.183l-2.419-26.394H63.516L49.994 88.787h7.315l2.271-4.535zm-.317-5.143h-6.556l5.642-11.435h.064zm17.913-1.862h1.052l5.14-6.938h6.655l-7.102 8.873 4.357 9.606h-7.067l-2.838-7.5h-1.058l-1.597 7.5h-6.046l5.604-26.396h6.056l-3.156 14.855zm22.282 11.541h6.051l2.452-11.541c1.345-6.374-1.092-7.149-7.281-7.149-4.322 0-8.5-.037-9.727 5.7h6.057c.343-1.659 1.369-2 2.886-2 2.633 0 2.516 1.093 2.144 2.807l-.614 2.929h-.281c-.23-2.113-2.878-2.082-4.6-2.082-4.368 0-6.971 1.372-7.922 5.813-.99 4.71 1.249 5.735 5.47 5.735 2.115 0 4.945-.418 5.946-2.962h.207zm-1.687-7.637c1.974 0 3.274.137 2.948 1.687-.416 1.935-1.251 2.256-3.784 2.256-.923 0-2.637 0-2.215-2.007.361-1.7 1.566-1.936 3.051-1.936m19.954-10.842-.554 2.6h.246c1.2-2.182 3.592-2.815 5.667-2.815 2.605 0 5.178.454 4.819 3.626h.283c.888-2.634 3.586-3.626 5.91-3.626 4.265 0 6.068 1.761 5.158 6.061l-2.694 12.629h-6.047l2.277-10.7c.295-1.928.641-3.342-1.722-3.342s-3.144 1.57-3.564 3.551l-2.233 10.492h-6.051l2.379-11.185c.291-1.693.429-2.852-1.683-2.852-2.5 0-3.24 1.338-3.7 3.551l-2.239 10.492h-6.054l3.936-18.479zm32.732 18.479h6.051l2.454-11.541c1.352-6.374-1.079-7.149-7.27-7.149-4.338 0-8.525-.037-9.732 5.7h6.056c.343-1.659 1.378-2 2.875-2 2.647 0 2.515 1.093 2.166 2.807l-.631 2.929h-.283c-.225-2.113-2.87-2.082-4.589-2.082-4.365 0-6.979 1.372-7.921 5.813-1 4.709 1.244 5.732 5.466 5.732 2.115 0 4.945-.418 5.949-2.962h.207zm-1.677-7.637c1.959 0 3.271.137 2.947 1.687-.408 1.935-1.25 2.256-3.791 2.256-.915 0-2.638 0-2.211-2.007.362-1.7 1.57-1.936 3.055-1.936m16.45 7.636h-6.043l3.916-18.479h6.059l-3.932 18.479z" fill="#f93"/>
</svg>
