<svg xmlns="http://www.w3.org/2000/svg" width="200" height="128">
	<path d="M46.442 88.875A25.982 25.982 0 0 1 46.771 39c1.116-.331.827-1.033-.535-1.033a26.032 26.032 0 1 0 0 52.062c1.362 0 1.444-.785.206-1.156" fill="#09c" opacity=".65"/>
	<path d="M32.911 70.064a18.1 18.1 0 0 1-.124-2.1 20.652 20.652 0 0 1 20.669-20.671c10.807 0 14.024 4.827 14.437 4.5.454-.329-3.919-9.9-16.584-9.9a20.65 20.65 0 0 0-20.666 20.663 20.368 20.368 0 0 0 1.4 7.466c.371.991.949.991.866.042" fill="#09c" opacity=".65"/>
	<path d="M41.575 55.172c5.362-2.351 12.128-2.433 18.769-.082 4.455 1.567 7.055 3.795 7.261 3.671.371-.165-2.6-4.827-7.921-6.849a18.9 18.9 0 0 0-18.4 2.807c-.578.453-.371.742.289.453" fill="#09c" opacity=".65"/>
	<g fill="#09c">
		<path d="m44.447 70.9 3.33-10.165a.833.833 0 0 1 1.581-.009L56 80.307l3.084-8.665a.833.833 0 0 1 .785-.554h8.061a15.647 15.647 0 0 0-31.1-1.6c-.071.474-.117.946-.146 1.416z"/>
		<path d="m60.452 72.755-3.692 10.37a.831.831 0 0 1-.785.554h-.006a.833.833 0 0 1-.783-.566l-6.6-19.481L45.843 72a.834.834 0 0 1-.792.574h-8.385a15.646 15.646 0 0 0 31.1 1.6c.072-.475.118-.947.146-1.416z"/>
	</g>
	<path d="M90.019 66.94a6.259 6.259 0 0 0-.565-3.109 2.09 2.09 0 0 0-1.936-.916 8.733 8.733 0 0 0-.884.046q-.458.046-.885.106v12.381h-4.543V59.957q.579-.151 1.357-.32t1.647-.3q.869-.137 1.783-.213c.61-.05 1.21-.077 1.8-.077a7.556 7.556 0 0 1 2.82.443 6.4 6.4 0 0 1 1.787 1.047 7.8 7.8 0 0 1 2.241-1.1 7.887 7.887 0 0 1 2.332-.4 8.022 8.022 0 0 1 3.156.534 4.761 4.761 0 0 1 1.967 1.51A5.7 5.7 0 0 1 103.1 63.4a14.88 14.88 0 0 1 .275 2.989v9.056h-4.544V66.94a6.272 6.272 0 0 0-.564-3.109 2.092 2.092 0 0 0-1.937-.916 4.053 4.053 0 0 0-1.021.184 3.981 3.981 0 0 0-1.083.456 6.985 6.985 0 0 1 .275 1.48q.06.777.061 1.661v8.752h-4.543zm23.356-12.868q4.726 0 7.257 1.663t2.531 5.442q0 3.813-2.561 5.5t-7.318 1.693h-1.494v7.074h-4.757V54.622a26.927 26.927 0 0 1 3.293-.427q1.739-.123 3.049-.123zm.305 4.056q-.519 0-1.021.031c-.336.02-.625.041-.869.06v6.1h1.494a8.1 8.1 0 0 0 3.72-.67 2.576 2.576 0 0 0 1.25-2.5 3 3 0 0 0-.32-1.464 2.438 2.438 0 0 0-.915-.93 4.122 4.122 0 0 0-1.448-.488 11.908 11.908 0 0 0-1.891-.139zM139.294 74.9a25.475 25.475 0 0 1-2.988.625 24.584 24.584 0 0 1-3.843.289 9.093 9.093 0 0 1-3.4-.549 5.152 5.152 0 0 1-2.15-1.539 6 6 0 0 1-1.128-2.363 12.64 12.64 0 0 1-.336-3.019v-8.935h4.543v8.385a6.488 6.488 0 0 0 .58 3.171 2.3 2.3 0 0 0 2.165.976c.325 0 .671-.016 1.036-.046s.692-.066.976-.107V59.409h4.544zm9.906.852a11.34 11.34 0 0 1-3.216-.426 4.763 4.763 0 0 1-1.952-1.113 3.685 3.685 0 0 1-.976-1.738 9.372 9.372 0 0 1-.259-2.3V52.517l4.543-.732v17.472a5.991 5.991 0 0 0 .092 1.1 1.893 1.893 0 0 0 .35.823 1.866 1.866 0 0 0 .747.548 4.059 4.059 0 0 0 1.311.275zm7.077-3.567a4.53 4.53 0 0 0 1.769-.244.943.943 0 0 0 .518-.945 1.16 1.16 0 0 0-.67-.961 12.814 12.814 0 0 0-2.043-.929q-1.068-.4-1.937-.824a5.749 5.749 0 0 1-1.479-1.021 4.149 4.149 0 0 1-.945-1.418 5.248 5.248 0 0 1-.335-1.982 4.287 4.287 0 0 1 1.677-3.568 7.3 7.3 0 0 1 4.6-1.311 14.84 14.84 0 0 1 2.806.259 13.123 13.123 0 0 1 2.134.564l-.793 3.538a16.388 16.388 0 0 0-1.723-.488 9.375 9.375 0 0 0-2.088-.214q-2.135 0-2.135 1.19a1.217 1.217 0 0 0 .092.486 1.043 1.043 0 0 0 .365.413 5.16 5.16 0 0 0 .747.428q.472.231 1.2.508a18.538 18.538 0 0 1 2.47 1.091 5.94 5.94 0 0 1 1.54 1.161 3.6 3.6 0 0 1 .793 1.384 6.171 6.171 0 0 1 .228 1.765 4.065 4.065 0 0 1-1.784 3.591 8.9 8.9 0 0 1-5.046 1.217 14.3 14.3 0 0 1-5.519-.976l.762-3.69a14.779 14.779 0 0 0 2.379.716 11.475 11.475 0 0 0 2.417.26zm8.66-4.635a9.807 9.807 0 0 1 .655-3.735 8 8 0 0 1 1.723-2.668 7.179 7.179 0 0 1 2.455-1.617 7.7 7.7 0 0 1 2.85-.548 7.086 7.086 0 0 1 5.4 2.089q1.98 2.088 1.98 6.144c0 .264-.011.554-.031.869s-.041.594-.061.838H169.6a3.014 3.014 0 0 0 1.311 2.226 5.267 5.267 0 0 0 3.11.823 13.168 13.168 0 0 0 2.455-.228 9.351 9.351 0 0 0 1.967-.564l.61 3.69a6.418 6.418 0 0 1-.976.365 12.676 12.676 0 0 1-1.357.32q-.747.136-1.6.229a16.018 16.018 0 0 1-1.707.092 10.1 10.1 0 0 1-3.766-.641A7.327 7.327 0 0 1 167 73.481a6.958 6.958 0 0 1-1.555-2.637 10.44 10.44 0 0 1-.508-3.294zm10.672-1.738a4.714 4.714 0 0 0-.2-1.128 2.813 2.813 0 0 0-.519-.976 2.777 2.777 0 0 0-.884-.7 2.868 2.868 0 0 0-1.326-.275 3.046 3.046 0 0 0-1.312.26 2.713 2.713 0 0 0-.914.686 3.076 3.076 0 0 0-.564.99 6.483 6.483 0 0 0-.29 1.144z" fill="#09c"/>
</svg>
