<svg xmlns="http://www.w3.org/2000/svg" xmlns:xlink="http://www.w3.org/1999/xlink" viewBox="0 0 102 42" fill="#fff" fill-rule="evenodd" stroke="#000" stroke-linecap="round" stroke-linejoin="round"><use xlink:href="#A" x=".5" y=".5"/><symbol id="A" overflow="visible"><g stroke="none" fill-rule="nonzero"><path d="M30.323 30.001h-3.87L30 22.905zm.323 3.226l.323 2.903h4.516L33.87 19.679h-6.774L18.7 36.13h4.516l1.3-2.903zm10.968-1.935h-.645L40 36.13h-3.87l3.548-16.452h3.87l-1.935 9.032h.645l3.226-4.194h4.194L45.162 30l2.58 6.13h-4.194zm12.903 0c1.3 0 1.935 0 1.935.968-.323 1.3-.645 1.3-2.258 1.3-.645 0-1.613 0-1.3-1.3-.323-.968.645-.968 1.613-.968zm.968 4.84h3.87l1.613-7.097c.968-3.87-.645-4.516-4.516-4.516-2.58 0-5.16 0-6.13 3.548h3.87c.323-.968.968-1.3 1.935-1.3 1.613 0 1.613.645 1.3 1.613l-.323 1.935h-.323c0-1.3-1.935-1.3-2.903-1.3-2.58 0-4.194.968-4.84 3.548-.645 2.903.645 3.548 3.548 3.548 1.3 0 3.226-.323 3.548-1.935zm11.3-11.613l-.323 1.613c.645-1.3 2.258-1.613 3.548-1.613 1.613 0 3.226.323 2.903 2.258h.323c.645-1.613 2.258-2.258 3.548-2.258 2.58 0 3.87.968 3.226 3.87l-1.613 7.742h-3.87l1.3-6.774c.323-1.3.323-1.935-.968-1.935-1.613 0-1.935.968-2.258 2.258l-1.3 6.452h-3.548l1.613-7.097c.323-.968.323-1.935-.968-1.935-1.613 0-1.935.968-2.258 2.258l-1.3 6.452h-3.87l2.58-11.613h3.226zm19.355 6.774c1.3 0 1.935 0 1.935.968-.323 1.3-.645 1.3-2.258 1.3-.645 0-1.613 0-1.3-1.3 0-.968.645-.968 1.613-.968zm1.3 4.84h3.87l1.613-7.097c.968-3.87-.645-4.516-4.516-4.516-2.58 0-5.16 0-6.13 3.548h3.87c.323-.968.968-1.3 1.935-1.3 1.613 0 1.613.645 1.3 1.613l-.323 1.935H88.7c0-1.3-1.935-1.3-2.903-1.3-2.58 0-4.516.968-4.84 3.548-.645 2.903.645 3.548 3.548 3.548 1.3 0 3.226-.323 3.548-1.935zm9.032 0h-3.87l2.58-11.613h3.87zm2.903-13.548h-3.87l.645-2.903H100z" fill="#f7971d"/><path d="M20.645 40.001C12.258 37.42 6.13 29.679 6.13 20.645c0-9.355 6.13-17.097 14.84-19.677.968-.323.645-.968-.323-.968C9.032.325 0 9.355 0 20.645s9.032 20.323 20.645 20.323c.968 0 .968-.645 0-.968zM10 25.162v-1.613A15.97 15.97 0 0 1 26.129 7.42c8.387 0 10.968 3.87 11.3 3.548s-2.903-7.742-12.903-7.742A15.97 15.97 0 0 0 8.397 19.355c0 1.935.323 3.87.968 5.806.323.968.645.968.645 0zm6.774-11.613c4.194-1.935 9.355-1.935 14.516 0 3.548 1.3 5.484 2.903 5.806 2.903s-1.935-3.87-6.13-5.484C25.806 9.033 20.643 10 16.45 13.226c-.323.323 0 .645.323.323z" fill="#0095d6"/></g></symbol></svg>