<svg xmlns="http://www.w3.org/2000/svg" viewBox="-3.87 -3.87 201.24 58.99">
	<path fill="#e8262a" d="M124.662 50.601h-7.27c-.03-.564-.08-1.071-.081-1.578q-.008-10.245 0-20.491a17.167 17.167 0 0 1 16.031-16.738c8-.516 16.16 6.328 17.274 14.518a22.756 22.756 0 0 1 .123 3q.015 9.744 0 19.487v1.769h-7.355v-1.716c0-6.783.086-13.567-.038-20.347a9.439 9.439 0 0 0-9.421-9.363 9.593 9.593 0 0 0-9.262 9.715c-.018 6.639 0 13.279 0 19.918zm68.949-19.57a19.891 19.891 0 0 0-23.288-18.976c-9.322 1.584-17.859 10.8-16.17 22.313 1.08 7.36 5.027 12.709 11.8 15.536 6.745 2.818 13.264 1.812 19.114-2.747.317-.248.66-.464 1.222-.856v4.268h7.267a5.344 5.344 0 0 0 .088-.634c0-6.298.152-12.608-.033-18.904zm-19.929 13.047a12.468 12.468 0 0 1 .116-24.935 12.718 12.718 0 0 1 12.485 12.541 12.638 12.638 0 0 1-12.601 12.394zM39.757 31.912c.146-11.686-9.694-19.375-18.024-20.066-13.247-1.1-24.119 10.87-21.279 23.9 3.227 14.8 19.981 20.3 30.894 11.257.24-.2.52-.348 1.06-.7v4.278h7.336v-1.63c0-5.68-.058-11.36.013-17.039zm-19.9 12.167a12.468 12.468 0 1 1 .1-24.936A12.715 12.715 0 0 1 32.38 31.605a12.624 12.624 0 0 1-12.52 12.474zm94.144-12.642a19.806 19.806 0 1 0-39.183 4.241 19.031 19.031 0 0 0 30.609 11.53c.319-.252.651-.488 1.208-.905v4.27h7.367v-1.654l-.001-17.482zM94.119 44.079a12.469 12.469 0 0 1 .1-24.936 12.468 12.468 0 1 1-.1 24.936z"/>
	<path fill="#e8262a" d="m59.508 31.371 18.89-18.874c-3.027 0-5.885-.064-8.736.043a3.629 3.629 0 0 0-2.211.921c-4.788 4.663-9.505 9.4-14.249 14.1-.337.334-.718.624-1.336 1.156v-2.1c0-8.355-.02-16.709.024-25.064.005-.991-.213-1.472-1.031-1.542v-.016h-5.111c-1 .011-1.266.493-1.263 1.622q.061 23.7.03 47.406c0 .5.052 1.011.08 1.529h7.271V38.937l1.851-1.391c.232-.2.489-.388.761-.58l3.788 3.732q3.2 3.177 6.425 6.33l.109.107q1.344 1.311 2.7 2.615a3.463 3.463 0 0 0 2.087.876c2.574.1 5.155.046 7.733.035a10.712 10.712 0 0 0 1.219-.17Z"/>
</svg>
