<svg width="2338" height="2741" xmlns="http://www.w3.org/2000/svg" xmlns:xlink="http://www.w3.org/1999/xlink">
	<defs>
		<path id="a" d="M669.62 1145.63.196 758.86V.795l669.422 391.51z"/>
		<path id="c" d="m668.321.09 668.464 391.628-668.464 391.63L.568 392.105z"/>
	</defs>
	<g fill="none" fill-rule="evenodd">
		<path d="M921.447 2367.976H856.06l-17.504 58.068h-44.852l84.498-251.092h21.625l84.498 251.092h-45.653l-17.225-58.068Zm-55.61-32.437h45.987l-22.81-76.89-23.176 76.89Zm204.989 6.007-14.817 14.817v69.68h-46.054v-268.711h49.257v3.604c-1.335 1.602-2.202 3.337-2.603 5.206-.4 1.87-.6 5.073-.6 9.611v131.353l71.282-68.88c2.136.267 4.405.6 6.808 1.001 2.403.4 4.806.734 7.208 1.001 2.403.267 4.806.467 7.209.6 2.403.134 4.405.201 6.007.201h21.625l-74.086 72.484 84.097 112.13-51.66 2.003-63.673-86.1Zm196.63-71.74a52.61 52.61 0 0 1 1.633-3.147c3.604-6.408 8.143-12.014 13.616-16.82 5.473-4.805 11.48-8.41 18.02-10.812a58.204 58.204 0 0 1 20.224-3.604c10.412 0 19.823 1.668 28.233 5.005 8.41 3.338 16.219 8.744 23.427 16.22l-19.222 38.043-1.202 3.204-3.604-1.602a361.23 361.23 0 0 1-2.403-6.607c-.8-2.27-2.803-4.873-6.007-7.81-3.737-2.936-7.675-5.206-11.813-6.807-4.138-1.602-8.61-2.403-13.416-2.403-6.407 0-12.548 1.068-18.421 3.203-5.874 2.136-11.013 5.473-15.418 10.012-4.405 4.539-7.876 10.345-10.412 17.42-2.536 7.075-3.805 15.418-3.805 25.03v97.713h-46.053v-186.216h46.854l-.23 29.977Zm134.504 156.238v-35.642h45.653V2275.47h-43.25v-35.641h88.903v150.574h41.648v35.642H1401.96Zm66.477-217.052c-7.743 0-14.417-2.67-20.023-8.01-5.607-5.339-8.41-11.746-8.41-19.222 0-8.009 2.67-14.55 8.01-19.622 5.339-5.073 12.146-7.61 20.423-7.61 7.475 0 14.083 2.67 19.823 8.01s8.61 11.747 8.61 19.222c0 7.476-2.87 13.883-8.61 19.223-5.74 5.34-12.348 8.009-19.823 8.009Z" fill="#3E446F"/>
		<g transform="rotate(180 583.352 960.384)">
			<mask id="b" fill="#fff">
				<use xlink:href="#a"/>
			</mask>
			<use fill="#78FFC9" xlink:href="#a"/>
			<path fill="#3E446F" fill-rule="nonzero" mask="url(#b)" d="M456.61 887.366V510.958l-467.252-278.01V640.82l10.273 4.404 105.287 64.923v142.968l124.97 56.678V640.819l-126.66-79.07V441.806l237.818 140.9V970.16l344.845 199.185V378.531L-4.13-16.971v136.844l3.76 6.997 559.052 329.404v489.367z"/>
		</g>
		<g transform="rotate(180 916.578 583.411)">
			<mask id="d" fill="#fff">
				<use xlink:href="#c"/>
			</mask>
			<use fill="#FFF" xlink:href="#c"/>
			<path fill="#3E446F" fill-rule="nonzero" mask="url(#d)" d="M1336.046 391.502 668.518 783.278.486 392.026l119.382-70.63L668.29 642.428l562.068-328.051L907.133 128.47l-9.83 5.58-228.785 126.582-124.83-76.168-108.285 63.134 233.115 133.89 227.875-128.475 124.659 73.78-351.624 198.834-455.552-261.816L572.961 54.595l97.376 60.47 148.57-80.132 554.373 310.68z"/>
		</g>
		<g fill-rule="nonzero">
			<path fill="#8CCFCE" d="m1165.863 1919.463 666.486-393.288v-750.46l-666.486 391.232z"/>
			<path fill="#524886" d="M1713.614 844.3v398.844l-339.904 192.454v-126.127l241.993-136.277v-271.72L1494.35 972.45v131.874l-229.564 133.006v391.89l567.495-325.147.375-529.571z"/>
			<path fill="#524886" d="M1165.936 1919.83v-125.698l666.798-388.638.57 120.356z"/>
		</g>
	</g>
</svg>
