<svg xmlns="http://www.w3.org/2000/svg" height="290.432" width="1067.333" xml:space="preserve">
	<defs>
		<clipPath id="a" clipPathUnits="userSpaceOnUse">
			<path d="M0 217.824h800.5V0H0Z"/>
		</clipPath>
	</defs>
	<g clip-path="url(#a)" transform="matrix(1.33333 0 0 -1.33333 0 290.432)">
		<path style="fill:#3cafe4;fill-opacity:1;fill-rule:nonzero;stroke:none" d="M0 0v-65.926h-28.953V.479c.116 20.249-16.21 36.752-36.453 36.864-16.406.089-30.344-10.611-35.113-25.442l-10.909-5.378 9.169-7.616c.982-18.082 7.371-48.37 60.247-64.833h-24.27c-36.42.199-65.777 30.235-65.574 66.642.199 36.411 29.875 65.767 66.289 65.568C-29.157 66.09.194 36.411 0 0" transform="translate(324.776 107.424)"/>
		<path style="fill:#3cafe4;fill-opacity:1;fill-rule:nonzero;stroke:none" d="M0 0a7.617 7.617 0 0 0-7.661-7.59c-4.209.027-7.611 3.461-7.582 7.676.016 4.208 3.454 7.607 7.664 7.583A7.611 7.611 0 0 0 0 0" transform="translate(251.064 104.83)"/>
		<path style="fill:#9f9fa0;fill-opacity:1;fill-rule:nonzero;stroke:none" d="M378.304 83.598h7.624V41.227h-7.624z"/>
		<path style="fill:#9f9fa0;fill-opacity:1;fill-rule:nonzero;stroke:none" d="M0 0c0-7.567-6.557-13.642-13.466-13.642-6.971 0-13.465 6.075-13.465 13.642v12.75h7.625V.182c0-1.789.657-3.459 1.611-4.648 1.19-1.253 2.741-1.966 4.229-1.966 1.489 0 3.035.713 4.171 1.966C-8.283-3.277-7.628-1.607-7.628.182V12.75H0Z" transform="translate(452.985 54.868)"/>
		<path style="fill:#9f9fa0;fill-opacity:1;fill-rule:nonzero;stroke:none" d="M0 0c0 7.567 6.556 13.642 13.467 13.642 6.971 0 13.464-6.075 13.464-13.642v-12.75h-7.628V-.18c0 1.787-.654 3.457-1.608 4.646-1.193 1.255-2.739 1.966-4.228 1.966-1.488 0-3.039-.711-4.175-1.966C8.28 3.277 7.627 1.607 7.627-.18v-12.57H0Z" transform="translate(576.731 53.817)"/>
		<path style="fill:#9f9fa0;fill-opacity:1;fill-rule:nonzero;stroke:none" d="M0 0a6.447 6.447 0 0 1 4.71-2.027c1.787 0 3.512.715 4.762 2.027a7.185 7.185 0 0 1 1.968 4.943c0 1.852-.715 3.575-1.968 4.944a6.567 6.567 0 0 1-4.762 2.03A6.45 6.45 0 0 1 0 9.887c-1.25-1.369-1.963-3.092-1.963-4.944C-1.963 3.097-1.25 1.312 0 0m13.289-4.826a13.674 13.674 0 0 0-9.533-3.872c-7.509 0-13.583 6.074-13.583 13.641 0 7.506 6.074 13.643 13.583 13.643 3.693 0 7.088-1.489 9.533-3.87v18.957h7.026V-7.863h-7.026z" transform="translate(468.332 49.925)"/>
		<path style="fill:#9f9fa0;fill-opacity:1;fill-rule:nonzero;stroke:none" d="M0 0c-1.311-1.312-2.918-2.027-4.77-2.027-1.722 0-3.454.715-4.642 2.027-1.374 1.37-2.028 3.1-2.028 5.006 0 1.847.654 3.631 2.028 4.943 1.188 1.369 2.92 2.087 4.642 2.087 1.852 0 3.459-.718 4.77-2.087 1.252-1.312 1.906-3.037 1.906-4.887C1.906 3.156 1.252 1.37 0 0m9.412 5.006c0 7.506-6.315 13.584-14.239 13.584-7.863 0-14.179-6.078-14.179-13.584 0-7.569 6.316-13.585 14.179-13.585 2.945 0 5.664.835 7.924 2.262v-1.546h6.315z" transform="translate(513.518 49.647)"/>
		<path style="fill:#9f9fa0;fill-opacity:1;fill-rule:nonzero;stroke:none" d="M0 0c-1.312-1.31-2.92-2.027-4.767-2.027-1.729 0-3.457.717-4.647 2.027-1.371 1.369-2.025 3.099-2.025 5.006 0 1.846.654 3.631 2.025 4.943 1.19 1.369 2.918 2.087 4.647 2.087 1.847 0 3.455-.718 4.767-2.087 1.251-1.312 1.906-3.035 1.906-4.887C1.906 3.156 1.251 1.369 0 0m9.412 5.006c0 7.505-6.314 13.584-14.238 13.584-7.865 0-14.179-6.079-14.179-13.584 0-7.569 6.314-13.585 14.179-13.585 2.944 0 5.666.835 7.924 2.262v-1.546h6.314z" transform="translate(410.81 49.806)"/>
		<path style="fill:#9f9fa0;fill-opacity:1;fill-rule:nonzero;stroke:none" d="M0 0c-1.31-1.31-2.92-2.027-4.767-2.027-1.727 0-3.456.717-4.647 2.027-1.368 1.369-2.024 3.099-2.024 5.006 0 1.846.656 3.631 2.024 4.943 1.191 1.369 2.92 2.087 4.647 2.087 1.847 0 3.457-.718 4.767-2.087 1.25-1.312 1.906-3.035 1.906-4.887C1.906 3.156 1.25 1.369 0 0m9.413 5.006c0 7.505-6.316 13.584-14.237 13.584-7.866 0-14.181-6.079-14.181-13.584 0-7.569 6.315-13.585 14.181-13.585 2.942 0 5.662.835 7.921 2.262v-1.546h6.316z" transform="translate(362.919 49.806)"/>
		<path style="fill:#9f9fa0;fill-opacity:1;fill-rule:nonzero;stroke:none" d="M0 0a7.053 7.053 0 0 0-1.083-1.577c-1.312-1.312-2.92-2.027-4.767-2.027l-.028.003-.029-.003c-1.847 0-3.454.715-4.767 2.027-1.25 1.372-1.906 3.156-1.906 5.062 0 1.85.656 3.575 1.906 4.887 1.313 1.369 2.92 2.087 4.767 2.087l.029-.002.028.002c1.847 0 3.455-.718 4.767-2.087.224-.236.42-.488.605-.747h8.107C5.791 13.063.485 16.997-5.878 17.009c-6.846-.014-12.478-4.562-13.87-10.648-.015-.07-.039-.128-.053-.194-.013-.074-.022-.154-.035-.225a13.122 13.122 0 0 1-.25-2.513c0-4.763 2.503-8.907 6.315-11.327v.003a15.255 15.255 0 0 1 1.898-1.006c.252-.107.508-.217.767-.314.085-.031.171-.057.255-.089a15.734 15.734 0 0 1 1.527-.446c.104-.024.206-.051.309-.075.228-.048.462-.084.696-.123a9.56 9.56 0 0 1 .588-.084c.201-.025.402-.049.605-.067.349-.026.698-.044 1.054-.048.063 0 .13-.007.194-.009.068.002.13.009.196.009.354.004.703.022 1.052.048.203.018.404.042.606.067.198.021.392.051.586.084.235.039.469.075.697.123.103.024.207.051.308.075.524.124 1.03.274 1.527.446.084.032.17.058.257.089.257.097.511.207.766.314l.284.131a15.3 15.3 0 0 1 1.616.875v-.003C4.879-6.081 7.002-3.291 7.881 0Z" transform="translate(562.782 51.224)"/>
		<path style="fill:#9f9fa0;fill-opacity:1;fill-rule:nonzero;stroke:none" d="M0 0a4.415 4.415 0 0 0-8.831 0A4.416 4.416 0 0 0 0 0" transform="translate(537.389 45.48)"/>
		<path style="fill:#9f9fa0;fill-opacity:1;fill-rule:nonzero;stroke:none" d="M0 0h64.971v6.245c0 1.99-1.539 3.527-3.53 3.527H0v6.154h61.441c5.248 0 9.681-4.433 9.681-9.681v-18.1c0-5.336-4.433-9.772-9.681-9.772H0v6.154h61.441c1.991 0 3.53 1.63 3.53 3.618v5.61H0Z" transform="translate(350.991 156.141)"/>
		<path style="fill:#9f9fa0;fill-opacity:1;fill-rule:nonzero;stroke:none" d="m0 0-17.103 13.483 3.801 4.886L3.8 4.886Z" transform="translate(368.003 111.44)"/>
		<path style="fill:#9f9fa0;fill-opacity:1;fill-rule:nonzero;stroke:none" d="M0 0c7.059 3.799 13.302 8.054 17.282 13.121l4.797-3.8C17.556 3.53 10.678-1.175 2.986-5.339Z" transform="translate(401.121 116.145)"/>
		<path style="fill:#9f9fa0;fill-opacity:1;fill-rule:nonzero;stroke:none" d="M537.31 170.258h59.16v-6.154h-59.16zm-10.326-25.157h79.812v-6.151H550.65l-4.488-38.912h40.017a5.252 5.252 0 0 1 5.248 5.248l-1.796 17.919h6.154l1.796-17.919c0-6.244-5.067-11.4-11.402-11.4h-47.257l4.488 45.064h-16.426z"/>
		<path style="fill:#9f9fa0;fill-opacity:1;fill-rule:nonzero;stroke:none" d="M0 0v.236C-8.925 2.02-17.555 6.741-24.687 12.14c-7.132 5.397-12.048 11.886-14.748 19.471.169.932.313 1.898.446 2.881-2.339.099-4.68.15-7.024.172-1.049-9.07-4.122-16.385-9.229-21.947C-61.025 6.421-69.894 2.571-81.845 0l1.446-6.848s7.291 1.286 13.59 3.855c6.361 2.508 11.567 5.785 15.616 9.832 4.047 4.049 7.132 9.092 9.252 15.133a43.993 43.993 0 0 1 5.687-8.433 49.548 49.548 0 0 1 7.422-6.992C-23.307 2.372-12.319-4.681-2.457-6.848z" transform="translate(427.588 98.11)"/>
		<path style="fill:#9f9fa0;fill-opacity:1;fill-rule:nonzero;stroke:none" d="m0 0-4.617 3.98C-9.865-2.081-16.2-7.329-24.342-11.946l3.076-5.336C-12.489-12.308-5.704-6.604 0 0" transform="translate(460.752 166.91)"/>
		<path style="fill:#9f9fa0;fill-opacity:1;fill-rule:nonzero;stroke:none" d="M451.974 105.829h25.441v-5.7h-25.441zm0 12.489h25.441v-6.335h-25.441zm0 12.666h25.441v-6.516h-25.441zm0 6.335c9.421 1.465 17.767 3.517 25.441 6.145v-6.326h-25.441zm52.573 19.094 8.146-6.517 3.799 4.798-20.451 16.558-3.8-4.795 6.874-5.611c-6.264-3.616-8.334-5.339-15.057-7.521v19.319h-6.643v-22.016c-10.499-2.805-26.617-7.698-41.099-8.873l.455-6.154c3.076.269 6.155.543 9.048.905V93.975h66.419v6.154h-28.143v5.7h28.143v6.154h-28.143v6.335h28.143v6.15h-28.143v6.516h28.143v6.154h-28.143v8.822c7.227 2.934 13.918 6.419 20.452 10.453"/>
	</g>
</svg>
