<svg xmlns="http://www.w3.org/2000/svg" width="200" height="128">
	<path d="M96.519 57.325v2.817a6.324 6.324 0 0 0-2.349-2.5 6.5 6.5 0 0 0-3.467-.919 6.935 6.935 0 0 0-3.173.745 7.968 7.968 0 0 0-2.514 2.046A9.875 9.875 0 0 0 83.36 62.6a11.929 11.929 0 0 0-.6 3.814 11.453 11.453 0 0 0 .616 3.858 9.476 9.476 0 0 0 1.733 3.086A7.95 7.95 0 0 0 87.8 75.4a8.064 8.064 0 0 0 3.467.729 5.764 5.764 0 0 0 3.13-.807A5.943 5.943 0 0 0 96.5 72.99v2.782h5.505V57.325zm0 11.391a5.978 5.978 0 0 1-1.6 1.907 3.547 3.547 0 0 1-2.2.693 3.9 3.9 0 0 1-1.734-.372 4.024 4.024 0 0 1-1.352-1.015 4.664 4.664 0 0 1-.867-1.508 5.418 5.418 0 0 1-.33-1.907 5.816 5.816 0 0 1 .3-1.855 5 5 0 0 1 .867-1.578 4.314 4.314 0 0 1 1.292-1.109 3.311 3.311 0 0 1 1.629-.408 3.685 3.685 0 0 1 2.393.867 5.3 5.3 0 0 1 1.647 2.384zm27.455 2.054a3.467 3.467 0 0 1-1.864.52 3.383 3.383 0 0 1-1.535-.364 3.915 3.915 0 0 1-1.274-1 4.8 4.8 0 0 1-.867-1.56 6.488 6.488 0 0 1-.3-2.028 5.28 5.28 0 0 1 1.135-3.546 3.572 3.572 0 0 1 2.826-1.326 3.374 3.374 0 0 1 3.087 1.794l5.279-1.69a8.671 8.671 0 0 0-3.147-3.6 9.256 9.256 0 0 0-5.2-1.378 9.844 9.844 0 0 0-4.049.789 8.9 8.9 0 0 0-3 2.132 9.266 9.266 0 0 0-1.855 3.121 10.886 10.886 0 0 0 0 7.412 9.063 9.063 0 0 0 1.881 3.121 9.264 9.264 0 0 0 3.008 2.149 9.655 9.655 0 0 0 4.014.807 9.383 9.383 0 0 0 5.2-1.405 8.219 8.219 0 0 0 3.129-3.58l-5.287-1.734a3.251 3.251 0 0 1-1.249 1.344m-19.08-19.739v25.14h5.5V51.014zm32.751 4.95v-4.988h-5.513v4.984zm41.862 6.71a8.966 8.966 0 0 0-1.849-3.069 8.863 8.863 0 0 0-2.973-2.124 9.893 9.893 0 0 0-4.031-.78 10.014 10.014 0 0 0-4.083.78 8.73 8.73 0 0 0-2.991 2.133 9.464 9.464 0 0 0-1.864 3.155 11.314 11.314 0 0 0-.641 3.823 10.39 10.39 0 0 0 .641 3.615 8.824 8.824 0 0 0 4.9 5.123 10.026 10.026 0 0 0 4.014.763 9.678 9.678 0 0 0 5.279-1.387 8.495 8.495 0 0 0 3.242-3.6l-4.6-1.353A2.972 2.972 0 0 1 173 71.386a4.624 4.624 0 0 1-2.28.607 4 4 0 0 1-2.661-.98 3.91 3.91 0 0 1-1.3-2.861H179.9a8.4 8.4 0 0 0 .1-.867v-.979a10.781 10.781 0 0 0-.633-3.667M166.624 64.6a4.436 4.436 0 0 1 1.274-2.791 3.47 3.47 0 0 1 2.6-1.049 3.58 3.58 0 0 1 2.6 1.023 4.44 4.44 0 0 1 1.222 2.817zM132 58.027v18.057h5.5V58.027zm21.672-7.048v9.874a6.459 6.459 0 0 0-2.384-2.375 6.692 6.692 0 0 0-3.468-.867 7.174 7.174 0 0 0-3.19.711 7.911 7.911 0 0 0-2.522 1.95 8.868 8.868 0 0 0-1.613 2.922 11.075 11.075 0 0 0-.589 3.632 10.27 10.27 0 0 0 .641 3.676 8.984 8.984 0 0 0 1.734 2.938 7.8 7.8 0 0 0 2.7 1.951 8.379 8.379 0 0 0 3.424.693 5.653 5.653 0 0 0 5.271-2.921v2.6h5.478V50.971zM152.13 70.84a4.067 4.067 0 0 1-2.237.667 4.187 4.187 0 0 1-1.734-.347 3.852 3.852 0 0 1-1.361-.944 4.417 4.417 0 0 1-.866-1.457 5.082 5.082 0 0 1-.33-1.838 5.378 5.378 0 0 1 .295-1.733 4.419 4.419 0 0 1 .867-1.509 4.325 4.325 0 0 1 1.274-1.04 3.366 3.366 0 0 1 1.621-.39 4.015 4.015 0 0 1 2.393.867 5.016 5.016 0 0 1 1.734 2.236v3.737A4.245 4.245 0 0 1 152.2 70.9M42.279 67.91l5.843 5.816 5.842-5.816-5.842-5.817zm5.895-25.175L20 72.209l2.141 2.038c.46.45 11.729 11.018 26.033 11.018S73.747 74.7 74.206 74.247l2.141-2.038zm0 36.591c-8.435 0-15.925-4.741-19.54-7.463L48.174 51.4l19.5 20.459c-3.574 2.734-11.066 7.467-19.5 7.467z" fill="#0031e2"/>
</svg>
