<svg xmlns="http://www.w3.org/2000/svg" height="224.409" width="377.952" xml:space="preserve">
	<defs>
		<clipPath id="a" clipPathUnits="userSpaceOnUse">
			<path d="M0 168.307h283.464V0H0Z"/>
		</clipPath>
	</defs>
	<g clip-path="url(#a)" transform="matrix(1.33333 0 0 -1.33333 0 224.41)">
		<path style="fill:#59ac46;fill-opacity:1;fill-rule:nonzero;stroke:none" d="M0 0c-2.155 23.183-21.715 41.414-45.436 41.414-16.029 0-30.093-8.283-38.234-20.829-4.508 1.519-9.36 2.304-14.361 2.304-22.544 0-41.272-16.422-44.894-37.891h5.633c3.578 18.382 19.851 32.353 39.261 32.353 4.02 0 7.892-.587 11.568-1.715 1.764-.544 3.528-1.179 5.197-1.961a36.045 36.045 0 0 0 2.84 4.752c7.208 10.492 19.313 17.402 32.99 17.402 20.634 0 37.695-15.684 39.85-35.733l.142-5.538c.691.048 1.376.048 2.058.048 1.182 0 2.356-.048 3.533-.146a40.178 40.178 0 0 0 22.451-9.462h7.939C22.892-6.472 12.104-.884 0 0" transform="translate(217.829 108.32)"/>
		<path style="fill:#59ac46;fill-opacity:1;fill-rule:nonzero;stroke:none" d="M0 0c-7.964 2.037-18.396 2.255-24.536-2.045-7.52-5.279-6.883-16.889 3.449-19.794 1.938-.535 4.09-.759 6.341-.759C-9.149-22.598 0-20.44 0-13.561zm0 11.83c0 1.613-.326 3.123-1.292 4.412-1.832 2.578-5.166 4.194-9.034 4.939-2.913.544-5.488.446-8.498 0-3.876-.637-7.643-2.249-9.9-5.586l-4.626 2.904c6.347 10.221 29.366 10.756 36.466.966 1.717-2.473 2.259-5.162 2.259-8.067v-28.293c0-3.981 2.582-5.052 5.275-5.052v-4.847c-4.522-.315-8.073.977-9.679 4.306-4.634-4.521-10.441-5.589-15.717-5.589-2.576 0-5.267.427-7.847 1.068-14.632 3.979-16.347 21.627-5.38 28.831C-21.301 6.345-10.651 6.986 0 4.947z" transform="translate(35.067 46.65)"/>
		<path style="fill:#59ac46;fill-opacity:1;fill-rule:nonzero;stroke:none" d="M0 0c-8.819-.541-13.228 2.263-13.228 11.836v63.893h5.38V11.722c0-5.586 2.257-6.889 7.848-6.889Z" transform="translate(66.824 19.541)"/>
		<path style="fill:#59ac46;fill-opacity:1;fill-rule:nonzero;stroke:none" d="M0 0c4.625.206 16.035-.972 23.234 2.466 9.144 4.305 7.423 17.207-2.151 19.902-4.086 1.083-8.708 1.083-12.798 0C3.663 21.076 0 18.283 0 14.084Zm0-10.232c0-1.719.321-3.12 1.292-4.512 1.828-2.478 5.162-4.201 8.923-4.844 2.909-.535 5.597-.535 8.502 0 3.985.536 7.645 2.157 10.004 5.486l4.625-2.793c-3.115-5.061-8.39-7.209-13.872-8.075-3.229-.524-6.13-.641-9.36-.097-5.489.856-10.435 3.326-13.23 7.098-1.717 2.472-2.37 5.158-2.37 8.175v23.878c0 7.096 5.377 11.51 12.37 13.44a29.348 29.348 0 0 0 15.598 0c13.987-4.19 16.351-22.797 3.336-29.681C18.287-6.248 7.205-4.741 0-4.741Z" transform="translate(80.388 44.826)"/>
		<path style="fill:#59ac46;fill-opacity:1;fill-rule:nonzero;stroke:none" d="M0 0v52.807h5.275v-5.801c4.625 6.555 14.84 7.74 22.375 5.801l-.865-5.047c-7.092 2.36-21.291-1.298-21.291-9.9V0Z" transform="translate(124.838 19.974)"/>
		<path style="fill:#59ac46;fill-opacity:1;fill-rule:nonzero;stroke:none" d="M0 0c-7.958 2.037-18.4 2.255-24.521-2.045-7.54-5.279-6.888-16.889 3.438-19.794 1.934-.535 4.091-.759 6.345-.759C-9.144-22.598 0-20.44 0-13.561zm0 11.83c0 1.613-.331 3.123-1.292 4.412-1.832 2.578-5.161 4.194-9.036 4.939-2.904.544-5.488.446-8.5 0-3.866-.637-7.633-2.249-9.891-5.586l-4.634 2.904C-27 28.72-3.978 29.255 3.119 19.465c1.72-2.473 2.263-5.162 2.263-8.067v-28.293c0-3.981 2.579-5.052 5.266-5.052v-4.847c-4.517-.315-8.065.977-9.681 4.306-4.629-4.521-10.435-5.589-15.705-5.589-2.585 0-5.267.427-7.85 1.068-14.627 3.979-16.35 21.627-5.383 28.831C-21.297 6.345-10.647 6.986 0 4.947z" transform="translate(189.716 46.65)"/>
		<path style="fill:#59ac46;fill-opacity:1;fill-rule:nonzero;stroke:none" d="M0 0v38.507c0 6.347-7.315 9.797-14.636 9.797-7.309 0-14.741-3.343-14.741-10.658V0h-5.481v52.919h5.481v-4.944c3.986 4.294 9.582 5.586 14.64 5.586 10.001.117 20.212-4.624 20.212-15.16V0Z" transform="translate(244.503 19.974)"/>
		<path style="fill:#59ac46;fill-opacity:1;fill-rule:nonzero;stroke:none" d="M0 0v-22.703h12.801v-4.832c-4.3 0-8.506 0-12.801-.117v-33.014c0-9.043 6.665-9.899 13.768-10.114v-4.945c-9.793-.544-19.141 3.008-19.141 14.953v33.237h-9.258v4.832h9.258V0z" transform="translate(269.697 95.483)"/>
	</g>
</svg>
