<svg xmlns="http://www.w3.org/2000/svg" width="200" height="128">
    <path fill="#483366" d="M94.76 65.29a4.93 4.93 0 00-2.2-9.29h-7.4v14.7h2.47v-4.86h3.55a.8.8 0 01.83.49c.74 1.32 1.53 2.61 2.26 3.93a.83.83 0 00.9.51h2.27l-3-5.24zm-1.53-2.08a2.61 2.61 0 01-.61.11h-4.95v-4.8h4.89a2.41 2.41 0 01.67 4.72zM140.23 56v14.68h2.45v-8.63l.11-.06 4.85 4.86 4.79-4.79v8.63h2.51V56l-7.37 7.32zM74.11 56a7.39 7.39 0 107.44 7.4 7.45 7.45 0 00-7.44-7.4zm0 12.24a4.83 4.83 0 01-4.84-4.87 4.86 4.86 0 119.72 0 4.83 4.83 0 01-4.9 4.84zM63.08 62.14h-6.14v2.46h3.66v1.87a.61.61 0 01-.19.3 4.69 4.69 0 01-3.34 1.43 4.81 4.81 0 01-4.92-5.6 4.85 4.85 0 017.89-3l.36.29 1.81-1.82a2.61 2.61 0 01-.27-.19 7.27 7.27 0 00-6.66-1.73 7.37 7.37 0 001.42 14.56 7.3 7.3 0 006.21-3 1 1 0 00.2-.61v-4.53c0-.15-.02-.28-.03-.43zM133.48 62.06h-7.31V56h-2.42v14.68h2.45v-6h7.31v6H136V56h-2.5zM27.33 56L20 70.68h2.54a.38.38 0 00.38-.27c.31-.62.64-1.22.93-1.84a.56.56 0 01.6-.37h6.29L32 70.7h2.8c-2.47-5-4.91-9.81-7.35-14.68zm-2 9.71l2.09-4.18 2.1 4.18zM172.7 56.06h-.1l-7.28 14.55a.53.53 0 00.18.07h2c.11 0 .25-.13.32-.24.17-.3.31-.62.47-.92s.35-.7.56-1.12l.22.47c.21.51.42 1 .65 1.53 0 .12.18.28.29.28h2c-.08-.21-.12-.33-.17-.45-.53-1.33-1.06-2.65-1.6-4a.59.59 0 010-.55l2.27-4.56.19-.32c.09.17.16.29.21.4.72 1.45 1.43 2.89 2.16 4.33a.87.87 0 010 .83c-.53 1.28-1 2.57-1.56 3.86 0 .12-.08.24-.14.43h2c.09 0 .2-.16.25-.27.24-.53.46-1.06.69-1.6l.19-.38.21.38c.27.54.54 1.08.8 1.62a.41.41 0 00.43.27h1.77a1.72 1.72 0 00.32-.06c-2.48-4.85-4.91-9.7-7.33-14.55zM107.78 58.5h4.9v12.19h2.52V58.47h4.85V56h-12.27zM40.31 56h-2.47v14.7h9.8v-2.5h-7.33zM159.19 70.68h2.43V56h-2.43zM101.66 70.69h2.43V56h-2.43z"/>
</svg>
