<svg xmlns="http://www.w3.org/2000/svg" width="200" height="128">
	<path fill="#483366" d="M94.76 65.29a4.93 4.93 0 0 0-2.2-9.29h-7.4v14.7h2.47v-4.86h3.55a.8.8 0 0 1 .83.49c.74 1.32 1.53 2.61 2.26 3.93a.83.83 0 0 0 .9.51h2.27l-3-5.24zm-1.53-2.08a2.61 2.61 0 0 1-.61.11h-4.95v-4.8h4.89a2.41 2.41 0 0 1 .67 4.72zm47-7.21v14.68h2.45v-8.63l.11-.06 4.85 4.86 4.79-4.79v8.63h2.51V56l-7.37 7.32zm-66.12 0a7.39 7.39 0 1 0 7.44 7.4 7.45 7.45 0 0 0-7.44-7.4zm0 12.24a4.83 4.83 0 0 1-4.84-4.87 4.86 4.86 0 1 1 9.72 0 4.83 4.83 0 0 1-4.9 4.84zm-11.03-6.1h-6.14v2.46h3.66v1.87a.61.61 0 0 1-.19.3 4.69 4.69 0 0 1-3.34 1.43 4.81 4.81 0 0 1-4.92-5.6 4.85 4.85 0 0 1 7.89-3l.36.29 1.81-1.82a2.61 2.61 0 0 1-.27-.19 7.27 7.27 0 0 0-6.66-1.73 7.37 7.37 0 0 0 1.42 14.56 7.3 7.3 0 0 0 6.21-3 1 1 0 0 0 .2-.61v-4.53c0-.15-.02-.28-.03-.43zm70.4-.08h-7.31V56h-2.42v14.68h2.45v-6h7.31v6H136V56h-2.5zM27.33 56 20 70.68h2.54a.38.38 0 0 0 .38-.27c.31-.62.64-1.22.93-1.84a.56.56 0 0 1 .6-.37h6.29L32 70.7h2.8c-2.47-5-4.91-9.81-7.35-14.68zm-2 9.71 2.09-4.18 2.1 4.18zm147.37-9.65h-.1l-7.28 14.55a.53.53 0 0 0 .18.07h2c.11 0 .25-.13.32-.24.17-.3.31-.62.47-.92s.35-.7.56-1.12l.22.47c.21.51.42 1 .65 1.53 0 .12.18.28.29.28h2c-.08-.21-.12-.33-.17-.45-.53-1.33-1.06-2.65-1.6-4a.59.59 0 0 1 0-.55l2.27-4.56.19-.32c.09.17.16.29.21.4.72 1.45 1.43 2.89 2.16 4.33a.87.87 0 0 1 0 .83c-.53 1.28-1 2.57-1.56 3.86 0 .12-.08.24-.14.43h2c.09 0 .2-.16.25-.27.24-.53.46-1.06.69-1.6l.19-.38.21.38c.27.54.54 1.08.8 1.62a.41.41 0 0 0 .43.27h1.77a1.72 1.72 0 0 0 .32-.06c-2.48-4.85-4.91-9.7-7.33-14.55zm-64.92 2.44h4.9v12.19h2.52V58.47h4.85V56h-12.27zM40.31 56h-2.47v14.7h9.8v-2.5h-7.33zm118.88 14.68h2.43V56h-2.43zm-57.53.01h2.43V56h-2.43z"/>
</svg>
