<svg xmlns="http://www.w3.org/2000/svg" viewBox="104.62 -20.38 815.76 1059.76">
	<path d="M157.033 776.427h15.629l32.08 83.9h-14.69l-7.637-21.033H147.28l-7.638 21.034h-14.689l32.08-83.901zm-5.64 51.586h26.909l-13.161-36.78h-.47l-13.278 36.78zm61.574-53.231h13.396v85.546h-13.396v-85.546zm37.72 0c2.585 0 4.818.822 6.58 2.468 1.646 1.645 2.586 3.76 2.586 6.345s-.94 4.818-2.703 6.463c-1.763 1.645-3.878 2.468-6.463 2.468s-4.7-.823-6.463-2.468c-1.763-1.763-2.585-3.878-2.585-6.463s.822-4.7 2.585-6.345c1.763-1.646 3.878-2.468 6.463-2.468zm-6.698 24.794h13.396v60.752h-13.396v-60.752zm29.965-24.794h13.396v33.137c4.935-6.698 11.045-9.988 18.096-9.988 8.695 0 15.51 3.173 20.564 9.518 4.583 5.876 6.933 13.279 6.933 22.21 0 9.282-2.35 16.92-7.05 22.796-5.171 6.345-12.222 9.518-21.152 9.518-7.99 0-14.101-2.703-18.332-8.108v6.463h-12.455v-85.546zm28.319 33.96c-4.348 0-7.873 1.762-10.693 5.288-3.173 3.76-4.7 8.93-4.7 15.393v.94c0 5.876 1.175 10.811 3.76 14.571 2.82 4.113 6.815 6.228 12.103 6.228 5.875 0 10.223-2.115 13.043-6.345 2.233-3.525 3.408-8.578 3.408-15.159s-1.292-11.516-3.643-14.923c-2.82-3.996-7.285-5.993-13.278-5.993zm70.035-10.811c8.93 0 15.629 2.233 19.859 6.698 3.76 3.878 5.64 9.518 5.64 16.921v38.778h-12.456v-7.99c-2.35 3.055-5.288 5.287-8.695 6.932-3.878 1.763-8.46 2.703-13.749 2.703-6.345 0-11.28-1.645-14.923-4.818-3.76-3.29-5.64-7.403-5.64-12.456 0-6.815 2.585-12.103 7.99-15.746 4.935-3.525 11.868-5.405 20.799-5.64l13.278-.353v-2.35c0-7.99-4.348-11.868-13.043-11.868-3.76 0-6.698.587-8.93 1.997-2.586 1.528-4.349 3.878-5.054 7.05l-13.278-1.057c1.293-6.698 4.583-11.633 9.87-14.688 4.466-2.82 10.576-4.113 18.332-4.113zm12.103 34.665-12.338.352c-10.693.235-15.981 3.996-15.981 11.281 0 2.115.822 3.878 2.702 5.288 1.88 1.41 4.23 2.233 7.168 2.233 5.17 0 9.519-1.528 13.044-4.466 3.525-3.055 5.405-6.933 5.405-11.633v-3.055zm27.497-57.814h13.396v33.137c4.935-6.698 11.046-9.988 18.096-9.988 8.696 0 15.511 3.173 20.564 9.518 4.583 5.876 6.933 13.279 6.933 22.21 0 9.282-2.35 16.92-7.05 22.796-5.17 6.345-12.221 9.518-21.152 9.518-7.99 0-14.1-2.703-18.33-8.108v6.463h-12.457v-85.546zm28.32 33.96c-4.348 0-7.873 1.762-10.694 5.288-3.172 3.76-4.7 8.93-4.7 15.393v.94c0 5.876 1.175 10.811 3.76 14.571 2.82 4.113 6.816 6.228 12.104 6.228 5.875 0 10.223-2.115 13.043-6.345 2.233-3.525 3.408-8.578 3.408-15.159s-1.293-11.516-3.643-14.923c-2.82-3.996-7.285-5.993-13.278-5.993zm70.035-10.811c8.93 0 15.628 2.233 19.858 6.698 3.76 3.878 5.64 9.518 5.64 16.921v38.778h-12.455v-7.99c-2.35 3.055-5.288 5.287-8.696 6.932-3.877 1.763-8.46 2.703-13.748 2.703-6.346 0-11.28-1.645-14.924-4.818-3.76-3.29-5.64-7.403-5.64-12.456 0-6.815 2.585-12.103 7.99-15.746 4.936-3.525 11.869-5.405 20.8-5.64l13.278-.353v-2.35c0-7.99-4.348-11.868-13.043-11.868-3.76 0-6.698.587-8.931 1.997-2.585 1.528-4.348 3.878-5.053 7.05l-13.278-1.057c1.292-6.698 4.582-11.633 9.87-14.688 4.466-2.82 10.576-4.113 18.332-4.113zm12.103 34.665-12.338.352c-10.694.235-15.982 3.996-15.982 11.281 0 2.115.823 3.878 2.703 5.288 1.88 1.41 4.23 2.233 7.168 2.233 5.17 0 9.518-1.528 13.044-4.466 3.525-3.055 5.405-6.933 5.405-11.633v-3.055zm104.23-57.814c9.87 0 18.096 2.585 24.441 7.755 6.11 4.936 9.754 11.751 11.046 20.212h-13.396c-1.41-5.523-3.995-9.518-7.873-12.103-3.76-2.586-8.578-3.76-14.453-3.76-8.813 0-15.394 2.937-19.86 9.047-4.112 5.406-6.11 12.926-6.11 22.562 0 9.87 1.998 17.509 5.993 22.797 4.348 5.64 11.164 8.578 20.33 8.578 5.992 0 10.927-1.528 14.688-4.348 3.995-3.173 6.815-7.99 8.46-14.336h13.396c-1.88 9.87-6.228 17.509-13.16 23.031-6.464 5.17-14.22 7.756-23.267 7.756-13.984 0-24.442-4.465-31.257-13.16-5.993-7.521-8.931-17.627-8.931-30.318 0-12.456 3.055-22.68 9.283-30.435 7.05-8.93 17.274-13.278 30.67-13.278zm49.588 0h13.396v85.546h-13.396v-85.546zm56.874 23.149c9.166 0 16.569 2.938 22.21 9.048 5.522 5.993 8.342 13.631 8.342 23.032 0 9.283-2.82 16.92-8.225 22.796-5.64 6.11-13.161 9.166-22.327 9.166-9.283 0-16.686-3.055-22.326-9.166-5.523-5.875-8.226-13.513-8.226-22.796 0-9.4 2.703-17.039 8.343-23.032 5.523-6.11 12.926-9.048 22.21-9.048zm0 10.928c-5.64 0-9.87 2.115-12.926 6.58-2.585 3.761-3.878 8.696-3.878 14.572s1.293 10.693 3.878 14.453c3.055 4.348 7.286 6.58 12.926 6.58 5.523 0 9.87-2.232 12.926-6.58 2.585-3.878 3.995-8.695 3.995-14.453 0-5.876-1.41-10.811-3.995-14.571-3.055-4.466-7.403-6.58-12.926-6.58zm42.303-9.283h13.396v37.015c0 4.936.94 8.46 3.055 10.811 2.115 2.233 5.406 3.408 10.106 3.408 2.938 0 5.758-1.293 8.46-3.76 2.703-2.586 4.7-5.993 5.876-10.341v-37.133h13.396v60.752h-13.396v-7.873c-5.17 6.345-11.516 9.518-19.036 9.518-14.571 0-21.857-8.226-21.857-24.56v-37.837zm111.633-24.794h13.396v85.546h-12.456v-6.463c-4.23 5.405-10.34 8.108-18.331 8.108-9.049 0-16.099-3.173-21.152-9.518-4.7-5.876-7.05-13.514-7.05-22.797 0-8.93 2.232-16.333 6.933-22.209 4.935-6.345 11.868-9.518 20.564-9.518 7.05 0 13.043 3.29 18.096 9.988v-33.137zm-14.924 33.96c-6.11 0-10.458 1.997-13.278 5.993-2.468 3.407-3.643 8.343-3.643 14.923s1.058 11.634 3.408 15.159c2.703 4.23 7.05 6.345 13.043 6.345 5.17 0 9.283-2.115 12.104-6.228 2.467-3.76 3.76-8.695 3.76-14.57v-.94c0-6.464-1.645-11.634-4.7-15.394-2.82-3.526-6.463-5.288-10.694-5.288zm-678.316 101.98h13.631v72.15h45.358v11.751h-58.989v-83.9zm96.592 21.504c9.166 0 16.569 2.938 22.209 9.048 5.523 5.993 8.343 13.631 8.343 23.032 0 9.283-2.82 16.921-8.225 22.796-5.64 6.11-13.161 9.166-22.327 9.166-9.283 0-16.686-3.055-22.327-9.166-5.522-5.875-8.225-13.513-8.225-22.796 0-9.4 2.703-17.039 8.343-23.032 5.523-6.11 12.926-9.048 22.209-9.048zm0 10.928c-5.64 0-9.87 2.116-12.926 6.58-2.585 3.761-3.878 8.696-3.878 14.572s1.293 10.693 3.878 14.453c3.055 4.348 7.286 6.58 12.926 6.58 5.523 0 9.87-2.232 12.926-6.58 2.585-3.877 3.995-8.695 3.995-14.453 0-5.876-1.41-10.81-3.995-14.571-3.055-4.465-7.403-6.58-12.926-6.58zm67.567-10.928c7.52 0 13.514 2.938 17.979 9.048v-7.403h13.396v56.874c0 19.154-9.518 28.79-28.555 28.79-8.578 0-15.04-1.645-19.506-4.7-4.465-3.29-7.285-8.226-8.46-15.042h13.395c.705 3.408 2.116 5.758 4.348 7.168 2.115 1.293 5.523 1.998 10.223 1.998 10.106 0 15.159-5.405 15.159-16.216v-8.93c-4.465 6.227-10.458 9.4-17.979 9.4-8.225 0-14.923-2.82-19.976-8.226-5.17-5.523-7.638-12.926-7.638-22.091s2.467-16.569 7.638-22.21c5.053-5.64 11.75-8.46 19.976-8.46zm2.115 10.81c-5.053 0-8.93 1.763-11.75 5.289-2.82 3.407-4.23 8.225-4.23 14.57 0 5.759 1.057 10.224 3.29 13.514 2.585 3.878 6.697 5.876 12.573 5.876 5.17 0 9.165-1.763 11.986-5.053 2.702-3.526 4.112-8.226 4.112-14.336 0-6.228-1.41-11.046-4.112-14.571-2.82-3.526-6.816-5.288-11.869-5.288zm113.278-33.959c9.87 0 17.626 1.998 23.15 6.11 5.875 4.348 9.282 11.164 10.105 20.33h-13.63c-1.176-5.171-3.409-8.931-6.464-11.164-3.055-2.35-7.755-3.408-13.866-3.408-5.288 0-9.283.705-12.103 2.233-3.525 1.763-5.17 4.7-5.17 8.696 0 3.525 1.88 6.463 5.875 8.578 1.763.94 6.58 2.702 14.336 5.17 11.398 3.525 18.684 6.345 21.974 8.226 7.285 4.347 10.928 10.34 10.928 18.096 0 7.52-2.938 13.513-8.813 17.861-5.875 4.23-14.218 6.463-24.912 6.463-10.34 0-18.448-1.998-24.206-5.993-7.05-4.935-10.929-12.69-11.516-23.384h13.63c.94 6.345 3.174 10.928 6.816 13.631 3.29 2.35 8.343 3.643 15.276 3.643 6.11 0 11.046-1.058 14.571-3.055 3.526-2.116 5.406-4.818 5.406-8.344 0-4.465-2.703-7.99-7.873-10.575-1.645-.823-7.05-2.703-16.334-5.523-10.34-3.29-16.804-5.64-19.271-7.05-6.463-3.878-9.636-9.519-9.636-16.922s3.055-13.278 9.4-17.509c5.876-4.112 13.28-6.11 22.327-6.11zm71.563 23.15c9.988 0 17.626 3.29 22.914 10.105 4.818 6.11 7.285 14.688 7.285 25.617h-45.475c.47 5.64 1.997 9.988 4.582 12.925 2.586 2.938 6.346 4.466 11.164 4.466 4.113 0 7.403-.94 9.988-2.82 1.998-1.528 3.76-3.996 5.405-7.403h13.396c-1.41 5.64-4.23 10.458-8.46 14.218-5.406 4.583-12.104 6.933-20.212 6.933-9.048 0-16.216-2.82-21.504-8.343-5.64-5.758-8.46-13.631-8.46-23.737 0-9.048 2.585-16.568 7.99-22.679 5.17-6.228 12.339-9.283 21.387-9.283zm.352 10.927c-4.465 0-7.873 1.175-10.458 3.76-2.468 2.468-4.113 6.111-4.935 10.929h31.257c-1.175-9.87-6.463-14.689-15.864-14.689zm69.095-10.928c2.938 0 5.523.47 7.638 1.528v13.396a28.915 28.915 0 0 0-8.696-1.293c-3.525 0-6.697 1.293-9.518 4.113-3.29 3.173-4.818 7.285-4.818 12.456v32.197h-13.278V933.87h13.278v8.696c1.646-3.055 3.526-5.406 5.758-7.05 2.703-2.233 5.876-3.29 9.636-3.29zm8.813 1.645H637.7l14.571 44.066 14.571-44.066h14.571l-22.444 60.752h-13.396l-22.444-60.752zm74.97-24.794c2.586 0 4.818.823 6.58 2.468 1.646 1.645 2.586 3.76 2.586 6.345s-.94 4.818-2.703 6.463c-1.762 1.645-3.877 2.468-6.463 2.468s-4.7-.823-6.463-2.468c-1.762-1.763-2.585-3.878-2.585-6.463s.823-4.7 2.585-6.345c1.763-1.645 3.878-2.468 6.463-2.468zm-6.698 24.794h13.396v60.752h-13.396v-60.752zm57.227-1.645c7.873 0 14.1 1.763 18.801 5.288 4.818 3.76 7.873 9.4 9.048 17.039H763.2c-.823-3.878-2.468-6.698-4.818-8.578-2.468-1.88-5.758-2.82-9.753-2.82-4.935 0-8.813 1.762-11.633 5.522-2.82 3.643-4.23 8.813-4.23 15.394 0 6.698 1.292 11.986 4.112 15.746 2.585 3.643 6.463 5.523 11.633 5.523 8.931 0 13.866-4.466 14.924-13.279h13.278c-1.41 8.226-4.582 14.336-9.4 18.332-4.7 3.877-11.046 5.875-18.92 5.875-9.4 0-16.685-3.055-21.856-9.166-5.052-5.875-7.52-13.513-7.52-22.914 0-9.165 2.468-16.686 7.403-22.444 5.288-6.345 12.69-9.518 22.209-9.518zm64.512 0c9.988 0 17.626 3.29 22.914 10.106 4.818 6.11 7.286 14.688 7.286 25.617h-45.476c.47 5.64 1.998 9.988 4.583 12.925 2.585 2.938 6.345 4.466 11.163 4.466 4.113 0 7.403-.94 9.988-2.82 1.998-1.528 3.76-3.996 5.406-7.403h13.395c-1.41 5.64-4.23 10.458-8.46 14.218-5.405 4.583-12.103 6.933-20.212 6.933-9.048 0-16.216-2.82-21.504-8.343-5.64-5.758-8.46-13.631-8.46-23.737 0-9.048 2.585-16.568 7.99-22.679 5.17-6.228 12.339-9.283 21.387-9.283zm.352 10.928c-4.465 0-7.873 1.175-10.458 3.76-2.467 2.468-4.113 6.111-4.935 10.929h31.257c-1.175-9.87-6.463-14.689-15.864-14.689z"/>
	<path fill="#00C1DE" d="m855.997 578.581-.134-.495-2.153-2.195a86.075 86.075 0 0 0-6.744-6.824c-36.751-37.452-44.645-47.742-44.645-47.742a343.27 343.27 0 0 0 48.27-175.431C850.591 154.864 695.397 0 503.984 0 312.547 0 157.377 154.859 157.377 345.894c0 191.026 155.174 345.885 346.607 345.885 64.252 0 124.198-17.752 175.8-48.157l47.743 46.604a86.633 86.633 0 0 0 6.534 6.367l2.833 2.744.755.231c34.09 26.704 82.734 23.485 113.03-7.487 30.293-30.971 32.584-79.821 5.318-113.5zm-352.013 26.712c-143.574 0-259.953-116.136-259.953-259.4 0-143.271 116.375-259.424 259.953-259.424 143.558 0 259.937 116.136 259.937 259.42 0 143.285-116.375 259.42-259.937 259.42v-.016zM607.9 237.522H406c-14.504-.059-28.198 10.932-28.273 22.658-.076 11.747 11.616 21.315 26.103 21.37l204.07-.626c14.487.06 26.255-7.407 26.314-19.154.092-11.746-11.827-24.173-26.314-24.248zm0 180.837H398.747c-12.086-.06-22.192 12.69-22.268 22.486-.054 9.778 10.199 20.857 22.285 20.916h209.118c12.087.059 25.026-9.547 25.118-19.326.059-9.795-13.031-24.022-25.118-24.06l.017-.016zm0-86.789-204.41-.44c-14.487-.055-26.309 9.417-26.384 21.143-.076 11.75 14.395 22.62 28.894 22.679l201.204.075c14.503.042 26.326-9.413 26.384-21.16.093-11.75-11.205-22.242-25.684-22.3z"/>
</svg>
