<svg width="231" height="262" xmlns="http://www.w3.org/2000/svg">
	<g fill="none">
		<path d="m22.736 218 1.68-4.816h7.896L33.964 218h4.508l-7.196-19.432h-5.712L18.312 218h4.424Zm8.344-8.344h-5.432l2.576-7.364h.336l2.52 7.364ZM46.676 218v-21.28h-4.06V218h4.06Zm8.316-19.376c0-1.904-.42-2.1-2.268-2.1-1.82 0-2.268.196-2.268 2.1 0 1.868.419 2.14 2.09 2.155l.178.001c1.848 0 2.268-.224 2.268-2.156ZM54.74 218v-15.12h-4.06V218h4.06Zm12.656.28c4.9 0 6.02-3.5 6.02-7.84 0-4.788-1.12-7.84-6.02-7.84-2.66 0-3.976.98-4.564 2.1v-7.98h-4.06V218h3.696l.28-2.128c.588 1.456 1.764 2.408 4.648 2.408Zm-1.288-3.08c-2.772 0-3.5-1.848-3.5-4.76 0-3.052.728-4.816 3.5-4.816 2.744 0 3.164 2.044 3.164 4.816 0 2.604-.364 4.76-3.164 4.76Zm14.896 3.08c2.492 0 4.2-.924 4.816-2.044l.392 1.764h3.64v-10.472c0-3.192-1.736-4.9-6.804-4.9-1.092 0-2.548.084-3.696.224v3.444a17.437 17.437 0 0 1 3.22-.28c2.66 0 3.22.672 3.22 2.492v.392H82.04c-4.06 0-6.216 1.26-6.216 4.76 0 3.108 1.82 4.62 5.18 4.62Zm1.036-3.108c-1.54 0-2.212-.476-2.212-1.652 0-1.512.812-1.876 2.828-1.876h3.136v1.764c-.532 1.036-1.904 1.764-3.752 1.764Zm20.608 3.108c4.9 0 6.02-3.5 6.02-7.84 0-4.788-1.12-7.84-6.02-7.84-2.66 0-3.976.98-4.564 2.1v-7.98h-4.06V218h3.696l.28-2.128c.588 1.456 1.764 2.408 4.648 2.408Zm-1.288-3.08c-2.772 0-3.5-1.848-3.5-4.76 0-3.052.728-4.816 3.5-4.816 2.744 0 3.164 2.044 3.164 4.816 0 2.604-.364 4.76-3.164 4.76Zm14.896 3.08c2.492 0 4.2-.924 4.816-2.044l.392 1.764h3.64v-10.472c0-3.192-1.736-4.9-6.804-4.9-1.092 0-2.548.084-3.696.224v3.444a17.437 17.437 0 0 1 3.22-.28c2.66 0 3.22.672 3.22 2.492v.392h-3.752c-4.06 0-6.216 1.26-6.216 4.76 0 3.108 1.82 4.62 5.18 4.62Zm1.036-3.108c-1.54 0-2.212-.476-2.212-1.652 0-1.512.812-1.876 2.828-1.876h3.136v1.764c-.532 1.036-1.904 1.764-3.752 1.764Zm28.168 3.108c1.848 0 3.584-.336 4.732-.812v-3.64c-1.484.532-2.94.756-4.536.756-3.444 0-4.984-1.26-4.984-6.328 0-4.76 1.54-6.328 5.04-6.328 1.624 0 3.052.252 4.256.672v-3.668c-1.176-.42-2.688-.644-4.536-.644-5.712 0-9.38 2.492-9.38 9.996 0 8.12 3.724 9.996 9.408 9.996Zm12.264-.112a8.3 8.3 0 0 0 1.736-.168v-3.136c-.336.084-.588.084-.812.084-.924 0-1.26-.336-1.26-1.68V196.72h-4.06v17.528c0 2.688 1.036 3.92 4.396 3.92Zm10.78.112c4.676 0 7.392-1.708 7.392-7.84s-2.716-7.84-7.392-7.84c-4.704 0-7.42 1.708-7.42 7.84s2.716 7.84 7.42 7.84Zm0-3.08c-2.436 0-3.248-1.092-3.248-4.76 0-3.668.756-4.816 3.248-4.816 2.436 0 3.248 1.148 3.248 4.816s-.756 4.76-3.248 4.76Zm15.652 3.08c2.24 0 3.808-.644 4.648-2.1l.308 1.82h3.668v-15.12h-4.032v9.996c-.476 1.568-1.568 2.1-3.136 2.1-1.988 0-2.464-.84-2.464-2.828v-9.268h-4.06v10.36c0 3.276 1.316 5.04 5.068 5.04Zm17.976 0c2.744 0 4.032-1.008 4.62-2.38l.308 2.1h3.668v-21.28h-4.032v8.092c-.588-1.344-1.792-2.212-4.564-2.212-4.9 0-6.048 3.528-6.048 7.84 0 4.788 1.148 7.84 6.048 7.84Zm1.288-3.08c-2.7 0-3.142-1.885-3.163-4.543l-.001-.217c0-2.604.336-4.816 3.164-4.816 2.744 0 3.472 1.932 3.472 4.816 0 3.052-.7 4.76-3.472 4.76ZM5.236 256v-7.56h7.056v-3.668H5.236v-4.508h7.616v-3.696H.98V256h4.256Zm14.952-19.376c0-1.904-.42-2.1-2.268-2.1-1.82 0-2.268.196-2.268 2.1 0 1.868.419 2.14 2.09 2.155l.178.001c1.848 0 2.268-.224 2.268-2.156ZM19.936 256v-15.12h-4.06V256h4.06Zm8.4.168a8.3 8.3 0 0 0 1.736-.168v-3.136c-.336.084-.588.084-.812.084-.924 0-1.26-.336-1.26-1.68V234.72h-4.06v17.528c0 2.688 1.036 3.92 4.396 3.92Zm10.724.112c2.632 0 4.9-.532 5.796-1.064v-3.192c-.98.532-3.136 1.064-5.012 1.064-2.688 0-3.948-.98-4.088-3.136l9.744-.616c.056-.42.14-1.232.14-2.1 0-3.892-1.204-6.636-6.468-6.636-4.732 0-7.476 1.708-7.476 7.84s2.744 7.84 7.364 7.84Zm-3.304-9.156c.112-2.408.896-3.472 3.416-3.472 2.38 0 2.772 1.344 2.772 2.996l-6.188.476Zm25.48 9.156c5.348 0 7.476-2.044 7.476-5.852 0-3.64-1.008-5.04-5.656-6.188-2.856-.7-3.304-1.092-3.304-2.38 0-1.624.952-2.072 3.136-2.072 1.624 0 3.864.364 4.816.7v-3.5c-1.036-.364-2.8-.7-4.984-.7-4.508 0-7.112 1.568-7.112 5.684 0 3.472 1.204 4.62 5.348 5.6 2.968.728 3.528 1.26 3.528 2.744 0 1.736-.84 2.324-3.416 2.324-1.988 0-4.256-.364-5.488-.784v3.724c1.176.336 3.388.7 5.656.7Zm16.044-.112c.672 0 1.372-.056 1.96-.14v-3.136c-.364.084-.756.112-1.204.112-1.4 0-1.736-.42-1.736-2.184v-6.748h3.136v-3.192H76.3v-3.584h-4.06v3.584h-1.988v3.192h1.988v7.084c0 3.976 1.316 5.012 5.04 5.012Zm11.312.112c4.676 0 7.392-1.708 7.392-7.84s-2.716-7.84-7.392-7.84c-4.704 0-7.42 1.708-7.42 7.84s2.716 7.84 7.42 7.84Zm0-3.08c-2.436 0-3.248-1.092-3.248-4.76 0-3.668.756-4.816 3.248-4.816 2.436 0 3.248 1.148 3.248 4.816s-.756 4.76-3.248 4.76Zm14.756 2.8v-8.596c.448-2.492 2.324-3.192 4.2-3.192h.392l.112-3.612h-.308c-1.792 0-3.472.504-4.396 2.996v-2.716h-4.06V256h4.06Zm10.304.28c2.492 0 4.2-.924 4.816-2.044l.392 1.764h3.64v-10.472c0-3.192-1.736-4.9-6.804-4.9-1.092 0-2.548.084-3.696.224v3.444a17.437 17.437 0 0 1 3.22-.28c2.66 0 3.22.672 3.22 2.492v.392h-3.752c-4.06 0-6.216 1.26-6.216 4.76 0 3.108 1.82 4.62 5.18 4.62Zm1.036-3.108c-1.54 0-2.212-.476-2.212-1.652 0-1.512.812-1.876 2.828-1.876h3.136v1.764c-.532 1.036-1.904 1.764-3.752 1.764Zm17.556 8.428c6.272 0 8.372-2.604 8.372-6.776V240.88h-4.032v1.932c-.588-1.4-1.82-2.212-4.564-2.212-4.9 0-6.132 3.556-6.132 7.7 0 4.62 1.232 7.7 6.132 7.7 2.716 0 3.948-.812 4.564-2.156v.812c0 2.884-1.372 3.808-4.648 3.808-1.288 0-2.828-.168-4.004-.448v3.22c1.232.224 2.94.364 4.312.364Zm.98-8.568c-2.7 0-3.142-2.017-3.163-4.527l-.001-.205c0-2.436.336-4.676 3.164-4.676 3.024 0 3.556 1.792 3.556 4.676 0 2.996-.532 4.732-3.556 4.732Zm18.06 3.248c2.632 0 4.9-.532 5.796-1.064v-3.192c-.98.532-3.136 1.064-5.012 1.064-2.688 0-3.948-.98-4.088-3.136l9.744-.616c.056-.42.14-1.232.14-2.1 0-3.892-1.204-6.636-6.468-6.636-4.732 0-7.476 1.708-7.476 7.84s2.744 7.84 7.364 7.84Zm-3.304-9.156c.112-2.408.896-3.472 3.416-3.472 2.38 0 2.772 1.344 2.772 2.996l-6.188.476Zm29.316 9.156c1.848 0 3.584-.336 4.732-.812v-3.64c-1.484.532-2.94.756-4.536.756-3.444 0-4.984-1.26-4.984-6.328 0-4.76 1.54-6.328 5.04-6.328 1.624 0 3.052.252 4.256.672v-3.668c-1.176-.42-2.688-.644-4.536-.644-5.712 0-9.38 2.492-9.38 9.996 0 8.12 3.724 9.996 9.408 9.996Zm12.264-.28v-5.992h2.38c5.46 0 7.644-1.764 7.644-6.832 0-4.704-1.82-6.608-7.644-6.608h-6.636V256h4.256Zm1.82-9.408h-1.82v-6.664h1.82c2.856 0 3.864.84 3.864 3.332 0 2.576-.98 3.332-3.864 3.332ZM207.312 256v-7.56h7.056v-3.668h-7.056v-4.508h7.616v-3.696h-11.872V256h4.256Zm15.876.28c5.348 0 7.476-2.044 7.476-5.852 0-3.64-1.008-5.04-5.656-6.188-2.856-.7-3.304-1.092-3.304-2.38 0-1.624.952-2.072 3.136-2.072 1.624 0 3.864.364 4.816.7v-3.5c-1.036-.364-2.8-.7-4.984-.7-4.508 0-7.112 1.568-7.112 5.684 0 3.472 1.204 4.62 5.348 5.6 2.968.728 3.528 1.26 3.528 2.744 0 1.736-.84 2.324-3.416 2.324-1.988 0-4.256-.364-5.488-.784v3.724c1.176.336 3.388.7 5.656.7Z" fill="#333"/>
		<path d="m69 94 13 20h-7v40h7l-13 20-13-20h7v-40h-7l13-20Zm31 0 13 20h-7v40h7l-13 20-13-20h7v-40h-7l13-20Zm30 0 13 20h-7v40h7l-13 20-13-20h7v-40h-7l13-20Zm31 0 13 20h-7v40h7l-13 20-13-20h7v-40h-7l13-20Zm-31.865-64.845 15.321 10.428h65.26a6 6 0 0 1 6 6v64.6a6 6 0 0 1-6 6H187.86c-5.8 0-10.5-4.701-10.5-10.5 0-5.704 4.548-10.346 10.215-10.496l.285-.004h6.857v-34.6h-56.728l-15.323-10.429h-88.1v45.029h7.935c5.704 0 10.345 4.548 10.496 10.216l.004.284c0 5.704-4.549 10.346-10.216 10.496l-.284.004H19.567a6 6 0 0 1-6-6V35.155a6 6 0 0 1 6-6h109.568ZM138 69a6 6 0 0 1 0 12H92a6 6 0 1 1 0-12h46ZM137.667.806l11.984 8.354h42.642c5.703 0 10.345 4.548 10.496 10.216l.004.284c0 5.704-4.549 10.346-10.216 10.496l-.284.004h-49.24l-11.985-8.355H37.955c-5.704 0-10.346-4.547-10.497-10.215l-.003-.284C27.455 5.602 32.003.96 37.67.81l.285-.004h99.712Z" fill="#00C1DE"/>
	</g>
</svg>
