<svg xmlns="http://www.w3.org/2000/svg" viewBox="-2.59 -9.09 836.68 182.18">
	<defs>
		<linearGradient id="linear-gradient" x1="-.373" x2=".888" y1="421.631" y2="421.631" gradientTransform="rotate(90 16747.076 16833.052) scale(79.2168)" gradientUnits="userSpaceOnUse">
			<stop offset="0" stop-color="#169ad6"/>
			<stop offset=".993" stop-color="#006fba"/>
			<stop offset="1" stop-color="#006fba"/>
		</linearGradient>
		<linearGradient id="linear-gradient-2" x1="-.333" x2=".928" y1="420.513" y2="420.513" gradientTransform="matrix(0 118.3691 118.3691 0 -49634.784 46.436)" gradientUnits="userSpaceOnUse">
			<stop offset="0" stop-color="#ffcf15"/>
			<stop offset=".847" stop-color="#f89c22"/>
			<stop offset="1" stop-color="#f79224"/>
		</linearGradient>
		<linearGradient id="linear-gradient-3" x1="-.354" x2=".907" y1="420.223" y2="420.223" gradientTransform="matrix(0 92.5273 92.5273 0 -38827.265 72.406)" gradientUnits="userSpaceOnUse">
			<stop offset="0" stop-color="#f89923"/>
			<stop offset=".919" stop-color="#f36626"/>
			<stop offset="1" stop-color="#f26126"/>
		</linearGradient>
		<clipPath id="clip-path">
			<path d="M147.273 105.25c-.03.028-.071.051-.099.076.005.318.034.625.05.946a.976.976 0 0 1-.01.103.852.852 0 0 0 .01.094c-.058 27.553-7.03 49.872-34.599 49.872h84.565a49.97 49.97 0 1 0-49.917-51.092" class="cls-1"/>
		</clipPath>
		<clipPath id="clip-path-2">
			<path d="M67.978 81.67a74.26 74.26 0 0 0 9.29 36.042c7.06 9.39 18.785 33.847-2.91 38.617 1.998 0 19.162.006 38.44.006 27.42-.1 34.368-22.37 34.427-49.866a.852.852 0 0 1-.01-.094.976.976 0 0 0 .01-.103c-.017-.32-.046-.628-.05-.946.027-.025.068-.048.098-.077a49.827 49.827 0 0 1 66.644-45.92A74.682 74.682 0 0 0 67.977 81.67" class="cls-1"/>
		</clipPath>
		<clipPath id="clip-path-3">
			<path d="M13.586 97.962a58.37 58.37 0 0 0 58.156 58.373v.006l2.615-.012c21.696-4.77 9.971-29.226 2.91-38.617a74.59 74.59 0 0 1 3.237-77.423 58.053 58.053 0 0 0-66.918 57.673" class="cls-1"/>
		</clipPath>
		<style>
			.cls-1{fill:none}
		</style>
	</defs>
	<path fill="#1e3944" d="m286.876 155.04 37.459-112.388 14.745.018 37.342 112.476-11.52-.013-10.254-30.654-46.692-.057-9.867 30.63zm44.438-104.546q-1.156 3.532-3.816 12.168t-3.893 12.552l-13.028 40.84 41.47.05-13.006-40.949q-4.438-13.828-7.727-24.66zm57.396 104.667.136-113.2 10.905.014-.136 113.199zm32.178.04.135-113.2 10.906.013-.136 113.199zm78.7-114.412q15.282.018 25.988 7.596 10.704 7.578 14.756 22.327l-10.294 2.369a31.257 31.257 0 0 0-10.424-17.023q-7.673-6.268-20.42-6.284-19.123-.023-27.47 12.408-8.349 12.432-8.376 36.392a133.654 133.654 0 0 0 1.015 17.819 55.663 55.663 0 0 0 3.554 13.75 28.478 28.478 0 0 0 6.632 10.03 27.057 27.057 0 0 0 10.245 5.926 46.28 46.28 0 0 0 14.512 2.052q23.884.03 31.744-21.772l9.595 3.007q-4.624 13.895-15.652 20.87-11.03 6.976-26.312 6.957-23.807-.028-35.464-13.98-11.656-13.955-11.62-44.672.036-29.644 12.571-43.722 12.533-14.077 35.42-14.05zm57.154 114.574.136-113.2 10.905.014-.136 113.199zm62.917-80.101q15.13.017 24.41 10.435 9.28 10.418 9.256 30.385-.023 19.814-9.138 30.516-9.114 10.703-24.703 10.683-15.591-.019-24.677-10.666-9.088-10.646-9.065-30.384.025-20.12 9.33-30.554 9.304-10.433 24.587-10.415zm-.086 7.987a20.884 20.884 0 0 0-11.061 2.79 18.302 18.302 0 0 0-7.037 7.71 41.566 41.566 0 0 0-3.507 10.362 61.55 61.55 0 0 0-1.09 11.903 72.087 72.087 0 0 0 .603 9.677 42.683 42.683 0 0 0 2.217 8.95 26.863 26.863 0 0 0 4.1 7.569 18.058 18.058 0 0 0 6.52 5.076 23.073 23.073 0 0 0 18.432.023 18.283 18.283 0 0 0 6.534-5.023 26.529 26.529 0 0 0 4.118-7.482 42.108 42.108 0 0 0 2.238-8.906 72.403 72.403 0 0 0 .626-9.676 67.361 67.361 0 0 0-.642-9.6 43.728 43.728 0 0 0-2.255-8.912 26.478 26.478 0 0 0-4.1-7.492 18.28 18.28 0 0 0-6.52-5.038 21.106 21.106 0 0 0-9.176-1.931zm103.245 38.83.055-45.08 10.905.012-.094 78.564-10.599-.012.018-14.746a22.792 22.792 0 0 1-10.958 12.352 34.682 34.682 0 0 1-16.632 4.203 31.818 31.818 0 0 1-9.022-1.201 22.475 22.475 0 0 1-6.678-3.08 18.123 18.123 0 0 1-4.602-4.844 27.845 27.845 0 0 1-2.988-5.802 36.222 36.222 0 0 1-1.643-6.721 65.949 65.949 0 0 1-.76-6.836q-.152-2.955-.145-6.873l.055-45.08 10.904.012-.057 47.385q-.014 12.135 3.741 18.32 3.755 6.186 13.125 6.198a26.724 26.724 0 0 0 10.37-1.908 21.115 21.115 0 0 0 7.34-4.79 26.113 26.113 0 0 0 4.54-6.6 29.206 29.206 0 0 0 2.465-7.062 33.503 33.503 0 0 0 .66-6.412zm30.342-4.88q.022-19.428 7.87-30.594 7.846-11.164 22.284-11.147 17.586.021 23.79 13.929l.056-46.923 10.983.013-.136 113.2-8.755-.011-1.442-13.21a23.818 23.818 0 0 1-9.576 10.969 27.34 27.34 0 0 1-14.711 4.053q-14.132-.017-22.257-11.047-8.129-11.03-8.106-29.231zm31.755 32.217a30.62 30.62 0 0 0 6.222-.568 19.396 19.396 0 0 0 5.993-2.528 16.596 16.596 0 0 0 5.382-5.292 30.53 30.53 0 0 0 3.582-9.404 63.174 63.174 0 0 0 1.437-14.282 61.278 61.278 0 0 0-2.167-17.36 24.837 24.837 0 0 0-7.397-11.95 19.224 19.224 0 0 0-13.126-4.585q-9.755-.011-15.14 9.236-5.389 9.25-5.406 24.837-.016 13.98 5.502 22.93 5.518 8.956 15.118 8.966z"/>
	<g clip-path="url(#clip-path)">
		<path fill="url(#linear-gradient)" d="M112.625 56.403h134.539v99.939H112.625z"/>
	</g>
	<g clip-path="url(#clip-path-2)">
		<path fill="url(#linear-gradient-2)" d="M67.978 7h145.94v149.335H67.978z"/>
	</g>
	<g clip-path="url(#clip-path-3)">
		<path fill="url(#linear-gradient-3)" d="M13.586 39.609h82.467v116.732H13.586z"/>
	</g>
</svg>
