<svg xmlns="http://www.w3.org/2000/svg" xml:space="preserve" width="558.84" height="84.16">
	<path d="M2697.1 130.594h114.63c55.45 0 87.5 6.781 119.55 25.883 19.11 11.097 35.12 25.269 48.07 42.531 27.12 35.117 40.06 80.105 40.06 136.191 0 82.578-27.11 147.91-75.18 180.567-28.35 18.492-58.55 25.894-113.4 25.894H2697.1Zm96.75 72.105v266.844h34.52c30.19 0 51.15-8.629 64.09-27.109 17.24-23.418 25.88-61.02 25.88-108.465 0-85.664-32.66-131.27-94.29-131.27zm367.47 236.039h-93.05V130.594h93.05zm8.03 65.938c0 27.109-20.96 43.75-55.48 43.75-34.5 0-55.46-16.641-55.46-44.371 0-27.731 20.96-44.367 55.46-44.367 35.14 0 55.48 16.636 55.48 44.988m148.21-374.082V335.82c17.25 15.403 32.04 21.567 54.22 21.567 11.1 0 19.73-1.231 37.6-6.778v85.047c-13.56 4.309-19.1 4.93-27.73 4.93-24.05 0-46.84-14.793-65.33-42.531h-4.31v40.683h-87.51V130.594Zm355.28 85.054c-28.98-17.882-49.31-24.043-77.04-24.043-49.3 0-70.26 20.34-72.73 68.415h176.27v17.863c0 110.933-42.54 166.394-126.35 166.394-86.27 0-143.58-65.32-143.58-163.933 0-95.516 54.84-154.059 146.05-154.059 33.28 0 63.48 6.16 89.36 17.871 8.62 4.309 13.56 6.782 25.89 14.793zm-64.71 101.68h-84.43c.6 41.91 16.01 64.086 44.99 64.086 26.5 0 39.44-20.328 39.44-62.234zm341.35-102.922c-22.8-15.398-40.67-22.179-61.63-22.179-39.45 0-59.79 30.808-59.79 88.738 0 63.48 20.97 94.293 62.86 94.293 20.97 0 35.76-6.164 56.7-24.649l15.41 61.004c-24.03 20.953-53.61 31.434-89.35 31.434-85.67 0-142.98-64.707-142.98-160.852 0-95.515 53.61-155.91 138.67-155.91 26.49 0 50.53 5.539 70.87 16.645 8.01 4.304 12.32 6.765 22.79 14.789zm234.42-12.316c-13.55-2.473-19.1-2.473-29.58-2.473-25.26 0-33.27 10.481-33.27 41.91v131.27h70.25v65.941h-70.25V541.66h-73.34l-14.79-102.922h-47.45v-63.48h43.75V229.195c0-70.246 25.88-102.91 82.57-102.91 18.5 0 41.92 3.688 56.09 8.012 4.93 1.23 8.01 2.461 16.02 6.16v61.633" style="fill:#194f9a;fill-opacity:1;fill-rule:nonzero;stroke:none" transform="matrix(.13333 0 0 -.13333 0 84.16)"/>
	<path d="m100.078 130.652 29.66 99.203h117.207l27.77-99.203h108.598L275.402 509.09c-6.195 22.34-19.746 32.676-43.246 32.676H78.527v-35.735h12.918c16.043 0 24.723-6.254 24.723-18.535 0-8.039-1.801-14.793-8.168-33.219L0 130.652Zm132.078 166.465h-86.988l46.297 150.961z" style="fill:#194f9a;fill-opacity:1;fill-rule:nonzero;stroke:none" transform="matrix(.13333 0 0 -.13333 0 84.16)"/>
	<path d="M508.383 130.652v379.625c0 19.77-11.613 31.489-30.805 31.489h-94.973v-35.735h6.176c16.032 0 22.793-6.781 22.793-22.945V130.652h96.809" style="fill:#194f9a;fill-opacity:1;fill-rule:nonzero;stroke:none" transform="matrix(.13333 0 0 -.13333 0 84.16)"/>
	<path d="M673.055 130.652v379.625c0 19.77-11.77 31.489-30.86 31.489h-94.957v-35.735h6.051c16.121 0 22.899-6.781 22.899-22.945V130.652h96.867" style="fill:#194f9a;fill-opacity:1;fill-rule:nonzero;stroke:none" transform="matrix(.13333 0 0 -.13333 0 84.16)"/>
	<path d="M840.164 130.652v276.739c0 19.722-11.777 31.386-30.93 31.386h-93.718v-35.062h5.515c16.028 0 22.805-7.356 22.805-23.41V130.652Zm1.805 373.606c0 27.558-20.418 44.242-55.508 44.242-34.52 0-55.613-16.684-55.613-44.242 0-27.899 21.093-44.41 55.613-44.41 35.09 0 55.508 16.511 55.508 44.41" style="fill:#194f9a;fill-opacity:1;fill-rule:nonzero;stroke:none" transform="matrix(.13333 0 0 -.13333 0 84.16)"/>
	<path d="M921.941 350.59c32.137 15.414 67.313 24.066 95.029 24.066 25.99 0 35.24-9.254 35.24-36.207v-6.871c-39.46-6.234-51.78-8.754-74.038-13.656-12.844-3.027-24.746-6.684-36.445-11.66-38.938-15.586-57.305-45.606-57.305-91.797 0-58.543 25.262-86.856 77.676-86.856 19.121 0 36.433 3.661 51.892 9.762 13.53 6 21.55 11.051 41.35 26.477v-4.297c0-19.082 9.8-28.895 28.98-28.895h88.22v33.192h-4.36c-16.62 0-22.76 7.449-22.76 27.097v146.778c0 78.23-27.17 105.472-105.61 105.472-25.24 0-49.912-3.215-73.915-8.73-24.168-5.481-36.563-10.43-65.391-24.652zm130.269-71.938v-59.906c-16.09-16.637-35.75-26.617-52.37-26.617-17.371 0-23.445 8.519-23.445 31.605 0 22.805 4.824 33.176 22.136 39.903 12.929 5.605 29.599 10.515 53.679 15.015" style="fill:#194f9a;fill-opacity:1;fill-rule:nonzero;stroke:none" transform="matrix(.13333 0 0 -.13333 0 84.16)"/>
	<path d="M1313.02 130.652v208.336c16.11 17.899 32.7 25.961 51.84 25.961 20.44 0 25.31-8.062 25.31-39.058V130.652h96.22v209.5c0 48.778-3.55 64.184-19.02 80.727-12.98 14.273-32.72 21.574-58.1 21.574-37.66 0-64.17-11.668-99.78-44.957v12.301c0 19.18-10.04 28.98-29.74 28.98h-91.38v-35.062h5.54c16.04 0 22.9-7.356 22.9-23.41V130.652h96.21" style="fill:#194f9a;fill-opacity:1;fill-rule:nonzero;stroke:none" transform="matrix(.13333 0 0 -.13333 0 84.16)"/>
	<path d="M1771.97 195.352h-134.49l128.36 179.871v63.593h-201.08c-22.84 0-33.33-10.449-33.33-33.324v-55.996h35.75v5.508c0 14.144 7.41 20.926 22.74 20.926h69.2l-129.58-181.86v-63.418h242.43v64.7" style="fill:#194f9a;fill-opacity:1;fill-rule:nonzero;stroke:none" transform="matrix(.13333 0 0 -.13333 0 84.16)"/>
	<path d="M2547.43 315.555c0 180.484-135.15 315.648-315.9 315.648-180.84 0-315.96-135.164-315.96-315.648 0-180.707 135.12-315.559 315.96-315.559 180.75 0 315.9 134.852 315.9 315.559m-53.67 0c0-153.485-110.45-265.075-262.23-265.075-151.78 0-262.27 111.59-262.27 265.075 0 153.531 110.49 265.117 262.27 265.117 151.78 0 262.23-112.285 262.23-265.117m-348-177.039V446.84h-53.69c-26.56 0-37-9.817-37-37.047V138.516Zm171.61 0h90.65v271.277c0 27.23-10.51 37.047-37.1 37.047h-53.55zm-40.24 0V486.84c0 27.758-9.88 37.09-36.86 37.09h-81.6v-38.895h4.88c18.63 0 22.23-4.183 22.23-26.59V138.516h91.35" style="fill:#194f9a;fill-opacity:1;fill-rule:nonzero;stroke:none" transform="matrix(.13333 0 0 -.13333 0 84.16)"/>
</svg>
