<svg xmlns="http://www.w3.org/2000/svg" viewBox="-11.17 -11.17 580.84 106.34">
	<path d="M359.604 66.748h15.284c7.393 0 11.666-.904 15.94-3.451 2.547-1.48 4.682-3.37 6.409-5.67 3.616-4.683 5.34-10.681 5.34-18.16 0-11.01-3.614-19.72-10.023-24.074-3.78-2.466-7.806-3.453-15.12-3.453h-17.83zm12.9-9.614V21.556h4.603c4.025 0 6.82 1.15 8.545 3.614 2.298 3.123 3.45 8.136 3.45 14.462 0 11.421-4.354 17.502-12.571 17.502zm48.995-31.47h-12.407v41.084H421.5zm1.07-8.792c0-3.615-2.794-5.834-7.397-5.834-4.6 0-7.394 2.22-7.394 5.916 0 3.698 2.794 5.916 7.394 5.916 4.685 0 7.397-2.218 7.397-5.998m19.761 49.876V39.385c2.3-2.054 4.272-2.875 7.23-2.875 1.48 0 2.63.164 5.013.903V26.074c-1.808-.575-2.547-.657-3.698-.657-3.206 0-6.245 1.972-8.71 5.67h-.575v-5.424h-11.667v41.085zm47.37-11.34c-3.864 2.384-6.575 3.205-10.272 3.205-6.573 0-9.368-2.712-9.697-9.121h23.502V47.11c0-14.79-5.672-22.185-16.846-22.185-11.503 0-19.144 8.709-19.144 21.857 0 12.735 7.312 20.54 19.473 20.54 4.437 0 8.464-.82 11.914-2.382 1.15-.575 1.808-.905 3.452-1.973zm-8.628-13.557h-11.257c.08-5.588 2.135-8.545 5.998-8.545 3.534 0 5.259 2.71 5.259 8.298zm45.512 13.722c-3.04 2.053-5.422 2.957-8.217 2.957-5.26 0-7.972-4.107-7.972-11.831 0-8.464 2.796-12.572 8.381-12.572 2.796 0 4.768.822 7.56 3.286l2.055-8.133c-3.204-2.794-7.148-4.191-11.913-4.191-11.423 0-19.064 8.627-19.064 21.446 0 12.735 7.148 20.787 18.49 20.787 3.531 0 6.736-.738 9.448-2.219 1.068-.574 1.643-.902 3.039-1.972zm31.255 1.642c-1.806.33-2.546.33-3.944.33-3.367 0-4.435-1.397-4.435-5.588V34.455h9.366v-8.792h-9.366V11.94h-9.779l-1.972 13.723h-6.326v8.464h5.833V53.6c0 9.366 3.45 13.721 11.009 13.721 2.467 0 5.59-.491 7.478-1.068.658-.164 1.068-.328 2.136-.821v-8.218M13.343 66.74l3.955-13.227h15.627l3.703 13.227h14.48l-14.39-50.457c-.826-2.979-2.632-4.357-5.766-4.357H10.47v4.765h1.722c2.14 0 3.297.834 3.297 2.471 0 1.072-.24 1.973-1.09 4.43L0 66.74zm17.61-22.195H19.355l6.173-20.127zm36.83 22.195V16.125c0-2.636-1.549-4.199-4.108-4.199H51.013v4.765h.823c2.138 0 3.04.904 3.04 3.06v46.99h12.907m21.955 0V16.124c0-2.636-1.569-4.199-4.114-4.199h-12.66v4.765h.806c2.15 0 3.053.904 3.053 3.06v46.99h12.915m22.281 0V29.842c0-2.63-1.57-4.185-4.124-4.185H95.4v4.675h.735c2.137 0 3.04.98 3.04 3.12V66.74zm.24-49.814c0-3.674-2.722-5.899-7.4-5.899-4.603 0-7.415 2.225-7.415 5.9 0 3.72 2.812 5.92 7.415 5.92 4.678 0 7.4-2.2 7.4-5.92m10.663 20.488c4.285-2.055 8.975-3.209 12.67-3.209 3.466 0 4.7 1.234 4.7 4.828v.916c-5.262.83-6.905 1.167-9.872 1.82-1.713.404-3.3.892-4.86 1.555-5.191 2.078-7.64 6.08-7.64 12.24 0 7.805 3.368 11.58 10.357 11.58a18.7 18.7 0 0 0 6.918-1.302c1.804-.8 2.874-1.473 5.513-3.53v.573c0 2.544 1.307 3.853 3.864 3.853h11.763v-4.426h-.582c-2.216 0-3.034-.993-3.034-3.613V39.13c0-10.43-3.623-14.062-14.081-14.062-3.365 0-6.655.428-9.855 1.164-3.223.73-4.875 1.39-8.719 3.287zm17.37 9.591v7.988c-2.146 2.218-4.767 3.548-6.983 3.548-2.316 0-3.126-1.135-3.126-4.213 0-3.041.643-4.424 2.951-5.32 1.724-.748 3.947-1.403 7.157-2.003m34.774 19.733V38.963c2.148-2.387 4.36-3.462 6.912-3.462 2.725 0 3.374 1.075 3.374 5.208V66.74h12.83V38.808c0-6.504-.474-8.558-2.537-10.764-1.73-1.903-4.362-2.876-7.746-2.876-5.021 0-8.556 1.555-13.304 5.994v-1.64c0-2.557-1.338-3.864-3.965-3.864h-12.184v4.675h.739c2.139 0 3.053.98 3.053 3.12V66.74h12.828m61.192-8.626h-17.932l17.114-23.982v-8.48h-26.81c-3.045 0-4.443 1.394-4.443 4.444v7.466h4.766v-.735c0-1.885.988-2.79 3.032-2.79h9.226l-17.276 24.248v8.455h32.323v-8.626m103.392-16.027c0-24.064-18.02-42.085-42.12-42.085-24.11 0-42.126 18.021-42.126 42.085 0 24.094 18.016 42.074 42.127 42.074 24.1 0 42.119-17.98 42.119-42.074m-7.156 0c0 20.464-14.726 35.342-34.963 35.342-20.237 0-34.969-14.878-34.969-35.342 0-20.47 14.732-35.348 34.969-35.348 20.237 0 34.963 14.971 34.963 35.348m-46.399 23.605v-41.11h-7.158c-3.542 0-4.934 1.31-4.934 4.94v36.17zm22.88 0h12.087v-36.17c0-3.63-1.401-4.94-4.946-4.94h-7.14zm-5.364 0V19.25c0-3.701-1.318-4.946-4.915-4.946h-10.88v5.186h.651c2.484 0 2.964.558 2.964 3.546v42.656h12.18" fill="#194f9a"/>
</svg>
