<svg viewBox="0 0 500 500" xmlns="http://www.w3.org/2000/svg">
	<path d="M167.221 355.463c24.716 18.972 53.872 28.14 82.795 28.117v75.826c-45.051.035-90.467-14.245-128.966-43.797a213.724 213.724 0 0 1-20.808-18.22l53.621-53.621a137.375 137.375 0 0 0 13.358 11.695Zm218.697-108.505h.05c-.193-34.979-13.825-69.564-39.81-95.485l53.621-53.621c40.567 40.468 61.808 94.494 62.018 149.106h.022v.657h-75.901Zm-53.127-107.189c-24.711-18.968-53.859-28.135-82.775-28.117V35.823c45.044-.03 90.45 14.25 128.942 43.797a213.626 213.626 0 0 1 20.821 18.232l-53.621 53.621a137.2 137.2 0 0 0-13.367-11.704ZM250.016 35.823v75.829c-35.206.023-70.066 13.663-96.152 39.811a137.34 137.34 0 0 0-11.705 13.368c-18.971 24.713-28.139 53.865-28.118 82.784.025 35.207 13.668 70.068 39.822 96.153l-53.621 53.621c-40.738-40.632-61.989-94.933-62.029-149.774-.032-45.047 14.248-90.457 43.798-128.953a213.87 213.87 0 0 1 18.231-20.821c40.633-40.733 94.935-61.981 149.774-62.018Zm107.837 294.578c18.124-23.612 27.301-51.275 28.065-78.916v-3.87h75.901v176.04h-.022c-.276 9.3-3.899 18.311-10.681 25.06a35.968 35.968 0 0 1-3.055 2.712c-16.142 12.779-40.057 9.46-53.416-7.414-4.855-6.133-7.647-13.215-8.459-20.358h-.268v-13.566c-38.698 32.435-87.086 49.279-135.902 49.317V383.58c35.204-.028 70.061-13.672 96.143-39.822a137.354 137.354 0 0 0 11.694-13.357Z" style="fill:#aaa"/>
	<path d="M167.221 355.463c24.716 18.972 53.872 28.14 82.795 28.117v75.826c-45.051.035-90.467-14.245-128.966-43.797a213.724 213.724 0 0 1-20.808-18.22l53.621-53.621a137.375 137.375 0 0 0 13.358 11.695Z" style="fill:#aaa"/>
	<path d="M385.918 246.958h.05c-.193-34.979-13.825-69.564-39.81-95.485l53.621-53.621c40.567 40.468 61.808 94.494 62.018 149.106h.022v.657h-75.901Z" style="fill:#d35ebe"/>
	<path d="M332.791 139.769c-24.711-18.968-53.859-28.135-82.775-28.117V35.823c45.044-.03 90.45 14.25 128.942 43.797a213.626 213.626 0 0 1 20.821 18.232l-53.621 53.621a137.2 137.2 0 0 0-13.367-11.704Z" style="fill:#fd5a3e"/>
	<path d="M250.016 35.823v75.829c-35.206.023-70.066 13.663-96.152 39.811a137.34 137.34 0 0 0-11.705 13.368c-18.971 24.713-28.139 53.865-28.118 82.784.025 35.207 13.668 70.068 39.822 96.153l-53.621 53.621c-40.738-40.632-61.989-94.933-62.029-149.774-.032-45.047 14.248-90.457 43.798-128.953a213.87 213.87 0 0 1 18.231-20.821c40.633-40.733 94.935-61.981 149.774-62.018Z" style="fill:#97cc64"/>
	<path d="M357.853 330.401c18.124-23.612 27.301-51.275 28.065-78.916v-3.87h75.901v176.04h-.022c-.276 9.3-3.899 18.311-10.681 25.06a35.968 35.968 0 0 1-3.055 2.712c-16.142 12.779-40.057 9.46-53.416-7.414-4.855-6.133-7.647-13.215-8.459-20.358h-.268v-13.566c-38.698 32.435-87.086 49.279-135.902 49.317V383.58c35.204-.028 70.061-13.672 96.143-39.822a137.354 137.354 0 0 0 11.694-13.357Z" style="fill:#ffd050"/>
</svg>
