<svg xmlns="http://www.w3.org/2000/svg" height="1056" width="1632" xml:space="preserve">
	<defs>
		<clipPath id="a" clipPathUnits="userSpaceOnUse">
			<path d="M0 792h1224V0H0Z"/>
		</clipPath>
	</defs>
	<g clip-path="url(#a)" transform="matrix(1.33333 0 0 -1.33333 0 1056)">
		<path style="fill:#156fdb;fill-opacity:1;fill-rule:nonzero;stroke:none" d="M0 0c-11.989 27.49-17.691 40.65-20.03 47.961h-.149C-22.372 40.942-29.096 23.543-38.895 0Zm-43.864-14.327-12.43-29.537h-17.285l43.458 103.668H-8.92L36.848-43.864h-18.57L5.264-14.327Z" transform="translate(307.063 186.633)"/>
		<path style="fill:#156fdb;fill-opacity:1;fill-rule:nonzero;stroke:none" d="M0 0h17.107v-89.337H78.52l-2.488-14.331H0Z" transform="translate(373.858 246.437)"/>
		<path style="fill:#156fdb;fill-opacity:1;fill-rule:nonzero;stroke:none" d="M0 0h17.107v-89.337H78.52l-2.488-14.331H0Z" transform="translate(482.324 246.437)"/>
		<path style="fill:#156fdb;fill-opacity:1;fill-rule:nonzero;stroke:none" d="M0 0v-58.779c0-26.027 14.914-33.046 29.829-33.046 17.694 0 28.661 8.19 28.661 33.046V0h17.107v-58.925c0-33.192-17.548-46.936-46.352-46.936-28.22 0-46.498 13.744-46.498 45.911V0z" transform="translate(601.867 246.437)"/>
		<path style="fill:#156fdb;fill-opacity:1;fill-rule:nonzero;stroke:none" d="m0 0-31.876 41.38h-.295L-63.167 0h-19.449l40.795 53.076-39.187 50.592h20.471L-31 64.922l.146.146 29.829 38.6h19.154l-39.771-50.005L20.322 0Z" transform="translate(790.993 142.77)"/>
		<path style="fill:#156fdb;fill-opacity:1;fill-rule:nonzero;stroke:none" d="M863.553 142.769H846.3v103.668h17.253z"/>
		<path style="fill:#156fdb;fill-opacity:1;fill-rule:nonzero;stroke:none" d="M0 0c0-21.642 12.722-40.65 37.14-40.65 24.272 0 36.261 18.862 36.261 40.066 0 20.763-12.43 39.917-37.286 39.917C13.014 39.333 0 20.909 0 0m91.533-.292c0-29.245-19.741-54.393-55.126-54.393-33.776 0-54.539 23.98-54.539 54.393 0 28.658 21.35 53.663 55.126 53.663 33.776 0 54.539-25.005 54.539-53.663" transform="translate(919.377 195.262)"/>
		<path style="fill:#156fdb;fill-opacity:1;fill-rule:nonzero;stroke:none" d="M0 0h-86.408l-133.649 247.76L-343.13 17.954h49.533l88.946 167.102 10.154-18.481L-283.052.406h-89.38l152.317 284.418L-75.937 17.548h46.819l-121.738 230.395-15.501-28.402-10.125 18.25 26.08 46.851z" transform="translate(816.733 350.206)"/>
		<path style="fill:#156fdb;fill-opacity:1;fill-rule:nonzero;stroke:none" d="M0 0h-104.083l9.208 17.548h85.5z" transform="translate(683.751 402.803)"/>
	</g>
</svg>
