<svg xmlns="http://www.w3.org/2000/svg" width="200" height="128">
    <path fill="#5f5ff6" d="M60.31 58.04h5.77v16.31h4.07V58.04h5.77V54H60.31v4.04zM49.37 70.06a2.91 2.91 0 01-1.13-.65 2.22 2.22 0 01-.58-1 4.45 4.45 0 01-.18-1.25V54h-4v13.23a9.37 9.37 0 00.41 2.83 5.76 5.76 0 001.35 2.28 6.43 6.43 0 002.38 1.49 10 10 0 003.21.53h8.37v-4h-8a5.81 5.81 0 01-1.83-.3zM34.1 54.25a5.37 5.37 0 00-2.68-.6 5.55 5.55 0 00-2.76.61A4.07 4.07 0 0027 56.38l-7.1 18h4.44l6.35-16.09a.71.71 0 01.73-.48.67.67 0 01.68.48l6.07 16.09h4.47L35.78 56.4a3.9 3.9 0 00-1.68-2.15zM117.86 64.08a5.71 5.71 0 00-2.15-1.41 9.23 9.23 0 00-3.41-.53h-4.64a4.09 4.09 0 01-1.34-.18 2.14 2.14 0 01-.77-.45 1.65 1.65 0 01-.4-.64 3 3 0 01-.11-.79 2.07 2.07 0 01.53-1.47 2.3 2.3 0 011.75-.57h10.43V54h-10.31a8.47 8.47 0 00-2.91.44 5.3 5.3 0 00-2 1.26 4.79 4.79 0 00-1.16 1.92A7.83 7.83 0 00101 60a8.48 8.48 0 00.29 2.13 5.06 5.06 0 001.07 2 5.3 5.3 0 002.09 1.39 9.32 9.32 0 003.35.52h4.61a4.25 4.25 0 011.41.19 2.4 2.4 0 01.84.47 1.69 1.69 0 01.42.67 3 3 0 01.13.85 2.16 2.16 0 01-.58 1.55 2.46 2.46 0 01-1.85.6h-11.43v4h11.51a8.74 8.74 0 002.77-.46 5.48 5.48 0 002.06-1.29 5 5 0 001.19-1.94 7.57 7.57 0 00.36-2.41 8.42 8.42 0 00-.29-2.18 4.73 4.73 0 00-1.09-2.01zM173.18 56.4a3.87 3.87 0 00-1.69-2.15 5.37 5.37 0 00-2.68-.6 5.55 5.55 0 00-2.76.61 4 4 0 00-1.68 2.12l-7.1 18h4.43l6.35-16.09a.72.72 0 01.73-.48.66.66 0 01.68.48l6.08 16.09H180zM153.57 65.45a5.72 5.72 0 001.36-1.5 6.59 6.59 0 00.77-1.81 7.85 7.85 0 00.24-1.93 7.51 7.51 0 00-.38-2.35 5.4 5.4 0 00-1.21-2 5.9 5.9 0 00-2.09-1.36 7.9 7.9 0 00-3-.5h-11v4h11.13a2.36 2.36 0 011.87.67 2.47 2.47 0 01.59 1.64 3 3 0 01-.15.94 2.27 2.27 0 01-.42.78 2.15 2.15 0 01-.74.53 2.86 2.86 0 01-1.15.21h-7.7a3 3 0 00-3.4 3.43v8.11h4v-7.44s0-.08.05-.1a.17.17 0 01.11 0h5l4.51 7.64h4.52l-4.67-8a5.94 5.94 0 001.76-.96zM89.19 54H86.5a9 9 0 00-6.85 2.55c-1.58 1.69-2.38 4.27-2.38 7.67s.8 5.94 2.38 7.61 3.89 2.52 6.85 2.52h2.69c3 0 5.26-.84 6.85-2.52s2.38-4.23 2.38-7.61-.8-6-2.38-7.67A9 9 0 0089.19 54zm5.16 10.19c0 2.18-.42 3.77-1.24 4.72a4.94 4.94 0 01-3.92 1.4H86.5a5 5 0 01-4-1.39c-.81-.94-1.22-2.52-1.22-4.7s.42-3.8 1.24-4.76a5 5 0 014-1.42h2.69a4.93 4.93 0 013.94 1.42c.79.96 1.2 2.54 1.2 4.73zM120.06 58.04h5.77v16.31h4.07V58.04h5.77V54h-15.61v4.04z"/>
</svg>
