<svg xmlns="http://www.w3.org/2000/svg" width="200" height="128">
	<defs>
		<linearGradient id="a" x1="-213.09" y1="-359.5" x2="-213.09" y2="-209.5" gradientTransform="rotate(-135 3.993 -165)" gradientUnits="userSpaceOnUse">
			<stop offset="0" stop-color="#c8511b"/>
			<stop offset="1" stop-color="#f90"/>
		</linearGradient>
	</defs>
	<path d="m78.85 90.74-1-2.95h-4.59l-1 2.95h-1.67l4.1-11.09h1.76l4.09 11.09zm-5.17-4.18h3.73l-1.87-5.44zm18.58 4.18v-5.51a1.83 1.83 0 0 0-.26-1.18 1.13 1.13 0 0 0-1-.39 4.49 4.49 0 0 0-2.35.72 1.94 1.94 0 0 1 0 .24v6.12h-1.58v-5.51a1.9 1.9 0 0 0-.3-1.18 1.13 1.13 0 0 0-1-.39 4.35 4.35 0 0 0-2.34.71v6.37h-1.54v-8.12h1.33l.16.82a5.32 5.32 0 0 1 3-1.06 2 2 0 0 1 2 1.14 5.43 5.43 0 0 1 3.17-1.14 2.23 2.23 0 0 1 1.7.63 2.49 2.49 0 0 1 .59 1.77v6zm8.68 0-.12-.84a4.2 4.2 0 0 1-1.28.77 3.76 3.76 0 0 1-1.38.27 2.54 2.54 0 0 1-1.82-.64 2.31 2.31 0 0 1-.68-1.74 2.28 2.28 0 0 1 .84-1.86 3.34 3.34 0 0 1 2.24-.7 8.38 8.38 0 0 1 2 .27v-1a1.59 1.59 0 0 0-.39-1.22 2 2 0 0 0-1.35-.4 8.71 8.71 0 0 0-2.81.49V83a5.17 5.17 0 0 1 1.41-.47 8.55 8.55 0 0 1 1.68-.17 3.29 3.29 0 0 1 2.24.64 2.42 2.42 0 0 1 .72 1.92v5.8zm-2.4-1a3.75 3.75 0 0 0 2.21-.81V87.3a6.86 6.86 0 0 0-1.69-.21c-1.21 0-1.81.46-1.81 1.39a1.27 1.27 0 0 0 .33.94 1.37 1.37 0 0 0 .96.32zm5.46 1v-1.22l4.66-5.65h-4.5v-1.25h6.26v1.2l-4.72 5.67h4.76v1.25zm11.52.24a3.63 3.63 0 0 1-2.85-1.14 5.4 5.4 0 0 1 0-6.32 4.13 4.13 0 0 1 5.7 0 5.4 5.4 0 0 1 0 6.32 3.63 3.63 0 0 1-2.85 1.16zm0-1.28c1.5 0 2.26-1 2.26-3s-.76-3-2.26-3-2.26 1-2.26 3 .74 3 2.26 3zm11.31 1v-5.39a1.9 1.9 0 0 0-.34-1.25 1.37 1.37 0 0 0-1.08-.4 4.45 4.45 0 0 0-2.48.82v6.26h-1.59v-8.12h1.33l.16.9a5.27 5.27 0 0 1 3.2-1.14 2.41 2.41 0 0 1 1.78.62 2.46 2.46 0 0 1 .61 1.78v6zm-39.62 16V95.65h7.29v1.85h-4.89v2.63h4V102h-4v2.9h4.89v1.86zm17-.29a8 8 0 0 1-2.89.49 5.44 5.44 0 0 1-4.1-1.44 7.13 7.13 0 0 1 .05-8.46 5.42 5.42 0 0 1 4.1-1.52 7.88 7.88 0 0 1 2.67.45v1.89a11.09 11.09 0 0 0-2.38-.32 3.24 3.24 0 0 0-2.49.88 3.79 3.79 0 0 0-.83 2.68v.37a3.82 3.82 0 0 0 .81 2.67 3.14 3.14 0 0 0 2.44.87 12.8 12.8 0 0 0 2.61-.37zm1.66-9.79a6.43 6.43 0 0 1 1.76-1 5.68 5.68 0 0 1 1.89-.29 3.46 3.46 0 0 1 2.44.84 2.9 2.9 0 0 1 .92 2.24 3.74 3.74 0 0 1-.46 1.73 10.52 10.52 0 0 1-1.47 2c-.68.75-1.58 1.64-2.71 2.66h5.09v1.86h-7.74V105c1.36-1.38 2.38-2.45 3.06-3.23a11.57 11.57 0 0 0 1.41-1.86 2.71 2.71 0 0 0 .39-1.3 1.23 1.23 0 0 0-.37-1 1.37 1.37 0 0 0-1-.34 4.42 4.42 0 0 0-1.54.32 8.2 8.2 0 0 0-1.68.91z" fill="#333"/>
	<path d="M73 19h54v54H73z" fill="url(#a)"/>
	<path d="M116.6 48.2H113v-1.5h3.6V29.4H99.3V33h-1.5v-3.6a1.39 1.39 0 0 1 1.5-1.4h17.3a1.37 1.37 0 0 1 1.4 1.4v17.3a1.52 1.52 0 0 1-1.4 1.5zM100.7 64H83.4a1.37 1.37 0 0 1-1.4-1.4V45.3a1.52 1.52 0 0 1 1.4-1.5H87v1.5h-3.6v17.3h17.3V59h1.5v3.6a1.39 1.39 0 0 1-1.5 1.4zm10.8-24.5v-1.4h-2.1a1.61 1.61 0 0 0-1.5-1.5v-2.1h-1.4v2.1h-2.2v-2.1h-1.4v2.1h-2.2v-2.1h-1.4v2.1h-2.2v-2.1h-1.4v2.1h-2.2v-2.1h-1.4v2.1a1.61 1.61 0 0 0-1.5 1.5h-2.1v1.4h2.1v2.2h-2.1v1.4h2.1v2.2h-2.1v1.4h2.1v2.2h-2.1v1.4h2.1v2.2h-2.1v1.4h2.1a1.61 1.61 0 0 0 1.5 1.5v2.1h1.4v-2.1h2.2v2.1h1.4v-2.1h2.2v2.1h1.4v-2.1h2.2v2.1h1.4v-2.1h2.2v2.1h1.4v-2.1a1.61 1.61 0 0 0 1.5-1.5h2.1v-1.4h-2.1v-2.2h2.1v-1.4h-2.1v-2.2h2.1v-1.4h-2.1v-2.2h2.1v-1.4h-2.1v-2.2zm-3.6 14.3a.1.1 0 0 1-.1.1H92.2a.1.1 0 0 1-.1-.1V38.2a.1.1 0 0 1 .1-.1h15.6a.1.1 0 0 1 .1.1z" fill="#fff"/>
</svg>
