<svg xmlns="http://www.w3.org/2000/svg" width="200" height="128">
	<defs>
		<linearGradient id="a" x1="19.97" y1="225.03" x2="126.03" y2="118.97" gradientTransform="translate(0 -99)" gradientUnits="userSpaceOnUse">
			<stop offset="0" stop-color="#2e27ad"/>
			<stop offset="1" stop-color="#527fff"/>
		</linearGradient>
	</defs>
	<path d="m78.85 90.74-1-2.95h-4.59l-1 2.95h-1.67l4.1-11.09h1.76l4.09 11.09zm-5.17-4.18h3.73l-1.87-5.44zm18.58 4.18v-5.51a1.83 1.83 0 0 0-.26-1.18 1.13 1.13 0 0 0-1-.39 4.49 4.49 0 0 0-2.35.72 1.94 1.94 0 0 1 0 .24v6.12h-1.58v-5.51a1.9 1.9 0 0 0-.3-1.18 1.13 1.13 0 0 0-1-.39 4.35 4.35 0 0 0-2.34.71v6.37h-1.54v-8.12h1.33l.16.82a5.32 5.32 0 0 1 3-1.06 2 2 0 0 1 2 1.14 5.43 5.43 0 0 1 3.17-1.14 2.23 2.23 0 0 1 1.7.63 2.49 2.49 0 0 1 .59 1.77v6zm8.68 0-.12-.84a4.2 4.2 0 0 1-1.28.77 3.76 3.76 0 0 1-1.38.27 2.54 2.54 0 0 1-1.82-.64 2.31 2.31 0 0 1-.68-1.74 2.28 2.28 0 0 1 .84-1.86 3.34 3.34 0 0 1 2.24-.7 8.38 8.38 0 0 1 2 .27v-1a1.59 1.59 0 0 0-.39-1.22 2 2 0 0 0-1.35-.4 8.71 8.71 0 0 0-2.81.49V83a5.17 5.17 0 0 1 1.41-.47 8.55 8.55 0 0 1 1.68-.17 3.29 3.29 0 0 1 2.24.64 2.42 2.42 0 0 1 .72 1.92v5.8zm-2.4-1a3.75 3.75 0 0 0 2.21-.81V87.3a6.86 6.86 0 0 0-1.69-.21c-1.21 0-1.81.46-1.81 1.39a1.27 1.27 0 0 0 .33.94 1.37 1.37 0 0 0 .96.32zm5.46 1v-1.22l4.66-5.65h-4.5v-1.25h6.26v1.2l-4.72 5.67h4.76v1.25zm11.52.24a3.63 3.63 0 0 1-2.85-1.14 5.4 5.4 0 0 1 0-6.32 4.13 4.13 0 0 1 5.7 0 5.4 5.4 0 0 1 0 6.32 3.63 3.63 0 0 1-2.85 1.16zm0-1.28c1.5 0 2.26-1 2.26-3s-.76-3-2.26-3-2.26 1-2.26 3 .74 3 2.26 3zm11.31 1v-5.39a1.9 1.9 0 0 0-.34-1.25 1.37 1.37 0 0 0-1.08-.4 4.45 4.45 0 0 0-2.48.82v6.26h-1.59v-8.12h1.33l.16.9a5.27 5.27 0 0 1 3.2-1.14 2.41 2.41 0 0 1 1.78.62 2.46 2.46 0 0 1 .61 1.78v6zm-67.62 16V95.65h4A5 5 0 0 1 67 97.08a7 7 0 0 1 0 8.21 4.9 4.9 0 0 1-3.77 1.45zm2.4-9.24v7.38H63c1.94 0 2.9-1.18 2.9-3.54v-.3c0-2.34-1-3.52-2.91-3.52zm11 9.36-3.23-8.3h2.48l1.82 6.11 1.73-6.11h2.42l-3.46 9.28a4.19 4.19 0 0 1-1.14 1.82 2.5 2.5 0 0 1-1.69.56A4.79 4.79 0 0 1 70 110v-1.59a7.65 7.65 0 0 0 .91.05 1.56 1.56 0 0 0 1-.31 2.46 2.46 0 0 0 .62-1.08zm11.65-.12v-5.36a1.36 1.36 0 0 0-.29-1 1.12 1.12 0 0 0-.88-.31 3.16 3.16 0 0 0-1.74.55v6.08H79v-8.1h1.92l.22.88a4.91 4.91 0 0 1 3.08-1.12 2.14 2.14 0 0 1 2.36 2.37v6zm9.23 0-.19-.72a3.84 3.84 0 0 1-1.15.71 3.41 3.41 0 0 1-1.25.26 2.66 2.66 0 0 1-1.9-.67 2.36 2.36 0 0 1-.71-1.79 2.45 2.45 0 0 1 .38-1.35 2.6 2.6 0 0 1 1.11-.92 3.86 3.86 0 0 1 1.69-.34 7.72 7.72 0 0 1 1.7.21v-.8a1.34 1.34 0 0 0-.3-1 1.75 1.75 0 0 0-1.12-.27 9.78 9.78 0 0 0-2.9.49V99a6.19 6.19 0 0 1 1.49-.49 9.21 9.21 0 0 1 1.82-.18 3.63 3.63 0 0 1 2.41.66 2.63 2.63 0 0 1 .76 2.09v5.67zm-1.94-1.32a2.09 2.09 0 0 0 .83-.17 3.21 3.21 0 0 0 .79-.48v-1.39a7.59 7.59 0 0 0-1.26-.12c-.93 0-1.4.38-1.4 1.12a1 1 0 0 0 1 1zm16.12 1.32v-5.5c0-.73-.33-1.09-1-1.09a4 4 0 0 0-1.74.42v6.21h-2.33v-5.54c0-.73-.32-1.09-1-1.09a4 4 0 0 0-1.76.43v6.2h-2.31v-8.18h1.92l.21.78a7.19 7.19 0 0 1 1.52-.79 4.46 4.46 0 0 1 1.4-.23 2.17 2.17 0 0 1 2 1 6.52 6.52 0 0 1 1.53-.78 4.7 4.7 0 0 1 1.49-.24 2.36 2.36 0 0 1 1.74.62 2.39 2.39 0 0 1 .61 1.75v6zm8.17.24a3.87 3.87 0 0 1-3-1.15 5.24 5.24 0 0 1 0-6.37 4.45 4.45 0 0 1 6 0 5.28 5.28 0 0 1 0 6.37 3.91 3.91 0 0 1-3.01 1.21zm0-1.8c1.12 0 1.68-.84 1.68-2.54s-.56-2.53-1.68-2.53-1.68.85-1.68 2.53.55 2.58 1.67 2.58zm6 1.56V95.65h4a5 5 0 0 1 3.81 1.43 7 7 0 0 1 0 8.21 4.87 4.87 0 0 1-3.76 1.45zm2.4-9.24v7.38h1.38q2.89 0 2.9-3.54v-.3c0-2.34-1-3.52-2.92-3.52zm9 9.24V95.65h4a4 4 0 0 1 2.59.81 2.67 2.67 0 0 1 1 2.13 2.33 2.33 0 0 1-1.49 2.31 2.85 2.85 0 0 1 1.56 1 2.68 2.68 0 0 1 .54 1.7 2.79 2.79 0 0 1-1.07 2.29 4.57 4.57 0 0 1-2.88.85zm2.27-9.38v2.91h1.39q1.56 0 1.56-1.44a1.28 1.28 0 0 0-1.46-1.43zm0 4.54V105h1.89c1.09 0 1.63-.51 1.63-1.53s-.58-1.59-1.74-1.59z" fill="#333"/>
	<path d="M73 19h54v54H73z" fill="url(#a)"/>
	<path d="m109.1 48.2-4.7 4.7a8.66 8.66 0 0 0 2.4-1 2.38 2.38 0 0 1 .9 1.3c0 1.3-2.8 2.7-6.9 3.3-1.3.1-2.6.3-3.9.3h-.7c-5.8-.1-10.1-1.9-10.1-3.6a2 2 0 0 1 .9-1.3c2.2 1.3 5.9 2 9.9 2h.1l.4-1.4h-.5c-4 0-7.6-.8-9.6-2a2.14 2.14 0 0 1-1.2-1.6v-3.3c2.2 1.7 6.6 2.6 10.8 2.6a9.15 9.15 0 0 0 1.7-.1l.4-1.5a14.77 14.77 0 0 1-2.1.1c-6.2 0-10.8-1.9-10.8-3.6a2 2 0 0 1 .9-1.3 20.83 20.83 0 0 0 8.5 2v-1.5a17.27 17.27 0 0 1-8.2-2 2.81 2.81 0 0 1-1.3-1.5v-3.3c2.2 1.7 6.6 2.6 10.8 2.6h.2l.8-1.5h-1C90.6 36.6 86 34.7 86 33s4.6-3.6 10.8-3.6a21.54 21.54 0 0 1 6.2.8h4c-2.2-1.3-5.9-2.2-10.2-2.2-5.9 0-12.2 1.7-12.2 5v5.8a3.13 3.13 0 0 0 1.1 2.2 2.92 2.92 0 0 0-1.1 2.1v5.8a2.36 2.36 0 0 0 1.1 2.1 3 3 0 0 0-1.1 2.2v5.9c.2 3.2 6.4 4.9 12.2 4.9s12-1.7 12.3-4.9v-5.9A2.66 2.66 0 0 0 108 51a2.92 2.92 0 0 0 1.1-2.1v-.7zM107.7 59c0 1.7-4.6 3.6-10.8 3.6S86.1 60.7 86.1 59v-3.4c2.2 1.7 6.6 2.5 10.8 2.6s8.6-.9 10.8-2.6zM88.3 37.9a.77.77 0 0 1 .8.9c-.1.5-.4.9-.8.9a1 1 0 0 1-.9-.9.9.9 0 0 1 .9-.9zm0 10.1a.77.77 0 0 1 .8.9c-.1.5-.4.9-.8.8s-.9-.4-.9-.8a1 1 0 0 1 .9-.9zm0 10.1a.77.77 0 0 1 .8.9c-.1.5-.4.9-.8.8s-.9-.4-.9-.8a1 1 0 0 1 .9-.9zm10.5-2c-.1 0-.2-.1-.4-.1s-.4-.5-.3-.9l4-13.4H98a.68.68 0 0 1-.7-.7v-.4l4.4-8.6a.82.82 0 0 1 .6-.4h9.4a.67.67 0 0 1 .7.6v.3l-1.9 5.6h4a1 1 0 0 1 .8.7.55.55 0 0 1-.3.5L99.2 55.9a.76.76 0 0 1-.4.2zm.4-15.9h3.9a.86.86 0 0 1 .6.3c.2.2.1.4.1.7l-3.4 11.5L113 39.5h-3.4a.87.87 0 0 1-.8-.6.37.37 0 0 1 .1-.3l1.8-5.6h-7.9z" fill="#fff"/>
</svg>
