<?xml version="1.0" encoding="utf-8"?>
<!-- Generator: Adobe Illustrator 24.2.0, SVG Export Plug-In . SVG Version: 6.00 Build 0)  -->
<svg version="1.1" id="Layer_1" xmlns="http://www.w3.org/2000/svg" xmlns:xlink="http://www.w3.org/1999/xlink" x="0px" y="0px"
	 viewBox="0 0 382.8 159" style="enable-background:new 0 0 382.8 159;" xml:space="preserve">
<style type="text/css">
	.st0{fill:#FEFDFD;}
	.st1{fill:#8C3223;}
	.st2{fill:#E05343;}
	.st3{fill:#262223;}
	.st4{fill:#DF5444;}
	.st5{fill:#E05444;}
	.st6{fill:#8C3324;}
	.st7{fill:#272324;}
	.st8{fill:#0C0C0C;}
	.st9{fill:#0F0F0F;}
	.st10{fill:#D5776B;}
	.st11{fill:#C87064;}
	.st12{fill:#EFADA6;}
	.st13{fill:#5F211B;}
	.st14{fill:#F8F8F8;}
</style>
<g>
	<path class="st0" d="M-98.9,179.8c0-65.3,0-130.5-0.1-195.8c0-3.4,0.7-4.1,4.1-4.1c190.6,0.1,381.2,0.1,571.8,0
		c3.4,0,4.1,0.7,4.1,4.1c-0.1,63.9-0.1,127.9,0,191.8c0,3.4-0.7,4.1-4.1,4.1C284.9,179.7,93,179.8-98.9,179.8z M66.1,159
		c7-2.1,13-6.4,19.7-9.2c3.4-1.4,4.5-3.3,4.5-7.1c0-6-1.2-12.1,0.7-18.1c10.2,1.3,19.9,4.8,29.9,6.6c0.5,0.5,0.8,0.3,1.1-0.2
		c2.4-1.1,4.8-2.3,7.2-3.3c2.1-0.9,2.9-2.2,2.9-4.5c-0.1-29.3-0.1-58.5,0-87.8c0-2.1-0.5-3.5-2.5-4.3c-2.6-1.1-5.1-2.3-7.7-3.5
		l-0.3-0.3l-0.4,0.1c-10.3,1.8-20.4,4.5-30.4,7.2c-1.4-6.5-0.3-13.1-0.7-19.7c-0.1-1.5,0.6-3.4-1.4-4.3C81.1,7.3,74.1,2.5,66,0
		c-7.3,2.1-13.5,6.6-20.5,9.5c-2.9,1.2-3.7,2.9-3.7,6C41.6,21.7,42.8,27.9,41,34c-2-0.3-3.9-0.5-5.9-0.9C27,31.2,19,29.3,10.9,27.5
		c-0.4-0.2-0.6-0.1-0.8,0.3c-3,0.6-5.4,2.6-8.1,3.6C0.2,32.1,0,33.3,0,34.9c0,29.6,0,59.2,0,88.8c0,1.6,0.2,2.9,1.9,3.6
		c2.8,1.1,5.2,3,8.2,3.6l0.3,0.3c0,0,0.5-0.1,0.5-0.1c1.8-0.3,3.6-0.7,5.4-1c8.6-1.6,16.8-4.9,25.7-5.5c0,6.6-0.1,13.2-0.1,19.8
		c0,1.5-0.2,3,1.5,3.8C51,151.7,58,156.5,66.1,159z M208.2,41.6c-0.1-5.2-3.8-3.6-6.6-3.8c-3.7-0.2-2.6,2.7-2.6,4.6
		c-0.1,10,0.1,20-0.1,29.9c-0.1,3.6,1.2,4.5,4.6,4.5c3.6,0,5.1-0.7,4.9-4.7c-0.3-6.6,0-13.3,0.2-19.9c0.1-2.9,0.7-6,4.6-5.9
		c3.9,0.1,4,3.4,4,6.3c0.1,6.7,0.1,13.3,0,20c-0.1,2.8,0.6,4.1,3.8,4.3c4.5,0.3,6.6-0.9,5.9-5.8c-0.3-1.8-0.1-3.7,0-5.5
		c0.1-4.8,0-9.6,0.2-14.5c0.1-2.9,1.7-4.9,4.6-4.9c3-0.1,3.7,2.4,3.8,4.9c0.1,1.7,0.1,3.3,0.1,5c0,5.8,0.1,11.6,0,17.5
		c-0.1,3.3,2,3.4,4.3,3.2c2-0.2,5.2,1.2,5.2-2.7c0-9.5,0.3-19-0.3-28.4c-0.3-6.1-6.1-9.6-11.9-8.1c-3.1,0.8-5,3-6.8,5.3
		C219.6,35.4,215.4,35.1,208.2,41.6z M175.9,36.8c-4.2,0.1-9.2,1.4-12.2,6.7c-2.5,4.4-2.1,4.9,2.8,6c2.9,0.6,4.1-0.4,5.3-2.8
		c1.2-2.2,3.5-3,6-2.2c2.7,0.9,3.2,3.1,3.2,5.6c0,3.4-2.9,1.9-4.5,2.5c-1.8,0.7-3.9,0.9-5.8,1.3c-5.6,1.1-8.8,4.7-9.7,10
		c-0.7,4.7,0.2,9.2,4.7,11.7c5,2.7,10.1,1.9,14.4-1.6c1.9-1.5,2.8-1.6,4.1,0.4c1.6,2.6,3.4,2.4,5.6,0.3c2.5-2.3,4.8-4.2,1.7-7.6
		c-1-1.2-0.9-2.8-0.9-4.3c-0.1-4.3,0.1-8.7-0.1-13C190.5,40.7,186.4,36.8,175.9,36.8z M251,66.5c0.1,3.4,1.2,7.2,5.2,9.2
		c4.7,2.3,9.5,1.7,13.6-1.4c2-1.5,3.2-2.5,4.8,0.3c1.2,2.1,2.8,2.3,4.8,0.4c2.6-2.4,5.6-4.4,2.1-8.4c-1.1-1.3-0.7-3.2-0.8-4.8
		c0-4.3,0.1-8.7-0.1-13c-0.3-7.1-3.4-10.7-9.8-11.9c-7.9-1.4-15.4,1.8-17.9,7.6c-1.3,3.1-0.8,4.4,2.8,4.7c2.6,0.2,4.7,0.7,6-2.5
		c1.1-2.6,3.6-3.3,6.3-2.4c2.4,0.9,2.8,3,2.9,5.3c0.1,3.8-3.1,2.2-4.8,2.8c-2.2,0.8-4.6,0.9-6.8,1.5C254.4,55.5,251,60.2,251,66.5z
		 M363.8,42.8c0.3-6.6-3.8-4.7-6.6-4.9c-3.4-0.2-2.4,2.5-2.4,4.2c-0.1,10.1,0,20.3-0.1,30.4c0,2.4,0.1,4.1,3.3,4.2
		c5.8,0.1,5.9,0.2,6.1-5.9c0.2-7-0.9-14,0.9-20.9c0.5-1.9,1.5-3.3,3.5-3.9c1.4-0.4,2.6,0.3,3.5,1.4c1.2,1.4,1.1,3.1,1.1,4.8
		c0.1,7,0.2,14,0,21c-0.1,3.6,2.1,3.6,4.6,3.5c2.4-0.1,5.2,0.7,5.1-3.4c-0.2-8.3,0.1-16.6-0.2-25c-0.2-4.6-1.4-9-6.5-10.7
		C371.1,35.9,367.4,37.9,363.8,42.8z M349.4,57c-0.2-3.6-0.5-7.3-2.2-10.9c-2.8-5.8-7.3-9.1-13.7-9.1c-6.3,0.1-10.7,3.5-13,9.3
		c-3.2,7.9-3.2,16,1,23.6c5.1,9.3,17.4,9.9,23.8,1.5C348.3,67.2,349.3,62.4,349.4,57z M301.1,63.7c1-1.6,1.6-2.5,2.2-3.5
		c3.2-4.7,6.3-9.4,9.5-14c1.7-2.4,2-5.2,1-7.6c-0.9-2.1-3.6-0.9-5.4-0.9c-4.8-0.1-9.6,0-14.4-0.1c-2.9-0.1-5.1-0.1-5,4
		c0.1,4.3,2.6,3.9,5.3,3.8c2.3,0,4.5,0,6.8,0c0,0.8,0.2,1.2,0.1,1.4c-3.5,5.3-6.8,10.6-10.5,15.7c-2,2.9-2.8,5.8-2.7,9.3
		c0,3.1,0.8,3.9,3.7,2.6c6-2.7,12.2-2.6,18.4-0.6c5.1,1.7,5.4,1.4,5.1-4c-0.1-2.3-1.3-3.2-3.1-4C308.7,64.6,305.3,63.9,301.1,63.7z
		 M173.4,131c6.9,0.1,11.6-3.2,12.6-8.8c1.3-7.1-1-10.9-8.2-13.7c-2.6-1-5.3-1.9-7.7-3.4c-2.7-1.7-3.2-4.4-2.4-7.5
		c0.9-3.3,3.4-4.4,6.4-4.5c3-0.1,5.4,1.4,5.7,4.4c0.3,3.1,2.2,3.2,4.1,2.6c2.4-0.7,1.1-2.8,0.7-4.2c-1.3-4.7-5.1-7.1-10.7-7
		c-6.1,0.1-10.2,3.1-11.5,8.3c-1.2,5.1,0.7,10.1,5.2,12.3c3.2,1.6,6.8,2.7,10,4.3c3.3,1.6,4.2,4.8,3.3,8.1c-0.9,3.4-3.4,5.1-7.1,5
		c-4.1-0.1-6.7-2-6.8-6.2c-0.1-2.4-1-3.2-3.3-3c-3,0.2-1.7,2.3-1.6,3.7C162.4,127.8,166.2,130.9,173.4,131z M207.7,109.2
		c0.9-0.6,1.5-1,1.9-1.4c3.5-3.1,4.5-7.8,2.6-12.2c-2.1-4.7-6.1-5.9-10.7-5.5c-5.1,0.4-8.2,3.5-8.9,8.5c-0.2,1.2-1,2.8,1.2,3
		c1.5,0.1,3.5,0.6,3.6-2c0-0.7,0.3-1.3,0.5-1.9c0.9-2.8,2.8-4.1,5.7-3.8c2.7,0.3,4,2.1,4.4,4.7c0.9,5-1,7.9-6,9
		c-1.2,0.3-2.3,0.1-2.4,1.8c-0.1,2,1.2,2,2.6,2.1c0.8,0,1.7,0.1,2.5,0.4c4.5,1.5,4.6,5.2,4.4,9c-0.2,3.3-1.5,5.8-5.2,6.2
		c-3.9,0.5-6.2-1.6-6.7-5.1c-0.4-2.6-1.9-2.9-3.8-2.6c-2.8,0.5-1.5,2.6-1.2,4c1.1,4.9,5.2,7.6,10.9,7.6c5.6,0,9.5-2.8,10.8-7.8
		C215.6,116.6,213.9,112.6,207.7,109.2z"/>
	<path class="st1" d="M121,131.3c-10.1-1.7-19.8-5.3-29.9-6.6c-2.1-3.5-0.4-7.4-1.2-11.1c-7.6-3.1-15.8-3.4-23.7-4.9
		c0-3-0.1-5.9-0.1-8.9c7-1,14.1-2.1,21.1-2.9c2-0.2,3-0.9,3-3C90,84.3,90,74.6,90,65c0-1.6-0.3-3-2.3-3.1
		c-7.3-0.2-14.4-2.5-21.7-2.1c0-3.3,0-6.6,0-9.9c6.9-1.8,14.4-1.1,21.1-4.1c2.7,0.3,4-1,3.9-3.7c-0.1-2.5-0.1-4.9-0.1-7.4
		c10.1-2.7,20.1-5.5,30.4-7.2c-0.1,2.2-0.3,4.3-0.3,6.5C121,66.4,121,98.9,121,131.3z"/>
	<path class="st2" d="M66,99.8c0,3,0.1,5.9,0.1,8.9c-7.7,1-15.4,2.4-23,4.2c-0.4,0.4-0.7,0.7-1.1,1.1c0,0.3-0.1,0.6-0.1,1
		c-1.3,2.6-1.3,5.2,0,7.8c0,0.7,0,1.3,0,2c-8.8,0.6-17.1,3.8-25.7,5.5c-1.8,0.3-3.6,0.7-5.4,1c0-34.6,0-69.2,0-103.7
		c8.1,1.9,16.2,3.8,24.3,5.6c1.9,0.4,3.9,0.6,5.9,0.9c1.6,2.6,0.8,5.4,1,8.2c0.1,1.6-0.5,3.5,2.2,3.5C51.3,48,58.7,48.6,66,50
		c0,3.3,0,6.6,0,9.9l0,0c-7.3,0.7-14.6,1.4-22,2c-0.8,0-1.6,0.1-2.1,1c0,0,0,0,0,0c-0.3,0.6-0.9,1.1-0.9,1.7
		c-0.1,10.2,0,20.5,0,30.7c0,0.5,0.7,1,1,1.6C50.1,98.3,58,99.3,66,99.8C66,99.9,66,99.8,66,99.8z"/>
	<path class="st3" d="M208.2,41.6c7.2-6.5,11.4-6.2,17.8,1.2c1.8-2.3,3.8-4.5,6.8-5.3c5.7-1.5,11.5,1.9,11.9,8.1
		c0.5,9.5,0.3,18.9,0.3,28.4c0,3.9-3.1,2.5-5.2,2.7c-2.3,0.3-4.3,0.1-4.3-3.2c0.1-5.8,0-11.6,0-17.5c0-1.7-0.1-3.3-0.1-5
		c-0.1-2.5-0.7-4.9-3.8-4.9c-2.9,0-4.5,2.1-4.6,4.9c-0.2,4.8-0.2,9.6-0.2,14.5c0,1.8-0.2,3.7,0,5.5c0.7,4.8-1.4,6-5.9,5.8
		c-3.2-0.2-3.9-1.5-3.8-4.3c0.1-6.6,0.1-13.3,0-20c0-2.9-0.1-6.1-4-6.3c-3.8-0.1-4.5,3-4.6,5.9c-0.2,6.6-0.4,13.3-0.2,19.9
		c0.1,3.9-1.4,4.7-4.9,4.7c-3.4,0-4.7-0.9-4.6-4.5c0.2-10,0-20,0.1-29.9c0-1.9-1.1-4.8,2.6-4.6C204.4,38,208.2,36.3,208.2,41.6z"/>
	<path class="st1" d="M10.1,130.9c-3-0.6-5.4-2.5-8.2-3.6c-1.7-0.7-1.9-2-1.9-3.6c0-29.6,0-59.2,0-88.8c0-1.6,0.2-2.9,1.9-3.5
		c2.8-1.1,5.1-3.1,8.1-3.6C10.1,62.2,10.1,96.6,10.1,130.9z"/>
	<path class="st2" d="M121.9,27.7c2.6,1.2,5.1,2.4,7.7,3.5c2,0.8,2.5,2.2,2.5,4.3c-0.1,29.3-0.1,58.5,0,87.8c0,2.3-0.7,3.7-2.9,4.5
		c-2.5,1-4.8,2.2-7.2,3.3C122,96.6,122,62.2,121.9,27.7z"/>
	<path class="st4" d="M90.8,34.8c0,2.5,0,4.9,0.1,7.4c0.1,2.7-1.2,3.9-3.9,3.7c-6.6-3.4-14.1-3.6-21-6C66,26.5,66,13.3,66,0
		c8.1,2.5,15.1,7.3,22.7,10.7c2.1,0.9,1.3,2.8,1.4,4.3C90.6,21.7,89.4,28.3,90.8,34.8z"/>
	<path class="st1" d="M66,0c0,13.3,0.1,26.5,0.1,39.8c-7.3,1.9-14.6,3.9-21.8,5.8c-2.7,0.1-2.1-1.9-2.2-3.5c-0.2-2.7,0.7-5.6-1-8.2
		c1.8-6.1,0.6-12.3,0.7-18.5c0.1-3,0.8-4.8,3.7-6C52.4,6.6,58.7,2.1,66,0z"/>
	<path class="st5" d="M89.8,113.6c0.8,3.6-0.8,7.6,1.2,11.1c-1.9,5.9-0.7,12.1-0.7,18.1c0,3.7-1.2,5.7-4.5,7.1
		c-6.7,2.7-12.7,7-19.7,9.2c0-13.2-0.1-26.4-0.1-39.7C73.9,117.4,81.8,115.5,89.8,113.6z"/>
	<path class="st6" d="M66,119.3c0,13.2,0.1,26.4,0.1,39.7c-8.1-2.4-15.1-7.3-22.7-10.6c-1.8-0.8-1.5-2.3-1.5-3.8
		c0-6.6,0.1-13.2,0.1-19.8c0-0.7,0-1.4,0-2c0-2.6,0-5.2,0-7.8c0.1-0.3,0.1-0.6,0.1-1c0.4-0.1,0.7-0.2,1.1-0.3
		C50.7,115.5,58.3,117.4,66,119.3z"/>
	<path class="st7" d="M175.9,36.8c10.4,0,14.6,3.9,14.8,12.9c0.1,4.3,0,8.6,0.1,13c0,1.5-0.1,3.1,0.9,4.3c3,3.4,0.7,5.3-1.7,7.6
		c-2.2,2.1-3.9,2.3-5.6-0.3c-1.3-2.1-2.1-2-4.1-0.4c-4.3,3.5-9.4,4.3-14.4,1.6c-4.6-2.5-5.5-7-4.7-11.7c0.9-5.4,4.1-8.9,9.7-10
		c2-0.4,4-0.6,5.8-1.3c1.6-0.6,4.4,0.9,4.5-2.5c0-2.5-0.5-4.7-3.2-5.6c-2.5-0.8-4.8,0-6,2.2c-1.2,2.4-2.4,3.4-5.3,2.8
		c-4.9-1.1-5.4-1.5-2.8-6C166.7,38.2,171.7,36.9,175.9,36.8z M181.1,61.5c-0.5-1.2,1.2-3.6-2.1-3.6c-4.3,0-7.9,2.7-7.9,6.5
		c0,2.7,0.7,5.1,3.8,5.5C178.1,70.2,180.8,66.6,181.1,61.5z"/>
	<path class="st7" d="M251,66.5c0.1-6.2,3.5-10.9,8.6-12.4c2.2-0.7,4.6-0.7,6.8-1.5c1.7-0.6,4.8,1,4.8-2.8c0-2.3-0.4-4.4-2.9-5.3
		c-2.7-1-5.2-0.2-6.3,2.4c-1.3,3.2-3.4,2.7-6,2.5c-3.6-0.3-4.2-1.6-2.8-4.7c2.5-5.8,10-9.1,17.9-7.6c6.4,1.2,9.5,4.8,9.8,11.9
		c0.2,4.3,0,8.6,0.1,13c0,1.6-0.4,3.6,0.8,4.8c3.5,4,0.5,6-2.1,8.4c-2,1.9-3.6,1.6-4.8-0.4c-1.6-2.8-2.8-1.8-4.8-0.3
		c-4.2,3.1-8.9,3.7-13.6,1.4C252.1,73.7,251,69.8,251,66.5z M271,61.7c0.2-3.6,0.1-3.7-2.1-3.8c-4.3-0.3-7.9,2.6-8,6.5
		c-0.1,2.7,0.6,5.1,3.8,5.5C268.1,70.2,270.8,66.7,271,61.7z"/>
	<path class="st7" d="M363.8,42.8c3.6-4.9,7.4-6.9,12.3-5.2c5.2,1.7,6.4,6.1,6.5,10.7c0.3,8.3,0.1,16.6,0.2,25
		c0.1,4.1-2.8,3.3-5.1,3.4c-2.5,0.1-4.7,0.1-4.6-3.5c0.1-7,0-14,0-21c0-1.6,0.1-3.4-1.1-4.8c-0.9-1.1-2-1.8-3.5-1.4
		c-2,0.5-3,2-3.5,3.9c-1.8,6.9-0.7,13.9-0.9,20.9c-0.2,6.1-0.2,6.1-6.1,5.9c-3.2-0.1-3.3-1.8-3.3-4.2c0.1-10.1,0-20.3,0.1-30.4
		c0-1.7-1-4.5,2.4-4.2C359.9,38.1,364,36.2,363.8,42.8z"/>
	<path class="st3" d="M349.4,57c-0.1,5.3-1,10.2-4.2,14.4c-6.4,8.4-18.6,7.8-23.8-1.5c-4.2-7.6-4.2-15.7-1-23.6
		c2.3-5.7,6.7-9.2,13-9.3c6.4-0.1,11,3.2,13.7,9.1C348.8,49.7,349.1,53.5,349.4,57z M339.1,57.3c-0.1-3.1,0-6.3-1-9.3
		c-0.7-2.2-2.1-3.2-4.4-3.3c-2.1-0.1-3.6,0.9-4.2,2.8c-1.9,6.5-1.8,13,0.3,19.5c0.5,1.6,1.7,2.8,3.6,2.9c2.1,0.1,3.4-1.1,4.3-2.8
		C339.4,64,339,60.6,339.1,57.3z"/>
	<path class="st3" d="M301.1,63.7c4.2,0.2,7.6,0.9,10.8,2.3c1.8,0.8,3,1.7,3.1,4c0.3,5.4,0,5.7-5.1,4c-6.2-2-12.4-2.1-18.4,0.6
		c-2.9,1.3-3.7,0.5-3.7-2.6c0-3.5,0.7-6.4,2.7-9.3c3.7-5.1,7-10.4,10.5-15.7c0.1-0.2,0-0.6-0.1-1.4c-2.2,0-4.5,0-6.8,0
		c-2.7,0-5.2,0.5-5.3-3.8c-0.1-4.1,2.1-4.1,5-4c4.8,0.1,9.6-0.1,14.4,0.1c1.9,0.1,4.5-1.1,5.4,0.9c1,2.4,0.7,5.2-1,7.6
		c-3.2,4.6-6.4,9.3-9.5,14C302.7,61.2,302.1,62.2,301.1,63.7z"/>
	<path class="st8" d="M173.4,131c-7.2-0.1-11-3.2-11.5-9.7c-0.1-1.4-1.4-3.4,1.6-3.7c2.3-0.2,3.2,0.6,3.3,3c0.1,4.3,2.7,6.1,6.8,6.2
		c3.7,0.1,6.2-1.5,7.1-5c0.9-3.3,0.1-6.4-3.3-8.1c-3.3-1.6-6.8-2.7-10-4.3c-4.5-2.2-6.4-7.2-5.2-12.3c1.3-5.3,5.4-8.2,11.5-8.3
		c5.6-0.1,9.4,2.4,10.7,7c0.4,1.4,1.7,3.5-0.7,4.2c-1.9,0.6-3.8,0.4-4.1-2.6c-0.3-3-2.7-4.5-5.7-4.4c-3,0.1-5.5,1.1-6.4,4.5
		c-0.8,3-0.3,5.8,2.4,7.5c2.4,1.5,5.1,2.4,7.7,3.4c7.2,2.8,9.5,6.6,8.2,13.7C184.9,127.8,180.3,131.1,173.4,131z"/>
	<path class="st9" d="M207.7,109.2c6.2,3.3,7.9,7.3,6.2,13.9c-1.3,5-5.2,7.8-10.8,7.8c-5.7,0-9.8-2.7-10.9-7.6
		c-0.3-1.3-1.6-3.5,1.2-4c1.9-0.3,3.4-0.1,3.8,2.6c0.6,3.5,2.9,5.5,6.7,5.1c3.7-0.4,5-2.9,5.2-6.2c0.2-3.8,0.1-7.5-4.4-9
		c-0.8-0.3-1.6-0.3-2.5-0.4c-1.4-0.1-2.7-0.1-2.6-2.1c0.1-1.7,1.2-1.5,2.4-1.8c5-1.1,6.9-4,6-9c-0.4-2.5-1.7-4.4-4.4-4.7
		c-2.8-0.3-4.8,1-5.7,3.8c-0.2,0.6-0.4,1.3-0.5,1.9c-0.1,2.7-2.1,2.2-3.6,2c-2.2-0.2-1.4-1.8-1.2-3c0.8-5,3.8-8.1,8.9-8.5
		c4.6-0.4,8.6,0.7,10.7,5.5c1.9,4.4,1,9.1-2.6,12.2C209.1,108.3,208.6,108.6,207.7,109.2z"/>
	<path class="st10" d="M121.9,27.7c0,34.5,0.1,68.9,0.1,103.4c-0.3,0.5-0.6,0.7-1.1,0.2c0-32.4,0-64.8,0-97.3c0-2.2,0.2-4.3,0.3-6.5
		c0,0,0.4-0.1,0.4-0.1L121.9,27.7z"/>
	<path class="st11" d="M10.1,130.9c0-34.4,0-68.8,0-103.2c0.2-0.4,0.4-0.5,0.8-0.3c0,34.6,0,69.2,0,103.7c0,0-0.5,0.1-0.5,0.1
		L10.1,130.9z"/>
	<path class="st2" d="M66,59.9c7.3-0.5,14.4,1.8,21.7,2.1C89.7,62,90,63.4,90,65c0,9.6,0,19.3,0,28.9c0,2.1-0.9,2.8-3,3
		C80,97.8,73,98.8,66,99.8c0,0,0,0,0,0C66,86.5,66,73.2,66,59.9L66,59.9z"/>
	<path class="st12" d="M66,119.3c-7.6-1.9-15.3-3.8-22.9-5.7c0-0.3,0-0.5,0-0.8c7.6-1.8,15.2-3.2,23-4.2c7.9,1.5,16.1,1.9,23.7,4.9
		C81.8,115.5,73.9,117.4,66,119.3z"/>
	<path class="st13" d="M44.2,45.7c7.3-1.9,14.6-3.9,21.8-5.8c6.9,2.4,14.4,2.7,21,6c-6.7,3-14.1,2.3-21.1,4.1
		C58.7,48.6,51.3,48,44.2,45.7z"/>
	<path class="st1" d="M66,59.9c0,13.3,0,26.7,0,40c-8-0.6-16-1.6-23.9-3.1c0-11.3-0.1-22.6-0.1-34c0,0,0,0,0,0
		c0.7-0.3,1.4-0.7,2.1-1C51.4,61.2,58.7,60.5,66,59.9z"/>
	<path class="st11" d="M42,62.8c0,11.3,0.1,22.6,0.1,34c-0.4-0.5-1-1-1-1.6c-0.1-10.2-0.1-20.5,0-30.7C41.1,64,41.7,63.4,42,62.8z"
		/>
	<path class="st10" d="M41.9,114.9c0,2.6,0,5.2,0,7.8C40.6,120.1,40.6,117.5,41.9,114.9z"/>
	<path class="st11" d="M44.1,61.9c-0.7,0.3-1.4,0.7-2.1,1C42.4,62,43.2,61.9,44.1,61.9z"/>
	<path class="st10" d="M43.1,112.9c-0.1,0.3-0.1,0.5,0,0.8c-0.4,0.1-0.7,0.2-1.1,0.3C42.4,113.6,42.7,113.2,43.1,112.9z"/>
	<path class="st14" d="M181.1,61.5c-0.3,5.2-2.9,8.7-6.2,8.3c-3.2-0.4-3.9-2.8-3.8-5.5c0.1-3.9,3.6-6.5,7.9-6.5
		C182.3,57.9,180.6,60.3,181.1,61.5z"/>
	<path class="st14" d="M271,61.7c-0.2,5-2.9,8.5-6.2,8.1c-3.2-0.4-3.9-2.8-3.8-5.5c0.1-3.9,3.7-6.7,8-6.5
		C271.1,58,271.2,58.1,271,61.7z"/>
	<path class="st14" d="M339.2,57.3c-0.1,3.3,0.2,6.6-1.3,9.7c-0.9,1.7-2.2,2.9-4.3,2.8c-1.9-0.1-3.1-1.3-3.6-2.9
		c-2.1-6.4-2.2-13-0.3-19.5c0.6-1.9,2.1-2.9,4.2-2.8c2.3,0.1,3.7,1.2,4.4,3.3C339.1,51.1,339,54.2,339.2,57.3z"/>
</g>
</svg>
