<svg xmlns="http://www.w3.org/2000/svg" width="200" height="128">
    <defs>
        <linearGradient id="a" x1="-213.09" y1="-359.5" x2="-213.09" y2="-209.5" gradientTransform="rotate(-135 3.993 -165)" gradientUnits="userSpaceOnUse">
            <stop offset="0" stop-color="#4d27a8"/>
            <stop offset="1" stop-color="#a166ff"/>
        </linearGradient>
    </defs>
    <path d="M78.85 90.74l-1-2.95h-4.59l-1 2.95h-1.67l4.1-11.09h1.76l4.09 11.09zm-5.17-4.18h3.73l-1.87-5.44zm18.58 4.18v-5.51a1.83 1.83 0 00-.26-1.18 1.13 1.13 0 00-1-.39 4.49 4.49 0 00-2.35.72 1.94 1.94 0 010 .24v6.12h-1.58v-5.51a1.9 1.9 0 00-.3-1.18 1.13 1.13 0 00-1-.39 4.35 4.35 0 00-2.34.71v6.37h-1.54v-8.12h1.33l.16.82a5.32 5.32 0 013-1.06 2 2 0 012 1.14 5.43 5.43 0 013.17-1.14 2.23 2.23 0 011.7.63 2.49 2.49 0 01.59 1.77v6zm8.68 0l-.12-.84a4.2 4.2 0 01-1.28.77 3.76 3.76 0 01-1.38.27 2.54 2.54 0 01-1.82-.64 2.31 2.31 0 01-.68-1.74 2.28 2.28 0 01.84-1.86 3.34 3.34 0 012.24-.7 8.38 8.38 0 012 .27v-1a1.59 1.59 0 00-.39-1.22 2 2 0 00-1.35-.4 8.71 8.71 0 00-2.81.49V83a5.17 5.17 0 011.41-.47 8.55 8.55 0 011.68-.17 3.29 3.29 0 012.24.64 2.42 2.42 0 01.72 1.92v5.8zm-2.4-1a3.75 3.75 0 002.21-.81V87.3a6.86 6.86 0 00-1.69-.21c-1.21 0-1.81.46-1.81 1.39a1.27 1.27 0 00.33.94 1.37 1.37 0 00.96.32zm5.46 1v-1.22l4.66-5.65h-4.5v-1.25h6.26v1.2l-4.72 5.67h4.76v1.25zm11.52.24a3.63 3.63 0 01-2.85-1.14 5.4 5.4 0 010-6.32 4.13 4.13 0 015.7 0 5.4 5.4 0 010 6.32 3.63 3.63 0 01-2.85 1.16zm0-1.28c1.5 0 2.26-1 2.26-3s-.76-3-2.26-3-2.26 1-2.26 3 .74 3 2.26 3zm11.31 1v-5.39a1.9 1.9 0 00-.34-1.25 1.37 1.37 0 00-1.08-.4 4.45 4.45 0 00-2.48.82v6.26h-1.59v-8.12h1.33l.16.9a5.27 5.27 0 013.2-1.14 2.41 2.41 0 011.78.62 2.46 2.46 0 01.61 1.78v6zm-42.18 16V95.65h7.29v1.85h-4.89v2.63h4V102h-4v2.9h4.89v1.86zm18.4 0v-7.64l-2.45 5h-2.14l-2.45-5v7.68H93.9V95.65h2.62l3 6.3 3-6.3h2.58v11.09zm4.67 0V95.65H112a3.93 3.93 0 012.74.91 3.2 3.2 0 011 2.48 3 3 0 01-.53 1.73 3.52 3.52 0 01-1.49 1.2l2.75 4.77H114l-2.4-4.31H110v4.31zm2.3-6h1.67a1.5 1.5 0 001.68-1.7 1.46 1.46 0 00-1.65-1.66H110z" fill="#333"/>
    <path d="M73 19h54v54H73z" fill="url(#a)"/>
    <path d="M113.8 48.8a3.92 3.92 0 00-1.8.4l-1.6-3.1 2.1-3.8a3.94 3.94 0 005-2.4 4.13 4.13 0 00-.9-4.1 4.17 4.17 0 00-5.7 0 3.74 3.74 0 00-1 3.6l-2.6.8-2.8-5.3v-.1a4 4 0 00-5.6-5.6 3.73 3.73 0 00-.3 5.1l-3.1 4.3a8.75 8.75 0 00-12 2.9 8.62 8.62 0 002.9 11.9 8.76 8.76 0 009.1 0l3.1 4.3a4 4 0 00.8 5.5 4 4 0 005.6-.9 3.83 3.83 0 00-.4-5.1l-.1-.1 2.8-5.3 2.6.8v.1a4 4 0 003.9 4 4.08 4.08 0 004-4 4 4 0 00-4-3.9zM112 36.7a2.54 2.54 0 013.6 0 2.5 2.5 0 010 3.5 2.74 2.74 0 01-3.6 0 2.41 2.41 0 010-3.5zm-1.5 4a2.65 2.65 0 00.5.6l.2.2-1.6 3-1.5-3zM100 30.2a2.55 2.55 0 110 3.6 2.54 2.54 0 010-3.6zm-.4 5.1a4 4 0 002.2.6 3.65 3.65 0 001.5-.3l2.7 5.1-6.9 2.1a7.22 7.22 0 00-2-2.9l-.4-.5zM85.8 51.1a7.36 7.36 0 010-10.3 7.28 7.28 0 0110.3 10.3 7.18 7.18 0 01-10.3 0zm17.7 10.7a2.53 2.53 0 01-3.6 0 2.42 2.42 0 01.1-3.5 2.51 2.51 0 013.5.1 2.3 2.3 0 010 3.4zm-.2-5.4a4 4 0 00-3.7.3l-2.9-4.1.4-.5a9.72 9.72 0 001.9-2.9l6.9 2.2zm3.3-6.2l-7.1-2.3a8.13 8.13 0 000-3.8l7.1-2.2 2.2 4.1zm3.5 1.1l-2.1-.7 1.6-3 1.3 2.4a3.53 3.53 0 00-.8 1.3zm5.5 3.3a2.54 2.54 0 01-3.6 0 2.63 2.63 0 010-3.6 2.54 2.54 0 013.6.1 2.6 2.6 0 010 3.5zm-21-9.3v1.4h-2.9v2.9h-1.4v-2.9h-2.9v-1.4h2.9v-2.9h1.4v2.9z" fill="#fff"/>
</svg>
