<svg width="54" height="54" xmlns="http://www.w3.org/2000/svg">
	<defs>
		<linearGradient id="a" x1="-1265.91" y1="-359.49" x2="-1265.91" y2="-209.49" gradientTransform="scale(-.77786 -.77787) rotate(45 -915.124 1349.5)" gradientUnits="userSpaceOnUse">
			<stop offset="0" stop-color="#c8511b"/>
			<stop offset="1" stop-color="#f90"/>
		</linearGradient>
	</defs>
	<path d="M33.342 48.889a3.625 3.625 0 0 1-1.556-1.004 2.49 2.49 0 0 1 .374-3.368 3.602 3.602 0 0 1 2.333-.692 6.69 6.69 0 0 1 2.388.443v1.424a7.576 7.576 0 0 0-2.24-.374c-.98 0-1.47.312-1.47.942a.731.731 0 0 0 .257.575 3.376 3.376 0 0 0 .949.475l.925.334a3.99 3.99 0 0 1 1.65.988 2.186 2.186 0 0 1 .49 1.478 2.466 2.466 0 0 1-.919 2.023 3.96 3.96 0 0 1-2.528.777 7.608 7.608 0 0 1-1.392-.132 4.963 4.963 0 0 1-1.198-.358v-1.415a9.288 9.288 0 0 0 1.33.295 8.004 8.004 0 0 0 1.284.117 2.022 2.022 0 0 0 1.135-.272.863.863 0 0 0 .397-.778.778.778 0 0 0-.241-.607 3.057 3.057 0 0 0-.98-.498Z" style="stroke-width:.777865"/>
	<path d="M30.285 52.436a6.3 6.3 0 0 1-2.256.381 4.216 4.216 0 0 1-3.181-1.12 5.515 5.515 0 0 1 .039-6.58 4.216 4.216 0 0 1 3.189-1.183 6.13 6.13 0 0 1 2.077.35v1.47a8.689 8.689 0 0 0-1.86-.249 2.513 2.513 0 0 0-1.928.685 2.948 2.948 0 0 0-.646 2.084v.288a3.01 3.01 0 0 0 .622 2.077 2.474 2.474 0 0 0 1.906.677 9.957 9.957 0 0 0 2.03-.288z" style="stroke-width:.777865"/>
	<path d="M17.061 52.662v-8.596h5.67v1.44h-3.803v2.045h3.112v1.455h-3.112v2.255h3.804v1.447z" style="stroke-width:.777865"/>
	<path d="M6 0h42.005v42.005H6Z" fill="url(#a)" style="fill:url(#a);stroke-width:.777865"/>
	<path d="M26.925 36.093a.373.373 0 0 1-.312-.078l-12.757-7.312a.622.622 0 0 1-.31-.544V13.302a.622.622 0 0 1 .31-.545L25.524 5.99a.622.622 0 0 1 .778.077.778.778 0 0 1 .156.467v6.379a.622.622 0 0 1-.311.544l-5.834 3.345v7.779l6.612 3.811 5.756-3.345a.529.529 0 0 1 .544 0l5.523 3.19a.622.622 0 0 1 .14.87.599.599 0 0 1-.14.14l-11.668 6.69zm-12.213-8.401 12.446 7.234 10.734-6.223-4.433-2.567-5.99 3.423a.607.607 0 0 1-.544 0l-7.468-4.278a.63.63 0 0 1-.311-.467V16.49a.63.63 0 0 1 .311-.467l5.834-3.345v-5.21L14.712 13.69Zm25.125-.233a2.022 2.022 0 0 1-.311-.078l-5.523-3.267a.63.63 0 0 1-.311-.467V16.88l-5.834-3.345a.622.622 0 0 1-.311-.545V6.534a.622.622 0 0 1 .311-.544.529.529 0 0 1 .545 0l11.745 6.767a.622.622 0 0 1 .311.545v13.534a.63.63 0 0 1-.31.467.778.778 0 0 1-.312.156zm-4.978-4.2 4.434 2.566V13.69l-10.58-6.222V12.6l5.835 3.423a.63.63 0 0 1 .31.467z" fill="#fff" style="stroke-width:.777865"/>
</svg>
