<svg xmlns="http://www.w3.org/2000/svg" width="200" height="128">
	<defs>
		<linearGradient id="a" x1="-655.5" y1="738.79" x2="-505.5" y2="738.79" gradientTransform="rotate(-45 -1057.489 -383.084)" gradientUnits="userSpaceOnUse">
			<stop offset="0" stop-color="#4d27a8"/>
			<stop offset="1" stop-color="#a166ff"/>
		</linearGradient>
	</defs>
	<path d="m78.85 90.74-1-2.95h-4.59l-1 2.95h-1.67l4.1-11.09h1.76l4.09 11.09zm-5.17-4.18h3.73l-1.87-5.44zm18.58 4.18v-5.51a1.83 1.83 0 0 0-.26-1.18 1.13 1.13 0 0 0-1-.39 4.49 4.49 0 0 0-2.35.72 1.94 1.94 0 0 1 0 .24v6.12h-1.58v-5.51a1.9 1.9 0 0 0-.3-1.18 1.13 1.13 0 0 0-1-.39 4.35 4.35 0 0 0-2.34.71v6.37h-1.54v-8.12h1.33l.16.82a5.32 5.32 0 0 1 3-1.06 2 2 0 0 1 2 1.14 5.43 5.43 0 0 1 3.17-1.14 2.23 2.23 0 0 1 1.7.63 2.49 2.49 0 0 1 .59 1.77v6zm8.68 0-.12-.84a4.2 4.2 0 0 1-1.28.77 3.76 3.76 0 0 1-1.38.27 2.54 2.54 0 0 1-1.82-.64 2.31 2.31 0 0 1-.68-1.74 2.28 2.28 0 0 1 .84-1.86 3.34 3.34 0 0 1 2.24-.7 8.38 8.38 0 0 1 2 .27v-1a1.59 1.59 0 0 0-.39-1.22 2 2 0 0 0-1.35-.4 8.71 8.71 0 0 0-2.81.49V83a5.17 5.17 0 0 1 1.41-.47 8.55 8.55 0 0 1 1.68-.17 3.29 3.29 0 0 1 2.24.64 2.42 2.42 0 0 1 .72 1.92v5.8zm-2.4-1a3.75 3.75 0 0 0 2.21-.81V87.3a6.86 6.86 0 0 0-1.69-.21c-1.21 0-1.81.46-1.81 1.39a1.27 1.27 0 0 0 .33.94 1.37 1.37 0 0 0 .96.32zm5.46 1v-1.22l4.66-5.65h-4.5v-1.25h6.26v1.2l-4.72 5.67h4.76v1.25zm11.52.24a3.63 3.63 0 0 1-2.85-1.14 5.4 5.4 0 0 1 0-6.32 4.13 4.13 0 0 1 5.7 0 5.4 5.4 0 0 1 0 6.32 3.63 3.63 0 0 1-2.85 1.16zm0-1.28c1.5 0 2.26-1 2.26-3s-.76-3-2.26-3-2.26 1-2.26 3 .74 3 2.26 3zm11.31 1v-5.39a1.9 1.9 0 0 0-.34-1.25 1.37 1.37 0 0 0-1.08-.4 4.45 4.45 0 0 0-2.48.82v6.26h-1.59v-8.12h1.33l.16.9a5.27 5.27 0 0 1 3.2-1.14 2.41 2.41 0 0 1 1.78.62 2.46 2.46 0 0 1 .61 1.78v6zM81 106.74l-.79-2.53H76.4l-.75 2.53h-2.51L77 95.65h2.64l3.9 11.09zm-4.07-4.26h2.77l-1.41-4.64zm12.75 4a5.35 5.35 0 0 1-1.93.33 2.74 2.74 0 0 1-2-.64 2.67 2.67 0 0 1-.65-2v-3.95h-1.26v-1.37l1.3-.26.35-2.24h1.92v2.21h2.21v1.73h-2.21v3.84a.89.89 0 0 0 .25.72 1.39 1.39 0 0 0 .87.21 8.25 8.25 0 0 0 1.13-.1zm6.69.21v-5.36a1.31 1.31 0 0 0-.29-1 1.12 1.12 0 0 0-.88-.31 3.21 3.21 0 0 0-1.74.55v6.08H91.1V94.9h2.34v4.4a4.93 4.93 0 0 1 2.88-1 2.16 2.16 0 0 1 2.37 2.37v6zm6.29-3.52a2 2 0 0 0 .64 1.52 2.8 2.8 0 0 0 1.81.48 9.67 9.67 0 0 0 2.49-.4v1.55a5.31 5.31 0 0 1-1.33.45 8.53 8.53 0 0 1-1.61.16 4.11 4.11 0 0 1-3.1-1.11 5.38 5.38 0 0 1 0-6.41 3.78 3.78 0 0 1 2.92-1.14 3.26 3.26 0 0 1 2.44.87 3.37 3.37 0 0 1 .86 2.49c0 .24 0 .5-.05.8s-.07.54-.11.74zm1.74-3.28a1.64 1.64 0 0 0-1.24.47 2.17 2.17 0 0 0-.52 1.37h3.14v-.28q-.02-1.51-1.4-1.51zm10.42 6.8v-5.36a1.36 1.36 0 0 0-.29-1 1.12 1.12 0 0 0-.88-.31 3.18 3.18 0 0 0-1.74.55v6.08h-2.34v-8.09h1.92l.23.88a4.89 4.89 0 0 1 3.07-1.12 2.16 2.16 0 0 1 2.37 2.37v6zm9.23 0-.19-.72a3.91 3.91 0 0 1-1.14.71 3.46 3.46 0 0 1-1.26.26 2.66 2.66 0 0 1-1.9-.67 2.58 2.58 0 0 1-.32-3.14 2.52 2.52 0 0 1 1.1-.92 3.91 3.91 0 0 1 1.7-.34 7.71 7.71 0 0 1 1.69.21v-.8a1.34 1.34 0 0 0-.3-1 1.73 1.73 0 0 0-1.12-.27 9.78 9.78 0 0 0-2.9.49V99a6.34 6.34 0 0 1 1.49-.49 9.28 9.28 0 0 1 1.82-.18 3.62 3.62 0 0 1 2.41.66 2.63 2.63 0 0 1 .76 2.09v5.67zm-1.93-1.32a2.08 2.08 0 0 0 .82-.17 3.21 3.21 0 0 0 .79-.48v-1.39a7.59 7.59 0 0 0-1.26-.12c-.93 0-1.39.38-1.39 1.12a.94.94 0 0 0 1 1z" fill="#333"/>
	<path d="M73 19h54v54H73z" fill="url(#a)"/>
	<path d="m117 58.2-3.3-3.3a17.3 17.3 0 1 0-28.92-19 16.77 16.77 0 0 0-1.08 1.89l1.3.6a15.9 15.9 0 0 1 29 13.12 14.86 14.86 0 0 1-1.26 2.28l-2.8-2.7a11.83 11.83 0 0 0-21.2-10.5 6 6 0 0 0-.4 1.1h-4.8v1.4h4.3c-.1.7-.2 1.4-.3 2.2H82v1.4h5.6a20.69 20.69 0 0 0 .4 2.2h-4.5v1.4h5A11.9 11.9 0 0 0 104 56.6a7.82 7.82 0 0 0 1.1-.6l2.7 2.7a15.79 15.79 0 0 1-21.7-4.6l-1.2.8a17.3 17.3 0 0 0 23.9 4.8l3.3 3.3a3.29 3.29 0 0 0 4.66.14l.14-.14a3.4 3.4 0 0 0 .1-4.8zm-17.6-2.1a10.4 10.4 0 1 1 .2 0zm16.6 5.8a2 2 0 0 1-2.8.1l-6.8-6.8a11.47 11.47 0 0 0 2.7-2.9l6.9 6.9a2 2 0 0 1 0 2.7zm-11.3-16.8.5-3.6v-.2c0-1.7-3.7-2.3-6.1-2.3s-6.1.6-6.2 2.3v.2l1.3 9c.1 1.8 4.4 1.9 4.9 1.8a12 12 0 0 0 2.8-.3 4.46 4.46 0 0 0 .8-.2c.8-.3 1.2-.7 1.3-1.3l.3-2.8a2.73 2.73 0 0 0 .7 0 1 1 0 0 0 1-.4 1.13 1.13 0 0 0 .1-.7 6.06 6.06 0 0 0-1.4-1.5zm-1.6.8-3.1-1.4a1 1 0 1 0-2 .43.84.84 0 0 0 0 .17 1 1 0 0 0 .9.8.63.63 0 0 0 .4-.1 31 31 0 0 0 3.5 1.5l-.4 3a.55.55 0 0 1-.3.2c-.2.1-.5.1-.8.2a13.82 13.82 0 0 1-2.3.3 7.06 7.06 0 0 1-3.5-.7l-1-7.5a17.38 17.38 0 0 0 9 0zm-4-3.9a10.83 10.83 0 0 1-4.6-.8 9.81 9.81 0 0 1 4.6-.8 9.81 9.81 0 0 1 4.5.8 11 11 0 0 1-4.47.8z" fill="#fff"/>
</svg>
