<svg xmlns="http://www.w3.org/2000/svg" width="200" height="128"><defs><style>.cls-1{fill:#876929;}.cls-2{fill:#d9a741;}.cls-3{fill:#fad791;}.cls-4{fill:#624a1e;}.cls-5{fill:#333;}</style></defs><path class="cls-1" d="M123.6,30.16l-3-1.38,3,1.49Zm-3-1.38-3.61.74V62.37l3.61.85Zm-13.5-2.23v38.9l5.42,1.6V25Z"/><path class="cls-2" d="M112.54,25v42.1L117,65V27ZM123.6,61.84h0v-.11l-3,1.49Z"/><path class="cls-2" d="M123.6,61.73V30.27l-3-1.49V63.22Z"/><path class="cls-1" d="M100,19,76.4,30.16V61.73L100,72.89h.11V19ZM93,34.94v25.2l-13.6-3.83V35.69L93,31.86Z"/><path class="cls-3" d="M86,55.46v.11l7,1.49V57l-7-1.49Z"/><path class="cls-3" d="M86,55.46l-6.59.85L93,60.14V57.06l-7-1.49Z"/><path class="cls-2" d="M86,36.54l-6.59-.85V56.31L86,55.46Zm0,18.92-6.59.85L86,55.46Z"/><path class="cls-4" d="M86,36.54l7-1.6V31.86l-13.6,3.83Z"/><path class="cls-2" d="M107,26.65l.1-.1V22.4l-7-3.4h0L107,22.4Zm0,42.95-6.91,3.29V73l7-3.4V65.45H107Z"/><path class="cls-2" d="M107,60.24v5.21h.1V60.24Zm0-28.48h.1V26.55l-.1.1Z"/><path class="cls-2" d="M107,31.76V60.24h.1V31.76ZM100.11,19V72.89L107,69.6V22.4Z"/><path class="cls-5" d="M78.85,90.74l-1-2.95H73.26l-1,2.95H70.59l4.1-11.09h1.76l4.09,11.09Zm-5.17-4.18h3.73l-1.87-5.44Zm18.58,4.18V85.23A1.83,1.83,0,0,0,92,84.05a1.13,1.13,0,0,0-1-.39,4.49,4.49,0,0,0-2.35.72,1.94,1.94,0,0,1,0,.24v6.12H87.07V85.23a1.9,1.9,0,0,0-.3-1.18,1.13,1.13,0,0,0-1-.39,4.35,4.35,0,0,0-2.34.71v6.37H81.89V82.62h1.33l.16.82a5.32,5.32,0,0,1,3-1.06,2,2,0,0,1,2,1.14,5.43,5.43,0,0,1,3.17-1.14,2.23,2.23,0,0,1,1.7.63,2.49,2.49,0,0,1,.59,1.77v6Zm8.68,0-.12-.84a4.2,4.2,0,0,1-1.28.77,3.76,3.76,0,0,1-1.38.27,2.54,2.54,0,0,1-1.82-.64,2.31,2.31,0,0,1-.68-1.74,2.28,2.28,0,0,1,.84-1.86,3.34,3.34,0,0,1,2.24-.7,8.38,8.38,0,0,1,2,.27v-1a1.59,1.59,0,0,0-.39-1.22A2,2,0,0,0,99,83.65a8.71,8.71,0,0,0-2.81.49V83a5.17,5.17,0,0,1,1.41-.47,8.55,8.55,0,0,1,1.68-.17,3.29,3.29,0,0,1,2.24.64,2.42,2.42,0,0,1,.72,1.92v5.8Zm-2.4-1a3.75,3.75,0,0,0,2.21-.81V87.3a6.86,6.86,0,0,0-1.69-.21c-1.21,0-1.81.46-1.81,1.39a1.27,1.27,0,0,0,.33.94A1.37,1.37,0,0,0,98.54,89.74Zm5.46,1V89.52l4.66-5.65h-4.5V82.62h6.26v1.2l-4.72,5.67h4.76v1.25Zm11.52.24a3.63,3.63,0,0,1-2.85-1.14,5.4,5.4,0,0,1,0-6.32,4.13,4.13,0,0,1,5.7,0,5.4,5.4,0,0,1,0,6.32A3.63,3.63,0,0,1,115.52,91Zm0-1.28c1.5,0,2.26-1,2.26-3s-.76-3-2.26-3-2.26,1-2.26,3S114,89.7,115.52,89.7Zm11.31,1V85.31a1.9,1.9,0,0,0-.34-1.25,1.37,1.37,0,0,0-1.08-.4,4.45,4.45,0,0,0-2.48.82v6.26h-1.59V82.62h1.33l.16.9a5.27,5.27,0,0,1,3.2-1.14,2.41,2.41,0,0,1,1.78.62,2.46,2.46,0,0,1,.61,1.78v6Zm-40,11.15a4.7,4.7,0,0,1-2-1.29,3.22,3.22,0,0,1,.49-4.33,4.58,4.58,0,0,1,3-.89A8.56,8.56,0,0,1,91.3,96v1.83a9.74,9.74,0,0,0-2.88-.48c-1.25,0-1.88.4-1.88,1.21a1,1,0,0,0,.32.74,4.29,4.29,0,0,0,1.23.61l1.18.43a5.13,5.13,0,0,1,2.12,1.27,2.81,2.81,0,0,1,.63,1.9,3.17,3.17,0,0,1-1.18,2.6,5.07,5.07,0,0,1-3.25,1,10,10,0,0,1-1.79-.17,6.38,6.38,0,0,1-1.54-.46v-1.82a12.4,12.4,0,0,0,1.72.38,10.08,10.08,0,0,0,1.64.15,2.6,2.6,0,0,0,1.46-.35,1.11,1.11,0,0,0,.51-1,1,1,0,0,0-.31-.78,3.93,3.93,0,0,0-1.26-.64Zm15.28,4.85-1.76-7.83-1.7,7.83H96L93,95.65h2.66l1.76,8.48,1.76-8.21h2.53l1.79,8.18,1.73-8.45h2.59l-3.06,11.09Zm7.18,0V95.65h7V97.5h-4.58v2.79h3.65v1.85h-3.65v4.6Z"/></svg>