<svg xmlns="http://www.w3.org/2000/svg" width="200" height="128">
    <defs>
        <linearGradient id="a" x1="-316.04" y1="-120.04" x2="-209.96" y2="-13.96" gradientTransform="rotate(-90 -25 -165)" gradientUnits="userSpaceOnUse">
            <stop offset="0" stop-color="#055f4e"/>
            <stop offset="1" stop-color="#56c0a7"/>
        </linearGradient>
    </defs>
    <path d="M78.85 90.74l-1-2.95h-4.59l-1 2.95h-1.67l4.1-11.09h1.76l4.09 11.09zm-5.17-4.18h3.73l-1.87-5.44zm18.58 4.18v-5.51a1.83 1.83 0 00-.26-1.18 1.13 1.13 0 00-1-.39 4.49 4.49 0 00-2.35.72 1.94 1.94 0 010 .24v6.12h-1.58v-5.51a1.9 1.9 0 00-.3-1.18 1.13 1.13 0 00-1-.39 4.35 4.35 0 00-2.34.71v6.37h-1.54v-8.12h1.33l.16.82a5.32 5.32 0 013-1.06 2 2 0 012 1.14 5.43 5.43 0 013.17-1.14 2.23 2.23 0 011.7.63 2.49 2.49 0 01.59 1.77v6zm8.68 0l-.12-.84a4.2 4.2 0 01-1.28.77 3.76 3.76 0 01-1.38.27 2.54 2.54 0 01-1.82-.64 2.31 2.31 0 01-.68-1.74 2.28 2.28 0 01.84-1.86 3.34 3.34 0 012.24-.7 8.38 8.38 0 012 .27v-1a1.59 1.59 0 00-.39-1.22 2 2 0 00-1.35-.4 8.71 8.71 0 00-2.81.49V83a5.17 5.17 0 011.41-.47 8.55 8.55 0 011.68-.17 3.29 3.29 0 012.24.64 2.42 2.42 0 01.72 1.92v5.8zm-2.4-1a3.75 3.75 0 002.21-.81V87.3a6.86 6.86 0 00-1.69-.21c-1.21 0-1.81.46-1.81 1.39a1.27 1.27 0 00.33.94 1.37 1.37 0 00.96.32zm5.46 1v-1.22l4.66-5.65h-4.5v-1.25h6.26v1.2l-4.72 5.67h4.76v1.25zm11.52.24a3.63 3.63 0 01-2.85-1.14 5.4 5.4 0 010-6.32 4.13 4.13 0 015.7 0 5.4 5.4 0 010 6.32 3.63 3.63 0 01-2.85 1.16zm0-1.28c1.5 0 2.26-1 2.26-3s-.76-3-2.26-3-2.26 1-2.26 3 .74 3 2.26 3zm11.31 1v-5.39a1.9 1.9 0 00-.34-1.25 1.37 1.37 0 00-1.08-.4 4.45 4.45 0 00-2.48.82v6.26h-1.59v-8.12h1.33l.16.9a5.27 5.27 0 013.2-1.14 2.41 2.41 0 011.78.62 2.46 2.46 0 01.61 1.78v6zm-63.11 16L62 98.91l-1.7 7.83h-2.6l-3.12-11.09h2.66l1.76 8.48 1.76-8.21h2.53l1.79 8.18 1.73-8.45h2.59l-3.06 11.09zM74 107a3.91 3.91 0 01-3-1.15 5.28 5.28 0 010-6.37 4.45 4.45 0 016 0 5.28 5.28 0 010 6.37 3.87 3.87 0 01-3 1.15zm0-1.8c1.12 0 1.68-.84 1.68-2.54s-.56-2.53-1.68-2.53-1.68.85-1.68 2.53.54 2.52 1.68 2.52zm5.87 1.56v-8.2h1.92l.29 1.22a4.31 4.31 0 011.21-1 2.51 2.51 0 011.2-.3 4.72 4.72 0 01.64 0v2.16a4.37 4.37 0 00-1-.1 4.92 4.92 0 00-1.93.37v5.78zm6.48 0V94.9h2.32v7.15l2.83-3.49h2.78l-3.37 3.9 3.63 4.28h-2.87l-3-3.73v3.73zM98 101.89a4.7 4.7 0 01-2-1.29 3 3 0 01-.62-1.93 2.93 2.93 0 011.11-2.4 4.6 4.6 0 013-.89 8.66 8.66 0 013.08.57v1.83a9.85 9.85 0 00-2.88-.48c-1.26 0-1.89.4-1.89 1.21a.94.94 0 00.33.74 4.07 4.07 0 001.22.61l1.18.43a5.07 5.07 0 012.12 1.27 2.77 2.77 0 01.64 1.9 3.18 3.18 0 01-1.19 2.6 5.07 5.07 0 01-3.25 1 10 10 0 01-1.79-.17 6.16 6.16 0 01-1.53-.46v-1.82a11.94 11.94 0 001.71.38 10.29 10.29 0 001.65.15 2.57 2.57 0 001.45-.35 1.11 1.11 0 00.51-1 1 1 0 00-.31-.78 3.85 3.85 0 00-1.25-.64zm7 8.14V98.56h1.92l.19.77a3.55 3.55 0 011.16-.74 3.77 3.77 0 011.39-.27 3 3 0 012.45 1.14 4.8 4.8 0 01.91 3.07 5.71 5.71 0 01-.42 2.25 3.53 3.53 0 01-1.2 1.56 3 3 0 01-1.81.57 3.73 3.73 0 01-1.25-.21 2.88 2.88 0 01-1-.57V110zm3.9-10a3 3 0 00-1.56.43v4.21a2.91 2.91 0 001.56.43 1.48 1.48 0 001.32-.61 3.32 3.32 0 00.43-1.92 3.45 3.45 0 00-.42-1.93 1.48 1.48 0 00-1.33-.56zm10.63 6.66l-.19-.72a4 4 0 01-1.15.71 3.41 3.41 0 01-1.25.26 2.64 2.64 0 01-1.9-.67 2.36 2.36 0 01-.71-1.79 2.45 2.45 0 01.38-1.35 2.6 2.6 0 011.11-.92 3.86 3.86 0 011.69-.34 7.8 7.8 0 011.7.21v-.8a1.3 1.3 0 00-.31-1 1.71 1.71 0 00-1.12-.27 9.72 9.72 0 00-2.89.49V99a6.19 6.19 0 011.49-.49 9.13 9.13 0 011.82-.18 3.63 3.63 0 012.41.66 2.67 2.67 0 01.76 2.09v5.67zm-1.94-1.32a2.13 2.13 0 00.83-.17 3.41 3.41 0 00.79-.48v-1.39a7.61 7.61 0 00-1.27-.12c-.92 0-1.39.38-1.39 1.12a1 1 0 00.27.77 1.06 1.06 0 00.77.32zm11.89 1a3.53 3.53 0 01-1 .4 5.86 5.86 0 01-1.26.13 3.91 3.91 0 01-3-1.09 5.21 5.21 0 01.06-6.3 4 4 0 013-1.14 4.54 4.54 0 012.16.52v1.55a6.3 6.3 0 00-1.73-.27 2.17 2.17 0 00-1.64.56 2.55 2.55 0 00-.53 1.8v.23a2.56 2.56 0 00.52 1.78 2.06 2.06 0 001.61.57 7 7 0 001.82-.29zm3.25-3.16a2 2 0 00.64 1.52 2.78 2.78 0 001.81.48 9.67 9.67 0 002.49-.4v1.55a5.45 5.45 0 01-1.33.45 8.53 8.53 0 01-1.61.16 4.09 4.09 0 01-3.1-1.11 5.4 5.4 0 010-6.41 3.8 3.8 0 012.93-1.14 3.26 3.26 0 012.44.87 3.41 3.41 0 01.86 2.49v.8c0 .3-.07.54-.11.74zm1.74-3.28a1.64 1.64 0 00-1.24.47 2.12 2.12 0 00-.52 1.37h3.14v-.28q0-1.55-1.38-1.55zm8.64 4.54a.68.68 0 00-.18-.5 2.49 2.49 0 00-.75-.38l-1.24-.5a3.22 3.22 0 01-1.41-.94 2.24 2.24 0 01-.43-1.42A2.12 2.12 0 01140 99a3.77 3.77 0 012.33-.66 5.87 5.87 0 012.48.53v1.55a8.08 8.08 0 00-2.28-.37 2.31 2.31 0 00-1 .16.54.54 0 00-.3.51.56.56 0 00.18.44 2.91 2.91 0 00.78.41l1.22.5a3.35 3.35 0 011.41.93 2.14 2.14 0 01.43 1.37 2.34 2.34 0 01-.91 1.91 3.63 3.63 0 01-2.34.72 6.37 6.37 0 01-2.92-.65v-1.56a9.55 9.55 0 002.9.5c.75-.01 1.13-.29 1.13-.81z" fill="#333"/>
    <path d="M73 19h54v54H73z" fill="url(#a)"/>
    <path d="M99.3 38.4v2.1h1.4v-2.1zm-5.6 10.8l-.7-1.3 1.7-.9.7 1.2zm2.8-1.7l-.7-1.2 1.7-1 .7 1.2zm17.5 4.6l-.7 1.2 1.9 1.1.7-1.2zm-3.1-1.8l-.7 1.2 1.9 1.1.7-1.2zm-3.1-1.8l-.7 1.2 1.8 1.1.7-1.2zm9.8-9.3l-12.9-7.5a.85.85 0 00-.7 0l-4.5 2.6-8.5 4.9a.84.84 0 00-.4.7v15a.55.55 0 00.4.6l13 7.4a.85.85 0 00.7 0l12.9-7.5a.82.82 0 00.4-.6V39.9a.75.75 0 00-.4-.7zm-14 21.8l-11.5-6.6v-4.3l.6-.4-.6-1v-7.6l6.6 3.8.6 1 .6-.3 3.7 2.1zm.7-14.5l-3.6-2.1v-2.5h-1.4v1.7l-6.5-3.8 6.5-3.7v.8h1.4v-1.7l3.6-2.1 11.5 6.7zm12.3 7.9L105 61V48.6l.8.4.8-1.2-.8-.4 10.8-6.2zm-19-22.5l-4.9-2.8a.85.85 0 00-.7 0l-9.6 5.5a.84.84 0 00-.4.7v11.1a.55.55 0 00.4.6l5 2.8c.1.1.2.1.4.1s.3 0 .3-.1a.82.82 0 00.4-.6V38.4l9.1-5.3a.82.82 0 00.4-.6.72.72 0 00-.4-.6zM87 47.9l-3.6-2v-9.4l3.6 2zm.8-10.7l-3.6-1.9 8.2-4.8 3.5 2z" fill="#fff"/>
</svg>
