<svg xmlns="http://www.w3.org/2000/svg" width="200" height="128">
    <defs>
        <linearGradient id="a" x1="19.97" y1="225.03" x2="126.03" y2="118.97" gradientTransform="translate(0 -99)" gradientUnits="userSpaceOnUse">
            <stop offset="0" stop-color="#055f4e"/>
            <stop offset="1" stop-color="#56c0a7"/>
        </linearGradient>
    </defs>
    <path d="M78.85 90.74l-1-2.95h-4.59l-1 2.95h-1.67l4.1-11.09h1.76l4.09 11.09zm-5.17-4.18h3.73l-1.87-5.44zm18.58 4.18v-5.51a1.83 1.83 0 00-.26-1.18 1.13 1.13 0 00-1-.39 4.49 4.49 0 00-2.35.72 1.94 1.94 0 010 .24v6.12h-1.58v-5.51a1.9 1.9 0 00-.3-1.18 1.13 1.13 0 00-1-.39 4.35 4.35 0 00-2.34.71v6.37h-1.54v-8.12h1.33l.16.82a5.32 5.32 0 013-1.06 2 2 0 012 1.14 5.43 5.43 0 013.17-1.14 2.23 2.23 0 011.7.63 2.49 2.49 0 01.59 1.77v6zm8.68 0l-.12-.84a4.2 4.2 0 01-1.28.77 3.76 3.76 0 01-1.38.27 2.54 2.54 0 01-1.82-.64 2.31 2.31 0 01-.68-1.74 2.28 2.28 0 01.84-1.86 3.34 3.34 0 012.24-.7 8.38 8.38 0 012 .27v-1a1.59 1.59 0 00-.39-1.22 2 2 0 00-1.35-.4 8.71 8.71 0 00-2.81.49V83a5.17 5.17 0 011.41-.47 8.55 8.55 0 011.68-.17 3.29 3.29 0 012.24.64 2.42 2.42 0 01.72 1.92v5.8zm-2.4-1a3.75 3.75 0 002.21-.81V87.3a6.86 6.86 0 00-1.69-.21c-1.21 0-1.81.46-1.81 1.39a1.27 1.27 0 00.33.94 1.37 1.37 0 00.96.32zm5.46 1v-1.22l4.66-5.65h-4.5v-1.25h6.26v1.2l-4.72 5.67h4.76v1.25zm11.52.24a3.63 3.63 0 01-2.85-1.14 5.4 5.4 0 010-6.32 4.13 4.13 0 015.7 0 5.4 5.4 0 010 6.32 3.63 3.63 0 01-2.85 1.16zm0-1.28c1.5 0 2.26-1 2.26-3s-.76-3-2.26-3-2.26 1-2.26 3 .74 3 2.26 3zm11.31 1v-5.39a1.9 1.9 0 00-.34-1.25 1.37 1.37 0 00-1.08-.4 4.45 4.45 0 00-2.48.82v6.26h-1.59v-8.12h1.33l.16.9a5.27 5.27 0 013.2-1.14 2.41 2.41 0 011.78.62 2.46 2.46 0 01.61 1.78v6zm-64.76 11.19a4.6 4.6 0 01-2-1.29 3.2 3.2 0 01.48-4.33 4.61 4.61 0 013-.89 8.6 8.6 0 013.07.57v1.83a9.85 9.85 0 00-2.88-.48c-1.26 0-1.89.4-1.89 1.21a.94.94 0 00.33.74 4.34 4.34 0 001.22.61l1.19.43a5.13 5.13 0 012.12 1.27 2.81 2.81 0 01.63 1.9 3.2 3.2 0 01-1.18 2.6 5.09 5.09 0 01-3.25 1 9.78 9.78 0 01-1.79-.17 6.38 6.38 0 01-1.54-.46v-1.82a11.94 11.94 0 001.71.38 10.29 10.29 0 001.65.15 2.62 2.62 0 001.46-.35 1.11 1.11 0 00.51-1 1 1 0 00-.31-.78 3.93 3.93 0 00-1.26-.64zm11.73 4.85l-.19-.72a3.91 3.91 0 01-1.14.71 3.51 3.51 0 01-1.26.26 2.66 2.66 0 01-1.9-.67 2.58 2.58 0 01-.32-3.14 2.52 2.52 0 011.1-.92 3.88 3.88 0 011.7-.34 7.71 7.71 0 011.69.21v-.8a1.34 1.34 0 00-.3-1 1.75 1.75 0 00-1.12-.27 9.78 9.78 0 00-2.9.49V99a6.34 6.34 0 011.49-.49 9.21 9.21 0 011.82-.18 3.63 3.63 0 012.41.66 2.63 2.63 0 01.76 2.09v5.67zm-1.93-1.32a2.08 2.08 0 00.82-.17 3.21 3.21 0 00.79-.48v-1.39a7.59 7.59 0 00-1.26-.12c-.93 0-1.39.38-1.39 1.12a1 1 0 00.27.77 1 1 0 00.77.27zm11 .32a3.08 3.08 0 01-2.14.82 2.89 2.89 0 01-2.38-1.11 4.63 4.63 0 01-.89-3 4.7 4.7 0 01.9-3 2.9 2.9 0 012.4-1.14 3.25 3.25 0 012.32.94l.18-.7h1.92v7.54a4.14 4.14 0 01-1.09 3 4.09 4.09 0 01-3 1.08 6.55 6.55 0 01-3-.68V108a9.4 9.4 0 002.74.49 2.09 2.09 0 001.53-.48 2.28 2.28 0 00.47-1.6zm-1.42-.91a2.43 2.43 0 00.74-.12 2.53 2.53 0 00.68-.33v-3.93a2.86 2.86 0 00-1.53-.4c-1 0-1.54.79-1.54 2.37a3.25 3.25 0 00.4 1.82 1.41 1.41 0 001.22.59zm7.71-1.61a2 2 0 00.64 1.52 2.8 2.8 0 001.81.48 9.67 9.67 0 002.49-.4v1.55a5.45 5.45 0 01-1.33.45 8.53 8.53 0 01-1.61.16 4.09 4.09 0 01-3.1-1.11 5.4 5.4 0 010-6.41A3.82 3.82 0 0191 98.32a3.26 3.26 0 012.44.87 3.41 3.41 0 01.86 2.49v.8c0 .3-.07.54-.11.74zm1.74-3.28a1.64 1.64 0 00-1.24.47 2.17 2.17 0 00-.52 1.37h3.14v-.28q-.03-1.56-1.41-1.56zm14.48 6.8v-7.68l-2.45 5h-2.14l-2.45-5v7.68H96.2V95.65h2.62l3 6.3 3-6.3h2.57v11.09zm9.2 0l-.19-.72a3.91 3.91 0 01-1.14.71 3.46 3.46 0 01-1.25.27 2.66 2.66 0 01-1.9-.67 2.58 2.58 0 01-.32-3.14 2.52 2.52 0 011.1-.92 3.91 3.91 0 011.7-.34 7.71 7.71 0 011.69.21v-.8a1.34 1.34 0 00-.3-1 1.73 1.73 0 00-1.12-.27 9.78 9.78 0 00-2.9.49V99a6.34 6.34 0 011.49-.49 9.28 9.28 0 011.82-.18 3.62 3.62 0 012.41.66 2.63 2.63 0 01.76 2.09v5.67zm-1.93-1.32a2.08 2.08 0 00.82-.17 3.21 3.21 0 00.79-.48v-1.39a7.59 7.59 0 00-1.26-.12c-.93 0-1.39.38-1.39 1.12a.94.94 0 001 1zm6 1.32V94.9h2.32v7.15l2.83-3.49h2.79l-3.38 3.9 3.63 4.28h-2.85l-3-3.73v3.73zm10.5-3.52a2 2 0 00.64 1.52 2.77 2.77 0 001.8.48 9.68 9.68 0 002.5-.4v1.55a5.39 5.39 0 01-1.34.45 8.35 8.35 0 01-1.6.16 4.09 4.09 0 01-3.1-1.11 5.4 5.4 0 010-6.41 3.8 3.8 0 012.93-1.14 3.26 3.26 0 012.44.87 3.41 3.41 0 01.86 2.49c0 .24 0 .5-.05.8s-.07.54-.11.74zm1.74-3.28a1.62 1.62 0 00-1.24.47 2.12 2.12 0 00-.52 1.37h3.14v-.28q-.05-1.56-1.43-1.56zm5.17 6.8v-8.18h1.92l.29 1.22a4.43 4.43 0 011.2-1 2.58 2.58 0 011.21-.3 4.85 4.85 0 01.64 0v2.16a4.37 4.37 0 00-1-.1 5 5 0 00-1.94.37v5.78z" fill="#333"/>
    <path d="M73 19h54v54H73z" fill="url(#a)"/>
    <path d="M104.5 64.2a.6.6 0 01-.4-.1l-4.1-2.4-4.1 2.4a.85.85 0 01-.7 0l-8.5-5.2a.82.82 0 01-.4-.6v-5.2l-3.9-2.2a.84.84 0 01-.4-.7v-8.4a.75.75 0 01.4-.7l3.9-2.2v-5.2a.87.87 0 01.4-.7l8.5-5.1a.85.85 0 01.7 0l4.1 2.4 4.1-2.4a.85.85 0 01.7 0l8.5 5.2a.84.84 0 01.4.7v5.1l3.9 2.3a.82.82 0 01.4.6v8.5a.75.75 0 01-.4.7l-3.9 2.2v5.2a.55.55 0 01-.4.6l-8.5 5.2c-.1-.1-.2 0-.3 0zm-3.8-3.8l3.8 2.2 7.7-4.7v-5.2a.75.75 0 01.4-.7l3.2-1.8-2.7-1.4a2.06 2.06 0 11.2-2.9 2.39 2.39 0 01.5 1.4v.3l2.8 1.5v-6.9l-4-2.2a.84.84 0 01-.4-.7v-1.9h-2a1.92 1.92 0 01-2.6 1.2 2.25 2.25 0 01-1.3-2.7 2 2 0 012.7-1.2 1.8 1.8 0 011.2 1.2h2v-1.8l-7.7-4.7-3.8 2.2v7.9l4.1 2.3a2 2 0 012.8.5 2 2 0 01-.4 2.8 2.17 2.17 0 01-2.9-.4 1.92 1.92 0 01-.4-1.2 1.09 1.09 0 01.1-.5l-4.4-2.4c-.2-.1-.4-.4-.3-.6v-8.4l-3.8-2.2-3.4 2.1v5.1h-1.5v-4.2l-2.8 1.8v4.7l3.6 2.1 3.6-2.1v-3.6h1.4v4.1a.55.55 0 01-.4.6l-3.9 2.3v3.4l3.9 2.6a.82.82 0 01.4.6v2.4l2.9-1.7v-3l-3.8-2.4.7-1.2 4.2 2.4a.61.61 0 01.3.7v9.3h3.3a2.07 2.07 0 012.7-1.2 2.17 2.17 0 011.4 2 2.06 2.06 0 01-2.3 1.9 2.3 2.3 0 01-1.8-1.2h-3.3v3.5zm-8.2.4l3 1.8 3.9-2.3v-9.1l-8.1 4.7-.7-1.2 4.4-2.6v-2.9l-3.6-2.3-4 2.2-.7-1.3 4-2.3v-3.4l-3.6-2-3.6 2v2.6l3.1-1.8.7 1.2-3.8 2.3v3.3l3.6 2.1 3.7-2.2.7 1.2-3.7 2.2v4.9l3.3 2 3.7-2.2h.2l.8 1.2zm13.5-5.4c-.4 0-.6.3-.7.7s.3.6.7.6a.58.58 0 00.6-.6 1.08 1.08 0 00-.6-.7zm5.7-8.8a.58.58 0 00-.6.6.86.86 0 00.6.7c.3.1.6-.3.7-.7s-.3-.6-.7-.6zm-5.7-3.8c-.4 0-.6.3-.7.7s.3.6.7.6a.58.58 0 00.6-.6 1.08 1.08 0 00-.6-.7zm2.3-6.8a.75.75 0 00-.7.6c-.1.3.3.6.7.7s.6-.3.6-.7a.58.58 0 00-.6-.6z" fill="#fff"/>
</svg>
