<svg xmlns="http://www.w3.org/2000/svg" width="200" height="128">
	<path fill="#1e293c" d="M97.61 25.78H81.13a1.37 1.37 0 0 0-1.37 1.38v16.47A1.37 1.37 0 0 0 81.13 45h16.48A1.38 1.38 0 0 0 99 43.63V27.16a1.38 1.38 0 0 0-1.39-1.38zm-.47 17.39H81.6V27.62h15.54zm21.73 3.76h-16.48a1.38 1.38 0 0 0-1.39 1.38v16.47a1.38 1.38 0 0 0 1.37 1.38h16.48a1.37 1.37 0 0 0 1.37-1.38V48.31a1.37 1.37 0 0 0-1.35-1.38zm-.47 17.38h-15.54V48.77h15.54zM125.61 19h-8.25v1.84h6.39l-11.84 11.85 1.3 1.3 12-12v6.6H127v-8.2a1.39 1.39 0 0 0-1.39-1.39z"/>
	<path fill="#1e293c" d="M118.4 43.17h-15.54V27.62h11.4l1.84-1.84h-13.71a1.38 1.38 0 0 0-1.39 1.38v16.47a1.38 1.38 0 0 0 1.39 1.37h16.48a1.37 1.37 0 0 0 1.37-1.38V29.94l-1.84 1.84zM88.09 59.25 86.79 58l-12 12v-6.7H73v8.25a1.39 1.39 0 0 0 1.39 1.39h8.25V71.1h-6.39z"/>
	<path fill="#1e293c" d="M97.61 46.93H81.13a1.37 1.37 0 0 0-1.37 1.38V62l1.84-1.84V48.77h15.54v15.55h-11.4l-1.84 1.84h13.71A1.38 1.38 0 0 0 99 64.78V48.31a1.38 1.38 0 0 0-1.39-1.38z"/>
	<path d="m59.49 94.65-3.91 11.09h2.52l.75-2.53h3.79l.78 2.53H66l-3.9-11.09zm-.13 6.83 1.38-4.64 1.4 4.64zm12.54-4.16a3.72 3.72 0 0 0-1.38.27 3.55 3.55 0 0 0-1.16.74l-.19-.77h-1.92V109h2.33v-3.9a3 3 0 0 0 1 .57 3.73 3.73 0 0 0 1.25.21 3 3 0 0 0 1.81-.57 3.53 3.53 0 0 0 1.2-1.56 5.71 5.71 0 0 0 .41-2.25 4.8 4.8 0 0 0-.9-3.07 3 3 0 0 0-2.45-1.11zm.57 6.22a1.48 1.48 0 0 1-1.32.61 2.94 2.94 0 0 1-1.57-.43v-4.21a3 3 0 0 1 1.57-.43 1.49 1.49 0 0 1 1.33.61 3.45 3.45 0 0 1 .42 1.93 3.4 3.4 0 0 1-.43 1.92zm9.27-6.22a3.69 3.69 0 0 0-1.38.27 3.55 3.55 0 0 0-1.16.74l-.2-.77h-1.91V109h2.33v-3.9a3 3 0 0 0 1 .57 3.73 3.73 0 0 0 1.25.21 3 3 0 0 0 1.81-.57 3.53 3.53 0 0 0 1.2-1.56 5.71 5.71 0 0 0 .41-2.25 4.8 4.8 0 0 0-.9-3.07 3 3 0 0 0-2.45-1.11zm.57 6.22a1.48 1.48 0 0 1-1.32.61 2.94 2.94 0 0 1-1.57-.43v-4.21a3 3 0 0 1 1.58-.43 1.49 1.49 0 0 1 1.33.61 3.45 3.45 0 0 1 .42 1.93 3.4 3.4 0 0 1-.44 1.92zm16.46-3.77A3 3 0 0 0 99.3 98a3.2 3.2 0 0 0-1-2.48 3.93 3.93 0 0 0-2.74-.91h-4.28v11.09h2.3v-4.31h1.57l2.4 4.31H100l-2.72-4.7a3.52 3.52 0 0 0 1.49-1.23zm-3.52 0h-1.67v-3.36h1.7a1.46 1.46 0 0 1 1.65 1.66 1.5 1.5 0 0 1-1.68 1.7zm11.09 3.9a3 3 0 0 1-1.64.51c-.74 0-1.12-.43-1.12-1.29v-5.33h-2.33v6a2.49 2.49 0 0 0 .61 1.79 2.21 2.21 0 0 0 1.69.65 4.78 4.78 0 0 0 3-1.11l.22.87h1.92v-8.2h-2.33zm9.79-6.35a4.89 4.89 0 0 0-3.07 1.12l-.23-.88h-1.92v8.18h2.34v-6.08a3.18 3.18 0 0 1 1.74-.55 1.12 1.12 0 0 1 .88.31 1.36 1.36 0 0 1 .29 1v5.36h2.34v-6a2.16 2.16 0 0 0-2.37-2.37zm9.79 0a4.89 4.89 0 0 0-3.07 1.12l-.23-.88h-1.92v8.18h2.3v-6.08a3.21 3.21 0 0 1 1.74-.55 1.12 1.12 0 0 1 .88.31 1.31 1.31 0 0 1 .29 1v5.36h2.34v-6a2.16 2.16 0 0 0-2.37-2.37zm8.14 0a3.78 3.78 0 0 0-2.92 1.14 5.38 5.38 0 0 0 0 6.41 4.11 4.11 0 0 0 3.1 1.11 8.53 8.53 0 0 0 1.61-.16 5.31 5.31 0 0 0 1.33-.45v-1.55a9.67 9.67 0 0 1-2.49.4 2.8 2.8 0 0 1-1.81-.48 2 2 0 0 1-.64-1.52h5c0-.2.08-.44.11-.74s.05-.56.05-.8a3.41 3.41 0 0 0-.86-2.49 3.26 3.26 0 0 0-2.48-.87zm1.3 3.46h-3.14a2.17 2.17 0 0 1 .52-1.37 1.64 1.64 0 0 1 1.24-.47q1.38 0 1.38 1.56zm8.42-3.3a2.55 2.55 0 0 0-1.21.3 4.45 4.45 0 0 0-1.21 1l-.29-1.22h-1.92v8.18h2.34V100a4.92 4.92 0 0 1 1.93-.37 4.4 4.4 0 0 1 1 .1v-2.2a5 5 0 0 0-.64-.05zm-50.44-6.74-4.09-11.09h-1.76l-4.1 11.09h1.68l1-2.95h4.56l1 2.95zm-6.86-4.18 1.86-5.44 1.87 5.44zm17.66 4.18 3.24-11.09h-1.72l-2.4 9.31-2.12-8.99h-1.8l-2.12 8.97-2.39-9.29h-1.77l3.23 11.09h1.82l2.11-8.69 2.1 8.69h1.82zm9.48-1.6a2.85 2.85 0 0 1-1.78.49 9.87 9.87 0 0 1-3.17-.56v1.28a7.29 7.29 0 0 0 3.2.66 4.5 4.5 0 0 0 2.95-.91 3 3 0 0 0 1.1-2.45 2.61 2.61 0 0 0-.57-1.75 4.31 4.31 0 0 0-1.86-1.16l-1.49-.55a4.07 4.07 0 0 1-1.42-.76 1.34 1.34 0 0 1-.39-1 1.41 1.41 0 0 1 .57-1.21 2.68 2.68 0 0 1 1.61-.43 10 10 0 0 1 2.85.5V80a8.43 8.43 0 0 0-3-.57 4.52 4.52 0 0 0-2 .4A3.09 3.09 0 0 0 109 80.9a3 3 0 0 0-.44 1.6 2.63 2.63 0 0 0 .59 1.77 4.51 4.51 0 0 0 1.9 1.2l1.55.59a3.73 3.73 0 0 1 1.28.75 1.36 1.36 0 0 1 .37 1 1.59 1.59 0 0 1-.63 1.33z"/>
</svg>
