<svg xmlns="http://www.w3.org/2000/svg" width="200" height="128">
    <defs>
        <linearGradient id="a" x1="262.09" y1="128.5" x2="262.09" y2="-21.5" gradientTransform="rotate(45 143.997 -165.004)" gradientUnits="userSpaceOnUse">
            <stop offset="0" stop-color="#4d27a8"/>
            <stop offset="1" stop-color="#a166ff"/>
        </linearGradient>
    </defs>
    <path d="M78.85 90.74l-1-2.95h-4.59l-1 2.95h-1.67l4.1-11.09h1.76l4.09 11.09zm-5.17-4.18h3.73l-1.87-5.44zm18.58 4.18v-5.51a1.83 1.83 0 00-.26-1.18 1.13 1.13 0 00-1-.39 4.49 4.49 0 00-2.35.72 1.94 1.94 0 010 .24v6.12h-1.58v-5.51a1.9 1.9 0 00-.3-1.18 1.13 1.13 0 00-1-.39 4.35 4.35 0 00-2.34.71v6.37h-1.54v-8.12h1.33l.16.82a5.32 5.32 0 013-1.06 2 2 0 012 1.14 5.43 5.43 0 013.17-1.14 2.23 2.23 0 011.7.63 2.49 2.49 0 01.59 1.77v6zm8.68 0l-.12-.84a4.2 4.2 0 01-1.28.77 3.76 3.76 0 01-1.38.27 2.54 2.54 0 01-1.82-.64 2.31 2.31 0 01-.68-1.74 2.28 2.28 0 01.84-1.86 3.34 3.34 0 012.24-.7 8.38 8.38 0 012 .27v-1a1.59 1.59 0 00-.39-1.22 2 2 0 00-1.35-.4 8.71 8.71 0 00-2.81.49V83a5.17 5.17 0 011.41-.47 8.55 8.55 0 011.68-.17 3.29 3.29 0 012.24.64 2.42 2.42 0 01.72 1.92v5.8zm-2.4-1a3.75 3.75 0 002.21-.81V87.3a6.86 6.86 0 00-1.69-.21c-1.21 0-1.81.46-1.81 1.39a1.27 1.27 0 00.33.94 1.37 1.37 0 00.96.32zm5.46 1v-1.22l4.66-5.65h-4.5v-1.25h6.26v1.2l-4.72 5.67h4.76v1.25zm11.52.24a3.63 3.63 0 01-2.85-1.14 5.4 5.4 0 010-6.32 4.13 4.13 0 015.7 0 5.4 5.4 0 010 6.32 3.63 3.63 0 01-2.85 1.16zm0-1.28c1.5 0 2.26-1 2.26-3s-.76-3-2.26-3-2.26 1-2.26 3 .74 3 2.26 3zm11.31 1v-5.39a1.9 1.9 0 00-.34-1.25 1.37 1.37 0 00-1.08-.4 4.45 4.45 0 00-2.48.82v6.26h-1.59v-8.12h1.33l.16.9a5.27 5.27 0 013.2-1.14 2.41 2.41 0 011.78.62 2.46 2.46 0 01.61 1.78v6zM72 105a9.07 9.07 0 001.18-.08v-2.7h-2.11v-1.73h4.29v5.55a6.82 6.82 0 01-1.79.63 10 10 0 01-2.11.22 5.31 5.31 0 01-4-1.45 5.77 5.77 0 01-1.4-4.15A6 6 0 0167.51 97a5.59 5.59 0 014.2-1.5 7.39 7.39 0 013.25.66V98a10.1 10.1 0 00-3-.53 3.45 3.45 0 00-2.61.89 4 4 0 00-.83 2.79v.29a3.91 3.91 0 00.82 2.76 3.46 3.46 0 002.66.8zm10.29 1.72l-.2-.72a3.91 3.91 0 01-1.14.71 3.42 3.42 0 01-1.26.26 2.63 2.63 0 01-1.89-.67 2.32 2.32 0 01-.71-1.79 2.37 2.37 0 01.38-1.35 2.57 2.57 0 011.1-.92 3.91 3.91 0 011.7-.34 7.8 7.8 0 011.7.21v-.8a1.3 1.3 0 00-.31-1 1.71 1.71 0 00-1.12-.27 9.72 9.72 0 00-2.89.49V99a6.25 6.25 0 011.48-.49 9.31 9.31 0 011.83-.18 3.63 3.63 0 012.41.66 2.67 2.67 0 01.76 2.09v5.67zm-1.94-1.32a2 2 0 00.82-.17 3.27 3.27 0 00.8-.48v-1.39a7.61 7.61 0 00-1.27-.12c-.93 0-1.39.38-1.39 1.12a.94.94 0 001 1zm16.11 1.32v-5.52c0-.73-.32-1.09-1-1.09a4 4 0 00-1.75.42v6.21h-2.33v-5.54c0-.73-.33-1.09-1-1.09a4 4 0 00-1.76.43v6.2h-2.31v-8.18h1.92l.2.78a7.48 7.48 0 011.57-.79 4.42 4.42 0 011.4-.23 2.15 2.15 0 012 1 6.76 6.76 0 011.54-.78 4.7 4.7 0 011.49-.24 2.35 2.35 0 011.73.62 2.4 2.4 0 01.62 1.75v6zm6.29-3.52a2 2 0 00.64 1.52 2.82 2.82 0 001.81.48 9.74 9.74 0 002.5-.4v1.55a5.54 5.54 0 01-1.34.45 8.45 8.45 0 01-1.61.16 4.11 4.11 0 01-3.1-1.11 5.38 5.38 0 010-6.41 3.78 3.78 0 012.92-1.14 3.26 3.26 0 012.44.87 3.37 3.37 0 01.86 2.49v.8c0 .3-.07.54-.11.74zm1.74-3.28a1.6 1.6 0 00-1.23.47 2.07 2.07 0 00-.52 1.37h3.13v-.28q-.03-1.54-1.41-1.54zm5.33 6.8V95.65h2.4v9.17h4.87v1.92zm9.76-9.44a1.4 1.4 0 01-1-.34 1.16 1.16 0 01-.37-.91 1.14 1.14 0 01.37-.91 1.35 1.35 0 011-.34 1.38 1.38 0 011 .34 1.17 1.17 0 01.37.91 1.19 1.19 0 01-.37.91 1.42 1.42 0 01-1.03.36zm-1.17 9.44v-8.16h2.34v8.18zm5 0v-6.45h-1.29v-1.42l1.29-.24v-.74a3.4 3.4 0 01.75-2.41 3 3 0 012.26-.79 4.73 4.73 0 01.9.09 4.65 4.65 0 01.81.23v1.59a6.75 6.75 0 00-1.08-.1 1.62 1.62 0 00-1 .24 1.06 1.06 0 00-.28.85v1h2.29v1.73h-2.29v6.45zm11.16-.21a5.45 5.45 0 01-1.94.33 2.74 2.74 0 01-2-.64 2.67 2.67 0 01-.65-2v-3.95h-1.23v-1.4l1.3-.26.35-2.24h1.92v2.21h2.21v1.73h-2.21v3.84a.89.89 0 00.26.72 1.35 1.35 0 00.86.21 8.52 8.52 0 001.14-.1z" fill="#333"/>
    <path d="M73 19h54v54H73z" fill="url(#a)"/>
    <path d="M93.3 49.7a8.58 8.58 0 00-1.7.3 32 32 0 01-.9-6.2h12.2a16.55 16.55 0 01-.3 3.2h1.4c.1-1 .2-2.1.2-3.2h6.5a14.68 14.68 0 01-.5 2.9 10.41 10.41 0 011.6-.6 15.26 15.26 0 00.3-3A15.09 15.09 0 0097 28h-.6a15.14 15.14 0 00-3.7 29.6v-1.5a13.16 13.16 0 01-5.2-3.3 6.41 6.41 0 013.1-1.1 13.48 13.48 0 002.2 4.3v-2.7a10.84 10.84 0 01-.8-1.9l.9-.1a12.44 12.44 0 01.4-1.6zm-2.6-7.3a32 32 0 01.9-6.2 35.17 35.17 0 005.6.4c1.7 0 3.2-.1 4.9-.2a31.09 31.09 0 01.9 6zm6-13h.2c1.9.1 3.7 2.2 4.8 5.5a34 34 0 01-4.5.3 30.37 30.37 0 01-5.2-.4c1.1-3.2 2.8-5.3 4.7-5.4zm7.6 13a26.53 26.53 0 00-.8-6.3 9.29 9.29 0 004.1-1.6 13.4 13.4 0 013.1 7.9zm2.4-9a7.84 7.84 0 01-3.6 1.3 11.79 11.79 0 00-2.6-4.8 13.22 13.22 0 016.2 3.5zm-16.1 1.2a6.47 6.47 0 01-3.1-1.3 12.36 12.36 0 015.4-3.2 16 16 0 00-2.3 4.5zm-4-.2a8.28 8.28 0 003.5 1.5 20.35 20.35 0 00-.8 6.5h-5.9a13.55 13.55 0 013.2-8zm-.1 17.4a13.34 13.34 0 01-3-8h5.8a23 23 0 00.9 6.4 7.26 7.26 0 00-3.7 1.6zm31.5 8.8v-7.3c0-.1 0-.1-.1-.2s.1-.4.1-.6a5 5 0 00-8.6-3.6h-6.6a5 5 0 00-7.1.1 5.58 5.58 0 00-1.5 3.5 1.27 1.27 0 00.1.6c0 .1-.1.1-.1.2v7.3a3.32 3.32 0 001 2.5 3 3 0 002.1.9c2.4 0 3.6-3 4.6-5.6a7.74 7.74 0 01.7-1.6h7.1c.2.4.4 1 .7 1.6 1 2.7 2.2 5.6 4.6 5.6a2.72 2.72 0 002.1-.9 3.66 3.66 0 00.9-2.5zm-1.4-8.1a3.6 3.6 0 11-3.6-3.6 3.65 3.65 0 013.6 3.6zm-12.8-2.2h4.6a5 5 0 00.5 5.1h-5.4a5.15 5.15 0 00.3-5.1zm-4.5-1.4a3.6 3.6 0 11-3.6 3.6 3.59 3.59 0 013.6-3.6zm-2 13.7a1.5 1.5 0 01-1.1-.4 2.1 2.1 0 01-.5-1.5V56a4.75 4.75 0 003.6 1.5 7.72 7.72 0 001.5-.2l-.2.5c-.9 2.2-1.9 4.8-3.3 4.8zm18.7-.4a1.5 1.5 0 01-1.1.4c-1.4 0-2.4-2.6-3.2-4.8-.1-.1-.1-.4-.3-.5a7.77 7.77 0 001.6.2 5.15 5.15 0 003.6-1.5v4.7a2.2 2.2 0 01-.6 1.5zm-17.4-7.6h1.4v-1.4h1.4v-1.4H100v-1.5h-1.4v1.5h-1.5v1.4h1.5zm14.4-1a1 1 0 001.1-1.1 1.2 1.2 0 00-1.1-1.2 1.22 1.22 0 00-1.2 1.2 1 1 0 001.2 1.1z" fill="#fff"/>
</svg>
