<svg xmlns="http://www.w3.org/2000/svg" width="200" height="128">
	<defs>
		<linearGradient id="a" x1="262.09" y1="128.5" x2="262.09" y2="-21.5" gradientTransform="rotate(45 143.997 -165.004)" gradientUnits="userSpaceOnUse">
			<stop offset="0" stop-color="#2e27ad"/>
			<stop offset="1" stop-color="#527fff"/>
		</linearGradient>
	</defs>
	<path d="m78.85 90.74-1-2.95h-4.59l-1 2.95h-1.67l4.1-11.09h1.76l4.09 11.09zm-5.17-4.18h3.73l-1.87-5.44zm18.58 4.18v-5.51a1.83 1.83 0 0 0-.26-1.18 1.13 1.13 0 0 0-1-.39 4.49 4.49 0 0 0-2.35.72 1.94 1.94 0 0 1 0 .24v6.12h-1.58v-5.51a1.9 1.9 0 0 0-.3-1.18 1.13 1.13 0 0 0-1-.39 4.35 4.35 0 0 0-2.34.71v6.37h-1.54v-8.12h1.33l.16.82a5.32 5.32 0 0 1 3-1.06 2 2 0 0 1 2 1.14 5.43 5.43 0 0 1 3.17-1.14 2.23 2.23 0 0 1 1.7.63 2.49 2.49 0 0 1 .59 1.77v6zm8.68 0-.12-.84a4.2 4.2 0 0 1-1.28.77 3.76 3.76 0 0 1-1.38.27 2.54 2.54 0 0 1-1.82-.64 2.31 2.31 0 0 1-.68-1.74 2.28 2.28 0 0 1 .84-1.86 3.34 3.34 0 0 1 2.24-.7 8.38 8.38 0 0 1 2 .27v-1a1.59 1.59 0 0 0-.39-1.22 2 2 0 0 0-1.35-.4 8.71 8.71 0 0 0-2.81.49V83a5.17 5.17 0 0 1 1.41-.47 8.55 8.55 0 0 1 1.68-.17 3.29 3.29 0 0 1 2.24.64 2.42 2.42 0 0 1 .72 1.92v5.8zm-2.4-1a3.75 3.75 0 0 0 2.21-.81V87.3a6.86 6.86 0 0 0-1.69-.21c-1.21 0-1.81.46-1.81 1.39a1.27 1.27 0 0 0 .33.94 1.37 1.37 0 0 0 .96.32zm5.46 1v-1.22l4.66-5.65h-4.5v-1.25h6.26v1.2l-4.72 5.67h4.76v1.25zm11.52.24a3.63 3.63 0 0 1-2.85-1.14 5.4 5.4 0 0 1 0-6.32 4.13 4.13 0 0 1 5.7 0 5.4 5.4 0 0 1 0 6.32 3.63 3.63 0 0 1-2.85 1.16zm0-1.28c1.5 0 2.26-1 2.26-3s-.76-3-2.26-3-2.26 1-2.26 3 .74 3 2.26 3zm11.31 1v-5.39a1.9 1.9 0 0 0-.34-1.25 1.37 1.37 0 0 0-1.08-.4 4.45 4.45 0 0 0-2.48.82v6.26h-1.59v-8.12h1.33l.16.9a5.27 5.27 0 0 1 3.2-1.14 2.41 2.41 0 0 1 1.78.62 2.46 2.46 0 0 1 .61 1.78v6zm-48.37 15.75a8.1 8.1 0 0 1-2.9.49 5.46 5.46 0 0 1-4.1-1.44 7.11 7.11 0 0 1 .07-8.5 5.4 5.4 0 0 1 4.09-1.52 8 8 0 0 1 2.68.45v1.89a11.17 11.17 0 0 0-2.39-.32 3.24 3.24 0 0 0-2.49.88 3.84 3.84 0 0 0-.82 2.62v.37a3.87 3.87 0 0 0 .8 2.67 3.17 3.17 0 0 0 2.45.87 12.8 12.8 0 0 0 2.61-.37zm5.24.53a3.89 3.89 0 0 1-3-1.15 5.28 5.28 0 0 1 0-6.37 4.45 4.45 0 0 1 6 0 5.28 5.28 0 0 1 0 6.37 3.89 3.89 0 0 1-3 1.17zm0-1.8c1.12 0 1.68-.84 1.68-2.54s-.56-2.53-1.68-2.53-1.7.89-1.7 2.53.58 2.54 1.7 2.54zm11.12 1.56v-5.36a1.36 1.36 0 0 0-.28-1 1.15 1.15 0 0 0-.88-.31 3.21 3.21 0 0 0-1.75.55v6.08h-2.33v-8.14h1.92l.22.88a4.89 4.89 0 0 1 3.07-1.12 2.36 2.36 0 0 1 1.75.62 2.32 2.32 0 0 1 .62 1.75v6zm9.8 0v-5.36a1.36 1.36 0 0 0-.29-1 1.14 1.14 0 0 0-.88-.31 3.21 3.21 0 0 0-1.75.55v6.08h-2.33v-8.14h1.92l.22.88a4.91 4.91 0 0 1 3.07-1.12 2.39 2.39 0 0 1 1.76.62 2.36 2.36 0 0 1 .61 1.75v6zm6.28-3.52a2.06 2.06 0 0 0 .64 1.52 2.82 2.82 0 0 0 1.81.48 9.68 9.68 0 0 0 2.5-.4v1.55a5.39 5.39 0 0 1-1.34.45 8.37 8.37 0 0 1-1.61.16 4.08 4.08 0 0 1-3.09-1.11 5.35 5.35 0 0 1 0-6.41 3.79 3.79 0 0 1 2.93-1.14 3.28 3.28 0 0 1 2.44.87 3.4 3.4 0 0 1 .85 2.49 7.91 7.91 0 0 1 0 .8 7.18 7.18 0 0 1-.12.74zm1.75-3.28a1.62 1.62 0 0 0-1.24.47 2.07 2.07 0 0 0-.52 1.37H114v-.28c0-1.04-.43-1.56-1.35-1.56zm11.07 6.44a3.53 3.53 0 0 1-1 .4 5.86 5.86 0 0 1-1.26.13 3.91 3.91 0 0 1-3-1.09 5.21 5.21 0 0 1 .06-6.3 4 4 0 0 1 3-1.14 4.54 4.54 0 0 1 2.16.52v1.55a6.3 6.3 0 0 0-1.73-.27 2.17 2.17 0 0 0-1.64.56 2.55 2.55 0 0 0-.53 1.8v.23a2.56 2.56 0 0 0 .52 1.78 2.06 2.06 0 0 0 1.61.57 7 7 0 0 0 1.82-.29zm6.85.15a5.41 5.41 0 0 1-1.94.33 2.77 2.77 0 0 1-2-.64 2.66 2.66 0 0 1-.64-2v-3.95h-1.24v-1.42l1.3-.26.35-2.24h1.92v2.21h2.21v1.73h-2.21v3.84a.89.89 0 0 0 .26.72 1.37 1.37 0 0 0 .86.21 8.52 8.52 0 0 0 1.14-.1z" fill="#333"/>
	<path d="M73 19h54v54H73z" fill="url(#a)"/>
	<path d="M112.4 40.1a4.57 4.57 0 0 0-7.3-3.8 11.08 11.08 0 0 0-2.1-3.2A9.46 9.46 0 0 0 92.3 31a9.83 9.83 0 0 0-5.6 8.8v.5a6.63 6.63 0 0 0-4.8 6.6 7.21 7.21 0 0 0 3.6 6.4 3.42 3.42 0 0 0 2.2.5l6.5.1v7.2a.91.91 0 0 0 .3.7.62.62 0 0 0 .7-.1l10.7-7.8h5.5c.1 0 6.4-.6 6.5-7a6.48 6.48 0 0 0-5.5-6.8zm-.9 12.4h-5.7a4.33 4.33 0 0 1-.5.1l-9.6 7.1v-6.5a.68.68 0 0 0-.7-.7h-7.2a3.43 3.43 0 0 1-1.6-.4 5.82 5.82 0 0 1-2.8-5.2 5.29 5.29 0 0 1 4.2-5.4.73.73 0 0 0 .6-.7l-.1-1.1a8.42 8.42 0 0 1 4.8-7.4 9.76 9.76 0 0 1 3.3-.7 8.11 8.11 0 0 1 5.7 2.5 11 11 0 0 1 2.3 3.7c.1.3.3.4.6.5s.5-.1.7-.3a2.89 2.89 0 0 1 3.3-1.1c1.4.4 2.2 1.8 2.1 3.7-.1.4.2.7.6.8 1.5.3 5 1.3 5.1 5.5 0 5.1-4.9 5.5-5.1 5.6zm-3.9-12.3a2.72 2.72 0 0 0-2.6 2.6 2 2 0 0 0 .4 1.3l-2.5 2.8a2.66 2.66 0 0 1 1.1 1l2.5-2.8a4.25 4.25 0 0 0 1.1.2 2.54 2.54 0 0 0 2.5-2.5 2.78 2.78 0 0 0-2.5-2.6zm0 3.6a1.1 1.1 0 0 1-1.1-1 1.18 1.18 0 0 1 1.1-1.1 1 1 0 0 1 1 1.1c-.1.6-.5 1.1-1 1zm-3.6 4.1a1.67 1.67 0 0 0-1.1-.9 4.51 4.51 0 0 0-1.1-.3 1.7 1.7 0 0 0-.7.1L98.6 43a2.61 2.61 0 0 0 .7-1.7 2.54 2.54 0 0 0-2.5-2.5 2.78 2.78 0 0 0-2.6 2.5 1.75 1.75 0 0 0 .4 1.2l-3.1 3.1a2.61 2.61 0 0 0-3.5.9 2.55 2.55 0 0 0 1 3.5 2.42 2.42 0 0 0 3.4-1 2.84 2.84 0 0 0 .4-1.2 2.66 2.66 0 0 0-.3-1.2l3.1-3.1a2.29 2.29 0 0 0 1.8.2l2.5 3.8a2.35 2.35 0 0 0-.6 1.7 2.54 2.54 0 0 0 2.5 2.5 2.61 2.61 0 0 0 2.5-2.5 3.08 3.08 0 0 0-.3-1.3zm-13.7 1a1.1 1.1 0 1 1 1.1-1.1 1.11 1.11 0 0 1-1.1 1.1zm6.5-6.5a1.1 1.1 0 1 1 0-2.2 1 1 0 0 1 1 1.1c-.1.6-.5 1.1-1 1.1zm5 7.9a1.11 1.11 0 0 1-1.1-1.1 1 1 0 0 1 1.1-1c.6.1 1.1.5 1.1 1a1.18 1.18 0 0 1-1.1 1.1z" fill="#fff"/>
</svg>
