<svg xmlns="http://www.w3.org/2000/svg" width="200" height="128">
    <defs>
        <linearGradient id="a" x1="365.03" y1="-110.97" x2="258.97" y2="-217.03" gradientTransform="rotate(90 74 -165)" gradientUnits="userSpaceOnUse">
            <stop offset="0" stop-color="#1b660f"/>
            <stop offset="1" stop-color="#6cae3e"/>
        </linearGradient>
    </defs>
    <path d="M78.85 90.74l-1-2.95h-4.59l-1 2.95h-1.67l4.1-11.09h1.76l4.09 11.09zm-5.17-4.18h3.73l-1.87-5.44zm18.58 4.18v-5.51a1.83 1.83 0 00-.26-1.18 1.13 1.13 0 00-1-.39 4.49 4.49 0 00-2.35.72 1.94 1.94 0 010 .24v6.12h-1.58v-5.51a1.9 1.9 0 00-.3-1.18 1.13 1.13 0 00-1-.39 4.35 4.35 0 00-2.34.71v6.37h-1.54v-8.12h1.33l.16.82a5.32 5.32 0 013-1.06 2 2 0 012 1.14 5.43 5.43 0 013.17-1.14 2.23 2.23 0 011.7.63 2.49 2.49 0 01.59 1.77v6zm8.68 0l-.12-.84a4.2 4.2 0 01-1.28.77 3.76 3.76 0 01-1.38.27 2.54 2.54 0 01-1.82-.64 2.31 2.31 0 01-.68-1.74 2.28 2.28 0 01.84-1.86 3.34 3.34 0 012.24-.7 8.38 8.38 0 012 .27v-1a1.59 1.59 0 00-.39-1.22 2 2 0 00-1.35-.4 8.71 8.71 0 00-2.81.49V83a5.17 5.17 0 011.41-.47 8.55 8.55 0 011.68-.17 3.29 3.29 0 012.24.64 2.42 2.42 0 01.72 1.92v5.8zm-2.4-1a3.75 3.75 0 002.21-.81V87.3a6.86 6.86 0 00-1.69-.21c-1.21 0-1.81.46-1.81 1.39a1.27 1.27 0 00.33.94 1.37 1.37 0 00.96.32zm5.46 1v-1.22l4.66-5.65h-4.5v-1.25h6.26v1.2l-4.72 5.67h4.76v1.25zm11.52.24a3.63 3.63 0 01-2.85-1.14 5.4 5.4 0 010-6.32 4.13 4.13 0 015.7 0 5.4 5.4 0 010 6.32 3.63 3.63 0 01-2.85 1.16zm0-1.28c1.5 0 2.26-1 2.26-3s-.76-3-2.26-3-2.26 1-2.26 3 .74 3 2.26 3zm11.31 1v-5.39a1.9 1.9 0 00-.34-1.25 1.37 1.37 0 00-1.08-.4 4.45 4.45 0 00-2.48.82v6.26h-1.59v-8.12h1.33l.16.9a5.27 5.27 0 013.2-1.14 2.41 2.41 0 011.78.62 2.46 2.46 0 01.61 1.78v6zm-39.91 16V95.65h7.3v1.85h-4.9v2.63h4V102h-4v2.9h4.9v1.86zm9.25 0V95.65h4a4 4 0 012.59.81 2.67 2.67 0 011 2.13 2.53 2.53 0 01-.38 1.4 2.47 2.47 0 01-1.11.91 2.93 2.93 0 011.56 1 2.68 2.68 0 01.54 1.7 2.79 2.79 0 01-1.07 2.29 4.57 4.57 0 01-2.88.85zm2.27-9.38v2.91h1.39c1 0 1.55-.48 1.55-1.44s-.47-1.47-1.42-1.47zm0 4.54V105h1.89c1.09 0 1.63-.51 1.63-1.53s-.58-1.59-1.74-1.59zm10 0a4.7 4.7 0 01-2-1.29 3 3 0 01-.62-1.93 2.93 2.93 0 011.11-2.4 4.6 4.6 0 013-.89 8.66 8.66 0 013.08.57v1.83a9.85 9.85 0 00-2.88-.48c-1.26 0-1.89.4-1.89 1.21a.94.94 0 00.33.74 4.07 4.07 0 001.22.61l1.18.43a5.07 5.07 0 012.12 1.27 2.77 2.77 0 01.64 1.9 3.18 3.18 0 01-1.19 2.6 5.07 5.07 0 01-3.25 1 10 10 0 01-1.79-.17 6.16 6.16 0 01-1.53-.46v-1.82a11.94 11.94 0 001.71.38 10.29 10.29 0 001.65.15 2.57 2.57 0 001.45-.35 1.11 1.11 0 00.51-1 1 1 0 00-.31-.78 3.85 3.85 0 00-1.25-.64z" fill="#333"/>
    <path d="M73 19h54v54H73z" fill="url(#a)"/>
    <path d="M108.6 37.6c0-.1-.1-.2 0-.2-.6-1.9-4.6-3-8.6-3s-7.9 1-8.6 3c0 .1-.1.2 0 .2V54c0 2.3 4.3 3.5 8.6 3.5s8.6-1.2 8.6-3.5zm-8.6-1.8c4.1 0 6.6 1.1 7.1 1.8-.5.7-3 1.8-7.1 1.8s-6.6-1.1-7.1-1.8c.6-.7 3-1.8 7.1-1.8zm7.2 18.2c0 .7-2.5 2.1-7.2 2.1s-7.2-1.4-7.2-2.1V39.4a15.37 15.37 0 007.2 1.5 15.37 15.37 0 007.2-1.5zM91.4 37.4c0 .1-.1.2 0 .2zm17.2 0v.2c0-.1-.1-.2 0-.2zm-18.9-2.7l-1 1-5.3-5.3v4.1H82v-5.8a.68.68 0 01.7-.7h5.8v1.4h-4.1zm28.3-6v5.8h-1.4v-4.1l-5.3 5.3-1-1 5.3-5.3h-4.1V28h5.8a.68.68 0 01.7.7zM84.4 62.6h4.1V64h-5.8a.68.68 0 01-.7-.7v-5.8h1.4v4.1l5.3-5.3 1 1zm33.6-5.1v5.8a.68.68 0 01-.7.7h-5.8v-1.4h4.1l-5.3-5.3 1-1 5.3 5.3v-4.1z" fill="#fff"/>
</svg>
