<svg xmlns="http://www.w3.org/2000/svg" width="200" height="128">
    <defs>
        <linearGradient id="a" x1="262.09" y1="128.5" x2="262.09" y2="-21.5" gradientTransform="rotate(45 143.997 -165.004)" gradientUnits="userSpaceOnUse">
            <stop offset="0" stop-color="#b0084d"/>
            <stop offset="1" stop-color="#ff4f8b"/>
        </linearGradient>
    </defs>
    <path d="M91.65 90.74l-1-2.95h-4.59l-1 2.95h-1.67l4.1-11.09h1.76l4.09 11.09zm-5.17-4.18h3.73l-1.87-5.44zm15.84 4.18l-2.1-8.69-2.11 8.69h-1.82l-3.23-11.09h1.77l2.39 9.29 2.12-9h1.8l2.12 9 2.4-9.31h1.72l-3.24 11.09zm8.75-5.27a4.51 4.51 0 01-1.9-1.2 2.63 2.63 0 01-.59-1.77 3 3 0 01.44-1.6 3.09 3.09 0 011.29-1.09 4.52 4.52 0 012-.4 8.39 8.39 0 013 .57v1.3a10 10 0 00-2.85-.5 2.68 2.68 0 00-1.61.43 1.4 1.4 0 00-.56 1.21 1.33 1.33 0 00.38 1 4.07 4.07 0 001.42.76l1.46.55a4.31 4.31 0 011.86 1.16 2.61 2.61 0 01.57 1.75 3 3 0 01-1.1 2.45 4.5 4.5 0 01-2.95.91 7.29 7.29 0 01-3.2-.66v-1.27a9.87 9.87 0 003.17.56 2.85 2.85 0 001.78-.49 1.59 1.59 0 00.65-1.35 1.36 1.36 0 00-.37-1 3.73 3.73 0 00-1.28-.75zm-50.7 21.27l-.79-2.53h-3.79l-.79 2.53h-2.47l3.9-11.09h2.64L63 106.74zm-4.06-4.26h2.78l-1.41-4.64zm13.32 4.26l-.22-.87a4.78 4.78 0 01-3 1.11 2.21 2.21 0 01-1.69-.65 2.49 2.49 0 01-.61-1.79v-6h2.33v5.33c0 .86.38 1.29 1.12 1.29a3 3 0 001.64-.51v-6.09h2.33v8.18zm9-.21a5.41 5.41 0 01-1.94.33 2.76 2.76 0 01-2-.64 2.67 2.67 0 01-.65-2v-3.95h-1.21v-1.42l1.3-.26.35-2.24h1.92v2.21h2.21v1.73H76.4v3.84a.89.89 0 00.26.72 1.37 1.37 0 00.86.21 8.52 8.52 0 001.14-.1zm5.07.45a3.91 3.91 0 01-3-1.15 5.28 5.28 0 010-6.37 4.46 4.46 0 016 0 5.28 5.28 0 010 6.37 3.91 3.91 0 01-2.97 1.17zm0-1.8c1.12 0 1.68-.84 1.68-2.54s-.56-2.53-1.68-2.53-1.68.85-1.68 2.53.59 2.54 1.71 2.54zm12.38-3.29a4.7 4.7 0 01-2-1.29 3 3 0 01-.62-1.93 2.93 2.93 0 011.11-2.4 4.61 4.61 0 013-.89 8.6 8.6 0 013.07.57v1.83a9.85 9.85 0 00-2.88-.48c-1.26 0-1.89.4-1.89 1.21a.94.94 0 00.33.74 4.2 4.2 0 001.22.61l1.19.43a5.2 5.2 0 012.12 1.27 2.81 2.81 0 01.63 1.9 3.18 3.18 0 01-1.19 2.6 5.06 5.06 0 01-3.24 1 10 10 0 01-1.8-.17 6.3 6.3 0 01-1.53-.46v-1.82a11.94 11.94 0 001.71.38 10.29 10.29 0 001.65.15 2.57 2.57 0 001.45-.35 1.09 1.09 0 00.52-1 1 1 0 00-.32-.78 3.74 3.74 0 00-1.25-.64zm13 4.49a3.64 3.64 0 01-1 .4 5.88 5.88 0 01-1.27.13 3.9 3.9 0 01-3-1.09 4.36 4.36 0 01-1-3.13 4.41 4.41 0 011.08-3.17 4 4 0 013-1.14 4.54 4.54 0 012.16.52v1.55a6.36 6.36 0 00-1.73-.27 2.18 2.18 0 00-1.65.56 2.6 2.6 0 00-.53 1.8v.23a2.61 2.61 0 00.52 1.78 2.09 2.09 0 001.61.57 7.09 7.09 0 001.83-.29zm6.35.36l-.19-.72a4 4 0 01-1.15.71 3.41 3.41 0 01-1.25.26 2.64 2.64 0 01-1.9-.67 2.36 2.36 0 01-.71-1.79 2.45 2.45 0 01.38-1.35 2.6 2.6 0 011.11-.92 3.86 3.86 0 011.69-.34 7.8 7.8 0 011.7.21v-.8a1.3 1.3 0 00-.31-1 1.71 1.71 0 00-1.12-.27 9.72 9.72 0 00-2.89.49V99a6.19 6.19 0 011.49-.49 9.13 9.13 0 011.82-.18 3.63 3.63 0 012.41.66 2.67 2.67 0 01.76 2.09v5.67zm-1.94-1.32a2.13 2.13 0 00.83-.17 3.41 3.41 0 00.79-.48v-1.39a7.61 7.61 0 00-1.27-.12c-.92 0-1.39.38-1.39 1.12a1 1 0 00.27.77 1.06 1.06 0 00.75.27zm9.59 1.16a3.84 3.84 0 01-1.44.27c-1.44 0-2.16-.81-2.16-2.42V94.9h2.33v9.34a1 1 0 00.15.63.62.62 0 00.51.19 5.86 5.86 0 00.61 0zm2.83-9.28a1.42 1.42 0 01-1-.34 1.19 1.19 0 01-.37-.91 1.17 1.17 0 01.37-.91 1.38 1.38 0 011-.34 1.35 1.35 0 011 .34 1.14 1.14 0 01.37.91 1.16 1.16 0 01-.37.91 1.4 1.4 0 01-1.02.34zm-1.17 9.44v-8.18h2.34v8.18zm9.89 0v-5.36a1.36 1.36 0 00-.29-1 1.14 1.14 0 00-.88-.31 3.16 3.16 0 00-1.74.55v6.08h-2.34v-8.14h1.92l.22.88a4.91 4.91 0 013.08-1.12 2.14 2.14 0 012.36 2.37v6zm9.53-1a3.07 3.07 0 01-2.14.82 2.91 2.91 0 01-2.38-1.11 4.63 4.63 0 01-.88-3 4.7 4.7 0 01.89-3 2.9 2.9 0 012.4-1.14 3.38 3.38 0 011.27.24 3.33 3.33 0 011 .7l.18-.7h1.92v7.54a4.14 4.14 0 01-1.09 3 4.09 4.09 0 01-3 1.08 6.54 6.54 0 01-2.94-.68V108a9.34 9.34 0 002.73.49 2.06 2.06 0 001.53-.48 2.23 2.23 0 00.47-1.6zm-1.42-.91a2.43 2.43 0 00.74-.12 2.53 2.53 0 00.68-.33v-3.93a2.84 2.84 0 00-1.53-.4c-1 0-1.54.79-1.54 2.37a3.34 3.34 0 00.4 1.82 1.41 1.41 0 001.23.59z" fill="#333"/>
    <path d="M73 19h54v54H73z" fill="url(#a)"/>
    <path d="M99.3 30.5v6.9h1.4v-6.9l3.4 3.3 1-1-4.6-4.6a.67.67 0 00-1 0l-4.6 4.6 1 1zm1.4 31v-6.9h-1.4v6.9l-3.4-3.4-1 1 4.6 4.6a.67.67 0 001 0l4.6-4.6-1-1zM86.5 40.9l-1 1 3.3 3.3H82v1.4h6.9L85.5 50l1 1 4.6-4.6a.67.67 0 000-1zm31.5 4.3h-6.8l3.3-3.3-1-1-4.6 4.6a.67.67 0 000 1l4.6 4.6 1-1-3.4-3.4h6.9zM106.1 42l-5.7-3.2a1.1 1.1 0 00-.8 0L93.9 42a.84.84 0 00-.4.7v6.5a.55.55 0 00.4.6l5.7 3.3c.1.1.2.1.4 0s.2 0 .4 0l5.7-3.3a.82.82 0 00.4-.6v-6.5a.87.87 0 00-.4-.7zm-6.1-1.7l4.3 2.5-4.3 2.5-4.3-2.5zM95 44l4.3 2.5v4.7L95 48.7zm5.7 7.2v-4.7L105 44v4.7z" fill="#fff"/>
</svg>
