<svg xmlns="http://www.w3.org/2000/svg" width="200" height="128">
	<defs>
		<linearGradient id="a" x1="268.5" y1="-353.09" x2="118.5" y2="-353.09" gradientTransform="rotate(135 45.003 -165.003)" gradientUnits="userSpaceOnUse">
			<stop offset="0" stop-color="#2e27ad"/>
			<stop offset="1" stop-color="#527fff"/>
		</linearGradient>
	</defs>
	<path d="m91.65 90.74-1-2.95h-4.59l-1 2.95h-1.67l4.1-11.09h1.76l4.09 11.09zm-5.17-4.18h3.73l-1.87-5.44zm15.84 4.18-2.1-8.69-2.11 8.69h-1.82l-3.23-11.09h1.77l2.39 9.29 2.12-9h1.8l2.12 9 2.4-9.31h1.72l-3.24 11.09zm8.75-5.27a4.51 4.51 0 0 1-1.9-1.2 2.63 2.63 0 0 1-.59-1.77 3 3 0 0 1 .44-1.6 3.09 3.09 0 0 1 1.29-1.09 4.52 4.52 0 0 1 2-.4 8.39 8.39 0 0 1 3 .57v1.3a10 10 0 0 0-2.85-.5 2.68 2.68 0 0 0-1.61.43 1.4 1.4 0 0 0-.56 1.21 1.33 1.33 0 0 0 .38 1 4.07 4.07 0 0 0 1.42.76l1.46.55a4.31 4.31 0 0 1 1.86 1.16 2.61 2.61 0 0 1 .57 1.75 3 3 0 0 1-1.1 2.45 4.5 4.5 0 0 1-2.95.91 7.29 7.29 0 0 1-3.2-.66v-1.27a9.87 9.87 0 0 0 3.17.56 2.85 2.85 0 0 0 1.78-.49 1.59 1.59 0 0 0 .65-1.35 1.36 1.36 0 0 0-.37-1 3.73 3.73 0 0 0-1.28-.75zm-40.24 21a8.1 8.1 0 0 1-2.9.49 5.46 5.46 0 0 1-4.1-1.44A7.11 7.11 0 0 1 63.9 97a5.4 5.4 0 0 1 4.1-1.56 8 8 0 0 1 2.68.45v1.89a11.25 11.25 0 0 0-2.39-.32 3.24 3.24 0 0 0-2.49.88A3.79 3.79 0 0 0 65 101v.37a3.87 3.87 0 0 0 .8 2.67 3.17 3.17 0 0 0 2.45.87 12.8 12.8 0 0 0 2.61-.37zm5.24.53a3.87 3.87 0 0 1-3-1.15 5.24 5.24 0 0 1 0-6.37 4.45 4.45 0 0 1 6 0 5.28 5.28 0 0 1 0 6.37 3.91 3.91 0 0 1-3 1.15zm0-1.8c1.12 0 1.68-.84 1.68-2.54s-.56-2.53-1.68-2.53-1.68.85-1.68 2.53.61 2.52 1.68 2.52zm11.39 1.56-.19-.72a3.41 3.41 0 0 1-2.35.89 3.25 3.25 0 0 1-1.78-.5 3.38 3.38 0 0 1-1.14-1.49 5.58 5.58 0 0 1-.42-2.25 5 5 0 0 1 .94-3.18A3 3 0 0 1 85 98.32a3.47 3.47 0 0 1 2.19.72V94.9h2.31v11.84zm-1.77-1.59a2.69 2.69 0 0 0 1.47-.45v-4.22a3.07 3.07 0 0 0-1.58-.4 1.42 1.42 0 0 0-1.27.63 3.59 3.59 0 0 0-.41 1.91 3.29 3.29 0 0 0 .44 1.91 1.54 1.54 0 0 0 1.35.6zm7.79-1.93a2 2 0 0 0 .64 1.52 2.8 2.8 0 0 0 1.81.48 9.61 9.61 0 0 0 2.49-.4v1.55a5.31 5.31 0 0 1-1.33.45 8.45 8.45 0 0 1-1.61.16 4.11 4.11 0 0 1-3.1-1.11 5.38 5.38 0 0 1 0-6.41 3.78 3.78 0 0 1 2.92-1.14 3.26 3.26 0 0 1 2.44.87 3.37 3.37 0 0 1 .86 2.49v.8c0 .3-.07.54-.11.74zm1.74-3.28a1.64 1.64 0 0 0-1.24.47 2.17 2.17 0 0 0-.52 1.37h3.14v-.28q0-1.58-1.38-1.58zm5.33 6.8V95.65h4a3.94 3.94 0 0 1 2.58.81 2.64 2.64 0 0 1 1 2.13 2.52 2.52 0 0 1-.37 1.4 2.47 2.47 0 0 1-1.11.91 2.93 2.93 0 0 1 1.56 1 2.74 2.74 0 0 1 .53 1.7 2.79 2.79 0 0 1-1.07 2.29 4.53 4.53 0 0 1-2.88.85zm2.27-9.38v2.91h1.4c1 0 1.55-.48 1.55-1.44a1.28 1.28 0 0 0-1.43-1.47zm0 4.54V105h1.89c1.09 0 1.63-.51 1.63-1.53s-.58-1.59-1.74-1.59zm13.12 4.84-.22-.87a4.78 4.78 0 0 1-3 1.11 2.21 2.21 0 0 1-1.69-.65 2.49 2.49 0 0 1-.61-1.79v-6h2.34v5.33c0 .86.37 1.29 1.12 1.29a3 3 0 0 0 1.63-.51v-6.11h2.33v8.18zm5.4-9.44a1.41 1.41 0 0 1-1-.34 1.16 1.16 0 0 1-.37-.91 1.14 1.14 0 0 1 .37-.91 1.57 1.57 0 0 1 2 0 1.14 1.14 0 0 1 .37.91 1.16 1.16 0 0 1-.37.91 1.4 1.4 0 0 1-1 .32zm-1.17 9.44v-8.2h2.33v8.18zm8.24-.16a3.84 3.84 0 0 1-1.44.27c-1.44 0-2.16-.81-2.16-2.42V94.9h2.33v9.34a.94.94 0 0 0 .16.63.59.59 0 0 0 .5.19 5.86 5.86 0 0 0 .61 0zm7 .16-.19-.72a3.45 3.45 0 0 1-2.36.89 3.19 3.19 0 0 1-1.77-.5 3.31 3.31 0 0 1-1.19-1.47 5.41 5.41 0 0 1-.43-2.25 5 5 0 0 1 .95-3.18 3 3 0 0 1 2.49-1.19 3.45 3.45 0 0 1 2.19.72V94.9h2.34v11.84zm-1.78-1.59a2.69 2.69 0 0 0 1.47-.45v-4.22a3 3 0 0 0-1.58-.4 1.39 1.39 0 0 0-1.26.63 3.49 3.49 0 0 0-.42 1.91 3.37 3.37 0 0 0 .44 1.91 1.54 1.54 0 0 0 1.31.6z" fill="#333"/>
	<path d="M73 19h54v54H73z" fill="url(#a)"/>
	<path d="M101.2 51a.9.9 0 0 1 .1-1l2.9-2.2.9 1.2-2.2 1.7 2.1 2-1 1-2.7-2.6a.1.1 0 0 1-.1-.1zm10.7.3-2.3 1.7.8 1.1 3-2.2a.85.85 0 0 0 .3-.5 1.42 1.42 0 0 0-.2-.6l-2.7-2.6-1 1zm-5.8 4.7 3.8-8.6-1.3-.6-3.8 8.6zm12.8-21.3a.75.75 0 0 1-.7.5h-9.8v5.3l8.1 3.3h.6a.71.71 0 0 1 .7.8v12.9a.68.68 0 0 1-.7.7H98.3a.68.68 0 0 1-.7-.7V44.6a.85.85 0 0 1 .7-.8h.6l8.1-3.3v-5.3H94v28.1a.68.68 0 0 1-.7.7h-7.9a.68.68 0 0 1-.7-.7V36.6h-2.9a.68.68 0 0 1-.7-.7v-7.2a.68.68 0 0 1 .7-.7h2.9a.68.68 0 0 1 .7.7h26.7c.1 0 .4.1.4.2l.9.7 3.2 2.6 2 1.7a.67.67 0 0 1 .3.8zm-35-5.3h-1.4v5.8h1.4zm6 .8h-4.4v3.4zm-3.7 16.7 6.1-5.4-6.1-5.4zm0 14.1 6.1-5.4-6.1-5.4zm6.4-3.8-6.1 5.4h6.1zm0-14.1-6.1 5.4 6.2 5.4V43.1zm0-7.9h-5.3l5.3 4.7zm2.1-1.4-3.6-2.7-3.5 2.7h7.1zm2.1-.3 4.5-3.3h-9zm9.2.3-3.5-2.7-3.6 2.7zm10.3 11.5H99.1v11.5h17.2zm-8.6-3.6-5 2.1h10zm4.2-11.5h-8.2l4.5 3.3zm4.3 3.6-3.2-2.7-2.9 2.7z" fill="#fff"/>
</svg>
