<svg xmlns="http://www.w3.org/2000/svg" width="200" height="128">
	<defs>
		<linearGradient id="a" x1="-122.53" y1="300.64" x2="-121.85" y2="301.31" gradientTransform="matrix(80 0 0 -80 9875 24124)" gradientUnits="userSpaceOnUse">
			<stop offset="0" stop-color="#bd0816"/>
			<stop offset="1" stop-color="#ff5252"/>
		</linearGradient>
	</defs>
	<path fill="#333" d="M86.06 87.79h4.56l1 2.95h1.69l-4.06-11.09h-1.76l-4.1 11.09h1.68zm2.28-6.67 1.87 5.44h-3.73zm14.93 7.84-2.13-8.99h-1.8l-2.12 8.97-2.39-9.29h-1.77l3.23 11.09h1.82l2.11-8.69 2.1 8.69h1.82l3.24-11.09h-1.71l-2.4 9.31zm10.35.18a2.85 2.85 0 0 1-1.78.49 9.87 9.87 0 0 1-3.17-.56v1.28a7.29 7.29 0 0 0 3.2.66 4.5 4.5 0 0 0 2.95-.91 3 3 0 0 0 1.1-2.45 2.61 2.61 0 0 0-.57-1.75 4.31 4.31 0 0 0-1.86-1.16l-1.49-.55a4.07 4.07 0 0 1-1.42-.76 1.33 1.33 0 0 1-.38-1 1.4 1.4 0 0 1 .56-1.21 2.68 2.68 0 0 1 1.61-.43 10 10 0 0 1 2.85.5V80a8.39 8.39 0 0 0-3-.57 4.52 4.52 0 0 0-2 .4A3.09 3.09 0 0 0 109 80.9a3 3 0 0 0-.44 1.6 2.63 2.63 0 0 0 .59 1.77 4.51 4.51 0 0 0 1.9 1.2l1.55.59a3.73 3.73 0 0 1 1.28.75 1.36 1.36 0 0 1 .37 1 1.59 1.59 0 0 1-.63 1.33zm-83.51 14.92a3.87 3.87 0 0 1-.8-2.67V101a3.79 3.79 0 0 1 .83-2.68 3.24 3.24 0 0 1 2.49-.88 11.17 11.17 0 0 1 2.38.32v-1.87a7.88 7.88 0 0 0-2.67-.45 5.42 5.42 0 0 0-4.1 1.56 7.13 7.13 0 0 0-.06 8.54 5.43 5.43 0 0 0 4.09 1.44 8.06 8.06 0 0 0 2.9-.49v-1.89a12.8 12.8 0 0 1-2.61.37 3.18 3.18 0 0 1-2.45-.91zm10.24-5.74a3.78 3.78 0 0 0-2.92 1.14 5.38 5.38 0 0 0 0 6.41 4.09 4.09 0 0 0 3.1 1.11 8.53 8.53 0 0 0 1.61-.16 5.45 5.45 0 0 0 1.33-.45v-1.55a9.67 9.67 0 0 1-2.49.4 2.8 2.8 0 0 1-1.81-.48 2 2 0 0 1-.64-1.52h5c0-.2.08-.44.11-.74s0-.56 0-.8a3.41 3.41 0 0 0-.86-2.49 3.26 3.26 0 0 0-2.43-.87zm1.3 3.46h-3.14a2.17 2.17 0 0 1 .52-1.37 1.64 1.64 0 0 1 1.24-.47q1.38 0 1.38 1.56zm7.21-3a4.45 4.45 0 0 0-1.21 1l-.29-1.22h-1.92v8.18h2.34V101a4.92 4.92 0 0 1 1.93-.37 4.4 4.4 0 0 1 1 .1v-2.2a5 5 0 0 0-.64 0 2.55 2.55 0 0 0-1.21.25zm6.56 6.07a.89.89 0 0 1-.25-.72v-3.84h2.21v-1.73h-2.21v-2.21h-1.92l-.35 2.24-1.3.26v1.44h1.23v3.95a2.67 2.67 0 0 0 .65 2 2.74 2.74 0 0 0 2 .64 5.35 5.35 0 0 0 1.93-.33V105a8.25 8.25 0 0 1-1.13.1 1.41 1.41 0 0 1-.86-.25zM60.1 94.8a1.38 1.38 0 0 0-1 .34 1.17 1.17 0 0 0-.37.91 1.19 1.19 0 0 0 .37.91 1.42 1.42 0 0 0 1 .34 1.4 1.4 0 0 0 1-.34 1.16 1.16 0 0 0 .37-.91 1.14 1.14 0 0 0-.37-.91 1.35 1.35 0 0 0-1-.34zm-1.17 3.76h2.34v8.18h-2.34zm7.37-.99a1.09 1.09 0 0 1 .28-.84 1.41 1.41 0 0 1 1-.25 6.21 6.21 0 0 1 .82.06V95a3.6 3.6 0 0 0-1.44-.29q-3 0-3 3.2v.74l-1.3.24v1.44H64v6.45h2.3v-6.45h3.14v6.45h2.34v-8.22H66.3z"/>
	<path fill="#333" d="M70.61 94.8a1.38 1.38 0 0 0-1 .34 1.17 1.17 0 0 0-.37.91 1.19 1.19 0 0 0 .37.91 1.42 1.42 0 0 0 1 .34 1.4 1.4 0 0 0 1-.34 1.16 1.16 0 0 0 .37-.91 1.14 1.14 0 0 0-.37-.91 1.35 1.35 0 0 0-1-.34zm5.94 9.75a2.61 2.61 0 0 1-.52-1.78v-.23a2.6 2.6 0 0 1 .53-1.8 2.18 2.18 0 0 1 1.65-.56 6.36 6.36 0 0 1 1.73.27V98.9a4.54 4.54 0 0 0-2.16-.52 4 4 0 0 0-3 1.14 4.41 4.41 0 0 0-1.08 3.17 4.36 4.36 0 0 0 1 3.13 3.88 3.88 0 0 0 3 1.09 5.73 5.73 0 0 0 1.26-.13 3.42 3.42 0 0 0 1-.4v-1.55a7 7 0 0 1-1.82.29 2.09 2.09 0 0 1-1.59-.57zM85 98.32a9.31 9.31 0 0 0-1.83.18 6.25 6.25 0 0 0-1.47.5v1.55a9.72 9.72 0 0 1 2.89-.49 1.71 1.71 0 0 1 1.12.27 1.3 1.3 0 0 1 .31 1v.8a7.8 7.8 0 0 0-1.7-.21 3.91 3.91 0 0 0-1.7.34 2.63 2.63 0 0 0-1.1.92 2.37 2.37 0 0 0-.38 1.35 2.32 2.32 0 0 0 .71 1.79 2.63 2.63 0 0 0 1.89.67 3.42 3.42 0 0 0 1.26-.26 4.1 4.1 0 0 0 1.15-.71l.19.72h1.84v-5.67a2.67 2.67 0 0 0-.76-2.07 3.63 3.63 0 0 0-2.42-.68zm1 6.45a3.27 3.27 0 0 1-.8.48 2 2 0 0 1-.82.17.94.94 0 0 1-1-1c0-.74.46-1.12 1.39-1.12a7.61 7.61 0 0 1 1.27.12zm7.25.08a.89.89 0 0 1-.26-.72v-3.84h2.21v-1.73H93v-2.21h-1.93l-.35 2.24-1.3.26v1.44h1.24v3.95a2.66 2.66 0 0 0 .64 2 2.77 2.77 0 0 0 2 .64 5.41 5.41 0 0 0 1.94-.33V105a8.52 8.52 0 0 1-1.14.1 1.37 1.37 0 0 1-.85-.25zm7.01-6.53a3.79 3.79 0 0 0-2.93 1.14 5.35 5.35 0 0 0 0 6.41 4.08 4.08 0 0 0 3.09 1.11 8.45 8.45 0 0 0 1.61-.16 5.54 5.54 0 0 0 1.34-.45v-1.55a9.68 9.68 0 0 1-2.5.4 2.82 2.82 0 0 1-1.81-.48 2.06 2.06 0 0 1-.64-1.52h5a5.37 5.37 0 0 0 .11-.74 5.91 5.91 0 0 0 0-.8 3.4 3.4 0 0 0-.85-2.49 3.28 3.28 0 0 0-2.42-.87zm1.29 3.46h-3.13a2.07 2.07 0 0 1 .52-1.37 1.61 1.61 0 0 1 1.24-.47c.91 0 1.37.52 1.37 1.56zm13.79.17-3.02-6.3h-2.62v11.09h2.11v-7.68l2.45 4.97h2.14l2.45-4.97v7.68h2.11V95.65h-2.58l-3.04 6.3zm11.38-3.63a9.13 9.13 0 0 0-1.82.18 6.19 6.19 0 0 0-1.49.49v1.55a9.72 9.72 0 0 1 2.89-.49 1.71 1.71 0 0 1 1.12.27 1.3 1.3 0 0 1 .31 1v.8a7.8 7.8 0 0 0-1.7-.21 3.86 3.86 0 0 0-1.69.34 2.6 2.6 0 0 0-1.11.92 2.45 2.45 0 0 0-.38 1.35 2.36 2.36 0 0 0 .71 1.79 2.64 2.64 0 0 0 1.9.67 3.41 3.41 0 0 0 1.25-.26 4 4 0 0 0 1.15-.71l.19.72h1.84v-5.67a2.67 2.67 0 0 0-.76-2.09 3.63 3.63 0 0 0-2.41-.65zm1 6.45a3.41 3.41 0 0 1-.79.48 2.13 2.13 0 0 1-.83.17 1.06 1.06 0 0 1-.77-.27 1 1 0 0 1-.27-.77c0-.74.47-1.12 1.39-1.12a7.61 7.61 0 0 1 1.27.12zm9.59-6.45a4.89 4.89 0 0 0-3.07 1.12l-.22-.88h-1.92v8.18h2.33v-6.08a3.21 3.21 0 0 1 1.75-.55 1.15 1.15 0 0 1 .88.31 1.36 1.36 0 0 1 .28 1v5.36h2.34v-6a2.16 2.16 0 0 0-2.37-2.37zm7.94 0a9.31 9.31 0 0 0-1.83.18 6.25 6.25 0 0 0-1.48.49v1.55a9.72 9.72 0 0 1 2.89-.49 1.71 1.71 0 0 1 1.12.27 1.34 1.34 0 0 1 .31 1v.8a7.8 7.8 0 0 0-1.7-.21 3.91 3.91 0 0 0-1.7.34 2.57 2.57 0 0 0-1.1.92 2.37 2.37 0 0 0-.38 1.35 2.32 2.32 0 0 0 .71 1.79 2.62 2.62 0 0 0 1.91.69 3.42 3.42 0 0 0 1.26-.26 3.91 3.91 0 0 0 1.14-.71l.2.72h1.84v-5.67a2.67 2.67 0 0 0-.76-2.09 3.63 3.63 0 0 0-2.43-.67zm1 6.45a3.27 3.27 0 0 1-.8.48 2 2 0 0 1-.82.17.94.94 0 0 1-1-1c0-.74.46-1.12 1.39-1.12a7.61 7.61 0 0 1 1.27.12zm9.57-5.51a3.33 3.33 0 0 0-1-.7 3.38 3.38 0 0 0-1.27-.24 2.9 2.9 0 0 0-2.4 1.14 4.76 4.76 0 0 0-.89 3 4.57 4.57 0 0 0 .89 3 2.88 2.88 0 0 0 2.37 1.11 3.11 3.11 0 0 0 2.15-.82v.64a2.23 2.23 0 0 1-.48 1.6 2.05 2.05 0 0 1-1.52.48 9.4 9.4 0 0 1-2.74-.49v1.57a6.54 6.54 0 0 0 2.94.68 3.76 3.76 0 0 0 4.1-4.12v-7.55H156zm-.2 5.12a2.68 2.68 0 0 1-.68.33 2.45 2.45 0 0 1-.75.12 1.42 1.42 0 0 1-1.25-.59 3.34 3.34 0 0 1-.4-1.82c0-1.58.52-2.37 1.54-2.37a2.87 2.87 0 0 1 1.54.4zm8.11-6.06a3.79 3.79 0 0 0-2.93 1.14 5.35 5.35 0 0 0 0 6.41 4.08 4.08 0 0 0 3.1 1.13 8.45 8.45 0 0 0 1.61-.16 5.54 5.54 0 0 0 1.34-.45v-1.55a9.68 9.68 0 0 1-2.5.4 2.82 2.82 0 0 1-1.81-.48 2.06 2.06 0 0 1-.64-1.52h5a7.18 7.18 0 0 0 .12-.74 7.91 7.91 0 0 0 0-.8 3.4 3.4 0 0 0-.85-2.49 3.28 3.28 0 0 0-2.44-.89zm1.29 3.46h-3.13a2.07 2.07 0 0 1 .52-1.37 1.61 1.61 0 0 1 1.24-.47c.91 0 1.37.52 1.37 1.56zm8.42-3.3a2.55 2.55 0 0 0-1.21.3 4.45 4.45 0 0 0-1.21 1l-.28-1.22h-1.92v8.18h2.33V101a5 5 0 0 1 1.94-.37 4.37 4.37 0 0 1 1 .1v-2.2a4.85 4.85 0 0 0-.65-.05z"/>
	<path fill="url(#a)" d="M73 19h54v54H73z"/>
	<path data-name="AWS-Certificate-Manager Icon 64 Squid" d="M97.09 45.51a.68.68 0 0 1 .19.63l-.69 3.18 3.06-1.87a.68.68 0 0 1 .7 0l3 1.87-.68-3.19a.71.71 0 0 1 .19-.62l2.73-2.67-3.56-.51a.68.68 0 0 1-.51-.37L100 38.74 98.39 42a.69.69 0 0 1-.51.36l-3.54.52zm-2.15 5.07 1-4.36-3.48-3.35a.67.67 0 0 1-.17-.7.69.69 0 0 1 .54-.46l4.56-.66 2.06-4.13a.64.64 0 0 1 .6-.38.71.71 0 0 1 .61.38l2 4.13 4.55.65a.69.69 0 0 1 .55.46.68.68 0 0 1-.17.69l-3.44 3.37.92 4.36a.67.67 0 0 1-1 .71l-4-2.47L96 51.3a.64.64 0 0 1-.35.1.67.67 0 0 1-.39-.12.68.68 0 0 1-.27-.7zM82.45 33.19h35.1V29.8h-35.1zm36.45-4.07v33.76a.67.67 0 0 1-.67.67h-4V62.2h3.37V34.54H82.45V62.2h25.65v1.35H81.77a.67.67 0 0 1-.67-.67V29.12a.67.67 0 0 1 .67-.67h36.46a.67.67 0 0 1 .67.67zM89.2 58.83h4v-1.35h-4zm6.75 0h9.45v-1.35H96zm-6.75-3.38h4V54.1h-4zm6.75 0h14.85V54.1H96z" fill="#fff" fill-rule="evenodd"/>
</svg>
