<svg xmlns="http://www.w3.org/2000/svg" width="200" height="128">
	<defs>
		<linearGradient id="a" x1="262.09" y1="128.5" x2="262.09" y2="-21.5" gradientTransform="rotate(45 143.997 -165.004)" gradientUnits="userSpaceOnUse">
			<stop offset="0" stop-color="#055f4e"/>
			<stop offset="1" stop-color="#56c0a7"/>
		</linearGradient>
	</defs>
	<path d="m78.85 90.74-1-2.95h-4.59l-1 2.95h-1.67l4.1-11.09h1.76l4.09 11.09zm-5.17-4.18h3.73l-1.87-5.44zm18.58 4.18v-5.51a1.83 1.83 0 0 0-.26-1.18 1.13 1.13 0 0 0-1-.39 4.49 4.49 0 0 0-2.35.72 1.94 1.94 0 0 1 0 .24v6.12h-1.58v-5.51a1.9 1.9 0 0 0-.3-1.18 1.13 1.13 0 0 0-1-.39 4.35 4.35 0 0 0-2.34.71v6.37h-1.54v-8.12h1.33l.16.82a5.32 5.32 0 0 1 3-1.06 2 2 0 0 1 2 1.14 5.43 5.43 0 0 1 3.17-1.14 2.23 2.23 0 0 1 1.7.63 2.49 2.49 0 0 1 .59 1.77v6zm8.68 0-.12-.84a4.2 4.2 0 0 1-1.28.77 3.76 3.76 0 0 1-1.38.27 2.54 2.54 0 0 1-1.82-.64 2.31 2.31 0 0 1-.68-1.74 2.28 2.28 0 0 1 .84-1.86 3.34 3.34 0 0 1 2.24-.7 8.38 8.38 0 0 1 2 .27v-1a1.59 1.59 0 0 0-.39-1.22 2 2 0 0 0-1.35-.4 8.71 8.71 0 0 0-2.81.49V83a5.17 5.17 0 0 1 1.41-.47 8.55 8.55 0 0 1 1.68-.17 3.29 3.29 0 0 1 2.24.64 2.42 2.42 0 0 1 .72 1.92v5.8zm-2.4-1a3.75 3.75 0 0 0 2.21-.81V87.3a6.86 6.86 0 0 0-1.69-.21c-1.21 0-1.81.46-1.81 1.39a1.27 1.27 0 0 0 .33.94 1.37 1.37 0 0 0 .96.32zm5.46 1v-1.22l4.66-5.65h-4.5v-1.25h6.26v1.2l-4.72 5.67h4.76v1.25zm11.52.24a3.63 3.63 0 0 1-2.85-1.14 5.4 5.4 0 0 1 0-6.32 4.13 4.13 0 0 1 5.7 0 5.4 5.4 0 0 1 0 6.32 3.63 3.63 0 0 1-2.85 1.16zm0-1.28c1.5 0 2.26-1 2.26-3s-.76-3-2.26-3-2.26 1-2.26 3 .74 3 2.26 3zm11.31 1v-5.39a1.9 1.9 0 0 0-.34-1.25 1.37 1.37 0 0 0-1.08-.4 4.45 4.45 0 0 0-2.48.82v6.26h-1.59v-8.12h1.33l.16.9a5.27 5.27 0 0 1 3.2-1.14 2.41 2.41 0 0 1 1.78.62 2.46 2.46 0 0 1 .61 1.78v6zm-42.33 12v4h-2.33V95.65h4.24a3.82 3.82 0 0 1 2.73.94 3.34 3.34 0 0 1 1 2.58 3.3 3.3 0 0 1-1 2.57 3.83 3.83 0 0 1-2.73 1zm0-1.79h1.64a1.63 1.63 0 0 0 1.22-.44 1.82 1.82 0 0 0 .42-1.29 1.79 1.79 0 0 0-.42-1.29 1.63 1.63 0 0 0-1.22-.44H84.5zM95.38 107a3.87 3.87 0 0 1-3-1.15 5.28 5.28 0 0 1 0-6.37 4.45 4.45 0 0 1 6 0 5.28 5.28 0 0 1 0 6.37 3.89 3.89 0 0 1-3 1.15zm0-1.8c1.12 0 1.68-.84 1.68-2.54s-.56-2.53-1.68-2.53-1.68.85-1.68 2.53.56 2.52 1.68 2.52zm9.48 1.4a3.84 3.84 0 0 1-1.44.27c-1.44 0-2.16-.81-2.16-2.42V94.9h2.33v9.34a1 1 0 0 0 .15.63.62.62 0 0 0 .51.19 5.86 5.86 0 0 0 .61 0zm5.2 0a3.84 3.84 0 0 1-1.44.27c-1.44 0-2.16-.81-2.16-2.42V94.9h2.33v9.34a1 1 0 0 0 .15.63.62.62 0 0 0 .51.19 5.86 5.86 0 0 0 .61 0zm3.77.28-3.23-8.3h2.48l1.82 6.11 1.73-6.11h2.42l-3.46 9.28a4.28 4.28 0 0 1-1.13 1.82 2.54 2.54 0 0 1-1.7.56 4.79 4.79 0 0 1-1.55-.25v-1.59a7.65 7.65 0 0 0 .91.05 1.54 1.54 0 0 0 1-.31 2.36 2.36 0 0 0 .62-1.08z" fill="#333"/>
	<path d="M73 19h54v54H73z" fill="url(#a)"/>
	<path d="M83.4 53.9h9.4v1.5H82.7a.71.71 0 0 1-.7-.8v-5.7h1.4zm0-8.6H82V28.7a.68.68 0 0 1 .7-.7h10.8a.76.76 0 0 1 .5.2l7.2 7.2a.76.76 0 0 1 .2.5v2.2H100v-1.5h-6.5a.68.68 0 0 1-.7-.7v-6.5h-9.4zm10.8-10.1H99l-4.8-4.8zm-9.3 5v1.5h5.7v-1.5zm33 22.4-3.1-5.9a10.56 10.56 0 0 0 1.6-5.8 10.67 10.67 0 0 0-1.3-5.3 11.54 11.54 0 0 0-15.4-4.8l.7 1.3a8.6 8.6 0 0 1 4.7-1.1 9.94 9.94 0 0 1 9.9 10 11.23 11.23 0 0 1-1.5 5.4.85.85 0 0 0 0 .7l2.4 4.8-4.9-2.4a.85.85 0 0 0-.7 0 9.07 9.07 0 0 1-3.8 1.3 10 10 0 0 1-11.3-8.5l-1.5.3a9.59 9.59 0 0 0 1.4 4 11.48 11.48 0 0 0 15.6 4.4l6 3a.6.6 0 0 0 .4.1.71.71 0 0 0 .6-.3 1.09 1.09 0 0 0 .2-1.2zm-14.3-8.7h1.4v-5.7h-1.4zm3.6-6.5h-1.4v7.2h1.4zm.7-.7v8.7h1.5v-8.7zm3.6 2.2h-1.4v5h1.4zm-12.2 5h1.4v-5.7h-1.4zm-.7-10.1H84.9v1.5h13.7zm-13.7 5.1H95v-1.5H84.9zm7.2-8.7v1.5H95v-1.5zm10.8 12.3v-2.9h-1.5v2.9zm-2.9-7.3h4.3v-1.4H100z" fill="#fff"/>
</svg>
