<svg xmlns="http://www.w3.org/2000/svg" width="200" height="128">
	<defs>
		<linearGradient id="a" x1="-213.09" y1="-359.5" x2="-213.09" y2="-209.5" gradientTransform="rotate(-135 3.993 -165)" gradientUnits="userSpaceOnUse">
			<stop offset="0" stop-color="#c8511b"/>
			<stop offset="1" stop-color="#f90"/>
		</linearGradient>
	</defs>
	<path d="m91.65 90.74-1-2.95h-4.59l-1 2.95h-1.67l4.1-11.09h1.76l4.09 11.09zm-5.17-4.18h3.73l-1.87-5.44zm15.84 4.18-2.1-8.69-2.11 8.69h-1.82l-3.23-11.09h1.77l2.39 9.29 2.12-9h1.8l2.12 9 2.4-9.31h1.72l-3.24 11.09zm8.75-5.27a4.51 4.51 0 0 1-1.9-1.2 2.63 2.63 0 0 1-.59-1.77 3 3 0 0 1 .44-1.6 3.09 3.09 0 0 1 1.29-1.09 4.52 4.52 0 0 1 2-.4 8.39 8.39 0 0 1 3 .57v1.3a10 10 0 0 0-2.85-.5 2.68 2.68 0 0 0-1.61.43 1.4 1.4 0 0 0-.56 1.21 1.33 1.33 0 0 0 .38 1 4.07 4.07 0 0 0 1.42.76l1.46.55a4.31 4.31 0 0 1 1.86 1.16 2.61 2.61 0 0 1 .57 1.75 3 3 0 0 1-1.1 2.45 4.5 4.5 0 0 1-2.95.91 7.29 7.29 0 0 1-3.2-.66v-1.27a9.87 9.87 0 0 0 3.17.56 2.85 2.85 0 0 0 1.78-.49 1.59 1.59 0 0 0 .65-1.35 1.36 1.36 0 0 0-.37-1 3.73 3.73 0 0 0-1.28-.75zm-73.31 21.27V95.65h7.3v1.85h-4.9v2.63h4V102h-4v2.9h4.9v1.86zm12.69-.16a3.84 3.84 0 0 1-1.44.27c-1.44 0-2.16-.81-2.16-2.42V94.9h2.34v9.34a1 1 0 0 0 .15.63.59.59 0 0 0 .5.19 5.86 5.86 0 0 0 .61 0zm6.29.16-.19-.72a4.1 4.1 0 0 1-1.15.71 3.41 3.41 0 0 1-1.25.26 2.64 2.64 0 0 1-1.9-.67 2.32 2.32 0 0 1-.71-1.79 2.45 2.45 0 0 1 .38-1.35 2.6 2.6 0 0 1 1.11-.92 3.86 3.86 0 0 1 1.69-.34 7.8 7.8 0 0 1 1.7.21v-.8a1.3 1.3 0 0 0-.31-1 1.71 1.71 0 0 0-1.12-.27 9.72 9.72 0 0 0-2.89.49V99a6.25 6.25 0 0 1 1.48-.49 9.31 9.31 0 0 1 1.83-.18 3.63 3.63 0 0 1 2.41.66 2.67 2.67 0 0 1 .76 2.09v5.67zm-1.94-1.32a2 2 0 0 0 .82-.17 3.27 3.27 0 0 0 .8-.48v-1.39a7.61 7.61 0 0 0-1.27-.12c-.92 0-1.39.38-1.39 1.12a.94.94 0 0 0 1 1zm9.46-.94a.65.65 0 0 0-.19-.5 2.53 2.53 0 0 0-.74-.38l-1.25-.5a3.22 3.22 0 0 1-1.41-.94 2.31 2.31 0 0 1-.43-1.42 2.12 2.12 0 0 1 .87-1.74 3.77 3.77 0 0 1 2.33-.66 5.84 5.84 0 0 1 2.48.53v1.55a8.07 8.07 0 0 0-2.27-.37 2.25 2.25 0 0 0-1 .16.54.54 0 0 0-.3.51.56.56 0 0 0 .18.44 2.61 2.61 0 0 0 .78.41l1.21.5A3.46 3.46 0 0 1 66 103a2.13 2.13 0 0 1 .42 1.37 2.33 2.33 0 0 1-.9 1.91 3.68 3.68 0 0 1-2.38.73 6.3 6.3 0 0 1-2.91-.65v-1.56a9.49 9.49 0 0 0 2.89.5c.75-.02 1.14-.3 1.14-.82zm8.51 2a5.41 5.41 0 0 1-1.94.33 2.77 2.77 0 0 1-2-.64 2.66 2.66 0 0 1-.64-2v-3.95h-1.25v-1.37l1.3-.26.35-2.24h1.92v2.21h2.21v1.73h-2.21v3.84a.89.89 0 0 0 .26.72 1.37 1.37 0 0 0 .86.21 8.52 8.52 0 0 0 1.14-.1zm2.67-9.23a1.44 1.44 0 0 1-1-.34 1.18 1.18 0 0 1-.36-.91 1.17 1.17 0 0 1 .36-.91 1.39 1.39 0 0 1 1-.34 1.38 1.38 0 0 1 1 .34 1.17 1.17 0 0 1 .36.91 1.18 1.18 0 0 1-.36.91 1.42 1.42 0 0 1-1 .39zm-1.17 9.44v-8.13h2.34v8.18zm10.55-.36a3.64 3.64 0 0 1-1 .4 5.88 5.88 0 0 1-1.27.13 3.9 3.9 0 0 1-3-1.09 4.36 4.36 0 0 1-1-3.13 4.41 4.41 0 0 1 1.08-3.17 4 4 0 0 1 3-1.14 4.54 4.54 0 0 1 2.16.52v1.55a6.36 6.36 0 0 0-1.73-.27 2.18 2.18 0 0 0-1.65.56 2.6 2.6 0 0 0-.53 1.8v.23a2.61 2.61 0 0 0 .52 1.78 2.09 2.09 0 0 0 1.61.57 7.09 7.09 0 0 0 1.83-.29zm6 .36V95.65h4a3.94 3.94 0 0 1 2.58.81 2.64 2.64 0 0 1 1 2.13A2.52 2.52 0 0 1 98 100a2.47 2.47 0 0 1-1.11.91 2.93 2.93 0 0 1 1.56 1 2.74 2.74 0 0 1 .53 1.7 2.79 2.79 0 0 1-1.07 2.29 4.53 4.53 0 0 1-2.88.85zm2.27-9.38v2.91h1.4c1 0 1.55-.48 1.55-1.44a1.28 1.28 0 0 0-1.43-1.47zm0 4.54V105H95c1.09 0 1.63-.51 1.63-1.53s-.58-1.59-1.74-1.59zm9.43 1.32a2 2 0 0 0 .64 1.52 2.8 2.8 0 0 0 1.81.48 9.67 9.67 0 0 0 2.49-.4v1.55a5.45 5.45 0 0 1-1.33.45 8.53 8.53 0 0 1-1.61.16 4.09 4.09 0 0 1-3.1-1.11 5.4 5.4 0 0 1 0-6.41 3.8 3.8 0 0 1 2.93-1.14 3.26 3.26 0 0 1 2.44.87 3.41 3.41 0 0 1 .86 2.49c0 .24 0 .5-.05.8s-.07.54-.11.74zm1.74-3.28a1.64 1.64 0 0 0-1.24.47 2.17 2.17 0 0 0-.52 1.37h3.14v-.28q.01-1.51-1.37-1.51zm9.86 6.8-.19-.72a4.1 4.1 0 0 1-1.15.71 3.41 3.41 0 0 1-1.25.26 2.64 2.64 0 0 1-1.9-.67 2.36 2.36 0 0 1-.71-1.79 2.45 2.45 0 0 1 .38-1.35 2.6 2.6 0 0 1 1.11-.92 3.86 3.86 0 0 1 1.69-.34 7.8 7.8 0 0 1 1.7.21v-.8a1.3 1.3 0 0 0-.31-1 1.71 1.71 0 0 0-1.12-.27 9.72 9.72 0 0 0-2.89.49V99a6.19 6.19 0 0 1 1.52-.5 9.13 9.13 0 0 1 1.82-.18 3.63 3.63 0 0 1 2.41.66 2.67 2.67 0 0 1 .76 2.09v5.67zm-1.94-1.32a2.13 2.13 0 0 0 .83-.17 3.41 3.41 0 0 0 .79-.48v-1.39a7.61 7.61 0 0 0-1.27-.12c-.92 0-1.39.38-1.39 1.12a.94.94 0 0 0 1 1zm11.23 1.32v-5.36a1.36 1.36 0 0 0-.28-1 1.15 1.15 0 0 0-.88-.31 3.21 3.21 0 0 0-1.75.55v6.08h-2.33v-8.09h1.92l.22.88a4.89 4.89 0 0 1 3.07-1.12 2.16 2.16 0 0 1 2.37 2.37v6zm8-2.26a.68.68 0 0 0-.18-.5 2.63 2.63 0 0 0-.75-.38l-1.25-.5a3.12 3.12 0 0 1-1.4-.94 2.25 2.25 0 0 1-.44-1.42 2.1 2.1 0 0 1 .91-1.69 3.74 3.74 0 0 1 2.32-.66 5.81 5.81 0 0 1 2.48.53v1.55a8 8 0 0 0-2.27-.37 2.25 2.25 0 0 0-1 .16.54.54 0 0 0-.3.51.56.56 0 0 0 .18.44 2.61 2.61 0 0 0 .78.41l1.21.5a3.33 3.33 0 0 1 1.42.93 2.13 2.13 0 0 1 .42 1.37 2.33 2.33 0 0 1-.9 1.91 3.64 3.64 0 0 1-2.38.73 6.33 6.33 0 0 1-2.91-.65v-1.56a9.5 9.5 0 0 0 2.9.5c.81-.02 1.19-.3 1.19-.82zm8.51 2a5.35 5.35 0 0 1-1.93.33 2.74 2.74 0 0 1-2-.64 2.67 2.67 0 0 1-.65-2v-3.95h-1.23v-1.32l1.29-.26.36-2.24h1.92v2.21h2.2v1.73h-2.2v3.84a.89.89 0 0 0 .25.72 1.39 1.39 0 0 0 .87.21 8.39 8.39 0 0 0 1.2-.06zm6.13.21-.19-.72a3.84 3.84 0 0 1-1.15.71 3.41 3.41 0 0 1-1.25.26 2.66 2.66 0 0 1-1.9-.67 2.36 2.36 0 0 1-.71-1.79 2.45 2.45 0 0 1 .38-1.35 2.6 2.6 0 0 1 1.11-.92 3.86 3.86 0 0 1 1.69-.34 7.72 7.72 0 0 1 1.7.21v-.8a1.34 1.34 0 0 0-.3-1 1.75 1.75 0 0 0-1.12-.27 9.78 9.78 0 0 0-2.9.49V99a6.19 6.19 0 0 1 1.49-.49 9.21 9.21 0 0 1 1.82-.18 3.63 3.63 0 0 1 2.41.66 2.63 2.63 0 0 1 .76 2.09v5.67zm-1.94-1.32a2.09 2.09 0 0 0 .83-.17 3.41 3.41 0 0 0 .79-.48v-1.39a7.59 7.59 0 0 0-1.26-.12c-.93 0-1.4.38-1.4 1.12a1 1 0 0 0 1 1zm9.59 1.16a3.84 3.84 0 0 1-1.44.27c-1.44 0-2.16-.81-2.16-2.42V94.9h2.33v9.34a.94.94 0 0 0 .16.63.58.58 0 0 0 .5.19 5.86 5.86 0 0 0 .61 0zm1.6.16V94.9h2.32v7.15l2.83-3.49h2.78l-3.37 3.9 3.63 4.28h-2.85l-3-3.73v3.73z" fill="#333"/>
	<path d="M73 19h54v54H73z" fill="url(#a)"/>
	<path d="M118 46.1c0 5-3.7 6.8-7.2 6.7v-1.4c1.7 0 5.8-.5 5.8-5.3q0-4.35-5.1-5.4c-.3-.1-.6-.4-.6-.6-.1-2.8-1.8-3.8-3.1-3.8a3 3 0 0 0-2.4 1.2.67.67 0 0 1-1 .1l-.2-.2a7.71 7.71 0 0 0-2.3-3.6 8 8 0 0 0-11.3-.3 8.35 8.35 0 0 0-2.5 5.7 2.77 2.77 0 0 0 .1.9c.1.4-.2.7-.6.8a5.09 5.09 0 0 0-4.2 5.2v.3a5.5 5.5 0 0 0 5.7 5h.9v1.4h-.9a6.76 6.76 0 0 1-7-6.3V46a6.54 6.54 0 0 1 4.7-6.5V39a9.4 9.4 0 0 1 16.2-6.4 9.73 9.73 0 0 1 2.2 3.1 4.32 4.32 0 0 1 2.6-.9c2 0 4.2 1.4 4.6 4.6 3.6.9 5.6 3.2 5.6 6.7zm-8.4 2.6a4 4 0 0 1-3.1 4.6v3.9a.68.68 0 0 1-.7.7h-5.1v4.3h-1.4v-7.9h-5.1a.68.68 0 0 1-.7-.7v-2.1a3.83 3.83 0 0 1-3.1-3.1 3.92 3.92 0 1 1 4.6 3.1v1.3h4.3v-8.7a3.83 3.83 0 0 1-3.1-3.1 3.86 3.86 0 1 1 4.5 3.1v12.3h4.3v-3.1a3.77 3.77 0 0 1-3.1-3.8 3.93 3.93 0 0 1 3.9-4 3.87 3.87 0 0 1 3.8 3.2zm-15.4 1.4a2.5 2.5 0 1 0-2.5-2.5 2.61 2.61 0 0 0 2.5 2.5zm8.2-9.9a2.45 2.45 0 0 0-2.5-2.4 2.52 2.52 0 0 0-2.4 2.5 2.68 2.68 0 0 0 2.4 2.5 2.5 2.5 0 0 0 2.5-2.6zm5.8 9.3a2.45 2.45 0 1 0-4.9 0 2.34 2.34 0 0 0 2.5 2.4 2.37 2.37 0 0 0 2.4-2.4z" fill="#fff"/>
</svg>
