<svg xmlns="http://www.w3.org/2000/svg" width="200" height="128">
	<defs>
		<linearGradient id="a" x1="268.5" y1="-353.09" x2="118.5" y2="-353.09" gradientTransform="rotate(135 45.003 -165.003)" gradientUnits="userSpaceOnUse">
			<stop offset="0" stop-color="#2e27ad"/>
			<stop offset="1" stop-color="#527fff"/>
		</linearGradient>
	</defs>
	<path d="m78.85 90.74-1-2.95h-4.59l-1 2.95h-1.67l4.1-11.09h1.76l4.09 11.09zm-5.17-4.18h3.73l-1.87-5.44zm18.58 4.18v-5.51a1.83 1.83 0 0 0-.26-1.18 1.13 1.13 0 0 0-1-.39 4.49 4.49 0 0 0-2.35.72 1.94 1.94 0 0 1 0 .24v6.12h-1.58v-5.51a1.9 1.9 0 0 0-.3-1.18 1.13 1.13 0 0 0-1-.39 4.35 4.35 0 0 0-2.34.71v6.37h-1.54v-8.12h1.33l.16.82a5.32 5.32 0 0 1 3-1.06 2 2 0 0 1 2 1.14 5.43 5.43 0 0 1 3.17-1.14 2.23 2.23 0 0 1 1.7.63 2.49 2.49 0 0 1 .59 1.77v6zm8.68 0-.12-.84a4.2 4.2 0 0 1-1.28.77 3.76 3.76 0 0 1-1.38.27 2.54 2.54 0 0 1-1.82-.64 2.31 2.31 0 0 1-.68-1.74 2.28 2.28 0 0 1 .84-1.86 3.34 3.34 0 0 1 2.24-.7 8.38 8.38 0 0 1 2 .27v-1a1.59 1.59 0 0 0-.39-1.22 2 2 0 0 0-1.35-.4 8.71 8.71 0 0 0-2.81.49V83a5.17 5.17 0 0 1 1.41-.47 8.55 8.55 0 0 1 1.68-.17 3.29 3.29 0 0 1 2.24.64 2.42 2.42 0 0 1 .72 1.92v5.8zm-2.4-1a3.75 3.75 0 0 0 2.21-.81V87.3a6.86 6.86 0 0 0-1.69-.21c-1.21 0-1.81.46-1.81 1.39a1.27 1.27 0 0 0 .33.94 1.37 1.37 0 0 0 .96.32zm5.46 1v-1.22l4.66-5.65h-4.5v-1.25h6.26v1.2l-4.72 5.67h4.76v1.25zm11.52.24a3.63 3.63 0 0 1-2.85-1.14 5.4 5.4 0 0 1 0-6.32 4.13 4.13 0 0 1 5.7 0 5.4 5.4 0 0 1 0 6.32 3.63 3.63 0 0 1-2.85 1.16zm0-1.28c1.5 0 2.26-1 2.26-3s-.76-3-2.26-3-2.26 1-2.26 3 .74 3 2.26 3zm11.31 1v-5.39a1.9 1.9 0 0 0-.34-1.25 1.37 1.37 0 0 0-1.08-.4 4.45 4.45 0 0 0-2.48.82v6.26h-1.59v-8.12h1.33l.16.9a5.27 5.27 0 0 1 3.2-1.14 2.41 2.41 0 0 1 1.78.62 2.46 2.46 0 0 1 .61 1.78v6zm-68.5 16V95.65h7.3v1.85h-4.9v2.63h4V102h-4v2.9h4.9v1.86zm12.67-.12a3.84 3.84 0 0 1-1.44.27c-1.44 0-2.16-.81-2.16-2.42V94.9h2.33v9.34a.94.94 0 0 0 .16.63.58.58 0 0 0 .5.19 5.86 5.86 0 0 0 .61 0zm6.29.16-.2-.72a3.91 3.91 0 0 1-1.14.71 3.42 3.42 0 0 1-1.26.26 2.62 2.62 0 0 1-1.89-.67 2.33 2.33 0 0 1-.72-1.79 2.38 2.38 0 0 1 .39-1.35 2.57 2.57 0 0 1 1.1-.92 3.91 3.91 0 0 1 1.7-.34 7.64 7.64 0 0 1 1.69.21v-.8a1.34 1.34 0 0 0-.3-1 1.73 1.73 0 0 0-1.12-.27 9.72 9.72 0 0 0-2.89.49V99a6.25 6.25 0 0 1 1.48-.49 9.31 9.31 0 0 1 1.87-.19 3.63 3.63 0 0 1 2.41.66 2.67 2.67 0 0 1 .76 2.09v5.67zm-1.94-1.32a2 2 0 0 0 .82-.17 3 3 0 0 0 .79-.48v-1.39a7.5 7.5 0 0 0-1.26-.12c-.93 0-1.39.38-1.39 1.12a.94.94 0 0 0 1 1zm9.45-.94a.68.68 0 0 0-.18-.5 2.53 2.53 0 0 0-.74-.38l-1.25-.5a3.22 3.22 0 0 1-1.41-.94 2.24 2.24 0 0 1-.43-1.42 2.12 2.12 0 0 1 .89-1.74 3.77 3.77 0 0 1 2.32-.68 5.87 5.87 0 0 1 2.48.53v1.55a8.07 8.07 0 0 0-2.27-.37 2.25 2.25 0 0 0-1 .16.59.59 0 0 0-.12 1 2.65 2.65 0 0 0 .77.41l1.22.5a3.35 3.35 0 0 1 1.41.93 2.08 2.08 0 0 1 .43 1.37 2.31 2.31 0 0 1-.91 1.91 3.63 3.63 0 0 1-2.37.73 6.3 6.3 0 0 1-2.91-.65v-1.56a9.45 9.45 0 0 0 2.89.5c.82-.05 1.2-.33 1.2-.85zm8.52 2a5.41 5.41 0 0 1-1.94.33 2.76 2.76 0 0 1-2-.64 2.66 2.66 0 0 1-.64-2v-3.95h-1.23v-1.37l1.3-.26.35-2.24h1.92v2.21h2.21v1.73h-2.21v3.84a.89.89 0 0 0 .26.72 1.37 1.37 0 0 0 .86.21 8.52 8.52 0 0 0 1.14-.1zM96 97.3a1.42 1.42 0 0 1-1-.3 1.19 1.19 0 0 1-.37-.91 1.17 1.17 0 0 1 .37-.91 1.38 1.38 0 0 1 1-.34 1.35 1.35 0 0 1 1 .34 1.14 1.14 0 0 1 .37.91A1.16 1.16 0 0 1 97 97a1.4 1.4 0 0 1-1 .3zm-1.17 9.44v-8.18h2.34v8.18zm12.87-.29a8.1 8.1 0 0 1-2.9.49 5.46 5.46 0 0 1-4.1-1.44 7.11 7.11 0 0 1 .07-8.54 5.4 5.4 0 0 1 4.09-1.52 7.88 7.88 0 0 1 2.67.45v1.89a11.09 11.09 0 0 0-2.38-.32 3.24 3.24 0 0 0-2.49.88 3.79 3.79 0 0 0-.82 2.68v.37a3.87 3.87 0 0 0 .8 2.67 3.17 3.17 0 0 0 2.45.87 12.89 12.89 0 0 0 2.61-.37zm6.3.29-.19-.72a4 4 0 0 1-1.15.71 3.41 3.41 0 0 1-1.25.26 2.66 2.66 0 0 1-1.9-.67 2.36 2.36 0 0 1-.71-1.79 2.45 2.45 0 0 1 .38-1.35 2.6 2.6 0 0 1 1.11-.92 3.86 3.86 0 0 1 1.69-.34 7.8 7.8 0 0 1 1.7.21v-.8a1.3 1.3 0 0 0-.31-1 1.71 1.71 0 0 0-1.12-.27 9.72 9.72 0 0 0-2.89.49V99a6.19 6.19 0 0 1 1.49-.49 9.13 9.13 0 0 1 1.82-.18 3.63 3.63 0 0 1 2.41.66 2.63 2.63 0 0 1 .76 2.09v5.67zm-1.94-1.32a2.13 2.13 0 0 0 .83-.17 3.41 3.41 0 0 0 .79-.48v-1.39a7.61 7.61 0 0 0-1.27-.12c-.92 0-1.39.38-1.39 1.12a1 1 0 0 0 .27.77 1.06 1.06 0 0 0 .78.27zm11.89 1a3.53 3.53 0 0 1-1 .4 5.86 5.86 0 0 1-1.26.13 3.91 3.91 0 0 1-3-1.09 5.21 5.21 0 0 1 .06-6.3 4 4 0 0 1 3-1.14 4.54 4.54 0 0 1 2.16.52v1.55a6.3 6.3 0 0 0-1.73-.27 2.17 2.17 0 0 0-1.64.56 2.55 2.55 0 0 0-.53 1.8v.23a2.56 2.56 0 0 0 .52 1.78 2.06 2.06 0 0 0 1.61.57 7 7 0 0 0 1.82-.29zm6.91.36v-5.36a1.31 1.31 0 0 0-.29-1 1.12 1.12 0 0 0-.88-.31 3.21 3.21 0 0 0-1.74.55v6.08h-2.34V94.9H128v4.4a4.93 4.93 0 0 1 2.88-1 2.16 2.16 0 0 1 2.37 2.37v6zm6.29-3.52a2 2 0 0 0 .64 1.52 2.8 2.8 0 0 0 1.81.48 9.67 9.67 0 0 0 2.49-.4v1.55a5.31 5.31 0 0 1-1.33.45 8.53 8.53 0 0 1-1.61.16 4.11 4.11 0 0 1-3.1-1.11 5.38 5.38 0 0 1 0-6.41 3.78 3.78 0 0 1 2.95-1.18 3.26 3.26 0 0 1 2.44.87 3.37 3.37 0 0 1 .86 2.49c0 .24 0 .5-.05.8s-.07.54-.11.74zm1.74-3.28a1.64 1.64 0 0 0-1.24.47 2.17 2.17 0 0 0-.52 1.37h3.14v-.28q.01-1.6-1.37-1.6z" fill="#333"/>
	<path d="M73 19h54v54H73z" fill="url(#a)"/>
	<path d="M100 38.4c-4.8 0-9.7 1.3-9.7 3.7v16.4c0 2.4 4.9 3.7 9.7 3.7s9.7-1.3 9.7-3.7V42.1c0-2.4-4.9-3.7-9.7-3.7zm8.3 20.1c0 .8-2.9 2.2-8.2 2.3s-8.4-1.4-8.4-2.3v-3.4c1.8 1.1 5 1.7 8.3 1.6s6.5-.6 8.3-1.6zm0-5.4c0 .7-3 2.2-8.3 2.2s-8.3-1.4-8.3-2.2v-3.5c1.8 1.1 5 1.7 8.3 1.7s6.5-.6 8.3-1.7zm0-5.5c0 .7-3 2.2-8.3 2.2s-8.3-1.4-8.3-2.2v-3.5c1.8 1.1 5 1.7 8.3 1.7s6.5-.6 8.3-1.7zm-8.3-3.3c-5.3 0-8.3-1.4-8.3-2.2s2.9-2.2 8.3-2.2 8.3 1.4 8.3 2.2-3 2.2-8.3 2.2zm16.3-10.1a1.59 1.59 0 0 0 1.3 1.8.85.85 0 0 1 .8.7v12.5c0 .4-.3.7-.8.8h-6.4v-1.5h3.6v-.7h-3.6v-1.4h4.3a.68.68 0 0 1 .7.7v1.4h.7V37.4a3.11 3.11 0 0 1 0-5.9v-.3H83.1v.3a3.07 3.07 0 0 1 2 2 3 3 0 0 1-2 3.8v11.2h1.4v-1.4a.68.68 0 0 1 .7-.7h3.6v1.4H86v.7h2.8V50h-6.4c-.4 0-.7-.3-.8-.8V36.7a.71.71 0 0 1 .8-.7 1.43 1.43 0 0 0 1.4-1.4 1.67 1.67 0 0 0-1.4-1.8.85.85 0 0 1-.8-.7v-1.6a.71.71 0 0 1 .8-.7h35.2a.85.85 0 0 1 .8.7v1.6a.71.71 0 0 1-.8.7 1.42 1.42 0 0 0-1.3 1.4zM98.2 37v-2.9h-3.6v3.6h-1.4v-4.3a.68.68 0 0 1 .7-.7h5a.68.68 0 0 1 .7.7V37zm7.2.7v-3.6h-3.6V37h-1.4v-3.6a.68.68 0 0 1 .7-.7h5a.68.68 0 0 1 .7.7v4.3zm7.2 5.8v-9.4H109v4.3h-1.4v-5a.68.68 0 0 1 .7-.7h5a.68.68 0 0 1 .7.7v10.8a.68.68 0 0 1-.7.7h-2.1v-1.4zm-25.2 0h1.4v1.4h-2.1a.68.68 0 0 1-.7-.7V33.4a.68.68 0 0 1 .7-.7h5a.68.68 0 0 1 .7.7v5H91v-4.3h-3.6z" fill="#fff"/>
</svg>
