<svg xmlns="http://www.w3.org/2000/svg" width="200" height="128">
    <defs>
        <linearGradient id="a" x1="365.03" y1="-110.97" x2="258.97" y2="-217.03" gradientTransform="rotate(90 74 -165)" gradientUnits="userSpaceOnUse">
            <stop offset="0" stop-color="#b0084d"/>
            <stop offset="1" stop-color="#ff4f8b"/>
        </linearGradient>
    </defs>
    <path d="M91.65 90.74l-1-2.95h-4.59l-1 2.95h-1.67l4.1-11.09h1.76l4.09 11.09zm-5.17-4.18h3.73l-1.87-5.44zm15.84 4.18l-2.1-8.69-2.11 8.69h-1.82l-3.23-11.09h1.77l2.39 9.29 2.12-9h1.8l2.12 9 2.4-9.31h1.72l-3.24 11.09zm8.75-5.27a4.51 4.51 0 01-1.9-1.2 2.63 2.63 0 01-.59-1.77 3 3 0 01.44-1.6 3.09 3.09 0 011.29-1.09 4.52 4.52 0 012-.4 8.39 8.39 0 013 .57v1.3a10 10 0 00-2.85-.5 2.68 2.68 0 00-1.61.43 1.4 1.4 0 00-.56 1.21 1.33 1.33 0 00.38 1 4.07 4.07 0 001.42.76l1.46.55a4.31 4.31 0 011.86 1.16 2.61 2.61 0 01.57 1.75 3 3 0 01-1.1 2.45 4.5 4.5 0 01-2.95.91 7.29 7.29 0 01-3.2-.66v-1.27a9.87 9.87 0 003.17.56 2.85 2.85 0 001.78-.49 1.59 1.59 0 00.65-1.35 1.36 1.36 0 00-.37-1 3.73 3.73 0 00-1.28-.75zm-40.54 21a8.06 8.06 0 01-2.9.49 5.42 5.42 0 01-4.09-1.44A7.13 7.13 0 0163.6 97a5.42 5.42 0 014.1-1.52 7.88 7.88 0 012.67.45v1.89a11.17 11.17 0 00-2.37-.36 3.23 3.23 0 00-2.48.88 3.79 3.79 0 00-.83 2.68v.37a3.87 3.87 0 00.8 2.67 3.18 3.18 0 002.45.87 12.8 12.8 0 002.61-.37zm5.22.13a3.86 3.86 0 01-1.45.27c-1.44 0-2.15-.81-2.15-2.42V94.9h2.33v9.34a1 1 0 00.15.63.6.6 0 00.51.19 5.86 5.86 0 00.61 0zm5.07.4a3.91 3.91 0 01-3-1.15 5.28 5.28 0 010-6.37 4.45 4.45 0 016 0 5.28 5.28 0 010 6.37 3.87 3.87 0 01-3 1.15zm0-1.8c1.12 0 1.68-.84 1.68-2.54s-.56-2.53-1.68-2.53-1.68.85-1.68 2.53.56 2.52 1.68 2.52zm11.31 1.56l-.23-.87a4.75 4.75 0 01-3 1.11 2.23 2.23 0 01-1.7-.65 2.54 2.54 0 01-.61-1.79v-6H89v5.33c0 .86.37 1.29 1.12 1.29a3 3 0 001.63-.51v-6.11h2.34v8.18zm9.68 0l-.19-.72a3.43 3.43 0 01-2.36.89 3.19 3.19 0 01-1.77-.5 3.31 3.31 0 01-1.19-1.47 5.41 5.41 0 01-.43-2.25 5 5 0 01.95-3.18 3 3 0 012.49-1.19 3.45 3.45 0 012.19.72V94.9h2.34v11.84zm-1.81-1.61a2.67 2.67 0 001.47-.45v-4.22a3 3 0 00-1.58-.4 1.39 1.39 0 00-1.26.63 3.49 3.49 0 00-.42 1.91 3.37 3.37 0 00.44 1.91 1.54 1.54 0 001.35.62zm8.5 1.59v-9.17h-3.38v-1.92h9.15v1.92h-3.37v9.17zm6.29 0v-8.18h1.92l.28 1.22a4.45 4.45 0 011.21-1 2.55 2.55 0 011.21-.3 4.85 4.85 0 01.64 0v2.16a4.37 4.37 0 00-1-.1 5 5 0 00-1.94.37v5.78zm11.16 0l-.19-.72a3.91 3.91 0 01-1.14.71 3.42 3.42 0 01-1.26.26 2.62 2.62 0 01-1.89-.67 2.33 2.33 0 01-.72-1.79 2.38 2.38 0 01.39-1.35 2.52 2.52 0 011.1-.92 3.91 3.91 0 011.7-.34 7.64 7.64 0 011.69.21v-.8a1.34 1.34 0 00-.3-1 1.73 1.73 0 00-1.12-.27 9.83 9.83 0 00-2.9.49V99a6.5 6.5 0 011.49-.49 9.31 9.31 0 011.83-.18 3.59 3.59 0 012.4.66 2.63 2.63 0 01.76 2.09v5.67zm-1.93-1.32a2 2 0 00.82-.17 3 3 0 00.79-.48v-1.39a7.5 7.5 0 00-1.26-.12c-.93 0-1.39.38-1.39 1.12a.94.94 0 001 1zm7.21-8.12a1.4 1.4 0 01-1-.34 1.16 1.16 0 01-.37-.91 1.14 1.14 0 01.37-.91 1.57 1.57 0 012 0 1.14 1.14 0 01.37.91 1.16 1.16 0 01-.37.91 1.41 1.41 0 01-.97.34zm-1.16 9.44v-8.18h2.33v8.18zm8.24-.16a3.84 3.84 0 01-1.44.27c-1.44 0-2.16-.81-2.16-2.42V94.9h2.33v9.34a1 1 0 00.15.63.62.62 0 00.51.19 5.86 5.86 0 00.61 0z" fill="#333"/>
    <path d="M73 19h54v54H73z" fill="url(#a)"/>
    <path d="M113 44.2a4.35 4.35 0 00-2.8-4 4.59 4.59 0 00-3.8.5 13.09 13.09 0 00-1.9-2.7 8.71 8.71 0 00-9.7-1.9 9 9 0 00-5.1 7.9v.3a6.07 6.07 0 00-3.9 3.6h1.6a4.47 4.47 0 013.2-2.3.76.76 0 00.6-.8l-.1-.9a7.58 7.58 0 014.2-6.5 7.23 7.23 0 018.1 1.6 7.93 7.93 0 012 3.3 1 1 0 00.6.5.49.49 0 00.6-.3 2.81 2.81 0 013-1 2.86 2.86 0 011.8 3.1c-.1.4.2.7.6.8a4.84 4.84 0 014.4 4.8c0 4.4-4.3 4.8-4.4 4.9H97.1v1.5h15.1a6.17 6.17 0 005.8-6.4 5.92 5.92 0 00-5-6zM83.4 56.6H82v-1.5h1.4zm6.5 0h-5v-1.5h5zm5.8 0h-4.3v-1.5h4.3zm-6.5-2.9h-6.5v-1.4h6.5zm13.7 0h-8.7v-1.4h8.7zm-7.2-2.9h-4.3v-1.4h4.3zm-5.8 0h-5.7v-1.4h5.7zm2.9 2.9h-2.2v-1.4h2.2z" fill="#fff"/>
</svg>
