<svg xmlns="http://www.w3.org/2000/svg" width="200" height="128">
	<defs>
		<linearGradient id="a" x1="262.09" y1="128.5" x2="262.09" y2="-21.5" gradientTransform="rotate(45 143.997 -165.004)" gradientUnits="userSpaceOnUse">
			<stop offset="0" stop-color="#1b660f"/>
			<stop offset="1" stop-color="#6cae3e"/>
		</linearGradient>
	</defs>
	<path d="m78.85 90.74-1-2.95h-4.59l-1 2.95h-1.67l4.1-11.09h1.76l4.09 11.09zm-5.17-4.18h3.73l-1.87-5.44zm18.58 4.18v-5.51a1.83 1.83 0 0 0-.26-1.18 1.13 1.13 0 0 0-1-.39 4.49 4.49 0 0 0-2.35.72 1.94 1.94 0 0 1 0 .24v6.12h-1.58v-5.51a1.9 1.9 0 0 0-.3-1.18 1.13 1.13 0 0 0-1-.39 4.35 4.35 0 0 0-2.34.71v6.37h-1.54v-8.12h1.33l.16.82a5.32 5.32 0 0 1 3-1.06 2 2 0 0 1 2 1.14 5.43 5.43 0 0 1 3.17-1.14 2.23 2.23 0 0 1 1.7.63 2.49 2.49 0 0 1 .59 1.77v6zm8.68 0-.12-.84a4.2 4.2 0 0 1-1.28.77 3.76 3.76 0 0 1-1.38.27 2.54 2.54 0 0 1-1.82-.64 2.31 2.31 0 0 1-.68-1.74 2.28 2.28 0 0 1 .84-1.86 3.34 3.34 0 0 1 2.24-.7 8.38 8.38 0 0 1 2 .27v-1a1.59 1.59 0 0 0-.39-1.22 2 2 0 0 0-1.35-.4 8.71 8.71 0 0 0-2.81.49V83a5.17 5.17 0 0 1 1.41-.47 8.55 8.55 0 0 1 1.68-.17 3.29 3.29 0 0 1 2.24.64 2.42 2.42 0 0 1 .72 1.92v5.8zm-2.4-1a3.75 3.75 0 0 0 2.21-.81V87.3a6.86 6.86 0 0 0-1.69-.21c-1.21 0-1.81.46-1.81 1.39a1.27 1.27 0 0 0 .33.94 1.37 1.37 0 0 0 .96.32zm5.46 1v-1.22l4.66-5.65h-4.5v-1.25h6.26v1.2l-4.72 5.67h4.76v1.25zm11.52.24a3.63 3.63 0 0 1-2.85-1.14 5.4 5.4 0 0 1 0-6.32 4.13 4.13 0 0 1 5.7 0 5.4 5.4 0 0 1 0 6.32 3.63 3.63 0 0 1-2.85 1.16zm0-1.28c1.5 0 2.26-1 2.26-3s-.76-3-2.26-3-2.26 1-2.26 3 .74 3 2.26 3zm11.31 1v-5.39a1.9 1.9 0 0 0-.34-1.25 1.37 1.37 0 0 0-1.08-.4 4.45 4.45 0 0 0-2.48.82v6.26h-1.59v-8.12h1.33l.16.9a5.27 5.27 0 0 1 3.2-1.14 2.41 2.41 0 0 1 1.78.62 2.46 2.46 0 0 1 .61 1.78v6zm-39.17 16V95.65H95v1.85h-4.94v2.63h4V102h-4v2.9H95v1.86zm9.24 0V95.65h7v1.85h-4.6v2.79h3.7v1.85h-3.7v4.6zm10.8-4.85a4.6 4.6 0 0 1-2-1.29 3.2 3.2 0 0 1 .48-4.33 4.63 4.63 0 0 1 3-.89 8.6 8.6 0 0 1 3.07.57v1.83a9.74 9.74 0 0 0-2.88-.48c-1.26 0-1.89.4-1.89 1.21a.94.94 0 0 0 .33.74 4.34 4.34 0 0 0 1.22.61l1.19.43a5.13 5.13 0 0 1 2.12 1.27 2.81 2.81 0 0 1 .63 1.9 3.17 3.17 0 0 1-1.18 2.6 5.09 5.09 0 0 1-3.25 1 9.78 9.78 0 0 1-1.79-.17 6.38 6.38 0 0 1-1.54-.46v-1.82a11.94 11.94 0 0 0 1.71.38 10.29 10.29 0 0 0 1.65.15 2.62 2.62 0 0 0 1.46-.35 1.11 1.11 0 0 0 .51-1 1 1 0 0 0-.31-.78 3.93 3.93 0 0 0-1.26-.64z" fill="#333"/>
	<path d="M73 19h54v54H73z" fill="url(#a)"/>
	<path d="M83.4 34.5H82v-5.8a.68.68 0 0 1 .7-.7h5.8v1.4h-4.1l5.3 5.3-1 1-5.3-5.3zm33.9-6.5h-5.8v1.4h4.1l-5.3 5.3 1 1 5.3-5.3v4.1h1.4v-5.8a.68.68 0 0 0-.7-.7zM88.7 56.3l-5.3 5.3v-4.1H82v5.8a.68.68 0 0 0 .7.7h5.8v-1.4h-4.1l5.3-5.3zm27.9 5.3-5.3-5.3-1 1 5.3 5.3h-4.1V64h5.8a.68.68 0 0 0 .7-.7v-5.8h-1.4zM94.3 35.7a6.56 6.56 0 0 1 7.6 1.5 7.67 7.67 0 0 1 1.9 3.1.7.7 0 0 0 1 .4c.1-.1.2-.1.3-.2a2.46 2.46 0 0 1 2-1c1.1 0 2.4.9 2.5 3.3a.58.58 0 0 0 .6.6c2.8.6 4.2 2.2 4.3 4.6s-1 3.7-3.1 4.2l.3 1.4c2.7-.6 4.2-2.7 4.2-5.7s-1.7-5-4.8-5.9c-.4-2.8-2.2-4-4-4a3.41 3.41 0 0 0-2.2.7 9.31 9.31 0 0 0-1.8-2.6 8.27 8.27 0 0 0-9.2-1.8 8.54 8.54 0 0 0-4.9 7.5v.4a5.82 5.82 0 0 0-4 5.7v.4a6 6 0 0 0 4.1 5.3l.5-1.4a4.64 4.64 0 0 1-3.1-4v-.4a4.34 4.34 0 0 1 3.5-4.5.73.73 0 0 0 .6-.7c0-.3-.1-.6-.1-.8a6.76 6.76 0 0 1 3.8-6.1zm17.2 14.1-2.9 8.7a.74.74 0 0 1-.6.5H91.4a.71.71 0 0 1-.7-.8v-9a2.83 2.83 0 0 1 .9-2 1.46 1.46 0 0 1 1.3-.5h.9c.2-.6.6-1.4 1.3-1.4h3c.6.1.9.9 1.1 1.4h7.4a1.66 1.66 0 0 1 1.3.5 3 3 0 0 1 .8 1.7h2.2a.55.55 0 0 1 .5.3 1.27 1.27 0 0 1 .1.6zm-4.3-.6a1 1 0 0 0-.4-.9c-.1-.1-.1-.1-.2-.1h-8c-.4 0-.7-.3-.8-.8-.1-.2-.1-.5-.2-.7h-2.4a1.88 1.88 0 0 0-.2.8c0 .4-.4.6-.8.7h-1.4c-.1 0-.2.1-.4.1-.2.3-.4.6-.3.9v8.3h15.1zm2.6 1.1h-1.2v3.5z" fill="#fff"/>
</svg>
