<svg xmlns="http://www.w3.org/2000/svg" width="200" height="128">
    <defs>
        <linearGradient id="a" x1="-316.03" y1="-120.03" x2="-209.97" y2="-13.97" gradientTransform="rotate(-90 -25 -165)" gradientUnits="userSpaceOnUse">
            <stop offset="0" stop-color="#c8511b"/>
            <stop offset="1" stop-color="#f90"/>
        </linearGradient>
    </defs>
    <path d="M93 90.74l-.86-2.49h-3.9l-.83 2.49H86l3.45-9.36h1.49l3.45 9.36zm-4.36-3.53h3.15l-1.58-4.59zM102 90.74l-1.77-7.33-1.78 7.33h-1.58l-2.73-9.36h1.5l2 7.84 1.8-7.57H101l1.79 7.59 2-7.86h1.44l-2.72 9.36zm7.38-4.45a3.65 3.65 0 01-1.6-1 2.19 2.19 0 01-.5-1.5 2.43 2.43 0 01.37-1.34 2.6 2.6 0 011.09-.92 3.77 3.77 0 011.67-.34 7.14 7.14 0 012.5.48v1.1a8.31 8.31 0 00-2.41-.42 2.21 2.21 0 00-1.35.36 1.2 1.2 0 00-.48 1 1.11 1.11 0 00.32.85 3.39 3.39 0 001.2.64l1.23.46a3.69 3.69 0 011.57 1 2.25 2.25 0 01.48 1.48 2.57 2.57 0 01-.92 2.07A3.8 3.8 0 01110 91a6.11 6.11 0 01-2.7-.56v-1.11a8.27 8.27 0 002.67.47 2.44 2.44 0 001.51-.41 1.37 1.37 0 00.54-1.14 1.16 1.16 0 00-.31-.83 3.15 3.15 0 00-1.08-.63zm-87.82 17.95v-9.36h6.16v1.57h-4.14v2.21H27v1.57h-3.42v2.44h4.14v1.57zm10.71-.14a3.31 3.31 0 01-1.22.23c-1.21 0-1.82-.68-1.82-2v-8h2v7.88a.81.81 0 00.13.53.48.48 0 00.42.16 3.88 3.88 0 00.52 0zm2.73-2.83a1.76 1.76 0 00.54 1.29A2.44 2.44 0 0037 103a8.07 8.07 0 002.1-.33v1.31a4.46 4.46 0 01-1.12.37 6.75 6.75 0 01-1.36.14 3.47 3.47 0 01-2.61-.93 3.78 3.78 0 01-.9-2.73 3.83 3.83 0 01.89-2.74 3.23 3.23 0 012.47-1 2.76 2.76 0 012.06.73 2.88 2.88 0 01.72 2.1 5.83 5.83 0 010 .68c0 .25-.06.45-.09.62zm1.47-2.77a1.35 1.35 0 00-1 .4 1.73 1.73 0 00-.44 1.15h2.64v-.23c-.09-.88-.47-1.32-1.25-1.32zm12.91 5.74v-4.67c0-.62-.28-.92-.82-.92A3.37 3.37 0 0047 99v5.24h-2v-4.67c0-.62-.27-.92-.82-.92a3.37 3.37 0 00-1.49.36v5.23h-2v-6.9h1.71l.18.66a5.72 5.72 0 011.29-.67 3.64 3.64 0 011.18-.19 1.8 1.8 0 011.71.86 5.31 5.31 0 011.3-.66 3.82 3.82 0 011.26-.2 2 2 0 011.46.52 2 2 0 01.52 1.47v5.11zm5.3-3a1.76 1.76 0 00.54 1.29 2.46 2.46 0 001.53.39 8.2 8.2 0 002.11-.33v1.31a4.54 4.54 0 01-1.13.37 6.75 6.75 0 01-1.36.14 3.47 3.47 0 01-2.61-.93 3.78 3.78 0 01-.9-2.73 3.83 3.83 0 01.89-2.69 3.25 3.25 0 012.47-1 2.76 2.76 0 012.06.73A2.88 2.88 0 0159 100a5.83 5.83 0 010 .68 4.15 4.15 0 01-.09.62zm1.48-2.77a1.39 1.39 0 00-1 .4 1.78 1.78 0 00-.44 1.15h2.65v-.23c-.1-.85-.49-1.29-1.26-1.29zm8.78 5.74v-4.5a1.17 1.17 0 00-.24-.81 1 1 0 00-.74-.25 2.67 2.67 0 00-1.47.46v5.13h-2v-6.9h1.62l.19.74a4.13 4.13 0 012.59-.94 1.81 1.81 0 012 2v5.11zm7.94-.18a4.42 4.42 0 01-1.63.28 2.34 2.34 0 01-1.7-.54 2.27 2.27 0 01-.54-1.67v-3.3h-1v-1.22l.99-.21.3-1.9h1.62v1.87h1.86v1.46h-1.85v3.2a.74.74 0 00.21.6 1.17 1.17 0 00.73.18 7.14 7.14 0 001-.08zm5.17.18l-.16-.61a3.38 3.38 0 01-1 .6 2.8 2.8 0 01-1.06.22 2.26 2.26 0 01-1.6-.56 2.21 2.21 0 01-.28-2.66 2.22 2.22 0 01.93-.77 3.35 3.35 0 011.43-.29 6.42 6.42 0 011.43.18v-.68a1.14 1.14 0 00-.25-.85 1.48 1.48 0 00-1-.23 8.18 8.18 0 00-2.44.42V97.7a4.82 4.82 0 011.25-.41 8 8 0 011.54-.15 3 3 0 012 .56 2.21 2.21 0 01.65 1.76v4.78zm-1.63-1.11a1.75 1.75 0 00.69-.15 2.53 2.53 0 00.67-.4v-1.15a7.1 7.1 0 00-1.06-.09c-.79 0-1.18.31-1.18.94a.8.8 0 00.88.88zm8.09 1a3.31 3.31 0 01-1.22.23c-1.21 0-1.82-.68-1.82-2v-8h2v7.88a.81.81 0 00.13.53.48.48 0 00.42.16 3.88 3.88 0 00.52 0zm12.74.14v-6.48L95.13 102h-1.8l-2.07-4.2v6.48h-1.78v-9.4h2.21l2.55 5.32 2.57-5.32H99v9.36zm5.28-3a1.69 1.69 0 00.54 1.29 2.41 2.41 0 001.52.39 8.07 8.07 0 002.11-.33v1.31a4.54 4.54 0 01-1.13.37 6.65 6.65 0 01-1.35.14 3.48 3.48 0 01-2.62-.93 4.57 4.57 0 010-5.42 3.22 3.22 0 012.47-1 2.77 2.77 0 012.06.73 2.88 2.88 0 01.72 2.1v.68a5.77 5.77 0 01-.1.62zM104 98.5a1.39 1.39 0 00-1 .4 1.83 1.83 0 00-.44 1.15h2.65v-.23c-.1-.88-.49-1.32-1.21-1.32zm9 5.74l-.16-.61a2.88 2.88 0 01-2 .75 2.59 2.59 0 01-2.5-1.66 4.63 4.63 0 01-.36-1.9 4.15 4.15 0 01.8-2.68 2.54 2.54 0 012.1-1 3 3 0 011.85.6v-3.49h2v10zm-1.5-1.34a2.31 2.31 0 001.24-.38V99a2.57 2.57 0 00-1.34-.34 1.19 1.19 0 00-1.06.53 3 3 0 00-.35 1.62 2.76 2.76 0 00.37 1.6 1.31 1.31 0 001.11.49zm6.14-6.63a1.17 1.17 0 01-.82-.28 1 1 0 01-.31-.77 1 1 0 01.31-.77 1.17 1.17 0 01.82-.28 1.19 1.19 0 01.83.28 1 1 0 01.31.77 1 1 0 01-.31.77 1.19 1.19 0 01-.86.28zm-1 8v-6.9h2v6.9zm7.87 0l-.17-.61a3.25 3.25 0 01-1 .6 2.8 2.8 0 01-1.06.22 2.26 2.26 0 01-1.6-.56 2 2 0 01-.6-1.52 2.08 2.08 0 01.32-1.14 2.22 2.22 0 01.93-.77 3.39 3.39 0 011.44-.29 6.49 6.49 0 011.43.18v-.68a1.14 1.14 0 00-.26-.85 1.48 1.48 0 00-1-.23 8.23 8.23 0 00-2.44.42V97.7a4.78 4.78 0 011.26-.41 7.81 7.81 0 011.54-.15 3 3 0 012 .56 2.24 2.24 0 01.64 1.76v4.78zm-1.64-1.11a1.8 1.8 0 00.7-.15 2.7 2.7 0 00.67-.4v-1.21a7.33 7.33 0 00-1.07-.09c-.78 0-1.17.31-1.17.94a.88.88 0 00.22.65.9.9 0 00.64.23zm7.16-2.31v3.42h-2v-9.39h3.57a3.23 3.23 0 012.31.8 3.19 3.19 0 010 4.34 3.18 3.18 0 01-2.31.8zm0-1.51h1.37a1.38 1.38 0 001-.37 1.87 1.87 0 000-2.18 1.42 1.42 0 00-1-.37H130zm10.07 4.93l-.16-.61a3.3 3.3 0 01-1 .6 2.76 2.76 0 01-1.06.22 2.28 2.28 0 01-1.6-.56 2 2 0 01-.6-1.52 2.08 2.08 0 01.32-1.14 2.19 2.19 0 01.94-.77 3.32 3.32 0 011.43-.29 6.42 6.42 0 011.43.18v-.68a1.14 1.14 0 00-.26-.85 1.44 1.44 0 00-.94-.23 8.24 8.24 0 00-2.45.42V97.7a4.9 4.9 0 011.26-.41 7.88 7.88 0 011.54-.15 3 3 0 012 .56 2.2 2.2 0 01.64 1.76v4.78zm-1.63-1.11a1.79 1.79 0 00.69-.15 2.7 2.7 0 00.67-.4v-1.21a7.22 7.22 0 00-1.07-.09c-.78 0-1.17.31-1.17.94a.85.85 0 00.23.65.89.89 0 00.64.23zm10 .81a3.16 3.16 0 01-.87.33 4.68 4.68 0 01-1.07.11 3.31 3.31 0 01-2.52-.91 4.4 4.4 0 010-5.32 3.35 3.35 0 012.55-1 3.85 3.85 0 011.82.43v1.31a5.37 5.37 0 00-1.38-.22 1.8 1.8 0 00-1.39.48 2.17 2.17 0 00-.45 1.52v.19a2.18 2.18 0 00.44 1.5 1.74 1.74 0 001.36.48 5.85 5.85 0 001.53-.24zm1.41.3v-10h2v6l2.39-2.94h2.35l-2.85 3.29 3.06 3.61h-2.4l-2.55-3.15v3.15zm11.81 0l-.16-.61a3.3 3.3 0 01-1 .6 2.72 2.72 0 01-1.06.22 2.28 2.28 0 01-1.6-.56 2.19 2.19 0 01-.27-2.66 2.11 2.11 0 01.93-.77 3.32 3.32 0 011.43-.29 6.42 6.42 0 011.43.18v-.68a1.1 1.1 0 00-.26-.85 1.44 1.44 0 00-.94-.23 8.18 8.18 0 00-2.44.42V97.7a4.82 4.82 0 011.25-.41 8 8 0 011.54-.15 3 3 0 012 .56 2.2 2.2 0 01.64 1.76v4.78zm-1.63-1.11a1.79 1.79 0 00.69-.15 2.7 2.7 0 00.67-.4v-1.21a7.12 7.12 0 00-1.07-.09c-.78 0-1.17.31-1.17.94a.8.8 0 00.88.88zm9.26.27a2.62 2.62 0 01-1.81.69 2.4 2.4 0 01-2-.94 3.9 3.9 0 01-.75-2.5 4 4 0 01.75-2.56 2.48 2.48 0 012-1 2.7 2.7 0 011.06.2 2.52 2.52 0 01.89.59l.15-.59h1.62v6.36a3.19 3.19 0 01-3.45 3.48 5.52 5.52 0 01-2.49-.58v-1.32a8.17 8.17 0 002.31.41 1.69 1.69 0 001.29-.41 1.85 1.85 0 00.4-1.34zm-1.2-.77a2 2 0 00.62-.1 2.08 2.08 0 00.58-.28v-3.35a2.49 2.49 0 00-1.3-.34c-.86 0-1.29.67-1.29 2a2.84 2.84 0 00.33 1.54 1.2 1.2 0 001.07.5zm6.5-1.36a1.76 1.76 0 00.54 1.29 2.46 2.46 0 001.53.39 8.2 8.2 0 002.11-.33v1.31a4.68 4.68 0 01-1.13.37 6.75 6.75 0 01-1.36.14 3.47 3.47 0 01-2.61-.93 3.78 3.78 0 01-.9-2.73 3.83 3.83 0 01.89-2.69 3.25 3.25 0 012.47-1 2.76 2.76 0 012.06.73A2.88 2.88 0 01179 100a5.83 5.83 0 010 .68 6.07 6.07 0 01-.09.62zm1.48-2.77a1.37 1.37 0 00-1.05.4 1.78 1.78 0 00-.44 1.15h2.65v-.23c.01-.91-.38-1.35-1.15-1.35z" fill="#333"/>
    <path d="M73 19h54v54H73z" fill="url(#a)"/>
    <path d="M100 64.2c-.1 0-.2-.1-.4-.1l-15.1-8.7a.61.61 0 01-.3-.7V37.3a.91.91 0 01.3-.7l15.1-8.7a1.1 1.1 0 01.8 0l15.1 8.7a.61.61 0 01.3.7v17.4a.91.91 0 01-.3.7l-15.1 8.7c-.1.1-.2.1-.4.1zm-.7-8.6h1.4v6.6l13-7.5-3-1.7-3.9 2.1a.85.85 0 01-.7 0l-4.3-2.3a.84.84 0 01-.4-.7v-4.8a.75.75 0 01.4-.7l4.3-2.3a.85.85 0 01.7 0l4.4 2.3a.61.61 0 01.3.7v4.5l2.9 1.7v-15l-5.8 3.4-.8-1.2 5.9-3.4-13-7.5v3.4l4 2.1a.61.61 0 01.3.7v4.8a.91.91 0 01-.3.7l-4.3 2.3a1.1 1.1 0 01-.8 0l-4.3-2.3a.61.61 0 01-.3-.7V36a.91.91 0 01.3-.7l4-2.1v-3.4l-13 7.5 5.9 3.4-.8 1.2-5.8-3.4v15l2.9-1.7v-4.4a.6.6 0 01.3-.6l4.4-2.5a.85.85 0 01.7 0l4.3 2.5a.82.82 0 01.4.6v5a.75.75 0 01-.4.7l-4.3 2.5a.85.85 0 01-.7 0l-4.1-2.4-2.8 1.6 13 7.5zM89.9 52l3.6 2.1 3.6-2.1v-4.2l-3.6-2.1-3.6 2.1zm13-.4l3.6 2 3.6-2v-3.9l-3.6-2-3.6 2zm-6.5-11.2l3.6 2 3.6-2v-4l-3.6-2-3.6 2z" fill="#fff"/>
</svg>
