<svg xmlns="http://www.w3.org/2000/svg" width="200" height="128">
	<defs>
		<linearGradient id="a" x1="268.5" y1="-353.09" x2="118.5" y2="-353.09" gradientTransform="rotate(135 45.003 -165.003)" gradientUnits="userSpaceOnUse">
			<stop offset="0" stop-color="#bd0816"/>
			<stop offset="1" stop-color="#ff5252"/>
		</linearGradient>
	</defs>
	<path d="m91.65 90.74-1-2.95h-4.59l-1 2.95h-1.67l4.1-11.09h1.76l4.09 11.09zm-5.17-4.18h3.73l-1.87-5.44zm15.84 4.18-2.1-8.69-2.11 8.69h-1.82l-3.23-11.09h1.77l2.39 9.29 2.12-9h1.8l2.12 9 2.4-9.31h1.72l-3.24 11.09zm8.75-5.27a4.51 4.51 0 0 1-1.9-1.2 2.63 2.63 0 0 1-.59-1.77 3 3 0 0 1 .44-1.6 3.09 3.09 0 0 1 1.29-1.09 4.52 4.52 0 0 1 2-.4 8.39 8.39 0 0 1 3 .57v1.3a10 10 0 0 0-2.85-.5 2.68 2.68 0 0 0-1.61.43 1.4 1.4 0 0 0-.56 1.21 1.33 1.33 0 0 0 .38 1 4.07 4.07 0 0 0 1.42.76l1.46.55a4.31 4.31 0 0 1 1.86 1.16 2.61 2.61 0 0 1 .57 1.75 3 3 0 0 1-1.1 2.45 4.5 4.5 0 0 1-2.95.91 7.29 7.29 0 0 1-3.2-.66v-1.27a9.87 9.87 0 0 0 3.17.56 2.85 2.85 0 0 0 1.78-.49 1.59 1.59 0 0 0 .65-1.35 1.36 1.36 0 0 0-.37-1 3.73 3.73 0 0 0-1.28-.75zM70 106.45a8.1 8.1 0 0 1-2.9.49 5.46 5.46 0 0 1-4.1-1.44 7.11 7.11 0 0 1 .05-8.5 5.41 5.41 0 0 1 4.1-1.52 8 8 0 0 1 2.67.45v1.89a11.17 11.17 0 0 0-2.39-.32 3.24 3.24 0 0 0-2.49.88 3.84 3.84 0 0 0-.82 2.68v.37a3.87 3.87 0 0 0 .8 2.67 3.17 3.17 0 0 0 2.45.87 12.8 12.8 0 0 0 2.61-.37zm5.21.13a3.84 3.84 0 0 1-1.44.27c-1.44 0-2.16-.81-2.16-2.42V94.9h2.34v9.34a1 1 0 0 0 .15.63.59.59 0 0 0 .5.19 5.66 5.66 0 0 0 .61 0zm5.07.4a3.89 3.89 0 0 1-3-1.15 5.28 5.28 0 0 1 0-6.37 4.45 4.45 0 0 1 5.95 0 5.28 5.28 0 0 1 0 6.37 3.89 3.89 0 0 1-2.97 1.17zm0-1.8c1.12 0 1.68-.84 1.68-2.54s-.56-2.53-1.68-2.53-1.68.85-1.68 2.53.54 2.54 1.66 2.54zm11.32 1.56-.23-.87a4.77 4.77 0 0 1-3 1.11 2.23 2.23 0 0 1-1.7-.65 2.49 2.49 0 0 1-.61-1.79v-6h2.34v5.33c0 .86.37 1.29 1.12 1.29a3 3 0 0 0 1.63-.51v-6.09h2.35v8.18zm9.68 0-.2-.72a3.41 3.41 0 0 1-2.35.89 3.19 3.19 0 0 1-1.77-.5 3.33 3.33 0 0 1-1.2-1.47 5.58 5.58 0 0 1-.42-2.25 5.05 5.05 0 0 1 .94-3.18 3.05 3.05 0 0 1 2.5-1.19A3.47 3.47 0 0 1 101 99v-4.1h2.34v11.84zm-1.78-1.59a2.69 2.69 0 0 0 1.47-.45v-4.22a3 3 0 0 0-1.58-.4 1.42 1.42 0 0 0-1.27.63 3.59 3.59 0 0 0-.41 1.91 3.29 3.29 0 0 0 .44 1.91 1.54 1.54 0 0 0 1.33.62zm13 1.59V102h-4.41v4.72h-2.4V95.65h2.4v4.51h4.41v-4.51h2.4v11.09zm7.12-4.85a4.6 4.6 0 0 1-2-1.29 3.2 3.2 0 0 1 .48-4.33 4.63 4.63 0 0 1 3-.89 8.6 8.6 0 0 1 3.07.57v1.83a9.74 9.74 0 0 0-2.88-.48c-1.26 0-1.89.4-1.89 1.21a.94.94 0 0 0 .33.74 4.34 4.34 0 0 0 1.22.61l1.19.43a5.13 5.13 0 0 1 2.12 1.27 2.81 2.81 0 0 1 .63 1.9 3.17 3.17 0 0 1-1.18 2.6 5.09 5.09 0 0 1-3.25 1 9.78 9.78 0 0 1-1.79-.17 6.38 6.38 0 0 1-1.54-.46v-1.82a11.94 11.94 0 0 0 1.71.38 10.29 10.29 0 0 0 1.65.15 2.62 2.62 0 0 0 1.46-.35 1.11 1.11 0 0 0 .51-1 1 1 0 0 0-.31-.78 3.93 3.93 0 0 0-1.26-.64zm16.38 4.85v-7.68l-2.45 5h-2.15l-2.44-5v7.68h-2.12V95.65h2.63l3 6.3 3-6.3h2.58v11.09z" fill="#333"/>
	<path d="M73 19h54v54H73z" fill="url(#a)"/>
	<path d="M106.8 50.7a1.8 1.8 0 1 0 1.8 1.8 1.79 1.79 0 0 0-1.8-1.8zm0 2.3c-.3 0-.4-.2-.4-.5s.2-.4.5-.5.4.2.4.5a.47.47 0 0 1-.5.5zm11 7.3-5.4-5.4a5.66 5.66 0 0 0 .3-1.8 5.34 5.34 0 0 0-5.3-5.3h-.7a.6.6 0 0 0-.4.1c-.3.1-.5.1-.8.2-.1.1-.4.1-.5.2l-.5.2a5.29 5.29 0 0 0-2.4 4.5 5.16 5.16 0 0 0 5.2 5.2 11 11 0 0 0 1.8-.2l.1.1v1.2a.68.68 0 0 0 .7.7h1.2l.3.3v1.2a.68.68 0 0 0 .7.7h1.9l1.3 1.2a.76.76 0 0 0 .5.2h1.4a.68.68 0 0 0 .7-.7v-2.1a.44.44 0 0 0-.1-.5zm-1.2 1.9h-.5l-1.2-1.2a.76.76 0 0 0-.5-.2H113V60a.55.55 0 0 0-.3-.5l-.7-.7a.76.76 0 0 0-.5-.2h-.7v-.7a.76.76 0 0 0-.2-.5l-.7-.7a.78.78 0 0 0-.8-.2 4.71 4.71 0 0 1-1.6.4 3.8 3.8 0 0 1-3.8-3.8 3.85 3.85 0 0 1 1.7-3.2l.3-.2.3-.1a1.27 1.27 0 0 1 .6-.1l.3-.1h.4a4 4 0 0 1 3.9 3.8 3.29 3.29 0 0 1-.4 1.7.75.75 0 0 0 .1.8l5.6 5.6zm-30.3-8.1V30a.22.22 0 0 1 .2-.2h24.1a.22.22 0 0 1 .2.2v17.1h1.4V30a1.52 1.52 0 0 0-1.6-1.6H86.5a1.52 1.52 0 0 0-1.6 1.6v3.4h-2.2a.68.68 0 0 0-.7.7v4.3a.85.85 0 0 0 .7.8h2.2v5.7h-2.2a.68.68 0 0 0-.7.7V50a.68.68 0 0 0 .7.7h2.2v3.4a1.52 1.52 0 0 0 1.6 1.6h14.2v-1.4H86.5a.22.22 0 0 1-.2-.2zm-2.9-16.4v-2.9h1.5v2.9zm0 11.5v-2.8h1.5v2.8zm14.4-13.6A6.59 6.59 0 0 1 104 40l1.3-.5a7.74 7.74 0 0 0-10-4.9 7.87 7.87 0 0 0 5.1 14.9 7.71 7.71 0 0 0 4.9-4.9l-1.3-.5a6.53 6.53 0 0 1-8.2 4.1 6.67 6.67 0 0 1-4.2-8.2 6.33 6.33 0 0 1 6.2-4.4zm10.1 5.7h-5.8a4.32 4.32 0 1 0-3.5 5 4.25 4.25 0 0 0 3.5-3.5h5.8zm-10.1 3.6A2.76 2.76 0 0 1 95 42a2.79 2.79 0 0 1 2.8-2.8 3 3 0 0 1 2.9 2.8 3 3 0 0 1-2.9 2.9z" fill="#fff"/>
</svg>
