<svg xmlns="http://www.w3.org/2000/svg" width="200" height="128">
    <defs>
        <linearGradient id="a" x1="365.03" y1="-110.97" x2="258.97" y2="-217.03" gradientTransform="rotate(90 74 -165)" gradientUnits="userSpaceOnUse">
            <stop offset="0" stop-color="#4d27a8"/>
            <stop offset="1" stop-color="#a166ff"/>
        </linearGradient>
    </defs>
    <path d="M91.65 90.74l-1-2.95h-4.59l-1 2.95h-1.67l4.1-11.09h1.76l4.09 11.09zm-5.17-4.18h3.73l-1.87-5.44zm15.84 4.18l-2.1-8.69-2.11 8.69h-1.82l-3.23-11.09h1.77l2.39 9.29 2.12-9h1.8l2.12 9 2.4-9.31h1.72l-3.24 11.09zm8.75-5.27a4.51 4.51 0 01-1.9-1.2 2.63 2.63 0 01-.59-1.77 3 3 0 01.44-1.6 3.09 3.09 0 011.29-1.09 4.52 4.52 0 012-.4 8.39 8.39 0 013 .57v1.3a10 10 0 00-2.85-.5 2.68 2.68 0 00-1.61.43 1.4 1.4 0 00-.56 1.21 1.33 1.33 0 00.38 1 4.07 4.07 0 001.42.76l1.46.55a4.31 4.31 0 011.86 1.16 2.61 2.61 0 01.57 1.75 3 3 0 01-1.1 2.45 4.5 4.5 0 01-2.95.91 7.29 7.29 0 01-3.2-.66v-1.27a9.87 9.87 0 003.17.56 2.85 2.85 0 001.78-.49 1.59 1.59 0 00.65-1.35 1.36 1.36 0 00-.37-1 3.73 3.73 0 00-1.28-.75zm-65.48 21.27V95.65h4a5 5 0 013.81 1.43 7 7 0 010 8.21 4.87 4.87 0 01-3.76 1.45zM48 97.5v7.38h1.38q2.9 0 2.9-3.54V101c0-2.34-1-3.52-2.92-3.52zm10-.2a1.4 1.4 0 01-1-.34 1.16 1.16 0 01-.37-.91 1.14 1.14 0 01.37-.91 1.35 1.35 0 011-.34 1.38 1.38 0 011 .34 1.17 1.17 0 01.37.91A1.19 1.19 0 0159 97a1.42 1.42 0 01-1 .3zm-1.17 9.44v-8.18h2.34v8.18zm4.64 0v-8.18h1.92l.29 1.22a4.45 4.45 0 011.21-1 2.55 2.55 0 011.21-.3 5 5 0 01.64 0v2.16a4.37 4.37 0 00-1-.1 5 5 0 00-1.94.37v5.78zm8.23-3.52a2 2 0 00.64 1.52 2.78 2.78 0 001.81.48 9.67 9.67 0 002.49-.4v1.55a5.45 5.45 0 01-1.33.45 8.53 8.53 0 01-1.61.16 4.09 4.09 0 01-3.1-1.11 5.4 5.4 0 010-6.41 3.8 3.8 0 012.93-1.14 3.26 3.26 0 012.44.87 3.41 3.41 0 01.86 2.49v.8c0 .3-.07.54-.11.74zm1.74-3.28a1.64 1.64 0 00-1.24.47 2.12 2.12 0 00-.52 1.37h3.14v-.28q.04-1.56-1.34-1.56zm11.07 6.44a3.53 3.53 0 01-1 .4 5.73 5.73 0 01-1.26.13 3.92 3.92 0 01-3-1.09 5.21 5.21 0 01.06-6.3 4 4 0 013-1.14 4.54 4.54 0 012.16.52v1.55a6.24 6.24 0 00-1.72-.27 2.18 2.18 0 00-1.65.56 2.6 2.6 0 00-.53 1.8v.23a2.56 2.56 0 00.52 1.78 2.08 2.08 0 001.61.57 7 7 0 001.82-.29zm6.85.15a5.41 5.41 0 01-1.94.33 2.73 2.73 0 01-2-.64 2.63 2.63 0 01-.65-2v-3.95h-1.19v-1.42l1.29-.26.35-2.24h1.92v2.21h2.21v1.73h-2.21v3.84a.89.89 0 00.26.72 1.37 1.37 0 00.86.21 8.39 8.39 0 001.14-.1zm13.86-.08a8.1 8.1 0 01-2.9.49 5.46 5.46 0 01-4.1-1.44 7.11 7.11 0 01.11-8.5 5.4 5.4 0 014.09-1.52 8 8 0 012.68.45v1.89a11.17 11.17 0 00-2.39-.32 3.24 3.24 0 00-2.49.88 3.84 3.84 0 00-.82 2.62v.37a3.87 3.87 0 00.8 2.67 3.17 3.17 0 002.45.87 12.8 12.8 0 002.61-.37zm5.24.53a3.87 3.87 0 01-3-1.15 5.28 5.28 0 010-6.37 4.45 4.45 0 016 0 5.28 5.28 0 010 6.37 3.89 3.89 0 01-2.96 1.17zm0-1.8c1.12 0 1.68-.84 1.68-2.54s-.56-2.53-1.68-2.53-1.68.85-1.68 2.53.6 2.54 1.72 2.54zm11.12 1.56v-5.36a1.36 1.36 0 00-.28-1 1.15 1.15 0 00-.88-.31 3.21 3.21 0 00-1.75.55v6.08h-2.33v-8.14h1.92l.22.88a4.89 4.89 0 013.07-1.12 2.16 2.16 0 012.37 2.37v6zm9.8 0v-5.36a1.36 1.36 0 00-.29-1 1.14 1.14 0 00-.88-.31 3.21 3.21 0 00-1.75.55v6.08h-2.33v-8.14h1.92l.22.88a4.91 4.91 0 013.07-1.12 2.39 2.39 0 011.76.62 2.36 2.36 0 01.61 1.75v6zm6.28-3.52a2.06 2.06 0 00.64 1.52 2.82 2.82 0 001.81.48 9.68 9.68 0 002.5-.4v1.55a5.54 5.54 0 01-1.34.45 8.45 8.45 0 01-1.61.16 4.08 4.08 0 01-3.09-1.11 5.35 5.35 0 010-6.41 3.79 3.79 0 012.93-1.14 3.28 3.28 0 012.44.87 3.4 3.4 0 01.85 2.49 7.91 7.91 0 010 .8 7.18 7.18 0 01-.12.74zm1.75-3.28a1.62 1.62 0 00-1.24.47 2.07 2.07 0 00-.52 1.37h3.13v-.28c.04-1.04-.41-1.56-1.33-1.56zm11.07 6.44a3.53 3.53 0 01-1 .4 5.86 5.86 0 01-1.26.13 3.91 3.91 0 01-3-1.09 5.21 5.21 0 01.06-6.3 4 4 0 013-1.14 4.54 4.54 0 012.16.52v1.55a6.3 6.3 0 00-1.73-.27 2.17 2.17 0 00-1.64.56 2.55 2.55 0 00-.53 1.8v.23a2.56 2.56 0 00.52 1.78 2.06 2.06 0 001.61.57 7 7 0 001.82-.29zm6.85.15a5.41 5.41 0 01-1.94.33 2.76 2.76 0 01-2-.64 2.66 2.66 0 01-.64-2v-3.95h-1.24v-1.42l1.3-.26.35-2.24h1.92v2.21h2.21v1.73h-2.21v3.84a.89.89 0 00.26.72 1.37 1.37 0 00.86.21 8.52 8.52 0 001.14-.1z" fill="#333"/>
    <path d="M73 19h54v54H73z" fill="url(#a)"/>
    <path d="M110.8 51h-5v-1.4h5c1.7 0 5.8-.5 5.8-5.3q0-4.35-5.1-5.4a.86.86 0 01-.6-.7c-.1-2.8-1.8-3.8-3.1-3.8a3 3 0 00-2.4 1.2.78.78 0 01-1 .2c-.1-.1-.2-.2-.2-.3a7.71 7.71 0 00-2.3-3.6 7.94 7.94 0 00-11.3-.2 8.31 8.31 0 00-2.5 5.6 3.4 3.4 0 00.1 1c.1.4-.2.7-.6.8a5.09 5.09 0 00-4.2 5.2v.3a5.58 5.58 0 005.7 5h3.7V51h-3.7a6.76 6.76 0 01-7-6.3v-.5a6.35 6.35 0 014.7-6.4v-.5a9.5 9.5 0 019.7-9.3 9.34 9.34 0 016.5 2.9 9.73 9.73 0 012.2 3.1 5.24 5.24 0 012.6-1c2 0 4.2 1.4 4.6 4.6 3.7.9 5.7 3.2 5.7 6.7-.1 5-3.8 6.8-7.3 6.7zm-4.1 8.7h-.2v-3.8a2.12 2.12 0 00-2.2-2H94.2a2 2 0 00-2.1 2v3.8h-.2a2.18 2.18 0 00-2 2.2V64h1.5v-2.1c0-.4.3-.8.5-.8h14.8c.2 0 .5.4.5.8V64h1.4v-2.1a2 2 0 00-1.9-2.2zm-13.2-3.8a.59.59 0 01.7-.5h10.1c.4 0 .7.2.7.5v3.8H93.5zM95 41a2.88 2.88 0 00-2.9 2.8 3 3 0 002.1 2.8v6.6h1.5v-6.6a3 3 0 002.1-3.5A2.77 2.77 0 0095 41zm0 4.3a1.54 1.54 0 01-1.5-1.5c-.1-.9.6-1.4 1.5-1.4a1.31 1.31 0 011.4 1.4 1.52 1.52 0 01-1.4 1.5zm4.2-9.4a2.9 2.9 0 00-2.9 2.9 2.77 2.77 0 002.2 2.7v11.6h1.4V41.5a2.88 2.88 0 002-3.5 2.79 2.79 0 00-2.7-2.1zm0 4.3a1.4 1.4 0 111.4-1.4 1.37 1.37 0 01-1.4 1.4zm4.4.8a2.88 2.88 0 00-2.9 2.8 3 3 0 002.2 2.8v6.6h1.4v-6.6a3 3 0 002.1-3.5 2.77 2.77 0 00-2.8-2.1zm0 4.3a1.39 1.39 0 01-1.4-1.5 1.31 1.31 0 011.4-1.4 1.37 1.37 0 011.4 1.4 1.52 1.52 0 01-1.4 1.5z" fill="#fff"/>
</svg>
