<svg xmlns="http://www.w3.org/2000/svg" width="200" height="128">
    <path d="M78.85 90.74l-1-2.95h-4.59l-1 2.95h-1.67l4.1-11.09h1.76l4.09 11.09zm-5.17-4.18h3.73l-1.87-5.44zm18.58 4.18v-5.51a1.83 1.83 0 00-.26-1.18 1.13 1.13 0 00-1-.39 4.49 4.49 0 00-2.35.72 1.94 1.94 0 010 .24v6.12h-1.58v-5.51a1.9 1.9 0 00-.3-1.18 1.13 1.13 0 00-1-.39 4.35 4.35 0 00-2.34.71v6.37h-1.54v-8.12h1.33l.16.82a5.32 5.32 0 013-1.06 2 2 0 012 1.14 5.43 5.43 0 013.17-1.14 2.23 2.23 0 011.7.63 2.49 2.49 0 01.59 1.77v6zm8.68 0l-.12-.84a4.2 4.2 0 01-1.28.77 3.76 3.76 0 01-1.38.27 2.54 2.54 0 01-1.82-.64 2.31 2.31 0 01-.68-1.74 2.28 2.28 0 01.84-1.86 3.34 3.34 0 012.24-.7 8.38 8.38 0 012 .27v-1a1.59 1.59 0 00-.39-1.22 2 2 0 00-1.35-.4 8.71 8.71 0 00-2.81.49V83a5.17 5.17 0 011.41-.47 8.55 8.55 0 011.68-.17 3.29 3.29 0 012.24.64 2.42 2.42 0 01.72 1.92v5.8zm-2.4-1a3.75 3.75 0 002.21-.81V87.3a6.86 6.86 0 00-1.69-.21c-1.21 0-1.81.46-1.81 1.39a1.27 1.27 0 00.33.94 1.37 1.37 0 00.96.32zm5.46 1v-1.22l4.66-5.65h-4.5v-1.25h6.26v1.2l-4.72 5.67h4.76v1.25zm11.52.24a3.63 3.63 0 01-2.85-1.14 5.4 5.4 0 010-6.32 4.13 4.13 0 015.7 0 5.4 5.4 0 010 6.32 3.63 3.63 0 01-2.85 1.16zm0-1.28c1.5 0 2.26-1 2.26-3s-.76-3-2.26-3-2.26 1-2.26 3 .74 3 2.26 3zm11.31 1v-5.39a1.9 1.9 0 00-.34-1.25 1.37 1.37 0 00-1.08-.4 4.45 4.45 0 00-2.48.82v6.26h-1.59v-8.12h1.33l.16.9a5.27 5.27 0 013.2-1.14 2.41 2.41 0 011.78.62 2.46 2.46 0 01.61 1.78v6zm-90 16l-3.98-11.05h2.66l2.59 8.73 2.57-8.73h2.6l-3.94 11.09zm10.19-4v4h-2.38V95.65h4.24a3.85 3.85 0 012.74.94 3.37 3.37 0 011 2.58 3.34 3.34 0 01-1 2.57 3.85 3.85 0 01-2.74 1zm0-1.79h1.63a1.63 1.63 0 001.22-.44 1.78 1.78 0 00.43-1.29 1.75 1.75 0 00-.43-1.29 1.63 1.63 0 00-1.22-.44H47zm15.63 5.55a8.06 8.06 0 01-2.9.49 5.42 5.42 0 01-4.09-1.44 7.13 7.13 0 01.02-8.51 5.42 5.42 0 014.1-1.52 7.88 7.88 0 012.67.45v1.89a11.17 11.17 0 00-2.39-.32 3.23 3.23 0 00-2.48.88 3.79 3.79 0 00-.83 2.68v.37a3.87 3.87 0 00.8 2.67 3.18 3.18 0 002.45.87 12.8 12.8 0 002.61-.37zM70.69 99v7.7h-2.11V95.65h2.56l4.51 7.76v-7.76h2.11v11.09H75.2zM87 106.74l-.79-2.53H82.4l-.75 2.53h-2.51L83 95.65h2.64l3.9 11.09zm-4.07-4.26h2.77l-1.41-4.64zm9.38 4.26v-9.17h-3.4v-1.92h9.15v1.92h-3.37v9.17zm17-1.72a9.22 9.22 0 001.19-.08v-2.7h-2.08v-1.73h4.28v5.55a6.69 6.69 0 01-1.79.63 9.88 9.88 0 01-2.11.22 5.27 5.27 0 01-4-1.45 5.77 5.77 0 01-1.4-4.15 6 6 0 011.46-4.31 5.56 5.56 0 014.2-1.5 7.31 7.31 0 013.24.66V98a10 10 0 00-3-.53 3.45 3.45 0 00-2.61.89 4 4 0 00-.83 2.79v.29a3.91 3.91 0 00.83 2.76 3.45 3.45 0 002.62.8zm10.29 1.72l-.19-.72a3.84 3.84 0 01-1.15.71 3.41 3.41 0 01-1.26.27 2.66 2.66 0 01-1.9-.67 2.36 2.36 0 01-.71-1.79 2.45 2.45 0 01.38-1.35 2.6 2.6 0 011.11-.92 3.86 3.86 0 011.69-.34 7.72 7.72 0 011.7.21v-.8a1.34 1.34 0 00-.3-1 1.75 1.75 0 00-1.12-.27 9.78 9.78 0 00-2.9.49V99a6.19 6.19 0 011.49-.49 9.21 9.21 0 011.82-.18 3.63 3.63 0 012.41.66 2.63 2.63 0 01.76 2.09v5.67zm-1.94-1.32a2.09 2.09 0 00.83-.17 3.21 3.21 0 00.79-.48v-1.39a7.59 7.59 0 00-1.26-.12c-.93 0-1.4.38-1.4 1.12a1 1 0 001 1zm10.85 1.11a5.35 5.35 0 01-1.93.33 2.74 2.74 0 01-2-.64 2.67 2.67 0 01-.65-2v-3.95h-1.23v-1.42l1.29-.26.36-2.24h1.92v2.21h2.2v1.73h-2.2v3.84a.89.89 0 00.25.72 1.39 1.39 0 00.87.21 8.25 8.25 0 001.13-.1zm3.19-3.31a2 2 0 00.64 1.52 2.77 2.77 0 001.8.48 9.68 9.68 0 002.5-.4v1.55a5.39 5.39 0 01-1.34.45 8.35 8.35 0 01-1.6.16 4.09 4.09 0 01-3.1-1.11 5.4 5.4 0 010-6.41 3.8 3.8 0 012.93-1.14 3.26 3.26 0 012.44.87 3.41 3.41 0 01.86 2.49v.8c0 .3-.07.54-.11.74zm1.74-3.28a1.62 1.62 0 00-1.24.47 2.12 2.12 0 00-.52 1.37h3.14v-.28q0-1.56-1.38-1.56zm11.84 6.8l-1.41-5.74-1.42 5.75h-2.26l-2.61-8.18h2.47l1.36 5.9 1.47-5.9H145l1.5 5.92 1.28-5.92h2.4l-2.62 8.18zm10.78 0l-.19-.72a3.91 3.91 0 01-1.14.71 3.42 3.42 0 01-1.26.26 2.62 2.62 0 01-1.89-.67 2.33 2.33 0 01-.72-1.79 2.38 2.38 0 01.39-1.35 2.52 2.52 0 011.1-.92 3.91 3.91 0 011.7-.34 7.71 7.71 0 011.69.21v-.8a1.34 1.34 0 00-.3-1 1.73 1.73 0 00-1.12-.27 9.83 9.83 0 00-2.9.49V99a6.34 6.34 0 011.49-.49 9.31 9.31 0 011.83-.18 3.6 3.6 0 012.4.66 2.63 2.63 0 01.76 2.09v5.67zm-1.93-1.32a2.08 2.08 0 00.82-.17 3.21 3.21 0 00.79-.48v-1.39a7.59 7.59 0 00-1.26-.12c-.93 0-1.39.38-1.39 1.12a.94.94 0 001 1zm7.84 1.44l-3.23-8.3h2.48l1.82 6.11 1.73-6.11h2.41l-3.45 9.28a4.19 4.19 0 01-1.14 1.82 2.52 2.52 0 01-1.69.56 4.85 4.85 0 01-1.56-.25v-1.59a7.92 7.92 0 00.92.05 1.57 1.57 0 001-.31 2.46 2.46 0 00.62-1.08z" fill="#333"/>
    <path d="M100 19a27 27 0 10.1 0zm0 51.66a24.66 24.66 0 11.1 0zM86.66 29a1.3 1.3 0 00-2 1v8.61a1.06 1.06 0 00.74 1.06.66.66 0 00.43.11 1.25 1.25 0 00.74-.32l5.32-4.36a1.36 1.36 0 00.53-.85 1.08 1.08 0 00-.53-1zm.42 7.12v-3.94l2.45 2zm-.42 5.74a1.3 1.3 0 00-2 1v8.61a1.06 1.06 0 00.74 1 .65.65 0 00.43.21 1.19 1.19 0 00.74-.32L91.89 48a1.33 1.33 0 00.53-.85 1.05 1.05 0 00-.53-1zm.42 7.14v-3.85l2.45 2zm34.13-2.77l-5.42-5.42a1.1 1.1 0 00-.85-.32 1.18 1.18 0 00-1.07 1.17v4.25h-9.56V34.2a1.07 1.07 0 00-1-1.16h-9.53v2.34H102v10.51h-8.4v2.34h8.4v10.53h-8.22V61h9.36a1.06 1.06 0 001.16-1V48.23h9.56v4.15a1 1 0 00.64 1.06c.11 0 .32.11.43.11a1.1 1.1 0 00.85-.32l5.42-5.42a1.08 1.08 0 000-1.49zm-5.11 3.51v-5.23l2.66 2.66zm-29.44 3.91a1.62 1.62 0 00-.74-.21 1.17 1.17 0 00-1.17 1.17v8.61a1 1 0 00.74 1.06.6.6 0 00.43.11 1.3 1.3 0 00.74-.21L92 59.82c.11 0 .11-.11.32-.32a1.17 1.17 0 00-.24-1.5l-.11-.1zm.42 7.13v-3.72L89.53 59z" fill="#693cc5"/>
</svg>
