<svg xmlns="http://www.w3.org/2000/svg" width="200" height="128">
    <defs/>
    <path class="cls-1" d="M122.12 55.23H127v9.33h-9.69V72h-16.22v-3.93c-4.86 3-9.68 3.42-14.3.13s-5.92-7.93-4.43-13.28a33.93 33.93 0 01-4.37-2 10.39 10.39 0 01-5-9.76A10.5 10.5 0 0179.12 34a1.9 1.9 0 001.28-1.73 13.7 13.7 0 0123.14-8.31 32.06 32.06 0 013.17 4 8.08 8.08 0 015.22-.69 7.43 7.43 0 015.77 5.62 1.51 1.51 0 001.15 1.22 10.93 10.93 0 014.05 18.37 2.59 2.59 0 00-.78 2.75zM82.17 34.84a9.28 9.28 0 00-7 10.52 9 9 0 008.1 7.31 18.38 18.38 0 00.57-8.47 1.51 1.51 0 01.34-1.26 1.4 1.4 0 011.29 0c1.25.72 2.43 1.56 3.64 2.36l.86.63c0-1.59.09-2.94 0-4.28a5.39 5.39 0 00-1.78-3.84c-.48-.41-1-.82-.67-1.56s1.14-.6 1.74-.39a54.24 54.24 0 015.42 2 12.93 12.93 0 015.83 5.41 18.05 18.05 0 012.4 7.21c1.33-.6 1.45-1.69 1.58-2.84.06-.47.37-1.19.69-1.26a1.72 1.72 0 011.31.65 1.82 1.82 0 001.57.75h14.1v2.71c.28-.32.39-.44.49-.57a9 9 0 00-5.39-14.28c-.93-.22-1.18-.56-1.25-1.45a5.24 5.24 0 00-3.37-4.72 5.46 5.46 0 00-5.84.83c-.33.27-.68.52-1.06.8-2.52-7.77-8.9-9.74-13.52-9-5.04.9-10.11 4.79-10.05 12.74zm4.13 10.58c-.21.36-.27.41-.27.47v.62a24.33 24.33 0 01-1.7 9.1 8.56 8.56 0 00.49 7.32 10 10 0 0015.82 2.78 5 5 0 00.64-1.14h-4.65v-9.4h9v-4c-1.07.56-2.14 1.21-3.27 1.7-.82.35-1.32-.13-1.44-1-.09-.62-.12-1.24-.22-1.86-.62-3.61-2-6.81-5-9.1a12.78 12.78 0 00-4.5-2.29 16.94 16.94 0 01.28 9.23 2.09 2.09 0 01-1 1.36c-.3.11-.94-.48-1.33-.86-.94-.89-1.84-1.87-2.85-2.93zm33.7 4.4h-12.19v5.33H120zm-7.12 7.38v5.34h12.19V57.2zm-14.26 5.31h12.12v-5.3H98.62zm4.38 7.43h12.16v-5.25H103zM91.65 90.74l-1-2.95h-4.59l-1 2.95h-1.67l4.1-11.09h1.76l4.09 11.09zm-5.17-4.18h3.73l-1.87-5.44zm15.84 4.18l-2.1-8.69-2.11 8.69h-1.82l-3.23-11.09h1.77l2.39 9.29 2.12-9h1.8l2.12 9 2.4-9.31h1.72l-3.24 11.09zm8.75-5.27a4.51 4.51 0 01-1.9-1.2 2.63 2.63 0 01-.59-1.77 3 3 0 01.44-1.6 3.09 3.09 0 011.29-1.09 4.52 4.52 0 012-.4 8.39 8.39 0 013 .57v1.3a10 10 0 00-2.85-.5 2.68 2.68 0 00-1.61.43 1.4 1.4 0 00-.56 1.21 1.33 1.33 0 00.38 1 4.07 4.07 0 001.42.76l1.46.55a4.31 4.31 0 011.86 1.16 2.61 2.61 0 01.57 1.75 3 3 0 01-1.1 2.45 4.5 4.5 0 01-2.95.91 7.29 7.29 0 01-3.2-.66v-1.27a9.87 9.87 0 003.17.56 2.85 2.85 0 001.78-.49 1.59 1.59 0 00.65-1.35 1.36 1.36 0 00-.37-1 3.73 3.73 0 00-1.28-.75zM38.56 99v7.7h-2.11V95.65H39l4.51 7.76v-7.76h2.11v11.09h-2.55zm11.22 4.18a2 2 0 00.64 1.52 2.78 2.78 0 001.81.48 9.67 9.67 0 002.49-.4v1.55a5.45 5.45 0 01-1.33.45 8.53 8.53 0 01-1.61.16 4.09 4.09 0 01-3.1-1.11 5.4 5.4 0 010-6.41 3.8 3.8 0 012.93-1.14 3.26 3.26 0 012.44.87 3.41 3.41 0 01.86 2.49v.8c0 .3-.07.54-.11.74zm1.74-3.28a1.64 1.64 0 00-1.24.47 2.12 2.12 0 00-.52 1.37h3.14v-.28q0-1.52-1.38-1.52zm10 6.59a5.35 5.35 0 01-1.93.33 2.74 2.74 0 01-2-.64 2.67 2.67 0 01-.65-2v-3.95h-1.21v-1.38l1.27-.26.36-2.24h1.94v2.21h2.2v1.73h-2.2v3.84a.89.89 0 00.25.72 1.39 1.39 0 00.87.21 8.25 8.25 0 001.13-.1zm8.6.21l-1.38-5.7-1.43 5.75h-2.25l-2.61-8.18h2.46l1.36 5.9 1.48-5.9h2.09l1.51 5.92 1.27-5.92H75l-2.62 8.18zm9.56.24a3.87 3.87 0 01-3-1.15 5.28 5.28 0 010-6.37 4.45 4.45 0 016 0 5.28 5.28 0 010 6.37 3.91 3.91 0 01-2.97 1.21zm0-1.8c1.12 0 1.68-.84 1.68-2.54s-.56-2.53-1.68-2.53S78 101 78 102.64s.59 2.54 1.71 2.54zm5.87 1.56v-8.14h1.95l.29 1.22a4.45 4.45 0 011.21-1 2.55 2.55 0 011.21-.3 5 5 0 01.64 0v2.16a4.37 4.37 0 00-1-.1 5 5 0 00-1.94.37v5.78zm6.48 0V94.9h2.32v7.15l2.84-3.49H100l-3.38 3.9 3.64 4.28h-2.85l-3-3.73v3.73zm13.67 0V95.65h7v1.85h-4.57v2.79h3.65v1.85h-3.65v4.6zm9.71-9.44a1.42 1.42 0 01-1-.34 1.18 1.18 0 01-.36-.91 1.17 1.17 0 01.36-.91 1.58 1.58 0 012 0 1.17 1.17 0 01.36.91 1.18 1.18 0 01-.36.91 1.42 1.42 0 01-.97.38zm-1.17 9.44v-8.14h2.34v8.18zm4.64 0v-8.14h1.92l.29 1.22a4.45 4.45 0 011.21-1 2.55 2.55 0 011.21-.3 5 5 0 01.64 0v2.16a4.4 4.4 0 00-1-.1 5 5 0 00-1.93.37v5.78zm8.23-3.52a2 2 0 00.64 1.52 2.77 2.77 0 001.8.48 9.68 9.68 0 002.5-.4v1.55a5.39 5.39 0 01-1.34.45 8.35 8.35 0 01-1.6.16 4.09 4.09 0 01-3.1-1.11 5.4 5.4 0 010-6.41 3.8 3.8 0 012.99-1.1 3.26 3.26 0 012.44.87 3.41 3.41 0 01.86 2.49v.8c0 .3-.07.54-.11.74zm1.74-3.28a1.62 1.62 0 00-1.24.47 2.12 2.12 0 00-.52 1.37h3.14v-.28q.03-1.52-1.35-1.52zm11.84 6.8l-1.38-5.7-1.42 5.75h-2.26L133 98.56h2.47l1.36 5.9 1.47-5.9h2.1l1.5 5.92 1.28-5.92h2.4l-2.58 8.18zm10.78 0l-.19-.72a3.91 3.91 0 01-1.14.71 3.42 3.42 0 01-1.26.26 2.62 2.62 0 01-1.89-.67 2.33 2.33 0 01-.72-1.79 2.38 2.38 0 01.39-1.35 2.52 2.52 0 011.1-.92 3.91 3.91 0 011.7-.34 7.71 7.71 0 011.69.21v-.8a1.34 1.34 0 00-.3-1 1.73 1.73 0 00-1.12-.27 9.83 9.83 0 00-2.9.49V99a6.34 6.34 0 011.49-.49 9.31 9.31 0 011.83-.18 3.6 3.6 0 012.4.66 2.63 2.63 0 01.76 2.09v5.67zm-1.93-1.32a2.08 2.08 0 00.82-.17 3.21 3.21 0 00.79-.48v-1.39a7.59 7.59 0 00-1.26-.12c-.93 0-1.39.38-1.39 1.12a.94.94 0 001 1zm9.58 1.16a3.84 3.84 0 01-1.44.27c-1.44 0-2.16-.81-2.16-2.42V94.9h2.34v9.34a1 1 0 00.15.63.59.59 0 00.5.19 5.66 5.66 0 00.61 0zm5.2 0a3.84 3.84 0 01-1.44.27c-1.44 0-2.16-.81-2.16-2.42V94.9h2.34v9.34a1 1 0 00.15.63.59.59 0 00.5.19 5.66 5.66 0 00.61 0z"/>
</svg>
