<svg xmlns="http://www.w3.org/2000/svg" width="200" height="128">
    <defs>
        <linearGradient id="a" x1="262.09" y1="106.53" x2="262.09" y2=".46" gradientTransform="rotate(45 143.997 -165.004)" gradientUnits="userSpaceOnUse">
            <stop offset="0" stop-color="#c8511b"/>
            <stop offset="1" stop-color="#f90"/>
        </linearGradient>
    </defs>
    <path d="M93 90.74l-.86-2.49h-3.9l-.83 2.49H86l3.45-9.36h1.49l3.45 9.36zm-4.36-3.53h3.15l-1.58-4.59zM102 90.74l-1.77-7.33-1.78 7.33h-1.58l-2.73-9.36h1.5l2 7.84 1.8-7.57H101l1.79 7.59 2-7.86h1.44l-2.72 9.36zm7.38-4.45a3.65 3.65 0 01-1.6-1 2.19 2.19 0 01-.5-1.5 2.43 2.43 0 01.37-1.34 2.6 2.6 0 011.09-.92 3.77 3.77 0 011.67-.34 7.14 7.14 0 012.5.48v1.1a8.31 8.31 0 00-2.41-.42 2.21 2.21 0 00-1.35.36 1.2 1.2 0 00-.48 1 1.11 1.11 0 00.32.85 3.39 3.39 0 001.2.64l1.23.46a3.69 3.69 0 011.57 1 2.25 2.25 0 01.48 1.48 2.57 2.57 0 01-.92 2.07A3.8 3.8 0 01110 91a6.11 6.11 0 01-2.7-.56v-1.11a8.27 8.27 0 002.67.47 2.44 2.44 0 001.51-.41 1.37 1.37 0 00.54-1.14 1.16 1.16 0 00-.31-.83 3.15 3.15 0 00-1.08-.63zm-87.6 17.95v-9.36h6.15v1.57H23.8v2.21h3.36v1.57H23.8v2.44h4.13v1.57zm10.7-.14a3.26 3.26 0 01-1.21.23q-1.83 0-1.83-2v-8h2v7.88a.87.87 0 00.13.53.52.52 0 00.43.16 3.75 3.75 0 00.51 0zm2.69-2.83a1.69 1.69 0 00.54 1.29 2.41 2.41 0 001.52.39 8.07 8.07 0 002.11-.33v1.31a4.54 4.54 0 01-1.13.37 6.75 6.75 0 01-1.36.14 3.47 3.47 0 01-2.61-.93 4.57 4.57 0 010-5.42 3.22 3.22 0 012.47-1 2.77 2.77 0 012.06.73 2.88 2.88 0 01.72 2.1v.68a5.77 5.77 0 01-.1.62zm1.47-2.77a1.39 1.39 0 00-1 .4 1.83 1.83 0 00-.44 1.15h2.6v-.23c0-.88-.39-1.32-1.16-1.32zm12.91 5.74v-4.67c0-.62-.28-.92-.83-.92a3.36 3.36 0 00-1.47.35v5.24h-2v-4.67c0-.62-.28-.92-.82-.92A3.33 3.33 0 0043 99v5.23h-2v-6.9h1.62l.18.66a5.48 5.48 0 011.28-.67 3.71 3.71 0 011.19-.19A1.8 1.8 0 0147 98a5.14 5.14 0 011.3-.66 3.76 3.76 0 011.25-.2 2 2 0 011.47.52 2 2 0 01.52 1.47v5.11zm5.3-3a1.76 1.76 0 00.54 1.29 2.42 2.42 0 001.53.39 8.07 8.07 0 002.1-.33v1.31a4.46 4.46 0 01-1.12.37 6.75 6.75 0 01-1.36.14 3.45 3.45 0 01-2.61-.93 3.78 3.78 0 01-.9-2.73 3.83 3.83 0 01.89-2.69 3.23 3.23 0 012.47-1 2.76 2.76 0 012.06.73 2.88 2.88 0 01.72 2.1 5.83 5.83 0 010 .68c0 .25-.06.45-.09.62zm1.47-2.77a1.35 1.35 0 00-1 .4 1.73 1.73 0 00-.44 1.15h2.64v-.23c-.04-.85-.42-1.29-1.2-1.29zm8.79 5.74v-4.5a1.17 1.17 0 00-.24-.81 1 1 0 00-.75-.25 2.72 2.72 0 00-1.47.46v5.13h-2v-6.9h1.65l.19.74a4.15 4.15 0 012.59-.94 2 2 0 011.48.52 2 2 0 01.52 1.47v5.11zm7.94-.18a4.48 4.48 0 01-1.64.28 2.32 2.32 0 01-1.69-.54 2.27 2.27 0 01-.55-1.67v-3.3h-1v-1.22l1.1-.21.29-1.9h1.62v1.87H73v1.46h-1.86v3.2a.74.74 0 00.22.6 1.15 1.15 0 00.73.18 7.14 7.14 0 001-.08zm5.17.18l-.16-.61a3.3 3.3 0 01-1 .6 2.76 2.76 0 01-1.06.22 2.28 2.28 0 01-1.6-.56 2 2 0 01-.6-1.52 2.08 2.08 0 01.32-1.14 2.19 2.19 0 01.94-.77 3.32 3.32 0 011.43-.29 6.42 6.42 0 011.43.18v-.68a1.14 1.14 0 00-.26-.85 1.44 1.44 0 00-.94-.23 8.24 8.24 0 00-2.42.44v-1.3a4.9 4.9 0 011.26-.41 7.88 7.88 0 011.54-.15 3 3 0 012 .56 2.2 2.2 0 01.64 1.76v4.78zm-1.64-1.11a1.8 1.8 0 00.7-.15 2.7 2.7 0 00.67-.4v-1.15a7.22 7.22 0 00-1.07-.09c-.78 0-1.17.31-1.17.94a.85.85 0 00.23.65.88.88 0 00.64.23zm8.09 1a3.26 3.26 0 01-1.21.23q-1.83 0-1.83-2v-8h2v7.88a.87.87 0 00.13.53.52.52 0 00.43.16 3.75 3.75 0 00.51 0zm12.75.14v-6.48L95.35 102h-1.81l-2.06-4.2v6.48h-1.79v-9.4h2.22l2.55 5.32L97 94.88h2.2v9.36zm5.27-3a1.76 1.76 0 00.54 1.29 2.46 2.46 0 001.53.39 8.2 8.2 0 002.11-.33v1.31a4.68 4.68 0 01-1.13.37 6.75 6.75 0 01-1.36.14 3.47 3.47 0 01-2.61-.93 3.78 3.78 0 01-.9-2.73 3.83 3.83 0 01.89-2.69 3.25 3.25 0 012.47-1 2.76 2.76 0 012.06.73A2.88 2.88 0 01107 100a5.83 5.83 0 010 .68 6.07 6.07 0 01-.09.62zm1.48-2.77a1.37 1.37 0 00-1 .4 1.78 1.78 0 00-.44 1.15h2.65v-.23c-.05-.85-.44-1.29-1.21-1.29zm9 5.74l-.16-.61a2.88 2.88 0 01-2 .75 2.69 2.69 0 01-1.5-.42 2.79 2.79 0 01-1-1.24 4.63 4.63 0 01-.36-1.9 4.21 4.21 0 01.8-2.68 2.55 2.55 0 012.11-1 3 3 0 011.85.6v-3.46h2v10zm-1.5-1.34a2.31 2.31 0 001.25-.38V99a2.59 2.59 0 00-1.34-.34 1.21 1.21 0 00-1.07.53 3 3 0 00-.35 1.62 2.84 2.84 0 00.37 1.6 1.31 1.31 0 001.15.49zm6.15-6.63A1.19 1.19 0 01117 96a1 1 0 01-.31-.77 1 1 0 01.31-.77 1.19 1.19 0 01.83-.28 1.17 1.17 0 01.82.28 1 1 0 01.31.77 1 1 0 01-.31.77 1.17 1.17 0 01-.82.27zm-1 8v-6.9h2v6.9zm7.87 0l-.16-.61a3.3 3.3 0 01-1 .6 2.72 2.72 0 01-1.06.22 2.25 2.25 0 01-1.59-.56 2 2 0 01-.61-1.52 2 2 0 01.33-1.14 2.11 2.11 0 01.93-.77 3.32 3.32 0 011.43-.29 6.42 6.42 0 011.43.18v-.68a1.14 1.14 0 00-.25-.85 1.5 1.5 0 00-1-.23 8.18 8.18 0 00-2.44.42V97.7a4.82 4.82 0 011.25-.41 8 8 0 011.54-.15 3 3 0 012 .56 2.2 2.2 0 01.64 1.76v4.78zm-1.63-1.11a1.75 1.75 0 00.69-.15 2.7 2.7 0 00.67-.4v-1.18a7.1 7.1 0 00-1.06-.09c-.79 0-1.18.31-1.18.94a.8.8 0 00.88.88zm12 .86a6.81 6.81 0 01-2.45.42 4.58 4.58 0 01-3.45-1.22 4.94 4.94 0 01-1.16-3.58 5 5 0 011.22-3.61 4.54 4.54 0 013.46-1.28 6.72 6.72 0 012.25.37v1.6a9.79 9.79 0 00-2-.27 2.71 2.71 0 00-2.1.74 3.23 3.23 0 00-.7 2.27v.31a3.21 3.21 0 00.68 2.24 2.64 2.64 0 002.07.74 10.89 10.89 0 002.2-.31zm4.42.45a3.26 3.26 0 01-2.51-1 4.46 4.46 0 010-5.37 3.77 3.77 0 015 0 4.46 4.46 0 010 5.37 3.27 3.27 0 01-2.48 1zm0-1.51c.95 0 1.42-.72 1.42-2.15s-.47-2.13-1.42-2.13-1.41.71-1.41 2.13.48 2.15 1.42 2.15zm9.39 1.31v-4.53a1.12 1.12 0 00-.25-.81 1 1 0 00-.74-.25 2.72 2.72 0 00-1.47.46v5.13h-2v-6.9h1.62l.19.74a4.13 4.13 0 012.59-.94 1.81 1.81 0 012 2v5.11zm8.26 0v-4.53a1.17 1.17 0 00-.24-.81 1 1 0 00-.75-.25 2.72 2.72 0 00-1.47.46v5.13h-2v-6.9h1.62l.19.74a4.13 4.13 0 012.59-.94 2 2 0 011.48.52 2 2 0 01.52 1.47v5.11zm5.3-3a1.76 1.76 0 00.54 1.29 2.46 2.46 0 001.53.39 8.2 8.2 0 002.11-.33v1.31a4.68 4.68 0 01-1.13.37 6.75 6.75 0 01-1.36.14 3.47 3.47 0 01-2.61-.93 3.78 3.78 0 01-.9-2.73 3.83 3.83 0 01.89-2.69 3.25 3.25 0 012.47-1 2.76 2.76 0 012.06.73 2.88 2.88 0 01.72 2.1 5.83 5.83 0 010 .68 4.15 4.15 0 01-.09.62zm1.48-2.77a1.37 1.37 0 00-1 .4 1.78 1.78 0 00-.44 1.15h2.65v-.23c-.04-.85-.43-1.29-1.2-1.29zm9.34 5.44a3.36 3.36 0 01-.88.33 4.68 4.68 0 01-1.07.11 3.3 3.3 0 01-2.51-.91 4.42 4.42 0 010-5.32 3.38 3.38 0 012.55-1 3.92 3.92 0 011.83.43v1.31a5.44 5.44 0 00-1.46-.23 1.82 1.82 0 00-1.39.48 2.17 2.17 0 00-.45 1.52v.19a2.18 2.18 0 00.44 1.5 1.76 1.76 0 001.36.48 6 6 0 001.54-.24zm5.78.12a4.52 4.52 0 01-1.64.28 2.32 2.32 0 01-1.69-.54 2.23 2.23 0 01-.55-1.67v-3.3h-1v-1.22l1.09-.21.3-1.9h1.62v1.87H179v1.46h-1.86v3.2a.71.71 0 00.22.6 1.13 1.13 0 00.73.18 7.14 7.14 0 001-.08z" fill="#333"/>
    <path d="M73 19h54v54H73z" fill="url(#a)"/>
    <path d="M89.6 36.2l2.8 1.6a.69.69 0 001-.3c.1-.1.1-.2.1-.4v-3.2l6.5-3.7 6.5 3.7v3.2a.91.91 0 00.3.7 1.1 1.1 0 00.8 0l2.8-1.6 3.6 2.1.8-1.2-4.1-2.3a.85.85 0 00-.7 0l-2.1 1.2v-2.4a.6.6 0 00-.3-.6l-7.2-4.2a1.1 1.1 0 00-.8 0L92.4 33c-.2.1-.4.4-.3.6V36L90 34.8a.85.85 0 00-.7 0l-4.1 2.3.8 1.2 3.6-2.1zm7.7 19.4l-.7 1.3 3 1.7c.1.1.2.1.4.1s.2-.1.4-.1l3-1.7-.7-1.3-2 1.1v-9.5l2 1.1.7-1.2-3-1.7a1.1 1.1 0 00-.8 0l-3 1.7.7 1.2 2-1.1v9.5zm-12.1-9l4.1 2.4a.85.85 0 00.7 0l4-2.4a.82.82 0 00.4-.6v-4.2l1.5-.9 3.7 2.1a.85.85 0 00.7 0l3.7-2.2 1.5.9v4.2a.75.75 0 00.4.7l4 2.3c.1.1.2.1.4.1a.6.6 0 00.4-.1l4-2.3a.61.61 0 00.3-.7v-4.6a.6.6 0 00-.3-.6l-4-2.3a1.1 1.1 0 00-.8 0l-3.6 2.1-1.6-.8v-4.3a.55.55 0 00-.4-.6l-3.9-2.4a1.1 1.1 0 00-.8 0l-4 2.3a.82.82 0 00-.4.6v4.3l-1.5.9-3.7-2.2a.85.85 0 00-.7 0l-4.1 2.4c-.2.1-.4.4-.3.6V46a.6.6 0 00.3.6zm21.9-4.8l3.3-2 3.3 2v3.8l-3.3 1.9-3.3-1.9zm-10.4-6l3.3-2 3.3 2v3.8l-3.3 1.9-3.3-1.9zm-10.4 6l3.3-2 3.3 2v3.8l-3.3 1.9-3.3-1.9zm28.5 11.9l-8.1-4.7-.7 1.2 7 4.1-13 7.5-13-7.5 7-4.1-.7-1.2-8.1 4.7c-.4.2-.4.6-.2 1 .1.1.1.2.2.3l14.4 8.3c.1.1.2.1.4.1a.6.6 0 00.4-.1l14.4-8.3c.4-.2.4-.6.2-1-.1-.1-.1-.2-.2-.3z" fill="#fff"/>
</svg>
