<svg xmlns="http://www.w3.org/2000/svg" width="200" height="128">
    <defs>
        <linearGradient id="a" x1="19.97" y1="-455.03" x2="126.03" y2="-348.97" gradientTransform="matrix(1 0 0 -1 0 -329)" gradientUnits="userSpaceOnUse">
            <stop offset="0" stop-color="#b0084d"/>
            <stop offset="1" stop-color="#ff4f8b"/>
        </linearGradient>
    </defs>
    <path d="M91.65 90.74l-1-2.95h-4.59l-1 2.95h-1.67l4.1-11.09h1.76l4.09 11.09zm-5.17-4.18h3.73l-1.87-5.44zm15.84 4.18l-2.1-8.69-2.11 8.69h-1.82l-3.23-11.09h1.77l2.39 9.29 2.12-9h1.8l2.12 9 2.4-9.31h1.72l-3.24 11.09zm8.75-5.27a4.51 4.51 0 01-1.9-1.2 2.63 2.63 0 01-.59-1.77 3 3 0 01.44-1.6 3.09 3.09 0 011.29-1.09 4.52 4.52 0 012-.4 8.39 8.39 0 013 .57v1.3a10 10 0 00-2.85-.5 2.68 2.68 0 00-1.61.43 1.4 1.4 0 00-.56 1.21 1.33 1.33 0 00.38 1 4.07 4.07 0 001.42.76l1.46.55a4.31 4.31 0 011.86 1.16 2.61 2.61 0 01.57 1.75 3 3 0 01-1.1 2.45 4.5 4.5 0 01-2.95.91 7.29 7.29 0 01-3.2-.66v-1.27a9.87 9.87 0 003.17.56 2.85 2.85 0 001.78-.49 1.59 1.59 0 00.65-1.35 1.36 1.36 0 00-.37-1 3.73 3.73 0 00-1.28-.75zm-63.48 16.42a4.6 4.6 0 01-2-1.29 3.2 3.2 0 01.41-4.33 4.61 4.61 0 013-.89 8.6 8.6 0 013.07.57v1.83a9.85 9.85 0 00-2.88-.48c-1.26 0-1.89.4-1.89 1.21a.94.94 0 00.33.74 4.34 4.34 0 001.22.61l1.19.43a5.13 5.13 0 012.12 1.27 2.81 2.81 0 01.63 1.9 3.2 3.2 0 01-1.18 2.6 5.09 5.09 0 01-3.25 1 9.78 9.78 0 01-1.79-.17 6.38 6.38 0 01-1.54-.46v-1.82a11.94 11.94 0 001.71.38 10.29 10.29 0 001.65.15 2.62 2.62 0 001.46-.35 1.11 1.11 0 00.51-1 1 1 0 00-.31-.78 3.93 3.93 0 00-1.26-.64zm11.91 4.64a5.41 5.41 0 01-1.94.33 2.76 2.76 0 01-2-.64 2.66 2.66 0 01-.64-2v-3.95h-1.25v-1.42l1.3-.26.35-2.24h1.92v2.21h2.21v1.73h-2.21v3.84a.89.89 0 00.26.72 1.37 1.37 0 00.86.21 8.52 8.52 0 001.14-.1zm3.18-3.31a2 2 0 00.64 1.52 2.82 2.82 0 001.81.48 9.61 9.61 0 002.49-.4v1.55a5.31 5.31 0 01-1.33.45 8.45 8.45 0 01-1.61.16 4.11 4.11 0 01-3.1-1.11 5.38 5.38 0 010-6.41 3.78 3.78 0 012.92-1.14 3.26 3.26 0 012.44.87 3.37 3.37 0 01.86 2.49v.8c0 .3-.07.54-.11.74zm1.74-3.28a1.6 1.6 0 00-1.23.47 2.07 2.07 0 00-.52 1.37h3.13v-.28q0-1.56-1.38-1.56zM69.59 110V98.56h1.92l.2.77a3.35 3.35 0 011.16-.74 3.69 3.69 0 011.38-.27 3 3 0 012.46 1.14 4.8 4.8 0 01.9 3.07 5.71 5.71 0 01-.42 2.25 3.39 3.39 0 01-1.2 1.56 3 3 0 01-1.8.57 3.69 3.69 0 01-1.25-.21 2.92 2.92 0 01-1-.57V110zm3.91-10a3 3 0 00-1.57.43v4.21a2.92 2.92 0 001.57.43 1.51 1.51 0 001.32-.61 3.41 3.41 0 00.42-1.92 3.55 3.55 0 00-.41-1.93 1.5 1.5 0 00-1.33-.53zm10.28 6.66V95.65h7v1.85h-4.6v2.79h3.65v1.85h-3.65v4.6zm13.92 0l-.22-.87a4.78 4.78 0 01-3 1.11 2.21 2.21 0 01-1.69-.65 2.49 2.49 0 01-.61-1.79v-6h2.34v5.33c0 .86.37 1.29 1.12 1.29a3 3 0 001.63-.51v-6.01h2.33v8.18zm9.41 0v-5.36a1.31 1.31 0 00-.29-1 1.12 1.12 0 00-.88-.31 3.21 3.21 0 00-1.74.55v6.08h-2.34v-8.06h1.92l.23.88a4.89 4.89 0 013.07-1.12 2.16 2.16 0 012.37 2.37v6zm10.45-.36a3.53 3.53 0 01-1 .4 5.79 5.79 0 01-1.26.13 3.92 3.92 0 01-3-1.09 5.21 5.21 0 01.06-6.3 4 4 0 013-1.14 4.54 4.54 0 012.16.52v1.55a6.3 6.3 0 00-1.73-.27 2.17 2.17 0 00-1.64.56 2.55 2.55 0 00-.53 1.8v.23a2.56 2.56 0 00.52 1.78 2.08 2.08 0 001.61.57 7 7 0 001.82-.29zm6.85.15a5.41 5.41 0 01-1.94.33 2.77 2.77 0 01-2-.64 2.66 2.66 0 01-.64-2v-3.95h-1.24v-1.34l1.3-.26.35-2.24h1.92v2.21h2.21v1.73h-2.21v3.84a.89.89 0 00.26.72 1.37 1.37 0 00.86.21 8.52 8.52 0 001.14-.1zm2.67-9.23a1.42 1.42 0 01-1-.34 1.18 1.18 0 01-.36-.91 1.17 1.17 0 01.36-.91 1.58 1.58 0 012 0 1.17 1.17 0 01.36.91 1.18 1.18 0 01-.36.91 1.42 1.42 0 01-1 .42zm-1.17 9.44v-8.1h2.34v8.18zm8.27.24a3.87 3.87 0 01-3-1.15 5.28 5.28 0 010-6.37 4.45 4.45 0 015.95 0 5.28 5.28 0 010 6.37 3.89 3.89 0 01-2.95 1.25zm0-1.8c1.12 0 1.68-.84 1.68-2.54s-.56-2.53-1.68-2.53-1.68.85-1.68 2.53.56 2.62 1.68 2.62zm11.12 1.56v-5.36a1.36 1.36 0 00-.28-1 1.15 1.15 0 00-.88-.31 3.21 3.21 0 00-1.75.55v6.08h-2.33v-8.06H142l.22.88a4.89 4.89 0 013.07-1.12 2.16 2.16 0 012.37 2.37v6zm8-2.26a.68.68 0 00-.18-.5 2.63 2.63 0 00-.75-.38l-1.25-.5a3.12 3.12 0 01-1.4-.94 2.25 2.25 0 01-.44-1.42 2.1 2.1 0 01.88-1.76 3.74 3.74 0 012.32-.66 5.81 5.81 0 012.48.53v1.55a8 8 0 00-2.27-.37 2.25 2.25 0 00-1 .16.54.54 0 00-.3.51.56.56 0 00.18.44 2.61 2.61 0 00.78.41l1.21.5A3.33 3.33 0 01155 103a2.13 2.13 0 01.42 1.37 2.33 2.33 0 01-.9 1.91 3.64 3.64 0 01-2.38.73 6.33 6.33 0 01-2.91-.65v-1.56a9.5 9.5 0 002.9.5c.81-.02 1.19-.3 1.19-.82z" fill="#333"/>
    <path d="M73 19h54v54H73z" fill="url(#a)"/>
    <path d="M111.5 41.7v-4.3a.85.85 0 00-.7-.8h-10.1v-1.5a3.57 3.57 0 10-4.2-2.8 3.65 3.65 0 002.8 2.8v1.5H89.2a.71.71 0 00-.7.8v2.8h-5.8a.71.71 0 00-.7.8v3.6a.68.68 0 00.7.7h5.8v1.4h-5.8a.68.68 0 00-.7.7V51a.85.85 0 00.7.8h5.8v2.8a.85.85 0 00.7.8h10.1v1.5a3.57 3.57 0 104.2 2.8 3.65 3.65 0 00-2.8-2.8v-1.5h10.1a.71.71 0 00.7-.8V51h-1.4v2.9H89.9v-2.1h5.8a.71.71 0 00.7-.8v-3.6a.68.68 0 00-.7-.7h-5.8v-1.4h5.8a.68.68 0 00.7-.7V41a.85.85 0 00-.7-.8h-5.8v-2.1h20.2v3.6zm-9.3 18.7a2.16 2.16 0 01-2.2 2.2 2.2 2.2 0 112.2-2.2zM95 48.2v2.1H83.4v-2.1zm0-6.5v2.1H83.4v-2.1zm2.8-10.1a2.16 2.16 0 012.2-2.2 2.2 2.2 0 11-2.2 2.2zm19.5 11.5h-14.4a.68.68 0 00-.7.7v5.1a.68.68 0 00.7.7h14.4a.68.68 0 00.7-.7v-5.1a.68.68 0 00-.7-.7zm-.7 5.1h-13v-3.6h13z" fill="#fff"/>
</svg>
