<svg xmlns="http://www.w3.org/2000/svg" width="200" height="128">
	<defs>
		<linearGradient id="a" x1="-213.15" y1="-359.5" x2="-213.15" y2="-209.5" gradientTransform="rotate(-135 3.974 -165.034)" gradientUnits="userSpaceOnUse">
			<stop offset="0" stop-color="#c8511b"/>
			<stop offset="1" stop-color="#f90"/>
		</linearGradient>
	</defs>
	<path d="m91.65 90.74-1-2.95h-4.59l-1 2.95h-1.67l4.1-11.09h1.76l4.09 11.09zm-5.17-4.18h3.73l-1.87-5.44zm15.84 4.18-2.1-8.69-2.11 8.69h-1.82l-3.23-11.09h1.77l2.39 9.29 2.12-9h1.8l2.12 9 2.4-9.31h1.72l-3.24 11.09zm8.75-5.27a4.51 4.51 0 0 1-1.9-1.2 2.63 2.63 0 0 1-.59-1.77 3 3 0 0 1 .44-1.6 3.09 3.09 0 0 1 1.29-1.09 4.52 4.52 0 0 1 2-.4 8.39 8.39 0 0 1 3 .57v1.3a10 10 0 0 0-2.85-.5 2.68 2.68 0 0 0-1.61.43 1.4 1.4 0 0 0-.56 1.21 1.33 1.33 0 0 0 .38 1 4.07 4.07 0 0 0 1.42.76l1.46.55a4.31 4.31 0 0 1 1.86 1.16 2.61 2.61 0 0 1 .57 1.75 3 3 0 0 1-1.1 2.45 4.5 4.5 0 0 1-2.95.91 7.29 7.29 0 0 1-3.2-.66v-1.27a9.87 9.87 0 0 0 3.17.56 2.85 2.85 0 0 0 1.78-.49 1.59 1.59 0 0 0 .65-1.35 1.36 1.36 0 0 0-.37-1 3.73 3.73 0 0 0-1.28-.75zm-40 21.27V95.65h2.4v9.17h4.86v1.92zm13.22 0-.2-.72a3.91 3.91 0 0 1-1.14.71 3.42 3.42 0 0 1-1.26.26 2.62 2.62 0 0 1-1.89-.67 2.33 2.33 0 0 1-.72-1.79 2.38 2.38 0 0 1 .39-1.35 2.57 2.57 0 0 1 1.1-.92 3.91 3.91 0 0 1 1.7-.34 7.64 7.64 0 0 1 1.69.21v-.8a1.34 1.34 0 0 0-.3-1 1.73 1.73 0 0 0-1.12-.27 9.83 9.83 0 0 0-2.9.49V99a6.5 6.5 0 0 1 1.49-.49 9.31 9.31 0 0 1 1.83-.18 3.63 3.63 0 0 1 2.41.66 2.67 2.67 0 0 1 .75 2.09v5.67zm-1.94-1.32a2 2 0 0 0 .82-.17 3 3 0 0 0 .79-.48v-1.39a7.5 7.5 0 0 0-1.26-.12c-.93 0-1.39.38-1.39 1.12a.94.94 0 0 0 1 1zm16.11 1.32v-5.54c0-.73-.32-1.09-1-1.09a4 4 0 0 0-1.74.42v6.21h-2.34v-5.54c0-.73-.32-1.09-1-1.09a4 4 0 0 0-1.76.43v6.2h-2.31v-8.18h1.92l.21.78a7.48 7.48 0 0 1 1.56-.79 4.42 4.42 0 0 1 1.4-.23 2.15 2.15 0 0 1 2 1 6.57 6.57 0 0 1 1.54-.78 4.64 4.64 0 0 1 1.48-.24 2.36 2.36 0 0 1 1.74.62 2.4 2.4 0 0 1 .62 1.75v6zm4.54 0V94.9h2.34v4.28a3.75 3.75 0 0 1 1.09-.63 3.61 3.61 0 0 1 1.23-.23 3 3 0 0 1 2.46 1.14 4.8 4.8 0 0 1 .9 3.07 5.71 5.71 0 0 1-.42 2.25 3.39 3.39 0 0 1-1.2 1.56 3 3 0 0 1-1.8.57 3.72 3.72 0 0 1-1.38-.25 2.89 2.89 0 0 1-1.07-.72l-.21.8zm3.91-6.66a3 3 0 0 0-1.57.43v4.21a2.92 2.92 0 0 0 1.57.43 1.48 1.48 0 0 0 1.32-.61 3.41 3.41 0 0 0 .42-1.92 3.55 3.55 0 0 0-.41-1.93 1.49 1.49 0 0 0-1.35-.61zm11.45 6.66-.19-.72a3.41 3.41 0 0 1-2.35.89 3.25 3.25 0 0 1-1.78-.5 3.38 3.38 0 0 1-1.19-1.47 5.58 5.58 0 0 1-.42-2.25 5 5 0 0 1 .94-3.18 3 3 0 0 1 2.5-1.19A3.47 3.47 0 0 1 118 99v-4.1h2.34v11.84zm-1.77-1.59a2.69 2.69 0 0 0 1.47-.45v-4.22a3.07 3.07 0 0 0-1.58-.4 1.42 1.42 0 0 0-1.27.63 3.59 3.59 0 0 0-.41 1.91 3.29 3.29 0 0 0 .44 1.91 1.54 1.54 0 0 0 1.33.62zm10.73 1.59-.19-.72a3.91 3.91 0 0 1-1.14.71 3.42 3.42 0 0 1-1.26.26 2.62 2.62 0 0 1-1.89-.67 2.33 2.33 0 0 1-.72-1.79 2.38 2.38 0 0 1 .39-1.35 2.52 2.52 0 0 1 1.1-.92 3.91 3.91 0 0 1 1.7-.34 7.64 7.64 0 0 1 1.69.21v-.8a1.34 1.34 0 0 0-.3-1 1.73 1.73 0 0 0-1.12-.27 9.83 9.83 0 0 0-2.9.49V99a6.5 6.5 0 0 1 1.49-.49 9.31 9.31 0 0 1 1.83-.18 3.59 3.59 0 0 1 2.4.66 2.63 2.63 0 0 1 .76 2.09v5.67zm-1.93-1.32a2 2 0 0 0 .82-.17 3 3 0 0 0 .79-.48v-1.39a7.5 7.5 0 0 0-1.26-.12c-.93 0-1.39.38-1.39 1.12a.94.94 0 0 0 1 1z" fill="#333"/>
	<path d="M73 19h54v54H73z" fill="url(#a)"/>
	<path d="M116.6 64h-8.9a.7.7 0 0 1-.7-.4L94.5 37.4h-5.3a.71.71 0 0 1-.71-.69.41.41 0 0 1 0-.11v-7.9a.7.7 0 0 1 .7-.7h11.1a.7.7 0 0 1 .6.4l12.5 26.2h3.2a.71.71 0 0 1 .71.69.41.41 0 0 1 0 .11v7.9a.7.7 0 0 1-.7.7zm-8.5-1.4h7.7v-6.5H113a.7.7 0 0 1-.7-.4L99.8 29.4h-9.9v6.5H95a.7.7 0 0 1 .6.4zM92.8 64h-9.4a.7.7 0 0 1-.6-1.1l9.8-20.4a.7.7 0 0 1 .91-.39.68.68 0 0 1 .39.39l4.7 9.6a.7.7 0 0 1 0 .6l-5.2 10.8a.71.71 0 0 1-.6.5zm-8.2-1.4h7.7l4.8-10.1-3.9-8z" fill="#fff"/>
</svg>
