<svg xmlns="http://www.w3.org/2000/svg" width="200" height="128">
	<defs>
		<linearGradient id="a" x1="27.12" y1="101.87" x2="88.62" y2="40.37" gradientTransform="matrix(1.33 0 0 1.33 -4.16 -21.83)" gradientUnits="userSpaceOnUse">
			<stop offset="0" stop-color="#1b660f"/>
			<stop offset="1" stop-color="#6cae3e"/>
		</linearGradient>
	</defs>
	<path d="m91.65 90.74-1-2.95h-4.59l-1 2.95h-1.67l4.1-11.09h1.76l4.09 11.09zm-5.17-4.18h3.73l-1.87-5.44zm15.84 4.18-2.1-8.69-2.11 8.69h-1.82l-3.23-11.09h1.77l2.39 9.29 2.12-9h1.8l2.12 9 2.4-9.31h1.72l-3.24 11.09zm8.75-5.27a4.51 4.51 0 0 1-1.9-1.2 2.63 2.63 0 0 1-.59-1.77 3 3 0 0 1 .44-1.6 3.09 3.09 0 0 1 1.29-1.09 4.52 4.52 0 0 1 2-.4 8.39 8.39 0 0 1 3 .57v1.3a10 10 0 0 0-2.85-.5 2.68 2.68 0 0 0-1.61.43 1.4 1.4 0 0 0-.56 1.21 1.33 1.33 0 0 0 .38 1 4.07 4.07 0 0 0 1.42.76l1.46.55a4.31 4.31 0 0 1 1.86 1.16 2.61 2.61 0 0 1 .57 1.75 3 3 0 0 1-1.1 2.45 4.5 4.5 0 0 1-2.95.91 7.29 7.29 0 0 1-3.2-.66v-1.27a9.87 9.87 0 0 0 3.17.56 2.85 2.85 0 0 0 1.78-.49 1.59 1.59 0 0 0 .65-1.35 1.36 1.36 0 0 0-.37-1 3.73 3.73 0 0 0-1.28-.75zm-77.55 21.27V95.65h2.4v11.09zm10.11 0v-5.36a1.36 1.36 0 0 0-.28-1 1.15 1.15 0 0 0-.88-.31 3.21 3.21 0 0 0-1.75.55v6.08h-2.33v-8.14h1.92l.22.88a4.89 4.89 0 0 1 3.07-1.12 2.16 2.16 0 0 1 2.4 2.37v6zm9.41-.21a5.37 5.37 0 0 1-1.94.33 2.73 2.73 0 0 1-2-.64 2.67 2.67 0 0 1-.65-2v-3.95h-1.23v-1.42l1.29-.26.36-2.24h1.92v2.21H53v1.73h-2.2v3.84a.89.89 0 0 0 .25.72 1.39 1.39 0 0 0 .87.21A8.39 8.39 0 0 0 53 105zm3.18-3.31a2.06 2.06 0 0 0 .64 1.52 2.82 2.82 0 0 0 1.81.48 9.68 9.68 0 0 0 2.5-.4v1.55a5.39 5.39 0 0 1-1.34.45 8.37 8.37 0 0 1-1.61.16 4.08 4.08 0 0 1-3.09-1.11 5.35 5.35 0 0 1 0-6.41 3.79 3.79 0 0 1 2.93-1.14 3.28 3.28 0 0 1 2.44.87 3.4 3.4 0 0 1 .85 2.49 7.91 7.91 0 0 1 0 .8c0 .3-.07.54-.11.74zM58 99.94a1.62 1.62 0 0 0-1.24.47 2.07 2.07 0 0 0-.52 1.37h3.13v-.28c-.03-1.04-.48-1.56-1.37-1.56zm5.17 6.8v-8.18h1.92l.29 1.22a4.28 4.28 0 0 1 1.2-1 2.55 2.55 0 0 1 1.21-.3 4.85 4.85 0 0 1 .64 0v2.16a4.37 4.37 0 0 0-1-.1 5 5 0 0 0-1.94.37v5.78zm11.72 0v-5.36a1.36 1.36 0 0 0-.28-1 1.15 1.15 0 0 0-.88-.31 3.21 3.21 0 0 0-1.75.55v6.08h-2.36v-8.14h1.92l.22.88a4.89 4.89 0 0 1 3.07-1.12 2.36 2.36 0 0 1 1.75.62 2.32 2.32 0 0 1 .62 1.75v6zm6.29-3.52a2.06 2.06 0 0 0 .64 1.52 2.82 2.82 0 0 0 1.81.48 9.74 9.74 0 0 0 2.5-.4v1.55a5.54 5.54 0 0 1-1.34.45 8.45 8.45 0 0 1-1.61.16 4.08 4.08 0 0 1-3.09-1.11 5.35 5.35 0 0 1 0-6.41A3.79 3.79 0 0 1 83 98.32a3.28 3.28 0 0 1 2.44.87 3.4 3.4 0 0 1 .85 2.49 5.91 5.91 0 0 1 0 .8 5.37 5.37 0 0 1-.11.74zm1.75-3.28a1.61 1.61 0 0 0-1.24.47 2.07 2.07 0 0 0-.52 1.37h3.13v-.28c-.03-1.04-.49-1.56-1.4-1.56zm10 6.59a5.41 5.41 0 0 1-1.94.33 2.77 2.77 0 0 1-2-.64 2.66 2.66 0 0 1-.64-2v-3.95H87.1v-1.42l1.3-.26.35-2.24h1.92v2.21h2.21v1.73h-2.21v3.84a.89.89 0 0 0 .26.72 1.37 1.37 0 0 0 .86.21 8.52 8.52 0 0 0 1.14-.1zm9.26.45a3.87 3.87 0 0 1-3-1.15 5.24 5.24 0 0 1 0-6.37 4.45 4.45 0 0 1 6 0 5.28 5.28 0 0 1 0 6.37 3.91 3.91 0 0 1-3 1.17zm0-1.8c1.12 0 1.68-.84 1.68-2.54s-.56-2.53-1.68-2.53-1.68.85-1.68 2.53.56 2.54 1.68 2.54zm6.27 1.56v-6.45h-1.29v-1.44l1.29-.24v-.74a3.4 3.4 0 0 1 .75-2.41 3 3 0 0 1 2.26-.79 4.73 4.73 0 0 1 .9.09 4.65 4.65 0 0 1 .81.23v1.59a6.65 6.65 0 0 0-1.08-.1 1.62 1.62 0 0 0-1 .24 1.06 1.06 0 0 0-.28.85v1h2.29v1.73h-2.31v6.45zm12.45 0v-9.17h-3.37v-1.92h9.15v1.92h-3.38v9.17zm12.34 0v-5.36a1.36 1.36 0 0 0-.29-1 1.14 1.14 0 0 0-.88-.31 3.16 3.16 0 0 0-1.74.55v6.08H128V94.9h2.34v4.4a4.88 4.88 0 0 1 2.88-1 2.14 2.14 0 0 1 2.36 2.37v6zM139 97.3a1.4 1.4 0 0 1-1-.34 1.16 1.16 0 0 1-.37-.91 1.14 1.14 0 0 1 .37-.91 1.35 1.35 0 0 1 1-.34 1.38 1.38 0 0 1 1 .34 1.14 1.14 0 0 1 .37.91 1.16 1.16 0 0 1-.37.95 1.42 1.42 0 0 1-1 .3zm-1.16 9.44v-8.18h2.33v8.18zm9.88 0v-5.36a1.36 1.36 0 0 0-.28-1 1.15 1.15 0 0 0-.88-.31 3.21 3.21 0 0 0-1.75.55v6.08h-2.31v-8.14h1.92l.22.88a4.89 4.89 0 0 1 3.07-1.12 2.16 2.16 0 0 1 2.37 2.37v6zm9.54-1a3.08 3.08 0 0 1-2.14.82 2.88 2.88 0 0 1-2.38-1.11 4.63 4.63 0 0 1-.89-3 4.7 4.7 0 0 1 .9-3 2.88 2.88 0 0 1 2.4-1.14 3.25 3.25 0 0 1 2.32.94l.17-.7h1.92v7.54a4.14 4.14 0 0 1-1.08 3 4.09 4.09 0 0 1-3 1.08 6.55 6.55 0 0 1-3-.68V108a9.4 9.4 0 0 0 2.74.49 2.09 2.09 0 0 0 1.53-.48 2.28 2.28 0 0 0 .47-1.6zm-1.42-.91a2.43 2.43 0 0 0 .74-.12 2.53 2.53 0 0 0 .68-.33v-3.93a2.87 2.87 0 0 0-1.54-.4q-1.53 0-1.53 2.37a3.25 3.25 0 0 0 .4 1.82 1.4 1.4 0 0 0 1.27.59zm9.44-.35a.69.69 0 0 0-.19-.5 2.53 2.53 0 0 0-.74-.38l-1.25-.5a3.22 3.22 0 0 1-1.41-.94 2.24 2.24 0 0 1-.43-1.42 2.12 2.12 0 0 1 .87-1.76 3.77 3.77 0 0 1 2.33-.66 5.84 5.84 0 0 1 2.48.53v1.55a8.07 8.07 0 0 0-2.27-.37 2.25 2.25 0 0 0-1 .16.59.59 0 0 0-.12 1 2.65 2.65 0 0 0 .77.41l1.22.5a3.46 3.46 0 0 1 1.46.9 2.13 2.13 0 0 1 .42 1.37 2.33 2.33 0 0 1-.9 1.91 3.68 3.68 0 0 1-2.38.73 6.3 6.3 0 0 1-2.91-.65v-1.56a9.45 9.45 0 0 0 2.89.5c.79-.02 1.18-.3 1.18-.82z" fill="#333"/>
	<path d="M73 19h54v54H73z" fill="url(#a)"/>
	<path d="M118.7 45.3a5.32 5.32 0 0 0-4.8-5.3 14.21 14.21 0 0 0-7.8-7.8 5.37 5.37 0 0 0-10.7 0 14.21 14.21 0 0 0-7.8 7.8 5.38 5.38 0 0 0 0 10.7 13.62 13.62 0 0 0 8.2 7.9v4.8h1.4v-4.3a13.52 13.52 0 0 0 2.9.4v3.9h1.4v-3.9a28.86 28.86 0 0 0 2.9-.4v4.3h1.4v-4.8a14.46 14.46 0 0 0 8.2-7.9 5.32 5.32 0 0 0 4.7-5.4zm-18-16.6a4 4 0 0 1 4 4 4 4 0 0 1-7.9 0 4.06 4.06 0 0 1 3.9-4zM84.2 45.3a4 4 0 1 1 7.9 0 4 4 0 0 1-7.9 0zm4.9 5.2a5.31 5.31 0 0 0 4.3-4.5h2.3v11a13.07 13.07 0 0 1-6.6-6.5zm8 7V45.3a.68.68 0 0 0-.7-.7h-3a5.54 5.54 0 0 0-4.3-4.6 12.87 12.87 0 0 1 6.3-6.3 5.31 5.31 0 0 0 4.5 4.3v20a13.73 13.73 0 0 1-2.8-.5zm4.3.5V37.9a5.54 5.54 0 0 0 4.6-4.3 12.68 12.68 0 0 1 6.3 6.4 5.21 5.21 0 0 0-4.2 4.6H105a.68.68 0 0 0-.7.7v12.2a13.52 13.52 0 0 1-2.9.5zm4.4-1V46h2.3a5.31 5.31 0 0 0 4.3 4.5 13.46 13.46 0 0 1-6.6 6.5zm7.5-7.8a3.78 3.78 0 0 1-3.9-3.9 4 4 0 1 1 7.9 0 3.81 3.81 0 0 1-4 3.9z" fill="#fff"/>
</svg>
