<svg xmlns="http://www.w3.org/2000/svg" width="200" height="128">
	<defs>
		<linearGradient id="a" x1="61.82" y1="183.18" x2="138.18" y2="106.82" gradientTransform="translate(0 -99)" gradientUnits="userSpaceOnUse">
			<stop offset="0" stop-color="#4d27a8"/>
			<stop offset="1" stop-color="#a166ff"/>
		</linearGradient>
	</defs>
	<path d="m91.65 90.74-1-2.95h-4.59l-1 2.95h-1.67l4.1-11.09h1.76l4.09 11.09zm-5.17-4.18h3.73l-1.87-5.44zm15.84 4.18-2.1-8.69-2.11 8.69h-1.82l-3.23-11.09h1.77l2.39 9.29 2.12-9h1.8l2.12 9 2.4-9.31h1.72l-3.24 11.09zm8.75-5.27a4.51 4.51 0 0 1-1.9-1.2 2.63 2.63 0 0 1-.59-1.77 3 3 0 0 1 .44-1.6 3.09 3.09 0 0 1 1.29-1.09 4.52 4.52 0 0 1 2-.4 8.39 8.39 0 0 1 3 .57v1.3a10 10 0 0 0-2.85-.5 2.68 2.68 0 0 0-1.61.43 1.4 1.4 0 0 0-.56 1.21 1.33 1.33 0 0 0 .38 1 4.07 4.07 0 0 0 1.42.76l1.46.55a4.31 4.31 0 0 1 1.86 1.16 2.61 2.61 0 0 1 .57 1.75 3 3 0 0 1-1.1 2.45 4.5 4.5 0 0 1-2.95.91 7.29 7.29 0 0 1-3.2-.66v-1.27a9.87 9.87 0 0 0 3.17.56 2.85 2.85 0 0 0 1.78-.49 1.59 1.59 0 0 0 .65-1.35 1.36 1.36 0 0 0-.37-1 3.73 3.73 0 0 0-1.28-.75zM87.9 106.74 84 95.65h2.65l2.6 8.73 2.57-8.73h2.59l-3.93 11.09zm10.2-4v4h-2.34V95.65H100a3.86 3.86 0 0 1 2.74.94 3.37 3.37 0 0 1 1 2.58 3.33 3.33 0 0 1-1 2.57 3.87 3.87 0 0 1-2.74 1zm0-1.79h1.63a1.63 1.63 0 0 0 1.22-.44 1.82 1.82 0 0 0 .43-1.29 1.79 1.79 0 0 0-.43-1.29 1.63 1.63 0 0 0-1.22-.44H98.1zm9.68-1.95v7.7h-2.12V95.65h2.56l4.52 7.76v-7.76h2.11v11.09h-2.56z" fill="#333"/>
	<path data-name="Purple Gradient" fill="url(#a)" d="M73 19h54v54H73z"/>
	<path d="M110.8 44.27h-3.38v-7.41a7.42 7.42 0 0 0-14.84-.08v7.49H89.2a.62.62 0 0 0-.5.22.63.63 0 0 0-.22.5v16.85a.68.68 0 0 0 .72.72h21.6a.68.68 0 0 0 .72-.72V45a.68.68 0 0 0-.72-.73zM94 36.78a6 6 0 0 1 12 .08v7.41H94zm16.06 24.34H89.92V45.71h20.16zm-10.8-7.48v3.88h1.44v-3.93a3.48 3.48 0 0 0 1.37-.75 3 3 0 0 0-2.09-5h-.29a2.95 2.95 0 0 0-.43 5.84zm-.36-4a1.46 1.46 0 0 1 1.08-.43 1.48 1.48 0 0 1 1.51 1.51 1.46 1.46 0 0 1-.43 1.08 1.58 1.58 0 0 1-1.08.43 1.46 1.46 0 0 1-1.08-.43 1.56 1.56 0 0 1 .02-2.13z" fill="#fff"/>
</svg>
