<svg xmlns="http://www.w3.org/2000/svg" width="200" height="128">
	<defs>
		<linearGradient id="a" x1="-406.97" y1="662.03" x2="-513.04" y2="555.96" gradientTransform="matrix(-1 0 0 1 -387 -536)" gradientUnits="userSpaceOnUse">
			<stop offset="0" stop-color="#2e27ad"/>
			<stop offset="1" stop-color="#527fff"/>
		</linearGradient>
	</defs>
	<path d="m78.85 90.74-1-2.95h-4.59l-1 2.95h-1.67l4.1-11.09h1.76l4.09 11.09zm-5.17-4.18h3.73l-1.87-5.44zm18.58 4.18v-5.51a1.83 1.83 0 0 0-.26-1.18 1.13 1.13 0 0 0-1-.39 4.49 4.49 0 0 0-2.35.72 1.94 1.94 0 0 1 0 .24v6.12h-1.58v-5.51a1.9 1.9 0 0 0-.3-1.18 1.13 1.13 0 0 0-1-.39 4.35 4.35 0 0 0-2.34.71v6.37h-1.54v-8.12h1.33l.16.82a5.32 5.32 0 0 1 3-1.06 2 2 0 0 1 2 1.14 5.43 5.43 0 0 1 3.17-1.14 2.23 2.23 0 0 1 1.7.63 2.49 2.49 0 0 1 .59 1.77v6zm8.68 0-.12-.84a4.2 4.2 0 0 1-1.28.77 3.76 3.76 0 0 1-1.38.27 2.54 2.54 0 0 1-1.82-.64 2.31 2.31 0 0 1-.68-1.74 2.28 2.28 0 0 1 .84-1.86 3.34 3.34 0 0 1 2.24-.7 8.38 8.38 0 0 1 2 .27v-1a1.59 1.59 0 0 0-.39-1.22 2 2 0 0 0-1.35-.4 8.71 8.71 0 0 0-2.81.49V83a5.17 5.17 0 0 1 1.41-.47 8.55 8.55 0 0 1 1.68-.17 3.29 3.29 0 0 1 2.24.64 2.42 2.42 0 0 1 .72 1.92v5.8zm-2.4-1a3.75 3.75 0 0 0 2.21-.81V87.3a6.86 6.86 0 0 0-1.69-.21c-1.21 0-1.81.46-1.81 1.39a1.27 1.27 0 0 0 .33.94 1.37 1.37 0 0 0 .96.32zm5.46 1v-1.22l4.66-5.65h-4.5v-1.25h6.26v1.2l-4.72 5.67h4.76v1.25zm11.52.24a3.63 3.63 0 0 1-2.85-1.14 5.4 5.4 0 0 1 0-6.32 4.13 4.13 0 0 1 5.7 0 5.4 5.4 0 0 1 0 6.32 3.63 3.63 0 0 1-2.85 1.16zm0-1.28c1.5 0 2.26-1 2.26-3s-.76-3-2.26-3-2.26 1-2.26 3 .74 3 2.26 3zm11.31 1v-5.39a1.9 1.9 0 0 0-.34-1.25 1.37 1.37 0 0 0-1.08-.4 4.45 4.45 0 0 0-2.48.82v6.26h-1.59v-8.12h1.33l.16.9a5.27 5.27 0 0 1 3.2-1.14 2.41 2.41 0 0 1 1.78.62 2.46 2.46 0 0 1 .61 1.78v6zm-40.93 16V95.65h4.27a3.9 3.9 0 0 1 2.73.91 3.16 3.16 0 0 1 1 2.48 2.93 2.93 0 0 1-.53 1.73A3.49 3.49 0 0 1 91.9 102l2.75 4.77h-2.48l-2.4-4.31H88.2v4.31zm2.3-6h1.66a1.5 1.5 0 0 0 1.68-1.7 1.45 1.45 0 0 0-1.64-1.66h-1.7zm7.89 6V95.65h4a5 5 0 0 1 3.82 1.43 7 7 0 0 1 0 8.21 4.9 4.9 0 0 1-3.77 1.45zm2.4-9.24v7.38h1.37q2.9 0 2.9-3.54v-.3c0-2.34-1-3.52-2.91-3.52zm11 4.39a4.66 4.66 0 0 1-2-1.29 3.2 3.2 0 0 1 .48-4.33 4.63 4.63 0 0 1 3-.89A8.6 8.6 0 0 1 114 96v1.83a9.74 9.74 0 0 0-2.88-.48c-1.26 0-1.89.4-1.89 1.21a.94.94 0 0 0 .33.74 4.29 4.29 0 0 0 1.23.61l1.18.43a5.13 5.13 0 0 1 2.12 1.27 2.81 2.81 0 0 1 .63 1.9 3.17 3.17 0 0 1-1.18 2.6 5.09 5.09 0 0 1-3.25 1 9.78 9.78 0 0 1-1.79-.17 6.38 6.38 0 0 1-1.54-.46v-1.82a11.94 11.94 0 0 0 1.71.38 10.29 10.29 0 0 0 1.65.15 2.6 2.6 0 0 0 1.46-.35 1.11 1.11 0 0 0 .51-1 1 1 0 0 0-.31-.78 3.93 3.93 0 0 0-1.26-.64z" fill="#333"/>
	<path d="M73 19h54v54H73z" fill="url(#a)"/>
	<path d="M100 36.3c-3.8 0-7.9.9-7.9 3v13.3c0 2.2 4.1 3.1 7.9 3.1s7.9-.9 7.9-3V39.3c0-2.1-4.1-3-7.9-3zm0 1.4c4.2 0 6.5 1.2 6.5 1.6s-2.3 1.6-6.5 1.6-6.5-1.2-6.5-1.6 2.2-1.6 6.5-1.6zm6.5 15c0 .4-2.3 1.6-6.5 1.6s-6.5-1.2-6.5-1.6v-2.3c1.5.9 4 1.2 6.5 1.2a15.4 15.4 0 0 0 6.5-1.2zm0-4.1c0 .4-2.3 1.6-6.5 1.6s-6.5-1.2-6.5-1.6v-2.7a15.4 15.4 0 0 0 6.5 1.2 15.4 15.4 0 0 0 6.5-1.2zm0-4.6c0 .5-2.3 1.6-6.5 1.6s-6.5-1.2-6.5-1.6v-2.8a13.82 13.82 0 0 0 6.5 1.1c2.5-.1 5-.4 6.5-1.2zM88.8 56.2l-5.4 5.4v-4.8H82v6.5a.68.68 0 0 0 .7.7h6.5v-1.4h-4.8l5.4-5.4zm27.8 5.4-5.4-5.4-1 1 5.4 5.4h-4.8V64h6.5a.68.68 0 0 0 .7-.7v-6.5h-1.4zm.7-33.6h-6.5v1.4h4.8l-5.4 5.4 1 1 5.4-5.4v4.8h1.4v-6.5a.68.68 0 0 0-.7-.7zm-28.1 1.4V28h-6.5a.68.68 0 0 0-.7.7v6.5h1.4v-4.8l5.4 5.4 1-1-5.4-5.4zm.2 11.1-.4-1.3c-4.4 1.6-6.9 4-6.9 6.6s2.5 5 6.9 6.6l.5-1.4c-3.7-1.4-6-3.3-6-5.2s2.2-3.9 5.9-5.3zm21.3-1.5-.5 1.4c4 1.4 6.4 3.4 6.4 5.4s-2.4 4.1-6.4 5.4l.5 1.4c4.7-1.6 7.3-4 7.3-6.8s-2.7-5.2-7.3-6.8z" fill="#fff"/>
</svg>
