<svg xmlns="http://www.w3.org/2000/svg" width="200" height="128">
	<path fill="#333" d="m77.82 87.79 1 2.95h1.69l-4.06-11.09h-1.76l-4.1 11.09h1.68l1-2.95zm-2.28-6.67 1.87 5.44h-3.73zm16.01 1.26a5.43 5.43 0 0 0-3.17 1.14 2 2 0 0 0-2-1.14 5.32 5.32 0 0 0-3 1.06l-.16-.82h-1.33v8.12h1.58v-6.37a4.35 4.35 0 0 1 2.34-.71 1.13 1.13 0 0 1 1 .39 1.9 1.9 0 0 1 .3 1.18v5.51h1.59v-6.12a1.94 1.94 0 0 0 0-.24 4.49 4.49 0 0 1 2.3-.72 1.13 1.13 0 0 1 1 .39 1.83 1.83 0 0 1 .31 1.18v5.51h1.58v-6a2.49 2.49 0 0 0-.64-1.74 2.23 2.23 0 0 0-1.7-.62zm7.99 8.29a4.2 4.2 0 0 0 1.28-.77l.12.84h1.32v-5.8a2.42 2.42 0 0 0-.72-1.92 3.29 3.29 0 0 0-2.24-.64 8.55 8.55 0 0 0-1.68.17 5.17 5.17 0 0 0-1.41.47v1.12a8.71 8.71 0 0 1 2.79-.49 2 2 0 0 1 1.34.35 1.59 1.59 0 0 1 .39 1.22v1a8.38 8.38 0 0 0-2-.27 3.34 3.34 0 0 0-2.24.7 2.28 2.28 0 0 0-.84 1.86 2.31 2.31 0 0 0 .68 1.74 2.54 2.54 0 0 0 1.82.64 3.76 3.76 0 0 0 1.39-.22zm-2.29-2.19c0-.93.6-1.39 1.81-1.39a6.86 6.86 0 0 1 1.69.21v1.63a3.75 3.75 0 0 1-2.21.81 1.37 1.37 0 0 1-1-.32 1.27 1.27 0 0 1-.29-.94zm13.21 1.01h-4.76l4.72-5.67v-1.2h-6.26v1.25h4.5L104 89.52v1.22h6.46v-1.25zm7.91.35a5.4 5.4 0 0 0 0-6.32 4.13 4.13 0 0 0-5.7 0 5.4 5.4 0 0 0 0 6.32 4.13 4.13 0 0 0 5.7 0zm-5.11-3.17c0-2 .76-3 2.26-3s2.26 1 2.26 3-.76 3-2.26 3-2.26-.98-2.26-3zm9.67-2.19a4.45 4.45 0 0 1 2.48-.82 1.37 1.37 0 0 1 1.08.4 1.9 1.9 0 0 1 .34 1.25v5.43h1.59v-6a2.46 2.46 0 0 0-.61-1.78 2.41 2.41 0 0 0-1.78-.62 5.27 5.27 0 0 0-3.2 1.14l-.16-.9h-1.33v8.12h1.59zm-53.08 16.29a3 3 0 0 0 .53-1.77 3.2 3.2 0 0 0-1-2.48 3.93 3.93 0 0 0-2.74-.91h-4.28v11.09h2.3v-4.31h1.57l2.4 4.31h2.48l-2.75-4.7a3.52 3.52 0 0 0 1.49-1.23zm-3.52 0h-1.67v-3.36h1.7A1.46 1.46 0 0 1 68 99.07a1.5 1.5 0 0 1-1.67 1.7zm10.21-5.12h-4v11.09h4a4.88 4.88 0 0 0 3.77-1.45 7 7 0 0 0 0-8.21 5 5 0 0 0-3.77-1.43zm2.68 5.69q0 3.54-2.89 3.54H75V97.5h1.36c1.94 0 2.91 1.18 2.91 3.52zm9.17-1.05-1.18-.43a4.29 4.29 0 0 1-1.21-.61 1 1 0 0 1-.32-.74c0-.81.63-1.21 1.88-1.21a9.74 9.74 0 0 1 2.88.48V96a8.56 8.56 0 0 0-3.07-.57 4.58 4.58 0 0 0-3 .89 3.22 3.22 0 0 0-.49 4.33 4.7 4.7 0 0 0 2.05 1.29l1.21.45a3.93 3.93 0 0 1 1.26.64 1 1 0 0 1 .31.78 1.11 1.11 0 0 1-.51 1 2.6 2.6 0 0 1-1.46.35 10.08 10.08 0 0 1-1.64-.15 12.4 12.4 0 0 1-1.72-.38v1.82a6.38 6.38 0 0 0 1.54.46 10 10 0 0 0 1.79.17 5.07 5.07 0 0 0 3.25-1 3.17 3.17 0 0 0 1.18-2.6 2.81 2.81 0 0 0-.63-1.9 5.13 5.13 0 0 0-2.12-1.29zm13.17-4.64h-4.24v11.09h2.34v-4h1.9a3.87 3.87 0 0 0 2.74-1 3.33 3.33 0 0 0 1-2.57 3.37 3.37 0 0 0-1-2.58 3.86 3.86 0 0 0-2.74-.94zm1 4.81a1.63 1.63 0 0 1-1.22.44h-1.68v-3.46h1.63a1.63 1.63 0 0 1 1.22.44 1.79 1.79 0 0 1 .43 1.29 1.82 1.82 0 0 1-.43 1.29zm7.92-1.68a4.45 4.45 0 0 0-1.21 1l-.27-1.22h-1.92v8.18h2.34V101a5 5 0 0 1 1.94-.37 4.37 4.37 0 0 1 1 .1v-2.2a5 5 0 0 0-.64 0 2.55 2.55 0 0 0-1.24.25zm6.7-.46a3.9 3.9 0 0 0-3 1.14 5.28 5.28 0 0 0 0 6.37 4.42 4.42 0 0 0 6 0 5.28 5.28 0 0 0 0-6.37 3.87 3.87 0 0 0-3-1.14zm0 6.86c-1.12 0-1.68-.84-1.68-2.54s.56-2.53 1.68-2.53 1.68.85 1.68 2.53-.56 2.54-1.68 2.54zm12.49-6.62h-2.41l-1.4 2.48-1.48-2.48h-2.52l2.71 4.05-2.74 4.13h2.42l1.49-2.6 1.55 2.6h2.51l-2.8-4.26 2.67-3.92zm6.77 0-1.73 6.11-1.82-6.11h-2.48l3.23 8.3v.18a2.46 2.46 0 0 1-.62 1.08 1.56 1.56 0 0 1-1 .31 7.65 7.65 0 0 1-.91-.05V110a4.75 4.75 0 0 0 1.55.25 2.5 2.5 0 0 0 1.69-.56 4.19 4.19 0 0 0 1.14-1.82l3.46-9.28z"/>
	<path fill="#2e27ad" d="M108.22 25.47a1.85 1.85 0 0 0-1.56.71 3.28 3.28 0 0 0-.55 2 3.24 3.24 0 0 0 .55 2 1.85 1.85 0 0 0 1.56.71 1.82 1.82 0 0 0 1.56-.71 3.24 3.24 0 0 0 .56-2 3.28 3.28 0 0 0-.56-2 1.82 1.82 0 0 0-1.56-.71zm.55 4a.57.57 0 0 1-1.09 0 3.39 3.39 0 0 1-.17-1.27 3.41 3.41 0 0 1 .17-1.28.57.57 0 0 1 1.09 0 3.63 3.63 0 0 1 .17 1.28 3.61 3.61 0 0 1-.17 1.29z"/>
	<path fill="#2e27ad" d="M75.15 66V26A4.8 4.8 0 0 1 80 21.22h40a4.8 4.8 0 0 1 4.71 4.78v15.69h2.15V26a6.94 6.94 0 0 0-6.94-6.94H80A7 7 0 0 0 73 26v40a7 7 0 0 0 7 6.94h24.29v-2.16H80A4.8 4.8 0 0 1 75.15 66z"/>
	<path fill="#2e27ad" d="m112.03 30.82.72-1.65.85 1.65h1.5l-1.52-2.62 1.44-2.6h-1.38l-.7 1.6-.77-1.6h-1.5l1.44 2.6-1.46 2.62h1.38zm4.87.97a.76.76 0 0 1-.58.21 4.6 4.6 0 0 1-.49 0v.94a2.83 2.83 0 0 0 .9.15 1.27 1.27 0 0 0 .93-.34 2.41 2.41 0 0 0 .58-1.09l1.72-6h-1.44l-.76 3.84-.76-3.9h-1.48l1.68 5.32v.19a1.17 1.17 0 0 1-.3.68zm-19.38-8.05v7.08h1.39V28.2h.84a1.94 1.94 0 0 0 1.5-.6 2.3 2.3 0 0 0 .55-1.6 2.28 2.28 0 0 0-.55-1.63 1.94 1.94 0 0 0-1.5-.6zm2.87 2.26a1.51 1.51 0 0 1-.21.87.7.7 0 0 1-.6.29h-.67V24.8h.67a.69.69 0 0 1 .6.3 1.47 1.47 0 0 1 .21.9zm5.31-.42h-.32a1.2 1.2 0 0 0-.64.17 2.33 2.33 0 0 0-.61.55l-.13-.7h-1.15v5.22h1.4V27a1.91 1.91 0 0 1 .93-.25 2.62 2.62 0 0 1 .54.06zm10.39 15.33c-5.42 0-10.91 1.69-10.91 4.91v21.91c0 3.22 5.49 4.91 10.91 4.91S127 71 127 67.73V45.82c0-3.22-5.49-4.91-10.91-4.91zm8.76 26.82c0 .93-3.09 2.75-8.76 2.75s-8.75-1.82-8.75-2.75v-3.68c2.09 1.23 5.43 1.86 8.75 1.86s6.66-.63 8.76-1.86zm0-6.72c0 .93-3.09 2.75-8.76 2.75s-8.75-1.82-8.75-2.75v-4.49c2.09 1.23 5.43 1.87 8.75 1.87a18.51 18.51 0 0 0 8.76-1.87zm0-7.53c0 .93-3.09 2.75-8.76 2.75s-8.75-1.82-8.75-2.75v-4.62c2.09 1.23 5.43 1.87 8.75 1.87a18.51 18.51 0 0 0 8.76-1.87zm-8.76-4.91c-5.66 0-8.75-1.82-8.75-2.75s3.09-2.76 8.75-2.76 8.76 1.82 8.76 2.76-3.09 2.75-8.76 2.75zM83.05 27.2a2.51 2.51 0 0 0 .28-1.2 2.29 2.29 0 0 0-.56-1.63 1.94 1.94 0 0 0-1.49-.6H79v7.08h1.4V28.2h.6l1.24 2.62h1.46L82.27 28a1.73 1.73 0 0 0 .78-.8zm-1.34-.36a.71.71 0 0 1-.61.29h-.66V24.8h.66a.69.69 0 0 1 .61.3 1.47 1.47 0 0 1 .21.87 1.51 1.51 0 0 1-.21.87zm10.14 2.99a3.85 3.85 0 0 1-.81-.1 4.52 4.52 0 0 1-.85-.24v1.08a2.86 2.86 0 0 0 .8.29A4 4 0 0 0 92 31a2.46 2.46 0 0 0 1.73-.57 2 2 0 0 0 .63-1.54 2.15 2.15 0 0 0-.15-.85 1.77 1.77 0 0 0-.46-.64 4.17 4.17 0 0 0-.84-.58l-.55-.29a2 2 0 0 1-.61-.45.87.87 0 0 1-.16-.52.78.78 0 0 1 .25-.6 1 1 0 0 1 .67-.21 4.17 4.17 0 0 1 1.46.31V24a3.85 3.85 0 0 0-1.6-.37 2.46 2.46 0 0 0-1.14.26 1.85 1.85 0 0 0-.78.71 2 2 0 0 0-.28 1.09 1.91 1.91 0 0 0 .32 1.14 3 3 0 0 0 1.08.88l.56.3a2.19 2.19 0 0 1 .59.44.84.84 0 0 1 .18.54.87.87 0 0 1-.25.66 1.1 1.1 0 0 1-.8.18zm-5.24-6.09h-2.13v7.08h2.19a2.28 2.28 0 0 0 2-.9 4.36 4.36 0 0 0 .68-2.64 4.29 4.29 0 0 0-.69-2.64 2.35 2.35 0 0 0-2.05-.9zm1.22 3.64a3.68 3.68 0 0 1-.33 1.77 1.07 1.07 0 0 1-1 .58h-.6v-4.9h.59a1.08 1.08 0 0 1 1 .57 3.79 3.79 0 0 1 .32 1.77z"/>
</svg>
