<svg xmlns="http://www.w3.org/2000/svg" width="200" height="128">
	<defs>
		<linearGradient id="a" x1="-122.53" y1="300.64" x2="-121.85" y2="301.31" gradientTransform="matrix(80 0 0 -80 9875 24124)" gradientUnits="userSpaceOnUse">
			<stop offset="0" stop-color="#1b660f"/>
			<stop offset="1" stop-color="#6cae3e"/>
		</linearGradient>
	</defs>
	<path fill="#333" d="m91.65 90.74-1-2.95h-4.59l-1 2.95h-1.67l4.1-11.09h1.76l4.09 11.09zm-5.17-4.18h3.73l-1.87-5.44zm15.84 4.18-2.1-8.69-2.11 8.69h-1.82l-3.23-11.09h1.77l2.39 9.29 2.12-9h1.8l2.12 9 2.4-9.31h1.72l-3.24 11.09zm8.75-5.27a4.51 4.51 0 0 1-1.9-1.2 2.63 2.63 0 0 1-.59-1.77 3 3 0 0 1 .44-1.6 3.09 3.09 0 0 1 1.29-1.09 4.52 4.52 0 0 1 2-.4 8.39 8.39 0 0 1 3 .57v1.3a10 10 0 0 0-2.85-.5 2.68 2.68 0 0 0-1.61.43 1.4 1.4 0 0 0-.56 1.21 1.33 1.33 0 0 0 .38 1 4.07 4.07 0 0 0 1.42.76l1.46.55a4.31 4.31 0 0 1 1.86 1.16 2.61 2.61 0 0 1 .57 1.75 3 3 0 0 1-1.1 2.45 4.5 4.5 0 0 1-2.95.91 7.29 7.29 0 0 1-3.2-.66v-1.27a9.87 9.87 0 0 0 3.17.56 2.85 2.85 0 0 0 1.78-.49 1.59 1.59 0 0 0 .65-1.35 1.36 1.36 0 0 0-.37-1 3.73 3.73 0 0 0-1.28-.75zM73.7 106.74V95.65h4a4 4 0 0 1 2.59.81 2.67 2.67 0 0 1 1 2.13 2.53 2.53 0 0 1-.38 1.4 2.47 2.47 0 0 1-1.11.91 2.93 2.93 0 0 1 1.56 1 2.68 2.68 0 0 1 .54 1.7 2.79 2.79 0 0 1-1.07 2.29 4.58 4.58 0 0 1-2.89.85zm2.3-9.38v2.91h1.39c1 0 1.55-.48 1.55-1.44s-.47-1.47-1.42-1.47zm0 4.54v3.1h1.89c1.08 0 1.63-.51 1.63-1.53s-.58-1.59-1.74-1.59zm12.34 4.84-.19-.72a4.1 4.1 0 0 1-1.15.71 3.42 3.42 0 0 1-1.26.26 2.63 2.63 0 0 1-1.89-.67 2.32 2.32 0 0 1-.71-1.79 2.37 2.37 0 0 1 .38-1.35 2.63 2.63 0 0 1 1.1-.92 3.91 3.91 0 0 1 1.7-.34 7.8 7.8 0 0 1 1.7.21v-.8a1.3 1.3 0 0 0-.31-1 1.71 1.71 0 0 0-1.12-.27 9.72 9.72 0 0 0-2.89.49V99a6.25 6.25 0 0 1 1.48-.49 9.31 9.31 0 0 1 1.82-.19 3.63 3.63 0 0 1 2.41.66 2.67 2.67 0 0 1 .76 2.09v5.67zm-1.94-1.32a2 2 0 0 0 .82-.17 3.27 3.27 0 0 0 .8-.48v-1.39a7.61 7.61 0 0 0-1.27-.12c-.93 0-1.39.38-1.39 1.12a.94.94 0 0 0 1 1zm11.89.96a3.64 3.64 0 0 1-1 .4 5.88 5.88 0 0 1-1.27.13 3.9 3.9 0 0 1-3-1.09 5.21 5.21 0 0 1 .06-6.3 4 4 0 0 1 3-1.14 4.54 4.54 0 0 1 2.16.52v1.55a6.3 6.3 0 0 0-1.73-.27 2.21 2.21 0 0 0-1.65.56 2.6 2.6 0 0 0-.52 1.8v.23a2.56 2.56 0 0 0 .52 1.78 2.05 2.05 0 0 0 1.6.57 7 7 0 0 0 1.83-.29zm1.71.36V94.9h2.32v7.15l2.83-3.49h2.79l-3.38 3.9 3.63 4.28h-2.89l-3-3.73v3.73zm14.7 0-.22-.87a4.78 4.78 0 0 1-3 1.11 2.21 2.21 0 0 1-1.69-.65 2.49 2.49 0 0 1-.61-1.79v-6h2.34v5.33c0 .86.37 1.29 1.12 1.29a3 3 0 0 0 1.63-.51v-6.09h2.33v8.18zm4.16 3.26V98.56h1.92l.2.77a3.45 3.45 0 0 1 1.16-.74 3.69 3.69 0 0 1 1.38-.27 3 3 0 0 1 2.48 1.14 4.8 4.8 0 0 1 .9 3.07 5.71 5.71 0 0 1-.42 2.25 3.39 3.39 0 0 1-1.2 1.56 3 3 0 0 1-1.8.57 3.69 3.69 0 0 1-1.25-.21 2.92 2.92 0 0 1-1-.57V110zm3.91-10a3 3 0 0 0-1.57.43v4.21a2.92 2.92 0 0 0 1.57.43 1.48 1.48 0 0 0 1.32-.61 3.41 3.41 0 0 0 .42-1.92 3.55 3.55 0 0 0-.41-1.93 1.49 1.49 0 0 0-1.33-.53z"/>
	<path fill="url(#a)" d="M73 19h53.88v53.88H73z" data-name="Icon-Architecture-BG/64/Storage"/>
	<path data-name="AWS-Backup Icon 64 Squid" d="M108.18 46.18a7.75 7.75 0 0 1-6.53 8.82 8.74 8.74 0 0 1-1.14.08 7.76 7.76 0 0 1-7.72-7.69h1.35a6.39 6.39 0 1 0 10.21-5.16 6.79 6.79 0 0 0-8.23.39h1.13v1.35h-2.7a.63.63 0 0 1-.47-.2.65.65 0 0 1-.2-.47v-2.74h1.35v1a8.31 8.31 0 0 1 4-1.84 7.8 7.8 0 0 1 5.9 1.37 7.63 7.63 0 0 1 3 5.08m1.19 11.88a3.58 3.58 0 0 0-.92.13l-1.91-2.55-1.08.81 1.78 2.36a3.19 3.19 0 0 0-1.17 1.95h-12.2a3 3 0 0 0-1.13-2l1.73-2.33-1.08-.8-1.89 2.54a4 4 0 0 0-.94-.11 4.3 4.3 0 0 0-.82.08l-3.92-13.1a2.83 2.83 0 0 0 1.42-1l3.08 1.21.49-1.24-3-1.19a4.16 4.16 0 0 0 .1-.88 3.58 3.58 0 0 0-.5-1.9l10.16-7.11a3.22 3.22 0 0 0 1.79.87v3.42h1.34v-3.45a3.09 3.09 0 0 0 1.8-.86l10.12 7.18a3.64 3.64 0 0 0-.47 1.82 3.54 3.54 0 0 0 .11.85l-3 1.22.5 1.25 3.03-1.22a3.17 3.17 0 0 0 1.76 1.18l-4.93 12.93h-.2m0 5.39a1.81 1.81 0 0 1-2-2 2 2 0 0 1 2-2 2 2 0 0 1 0 4m-18.86 0a2 2 0 0 1 0-4 2 2 0 0 1 0 4m-8.08-21.6a2 2 0 0 1 4 0 2 2 0 0 1-4 0m17.51-13.47a1.81 1.81 0 0 1 2 2 2 2 0 1 1-4 0 1.82 1.82 0 0 1 2-2m15.49 11.45a2 2 0 0 1 0 4 2 2 0 0 1-2-2 1.84 1.84 0 0 1 2-2m3.37 2a3.16 3.16 0 0 0-3.37-3.37 3.46 3.46 0 0 0-2 .56l-10.33-7.33a4 4 0 0 0 .21-1.29 3.37 3.37 0 1 0-6.74 0 4 4 0 0 0 .21 1.28L86.36 39a3.62 3.62 0 0 0-1.91-.5 3.16 3.16 0 0 0-3.37 3.37 3.11 3.11 0 0 0 3.35 3.36l4 13.42a3.21 3.21 0 0 0-1.3 2.75 3.16 3.16 0 0 0 3.37 3.37 3.11 3.11 0 0 0 3.31-2.7h12.24a3.11 3.11 0 0 0 3.31 2.7 3.41 3.41 0 0 0 1.53-6.43l5-13.14a3.11 3.11 0 0 0 2.89-3.33" fill="#fff" fill-rule="evenodd"/>
</svg>
