<svg xmlns="http://www.w3.org/2000/svg" width="200" height="128">
        <linearGradient id="a" x1="-1180.18" y1="-152.82" x2="-1103.82" y2="-229.18" gradientTransform="matrix(0 -1 -1 0 -91 -1096)" gradientUnits="userSpaceOnUse">
            <stop offset="0" stop-color="#1b660f"/>
            <stop offset="1" stop-color="#6cae3e"/>
        </linearGradient>
    <path fill="#333333" d="M78.85 90.74l-1-2.95h-4.59l-1 2.95h-1.67l4.1-11.09h1.76l4.09 11.09zm-5.17-4.18h3.73l-1.87-5.44zm18.58 4.18v-5.51a1.83 1.83 0 00-.26-1.18 1.13 1.13 0 00-1-.39 4.49 4.49 0 00-2.35.72 1.94 1.94 0 010 .24v6.12h-1.58v-5.51a1.9 1.9 0 00-.3-1.18 1.13 1.13 0 00-1-.39 4.35 4.35 0 00-2.34.71v6.37h-1.54v-8.12h1.33l.16.82a5.32 5.32 0 013-1.06 2 2 0 012 1.14 5.43 5.43 0 013.17-1.14 2.23 2.23 0 011.7.63 2.49 2.49 0 01.59 1.77v6zm8.68 0l-.12-.84a4.2 4.2 0 01-1.28.77 3.76 3.76 0 01-1.38.27 2.54 2.54 0 01-1.82-.64 2.31 2.31 0 01-.68-1.74 2.28 2.28 0 01.84-1.86 3.34 3.34 0 012.24-.7 8.38 8.38 0 012 .27v-1a1.59 1.59 0 00-.39-1.22 2 2 0 00-1.35-.4 8.71 8.71 0 00-2.81.49V83a5.17 5.17 0 011.41-.47 8.55 8.55 0 011.68-.17 3.29 3.29 0 012.24.64 2.42 2.42 0 01.72 1.92v5.8zm-2.4-1a3.75 3.75 0 002.21-.81V87.3a6.86 6.86 0 00-1.69-.21c-1.21 0-1.81.46-1.81 1.39a1.27 1.27 0 00.33.94 1.37 1.37 0 00.96.32zm5.46 1v-1.22l4.66-5.65h-4.5v-1.25h6.26v1.2l-4.72 5.67h4.76v1.25zm11.52.26a3.63 3.63 0 01-2.85-1.14 5.4 5.4 0 010-6.32 4.13 4.13 0 015.7 0 5.4 5.4 0 010 6.32 3.63 3.63 0 01-2.85 1.14zm0-1.28c1.5 0 2.26-1 2.26-3s-.76-3-2.26-3-2.26 1-2.26 3 .74 2.98 2.26 2.98zm11.31 1.02v-5.43a1.9 1.9 0 00-.34-1.25 1.37 1.37 0 00-1.08-.4 4.45 4.45 0 00-2.48.82v6.26h-1.59v-8.12h1.33l.16.9a5.27 5.27 0 013.2-1.14 2.41 2.41 0 011.78.62 2.46 2.46 0 01.61 1.78v6zm-38.6 16V95.65h7v1.85h-4.6v2.79h3.65v1.85h-3.65v4.6zM99 101.89a4.7 4.7 0 01-2-1.29 3 3 0 01-.62-1.93 2.93 2.93 0 011.11-2.4 4.61 4.61 0 013-.89 8.6 8.6 0 013.07.57v1.83a9.85 9.85 0 00-2.88-.48c-1.26 0-1.89.4-1.89 1.21a.94.94 0 00.33.74 4.2 4.2 0 001.22.61l1.19.43a5.2 5.2 0 012.12 1.27 2.81 2.81 0 01.63 1.9 3.18 3.18 0 01-1.19 2.6 5.06 5.06 0 01-3.24 1 10 10 0 01-1.8-.17 6.3 6.3 0 01-1.53-.46v-1.82a11.94 11.94 0 001.71.38 10.29 10.29 0 001.65.15 2.57 2.57 0 001.45-.35 1.09 1.09 0 00.52-1 1 1 0 00-.32-.78 3.74 3.74 0 00-1.25-.64zm11.47 4.85l-1.55-2.6-1.49 2.6H105l2.73-4.13-2.7-4h2.51l1.49 2.48 1.39-2.48h2.42l-2.68 3.92 2.8 4.26z"/>
    <path fill="url(#a)" d="M73 19h54v54H73z"/>
    <path fill="#FFF" d="M82.3 54.71V37.29h9.77v1.33H83.8v6.67h7v1.33h-7v8.09zm14.6-8.8a7.07 7.07 0 01-2.85-1.8 3.82 3.82 0 01-.89-2.57 4.27 4.27 0 011.49-3.38 5.86 5.86 0 013.94-1.3 11.31 11.31 0 012.32.27 11.58 11.58 0 012.3.72v1.31a13.86 13.86 0 00-4.55-.91 4.58 4.58 0 00-3 .85 2.92 2.92 0 00-1 2.39 2.87 2.87 0 00.34 1.44 3 3 0 001.06 1 12.13 12.13 0 002 .94l2.7 1a6.19 6.19 0 012.63 1.72 3.94 3.94 0 01.84 2.55 4.54 4.54 0 01-1.65 3.6 6.5 6.5 0 01-4.32 1.39 11.41 11.41 0 01-5-1.06V52.8a14.13 14.13 0 004.85 1 5.2 5.2 0 003.33-1 3.23 3.23 0 001.25-2.67 2.46 2.46 0 00-.69-1.76A5.71 5.71 0 0099.88 47zm13.67-1.15l-2.97-4.24h-2.11l4.02 5.66 1.06-1.42zm5 10.05h2.13l-5.29-7.56 4.83-6.73h-2.01l-3.81 5.45-1.02 1.42 5.17 7.42zm-5.12-4.94l-3.38 4.94h-2.02l4.48-6.22.92 1.28z"/>
</svg>
