<svg xmlns="http://www.w3.org/2000/svg" width="200" height="128">
    <defs>
        <linearGradient id="linear-gradient" x1="19.96" y1="-455.04" x2="126.03" y2="-348.97" gradientTransform="matrix(1 0 0 -1 0 -329)" gradientUnits="userSpaceOnUse">
            <stop offset="0" stop-color="#4d27a8"/>
            <stop offset="1" stop-color="#a166ff"/>
        </linearGradient>
    </defs>
    <path class="cls-1" d="M78.85 90.74l-1-2.95h-4.59l-1 2.95h-1.67l4.1-11.09h1.76l4.09 11.09zm-5.17-4.18h3.73l-1.87-5.44zM92.26 90.74v-5.51a1.83 1.83 0 00-.26-1.18 1.13 1.13 0 00-1-.39 4.49 4.49 0 00-2.35.72 1.94 1.94 0 010 .24v6.12h-1.58v-5.51a1.9 1.9 0 00-.3-1.18 1.13 1.13 0 00-1-.39 4.35 4.35 0 00-2.34.71v6.37h-1.54v-8.12h1.33l.16.82a5.32 5.32 0 013-1.06 2 2 0 012 1.14 5.43 5.43 0 013.17-1.14 2.23 2.23 0 011.7.63 2.49 2.49 0 01.59 1.77v6zM100.94 90.74l-.12-.84a4.2 4.2 0 01-1.28.77 3.76 3.76 0 01-1.38.27 2.54 2.54 0 01-1.82-.64 2.31 2.31 0 01-.68-1.74 2.28 2.28 0 01.84-1.86 3.34 3.34 0 012.24-.7 8.38 8.38 0 012 .27v-1a1.59 1.59 0 00-.39-1.22 2 2 0 00-1.35-.4 8.71 8.71 0 00-2.81.49V83a5.17 5.17 0 011.41-.47 8.55 8.55 0 011.68-.17 3.29 3.29 0 012.24.64 2.42 2.42 0 01.72 1.92v5.8zm-2.4-1a3.75 3.75 0 002.21-.81V87.3a6.86 6.86 0 00-1.69-.21c-1.21 0-1.81.46-1.81 1.39a1.27 1.27 0 00.33.94 1.37 1.37 0 00.96.32zM104 90.74v-1.22l4.66-5.65h-4.5v-1.25h6.26v1.2l-4.72 5.67h4.76v1.25zM115.52 91a3.63 3.63 0 01-2.85-1.14 5.4 5.4 0 010-6.32 4.13 4.13 0 015.7 0 5.4 5.4 0 010 6.32 3.63 3.63 0 01-2.85 1.14zm0-1.28c1.5 0 2.26-1 2.26-3s-.76-3-2.26-3-2.26 1-2.26 3 .74 2.98 2.26 2.98zM126.83 90.74v-5.43a1.9 1.9 0 00-.34-1.25 1.37 1.37 0 00-1.08-.4 4.45 4.45 0 00-2.48.82v6.26h-1.59v-8.12h1.33l.16.9a5.27 5.27 0 013.2-1.14 2.41 2.41 0 011.78.62 2.46 2.46 0 01.61 1.78v6zM60.62 106.74l-.78-2.53h-3.79l-.75 2.53h-2.51l3.9-11.09h2.64l3.9 11.09zm-4.06-4.26h2.78l-1.4-4.64zM66.94 102.69v4h-2.33V95.65h4.24a3.82 3.82 0 012.73.94 3.34 3.34 0 011 2.58 3.3 3.3 0 01-1 2.57 3.83 3.83 0 01-2.73 1zm0-1.79h1.64a1.63 1.63 0 001.22-.44 1.82 1.82 0 00.42-1.29 1.79 1.79 0 00-.42-1.29 1.63 1.63 0 00-1.22-.44h-1.64zM74.58 106.74V95.65H77v11.09zM89.38 105a9.07 9.07 0 001.18-.08v-2.7h-2.08v-1.73h4.29v5.55a6.82 6.82 0 01-1.79.63 10 10 0 01-2.12.22 5.3 5.3 0 01-4-1.45 5.77 5.77 0 01-1.4-4.15A6 6 0 0184.92 97a5.59 5.59 0 014.2-1.5 7.39 7.39 0 013.25.66V98a10.1 10.1 0 00-3-.53 3.42 3.42 0 00-2.61.89 3.94 3.94 0 00-.83 2.79v.29a3.91 3.91 0 00.82 2.76 3.46 3.46 0 002.63.8zM99.66 106.74l-.19-.72a3.91 3.91 0 01-1.14.71 3.42 3.42 0 01-1.26.26 2.62 2.62 0 01-1.89-.67 2.33 2.33 0 01-.72-1.79 2.38 2.38 0 01.39-1.35 2.52 2.52 0 011.1-.92 3.91 3.91 0 011.7-.34 7.64 7.64 0 011.69.21v-.8a1.34 1.34 0 00-.3-1 1.73 1.73 0 00-1.12-.27 9.83 9.83 0 00-2.9.49V99a6.5 6.5 0 011.49-.49 9.31 9.31 0 011.83-.18 3.59 3.59 0 012.4.66 2.63 2.63 0 01.76 2.09v5.67zm-1.93-1.32a2 2 0 00.82-.17 3.21 3.21 0 00.79-.48v-1.39a7.5 7.5 0 00-1.26-.12c-.93 0-1.39.38-1.39 1.12a.94.94 0 001 1zM108.58 106.53a5.45 5.45 0 01-1.94.33 2.74 2.74 0 01-2-.64 2.67 2.67 0 01-.65-2v-3.95h-1.23v-1.42l1.3-.26.35-2.24h1.92v2.21h2.21v1.73h-2.21v3.84a.89.89 0 00.26.72 1.35 1.35 0 00.86.21 8.52 8.52 0 001.14-.1zM111.76 103.22a2 2 0 00.64 1.52 2.8 2.8 0 001.81.48 9.67 9.67 0 002.49-.4v1.55a5.31 5.31 0 01-1.33.45 8.53 8.53 0 01-1.61.16 4.11 4.11 0 01-3.1-1.11 5.38 5.38 0 010-6.41 3.78 3.78 0 012.92-1.14 3.26 3.26 0 012.44.87 3.41 3.41 0 01.86 2.49v.8c0 .3-.07.54-.11.74zm1.74-3.28a1.64 1.64 0 00-1.24.47 2.17 2.17 0 00-.52 1.37h3.14v-.28q0-1.56-1.38-1.56zM125.34 106.74l-1.4-5.75-1.43 5.75h-2.25l-2.61-8.18h2.46l1.36 5.9 1.47-5.9H125l1.5 5.92 1.28-5.92h2.4l-2.62 8.18zM136.13 106.74l-.19-.72a4.1 4.1 0 01-1.15.71 3.41 3.41 0 01-1.25.26 2.64 2.64 0 01-1.9-.67 2.36 2.36 0 01-.71-1.79 2.45 2.45 0 01.38-1.35 2.6 2.6 0 011.11-.92 3.86 3.86 0 011.69-.34 7.8 7.8 0 011.7.21v-.8a1.3 1.3 0 00-.31-1 1.71 1.71 0 00-1.12-.27 9.72 9.72 0 00-2.89.49V99a6.19 6.19 0 011.51-.5 9.13 9.13 0 011.82-.18 3.63 3.63 0 012.41.66 2.67 2.67 0 01.76 2.09v5.67zm-1.94-1.32a2.13 2.13 0 00.83-.17 3.41 3.41 0 00.79-.48v-1.39a7.61 7.61 0 00-1.27-.12c-.92 0-1.39.38-1.39 1.12a.94.94 0 001 1zM142 106.86l-3.23-8.3h2.48l1.82 6.11 1.73-6.11h2.42l-3.46 9.28a4.28 4.28 0 01-1.13 1.82 2.54 2.54 0 01-1.7.56 4.79 4.79 0 01-1.55-.25v-1.59a7.65 7.65 0 00.91.05 1.56 1.56 0 001-.31A2.46 2.46 0 00142 107z"/>
    <path d="M73 19h54v54H73z" fill="url(#linear-gradient)"/>
    <path d="M117.65 33.4l-9.3-4.6a.62.62 0 00-.7.1.89.89 0 00-.4.5v8h-2.2v1.4h2.2v14.4h-2.2v1.4h2.2v8a.55.55 0 00.3.5c.1.1.3.1.4.2h.2l9.4-3.1a.75.75 0 00.5-.7V34a.62.62 0 00-.4-.6zm-1 25.6l-8 2.6v-31l8 3.9zm-23.8-20.2h1.4v-1.4h-1.4v-8c0-.2-.1-.5-.4-.5a1.7 1.7 0 00-.7-.1l-9.3 4.6a1.47 1.47 0 00-.5.6v25.5a.75.75 0 00.5.7l9.4 3.1h.2a.76.76 0 00.4-.2.68.68 0 00.3-.5v-8h1.5v-1.4h-1.5V38.8zm-1.4 22.8l-8-2.6V34.5l8-3.9zm9.3-24.2H103v1.4h-2.2zm-4.3 0h2.2v1.4h-2.2zm0 15.8h2.2v1.4h-2.2zm4.3 0H103v1.4h-2.2zm-3.9-10.4l-2.7 2.3h-.1a.67.67 0 00.1 1l2.7 2.3 1-1-2.1-1.8 2.1-1.8zm9.2 3.3a.67.67 0 00-.1-1l-2.7-2.3-1 1.1 2.1 1.7-2.1 1.8 1 1 2.7-2.3s.05-.1.1 0zM98 50l2.9-8.5 1.4.5-2.9 8.4z" fill="#fff"/>
</svg>
