<svg xmlns="http://www.w3.org/2000/svg" width="200" height="128">
	<defs>
		<linearGradient id="a" x1="365.03" y1="-110.97" x2="258.97" y2="-217.03" gradientTransform="rotate(90 74 -165)" gradientUnits="userSpaceOnUse">
			<stop offset="0" stop-color="#4d27a8"/>
			<stop offset="1" stop-color="#a166ff"/>
		</linearGradient>
	</defs>
	<path d="m78.85 90.74-1-2.95h-4.59l-1 2.95h-1.67l4.1-11.09h1.76l4.09 11.09zm-5.17-4.18h3.73l-1.87-5.44zm18.58 4.18v-5.51a1.83 1.83 0 0 0-.26-1.18 1.13 1.13 0 0 0-1-.39 4.49 4.49 0 0 0-2.35.72 1.94 1.94 0 0 1 0 .24v6.12h-1.58v-5.51a1.9 1.9 0 0 0-.3-1.18 1.13 1.13 0 0 0-1-.39 4.35 4.35 0 0 0-2.34.71v6.37h-1.54v-8.12h1.33l.16.82a5.32 5.32 0 0 1 3-1.06 2 2 0 0 1 2 1.14 5.43 5.43 0 0 1 3.17-1.14 2.23 2.23 0 0 1 1.7.63 2.49 2.49 0 0 1 .59 1.77v6zm8.68 0-.12-.84a4.2 4.2 0 0 1-1.28.77 3.76 3.76 0 0 1-1.38.27 2.54 2.54 0 0 1-1.82-.64 2.31 2.31 0 0 1-.68-1.74 2.28 2.28 0 0 1 .84-1.86 3.34 3.34 0 0 1 2.24-.7 8.38 8.38 0 0 1 2 .27v-1a1.59 1.59 0 0 0-.39-1.22 2 2 0 0 0-1.35-.4 8.71 8.71 0 0 0-2.81.49V83a5.17 5.17 0 0 1 1.41-.47 8.55 8.55 0 0 1 1.68-.17 3.29 3.29 0 0 1 2.24.64 2.42 2.42 0 0 1 .72 1.92v5.8zm-2.4-1a3.75 3.75 0 0 0 2.21-.81V87.3a6.86 6.86 0 0 0-1.69-.21c-1.21 0-1.81.46-1.81 1.39a1.27 1.27 0 0 0 .33.94 1.37 1.37 0 0 0 .96.32zm5.46 1v-1.22l4.66-5.65h-4.5v-1.25h6.26v1.2l-4.72 5.67h4.76v1.25zm11.52.24a3.63 3.63 0 0 1-2.85-1.14 5.4 5.4 0 0 1 0-6.32 4.13 4.13 0 0 1 5.7 0 5.4 5.4 0 0 1 0 6.32 3.63 3.63 0 0 1-2.85 1.16zm0-1.28c1.5 0 2.26-1 2.26-3s-.76-3-2.26-3-2.26 1-2.26 3 .74 3 2.26 3zm11.31 1v-5.39a1.9 1.9 0 0 0-.34-1.25 1.37 1.37 0 0 0-1.08-.4 4.45 4.45 0 0 0-2.48.82v6.26h-1.59v-8.12h1.33l.16.9a5.27 5.27 0 0 1 3.2-1.14 2.41 2.41 0 0 1 1.78.62 2.46 2.46 0 0 1 .61 1.78v6zm-33.37 16v-7.64L91 104h-2.13l-2.45-5v7.68h-2.11V95.65h2.63l3 6.3 3-6.3h2.58v11.09zm6.84-4.85a4.7 4.7 0 0 1-2-1.29 3.19 3.19 0 0 1 .49-4.33 4.58 4.58 0 0 1 3-.89 8.56 8.56 0 0 1 3.07.57v1.83a9.74 9.74 0 0 0-2.88-.48c-1.26 0-1.89.4-1.89 1.21a.94.94 0 0 0 .33.74 4.29 4.29 0 0 0 1.23.61l1.18.43a5.13 5.13 0 0 1 2.12 1.27 2.81 2.81 0 0 1 .63 1.9 3.17 3.17 0 0 1-1.18 2.6 5.07 5.07 0 0 1-3.25 1 9.86 9.86 0 0 1-1.79-.17 6.38 6.38 0 0 1-1.54-.46v-1.82a12.58 12.58 0 0 0 1.71.38 10.29 10.29 0 0 0 1.65.15 2.6 2.6 0 0 0 1.46-.35 1.11 1.11 0 0 0 .51-1 1 1 0 0 0-.31-.78 3.93 3.93 0 0 0-1.26-.64zm7.2 4.85V95.65h2.4v4.75l4-4.75h2.71l-4.52 5.15 4.9 5.94h-2.86l-4.24-5.27v5.27z" fill="#333"/>
	<path d="M73 19h54v54H73z" fill="url(#a)"/>
	<path d="M97.2 43.8v-6.4h1.3v2.8l1.8-2.8h1.4l-2.1 3 2.3 3.4h-1.5l-1.8-3.1v3.1zm12.4-.7a3 3 0 0 0-1 .2l-7.1-10.7a3 3 0 0 0-.6-4 2.79 2.79 0 0 0-1.8-.6 2.76 2.76 0 0 0-2.8 2.9 3.37 3.37 0 0 0 .5 1.7l-7 10.7a4.25 4.25 0 0 0-1.1-.2 2.9 2.9 0 0 0 0 5.8 3 3 0 0 0 2.8-2.2h15.3a3 3 0 0 0 3.6 2.1 3 3 0 0 0 2.1-3.5 2.92 2.92 0 0 0-2.9-2.2zm-20.8 4.3a1.52 1.52 0 0 1-1.5-1.4c-.1-.8.6-1.4 1.5-1.4a1.31 1.31 0 0 1 1.4 1.4 1.37 1.37 0 0 1-1.4 1.4zm10.4-18a1.39 1.39 0 0 1 1.4 1.5 1.31 1.31 0 0 1-1.4 1.4 1.37 1.37 0 0 1-1.4-1.4 1.52 1.52 0 0 1 1.4-1.5zm7.7 15.9H91.6a2.38 2.38 0 0 0-.6-1.1l7.1-10.7a6.15 6.15 0 0 0 1.1.3 2.66 2.66 0 0 0 1.2-.3l7.1 10.7a2 2 0 0 0-.6 1.1zm2.7 2.1a1.4 1.4 0 1 1 0-2.8 1.52 1.52 0 0 1 1.5 1.4c.1.8-.6 1.4-1.5 1.4zm8.4 9.3-.5.4a4.5 4.5 0 0 1-5.4 0l-1-.9a6 6 0 0 0-7.4 0l-1 .9a4.5 4.5 0 0 1-5.4 0l-1-.9a5.86 5.86 0 0 0-7.3 0l-1 .9a4.65 4.65 0 0 1-5.5 0l-.5-.4v1.9a5.86 5.86 0 0 0 6.9-.4l1-.8a4.5 4.5 0 0 1 5.4 0l1 .8a6 6 0 0 0 7.4 0l1-.8a4.5 4.5 0 0 1 5.4 0l1 .8a5.41 5.41 0 0 0 3.7 1.3 6 6 0 0 0 3.2-.9zm0 4.6-.5.4a4.5 4.5 0 0 1-5.4 0l-1-.9a6 6 0 0 0-7.4 0l-1 .9a4.5 4.5 0 0 1-5.4 0l-1-.9a5.86 5.86 0 0 0-7.3 0l-1 .9a4.65 4.65 0 0 1-5.5 0l-.5-.4v1.8a6 6 0 0 0 6.9-.3l1-.9a4.5 4.5 0 0 1 5.4 0l1 .9a6 6 0 0 0 7.4 0l1-.8a4.5 4.5 0 0 1 5.4 0l1 .8a5.41 5.41 0 0 0 3.7 1.3 6 6 0 0 0 3.2-.9zm0-9.8-.5.5a4.5 4.5 0 0 1-5.4 0l-1-.9a6 6 0 0 0-7.4 0l-1 .9a4.5 4.5 0 0 1-5.4 0l-1-.9a5.86 5.86 0 0 0-7.3 0l-1 .9a4.65 4.65 0 0 1-5.5 0l-.5-.5v1.9a6 6 0 0 0 6.9-.3l1-.9a4.5 4.5 0 0 1 5.4 0l1 .9a6 6 0 0 0 7.4 0l1-.8a4.5 4.5 0 0 1 5.4 0l1 .8a5.41 5.41 0 0 0 3.7 1.3 6 6 0 0 0 3.2-.9z" fill="#fff"/>
</svg>
