<svg width="157.89" height="138.599" viewBox="0 0 41.775 36.671" xmlns:xlink="http://www.w3.org/1999/xlink" xmlns="http://www.w3.org/2000/svg">
	<defs>
		<linearGradient id="a" spreadMethod="pad" y2="-.037" x2=".059" y1=".974" x1=".855">
			<stop offset="0%" stop-color="#4f66b9"/>
			<stop offset="1%" stop-color="#484fab"/>
		</linearGradient>
		<linearGradient id="b" spreadMethod="pad" y2="-.034" x2=".145" y1=".943" x1="1.106">
			<stop offset="0%" stop-color="#4f66b9"/>
			<stop offset="1%" stop-color="#484fab"/>
		</linearGradient>
		<linearGradient id="c" spreadMethod="pad" y2=".176" x2=".117" y1=".945" x1=".63">
			<stop offset="0%" stop-color="#4c68bb"/>
			<stop offset="1%" stop-color="#5180c9"/>
		</linearGradient>
		<linearGradient xlink:href="#a" id="d" x1="24.253" y1="21.636" x2="16.315" y2="11.547" spreadMethod="pad" gradientTransform="scale(.87832 1.13854)" gradientUnits="userSpaceOnUse"/>
		<linearGradient xlink:href="#b" id="e" x1="47.962" y1="20.175" x2="27.401" y2="-.738" spreadMethod="pad" gradientTransform="scale(.76856 1.30114)" gradientUnits="userSpaceOnUse"/>
		<linearGradient xlink:href="#c" id="f" x1="22.954" y1="34.435" x2="4.258" y2="6.4" spreadMethod="pad" gradientTransform="scale(.9216 1.08507)" gradientUnits="userSpaceOnUse"/>
	</defs>
	<path d="M13.813 13.567h1.623v4.786l4.673-4.786h2.142l-5.127 5.273 5.451 6.085h-2.077l-5.062-5.679v5.679h-1.623V13.567" fill="url(#a)" style="fill:url(#d)" transform="matrix(.6485 0 0 .70244 9.457 0)"/>
	<path d="m18.896 9.059 7.992 4.614a.44.44 0 0 1 .22.382v9.228a.44.44 0 0 0 .221.382l7.132 4.118a.44.44 0 0 0 .661-.382V9.427a.44.44 0 0 0-.22-.382L19.338.06a.441.441 0 0 0-.662.382v8.235a.44.44 0 0 0 .221.382" fill="url(#b)" style="fill:url(#e)" transform="matrix(.6485 0 0 .70244 9.457 0)"/>
	<path d="m25.773 25.596-7.992 4.614a.44.44 0 0 1-.441 0l-9.107-5.258a.443.443 0 0 1-.221-.382V14.054a.44.44 0 0 1 .221-.382l7.992-4.614a.44.44 0 0 0 .221-.381V.442a.442.442 0 0 0-.662-.382L.22 9.046a.44.44 0 0 0-.22.382v19.769c0 .158.084.303.22.382l17.121 9.884a.44.44 0 0 0 .441 0l15.564-8.986a.44.44 0 0 0 0-.764l-7.132-4.118a.44.44 0 0 0-.441 0" fill="url(#c)" style="fill:url(#f)" transform="matrix(.6485 0 0 .70244 9.457 0)"/>
	<path d="M1.637 34.272h1.737l-.872-2.738Zm2.416 2.25-.46-1.489H1.407l-.443 1.489H0l2.001-5.928h1.042l1.972 5.928H4.05m6.524 0V33.57c0-.263-.047-.45-.142-.565-.094-.114-.25-.17-.466-.17a1.816 1.967 0 0 0-.521.089 2.036 2.206 0 0 0-.482.226v3.37h-.93v-2.95c0-.263-.048-.45-.142-.565-.095-.114-.251-.17-.467-.17-.167.002-.333.029-.493.08a1.95 1.95 0 0 0-.502.236v3.37h-.932V32.17h.774l.087.437c.263-.194.511-.337.745-.427.227-.09.466-.136.707-.137.49 0 .827.196 1.004.59.527-.394 1.033-.59 1.516-.59.373 0 .664.109.87.33.205.22.307.536.307.954v3.2h-.931m3.16-.595a1.245 1.349 0 0 0 .47-.107 1.822 1.974 0 0 0 .477-.31v-.823a3.316 3.316 0 0 0-.717-.093c-.534 0-.801.23-.801.692 0 .2.05.355.154.466a.556.556 0 0 0 .43.167zm1.065.59-.072-.42a2.173 2.353 0 0 1-.611.403 1.672 1.672 0 0 1-.667.146c-.368 0-.667-.12-.896-.36-.23-.24-.345-.544-.345-.932 0-.422.141-.758.43-1.01.29-.251.66-.376 1.133-.376.287 0 .585.043.917.128v-.505c0-.292-.057-.493-.174-.607-.117-.114-.319-.17-.608-.17-.41 0-.882.093-1.414.28v-.709a2.71 2.71 0 0 1 .728-.256c.287-.063.573-.093.864-.093.525 0 .912.114 1.161.34.25.228.375.585.375 1.07v3.071h-.814m1.412 0v-.744l2.244-2.84h-2.17v-.777h3.167v.744l-2.242 2.84h2.266v.776h-3.262m5.598-.666c.664 0 .995-.505.995-1.515 0-1.003-.332-1.504-.995-1.504-.662 0-.994.501-.994 1.504 0 1.01.332 1.515.994 1.515zm0 .796c-.61 0-1.087-.204-1.429-.612-.342-.408-.512-.972-.512-1.699 0-.726.17-1.289.514-1.693.343-.403.818-.606 1.43-.606.61 0 1.086.201 1.429.606.342.406.513.971.513 1.693 0 .722-.172 1.29-.513 1.699-.342.408-.819.612-1.43.612m5.377-.128v-2.883c0-.28-.052-.483-.158-.612-.105-.128-.273-.192-.505-.192-.347 0-.702.124-1.066.376v3.31h-.932v-4.354h.775l.094.48c.502-.404 1.004-.607 1.549-.607.384 0 .677.108.877.329.2.22.3.537.3.955v3.2h-.931m2.8 0v-5.93h3.23v.454H30.47v2.174h2.37v.454h-2.37v2.386h2.765v.454h-3.23m4.162 0v-5.92h.466v2.745l2.511-2.746h.6l-2.653 2.892 2.868 3.028h-.64l-2.693-2.84v2.84h-.466m5.315-2.984c-.406-.17-.703-.375-.893-.611-.19-.236-.284-.529-.284-.878 0-.465.156-.856.47-1.15.312-.295.725-.44 1.235-.44a3.398 3.68 0 0 1 .732.09c.255.059.496.144.722.251v.437c-.537-.205-1.013-.309-1.43-.309-.405 0-.716.096-.931.288-.215.191-.324.463-.324.816 0 .2.033.362.099.484a.964.964 0 0 0 .324.333c.15.1.365.208.644.321l.846.352c.38.16.655.354.83.585.174.232.26.521.26.869a1.414 1.531 0 0 1-.518 1.231c-.344.314-.8.47-1.361.47-.585 0-1.106-.119-1.563-.358v-.436c.552.217 1.06.325 1.524.325.43 0 .786-.11 1.046-.333.261-.223.39-.525.39-.907a.89.89 0 0 0-.213-.599c-.142-.165-.371-.313-.686-.444l-.917-.385" fill="#232a3a"/>
</svg>
