<svg xmlns="http://www.w3.org/2000/svg" width="200" height="128">
	<defs>
		<linearGradient id="a" x1="365.03" y1="-110.97" x2="258.97" y2="-217.03" gradientTransform="rotate(90 74 -165)" gradientUnits="userSpaceOnUse">
			<stop offset="0" stop-color="#2e27ad"/>
			<stop offset="1" stop-color="#527fff"/>
		</linearGradient>
	</defs>
	<path d="m78.85 90.74-1-2.95h-4.59l-1 2.95h-1.67l4.1-11.09h1.76l4.09 11.09zm-5.17-4.18h3.73l-1.87-5.44zm18.58 4.18v-5.51a1.83 1.83 0 0 0-.26-1.18 1.13 1.13 0 0 0-1-.39 4.49 4.49 0 0 0-2.35.72 1.94 1.94 0 0 1 0 .24v6.12h-1.58v-5.51a1.9 1.9 0 0 0-.3-1.18 1.13 1.13 0 0 0-1-.39 4.35 4.35 0 0 0-2.34.71v6.37h-1.54v-8.12h1.33l.16.82a5.32 5.32 0 0 1 3-1.06 2 2 0 0 1 2 1.14 5.43 5.43 0 0 1 3.17-1.14 2.23 2.23 0 0 1 1.7.63 2.49 2.49 0 0 1 .59 1.77v6zm8.68 0-.12-.84a4.2 4.2 0 0 1-1.28.77 3.76 3.76 0 0 1-1.38.27 2.54 2.54 0 0 1-1.82-.64 2.31 2.31 0 0 1-.68-1.74 2.28 2.28 0 0 1 .84-1.86 3.34 3.34 0 0 1 2.24-.7 8.38 8.38 0 0 1 2 .27v-1a1.59 1.59 0 0 0-.39-1.22 2 2 0 0 0-1.35-.4 8.71 8.71 0 0 0-2.81.49V83a5.17 5.17 0 0 1 1.41-.47 8.55 8.55 0 0 1 1.68-.17 3.29 3.29 0 0 1 2.24.64 2.42 2.42 0 0 1 .72 1.92v5.8zm-2.4-1a3.75 3.75 0 0 0 2.21-.81V87.3a6.86 6.86 0 0 0-1.69-.21c-1.21 0-1.81.46-1.81 1.39a1.27 1.27 0 0 0 .33.94 1.37 1.37 0 0 0 .96.32zm5.46 1v-1.22l4.66-5.65h-4.5v-1.25h6.26v1.2l-4.72 5.67h4.76v1.25zm11.52.24a3.63 3.63 0 0 1-2.85-1.14 5.4 5.4 0 0 1 0-6.32 4.13 4.13 0 0 1 5.7 0 5.4 5.4 0 0 1 0 6.32 3.63 3.63 0 0 1-2.85 1.16zm0-1.28c1.5 0 2.26-1 2.26-3s-.76-3-2.26-3-2.26 1-2.26 3 .74 3 2.26 3zm11.31 1v-5.39a1.9 1.9 0 0 0-.34-1.25 1.37 1.37 0 0 0-1.08-.4 4.45 4.45 0 0 0-2.48.82v6.26h-1.59v-8.12h1.33l.16.9a5.27 5.27 0 0 1 3.2-1.14 2.41 2.41 0 0 1 1.78.62 2.46 2.46 0 0 1 .61 1.78v6zM24.61 101.89a4.7 4.7 0 0 1-2.05-1.29 3 3 0 0 1-.62-1.93 2.93 2.93 0 0 1 1.11-2.4 4.6 4.6 0 0 1 3-.89 8.66 8.66 0 0 1 3.08.57v1.83a9.85 9.85 0 0 0-2.88-.48c-1.26 0-1.89.4-1.89 1.21a.94.94 0 0 0 .33.74 4.07 4.07 0 0 0 1.22.61l1.18.43a5.07 5.07 0 0 1 2.12 1.27 2.77 2.77 0 0 1 .64 1.9 3.18 3.18 0 0 1-1.19 2.6 5.07 5.07 0 0 1-3.25 1 10 10 0 0 1-1.79-.17 6.16 6.16 0 0 1-1.53-.46v-1.82a11.94 11.94 0 0 0 1.71.38 10.29 10.29 0 0 0 1.65.15 2.57 2.57 0 0 0 1.45-.35 1.11 1.11 0 0 0 .51-1 1 1 0 0 0-.31-.78 3.85 3.85 0 0 0-1.25-.64zm8.27-4.59a1.4 1.4 0 0 1-1-.34 1.16 1.16 0 0 1-.37-.91 1.14 1.14 0 0 1 .37-.91 1.35 1.35 0 0 1 1-.34 1.38 1.38 0 0 1 1 .34 1.17 1.17 0 0 1 .37.91 1.19 1.19 0 0 1-.37.91 1.42 1.42 0 0 1-1 .34zm-1.17 9.44v-8.18h2.34v8.18zm14.77 0v-5.54c0-.73-.32-1.09-1-1.09a4 4 0 0 0-1.75.42v6.21h-2.3v-5.54c0-.73-.33-1.09-1-1.09a4 4 0 0 0-1.76.43v6.2h-2.32v-8.18h1.92l.21.78a7.48 7.48 0 0 1 1.52-.79 4.42 4.42 0 0 1 1.4-.23 2.15 2.15 0 0 1 2 1 6.76 6.76 0 0 1 1.6-.76 4.65 4.65 0 0 1 1.49-.24 2.35 2.35 0 0 1 1.73.62 2.4 2.4 0 0 1 .62 1.75v6zM51 110V98.56h2l.19.77a3.45 3.45 0 0 1 1.16-.74 3.69 3.69 0 0 1 1.38-.27 3 3 0 0 1 2.46 1.14 4.8 4.8 0 0 1 .9 3.07 5.9 5.9 0 0 1-.41 2.25 3.53 3.53 0 0 1-1.2 1.56 3 3 0 0 1-1.81.57 3.69 3.69 0 0 1-1.25-.21 3 3 0 0 1-1-.57V110zm3.9-10a3 3 0 0 0-1.57.43v4.21a2.92 2.92 0 0 0 1.57.43 1.48 1.48 0 0 0 1.32-.61 3.41 3.41 0 0 0 .42-1.92 3.46 3.46 0 0 0-.41-1.93 1.49 1.49 0 0 0-1.3-.53zm9.54 6.5a3.84 3.84 0 0 1-1.44.27c-1.44 0-2.16-.81-2.16-2.42V94.9h2.36v9.34a1 1 0 0 0 .15.63.62.62 0 0 0 .51.19 5.86 5.86 0 0 0 .61 0zm3.18-3.36a2 2 0 0 0 .64 1.52 2.8 2.8 0 0 0 1.81.48 9.67 9.67 0 0 0 2.49-.4v1.55a5.45 5.45 0 0 1-1.33.45 8.53 8.53 0 0 1-1.61.16 4.09 4.09 0 0 1-3.1-1.11 5.38 5.38 0 0 1 0-6.41 3.78 3.78 0 0 1 2.92-1.14 3.26 3.26 0 0 1 2.44.87 3.41 3.41 0 0 1 .86 2.49v.8c0 .3-.07.54-.11.74zm1.74-3.28a1.64 1.64 0 0 0-1.24.47 2.17 2.17 0 0 0-.52 1.37h3.14v-.28q.03-1.48-1.35-1.48zm9.52 6.8V95.65h7.3v1.85h-4.9v2.63h4V102h-4v2.9h4.9v1.86zm19.22 0v-5.46c0-.73-.33-1.09-1-1.09a4 4 0 0 0-1.74.42v6.21h-2.29v-5.54c0-.73-.32-1.09-1-1.09a4 4 0 0 0-1.76.43v6.2H88v-8.18h1.92l.21.78a7 7 0 0 1 1.53-.79 4.42 4.42 0 0 1 1.4-.23 2.16 2.16 0 0 1 2 1 6.71 6.71 0 0 1 1.53-.78 4.7 4.7 0 0 1 1.49-.24 2.36 2.36 0 0 1 1.74.62 2.39 2.39 0 0 1 .61 1.75v6zm9.23 0-.19-.72a3.84 3.84 0 0 1-1.15.71 3.41 3.41 0 0 1-1.25.26 2.66 2.66 0 0 1-1.9-.67 2.36 2.36 0 0 1-.71-1.79 2.45 2.45 0 0 1 .38-1.35 2.6 2.6 0 0 1 1.11-.92 3.86 3.86 0 0 1 1.69-.34 7.72 7.72 0 0 1 1.7.21v-.8a1.34 1.34 0 0 0-.3-1 1.75 1.75 0 0 0-1.12-.27 9.78 9.78 0 0 0-2.9.49V99a6.34 6.34 0 0 1 1.49-.49 9.21 9.21 0 0 1 1.82-.18 3.63 3.63 0 0 1 2.41.66 2.63 2.63 0 0 1 .76 2.09v5.67zm-1.94-1.32a2.09 2.09 0 0 0 .83-.17 3.21 3.21 0 0 0 .79-.48v-1.39a7.59 7.59 0 0 0-1.26-.12c-.93 0-1.4.38-1.4 1.12a1.05 1.05 0 0 0 .28.77 1 1 0 0 0 .79.35zm7.22-8.12a1.42 1.42 0 0 1-1-.34 1.18 1.18 0 0 1-.36-.91 1.17 1.17 0 0 1 .36-.91 1.58 1.58 0 0 1 2 0 1.17 1.17 0 0 1 .36.91 1.18 1.18 0 0 1-.36.91 1.42 1.42 0 0 1-.97.42zm-1.17 9.44v-8.1h2.34v8.18zm8.24-.16a3.84 3.84 0 0 1-1.44.27c-1.44 0-2.16-.81-2.16-2.42V94.9h2.34v9.34a1 1 0 0 0 .15.63.59.59 0 0 0 .5.19 5.66 5.66 0 0 0 .61 0zm8.11-4.69a4.66 4.66 0 0 1-2-1.29 3.2 3.2 0 0 1 .48-4.33 4.63 4.63 0 0 1 3-.89 8.6 8.6 0 0 1 3.07.57v1.83a9.74 9.74 0 0 0-2.88-.48c-1.26 0-1.89.4-1.89 1.21a.94.94 0 0 0 .33.74 4.34 4.34 0 0 0 1.22.61l1.19.43a5.13 5.13 0 0 1 2.12 1.27 2.81 2.81 0 0 1 .63 1.9 3.17 3.17 0 0 1-1.18 2.6 5.09 5.09 0 0 1-3.25 1 9.78 9.78 0 0 1-1.79-.17 6.38 6.38 0 0 1-1.54-.46v-1.82a11.94 11.94 0 0 0 1.71.38 10.29 10.29 0 0 0 1.65.15 2.62 2.62 0 0 0 1.46-.35 1.11 1.11 0 0 0 .51-1 1 1 0 0 0-.31-.78 3.93 3.93 0 0 0-1.26-.64zm8.79 1.33a2 2 0 0 0 .64 1.52 2.78 2.78 0 0 0 1.81.48 9.67 9.67 0 0 0 2.49-.4v1.55a5.45 5.45 0 0 1-1.33.45 8.53 8.53 0 0 1-1.61.16 4.09 4.09 0 0 1-3.1-1.11 5.4 5.4 0 0 1 0-6.41 3.8 3.8 0 0 1 2.93-1.14 3.26 3.26 0 0 1 2.44.87 3.41 3.41 0 0 1 .86 2.49v.8c0 .3-.07.54-.11.74zm1.74-3.28a1.64 1.64 0 0 0-1.24.47 2.12 2.12 0 0 0-.52 1.37h3.14v-.28q.03-1.48-1.35-1.48zm5.17 6.8v-8.1h1.92l.29 1.22a4.31 4.31 0 0 1 1.21-1 2.51 2.51 0 0 1 1.2-.3 4.72 4.72 0 0 1 .64 0v2.16a4.31 4.31 0 0 0-1-.1 4.92 4.92 0 0 0-1.93.37v5.78zm9.17 0-3.11-8.18h2.48l1.75 6.08 1.77-6.08H158l-3.09 8.18zm7.73-9.44a1.42 1.42 0 0 1-1-.34 1.16 1.16 0 0 1-.37-.91 1.14 1.14 0 0 1 .37-.91 1.38 1.38 0 0 1 1-.34 1.35 1.35 0 0 1 1 .34 1.14 1.14 0 0 1 .37.91 1.16 1.16 0 0 1-.37.91 1.4 1.4 0 0 1-.97.42zm-1.17 9.44v-8.1h2.33v8.18zm10.54-.36a3.53 3.53 0 0 1-1 .4 5.79 5.79 0 0 1-1.26.13 3.92 3.92 0 0 1-3-1.09 5.21 5.21 0 0 1 .06-6.3 4 4 0 0 1 3-1.14 4.54 4.54 0 0 1 2.16.52v1.55a6.29 6.29 0 0 0-1.72-.27 2.18 2.18 0 0 0-1.65.56 2.6 2.6 0 0 0-.53 1.8v.23a2.56 2.56 0 0 0 .52 1.78 2.08 2.08 0 0 0 1.61.57 7 7 0 0 0 1.82-.29zm3.25-3.16a2 2 0 0 0 .64 1.52 2.8 2.8 0 0 0 1.81.48 9.67 9.67 0 0 0 2.49-.4v1.55a5.45 5.45 0 0 1-1.33.45 8.53 8.53 0 0 1-1.62.26 4.09 4.09 0 0 1-3.1-1.11 5.38 5.38 0 0 1 0-6.41 3.78 3.78 0 0 1 2.92-1.14 3.26 3.26 0 0 1 2.44.87 3.41 3.41 0 0 1 .86 2.49v.8c0 .3-.07.54-.11.74zm1.74-3.28a1.64 1.64 0 0 0-1.24.47 2.17 2.17 0 0 0-.52 1.37h3.14v-.28q.03-1.48-1.35-1.48z" fill="#333"/>
	<path d="M73 19h54v54H73z" fill="url(#a)"/>
	<path d="M100 28a18.05 18.05 0 0 0-18 18 18.25 18.25 0 0 0 3.4 10.5l1.1-.9a16.55 16.55 0 1 1 30-9.7 17 17 0 0 1-3.1 9.7l1.1.8a17.94 17.94 0 0 0-4.1-25.1A17.62 17.62 0 0 0 100 28zm9.4 28.5v-2.6a.71.71 0 0 0-.8-.7h-7.9v-4.3h7.9a.85.85 0 0 0 .8-.7V37.4c0-.4-.3-.7-.8-.8H91.4c-.4 0-.7.3-.8.8v10.8a.71.71 0 0 0 .8.7h7.9v4.3h-7.9a.85.85 0 0 0-.8.7v2.6a3.24 3.24 0 1 0 1.5 6.3 3.24 3.24 0 0 0 2.4-3.8 3.38 3.38 0 0 0-2.4-2.5v-1.9h7.2v3a3.45 3.45 0 0 0-2.5 3.9 3.29 3.29 0 0 0 3.9 2.4 3.45 3.45 0 0 0 2.5-3.9 3.1 3.1 0 0 0-2.5-2.4v-3h7.2v1.9a3.24 3.24 0 0 0 1.5 6.3 3.24 3.24 0 0 0 2.4-3.8 3.38 3.38 0 0 0-2.4-2.5zm-6.3-13.7 4.8-3.9v7.7zm-3.1.6-6.6-5.3h13.2zm-3.1-.6-4.8 3.8v-7.7zm1.2.9 1.5 1.2a.75.75 0 0 0 .9 0l1.4-1.2 4.7 3.7H93.4zm-4.9 16a1.8 1.8 0 1 1-1.8-1.8 1.79 1.79 0 0 1 1.8 1.8zm8.6 1.1A1.8 1.8 0 1 1 100 59a1.79 1.79 0 0 1 1.8 1.8zm6.8.7a1.8 1.8 0 1 1 1.8-1.8 1.79 1.79 0 0 1-1.8 1.8z" fill="#fff"/>
</svg>
