<svg xmlns="http://www.w3.org/2000/svg" width="200" height="128">
	<defs>
		<linearGradient id="a" x1="-219.5" y1="122.09" x2="-69.5" y2="122.09" gradientTransform="rotate(-45 -95.008 -165.006)" gradientUnits="userSpaceOnUse">
			<stop offset="0" stop-color="#055f4e"/>
			<stop offset="1" stop-color="#56c0a7"/>
		</linearGradient>
	</defs>
	<path d="m78.85 90.74-1-2.95h-4.59l-1 2.95h-1.67l4.1-11.09h1.76l4.09 11.09zm-5.17-4.18h3.73l-1.87-5.44zm18.58 4.18v-5.51a1.83 1.83 0 0 0-.26-1.18 1.13 1.13 0 0 0-1-.39 4.49 4.49 0 0 0-2.35.72 1.94 1.94 0 0 1 0 .24v6.12h-1.58v-5.51a1.9 1.9 0 0 0-.3-1.18 1.13 1.13 0 0 0-1-.39 4.35 4.35 0 0 0-2.34.71v6.37h-1.54v-8.12h1.33l.16.82a5.32 5.32 0 0 1 3-1.06 2 2 0 0 1 2 1.14 5.43 5.43 0 0 1 3.17-1.14 2.23 2.23 0 0 1 1.7.63 2.49 2.49 0 0 1 .59 1.77v6zm8.68 0-.12-.84a4.2 4.2 0 0 1-1.28.77 3.76 3.76 0 0 1-1.38.27 2.54 2.54 0 0 1-1.82-.64 2.31 2.31 0 0 1-.68-1.74 2.28 2.28 0 0 1 .84-1.86 3.34 3.34 0 0 1 2.24-.7 8.38 8.38 0 0 1 2 .27v-1a1.59 1.59 0 0 0-.39-1.22 2 2 0 0 0-1.35-.4 8.71 8.71 0 0 0-2.81.49V83a5.17 5.17 0 0 1 1.41-.47 8.55 8.55 0 0 1 1.68-.17 3.29 3.29 0 0 1 2.24.64 2.42 2.42 0 0 1 .72 1.92v5.8zm-2.4-1a3.75 3.75 0 0 0 2.21-.81V87.3a6.86 6.86 0 0 0-1.69-.21c-1.21 0-1.81.46-1.81 1.39a1.27 1.27 0 0 0 .33.94 1.37 1.37 0 0 0 .96.32zm5.46 1v-1.22l4.66-5.65h-4.5v-1.25h6.26v1.2l-4.72 5.67h4.76v1.25zm11.52.24a3.63 3.63 0 0 1-2.85-1.14 5.4 5.4 0 0 1 0-6.32 4.13 4.13 0 0 1 5.7 0 5.4 5.4 0 0 1 0 6.32 3.63 3.63 0 0 1-2.85 1.16zm0-1.28c1.5 0 2.26-1 2.26-3s-.76-3-2.26-3-2.26 1-2.26 3 .74 3 2.26 3zm11.31 1v-5.39a1.9 1.9 0 0 0-.34-1.25 1.37 1.37 0 0 0-1.08-.4 4.45 4.45 0 0 0-2.48.82v6.26h-1.59v-8.12h1.33l.16.9a5.27 5.27 0 0 1 3.2-1.14 2.41 2.41 0 0 1 1.78.62 2.46 2.46 0 0 1 .61 1.78v6zm-38.27 16V95.65H91v9.17h4.86v1.92zm10.27-3.52a2.06 2.06 0 0 0 .64 1.52 2.82 2.82 0 0 0 1.81.48 9.68 9.68 0 0 0 2.5-.4v1.55a5.54 5.54 0 0 1-1.34.45 8.45 8.45 0 0 1-1.61.16 4.08 4.08 0 0 1-3.09-1.11 5.35 5.35 0 0 1 0-6.41 3.79 3.79 0 0 1 2.93-1.14 3.28 3.28 0 0 1 2.44.87 3.4 3.4 0 0 1 .85 2.49 5.91 5.91 0 0 1 0 .8 5.37 5.37 0 0 1-.11.74zm1.75-3.28a1.61 1.61 0 0 0-1.24.47 2.07 2.07 0 0 0-.52 1.37H102v-.28c0-1-.51-1.52-1.42-1.52zm9.56 6.8-1.55-2.6-1.49 2.6h-2.41l2.73-4.13-2.7-4h2.51l1.49 2.48 1.39-2.48h2.42l-2.67 3.92 2.8 4.26z" fill="#333"/>
	<path d="M73 19h54v54H73z" fill="url(#a)"/>
	<path d="M104.2 28H83.5a1.42 1.42 0 0 0-1.5 1.5V43a1.56 1.56 0 0 0 1.5 1.6h2.8v3.9a1.45 1.45 0 0 0 .7 1 .75.75 0 0 0 .5.1 1.14 1.14 0 0 0 .8-.3l3.8-3.7v-2l-4.3 4.1v-3a1.19 1.19 0 0 0-.4-1.1 1.43 1.43 0 0 0-1.1-.5h-2.8a.1.1 0 0 1-.1-.1V29.5c0-.1 0-.1.1-.1h20.7a.1.1 0 0 1 .1.1V41h1.5V29.5a1.5 1.5 0 0 0-1.6-1.5zm-6.4 5H85.6v-1.4h12.2zm4.4 0h-2.9v-1.4h2.9zm-10.1 3.6h-6.5v-1.4h6.5zm10.1 0h-8v-1.4h8zm-6.5 3.6H85.6v-1.4h10.1zm4.3 0h-2.9v-1.4h2.9zM111.2 64a1.33 1.33 0 0 1-.8-.3l-4.9-4.7H95a1.56 1.56 0 0 1-1.5-1.6V43.6a1.88 1.88 0 0 1 1.8-1.9h21.3a1.37 1.37 0 0 1 1.4 1.4v14.3a1.56 1.56 0 0 1-1.5 1.6h-4.3c-.1 0-.1.1 0 0v3.8a1.17 1.17 0 0 1-.7 1.1.37.37 0 0 1-.3.1zm-5.6-6.5a1.43 1.43 0 0 1 1 .4l4.3 4.2V59a1.42 1.42 0 0 1 1.5-1.5h4.2V43.3c0-.1-.1-.1-.1-.2H95.2c-.2 0-.3.1-.2.4v13.9a.1.1 0 0 0 .1.1zm.7-1.4h-1a.55.55 0 0 1-.6-.4l-.4-.7c-.2-.1-.5-.2-.7-.3l-.8.2a.82.82 0 0 1-.7-.1l-.7-.7a.48.48 0 0 1-.1-.7l.2-.8a1.91 1.91 0 0 1-.3-.8l-.8-.3a.61.61 0 0 1-.3-.7v-.9a.91.91 0 0 1 .3-.7l.8-.3a2.35 2.35 0 0 0 .2-.8l-.2-.8a.62.62 0 0 1 .2-.7l.6-.7a.48.48 0 0 1 .7-.1l.8.2c.2-.1.5-.3.7-.4l.4-.8a.61.61 0 0 1 .7-.3h.9a.6.6 0 0 1 .6.3l.4.8c.3.1.5.2.8.3l.7-.3a.62.62 0 0 1 .7.2l.7.6a.59.59 0 0 1 .1.8l-.2.7a5.94 5.94 0 0 1 .4.8l.7.5c.2.1.4.4.3.6v1c0 .2-.1.5-.3.5l-.7.4a3 3 0 0 1-.4.8l.2.8a.82.82 0 0 1-.1.7l-.7.6a.62.62 0 0 1-.7.2l-.8-.2c-.2.1-.5.2-.7.3l-.4.7a.47.47 0 0 1-.5.5zm-.5-1.5.3-.5a.66.66 0 0 1 .5-.4 4.18 4.18 0 0 0 1-.4 1.09 1.09 0 0 1 .5-.1l.7.2v-.1l-.2-.6a.64.64 0 0 1 0-.6 9.29 9.29 0 0 0 .5-1 2.19 2.19 0 0 1 .3-.5l.6-.3v-.1l-.5-.2a1 1 0 0 1-.4-.5 4.18 4.18 0 0 0-.4-1c-.1-.1-.1-.4-.1-.6l.3-.6-.7.2a.47.47 0 0 1-.6-.1 3 3 0 0 0-1-.4 1 1 0 0 1-.5-.4l-.3-.5-.3.5a1.08 1.08 0 0 1-.5.4 3 3 0 0 0-1 .4c-.1.1-.4.1-.5.1l-.7-.2h-.1l.3.6a.47.47 0 0 1-.1.6 9.29 9.29 0 0 0-.5 1 2.19 2.19 0 0 1-.3.5l-.6.3v.1l.6.3c.2.1.4.3.3.5a1.62 1.62 0 0 0 .5.9c.1.1.1.4.1.6l-.3.6.1.1.7-.2c.2-.1.4-.1.5.1a10.37 10.37 0 0 0 1 .4 1 1 0 0 1 .5.4zm0-2.1a2.16 2.16 0 0 1-2.2-2.2 2 2 0 0 1 2.2-2.1c1.3.1 2.2.9 2.1 2.1a2.2 2.2 0 0 1-2.1 2.2zm0-3a.88.88 0 0 0-.9.8 1 1 0 0 0 .9.9.77.77 0 0 0 .8-.9c-.1-.5-.4-.9-.8-.8z" fill="#fff"/>
</svg>
