<svg xmlns="http://www.w3.org/2000/svg" width="200" height="128">
    <defs>
        <linearGradient id="a" x1="27.12" y1="101.87" x2="88.62" y2="40.37" gradientTransform="matrix(1.33 0 0 1.33 -4.16 -21.83)" gradientUnits="userSpaceOnUse">
            <stop offset="0" stop-color="#055f4e"/>
            <stop offset="1" stop-color="#56c0a7"/>
        </linearGradient>
    </defs>
    <path d="M78.85 90.74l-1-2.95h-4.59l-1 2.95h-1.67l4.1-11.09h1.76l4.09 11.09zm-5.17-4.18h3.73l-1.87-5.44zm18.58 4.18v-5.51a1.83 1.83 0 00-.26-1.18 1.13 1.13 0 00-1-.39 4.49 4.49 0 00-2.35.72 1.94 1.94 0 010 .24v6.12h-1.58v-5.51a1.9 1.9 0 00-.3-1.18 1.13 1.13 0 00-1-.39 4.35 4.35 0 00-2.34.71v6.37h-1.54v-8.12h1.33l.16.82a5.32 5.32 0 013-1.06 2 2 0 012 1.14 5.43 5.43 0 013.17-1.14 2.23 2.23 0 011.7.63 2.49 2.49 0 01.59 1.77v6zm8.68 0l-.12-.84a4.2 4.2 0 01-1.28.77 3.76 3.76 0 01-1.38.27 2.54 2.54 0 01-1.82-.64 2.31 2.31 0 01-.68-1.74 2.28 2.28 0 01.84-1.86 3.34 3.34 0 012.24-.7 8.38 8.38 0 012 .27v-1a1.59 1.59 0 00-.39-1.22 2 2 0 00-1.35-.4 8.71 8.71 0 00-2.81.49V83a5.17 5.17 0 011.41-.47 8.55 8.55 0 011.68-.17 3.29 3.29 0 012.24.64 2.42 2.42 0 01.72 1.92v5.8zm-2.4-1a3.75 3.75 0 002.21-.81V87.3a6.86 6.86 0 00-1.69-.21c-1.21 0-1.81.46-1.81 1.39a1.27 1.27 0 00.33.94 1.37 1.37 0 00.96.32zm5.46 1v-1.22l4.66-5.65h-4.5v-1.25h6.26v1.2l-4.72 5.67h4.76v1.25zm11.52.24a3.63 3.63 0 01-2.85-1.14 5.4 5.4 0 010-6.32 4.13 4.13 0 015.7 0 5.4 5.4 0 010 6.32 3.63 3.63 0 01-2.85 1.16zm0-1.28c1.5 0 2.26-1 2.26-3s-.76-3-2.26-3-2.26 1-2.26 3 .74 3 2.26 3zm11.31 1v-5.39a1.9 1.9 0 00-.34-1.25 1.37 1.37 0 00-1.08-.4 4.45 4.45 0 00-2.48.82v6.26h-1.59v-8.12h1.33l.16.9a5.27 5.27 0 013.2-1.14 2.41 2.41 0 011.78.62 2.46 2.46 0 01.61 1.78v6zm-83.22 16v-7.64l-2.45 5H39l-2.45-5v7.68h-2.09V95.65h2.62l3 6.3 3-6.3h2.57v11.09zm9.2 0l-.19-.72a3.84 3.84 0 01-1.15.71 3.41 3.41 0 01-1.25.26 2.66 2.66 0 01-1.9-.67 2.36 2.36 0 01-.71-1.79 2.45 2.45 0 01.38-1.35 2.6 2.6 0 011.11-.92 3.86 3.86 0 011.69-.34 7.72 7.72 0 011.7.21v-.8a1.34 1.34 0 00-.3-1 1.75 1.75 0 00-1.12-.27 9.78 9.78 0 00-2.9.49V99a6.19 6.19 0 011.49-.49 9.13 9.13 0 011.82-.18 3.63 3.63 0 012.41.66 2.63 2.63 0 01.76 2.09v5.67zm-1.94-1.32a2.13 2.13 0 00.83-.17 3.41 3.41 0 00.79-.48v-1.39a7.59 7.59 0 00-1.26-.12c-.93 0-1.4.38-1.4 1.12a1 1 0 001 1zm11.89 1a3.53 3.53 0 01-1 .4 5.79 5.79 0 01-1.26.13 3.92 3.92 0 01-3-1.09 5.21 5.21 0 01.06-6.3 4 4 0 013-1.14 4.54 4.54 0 012.16.52v1.55a6.3 6.3 0 00-1.73-.27 2.17 2.17 0 00-1.64.56 2.55 2.55 0 00-.53 1.8v.23a2.56 2.56 0 00.52 1.78 2.08 2.08 0 001.61.57 7 7 0 001.82-.29zm6.91.36v-5.36a1.36 1.36 0 00-.28-1 1.15 1.15 0 00-.88-.31 3.21 3.21 0 00-1.75.55v6.08h-2.33V94.9h2.33v4.4a4.93 4.93 0 012.88-1 2.16 2.16 0 012.36 2.39v6zm5.78-9.44a1.42 1.42 0 01-1-.34 1.19 1.19 0 01-.37-.91 1.17 1.17 0 01.37-.91 1.38 1.38 0 011-.34 1.39 1.39 0 011 .34 1.17 1.17 0 01.36.91 1.18 1.18 0 01-.36.91 1.44 1.44 0 01-1 .34zm-1.17 9.44v-8.18h2.34v8.18zm9.89 0v-5.36a1.36 1.36 0 00-.29-1 1.12 1.12 0 00-.88-.31 3.16 3.16 0 00-1.74.55v6.08h-2.34v-8.14h1.92l.22.88a4.91 4.91 0 013.08-1.12 2.14 2.14 0 012.36 2.37v6zm6.29-3.52a2 2 0 00.64 1.52 2.77 2.77 0 001.8.48 9.68 9.68 0 002.5-.4v1.55a5.39 5.39 0 01-1.34.45 8.35 8.35 0 01-1.6.16 4.09 4.09 0 01-3.1-1.11 5.4 5.4 0 010-6.41 3.8 3.8 0 012.93-1.14 3.26 3.26 0 012.44.87 3.41 3.41 0 01.86 2.49v.8c0 .3-.07.54-.11.74zm1.74-3.28a1.62 1.62 0 00-1.24.47 2.12 2.12 0 00-.52 1.37h3.14v-.28q0-1.56-1.38-1.56zm9.52 6.8V95.65h2.4v9.17H109v1.92zm10.28-3.52a2.06 2.06 0 00.64 1.52 2.82 2.82 0 001.81.48 9.74 9.74 0 002.5-.4v1.55a5.54 5.54 0 01-1.34.45 8.45 8.45 0 01-1.61.18 4.08 4.08 0 01-3.09-1.11 5.35 5.35 0 010-6.41 3.79 3.79 0 012.93-1.14 3.28 3.28 0 012.44.87 3.4 3.4 0 01.85 2.49 5.91 5.91 0 010 .8 5.37 5.37 0 01-.11.74zm1.75-3.28a1.61 1.61 0 00-1.24.47 2.07 2.07 0 00-.52 1.37h3.13v-.28c-.01-1.04-.47-1.56-1.38-1.56zm9.85 6.8l-.19-.72a3.91 3.91 0 01-1.14.71 3.46 3.46 0 01-1.27.27 2.66 2.66 0 01-1.9-.67 2.58 2.58 0 01-.32-3.14 2.52 2.52 0 011.1-.92 3.91 3.91 0 011.7-.34 7.71 7.71 0 011.69.21v-.8a1.34 1.34 0 00-.3-1 1.73 1.73 0 00-1.12-.27 9.78 9.78 0 00-2.9.49V99a6.34 6.34 0 011.49-.49 9.28 9.28 0 011.82-.18 3.62 3.62 0 012.41.66 2.63 2.63 0 01.76 2.09v5.67zm-1.93-1.32a2.08 2.08 0 00.82-.17 3.21 3.21 0 00.79-.48v-1.39a7.59 7.59 0 00-1.26-.12c-.93 0-1.39.38-1.39 1.12a.94.94 0 001 1zm6 1.32v-8.18h1.92l.29 1.22a4.31 4.31 0 011.21-1 2.51 2.51 0 011.2-.3 4.72 4.72 0 01.64 0v2.16a4.31 4.31 0 00-1-.1 4.92 4.92 0 00-1.93.46v5.78zm11.73 0v-5.36a1.36 1.36 0 00-.29-1 1.14 1.14 0 00-.88-.31 3.16 3.16 0 00-1.74.55v6.08h-2.34v-8.14H136l.22.88a4.91 4.91 0 013.08-1.12 2.14 2.14 0 012.36 2.37v6zm5.77-9.44a1.4 1.4 0 01-1-.34 1.16 1.16 0 01-.37-.91 1.14 1.14 0 01.37-.91 1.35 1.35 0 011-.34 1.38 1.38 0 011 .34 1.14 1.14 0 01.37.91 1.16 1.16 0 01-.37.91 1.42 1.42 0 01-1.03.34zm-1.17 9.44v-8.18h2.33v8.18zm9.88 0v-5.36a1.36 1.36 0 00-.28-1 1.15 1.15 0 00-.88-.31 3.21 3.21 0 00-1.75.55v6.08h-2.33v-8.14h1.92l.22.88a4.89 4.89 0 013.07-1.12 2.16 2.16 0 012.37 2.37v6zm9.54-1a3.08 3.08 0 01-2.14.82 2.88 2.88 0 01-2.38-1.11 4.63 4.63 0 01-.89-3 4.7 4.7 0 01.9-3 2.88 2.88 0 012.4-1.14 3.25 3.25 0 012.32.94l.17-.7h1.92v7.54a4.14 4.14 0 01-1.08 3 4.09 4.09 0 01-3 1.08 6.55 6.55 0 01-3-.68V108a9.4 9.4 0 002.74.49 2.09 2.09 0 001.53-.48 2.28 2.28 0 00.47-1.6zm-1.42-.91a2.43 2.43 0 00.74-.12 2.53 2.53 0 00.68-.33v-3.93a2.87 2.87 0 00-1.54-.4q-1.53 0-1.53 2.37a3.25 3.25 0 00.4 1.82 1.4 1.4 0 001.25.59z" fill="#333"/>
    <path d="M73 19h54v54H73z" fill="url(#a)"/>
    <path d="M118 49l-.3-.3-2.1-.7a12.64 12.64 0 00-.2-3.9l2.1-.8c.2-.1.4-.2.4-.4a.64.64 0 000-.6l-2.8-6.2a.55.55 0 00-.9-.3h-.1l-2 1a25.72 25.72 0 00-2.9-2.8l1-2a.82.82 0 00-.4-1l-6.1-2.3h-1a1.38 1.38 0 00-.3.4l-.7 2.1h-.3v1.5a2.49 2.49 0 01.8.1c.4.1.7-.1.8-.6l.6-2 5 2-.9 1.8a.86.86 0 00.3.9 13.28 13.28 0 013.4 3.3.75.75 0 001 .2l1.9-1 2.1 4.8-1.9.7a.75.75 0 00-.5.8 14.73 14.73 0 01.2 4.7.62.62 0 00.5.8l2 .6-1.9 5-1.9-.9a.81.81 0 00-.9.3 14.72 14.72 0 01-3.2 3.4.65.65 0 00-.2.9l1 1.9-4.8 2.2-.8-2a.6.6 0 00-.8-.4l-1.5.2v1.4c.4 0 .8-.1 1.1-.1l.8 2.1c.1.2.2.4.4.4a.45.45 0 00.5 0l6.3-2.8a.7.7 0 00.4-.9v-.1l-1-2a18.57 18.57 0 002.7-2.9l2 .9c.4.1.8 0 .9-.3l2.3-6.1v-1zm-10.1-2.6a7.72 7.72 0 00-6.5-7.6v1.4a6.26 6.26 0 010 12.3v1.4a7.71 7.71 0 006.5-7.5zm-7.5-15.3L96 28.4a.85.85 0 00-.7 0l-8.6 5.1a.82.82 0 00-.4.6v5.1l-3.9 2.1a1.28 1.28 0 00-.5.7v8.6a.71.71 0 00.3.6l4 2.6v4.7a.62.62 0 00.4.6l8.6 5c.1.1.2.1.4.1s.3 0 .4-.1l4.3-2.5c.2-.1.4-.4.3-.6V31.7c.1-.2-.1-.4-.2-.6zm-1.1 29.5l-3.6 2.1-3.3-1.9 4.1-2.4-.7-1.2-4.7 2.8-3.3-1.8v-4.3l3.8-2.2-.7-1.2-3.9 2.2-3.6-2.5v-3.4l3.9-2.2-.8-1.2-3.1 1.7v-2.7l3.6-1.9 3.6 2v3.4l-4 2.3.7 1.3 4.1-2.4 3.6 1.8V53l-4.6 2.6.7 1.3 8.2-4.8v8.5zm-2.9-8.5v-3.9a.75.75 0 00-.4-.7l-3.9-2v-3.2L96 40a.82.82 0 00.4-.6v-5.7H95v5.2l-3.6 2-3.6-2v-4.7l2.8-1.7v4.1h1.5v-5l3.6-2.1 3.6 2.2v12.6l-2.5-1.5-.8 1.3 3.3 1.8v4.6z" fill="#fff"/>
</svg>
