<svg xmlns="http://www.w3.org/2000/svg" width="200" height="128">
    <defs>
        <linearGradient id="a" x1="262.09" y1="128.5" x2="262.09" y2="-21.5" gradientTransform="rotate(45 143.997 -165.004)" gradientUnits="userSpaceOnUse">
            <stop offset="0" stop-color="#c8511b"/>
            <stop offset="1" stop-color="#f90"/>
        </linearGradient>
    </defs>
    <path d="M92.17 90.74l-1-2.76h-4.23L86 90.74h-1.57l3.84-10.4h1.65l3.84 10.4zm-4.84-3.92h3.49l-1.75-5.1zm14.85 3.92l-2-8.15-2 8.15h-1.66l-3-10.4h1.67l2.23 8.72 2-8.42h1.68l2 8.43 2.25-8.73h1.61l-3 10.4zm8.2-4.94a4.23 4.23 0 01-1.78-1.12A2.51 2.51 0 01108 83a2.68 2.68 0 01.42-1.49 2.8 2.8 0 011.21-1 4.24 4.24 0 011.85-.37 7.83 7.83 0 012.78.54v1.21a9.23 9.23 0 00-2.67-.46 2.51 2.51 0 00-1.51.39 1.33 1.33 0 00-.53 1.14 1.27 1.27 0 00.36 1 4 4 0 001.33.71l1.37.51a4 4 0 011.74 1.09 2.44 2.44 0 01.54 1.64 2.86 2.86 0 01-1 2.3 4.21 4.21 0 01-2.77.85 6.84 6.84 0 01-3-.61v-1.2a9.39 9.39 0 003 .52 2.67 2.67 0 001.67-.46 1.49 1.49 0 00.61-1.26 1.33 1.33 0 00-.35-.93 3.51 3.51 0 00-1.19-.69zm-88.66 19.94v-10.4h6.84v1.74H24v2.46h3.7v1.74H24V104h4.59v1.74zm11.89-.15a3.56 3.56 0 01-1.35.25c-1.35 0-2-.75-2-2.26v-8.94h2.19v8.76a.92.92 0 00.14.59.58.58 0 00.47.17 4.67 4.67 0 00.57 0zm3-3.15a1.91 1.91 0 00.6 1.43 2.67 2.67 0 001.69.44 8.78 8.78 0 002.34-.37v1.45a5 5 0 01-1.25.42 7.51 7.51 0 01-1.51.15 3.83 3.83 0 01-2.9-1 4.18 4.18 0 01-1-3 4.23 4.23 0 011-3 3.57 3.57 0 012.75-1.06 3.05 3.05 0 012.28.81 3.2 3.2 0 01.79 2.29 7.24 7.24 0 010 .75 6.62 6.62 0 01-.1.69zm1.63-3.08a1.54 1.54 0 00-1.16.44 2 2 0 00-.49 1.29h2.94v-.26q-.01-1.47-1.3-1.47zm14.34 6.38v-5.19c0-.68-.3-1-.91-1a3.82 3.82 0 00-1.64.39v5.82h-2.2v-5.19c0-.68-.3-1-.91-1a3.65 3.65 0 00-1.65.4v5.81h-2.19v-7.71h1.8l.19.74a6.87 6.87 0 011.43-.75 4.24 4.24 0 011.32-.21 2 2 0 011.9 1 6.17 6.17 0 011.44-.74 4.41 4.41 0 011.4-.22 2.16 2.16 0 011.62.58 2.22 2.22 0 01.58 1.64v5.67zm5.9-3.3a1.91 1.91 0 00.6 1.43 2.67 2.67 0 001.69.44 8.78 8.78 0 002.34-.37v1.45a5 5 0 01-1.25.42 7.51 7.51 0 01-1.51.15 3.83 3.83 0 01-2.9-1 4.18 4.18 0 01-1-3 4.23 4.23 0 011-3 3.57 3.57 0 012.75-1.06 3.05 3.05 0 012.28.81 3.2 3.2 0 01.81 2.34 7.24 7.24 0 01-.05.75 6.62 6.62 0 01-.1.69zm1.63-3.08a1.54 1.54 0 00-1.16.44 2 2 0 00-.49 1.29h2.94v-.26q-.01-1.47-1.3-1.47zm9.77 6.38v-5a1.27 1.27 0 00-.27-.9 1.1 1.1 0 00-.83-.28 3 3 0 00-1.63.51v5.7H65v-7.7h1.8l.21.83a4.61 4.61 0 012.88-1.05 2.24 2.24 0 011.64.57 2.27 2.27 0 01.58 1.65v5.67zm8.82-.2a5 5 0 01-1.82.32 2.57 2.57 0 01-1.88-.6 2.5 2.5 0 01-.61-1.86v-3.71h-1.16v-1.35l1.21-.24.33-2.1h1.8v2.07h2.07v1.62h-2.07v3.6a.84.84 0 00.24.68 1.3 1.3 0 00.81.19 7.33 7.33 0 001.07-.09zm5.74.2l-.18-.68a3.79 3.79 0 01-1.07.67A3.25 3.25 0 0182 106a2.5 2.5 0 01-1.78-.63 2.21 2.21 0 01-.66-1.68 2.25 2.25 0 01.36-1.27 2.38 2.38 0 011-.86 3.73 3.73 0 011.59-.32 7.35 7.35 0 011.59.2v-.75a1.25 1.25 0 00-.28-1 1.61 1.61 0 00-1-.25 9.17 9.17 0 00-2.72.46v-1.42a5.34 5.34 0 011.4-.46 8.13 8.13 0 011.71-.17 3.32 3.32 0 012.25.62 2.45 2.45 0 01.72 2v5.31zm-1.81-1.23a2 2 0 00.77-.17 3 3 0 00.74-.45v-1.3a7.62 7.62 0 00-1.18-.11c-.87 0-1.31.35-1.31 1a.9.9 0 001 1zm9 1.08a3.56 3.56 0 01-1.35.25c-1.35 0-2-.75-2-2.26v-8.94h2.19v8.76a.92.92 0 00.14.59.58.58 0 00.47.17 4.67 4.67 0 00.57 0zm14.16.15v-7.2l-2.29 4.66h-2l-2.3-4.66v7.2h-2v-10.4h2.46l2.84 5.91 2.85-5.91h2.41v10.4zm5.87-3.3a1.91 1.91 0 00.6 1.43 2.67 2.67 0 001.69.44 8.78 8.78 0 002.34-.37v1.45a5 5 0 01-1.25.42 7.51 7.51 0 01-1.51.15 3.83 3.83 0 01-2.9-1 4.18 4.18 0 01-1-3 4.23 4.23 0 011-3 3.57 3.57 0 012.75-1.06 3.05 3.05 0 012.28.81 3.2 3.2 0 01.81 2.34 7.24 7.24 0 01-.05.75 6.62 6.62 0 01-.1.69zm1.63-3.08a1.54 1.54 0 00-1.16.44 2 2 0 00-.49 1.29h2.94v-.26q-.03-1.47-1.32-1.47zm10 6.38l-.18-.68a3.17 3.17 0 01-2.2.84 3 3 0 01-1.67-.47 3.13 3.13 0 01-1.12-1.37 5.31 5.31 0 01-.39-2.12 4.68 4.68 0 01.88-3 2.84 2.84 0 012.34-1.11 3.26 3.26 0 012.06.67v-3.86h2.19v11.1zm-1.66-1.49a2.53 2.53 0 001.38-.42v-4a2.94 2.94 0 00-1.49-.37 1.29 1.29 0 00-1.18.59 3.19 3.19 0 00-.39 1.79 3.1 3.1 0 00.41 1.79 1.44 1.44 0 001.26.62zm6.82-7.36a1.29 1.29 0 01-.91-.32 1.09 1.09 0 01-.35-.85 1.11 1.11 0 01.35-.86 1.29 1.29 0 01.91-.31 1.33 1.33 0 01.92.31 1.11 1.11 0 01.34.86 1.09 1.09 0 01-.34.85 1.34 1.34 0 01-.93.32zm-1.09 8.85v-7.67h2.19v7.67zm8.74 0l-.18-.68a3.79 3.79 0 01-1.07.67 3.25 3.25 0 01-1.18.25 2.5 2.5 0 01-1.78-.63 2.22 2.22 0 01-.67-1.68 2.18 2.18 0 01.37-1.27 2.32 2.32 0 011-.86 3.73 3.73 0 011.59-.32 7.35 7.35 0 011.59.2v-.75a1.25 1.25 0 00-.29-1 1.6 1.6 0 00-1-.25 9.12 9.12 0 00-2.72.46v-1.4a5.22 5.22 0 011.4-.46 8.07 8.07 0 011.71-.17 3.32 3.32 0 012.25.62 2.45 2.45 0 01.71 2v5.31zm-1.82-1.23a2.07 2.07 0 00.78-.17 3 3 0 00.74-.45v-1.3a7.63 7.63 0 00-1.19-.11c-.87 0-1.3.35-1.3 1a.94.94 0 00.26.72 1 1 0 00.7.31zm7.91 1.23v-8.6H139v-1.8h8.57v1.8h-3.16v8.6zm10.44 0l-.18-.68a3.79 3.79 0 01-1.07.67 3.25 3.25 0 01-1.18.25 2.5 2.5 0 01-1.78-.63 2.22 2.22 0 01-.67-1.68 2.25 2.25 0 01.36-1.27 2.41 2.41 0 011-.86 3.73 3.73 0 011.59-.32 7.35 7.35 0 011.59.2v-.75a1.25 1.25 0 00-.29-1 1.61 1.61 0 00-1.05-.25 9.11 9.11 0 00-2.71.46v-1.4a5.22 5.22 0 011.4-.46 8 8 0 011.71-.17 3.34 3.34 0 012.25.62 2.45 2.45 0 01.71 2v5.31zm-1.82-1.23a2.07 2.07 0 00.78-.17 3 3 0 00.74-.45v-1.3a7.73 7.73 0 00-1.19-.11c-.87 0-1.3.35-1.3 1a.89.89 0 001 1zm6.77-7.62a1.32 1.32 0 01-.92-.32 1.09 1.09 0 01-.34-.85 1.11 1.11 0 01.34-.86 1.31 1.31 0 01.92-.31 1.29 1.29 0 01.91.31 1.11 1.11 0 01.35.86 1.09 1.09 0 01-.35.85 1.29 1.29 0 01-.92.32zm-1.1 8.85v-7.67h2.19v7.67zm7.73-.15a3.56 3.56 0 01-1.35.25c-1.35 0-2-.75-2-2.26v-8.94H163v8.76a.92.92 0 00.14.59.58.58 0 00.47.17 4.67 4.67 0 00.57 0zm4.79.41a3.65 3.65 0 01-2.79-1.07 5 5 0 010-6 4.17 4.17 0 015.58 0 4.92 4.92 0 010 6A3.65 3.65 0 01169 106zm0-1.68c1.05 0 1.58-.79 1.58-2.38s-.58-2.41-1.58-2.41-1.57.79-1.57 2.37.47 2.38 1.57 2.38zm5.51 1.46v-7.71h1.8l.27 1.14a4.48 4.48 0 011.13-.94 2.47 2.47 0 011.13-.27 4.22 4.22 0 01.6 0v2a4.45 4.45 0 00-.93-.09 4.7 4.7 0 00-1.81.34v5.42z" fill="#333"/>
    <path d="M73 19h54v54H73z" fill="url(#a)"/>
    <path d="M100.7 62.9h-1.4v-6.5l-10.5-5.9a.61.61 0 01-.3-.7c.1-.3.1-.5.3-.6l5-2.9-5-2.8c-.4-.2-.4-.6-.2-1 .1-.1.1-.2.2-.3l7.8-4.5-1-.6a.82.82 0 01-.4-.6V32a.75.75 0 01.4-.7l4-2.3a.85.85 0 01.7 0l3.9 2.3a.84.84 0 01.4.7v4.6a.55.55 0 01-.4.6l-.9.6 7.9 4.5c.4.2.4.6.2 1-.1.1-.1.2-.2.3l-5 2.8 5 2.8a.61.61 0 01.3.7c-.1.3-.1.5-.3.6l-10.5 6zm-10.1-13l9.4 5.4 9.4-5.4-4.7-2.7-4.1 2.3v.3h-1.4v-.3l-4-2.3zm0-7l9.4 5.4 9.4-5.4-7.5-4.2-1.2.7v3.4h-1.4v-3.4l-1.2-.7zm6.2-6.7l3.2 1.9 3.2-1.9v-3.7l-3.2-1.9-3.2 1.9zm7.7 25.1l-.8-1.3 10-5.7v-5.7h1.4v6.1a.91.91 0 01-.3.7zm-9 0l-10.3-5.9a.61.61 0 01-.3-.7v-6.1h1.4v5.7l10 5.7zm19.6-17.2h-1.4v-5.7l-6.4-3.6.8-1.2 6.7 3.9a.61.61 0 01.3.7zm-28.8 0h-1.4v-6a.91.91 0 01.3-.7l6.7-3.9.8 1.3-6.4 3.6z" fill="#fff"/>
</svg>
