<svg xmlns="http://www.w3.org/2000/svg" width="200" height="128">
    <defs>
        <linearGradient id="a" x1="-219.5" y1="122.09" x2="-69.5" y2="122.09" gradientTransform="rotate(-45 -95.008 -165.006)" gradientUnits="userSpaceOnUse">
            <stop offset="0" stop-color="#4d27a8"/>
            <stop offset="1" stop-color="#a166ff"/>
        </linearGradient>
    </defs>
    <path d="M78.85 90.74l-1-2.95h-4.59l-1 2.95h-1.67l4.1-11.09h1.76l4.09 11.09zm-5.17-4.18h3.73l-1.87-5.44zm18.58 4.18v-5.51a1.83 1.83 0 00-.26-1.18 1.13 1.13 0 00-1-.39 4.49 4.49 0 00-2.35.72 1.94 1.94 0 010 .24v6.12h-1.58v-5.51a1.9 1.9 0 00-.3-1.18 1.13 1.13 0 00-1-.39 4.35 4.35 0 00-2.34.71v6.37h-1.54v-8.12h1.33l.16.82a5.32 5.32 0 013-1.06 2 2 0 012 1.14 5.43 5.43 0 013.17-1.14 2.23 2.23 0 011.7.63 2.49 2.49 0 01.59 1.77v6zm8.68 0l-.12-.84a4.2 4.2 0 01-1.28.77 3.76 3.76 0 01-1.38.27 2.54 2.54 0 01-1.82-.64 2.31 2.31 0 01-.68-1.74 2.28 2.28 0 01.84-1.86 3.34 3.34 0 012.24-.7 8.38 8.38 0 012 .27v-1a1.59 1.59 0 00-.39-1.22 2 2 0 00-1.35-.4 8.71 8.71 0 00-2.81.49V83a5.17 5.17 0 011.41-.47 8.55 8.55 0 011.68-.17 3.29 3.29 0 012.24.64 2.42 2.42 0 01.72 1.92v5.8zm-2.4-1a3.75 3.75 0 002.21-.81V87.3a6.86 6.86 0 00-1.69-.21c-1.21 0-1.81.46-1.81 1.39a1.27 1.27 0 00.33.94 1.37 1.37 0 00.96.32zm5.46 1v-1.22l4.66-5.65h-4.5v-1.25h6.26v1.2l-4.72 5.67h4.76v1.25zm11.52.24a3.63 3.63 0 01-2.85-1.14 5.4 5.4 0 010-6.32 4.13 4.13 0 015.7 0 5.4 5.4 0 010 6.32 3.63 3.63 0 01-2.85 1.16zm0-1.28c1.5 0 2.26-1 2.26-3s-.76-3-2.26-3-2.26 1-2.26 3 .74 3 2.26 3zm11.31 1v-5.39a1.9 1.9 0 00-.34-1.25 1.37 1.37 0 00-1.08-.4 4.45 4.45 0 00-2.48.82v6.26h-1.59v-8.12h1.33l.16.9a5.27 5.27 0 013.2-1.14 2.41 2.41 0 011.78.62 2.46 2.46 0 01.61 1.78v6zm-59.07 16V95.65H72a3.91 3.91 0 012.74.91 3.2 3.2 0 011 2.48 3 3 0 01-.53 1.73 3.52 3.52 0 01-1.49 1.2l2.75 4.77H74l-2.4-4.31h-1.54v4.31zm2.3-6h1.67a1.5 1.5 0 001.68-1.7 1.46 1.46 0 00-1.65-1.66h-1.7zm11.21 6.3a3.89 3.89 0 01-3-1.15 5.28 5.28 0 010-6.37 4.45 4.45 0 015.95 0 5.28 5.28 0 010 6.37 3.89 3.89 0 01-2.95 1.15zm0-1.8c1.12 0 1.68-.84 1.68-2.54s-.56-2.53-1.68-2.53-1.69.85-1.69 2.53.57 2.52 1.69 2.52zm11.31 1.56l-.23-.87a4.77 4.77 0 01-3 1.11 2.23 2.23 0 01-1.7-.65 2.54 2.54 0 01-.61-1.79v-6h2.34v5.33c0 .86.37 1.29 1.12 1.29a3 3 0 001.63-.51v-6.11h2.37v8.18zm9-.21a5.41 5.41 0 01-1.94.33 2.73 2.73 0 01-2-.64 2.63 2.63 0 01-.65-2v-3.95h-1.21v-1.44l1.29-.26.35-2.24h1.92v2.21h2.21v1.73h-2.21v3.84a.89.89 0 00.26.72 1.37 1.37 0 00.86.21 8.39 8.39 0 001.14-.1zm3.18-3.31a2.06 2.06 0 00.64 1.52 2.82 2.82 0 001.81.48 9.68 9.68 0 002.5-.4v1.55a5.54 5.54 0 01-1.34.45 8.37 8.37 0 01-1.61.16 4.08 4.08 0 01-3.09-1.11 5.35 5.35 0 010-6.41 3.79 3.79 0 012.93-1.14 3.28 3.28 0 012.44.87 3.4 3.4 0 01.85 2.49 7.91 7.91 0 010 .8 7.18 7.18 0 01-.12.74zm1.75-3.28a1.62 1.62 0 00-1.24.47 2.07 2.07 0 00-.52 1.37h3.13v-.28c.02-1.06-.43-1.58-1.35-1.58zm9.15 4.57a10.56 10.56 0 003.17.61 2.2 2.2 0 001.5-.45 1.65 1.65 0 00.51-1.31 1.52 1.52 0 00-.51-1.27 2.53 2.53 0 00-1.58-.41 23.22 23.22 0 00-2.63.16v-1.46l.29-4.75h6.29v1.82h-4.3l-.18 2.63a5.67 5.67 0 011.38-.16 3.69 3.69 0 012.64.92 3.18 3.18 0 011 2.45 3.52 3.52 0 01-.51 1.89 3.46 3.46 0 01-1.49 1.3 5.09 5.09 0 01-2.24.5 8.06 8.06 0 01-3.28-.68zm13.52-4.24a3.75 3.75 0 012.42.91 2.92 2.92 0 01.88 2.2 3.48 3.48 0 01-.52 1.87 3.43 3.43 0 01-1.52 1.27 5.55 5.55 0 01-2.32.46 7.52 7.52 0 01-3-.66v-1.81a9.48 9.48 0 002.94.61 2.4 2.4 0 001.56-.44 1.56 1.56 0 00.54-1.29 1.28 1.28 0 00-.5-1.11 2.62 2.62 0 00-1.53-.36h-.71l-.78.07v-1.47l2.86-3.09h-4.24v-1.8H132v1.76z" fill="#333"/>
    <path d="M73 19h54v54H73z" fill="url(#a)"/>
    <path d="M92.7 49.9a9.18 9.18 0 002.8.5 2.16 2.16 0 001.7-.5 2 2 0 00.6-1.5 1.43 1.43 0 00-.6-1.5 3.2 3.2 0 00-1.9-.5 17.85 17.85 0 00-2.3.2v-1l.3-4.4h5.4v1.2h-4.1l-.2 3a6.6 6.6 0 011.4-.1 3.29 3.29 0 012.5.8 3.27 3.27 0 01-.2 4.7 4.68 4.68 0 01-2.8.9 6.71 6.71 0 01-2.8-.6zm11.7-4.3h.3a3.07 3.07 0 012.4.8 2.56 2.56 0 01.8 2.1 3 3 0 01-1.1 2.3 4.68 4.68 0 01-2.8.9 6.26 6.26 0 01-2.7-.6V50a8.57 8.57 0 002.7.5 2.5 2.5 0 001.8-.5 1.65 1.65 0 00.5-1.5c0-1.2-.7-1.8-2.3-1.8a6.6 6.6 0 00-1.4.1v-1l3.1-3.4h-4.3v-1.2h6v1.1zM100 59.7c-.1 0-.2-.1-.4-.1a22.92 22.92 0 00-7.5-2.9c-1.5-.3-6.5-1.4-6.5-5a7.49 7.49 0 011.4-4.1 11.27 11.27 0 002-5.9 10.56 10.56 0 00-1.7-5.7 1.39 1.39 0 010-.9l1.2-1.4a.65.65 0 01.9-.2 9.47 9.47 0 004.9 1.3 10 10 0 005.3-1.6 1.38 1.38 0 01.9 0 8.32 8.32 0 005.3 1.6 10.54 10.54 0 004.9-1.3 1.18 1.18 0 011 .1l1.1 1.5a.78.78 0 01.1.8 10.56 10.56 0 00-1.7 5.7 11.47 11.47 0 001.9 5.9 7.49 7.49 0 011.4 4.1c0 3.6-5 4.8-6.4 5.1a25.75 25.75 0 00-7.6 2.8c-.2.1-.4.1-.5.2zM88.8 35.6a10.62 10.62 0 011.6 6 12.55 12.55 0 01-2.1 6.6 8 8 0 00-1.3 3.4c0 2.6 4.4 3.5 5.3 3.7a22.61 22.61 0 017.6 2.9 24 24 0 017.7-2.9c.9-.1 5.3-1.1 5.2-3.7a7 7 0 00-1.2-3.4c-.9-1.7-2.2-3.7-2.2-6.6a11.32 11.32 0 011.7-6l-.4-.6a11.25 11.25 0 01-5.1 1.2 11.39 11.39 0 01-5.7-1.6 9.79 9.79 0 01-5.8 1.6 10.84 10.84 0 01-5-1.2zM100 64a2.27 2.27 0 01-.4-.1 21.9 21.9 0 00-8.1-3.6c-5.9-1.1-9.4-4.3-9.4-8.7a11.17 11.17 0 011.9-5.9 8.89 8.89 0 001.5-4.1 7.76 7.76 0 00-2.6-5.5.78.78 0 01-.2-1s0-.1.1 0c0-.1 4.2-5.1 5.2-6.5a.48.48 0 01.6-.2.76.76 0 01.5.2 7.2 7.2 0 005.4 2.6 6.26 6.26 0 005.1-2.8.61.61 0 011-.1.1.1 0 01.1.1c1.5 2 3.1 2.9 5.1 2.8a7.52 7.52 0 005.3-2.6 1.07 1.07 0 01.6-.2.76.76 0 01.5.2c.9 1.3 5.2 6.4 5.2 6.5a1.06 1.06 0 01.2.5.55.55 0 01-.3.5 7.76 7.76 0 00-2.6 5.5 7.77 7.77 0 001.4 4.1 11.27 11.27 0 012 5.9c0 4.3-3.5 7.6-9.5 8.7a20.12 20.12 0 00-8 3.6 1.49 1.49 0 01-.6.1zM84.2 35.5a8.48 8.48 0 012.6 6.1 9.76 9.76 0 01-1.6 4.8 10.4 10.4 0 00-1.8 5.2c0 5.3 6.3 6.8 8.2 7.1a21.23 21.23 0 018.3 3.6 22.81 22.81 0 018.3-3.6c1.9-.4 8.2-1.9 8.2-7.1 0-2.2-.9-3.6-1.7-5.2a9.55 9.55 0 01-1.7-4.8 9.17 9.17 0 012.6-6.1c-.9-1.2-3.1-3.8-4.2-5.3a9.42 9.42 0 01-5.8 2.6 6.88 6.88 0 01-5.7-2.9 8 8 0 01-5.8 2.9 8.21 8.21 0 01-5.8-2.6c-.9 1.4-3.2 4.1-4.1 5.3z" fill="#fff"/>
</svg>
