<svg xmlns="http://www.w3.org/2000/svg" width="200" height="128">
    <defs>
        <linearGradient id="a" x1="-213.09" y1="-359.5" x2="-213.09" y2="-209.5" gradientTransform="rotate(-135 3.993 -165)" gradientUnits="userSpaceOnUse">
            <stop offset="0" stop-color="#2e27ad"/>
            <stop offset="1" stop-color="#527fff"/>
        </linearGradient>
    </defs>
    <path d="M78.85 90.74l-1-2.95h-4.59l-1 2.95h-1.67l4.1-11.09h1.76l4.09 11.09zm-5.17-4.18h3.73l-1.87-5.44zm18.58 4.18v-5.51a1.83 1.83 0 00-.26-1.18 1.13 1.13 0 00-1-.39 4.49 4.49 0 00-2.35.72 1.94 1.94 0 010 .24v6.12h-1.58v-5.51a1.9 1.9 0 00-.3-1.18 1.13 1.13 0 00-1-.39 4.35 4.35 0 00-2.34.71v6.37h-1.54v-8.12h1.33l.16.82a5.32 5.32 0 013-1.06 2 2 0 012 1.14 5.43 5.43 0 013.17-1.14 2.23 2.23 0 011.7.63 2.49 2.49 0 01.59 1.77v6zm8.68 0l-.12-.84a4.2 4.2 0 01-1.28.77 3.76 3.76 0 01-1.38.27 2.54 2.54 0 01-1.82-.64 2.31 2.31 0 01-.68-1.74 2.28 2.28 0 01.84-1.86 3.34 3.34 0 012.24-.7 8.38 8.38 0 012 .27v-1a1.59 1.59 0 00-.39-1.22 2 2 0 00-1.35-.4 8.71 8.71 0 00-2.81.49V83a5.17 5.17 0 011.41-.47 8.55 8.55 0 011.68-.17 3.29 3.29 0 012.24.64 2.42 2.42 0 01.72 1.92v5.8zm-2.4-1a3.75 3.75 0 002.21-.81V87.3a6.86 6.86 0 00-1.69-.21c-1.21 0-1.81.46-1.81 1.39a1.27 1.27 0 00.33.94 1.37 1.37 0 00.96.32zm5.46 1v-1.22l4.66-5.65h-4.5v-1.25h6.26v1.2l-4.72 5.67h4.76v1.25zm11.52.24a3.63 3.63 0 01-2.85-1.14 5.4 5.4 0 010-6.32 4.13 4.13 0 015.7 0 5.4 5.4 0 010 6.32 3.63 3.63 0 01-2.85 1.16zm0-1.28c1.5 0 2.26-1 2.26-3s-.76-3-2.26-3-2.26 1-2.26 3 .74 3 2.26 3zm11.31 1v-5.39a1.9 1.9 0 00-.34-1.25 1.37 1.37 0 00-1.08-.4 4.45 4.45 0 00-2.48.82v6.26h-1.59v-8.12h1.33l.16.9a5.27 5.27 0 013.2-1.14 2.41 2.41 0 011.78.62 2.46 2.46 0 01.61 1.78v6zm-75 16V95.65h4a5 5 0 013.81 1.43 7 7 0 010 8.21 4.9 4.9 0 01-3.77 1.45zm2.4-9.24v7.38h1.38q2.89 0 2.89-3.54v-.3c0-2.34-1-3.52-2.91-3.52zM66.65 107a3.91 3.91 0 01-3-1.15 5.28 5.28 0 010-6.37 4.45 4.45 0 016 0 5.24 5.24 0 010 6.37 3.87 3.87 0 01-3 1.15zm0-1.8c1.12 0 1.68-.84 1.68-2.54s-.56-2.53-1.68-2.53S65 101 65 102.64s.53 2.54 1.65 2.54zm11.77 1.2a3.42 3.42 0 01-1 .4 5.73 5.73 0 01-1.26.13 3.88 3.88 0 01-3-1.09 4.36 4.36 0 01-1-3.13 4.42 4.42 0 011.09-3.17 4 4 0 013-1.14 4.54 4.54 0 012.16.52v1.55a6.36 6.36 0 00-1.73-.27 2.18 2.18 0 00-1.65.56 2.6 2.6 0 00-.53 1.8v.23a2.61 2.61 0 00.52 1.78 2.09 2.09 0 001.61.57 7 7 0 001.82-.29zm7.11.36l-.23-.87a4.75 4.75 0 01-3 1.11 2.23 2.23 0 01-1.7-.65 2.54 2.54 0 01-.61-1.79v-6h2.34v5.33c0 .86.37 1.29 1.12 1.29a3 3 0 001.63-.51v-6.11h2.34v8.18zm14.29 0v-5.56c0-.73-.33-1.09-1-1.09a4 4 0 00-1.74.42v6.21h-2.32v-5.54c0-.73-.32-1.09-1-1.09a4 4 0 00-1.76.43v6.2h-2.31v-8.18h1.92l.21.78a7.19 7.19 0 011.52-.79 4.46 4.46 0 011.4-.23 2.16 2.16 0 012 1 6.52 6.52 0 011.53-.78 4.7 4.7 0 011.49-.24 2.36 2.36 0 011.74.62 2.39 2.39 0 01.61 1.75v6zm6.28-3.52a2.06 2.06 0 00.64 1.52 2.82 2.82 0 001.81.48 9.68 9.68 0 002.5-.4v1.55a5.39 5.39 0 01-1.34.45 8.37 8.37 0 01-1.61.16 4.08 4.08 0 01-3.09-1.11 5.35 5.35 0 010-6.41 3.79 3.79 0 012.93-1.14 3.28 3.28 0 012.44.87 3.4 3.4 0 01.85 2.49 7.91 7.91 0 010 .8 7.18 7.18 0 01-.12.74zm1.75-3.28a1.62 1.62 0 00-1.24.47 2.07 2.07 0 00-.52 1.37h3.13v-.28c0-1.06-.45-1.58-1.37-1.58zm10.41 6.8v-5.36a1.36 1.36 0 00-.28-1 1.15 1.15 0 00-.88-.31 3.21 3.21 0 00-1.75.55v6.08H113v-8.16h1.92l.22.88a4.89 4.89 0 013.07-1.12 2.16 2.16 0 012.37 2.37v6zm9.41-.21a5.35 5.35 0 01-1.93.33 2.74 2.74 0 01-2-.64 2.67 2.67 0 01-.65-2v-3.95h-1.23v-1.44l1.29-.26.36-2.24h1.92v2.21h2.2v1.73h-2.2v3.84a.89.89 0 00.25.72 1.39 1.39 0 00.87.21 8.25 8.25 0 001.13-.1zm1.6.21V95.65h4a5 5 0 013.81 1.43 7 7 0 010 8.21 4.88 4.88 0 01-3.77 1.45zm2.4-9.24v7.38h1.38q2.89 0 2.89-3.54V101c0-2.34-1-3.52-2.91-3.52zm9 9.24V95.65h4a4 4 0 012.59.81 2.67 2.67 0 011 2.13 2.53 2.53 0 01-.38 1.4 2.47 2.47 0 01-1.11.91 2.93 2.93 0 011.56 1 2.68 2.68 0 01.54 1.7 2.79 2.79 0 01-1.07 2.29 4.57 4.57 0 01-2.88.85zm2.27-9.38v2.91h1.39c1 0 1.55-.48 1.55-1.44s-.47-1.47-1.42-1.47zm0 4.54V105h1.89c1.09 0 1.63-.51 1.63-1.53s-.58-1.59-1.74-1.59z" fill="#333"/>
    <path d="M73 19h54v54H73z" fill="url(#a)"/>
    <path d="M115.5 43.9l-2.7-2.7a.76.76 0 00-.5-.2h-.4l-2-2.3c-.1-.1-.4-.2-.5-.3h-8.5a.71.71 0 00-.7.8v15.9a.85.85 0 00.7.8h1v-1.4h-.2V39.9h7.4l1.1 1.1h-6.8a.71.71 0 00-.7.8v15.9a.85.85 0 00.7.8h3.3c-.1 1.7-4.3 3.6-10.5 3.6s-10.5-1.9-10.5-3.7v-5.3c1.9 1.6 5.8 2.7 10.5 2.7 1.1 0 2.2-.1 3.2-.2l-.1-1.3c-1 .1-2.1.1-3.1.1-6.1 0-10.4-1.9-10.5-3.6v-6.2c1.9 1.6 5.8 2.7 10.5 2.6 1.1 0 2.2-.1 3.2-.1l-.1-1.4c-1 .1-2.1.1-3.1.2-6.1 0-10.4-1.9-10.5-3.7v-6.3c2.2 1.7 6.4 2.6 10.5 2.6s8.4-.9 10.5-2.6v1.9h1.4v-4.4c0-3.2-6.1-5-11.9-5s-11.9 1.8-11.9 5v25c0 3.2 6.1 5 11.9 5s11.8-1.7 11.9-5h6.9c.4 0 .6-.3.7-.7V44.4a1.06 1.06 0 00-.2-.5zm-19.3-14c6.2 0 10.5 1.9 10.5 3.6s-4.3 3.7-10.5 3.7-10.5-1.9-10.5-3.7 4.3-3.7 10.5-3.6zM114 44.4h-1.7v-1.7zm-10 12.8V42.5h6.9v2.6a.85.85 0 00.7.8h2.7v11.3zm4.3-3.8h.3v1.4h-.5a1 1 0 01-.9-.4 1.88 1.88 0 01-.3-1.5c-.1-1.3-.8-1.5-.8-1.5a.63.63 0 01-.4-.9 1 1 0 01.4-.5c.1 0 .7-.3.7-1.5 0-.7.4-1.6 1.3-1.6h.5v1.3h-.3v.2a3.31 3.31 0 01-.7 2.3 2.93 2.93 0 01.7 2.2zm5-2.4a.56.56 0 01-.5.6c-.1 0-.7.3-.7 1.5 0 .7-.4 1.6-1.2 1.6h-.5v-1.4h.3v-.2a2.93 2.93 0 01.7-2.2 2.93 2.93 0 01-.7-2.2v-.5h-.3v-1.3h.5a1 1 0 01.9.4 1.74 1.74 0 01.3 1.4 1.69 1.69 0 00.7 1.5c.4.1.5.4.5.8z" fill="#fff"/>
</svg>
