<svg xmlns="http://www.w3.org/2000/svg" width="200" height="128">
    <defs>
        <linearGradient id="a" x1="262.09" y1="128.5" x2="262.09" y2="-21.5" gradientTransform="rotate(45 143.997 -165.004)" gradientUnits="userSpaceOnUse">
            <stop offset="0" stop-color="#b0084d"/>
            <stop offset="1" stop-color="#ff4f8b"/>
        </linearGradient>
    </defs>
    <path d="M91.65 90.74l-1-2.95h-4.59l-1 2.95h-1.67l4.1-11.09h1.76l4.09 11.09zm-5.17-4.18h3.73l-1.87-5.44zm15.84 4.18l-2.1-8.69-2.11 8.69h-1.82l-3.23-11.09h1.77l2.39 9.29 2.12-9h1.8l2.12 9 2.4-9.31h1.72l-3.24 11.09zm8.75-5.27a4.51 4.51 0 01-1.9-1.2 2.63 2.63 0 01-.59-1.77 3 3 0 01.44-1.6 3.09 3.09 0 011.29-1.09 4.52 4.52 0 012-.4 8.39 8.39 0 013 .57v1.3a10 10 0 00-2.85-.5 2.68 2.68 0 00-1.61.43 1.4 1.4 0 00-.56 1.21 1.33 1.33 0 00.38 1 4.07 4.07 0 001.42.76l1.46.55a4.31 4.31 0 011.86 1.16 2.61 2.61 0 01.57 1.75 3 3 0 01-1.1 2.45 4.5 4.5 0 01-2.95.91 7.29 7.29 0 01-3.2-.66v-1.27a9.87 9.87 0 003.17.56 2.85 2.85 0 001.78-.49 1.59 1.59 0 00.65-1.35 1.36 1.36 0 00-.37-1 3.73 3.73 0 00-1.28-.75zm-48.6 15.71a7 7 0 01.63-3.07 4.67 4.67 0 011.86-2 5.67 5.67 0 012.92-.71 5.86 5.86 0 012.87.68 4.64 4.64 0 011.87 2 6.71 6.71 0 01.67 3.12 7.06 7.06 0 01-.63 3.08 4.63 4.63 0 01-1.86 2 6.28 6.28 0 01-5.78 0 4.61 4.61 0 01-1.88-2 6.77 6.77 0 01-.67-3.1zm2.47 0a4.71 4.71 0 00.75 2.88 2.9 2.9 0 004.38 0 5.82 5.82 0 000-5.75 2.94 2.94 0 00-4.38 0 4.7 4.7 0 00-.75 2.87zM75.37 110V98.56h1.92l.19.77a3.55 3.55 0 011.16-.74 3.72 3.72 0 011.36-.27 3 3 0 012.46 1.14 4.8 4.8 0 01.91 3.07 5.71 5.71 0 01-.42 2.25 3.53 3.53 0 01-1.2 1.56 3 3 0 01-1.81.57 3.73 3.73 0 01-1.25-.21 2.88 2.88 0 01-1-.57V110zm3.9-10a3 3 0 00-1.56.43v4.21a2.88 2.88 0 001.56.43 1.48 1.48 0 001.32-.61 3.32 3.32 0 00.43-1.92 3.45 3.45 0 00-.42-1.93 1.49 1.49 0 00-1.33-.53zm9.41 4.4a.68.68 0 00-.18-.5 2.63 2.63 0 00-.75-.38l-1.25-.5a3.12 3.12 0 01-1.4-.94 2.24 2.24 0 01-.43-1.42 2.12 2.12 0 01.87-1.66 3.74 3.74 0 012.32-.66 5.81 5.81 0 012.48.53v1.55a8 8 0 00-2.27-.37 2.31 2.31 0 00-1 .16.54.54 0 00-.3.51.56.56 0 00.18.44 2.75 2.75 0 00.78.41l1.21.5a3.33 3.33 0 011.42.93 2.13 2.13 0 01.42 1.37 2.33 2.33 0 01-.9 1.91 3.64 3.64 0 01-2.38.73 6.36 6.36 0 01-2.91-.65v-1.56a9.5 9.5 0 002.9.5c.81-.02 1.19-.3 1.19-.82zm11.89 2.26l-1.76-7.83-1.7 7.83H94.5l-3.07-11.01h2.66l1.76 8.48 1.76-8.21h2.53l1.79 8.18 1.73-8.45h2.59l-3.06 11.09zm10.25.24a3.89 3.89 0 01-3-1.15 5.28 5.28 0 010-6.37 4.45 4.45 0 016 0 5.28 5.28 0 010 6.37 3.89 3.89 0 01-3 1.25zm0-1.8c1.12 0 1.68-.84 1.68-2.54s-.56-2.53-1.68-2.53-1.68.85-1.68 2.53.56 2.62 1.68 2.62zm5.88 1.56v-8.1h1.92l.28 1.22a4.45 4.45 0 011.21-1 2.55 2.55 0 011.21-.3 4.85 4.85 0 01.64 0v2.16a4.37 4.37 0 00-1-.1 5 5 0 00-1.96.46v5.78zm6.48 0V94.9h2.32v7.15l2.83-3.49h2.78l-3.37 3.9 3.63 4.28h-2.85l-3-3.73v3.73zm12.82-2.18a.68.68 0 00-.18-.5 2.63 2.63 0 00-.75-.38l-1.25-.5a3.12 3.12 0 01-1.4-.94 2.25 2.25 0 01-.44-1.42 2.12 2.12 0 01.88-1.76 3.74 3.74 0 012.32-.66 5.81 5.81 0 012.48.53v1.55a8 8 0 00-2.27-.37 2.31 2.31 0 00-1 .16.54.54 0 00-.3.51.56.56 0 00.18.44 2.75 2.75 0 00.78.41l1.21.5a3.33 3.33 0 011.42.93 2.13 2.13 0 01.42 1.37 2.33 2.33 0 01-.9 1.91 3.64 3.64 0 01-2.38.73 6.36 6.36 0 01-2.91-.65v-1.56a9.5 9.5 0 002.9.5c.77 0 1.19-.28 1.19-.8z" fill="#333"/>
    <path d="M73 19h54v54H73z" fill="url(#a)"/>
    <path d="M114.4 64h-4.3a.68.68 0 01-.7-.7v-7.2a.68.68 0 01.7-.7h1.4v-1.5h-10.8v1.5h1.5a.68.68 0 01.7.7v7.2a.68.68 0 01-.7.7h-4.4a.68.68 0 01-.7-.7v-7.2a.68.68 0 01.7-.7h1.5v-1.5H88.5v1.5h1.4a.68.68 0 01.7.7v7.2a.68.68 0 01-.7.7h-4.3a.68.68 0 01-.7-.7v-7.2a.68.68 0 01.7-.7H87v-2.2a.71.71 0 01.8-.7h11.5v-2.9h1.4v2.9h11.5a.85.85 0 01.8.7v2.2h1.4a.68.68 0 01.7.7v7.2a.68.68 0 01-.7.7zm-3.6-1.4h2.9v-5.8h-2.9zm-12.2 0h2.8v-5.8h-2.8zm-12.3 0h2.9v-5.8h-2.9zm15.6-14.4h-3.8a.55.55 0 01-.5-.3 1.06 1.06 0 01-.2-.5l.1-.9a7.58 7.58 0 01-1.6-.6l-.7.7a.73.73 0 01-1 0l-2.6-2.7a.67.67 0 010-1l.7-.6a11.11 11.11 0 01-.7-1.6h-.9a.87.87 0 01-.8-.6v-3.8a.68.68 0 01.7-.7h1a4.59 4.59 0 01.7-1.6l-.7-.6a.73.73 0 010-1l2.6-2.7a1.06 1.06 0 01.5-.2.76.76 0 01.5.2l.7.7a4.42 4.42 0 011.6-.6l-.1-.9a1.42 1.42 0 01.2-.6 1.06 1.06 0 01.5-.2h3.8a.76.76 0 01.5.2 1.07 1.07 0 01.2.6l-.1.8a4.59 4.59 0 011.6.7l.7-.7a2.19 2.19 0 01.5-.3.55.55 0 01.5.3l2.6 2.6a1.06 1.06 0 01.2.5.76.76 0 01-.2.5l-.7.7a7.74 7.74 0 01.7 1.6l.9-.1a1.42 1.42 0 01.6.2.76.76 0 01.2.5V40a.76.76 0 01-.2.5 1.07 1.07 0 01-.6.2l-.9-.1a4.59 4.59 0 01-.7 1.6l.7.6a.67.67 0 010 1l-2.6 2.7a1.06 1.06 0 01-.5.2.76.76 0 01-.5-.2l-.7-.7a4.42 4.42 0 01-1.6.6l.1 1a.76.76 0 01-.2.5.55.55 0 01-.5.3zm-3-1.5h2.2v-.8a.66.66 0 01.6-.7 9.17 9.17 0 002.3-.9.74.74 0 01.9.1l.5.6 1.6-1.6-.6-.5a.63.63 0 01-.1-.9 5.84 5.84 0 00.9-2.3c.1-.4.4-.6.7-.5h.8v-2.1h-.8a.66.66 0 01-.7-.6 7.26 7.26 0 00-.9-2.2.92.92 0 01.1-1l.6-.5-1.6-1.5-.5.6a.63.63 0 01-.9.1 5.84 5.84 0 00-2.3-.9.73.73 0 01-.6-.7v-.8h-2.2v.8a.66.66 0 01-.6.7 6.5 6.5 0 00-2.3.9.74.74 0 01-.9-.1l-.5-.7-1.5 1.5.6.5a.63.63 0 01.1.9 5.84 5.84 0 00-.9 2.3c-.1.4-.4.6-.7.5h-.8v2.2h.8a.66.66 0 01.7.6 5.39 5.39 0 00.9 2.2.74.74 0 01-.1.9l-.6.5 1.5 1.6.5-.6a.63.63 0 01.9-.1 5.84 5.84 0 002.3.9.76.76 0 01.6.8zm1.1-4.2a4.45 4.45 0 114.5-4.4 4.4 4.4 0 01-4.5 4.4zm0-7.4a3 3 0 00-3 3 3 3 0 103-3z" fill="#fff"/>
</svg>
