<svg xmlns="http://www.w3.org/2000/svg" width="200" height="128">
    <defs>
        <linearGradient id="a" x1="-213.1" y1="-359.5" x2="-213.1" y2="-209.5" gradientTransform="rotate(-135 3.988 -164.999)" gradientUnits="userSpaceOnUse">
            <stop offset="0" stop-color="#b0084d"/>
            <stop offset="1" stop-color="#ff4f8b"/>
        </linearGradient>
    </defs>
    <path d="M78.85 90.74l-1-2.95h-4.59l-1 2.95h-1.67l4.1-11.09h1.76l4.09 11.09zm-5.17-4.18h3.73l-1.87-5.44zm18.58 4.18v-5.51a1.83 1.83 0 00-.26-1.18 1.13 1.13 0 00-1-.39 4.49 4.49 0 00-2.35.72 1.94 1.94 0 010 .24v6.12h-1.58v-5.51a1.9 1.9 0 00-.3-1.18 1.13 1.13 0 00-1-.39 4.35 4.35 0 00-2.34.71v6.37h-1.54v-8.12h1.33l.16.82a5.32 5.32 0 013-1.06 2 2 0 012 1.14 5.43 5.43 0 013.17-1.14 2.23 2.23 0 011.7.63 2.49 2.49 0 01.59 1.77v6zm8.68 0l-.12-.84a4.2 4.2 0 01-1.28.77 3.76 3.76 0 01-1.38.27 2.54 2.54 0 01-1.82-.64 2.31 2.31 0 01-.68-1.74 2.28 2.28 0 01.84-1.86 3.34 3.34 0 012.24-.7 8.38 8.38 0 012 .27v-1a1.59 1.59 0 00-.39-1.22 2 2 0 00-1.35-.4 8.71 8.71 0 00-2.81.49V83a5.17 5.17 0 011.41-.47 8.55 8.55 0 011.68-.17 3.29 3.29 0 012.24.64 2.42 2.42 0 01.72 1.92v5.8zm-2.4-1a3.75 3.75 0 002.21-.81V87.3a6.86 6.86 0 00-1.69-.21c-1.21 0-1.81.46-1.81 1.39a1.27 1.27 0 00.33.94 1.37 1.37 0 00.96.32zm5.46 1v-1.22l4.66-5.65h-4.5v-1.25h6.26v1.2l-4.72 5.67h4.76v1.25zm11.52.24a3.63 3.63 0 01-2.85-1.14 5.4 5.4 0 010-6.32 4.13 4.13 0 015.7 0 5.4 5.4 0 010 6.32 3.63 3.63 0 01-2.85 1.16zm0-1.28c1.5 0 2.26-1 2.26-3s-.76-3-2.26-3-2.26 1-2.26 3 .74 3 2.26 3zm11.31 1v-5.39a1.9 1.9 0 00-.34-1.25 1.37 1.37 0 00-1.08-.4 4.45 4.45 0 00-2.48.82v6.26h-1.59v-8.12h1.33l.16.9a5.27 5.27 0 013.2-1.14 2.41 2.41 0 011.78.62 2.46 2.46 0 01.61 1.78v6zm-29.68 16v-7.64l-2.45 5h-2.14l-2.45-5v7.68H88V95.65h2.62l3 6.3 3-6.3h2.57v11.09zm4.35-5.56a6.9 6.9 0 01.64-3.07 4.59 4.59 0 011.85-2 5.67 5.67 0 012.92-.71 5.83 5.83 0 012.87.68 4.73 4.73 0 011.88 2 6.84 6.84 0 01.66 3.12 6.62 6.62 0 01-.9 3.57 4.58 4.58 0 01-2.57 2 6 6 0 001.44.57 11.34 11.34 0 001.81.28v2a9.2 9.2 0 01-2.86-.82 10 10 0 01-2.54-1.76 5 5 0 01-3.81-1.61 6 6 0 01-1.39-4.21zm2.47 0a4.71 4.71 0 00.75 2.88 2.9 2.9 0 004.38 0 5.82 5.82 0 000-5.75 2.94 2.94 0 00-4.38 0 4.7 4.7 0 00-.72 2.91z" fill="#333"/>
    <path d="M73 19h54v54H73z" fill="url(#a)"/>
    <path d="M111.4 54.3a3.31 3.31 0 00-3.4 3.4 3.46 3.46 0 003.4 3.5 4 4 0 002.5-1 3.55 3.55 0 001-2.5 3.46 3.46 0 00-3.5-3.4zm1.4 4.9a2.05 2.05 0 01-2.9 0 1.55 1.55 0 01-.5-1.4 1.94 1.94 0 012-2 2 2 0 011.4 3.4zm3.5-16.7a3.5 3.5 0 000 7 3.5 3.5 0 000-7zm1.5 5a2 2 0 01-1.5.6 2.05 2.05 0 112.1-2 3 3 0 01-.6 1.4zM111.4 37a3.49 3.49 0 002.4-1 3.54 3.54 0 00-2.4-6 3.7 3.7 0 00-3.6 3.5 3.7 3.7 0 003.6 3.5zm0-5.5a1.68 1.68 0 011.4.6 2 2 0 01.6 1.4 2.2 2.2 0 01-.6 1.5 2.05 2.05 0 01-2.9 0 1.65 1.65 0 01-.5-1.5 1.89 1.89 0 012-2zm-25.2 17a3.1 3.1 0 00.9-1.8h3.8l-1.3 1.2 1 1.1 2.5-2.5a.67.67 0 000-1L90.6 43l-1 1.1 1.3 1.2h-3.8a3.54 3.54 0 00-4.2-2.7 3.35 3.35 0 00-1.7 1 3.27 3.27 0 000 4.8 3.59 3.59 0 005 .1zm-3.9-.6a2.07 2.07 0 01-.4-2.9c.1-.1.2-.3.4-.4a2.05 2.05 0 112.9 2.9 2.17 2.17 0 01-2.9.4zm26.3 1.1l2.4-2.5a.67.67 0 000-1l-.2-.2-2.2-2.3-1 1.1 1.2 1.2h-4.3a8.91 8.91 0 012.1-5.2.71.71 0 00-1-1 9 9 0 01-11.9 0 .71.71 0 00-1 1 9 9 0 010 11.9.73.73 0 000 1 .67.67 0 001 0 9 9 0 0111.9 0 .67.67 0 001 0 .72.72 0 000-1 7.85 7.85 0 01-2.1-5.3h4.3l-1.2 1.2zm-4.9 1.1a11.58 11.58 0 00-8.2 0 11.31 11.31 0 000-8.1 11.58 11.58 0 008.2 0 12.49 12.49 0 000 8.1zM93 31.6l-.6-1.3a17.41 17.41 0 0115.2.3l-.8 1.3a15.9 15.9 0 00-13.8-.3zm-8.6 9.8L83 41a16.88 16.88 0 011.9-4.1l1.2.8a14 14 0 00-1.7 3.7zm30.2-4.1a17.72 17.72 0 011.5 3.1l-1.4.4a23.94 23.94 0 00-1.3-2.8zm.2 13.4l1.4.4a29.17 29.17 0 01-1.4 3.1l-1.3-.7a11.71 11.71 0 001.3-2.8zm-7.9 9.3l.7 1.3a19.69 19.69 0 01-8 2 17.08 17.08 0 01-7.7-1.8l.7-1.3a15.68 15.68 0 0014.3-.2zm-21.1-6.1l-1.2.7A28.33 28.33 0 0183 51l1.4-.4a25.18 25.18 0 001.4 3.3zm2.8.4a3.31 3.31 0 00-3.4 3.4 3.46 3.46 0 003.4 3.5 4 4 0 002.5-1 3.55 3.55 0 001-2.5 3.4 3.4 0 00-3.5-3.4zm0 5.5a2.11 2.11 0 01-2.1-2.1 2 2 0 012.1-2 2 2 0 011.5.6 1.55 1.55 0 01.5 1.4 2 2 0 01-2 2.1zm0-22.8a4 4 0 002.5-1 3.54 3.54 0 10-5 0 3.74 3.74 0 002.5 1zm-1.4-4.9a2 2 0 011.4-.6 2 2 0 012.1 2 2.2 2.2 0 01-.6 1.5 1.93 1.93 0 01-2.8 0 2 2 0 01-.1-2.9z" fill="#fff"/>
</svg>
