<svg xmlns="http://www.w3.org/2000/svg" width="200" height="128">
	<defs>
		<linearGradient id="a" x1="-213.09" y1="-359.5" x2="-213.09" y2="-209.5" gradientTransform="rotate(-135 3.993 -165)" gradientUnits="userSpaceOnUse">
			<stop offset="0" stop-color="#b0084d"/>
			<stop offset="1" stop-color="#ff4f8b"/>
		</linearGradient>
	</defs>
	<path d="m78.85 90.74-1-2.95h-4.59l-1 2.95h-1.67l4.1-11.09h1.76l4.09 11.09zm-5.17-4.18h3.73l-1.87-5.44zm18.58 4.18v-5.51a1.83 1.83 0 0 0-.26-1.18 1.13 1.13 0 0 0-1-.39 4.49 4.49 0 0 0-2.35.72 1.94 1.94 0 0 1 0 .24v6.12h-1.58v-5.51a1.9 1.9 0 0 0-.3-1.18 1.13 1.13 0 0 0-1-.39 4.35 4.35 0 0 0-2.34.71v6.37h-1.54v-8.12h1.33l.16.82a5.32 5.32 0 0 1 3-1.06 2 2 0 0 1 2 1.14 5.43 5.43 0 0 1 3.17-1.14 2.23 2.23 0 0 1 1.7.63 2.49 2.49 0 0 1 .59 1.77v6zm8.68 0-.12-.84a4.2 4.2 0 0 1-1.28.77 3.76 3.76 0 0 1-1.38.27 2.54 2.54 0 0 1-1.82-.64 2.31 2.31 0 0 1-.68-1.74 2.28 2.28 0 0 1 .84-1.86 3.34 3.34 0 0 1 2.24-.7 8.38 8.38 0 0 1 2 .27v-1a1.59 1.59 0 0 0-.39-1.22 2 2 0 0 0-1.35-.4 8.71 8.71 0 0 0-2.81.49V83a5.17 5.17 0 0 1 1.41-.47 8.55 8.55 0 0 1 1.68-.17 3.29 3.29 0 0 1 2.24.64 2.42 2.42 0 0 1 .72 1.92v5.8zm-2.4-1a3.75 3.75 0 0 0 2.21-.81V87.3a6.86 6.86 0 0 0-1.69-.21c-1.21 0-1.81.46-1.81 1.39a1.27 1.27 0 0 0 .33.94 1.37 1.37 0 0 0 .96.32zm5.46 1v-1.22l4.66-5.65h-4.5v-1.25h6.26v1.2l-4.72 5.67h4.76v1.25zm11.52.24a3.63 3.63 0 0 1-2.85-1.14 5.4 5.4 0 0 1 0-6.32 4.13 4.13 0 0 1 5.7 0 5.4 5.4 0 0 1 0 6.32 3.63 3.63 0 0 1-2.85 1.16zm0-1.28c1.5 0 2.26-1 2.26-3s-.76-3-2.26-3-2.26 1-2.26 3 .74 3 2.26 3zm11.31 1v-5.39a1.9 1.9 0 0 0-.34-1.25 1.37 1.37 0 0 0-1.08-.4 4.45 4.45 0 0 0-2.48.82v6.26h-1.59v-8.12h1.33l.16.9a5.27 5.27 0 0 1 3.2-1.14 2.41 2.41 0 0 1 1.78.62 2.46 2.46 0 0 1 .61 1.78v6zm-38.62 11.19a4.7 4.7 0 0 1-2-1.29 3.22 3.22 0 0 1 .49-4.33 4.58 4.58 0 0 1 3-.89 8.56 8.56 0 0 1 3 .62v1.83a9.74 9.74 0 0 0-2.88-.48c-1.25 0-1.88.4-1.88 1.21a1 1 0 0 0 .32.74 4.29 4.29 0 0 0 1.23.61l1.18.43a5.13 5.13 0 0 1 2.12 1.27 2.81 2.81 0 0 1 .63 1.9 3.17 3.17 0 0 1-1.18 2.6A5.07 5.07 0 0 1 89 107a10 10 0 0 1-1.79-.17 6.38 6.38 0 0 1-1.54-.46v-1.82a12.4 12.4 0 0 0 1.72.38 10.08 10.08 0 0 0 1.64.15 2.6 2.6 0 0 0 1.46-.35 1.11 1.11 0 0 0 .51-1 1 1 0 0 0-.31-.78 3.93 3.93 0 0 0-1.26-.64zM97.52 99v7.7h-2.11V95.65H98l4.51 7.76v-7.76h2.11v11.09H102zm11.79 2.85a4.7 4.7 0 0 1-2-1.29 3 3 0 0 1-.62-1.93 2.93 2.93 0 0 1 1.11-2.4 4.61 4.61 0 0 1 3-.89 8.6 8.6 0 0 1 3.07.57v1.83a9.85 9.85 0 0 0-2.88-.48c-1.26 0-1.89.4-1.89 1.21a.94.94 0 0 0 .33.74 4.34 4.34 0 0 0 1.22.61l1.19.43a5.13 5.13 0 0 1 2.12 1.27 2.81 2.81 0 0 1 .63 1.9 3.18 3.18 0 0 1-1.19 2.6 5 5 0 0 1-3.24 1 10 10 0 0 1-1.8-.17 6.3 6.3 0 0 1-1.53-.46v-1.82a11.94 11.94 0 0 0 1.71.38 10.29 10.29 0 0 0 1.65.15 2.57 2.57 0 0 0 1.45-.35 1.09 1.09 0 0 0 .52-1 1 1 0 0 0-.32-.78 3.74 3.74 0 0 0-1.25-.64z" fill="#333"/>
	<path d="M73 19h54v54H73z" fill="url(#a)"/>
	<path d="m102.9 41.3-.1.2c0-.1 0-.1.1-.2zm-6.3-2.5c-.6 0-6.3-.1-6.3 2.1 0 .1 0 .3.1.3s.1.1 0 .2l3.9 8.6v4.5c0 .4.2.7.6.7h.2a5.49 5.49 0 0 0 2.5-1.3l.5-.3c.2-.1.4-.4.3-.6v-3l4.3-8.6c0-.1.1-.1.1-.2a.49.49 0 0 0 .1-.3c0-2.1-5.6-2.1-6.3-2.1zm0 1.4a10.45 10.45 0 0 1 4.8.8 11.66 11.66 0 0 1-4.8.8c-2.6 0-4.2-.4-4.7-.8.5-.4 2.1-.8 4.7-.8zm.5 9.3v3.3l-.3.2a10.91 10.91 0 0 0-1.1.6V50a.37.37 0 0 0-.1-.3l-3.1-6.9a18.71 18.71 0 0 0 4 .4 18.1 18.1 0 0 0 4-.4zm12.6 9.2a16.72 16.72 0 0 1-9.7 3.1 16.15 16.15 0 0 1-16.1-12.6 3.53 3.53 0 0 0 3.1-2.5h3.6v-1.3H87a3.32 3.32 0 0 0-3.1-2.6A16.58 16.58 0 0 1 104 30.7a17.5 17.5 0 0 1 5.4 2.4l.8-1.1a18 18 0 0 0-25 4.6 17.14 17.14 0 0 0-2.8 6.5 3.3 3.3 0 0 0-1.6 4.3 3.54 3.54 0 0 0 1.6 1.6A17.89 17.89 0 0 0 100 63.3a18.25 18.25 0 0 0 10.5-3.4zM82 46a1.75 1.75 0 0 1 1.6-1.8h.2A1.8 1.8 0 1 1 82 46zm1.7-1.8zm32.5 5a3.2 3.2 0 1 0 0-6.4 3.31 3.31 0 0 0-3.2 2.6h-3.7v-9h1.9a3.22 3.22 0 1 0 2.8-3.6 3.08 3.08 0 0 0-2.7 2.5h-2.7a.57.57 0 0 0-.7.4v9.6h-5.5v1.3h5.5V56a.68.68 0 0 0 .7.7h2.3a3.22 3.22 0 1 0 2.5-3.8 3.08 3.08 0 0 0-2.5 2.5h-1.6v-8.8h3.7a3.12 3.12 0 0 0 3.2 2.6zm0-5a1.8 1.8 0 1 1-1.8 1.8 1.79 1.79 0 0 1 1.8-1.8zm-1.8-10a1.8 1.8 0 0 1 0 3.6 1.86 1.86 0 0 1-1.8-1.8 1.79 1.79 0 0 1 1.8-1.8zm-.4 20.1a1.8 1.8 0 0 1 0 3.6 1.75 1.75 0 0 1-1.8-1.6v-.2a.6.6 0 0 1 .1-.4 1.63 1.63 0 0 1 1.7-1.4z" fill="#fff"/>
</svg>
