<svg xmlns="http://www.w3.org/2000/svg" width="200" height="128">
    <path d="M78.85 90.74l-1-2.95h-4.59l-1 2.95h-1.67l4.1-11.09h1.76l4.09 11.09zm-5.17-4.18h3.73l-1.87-5.44zM92.26 90.74v-5.51a1.83 1.83 0 00-.26-1.18 1.13 1.13 0 00-1-.39 4.49 4.49 0 00-2.35.72 1.94 1.94 0 010 .24v6.12h-1.58v-5.51a1.9 1.9 0 00-.3-1.18 1.13 1.13 0 00-1-.39 4.35 4.35 0 00-2.34.71v6.37h-1.54v-8.12h1.33l.16.82a5.32 5.32 0 013-1.06 2 2 0 012 1.14 5.43 5.43 0 013.17-1.14 2.23 2.23 0 011.7.63 2.49 2.49 0 01.59 1.77v6zM100.94 90.74l-.12-.84a4.2 4.2 0 01-1.28.77 3.76 3.76 0 01-1.38.27 2.54 2.54 0 01-1.82-.64 2.31 2.31 0 01-.68-1.74 2.28 2.28 0 01.84-1.86 3.34 3.34 0 012.24-.7 8.38 8.38 0 012 .27v-1a1.59 1.59 0 00-.39-1.22 2 2 0 00-1.35-.4 8.71 8.71 0 00-2.81.49V83a5.17 5.17 0 011.41-.47 8.55 8.55 0 011.68-.17 3.29 3.29 0 012.24.64 2.42 2.42 0 01.72 1.92v5.8zm-2.4-1a3.75 3.75 0 002.21-.81V87.3a6.86 6.86 0 00-1.69-.21c-1.21 0-1.81.46-1.81 1.39a1.27 1.27 0 00.33.94 1.37 1.37 0 00.96.32zM104 90.74v-1.22l4.66-5.65h-4.5v-1.25h6.26v1.2l-4.72 5.67h4.76v1.25zM115.52 91a3.63 3.63 0 01-2.85-1.14 5.4 5.4 0 010-6.32 4.13 4.13 0 015.7 0 5.4 5.4 0 010 6.32 3.63 3.63 0 01-2.85 1.14zm0-1.28c1.5 0 2.26-1 2.26-3s-.76-3-2.26-3-2.26 1-2.26 3 .74 2.98 2.26 2.98zM126.83 90.74v-5.43a1.9 1.9 0 00-.34-1.25 1.37 1.37 0 00-1.08-.4 4.45 4.45 0 00-2.48.82v6.26h-1.59v-8.12h1.33l.16.9a5.27 5.27 0 013.2-1.14 2.41 2.41 0 011.78.62 2.46 2.46 0 01.61 1.78v6zM43.47 101.89a4.64 4.64 0 01-2-1.29 3.19 3.19 0 01.49-4.33 4.58 4.58 0 013-.89A8.6 8.6 0 0148 96v1.83a9.74 9.74 0 00-2.88-.48c-1.26 0-1.89.4-1.89 1.21a.94.94 0 00.33.74 4.29 4.29 0 001.23.61l1.18.43a5.13 5.13 0 012.12 1.27 2.81 2.81 0 01.63 1.9 3.17 3.17 0 01-1.18 2.6 5.07 5.07 0 01-3.25 1 9.78 9.78 0 01-1.79-.17 6.38 6.38 0 01-1.54-.46v-1.82a12.26 12.26 0 001.71.38 10.29 10.29 0 001.65.15 2.6 2.6 0 001.46-.35 1.11 1.11 0 00.51-1 1 1 0 00-.31-.78 3.93 3.93 0 00-1.26-.64zM54.44 100.27a3.73 3.73 0 012.42.91 2.92 2.92 0 01.88 2.2 3.31 3.31 0 01-2 3.14 5.62 5.62 0 01-2.32.46 7.53 7.53 0 01-3-.66v-1.81a9.53 9.53 0 003 .61 2.44 2.44 0 001.56-.44 1.58 1.58 0 00.53-1.29 1.28 1.28 0 00-.49-1.11 2.67 2.67 0 00-1.54-.36h-.71l-.78.07v-1.47l2.87-3.09h-4.35v-1.78h6.75v1.76zM66.39 101.89a4.6 4.6 0 01-2-1.29 3.2 3.2 0 01.48-4.33 4.61 4.61 0 013-.89 8.6 8.6 0 013.07.57v1.83A9.85 9.85 0 0068 97.3c-1.26 0-1.89.4-1.89 1.21a.94.94 0 00.33.74 4.34 4.34 0 001.22.61l1.19.43a5.13 5.13 0 012.15 1.27 2.81 2.81 0 01.63 1.9 3.2 3.2 0 01-1.18 2.6 5.09 5.09 0 01-3.25 1 9.78 9.78 0 01-1.79-.17 6.38 6.38 0 01-1.54-.46v-1.82a11.94 11.94 0 001.71.38 10.29 10.29 0 001.65.15 2.62 2.62 0 001.46-.35 1.11 1.11 0 00.51-1 1 1 0 00-.31-.78 3.93 3.93 0 00-1.26-.64zM78.3 106.53a5.41 5.41 0 01-1.94.33 2.76 2.76 0 01-2-.64 2.66 2.66 0 01-.64-2v-3.95h-1.25v-1.42l1.3-.26.35-2.24H76v2.21h2.21v1.73H76v3.84a.89.89 0 00.26.72 1.37 1.37 0 00.86.21 8.52 8.52 0 001.14-.1zM83.37 107a3.91 3.91 0 01-3-1.15 5.28 5.28 0 010-6.37 4.45 4.45 0 016 0 5.24 5.24 0 010 6.37 3.87 3.87 0 01-3 1.15zm0-1.8c1.12 0 1.68-.84 1.68-2.54s-.56-2.53-1.68-2.53-1.68.85-1.68 2.53.56 2.52 1.68 2.52zM89.24 106.74v-8.18h1.92l.29 1.22a4.45 4.45 0 011.21-1 2.54 2.54 0 011.2-.3 4.72 4.72 0 01.64 0v2.16a4.25 4.25 0 00-1-.1 4.92 4.92 0 00-1.93.37v5.78zM100.41 106.74l-.19-.72a4 4 0 01-1.15.71 3.41 3.41 0 01-1.25.26 2.66 2.66 0 01-1.9-.67 2.36 2.36 0 01-.71-1.79 2.45 2.45 0 01.38-1.35 2.6 2.6 0 011.11-.92 3.86 3.86 0 011.69-.34 7.72 7.72 0 011.7.21v-.8a1.34 1.34 0 00-.3-1 1.75 1.75 0 00-1.12-.27 9.78 9.78 0 00-2.9.49V99a6.19 6.19 0 011.49-.49 9.13 9.13 0 011.82-.18 3.63 3.63 0 012.41.66 2.63 2.63 0 01.76 2.09v5.67zm-1.94-1.32a2.13 2.13 0 00.83-.17 3.41 3.41 0 00.79-.48v-1.39a7.59 7.59 0 00-1.26-.12c-.93 0-1.4.38-1.4 1.12a1 1 0 001 1zM109.45 105.74a3.09 3.09 0 01-2.15.82 2.88 2.88 0 01-2.37-1.11 4.63 4.63 0 01-.89-3 4.7 4.7 0 01.9-3 2.88 2.88 0 012.4-1.14 3.32 3.32 0 011.26.24 3.26 3.26 0 011.06.7l.17-.7h1.92v7.54a4.1 4.1 0 01-1.09 3 4.05 4.05 0 01-3 1.08 6.55 6.55 0 01-3-.68V108a9.4 9.4 0 002.74.49 2.09 2.09 0 001.6-.49 2.28 2.28 0 00.47-1.6zm-1.43-.91a2.45 2.45 0 00.75-.12 2.53 2.53 0 00.68-.33v-3.93a2.87 2.87 0 00-1.54-.4q-1.53 0-1.53 2.37a3.25 3.25 0 00.4 1.82 1.39 1.39 0 001.22.59zM115.74 103.22a2 2 0 00.64 1.52 2.77 2.77 0 001.8.48 9.68 9.68 0 002.5-.4v1.55a5.39 5.39 0 01-1.34.45 8.35 8.35 0 01-1.6.16 4.09 4.09 0 01-3.1-1.11 5.4 5.4 0 010-6.41 3.8 3.8 0 012.93-1.14 3.26 3.26 0 012.44.87 3.41 3.41 0 01.86 2.49v.8c0 .3-.07.54-.11.74zm1.74-3.28a1.62 1.62 0 00-1.24.47 2.12 2.12 0 00-.52 1.37h3.14v-.28q0-1.56-1.38-1.56zM127 106.74V95.65h2.4v9.17h4.86v1.92zM137.27 103.22a2 2 0 00.64 1.52 2.82 2.82 0 001.81.48 9.74 9.74 0 002.5-.4v1.55a5.54 5.54 0 01-1.34.45 8.45 8.45 0 01-1.61.16 4.08 4.08 0 01-3.09-1.11 5.35 5.35 0 010-6.41 3.79 3.79 0 012.93-1.14 3.28 3.28 0 012.44.87 3.4 3.4 0 01.85 2.49 5.91 5.91 0 010 .8c0 .3-.07.54-.11.74zm1.73-3.28a1.61 1.61 0 00-1.24.47 2.07 2.07 0 00-.52 1.37h3.13v-.28c.02-1.04-.44-1.56-1.37-1.56zM149.43 106.74v-5.36a1.31 1.31 0 00-.29-1 1.12 1.12 0 00-.88-.31 3.21 3.21 0 00-1.74.55v6.08h-2.34v-8.14h1.92l.23.88a4.89 4.89 0 013.07-1.12 2.16 2.16 0 012.37 2.37v6zM157.45 104.48a.65.65 0 00-.19-.5 2.53 2.53 0 00-.74-.38l-1.25-.5a3.22 3.22 0 01-1.41-.94 2.31 2.31 0 01-.43-1.42 2.12 2.12 0 01.87-1.74 3.79 3.79 0 012.33-.66 5.84 5.84 0 012.48.53v1.55a8.07 8.07 0 00-2.27-.37 2.25 2.25 0 00-1 .16.54.54 0 00-.3.51.56.56 0 00.18.44 2.61 2.61 0 00.78.41l1.21.5a3.39 3.39 0 011.42.93 2.13 2.13 0 01.42 1.37 2.33 2.33 0 01-.9 1.91 3.66 3.66 0 01-2.38.73 6.3 6.3 0 01-2.91-.65v-1.56a9.5 9.5 0 002.9.5c.8-.02 1.19-.3 1.19-.82z"/>
    <path d="M83.55 47.19v-2.45a7.07 7.07 0 017.07 7.06h-2.46a4.62 4.62 0 00-4.61-4.61m37.05 1.2l.35-2.15c2.51 1.48 3.28 2.33 3.51 2.69a10.14 10.14 0 01-3.86-.54M99.54 33c-12.68 0-21.27-3-21.91-5.22v-.25c.17-2.2 9.17-6.16 21.94-6.16s21.78 4 21.95 6.16v.25C120.82 30 112.23 33 99.54 33M91.4 51.44a8 8 0 11-8-8 8 8 0 018 8m35.6-2.76c-.27-1.47-2-3-5.59-5l2.49-15.38.06-.48a.86.86 0 000-.16c0-5.11-12.86-8.67-24.4-8.67s-24.41 3.51-24.41 8.62v.16l.07.48v.08l2.86 14.17a10.41 10.41 0 008.83 18.75l5.85 11.24 2.17-1.13-5.82-11.2A10.42 10.42 0 0083.42 41a10.28 10.28 0 00-3 .46l-2-9.76c4.52 2.48 13 3.76 21.13 3.76s16.83-1.31 21.3-3.86l-2.61 16.08a156.4 156.4 0 01-15.81-6.53V41a2.49 2.49 0 10-1.4 2.21 155.87 155.87 0 0016.8 6.92l-2.7 16.68c-.53.73-4.71 3.69-15.59 3.69V73c11.37 0 17.76-3.35 18-5.76l2.66-16.38a15.74 15.74 0 003.72.6 3.14 3.14 0 002.56-.93 2.19 2.19 0 00.47-1.81" fill="#3f8624" fill-rule="evenodd"/>
</svg>
