<svg xmlns="http://www.w3.org/2000/svg" width="200" height="128">
	<defs>
		<linearGradient id="a" x1="29.03" y1="-456.03" x2="-77.04" y2="-349.96" gradientTransform="rotate(180 24.5 -165)" gradientUnits="userSpaceOnUse">
			<stop offset="0" stop-color="#bd0816"/>
			<stop offset="1" stop-color="#ff5252"/>
		</linearGradient>
	</defs>
	<path d="m78.85 90.74-1-2.95h-4.59l-1 2.95h-1.67l4.1-11.09h1.76l4.09 11.09zm-5.17-4.18h3.73l-1.87-5.44zm18.58 4.18v-5.51a1.83 1.83 0 0 0-.26-1.18 1.13 1.13 0 0 0-1-.39 4.49 4.49 0 0 0-2.35.72 1.94 1.94 0 0 1 0 .24v6.12h-1.58v-5.51a1.9 1.9 0 0 0-.3-1.18 1.13 1.13 0 0 0-1-.39 4.35 4.35 0 0 0-2.34.71v6.37h-1.54v-8.12h1.33l.16.82a5.32 5.32 0 0 1 3-1.06 2 2 0 0 1 2 1.14 5.43 5.43 0 0 1 3.17-1.14 2.23 2.23 0 0 1 1.7.63 2.49 2.49 0 0 1 .59 1.77v6zm8.68 0-.12-.84a4.2 4.2 0 0 1-1.28.77 3.76 3.76 0 0 1-1.38.27 2.54 2.54 0 0 1-1.82-.64 2.31 2.31 0 0 1-.68-1.74 2.28 2.28 0 0 1 .84-1.86 3.34 3.34 0 0 1 2.24-.7 8.38 8.38 0 0 1 2 .27v-1a1.59 1.59 0 0 0-.39-1.22 2 2 0 0 0-1.35-.4 8.71 8.71 0 0 0-2.81.49V83a5.17 5.17 0 0 1 1.41-.47 8.55 8.55 0 0 1 1.68-.17 3.29 3.29 0 0 1 2.24.64 2.42 2.42 0 0 1 .72 1.92v5.8zm-2.4-1a3.75 3.75 0 0 0 2.21-.81V87.3a6.86 6.86 0 0 0-1.69-.21c-1.21 0-1.81.46-1.81 1.39a1.27 1.27 0 0 0 .33.94 1.37 1.37 0 0 0 .96.32zm5.46 1v-1.22l4.66-5.65h-4.5v-1.25h6.26v1.2l-4.72 5.67h4.76v1.25zm11.52.24a3.63 3.63 0 0 1-2.85-1.14 5.4 5.4 0 0 1 0-6.32 4.13 4.13 0 0 1 5.7 0 5.4 5.4 0 0 1 0 6.32 3.63 3.63 0 0 1-2.85 1.16zm0-1.28c1.5 0 2.26-1 2.26-3s-.76-3-2.26-3-2.26 1-2.26 3 .74 3 2.26 3zm11.31 1v-5.39a1.9 1.9 0 0 0-.34-1.25 1.37 1.37 0 0 0-1.08-.4 4.45 4.45 0 0 0-2.48.82v6.26h-1.59v-8.12h1.33l.16.9a5.27 5.27 0 0 1 3.2-1.14 2.41 2.41 0 0 1 1.78.62 2.46 2.46 0 0 1 .61 1.78v6zm-47.08 15.75a8 8 0 0 1-2.89.49 5.44 5.44 0 0 1-4.1-1.44 7.13 7.13 0 0 1 .06-8.5 5.44 5.44 0 0 1 4.1-1.52 7.88 7.88 0 0 1 2.67.45v1.89a11.09 11.09 0 0 0-2.38-.32 3.24 3.24 0 0 0-2.49.88 3.79 3.79 0 0 0-.82 2.62v.37a3.82 3.82 0 0 0 .8 2.67 3.16 3.16 0 0 0 2.44.87 12.8 12.8 0 0 0 2.61-.37zM85 107a3.91 3.91 0 0 1-3-1.15 5.28 5.28 0 0 1 0-6.37 4.46 4.46 0 0 1 6 0 5.28 5.28 0 0 1 0 6.37 3.91 3.91 0 0 1-3 1.15zm0-1.8c1.12 0 1.68-.84 1.68-2.54s-.56-2.53-1.68-2.53-1.68.85-1.68 2.53.56 2.52 1.68 2.52zm10.86.56a3.07 3.07 0 0 1-2.14.82 2.91 2.91 0 0 1-2.38-1.11 4.63 4.63 0 0 1-.88-3 4.7 4.7 0 0 1 .89-3 2.9 2.9 0 0 1 2.4-1.14 3.38 3.38 0 0 1 1.27.24 3.33 3.33 0 0 1 1 .7l.18-.7h1.92v7.54a3.76 3.76 0 0 1-4.1 4.12 6.54 6.54 0 0 1-2.94-.68V108a9.34 9.34 0 0 0 2.73.49 2.06 2.06 0 0 0 1.53-.48 2.23 2.23 0 0 0 .47-1.6zm-1.42-.91a2.6 2.6 0 0 0 1.42-.45v-3.93a2.82 2.82 0 0 0-1.53-.4c-1 0-1.54.79-1.54 2.37a3.34 3.34 0 0 0 .4 1.82 1.42 1.42 0 0 0 1.25.57zm11.22 1.91v-5.36a1.36 1.36 0 0 0-.29-1 1.14 1.14 0 0 0-.88-.31 3.21 3.21 0 0 0-1.75.55v6.08h-2.33v-8.16h1.92l.22.88a4.91 4.91 0 0 1 3.07-1.12 2.39 2.39 0 0 1 1.76.62 2.36 2.36 0 0 1 .61 1.75v6zm5.77-9.44a1.4 1.4 0 0 1-1-.34 1.16 1.16 0 0 1-.37-.91 1.14 1.14 0 0 1 .37-.91 1.35 1.35 0 0 1 1-.34 1.38 1.38 0 0 1 1 .34 1.17 1.17 0 0 1 .37.91 1.19 1.19 0 0 1-.37.91 1.42 1.42 0 0 1-1 .32zm-1.17 9.44v-8.2h2.34v8.18zm9.51-.21a5.41 5.41 0 0 1-1.94.33 2.77 2.77 0 0 1-2-.64 2.66 2.66 0 0 1-.64-2v-3.95h-1.24v-1.44l1.3-.26.35-2.24h1.92v2.21h2.21v1.73h-2.21v3.84a.89.89 0 0 0 .26.72 1.37 1.37 0 0 0 .86.21 8.52 8.52 0 0 0 1.14-.1zm5.07.45a3.91 3.91 0 0 1-3-1.15 5.28 5.28 0 0 1 0-6.37 4.46 4.46 0 0 1 6 0 5.28 5.28 0 0 1 0 6.37 3.91 3.91 0 0 1-3 1.15zm0-1.8c1.12 0 1.68-.84 1.68-2.54s-.56-2.53-1.68-2.53-1.68.85-1.68 2.53.56 2.52 1.68 2.52z" fill="#333"/>
	<path d="M73 19h54v54H73z" fill="url(#a)"/>
	<path d="M112.58 29.8h-27.7a2.89 2.89 0 0 0-2.7 3v17.8a2.89 2.89 0 0 0 2.7 3h15.3v-1.5h-15.3a1.42 1.42 0 0 1-1.2-1.5V38.4h12.9v10.8a.85.85 0 0 0 .7.8h5.8v-1.5h-4.7v-.2a5.46 5.46 0 0 1 4-5.3 4.27 4.27 0 0 0 3.5 0 6.36 6.36 0 0 1 3.2 2.4l1.2-.7a6.28 6.28 0 0 0-3.1-2.7 3.92 3.92 0 0 0 .9-2.6 3.84 3.84 0 0 0-3.9-3.9 4.13 4.13 0 0 0-4 3.9 4 4 0 0 0 1 2.5 7.75 7.75 0 0 0-3.1 2.6v-9.7h12.3v10.1h1.4v-6.5H114v7.2h1.4V32.8a3 3 0 0 0-2.82-3zm-8.5 7.1a2.48 2.48 0 0 1 2.5 2.5 2.61 2.61 0 0 1-1.3 2.2 2.5 2.5 0 1 1-1.2-4.7zm7.6.1v-2.9a.68.68 0 0 0-.7-.7h-13.7a.68.68 0 0 0-.7.7V37h-12.9v-4.2a1.59 1.59 0 0 1 1.2-1.6h27.7a1.46 1.46 0 0 1 1.2 1.6V37zm-26.6 5H93v1.5h-7.9zm0 3.6h5v1.5h-5zm6.5 0h2.1v1.5h-2.1zm18.9 16.6a7.19 7.19 0 0 1-7.3-7.2 7.28 7.28 0 0 1 7.3-7.3h.9a7.41 7.41 0 0 1 6.4 8.2 6.93 6.93 0 0 1-1.7 3.8 7.49 7.49 0 0 1-2.4 1.9 8.66 8.66 0 0 1-3.2.6zm0-13.1a6.26 6.26 0 0 0-2.7.6A5.86 5.86 0 0 0 113 60.2a7 7 0 0 0 1.9-1.5 5.84 5.84 0 0 0-.6-8.2 6.77 6.77 0 0 0-3.1-1.4zm-1.1 8.9a.76.76 0 0 1-.5-.2l-2.3-2.3 1-1 1.8 1.8 4.1-4.1 1 1-4.6 4.6a.76.76 0 0 1-.5.2z" fill="#fff"/>
</svg>
