<svg version="1.1" id="Layer_1" xmlns="http://www.w3.org/2000/svg" x="0" y="0" viewBox="0 0 382.8 159" style="enable-background:new 0 0 382.8 159" xml:space="preserve">
	<style>
		.st1{fill:#8c3223}.st2{fill:#e05343}.st3{fill:#262223}.st7{fill:#272324}.st10{fill:#d5776b}.st11{fill:#c87064}.st14{fill:#f8f8f8}
	</style>
	<path d="M-98.9 179.8c0-65.3 0-130.5-.1-195.8 0-3.4.7-4.1 4.1-4.1 190.6.1 381.2.1 571.8 0 3.4 0 4.1.7 4.1 4.1-.1 63.9-.1 127.9 0 191.8 0 3.4-.7 4.1-4.1 4.1-192-.2-383.9-.1-575.8-.1zm165-20.8c7-2.1 13-6.4 19.7-9.2 3.4-1.4 4.5-3.3 4.5-7.1 0-6-1.2-12.1.7-18.1 10.2 1.3 19.9 4.8 29.9 6.6.5.5.8.3 1.1-.2 2.4-1.1 4.8-2.3 7.2-3.3 2.1-.9 2.9-2.2 2.9-4.5-.1-29.3-.1-58.5 0-87.8 0-2.1-.5-3.5-2.5-4.3-2.6-1.1-5.1-2.3-7.7-3.5l-.3-.3-.4.1c-10.3 1.8-20.4 4.5-30.4 7.2-1.4-6.5-.3-13.1-.7-19.7-.1-1.5.6-3.4-1.4-4.3C81.1 7.3 74.1 2.5 66 0c-7.3 2.1-13.5 6.6-20.5 9.5-2.9 1.2-3.7 2.9-3.7 6-.2 6.2 1 12.4-.8 18.5-2-.3-3.9-.5-5.9-.9-8.1-1.9-16.1-3.8-24.2-5.6-.4-.2-.6-.1-.8.3-3 .6-5.4 2.6-8.1 3.6-1.8.7-2 1.9-2 3.5v88.8c0 1.6.2 2.9 1.9 3.6 2.8 1.1 5.2 3 8.2 3.6l.3.3.5-.1c1.8-.3 3.6-.7 5.4-1 8.6-1.6 16.8-4.9 25.7-5.5 0 6.6-.1 13.2-.1 19.8 0 1.5-.2 3 1.5 3.8 7.6 3.5 14.6 8.3 22.7 10.8zM208.2 41.6c-.1-5.2-3.8-3.6-6.6-3.8-3.7-.2-2.6 2.7-2.6 4.6-.1 10 .1 20-.1 29.9-.1 3.6 1.2 4.5 4.6 4.5 3.6 0 5.1-.7 4.9-4.7-.3-6.6 0-13.3.2-19.9.1-2.9.7-6 4.6-5.9 3.9.1 4 3.4 4 6.3.1 6.7.1 13.3 0 20-.1 2.8.6 4.1 3.8 4.3 4.5.3 6.6-.9 5.9-5.8-.3-1.8-.1-3.7 0-5.5.1-4.8 0-9.6.2-14.5.1-2.9 1.7-4.9 4.6-4.9 3-.1 3.7 2.4 3.8 4.9.1 1.7.1 3.3.1 5 0 5.8.1 11.6 0 17.5-.1 3.3 2 3.4 4.3 3.2 2-.2 5.2 1.2 5.2-2.7 0-9.5.3-19-.3-28.4-.3-6.1-6.1-9.6-11.9-8.1-3.1.8-5 3-6.8 5.3-6.5-7.5-10.7-7.8-17.9-1.3zm-32.3-4.8c-4.2.1-9.2 1.4-12.2 6.7-2.5 4.4-2.1 4.9 2.8 6 2.9.6 4.1-.4 5.3-2.8 1.2-2.2 3.5-3 6-2.2 2.7.9 3.2 3.1 3.2 5.6 0 3.4-2.9 1.9-4.5 2.5-1.8.7-3.9.9-5.8 1.3-5.6 1.1-8.8 4.7-9.7 10-.7 4.7.2 9.2 4.7 11.7 5 2.7 10.1 1.9 14.4-1.6 1.9-1.5 2.8-1.6 4.1.4 1.6 2.6 3.4 2.4 5.6.3 2.5-2.3 4.8-4.2 1.7-7.6-1-1.2-.9-2.8-.9-4.3-.1-4.3.1-8.7-.1-13 0-9.1-4.1-13-14.6-13zM251 66.5c.1 3.4 1.2 7.2 5.2 9.2 4.7 2.3 9.5 1.7 13.6-1.4 2-1.5 3.2-2.5 4.8.3 1.2 2.1 2.8 2.3 4.8.4 2.6-2.4 5.6-4.4 2.1-8.4-1.1-1.3-.7-3.2-.8-4.8 0-4.3.1-8.7-.1-13-.3-7.1-3.4-10.7-9.8-11.9-7.9-1.4-15.4 1.8-17.9 7.6-1.3 3.1-.8 4.4 2.8 4.7 2.6.2 4.7.7 6-2.5 1.1-2.6 3.6-3.3 6.3-2.4 2.4.9 2.8 3 2.9 5.3.1 3.8-3.1 2.2-4.8 2.8-2.2.8-4.6.9-6.8 1.5-4.9 1.6-8.3 6.3-8.3 12.6zm112.8-23.7c.3-6.6-3.8-4.7-6.6-4.9-3.4-.2-2.4 2.5-2.4 4.2-.1 10.1 0 20.3-.1 30.4 0 2.4.1 4.1 3.3 4.2 5.8.1 5.9.2 6.1-5.9.2-7-.9-14 .9-20.9.5-1.9 1.5-3.3 3.5-3.9 1.4-.4 2.6.3 3.5 1.4 1.2 1.4 1.1 3.1 1.1 4.8.1 7 .2 14 0 21-.1 3.6 2.1 3.6 4.6 3.5 2.4-.1 5.2.7 5.1-3.4-.2-8.3.1-16.6-.2-25-.2-4.6-1.4-9-6.5-10.7-5-1.7-8.7.3-12.3 5.2zM349.4 57c-.2-3.6-.5-7.3-2.2-10.9-2.8-5.8-7.3-9.1-13.7-9.1-6.3.1-10.7 3.5-13 9.3-3.2 7.9-3.2 16 1 23.6 5.1 9.3 17.4 9.9 23.8 1.5 3-4.2 4-9 4.1-14.4zm-48.3 6.7c1-1.6 1.6-2.5 2.2-3.5 3.2-4.7 6.3-9.4 9.5-14 1.7-2.4 2-5.2 1-7.6-.9-2.1-3.6-.9-5.4-.9-4.8-.1-9.6 0-14.4-.1-2.9-.1-5.1-.1-5 4 .1 4.3 2.6 3.9 5.3 3.8h6.8c0 .8.2 1.2.1 1.4-3.5 5.3-6.8 10.6-10.5 15.7-2 2.9-2.8 5.8-2.7 9.3 0 3.1.8 3.9 3.7 2.6 6-2.7 12.2-2.6 18.4-.6 5.1 1.7 5.4 1.4 5.1-4-.1-2.3-1.3-3.2-3.1-4-3.4-1.2-6.8-1.9-11-2.1zM173.4 131c6.9.1 11.6-3.2 12.6-8.8 1.3-7.1-1-10.9-8.2-13.7-2.6-1-5.3-1.9-7.7-3.4-2.7-1.7-3.2-4.4-2.4-7.5.9-3.3 3.4-4.4 6.4-4.5 3-.1 5.4 1.4 5.7 4.4.3 3.1 2.2 3.2 4.1 2.6 2.4-.7 1.1-2.8.7-4.2-1.3-4.7-5.1-7.1-10.7-7-6.1.1-10.2 3.1-11.5 8.3-1.2 5.1.7 10.1 5.2 12.3 3.2 1.6 6.8 2.7 10 4.3 3.3 1.6 4.2 4.8 3.3 8.1-.9 3.4-3.4 5.1-7.1 5-4.1-.1-6.7-2-6.8-6.2-.1-2.4-1-3.2-3.3-3-3 .2-1.7 2.3-1.6 3.7.3 6.4 4.1 9.5 11.3 9.6zm34.3-21.8c.9-.6 1.5-1 1.9-1.4 3.5-3.1 4.5-7.8 2.6-12.2-2.1-4.7-6.1-5.9-10.7-5.5-5.1.4-8.2 3.5-8.9 8.5-.2 1.2-1 2.8 1.2 3 1.5.1 3.5.6 3.6-2 0-.7.3-1.3.5-1.9.9-2.8 2.8-4.1 5.7-3.8 2.7.3 4 2.1 4.4 4.7.9 5-1 7.9-6 9-1.2.3-2.3.1-2.4 1.8-.1 2 1.2 2 2.6 2.1.8 0 1.7.1 2.5.4 4.5 1.5 4.6 5.2 4.4 9-.2 3.3-1.5 5.8-5.2 6.2-3.9.5-6.2-1.6-6.7-5.1-.4-2.6-1.9-2.9-3.8-2.6-2.8.5-1.5 2.6-1.2 4 1.1 4.9 5.2 7.6 10.9 7.6 5.6 0 9.5-2.8 10.8-7.8 1.7-6.6 0-10.6-6.2-14z" style="fill:#fefdfd"/>
	<path class="st1" d="M121 131.3c-10.1-1.7-19.8-5.3-29.9-6.6-2.1-3.5-.4-7.4-1.2-11.1-7.6-3.1-15.8-3.4-23.7-4.9 0-3-.1-5.9-.1-8.9 7-1 14.1-2.1 21.1-2.9 2-.2 3-.9 3-3C90 84.3 90 74.6 90 65c0-1.6-.3-3-2.3-3.1-7.3-.2-14.4-2.5-21.7-2.1v-9.9c6.9-1.8 14.4-1.1 21.1-4.1 2.7.3 4-1 3.9-3.7-.1-2.5-.1-4.9-.1-7.4 10.1-2.7 20.1-5.5 30.4-7.2-.1 2.2-.3 4.3-.3 6.5v97.3z"/>
	<path class="st2" d="M66 99.8c0 3 .1 5.9.1 8.9-7.7 1-15.4 2.4-23 4.2L42 114c0 .3-.1.6-.1 1-1.3 2.6-1.3 5.2 0 7.8v2c-8.8.6-17.1 3.8-25.7 5.5-1.8.3-3.6.7-5.4 1V27.6c8.1 1.9 16.2 3.8 24.3 5.6 1.9.4 3.9.6 5.9.9 1.6 2.6.8 5.4 1 8.2.1 1.6-.5 3.5 2.2 3.5C51.3 48 58.7 48.6 66 50v9.9c-7.3.7-14.6 1.4-22 2-.8 0-1.6.1-2.1 1-.3.6-.9 1.1-.9 1.7-.1 10.2 0 20.5 0 30.7 0 .5.7 1 1 1.6 8.1 1.4 16 2.4 24 2.9 0 .1 0 0 0 0z"/>
	<path class="st3" d="M208.2 41.6c7.2-6.5 11.4-6.2 17.8 1.2 1.8-2.3 3.8-4.5 6.8-5.3 5.7-1.5 11.5 1.9 11.9 8.1.5 9.5.3 18.9.3 28.4 0 3.9-3.1 2.5-5.2 2.7-2.3.3-4.3.1-4.3-3.2.1-5.8 0-11.6 0-17.5 0-1.7-.1-3.3-.1-5-.1-2.5-.7-4.9-3.8-4.9-2.9 0-4.5 2.1-4.6 4.9-.2 4.8-.2 9.6-.2 14.5 0 1.8-.2 3.7 0 5.5.7 4.8-1.4 6-5.9 5.8-3.2-.2-3.9-1.5-3.8-4.3.1-6.6.1-13.3 0-20 0-2.9-.1-6.1-4-6.3-3.8-.1-4.5 3-4.6 5.9-.2 6.6-.4 13.3-.2 19.9.1 3.9-1.4 4.7-4.9 4.7-3.4 0-4.7-.9-4.6-4.5.2-10 0-20 .1-29.9 0-1.9-1.1-4.8 2.6-4.6 2.9.3 6.7-1.4 6.7 3.9z"/>
	<path class="st1" d="M10.1 130.9c-3-.6-5.4-2.5-8.2-3.6-1.7-.7-1.9-2-1.9-3.6V34.9c0-1.6.2-2.9 1.9-3.5 2.8-1.1 5.1-3.1 8.1-3.6.1 34.4.1 68.8.1 103.1z"/>
	<path class="st2" d="M121.9 27.7c2.6 1.2 5.1 2.4 7.7 3.5 2 .8 2.5 2.2 2.5 4.3-.1 29.3-.1 58.5 0 87.8 0 2.3-.7 3.7-2.9 4.5-2.5 1-4.8 2.2-7.2 3.3 0-34.5 0-68.9-.1-103.4z"/>
	<path d="M90.8 34.8c0 2.5 0 4.9.1 7.4.1 2.7-1.2 3.9-3.9 3.7-6.6-3.4-14.1-3.6-21-6V0c8.1 2.5 15.1 7.3 22.7 10.7 2.1.9 1.3 2.8 1.4 4.3.5 6.7-.7 13.3.7 19.8z" style="fill:#df5444"/>
	<path class="st1" d="M66 0c0 13.3.1 26.5.1 39.8-7.3 1.9-14.6 3.9-21.8 5.8-2.7.1-2.1-1.9-2.2-3.5-.2-2.7.7-5.6-1-8.2 1.8-6.1.6-12.3.7-18.5.1-3 .8-4.8 3.7-6C52.4 6.6 58.7 2.1 66 0z"/>
	<path d="M89.8 113.6c.8 3.6-.8 7.6 1.2 11.1-1.9 5.9-.7 12.1-.7 18.1 0 3.7-1.2 5.7-4.5 7.1-6.7 2.7-12.7 7-19.7 9.2 0-13.2-.1-26.4-.1-39.7 7.9-2 15.8-3.9 23.8-5.8z" style="fill:#e05444"/>
	<path d="M66 119.3c0 13.2.1 26.4.1 39.7-8.1-2.4-15.1-7.3-22.7-10.6-1.8-.8-1.5-2.3-1.5-3.8 0-6.6.1-13.2.1-19.8V115c.1-.3.1-.6.1-1 .4-.1.7-.2 1.1-.3 7.5 1.8 15.1 3.7 22.8 5.6z" style="fill:#8c3324"/>
	<path class="st7" d="M175.9 36.8c10.4 0 14.6 3.9 14.8 12.9.1 4.3 0 8.6.1 13 0 1.5-.1 3.1.9 4.3 3 3.4.7 5.3-1.7 7.6-2.2 2.1-3.9 2.3-5.6-.3-1.3-2.1-2.1-2-4.1-.4-4.3 3.5-9.4 4.3-14.4 1.6-4.6-2.5-5.5-7-4.7-11.7.9-5.4 4.1-8.9 9.7-10 2-.4 4-.6 5.8-1.3 1.6-.6 4.4.9 4.5-2.5 0-2.5-.5-4.7-3.2-5.6-2.5-.8-4.8 0-6 2.2-1.2 2.4-2.4 3.4-5.3 2.8-4.9-1.1-5.4-1.5-2.8-6 2.8-5.2 7.8-6.5 12-6.6zm5.2 24.7c-.5-1.2 1.2-3.6-2.1-3.6-4.3 0-7.9 2.7-7.9 6.5 0 2.7.7 5.1 3.8 5.5 3.2.3 5.9-3.3 6.2-8.4z"/>
	<path class="st7" d="M251 66.5c.1-6.2 3.5-10.9 8.6-12.4 2.2-.7 4.6-.7 6.8-1.5 1.7-.6 4.8 1 4.8-2.8 0-2.3-.4-4.4-2.9-5.3-2.7-1-5.2-.2-6.3 2.4-1.3 3.2-3.4 2.7-6 2.5-3.6-.3-4.2-1.6-2.8-4.7 2.5-5.8 10-9.1 17.9-7.6 6.4 1.2 9.5 4.8 9.8 11.9.2 4.3 0 8.6.1 13 0 1.6-.4 3.6.8 4.8 3.5 4 .5 6-2.1 8.4-2 1.9-3.6 1.6-4.8-.4-1.6-2.8-2.8-1.8-4.8-.3-4.2 3.1-8.9 3.7-13.6 1.4-4.4-2.2-5.5-6.1-5.5-9.4zm20-4.8c.2-3.6.1-3.7-2.1-3.8-4.3-.3-7.9 2.6-8 6.5-.1 2.7.6 5.1 3.8 5.5 3.4.3 6.1-3.2 6.3-8.2z"/>
	<path class="st7" d="M363.8 42.8c3.6-4.9 7.4-6.9 12.3-5.2 5.2 1.7 6.4 6.1 6.5 10.7.3 8.3.1 16.6.2 25 .1 4.1-2.8 3.3-5.1 3.4-2.5.1-4.7.1-4.6-3.5.1-7 0-14 0-21 0-1.6.1-3.4-1.1-4.8-.9-1.1-2-1.8-3.5-1.4-2 .5-3 2-3.5 3.9-1.8 6.9-.7 13.9-.9 20.9-.2 6.1-.2 6.1-6.1 5.9-3.2-.1-3.3-1.8-3.3-4.2.1-10.1 0-20.3.1-30.4 0-1.7-1-4.5 2.4-4.2 2.7.2 6.8-1.7 6.6 4.9z"/>
	<path class="st3" d="M349.4 57c-.1 5.3-1 10.2-4.2 14.4-6.4 8.4-18.6 7.8-23.8-1.5-4.2-7.6-4.2-15.7-1-23.6 2.3-5.7 6.7-9.2 13-9.3 6.4-.1 11 3.2 13.7 9.1 1.7 3.6 2 7.4 2.3 10.9zm-10.3.3c-.1-3.1 0-6.3-1-9.3-.7-2.2-2.1-3.2-4.4-3.3-2.1-.1-3.6.9-4.2 2.8-1.9 6.5-1.8 13 .3 19.5.5 1.6 1.7 2.8 3.6 2.9 2.1.1 3.4-1.1 4.3-2.8 1.7-3.1 1.3-6.5 1.4-9.8z"/>
	<path class="st3" d="M301.1 63.7c4.2.2 7.6.9 10.8 2.3 1.8.8 3 1.7 3.1 4 .3 5.4 0 5.7-5.1 4-6.2-2-12.4-2.1-18.4.6-2.9 1.3-3.7.5-3.7-2.6 0-3.5.7-6.4 2.7-9.3 3.7-5.1 7-10.4 10.5-15.7.1-.2 0-.6-.1-1.4h-6.8c-2.7 0-5.2.5-5.3-3.8-.1-4.1 2.1-4.1 5-4 4.8.1 9.6-.1 14.4.1 1.9.1 4.5-1.1 5.4.9 1 2.4.7 5.2-1 7.6-3.2 4.6-6.4 9.3-9.5 14-.4.8-1 1.8-2 3.3z"/>
	<path d="M173.4 131c-7.2-.1-11-3.2-11.5-9.7-.1-1.4-1.4-3.4 1.6-3.7 2.3-.2 3.2.6 3.3 3 .1 4.3 2.7 6.1 6.8 6.2 3.7.1 6.2-1.5 7.1-5 .9-3.3.1-6.4-3.3-8.1-3.3-1.6-6.8-2.7-10-4.3-4.5-2.2-6.4-7.2-5.2-12.3 1.3-5.3 5.4-8.2 11.5-8.3 5.6-.1 9.4 2.4 10.7 7 .4 1.4 1.7 3.5-.7 4.2-1.9.6-3.8.4-4.1-2.6-.3-3-2.7-4.5-5.7-4.4-3 .1-5.5 1.1-6.4 4.5-.8 3-.3 5.8 2.4 7.5 2.4 1.5 5.1 2.4 7.7 3.4 7.2 2.8 9.5 6.6 8.2 13.7-.9 5.7-5.5 9-12.4 8.9z" style="fill:#0c0c0c"/>
	<path d="M207.7 109.2c6.2 3.3 7.9 7.3 6.2 13.9-1.3 5-5.2 7.8-10.8 7.8-5.7 0-9.8-2.7-10.9-7.6-.3-1.3-1.6-3.5 1.2-4 1.9-.3 3.4-.1 3.8 2.6.6 3.5 2.9 5.5 6.7 5.1 3.7-.4 5-2.9 5.2-6.2.2-3.8.1-7.5-4.4-9-.8-.3-1.6-.3-2.5-.4-1.4-.1-2.7-.1-2.6-2.1.1-1.7 1.2-1.5 2.4-1.8 5-1.1 6.9-4 6-9-.4-2.5-1.7-4.4-4.4-4.7-2.8-.3-4.8 1-5.7 3.8-.2.6-.4 1.3-.5 1.9-.1 2.7-2.1 2.2-3.6 2-2.2-.2-1.4-1.8-1.2-3 .8-5 3.8-8.1 8.9-8.5 4.6-.4 8.6.7 10.7 5.5 1.9 4.4 1 9.1-2.6 12.2-.5.6-1 .9-1.9 1.5z" style="fill:#0f0f0f"/>
	<path class="st10" d="M121.9 27.7c0 34.5.1 68.9.1 103.4-.3.5-.6.7-1.1.2V34c0-2.2.2-4.3.3-6.5l.4-.1.3.3z"/>
	<path class="st11" d="M10.1 130.9V27.7c.2-.4.4-.5.8-.3v103.7l-.5.1-.3-.3z"/>
	<path class="st2" d="M66 59.9c7.3-.5 14.4 1.8 21.7 2.1 2 0 2.3 1.4 2.3 3v28.9c0 2.1-.9 2.8-3 3-7 .9-14 1.9-21 2.9V59.9z"/>
	<path d="M66 119.3c-7.6-1.9-15.3-3.8-22.9-5.7v-.8c7.6-1.8 15.2-3.2 23-4.2 7.9 1.5 16.1 1.9 23.7 4.9-8 2-15.9 3.9-23.8 5.8z" style="fill:#efada6"/>
	<path d="M44.2 45.7c7.3-1.9 14.6-3.9 21.8-5.8 6.9 2.4 14.4 2.7 21 6-6.7 3-14.1 2.3-21.1 4.1-7.2-1.4-14.6-2-21.7-4.3z" style="fill:#5f211b"/>
	<path class="st1" d="M66 59.9v40c-8-.6-16-1.6-23.9-3.1 0-11.3-.1-22.6-.1-34 .7-.3 1.4-.7 2.1-1 7.3-.6 14.6-1.3 21.9-1.9z"/>
	<path class="st11" d="M42 62.8c0 11.3.1 22.6.1 34-.4-.5-1-1-1-1.6-.1-10.2-.1-20.5 0-30.7 0-.5.6-1.1.9-1.7z"/>
	<path class="st10" d="M41.9 114.9v7.8c-1.3-2.6-1.3-5.2 0-7.8z"/>
	<path class="st11" d="M44.1 61.9c-.7.3-1.4.7-2.1 1 .4-.9 1.2-1 2.1-1z"/>
	<path class="st10" d="M43.1 112.9c-.1.3-.1.5 0 .8-.4.1-.7.2-1.1.3.4-.4.7-.8 1.1-1.1z"/>
	<path class="st14" d="M181.1 61.5c-.3 5.2-2.9 8.7-6.2 8.3-3.2-.4-3.9-2.8-3.8-5.5.1-3.9 3.6-6.5 7.9-6.5 3.3.1 1.6 2.5 2.1 3.7z"/>
	<path class="st14" d="M271 61.7c-.2 5-2.9 8.5-6.2 8.1-3.2-.4-3.9-2.8-3.8-5.5.1-3.9 3.7-6.7 8-6.5 2.1.2 2.2.3 2 3.9z"/>
	<path class="st14" d="M339.2 57.3c-.1 3.3.2 6.6-1.3 9.7-.9 1.7-2.2 2.9-4.3 2.8-1.9-.1-3.1-1.3-3.6-2.9-2.1-6.4-2.2-13-.3-19.5.6-1.9 2.1-2.9 4.2-2.8 2.3.1 3.7 1.2 4.4 3.3.8 3.2.7 6.3.9 9.4z"/>
</svg>
