<svg xmlns="http://www.w3.org/2000/svg" width="200" height="128">
    <path d="M78.85 90.74l-1-2.95h-4.59l-1 2.95h-1.67l4.1-11.09h1.76l4.09 11.09zm-5.17-4.18h3.73l-1.87-5.44zm18.58 4.18v-5.51a1.83 1.83 0 00-.26-1.18 1.13 1.13 0 00-1-.39 4.49 4.49 0 00-2.35.72 1.94 1.94 0 010 .24v6.12h-1.58v-5.51a1.9 1.9 0 00-.3-1.18 1.13 1.13 0 00-1-.39 4.35 4.35 0 00-2.34.71v6.37h-1.54v-8.12h1.33l.16.82a5.32 5.32 0 013-1.06 2 2 0 012 1.14 5.43 5.43 0 013.17-1.14 2.23 2.23 0 011.7.63 2.49 2.49 0 01.59 1.77v6zm8.68 0l-.12-.84a4.2 4.2 0 01-1.28.77 3.76 3.76 0 01-1.38.27 2.54 2.54 0 01-1.82-.64 2.31 2.31 0 01-.68-1.74 2.28 2.28 0 01.84-1.86 3.34 3.34 0 012.24-.7 8.38 8.38 0 012 .27v-1a1.59 1.59 0 00-.39-1.22 2 2 0 00-1.35-.4 8.71 8.71 0 00-2.81.49V83a5.17 5.17 0 011.41-.47 8.55 8.55 0 011.68-.17 3.29 3.29 0 012.24.64 2.42 2.42 0 01.72 1.92v5.8zm-2.4-1a3.75 3.75 0 002.21-.81V87.3a6.86 6.86 0 00-1.69-.21c-1.21 0-1.81.46-1.81 1.39a1.27 1.27 0 00.33.94 1.37 1.37 0 00.96.32zm5.46 1v-1.22l4.66-5.65h-4.5v-1.25h6.26v1.2l-4.72 5.67h4.76v1.25zm11.52.24a3.63 3.63 0 01-2.85-1.14 5.4 5.4 0 010-6.32 4.13 4.13 0 015.7 0 5.4 5.4 0 010 6.32 3.63 3.63 0 01-2.85 1.16zm0-1.28c1.5 0 2.26-1 2.26-3s-.76-3-2.26-3-2.26 1-2.26 3 .74 3 2.26 3zm11.31 1v-5.39a1.9 1.9 0 00-.34-1.25 1.37 1.37 0 00-1.08-.4 4.45 4.45 0 00-2.48.82v6.26h-1.59v-8.12h1.33l.16.9a5.27 5.27 0 013.2-1.14 2.41 2.41 0 011.78.62 2.46 2.46 0 01.61 1.78v6zm-92.77 16V95.65h7.3v1.85h-4.89v2.63h4V102h-4v2.9h4.89v1.86zm17-.29a8.1 8.1 0 01-2.9.49 5.42 5.42 0 01-4.09-1.44 7.09 7.09 0 01.06-8.46 5.42 5.42 0 014.1-1.52 8 8 0 012.67.45v1.89a11.17 11.17 0 00-2.39-.32 3.21 3.21 0 00-2.48.88 3.79 3.79 0 00-.83 2.62v.37a3.87 3.87 0 00.8 2.67 3.17 3.17 0 002.45.87 12.8 12.8 0 002.61-.37zm1.66-9.79a6.39 6.39 0 011.75-1 5.74 5.74 0 011.9-.29 3.48 3.48 0 012.44.84 2.93 2.93 0 01.92 2.24 3.86 3.86 0 01-.46 1.73 10.21 10.21 0 01-1.48 2 36.34 36.34 0 01-2.7 2.66h5.09v1.86h-7.75V105c1.37-1.38 2.39-2.45 3.07-3.23a12.92 12.92 0 001.41-1.86 2.71 2.71 0 00.39-1.3 1.26 1.26 0 00-.37-1 1.4 1.4 0 00-1-.34 4.42 4.42 0 00-1.54.32 8.2 8.2 0 00-1.68.91zm15.84 5.23a4.7 4.7 0 01-2-1.29 3 3 0 01-.62-1.93A2.93 2.93 0 0167 96.27a4.6 4.6 0 013-.89 8.66 8.66 0 013.08.57v1.83a9.85 9.85 0 00-2.88-.48c-1.26 0-1.89.4-1.89 1.21a.94.94 0 00.33.74 4.07 4.07 0 001.22.61l1.18.43a5.07 5.07 0 012.12 1.27 2.77 2.77 0 01.64 1.9 3.18 3.18 0 01-1.19 2.6 5.07 5.07 0 01-3.25 1 10 10 0 01-1.79-.17 6.3 6.3 0 01-1.53-.46v-1.82a11.94 11.94 0 001.71.38 10.29 10.29 0 001.65.15 2.57 2.57 0 001.45-.35 1.11 1.11 0 00.51-1A1 1 0 0071 103a3.85 3.85 0 00-1.25-.64zm7 8.14V98.56h1.92l.19.77a3.55 3.55 0 011.16-.74 3.77 3.77 0 011.39-.27 3 3 0 012.45 1.14 4.74 4.74 0 01.91 3.07 5.71 5.71 0 01-.42 2.25 3.53 3.53 0 01-1.2 1.56 3 3 0 01-1.81.57 3.77 3.77 0 01-1.25-.21 2.88 2.88 0 01-1-.57V110zm3.9-10a3 3 0 00-1.56.43v4.21a2.91 2.91 0 001.56.43 1.51 1.51 0 001.33-.61 3.41 3.41 0 00.42-1.92 3.45 3.45 0 00-.42-1.93 1.48 1.48 0 00-1.29-.52zm9.57 6.9a3.87 3.87 0 01-3-1.15 5.24 5.24 0 010-6.37 4.45 4.45 0 016 0 5.28 5.28 0 010 6.37 3.91 3.91 0 01-2.96 1.26zm0-1.8c1.12 0 1.68-.84 1.68-2.54s-.56-2.53-1.68-2.53-1.68.85-1.68 2.53.65 2.63 1.72 2.63zm10.74 1.35a5.41 5.41 0 01-1.94.33 2.77 2.77 0 01-2-.64 2.66 2.66 0 01-.64-2v-3.95H94v-1.33l1.3-.26.35-2.24h1.92v2.21h2.21v1.73h-2.23v3.84a.89.89 0 00.26.72 1.37 1.37 0 00.86.21 8.52 8.52 0 001.14-.1zm5.85.21v-11h2.4v11.09zm10.12 0v-5.36a1.36 1.36 0 00-.29-1 1.14 1.14 0 00-.88-.31 3.21 3.21 0 00-1.75.55v6.08h-2.33v-8.05h1.92l.22.88a4.91 4.91 0 013.07-1.12 2.39 2.39 0 011.76.62 2.36 2.36 0 01.61 1.75v6zm8-2.26a.68.68 0 00-.18-.5 2.49 2.49 0 00-.75-.38l-1.24-.5a3.22 3.22 0 01-1.41-.94 2.24 2.24 0 01-.43-1.42 2.12 2.12 0 01.87-1.76 3.77 3.77 0 012.33-.66 5.87 5.87 0 012.48.53v1.55a8.08 8.08 0 00-2.28-.37 2.31 2.31 0 00-1 .16.54.54 0 00-.3.51.56.56 0 00.18.44 2.91 2.91 0 00.78.41l1.22.5a3.35 3.35 0 011.41.93 2.14 2.14 0 01.43 1.37 2.34 2.34 0 01-.91 1.91 3.63 3.63 0 01-2.37.73 6.37 6.37 0 01-2.92-.65v-1.56a9.55 9.55 0 002.9.5c.86.09 1.24-.19 1.24-.71zm8.51 2a5.35 5.35 0 01-1.93.33 2.74 2.74 0 01-2-.64 2.67 2.67 0 01-.65-2v-3.95h-1.23v-1.28l1.3-.26.35-2.24h1.92v2.21h2.21v1.73h-2.21v3.84a.89.89 0 00.25.72 1.39 1.39 0 00.87.21 8.25 8.25 0 001.13-.1zm6.13.21l-.19-.72a3.91 3.91 0 01-1.14.71 3.46 3.46 0 01-1.26.26 2.66 2.66 0 01-1.9-.67 2.58 2.58 0 01-.32-3.14 2.52 2.52 0 011.1-.92 3.91 3.91 0 011.7-.34 7.71 7.71 0 011.69.21v-.8a1.34 1.34 0 00-.3-1 1.73 1.73 0 00-1.12-.27 9.78 9.78 0 00-2.9.49V99a6.34 6.34 0 011.49-.49 9.28 9.28 0 011.82-.18 3.62 3.62 0 012.41.66 2.63 2.63 0 01.76 2.09v5.67zm-1.93-1.32a2.08 2.08 0 00.82-.17 3.21 3.21 0 00.79-.48v-1.39a7.59 7.59 0 00-1.26-.12c-.93 0-1.39.38-1.39 1.12a.94.94 0 001 1zm11.23 1.32v-5.36a1.36 1.36 0 00-.29-1 1.14 1.14 0 00-.88-.31 3.16 3.16 0 00-1.74.55v6.08h-2.34v-8h1.92l.22.88a4.91 4.91 0 013.08-1.12 2.14 2.14 0 012.36 2.37v6zm10.45-.36a3.64 3.64 0 01-1 .4 5.88 5.88 0 01-1.27.13 3.9 3.9 0 01-3-1.09 4.36 4.36 0 01-1-3.13 4.41 4.41 0 011.08-3.17 4 4 0 013-1.14 4.54 4.54 0 012.16.52v1.55a6.36 6.36 0 00-1.73-.27 2.18 2.18 0 00-1.65.56 2.6 2.6 0 00-.53 1.8v.23a2.61 2.61 0 00.52 1.78 2.09 2.09 0 001.61.57 7.15 7.15 0 001.83-.29zm3.24-3.16a2.06 2.06 0 00.64 1.52 2.82 2.82 0 001.81.48 9.68 9.68 0 002.5-.4v1.55a5.54 5.54 0 01-1.34.45 8.45 8.45 0 01-1.61.16 4.08 4.08 0 01-3.09-1.11 5.35 5.35 0 010-6.41 3.79 3.79 0 012.93-1.14 3.28 3.28 0 012.44.87 3.4 3.4 0 01.85 2.49 7.91 7.91 0 010 .8 7.18 7.18 0 01-.12.74zm1.75-3.28a1.62 1.62 0 00-1.24.47 2.07 2.07 0 00-.52 1.37h3.13v-.28c.05-.9-.4-1.42-1.32-1.42z" fill="#333"/>
    <path d="M105.7 53.68H94.3a2 2 0 01-2-2V40.3a2 2 0 012-2h11.4a2 2 0 012 2v11.4a2 2 0 01-2 1.98zm-11-2.4h10.56V40.72H94.72zm4.78 8.88h-12a1.73 1.73 0 01-1.71-1.7v-12a1.73 1.73 0 011.74-1.7h3.83v2.4h-3.1v10.56H98.8V54.6h2.4v3.82a1.71 1.71 0 01-1.69 1.74zm13-13h-3.82v-2.4h3.12V34.2H101.2v3.12h-2.4v-3.78a1.72 1.72 0 011.7-1.7h12a1.73 1.73 0 011.71 1.7v12a1.71 1.71 0 01-1.75 1.62zm-36-23l1.69-1.69 14 14-1.7 1.7zm31.32 31.33l1.69-1.69 14.05 14-1.7 1.7zM76.47 67.82L84 60.26l1.7 1.7-7.56 7.56zM114.27 30l7.56-7.56 1.7 1.7-7.53 7.58zM73 44.8h6.48v2.4H73zm47.52 0H127v2.4h-6.48zM98.8 66.52h2.4v6.41h-2.4zm0-47.52h2.4v6.48h-2.4zm21.44 41.62l-1.94-1.46a22.61 22.61 0 000-26.4l1.94-1.4a25 25 0 010 29.23zm-7-32.92a22.61 22.61 0 00-26.4 0l-1.42-1.94a25 25 0 0129.24 0zM100 71a24.83 24.83 0 01-14.62-4.72l1.42-1.98a22.61 22.61 0 0026.4 0l1.4 1.94A24.77 24.77 0 01100 71zM79.76 60.62a25 25 0 010-29.24l1.94 1.38a22.61 22.61 0 000 26.4z" fill="#d86613"/>
</svg>
