<svg xmlns="http://www.w3.org/2000/svg" width="200" height="128">
    <defs>
        <linearGradient id="a" x1="-213.09" y1="-359.5" x2="-213.09" y2="-209.5" gradientTransform="rotate(-135 3.993 -165)" gradientUnits="userSpaceOnUse">
            <stop offset="0" stop-color="#bd0816"/>
            <stop offset="1" stop-color="#ff5252"/>
        </linearGradient>
    </defs>
    <path d="M93 90.74l-.86-2.49h-3.9l-.83 2.49H86l3.45-9.36h1.49l3.45 9.36zm-4.36-3.53h3.15l-1.58-4.59zM102 90.74l-1.77-7.33-1.78 7.33h-1.58l-2.73-9.36h1.5l2 7.84 1.8-7.57H101l1.79 7.59 2-7.86h1.44l-2.72 9.36zm7.38-4.45a3.65 3.65 0 01-1.6-1 2.19 2.19 0 01-.5-1.5 2.43 2.43 0 01.37-1.34 2.6 2.6 0 011.09-.92 3.77 3.77 0 011.67-.34 7.14 7.14 0 012.5.48v1.1a8.31 8.31 0 00-2.41-.42 2.21 2.21 0 00-1.35.36 1.2 1.2 0 00-.48 1 1.11 1.11 0 00.32.85 3.39 3.39 0 001.2.64l1.23.46a3.69 3.69 0 011.57 1 2.25 2.25 0 01.48 1.48 2.57 2.57 0 01-.92 2.07A3.8 3.8 0 01110 91a6.11 6.11 0 01-2.7-.56v-1.11a8.27 8.27 0 002.67.47 2.44 2.44 0 001.51-.41 1.37 1.37 0 00.54-1.14 1.16 1.16 0 00-.31-.83 3.15 3.15 0 00-1.08-.63zm-88.12 17.95v-9.36h2v4l3.39-4H29l-3.81 4.35 4.13 5h-2.45l-3.58-4.45v4.45zm10.14-3a1.76 1.76 0 00.54 1.29 2.44 2.44 0 001.53.39 8.07 8.07 0 002.1-.33v1.31a4.46 4.46 0 01-1.12.37 6.75 6.75 0 01-1.36.14 3.47 3.47 0 01-2.61-.93 3.78 3.78 0 01-.9-2.73 3.83 3.83 0 01.89-2.69 3.23 3.23 0 012.47-1 2.76 2.76 0 012.06.73 2.88 2.88 0 01.72 2.1 5.83 5.83 0 010 .68c0 .25-.06.45-.09.62zm1.47-2.77a1.35 1.35 0 00-1 .4 1.73 1.73 0 00-.44 1.15H34v-.23c0-.85-.35-1.29-1.13-1.29zm6.2 5.84l-2.73-7h2.09L40 102.5l1.46-5.16h2l-2.92 7.83a3.67 3.67 0 01-.95 1.54 2.21 2.21 0 01-1.44.47 3.92 3.92 0 01-1.31-.22v-1.33h.77a1.3 1.3 0 00.88-.27 2 2 0 00.53-.91zm16.79-.1v-6.45L53.8 102H52l-2.07-4.2v6.48h-1.79v-9.4h2.21l2.56 5.32 2.56-5.32h2.18v9.36zm7.76 0l-.16-.61a3.38 3.38 0 01-1 .6 2.8 2.8 0 01-1.06.22 2.26 2.26 0 01-1.6-.56 2 2 0 01-.6-1.52 2.08 2.08 0 01.32-1.14 2.22 2.22 0 01.93-.77 3.38 3.38 0 011.43-.29 6.35 6.35 0 011.43.18v-.68a1.14 1.14 0 00-.25-.85 1.48 1.48 0 00-1-.23 8.23 8.23 0 00-2.44.42V97.7a4.78 4.78 0 011.38-.41 7.78 7.78 0 011.53-.15 3 3 0 012 .56 2.24 2.24 0 01.64 1.76v4.78zM62 103.13a1.8 1.8 0 00.7-.15 2.48 2.48 0 00.66-.4v-1.18a7.1 7.1 0 00-1.06-.09c-.78 0-1.18.31-1.18.94a.89.89 0 00.23.65.9.9 0 00.65.23zm9.48 1.11v-4.53a1.17 1.17 0 00-.24-.81 1 1 0 00-.75-.25 2.72 2.72 0 00-1.47.46v5.13H67v-6.9h1.62l.19.74a4.13 4.13 0 012.59-.94 2 2 0 011.48.52 2 2 0 01.52 1.47v5.11zm7.79 0l-.16-.61a3.3 3.3 0 01-1 .6 2.76 2.76 0 01-1.06.22 2.28 2.28 0 01-1.6-.56 2 2 0 01-.6-1.52 2.08 2.08 0 01.32-1.14 2.19 2.19 0 01.94-.77 3.32 3.32 0 011.43-.29 6.42 6.42 0 011.43.18v-.68a1.14 1.14 0 00-.26-.85 1.44 1.44 0 00-.94-.23 8.24 8.24 0 00-2.45.42V97.7a4.9 4.9 0 011.26-.41 7.88 7.88 0 011.54-.15 3 3 0 012 .56 2.2 2.2 0 01.64 1.76v4.78zm-1.64-1.11a1.8 1.8 0 00.7-.15 2.7 2.7 0 00.67-.4v-1.18a7.22 7.22 0 00-1.07-.09c-.78 0-1.17.31-1.17.94a.85.85 0 00.23.65.88.88 0 00.63.23zm9.27.27a2.64 2.64 0 01-1.81.69 2.43 2.43 0 01-2-.94 3.9 3.9 0 01-.75-2.5 4 4 0 01.76-2.56 2.46 2.46 0 012-1 2.72 2.72 0 011.07.2 2.61 2.61 0 01.89.59l.15-.59h1.62v6.36a3.19 3.19 0 01-3.46 3.48 5.48 5.48 0 01-2.48-.58v-1.32a8.17 8.17 0 002.31.41 1.72 1.72 0 001.29-.41 1.9 1.9 0 00.4-1.34zm-1.21-.77a2 2 0 00.63-.1 2.39 2.39 0 00.58-.28v-3.32a2.52 2.52 0 00-1.3-.34c-.86 0-1.3.67-1.3 2a2.83 2.83 0 00.34 1.54 1.2 1.2 0 001.04.5zm6.51-1.36a1.76 1.76 0 00.54 1.29 2.42 2.42 0 001.53.39 8.07 8.07 0 002.1-.33v1.31a4.46 4.46 0 01-1.12.37 6.75 6.75 0 01-1.36.14 3.45 3.45 0 01-2.61-.93 3.78 3.78 0 01-.9-2.73 3.83 3.83 0 01.89-2.69 3.23 3.23 0 012.47-1 2.76 2.76 0 012.06.73 2.88 2.88 0 01.72 2.1 5.83 5.83 0 010 .68c0 .25-.06.45-.09.62zm1.47-2.77a1.35 1.35 0 00-1 .4 1.73 1.73 0 00-.44 1.15h2.64v-.23c-.05-.88-.43-1.32-1.21-1.32zm12.91 5.74v-4.67c0-.62-.28-.92-.83-.92a3.36 3.36 0 00-1.47.35v5.24h-2v-4.67c0-.62-.27-.92-.82-.92A3.33 3.33 0 00100 99v5.23h-2v-6.9h1.62l.18.66a5.34 5.34 0 011.29-.67 3.6 3.6 0 011.18-.19A1.8 1.8 0 01104 98a5.14 5.14 0 011.3-.66 3.76 3.76 0 011.25-.2 1.81 1.81 0 012 2v5.11zm5.3-3a1.76 1.76 0 00.54 1.29 2.46 2.46 0 001.53.39 8.07 8.07 0 002.1-.33v1.31a4.46 4.46 0 01-1.12.37 6.75 6.75 0 01-1.36.14 3.47 3.47 0 01-2.61-.93 3.78 3.78 0 01-.9-2.73 3.83 3.83 0 01.89-2.69 3.25 3.25 0 012.47-1 2.76 2.76 0 012.06.73 2.88 2.88 0 01.72 2.1 5.83 5.83 0 010 .68 6.07 6.07 0 01-.09.62zm1.48-2.77a1.37 1.37 0 00-1 .4 1.78 1.78 0 00-.44 1.15h2.65v-.23c-.06-.85-.45-1.29-1.22-1.29zm8.78 5.74v-4.5a1.17 1.17 0 00-.24-.81 1 1 0 00-.74-.25 2.67 2.67 0 00-1.47.46v5.13h-2v-6.9h1.62l.18.74a4.16 4.16 0 012.6-.94 1.81 1.81 0 012 2v5.11zm7.94-.18a4.42 4.42 0 01-1.63.28 2.34 2.34 0 01-1.7-.54 2.27 2.27 0 01-.54-1.67v-3.3h-1v-1.22l1.09-.21.3-1.9h1.62v1.87H130v1.46h-1.86v3.2a.74.74 0 00.21.6 1.17 1.17 0 00.73.18 7.14 7.14 0 001-.08zm6.71-3.91a4 4 0 01-1.73-1.09 2.72 2.72 0 01.41-3.65 3.88 3.88 0 012.52-.76 7 7 0 012.59.49v1.54a8.25 8.25 0 00-2.43-.41c-1.06 0-1.59.34-1.59 1a.77.77 0 00.28.62 3.44 3.44 0 001 .51l1 .37a4.25 4.25 0 011.79 1.07 2.37 2.37 0 01.53 1.6 2.63 2.63 0 01-1 2.19 4.22 4.22 0 01-2.74.81 7.73 7.73 0 01-1.51-.15 5.74 5.74 0 01-1.3-.38v-1.48a10.28 10.28 0 001.45.32 8.08 8.08 0 001.39.13 2.24 2.24 0 001.23-.29 1 1 0 00.43-.83.9.9 0 00-.26-.67 3.69 3.69 0 00-1.06-.54zm7.41 1.12a1.76 1.76 0 00.54 1.29 2.44 2.44 0 001.53.39 8.07 8.07 0 002.1-.33v1.31a4.46 4.46 0 01-1.12.37 6.75 6.75 0 01-1.36.14 3.47 3.47 0 01-2.61-.93 3.78 3.78 0 01-.9-2.73 3.83 3.83 0 01.89-2.69 3.23 3.23 0 012.47-1 2.76 2.76 0 012.06.73 2.88 2.88 0 01.72 2.1 5.83 5.83 0 010 .68c0 .25-.06.45-.09.62zm1.47-2.77a1.35 1.35 0 00-1 .4 1.73 1.73 0 00-.44 1.15h2.64v-.23c-.05-.85-.43-1.29-1.21-1.29zm4.36 5.74v-6.9h1.62l.25 1a4 4 0 011-.84 2.14 2.14 0 011-.25 3.44 3.44 0 01.54 0v1.82a4.44 4.44 0 00-.84-.08 4.34 4.34 0 00-1.63.31v4.88zm7.74 0l-2.62-6.9h2.09l1.47 5.13 1.5-5.13h2l-2.6 6.9zm6.52-8a1.15 1.15 0 01-.82-.28 1 1 0 01-.31-.77 1 1 0 01.31-.77 1.34 1.34 0 011.64 0 1 1 0 01.31.77 1 1 0 01-.31.77 1.15 1.15 0 01-.83.34zm-1 8v-6.9h2v6.9zm8.9-.3a3.11 3.11 0 01-.88.33 4.59 4.59 0 01-1.06.11 3.31 3.31 0 01-2.52-.91 3.73 3.73 0 01-.87-2.65 3.67 3.67 0 01.92-2.67 3.35 3.35 0 012.55-1 3.9 3.9 0 011.82.43v1.31a5.44 5.44 0 00-1.46-.23 1.82 1.82 0 00-1.39.48 2.17 2.17 0 00-.44 1.52v.19a2.19 2.19 0 00.43 1.5 1.77 1.77 0 001.36.48 5.92 5.92 0 001.54-.24zm2.74-2.67a1.76 1.76 0 00.54 1.29 2.42 2.42 0 001.53.47 8.07 8.07 0 002.1-.33v1.31a4.46 4.46 0 01-1.12.37 6.75 6.75 0 01-1.36.14 3.45 3.45 0 01-2.61-.93 3.78 3.78 0 01-.9-2.73 3.83 3.83 0 01.89-2.69 3.23 3.23 0 012.47-1 2.76 2.76 0 012.06.73 2.88 2.88 0 01.72 2.1 5.83 5.83 0 010 .68c0 .25-.06.45-.09.62zm1.47-2.77a1.35 1.35 0 00-1 .4 1.73 1.73 0 00-.44 1.15h2.64v-.23c-.04-.85-.42-1.29-1.2-1.29z" fill="#333"/>
    <path d="M73 19h54v54H73z" fill="url(#a)"/>
    <path d="M90.6 63.6a.76.76 0 01-.5-.2l-2.6-2.9c-.1-.1-.1-.4-.1-.5v-1.8l-1.9-2a.67.67 0 010-1l1.9-1.9v-.9l-1.9-1.9a.67.67 0 010-1l1.9-2v-1.7a9.21 9.21 0 01-5.8-8.5 9 9 0 0118 .1 9 9 0 01-5.7 8.4v15a.55.55 0 01-.3.5l-2.5 2.2a.75.75 0 01-.5.1zm-1.8-3.8l1.9 2.1 1.7-1.5V45.3a.67.67 0 01.5-.7 7.56 7.56 0 10-9.5-4.9 7.71 7.71 0 004.9 4.9.75.75 0 01.5.7v2.5a.76.76 0 01-.2.5L87 50l1.6 1.6a.76.76 0 01.2.5v1.5a.76.76 0 01-.2.5L87 55.7l1.6 1.7a.76.76 0 01.2.5zm1.8-21.7a3.18 3.18 0 01-3.2-3.3 3.1 3.1 0 013.2-3.2 3.31 3.31 0 013.3 3.2 3.26 3.26 0 01-3.3 3.3zm0-5.1a1.8 1.8 0 101.8 1.8 1.79 1.79 0 00-1.8-1.8zM117 58.6H95.3v-1.4h21.6V41.3h-15.8v-1.4H117a1.42 1.42 0 011.4 1.3v16.1a1.35 1.35 0 01-1.4 1.3zm-19.2-6.8a2.76 2.76 0 01-2.8-2.9 2.85 2.85 0 115.7 0 2.9 2.9 0 01-2.9 2.9zm0-4.4a1.39 1.39 0 00-1.4 1.5 1.31 1.31 0 001.4 1.4 1.52 1.52 0 001.5-1.4c.1-.8-.6-1.4-1.5-1.5zm7.2 4.4a2.76 2.76 0 01-2.8-2.9 2.85 2.85 0 115.7 0 2.9 2.9 0 01-2.9 2.9zm0-4.4a1.39 1.39 0 00-1.4 1.5 1.31 1.31 0 001.4 1.4 1.52 1.52 0 001.5-1.4c.1-.8-.6-1.4-1.5-1.5zm-9.7 6.2h5.1V55h-5.1zm7.2 0h5.1V55h-5.1zm7.2 0h5.1V55h-5.1z" fill="#fff"/>
</svg>
