<svg xmlns="http://www.w3.org/2000/svg" width="200" height="128">
    <defs>
        <linearGradient id="a" x1="-316.03" y1="-120.03" x2="-209.97" y2="-13.97" gradientTransform="rotate(-90 -25 -165)" gradientUnits="userSpaceOnUse">
            <stop offset="0" stop-color="#4d27a8"/>
            <stop offset="1" stop-color="#a166ff"/>
        </linearGradient>
    </defs>
    <path d="M78.85 90.74l-1-2.95h-4.59l-1 2.95h-1.67l4.1-11.09h1.76l4.09 11.09zm-5.17-4.18h3.73l-1.87-5.44zm18.58 4.18v-5.51a1.83 1.83 0 00-.26-1.18 1.13 1.13 0 00-1-.39 4.49 4.49 0 00-2.35.72 1.94 1.94 0 010 .24v6.12h-1.58v-5.51a1.9 1.9 0 00-.3-1.18 1.13 1.13 0 00-1-.39 4.35 4.35 0 00-2.34.71v6.37h-1.54v-8.12h1.33l.16.82a5.32 5.32 0 013-1.06 2 2 0 012 1.14 5.43 5.43 0 013.17-1.14 2.23 2.23 0 011.7.63 2.49 2.49 0 01.59 1.77v6zm8.68 0l-.12-.84a4.2 4.2 0 01-1.28.77 3.76 3.76 0 01-1.38.27 2.54 2.54 0 01-1.82-.64 2.31 2.31 0 01-.68-1.74 2.28 2.28 0 01.84-1.86 3.34 3.34 0 012.24-.7 8.38 8.38 0 012 .27v-1a1.59 1.59 0 00-.39-1.22 2 2 0 00-1.35-.4 8.71 8.71 0 00-2.81.49V83a5.17 5.17 0 011.41-.47 8.55 8.55 0 011.68-.17 3.29 3.29 0 012.24.64 2.42 2.42 0 01.72 1.92v5.8zm-2.4-1a3.75 3.75 0 002.21-.81V87.3a6.86 6.86 0 00-1.69-.21c-1.21 0-1.81.46-1.81 1.39a1.27 1.27 0 00.33.94 1.37 1.37 0 00.96.32zm5.46 1v-1.22l4.66-5.65h-4.5v-1.25h6.26v1.2l-4.72 5.67h4.76v1.25zm11.52.24a3.63 3.63 0 01-2.85-1.14 5.4 5.4 0 010-6.32 4.13 4.13 0 015.7 0 5.4 5.4 0 010 6.32 3.63 3.63 0 01-2.85 1.16zm0-1.28c1.5 0 2.26-1 2.26-3s-.76-3-2.26-3-2.26 1-2.26 3 .74 3 2.26 3zm11.31 1v-5.39a1.9 1.9 0 00-.34-1.25 1.37 1.37 0 00-1.08-.4 4.45 4.45 0 00-2.48.82v6.26h-1.59v-8.12h1.33l.16.9a5.27 5.27 0 013.2-1.14 2.41 2.41 0 011.78.62 2.46 2.46 0 01.61 1.78v6zm-52 16V95.65h2.4v4.75l4-4.75H84l-4.52 5.15 4.9 5.94H81.5l-4.24-5.27v5.27zm11.85-9.4a1.42 1.42 0 01-1-.34 1.18 1.18 0 01-.36-.91 1.17 1.17 0 01.36-.91 1.58 1.58 0 012 0 1.17 1.17 0 01.36.91 1.18 1.18 0 01-.36.91 1.42 1.42 0 01-1 .34zm-1.17 9.44v-8.18h2.34v8.18zm9.89 0v-5.36a1.36 1.36 0 00-.29-1 1.12 1.12 0 00-.88-.31 3.18 3.18 0 00-1.74.55v6.08h-2.34v-8.14h1.92l.23.88a4.89 4.89 0 013.07-1.12 2.16 2.16 0 012.37 2.37v6zm6.29-3.52a2 2 0 00.64 1.52 2.8 2.8 0 001.81.48 9.67 9.67 0 002.49-.4v1.55a5.45 5.45 0 01-1.33.45 8.53 8.53 0 01-1.61.16 4.09 4.09 0 01-3.1-1.11 5.4 5.4 0 010-6.41 3.8 3.8 0 012.93-1.14 3.26 3.26 0 012.44.87 3.41 3.41 0 01.86 2.49v.8c0 .3-.07.54-.11.74zm1.74-3.28a1.64 1.64 0 00-1.24.47 2.17 2.17 0 00-.52 1.37h3.14v-.28q0-1.56-1.38-1.56zm8.64 4.54a.68.68 0 00-.18-.5 2.49 2.49 0 00-.75-.38l-1.24-.5a3.22 3.22 0 01-1.41-.94 2.24 2.24 0 01-.43-1.42 2.12 2.12 0 01.87-1.76 3.77 3.77 0 012.33-.66 5.87 5.87 0 012.48.53v1.55a8.08 8.08 0 00-2.28-.37 2.31 2.31 0 00-1 .16.54.54 0 00-.3.51.56.56 0 00.18.44 2.91 2.91 0 00.78.41l1.22.5a3.35 3.35 0 011.41.93 2.14 2.14 0 01.43 1.37 2.34 2.34 0 01-.91 1.91 3.63 3.63 0 01-2.37.73 6.37 6.37 0 01-2.92-.65v-1.56a9.55 9.55 0 002.9.5c.81 0 1.19-.28 1.19-.8zM117 97.3a1.4 1.4 0 01-1-.34 1.16 1.16 0 01-.37-.91 1.14 1.14 0 01.37-.91 1.35 1.35 0 011-.34 1.38 1.38 0 011 .34 1.17 1.17 0 01.37.91 1.19 1.19 0 01-.37.91 1.42 1.42 0 01-1 .34zm-1.17 9.44v-8.18h2.34v8.18zm8.12-2.26a.69.69 0 00-.19-.5 2.53 2.53 0 00-.74-.38l-1.25-.5a3.22 3.22 0 01-1.41-.94 2.24 2.24 0 01-.43-1.42 2.12 2.12 0 01.87-1.76 3.77 3.77 0 012.33-.66 5.84 5.84 0 012.48.53v1.55a8.07 8.07 0 00-2.27-.37 2.25 2.25 0 00-1 .16.55.55 0 00-.31.51.57.57 0 00.19.44 2.65 2.65 0 00.77.41l1.22.5a3.46 3.46 0 011.42.93 2.13 2.13 0 01.42 1.37 2.33 2.33 0 01-.9 1.91 3.68 3.68 0 01-2.38.73 6.3 6.3 0 01-2.91-.65v-1.56a9.45 9.45 0 002.89.5c.76 0 1.15-.28 1.15-.8z" fill="#333"/>
    <path d="M73 19h54v54H73z" fill="url(#a)"/>
    <path d="M118 42.4v1.4h-6.3C95.1 43.8 82 37.2 82 28.9a2.77 2.77 0 01.1-.9h1.4a2.77 2.77 0 00-.1.9c0 7.4 12.7 13.5 28.3 13.5zm0 2.9v1.4h-8.8C95.1 46.7 85 49 82 52.8v-1.9c3.2-2.7 9-4.2 14.7-4.9-5.7-.7-11.5-2.2-14.7-4.8v-2.1c3 3.8 12.9 6.2 26.7 6.2zm0-5.8V41h-3c-14.5 0-25-4.9-24.9-11.7V28h1.5v1.3c0 5.8 10.1 10.2 23.4 10.2zm0 8.7v1.4h-6.3c-15.6 0-28.2 6-28.3 13.5a2.77 2.77 0 00.1.9h-1.4a2.77 2.77 0 01-.1-.9c0-8.4 13-15 29.7-14.9zm0 2.8v1.5h-3c-13.4 0-23.5 4.3-23.4 10.1V64h-1.5v-1.4c0-6.7 10.5-11.6 24.9-11.6z" fill="#fff"/>
</svg>
