<svg xmlns="http://www.w3.org/2000/svg" width="200" height="128">
    <defs>
        <linearGradient id="a" x1="270.81" y1="-347.04" x2="121.22" y2="-354.88" gradientTransform="rotate(135 45.003 -165.003)" gradientUnits="userSpaceOnUse">
            <stop offset="0" stop-color="#b0084d"/>
            <stop offset="1" stop-color="#ff4f8b"/>
        </linearGradient>
    </defs>
    <path d="M78.85 90.74l-1-2.95h-4.59l-1 2.95h-1.67l4.1-11.09h1.76l4.09 11.09zm-5.17-4.18h3.73l-1.87-5.44zm18.58 4.18v-5.51a1.83 1.83 0 00-.26-1.18 1.13 1.13 0 00-1-.39 4.49 4.49 0 00-2.35.72 1.94 1.94 0 010 .24v6.12h-1.58v-5.51a1.9 1.9 0 00-.3-1.18 1.13 1.13 0 00-1-.39 4.35 4.35 0 00-2.34.71v6.37h-1.54v-8.12h1.33l.16.82a5.32 5.32 0 013-1.06 2 2 0 012 1.14 5.43 5.43 0 013.17-1.14 2.23 2.23 0 011.7.63 2.49 2.49 0 01.59 1.77v6zm8.68 0l-.12-.84a4.2 4.2 0 01-1.28.77 3.76 3.76 0 01-1.38.27 2.54 2.54 0 01-1.82-.64 2.31 2.31 0 01-.68-1.74 2.28 2.28 0 01.84-1.86 3.34 3.34 0 012.24-.7 8.38 8.38 0 012 .27v-1a1.59 1.59 0 00-.39-1.22 2 2 0 00-1.35-.4 8.71 8.71 0 00-2.81.49V83a5.17 5.17 0 011.41-.47 8.55 8.55 0 011.68-.17 3.29 3.29 0 012.24.64 2.42 2.42 0 01.72 1.92v5.8zm-2.4-1a3.75 3.75 0 002.21-.81V87.3a6.86 6.86 0 00-1.69-.21c-1.21 0-1.81.46-1.81 1.39a1.27 1.27 0 00.33.94 1.37 1.37 0 00.96.32zm5.46 1v-1.22l4.66-5.65h-4.5v-1.25h6.26v1.2l-4.72 5.67h4.76v1.25zm11.52.24a3.63 3.63 0 01-2.85-1.14 5.4 5.4 0 010-6.32 4.13 4.13 0 015.7 0 5.4 5.4 0 010 6.32 3.63 3.63 0 01-2.85 1.16zm0-1.28c1.5 0 2.26-1 2.26-3s-.76-3-2.26-3-2.26 1-2.26 3 .74 3 2.26 3zm11.31 1v-5.39a1.9 1.9 0 00-.34-1.25 1.37 1.37 0 00-1.08-.4 4.45 4.45 0 00-2.48.82v6.26h-1.59v-8.12h1.33l.16.9a5.27 5.27 0 013.2-1.14 2.41 2.41 0 011.78.62 2.46 2.46 0 01.61 1.78v6zm-39 11.15a4.7 4.7 0 01-2.05-1.29 3 3 0 01-.62-1.93 2.93 2.93 0 011.11-2.4 4.61 4.61 0 013-.89 8.6 8.6 0 013.07.57v1.83a9.85 9.85 0 00-2.88-.48c-1.26 0-1.89.4-1.89 1.21a.94.94 0 00.33.74 4.34 4.34 0 001.22.61l1.19.43a5.13 5.13 0 012.12 1.27 2.81 2.81 0 01.63 1.9 3.18 3.18 0 01-1.19 2.6 5 5 0 01-3.24 1 10 10 0 01-1.8-.17 6.3 6.3 0 01-1.53-.46v-1.82a11.94 11.94 0 001.71.38 10.29 10.29 0 001.65.15 2.57 2.57 0 001.45-.35 1.09 1.09 0 00.52-1 1 1 0 00-.32-.78 3.74 3.74 0 00-1.25-.64zm6.72-.71a7 7 0 01.63-3.07 4.61 4.61 0 011.86-2 5.67 5.67 0 012.92-.71 5.79 5.79 0 012.86.68 4.67 4.67 0 011.88 2 6.71 6.71 0 01.67 3.12 6.53 6.53 0 01-.91 3.57 4.53 4.53 0 01-2.56 2 5.69 5.69 0 001.44.57 11.39 11.39 0 001.8.28v2a9.14 9.14 0 01-2.85-.82 9.85 9.85 0 01-2.5-1.76 5 5 0 01-3.79-1.62 6 6 0 01-1.41-4.2zm2.47 0a4.71 4.71 0 00.75 2.88 2.9 2.9 0 004.38 0 5.89 5.89 0 000-5.75 2.94 2.94 0 00-4.38 0 4.7 4.7 0 00-.71 2.91zm12.59.71a4.7 4.7 0 01-2.05-1.29 3.22 3.22 0 01.49-4.33 4.58 4.58 0 013-.89 8.56 8.56 0 013.07.57v1.83a9.74 9.74 0 00-2.88-.48c-1.25 0-1.88.4-1.88 1.21a1 1 0 00.32.74 4.29 4.29 0 001.23.61l1.18.43a5.13 5.13 0 012.12 1.27 2.81 2.81 0 01.63 1.9 3.17 3.17 0 01-1.18 2.6 5.07 5.07 0 01-3.25 1 9.86 9.86 0 01-1.79-.17 6.38 6.38 0 01-1.54-.46v-1.82a12.4 12.4 0 001.72.38 10.08 10.08 0 001.64.15 2.6 2.6 0 001.46-.35 1.11 1.11 0 00.51-1 1 1 0 00-.31-.78 3.93 3.93 0 00-1.26-.64z" fill="#333"/>
    <path d="M73 19h54v54H73z" fill="url(#a)"/>
    <path d="M88.6 34.8a16 16 0 0122.6 0 15.75 15.75 0 013.8 6l1.3-.5a17.38 17.38 0 00-32.8.1l1.4.5a14.77 14.77 0 013.7-6.1zm22.6 22.4a15.87 15.87 0 01-22.6 0 16.82 16.82 0 01-3.9-6.1l-1.3.5a17.33 17.33 0 0022.1 10.7 20.19 20.19 0 006.7-4.1 17 17 0 004.1-6.6l-1.3-.4a17.43 17.43 0 01-3.8 6zM87.5 46a4.2 4.2 0 10-4.2 4.2 3.7 3.7 0 002.9-1.2 4.34 4.34 0 001.3-3zm-2.3 1.9a2.78 2.78 0 01-3.8 0 2.6 2.6 0 010-3.8 2.66 2.66 0 013.8 0 2.6 2.6 0 010 3.8zm34.5-4.9a4 4 0 00-5.9 0 4.17 4.17 0 000 6 4 4 0 005.9 0 4.17 4.17 0 000-6zm-1.1 4.9a2.69 2.69 0 11-3.8-3.8 2.69 2.69 0 013.8-.2 2.81 2.81 0 01.2 3.9zM94 53c3-3 9-3 11.9 0a.76.76 0 00.5.2.68.68 0 00.7-.7.76.76 0 00-.2-.5 8.65 8.65 0 01-2.1-6 8.82 8.82 0 012.1-6 .71.71 0 00-1-1c-3 3-9 3-11.9 0a.71.71 0 00-1 1 8.29 8.29 0 012.2 6 8.44 8.44 0 01-2.2 6 .73.73 0 000 1 .67.67 0 001 0zm1.9-11.1a11.58 11.58 0 008.2 0 11.31 11.31 0 000 8.1 11.58 11.58 0 00-8.2 0 11.31 11.31 0 000-8.1zm12.8 7.1l2.5-2.5a.67.67 0 000-1l-2.5-2.5-1 1.1 1.2 1.2h-3.2v1.4h3.2l-1.2 1.2zm-17.3 0l2.4-2.5a.67.67 0 000-1L91.4 43l-1.1 1.1 1.2 1.2h-3.2v1.4h3.2l-1.2 1.2z" fill="#fff"/>
</svg>
