<svg xmlns="http://www.w3.org/2000/svg" width="200" height="128">
    <defs>
        <linearGradient id="linear-gradient" x1="-122.53" y1="300.64" x2="-121.85" y2="301.31" gradientTransform="matrix(80 0 0 -80 9875 24124)" gradientUnits="userSpaceOnUse">
            <stop offset="0" stop-color="#4d27a8"/>
            <stop offset="1" stop-color="#a166ff"/>
        </linearGradient>
    </defs>
    <path fill="#333333" d="M78.85 89.74l-1-2.95h-4.59l-1 2.95h-1.67l4.1-11.09h1.76l4.09 11.09zm-5.17-4.18h3.73l-1.87-5.44zM92.26 89.74v-5.51a1.83 1.83 0 00-.26-1.18 1.13 1.13 0 00-1-.39 4.49 4.49 0 00-2.35.72 1.94 1.94 0 010 .24v6.12h-1.58v-5.51a1.9 1.9 0 00-.3-1.18 1.13 1.13 0 00-1-.39 4.35 4.35 0 00-2.34.71v6.37h-1.54v-8.12h1.33l.16.82a5.32 5.32 0 013-1.06 2 2 0 012 1.14 5.43 5.43 0 013.17-1.14 2.23 2.23 0 011.7.63 2.49 2.49 0 01.59 1.77v6zM100.94 89.74l-.12-.84a4.2 4.2 0 01-1.28.77 3.76 3.76 0 01-1.38.27 2.54 2.54 0 01-1.82-.64 2.31 2.31 0 01-.68-1.74 2.28 2.28 0 01.84-1.86 3.34 3.34 0 012.24-.7 8.38 8.38 0 012 .27v-1a1.59 1.59 0 00-.39-1.22 2 2 0 00-1.35-.4 8.71 8.71 0 00-2.81.49V82a5.17 5.17 0 011.41-.47 8.55 8.55 0 011.68-.17 3.29 3.29 0 012.24.64 2.42 2.42 0 01.72 1.92v5.8zm-2.4-1a3.75 3.75 0 002.21-.81V86.3a6.86 6.86 0 00-1.69-.21c-1.21 0-1.81.46-1.81 1.39a1.27 1.27 0 00.33.94 1.37 1.37 0 00.96.32zM104 89.74v-1.22l4.66-5.65h-4.5v-1.25h6.26v1.2l-4.72 5.67h4.76v1.25zM115.52 90a3.63 3.63 0 01-2.85-1.14 5.4 5.4 0 010-6.32 4.13 4.13 0 015.7 0 5.4 5.4 0 010 6.32 3.63 3.63 0 01-2.85 1.14zm0-1.28c1.5 0 2.26-1 2.26-3s-.76-3-2.26-3-2.26 1-2.26 3 .74 2.98 2.26 2.98zM126.83 89.74v-5.43a1.9 1.9 0 00-.34-1.25 1.37 1.37 0 00-1.08-.4 4.45 4.45 0 00-2.48.82v6.26h-1.59v-8.12h1.33l.16.9a5.27 5.27 0 013.2-1.14 2.41 2.41 0 011.78.62 2.46 2.46 0 01.61 1.78v6zM20.69 105.74V94.65h2.4v4.75l4-4.75h2.7L25.3 99.8l4.89 5.94h-2.86l-4.24-5.27v5.27zM32.51 96.3a1.4 1.4 0 01-1-.34 1.16 1.16 0 01-.37-.91 1.14 1.14 0 01.37-.91 1.35 1.35 0 011-.34 1.38 1.38 0 011 .34 1.17 1.17 0 01.37.91 1.19 1.19 0 01-.37.91 1.42 1.42 0 01-1 .34zm-1.16 9.44v-8.18h2.33v8.18zM40.75 105.74v-5.36a1.36 1.36 0 00-.28-1 1.15 1.15 0 00-.88-.31 3.21 3.21 0 00-1.75.55v6.08h-2.33v-8.14h1.92l.22.88a4.89 4.89 0 013.07-1.12 2.16 2.16 0 012.37 2.37v6zM47 102.22a2 2 0 00.64 1.52 2.82 2.82 0 001.81.48 9.74 9.74 0 002.5-.4v1.55a5.54 5.54 0 01-1.34.45A8.45 8.45 0 0149 106a4.07 4.07 0 01-3-1.13 5.35 5.35 0 010-6.41 3.79 3.79 0 012.93-1.14 3.29 3.29 0 012.44.87 3.4 3.4 0 01.85 2.49 5.91 5.91 0 010 .8c0 .3-.07.54-.11.74zm1.75-3.28a1.61 1.61 0 00-1.24.47 2.07 2.07 0 00-.52 1.37h3.13v-.28c.04-1.04-.42-1.56-1.33-1.56zM57.42 103.48a.68.68 0 00-.18-.5 2.53 2.53 0 00-.74-.38l-1.25-.5a3.22 3.22 0 01-1.41-.94 2.24 2.24 0 01-.43-1.42 2.12 2.12 0 01.87-1.74 3.77 3.77 0 012.33-.66 5.87 5.87 0 012.48.53v1.53a8.07 8.07 0 00-2.27-.4 2.25 2.25 0 00-1 .16.59.59 0 00-.12 1 2.65 2.65 0 00.77.41l1.22.5a3.46 3.46 0 011.42.93 2.13 2.13 0 01.42 1.37 2.33 2.33 0 01-.9 1.91 3.68 3.68 0 01-2.38.73 6.3 6.3 0 01-2.91-.65v-1.56a9.45 9.45 0 002.89.5c.77-.02 1.19-.3 1.19-.82zM62.31 96.3a1.41 1.41 0 01-1-.34 1.16 1.16 0 01-.37-.91 1.14 1.14 0 01.37-.91 1.57 1.57 0 012 0 1.14 1.14 0 01.37.91 1.16 1.16 0 01-.37.91 1.4 1.4 0 01-1 .34zm-1.17 9.44v-8.18h2.33v8.18zM69.25 103.48a.65.65 0 00-.19-.5 2.53 2.53 0 00-.74-.38l-1.25-.5a3.22 3.22 0 01-1.41-.94 2.31 2.31 0 01-.43-1.42A2.12 2.12 0 0166.1 98a3.79 3.79 0 012.33-.66 5.81 5.81 0 012.48.53v1.53a8.07 8.07 0 00-2.27-.4 2.25 2.25 0 00-1 .16.54.54 0 00-.3.51.56.56 0 00.18.44 2.61 2.61 0 00.78.41l1.21.5A3.39 3.39 0 0171 102a2.13 2.13 0 01.42 1.37 2.33 2.33 0 01-.9 1.91 3.66 3.66 0 01-2.38.73 6.3 6.3 0 01-2.91-.65v-1.56a9.5 9.5 0 002.9.5c.73-.02 1.12-.3 1.12-.82zM76.61 105.74V94.65h4a5 5 0 013.82 1.43 7 7 0 010 8.21 4.9 4.9 0 01-3.77 1.45zM79 96.5v7.38h1.37q2.9 0 2.9-3.54V100c0-2.34-1-3.52-2.91-3.52zM91.87 105.74l-.19-.72a3.91 3.91 0 01-1.14.71 3.46 3.46 0 01-1.26.26 2.66 2.66 0 01-1.9-.67 2.58 2.58 0 01-.32-3.14 2.52 2.52 0 011.1-.92 3.91 3.91 0 011.7-.34 7.71 7.71 0 011.69.21v-.8a1.34 1.34 0 00-.3-1 1.73 1.73 0 00-1.12-.27 9.78 9.78 0 00-2.9.49V98a6.34 6.34 0 011.49-.49 9.28 9.28 0 011.82-.18A3.62 3.62 0 0193 98a2.63 2.63 0 01.76 2.09v5.67zm-1.93-1.32a2.08 2.08 0 00.82-.17 3.21 3.21 0 00.79-.48v-1.39a7.59 7.59 0 00-1.26-.12c-.93 0-1.39.38-1.39 1.12a.94.94 0 001 1zM100.78 105.53a5.35 5.35 0 01-1.93.33 2.74 2.74 0 01-2-.64 2.67 2.67 0 01-.65-2v-3.93H95v-1.44l1.3-.26.35-2.24h1.92v2.21h2.21v1.73h-2.25v3.84a.89.89 0 00.25.72 1.41 1.41 0 00.87.21 8.25 8.25 0 001.13-.1zM106.91 105.74l-.19-.72a3.91 3.91 0 01-1.14.71 3.46 3.46 0 01-1.26.26 2.66 2.66 0 01-1.9-.67 2.58 2.58 0 01-.32-3.14 2.52 2.52 0 011.1-.92 3.91 3.91 0 011.7-.34 7.71 7.71 0 011.69.21v-.8a1.34 1.34 0 00-.3-1 1.73 1.73 0 00-1.12-.27 9.78 9.78 0 00-2.9.49V98a6.34 6.34 0 011.49-.49 9.28 9.28 0 011.82-.18A3.62 3.62 0 01108 98a2.63 2.63 0 01.76 2.09v5.67zm-1.91-1.32a2.08 2.08 0 00.82-.17 3.21 3.21 0 00.79-.48v-1.39a7.59 7.59 0 00-1.26-.12c-.93 0-1.39.38-1.39 1.12a.94.94 0 001 1zM121.65 105.74l-.79-2.53h-3.79l-.75 2.53h-2.51l3.9-11.09h2.64l3.91 11.09zm-4.07-4.26h2.79L119 96.84zM130.4 105.74v-5.36a1.36 1.36 0 00-.29-1 1.12 1.12 0 00-.88-.31 3.18 3.18 0 00-1.74.55v6.08h-2.34v-8.14h1.92l.23.88a4.89 4.89 0 013.07-1.12 2.16 2.16 0 012.37 2.37v6zM139.15 105.74L139 105a3.91 3.91 0 01-1.14.71 3.46 3.46 0 01-1.26.26 2.66 2.66 0 01-1.9-.67 2.58 2.58 0 01-.32-3.14 2.52 2.52 0 011.1-.92 3.91 3.91 0 011.7-.34 7.71 7.71 0 011.69.21v-.8a1.34 1.34 0 00-.3-1 1.73 1.73 0 00-1.12-.27 9.78 9.78 0 00-2.9.49V98a6.34 6.34 0 011.45-.5 9.28 9.28 0 011.82-.18 3.62 3.62 0 012.41.66 2.63 2.63 0 01.76 2.09v5.67zm-1.93-1.32a2.08 2.08 0 00.82-.17 3.21 3.21 0 00.79-.48v-1.39a7.59 7.59 0 00-1.26-.12c-.93 0-1.39.38-1.39 1.12a.94.94 0 001 1zM146.48 105.58a3.84 3.84 0 01-1.44.27c-1.44 0-2.16-.81-2.16-2.42V93.9h2.34v9.34a1 1 0 00.15.63.59.59 0 00.5.19 5.86 5.86 0 00.61 0zM149.94 105.86l-3.24-8.3h2.48l1.83 6.11 1.73-6.11h2.41l-3.45 9.28a4.19 4.19 0 01-1.14 1.82 2.53 2.53 0 01-1.7.56 4.79 4.79 0 01-1.55-.25v-1.59a7.76 7.76 0 00.91.05 1.54 1.54 0 001-.31 2.37 2.37 0 00.63-1.08zM161.68 105.53a5.41 5.41 0 01-1.94.33 2.73 2.73 0 01-2-.64 2.63 2.63 0 01-.65-2v-3.93h-1.23v-1.44l1.29-.26.35-2.24h1.92v2.21h2.21v1.73h-2.21v3.84a.89.89 0 00.26.72 1.37 1.37 0 00.86.21 8.52 8.52 0 001.14-.1zM164.35 96.3a1.4 1.4 0 01-1-.34 1.16 1.16 0 01-.37-.91 1.14 1.14 0 01.37-.91 1.35 1.35 0 011-.34 1.38 1.38 0 011 .34 1.17 1.17 0 01.37.91 1.19 1.19 0 01-.37.91 1.42 1.42 0 01-1 .34zm-1.17 9.44v-8.18h2.34v8.18zM172.93 105.38a3.64 3.64 0 01-1 .4 5.88 5.88 0 01-1.27.13 3.9 3.9 0 01-3-1.09 5.21 5.21 0 01.06-6.3 4 4 0 013-1.14 4.54 4.54 0 012.16.52v1.55a6.36 6.36 0 00-1.73-.27 2.21 2.21 0 00-1.65.56 2.6 2.6 0 00-.52 1.8v.23a2.56 2.56 0 00.52 1.78 2.05 2.05 0 001.6.57 7.09 7.09 0 001.83-.29zM178.06 103.48a.68.68 0 00-.18-.5 2.53 2.53 0 00-.74-.38l-1.25-.5a3.22 3.22 0 01-1.41-.94 2.24 2.24 0 01-.43-1.42 2.12 2.12 0 01.87-1.76 3.77 3.77 0 012.33-.66 5.87 5.87 0 012.48.53v1.55a8.07 8.07 0 00-2.27-.37 2.25 2.25 0 00-1 .16.59.59 0 00-.12 1 2.65 2.65 0 00.77.41l1.22.5a3.35 3.35 0 011.41.93 2.08 2.08 0 01.43 1.37 2.31 2.31 0 01-.91 1.91 3.63 3.63 0 01-2.37.73 6.3 6.3 0 01-2.91-.65v-1.56a9.45 9.45 0 002.89.5c.81-.05 1.19-.33 1.19-.85z"/>
    <g id="Icon-Architecture_64_Arch_Amazon-Kinesis-Data-Analytics_64" data-name="Icon-Architecture/64/Arch_Amazon-Kinesis-Data-Analytics_64">
        <g id="Icon-Architecture-BG_64_Analytics" data-name="Icon-Architecture-BG/64/Analytics">
            <path id="Rectangle" fill="url(#linear-gradient)" d="M73 19h54v54H73z"/>
        </g>
        <g id="Icon-Service_64_Amazon-Kinesis-Data-Analytics" data-name="Icon-Service/64/Amazon-Kinesis-Data-Analytics">
            <path id="Amazon-Kinesis-Data-Analytics_Icon_64_Squid" data-name="Amazon-Kinesis-Data-Analytics Icon 64 Squid" d="M85.82 60.85h1.36c0-3.37 1.14-7.09 9.46-9.38v-1.39c-9.57 2.53-10.82 7.07-10.82 10.77zm4.06 4.05h1.34c0-3.11 0-6.93 5.42-9.6v-1.49c-6.76 3-6.76 7.68-6.76 11.09zm27-14.18H99.32v12.83h1.36v-6.07a.67.67 0 01.67-.68h2.7a.67.67 0 01.67.68v6.07h1.35v-8.1a.69.69 0 01.68-.68h2.7a.68.68 0 01.67.68v8.1h1.35V53.43a.68.68 0 01.68-.68h2.7a.68.68 0 01.68.68v10.12h1.35zm-4.06 12.83h1.36V54.1h-1.36zm-5.39 0h1.35v-7.43h-1.35zm-5.4 0h1.35v-5.4H102zm16.19-13.5v14.18a.67.67 0 01-.67.67h-18.9a.68.68 0 01-.68-.67V50.05a.68.68 0 01.68-.67h18.9a.67.67 0 01.67.67zm-35.1-13.5h-1.34c0 5 6.77 8.15 20.17 9.45-13.4 1.3-20.17 4.46-20.17 9.45h1.34c0-3.28 4.57-8.77 35.1-8.77v-1.36c-30.53 0-35.1-5.49-35.1-8.77zm4.06-5.4h-1.36c0 6.34 3.85 12.82 32.4 12.82v-1.35c-27.36 0-31-5.8-31-11.47zm31 8.78v1.35c-12.37 0-20.43-1.6-24.63-4.87-3.71-2.91-3.71-6.61-3.71-9.31h1.34c0 5.11 0 12.83 27 12.83z" fill="#fff" fill-rule="evenodd"/>
        </g>
    </g>
</svg>
