<svg xmlns="http://www.w3.org/2000/svg" width="200" height="128">
	<defs>
		<linearGradient id="a" x1="29.03" y1="-456.03" x2="-77.04" y2="-349.96" gradientTransform="rotate(180 24.5 -165)" gradientUnits="userSpaceOnUse">
			<stop offset="0" stop-color="#bd0816"/>
			<stop offset="1" stop-color="#ff5252"/>
		</linearGradient>
	</defs>
	<path d="m91.65 90.74-1-2.95h-4.59l-1 2.95h-1.67l4.1-11.09h1.76l4.09 11.09zm-5.17-4.18h3.73l-1.87-5.44zm15.84 4.18-2.1-8.69-2.11 8.69h-1.82l-3.23-11.09h1.77l2.39 9.29 2.12-9h1.8l2.12 9 2.4-9.31h1.72l-3.24 11.09zm8.75-5.27a4.51 4.51 0 0 1-1.9-1.2 2.63 2.63 0 0 1-.59-1.77 3 3 0 0 1 .44-1.6 3.09 3.09 0 0 1 1.29-1.09 4.52 4.52 0 0 1 2-.4 8.39 8.39 0 0 1 3 .57v1.3a10 10 0 0 0-2.85-.5 2.68 2.68 0 0 0-1.61.43 1.4 1.4 0 0 0-.56 1.21 1.33 1.33 0 0 0 .38 1 4.07 4.07 0 0 0 1.42.76l1.46.55a4.31 4.31 0 0 1 1.86 1.16 2.61 2.61 0 0 1 .57 1.75 3 3 0 0 1-1.1 2.45 4.5 4.5 0 0 1-2.95.91 7.29 7.29 0 0 1-3.2-.66v-1.27a9.87 9.87 0 0 0 3.17.56 2.85 2.85 0 0 0 1.78-.49 1.59 1.59 0 0 0 .65-1.35 1.36 1.36 0 0 0-.37-1 3.73 3.73 0 0 0-1.28-.75zm-18.66 21.27-1.76-7.83-1.65 7.83h-2.66l-3.07-11.09h2.66l1.76 8.48 1.76-8.21H92l1.79 8.18 1.73-8.45h2.59L95 106.74zm13.2 0-.79-2.53H101l-.75 2.53h-2.48l3.9-11.09h2.64l3.91 11.09zm-4.07-4.26h2.79l-1.41-4.64zm8 4.26V95.65h7v1.85H112v2.79h3.65v1.85H112v4.6z" fill="#333"/>
	<path d="M73 19h54v54H73z" fill="url(#a)"/>
	<path d="m108.1 55.1 1-1 8.7 8.7-1 1zM82.2 29.2l1-1 9.6 9.5-1.1 1zm2.2 31.4 5-5 1 1-5 5zm25.2-25.2 5-5 1 1-5 5zm8.4 9.9v1.4h-1.4a16.28 16.28 0 0 1-3.1 9l-1.2-.8a15 15 0 0 0 2.8-8.2h-1.4v-1.4h1.4a15 15 0 0 0-2.8-8.2l1.2-.8a16.28 16.28 0 0 1 3.1 9zm-8.3-12.7-.8 1.2a15 15 0 0 0-8.2-2.8v1.4h-1.4V31a15 15 0 0 0-8.2 2.8l-.8-1.2a16.28 16.28 0 0 1 9-3.1v-1.4h1.4v1.4a16.28 16.28 0 0 1 9 3.1zm0 26.9a16.28 16.28 0 0 1-9 3.1V64h-1.4v-1.4a16.28 16.28 0 0 1-9-3.1l.8-1.2a15 15 0 0 0 8.2 2.8v-1.4h1.4v1.4a15 15 0 0 0 8.2-2.8zM84.9 46.7a15 15 0 0 0 2.8 8.2l-1.1.8a16.28 16.28 0 0 1-3.1-9h-1.4v-1.4h1.4a16.28 16.28 0 0 1 3.1-9l1.2.8a15 15 0 0 0-2.8 8.2h1.4v1.4zm21.6-5.2a.85.85 0 0 0-.7 0c-.2.1-.4.3-.3.5l-.2 1.3a10.05 10.05 0 0 0-5.8-8.1 8.06 8.06 0 0 0-3.3-1.4.8.8 0 0 0-.9.5c-.1.2.1.5.2.7a6.44 6.44 0 0 1 1.8 5.7c-.9-1.1-2.2-2.4-3.8-2.4a.86.86 0 0 0-.6.3.64.64 0 0 0 0 .6c.4 1.1 1.2 4.2 0 6.2-.1.1-.1.2-.2.3a6.63 6.63 0 0 0 2 8.7 24.71 24.71 0 0 0 4.6 2.3c.1 0 .1.1.2 0h.1c.9-.1 7.5-.9 8.8-6.1 1.9-7-1.7-9.1-1.9-9.1zm-8.1 13.4a14 14 0 0 1-2.9-1.6 5.07 5.07 0 0 1-1.5-6.8l.1-.3c1.2-1.9.9-4.5.5-6a11.31 11.31 0 0 1 2.3 2.6.7.7 0 0 0 .9.4c.1-.1.3-.2.4-.4a8.72 8.72 0 0 0-.2-6.9 4.71 4.71 0 0 1 2.1 2.3 8.64 8.64 0 0 1-.6 7.6 13.6 13.6 0 0 0-1.1 9.1zm8.7-4.6c-.9 3.7-5.5 4.7-7.1 5a11.82 11.82 0 0 1 .8-8.8 10.42 10.42 0 0 0 1.1-7.7 9 9 0 0 1 1.8 7.6.64.64 0 0 0 .5.8.73.73 0 0 0 .6-.2 6.27 6.27 0 0 0 1.8-3.4c.7.9 1.4 3 .5 6.7z" fill="#fff"/>
</svg>
