<svg xmlns="http://www.w3.org/2000/svg" width="200" height="128">
	<defs>
		<linearGradient id="a" x1="29.03" y1="-456.03" x2="-77.04" y2="-349.96" gradientTransform="rotate(180 24.5 -165)" gradientUnits="userSpaceOnUse">
			<stop offset="0" stop-color="#4d27a8"/>
			<stop offset="1" stop-color="#a166ff"/>
		</linearGradient>
	</defs>
	<path d="m78.85 90.74-1-2.95h-4.59l-1 2.95h-1.67l4.1-11.09h1.76l4.09 11.09zm-5.17-4.18h3.73l-1.87-5.44zm18.58 4.18v-5.51a1.83 1.83 0 0 0-.26-1.18 1.13 1.13 0 0 0-1-.39 4.49 4.49 0 0 0-2.35.72 1.94 1.94 0 0 1 0 .24v6.12h-1.58v-5.51a1.9 1.9 0 0 0-.3-1.18 1.13 1.13 0 0 0-1-.39 4.35 4.35 0 0 0-2.34.71v6.37h-1.54v-8.12h1.33l.16.82a5.32 5.32 0 0 1 3-1.06 2 2 0 0 1 2 1.14 5.43 5.43 0 0 1 3.17-1.14 2.23 2.23 0 0 1 1.7.63 2.49 2.49 0 0 1 .59 1.77v6zm8.68 0-.12-.84a4.2 4.2 0 0 1-1.28.77 3.76 3.76 0 0 1-1.38.27 2.54 2.54 0 0 1-1.82-.64 2.31 2.31 0 0 1-.68-1.74 2.28 2.28 0 0 1 .84-1.86 3.34 3.34 0 0 1 2.24-.7 8.38 8.38 0 0 1 2 .27v-1a1.59 1.59 0 0 0-.39-1.22 2 2 0 0 0-1.35-.4 8.71 8.71 0 0 0-2.81.49V83a5.17 5.17 0 0 1 1.41-.47 8.55 8.55 0 0 1 1.68-.17 3.29 3.29 0 0 1 2.24.64 2.42 2.42 0 0 1 .72 1.92v5.8zm-2.4-1a3.75 3.75 0 0 0 2.21-.81V87.3a6.86 6.86 0 0 0-1.69-.21c-1.21 0-1.81.46-1.81 1.39a1.27 1.27 0 0 0 .33.94 1.37 1.37 0 0 0 .96.32zm5.46 1v-1.22l4.66-5.65h-4.5v-1.25h6.26v1.2l-4.72 5.67h4.76v1.25zm11.52.24a3.63 3.63 0 0 1-2.85-1.14 5.4 5.4 0 0 1 0-6.32 4.13 4.13 0 0 1 5.7 0 5.4 5.4 0 0 1 0 6.32 3.63 3.63 0 0 1-2.85 1.16zm0-1.28c1.5 0 2.26-1 2.26-3s-.76-3-2.26-3-2.26 1-2.26 3 .74 3 2.26 3zm11.31 1v-5.39a1.9 1.9 0 0 0-.34-1.25 1.37 1.37 0 0 0-1.08-.4 4.45 4.45 0 0 0-2.48.82v6.26h-1.59v-8.12h1.33l.16.9a5.27 5.27 0 0 1 3.2-1.14 2.41 2.41 0 0 1 1.78.62 2.46 2.46 0 0 1 .61 1.78v6zm-103.48 16V95.65h7.29v1.85h-4.89v2.63h4V102h-4v2.9h4.89v1.86zm12.65-.12a3.77 3.77 0 0 1-1.44.27c-1.44 0-2.16-.81-2.16-2.42V94.9h2.34v9.34a1 1 0 0 0 .15.63.6.6 0 0 0 .51.19 5.51 5.51 0 0 0 .6 0zm6.29.16-.19-.72a3.91 3.91 0 0 1-1.14.71 3.51 3.51 0 0 1-1.26.26 2.66 2.66 0 0 1-1.9-.67 2.58 2.58 0 0 1-.32-3.14 2.52 2.52 0 0 1 1.1-.92 3.88 3.88 0 0 1 1.7-.34 7.71 7.71 0 0 1 1.69.21v-.8a1.34 1.34 0 0 0-.3-1 1.73 1.73 0 0 0-1.12-.27 9.78 9.78 0 0 0-2.9.49V99a6.34 6.34 0 0 1 1.49-.49 9.28 9.28 0 0 1 1.86-.19 3.62 3.62 0 0 1 2.4.68 2.63 2.63 0 0 1 .76 2.09v5.67zm-1.93-1.32a2.08 2.08 0 0 0 .82-.17 3.21 3.21 0 0 0 .79-.48v-1.39a7.59 7.59 0 0 0-1.26-.12c-.93 0-1.39.38-1.39 1.12a1 1 0 0 0 .27.77 1 1 0 0 0 .8.27zm9.45-.94a.68.68 0 0 0-.18-.5 2.63 2.63 0 0 0-.75-.38l-1.24-.5a3.16 3.16 0 0 1-1.41-.94 2.24 2.24 0 0 1-.43-1.42 2.12 2.12 0 0 1 .9-1.74 3.75 3.75 0 0 1 2.3-.68 5.87 5.87 0 0 1 2.48.53v1.55a8.13 8.13 0 0 0-2.28-.37 2.31 2.31 0 0 0-1 .16.54.54 0 0 0-.3.51.56.56 0 0 0 .18.44 2.75 2.75 0 0 0 .78.41l1.22.5a3.35 3.35 0 0 1 1.41.93 2.14 2.14 0 0 1 .43 1.37 2.34 2.34 0 0 1-.91 1.91 3.63 3.63 0 0 1-2.37.73 6.37 6.37 0 0 1-2.92-.65v-1.56a9.5 9.5 0 0 0 2.9.5c.84 0 1.22-.28 1.22-.8zm8.51 2a5.35 5.35 0 0 1-1.93.33 2.74 2.74 0 0 1-2-.64 2.67 2.67 0 0 1-.65-2v-3.95h-1.21v-1.37l1.3-.26.35-2.24h1.92v2.21h2.21v1.73H56.1v3.84a.89.89 0 0 0 .25.72 1.39 1.39 0 0 0 .87.21 8.25 8.25 0 0 0 1.13-.1zM61 97.3a1.41 1.41 0 0 1-1-.34 1.16 1.16 0 0 1-.37-.91 1.14 1.14 0 0 1 .37-.91 1.57 1.57 0 0 1 2 0 1.14 1.14 0 0 1 .37.91A1.16 1.16 0 0 1 62 97a1.4 1.4 0 0 1-1 .3zm-1.17 9.44v-8.18h2.33v8.18zm10.54-.36a3.53 3.53 0 0 1-1 .4 5.79 5.79 0 0 1-1.26.13 3.92 3.92 0 0 1-3-1.09 5.21 5.21 0 0 1 .06-6.3 4 4 0 0 1 3-1.14 4.54 4.54 0 0 1 2.16.52v1.55a6.29 6.29 0 0 0-1.72-.27 2.18 2.18 0 0 0-1.65.56 2.6 2.6 0 0 0-.53 1.8v.23a2.56 2.56 0 0 0 .52 1.78 2.08 2.08 0 0 0 1.61.57 7 7 0 0 0 1.82-.29zm5.14-1.9a.65.65 0 0 0-.19-.5 2.53 2.53 0 0 0-.74-.38l-1.25-.5a3.22 3.22 0 0 1-1.41-.94 2.31 2.31 0 0 1-.43-1.42 2.12 2.12 0 0 1 .9-1.74 3.77 3.77 0 0 1 2.33-.66 5.84 5.84 0 0 1 2.48.53v1.55a8.07 8.07 0 0 0-2.27-.37 2.25 2.25 0 0 0-1 .16.54.54 0 0 0-.3.51.56.56 0 0 0 .18.44 2.65 2.65 0 0 0 .77.41l1.22.5a3.46 3.46 0 0 1 1.42.93 2.13 2.13 0 0 1 .42 1.37 2.33 2.33 0 0 1-.9 1.91 3.68 3.68 0 0 1-2.38.73 6.3 6.3 0 0 1-2.91-.65v-1.56a9.45 9.45 0 0 0 2.89.5c.81-.02 1.2-.3 1.2-.82zm5.39-1.26a2 2 0 0 0 .64 1.52 2.8 2.8 0 0 0 1.81.48 9.67 9.67 0 0 0 2.49-.4v1.55a5.45 5.45 0 0 1-1.33.45 8.53 8.53 0 0 1-1.61.16 4.09 4.09 0 0 1-3.1-1.11 5.4 5.4 0 0 1 0-6.41 3.8 3.8 0 0 1 2.93-1.14 3.26 3.26 0 0 1 2.44.87 3.41 3.41 0 0 1 .86 2.49v.8c0 .3-.07.54-.11.74zm1.74-3.28a1.64 1.64 0 0 0-1.24.47 2.17 2.17 0 0 0-.52 1.37h3.14v-.28q.03-1.56-1.35-1.56zm9.86 6.8-.19-.72a4 4 0 0 1-1.15.71 3.41 3.41 0 0 1-1.25.26 2.66 2.66 0 0 1-1.9-.67 2.36 2.36 0 0 1-.71-1.79 2.45 2.45 0 0 1 .38-1.35 2.6 2.6 0 0 1 1.11-.92 3.86 3.86 0 0 1 1.69-.34 7.8 7.8 0 0 1 1.7.21v-.8a1.3 1.3 0 0 0-.31-1 1.71 1.71 0 0 0-1.12-.27 9.72 9.72 0 0 0-2.89.49V99a6.19 6.19 0 0 1 1.49-.49 9.13 9.13 0 0 1 1.82-.18 3.63 3.63 0 0 1 2.41.66 2.63 2.63 0 0 1 .76 2.09v5.67zm-1.94-1.32a2.13 2.13 0 0 0 .83-.17 3.41 3.41 0 0 0 .79-.48v-1.39a7.61 7.61 0 0 0-1.27-.12c-.92 0-1.39.38-1.39 1.12a1 1 0 0 0 .27.77 1.06 1.06 0 0 0 .8.27zm6 1.32v-8.18h1.94l.28 1.22a4.45 4.45 0 0 1 1.21-1 2.55 2.55 0 0 1 1.21-.3 4.85 4.85 0 0 1 .64 0v2.16a4.37 4.37 0 0 0-1-.1 5 5 0 0 0-1.94.37v5.78zm12.38-.36a3.53 3.53 0 0 1-1 .4 5.79 5.79 0 0 1-1.26.13 3.91 3.91 0 0 1-3-1.09 5.21 5.21 0 0 1 .06-6.3 4 4 0 0 1 3-1.14 4.54 4.54 0 0 1 2.16.52v1.55a6.3 6.3 0 0 0-1.73-.27 2.17 2.17 0 0 0-1.64.56 2.55 2.55 0 0 0-.53 1.8v.23a2.56 2.56 0 0 0 .52 1.78 2.08 2.08 0 0 0 1.61.57 7 7 0 0 0 1.82-.29zm6.91.36v-5.36a1.31 1.31 0 0 0-.29-1 1.12 1.12 0 0 0-.88-.31 3.21 3.21 0 0 0-1.74.55v6.08h-2.34V94.9h2.4v4.4a4.93 4.93 0 0 1 2.88-1 2.16 2.16 0 0 1 2.37 2.37v6zm11.06-4.85a4.7 4.7 0 0 1-2.05-1.29 3.22 3.22 0 0 1 .49-4.33 4.58 4.58 0 0 1 3-.89 8.56 8.56 0 0 1 3.07.57v1.83a9.74 9.74 0 0 0-2.88-.48c-1.25 0-1.88.4-1.88 1.21a1 1 0 0 0 .32.74 4.29 4.29 0 0 0 1.23.61l1.18.43a5.13 5.13 0 0 1 2.12 1.27 2.81 2.81 0 0 1 .63 1.9 3.17 3.17 0 0 1-1.18 2.6 5.07 5.07 0 0 1-3.25 1 9.86 9.86 0 0 1-1.79-.17 6.38 6.38 0 0 1-1.54-.46v-1.82a12.4 12.4 0 0 0 1.72.38 10.08 10.08 0 0 0 1.64.15 2.6 2.6 0 0 0 1.46-.35 1.11 1.11 0 0 0 .51-1 1 1 0 0 0-.31-.78 3.93 3.93 0 0 0-1.26-.64zm8.78 1.33a2 2 0 0 0 .64 1.52 2.82 2.82 0 0 0 1.81.48 9.74 9.74 0 0 0 2.5-.4v1.55a5.54 5.54 0 0 1-1.34.45 8.45 8.45 0 0 1-1.61.16 4.08 4.08 0 0 1-3.09-1.11 5.35 5.35 0 0 1 0-6.41 3.79 3.79 0 0 1 2.93-1.14 3.28 3.28 0 0 1 2.44.87 3.4 3.4 0 0 1 .85 2.49 5.91 5.91 0 0 1-.05.8c0 .3-.07.54-.11.74zm1.75-3.28a1.61 1.61 0 0 0-1.24.47 2.07 2.07 0 0 0-.52 1.37h3.13v-.28c.02-1.04-.44-1.56-1.35-1.56zm5.16 6.8v-8.18h1.92l.29 1.22a4.45 4.45 0 0 1 1.21-1 2.55 2.55 0 0 1 1.21-.3 5 5 0 0 1 .64 0v2.16a4.37 4.37 0 0 0-1-.1 5 5 0 0 0-1.87.46v5.78zm9.17 0-3.1-8.18h2.48l1.74 6.08 1.78-6.08h2.41l-3.08 8.18zm7.73-9.44a1.42 1.42 0 0 1-1-.34 1.18 1.18 0 0 1-.36-.91 1.17 1.17 0 0 1 .36-.91 1.38 1.38 0 0 1 1-.34 1.39 1.39 0 0 1 1 .34 1.17 1.17 0 0 1 .36.91 1.18 1.18 0 0 1-.36.91 1.44 1.44 0 0 1-.98.34zm-1.17 9.44v-8.18h2.34v8.18zm10.55-.36a3.64 3.64 0 0 1-1 .4 5.88 5.88 0 0 1-1.27.13 3.9 3.9 0 0 1-3-1.09 4.36 4.36 0 0 1-1-3.13 4.41 4.41 0 0 1 1.08-3.17 4 4 0 0 1 3-1.14 4.54 4.54 0 0 1 2.16.52v1.55a6.36 6.36 0 0 0-1.73-.27 2.18 2.18 0 0 0-1.65.56 2.6 2.6 0 0 0-.53 1.8v.23a2.61 2.61 0 0 0 .52 1.78 2.09 2.09 0 0 0 1.61.57 7.15 7.15 0 0 0 1.83-.29zm3.24-3.16a2.06 2.06 0 0 0 .64 1.52 2.82 2.82 0 0 0 1.81.48 9.68 9.68 0 0 0 2.5-.4v1.55a5.54 5.54 0 0 1-1.34.45 8.45 8.45 0 0 1-1.61.16 4.08 4.08 0 0 1-3.09-1.11 5.35 5.35 0 0 1 0-6.41 3.79 3.79 0 0 1 2.97-1.14 3.28 3.28 0 0 1 2.44.87 3.4 3.4 0 0 1 .85 2.49 7.91 7.91 0 0 1 0 .8 7.18 7.18 0 0 1-.12.74zm1.75-3.28a1.62 1.62 0 0 0-1.24.47 2.07 2.07 0 0 0-.52 1.37h3.13v-.28c.02-1.04-.43-1.56-1.35-1.56z" fill="#333"/>
	<path d="M73 19h54v54H73z" fill="url(#a)"/>
	<path d="M89.2 38.6h-6.5a.68.68 0 0 0-.7.7v23a.85.85 0 0 0 .7.8h6.5a.71.71 0 0 0 .7-.8v-23a.68.68 0 0 0-.7-.7zm-.7 23h-5.1V40h5.1zm9.3-3.7a5.27 5.27 0 0 0 1.5.5v4a.68.68 0 0 1-.7.7h-6.5a.68.68 0 0 1-.7-.7V50a9.2 9.2 0 0 0 1.4 3.7v7.9h5zm-5-15.7a10.46 10.46 0 0 0-1.4 3.7V35a.68.68 0 0 1 .7-.7h6.5a.68.68 0 0 1 .7.7v2.5a8.8 8.8 0 0 0-1.5.5v-2.3h-5zM107.2 59l1.4 1.4v2a.68.68 0 0 1-.7.7h-6.5a.68.68 0 0 1-.7-.7v-3.7a7.08 7.08 0 0 0 1.5.1v2.9h5zm-5-21.9a8.08 8.08 0 0 0-1.5.1v-8a.68.68 0 0 1 .7-.7h6.5a.75.75 0 0 1 .7.7v10.1a6.71 6.71 0 0 0-1.4-.9v-8.5h-5zm9.3 5.5a9.35 9.35 0 0 0-1.4-1.9v-7.9a.68.68 0 0 1 .7-.7h6.5a.68.68 0 0 1 .7.7v24.4l-1.4-1.5V33.5h-5.1zm5.6 15.8-6.4-6.5a9.28 9.28 0 0 0-4.7-12.4 9.15 9.15 0 0 0-12.3 4.6 9.39 9.39 0 0 0 12.9 12.2l6.4 6.3a2.9 2.9 0 0 0 4.2 0 3 3 0 0 0-.1-4.2zm-14.9-2.5a8 8 0 0 1-8-8 8 8 0 0 1 15.9 0 8 8 0 0 1-7.9 8zm13.9 5.7a1.57 1.57 0 0 1-2.2 0l-6.1-6.2a6.59 6.59 0 0 0 2.1-2.3l6.2 6.2a1.69 1.69 0 0 1 0 2.3zm-11.7-17.8a.1.1 0 0 1 .1.1l-.8 1.2a3.28 3.28 0 0 0-4.5.6 3.21 3.21 0 0 0 .7 4.5l-.9 1.2a4.66 4.66 0 0 1 5.4-7.6z" fill="#fff"/>
</svg>
