<svg xmlns="http://www.w3.org/2000/svg" width="200" height="128">
    <path d="M47.47 64.033a10.179 10.179 0 0 0 .6 1.361.817.817 0 0 1 .133.434.749.749 0 0 1-.36.567l-1.19.794a.908.908 0 0 1-.491.17.866.866 0 0 1-.567-.265 5.771 5.771 0 0 1-.681-.888 14.22 14.22 0 0 1-.585-1.115 6.98 6.98 0 0 1-5.552 2.609A5.178 5.178 0 0 1 35 66.339a5.333 5.333 0 0 1 .322-7.522 6.875 6.875 0 0 1 4.629-1.474 14.9 14.9 0 0 1 2 .152c.7.094 1.417.245 2.173.415v-1.379a4.193 4.193 0 0 0-.888-3.024 4.357 4.357 0 0 0-3.081-.869 8.611 8.611 0 0 0-2.041.246 15.162 15.162 0 0 0-2.041.642 5.348 5.348 0 0 1-.661.246 1.154 1.154 0 0 1-.3.057c-.265 0-.4-.189-.4-.586v-.926a1.2 1.2 0 0 1 .132-.662 1.423 1.423 0 0 1 .529-.4 10.857 10.857 0 0 1 2.381-.851 11.488 11.488 0 0 1 2.948-.359c2.249 0 3.893.51 4.951 1.531a6.251 6.251 0 0 1 1.569 4.649s-.027 5.533 0 6.122a7.339 7.339 0 0 0 .248 1.686zm-7.881 1.191a6.15 6.15 0 0 0 1.947-.34 4.213 4.213 0 0 0 1.8-1.21 3.014 3.014 0 0 0 .643-1.209 6.813 6.813 0 0 0 .188-1.644v-.794a15.687 15.687 0 0 0-1.738-.321 14.171 14.171 0 0 0-1.776-.114 4.358 4.358 0 0 0-2.816.756 2.7 2.7 0 0 0 1.757 4.876zm16.8 2.041a1.173 1.173 0 0 0 .756-.189 1.484 1.484 0 0 0 .359-.756l2.91-12.17 2.929 12.189a1.339 1.339 0 0 0 .359.755 1.133 1.133 0 0 0 .756.189h1.625a1.2 1.2 0 0 0 .718-.189 1.438 1.438 0 0 0 .4-.737l4.552-14.607a2.736 2.736 0 0 0 .132-.473 1.858 1.858 0 0 0 .038-.3.42.42 0 0 0-.473-.472h-1.757a1.228 1.228 0 0 0-.737.189 1.607 1.607 0 0 0-.378.737L65.309 64.09l-2.986-12.661a1.276 1.276 0 0 0-.359-.737 1.133 1.133 0 0 0-.756-.189H59.7a1.3 1.3 0 0 0-.756.189 1.328 1.328 0 0 0-.359.737l-2.948 12.51-3.175-12.51a1.534 1.534 0 0 0-.378-.737 1.044 1.044 0 0 0-.737-.189h-1.855a.414.414 0 0 0-.454.472 3.335 3.335 0 0 0 .17.756l4.441 14.608a1.542 1.542 0 0 0 .4.737 1.056 1.056 0 0 0 .718.189zm25.36.113a6.1 6.1 0 0 0 2.1-1.058 5.087 5.087 0 0 0 1.379-1.663 4.851 4.851 0 0 0 .492-2.192 4.277 4.277 0 0 0-.87-2.646 5.743 5.743 0 0 0-2.929-1.814l-2.683-.85a5.655 5.655 0 0 1-2.079-1.04 1.784 1.784 0 0 1-.567-1.342 1.826 1.826 0 0 1 .888-1.681 4.881 4.881 0 0 1 2.514-.53 8.651 8.651 0 0 1 3.628.737 1.95 1.95 0 0 0 .718.227c.284 0 .435-.208.435-.6v-.889a1.02 1.02 0 0 0-.17-.623 1.645 1.645 0 0 0-.567-.473 4.2 4.2 0 0 0-.794-.34c-.34-.113-.7-.208-1.077-.3-.4-.076-.794-.151-1.228-.208a9.449 9.449 0 0 0-1.267-.076 8.231 8.231 0 0 0-2.381.322 6 6 0 0 0-1.965.982 4.871 4.871 0 0 0-1.361 1.55 4.207 4.207 0 0 0-.51 2.1A4.509 4.509 0 0 0 74.4 57.7a5.769 5.769 0 0 0 3.024 1.927l2.74.85a4.745 4.745 0 0 1 1.908.983 1.838 1.838 0 0 1 .511 1.323 2.036 2.036 0 0 1-.983 1.8 5.1 5.1 0 0 1-2.759.624 11.365 11.365 0 0 1-2.249-.227 10.279 10.279 0 0 1-2.078-.661c-.189-.076-.36-.152-.473-.189a1.064 1.064 0 0 0-.34-.057c-.284 0-.435.189-.435.586v.963a1.328 1.328 0 0 0 .114.53 1.357 1.357 0 0 0 .585.529 8.639 8.639 0 0 0 2.174.756 12.544 12.544 0 0 0 2.91.34 8.967 8.967 0 0 0 2.7-.399z" fill="#252f3e"/>
    <path d="M82.618 76.959c-6.217 4.592-15.25 7.03-23.016 7.03A41.641 41.641 0 0 1 31.5 73.274c-.585-.529-.056-1.247.643-.832a56.667 56.667 0 0 0 28.119 7.465 56.112 56.112 0 0 0 21.448-4.384c1.041-.473 1.929.677.908 1.436zm.945 4.138c-.226.567.265.794.775.359 3.326-2.8 4.2-8.636 3.515-9.486-.68-.831-6.52-1.55-10.072.945-.548.4-.454.926.151.85 2.022-.245 6.482-.775 7.275.246.793 1.001-.888 5.216-1.644 7.089z" fill="#f90"/>
    <path d="M100.429 93.574H99.8V34.426h.631zM114.271 70.492V53.86h5.064a5.331 5.331 0 0 1 3.624 1.188 4 4 0 0 1 1.368 3.18 3.609 3.609 0 0 1-2.208 3.576 4.342 4.342 0 0 1 2.328 1.488 4.15 4.15 0 0 1 .816 2.616 4.269 4.269 0 0 1-1.38 3.348 5.28 5.28 0 0 1-3.66 1.236zm1.368-15.36v6.216h3.648q3.552 0 3.552-3.12 0-3.1-3.552-3.1zm0 7.488v6.6h4.536a3.839 3.839 0 0 0 2.688-.84 3.809 3.809 0 0 0 .012-4.932 3.79 3.79 0 0 0-2.652-.828zm13.488-6.792a1 1 0 0 1-.756-.288 1.207 1.207 0 0 1 0-1.536 1.136 1.136 0 0 1 1.512 0 1.207 1.207 0 0 1 0 1.536 1 1 0 0 1-.756.288zm-.7 14.664V58.42h1.373v12.072zm8.472-.1a4.694 4.694 0 0 1-1.224.167 1.978 1.978 0 0 1-1.5-.563 2.18 2.18 0 0 1-.54-1.572v-15.7h1.368V68.4a1.07 1.07 0 0 0 .2.743.983.983 0 0 0 .732.217 7.991 7.991 0 0 0 .96-.072zm6 0a4.694 4.694 0 0 1-1.224.167 1.978 1.978 0 0 1-1.5-.563 2.18 2.18 0 0 1-.54-1.572v-15.7h1.368V68.4a1.07 1.07 0 0 0 .2.743.983.983 0 0 0 .732.217 7.991 7.991 0 0 0 .96-.072zm3.528-14.568a1 1 0 0 1-.756-.288 1.207 1.207 0 0 1 0-1.536 1.136 1.136 0 0 1 1.512 0 1.207 1.207 0 0 1 0 1.536 1 1 0 0 1-.752.292zm-.7 14.664V58.42h1.373v12.072zm13.776 0v-8.204a3.482 3.482 0 0 0-.6-2.268 2.384 2.384 0 0 0-1.92-.708 8.281 8.281 0 0 0-4.68 1.536v9.648h-1.368V58.42h1.2l.144 1.392a9.872 9.872 0 0 1 2.472-1.3 7.571 7.571 0 0 1 2.52-.456 3.624 3.624 0 0 1 2.676.924 3.7 3.7 0 0 1 .924 2.724v8.784zm13.56-1.776a7.22 7.22 0 0 1-1.968 1.176 5.559 5.559 0 0 1-2.064.432 4.6 4.6 0 0 1-3.7-1.644 6.515 6.515 0 0 1-1.392-4.356 7.008 7.008 0 0 1 1.38-4.584 4.6 4.6 0 0 1 3.755-1.68 5.768 5.768 0 0 1 4.009 1.608l.144-1.248h1.2V69.94A5.929 5.929 0 0 1 173 74.248a5.575 5.575 0 0 1-4.176 1.476 7.9 7.9 0 0 1-3.912-.912v-1.128a10.5 10.5 0 0 0 3.839.792 4.327 4.327 0 0 0 3.277-1.1 4.932 4.932 0 0 0 1.044-3.48zm-3.72.36a6.025 6.025 0 0 0 3.72-1.536v-6.668a7.415 7.415 0 0 0-1.9-1.188 5.106 5.106 0 0 0-1.945-.372 3.441 3.441 0 0 0-2.891 1.248 5.934 5.934 0 0 0-.972 3.7 5.512 5.512 0 0 0 1.02 3.588 3.621 3.621 0 0 0 2.976 1.232z" fill="#252f3e"/>
</svg>
