<svg xmlns="http://www.w3.org/2000/svg" width="200" height="128">
    <defs>
        <linearGradient id="a" x1="-213.09" y1="-359.5" x2="-213.09" y2="-209.5" gradientTransform="rotate(-135 3.993 -165)" gradientUnits="userSpaceOnUse">
            <stop offset="0" stop-color="#2e27ad"/>
            <stop offset="1" stop-color="#527fff"/>
        </linearGradient>
    </defs>
    <path d="M91.65 90.74l-1-2.95h-4.59l-1 2.95h-1.67l4.1-11.09h1.76l4.09 11.09zm-5.17-4.18h3.73l-1.87-5.44zm15.84 4.18l-2.1-8.69-2.11 8.69h-1.82l-3.23-11.09h1.77l2.39 9.29 2.12-9h1.8l2.12 9 2.4-9.31h1.72l-3.24 11.09zm8.75-5.27a4.51 4.51 0 01-1.9-1.2 2.63 2.63 0 01-.59-1.77 3 3 0 01.44-1.6 3.09 3.09 0 011.29-1.09 4.52 4.52 0 012-.4 8.39 8.39 0 013 .57v1.3a10 10 0 00-2.85-.5 2.68 2.68 0 00-1.61.43 1.4 1.4 0 00-.56 1.21 1.33 1.33 0 00.38 1 4.07 4.07 0 001.42.76l1.46.55a4.31 4.31 0 011.86 1.16 2.61 2.61 0 01.57 1.75 3 3 0 01-1.1 2.45 4.5 4.5 0 01-2.95.91 7.29 7.29 0 01-3.2-.66v-1.27a9.87 9.87 0 003.17.56 2.85 2.85 0 001.78-.49 1.59 1.59 0 00.65-1.35 1.36 1.36 0 00-.37-1 3.73 3.73 0 00-1.28-.75zm-25.61 21.27l-2.31-4.1-2.29 4.1h-2.64l3.6-5.76-3.33-5.33h2.7l2 3.6 2-3.6h2.71l-3.38 5.29 3.65 5.8zm3.44-3.17v-1.92H94v1.92zm7 3.17V95.65h4.28a3.9 3.9 0 012.73.91A3.2 3.2 0 01104 99a3 3 0 01-.53 1.73 3.52 3.52 0 01-1.49 1.2l2.76 4.77h-2.48l-2.4-4.31h-1.61v4.31zm2.31-6h1.66a1.5 1.5 0 001.68-1.7 1.46 1.46 0 00-1.65-1.66h-1.65zm12.41 6l-.19-.72a3.91 3.91 0 01-1.14.71 3.42 3.42 0 01-1.26.26 2.62 2.62 0 01-1.89-.67 2.33 2.33 0 01-.72-1.79 2.38 2.38 0 01.39-1.35 2.52 2.52 0 011.1-.92 3.91 3.91 0 011.7-.34 7.64 7.64 0 011.69.21v-.8a1.34 1.34 0 00-.3-1 1.73 1.73 0 00-1.12-.27 9.83 9.83 0 00-2.9.49V99a6.5 6.5 0 011.49-.49 9.31 9.31 0 011.83-.18 3.59 3.59 0 012.4.66 2.63 2.63 0 01.76 2.09v5.67zm-1.93-1.32a2 2 0 00.82-.17 3.21 3.21 0 00.79-.48v-1.39a7.5 7.5 0 00-1.26-.12c-.93 0-1.39.38-1.39 1.12a.94.94 0 001 1zm7.84 1.44l-3.23-8.3h2.48l1.82 6.11 1.73-6.11h2.41l-3.45 9.28a4.19 4.19 0 01-1.14 1.82 2.52 2.52 0 01-1.69.56 4.85 4.85 0 01-1.56-.25v-1.59a7.92 7.92 0 00.92.05 1.57 1.57 0 001-.31 2.46 2.46 0 00.62-1.08z" fill="#333"/>
    <path d="M73 19h54v54H73z" fill="url(#a)"/>
    <path d="M112.3 51.7l-.2-1.5c2-.3 4.4-1.4 4.4-5.2 0-3.6-2.7-4.9-5.1-5.4-.3-.1-.6-.4-.5-.7-.1-2.8-1.8-3.8-3.2-3.8a2.68 2.68 0 00-2.3 1.2.78.78 0 01-.7.3c-.3-.1-.5-.2-.6-.5a9.46 9.46 0 00-2.2-3.6A8.1 8.1 0 0088 38a3.4 3.4 0 00.1 1c.1.4-.2.7-.6.8a4.94 4.94 0 00-4.1 5.2v.4a5.38 5.38 0 004.4 4.7l-.3 1.4c-3.1-.9-5.4-3.3-5.6-6.1v-.6a6.27 6.27 0 014.7-6.4v-.5a9.5 9.5 0 019.7-9.3 10 10 0 016.6 2.9 8.14 8.14 0 012.1 3.1 4.39 4.39 0 012.7-.9c2 0 4.2 1.4 4.5 4.6 3.7.9 5.7 3.2 5.7 6.7a6.11 6.11 0 01-5.6 6.7zm-12.3-10a10.8 10.8 0 1010.8 10.8A10.76 10.76 0 00100 41.7zm0 20.1a9.35 9.35 0 119.4-9.3 9.24 9.24 0 01-9.4 9.3zm5.8-5.7v1.4H94.2v-1.4h1.5v-4.3h1.4v4.3h2.2v-6.5h1.4v6.5h2.2v-8.7h1.4v8.7z" fill="#fff"/>
</svg>
