<svg xmlns="http://www.w3.org/2000/svg" width="200" height="128">
    <defs>
        <linearGradient id="a" x1="19.97" y1="225.03" x2="126.03" y2="118.97" gradientTransform="translate(0 -99)" gradientUnits="userSpaceOnUse">
            <stop offset="0" stop-color="#c8511b"/>
            <stop offset="1" stop-color="#f90"/>
        </linearGradient>
    </defs>
    <path d="M92.69 90.74l-.89-2.58h-4l-.87 2.58h-1.46L89.05 81h1.54l3.59 9.71zm-4.52-3.66h3.26l-1.64-4.76zM102 90.74l-1.83-7.61-1.85 7.61h-1.6L93.92 81h1.56l2.08 8.14 1.87-7.86H101l1.87 7.87L105 81h1.49l-2.82 9.71zm7.66-4.61a4 4 0 01-1.67-1 2.36 2.36 0 01-.52-1.55 2.47 2.47 0 01.4-1.4 2.72 2.72 0 011.12-1 4 4 0 011.73-.35 7.18 7.18 0 012.59.51v1.13a8.56 8.56 0 00-2.49-.43 2.3 2.3 0 00-1.41.37 1.24 1.24 0 00-.49 1.06 1.21 1.21 0 00.33.89 3.86 3.86 0 001.25.66l1.27.48a3.74 3.74 0 011.63 1 2.33 2.33 0 01.5 1.53 2.66 2.66 0 01-1 2.15 3.92 3.92 0 01-2.58.79 6.39 6.39 0 01-2.8-.57v-1.12a8.67 8.67 0 002.77.49 2.51 2.51 0 001.56-.43 1.4 1.4 0 00.57-1.18 1.2 1.2 0 00-.33-.86 3.08 3.08 0 00-1.11-.65zM20 104.74V95h6.38v1.63h-4.31V99h3.49v1.63h-3.49v2.53h4.28v1.63zm11.1-.14a3.48 3.48 0 01-1.26.23c-1.26 0-1.89-.7-1.89-2.11v-8.34h2v8.17a.91.91 0 00.13.56.56.56 0 00.44.16 4.34 4.34 0 00.53 0zm2.79-2.94a1.76 1.76 0 00.56 1.33 2.43 2.43 0 001.58.42 8.3 8.3 0 002.18-.35v1.35a4.63 4.63 0 01-1.16.4 7.33 7.33 0 01-1.41.14 3.6 3.6 0 01-2.71-1 4.72 4.72 0 010-5.61 3.31 3.31 0 012.56-1 2.86 2.86 0 012.14.77 3 3 0 01.75 2.17v.7a6.06 6.06 0 01-.1.65zm1.52-2.87a1.42 1.42 0 00-1.08.41 1.83 1.83 0 00-.46 1.2h2.75v-.24c-.03-.92-.43-1.37-1.24-1.37zm13.39 5.95v-4.85c0-.63-.29-1-.86-1a3.56 3.56 0 00-1.52.36v5.44h-2v-4.8c0-.63-.28-1-.85-1a3.43 3.43 0 00-1.54.38v5.42h-2v-7.11h1.68l.18.69a5.53 5.53 0 011.34-.69 3.6 3.6 0 011.22-.21 1.89 1.89 0 011.78.9 5.53 5.53 0 011.34-.69 4.11 4.11 0 011.3-.21 2 2 0 011.52.55 2.06 2.06 0 01.54 1.52v5.3zm5.5-3.08a1.76 1.76 0 00.56 1.33 2.45 2.45 0 001.58.42 8.37 8.37 0 002.19-.35v1.35a4.86 4.86 0 01-1.17.4A7.25 7.25 0 0156 105a3.6 3.6 0 01-2.71-1 4.72 4.72 0 010-5.61 3.32 3.32 0 012.57-1 2.85 2.85 0 012.13.77 3 3 0 01.75 2.17 7.11 7.11 0 01-.14 1.35zm1.53-2.87a1.43 1.43 0 00-1.09.41 1.83 1.83 0 00-.45 1.2H57v-.24c0-.92-.4-1.37-1.2-1.37zm9.11 5.95v-4.69a1.16 1.16 0 00-.25-.84 1 1 0 00-.77-.27 2.83 2.83 0 00-1.53.48v5.32h-2v-7.16H62l.19.77a4.33 4.33 0 012.69-1A1.87 1.87 0 0167 99.44v5.3zm8.23-.19a4.54 4.54 0 01-1.69.3 2.43 2.43 0 01-1.76-.56 2.34 2.34 0 01-.57-1.74v-3.46h-1.1v-1.26l1.13-.22.31-2h1.68v1.93h1.93v1.51h-1.93v3.36a.76.76 0 00.22.63 1.16 1.16 0 00.76.19 6.26 6.26 0 001-.09zm5.36.19l-.16-.63a3.35 3.35 0 01-1 .62 2.92 2.92 0 01-1.09.23 2.31 2.31 0 01-1.66-.59 2 2 0 01-.62-1.57 2.15 2.15 0 01.34-1.18 2.21 2.21 0 011-.8 3.4 3.4 0 011.48-.3 6.85 6.85 0 011.48.18v-.7a1.16 1.16 0 00-.26-.88 1.51 1.51 0 00-1-.24 8.59 8.59 0 00-2.54.44V98a5.16 5.16 0 011.31-.43 8.41 8.41 0 011.59-.16 3.2 3.2 0 012.11.58 2.32 2.32 0 01.66 1.83v5zm-1.69-1.15a1.78 1.78 0 00.72-.16 2.46 2.46 0 00.69-.42v-1.21a6.59 6.59 0 00-1.1-.1c-.81 0-1.22.33-1.22 1a.83.83 0 00.91.91zm8.39 1a3.56 3.56 0 01-1.26.23c-1.26 0-1.89-.7-1.89-2.11v-8.33h2v8.17a.91.91 0 00.13.56.57.57 0 00.44.16 4.66 4.66 0 00.54 0zm13.21.14V98l-2.14 4.35h-1.91L92.25 98v6.72H90.4V95h2.3l2.65 5.52L98 95h2.25v9.71zm5.48-3.08a1.73 1.73 0 00.56 1.33 2.43 2.43 0 001.58.42 8.36 8.36 0 002.18-.35v1.35a4.71 4.71 0 01-1.17.4 7.15 7.15 0 01-1.4.14 3.6 3.6 0 01-2.71-1 4.72 4.72 0 010-5.61 3.31 3.31 0 012.56-1 2.86 2.86 0 012.14.77 3 3 0 01.75 2.17 6.21 6.21 0 01-.05.7 6.39 6.39 0 01-.09.65zm1.52-2.87a1.4 1.4 0 00-1.08.41 1.83 1.83 0 00-.46 1.2h2.75v-.24c-.03-.91-.44-1.36-1.24-1.36zm9.35 5.95l-.16-.63a3 3 0 01-2.06.78 2.82 2.82 0 01-1.56-.44 2.91 2.91 0 01-1-1.28 4.83 4.83 0 01-.37-2 4.27 4.27 0 01.83-2.77 2.63 2.63 0 012.18-1 3 3 0 011.92.63v-3.64h2v10.36zm-1.55-1.39a2.37 2.37 0 001.29-.39v-3.7a2.76 2.76 0 00-1.39-.35 1.24 1.24 0 00-1.1.55 3 3 0 00-.37 1.68 2.86 2.86 0 00.39 1.66 1.33 1.33 0 001.15.56zm6.37-6.87a1.18 1.18 0 01-.85-.3 1.12 1.12 0 010-1.59 1.18 1.18 0 01.85-.3 1.19 1.19 0 01.85.3 1.12 1.12 0 010 1.59 1.19 1.19 0 01-.88.31zm-1 8.26v-7.15h2v7.16zm8.16 0l-.17-.63a3.3 3.3 0 01-1 .62 3 3 0 01-1.1.23 2.34 2.34 0 01-1.66-.59 2.26 2.26 0 01-.28-2.75 2.18 2.18 0 011-.8 3.45 3.45 0 011.49-.3 6.92 6.92 0 011.48.18V100a1.16 1.16 0 00-.27-.88 1.47 1.47 0 00-1-.24 8.53 8.53 0 00-2.53.44V98a5.07 5.07 0 011.3-.43 8.51 8.51 0 011.6-.16 3.17 3.17 0 012.1.58 2.29 2.29 0 01.67 1.83v5zm-1.77-1.14a1.78 1.78 0 00.72-.16 2.78 2.78 0 00.69-.42v-1.21a6.61 6.61 0 00-1.11-.1c-.81 0-1.21.33-1.21 1a.9.9 0 00.23.67.92.92 0 00.68.22zm12.43.89a7 7 0 01-2.54.44 4.73 4.73 0 01-3.58-1.27 5.16 5.16 0 01-1.22-3.72 5.21 5.21 0 011.28-3.75 4.73 4.73 0 013.63-1.33 7 7 0 012.34.39v1.66a10 10 0 00-2.09-.28 2.83 2.83 0 00-2.18.77 3.32 3.32 0 00-.72 2.35v.32a3.38 3.38 0 00.7 2.33 2.77 2.77 0 002.15.76 11 11 0 002.28-.32zm4.59.47a3.4 3.4 0 01-2.6-1 4.61 4.61 0 010-5.58 3.88 3.88 0 015.2 0 4.61 4.61 0 010 5.58 3.4 3.4 0 01-2.57 1.05zm0-1.57c1 0 1.47-.74 1.47-2.23s-.49-2.21-1.47-2.21-1.47.74-1.47 2.21.52 2.23 1.5 2.23zm9.73 1.36v-4.69a1.2 1.2 0 00-.25-.84 1 1 0 00-.77-.27 2.81 2.81 0 00-1.53.48v5.32h-2v-7.16h1.68l.19.77a4.33 4.33 0 012.69-1 1.88 1.88 0 012.07 2.07v5.3zm5.49 0l-2.72-7.16h2.17l1.53 5.32 1.55-5.32h2.12l-2.71 7.16zm7.07-3.08a1.73 1.73 0 00.56 1.33 2.43 2.43 0 001.58.42 8.36 8.36 0 002.18-.35v1.35a4.57 4.57 0 01-1.17.4 7.15 7.15 0 01-1.4.14 3.6 3.6 0 01-2.71-1 4.72 4.72 0 010-5.61 3.31 3.31 0 012.56-1 2.86 2.86 0 012.14.77 3 3 0 01.75 2.17 6.21 6.21 0 010 .7 6.39 6.39 0 01-.09.65zm1.52-2.87a1.41 1.41 0 00-1.08.41 1.83 1.83 0 00-.46 1.2h2.75v-.24c.03-.92-.37-1.37-1.18-1.37zm4.52 5.95v-7.16h1.68l.26 1.07a3.94 3.94 0 011.05-.88 2.34 2.34 0 011.06-.26h.56v1.89a4.6 4.6 0 00-.87-.08 4.5 4.5 0 00-1.69.32v5.06zm10.49-.19a4.54 4.54 0 01-1.69.3 2.43 2.43 0 01-1.76-.56 2.34 2.34 0 01-.57-1.74v-3.46h-1.08v-1.26l1.14-.22.31-2h1.68v1.93h1.93v1.51h-1.9v3.36a.76.76 0 00.22.63 1.16 1.16 0 00.76.19 6.26 6.26 0 001-.09z" fill="#333"/>
    <path d="M73 19h54v54H73z" fill="url(#a)"/>
    <path d="M104 32.5l-4-2.3-4 2.3-.7-1.3 4.3-2.5a1.1 1.1 0 01.8 0l4.3 2.5-.7 1.3zM90.3 56.2l-4-2.4v-4.3h-1.4v4.8a.6.6 0 00.3.6l4.4 2.5zm24.5-1.3c.2-.1.4-.4.3-.6v-4.7h-1.4v4.3l-4 2.3.7 1.2zm.3-17.3v4.8h-1.4v-3.5l-3.6 2.1v10.4a.55.55 0 01-.4.6l-9 5.2v4.2l3.3-1.9.7 1.3-4.3 2.5a1.1 1.1 0 01-.8 0l-4.3-2.5.7-1.3 3.3 1.9v-4.2l-9-5.2a.82.82 0 01-.4-.6V41l-3.6-2.1v3.5h-1.4v-4.7a.6.6 0 01.3-.6l4.4-2.5.7 1.2-3.3 1.9 3.6 2.1 9-5.2a1.1 1.1 0 01.8 0l9 5.1 3.6-2.1-3.3-1.8.7-1.2 4.4 2.5c.2.1.4.3.3.5zm-6.5 3.4l-8.6-5-8.6 5v10l8.6 4.9 8.6-4.9zm-2.3 2.1l-2 1.2v3.8a.6.6 0 01-.3.6l-3.3 1.9v2.7h-1.4v-2.7L96 48.7a.61.61 0 01-.3-.7v-3.7l-2-1.2.8-1.2 1.9 1.1 3.2-1.8a1.1 1.1 0 01.8 0l3.2 1.8 1.9-1.1zm-3.4 1.2l-2.9-1.6-2.9 1.6v3.4l2.9 1.6 2.9-1.6z" fill="#fff"/>
</svg>
