<svg xmlns="http://www.w3.org/2000/svg" width="200" height="128">
	<defs>
		<linearGradient id="a" x1="-292.18" y1="267.18" x2="-215.82" y2="190.82" gradientTransform="matrix(0 -1 -1 0 329 -208)" gradientUnits="userSpaceOnUse">
			<stop offset="0" stop-color="#4d27a8"/>
			<stop offset="1" stop-color="#a166ff"/>
		</linearGradient>
	</defs>
	<path d="m78.85 90.74-1-2.95h-4.59l-1 2.95h-1.67l4.1-11.09h1.76l4.09 11.09zm-5.17-4.18h3.73l-1.87-5.44zm18.58 4.18v-5.51a1.83 1.83 0 0 0-.26-1.18 1.13 1.13 0 0 0-1-.39 4.49 4.49 0 0 0-2.35.72 1.94 1.94 0 0 1 0 .24v6.12h-1.58v-5.51a1.9 1.9 0 0 0-.3-1.18 1.13 1.13 0 0 0-1-.39 4.35 4.35 0 0 0-2.34.71v6.37h-1.54v-8.12h1.33l.16.82a5.32 5.32 0 0 1 3-1.06 2 2 0 0 1 2 1.14 5.43 5.43 0 0 1 3.17-1.14 2.23 2.23 0 0 1 1.7.63 2.49 2.49 0 0 1 .59 1.77v6zm8.68 0-.12-.84a4.2 4.2 0 0 1-1.28.77 3.76 3.76 0 0 1-1.38.27 2.54 2.54 0 0 1-1.82-.64 2.31 2.31 0 0 1-.68-1.74 2.28 2.28 0 0 1 .84-1.86 3.34 3.34 0 0 1 2.24-.7 8.38 8.38 0 0 1 2 .27v-1a1.59 1.59 0 0 0-.39-1.22 2 2 0 0 0-1.35-.4 8.71 8.71 0 0 0-2.81.49V83a5.17 5.17 0 0 1 1.41-.47 8.55 8.55 0 0 1 1.68-.17 3.29 3.29 0 0 1 2.24.64 2.42 2.42 0 0 1 .72 1.92v5.8zm-2.4-1a3.75 3.75 0 0 0 2.21-.81V87.3a6.86 6.86 0 0 0-1.69-.21c-1.21 0-1.81.46-1.81 1.39a1.27 1.27 0 0 0 .33.94 1.37 1.37 0 0 0 .96.32zm5.46 1v-1.22l4.66-5.65h-4.5v-1.25h6.26v1.2l-4.72 5.67h4.76v1.25zm11.52.24a3.63 3.63 0 0 1-2.85-1.14 5.4 5.4 0 0 1 0-6.32 4.13 4.13 0 0 1 5.7 0 5.4 5.4 0 0 1 0 6.32 3.63 3.63 0 0 1-2.85 1.16zm0-1.28c1.5 0 2.26-1 2.26-3s-.76-3-2.26-3-2.26 1-2.26 3 .74 3 2.26 3zm11.31 1v-5.39a1.9 1.9 0 0 0-.34-1.25 1.37 1.37 0 0 0-1.08-.4 4.45 4.45 0 0 0-2.48.82v6.26h-1.59v-8.12h1.33l.16.9a5.27 5.27 0 0 1 3.2-1.14 2.41 2.41 0 0 1 1.78.62 2.46 2.46 0 0 1 .61 1.78v6zm-38 16-3.91-11.05h2.66l2.59 8.73 2.57-8.73h2.6l-3.94 11.09zm10.19-4v4h-2.31V95.65H101a3.85 3.85 0 0 1 2.74.94 3.37 3.37 0 0 1 1 2.58 3.34 3.34 0 0 1-1 2.57 3.85 3.85 0 0 1-2.74 1zm0-1.79h1.63a1.63 1.63 0 0 0 1.22-.44 1.78 1.78 0 0 0 .43-1.29 1.75 1.75 0 0 0-.43-1.29 1.63 1.63 0 0 0-1.22-.44h-1.6zm15.63 5.55a8.06 8.06 0 0 1-2.9.49 5.43 5.43 0 0 1-4.09-1.44 7.13 7.13 0 0 1 .06-8.54 5.42 5.42 0 0 1 4.1-1.52 7.88 7.88 0 0 1 2.67.45v1.89a11.17 11.17 0 0 0-2.38-.32 3.24 3.24 0 0 0-2.49.88 3.79 3.79 0 0 0-.83 2.68v.37a3.87 3.87 0 0 0 .8 2.67 3.18 3.18 0 0 0 2.45.87 12.8 12.8 0 0 0 2.61-.37z" fill="#333"/>
	<path data-name="Purple Gradient" fill="url(#a)" d="M73 19h54v54H73z"/>
	<path d="M99.24 52.49H89.16c-4 0-7-2.63-7.17-6.25v-.5a6.66 6.66 0 0 1 4.89-6.68v-.58a9.82 9.82 0 0 1 16.86-6.66 10.87 10.87 0 0 1 2.26 3.24 4.43 4.43 0 0 1 2.79-1c2.09 0 4.32 1.49 4.69 4.81a7.94 7.94 0 0 1 4.52 2.7l-1.13.89a6.84 6.84 0 0 0-4.18-2.28.71.71 0 0 1-.6-.67c-.17-2.75-1.78-4-3.31-4a3.1 3.1 0 0 0-2.46 1.25.72.72 0 0 1-1.25-.19 9.87 9.87 0 0 0-2.34-3.72 8.39 8.39 0 0 0-14.4 5.62 8.77 8.77 0 0 0 .06 1 .7.7 0 0 1-.54.77 5.35 5.35 0 0 0-4.39 5.46 2.54 2.54 0 0 0 0 .39c.16 2.88 2.57 4.92 5.76 4.92h10.09zm10.08 10.62c-8.54 0-8.64-9.6-8.64-9.69v-8.77a.7.7 0 0 1 .46-.67l7.92-2.93a.74.74 0 0 1 .51 0l7.92 2.95a.71.71 0 0 1 .47.67V54c.04.05-.1 9.11-8.64 9.11zm-7.2-18v8.26c0 .33.1 8.25 7.2 8.25s7.2-7.4 7.2-7.71v-8.8l-7.2-2.67zm7.2 15.25c-4.58 0-5.71-5.81-5.76-6a.29.29 0 0 1 0-.13v-7.46a.73.73 0 0 1 .45-.67l5-2a.8.8 0 0 1 .53 0l5 2a.72.72 0 0 1 .46.67v7.59c0 .24-1.1 6.05-5.68 6.05zm-4.32-6.2c.11.54 1.14 4.81 4.32 4.81s4.2-4.26 4.32-4.81v-6.9l-4.32-1.7-4.32 1.7z" fill="#fff"/>
</svg>
