<?xml version="1.0" encoding="UTF-8" standalone="no"?>
<svg
   width="54"
   height="54"
   version="1.1"
   id="svg15"
   sodipodi:docname="amazon-ecs_large.svg"
   inkscape:version="1.1 (c4e8f9ed74, 2021-05-24)"
   xmlns:inkscape="http://www.inkscape.org/namespaces/inkscape"
   xmlns:sodipodi="http://sodipodi.sourceforge.net/DTD/sodipodi-0.dtd"
   xmlns="http://www.w3.org/2000/svg"
   xmlns:svg="http://www.w3.org/2000/svg">
  <sodipodi:namedview
     id="namedview17"
     pagecolor="#ffffff"
     bordercolor="#666666"
     borderopacity="1.0"
     inkscape:pageshadow="2"
     inkscape:pageopacity="0.0"
     inkscape:pagecheckerboard="0"
     showgrid="false"
     inkscape:zoom="6.8203125"
     inkscape:cx="100.06873"
     inkscape:cy="63.92669"
     inkscape:window-width="2558"
     inkscape:window-height="1438"
     inkscape:window-x="2422"
     inkscape:window-y="2160"
     inkscape:window-maximized="1"
     inkscape:current-layer="svg15" />
  <defs
     id="defs7">
    <linearGradient
       id="a"
       x1="-1265.91"
       y1="-359.48999"
       x2="-1265.91"
       y2="-209.49001"
       gradientTransform="matrix(-0.55003334,-0.55003448,0.55003334,-0.55003448,-533.77632,-810.80867)"
       gradientUnits="userSpaceOnUse">
      <stop
         offset="0"
         stop-color="#c8511b"
         id="stop2" />
      <stop
         offset="1"
         stop-color="#f90"
         id="stop4" />
    </linearGradient>
  </defs>
  <path
     d="m 33.341942,48.888891 a 3.6248491,3.6248565 0 0 1 -1.55573,-1.003448 2.4891667,2.4891718 0 0 1 0.373375,-3.36816 3.6015132,3.6015204 0 0 1 2.333595,-0.692302 6.6896358,6.6896494 0 0 1 2.388043,0.443385 v 1.423496 a 7.5764015,7.5764169 0 0 0 -2.240249,-0.373376 c -0.98011,0 -1.470164,0.311146 -1.470164,0.941217 a 0.73119275,0.73119424 0 0 0 0.256694,0.575622 3.3759326,3.3759395 0 0 0 0.948996,0.474498 l 0.925659,0.334483 a 3.9904455,3.9904536 0 0 1 1.649073,0.98789 2.1857997,2.1858042 0 0 1 0.490054,1.477945 2.4658308,2.4658358 0 0 1 -0.91788,2.022453 3.9593309,3.9593389 0 0 1 -2.52806,0.777866 7.6075161,7.6075315 0 0 1 -1.392378,-0.132236 4.9627763,4.9627864 0 0 1 -1.197911,-0.357821 v -1.415715 a 9.2877036,9.2877225 0 0 0 1.330148,0.295588 8.0042271,8.0042434 0 0 0 1.283477,0.116681 2.022448,2.0224522 0 0 0 1.135683,-0.272253 0.86342973,0.86343149 0 0 0 0.396711,-0.777867 A 0.77786463,0.77786621 0 0 0 35.309939,49.7601 3.057008,3.0570142 0 0 0 34.32983,49.262267 Z"
     id="path34"
     style="stroke-width:0.777865" />
  <path
     d="m 30.284934,52.435961 a 6.3007035,6.3007163 0 0 1 -2.255808,0.381154 4.2160263,4.2160348 0 0 1 -3.181467,-1.120127 5.5150602,5.5150714 0 0 1 0.0389,-6.580749 4.2160263,4.2160348 0 0 1 3.189245,-1.182357 6.1295733,6.1295858 0 0 1 2.076899,0.350041 v 1.470167 a 8.6887479,8.6887656 0 0 0 -1.859097,-0.248917 2.5125028,2.5125079 0 0 0 -1.929104,0.684523 2.948107,2.948113 0 0 0 -0.645627,2.084681 v 0.28781 a 3.0103361,3.0103422 0 0 0 0.622291,2.076903 2.4736095,2.4736145 0 0 0 1.905768,0.676744 9.9566679,9.9566881 0 0 0 2.030227,-0.287811 z"
     id="path32"
     style="stroke-width:0.777865" />
  <path
     d="m 17.061235,52.661543 v -8.595422 h 5.670633 v 1.439052 H 18.92811 v 2.045788 h 3.111458 v 1.45461 H 18.92811 v 2.255811 h 3.803758 v 1.446833 z"
     id="path30"
     style="stroke-width:0.777865" />
  <path
     d="M 6,0 H 48.004689 V 42.004774 H 6 Z"
     fill="url(#a)"
     id="path11"
     style="fill:url(#a);stroke-width:0.777865" />
  <path
     d="m 26.924558,36.092992 a 0.37337502,0.37337578 0 0 1 -0.311146,-0.0778 L 13.856433,28.703262 A 0.6222917,0.62229297 0 0 1 13.545287,28.158756 V 13.301511 a 0.6222917,0.62229297 0 0 1 0.311146,-0.544506 L 25.524402,5.9895699 a 0.6222917,0.62229297 0 0 1 0.777865,0.077786 0.77786463,0.77786621 0 0 1 0.155573,0.4667198 v 6.3785033 a 0.6222917,0.62229297 0 0 1 -0.311147,0.544507 l -5.833984,3.344824 v 7.778662 l 6.611849,3.811545 5.756199,-3.344824 a 0.52894796,0.52894903 0 0 1 0.544505,0 l 5.52284,3.189249 a 0.6222917,0.62229297 0 0 1 0.140015,0.871214 0.59895577,0.59895699 0 0 1 -0.140015,0.140013 l -11.66797,6.68965 z m -12.212474,-8.400956 12.445834,7.234157 10.734531,-6.222931 -4.433827,-2.566957 -5.989558,3.422611 a 0.60673441,0.60673565 0 0 1 -0.544506,0 l -7.467499,-4.278264 a 0.63007035,0.63007163 0 0 1 -0.311147,-0.46672 v -8.323169 a 0.63007035,0.63007163 0 0 1 0.311147,-0.46672 l 5.833984,-3.344824 V 7.4675156 L 14.712084,13.690446 Z m 25.125028,-0.233358 a 2.022448,2.0224522 0 0 1 -0.311146,-0.07779 L 34.003127,24.113853 A 0.63007035,0.63007163 0 0 1 33.69198,23.647134 V 16.879696 L 27.857997,13.534877 A 0.6222917,0.62229297 0 0 1 27.546851,12.99037 V 6.5340763 a 0.6222917,0.62229297 0 0 1 0.311146,-0.5445064 0.52894796,0.52894903 0 0 1 0.544505,0 l 11.745755,6.7674351 a 0.6222917,0.62229297 0 0 1 0.311145,0.544506 v 13.534873 a 0.63007035,0.63007163 0 0 1 -0.311145,0.46672 0.77786463,0.77786621 0 0 1 -0.311145,0.155574 z m -4.978333,-4.200479 4.433828,2.56696 V 13.690446 L 28.713647,7.4675156 v 5.1339174 l 5.833985,3.42261 a 0.63007035,0.63007163 0 0 1 0.311147,0.46672 z"
     fill="#ffffff"
     id="path13"
     style="stroke-width:0.777865" />
</svg>
