<svg xmlns="http://www.w3.org/2000/svg" width="200" height="128">
	<defs>
		<linearGradient id="a" x1="-1188.04" y1="315.97" x2="-1081.96" y2="422.04" gradientTransform="rotate(-90 -679 -383)" gradientUnits="userSpaceOnUse">
			<stop offset="0" stop-color="#055f4e"/>
			<stop offset="1" stop-color="#56c0a7"/>
		</linearGradient>
	</defs>
	<path d="m78.85 90.74-1-2.95h-4.59l-1 2.95h-1.67l4.1-11.09h1.76l4.09 11.09zm-5.17-4.18h3.73l-1.87-5.44zm18.58 4.18v-5.51a1.83 1.83 0 0 0-.26-1.18 1.13 1.13 0 0 0-1-.39 4.49 4.49 0 0 0-2.35.72 1.94 1.94 0 0 1 0 .24v6.12h-1.58v-5.51a1.9 1.9 0 0 0-.3-1.18 1.13 1.13 0 0 0-1-.39 4.35 4.35 0 0 0-2.34.71v6.37h-1.54v-8.12h1.33l.16.82a5.32 5.32 0 0 1 3-1.06 2 2 0 0 1 2 1.14 5.43 5.43 0 0 1 3.17-1.14 2.23 2.23 0 0 1 1.7.63 2.49 2.49 0 0 1 .59 1.77v6zm8.68 0-.12-.84a4.2 4.2 0 0 1-1.28.77 3.76 3.76 0 0 1-1.38.27 2.54 2.54 0 0 1-1.82-.64 2.31 2.31 0 0 1-.68-1.74 2.28 2.28 0 0 1 .84-1.86 3.34 3.34 0 0 1 2.24-.7 8.38 8.38 0 0 1 2 .27v-1a1.59 1.59 0 0 0-.39-1.22 2 2 0 0 0-1.35-.4 8.71 8.71 0 0 0-2.81.49V83a5.17 5.17 0 0 1 1.41-.47 8.55 8.55 0 0 1 1.68-.17 3.29 3.29 0 0 1 2.24.64 2.42 2.42 0 0 1 .72 1.92v5.8zm-2.4-1a3.75 3.75 0 0 0 2.21-.81V87.3a6.86 6.86 0 0 0-1.69-.21c-1.21 0-1.81.46-1.81 1.39a1.27 1.27 0 0 0 .33.94 1.37 1.37 0 0 0 .96.32zm5.46 1v-1.22l4.66-5.65h-4.5v-1.25h6.26v1.2l-4.72 5.67h4.76v1.25zm11.52.24a3.63 3.63 0 0 1-2.85-1.14 5.4 5.4 0 0 1 0-6.32 4.13 4.13 0 0 1 5.7 0 5.4 5.4 0 0 1 0 6.32 3.63 3.63 0 0 1-2.85 1.16zm0-1.28c1.5 0 2.26-1 2.26-3s-.76-3-2.26-3-2.26 1-2.26 3 .74 3 2.26 3zm11.31 1v-5.39a1.9 1.9 0 0 0-.34-1.25 1.37 1.37 0 0 0-1.08-.4 4.45 4.45 0 0 0-2.48.82v6.26h-1.59v-8.12h1.33l.16.9a5.27 5.27 0 0 1 3.2-1.14 2.41 2.41 0 0 1 1.78.62 2.46 2.46 0 0 1 .61 1.78v6zm-71.19 16V95.65h4.27a3.93 3.93 0 0 1 2.74.91 3.2 3.2 0 0 1 1 2.48 3 3 0 0 1-.53 1.73 3.52 3.52 0 0 1-1.49 1.2l2.75 4.77h-2.47l-2.4-4.31h-1.57v4.31zm2.3-6h1.67a1.5 1.5 0 0 0 1.68-1.7 1.46 1.46 0 0 0-1.65-1.66h-1.7zm9.32 2.45a2 2 0 0 0 .64 1.52 2.78 2.78 0 0 0 1.81.48 9.67 9.67 0 0 0 2.49-.4v1.55a5.45 5.45 0 0 1-1.33.45 8.53 8.53 0 0 1-1.61.16 4.09 4.09 0 0 1-3.1-1.11 5.4 5.4 0 0 1 0-6.41 3.8 3.8 0 0 1 2.93-1.14 3.26 3.26 0 0 1 2.44.87 3.41 3.41 0 0 1 .86 2.49v.8c0 .3-.07.54-.11.74zM69 99.94a1.62 1.62 0 0 0-1.24.47 2.12 2.12 0 0 0-.52 1.37h3.14v-.28q0-1.56-1.38-1.56zm5.17 6.8V94.9h2.32v7.15l2.83-3.49h2.78l-3.37 3.9 3.63 4.28h-2.85l-3-3.73v3.73zm12.38.24a3.87 3.87 0 0 1-3-1.15 5.24 5.24 0 0 1 0-6.37 4.45 4.45 0 0 1 6 0 5.28 5.28 0 0 1 0 6.37 3.91 3.91 0 0 1-3 1.17zm0-1.8c1.12 0 1.68-.84 1.68-2.54s-.56-2.53-1.68-2.53-1.68.85-1.68 2.53.56 2.54 1.68 2.54zm10.87.56a3.11 3.11 0 0 1-2.15.82 2.88 2.88 0 0 1-2.37-1.11 4.57 4.57 0 0 1-.89-3 4.76 4.76 0 0 1 .89-3 2.9 2.9 0 0 1 2.4-1.14 3.38 3.38 0 0 1 1.27.24 3.33 3.33 0 0 1 1.05.7l.18-.7h1.92v7.54a3.76 3.76 0 0 1-4.1 4.12 6.54 6.54 0 0 1-2.94-.68V108a9.4 9.4 0 0 0 2.74.49 2.05 2.05 0 0 0 1.52-.48 2.23 2.23 0 0 0 .48-1.6zm-1.42-.91a2.45 2.45 0 0 0 .75-.12 2.68 2.68 0 0 0 .68-.33v-3.93a2.87 2.87 0 0 0-1.54-.4c-1 0-1.54.79-1.54 2.37a3.34 3.34 0 0 0 .4 1.82 1.42 1.42 0 0 0 1.25.59zm11.22 1.91v-5.36a1.36 1.36 0 0 0-.29-1 1.12 1.12 0 0 0-.88-.31 3.16 3.16 0 0 0-1.74.55v6.08H102v-8.14h1.92l.22.88a4.91 4.91 0 0 1 3.08-1.12 2.14 2.14 0 0 1 2.36 2.37v6zM113 97.3a1.4 1.4 0 0 1-1-.34 1.16 1.16 0 0 1-.37-.91 1.14 1.14 0 0 1 .37-.91 1.35 1.35 0 0 1 1-.34 1.38 1.38 0 0 1 1 .34 1.14 1.14 0 0 1 .37.91 1.16 1.16 0 0 1-.37.95 1.42 1.42 0 0 1-1 .3zm-1.16 9.44v-8.18h2.33v8.18zm9.5-.21a5.41 5.41 0 0 1-1.94.33 2.73 2.73 0 0 1-2-.64 2.63 2.63 0 0 1-.65-2v-3.95h-1.25v-1.42l1.29-.26.35-2.24h1.92v2.21h2.21v1.73h-2.21v3.84a.89.89 0 0 0 .26.72 1.37 1.37 0 0 0 .86.21 8.39 8.39 0 0 0 1.14-.1zM124 97.3a1.4 1.4 0 0 1-1-.34 1.16 1.16 0 0 1-.37-.91 1.14 1.14 0 0 1 .37-.91 1.35 1.35 0 0 1 1-.34 1.38 1.38 0 0 1 1 .34 1.17 1.17 0 0 1 .37.91 1.19 1.19 0 0 1-.37.95 1.42 1.42 0 0 1-1 .3zm-1.17 9.44v-8.18h2.34v8.18zm8.28.24a3.89 3.89 0 0 1-3-1.15 5.28 5.28 0 0 1 0-6.37 4.45 4.45 0 0 1 5.95 0 5.28 5.28 0 0 1 0 6.37 3.87 3.87 0 0 1-2.96 1.17zm0-1.8c1.12 0 1.68-.84 1.68-2.54s-.56-2.53-1.68-2.53-1.68.85-1.68 2.53.57 2.54 1.67 2.54zm11.12 1.56v-5.36a1.36 1.36 0 0 0-.29-1 1.14 1.14 0 0 0-.88-.31 3.21 3.21 0 0 0-1.75.55v6.08H137v-8.14h1.92l.22.88a4.91 4.91 0 0 1 3.07-1.12 2.39 2.39 0 0 1 1.76.62 2.36 2.36 0 0 1 .61 1.75v6z" fill="#333"/>
	<path d="M73 19h54v54H73z" fill="url(#a)"/>
	<path d="M95.7 55.4a12.24 12.24 0 0 0 11.5-21.6 12.64 12.64 0 0 0-5.8-1.5 12.2 12.2 0 0 0-12.3 12.1v.2a11.93 11.93 0 0 0 1.5 5.6l-7.5 7.7a3.6 3.6 0 0 0 .7 5 3.69 3.69 0 0 0 4.3 0l1.5-1.3zm5.7-21.6a10.8 10.8 0 1 1-10.8 10.8 10.81 10.81 0 0 1 10.8-10.8zM87.1 61.9a2.12 2.12 0 0 1-3-3l7.3-7.4a12.34 12.34 0 0 0 3.1 3.1zm.7-10.9a14.79 14.79 0 0 1 .5-13.9l-1.2-.7a16.42 16.42 0 0 0-.3 15.7zm21.3-21.1a16.55 16.55 0 0 0-7.7-1.9 16.27 16.27 0 0 0-6.9 1.5l.6 1.3a15.1 15.1 0 1 1-.1 27.4l-1.1 1a16.5 16.5 0 0 0 15.2-29.3zm-2.6 19.7h-2.2V51h3.6v-3.6h-1.4zm0-7.9h1.4v-3.6h-3.6v1.4h2.2zm-10.1-2.2h2.2v-1.4H95v3.6h1.4zm2.2 10.1h-2.2v-2.2H95V51h3.6zm-.8-1.4h2.3l-2.3-2.3zm0-4.9 2.3-2.3h-2.3zM105 41h-2.3l2.3 2.3zm0 4.9-2.3 2.3h2.3z" fill="#fff"/>
</svg>
