<svg xmlns="http://www.w3.org/2000/svg" width="200" height="128">
    <defs>
        <linearGradient id="a" x1="-219.5" y1="122.09" x2="-69.5" y2="122.09" gradientTransform="rotate(-45 -95.008 -165.006)" gradientUnits="userSpaceOnUse">
            <stop offset="0" stop-color="#4d27a8"/>
            <stop offset="1" stop-color="#a166ff"/>
        </linearGradient>
    </defs>
    <path d="M78.85 90.74l-1-2.95h-4.59l-1 2.95h-1.67l4.1-11.09h1.76l4.09 11.09zm-5.17-4.18h3.73l-1.87-5.44zm18.58 4.18v-5.51a1.83 1.83 0 00-.26-1.18 1.13 1.13 0 00-1-.39 4.49 4.49 0 00-2.35.72 1.94 1.94 0 010 .24v6.12h-1.58v-5.51a1.9 1.9 0 00-.3-1.18 1.13 1.13 0 00-1-.39 4.35 4.35 0 00-2.34.71v6.37h-1.54v-8.12h1.33l.16.82a5.32 5.32 0 013-1.06 2 2 0 012 1.14 5.43 5.43 0 013.17-1.14 2.23 2.23 0 011.7.63 2.49 2.49 0 01.59 1.77v6zm8.68 0l-.12-.84a4.2 4.2 0 01-1.28.77 3.76 3.76 0 01-1.38.27 2.54 2.54 0 01-1.82-.64 2.31 2.31 0 01-.68-1.74 2.28 2.28 0 01.84-1.86 3.34 3.34 0 012.24-.7 8.38 8.38 0 012 .27v-1a1.59 1.59 0 00-.39-1.22 2 2 0 00-1.35-.4 8.71 8.71 0 00-2.81.49V83a5.17 5.17 0 011.41-.47 8.55 8.55 0 011.68-.17 3.29 3.29 0 012.24.64 2.42 2.42 0 01.72 1.92v5.8zm-2.4-1a3.75 3.75 0 002.21-.81V87.3a6.86 6.86 0 00-1.69-.21c-1.21 0-1.81.46-1.81 1.39a1.27 1.27 0 00.33.94 1.37 1.37 0 00.96.32zm5.46 1v-1.22l4.66-5.65h-4.5v-1.25h6.26v1.2l-4.72 5.67h4.76v1.25zm11.52.24a3.63 3.63 0 01-2.85-1.14 5.4 5.4 0 010-6.32 4.13 4.13 0 015.7 0 5.4 5.4 0 010 6.32 3.63 3.63 0 01-2.85 1.16zm0-1.28c1.5 0 2.26-1 2.26-3s-.76-3-2.26-3-2.26 1-2.26 3 .74 3 2.26 3zm11.31 1v-5.39a1.9 1.9 0 00-.34-1.25 1.37 1.37 0 00-1.08-.4 4.45 4.45 0 00-2.48.82v6.26h-1.59v-8.12h1.33l.16.9a5.27 5.27 0 013.2-1.14 2.41 2.41 0 011.78.62 2.46 2.46 0 01.61 1.78v6zm-105.52 16V95.65h2.4v4.75l4-4.75h2.7l-4.51 5.15 4.9 5.94H28l-4.24-5.27v5.27zm11.83-9.4a1.42 1.42 0 01-1-.34 1.19 1.19 0 01-.37-.91 1.17 1.17 0 01.37-.91 1.38 1.38 0 011-.34 1.35 1.35 0 011 .34 1.14 1.14 0 01.37.91 1.16 1.16 0 01-.37.91 1.4 1.4 0 01-1 .34zM32 106.74v-8.18h2.34v8.18zm9.89 0v-5.36a1.36 1.36 0 00-.29-1 1.14 1.14 0 00-.88-.31 3.16 3.16 0 00-1.74.55v6.08h-2.37v-8.14h1.92l.22.88a4.91 4.91 0 013.08-1.12 2.14 2.14 0 012.36 2.37v6zm6.29-3.52a2 2 0 00.64 1.52 2.77 2.77 0 001.8.48 9.68 9.68 0 002.5-.4v1.55a5.39 5.39 0 01-1.34.45 8.35 8.35 0 01-1.6.16 4.09 4.09 0 01-3.1-1.11 5.4 5.4 0 010-6.41A3.8 3.8 0 0150 98.32a3.26 3.26 0 012.44.87 3.41 3.41 0 01.86 2.49c0 .24 0 .5-.05.8s-.07.54-.11.74zm1.74-3.28a1.62 1.62 0 00-1.24.47 2.12 2.12 0 00-.52 1.37h3.14v-.28q-.03-1.56-1.41-1.56zm8.64 4.54a.68.68 0 00-.18-.5 2.78 2.78 0 00-.75-.38l-1.25-.5a3.22 3.22 0 01-1.41-.94 2.31 2.31 0 01-.43-1.42 2.1 2.1 0 01.85-1.74 3.74 3.74 0 012.32-.66 5.81 5.81 0 012.48.53v1.55a8.07 8.07 0 00-2.27-.37 2.25 2.25 0 00-1 .16.54.54 0 00-.3.51.56.56 0 00.18.44 2.61 2.61 0 00.78.41l1.21.5a3.39 3.39 0 011.42.93 2.13 2.13 0 01.42 1.37 2.33 2.33 0 01-.9 1.91 3.66 3.66 0 01-2.38.73 6.3 6.3 0 01-2.91-.65v-1.56a9.5 9.5 0 002.9.5c.81-.02 1.19-.3 1.19-.82zm4.88-7.18a1.42 1.42 0 01-1-.34 1.19 1.19 0 01-.37-.91 1.17 1.17 0 01.37-.91 1.38 1.38 0 011-.34 1.39 1.39 0 011 .34 1.17 1.17 0 01.36.91 1.18 1.18 0 01-.36.91 1.44 1.44 0 01-1.03.34zm-1.17 9.44v-8.18h2.34v8.18zm8.11-2.26a.68.68 0 00-.18-.5 2.53 2.53 0 00-.74-.38l-1.25-.5a3.22 3.22 0 01-1.41-.94 2.24 2.24 0 01-.43-1.42 2.12 2.12 0 01.84-1.74 3.77 3.77 0 012.33-.66 5.87 5.87 0 012.48.53v1.55a8.07 8.07 0 00-2.27-.37 2.25 2.25 0 00-1 .16.59.59 0 00-.12 1 2.65 2.65 0 00.77.41l1.22.5a3.35 3.35 0 011.41.93 2.08 2.08 0 01.43 1.37 2.31 2.31 0 01-.91 1.91 3.63 3.63 0 01-2.37.73 6.3 6.3 0 01-2.91-.65v-1.56a9.45 9.45 0 002.89.5c.84-.07 1.19-.35 1.19-.87zm8 2.26V95.65h4a5 5 0 013.81 1.43 7 7 0 010 8.21 4.88 4.88 0 01-3.77 1.45zm2.4-9.24v7.38h1.38q2.9 0 2.89-3.54V101c0-2.34-1-3.52-2.91-3.52zm13.51 9.24l-.2-.72a3.91 3.91 0 01-1.14.71 3.42 3.42 0 01-1.26.26 2.63 2.63 0 01-1.89-.67 2.32 2.32 0 01-.71-1.79 2.37 2.37 0 01.38-1.35 2.57 2.57 0 011.1-.92 3.91 3.91 0 011.7-.34 7.8 7.8 0 011.7.21v-.8a1.3 1.3 0 00-.31-1 1.71 1.71 0 00-1.12-.27 9.72 9.72 0 00-2.89.49V99a6.25 6.25 0 011.48-.49 9.31 9.31 0 011.83-.18 3.63 3.63 0 012.41.66 2.67 2.67 0 01.76 2.09v5.67zm-1.94-1.32a2 2 0 00.82-.17 3.27 3.27 0 00.8-.48v-1.39a7.61 7.61 0 00-1.27-.12c-.93 0-1.39.38-1.39 1.12a.94.94 0 001 1zm10.85 1.11a5.41 5.41 0 01-1.94.33 2.77 2.77 0 01-2-.64 2.66 2.66 0 01-.64-2v-3.95h-1.28v-1.42l1.3-.26.36-2.24h1.92v2.21h2.21v1.73h-2.21v3.84a.89.89 0 00.26.72 1.37 1.37 0 00.86.21 8.52 8.52 0 001.14-.1zm6.13.21l-.2-.72a3.91 3.91 0 01-1.14.71 3.42 3.42 0 01-1.26.26 2.63 2.63 0 01-1.89-.67 2.32 2.32 0 01-.71-1.79 2.37 2.37 0 01.38-1.35 2.57 2.57 0 011.1-.92 3.91 3.91 0 011.7-.34 7.8 7.8 0 011.7.21v-.8a1.3 1.3 0 00-.31-1 1.71 1.71 0 00-1.12-.27 9.72 9.72 0 00-2.89.49V99a6.25 6.25 0 011.48-.49 9.31 9.31 0 011.83-.18 3.63 3.63 0 012.41.66 2.67 2.67 0 01.76 2.09v5.67zm-1.94-1.32a2 2 0 00.82-.17 3.27 3.27 0 00.8-.48v-1.39a7.61 7.61 0 00-1.27-.12c-.93 0-1.39.38-1.39 1.12a.94.94 0 001 1zm10.34 1.32V95.65h7v1.85h-4.63v2.79h3.64v1.85h-3.64v4.6zm9.71-9.44a1.42 1.42 0 01-1-.34 1.19 1.19 0 01-.37-.91 1.17 1.17 0 01.37-.91 1.38 1.38 0 011-.34 1.35 1.35 0 011 .34 1.14 1.14 0 01.37.91 1.16 1.16 0 01-.37.91 1.4 1.4 0 01-1.03.34zm-1.17 9.44v-8.18h2.34v8.18zm4.64 0v-8.18h1.92l.29 1.22a4.31 4.31 0 011.21-1 2.51 2.51 0 011.2-.3 4.72 4.72 0 01.64 0v2.16a4.31 4.31 0 00-1-.1 4.92 4.92 0 00-1.93.37v5.78zm8.22-3.52a2.06 2.06 0 00.64 1.52 2.82 2.82 0 001.81.48 9.68 9.68 0 002.5-.4v1.55a5.54 5.54 0 01-1.34.45 8.45 8.45 0 01-1.61.16 4.08 4.08 0 01-3.09-1.11 5.35 5.35 0 010-6.41 3.79 3.79 0 012.93-1.14 3.28 3.28 0 012.44.87 3.4 3.4 0 01.85 2.49 7.91 7.91 0 010 .8 7.18 7.18 0 01-.12.74zm1.75-3.28a1.62 1.62 0 00-1.24.47 2.07 2.07 0 00-.52 1.37h3.13v-.28c-.03-1.04-.48-1.56-1.4-1.56zm10.41 6.8v-5.36a1.36 1.36 0 00-.28-1 1.15 1.15 0 00-.88-.31 3.21 3.21 0 00-1.75.55v6.08H146V94.9h2.33v4.4a4.93 4.93 0 012.88-1 2.16 2.16 0 012.37 2.37v6zm8.18.24a3.91 3.91 0 01-3-1.15 5.28 5.28 0 010-6.37 4.46 4.46 0 016 0 5.28 5.28 0 010 6.37 3.91 3.91 0 01-3.03 1.17zm0-1.8c1.12 0 1.68-.84 1.68-2.54s-.56-2.53-1.68-2.53-1.68.85-1.68 2.53.53 2.54 1.65 2.54zm9.34-.7a.68.68 0 00-.18-.5 2.53 2.53 0 00-.74-.38l-1.25-.5a3.22 3.22 0 01-1.41-.94 2.24 2.24 0 01-.43-1.42 2.12 2.12 0 01.87-1.76 3.77 3.77 0 012.33-.66 5.87 5.87 0 012.48.53v1.55a8.07 8.07 0 00-2.27-.37 2.25 2.25 0 00-1 .16.59.59 0 00-.12 1 2.65 2.65 0 00.77.41l1.22.5a3.35 3.35 0 011.41.93 2.08 2.08 0 01.43 1.37 2.31 2.31 0 01-.91 1.91 3.63 3.63 0 01-2.37.73 6.3 6.3 0 01-2.91-.65v-1.56a9.45 9.45 0 002.89.5c.78-.05 1.16-.33 1.16-.85zm5.4-1.26a2 2 0 00.64 1.52 2.77 2.77 0 001.8.48 9.68 9.68 0 002.5-.4v1.55a5.39 5.39 0 01-1.34.45 8.35 8.35 0 01-1.6.16 4.09 4.09 0 01-3.1-1.11 5.4 5.4 0 010-6.41 3.8 3.8 0 012.89-1.14 3.26 3.26 0 012.44.87 3.41 3.41 0 01.86 2.49c0 .24 0 .5-.05.8s-.07.54-.11.74zm1.74-3.28a1.62 1.62 0 00-1.24.47 2.12 2.12 0 00-.52 1.37h3.14v-.28q-.03-1.56-1.41-1.56z" fill="#333"/>
    <path d="M73 19h54v54H73z" fill="url(#a)"/>
    <path d="M108.8 42.4l-8.1-1.8v-1.1a.68.68 0 00-.7-.7h-3.6a.68.68 0 00-.7.7v13a.68.68 0 00.7.7h3.6a.68.68 0 00.7-.7v-1.1l8.1-1.8a.73.73 0 00.6-.7v-5.8a.66.66 0 00-.6-.7zm-9.5 9.4h-2.2V40.2h2.2zm8.6-3.5l-7.2 1.6V42l7.2 1.6zM118 42v1.6a29.75 29.75 0 01-7.2 1v-1.5A25.14 25.14 0 00118 42zm-7.2 3.2a57.92 57.92 0 007.2-.4v2.4a43.59 43.59 0 00-7.2-.5zm0 2.2a25 25 0 017.2 1V50a22.09 22.09 0 00-7.2-1.1zM82 38.7a26.21 26.21 0 0012.2 3.7v1.4A28.57 28.57 0 0182 40.4zm0 4.7a50.68 50.68 0 0012.2 1.8v1.6A50 50 0 0082 48.6v-1.5a34.49 34.49 0 015.4-1.1 34.49 34.49 0 01-5.4-1.1zM94.2 40v1.5c-9.9-1.2-12.2-6.3-12.1-10.6V28h1.4v3c0 3.7 1.9 8 10.7 9zM82 51.8a30.29 30.29 0 0112.2-3.6v1.5A27 27 0 0082 53.4zm12.2-1.2V52c-5.6.7-10.7 3-10.7 9v2.9h-.6l-.8.1v-3c0-4.2 2.2-9.3 12.1-10.4z" fill="#fff"/>
</svg>
