<svg xmlns="http://www.w3.org/2000/svg" width="200" height="128">
    <path d="M44.145 64.033a10.325 10.325 0 0 0 .6 1.361.815.815 0 0 1 .132.434.747.747 0 0 1-.359.567l-1.19.794a.909.909 0 0 1-.492.17.864.864 0 0 1-.566-.265 5.771 5.771 0 0 1-.681-.888c-.189-.321-.378-.68-.586-1.115a6.978 6.978 0 0 1-5.55 2.609 5.178 5.178 0 0 1-3.78-1.36 5.334 5.334 0 0 1 .321-7.522 6.88 6.88 0 0 1 4.63-1.474 14.873 14.873 0 0 1 2 .152c.7.094 1.418.245 2.174.415v-1.38a4.188 4.188 0 0 0-.889-3.024 4.352 4.352 0 0 0-3.08-.869 8.6 8.6 0 0 0-2.041.246 15.162 15.162 0 0 0-2.041.642 5.348 5.348 0 0 1-.661.246 1.154 1.154 0 0 1-.3.057c-.265 0-.4-.189-.4-.586v-.926a1.2 1.2 0 0 1 .132-.662 1.415 1.415 0 0 1 .529-.4 10.857 10.857 0 0 1 2.381-.851 11.488 11.488 0 0 1 2.948-.359c2.249 0 3.893.51 4.951 1.531a6.251 6.251 0 0 1 1.573 4.653s-.027 5.533 0 6.122a7.4 7.4 0 0 0 .245 1.682zm-7.88 1.191a6.15 6.15 0 0 0 1.947-.34 4.213 4.213 0 0 0 1.795-1.21 3 3 0 0 0 .642-1.209 6.759 6.759 0 0 0 .189-1.644v-.794a15.687 15.687 0 0 0-1.738-.321 14.175 14.175 0 0 0-1.777-.114 4.355 4.355 0 0 0-2.815.756 2.7 2.7 0 0 0 1.757 4.876zm16.8 2.041a1.173 1.173 0 0 0 .756-.189 1.484 1.484 0 0 0 .359-.756l2.91-12.17 2.929 12.189a1.339 1.339 0 0 0 .359.755 1.133 1.133 0 0 0 .756.189h1.625a1.2 1.2 0 0 0 .718-.189 1.445 1.445 0 0 0 .4-.737l4.551-14.607a2.669 2.669 0 0 0 .133-.473 1.85 1.85 0 0 0 .037-.3.42.42 0 0 0-.472-.472h-1.757a1.226 1.226 0 0 0-.737.189 1.607 1.607 0 0 0-.378.737l-3.27 12.659L59 51.429a1.276 1.276 0 0 0-.359-.737 1.135 1.135 0 0 0-.756-.189h-1.513a1.3 1.3 0 0 0-.756.189 1.322 1.322 0 0 0-.359.737l-2.948 12.51-3.175-12.51a1.543 1.543 0 0 0-.378-.737 1.044 1.044 0 0 0-.737-.189h-1.852a.414.414 0 0 0-.453.472 3.335 3.335 0 0 0 .17.756l4.441 14.608a1.533 1.533 0 0 0 .4.737 1.056 1.056 0 0 0 .718.189zm25.36.113a6.1 6.1 0 0 0 2.1-1.058 5.1 5.1 0 0 0 1.375-1.663 4.864 4.864 0 0 0 .491-2.192 4.276 4.276 0 0 0-.869-2.646 5.747 5.747 0 0 0-2.922-1.814l-2.683-.85a5.655 5.655 0 0 1-2.079-1.04 1.784 1.784 0 0 1-.567-1.342 1.824 1.824 0 0 1 .888-1.681 4.878 4.878 0 0 1 2.514-.53 8.651 8.651 0 0 1 3.627.738 1.95 1.95 0 0 0 .718.227c.283 0 .435-.208.435-.6v-.889a1.02 1.02 0 0 0-.17-.623 1.645 1.645 0 0 0-.567-.473 4.2 4.2 0 0 0-.794-.34c-.34-.113-.7-.208-1.077-.3-.4-.076-.794-.151-1.229-.208a9.424 9.424 0 0 0-1.266-.076 8.231 8.231 0 0 0-2.381.322 5.992 5.992 0 0 0-1.969.975 4.871 4.871 0 0 0-1.361 1.55 4.207 4.207 0 0 0-.51 2.1 4.5 4.5 0 0 0 .945 2.741A5.769 5.769 0 0 0 74.1 59.63l2.74.85a4.745 4.745 0 0 1 1.908.983 1.842 1.842 0 0 1 .511 1.323 2.036 2.036 0 0 1-.983 1.8 5.1 5.1 0 0 1-2.759.624 11.365 11.365 0 0 1-2.249-.227 10.309 10.309 0 0 1-2.079-.661c-.189-.076-.359-.152-.472-.189a1.064 1.064 0 0 0-.34-.057c-.284 0-.435.189-.435.586v.963a1.328 1.328 0 0 0 .114.53 1.357 1.357 0 0 0 .585.529 8.639 8.639 0 0 0 2.174.756 12.537 12.537 0 0 0 2.91.34 8.972 8.972 0 0 0 2.7-.402z" fill="#252f3e"/>
    <path d="M79.294 76.959c-6.217 4.592-15.25 7.03-23.017 7.03a41.64 41.64 0 0 1-28.1-10.715c-.586-.529-.057-1.247.643-.832a56.665 56.665 0 0 0 28.119 7.465 56.112 56.112 0 0 0 21.448-4.384c1.04-.473 1.928.677.907 1.436zm.945 4.138c-.227.567.265.794.775.359 3.326-2.8 4.2-8.636 3.515-9.486-.68-.831-6.52-1.55-10.072.945-.548.4-.454.926.151.85 2.022-.245 6.482-.775 7.275.246.794 1.001-.883 5.216-1.644 7.089z" fill="#f90"/>
    <path d="M97.105 93.574h-.631V34.426h.631zM122.155 70.492V62.62h-9.792v7.872h-1.416V53.86h1.416v7.488h9.792V53.86h1.416v16.632zm6.168-5.808a5.519 5.519 0 0 0 1.1 3.72 4.269 4.269 0 0 0 3.336 1.2 9.673 9.673 0 0 0 3.96-.84v1.128a8.145 8.145 0 0 1-4.056.96 5.45 5.45 0 0 1-4.3-1.62 7.045 7.045 0 0 1-1.44-4.812 6.92 6.92 0 0 1 1.452-4.692 5.106 5.106 0 0 1 4.068-1.668 4.358 4.358 0 0 1 3.348 1.248 5.051 5.051 0 0 1 1.164 3.576 9.4 9.4 0 0 1-.144 1.8zm4.008-5.4q-3.792 0-4.008 4.3h7.3q.024-.336.024-.792a3.672 3.672 0 0 0-.84-2.616 3.244 3.244 0 0 0-2.476-.892zm14.928 11.208l-.12-1.392a6.818 6.818 0 0 1-4.32 1.656 3.6 3.6 0 0 1-2.628-.948 3.375 3.375 0 0 1-.972-2.532 3.413 3.413 0 0 1 1.2-2.76 4.916 4.916 0 0 1 3.264-1.008 11.883 11.883 0 0 1 3.432.552v-2.016a2.732 2.732 0 0 0-.7-2.1 3.381 3.381 0 0 0-2.3-.636 12.391 12.391 0 0 0-4.1.768v-1.128a10.091 10.091 0 0 1 2.064-.648 11.115 11.115 0 0 1 2.256-.24 4.678 4.678 0 0 1 3.132.888 3.374 3.374 0 0 1 1.02 2.688v8.856zm-4.248-.984a5.951 5.951 0 0 0 1.968-.372 10.934 10.934 0 0 0 2.136-1.044v-3A12.011 12.011 0 0 0 144 64.66q-3.362 0-3.36 2.592a2.218 2.218 0 0 0 .6 1.68 2.469 2.469 0 0 0 1.771.576zm12.432.888a4.705 4.705 0 0 1-1.224.167 1.978 1.978 0 0 1-1.5-.563 2.176 2.176 0 0 1-.54-1.572v-15.7h1.368V68.4a1.076 1.076 0 0 0 .2.743.983.983 0 0 0 .732.217 8.005 8.005 0 0 0 .961-.072zm8.88-.168a6.462 6.462 0 0 1-2.425.408 2.9 2.9 0 0 1-2.159-.756 3 3 0 0 1-.744-2.2v-8.06h-2.256v-.96l2.3-.216.193-3.528h1.128v3.5h3.84v1.2h-3.84v7.992a1.887 1.887 0 0 0 .42 1.392 1.973 1.973 0 0 0 1.4.408 8.852 8.852 0 0 0 2.136-.288zm11.112.264v-8.208a3.482 3.482 0 0 0-.6-2.268 2.381 2.381 0 0 0-1.919-.708 8.276 8.276 0 0 0-4.68 1.536v9.648h-1.368v-17.76h1.368v7.056a10.407 10.407 0 0 1 2.46-1.272 7.464 7.464 0 0 1 2.508-.456 3.62 3.62 0 0 1 2.675.924 3.694 3.694 0 0 1 .925 2.724v8.784z" fill="#252f3e"/>
</svg>
