<svg xmlns="http://www.w3.org/2000/svg" width="200" height="128">
	<defs>
		<linearGradient id="a" x1="268.5" y1="-353.09" x2="118.5" y2="-353.09" gradientTransform="rotate(135 45.003 -165.003)" gradientUnits="userSpaceOnUse">
			<stop offset="0" stop-color="#4d27a8"/>
			<stop offset="1" stop-color="#a166ff"/>
		</linearGradient>
	</defs>
	<path d="m78.85 90.74-1-2.95h-4.59l-1 2.95h-1.67l4.1-11.09h1.76l4.09 11.09zm-5.17-4.18h3.73l-1.87-5.44zm18.58 4.18v-5.51a1.83 1.83 0 0 0-.26-1.18 1.13 1.13 0 0 0-1-.39 4.49 4.49 0 0 0-2.35.72 1.94 1.94 0 0 1 0 .24v6.12h-1.58v-5.51a1.9 1.9 0 0 0-.3-1.18 1.13 1.13 0 0 0-1-.39 4.35 4.35 0 0 0-2.34.71v6.37h-1.54v-8.12h1.33l.16.82a5.32 5.32 0 0 1 3-1.06 2 2 0 0 1 2 1.14 5.43 5.43 0 0 1 3.17-1.14 2.23 2.23 0 0 1 1.7.63 2.49 2.49 0 0 1 .59 1.77v6zm8.68 0-.12-.84a4.2 4.2 0 0 1-1.28.77 3.76 3.76 0 0 1-1.38.27 2.54 2.54 0 0 1-1.82-.64 2.31 2.31 0 0 1-.68-1.74 2.28 2.28 0 0 1 .84-1.86 3.34 3.34 0 0 1 2.24-.7 8.38 8.38 0 0 1 2 .27v-1a1.59 1.59 0 0 0-.39-1.22 2 2 0 0 0-1.35-.4 8.71 8.71 0 0 0-2.81.49V83a5.17 5.17 0 0 1 1.41-.47 8.55 8.55 0 0 1 1.68-.17 3.29 3.29 0 0 1 2.24.64 2.42 2.42 0 0 1 .72 1.92v5.8zm-2.4-1a3.75 3.75 0 0 0 2.21-.81V87.3a6.86 6.86 0 0 0-1.69-.21c-1.21 0-1.81.46-1.81 1.39a1.27 1.27 0 0 0 .33.94 1.37 1.37 0 0 0 .96.32zm5.46 1v-1.22l4.66-5.65h-4.5v-1.25h6.26v1.2l-4.72 5.67h4.76v1.25zm11.52.24a3.63 3.63 0 0 1-2.85-1.14 5.4 5.4 0 0 1 0-6.32 4.13 4.13 0 0 1 5.7 0 5.4 5.4 0 0 1 0 6.32 3.63 3.63 0 0 1-2.85 1.16zm0-1.28c1.5 0 2.26-1 2.26-3s-.76-3-2.26-3-2.26 1-2.26 3 .74 3 2.26 3zm11.31 1v-5.39a1.9 1.9 0 0 0-.34-1.25 1.37 1.37 0 0 0-1.08-.4 4.45 4.45 0 0 0-2.48.82v6.26h-1.59v-8.12h1.33l.16.9a5.27 5.27 0 0 1 3.2-1.14 2.41 2.41 0 0 1 1.78.62 2.46 2.46 0 0 1 .61 1.78v6zm-59.65 15.75a8.1 8.1 0 0 1-2.9.49 5.46 5.46 0 0 1-4.1-1.44 7.11 7.11 0 0 1 .07-8.5 5.4 5.4 0 0 1 4.09-1.52 8 8 0 0 1 2.68.45v1.89a11.17 11.17 0 0 0-2.39-.32 3.24 3.24 0 0 0-2.49.88 3.84 3.84 0 0 0-.82 2.68v.37a3.87 3.87 0 0 0 .8 2.67 3.17 3.17 0 0 0 2.45.87 12.8 12.8 0 0 0 2.61-.37zm5.21.13a3.84 3.84 0 0 1-1.44.27c-1.44 0-2.16-.81-2.16-2.42V94.9h2.34v9.34a1 1 0 0 0 .15.63.59.59 0 0 0 .5.19 5.66 5.66 0 0 0 .61 0zm5.07.4a3.87 3.87 0 0 1-3-1.15 5.28 5.28 0 0 1 0-6.37 4.45 4.45 0 0 1 6 0 5.28 5.28 0 0 1 0 6.37 3.89 3.89 0 0 1-3 1.17zm0-1.8c1.12 0 1.68-.84 1.68-2.54s-.56-2.53-1.68-2.53-1.68.85-1.68 2.53.56 2.54 1.68 2.54zm11.32 1.56-.23-.87a4.77 4.77 0 0 1-3 1.11 2.23 2.23 0 0 1-1.7-.65 2.49 2.49 0 0 1-.61-1.79v-6h2.34v5.33c0 .86.37 1.29 1.12 1.29a3 3 0 0 0 1.63-.51v-6.09h2.37v8.18zm9.68 0-.2-.72a3.41 3.41 0 0 1-2.35.89 3.19 3.19 0 0 1-1.77-.5 3.33 3.33 0 0 1-1.2-1.47 5.58 5.58 0 0 1-.42-2.25 5 5 0 0 1 .94-3.18A3.05 3.05 0 0 1 96 98.32a3.47 3.47 0 0 1 2.19.72V94.9h2.34v11.84zm-1.78-1.59a2.69 2.69 0 0 0 1.47-.45v-4.22a3 3 0 0 0-1.58-.4 1.42 1.42 0 0 0-1.27.63 3.59 3.59 0 0 0-.41 1.91 3.29 3.29 0 0 0 .44 1.91 1.54 1.54 0 0 0 1.35.62zm6.21 1.59V95.65h7v1.85h-4.57v2.79h3.65v1.85h-3.65v4.6zm8.32 0v-8.18h1.92l.29 1.22a4.43 4.43 0 0 1 1.2-1 2.58 2.58 0 0 1 1.21-.3 4.85 4.85 0 0 1 .64 0v2.16a4.37 4.37 0 0 0-1-.1 5 5 0 0 0-1.94.37v5.78zm10.11.24a3.91 3.91 0 0 1-3-1.15 5.28 5.28 0 0 1 0-6.37 4.46 4.46 0 0 1 6 0 5.28 5.28 0 0 1 0 6.37 3.91 3.91 0 0 1-3 1.17zm0-1.8c1.12 0 1.68-.84 1.68-2.54s-.56-2.53-1.68-2.53-1.68.85-1.68 2.53.56 2.54 1.68 2.54zm11.12 1.56v-5.36a1.36 1.36 0 0 0-.29-1 1.12 1.12 0 0 0-.88-.31 3.18 3.18 0 0 0-1.74.55v6.08h-2.34v-8.14h1.92l.23.88a4.89 4.89 0 0 1 3.07-1.12 2.16 2.16 0 0 1 2.37 2.37v6zm9.41-.21a5.41 5.41 0 0 1-1.94.33 2.76 2.76 0 0 1-2-.64 2.66 2.66 0 0 1-.64-2v-3.95H136v-1.42l1.3-.26.35-2.24h1.92v2.21h2.21v1.73h-2.21v3.84a.89.89 0 0 0 .26.72 1.37 1.37 0 0 0 .86.21 8.52 8.52 0 0 0 1.14-.1z" fill="#333"/>
	<path d="M73 19h54v54H73z" fill="url(#a)"/>
	<path d="m103.69 38.2 1.3-.8a24.51 24.51 0 0 1 4 12l-1.4.1a22.57 22.57 0 0 0-3.9-11.3zm-7.3 6.7L96 46.3a22.12 22.12 0 0 1 8 5l1-1.1a22.57 22.57 0 0 0-8.61-5.3zm1.9-8.1-.9-1.1a24.38 24.38 0 0 0-3.9 4.6l1.2.8a15 15 0 0 1 3.6-4.3zm17.4 18a17.48 17.48 0 0 1-4.7 5.4 5.55 5.55 0 0 0-.8.6 13.25 13.25 0 0 1-4.3 2.1h-.1a22.75 22.75 0 0 1-5.8 1 18.05 18.05 0 0 1-18-18v-1.1a18 18 0 0 1 26.8-14.6 18.08 18.08 0 0 1 6.9 24.6zm-2.6-19a16.55 16.55 0 0 0-4.7-4.1 15.68 15.68 0 0 0-2.9.8l-.5-1.4c.4-.1.9-.3 1.3-.4a16.9 16.9 0 0 0-6.3-1.3 16 16 0 0 0-3 .3c.6.4 1.2.8 1.9 1.2l-.8 1.1A10.52 10.52 0 0 0 95 30.2a16.49 16.49 0 0 0-11.4 13.9 26 26 0 0 1 3.9-.5v1.5a19.15 19.15 0 0 0-4.1.5v.5a16.31 16.31 0 0 0 7 13.5 21.87 21.87 0 0 1-1.1-6.7 9.67 9.67 0 0 1 .5-3.4 2 2 0 0 0 .1-.8l1.5.3c-.1.3-.1.5-.2.8a16.45 16.45 0 0 0-.4 3.1 21.43 21.43 0 0 0 1.6 7.9 14.86 14.86 0 0 0 7.5 1.8 17.53 17.53 0 0 0 5.1-.8 17.68 17.68 0 0 0 1.5-3.8l1.3.5c-.3.9-.6 1.8-.9 2.6.6-.3 1.2-.6 1.7-.9a.77.77 0 0 1 .3-.2c.2-.1.4-.3.7-.5a10.09 10.09 0 0 0-.7-1.5l1.3-.6a6.12 6.12 0 0 1 .5 1.2 16.69 16.69 0 0 0 2.39-22.8zm-14.5-1.3a3.15 3.15 0 1 1 6.3 0 3.15 3.15 0 0 1-6.3 0zm1.4 0a1.75 1.75 0 0 0 1.7 1.7 1.92 1.92 0 0 0 1.8-1.7 1.71 1.71 0 0 0-1.8-1.7 1.69 1.69 0 0 0-1.69 1.7zm-4.9 10.1a3.15 3.15 0 0 1-6.3 0 3.2 3.2 0 0 1 3.1-3.2 3.16 3.16 0 0 1 3.2 3.2zm-1.4 0a1.93 1.93 0 0 0-1.8-1.8 1.77 1.77 0 0 0-1.7 1.8 1.69 1.69 0 0 0 1.7 1.7 1.92 1.92 0 0 0 1.8-1.7zm17.2 9.2a3 3 0 0 1-3.1 3.1 3.15 3.15 0 1 1 0-6.3 3 3 0 0 1 3.1 3.2zm-1.4 0a1.75 1.75 0 1 0-3.5 0 1.77 1.77 0 0 0 1.8 1.7 1.75 1.75 0 0 0 1.7-1.7z" fill="#fff"/>
</svg>
