<svg xmlns="http://www.w3.org/2000/svg" width="200" height="128">
    <defs>
        <linearGradient id="a" x1="268.5" y1="-353.09" x2="118.5" y2="-353.09" gradientTransform="rotate(135 45.003 -165.003)" gradientUnits="userSpaceOnUse">
            <stop offset="0" stop-color="#2e27ad"/>
            <stop offset="1" stop-color="#527fff"/>
        </linearGradient>
    </defs>
    <path d="M91.65 90.74l-1-2.95h-4.59l-1 2.95h-1.67l4.1-11.09h1.76l4.09 11.09zm-5.17-4.18h3.73l-1.87-5.44zm15.84 4.18l-2.1-8.69-2.11 8.69h-1.82l-3.23-11.09h1.77l2.39 9.29 2.12-9h1.8l2.12 9 2.4-9.31h1.72l-3.24 11.09zm8.75-5.27a4.51 4.51 0 01-1.9-1.2 2.63 2.63 0 01-.59-1.77 3 3 0 01.44-1.6 3.09 3.09 0 011.29-1.09 4.52 4.52 0 012-.4 8.39 8.39 0 013 .57v1.3a10 10 0 00-2.85-.5 2.68 2.68 0 00-1.61.43 1.4 1.4 0 00-.56 1.21 1.33 1.33 0 00.38 1 4.07 4.07 0 001.42.76l1.46.55a4.31 4.31 0 011.86 1.16 2.61 2.61 0 01.57 1.75 3 3 0 01-1.1 2.45 4.5 4.5 0 01-2.95.91 7.29 7.29 0 01-3.2-.66v-1.27a9.87 9.87 0 003.17.56 2.85 2.85 0 001.78-.49 1.59 1.59 0 00.65-1.35 1.36 1.36 0 00-.37-1 3.73 3.73 0 00-1.28-.75zm-47 21a8 8 0 01-2.89.49A5.44 5.44 0 0157 105.5a7.13 7.13 0 01.1-8.5 5.44 5.44 0 014.1-1.52 7.88 7.88 0 012.67.45v1.89a11.09 11.09 0 00-2.38-.32 3.24 3.24 0 00-2.49.88 3.79 3.79 0 00-.82 2.68v.37a3.82 3.82 0 00.8 2.67 3.16 3.16 0 002.44.87 12.8 12.8 0 002.61-.37zm5.25.53a3.91 3.91 0 01-3-1.15 5.28 5.28 0 010-6.37 4.46 4.46 0 016 0 5.28 5.28 0 010 6.37 3.91 3.91 0 01-3.04 1.15zm0-1.8c1.12 0 1.68-.84 1.68-2.54s-.56-2.53-1.68-2.53-1.68.85-1.68 2.53.52 2.52 1.64 2.52zm11.39 1.56l-.19-.72a3.41 3.41 0 01-2.35.89 3.22 3.22 0 01-1.78-.5 3.31 3.31 0 01-1.19-1.47 5.58 5.58 0 01-.42-2.25 5 5 0 01.94-3.18 3 3 0 012.5-1.19 3.47 3.47 0 012.19.72V94.9h2.29v11.84zm-1.77-1.59a2.69 2.69 0 001.47-.45v-4.22a3.08 3.08 0 00-1.59-.4 1.41 1.41 0 00-1.26.63 3.49 3.49 0 00-.42 1.91 3.37 3.37 0 00.44 1.91 1.57 1.57 0 001.32.6zm7.79-1.93a2 2 0 00.64 1.52 2.8 2.8 0 001.81.48 9.67 9.67 0 002.49-.4v1.55a5.45 5.45 0 01-1.33.45 8.53 8.53 0 01-1.61.16 4.09 4.09 0 01-3.1-1.11 5.4 5.4 0 010-6.41 3.8 3.8 0 012.93-1.14 3.26 3.26 0 012.44.87 3.41 3.41 0 01.86 2.49v.8c0 .3-.07.54-.11.74zm1.74-3.28a1.64 1.64 0 00-1.24.47 2.17 2.17 0 00-.52 1.37h3.14v-.28q-.04-1.58-1.42-1.58zm5.33 6.8V95.65h4a5 5 0 013.82 1.43 7 7 0 010 8.21 4.9 4.9 0 01-3.77 1.45zm2.4-9.24v7.38h1.38q2.89 0 2.89-3.54V101c0-2.34-1-3.52-2.91-3.52zm10.56 5.72a2 2 0 00.64 1.52 2.8 2.8 0 001.81.48 9.67 9.67 0 002.49-.4v1.55a5.31 5.31 0 01-1.33.45 8.53 8.53 0 01-1.61.16 4.11 4.11 0 01-3.1-1.11 5.38 5.38 0 010-6.41 3.78 3.78 0 012.92-1.14 3.26 3.26 0 012.44.87 3.37 3.37 0 01.86 2.49v.8c0 .3-.07.54-.11.74zm1.74-3.28a1.64 1.64 0 00-1.24.47 2.17 2.17 0 00-.52 1.37h3.14v-.28q-.04-1.58-1.42-1.58zm5.13 10.04V98.56h1.92l.19.77a3.55 3.55 0 011.16-.74 3.77 3.77 0 011.39-.27 3 3 0 012.45 1.14 4.74 4.74 0 01.91 3.07 5.71 5.71 0 01-.42 2.25 3.53 3.53 0 01-1.2 1.56 3 3 0 01-1.81.57 3.67 3.67 0 01-1.24-.21 2.92 2.92 0 01-1-.57V110zm3.91-10a3 3 0 00-1.57.43v4.21a2.92 2.92 0 001.57.43 1.51 1.51 0 001.32-.61 3.41 3.41 0 00.42-1.92 3.45 3.45 0 00-.42-1.93 1.47 1.47 0 00-1.32-.53zm9.53 6.5a3.84 3.84 0 01-1.44.27c-1.44 0-2.16-.81-2.16-2.42V94.9h2.34v9.34a1 1 0 00.15.63.59.59 0 00.5.19 5.66 5.66 0 00.61 0zm5.07.4a3.87 3.87 0 01-3-1.15 5.28 5.28 0 010-6.37 4.45 4.45 0 016 0 5.28 5.28 0 010 6.37 3.89 3.89 0 01-3 1.25zm0-1.8c1.12 0 1.68-.84 1.68-2.54s-.56-2.53-1.68-2.53-1.68.85-1.68 2.53.54 2.62 1.68 2.62zm7.89 1.68l-3.23-8.3h2.48l1.82 6.11 1.73-6.11h2.42l-3.46 9.28a4.28 4.28 0 01-1.13 1.82 2.54 2.54 0 01-1.7.56 4.79 4.79 0 01-1.55-.25v-1.59a7.65 7.65 0 00.91.05 1.56 1.56 0 001-.31A2.46 2.46 0 00140 107z" fill="#333"/>
    <path d="M73 19h54v54H73z" fill="url(#a)"/>
    <path d="M100.3 28h-.6A17.74 17.74 0 0082 45.4a.66.66 0 00.6.7l6.2 4.1.8-1.2-6-4c.5-1.9 2.4-3.1 4.9-3.1a5.06 5.06 0 013.6 1.4l.1.1c.9.8 1.3 1.2 1.3 2.3a.76.76 0 00.2.4l.6 2.9 1.4-.4-.7-3c.3-2.7 2.8-3.7 5-3.7a5.06 5.06 0 013.6 1.4l.2.3a3 3 0 011.2 2l-.7 3 1.4.4.8-3.1v-.3c.2-2.8 2.8-3.8 5-3.8a4.75 4.75 0 013.6 1.5 6.14 6.14 0 011.4 1.7l-5.3 3.9.8 1.1 5.7-4a1.14 1.14 0 00.3-.6c-.1-9.7-7.8-17.1-17.7-17.4zm-7.1 14.5l-.2-.1a6.6 6.6 0 00-4.6-1.9 6.17 6.17 0 00-4.5 1.5 16.11 16.11 0 0113.2-12.3c-1.9 2.2-3.3 6.8-3.6 13.3-.1-.1-.2-.4-.3-.5zm11.4-.1a6.1 6.1 0 00-4.6-1.8 7.2 7.2 0 00-5 1.7c.4-7.6 2.7-12.7 4.9-12.9h.2c2.2.3 4.5 5.6 4.9 13.4l-.2-.1zm11.5 0a6.6 6.6 0 00-4.6-1.9 6.48 6.48 0 00-5.1 2c-.3-6.3-1.7-10.7-3.5-12.8a15.83 15.83 0 0113.4 12.8zM94.2 56.9a1.07 1.07 0 01-.2-.6.55.55 0 01.3-.5l3-2.2.8 1.1-2.3 1.7 2.1 2.1-1 1zm8.7-1.9l1-1 2.7 2.6a.67.67 0 010 1l-.1.1-3 2.2-.9-1.2 2.3-1.7zm-5.1 6.2l3.8-8.6 1.3.5-3.8 8.7zm11.6-10.9h-18a.85.85 0 00-.8.7v12.3a.71.71 0 00.8.7h18a.68.68 0 00.7-.7V51a.68.68 0 00-.7-.7zm-.8 12.3H92.1V51.8h16.5z" fill="#fff"/>
</svg>
