<svg xmlns="http://www.w3.org/2000/svg" width="200" height="128">
	<defs>
		<linearGradient id="a" x1="-316.03" y1="-120.03" x2="-209.97" y2="-13.97" gradientTransform="rotate(-90 -25 -165)" gradientUnits="userSpaceOnUse">
			<stop offset="0" stop-color="#4d27a8"/>
			<stop offset="1" stop-color="#a166ff"/>
		</linearGradient>
	</defs>
	<path d="m78.85 90.74-1-2.95h-4.59l-1 2.95h-1.67l4.1-11.09h1.76l4.09 11.09zm-5.17-4.18h3.73l-1.87-5.44zm18.58 4.18v-5.51a1.83 1.83 0 0 0-.26-1.18 1.13 1.13 0 0 0-1-.39 4.49 4.49 0 0 0-2.35.72 1.94 1.94 0 0 1 0 .24v6.12h-1.58v-5.51a1.9 1.9 0 0 0-.3-1.18 1.13 1.13 0 0 0-1-.39 4.35 4.35 0 0 0-2.34.71v6.37h-1.54v-8.12h1.33l.16.82a5.32 5.32 0 0 1 3-1.06 2 2 0 0 1 2 1.14 5.43 5.43 0 0 1 3.17-1.14 2.23 2.23 0 0 1 1.7.63 2.49 2.49 0 0 1 .59 1.77v6zm8.68 0-.12-.84a4.2 4.2 0 0 1-1.28.77 3.76 3.76 0 0 1-1.38.27 2.54 2.54 0 0 1-1.82-.64 2.31 2.31 0 0 1-.68-1.74 2.28 2.28 0 0 1 .84-1.86 3.34 3.34 0 0 1 2.24-.7 8.38 8.38 0 0 1 2 .27v-1a1.59 1.59 0 0 0-.39-1.22 2 2 0 0 0-1.35-.4 8.71 8.71 0 0 0-2.81.49V83a5.17 5.17 0 0 1 1.41-.47 8.55 8.55 0 0 1 1.68-.17 3.29 3.29 0 0 1 2.24.64 2.42 2.42 0 0 1 .72 1.92v5.8zm-2.4-1a3.75 3.75 0 0 0 2.21-.81V87.3a6.86 6.86 0 0 0-1.69-.21c-1.21 0-1.81.46-1.81 1.39a1.27 1.27 0 0 0 .33.94 1.37 1.37 0 0 0 .96.32zm5.46 1v-1.22l4.66-5.65h-4.5v-1.25h6.26v1.2l-4.72 5.67h4.76v1.25zm11.52.24a3.63 3.63 0 0 1-2.85-1.14 5.4 5.4 0 0 1 0-6.32 4.13 4.13 0 0 1 5.7 0 5.4 5.4 0 0 1 0 6.32 3.63 3.63 0 0 1-2.85 1.16zm0-1.28c1.5 0 2.26-1 2.26-3s-.76-3-2.26-3-2.26 1-2.26 3 .74 3 2.26 3zm11.31 1v-5.39a1.9 1.9 0 0 0-.34-1.25 1.37 1.37 0 0 0-1.08-.4 4.45 4.45 0 0 0-2.48.82v6.26h-1.59v-8.12h1.33l.16.9a5.27 5.27 0 0 1 3.2-1.14 2.41 2.41 0 0 1 1.78.62 2.46 2.46 0 0 1 .61 1.78v6zm-64.67 15.75a8 8 0 0 1-2.89.49 5.44 5.44 0 0 1-4.1-1.44 7.13 7.13 0 0 1 .06-8.5 5.42 5.42 0 0 1 4.1-1.52 7.88 7.88 0 0 1 2.67.45v1.89a11.09 11.09 0 0 0-2.38-.32 3.24 3.24 0 0 0-2.49.88 3.79 3.79 0 0 0-.83 2.62v.37a3.87 3.87 0 0 0 .8 2.67 3.18 3.18 0 0 0 2.45.87 12.8 12.8 0 0 0 2.61-.37zm5.22.13a3.84 3.84 0 0 1-1.44.27c-1.44 0-2.16-.81-2.16-2.42V94.9h2.33v9.34a1 1 0 0 0 .15.63.62.62 0 0 0 .51.19 5.86 5.86 0 0 0 .61 0zm5.07.4a3.91 3.91 0 0 1-3-1.15 5.28 5.28 0 0 1 0-6.37 4.45 4.45 0 0 1 6 0 5.24 5.24 0 0 1 0 6.37 3.87 3.87 0 0 1-3 1.17zm0-1.8c1.12 0 1.68-.84 1.68-2.54s-.56-2.53-1.68-2.53-1.68.85-1.68 2.53.56 2.54 1.68 2.54zm11.31 1.56-.22-.87a4.78 4.78 0 0 1-3 1.11 2.23 2.23 0 0 1-1.7-.65 2.53 2.53 0 0 1-.6-1.79v-6h2.33v5.33c0 .86.38 1.29 1.12 1.29a3 3 0 0 0 1.63-.51v-6.09h2.34v8.18zm9.68 0-.19-.72a3.42 3.42 0 0 1-2.35.89 3.2 3.2 0 0 1-1.78-.5 3.31 3.31 0 0 1-1.19-1.47 5.57 5.57 0 0 1-.43-2.25 5 5 0 0 1 1-3.18 3 3 0 0 1 2.49-1.19 3.48 3.48 0 0 1 2.2.72V94.9h2.33v11.84zm-1.78-1.59a2.7 2.7 0 0 0 1.48-.45v-4.22a3.08 3.08 0 0 0-1.59-.4 1.41 1.41 0 0 0-1.26.63 3.49 3.49 0 0 0-.42 1.91 3.37 3.37 0 0 0 .44 1.91 1.57 1.57 0 0 0 1.35.62zm8.37-3.26a4.7 4.7 0 0 1-2-1.29 3 3 0 0 1-.62-1.93 2.93 2.93 0 0 1 1.11-2.4 4.61 4.61 0 0 1 3-.89 8.6 8.6 0 0 1 3.07.57v1.83a9.85 9.85 0 0 0-2.88-.48c-1.26 0-1.89.4-1.89 1.21a.94.94 0 0 0 .33.74 4.2 4.2 0 0 0 1.22.61l1.19.43a5.2 5.2 0 0 1 2.12 1.27 2.81 2.81 0 0 1 .63 1.9 3.18 3.18 0 0 1-1.19 2.6 5.06 5.06 0 0 1-3.24 1 10 10 0 0 1-1.8-.17 6.3 6.3 0 0 1-1.53-.46v-1.82a11.94 11.94 0 0 0 1.71.38 10.29 10.29 0 0 0 1.65.15 2.57 2.57 0 0 0 1.45-.35 1.09 1.09 0 0 0 .52-1 1 1 0 0 0-.32-.78 3.74 3.74 0 0 0-1.25-.64zm8.79 1.33a2 2 0 0 0 .64 1.52 2.77 2.77 0 0 0 1.8.48 9.68 9.68 0 0 0 2.5-.4v1.55a5.39 5.39 0 0 1-1.34.45 8.35 8.35 0 0 1-1.6.16 4.09 4.09 0 0 1-3.1-1.11 5.4 5.4 0 0 1 0-6.41 3.8 3.8 0 0 1 2.93-1.14 3.26 3.26 0 0 1 2.44.87 3.41 3.41 0 0 1 .86 2.49v.8c0 .3-.07.54-.11.74zm1.74-3.28a1.62 1.62 0 0 0-1.24.47 2.12 2.12 0 0 0-.52 1.37h3.14v-.28q0-1.56-1.38-1.56zm9.86 6.8-.2-.72a3.91 3.91 0 0 1-1.14.71 3.42 3.42 0 0 1-1.26.26 2.62 2.62 0 0 1-1.89-.67 2.32 2.32 0 0 1-.71-1.79 2.37 2.37 0 0 1 .38-1.35 2.57 2.57 0 0 1 1.1-.92 3.91 3.91 0 0 1 1.7-.34 7.8 7.8 0 0 1 1.7.21v-.8a1.34 1.34 0 0 0-.31-1 1.71 1.71 0 0 0-1.12-.27 9.72 9.72 0 0 0-2.89.49V99a6.25 6.25 0 0 1 1.48-.49 9.31 9.31 0 0 1 1.83-.18 3.63 3.63 0 0 1 2.41.66 2.67 2.67 0 0 1 .76 2.09v5.67zm-1.94-1.32a2 2 0 0 0 .82-.17 3.27 3.27 0 0 0 .8-.48v-1.39a7.61 7.61 0 0 0-1.27-.12c-.93 0-1.39.38-1.39 1.12a.94.94 0 0 0 1 1zm6 1.32v-8.18h1.92l.29 1.22a4.45 4.45 0 0 1 1.21-1 2.55 2.55 0 0 1 1.21-.3 5 5 0 0 1 .64 0v2.16a4.37 4.37 0 0 0-1-.1 5 5 0 0 0-1.94.37v5.78zm12.39-.36a3.64 3.64 0 0 1-1 .4 5.88 5.88 0 0 1-1.27.13 3.9 3.9 0 0 1-3-1.09 5.21 5.21 0 0 1 .06-6.3 4 4 0 0 1 3-1.14 4.54 4.54 0 0 1 2.16.52v1.55a6.36 6.36 0 0 0-1.73-.27 2.21 2.21 0 0 0-1.65.56 2.6 2.6 0 0 0-.52 1.8v.23a2.56 2.56 0 0 0 .52 1.78 2.05 2.05 0 0 0 1.6.57 7.09 7.09 0 0 0 1.83-.29zm6.91.36v-5.36a1.36 1.36 0 0 0-.29-1 1.12 1.12 0 0 0-.88-.31 3.18 3.18 0 0 0-1.74.55v6.08h-2.34V94.9h2.34v4.4a4.93 4.93 0 0 1 2.88-1 2.16 2.16 0 0 1 2.37 2.37v6z" fill="#333"/>
	<path d="M73 19h54v54H73z" fill="url(#a)"/>
	<path d="m116.8 56.9-9.6-9.7a13.29 13.29 0 1 0-17.6 6.3 12.53 12.53 0 0 0 5.7 1.3 13 13 0 0 0 6.4-1.7l9.5 9.5a3.87 3.87 0 0 0 5.6-.3 4 4 0 0 0 0-5.4zm-21.6-3.6a11.8 11.8 0 0 1 0-23.6 12 12 0 0 1 11.9 11.8 11.78 11.78 0 0 1-11.9 11.8zm20.6 8.3a2.53 2.53 0 0 1-3.6 0l-9.2-9.3a13.05 13.05 0 0 0 3.6-3.8l9.2 9.4a2.87 2.87 0 0 1 0 3.7zm-1.4-19a3.9 3.9 0 0 1-1.9 3.4 5.58 5.58 0 0 1-2.7 1h-.8a7.84 7.84 0 0 0 .5-1.4h.2a3.86 3.86 0 0 0 2-.8 3 3 0 0 0 1.3-2.2 2.72 2.72 0 0 0-2.5-2.7.55.55 0 0 1-.5-.3.61.61 0 0 1-.1-.6v-.1a.78.78 0 0 0-.3-.7 16.55 16.55 0 0 0-.6-2.1 3 3 0 0 1 2.3 2.4 4.29 4.29 0 0 1 3.1 4.1zm-9.6-5.2v.2a2.27 2.27 0 0 0-1.8.5.78.78 0 0 1-1.1 0c-.1-.1-.1-.1-.1-.2a5.34 5.34 0 0 0-6.8-3.1 5.11 5.11 0 0 0-2.1 1.5 4.44 4.44 0 0 0-1.3 3.4 1 1 0 0 1-.5.8 3.74 3.74 0 0 0-2.5 2.8 1.7 1.7 0 0 0-.1.7 3.69 3.69 0 0 0 3.7 3.7h11.3a17.38 17.38 0 0 1-1.3 1.5h-10a5.14 5.14 0 0 1-5.2-5.1V43a5 5 0 0 1 3.1-3.8 6.75 6.75 0 0 1 6.7-6.2 6.83 6.83 0 0 1 5.9 3.6 3.26 3.26 0 0 1 1.4-.4 7.46 7.46 0 0 1 .7 1.2z" fill="#fff"/>
</svg>
