<svg xmlns="http://www.w3.org/2000/svg" width="200" height="128">
	<defs>
		<linearGradient id="a" x1="-219.5" y1="122.09" x2="-69.5" y2="122.09" gradientTransform="rotate(-45 -95.008 -165.006)" gradientUnits="userSpaceOnUse">
			<stop offset="0" stop-color="#bd0816"/>
			<stop offset="1" stop-color="#ff5252"/>
		</linearGradient>
	</defs>
	<path d="m91.65 90.74-1-2.95h-4.59l-1 2.95h-1.67l4.1-11.09h1.76l4.09 11.09zm-5.17-4.18h3.73l-1.87-5.44zm15.84 4.18-2.1-8.69-2.11 8.69h-1.82l-3.23-11.09h1.77l2.39 9.29 2.12-9h1.8l2.12 9 2.4-9.31h1.72l-3.24 11.09zm8.75-5.27a4.51 4.51 0 0 1-1.9-1.2 2.63 2.63 0 0 1-.59-1.77 3 3 0 0 1 .44-1.6 3.09 3.09 0 0 1 1.29-1.09 4.52 4.52 0 0 1 2-.4 8.39 8.39 0 0 1 3 .57v1.3a10 10 0 0 0-2.85-.5 2.68 2.68 0 0 0-1.61.43 1.4 1.4 0 0 0-.56 1.21 1.33 1.33 0 0 0 .38 1 4.07 4.07 0 0 0 1.42.76l1.46.55a4.31 4.31 0 0 1 1.86 1.16 2.61 2.61 0 0 1 .57 1.75 3 3 0 0 1-1.1 2.45 4.5 4.5 0 0 1-2.95.91 7.29 7.29 0 0 1-3.2-.66v-1.27a9.87 9.87 0 0 0 3.17.56 2.85 2.85 0 0 0 1.78-.49 1.59 1.59 0 0 0 .65-1.35 1.36 1.36 0 0 0-.37-1 3.73 3.73 0 0 0-1.28-.75zm-31.3 16.42a4.7 4.7 0 0 1-2-1.29 3.22 3.22 0 0 1 .49-4.33 4.58 4.58 0 0 1 3-.89 8.56 8.56 0 0 1 3.07.57v1.83a9.74 9.74 0 0 0-2.88-.48c-1.25 0-1.88.4-1.88 1.21a1 1 0 0 0 .32.74 4.29 4.29 0 0 0 1.23.61l1.18.43a5.13 5.13 0 0 1 2.12 1.27 2.81 2.81 0 0 1 .63 1.9 3.17 3.17 0 0 1-1.18 2.6 5.07 5.07 0 0 1-3.25 1 10 10 0 0 1-1.79-.17 6.38 6.38 0 0 1-1.54-.46v-1.82a12.4 12.4 0 0 0 1.72.38 10.08 10.08 0 0 0 1.64.15 2.6 2.6 0 0 0 1.46-.35 1.11 1.11 0 0 0 .51-1 1 1 0 0 0-.31-.78 3.93 3.93 0 0 0-1.26-.64zm12.29 4.85v-5.36a1.36 1.36 0 0 0-.29-1 1.14 1.14 0 0 0-.88-.31 3.21 3.21 0 0 0-1.75.55v6.08h-2.33V94.9h2.33v4.4a4.93 4.93 0 0 1 2.88-1 2.39 2.39 0 0 1 1.76.62 2.36 2.36 0 0 1 .61 1.75v6zm5.77-9.44a1.4 1.4 0 0 1-1-.34 1.16 1.16 0 0 1-.37-.91 1.14 1.14 0 0 1 .37-.91 1.35 1.35 0 0 1 1-.34 1.38 1.38 0 0 1 1 .34 1.17 1.17 0 0 1 .37.91 1.19 1.19 0 0 1-.37.91 1.42 1.42 0 0 1-1 .34zm-1.17 9.44v-8.18H99v8.18zm6.39-3.52a2 2 0 0 0 .64 1.52 2.78 2.78 0 0 0 1.81.48 9.67 9.67 0 0 0 2.49-.4v1.55a5.45 5.45 0 0 1-1.33.45 8.53 8.53 0 0 1-1.61.16 4.09 4.09 0 0 1-3.1-1.11 5.4 5.4 0 0 1 0-6.41 3.8 3.8 0 0 1 2.93-1.14 3.26 3.26 0 0 1 2.44.87 3.41 3.41 0 0 1 .86 2.49v.8c0 .3-.07.54-.11.74zm1.74-3.28a1.64 1.64 0 0 0-1.24.47 2.12 2.12 0 0 0-.52 1.37h3.14v-.28q0-1.56-1.38-1.56zm8.77 6.64a3.84 3.84 0 0 1-1.44.27c-1.44 0-2.16-.81-2.16-2.42V94.9h2.34v9.34a1 1 0 0 0 .15.63.59.59 0 0 0 .5.19 5.86 5.86 0 0 0 .61 0zm7 .16-.19-.72a3.42 3.42 0 0 1-2.35.89 3.2 3.2 0 0 1-1.78-.5 3.31 3.31 0 0 1-1.19-1.47 5.57 5.57 0 0 1-.43-2.25 5 5 0 0 1 1-3.18 3 3 0 0 1 2.38-1.19 3.48 3.48 0 0 1 2.2.72V94.9h2.33v11.84zm-1.78-1.59a2.7 2.7 0 0 0 1.48-.45v-4.22a3.08 3.08 0 0 0-1.59-.4 1.41 1.41 0 0 0-1.26.63 3.49 3.49 0 0 0-.42 1.91 3.37 3.37 0 0 0 .44 1.91 1.57 1.57 0 0 0 1.31.62z" fill="#333"/>
	<path d="M73 19h54v54H73z" fill="url(#a)"/>
	<path d="M110.8 32.4v14.3a3.3 3.3 0 0 0-1.4 0V32.9l-13-4.2-13 4.8v14.8a20.45 20.45 0 0 0 1.7 7.6c2.2 4.9 5.9 7.4 11.3 7.4a11.53 11.53 0 0 0 6.3-1.5l1 1.1v.1a14.29 14.29 0 0 1-7.3 1.7 12.83 12.83 0 0 1-12.6-8.3 22.18 22.18 0 0 1-1.8-8V33.1c0-.3.2-.6.4-.6l13.7-5.1a.45.45 0 0 1 .5 0l13.7 4.3a.75.75 0 0 1 .5.7zm-4.1 2.5-10.1-3.8a.45.45 0 0 0-.5 0L86 34.9a.57.57 0 0 0-.4.7v14.3a20.88 20.88 0 0 0 2.1 5.4c2.1 3.7 5.1 5.5 8.7 5.5a9.93 9.93 0 0 0 5-1.4 7.84 7.84 0 0 1-.5-1.4l-.1.1a7.84 7.84 0 0 1-3.6 1.3V32.8l8.6 3.2v11.8a11.64 11.64 0 0 1 1.5-.6V35.6a1.06 1.06 0 0 0-.6-.7zM87 49.7V36.1l8.7-3.3v26.7c-6.5-.6-8.5-8.9-8.7-9.8zm26.7 5.5v1.5h-2.9v2.8h-1.4v-2.8h-2.9v-1.5h2.9v-2.9h1.4v2.9zm-3.6 8.8a7.9 7.9 0 1 1 7.9-7.9 7.85 7.85 0 0 1-7.9 7.9zm0-14.4a6.5 6.5 0 1 0 6.5 6.5 6.49 6.49 0 0 0-6.5-6.5z" fill="#fff"/>
</svg>
