<svg xmlns="http://www.w3.org/2000/svg" width="200" height="128">
    <defs>
        <linearGradient id="a" x1="-219.5" y1="122.09" x2="-69.5" y2="122.09" gradientTransform="rotate(-45 -95.008 -165.006)" gradientUnits="userSpaceOnUse">
            <stop offset="0" stop-color="#055f4e"/>
            <stop offset="1" stop-color="#56c0a7"/>
        </linearGradient>
    </defs>
    <path d="M78.85 90.74l-1-2.95h-4.59l-1 2.95h-1.67l4.1-11.09h1.76l4.09 11.09zm-5.17-4.18h3.73l-1.87-5.44zm18.58 4.18v-5.51a1.83 1.83 0 00-.26-1.18 1.13 1.13 0 00-1-.39 4.49 4.49 0 00-2.35.72 1.94 1.94 0 010 .24v6.12h-1.58v-5.51a1.9 1.9 0 00-.3-1.18 1.13 1.13 0 00-1-.39 4.35 4.35 0 00-2.34.71v6.37h-1.54v-8.12h1.33l.16.82a5.32 5.32 0 013-1.06 2 2 0 012 1.14 5.43 5.43 0 013.17-1.14 2.23 2.23 0 011.7.63 2.49 2.49 0 01.59 1.77v6zm8.68 0l-.12-.84a4.2 4.2 0 01-1.28.77 3.76 3.76 0 01-1.38.27 2.54 2.54 0 01-1.82-.64 2.31 2.31 0 01-.68-1.74 2.28 2.28 0 01.84-1.86 3.34 3.34 0 012.24-.7 8.38 8.38 0 012 .27v-1a1.59 1.59 0 00-.39-1.22 2 2 0 00-1.35-.4 8.71 8.71 0 00-2.81.49V83a5.17 5.17 0 011.41-.47 8.55 8.55 0 011.68-.17 3.29 3.29 0 012.24.64 2.42 2.42 0 01.72 1.92v5.8zm-2.4-1a3.75 3.75 0 002.21-.81V87.3a6.86 6.86 0 00-1.69-.21c-1.21 0-1.81.46-1.81 1.39a1.27 1.27 0 00.33.94 1.37 1.37 0 00.96.32zm5.46 1v-1.22l4.66-5.65h-4.5v-1.25h6.26v1.2l-4.72 5.67h4.76v1.25zm11.52.24a3.63 3.63 0 01-2.85-1.14 5.4 5.4 0 010-6.32 4.13 4.13 0 015.7 0 5.4 5.4 0 010 6.32 3.63 3.63 0 01-2.85 1.16zm0-1.28c1.5 0 2.26-1 2.26-3s-.76-3-2.26-3-2.26 1-2.26 3 .74 3 2.26 3zm11.31 1v-5.39a1.9 1.9 0 00-.34-1.25 1.37 1.37 0 00-1.08-.4 4.45 4.45 0 00-2.48.82v6.26h-1.59v-8.12h1.33l.16.9a5.27 5.27 0 013.2-1.14 2.41 2.41 0 011.78.62 2.46 2.46 0 01.61 1.78v6zm-58.14 16v-9.13h-3.38v-1.92h9.15v1.92h-3.37v9.17zm6.29 0v-8.14h1.92l.29 1.22a4.28 4.28 0 011.2-1 2.55 2.55 0 011.21-.3 4.85 4.85 0 01.64 0v2.16a4.37 4.37 0 00-1-.1 5 5 0 00-1.94.37v5.78zm11.16 0L86 106a3.91 3.91 0 01-1.14.71 3.42 3.42 0 01-1.26.26 2.62 2.62 0 01-1.89-.67 2.33 2.33 0 01-.72-1.79 2.38 2.38 0 01.39-1.35 2.52 2.52 0 011.1-.92 3.91 3.91 0 011.7-.34 7.64 7.64 0 011.69.21v-.8a1.34 1.34 0 00-.3-1 1.73 1.73 0 00-1.12-.27 9.83 9.83 0 00-2.9.49V99a6.5 6.5 0 011.45-.5 9.31 9.31 0 011.83-.18 3.59 3.59 0 012.4.66 2.63 2.63 0 01.76 2.09v5.67zm-1.93-1.32a2 2 0 00.82-.17 3.21 3.21 0 00.79-.48v-1.39a7.59 7.59 0 00-1.26-.12c-.93 0-1.39.38-1.39 1.12a.94.94 0 001 1zm11.23 1.32v-5.36a1.36 1.36 0 00-.29-1 1.12 1.12 0 00-.88-.31 3.18 3.18 0 00-1.74.55v6.08h-2.34v-8.1h1.92l.23.88a4.89 4.89 0 013.07-1.12 2.16 2.16 0 012.37 2.37v6zm8-2.26a.65.65 0 00-.19-.5 2.53 2.53 0 00-.74-.38l-1.25-.5a3.22 3.22 0 01-1.41-.94 2.24 2.24 0 01-.43-1.42 2.12 2.12 0 01.87-1.76 3.77 3.77 0 012.33-.66 5.84 5.84 0 012.48.53v1.55a8.07 8.07 0 00-2.27-.37 2.25 2.25 0 00-1 .16.55.55 0 00-.31.51.57.57 0 00.19.44 2.65 2.65 0 00.77.41l1.22.5a3.46 3.46 0 011.42.93 2.13 2.13 0 01.42 1.37 2.33 2.33 0 01-.9 1.91 3.68 3.68 0 01-2.38.73 6.3 6.3 0 01-2.91-.65v-1.56a9.45 9.45 0 002.89.5c.83.04 1.22-.24 1.22-.76zm7.24 2.1a3.77 3.77 0 01-1.44.27c-1.44 0-2.16-.81-2.16-2.42V94.9h2.34v9.34a1 1 0 00.15.63.6.6 0 00.51.19 5.51 5.51 0 00.6 0zm6.29.16l-.19-.72a3.91 3.91 0 01-1.14.71 3.46 3.46 0 01-1.26.26 2.66 2.66 0 01-1.9-.67 2.58 2.58 0 01-.32-3.14 2.52 2.52 0 011.1-.92 3.91 3.91 0 011.7-.34 7.71 7.71 0 011.69.21v-.8a1.34 1.34 0 00-.3-1 1.73 1.73 0 00-1.12-.27 9.78 9.78 0 00-2.9.49V99a6.34 6.34 0 011.49-.49 9.28 9.28 0 011.82-.18 3.62 3.62 0 012.41.66 2.63 2.63 0 01.76 2.09v5.67zm-1.93-1.32a2.08 2.08 0 00.82-.17 3.21 3.21 0 00.79-.48v-1.39a7.59 7.59 0 00-1.26-.12c-.93 0-1.39.38-1.39 1.12a.94.94 0 001 1zm10.84 1.11a5.35 5.35 0 01-1.93.33 2.74 2.74 0 01-2-.64 2.67 2.67 0 01-.65-2v-3.95h-1.23v-1.38l1.3-.26.35-2.24h1.92v2.21h2.21v1.73h-2.21v3.84a.89.89 0 00.25.72 1.39 1.39 0 00.87.21 8.25 8.25 0 001.13-.1zm3.19-3.31a2 2 0 00.64 1.52 2.78 2.78 0 001.81.48 9.67 9.67 0 002.49-.4v1.55a5.45 5.45 0 01-1.33.45 8.53 8.53 0 01-1.61.16 4.09 4.09 0 01-3.1-1.11 5.4 5.4 0 010-6.41 3.8 3.8 0 012.93-1.14 3.26 3.26 0 012.44.87 3.41 3.41 0 01.86 2.49c0 .24 0 .5-.05.8s-.07.54-.11.74zm1.74-3.28a1.64 1.64 0 00-1.24.47 2.12 2.12 0 00-.52 1.37h3.14v-.28q.02-1.52-1.36-1.52z" fill="#333"/>
    <path d="M73 19h54v54H73z" fill="url(#a)"/>
    <path d="M97.5 52.5h-13a.68.68 0 01-.7-.7v-4.4h1.4V51h12.3zm3.6-18v3.6h-1.5v-2.9h-5a.68.68 0 01-.7-.7v-5.1h-8.7v14.4h-1.4V28.7a.68.68 0 01.7-.7h10.2c.1 0 .4.1.4.2l5.8 5.8a.76.76 0 01.2.5zm-2.5-.7l-3.3-3.4v3.4zm-2.1 13.3l-3.6-10h-1.6l-3.7 10h1.5l.9-2.7h4.1l.9 2.7zM92 38.4l1.7 4.9h-3.4zm24.2 7.6v17.3a.68.68 0 01-.7.7H99.6a.68.68 0 01-.7-.7V40.2a.68.68 0 01.7-.7h10.3a.76.76 0 01.4.2l5.8 5.8a.75.75 0 01.1.5zm-5.8-.7h3.4l-3.4-3.3zm4.4 1.4h-5.1a.68.68 0 01-.7-.7v-5h-8.6v21.6h14.4zm-5.1-7.2zm2.5 19c.1-.2.3-.4.4-.6s.1-.2.1-.4-.1-.2-.3-.2a10.09 10.09 0 01-3.8-1.7 12.52 12.52 0 002.2-3.7c.1 0 .2-.1.3-.2h1.1a.37.37 0 00.4-.4v-.6a.37.37 0 00-.4-.4h-3.9v-.9c.1-.1.1-.2.2-.4a.37.37 0 00-.1-.3c-.1-.1-.1-.1-.3-.1l-.8-.1a.37.37 0 00-.3.1.77.77 0 00-.2.3v1.4H103a.37.37 0 00-.4.4v.6a.37.37 0 00.4.4h1.2a12.94 12.94 0 002.3 3.9 10.84 10.84 0 01-3.8 1.7.22.22 0 00-.2.2c-.1.1 0 .2.1.4s.2.4.4.5.3.3.4.2a12.75 12.75 0 004.2-2.1 11.43 11.43 0 004.1 2.1h.1c.1.1.3 0 .4-.1zm-2.8-6.8a8.8 8.8 0 01-1.8 2.9 11.18 11.18 0 01-1.9-2.9zM95.3 62.6a2.9 2.9 0 01-2.9-2.9v-3.3l2.4 2.3 1-1-3.6-3.6a.67.67 0 00-1 0l-3.6 3.6 1 1 2.4-2.3v3.2a4.27 4.27 0 004.3 4.3h2.2v-1.4zm16.1-29.3l-2.4 2.3v-3.2a4.27 4.27 0 00-4.3-4.3h-2.9v1.4h2.9a2.9 2.9 0 012.9 2.9v3.2l-2.4-2.3-1 1 3.6 3.6a.67.67 0 001 0l3.6-3.6z" fill="#fff"/>
</svg>
