<svg xmlns="http://www.w3.org/2000/svg" width="200" height="128">
    <defs>
        <linearGradient id="a" x1="19.97" y1="661.03" x2="126.03" y2="554.97" gradientTransform="translate(0 -535)" gradientUnits="userSpaceOnUse">
            <stop offset="0" stop-color="#bd0816"/>
            <stop offset="1" stop-color="#ff5252"/>
        </linearGradient>
    </defs>
    <path d="M78.85 90.74l-1-2.95h-4.59l-1 2.95h-1.67l4.1-11.09h1.76l4.09 11.09zm-5.17-4.18h3.73l-1.87-5.44zm18.58 4.18v-5.51a1.83 1.83 0 00-.26-1.18 1.13 1.13 0 00-1-.39 4.49 4.49 0 00-2.35.72 1.94 1.94 0 010 .24v6.12h-1.58v-5.51a1.9 1.9 0 00-.3-1.18 1.13 1.13 0 00-1-.39 4.35 4.35 0 00-2.34.71v6.37h-1.54v-8.12h1.33l.16.82a5.32 5.32 0 013-1.06 2 2 0 012 1.14 5.43 5.43 0 013.17-1.14 2.23 2.23 0 011.7.63 2.49 2.49 0 01.59 1.77v6zm8.68 0l-.12-.84a4.2 4.2 0 01-1.28.77 3.76 3.76 0 01-1.38.27 2.54 2.54 0 01-1.82-.64 2.31 2.31 0 01-.68-1.74 2.28 2.28 0 01.84-1.86 3.34 3.34 0 012.24-.7 8.38 8.38 0 012 .27v-1a1.59 1.59 0 00-.39-1.22 2 2 0 00-1.35-.4 8.71 8.71 0 00-2.81.49V83a5.17 5.17 0 011.41-.47 8.55 8.55 0 011.68-.17 3.29 3.29 0 012.24.64 2.42 2.42 0 01.72 1.92v5.8zm-2.4-1a3.75 3.75 0 002.21-.81V87.3a6.86 6.86 0 00-1.69-.21c-1.21 0-1.81.46-1.81 1.39a1.27 1.27 0 00.33.94 1.37 1.37 0 00.96.32zm5.46 1v-1.22l4.66-5.65h-4.5v-1.25h6.26v1.2l-4.72 5.67h4.76v1.25zm11.52.24a3.63 3.63 0 01-2.85-1.14 5.4 5.4 0 010-6.32 4.13 4.13 0 015.7 0 5.4 5.4 0 010 6.32 3.63 3.63 0 01-2.85 1.16zm0-1.28c1.5 0 2.26-1 2.26-3s-.76-3-2.26-3-2.26 1-2.26 3 .74 3 2.26 3zm11.31 1v-5.39a1.9 1.9 0 00-.34-1.25 1.37 1.37 0 00-1.08-.4 4.45 4.45 0 00-2.48.82v6.26h-1.59v-8.12h1.33l.16.9a5.27 5.27 0 013.2-1.14 2.41 2.41 0 011.78.62 2.46 2.46 0 01.61 1.78v6zM66 106.74V95.65h2.4v11.09zm10.11 0v-5.36a1.36 1.36 0 00-.29-1 1.12 1.12 0 00-.88-.31 3.21 3.21 0 00-1.74.55v6.08h-2.33v-8.14h1.92l.23.88a4.89 4.89 0 013.07-1.12 2.16 2.16 0 012.37 2.37v6zm8-2.26A.65.65 0 0084 104a2.53 2.53 0 00-.74-.38L82 103.1a3.22 3.22 0 01-1.41-.94 2.31 2.31 0 01-.43-1.42A2.12 2.12 0 0181 99a3.77 3.77 0 012.33-.66 5.84 5.84 0 012.48.53v1.55a8.07 8.07 0 00-2.27-.37 2.25 2.25 0 00-1 .16.54.54 0 00-.3.51.56.56 0 00.18.44 2.61 2.61 0 00.78.41l1.21.5a3.46 3.46 0 011.42.93 2.13 2.13 0 01.42 1.37 2.33 2.33 0 01-.9 1.91A3.68 3.68 0 0183 107a6.3 6.3 0 01-2.91-.65v-1.56a9.49 9.49 0 002.89.5c.77-.01 1.16-.29 1.16-.81zm3.67 5.52V98.56h1.92l.2.77a3.45 3.45 0 011.16-.74 3.69 3.69 0 011.38-.27 3 3 0 012.46 1.14 4.8 4.8 0 01.9 3.07 5.71 5.71 0 01-.42 2.25 3.39 3.39 0 01-1.2 1.56 3 3 0 01-1.8.57 3.69 3.69 0 01-1.25-.21 2.92 2.92 0 01-1-.57V110zm3.91-10a3 3 0 00-1.57.43v4.21a2.92 2.92 0 001.57.43 1.48 1.48 0 001.32-.61 3.41 3.41 0 00.42-1.92 3.55 3.55 0 00-.41-1.93 1.49 1.49 0 00-1.33-.53zm7.68 3.14a2 2 0 00.64 1.52 2.8 2.8 0 001.81.48 9.67 9.67 0 002.49-.4v1.55a5.45 5.45 0 01-1.33.45 8.53 8.53 0 01-1.61.16 4.09 4.09 0 01-3.1-1.11 5.4 5.4 0 010-6.41 3.8 3.8 0 012.93-1.14 3.26 3.26 0 012.44.87 3.41 3.41 0 01.86 2.49v.8c0 .3-.07.54-.11.74zm1.74-3.28a1.64 1.64 0 00-1.24.47 2.17 2.17 0 00-.52 1.37h3.14v-.28q0-1.48-1.38-1.48zm11.07 6.44a3.42 3.42 0 01-1 .4 5.73 5.73 0 01-1.26.13 3.88 3.88 0 01-3-1.09 4.36 4.36 0 01-1-3.13 4.42 4.42 0 011.08-3.09 4 4 0 013-1.14 4.54 4.54 0 012.16.52v1.55a6.36 6.36 0 00-1.73-.27 2.18 2.18 0 00-1.65.56 2.6 2.6 0 00-.53 1.8v.23a2.61 2.61 0 00.52 1.78 2.09 2.09 0 001.61.57 7 7 0 001.82-.29zm6.85.15a5.35 5.35 0 01-1.93.33 2.74 2.74 0 01-2-.64 2.67 2.67 0 01-.65-2v-3.95h-1.23v-1.34l1.29-.26.36-2.24h1.92v2.21H119v1.73h-2.2v3.84a.89.89 0 00.25.72 1.39 1.39 0 00.87.21A8.25 8.25 0 00119 105zm5.07.45a3.87 3.87 0 01-3-1.15 5.28 5.28 0 010-6.37 4.45 4.45 0 016 0 5.28 5.28 0 010 6.37 3.89 3.89 0 01-3 1.25zm0-1.8c1.12 0 1.68-.84 1.68-2.54s-.56-2.53-1.68-2.53-1.68.85-1.68 2.53.58 2.62 1.68 2.62zm5.88 1.56v-8.1h1.92l.28 1.22a4.45 4.45 0 011.21-1 2.55 2.55 0 011.21-.3 4.85 4.85 0 01.64 0v2.16a4.37 4.37 0 00-1-.1 5 5 0 00-1.94.37v5.78z" fill="#333"/>
    <path d="M73 19h54v54H73z" fill="url(#a)"/>
    <path d="M116.8 56.85l-8.3-7.5a14 14 0 10-4.7 5.2l8.4 7.6a3.5 3.5 0 104.9-5zM83.4 43a12.45 12.45 0 110 .1zm32.7 17.9a2 2 0 01-2.82.17l-.08-.07-8.2-7.3a15.15 15.15 0 002.7-2.9l8.1 7.3a2 2 0 01.3 2.75zM96 32.45a10.4 10.4 0 10.2 0 .67.67 0 00-.2 0zm0 19.4a8.9 8.9 0 119-8.9 8.33 8.33 0 01-.8 3.5l-4.8-.7a4.13 4.13 0 00-1.6-2.1v-2.5a3 3 0 10-3.5-2.4 3.12 3.12 0 002.1 2.4v2a1.55 1.55 0 00-.6-.1 3.94 3.94 0 00-2.5 1l-1.5-1.6a3.29 3.29 0 00.5-2 3.7 3.7 0 00-1.8-3.2l-.8 1.2A2.51 2.51 0 0188.3 43v1.5a3.76 3.76 0 002.3-.8l1.6 1.6a3.27 3.27 0 00-.3 1.6 3.8 3.8 0 003.8 3.8h.1a3.81 3.81 0 003.7-3.3l4 .5a9 9 0 01-7.5 4zm-.2-7.3a2.4 2.4 0 11-2.4 2.39v-.09a2.39 2.39 0 012.4-2.3zm1.5-4.8a1.5 1.5 0 111.5-1.5 1.5 1.5 0 01-1.5 1.5z" fill="#fff"/>
</svg>
