<svg xmlns="http://www.w3.org/2000/svg" width="200" height="128">
    <defs>
        <linearGradient id="a" x1="19.96" y1="661.04" x2="126.03" y2="554.97" gradientTransform="translate(0 -535)" gradientUnits="userSpaceOnUse">
            <stop offset="0" stop-color="#2e27ad"/>
            <stop offset="1" stop-color="#527fff"/>
        </linearGradient>
    </defs>
    <path d="M78.85 90.74l-1-2.95h-4.59l-1 2.95h-1.67l4.1-11.09h1.76l4.09 11.09zm-5.17-4.18h3.73l-1.87-5.44zm18.58 4.18v-5.51a1.83 1.83 0 00-.26-1.18 1.13 1.13 0 00-1-.39 4.49 4.49 0 00-2.35.72 1.94 1.94 0 010 .24v6.12h-1.58v-5.51a1.9 1.9 0 00-.3-1.18 1.13 1.13 0 00-1-.39 4.35 4.35 0 00-2.34.71v6.37h-1.54v-8.12h1.33l.16.82a5.32 5.32 0 013-1.06 2 2 0 012 1.14 5.43 5.43 0 013.17-1.14 2.23 2.23 0 011.7.63 2.49 2.49 0 01.59 1.77v6zm8.68 0l-.12-.84a4.2 4.2 0 01-1.28.77 3.76 3.76 0 01-1.38.27 2.54 2.54 0 01-1.82-.64 2.31 2.31 0 01-.68-1.74 2.28 2.28 0 01.84-1.86 3.34 3.34 0 012.24-.7 8.38 8.38 0 012 .27v-1a1.59 1.59 0 00-.39-1.22 2 2 0 00-1.35-.4 8.71 8.71 0 00-2.81.49V83a5.17 5.17 0 011.41-.47 8.55 8.55 0 011.68-.17 3.29 3.29 0 012.24.64 2.42 2.42 0 01.72 1.92v5.8zm-2.4-1a3.75 3.75 0 002.21-.81V87.3a6.86 6.86 0 00-1.69-.21c-1.21 0-1.81.46-1.81 1.39a1.27 1.27 0 00.33.94 1.37 1.37 0 00.96.32zm5.46 1v-1.22l4.66-5.65h-4.5v-1.25h6.26v1.2l-4.72 5.67h4.76v1.25zm11.52.24a3.63 3.63 0 01-2.85-1.14 5.4 5.4 0 010-6.32 4.13 4.13 0 015.7 0 5.4 5.4 0 010 6.32 3.63 3.63 0 01-2.85 1.16zm0-1.28c1.5 0 2.26-1 2.26-3s-.76-3-2.26-3-2.26 1-2.26 3 .74 3 2.26 3zm11.31 1v-5.39a1.9 1.9 0 00-.34-1.25 1.37 1.37 0 00-1.08-.4 4.45 4.45 0 00-2.48.82v6.26h-1.59v-8.12h1.33l.16.9a5.27 5.27 0 013.2-1.14 2.41 2.41 0 011.78.62 2.46 2.46 0 01.61 1.78v6zm-57.09 16V95.65H74a3.94 3.94 0 012.74.91 3.19 3.19 0 011 2.48 3 3 0 01-.52 1.73 3.58 3.58 0 01-1.49 1.2l2.75 4.77H76l-2.4-4.31H72v4.31zm2.3-6h1.67a1.5 1.5 0 001.68-1.7 1.46 1.46 0 00-1.65-1.66H72zm9.31 2.45a2.06 2.06 0 00.64 1.52 2.82 2.82 0 001.81.48 9.68 9.68 0 002.5-.4v1.55a5.54 5.54 0 01-1.34.45 8.45 8.45 0 01-1.61.16 4.08 4.08 0 01-3.09-1.11 5.35 5.35 0 010-6.41 3.79 3.79 0 012.93-1.14 3.28 3.28 0 012.44.87 3.4 3.4 0 01.85 2.49 5.91 5.91 0 010 .8 5.37 5.37 0 01-.11.74zm1.75-3.28a1.61 1.61 0 00-1.24.47 2.07 2.07 0 00-.52 1.37h3.13v-.28c0-.97-.47-1.49-1.37-1.49zm10.69 6.8l-.2-.72a3.41 3.41 0 01-2.35.89 3.25 3.25 0 01-1.78-.5 3.38 3.38 0 01-1.19-1.47 5.58 5.58 0 01-.42-2.25 5 5 0 01.94-3.18 3 3 0 012.5-1.19 3.47 3.47 0 012.19.72V94.9h2.34v11.84zM92 105.15a2.69 2.69 0 001.47-.45v-4.22a3.07 3.07 0 00-1.58-.4 1.42 1.42 0 00-1.27.63 3.59 3.59 0 00-.41 1.91 3.29 3.29 0 00.44 1.91 1.54 1.54 0 001.35.62zm9.52-.67a.68.68 0 00-.18-.5 2.78 2.78 0 00-.75-.38l-1.25-.5a3.22 3.22 0 01-1.41-.94 2.31 2.31 0 01-.43-1.42 2.1 2.1 0 01.89-1.74 3.74 3.74 0 012.32-.66 5.81 5.81 0 012.48.53v1.55a8.07 8.07 0 00-2.27-.37 2.25 2.25 0 00-1 .16.54.54 0 00-.3.51.56.56 0 00.18.44 2.61 2.61 0 00.78.41l1.21.5a3.39 3.39 0 011.42.93 2.13 2.13 0 01.42 1.37 2.33 2.33 0 01-.9 1.91 3.66 3.66 0 01-2.38.73 6.3 6.3 0 01-2.91-.65v-1.56a9.5 9.5 0 002.9.5c.81-.02 1.19-.3 1.19-.82zm8.89 2.26v-5.36a1.36 1.36 0 00-.28-1 1.15 1.15 0 00-.88-.31 3.21 3.21 0 00-1.75.55v6.08h-2.33V94.9h2.33v4.4a4.93 4.93 0 012.88-1 2.36 2.36 0 011.75.62 2.32 2.32 0 01.62 1.75v6zm5.78-9.44a1.42 1.42 0 01-1-.34 1.18 1.18 0 01-.36-.91 1.17 1.17 0 01.36-.91 1.58 1.58 0 012 0 1.17 1.17 0 01.36.91 1.18 1.18 0 01-.36.91 1.42 1.42 0 01-.99.34zm-1.19 9.44v-8.18h2.34v8.18zm5 0v-6.45h-1.29v-1.44l1.29-.24v-.74a3.4 3.4 0 01.75-2.41 3 3 0 012.26-.79 4.73 4.73 0 01.9.09 4.65 4.65 0 01.81.23v1.59a6.76 6.76 0 00-1.09-.1 1.57 1.57 0 00-1 .24 1.06 1.06 0 00-.28.85v1h2.29v1.73h-2.29v6.45zm11.15-.21a5.35 5.35 0 01-1.93.33 2.74 2.74 0 01-2-.64 2.67 2.67 0 01-.65-2v-3.95h-1.17v-1.42l1.3-.26.35-2.24H129v2.21h2.21v1.73H129v3.84a.89.89 0 00.25.72 1.39 1.39 0 00.87.21 8.25 8.25 0 001.13-.1z" fill="#333"/>
    <path d="M73 19h54v54H73z" fill="url(#a)"/>
    <path d="M100 28c-5.9 0-12.2 1.7-12.2 4.9v26.2c0 3.2 6.3 4.9 12.2 4.9s12.2-1.7 12.2-4.9V32.9c0-3.2-6.3-4.9-12.2-4.9zm0 1.4c6.7 0 10.8 2 10.8 3.5s-4.1 3.5-10.8 3.5-10.8-2-10.8-3.5 4.1-3.5 10.8-3.5zm0 33.2c-6.7 0-10.8-2-10.8-3.5V35.3c2.2 1.7 6.6 2.5 10.8 2.6s8.6-.9 10.8-2.6v23.8c0 1.4-4.1 3.5-10.8 3.5zm6.8-23.4a2.6 2.6 0 00-2.5 2.5 2.39 2.39 0 001.2 2.1l-1.2 2.9h-.3a2.59 2.59 0 00-2.3 1.5l-3.1-.7a2.5 2.5 0 10-4.1 2.1l-1 2.3h-.3a2.6 2.6 0 101.6.6l1-2.3h.3a2.39 2.39 0 002.2-1.3l3.2.7a2.51 2.51 0 105-.4 2.69 2.69 0 00-.9-2l1.2-3a2.5 2.5 0 002.6-2.4v-.1a2.59 2.59 0 00-2.6-2.5zM93.2 55.6a1.1 1.1 0 111-1.2v.1a1.1 1.1 0 01-1 1.1zm2.8-6.8a1.1 1.1 0 111.1-1.1 1.1 1.1 0 01-1.1 1.1zm8 1.5a1.1 1.1 0 111-1.2v.1a1.1 1.1 0 01-1 1.1zm2.8-7.5a1.1 1.1 0 110-2.2h.1a1 1 0 011 1v.11a1.1 1.1 0 01-1.1 1.09z" fill="#fff"/>
</svg>
