<?xml version="1.0" encoding="UTF-8" standalone="no"?>
<!-- Created with Inkscape (http://www.inkscape.org/) -->

<svg
   width="41.775002mm"
   height="36.671001mm"
   viewBox="0 0 41.775002 36.671001"
   version="1.1"
   id="svg81"
   inkscape:version="1.1 (c4e8f9ed74, 2021-05-24)"
   sodipodi:docname="drawing.svg"
   xmlns:inkscape="http://www.inkscape.org/namespaces/inkscape"
   xmlns:sodipodi="http://sodipodi.sourceforge.net/DTD/sodipodi-0.dtd"
   xmlns:xlink="http://www.w3.org/1999/xlink"
   xmlns="http://www.w3.org/2000/svg"
   xmlns:svg="http://www.w3.org/2000/svg">
  <sodipodi:namedview
     id="namedview83"
     pagecolor="#ffffff"
     bordercolor="#666666"
     borderopacity="1.0"
     inkscape:pageshadow="2"
     inkscape:pageopacity="0.0"
     inkscape:pagecheckerboard="0"
     inkscape:document-units="mm"
     showgrid="false"
     width="41.775mm"
     inkscape:zoom="3.1108586"
     inkscape:cx="-39.378196"
     inkscape:cy="135.33241"
     inkscape:window-width="2558"
     inkscape:window-height="1438"
     inkscape:window-x="2422"
     inkscape:window-y="2160"
     inkscape:window-maximized="1"
     inkscape:current-layer="layer1" />
  <defs
     id="defs78">
    <linearGradient
       id="A"
       spreadMethod="pad"
       y2="-0.037"
       x2="0.059"
       y1="0.97430003"
       x1="0.85470003">
      <stop
         offset="0%"
         stop-color="#4f66b9"
         id="stop6" />
      <stop
         offset="1%"
         stop-color="#484fab"
         id="stop8" />
    </linearGradient>
    <linearGradient
       id="B"
       spreadMethod="pad"
       y2="-0.034499999"
       x2="0.14489999"
       y1="0.94279999"
       x1="1.1058">
      <stop
         offset="0%"
         stop-color="#4f66b9"
         id="stop11" />
      <stop
         offset="1%"
         stop-color="#484fab"
         id="stop13" />
    </linearGradient>
    <linearGradient
       id="C"
       spreadMethod="pad"
       y2="0.17569999"
       x2="0.1169"
       y1="0.9454"
       x1="0.63020003">
      <stop
         offset="0%"
         stop-color="#4c68bb"
         id="stop16" />
      <stop
         offset="1%"
         stop-color="#5180c9"
         id="stop18" />
    </linearGradient>
    <linearGradient
       inkscape:collect="always"
       xlink:href="#A"
       id="linearGradient163"
       x1="24.253101"
       y1="21.635641"
       x2="16.315269"
       y2="11.547002"
       spreadMethod="pad"
       gradientTransform="scale(0.87831579,1.1385427)"
       gradientUnits="userSpaceOnUse" />
    <linearGradient
       inkscape:collect="always"
       xlink:href="#B"
       id="linearGradient165"
       x1="47.962429"
       y1="20.174652"
       x2="27.400637"
       y2="-0.7380724"
       spreadMethod="pad"
       gradientTransform="scale(0.7685597,1.3011351)"
       gradientUnits="userSpaceOnUse" />
    <linearGradient
       inkscape:collect="always"
       xlink:href="#C"
       id="linearGradient167"
       x1="22.95388"
       y1="34.435055"
       x2="4.2578673"
       y2="6.4001441"
       spreadMethod="pad"
       gradientTransform="scale(0.92160169,1.0850675)"
       gradientUnits="userSpaceOnUse" />
  </defs>
  <g
     inkscape:label="Layer 1"
     inkscape:groupmode="layer"
     id="layer1">
    <g
       id="use2"
       transform="matrix(0.64850863,0,0,0.70243658,9.457491,-1.5978019e-4)">
      <g
         stroke="none"
         fill-rule="nonzero"
         id="g159">
        <path
           d="m 13.813,13.567 h 1.623 v 4.786 l 4.673,-4.786 h 2.142 l -5.127,5.273 5.451,6.085 h -2.077 l -5.062,-5.679 v 5.679 H 13.813 V 13.567"
           fill="url(#A)"
           id="path153"
           style="fill:url(#linearGradient163)" />
        <path
           d="m 18.896,9.059 7.992,4.614 a 0.44,0.44 0 0 1 0.22,0.382 v 9.228 a 0.44,0.44 0 0 0 0.221,0.382 l 7.132,4.118 a 0.44,0.44 0 0 0 0.661,-0.382 V 9.427 A 0.44,0.44 0 0 0 34.902,9.045 L 19.338,0.06 c -0.294,-0.17 -0.662,0.043 -0.662,0.382 v 8.235 a 0.44,0.44 0 0 0 0.221,0.382"
           fill="url(#B)"
           id="path155"
           style="fill:url(#linearGradient165)" />
        <path
           d="m 25.773,25.596 -7.992,4.614 a 0.44,0.44 0 0 1 -0.441,0 L 8.233,24.952 C 8.097,24.873 8.012,24.727 8.012,24.57 V 14.054 A 0.44,0.44 0 0 1 8.233,13.672 L 16.225,9.058 A 0.44,0.44 0 0 0 16.446,8.677 V 0.442 c 0,-0.339 -0.368,-0.551 -0.662,-0.382 L 0.22,9.046 A 0.44,0.44 0 0 0 0,9.428 v 19.769 c 0,0.158 0.084,0.303 0.22,0.382 l 17.121,9.884 a 0.44,0.44 0 0 0 0.441,0 l 15.564,-8.986 a 0.44,0.44 0 0 0 0,-0.764 l -7.132,-4.118 a 0.44,0.44 0 0 0 -0.441,0"
           fill="url(#C)"
           id="path157"
           style="fill:url(#linearGradient167)" />
      </g>
    </g>
    <g
       id="use4"
       transform="matrix(0.64850863,0,0,0.70243658,-25.922187,19.676658)">
      <g
         stroke="none"
         fill-rule="nonzero"
         id="g171">
        <path
           d="m 42.496,20.778 h 2.679 L 43.83,16.881 Z m 3.725,3.203 -0.708,-2.119 h -3.372 l -0.682,2.119 h -1.487 l 3.086,-8.439 h 1.607 l 3.04,8.439 h -1.486 m 10.06,0 V 19.78 c 0,-0.374 -0.073,-0.641 -0.219,-0.804 -0.146,-0.163 -0.387,-0.243 -0.719,-0.243 a 2.8,2.8 0 0 0 -0.804,0.127 3.14,3.14 0 0 0 -0.743,0.323 v 4.798 H 52.36 V 19.78 c 0,-0.374 -0.073,-0.641 -0.219,-0.804 -0.146,-0.163 -0.387,-0.243 -0.719,-0.243 -0.258,0.003 -0.514,0.042 -0.761,0.116 -0.272,0.076 -0.532,0.189 -0.774,0.335 v 4.798 H 48.45 v -6.197 h 1.194 l 0.133,0.621 c 0.406,-0.276 0.789,-0.479 1.15,-0.608 0.349,-0.128 0.718,-0.193 1.09,-0.195 0.755,0 1.275,0.28 1.548,0.84 0.813,-0.56 1.592,-0.84 2.338,-0.84 0.575,0 1.023,0.155 1.34,0.469 0.317,0.314 0.475,0.765 0.475,1.36 v 4.555 h -1.437 m 4.873,-0.847 a 1.92,1.92 0 0 0 0.724,-0.153 2.81,2.81 0 0 0 0.736,-0.442 v -1.17 c -0.42,-0.088 -0.792,-0.133 -1.105,-0.133 -0.824,0 -1.235,0.328 -1.235,0.986 0,0.284 0.077,0.505 0.238,0.663 0.161,0.158 0.376,0.238 0.663,0.238 z m 1.643,0.84 -0.111,-0.597 a 3.35,3.35 0 0 1 -0.943,0.573 c -0.346,0.138 -0.689,0.207 -1.028,0.207 -0.568,0 -1.028,-0.17 -1.382,-0.512 -0.354,-0.342 -0.531,-0.774 -0.531,-1.327 0,-0.6 0.217,-1.079 0.663,-1.437 0.446,-0.358 1.017,-0.536 1.747,-0.536 0.442,0 0.901,0.061 1.413,0.182 v -0.719 c 0,-0.415 -0.088,-0.702 -0.268,-0.864 -0.18,-0.162 -0.491,-0.243 -0.937,-0.243 -0.633,0 -1.36,0.133 -2.18,0.401 v -1.01 c 0.305,-0.155 0.68,-0.276 1.122,-0.365 0.442,-0.089 0.884,-0.133 1.332,-0.133 0.81,0 1.407,0.163 1.791,0.486 0.384,0.323 0.577,0.832 0.577,1.522 v 4.372 h -1.255 m 2.178,0 v -1.06 l 3.46,-4.043 H 65.1 v -1.105 h 4.883 v 1.059 l -3.458,4.043 h 3.495 v 1.105 h -5.03 m 8.632,-0.949 c 1.023,0 1.534,-0.719 1.534,-2.156 0,-1.428 -0.512,-2.142 -1.534,-2.142 -1.022,0 -1.534,0.714 -1.534,2.142 0,1.437 0.512,2.156 1.534,2.156 z m 0,1.133 c -0.942,0 -1.677,-0.29 -2.204,-0.871 -0.527,-0.581 -0.789,-1.384 -0.789,-2.418 0,-1.034 0.263,-1.835 0.792,-2.41 0.529,-0.575 1.262,-0.864 2.204,-0.864 0.942,0 1.676,0.287 2.204,0.864 0.528,0.577 0.792,1.382 0.792,2.41 0,1.028 -0.265,1.837 -0.792,2.418 -0.527,0.581 -1.262,0.871 -2.204,0.871 m 8.291,-0.182 v -4.104 c 0,-0.398 -0.081,-0.688 -0.243,-0.871 -0.162,-0.183 -0.422,-0.274 -0.779,-0.274 -0.536,0 -1.083,0.177 -1.644,0.535 v 4.713 h -1.437 v -6.198 h 1.194 l 0.146,0.682 c 0.774,-0.575 1.548,-0.864 2.388,-0.864 0.593,0 1.044,0.155 1.352,0.469 0.308,0.314 0.464,0.765 0.464,1.36 v 4.555 H 81.92 m 4.319,-0.001 v -8.44 h 4.981 v 0.646 h -4.263 v 3.095 h 3.654 v 0.646 h -3.654 v 3.397 h 4.263 v 0.646 h -4.981 m 6.418,0 v -8.429 h 0.719 v 3.909 l 3.872,-3.909 h 0.926 l -4.092,4.116 4.422,4.311 h -0.987 l -4.152,-4.043 v 4.043 h -0.719 m 8.196,-4.248 c -0.625,-0.243 -1.083,-0.534 -1.376,-0.87 -0.293,-0.336 -0.439,-0.752 -0.439,-1.249 0,-0.663 0.241,-1.219 0.724,-1.638 0.483,-0.419 1.119,-0.627 1.906,-0.627 a 5.24,5.24 0 0 1 1.128,0.128 c 0.394,0.085 0.765,0.206 1.114,0.359 v 0.621 c -0.829,-0.292 -1.563,-0.439 -2.204,-0.439 -0.626,0 -1.105,0.136 -1.437,0.409 -0.332,0.273 -0.5,0.66 -0.5,1.163 0,0.284 0.051,0.514 0.153,0.688 0.102,0.174 0.268,0.332 0.5,0.475 0.232,0.143 0.562,0.295 0.993,0.457 l 1.304,0.5 c 0.586,0.227 1.01,0.505 1.279,0.834 0.269,0.329 0.401,0.741 0.401,1.236 a 2.18,2.18 0 0 1 -0.797,1.753 c -0.531,0.447 -1.233,0.67 -2.1,0.67 -0.901,0 -1.705,-0.17 -2.41,-0.511 v -0.621 c 0.851,0.31 1.636,0.464 2.35,0.464 0.663,0 1.212,-0.158 1.614,-0.475 0.402,-0.317 0.602,-0.747 0.602,-1.291 0.006,-0.316 -0.112,-0.622 -0.329,-0.852 -0.219,-0.235 -0.573,-0.447 -1.059,-0.633 l -1.413,-0.548"
           fill="#232a3a"
           id="path169" />
      </g>
    </g>
  </g>
</svg>
