<svg xmlns="http://www.w3.org/2000/svg" width="200" height="128">
	<defs>
		<linearGradient id="a" x1="61.82" y1="22.82" x2="138.18" y2="99.18" gradientTransform="matrix(1 0 0 -1 0 107)" gradientUnits="userSpaceOnUse">
			<stop offset="0" stop-color="#bd0816"/>
			<stop offset="1" stop-color="#ff5252"/>
		</linearGradient>
	</defs>
	<path d="m78.85 90.74-1-2.95h-4.59l-1 2.95h-1.67l4.1-11.09h1.76l4.09 11.09zm-5.17-4.18h3.73l-1.87-5.44zm18.58 4.18v-5.51a1.83 1.83 0 0 0-.26-1.18 1.13 1.13 0 0 0-1-.39 4.49 4.49 0 0 0-2.35.72 1.94 1.94 0 0 1 0 .24v6.12h-1.58v-5.51a1.9 1.9 0 0 0-.3-1.18 1.13 1.13 0 0 0-1-.39 4.35 4.35 0 0 0-2.34.71v6.37h-1.54v-8.12h1.33l.16.82a5.32 5.32 0 0 1 3-1.06 2 2 0 0 1 2 1.14 5.43 5.43 0 0 1 3.17-1.14 2.23 2.23 0 0 1 1.7.63 2.49 2.49 0 0 1 .59 1.77v6zm8.68 0-.12-.84a4.2 4.2 0 0 1-1.28.77 3.76 3.76 0 0 1-1.38.27 2.54 2.54 0 0 1-1.82-.64 2.31 2.31 0 0 1-.68-1.74 2.28 2.28 0 0 1 .84-1.86 3.34 3.34 0 0 1 2.24-.7 8.38 8.38 0 0 1 2 .27v-1a1.59 1.59 0 0 0-.39-1.22 2 2 0 0 0-1.35-.4 8.71 8.71 0 0 0-2.81.49V83a5.17 5.17 0 0 1 1.41-.47 8.55 8.55 0 0 1 1.68-.17 3.29 3.29 0 0 1 2.24.64 2.42 2.42 0 0 1 .72 1.92v5.8zm-2.4-1a3.75 3.75 0 0 0 2.21-.81V87.3a6.86 6.86 0 0 0-1.69-.21c-1.21 0-1.81.46-1.81 1.39a1.27 1.27 0 0 0 .33.94 1.37 1.37 0 0 0 .96.32zm5.46 1v-1.22l4.66-5.65h-4.5v-1.25h6.26v1.2l-4.72 5.67h4.76v1.25zm11.52.24a3.63 3.63 0 0 1-2.85-1.14 5.4 5.4 0 0 1 0-6.32 4.13 4.13 0 0 1 5.7 0 5.4 5.4 0 0 1 0 6.32 3.63 3.63 0 0 1-2.85 1.16zm0-1.28c1.5 0 2.26-1 2.26-3s-.76-3-2.26-3-2.26 1-2.26 3 .74 3 2.26 3zm11.31 1v-5.39a1.9 1.9 0 0 0-.34-1.25 1.37 1.37 0 0 0-1.08-.4 4.45 4.45 0 0 0-2.48.82v6.26h-1.59v-8.12h1.33l.16.9a5.27 5.27 0 0 1 3.2-1.14 2.41 2.41 0 0 1 1.78.62 2.46 2.46 0 0 1 .61 1.78v6zM65.72 105a9 9 0 0 0 1.18-.08v-2.7h-2.08v-1.73h4.29v5.55a6.82 6.82 0 0 1-1.79.63 10 10 0 0 1-2.11.22 5.27 5.27 0 0 1-4-1.45 5.73 5.73 0 0 1-1.4-4.15A6 6 0 0 1 61.27 97a5.55 5.55 0 0 1 4.19-1.5 7.36 7.36 0 0 1 3.25.66V98a10 10 0 0 0-3-.53 3.45 3.45 0 0 0-2.61.89 4 4 0 0 0-.83 2.79v.29a4 4 0 0 0 .82 2.76 3.48 3.48 0 0 0 2.63.8zm11 1.72-.22-.87a4.78 4.78 0 0 1-3 1.11 2.23 2.23 0 0 1-1.7-.65 2.53 2.53 0 0 1-.6-1.79v-6h2.33v5.33c0 .86.38 1.29 1.12 1.29a3 3 0 0 0 1.63-.51v-6.07h2.34v8.18zm8.85 0-.19-.72a4 4 0 0 1-1.15.71A3.41 3.41 0 0 1 83 107a2.66 2.66 0 0 1-1.9-.67 2.36 2.36 0 0 1-.71-1.79 2.45 2.45 0 0 1 .38-1.35 2.6 2.6 0 0 1 1.11-.92 3.86 3.86 0 0 1 1.69-.34 7.8 7.8 0 0 1 1.7.21v-.8a1.3 1.3 0 0 0-.31-1 1.71 1.71 0 0 0-1.12-.27 9.72 9.72 0 0 0-2.89.49V99a6.19 6.19 0 0 1 1.49-.49 9.13 9.13 0 0 1 1.82-.18 3.63 3.63 0 0 1 2.41.66 2.63 2.63 0 0 1 .76 2.09v5.67zm-1.94-1.32a2.13 2.13 0 0 0 .83-.17 3.41 3.41 0 0 0 .79-.48v-1.39a7.61 7.61 0 0 0-1.27-.12c-.92 0-1.39.38-1.39 1.12a1 1 0 0 0 .27.77 1.06 1.06 0 0 0 .81.29zm6 1.32v-8.16h1.92l.28 1.22a4.45 4.45 0 0 1 1.21-1 2.55 2.55 0 0 1 1.21-.3 4.85 4.85 0 0 1 .64 0v2.16a4.37 4.37 0 0 0-1-.1A5 5 0 0 0 92 101v5.78zm12 0-.2-.72a3.41 3.41 0 0 1-2.35.89 3.19 3.19 0 0 1-1.77-.5 3.33 3.33 0 0 1-1.2-1.47 5.58 5.58 0 0 1-.42-2.25 5.05 5.05 0 0 1 .94-3.18 3.05 3.05 0 0 1 2.5-1.19 3.47 3.47 0 0 1 2.19.72V94.9h2.34v11.84zm-1.78-1.59a2.69 2.69 0 0 0 1.47-.45v-4.22a3 3 0 0 0-1.58-.4 1.42 1.42 0 0 0-1.27.63 3.59 3.59 0 0 0-.41 1.91 3.29 3.29 0 0 0 .44 1.91 1.54 1.54 0 0 0 1.38.64zm6.21 1.59V95.65h4a5 5 0 0 1 3.82 1.43 7 7 0 0 1 0 8.21 4.9 4.9 0 0 1-3.77 1.45zm2.4-9.24v7.38h1.37q2.9 0 2.9-3.54V101c0-2.34-1-3.52-2.91-3.52zm14.25 9.24-.22-.87a4.78 4.78 0 0 1-3 1.11 2.21 2.21 0 0 1-1.69-.65 2.49 2.49 0 0 1-.61-1.79v-6h2.34v5.33c0 .86.37 1.29 1.12 1.29a3 3 0 0 0 1.63-.51v-6.07h2.33v8.18zm9-.21a5.41 5.41 0 0 1-1.94.33 2.77 2.77 0 0 1-2-.64 2.66 2.66 0 0 1-.64-2v-3.95h-1.24v-1.4l1.3-.26.35-2.24h1.92v2.21h2.21v1.73h-2.21v3.84a.89.89 0 0 0 .26.72 1.37 1.37 0 0 0 .86.21 8.52 8.52 0 0 0 1.14-.1zm4.09.33-3.23-8.3h2.48l1.83 6.11 1.72-6.11h2.42l-3.46 9.28a4.19 4.19 0 0 1-1.13 1.82 2.53 2.53 0 0 1-1.7.56 4.79 4.79 0 0 1-1.55-.25v-1.59a7.76 7.76 0 0 0 .91.05 1.54 1.54 0 0 0 1-.31 2.37 2.37 0 0 0 .63-1.08z" fill="#333"/>
	<path data-name="Red Gradient" fill="url(#a)" d="M73 19h54v54H73z"/>
	<path d="M103.43 64h-6.86a.75.75 0 0 1-.53-.22.68.68 0 0 1-.19-.54L96 61a15.54 15.54 0 0 1-3.72-1.54l-1.51 1.69a.72.72 0 0 1-.52.23.73.73 0 0 1-.53-.2l-4.88-4.88a.73.73 0 0 1-.2-.53.72.72 0 0 1 .23-.52l1.69-1.51A15.68 15.68 0 0 1 85 50l-2.27.13a.68.68 0 0 1-.54-.19.75.75 0 0 1-.22-.53v-6.84a.75.75 0 0 1 .22-.53.68.68 0 0 1 .54-.19L85 42a15.07 15.07 0 0 1 1.54-3.71l-1.71-1.52a.72.72 0 0 1-.23-.52.73.73 0 0 1 .2-.53l4.86-4.86a.73.73 0 0 1 .53-.2.72.72 0 0 1 .52.23l1.52 1.7A15.44 15.44 0 0 1 96 31l-.13-2.28a.68.68 0 0 1 .19-.54.75.75 0 0 1 .53-.22h6.86a.75.75 0 0 1 .53.22.68.68 0 0 1 .19.54L104 31a15.47 15.47 0 0 1 3.71 1.54l1.52-1.71a.72.72 0 0 1 .52-.23.75.75 0 0 1 .53.2l4.86 4.86a.73.73 0 0 1 .2.53.72.72 0 0 1-.23.52l-1.7 1.51A15.71 15.71 0 0 1 115 42l2.27-.13a.68.68 0 0 1 .54.19.75.75 0 0 1 .22.53v6.86a.75.75 0 0 1-.22.53.76.76 0 0 1-.54.19L115 50a15.37 15.37 0 0 1-1.54 3.72l1.7 1.51a.72.72 0 0 1 .23.52.73.73 0 0 1-.2.53l-4.86 4.86a.73.73 0 0 1-.53.2.72.72 0 0 1-.52-.23l-1.5-1.69A15.61 15.61 0 0 1 104 61l.13 2.26a.68.68 0 0 1-.19.54.75.75 0 0 1-.51.2zm-6.1-1.44h5.34l-.15-2.1a.73.73 0 0 1 .56-.72 13.91 13.91 0 0 0 4.42-1.86.72.72 0 0 1 .92.13l1.4 1.57 3.78-3.78-1.6-1.44a.73.73 0 0 1-.14-.86 13.73 13.73 0 0 0 1.81-4.39.73.73 0 0 1 .72-.56l2.11.12v-5.34l-2.07.15a.73.73 0 0 1-.72-.56 14.21 14.21 0 0 0-1.85-4.42.72.72 0 0 1 .13-.92l1.58-1.4-3.78-3.78-1.42 1.6a.72.72 0 0 1-.88.14 14 14 0 0 0-4.38-1.81.73.73 0 0 1-.56-.72l.12-2.12h-5.34l.15 2.09a.73.73 0 0 1-.56.72 13.81 13.81 0 0 0-4.41 1.84.72.72 0 0 1-.92-.13l-1.44-1.58-3.78 3.78L88 37.63a.71.71 0 0 1 .17.88 14 14 0 0 0-1.82 4.38.73.73 0 0 1-.72.56l-2.11-.12v5.34l2.07-.15a.71.71 0 0 1 .72.56 14 14 0 0 0 1.86 4.42.72.72 0 0 1-.13.92l-1.57 1.44 3.78 3.78 1.4-1.57a.73.73 0 0 1 .9-.19 14 14 0 0 0 4.39 1.82.73.73 0 0 1 .56.72zm2.67-5.63c-8.54 0-8.64-9.09-8.64-9.18v-9.31a.72.72 0 0 1 .45-.66l7.92-3.27a.64.64 0 0 1 .54 0l7.92 3.27a.72.72 0 0 1 .45.66v9.36c0 .06-.1 9.13-8.64 9.13zm-7.2-18v8.82c0 .32.11 7.74 7.2 7.74s7.2-7.4 7.2-7.69V39l-7.2-3zM100 54c-4.57 0-5.7-5.65-5.76-5.89v-7.27a.72.72 0 0 1 .45-.67l5-2a.72.72 0 0 1 .54 0l5 2a.72.72 0 0 1 .45.67v7.24c-.06.25-1.19 5.89-5.76 5.89zm.72-14.07v12.53c2.62-.56 3.49-4.08 3.6-4.59v-6.55zm-5 8c.12.5 1 4 3.6 4.58V39.88l-3.6 1.44z" fill="#fff"/>
</svg>
