<svg xmlns="http://www.w3.org/2000/svg" width="200" height="128">
    <defs>
        <linearGradient id="linear-gradient" x1="-122.53" y1="300.64" x2="-121.85" y2="301.31" gradientTransform="matrix(80 0 0 -80 9875 24124)" gradientUnits="userSpaceOnUse">
            <stop offset="0" stop-color="#2e27ad"/>
            <stop offset="1" stop-color="#527fff"/>
        </linearGradient>
    </defs>
    <path fill="#333333" d="M74.69 78.55l-4.1 11.09h1.68l1-3h4.56l1 3h1.69l-4.07-11.09zm-1 6.91L75.54 80l1.87 5.44zM83.47 83.27a4.35 4.35 0 012.34-.71 1.13 1.13 0 011 .39 1.9 1.9 0 01.3 1.18v5.51h1.59v-6.12a1.94 1.94 0 000-.24 4.49 4.49 0 012.3-.72 1.13 1.13 0 011 .44 1.83 1.83 0 01.31 1.18v5.51h1.58v-6a2.49 2.49 0 00-.59-1.77 2.23 2.23 0 00-1.7-.63 5.43 5.43 0 00-3.17 1.14 2 2 0 00-2-1.14 5.32 5.32 0 00-3 1.06l-.16-.82h-1.38v8.12h1.58zM99.54 89.57a4.2 4.2 0 001.28-.77l.12.84h1.32v-5.8a2.42 2.42 0 00-.72-1.92 3.29 3.29 0 00-2.24-.64 8.55 8.55 0 00-1.68.17 5.17 5.17 0 00-1.41.47V83a8.71 8.71 0 012.79-.45 2 2 0 011.34.35 1.59 1.59 0 01.39 1.22v1a8.38 8.38 0 00-2-.27 3.34 3.34 0 00-2.24.7 2.28 2.28 0 00-.84 1.86 2.31 2.31 0 00.68 1.74 2.54 2.54 0 001.82.64 3.76 3.76 0 001.39-.22zm-2.29-2.19c0-.93.6-1.39 1.81-1.39a6.86 6.86 0 011.69.21v1.63a3.75 3.75 0 01-2.21.81 1.37 1.37 0 01-1-.32 1.27 1.27 0 01-.29-.94zM110.46 88.39h-4.76l4.72-5.67v-1.2h-6.26v1.25h4.5L104 88.42v1.22h6.46v-1.25zM119.39 85.57a4.56 4.56 0 00-1-3.15 4.13 4.13 0 00-5.7 0 5.4 5.4 0 000 6.32 4.13 4.13 0 005.7 0 4.58 4.58 0 001-3.17zm-3.87 3c-1.5 0-2.26-1-2.26-3s.76-3 2.26-3 2.26 1 2.26 3-.78 3.03-2.26 3.03zM126.49 83a1.9 1.9 0 01.34 1.25v5.43h1.59v-6a2.46 2.46 0 00-.61-1.78 2.41 2.41 0 00-1.78-.62 5.27 5.27 0 00-3.2 1.14l-.16-.9h-1.33v8.12h1.59v-6.26a4.45 4.45 0 012.48-.82 1.37 1.37 0 011.08.44zM72.13 94.55h-2.71l-4.01 4.75v-4.75h-2.4v11.09h2.4v-5.27l4.24 5.27h2.86l-4.89-5.94 4.51-5.15zM76.85 97.22a3.79 3.79 0 00-2.93 1.14 5.4 5.4 0 000 6.41 4.08 4.08 0 003.08 1.11 8.37 8.37 0 001.61-.16 5.39 5.39 0 001.34-.45v-1.55a9.68 9.68 0 01-2.5.4 2.77 2.77 0 01-1.8-.48 2 2 0 01-.65-1.52h5c0-.2.07-.44.11-.74s.05-.56.05-.8a3.41 3.41 0 00-.86-2.49 3.26 3.26 0 00-2.45-.87zm1.3 3.46H75a2.12 2.12 0 01.52-1.37 1.62 1.62 0 011.24-.47q1.38 0 1.38 1.56zM85.19 103.57l-1.83-6.11h-2.48l3.23 8.3v.18a2.36 2.36 0 01-.62 1.08 1.54 1.54 0 01-1 .31 7.65 7.65 0 01-.91 0v1.59a4.79 4.79 0 001.55.25 2.54 2.54 0 001.7-.56 4.19 4.19 0 001.13-1.82l3.46-9.28h-2.51zM94.29 101l-1.22-.5a2.65 2.65 0 01-.77-.41.59.59 0 01.12-1 2.25 2.25 0 011-.16 8.07 8.07 0 012.27.37v-1.55a5.87 5.87 0 00-2.48-.53 3.77 3.77 0 00-2.33.66 2.12 2.12 0 00-.88 1.76 2.24 2.24 0 00.43 1.42 3.22 3.22 0 001.41.94l1.25.5a2.53 2.53 0 01.74.38.68.68 0 01.18.5c0 .53-.38.8-1.15.8a9.45 9.45 0 01-2.89-.5v1.56a6.3 6.3 0 002.91.65 3.68 3.68 0 002.38-.73 2.33 2.33 0 00.9-1.91 2.13 2.13 0 00-.42-1.37 3.46 3.46 0 00-1.45-.88zM102.29 97.22a3.77 3.77 0 00-1.39.27 3.55 3.55 0 00-1.16.74l-.19-.77h-1.92v11.47H100V105a2.92 2.92 0 001 .57 3.67 3.67 0 001.24.21 3 3 0 001.81-.57 3.39 3.39 0 001.2-1.56 5.71 5.71 0 00.42-2.25 4.74 4.74 0 00-.91-3.07 3 3 0 00-2.47-1.11zm.57 6.22a1.51 1.51 0 01-1.32.61 2.92 2.92 0 01-1.57-.43v-4.21a3 3 0 011.57-.43 1.47 1.47 0 011.32.61 3.45 3.45 0 01.42 1.93 3.41 3.41 0 01-.42 1.92zM110.83 97.22a9.21 9.21 0 00-1.82.18 6.34 6.34 0 00-1.49.49v1.55a9.78 9.78 0 012.9-.49 1.75 1.75 0 011.12.27 1.34 1.34 0 01.3 1v.8a7.72 7.72 0 00-1.7-.21 3.86 3.86 0 00-1.69.34 2.6 2.6 0 00-1.11.92 2.45 2.45 0 00-.38 1.35 2.36 2.36 0 00.71 1.79 2.66 2.66 0 001.9.67 3.41 3.41 0 001.25-.26 3.84 3.84 0 001.15-.71l.19.72H114V100a2.63 2.63 0 00-.76-2.09 3.63 3.63 0 00-2.41-.69zm1 6.45a3.21 3.21 0 01-.79.48 2.09 2.09 0 01-.83.17 1 1 0 01-1-1c0-.74.47-1.12 1.4-1.12a7.59 7.59 0 011.26.12zM118.68 103.45a2.56 2.56 0 01-.52-1.78v-.23a2.6 2.6 0 01.53-1.8 2.18 2.18 0 011.65-.56 6.24 6.24 0 011.72.27V97.8a4.54 4.54 0 00-2.16-.52 4 4 0 00-3 1.14 5.21 5.21 0 00-.06 6.3 3.92 3.92 0 003 1.09 5.73 5.73 0 001.26-.13 3.53 3.53 0 001-.4v-1.55a7 7 0 01-1.82.29 2.08 2.08 0 01-1.6-.57zM127.18 97.22a3.78 3.78 0 00-2.92 1.14 5.38 5.38 0 000 6.41 4.11 4.11 0 003.1 1.11 8.45 8.45 0 001.61-.16 5.31 5.31 0 001.33-.45v-1.55a9.67 9.67 0 01-2.49.4 2.8 2.8 0 01-1.81-.48 2 2 0 01-.64-1.52h5c0-.2.08-.44.11-.74s0-.56 0-.8a3.37 3.37 0 00-.86-2.49 3.26 3.26 0 00-2.43-.87zm1.3 3.46h-3.14a2.17 2.17 0 01.52-1.37 1.64 1.64 0 011.24-.47q1.38 0 1.38 1.56zM137.46 101.88a3.35 3.35 0 00-1.41-.93l-1.22-.5a2.65 2.65 0 01-.77-.41.59.59 0 01.12-1 2.25 2.25 0 011-.16 8.07 8.07 0 012.27.37v-1.5a5.87 5.87 0 00-2.48-.53 3.77 3.77 0 00-2.33.66 2.12 2.12 0 00-.87 1.76 2.24 2.24 0 00.43 1.42 3.22 3.22 0 001.41.94l1.25.5a2.53 2.53 0 01.74.38.68.68 0 01.18.5c0 .53-.38.8-1.15.8a9.45 9.45 0 01-2.89-.5v1.56a6.3 6.3 0 002.91.65 3.63 3.63 0 002.37-.73 2.31 2.31 0 00.91-1.91 2.08 2.08 0 00-.47-1.37z"/>
    <path fill="url(#linear-gradient)" d="M73 19h54v54H73z" id="Rectangle"/>
    <path id="Amazon-Keyspaces-Service_Icon_64_Squid" data-name="Amazon-Keyspaces-Service Icon 64 Squid" d="M118.92 38.59l-2.18.51 1.7 1.91a1.59 1.59 0 01-.51.61 1.43 1.43 0 01-.72.29l-1.32-2.28-1.32 2.28a1.43 1.43 0 01-.72-.29 1.79 1.79 0 01-.51-.61L115 39.1l-2.17-.51a1.37 1.37 0 010-.3 1.56 1.56 0 01.49-1.14l2 1-.26-2.43a1.94 1.94 0 011.59 0l-.27 2.43 2-1a1.56 1.56 0 01.49 1.14 2.13 2.13 0 010 .3zm-10.19 15.7a10.76 10.76 0 003.37-.61V55a8.24 8.24 0 01-3.46.77 6.22 6.22 0 01-4.87-1.84 7.85 7.85 0 01-1.66-5.41 7.85 7.85 0 011.69-5.41 6.29 6.29 0 014.9-1.86 8.09 8.09 0 013.24.66v1.3a10.19 10.19 0 00-3.16-.5A4.82 4.82 0 00105 44a6.44 6.44 0 00-1.18 4.31v.33a6.4 6.4 0 001.18 4.28 4.72 4.72 0 003.74 1.37zm-14.8-26.51c7.26 0 12.15 2.09 12.15 4s-4.89 4.05-12.15 4.05-11.48-2.06-11.48-4.05 4.29-4 11.48-4zm12.15 33.07c0 2-4.89 4.05-12.15 4.05-5.65 0-11.48-1.51-11.48-4.05V54c2 1.73 6.13 2.78 11.48 2.78a31.38 31.38 0 007.58-.85l-.33-1.31a30.16 30.16 0 01-7.25.81c-5.65 0-11.48-1.51-11.48-4v-6.92c2 1.75 6.19 2.84 11.48 2.84a31.56 31.56 0 007.59-.86l-.34-1.31a29.75 29.75 0 01-7.25.82c-7.19 0-11.48-2.06-11.48-4v-7.61c2 1.74 6.19 2.84 11.48 2.84 4.89 0 9.84-1 12.15-2.91v2.23h1.35v-4.72c0-3.55-6.8-5.4-13.5-5.4-7.56 0-12.83 2.22-12.83 5.4v29c0 3.23 5.15 5.4 12.83 5.4 6.7 0 13.5-1.85 13.5-5.4V59.5h-1.35z" fill="#fff" fill-rule="evenodd"/>
</svg>
