<svg xmlns="http://www.w3.org/2000/svg" width="200" height="128">
    <defs>
        <linearGradient id="a" x1="29.03" y1="-456.03" x2="-77.03" y2="-349.97" gradientTransform="rotate(180 24.5 -165)" gradientUnits="userSpaceOnUse">
            <stop offset="0" stop-color="#1b660f"/>
            <stop offset="1" stop-color="#6cae3e"/>
        </linearGradient>
    </defs>
    <path d="M91.65 90.74l-1-2.95h-4.59l-1 2.95h-1.67l4.1-11.09h1.76l4.09 11.09zm-5.17-4.18h3.73l-1.87-5.44zm15.84 4.18l-2.1-8.69-2.11 8.69h-1.82l-3.23-11.09h1.77l2.39 9.29 2.12-9h1.8l2.12 9 2.4-9.31h1.72l-3.24 11.09zm8.75-5.27a4.51 4.51 0 01-1.9-1.2 2.63 2.63 0 01-.59-1.77 3 3 0 01.44-1.6 3.09 3.09 0 011.29-1.09 4.52 4.52 0 012-.4 8.39 8.39 0 013 .57v1.3a10 10 0 00-2.85-.5 2.68 2.68 0 00-1.61.43 1.4 1.4 0 00-.56 1.21 1.33 1.33 0 00.38 1 4.07 4.07 0 001.42.76l1.46.55a4.31 4.31 0 011.86 1.16 2.61 2.61 0 01.57 1.75 3 3 0 01-1.1 2.45 4.5 4.5 0 01-2.95.91 7.29 7.29 0 01-3.2-.66v-1.27a9.87 9.87 0 003.17.56 2.85 2.85 0 001.78-.49 1.59 1.59 0 00.65-1.35 1.36 1.36 0 00-.37-1 3.73 3.73 0 00-1.28-.75zm-71.41 16.42a4.7 4.7 0 01-2-1.29 3.22 3.22 0 01.49-4.33 4.58 4.58 0 013-.89 8.56 8.56 0 013.07.57v1.83a9.74 9.74 0 00-2.88-.48c-1.26 0-1.88.4-1.88 1.21a.93.93 0 00.32.74 4.29 4.29 0 001.23.61l1.18.43a5.13 5.13 0 012.12 1.27 2.81 2.81 0 01.63 1.9 3.17 3.17 0 01-1.18 2.6 5.07 5.07 0 01-3.25 1 9.86 9.86 0 01-1.79-.17 6.38 6.38 0 01-1.54-.46v-1.82a12.4 12.4 0 001.72.38 10.08 10.08 0 001.64.15 2.6 2.6 0 001.46-.35 1.11 1.11 0 00.51-1 1 1 0 00-.31-.78 3.93 3.93 0 00-1.26-.64zm11.9 4.64a5.37 5.37 0 01-1.94.33 2.73 2.73 0 01-2-.64 2.67 2.67 0 01-.65-2v-3.95h-1.23v-1.42l1.26-.26.36-2.24h1.92v2.21h2.2v1.73h-2.2v3.84a.89.89 0 00.25.72 1.39 1.39 0 00.87.21 8.39 8.39 0 001.13-.1zm5.07.45a3.87 3.87 0 01-3-1.15 5.28 5.28 0 010-6.37 4.45 4.45 0 016 0 5.28 5.28 0 010 6.37 3.91 3.91 0 01-3 1.17zm0-1.8c1.12 0 1.68-.84 1.68-2.54s-.56-2.53-1.68-2.53S55 101 55 102.64s.51 2.54 1.63 2.54zm5.88 1.56v-8.18h1.92l.28 1.22a4.45 4.45 0 011.21-1 2.55 2.55 0 011.21-.3 4.85 4.85 0 01.64 0v2.16a4.37 4.37 0 00-1-.1 5 5 0 00-1.94.37v5.78zm11.16 0l-.19-.72a3.91 3.91 0 01-1.14.71 3.46 3.46 0 01-1.26.26 2.66 2.66 0 01-1.9-.67 2.58 2.58 0 01-.32-3.14 2.52 2.52 0 011.1-.92 3.91 3.91 0 011.7-.34 7.71 7.71 0 011.69.21v-.8a1.34 1.34 0 00-.3-1 1.73 1.73 0 00-1.12-.27 9.78 9.78 0 00-2.9.49V99a6.34 6.34 0 011.49-.49 9.28 9.28 0 011.82-.18 3.62 3.62 0 012.41.66 2.63 2.63 0 01.76 2.09v5.67zm-1.93-1.32a2.08 2.08 0 00.82-.17 3.21 3.21 0 00.79-.48v-1.39a7.59 7.59 0 00-1.26-.12c-.93 0-1.39.38-1.39 1.12a.94.94 0 001 1zm11 .32a3.08 3.08 0 01-2.14.82 2.91 2.91 0 01-2.38-1.11 4.63 4.63 0 01-.88-3 4.7 4.7 0 01.89-3 2.9 2.9 0 012.4-1.14 3.38 3.38 0 011.27.24 3.33 3.33 0 011 .7l.18-.7H85v7.54a4.14 4.14 0 01-1.09 3 4.09 4.09 0 01-3 1.08 6.54 6.54 0 01-2.94-.68V108a9.34 9.34 0 002.73.49 2.06 2.06 0 001.53-.48 2.23 2.23 0 00.47-1.6zm-1.42-.91a2.43 2.43 0 00.74-.12 2.53 2.53 0 00.68-.33v-3.93a2.84 2.84 0 00-1.53-.4c-1 0-1.54.79-1.54 2.37a3.25 3.25 0 00.4 1.82 1.41 1.41 0 001.22.59zm7.68-1.61a2 2 0 00.64 1.52 2.8 2.8 0 001.81.48 9.61 9.61 0 002.49-.4v1.55a5.31 5.31 0 01-1.33.45A8.45 8.45 0 0191 107a4.11 4.11 0 01-3.1-1.11 5.38 5.38 0 010-6.41 3.78 3.78 0 012.92-1.14 3.26 3.26 0 012.44.87 3.37 3.37 0 01.86 2.49c0 .24 0 .5-.05.8s-.07.54-.11.74zm1.74-3.28a1.64 1.64 0 00-1.24.47 2.17 2.17 0 00-.52 1.37h3.14v-.28q0-1.56-1.38-1.56zm15.11 5.06a9.07 9.07 0 001.18-.08v-2.7H105v-1.73h4.29v5.55a6.82 6.82 0 01-1.79.63 10 10 0 01-2.11.22 5.31 5.31 0 01-4-1.45 5.77 5.77 0 01-1.4-4.15 6 6 0 011.4-4.29 5.59 5.59 0 014.2-1.5 7.39 7.39 0 013.25.66V98a10.1 10.1 0 00-3-.53 3.42 3.42 0 00-2.61.89 4 4 0 00-.83 2.79v.29a3.91 3.91 0 00.82 2.76 3.46 3.46 0 002.63.8zm10.29 1.72l-.2-.72a3.91 3.91 0 01-1.14.71 3.42 3.42 0 01-1.26.26 2.62 2.62 0 01-1.89-.67 2.32 2.32 0 01-.71-1.79 2.37 2.37 0 01.38-1.35 2.57 2.57 0 011.1-.92 3.91 3.91 0 011.7-.34 7.8 7.8 0 011.7.21v-.8a1.3 1.3 0 00-.31-1 1.71 1.71 0 00-1.12-.27 9.72 9.72 0 00-2.89.49V99a6.25 6.25 0 011.5-.5 9.31 9.31 0 011.83-.18 3.63 3.63 0 012.41.66 2.67 2.67 0 01.76 2.09v5.67zm-1.94-1.32a2 2 0 00.82-.17 3.27 3.27 0 00.8-.48v-1.39a7.61 7.61 0 00-1.27-.12c-.93 0-1.39.38-1.39 1.12a.94.94 0 001 1zm10.85 1.11a5.41 5.41 0 01-1.94.33 2.77 2.77 0 01-2-.64 2.66 2.66 0 01-.64-2v-3.95h-1.24v-1.4l1.3-.26.35-2.24h1.92v2.21h2.2v1.73h-2.21v3.84a.89.89 0 00.26.72 1.37 1.37 0 00.86.21 8.52 8.52 0 001.14-.1zm3.18-3.31a2 2 0 00.64 1.52 2.82 2.82 0 001.81.48 9.74 9.74 0 002.5-.4v1.55a5.54 5.54 0 01-1.34.45 8.45 8.45 0 01-1.61.16 4.08 4.08 0 01-3.09-1.11 5.35 5.35 0 010-6.41 3.79 3.79 0 012.93-1.14 3.28 3.28 0 012.44.87 3.4 3.4 0 01.85 2.49 5.91 5.91 0 010 .8c0 .3-.07.54-.11.74zm1.77-3.26a1.61 1.61 0 00-1.24.47 2.07 2.07 0 00-.52 1.37h3.13v-.28c-.02-1.04-.48-1.56-1.37-1.56zm11.84 6.8l-1.43-5.74-1.41 5.74h-2.25l-2.61-8.18h2.46l1.36 5.9 1.48-5.9h2.09l1.51 5.92 1.28-5.92h2.4l-2.63 8.18zm10.78 0l-.19-.72a3.84 3.84 0 01-1.15.71 3.41 3.41 0 01-1.28.27 2.66 2.66 0 01-1.9-.67 2.36 2.36 0 01-.71-1.79 2.45 2.45 0 01.38-1.35 2.6 2.6 0 011.11-.92 3.86 3.86 0 011.69-.34 7.72 7.72 0 011.7.21v-.8a1.34 1.34 0 00-.3-1 1.75 1.75 0 00-1.12-.27 9.78 9.78 0 00-2.9.49V99a6.19 6.19 0 011.49-.49 9.13 9.13 0 011.82-.18 3.63 3.63 0 012.41.66 2.63 2.63 0 01.76 2.09v5.67zm-1.94-1.32a2.13 2.13 0 00.83-.17 3.41 3.41 0 00.79-.48v-1.39a7.59 7.59 0 00-1.26-.12c-.93 0-1.4.38-1.4 1.12a1 1 0 001 1zm7.84 1.44l-3.23-8.3h2.48l1.83 6.11 1.72-6.11h2.42l-3.46 9.28a4.19 4.19 0 01-1.13 1.82 2.54 2.54 0 01-1.7.56 4.79 4.79 0 01-1.55-.25v-1.59a7.65 7.65 0 00.91.05 1.54 1.54 0 001-.31 2.46 2.46 0 00.63-1.08z" fill="#333"/>
    <path d="M73 19h54v54H73z" fill="url(#a)"/>
    <path d="M118 44.4c0 3.7-2 6-5.8 6.4v-1.4c2.9-.4 4.3-2.1 4.4-5s-1.7-4.7-5.1-5.4c-.3-.1-.6-.4-.6-.6-.1-1.9-.9-3.2-2.3-3.7a2.7 2.7 0 00-3.1 1.1c-.1.1-.2.2-.3.2a1 1 0 01-1-.4A8.37 8.37 0 00102 32a8.28 8.28 0 00-5.5-2.5 8.13 8.13 0 00-8.3 7.9 3.4 3.4 0 00.1 1c.1.4-.2.7-.6.8a5.06 5.06 0 00-4.2 5.1v.5a4.83 4.83 0 004.3 4.6v1.4a6.34 6.34 0 01-5.7-6v-.5a6.27 6.27 0 014.7-6.4v-.5a10.36 10.36 0 012.8-6.6 9.39 9.39 0 0113.4.1 9.73 9.73 0 012.2 3.1 4 4 0 013.9-.7 5.06 5.06 0 013.3 4.4c3.6.9 5.6 3.3 5.6 6.7zm-7.5-1.8a1.14 1.14 0 01.3.6v19.9a.85.85 0 01-.7.8h-3.6a.71.71 0 01-.7-.8V45.6a13.33 13.33 0 00-5.6-1.5 11.58 11.58 0 00-6 1.7v17.3a.85.85 0 01-.7.8h-3.6a.71.71 0 01-.7-.8V43.6a1.42 1.42 0 01.2-.6 17.67 17.67 0 0121.1-.4zm-1.1 1a15.85 15.85 0 00-9.2-2.8 15.13 15.13 0 00-9.6 3.1v18.5h2.2v-17a.75.75 0 01.4-.7 13.78 13.78 0 017-2 12.85 12.85 0 016.6 1.8.82.82 0 01.4.6v17.3h2.2z" fill="#fff"/>
</svg>
