<svg xmlns="http://www.w3.org/2000/svg" width="200" height="128">
    <defs>
        <linearGradient id="a" x1="73" y1="46" x2="127" y2="46" gradientUnits="userSpaceOnUse">
            <stop offset="0" stop-color="#202e3a"/>
            <stop offset="1" stop-color="#566069"/>
        </linearGradient>
    </defs>
    <path d="M78.85 90.74l-1-2.95h-4.59l-1 2.95h-1.67l4.1-11.09h1.76l4.09 11.09zm-5.17-4.18h3.73l-1.87-5.44zm18.58 4.18v-5.51a1.83 1.83 0 00-.26-1.18 1.13 1.13 0 00-1-.39 4.49 4.49 0 00-2.35.72 1.94 1.94 0 010 .24v6.12h-1.58v-5.51a1.9 1.9 0 00-.3-1.18 1.13 1.13 0 00-1-.39 4.35 4.35 0 00-2.34.71v6.37h-1.54v-8.12h1.33l.16.82a5.32 5.32 0 013-1.06 2 2 0 012 1.14 5.43 5.43 0 013.17-1.14 2.23 2.23 0 011.7.63 2.49 2.49 0 01.59 1.77v6zm8.68 0l-.12-.84a4.2 4.2 0 01-1.28.77 3.76 3.76 0 01-1.38.27 2.54 2.54 0 01-1.82-.64 2.31 2.31 0 01-.68-1.74 2.28 2.28 0 01.84-1.86 3.34 3.34 0 012.24-.7 8.38 8.38 0 012 .27v-1a1.59 1.59 0 00-.39-1.22 2 2 0 00-1.35-.4 8.71 8.71 0 00-2.81.49V83a5.17 5.17 0 011.41-.47 8.55 8.55 0 011.68-.17 3.29 3.29 0 012.24.64 2.42 2.42 0 01.72 1.92v5.8zm-2.4-1a3.75 3.75 0 002.21-.81V87.3a6.86 6.86 0 00-1.69-.21c-1.21 0-1.81.46-1.81 1.39a1.27 1.27 0 00.33.94 1.37 1.37 0 00.96.32zm5.46 1v-1.22l4.66-5.65h-4.5v-1.25h6.26v1.2l-4.72 5.67h4.76v1.25zm11.52.24a3.63 3.63 0 01-2.85-1.14 5.4 5.4 0 010-6.32 4.13 4.13 0 015.7 0 5.4 5.4 0 010 6.32 3.63 3.63 0 01-2.85 1.16zm0-1.28c1.5 0 2.26-1 2.26-3s-.76-3-2.26-3-2.26 1-2.26 3 .74 3 2.26 3zm11.31 1v-5.39a1.9 1.9 0 00-.34-1.25 1.37 1.37 0 00-1.08-.4 4.45 4.45 0 00-2.48.82v6.26h-1.59v-8.12h1.33l.16.9a5.27 5.27 0 013.2-1.14 2.41 2.41 0 011.78.62 2.46 2.46 0 01.61 1.78v6zm-71.38 16V95.65h7.3v1.85h-4.9v2.63h4V102h-4v2.9h4.9v1.86zm11.13 0l-3.1-8.18H66l1.74 6.08 1.78-6.08h2.38l-3.09 8.18zm8.08-3.52a2.06 2.06 0 00.64 1.52 2.82 2.82 0 001.81.48 9.68 9.68 0 002.5-.4v1.55a5.39 5.39 0 01-1.34.45 8.37 8.37 0 01-1.61.16 4.08 4.08 0 01-3.09-1.11 5.35 5.35 0 010-6.41 3.79 3.79 0 012.93-1.14 3.28 3.28 0 012.44.87 3.4 3.4 0 01.85 2.49 7.91 7.91 0 010 .8 7.18 7.18 0 01-.12.74zm1.75-3.28a1.62 1.62 0 00-1.24.47 2.07 2.07 0 00-.52 1.37h3.13v-.28c0-1-.45-1.52-1.37-1.52zm10.41 6.8v-5.36a1.36 1.36 0 00-.28-1 1.15 1.15 0 00-.88-.31 3.21 3.21 0 00-1.75.55v6.08h-2.33v-8.1h1.92l.22.88a4.89 4.89 0 013.07-1.12 2.36 2.36 0 011.75.62 2.32 2.32 0 01.62 1.75v6zm9.41-.21a5.35 5.35 0 01-1.93.33 2.74 2.74 0 01-2-.64 2.67 2.67 0 01-.65-2v-3.95h-1.24v-1.38l1.29-.26.36-2.24H94v2.21h2.2v1.73H94v3.84a.89.89 0 00.25.72 1.39 1.39 0 00.87.21 8.25 8.25 0 001.13-.1zm1.6.21V95.65h4a3.94 3.94 0 012.58.81 2.64 2.64 0 011 2.13A2.52 2.52 0 01105 100a2.47 2.47 0 01-1.11.91 2.93 2.93 0 011.56 1 2.74 2.74 0 01.53 1.7 2.79 2.79 0 01-1.07 2.29 4.53 4.53 0 01-2.88.85zm2.27-9.38v2.91h1.4c1 0 1.55-.48 1.55-1.44a1.28 1.28 0 00-1.43-1.47zm0 4.54V105h1.9c1.09 0 1.63-.51 1.63-1.53s-.58-1.59-1.74-1.59zm7.68 4.84v-8.14h1.92l.29 1.22a4.45 4.45 0 011.21-1 2.55 2.55 0 011.21-.3 5 5 0 01.64 0v2.16a4.37 4.37 0 00-1-.1 5 5 0 00-1.94.37v5.78zm7.72-9.44a1.42 1.42 0 01-1-.34 1.16 1.16 0 01-.37-.91 1.14 1.14 0 01.37-.91 1.38 1.38 0 011-.34 1.35 1.35 0 011 .34 1.14 1.14 0 01.37.91 1.16 1.16 0 01-.37.91 1.4 1.4 0 01-1 .38zm-1.17 9.44v-8.14h2.33v8.18zm10.16 0l-.19-.72a3.45 3.45 0 01-2.36.89 3.19 3.19 0 01-1.77-.5 3.31 3.31 0 01-1.19-1.47 5.41 5.41 0 01-.43-2.25 5 5 0 011-3.18 3 3 0 012.45-1.15 3.45 3.45 0 012.19.72V94.9h2.34v11.84zm-1.78-1.59a2.69 2.69 0 001.47-.45v-4.22a3 3 0 00-1.58-.4 1.39 1.39 0 00-1.26.63 3.49 3.49 0 00-.42 1.91 3.37 3.37 0 00.44 1.91 1.54 1.54 0 001.35.66zm11 .59a3.08 3.08 0 01-2.14.82 2.89 2.89 0 01-2.38-1.11 4.63 4.63 0 01-.89-3 4.7 4.7 0 01.9-3 2.9 2.9 0 012.4-1.14 3.25 3.25 0 012.32.94l.18-.7h1.92v7.54a4.14 4.14 0 01-1.09 3 4.09 4.09 0 01-3 1.08 6.51 6.51 0 01-2.94-.68V108a9.29 9.29 0 002.73.49 2.06 2.06 0 001.53-.48 2.28 2.28 0 00.47-1.6zm-1.42-.91a2.43 2.43 0 00.74-.12 2.53 2.53 0 00.68-.33v-3.93a2.86 2.86 0 00-1.53-.4c-1 0-1.54.79-1.54 2.37a3.25 3.25 0 00.4 1.82 1.41 1.41 0 001.29.63zm7.71-1.61a2 2 0 00.64 1.52 2.8 2.8 0 001.81.48 9.67 9.67 0 002.49-.4v1.55a5.31 5.31 0 01-1.33.45 8.53 8.53 0 01-1.61.22 4.11 4.11 0 01-3.1-1.11 5.38 5.38 0 010-6.41 3.78 3.78 0 012.92-1.14 3.26 3.26 0 012.44.87 3.37 3.37 0 01.86 2.49v.8c0 .3-.07.54-.11.74zm1.74-3.28a1.64 1.64 0 00-1.24.47 2.17 2.17 0 00-.52 1.37h3.14v-.28q.04-1.52-1.34-1.52z" fill="#333"/>
    <path d="M73 19h54v54H73z" fill="url(#a)"/>
    <path d="M88.07 55.69a2.18 2.18 0 112.18-2.17 2.18 2.18 0 01-2.18 2.17zm2.94 1a4.31 4.31 0 001.41-3.17 4.35 4.35 0 00-4.35-4.35 4.13 4.13 0 00-1.27.22l-2-3.39 2.85-4.94L85.81 40l-3.16 5.48a1.07 1.07 0 000 1.09l2.3 4a4.31 4.31 0 004.15 7.2l1.7 2.94a1.09 1.09 0 00.94.55h6.07V59h-5.44L91 56.69zm20.91-16.08a2.17 2.17 0 112.17-2.17 2.18 2.18 0 01-2.17 2.17zm3.13.82a4.3 4.3 0 001.22-3 4.28 4.28 0 00-5.37-4.21l-1.7-2.94a1.07 1.07 0 00-.94-.54h-6.07v2.17h5.44l1.37 2.35a4.32 4.32 0 002.93 7.52 4.14 4.14 0 001.28-.22l2 3.4-2.85 4.93 1.83 1.11 3.16-5.48a1 1 0 000-1.08l-2.3-4zM108.7 61.2a2.17 2.17 0 112.18-2.2 2.18 2.18 0 01-2.18 2.17zm-6.55-10.64h-4.79L94.73 46l2.44-4.23.56-.33h4.9l2.63 4.56-2.38 4.12-.73.44zM91.33 35.14A2.17 2.17 0 1193.51 33a2.17 2.17 0 01-2.18 2.17zm17.37 19.55a4.22 4.22 0 00-1.94.48l-2.18-3.64 2.87-5a1 1 0 000-1.08l-3.25-5.65a1.12 1.12 0 00-1-.54h-6l-2.3-3.84a4.41 4.41 0 10-1.67 1.43l2.17 3.62-2.87 5a1 1 0 000 1.08l3.26 5.65a1.09 1.09 0 00.94.54h6l2.33 3.89a4.35 4.35 0 103.61-1.93z" fill="#fff" fill-rule="evenodd"/>
</svg>
