<svg xmlns="http://www.w3.org/2000/svg" width="200" height="128">
	<defs>
		<linearGradient id="a" x1="29.03" y1="-456.03" x2="-77.03" y2="-349.97" gradientTransform="rotate(180 24.5 -165)" gradientUnits="userSpaceOnUse">
			<stop offset="0" stop-color="#055f4e"/>
			<stop offset="1" stop-color="#56c0a7"/>
		</linearGradient>
	</defs>
	<path d="m78.85 90.74-1-2.95h-4.59l-1 2.95h-1.67l4.1-11.09h1.76l4.09 11.09zm-5.17-4.18h3.73l-1.87-5.44zm18.58 4.18v-5.51a1.83 1.83 0 0 0-.26-1.18 1.13 1.13 0 0 0-1-.39 4.49 4.49 0 0 0-2.35.72 1.94 1.94 0 0 1 0 .24v6.12h-1.58v-5.51a1.9 1.9 0 0 0-.3-1.18 1.13 1.13 0 0 0-1-.39 4.35 4.35 0 0 0-2.34.71v6.37h-1.54v-8.12h1.33l.16.82a5.32 5.32 0 0 1 3-1.06 2 2 0 0 1 2 1.14 5.43 5.43 0 0 1 3.17-1.14 2.23 2.23 0 0 1 1.7.63 2.49 2.49 0 0 1 .59 1.77v6zm8.68 0-.12-.84a4.2 4.2 0 0 1-1.28.77 3.76 3.76 0 0 1-1.38.27 2.54 2.54 0 0 1-1.82-.64 2.31 2.31 0 0 1-.68-1.74 2.28 2.28 0 0 1 .84-1.86 3.34 3.34 0 0 1 2.24-.7 8.38 8.38 0 0 1 2 .27v-1a1.59 1.59 0 0 0-.39-1.22 2 2 0 0 0-1.35-.4 8.71 8.71 0 0 0-2.81.49V83a5.17 5.17 0 0 1 1.41-.47 8.55 8.55 0 0 1 1.68-.17 3.29 3.29 0 0 1 2.24.64 2.42 2.42 0 0 1 .72 1.92v5.8zm-2.4-1a3.75 3.75 0 0 0 2.21-.81V87.3a6.86 6.86 0 0 0-1.69-.21c-1.21 0-1.81.46-1.81 1.39a1.27 1.27 0 0 0 .33.94 1.37 1.37 0 0 0 .96.32zm5.46 1v-1.22l4.66-5.65h-4.5v-1.25h6.26v1.2l-4.72 5.67h4.76v1.25zm11.52.24a3.63 3.63 0 0 1-2.85-1.14 5.4 5.4 0 0 1 0-6.32 4.13 4.13 0 0 1 5.7 0 5.4 5.4 0 0 1 0 6.32 3.63 3.63 0 0 1-2.85 1.16zm0-1.28c1.5 0 2.26-1 2.26-3s-.76-3-2.26-3-2.26 1-2.26 3 .74 3 2.26 3zm11.31 1v-5.39a1.9 1.9 0 0 0-.34-1.25 1.37 1.37 0 0 0-1.08-.4 4.45 4.45 0 0 0-2.48.82v6.26h-1.59v-8.12h1.33l.16.9a5.27 5.27 0 0 1 3.2-1.14 2.41 2.41 0 0 1 1.78.62 2.46 2.46 0 0 1 .61 1.78v6zm-73.78 16-.78-2.53h-3.8l-.75 2.53h-2.51l3.9-11.09h2.64l3.91 11.09zM49 102.48h2.78l-1.41-4.64zm7.87 7.52V98.56h1.92l.2.77a3.45 3.45 0 0 1 1.16-.74 3.69 3.69 0 0 1 1.38-.27A3 3 0 0 1 64 99.46a4.8 4.8 0 0 1 .9 3.07 5.71 5.71 0 0 1-.42 2.25 3.39 3.39 0 0 1-1.2 1.56 3 3 0 0 1-1.8.57 3.69 3.69 0 0 1-1.25-.21 2.92 2.92 0 0 1-1-.57V110zm3.91-10a3 3 0 0 0-1.57.43v4.21a2.92 2.92 0 0 0 1.57.43 1.51 1.51 0 0 0 1.32-.61 3.41 3.41 0 0 0 .42-1.92 3.55 3.55 0 0 0-.41-1.93 1.49 1.49 0 0 0-1.33-.53zm5.93 10V98.56h1.92l.2.77a3.45 3.45 0 0 1 1.17-.74 3.69 3.69 0 0 1 1.38-.27 3 3 0 0 1 2.46 1.14 4.8 4.8 0 0 1 .9 3.07 5.71 5.71 0 0 1-.42 2.25 3.39 3.39 0 0 1-1.2 1.56 3 3 0 0 1-1.8.57 3.69 3.69 0 0 1-1.25-.21 2.92 2.92 0 0 1-1-.57V110zm3.91-10a3 3 0 0 0-1.57.43v4.21a2.92 2.92 0 0 0 1.57.43 1.51 1.51 0 0 0 1.32-.61 3.41 3.41 0 0 0 .42-1.92 3.55 3.55 0 0 0-.41-1.93 1.49 1.49 0 0 0-1.33-.53zm9.4 4.4a.68.68 0 0 0-.18-.5 2.53 2.53 0 0 0-.74-.38l-1.25-.5a3.22 3.22 0 0 1-1.41-.94 2.24 2.24 0 0 1-.43-1.42 2.12 2.12 0 0 1 .87-1.66 3.77 3.77 0 0 1 2.33-.66 5.87 5.87 0 0 1 2.48.53v1.55a8.07 8.07 0 0 0-2.27-.37 2.25 2.25 0 0 0-1 .16.59.59 0 0 0-.12 1 2.65 2.65 0 0 0 .77.41l1.22.5a3.46 3.46 0 0 1 1.42.93 2.13 2.13 0 0 1 .42 1.37 2.33 2.33 0 0 1-.9 1.91 3.68 3.68 0 0 1-2.38.73 6.3 6.3 0 0 1-2.91-.65v-1.56a9.45 9.45 0 0 0 2.89.5c.81-.07 1.17-.35 1.17-.87zm8.52 2a5.41 5.41 0 0 1-1.94.33 2.74 2.74 0 0 1-2-.64 2.67 2.67 0 0 1-.65-2v-3.95h-1.24v-1.29l1.3-.26.35-2.24h1.92v2.21h2.21v1.73h-2.21v3.84a.89.89 0 0 0 .26.72 1.37 1.37 0 0 0 .86.21 8.52 8.52 0 0 0 1.14-.1zm1.44.21v-8.05h1.92l.29 1.22a4.28 4.28 0 0 1 1.2-1 2.55 2.55 0 0 1 1.21-.3 4.85 4.85 0 0 1 .64 0v2.16a4.37 4.37 0 0 0-1-.1 5 5 0 0 0-1.94.37v5.78zm8.22-3.52a2 2 0 0 0 .64 1.52 2.8 2.8 0 0 0 1.81.48 9.67 9.67 0 0 0 2.49-.4v1.55a5.31 5.31 0 0 1-1.33.45 8.53 8.53 0 0 1-1.61.16 4.11 4.11 0 0 1-3.1-1.11 5.38 5.38 0 0 1 0-6.41 3.78 3.78 0 0 1 2.9-1.01 3.26 3.26 0 0 1 2.44.87 3.37 3.37 0 0 1 .86 2.49v.8c0 .3-.07.54-.11.74zm1.74-3.28a1.64 1.64 0 0 0-1.24.47 2.17 2.17 0 0 0-.52 1.37h3.14v-.28q0-1.43-1.38-1.43zm9.86 6.8-.19-.72a3.84 3.84 0 0 1-1.15.71 3.41 3.41 0 0 1-1.25.26 2.66 2.66 0 0 1-1.9-.67 2.36 2.36 0 0 1-.71-1.79 2.45 2.45 0 0 1 .38-1.35 2.6 2.6 0 0 1 1.11-.92 3.86 3.86 0 0 1 1.69-.34 7.72 7.72 0 0 1 1.7.21v-.8a1.34 1.34 0 0 0-.3-1 1.75 1.75 0 0 0-1.12-.27 9.78 9.78 0 0 0-2.9.49V99a6.34 6.34 0 0 1 1.49-.49 9.21 9.21 0 0 1 1.82-.18 3.63 3.63 0 0 1 2.41.66 2.63 2.63 0 0 1 .76 2.09v5.67zm-1.94-1.32a2.09 2.09 0 0 0 .83-.17 3.21 3.21 0 0 0 .79-.48v-1.39a7.59 7.59 0 0 0-1.26-.12c-.93 0-1.4.38-1.4 1.12a1.05 1.05 0 0 0 .28.77 1 1 0 0 0 .76.4zm16.14 1.45v-5.54c0-.73-.33-1.09-1-1.09a4 4 0 0 0-1.74.42v6.21h-2.34v-5.54c0-.73-.33-1.09-1-1.09a4 4 0 0 0-1.76.43v6.2h-2.33v-8.18h1.92l.21.78a7.19 7.19 0 0 1 1.52-.79 4.46 4.46 0 0 1 1.4-.23 2.17 2.17 0 0 1 2 1 6.52 6.52 0 0 1 1.53-.78 4.7 4.7 0 0 1 1.49-.24 2.36 2.36 0 0 1 1.74.62 2.39 2.39 0 0 1 .61 1.75v6zm8.78-10.08a6.39 6.39 0 0 1 1.75-1 5.7 5.7 0 0 1 1.9-.29 3.5 3.5 0 0 1 2.44.84 2.93 2.93 0 0 1 .92 2.24 3.76 3.76 0 0 1-.47 1.73 10.52 10.52 0 0 1-1.47 2 36.34 36.34 0 0 1-2.7 2.66h5.09v1.86h-7.75V105c1.37-1.38 2.39-2.45 3.07-3.23a12 12 0 0 0 1.4-1.86 2.62 2.62 0 0 0 .4-1.3 1.26 1.26 0 0 0-.37-1 1.4 1.4 0 0 0-1-.34 4.38 4.38 0 0 0-1.54.32 8.2 8.2 0 0 0-1.68.91zm10.48 10.28a1.39 1.39 0 0 1-1-.4 1.38 1.38 0 0 1-.4-1 1.41 1.41 0 0 1 .4-1 1.55 1.55 0 0 1 2.08 0 1.41 1.41 0 0 1 .4 1 1.38 1.38 0 0 1-.4 1 1.39 1.39 0 0 1-1.1.4zm7 0a3.64 3.64 0 0 1-3.12-1.51 9 9 0 0 1 0-8.59 4 4 0 0 1 6.22 0 9 9 0 0 1 0 8.59 3.64 3.64 0 0 1-3.16 1.57zm0-1.92a1.43 1.43 0 0 0 1.39-.9 10.82 10.82 0 0 0 0-6 1.53 1.53 0 0 0-2.78 0 10.82 10.82 0 0 0 0 6 1.43 1.43 0 0 0 1.33.94z" fill="#333"/>
	<path d="M73 19h54v54H73z" fill="url(#a)"/>
	<path d="M117.3 64a.76.76 0 0 1-.5-.2l-13-13 1-1 11.8 11.8V29.4H84.4l11.8 11.8-1 1-13-13a.61.61 0 0 1-.1-.8.62.62 0 0 1 .6-.4h34.6a.68.68 0 0 1 .7.7v34.6c0 .3-.1.6-.4.6a.37.37 0 0 1-.3.1zm-16.6 0a.76.76 0 0 1-.5-.2l-18-18a.61.61 0 0 1-.1-.8.62.62 0 0 1 .6-.4h18a.68.68 0 0 1 .7.7v18c0 .3-.1.6-.4.6a.37.37 0 0 1-.3.1zM84.4 46 100 61.6V46z" fill="#fff"/>
</svg>
