<svg xmlns="http://www.w3.org/2000/svg" width="200" height="128">
	<defs>
		<linearGradient id="a" x1="365.03" y1="-110.97" x2="258.97" y2="-217.03" gradientTransform="rotate(90 74 -165)" gradientUnits="userSpaceOnUse">
			<stop offset="0" stop-color="#055f4e"/>
			<stop offset="1" stop-color="#56c0a7"/>
		</linearGradient>
	</defs>
	<path d="m93.48 90.74-.8-2.3h-3.57l-.77 2.3H87l3.2-8.67h1.4l3.2 8.67zm-4-3.27h2.91l-1.46-4.25zm12.37 3.27L100.18 84l-1.65 6.79H97.1l-2.52-8.67H96l1.87 7.27 1.66-7h1.4l1.66 7 1.88-7.28h1.33l-2.52 8.67zm6.84-4.12a3.57 3.57 0 0 1-1.49-.93 2.08 2.08 0 0 1-.46-1.39 2.31 2.31 0 0 1 .35-1.25 2.37 2.37 0 0 1 1-.85 3.5 3.5 0 0 1 1.54-.31 6.48 6.48 0 0 1 2.31.45v1a7.64 7.64 0 0 0-2.22-.39 2.1 2.1 0 0 0-1.26.33 1.13 1.13 0 0 0-.44.95 1.06 1.06 0 0 0 .3.79 3.23 3.23 0 0 0 1.11.59l1.14.43A3.32 3.32 0 0 1 112 87a2 2 0 0 1 .45 1.36 2.39 2.39 0 0 1-.86 1.92 3.52 3.52 0 0 1-2.31.71 5.75 5.75 0 0 1-2.5-.51v-1a7.94 7.94 0 0 0 2.48.43 2.21 2.21 0 0 0 1.39-.38 1.25 1.25 0 0 0 .51-1 1.08 1.08 0 0 0-.29-.77 2.74 2.74 0 0 0-1-.58zm-88.13 16.62v-8.67h3.12a3.91 3.91 0 0 1 3 1.12 5.47 5.47 0 0 1 0 6.42 3.84 3.84 0 0 1-2.95 1.13zM22.44 96v5.77h1.07c1.51 0 2.27-.92 2.27-2.77v-.25c0-1.81-.78-2.75-2.28-2.75zM33 103.24l-.15-.57a3 3 0 0 1-.89.56 2.59 2.59 0 0 1-1 .21 2.08 2.08 0 0 1-1.48-.53 2 2 0 0 1-.25-2.45 1.92 1.92 0 0 1 .86-.72 3 3 0 0 1 1.32-.27 6.06 6.06 0 0 1 1.33.17V99a1.05 1.05 0 0 0-.24-.79 1.35 1.35 0 0 0-.87-.21 7.62 7.62 0 0 0-2.27.39v-1.2a4.71 4.71 0 0 1 1.17-.39 7.43 7.43 0 0 1 1.47-.14 2.78 2.78 0 0 1 1.88.52 2 2 0 0 1 .6 1.63v4.43zm-1.51-1a1.51 1.51 0 0 0 .64-.14 2.32 2.32 0 0 0 .62-.37v-1.09a6.26 6.26 0 0 0-1-.09c-.72 0-1.09.3-1.09.88a.78.78 0 0 0 .22.6.81.81 0 0 0 .6.18zm8.47.86a4 4 0 0 1-1.51.27 2.17 2.17 0 0 1-1.57-.5 2.1 2.1 0 0 1-.51-1.55V98.2h-1v-1.13l1-.2.28-1.75h1.5v1.73h1.72v1.35h-1.68v3a.69.69 0 0 0 .2.56 1.06 1.06 0 0 0 .67.16 6 6 0 0 0 .89-.07zm4.79.17-.15-.57a3 3 0 0 1-.9.56 2.51 2.51 0 0 1-1 .21 2.08 2.08 0 0 1-1.48-.53 2 2 0 0 1-.25-2.45 1.92 1.92 0 0 1 .86-.72 3 3 0 0 1 1.32-.27 6.06 6.06 0 0 1 1.33.17V99a1.05 1.05 0 0 0-.24-.79 1.35 1.35 0 0 0-.87-.21 7.62 7.62 0 0 0-2.27.39v-1.2a4.71 4.71 0 0 1 1.17-.39 7.43 7.43 0 0 1 1.42-.14 2.78 2.78 0 0 1 1.88.52 2 2 0 0 1 .6 1.63v4.43zm-1.51-1a1.55 1.55 0 0 0 .64-.14 2.32 2.32 0 0 0 .62-.37v-1.09a6.26 6.26 0 0 0-1-.09c-.72 0-1.09.3-1.09.88a.78.78 0 0 0 .22.6.81.81 0 0 0 .6.15zm4.67 1V94h1.83v3.35a2.65 2.65 0 0 1 .85-.5 2.72 2.72 0 0 1 1-.18 2.33 2.33 0 0 1 1.92.89 3.75 3.75 0 0 1 .7 2.4 4.45 4.45 0 0 1-.32 1.76 2.83 2.83 0 0 1-.94 1.22 2.32 2.32 0 0 1-1.41.44 2.8 2.8 0 0 1-1.08-.2 2.22 2.22 0 0 1-.83-.56l-.17.63zM51 98a2.4 2.4 0 0 0-1.22.33v3.29A2.22 2.22 0 0 0 51 102a1.16 1.16 0 0 0 1-.48 2.64 2.64 0 0 0 .33-1.5 2.71 2.71 0 0 0-.33-1.51 1.16 1.16 0 0 0-1-.51zm8.3 5.2-.15-.57a3 3 0 0 1-.89.56 2.58 2.58 0 0 1-1 .21 2.1 2.1 0 0 1-1.49-.53 2 2 0 0 1-.25-2.45 2 2 0 0 1 .86-.72 3.07 3.07 0 0 1 1.33-.27 6 6 0 0 1 1.32.17V99a1.05 1.05 0 0 0-.24-.79 1.35 1.35 0 0 0-.87-.21 7.56 7.56 0 0 0-2.26.39v-1.2a4.48 4.48 0 0 1 1.16-.39 7.43 7.43 0 0 1 1.42-.14 2.78 2.78 0 0 1 1.88.52 2 2 0 0 1 .6 1.63v4.43zm-1.51-1a1.51 1.51 0 0 0 .64-.14 2.32 2.32 0 0 0 .62-.37v-1.09a6.16 6.16 0 0 0-1-.09c-.72 0-1.08.3-1.08.88a.73.73 0 0 0 .81.81zm7.39-.74a.49.49 0 0 0-.15-.38 1.65 1.65 0 0 0-.58-.3l-1-.39a2.49 2.49 0 0 1-1.1-.74 1.73 1.73 0 0 1-.35-1.1 1.65 1.65 0 0 1 .68-1.37 2.89 2.89 0 0 1 1.82-.52 4.65 4.65 0 0 1 1.94.41v1.22a6 6 0 0 0-1.79-.29 1.76 1.76 0 0 0-.75.12.43.43 0 0 0-.24.4.44.44 0 0 0 .15.35 2.15 2.15 0 0 0 .6.32l1 .38a2.64 2.64 0 0 1 1.11.73 1.65 1.65 0 0 1 .33 1.07 1.81 1.81 0 0 1-.71 1.5 2.84 2.84 0 0 1-1.85.57 4.79 4.79 0 0 1-2.28-.52v-1.21a7.62 7.62 0 0 0 2.27.39q.85 0 .85-.63zm4.21-1a1.58 1.58 0 0 0 .5 1.19 2.18 2.18 0 0 0 1.41.37 7.66 7.66 0 0 0 2-.31V103a4 4 0 0 1-1 .35 6.56 6.56 0 0 1-1.26.12 3.2 3.2 0 0 1-2.42-.86 4.2 4.2 0 0 1 0-5 3 3 0 0 1 2.28-.89 2.57 2.57 0 0 1 1.91.68 2.65 2.65 0 0 1 .67 2 4.8 4.8 0 0 1 0 .62 3.56 3.56 0 0 1-.09.58zm1.36-2.57a1.31 1.31 0 0 0-1 .37 1.63 1.63 0 0 0-.4 1.07h2.45v-.21q-.02-1.2-1.1-1.2zm14.59 5.32v-6l-1.91 3.88H81.7l-1.91-3.88v6h-1.65v-8.64h2l2.36 4.93 2.38-4.93h2v8.67zm4.49-7.38a1.12 1.12 0 0 1-.83-.23.92.92 0 0 1-.28-.71.94.94 0 0 1 .28-.72 1.26 1.26 0 0 1 1.53 0 1 1 0 0 1 .29.72.93.93 0 0 1-.29.71 1.11 1.11 0 0 1-.75.26zm-.92 7.38v-6.36h1.83v6.39zm7.53-.78a2.43 2.43 0 0 1-1.68.64 2.24 2.24 0 0 1-1.85-.87 3.57 3.57 0 0 1-.7-2.32 3.74 3.74 0 0 1 .7-2.36 2.28 2.28 0 0 1 1.88-.89 2.53 2.53 0 0 1 1 .19 2.47 2.47 0 0 1 .82.55l.14-.55h1.5v5.89a3.24 3.24 0 0 1-.85 2.37 3.17 3.17 0 0 1-2.4.92 5.08 5.08 0 0 1-2.3-.54v-1.26a7.27 7.27 0 0 0 2.14.39 1.62 1.62 0 0 0 1.19-.38 1.79 1.79 0 0 0 .37-1.25zm-1.11-.71a2 2 0 0 0 .58-.09 2.37 2.37 0 0 0 .53-.26v-3.05a2.33 2.33 0 0 0-1.2-.31c-.8 0-1.2.62-1.2 1.85a2.59 2.59 0 0 0 .31 1.43 1.11 1.11 0 0 0 .93.46zm4.66 1.49v-6.36h1.5l.22 1a3.47 3.47 0 0 1 1-.78 1.92 1.92 0 0 1 .94-.23h.5v1.69a3.67 3.67 0 0 0-.77-.07 4 4 0 0 0-1.52.28v4.52zm8.72 0-.15-.57a2.92 2.92 0 0 1-.89.56 2.58 2.58 0 0 1-1 .21 2.06 2.06 0 0 1-1.48-.53 2 2 0 0 1-.26-2.45 2 2 0 0 1 .86-.72 3.07 3.07 0 0 1 1.33-.27 6 6 0 0 1 1.32.17V99a1.1 1.1 0 0 0-.23-.79 1.36 1.36 0 0 0-.88-.21 7.56 7.56 0 0 0-2.26.39v-1.2a4.62 4.62 0 0 1 1.16-.39 7.54 7.54 0 0 1 1.43-.14 2.81 2.81 0 0 1 1.88.52 2.08 2.08 0 0 1 .59 1.63v4.43zm-1.51-1a1.51 1.51 0 0 0 .64-.14 2.17 2.17 0 0 0 .62-.37v-1.09a6 6 0 0 0-1-.09c-.73 0-1.09.3-1.09.88a.73.73 0 0 0 .81.81zm8.47.86a4 4 0 0 1-1.51.27 2.17 2.17 0 0 1-1.57-.5 2.14 2.14 0 0 1-.5-1.55V98.2h-1v-1.13l1-.2.27-1.75h1.5v1.73h1.73v1.35h-1.73v3a.69.69 0 0 0 .2.56 1.1 1.1 0 0 0 .68.16 5.85 5.85 0 0 0 .88-.07zm2.09-7.21a1.11 1.11 0 0 1-.76-.26.93.93 0 0 1-.29-.71 1 1 0 0 1 .29-.72 1.11 1.11 0 0 1 .76-.26 1.14 1.14 0 0 1 .77.26.94.94 0 0 1 .28.72.92.92 0 0 1-.28.71 1.14 1.14 0 0 1-.82.26zm-.91 7.38v-6.39h1.82v6.39zm6.46.18a3 3 0 0 1-2.32-.89 4.11 4.11 0 0 1 0-5 3.48 3.48 0 0 1 4.65 0 4.15 4.15 0 0 1 0 5 3 3 0 0 1-2.38.89zm0-1.4c.88 0 1.31-.66 1.31-2s-.43-2-1.31-2-1.31.66-1.31 2 .39 1.98 1.26 1.98zm8.69 1.22v-4.19a1.07 1.07 0 0 0-.22-.75.9.9 0 0 0-.69-.24 2.45 2.45 0 0 0-1.36.43v4.75h-1.83v-6.39h1.5l.17.69a3.84 3.84 0 0 1 2.41-.88 1.83 1.83 0 0 1 1.36.48 1.86 1.86 0 0 1 .48 1.37v4.73zm8.64-3.79a3.68 3.68 0 0 1-1.6-1 2.26 2.26 0 0 1-.49-1.5 2.29 2.29 0 0 1 .87-1.88 3.6 3.6 0 0 1 2.33-.7 6.63 6.63 0 0 1 2.4.45v1.43a7.68 7.68 0 0 0-2.25-.38c-1 0-1.47.32-1.47 1a.74.74 0 0 0 .25.58 3.24 3.24 0 0 0 1 .47l.92.34a3.93 3.93 0 0 1 1.66 1 2.19 2.19 0 0 1 .49 1.48 2.5 2.5 0 0 1-.92 2 4 4 0 0 1-2.54.74 7.37 7.37 0 0 1-1.4-.13 5.35 5.35 0 0 1-1.2-.36v-1.42a12.06 12.06 0 0 0 1.34.3 8.87 8.87 0 0 0 1.29.11 2 2 0 0 0 1.13-.27.86.86 0 0 0 .4-.77.79.79 0 0 0-.24-.61 3.15 3.15 0 0 0-1-.5zm6.86 1a1.58 1.58 0 0 0 .5 1.19 2.18 2.18 0 0 0 1.41.37 7.66 7.66 0 0 0 1.95-.31v1.3a4 4 0 0 1-1 .35 6.49 6.49 0 0 1-1.26.12 3.2 3.2 0 0 1-2.42-.86 4.2 4.2 0 0 1 0-5 3 3 0 0 1 2.29-.89 2.55 2.55 0 0 1 1.9.68 2.65 2.65 0 0 1 .67 2 4.8 4.8 0 0 1 0 .62 3.56 3.56 0 0 1-.09.58zm1.36-2.57a1.31 1.31 0 0 0-1 .37 1.68 1.68 0 0 0-.4 1.07h2.45v-.21q-.02-1.19-1.1-1.19zm4 5.32v-6.35h1.5l.22 1a3.47 3.47 0 0 1 1-.78 1.92 1.92 0 0 1 .94-.23h.5v1.69a3.67 3.67 0 0 0-.77-.07 4 4 0 0 0-1.52.28v4.52zm7.16 0-2.42-6.39h1.93l1.37 4.75 1.38-4.75h1.89l-2.41 6.39zm6-7.38a1.09 1.09 0 0 1-.76-.26.93.93 0 0 1-.29-.71 1 1 0 0 1 .29-.72 1.24 1.24 0 0 1 1.52 0 1 1 0 0 1 .29.72.93.93 0 0 1-.29.71 1.09 1.09 0 0 1-.73.3zm-.91 7.38v-6.35H167v6.39zm8.23-.28a2.74 2.74 0 0 1-.81.31 4.49 4.49 0 0 1-1 .1 3.06 3.06 0 0 1-2.33-.85 4.08 4.08 0 0 1 0-4.92 3.11 3.11 0 0 1 2.36-.89 3.6 3.6 0 0 1 1.69.4v1.21a5 5 0 0 0-1.35-.21 1.69 1.69 0 0 0-1.29.44 2 2 0 0 0-.41 1.41v.18a2 2 0 0 0 .4 1.39 1.61 1.61 0 0 0 1.4.51 5.35 5.35 0 0 0 1.42-.22zm2.54-2.47a1.58 1.58 0 0 0 .5 1.19 2.18 2.18 0 0 0 1.41.37 7.66 7.66 0 0 0 2-.31v1.3a4 4 0 0 1-1 .35 6.41 6.41 0 0 1-1.26.12 3.17 3.17 0 0 1-2.41-.86 3.47 3.47 0 0 1-.84-2.52 3.52 3.52 0 0 1 .83-2.49 3 3 0 0 1 2.29-.89 2.55 2.55 0 0 1 1.9.68 2.65 2.65 0 0 1 .67 2 4.8 4.8 0 0 1 0 .62 5.43 5.43 0 0 1-.08.58zm1.36-2.57a1.29 1.29 0 0 0-1 .37 1.63 1.63 0 0 0-.41 1.07h2.45v-.21q.07-1.19-1.01-1.19z" fill="#333"/>
	<path d="M73 19h54v54H73z" fill="url(#a)"/>
	<path d="M110.4 31.6c-.2-2.8-5.5-4.3-10.4-4.3s-10.2 1.5-10.4 4.3v21.6c0 2.9 5.4 4.5 10.4 4.5s10.4-1.5 10.4-4.5zM100 28.7c5.5 0 9 1.8 9 3s-3.5 3.1-9 3.1-9-1.8-9-3 3.4-3.1 9-3.1zm0 27.6c-5.5 0-9-1.8-9-3v-4.2c1.9 1.4 5.5 2.2 9 2.2s7.1-.7 9-2.2v4.1c-.1 1.3-3.5 3.1-9 3.1zm0-6.5c-5.5 0-9-1.8-9-3v-4.9c1.9 1.4 5.5 2.2 9 2.2s7.1-.7 9-2.2v4.9c0 1.2-3.4 3-9 3zm0-7.2c-5.5 0-9-1.8-9-3v-5.5c1.9 1.4 5.5 2.2 9 2.2s7.1-.7 9-2.2v5.4c0 1.3-3.4 3.1-9 3.1zM90.3 59h1.4v4.3h-1.4zm18 0h1.4v4.3h-1.4zM96 60.4h1.5v4.3H96zm6.5 0h1.5v4.3h-1.5z" fill="#fff"/>
</svg>
