<svg xmlns="http://www.w3.org/2000/svg" xmlns:xlink="http://www.w3.org/1999/xlink" width="200" height="128"><defs><style>.cls-1{fill:url(#linear-gradient);}.cls-2{fill:url(#linear-gradient-2);}.cls-3{fill:url(#linear-gradient-3);}.cls-4{fill:url(#linear-gradient-4);}.cls-5{fill:url(#linear-gradient-5);}.cls-6{fill:url(#linear-gradient-6);}.cls-7{fill:url(#linear-gradient-7);}.cls-8{fill:url(#linear-gradient-8);}.cls-9{fill:url(#linear-gradient-9);}.cls-10{fill:url(#linear-gradient-10);}.cls-11{fill:url(#linear-gradient-11);}.cls-12{fill:#fff;}.cls-13{fill:url(#linear-gradient-12);}.cls-14{fill:#333;}</style><linearGradient id="linear-gradient" x1="101.29" y1="57.98" x2="101.91" y2="57.36" gradientUnits="userSpaceOnUse"><stop offset="0" stop-color="#c8511b"/><stop offset="1" stop-color="#f90"/></linearGradient><linearGradient id="linear-gradient-2" x1="100.02" y1="62.38" x2="105.44" y2="56.96" xlink:href="#linear-gradient"/><linearGradient id="linear-gradient-3" x1="101.16" y1="60.24" x2="101.96" y2="59.44" xlink:href="#linear-gradient"/><linearGradient id="linear-gradient-4" x1="100.49" y1="57.6" x2="103.44" y2="54.64" xlink:href="#linear-gradient"/><linearGradient id="linear-gradient-5" x1="86.94" y1="48.78" x2="100.34" y2="35.38" xlink:href="#linear-gradient"/><linearGradient id="linear-gradient-6" x1="105.26" y1="56.81" x2="109.12" y2="52.95" xlink:href="#linear-gradient"/><linearGradient id="linear-gradient-7" x1="91.18" y1="42.25" x2="105.4" y2="28.03" xlink:href="#linear-gradient"/><linearGradient id="linear-gradient-8" x1="47.03" y1="98.97" x2="126.28" y2="19.72" xlink:href="#linear-gradient"/><linearGradient id="linear-gradient-9" x1="107.5" y1="57.99" x2="112.82" y2="52.66" xlink:href="#linear-gradient"/><linearGradient id="linear-gradient-10" x1="107.27" y1="53.68" x2="110.76" y2="50.19" xlink:href="#linear-gradient"/><linearGradient id="linear-gradient-11" x1="92.43" y1="52.78" x2="110.97" y2="34.24" xlink:href="#linear-gradient"/><linearGradient id="linear-gradient-12" x1="77.89" y1="68.05" x2="96.9" y2="49.03" xlink:href="#linear-gradient"/></defs><path class="cls-1" d="M101.77,57.85v-.63l0,0C101.74,57.41,101.76,57.63,101.77,57.85Z"/><polygon class="cls-2" points="105.14 59.27 105.14 56.56 103.08 57.31 103.08 60.02 105.14 59.27"/><path class="cls-3" d="M101.77,59.24c0,.25,0,.51-.06.76l.06,0Z"/><path class="cls-4" d="M101.37,55.07c0,.19.09.39.13.58l1.11.45,1.68-.66-1.87-.84Z"/><path class="cls-5" d="M93.64,32.55v8.78A1.45,1.45,0,0,0,94,42.45h.09c.09,0,.09.1.09.1h.1l.18.09.19.19.19.09.28.19c.28.09.56.18.93.28l.66.19.28.09a19.75,19.75,0,0,0,4.11.47V35.91l-7.39-3.36Z"/><polygon class="cls-6" points="107.19 54.88 109.15 55.72 109.15 52.92 107.19 52.08 107.19 54.88"/><polygon class="cls-7" points="101.77 28.06 94.58 31.43 101.86 34.79 101.86 34.88 109.25 31.61 101.77 28.06"/><path class="cls-8" d="M76.54,19V49.09a14.34,14.34,0,0,1,8.75-4.79,3,3,0,0,1-1-2.13c0-1.77,2-3.45,5.79-4.58l.47,1.31c-3,.84-5,2.15-5,3.27,0,.67.58,1.35,1.64,2h.14a14.33,14.33,0,0,1,7.85,2.32,49.31,49.31,0,0,0,6.53.47c9.53.09,16.17-2.52,16.17-4.77,0-1.12-1.87-2.43-5-3.27l.47-1.31c3.74,1.13,5.89,2.81,5.79,4.58,0,3.93-9,6.08-17.47,6.08-1.51,0-3-.07-4.53-.21A14.42,14.42,0,0,1,101,53.79l1.16-.5a1.07,1.07,0,0,1,.75,0l2.81,1.31V51.05a1,1,0,0,1,.56-.65L109.43,49a1.07,1.07,0,0,1,.75,0l3.18,1.41a.76.76,0,0,1,.56.65v4.11a.74.74,0,0,1-.47.75l-3.27,1.31a.73.73,0,0,1-.37.09.47.47,0,0,1-.28-.09h-.19l-2.9-1.31v3.46a.73.73,0,0,1-.46.74l-3.27,1.41a.61.61,0,0,1-.38.09.47.47,0,0,1-.28-.09H102l-.44-.19a14.4,14.4,0,0,1-4.75,8.13H127V19Zm34.57,22.33A2.93,2.93,0,0,1,109.34,44a18.13,18.13,0,0,1-7.66,1.5,32.55,32.55,0,0,1-5.05-.66l-.37-.09-.66-.19a3.88,3.88,0,0,1-1-.28l-.1-.09H94.3l-.19-.09c-.19-.1-.28-.1-.38-.19v-.09c-.18-.1-.28-.1-.37-.19l-.09-.19-.19-.09a3,3,0,0,1-.75-2V31.71a1.36,1.36,0,0,1,.66-.94l8.31-3.92a1.34,1.34,0,0,1,.84,0l8.41,3.92a1.11,1.11,0,0,1,.56.94Z"/><polygon class="cls-9" points="112.52 54.88 112.52 52.27 110.55 53.01 110.55 55.72 112.52 54.88"/><polygon class="cls-10" points="108.13 51.05 109.99 51.8 111.68 51.05 109.81 50.3 108.13 51.05"/><path class="cls-11" d="M102.42,44.23a16.89,16.89,0,0,0,6.45-1.31,1.81,1.81,0,0,0,.94-1.59V32.74l-7.39,3.36Z"/><path class="cls-12" d="M93.27,43.48l.09.19c.09.09.19.09.37.19V44c.1.09.19.09.38.19l.19.09h.18l.1.09a3.88,3.88,0,0,0,1,.28l.66.19.37.09a32.55,32.55,0,0,0,5.05.66,18.13,18.13,0,0,0,7.66-1.5,2.93,2.93,0,0,0,1.77-2.71V31.71a1.11,1.11,0,0,0-.56-.94l-8.41-3.92a1.34,1.34,0,0,0-.84,0L93,30.77a1.36,1.36,0,0,0-.66.94v9.72a3,3,0,0,0,.75,2Zm16.54-2.15a1.81,1.81,0,0,1-.94,1.59,16.89,16.89,0,0,1-6.45,1.31V36.1l7.39-3.36Zm-8-13.27,7.48,3.55-7.39,3.28v-.1l-7.28-3.36Zm-8,4.49,7.39,3.36v8.23A19.75,19.75,0,0,1,97,43.67l-.28-.09-.66-.19c-.37-.1-.65-.19-.93-.28l-.28-.19-.19-.09-.19-.19-.18-.09h-.1s0-.1-.09-.1H94a1.45,1.45,0,0,1-.38-1.12V32.55Zm25.51,9.62c0,3.93-9,6.08-17.47,6.08S84.3,46.1,84.3,42.17c0-1.77,2-3.45,5.79-4.58l.47,1.31c-3,.84-5,2.15-5,3.27,0,2.25,6.63,4.68,16.16,4.77s16.17-2.52,16.17-4.77c0-1.12-1.87-2.43-5-3.27l.47-1.31C117.19,38.72,119.34,40.4,119.24,42.17Zm-5.88,8.23L110.18,49a1.07,1.07,0,0,0-.75,0l-3.17,1.41a1,1,0,0,0-.56.65V54.6l-2.81-1.31a1.07,1.07,0,0,0-.75,0L99.06,54.6V51.05a.62.62,0,0,0-.47-.65L95.42,49a1.07,1.07,0,0,0-.75,0L91.49,50.4a.69.69,0,0,0-.46.65v4.11a.83.83,0,0,0,.46.75l3.18,1.4h0c.09.09.19.09.37,0s.19,0,.38,0l3-1.31v3.46a.84.84,0,0,0,.46.75L102,61.52h.09a.47.47,0,0,0,.28.09.61.61,0,0,0,.38-.09L106,60.11a.73.73,0,0,0,.46-.74V55.91l2.9,1.31h.19a.47.47,0,0,0,.28.09.73.73,0,0,0,.37-.09l3.27-1.31a.74.74,0,0,0,.47-.75V51.05A.76.76,0,0,0,113.36,50.4Zm-19,5.32-2.06-.84v-2.8l2.06.84Zm.75-3.92-1.78-.75L95,50.3l1.78.75Zm2.61,3.08-2,.84V53l2-.74Zm4,5.14-2-.84v-2.8l2,.84Zm.84-3.92-1.87-.75,1.68-.75,1.87.84Zm2.52,3.17-2,.75V57.31l2-.75Zm4-3.55-2-.84v-2.8l2,.84ZM110,51.8l-1.87-.75,1.69-.75,1.87.75Zm2.53,3.08-2,.84V53l2-.74Z"/><path class="cls-13" d="M96.9,49a13.46,13.46,0,1,1-9.51-3.93A13.37,13.37,0,0,1,96.9,49Z"/><path class="cls-12" d="M87.39,45.1A13.43,13.43,0,1,1,77.89,49a13.34,13.34,0,0,1,9.5-3.93m0-1a14.39,14.39,0,1,0,14.4,14.39,14.39,14.39,0,0,0-14.4-14.39Zm0,24.87h-.21l-8.81-5.13a.44.44,0,0,1-.22-.37V53.37a.41.41,0,0,1,.22-.37l8.06-4.7a.47.47,0,0,1,.37,0,.44.44,0,0,1,.22.37v4.44a.3.3,0,0,1-.22.32l-4,2.35v5.33l4.59,2.67,4.06-2.29a.47.47,0,0,1,.37,0l3.85,2.19c.21.1.21.32.16.53s-.06.11-.16.16L87.58,69s-.1,0-.21,0Zm-8.44-5.66,8.44,4.86L94.69,64l-3.1-1.76-4,2.29a.51.51,0,0,1-.42,0l-5-2.88a.41.41,0,0,1-.21-.32V55.56a.39.39,0,0,1,.21-.37l4-2.35V49.31l-7.27,4.22ZM96.23,63A.37.37,0,0,1,96,63l-3.84-2.19a.44.44,0,0,1-.22-.37V55.78l-4-2.3a.44.44,0,0,1-.22-.37V48.73a.42.42,0,0,1,.22-.38.47.47,0,0,1,.37,0L96.39,53a.44.44,0,0,1,.22.37v9.35C96.61,62.93,96.45,63,96.23,63Zm-3.47-2.78,3,1.76V53.53l-7.26-4.16v3.52l4,2.3a.43.43,0,0,1,.21.37Zm-7.31,1.07V55.56h.75v2.62l2.51-2.62h1L87.1,58.39l2.83,2.94h-1L86.2,58.66v2.67Z"/><path class="cls-14" d="M78.85,90.74l-1-2.95H73.26l-1,2.95H70.59l4.1-11.09h1.76l4.09,11.09Zm-5.17-4.18h3.73l-1.87-5.44Zm18.58,4.18V85.23A1.83,1.83,0,0,0,92,84.05a1.13,1.13,0,0,0-1-.39,4.49,4.49,0,0,0-2.35.72,1.94,1.94,0,0,1,0,.24v6.12H87.07V85.23a1.9,1.9,0,0,0-.3-1.18,1.13,1.13,0,0,0-1-.39,4.35,4.35,0,0,0-2.34.71v6.37H81.89V82.62h1.33l.16.82a5.32,5.32,0,0,1,3-1.06,2,2,0,0,1,2,1.14,5.43,5.43,0,0,1,3.17-1.14,2.23,2.23,0,0,1,1.7.63,2.49,2.49,0,0,1,.59,1.77v6Zm8.68,0-.12-.84a4.2,4.2,0,0,1-1.28.77,3.76,3.76,0,0,1-1.38.27,2.54,2.54,0,0,1-1.82-.64,2.31,2.31,0,0,1-.68-1.74,2.28,2.28,0,0,1,.84-1.86,3.34,3.34,0,0,1,2.24-.7,8.38,8.38,0,0,1,2,.27v-1a1.59,1.59,0,0,0-.39-1.22A2,2,0,0,0,99,83.65a8.71,8.71,0,0,0-2.81.49V83a5.17,5.17,0,0,1,1.41-.47,8.55,8.55,0,0,1,1.68-.17,3.29,3.29,0,0,1,2.24.64,2.42,2.42,0,0,1,.72,1.92v5.8Zm-2.4-1a3.75,3.75,0,0,0,2.21-.81V87.3a6.86,6.86,0,0,0-1.69-.21c-1.21,0-1.81.46-1.81,1.39a1.27,1.27,0,0,0,.33.94A1.37,1.37,0,0,0,98.54,89.74Zm5.46,1V89.52l4.66-5.65h-4.5V82.62h6.26v1.2l-4.72,5.67h4.76v1.25Zm11.52.24a3.63,3.63,0,0,1-2.85-1.14,5.4,5.4,0,0,1,0-6.32,4.13,4.13,0,0,1,5.7,0,5.4,5.4,0,0,1,0,6.32A3.63,3.63,0,0,1,115.52,91Zm0-1.28c1.5,0,2.26-1,2.26-3s-.76-3-2.26-3-2.26,1-2.26,3S114,89.7,115.52,89.7Zm11.31,1V85.31a1.9,1.9,0,0,0-.34-1.25,1.37,1.37,0,0,0-1.08-.4,4.45,4.45,0,0,0-2.48.82v6.26h-1.59V82.62h1.33l.16.9a5.27,5.27,0,0,1,3.2-1.14,2.41,2.41,0,0,1,1.78.62,2.46,2.46,0,0,1,.61,1.78v6Zm-82.15,16V95.65H52V97.5h-4.9v2.63h4V102h-4v2.9H52v1.86Zm9.25,0V95.65h2.4v4.75l4-4.75h2.71l-4.51,5.15,4.89,5.94H60.57l-4.24-5.27v5.27Zm12.91-4.85a4.7,4.7,0,0,1-2-1.29,3,3,0,0,1-.62-1.93,2.93,2.93,0,0,1,1.11-2.4,4.6,4.6,0,0,1,3-.89,8.66,8.66,0,0,1,3.08.57v1.83a9.85,9.85,0,0,0-2.88-.48c-1.26,0-1.89.4-1.89,1.21a.94.94,0,0,0,.33.74,4.2,4.2,0,0,0,1.22.61l1.18.43a5.07,5.07,0,0,1,2.12,1.27,2.77,2.77,0,0,1,.64,1.9,3.18,3.18,0,0,1-1.19,2.6,5.07,5.07,0,0,1-3.25,1,10,10,0,0,1-1.79-.17,6.3,6.3,0,0,1-1.53-.46v-1.82a11.94,11.94,0,0,0,1.71.38,10.29,10.29,0,0,0,1.65.15,2.57,2.57,0,0,0,1.45-.35,1.11,1.11,0,0,0,.51-1,1,1,0,0,0-.31-.78,3.85,3.85,0,0,0-1.25-.64ZM81.59,107a3.66,3.66,0,0,1-2.85-1.14,5.4,5.4,0,0,1,0-6.32,4.13,4.13,0,0,1,5.7,0,5.4,5.4,0,0,1,0,6.32A3.63,3.63,0,0,1,81.59,107Zm0-1.28c1.51,0,2.26-1,2.26-3s-.75-3-2.26-3-2.25,1-2.25,3S80.09,105.7,81.59,105.7Zm11.31,1v-5.43a1.9,1.9,0,0,0-.34-1.25,1.37,1.37,0,0,0-1.08-.4,4.45,4.45,0,0,0-2.48.82v6.26H87.42V98.62h1.33l.15.9a5.27,5.27,0,0,1,3.2-1.14,2.39,2.39,0,0,1,1.78.62,2.42,2.42,0,0,1,.61,1.78v6Zm8.21,0V95.65h7V97.5h-4.58v2.79h3.65v1.85h-3.65v4.6Zm12.85,0-.19-.72a3.84,3.84,0,0,1-1.15.71,3.41,3.41,0,0,1-1.25.26,2.66,2.66,0,0,1-1.9-.67,2.58,2.58,0,0,1-.32-3.14,2.52,2.52,0,0,1,1.1-.92,3.86,3.86,0,0,1,1.69-.34,7.72,7.72,0,0,1,1.7.21v-.8a1.34,1.34,0,0,0-.3-1,1.75,1.75,0,0,0-1.12-.27,9.78,9.78,0,0,0-2.9.49V99a6.34,6.34,0,0,1,1.49-.49,9.21,9.21,0,0,1,1.82-.18A3.63,3.63,0,0,1,115,99a2.63,2.63,0,0,1,.76,2.09v5.67ZM112,105.42a2.09,2.09,0,0,0,.83-.17,3.21,3.21,0,0,0,.79-.48v-1.39a7.59,7.59,0,0,0-1.26-.12c-.93,0-1.4.38-1.4,1.12a1.05,1.05,0,0,0,.28.77A1,1,0,0,0,112,105.42Zm6,1.32V98.56h1.92l.29,1.22a4.43,4.43,0,0,1,1.2-1,2.58,2.58,0,0,1,1.21-.3,4.85,4.85,0,0,1,.64,0v2.16a4.37,4.37,0,0,0-1-.1,5,5,0,0,0-1.94.37v5.78Zm11.47-1a3.08,3.08,0,0,1-2.14.82,2.88,2.88,0,0,1-2.38-1.11,4.63,4.63,0,0,1-.89-3,4.7,4.7,0,0,1,.9-3,2.9,2.9,0,0,1,2.4-1.14,3.25,3.25,0,0,1,2.32.94l.17-.7h1.92v7.54a4.14,4.14,0,0,1-1.08,3,4.09,4.09,0,0,1-3,1.08,6.55,6.55,0,0,1-3-.68V108a9.4,9.4,0,0,0,2.74.49A2.09,2.09,0,0,0,129,108a2.28,2.28,0,0,0,.47-1.6Zm-1.42-.91a2.43,2.43,0,0,0,.74-.12,2.53,2.53,0,0,0,.68-.33v-3.93a2.87,2.87,0,0,0-1.54-.4q-1.53,0-1.53,2.37a3.25,3.25,0,0,0,.4,1.82A1.41,1.41,0,0,0,128.06,104.83Zm10.65,1.91-.19-.72a3.91,3.91,0,0,1-1.14.71,3.46,3.46,0,0,1-1.26.26,2.66,2.66,0,0,1-1.9-.67,2.58,2.58,0,0,1-.32-3.14,2.52,2.52,0,0,1,1.1-.92,3.91,3.91,0,0,1,1.7-.34,7.71,7.71,0,0,1,1.69.21v-.8a1.34,1.34,0,0,0-.3-1,1.73,1.73,0,0,0-1.12-.27,9.78,9.78,0,0,0-2.9.49V99a6.34,6.34,0,0,1,1.49-.49,9.28,9.28,0,0,1,1.82-.18,3.62,3.62,0,0,1,2.41.66,2.63,2.63,0,0,1,.76,2.09v5.67Zm-1.93-1.32a2.08,2.08,0,0,0,.82-.17,3.21,3.21,0,0,0,.79-.48v-1.39a7.59,7.59,0,0,0-1.26-.12c-.93,0-1.39.38-1.39,1.12a.94.94,0,0,0,1,1Zm10.84,1.11a5.35,5.35,0,0,1-1.93.33,2.74,2.74,0,0,1-2-.64,2.67,2.67,0,0,1-.65-2v-3.95H141.8V98.85l1.3-.26.35-2.24h1.92v2.21h2.21v1.73h-2.21v3.84a.89.89,0,0,0,.25.72,1.39,1.39,0,0,0,.87.21,8.25,8.25,0,0,0,1.13-.1Zm3.19-3.31a2,2,0,0,0,.64,1.52,2.78,2.78,0,0,0,1.81.48,9.67,9.67,0,0,0,2.49-.4v1.55a5.45,5.45,0,0,1-1.33.45,8.53,8.53,0,0,1-1.61.16,4.09,4.09,0,0,1-3.1-1.11,5.4,5.4,0,0,1,0-6.41,3.8,3.8,0,0,1,2.93-1.14,3.26,3.26,0,0,1,2.44.87,3.41,3.41,0,0,1,.86,2.49c0,.24,0,.5-.05.8s-.07.54-.11.74Zm1.74-3.28a1.64,1.64,0,0,0-1.24.47,2.12,2.12,0,0,0-.52,1.37h3.14v-.28Q153.93,99.94,152.55,99.94Z"/></svg>