<svg xmlns="http://www.w3.org/2000/svg" width="200" height="128">
    <defs>
        <linearGradient id="a" x1="268.5" y1="-353.09" x2="118.5" y2="-353.09" gradientTransform="rotate(135 45.003 -165.003)" gradientUnits="userSpaceOnUse">
            <stop offset="0" stop-color="#c8511b"/>
            <stop offset="1" stop-color="#f90"/>
        </linearGradient>
    </defs>
    <path d="M78.85 90.74l-1-2.95h-4.59l-1 2.95h-1.67l4.1-11.09h1.76l4.09 11.09zm-5.17-4.18h3.73l-1.87-5.44zm18.58 4.18v-5.51a1.83 1.83 0 00-.26-1.18 1.13 1.13 0 00-1-.39 4.49 4.49 0 00-2.35.72 1.94 1.94 0 010 .24v6.12h-1.58v-5.51a1.9 1.9 0 00-.3-1.18 1.13 1.13 0 00-1-.39 4.35 4.35 0 00-2.34.71v6.37h-1.54v-8.12h1.33l.16.82a5.32 5.32 0 013-1.06 2 2 0 012 1.14 5.43 5.43 0 013.17-1.14 2.23 2.23 0 011.7.63 2.49 2.49 0 01.59 1.77v6zm8.68 0l-.12-.84a4.2 4.2 0 01-1.28.77 3.76 3.76 0 01-1.38.27 2.54 2.54 0 01-1.82-.64 2.31 2.31 0 01-.68-1.74 2.28 2.28 0 01.84-1.86 3.34 3.34 0 012.24-.7 8.38 8.38 0 012 .27v-1a1.59 1.59 0 00-.39-1.22 2 2 0 00-1.35-.4 8.71 8.71 0 00-2.81.49V83a5.17 5.17 0 011.41-.47 8.55 8.55 0 011.68-.17 3.29 3.29 0 012.24.64 2.42 2.42 0 01.72 1.92v5.8zm-2.4-1a3.75 3.75 0 002.21-.81V87.3a6.86 6.86 0 00-1.69-.21c-1.21 0-1.81.46-1.81 1.39a1.27 1.27 0 00.33.94 1.37 1.37 0 00.96.32zm5.46 1v-1.22l4.66-5.65h-4.5v-1.25h6.26v1.2l-4.72 5.67h4.76v1.25zm11.52.24a3.63 3.63 0 01-2.85-1.14 5.4 5.4 0 010-6.32 4.13 4.13 0 015.7 0 5.4 5.4 0 010 6.32 3.63 3.63 0 01-2.85 1.16zm0-1.28c1.5 0 2.26-1 2.26-3s-.76-3-2.26-3-2.26 1-2.26 3 .74 3 2.26 3zm11.31 1v-5.39a1.9 1.9 0 00-.34-1.25 1.37 1.37 0 00-1.08-.4 4.45 4.45 0 00-2.48.82v6.26h-1.59v-8.12h1.33l.16.9a5.27 5.27 0 013.2-1.14 2.41 2.41 0 011.78.62 2.46 2.46 0 01.61 1.78v6zm-93.44 16V95.65h7.3v1.85h-4.9v2.63h4V102h-4v2.9h4.9v1.86zm12.69-.16a3.84 3.84 0 01-1.44.27c-1.44 0-2.16-.81-2.16-2.42V94.9h2.34v9.34a1 1 0 00.15.63.59.59 0 00.5.19 5.86 5.86 0 00.61 0zm6.29.16l-.19-.72a4 4 0 01-1.15.71 3.41 3.41 0 01-1.25.26 2.66 2.66 0 01-1.9-.67 2.36 2.36 0 01-.71-1.79 2.45 2.45 0 01.38-1.35 2.6 2.6 0 011.11-.92 3.86 3.86 0 011.69-.34 7.72 7.72 0 011.7.21v-.8a1.34 1.34 0 00-.3-1 1.76 1.76 0 00-1.13-.27 9.77 9.77 0 00-2.89.49V99a6.19 6.19 0 011.49-.49 9.13 9.13 0 011.78-.19 3.63 3.63 0 012.41.66 2.63 2.63 0 01.76 2.09v5.67zm-1.94-1.32a2.13 2.13 0 00.83-.17 3.41 3.41 0 00.79-.48v-1.39a7.59 7.59 0 00-1.26-.12c-.93 0-1.4.38-1.4 1.12a1 1 0 001 1zm9.46-.94a.68.68 0 00-.18-.5 2.78 2.78 0 00-.75-.38l-1.25-.5a3.22 3.22 0 01-1.41-.94 2.31 2.31 0 01-.43-1.42 2.1 2.1 0 01.88-1.7 3.74 3.74 0 012.32-.66 5.81 5.81 0 012.48.53v1.55a8.07 8.07 0 00-2.27-.37 2.25 2.25 0 00-1 .16.54.54 0 00-.3.51.56.56 0 00.18.44 2.61 2.61 0 00.78.41l1.21.5a3.39 3.39 0 011.42.93 2.13 2.13 0 01.42 1.37 2.33 2.33 0 01-.9 1.91 3.66 3.66 0 01-2.38.73 6.3 6.3 0 01-2.91-.65v-1.56a9.5 9.5 0 002.9.5c.8-.02 1.19-.3 1.19-.82zm8.51 2a5.41 5.41 0 01-1.94.33 2.73 2.73 0 01-2-.64 2.63 2.63 0 01-.65-2v-3.95h-1.23v-1.33l1.29-.26.35-2.24h1.92v2.21h2.21v1.73h-2.21v3.84a.89.89 0 00.26.72 1.37 1.37 0 00.86.21 8.39 8.39 0 001.14-.1zm2.67-9.23a1.4 1.4 0 01-1-.34 1.16 1.16 0 01-.37-.91 1.14 1.14 0 01.37-.91 1.35 1.35 0 011-.34 1.38 1.38 0 011 .34 1.17 1.17 0 01.37.91 1.19 1.19 0 01-.37.91 1.42 1.42 0 01-1 .43zm-1.17 9.44v-8.09h2.34v8.18zm10.55-.36a3.64 3.64 0 01-1 .4 5.88 5.88 0 01-1.27.13 3.9 3.9 0 01-3-1.09 5.21 5.21 0 01.06-6.3 4 4 0 013-1.14 4.54 4.54 0 012.16.52v1.55a6.36 6.36 0 00-1.73-.27 2.21 2.21 0 00-1.65.56 2.6 2.6 0 00-.52 1.8v.23a2.56 2.56 0 00.52 1.78 2.05 2.05 0 001.6.57 7.09 7.09 0 001.83-.29zm8.3.36v-9.08h-3.37v-1.92h9.15v1.92h-3.38v9.17zm6.29 0v-8.09H97l.29 1.22a4.31 4.31 0 011.21-1 2.51 2.51 0 011.2-.3 4.72 4.72 0 01.64 0v2.16a4.31 4.31 0 00-1-.1 4.92 4.92 0 00-1.93.37v5.78zm11.17 0L106 106a4 4 0 01-1.15.71 3.41 3.41 0 01-1.25.26 2.64 2.64 0 01-1.9-.67 2.36 2.36 0 01-.71-1.79 2.45 2.45 0 01.38-1.35 2.6 2.6 0 011.11-.92 3.86 3.86 0 011.69-.34 7.8 7.8 0 011.7.21v-.8a1.3 1.3 0 00-.31-1 1.71 1.71 0 00-1.12-.27 9.72 9.72 0 00-2.89.49V99a6.19 6.19 0 011.49-.49 9.13 9.13 0 011.82-.18 3.63 3.63 0 012.41.66 2.67 2.67 0 01.76 2.09v5.67zm-1.94-1.32a2.13 2.13 0 00.83-.17 3.41 3.41 0 00.79-.48v-1.39a7.61 7.61 0 00-1.27-.12c-.92 0-1.39.38-1.39 1.12a1 1 0 00.27.77 1.06 1.06 0 00.77.36zm11.23 1.32v-5.36a1.36 1.36 0 00-.28-1 1.15 1.15 0 00-.88-.31 3.21 3.21 0 00-1.75.55v6.08h-2.33v-8.05h1.92l.22.88a4.89 4.89 0 013.07-1.12 2.16 2.16 0 012.37 2.37v6zm8-2.26a.68.68 0 00-.18-.5 2.63 2.63 0 00-.75-.38l-1.25-.5a3.12 3.12 0 01-1.4-.94 2.25 2.25 0 01-.44-1.42 2.1 2.1 0 01.88-1.76 3.74 3.74 0 012.32-.66 5.81 5.81 0 012.48.53v1.55a8 8 0 00-2.27-.37 2.25 2.25 0 00-1 .16.54.54 0 00-.3.51.56.56 0 00.18.44 2.61 2.61 0 00.78.41l1.21.5a3.33 3.33 0 011.42.93 2.13 2.13 0 01.42 1.37 2.33 2.33 0 01-.9 1.91 3.64 3.64 0 01-2.38.73 6.33 6.33 0 01-2.91-.65v-1.56a9.5 9.5 0 002.9.5c.83.09 1.21-.19 1.21-.71zm9.55 1.9a3.53 3.53 0 01-1 .4 5.73 5.73 0 01-1.26.13 3.92 3.92 0 01-3-1.09 5.21 5.21 0 01.06-6.3 4 4 0 013-1.14 4.54 4.54 0 012.16.52v1.55a6.24 6.24 0 00-1.72-.27 2.18 2.18 0 00-1.65.56 2.6 2.6 0 00-.53 1.8v.23a2.56 2.56 0 00.52 1.78 2.08 2.08 0 001.61.57 7 7 0 001.82-.29zm5.14.6a3.91 3.91 0 01-3-1.15 5.28 5.28 0 010-6.37 4.45 4.45 0 016 0 5.24 5.24 0 010 6.37 3.87 3.87 0 01-2.98 1.26zm0-1.8c1.12 0 1.68-.84 1.68-2.54s-.56-2.53-1.68-2.53-1.68.85-1.68 2.53.58 2.63 1.7 2.63zm11.39 1.56l-.19-.72a3.42 3.42 0 01-2.35.89 3.2 3.2 0 01-1.78-.5 3.31 3.31 0 01-1.19-1.47 5.57 5.57 0 01-.43-2.25 5 5 0 011-3.18 3 3 0 012.49-1.19 3.48 3.48 0 012.2.72V94.9h2.33v11.84zm-1.78-1.59a2.7 2.7 0 001.48-.45v-4.22a3.08 3.08 0 00-1.59-.4 1.41 1.41 0 00-1.26.63 3.49 3.49 0 00-.42 1.91 3.37 3.37 0 00.44 1.91 1.57 1.57 0 001.37.71zm7.8-1.93a2 2 0 00.64 1.52 2.77 2.77 0 001.8.48 9.68 9.68 0 002.5-.4v1.55a5.39 5.39 0 01-1.34.45 8.35 8.35 0 01-1.6.16 4.09 4.09 0 01-3.1-1.11 5.4 5.4 0 010-6.41 3.8 3.8 0 012.93-1.14 3.26 3.26 0 012.44.87 3.41 3.41 0 01.86 2.49c0 .24 0 .5-.05.8s-.07.54-.11.74zm1.74-3.28a1.62 1.62 0 00-1.24.47 2.12 2.12 0 00-.52 1.37h3.14v-.28q.02-1.47-1.36-1.47zm5.17 6.8v-8.09h1.92l.29 1.22a4.28 4.28 0 011.2-1 2.58 2.58 0 011.21-.3 4.85 4.85 0 01.64 0v2.16a4.37 4.37 0 00-1-.1 5 5 0 00-1.94.37v5.78z" fill="#333"/>
    <path d="M73 19h54v54H73z" fill="url(#a)"/>
    <path d="M111.7 51.8a6 6 0 00-6 5.3L97.3 54v-3.3L106 47a6.07 6.07 0 0011.4-4.2 6.15 6.15 0 00-4.5-3.9 5.54 5.54 0 00-3.9-2.6c-.4-2.7-2.2-4-3.9-4a3.77 3.77 0 00-2.1.7 7.25 7.25 0 00-1.8-2.5 8 8 0 00-9-1.8 8.32 8.32 0 00-4.7 7.4v.3a5.62 5.62 0 00-3.9 5.6 5.92 5.92 0 00.7 2.9l1.3-.6a4.56 4.56 0 01-.5-2.3 4.31 4.31 0 013.3-4.4.76.76 0 00.4-.2 1.06 1.06 0 00.2-.5c0-.3-.1-.6-.1-.8a6.91 6.91 0 013.9-6 6.24 6.24 0 017.3 1.4 8.94 8.94 0 011.9 3.1.7.7 0 001 .4c.1-.1.2-.1.3-.2a2.53 2.53 0 011.8-1c1.2 0 2.3.9 2.5 3.1a.56.56 0 00.6.7 5.17 5.17 0 012.8 1.3 6.33 6.33 0 00-5.5 6.1 1.7 1.7 0 00.1.7l-8.3 3.5v-2.4a.71.71 0 00-.8-.7H82.9a.85.85 0 00-.8.7V59c0 .4.3.7.8.8h13.6c.4 0 .7-.3.8-.8v-3.4l8.3 3a6.15 6.15 0 0012.2-1.5 6.15 6.15 0 00-6.1-5.3zm0-11.6a4.7 4.7 0 110 9.4 4.55 4.55 0 01-4.6-4.7 4.74 4.74 0 014.6-4.7zm-15.8 18H83.7V47.4h12.2zm15.8 4.4a4.55 4.55 0 01-4.6-4.7 4.65 4.65 0 119.3 0 4.83 4.83 0 01-4.7 4.7zm-25.2-5.7c-.1 0-.3 0-.3-.1a.82.82 0 01-.4-.6v-6.7c0-.2.1-.5.4-.5a.85.85 0 01.7 0l6.4 3.3a.82.82 0 01.4.6.87.87 0 01-.4.7l-6.4 3.3zm.8-6.1V55l4.1-2.1zm23-2.6a.71.71 0 01-.7-.8v-5a.6.6 0 01.3-.6 1.1 1.1 0 01.8 0l4.6 2.5a.82.82 0 01.4.6.87.87 0 01-.4.7l-4.6 2.5a.6.6 0 01-.4.1zm.7-4.6v2.7l2.5-1.3zm-.7 17.5a.68.68 0 01-.7-.7v-5a.91.91 0 01.3-.7 1.1 1.1 0 01.8 0l4.6 2.5a.84.84 0 01.4.7.55.55 0 01-.4.6l-4.6 2.5a.6.6 0 01-.4.1zm.7-4.5v2.6l2.5-1.2z" fill="#fff"/>
</svg>
