<svg xmlns="http://www.w3.org/2000/svg" width="200" height="128">
	<path d="M78.475 58.761a17.924 17.924 0 0 0 1.068 2.4 1.444 1.444 0 0 1 .233.767 1.32 1.32 0 0 1-.634 1l-2.1 1.4a1.6 1.6 0 0 1-.868.3 1.539 1.539 0 0 1-1-.467 10.375 10.375 0 0 1-1.2-1.569c-.334-.567-.667-1.2-1.035-1.968a12.326 12.326 0 0 1-9.81 4.6 9.145 9.145 0 0 1-6.675-2.4 8.572 8.572 0 0 1-2.469-6.407 8.588 8.588 0 0 1 3.037-6.874 12.134 12.134 0 0 1 8.176-2.6 26.4 26.4 0 0 1 3.537.267c1.234.167 2.5.434 3.837.734v-2.431c0-2.536-.534-4.3-1.568-5.339-1.068-1.035-2.87-1.536-5.439-1.536a15.2 15.2 0 0 0-3.6.434 26.7 26.7 0 0 0-3.6 1.135 9.778 9.778 0 0 1-1.168.434 2.085 2.085 0 0 1-.534.1c-.468 0-.7-.334-.7-1.035v-1.635a2.121 2.121 0 0 1 .233-1.168 2.515 2.515 0 0 1 .935-.7 19.212 19.212 0 0 1 4.2-1.5 20.219 20.219 0 0 1 5.205-.634c3.971 0 6.875.9 8.743 2.7 1.836 1.8 2.77 4.538 2.77 8.209 0 0-.047 9.771 0 10.812a13.07 13.07 0 0 0 .426 2.971zm-13.916 2.1a10.83 10.83 0 0 0 3.438-.6 7.444 7.444 0 0 0 3.17-2.136 5.292 5.292 0 0 0 1.133-2.134 11.943 11.943 0 0 0 .334-2.9v-1.4a28.136 28.136 0 0 0-3.07-.567 25.235 25.235 0 0 0-3.137-.2 7.692 7.692 0 0 0-4.972 1.335 4.651 4.651 0 0 0-1.635 3.837 4.306 4.306 0 0 0 4.738 4.772zm29.667 3.6a2.068 2.068 0 0 0 1.335-.334A2.6 2.6 0 0 0 96.2 62.8l5.139-21.491 5.172 21.524a2.372 2.372 0 0 0 .634 1.335 2.012 2.012 0 0 0 1.335.334h2.87a2.137 2.137 0 0 0 1.268-.334 2.563 2.563 0 0 0 .7-1.3l8.042-25.795a4.747 4.747 0 0 0 .233-.834 3.256 3.256 0 0 0 .067-.534.742.742 0 0 0-.834-.834h-3.1a2.181 2.181 0 0 0-1.3.333 2.86 2.86 0 0 0-.667 1.3l-5.773 22.358L104.7 36.5a2.25 2.25 0 0 0-.634-1.3 2.013 2.013 0 0 0-1.335-.333h-2.669a2.3 2.3 0 0 0-1.335.333 2.344 2.344 0 0 0-.634 1.3l-5.202 22.094L87.285 36.5a2.743 2.743 0 0 0-.668-1.3 1.851 1.851 0 0 0-1.3-.333h-3.27a.732.732 0 0 0-.8.834 5.865 5.865 0 0 0 .3 1.335l7.842 25.8a2.715 2.715 0 0 0 .7 1.3 1.86 1.86 0 0 0 1.268.334zm44.783.2a10.74 10.74 0 0 0 3.7-1.868 8.983 8.983 0 0 0 2.436-2.937 8.584 8.584 0 0 0 .868-3.871 7.555 7.555 0 0 0-1.535-4.672 10.15 10.15 0 0 0-5.173-3.2l-4.738-1.5a9.959 9.959 0 0 1-3.671-1.835 3.149 3.149 0 0 1-1-2.37 3.223 3.223 0 0 1 1.568-2.97 8.614 8.614 0 0 1 4.438-.934 15.281 15.281 0 0 1 6.408 1.3 3.472 3.472 0 0 0 1.268.4c.5 0 .767-.367.767-1.068v-1.565a1.8 1.8 0 0 0-.3-1.1 2.888 2.888 0 0 0-1-.834 7.349 7.349 0 0 0-1.4-.6c-.6-.2-1.235-.367-1.9-.533-.7-.134-1.4-.267-2.169-.368a16.773 16.773 0 0 0-2.238-.136 14.564 14.564 0 0 0-4.2.567 10.6 10.6 0 0 0-3.47 1.736 8.582 8.582 0 0 0-2.4 2.736 7.433 7.433 0 0 0-.9 3.7 7.955 7.955 0 0 0 1.669 4.839 10.184 10.184 0 0 0 5.339 3.4l4.839 1.5a8.376 8.376 0 0 1 3.37 1.735 3.251 3.251 0 0 1 .9 2.336 3.6 3.6 0 0 1-1.735 3.171 9.007 9.007 0 0 1-4.872 1.1 20.038 20.038 0 0 1-3.971-.4 18.125 18.125 0 0 1-3.671-1.168c-.334-.133-.634-.267-.834-.333a1.884 1.884 0 0 0-.6-.1c-.5 0-.767.333-.767 1.034v1.7a2.344 2.344 0 0 0 .2.934 2.4 2.4 0 0 0 1.034.935 15.226 15.226 0 0 0 3.838 1.335 22.1 22.1 0 0 0 5.139.6 15.844 15.844 0 0 0 4.763-.69z" fill="#252f3e"/>
	<path d="M140.544 81.586C129.565 89.7 113.614 94 99.9 94a73.531 73.531 0 0 1-49.623-18.921c-1.035-.934-.1-2.2 1.135-1.468a100.072 100.072 0 0 0 49.655 13.181 99.085 99.085 0 0 0 37.875-7.742c1.835-.834 3.404 1.201 1.602 2.536zm1.668 7.308c-.4 1 .468 1.4 1.369.634 5.873-4.938 7.408-15.25 6.207-16.752-1.2-1.468-11.513-2.736-17.787 1.669-.968.7-.8 1.635.267 1.5 3.571-.434 11.446-1.369 12.848.433 1.401 1.771-1.569 9.213-2.904 12.516z" fill="#f90"/>
</svg>
