<svg xmlns="http://www.w3.org/2000/svg" width="200" height="128">
    <path fill="#333333" d="M91.65 90.74l-1-2.95h-4.59l-1 2.95h-1.67l4.1-11.09h1.76l4.09 11.09zm-5.17-4.18h3.73l-1.87-5.44zM102.32 90.74l-2.1-8.69-2.11 8.69h-1.82l-3.23-11.09h1.77l2.39 9.29 2.12-9h1.8l2.12 9 2.4-9.31h1.72l-3.24 11.09zM111.07 85.47a4.51 4.51 0 01-1.9-1.2 2.63 2.63 0 01-.59-1.77 3 3 0 01.44-1.6 3.09 3.09 0 011.29-1.09 4.52 4.52 0 012-.4 8.39 8.39 0 013 .57v1.3a10 10 0 00-2.85-.5 2.68 2.68 0 00-1.61.43 1.4 1.4 0 00-.56 1.21 1.33 1.33 0 00.38 1 4.07 4.07 0 001.42.76l1.46.55a4.31 4.31 0 011.86 1.16 2.61 2.61 0 01.57 1.75 3 3 0 01-1.1 2.45 4.5 4.5 0 01-2.95.91 7.29 7.29 0 01-3.2-.66v-1.27a9.87 9.87 0 003.17.56 2.85 2.85 0 001.78-.49 1.59 1.59 0 00.65-1.35 1.36 1.36 0 00-.37-1 3.73 3.73 0 00-1.28-.75zM54.87 100.52a4.6 4.6 0 01-2-1.29 3.2 3.2 0 01.48-4.33 4.67 4.67 0 013-.89 8.6 8.6 0 013.07.57v1.83a9.85 9.85 0 00-2.88-.48c-1.26 0-1.89.4-1.89 1.21a.94.94 0 00.33.74 4.34 4.34 0 001.22.61l1.19.43a5.13 5.13 0 012.12 1.27 2.81 2.81 0 01.63 1.9 3.19 3.19 0 01-1.18 2.6 5.09 5.09 0 01-3.25 1 9.78 9.78 0 01-1.79-.17 6.89 6.89 0 01-1.54-.45v-1.83a13.45 13.45 0 001.71.39 11.47 11.47 0 001.65.14 2.72 2.72 0 001.46-.34 1.12 1.12 0 00.51-1 1 1 0 00-.31-.78 4.15 4.15 0 00-1.26-.64zM63.66 101.85a2 2 0 00.64 1.53 2.83 2.83 0 001.8.47 9.68 9.68 0 002.5-.4V105a5.45 5.45 0 01-1.33.45 8.53 8.53 0 01-1.61.16 4.09 4.09 0 01-3.1-1.11 4.46 4.46 0 01-1.06-3.23 4.52 4.52 0 011-3.18A3.8 3.8 0 0165.48 97a3.26 3.26 0 012.44.87 3.41 3.41 0 01.86 2.49v.8a7.08 7.08 0 01-.11.74zm1.74-3.28a1.66 1.66 0 00-1.24.47 2.12 2.12 0 00-.52 1.37h3.14v-.27c0-1.05-.46-1.57-1.38-1.57zM76.47 105a3.52 3.52 0 01-1 .39 5.73 5.73 0 01-1.26.13 4 4 0 01-3-1.08 5.23 5.23 0 01.06-6.31 4 4 0 013-1.13 4.65 4.65 0 012.16.51v1.55a6.24 6.24 0 00-1.72-.27 2.14 2.14 0 00-1.65.57 2.56 2.56 0 00-.53 1.8v.22a2.54 2.54 0 00.52 1.78 2.08 2.08 0 001.61.57 6.62 6.62 0 001.82-.29zM83.58 105.37l-.23-.87a4.77 4.77 0 01-3 1.11 2.23 2.23 0 01-1.7-.65 2.48 2.48 0 01-.61-1.78v-6h2.34v5.33c0 .86.37 1.3 1.12 1.3a3 3 0 001.63-.52v-6.1h2.37v8.18zM87.74 105.37v-8.18h1.92l.28 1.22a4.45 4.45 0 011.21-1 2.55 2.55 0 011.21-.3 4.85 4.85 0 01.64 0v2.16a5 5 0 00-1-.1 5.19 5.19 0 00-1.94.37v5.78zM95.45 95.93a1.38 1.38 0 01-1-.34 1.3 1.3 0 010-1.82 1.38 1.38 0 011-.34 1.35 1.35 0 011 .34 1.3 1.3 0 010 1.82 1.35 1.35 0 01-1 .34zm-1.17 9.44v-8.18h2.34v8.18zM103.78 105.16a5.35 5.35 0 01-1.93.34 2.79 2.79 0 01-2-.64 2.71 2.71 0 01-.65-2v-4H98v-1.38l1.3-.26.31-2.22h1.92v2.21h2.21v1.73h-2.21v3.84a.89.89 0 00.25.72 1.39 1.39 0 00.87.21 6.93 6.93 0 001.13-.1zM107.88 105.5l-3.23-8.31h2.48l1.87 6.11 1.73-6.11h2.42l-3.46 9.28a4.3 4.3 0 01-1.14 1.83 2.55 2.55 0 01-1.69.56 4.76 4.76 0 01-1.55-.26V107h.91a1.56 1.56 0 001-.31 2.46 2.46 0 00.62-1.08zM125.45 105.37v-4.72H121v4.72h-2.4V94.28h2.4v4.51h4.42v-4.51h2.4v11.09zM135.69 105.37l-.23-.87a4.77 4.77 0 01-3 1.11 2.23 2.23 0 01-1.7-.65 2.53 2.53 0 01-.61-1.78v-6h2.34v5.33c0 .86.37 1.3 1.12 1.3a3 3 0 001.63-.52v-6.1h2.34v8.18zM139.85 105.37V93.53h2.33v4.29a3.65 3.65 0 012.32-.82 3 3 0 012.5 1.09 4.81 4.81 0 01.9 3.07 5.8 5.8 0 01-.41 2.26 3.64 3.64 0 01-1.2 1.56 3.06 3.06 0 01-1.81.56 3.72 3.72 0 01-1.38-.25 3 3 0 01-1.07-.72l-.21.8zm3.9-6.66a3.14 3.14 0 00-1.57.43v4.21a2.94 2.94 0 001.57.43 1.5 1.5 0 001.32-.6 3.45 3.45 0 00.43-1.92 3.49 3.49 0 00-.42-1.94 1.49 1.49 0 00-1.33-.61z"/>
    <path fill="#212f42" d="M122 55.34a4.69 4.69 0 00-6 .68l-4.38-2.92a13.63 13.63 0 00-.06-14.44l4.44-3a4.68 4.68 0 002.49 1.38 4.88 4.88 0 00.93.09 4.68 4.68 0 003.89-7.28 4.59 4.59 0 00-3-2 4.65 4.65 0 00-3.52.69 4.7 4.7 0 00-1.68 5.81l-4.48 3a13.68 13.68 0 00-9.88-5.1v-3.79a4.69 4.69 0 10-1.58 0v3.81a13.7 13.7 0 00-9.82 5L85 34.39a4.69 4.69 0 00-1.68-5.81 4.68 4.68 0 10-2.6 8.59 4.88 4.88 0 00.93-.09 4.65 4.65 0 002.48-1.38l4.32 2.88a13.65 13.65 0 00-.06 14.61L84.12 56a4.68 4.68 0 00-7.3 5.82 4.62 4.62 0 003 2 4.2 4.2 0 00.93.1 4.61 4.61 0 002.58-.79 4.68 4.68 0 001.67-5.8l4.3-2.86a13.69 13.69 0 009.89 5.12v3.8a4.69 4.69 0 101.58 0v-3.8a13.69 13.69 0 009.95-5.2l4.41 2.94a4.69 4.69 0 004.27 6.6 4.2 4.2 0 00.93-.1 4.62 4.62 0 003-2 4.7 4.7 0 00-1.33-6.49zm-4.33-25.45a3.12 3.12 0 014.32.87 3.12 3.12 0 01-3.2 4.78 3.12 3.12 0 01-1.12-5.65zm-36.34 5.65a3.07 3.07 0 01-2.33-.47 3.12 3.12 0 01-1.33-2 3.07 3.07 0 01.47-2.34 3.12 3.12 0 012-1.33 3.34 3.34 0 01.62-.06 3.12 3.12 0 01.61 6.17zm1.11 26.29a3.11 3.11 0 01-2.34.46 3 3 0 01-2-1.33 3.11 3.11 0 114.31.87zm14.42-38A3.11 3.11 0 11100 27a3.12 3.12 0 01-3.14-3.15zM103.08 68a3.11 3.11 0 11-3.08-3.1 3.11 3.11 0 013.08 3.1zM100 58a12.11 12.11 0 1112.11-12.11A12.13 12.13 0 01100 58zm22 3a3 3 0 01-2 1.33 3.11 3.11 0 112-1.33z"/>
    <path fill="#212f42" d="M108.08 39.38L100 35.63l-8.11 3.75v.48c0 .82-.27 8 .51 10.16.56 1.51 2.26 6.11 7.62 6.11s7.06-4.6 7.62-6.11c.79-2.12.54-9.34.51-10.16zm-2 10.1c-.87 2.36-2.36 5.07-6.14 5.07s-5.27-2.71-6.14-5.07c-.54-1.45-.5-6.65-.43-9.08l6.57-3 6.57 3c.1 2.43.14 7.6-.4 9.08z"/>
    <path fill="#212f42" d="M104.63 43L100 40.82 95.32 43v.45c-.09 1-.5 6.13.82 7.67s2.12 2.39 3.87 2.39c1.76 0 2.58-.87 3.88-2.39s.9-6.66.81-7.67zm-7.35 7.1c-.55-.65-.67-3.56-.48-6.06l2.38-1.13v8.91c-.54-.18-1.01-.66-1.9-1.7zm5.38 0c-.89 1-1.35 1.52-1.9 1.72v-8.89l2.38 1.13c.19 2.5.07 5.41-.48 6.06z"/>
</svg>
