<svg xmlns="http://www.w3.org/2000/svg" width="200" height="128">
	<defs>
		<linearGradient id="a" x1="-316.03" y1="-120.03" x2="-209.97" y2="-13.97" gradientTransform="rotate(-90 -25 -165)" gradientUnits="userSpaceOnUse">
			<stop offset="0" stop-color="#c8511b"/>
			<stop offset="1" stop-color="#f90"/>
		</linearGradient>
	</defs>
	<path d="m91.91 90.74-1-2.86H86.5l-1 2.86h-1.59l4-10.74h1.7l4 10.74zm-5-4h3.61l-1.82-5.32zm15.35 4-2-8.42-2 8.42H96.4L93.27 80H95l2.31 9 2.07-8.7h1.73l2.05 8.7 2.33-9h1.66L104 90.74zm8.48-5.1a4.34 4.34 0 0 1-1.85-1.17 2.57 2.57 0 0 1-.57-1.72 2.77 2.77 0 0 1 .43-1.54 3 3 0 0 1 1.25-1.06 4.37 4.37 0 0 1 1.91-.39 8.12 8.12 0 0 1 2.87.56v1.26a9.54 9.54 0 0 0-2.78-.48 2.49 2.49 0 0 0-1.55.41 1.36 1.36 0 0 0-.55 1.17 1.3 1.3 0 0 0 .37 1 4.1 4.1 0 0 0 1.38.74l1.41.52a4.2 4.2 0 0 1 1.8 1.13 2.54 2.54 0 0 1 .55 1.7 2.92 2.92 0 0 1-1.06 2.37 4.33 4.33 0 0 1-2.86.88 7 7 0 0 1-3.1-.64v-1.26a9.54 9.54 0 0 0 3.07.55 2.8 2.8 0 0 0 1.73-.48 1.56 1.56 0 0 0 .63-1.31 1.29 1.29 0 0 0-.37-.95 3.54 3.54 0 0 0-1.23-.72zm-90.94 20.6V95.5h7.07v1.79h-4.76v2.54H26v1.8h-3.89v2.81h4.75v1.8zm12.29-.16a3.58 3.58 0 0 1-1.39.26q-2.1 0-2.1-2.34v-9.23h2.27v9a1 1 0 0 0 .14.61.6.6 0 0 0 .49.18 5.36 5.36 0 0 0 .59 0zm6.09.16-.18-.7a3.71 3.71 0 0 1-1.11.69 3.25 3.25 0 0 1-1.22.25 2.56 2.56 0 0 1-1.84-.65 2.26 2.26 0 0 1-.69-1.73 2.32 2.32 0 0 1 .38-1.31 2.37 2.37 0 0 1 1.07-.89 3.78 3.78 0 0 1 1.64-.33 7.86 7.86 0 0 1 1.64.2V101a1.32 1.32 0 0 0-.29-1 1.72 1.72 0 0 0-1.09-.26 9.41 9.41 0 0 0-2.8.48v-1.49a5.93 5.93 0 0 1 1.44-.47 8.71 8.71 0 0 1 1.77-.18 3.49 3.49 0 0 1 2.33.65 2.55 2.55 0 0 1 .73 2v5.49zM36.3 105a1.94 1.94 0 0 0 .79-.17 2.76 2.76 0 0 0 .77-.46V103a8.1 8.1 0 0 0-1.22-.11c-.9 0-1.35.36-1.35 1.09a.91.91 0 0 0 1 1zm9.16-.91a.62.62 0 0 0-.18-.48 2.29 2.29 0 0 0-.72-.37l-1.21-.48a3.1 3.1 0 0 1-1.35-.96 2.24 2.24 0 0 1-.41-1.38 2 2 0 0 1 .84-1.69 3.63 3.63 0 0 1 2.26-.65 5.68 5.68 0 0 1 2.4.51v1.51a7.58 7.58 0 0 0-2.2-.36 2 2 0 0 0-.93.16.52.52 0 0 0-.3.49.55.55 0 0 0 .18.43 2.7 2.7 0 0 0 .75.39l1.18.49a3.22 3.22 0 0 1 1.37.89 2 2 0 0 1 .41 1.34 2.27 2.27 0 0 1-.87 1.85 3.57 3.57 0 0 1-2.3.7 6 6 0 0 1-2.82-.63v-1.5a9.41 9.41 0 0 0 2.8.48c.72 0 1.1-.26 1.1-.78zm8.24 2a5.28 5.28 0 0 1-1.87.32 2.7 2.7 0 0 1-1.95-.62 2.58 2.58 0 0 1-.63-1.92V100h-1.19v-1.4l1.26-.24.34-2.17h1.86v2.14h2.14V100h-2.14v3.72a.85.85 0 0 0 .25.7 1.34 1.34 0 0 0 .83.2 7.72 7.72 0 0 0 1.1-.09zm2.59-9a1.35 1.35 0 0 1-.94-.32 1.15 1.15 0 0 1-.36-.89 1.13 1.13 0 0 1 .36-.88 1.31 1.31 0 0 1 .94-.33 1.36 1.36 0 0 1 1 .33 1.16 1.16 0 0 1 .35.88 1.18 1.18 0 0 1-.35.89 1.4 1.4 0 0 1-1 .32zm-1.13 9.15v-7.92h2.26v7.92zm10.21-.34a3.54 3.54 0 0 1-1 .38 6.18 6.18 0 0 1-1.23.13 3.78 3.78 0 0 1-2.89-1.06 5 5 0 0 1 .06-6.1 3.82 3.82 0 0 1 2.93-1.1 4.5 4.5 0 0 1 2.09.49v1.5a6.32 6.32 0 0 0-1.68-.26 2.06 2.06 0 0 0-1.59.55 2.52 2.52 0 0 0-.51 1.75v.21a2.48 2.48 0 0 0 .5 1.73 2 2 0 0 0 1.56.55 6.56 6.56 0 0 0 1.76-.28zm5.83.34V95.5h2.33v8.88h4.71v1.86zm11.78.23a3.74 3.74 0 0 1-2.88-1.11 5.1 5.1 0 0 1 0-6.17 4.29 4.29 0 0 1 5.76 0 5.1 5.1 0 0 1 0 6.17 3.74 3.74 0 0 1-2.86 1.11zm0-1.74c1.09 0 1.63-.82 1.63-2.46s-.54-2.45-1.63-2.45-1.63.82-1.63 2.45.55 2.46 1.65 2.46zm10.23 1.51-.18-.7a3.71 3.71 0 0 1-1.11.69 3.25 3.25 0 0 1-1.22.25 2.56 2.56 0 0 1-1.84-.65 2.26 2.26 0 0 1-.69-1.73 2.32 2.32 0 0 1 .38-1.31 2.37 2.37 0 0 1 1.07-.89 3.78 3.78 0 0 1 1.64-.33 7.86 7.86 0 0 1 1.64.2V101a1.32 1.32 0 0 0-.29-1 1.72 1.72 0 0 0-1.09-.26 9.41 9.41 0 0 0-2.8.48v-1.49a5.93 5.93 0 0 1 1.44-.47 8.71 8.71 0 0 1 1.77-.18 3.49 3.49 0 0 1 2.33.65 2.55 2.55 0 0 1 .73 2v5.49zM91.34 105a1.94 1.94 0 0 0 .79-.17 2.76 2.76 0 0 0 .77-.46V103a8.1 8.1 0 0 0-1.22-.11c-.9 0-1.35.36-1.35 1.09a.91.91 0 0 0 1 1zm11.14 1.28-.19-.7a3.27 3.27 0 0 1-2.27.87 3.1 3.1 0 0 1-1.72-.49 3.16 3.16 0 0 1-1.16-1.42 5.45 5.45 0 0 1-.41-2.19 4.8 4.8 0 0 1 .92-3.07 2.91 2.91 0 0 1 2.41-1.16 3.41 3.41 0 0 1 2.13.7v-4h2.26v11.47zm-1.72-1.54a2.62 2.62 0 0 0 1.43-.43v-4.09a3 3 0 0 0-1.54-.39 1.35 1.35 0 0 0-1.22.61 3.4 3.4 0 0 0-.41 1.85 3.28 3.28 0 0 0 .43 1.85 1.49 1.49 0 0 0 1.31.56zm10.08 1.54V95.5h3.85a3.79 3.79 0 0 1 2.51.79 2.55 2.55 0 0 1 1 2.06 2.45 2.45 0 0 1-.36 1.35 2.38 2.38 0 0 1-1.08.88 2.9 2.9 0 0 1 1.51 1 2.6 2.6 0 0 1 .52 1.65 2.7 2.7 0 0 1-1 2.22 4.41 4.41 0 0 1-2.79.82zm2.2-9.09V100h1.34c1 0 1.51-.46 1.51-1.39a1.24 1.24 0 0 0-1.38-1.43zm0 4.41v3h1.83c1 0 1.58-.5 1.58-1.49s-.57-1.53-1.69-1.53zm12 4.68-.19-.7a3.71 3.71 0 0 1-1.11.69 3.2 3.2 0 0 1-1.21.25 2.54 2.54 0 0 1-1.84-.65 2.26 2.26 0 0 1-.69-1.73 2.31 2.31 0 0 1 .37-1.31 2.48 2.48 0 0 1 1.07-.89 3.81 3.81 0 0 1 1.64-.33 7.87 7.87 0 0 1 1.65.2V101a1.27 1.27 0 0 0-.3-1 1.68 1.68 0 0 0-1.08-.26 9.47 9.47 0 0 0-2.81.48v-1.49a5.93 5.93 0 0 1 1.44-.47 8.71 8.71 0 0 1 1.77-.18 3.49 3.49 0 0 1 2.33.65 2.55 2.55 0 0 1 .74 2v5.49zm-1.9-1.28a2 2 0 0 0 .8-.17 2.91 2.91 0 0 0 .77-.46V103a8.34 8.34 0 0 0-1.23-.11c-.9 0-1.35.36-1.35 1.09a.92.92 0 0 0 1 1zm9.29 1.12a3.63 3.63 0 0 1-1.4.26c-1.39 0-2.09-.78-2.09-2.34v-9.27h2.26v9a1 1 0 0 0 .15.61.6.6 0 0 0 .49.18 5.56 5.56 0 0 0 .59 0zm6.09.16-.19-.7a3.71 3.71 0 0 1-1.11.69 3.2 3.2 0 0 1-1.21.25 2.54 2.54 0 0 1-1.84-.65 2.26 2.26 0 0 1-.69-1.73 2.31 2.31 0 0 1 .37-1.31 2.48 2.48 0 0 1 1.07-.89 3.81 3.81 0 0 1 1.64-.33 7.87 7.87 0 0 1 1.65.2V101a1.27 1.27 0 0 0-.3-1 1.68 1.68 0 0 0-1.08-.26 9.52 9.52 0 0 0-2.81.48v-1.49a6.08 6.08 0 0 1 1.44-.47 8.71 8.71 0 0 1 1.77-.18 3.47 3.47 0 0 1 2.33.65 2.55 2.55 0 0 1 .74 2v5.49zm-1.88-1.28a2 2 0 0 0 .8-.17 2.91 2.91 0 0 0 .77-.46V103a8.34 8.34 0 0 0-1.23-.11c-.9 0-1.35.36-1.35 1.09a.92.92 0 0 0 1 1zm10.88 1.28V101a1.31 1.31 0 0 0-.28-.93 1.13 1.13 0 0 0-.85-.29 3.16 3.16 0 0 0-1.69.53v5.89h-2.26v-7.88h1.86l.22.85a4.78 4.78 0 0 1 3-1.09 2.09 2.09 0 0 1 2.3 2.3v5.86zm10.12-.34a3.54 3.54 0 0 1-1 .38 6.18 6.18 0 0 1-1.23.13 3.78 3.78 0 0 1-2.89-1.06 5 5 0 0 1 .06-6.1 3.82 3.82 0 0 1 2.93-1.1 4.5 4.5 0 0 1 2.09.49v1.5a6.32 6.32 0 0 0-1.68-.26 2.06 2.06 0 0 0-1.59.55 2.52 2.52 0 0 0-.51 1.75v.21a2.48 2.48 0 0 0 .5 1.73 2 2 0 0 0 1.56.55 6.56 6.56 0 0 0 1.76-.28zm2.81-8.81a1.4 1.4 0 0 1-.95-.32 1.18 1.18 0 0 1-.35-.89 1.16 1.16 0 0 1 .35-.88 1.53 1.53 0 0 1 1.9 0 1.16 1.16 0 0 1 .35.88 1.18 1.18 0 0 1-.35.89 1.4 1.4 0 0 1-.95.28zm-1.13 9.15v-7.96h2.26v7.92zm9.58 0V101a1.36 1.36 0 0 0-.28-.93 1.15 1.15 0 0 0-.85-.29 3.14 3.14 0 0 0-1.69.53v5.89h-2.27v-7.88h1.86l.22.85a4.79 4.79 0 0 1 3-1.09 2.26 2.26 0 0 1 1.69.6 2.29 2.29 0 0 1 .6 1.7v5.86zm9.24-1a3.07 3.07 0 0 1-2.08.79 2.79 2.79 0 0 1-2.3-1.08 4.45 4.45 0 0 1-.86-2.88 4.66 4.66 0 0 1 .86-2.93 2.83 2.83 0 0 1 2.33-1.1 3.12 3.12 0 0 1 1.22.24 2.94 2.94 0 0 1 1 .68l.17-.68h1.86v7.3a3.67 3.67 0 0 1-4 4 6.42 6.42 0 0 1-2.85-.67v-1.52a9 9 0 0 0 2.65.48 2 2 0 0 0 1.48-.47 2.2 2.2 0 0 0 .46-1.54zm-1.38-.89a2.68 2.68 0 0 0 .72-.11 2.88 2.88 0 0 0 .66-.32v-3.82a2.9 2.9 0 0 0-1.49-.38c-1 0-1.49.76-1.49 2.29a3.18 3.18 0 0 0 .39 1.77 1.36 1.36 0 0 0 1.21.57z" fill="#333"/>
	<path d="M73 19h54v54H73z" fill="url(#a)"/>
	<path d="M108.6 46.7a4.54 4.54 0 0 0 5.2 3.7 4.28 4.28 0 0 0 3.6-5.1 4.55 4.55 0 0 0-5.1-3.7 4.46 4.46 0 0 0-3.7 3.7h-5.4a10.21 10.21 0 0 0-1-3.8l6.5-5.5a4.48 4.48 0 1 0-.7-6.3 4.68 4.68 0 0 0-.9 2.8 4.51 4.51 0 0 0 .7 2.5l-6.3 5.2A10.34 10.34 0 0 0 87 37.4a10.17 10.17 0 0 0-2.8 14.4 10.36 10.36 0 0 0 14.4 2.9 8.93 8.93 0 0 0 2.9-2.9l6.3 5.3a4.2 4.2 0 0 0-.7 2.4 4.45 4.45 0 1 0 8.9 0 4.4 4.4 0 0 0-4.5-4.4 5.47 5.47 0 0 0-2.8.9l-6.5-5.5a10.21 10.21 0 0 0 1-3.8zm4.5-3.7a3 3 0 0 1 3 3 3 3 0 0 1-6 0 2.89 2.89 0 0 1 3-3zm-1.5-13.6a3.05 3.05 0 1 1-3 3.1 3.16 3.16 0 0 1 3-3.1zm0 27.1a3 3 0 0 1 3 3 3.24 3.24 0 0 1-3 3.1 3.05 3.05 0 0 1 0-6.1zM92.9 55a9 9 0 1 1 9-9 9 9 0 0 1-9 9z" fill="#fff"/>
</svg>
