<svg xmlns="http://www.w3.org/2000/svg" width="200" height="128">
    <defs>
        <linearGradient id="a" x1="365.03" y1="-110.97" x2="258.97" y2="-217.03" gradientTransform="rotate(90 74 -165)" gradientUnits="userSpaceOnUse">
            <stop offset="0" stop-color="#2e27ad"/>
            <stop offset="1" stop-color="#527fff"/>
        </linearGradient>
    </defs>
    <path d="M78.85 90.74l-1-2.95h-4.59l-1 2.95h-1.67l4.1-11.09h1.76l4.09 11.09zm-5.17-4.18h3.73l-1.87-5.44zm18.58 4.18v-5.51a1.83 1.83 0 00-.26-1.18 1.13 1.13 0 00-1-.39 4.49 4.49 0 00-2.35.72 1.94 1.94 0 010 .24v6.12h-1.58v-5.51a1.9 1.9 0 00-.3-1.18 1.13 1.13 0 00-1-.39 4.35 4.35 0 00-2.34.71v6.37h-1.54v-8.12h1.33l.16.82a5.32 5.32 0 013-1.06 2 2 0 012 1.14 5.43 5.43 0 013.17-1.14 2.23 2.23 0 011.7.63 2.49 2.49 0 01.59 1.77v6zm8.68 0l-.12-.84a4.2 4.2 0 01-1.28.77 3.76 3.76 0 01-1.38.27 2.54 2.54 0 01-1.82-.64 2.31 2.31 0 01-.68-1.74 2.28 2.28 0 01.84-1.86 3.34 3.34 0 012.24-.7 8.38 8.38 0 012 .27v-1a1.59 1.59 0 00-.39-1.22 2 2 0 00-1.35-.4 8.71 8.71 0 00-2.81.49V83a5.17 5.17 0 011.41-.47 8.55 8.55 0 011.68-.17 3.29 3.29 0 012.24.64 2.42 2.42 0 01.72 1.92v5.8zm-2.4-1a3.75 3.75 0 002.21-.81V87.3a6.86 6.86 0 00-1.69-.21c-1.21 0-1.81.46-1.81 1.39a1.27 1.27 0 00.33.94 1.37 1.37 0 00.96.32zm5.46 1v-1.22l4.66-5.65h-4.5v-1.25h6.26v1.2l-4.72 5.67h4.76v1.25zm11.52.24a3.63 3.63 0 01-2.85-1.14 5.4 5.4 0 010-6.32 4.13 4.13 0 015.7 0 5.4 5.4 0 010 6.32 3.63 3.63 0 01-2.85 1.16zm0-1.28c1.5 0 2.26-1 2.26-3s-.76-3-2.26-3-2.26 1-2.26 3 .74 3 2.26 3zm11.31 1v-5.39a1.9 1.9 0 00-.34-1.25 1.37 1.37 0 00-1.08-.4 4.45 4.45 0 00-2.48.82v6.26h-1.59v-8.12h1.33l.16.9a5.27 5.27 0 013.2-1.14 2.41 2.41 0 011.78.62 2.46 2.46 0 01.61 1.78v6zM71.1 99v7.7H69V95.65h2.56l4.52 7.76v-7.76h2.11v11.09h-2.58zm11.21 4.18a2.06 2.06 0 00.64 1.52 2.82 2.82 0 001.81.48 9.68 9.68 0 002.5-.4v1.55a5.54 5.54 0 01-1.34.45 8.45 8.45 0 01-1.61.16 4.08 4.08 0 01-3.09-1.11 5.35 5.35 0 010-6.41 3.79 3.79 0 012.93-1.14 3.28 3.28 0 012.44.87 3.4 3.4 0 01.85 2.49 5.91 5.91 0 01-.05.8 5.37 5.37 0 01-.11.74zm1.75-3.28a1.61 1.61 0 00-1.24.47 2.07 2.07 0 00-.52 1.37h3.13v-.28c0-1-.43-1.52-1.37-1.52zm5.17 10.1V98.56h1.92l.19.77a3.45 3.45 0 011.16-.74 3.69 3.69 0 011.38-.27 3 3 0 012.46 1.14 4.8 4.8 0 01.9 3.07 5.9 5.9 0 01-.41 2.25 3.47 3.47 0 01-1.21 1.56 3 3 0 01-1.8.57 3.69 3.69 0 01-1.25-.21 2.92 2.92 0 01-1-.57V110zm3.9-10a3 3 0 00-1.57.43v4.21a2.92 2.92 0 001.57.43 1.48 1.48 0 001.32-.61 3.41 3.41 0 00.42-1.92 3.55 3.55 0 00-.41-1.93 1.49 1.49 0 00-1.33-.53zm10.8 6.45a5.41 5.41 0 01-1.94.33 2.77 2.77 0 01-2-.64 2.66 2.66 0 01-.64-2v-3.95H98.1v-1.34l1.3-.26.35-2.24h1.92v2.21h2.21v1.73h-2.21v3.84a.89.89 0 00.26.72 1.37 1.37 0 00.86.21 8.52 8.52 0 001.14-.1zm6.88.21l-.23-.87a4.75 4.75 0 01-3 1.11 2.23 2.23 0 01-1.7-.65 2.54 2.54 0 01-.61-1.79v-6h2.34v5.33c0 .86.37 1.29 1.12 1.29a3 3 0 001.63-.51v-6.01h2.34v8.18zm9.41 0v-5.36a1.36 1.36 0 00-.29-1 1.14 1.14 0 00-.88-.31 3.21 3.21 0 00-1.75.55v6.08H115v-8.06h1.92l.22.88a4.91 4.91 0 013.07-1.12 2.39 2.39 0 011.76.62 2.36 2.36 0 01.61 1.75v6zm6.28-3.52a2.06 2.06 0 00.64 1.52 2.82 2.82 0 001.81.48 9.68 9.68 0 002.5-.4v1.55a5.54 5.54 0 01-1.34.45 8.45 8.45 0 01-1.61.16 4.08 4.08 0 01-3.09-1.11 5.35 5.35 0 010-6.41 3.79 3.79 0 012.93-1.14 3.28 3.28 0 012.44.87 3.4 3.4 0 01.85 2.49 7.91 7.91 0 010 .8 7.18 7.18 0 01-.12.74zm1.75-3.28a1.62 1.62 0 00-1.24.47 2.07 2.07 0 00-.52 1.37h3.13v-.28c0-.96-.45-1.48-1.37-1.48z" fill="#333"/>
    <path d="M73 19h54v54H73z" fill="url(#a)"/>
    <path d="M105 42.3a4 4 0 011.5 1.4V33.2c0-3.4-6.3-5.2-12.3-5.2S82 29.8 82 33.2v25.6c0 3.4 6.3 5.2 12.2 5.2s12.2-1.8 12.3-5.2v-3.4H105v3.4c0 1.8-4.5 3.7-10.8 3.8s-10.8-2-10.8-3.8v-5.3c2.2 1.7 6.6 2.7 10.8 2.7a24 24 0 003.7-.3 3.79 3.79 0 01-.6-1.3c-1 .1-2 .1-3.1.1-6.3 0-10.8-2-10.8-3.7v-6.3c2.2 1.7 6.6 2.7 10.8 2.7a22.93 22.93 0 006.4-.8 1.8 1.8 0 01-.2-1.2v-.1a25.08 25.08 0 01-6.2.7c-6.3 0-10.8-2-10.8-3.7v-6.5c2.2 1.7 6.6 2.7 10.8 2.7s8.6-.9 10.8-2.7zm-10.8-5.4c-6.3 0-10.8-2-10.8-3.7s4.5-3.7 10.8-3.8 10.8 2 10.8 3.8-4.5 3.7-10.8 3.7zm22 18.5a1.79 1.79 0 00-1.8 1.8c0 .1 0 .3.1.3l-2.4 1.5a2.67 2.67 0 00-1.4-.7l-.1-3.2a3.77 3.77 0 001.6-6.4l2.2-3.8c.2.1.5.1.7.2a2.55 2.55 0 10-2.5-2.6 2.27 2.27 0 00.6 1.6l-2.3 3.8a2.77 2.77 0 00-1.3-.1 3.61 3.61 0 00-2 .6l-2.3-2.5a1.48 1.48 0 00.1-.7 1.79 1.79 0 00-1.8-1.8 1.88 1.88 0 00-1.8 1.9 1.79 1.79 0 001.8 1.8 1.42 1.42 0 00.6-.2l2.4 2.4a3.94 3.94 0 00-.6 2.1l-2.8.7a2.56 2.56 0 00-3.6-.6 2.46 2.46 0 00-.5 3.6 2.36 2.36 0 003.5.5 2.72 2.72 0 001.1-2v-.1l2.6-.6a3.69 3.69 0 002.9 2.2l.2 3.2a2.91 2.91 0 103.7 2.8c0-.3-.1-.6-.1-.8l2.4-1.6.9.3a1.79 1.79 0 001.8-1.8 1.88 1.88 0 00-1.9-1.8zm-1.1-13.9a1.1 1.1 0 011.1 1 1.18 1.18 0 01-1.1 1.1 1.11 1.11 0 01-1.1-1.1 1 1 0 011.1-1zm-11.5 4.1c-.2 0-.4-.1-.4-.3a.37.37 0 01.4-.4c.3 0 .4.1.4.4s-.1.4-.4.3zm-2.5 9a1.1 1.1 0 01-1.1-1 1.18 1.18 0 011.1-1.1 1.11 1.11 0 011.1 1.1 1 1 0 01-1.1 1zm6.2-3.1a2.26 2.26 0 012.3-2.3 2.41 2.41 0 012.4 2.3 2.23 2.23 0 01-2.4 2.3 2.26 2.26 0 01-2.3-2.3zm2.8 11.1a1.54 1.54 0 01-1.5-1.5c-.1-.9.6-1.4 1.5-1.4a1.31 1.31 0 011.4 1.4 1.52 1.52 0 01-1.4 1.5zm6.1-5.1c-.2 0-.4-.1-.4-.3a.37.37 0 01.4-.4c.3 0 .4.1.4.4s-.1.4-.4.3z" fill="#fff"/>
</svg>
