<svg xmlns="http://www.w3.org/2000/svg" width="200" height="128">
	<path d="M42.451 42.11A21.87 21.87 0 0 0 29.2 81.394a11.661 11.661 0 0 1-1.95-1.963 18.672 18.672 0 0 1 2.1-3.853c1.56-2.106 3.16-3.5 7.4-6.428 4.544-3.143 6.468-4.845 7.313-6.469a3.027 3.027 0 0 0 .425-1.867c0-.955-.033-1.09-.356-1.474-.5-.6-.467-1.058.132-1.681a8.6 8.6 0 0 0 .732-.865 2.675 2.675 0 0 1 .943-.668c.385-.17.7-.367.7-.438s.151-1.364.335-2.874l.336-2.746-.336-.484a1.858 1.858 0 0 1-.335-.776 1.3 1.3 0 0 1 1.551-1.258 1.314 1.314 0 0 1 .616 2.107l-.306.368.36 2.862c.2 1.574.364 2.875.37 2.891s.338.183.737.372a2.314 2.314 0 0 1 .972.752 6.33 6.33 0 0 0 .7.889c.553.578.567.781.1 1.453-.322.466-.357.625-.356 1.633a3.027 3.027 0 0 0 .311 1.7c.93 1.759 2.527 3.2 6.713 6.053 1.554 1.06 4.177 2.948 4.461 3.207A21.838 21.838 0 0 0 42.451 42.11zm4.3 18.661c-.362.015-.507.3-.507.96a4.315 4.315 0 0 0 .123 1.057c.068.207.188.626.266.93.131.515.3.686.435.455a14.833 14.833 0 0 0 .1-1.724c.046-1.614.044-1.626-.253-1.668a.915.915 0 0 0-.169-.01zm2.259 0c-.059 0-.12 0-.18.006l-.44.042-.037 1.489c-.059 2.378.1 2.41.739.152a4.273 4.273 0 0 0 .3-1.6.67.67 0 0 0-.38-.086zm1.044 2.849c-.086 0-.222.246-.3.55s-.2.757-.264 1.008a4.755 4.755 0 0 0-.122.533 3.743 3.743 0 0 0 .908 1.158c.07 0 .275-.291.455-.646a3.014 3.014 0 0 0 .328-.961 3.251 3.251 0 0 0-1-1.642zm-4.652.467c-.1 0-.243.161-.57.6a3.542 3.542 0 0 0-.54.87A2.983 2.983 0 0 0 45.137 67c.1 0 .346-.234.536-.521.335-.506.34-.543.179-1.3a3.8 3.8 0 0 0-.323-1c-.044-.06-.082-.095-.128-.1zm2.342 1.485a3.764 3.764 0 0 0-.72 1 12.069 12.069 0 0 1-3.424 3.606c-.512.317-1.927 1.113-3.143 1.769s-2.71 1.522-3.318 1.926a21.4 21.4 0 0 0-4.416 4.319 19.4 19.4 0 0 0-1.959 3.713.5.5 0 0 1-.183.31.2.2 0 0 1-.193.038 21.891 21.891 0 0 0 3.027 1.667c.035-.265.439-.671.943-.908.535-.251.582-.311.545-.693-.053-.548-.451-.615-.985-.165-.477.4-.572.408-.883.065-.225-.249-.227-.29-.03-.615a2.028 2.028 0 0 1 1.886-.81c.759 0 .818-.021.894-.327.105-.418-.116-.684-.823-.987-.434-.186-.555-.306-.555-.552 0-.806.989-.769 1.9.072.317.292.612.5.655.453.266-.267-.62-1.646-1.327-2.063-.488-.288-.6-.733-.252-1.02.161-.134.34-.1.985.19.884.4 3.411.735 3.656.49.355-.356-.562-1.07-1.374-1.07-.738 0-1.09-.533-.645-.978.275-.275 1.139-.177 2.043.231l.632.285.311-.362a1.3 1.3 0 0 0 .311-.685c0-.317-.514-.963-.766-.963-.172 0-.3-.434-.2-.687a.546.546 0 0 1 .271-.277c.325-.125 1.2.42 1.569.979.337.51.371.528.878.447.707-.112.949-.355.747-.749a5.077 5.077 0 0 0-.316-.526c-.217-.3.011-.669.452-.723a.633.633 0 0 1 .6.308 2.177 2.177 0 0 1 .458 1.416c-.075.2.817.768 1.054.677a4.49 4.49 0 0 0 .673-2.481c-.088-.645.094-.9.587-.833.243.035.335.185.5.823.367 1.389 1.446 3.185 1.913 3.186a.941.941 0 0 0 .813-.761 1.2 1.2 0 0 0-.26-.574c-.418-.532-.262-1.005.331-1.005.369 0 .671.352.963 1.124.226.6.268.635.759.672.434.032.565-.019.794-.311a1.248 1.248 0 0 0 .275-.576.557.557 0 0 1 .676-.5c.423.06.484.86.113 1.488-.324.55-.338.776-.055.885.3.114.77-.228 1.155-.838.341-.541.694-.66.969-.327.243.292.035.946-.483 1.519-.253.281-.421.549-.373.6a4.2 4.2 0 0 0 1.192-.05 5.417 5.417 0 0 0 1.934-.558c.955-.485 1.295-.481 1.352.016.031.264-.063.423-.406.684a3.6 3.6 0 0 0-1.22 2.344.924.924 0 0 1 .014.2 21.834 21.834 0 0 0 2.656-3.394 9.19 9.19 0 0 1-1.144-.835 31.673 31.673 0 0 0-3.028-2.008 42.69 42.69 0 0 1-5.8-3.732 14.655 14.655 0 0 1-2.842-3.18c-.125-.212-.288-.383-.362-.381zm4.3.647a4.563 4.563 0 0 0-.727 1.583c0 .265 1.017 1.143 1.33 1.146.141 0 .349-.241.556-.65.255-.5.3-.71.2-.9a5.173 5.173 0 0 0-1.358-1.175zm-8.74.3c-.193-.061-1.356.981-1.356 1.214a3.907 3.907 0 0 0 .764 1.481 3.166 3.166 0 0 0 .7-.449 2.716 2.716 0 0 0 .671-.664 2.931 2.931 0 0 0-.776-1.582zm11.264 1.817a2.363 2.363 0 0 0-.728 1.476 1.849 1.849 0 0 0 1.1.672 1.769 1.769 0 0 0 .52-.661l.348-.626-.52-.447a1.56 1.56 0 0 0-.719-.413zm-13.685.164c-.26 0-1.146.706-1.146.946a2.88 2.88 0 0 0 .728 1.2 3.773 3.773 0 0 0 .579-.292c.3-.169.513-.392.514-.526a3.153 3.153 0 0 0-.632-1.317.078.078 0 0 0-.043-.011zm15.955 1.477c-.2.006-.327.181-.521.556-.314.607-.236.823.429 1.189s.816.334 1.15-.312c.293-.567.229-.743-.421-1.155a1.325 1.325 0 0 0-.637-.278zm-18.288.175c-.136 0-.313.1-.637.316-.543.36-.618.6-.366 1.148.186.409.489.419 1.155.039.585-.334.641-.6.246-1.151-.165-.232-.261-.348-.4-.352zm20.659 1.275a5.769 5.769 0 0 0-.737 1.225 4.337 4.337 0 0 0 1.462.983c.134 0 .334-.211.5-.527.22-.432.24-.567.108-.726a6.8 6.8 0 0 0-1.328-.955zm-22.969.26a4.339 4.339 0 0 0-1.316 1.052c0 .236.418.769.6.769a2.183 2.183 0 0 0 .7-.342c.285-.189.518-.426.518-.527 0-.252-.372-.952-.5-.952zm25.978 1.667a.425.425 0 0 1-.327.052c-.316-.031-.408.034-.595.427-.272.57-.278.768-.03.974a.322.322 0 0 1 .119.147q.45-.781.833-1.6zm-28.345.154a4.349 4.349 0 0 0-1.291 1.212 1.43 1.43 0 0 0 .7.74 2.138 2.138 0 0 0 .628-.482 1.732 1.732 0 0 0 .493-.686c-.003-.253-.359-.784-.53-.784zm13.572.457-.613 1.3c-1.413 3-1.731 4.24-1.368 5.341.182.551 1.226 1.75 1.524 1.75.157 0 .182-.264.149-1.561-.035-1.343-.009-1.592.186-1.787.174-.175.277-.194.451-.084.3.19.387.649.405 2.206a6.454 6.454 0 0 0 .1 1.4c.229.229.476.023.771-.644a6.315 6.315 0 0 0-.975-7.2zm-3.416.96a3.143 3.143 0 0 0-1.382.284c-.933.451-1.643 1.455-1.428 2.017.118.306.5.169.606-.216a2.087 2.087 0 0 1 2.918-1.33c.371.177.493.188.623.056s.087-.228-.2-.48a1.844 1.844 0 0 0-1.137-.331zm7.668.7a2.2 2.2 0 0 0-1.188.352c-.442.359-.212.444.506.189a1.665 1.665 0 0 1 1.93.338c.362.378.714.51.714.268 0-.281-.709-.927-1.168-1.065a2.438 2.438 0 0 0-.791-.083zm-19.964.126c-.214-.014-.462.162-.763.53a2.23 2.23 0 0 0-.47.776c0 .185.592.732.8.742a3.029 3.029 0 0 0 .577-.664c.464-.632.48-.685.3-1.008-.134-.239-.279-.365-.445-.376zm12.087.773a1.08 1.08 0 0 0-.912.674c-.26.544-.166.737.607 1.244.737.484.906.492.907.044a3.874 3.874 0 0 1 .136-.844c.164-.594 0-.971-.476-1.09a.943.943 0 0 0-.262-.028zm8.007.574a1.363 1.363 0 0 0-.553.1c-.417.174-.478.256-.478.64 0 .766.192.794.987.142a2.238 2.238 0 0 0 .574-.588c0-.179-.235-.288-.53-.3zm5.239.316a9.889 9.889 0 0 0-1.672.192 5.638 5.638 0 0 0-4.361 3.134c-.373.8-.662 2.4-.432 2.4a16.027 16.027 0 0 0 1.514-1.366 9.766 9.766 0 0 1 1.6-1.366.793.793 0 0 1 .594.549 9.272 9.272 0 0 1-1.267 1.338c-1.132 1.069-1.248 1.219-1.087 1.415a21.914 21.914 0 0 0 4.525-2.922c.063-.307.218-.873.422-1.521.291-.927.53-1.723.53-1.768s-.138-.08-.366-.082zm-18.935.671c-.286 0-.345.048-.345.159a17.138 17.138 0 0 0 1.485 3.519 4.8 4.8 0 0 0 2.9 2.273c.707.167 1.047.163 1.155-.012.055-.089 0-.214-.133-.293s-.576-.393-1-.7c-.826-.608-1-1.057-.518-1.316.34-.182.3-.195.927.326a6.132 6.132 0 0 0 1.977 1.17c.329.082.357.058.357-.3a5.739 5.739 0 0 0-.9-2.419c-1.07-1.556-2.339-2.141-5.122-2.363a11.44 11.44 0 0 0-.793-.045zm-8.291.138a.087.087 0 0 0-.037 0 4.157 4.157 0 0 0-.86 1.753.575.575 0 0 0 .354.483c.49.266.524.258.794-.186a5.452 5.452 0 0 0 .415-.928c.172-.523.168-.544-.189-.851a1.131 1.131 0 0 0-.477-.273zm7.477 2.442c-.571 0-1.35 1.286-1.352 2.234 0 .756.186.833.29.12a3.643 3.643 0 0 1 .376-1.144 2.452 2.452 0 0 1 .584-.646c.353-.231.414-.564.1-.564zm.671 1.366c-.214 0-.466.266-.594.655-.244.74-.113.89.687.785a2.526 2.526 0 0 0 .776-.184c.1-.094-.476-1.046-.729-1.214a.245.245 0 0 0-.14-.042zm9.816 1.8a4.875 4.875 0 0 0-3.377 1.21c-.5.451-.713.695-.621.807q.846-.061 1.686-.188a2.444 2.444 0 0 0 .351-.3 2.893 2.893 0 0 1 2.143-.79 3.279 3.279 0 0 1 1.182.246q.525-.16 1.04-.346l-.11-.075a3.95 3.95 0 0 0-1.386-.476 6.17 6.17 0 0 0-.908-.084zm-13.021.235a.552.552 0 0 0-.371.167.849.849 0 0 1-.1.076q.477.188.962.351a1.153 1.153 0 0 1-.046-.13c-.086-.3-.251-.461-.446-.464zm4.32.442a4.338 4.338 0 0 0-2 .367c-.213.088-.378.151-.517.2a21.913 21.913 0 0 0 5.737.817c0-.02 0-.039-.006-.062-.03-.209-.313-.423-1.065-.805a3.314 3.314 0 0 0-2.152-.516z" fill="#ffcc23"/>
	<path d="m74.64 58.734-1.359 4.849a.1.1 0 0 0 .016.093.091.091 0 0 0 .077.046h2.564a.092.092 0 0 0 .077-.046.1.1 0 0 0 .015-.093l-1.359-4.849c0-.011-.005-.016-.015-.016a.014.014 0 0 0-.016.016zm-4 9.359a.623.623 0 0 1-.587-.834l3.2-9.607a1.317 1.317 0 0 1 .448-.6 1.2 1.2 0 0 1 .711-.232h.556a1.156 1.156 0 0 1 .71.232 1.186 1.186 0 0 1 .448.6l3.2 9.607a.622.622 0 0 1-.587.834h-.556a1.177 1.177 0 0 1-.7-.232 1.21 1.21 0 0 1-.417-.618l-.495-1.743c-.011-.082-.067-.124-.17-.124h-3.49a.155.155 0 0 0-.17.124l-.5 1.745a1.093 1.093 0 0 1-.416.618 1.134 1.134 0 0 1-.695.232zm12.083-5.066v2.1a1.45 1.45 0 0 0 .525 1.1 1.83 1.83 0 0 0 1.252.473 1.517 1.517 0 0 0 1.3-.664 3.344 3.344 0 0 0 .479-1.962q0-2.625-1.776-2.625a1.829 1.829 0 0 0-1.251.478 1.452 1.452 0 0 0-.529 1.1zm-1.158 8.463a.9.9 0 0 1-.881-.88v-9.668a.9.9 0 0 1 .881-.88h.185a.924.924 0 0 1 .911.88v.108a.014.014 0 0 0 .015.016.045.045 0 0 0 .031-.016 3.632 3.632 0 0 1 1.112-.88 3.011 3.011 0 0 1 1.3-.263A2.8 2.8 0 0 1 87.433 61a4.809 4.809 0 0 1 .865 3.073 4.731 4.731 0 0 1-.911 3.058 2.794 2.794 0 0 1-2.27 1.112 3.213 3.213 0 0 1-2.332-.973.047.047 0 0 0-.031-.015c-.011 0-.016 0-.016.015v3.34a.845.845 0 0 1-.262.618.8.8 0 0 1-.6.262zm12.193-7.258q-2.208 0-2.208 1.359a1.157 1.157 0 0 0 .278.8.979.979 0 0 0 .741.309 1.922 1.922 0 0 0 1.421-.541 2.08 2.08 0 0 0 .541-1.513v-.278a.123.123 0 0 0-.139-.139zm-1.745 4.015a2.391 2.391 0 0 1-1.745-.68 2.453 2.453 0 0 1-.679-1.791 2.427 2.427 0 0 1 1.019-2.085 5.431 5.431 0 0 1 3.15-.741h.634a.123.123 0 0 0 .139-.139v-.124a1.22 1.22 0 0 0-.34-.988 1.871 1.871 0 0 0-1.2-.294 9.281 9.281 0 0 0-2.193.325.566.566 0 0 1-.509-.093.585.585 0 0 1-.232-.479 1 1 0 0 1 .216-.633.863.863 0 0 1 .556-.355 10.15 10.15 0 0 1 2.209-.263 4.145 4.145 0 0 1 2.764.711 3.239 3.239 0 0 1 .788 2.486v4.108a.846.846 0 0 1-.263.618.8.8 0 0 1-.6.263h-.17a.89.89 0 0 1-.633-.248.919.919 0 0 1-.278-.633V67c0-.01 0-.015-.016-.015s-.031.005-.031.015a3.052 3.052 0 0 1-2.579 1.251zm10.063 0a3.957 3.957 0 0 1-2.95-1.05 4.3 4.3 0 0 1-1.035-3.12 4.384 4.384 0 0 1 .989-3.089 3.687 3.687 0 0 1 2.841-1.081 11.156 11.156 0 0 1 1.576.108.887.887 0 0 1 .586.325.978.978 0 0 1 .232.648.588.588 0 0 1-.247.495.629.629 0 0 1-.54.123 6.745 6.745 0 0 0-1.344-.123 1.721 1.721 0 0 0-1.452.617 3.247 3.247 0 0 0-.479 1.977 3.082 3.082 0 0 0 .51 1.992 1.949 1.949 0 0 0 1.575.6 5.5 5.5 0 0 0 1.313-.139.563.563 0 0 1 .525.108.571.571 0 0 1 .247.479.982.982 0 0 1-.231.648.892.892 0 0 1-.572.34 8.843 8.843 0 0 1-1.544.139zm5.341-.154a.846.846 0 0 1-.618-.263.871.871 0 0 1-.247-.618V57.39a.871.871 0 0 1 .247-.618.845.845 0 0 1 .618-.262h.308a.9.9 0 0 1 .881.88v3.583a.013.013 0 0 0 .015.015.045.045 0 0 0 .031-.015 3.325 3.325 0 0 1 2.378-1.066 2.441 2.441 0 0 1 2.039.8 4.538 4.538 0 0 1 .633 2.749v3.753a.9.9 0 0 1-.88.881h-.247a.9.9 0 0 1-.881-.881v-3.441a3.551 3.551 0 0 0-.293-1.776 1.174 1.174 0 0 0-1.066-.432 1.928 1.928 0 0 0-1.729 1.745v3.907a.9.9 0 0 1-.881.881zm11.622-6.749a1.618 1.618 0 0 0-1.22.447 2.375 2.375 0 0 0-.525 1.406.109.109 0 0 0 .123.123h3.027a.109.109 0 0 0 .124-.123q-.061-1.854-1.529-1.853zm.386 6.9a4.333 4.333 0 0 1-3.12-1.05 4.2 4.2 0 0 1-1.081-3.12 4.455 4.455 0 0 1 .973-3.1 3.614 3.614 0 0 1 2.811-1.066q3.429 0 3.521 3.892a.747.747 0 0 1-.262.618.945.945 0 0 1-.649.247H117.4c-.093 0-.129.046-.108.139a2.181 2.181 0 0 0 .679 1.514 2.7 2.7 0 0 0 1.7.463 5.9 5.9 0 0 0 1.545-.232.566.566 0 0 1 .509.093.533.533 0 0 1 .247.463 1 1 0 0 1-.216.633.846.846 0 0 1-.54.325 8.571 8.571 0 0 1-1.792.185zm13.191-9.51-1.36 4.849a.1.1 0 0 0 .016.093.091.091 0 0 0 .077.046h2.564a.092.092 0 0 0 .077-.046.1.1 0 0 0 .016-.093l-1.36-4.849c0-.011 0-.016-.015-.016s-.015 0-.015.016zm-4 9.359a.622.622 0 0 1-.587-.834l3.2-9.607a1.315 1.315 0 0 1 .447-.6 1.2 1.2 0 0 1 .711-.232h.556a1.154 1.154 0 0 1 .71.232 1.186 1.186 0 0 1 .448.6l3.2 9.607a.622.622 0 0 1-.587.834h-.556a1.177 1.177 0 0 1-.695-.232 1.21 1.21 0 0 1-.417-.618l-.494-1.745c-.01-.082-.067-.124-.17-.124h-3.49a.155.155 0 0 0-.17.124l-.494 1.745a1.1 1.1 0 0 1-.417.618 1.134 1.134 0 0 1-.695.232zm10.908 0a.844.844 0 0 1-.617-.263.872.872 0 0 1-.248-.618v-6.27a.872.872 0 0 1 .248-.618.843.843 0 0 1 .617-.262h.216a.82.82 0 0 1 .6.247.852.852 0 0 1 .278.6v.108c0 .011 0 .016.015.016s.031 0 .031-.016a2.633 2.633 0 0 1 2.054-1.112 2.066 2.066 0 0 1 1.112.263 2.143 2.143 0 0 1 .757.926c0 .011.01.016.031.016a.045.045 0 0 0 .031-.016 2.809 2.809 0 0 1 2.193-1.189 2.221 2.221 0 0 1 1.838.7 3.834 3.834 0 0 1 .574 2.395v4.216a.846.846 0 0 1-.263.618.794.794 0 0 1-.6.263h-.262a.9.9 0 0 1-.881-.881v-3.911a3.293 3.293 0 0 0-.216-1.483.9.9 0 0 0-.834-.355 1.2 1.2 0 0 0-.8.371 1.038 1.038 0 0 0-.4.741v4.633a.9.9 0 0 1-.88.881h-.262a.846.846 0 0 1-.618-.263.871.871 0 0 1-.247-.618v-3.907a3.039 3.039 0 0 0-.232-1.467.883.883 0 0 0-.834-.371 1.2 1.2 0 0 0-.8.371 1.042 1.042 0 0 0-.4.741v4.633a.9.9 0 0 1-.88.881zm13.89-5.066v2.1a1.45 1.45 0 0 0 .525 1.1 1.794 1.794 0 0 0 1.251.479 1.528 1.528 0 0 0 1.3-.649 3.375 3.375 0 0 0 .479-1.977q0-2.625-1.776-2.625a1.794 1.794 0 0 0-1.251.478 1.452 1.452 0 0 0-.528 1.094zm-1.158 5.066a.9.9 0 0 1-.881-.881V57.39a.9.9 0 0 1 .881-.88h.309a.9.9 0 0 1 .88.88v3.475a.013.013 0 0 0 .015.015.043.043 0 0 0 .031-.015 3.256 3.256 0 0 1 2.317-.958 2.8 2.8 0 0 1 2.316 1.1 5.689 5.689 0 0 1-.031 6.131 2.836 2.836 0 0 1-2.285 1.112 3.147 3.147 0 0 1-2.425-1.143.045.045 0 0 0-.031-.015.013.013 0 0 0-.015.015l-.016.108a.919.919 0 0 1-.278.633.835.835 0 0 1-.617.248zm12.207-3.861q-2.208 0-2.209 1.359a1.157 1.157 0 0 0 .278.8.98.98 0 0 0 .742.309 1.924 1.924 0 0 0 1.421-.541 2.08 2.08 0 0 0 .54-1.513v-.278a.123.123 0 0 0-.139-.139zm-1.745 4.015a2.391 2.391 0 0 1-1.745-.68 2.667 2.667 0 0 1 .339-3.876 5.432 5.432 0 0 1 3.151-.741h.633a.123.123 0 0 0 .139-.139v-.124a1.216 1.216 0 0 0-.34-.988 1.868 1.868 0 0 0-1.2-.294 9.281 9.281 0 0 0-2.193.325.567.567 0 0 1-.51-.093.587.587 0 0 1-.232-.479 1 1 0 0 1 .217-.633.86.86 0 0 1 .556-.355 10.134 10.134 0 0 1 2.208-.263 4.145 4.145 0 0 1 2.764.711 3.235 3.235 0 0 1 .788 2.486v4.108a.845.845 0 0 1-.262.618.8.8 0 0 1-.6.263h-.17a.89.89 0 0 1-.633-.248.919.919 0 0 1-.278-.633V67a.013.013 0 0 0-.015-.015c-.021 0-.031.005-.031.015a3.054 3.054 0 0 1-2.579 1.251zm7.498-.154a.9.9 0 0 1-.88-.881v-6.27a.9.9 0 0 1 .88-.88h.309a.9.9 0 0 1 .881.88v.649a.013.013 0 0 0 .015.015c.021 0 .031-.005.031-.015a3.385 3.385 0 0 1 1.174-1 4.149 4.149 0 0 1 1.59-.494.641.641 0 0 1 .556.216.782.782 0 0 1 0 1.112.878.878 0 0 1-.556.262q-2.733.216-2.733 2.78v2.749a.9.9 0 0 1-.88.881zm7.944 0a.9.9 0 0 1-.88-.881v-6.27a.9.9 0 0 1 .88-.88h.4a.895.895 0 0 1 .88.88v6.27a.9.9 0 0 1-.88.881zm0-9.73a.9.9 0 0 1-.88-.88v-.093a.9.9 0 0 1 .88-.88h.4a.895.895 0 0 1 .88.88v.093a.9.9 0 0 1-.88.88z" fill="#888"/>
</svg>
