<svg xmlns="http://www.w3.org/2000/svg" width="200" height="128">
	<g fill-rule="evenodd">
		<path d="M35.81 70.877h-4.853l-.509-1.611h-5.086l-.509 1.611H20L25.213 57.1H30.6zm-6.51-5.245-1.4-4.44-1.4 4.44zm40.553 5.245h-8.875V57.1h8.583c2.924 0 4.2 1.9 4.2 3.511a3.052 3.052 0 0 1-2.416 3.159 3.268 3.268 0 0 1 2.691 3.366c-.004 1.924-1.336 3.741-4.179 3.741zm-1.292-8.694a.825.825 0 0 0 .847-.826.805.805 0 0 0-.847-.785h-3.302v1.611zm.127 5.225a.88.88 0 0 0 1-.868.906.906 0 0 0-1-.888h-3.429v1.756zm21.9 3.469h-4.851l-.508-1.611h-5.087l-.508 1.611h-4.853L79.994 57.1h5.383zm-6.506-5.245-1.4-4.44-1.4 4.44zM97.4 71.124a9.468 9.468 0 0 1-6.57-2.188l2.225-3.1a6.682 6.682 0 0 0 4.557 1.776c.805 0 1.568-.206 1.568-.743 0-1.322-7.883.02-7.883-5.411 0-2.333 1.992-4.563 5.87-4.563a9.486 9.486 0 0 1 6 1.92l-2.288 2.953a7.269 7.269 0 0 0-4.154-1.363c-.848 0-1.081.269-1.081.62 0 1.3 7.862.186 7.862 5.307-.006 3.037-2.312 4.792-6.106 4.792zm13.548 0a9.466 9.466 0 0 1-6.569-2.188l2.225-3.1a6.68 6.68 0 0 0 4.557 1.776c.8 0 1.568-.206 1.568-.743 0-1.322-7.884.02-7.884-5.411 0-2.333 1.992-4.563 5.871-4.563a9.488 9.488 0 0 1 6 1.92l-2.289 2.953a7.264 7.264 0 0 0-4.154-1.363c-.847 0-1.08.269-1.08.62 0 1.3 7.862.186 7.862 5.307-.003 3.037-2.313 4.792-6.107 4.792zm22.133-.247h-4.853l-.509-1.611h-5.086l-.509 1.611h-4.853l5.213-13.777h5.384zm-6.507-5.245-1.4-4.44-1.4 4.44zm14.164 5.245H134.4V57.1h6.315c4.451 0 7.757 2.478 7.757 6.877s-3.305 6.9-7.734 6.9zm-.022-3.635a3.225 3.225 0 0 0 3.413-3.262 3.051 3.051 0 0 0-3.391-3.242h-2.056v6.5zm16.813 3.882c-4.365 0-7.735-2.891-7.735-7.124s3.37-7.124 7.735-7.124 7.735 2.891 7.735 7.124-3.364 7.124-7.735 7.124zm0-3.675a3.449 3.449 0 1 0-3.39-3.449 3.3 3.3 0 0 0 3.39 3.449zM180 70.877h-4.875l-1.949-4.337h-1.547v4.337h-4.281V57.1h7.544c3.306 0 5.087 2.148 5.087 4.729A4.432 4.432 0 0 1 177.436 66zm-5.764-7.971c.72 0 1.4-.331 1.4-1.095 0-.743-.679-1.073-1.4-1.073h-2.607v2.168z"/>
		<path d="M36.9 56.548v14.9l21.409-14.9v14.9z" fill="#ff4329"/>
	</g>
</svg>
