<svg version="1.1" id="Layer_1" xmlns="http://www.w3.org/2000/svg" x="0" y="0" viewBox="0 0 610 610" style="enable-background:new 0 0 610 610" xml:space="preserve">
	<style>
		.st1{fill:#006fcf}
	</style>
	<switch>
		<g>
			<path style="fill:#fff" d="M509.001 511H99V101h410.001v410z"/>
			<path class="st1" d="M493.519 390.566H358.79l-8.559-11.11v11.11h-29.196v-17.727c-3.695 1.377-7.883 2.198-12.562 2.198h-4.761v15.529h-43.279l-6.628-9.248-6.418 9.248h-70.403v-67.919h70.676l6.56 9.111 6.487-9.111h248.294V101H99v166.521l14.219-33.138h28.303l7.312 17.01v-17.01h34.583l4.556 13.462 4.555-13.462h150.264v6.322c5.626-4.338 12.932-6.322 20.911-6.322h46.661l7.312 17.01v-17.01h27.955l8.143 12.631v-12.631h29.959v67.92h-29.475l-7.659-11.873v11.873h-41.827l-3.935-10.079h-8.838l-3.929 10.079h-25.125c-6.638 0-14.148-1.353-20.153-5.859v5.859h-42.453l-8.559-11.11v11.11H135.93l-3.935-10.079h-8.833l-3.935 10.079H99V511h410.001V386.139c-4.175 2.755-9.48 4.427-15.482 4.427z"/>
			<path class="st1" d="M493.522 369.932h-24.987v10.837h24.919c10.49 0 16.703-6.355 16.703-15.671 0-8.764-5.456-13.872-15.046-13.872h-11.457c-2.557 0-4.351-1.589-4.351-4.004 0-2.414 1.794-3.935 4.351-3.935h20.842l4.761-10.836H483.79c-10.495 0-16.776 6.417-16.776 15.187 0 9.111 5.94 14.356 15.119 14.356h11.389c2.552 0 4.419 1.589 4.419 4.003 0 2.415-1.867 3.935-4.419 3.935m-44.247 0h-24.982v10.837h24.914c10.495 0 16.708-6.355 16.708-15.671 0-8.764-5.455-13.872-15.051-13.872h-11.457c-2.552 0-4.345-1.589-4.345-4.004 0-2.414 1.793-3.935 4.345-3.935h20.848l4.76-10.836h-25.472c-10.489 0-16.77 6.417-16.77 15.187 0 9.111 5.933 14.356 15.119 14.356h11.383c2.557 0 4.419 1.589 4.419 4.003 0 2.415-1.862 3.935-4.419 3.935m-30.437-26.645v-10.836h-39.344v48.318h39.344v-10.837h-27.055v-8.217h26.434v-10.558h-26.434v-7.87h27.055zm-62.259 0c3.73 0 5.66 2.278 5.66 4.972 0 2.762-1.93 4.897-5.66 4.897h-13.32v-9.869h13.32zm-13.32 20.364h4.761l14.43 17.118h15.113l-15.666-17.602c7.939-1.726 12.699-7.597 12.699-15.119 0-9.248-6.417-15.597-16.77-15.597h-26.85v48.318h12.283v-17.118zm-29.885-14.84c0 2.967-1.936 5.382-5.661 5.382h-13.667v-10.906h13.667c3.725 0 5.661 2.483 5.661 5.524m-31.611-16.36v48.318h12.283v-15.74h14.493c10.632 0 17.186-6.97 17.186-16.286 0-9.664-6.418-16.292-16.77-16.292h-27.192zm-16.429 48.318h15.392l-19.464-24.367 19.328-23.951h-14.983l-11.389 14.839-11.389-14.839h-15.387l19.322 24.224-19.254 24.094h14.977l11.389-14.982 11.458 14.982zm-38.792-37.482v-10.836h-39.344v48.318h39.344v-10.837h-27.055v-8.217h26.435v-10.558h-26.435v-7.87h27.055z"/>
			<path class="st1" d="M458.607 292.502h14.908v-48.319H461.3v29.96l-19.259-29.96h-15.529v48.319h12.215v-31.058l19.88 31.058zm-68.951-20.364 6.691-16.565 6.766 16.565h-13.457zm21.742 20.364h13.804l-20.637-48.319H388.62l-20.706 48.319h13.525l4.003-9.869h21.953l4.003 9.869zm-49.696 0h.967l5.035-10.837h-3.935c-7.728 0-12.284-4.692-12.284-12.978v-.689c0-7.249 4.072-12.63 12.079-12.63h12.978v-11.185h-13.947c-15.181 0-23.324 10.08-23.324 23.815v.689c0 14.84 8.558 23.815 22.431 23.815m-40.654 0h12.289v-48.319h-12.289v48.319zm-22.916-37.482c3.725 0 5.661 2.278 5.661 4.972 0 2.761-1.936 4.902-5.661 4.902h-13.319v-9.874h13.319zm-13.319 20.364h4.761l14.424 17.118h15.119L303.446 274.9c7.938-1.725 12.699-7.591 12.699-15.113 0-9.249-6.418-15.604-16.771-15.604h-26.85v48.319h12.289v-17.118zm-19.191-20.364v-10.837h-39.344v48.319h39.344v-10.837h-27.055v-8.211h26.434V262.89h-26.434v-7.87h27.055zm-83.101 37.482h10.694l12.773-35.756v35.756h12.147v-48.319h-19.328l-10.768 30.785-10.837-30.785h-19.533v48.319h12.153v-35.756l12.699 35.756zm-61.707-20.364 6.697-16.565 6.765 16.565h-13.462zm21.742 20.364h13.804l-20.638-48.319h-15.945l-20.705 48.319h13.53l4.004-9.869h21.947l4.003 9.869z"/>
		</g>
	</switch>
</svg>
