<svg xmlns="http://www.w3.org/2000/svg" width="200" height="128">
    <path d="M99.884 55.843c2.547-2.243 5.076-3.169 8.082-2.637a7.42 7.42 0 0 1 4.753 2.713c.694.889 1.069.829 1.836.018 3.639-3.852 9.713-3.9 13.031-.147a9.048 9.048 0 0 1 2.286 5.955c.074 4.334.024 8.67.046 13 0 1.108-.451 1.838-1.6 1.859-1.264.023-1.634-.769-1.646-1.94-.047-4.332.237-8.672-.152-13-.3-3.386-2.377-5.392-5.446-5.431A5.521 5.521 0 0 0 115.1 61.5c-.374 3.286-.08 6.6-.142 9.9a117.187 117.187 0 0 0-.006 3.406c.011 1.105-.454 1.833-1.631 1.806-1.15-.026-1.619-.742-1.615-1.849.011-3.819.017-7.638-.011-11.457a14.006 14.006 0 0 0-.255-2.608 5.294 5.294 0 0 0-5.371-4.455 5.768 5.768 0 0 0-5.917 4.495 30.143 30.143 0 0 0-.235 6.019q-.053 3.948 0 7.9c.015 1.161-.374 1.978-1.639 1.955s-1.6-.874-1.6-2.015q.03-9.366 0-18.733c0-1.185-.039-2.444 1.565-2.518 1.413-.071 1.776.966 1.641 2.497zM89.235 74.185c-.062 1.241.309 2.244 1.732 2.224 1.331-.018 1.659-1.009 1.656-2.166-.011-3.3.065-6.6-.02-9.9a11.931 11.931 0 1 0-23.538 3.2 11.548 11.548 0 0 0 20.174 4.867c0 .79.021 1.283-.004 1.775zm-8.55-.509a8.59 8.59 0 0 1-8.67-8.98 8.64 8.64 0 1 1 17.276.1 8.541 8.541 0 0 1-8.606 8.88zM145.29 54.5c-.713-.91-1.59-1.763-2.727-.83-1.022.839-.495 1.846.2 2.724 2 2.51 3.961 5.051 6 7.531a1.188 1.188 0 0 1-.025 1.834c-2.187 2.624-4.294 5.314-6.444 7.968-.687.848-1.122 1.793-.1 2.554.951.7 1.809.247 2.517-.667 1.963-2.535 4.016-5 5.959-7.552.687-.9 1.053-.977 1.773-.016 1.923 2.566 3.967 5.043 5.927 7.583.7.912 1.592 1.345 2.543.681 1.079-.752.586-1.685-.085-2.535-2.084-2.641-4.112-5.326-6.237-7.934a1.354 1.354 0 0 1 .029-2.09c1.94-2.289 3.787-4.654 5.671-6.989.194-.242.41-.469.584-.725.58-.852.828-1.725-.17-2.437-.932-.666-1.691-.2-2.29.549-2.237 2.777-4.449 5.573-6.774 8.491-2.213-2.84-4.278-5.497-6.351-8.14zm23.477 1.167c.04-1.223-.056-2.42-1.707-2.332-1.524.082-1.514 1.256-1.511 2.4q.021 9.371 0 18.742c0 1.168.192 2.084 1.631 2.1 1.5.014 1.593-1 1.589-2.117-.011-3.924-.025-7.848 0-11.772.025-3.528 2.022-5.751 5.545-6.39a14.614 14.614 0 0 1 3.886-.006 1.516 1.516 0 0 0 1.612-.713 1.231 1.231 0 0 0-.1-1.452 2.815 2.815 0 0 0-1.771-.883c-3.526-.62-6.457.452-9.069 3.338a8.657 8.657 0 0 1-.105-.918zm-31.341-.317c.006-1.128-.371-2-1.613-2.017-1.217-.014-1.732.846-1.735 1.956q-.024 9.66 0 19.32c0 1.1.426 2.011 1.665 2.011 1.316 0 1.7-.9 1.692-2.1-.032-3.194-.011-6.388-.011-9.583s-.015-6.395.002-9.59z" fill="#5c6fec"/>
    <path d="M52.053 64a16.027 16.027 0 0 1-16.027 16.026c-.4 0-.8-.012-1.194-.044l9.316-18.723H36.2L40.818 48.7A16.032 16.032 0 0 1 52.053 64z" fill="#5c6fec" opacity=".5"/>
    <path d="M36.077 66.371l-4.666 12.981a16.029 16.029 0 0 1 4.615-31.378c.5 0 .991.022 1.477.069L27.6 66.371z" fill="#5c6fec"/>
</svg>
