<svg xmlns="http://www.w3.org/2000/svg" viewBox="-0.22 331.78 1363.44 359.44">
	<defs>
		<clipPath id="a" clipPathUnits="userSpaceOnUse">
			<path d="M0 768h1024V0H0z"/>
		</clipPath>
	</defs>
	<path fill="#fff" d="M163.586 378.378 45.873 637.345 146.24 536.979l52.04 70.627 43.367-66.91-76.822-164.797z"/>
	<g clip-path="url(#a)" fill="#181616" transform="matrix(1.33333 0 0 -1.33333 0 1024)">
		<path d="M124.043 483.484 40.281 297.172l66.474 70.81a4.62 4.62 0 0 0 3.739 1.452 4.64 4.64 0 0 0 3.476-1.997l35.072-50.936 28.863 44.897zm97.62-214.402a4.646 4.646 0 0 0-4.253 2.771l-35.009 79.354-29.318-45.606a4.65 4.65 0 0 0-3.835-2.133c-1.552-.056-3.019.731-3.901 2.01l-35.762 51.941-81.55-86.87a4.648 4.648 0 0 0-7.626 5.085l99.436 221.176a4.645 4.645 0 0 0 4.238 2.741h.016a4.646 4.646 0 0 0 4.235-2.771l97.577-221.175a4.645 4.645 0 0 0-4.248-6.523"/>
		<path d="m303.966 396.891-8.188-18.634h16.483zm-9.973-22.676-4.094-9.29h-4.461l16.481 36.743h4.358l16.43-36.743h-4.567l-4.095 9.29z"/>
		<path d="m381.002 364.925-22.046 29.501v-29.501h-4.2v36.744h4.356l22.048-29.553v29.553h4.147v-36.744z"/>
		<path d="M426.963 368.913h10.708c8.189 0 14.592 6.142 14.592 14.333 0 8.238-6.508 14.383-14.749 14.383h-10.551zm10.655 32.755c10.709 0 18.897-7.926 18.897-18.372 0-10.445-8.24-18.371-19.053-18.371h-14.698v36.743z"/>
		<path d="M494.656 397.629v-12.075h18.53v-4.042h-18.53v-12.599h21.417v-3.988h-25.616v36.744h24.932v-4.04z"/>
		<path d="m573.473 398.414-1.785-3.938c-3.307 2.208-7.192 3.098-10.131 3.098-4.723 0-7.82-1.785-7.82-4.882 0-9.446 20.681-4.513 20.629-17.845 0-6.145-5.407-10.079-13.28-10.079-5.355 0-10.604 2.309-14.069 5.614l1.89 3.781c3.412-3.309 8.084-5.195 12.23-5.195 5.303 0 8.609 2.152 8.609 5.668.053 9.657-20.629 4.515-20.629 17.688 0 5.778 5.092 9.504 12.704 9.504 4.252 0 8.607-1.367 11.652-3.414"/>
		<path d="M654.093 368.913h10.709c8.188 0 14.591 6.142 14.591 14.333 0 8.238-6.508 14.383-14.75 14.383h-10.55zm10.655 32.755c10.707 0 18.899-7.926 18.899-18.372 0-10.445-8.242-18.371-19.055-18.371h-14.698v36.743z"/>
		<path d="M717.583 401.668h4.199v-36.744h-4.199z"/>
		<path d="M788.523 382.878v-13.332c-3.621-2.891-8.715-4.832-13.648-4.832-10.658 0-19.159 8.242-19.159 18.582 0 10.341 8.556 18.478 19.369 18.478 5.09 0 10.024-1.942 13.543-5.04l-2.414-3.148c-2.992 2.676-7.035 4.25-11.129 4.25-8.399 0-15.118-6.454-15.118-14.54 0-8.136 6.77-14.594 15.169-14.594 3.308 0 6.825 1.156 9.66 3.098v11.078z"/>
		<path d="M824.979 401.668h4.199v-36.744h-4.199z"/>
		<path d="M877.753 397.629v-32.704h-4.199v32.704h-11.969v4.04h28.189v-4.04z"/>
		<path d="m931.894 396.891-8.188-18.634h16.482zm-9.973-22.676-4.093-9.29h-4.462l16.481 36.743h4.357l16.429-36.743h-4.566l-4.094 9.29z"/>
		<path d="M1003 368.913v-3.988h-20.316v36.743h4.199v-32.755z"/>
	</g>
</svg>
