<svg xmlns="http://www.w3.org/2000/svg" viewBox="7.96 9.71 236.08 57.08">
	<path d="m179.254 50.064-13.503-35.156h-8.028l16.557 43.11c.958 2.541 2.738 3.777 5.44 3.777h3.82l18.019-46.887h-8.07l-13.468 35.157h-.767M91.4 53.704 76.488 14.908h-13.23v46.887h7.5V23l.784-.003 14.895 38.798h13.246V14.908h-7.5v38.794l-.783.003M34.586 14.908c-2.702 0-4.482 1.234-5.438 3.774l-16.56 43.113h8.029l4.058-10.568h11.572l-2.629-6.902h-6.292l6.793-17.687h.768l13.468 35.157h8.069l-18.02-46.887h-3.818m183.16 0c2.703 0 4.482 1.234 5.44 3.774l16.559 43.113h-8.028l-4.059-10.568h-11.573l2.63-6.902h6.291l-6.791-17.687h-.768l-13.47 35.157h-8.067l18.02-46.887h3.817M132.084 54.7c-8.866 0-16.053-7.32-16.053-16.349s7.187-16.349 16.053-16.349 16.052 7.32 16.052 16.349S140.95 54.7 132.084 54.7zm0-40.398c-13.041 0-23.613 10.767-23.613 24.049s10.572 24.05 23.613 24.05c13.042 0 23.613-10.768 23.613-24.05s-10.571-24.05-23.613-24.05" fill="#28292b"/>
</svg>
