<svg xmlns="http://www.w3.org/2000/svg" height="76" width="253.333" xml:space="preserve">
	<path style="fill:#28292b;fill-opacity:1;fill-rule:nonzero;stroke:none" d="m1344.44 194.523-101.28 263.68h-60.21l124.18-323.328c7.19-19.066 20.54-28.332 40.81-28.332h28.64l135.15 351.66h-60.52L1350.19 194.52l-5.75.003" transform="matrix(.13333 0 0 -.13333 0 76)"/>
	<path style="fill:#28292b;fill-opacity:1;fill-rule:nonzero;stroke:none" d="M685.52 167.215 573.672 458.203h-99.231v-351.66h56.262v290.965l5.875.027 111.719-290.992h99.344v351.66h-56.258V167.238l-5.863-.023" transform="matrix(.13333 0 0 -.13333 0 76)"/>
	<path style="fill:#28292b;fill-opacity:1;fill-rule:nonzero;stroke:none" d="M259.398 458.203c-20.265 0-33.613-9.258-40.785-28.305L94.41 106.543h60.219l30.437 79.258h86.793l-19.714 51.765h-47.196l50.949 132.661h5.758l101.016-263.684h60.516l-135.153 351.66h-28.637" transform="matrix(.13333 0 0 -.13333 0 76)"/>
	<path style="fill:#28292b;fill-opacity:1;fill-rule:nonzero;stroke:none" d="M1633.14 458.203c20.27 0 33.61-9.258 40.79-28.305l124.2-323.355h-60.21l-30.44 79.258h-86.8l19.72 51.765h47.19l-50.94 132.661h-5.76l-101.02-263.684h-60.51l135.15 351.66h28.63" transform="matrix(.13333 0 0 -.13333 0 76)"/>
	<path style="fill:#28292b;fill-opacity:1;fill-rule:nonzero;stroke:none" d="M990.652 159.754c-66.492 0-120.394 54.902-120.394 122.621s53.902 122.617 120.394 122.617c66.498 0 120.398-54.898 120.398-122.617s-53.9-122.621-120.398-122.621zm0 302.996c-97.808 0-177.101-80.758-177.101-180.375 0-99.621 79.293-180.375 177.101-180.375 97.818 0 177.108 80.754 177.108 180.375 0 99.617-79.29 180.375-177.108 180.375" transform="matrix(.13333 0 0 -.13333 0 76)"/>
</svg>
