<?xml version="1.0" encoding="utf-8"?>
<!-- Generator: Adobe Illustrator 22.0.1, SVG Export Plug-In . SVG Version: 6.00 Build 0)  -->
<svg version="1.1" id="design" xmlns="http://www.w3.org/2000/svg" xmlns:xlink="http://www.w3.org/1999/xlink" x="0px" y="0px"
	 viewBox="0 0 138.5 170" style="enable-background:new 0 0 138.5 170;" xml:space="preserve">
<style type="text/css">
	.st0{fill:#1A1918;}
	.st1{fill:#FFFFFF;}
	.st2{fill:#435363;}
	.st3{fill:#F38B00;}
	.st4{fill:#364548;}
	.st5{fill:#22A0C8;}
	.st6{fill:#37B1D9;}
	.st7{fill:#1B81A5;}
	.st8{fill:#1D91B4;}
	.st9{fill:#23A3C2;}
	.st10{fill:#34BBDE;}
	.st11{fill:#D3ECEC;}
	.st12{fill:#BDD9D7;}
	.st13{fill:#E24329;}
	.st14{fill:#FC6D26;}
	.st15{fill:#FCA326;}
	.st16{fill:#D33833;}
	.st17{fill:#EF3D3A;}
	.st18{fill:#231F20;}
	.st19{fill:#F0D6B7;}
	.st20{fill:#335061;}
	.st21{fill:#6D6B6D;}
	.st22{fill:#DCD9D8;}
	.st23{fill:#F7E4CD;}
	.st24{fill:#49728B;}
	.st25{stroke:#D33833;stroke-width:0.816;}
	.st26{fill:#81B0C4;}
	.st27{fill:#1D1919;}
	.st28{fill:#326DE6;}
</style>
<g>
	<g transform="translate(0.000000, 281.859985)">
		<path class="st0" d="M36.4-112c-0.3,0-0.6-0.1-0.8-0.4l-9.4-12.4v12.6H24v-15.6c0-0.6,0.5-1.1,1.1-1.1c0.3,0,0.6,0.1,0.9,0.4
			l9.4,12.4v-12.6h2.1v15.5C37.5-112.5,37-112,36.4-112"/>
		<path class="st0" d="M54.2-111.9c-2.1,0-4.4-0.4-6.5-1.2l0.5-1.8c1.9,0.6,4,1.1,6,1.1c2.7,0,4.1-1,4.1-2.3c0-1.2-1.1-1.9-4.9-3.6
			c-3.8-1.8-5.3-2.9-5.3-5.2c0-2.8,2.1-3.9,6.2-3.9c1.7,0,4.3,0.3,5.8,0.8l-0.3,1.8c-1.6-0.4-3.7-0.7-5.4-0.7c-2.9,0-4,0.5-4,1.9
			c0,1.3,0.9,1.9,4.9,3.8c4.2,2,5.3,2.9,5.3,5C60.5-113.3,57.8-111.9,54.2-111.9"/>
		<path class="st0" d="M70.7-128.6h2.2v16.5h-2.2V-128.6z"/>
		<path class="st0" d="M91.8-119.6h-5.5v5.6h5.5c1.9,0,3-1.2,3-2.8C94.8-118.4,93.6-119.6,91.8-119.6 M90.7-126.7h-4.4v5.3h4.4
			c1.8,0,3.1-1.1,3.1-2.7C93.8-125.8,92.7-126.7,90.7-126.7 M91.8-112.1h-6.6c-0.6,0-1.1-0.5-1.1-1.1v-14.3c0-0.6,0.5-1.1,1.1-1.1
			h5.5c3.4,0,5.4,1.7,5.4,4.3c0,1.4-0.8,2.7-2.1,3.5c1.9,0.6,3.1,2.1,3.1,4C97.1-114.2,94.9-112.1,91.8-112.1"/>
		<path class="st0" d="M107.8-112.1c-0.6,0-1.1-0.5-1.1-1.1v-15.4h2.2v14.5h8.8v2H107.8z"/>
		<path class="st0" d="M132.9-111.9c-4.5,0-7.3-1.7-7.3-5.1c0-1.6,0.9-3.1,2.7-3.9c-1.4-0.9-2.1-2.2-2.1-3.5c0-3.1,2.4-4.5,6.8-4.5
			c1.5,0,3.6,0.2,5.3,0.6l-0.2,1.8c-1.9-0.3-3.6-0.5-5.3-0.5c-2.9,0-4.4,0.8-4.4,2.7c0,1.5,1.4,2.7,3.3,2.7h3.8c0.5,0,1,0.4,1,0.9
			c0,0.5-0.4,1-1,1h-4.1c-2.1,0-3.5,1.1-3.5,2.7c0,2.4,2.2,3.1,5,3.1c1.5,0,3.6-0.2,5.2-0.6l0.3,1.8
			C136.8-112.2,134.7-111.9,132.9-111.9"/>
		<path class="st0" d="M7.5-125.5l3.9,9.7l-5.9-4.7L7.5-125.5z M14.4-113.5l-6-14.6c-0.2-0.4-0.5-0.6-0.9-0.6c-0.4,0-0.8,0.2-1,0.6
			l-6.6,16h2.2l2.6-6.6l7.8,6.4c0.3,0.3,0.5,0.4,0.8,0.4c0.6,0,1.1-0.4,1.1-1.1C14.5-113.2,14.5-113.4,14.4-113.5L14.4-113.5z"/>
	</g>
	<g>
		<path class="st0" d="M138.5,69.1c0,38.2-30.9,69.1-69.1,69.1c-38.2,0-69.1-30.9-69.1-69.1C0.3,30.9,31.2,0,69.4,0
			C107.5,0,138.5,30.9,138.5,69.1"/>
		<path class="st1" d="M70.5,42.2l17.9,44.1l-27-21.3L70.5,42.2z M102.3,96.5L74.8,30.3c-0.8-1.9-2.4-2.9-4.3-2.9
			c-1.9,0-3.6,1-4.4,2.9L36,102.9h10.3l12-29.9l35.7,28.8c1.4,1.2,2.5,1.7,3.8,1.7c2.7,0,5-2,5-4.9
			C102.8,98.1,102.6,97.3,102.3,96.5L102.3,96.5z"/>
	</g>
</g>
</svg>
