<svg xmlns="http://www.w3.org/2000/svg" width="200" height="128">
	<path d="M82.635 108.921a.515.515 0 0 1-.44-.2l-4.985-6.556v6.687h-1.137v-8.235a.592.592 0 0 1 .582-.59.519.519 0 0 1 .451.21l4.973 6.543v-6.661h1.137v8.221a.572.572 0 0 1-.581.577m9.403.083a9.848 9.848 0 0 1-3.436-.656l.271-.944a10.654 10.654 0 0 0 3.165.564c1.433 0 2.183-.511 2.183-1.232 0-.656-.582-.984-2.584-1.928s-2.789-1.547-2.789-2.727c0-1.482 1.136-2.085 3.28-2.085a12.775 12.775 0 0 1 3.048.42l-.181.97a12.952 12.952 0 0 0-2.841-.354c-1.511 0-2.131.288-2.131 1.01s.452 1.009 2.57 1.993c2.235 1.035 2.8 1.56 2.8 2.635 0 1.561-1.473 2.334-3.358 2.334m8.747-8.877h1.175v8.733h-1.175zm11.173 4.777h-2.92v2.963h2.92a1.486 1.486 0 1 0 0-2.963m-.569-3.776h-2.351v2.793h2.351a1.491 1.491 0 0 0 1.628-1.443c0-.826-.595-1.35-1.628-1.35m.581 7.736h-3.513a.586.586 0 0 1-.594-.59v-7.553a.594.594 0 0 1 .594-.59h2.906c1.783 0 2.842.879 2.842 2.255a2.2 2.2 0 0 1-1.111 1.849 2.232 2.232 0 0 1 1.666 2.124 2.594 2.594 0 0 1-2.79 2.5m8.433.001a.592.592 0 0 1-.58-.59v-8.143H121v7.671h4.675v1.062zm13.283.144c-2.4 0-3.849-.892-3.849-2.688a2.179 2.179 0 0 1 1.408-2.045 2.2 2.2 0 0 1-1.136-1.875c0-1.626 1.253-2.4 3.6-2.4a13.937 13.937 0 0 1 2.829.3l-.13.97a17.511 17.511 0 0 0-2.789-.249c-1.525 0-2.338.419-2.338 1.429a1.583 1.583 0 0 0 1.744 1.429h2.014a.505.505 0 0 1 0 1.01h-2.166c-1.137 0-1.86.563-1.86 1.429 0 1.272 1.175 1.652 2.647 1.652a12.927 12.927 0 0 0 2.764-.314l.168.957a11.447 11.447 0 0 1-2.906.393m-66.356-7.237 2.058 5.157-3.108-2.486zm3.657 6.346-3.166-7.736a.512.512 0 0 0-.491-.341.528.528 0 0 0-.5.341l-3.475 8.485h1.189l1.376-3.5 4.105 3.367a.663.663 0 0 0 .439.2.572.572 0 0 0 .581-.577.793.793 0 0 0-.054-.237z" fill="#1a1918"/>
	<path d="M136.652 55.583A36.583 36.583 0 1 1 100.069 19a36.582 36.582 0 0 1 36.583 36.583" fill="#1a1918"/>
	<path d="m100.685 41.347 9.467 23.366-14.3-11.264zM117.5 70.1l-14.559-35.049a2.351 2.351 0 0 0-2.256-1.546 2.428 2.428 0 0 0-2.318 1.546L82.384 73.49h5.468l6.326-15.849L113.059 72.9a3.071 3.071 0 0 0 2.02.892 2.611 2.611 0 0 0 2.673-2.613 3.479 3.479 0 0 0-.252-1.079z" fill="#fff"/>
</svg>
