<svg xmlns="http://www.w3.org/2000/svg" viewBox="1989 332.039 180.455 75.743" version="1.1" id="svg7618" width="180.455" height="75.743">
	<defs id="defs7554">
		<style id="style7552">
			.a{fill:#728e9b}.b{fill:#b9c6cd}
		</style>
	</defs>
	<g transform="translate(1989 332.038)" id="g7616">
		<g transform="translate(1.299)" id="g7584">
			<g transform="translate(0 3.597)" id="g7562">
				<path class="a" d="M14.683 32.525v6.036h.192a13.416 13.416 0 0 1 5.461-5.6A16.158 16.158 0 0 1 28 31.183q6.323 0 9.724 3.449t3.4 11.209v38.227H27.9V48.524q0-4.024-1.341-5.6a5.361 5.361 0 0 0-4.312-1.581q-6.995 0-6.994 8.527v34.2H2.037V32.525Z" transform="translate(-2.037 -14.896)" id="path7556" style="fill:#728e9b"/>
				<path class="a" transform="translate(47.972)" id="rect7558" style="fill:#728e9b" d="M0 0h13.222v11.305H0z"/>
				<path class="a" transform="translate(47.972 17.629)" id="rect7560" style="fill:#728e9b" d="M0 0h13.222v51.544H0z"/>
			</g>
			<g transform="translate(125.173)" id="g7582">
				<path class="a" d="M224.222 73.517a25.882 25.882 0 0 1-25.882-25.883c0-12.3 9.641-24.1 16.236-32.707A96.88 96.88 0 0 0 223.954.168a.3.3 0 0 1 .538 0 96.853 96.853 0 0 0 9.379 14.76c6.593 8.607 16.237 20.4 16.237 32.707h-15.795a.608.608 0 0 0-.608.608v8.876h-8.874a.608.608 0 0 0-.608.608v15.79z" transform="translate(-198.34)" id="path7564" style="fill:#728e9b"/>
				<path class="a" d="M249.991 100.636v-8.451h-7.846a.608.608 0 0 0-.608.608v7.844z" transform="translate(-213.993 -33.403)" id="path7566" style="fill:#728e9b"/>
				<path class="a" d="M241.538 115.337a25.24 25.24 0 0 0 8.453-1.625v-4.257h-7.846a.608.608 0 0 0-.608.608z" transform="translate(-213.993 -39.661)" id="path7568" style="fill:#728e9b"/>
				<path class="a" d="M264.859 85.762v-8.451h-7.844a.608.608 0 0 0-.608.608v7.843h8.451z" transform="translate(-219.381 -28.013)" id="path7570" style="fill:#728e9b"/>
				<path class="a" d="m266.745 102.524.01-.01a1.774 1.774 0 0 0 .508-1.254v-6.679h-8.453v8.453h6.678a1.774 1.774 0 0 0 1.257-.51z" transform="translate(-220.251 -34.271)" id="path7572" style="fill:#728e9b"/>
				<path class="a" d="M259.711 116.6a25.274 25.274 0 0 0 6.249-3.841h-6.249z" transform="translate(-220.578 -40.856)" id="path7574" style="fill:#728e9b"/>
				<path class="a" d="M277.934 85.762a25.17 25.17 0 0 0 1.627-8.451h-5.88v8.451z" transform="translate(-225.639 -28.013)" id="path7576" style="fill:#728e9b"/>
				<path class="a" d="M276.979 101.731a25.244 25.244 0 0 0 3.839-6.25h-3.839z" transform="translate(-226.835 -34.597)" id="path7578" style="fill:#728e9b"/>
				<path class="a" d="M276.979 101.731a25.244 25.244 0 0 0 3.839-6.25h-3.839z" transform="translate(-226.835 -34.597)" id="path7580" style="fill:#728e9b"/>
			</g>
		</g>
		<g transform="translate(0 3.022)" id="g7614">
			<g transform="translate(0 1.629)" id="g7598">
				<path class="b" d="m4.626 7.57 2.382 9H5.117l-.416-1.9h-2.4l-.416 1.9H0l2.382-9zm-.239 5.609-.87-4.046h-.025l-.87 4.046z" transform="translate(0 -7.394)" id="path7586" style="fill:#b9c6cd"/>
				<path class="b" d="M15.808 7.57a2.617 2.617 0 0 1 1.166.233 2.125 2.125 0 0 1 .763.612 2.382 2.382 0 0 1 .416.863 3.914 3.914 0 0 1 .126.99 3.237 3.237 0 0 1-.208 1.21 2.19 2.19 0 0 1-.58.844 2.425 2.425 0 0 1-.9.492 3.964 3.964 0 0 1-1.173.163h-.971v3.593h-1.816v-9zm-.555 4.071a1.2 1.2 0 0 0 .876-.328 1.377 1.377 0 0 0 .334-1.021 1.6 1.6 0 0 0-.289-1.034 1.189 1.189 0 0 0-.97-.353h-.756v2.735z" transform="translate(-4.577 -7.394)" id="path7588" style="fill:#b9c6cd"/>
				<path class="b" d="m25.9 7.57 2.382 9h-1.893l-.416-1.9h-2.4l-.416 1.9h-1.885l2.382-9zm-.239 5.609-.87-4.046h-.025l-.87 4.046z" transform="translate(-7.708 -7.394)" id="path7590" style="fill:#b9c6cd"/>
				<path class="b" d="M37.132 9.078a.872.872 0 0 0-.851-.448.851.851 0 0 0-.561.183 1.212 1.212 0 0 0-.347.592 5.052 5.052 0 0 0-.177 1.071q-.051.662-.05 1.62a15.647 15.647 0 0 0 .069 1.652 3.643 3.643 0 0 0 .214.977.9.9 0 0 0 .365.466 1.053 1.053 0 0 0 .511.12 1.221 1.221 0 0 0 .448-.082.76.76 0 0 0 .359-.328 2.143 2.143 0 0 0 .24-.693 6.334 6.334 0 0 0 .089-1.178h1.815a8.1 8.1 0 0 1-.114 1.386 3.144 3.144 0 0 1-.422 1.147 2.1 2.1 0 0 1-.87.769 3.294 3.294 0 0 1-1.456.277 3.424 3.424 0 0 1-1.626-.328 2.21 2.21 0 0 1-.927-.946 4.163 4.163 0 0 1-.416-1.475 17.308 17.308 0 0 1-.094-1.891 17.362 17.362 0 0 1 .094-1.884 4.18 4.18 0 0 1 .416-1.481 2.324 2.324 0 0 1 .927-.964 3.272 3.272 0 0 1 1.626-.347 3.143 3.143 0 0 1 1.532.315 2.145 2.145 0 0 1 .839.8 2.776 2.776 0 0 1 .347 1.046 8.668 8.668 0 0 1 .07 1.052h-1.816a3.279 3.279 0 0 0-.234-1.428Z" transform="translate(-12.078 -7.294)" id="path7592" style="fill:#b9c6cd"/>
				<path class="b" d="M46.709 7.57v3.441h2.118V7.57h1.815v9h-1.815v-4h-2.118v4h-1.815v-9z" transform="translate(-16.267 -7.394)" id="path7594" style="fill:#b9c6cd"/>
				<path class="b" d="M61.567 9.058h-3.215v2.118h3.025v1.487h-3.025v2.42h3.34v1.487h-5.155v-9h5.029v1.488z" transform="translate(-20.486 -7.394)" id="path7596" style="fill:#b9c6cd"/>
			</g>
			<g transform="translate(68.91)" id="g7606">
				<path class="b" d="M108.068 31.949v-9.006h6.706V17.1a15.765 15.765 0 0 1 .958-5.844 9.221 9.221 0 0 1 2.73-3.832 10.847 10.847 0 0 1 4.359-2.06 24.587 24.587 0 0 1 5.748-.622q3.543 0 7.089.287v9.389a7.3 7.3 0 0 0-1.341-.1h-1.246a6.212 6.212 0 0 0-3.928.958 3.9 3.9 0 0 0-1.15 3.161v4.5h7.665v9.007h-7.665v42.542h-13.22V31.949Z" transform="translate(-108.068 -4.74)" id="path7600" style="fill:#b9c6cd"/>
				<path class="b" transform="translate(35.451 .575)" id="rect7602" style="fill:#b9c6cd" d="M0 0h13.221v11.305H0z"/>
				<path class="b" transform="translate(35.451 18.203)" id="rect7604" style="fill:#b9c6cd" d="M0 0h13.221v51.544H0z"/>
			</g>
			<g transform="translate(128.296 9.186)" id="g7612">
				<path class="b" d="M226.53 19.472c-.478.667-.948 1.339-1.428 2-1.516 2.092-3.113 4.123-4.676 6.18q.918.127 1.843.282c1.3-2.183 2.632-4.352 3.881-6.567.35-.62.693-1.246 1.039-1.87.274-.489-.362-.44-.659-.025z" transform="translate(-208.167 -19.146)" id="path7608" style="fill:#b9c6cd"/>
				<path class="b" d="M213.392 37.147c.23-.4.468-.8.7-1.207-.7-.136-1.4-.262-2.1-.374h-.007a86.66 86.66 0 0 0-6.06 9.3c-3.254 5.9-5.511 12.495-4.474 19.3a24.215 24.215 0 0 0 8.069 14.569 23.849 23.849 0 0 0 2.93 2.165.311.311 0 0 0 .381-.487 25.957 25.957 0 0 1-7-11.805c-1.937-7.144-.327-14.465 2.431-21.165a91.737 91.737 0 0 1 5.13-10.296z" transform="translate(-201.2 -25.096)" id="path7610" style="fill:#b9c6cd"/>
			</g>
		</g>
	</g>
</svg>
