<svg xmlns="http://www.w3.org/2000/svg" width="200" height="128">
	<defs>
		<linearGradient id="a" x1="53.94" y1="62.89" x2="22.75" y2="23.54" gradientTransform="matrix(1 0 0 -1 0 108)" gradientUnits="userSpaceOnUse">
			<stop offset=".54" stop-color="#fc0a04"/>
			<stop offset="1" stop-color="#cf0500" stop-opacity=".77"/>
		</linearGradient>
		<linearGradient id="b" x1="40.02" y1="53.75" x2="59.64" y2="22.9" gradientTransform="matrix(1 0 0 -1 0 108)" gradientUnits="userSpaceOnUse">
			<stop offset=".47" stop-color="#e2423e"/>
			<stop offset="1" stop-color="#e2423e" stop-opacity=".77"/>
		</linearGradient>
	</defs>
	<path d="m20 82.13 21.32-35.27L62 82.13H51.75L41.32 65.69 29.64 82.13z" fill="#f8423f"/>
	<path d="M41.32 65.57 29.64 82H20l17.35-22.21z" fill="url(#a)"/>
	<path d="M51.75 82.13H62L41.32 46.86z" fill="url(#b)"/>
	<path d="m75.06 69.91-.77-2.18h-5.07l-.76 2.18h-1.75L71 58.09h1.6l4.25 11.82zm-3.32-9.39-2 5.76h4l-2-5.76zm6.72 13.19V61H80v.86a3 3 0 0 1 .44-.44 3.51 3.51 0 0 1 .84-.44 3.22 3.22 0 0 1 1.24-.23A3.56 3.56 0 0 1 85.35 62a5 5 0 0 1 1.14 3.43 5.13 5.13 0 0 1-1.09 3.46 3.55 3.55 0 0 1-2.81 1.27 3.11 3.11 0 0 1-2.46-1.11v4.66zm1.63-9.44v2.5a1.77 1.77 0 0 0 .62 1.34 2.21 2.21 0 0 0 1.56.57 2.29 2.29 0 0 0 1.9-.86 4.47 4.47 0 0 0 0-4.77 2.31 2.31 0 0 0-1.9-.84 2.12 2.12 0 0 0-1.58.62 2 2 0 0 0-.6 1.44zm13.66 5.64V69a2.36 2.36 0 0 1-.87.79 3.46 3.46 0 0 1-1.77.41 3.21 3.21 0 0 1-2.3-.73 2.47 2.47 0 0 1-.81-1.89 2.25 2.25 0 0 1 .69-1.76 5.42 5.42 0 0 1 2.32-1 10 10 0 0 0 2-.64.84.84 0 0 0 .52-.79 1.07 1.07 0 0 0-.44-.87 2.1 2.1 0 0 0-1.32-.35 2 2 0 0 0-2.07 1.69l-1.44-.51a3.25 3.25 0 0 1 1.13-1.89 3.64 3.64 0 0 1 2.35-.72 3.79 3.79 0 0 1 2.52.8 3 3 0 0 1 1 2.49v5.91zM91.39 66a3.46 3.46 0 0 0-1.41.63 1.12 1.12 0 0 0-.36.86q0 1.23 1.62 1.23a2.66 2.66 0 0 0 1.76-.5 1.49 1.49 0 0 0 .61-1.2V65a.73.73 0 0 1-.2.26 2.53 2.53 0 0 1-.63.31 12.32 12.32 0 0 1-1.39.43zm12 .41 1.64.41a4 4 0 0 1-1.24 2.45 4.1 4.1 0 0 1-5.52-.38 5 5 0 0 1-1.14-3.46A4.82 4.82 0 0 1 98.31 62a3.85 3.85 0 0 1 2.92-1.26A3.62 3.62 0 0 1 105 64l-1.61.25a2.77 2.77 0 0 0-.66-1.48 1.91 1.91 0 0 0-1.48-.58 2.21 2.21 0 0 0-1.81.84 3.74 3.74 0 0 0-.67 2.38 3.82 3.82 0 0 0 .66 2.39 2.22 2.22 0 0 0 1.84.86 1.76 1.76 0 0 0 1.46-.65 3.23 3.23 0 0 0 .66-1.6zm3.66 3.5V57.58h1.64v4.28a2.55 2.55 0 0 1 1-.82 3.29 3.29 0 0 1 1.46-.33 3.12 3.12 0 0 1 2.31.88 3.31 3.31 0 0 1 .94 2.41v5.88h-1.64v-5.44a2.49 2.49 0 0 0-.49-1.61 1.77 1.77 0 0 0-1.45-.6 2.12 2.12 0 0 0-1.54.57 2 2 0 0 0-.59 1.49v5.62zm16.04-2.86 1.23.93a4.42 4.42 0 0 1-1.45 1.56 3.92 3.92 0 0 1-2.26.62 3.87 3.87 0 0 1-3-1.29 5.65 5.65 0 0 1 0-6.87 3.77 3.77 0 0 1 2.94-1.29 3.7 3.7 0 0 1 2.89 1.29 5 5 0 0 1 1.13 3.45v.49h-6.48a3.24 3.24 0 0 0 .67 2 2.2 2.2 0 0 0 1.81.78 3 3 0 0 0 1-.15 1.93 1.93 0 0 0 .74-.46 5.07 5.07 0 0 0 .45-.5c.08-.16.24-.33.33-.56zm-5-2.41h4.83a3 3 0 0 0-.64-1.75 2.21 2.21 0 0 0-1.78-.71 2.12 2.12 0 0 0-1.75.76 2.79 2.79 0 0 0-.64 1.7zm20.07 5.27-.77-2.18h-5.07l-.76 2.18h-1.75l4.27-11.82h1.62l4.3 11.82zm-3.32-9.39-2 5.76h4l-2-5.76zm6.89 9.39V58.09h4.62a4.2 4.2 0 0 1 2.89 1 3.9 3.9 0 0 1 0 5.39 4.12 4.12 0 0 1-2.89 1h-3v4.48zm1.68-6h2.89a2.47 2.47 0 0 0 1.65-.55 1.92 1.92 0 0 0 .65-1.56 1.88 1.88 0 0 0-.66-1.59 2.57 2.57 0 0 0-1.66-.52h-2.87zm8.78 6V58.09h1.69v11.82zm4.05-4.04 1.77-.35a4.53 4.53 0 0 0 .88 2.33 2.7 2.7 0 0 0 2.11.72 2.93 2.93 0 0 0 1.85-.5 1.59 1.59 0 0 0 .65-1.3 1.5 1.5 0 0 0-.59-1.25 10.09 10.09 0 0 0-2.62-1.1 7.13 7.13 0 0 1-2.74-1.42 2.63 2.63 0 0 1-.82-2 3 3 0 0 1 1-2.26 4 4 0 0 1 2.79-.93 4.68 4.68 0 0 1 2.8.82 3.58 3.58 0 0 1 1.4 2.44l-1.69.37a2.77 2.77 0 0 0-.79-1.51 3 3 0 0 0-3.31-.08 1.44 1.44 0 0 0-.54 1.15 1.16 1.16 0 0 0 .54 1 11 11 0 0 0 2.43 1 8.16 8.16 0 0 1 3 1.52 2.83 2.83 0 0 1 .78 2.11 3.17 3.17 0 0 1-1.12 2.49 4.42 4.42 0 0 1-3.06 1 4.71 4.71 0 0 1-3.3-1.09 4.92 4.92 0 0 1-1.42-3.16zm11.13 4.04V58.09h1.68v11.82zm3.63 0 3.66-6.23-3.29-5.59h1.9l2.47 4.46 2.4-4.46H180l-3.32 5.81 3.54 6h-1.9l-2.68-4.9-2.75 4.88z"/>
</svg>
