<svg xmlns="http://www.w3.org/2000/svg" width="200" height="128">
	<path d="M34.363 72.248c4.163 0 6.176-4.232 6.176-8.072S38.589 56 34.363 56c-4.406 0-6.35 4.334-6.35 8.174s2.006 8.072 6.35 8.072m14.192 1.784c0 2.046 0 5.232-3.843 5.232-2.346 0-3.283-1.291-3.847-3.4a9.578 9.578 0 0 1-7.628 3.725C25.733 79.589 20 73.182 20 64.176c0-8.8 5.9-15.531 13.237-15.531a9.157 9.157 0 0 1 7.628 3.667 3.811 3.811 0 0 1 3.847-3.333c3.843 0 3.843 3.176 3.843 5.242zm16.563-1.787c4.163 0 6.224-4.344 6.224-8.069C71.342 60.4 69.28 56 65.118 56c-4.3 0-6.293 4-6.293 7.9s1.883 8.349 6.293 8.349M50.809 53.435c0-2.667 1.661-4.456 4-4.456a3.858 3.858 0 0 1 4.013 3.333c1.5-2.443 4.616-3.667 7.629-3.667 8.608 0 12.9 8.07 12.9 15.859 0 7.574-5.1 15.085-13.178 15.085a11.405 11.405 0 0 1-7.345-2.784V86.6c0 2.666-1.671 4.447-4.013 4.447s-4-1.781-4-4.447V53.435zm30.438 0c0-2.667 1.666-4.456 4.007-4.456s4.006 1.789 4.006 4.456V74.8c0 2.682-1.67 4.469-4.006 4.469s-4.007-1.787-4.007-4.469zm8.52-12.076a4.582 4.582 0 0 1-4.515 4.616 4.7 4.7 0 0 1-4.51-4.616 4.514 4.514 0 0 1 9.025 0" fill="#fc4c02"/>
	<path d="M105.4 56c-4.182 0-6.233 4.334-6.233 8.052 0 4.288 2.052 8.194 6.233 8.194 4.283 0 6.286-4.01 6.286-7.906S109.794 56 105.4 56m14.3 20.59c0 9.625-6.293 14.453-15.4 14.453-3.293 0-12.643-1.61-12.643-6 0-1.519 1.667-3.522 3.229-3.522 2.557 0 5.39 2.519 10.022 2.519 3.886 0 6.784-2.279 6.784-6.351v-1.88h-.106c-1.688 2.453-4.4 3.778-8.084 3.778-8.391 0-12.347-7.4-12.347-15.366 0-8.066 5.123-15.578 13.195-15.578 2.726 0 5.84 1.226 7.34 3.668a3.843 3.843 0 0 1 4.01-3.335c2.342 0 4 1.789 4 4.461v23.155zm22.2-15.132c-.443-3.516-2.666-6.125-6.394-6.125-3.561 0-5.968 2.718-6.355 6.125zM129.33 66.8c.554 3.941 3.843 5.781 7.562 5.781 4.124 0 6.96-3.229 9.073-3.229a3.558 3.558 0 0 1 3.29 3.453c0 3.443-7.127 6.784-13.085 6.784-9.017 0-15.024-6.566-15.024-15.416 0-8.115 5.9-15.526 14.365-15.526 8.675 0 14.409 7.9 14.409 14.579 0 2.4-1.059 3.571-3.512 3.571H129.33zm42.64-5.243c-.436-3.509-2.671-6.125-6.4-6.125-3.565 0-5.962 2.725-6.342 6.125zM159.4 66.9c.56 3.963 3.834 5.787 7.568 5.787 4.11 0 6.952-3.232 9.064-3.232a3.553 3.553 0 0 1 3.288 3.445c0 3.45-7.126 6.794-13.072 6.794-9.022 0-15.033-6.571-15.033-15.416 0-8.135 5.9-15.528 14.358-15.528 8.683 0 14.427 7.9 14.427 14.577 0 2.4-1.059 3.568-3.528 3.568H159.4z" fill="#4a494a"/>
</svg>
