<svg xmlns="http://www.w3.org/2000/svg" xml:space="preserve" width="200" height="56">
	<defs>
		<clipPath clipPathUnits="userSpaceOnUse" id="a">
			<path d="M0 42h150V0H0Z"/>
		</clipPath>
	</defs>
	<g clip-path="url(#a)" transform="matrix(1.33333 0 0 -1.33333 0 56)">
		<path d="M0 0c-2.713 0-4.951.888-6.714 2.662-1.764 1.775-2.645 4.104-2.645 6.985 0 2.883.91 5.211 2.729 6.986 1.82 1.775 4.087 2.662 6.8 2.662 2.712 0 4.978-.887 6.799-2.662 1.819-1.775 2.729-4.097 2.729-6.968 0-2.871-.932-5.2-2.798-6.986C5.035.894 2.735 0 0 0m4.035 4.951C5.166 6.081 5.73 7.652 5.73 9.665c0 2.011-.547 3.577-1.644 4.696C2.989 15.48 1.661 16.04.102 16.04c-1.56 0-2.872-.56-3.934-1.679-1.063-1.119-1.594-2.69-1.594-4.714 0-2.023.52-3.594 1.56-4.712 1.04-1.121 2.335-1.679 3.883-1.679s2.888.564 4.018 1.695M-17.26 18.99v-3.256c1.198 2.374 3.063 3.561 5.595 3.561v-4.002h-.983c-1.515 0-2.663-.384-3.443-1.152-.779-.769-1.169-2.103-1.169-4.002V.306h-3.866V18.99ZM-30.078.306h3.865V18.99h-3.865zm-8.952 0h3.865V18.99h-3.865zm-12.616 18.989c2.51 0 4.601-.887 6.274-2.662s2.51-4.08 2.51-6.918c0-2.837-.843-5.165-2.527-6.986C-47.073.91-49.159 0-51.646 0c-1.469 0-2.757.345-3.865 1.034a7.673 7.673 0 0 0-2.645 2.764V-8.579h-3.866V18.99h3.866v-3.323a7.322 7.322 0 0 0 2.628 2.628c1.119.666 2.413 1 3.882 1m3.155-14.208c1.13 1.176 1.695 2.724 1.695 4.645 0 1.922-.559 3.437-1.679 4.544-1.119 1.108-2.453 1.662-4.001 1.662-1.549 0-2.882-.565-4.002-1.695-1.119-1.131-1.678-2.657-1.678-4.578 0-1.922.559-3.454 1.678-4.596 1.12-1.141 2.448-1.712 3.985-1.712s2.871.577 4.002 1.73M-77.485 0c-2.487 0-4.578.91-6.273 2.729-1.696 1.821-2.544 4.149-2.544 6.986 0 2.838.843 5.143 2.527 6.918 1.684 1.775 3.781 2.662 6.29 2.662 1.469 0 2.764-.334 3.882-1 1.12-.667 1.984-1.543 2.595-2.628v3.323h3.899V.306h-3.899v3.492a7.405 7.405 0 0 0-2.611-2.764C-74.727.345-76.016 0-77.485 0m4.781 5.053c1.131 1.153 1.696 2.69 1.696 4.612 0 1.921-.559 3.447-1.679 4.578-1.119 1.13-2.447 1.695-3.984 1.695s-2.866-.554-3.985-1.662c-1.118-1.107-1.678-2.622-1.678-4.544 0-1.921.56-3.464 1.678-4.628 1.119-1.165 2.448-1.747 3.985-1.747s2.86.565 3.967 1.696" style="fill:#000;fill-opacity:1;fill-rule:evenodd;stroke:none" transform="translate(140.302 10.705)"/>
		<path d="m0 0 20.928-20.929L9.408 0l11.521 20.928Z" style="fill:#000;fill-opacity:1;fill-rule:evenodd;stroke:none" transform="translate(.117 21.072)"/>
		<path d="m0 0 11.52-20.928L0-41.857l20.929 20.929Z" style="fill:#000;fill-opacity:1;fill-rule:evenodd;stroke:none" transform="translate(21.046 42)"/>
	</g>
</svg>
