<svg xmlns="http://www.w3.org/2000/svg" viewBox="0 0 480 500" style="enable-background:new 0 0 480 500" xml:space="preserve">
	<style>
		.st2{fill:#666}
	</style>
	<linearGradient id="SVGID_1_" gradientUnits="userSpaceOnUse" x1="239.7" y1="105.2" x2="239.7" y2="500" gradientTransform="matrix(1 0 0 -1 0 500)">
		<stop offset="0" style="stop-color:#32dcda"/>
		<stop offset="1" style="stop-color:#5cc9f9"/>
	</linearGradient>
	<path style="fill:url(#SVGID_1_)" d="M240.2 0 0 394.8h214.2l60.5-99.8-2.4-43-43.4 8.5-49.8 73.8-65.2.4 129.6-219.6 128.3 219.5-85-1.4-37.9 61.6h230.5z"/>
	<g style="enable-background:new">
		<path class="st2" d="M58.9 479.3H28.2L20.6 500h-9.2l26.3-69.4h12L75.9 500h-9.5l-7.5-20.7zm-2.9-8L44.3 439h-1.2l-11.9 32.3H56z"/>
		<path class="st2" d="M106.2 430.6h19.3c19.6 0 25.4 6.8 25.4 22.2 0 16.3-7.4 22.6-25.4 22.6h-10.3V500h-9v-69.4zm18.5 37.3c12.9 0 17-3.4 17-15.1 0-10.6-4.1-14.4-17-14.4h-9.5v29.5h9.5z"/>
		<path class="st2" d="M185.9 430.6h9V500h-9v-69.4z"/>
		<path class="st2" d="M231.3 465.3c0-27.9 10.3-35.7 29.9-35.7 19.7 0 29.9 7.8 29.9 35.7 0 28-10.2 35.7-29.9 35.7-19.6 0-29.9-7.7-29.9-35.7zm50.5 0c0-19.2-3.6-28.1-20.6-28.1-16.9 0-20.5 8.9-20.5 28.1 0 19.8 3.6 28 20.5 28 17 0 20.6-8.2 20.6-28z"/>
		<path class="st2" d="M365 479.3h-30.7l-7.6 20.7h-9.2l26.3-69.4h12L382 500h-9.5l-7.5-20.7zm-2.9-8L350.4 439h-1.2l-11.9 32.3h24.8z"/>
		<path class="st2" d="M462.6 500H451l-24.8-32.6h-4.9V500h-9v-69.4h9v28.9h4.9l24.3-28.9h11.2l-28.4 32.3 29.3 37.1z"/>
	</g>
	<linearGradient id="SVGID_2_" gradientUnits="userSpaceOnUse" x1="174.133" y1="333.827" x2="77.995" y2="167.31" gradientTransform="matrix(1 0 0 -1 0 500)">
		<stop offset="0" style="stop-color:#4bd1ed"/>
		<stop offset="1" style="stop-color:#1cb2fa"/>
	</linearGradient>
	<path d="M113.9 334.7s-31.2 4.7-48.5-9.9 5-45.7 5-45.7l77.8-127.9 50.7 39.3-85 144.2z" style="fill:url(#SVGID_2_)"/>
	<linearGradient id="SVGID_3_" gradientUnits="userSpaceOnUse" x1="322.564" y1="127.536" x2="270.227" y2="36.886" gradientTransform="scale(-1 1) rotate(-60.579 221.15 766.001)">
		<stop offset=".203" style="stop-color:#32dcda"/>
		<stop offset="1" style="stop-color:#1cb2fa"/>
	</linearGradient>
	<path d="M371.8 334.6s15.5 18 11.2 40.2-38.1 19.6-38.1 19.6l-66.1.3 37.6-61.1 55.4 1z" style="fill:url(#SVGID_3_)"/>
	<linearGradient id="SVGID_4_" gradientUnits="userSpaceOnUse" x1="258.672" y1="432.271" x2="135.792" y2="219.436" gradientTransform="scale(-1 1) rotate(61.21 49.439 -179.617)">
		<stop offset="0" style="stop-color:#3ad8e0"/>
		<stop offset="1" style="stop-color:#1cb2fa"/>
	</linearGradient>
	<path d="M243.5 115.1s10.4-18.9 19.5-28.5c7.5-8 16-6.7 21.7-2.7 10.8 7.3 20 21.8 20 21.8l107 177.2-55.7 24.4-112.5-192.2z" style="fill:url(#SVGID_4_)"/>
</svg>
