<svg viewBox="0 0 500 500" xmlns="http://www.w3.org/2000/svg">
	<defs>
		<linearGradient id="a" gradientUnits="userSpaceOnUse" x1="25119.8" y1="11052.5" x2="21725.7" y2="21551.7" gradientTransform="translate(-492.867 -144.77) scale(.0281)">
			<stop offset="0" style="stop-color:#a92f33"/>
			<stop offset="1" style="stop-color:#e62129"/>
		</linearGradient>
		<linearGradient id="b" gradientUnits="userSpaceOnUse" x1="27026.6" y1="8021.8" x2="30514.6" y2="16218.5" gradientTransform="translate(-492.867 -144.77) scale(.0281)">
			<stop offset="0" style="stop-color:#a92f33"/>
			<stop offset="1" style="stop-color:#e8443f"/>
		</linearGradient>
		<linearGradient id="c" gradientUnits="userSpaceOnUse" x1="23046.1" y1="14340.2" x2="26713.9" y2="9900.07" gradientTransform="translate(-492.867 -144.77) scale(.0281)">
			<stop offset="0" style="stop-color:#e62129"/>
			<stop offset="1" style="stop-color:#e8443f"/>
		</linearGradient>
	</defs>
	<path class="fil1" d="m156.005 337.641 91.279-132.409-28.769-45.037-84.086 99.791c-27.926 33.153-32.422 41.413-55.74 80.295l77.344-2.64Z" style="fill:url(#a)"/>
	<path class="fil2" d="m382.616 340.281 37-.14L253.325 51.188l80.294 289.093h49.025ZM253.297 51.188l-42.058 69.506 8.456-13.962 33.602-55.516Z" style="fill:url(#b)"/>
	<path class="fil3" style="fill:url(#c)" d="M218.487 160.195 333.59 340.281 253.297 51.188l-33.573 55.515L78.661 340.281z"/>
	<path d="M116.292 266.849v11.42h-5.04v-1.17c-.133.293-.397.56-.79.8-.4.247-.76.37-1.08.37h-13.65a2.46 2.46 0 0 1-1.11-.28 2.416 2.416 0 0 1-.91-.81 2.065 2.065 0 0 1-.36-1.16l-.03-3.14-.02-2c0-.947.253-1.69.76-2.23.5-.547 1.087-.82 1.76-.82h12.91c.6 0 1.12.153 1.56.46.447.307.767.61.96.91v-1.53c0-.32-.093-.647-.28-.98a2.383 2.383 0 0 0-.82-.83c-.347-.213-.757-.32-1.23-.32h-15.45v-4.07h17.42c.733 0 1.43.18 2.09.54.653.36 1.23.827 1.73 1.4s.89 1.17 1.17 1.79c.273.613.41 1.163.41 1.65Zm-6 6.2a.856.856 0 0 0-.23-.58 1.782 1.782 0 0 0-.58-.43c-.233-.1-.42-.15-.56-.15h-9.53c-.433 0-.737.147-.91.44-.173.3-.26.53-.26.69 0 .347.113.627.34.84.22.207.443.31.67.31h9.96c.22 0 .46-.113.72-.34.253-.233.38-.493.38-.78Zm29.848-8.36v3.94c0 .94-.227 1.733-.68 2.38-.454.647-1.21.97-2.27.97h-13.75v6.29h-4.83v-10.34h15.71c.206 0 .416-.123.63-.37.213-.24.32-.51.32-.81 0-.287-.09-.527-.27-.72-.174-.2-.41-.347-.71-.44a2.933 2.933 0 0 0-.89-.14h-14.79v-3.98h18.12c1.26 0 2.143.303 2.65.91.506.613.76 1.383.76 2.31Zm7.372-3.22v16.78h-4.83v-16.78h4.83Zm24.067 9.29v4.92c0 .707-.203 1.317-.61 1.83-.413.507-.99.76-1.73.76h-19.44v-4.12h15.59c.28 0 .57-.1.87-.3.307-.2.46-.503.46-.91 0-.22-.063-.427-.19-.62a1.42 1.42 0 0 0-.58-.47 2.108 2.108 0 0 0-.85-.17h-11.8c-.56 0-1.06-.143-1.5-.43-.446-.287-.786-.62-1.02-1-.24-.38-.36-.69-.36-.93v-5.45c0-.467.26-.983.78-1.55.52-.567 1.19-.85 2.01-.85h17.46v3.98h-14.42c-.293 0-.53.127-.71.38-.18.247-.27.507-.27.78 0 .253.124.52.37.8.247.28.597.42 1.05.42h11.82c1.047 0 1.82.27 2.32.81.5.54.75 1.247.75 2.12Zm7.689-9.29v16.78h-4.83v-16.78h4.83Zm19.028 8.52 8.27 8.26h-6.73l-6.1-6.27-6.07 6.29h-6.84l8.33-8.35-7.34-8.43h5.9l5.91 6.34 6.04-6.34h6.26l-7.63 8.5Z" transform="matrix(3.87696 0 0 3.32031 -331.392 -484.11)" style="fill:#333;white-space:pre"/>
</svg>
