<svg xmlns="http://www.w3.org/2000/svg" width="200" height="128">
    <path d="M52.92 71h-4.35l-5-14.19-2.81 7.76h4.33l1.19 3.38H39.7L38.56 71H34.2l7-18H46zm77.68 0v-3.39H123V53h-3.9v18zm22.29 0v-3.39h-7.62V53h-3.88v18zM97.68 56.19a5.8 5.8 0 105.8 5.8 5.8 5.8 0 00-5.8-5.8m0-3.53A9.33 9.33 0 1188.35 62a9.33 9.33 0 019.34-9.33zm73 3.53a5.8 5.8 0 105.8 5.8 5.8 5.8 0 00-5.8-5.8m0-3.53a9.33 9.33 0 11-9.34 9.34 9.33 9.33 0 019.33-9.34zm-92.29 6.21a5.9 5.9 0 01-5.81 5.92H68V71h-3.82V53h8.41a5.9 5.9 0 015.8 5.92zm-3.53 0a2.37 2.37 0 00-2.28-2.38H68v4.76h4.57a2.37 2.37 0 002.27-2.38zm-14 17.6a1 1 0 00-.81.42s-.87 1-1.34 1.45A21.52 21.52 0 1157 46.41 2.44 2.44 0 1058.39 45a23.5 23.5 0 103.17 33.21 1 1 0 000-1.4 1 1 0 00-.71-.3z" fill="#333"/>
</svg>
