<svg id="Layer_1" data-name="Layer 1" xmlns="http://www.w3.org/2000/svg" viewBox="0 0 345.573 348.231">
	<defs>
		<style>
			.cls-2{fill:#444ea1}
		</style>
	</defs>
	<path d="M86.36 19.832C89.43 23.23 92.764 26.366 96 29.6q45.527 45.512 91.08 90.998 12.71 12.697 25.414 25.4c8.488 8.491 8.49 20.596.008 29.103-4.228 4.24-8.496 8.442-12.684 12.722-.796.813-1.174.64-1.871-.058q-32.58-32.571-65.195-65.108-30.143-30.101-60.279-60.21a19.832 19.832 0 0 1-6.203-14.193 19.142 19.142 0 0 1 5.644-14.138c4.392-4.461 8.85-8.858 13.275-13.286.316-.317.6-.665.899-.998Z" style="fill:#369cd5"/>
	<path class="cls-2" d="M325.686 264.064c-2.359 5.38-4.737 10.751-7.073 16.14q-9.883 22.805-19.715 45.63c-.767 1.787-1.845 2.638-3.829 2.515-1.988-.123-3.99-.024-5.986-.028-2.438-.004-3.265-1.24-2.303-3.523 1.635-3.88 3.305-7.745 4.961-11.615a21.68 21.68 0 0 1 1.26-2.855c1.212-1.977.899-3.76.004-5.826-5.663-13.087-11.195-26.23-16.763-39.359a5.99 5.99 0 0 1-.545-1.669 2.07 2.07 0 0 1 2.125-2.16c2.63-.035 5.261-.018 7.892-.004 1.492.008 2.086 1.073 2.567 2.252q3.872 9.494 7.747 18.987c1.484 3.633 2.975 7.264 4.473 10.922.536-.216.549-.67.692-1.015q5.862-14.109 11.706-28.224c1.08-2.607 1.556-2.934 4.358-2.935 1.905 0 3.813.058 5.715-.022a3.031 3.031 0 0 1 2.714 1.155Z"/>
	<path d="M163.583 215.639a19.695 19.695 0 0 1-14.016-5.859q-10.088-10.028-20.11-20.122c-.791-.798-1.195-.813-1.996-.005q-9.869 9.958-19.825 19.83c-8.276 8.243-20.536 8.235-28.835-.017-4.28-4.255-8.528-8.54-12.826-12.777-.7-.69-.88-1.07-.065-1.881q30.856-30.744 61.638-61.563c.709-.71 1.066-.745 1.797-.013q30.831 30.865 61.72 61.673c.577.576.769.895.067 1.585-4.531 4.452-8.976 8.992-13.51 13.44a19.652 19.652 0 0 1-14.039 5.709Z" style="fill:#434da1"/>
	<path d="M45.155 97.142a19.282 19.282 0 0 1 5.66-13.819c4.382-4.467 8.863-8.838 13.244-13.308.81-.826 1.217-.762 2 .022q25.384 25.414 50.82 50.776c1.284 1.282 2.55 2.583 3.866 3.83.545.517.59.85.027 1.412q-13.452 13.391-26.852 26.834c-.713.717-1.029.29-1.497-.178q-5.96-5.97-11.934-11.926-14.536-14.52-29.08-29.032a19.955 19.955 0 0 1-6.254-14.611Z" style="fill:#18b7de"/>
	<path d="M23.984 146.38a19.693 19.693 0 0 1 5.704-13.832c4.438-4.54 8.982-8.975 13.442-13.494.65-.657.989-.581 1.597.028q20.332 20.362 40.713 40.674c.626.624.643.96.003 1.596q-13.36 13.288-26.656 26.64c-.581.583-.893.623-1.499.015-9.282-9.316-18.636-18.562-27.87-27.925a19.183 19.183 0 0 1-5.434-13.702Z" style="fill:#45c1c6"/>
	<path class="cls-2" d="M93.432 305.063c0 6.766.001 13.478-.001 20.19-.001 2.47-.594 3.067-3.026 3.069q-3.47.002-6.94-.001c-2.08-.005-2.82-.712-2.82-2.741q-.007-30.822 0-61.643c0-1.89.738-2.62 2.643-2.635a385.9 385.9 0 0 1 6.94.002c1.842.019 2.61.82 2.635 2.685.013.949.002 1.898.002 2.928.185-.08.328-.095.391-.174 4.195-5.264 9.902-6.713 16.267-6.364 12.689.695 17.146 10.105 18.155 18.411.735 6.045.899 12.157-.789 18.096-1.987 6.996-6.062 12.19-13.51 13.817-6.36 1.39-12.46.89-17.689-3.581-.746-.638-1.453-1.322-2.258-2.059Zm-.083-18.758a39.302 39.302 0 0 0 .36 5.935c1.014 5.31 4.802 8.73 9.858 8.857 6.049.152 9.554-2.44 10.867-8.251a32.142 32.142 0 0 0-.05-14.298c-.698-3.086-2.236-5.647-5.243-7.044a10.543 10.543 0 0 0-14.915 6.424c-.9 2.68-.826 5.448-.877 8.377Z"/>
	<path class="cls-2" d="M59.852 305.092c-.73.6-1.406 1.11-2.031 1.679-4.1 3.725-9.06 4.775-14.385 4.53a18.136 18.136 0 0 1-12.484-5.247 12.76 12.76 0 0 1 1.577-19.786c3.976-2.905 8.56-4.275 13.346-5.043 4.205-.675 8.42-1.282 12.638-1.873.66-.093.986-.256.931-.98-.075-.993.021-2.007-.13-2.986-.723-4.705-3.767-6.596-9.588-6.317-3.758.18-6.346 2.433-8.603 5.13a2.264 2.264 0 0 1-1.915 1.009c-2.132-.03-4.264.005-6.396-.015-2.035-.018-2.939-1.115-2.441-3.08a12.938 12.938 0 0 1 5.073-7.192c5.248-3.958 11.296-4.87 17.65-4.54a26.16 26.16 0 0 1 9.276 1.884c6.304 2.766 9.543 7.861 9.735 14.512.301 10.426.104 20.867.094 31.301a2.069 2.069 0 0 1-2.288 2.282q-3.879.046-7.758 0a2.1 2.1 0 0 1-2.287-2.168c-.072-1.057-.014-2.123-.014-3.1Zm-.293-15.24a8.638 8.638 0 0 1 .009-1.22c.18-1.246-.22-1.515-1.484-1.25-2.476.517-5.001.798-7.5 1.21a22.864 22.864 0 0 0-8.25 2.525c-1.952 1.167-3.21 2.774-3.075 5.192a5.348 5.348 0 0 0 3.56 4.87 11.755 11.755 0 0 0 12.208-1.284c3.345-2.472 4.345-6.088 4.532-10.043Z"/>
	<path class="cls-2" d="M133.09 286.272c.04-3.93.017-7.388 1.005-10.736 2.196-7.437 7.028-12.228 14.533-14.196a31.862 31.862 0 0 1 16.276-.045c8.203 2.123 13.305 7.433 14.988 15.671a43.922 43.922 0 0 1-.13 18.374c-1.907 8.596-8.237 14.263-17.005 15.546a35.819 35.819 0 0 1-14.039-.495 19.745 19.745 0 0 1-15.274-17.273c-.316-2.443-.207-4.89-.354-6.846Zm13.059-.334a66.668 66.668 0 0 0 .375 6.717c.915 5.746 4.436 8.952 10.066 9.086 5.71.137 9.337-2.683 10.39-8.428a41.302 41.302 0 0 0-.07-15.413 9.505 9.505 0 0 0-9.785-8.106c-5.458-.055-9.053 2.736-10.337 7.962-.657 2.677-.523 5.403-.64 8.182Z"/>
	<path class="cls-2" d="M240.914 285.911a30.805 30.805 0 0 0 .886 8.449c1.268 4.211 4.15 6.682 8.225 6.988 5.297.398 8.61-1.181 10.378-5.59 1.035-2.582 2.507-3.428 5.132-3.165 2.02.203 4.078.019 6.119.05 1.882.027 2.733 1.046 2.428 2.9a16.635 16.635 0 0 1-5.835 10.15c-5.384 4.625-11.795 5.888-18.657 5.603a25.188 25.188 0 0 1-8.997-1.873 19.28 19.28 0 0 1-11.958-14.784 44.711 44.711 0 0 1 .097-17.972c1.772-8.157 6.872-13.398 14.932-15.388 7.633-1.885 15.133-1.396 22.053 2.8a16.772 16.772 0 0 1 8.355 11.968c.322 1.931-.543 2.97-2.478 2.987-2.676.023-5.353-.02-8.028.018a2.3 2.3 0 0 1-2.347-1.49c-.277-.62-.542-1.246-.847-1.852-2.115-4.212-5.628-5.962-10.725-5.353-4.115.491-7.044 3.24-8.087 7.535a37.971 37.971 0 0 0-.646 8.02Z"/>
	<path class="cls-2" d="M199.917 276.863v30.35c-.001 2.606-.563 3.156-3.209 3.158h-5.988c-2.68-.001-3.305-.614-3.305-3.254q-.002-17.352 0-34.705v-25.995c0-2.425.639-3.061 3.058-3.065 2.223-.003 4.446-.007 6.669.001 2.114.008 2.771.651 2.772 2.751q.008 15.38.003 30.76Z"/>
	<path class="cls-2" d="M221.23 285.868v21.368c-.002 2.522-.614 3.132-3.12 3.134q-3.267.003-6.533 0c-2.175-.006-2.935-.758-2.936-2.946q-.007-17.965-.002-35.93c0-2.496-.015-4.991.005-7.486.015-1.967.754-2.694 2.73-2.707q3.538-.022 7.077-.001c2.046.01 2.772.727 2.775 2.792q.016 10.888.004 21.776Z"/>
	<path class="cls-2" d="M214.735 253.242c-1.359 0-2.719.034-4.076-.01a2.151 2.151 0 0 1-2.343-2.387q-.046-3.328 0-6.658a2.19 2.19 0 0 1 2.438-2.443q4.212-.037 8.425.002a2.247 2.247 0 0 1 2.458 2.46c.044 2.174.037 4.35.003 6.523-.025 1.633-.88 2.438-2.556 2.515-.09.004-.181.005-.272.005h-4.077Z"/>
</svg>
