<?xml version="1.0" encoding="utf-8"?>
<!-- Generator: Adobe Illustrator 21.1.0, SVG Export Plug-In . SVG Version: 6.00 Build 0)  -->
<svg version="1.1" id="Layer_1" xmlns="http://www.w3.org/2000/svg" xmlns:xlink="http://www.w3.org/1999/xlink" x="0px" y="0px"
	 viewBox="0 0 300 73" style="enable-background:new 0 0 300 73;" xml:space="preserve">
<style type="text/css">
	.st0{fill:#513179;}
	.st1{fill:#4F3078;}
	.st2{fill:#4E2F77;}
	.st3{fill:#00ACD2;}
	.st4{fill:#CFE5E1;}
</style>
<g>
	<path class="st0" d="M253.2,41.2V27.1c0-2,0.2-3,2.6-3.2c4.5-0.9,9.1-1.1,13.6-0.8c1.9,0,3.6,0.7,5,2c1.4,1.4,2.2,1,3.6,0.2
		c4-2.2,8.6-2.9,13-2c4.4,0.8,7.8,4.4,8.2,8.9c1.2,8.2,0.4,16.5,0.6,24.7c0.1,0.6-0.3,1.1-0.9,1.2c-0.1,0-0.2,0-0.3,0h-2.6
		c-1.8,0.2-2.4-0.6-2.4-2.4c0-6.6,0-13-0.2-19.7c0-3-0.6-6-3.8-7.2c-3.5-1.2-7.3-0.8-10.4,1.2c-1,0.6-0.6,1.4-0.4,2.2
		c1.2,8,0.2,16.2,0.6,24.3c0,1.4-0.6,1.6-1.8,1.6h-2.4c-1.6,0.2-1.8-0.6-1.8-2V38.6c-0.2-9-4-12-12.8-10c-1.6,0.4-1.4,1.2-1.4,2.4
		v24.7c0,2.2-0.8,2.6-2.8,2.4c-1.6-0.2-3.6,0.6-3.4-2.4C253.4,50.8,253.2,46,253.2,41.2z"/>
	<path class="st1" d="M126.5,56.3v11.4c0,1.8-0.4,2.4-2.4,2.4c-3.6-0.2-3.6,0-3.6-3.6V27.8c0-2.4,0.4-3.6,3-4
		c3.9-0.8,7.8-1,11.8-0.8c8.6,0.4,15.4,7.4,15.4,16.1c0.2,2.6,0,5.3-0.6,7.8c-1.8,8.2-9.8,13.4-18,11.6c-0.8-0.2-1.7-0.4-2.5-0.8
		C128.6,57.4,127.5,56.9,126.5,56.3z M131.9,28.3h-2.6c-2.2-0.2-3,0.6-3,3c0.2,5.6,0.2,11.2,0,16.9c-0.1,1.6,0.8,3.1,2.4,3.6
		c7.4,3.6,14.1,0.4,15.4-7.6c1.5-8.9-2.4-16.3-12.2-15.7V28.3z"/>
	<path class="st1" d="M165.4,56.3v11.4c0,1.6-0.4,2.2-2.2,2.2c-4.7-0.2-3.8,0.4-3.8-3.8V26.8c0-2,0.4-2.6,2.4-3
		c4.8-1.3,9.9-1.5,14.8-0.6c8.4,1.8,13.4,9.2,12.6,18.5c-0.1,1.8-0.3,3.5-0.8,5.2c-1.7,8-9.5,13.2-17.5,11.6c-1-0.2-2-0.5-2.9-0.9
		C167.1,57.2,166.2,56.8,165.4,56.3z M165.4,39.9v9c0,1,0,1.8,1,2.4c2.9,1.9,6.5,2.5,9.8,1.4c5-1.4,6.4-5.4,6.8-10
		c0.8-7.2-1.8-15.7-13-14.6c-0.9,0-1.8,0-2.6,0.2c-1.1-0.2-2,0.5-2.2,1.6c0,0.2,0,0.4,0,0.6c0.3,3.2,0.3,6.4,0.2,9.6V39.9z"/>
	<path class="st0" d="M110,44.4v11c0,1.4-0.4,2-2,2.2c-5.2,0.6-10.2,1.6-15.4,0.6c-6.4-1.2-9.4-4.7-9.4-10.8c0.2-5.4,4-9.2,10-10
		c3-0.5,6.1-0.5,9,0.2C104,38,104,37.2,104,36c0-5.6-2.6-8-8.2-8c-2.2,0.1-4.4,0.3-6.6,0.8c-0.8,0.2-1.8,0.8-1.8-0.8
		c0-1.6-1.8-3.4,0.6-4c5.1-1.7,10.6-1.7,15.7,0c3.6,1.5,6,4.9,6.2,8.8c0.2,3.8,0,7.8,0,11.6L110,44.4z M104,47.8
		c-0.1-0.9-0.1-1.7,0-2.6c0.4-2.2-0.6-3-3-3.2c-2.2-0.2-4.4-0.2-6.6,0.2c-2.9,0.2-5.2,2.7-5,5.6c-0.2,2.8,2,5.2,4.8,5.4
		c0.1,0,0.3,0,0.4,0c1.2,0.2,2.4,0.2,3.6,0.2C104,53.4,104,53.4,104,47.8z"/>
	<path class="st2" d="M242.4,40.2V55c0,1,0.2,1.8-1.2,2c-5.2,1.3-10.7,1.7-16.1,1c-5.3-0.7-9.5-5.1-9.8-10.4c-1-6-0.2-12.2-0.4-18.2
		c0.1-0.9,0.1-1.7,0-2.6c-0.4-2.6,0.4-3.6,3.2-3.4c2.2,0.2,3,0.4,3,2.8c-0.2,5.8-0.2,11.6,0.2,17.4c0.4,7.6,3.2,9.8,10.8,9.4
		c4.7-0.2,4.7-0.2,4.7-4.7c0-7.6,0.2-15.2,0-22.7c0-2.4,1.2-2.2,2.8-2.2c1.6,0,3.4-1,3.4,2C242.5,30.3,242.3,35.3,242.4,40.2z"/>
	<path class="st0" d="M198.3,40.6V25.7c0-1.6,0.4-2.4,2.2-2.2c0.7,0.1,1.5,0.1,2.2,0c1.4-0.2,2,0.4,2,1.8v30.6c0,1.8-0.6,2-2.2,2
		c-5-0.2-4,0.4-4-4S198.3,45,198.3,40.6z"/>
	<path class="st0" d="M201.3,9.3c2-0.1,3.7,1.4,3.8,3.5c0,0.2,0,0.4,0,0.5c0,2.2-1.8,4-4,4c-2.1,0-3.8-1.8-3.8-3.9c0,0,0-0.1,0-0.1
		C197.3,11.1,199.1,9.3,201.3,9.3z"/>
	<path class="st3" d="M57.3,7.3C44.7-2,27.5-2.2,14.8,6.9C1.1,15.9,0.4,32.6,0.4,32.6c2.4,9,11.4,17.8,29.1,13.6
		C27.5,33.8,31.5,2.9,57.3,7.3L57.3,7.3z"/>
	<path class="st4" d="M48.3,36.8c-9.6,7.8-38.4,20.1-47.8-4.2c-2.2,11.2,3.8,30.1,20.5,37.3c14.6,7.2,29.9-1.2,29.9-1.2
		C57.6,62.1,60.6,50,48.3,36.8"/>
	<path class="st2" d="M31,25.7C42.7,30,67.5,48.6,51.1,68.7c10.8-3.8,23.5-18.2,21.5-36.3c-1-16.2-15.2-25.1-15.2-25.1
		C48.3,4.7,36.1,8.3,31,25.7"/>
</g>
</svg>
