<svg xmlns="http://www.w3.org/2000/svg" width="200" height="128">
    <path d="M76.85 43.5v41.71a.9.9 0 000 .16c0 .38-.06.76-.12 1.13a7.64 7.64 0 01-7.1 6.25H27.44a7.06 7.06 0 01-3-.71 7.58 7.58 0 01-4.32-5.79c0-.25-.06-.49-.09-.74V43.17A1.13 1.13 0 0020 43c0-.21 0-.43.08-.64a7.48 7.48 0 012.24-4.27 7.4 7.4 0 014.18-2l.7-.1h42.38l.63.08a7.57 7.57 0 014.56 2.35 7.49 7.49 0 012 4.42c.04.16.05.42.08.66zM22.36 64.35v20.78a5.39 5.39 0 00.14 1.2 5.28 5.28 0 005.2 4.08h41.43a5.54 5.54 0 001.76-.28A5.33 5.33 0 0074.48 85V43.68a7 7 0 00-.08-1 5.28 5.28 0 00-5.15-4.37H27.6a4.88 4.88 0 00-1 .11 5.28 5.28 0 00-4.23 5.21z" fill="#0f508e"/>
    <path d="M31.32 51.87l-4.49-3.28 15.28-4.46v15.62l-4.22-3.08-.14.19a13.64 13.64 0 00-2.26 5.56 13.64 13.64 0 0010.95 15.63 12.63 12.63 0 003.19.2 13.38 13.38 0 008.52-3.74 13.53 13.53 0 003.92-7 14.51 14.51 0 00.29-2.28 13.64 13.64 0 00-10.78-13.91 12.14 12.14 0 00-3.29-.27c-.64 0-1.27.14-1.91.21h-.31v-8c.26 0 .51-.08.76-.09.75 0 1.49-.09 2.23-.08a21.57 21.57 0 0121.25 18.56 21.57 21.57 0 01.2 3.68A21.61 21.61 0 0150 86.21a22.23 22.23 0 01-3.46-.09 21.62 21.62 0 01-17-11.68 21 21 0 01-2-6.17 19.55 19.55 0 01-.32-2.27q-.07-1.2 0-2.4a20.7 20.7 0 011.14-5.93A21.29 21.29 0 0131.25 52l.06-.09a.13.13 0 01.01-.04z" fill="#008d76"/>
    <path d="M92.67 58.91a5.44 5.44 0 01-3.93-1.66l-1.44 2a7.15 7.15 0 005.24 2c3.33 0 4.94-1.71 4.94-4 0-2.74-2.59-3.35-4.63-3.82-1.42-.33-2.46-.59-2.46-1.42s.63-1.26 1.81-1.26a5.29 5.29 0 013.54 1.35l1.46-1.92a6.86 6.86 0 00-4.81-1.73c-2.91 0-4.68 1.67-4.68 3.72 0 2.76 2.59 3.32 4.61 3.78 1.42.33 2.49.65 2.49 1.57 0 .71-.7 1.39-2.14 1.39zM99.63 48.64h2.63v12.35h-2.63zM117.38 54.82a6.45 6.45 0 10-6.45 6.39 6.2 6.2 0 006.45-6.39zm-6.45 4a3.74 3.74 0 01-3.74-4 3.76 3.76 0 117.49 0 3.75 3.75 0 01-3.75 4.05zM124.13 58.91a5.43 5.43 0 01-3.92-1.66l-1.45 2a7.15 7.15 0 005.24 2c3.33 0 4.94-1.71 4.94-4 0-2.74-2.59-3.35-4.62-3.82-1.43-.33-2.47-.59-2.47-1.42s.63-1.26 1.82-1.26a5.29 5.29 0 013.53 1.35l1.46-1.92a6.86 6.86 0 00-4.81-1.73c-2.9 0-4.68 1.67-4.68 3.72 0 2.76 2.59 3.32 4.61 3.78 1.42.33 2.5.65 2.5 1.57 0 .71-.71 1.39-2.15 1.39zM91.15 66.93l-4.78 12.34h2.89l.74-2.13h5.51l.78 2.13h2.91l-4.76-12.34zm-.41 7.94l2.06-5.67 2 5.67zM105.41 70.11a3.45 3.45 0 00-2.76 1.35v-1.13h-2.35v12.35h2.35v-4.56a3.4 3.4 0 002.76 1.37c2.29 0 4-1.72 4-4.7s-1.71-4.68-4-4.68zm-.74 7.29a2.68 2.68 0 01-2-1v-3.18a2.65 2.65 0 012-1 2.63 2.63 0 010 5.2zM116.24 70.11a3.47 3.47 0 00-2.76 1.35v-1.13h-2.35v12.35h2.35v-4.56a3.43 3.43 0 002.76 1.37c2.3 0 4-1.72 4-4.7s-1.7-4.68-4-4.68zm-.74 7.29a2.68 2.68 0 01-2-1v-3.18a2.65 2.65 0 012-1 2.63 2.63 0 010 5.2zM132.26 66.93h-3.24l-4.37 5.51v-5.51h-2.63v12.34h2.63v-3.79l.96-1.15 3.74 4.94h3.24l-5.24-6.55 4.91-5.79z"/>
    <path d="M137.3 70.11a4.69 4.69 0 10.15 9.38 5.48 5.48 0 003.68-1.24l-1-1.51a3.66 3.66 0 01-2.39.88 2.41 2.41 0 01-2.57-2.07h6.65V75c-.04-2.89-1.82-4.89-4.52-4.89zM135.09 74a2.16 2.16 0 012.21-2 2.07 2.07 0 012.2 2zM147.54 70.11a4.69 4.69 0 10.15 9.38 5.48 5.48 0 003.68-1.24l-1-1.51a3.66 3.66 0 01-2.39.88 2.41 2.41 0 01-2.57-2.07H152V75c0-2.89-1.8-4.89-4.46-4.89zm-2.2 3.89a2.15 2.15 0 012.2-2 2.07 2.07 0 012.2 2zM158.83 70.11a3.43 3.43 0 00-2.75 1.35v-1.13h-2.35v12.35h2.35v-4.56a3.39 3.39 0 002.75 1.37c2.3 0 4-1.72 4-4.7s-1.7-4.68-4-4.68zm-.74 7.29a2.65 2.65 0 01-2-1v-3.18a2.62 2.62 0 012-1 2.63 2.63 0 010 5.2zM168.61 70.11a4.69 4.69 0 10.15 9.38 5.45 5.45 0 003.68-1.24l-1-1.51a3.7 3.7 0 01-2.39.88 2.4 2.4 0 01-2.57-2.07h6.64V75c-.03-2.89-1.84-4.89-4.51-4.89zm-2.2 3.89a2.15 2.15 0 012.2-2 2.06 2.06 0 012.2 2zM177.15 71.55v-1.22h-2.35v8.94h2.35v-5.9a3 3 0 012.2-1 3.82 3.82 0 01.65 0v-2.24a3.84 3.84 0 00-2.85 1.42z"/>
</svg>
