<svg xmlns="http://www.w3.org/2000/svg" viewBox="-268.05 -268.05 838.6 938.6">
	<path fill="#a9adb1" d="M236.986 94.662c-32.251-2.387-59.613 18.014-74.878 18.014-15.489 0-39.368-17.5-64.689-17.022-33.246.488-63.889 19.346-81.031 49.114-34.532 59.938-8.815 148.756 24.82 197.393 16.454 23.766 36.076 50.548 61.852 49.573 24.81-.977 34.194-16.045 64.184-16.045 29.97 0 38.426 16.045 64.662 15.566 26.702-.498 43.62-24.26 59.953-48.158 18.901-27.585 26.666-54.294 27.128-55.706-.591-.224-52.054-19.968-52.567-79.26-.465-49.57 40.46-73.398 42.323-74.545-23.231-34.215-59.116-37.988-71.757-38.924m-19.9-32.108c13.698-16.555 22.913-39.609 20.377-62.54-19.716.782-43.559 13.131-57.7 29.675-12.66 14.656-23.783 38.127-20.762 60.59 21.973 1.698 44.4-11.16 58.084-27.725"/>
	<path fill-opacity=".1" d="M-250-250h3v3h-3zm800 0h3v3h-3zm-800 900h3v3h-3zm800 0h3v3h-3z"/>
</svg>
