<svg data-name="Layer 1" xmlns="http://www.w3.org/2000/svg" viewBox="0 0 763.54 98.21">
	<defs>
		<linearGradient id="a" x1="-281.8" y1="-928.68" x2="-280.99" y2="-928.68" gradientTransform="matrix(148.1 0 0 -148.1 41794.17 -137455.47)" gradientUnits="userSpaceOnUse">
			<stop offset="0" stop-color="#eff2f3"/>
			<stop offset="1" stop-color="#dbe2e4"/>
			<stop offset="1" stop-color="#dbe2e4"/>
		</linearGradient>
		<linearGradient id="b" x1="-281.23" y1="-927.18" x2="-280.41" y2="-927.18" gradientTransform="scale(132.55 -132.55) rotate(89.762 -604.894 -322.25)" gradientUnits="userSpaceOnUse">
			<stop offset="0" stop-color="#9c9eff"/>
			<stop offset=".76" stop-color="#303297"/>
			<stop offset="1" stop-color="#303297"/>
		</linearGradient>
	</defs>
	<path d="M58.94 101.4 99 61.31a56.79 56.79 0 0 1 80.3 0l-40.06 40.09a56.79 56.79 0 0 1-80.3 0Z" transform="translate(-18.79 -32.25)" style="fill:url(#a)"/>
	<path d="M58.94 101.4 18.79 61.25a56.77 56.77 0 0 1 80.3 0Z" transform="translate(-18.79 -32.25)" style="fill:#d5dee0"/>
	<path d="m139.18 101.46 40.15-40.15 40.15 40.15a56.79 56.79 0 0 1-80.3 0Z" transform="translate(-18.79 -32.25)" style="fill:url(#b)"/>
	<path d="M762.39 62.26v-8.19H749.9v56H763V82.93q0-8.4 4.3-12.86t12-4.46a16.75 16.75 0 0 1 3.05.32V53.44q-14.3 0-19.96 8.82Zm-56.56 39c-3.35 0-6-.7-7.87-2.1a6.71 6.71 0 0 1-2.83-5.67q0-7.44 11.33-7.44H720v6.5a12.23 12.23 0 0 1-5.41 6.45 16.86 16.86 0 0 1-8.76 2.29Zm1.79-47.85a47.15 47.15 0 0 0-13.12 1.79 31.83 31.83 0 0 0-10.6 5.14l5.15 9.55a22.66 22.66 0 0 1 7.71-4.1 30.4 30.4 0 0 1 9.24-1.44q6.93 0 10.44 3.15t3.52 9v.84h-14.44q-12.07 0-17.68 4.56a14.81 14.81 0 0 0-5.62 12.12 15.16 15.16 0 0 0 2.58 8.66 17 17 0 0 0 7.29 6 26.42 26.42 0 0 0 11 2.15 26.93 26.93 0 0 0 10.75-1.94 15.31 15.31 0 0 0 6.87-5.62v6.82h12.39V77.26q0-12-6.56-17.89t-18.92-5.93Zm-51.73 56.69H669V32.25h-13.11Zm-30.32 0h13.11V32.25h-13.11Zm-40.93-46.17a15.32 15.32 0 0 1 15.85 13.65h-31.8a15.68 15.68 0 0 1 5.3-9.92 15.87 15.87 0 0 1 10.65-3.73ZM613 82.4a30.79 30.79 0 0 0-3.62-15.16 25.68 25.68 0 0 0-10.07-10.18 29.43 29.43 0 0 0-14.64-3.62 30.27 30.27 0 0 0-14.9 3.67 26.42 26.42 0 0 0-10.33 10.24 29.23 29.23 0 0 0-3.73 14.74 28.91 28.91 0 0 0 3.83 14.84 26.51 26.51 0 0 0 10.86 10.24 37.85 37.85 0 0 0 29.28 1.36 23.68 23.68 0 0 0 9.55-6.82l-7-8.08A20.43 20.43 0 0 1 587 99.72a19.83 19.83 0 0 1-12.12-3.62 15.28 15.28 0 0 1-6-9.82h44c.02-1.67.12-2.97.12-3.88Zm-65.29 15.32a11.53 11.53 0 0 1-7.35 2.31 7.51 7.51 0 0 1-5.77-2.15c-1.33-1.43-2-3.52-2-6.24V65h15V54.49h-15v-12.8h-13.11v12.8h-9.23V65h9.23v27q0 9.24 5 14.06t14.27 4.83a25.31 25.31 0 0 0 7-1 15.45 15.45 0 0 0 5.61-2.83ZM481 110.84q11.76 0 18.58-4.72t6.82-12.6q0-6-3.1-9.23a17.22 17.22 0 0 0-7.4-4.62 78.07 78.07 0 0 0-11-2.41 51.23 51.23 0 0 1-9.92-2.46 4.56 4.56 0 0 1-3.2-4.46q0-2.84 3-4.57t8.71-1.77a31.07 31.07 0 0 1 16.06 4.2l5-10a32.56 32.56 0 0 0-9.44-3.52 52.24 52.24 0 0 0-11.54-1.31q-11.34 0-18 4.78A14.92 14.92 0 0 0 458.94 71q0 6.07 3.2 9.49a17.25 17.25 0 0 0 7.55 4.78A78 78 0 0 0 481 87.65a51.54 51.54 0 0 1 9.6 2.2 4.13 4.13 0 0 1 3 4.09q0 6.19-11.75 6.2a37.48 37.48 0 0 1-10.44-1.53 32.11 32.11 0 0 1-9.07-4l-5 10a33.52 33.52 0 0 0 10.39 4.52 50.44 50.44 0 0 0 13.27 1.71Zm-59.7-11.23a16.91 16.91 0 0 1-8.5-2.15 15.5 15.5 0 0 1-6-6.14 20.48 20.48 0 0 1 0-18.47 15.54 15.54 0 0 1 6-6.13 16.82 16.82 0 0 1 8.5-2.16 15.88 15.88 0 0 1 11.91 4.83q4.67 4.83 4.67 12.7c0 5.24-1.56 9.48-4.67 12.69a15.84 15.84 0 0 1-11.94 4.83Zm1.47-46.17a27.13 27.13 0 0 0-10.55 2 20.22 20.22 0 0 0-8 6v-7.37h-12.54v76.39h13.12v-27.18q6.6 7.56 17.94 7.56a29.72 29.72 0 0 0 14.64-3.57 25.61 25.61 0 0 0 10.12-10.13 30.26 30.26 0 0 0 3.67-15 30 30 0 0 0-3.67-15A25.79 25.79 0 0 0 437.38 57a29.72 29.72 0 0 0-14.64-3.56Zm-73.48 46.17a16.91 16.91 0 0 1-8.5-2.15 15.5 15.5 0 0 1-6-6.14 20.48 20.48 0 0 1 0-18.47 15.54 15.54 0 0 1 6-6.13 16.82 16.82 0 0 1 8.5-2.16 15.88 15.88 0 0 1 11.91 4.83q4.67 4.83 4.67 12.7c0 5.24-1.56 9.48-4.67 12.69a15.84 15.84 0 0 1-11.91 4.83Zm1.47-46.17a27.13 27.13 0 0 0-10.55 2 20.22 20.22 0 0 0-8 6v-7.37H319.7v76.39h13.12v-27.18q6.6 7.56 17.94 7.56a29.75 29.75 0 0 0 14.64-3.57 25.61 25.61 0 0 0 10.12-10.13 30.26 30.26 0 0 0 3.67-15 30 30 0 0 0-3.67-15A25.79 25.79 0 0 0 365.4 57a29.75 29.75 0 0 0-14.64-3.56Zm-75.13 47.85q-5 0-7.87-2.1a6.69 6.69 0 0 1-2.83-5.67q0-7.44 11.33-7.44h13.54v6.5a12.27 12.27 0 0 1-5.41 6.42 16.86 16.86 0 0 1-8.76 2.29Zm1.78-47.85a47.08 47.08 0 0 0-13.11 1.79 31.83 31.83 0 0 0-10.6 5.14l5.14 9.55a22.84 22.84 0 0 1 7.71-4.1 30.47 30.47 0 0 1 9.29-1.47q6.93 0 10.44 3.15t3.52 9v.84h-14.48q-12.07 0-17.69 4.56A14.83 14.83 0 0 0 252 94.05a15.23 15.23 0 0 0 2.57 8.66 17.16 17.16 0 0 0 7.29 6 26.46 26.46 0 0 0 11 2.15 27 27 0 0 0 10.76-1.94 15.31 15.31 0 0 0 6.87-5.62v6.82h12.38V77.26q0-12-6.56-17.89t-18.9-5.93Z" transform="translate(-18.79 -32.25)" style="fill:#323c47"/>
</svg>
