<svg xmlns="http://www.w3.org/2000/svg" viewBox="-16.5 -7.5 1898 1427">
	<path d="M254.328 1154.743v-20.448c-4.29-46.237-36.033-77.413-81.178-77.413-47.856 0-81.222 36.562-81.748 87.615.526 51.623 33.366 87.66 81.748 87.66 45.145 0 76.888-31.176 81.178-77.414zm69.925-154.869v287.67h-69.925v-45.712c-20.403 31.22-53.242 48.952-96.24 48.952-82.272 0-137.135-60.248-137.135-147.863 0-86.607 53.768-145.192 134.464-145.762 44.093-.525 77.938 17.208 98.911 48.953v-46.238h69.925m310.703 143.047c0-50.572-33.364-86.607-80.697-86.607-47.857 0-81.179 36.035-81.179 86.607 0 51.623 33.322 87.09 81.18 87.09 47.332 0 80.696-36.037 80.696-87.09zm70.976 2.145c0 86.565-53.243 145.192-134.99 145.192-43.567 0-76.888-17.776-97.862-49.477v142.832h-69.925V999.874h69.925v47.332c20.449-31.744 53.77-49.477 96.811-49.477 81.177 0 136.04 59.153 136.04 147.337m289.992-2.145c0-50.572-33.363-86.607-80.695-86.607-47.859 0-81.18 36.035-81.18 86.607 0 51.623 33.321 87.09 81.18 87.09 47.332 0 80.695-36.037 80.695-87.09zm70.976 2.145c0 86.565-53.242 145.192-134.99 145.192-43.567 0-76.888-17.776-97.86-49.477v142.832h-69.927V999.874h69.926v47.332c20.448-31.744 53.768-49.477 96.81-49.477 81.178 0 136.04 59.153 136.04 147.337m87.822-145.192 75.268 218.84 73.69-218.84h70.408l-109.683 287.67h-72.071l-110.776-287.145 73.164-.525m335.23 0v287.67h-69.932v-287.67zm4.813-81.747c0 23.643-17.2 41.42-39.8 41.42-22.585 0-39.798-17.777-39.798-41.42 0-24.74 17.213-41.947 39.799-41.947 22.599 0 39.799 17.207 39.799 41.947m281.02 236.616v-20.448c-4.294-46.237-36.027-77.413-81.212-77.413-47.866 0-81.185 36.562-81.705 87.615.52 51.623 33.32 87.66 81.705 87.66 45.185 0 76.918-31.176 81.211-77.414zm69.89-154.869v287.67h-69.89v-45.712c-20.44 31.22-53.24 48.952-96.278 48.952-82.278 0-137.09-60.248-137.09-147.863 0-86.607 53.758-145.192 134.41-145.762 44.092-.525 77.984 17.208 98.957 48.953v-46.238h69.892M960.639 29.754 471.369 378.48v235.52l271.976 193.31L960.64 652.851l217.293 154.456L1449.91 613.52V378.479zm379.9 343.928-162.607 117.04-162.61-117.04 162.61-116.081zm-348.721 59.96 154.935 111.283v164.53L991.818 598.169zm-31.18-330.498 162.61 115.603-162.61 116.56-162.61-116.56zM743.346 257.601l162.61 116.08-162.61 117.042-162.609-117.041zm-31.177 287.324v164.53L533.728 581.38V417.811zm62.357 164.53v-164.53l154.934-111.284V598.17zm613.027-128.075L1209.11 709.455v-164.53l178.442-127.114v163.57" fill="#204826"/>
</svg>
