<svg xmlns="http://www.w3.org/2000/svg" width="200" height="128">
	<path fill="#f1df36" d="M44.749 39.82 32.371 51.91h24.753V39.82H44.749z"/>
	<path fill="#faaf42" d="M57.124 76.09 69.498 64V51.91H57.124v24.18z"/>
	<path fill="#9ad7ec" d="M32.371 76.09v12.09h12.378l12.375-12.09H32.371z"/>
	<path fill="#08b1d5" d="M20 64v12.09h12.371V51.91L20 64z"/>
	<path fill="#f69421" d="M57.124 39.82h12.375v12.09H57.124z"/>
	<path fill="#0d819b" d="M20 76.09h12.375v12.09H20z"/>
	<path d="M99.634 51a9.188 9.188 0 0 0-3.477-1.582 21.131 21.131 0 0 0-4.6-.43 24.815 24.815 0 0 0-4.534.43c-1.508.281-2.681.54-3.492.775l-.384.11v5.337h.9l.1-.043a23.328 23.328 0 0 1 3.972-1.276 16.2 16.2 0 0 1 3.417-.438 17.061 17.061 0 0 1 2.411.16 4.6 4.6 0 0 1 1.831.633 2.886 2.886 0 0 1 1.09 1.224 5.1 5.1 0 0 1 .405 2.222v.327c-2.1.125-4.086.306-5.91.541a18.385 18.385 0 0 0-5.277 1.422 8.277 8.277 0 0 0-3.815 3.2 9.242 9.242 0 0 0-1.209 4.836 9.363 9.363 0 0 0 .661 3.489 8.456 8.456 0 0 0 1.778 2.8 8.341 8.341 0 0 0 5.921 2.443 11.317 11.317 0 0 0 3.168-.355 13.511 13.511 0 0 0 2.311-.957 10.572 10.572 0 0 0 1.814-1.181l.555-.437v2.2h5.383V58.289a11.4 11.4 0 0 0-.732-4.313A7 7 0 0 0 99.634 51zm-2.375 18.334a15.618 15.618 0 0 1-2.845 1.956 7.273 7.273 0 0 1-3.467.825 4.777 4.777 0 0 1-3.289-.993 3.747 3.747 0 0 1-1.067-2.951 3.523 3.523 0 0 1 .971-2.678A6.493 6.493 0 0 1 90.211 64a20.758 20.758 0 0 1 3.734-.665c1.276-.132 2.389-.242 3.325-.327v6.326zm26.118-18.9a14.444 14.444 0 0 0-2.471-1.067 12.029 12.029 0 0 0-3.6-.487 10.263 10.263 0 0 0-4.359.974 10.5 10.5 0 0 0-3.591 2.77 13.864 13.864 0 0 0-2.515 4.452 18.05 18.05 0 0 0-.942 6.045c0 4.285.914 7.692 2.713 10.12a8.81 8.81 0 0 0 7.425 3.737 10.337 10.337 0 0 0 4.224-.842 13.341 13.341 0 0 0 2.939-1.856v11.7h5.408V49.606H123.6zm-.185 18.782a12.428 12.428 0 0 1-2.873 1.813 8.041 8.041 0 0 1-3.336.74 4.452 4.452 0 0 1-4.139-2.18 13.09 13.09 0 0 1-1.4-6.685c0-2.962.587-5.248 1.743-6.792a5.593 5.593 0 0 1 4.839-2.258 10.883 10.883 0 0 1 2.642.31 13.941 13.941 0 0 1 2.525.949v14.1zm26.371-.068a15.05 15.05 0 0 1-2.991 1.992 7.116 7.116 0 0 1-3.158.846 5.467 5.467 0 0 1-2.378-.405 2.783 2.783 0 0 1-1.22-1.227 6.134 6.134 0 0 1-.622-2.18 31.154 31.154 0 0 1-.146-3.346V49.606h-5.419V66.88a14.6 14.6 0 0 0 .64 4.587 8.817 8.817 0 0 0 1.835 3.2 7.208 7.208 0 0 0 2.8 1.891 9.58 9.58 0 0 0 3.36.587 9.328 9.328 0 0 0 4.268-.971 17.845 17.845 0 0 0 3.036-2v2.255h5.409V49.606h-5.419v19.539zm29.684-15.176A6.993 6.993 0 0 0 176.971 51a9.184 9.184 0 0 0-3.481-1.575 21.125 21.125 0 0 0-4.6-.43 24.88 24.88 0 0 0-4.54.43c-1.508.281-2.682.54-3.492.775l-.384.11v5.33h.9l.1-.043a23.357 23.357 0 0 1 3.972-1.276 16.2 16.2 0 0 1 3.417-.438 16.863 16.863 0 0 1 2.4.168 4.578 4.578 0 0 1 1.831.633 2.878 2.878 0 0 1 1.092 1.223 5.1 5.1 0 0 1 .405 2.222v.327c-2.1.125-4.085.306-5.909.541a18.368 18.368 0 0 0-5.277 1.422 8.271 8.271 0 0 0-3.816 3.2 9.247 9.247 0 0 0-1.209 4.836 9.362 9.362 0 0 0 .661 3.488 8.472 8.472 0 0 0 1.778 2.8 8.341 8.341 0 0 0 5.921 2.443 11.313 11.313 0 0 0 3.168-.355 13.521 13.521 0 0 0 2.312-.957 10.559 10.559 0 0 0 1.813-1.18l.555-.438v2.2H180V58.289a11.385 11.385 0 0 0-.75-4.313zM174.6 69.334a15.618 15.618 0 0 1-2.845 1.956 7.27 7.27 0 0 1-3.467.825 4.779 4.779 0 0 1-3.288-.993 3.747 3.747 0 0 1-1.067-2.951 3.523 3.523 0 0 1 .971-2.678A6.485 6.485 0 0 1 167.552 64a20.7 20.7 0 0 1 3.723-.661c1.276-.132 2.389-.242 3.325-.328v6.323z" fill="#464547"/>
</svg>
