<svg xmlns="http://www.w3.org/2000/svg" height="1061.333" width="3305.64" xml:space="preserve">
	<defs>
		<clipPath id="i" clipPathUnits="userSpaceOnUse">
			<path d="M0 796h2479.234V0H0Z"/>
		</clipPath>
		<clipPath id="j" clipPathUnits="userSpaceOnUse">
			<path d="M419.295 682.37h90.429v-90.505h-90.429z"/>
		</clipPath>
		<clipPath id="k" clipPathUnits="userSpaceOnUse">
			<path d="M419.295 591.864h90.427l.002 90.506z"/>
		</clipPath>
		<clipPath id="a" clipPathUnits="userSpaceOnUse">
			<path d="M-32768 32767h65535v-65535h-65535Z"/>
		</clipPath>
		<clipPath id="n" clipPathUnits="userSpaceOnUse">
			<path d="M419.295 591.864h90.427l.002 90.506z"/>
		</clipPath>
		<clipPath id="c" clipPathUnits="userSpaceOnUse">
			<path d="M-32768 32767h65535v-65535h-65535Z"/>
		</clipPath>
		<clipPath id="q" clipPathUnits="userSpaceOnUse">
			<path d="M0 796h2479.234V0H0Z"/>
		</clipPath>
		<clipPath id="r" clipPathUnits="userSpaceOnUse">
			<path d="M195.573 458.591h90.666v-90.654h-90.666z"/>
		</clipPath>
		<clipPath id="s" clipPathUnits="userSpaceOnUse">
			<path d="m195.573 367.937 90.666 90.654v-90.654z"/>
		</clipPath>
		<clipPath id="e" clipPathUnits="userSpaceOnUse">
			<path d="M-32768 32767h65535v-65535h-65535Z"/>
		</clipPath>
		<clipPath id="v" clipPathUnits="userSpaceOnUse">
			<path d="M195.573 367.937h90.667v90.653Z"/>
		</clipPath>
		<clipPath id="g" clipPathUnits="userSpaceOnUse">
			<path d="M-32768 32767h65535v-65535h-65535Z"/>
		</clipPath>
		<clipPath id="y" clipPathUnits="userSpaceOnUse">
			<path d="M0 796h2479.234V0H0Z"/>
		</clipPath>
		<linearGradient id="b" spreadMethod="pad" gradientTransform="scale(122.75327 -122.75327) rotate(-45 -3.825 -6.728)" gradientUnits="userSpaceOnUse" y2="0" x2="1" y1="0" x1="0">
			<stop offset="0" style="stop-opacity:0;stop-color:#fff"/>
			<stop offset="1" style="stop-opacity:.29999237;stop-color:#fff"/>
		</linearGradient>
		<linearGradient id="m" spreadMethod="pad" gradientTransform="scale(122.75327 -122.75327) rotate(-45 -3.825 -6.728)" gradientUnits="userSpaceOnUse" y2="0" x2="1" y1="0" x1="0">
			<stop offset="0" style="stop-opacity:1;stop-color:#ff445f"/>
			<stop offset="1" style="stop-opacity:1;stop-color:#ff445f"/>
		</linearGradient>
		<linearGradient id="d" spreadMethod="pad" gradientTransform="matrix(-90.42863 .00004 -.00004 -90.42866 509.719 637.112)" gradientUnits="userSpaceOnUse" y2="0" x2="1" y1="0" x1="0">
			<stop offset="0" style="stop-opacity:.4;stop-color:#fff"/>
			<stop offset=".114" style="stop-opacity:0;stop-color:#fff"/>
			<stop offset=".241" style="stop-opacity:0;stop-color:#fff"/>
			<stop offset=".393" style="stop-opacity:0;stop-color:#fff"/>
			<stop offset="1" style="stop-opacity:0;stop-color:#fff"/>
		</linearGradient>
		<linearGradient id="p" spreadMethod="pad" gradientTransform="matrix(-90.42863 .00004 -.00004 -90.42866 509.719 637.112)" gradientUnits="userSpaceOnUse" y2="0" x2="1" y1="0" x1="0">
			<stop offset="0" style="stop-opacity:1;stop-color:#ff445f"/>
			<stop offset=".114" style="stop-opacity:1;stop-color:#ff445f"/>
			<stop offset=".241" style="stop-opacity:1;stop-color:#ff445f"/>
			<stop offset=".393" style="stop-opacity:1;stop-color:#ff445f"/>
			<stop offset="1" style="stop-opacity:1;stop-color:#ff445f"/>
		</linearGradient>
		<linearGradient id="f" spreadMethod="pad" gradientTransform="scale(130.97024 -130.97024) rotate(-44.868 -2.337 -3.275)" gradientUnits="userSpaceOnUse" y2="0" x2="1" y1="0" x1="0">
			<stop offset="0" style="stop-opacity:.2;stop-color:#fff"/>
			<stop offset="1" style="stop-opacity:0;stop-color:#fff"/>
		</linearGradient>
		<linearGradient id="u" spreadMethod="pad" gradientTransform="scale(130.97024 -130.97024) rotate(-44.868 -2.337 -3.275)" gradientUnits="userSpaceOnUse" y2="0" x2="1" y1="0" x1="0">
			<stop offset="0" style="stop-opacity:1;stop-color:#1904da"/>
			<stop offset="1" style="stop-opacity:1;stop-color:#1904da"/>
		</linearGradient>
		<linearGradient id="h" spreadMethod="pad" gradientTransform="rotate(90 -63.457 304.41) scale(90.65243)" gradientUnits="userSpaceOnUse" y2="0" x2="1" y1="0" x1="0">
			<stop offset="0" style="stop-opacity:.29999237;stop-color:#fff"/>
			<stop offset=".114" style="stop-opacity:0;stop-color:#fff"/>
			<stop offset=".241" style="stop-opacity:0;stop-color:#fff"/>
			<stop offset=".393" style="stop-opacity:0;stop-color:#fff"/>
			<stop offset="1" style="stop-opacity:0;stop-color:#fff"/>
		</linearGradient>
		<linearGradient id="x" spreadMethod="pad" gradientTransform="rotate(90 -63.457 304.41) scale(90.65243)" gradientUnits="userSpaceOnUse" y2="0" x2="1" y1="0" x1="0">
			<stop offset="0" style="stop-opacity:1;stop-color:#1904da"/>
			<stop offset=".114" style="stop-opacity:1;stop-color:#1904da"/>
			<stop offset=".241" style="stop-opacity:1;stop-color:#1904da"/>
			<stop offset=".393" style="stop-opacity:1;stop-color:#1904da"/>
			<stop offset="1" style="stop-opacity:1;stop-color:#1904da"/>
		</linearGradient>
		<mask id="l" height="1" width="1" y="0" x="0" maskUnits="userSpaceOnUse">
			<g clip-path="url(#a)">
				<path style="fill:url(#b);stroke:none" d="M-32768 32767h65535v-65535h-65535Z"/>
			</g>
		</mask>
		<mask id="o" height="1" width="1" y="0" x="0" maskUnits="userSpaceOnUse">
			<g clip-path="url(#c)">
				<path style="fill:url(#d);stroke:none" d="M-32768 32767h65535v-65535h-65535Z"/>
			</g>
		</mask>
		<mask id="t" height="1" width="1" y="0" x="0" maskUnits="userSpaceOnUse">
			<g clip-path="url(#e)">
				<path style="fill:url(#f);stroke:none" d="M-32768 32767h65535v-65535h-65535Z"/>
			</g>
		</mask>
		<mask id="w" height="1" width="1" y="0" x="0" maskUnits="userSpaceOnUse">
			<g clip-path="url(#g)">
				<path style="fill:url(#h);stroke:none" d="M-32768 32767h65535v-65535h-65535Z"/>
			</g>
		</mask>
	</defs>
	<g clip-path="url(#i)" transform="matrix(1.33333 0 0 -1.33333 0 1061.333)">
		<path style="fill:#ffc900;fill-opacity:1;fill-rule:nonzero;stroke:none" d="M0 0h-141.053a22.852 22.852 0 0 1-16.16-6.694l-59.796-59.795c-2.308-2.31-4.617-4.618-4.617-10.159 0 0 0-13.858 12.928-13.858H-.001Z" transform="translate(509.724 682.37)"/>
		<g clip-path="url(#j)">
			<g mask="url(#l)" clip-path="url(#k)" style="opacity:.88999897">
				<path style="fill:url(#m);stroke:none" d="M419.295 591.864h90.427l.002 90.506z"/>
			</g>
		</g>
	</g>
	<g clip-path="url(#n)" transform="matrix(1.33333 0 0 -1.33333 0 1061.333)">
		<g mask="url(#o)">
			<path style="fill:url(#p);stroke:none" d="M419.295 591.864h90.427l.002 90.506z"/>
		</g>
	</g>
	<g clip-path="url(#q)" transform="matrix(1.33333 0 0 -1.33333 0 1061.333)">
		<path style="fill:#ff445f;fill-opacity:1;fill-rule:nonzero;stroke:none" d="M0 0c-2.566 4.417-8.112 7.692-13.511 7.603H-88.19s-.003-237.87 0-299.2c0-12.928 13.172-12.928 13.865-12.928 5.542 0 7.852 2.309 10.162 4.62l59.793 59.793c4.289 4.288 6.653 10.099 6.653 16.161V-7.127C2.283-4.697 1.373-2.269 0 0" transform="translate(597.914 674.768)"/>
		<path style="fill:#08b1d5;fill-opacity:1;fill-rule:nonzero;stroke:none" d="M0 0v209.207c0 12.96-13.893 12.96-13.893 12.96-5.554 0-7.868-2.314-10.183-4.629l-59.94-59.939c-4.297-4.297-6.651-10.124-6.651-16.201V0Z" transform="translate(286.24 367.938)"/>
		<g clip-path="url(#r)">
			<g mask="url(#t)" clip-path="url(#s)" style="opacity:.82000703">
				<path style="fill:url(#u);stroke:none" d="m195.573 367.937 90.666 90.654v-90.654z"/>
			</g>
		</g>
	</g>
	<g clip-path="url(#v)" transform="matrix(1.33333 0 0 -1.33333 0 1061.333)">
		<g mask="url(#w)">
			<path style="fill:url(#x);stroke:none" d="M195.573 367.937h90.667v90.653Z"/>
		</g>
	</g>
	<g clip-path="url(#y)" transform="matrix(1.33333 0 0 -1.33333 0 1061.333)">
		<path style="fill:#1904da;fill-opacity:1;fill-rule:nonzero;stroke:none" d="M0 0c-4.43 2.568-7.756 8.123-7.671 13.536v73.929h299.883c12.961 0 12.974-11.959 12.975-12.653.005-5.556-2.308-7.874-4.622-10.192L240.624 4.687c-4.295-4.304-10.053-6.745-16.129-6.75H7.146C4.711-2.065 2.275-1.374 0 0" transform="translate(203.244 280.473)"/>
		<path style="fill:#07242d;fill-opacity:1;fill-rule:nonzero;stroke:none" d="M0 0h64.052v397.908c.208 3.503 0 7.033 0 10.588 0 97.263-78.636 176.109-175.898 176.109s-176.109-78.846-176.109-176.109c0-97.262 78.847-176.108 176.109-176.108h8.905l64.785 64.499h-73.69c-61.64 0-111.61 49.969-111.61 111.609 0 61.641 49.97 111.609 111.61 111.609S0 470.137 0 408.496Z" transform="translate(1408.525 71.87)"/>
		<path style="fill:#07242d;fill-opacity:1;fill-rule:nonzero;stroke:none" d="M0 0v-178.295c0-62.249-50.466-112.971-112.714-112.971-62.251 0-112.771 50.722-112.771 112.971V0h-62.42v-178.43c0-96.81 78.379-175.414 175.191-175.414 96.81 0 175.262 78.359 175.262 175.17V0Z" transform="translate(1813.598 656.473)"/>
		<path style="fill:#07242d;fill-opacity:1;fill-rule:nonzero;stroke:none" d="M0 0h-111.688c-61.988 0-112.239 50.526-112.239 112.514 0 31.065 12.623 58.908 33.017 79.229l.02-.019C-121.567 261.96.436 212.681 0 112.514V0m55.07 172.682c-69.72 184.129-339.898 139.417-343.982-60.168.113-42.878 14.828-81.326 40.507-112.639 30.133-36.579 74.652-60.862 124.907-64.173 3.86-.254 7.755-.39 11.663-.393H65.563v177.205c-.004 20.442-3.545 40.952-10.493 60.168" transform="translate(1001.89 367.32)"/>
		<path style="fill:#07242d;fill-opacity:1;fill-rule:nonzero;stroke:none" d="M0 0h-111.688c-61.988 0-112.239 50.526-112.239 112.514 0 31.065 12.623 58.908 33.017 79.229l.02-.019C-121.567 261.96.437 212.681 0 112.514.002 81.449 0 0 0 0m55.07 172.682c-69.72 184.129-339.897 139.417-343.981-60.168.112-42.878 14.827-81.326 40.507-112.639 30.132-36.579 74.651-60.862 124.906-64.173 3.86-.254 7.755-.39 11.663-.393H65.563v177.205c-.003 20.442-3.544 40.952-10.493 60.168" transform="translate(2218.184 367.32)"/>
	</g>
</svg>
