<svg data-name="Layer 1" xmlns="http://www.w3.org/2000/svg" viewBox="0 0 49 49">
	<defs>
		<clipPath id="a">
			<rect x="-.066" width="49" height="49" rx="1.079" style="fill:none"/>
		</clipPath>
	</defs>
	<g style="clip-path:url(#a)">
		<path d="M39.453 6.812H34.35l7.58 10.93-7.592 11.08h5.082l6.786-9.903a2.096 2.096 0 0 0-.007-2.38Z" style="fill-rule:evenodd;fill:#a5a8f3"/>
		<path d="M30.695 6.812h-5.102l7.58 10.93-7.591 11.08h5.082l6.785-9.903a2.096 2.096 0 0 0-.007-2.38Z" style="fill:#797ded;fill-rule:evenodd"/>
		<path d="M14.557 30.289a10.95 10.95 0 0 1-7.8-3.242l-.674-.676a12.129 12.129 0 0 1 0-17.108l.675-.676A11.005 11.005 0 0 1 23.54 9.99l2.494 3.498 2.882 4.33-2.844 4.274-2.532 3.554a11.06 11.06 0 0 1-8.983 4.644Zm0-20.752a6.785 6.785 0 0 0-4.832 2.012l-.675.677a7.938 7.938 0 0 0 0 11.182l.675.676a6.784 6.784 0 0 0 4.832 2.012 6.861 6.861 0 0 0 5.57-2.885l2.493-3.498 1.261-1.896-1.3-1.952-2.455-3.442a6.86 6.86 0 0 0-5.57-2.886Z" style="fill:#99c97d"/>
	</g>
	<path d="M7.198 43.835a.124.124 0 0 1-.132-.108L6.8 42.34a.039.039 0 0 0-.025-.037.05.05 0 0 0-.036-.012H4.776a.108.108 0 0 0-.049.012.049.049 0 0 0-.012.037l-.253 1.386a.115.115 0 0 1-.132.108h-.916a.13.13 0 0 1-.097-.036.125.125 0 0 1-.012-.096l1.796-8.196a.124.124 0 0 1 .133-.109h1.072a.115.115 0 0 1 .133.109l1.808 8.196v.024a.096.096 0 0 1-.109.108ZM4.92 41.328c0 .032.012.048.036.048H6.56c.025 0 .037-.016.037-.048l-.82-4.279c-.008-.016-.016-.024-.024-.024s-.016.008-.024.024Zm7.576 2.507a.14.14 0 0 1-.145-.096l-1.109-3.592a.047.047 0 0 0-.048-.036h-.843a.043.043 0 0 0-.049.048v3.556a.107.107 0 0 1-.12.12h-.916a.107.107 0 0 1-.12-.12v-8.196a.107.107 0 0 1 .12-.12h2.157a1.906 1.906 0 0 1 1.808 1.156 2.791 2.791 0 0 1 .265 1.242 2.695 2.695 0 0 1-.313 1.326 1.886 1.886 0 0 1-.856.807.069.069 0 0 0-.024.072l1.23 3.7.012.049q0 .084-.109.084ZM10.35 36.4a.043.043 0 0 0-.049.048v2.7a.043.043 0 0 0 .049.048h.891a.971.971 0 0 0 .796-.374 1.872 1.872 0 0 0 0-2.037.96.96 0 0 0-.796-.385Zm6.256 7.533a2.184 2.184 0 0 1-1.578-.579 2.046 2.046 0 0 1-.591-1.53V37.41a2.046 2.046 0 0 1 .59-1.53 2.184 2.184 0 0 1 1.58-.58 2.185 2.185 0 0 1 1.578.58 2.04 2.04 0 0 1 .603 1.542v.506a.107.107 0 0 1-.12.12h-.917a.107.107 0 0 1-.12-.12v-.53a1.1 1.1 0 0 0-.29-.795.951.951 0 0 0-.735-.302.99.99 0 0 0-.747.302 1.129 1.129 0 0 0-.277.795v4.435a1.129 1.129 0 0 0 .277.796.99.99 0 0 0 .747.301.95.95 0 0 0 .736-.301 1.1 1.1 0 0 0 .289-.796V40.51a.043.043 0 0 0-.048-.049h-.916a.107.107 0 0 1-.12-.12v-.747a.107.107 0 0 1 .12-.12h2a.106.106 0 0 1 .12.12v2.23a2.024 2.024 0 0 1-.602 1.53 2.185 2.185 0 0 1-1.579.579Zm5.533 0a2.072 2.072 0 0 1-2.194-2.206V37.52a2.167 2.167 0 0 1 .603-1.603 2.213 2.213 0 0 1 3.809 1.603v4.206a2.143 2.143 0 0 1-.615 1.603 2.166 2.166 0 0 1-1.603.603Zm0-1a1 1 0 0 0 .771-.314 1.222 1.222 0 0 0 .29-.844V37.46a1.178 1.178 0 0 0-.29-.831.981.981 0 0 0-.771-.326.967.967 0 0 0-.76.326 1.209 1.209 0 0 0-.277.831v4.315a1.255 1.255 0 0 0 .278.844.985.985 0 0 0 .759.313Zm6.941-7.413a.107.107 0 0 1 .12-.12h.905a.107.107 0 0 1 .12.12v8.196a.107.107 0 0 1-.12.12h-1.037a.133.133 0 0 1-.132-.096l-2.05-5.508a.024.024 0 0 0-.036-.012.021.021 0 0 0-.024.024l.012 5.472a.107.107 0 0 1-.12.12h-.916a.107.107 0 0 1-.12-.12V35.52a.107.107 0 0 1 .12-.12h1.024a.133.133 0 0 1 .133.096l2.061 5.508q.012.036.036.036a.049.049 0 0 0 .024-.048Zm5.942 8.316a.124.124 0 0 1-.133-.108l-.265-1.386a.039.039 0 0 0-.024-.037.05.05 0 0 0-.036-.012H32.6a.107.107 0 0 0-.048.012.05.05 0 0 0-.012.037l-.253 1.386a.115.115 0 0 1-.133.108h-.916a.13.13 0 0 1-.096-.036.126.126 0 0 1-.012-.096l1.796-8.196a.124.124 0 0 1 .132-.109h1.073a.115.115 0 0 1 .133.109l1.807 8.196v.024a.096.096 0 0 1-.108.108Zm-2.278-2.507c0 .032.012.048.036.048h1.603c.024 0 .036-.016.036-.048l-.82-4.279c-.007-.016-.015-.024-.023-.024s-.017.008-.025.024Zm6.346 2.604a2.066 2.066 0 0 1-1.59-.651 2.512 2.512 0 0 1-.591-1.736V35.52a.107.107 0 0 1 .12-.12h.916a.107.107 0 0 1 .12.12v6.147a1.43 1.43 0 0 0 .278.916.925.925 0 0 0 .747.35.904.904 0 0 0 .747-.35 1.39 1.39 0 0 0 .29-.916V35.52a.107.107 0 0 1 .12-.12h.916a.107.107 0 0 1 .12.12v6.026a2.48 2.48 0 0 1-.602 1.736 2.066 2.066 0 0 1-1.59.65Zm7.685-8.534a.107.107 0 0 1 .12.12v.76a.107.107 0 0 1-.12.12h-1.58a.043.043 0 0 0-.048.049v7.268a.107.107 0 0 1-.12.12h-.916a.107.107 0 0 1-.12-.12v-7.268a.043.043 0 0 0-.049-.048H42.45a.107.107 0 0 1-.12-.12v-.76a.107.107 0 0 1 .12-.12Z"/>
</svg>
