<svg xmlns="http://www.w3.org/2000/svg" viewBox="-2.86 -2.86 148.59 51.72">
	<path fill="#303030" fill-rule="evenodd" d="M9.396 31.977a13.26 13.26 0 0 1-2.229-3.295l5.031-5.002c.693 3.025 3.344 5.302 6.507 5.302 3.676 0 6.658-3.056 6.658-6.83 0-3.175-2.108-5.841-4.97-6.62l4.7-4.673c.511.39 1.024.808 1.506 1.288V9.42h7.019v25.791h-7.05v-2.636c-2.229 2.217-4.88 3.295-7.983 3.295-3.706.03-6.779-1.288-9.189-3.894z" clip-rule="evenodd"/>
	<path fill="#5754E5" d="M12.14 20.682c.655-2.708 2.82-4.843 5.576-5.417L25 8.19l-7.94 2.55.755-4.27-2.723 3.728L12.106 0 10.63 10.644 6.463 7.648l2.723 5.545L0 15.33l7.087 3.441-5.118 3.123 4.757-.255L3.576 29l8.563-8.318z"/>
	<path fill="#303030" d="M51.722 8.785c-3.047 0-5.346 1.36-6.987 4.033V9.489h-7.033v25.698h7.36V23.463c0-5.251 2.392-7.596 6.005-7.596 1.077 0 2.155.187 3.233.563l.61-7.035c-1.17-.42-2.202-.61-3.188-.61zm24.899.704v2.532c-2.015-2.11-4.593-3.187-7.643-3.187-3.704 0-6.846 1.219-9.332 3.705-2.483 2.483-3.75 5.673-3.75 9.565 0 3.797 1.172 6.938 3.563 9.424 2.392 2.486 5.44 3.705 9.238 3.705 3.141 0 5.673-.986 7.596-3v.985c0 3.797-2.765 6.61-7.642 6.61-2.955 0-5.955-.985-8.91-3l-2.814 5.438c3.518 2.58 7.55 3.845 12.005 3.845 4.173 0 7.643-1.218 10.316-3.656 2.719-2.391 4.08-5.673 4.08-9.8V9.489h-6.707zm-2.11 17.492c-1.219 1.265-2.765 1.874-4.642 1.874-1.874 0-3.423-.655-4.688-1.923-1.267-1.264-1.876-2.86-1.876-4.782 0-1.923.61-3.47 1.876-4.688 1.265-1.267 2.814-1.877 4.688-1.877 3.751 0 6.519 2.768 6.519 6.565 0 1.923-.61 3.564-1.877 4.831zm36.028-14.256c-2.581-2.626-5.955-3.94-10.036-3.94-4.079 0-7.41 1.314-9.988 3.94-2.578 2.579-3.845 5.815-3.845 9.612 0 3.799 1.267 7.035 3.845 9.66 2.579 2.58 5.91 3.891 9.988 3.891 4.081 0 7.455-1.31 10.036-3.892 2.578-2.624 3.892-5.86 3.892-9.66 0-3.796-1.314-7.032-3.892-9.61zm-5.394 14.397c-1.265 1.264-2.811 1.92-4.642 1.92-1.828 0-3.374-.656-4.642-1.92-1.267-1.314-1.876-2.909-1.876-4.831 0-1.828.609-3.424 1.876-4.688 1.267-1.314 2.814-1.972 4.642-1.972 1.831 0 3.377.658 4.642 1.972 1.267 1.264 1.922 2.86 1.922 4.688 0 1.922-.655 3.517-1.922 4.83zm34.95-15.57c-1.923-1.827-4.315-2.767-7.082-2.767-3.705 0-6.752 1.83-8.114 4.268V9.49h-7.173v25.698h7.363v-13.6c0-3.61 2.204-6.048 5.533-6.048 3.046 0 5.018 2.11 5.018 5.86v13.788H143v-15.71c0-3.423-.985-6.096-2.905-7.924z"/>
</svg>
