<svg version="1.1" id="Layer_1" xmlns="http://www.w3.org/2000/svg" x="0" y="0" viewBox="0 0 500 227.5" style="enable-background:new 0 0 500 227.5" xml:space="preserve">
	<style>
		.st1{fill:#fefefe}
	</style>
	<switch>
		<g>
			<path d="M392.1 60.4c-16-4-32.3 2.6-40.7 16.4-8.3 13.7-6.7 31.4 3.9 43.2 11.2 12.5 28.2 15.9 43.4 8.8 1.5-.7 2.7-2.2 4.6-1.5.4 7.8-.6 12.2-4 16.5-9.2 12-26.1 10.7-34.7-2.5-3.4-5.2-7.2-6.6-11.6-4.2-4.6 2.5-5.4 7-2.3 12.5 4.5 7.9 11.1 13.2 19.6 16.4l3.6 1.4c2.6 1 10.6 1.3 14.3.5 2.3-.4 3.2-.9 4.7-1.3 15.4-4.6 26.3-18.2 26.6-34.3V94.5c-.5-16.2-11.7-30.1-27.4-34.1zm-30 35.5c0-11.3 9.4-20.6 20.8-20.5 11.2.1 20.4 9 20.6 20.1.2 11.3-9.1 20.8-20.5 20.8-11.5.1-20.9-9.1-20.9-20.4zm136-10.9c-5.6-17.2-22.6-28.1-40.1-25.5-18.2 2.6-31.6 17.7-31.9 35.8-.3 17.7 12.5 33.1 30.4 36.5 17.3 3.3 35.1-6.9 41.2-23.7.6-1.7 2.1-5.3 2.2-7.8.3-4 .2-7.6-.5-10.7-.5-2.1-.8-3.1-1.3-4.6zm-35.4 31.3c-11.2-.1-20.4-9-20.6-20.2-.2-11.3 9.1-20.7 20.6-20.8 11.5-.1 20.9 9.1 20.9 20.5s-9.4 20.6-20.9 20.5zM296.1 88c-4.8-21.3-25.7-33.3-46.3-26.8-20.7 6.5-31.5 29-23.3 48.9 7.9 19.2 31.8 28 50.7 18.6 2.2-1.1 3.9-2.7 6 .6 1.9 2.9 5.3 3.9 8.8 2.4 3.5-1.4 5-4.1 5-7.7v-17c-.4-5.5.6-12.3-.9-19zm-35.7 28.3c-11.8-.2-21-9.3-20.7-20.5.3-11.1 10-20.4 21.2-20.4 11.3.1 20.2 9.5 20 21.1-.1 11.6-8.8 20-20.5 19.8z"/>
			<path d="M348.4 66.7c-.4-5.3-4.8-8-11.7-7.2-16.5 1.8-29.4 13.7-32.5 30-1.2 6.3-.3 12.7-.6 18v15c.1 6.4 2.9 9.9 7.9 10s8.1-3.5 8.2-9.8l.1-26.7c.2-11.1 7.8-19.9 18.8-20.4 6.5-.2 10.1-4.5 9.8-8.9z" style="fill:#010101"/>
			<path class="st1" d="M76.8 184.5v.2l.1 2.4.4-1.9c-.1-1.2-1.1-.6-.5-.7z"/>
			<path d="m123.3 200.4.5-8.5c.8-6.2 0-12.6 1.7-18.7.8-3.2-1.8-6.9 1.6-9.7l-.8-2.7c-.9-1.6-.5-3 .1-4.5-.1-5.4 0-10.9 1-16.3l.9-22.5c-16.1 7.3-31.2-3-33.7-15.3-1.7-8.1-.8-15.8 5.5-21.9 1.1-1 2-2.2 2.9-3.4 2.6-15.5.8-29.7-12.5-40.8 2-1.1 3.8-.5 5.4-.8-16.2-4.1-35.9 7-42.5 24-2 5.1-3 10.3-2.6 15.8 16.1-7.5 30.5 1.4 34.5 15 4.1 14.2-6.8 29.1-21.5 29.3-4.3.1-8.3-.6-12.4-1.8l.9 23.4c.6 5.1 1.2 10.2.9 15.4l.1 3.6-.1 2.4c1.2 4.9 1.4 10 1.8 14.9 0-.1-.1-.3-.1-.4l.1.4 1.2 25.6c.3 3.5-1 5.3-4.3 6.2l-11.4 3.6c5.1.7 10.1.8 15.1.7 5.4-.1 7.9-2.5 8.4-7.9l.9-10.3 1.1-18.6h.8v17.7l.3 8.1c.8 12.5 1.2 12.4-11.3 15-.3.1-.5.2-.8.4l2.2 1.5c.2.1.4.2.5.4h8.9c5.3-.5 7.9-3.4 8.3-8.7l.9-10.2c-.5-4.5.2-9 1.1-13.4l-.1-2.4v-.2c-.6.1.4-.5.5.7l.3-1.6v20.5l.2 7.2c.1 8.7-.5 9.5-8.8 12l-7 1.9c-1.6.6-3.7.3-5.3 2.2 6.8-.3 13.1.5 19.4-.5 6.5-1.1 9.1-3.7 10.4-10 1-4.7 1.4-9.5 3.2-14.2.3.5.5.7.5 1l2.7 13.2c1.2 6.2 3.7 8.8 10 9.9 6.5 1.1 13 .4 19.8.5-1-1.6-2.5-1.4-3.7-1.7l-12.5-3.7c-3-1-5.1-2.9-5.1-6.6v-30.1h1.2l1.3 18.8c.8 14.5 2.5 16.1 17.1 15.3.8-1.4 2.8-.3 3.6-1.8-3.5 0-6.6-1.7-9.8-2.8-1.8-.6-2.8-2.2-2.8-4.2l1.2-30.9 2.2 25.9c.3 4 2.1 7.2 6.4 7.5 5.8.4 11.5.1 17.2.1-3-1.6-6.1-2.4-9.2-3.4-7-2.3-7-2.3-6.3-9.5l-.2-.1zM79.2 53.5c0 2.9-2.3 5.2-5.2 5.2-3.1.1-5.4-1.7-5.4-5.7.3-2.9 2-4.9 5.4-5 3.6 0 5.2 2.4 5.2 5.5zm23.5 85.6c0 7.9-6.1 14.8-13 14.8-6.5 0-13.2-7.7-13-15l-1.2-7.4c4.7 3.2 8.6 6.5 13.9 6.6 5.4.1 9.6-2.7 14-5.9 1 2.7-1.4 4.7-.7 6.9z" style="fill:#fe733e"/>
			<path d="m53.2 156.3-1.1-.5c-5.4-2.2-10-5.6-14.3-9.3C22.2 133.1 12 116.2 9.4 95.8c-2.8-23.2 2.4-44.6 17.8-63C41.3 16.1 59.3 6.4 80.8 4.1c23.9-2.5 45.3 4.2 63.4 20.7 15.1 13.7 23.9 30.8 26.1 50.8 1.9 17.1-1.2 33.6-10 48.5-8 13.6-18.6 24.7-32.9 31.7l-1.2.6c-.5 1.5-1 3-.1 4.5.3-.3.6-.7 1-.9 21.7-11.5 36.7-28.5 43.8-52.3.6-2 1.5-3 3.8-2.8 3.1.3 3.9-1.7 3.9-4.3V71.3c0-2.1-.5-4.4-2.6-4.6-4-.5-4.5-3.4-5.3-6.2-4.7-16.5-13.8-30.3-27.2-40.8-27.6-21.7-58-25.6-89.8-11C30.1 19.6 15 38.4 8.2 63.7c-.4 1.6-.2 3.4-2.9 2.9C1.5 65.8 0 68 0 71.4v29.3c0 3.3 1.6 5 4.7 4.2 2.9-.7 3.6.7 4.2 2.9 2.5 9.3 6.8 18 12.5 25.7 8.4 11.4 18.7 20.6 31.7 26.4l-.1-3.7.2.1z" style="fill:#b5d2f3"/>
			<path d="M53.1 162.4c-2.9 8.1-10.6 7.9-17.2 10 4.9 1.3 10 2.7 14.9 1.9 2.9-.5 3.5.5 3.9 2.3l.1.4.1.4c-.3-5.1-.6-10.1-1.8-15z" style="fill:#fe684b"/>
			<path d="M125.4 173.2c6.3 2.8 12.2 0 18.2-.8-5.9-2.5-13.6-1.2-16.7-8.8-3.2 2.7-.7 6.4-1.5 9.6z" style="fill:#fe6446"/>
			<path d="m77.5 183.6-.3 1.6-.4 1.9c-.8 4.4-1.6 8.9-1.1 13.4 1.5.8.4 2.8 1.7 3.6l.1-20.5z" style="fill:#fed6c8"/>
			<path d="m66 176.5-1 18.6 1.8-.9v-17.7H66z" style="fill:#feebe3"/>
			<path d="M47.6 219.4h10.1l-.5-.4-2.2-1.5c-2.2 0-4.3.5-7.4 1.9z" style="fill:#fe9166"/>
			<path d="M120.9 219.4h9.8c-2-1.2-4-2.1-6.2-1.8-.7 1.6-2.8.5-3.6 1.8z" style="fill:#fe8f64"/>
			<path d="M127.4 155.8c14.4-7 25-18 32.9-31.7 8.8-15 11.9-31.5 10-48.5-2.3-20.1-11-37.1-26.1-50.8-18-16.5-39.4-23.2-63.3-20.7-21.5 2.2-39.5 12.1-53.6 28.8-15.5 18.4-20.6 39.8-17.8 63 2.5 20.5 12.7 37.3 28.4 50.7 4.3 3.7 9 7.1 14.3 9.3.4.2.8.3 1.1.5.3-5.1-.4-10.2-.9-15.4l-1.2-.8c-4-2.9-7.4-6.4-10.8-9.9-1-1.1-2.3-2-2.3-3.7-2.3 1.7-4 .5-5.3-1.3-7.5-10.3-12.1-21.6-12.7-34.4-.5-11.3.5-22.3 5.2-32.9 6-13.5 15.3-23.7 27.7-31.4 2.1-1.3 3.3-.1 4.8.8 1.4-.1 2.7-.6 3.7-1.8l-.2-.4C60 22.6 60 19.6 63 18.9c3-.7 4.8 1.7 4.7 4.9 22.7-7.4 43.7-4.4 62.7 10.1 14.2 10.8 22.4 25.4 24.9 43.1 3.2 22.8-4.5 41.7-20.4 57.7-1.9 1.9-4 3.6-6.4 4.9l-1.2.6c-1 5.4-1 10.8-1 16.3l1.1-.7z" style="fill:#e2f5fc"/>
			<path d="M134.9 134.6c15.9-16 23.6-34.9 20.4-57.7-2.5-17.8-10.6-32.3-24.9-43.1-19-14.5-40.1-17.5-62.7-10.1l-.1.1c-1.8 1.1-3.2 3.6-5.7 2.1-.2-.1-.3-.2-.5-.3-.9 1.2-2.2 1.7-3.7 1.8-.1.2-.1.5-.2.7-1.6 4.6-6.5 5.8-9.8 8.5-8.9 7.4-15.5 16.3-19.3 27.1-6.2 17.4-5 34.4 3.4 50.8 1.3 2.7 3 5.2 4.8 7.6 1.1 1.4 1.4 2.9 1.3 4.6 0 1.8 1.3 2.7 2.3 3.7 3.4 3.5 6.8 7 10.8 9.9l1.2.8-.9-23.4c-6.8-4.5-11.8-10.1-12.6-18.6-1.1-10.5 3.3-18.3 11.8-23.9l.1-.1c-.3-5.5.7-10.7 2.7-15.8 6.5-16.9 26.2-28.1 42.5-24 10.8 1.8 19.7 6.7 26 15.7 5.1 7.2 7.7 15.2 7.1 24.1 6.1 4.6 11 10.1 11.9 18.1 1.1 10.8-3.5 18.7-12.6 24.3l-1 22.5 1.2-.6c2.4-1.2 4.6-2.8 6.5-4.8z" style="fill:#cdecf6"/>
			<path d="M108.5 74.3c6.7-3.3 13.2-1.6 19.7.6l.7.2c.5-8.9-2.1-16.9-7.1-24.1-6.3-9-15.2-13.9-26-15.7-1.7.3-3.4-.4-5.4.8 13.2 11 15.1 25.3 12.5 40.8l5.6-2.6z" style="fill:#fe6b3c"/>
			<path d="M140.8 93.3c-.8-8-5.7-13.5-11.9-18.1l-.7-.2c-6.5-2.1-13-3.9-19.7-.6l-4.4 2.1-1.2.6-2.9 3.4c-6.3 6.2-7.2 13.8-5.5 21.9 2.6 12.4 17.6 22.6 33.7 15.3 9.1-5.7 13.7-13.6 12.6-24.4zm-24 21.6c-10.2 0-18.4-8.3-18.4-18.4v-.3c.1-10.3 8.5-18.4 18.9-18.4 10.4.1 18.4 8.3 18.3 18.8-.1 10.4-8.2 18.4-18.8 18.3z" style="fill:#fe6142"/>
			<path d="M50.6 75.2C42 80.8 37.6 88.5 38.7 99c.9 8.4 5.8 14.1 12.6 18.6 4.1 1.2 8.1 1.9 12.4 1.9 14.6-.2 25.6-15.1 21.5-29.3-4-13.6-18.4-22.5-34.5-15-.1-.1-.1 0-.1 0zm11.6 39.7c-10.7 0-18.9-8.1-18.9-18.8 0-10.4 8.1-18.5 18.6-18.5 10.6-.1 19.1 8.3 19 18.7 0 10.2-8.4 18.6-18.7 18.6z" style="fill:#fe6143"/>
			<path d="M79.2 140.7c-.7-.7-1.3-1.7-2.5-1.7-.2 7.3 6.4 15 13 15 7 0 13-6.9 13-14.8-2.6 1.3-4.3 4.1-7.4 5-5.9 1.5-11.5 1.1-16.1-3.5z" style="fill:#070909"/>
			<path d="M103.4 132.3c-4.4 3.2-8.6 6-14 5.9-5.3-.1-9.2-3.4-13.9-6.6l1.2 7.4c1.2 0 1.7 1.1 2.5 1.7 4.6 4.7 10.2 5.1 16.2 3.4 3-.8 4.7-3.6 7.4-5-.7-2.2 1.6-4.2.6-6.8z" style="fill:#fdfcfb"/>
			<path d="M73.9 48c-3.5.1-5.1 2-5.4 5 .1 4 2.4 5.7 5.4 5.7 2.9 0 5.2-2.3 5.2-5.2.1-3.1-1.5-5.6-5.2-5.5z" style="fill:#fea777"/>
			<path d="M37.9 126.5c.1-1.7-.2-3.1-1.3-4.6-1.8-2.4-3.4-4.9-4.8-7.6-8.4-16.4-9.6-33.4-3.4-50.8 3.9-10.8 10.5-19.7 19.3-27.1 3.3-2.7 8.1-3.9 9.8-8.5l.2-.7c-1.5-1-2.6-2.1-4.8-.8C40.4 34 31.1 44.3 25 57.8c-4.8 10.6-5.8 21.6-5.2 32.9.6 12.8 5.1 24.2 12.7 34.4 1.4 1.9 3 3.1 5.4 1.4z" style="fill:#fdfefe"/>
			<path d="m67.5 23.7.1-.1c0-3.2-1.7-5.7-4.7-4.9-3 .7-3 3.7-1.7 6.3l.2.4c.1.1.3.2.5.3 2.6 1.6 3.9-.9 5.6-2z" style="fill:#fbfdfe"/>
			<path class="st1" d="M135.6 96.6c.1-10.5-7.9-18.7-18.3-18.8-10.4-.1-18.8 8.1-18.9 18.4-.1 10.4 8 18.7 18.4 18.8 10.6 0 18.7-8 18.8-18.4zm-17.8 2c-3.5.1-5.6-1.9-5.9-5.4-.3-3.2 2.6-6.3 5.8-6 3.4.3 5.4 2.3 5.8 5.9-.5 3.2-2.1 5.5-5.7 5.5zm-55.9-21c-10.5.1-18.6 8.1-18.6 18.5 0 10.6 8.2 18.8 18.9 18.8 10.3 0 18.7-8.4 18.7-18.6 0-10.4-8.4-18.8-19-18.7zm0 21c-3.5 0-5.6-2-5.9-5.5-.3-3.2 2.7-6.2 5.9-6 3.4.3 5.4 2.3 5.8 5.9-.4 3.4-2.2 5.6-5.8 5.6z"/>
			<path d="M117.7 87.2c-3.2-.2-6.1 2.8-5.8 6 .3 3.5 2.4 5.5 5.9 5.4 3.6-.1 5.3-2.4 5.8-5.6-.5-3.5-2.4-5.5-5.9-5.8z" style="fill:#090b0b"/>
			<path d="M61.9 87.2c-3.2-.3-6.1 2.7-5.9 6 .3 3.5 2.4 5.5 5.9 5.5 3.5 0 5.3-2.2 5.8-5.5-.4-3.8-2.4-5.7-5.8-6z" style="fill:#090c0c"/>
		</g>
	</switch>
</svg>
