<svg xmlns="http://www.w3.org/2000/svg" viewBox="-4 -3.75 195 93.5">
	<path fill="#3a91c2" d="M113.29 1.33h12.528v5.064c4.266-5.064 9.197-6.397 13.33-6.397 5.598 0 10.928 2.665 13.993 7.997 4.532-6.398 11.33-7.997 15.993-7.997 6.532 0 12.264 3.065 15.33 8.397 1.065 1.733 2.798 5.731 2.798 13.595v33.32h-12.528V25.588c0-5.998-.666-8.397-1.201-9.596-.799-2-2.665-4.798-7.196-4.798-3.066 0-5.732 1.732-7.465 3.998-2.13 3.066-2.399 7.73-2.399 12.262V55.31h-12.527V25.587c0-5.998-.667-8.397-1.2-9.596-.8-2-2.666-4.798-7.197-4.798-3.066 0-5.732 1.732-7.465 3.998-2.131 3.066-2.398 7.73-2.398 12.262V55.31h-12.529V1.33zm-43.583 0h12.528v4.931c1.466-1.732 3.466-3.465 5.198-4.531 2.4-1.466 4.932-1.733 7.731-1.733 3.065 0 6.397.533 9.862 2.532l-5.064 11.463c-2.8-1.733-5.065-1.866-6.398-1.866-2.665 0-5.331.4-7.863 2.932-3.466 3.732-3.466 8.797-3.466 12.395v27.99H69.707zM12.796 28.52c0 9.33 5.863 17.192 15.06 17.192 7.997 0 15.195-5.73 15.195-17.059 0-11.729-7.331-17.46-15.195-17.46-9.197 0-15.06 7.73-15.06 17.327zM42.25 1.33h12.528v53.98H42.251v-5.6c-5.465 6.4-12.262 7.331-16.127 7.331C9.464 57.041 0 43.181 0 28.386 0 10.792 11.995-.004 26.257-.004c3.998 0 10.929 1.067 15.994 7.732V1.33"/>
	<path fill="#2f3843" d="M10.014 69.243v16.659H7.965V69.243H3.467v-1.96h11.09v1.96h-4.543m9.353 6.636h1.292c2.583 0 4.098-1.247 4.098-3.385 0-1.024-.312-2.048-1.47-2.716-.846-.49-1.782-.535-2.672-.535h-1.248zm.936-8.596c1.248 0 3.118.089 4.499 1.025 1.068.712 2.048 2.138 2.048 4.142 0 2.85-1.87 4.944-4.677 5.122l5.925 8.33h-2.495l-5.656-8.151h-.534v8.15h-2.05V67.284h2.94m20.667 1.96h-7.572v5.523h7.349v1.96h-7.35v7.216h7.573v1.96h-9.666V67.283h9.666v1.96m13.228 9.443-3.118-7.44-3.162 7.44zM55 80.645h-7.928l-2.227 5.257h-2.272l8.552-19.51 8.329 19.51h-2.272L55 80.645m15.1-9.665c-.268-.49-.67-1.07-1.07-1.38-.357-.267-1.024-.624-2.094-.624-1.826 0-3.117 1.158-3.117 2.85 0 .712.178 1.16.713 1.605.578.578 1.247.846 1.959 1.157l1.782.802c1.068.49 2.093.979 2.85 1.737.936.935 1.337 2.048 1.337 3.385 0 3.43-2.54 5.7-5.88 5.7-1.247 0-2.761-.266-4.053-1.514-.935-.89-1.47-2.182-1.737-3.295l2.004-.58c.134.98.58 1.827 1.114 2.36.801.803 1.737 1.026 2.672 1.026 2.539 0 3.742-1.827 3.742-3.697 0-.846-.267-1.56-.936-2.183-.534-.49-1.247-.845-2.227-1.292l-1.692-.8c-.713-.358-1.648-.714-2.495-1.515-.801-.802-1.291-1.648-1.291-3.028 0-2.852 2.182-4.812 5.211-4.812 1.158 0 2.049.223 2.984.847.758.49 1.38 1.247 1.826 2.049L70.1 70.98m8.195 7.706c0 1.558 0 3.25 1.47 4.498.757.624 2.049 1.07 3.073 1.07 1.025 0 2.317-.402 3.074-1.07 1.47-1.247 1.47-2.94 1.47-4.498V67.283h2.049v11.982c0 1.559-.18 3.073-1.159 4.454-1.113 1.514-3.073 2.493-5.434 2.493-2.36 0-4.32-.979-5.433-2.493-1.025-1.381-1.159-2.895-1.159-4.454V67.283h2.05v11.403m17.993-2.807h1.291c2.585 0 4.1-1.247 4.1-3.385 0-1.024-.313-2.048-1.47-2.716-.847-.49-1.783-.535-2.674-.535h-1.247zm.936-8.596c1.248 0 3.117.089 4.499 1.025 1.069.712 2.048 2.138 2.048 4.142 0 2.85-1.87 4.944-4.676 5.122l5.923 8.33h-2.493l-5.658-8.151h-.533v8.15h-2.05V67.284h2.94m20.622 1.96h-7.572v5.523h7.35v1.96h-7.35v7.216h7.572v1.96h-9.665V67.283h9.665v1.96m12.382 14.699h1.826c1.47 0 3.52-.178 5.345-1.693 1.382-1.159 2.495-3.029 2.495-5.657 0-4.453-3.119-7.349-7.84-7.349h-1.826zm-2.093-16.659h3.786c1.87 0 4.498.179 6.86 2.183 1.691 1.426 3.16 3.786 3.16 7.126 0 3.92-1.914 6.013-3.25 7.127-1.693 1.469-3.474 2.138-6.814 2.138h-3.786V67.283h.044m27.08 11.403-3.117-7.44-3.163 7.44zm.802 1.959h-7.929l-2.226 5.257h-2.272l8.552-19.51 8.329 19.51h-2.272l-2.182-5.257m10.423-11.402v16.659h-2.05V69.243h-4.498v-1.96h11.046v1.96h-4.498m15.5 9.443-3.118-7.44-3.162 7.44zm.802 1.959h-7.929l-2.228 5.257h-2.27l8.551-19.51 8.33 19.51h-2.273l-2.18-5.257"/>
</svg>
