<svg xmlns="http://www.w3.org/2000/svg" width="200" height="128">
    <path d="M33 53.89a12.5 12.5 0 01-.38-1.24c-.1-.35-.2-.7-.31-1h-.09a21.29 21.29 0 01-.69 2.23l-5.04 13.87h11.65zM42.31 79l-3.45-9.33H25.75L22.3 79H20l11.4-30h2l11.25 30zm6.51-1.07v-2.37a12.28 12.28 0 006.58 2 8.49 8.49 0 005.37-1.45 4.92 4.92 0 001.83-4.08 5.22 5.22 0 00-1.24-3.66A24 24 0 0056 64.68q-4.56-2.68-5.79-4.43A7.24 7.24 0 0149 56.1a6.94 6.94 0 012.49-5.39 9.59 9.59 0 016.63-2.22 17 17 0 015.4.9v2.17a13.76 13.76 0 00-5.67-1.19A7.3 7.3 0 0053 51.92a5 5 0 00-1.79 3.93 5.27 5.27 0 001.22 3.66 24.94 24.94 0 005.33 3.71 18.54 18.54 0 015.63 4.24 6.79 6.79 0 011.41 4.25 7.21 7.21 0 01-2.42 5.62c-1.6 1.46-3.87 2.18-6.81 2.18a16 16 0 01-3.6-.48 11.66 11.66 0 01-3.1-1.11m24.49-27v14.14h4.24c2.73 0 4.8-.65 6.22-1.93A7 7 0 0086 57.65q0-6.75-7.82-6.76zm0 16.07V79h-2.14V49h7.29c3.1 0 5.48.72 7.12 2.16a7.82 7.82 0 012.47 6.24 9.21 9.21 0 01-2.76 6.88Q82.6 67 77.65 67zM96 79.45a3 3 0 01-2.15-.82 2.68 2.68 0 010-4A3 3 0 0196 73.8a3 3 0 012.17.84 2.66 2.66 0 010 4 3.07 3.07 0 01-2.17.82m34.57-.46h-5.48l-14.43-22a9.58 9.58 0 01-.9-1.74h-.13a31.13 31.13 0 01.17 4.12V79H105V49h5.84l13.95 21.53a18.64 18.64 0 011.13 1.84h.08a26.61 26.61 0 01-.21-4V49h4.82zM155 79h-17V49h16.29v4.23h-11.2v8.49h10.38v4.2h-10.38v8.87H155zm25-25.77h-8.68V79h-5V53.22h-8.66V49H180z" fill="#5b27d9"/>
</svg>
