<svg xmlns="http://www.w3.org/2000/svg" viewBox="7.13 10.38 240.24 104.49">
	<defs>
		<clipPath id="a">
			<path fill="none" d="M183.862 49.618a17.752 17.752 0 0 0-12.889-16.939 20.84 20.84 0 0 0-40.756-1.97 15.266 15.266 0 0 0-23.759 12.08 11.507 11.507 0 0 0-1.846-.147 12.304 12.304 0 1 0-.267 24.597 3.416 3.416 0 0 0 .913.127h60.248a2.502 2.502 0 0 0 .596-.067 17.862 17.862 0 0 0 17.76-17.681z"/>
		</clipPath>
	</defs>
	<path fill="#026cb6" d="M23.846 81.661a21.58 21.58 0 0 0-8.064 1.56 2.807 2.807 0 0 0-1.878 2.61 2.377 2.377 0 0 0 2.584 2.361 4.28 4.28 0 0 0 1.338-.222 17.335 17.335 0 0 1 5.703-1.131c4.081.004 5.743 1.463 5.761 4.968v1.819a26.254 26.254 0 0 0-6.607-.863c-7.371.005-10.706 4.134-10.714 8.687.008 5.13 3.606 9.049 10.823 9.053a20.783 20.783 0 0 0 10.95-2.92 2.127 2.127 0 0 0 1.023-2.074V91.807c-.013-7.054-4.185-10.134-10.92-10.146zm5.445 22.303a10.095 10.095 0 0 1-6.025 1.578c-3.715-.01-5.707-1.54-5.712-4.297.005-2.45 2.263-3.836 5.44-3.836a24.046 24.046 0 0 1 6.297.865zM53.297 93.88l-4.068-.92c-2.707-.68-3.543-1.47-3.543-2.836 0-2.016 1.46-3.121 4.622-3.13a9.152 9.152 0 0 1 4.765 1.284 5.534 5.534 0 0 0 .594.156 4.391 4.391 0 0 0 .68.18c.166.018.333.125.491.125a2.445 2.445 0 0 0 1.909-.832 2.753 2.753 0 0 0 .588-1.725 2.378 2.378 0 0 0-.853-1.878 13.23 13.23 0 0 0-7.91-2.438c-5.866.004-10.328 3.168-10.337 8.367-.003 4.219 3.011 6.67 7.608 7.807 1.982.512 1.988.463 3.751.875 2.651.627 3.541 1.521 3.545 2.976 0 1.926-1.567 3.338-4.724 3.346a10.321 10.321 0 0 1-6.688-2.004 3.25 3.25 0 0 0-1.706-.54 2.466 2.466 0 0 0-2.026 1.072c-.115.15-.097.363-.167.546a2.85 2.85 0 0 0-.167.52c-.022.143-.114.254-.114.396a2.816 2.816 0 0 0 .973 2.139c2.15 1.76 5.244 2.953 9.636 2.953 6.058-.01 10.521-3.33 10.537-8.57 0-4.115-2.54-6.674-7.396-7.87zm33.027-11.65a2.818 2.818 0 0 0-2.824 2.9v18.125a11.665 11.665 0 0 1-6.143 1.67c-3.72-.018-5.967-2.18-5.97-5.721V85.177a2.874 2.874 0 0 0-2.883-2.948 2.729 2.729 0 0 0-2.769 2.948v14.088c.004 7.048 4.515 11.042 11.574 11.054a19.015 19.015 0 0 0 10.77-3.107 2.217 2.217 0 0 0 1.08-2.12V85.13a2.863 2.863 0 0 0-2.835-2.9zm22.28 11.65-4.068-.92c-2.707-.68-3.548-1.47-3.554-2.836.006-2.016 1.462-3.121 4.634-3.13a9.132 9.132 0 0 1 4.755 1.284 4.066 4.066 0 0 0 .607.156 4.147 4.147 0 0 0 .676.18 4.803 4.803 0 0 0 .495.125 2.431 2.431 0 0 0 1.904-.832 2.791 2.791 0 0 0 .588-1.732 2.365 2.365 0 0 0-.86-1.871 13.212 13.212 0 0 0-7.915-2.438c-5.852.004-10.31 3.168-10.325 8.367 0 4.219 3.008 6.67 7.605 7.807 1.986.512 1.993.463 3.756.875 2.65.627 3.536 1.521 3.54 2.976 0 1.926-1.563 3.338-4.724 3.346a10.308 10.308 0 0 1-6.683-2.004 3.263 3.263 0 0 0-1.71-.54 2.482 2.482 0 0 0-2.027 1.072 2.283 2.283 0 0 0-.177.56 2.412 2.412 0 0 0-.158.498c-.017.137-.114.256-.114.395a2.828 2.828 0 0 0 .979 2.148c2.15 1.76 5.238 2.953 9.63 2.953 6.064-.01 10.53-3.33 10.543-8.57 0-4.115-2.546-6.674-7.396-7.87z"/>
	<path fill="#a1a1a4" d="M139.915 102.821a1.205 1.205 0 0 1 1.102-.79 1.13 1.13 0 0 1 1.116 1.1 1.506 1.506 0 0 1-.083.436 10.675 10.675 0 0 1-9.971 6.694c-6.254 0-10.627-4.729-11.072-10.946a44.295 44.295 0 0 1 0-6.379c.4-6.107 4.818-10.908 11.072-10.908a10.662 10.662 0 0 1 9.971 6.692 1.303 1.303 0 0 1 .083.437 1.138 1.138 0 0 1-1.116 1.104 1.214 1.214 0 0 1-1.102-.786 8.366 8.366 0 0 0-7.836-5.205c-4.942 0-8.32 3.664-8.759 8.582a44.187 44.187 0 0 0 0 6.541c.439 4.963 3.817 8.588 8.759 8.588a8.408 8.408 0 0 0 7.835-5.16zM147 83.41a1.154 1.154 0 1 1 2.307 0v24.174h13.878a1.245 1.245 0 0 1 1.198 1.172 1.165 1.165 0 0 1-1.198 1.15h-13.838a2.205 2.205 0 0 1-2.347-2.322zm18.884 15.906a42.658 42.658 0 0 1 0-6.379 11.45 11.45 0 0 1 22.874 0 45.448 45.448 0 0 1 0 6.38 11.45 11.45 0 0 1-11.494 10.945c-6.243 0-10.928-4.729-11.38-10.946zm20.528.078a35.602 35.602 0 0 0 0-6.5 9.118 9.118 0 0 0-9.148-8.574c-4.935 0-8.56 3.65-9.033 8.574a36.129 36.129 0 0 0 0 6.5c.474 4.963 4.098 8.588 9.033 8.588 5.002 0 8.663-3.625 9.148-8.588zm29.11-.359c0 6.66-4.652 11.227-10.938 11.227-6.278 0-10.93-4.567-10.93-11.227V83.409a1.163 1.163 0 0 1 1.145-1.191 1.14 1.14 0 0 1 1.156 1.191V98.85c0 5.625 3.703 9.131 8.63 9.131 4.93 0 8.63-3.506 8.63-9.13V83.408a1.167 1.167 0 0 1 1.162-1.191 1.134 1.134 0 0 1 1.145 1.191zm8.252 10.871a2.06 2.06 0 0 1-2.185-2.2v-23.12a2.058 2.058 0 0 1 2.185-2.197h6.88c7.837 0 11.855 4.955 12.165 11.646a35.025 35.025 0 0 1 0 4.297c-.31 6.61-4.407 11.574-12.164 11.574zm16.742-15.988c-.357-5.594-3.378-9.254-9.936-9.254h-6.687v22.92h6.687c6.602 0 9.62-3.697 9.936-9.252a38.664 38.664 0 0 0 0-4.414z"/>
	<g fill="none" stroke-width=".648" clip-path="url(#a)">
		<path stroke="#ffd100" d="m72.419 68.14 71.409 11.482M72.472 68.035l71.361 11.599M72.524 67.929l71.313 11.716m-71.26-11.821 71.266 11.833M72.629 67.718l71.219 11.951M72.682 67.613l71.171 12.068M72.735 67.507l71.123 12.185M72.787 67.401l71.076 12.303M72.839 67.295l71.029 12.419M72.892 67.19l70.981 12.537M72.945 67.084l70.933 12.653m-70.88-12.758 70.885 12.77M73.05 66.873l70.839 12.888M73.103 66.768l70.79 13.004m-70.738-13.11 70.744 13.122M73.208 66.557l70.696 13.239M73.26 66.451l70.649 13.356M73.313 66.346l70.6 13.473M73.366 66.241l70.552 13.59m-70.5-13.697 70.506 13.709M73.471 66.029l70.458 13.825"/>
		<path stroke="#ffd101" d="m73.523 65.923 70.411 13.941M73.576 65.818l70.363 14.058m-70.31-14.164 70.316 14.176M73.681 65.607l70.268 14.292M73.734 65.501l70.221 14.41M73.786 65.396l70.173 14.527M73.839 65.29l70.126 14.644M73.892 65.185l70.077 14.761M73.944 65.079l70.031 14.879M73.997 64.974 143.98 79.97M74.049 64.868l69.936 15.113M74.102 64.762l69.888 15.229"/>
		<path stroke="#ffd102" d="m74.154 64.657 69.841 15.346M74.207 64.551 144 80.015M74.26 64.446l69.745 15.58M74.312 64.34l69.698 15.698M74.365 64.235l69.65 15.815M74.417 64.129l69.603 15.932M74.47 64.024l69.556 16.049M74.522 63.917l69.508 16.168M74.575 63.812l69.461 16.285"/>
		<path stroke="#fed102" d="m74.628 63.707 69.413 16.399M74.68 63.602l69.365 16.518M74.733 63.495l69.318 16.637M74.786 63.39l69.27 16.751"/>
		<path stroke="#fed103" d="m74.838 63.285 69.223 16.868m-69.17-16.974 69.175 16.986M74.943 63.074l69.128 17.103M74.996 62.968l69.08 17.22M75.048 62.863 144.081 80.2m-68.98-17.443 68.985 17.455m-68.932-17.56 68.938 17.572M75.206 62.546l68.89 17.687M75.259 62.441l68.842 17.806m-68.79-17.912 68.796 17.924m-68.743-18.03 68.748 18.039M75.416 62.123l68.701 18.157M75.469 62.018l68.653 18.274"/>
		<path stroke="#fed104" d="m75.522 61.913 68.605 18.391"/>
		<path stroke="#fdd104" d="m75.574 61.807 68.558 18.508M75.626 61.702l68.511 18.625M75.68 61.596l68.462 18.743m-68.41-18.848 68.415 18.859M75.785 61.384l68.367 18.976M75.837 61.279l68.32 19.095m-68.267-19.2 68.273 19.212m-68.22-19.317 68.224 19.326M75.995 60.962l68.177 19.447M76.047 60.857l68.13 19.562M76.1 60.751l68.083 19.68m-68.03-19.785 68.035 19.796M76.205 60.54l67.988 19.914M76.258 60.435l67.94 20.031"/>
		<path stroke="#fdd204" d="m76.311 60.329 67.893 20.148M76.363 60.224l67.845 20.265"/>
		<path stroke="#fdd205" d="m76.416 60.119 67.797 20.382M76.468 60.013l67.75 20.5M76.52 59.907l67.703 20.615"/>
		<path stroke="#fcd205" d="m76.574 59.802 67.654 20.732M76.626 59.697l67.608 20.849M76.679 59.59l67.56 20.967M76.731 59.485l67.512 21.084m-67.459-21.19 67.465 21.202M76.837 59.274l67.417 21.319M76.889 59.168l67.369 21.436M76.941 59.063l67.322 21.553M76.994 58.957l67.275 21.671M77.047 58.852l67.227 21.788M77.099 58.746l67.18 21.903M77.152 58.64l67.132 22.021M77.205 58.535l67.085 22.138M77.257 58.43l67.037 22.254M77.31 58.324l66.989 22.372M77.362 58.218l66.942 22.49"/>
		<path stroke="#fcd206" d="m77.415 58.113 66.894 22.607M77.468 58.008l66.847 22.723M77.52 57.902l66.799 22.841M77.573 57.796l66.752 22.959m-66.7-23.064 66.705 23.075M77.678 57.585l66.656 23.193"/>
		<path stroke="#fbd206" d="M77.731 57.479 144.34 80.79M77.783 57.373 144.344 80.8M77.835 57.268l66.515 23.543M77.888 57.163l66.467 23.66M77.941 57.058l66.419 23.777M77.994 56.952l66.371 23.895M78.046 56.846l66.324 24.012M78.099 56.741l66.276 24.129M78.151 56.635l66.229 24.247M78.204 56.529l66.181 24.362M78.256 56.424l66.134 24.481M78.309 56.319l66.087 24.598M78.362 56.213l66.039 24.714m-65.988-24.82 65.993 24.831"/>
		<path stroke="#fbd207" d="m78.467 56.002 65.944 24.948M78.519 55.897l65.898 25.065M78.572 55.791l65.849 25.183M78.624 55.685l65.801 25.3M78.677 55.579l65.754 25.418M78.73 55.474l65.706 25.535m-65.654-25.64 65.66 25.651M78.834 55.263l65.612 25.769"/>
		<path stroke="#fad207" d="m78.887 55.158 65.565 25.886M78.94 55.052l65.517 26.004M78.993 54.947l65.468 26.118M79.044 54.84l65.422 26.237M79.098 54.735l65.373 26.354M79.15 54.63l65.327 26.47M79.203 54.524l65.279 26.588"/>
		<path stroke="#fad307" d="m79.255 54.418 65.232 26.706M79.308 54.313l65.184 26.823M79.361 54.208l65.137 26.939M79.413 54.102l65.089 27.057M79.465 53.996l65.041 27.175m-64.987-27.28 64.993 27.29"/>
		<path stroke="#fad308" d="m79.571 53.786 64.946 27.408M79.624 53.68l64.898 27.524m-64.846-27.63 64.852 27.642M79.729 53.469l64.804 27.758M79.782 53.364l64.756 27.875M79.834 53.258l64.708 27.993M79.886 53.152l64.661 28.111M79.939 53.046l64.613 28.228m-64.56-28.333 64.566 28.345M80.044 52.835l64.519 28.463M80.097 52.73l64.471 28.577"/>
		<path stroke="#f9d308" d="m80.15 52.624 64.423 28.697M80.202 52.519l64.377 28.812M80.254 52.413l64.329 28.93M80.307 52.308l64.281 29.046M80.36 52.203l64.233 29.163m-64.18-29.269 64.185 29.281M80.465 51.991l64.138 29.399M80.518 51.885l64.091 29.516M80.57 51.78l64.044 29.633M80.623 51.674l63.996 29.751M80.675 51.569l63.949 29.867"/>
		<path stroke="#f9d309" d="m80.728 51.463 63.901 29.985m-63.848-30.09 63.852 30.102M80.834 51.252l63.805 30.218M80.886 51.147l63.758 30.334m-63.706-30.44 63.711 30.452M80.991 50.936l63.664 30.569M81.043 50.83l63.616 30.686M81.096 50.724l63.569 30.804M81.149 50.619l63.52 30.921M81.202 50.513l63.472 31.039m-63.42-31.144 63.425 31.155M81.306 50.302l63.379 31.273M81.359 50.197l63.331 31.388M81.412 50.091l63.283 31.506"/>
		<path stroke="#f8d309" d="M81.464 49.986 144.7 81.608M81.517 49.88l63.188 31.74M81.569 49.775l63.14 31.857M81.622 49.669l63.093 31.974M81.674 49.564l63.046 32.091M81.727 49.458l62.998 32.209M81.78 49.352l62.951 32.327M81.832 49.246l62.903 32.444m-62.85-32.549 62.856 32.561"/>
		<path stroke="#f8d30a" d="m81.937 49.036 62.809 32.676"/>
		<path stroke="#f8d40a" d="m81.99 48.93 62.76 32.794M82.043 48.825l62.712 32.91m-62.66-33.016 62.665 33.028M82.148 48.614l62.618 33.145M82.201 48.508l62.57 33.262M82.253 48.403l62.523 33.379m-62.47-33.485 62.475 33.497M82.358 48.191l62.428 33.615m-62.375-33.72 62.381 33.731M82.463 47.98l62.333 33.849m-62.28-33.955 62.285 33.967M82.569 47.769l62.237 34.083M82.622 47.663l62.189 34.201M82.674 47.558l62.143 34.316M82.726 47.453l62.096 34.433"/>
		<path stroke="#f7d40a" d="m82.779 47.347 62.048 34.55M82.832 47.242l62 34.667M82.884 47.136l61.952 34.785m-61.9-34.89 61.906 34.901M82.99 46.925l61.857 35.019M83.042 46.819l61.81 35.137M83.094 46.713l61.763 35.255m-61.71-35.36 61.715 35.371"/>
		<path stroke="#f7d40b" d="m83.2 46.502 61.668 35.489M83.252 46.397l61.62 35.604m-61.567-35.71 61.572 35.722m-61.52-35.827 61.525 35.838M83.41 46.08l61.477 35.956M83.462 45.975l61.431 36.073M83.515 45.869l61.383 36.19m-61.33-36.295 61.335 36.307M83.621 45.659l61.287 36.424m-61.235-36.53 61.24 36.542M83.725 45.447l61.192 36.659M83.778 45.341l61.145 36.777M83.831 45.236l61.097 36.892M83.883 45.13l61.05 37.01M83.936 45.025l61.002 37.126M83.989 44.919l60.954 37.244M84.041 44.814l60.907 37.361M84.093 44.708l60.861 37.478"/>
		<path stroke="#f6d40b" d="m84.146 44.603 60.812 37.595M84.199 44.497l60.764 37.713M84.251 44.392l60.718 37.83M84.304 44.286l60.669 37.947M84.357 44.181l60.622 38.064m-60.57-38.17 60.575 38.18M84.462 43.969l60.527 38.297M84.514 43.864l60.48 38.414"/>
		<path stroke="#f6d40c" d="M84.567 43.758 145 82.29M84.62 43.653l60.384 38.649M84.672 43.547l60.337 38.766"/>
		<path stroke="#f6d50c" d="m84.725 43.442 60.289 38.883M84.777 43.336l60.242 39.001M84.83 43.231l60.194 39.118M84.882 43.125 145.03 82.36M84.935 43.019l60.1 39.353M84.988 42.914l60.052 39.47m-60-39.576 60.004 39.587M85.093 42.703l59.956 39.702M85.145 42.597l59.91 39.82M85.198 42.492l59.862 39.937M85.251 42.386l59.814 40.054M85.303 42.281l59.767 40.171M85.356 42.175l59.72 40.289M85.408 42.07l59.672 40.405M85.461 41.964l59.624 40.523"/>
		<path stroke="#f5d50c" d="m85.513 41.859 59.577 40.64M85.566 41.753l59.529 40.758M85.619 41.647 145.1 82.522m-59.429-40.98 59.435 40.99M85.724 41.436l59.387 41.108M85.777 41.33l59.339 41.226M85.829 41.225l59.292 41.342m-59.24-41.448 59.244 41.46"/>
		<path stroke="#f5d50d" d="m85.934 41.014 59.197 41.577M85.987 40.909l59.149 41.693M86.04 40.803l59.101 41.811M86.092 40.698l59.054 41.928M86.144 40.592l59.007 42.046M86.197 40.487l58.959 42.162M86.25 40.381l58.912 42.278m-58.86-42.384 58.865 42.396M86.355 40.17l58.816 42.512M86.408 40.064l58.768 42.63M86.46 39.958l58.722 42.748M86.513 39.853l58.674 42.865M86.565 39.747l58.627 42.982M86.618 39.642l58.579 43.099M86.67 39.536l58.532 43.217M86.723 39.431l58.485 43.334M86.776 39.326l58.436 43.45M86.828 39.22l58.389 43.566"/>
		<path stroke="#f4d50d" d="m86.881 39.114 58.341 43.684M86.933 39.009l58.294 43.8M86.986 38.903l58.246 43.918M87.038 38.798l58.2 44.035M87.091 38.692l58.152 44.153M87.144 38.586l58.104 44.27M87.196 38.481l58.056 44.387M87.249 38.375l58.008 44.505M87.301 38.27l57.961 44.621"/>
		<path stroke="#f4d50e" d="m87.354 38.164 57.914 44.739M87.407 38.059l57.866 44.856"/>
		<path stroke="#f4d60e" d="m87.459 37.953 57.819 44.974M87.512 37.848l57.771 45.09M87.564 37.742l57.724 45.206M87.617 37.637l57.676 45.323M87.67 37.531l57.628 45.441M87.722 37.425l57.581 45.558M87.775 37.32l57.533 45.675M87.827 37.214l57.487 45.793M87.88 37.109l57.438 45.909M87.932 37.003l57.392 46.027M87.985 36.898l57.344 46.144m-57.291-46.25 57.295 46.262M88.09 36.687l57.248 46.378M88.143 36.581l57.201 46.494m-57.149-46.6 57.154 46.612M88.248 36.37l57.106 46.729"/>
		<path stroke="#f3d60e" d="m88.355 36.304 56.997 46.8"/>
		<path stroke="#f3d60f" d="m88.462 36.239 56.889 46.873M88.57 36.173l56.779 46.945M88.677 36.107l56.671 47.017"/>
		<path stroke="#f2d610" d="m88.784 36.041 56.562 47.089M88.891 35.975l56.454 47.161M88.999 35.91l56.344 47.233M89.105 35.844l56.236 47.305"/>
		<path stroke="#f1d611" d="m89.213 35.778 56.127 47.377M89.32 35.712l56.018 47.449m-55.91-47.515 55.909 47.521"/>
		<path stroke="#f1d612" d="m89.535 35.581 55.8 47.594"/>
		<path stroke="#f0d512" d="m89.642 35.515 55.691 47.666M89.749 35.449l55.584 47.737M89.856 35.384l55.475 47.808"/>
		<path stroke="#f0d513" d="m89.963 35.318 55.366 47.88"/>
		<path stroke="#efd513" d="m90.07 35.252 55.258 47.952m-55.15-48.018 55.149 48.026M90.285 35.121l55.04 48.097M90.393 35.055l54.931 48.169"/>
		<path stroke="#efd514" d="m90.499 34.989 54.823 48.24"/>
		<path stroke="#eed514" d="m90.607 34.923 54.713 48.312M90.714 34.857l54.605 48.384m-54.498-48.45 54.496 48.456"/>
		<path stroke="#eed515" d="m90.928 34.726 54.387 48.529"/>
		<path stroke="#edd515" d="m91.036 34.66 54.278 48.601M91.143 34.595l54.169 48.671M91.25 34.529l54.061 48.743"/>
		<path stroke="#edd516" d="m91.357 34.463 53.952 48.815"/>
		<path stroke="#ecd516" d="m91.464 34.397 53.844 48.889M91.572 34.331l53.734 48.961M91.678 34.265l53.626 49.033"/>
		<path stroke="#ecd517" d="m91.786 34.2 53.517 49.104"/>
		<path stroke="#ebd517" d="m91.893 34.134 53.408 49.175m-53.3-49.241L145.3 83.317M92.108 34.002l53.19 49.321"/>
		<path stroke="#ebd518" d="m92.215 33.936 53.081 49.393"/>
		<path stroke="#ead518" d="m92.322 33.871 52.973 49.464m-52.866-49.53 52.864 49.536M92.537 33.739l52.755 49.608M92.643 33.674l52.648 49.68"/>
		<path stroke="#e9d519" d="M92.751 33.608 145.29 83.36M92.858 33.542l52.43 49.824M92.965 33.477l52.322 49.895"/>
		<path stroke="#e8d519" d="m93.072 33.41 52.213 49.968M93.18 33.345l52.104 50.041"/>
		<path stroke="#e8d51a" d="m93.287 33.279 51.995 50.112M93.394 33.213l51.886 50.184"/>
		<path stroke="#e7d51a" d="m93.501 33.147 51.778 50.256M93.608 33.081l51.669 50.328M93.715 33.016l51.561 50.401"/>
		<path stroke="#e7d41b" d="m93.823 32.951 51.451 50.472"/>
		<path stroke="#e6d41b" d="m93.93 32.884 51.342 50.545m-51.234-50.61 51.233 50.615M94.144 32.753 145.27 83.44M94.251 32.687l51.016 50.759"/>
		<path stroke="#e5d41c" d="m94.359 32.621 50.907 50.833m-50.8-50.898 50.799 50.904M94.573 32.49l50.69 50.976M94.681 32.424l50.58 51.048M94.788 32.358l50.472 51.119"/>
		<path stroke="#e4d41d" d="m94.895 32.292 50.363 51.191M95.002 32.227l50.254 51.264m-50.147-51.33 50.146 51.336"/>
		<path stroke="#e3d41d" d="m95.216 32.095 50.037 51.408M95.324 32.03l49.928 51.479M95.431 31.964l49.82 51.551"/>
		<path stroke="#e3d41e" d="m95.538 31.898 49.712 51.624"/>
		<path stroke="#e2d41e" d="m95.645 31.832 49.603 51.696M95.752 31.766l49.495 51.768M95.86 31.701l49.385 51.839M95.967 31.634l49.276 51.912"/>
		<path stroke="#e1d41f" d="m96.074 31.569 49.168 51.983m-49.06-52.049 49.058 52.056M96.289 31.438l48.95 52.127M96.396 31.372l48.841 52.199"/>
		<path stroke="#e0d41f" d="m96.503 31.306 48.732 52.271M96.61 31.24l48.623 52.343"/>
		<path stroke="#e0d420" d="m96.717 31.175 48.516 52.414m-48.408-52.48 48.406 52.488"/>
		<path stroke="#dfd420" d="m96.932 31.043 48.297 52.559m-48.19-52.625 48.188 52.631m-48.08-52.697 48.079 52.703M97.254 30.846l47.971 52.776"/>
		<path stroke="#ded421" d="m97.361 30.78 47.862 52.848M97.467 30.714l47.754 52.92"/>
		<path stroke="#ded321" d="m97.575 30.648 47.644 52.992M97.683 30.583l47.536 53.062"/>
		<path stroke="#ddd321" d="m97.79 30.517 47.427 53.134m-47.32-53.2 47.318 53.206"/>
		<path stroke="#ddd322" d="m98.004 30.385 47.209 53.28M98.112 30.32l47.1 53.351"/>
		<path stroke="#dcd322" d="m98.218 30.254 46.992 53.423M98.326 30.188l46.883 53.494m-46.776-53.56 46.775 53.566M98.54 30.057l46.666 53.639"/>
		<path stroke="#dbd322" d="m98.647 29.991 46.558 53.711"/>
		<path stroke="#dbd323" d="m98.754 29.925 46.449 53.783M98.862 29.859l46.34 53.855M98.969 29.793 145.2 83.722"/>
		<path stroke="#dad323" d="m99.076 29.728 46.122 53.999M99.183 29.661l46.014 54.072M99.29 29.596l45.906 54.143"/>
		<path stroke="#dad324" d="m99.398 29.531 45.796 54.214"/>
		<path stroke="#d9d324" d="m99.505 29.465 45.687 54.286m-45.58-54.352 45.578 54.358M99.719 29.333l45.47 54.43M99.827 29.267l45.361 54.503"/>
		<path stroke="#d8d324" d="m99.934 29.202 45.252 54.574M100.04 29.135l45.144 54.647"/>
		<path stroke="#d8d325" d="m100.148 29.07 45.035 54.718m-44.928-54.784 44.927 54.792"/>
		<path stroke="#d7d325" d="m100.362 28.938 44.818 54.864m-44.711-54.93 44.709 54.935m-44.601-55 44.599 55.006m-44.492-55.071 44.491 55.077"/>
		<path stroke="#d6d325" d="m100.791 28.675 44.383 55.15"/>
		<path stroke="#d6d226" d="m100.898 28.61 44.274 55.221m-44.166-55.287 44.164 55.295m-44.056-55.36 44.055 55.366"/>
		<path stroke="#d5d226" d="m101.22 28.412 43.947 55.438m-43.84-55.504 43.839 55.51m-43.732-55.575 43.731 55.581m-43.623-55.647 43.621 55.655"/>
		<path stroke="#d4d227" d="m101.649 28.149 43.512 55.727m-43.405-55.793 43.404 55.799m-43.296-55.864 43.295 55.87m-43.188-55.935 43.186 55.942"/>
		<path stroke="#d3d227" d="m102.078 27.886 43.077 56.015m-42.971-56.08 42.969 56.086m-42.86-56.152 42.859 56.158"/>
		<path stroke="#d3d228" d="m102.4 27.689 42.751 56.23"/>
		<path stroke="#d2d228" d="m102.506 27.623 42.643 56.302m-42.535-56.368 42.533 56.374m-42.426-56.439 42.425 56.446"/>
		<path stroke="#d1d228" d="m102.829 27.426 42.316 56.518M102.936 27.36l42.207 56.59m-42.1-56.656 42.098 56.662M103.15 27.229l41.99 56.733"/>
		<path stroke="#d0d229" d="m103.257 27.163 41.881 56.807m-41.774-56.873 41.773 56.878m-41.666-56.944 41.664 56.95m-41.556-57.015 41.554 57.021"/>
		<path stroke="#cfd229" d="m103.686 26.9 41.446 57.095m-41.339-57.161 41.337 57.167M103.9 26.768l41.228 57.237"/>
		<path stroke="#cfd22a" d="m104.008 26.703 41.119 57.31"/>
		<path stroke="#ced12a" d="m104.115 26.637 41.011 57.381m-40.904-57.447 40.903 57.453m-40.796-57.519 40.794 57.525m-40.687-57.591 40.686 57.599"/>
		<path stroke="#cdd12a" d="m104.543 26.373 40.577 57.671m-40.469-57.736 40.467 57.742m-40.36-57.808 40.359 57.814"/>
		<path stroke="#ccd12b" d="m104.865 26.177 40.25 57.884m-40.143-57.95 40.142 57.958M105.08 26.044l40.032 58.029m-39.925-58.094 39.924 58.102"/>
		<path stroke="#cbd12b" d="m105.294 25.913 39.815 58.174m-39.708-58.239 39.707 58.245m-39.599-58.311 39.597 58.317m-39.49-58.383 39.488 58.388"/>
		<path stroke="#cad12c" d="m105.723 25.65 39.379 58.462m-39.271-58.528 39.27 58.534m-39.164-58.6L145.1 84.124"/>
		<path stroke="#c9d12c" d="m106.044 25.453 39.054 58.677m-38.946-58.743 38.944 58.749m-38.837-58.814 38.836 58.821m-38.729-58.888 38.727 58.894"/>
		<path stroke="#c8d12c" d="m106.474 25.19 38.618 58.965m-38.511-59.031 38.509 59.037"/>
		<path stroke="#c8d12d" d="m106.688 25.058 38.4 59.109m-38.293-59.174 38.292 59.18"/>
		<path stroke="#c7d12d" d="m106.902 24.927 38.184 59.254m-38.077-59.32 38.075 59.325"/>
		<path stroke="#c7d02d" d="m107.117 24.795 37.966 59.397m-37.859-59.463 37.857 59.469"/>
		<path stroke="#c6d02d" d="m107.331 24.664 37.749 59.54m-37.641-59.606 37.639 59.614"/>
		<path stroke="#c6d02e" d="m107.545 24.532 37.532 59.686"/>
		<path stroke="#c5d02e" d="m107.653 24.466 37.422 59.758M107.76 24.401l37.314 59.828m-37.207-59.894 37.205 59.9m-37.098-59.966 37.097 59.974"/>
		<path stroke="#c4d02e" d="m108.082 24.203 36.987 60.046m-36.88-60.111 36.878 60.117m-36.771-60.183 36.77 60.189m-36.663-60.255 36.661 60.26"/>
		<path stroke="#c3d02f" d="m108.51 23.94 36.553 60.332m-36.445-60.398 36.443 60.406m-36.336-60.471 36.335 60.477m-36.228-60.543 36.226 60.549"/>
		<path stroke="#c2d02f" d="m108.939 23.677 36.118 60.621m-36.011-60.686 36.009 60.692m-35.902-60.759 35.9 60.766"/>
		<path stroke="#c1d02f" d="m109.261 23.48 35.791 60.837m-35.684-60.903 35.682 60.909"/>
		<path stroke="#c1d030" d="m109.476 23.348 35.573 60.981m-35.467-61.046 35.465 61.052"/>
		<path stroke="#c0d030" d="m109.69 23.217 35.355 61.126m-35.248-61.192 35.247 61.198m-35.14-61.264 35.138 61.269"/>
		<path stroke="#c0cf30" d="m110.011 23.019 35.031 61.341"/>
		<path stroke="#bfcf30" d="m110.119 22.954 34.921 61.412m-34.814-61.478 34.812 61.484m-34.705-61.549 34.704 61.555"/>
		<path stroke="#becf31" d="m110.44 22.756 34.596 61.63m-34.489-61.695 34.487 61.7m-34.379-61.766 34.377 61.772m-34.27-61.838 34.268 61.844"/>
		<path stroke="#bdcf31" d="m110.869 22.494 34.16 61.915m-34.053-61.981 34.052 61.989m-33.944-62.055 33.942 62.061M111.19 22.296l33.834 62.133"/>
		<path stroke="#bccf31" d="m111.298 22.23 33.725 62.204"/>
		<path stroke="#bccf32" d="m111.405 22.165 33.616 62.275m-33.509-62.341 33.508 62.347"/>
		<path stroke="#bbcf32" d="m111.62 22.033 33.398 62.421m-33.291-62.487 33.289 62.493m-33.182-62.558 33.181 62.564m-33.074-62.63 33.073 62.636"/>
		<path stroke="#bacf32" d="m112.048 21.77 32.964 62.707m-32.857-62.773 32.855 62.781m-32.747-62.846 32.745 62.852M112.37 21.573l32.637 62.924"/>
		<path stroke="#b9cf33" d="m112.477 21.507 32.528 62.996m-32.421-63.062 32.42 63.068m-32.313-63.134 32.311 63.14"/>
		<path stroke="#b8cf33" d="m112.798 21.31 32.203 63.212m-32.095-63.278L145 84.528m-31.987-63.35 31.986 63.356"/>
		<path stroke="#b8ce33" d="m113.12 21.113 31.877 63.427"/>
		<path stroke="#b7ce33" d="m113.228 21.046 31.767 63.5m-31.66-63.565 31.659 63.573m-31.552-63.639 31.55 63.644"/>
		<path stroke="#b6ce34" d="m113.549 20.849 31.442 63.716m-31.335-63.781 31.333 63.787m-31.226-63.853 31.224 63.859m-31.116-63.925 31.115 63.933"/>
		<path stroke="#b5ce34" d="m113.978 20.586 31.006 64.005M114.085 20.52l30.898 64.077m-30.791-64.142 30.789 64.147"/>
		<path stroke="#b4ce34" d="m114.3 20.389 30.68 64.219m-30.573-64.284 30.571 64.29m-30.464-64.357 30.463 64.365"/>
		<path stroke="#b4ce35" d="m114.621 20.192 30.354 64.436"/>
		<path stroke="#b3ce35" d="m114.728 20.126 30.245 64.508M114.835 20.06l30.136 64.58m-30.028-64.646 30.027 64.651"/>
		<path stroke="#b2ce35" d="m115.05 19.929 29.918 64.724m-29.811-64.79 29.81 64.796m-29.703-64.862 29.701 64.868m-29.593-64.934 29.592 64.94"/>
		<path stroke="#b1ce35" d="m115.478 19.666 29.484 65.011M115.586 19.6l29.375 65.082m-29.268-65.148 29.266 65.154"/>
		<path stroke="#b0ce36" d="m115.8 19.468 29.158 65.228m-29.05-65.293 29.049 65.299m-28.942-65.366 28.94 65.372m-28.833-65.437 28.832 65.443"/>
		<path stroke="#afce36" d="m116.229 19.205 28.723 65.515m-28.616-65.58 28.614 65.587m-28.507-65.653 28.506 65.659"/>
		<path stroke="#aece36" d="m116.551 19.008 28.396 65.731m-28.289-65.797 28.288 65.803m-28.181-65.869 28.179 65.875m-28.071-65.94 28.07 65.948"/>
		<path stroke="#adce37" d="m116.98 18.745 27.961 66.02m-27.854-66.086L144.94 84.77m-27.746-66.156 27.744 66.162"/>
		<path stroke="#accd37" d="m117.301 18.547 27.635 66.235m-27.528-66.3 27.527 66.306m-27.419-66.372 27.417 66.38m-27.31-66.446 27.308 66.452"/>
		<path stroke="#abcd37" d="m117.73 18.285 27.2 66.522m-27.093-66.588 27.091 66.594m-26.983-66.66 26.982 66.666"/>
		<path stroke="#aacd37" d="m118.052 18.087 26.873 66.74m-26.766-66.806 26.765 66.812"/>
		<path stroke="#aacd38" d="m118.266 17.956 26.656 66.883"/>
		<path stroke="#a9cd38" d="m118.374 17.89 26.547 66.955m-26.441-67.02 26.439 67.025m-26.331-67.092 26.329 67.1m-26.222-67.166 26.222 67.172"/>
		<path stroke="#a8cd38" d="m118.802 17.627 26.113 67.243M118.91 17.561l26.003 67.315m-25.896-67.381 25.895 67.387"/>
		<path stroke="#a7cd38" d="m119.124 17.43 25.786 67.458m-25.679-67.524 25.678 67.531m-25.571-67.597 25.569 67.603m-25.462-67.669 25.461 67.675"/>
		<path stroke="#a6cd39" d="m119.553 17.166 25.351 67.747M119.66 17.101l25.243 67.818m-25.136-67.884 25.134 67.892"/>
		<path stroke="#a5cd39" d="m119.874 16.969 25.025 67.963m-24.917-68.029 24.916 68.035m-24.81-68.101 24.808 68.107m-24.7-68.172 24.698 68.178"/>
		<path stroke="#a4cd39" d="m120.303 16.706 24.59 68.252M120.41 16.64l24.481 68.324m-24.373-68.389L144.89 84.97"/>
		<path stroke="#a3cd3a" d="m120.674 16.548 24.215 68.414m-24.058-68.441 24.059 68.435m-23.902-68.461 23.901 68.455m-23.745-68.48 23.745 68.474"/>
		<path stroke="#a2cd3a" d="m121.301 16.442 23.587 68.496"/>
		<path stroke="#a2cd3b" d="m121.457 16.416 23.432 68.515M121.614 16.39l23.274 68.535M121.77 16.363l23.118 68.556"/>
		<path stroke="#a1cd3b" d="m121.927 16.337 22.961 68.576M122.084 16.31l22.804 68.595"/>
		<path stroke="#a1cd3c" d="m122.241 16.285 22.646 68.614m-22.49-68.641 22.49 68.635"/>
		<path stroke="#a0cc3c" d="m122.554 16.231 22.333 68.657m-22.176-68.683 22.176 68.677m-22.019-68.703 22.018 68.697"/>
		<path stroke="#a0cc3d" d="m123.023 16.152 21.863 68.716"/>
		<path stroke="#9fcc3d" d="m123.181 16.125 21.705 68.737m-21.549-68.763 21.549 68.757m-21.392-68.783 21.391 68.777m-21.234-68.804 21.235 68.799"/>
		<path stroke="#9ecc3e" d="m123.807 16.02 21.078 68.817m-20.922-68.843 20.922 68.837m-20.764-68.864 20.763 68.858m-20.607-68.884 20.607 68.876"/>
		<path stroke="#9dcc3e" d="m124.434 15.914 20.45 68.897"/>
		<path stroke="#9dcb3f" d="m124.59 15.888 20.294 68.918m-20.137-68.944L144.883 84.8m-19.979-68.965 19.98 68.959"/>
		<path stroke="#9ccb3f" d="m125.06 15.809 19.823 68.977"/>
		<path stroke="#9ccb40" d="m125.217 15.782 19.666 68.998m-19.509-69.024 19.509 69.018M125.53 15.729l19.352 69.039"/>
		<path stroke="#9bcb40" d="m125.687 15.703 19.195 69.058m-19.039-69.084 19.039 69.08"/>
		<path stroke="#9bcb41" d="m126 15.65 18.882 69.099"/>
		<path stroke="#9acb41" d="m126.157 15.624 18.725 69.119m-18.569-69.145 18.568 69.139M126.47 15.571l18.411 69.16"/>
		<path stroke="#9aca42" d="m126.627 15.545 18.254 69.179"/>
		<path stroke="#99ca42" d="m126.783 15.518 18.097 69.2m-17.941-69.226 17.941 69.22m-17.783-69.246 17.783 69.24m-17.627-69.267L144.88 84.7"/>
		<path stroke="#98ca43" d="m127.41 15.413 17.47 69.279m-17.314-69.306 17.313 69.3M127.723 15.36l17.156 69.321M127.88 15.333l16.999 69.342"/>
		<path stroke="#97ca44" d="m128.037 15.307 16.841 69.36m-16.685-69.386 16.685 69.38M128.35 15.254l16.528 69.401"/>
		<path stroke="#96ca44" d="m128.506 15.228 16.372 69.421"/>
		<path stroke="#96c944" d="m128.663 15.202 16.215 69.441"/>
		<path stroke="#96c945" d="m128.819 15.175 16.058 69.461m-15.901-69.488 15.901 69.482"/>
		<path stroke="#95c945" d="m129.133 15.122 15.744 69.502M129.29 15.095l15.587 69.521"/>
		<path stroke="#95c946" d="m129.446 15.069 15.43 69.541m-15.273-69.568 15.273 69.562"/>
		<path stroke="#94c946" d="m129.759 15.016 15.117 69.583m-14.959-69.608 14.959 69.602m-14.803-69.63 14.802 69.622"/>
		<path stroke="#93c947" d="m130.229 14.937 14.646 69.642m-14.489-69.668 14.489 69.662m-14.333-69.689 14.333 69.683m-14.176-69.709 14.176 69.703"/>
		<path stroke="#92c848" d="m130.856 14.831 14.019 69.725m-13.862-69.751 13.862 69.743m-13.706-69.769 13.706 69.763m-13.549-69.79 13.548 69.784"/>
		<path stroke="#91c848" d="m131.483 14.726 13.391 69.804"/>
		<path stroke="#91c849" d="m131.639 14.7 13.235 69.822m-13.079-69.849 13.079 69.843"/>
		<path stroke="#90c849" d="m131.953 14.646 12.92 69.865M132.109 14.62l12.765 69.885"/>
		<path stroke="#90c84a" d="m132.266 14.594 12.607 69.905m-12.451-69.931 12.451 69.923"/>
		<path stroke="#8fc84a" d="m132.579 14.541 12.293 69.944m-12.137-69.97 12.137 69.964"/>
		<path stroke="#8fc74a" d="m132.892 14.488 11.98 69.986"/>
		<path stroke="#8fc74b" d="m133.049 14.462 11.823 70.006"/>
		<path stroke="#8ec74b" d="m133.206 14.435 11.666 70.025m-11.51-70.051 11.509 70.045m-11.352-70.071 11.352 70.065"/>
		<path stroke="#8dc74c" d="m133.675 14.356 11.197 70.086M133.833 14.33l11.038 70.104m-10.882-70.131 10.881 70.126m-10.725-70.152 10.725 70.146"/>
		<path stroke="#8cc74d" d="m134.302 14.251 10.568 70.166m-10.412-70.193 10.412 70.185m-10.255-70.211 10.255 70.205"/>
		<path stroke="#8bc74d" d="m134.772 14.171 10.097 70.226m-9.94-70.252 9.94 70.246"/>
		<path stroke="#8bc64e" d="m135.085 14.119 9.784 70.267m-9.627-70.294 9.626 70.286"/>
		<path stroke="#8ac64e" d="m135.399 14.066 9.469 70.306m-9.313-70.333 9.313 70.327"/>
		<path stroke="#8ac64f" d="m135.711 14.013 9.157 70.347m-9-70.373 8.999 70.365"/>
		<path stroke="#89c64f" d="m136.025 13.96 8.842 70.387m-8.685-70.413 8.685 70.407m-8.529-70.433 8.529 70.427"/>
		<path stroke="#88c650" d="m136.495 13.88 8.371 70.449m-8.214-70.474 8.214 70.466m-8.057-70.493 8.057 70.487m-7.901-70.513 7.901 70.507"/>
		<path stroke="#87c650" d="m137.122 13.775 7.743 70.529"/>
		<path stroke="#87c551" d="m137.278 13.748 7.588 70.55m-7.431-70.575 7.43 70.567"/>
		<path stroke="#86c551" d="m137.592 13.696 7.273 70.588m-7.116-70.615 7.115 70.609m-6.959-70.635 6.959 70.629"/>
		<path stroke="#86c552" d="m138.061 13.617 6.803 70.649"/>
		<path stroke="#85c552" d="m138.218 13.59 6.646 70.669m-6.489-70.696 6.488 70.69m-6.331-70.716 6.332 70.71m-6.176-70.735 6.175 70.729"/>
		<path stroke="#84c553" d="m138.844 13.485 6.019 70.748M139 13.458l5.862 70.769m-5.704-70.795 5.704 70.79"/>
		<path stroke="#83c553" d="m139.315 13.406 5.547 70.81"/>
		<path stroke="#83c453" d="m139.471 13.379 5.391 70.829"/>
		<path stroke="#83c454" d="m139.627 13.352 5.235 70.85m-5.077-70.875 5.077 70.869"/>
		<path stroke="#82c454" d="m139.941 13.3 4.921 70.89m-4.764-70.917 4.763 70.911m-4.607-70.937 4.606 70.93"/>
		<path stroke="#81c455" d="m140.411 13.22 4.45 70.951m-4.293-70.976 4.292 70.97m-4.136-70.997 4.136 70.991m-3.98-71.018 3.98 71.012"/>
		<path stroke="#80c455" d="m141.038 13.115 3.822 71.03"/>
		<path stroke="#80c456" d="m141.195 13.088 3.665 71.052m-3.509-71.078 3.508 71.072"/>
		<path stroke="#7fc456" d="m141.507 13.036 3.351 71.092"/>
		<path stroke="#7fc356" d="m141.665 13.009 3.194 71.113m-3.038-71.139 3.037 71.131"/>
		<path stroke="#7ec357" d="m141.978 12.956 2.88 71.152m-2.725-71.178 2.725 71.172m-2.567-71.198 2.567 71.193m-2.41-71.22 2.41 71.214"/>
		<path stroke="#7dc357" d="m142.604 12.851 2.254 71.232"/>
		<path stroke="#7dc358" d="m142.76 12.825 2.097 71.252m-1.94-71.279 1.94 71.273"/>
		<path stroke="#7cc358" d="m143.075 12.772 1.782 71.293m-1.626-71.32 1.625 71.312m-1.469-71.338 1.469 71.333"/>
		<path stroke="#7cc359" d="m143.543 12.693 1.313 71.353"/>
		<path stroke="#7bc359" d="m143.701 12.666 1.155 71.374"/>
		<path stroke="#7bc259" d="m143.858 12.64.998 71.394m-.842-71.421.841 71.413"/>
		<path stroke="#7ac259" d="m144.17 12.587.685 71.433"/>
		<path stroke="#7ac25a" d="m144.327 12.56.527 71.455m-.37-71.481.37 71.475"/>
		<path stroke="#79c25a" d="m144.64 12.508.214 71.493m-.057-71.52.057 71.514m.1-71.541-.1 71.535"/>
		<path stroke="#79c25b" d="m145.11 12.428-.257 71.555"/>
		<path stroke="#78c25b" d="m145.267 12.402-.414 71.575m.571-71.602-.571 71.595m.728-71.621-.729 71.615"/>
		<path stroke="#77c25b" d="m145.737 12.323-.885 71.635"/>
		<path stroke="#77c15c" d="m145.893 12.296-1.041 71.656m1.198-71.682-1.198 71.674"/>
		<path stroke="#76c15c" d="m146.207 12.244-1.355 71.694m1.512-71.721-1.513 71.715m1.669-71.741-1.669 71.736"/>
		<path stroke="#76c15d" d="m146.677 12.164-1.826 71.757"/>
		<path stroke="#75c15d" d="m146.833 12.138-1.982 71.777m2.139-71.804-2.139 71.796m2.296-71.822-2.297 71.816"/>
		<path stroke="#74c15d" d="m147.303 12.058-2.453 71.837"/>
		<path stroke="#74c15e" d="M147.459 12.032 144.85 83.89m2.767-71.884-2.767 71.876"/>
		<path stroke="#73c15e" d="m147.773 11.979-2.923 71.897m3.08-71.923-3.081 71.917m3.237-71.943-3.237 71.937"/>
		<path stroke="#72c15f" d="m148.243 11.9-3.394 71.958"/>
		<path stroke="#72c05f" d="m148.4 11.873-3.552 71.977m3.708-72.002-3.708 71.997"/>
		<path stroke="#71c05f" d="m148.713 11.821-3.865 72.018m4.022-72.045-4.022 72.039"/>
		<path stroke="#71c060" d="m149.027 11.768-4.179 72.057"/>
		<path stroke="#70c060" d="m149.183 11.742-4.336 72.077m4.493-72.104-4.493 72.098m4.65-72.124-4.65 72.118"/>
		<path stroke="#6fc060" d="M149.653 11.662 144.846 83.8"/>
		<path stroke="#6fc061" d="m149.809 11.636-4.963 72.158m5.119-72.184-5.119 72.178m5.277-72.205-5.277 72.199"/>
		<path stroke="#6ec061" d="m150.28 11.557-5.434 72.219m5.59-72.245-5.591 72.237"/>
		<path stroke="#6ec062" d="m150.592 11.504-5.747 72.259"/>
		<path stroke="#6dbf62" d="m150.75 11.478-5.905 72.279m6.061-72.306-6.062 72.3m6.219-72.327-6.219 72.319"/>
		<path stroke="#6cbf62" d="m151.219 11.399-6.375 72.338"/>
		<path stroke="#6cbf63" d="m151.375 11.372-6.531 72.359m6.689-72.386-6.689 72.38"/>
		<path stroke="#6bbf63" d="m151.69 11.319-6.847 72.401m7.003-72.428-7.003 72.422m7.159-72.448-7.159 72.44"/>
		<path stroke="#6abf64" d="m152.159 11.24-7.317 72.46m7.474-72.487-7.474 72.481m7.63-72.507-7.63 72.501"/>
		<path stroke="#69bf64" d="m152.629 11.161-7.787 72.52m7.944-72.547-7.944 72.541"/>
		<path stroke="#68bf65" d="m152.942 11.108-8.1 72.561m8.257-72.588-8.257 72.582"/>
		<path stroke="#68be65" d="m153.255 11.055-8.414 72.602"/>
		<path stroke="#67be65" d="m153.413 11.029-8.572 72.62m8.728-72.647-8.728 72.641"/>
		<path stroke="#67be66" d="m153.725 10.976-8.885 72.662"/>
		<path stroke="#66be66" d="m153.882 10.95-9.042 72.682m9.198-72.709-9.198 72.701m9.356-72.727-9.356 72.721"/>
		<path stroke="#65be66" d="m154.352 10.87-9.512 72.742"/>
		<path stroke="#65be67" d="m154.508 10.844-9.669 72.762m9.827-72.789L144.839 83.6"/>
		<path stroke="#64be67" d="m154.822 10.791-9.983 72.802m10.14-72.828-10.141 72.822m10.297-72.849-10.297 72.843"/>
		<path stroke="#63be68" d="m155.292 10.712-10.454 72.863m10.611-72.89-10.611 72.882"/>
		<path stroke="#62bd68" d="m155.606 10.659-10.768 72.902m10.924-72.928-10.925 72.923m11.081-72.95L144.837 83.55"/>
		<path stroke="#61bd69" d="m156.075 10.579-11.238 72.965m11.395-72.99-11.396 72.984m11.552-73.011L144.836 83.53"/>
		<path stroke="#60bd69" d="m156.545 10.5-11.709 73.024m11.866-73.05-11.866 73.044"/>
		<path stroke="#60bd6a" d="m156.858 10.448-12.023 73.065"/>
		<path stroke="#5fbd6a" d="m157.015 10.421-12.18 73.084m12.336-73.111-12.336 73.105"/>
		<path stroke="#5ebd6a" d="m157.329 10.369-12.494 73.124m12.65-73.151-12.651 73.145m12.808-73.172-12.808 73.164"/>
		<path stroke="#5dbd6b" d="m157.798 10.289-12.964 73.185"/>
		<path stroke="#5dbc6b" d="m157.955 10.263-13.121 73.205m13.278-73.232-13.279 73.226"/>
		<path stroke="#5cbc6b" d="m158.268 10.21-13.435 73.246m13.591-73.273-13.591 73.265"/>
		<path stroke="#5bbc6c" d="m158.582 10.157-13.749 73.285m13.905-73.312-13.905 73.306m14.061-73.332-14.061 73.327"/>
		<path stroke="#5abc6c" d="m159.051 10.078-14.218 73.345m14.375-73.372-14.375 73.366"/>
		<path stroke="#59bc6d" d="m159.365 10.025-14.532 73.386m14.688-73.413-14.688 73.407m14.845-73.433-14.846 73.427"/>
		<path stroke="#58bc6d" d="m159.834 9.946-15.002 73.447m15.159-73.474-15.159 73.467"/>
		<path stroke="#57bc6e" d="M160.148 9.893 144.832 83.38"/>
		<path stroke="#57bb6e" d="m160.304 9.867-15.473 73.507m15.63-73.534-15.63 73.528"/>
		<path stroke="#56bb6e" d="M160.618 9.814 144.831 83.36m15.943-73.573-15.943 73.567"/>
		<path stroke="#55bb6e" d="M160.931 9.761 144.83 83.349"/>
		<path stroke="#55bb6f" d="M161.087 9.735 144.83 83.343m16.415-73.635L144.83 83.337"/>
		<path stroke="#54bb6f" d="M161.401 9.682 144.83 83.329m16.728-73.674-16.729 73.668"/>
		<path stroke="#53bb6f" d="m161.714 9.629-16.885 73.688"/>
		<path stroke="#53bb70" d="m161.871 9.603-17.042 73.708m17.199-73.735-17.199 73.728"/>
		<path stroke="#52bb70" d="m162.184 9.55-17.356 73.748M162.34 9.523l-17.512 73.769"/>
		<path stroke="#51bb70" d="m162.498 9.497-17.67 73.789"/>
		<path stroke="#51bb71" d="M162.654 9.471 144.828 83.28"/>
		<path stroke="#50ba71" d="m162.81 9.444-17.983 73.83m18.14-73.856-18.14 73.848"/>
		<path stroke="#4fba71" d="m163.124 9.391-18.297 73.87m18.454-73.896-18.454 73.89m18.61-73.916-18.611 73.91"/>
		<path stroke="#4eba72" d="m163.594 9.312-18.768 73.929M163.75 9.286l-18.924 73.949"/>
		<path stroke="#4dba72" d="m163.908 9.259-19.082 73.97m19.238-73.996-19.239 73.991"/>
		<path stroke="#4cba72" d="m164.22 9.206-19.395 74.012"/>
		<path stroke="#4cba73" d="m164.377 9.18-19.552 74.03"/>
		<path stroke="#4bba73" d="m164.534 9.154-19.709 74.05M164.69 9.127l-19.865 74.071M164.847 9.1l-20.022 74.092"/>
		<path stroke="#4aba73" d="m165.003 9.075-20.179 74.109"/>
		<path stroke="#4ab973" d="m165.16 9.048-20.336 74.131"/>
		<path stroke="#49b974" d="m165.317 9.021-20.493 74.152m20.649-74.178-20.649 74.172"/>
		<path stroke="#48b974" d="m165.63 8.969-20.807 74.192m20.964-74.219-20.964 74.211"/>
		<path stroke="#47b974" d="m165.944 8.916-21.121 74.231"/>
		<path stroke="#47b975" d="m166.1 8.89-21.277 74.251"/>
		<path stroke="#46b975" d="m166.257 8.863-21.435 74.273m21.591-74.299-21.591 74.291"/>
		<path stroke="#45b975" d="m166.57 8.81-21.748 74.312m21.905-74.338-21.905 74.332"/>
		<path stroke="#44b975" d="M166.883 8.757 144.821 83.11"/>
		<path stroke="#44b976" d="m167.04 8.731-22.219 74.371"/>
		<path stroke="#43b976" d="m167.197 8.704-22.376 74.393m22.532-74.419-22.532 74.413"/>
		<path stroke="#42b876" d="M167.509 8.652 144.82 83.085m22.847-74.46L144.82 83.079"/>
		<path stroke="#41b877" d="m167.772 8.666-22.939 74.403m23.045-74.362-23.03 74.352"/>
		<path stroke="#40b877" d="m167.985 8.748-23.122 74.304m23.228-74.263-23.215 74.253"/>
		<path stroke="#3fb877" d="m168.197 8.829-23.306 74.203"/>
		<path stroke="#3eb878" d="m168.303 8.87-23.398 74.154M168.41 8.911l-23.491 74.104"/>
		<path stroke="#3db878" d="m168.515 8.952-23.582 74.053m23.689-74.012-23.674 74.002"/>
		<path stroke="#3cb878" d="m168.727 9.034-23.766 73.953"/>
		<path stroke="#3cb879" d="m168.833 9.075-23.857 73.902"/>
		<path stroke="#3bb879" d="m168.94 9.116-23.949 73.852"/>
		<path stroke="#3ab879" d="m169.045 9.156-24.041 73.802m24.147-73.761L145.019 82.95"/>
		<path stroke="#39b879" d="M169.257 9.239 145.033 82.94"/>
		<path stroke="#39b87a" d="m169.363 9.279-24.316 73.652"/>
		<path stroke="#38b77a" d="m169.469 9.32-24.408 73.601"/>
		<path stroke="#37b77a" d="m169.576 9.361-24.501 73.552m24.607-73.512-24.593 73.502"/>
		<path stroke="#36b77b" d="m169.788 9.443-24.684 73.45"/>
		<path stroke="#35b77b" d="m169.894 9.483-24.776 73.401M170 9.524l-24.869 73.352"/>
		<path stroke="#34b77b" d="m170.106 9.565-24.96 73.301"/>
		<path stroke="#33b77b" d="m170.211 9.606-25.051 73.25"/>
		<path stroke="#33b77c" d="m170.318 9.646-25.144 73.203"/>
		<path stroke="#32b77c" d="m170.424 9.687-25.235 73.152"/>
		<path stroke="#31b77c" d="m170.531 9.728-25.328 73.101"/>
		<path stroke="#30b77c" d="m170.637 9.769-25.42 73.052M170.743 9.81l-25.512 73.001"/>
		<path stroke="#2fb77d" d="m170.848 9.851-25.602 72.951"/>
		<path stroke="#2eb77d" d="M170.955 9.892 145.26 82.794"/>
		<path stroke="#2db77d" d="m171.06 9.932-25.786 72.852m25.893-72.811-25.879 72.801"/>
		<path stroke="#2cb77d" d="m171.273 10.014-25.971 72.751"/>
		<path stroke="#2bb77e" d="m171.378 10.055-26.061 72.702"/>
		<path stroke="#2ab67e" d="m171.485 10.096-26.154 72.651"/>
		<path stroke="#29b67e" d="m171.59 10.137-26.245 72.6m26.352-72.559-26.338 72.549"/>
		<path stroke="#28b67e" d="M171.803 10.218 145.374 82.72"/>
		<path stroke="#27b67e" d="M171.909 10.259 145.387 82.71"/>
		<path stroke="#26b67f" d="m172.015 10.3-26.613 72.4"/>
		<path stroke="#25b67f" d="m172.122 10.341-26.706 72.351"/>
		<path stroke="#24b67f" d="m172.227 10.382-26.797 72.3"/>
		<path stroke="#23b67f" d="m172.333 10.423-26.888 72.25"/>
		<path stroke="#22b67f" d="m172.44 10.463-26.982 72.2"/>
		<path stroke="#21b680" d="m172.545 10.504-27.072 72.151"/>
		<path stroke="#20b680" d="m172.652 10.545-27.165 72.1"/>
		<path stroke="#1fb680" d="M172.757 10.585 145.5 82.636"/>
		<path stroke="#1eb680" d="m172.864 10.627-27.349 72.001"/>
		<path stroke="#1cb680" d="m172.969 10.668-27.439 71.95"/>
		<path stroke="#1bb681" d="m173.076 10.709-27.533 71.899"/>
		<path stroke="#1ab681" d="m173.182 10.749-27.624 71.85"/>
		<path stroke="#19b681" d="m173.288 10.79-27.716 71.801"/>
		<path stroke="#17b581" d="m173.394 10.831-27.808 71.75"/>
		<path stroke="#16b581" d="m173.5 10.872-27.9 71.699"/>
		<path stroke="#14b582" d="m173.606 10.912-27.992 71.649"/>
		<path stroke="#12b582" d="m173.712 10.953-28.084 71.601"/>
		<path stroke="#11b582" d="m173.818 10.994-28.175 71.55"/>
		<path stroke="#0fb582" d="m173.924 11.036-28.267 71.498"/>
		<path stroke="#0db582" d="m174.031 11.077-28.36 71.449"/>
		<path stroke="#0ab582" d="m174.136 11.117-28.451 71.399"/>
		<path stroke="#08b583" d="M174.243 11.158 145.7 82.507"/>
		<path stroke="#05b583" d="m174.348 11.199-28.635 71.298"/>
		<path stroke="#02b583" d="m174.454 11.24-28.726 71.247"/>
		<path stroke="#00b583" d="m174.56 11.28-28.818 71.199m28.925-71.158L145.756 82.47"/>
		<path stroke="#00b584" d="m174.773 11.363-29.002 71.099m29.108-71.059-29.094 71.049m29.2-71.008-29.186 70.998m29.292-70.957-29.278 70.947m29.384-70.907-29.369 70.9m29.475-70.859-29.462 70.849"/>
		<path stroke="#00b485" d="m175.409 11.607-29.553 70.798m29.659-70.757L145.87 82.397m29.752-70.708-29.738 70.699m29.843-70.658-29.828 70.648m29.934-70.607-29.92 70.597"/>
		<path stroke="#00b486" d="m175.939 11.811-30.013 70.547m30.119-70.506L145.941 82.35m30.211-70.457-30.196 70.448m30.301-70.407-30.288 70.397m30.395-70.357-30.381 70.347m30.486-70.305-30.471 70.297"/>
		<path stroke="#00b487" d="m176.576 12.057-30.564 70.247m30.67-70.207-30.656 70.199m30.762-70.158-30.747 70.148m30.853-70.107-30.839 70.097M177 12.22l-30.931 70.046"/>
		<path stroke="#00b488" d="m177.106 12.261-31.023 69.998m31.128-69.957-31.114 69.947"/>
		<path stroke="#00b388" d="m177.319 12.342-31.207 69.897m31.312-69.856-31.299 69.848m31.406-69.807-31.392 69.798m31.497-69.758-31.483 69.748"/>
		<path stroke="#00b389" d="m177.743 12.506-31.576 69.696m31.681-69.655-31.666 69.647m31.773-69.606-31.759 69.596m31.864-69.556-31.85 69.547m31.957-69.506-31.942 69.496m32.048-69.455-32.034 69.447"/>
		<path stroke="#00b38a" d="m178.379 12.751-32.127 69.396m32.233-69.356-32.218 69.347m32.324-69.305L146.282 82.13m32.415-69.257L146.295 82.12m32.508-69.206L146.31 82.11m32.599-69.155L146.324 82.1"/>
		<path stroke="#00b38b" d="m179.015 12.995-32.677 69.098m32.784-69.056-32.769 69.046"/>
		<path stroke="#00b28b" d="m179.227 13.078-32.86 68.995m32.966-68.954L146.38 82.065m33.06-68.905-33.045 68.896"/>
		<path stroke="#00b28c" d="M179.545 13.201 146.41 82.046m33.242-68.804-33.229 68.794m33.334-68.754-33.319 68.746m33.426-68.705-33.412 68.695m33.518-68.654-33.504 68.645m33.61-68.605L146.48 82.001"/>
		<path stroke="#00b28d" d="m180.182 13.445-33.687 68.546m33.793-68.505-33.78 68.495m33.886-68.453-33.871 68.446M180.5 13.568l-33.962 68.396m34.068-68.355-34.055 68.345m34.161-68.304-34.147 68.294"/>
		<path stroke="#00b28e" d="M180.819 13.691 146.58 81.936m34.344-68.205-34.33 68.196m34.436-68.155-34.422 68.145m34.529-68.104-34.514 68.094"/>
		<path stroke="#00b18e" d="m181.243 13.854-34.606 68.045m34.712-68.004L146.651 81.89"/>
		<path stroke="#00b18f" d="m181.455 13.935-34.79 67.945m34.896-67.904L146.678 81.87m34.989-67.853-34.974 67.845m35.08-67.804-35.065 67.794m35.17-67.753-35.157 67.744m35.264-67.703-35.25 67.695"/>
		<path stroke="#00b190" d="M182.091 14.181 146.75 81.825m35.448-67.604-35.434 67.594m35.539-67.553-35.525 67.544m35.632-67.503-35.618 67.495m35.723-67.454-35.708 67.444m35.815-67.403-35.801 67.393"/>
		<path stroke="#00b191" d="m182.727 14.425-35.893 67.343m35.999-67.301-35.984 67.294m36.091-67.254-36.076 67.244m36.181-67.203-36.168 67.193m36.274-67.152-36.26 67.144"/>
		<path stroke="#00b091" d="m183.258 14.63-36.352 67.094"/>
		<path stroke="#00b092" d="M183.364 14.671 146.92 81.714m36.55-67.002-36.536 66.992m36.642-66.952-36.628 66.944m36.734-66.903-36.719 66.893m36.825-66.852-36.811 66.843m36.917-66.802-36.903 66.794"/>
		<path stroke="#00b093" d="m184 14.916-36.995 66.743m37.101-66.702L147.02 81.649m37.192-66.652L147.034 81.64m37.285-66.602-37.272 66.594m37.377-66.553-37.362 66.543m37.469-66.503-37.455 66.493"/>
		<path stroke="#00b094" d="M184.637 15.161 147.09 81.604m37.653-66.402-37.638 66.393m37.743-66.352-37.729 66.342m37.836-66.301-37.822 66.291m37.928-66.251-37.914 66.243m38.02-66.202-38.005 66.192"/>
		<path stroke="#00b095" d="m185.273 15.406-38.098 66.142m38.204-66.101L147.19 81.54m38.295-66.052L147.204 81.53"/>
		<path stroke="#00af95" d="M185.591 15.529 147.218 81.52m38.48-65.95-38.466 65.941m38.571-65.901-38.556 65.893"/>
		<path stroke="#00af96" d="m185.909 15.651-38.648 65.842m38.754-65.801-38.74 65.791m38.847-65.75L147.29 81.474m38.937-65.7-38.924 65.692m39.03-65.651-39.015 65.641m39.122-65.601-39.108 65.591"/>
		<path stroke="#00af97" d="m186.545 15.896-39.199 65.542m39.306-65.501L147.36 81.429m39.398-65.451-39.384 65.441m39.49-65.4-39.476 65.39M186.97 16.06l-39.567 65.341m39.674-65.3-39.66 65.29"/>
		<path stroke="#00af98" d="m187.182 16.141-39.751 65.241m39.857-65.2-39.842 65.192m39.948-65.151-39.935 65.141m40.041-65.1-40.027 65.09m40.133-65.05-40.118 65.041m40.224-65-40.21 64.992"/>
		<path stroke="#00af99" d="m187.819 16.386-40.303 64.941"/>
		<path stroke="#00ae99" d="m187.924 16.427-40.394 64.89m40.501-64.849-40.487 64.839m40.593-64.798L147.559 81.3m40.684-64.75-40.67 64.74m40.775-64.7-40.761 64.69"/>
		<path stroke="#00ae9a" d="m188.456 16.631-40.855 64.641m40.96-64.6-40.945 64.591m41.051-64.55-41.038 64.54m41.144-64.499-41.129 64.489m41.235-64.448-41.221 64.44m41.327-64.4-41.313 64.39m41.419-64.349-41.405 64.34"/>
		<path stroke="#00ae9b" d="m189.197 16.917-41.496 64.291m41.602-64.25-41.589 64.24m41.696-64.199-41.681 64.189m41.787-64.148-41.772 64.139m41.878-64.098-41.865 64.09m41.97-64.05-41.955 64.04"/>
		<path stroke="#00ae9c" d="m189.833 17.162-42.047 63.989m42.154-63.948-42.14 63.94m42.245-63.899-42.231 63.89m42.338-63.849-42.323 63.839m42.428-63.798-42.415 63.788"/>
		<path stroke="#00ad9c" d="m190.364 17.367-42.507 63.739"/>
		<path stroke="#00ad9d" d="m190.47 17.408-42.599 63.689m42.705-63.649-42.691 63.639m42.797-63.598-42.783 63.588m42.889-63.547-42.875 63.539m42.982-63.498-42.967 63.488M191 17.612l-43.058 63.44"/>
		<path stroke="#00ad9e" d="m191.106 17.653-43.15 63.389m43.256-63.348L147.97 81.032m43.349-63.298-43.334 63.288m43.439-63.247-43.425 63.24m43.532-63.199-43.519 63.189m43.624-63.148-43.609 63.138"/>
		<path stroke="#00ad9f" d="m191.743 17.898-43.701 63.089m43.807-63.048-43.794 63.038m43.9-62.998L148.07 80.968m43.991-62.948-43.978 62.938m44.084-62.897L148.098 80.95m44.175-62.848L148.112 80.94"/>
		<path stroke="#00ada0" d="m192.379 18.143-44.253 62.788m44.359-62.747L148.14 80.923m44.451-62.699-44.436 62.689"/>
		<path stroke="#00aca0" d="m192.697 18.265-44.529 62.638m44.635-62.597-44.62 62.587m44.727-62.546-44.713 62.539"/>
		<path stroke="#00aca1" d="m193.015 18.388-44.804 62.488m44.911-62.447-44.896 62.437m45.002-62.397L148.24 80.856m45.093-62.346-45.079 62.339m45.186-62.298-45.172 62.288m45.277-62.247-45.262 62.237"/>
		<path stroke="#00aca2" d="m193.652 18.633-45.356 62.188m45.462-62.147-45.447 62.137m45.553-62.097-45.539 62.088m45.644-62.047-45.63 62.037m45.737-61.996-45.723 61.988m45.829-61.947-45.814 61.937"/>
		<path stroke="#00aca3" d="m194.288 18.878-45.906 61.887m46.012-61.846-45.998 61.838M194.5 18.96l-46.089 61.787M194.607 19l-46.183 61.737m46.288-61.696-46.273 61.686m46.38-61.645L148.453 80.72"/>
		<path stroke="#00aca4" d="M194.924 19.123 148.467 80.71m46.564-61.546L148.481 80.7"/>
		<path stroke="#00aba4" d="M195.137 19.205 148.495 80.69m46.748-61.445-46.734 61.437m46.839-61.396-46.824 61.387m46.931-61.345-46.917 61.335"/>
		<path stroke="#00aba5" d="m195.561 19.368-47.009 61.287m47.115-61.246-47.1 61.236m47.206-61.195-47.192 61.186m47.298-61.145-47.285 61.135m47.392-61.094-47.377 61.086m47.482-61.046-47.468 61.036"/>
		<path stroke="#00aba6" d="m196.198 19.613-47.561 60.986m47.666-60.945-47.652 60.937m47.759-60.896-47.744 60.886m47.849-60.845-47.836 60.835m47.943-60.794-47.928 60.784m48.033-60.744-48.019 60.737"/>
		<path stroke="#00aba7" d="m196.833 19.858-48.111 60.686m48.218-60.645-48.203 60.635m48.308-60.594L148.75 80.526m48.402-60.545-48.387 60.535m48.493-60.494-48.479 60.485m48.585-60.444-48.571 60.434"/>
		<path stroke="#00aba8" d="m197.47 20.103-48.663 60.386m48.77-60.345-48.755 60.335"/>
		<path stroke="#00aaa8" d="M197.682 20.185 148.835 80.47m48.953-60.244L148.85 80.46m49.044-60.193-49.029 60.185M198 20.308l-49.122 60.134"/>
		<path stroke="#00aaa9" d="m198.106 20.349-49.213 60.083m49.319-60.042-49.305 60.035m49.412-59.995-49.398 59.985m49.503-59.944-49.489 59.934m49.596-59.893L148.95 80.395m49.687-59.842-49.674 59.835"/>
		<path stroke="#0aa" d="m198.743 20.593-49.765 59.785m49.871-59.744-49.857 59.734m49.963-59.693L149.006 80.36m50.055-59.644-50.04 59.634m50.145-59.593-50.131 59.584m50.238-59.543-50.224 59.533"/>
		<path stroke="#00aaab" d="m199.378 20.839-50.315 59.484m50.423-59.444-50.408 59.434m50.513-59.393-50.5 59.384m.007 0 50.523-59.277m-50.515 59.277 50.544-59.17"/>
		<path stroke="#00aaac" d="m149.113 80.304 50.567-59.062m-50.559 59.06 50.588-58.953m-50.583 58.953 50.613-58.847m-50.605 58.847 50.634-58.74M149.141 80.3l50.656-58.631M149.148 80.3l50.679-58.524"/>
		<path stroke="#00aaad" d="m149.156 80.3 50.701-58.417M149.163 80.3l50.723-58.309M149.17 80.298l50.745-58.2m-50.738 58.2 50.769-58.093m-50.762 58.093 50.79-57.986"/>
		<path stroke="#00aaae" d="m149.191 80.298 50.813-57.879m-50.805 57.877 50.835-57.77m-50.828 57.77 50.857-57.663m-50.851 57.663 50.88-57.556m-50.873 57.556 50.903-57.449m-50.895 57.447 50.925-57.34"/>
		<path stroke="#00aaaf" d="m149.234 80.294 50.947-57.233m-50.94 57.233 50.969-57.126m-50.961 57.126 50.991-57.019m-50.985 57.017 51.014-56.91m-51.007 56.91 51.036-56.803"/>
		<path stroke="#00aab0" d="m149.27 80.292 51.059-56.696M149.277 80.29l51.081-56.587M149.285 80.29l51.102-56.48m-51.095 56.48 51.124-56.373M149.298 80.29l51.148-56.266"/>
		<path stroke="#00aab1" d="m149.305 80.288 51.17-56.157m-51.162 56.157 51.192-56.05m-51.186 56.05 51.216-55.943m-51.208 55.943 51.237-55.836m-51.231 55.834 51.26-55.727m-51.252 55.727 51.282-55.62"/>
		<path stroke="#00aab2" d="m149.348 80.286 51.305-55.512m-51.298 55.512 51.327-55.405m-51.319 55.403 51.348-55.296M149.37 80.284l51.371-55.189m-51.365 55.189 51.394-55.082"/>
		<path stroke="#00aab3" d="m149.383 80.282 51.416-54.973m-51.408 54.973 51.439-54.866m-51.432 54.866 51.461-54.759m-51.453 54.759 51.482-54.652m-51.475 54.65 51.504-54.543"/>
		<path stroke="#00aab4" d="m149.419 80.28 51.528-54.436m-51.52 54.436 51.55-54.329M149.434 80.28l51.572-54.222m-51.565 54.22 51.595-54.113m-51.588 54.113 51.617-54.006m-51.609 54.006 51.639-53.899"/>
		<path stroke="#00aab5" d="m149.462 80.278 51.662-53.792m-51.655 53.79 51.684-53.683"/>
		<path stroke="#00abb5" d="M149.477 80.276 201.183 26.7m-51.699 53.576 51.728-53.469m-51.721 53.469 51.751-53.362"/>
		<path stroke="#00abb6" d="m149.498 80.274 51.773-53.253m-51.766 53.253 51.796-53.146m-51.789 53.146 51.818-53.039m-51.81 53.039 51.84-52.932m-51.834 52.93 51.863-52.822"/>
		<path stroke="#00abb7" d="m149.534 80.272 51.884-52.715m-51.877 52.715 51.907-52.608M149.547 80.27l51.931-52.5m-51.923 52.5 51.952-52.393M149.562 80.27l51.975-52.285"/>
		<path stroke="#00abb8" d="m149.57 80.27 51.997-52.178m-51.99 52.176 52.019-52.069m-52.013 52.069 52.041-51.962m-52.033 51.962 52.064-51.856m-52.057 51.856 52.086-51.748m-52.08 51.746 52.109-51.64"/>
		<path stroke="#00abb9" d="m149.612 80.266 52.131-51.532M149.62 80.266l52.153-51.425m-52.147 51.424 52.176-51.317m-52.169 51.317 52.198-51.21m-52.19 51.21 52.22-51.103"/>
		<path stroke="#00abba" d="m149.647 80.263 52.243-50.994m-52.235 50.994 52.264-50.887m-52.256 50.887 52.287-50.78m-52.281 50.78 52.31-50.673m-52.303 50.671 52.332-50.564"/>
		<path stroke="#00abbb" d="m149.683 80.261 52.355-50.457m-52.347 50.457 52.377-50.35m-52.37 50.35 52.398-50.243m-52.391 50.241 52.42-50.134m-52.414 50.134 52.445-50.026m-52.437 50.026 52.466-49.919"/>
		<path stroke="#00abbc" d="m149.726 80.259 52.488-49.812m-52.481 49.81 52.512-49.704m-52.504 49.704 52.533-49.596m-52.525 49.596 52.554-49.489m-52.548 49.489 52.577-49.383"/>
		<path stroke="#00abbd" d="m149.762 80.255 52.6-49.274m-52.593 49.274 52.622-49.166m-52.615 49.166 52.644-49.059m-52.636 49.059 52.667-48.952m-52.66 48.95L202.48 31.41"/>
		<path stroke="#00abbe" d="m149.797 80.253 52.712-48.736m-52.704 48.736 52.734-48.629m-52.727 48.629 52.757-48.522m-52.75 48.52 52.778-48.414m-52.77 48.414 52.8-48.306m-52.794 48.306 52.824-48.199"/>
		<path stroke="#00abbf" d="m149.84 80.251 52.846-48.092m-52.839 48.09 52.868-47.984m-52.861 47.984 52.892-47.876m-52.884 47.876 52.913-47.769m-52.906 47.769 52.935-47.662"/>
		<path stroke="#00abc0" d="m149.875 80.247 52.958-47.553m-52.95 47.553 52.98-47.446m-52.972 47.446 53.002-47.338m-52.995 47.336 53.024-47.23m-53.017 47.23 53.047-47.123"/>
		<path stroke="#00abc1" d="m149.912 80.245 53.069-47.016m-53.062 47.016 53.092-46.909m-53.085 46.907 53.113-46.799m-53.106 46.799 53.136-46.693M149.94 80.243l53.158-46.585m-53.15 46.585 53.18-46.478"/>
		<path stroke="#00abc2" d="m149.955 80.241 53.203-46.37m-53.197 46.37 53.226-46.263m-53.218 46.263 53.248-46.156m-53.241 46.156 53.271-46.048m-53.264 46.046 53.293-45.94"/>
		<path stroke="#00abc3" d="m149.991 80.239 53.314-45.832m-53.307 45.832 53.336-45.725m-53.33 45.725 53.36-45.619m-53.353 45.617 53.383-45.509m-53.376 45.509 53.404-45.403m-53.396 45.403 53.427-45.295"/>
		<path stroke="#00abc4" d="m150.034 80.237 53.448-45.188m-53.441 45.186 53.471-45.079m-53.465 45.079 53.493-44.972m-53.486 44.972 53.517-44.865m-53.509 44.865L203.6 35.477"/>
		<path stroke="#00abc5" d="m150.069 80.233 53.56-44.649m-53.553 44.649 53.583-44.542m-53.576 44.542 53.605-44.435M150.09 80.233l53.628-44.327m-53.621 44.325 53.65-44.219m-53.643 44.219 53.673-44.112"/>
		<path stroke="#00abc6" d="m150.112 80.231 53.694-44.005m-53.687 44.005 53.717-43.898m-53.711 43.896 53.74-43.789"/>
		<path stroke="#00acc6" d="m150.133 80.229 53.762-43.682M150.14 80.229l53.784-43.574"/>
		<path stroke="#00acc7" d="m150.148 80.227 53.806-43.465m-53.799 43.465 53.828-43.358m-53.822 43.358 53.851-43.252m-53.844 43.252 53.873-43.145m-53.865 43.143 53.896-43.036m-53.89 43.036 53.919-42.929"/>
		<path stroke="#00acc8" d="m150.19 80.225 53.94-42.821m-53.932 42.82 53.962-42.713m-53.956 42.713 53.986-42.606m-53.979 42.606 54.008-42.499m-54.001 42.499 54.03-42.393"/>
		<path stroke="#00acc9" d="m150.226 80.222 54.052-42.283m-54.045 42.283 54.074-42.176M150.24 80.222l54.096-42.069m-54.088 42.069 54.119-41.962m-54.113 41.96 54.142-41.853"/>
		<path stroke="#00acca" d="m150.261 80.22 54.164-41.746M150.268 80.22l54.187-41.64m-54.179 41.64 54.209-41.532m-54.202 41.53 54.231-41.423M150.29 80.218l54.253-41.316m-54.246 41.316 54.276-41.209"/>
		<path stroke="#00accb" d="m150.304 80.218 54.298-41.102m-54.291 41.1 54.32-40.993m-54.312 40.993 54.342-40.886m-54.335 40.886 54.364-40.779m-54.357 40.779 54.387-40.672"/>
		<path stroke="#00accc" d="m150.34 80.214 54.409-40.563m-54.403 40.563 54.433-40.456m-54.425 40.456 54.454-40.349m-54.446 40.347 54.475-40.239m-54.468 40.239 54.499-40.133m-54.493 40.133 54.522-40.025"/>
		<path stroke="#00accd" d="m150.382 80.212 54.544-39.919M150.39 80.21l54.565-39.809M150.397 80.21l54.589-39.703M150.404 80.21l54.611-39.595M150.412 80.21l54.632-39.488"/>
		<path stroke="#00acce" d="m150.418 80.208 54.656-39.38m-54.649 39.38 54.678-39.272m-54.671 39.272 54.701-39.166M150.44 80.208l54.723-39.058m-54.716 39.056 54.745-38.949m-54.738 38.949 54.767-38.842"/>
		<path stroke="#00accf" d="m150.461 80.206 54.789-38.735m-54.782 38.735 54.812-38.628m-54.805 38.626 54.834-38.519m-54.826 38.519 54.855-38.412M150.49 80.204l54.879-38.305"/>
		<path stroke="#00acd0" d="m150.497 80.204 54.901-38.198m-54.894 38.196 54.923-38.089m-54.916 38.089 54.945-37.982m-54.938 37.982 54.969-37.875M150.526 80.2l54.99-37.766M150.533 80.2l55.012-37.659"/>
		<path stroke="#00acd1" d="m150.54 80.2 55.035-37.552M150.546 80.2l55.058-37.445m-55.05 37.443 55.079-37.335m-55.072 37.335 55.102-37.229m-55.095 37.229 55.125-37.121"/>
		<path stroke="#00acd2" d="m150.576 80.198 55.146-37.014m-55.139 37.012 55.168-36.906m-55.162 36.906 55.192-36.798m-55.185 36.798 55.215-36.692m-55.207 36.692 55.236-36.584m-55.229 36.582 55.259-36.476"/>
		<path stroke="#00acd3" d="m150.618 80.194 55.281-36.368m-55.274 36.368 55.303-36.261m-55.296 36.261 55.325-36.155m-55.318 36.153 55.348-36.045m-55.34 36.045 55.37-35.938"/>
		<path stroke="#00acd4" d="m150.654 80.192 55.392-35.831m-55.385 35.831 55.416-35.724M150.668 80.19l55.438-35.615M150.675 80.19l55.46-35.508M150.682 80.19l55.482-35.401M150.69 80.188l55.504-35.292"/>
		<path stroke="#00acd5" d="m150.697 80.188 55.526-35.185m-55.519 35.185 55.548-35.078M150.71 80.188l55.572-34.971m-55.564 34.969 55.594-34.862m-55.587 34.862 55.616-34.755"/>
		<path stroke="#00acd6" d="m150.732 80.186 55.639-34.648M150.74 80.186l55.66-34.541m-55.653 34.539 55.682-34.432m-55.676 34.432 55.705-34.325M150.76 80.184l55.729-34.218m-55.721 34.218 55.75-34.11"/>
		<path stroke="#00acd7" d="m150.775 80.182 55.772-34.002m-55.765 34.002 55.795-33.895M150.79 80.182l55.817-33.787m-55.811 33.787 55.84-33.681m-55.833 33.68 55.862-33.572"/>
		<path stroke="#00acd8" d="m150.811 80.181 55.884-33.465m-55.877 33.465 55.906-33.358m-55.899 33.358 55.929-33.251m-55.921 33.249 55.951-33.142m-55.945 33.142 55.974-33.035m-55.967 33.035 55.996-32.928"/>
		<path stroke="#00acd9" d="m150.853 80.177 56.019-32.819m-56.011 32.819 56.04-32.712m-56.033 32.712 56.062-32.605m-56.055 32.605 56.085-32.498"/>
		<path stroke="#00add9" d="m150.882 80.175 56.108-32.389"/>
		<path stroke="#00adda" d="m150.889 80.175 56.13-32.282m-56.123 32.282L207.048 48m-56.144 32.175 56.174-32.068m-56.167 32.066 56.197-31.959m-56.191 31.959 56.22-31.852"/>
		<path stroke="#00addb" d="m150.924 80.173 56.242-31.745m-56.234 31.745 56.264-31.638m-56.257 31.636 56.286-31.529m-56.279 31.529 56.309-31.422m-56.301 31.422 56.331-31.315M150.96 80.171l56.354-31.208"/>
		<path stroke="#00addc" d="m150.967 80.169 56.376-31.098m-56.368 31.098 56.397-30.991m-56.39 30.991 56.42-30.884m-56.413 30.884 56.443-30.778m-56.435 30.776 56.464-30.669"/>
		<path stroke="#00addd" d="m151.003 80.167 56.488-30.561M151.01 80.167l56.51-30.454m-56.503 30.452 56.532-30.345m-56.524 30.345 56.554-30.238m-56.547 30.238 56.576-30.131"/>
		<path stroke="#00adde" d="m151.038 80.165 56.6-30.025m-56.592 30.023 56.621-29.915m-56.614 29.915 56.644-29.808M151.06 80.163l56.667-29.701m-56.659 29.701 56.688-29.594"/>
		<path stroke="#00addf" d="m151.075 80.161 56.711-29.485m-56.703 29.485 56.732-29.378m-56.727 29.378 56.756-29.271m-56.748 29.271 56.777-29.164m-56.77 29.162 56.801-29.055"/>
		<path stroke="#00ade0" d="m151.11 80.159 56.823-28.948m-56.815 28.948 56.844-28.841m-56.837 28.841 56.867-28.734m-56.861 28.732 56.89-28.625m-56.882 28.625 56.911-28.518m-56.904 28.518 56.934-28.411"/>
		<path stroke="#00ade1" d="m151.154 80.157 56.956-28.304m-56.949 28.302 56.978-28.195m-56.972 28.195 57.001-28.088m-56.994 28.088 57.025-27.98m-57.018 27.978 57.047-27.871"/>
		<path stroke="#00ade2" d="m151.189 80.153 57.068-27.764m-57.061 27.764 57.091-27.658m-57.084 27.658 57.113-27.551M151.21 80.151l57.135-27.442m-57.128 27.442 57.158-27.334"/>
		<path stroke="#00ade3" d="m151.225 80.151 57.18-27.227m-57.173 27.227 57.201-27.12m-57.194 27.118 57.224-27.011"/>
	</g>
	<path fill="#ffd400" d="M71.294 60.47a8.275 8.275 0 1 0 8.284-8.063 8.18 8.18 0 0 0-8.284 8.062z"/>
</svg>
