<svg xmlns="http://www.w3.org/2000/svg" width="200" height="128">
    <path d="M99.409 66.933h-6.987a.2.2 0 0 1-.134-.053c-.026-.053-.053-.08-.026-.133l3.493-12.028a.151.151 0 0 1 .187-.106c.053.026.107.053.107.106l3.493 12.028a.116.116 0 0 1-.027.133c0 .027-.053.053-.106.053zm3.253 10.428h4.538l-6.907-23.842a4.549 4.549 0 0 0-8.721 0l-6.911 23.842H89.2l2-6.907a.147.147 0 0 1 .16-.107h9.14a.178.178 0 0 1 .16.107zM128.21 63.68h2.667a.172.172 0 0 1 .16.16v9.414a4.536 4.536 0 0 0 4.534 4.48 9.911 9.911 0 0 0 2.667-.373v-3.094c-.507.054-1.067.08-1.494.08a1.32 1.32 0 0 1-1.333-1.333v-9.147a.172.172 0 0 1 .16-.16h2.667v-3.441h-2.667a.172.172 0 0 1-.16-.16v-5.653h-4.4v5.653a.172.172 0 0 1-.16.16h-2.667zm25.229 13.681h4.373V65.547a5.68 5.68 0 0 0-5.712-5.627 9.458 9.458 0 0 0-5.067 1.573.168.168 0 0 1-.16 0 .146.146 0 0 1-.08-.133V50.613h-4.373v26.748h4.38V64.587a.148.148 0 0 1 .08-.134 9.562 9.562 0 0 1 4.054-1.12 2.616 2.616 0 0 1 1.786.72 2.4 2.4 0 0 1 .747 1.734l-.026 11.574zm-43.79-17.1V72.08a5.7 5.7 0 0 0 5.707 5.654 9.516 9.516 0 0 0 5.574-1.92.177.177 0 0 1 .16-.027.214.214 0 0 1 .107.107l.453 1.493h3.414V60.266h-4.374v12.775a.147.147 0 0 1-.08.133 9.543 9.543 0 0 1-4.054 1.12 2.481 2.481 0 0 1-2.506-2.48V60.266zm60.91 14.055c-1.333 0-2.4-.747-3.253-2.294A17.572 17.572 0 0 1 165.733 64a17.572 17.572 0 0 1 1.573-8.027c.853-1.547 1.893-2.294 3.253-2.294s2.4.747 3.254 2.294A17.572 17.572 0 0 1 175.386 64a17.572 17.572 0 0 1-1.573 8.027c-.853 1.547-1.893 2.294-3.254 2.294zm0-24.055a8.085 8.085 0 0 0-6.88 3.787 17.685 17.685 0 0 0-2.56 9.952 17.685 17.685 0 0 0 2.56 9.947 8.144 8.144 0 0 0 13.761 0A17.685 17.685 0 0 0 180 64a17.685 17.685 0 0 0-2.56-9.947 8.053 8.053 0 0 0-6.881-3.787z" fill="#333"/>
    <path d="M70.394 52.959L64.58 35.118H45.806l5.813 17.841zM45.806 35.118H27.058l-5.787 17.841h18.774zM21.271 52.959a25.807 25.807 0 0 0 9.387 28.882L36.445 64zm49.123 0L55.193 64l5.787 17.841a25.848 25.848 0 0 0 9.414-28.882zM30.632 81.841l15.174 11.041L60.98 81.841 45.806 70.8z" fill="#eb5424"/>
</svg>
