<svg width="2891" height="1935" xmlns="http://www.w3.org/2000/svg">
	<g fill-rule="nonzero" fill="none">
		<path d="M0 0h2891v1935H0z"/>
		<g fill="#215AE5">
			<path d="m856.45 1273.253 37.426-120.306 37.423 120.306h-74.85Zm52.775-169.654h-46.839l-94.456 289.987h51.086l23.148-74.408h103.423l23.145 74.408h51.087l-94.456-289.987h-16.138Z"/>
			<path d="M1327.242 1125.706h-45.928v45.067h-32.936v45.927h32.936v174.86h45.928V1216.7h32.936v-45.927h-32.936z"/>
			<path d="M1619.66 1391.558h45.924v-215.13h-45.925z"/>
			<path d="M1174.838 1298.524v6.45c0 26.908-21.892 48.8-48.801 48.8-26.91 0-48.802-21.892-48.802-48.8v-6.45l.248-127.907h-45.925l.248 127.907v6.45c0 51.959 42.271 94.23 94.23 94.23 51.957 0 94.229-42.271 94.229-94.23v-6.45l.25-127.907h-45.928l.25 127.907Z"/>
			<path d="M2024.49 1344.793c-27.985 0-50.671-25.534-50.671-69.637 0-41.994 22.686-69.636 50.672-69.636 27.988 0 51.123 27.502 51.123 69.636 0 45.45-23.135 69.637-51.123 69.637Zm97.049-30.781v-143.073h-45.925v23.633c-16.382-18.222-38.593-28.533-62.876-28.533-49.701 0-89.988 43.316-89.988 109.117 0 69.11 40.287 109.117 89.988 109.117 24.283 0 46.494-9.072 62.876-26.632v23.543h.04v12.701c0 26.637-21.675 48.311-48.314 48.311-26.64 0-48.31-21.674-48.31-48.31h-46.406c0 52.226 42.487 94.715 94.716 94.715 52.23 0 94.718-42.489 94.718-94.716v-79.873h-.52Z"/>
			<path d="M1642.622 1093.523c-16.613 0-30.082 13.47-30.082 30.084 0 16.613 13.47 30.082 30.082 30.082 16.615 0 30.085-13.469 30.085-30.082 0-16.615-13.47-30.084-30.085-30.084"/>
			<path d="M1822.753 1163.298h-10.38c-24.51 0-61.274 17.662-61.274 51.503v-34.126h-45.925v210.248h45.925v-131.651c0-28.962 23.48-52.44 52.442-52.44 25.968 0 47.019 21.05 47.019 47.018v137.708h50.814v-149.64c0-43.42-35.202-78.62-78.62-78.62"/>
			<path d="M1505.304 1163.298h-10.38c-22.274 0-50.829 10.835-58.55 35.837v-111.43h-45.927v302.232h45.927v-147.256c6.947-20.823 26.56-35.85 49.716-35.85 25.97 0 47.02 21.052 47.02 47.02v137.707h50.815v-149.64c0-43.42-35.202-78.62-78.621-78.62"/>
			<path d="M1448.213 925.325c-108.868-57.359-183.102-171.609-183.102-303.215 0-3.327.08-6.635.175-9.937l182.957-111.567 182.9 111.567c.091 3.302.175 6.61.175 9.937 0 131.606-74.237 245.856-183.105 303.215m229.307-338.708-229.277-139.852-229.337 139.852c-.119 4.142-.218 8.288-.218 12.457 0 164.975 93.054 308.188 229.525 380.093 136.471-71.905 229.525-215.118 229.525-380.093 0-4.17-.1-8.315-.218-12.457"/>
			<path d="m1489.166 566.656-40.592 75.381 46.803 85.34-46.824 73.793-46.822-73.793 46.803-85.34-39.738-75.799-101.819 67.064v7.93c0 102.724 57.78 191.848 142.75 236.413 84.973-44.942 142.753-134.066 142.753-236.413v-7.93l-103.314-66.646Z"/>
		</g>
	</g>
</svg>
