<svg xmlns="http://www.w3.org/2000/svg" viewBox="-4.84 -3.09 420.68 68.93">
	<defs>
		<style>
			
		</style>
	</defs>
	<g id="Layer_7" data-name="Layer 7">
		<path d="M128.647 52.99h-13.146l-2.24-12.028h-5.887l-2.266 12.027H91.962l9.922-44.796h16.823zm-16.454-18.245-1.91-13.37-1.807 13.37zm18.476-26.552h13.267v37.611q0 1.344 2.233 1.344 2.19 0 2.19-1.344V8.193h13.267v37.08q0 3.874-4.338 5.998a25.311 25.311 0 0 1-11.12 2.124 28.395 28.395 0 0 1-10.887-1.905q-4.612-1.906-4.612-6.155zm61.493 5.841h-7.413V52.99h-13.267V14.034h-7.413V8.193h28.093zm2.401 31.3V16.504q0-8.716 15.226-8.716 15.015 0 15.015 8.653v28.833q0 3.905-4.184 6.013a24.293 24.293 0 0 1-10.915 2.109q-15.143 0-15.142-8.06zm17.311.47v-30.52q0-1.342-2.148-1.343-2.233 0-2.232 1.343v30.52q0 1.344 2.232 1.344 2.148 0 2.148-1.344zm61.957 7.185h-11.834V27.842l-6.908 25.147h-9.14l-7.918-25.147V52.99h-10.362V8.193h17.058l6.066 23.242 5.264-23.242h17.774zm38.793 0h-13.147l-2.239-12.027h-5.889l-2.266 12.027h-13.146l9.923-44.796h16.823zm-16.455-18.244-1.91-13.37-1.808 13.37zm46.231-20.71h-7.411v38.954H321.72V14.034h-7.413V8.193H342.4zm19.755 23.023h-17.142v-5.03h17.142zm15.247 15.931h-13.268V8.193h13.268zm30.325-38.955h-7.413V52.99h-13.267V14.034h-7.412V8.193h28.092z"/>
		<path fill="none" stroke="#000" stroke-miterlimit="10" stroke-width=".25" d="M128.647 52.99h-13.146l-2.24-12.028h-5.887l-2.266 12.027H91.962l9.922-44.796h16.823zm-16.454-18.245-1.91-13.37-1.807 13.37zm18.476-26.552h13.267v37.611q0 1.344 2.233 1.344 2.19 0 2.19-1.344V8.193h13.267v37.08q0 3.874-4.338 5.998a25.311 25.311 0 0 1-11.12 2.124 28.395 28.395 0 0 1-10.887-1.905q-4.612-1.906-4.612-6.155zm61.493 5.841h-7.413V52.99h-13.267V14.034h-7.413V8.193h28.093zm2.401 31.3V16.504q0-8.716 15.226-8.716 15.015 0 15.015 8.653v28.833q0 3.905-4.184 6.013a24.293 24.293 0 0 1-10.915 2.109q-15.143 0-15.142-8.06zm17.311.47v-30.52q0-1.342-2.148-1.343-2.233 0-2.232 1.343v30.52q0 1.344 2.232 1.344 2.148 0 2.148-1.344zm61.957 7.185h-11.834V27.842l-6.908 25.147h-9.14l-7.918-25.147V52.99h-10.362V8.193h17.058l6.066 23.242 5.264-23.242h17.774zm38.793 0h-13.147l-2.239-12.027h-5.889l-2.266 12.027h-13.146l9.923-44.796h16.823zm-16.455-18.244-1.91-13.37-1.808 13.37zm46.231-20.71h-7.411v38.954H321.72V14.034h-7.413V8.193H342.4zm19.755 23.023h-17.142v-5.03h17.142zm15.247 15.931h-13.268V8.193h13.268zm30.325-38.955h-7.413V52.99h-13.267V14.034h-7.412V8.193h28.092z"/>
	</g>
	<path fill="#7fc34b" d="M44.18 5.127c-22.583 0-40.89 12.042-40.89 26.89a19.357 19.357 0 0 0 3.52 10.92 15.906 15.906 0 0 1-.865-5.142c0-12.603 14.97-22.81 33.442-22.81S72.83 25.192 72.83 37.795c0 8.736-7.189 16.32-17.745 20.141 17.29-3.139 30-13.558 30-25.92-.015-14.847-18.321-26.89-40.904-26.89z" id="Layer_6" data-name="Layer 6"/>
	<path fill="#4e9bd4" d="M71.191 37.917c0-11.481-14.287-20.794-31.895-20.794S7.401 26.42 7.401 37.917a14.948 14.948 0 0 0 2.745 8.447 12.141 12.141 0 0 1-.667-3.973c0-9.737 11.678-17.639 26.086-17.639s26.087 7.902 26.087 17.639c0 6.749-5.612 12.603-13.847 15.576 13.483-2.442 23.386-10.495 23.386-20.05z" id="Layer_5" data-name="Layer 5"/>
	<path fill="#204c6d" d="M55.297 44.378a9.53 9.53 0 0 0-1.85-5.506 7.907 7.907 0 0 1 .454 2.594c0 6.354-7.871 11.511-17.593 11.511-9.706 0-17.593-5.157-17.593-11.511 0-4.414 3.777-8.236 9.343-10.177-9.1 1.577-15.789 6.84-15.789 13.089 0 7.492 9.631 13.574 21.506 13.574s21.522-6.082 21.522-13.574z" id="Layer_4" data-name="Layer 4"/>
</svg>
