<svg width="207" height="27" fill="none" xmlns="http://www.w3.org/2000/svg">
	<g clip-path="url(#a)">
		<path d="m76.475 19.32-3.333-.017-2.505-3.151H63.58l1.568-1.947h3.943l-2.592-3.25-6.71 8.348h-3.332l8.081-10.18c.204-.264.487-.506.85-.726.435-.253.827-.38 1.176-.38.378 0 .77.122 1.176.364.349.209.632.456.85.742l7.885 10.197ZM99.643 8.05l-8.495 10.346c-.596.737-1.133 1.105-1.612 1.105-.465 0-.995-.368-1.59-1.105L79.625 8.051h3.333l6.643 8.365 6.71-8.365h3.332Zm22.041 6.534h-8.495v-1.963h8.495v1.963Zm.675 4.736h-12.851V8.05h12.851v1.964H112.1v7.343h10.259v1.963Zm27.395-3.482c0 1.068-.501 1.926-1.503 2.575-.958.604-2.156.907-3.594.907h-11.348v-1.963h11.348c.711 0 1.329-.122 1.852-.363.595-.297.893-.699.893-1.205 0-.506-.305-.896-.915-1.171-.509-.232-1.119-.347-1.83-.347h-7.014c-1.292 0-2.374-.27-3.245-.809-.93-.582-1.394-1.352-1.394-2.31 0-.945.464-1.71 1.394-2.293.871-.539 1.953-.808 3.245-.808h11.218v1.963h-11.218c-.494 0-.915.104-1.263.314-.349.209-.523.489-.523.841 0 .363.174.643.523.841.348.199.769.297 1.263.297h7.014c1.438 0 2.636.314 3.594.941 1.002.66 1.503 1.524 1.503 2.59Zm26.007 3.482h-2.592v-4.686h-8.734v-1.963h8.734V8.05h2.592V19.32Zm-12.502 0h-2.593V8.05h2.593v11.27Zm42.833 0-3.333-.017-2.505-3.151h-7.057l1.568-1.947h3.943l-2.593-3.25-6.708 8.348h-3.333l8.081-10.18c.203-.264.486-.506.85-.726.435-.253.827-.38 1.176-.38.377 0 .769.122 1.176.364.349.209.632.456.85.742l7.885 10.197Z" fill="url(#b)"/>
	</g>
	<path fill-rule="evenodd" clip-rule="evenodd" d="M23.656.29a.999.999 0 0 0-1.604.272l-5.157 10.314L1.56.536A1 1 0 0 0 .072 1.738l9.512 23.78a1 1 0 0 0 .928.63H35.39a1 1 0 0 0 .929-.63l9.512-23.78a1 1 0 0 0-1.488-1.2L29.007 10.876 23.85.562a.998.998 0 0 0-.194-.271Zm-.705 2.946-4.384 8.77 4.384 2.97 4.385-2.97-4.385-8.77Zm0 14.18-9.34 6.73H32.291l-9.34-6.73Zm-1.745-1.208-3.563-2.413-4.252 8.044 7.815-5.63ZM3.136 4.012l7.502 18.757 5.339-10.1L3.135 4.012Zm21.56 12.196 3.563-2.413 4.252 8.044-7.814-5.63ZM42.768 4.012l-7.503 18.757-5.338-10.1 12.841-8.657Z" fill="url(#c)"/>
	<defs>
		<linearGradient id="b" x1="130.956" y1="5.82" x2="130.956" y2="23.07" gradientUnits="userSpaceOnUse">
			<stop stop-color="#00B9FF" offset="0%"/>
			<stop offset="1" stop-color="#0068B5"/>
		</linearGradient>
		<linearGradient id="c" x1="22.854" y1="-5.003" x2="22.854" y2="34.271" gradientUnits="userSpaceOnUse">
			<stop stop-color="#00B9FF" offset="0%"/>
			<stop offset="1" stop-color="#0068B5"/>
		</linearGradient>
		<clipPath id="a">
			<path fill="#fff" transform="translate(56.451 7.695)" d="M0 0h150v12H0z"/>
		</clipPath>
	</defs>
</svg>
