<svg xmlns="http://www.w3.org/2000/svg" width="200" height="128">
    <path fill="#f14f23" d="M135.43 19a2.41 2.41 0 00-2.09 1.61l-21.52 50.46-21.44-50.38A2.36 2.36 0 0088.21 19a2.09 2.09 0 00-2.09 2 1.58 1.58 0 00.16.88l22.89 52.38a2.58 2.58 0 002.49 1.85h.16a2.55 2.55 0 002.49-1.85l23-52.54a1.44 1.44 0 00.16-.8 2 2 0 00-2.04-1.92zM48.74 20.85A2.58 2.58 0 0046.25 19h-.16a2.54 2.54 0 00-2.48 1.85l-23 52.55a1.39 1.39 0 00-.16.79 2 2 0 002 1.93 2.36 2.36 0 002.09-1.61l21.55-50.45 21.44 50.37a2.41 2.41 0 002.18 1.69 2.1 2.1 0 002.09-2 1.71 1.71 0 00-.16-.9zM167.83 19a2.13 2.13 0 00-2.09 2.09v52.7a2.09 2.09 0 104.18 0v-52.7a2.13 2.13 0 00-2.09-2.09z"/>
    <path fill="#2b292b" d="M32.17 94.39a.48.48 0 00-.5.5v12L22 94.71a.66.66 0 00-.53-.32h-.16a.53.53 0 00-.53.53v13.39a.49.49 0 00.51.5.48.48 0 00.5-.5V96l9.82 12.47a.68.68 0 00.53.34h.08a.44.44 0 00.42-.45V94.89a.48.48 0 00-.47-.5zM49.14 98.12a5.13 5.13 0 00-5 5.43A5.19 5.19 0 0049.3 109a5.47 5.47 0 004.05-1.64.61.61 0 00.16-.35.5.5 0 00-.51-.47.44.44 0 00-.32.13 4.55 4.55 0 01-3.36 1.43 4.12 4.12 0 01-4.07-4.1h8.18a.52.52 0 00.5-.48c0-2.99-1.88-5.4-4.79-5.4zM45.27 103c.19-2.3 1.78-4.05 3.84-4.05 2.38 0 3.6 1.94 3.73 4.05zM69.84 99.23a.46.46 0 100-.92h-3.26v-2.92a.5.5 0 00-1 0v2.92h-1.12a.47.47 0 00-.47.45.49.49 0 00.47.47h1.12v6.83a2.62 2.62 0 002.93 2.83 4.64 4.64 0 001.49-.26.45.45 0 00.31-.42.46.46 0 00-.45-.45 4.34 4.34 0 01-1.19.21 1.83 1.83 0 01-2.09-2v-6.74zM95.36 98.28a.49.49 0 00-.51.4l-3 8.84-3-8.84a.49.49 0 00-.5-.4.51.51 0 00-.5.4l-3 8.84-3-8.82a.54.54 0 00-.53-.42.51.51 0 00-.53.48 1.77 1.77 0 00.08.31l3.39 9.37a.6.6 0 00.56.45c.27 0 .45-.15.56-.47l3-8.53 3 8.53a.56.56 0 00.55.47.58.58 0 00.55-.45l3.42-9.34a.77.77 0 00.08-.34.48.48 0 00-.62-.48zM111.29 98.07a5.39 5.39 0 00-5.37 5.45 5.29 5.29 0 005.32 5.4 5.39 5.39 0 005.37-5.45 5.31 5.31 0 00-5.32-5.4zm4.24 5.5a4.3 4.3 0 01-4.27 4.48 4.38 4.38 0 01-4.28-4.53 4.31 4.31 0 014.26-4.52 4.36 4.36 0 014.29 4.5zM133.05 98.17a5 5 0 00-4.18 3.13v-2.54a.49.49 0 00-.51-.51.48.48 0 00-.47.51v9.58a.49.49 0 101 0v-3.84c0-3.36 2-5 4.18-5.21a.56.56 0 00.53-.56.52.52 0 00-.55-.56zM148.46 103l3.81-3.89a.42.42 0 00.16-.34.48.48 0 00-.48-.48.42.42 0 00-.34.14l-6.38 6.57V94.26a.51.51 0 00-.51-.51.48.48 0 00-.47.51v14.08a.48.48 0 00.5.5.47.47 0 00.48-.5v-2.12l2.54-2.54 4 4.95a.48.48 0 00.43.24.46.46 0 00.47-.48.51.51 0 00-.13-.37zM167.36 102.91c-1.51-.45-2.92-.87-2.92-2 0-1.06 1-1.83 2.39-1.83a5.76 5.76 0 012.88.85.52.52 0 00.8-.4.55.55 0 00-.27-.45 7.16 7.16 0 00-3.36-.93c-2 0-3.44 1.22-3.44 2.89 0 1.86 1.88 2.38 3.57 2.86 1.46.42 2.75.87 2.75 2.09 0 1.22-1.11 2-2.51 2a5.92 5.92 0 01-3.47-1.19.58.58 0 00-.32-.1.52.52 0 00-.47.5.58.58 0 00.18.4 6.79 6.79 0 004 1.29c2 0 3.6-1.19 3.6-3 0-1.89-1.77-2.5-3.41-2.98zM176.7 94.63a2.61 2.61 0 102.62 2.62 2.62 2.62 0 00-2.62-2.62zm0 4.6a2 2 0 111.91-2 1.87 1.87 0 01-1.91 2z"/>
    <path fill="#2b292b" d="M178 96.74c0-.66-.34-.87-1.08-.87h-1.35v2.81h.58v-1.19h.48l.63 1.19h.74l-.71-1.17c.47-.02.71-.24.71-.77zm-1 .32h-.77v-.77h.64c.26 0 .66 0 .66.35s-.22.42-.53.42z"/>
</svg>
