<svg xmlns="http://www.w3.org/2000/svg" width="200" height="128">
    <path d="M40.306 64.033a10.068 10.068 0 0 0 .605 1.361.824.824 0 0 1 .132.434.75.75 0 0 1-.359.567l-1.191.794a.908.908 0 0 1-.491.17.866.866 0 0 1-.567-.265 5.763 5.763 0 0 1-.68-.888c-.189-.321-.378-.68-.586-1.115a6.98 6.98 0 0 1-5.556 2.609 5.177 5.177 0 0 1-3.779-1.36 5.331 5.331 0 0 1 .321-7.522 6.878 6.878 0 0 1 4.63-1.474 14.885 14.885 0 0 1 2 .152c.7.094 1.417.245 2.173.415v-1.38a4.188 4.188 0 0 0-.888-3.024 4.354 4.354 0 0 0-3.08-.869 8.6 8.6 0 0 0-2.041.246 15.117 15.117 0 0 0-2.041.642 5.346 5.346 0 0 1-.662.246 1.147 1.147 0 0 1-.3.057c-.264 0-.4-.189-.4-.586v-.926a1.193 1.193 0 0 1 .133-.662 1.406 1.406 0 0 1 .529-.4 10.838 10.838 0 0 1 2.381-.851 11.483 11.483 0 0 1 2.948-.359c2.248 0 3.893.51 4.951 1.531a6.254 6.254 0 0 1 1.568 4.649s-.026 5.533 0 6.122a7.451 7.451 0 0 0 .25 1.686zm-7.88 1.191a6.145 6.145 0 0 0 1.946-.34 4.213 4.213 0 0 0 1.8-1.21 2.99 2.99 0 0 0 .643-1.209A6.809 6.809 0 0 0 37 60.821v-.794a15.705 15.705 0 0 0-1.739-.321 14.147 14.147 0 0 0-1.776-.114 4.36 4.36 0 0 0-2.816.756 2.7 2.7 0 0 0 1.758 4.876zm16.8 2.041a1.171 1.171 0 0 0 .756-.189 1.476 1.476 0 0 0 .359-.756l2.911-12.17 2.928 12.189a1.326 1.326 0 0 0 .359.755 1.131 1.131 0 0 0 .756.189h1.625a1.2 1.2 0 0 0 .718-.189 1.453 1.453 0 0 0 .4-.737l4.551-14.607a2.736 2.736 0 0 0 .132-.473 1.858 1.858 0 0 0 .038-.3.42.42 0 0 0-.472-.472h-1.758a1.228 1.228 0 0 0-.737.189 1.627 1.627 0 0 0-.378.737L58.145 64.09l-2.986-12.661a1.27 1.27 0 0 0-.359-.737 1.133 1.133 0 0 0-.756-.189h-1.512a1.292 1.292 0 0 0-.755.189 1.322 1.322 0 0 0-.36.737l-2.947 12.51-3.17-12.51a1.551 1.551 0 0 0-.378-.737 1.044 1.044 0 0 0-.737-.189h-1.857a.415.415 0 0 0-.454.472 3.335 3.335 0 0 0 .17.756l4.441 14.608a1.55 1.55 0 0 0 .4.737 1.056 1.056 0 0 0 .718.189zm25.361.113a6.108 6.108 0 0 0 2.1-1.058 5.1 5.1 0 0 0 1.38-1.663 4.864 4.864 0 0 0 .491-2.192 4.276 4.276 0 0 0-.869-2.646 5.752 5.752 0 0 0-2.929-1.814l-2.684-.85a5.648 5.648 0 0 1-2.078-1.04 1.784 1.784 0 0 1-.567-1.342 1.824 1.824 0 0 1 .888-1.681 4.877 4.877 0 0 1 2.513-.53 8.648 8.648 0 0 1 3.628.737 1.956 1.956 0 0 0 .718.227c.284 0 .435-.208.435-.6v-.889a1.02 1.02 0 0 0-.17-.623 1.626 1.626 0 0 0-.567-.473 4.17 4.17 0 0 0-.794-.34c-.34-.113-.7-.208-1.077-.3-.4-.076-.793-.151-1.228-.208a9.434 9.434 0 0 0-1.266-.076 8.226 8.226 0 0 0-2.381.322 6 6 0 0 0-1.966.982 4.867 4.867 0 0 0-1.36 1.55 4.207 4.207 0 0 0-.51 2.1 4.508 4.508 0 0 0 .944 2.741 5.773 5.773 0 0 0 3.024 1.927l2.74.85a4.751 4.751 0 0 1 1.909.983 1.841 1.841 0 0 1 .51 1.323 2.034 2.034 0 0 1-.983 1.8 5.094 5.094 0 0 1-2.759.624 11.347 11.347 0 0 1-2.248-.227 10.289 10.289 0 0 1-2.079-.661c-.189-.076-.359-.152-.473-.189a1.059 1.059 0 0 0-.34-.057c-.283 0-.434.189-.434.586v.963a1.327 1.327 0 0 0 .113.53 1.367 1.367 0 0 0 .586.529 8.615 8.615 0 0 0 2.173.756 12.55 12.55 0 0 0 2.91.34 8.979 8.979 0 0 0 2.699-.411z" fill="#252f3e"/>
    <path d="M75.455 76.959c-6.217 4.592-15.25 7.03-23.017 7.03a41.636 41.636 0 0 1-28.1-10.715c-.586-.529-.057-1.247.642-.832a56.67 56.67 0 0 0 28.12 7.465 56.113 56.113 0 0 0 21.449-4.384c1.038-.473 1.926.677.906 1.436zM76.4 81.1c-.227.567.264.794.774.359 3.326-2.8 4.2-8.636 3.515-9.486-.68-.831-6.519-1.55-10.072.945-.548.4-.453.926.151.85 2.022-.245 6.482-.775 7.276.246.793.998-.888 5.213-1.644 7.086z" fill="#f90"/>
    <path d="M93.265 93.574h-.631V34.426h.631zM108.476 63.724v6.768h-1.369V53.86h5.737a4.936 4.936 0 0 1 3.635 1.344 5.425 5.425 0 0 1 0 7.176 4.936 4.936 0 0 1-3.635 1.344zm0-1.272h4.324q3.553 0 3.553-3.648 0-3.674-3.553-3.672h-4.319zm12.383 8.04V58.42h1.2l.144 1.752a6 6 0 0 1 1.788-1.428 4.523 4.523 0 0 1 1.98-.42 8.118 8.118 0 0 1 .984.072v1.224q-.624-.048-1.128-.048a4.491 4.491 0 0 0-1.956.407 5.2 5.2 0 0 0-1.643 1.321v9.192zm9.048-14.664a1 1 0 0 1-.756-.288 1.207 1.207 0 0 1 0-1.536 1.136 1.136 0 0 1 1.512 0 1.207 1.207 0 0 1 0 1.536 1 1 0 0 1-.756.288zm-.7 14.664V58.42h1.368v12.072zm13.248-.408a7.245 7.245 0 0 1-3 .672 5.4 5.4 0 0 1-4.224-1.6 6.791 6.791 0 0 1-1.44-4.692 6.77 6.77 0 0 1 1.464-4.692 5.431 5.431 0 0 1 4.248-1.62 6.944 6.944 0 0 1 2.808.576v1.132a8.74 8.74 0 0 0-2.736-.432 4.178 4.178 0 0 0-3.3 1.164 5.594 5.594 0 0 0-1.02 3.732v.288a5.519 5.519 0 0 0 1.032 3.684 4.071 4.071 0 0 0 3.24 1.188 9.468 9.468 0 0 0 2.928-.528zm3.576-14.256a1 1 0 0 1-.756-.288 1.207 1.207 0 0 1 0-1.536 1.136 1.136 0 0 1 1.512 0 1.207 1.207 0 0 1 0 1.536 1 1 0 0 1-.752.288zm-.7 14.664V58.42h1.368v12.072zm13.776 0v-8.208a3.482 3.482 0 0 0-.6-2.268 2.384 2.384 0 0 0-1.92-.708 8.281 8.281 0 0 0-4.68 1.536v9.648h-1.368V58.42h1.2l.144 1.392a9.872 9.872 0 0 1 2.472-1.3 7.571 7.571 0 0 1 2.52-.456 3.624 3.624 0 0 1 2.676.924 3.7 3.7 0 0 1 .924 2.724v8.784zm13.56-1.776a7.22 7.22 0 0 1-1.968 1.176 5.559 5.559 0 0 1-2.064.432 4.6 4.6 0 0 1-3.7-1.644 6.515 6.515 0 0 1-1.392-4.356 7.008 7.008 0 0 1 1.38-4.584 4.6 4.6 0 0 1 3.755-1.68 5.768 5.768 0 0 1 4.009 1.608l.144-1.248h1.2v11.52a5.929 5.929 0 0 1-1.439 4.308 5.575 5.575 0 0 1-4.176 1.476 7.9 7.9 0 0 1-3.912-.912v-1.128a10.5 10.5 0 0 0 3.839.792 4.327 4.327 0 0 0 3.277-1.1 4.932 4.932 0 0 0 1.044-3.48zm-3.72.36a6.025 6.025 0 0 0 3.72-1.536v-6.672a7.415 7.415 0 0 0-1.9-1.188 5.106 5.106 0 0 0-1.945-.372 3.441 3.441 0 0 0-2.891 1.248 5.934 5.934 0 0 0-.972 3.7 5.512 5.512 0 0 0 1.02 3.588 3.621 3.621 0 0 0 2.976 1.232z" fill="#252f3e"/>
</svg>
