<svg xmlns="http://www.w3.org/2000/svg" viewBox="18.87 30.12 202.02 185.27">
	<path fill="#232F3E" d="m37.83 206-2.184-5.824h-8.96L24.502 206h-1.624l7.448-19.404h1.764L39.538 206H37.83zm-10.612-7.196h7.924l-3.976-10.472-3.948 10.472zM55.421 206l-4.256-16.604L46.937 206h-1.96l-5.88-19.404h1.792l5.096 17.528 4.228-16.884h2.016l4.2 16.94 5.208-17.584h1.736L57.381 206h-1.96zm14.427-9.8c-1.438-.56-2.493-1.223-3.165-1.988-.672-.784-1.008-1.745-1.008-2.884 0-1.549.551-2.8 1.652-3.752 1.12-.971 2.586-1.456 4.396-1.456.822 0 1.68.103 2.576.308.915.187 1.774.457 2.576.812v1.428c-1.903-.672-3.593-1.008-5.067-1.008-1.438 0-2.54.317-3.305.952-.765.616-1.147 1.503-1.147 2.66 0 .653.112 1.185.336 1.596.242.392.625.756 1.148 1.092.54.317 1.306.663 2.295 1.036l2.997 1.148c1.343.523 2.323 1.167 2.94 1.932.615.747.923 1.689.923 2.828 0 1.661-.615 3.005-1.847 4.032-1.214 1.027-2.82 1.54-4.816 1.54-2.072 0-3.92-.392-5.544-1.176v-1.428c1.96.709 3.76 1.064 5.404 1.064 1.549 0 2.78-.364 3.696-1.092.933-.728 1.4-1.717 1.4-2.968 0-.765-.252-1.419-.756-1.96-.504-.541-1.316-1.027-2.436-1.456l-3.248-1.26zm32.686 9.268c-1.437.56-3.015.84-4.732.84-2.987 0-5.245-.84-6.776-2.52-1.53-1.68-2.296-4.153-2.296-7.42 0-3.248.793-5.721 2.38-7.42 1.587-1.717 3.864-2.576 6.832-2.576 1.605 0 3.043.252 4.312.756v1.456c-1.586-.411-2.959-.616-4.116-.616-2.557 0-4.47.672-5.74 2.016-1.25 1.325-1.876 3.332-1.876 6.02v.7c0 5.339 2.473 8.008 7.42 8.008 1.27 0 2.8-.233 4.592-.7v1.456zm6.991.42a5.46 5.46 0 0 1-1.428.196c-.746 0-1.334-.215-1.764-.644-.41-.448-.616-1.064-.616-1.848V185.28h1.596v18.284c0 .411.075.7.224.868.168.168.458.252.868.252.299 0 .672-.028 1.12-.084v1.288zm8.96.532c-2.053 0-3.649-.653-4.788-1.96-1.138-1.325-1.708-3.164-1.708-5.516s.57-4.181 1.708-5.488c1.139-1.307 2.735-1.96 4.788-1.96 2.054 0 3.65.653 4.788 1.96 1.139 1.307 1.708 3.136 1.708 5.488 0 2.352-.569 4.191-1.708 5.516-1.138 1.307-2.734 1.96-4.788 1.96zm0-1.456c3.23 0 4.844-2.007 4.844-6.02 0-3.995-1.614-5.992-4.844-5.992-3.229 0-4.844 1.997-4.844 5.992 0 4.013 1.615 6.02 4.844 6.02zm19.89 1.036-.168-1.54c-1.773 1.307-3.612 1.96-5.516 1.96-1.344 0-2.38-.364-3.108-1.092-.709-.728-1.064-1.792-1.064-3.192v-10.22h1.596v9.548c0 1.232.234 2.128.7 2.688.467.541 1.204.812 2.212.812.915 0 1.774-.14 2.576-.42.803-.28 1.662-.737 2.576-1.372v-11.256h1.596V206h-1.4zm15.952 0-.168-1.568a8.294 8.294 0 0 1-2.324 1.372c-.84.336-1.652.504-2.436.504-1.848 0-3.313-.644-4.396-1.932-1.064-1.307-1.596-3.089-1.596-5.348 0-2.315.542-4.144 1.624-5.488 1.083-1.363 2.558-2.044 4.424-2.044 1.736 0 3.304.616 4.704 1.848v-8.064h1.596V206h-1.428zm-4.564-1.148c1.4 0 2.865-.597 4.396-1.792v-8.288c-.784-.635-1.54-1.092-2.268-1.372a5.776 5.776 0 0 0-2.268-.448c-1.493 0-2.632.504-3.416 1.512-.765 1.008-1.148 2.501-1.148 4.48 0 3.939 1.568 5.908 4.704 5.908zm34.44 1.148v-16.912l-6.664 11.732h-1.568l-6.664-11.648V206h-1.568v-19.404h1.96l7.112 12.488 7.056-12.488h1.904V206h-1.568zm14.709 0-.14-1.624c-1.605 1.288-3.285 1.932-5.04 1.932-1.288 0-2.315-.364-3.08-1.092-.747-.747-1.12-1.736-1.12-2.968 0-1.363.467-2.436 1.4-3.22.933-.784 2.203-1.176 3.808-1.176 1.251 0 2.585.215 4.004.644v-2.352c0-1.139-.271-1.951-.812-2.436-.541-.504-1.437-.756-2.688-.756-1.493 0-3.089.299-4.788.896v-1.316a11.807 11.807 0 0 1 2.408-.756 12.86 12.86 0 0 1 2.632-.28c1.643 0 2.856.345 3.64 1.036.803.691 1.204 1.736 1.204 3.136V206h-1.428zm-4.956-1.148c.709 0 1.475-.14 2.296-.42a13.413 13.413 0 0 0 2.492-1.232v-3.5a14.008 14.008 0 0 0-3.64-.504c-2.613 0-3.92 1.008-3.92 3.024 0 .859.233 1.512.7 1.96.467.448 1.157.672 2.072.672zm10.691 6.916v-19.852h1.4l.14 1.568c.859-.691 1.689-1.195 2.492-1.512a6.942 6.942 0 0 1 2.52-.476c1.811 0 3.239.653 4.284 1.96 1.045 1.288 1.568 3.061 1.568 5.32 0 2.296-.551 4.125-1.652 5.488-1.101 1.363-2.585 2.044-4.452 2.044-1.717 0-3.285-.635-4.704-1.904v7.364h-1.596zm6.244-18.816c-1.549 0-3.099.597-4.648 1.792v8.204c.765.653 1.512 1.139 2.24 1.456a5.983 5.983 0 0 0 2.296.448c1.531 0 2.679-.495 3.444-1.484.784-1.008 1.176-2.501 1.176-4.48 0-3.957-1.503-5.936-4.508-5.936z"/>
	<path fill="url(#a)" d="M180 34H60v120h120V34z"/>
	<path fill="#fff" fill-rule="evenodd" d="M116.893 107.324h7.612v-7.588h-7.612v7.588zm9.112-10.623h-10.612c-.829 0-1.499.68-1.499 1.518v10.623c0 .838.67 1.517 1.499 1.517h10.612c.829 0 1.499-.679 1.499-1.517V98.219c0-.838-.67-1.518-1.499-1.518zm20.889 22.764-11.891-.012v-16.681h23.705c.186.931.292 1.938.292 3.035 0 11.867-11.031 13.526-12.106 13.658zm-54.18-.451 13.793-12.793v13.201l-11.933-.013a16.346 16.346 0 0 1-1.86-.395zm-11.711-13.711.007-.41c0-6.812 3.094-11.098 9.191-12.744h16.306v2.346l-21.98 19.461c-2.032-2.329-3.33-5.195-3.52-8.246-.012-.184-.007-.283-.004-.407zm22.234-35.224a19.037 19.037 0 0 1 3.27-1.058v10.987H93.442c2.101-4.348 5.704-8.176 9.795-9.93zm13.769 44.833h7.499v4.529l-7.499-.008v-4.521zm33.487-24.926-.983 2.868c2.516.885 6.234 2.835 8.184 6.883h-24.19c-.828 0-1.5.679-1.5 1.517v18.196l-4.5-.006v-6.049c0-.838-.67-1.518-1.499-1.518h-10.499c-.828 0-1.5.68-1.5 1.518v6.035l-4.499-.005v-16.653a1.52 1.52 0 0 0-.896-1.39 1.49 1.49 0 0 0-1.618.271l-17.44 16.176a16.654 16.654 0 0 1-2.822-1.791l22.263-19.713c.327-.287.513-.703.513-1.141V90.63c0-.838-.671-1.518-1.5-1.518H91.479c.004-.118.004-.23.009-.349.01-.332.02-.658.02-.959 0-1.563.277-3.173.754-4.762h15.745c.829 0 1.5-.68 1.5-1.517V68.595a17.979 17.979 0 0 1 4.499.304v24.767a1.51 1.51 0 0 0 1.5 1.518h10.499c.829 0 1.499-.68 1.499-1.518v-9.105h-2.999v7.588h-7.499V69.748c2.836 1.064 5.536 2.822 7.937 5.261l2.123-2.143c-7.07-7.176-16.415-9.261-24.998-5.583-7.603 3.258-13.559 12.273-13.559 20.522 0 .267-.01.559-.02.856-.008.276-.019.559-.022.838-4.363 1.442-10.456 5.268-10.456 15.394l-.006.316c-.006.214-.01.382.009.692.508 8.202 7.494 15.308 16.25 16.529.068.009.137.014.204.014l20.874.023c.056.006.105.033.164.033h10.499c.039 0 .07-.02.109-.023l20.864.023h.001c.051 0 .101-.003.152-.008.148-.015 14.869-1.707 14.869-16.685 0-10.63-8.046-14.605-11.507-15.82zm-13.99-11.495c0-1.504 1.515-3.036 3-3.036s2.999 1.532 2.999 3.036-1.514 3.035-2.999 3.035-3-1.531-3-3.035zm8.999 0c0-3.177-2.859-6.07-5.999-6.07-3.141 0-5.999 2.893-5.999 6.07 0 3.176 2.858 6.07 5.999 6.07 3.14 0 5.999-2.894 5.999-6.07zm-5.999-7.588c4.276 0 7.499 3.261 7.499 7.588 0 3.314-4.648 11.136-7.499 15.505-2.85-4.368-7.499-12.188-7.499-15.505 0-4.327 3.224-7.588 7.499-7.588zm0 27.316a1.5 1.5 0 0 0 1.23-.648c.948-1.374 9.269-13.578 9.269-19.08 0-6.057-4.515-10.623-10.499-10.623-5.984 0-10.499 4.566-10.499 10.623 0 5.502 8.321 17.707 9.271 19.08.278.405.739.648 1.228.648z" clip-rule="evenodd"/>
	<defs>
		<linearGradient id="a" x1="60" x2="180" y1="154" y2="34" gradientUnits="userSpaceOnUse">
			<stop stop-color="#4D27A8" offset="0%"/>
			<stop offset="1" stop-color="#A166FF"/>
		</linearGradient>
	</defs>
</svg>
