<svg version="1.1" id="Layer_1" xmlns="http://www.w3.org/2000/svg" x="0" y="0" viewBox="0 0 500 136.5" style="enable-background:new 0 0 500 136.5" xml:space="preserve">
	<style>
		.st0{fill:#222}.st1{fill:#4b612c}.st2{fill:#759c3e}.st3{fill:#3c4929}.st4{fill:#b7ca9d}
	</style>
	<switch>
		<g>
			<path class="st0" d="m170.8 51.4-5.3-13.6h-17.1l-5.2 13.6h-5L155 8.6h4.2L176 51.4h-5.2zm-6.8-18-5-13.2c-.6-1.7-1.3-3.7-2-6.2-.4 1.9-1 3.9-1.8 6.2l-5 13.2H164z"/>
			<path class="st0" d="M219 51.4h-4.9l-8.6-28.5c-.4-1.3-.9-2.9-1.4-4.8-.5-1.9-.8-3.1-.8-3.5-.4 2.6-1.1 5.4-2 8.4L193 51.4h-4.9L176.8 8.8h5.2l6.7 26.3c.9 3.7 1.6 7 2 10 .5-3.6 1.3-7 2.3-10.4l7.6-25.9h5.2l8 26.2c.9 3 1.7 6.4 2.4 10.2.4-2.8 1.1-6.1 2.1-10.1L225 8.8h5.2L219 51.4z"/>
			<path class="st0" d="M261.2 40c0 3.8-1.4 6.7-4.1 8.8-2.7 2.1-6.4 3.1-11.1 3.1-5.1 0-8.9-.7-11.7-2v-4.8c1.7.7 3.7 1.3 5.7 1.7 2.1.4 4.1.6 6.1.6 3.3 0 5.8-.6 7.5-1.9 1.7-1.3 2.5-3 2.5-5.2 0-1.5-.3-2.7-.9-3.6-.6-.9-1.6-1.8-3-2.6s-3.5-1.7-6.3-2.7c-4-1.4-6.8-3.1-8.5-5-1.7-1.9-2.6-4.5-2.6-7.6 0-3.3 1.2-5.9 3.7-7.8 2.5-1.9 5.7-2.9 9.8-2.9 4.2 0 8.1.8 11.7 2.3l-1.5 4.3c-3.5-1.5-6.9-2.2-10.3-2.2-2.6 0-4.7.6-6.2 1.7s-2.2 2.7-2.2 4.7c0 1.5.3 2.7.8 3.6.5.9 1.5 1.8 2.8 2.6 1.3.8 3.3 1.7 5.9 2.6 4.5 1.6 7.5 3.3 9.2 5.1 1.8 2 2.7 4.3 2.7 7.2z"/>
			<path class="st1" d="m0 73.4 57.5 5.4V52.1L0 57.5z"/>
			<path class="st1" d="m0 42.8 57.5-16.3V0L0 26.5z"/>
			<path class="st2" d="m115 73.4-57.5 5.4V52.1l57.5 5.4z"/>
			<path class="st2" d="M88 14.1 57.5 0v26.5L88 35.2z"/>
			<path class="st2" d="M99.2 19.2v19.1l15.8 4.5V26.5z"/>
			<path class="st3" d="m0 42.8 28.8 3.4 59.2-11-30.5-8.7z"/>
			<path class="st3" d="m99.2 38.3-59.5 8.5 17.8 2.1 57.5-6.1z"/>
			<path class="st1" d="M99.2 19.2v19.1l-59.5 8.5v-2.6l48.3-9V22.7z"/>
			<path class="st2" d="m115 88.1-57.5 16.3v26.5l57.5-26.5z"/>
			<path class="st1" d="m27 116.8 30.5 14.1v-26.5L27 95.7z"/>
			<path class="st1" d="M15.8 111.7V92.6L0 88.1v16.3z"/>
			<path class="st4" d="m115 88.1-28.7-3.5L27 95.7l30.5 8.7z"/>
			<path class="st4" d="m15.8 92.6 59.5-8.5-17.8-2.2L0 88.1z"/>
			<path class="st2" d="M15.8 111.7V92.6l59.5-8.5v2.6l-48.3 9v12.5z"/>
			<path d="M162.3 83.4c-4.7 0-8.4 1.6-11.1 4.7s-4.1 7.4-4.1 12.8c0 5.6 1.3 9.9 3.9 12.9 2.6 3 6.3 4.6 11.2 4.6 3 0 6.4-.5 10.2-1.6v4.3c-3 1.1-6.6 1.7-10.9 1.7-6.3 0-11.1-1.9-14.5-5.7-3.4-3.8-5.1-9.2-5.1-16.2 0-4.4.8-8.2 2.5-11.5 1.6-3.3 4-5.8 7.1-7.6 3.1-1.8 6.7-2.7 10.9-2.7 4.5 0 8.4.8 11.7 2.4l-2.1 4.3c-3.3-1.6-6.5-2.4-9.7-2.4z"/>
			<path d="M208.5 106.2c0 5.2-1.3 9.3-3.9 12.2-2.6 2.9-6.2 4.4-10.9 4.4-2.9 0-5.4-.7-7.6-2-2.2-1.3-3.9-3.3-5.1-5.8-1.2-2.5-1.8-5.4-1.8-8.8 0-5.2 1.3-9.3 3.9-12.2 2.6-2.9 6.2-4.4 10.8-4.4 4.5 0 8 1.5 10.6 4.5 2.7 3 4 7 4 12.1zm-24.3 0c0 4.1.8 7.2 2.4 9.3 1.6 2.1 4 3.2 7.2 3.2s5.6-1.1 7.2-3.2c1.6-2.1 2.5-5.2 2.5-9.3 0-4.1-.8-7.1-2.5-9.2-1.6-2.1-4.1-3.2-7.3-3.2s-5.6 1-7.2 3.1c-1.5 2.1-2.3 5.2-2.3 9.3z"/>
			<path d="M238.7 117.9h-.3c-2.2 3.2-5.6 4.9-10 4.9-4.2 0-7.4-1.4-9.7-4.3-2.3-2.9-3.5-6.9-3.5-12.2 0-5.3 1.2-9.3 3.5-12.3 2.3-2.9 5.6-4.4 9.7-4.4 4.3 0 7.6 1.6 10 4.7h.4l-.2-2.3-.1-2.2v-13h4.8v45.3h-3.9l-.7-4.2zm-9.7.8c3.3 0 5.7-.9 7.2-2.7 1.5-1.8 2.2-4.7 2.2-8.7v-1c0-4.5-.8-7.8-2.3-9.7-1.5-1.9-3.9-2.9-7.2-2.9-2.8 0-5 1.1-6.5 3.3-1.5 2.2-2.3 5.3-2.3 9.3 0 4.1.7 7.2 2.2 9.2 1.6 2.2 3.8 3.2 6.7 3.2z"/>
			<path d="M267 122.8c-4.7 0-8.4-1.4-11.2-4.3-2.7-2.9-4.1-6.9-4.1-12s1.3-9.2 3.8-12.3 5.9-4.5 10.2-4.5c4 0 7.2 1.3 9.5 3.9 2.3 2.6 3.5 6.1 3.5 10.4v3.1h-22c.1 3.7 1 6.6 2.8 8.5 1.8 1.9 4.3 2.9 7.6 2.9 3.4 0 6.8-.7 10.2-2.2v4.3c-1.7.7-3.3 1.3-4.8 1.6-1.5.4-3.3.6-5.5.6zm-1.3-29.1c-2.6 0-4.6.8-6.1 2.5s-2.4 4-2.7 6.9h16.7c0-3-.7-5.4-2-7-1.4-1.6-3.4-2.4-5.9-2.4z"/>
			<path d="M314.7 92c0 4.3-1.5 7.6-4.4 9.9-2.9 2.3-7.2 3.5-12.6 3.5h-5v16.7h-5V79.6h11c10.7 0 16 4.1 16 12.4zm-22 9.2h4.5c4.4 0 7.6-.7 9.5-2.1 2-1.4 2.9-3.7 2.9-6.8 0-2.8-.9-4.9-2.8-6.3-1.8-1.4-4.7-2.1-8.6-2.1h-5.5v17.3z"/>
			<path d="M322.5 81.6c0-1.1.3-1.9.8-2.4s1.2-.8 2-.8 1.4.3 2 .8c.6.5.8 1.3.8 2.4 0 1.1-.3 1.9-.8 2.4-.6.5-1.2.8-2 .8s-1.5-.3-2-.8-.8-1.3-.8-2.4zm5.2 40.6h-4.8V90.3h4.8v31.9z"/>
			<path d="M352.8 122.8c-2.1 0-4-.4-5.7-1.2-1.7-.8-3.2-1.9-4.3-3.5h-.3c.2 1.9.3 3.6.3 5.3v13.1H338V90.3h3.9l.7 4.4h.2c1.2-1.7 2.7-3 4.3-3.8 1.6-.8 3.5-1.2 5.7-1.2 4.2 0 7.5 1.4 9.8 4.3 2.3 2.9 3.5 7 3.5 12.2 0 5.2-1.2 9.3-3.5 12.2-2.4 2.9-5.6 4.4-9.8 4.4zm-.7-29c-3.3 0-5.6.9-7.1 2.7-1.5 1.8-2.2 4.7-2.2 8.6v1.1c0 4.5.7 7.7 2.2 9.6 1.5 1.9 3.9 2.9 7.2 2.9 2.8 0 4.9-1.1 6.5-3.3 1.6-2.2 2.3-5.3 2.3-9.2 0-4-.8-7-2.3-9.2-1.5-2.2-3.7-3.2-6.6-3.2z"/>
			<path d="M388 122.8c-4.7 0-8.4-1.4-11.2-4.3-2.7-2.9-4.1-6.9-4.1-12s1.3-9.2 3.8-12.3 5.9-4.5 10.2-4.5c4 0 7.2 1.3 9.5 3.9 2.3 2.6 3.5 6.1 3.5 10.4v3.1h-22c.1 3.7 1 6.6 2.8 8.5 1.8 1.9 4.3 2.9 7.6 2.9 3.4 0 6.8-.7 10.2-2.2v4.3c-1.7.7-3.3 1.3-4.8 1.6-1.5.4-3.3.6-5.5.6zm-1.3-29.1c-2.6 0-4.6.8-6.1 2.5s-2.4 4-2.7 6.9h16.7c0-3-.7-5.4-2-7-1.4-1.6-3.4-2.4-5.9-2.4z"/>
			<path d="M412.8 122.2H408V76.9h4.8v45.3z"/>
			<path d="M422.7 81.6c0-1.1.3-1.9.8-2.4s1.2-.8 2-.8 1.4.3 2 .8c.6.5.8 1.3.8 2.4 0 1.1-.3 1.9-.8 2.4-.6.5-1.2.8-2 .8s-1.5-.3-2-.8c-.6-.5-.8-1.3-.8-2.4zm5.2 40.6h-4.8V90.3h4.8v31.9z"/>
			<path d="M460 122.2v-20.6c0-2.6-.6-4.5-1.8-5.8-1.2-1.3-3-1.9-5.6-1.9-3.3 0-5.8.9-7.3 2.7-1.6 1.8-2.3 4.8-2.3 8.9v16.7h-4.8V90.3h3.9l.8 4.4h.2c1-1.6 2.4-2.8 4.2-3.7 1.8-.9 3.8-1.3 6-1.3 3.8 0 6.7.9 8.7 2.8 1.9 1.9 2.9 4.8 2.9 8.9v20.8H460z"/>
			<path d="M488.3 122.8c-4.7 0-8.4-1.4-11.2-4.3-2.7-2.9-4.1-6.9-4.1-12s1.3-9.2 3.8-12.3 5.9-4.5 10.2-4.5c4 0 7.2 1.3 9.5 3.9 2.3 2.6 3.5 6.1 3.5 10.4v3.1h-22c.1 3.7 1 6.6 2.8 8.5 1.8 1.9 4.3 2.9 7.6 2.9 3.4 0 6.8-.7 10.2-2.2v4.3c-1.7.7-3.3 1.3-4.8 1.6-1.5.4-3.4.6-5.5.6zM487 93.7c-2.6 0-4.6.8-6.1 2.5s-2.4 4-2.7 6.9h16.7c0-3-.7-5.4-2-7-1.5-1.6-3.4-2.4-5.9-2.4z"/>
		</g>
	</switch>
</svg>
