<svg xmlns="http://www.w3.org/2000/svg" width="200" height="128">
    <defs>
        <linearGradient id="a" x1="19.96" y1="225.04" x2="126.03" y2="118.97" gradientTransform="translate(0 -99)" gradientUnits="userSpaceOnUse">
            <stop offset="0" stop-color="#c8511b"/>
            <stop offset="1" stop-color="#f90"/>
        </linearGradient>
    </defs>
    <path d="M91.65 90.74l-1-2.95h-4.59l-1 2.95h-1.67l4.1-11.09h1.76l4.09 11.09zm-5.17-4.18h3.73l-1.87-5.44zm15.84 4.18l-2.1-8.69-2.11 8.69h-1.82l-3.23-11.09h1.77l2.39 9.29 2.12-9h1.8l2.12 9 2.4-9.31h1.72l-3.24 11.09zm8.75-5.27a4.51 4.51 0 01-1.9-1.2 2.63 2.63 0 01-.59-1.77 3 3 0 01.44-1.6 3.09 3.09 0 011.29-1.09 4.52 4.52 0 012-.4 8.39 8.39 0 013 .57v1.3a10 10 0 00-2.85-.5 2.68 2.68 0 00-1.61.43 1.4 1.4 0 00-.56 1.21 1.33 1.33 0 00.38 1 4.07 4.07 0 001.42.76l1.46.55a4.31 4.31 0 011.86 1.16 2.61 2.61 0 01.57 1.75 3 3 0 01-1.1 2.45 4.5 4.5 0 01-2.95.91 7.29 7.29 0 01-3.2-.66v-1.27a9.87 9.87 0 003.17.56 2.85 2.85 0 001.78-.49 1.59 1.59 0 00.65-1.35 1.36 1.36 0 00-.37-1 3.73 3.73 0 00-1.28-.75zM72.9 106.74V95.65h7v1.85h-4.6v2.79h3.64v1.85H75.3v4.6zm12.85 0l-.2-.72a3.91 3.91 0 01-1.14.71 3.42 3.42 0 01-1.26.26 2.62 2.62 0 01-1.89-.67 2.33 2.33 0 01-.72-1.79 2.38 2.38 0 01.39-1.35 2.57 2.57 0 011.1-.92 3.91 3.91 0 011.7-.34 7.64 7.64 0 011.69.21v-.8a1.34 1.34 0 00-.3-1 1.73 1.73 0 00-1.12-.27 9.83 9.83 0 00-2.9.49V99a6.5 6.5 0 011.49-.49 9.31 9.31 0 011.83-.18 3.63 3.63 0 012.41.66 2.67 2.67 0 01.75 2.09v5.67zm-1.94-1.32a2 2 0 00.82-.17 3 3 0 00.79-.48v-1.39a7.5 7.5 0 00-1.26-.12c-.93 0-1.39.38-1.39 1.12a.94.94 0 001 1zm6 1.32v-8.18h1.92l.27 1.22a4.45 4.45 0 011.21-1 2.55 2.55 0 011.21-.3 5 5 0 01.64 0v2.16a4.4 4.4 0 00-1-.1 5 5 0 00-1.93.37v5.78zm11.47-1a3.07 3.07 0 01-2.14.82 2.91 2.91 0 01-2.38-1.11 4.63 4.63 0 01-.88-3 4.76 4.76 0 01.89-3 2.9 2.9 0 012.4-1.14 3.38 3.38 0 011.27.24 3.33 3.33 0 011 .7l.18-.7h1.92v7.54a3.76 3.76 0 01-4.1 4.12 6.54 6.54 0 01-2.94-.68V108a9.34 9.34 0 002.73.49 2.06 2.06 0 001.53-.48 2.23 2.23 0 00.47-1.6zm-1.42-.91a2.6 2.6 0 001.42-.45v-3.93a2.82 2.82 0 00-1.53-.4c-1 0-1.54.79-1.54 2.37a3.34 3.34 0 00.4 1.82 1.42 1.42 0 001.23.59zm10.66 1.91l-.2-.72a3.91 3.91 0 01-1.14.71 3.42 3.42 0 01-1.26.26 2.62 2.62 0 01-1.89-.67 2.32 2.32 0 01-.71-1.79 2.37 2.37 0 01.38-1.35 2.57 2.57 0 011.1-.92 3.91 3.91 0 011.7-.34 7.8 7.8 0 011.7.21v-.8a1.3 1.3 0 00-.31-1 1.71 1.71 0 00-1.12-.27 9.72 9.72 0 00-2.89.49V99a6.25 6.25 0 011.48-.49 9.31 9.31 0 011.83-.18 3.63 3.63 0 012.41.66 2.67 2.67 0 01.76 2.09v5.67zm-1.94-1.32a2 2 0 00.82-.17 3.27 3.27 0 00.8-.48v-1.39a7.61 7.61 0 00-1.27-.12c-.93 0-1.39.38-1.39 1.12a.94.94 0 001 1zm10.85 1.11a5.41 5.41 0 01-1.94.33 2.77 2.77 0 01-2-.64 2.66 2.66 0 01-.64-2v-3.95h-1.24v-1.42l1.3-.26.35-2.24h1.92v2.21h2.21v1.73h-2.21v3.84a.89.89 0 00.26.72 1.37 1.37 0 00.86.21 8.52 8.52 0 001.14-.1zm3.18-3.31a2 2 0 00.64 1.52 2.82 2.82 0 001.81.48 9.74 9.74 0 002.5-.4v1.55a5.54 5.54 0 01-1.34.45 8.45 8.45 0 01-1.61.16 4.08 4.08 0 01-3.09-1.11 5.35 5.35 0 010-6.41 3.79 3.79 0 012.93-1.14 3.28 3.28 0 012.44.87 3.4 3.4 0 01.85 2.49 5.91 5.91 0 010 .8c0 .3-.07.54-.11.74zm1.75-3.28a1.61 1.61 0 00-1.24.47 2.07 2.07 0 00-.52 1.37h3.13v-.28c-.02-1.04-.48-1.56-1.39-1.56z" fill="#333"/>
    <path d="M73 19h54v54H73z" fill="url(#a)"/>
    <path d="M90.9 45.2l.1.2c.1.1.2.1.4.2v.1c.1.1.2.1.4.2l.2.1h.2l.1.1a4.51 4.51 0 001.1.3l.7.2.4.1a34.76 34.76 0 005.4.7 19.36 19.36 0 008.2-1.6 3.15 3.15 0 001.9-2.9V32.6a1.17 1.17 0 00-.6-1l-9-4.2a1.39 1.39 0 00-.9 0l-8.9 4.2a1.45 1.45 0 00-.7 1V43a3.23 3.23 0 00.8 2.1zm17.7-2.3a1.94 1.94 0 01-1 1.7 18.1 18.1 0 01-6.9 1.4v-8.7l7.9-3.6zM100 28.7l8 3.8-7.9 3.5v-.1l-7.8-3.6zm-8.6 4.8l7.9 3.6v8.8a21.18 21.18 0 01-4.4-.5l-.3-.1-.7-.2c-.4-.1-.7-.2-1-.3l-.3-.2-.2-.1-.2-.2-.2-.1h-.1a.1.1 0 00-.1-.1h-.1a1.59 1.59 0 01-.4-1.2v-9.4zm27.3 10.3c0 4.2-9.6 6.5-18.7 6.5S81.3 48 81.3 43.8c0-1.9 2.2-3.7 6.2-4.9l.5 1.4c-3.2.9-5.3 2.3-5.3 3.5 0 2.4 7.1 5 17.3 5.1s17.3-2.7 17.3-5.1c0-1.2-2-2.6-5.3-3.5l.5-1.4c4 1.2 6.3 3 6.2 4.9zm-6.3 8.8l-3.4-1.5a1.1 1.1 0 00-.8 0l-3.4 1.5a1.06 1.06 0 00-.6.7v3.8l-3-1.4a1.1 1.1 0 00-.8 0l-3.3 1.4v-3.8a.67.67 0 00-.5-.7l-3.4-1.5a1.1 1.1 0 00-.8 0L89 52.6a.75.75 0 00-.5.7v4.4a.89.89 0 00.5.8l3.4 1.5c.1.1.2.1.4 0s.2 0 .4 0l3.2-1.4v3.7a.89.89 0 00.5.8l3.3 1.4h.1a.49.49 0 00.3.1.6.6 0 00.4-.1l3.5-1.5a.79.79 0 00.5-.8v-3.7l3.1 1.4h.2a.49.49 0 00.3.1.76.76 0 00.4-.1l3.5-1.4a.79.79 0 00.5-.8v-4.4a.82.82 0 00-.6-.7zm-20.3 5.7l-2.2-.9v-3l2.2.9zm.8-4.2l-1.9-.8 1.8-.8 1.9.8zm2.8 3.3l-2.2.9v-2.9l2.2-.8zm4.3 5.5l-2.2-.9v-3l2.2.9zm.9-4.2l-2-.8 1.8-.8 2 .9zm2.7 3.4l-2.2.8V60l2.2-.8zm4.3-3.8l-2.1-.9v-3l2.1.9zm.9-4.2l-2-.8 1.8-.8 2 .8zm2.7 3.3l-2.1.9v-2.9l2.1-.8z" fill="#fff"/>
</svg>
