<svg version="1.1" id="Layer_1" xmlns="http://www.w3.org/2000/svg" x="0" y="0" viewBox="0 0 500 146.1" style="enable-background:new 0 0 500 146.1" xml:space="preserve">
	<style>
		.st0{fill:#222}.st1{fill:#759c3f}.st2{fill:#4a612b}.st3{fill:#3b4928}
	</style>
	<switch>
		<g>
			<path class="st0" d="M172.9 54.5 167.2 40h-18.3l-5.6 14.5h-5.4l18-45.8h4.5l17.9 45.8h-5.4zm-7.4-19.3-5.3-14.1c-.7-1.8-1.4-4-2.1-6.6-.5 2-1.1 4.2-2 6.6l-5.4 14.1h14.8z"/>
			<path class="st0" d="M224.5 54.5h-5.2L210 24c-.4-1.4-.9-3.1-1.5-5.1-.5-2.1-.8-3.3-.8-3.7-.5 2.7-1.2 5.8-2.2 9l-8.9 30.4h-5.2L179.2 8.9h5.6l7.2 28.2c1 4 1.7 7.5 2.2 10.7.6-3.8 1.4-7.5 2.5-11.2l8.2-27.7h5.6l8.6 28c1 3.2 1.8 6.9 2.5 10.9.4-3 1.1-6.6 2.2-10.8L231 8.9h5.6l-12.1 45.6z"/>
			<path class="st0" d="M269.6 42.4c0 4-1.5 7.1-4.4 9.4-2.9 2.2-6.9 3.4-11.9 3.4-5.4 0-9.6-.7-12.5-2.1V48c1.9.8 3.9 1.4 6.1 1.9 2.2.5 4.4.7 6.6.7 3.5 0 6.2-.7 8-2 1.8-1.3 2.7-3.2 2.7-5.6 0-1.6-.3-2.9-1-3.9-.6-1-1.7-1.9-3.2-2.8-1.5-.9-3.8-1.8-6.8-2.9-4.2-1.5-7.3-3.3-9.1-5.4-1.8-2.1-2.7-4.8-2.7-8.1 0-3.5 1.3-6.3 4-8.4 2.6-2.1 6.1-3.1 10.5-3.1 4.5 0 8.7.8 12.5 2.5l-1.7 4.6c-3.8-1.6-7.4-2.4-11-2.4-2.8 0-5 .6-6.6 1.8-1.6 1.2-2.4 2.9-2.4 5 0 1.6.3 2.9.9 3.9.6 1 1.6 1.9 2.9 2.8 1.4.8 3.5 1.8 6.4 2.8 4.8 1.7 8.1 3.5 9.9 5.5 1.9 1.8 2.8 4.4 2.8 7.5z"/>
			<path d="M163.7 89.3c-5 0-9 1.7-11.9 5-2.9 3.3-4.3 7.9-4.3 13.7 0 6 1.4 10.6 4.2 13.8 2.8 3.3 6.8 4.9 12 4.9 3.2 0 6.8-.6 10.9-1.7v4.6c-3.2 1.2-7.1 1.8-11.7 1.8-6.7 0-11.9-2-15.5-6.1-3.6-4.1-5.5-9.9-5.5-17.4 0-4.7.9-8.8 2.6-12.3 1.8-3.5 4.3-6.3 7.6-8.2 3.3-1.9 7.2-2.9 11.7-2.9 4.8 0 9 .9 12.5 2.6l-2.2 4.6c-3.5-1.6-7-2.4-10.4-2.4z"/>
			<path d="M213.2 113.6c0 5.6-1.4 9.9-4.2 13-2.8 3.1-6.7 4.7-11.6 4.7-3.1 0-5.8-.7-8.1-2.2-2.4-1.4-4.2-3.5-5.5-6.2-1.3-2.7-1.9-5.8-1.9-9.4 0-5.6 1.4-9.9 4.2-13 2.8-3.1 6.7-4.7 11.6-4.7 4.8 0 8.6 1.6 11.4 4.8 2.7 3.3 4.1 7.6 4.1 13zm-26.1 0c0 4.4.9 7.7 2.6 10 1.7 2.3 4.3 3.4 7.7 3.4 3.4 0 6-1.1 7.7-3.4 1.8-2.3 2.6-5.6 2.6-10 0-4.3-.9-7.6-2.6-9.9-1.8-2.3-4.3-3.4-7.8-3.4-3.4 0-5.9 1.1-7.7 3.3-1.6 2.3-2.5 5.6-2.5 10z"/>
			<path d="M245.5 126.2h-.3c-2.4 3.5-6 5.2-10.7 5.2-4.5 0-7.9-1.5-10.4-4.6-2.5-3.1-3.7-7.4-3.7-13s1.2-10 3.7-13.1c2.5-3.1 6-4.7 10.4-4.7 4.6 0 8.2 1.7 10.7 5.1h.4l-.2-2.5-.1-2.4v-14h5.2v48.5h-4.2l-.8-4.5zm-10.4.8c3.5 0 6.1-1 7.7-2.9 1.6-1.9 2.4-5 2.4-9.3v-1.1c0-4.8-.8-8.3-2.4-10.4-1.6-2.1-4.2-3.1-7.7-3.1-3 0-5.4 1.2-7 3.5-1.6 2.4-2.4 5.7-2.4 10 0 4.4.8 7.7 2.4 9.9 1.6 2.3 3.9 3.4 7 3.4z"/>
			<path d="M275.8 131.4c-5.1 0-9-1.5-12-4.6-2.9-3.1-4.4-7.3-4.4-12.8 0-5.5 1.4-9.9 4.1-13.1 2.7-3.2 6.4-4.9 10.9-4.9 4.3 0 7.7 1.4 10.2 4.2 2.5 2.8 3.7 6.5 3.7 11.1v3.3h-23.5c.1 4 1.1 7.1 3 9.1 1.9 2.1 4.6 3.1 8.1 3.1 3.7 0 7.3-.8 10.9-2.3v4.6c-1.8.8-3.6 1.4-5.2 1.7-1.5.4-3.5.6-5.8.6zm-1.4-31.1c-2.7 0-4.9.9-6.6 2.7-1.6 1.8-2.6 4.3-2.9 7.4h17.9c0-3.3-.7-5.8-2.2-7.5-1.4-1.7-3.5-2.6-6.2-2.6z"/>
			<path d="M334.3 107.5c0 7.5-2 13.3-6.1 17.3s-10 6-17.6 6H298V85.2h14c7.1 0 12.6 2 16.5 5.9 3.9 3.9 5.8 9.4 5.8 16.4zm-5.6.2c0-5.9-1.5-10.4-4.5-13.4s-7.4-4.5-13.3-4.5h-7.7v36.4h6.5c6.3 0 11.1-1.6 14.2-4.7s4.8-7.7 4.8-13.8z"/>
			<path d="M358.2 131.4c-5.1 0-9-1.5-12-4.6-2.9-3.1-4.4-7.3-4.4-12.8 0-5.5 1.4-9.9 4.1-13.1 2.7-3.2 6.4-4.9 10.9-4.9 4.3 0 7.7 1.4 10.2 4.2 2.5 2.8 3.7 6.5 3.7 11.1v3.3h-23.5c.1 4 1.1 7.1 3 9.1 1.9 2.1 4.6 3.1 8.1 3.1 3.7 0 7.3-.8 10.9-2.3v4.6c-1.8.8-3.6 1.4-5.2 1.7-1.6.4-3.5.6-5.8.6zm-1.4-31.1c-2.7 0-4.9.9-6.6 2.7-1.6 1.8-2.6 4.3-2.9 7.4h17.9c0-3.3-.7-5.8-2.2-7.5-1.5-1.7-3.5-2.6-6.2-2.6z"/>
			<path d="M395.4 131.4c-2.2 0-4.3-.4-6.1-1.2-1.8-.8-3.4-2.1-4.6-3.8h-.4c.2 2 .4 3.9.4 5.7v14.1h-5.2V96.6h4.2l.7 4.7h.2c1.3-1.9 2.9-3.2 4.6-4.1 1.8-.8 3.8-1.2 6.1-1.2 4.5 0 8 1.5 10.5 4.6 2.5 3.1 3.7 7.4 3.7 13s-1.3 10-3.8 13.1c-2.3 3.1-5.8 4.7-10.3 4.7zm-.7-31c-3.5 0-6 1-7.6 2.9s-2.4 5-2.4 9.2v1.2c0 4.8.8 8.2 2.4 10.3 1.6 2.1 4.2 3.1 7.7 3.1 3 0 5.3-1.2 6.9-3.6 1.7-2.4 2.5-5.7 2.5-9.9 0-4.3-.8-7.5-2.5-9.8-1.6-2.3-4-3.4-7-3.4z"/>
			<path d="M423.8 130.8h-5.2V82.2h5.2v48.6z"/>
			<path d="M464.3 113.6c0 5.6-1.4 9.9-4.2 13-2.8 3.1-6.7 4.7-11.6 4.7-3.1 0-5.8-.7-8.1-2.2-2.4-1.4-4.2-3.5-5.5-6.2-1.3-2.7-1.9-5.8-1.9-9.4 0-5.6 1.4-9.9 4.2-13 2.8-3.1 6.7-4.7 11.6-4.7 4.8 0 8.6 1.6 11.4 4.8 2.7 3.3 4.1 7.6 4.1 13zm-26 0c0 4.4.9 7.7 2.6 10s4.3 3.4 7.7 3.4c3.4 0 6-1.1 7.7-3.4 1.8-2.3 2.6-5.6 2.6-10 0-4.3-.9-7.6-2.6-9.9-1.8-2.3-4.3-3.4-7.8-3.4-3.4 0-5.9 1.1-7.7 3.3-1.7 2.3-2.5 5.6-2.5 10z"/>
			<path d="M468 96.6h5.5l7.5 19.5c1.6 4.4 2.7 7.7 3.1 9.6h.2c.3-1.1.8-2.9 1.7-5.4.9-2.6 3.7-10.5 8.5-23.7h5.5l-14.7 38.9c-1.5 3.8-3.2 6.6-5.1 8.2-1.9 1.6-4.3 2.4-7.2 2.4-1.6 0-3.1-.2-4.7-.5v-4.1c1.1.2 2.4.4 3.8.4 3.6 0 6.1-2 7.6-6l1.9-4.9L468 96.6z"/>
			<path class="st1" d="M16.6 118.6 76.4 105V34.1L16.6 20.5z"/>
			<path class="st2" d="M16.6 118.6 0 109.9V29.3l16.6-8.8z"/>
			<path class="st1" d="m116.7 60-58-7.8v35.5l58-7.8z"/>
			<path class="st1" d="M116.7 29.3 58.7 0v35.1l58 14z"/>
			<path class="st1" d="M58.7 104.8v35.3l58-29.3v-20z"/>
			<path class="st2" d="m27.3 83.5 31.4 4.2V52.2l-31.4 4.2z"/>
			<path class="st2" d="m27.3 125 31.4 15.1v-35.3l-31.4-7.6z"/>
			<path class="st2" d="M27.3 15.1v27.6l31.4-7.6V0z"/>
			<path class="st3" d="m27.3 42.7 31.4-7.6 58 14-28.5 3.1z"/>
			<path class="st3" d="m27.3 97.2 61.1-9.5 28.3 3.1-58 14z"/>
		</g>
	</switch>
</svg>
