<svg version="1.1" id="Layer_1" xmlns="http://www.w3.org/2000/svg" x="0" y="0" viewBox="0 0 500 532.5" style="enable-background:new 0 0 500 532.5" xml:space="preserve">
	<style>
		.st1{fill:#f58536}.st2{fill:#fef8f3}
	</style>
	<switch>
		<g>
			<circle cx="250" cy="208.5" r="191.8" style="fill:#a86039"/>
			<circle class="st1" cx="250" cy="191.8" r="191.8"/>
			<circle class="st2" cx="250" cy="186.2" r="22.4"/>
			<circle class="st1" cx="250" cy="186.2" r="10.1"/>
			<path class="st2" d="M250 92.6c-8.2 0-15.7-2.7-21.8-7.2l7.4 74.8c4.3-2.4 9.2-3.8 14.5-3.8 5.2 0 10.2 1.4 14.5 3.8l7.4-74.8c-6.3 4.5-13.8 7.2-22 7.2z"/>
			<path class="st2" d="M220.3 186.2c0-5.9 1.8-11.4 4.7-16l-61.8 21.7-36.7 53.7 12.5 8.9 37.9-38.5 54.3-6.7c-6.6-5.6-10.9-13.9-10.9-23.1z"/>
			<path class="st2" d="M336.8 191.8 275 170.1c3 4.6 4.7 10.1 4.7 16 0 9.3-4.3 17.5-10.9 23l54.3 6.7 37.9 38.5 12.5-8.9-36.7-53.6z"/>
			<circle class="st2" cx="250" cy="55.6" r="29.7"/>
			<circle class="st1" cx="250" cy="55.6" r="12.9"/>
			<path style="fill:#fbc8a3" d="M166.3 247.3H332v90.2H166.3z"/>
			<path d="M166.3 247.3v90.2H332v-90.2H166.3zm158.3 82.8h-151v-75.5h151v75.5z" style="fill:#fff"/>
			<path class="st2" d="M186.6 250h7.3v84.7h-7.3z"/>
			<path class="st2" d="M210.1 250h7.3v84.7h-7.3z"/>
			<path class="st2" d="M233.5 250h7.3v84.7h-7.3z"/>
			<path class="st2" d="M257 250h7.3v84.7H257z"/>
			<path class="st2" d="M280.5 250h7.3v84.7h-7.3z"/>
			<path class="st2" d="M304 250h7.3v84.7H304z"/>
			<path class="st1" d="M63.4 531.4 55 508H22.8l-8.2 23.4H0l31.5-84.6h15L78 531.4H63.4zm-12.1-35.3-7.9-22.9c-.6-1.5-1.4-4-2.4-7.3s-1.7-5.7-2.1-7.3c-1 4.7-2.6 9.9-4.6 15.5L26.7 496h24.6z"/>
			<path class="st1" d="M166.8 531.4h-15l-14.3-50.2c-.6-2.2-1.4-5.3-2.3-9.5-.9-4.1-1.5-7-1.7-8.6-.4 2.5-1 5.6-1.9 9.6s-1.6 6.8-2.2 8.8l-13.9 50h-15l-10.9-42.2-11.1-42.1h14.1l12 49.1c1.9 7.9 3.2 14.8 4 20.9.4-3.3 1.1-6.9 1.9-10.9.8-4 1.6-7.3 2.3-9.8l13.7-49.2h13.7l14.1 49.4c1.3 4.6 2.8 11.4 4.3 20.5.6-5.5 2-12.5 4.1-21l12-49h13.9l-21.8 84.2z"/>
			<path class="st1" d="M249.3 508.5c0 7.5-2.7 13.4-8.1 17.6s-12.9 6.4-22.4 6.4c-9.5 0-17.3-1.5-23.4-4.4v-13c3.8 1.8 7.9 3.2 12.2 4.3 4.3 1 8.3 1.6 12.1 1.6 5.5 0 9.5-1 12.1-3.1s3.9-4.9 3.9-8.4c0-3.1-1.2-5.8-3.6-8-2.4-2.2-7.3-4.8-14.7-7.8-7.7-3.1-13.1-6.7-16.2-10.7-3.1-4-4.7-8.8-4.7-14.4 0-7 2.5-12.6 7.5-16.6 5-4 11.7-6 20.1-6 8.1 0 16.1 1.8 24.1 5.3l-4.4 11.2c-7.5-3.1-14.2-4.7-20-4.7-4.5 0-7.8 1-10.1 2.9s-3.5 4.5-3.5 7.7c0 2.2.5 4.1 1.4 5.6s2.4 3 4.6 4.4c2.1 1.4 5.9 3.2 11.4 5.5 6.2 2.6 10.7 5 13.6 7.2 2.9 2.2 5 4.7 6.3 7.5 1.1 2.8 1.8 6.1 1.8 9.9z"/>
			<path class="st1" d="M343.8 531.4h-47.6v-84.2h47.6v11.6H310v22.9h31.7v11.5H310v26.4h33.9v11.8z"/>
			<path class="st1" d="M397.9 457.8c-7.9 0-14.1 2.8-18.7 8.4-4.5 5.6-6.8 13.3-6.8 23.2 0 10.3 2.2 18.1 6.5 23.4 4.4 5.3 10.7 7.9 18.9 7.9 3.6 0 7-.4 10.4-1.1 3.3-.7 6.8-1.6 10.4-2.7v11.8c-6.6 2.5-14.1 3.7-22.5 3.7-12.3 0-21.8-3.7-28.4-11.2-6.6-7.5-9.9-18.2-9.9-32.1 0-8.8 1.6-16.4 4.8-23 3.2-6.6 7.8-11.6 13.9-15.1 6.1-3.5 13.2-5.2 21.4-5.2 8.6 0 16.6 1.8 23.8 5.4l-5 11.5c-2.8-1.3-5.8-2.5-9-3.5-3-.9-6.3-1.4-9.8-1.4z"/>
			<path class="st1" d="M450.6 497.7v33.6h-13.8v-84.2h23.8c10.9 0 18.9 2 24.1 6.1 5.2 4.1 7.8 10.2 7.8 18.4 0 10.5-5.5 18-16.4 22.4l23.8 37.3h-15.7L464 497.7h-13.4zm0-11.4h9.6c6.4 0 11.1-1.2 13.9-3.6s4.3-5.9 4.3-10.6c0-4.8-1.6-8.2-4.7-10.3s-7.8-3.1-14.1-3.1h-9.1v27.6z"/>
		</g>
	</switch>
</svg>
