<svg version="1.1" id="Layer_1" xmlns="http://www.w3.org/2000/svg" x="0" y="0" viewBox="0 0 500 156.5" style="enable-background:new 0 0 500 156.5" xml:space="preserve">
	<style>
		.st0{fill:#769c3e}.st1{fill:#4d622c}.st2{fill:#b7ca9d}.st3{fill:#3d4a2a}.st4{fill:#222}
	</style>
	<switch>
		<g>
			<path class="st0" d="M109.9 21.4v32.2l21.7 4.6V31.9z"/>
			<path class="st0" d="M103.6 78.3V61.4l-37.8-5v43.7l37.8-5z"/>
			<path class="st0" d="M109.9 78.3v15.9l21.7-2.9V65.2l-21.7-2.9z"/>
			<path class="st1" d="M8.8 78.3V64L0 65.2v26.1l8.8 1.2z"/>
			<path class="st1" d="m8.8 49.1 12.9-4.5V21.4L0 31.9v26.3l8.8-1.8z"/>
			<path class="st1" d="M47.6 78.3v19.4l18.2 2.4V56.4l-18.2 2.4z"/>
			<path class="st1" d="M21.7 135.2v-23.3l-12.9-4.5v-7.2L0 98.3v26.3l21.7 10.6z"/>
			<path class="st1" d="M47.6 108.5V121L28 114.1v24.1l37.8 18.3v-44.1z"/>
			<path class="st0" d="M103.6 18.3 65.8 0v44.1l37.8 8.1z"/>
			<path class="st1" d="M28 18.3v24.1l19.6-6.8V48l18.2-3.9V0z"/>
			<path class="st0" d="M103.6 138.2v-33.9l-37.8 8.1v44.1l37.8-18.3z"/>
			<path class="st0" d="M109.9 102.9v32.3l21.7-10.6V98.3z"/>
			<path class="st1" d="m109.9 62.3-6.3.6v30.2l6.3 1.1z"/>
			<path class="st2" d="m109.9 102.9-17.8-2.8 21.9-4.2 17.6 2.4z"/>
			<path class="st2" d="m103.6 104.3-18.9-3-37.1 7.2 18.2 3.9z"/>
			<path class="st1" d="M92.1 100.1v2.4l11.5 1.8v27.4l6.3 3.5v-32.3z"/>
			<path class="st2" d="m28 114.1 15.7-2.8 3.9 1.1v8.6z"/>
			<path class="st0" d="m8.8 100.2 18-1.9v7.1l-18 2z"/>
			<path class="st2" d="m0 98.3 8.8-1.9 18 1.9-18 1.9z"/>
			<path class="st2" d="m26.8 105.4 12 3.1-17.1 3.4-12.9-4.5z"/>
			<path class="st0" d="M38.8 108.5v3.7L28 114.1v18l-6.3 3.1v-23.3z"/>
			<path class="st0" d="m8.8 92.5 18-1.1v-26L8.8 64z"/>
			<path class="st3" d="m47.6 48 35.8 7.1 20.2-2.9-37.8-8.1z"/>
			<path class="st3" d="m109.9 53.6-14.1 2.3 17.2 3.9 18.6-1.6z"/>
			<path class="st1" d="m103.6 24.9 6.3-3.5v32.2l-14.1 2.3v-2.6l7.8-1.1z"/>
			<path class="st3" d="m28 42.4 19.6 2.9v-9.7z"/>
			<path class="st3" d="m0 58.2 15.4 1.4 11.1-1.4-17.7-1.8z"/>
			<path class="st0" d="m8.8 49.1 18 1.2-.3 7.9-17.7-1.8z"/>
			<path class="st3" d="M21.7 44.6 37 46.9l-10.2 3.4-18-1.2z"/>
			<path class="st0" d="M37 46.9v-3.2l-9-1.3V24.6l-6.3-3.2v23.2z"/>
			<path class="st4" d="m203.1 60.9-6.3-16.2h-20.4l-6.3 16.2h-6l20.2-51.2h5l20.1 51.2h-6.3zm-8.2-21.5L189 23.6c-.8-2-1.6-4.5-2.4-7.4-.5 2.2-1.2 4.7-2.2 7.4l-6 15.8h16.5z"/>
			<path class="st4" d="M260.8 60.9h-5.9l-10.3-34.1c-.5-1.5-1-3.4-1.6-5.7-.6-2.3-.9-3.7-.9-4.2-.5 3.1-1.3 6.4-2.4 10.1l-10 33.9h-5.9l-13.6-51h6.3l8.1 31.5c1.1 4.4 1.9 8.4 2.4 12 .6-4.3 1.6-8.4 2.8-12.5l9.1-31h6.3l9.6 31.3c1.1 3.6 2.1 7.7 2.8 12.2.4-3.3 1.3-7.3 2.5-12.1l8-31.4h6.3l-13.6 51z"/>
			<path class="st4" d="M311.2 47.3c0 4.5-1.6 8-4.9 10.5-3.3 2.5-7.7 3.8-13.3 3.8-6 0-10.7-.8-14-2.3v-5.7c2.1.9 4.4 1.6 6.8 2.1 2.5.5 4.9.8 7.3.8 4 0 6.9-.7 8.9-2.2 2-1.5 3-3.6 3-6.3 0-1.8-.4-3.2-1.1-4.3-.7-1.1-1.9-2.2-3.6-3.1-1.7-1-4.2-2-7.6-3.2-4.7-1.7-8.1-3.7-10.2-6-2-2.3-3.1-5.4-3.1-9.1 0-3.9 1.5-7.1 4.4-9.4 3-2.3 6.9-3.5 11.7-3.5 5.1 0 9.7.9 14 2.8l-1.8 5.2c-4.2-1.8-8.3-2.7-12.3-2.7-3.1 0-5.6.7-7.4 2-1.8 1.3-2.7 3.2-2.7 5.6 0 1.8.3 3.2 1 4.3.7 1.1 1.7 2.2 3.3 3.1 1.5.9 3.9 2 7.1 3.1 5.3 1.9 9 4 11 6.1 2.5 2.1 3.5 5 3.5 8.4z"/>
			<path class="st4" d="M192.9 100.2c-5.6 0-10 1.9-13.3 5.6-3.2 3.7-4.9 8.8-4.9 15.3 0 6.7 1.6 11.8 4.7 15.5 3.1 3.6 7.6 5.5 13.4 5.5 3.6 0 7.6-.6 12.2-1.9v5.2c-3.5 1.3-7.9 2-13.1 2-7.5 0-13.3-2.3-17.4-6.8-4.1-4.6-6.1-11-6.1-19.4 0-5.3 1-9.9 2.9-13.8 2-4 4.8-7 8.5-9.1 3.7-2.1 8.1-3.2 13.1-3.2 5.3 0 10 1 14 2.9l-2.5 5.1c-3.8-2-7.6-2.9-11.5-2.9z"/>
			<path class="st4" d="M248.3 127.5c0 6.2-1.6 11.1-4.7 14.6s-7.5 5.2-13 5.2c-3.4 0-6.5-.8-9.1-2.4-2.7-1.6-4.7-3.9-6.1-6.9-1.4-3-2.2-6.5-2.2-10.5 0-6.2 1.6-11.1 4.7-14.6s7.4-5.2 13-5.2c5.3 0 9.6 1.8 12.7 5.3 3.1 3.6 4.7 8.4 4.7 14.5zm-29.2 0c0 4.9 1 8.6 2.9 11.2 2 2.6 4.8 3.8 8.6 3.8s6.7-1.3 8.6-3.8c2-2.5 2.9-6.3 2.9-11.2 0-4.9-1-8.5-2.9-11.1-2-2.5-4.9-3.8-8.7-3.8-3.8 0-6.7 1.2-8.6 3.7-1.8 2.5-2.8 6.2-2.8 11.2z"/>
			<path class="st4" d="M284.4 141.5h-.3c-2.7 3.9-6.7 5.8-12 5.8-5 0-8.9-1.7-11.7-5.1-2.8-3.4-4.2-8.3-4.2-14.6 0-6.3 1.4-11.2 4.2-14.7s6.7-5.2 11.6-5.2c5.2 0 9.2 1.9 11.9 5.6h.5l-.2-2.8-.1-2.7V92.4h5.8v54.3h-4.7l-.8-5.2zm-11.5 1c4 0 6.8-1.1 8.6-3.2 1.8-2.1 2.7-5.6 2.7-10.4v-1.2c0-5.4-.9-9.3-2.7-11.6-1.8-2.3-4.7-3.5-8.6-3.5-3.4 0-6 1.3-7.8 4-1.8 2.6-2.7 6.4-2.7 11.2 0 4.9.9 8.6 2.7 11.1 1.7 2.3 4.3 3.6 7.8 3.6z"/>
			<path class="st4" d="M318.3 147.3c-5.6 0-10.1-1.7-13.4-5.2-3.3-3.4-4.9-8.2-4.9-14.3 0-6.2 1.5-11.1 4.6-14.7s7.1-5.4 12.2-5.4c4.8 0 8.6 1.6 11.4 4.7 2.8 3.2 4.2 7.3 4.2 12.5v3.7h-26.3c.1 4.5 1.2 7.9 3.4 10.2 2.1 2.3 5.2 3.5 9.1 3.5 4.1 0 8.2-.9 12.2-2.6v5.2c-2 .9-4 1.5-5.8 1.9-1.9.3-4.1.5-6.7.5zm-1.5-34.7c-3.1 0-5.5 1-7.3 3-1.8 2-2.9 4.8-3.2 8.3h20c0-3.6-.8-6.4-2.4-8.4-1.8-2-4.1-2.9-7.1-2.9z"/>
			<path class="st4" d="M343.1 95.6h14.4c6.8 0 11.7 1 14.7 3s4.5 5.2 4.5 9.6c0 3-.8 5.5-2.5 7.5s-4.1 3.2-7.4 3.8v.3c7.7 1.3 11.6 5.4 11.6 12.2 0 4.6-1.5 8.1-4.6 10.7-3.1 2.6-7.4 3.8-12.9 3.8h-17.8V95.6zm6 21.9h9.8c4.2 0 7.2-.7 9-2 1.8-1.3 2.8-3.5 2.8-6.6 0-2.9-1-4.9-3.1-6.2-2-1.3-5.3-1.9-9.8-1.9h-8.7v16.7zm0 5v19.1h10.6c4.1 0 7.2-.8 9.3-2.4 2.1-1.6 3.1-4.1 3.1-7.5 0-3.2-1.1-5.5-3.2-7s-5.4-2.2-9.7-2.2h-10.1z"/>
			<path class="st4" d="M394 108.4v24.8c0 3.1.7 5.4 2.1 7 1.4 1.5 3.6 2.3 6.7 2.3 4 0 6.9-1.1 8.8-3.3 1.8-2.2 2.8-5.8 2.8-10.7v-20.1h5.8v38.2h-4.8l-.8-5.1h-.3c-1.2 1.9-2.8 3.3-4.9 4.3-2.1 1-4.5 1.5-7.2 1.5-4.7 0-8.1-1.1-10.4-3.3-2.3-2.2-3.5-5.7-3.5-10.6v-25h5.7z"/>
			<path class="st4" d="M431.9 98c0-1.3.3-2.3 1-2.9.7-.6 1.5-.9 2.4-.9.9 0 1.7.3 2.4.9.7.6 1 1.6 1 2.9 0 1.3-.3 2.3-1 2.9-.7.6-1.5 1-2.4 1-1 0-1.8-.3-2.4-1-.7-.6-1-1.6-1-2.9zm6.3 48.6h-5.8v-38.2h5.8v38.2z"/>
			<path class="st4" d="M456.2 146.6h-5.8V92.4h5.8v54.2z"/>
			<path class="st4" d="M494.5 141.5h-.3c-2.7 3.9-6.7 5.8-12 5.8-5 0-8.9-1.7-11.7-5.1-2.8-3.4-4.2-8.3-4.2-14.6 0-6.3 1.4-11.2 4.2-14.7 2.8-3.5 6.7-5.2 11.6-5.2 5.2 0 9.2 1.9 11.9 5.6h.5l-.2-2.8-.1-2.7V92.4h5.8v54.3h-4.7l-.8-5.2zm-11.6 1c4 0 6.8-1.1 8.6-3.2 1.8-2.1 2.7-5.6 2.7-10.4v-1.2c0-5.4-.9-9.3-2.7-11.6-1.8-2.3-4.7-3.5-8.6-3.5-3.4 0-6 1.3-7.8 4-1.8 2.6-2.7 6.4-2.7 11.2 0 4.9.9 8.6 2.7 11.1 1.8 2.3 4.4 3.6 7.8 3.6z"/>
		</g>
	</switch>
</svg>
