<svg width="240" height="240" fill="none" xmlns="http://www.w3.org/2000/svg">
	<path d="M180 34H60v120h120V34Z" fill="url(#a)"/>
	<path fill-rule="evenodd" clip-rule="evenodd" d="M121.054 59.321a1.654 1.654 0 1 1 0-2.34v.002c.312.312.485.727.485 1.168 0 .443-.173.858-.485 1.17Zm3.485-1.17a4.624 4.624 0 0 0-1.364-3.29 4.66 4.66 0 0 0-6.58 0 4.624 4.624 0 0 0-1.364 3.29c0 .194.034.381.056.57l-7.856 4.32 1.448 2.628 7.707-4.239a4.64 4.64 0 0 0 3.3 1.372 4.638 4.638 0 0 0 3.289-1.358c.014-.014.023-.03.035-.044l9.498 5.243 1.449-2.627-9.669-5.337c.019-.175.051-.348.051-.528Zm26.247 56.898c-.624.624-1.713.624-2.337-.001a1.645 1.645 0 0 1 0-2.337 1.64 1.64 0 0 1 1.168-.485c.443 0 .857.173 1.169.485a1.646 1.646 0 0 1 0 2.338Zm2.121-4.461a4.42 4.42 0 0 0-1.481-.966v-5.091h-3v4.905c-.778.195-1.515.567-2.098 1.152a4.627 4.627 0 0 0-1.365 3.293c0 .562.112 1.104.303 1.617l-9.273 4.662 1.347 2.68 9.9-4.977a4.606 4.606 0 0 0 5.667-.693 4.624 4.624 0 0 0 1.365-3.291c0-1.243-.486-2.41-1.365-3.289v-.002Zm-63.923 4.584a1.64 1.64 0 0 1-.484-1.168c0-.443.172-.857.484-1.17a1.64 1.64 0 0 1 1.169-.483c.442 0 .858.171 1.17.483v.001c.312.312.485.726.485 1.169 0 .442-.173.856-.485 1.168-.624.624-1.714.626-2.338 0Zm5.824-1.168a4.623 4.623 0 0 0-1.364-3.291c-.564-.564-1.269-.927-2.017-1.13v-5.052h-3v5.181a4.438 4.438 0 0 0-1.564 1.001 4.623 4.623 0 0 0-1.363 3.291c0 1.243.484 2.412 1.364 3.289a4.618 4.618 0 0 0 3.289 1.364c.856 0 1.67-.243 2.383-.674l7.712 3.83 1.333-2.687-7.074-3.513c.19-.51.3-1.05.3-1.609Zm53.618-15.473h3v-7.5h-3v7.5Zm-60 0h3v-7.5h-3v7.5Zm32.628 32.466a1.654 1.654 0 1 1-2.338-2.341 1.654 1.654 0 0 1 2.338 2.341Zm9.578-8.143-7.419 3.729c-.014-.014-.023-.032-.038-.045v-.002a4.602 4.602 0 0 0-1.749-1.083v-10.422h-3v10.398c-.667.221-1.3.578-1.831 1.107-.009.011-.015.023-.026.033l-9.613-4.774-1.334 2.686 9.663 4.799c-.021.181-.054.361-.054.547a4.62 4.62 0 0 0 1.364 3.291 4.638 4.638 0 0 0 3.291 1.361 4.638 4.638 0 0 0 3.289-1.359 4.628 4.628 0 0 0 1.364-3.293c0-.178-.032-.351-.051-.526l7.491-3.767-1.347-2.68Zm18.985-49.265c.423 0 .846.16 1.169.483a1.65 1.65 0 0 1 0 2.34c-.624.624-1.713.624-2.337-.001a1.645 1.645 0 0 1 0-2.338 1.645 1.645 0 0 1 1.168-.484Zm-12.045 11.006 9.756-5.322c.345.196.713.348 1.098.45v5.308h3V79.53a4.651 4.651 0 0 0 1.481-.996 4.625 4.625 0 0 0 1.365-3.29 4.625 4.625 0 0 0-1.365-3.292v-.001c-1.529-1.529-3.863-1.752-5.645-.702l-7.852-4.334-1.449 2.627 7.318 4.04a4.63 4.63 0 0 0-.316 1.661c0 .6.12 1.18.334 1.72l-9.16 4.999 1.435 2.634Zm-16.518 10.123c-.624.624-1.714.626-2.338 0a1.644 1.644 0 0 1-.485-1.17c0-.44.173-.855.485-1.168a1.643 1.643 0 0 1 1.17-.485c.442 0 .856.173 1.168.485v.001c.312.312.485.726.485 1.167 0 .443-.173.858-.485 1.17Zm1.16-5.161a4.83 4.83 0 0 0-4.658 0l-9.717-5.301-1.435 2.632 9.145 4.99a4.622 4.622 0 0 0 1.046 4.96c.52.523 1.152.886 1.831 1.11v11.083h3V97.924a4.604 4.604 0 0 0 1.749-1.083 4.628 4.628 0 0 0 1.046-4.962l8.083-4.41-1.435-2.634-8.655 4.722Zm-33.23-15.485a1.647 1.647 0 0 1 1.169-.483 1.647 1.647 0 0 1 1.654 1.653c0 .441-.172.857-.484 1.17-.624.624-1.714.624-2.338-.001a1.643 1.643 0 0 1-.485-1.169c0-.442.172-.858.484-1.17Zm13.191-8.139-9.662 5.316c-1.785-1.053-4.118-.83-5.65.7a4.627 4.627 0 0 0-1.363 3.293c0 1.244.484 2.412 1.364 3.291.453.453.983.797 1.563 1.028v5.47h3v-5.334c.355-.1.694-.243 1.016-.426l8.694 4.745 1.436-2.634-8.1-4.42a4.63 4.63 0 0 0 .335-1.72c0-.577-.115-1.137-.316-1.66l9.128-5.02-1.445-2.629Z" fill="#fff"/>
	<path d="m42.657 206-2.184-5.824h-8.96L29.328 206h-1.623l7.448-19.404h1.764L44.364 206h-1.707Zm-10.612-7.196h7.923l-3.976-10.472-3.947 10.472Z" fill="#232F3E"/>
	<path d="m60.247 206-4.256-16.604L51.763 206h-1.96l-5.88-19.404h1.792l5.096 17.528 4.228-16.884h2.016l4.2 16.94 5.208-17.584H68.2L62.207 206h-1.96Z" fill="#232F3E"/>
	<path d="M74.674 196.2c-1.438-.56-2.492-1.223-3.164-1.988-.672-.784-1.008-1.745-1.008-2.884 0-1.549.55-2.8 1.652-3.752 1.12-.971 2.585-1.456 4.396-1.456.821 0 1.68.103 2.576.308.914.187 1.773.457 2.576.812v1.428c-1.904-.672-3.594-1.008-5.068-1.008-1.438 0-2.539.317-3.304.952-.766.616-1.148 1.503-1.148 2.66 0 .653.112 1.185.336 1.596.242.392.625.756 1.148 1.092.541.317 1.306.663 2.296 1.036l2.996 1.148c1.344.523 2.324 1.167 2.94 1.932.616.747.924 1.689.924 2.828 0 1.661-.616 3.005-1.848 4.032-1.214 1.027-2.819 1.54-4.816 1.54-2.072 0-3.92-.392-5.544-1.176v-1.428c1.96.709 3.761 1.064 5.404 1.064 1.549 0 2.781-.364 3.696-1.092.933-.728 1.4-1.717 1.4-2.968 0-.765-.252-1.419-.756-1.96-.504-.541-1.316-1.027-2.436-1.456l-3.248-1.26Z" fill="#232F3E"/>
	<path d="m106.996 206-2.184-5.824h-8.96L93.668 206h-1.624l7.448-19.404h1.764L108.704 206h-1.708Zm-10.612-7.196h7.924l-3.976-10.472-3.948 10.472Z" fill="#232F3E"/>
	<path d="M111.282 211.768v-19.852h1.4l.14 1.568c.858-.691 1.689-1.195 2.492-1.512a6.942 6.942 0 0 1 2.52-.476c1.81 0 3.238.653 4.284 1.96 1.045 1.288 1.568 3.061 1.568 5.32 0 2.296-.551 4.125-1.652 5.488-1.102 1.363-2.586 2.044-4.452 2.044-1.718 0-3.286-.635-4.704-1.904v7.364h-1.596Zm6.244-18.816c-1.55 0-3.099.597-4.648 1.792v8.204c.765.653 1.512 1.139 2.24 1.456a5.983 5.983 0 0 0 2.296.448c1.53 0 2.678-.495 3.444-1.484.784-1.008 1.176-2.501 1.176-4.48 0-3.957-1.503-5.936-4.508-5.936Z" fill="#232F3E"/>
	<path d="M127.332 211.768v-19.852h1.4l.14 1.568c.859-.691 1.69-1.195 2.492-1.512a6.95 6.95 0 0 1 2.52-.476c1.811 0 3.239.653 4.284 1.96 1.046 1.288 1.568 3.061 1.568 5.32 0 2.296-.55 4.125-1.652 5.488-1.101 1.363-2.585 2.044-4.452 2.044-1.717 0-3.285-.635-4.704-1.904v7.364h-1.596Zm6.244-18.816c-1.549 0-3.098.597-4.648 1.792v8.204c.766.653 1.512 1.139 2.24 1.456a5.987 5.987 0 0 0 2.296.448c1.531 0 2.679-.495 3.444-1.484.784-1.008 1.176-2.501 1.176-4.48 0-3.957-1.502-5.936-4.508-5.936Z" fill="#232F3E"/>
	<path d="M167.455 206v-16.912l-6.664 11.732h-1.568l-6.664-11.648V206h-1.568v-19.404h1.96l7.112 12.488 7.056-12.488h1.904V206h-1.568Z" fill="#232F3E"/>
	<path d="M174.576 199.224c.019 1.96.448 3.407 1.288 4.34.84.933 2.137 1.4 3.892 1.4 1.605 0 3.145-.327 4.62-.98v1.316c-1.325.747-2.903 1.12-4.732 1.12-2.221 0-3.892-.625-5.012-1.876-1.12-1.269-1.68-3.145-1.68-5.628 0-2.352.56-4.172 1.68-5.46 1.139-1.307 2.725-1.96 4.76-1.96 1.699 0 2.996.485 3.892 1.456.915.971 1.372 2.361 1.372 4.172 0 .84-.056 1.54-.168 2.1h-9.912Zm4.676-6.3c-2.949 0-4.508 1.671-4.676 5.012h8.512c.019-.261.028-.569.028-.924 0-1.344-.327-2.361-.98-3.052-.653-.691-1.615-1.036-2.884-1.036Z" fill="#232F3E"/>
	<path d="M195.34 202.304a1.71 1.71 0 0 0-.56-1.288c-.354-.355-.961-.691-1.82-1.008l-2.548-.952c-1.997-.747-2.996-1.969-2.996-3.668 0-1.157.43-2.091 1.288-2.8.878-.728 2.016-1.092 3.416-1.092.654 0 1.335.075 2.044.224.71.149 1.363.355 1.96.616v1.316c-1.512-.485-2.874-.728-4.088-.728-1.008 0-1.773.205-2.296.616-.522.392-.784.98-.784 1.764 0 .635.178 1.129.532 1.484.374.336 1.092.709 2.156 1.12l2.24.84c1.046.392 1.802.877 2.268 1.456.486.56.728 1.26.728 2.1 0 1.269-.466 2.277-1.4 3.024-.914.728-2.165 1.092-3.752 1.092-1.698 0-3.22-.336-4.564-1.008v-1.316c1.662.597 3.22.896 4.676.896 1.139 0 2.007-.224 2.604-.672.598-.467.896-1.139.896-2.016Z" fill="#232F3E"/>
	<path d="M209.953 206v-9.576c0-1.213-.233-2.091-.7-2.632-.466-.56-1.213-.84-2.24-.84-1.866 0-3.686.597-5.46 1.792V206h-1.596v-20.72h1.596v8.232a12.27 12.27 0 0 1 2.856-1.484c1.008-.355 1.988-.532 2.94-.532 1.363 0 2.399.364 3.108 1.092.728.709 1.092 1.764 1.092 3.164V206h-1.596Z" fill="#232F3E"/>
	<defs>
		<linearGradient id="a" x1="60" y1="154" x2="180" y2="34" gradientUnits="userSpaceOnUse">
			<stop stop-color="#4D27A8" offset="0%"/>
			<stop offset="1" stop-color="#A166FF"/>
		</linearGradient>
	</defs>
</svg>
