<svg version="1.1" id="Layer_1" xmlns="http://www.w3.org/2000/svg" x="0" y="0" viewBox="0 0 500 202.9" style="enable-background:new 0 0 500 202.9" xml:space="preserve">
	<style>
		.st0{fill:#222}.st1{fill:#759c3e}.st2{fill:#445b24}.st3{fill:#36481d}.st4{fill:#cfe1b6}
	</style>
	<switch>
		<g>
			<path class="st0" d="m256.9 79.7-8.2-21h-26.5l-8.1 21h-7.8l26.1-66.4h6.5l26 66.4h-8zm-10.6-28-7.7-20.5c-1-2.6-2-5.8-3.1-9.5-.7 2.9-1.6 6.1-2.8 9.5l-7.8 20.5h21.4z"/>
			<path class="st0" d="M331.6 79.7H324l-13.3-44.3c-.6-2-1.3-4.4-2.1-7.4s-1.2-4.8-1.2-5.4c-.7 4-1.7 8.3-3.2 13.1l-12.9 44h-7.6l-17.6-66.1h8.1l10.4 40.8c1.4 5.7 2.5 10.9 3.2 15.5.8-5.5 2-10.9 3.6-16.2l11.8-40.2h8.1L323.7 54c1.4 4.7 2.7 9.9 3.7 15.8.6-4.3 1.7-9.5 3.3-15.6l10.4-40.7h8.1l-17.6 66.2z"/>
			<path class="st0" d="M396.9 62.1c0 5.8-2.1 10.4-6.3 13.6-4.2 3.3-9.9 4.9-17.2 4.9-7.8 0-13.9-1-18.1-3v-7.4c2.7 1.1 5.7 2.1 8.9 2.7 3.2.7 6.4 1 9.5 1 5.1 0 9-1 11.6-2.9 2.6-1.9 3.9-4.6 3.9-8.1 0-2.3-.5-4.2-1.4-5.6-.9-1.5-2.5-2.8-4.6-4-2.2-1.2-5.4-2.6-9.8-4.2-6.1-2.2-10.5-4.8-13.2-7.8-2.6-3-4-6.9-4-11.8 0-5.1 1.9-9.1 5.7-12.2 3.8-3 8.9-4.5 15.2-4.5 6.6 0 12.6 1.2 18.1 3.6l-2.4 6.7c-5.5-2.3-10.8-3.4-15.9-3.4-4.1 0-7.2.9-9.5 2.6-2.3 1.7-3.4 4.2-3.4 7.3 0 2.3.4 4.2 1.3 5.6.8 1.5 2.3 2.8 4.3 4 2 1.2 5.1 2.6 9.2 4 6.9 2.5 11.7 5.1 14.3 8 2.5 2.7 3.8 6.4 3.8 10.9z"/>
			<path class="st1" d="m49.7 152.7 34 50.2V0l-34 50.2z"/>
			<path class="st2" d="m49.7 152.7 34 9.1V41.1l-34 9.1z"/>
			<path class="st3" d="m49.7 152.7 34 9.1v41.1z"/>
			<path class="st4" d="m117.7 152.7-34 50.2V0l34 50.2z"/>
			<path class="st1" d="m117.7 152.7-34 9.1V41.1l34 9.1z"/>
			<path class="st2" d="m117.7 152.7-34 9.1v41.1z"/>
			<path class="st4" d="m23.3 42.2 23 35.4-31.1-3z"/>
			<path class="st1" d="M23.3 42.2 0 77.6l15.2-3z"/>
			<path class="st3" d="m15.2 74.6 7.2 38.5L0 77.6z"/>
			<path class="st2" d="m46.3 77.6-31.1-3 7.2 38.5z"/>
			<path class="st1" d="m144.9 102.1-23.1 35.4 31.2 2.9z"/>
			<path class="st4" d="m144.9 102.1 23.3 35.4-15.2 2.9z"/>
			<path class="st2" d="m153 140.4-7.2 32.6 22.4-35.5z"/>
			<path class="st3" d="m121.8 137.5 31.2 2.9-7.2 32.6z"/>
			<path d="m252.3 189.4-7.9-20.1h-25.3l-7.8 20.1H204l24.9-63.3h6.2l24.8 63.3h-7.6zm-10.2-26.7-7.3-19.5c-.9-2.5-1.9-5.5-2.9-9.1-.6 2.8-1.5 5.8-2.7 9.1l-7.4 19.5h20.3z"/>
			<path d="M289 141.2c2.1 0 4 .2 5.7.5l-1 6.6c-2-.4-3.7-.6-5.2-.6-3.8 0-7.1 1.6-9.8 4.7-2.7 3.1-4.1 7-4.1 11.6v25.4h-7.2v-47.3h5.9l.8 8.8h.3c1.8-3.1 3.9-5.5 6.3-7.1 2.7-1.7 5.4-2.6 8.3-2.6z"/>
			<path d="M318.8 184.4c1.3 0 2.5-.1 3.7-.3 1.2-.2 2.1-.4 2.8-.6v5.5c-.8.4-1.9.7-3.4.9s-2.9.4-4.1.4c-9.1 0-13.7-4.8-13.7-14.5v-28.1h-6.8v-3.5l6.8-3 3-10.1h4.1v11h13.7v5.6h-13.7v27.8c0 2.8.7 5 2 6.6 1.4 1.5 3.3 2.3 5.6 2.3z"/>
			<path d="M334.1 129.3c0-1.6.4-2.8 1.2-3.6.8-.8 1.8-1.1 3-1.1 1.1 0 2.1.4 3 1.2.8.8 1.3 2 1.3 3.6s-.4 2.8-1.3 3.6c-.8.8-1.8 1.2-3 1.2s-2.2-.4-3-1.2c-.8-.9-1.2-2.1-1.2-3.7zm7.8 60.1h-7.2v-47.3h7.2v47.3z"/>
			<path d="M378.4 147.7h-12v41.7h-7.2v-41.7h-8.5v-3.2l8.5-2.6v-2.6c0-11.6 5.1-17.4 15.2-17.4 2.5 0 5.4.5 8.8 1.5l-1.9 5.7c-2.8-.9-5.1-1.3-7.1-1.3-2.7 0-4.7.9-6 2.7-1.3 1.8-1.9 4.7-1.9 8.7v3.1h12v5.4z"/>
			<path d="m416.1 189.4-1.4-6.7h-.3c-2.4 3-4.7 5-7.1 6-2.3 1.1-5.3 1.6-8.8 1.6-4.7 0-8.4-1.2-11-3.6-2.7-2.4-4-5.9-4-10.3 0-9.6 7.6-14.6 22.9-15l8-.3v-2.9c0-3.7-.8-6.5-2.4-8.2-1.6-1.8-4.2-2.7-7.7-2.7-3.9 0-8.4 1.2-13.4 3.6l-2.2-5.5c2.3-1.3 4.9-2.3 7.7-3 2.8-.7 5.6-1.1 8.3-1.1 5.6 0 9.8 1.3 12.5 3.8 2.7 2.5 4.1 6.5 4.1 12v32.3h-5.2zm-16.2-5c4.5 0 8-1.2 10.5-3.7 2.5-2.4 3.8-5.9 3.8-10.3v-4.3l-7.2.3c-5.7.2-9.8 1.1-12.3 2.7s-3.8 4-3.8 7.3c0 2.6.8 4.6 2.4 5.9 1.6 1.4 3.8 2.1 6.6 2.1z"/>
			<path d="M455.1 190.3c-6.8 0-12.1-2.1-15.9-6.3-3.8-4.2-5.6-10.2-5.6-17.9 0-7.9 1.9-14 5.7-18.3 3.8-4.3 9.2-6.5 16.3-6.5 2.3 0 4.5.2 6.8.7 2.3.5 4.1 1.1 5.4 1.7l-2.2 6.1c-1.6-.6-3.3-1.2-5.2-1.6-1.9-.4-3.5-.6-5-.6-9.6 0-14.4 6.1-14.4 18.4 0 5.8 1.2 10.3 3.5 13.4 2.3 3.1 5.8 4.7 10.4 4.7 3.9 0 8-.8 12.1-2.5v6.3c-3.1 1.5-7.1 2.4-11.9 2.4z"/>
			<path d="M493.5 184.4c1.3 0 2.5-.1 3.7-.3 1.2-.2 2.1-.4 2.8-.6v5.5c-.8.4-1.9.7-3.4.9s-2.9.4-4.1.4c-9.1 0-13.7-4.8-13.7-14.5v-28.1H472v-3.5l6.8-3 3-10.1h4.1v11h13.7v5.6h-13.7v27.8c0 2.8.7 5 2 6.6 1.4 1.5 3.3 2.3 5.6 2.3z"/>
		</g>
	</switch>
</svg>
