<?xml version="1.0" encoding="utf-8"?>
<!-- Generator: Adobe Illustrator 21.1.0, SVG Export Plug-In . SVG Version: 6.00 Build 0)  -->
<svg version="1.1" id="Layer_1" xmlns="http://www.w3.org/2000/svg" xmlns:xlink="http://www.w3.org/1999/xlink" x="0px" y="0px"
	 viewBox="0 0 50.2 40.3" style="enable-background:new 0 0 50.2 40.3;" xml:space="preserve">
<style type="text/css">
	.st0{fill:#B7CA9D;}
	.st1{fill:#3C4929;}
	.st2{fill:#759C3E;}
	.st3{fill:#4B612C;}
</style>
<g>
	<g>
		<g>
			<path class="st0" d="M13.2,23.2l0.2,0.3l11.8,3.3l0.1-2.1l-8.3-2.1l-0.4-0.1L13.2,23.2"/>
			<path class="st0" d="M37.2,23.2l-12.1,4l0-2.5l8.3-2.1l0.4-0.4L37.2,23.2"/>
		</g>
		<path class="st1" d="M25.1,8.9l8.3,1.9l3.6-0.2l0.2-0.4L25.7,6.2L25.1,8.9"/>
		<path class="st2" d="M17.1,22.6l-3.8,0.5l-0.1-0.4v-12l0.1-0.4l3.5,0.3l0.4,0.3L17.1,22.6"/>
		<path class="st1" d="M25.3,8.9l-8.3,1.9l-3.8-0.5l0.1-0.2l11.9-3.4L25.3,8.9"/>
		<path class="st3" d="M25.2,0L11.5,6.9l0,19.6l13.7,6.9l0.2-0.3V0.4L25.2,0z M21.2,25.5l-7.9-2.4V10.3l7.9-2.4V25.5z M33.4,22.6
			l3.8,0.5l0.2-0.4V10.7l-0.2-0.4l-3.8,0.5V22.6"/>
		<path class="st2" d="M25.2,33.5L39,26.6l0-19.6L25.2,0V33.5z M29.2,7.9l7.9,2.4v12.8l-7.9,2.4V7.9z"/>
	</g>
</g>
<g>
	<path d="M1,39.5l-0.3,0.8H0l1.2-3.5h1l1.2,3.5H2.6l-0.3-0.8H1z M2.1,38.8l-0.5-1.5h0l-0.5,1.5L2.1,38.8z M4.1,40.3l-0.9-3.5H4
		l0.5,2.7h0l0.7-2.7h0.7l0.7,2.7h0c0.1-0.8,0.5-2.1,0.6-2.7h0.7L7,40.3H6.2l-0.6-2.5h0l-0.6,2.5H4.1z M8.9,39.2
		c0.1,0.4,0.3,0.5,0.7,0.5c0.4,0,0.6-0.2,0.6-0.4c0-0.3-0.2-0.4-0.8-0.6c-1-0.2-1.2-0.6-1.2-1c0-0.6,0.5-1,1.3-1
		c0.9,0,1.3,0.5,1.4,1h-0.8c0-0.2-0.2-0.5-0.6-0.5c-0.3,0-0.5,0.1-0.5,0.4c0,0.2,0.1,0.3,0.7,0.5c1,0.2,1.2,0.6,1.2,1.1
		c0,0.6-0.5,1.1-1.4,1.1c-0.9,0-1.4-0.4-1.4-1.1L8.9,39.2z M15.8,39.2c-0.1,0.7-0.6,1.1-1.5,1.1c-1.1,0-1.6-0.8-1.6-1.8
		c0-1,0.5-1.8,1.7-1.8c0.9,0,1.4,0.6,1.5,1.1h-0.8c-0.1-0.3-0.3-0.5-0.7-0.5c-0.6,0-0.9,0.6-0.9,1.2c0,0.6,0.2,1.2,0.9,1.2
		c0.3,0,0.6-0.2,0.7-0.5L15.8,39.2z M16.3,40.3v-3.7h0.7v3.7L16.3,40.3z"/>
	<g>
		<path id="C" d="M20.1,38.9c0-0.8-0.5-1.4-1.3-1.4c-0.8,0-1.3,0.6-1.3,1.4c0,0.8,0.5,1.4,1.3,1.4C19.6,40.3,20.1,39.7,20.1,38.9
			L20.1,38.9z M18.2,38.9c0-0.6,0.2-0.8,0.6-0.8c0.4,0,0.6,0.3,0.6,0.8c0,0.5-0.2,0.8-0.6,0.8S18.2,39.4,18.2,38.9L18.2,38.9z"/>
	</g>
	<path d="M22.9,37.6h-0.7V39c0,0.5-0.1,0.7-0.5,0.7c-0.3,0-0.4-0.2-0.4-0.5v-1.6h-0.7v1.7c0,0.7,0.3,1,0.9,1c0.3,0,0.6-0.1,0.7-0.4
		c0,0.1,0,0.2,0,0.3h0.7l0-0.8L22.9,37.6z M25.2,36.5v1.3c-0.1-0.1-0.3-0.3-0.6-0.3c-0.7,0-1.2,0.6-1.2,1.4c0,0.8,0.4,1.4,1.1,1.4
		c0.4,0,0.6-0.1,0.7-0.3l0,0.3H26v-3.7L25.2,36.5z M24.1,38.9c0-0.5,0.2-0.8,0.6-0.8c0.5,0,0.5,0.3,0.5,0.8c0,0.4-0.1,0.8-0.6,0.8
		C24.3,39.7,24.1,39.5,24.1,38.9L24.1,38.9z M26.7,40.3h0.7v-1.4H29v-0.6h-1.6v-0.9h1.7v-0.6h-2.4V40.3z"/>
	<g>
		<path id="C_1_" d="M32,38.9c0-0.8-0.5-1.4-1.3-1.4c-0.8,0-1.3,0.6-1.3,1.4c0,0.8,0.5,1.4,1.3,1.4C31.6,40.3,32,39.7,32,38.9
			L32,38.9z M30.2,38.9c0-0.6,0.2-0.8,0.6-0.8c0.4,0,0.6,0.3,0.6,0.8c0,0.5-0.2,0.8-0.6,0.8S30.2,39.4,30.2,38.9L30.2,38.9z"/>
	</g>
	<path d="M32.5,40.3h0.7v-1.1c0-0.7,0.3-0.9,0.8-0.9v-0.7c-0.4,0-0.7,0.2-0.8,0.5c0-0.1,0-0.4,0-0.5h-0.7l0,0.7L32.5,40.3z
		 M34.5,40.3h0.7v-1.5c0-0.5,0.1-0.6,0.4-0.6c0.3,0,0.4,0.2,0.4,0.5v1.6h0.7v-1.5c0-0.4,0.1-0.6,0.4-0.6c0.3,0,0.4,0.2,0.4,0.5v1.6
		h0.7v-1.7c0-0.7-0.4-1-0.8-1c-0.3,0-0.6,0.1-0.8,0.4c-0.1-0.3-0.4-0.4-0.7-0.4c-0.3,0-0.6,0.1-0.7,0.4c0-0.1,0-0.3,0-0.3h-0.7
		l0,0.7L34.5,40.3z M41.1,38.5c0-0.6-0.4-0.9-1.1-0.9c-0.8,0-1.1,0.4-1.1,0.8h0.7c0-0.2,0.1-0.3,0.4-0.3c0.3,0,0.4,0.2,0.4,0.4v0.2
		H40c-0.8,0-1.3,0.3-1.3,0.9c0,0.4,0.3,0.8,0.9,0.8c0.5,0,0.6-0.2,0.7-0.3c0,0.1,0,0.2,0,0.3h0.7c0-0.2,0-0.5,0-0.7L41.1,38.5z
		 M40.4,39.1c0,0.3-0.1,0.7-0.5,0.7c-0.3,0-0.4-0.2-0.4-0.4c0-0.3,0.2-0.4,0.6-0.4L40.4,39.1L40.4,39.1z M41.5,38.2h0.4v1.4
		c0,0.5,0.2,0.7,0.7,0.7c0.2,0,0.3,0,0.5-0.1v-0.5c-0.1,0-0.1,0-0.2,0c-0.2,0-0.3-0.1-0.3-0.3v-1.3h0.5v-0.6h-0.5v-0.7h-0.7v0.7
		h-0.4L41.5,38.2z M43.5,37.2h0.7v-0.7h-0.7V37.2z M43.5,40.3h0.7v-2.6h-0.7V40.3z"/>
	<g>
		<path id="C_2_" d="M47.3,38.9c0-0.8-0.5-1.4-1.3-1.4c-0.8,0-1.3,0.6-1.3,1.4c0,0.8,0.5,1.4,1.3,1.4C46.9,40.3,47.3,39.7,47.3,38.9
			L47.3,38.9z M45.5,38.9c0-0.6,0.2-0.8,0.6-0.8c0.4,0,0.6,0.3,0.6,0.8c0,0.5-0.2,0.8-0.6,0.8C45.7,39.7,45.5,39.4,45.5,38.9
			L45.5,38.9z"/>
	</g>
	<path d="M47.8,40.3h0.7v-1.5c0-0.5,0.2-0.6,0.5-0.6c0.3,0,0.4,0.2,0.4,0.5v1.6h0.7v-1.7c0-0.7-0.3-1-0.9-1c-0.5,0-0.7,0.2-0.8,0.4
		c0-0.1,0-0.2,0-0.3h-0.7l0,0.7L47.8,40.3z"/>
</g>
</svg>
