<svg version="1.1" id="Layer_1" xmlns="http://www.w3.org/2000/svg" x="0" y="0" viewBox="0 0 50.2 40.3" style="enable-background:new 0 0 50.2 40.3" xml:space="preserve">
	<style>
		.st0{fill:#b7ca9d}.st1{fill:#3c4929}.st2{fill:#759c3e}
	</style>
	<path class="st0" d="m13.2 23.2.2.3 11.8 3.3.1-2.1-8.3-2.1-.4-.1-3.4.7"/>
	<path class="st0" d="m37.2 23.2-12.1 4v-2.5l8.3-2.1.4-.4 3.4 1"/>
	<path class="st1" d="m25.1 8.9 8.3 1.9 3.6-.2.2-.4-11.5-4-.6 2.7"/>
	<path class="st2" d="m17.1 22.6-3.8.5-.1-.4v-12l.1-.4 3.5.3.4.3-.1 11.7"/>
	<path class="st1" d="M25.3 8.9 17 10.8l-3.8-.5.1-.2 11.9-3.4.1 2.2"/>
	<path d="M25.2 0 11.5 6.9v19.6l13.7 6.9.2-.3V.4l-.2-.4zm-4 25.5-7.9-2.4V10.3l7.9-2.4v17.6zm12.2-2.9 3.8.5.2-.4v-12l-.2-.4-3.8.5v11.8" style="fill:#4b612c"/>
	<path class="st2" d="M25.2 33.5 39 26.6V7L25.2 0v33.5zm4-25.6 7.9 2.4v12.8l-7.9 2.4V7.9z"/>
	<path d="m1 39.5-.3.8H0l1.2-3.5h1l1.2 3.5h-.8l-.3-.8H1zm1.1-.7-.5-1.5-.5 1.5h1zm2 1.5-.9-3.5H4l.5 2.7.7-2.7h.7l.7 2.7c.1-.8.5-2.1.6-2.7h.7L7 40.3h-.8l-.6-2.5-.6 2.5h-.9zm4.8-1.1c.1.4.3.5.7.5.4 0 .6-.2.6-.4 0-.3-.2-.4-.8-.6-1-.2-1.2-.6-1.2-1 0-.6.5-1 1.3-1 .9 0 1.3.5 1.4 1h-.8c0-.2-.2-.5-.6-.5-.3 0-.5.1-.5.4 0 .2.1.3.7.5 1 .2 1.2.6 1.2 1.1 0 .6-.5 1.1-1.4 1.1-.9 0-1.4-.4-1.4-1.1h.8zm6.9 0c-.1.7-.6 1.1-1.5 1.1-1.1 0-1.6-.8-1.6-1.8s.5-1.8 1.7-1.8c.9 0 1.4.6 1.5 1.1h-.8c-.1-.3-.3-.5-.7-.5-.6 0-.9.6-.9 1.2s.2 1.2.9 1.2c.3 0 .6-.2.7-.5h.7zm.5 1.1v-3.7h.7v3.7h-.7z"/>
	<path id="C" d="M20.1 38.9c0-.8-.5-1.4-1.3-1.4s-1.3.6-1.3 1.4c0 .8.5 1.4 1.3 1.4s1.3-.6 1.3-1.4zm-1.9 0c0-.6.2-.8.6-.8.4 0 .6.3.6.8s-.2.8-.6.8-.6-.3-.6-.8z"/>
	<path d="M22.9 37.6h-.7V39c0 .5-.1.7-.5.7-.3 0-.4-.2-.4-.5v-1.6h-.7v1.7c0 .7.3 1 .9 1 .3 0 .6-.1.7-.4v.3h.7v-2.6zm2.3-1.1v1.3c-.1-.1-.3-.3-.6-.3-.7 0-1.2.6-1.2 1.4 0 .8.4 1.4 1.1 1.4.4 0 .6-.1.7-.3v.3h.8v-3.7l-.8-.1zm-1.1 2.4c0-.5.2-.8.6-.8.5 0 .5.3.5.8 0 .4-.1.8-.6.8-.3 0-.5-.2-.5-.8zm2.6 1.4h.7v-1.4H29v-.6h-1.6v-.9h1.7v-.6h-2.4v3.5z"/>
	<path id="C_1_" d="M32 38.9c0-.8-.5-1.4-1.3-1.4s-1.3.6-1.3 1.4c0 .8.5 1.4 1.3 1.4.9 0 1.3-.6 1.3-1.4zm-1.8 0c0-.6.2-.8.6-.8.4 0 .6.3.6.8s-.2.8-.6.8-.6-.3-.6-.8z"/>
	<path d="M32.5 40.3h.7v-1.1c0-.7.3-.9.8-.9v-.7c-.4 0-.7.2-.8.5v-.5h-.7v2.7zm2 0h.7v-1.5c0-.5.1-.6.4-.6.3 0 .4.2.4.5v1.6h.7v-1.5c0-.4.1-.6.4-.6.3 0 .4.2.4.5v1.6h.7v-1.7c0-.7-.4-1-.8-1-.3 0-.6.1-.8.4-.1-.3-.4-.4-.7-.4-.3 0-.6.1-.7.4v-.3h-.7V40.3zm6.6-1.8c0-.6-.4-.9-1.1-.9-.8 0-1.1.4-1.1.8h.7c0-.2.1-.3.4-.3.3 0 .4.2.4.4v.2H40c-.8 0-1.3.3-1.3.9 0 .4.3.8.9.8.5 0 .6-.2.7-.3v.3h.7v-.7l.1-1.2zm-.7.6c0 .3-.1.7-.5.7-.3 0-.4-.2-.4-.4 0-.3.2-.4.6-.4l.3.1zm1.1-.9h.4v1.4c0 .5.2.7.7.7.2 0 .3 0 .5-.1v-.5h-.2c-.2 0-.3-.1-.3-.3v-1.3h.5v-.6h-.5v-.7h-.7v.7h-.4v.7zm2-1h.7v-.7h-.7v.7zm0 3.1h.7v-2.6h-.7v2.6z"/>
	<path id="C_2_" d="M47.3 38.9c0-.8-.5-1.4-1.3-1.4s-1.3.6-1.3 1.4c0 .8.5 1.4 1.3 1.4.9 0 1.3-.6 1.3-1.4zm-1.8 0c0-.6.2-.8.6-.8.4 0 .6.3.6.8s-.2.8-.6.8c-.4 0-.6-.3-.6-.8z"/>
	<path d="M47.8 40.3h.7v-1.5c0-.5.2-.6.5-.6s.4.2.4.5v1.6h.7v-1.7c0-.7-.3-1-.9-1-.5 0-.7.2-.8.4v-.3h-.7v.7l.1 1.9z"/>
</svg>
