<?xml version="1.0" encoding="utf-8"?>
<!-- Generator: Adobe Illustrator 22.0.1, SVG Export Plug-In . SVG Version: 6.00 Build 0)  -->
<svg version="1.1" id="Layer_1" xmlns="http://www.w3.org/2000/svg" xmlns:xlink="http://www.w3.org/1999/xlink" x="0px" y="0px"
	 viewBox="0 0 284.3 170" style="enable-background:new 0 0 284.3 170;" xml:space="preserve">
<style type="text/css">
	.st0{fill:#252F3E;}
	.st1{fill:#FF9900;}
	.st2{fill:#EA4335;}
	.st3{fill:#4285F4;}
	.st4{fill:#34A853;}
	.st5{fill:#FBBC05;}
	.st6{fill:#0080FF;}
	.st7{fill:#B80017;}
</style>
<g>
	<path class="st0" d="M80.1,61.7c0,3.5,0.4,6.3,1,8.4c0.8,2.1,1.7,4.3,3,6.8c0.5,0.8,0.7,1.5,0.7,2.2c0,0.9-0.6,1.9-1.8,2.8l-6,4
		c-0.9,0.6-1.7,0.9-2.5,0.9c-0.9,0-1.9-0.5-2.8-1.3c-1.3-1.4-2.5-2.9-3.4-4.4c-0.9-1.6-1.9-3.4-2.9-5.6c-7.4,8.7-16.6,13-27.8,13
		c-7.9,0-14.3-2.3-18.9-6.8c-4.6-4.5-7-10.6-7-18.2c0-8,2.8-14.6,8.6-19.5s13.4-7.4,23.2-7.4c3.2,0,6.5,0.3,10,0.8
		c3.5,0.5,7.1,1.2,10.9,2.1v-6.9c0-7.2-1.5-12.2-4.4-15.1c-3-2.9-8.1-4.3-15.4-4.3c-3.3,0-6.7,0.4-10.2,1.2
		c-3.5,0.9-6.9,1.9-10.2,3.2c-1.5,0.7-2.6,1-3.3,1.2c-0.7,0.2-1.1,0.3-1.5,0.3c-1.3,0-2-0.9-2-2.9v-4.6c0-1.5,0.2-2.6,0.7-3.3
		c0.5-0.7,1.3-1.3,2.6-2C24,4.5,27.9,3.1,32.6,2c4.6-1.2,9.5-1.8,14.7-1.8c11.3,0,19.5,2.6,24.8,7.7c5.2,5.1,7.8,12.9,7.8,23.3v30.6
		H80.1z M41.7,76.1c3.1,0,6.3-0.6,9.7-1.7c3.4-1.1,6.4-3.2,9-6.1c1.5-1.8,2.6-3.8,3.2-6.1c0.6-2.3,0.9-5,0.9-8.2v-4
		c-2.7-0.7-5.7-1.2-8.7-1.6c-3-0.4-6-0.6-8.9-0.6c-6.3,0-11,1.2-14.1,3.8c-3.1,2.6-4.6,6.1-4.6,10.9c0,4.4,1.1,7.8,3.5,10
		C34.1,75,37.4,76.1,41.7,76.1z M117.6,86.3c-1.7,0-2.8-0.3-3.6-0.9c-0.8-0.6-1.4-1.9-2-3.7L89.9,8.6C89.3,6.7,89,5.5,89,4.8
		c0-1.5,0.8-2.4,2.3-2.4h9.3c1.8,0,3,0.3,3.7,0.9c0.8,0.6,1.3,1.9,1.9,3.7L122,69.7l14.7-62.6c0.5-1.9,1-3.1,1.8-3.7
		s2.1-0.9,3.8-0.9h7.6c1.8,0,3,0.3,3.8,0.9c0.8,0.6,1.4,1.9,1.8,3.7l14.9,63.3l16.4-63.3c0.6-1.9,1.2-3.1,1.9-3.7
		c0.8-0.6,2-0.9,3.7-0.9h8.8c1.5,0,2.4,0.8,2.4,2.4c0,0.5-0.1,0.9-0.2,1.5s-0.3,1.3-0.7,2.4l-22.8,73.1c-0.6,1.9-1.2,3.1-2,3.7
		c-0.8,0.6-2,0.9-3.6,0.9h-8.1c-1.8,0-3-0.3-3.8-0.9c-0.8-0.7-1.4-1.9-1.8-3.8l-14.7-61l-14.6,60.9c-0.5,1.9-1,3.1-1.8,3.8
		c-0.8,0.7-2.1,0.9-3.8,0.9H117.6z M239.1,88.9c-4.9,0-9.8-0.6-14.6-1.7c-4.7-1.1-8.4-2.4-10.9-3.8c-1.5-0.9-2.6-1.8-2.9-2.6
		c-0.4-0.9-0.6-1.8-0.6-2.6v-4.8c0-2,0.8-2.9,2.2-2.9c0.6,0,1.1,0.1,1.7,0.3c0.6,0.2,1.4,0.6,2.4,0.9c3.2,1.4,6.7,2.6,10.4,3.3
		c3.8,0.8,7.5,1.1,11.3,1.1c6,0,10.6-1,13.8-3.1c3.2-2.1,4.9-5.1,4.9-9c0-2.6-0.9-4.8-2.6-6.6c-1.7-1.8-4.9-3.4-9.5-4.9L231,48.1
		c-6.9-2.2-12-5.4-15.1-9.6c-3.1-4.2-4.7-8.8-4.7-13.7c0-4,0.9-7.5,2.6-10.5c1.7-3,4-5.7,6.8-7.8c2.8-2.2,6.1-3.8,9.8-4.9
		S238.1,0,242.3,0c2.1,0,4.3,0.1,6.3,0.4c2.2,0.3,4.2,0.7,6.1,1c1.9,0.5,3.7,0.9,5.4,1.5c1.7,0.6,3,1.1,4,1.7
		c1.3,0.8,2.3,1.5,2.8,2.4c0.6,0.8,0.9,1.8,0.9,3.1v4.4c0,2-0.8,3-2.2,3c-0.8,0-2-0.4-3.6-1.1c-5.4-2.5-11.4-3.7-18.2-3.7
		c-5.4,0-9.6,0.9-12.6,2.6c-2.9,1.8-4.4,4.5-4.4,8.4c0,2.6,0.9,4.9,2.8,6.7c1.9,1.8,5.4,3.6,10.4,5.2l13.4,4.3
		c6.8,2.2,11.7,5.2,14.7,9.1s4.3,8.3,4.3,13.2c0,4.1-0.9,7.8-2.5,11c-1.7,3.2-4,6.1-6.9,8.3c-2.9,2.4-6.4,4.1-10.5,5.3
		C248.4,88.2,244,88.9,239.1,88.9z"/>
	<path class="st1" d="M257,134.8c-31.1,23-76.3,35.2-115.2,35.2c-54.5,0-103.5-20.1-140.6-53.6c-2.9-2.6-0.3-6.2,3.2-4.2
		c40.1,23.3,89.5,37.3,140.7,37.3c34.5,0,72.4-7.2,107.3-21.9C257.7,125.3,262.1,131,257,134.8z M270,120.1
		c-4-5.1-26.3-2.5-36.4-1.2c-3,0.4-3.5-2.3-0.8-4.3c17.8-12.5,47-8.9,50.4-4.7c3.4,4.3-0.9,33.5-17.6,47.5c-2.6,2.2-5,1-3.9-1.8
		C265.5,146.2,273.9,125.1,270,120.1z"/>
</g>
</svg>
