<svg xmlns="http://www.w3.org/2000/svg" viewBox="242.57 -110.43 698.36 348.86" style="enable-background:new 196 -242 792 612">
	<style>
		.st0{fill:#010101}.st1{fill:#fc4c02}
	</style>
	<switch>
		<g>
			<g id="XMLID_250_">
				<g id="XMLID_258_">
					<g id="XMLID_326_">
						<path id="XMLID_327_" d="M487.948 134.314c-.35-3.11-.526-9.222-.526-18.336v-14.966c0-5.197-.424-9.44-1.268-12.74-.845-3.297-3.113-6.112-6.803-8.443-3.69-2.329-9.472-3.493-17.348-3.493-8.41 0-15.057 1.61-19.966 4.8l6.95 6.948c2.782-1.77 6.564-2.656 11.347-2.656 3.749 0 6.74.451 8.967 1.36 2.225.905 3.843 2.1 4.855 3.586 1.008 1.484 1.617 2.916 1.824 4.299.206 1.382.31 3.74.31 7.08-2.516.906-5.712 1.67-9.586 2.287l-10.392 1.548c-9.523 1.155-16.213 3.497-20.07 7.021-3.853 3.525-5.782 8.01-5.782 13.453 0 5.69 2 10.265 5.999 13.729 4 3.464 9.464 5.194 16.39 5.194 8.659 0 16.72-3.217 24.184-9.645.451 3.338 1.214 6.039 2.287 8.1h11.689c-1.691-2.97-2.71-6.01-3.061-9.126m-11.658-19.758c0 7.879-2.094 13.453-6.277 16.73-4.187 3.279-9.02 4.916-14.504 4.916-4.247 0-7.506-.979-9.773-2.936-2.268-1.959-3.401-4.443-3.401-7.454 0-5.977 4.206-9.536 12.618-10.67 8.41-1.131 15.524-2.667 21.337-4.606v4.02z" class="st0"/>
					</g>
					<g id="XMLID_312_">
						<path id="XMLID_323_" d="M824.415 134.314c-.351-3.11-.526-9.222-.526-18.336v-14.966c0-5.197-.425-9.44-1.267-12.74-.849-3.297-3.114-6.112-6.805-8.443-3.692-2.329-9.472-3.493-17.349-3.493-8.41 0-15.058 1.61-19.965 4.8l6.951 6.948c2.783-1.77 6.563-2.656 11.346-2.656 3.748 0 6.74.451 8.967 1.36 2.225.905 3.843 2.1 4.856 3.586 1.006 1.484 1.618 2.916 1.825 4.299.204 1.382.306 3.74.306 7.08-2.514.906-5.71 1.67-9.584 2.287l-10.39 1.548c-9.527 1.155-16.214 3.497-20.07 7.021-3.855 3.525-5.784 8.01-5.784 13.453 0 5.69 2 10.265 6 13.729 3.998 3.464 9.463 5.194 16.39 5.194 8.657 0 16.719-3.217 24.184-9.645.45 3.338 1.213 6.039 2.286 8.1h11.689c-1.691-2.97-2.712-6.01-3.06-9.126m-11.66-19.758c0 7.879-2.093 13.453-6.276 16.73-4.188 3.279-9.02 4.916-14.506 4.916-4.244 0-7.504-.979-9.772-2.936-2.266-1.959-3.4-4.443-3.4-7.454 0-5.977 4.206-9.536 12.616-10.67 8.41-1.131 15.524-2.667 21.337-4.606v4.02z" class="st0"/>
					</g>
					<g id="XMLID_308_">
						<path id="XMLID_309_" d="M627.316 112.789h-50.19c.465 7.41 2.579 13.068 6.348 16.982 3.765 3.914 8.465 5.87 14.105 5.87 4.336 0 7.976-1.148 10.923-3.44 2.947-2.29 5.781-6.057 6.754-11.475h11.667c-.9 9.03-5.354 14.896-10.403 18.639-5.05 3.749-11.362 5.62-18.94 5.62-10.06 0-17.919-3.084-23.578-9.248-5.66-6.164-8.49-14.593-8.49-25.283 0-10.56 2.745-19.128 8.238-25.692 5.492-6.566 13.227-9.849 23.2-9.849 4.881 0 9.584 1.074 14.11 3.221 4.525 2.147 8.362 5.796 11.518 10.953 3.156 5.155 4.738 13.056 4.738 23.702m-11.68-9.345c-.466-6.814-2.581-11.726-6.346-14.737-3.764-3.006-7.882-4.513-12.34-4.513-5.346 0-9.743 1.787-13.194 5.366-3.453 3.575-5.45 8.206-5.999 13.884h37.879z" class="st0"/>
					</g>
					<g id="XMLID_304_">
						<path id="XMLID_305_" d="M723.77 112.789h-50.188c.46 7.41 2.578 13.068 6.345 16.982 3.765 3.914 8.468 5.87 14.106 5.87 4.336 0 7.976-1.148 10.923-3.44 2.947-2.29 5.78-6.057 6.754-11.475h11.67c-.903 9.03-5.357 14.896-10.406 18.639-5.05 3.749-11.362 5.62-18.941 5.62-10.06 0-17.918-3.084-23.577-9.248-5.66-6.164-8.49-14.593-8.49-25.283 0-10.56 2.745-19.128 8.24-25.692 5.488-6.566 13.224-9.849 23.198-9.849 4.88 0 9.584 1.074 14.11 3.221 4.524 2.147 8.362 5.796 11.52 10.953 3.153 5.155 4.735 13.056 4.735 23.702m-11.68-9.345c-.465-6.814-2.578-11.726-6.342-14.737-3.768-3.006-7.886-4.513-12.343-4.513-5.346 0-9.743 1.787-13.195 5.366-3.45 3.575-5.452 8.206-5.998 13.884h37.878z" class="st0"/>
					</g>
					<g id="XMLID_302_">
						<path id="XMLID_303_" d="M890.96 143.44h-11.192v-39.892c0-6.721-1.205-11.339-3.62-13.855-2.412-2.514-5.762-3.772-10.05-3.772-3.299 0-6.425.805-9.37 2.412-2.948 1.608-5.04 3.876-6.278 6.803-1.236 2.927-1.857 7.071-1.857 12.432v35.872h-11.129V77.819h10.019v9.277h.246c2.35-3.587 5.25-6.277 8.69-8.072 3.442-1.792 7.43-2.689 11.966-2.689 3.464 0 6.888.618 10.27 1.854 3.38 1.238 6.03 3.094 7.944 5.568 1.917 2.472 3.126 5.113 3.618 7.917.497 2.802.743 6.596.743 11.379v40.387z" class="st0"/>
					</g>
					<g id="XMLID_300_">
						<path id="XMLID_301_" d="M761.213 76.335c-4.537 0-8.524.897-11.966 2.69-3.44 1.794-6.34 4.484-8.69 8.071h-.247V77.82h-10.018v65.62h11.129v-35.871c0-5.36.62-9.505 1.857-12.432 1.238-2.927 3.33-5.195 6.277-6.804 2.946-1.606 6.072-2.411 9.371-2.411 2.318 0 4.352.38 6.122 1.116V76.62c-1.272-.171-2.549-.285-3.835-.285" class="st0"/>
					</g>
					<g id="XMLID_263_">
						<path id="XMLID_264_" d="M922.84 133.916c-2.764 0-4.486-.69-5.163-2.074-.682-1.38-1.02-3.72-1.02-7.018V86.416h11.13v-8.597h-11.13V54.75l-11.135 6.742v16.327h-8.103v8.597h8.103v37.788c0 4.7.246 8.372.743 11.01.495 2.64 1.854 4.814 4.084 6.525 2.221 1.71 5.771 2.565 10.636 2.565.7 0 1.465-.042 2.266-.105v-10.305c-.137.003-.277.022-.411.022" class="st0"/>
					</g>
					<g id="XMLID_261_">
						<path id="XMLID_262_" d="M561.297 143.44h-13.73l-17.07-25.975-17.255 25.975h-13.546l24.06-34.203-22.142-31.418h13.792c8.988 13.567 13.894 21.133 14.72 22.698l16.08-22.698h13.297l-22.698 30.801 24.492 34.82z" class="st1"/>
					</g>
					<g id="XMLID_259_">
						<path id="XMLID_260_" d="M638.168 124.204c0 4.702.25 8.371.743 11.01.495 2.64 1.857 4.814 4.083 6.526 2.225 1.708 5.772 2.563 10.637 2.563.702 0 1.468-.042 2.265-.103v-10.305c-.134.003-.274.02-.41.02-2.761 0-4.483-.69-5.16-2.073-.685-1.38-1.023-3.718-1.023-7.019V54.75h-11.135v69.454z" class="st0"/>
					</g>
				</g>
				<g id="XMLID_251_">
					<g id="XMLID_256_">
						<path id="XMLID_257_" d="M256.213 24.476h38.384l58.497 84.845-58.571 93.619h-38.31l57.774-94.652z" class="st1"/>
					</g>
					<g id="XMLID_254_">
						<path id="XMLID_255_" d="m372.508 137.032-16.956 31.36 39.192 56.778h38.223z" class="st1"/>
					</g>
					<g id="XMLID_252_">
						<path id="XMLID_253_" d="M339.234-14.475c-5.717 8.19-17.46 18.936-8.843 32.395 8.617 13.46 12.874 20.117 17.987 27.35 5.133 7.26 24.232 35.088 24.232 35.088s47.377-79.191 49.562-82.834c2.185-3.642 2.914-10.926-5.827-20.395-8.741-9.47-32.779-32.05-40.063-43.706-7.285-11.654-7.285-30.593-7.285-30.593s-6.881 14.049-7.284 22.58c-.52 11.015 8.74 24.767 15.297 36.422 6.556 11.655 8.741 22.58 8.741 29.137s-5.827 13.84-5.827 13.84-.758-14.968-7.314-21.523c-6.556-6.556-11.909-11.972-17.268-24.557-4.667 11.742-1.409 23.395 1.505 32.865 2.914 9.469-1.054 17.867-3.875 25.7-3.06-3.118 2.37-9.338-5.91-16.715-6.16-5.264-8.133-10.625-7.828-15.054z" class="st1"/>
					</g>
				</g>
			</g>
		</g>
	</switch>
</svg>
