<svg xmlns="http://www.w3.org/2000/svg" width="200" height="128"><defs><style>.cls-1{fill:#3999c6;}.cls-2{fill:#fcd116;}.cls-3{fill:#ff8c00;opacity:0.3;isolation:isolate;}.cls-4{fill:#706d6e;}</style></defs><path class="cls-1" d="M126.65,46.34a1.52,1.52,0,0,0,0-1.94L124,41.78,112.4,30.48a1.34,1.34,0,0,0-1.86,0h0a1.29,1.29,0,0,0,0,1.94l12.23,12a1.42,1.42,0,0,1,0,1.94l-12.48,12.4a1.42,1.42,0,0,0,0,1.94h0a1.41,1.41,0,0,0,1.85,0L123.7,49.2l.08-.08Zm-53.3,0a1.52,1.52,0,0,1,0-1.94L76,41.78,87.6,30.48a1.34,1.34,0,0,1,1.86,0h0a1.29,1.29,0,0,1,0,1.94l-12,12a1.44,1.44,0,0,0,0,1.94l12.23,12.4a1.42,1.42,0,0,1,0,1.94h0a1.41,1.41,0,0,1-1.85,0L76.05,49.37,76,49.29Z"/><polygon class="cls-2" points="113.16 21.12 96.71 21.12 87.86 46.08 98.65 46.17 90.22 70.88 113.49 37.9 102.19 37.9 113.16 21.12"/><polygon class="cls-3" points="102.19 37.9 113.16 21.12 104.55 21.12 95.45 41.87 106.24 41.95 90.22 70.88 113.49 37.9 102.19 37.9"/><path class="cls-4" d="M90.6,89.34H89.24l-1.11-3H83.67l-1,3H81.26l4-10.51h1.27Zm-2.87-4-1.65-4.48a3.34,3.34,0,0,1-.16-.7h0a4.22,4.22,0,0,1-.17.7l-1.64,4.48Zm9.49-3.11-4.44,6.13h4.39v1H91V89l4.44-6.1h-4v-1h5.79Zm7.61,7.16h-1.2V88.15h0a2.45,2.45,0,0,1-2.31,1.36c-1.79,0-2.68-1.06-2.68-3.19V81.84H99.8v4.29c0,1.58.61,2.37,1.82,2.37a1.82,1.82,0,0,0,1.45-.65,2.5,2.5,0,0,0,.56-1.69V81.84h1.2Zm6.34-6.29a1.47,1.47,0,0,0-.91-.24,1.51,1.51,0,0,0-1.28.73,3.29,3.29,0,0,0-.52,2v3.83h-1.2v-7.5h1.2v1.54h0a2.61,2.61,0,0,1,.78-1.23,1.77,1.77,0,0,1,1.18-.44,2,2,0,0,1,.72.1Zm7.13,2.84H113a2.8,2.8,0,0,0,.67,1.93,2.3,2.3,0,0,0,1.77.68,3.69,3.69,0,0,0,2.33-.83V88.8a4.41,4.41,0,0,1-2.61.71,3.18,3.18,0,0,1-2.5-1,4.2,4.2,0,0,1-.91-2.87,4.09,4.09,0,0,1,1-2.86,3.19,3.19,0,0,1,2.46-1.1,2.84,2.84,0,0,1,2.28,1,4,4,0,0,1,.8,2.65Zm-1.23-1a2.43,2.43,0,0,0-.5-1.62,1.73,1.73,0,0,0-1.37-.58,1.94,1.94,0,0,0-1.44.61,2.81,2.81,0,0,0-.74,1.59ZM73.23,97H69.52v2.58h3.41v1.92H69.52v4.08H67.15V95.11h6.08Zm8.62,8.58h-2.3v-1.15h0a2.61,2.61,0,0,1-2.29,1.33c-1.74,0-2.61-1-2.61-3.16V98.12h2.31v4.32q0,1.59,1.26,1.59a1.25,1.25,0,0,0,1-.44,1.74,1.74,0,0,0,.38-1.18V98.12h2.3Zm9.2,0H88.74v-4.17c0-1.16-.42-1.74-1.25-1.74a1.23,1.23,0,0,0-1,.46,1.79,1.79,0,0,0-.38,1.17v4.28H83.8v-7.5h2.32V99.3h0a2.65,2.65,0,0,1,2.41-1.37q2.49,0,2.49,3.09Zm7.51-.28a4.49,4.49,0,0,1-2.26.46,3.83,3.83,0,0,1-2.8-1,3.63,3.63,0,0,1-1.07-2.7,3.94,3.94,0,0,1,1.15-3,4.2,4.2,0,0,1,3.06-1.11,4,4,0,0,1,1.92.35v2a2.63,2.63,0,0,0-1.62-.54,2.14,2.14,0,0,0-1.58.58,2.2,2.2,0,0,0-.58,1.61,2.14,2.14,0,0,0,.56,1.56,2,2,0,0,0,1.53.57,3.07,3.07,0,0,0,1.69-.54Zm6,.19a3.44,3.44,0,0,1-1.55.27c-1.63,0-2.44-.85-2.44-2.54V99.82H99.4v-1.7h1.22V96.5l2.31-.66v2.28h1.68v1.7h-1.68v3c0,.79.31,1.18.93,1.18a1.49,1.49,0,0,0,.75-.22Zm2.48-8.6a1.37,1.37,0,0,1-1-.35,1.11,1.11,0,0,1-.38-.85,1.08,1.08,0,0,1,.38-.85,1.56,1.56,0,0,1,1.92,0,1.07,1.07,0,0,1,.37.85,1.09,1.09,0,0,1-.37.86A1.36,1.36,0,0,1,107.09,96.93Zm1.14,8.69h-2.32v-7.5h2.32Zm5.52.18a4,4,0,0,1-3-1,4.36,4.36,0,0,1,0-5.77,4.23,4.23,0,0,1,3-1,4,4,0,0,1,2.93,1,3.74,3.74,0,0,1,1.07,2.78,4,4,0,0,1-1.1,3A4.09,4.09,0,0,1,113.75,105.8Zm.06-6.09a1.51,1.51,0,0,0-1.27.56,2.46,2.46,0,0,0-.46,1.6q0,2.16,1.74,2.16c1.11,0,1.67-.74,1.67-2.22S114.93,99.71,113.81,99.71Zm12.78,5.91h-2.31v-4.17c0-1.16-.41-1.74-1.24-1.74a1.23,1.23,0,0,0-1,.46,1.74,1.74,0,0,0-.39,1.17v4.28h-2.31v-7.5h2.31V99.3h0a2.66,2.66,0,0,1,2.41-1.37q2.49,0,2.49,3.09Zm1.34-.2v-1.88a5.24,5.24,0,0,0,1.14.52,3.86,3.86,0,0,0,1.07.16,2.33,2.33,0,0,0,1-.16.56.56,0,0,0,.36-.52.5.5,0,0,0-.16-.36,1.43,1.43,0,0,0-.42-.26,5.81,5.81,0,0,0-.55-.2,5.62,5.62,0,0,1-.58-.19,6.54,6.54,0,0,1-.79-.37,2.58,2.58,0,0,1-.57-.45,1.85,1.85,0,0,1-.35-.59,2.41,2.41,0,0,1-.12-.8,2,2,0,0,1,.28-1.08,2.18,2.18,0,0,1,.73-.75,3.3,3.3,0,0,1,1.05-.42,5.43,5.43,0,0,1,1.22-.14,7,7,0,0,1,1,.08,8.65,8.65,0,0,1,1,.22V100a3.37,3.37,0,0,0-.94-.38,3.72,3.72,0,0,0-1-.13,2,2,0,0,0-.43,0,1.27,1.27,0,0,0-.36.12.65.65,0,0,0-.24.19.47.47,0,0,0-.09.28.52.52,0,0,0,.14.35,1,1,0,0,0,.34.25,2.88,2.88,0,0,0,.47.19l.52.17a6.46,6.46,0,0,1,.83.36,2.34,2.34,0,0,1,.64.44,1.65,1.65,0,0,1,.41.6,2.07,2.07,0,0,1,.15.82,2.14,2.14,0,0,1-.29,1.14,2.27,2.27,0,0,1-.77.77,3.43,3.43,0,0,1-1.11.43,6.09,6.09,0,0,1-1.3.14A6.79,6.79,0,0,1,127.93,105.42Z"/></svg>