<svg xmlns="http://www.w3.org/2000/svg" width="200" height="128">
	<path d="M100 47.87a5.89 5.89 0 0 0 4.19-1.74L115.29 35v-.59h-30.6V35l11.12 11.1a5.89 5.89 0 0 0 4.19 1.77Zm5.24-.69a7.39 7.39 0 0 1-10.48 0l-10.07-10v20.38h30.6V37.13ZM73.89 19a.85.85 0 0 0-.89.89v10.8a.85.85 0 0 0 .89.91h5.4a.86.86 0 0 0 .91-.91V26.2h39.6v4.51c0 .53.36.89 1.08.89h5.21a.85.85 0 0 0 .91-.89v-10.8a.85.85 0 0 0-.89-.91Zm52.22 54a.85.85 0 0 0 .89-.89V61.48a.85.85 0 0 0-.89-.89h-5.23a.85.85 0 0 0-.89.89v4.32H80.2v-4.49c0-.55-.36-.91-1.08-.91h-5.23c-.53 0-.89.36-.89 1.08v10.63a.85.85 0 0 0 .89.89Z" style="fill:#0072c6;fill-rule:evenodd"/>
	<path d="M90.6 89.34h-1.36l-1.11-3h-4.46l-1 3h-1.41l4-10.51h1.27Zm-2.87-4-1.65-4.48a3.34 3.34 0 0 1-.16-.7 4.22 4.22 0 0 1-.17.7l-1.64 4.48Zm9.49-3.11-4.44 6.13h4.39v1H91V89l4.44-6.1h-4v-1h5.79Zm7.61 7.16h-1.2v-1.24a2.45 2.45 0 0 1-2.31 1.36c-1.79 0-2.68-1.06-2.68-3.19v-4.48h1.16v4.29c0 1.58.61 2.37 1.82 2.37a1.82 1.82 0 0 0 1.45-.65 2.5 2.5 0 0 0 .56-1.69v-4.32h1.2Zm6.34-6.29a1.47 1.47 0 0 0-.91-.24 1.51 1.51 0 0 0-1.28.73 3.29 3.29 0 0 0-.52 2v3.83h-1.2v-7.5h1.2v1.54a2.61 2.61 0 0 1 .78-1.23 1.77 1.77 0 0 1 1.18-.44 2 2 0 0 1 .72.1Zm7.13 2.84H113a2.8 2.8 0 0 0 .67 1.93 2.3 2.3 0 0 0 1.77.68 3.69 3.69 0 0 0 2.33-.83v1.08a4.41 4.41 0 0 1-2.61.71 3.18 3.18 0 0 1-2.5-1 4.2 4.2 0 0 1-.91-2.87 4.09 4.09 0 0 1 1-2.86 3.19 3.19 0 0 1 2.46-1.1 2.84 2.84 0 0 1 2.28 1 4 4 0 0 1 .8 2.65Zm-1.23-1a2.43 2.43 0 0 0-.5-1.62 1.73 1.73 0 0 0-1.37-.58 1.94 1.94 0 0 0-1.44.61 2.81 2.81 0 0 0-.74 1.59Zm-56.47 20.5v-2.35a4.53 4.53 0 0 0 1.39.8 4.42 4.42 0 0 0 1.51.27 3.67 3.67 0 0 0 .78-.08 1.86 1.86 0 0 0 .55-.22 1.1 1.1 0 0 0 .34-.34.9.9 0 0 0-.07-1 2.09 2.09 0 0 0-.48-.45 4.76 4.76 0 0 0-.72-.39l-.9-.39a4.69 4.69 0 0 1-1.84-1.25 2.76 2.76 0 0 1-.6-1.79 2.83 2.83 0 0 1 .33-1.41 2.79 2.79 0 0 1 .9-1 4 4 0 0 1 1.31-.56 6.77 6.77 0 0 1 1.58-.18 9.13 9.13 0 0 1 1.46.1 5.89 5.89 0 0 1 1.17.3v2.19a3.6 3.6 0 0 0-.58-.32 4.88 4.88 0 0 0-.64-.23 5.18 5.18 0 0 0-.66-.14 4.4 4.4 0 0 0-.62 0 2.82 2.82 0 0 0-.73.08 1.86 1.86 0 0 0-.55.21 1.18 1.18 0 0 0-.36.34.8.8 0 0 0-.12.43.82.82 0 0 0 .14.47 1.47 1.47 0 0 0 .39.4 5 5 0 0 0 .63.37c.24.12.52.24.82.37a8.65 8.65 0 0 1 1.14.56 3.88 3.88 0 0 1 .86.67 2.64 2.64 0 0 1 .55.85 3.16 3.16 0 0 1 .19 1.12 2.91 2.91 0 0 1-.34 1.47 2.7 2.7 0 0 1-.9 1 3.86 3.86 0 0 1-1.33.53 7.55 7.55 0 0 1-1.6.16 9.45 9.45 0 0 1-1.64-.14 5.17 5.17 0 0 1-1.36-.45Zm15.4-2.69h-4.9c.08 1.09.77 1.63 2.06 1.63a4 4 0 0 0 2.18-.59v1.67a5.65 5.65 0 0 1-2.71.56 3.78 3.78 0 0 1-2.82-1 3.82 3.82 0 0 1-1-2.8 4 4 0 0 1 1.09-3 3.6 3.6 0 0 1 2.66-1.1 3.28 3.28 0 0 1 2.54 1 3.74 3.74 0 0 1 .9 2.64Zm-2.15-1.42c0-1.08-.43-1.62-1.3-1.62a1.26 1.26 0 0 0-1 .47 2.08 2.08 0 0 0-.49 1.15Zm8.42-.9a2 2 0 0 0-1-.23 1.41 1.41 0 0 0-1.18.55 2.44 2.44 0 0 0-.42 1.51v3.58h-2.29v-7.5h2.32v1.39a2 2 0 0 1 2-1.52 1.75 1.75 0 0 1 .58.08Zm8.81-2.09-2.79 7.5h-2.62L83 98.34h2.47l1.32 4.66a6.86 6.86 0 0 1 .25 1.33 9.38 9.38 0 0 1 .27-1.29l1.34-4.66Zm2.16-1.19a1.28 1.28 0 0 1-1-.35 1.11 1.11 0 0 1-.38-.85 1.08 1.08 0 0 1 .38-.85 1.36 1.36 0 0 1 1-.33 1.41 1.41 0 0 1 1 .33 1.1 1.1 0 0 1 .37.85 1.13 1.13 0 0 1-.37.86 1.37 1.37 0 0 1-.99.34Zm1.15 8.69h-2.31v-7.5h2.32Zm7.63-.27a4.61 4.61 0 0 1-2.26.45 3.81 3.81 0 0 1-2.8-1 3.6 3.6 0 0 1-1.07-2.7 4 4 0 0 1 1.15-3 4.2 4.2 0 0 1 3.06-1.11 3.88 3.88 0 0 1 1.92.36v2a2.63 2.63 0 0 0-1.62-.54 2.14 2.14 0 0 0-1.58.58 2.49 2.49 0 0 0 0 3.17 2 2 0 0 0 1.53.57 3.07 3.07 0 0 0 1.69-.54Zm8.25-2.82h-4.89c.08 1.09.77 1.63 2.06 1.63a3.92 3.92 0 0 0 2.17-.59v1.67a5.58 5.58 0 0 1-2.7.56 3.49 3.49 0 0 1-3.82-3.81 4 4 0 0 1 1.08-3 3.62 3.62 0 0 1 2.67-1.1 3.29 3.29 0 0 1 2.54 1 3.78 3.78 0 0 1 .89 2.64Zm-2.14-1.42c0-1.08-.44-1.62-1.31-1.62a1.24 1.24 0 0 0-1 .47 2.08 2.08 0 0 0-.49 1.15Zm7.89 4.51V95.33h3.82a4.76 4.76 0 0 1 2.7.65 2.07 2.07 0 0 1 1 1.82 2.16 2.16 0 0 1-.58 1.48 3 3 0 0 1-1.47.89 2.87 2.87 0 0 1 1.79.83 2.29 2.29 0 0 1 .67 1.67 2.78 2.78 0 0 1-1 2.29 4.29 4.29 0 0 1-2.82.85Zm2.36-8.76v2.49h1a1.75 1.75 0 0 0 1.16-.36 1.19 1.19 0 0 0 .42-1c0-.78-.58-1.16-1.73-1.16Zm0 4.25v2.76h1.28a2 2 0 0 0 1.29-.38 1.26 1.26 0 0 0 .46-1 1.17 1.17 0 0 0-.45-1 2 2 0 0 0-1.28-.36Zm14.15 4.51h-2.31v-1.14a2.62 2.62 0 0 1-2.29 1.32c-1.74 0-2.61-1-2.61-3.16v-4.52h2.31v4.32q0 1.59 1.26 1.59a1.25 1.25 0 0 0 1-.44 1.74 1.74 0 0 0 .37-1.18v-4.29h2.31Zm1.46-.2v-1.87a4.76 4.76 0 0 0 1.14.51 3.84 3.84 0 0 0 1.07.17 2.34 2.34 0 0 0 1-.17.54.54 0 0 0 .36-.51.51.51 0 0 0-.16-.37 1.68 1.68 0 0 0-.42-.26 3.93 3.93 0 0 0-.55-.19l-.58-.2a6.54 6.54 0 0 1-.79-.37 2.31 2.31 0 0 1-.57-.45 1.74 1.74 0 0 1-.35-.59 2.36 2.36 0 0 1-.12-.8 2.06 2.06 0 0 1 .27-1.08 2.41 2.41 0 0 1 .74-.75 3.34 3.34 0 0 1 1-.42 5.59 5.59 0 0 1 1.23-.14 7.08 7.08 0 0 1 2 .31v1.78a3.37 3.37 0 0 0-.94-.38 3.72 3.72 0 0 0-1-.13 1.91 1.91 0 0 0-.43 0 1.52 1.52 0 0 0-.36.12.65.65 0 0 0-.24.19.49.49 0 0 0-.09.28.54.54 0 0 0 .13.35 1.16 1.16 0 0 0 .35.25 2.88 2.88 0 0 0 .47.19l.52.18a5.31 5.31 0 0 1 .83.35 2.5 2.5 0 0 1 .64.44 1.83 1.83 0 0 1 .41.6 2.1 2.1 0 0 1 .15.82 2.14 2.14 0 0 1-.29 1.14 2.27 2.27 0 0 1-.77.77 3.68 3.68 0 0 1-1.11.44 6.16 6.16 0 0 1-1.3.13 6.79 6.79 0 0 1-2.23-.34Z" style="fill:#706d6e"/>
</svg>
