<svg xmlns="http://www.w3.org/2000/svg" xmlns:xlink="http://www.w3.org/1999/xlink" width="200" height="128">
    <linearGradient id="linear-gradient" x1="85.42" y1="54.16" x2="85.33" y2="66.73" gradientTransform="matrix(1 0 0 -1 0 108)" gradientUnits="userSpaceOnUse">
        <stop offset="0" stop-color="#ccc"/>
        <stop offset="1" stop-color="#fcfcfc"/>
    </linearGradient>
    <linearGradient id="linear-gradient-2" x1="103.65" y1="41.53" x2="103.65" y2="52.83" xlink:href="#linear-gradient"/>
    <linearGradient id="linear-gradient-3" x1="116.54" y1="55.21" x2="116.54" y2="67.21" xlink:href="#linear-gradient"/>
    <radialGradient id="radial-gradient" cx="19243.16" cy="-8077.15" r="180.42" gradientTransform="matrix(.15 0 0 -.15 -2786.48 -1165.63)" gradientUnits="userSpaceOnUse">
        <stop offset=".18" stop-color="#5ea0ef"/>
        <stop offset="1" stop-color="#0078d4"/>
    </radialGradient>
    <path fill="#706d6e" d="M90.6 89.5h-1.36l-1.11-3h-4.46l-1 3h-1.41l4-10.51h1.27zm-2.88-4L86.08 81a3.34 3.34 0 01-.16-.7 4.22 4.22 0 01-.17.7l-1.64 4.48zM97.22 82.34l-4.44 6.13h4.39v1H91v-.38L95.45 83h-4v-1h5.79zM104.83 89.5h-1.2v-1.19a2.46 2.46 0 01-2.31 1.36c-1.79 0-2.68-1.06-2.68-3.19V82h1.16v4.29c0 1.58.61 2.37 1.82 2.37a1.8 1.8 0 001.44-.65 2.45 2.45 0 00.57-1.69V82h1.2zM111.17 83.21a1.47 1.47 0 00-.91-.24 1.51 1.51 0 00-1.28.73 3.29 3.29 0 00-.52 2v3.8h-1.2V82h1.2v1.54a2.57 2.57 0 01.78-1.23 1.77 1.77 0 011.18-.44 2 2 0 01.72.1zM118.3 86.05H113a2.8 2.8 0 00.67 1.93 2.34 2.34 0 001.77.68 3.71 3.71 0 002.33-.83V89a4.41 4.41 0 01-2.61.71 3.18 3.18 0 01-2.5-1 4.8 4.8 0 01.08-5.73 3.22 3.22 0 012.47-1.1 2.84 2.84 0 012.28 1 4 4 0 01.8 2.65zm-1.23-1a2.43 2.43 0 00-.5-1.62 1.73 1.73 0 00-1.37-.58 2 2 0 00-1.45.61A2.8 2.8 0 00113 85zM65.09 106h-2.58l-.74-2.34H58l-.71 2.34h-2.56l3.82-10.51h2.81zm-3.86-4.16l-1.13-3.53a4.36 4.36 0 01-.18-.94h-.06a3.58 3.58 0 01-.18.91l-1.14 3.56zM68.52 105.13v4.32h-2.34v-11h2.31v1.12a2.94 2.94 0 014.66-.31A4.27 4.27 0 0174 102a4.57 4.57 0 01-.93 3 3 3 0 01-2.46 1.14 2.33 2.33 0 01-2.09-1.01zm-.07-3.08v.6a1.94 1.94 0 00.41 1.27 1.38 1.38 0 001.08.49 1.44 1.44 0 001.23-.61 3 3 0 00.43-1.74c0-1.31-.51-2-1.53-2a1.49 1.49 0 00-1.17.53 2.17 2.17 0 00-.45 1.46zM77.82 105.13v4.32h-2.34v-11h2.31v1.12a2.94 2.94 0 014.66-.31 4.27 4.27 0 01.8 2.72 4.57 4.57 0 01-.93 3 3 3 0 01-2.46 1.14 2.35 2.35 0 01-2.04-.99zm-.06-3.08v.6a1.88 1.88 0 00.41 1.27 1.34 1.34 0 001.07.49 1.44 1.44 0 001.23-.61 3 3 0 00.44-1.74c0-1.31-.52-2-1.54-2a1.45 1.45 0 00-1.16.53 2.17 2.17 0 00-.45 1.46zM88.66 105.59v-2.34a4.53 4.53 0 001.39.8 4.36 4.36 0 001.5.27 3.53 3.53 0 00.78-.08 1.82 1.82 0 00.56-.22 1 1 0 00.33-.34.78.78 0 00.11-.42.88.88 0 00-.17-.55 2.09 2.09 0 00-.48-.45 4 4 0 00-.72-.39l-.9-.39a4.61 4.61 0 01-1.84-1.25 2.76 2.76 0 01-.6-1.79 2.73 2.73 0 011.22-2.38 3.93 3.93 0 011.32-.56 6.71 6.71 0 011.58-.18 8.92 8.92 0 011.45.1 5 5 0 011.17.3v2.19a3.12 3.12 0 00-.57-.32 4.88 4.88 0 00-.64-.23 5.18 5.18 0 00-.66-.14 4.49 4.49 0 00-.62 0 2.77 2.77 0 00-.73.08 2 2 0 00-.56.21 1.23 1.23 0 00-.35.33.83.83 0 00-.12.44.77.77 0 00.14.47 1.62 1.62 0 00.39.4 3.62 3.62 0 00.63.36c.24.12.52.25.82.37a9.14 9.14 0 011.13.57 3.46 3.46 0 01.86.67 2.4 2.4 0 01.55.85 3 3 0 01.19 1.12 3 3 0 01-.33 1.47 2.7 2.7 0 01-.9 1 4.16 4.16 0 01-1.33.53 7.55 7.55 0 01-1.6.16A8.73 8.73 0 0190 106a4.56 4.56 0 01-1.34-.41zM104.06 102.91h-4.89c.08 1.09.77 1.63 2.06 1.63a4 4 0 002.18-.59v1.67a5.65 5.65 0 01-2.71.56 3.49 3.49 0 01-3.82-3.82 4 4 0 011.08-3 3.62 3.62 0 012.67-1.1 3.29 3.29 0 012.54 1 3.74 3.74 0 01.89 2.64zm-2.14-1.42c0-1.08-.44-1.62-1.31-1.62a1.26 1.26 0 00-1 .46 2.14 2.14 0 00-.49 1.16zM110.33 100.58a2 2 0 00-1-.22 1.4 1.4 0 00-1.18.55 2.44 2.44 0 00-.42 1.51V106h-2.32v-7.5h2.32v1.39a2 2 0 012-1.52 1.44 1.44 0 01.57.08zM119.15 98.5l-2.79 7.5h-2.63l-2.66-7.5h2.47l1.31 4.62a6.72 6.72 0 01.25 1.33 9.09 9.09 0 01.27-1.29l1.34-4.66zM121.31 97.31a1.37 1.37 0 01-1-.35 1.1 1.1 0 01-.37-.85 1.07 1.07 0 01.37-.85 1.58 1.58 0 011.93 0 1.1 1.1 0 01.37.85 1.13 1.13 0 01-.37.86 1.37 1.37 0 01-.93.34zm1.15 8.69h-2.32v-7.5h2.32zM130.09 105.73a4.65 4.65 0 01-2.27.45 3.8 3.8 0 01-2.79-1.05 3.59 3.59 0 01-1.07-2.7 4 4 0 011.14-3 4.24 4.24 0 013.07-1.11 3.88 3.88 0 011.92.36v2a2.67 2.67 0 00-1.62-.54 2.12 2.12 0 00-1.58.58 2.16 2.16 0 00-.58 1.61 2.14 2.14 0 00.55 1.56 2.08 2.08 0 001.54.57 3.07 3.07 0 001.69-.54zM138.34 102.91h-4.89c.08 1.09.76 1.63 2.06 1.63a4 4 0 002.17-.59v1.67a5.58 5.58 0 01-2.7.56 3.49 3.49 0 01-3.82-3.82 4 4 0 011.08-3 3.61 3.61 0 012.67-1.1 3.25 3.25 0 012.53 1 3.74 3.74 0 01.9 2.64zm-2.14-1.42c0-1.08-.44-1.62-1.31-1.62a1.26 1.26 0 00-1 .46 2.15 2.15 0 00-.5 1.16zM139.23 105.8v-1.88a4.81 4.81 0 001.14.52 3.84 3.84 0 001.07.17 2.34 2.34 0 001-.17.55.55 0 00.36-.52.48.48 0 00-.17-.36 1.45 1.45 0 00-.41-.26 5.81 5.81 0 00-.55-.2 4.92 4.92 0 01-.58-.19 6.54 6.54 0 01-.79-.37 2.18 2.18 0 01-.57-.45 1.85 1.85 0 01-.35-.59 2.36 2.36 0 01-.12-.8 2.06 2.06 0 01.27-1.08 2.49 2.49 0 01.73-.75 3.5 3.5 0 011.05-.42 5.52 5.52 0 011.23-.14 7 7 0 011 .08 8.65 8.65 0 011 .22v1.79a3.5 3.5 0 00-.94-.38 3.79 3.79 0 00-1-.13 1.87 1.87 0 00-.42 0 1.52 1.52 0 00-.36.12.65.65 0 00-.24.19.47.47 0 00-.09.28.54.54 0 00.13.35 1.16 1.16 0 00.35.25 2.88 2.88 0 00.47.19l.52.18a5.75 5.75 0 01.83.35 2.5 2.5 0 01.64.44 1.83 1.83 0 01.41.6 2.07 2.07 0 01.14.82 2.14 2.14 0 01-.28 1.14 2.27 2.27 0 01-.77.77 3.43 3.43 0 01-1.11.43 6.16 6.16 0 01-1.3.14 6.79 6.79 0 01-2.29-.34z"/>
    <path id="ee75dd06-1aca-4f76-9d11-d05a284020ad" d="M116.63 67.33a27.06 27.06 0 11-33.15-42.77l.29-.19a27 27 0 0132.86 43" fill="url(#radial-gradient)"/>
    <path d="M92.71 40.31a41.36 41.36 0 0128.34-11.39 27.05 27.05 0 00-4.74-4.58 45.71 45.71 0 00-14.92 3.5 40.07 40.07 0 00-13 9 8.86 8.86 0 014.32 3.47zM79.31 51.19a56.87 56.87 0 00-2.64 8.34 26.31 26.31 0 002 2.93c.58.73 1.12 1.4 1.75 2.07a56.75 56.75 0 013.44-11 8.78 8.78 0 01-4.55-2.34z" fill="url(#linear-gradient-3)" opacity="0.6"/>
    <path d="M82.43 36.75a38.57 38.57 0 01-2.2-9.35 26.17 26.17 0 00-3.5 4.6 40.15 40.15 0 001.82 7.57 8.51 8.51 0 013.88-2.82z" fill="url(#linear-gradient-3)" opacity="0.6"/>
    <circle cx="85.36" cy="44.93" r="8.69" fill="url(#linear-gradient-3)"/>
    <path d="M98 60.8a5.61 5.61 0 011.72-4 37.73 37.73 0 01-8-5.92A8.73 8.73 0 0187 53.49a41.54 41.54 0 004.61 4.07 38.8 38.8 0 006.52 4 6.15 6.15 0 01-.13-.76zM118.06 61.47a38.23 38.23 0 01-8.78-1 1 1 0 010 .35 5.57 5.57 0 01-1.62 4 43.65 43.65 0 0010.88.76 26.93 26.93 0 003.79-4.26 35.82 35.82 0 01-4.27.15z" fill="url(#linear-gradient-3)" opacity="0.6"/>
    <circle cx="103.65" cy="60.8" r="5.66" fill="url(#linear-gradient-3)"/>
    <path d="M110.62 45.72a5.82 5.82 0 011.94-3.18 81.28 81.28 0 01-14.19-13.17A54 54 0 0192 20.08a23.87 23.87 0 00-3.47 1.33 57.27 57.27 0 006.84 10.12 83.7 83.7 0 0015.25 14.19z" style="isolation:isolate" opacity=".7" fill="#f2f2f2"/>
    <circle cx="116.54" cy="46.8" r="6.01" fill="url(#linear-gradient-3)"/>
    <path d="M126.62 50.84l-1.11-.54-1-.51h-.19l-.82-.66h-.23l-1-.64a5.67 5.67 0 01-2 2.93c.38.25.8.47 1.21.7l.25.16 1.12.6 2.73 1.43a26.56 26.56 0 00.93-3.53z" fill="url(#linear-gradient-3)" opacity="0.6"/>
    <circle cx="85.36" cy="44.93" r="8.69" fill="url(#linear-gradient-3)"/>
    <circle cx="103.65" cy="60.8" r="5.66" fill="url(#linear-gradient-3)"/>
</svg>
