<svg xmlns="http://www.w3.org/2000/svg" width="200" height="128">
	<defs>
		<style>
			.cls-4{fill:#ff8c00;opacity:.3;isolation:isolate}
		</style>
	</defs>
	<path d="M123 44.92c0-.4 0-.79-.07-1.2l4.07-2.26a19.59 19.59 0 0 0-1-3.91l-4.66.08a17 17 0 0 0-1.18-2.09l2.4-4a20.2 20.2 0 0 0-2.85-2.85l-2.37 1.4-1 1.48-2.14 3.16a12.88 12.88 0 1 1-10.06-2.5l1-4-2.27-4.08a19.77 19.77 0 0 0-3.89 1.05l.02 4.7a15.86 15.86 0 0 0-2.08 1.18l-4-2.39a19.69 19.69 0 0 0-2.85 2.85l2.4 4a14.24 14.24 0 0 0-1.18 2.09l-4.68-.08a21.81 21.81 0 0 0-1 3.91l4.07 2.26v2.4l-4.07 2.26a20.29 20.29 0 0 0 1.05 3.91l4.66-.08a14.77 14.77 0 0 0 1.18 2.09l-2.4 4a20.89 20.89 0 0 0 2.85 2.87l4-2.41A18.69 18.69 0 0 0 99 60l-.07 4.65a19.68 19.68 0 0 0 3.9 1l2.27-4.08c.39 0 .78.06 1.19.06s.81 0 1.19-.06l2.27 4.08a19.77 19.77 0 0 0 3.91-1l-.09-4.65a18.09 18.09 0 0 0 2.09-1.19l4 2.41a21.47 21.47 0 0 0 2.85-2.87l-2.4-4a19.45 19.45 0 0 0 1.19-2.09l4.65.08a19.77 19.77 0 0 0 1-3.91l-4.08-2.26c.13-.46.13-.84.13-1.25Z" style="fill:#a0a1a2"/>
	<path d="M90.28 62.6v-2l-.11-.1-2-.7-.53-1.38 1-2.11.12-.24-.64-.64-.77-.77-.27.13-2 1-1.38-.39-.88-2.24h-2l-.1.1-.72 2.08-1.4.53-2.33-1.12-1.42 1.4.13.27 1 2-.57 1.39-2.41.87v2l.29.08 2.14.71.57 1.4-1.09 2.32 1.41 1.44.27-.14 2-1L80 68l.87 2.43h2l.09-.29.7-2.14 1.34-.54 2.35 1.1 1.41-1.42-.13-.27-1-2 .4-1.4Zm-8.45 1.86a2.82 2.82 0 1 1 2.8-2.82 2.82 2.82 0 0 1-2.8 2.82Z" style="fill:#7a7a7a"/>
	<path d="m109 21.53-.82 2.47-1.33 4.25-.64 2-.56 1.79-3.88 12.36a.29.29 0 0 0 .3.42h3.58a.27.27 0 0 1 .25.1.29.29 0 0 1 .06.34l-3.7 9c-.1.24 0 .29.13.08L114.09 41c.17-.2.1-.36-.15-.36h-4.54a.25.25 0 0 1-.24-.41l3.65-6.49.86-1.56 1-1.78 2.13-3.77 1.2-2.11a23.22 23.22 0 0 0-9-2.99Z" style="fill:#fcd116"/>
	<path class="cls-4" d="m115.66 23.35-8.47 17.35h2.11a.23.23 0 0 1-.15-.39l3.65-6.49.86-1.56 1-1.79 2.13-3.76 1.21-2.19a24.14 24.14 0 0 0-2.34-1.17Z"/>
	<path class="cls-4" d="M114 40.68h-2.36l-8.74 13.11L114.11 41c.16-.16.1-.32-.11-.32Z"/>
	<path d="M90.6 89.34h-1.36l-1.11-3h-4.46l-1 3h-1.41l4-10.51h1.27Zm-2.87-4-1.65-4.48a3.34 3.34 0 0 1-.16-.7 4.22 4.22 0 0 1-.17.7l-1.64 4.48Zm9.49-3.11-4.44 6.13h4.39v1H91V89l4.44-6.1h-4v-1h5.79Zm7.61 7.16h-1.2v-1.24a2.45 2.45 0 0 1-2.31 1.36c-1.79 0-2.68-1.06-2.68-3.19v-4.48h1.16v4.29c0 1.58.61 2.37 1.82 2.37a1.82 1.82 0 0 0 1.45-.65 2.5 2.5 0 0 0 .56-1.69v-4.32h1.2Zm6.34-6.29a1.47 1.47 0 0 0-.91-.24 1.51 1.51 0 0 0-1.28.73 3.29 3.29 0 0 0-.52 2v3.83h-1.2v-7.5h1.2v1.54a2.61 2.61 0 0 1 .78-1.23 1.77 1.77 0 0 1 1.18-.44 2 2 0 0 1 .72.1Zm7.13 2.84H113a2.8 2.8 0 0 0 .67 1.93 2.3 2.3 0 0 0 1.77.68 3.69 3.69 0 0 0 2.33-.83v1.08a4.41 4.41 0 0 1-2.61.71 3.18 3.18 0 0 1-2.5-1 4.2 4.2 0 0 1-.91-2.87 4.09 4.09 0 0 1 1-2.86 3.19 3.19 0 0 1 2.46-1.1 2.84 2.84 0 0 1 2.28 1 4 4 0 0 1 .8 2.65Zm-1.23-1a2.43 2.43 0 0 0-.5-1.62 1.73 1.73 0 0 0-1.37-.58 1.94 1.94 0 0 0-1.44.61 2.81 2.81 0 0 0-.74 1.59Zm-49 21H65.5l-.75-2.34H61l-.74 2.34h-2.55l3.82-10.51h2.81Zm-3.86-4.15-1.13-3.54a5.07 5.07 0 0 1-.18-.94h-.06a3.58 3.58 0 0 1-.18.91l-1.14 3.57Zm12.07 4.15H74v-1.24a2.61 2.61 0 0 1-2.35 1.3c-1.74 0-2.61-1-2.61-3.16v-4.5h2.31v4.32q0 1.59 1.26 1.59a1.25 1.25 0 0 0 1-.44 1.74 1.74 0 0 0 .38-1.18v-4.29h2.3Zm6.49-.09a3.47 3.47 0 0 1-1.55.27c-1.63 0-2.45-.85-2.45-2.54V100h-1.21v-1.7h1.21v-1.58l2.31-.66v2.28h1.69V100h-1.69v3q0 1.17.93 1.17a1.59 1.59 0 0 0 .76-.21Zm4.82.27a4 4 0 0 1-3-1 4.32 4.32 0 0 1 0-5.76 4.16 4.16 0 0 1 3-1.06 4 4 0 0 1 2.93 1.06 3.72 3.72 0 0 1 1.16 2.64 4 4 0 0 1-1.09 3 4.1 4.1 0 0 1-3 1Zm0-6.09a1.55 1.55 0 0 0-1.27.56 2.52 2.52 0 0 0-.45 1.6q0 2.16 1.74 2.16c1.11 0 1.66-.74 1.66-2.22s-.51-2.2-1.63-2.2Zm17.45 5.91h-2.31v-4.28c0-1.09-.4-1.63-1.2-1.63a1.1 1.1 0 0 0-.93.49 2 2 0 0 0-.36 1.22v4.2H98v-4.32c0-1.06-.39-1.59-1.18-1.59a1.11 1.11 0 0 0-1 .47 2 2 0 0 0-.35 1.27v4.17h-2.29v-7.5h2.32v1.17a2.69 2.69 0 0 1 1-1 2.8 2.8 0 0 1 1.5-.46 2.16 2.16 0 0 1 2.17 1.4 2.8 2.8 0 0 1 2.52-1.4c1.64 0 2.45 1 2.45 3Zm8.07 0H111v-1.08a2.43 2.43 0 0 1-2.23 1.26 2.35 2.35 0 0 1-1.72-.62 2.19 2.19 0 0 1-.62-1.65q0-2.18 2.58-2.52l2-.27c0-.82-.45-1.23-1.34-1.23a4.59 4.59 0 0 0-2.55.8v-1.84a5.42 5.42 0 0 1 1.33-.44 6.84 6.84 0 0 1 1.52-.2q3.21 0 3.21 3.21Zm-2.17-3v-.5l-1.37.17c-.75.1-1.12.44-1.12 1a.86.86 0 0 0 .27.65 1 1 0 0 0 .74.25 1.39 1.39 0 0 0 1.07-.45 1.64 1.64 0 0 0 .47-1.27Zm8.54 3a3.44 3.44 0 0 1-1.48.06c-1.63 0-2.44-.85-2.44-2.54V100h-1.22v-1.7h1.22v-1.58l2.3-.66v2.28h1.69V100h-1.69v3q0 1.17.93 1.17a1.59 1.59 0 0 0 .76-.21Zm2.47-8.6a1.32 1.32 0 0 1-1-.35 1.1 1.1 0 0 1-.37-.85 1.07 1.07 0 0 1 .37-.85 1.58 1.58 0 0 1 1.93 0 1.1 1.1 0 0 1 .37.85 1.13 1.13 0 0 1-.37.86 1.37 1.37 0 0 1-.88.15Zm1.15 8.69h-2.32v-7.5h2.32Zm5.52.18a4 4 0 0 1-2.95-1 4.35 4.35 0 0 1 0-5.76 4.17 4.17 0 0 1 3-1.06 4 4 0 0 1 2.93 1.06 3.72 3.72 0 0 1 1.06 2.78 4 4 0 0 1-1.09 3 4.09 4.09 0 0 1-2.9.77Zm.06-6.09a1.56 1.56 0 0 0-1.28.56 2.52 2.52 0 0 0-.45 1.6q0 2.16 1.74 2.16c1.11 0 1.66-.74 1.66-2.22s-.51-2.29-1.62-2.29Zm12.78 5.91h-2.26v-4.17c0-1.16-.42-1.74-1.25-1.74a1.2 1.2 0 0 0-1 .46 1.76 1.76 0 0 0-.39 1.17v4.28h-2.32v-7.5h2.32v1.18a2.65 2.65 0 0 1 2.44-1.56c1.66 0 2.49 1 2.49 3.1Z" style="fill:#706d6e"/>
</svg>
