<svg xmlns="http://www.w3.org/2000/svg" width="200" height="128"><defs><style>.cls-1{fill:#7fba00;}.cls-2{fill:#fcd116;}.cls-3{fill:#706d6e;}</style></defs><path class="cls-1" d="M124.19,48.81a24.26,24.26,0,0,0-9.5-19.23v.76a14.89,14.89,0,0,1-1.62,6.59A17.6,17.6,0,1,1,82.4,48.7a17.74,17.74,0,0,1,5.07-12.42,14.29,14.29,0,0,1-1.4-6.05,6,6,0,0,1,.11-1.4,24.23,24.23,0,1,0,38,20Z"/><path class="cls-2" d="M100.32,19a11.14,11.14,0,0,0-3.13,21.82v11H92v5.62h5.18v4.1h6.16V40.71a11.06,11.06,0,0,0,8-10.69A10.93,10.93,0,0,0,100.32,19Zm0,5.83A5.3,5.3,0,1,1,95,30.12,5.31,5.31,0,0,1,100.32,24.83Z"/><path class="cls-3" d="M90.6,89.34H89.24l-1.11-3H83.67l-1,3H81.26l4-10.51h1.27Zm-2.87-4-1.65-4.48a3.34,3.34,0,0,1-.16-.7h0a4.22,4.22,0,0,1-.17.7l-1.64,4.48Zm9.49-3.11-4.44,6.13h4.39v1H91V89l4.44-6.1h-4v-1h5.79Zm7.61,7.16h-1.2V88.15h0a2.45,2.45,0,0,1-2.31,1.36c-1.79,0-2.68-1.06-2.68-3.19V81.84H99.8v4.29c0,1.58.61,2.37,1.82,2.37a1.82,1.82,0,0,0,1.45-.65,2.5,2.5,0,0,0,.56-1.69V81.84h1.2Zm6.34-6.29a1.47,1.47,0,0,0-.91-.24,1.51,1.51,0,0,0-1.28.73,3.29,3.29,0,0,0-.52,2v3.83h-1.2v-7.5h1.2v1.54h0a2.61,2.61,0,0,1,.78-1.23,1.77,1.77,0,0,1,1.18-.44,2,2,0,0,1,.72.1Zm7.13,2.84H113a2.8,2.8,0,0,0,.67,1.93,2.3,2.3,0,0,0,1.77.68,3.69,3.69,0,0,0,2.33-.83V88.8a4.41,4.41,0,0,1-2.61.71,3.18,3.18,0,0,1-2.5-1,4.2,4.2,0,0,1-.91-2.87,4.09,4.09,0,0,1,1-2.86,3.19,3.19,0,0,1,2.46-1.1,2.84,2.84,0,0,1,2.28,1,4,4,0,0,1,.8,2.65Zm-1.23-1a2.43,2.43,0,0,0-.5-1.62,1.73,1.73,0,0,0-1.37-.58,1.94,1.94,0,0,0-1.44.61,2.81,2.81,0,0,0-.74,1.59Zm-40.16,21h-3l-3.07-4.56a6.12,6.12,0,0,1-.27-.58h0v5.14H68.18V95.33h2.37v5h0c.06-.14.15-.33.29-.59l2.9-4.38H76.6l-3.66,5Zm7.37-3.09H79.39c.08,1.09.76,1.63,2.06,1.63a3.92,3.92,0,0,0,2.17-.59v1.67a5.58,5.58,0,0,1-2.7.56,3.49,3.49,0,0,1-3.82-3.81,4,4,0,0,1,1.08-3,3.61,3.61,0,0,1,2.67-1.1,3.29,3.29,0,0,1,2.54,1,3.78,3.78,0,0,1,.89,2.64Zm-2.14-1.42c0-1.08-.44-1.62-1.31-1.62a1.24,1.24,0,0,0-1,.47,2,2,0,0,0-.49,1.15Zm10.66-3-3,8.1q-1.09,2.93-3.31,2.92a4.14,4.14,0,0,1-1.38-.19v-1.85a2,2,0,0,0,1,.28,1.27,1.27,0,0,0,1.25-.85l.39-.93-3-7.48h2.56l1.4,4.56a5.88,5.88,0,0,1,.2,1h0a9.16,9.16,0,0,1,.24-1l1.42-4.58Zm14-3-3.62,10.51h-2.68L97,95.33h2.55l2.19,7.31a5.54,5.54,0,0,1,.21,1h0a6.28,6.28,0,0,1,.23-1.07l2.18-7.29ZM113,105.84H110.8v-1.08h0a2.46,2.46,0,0,1-2.24,1.26,2.33,2.33,0,0,1-1.71-.62,2.2,2.2,0,0,1-.63-1.65q0-2.18,2.58-2.52l2-.27c0-.82-.44-1.23-1.33-1.23a4.54,4.54,0,0,0-2.55.8V98.79a5.19,5.19,0,0,1,1.32-.44,6.85,6.85,0,0,1,1.53-.2q3.21,0,3.21,3.21Zm-2.18-3v-.5l-1.36.17c-.75.1-1.13.44-1.13,1a.83.83,0,0,0,.28.65,1,1,0,0,0,.74.25,1.37,1.37,0,0,0,1.06-.45A1.64,1.64,0,0,0,110.81,102.79Zm11.13,3h-2.3V104.7h0a2.62,2.62,0,0,1-2.29,1.32c-1.74,0-2.61-1-2.61-3.16V98.34H117v4.32q0,1.59,1.26,1.59a1.25,1.25,0,0,0,1-.44,1.74,1.74,0,0,0,.38-1.18V98.34h2.3Zm4.27,0h-2.32V94.73h2.32Zm6.48-.09a3.44,3.44,0,0,1-1.55.27c-1.63,0-2.44-.85-2.44-2.54V100h-1.22v-1.7h1.22V96.72l2.3-.66v2.28h1.69V100H131v3q0,1.17.93,1.17a1.59,1.59,0,0,0,.76-.21Z"/></svg>