<svg xmlns="http://www.w3.org/2000/svg" width="200" height="128"><defs><style>.cls-1{fill:#7ac3e1;}.cls-2{fill:#59b4d9;}.cls-3{fill:#b3b4b5;}.cls-4{fill:#a0a1a2;}.cls-5{fill:#fff;}.cls-6{fill:#706d6e;}</style></defs><path id="Bottom" class="cls-1" d="M124.64,69.17H75.36A2.37,2.37,0,0,1,73,66.81V25.19a2.37,2.37,0,0,1,2.36-2.36h49.28A2.38,2.38,0,0,1,127,25.19V66.81A2.3,2.3,0,0,1,124.64,69.17Z"/><path class="cls-2" d="M124.64,69.17A2.37,2.37,0,0,0,127,66.81V25.19a2.37,2.37,0,0,0-2.36-2.36H120L77.84,69.17Z"/><path class="cls-3" d="M127,33.51V25.19a2.37,2.37,0,0,0-2.36-2.36H75.36A2.3,2.3,0,0,0,73,25.19v8.89h0v2.81h54V33.51Z"/><path class="cls-4" d="M127,36.89V25.19a2.37,2.37,0,0,0-2.36-2.36H120L107.31,36.89Z"/><circle class="cls-2" cx="80.09" cy="30.36" r="5.29"/><polygon id="Arrow" class="cls-5" points="85.26 30.7 79.3 30.7 81.78 33.17 80.54 33.17 77.5 30.25 80.42 27.32 81.78 27.32 79.19 29.91 85.26 29.91 85.26 30.7"/><rect class="cls-5" x="86.61" y="28" width="36.9" height="4.61"/><circle class="cls-5" cx="89.43" cy="57.7" r="2.36"/><circle class="cls-5" cx="99.1" cy="57.7" r="2.36"/><circle class="cls-5" cx="108.77" cy="57.7" r="2.36"/><path class="cls-6" d="M90.6,89.34H89.24l-1.11-3H83.67l-1,3H81.26l4-10.51h1.27Zm-2.87-4-1.65-4.48a3.34,3.34,0,0,1-.16-.7h0a4.22,4.22,0,0,1-.17.7l-1.64,4.48Zm9.49-3.11-4.44,6.13h4.39v1H91V89l4.44-6.1h-4v-1h5.79Zm7.61,7.16h-1.2V88.15h0a2.45,2.45,0,0,1-2.31,1.36c-1.79,0-2.68-1.06-2.68-3.19V81.84H99.8v4.29c0,1.58.61,2.37,1.82,2.37a1.82,1.82,0,0,0,1.45-.65,2.5,2.5,0,0,0,.56-1.69V81.84h1.2Zm6.34-6.29a1.47,1.47,0,0,0-.91-.24,1.51,1.51,0,0,0-1.28.73,3.29,3.29,0,0,0-.52,2v3.83h-1.2v-7.5h1.2v1.54h0a2.61,2.61,0,0,1,.78-1.23,1.77,1.77,0,0,1,1.18-.44,2,2,0,0,1,.72.1Zm7.13,2.84H113a2.8,2.8,0,0,0,.67,1.93,2.3,2.3,0,0,0,1.77.68,3.69,3.69,0,0,0,2.33-.83V88.8a4.41,4.41,0,0,1-2.61.71,3.18,3.18,0,0,1-2.5-1,4.2,4.2,0,0,1-.91-2.87,4.09,4.09,0,0,1,1-2.86,3.19,3.19,0,0,1,2.46-1.1,2.84,2.84,0,0,1,2.28,1,4,4,0,0,1,.8,2.65Zm-1.23-1a2.43,2.43,0,0,0-.5-1.62,1.73,1.73,0,0,0-1.37-.58,1.94,1.94,0,0,0-1.44.61,2.81,2.81,0,0,0-.74,1.59ZM42.62,102.22v3.62H40.25V95.33H44c2.64,0,4,1.12,4,3.35a3.2,3.2,0,0,1-1.14,2.56,4.54,4.54,0,0,1-3,1Zm0-5.07v3.28h.93c1.26,0,1.89-.56,1.89-1.66s-.63-1.62-1.89-1.62Zm13.74,8.69h-2.3V104.7h0A2.62,2.62,0,0,1,51.73,106c-1.74,0-2.61-1-2.61-3.16V98.34h2.31v4.32q0,1.59,1.26,1.59a1.25,1.25,0,0,0,1-.44,1.74,1.74,0,0,0,.38-1.18V98.34h2.3Zm4.29-.87h0v.87H58.31V94.73h2.32v4.74h0a2.76,2.76,0,0,1,2.44-1.32,2.69,2.69,0,0,1,2.24,1,4.32,4.32,0,0,1,.78,2.73,4.66,4.66,0,0,1-.91,3A3,3,0,0,1,62.75,106,2.39,2.39,0,0,1,60.65,105Zm-.06-3.17v.77a1.74,1.74,0,0,0,.42,1.2,1.34,1.34,0,0,0,1.07.48,1.43,1.43,0,0,0,1.22-.61,3,3,0,0,0,.44-1.74,2.4,2.4,0,0,0-.4-1.45,1.35,1.35,0,0,0-1.14-.52,1.45,1.45,0,0,0-1.15.52A1.94,1.94,0,0,0,60.59,101.8Zm9.34,4H67.61V94.73h2.32Zm3.12-8.69a1.32,1.32,0,0,1-1-.35,1.11,1.11,0,0,1-.38-.85,1.08,1.08,0,0,1,.38-.85,1.56,1.56,0,0,1,1.92,0,1.07,1.07,0,0,1,.37.85,1.09,1.09,0,0,1-.37.86A1.36,1.36,0,0,1,73.05,97.15Zm1.14,8.69H71.88v-7.5h2.31Zm7.63-.27a4.61,4.61,0,0,1-2.26.45,3.83,3.83,0,0,1-2.8-1,3.6,3.6,0,0,1-1.07-2.7,4,4,0,0,1,1.15-3,4.2,4.2,0,0,1,3.06-1.11,3.83,3.83,0,0,1,1.92.36v2a2.63,2.63,0,0,0-1.62-.54,2.14,2.14,0,0,0-1.58.58,2.2,2.2,0,0,0-.58,1.61,2.14,2.14,0,0,0,.56,1.56,2,2,0,0,0,1.53.57,3,3,0,0,0,1.69-.54ZM91,95.33v1.84h-.88V104H91v1.83H86.82V104h.88V97.17h-.88V95.33Zm3.87,6.89v3.62H92.46V95.33h3.7q4,0,4,3.35A3.2,3.2,0,0,1,99,101.24a4.51,4.51,0,0,1-3,1Zm0-5.07v3.28h.93c1.26,0,1.89-.56,1.89-1.66s-.63-1.62-1.89-1.62ZM115,105.84h-2.57l-.75-2.34H108l-.74,2.34h-2.56l3.82-10.51h2.81Zm-3.86-4.15-1.13-3.54a5.07,5.07,0,0,1-.18-.94h-.06a3.58,3.58,0,0,1-.18.91l-1.14,3.57Zm12.29,4.15h-2.32v-1h0A2.57,2.57,0,0,1,118.8,106a2.83,2.83,0,0,1-2.26-1,4.12,4.12,0,0,1-.86-2.77,4.46,4.46,0,0,1,.95-3,3.07,3.07,0,0,1,2.47-1.13,2.09,2.09,0,0,1,2,1h0V94.73h2.32Zm-2.27-3.65v-.56a1.75,1.75,0,0,0-.43-1.22,1.51,1.51,0,0,0-2.31.12,2.87,2.87,0,0,0-.43,1.66,2.39,2.39,0,0,0,.42,1.52,1.47,1.47,0,0,0,2.3,0A2.3,2.3,0,0,0,121.2,102.19Zm11.55,3.65h-2.31v-1h0a2.58,2.58,0,0,1-2.32,1.22,2.83,2.83,0,0,1-2.26-1,4.07,4.07,0,0,1-.86-2.77,4.45,4.45,0,0,1,.94-3,3.09,3.09,0,0,1,2.48-1.13,2.09,2.09,0,0,1,2,1h0V94.73h2.31Zm-2.27-3.65v-.56a1.79,1.79,0,0,0-.42-1.22,1.51,1.51,0,0,0-2.31.12,2.8,2.8,0,0,0-.43,1.66,2.39,2.39,0,0,0,.42,1.52,1.47,1.47,0,0,0,2.3,0A2.3,2.3,0,0,0,130.48,102.19Zm9.12-1.76a2,2,0,0,0-1-.23,1.41,1.41,0,0,0-1.18.55,2.44,2.44,0,0,0-.42,1.51v3.58H134.7v-7.5H137v1.39h0a2,2,0,0,1,2-1.52,1.75,1.75,0,0,1,.58.08Zm7.75,2.32h-4.89c.08,1.09.76,1.63,2.06,1.63a3.92,3.92,0,0,0,2.17-.59v1.67a5.58,5.58,0,0,1-2.7.56,3.49,3.49,0,0,1-3.82-3.81,4,4,0,0,1,1.08-3,3.61,3.61,0,0,1,2.67-1.1,3.25,3.25,0,0,1,2.53,1,3.74,3.74,0,0,1,.9,2.64Zm-2.14-1.42c0-1.08-.44-1.62-1.31-1.62a1.24,1.24,0,0,0-1,.47,2.09,2.09,0,0,0-.5,1.15Zm3,4.31v-1.87a4.76,4.76,0,0,0,1.14.51,3.78,3.78,0,0,0,1.07.17,2.34,2.34,0,0,0,1-.17.54.54,0,0,0,.36-.51.48.48,0,0,0-.17-.37,1.45,1.45,0,0,0-.41-.26,3.93,3.93,0,0,0-.55-.19l-.58-.2a6.54,6.54,0,0,1-.79-.37,2,2,0,0,1-.57-.45,1.74,1.74,0,0,1-.35-.59,2.36,2.36,0,0,1-.12-.8,2.06,2.06,0,0,1,.27-1.08,2.49,2.49,0,0,1,.73-.75,3.5,3.5,0,0,1,1-.42,5.52,5.52,0,0,1,1.23-.14,7.08,7.08,0,0,1,2,.31v1.78a3.5,3.5,0,0,0-.94-.38,3.79,3.79,0,0,0-1-.13,1.87,1.87,0,0,0-.42,0,1.52,1.52,0,0,0-.36.12.65.65,0,0,0-.24.19.51.51,0,0,0,0,.63,1.16,1.16,0,0,0,.35.25,2.88,2.88,0,0,0,.47.19l.52.18a5.75,5.75,0,0,1,.83.35,2.5,2.5,0,0,1,.64.44,1.83,1.83,0,0,1,.41.6,2.11,2.11,0,0,1,.14.82,2.14,2.14,0,0,1-.28,1.14,2.27,2.27,0,0,1-.77.77,3.68,3.68,0,0,1-1.11.44,6.16,6.16,0,0,1-1.3.13A6.79,6.79,0,0,1,148.24,105.64Zm6.6,0v-1.87a4.76,4.76,0,0,0,1.14.51,3.78,3.78,0,0,0,1.07.17,2.34,2.34,0,0,0,1-.17.53.53,0,0,0,.35-.51.47.47,0,0,0-.16-.37,1.45,1.45,0,0,0-.41-.26,3.93,3.93,0,0,0-.55-.19l-.58-.2a6.54,6.54,0,0,1-.79-.37,2,2,0,0,1-.57-.45,1.74,1.74,0,0,1-.35-.59,2.36,2.36,0,0,1-.12-.8,2.06,2.06,0,0,1,.27-1.08,2.37,2.37,0,0,1,.73-.75,3.5,3.5,0,0,1,1-.42,5.45,5.45,0,0,1,1.23-.14,7.08,7.08,0,0,1,2,.31v1.78a3.5,3.5,0,0,0-.94-.38,3.79,3.79,0,0,0-1-.13,1.87,1.87,0,0,0-.42,0,1.52,1.52,0,0,0-.36.12.65.65,0,0,0-.24.19.51.51,0,0,0,0,.63,1,1,0,0,0,.35.25,2.88,2.88,0,0,0,.47.19l.51.18a5.44,5.44,0,0,1,.84.35,2.5,2.5,0,0,1,.64.44,1.83,1.83,0,0,1,.41.6,2.11,2.11,0,0,1,.14.82,2.06,2.06,0,0,1-.29,1.14,2.24,2.24,0,0,1-.76.77,3.68,3.68,0,0,1-1.11.44,6.16,6.16,0,0,1-1.3.13A6.75,6.75,0,0,1,154.84,105.64Z"/></svg>