<svg xmlns="http://www.w3.org/2000/svg" width="200" height="128">
	<path d="M100 73a5 5 0 0 1-3.52-1.46l-22-22a5 5 0 0 1 0-7l22-22a5 5 0 0 1 7 0l22 22a5 5 0 0 1 0 7l-22 22A5 5 0 0 1 100 73" style="fill:#7fba00"/>
	<path d="m122.26 45.63-7.14-7.14v5h-7.58a7.85 7.85 0 0 0-5.38-5.42v-7.19h5L100 23.74l-7.14 7.14h5v7.22a7.89 7.89 0 0 0-5.38 5.41h-7.6v-5l-7.14 7.14 7.14 7.14v-5h7.58a7.84 7.84 0 0 0 5.38 5.39v5c-1.08.79-2.73 2.44-2.73 4.36a4.88 4.88 0 0 0 9.75 0c0-1.9-1.62-3.53-2.7-4.33v-5a7.85 7.85 0 0 0 5.37-5.38h7.59v5Z" style="fill:#fff"/>
	<path d="M100 40a5.68 5.68 0 1 0 5.68 5.68A5.69 5.69 0 0 0 100 40Z" style="fill:#59b4d9"/>
	<path d="M103.52 20.46a5 5 0 0 0-7 0l-22 22a5 5 0 0 0 0 7L86.93 62l23.45-34.68Z" style="opacity:.15;isolation:isolate;fill:#fff"/>
	<path d="M90.6 89.34h-1.36l-1.11-3h-4.46l-1 3h-1.41l4-10.51h1.27Zm-2.87-4-1.65-4.48a3.34 3.34 0 0 1-.16-.7 4.22 4.22 0 0 1-.17.7l-1.64 4.48Zm9.49-3.11-4.44 6.13h4.39v1H91V89l4.44-6.1h-4v-1h5.79Zm7.61 7.16h-1.2v-1.24a2.45 2.45 0 0 1-2.31 1.36c-1.79 0-2.68-1.06-2.68-3.19v-4.48h1.16v4.29c0 1.58.61 2.37 1.82 2.37a1.82 1.82 0 0 0 1.45-.65 2.5 2.5 0 0 0 .56-1.69v-4.32h1.2Zm6.34-6.29a1.47 1.47 0 0 0-.91-.24 1.51 1.51 0 0 0-1.28.73 3.29 3.29 0 0 0-.52 2v3.83h-1.2v-7.5h1.2v1.54a2.61 2.61 0 0 1 .78-1.23 1.77 1.77 0 0 1 1.18-.44 2 2 0 0 1 .72.1Zm7.13 2.84H113a2.8 2.8 0 0 0 .67 1.93 2.3 2.3 0 0 0 1.77.68 3.69 3.69 0 0 0 2.33-.83v1.08a4.41 4.41 0 0 1-2.61.71 3.18 3.18 0 0 1-2.5-1 4.2 4.2 0 0 1-.91-2.87 4.09 4.09 0 0 1 1-2.86 3.19 3.19 0 0 1 2.46-1.1 2.84 2.84 0 0 1 2.28 1 4 4 0 0 1 .8 2.65Zm-1.23-1a2.43 2.43 0 0 0-.5-1.62 1.73 1.73 0 0 0-1.37-.58 1.94 1.94 0 0 0-1.44.61 2.81 2.81 0 0 0-.74 1.59Zm-58.9 21h-6.25V95.33h2.36v8.59h3.89Zm4.76.18a4 4 0 0 1-3-1 4.35 4.35 0 0 1 0-5.76 4.2 4.2 0 0 1 3-1.06 3.92 3.92 0 0 1 3.07.91 3.72 3.72 0 0 1 1 2.79 4 4 0 0 1-1.1 3 4.09 4.09 0 0 1-2.97 1Zm.07-6.19a1.54 1.54 0 0 0-1.27.56 2.46 2.46 0 0 0-.46 1.6c0 1.44.58 2.16 1.75 2.16s1.66-.74 1.66-2.22-.57-2.1-1.68-2.1Zm11.63 5.91h-2.2v-1.08a2.43 2.43 0 0 1-2.26 1.24 2.35 2.35 0 0 1-1.72-.62 2.19 2.19 0 0 1-.62-1.65q0-2.18 2.58-2.52l2-.27c0-.82-.45-1.23-1.34-1.23a4.59 4.59 0 0 0-2.55.8v-1.72a5.42 5.42 0 0 1 1.33-.44 6.84 6.84 0 0 1 1.52-.2q3.21 0 3.21 3.21Zm-2.17-3v-.5l-1.37.17c-.75.1-1.12.44-1.12 1a.86.86 0 0 0 .27.65 1 1 0 0 0 .74.25 1.39 1.39 0 0 0 1.07-.45 1.64 1.64 0 0 0 .4-1.17Zm11.34 3h-2.32v-1a2.58 2.58 0 0 1-2.35 1.16 2.86 2.86 0 0 1-2.27-1 4.12 4.12 0 0 1-.85-2.77 4.45 4.45 0 0 1 .94-3 3.09 3.09 0 0 1 2.48-1.13 2.1 2.1 0 0 1 2 1v-4.37h2.31Zm-2.27-3.65v-.56a1.79 1.79 0 0 0-.42-1.22 1.43 1.43 0 0 0-1.11-.48 1.4 1.4 0 0 0-1.2.6 2.8 2.8 0 0 0-.43 1.66 2.46 2.46 0 0 0 .41 1.52 1.48 1.48 0 0 0 2.31 0 2.36 2.36 0 0 0 .43-1.52Zm8.59 3.65V95.33h3.82a4.76 4.76 0 0 1 2.7.65 2.07 2.07 0 0 1 1 1.82 2.16 2.16 0 0 1-.64 1.48 3 3 0 0 1-1.47.89 2.87 2.87 0 0 1 1.79.83 2.29 2.29 0 0 1 .68 1.7 2.78 2.78 0 0 1-1 2.3 4.29 4.29 0 0 1-2.82.85Zm2.36-8.76v2.49h1a1.75 1.75 0 0 0 1.16-.36 1.19 1.19 0 0 0 .42-1c0-.78-.58-1.16-1.73-1.16Zm0 4.25v2.76h1.28a2 2 0 0 0 1.29-.38 1.26 1.26 0 0 0 .46-1 1.17 1.17 0 0 0-.45-1 2 2 0 0 0-1.28-.36Zm13.27 4.51h-2.19v-1.08a2.46 2.46 0 0 1-2.24 1.26 2.35 2.35 0 0 1-1.72-.62 2.23 2.23 0 0 1-.62-1.65q0-2.18 2.58-2.52l2-.27c0-.82-.44-1.23-1.33-1.23a4.54 4.54 0 0 0-2.55.8v-1.74a5.19 5.19 0 0 1 1.32-.44 6.85 6.85 0 0 1 1.53-.2q3.21 0 3.21 3.21Zm-2.18-3v-.5l-1.36.17c-.75.1-1.13.44-1.13 1a.86.86 0 0 0 .27.65 1.08 1.08 0 0 0 .75.25 1.37 1.37 0 0 0 1.06-.45 1.64 1.64 0 0 0 .4-1.17Zm6.32 3h-2.31V94.73h2.31Zm8.19 0h-2.19v-1.08a2.44 2.44 0 0 1-2.23 1.26 2.35 2.35 0 0 1-1.72-.62 2.2 2.2 0 0 1-.63-1.65c0-1.45.86-2.29 2.59-2.52l2-.27c0-.82-.44-1.23-1.33-1.23a4.59 4.59 0 0 0-2.55.8v-1.74a5.19 5.19 0 0 1 1.32-.44 6.85 6.85 0 0 1 1.53-.2q3.21 0 3.21 3.21Zm-2.18-3v-.5l-1.36.17c-.75.1-1.13.44-1.13 1a.87.87 0 0 0 .28.65 1 1 0 0 0 .74.25 1.35 1.35 0 0 0 1.06-.45 1.6 1.6 0 0 0 .4-1.17Zm11.25 3h-2.3v-4.17c0-1.16-.42-1.74-1.25-1.74a1.23 1.23 0 0 0-1 .46 1.76 1.76 0 0 0-.39 1.17v4.28h-2.31v-7.5h2.31v1.18a2.67 2.67 0 0 1 2.41-1.37c1.66 0 2.49 1 2.49 3.1Zm7.52-.27a4.61 4.61 0 0 1-2.26.45 3.81 3.81 0 0 1-2.8-1 3.56 3.56 0 0 1-1.07-2.7 4 4 0 0 1 1.14-3 4.24 4.24 0 0 1 3.07-1.11 3.88 3.88 0 0 1 1.92.36v2a2.63 2.63 0 0 0-1.62-.54 2.14 2.14 0 0 0-1.58.58 2.16 2.16 0 0 0-.58 1.61 2.1 2.1 0 0 0 .56 1.56 2 2 0 0 0 1.53.57 3.07 3.07 0 0 0 1.69-.54Zm8.25-2.82H138c.08 1.09.76 1.63 2.06 1.63a3.92 3.92 0 0 0 2.17-.59v1.67a5.58 5.58 0 0 1-2.7.56 3.49 3.49 0 0 1-3.82-3.81 4 4 0 0 1 1.08-3 3.61 3.61 0 0 1 2.67-1.1 3.29 3.29 0 0 1 2.54 1 3.78 3.78 0 0 1 .89 2.64Zm-2.14-1.42c0-1.08-.44-1.62-1.31-1.62a1.24 1.24 0 0 0-1 .47 2 2 0 0 0-.49 1.15Zm8.41-.9a1.91 1.91 0 0 0-1-.23 1.4 1.4 0 0 0-1.18.55 2.44 2.44 0 0 0-.43 1.51v3.58h-2.31v-7.5h2.31v1.39a2 2 0 0 1 2-1.52 1.65 1.65 0 0 1 .57.08Z" style="fill:#706d6e"/>
</svg>
