<svg xmlns="http://www.w3.org/2000/svg" width="200" height="128"><defs><style>.cls-1{fill:#0072c6;}.cls-2{fill:#706d6e;}</style></defs><path class="cls-1" d="M115.88,47.86a2.82,2.82,0,1,0-2.4-4.29L86.93,35.45s0-.08,0-.12a2.83,2.83,0,1,0-3.09,2.8l3,19.15a2.83,2.83,0,1,0,3.86,1.93l23.07-12.27A2.8,2.8,0,0,0,115.88,47.86ZM90.07,58a2.75,2.75,0,0,0-1.8-.89l-3-19.15a2.79,2.79,0,0,0,1.28-1.12l26.55,8.12s0,.08,0,.12a2.91,2.91,0,0,0,.08.66Zm-1.26-4.4h7.24L98.92,52V49.25H88.13Zm8,11.88H78.4V53.56h6.79l-.68-4.31H76.24V67.6H98.92V56.08l-2.16,1.15Zm7.56-16.28L106.48,48V44l-2.16-.66Zm0-15v5.52l2.16.66V38.44h18.36V50.32H109.76l-4.07,2.16H127V34.13Zm-8.64,6.61-2.16-.66v.53H86.76l.34,2.16h8.58ZM83.14,40.6h-8V28.72H93.52v7.62l2.16.66V24.41H73V42.76H83.48Z"/><path class="cls-2" d="M90.6,89.34H89.24l-1.11-3H83.67l-1,3H81.26l4-10.51h1.27Zm-2.87-4-1.65-4.48a3.34,3.34,0,0,1-.16-.7h0a4.22,4.22,0,0,1-.17.7l-1.64,4.48Zm9.49-3.11-4.44,6.13h4.39v1H91V89l4.44-6.1h-4v-1h5.79Zm7.61,7.16h-1.2V88.15h0a2.45,2.45,0,0,1-2.31,1.36c-1.79,0-2.68-1.06-2.68-3.19V81.84H99.8v4.29c0,1.58.61,2.37,1.82,2.37a1.82,1.82,0,0,0,1.45-.65,2.5,2.5,0,0,0,.56-1.69V81.84h1.2Zm6.34-6.29a1.47,1.47,0,0,0-.91-.24,1.51,1.51,0,0,0-1.28.73,3.29,3.29,0,0,0-.52,2v3.83h-1.2v-7.5h1.2v1.54h0a2.61,2.61,0,0,1,.78-1.23,1.77,1.77,0,0,1,1.18-.44,2,2,0,0,1,.72.1Zm7.13,2.84H113a2.8,2.8,0,0,0,.67,1.93,2.3,2.3,0,0,0,1.77.68,3.69,3.69,0,0,0,2.33-.83V88.8a4.41,4.41,0,0,1-2.61.71,3.18,3.18,0,0,1-2.5-1,4.2,4.2,0,0,1-.91-2.87,4.09,4.09,0,0,1,1-2.86,3.19,3.19,0,0,1,2.46-1.1,2.84,2.84,0,0,1,2.28,1,4,4,0,0,1,.8,2.65Zm-1.23-1a2.43,2.43,0,0,0-.5-1.62,1.73,1.73,0,0,0-1.37-.58,1.94,1.94,0,0,0-1.44.61,2.81,2.81,0,0,0-.74,1.59ZM54.22,105.62H51.65l-.75-2.34H47.16l-.74,2.34H43.86l3.82-10.51h2.81Zm-3.86-4.16-1.13-3.53a5.24,5.24,0,0,1-.18-.94H49a3.58,3.58,0,0,1-.18.91l-1.14,3.56Zm12.19,4.16H60.24v-4.17c0-1.16-.41-1.74-1.24-1.74a1.23,1.23,0,0,0-1,.46,1.74,1.74,0,0,0-.39,1.17v4.28H55.31v-7.5h2.31V99.3h0a2.66,2.66,0,0,1,2.41-1.37q2.49,0,2.49,3.09Zm8.07,0H68.43v-1.08h0a2.43,2.43,0,0,1-2.23,1.26,2.35,2.35,0,0,1-1.72-.62,2.19,2.19,0,0,1-.62-1.65q0-2.19,2.58-2.52l2-.27c0-.82-.45-1.23-1.34-1.23a4.46,4.46,0,0,0-2.54.8V98.56a6.12,6.12,0,0,1,1.32-.44,7.41,7.41,0,0,1,1.52-.19q3.21,0,3.21,3.2Zm-2.17-3.05v-.51l-1.37.18c-.75.1-1.12.44-1.12,1a.86.86,0,0,0,.27.65,1.11,1.11,0,0,0,.75.25,1.38,1.38,0,0,0,1.06-.45A1.64,1.64,0,0,0,68.45,102.57Zm6.32,3.05H72.45V94.51h2.32Zm9.09-7.5-3,8.1c-.73,2-1.84,2.92-3.31,2.92a4.14,4.14,0,0,1-1.38-.19V107.1a1.92,1.92,0,0,0,1,.27,1.25,1.25,0,0,0,1.24-.84l.4-.93-3.05-7.48h2.57l1.4,4.56a7,7,0,0,1,.2,1h0a6.35,6.35,0,0,1,.24-1l1.41-4.57Zm.44,7.3v-1.88a5.24,5.24,0,0,0,1.14.52,3.75,3.75,0,0,0,1.07.16,2.36,2.36,0,0,0,1-.16.55.55,0,0,0,.35-.52.46.46,0,0,0-.16-.36,1.26,1.26,0,0,0-.41-.26,5.81,5.81,0,0,0-.55-.2,4.92,4.92,0,0,1-.58-.19,6.54,6.54,0,0,1-.79-.37,2.18,2.18,0,0,1-.57-.45,1.85,1.85,0,0,1-.35-.59,2.41,2.41,0,0,1-.12-.8,2.06,2.06,0,0,1,.27-1.08,2.27,2.27,0,0,1,.73-.75,3.5,3.5,0,0,1,1-.42,5.45,5.45,0,0,1,1.23-.14,7,7,0,0,1,1,.08,8.65,8.65,0,0,1,1,.22V100a3.5,3.5,0,0,0-.94-.38,3.79,3.79,0,0,0-1-.13,1.87,1.87,0,0,0-.42,0,1.17,1.17,0,0,0-.36.12.65.65,0,0,0-.24.19.47.47,0,0,0-.09.28.51.51,0,0,0,.13.35,1,1,0,0,0,.35.25,2.56,2.56,0,0,0,.47.19l.51.17a6.62,6.62,0,0,1,.84.36,2.5,2.5,0,0,1,.64.44,1.65,1.65,0,0,1,.41.6,2.42,2.42,0,0,1-.15,2,2.33,2.33,0,0,1-.76.77,3.43,3.43,0,0,1-1.11.43,6.16,6.16,0,0,1-1.3.14A6.75,6.75,0,0,1,84.3,105.42Zm8.26-8.49a1.37,1.37,0,0,1-1-.35,1.1,1.1,0,0,1-.37-.85,1.07,1.07,0,0,1,.37-.85,1.56,1.56,0,0,1,1.92,0,1.07,1.07,0,0,1,.37.85,1.09,1.09,0,0,1-.37.86A1.36,1.36,0,0,1,92.56,96.93Zm1.14,8.69H91.39v-7.5H93.7Zm1.46-.2v-1.88a5.24,5.24,0,0,0,1.14.52,3.81,3.81,0,0,0,1.07.16,2.36,2.36,0,0,0,1-.16.56.56,0,0,0,.36-.52.5.5,0,0,0-.16-.36,1.43,1.43,0,0,0-.42-.26,5.81,5.81,0,0,0-.55-.2,5.62,5.62,0,0,1-.58-.19,6.54,6.54,0,0,1-.79-.37,2.36,2.36,0,0,1-.57-.45,1.85,1.85,0,0,1-.35-.59,2.41,2.41,0,0,1-.12-.8,2.06,2.06,0,0,1,.27-1.08,2.31,2.31,0,0,1,.74-.75,3.34,3.34,0,0,1,1-.42,5.59,5.59,0,0,1,1.23-.14,7,7,0,0,1,1,.08,8.65,8.65,0,0,1,1,.22V100a3.5,3.5,0,0,0-.94-.38,3.72,3.72,0,0,0-1-.13,1.91,1.91,0,0,0-.43,0,1.17,1.17,0,0,0-.36.12.65.65,0,0,0-.24.19.47.47,0,0,0-.09.28.56.56,0,0,0,.13.35,1.16,1.16,0,0,0,.35.25,2.88,2.88,0,0,0,.47.19l.52.17a7.13,7.13,0,0,1,.83.36,2.5,2.5,0,0,1,.64.44,1.65,1.65,0,0,1,.41.6,2.07,2.07,0,0,1,.15.82,2.14,2.14,0,0,1-.29,1.14,2.36,2.36,0,0,1-.77.77,3.43,3.43,0,0,1-1.11.43,6.16,6.16,0,0,1-1.3.14A6.79,6.79,0,0,1,95.16,105.42Zm11-.21v-2.34a4.6,4.6,0,0,0,1.38.8,4.46,4.46,0,0,0,1.51.27,3.53,3.53,0,0,0,.78-.08,1.82,1.82,0,0,0,.56-.23.87.87,0,0,0,.33-.33.78.78,0,0,0,.11-.42.94.94,0,0,0-.17-.55,2.09,2.09,0,0,0-.48-.45,4.84,4.84,0,0,0-.72-.39l-.9-.39a4.53,4.53,0,0,1-1.84-1.26,2.72,2.72,0,0,1-.6-1.78,2.83,2.83,0,0,1,.33-1.41,2.68,2.68,0,0,1,.89-1,3.93,3.93,0,0,1,1.32-.56,6.71,6.71,0,0,1,1.58-.18,8.92,8.92,0,0,1,1.45.1,5,5,0,0,1,1.17.3v2.19a3.49,3.49,0,0,0-.57-.32,4.88,4.88,0,0,0-.64-.23,5.18,5.18,0,0,0-.66-.14,4.49,4.49,0,0,0-.62,0,2.77,2.77,0,0,0-.73.08,1.93,1.93,0,0,0-.56.21,1,1,0,0,0-.35.33.83.83,0,0,0-.12.44.77.77,0,0,0,.14.47,1.62,1.62,0,0,0,.39.4,4.86,4.86,0,0,0,.62.36c.25.12.52.25.83.37a10.82,10.82,0,0,1,1.13.56,4.27,4.27,0,0,1,.86.67,2.53,2.53,0,0,1,.55.86,3,3,0,0,1,.19,1.12,3,3,0,0,1-.33,1.47,2.7,2.7,0,0,1-.9,1,4.26,4.26,0,0,1-1.33.53,7.55,7.55,0,0,1-1.6.16,8.73,8.73,0,0,1-1.65-.15A4.56,4.56,0,0,1,106.13,105.21Zm15.4-2.68h-4.89c.08,1.08.76,1.63,2.06,1.63a4,4,0,0,0,2.17-.59v1.67a5.7,5.7,0,0,1-2.7.56,3.49,3.49,0,0,1-3.82-3.82,4,4,0,0,1,1.08-3,3.64,3.64,0,0,1,2.67-1.09,3.29,3.29,0,0,1,2.54,1,3.78,3.78,0,0,1,.89,2.64Zm-2.14-1.43c0-1.07-.44-1.61-1.31-1.61a1.26,1.26,0,0,0-1,.46,2.07,2.07,0,0,0-.49,1.15Zm8.41-.9a2,2,0,0,0-1-.22,1.4,1.4,0,0,0-1.18.55,2.43,2.43,0,0,0-.43,1.5v3.59h-2.31v-7.5h2.31v1.39h0a2,2,0,0,1,2-1.53,1.41,1.41,0,0,1,.57.09Zm8.82-2.08-2.79,7.5h-2.64l-2.65-7.5H131l1.3,4.62a6.16,6.16,0,0,1,.26,1.33h0a6.78,6.78,0,0,1,.27-1.29l1.33-4.66Zm2.16-1.19a1.37,1.37,0,0,1-1-.35,1.1,1.1,0,0,1-.37-.85,1.07,1.07,0,0,1,.37-.85,1.58,1.58,0,0,1,1.93,0,1.1,1.1,0,0,1,.36.85,1.12,1.12,0,0,1-.36.86A1.37,1.37,0,0,1,138.78,96.93Zm1.14,8.69h-2.31v-7.5h2.31Zm7.64-.28a4.53,4.53,0,0,1-2.27.46,3.8,3.8,0,0,1-2.79-1,3.59,3.59,0,0,1-1.07-2.7,4,4,0,0,1,1.14-3,4.24,4.24,0,0,1,3.07-1.11,4,4,0,0,1,1.92.35v2a2.67,2.67,0,0,0-1.62-.54,2.12,2.12,0,0,0-1.58.58,2.16,2.16,0,0,0-.58,1.61,2.14,2.14,0,0,0,.55,1.56,2,2,0,0,0,1.53.57,3.1,3.1,0,0,0,1.7-.54Zm8.25-2.81h-4.89c.08,1.08.76,1.63,2.06,1.63a4,4,0,0,0,2.17-.59v1.67a5.7,5.7,0,0,1-2.7.56,3.49,3.49,0,0,1-3.82-3.82,4,4,0,0,1,1.08-3,3.64,3.64,0,0,1,2.67-1.09,3.27,3.27,0,0,1,2.53,1,3.74,3.74,0,0,1,.9,2.64Zm-2.15-1.43c0-1.07-.43-1.61-1.3-1.61a1.26,1.26,0,0,0-1,.46,2.16,2.16,0,0,0-.5,1.15Z"/></svg>