<svg xmlns="http://www.w3.org/2000/svg" width="200" height="128">
	<path d="M100.06 19c-11.14 0-20 3.83-20 7.87v37.36c0 4 9 8.77 20 8.77S120 68.5 120 64.34V27c.08-4.06-8.92-8-19.94-8Zm0 2.92c7.87 0 14.28 2 14.28 4.39s-6.41 4.39-14.28 4.39-14.29-2-14.29-4.39 6.41-4.39 14.29-4.39Zm2.13 31.95h-4v-6.63l-2.25 4.84a2.72 2.72 0 0 1-2.94 1.8 3 3 0 0 1-3-1.8l-2.25-4.95v6.63H84V43.41a2.33 2.33 0 0 1 1.35-2.47A10.31 10.31 0 0 1 87 40.6a3.3 3.3 0 0 1 3 2l3 6.55 3-6.53a3.3 3.3 0 0 1 3-2 5.4 5.4 0 0 1 1.69.34 2.47 2.47 0 0 1 1.69 2.47v1.46l-.23-.11Zm14.4-.11c0 2.25-2.25 3.38-4.5 3.49h-8v-2.93h8c.45 0 .57-1 .57-1l-1.47.45h-3c-2.7 0-4.39-1.35-4.5-3v-5.11l-1.24-.79h5.85v5.52c0 .11.11.11.56.11h3.94v-5.63h4Z" style="fill:#0078d7"/>
	<path d="M90.6 89.34h-1.36l-1.11-3h-4.46l-1 3h-1.41l4-10.51h1.27Zm-2.87-4-1.65-4.48a3.34 3.34 0 0 1-.16-.7 4.22 4.22 0 0 1-.17.7l-1.64 4.48Zm9.49-3.11-4.44 6.13h4.39v1H91V89l4.44-6.1h-4v-1h5.79Zm7.61 7.16h-1.2v-1.24a2.45 2.45 0 0 1-2.31 1.36c-1.79 0-2.68-1.06-2.68-3.19v-4.48h1.16v4.29c0 1.58.61 2.37 1.82 2.37a1.82 1.82 0 0 0 1.45-.65 2.5 2.5 0 0 0 .56-1.69v-4.32h1.2Zm6.34-6.29a1.47 1.47 0 0 0-.91-.24 1.51 1.51 0 0 0-1.28.73 3.29 3.29 0 0 0-.52 2v3.83h-1.2v-7.5h1.2v1.54a2.61 2.61 0 0 1 .78-1.23 1.77 1.77 0 0 1 1.18-.44 2 2 0 0 1 .72.1Zm7.13 2.84H113a2.8 2.8 0 0 0 .67 1.93 2.3 2.3 0 0 0 1.77.68 3.69 3.69 0 0 0 2.33-.83v1.08a4.41 4.41 0 0 1-2.61.71 3.18 3.18 0 0 1-2.5-1 4.2 4.2 0 0 1-.91-2.87 4.09 4.09 0 0 1 1-2.86 3.19 3.19 0 0 1 2.46-1.1 2.84 2.84 0 0 1 2.28 1 4 4 0 0 1 .8 2.65Zm-1.23-1a2.43 2.43 0 0 0-.5-1.62 1.73 1.73 0 0 0-1.37-.58 1.94 1.94 0 0 0-1.44.61 2.81 2.81 0 0 0-.74 1.59Zm-65.73 21V95.33h3.72q5.59 0 5.6 5.13a5.15 5.15 0 0 1-1.53 3.91 5.62 5.62 0 0 1-4.07 1.47Zm2.37-8.58v6.66h1.17a3.16 3.16 0 0 0 2.41-.92 3.5 3.5 0 0 0 .88-2.52 3.18 3.18 0 0 0-.87-2.36 3.32 3.32 0 0 0-2.43-.86Zm8.69 8.58V95.33h3.83a4.76 4.76 0 0 1 2.7.65 2.07 2.07 0 0 1 .94 1.82 2.15 2.15 0 0 1-.57 1.48 3.08 3.08 0 0 1-1.47.89 2.89 2.89 0 0 1 1.79.83 2.29 2.29 0 0 1 .67 1.67 2.78 2.78 0 0 1-1 2.29 4.29 4.29 0 0 1-2.82.85Zm2.37-8.76v2.49h1a1.7 1.7 0 0 0 1.23-.46 1.19 1.19 0 0 0 .42-1c0-.78-.57-1.16-1.73-1.16Zm0 4.25v2.76h1.28a1.92 1.92 0 0 0 1.28-.38 1.27 1.27 0 0 0 .47-1 1.15 1.15 0 0 0-.46-1 2 2 0 0 0-1.28-.36Zm16-4.82a2.28 2.28 0 0 0-.85-.18c-.75 0-1.12.4-1.12 1.21v.8h1.72V100h-1.67v5.8h-2.31V100h-1.25v-1.7h1.25v-.93a2.71 2.71 0 0 1 .84-2.07 3.19 3.19 0 0 1 2.27-.78 3.87 3.87 0 0 1 1.17.15Zm4.48 9.39a4 4 0 0 1-2.94-1 4.32 4.32 0 0 1 0-5.76 4.16 4.16 0 0 1 3-1.06 4 4 0 0 1 2.93 1.06 3.75 3.75 0 0 1 1.11 2.76 4 4 0 0 1-1.1 3 4.09 4.09 0 0 1-3 1Zm.06-6.09a1.55 1.55 0 0 0-1.27.56 2.46 2.46 0 0 0-.46 1.6c0 1.44.58 2.16 1.75 2.16S87 103.51 87 102s-.57-2.07-1.69-2.07Zm10.43.5a1.91 1.91 0 0 0-1-.23 1.39 1.39 0 0 0-1.18.55 2.44 2.44 0 0 0-.43 1.51v3.58h-2.28v-7.5h2.31v1.39a2 2 0 0 1 2-1.52 1.73 1.73 0 0 1 .57.08Zm17.41 5.41h-2.34v-6.27c0-.67 0-1.43.09-2.25h-.06a10.56 10.56 0 0 1-.33 1.4l-2.46 7.14h-1.93l-2.5-7.07a12.91 12.91 0 0 1-.33-1.47h-.07q.09 1.56.09 2.73v5.81h-2.13V95.33h3.47l2.14 6.23a9.16 9.16 0 0 1 .38 1.5 13.72 13.72 0 0 1 .42-1.51l2.14-6.22h3.38Zm9.3-7.5-3 8.1q-1.11 2.93-3.31 2.92a4.16 4.16 0 0 1-1.39-.19v-1.85a2 2 0 0 0 1 .28 1.26 1.26 0 0 0 1.25-.85l.4-.93-3-7.48h2.56l1.4 4.56a5.82 5.82 0 0 1 .21 1 6 6 0 0 1 .24-1l1.41-4.58Zm.68 7.1v-2.35a4.37 4.37 0 0 0 1.38.8 4.42 4.42 0 0 0 1.51.27 3.53 3.53 0 0 0 .78-.08 1.92 1.92 0 0 0 .56-.22 1 1 0 0 0 .33-.34.9.9 0 0 0-.07-1 1.75 1.75 0 0 0-.48-.45 4.76 4.76 0 0 0-.72-.39l-.9-.39a4.57 4.57 0 0 1-1.83-1.25 2.72 2.72 0 0 1-.61-1.79 2.83 2.83 0 0 1 .33-1.41 2.79 2.79 0 0 1 .9-1 4.18 4.18 0 0 1 1.31-.56 6.79 6.79 0 0 1 1.59-.18 9 9 0 0 1 1.45.1 5.89 5.89 0 0 1 1.17.3v2.19a3.6 3.6 0 0 0-.58-.32 4.41 4.41 0 0 0-.64-.23 5.42 5.42 0 0 0-.65-.14 4.59 4.59 0 0 0-.62 0 2.77 2.77 0 0 0-.73.08 1.93 1.93 0 0 0-.56.21 1.14 1.14 0 0 0-.35.34.73.73 0 0 0-.13.43.82.82 0 0 0 .14.47 1.68 1.68 0 0 0 .4.4 4.83 4.83 0 0 0 .62.37c.24.12.52.24.83.37a8.5 8.5 0 0 1 1.13.56 3.88 3.88 0 0 1 .86.67 2.64 2.64 0 0 1 .55.85 3 3 0 0 1 .19 1.12 3 3 0 0 1-.33 1.47 2.82 2.82 0 0 1-.91 1 3.86 3.86 0 0 1-1.33.53 7.48 7.48 0 0 1-1.6.16 9.63 9.63 0 0 1-1.64-.14 5.22 5.22 0 0 1-1.35-.43Zm15.3.2a6.11 6.11 0 0 0 .73.67 3.19 3.19 0 0 0 .69.42 3 3 0 0 0 .72.21 4.88 4.88 0 0 0 .79.06h.54l.28-.06.24-.08v2a4.32 4.32 0 0 1-.65.13 5.84 5.84 0 0 1-1 .07 3.77 3.77 0 0 1-1.32-.23 5 5 0 0 1-1.16-.65 9.24 9.24 0 0 1-1.07-.95l-1.1-1.21a4.82 4.82 0 0 1-2-.45 4.76 4.76 0 0 1-1.5-1.12 5.24 5.24 0 0 1-1-1.66 6 6 0 0 1-.34-2 5.67 5.67 0 0 1 1.43-4 5 5 0 0 1 3.85-1.54 4.71 4.71 0 0 1 3.62 1.48 5.39 5.39 0 0 1 1.39 3.87 5.93 5.93 0 0 1-.85 3.24 4.59 4.59 0 0 1-2.29 1.82Zm-1.87-8.44a2.41 2.41 0 0 0-2 .93 4.57 4.57 0 0 0 0 4.94 2.54 2.54 0 0 0 3.87 0 3.81 3.81 0 0 0 .72-2.46 4.08 4.08 0 0 0-.69-2.52 2.23 2.23 0 0 0-1.9-.87Zm13.09 8.64h-6.26V95.33h2.37v8.59h3.89Z" style="fill:#706d6e"/>
</svg>
