<svg xmlns="http://www.w3.org/2000/svg" width="200" height="128">
	<path d="M106.77 34H90a1.42 1.42 0 0 0-1.42 1.42v20.96A1.57 1.57 0 0 0 90 58h19.8a1.47 1.47 0 0 0 1.42-1.58v-17.7h-4.55V34h.13Zm-.56 18.09H93.52v-2.37h12.69v2.41Zm0-4.42H93.52V45.3h12.69v2.41Zm0-4.55H93.52v-2.4h12.69v2.4Zm7.25-20.52H86.54L73 46l13.54 23.36h26.92L127 46Zm-3.56 37.6H90.1a3.84 3.84 0 0 1-3.85-3.86V35.46a3.84 3.84 0 0 1 3.85-3.86h18l5.7 5.7v19.08a3.84 3.84 0 0 1-3.9 3.86Z" style="fill:#0078d7"/>
	<path d="M90.6 89.34h-1.36l-1.11-3h-4.46l-1 3h-1.41l4-10.51h1.27Zm-2.87-4-1.65-4.48a3.34 3.34 0 0 1-.16-.7 4.22 4.22 0 0 1-.17.7l-1.64 4.48Zm9.49-3.11-4.44 6.13h4.39v1H91V89l4.44-6.1h-4v-1h5.79Zm7.61 7.16h-1.2v-1.24a2.45 2.45 0 0 1-2.31 1.36c-1.79 0-2.68-1.06-2.68-3.19v-4.48h1.16v4.29c0 1.58.61 2.37 1.82 2.37a1.82 1.82 0 0 0 1.45-.65 2.5 2.5 0 0 0 .56-1.69v-4.32h1.2Zm6.34-6.29a1.47 1.47 0 0 0-.91-.24 1.51 1.51 0 0 0-1.28.73 3.29 3.29 0 0 0-.52 2v3.83h-1.2v-7.5h1.2v1.54a2.61 2.61 0 0 1 .78-1.23 1.77 1.77 0 0 1 1.18-.44 2 2 0 0 1 .72.1Zm7.13 2.84H113a2.8 2.8 0 0 0 .67 1.93 2.3 2.3 0 0 0 1.77.68 3.69 3.69 0 0 0 2.33-.83v1.08a4.41 4.41 0 0 1-2.61.71 3.18 3.18 0 0 1-2.5-1 4.2 4.2 0 0 1-.91-2.87 4.09 4.09 0 0 1 1-2.86 3.19 3.19 0 0 1 2.46-1.1 2.84 2.84 0 0 1 2.28 1 4 4 0 0 1 .8 2.65Zm-1.23-1a2.43 2.43 0 0 0-.5-1.62 1.73 1.73 0 0 0-1.37-.58 1.94 1.94 0 0 0-1.44.61 2.81 2.81 0 0 0-.74 1.59Zm-51.3 12.32h-3.71v2.58h3.41v1.92h-3.41v4.08H59.7V95.33h6.07Zm2.67-.11a1.32 1.32 0 0 1-1-.35 1.13 1.13 0 0 1-.37-.85 1.1 1.1 0 0 1 .37-.85 1.58 1.58 0 0 1 1.93 0 1.1 1.1 0 0 1 .37.85 1.13 1.13 0 0 1-.37.86 1.37 1.37 0 0 1-.93.34Zm1.15 8.69h-2.32v-7.5h2.32Zm4.26 0h-2.32V94.73h2.32Zm8.69-3.09h-4.9c.08 1.09.77 1.63 2.06 1.63a4 4 0 0 0 2.18-.59v1.67a5.65 5.65 0 0 1-2.71.56 3.78 3.78 0 0 1-2.82-1 3.82 3.82 0 0 1-1-2.8 4 4 0 0 1 1.08-3 3.64 3.64 0 0 1 2.67-1.1 3.29 3.29 0 0 1 2.54 1 3.74 3.74 0 0 1 .9 2.64Zm-2.15-1.42c0-1.08-.43-1.62-1.3-1.62a1.25 1.25 0 0 0-1 .47 2.08 2.08 0 0 0-.49 1.15Zm7.4 4.11v-2.35a4.53 4.53 0 0 0 1.39.8 4.42 4.42 0 0 0 1.51.27 3.53 3.53 0 0 0 .78-.08 1.75 1.75 0 0 0 .55-.22 1.1 1.1 0 0 0 .34-.34.9.9 0 0 0-.07-1 2.09 2.09 0 0 0-.48-.45 4.76 4.76 0 0 0-.72-.39l-.9-.39a4.69 4.69 0 0 1-1.84-1.25 2.76 2.76 0 0 1-.6-1.79 2.83 2.83 0 0 1 .33-1.41 2.79 2.79 0 0 1 .9-1 4.09 4.09 0 0 1 1.31-.56 6.77 6.77 0 0 1 1.58-.18 9 9 0 0 1 1.46.1 5.89 5.89 0 0 1 1.17.3v2.19a3.6 3.6 0 0 0-.58-.32 4.88 4.88 0 0 0-.64-.23 5.18 5.18 0 0 0-.66-.14 4.35 4.35 0 0 0-.62 0 2.85 2.85 0 0 0-.74.08 1.86 1.86 0 0 0-.55.21 1.14 1.14 0 0 0-.35.34.73.73 0 0 0-.13.43.82.82 0 0 0 .14.47 1.38 1.38 0 0 0 .4.4 4.22 4.22 0 0 0 .62.37c.24.12.52.24.83.37a8.5 8.5 0 0 1 1.13.56 3.88 3.88 0 0 1 .86.67 2.64 2.64 0 0 1 .55.85 3.16 3.16 0 0 1 .19 1.12 2.91 2.91 0 0 1-.34 1.47 2.7 2.7 0 0 1-.9 1 3.86 3.86 0 0 1-1.33.53 7.48 7.48 0 0 1-1.6.16 9.54 9.54 0 0 1-1.64-.14 5.43 5.43 0 0 1-1.35-.45Zm12.83.31a3.44 3.44 0 0 1-1.55.27c-1.63 0-2.44-.85-2.44-2.54V100h-1.22v-1.7h1.22v-1.58l2.3-.66v2.28h1.69V100h-1.69v3q0 1.17.93 1.17a1.59 1.59 0 0 0 .76-.21Zm4.82.27a4 4 0 0 1-3-1 4.35 4.35 0 0 1 0-5.76 4.17 4.17 0 0 1 3-1.06 4 4 0 0 1 2.93 1.06 3.72 3.72 0 0 1 1.06 2.78 4 4 0 0 1-1.09 3 4.09 4.09 0 0 1-2.9.96Zm.06-6.09a1.57 1.57 0 0 0-1.28.56 2.52 2.52 0 0 0-.45 1.6q0 2.16 1.74 2.16c1.11 0 1.66-.74 1.66-2.22s-.55-2.1-1.67-2.1Zm10.43.5a2 2 0 0 0-1-.23 1.41 1.41 0 0 0-1.18.55 2.44 2.44 0 0 0-.42 1.51v3.58H111v-7.5h2.32v1.39a2 2 0 0 1 2-1.52 1.73 1.73 0 0 1 .57.08Zm7.31 5.41h-2.19v-1.08a2.43 2.43 0 0 1-2.23 1.26 2.35 2.35 0 0 1-1.72-.62 2.23 2.23 0 0 1-.62-1.65q0-2.18 2.58-2.52l2-.27c0-.82-.45-1.23-1.33-1.23a4.54 4.54 0 0 0-2.55.8v-1.74a5.19 5.19 0 0 1 1.32-.44 6.85 6.85 0 0 1 1.53-.2q3.19 0 3.2 3.21Zm-2.17-3v-.5l-1.36.17c-.76.1-1.13.44-1.13 1a.86.86 0 0 0 .27.65 1.06 1.06 0 0 0 .75.25 1.38 1.38 0 0 0 1.06-.45 1.64 1.64 0 0 0 .41-1.17Zm11.36 2.16a4.22 4.22 0 0 1-1.21 3.23 4.87 4.87 0 0 1-3.5 1.15 5.51 5.51 0 0 1-2.4-.43v-2a4.58 4.58 0 0 0 2.33.67 2.54 2.54 0 0 0 1.82-.61 2.25 2.25 0 0 0 .64-1.69v-.59a2.57 2.57 0 0 1-2.33 1.26 2.82 2.82 0 0 1-2.28-1 4.1 4.1 0 0 1-.84-2.71 4.51 4.51 0 0 1 .94-3 3 3 0 0 1 2.4-1.13 2.27 2.27 0 0 1 2.05 1.06v-.87h2.32Zm-2.29-2.75v-.59a1.82 1.82 0 0 0-.42-1.21 1.33 1.33 0 0 0-1.09-.5 1.41 1.41 0 0 0-1.21.6 2.83 2.83 0 0 0-.44 1.69 2.37 2.37 0 0 0 .42 1.48 1.34 1.34 0 0 0 1.14.55 1.44 1.44 0 0 0 1.16-.55 2.26 2.26 0 0 0 .44-1.49Zm11 .52h-4.89c.08 1.09.76 1.63 2.06 1.63a3.92 3.92 0 0 0 2.17-.59v1.67a5.58 5.58 0 0 1-2.7.56 3.49 3.49 0 0 1-3.82-3.81 4 4 0 0 1 1.08-3 3.61 3.61 0 0 1 2.67-1.1 3.27 3.27 0 0 1 2.53 1 3.74 3.74 0 0 1 .9 2.64Zm-2.14-1.44c0-1.08-.43-1.62-1.3-1.62a1.24 1.24 0 0 0-1 .47 2.09 2.09 0 0 0-.5 1.15Z" style="fill:#706d6e"/>
</svg>
