<svg xmlns="http://www.w3.org/2000/svg" width="200" height="128"><defs><style>.cls-1{fill:#0078d7;}.cls-2{fill:#706d6e;}</style></defs><path class="cls-1" d="M91.08,46.5a.7.7,0,0,0,.62.37,1.62,1.62,0,0,0,.74.12,1,1,0,0,0,.62-.12,2.13,2.13,0,0,0,.62-.5l.38-.74a2.86,2.86,0,0,0,.12-1.12,2.8,2.8,0,0,0-.12-1c-.13-.37-.13-.62-.38-.86s-.37-.38-.49-.62a1.42,1.42,0,0,0-1.61,0c-.25.12-.37.37-.62.49l-.37.75a2.27,2.27,0,0,0-.13,1,2.62,2.62,0,0,0,.13,1.11C90.83,46,91,46.25,91.08,46.5Zm7.19,9.66a4.28,4.28,0,0,1,1.23.12A12.44,12.44,0,0,1,110,49.47V26.31C110,22.59,102,19,92.2,19s-17.84,3.34-17.84,7.06V59.5c0,3.34,6.57,6.56,15.11,7.06a6.25,6.25,0,0,1-.12-1.49A9,9,0,0,1,98.27,56.16Zm6.44-6.82h-6.2V39.81h2.85v7.3h3.35ZM92.2,21.6c7.06,0,12.75,1.73,12.75,3.84s-5.69,3.84-12.75,3.84-12.76-1.73-12.76-3.84S85.14,21.6,92.2,21.6ZM86.87,47.11a1.71,1.71,0,0,1-.25.75,1.21,1.21,0,0,1-.49.62,2.78,2.78,0,0,1-.74.49,5.18,5.18,0,0,1-1.12.37,4.89,4.89,0,0,1-1.49.13h-.86a1.53,1.53,0,0,1-.75-.13,5.45,5.45,0,0,1-.61-.12.63.63,0,0,1-.5-.25v-2.6a2.3,2.3,0,0,0,.62.37c.25.13.37.25.62.37s.49.13.74.25a1.51,1.51,0,0,0,.74.13c.25,0,.38,0,.5-.13a.46.46,0,0,0,.25-.12c.12,0,.12-.13.12-.25v-.25a.47.47,0,0,0-.12-.37c-.13-.12-.13-.25-.25-.25s-.25-.12-.5-.24-.37-.13-.61-.25A5,5,0,0,1,81.05,45c-.25-.25-.49-.37-.74-.62a1.07,1.07,0,0,1-.37-.74,2,2,0,0,1-.13-.87,3.73,3.73,0,0,1,.25-1.24,8,8,0,0,1,.74-1A4,4,0,0,1,82,39.93a6.47,6.47,0,0,1,1.61-.25h.87a1.49,1.49,0,0,1,.74.13c.25,0,.37.12.62.12s.37.13.5.13v2.47c-.13-.12-.25-.12-.5-.25s-.37-.12-.62-.24a1.07,1.07,0,0,0-.62-.13H83.9c-.37,0-.62,0-.74.13s-.25.24-.25.49,0,.25.12.25.13.12.25.25.25.12.37.25.37.12.62.24.74.37,1.12.5a5.33,5.33,0,0,1,.86.62c.25.25.37.49.62.74a2.41,2.41,0,0,1,.25,1.12C86.87,46.62,86.87,46.87,86.87,47.11Zm1-.49a5.1,5.1,0,0,1-.37-2,5.74,5.74,0,0,1,.37-2.11,7.24,7.24,0,0,1,1-1.61,4,4,0,0,1,1.49-1,5.1,5.1,0,0,1,2-.37,4.14,4.14,0,0,1,1.86.37,4.61,4.61,0,0,1,1.49,1,6.24,6.24,0,0,1,1,1.49,5.48,5.48,0,0,1,.37,2.1A2.88,2.88,0,0,1,96.78,46a3.7,3.7,0,0,1-.62,1.24,3.31,3.31,0,0,1-.87,1,8.9,8.9,0,0,1-1.11.74L97.4,51.7H93.68l-2.1-2.23a7.43,7.43,0,0,1-1.74-.37,5.66,5.66,0,0,1-1.36-1A6.15,6.15,0,0,0,87.86,46.62Zm37.78,21.8a4.69,4.69,0,0,0-4.21-4.59,12.51,12.51,0,0,0,.24-2.1,11,11,0,0,0-11-11,10.91,10.91,0,0,0-10.28,6.93,9.91,9.91,0,0,0-2-.25A7.81,7.81,0,0,0,98.27,73h24.15v-.12A4.58,4.58,0,0,0,125.64,68.42Zm-4.21,3.34h-23a6.57,6.57,0,0,1,0-13.13,6,6,0,0,1,2.11.37l.61.25.25-.62a9.79,9.79,0,0,1,19.08,3.1,9.35,9.35,0,0,1-.38,2.6l-.24,1,.86-.12h.38a3.33,3.33,0,0,1,3.34,3.34A3.23,3.23,0,0,1,121.43,71.76Z"/><path class="cls-2" d="M90.6,89.34H89.24l-1.11-3H83.67l-1,3H81.26l4-10.51h1.27Zm-2.87-4-1.65-4.48a3.34,3.34,0,0,1-.16-.7h0a4.22,4.22,0,0,1-.17.7l-1.64,4.48Zm9.49-3.11-4.44,6.13h4.39v1H91V89l4.44-6.1h-4v-1h5.79Zm7.61,7.16h-1.2V88.15h0a2.45,2.45,0,0,1-2.31,1.36c-1.79,0-2.68-1.06-2.68-3.19V81.84H99.8v4.29c0,1.58.61,2.37,1.82,2.37a1.82,1.82,0,0,0,1.45-.65,2.5,2.5,0,0,0,.56-1.69V81.84h1.2Zm6.34-6.29a1.47,1.47,0,0,0-.91-.24,1.51,1.51,0,0,0-1.28.73,3.29,3.29,0,0,0-.52,2v3.83h-1.2v-7.5h1.2v1.54h0a2.61,2.61,0,0,1,.78-1.23,1.77,1.77,0,0,1,1.18-.44,2,2,0,0,1,.72.1Zm7.13,2.84H113a2.8,2.8,0,0,0,.67,1.93,2.3,2.3,0,0,0,1.77.68,3.69,3.69,0,0,0,2.33-.83V88.8a4.41,4.41,0,0,1-2.61.71,3.18,3.18,0,0,1-2.5-1,4.2,4.2,0,0,1-.91-2.87,4.09,4.09,0,0,1,1-2.86,3.19,3.19,0,0,1,2.46-1.1,2.84,2.84,0,0,1,2.28,1,4,4,0,0,1,.8,2.65Zm-1.23-1a2.43,2.43,0,0,0-.5-1.62,1.73,1.73,0,0,0-1.37-.58,1.94,1.94,0,0,0-1.44.61,2.81,2.81,0,0,0-.74,1.59ZM74.59,105.44v-2.35a4.37,4.37,0,0,0,1.38.8,4.42,4.42,0,0,0,1.51.27,3.53,3.53,0,0,0,.78-.08,1.75,1.75,0,0,0,.55-.22,1,1,0,0,0,.34-.34.9.9,0,0,0-.07-1,1.75,1.75,0,0,0-.48-.45,4.76,4.76,0,0,0-.72-.39l-.9-.39a4.57,4.57,0,0,1-1.83-1.25,2.72,2.72,0,0,1-.61-1.79,2.83,2.83,0,0,1,.33-1.41,2.79,2.79,0,0,1,.9-1,4.09,4.09,0,0,1,1.31-.56,6.79,6.79,0,0,1,1.59-.18,9,9,0,0,1,1.45.1,5.89,5.89,0,0,1,1.17.3v2.19a3.6,3.6,0,0,0-.58-.32,4.88,4.88,0,0,0-.64-.23,5.42,5.42,0,0,0-.65-.14,4.59,4.59,0,0,0-.62,0,2.85,2.85,0,0,0-.74.08,1.86,1.86,0,0,0-.55.21,1.14,1.14,0,0,0-.35.34.73.73,0,0,0-.13.43.82.82,0,0,0,.14.47,1.52,1.52,0,0,0,.4.4,4.22,4.22,0,0,0,.62.37c.24.12.52.24.83.37a8.5,8.5,0,0,1,1.13.56,3.88,3.88,0,0,1,.86.67,2.64,2.64,0,0,1,.55.85,3,3,0,0,1,.19,1.12,3,3,0,0,1-.33,1.47,2.82,2.82,0,0,1-.91,1,3.86,3.86,0,0,1-1.33.53,7.48,7.48,0,0,1-1.6.16,9.54,9.54,0,0,1-1.64-.14A5.22,5.22,0,0,1,74.59,105.44Zm15.3.2a6.11,6.11,0,0,0,.73.67,3.19,3.19,0,0,0,.69.42,3,3,0,0,0,.71.21,5,5,0,0,0,.8.06h.26l.28,0,.28-.06.24-.08v2a4.61,4.61,0,0,1-.65.13,5.84,5.84,0,0,1-1,.07,3.73,3.73,0,0,1-1.32-.23,5,5,0,0,1-1.16-.65,8.48,8.48,0,0,1-1.07-.95c-.35-.37-.72-.76-1.09-1.18a4.82,4.82,0,0,1-2-.45,4.76,4.76,0,0,1-1.5-1.12,5.24,5.24,0,0,1-1-1.66,6,6,0,0,1-.34-2,5.67,5.67,0,0,1,1.43-4,5,5,0,0,1,3.85-1.54,4.73,4.73,0,0,1,3.62,1.48,5.43,5.43,0,0,1,1.39,3.87,5.93,5.93,0,0,1-.85,3.24A4.63,4.63,0,0,1,89.89,105.64ZM88,97.2a2.39,2.39,0,0,0-2,.93,4.57,4.57,0,0,0,0,4.94,2.54,2.54,0,0,0,3.87,0,3.81,3.81,0,0,0,.72-2.46,4.08,4.08,0,0,0-.69-2.52A2.24,2.24,0,0,0,88,97.2Zm13.09,8.64H94.85V95.33h2.37v8.59h3.89Zm5.55,0V95.33h3.72q5.59,0,5.59,5.13a5.14,5.14,0,0,1-1.52,3.91,5.63,5.63,0,0,1-4.07,1.47ZM109,97.26v6.66h1.18a3.18,3.18,0,0,0,2.41-.92,3.54,3.54,0,0,0,.87-2.52,3.17,3.17,0,0,0-.86-2.36,3.33,3.33,0,0,0-2.44-.86Zm8.7,8.58V95.33h3.82a4.76,4.76,0,0,1,2.7.65,2.07,2.07,0,0,1,1,1.82,2.11,2.11,0,0,1-.58,1.48,3,3,0,0,1-1.46.89v0a2.92,2.92,0,0,1,1.79.83,2.33,2.33,0,0,1,.67,1.67,2.79,2.79,0,0,1-1,2.29,4.29,4.29,0,0,1-2.82.85Zm2.36-8.76v2.49h1a1.73,1.73,0,0,0,1.16-.36,1.19,1.19,0,0,0,.42-1c0-.78-.58-1.16-1.73-1.16Zm0,4.25v2.76h1.29a1.94,1.94,0,0,0,1.28-.38,1.27,1.27,0,0,0,.47-1,1.17,1.17,0,0,0-.46-1,2,2,0,0,0-1.28-.36Z"/></svg>