<svg xmlns="http://www.w3.org/2000/svg" width="200" height="128"><defs><style>.cls-1{fill:#0078d4;}.cls-2{fill:#706d6e;}</style></defs><path class="cls-1" d="M113.85,31.46l.09.06V60.64L78.52,55.25,93.36,73V65.87L113.69,73,127,61.72V29ZM78.51,38l35.34-6.53L96.93,19v5.8L78.51,32.1,73,39.24V54.42l5.48.83h0Z"/><path class="cls-2" d="M90.6,89.34H89.24l-1.11-3H83.67l-1,3H81.26l4-10.51h1.27Zm-2.87-4-1.65-4.48a3.34,3.34,0,0,1-.16-.7h0a4.22,4.22,0,0,1-.17.7l-1.64,4.48Zm9.49-3.11-4.44,6.13h4.39v1H91V89l4.44-6.1h-4v-1h5.79Zm7.61,7.16h-1.2V88.15h0a2.45,2.45,0,0,1-2.31,1.36c-1.79,0-2.68-1.06-2.68-3.19V81.84H99.8v4.29c0,1.58.61,2.37,1.82,2.37a1.82,1.82,0,0,0,1.45-.65,2.5,2.5,0,0,0,.56-1.69V81.84h1.2Zm6.34-6.29a1.47,1.47,0,0,0-.91-.24,1.51,1.51,0,0,0-1.28.73,3.29,3.29,0,0,0-.52,2v3.83h-1.2v-7.5h1.2v1.54h0a2.61,2.61,0,0,1,.78-1.23,1.77,1.77,0,0,1,1.18-.44,2,2,0,0,1,.72.1Zm7.13,2.84H113a2.8,2.8,0,0,0,.67,1.93,2.3,2.3,0,0,0,1.77.68,3.69,3.69,0,0,0,2.33-.83V88.8a4.41,4.41,0,0,1-2.61.71,3.18,3.18,0,0,1-2.5-1,4.2,4.2,0,0,1-.91-2.87,4.09,4.09,0,0,1,1-2.86,3.19,3.19,0,0,1,2.46-1.1,2.84,2.84,0,0,1,2.28,1,4,4,0,0,1,.8,2.65Zm-1.23-1a2.43,2.43,0,0,0-.5-1.62,1.73,1.73,0,0,0-1.37-.58,1.94,1.94,0,0,0-1.44.61,2.81,2.81,0,0,0-.74,1.59Zm-43.16,21V95.33h3.72q5.59,0,5.6,5.13a5.15,5.15,0,0,1-1.53,3.91,5.62,5.62,0,0,1-4.07,1.47Zm2.37-8.58v6.66h1.17a3.18,3.18,0,0,0,2.41-.92,3.5,3.5,0,0,0,.88-2.52,3.18,3.18,0,0,0-.87-2.36,3.33,3.33,0,0,0-2.44-.86Zm15.2,5.49H86.59c.08,1.09.76,1.63,2.06,1.63a3.92,3.92,0,0,0,2.17-.59v1.67a5.58,5.58,0,0,1-2.7.56,3.49,3.49,0,0,1-3.82-3.81,4,4,0,0,1,1.08-3,3.61,3.61,0,0,1,2.67-1.1,3.29,3.29,0,0,1,2.54,1,3.78,3.78,0,0,1,.89,2.64Zm-2.14-1.42c0-1.08-.44-1.62-1.31-1.62a1.24,1.24,0,0,0-1,.47,2,2,0,0,0-.49,1.15Zm10.66-3-2.79,7.5H94.57l-2.66-7.5h2.48l1.3,4.62a6.27,6.27,0,0,1,.26,1.33h0a7.11,7.11,0,0,1,.27-1.29l1.33-4.66Zm5.65,7.68a4.88,4.88,0,0,1-3.67-1.47,5.25,5.25,0,0,1-1.42-3.82,5.65,5.65,0,0,1,1.44-4,5,5,0,0,1,3.82-1.54,4.78,4.78,0,0,1,3.64,1.47,5.46,5.46,0,0,1,1.39,3.88,5.55,5.55,0,0,1-1.44,4A4.91,4.91,0,0,1,105.65,106Zm.11-8.82a2.39,2.39,0,0,0-2,.93,3.88,3.88,0,0,0-.73,2.47,3.83,3.83,0,0,0,.73,2.47,2.52,2.52,0,0,0,3.86,0,3.75,3.75,0,0,0,.72-2.45,4.08,4.08,0,0,0-.7-2.54A2.27,2.27,0,0,0,105.76,97.2Zm8.95,7.77h0v4.32h-2.32v-11h2.32v1.13h0a2.94,2.94,0,0,1,4.66-.32,4.28,4.28,0,0,1,.79,2.73,4.66,4.66,0,0,1-.92,3,3,3,0,0,1-2.47,1.13A2.33,2.33,0,0,1,114.71,105Zm-.07-3.08v.6a1.94,1.94,0,0,0,.41,1.27,1.36,1.36,0,0,0,1.08.49,1.45,1.45,0,0,0,1.23-.61,3,3,0,0,0,.43-1.74c0-1.31-.51-2-1.54-2a1.45,1.45,0,0,0-1.16.54A2.12,2.12,0,0,0,114.64,101.89Zm6.53,3.75v-1.87a5.14,5.14,0,0,0,1.14.51,3.9,3.9,0,0,0,1.08.17,2.34,2.34,0,0,0,1-.17.54.54,0,0,0,.35-.51.47.47,0,0,0-.16-.37,1.61,1.61,0,0,0-.41-.26,4.08,4.08,0,0,0-.56-.19c-.2-.06-.39-.13-.57-.2a6.54,6.54,0,0,1-.79-.37,2,2,0,0,1-.57-.45,1.6,1.6,0,0,1-.35-.59,2.13,2.13,0,0,1-.13-.8,2.06,2.06,0,0,1,.28-1.08,2.37,2.37,0,0,1,.73-.75,3.5,3.5,0,0,1,1-.42,5.45,5.45,0,0,1,1.23-.14,7.08,7.08,0,0,1,2,.31v1.78a3.64,3.64,0,0,0-.94-.38,3.85,3.85,0,0,0-1-.13,2,2,0,0,0-.43,0,1.6,1.6,0,0,0-.35.12.58.58,0,0,0-.24.19.51.51,0,0,0,0,.63,1.11,1.11,0,0,0,.34.25,3,3,0,0,0,.48.19l.51.18a5.44,5.44,0,0,1,.84.35,2.5,2.5,0,0,1,.64.44,2,2,0,0,1,.41.6,2.31,2.31,0,0,1,.14.82,2.14,2.14,0,0,1-.29,1.14,2.18,2.18,0,0,1-.77.77,3.73,3.73,0,0,1-1.1.44,6.16,6.16,0,0,1-1.3.13A6.85,6.85,0,0,1,121.17,105.64Z"/></svg>