<svg xmlns="http://www.w3.org/2000/svg" width="200" height="128">
	<defs>
		<style>
			.cls-1{fill:#ffd000}.cls-3{fill:#e5e5e5}.cls-4{fill:#5b8602}
		</style>
	</defs>
	<path class="cls-1" d="M119.01 36.89h4.84v23.85h-4.84z"/>
	<path class="cls-1" d="M119.01 23.39h4.84v9.11h-4.84z"/>
	<path style="fill:#7eba02" d="M76.15 19h42.86v54H76.15z"/>
	<path d="M93.59 24.51h20.14v12.6H93.59z"/>
	<path d="M95.5 53.43h3.15v14.06H95.5z"/>
	<path d="M89.87 53.43h3.15v14.06h-3.15z"/>
	<circle class="cls-3" cx="94.94" cy="44.99" r="2.81"/>
	<path class="cls-4" d="M107.31 37.11h1.8v6.75h-1.8z"/>
	<path class="cls-4" d="M102.27 43.85h6.86v1.8h-6.86z"/>
	<path class="cls-4" d="M104.12 60.25h4.5v1.8h-4.5z"/>
	<path class="cls-4" d="M85.49 32.05h1.8v27h-1.8z"/>
	<path class="cls-4" d="M87.26 32.08h6.3v1.8h-6.3z"/>
	<path class="cls-4" d="M87.28 57.32h2.59v1.69h-2.59z"/>
	<path class="cls-4" d="M82.59 62.76h7.31v2.14h-7.31z"/>
	<path class="cls-4" d="M80.87 27.44h1.69V64.9h-1.69z"/>
	<path class="cls-4" d="M82.61 27.46h10.91v2.14H82.61z"/>
	<path class="cls-3" d="M108.66 53.76h4.05v13.28h-4.05z"/>
	<path class="cls-4" d="M102.36 45.66h1.8v16.43h-1.8z"/>
	<path d="M90.6 89.34h-1.36l-1.11-3h-4.46l-1 3h-1.41l4-10.51h1.27Zm-2.87-4-1.65-4.48a3.34 3.34 0 0 1-.16-.7 4.22 4.22 0 0 1-.17.7l-1.64 4.48Zm9.49-3.11-4.44 6.13h4.39v1H91V89l4.44-6.1h-4v-1h5.79Zm7.61 7.16h-1.2v-1.24a2.45 2.45 0 0 1-2.31 1.36c-1.79 0-2.68-1.06-2.68-3.19v-4.48h1.16v4.29c0 1.58.61 2.37 1.82 2.37a1.82 1.82 0 0 0 1.45-.65 2.5 2.5 0 0 0 .56-1.69v-4.32h1.2Zm6.34-6.29a1.47 1.47 0 0 0-.91-.24 1.51 1.51 0 0 0-1.28.73 3.29 3.29 0 0 0-.52 2v3.83h-1.2v-7.5h1.2v1.54a2.61 2.61 0 0 1 .78-1.23 1.77 1.77 0 0 1 1.18-.44 2 2 0 0 1 .72.1Zm7.13 2.84H113a2.8 2.8 0 0 0 .67 1.93 2.3 2.3 0 0 0 1.77.68 3.69 3.69 0 0 0 2.33-.83v1.08a4.41 4.41 0 0 1-2.61.71 3.18 3.18 0 0 1-2.5-1 4.2 4.2 0 0 1-.91-2.87 4.09 4.09 0 0 1 1-2.86 3.19 3.19 0 0 1 2.46-1.1 2.84 2.84 0 0 1 2.28 1 4 4 0 0 1 .8 2.65Zm-1.23-1a2.43 2.43 0 0 0-.5-1.62 1.73 1.73 0 0 0-1.37-.58 1.94 1.94 0 0 0-1.44.61 2.81 2.81 0 0 0-.74 1.59Zm-70.7 21H44l-4.32-6.6c-.26-.39-.43-.68-.53-.87 0 .37.06.93.06 1.7v5.77h-2.29V95.33h2.55l4.17 6.4c.19.29.37.57.53.86a11.14 11.14 0 0 1-.06-1.45v-5.81h2.23Zm8.92-3.09h-4.9c.08 1.09.77 1.63 2.06 1.63a4 4 0 0 0 2.18-.59v1.67a5.65 5.65 0 0 1-2.71.56 3.78 3.78 0 0 1-2.82-1 3.82 3.82 0 0 1-1-2.8 4 4 0 0 1 1.09-3 3.6 3.6 0 0 1 2.66-1.1 3.29 3.29 0 0 1 2.54 1 3.74 3.74 0 0 1 .9 2.64Zm-2.15-1.42c0-1.08-.43-1.62-1.3-1.62a1.26 1.26 0 0 0-1 .47 2.08 2.08 0 0 0-.49 1.15Zm8.06 4.42a3.47 3.47 0 0 1-1.55.27c-1.63 0-2.44-.85-2.44-2.54V100H56v-1.7h1.22v-1.58l2.3-.66v2.28h1.68V100h-1.69v3q0 1.17.93 1.17a1.59 1.59 0 0 0 .76-.21Zm12.16-7.41-2.16 7.5h-2.43l-1.11-4.4a4.66 4.66 0 0 1-.12-1 6.7 6.7 0 0 1-.15.93l-1.19 4.43h-2.4l-2.12-7.5H64l1 4.89a5.57 5.57 0 0 1 .11.84 4.6 4.6 0 0 1 .13-.87l1.29-4.86h2.2l1.27 4.83a8.2 8.2 0 0 1 .1.85h.05c0-.28.07-.57.12-.85l1-4.89ZM78 106a4 4 0 0 1-3-1 4.35 4.35 0 0 1 0-5.76 4.19 4.19 0 0 1 3-1.06 3.93 3.93 0 0 1 3 1.03 3.72 3.72 0 0 1 1.06 2.79 4 4 0 0 1-1.1 3 4.09 4.09 0 0 1-2.96 1Zm0-6.07a1.54 1.54 0 0 0-1.27.56 2.46 2.46 0 0 0-.46 1.6c0 1.44.58 2.16 1.75 2.16s1.66-.74 1.66-2.22-.54-2.1-1.68-2.1Zm10.43.5a1.91 1.91 0 0 0-1-.23 1.39 1.39 0 0 0-1.18.55 2.38 2.38 0 0 0-.43 1.51v3.58h-2.26v-7.5h2.31v1.39a2 2 0 0 1 2-1.52 1.73 1.73 0 0 1 .57.08Zm8.57 5.41h-2.73l-2.4-3.72v3.72h-2.34V94.73h2.31v7.07l2.23-3.46h2.75l-2.69 3.52Zm8.48-10.51v1.84h-.88V104h.88v1.83h-4.08V104h.88v-6.83h-.88v-1.84Zm8.53 10.51h-2.31v-4.17c0-1.16-.41-1.74-1.24-1.74a1.23 1.23 0 0 0-1 .46 1.76 1.76 0 0 0-.39 1.17v4.28h-2.27v-7.5h2.32v1.18a2.65 2.65 0 0 1 2.41-1.37c1.66 0 2.49 1 2.49 3.1Zm6.36-.09a3.4 3.4 0 0 1-1.54.27c-1.63 0-2.45-.85-2.45-2.54V100h-1.21v-1.7h1.21v-1.58l2.31-.66v2.28h1.68V100h-1.68v3q0 1.17.93 1.17a1.58 1.58 0 0 0 .75-.21Zm8-3h-4.9c.08 1.09.77 1.63 2.06 1.63a4 4 0 0 0 2.18-.59v1.67a5.65 5.65 0 0 1-2.71.54 3.78 3.78 0 0 1-2.82-1 3.82 3.82 0 0 1-1-2.8 4 4 0 0 1 1.09-3 3.6 3.6 0 0 1 2.66-1.1 3.28 3.28 0 0 1 2.54 1 3.74 3.74 0 0 1 .9 2.64Zm-2.15-1.42c0-1.08-.43-1.62-1.3-1.62a1.26 1.26 0 0 0-1 .47 2.08 2.08 0 0 0-.49 1.15Zm8.42-.9a2 2 0 0 0-1-.23 1.41 1.41 0 0 0-1.18.55 2.44 2.44 0 0 0-.42 1.51v3.58h-2.32v-7.5h2.32v1.39a2 2 0 0 1 2-1.52 1.75 1.75 0 0 1 .58.08Zm6.36-3.92a2.29 2.29 0 0 0-.86-.18c-.74 0-1.11.4-1.11 1.21v.8h1.71V100H139v5.8h-2.31V100h-1.26v-1.7h1.26v-.93a2.71 2.71 0 0 1 .84-2.07 3.18 3.18 0 0 1 2.27-.78 3.87 3.87 0 0 1 1.17.15Zm7.1 9.33h-2.19v-1.08a2.46 2.46 0 0 1-2.24 1.26 2.33 2.33 0 0 1-1.71-.62 2.2 2.2 0 0 1-.63-1.65q0-2.18 2.58-2.52l2-.27c0-.82-.44-1.23-1.33-1.23a4.54 4.54 0 0 0-2.55.8v-1.74a5.19 5.19 0 0 1 1.32-.44 6.85 6.85 0 0 1 1.53-.2q3.21 0 3.21 3.21Zm-2.18-3v-.5l-1.36.17c-.75.1-1.13.44-1.13 1a.86.86 0 0 0 .27.65 1.08 1.08 0 0 0 .75.25 1.37 1.37 0 0 0 1.06-.45 1.64 1.64 0 0 0 .42-1.17Zm9.69 2.78a4.61 4.61 0 0 1-2.26.45 3.83 3.83 0 0 1-2.8-1 3.6 3.6 0 0 1-1.07-2.7 4 4 0 0 1 1.15-3 4.2 4.2 0 0 1 3.06-1.11 3.83 3.83 0 0 1 1.92.36v2a2.63 2.63 0 0 0-1.62-.54 2.14 2.14 0 0 0-1.58.58 2.2 2.2 0 0 0-.58 1.61 2.14 2.14 0 0 0 .56 1.56 2 2 0 0 0 1.53.57 3.07 3.07 0 0 0 1.69-.54Zm8.26-2.82H159c.08 1.09.77 1.63 2.06 1.63a4 4 0 0 0 2.18-.59v1.67a5.65 5.65 0 0 1-2.71.56 3.49 3.49 0 0 1-3.82-3.81 4 4 0 0 1 1.08-3 3.64 3.64 0 0 1 2.67-1.1 3.29 3.29 0 0 1 2.54 1 3.74 3.74 0 0 1 .9 2.64Zm-2.15-1.42c0-1.08-.44-1.62-1.3-1.62a1.25 1.25 0 0 0-1 .47 2.08 2.08 0 0 0-.49 1.15Z" style="fill:#706d6e"/>
</svg>
