<svg xmlns="http://www.w3.org/2000/svg" width="200" height="128">
	<defs>
		<style>
			.cls-1{fill:#804998}.cls-2{fill:#fff;opacity:.2;isolation:isolate}
		</style>
	</defs>
	<path class="cls-1" d="m97.73 36.17-8.31 3.24V26.02l8.31 2.92v7.23z"/>
	<path class="cls-1" d="M82 28.29V37l6.16 2.37V26.13Zm.65 8.1-.32-.11V29l.32-.1.33-.11.32-.11v7.92l-.32-.1Zm1.62.43-.43-.11v-8.1l.43-.11.43-.1.44-.11v8.85l-.44-.1Zm2 .65-.54-.22v-9.18l.54-.11.54-.21.64-.22v10.26l-.64-.21Z"/>
	<path class="cls-1" d="m117.06 36.17-8.31 3.24V26.02l8.31 2.92v7.23z"/>
	<path class="cls-1" d="M101.3 28.29V37l6.15 2.37V26.13Zm.64 8.1-.32-.11V29l.32-.1.33-.11.32-.11v7.92l-.32-.1Zm1.62.43-.43-.11v-8.1l.43-.11.44-.1.43-.11v8.85L104 37Zm2 .65-.54-.22v-9.18l.54-.11.54-.21.65-.22v10.26l-.65-.21Z"/>
	<path class="cls-1" d="m97.73 62.74-8.31 3.24V52.59l8.31 2.91v7.24z"/>
	<path class="cls-1" d="M82 54.86v8.74l6.12 2.4V52.7Zm.65 8.1-.32-.11v-7.24l.32-.11.33-.1.32-.11v7.88l-.32-.11Zm1.62.43-.43-.11v-8.1l.43-.11.43-.11.44-.1v8.85l-.44-.11Zm2 .65-.54-.22v-9.18l.54-.11.54-.21.64-.22v10.26l-.64-.22Z"/>
	<path class="cls-1" d="m117.06 62.74-8.31 3.24V52.59l8.31 2.91v7.24z"/>
	<path class="cls-1" d="M101.3 54.86v8.74l6.15 2.4V52.7Zm.64 8.1-.32-.11v-7.24l.32-.11.33-.1.32-.11v7.88l-.32-.11Zm1.62.43-.43-.11v-8.1l.43-.11.44-.07.43-.1v8.85l-.43-.15Zm2 .65-.54-.22v-9.18l.54-.11.54-.21.65-.22v10.26l-.65-.22Z"/>
	<path class="cls-1" d="m107.99 49.46-8.21 3.13V39.3l8.21 2.92v7.24z"/>
	<path class="cls-1" d="M92.22 41.46v8.75l6.16 2.38V39.3Zm.65 8.1-.32-.1v-7.24l.32-.11.33-.11.32-.1v7.88l-.32-.11Zm1.62.54-.43-.1v-8.1l.43-.11.43-.11.44-.11v8.86l-.44-.11Zm2 .65-.54-.21v-9.18l.54-.11L97 41l.64-.21v10.29l-.64-.22Z"/>
	<path class="cls-1" d="m88.77 49.46-8.21 3.13V39.3l8.21 2.92v7.24z"/>
	<path class="cls-1" d="M73 41.46v8.75l6.16 2.38V39.3Zm.65 8.1-.33-.1v-7.24l.33-.11L74 42l.33-.1v7.88l-.33-.11Zm1.62.54-.43-.1v-8.1l.43-.11.43-.11.43-.11v8.86l-.43-.11Zm1.94.65-.54-.21v-9.18l.54-.11.54-.22.65-.21v10.26l-.65-.22Z"/>
	<path class="cls-1" d="m127 49.46-8.21 3.13V39.3l8.21 2.92v7.24z"/>
	<path class="cls-2" d="m97.73 36.17-8.31 3.24V26.02l8.31 2.92v7.23z"/>
	<path class="cls-2" d="m117.06 36.17-8.31 3.24V26.02l8.31 2.92v7.23z"/>
	<path class="cls-2" d="m97.73 62.74-8.31 3.24V52.59l8.31 2.91v7.24z"/>
	<path class="cls-2" d="m117.06 62.74-8.31 3.24V52.59l8.31 2.91v7.24z"/>
	<path class="cls-2" d="m107.99 49.46-8.21 3.13V39.3l8.21 2.92v7.24z"/>
	<path class="cls-2" d="m88.77 49.46-8.21 3.13V39.3l8.21 2.92v7.24z"/>
	<path class="cls-2" d="m127 49.46-8.21 3.13V39.3l8.21 2.92v7.24z"/>
	<path class="cls-1" d="M111.23 41.46v8.75l6.16 2.38V39.3Zm.65 8.1-.32-.1v-7.24l.32-.11.32-.11.33-.1v7.88l-.33-.11Zm1.62.54-.43-.1v-8.1l.43-.11.43-.11.43-.11v8.86l-.43-.11Zm1.94.65-.54-.21v-9.18l.54-.11.56-.25.65-.21v10.29l-.65-.22Z"/>
	<path d="M90.6 89.34h-1.36l-1.11-3h-4.46l-1 3h-1.41l4-10.51h1.27Zm-2.87-4-1.65-4.48a3.34 3.34 0 0 1-.16-.7 4.22 4.22 0 0 1-.17.7l-1.64 4.48Zm9.49-3.11-4.44 6.13h4.39v1H91V89l4.44-6.1h-4v-1h5.79Zm7.61 7.16h-1.2v-1.24a2.45 2.45 0 0 1-2.31 1.36c-1.79 0-2.68-1.06-2.68-3.19v-4.48h1.16v4.29c0 1.58.61 2.37 1.82 2.37a1.82 1.82 0 0 0 1.45-.65 2.5 2.5 0 0 0 .56-1.69v-4.32h1.2Zm6.34-6.29a1.47 1.47 0 0 0-.91-.24 1.51 1.51 0 0 0-1.28.73 3.29 3.29 0 0 0-.52 2v3.83h-1.2v-7.5h1.2v1.54a2.61 2.61 0 0 1 .78-1.23 1.77 1.77 0 0 1 1.18-.44 2 2 0 0 1 .72.1Zm7.13 2.84H113a2.8 2.8 0 0 0 .67 1.93 2.3 2.3 0 0 0 1.77.68 3.69 3.69 0 0 0 2.33-.83v1.08a4.41 4.41 0 0 1-2.61.71 3.18 3.18 0 0 1-2.5-1 4.2 4.2 0 0 1-.91-2.87 4.09 4.09 0 0 1 1-2.86 3.19 3.19 0 0 1 2.46-1.1 2.84 2.84 0 0 1 2.28 1 4 4 0 0 1 .8 2.65Zm-1.23-1a2.43 2.43 0 0 0-.5-1.62 1.73 1.73 0 0 0-1.37-.58 1.94 1.94 0 0 0-1.44.61 2.81 2.81 0 0 0-.74 1.59Zm-70.28 20.52a6.75 6.75 0 0 1-3 .56A5 5 0 0 1 40 104.6a5.22 5.22 0 0 1-1.39-3.79 5.52 5.52 0 0 1 1.56-4.08 5.44 5.44 0 0 1 4-1.57 7.47 7.47 0 0 1 2.59.39v2.28a4.57 4.57 0 0 0-2.4-.63 3.23 3.23 0 0 0-2.39.92 3.5 3.5 0 0 0-.9 2.52 3.38 3.38 0 0 0 .85 2.43 3 3 0 0 0 2.31.91 4.89 4.89 0 0 0 2.53-.68ZM52 106a4 4 0 0 1-3-1 4.35 4.35 0 0 1 0-5.76 4.19 4.19 0 0 1 3-1.06 3.93 3.93 0 0 1 3 1.03 3.72 3.72 0 0 1 1.07 2.79 4 4 0 0 1-1.1 3 4.09 4.09 0 0 1-2.97 1Zm0-6.07a1.54 1.54 0 0 0-1.27.56 2.46 2.46 0 0 0-.46 1.6q0 2.16 1.74 2.16c1.11 0 1.67-.74 1.67-2.22s-.53-2.1-1.68-2.1Zm12.78 5.91H62.5v-4.17c0-1.16-.41-1.74-1.24-1.74a1.23 1.23 0 0 0-1 .46 1.76 1.76 0 0 0-.39 1.17v4.28h-2.3v-7.5h2.31v1.18a2.66 2.66 0 0 1 2.41-1.37c1.66 0 2.49 1 2.49 3.1Zm6.37-.09a3.47 3.47 0 0 1-1.55.27c-1.63 0-2.45-.85-2.45-2.54V100H66v-1.7h1.21v-1.58l2.31-.66v2.28h1.69V100h-1.72v3q0 1.17.93 1.17a1.59 1.59 0 0 0 .76-.21Zm7.54.09h-2.16v-1.08a2.44 2.44 0 0 1-2.26 1.24 2.35 2.35 0 0 1-1.72-.62 2.2 2.2 0 0 1-.63-1.65c0-1.45.86-2.29 2.59-2.52l2-.27c0-.82-.44-1.23-1.33-1.23a4.59 4.59 0 0 0-2.55.8v-1.72a5.33 5.33 0 0 1 1.37-.44 6.85 6.85 0 0 1 1.53-.2q3.21 0 3.21 3.21Zm-2.18-3v-.5l-1.36.17c-.75.1-1.13.44-1.13 1a.87.87 0 0 0 .28.65 1 1 0 0 0 .74.25 1.35 1.35 0 0 0 1.06-.45 1.6 1.6 0 0 0 .44-1.17Zm5.18-5.64a1.32 1.32 0 0 1-1-.35 1.1 1.1 0 0 1-.37-.85 1.07 1.07 0 0 1 .37-.85 1.58 1.58 0 0 1 1.93 0 1.1 1.1 0 0 1 .37.85 1.13 1.13 0 0 1-.37.86 1.37 1.37 0 0 1-.9.29Zm1.15 8.69h-2.29v-7.5h2.32Zm9.19 0h-2.28v-4.17c0-1.16-.42-1.74-1.25-1.74a1.2 1.2 0 0 0-1 .46 1.76 1.76 0 0 0-.39 1.17v4.28h-2.3v-7.5h2.32v1.18a2.65 2.65 0 0 1 2.41-1.37c1.66 0 2.49 1 2.49 3.1Zm8.57-3.09h-4.9c.08 1.09.77 1.63 2.06 1.63a4 4 0 0 0 2.18-.59v1.67a5.65 5.65 0 0 1-2.71.56 3.78 3.78 0 0 1-2.82-1 3.82 3.82 0 0 1-1-2.8 4 4 0 0 1 1.09-3 3.6 3.6 0 0 1 2.66-1.1 3.28 3.28 0 0 1 2.54 1 3.74 3.74 0 0 1 .9 2.64Zm-2.15-1.42c0-1.08-.43-1.62-1.3-1.62a1.26 1.26 0 0 0-1 .47 2.08 2.08 0 0 0-.49 1.15Zm8.42-.9a2 2 0 0 0-1-.23 1.41 1.41 0 0 0-1.18.55 2.44 2.44 0 0 0-.42 1.51v3.58H102v-7.5h2.32v1.39a2 2 0 0 1 2-1.52 1.75 1.75 0 0 1 .58.08Zm4.95 5v-2.35a4.53 4.53 0 0 0 1.39.8 4.42 4.42 0 0 0 1.51.27 3.53 3.53 0 0 0 .78-.08 1.75 1.75 0 0 0 .55-.22 1.1 1.1 0 0 0 .34-.34.9.9 0 0 0-.07-1 2.09 2.09 0 0 0-.48-.45 4.76 4.76 0 0 0-.72-.39l-.9-.39a4.57 4.57 0 0 1-1.83-1.25 2.72 2.72 0 0 1-.61-1.79 2.83 2.83 0 0 1 .33-1.41 2.79 2.79 0 0 1 .9-1 4.09 4.09 0 0 1 1.31-.56 6.77 6.77 0 0 1 1.58-.18 9 9 0 0 1 1.46.1 5.89 5.89 0 0 1 1.17.3v2.19a3.6 3.6 0 0 0-.58-.32 4.88 4.88 0 0 0-.64-.23 5.18 5.18 0 0 0-.66-.14 4.35 4.35 0 0 0-.61 0 2.85 2.85 0 0 0-.74.08 1.86 1.86 0 0 0-.55.21 1.14 1.14 0 0 0-.35.34.73.73 0 0 0-.13.43.82.82 0 0 0 .14.47 1.38 1.38 0 0 0 .4.4 4.22 4.22 0 0 0 .62.37c.24.12.52.24.83.37a8.5 8.5 0 0 1 1.13.56 3.88 3.88 0 0 1 .86.67 2.64 2.64 0 0 1 .55.85 3.16 3.16 0 0 1 .19 1.12 2.91 2.91 0 0 1-.34 1.47 2.7 2.7 0 0 1-.9 1 3.86 3.86 0 0 1-1.33.53 7.48 7.48 0 0 1-1.6.16 9.54 9.54 0 0 1-1.64-.14 5.43 5.43 0 0 1-1.33-.49Zm15.41-2.69h-4.9c.08 1.09.77 1.63 2.06 1.63a4 4 0 0 0 2.18-.59v1.67a5.64 5.64 0 0 1-2.7.56 3.5 3.5 0 0 1-3.83-3.81 4 4 0 0 1 1.09-3 3.6 3.6 0 0 1 2.66-1.1 3.28 3.28 0 0 1 2.54 1 3.74 3.74 0 0 1 .9 2.64Zm-2.15-1.42c0-1.08-.43-1.62-1.3-1.62a1.28 1.28 0 0 0-1 .47 2.08 2.08 0 0 0-.49 1.15Zm8.42-.9a2 2 0 0 0-1-.23 1.41 1.41 0 0 0-1.18.55 2.44 2.44 0 0 0-.42 1.51v3.58h-2.32v-7.5H131v1.39a2 2 0 0 1 2-1.52 1.73 1.73 0 0 1 .57.08Zm8.82-2.09-2.8 7.5h-2.63l-2.66-7.5h2.47L138 103a6.17 6.17 0 0 1 .25 1.33 8.29 8.29 0 0 1 .28-1.29l1.33-4.66Zm2.16-1.19a1.32 1.32 0 0 1-1-.35 1.11 1.11 0 0 1-.38-.85 1.08 1.08 0 0 1 .38-.85 1.56 1.56 0 0 1 1.92 0 1.07 1.07 0 0 1 .37.85 1.09 1.09 0 0 1-.37.86 1.36 1.36 0 0 1-.89.3Zm1.14 8.69h-2.32v-7.5h2.32Zm7.63-.27a4.61 4.61 0 0 1-2.25.39 3.81 3.81 0 0 1-2.8-1 3.6 3.6 0 0 1-1.07-2.7 4 4 0 0 1 1.15-3 4.2 4.2 0 0 1 3.06-1.11 3.85 3.85 0 0 1 1.92.36v2a2.63 2.63 0 0 0-1.62-.54 2.14 2.14 0 0 0-1.58.58 2.49 2.49 0 0 0 0 3.17 2 2 0 0 0 1.53.57 3.07 3.07 0 0 0 1.69-.54Zm8.25-2.82h-4.89c.08 1.09.77 1.63 2.06 1.63a4 4 0 0 0 2.18-.59v1.67a5.65 5.65 0 0 1-2.71.56 3.49 3.49 0 0 1-3.82-3.81 4 4 0 0 1 1.08-3 3.62 3.62 0 0 1 2.67-1.1 3.29 3.29 0 0 1 2.54 1 3.74 3.74 0 0 1 .89 2.64Zm-2.14-1.42c0-1.08-.44-1.62-1.31-1.62a1.24 1.24 0 0 0-1 .47 2.08 2.08 0 0 0-.49 1.15Z" style="fill:#706d6e"/>
</svg>
