<svg xmlns="http://www.w3.org/2000/svg" width="200" height="128">
	<defs>
		<style>
			.cls-1{fill:#0072c6}.cls-3{fill:#59b4d9}
		</style>
	</defs>
	<path class="cls-1" d="M73.86 19a.79.79 0 0 0-.86.86v10.8a.8.8 0 0 0 .86.87h5.4a.8.8 0 0 0 .87-.87v-4.42h39.63v4.53c0 .54.33.87 1.08.87H126a.8.8 0 0 0 .86-.87V20c.11-.65-.21-1-.75-1H73.86Z"/>
	<path class="cls-1" d="M126.14 73a.79.79 0 0 0 .86-.86V61.55a.79.79 0 0 0-.86-.86H121a.79.79 0 0 0-.86.86v4.32h-39.9v-4.53c0-.54-.33-.87-1.08-.87h-5.3c-.54 0-.86.33-.86 1.08v10.59a.79.79 0 0 0 .86.86Z"/>
	<path class="cls-1" d="m99.11 37.783 2.295-1.431 11.279 18.088-2.295 1.43z"/>
	<path class="cls-1" d="m87.904 54.308 11.27-18.038 2.29 1.43-11.27 18.039z"/>
	<circle cx="100" cy="37.04" r="5.83" style="fill:#b8d432"/>
	<circle class="cls-3" cx="88.77" cy="54.96" r="5.83"/>
	<circle class="cls-3" cx="111.23" cy="54.96" r="5.83"/>
	<path d="M90.6 89.34h-1.36l-1.11-3h-4.46l-1 3h-1.41l4-10.51h1.27Zm-2.87-4-1.65-4.48a3.34 3.34 0 0 1-.16-.7 4.22 4.22 0 0 1-.17.7l-1.64 4.48Zm9.49-3.11-4.44 6.13h4.39v1H91V89l4.44-6.1h-4v-1h5.79Zm7.61 7.16h-1.2v-1.24a2.45 2.45 0 0 1-2.31 1.36c-1.79 0-2.68-1.06-2.68-3.19v-4.48h1.16v4.29c0 1.58.61 2.37 1.82 2.37a1.82 1.82 0 0 0 1.45-.65 2.5 2.5 0 0 0 .56-1.69v-4.32h1.2Zm6.34-6.29a1.47 1.47 0 0 0-.91-.24 1.51 1.51 0 0 0-1.28.73 3.29 3.29 0 0 0-.52 2v3.83h-1.2v-7.5h1.2v1.54a2.61 2.61 0 0 1 .78-1.23 1.77 1.77 0 0 1 1.18-.44 2 2 0 0 1 .72.1Zm7.13 2.84H113a2.8 2.8 0 0 0 .67 1.93 2.3 2.3 0 0 0 1.77.68 3.69 3.69 0 0 0 2.33-.83v1.08a4.41 4.41 0 0 1-2.61.71 3.18 3.18 0 0 1-2.5-1 4.2 4.2 0 0 1-.91-2.87 4.09 4.09 0 0 1 1-2.86 3.19 3.19 0 0 1 2.46-1.1 2.84 2.84 0 0 1 2.28 1 4 4 0 0 1 .8 2.65Zm-1.23-1a2.43 2.43 0 0 0-.5-1.62 1.73 1.73 0 0 0-1.37-.58 1.94 1.94 0 0 0-1.44.61 2.81 2.81 0 0 0-.74 1.59Zm-77.51 20.5v-2.35a4.53 4.53 0 0 0 1.39.8 4.42 4.42 0 0 0 1.51.27 3.53 3.53 0 0 0 .78-.08 1.75 1.75 0 0 0 .55-.22 1.1 1.1 0 0 0 .34-.34.9.9 0 0 0-.07-1 2.09 2.09 0 0 0-.48-.45 4.76 4.76 0 0 0-.72-.39l-.9-.39a4.57 4.57 0 0 1-1.83-1.25 2.72 2.72 0 0 1-.61-1.79 2.83 2.83 0 0 1 .33-1.41 2.79 2.79 0 0 1 .9-1 4.09 4.09 0 0 1 1.31-.56 6.77 6.77 0 0 1 1.58-.18 9 9 0 0 1 1.46.1 5.89 5.89 0 0 1 1.17.3v2.19a3.6 3.6 0 0 0-.58-.32 4.88 4.88 0 0 0-.64-.23 5.42 5.42 0 0 0-.65-.14 4.59 4.59 0 0 0-.62 0 2.85 2.85 0 0 0-.74.08 1.86 1.86 0 0 0-.55.21 1.14 1.14 0 0 0-.35.34.73.73 0 0 0-.13.43.82.82 0 0 0 .14.47 1.52 1.52 0 0 0 .4.4 4.22 4.22 0 0 0 .62.37c.24.12.52.24.83.37a8.5 8.5 0 0 1 1.13.56 3.88 3.88 0 0 1 .86.67 2.64 2.64 0 0 1 .55.85 3.16 3.16 0 0 1 .19 1.12 3 3 0 0 1-.33 1.47 2.82 2.82 0 0 1-.91 1 3.86 3.86 0 0 1-1.33.53 7.48 7.48 0 0 1-1.6.16 9.54 9.54 0 0 1-1.64-.14 5.43 5.43 0 0 1-1.36-.45ZM55 102.75h-4.92c.07 1.09.76 1.63 2.05 1.63a4 4 0 0 0 2.18-.59v1.67a5.61 5.61 0 0 1-2.7.56 3.5 3.5 0 0 1-3.83-3.81 4 4 0 0 1 1.09-3 3.6 3.6 0 0 1 2.66-1.1 3.28 3.28 0 0 1 2.54 1 3.74 3.74 0 0 1 .9 2.64Zm-2.15-1.42c0-1.08-.43-1.62-1.3-1.62a1.24 1.24 0 0 0-1 .47 2 2 0 0 0-.5 1.15Zm8.42-.9a2 2 0 0 0-1-.23 1.41 1.41 0 0 0-1.18.55 2.44 2.44 0 0 0-.42 1.51v3.58h-2.33v-7.5h2.32v1.39a2 2 0 0 1 2-1.52 1.73 1.73 0 0 1 .57.08Zm8.82-2.09-2.79 7.5h-2.67L62 98.34h2.48l1.3 4.62a7 7 0 0 1 .26 1.33 8.29 8.29 0 0 1 .28-1.29l1.33-4.66Zm2.16-1.19a1.32 1.32 0 0 1-1-.35 1.11 1.11 0 0 1-.38-.85 1.08 1.08 0 0 1 .38-.85 1.56 1.56 0 0 1 1.92 0 1.07 1.07 0 0 1 .37.85 1.09 1.09 0 0 1-.37.86 1.36 1.36 0 0 1-.95.34Zm1.14 8.69H71v-7.5h2.32Zm7.63-.27a4.61 4.61 0 0 1-2.26.45 3.83 3.83 0 0 1-2.8-1 3.6 3.6 0 0 1-1.07-2.7 4 4 0 0 1 1.15-3 4.2 4.2 0 0 1 3.06-1.11 3.83 3.83 0 0 1 1.92.36v2a2.63 2.63 0 0 0-1.62-.54 2.14 2.14 0 0 0-1.58.58 2.2 2.2 0 0 0-.58 1.61 2.14 2.14 0 0 0 .56 1.56 2 2 0 0 0 1.53.57 3 3 0 0 0 1.69-.54Zm8.26-2.82h-4.9c.08 1.09.77 1.63 2.06 1.63a4 4 0 0 0 2.18-.59v1.67a5.65 5.65 0 0 1-2.71.56 3.49 3.49 0 0 1-3.82-3.81 4 4 0 0 1 1.08-3 3.64 3.64 0 0 1 2.67-1.1 3.29 3.29 0 0 1 2.54 1 3.74 3.74 0 0 1 .9 2.64Zm-2.15-1.42c0-1.08-.44-1.62-1.3-1.62a1.25 1.25 0 0 0-1 .47 2.08 2.08 0 0 0-.49 1.15Zm7.87 4.51V95.33h3.82a4.76 4.76 0 0 1 2.7.65 2.07 2.07 0 0 1 .95 1.82 2.11 2.11 0 0 1-.58 1.48 3 3 0 0 1-1.47.89 2.92 2.92 0 0 1 1.8.83 2.33 2.33 0 0 1 .67 1.67 2.79 2.79 0 0 1-1 2.29 4.29 4.29 0 0 1-2.82.85Zm2.36-8.76v2.49h1a1.73 1.73 0 0 0 1.16-.36 1.19 1.19 0 0 0 .42-1c0-.78-.58-1.16-1.73-1.16Zm0 4.25v2.76h1.28a2 2 0 0 0 1.29-.38 1.27 1.27 0 0 0 .47-1 1.17 1.17 0 0 0-.46-1 2 2 0 0 0-1.28-.36Zm14.15 4.51h-2.3v-1.14a2.62 2.62 0 0 1-2.29 1.32c-1.74 0-2.61-1-2.61-3.16v-4.52h2.31v4.32q0 1.59 1.26 1.59a1.25 1.25 0 0 0 1-.44 1.74 1.74 0 0 0 .38-1.18v-4.29h2.3Zm1.46-.2v-1.87a4.76 4.76 0 0 0 1.14.51 3.89 3.89 0 0 0 1.07.17 2.31 2.31 0 0 0 1-.17.54.54 0 0 0 .36-.51.51.51 0 0 0-.16-.37 1.68 1.68 0 0 0-.42-.26 3.93 3.93 0 0 0-.55-.19l-.58-.2a6.54 6.54 0 0 1-.79-.37 2.31 2.31 0 0 1-.57-.45 1.74 1.74 0 0 1-.35-.59 2.36 2.36 0 0 1-.12-.8 2 2 0 0 1 .28-1.08 2.27 2.27 0 0 1 .73-.75 3.3 3.3 0 0 1 1-.42 5.43 5.43 0 0 1 1.22-.14 7.08 7.08 0 0 1 2 .31v1.78a3.37 3.37 0 0 0-.94-.38 3.72 3.72 0 0 0-1-.13 2 2 0 0 0-.43 0 1.69 1.69 0 0 0-.36.12.65.65 0 0 0-.24.19.49.49 0 0 0-.09.28.5.5 0 0 0 .14.35 1 1 0 0 0 .34.25 2.88 2.88 0 0 0 .47.19l.52.18a5.31 5.31 0 0 1 .83.35 2.56 2.56 0 0 1 .65.44 2.21 2.21 0 0 1 .41.6 2.31 2.31 0 0 1 .14.82 2.14 2.14 0 0 1-.29 1.14 2.18 2.18 0 0 1-.77.77 3.68 3.68 0 0 1-1.11.44 6.1 6.1 0 0 1-1.3.13 6.79 6.79 0 0 1-2.2-.34Zm20.27.2h-2.72l-1.63-2.71c-.13-.2-.24-.38-.36-.54a2.48 2.48 0 0 0-.34-.42 1.38 1.38 0 0 0-.35-.26 1 1 0 0 0-.41-.09h-.64v4h-2.36V95.33h3.75c2.54 0 3.82 1 3.82 2.86a3 3 0 0 1-.17 1 2.65 2.65 0 0 1-.48.83 2.91 2.91 0 0 1-.74.65 3.7 3.7 0 0 1-1 .42 1.4 1.4 0 0 1 .45.24 3.1 3.1 0 0 1 .43.39 3.6 3.6 0 0 1 .39.47c.13.17.24.33.34.49Zm-6.45-8.73V100h1a1.72 1.72 0 0 0 1.22-.44 1.49 1.49 0 0 0 .47-1.11c0-.91-.55-1.37-1.65-1.37Zm13.57 5.64h-4.9c.08 1.09.77 1.63 2.06 1.63a4 4 0 0 0 2.18-.59v1.67a5.65 5.65 0 0 1-2.7.54 3.78 3.78 0 0 1-2.82-1 3.82 3.82 0 0 1-1-2.8 4 4 0 0 1 1.09-3 3.6 3.6 0 0 1 2.66-1.1 3.29 3.29 0 0 1 2.54 1 3.74 3.74 0 0 1 .9 2.64Zm-2.15-1.42c0-1.08-.43-1.62-1.3-1.62a1.26 1.26 0 0 0-1 .47 2.08 2.08 0 0 0-.49 1.15Zm5.84 4.51h-2.32V94.73H144Zm8.19 0H150v-1.08a2.46 2.46 0 0 1-2.24 1.26 2.33 2.33 0 0 1-1.71-.62 2.2 2.2 0 0 1-.63-1.65q0-2.18 2.58-2.52l2-.27c0-.82-.44-1.23-1.33-1.23a4.54 4.54 0 0 0-2.55.8v-1.74a5.19 5.19 0 0 1 1.32-.44 6.85 6.85 0 0 1 1.53-.2q3.21 0 3.21 3.21Zm-2.18-3v-.5l-1.36.17c-.75.1-1.13.44-1.13 1a.86.86 0 0 0 .27.65 1.08 1.08 0 0 0 .75.25 1.37 1.37 0 0 0 1.06-.45 1.64 1.64 0 0 0 .4-1.17Zm11.15-4.45-3 8.1q-1.1 2.93-3.31 2.92a4.14 4.14 0 0 1-1.38-.19v-1.85a1.93 1.93 0 0 0 1 .28 1.27 1.27 0 0 0 1.25-.85l.39-.93-3-7.48h2.57l1.4 4.56a7 7 0 0 1 .2 1 7.25 7.25 0 0 1 .24-1l1.42-4.58Z" style="fill:#706d6e"/>
</svg>
