<svg xmlns="http://www.w3.org/2000/svg" width="200" height="128"><defs><style>.cls-1{fill:#2989df;}.cls-2{fill:#51e5fe;}.cls-3{fill:#fdfefe;}.cls-4{fill:#706d6e;}</style></defs><path class="cls-1" d="M85.66,59.06h0c-.2-.21-.4-.42-.59-.65C85.27,58.64,85.47,58.85,85.66,59.06Z"/><path class="cls-1" d="M112.41,49c-1.11,0-2.65.08-3.23.08-1.4,0-2.82,0-4.21-.16a5.59,5.59,0,0,1-4.92-6.48,5.73,5.73,0,0,1,5.43-4.57l.51,0c.94-4.14,3.49-5.94,7.78-5.26l.64.15A19.49,19.49,0,0,0,80.6,43c1.1,0,2.44,0,3.2.07,3.11.21,5.52,2.55,5.42,5.19a2.38,2.38,0,0,0,0,.34c.3.06.59.13.88.17a5.11,5.11,0,0,1,4.4,5.4,5.18,5.18,0,0,1-5.22,4.91H85.67a19.46,19.46,0,0,0,1.87,1.76A51.93,51.93,0,0,0,105.24,54C110.93,50.61,112.41,49,112.41,49Z"/><path class="cls-1" d="M107.07,57.07A59.05,59.05,0,0,1,92,63.54a19.29,19.29,0,0,0,7.94,1.7A19.5,19.5,0,0,0,119.3,47.57,60,60,0,0,1,107.07,57.07Z"/><path class="cls-1" d="M80.46,44.22c0-.41.08-.83.14-1.24C80.54,43.39,80.5,43.81,80.46,44.22Z"/><path class="cls-1" d="M80.55,48.13c0-.15,0-.29,0-.44C80.51,47.84,80.53,48,80.55,48.13Z"/><path class="cls-1" d="M80.45,47.08l0-.35Z"/><path class="cls-1" d="M80.4,45.75c0-.44,0-.87,0-1.3C80.42,44.88,80.4,45.31,80.4,45.75Z"/><path class="cls-2" d="M73.69,27.21a1,1,0,0,1,.17,0,6.32,6.32,0,0,1,5.75,4.63c.14.58.19,1.18.28,1.76a.57.57,0,0,0,1.12,0c0-.14,0-.28,0-.41A6.26,6.26,0,0,1,84.37,28a6,6,0,0,1,2.8-.77c.39,0,.72-.07.75-.71a4.42,4.42,0,0,0-.47-.41c-.09-.06-.26,0-.4,0a6.24,6.24,0,0,1-4.67-2.46A6,6,0,0,1,81,19.92c0-.39-.07-.71-.55-.74s-.53.17-.6.69a8.57,8.57,0,0,1-.34,1.83,6.25,6.25,0,0,1-4.6,4.2,7,7,0,0,1-1.29.16c-.37,0-.64.13-.65.56S73.28,27.22,73.69,27.21Z"/><path class="cls-2" d="M126,66.42a5.09,5.09,0,0,1-3.92-2.15,5.72,5.72,0,0,1-1-2.81c0-.3-.09-.57-.44-.57s-.39.29-.43.59a6.94,6.94,0,0,1-.24,1.27,5,5,0,0,1-4.68,3.67c-.33,0-.61.08-.6.48s.3.42.56.46a8.87,8.87,0,0,1,1,.12,5,5,0,0,1,3.8,4.12,6,6,0,0,1,.12.72c0,.27.07.48.4.5s.43-.14.46-.44.08-.48.11-.72a4.9,4.9,0,0,1,3.36-4,8.56,8.56,0,0,1,1.43-.25c.3-.05.62-.08.64-.47S126.33,66.45,126,66.42Z"/><path class="cls-2" d="M106.39,27.37a19.47,19.47,0,0,1,4.79,2.49,27.44,27.44,0,0,1,5.26-.58V25.71h0A35.9,35.9,0,0,0,106.39,27.37Z"/><path class="cls-2" d="M126.05,29.72c-1.6-2.71-5.07-4-9.61-4v3.57c3.3,0,5.69.83,6.54,2.27,1.09,1.83.16,5.21-2.5,9.05-3.3,4.75-8.71,9.51-15.24,13.39-7.53,4.49-15.62,7.16-21.64,7.16-3.3,0-5.69-.82-6.54-2.26-1.1-1.84-.16-5.22,2.5-9,.32-.46.67-.92,1-1.38a18.69,18.69,0,0,1-.19-2.71A20.4,20.4,0,0,1,80.59,43C74.25,49.61,71.41,56.4,74,60.72c1.61,2.7,5.08,4,9.62,4,6.44,0,15-2.64,23.47-7.66C121.45,48.5,130,36.26,126.05,29.72Z"/><path class="cls-3" d="M90.14,48.75c-.29,0-.58-.11-.88-.17a2.38,2.38,0,0,1,0-.34c.1-2.64-2.31-5-5.42-5.19C83,43,81.7,43,80.6,43a19.44,19.44,0,0,0,5.06,16.08h3.66a5.18,5.18,0,0,0,5.22-4.91A5.11,5.11,0,0,0,90.14,48.75Z"/><path class="cls-3" d="M119.05,42a19.81,19.81,0,0,0-4.61-9.29l-.67-.16c-4.29-.68-6.84,1.12-7.78,5.26l-.51,0a5.73,5.73,0,0,0-5.43,4.57A5.59,5.59,0,0,0,105,48.93c1.39.14,2.81.14,4.21.16.58,0,2.12,0,3.23-.08a44.32,44.32,0,0,0,6.71-6.61C119.1,42.27,119.07,42.15,119.05,42Z"/><path class="cls-4" d="M90.6,89.34H89.24l-1.11-3H83.67l-1,3H81.26l4-10.51h1.27Zm-2.87-4-1.65-4.48a3.34,3.34,0,0,1-.16-.7h0a4.22,4.22,0,0,1-.17.7l-1.64,4.48Zm9.49-3.11-4.44,6.13h4.39v1H91V89l4.44-6.1h-4v-1h5.79Zm7.61,7.16h-1.2V88.15h0a2.45,2.45,0,0,1-2.31,1.36c-1.79,0-2.68-1.06-2.68-3.19V81.84H99.8v4.29c0,1.58.61,2.37,1.82,2.37a1.82,1.82,0,0,0,1.45-.65,2.5,2.5,0,0,0,.56-1.69V81.84h1.2Zm6.34-6.29a1.47,1.47,0,0,0-.91-.24,1.51,1.51,0,0,0-1.28.73,3.29,3.29,0,0,0-.52,2v3.83h-1.2v-7.5h1.2v1.54h0a2.61,2.61,0,0,1,.78-1.23,1.77,1.77,0,0,1,1.18-.44,2,2,0,0,1,.72.1Zm7.13,2.84H113a2.8,2.8,0,0,0,.67,1.93,2.3,2.3,0,0,0,1.77.68,3.69,3.69,0,0,0,2.33-.83V88.8a4.41,4.41,0,0,1-2.61.71,3.18,3.18,0,0,1-2.5-1,4.2,4.2,0,0,1-.91-2.87,4.09,4.09,0,0,1,1-2.86,3.19,3.19,0,0,1,2.46-1.1,2.84,2.84,0,0,1,2.28,1,4,4,0,0,1,.8,2.65Zm-1.23-1a2.43,2.43,0,0,0-.5-1.62,1.73,1.73,0,0,0-1.37-.58,1.94,1.94,0,0,0-1.44.61,2.81,2.81,0,0,0-.74,1.59Zm-46,20.59a6.75,6.75,0,0,1-3,.56,5,5,0,0,1-3.8-1.42,5.21,5.21,0,0,1-1.38-3.79,5.51,5.51,0,0,1,1.55-4.08,5.44,5.44,0,0,1,4-1.57,7.47,7.47,0,0,1,2.59.39v2.28a4.57,4.57,0,0,0-2.4-.63,3.24,3.24,0,0,0-2.39.92,3.5,3.5,0,0,0-.9,2.52,3.38,3.38,0,0,0,.85,2.43,3,3,0,0,0,2.31.91,4.89,4.89,0,0,0,2.53-.68Zm5.18.56a4,4,0,0,1-3-1,4.35,4.35,0,0,1,0-5.76,4.19,4.19,0,0,1,3-1.06,3.93,3.93,0,0,1,2.93,1.06A3.72,3.72,0,0,1,80.35,102a4,4,0,0,1-1.1,3A4.09,4.09,0,0,1,76.25,106Zm.06-6.09a1.54,1.54,0,0,0-1.27.56,2.46,2.46,0,0,0-.46,1.6c0,1.44.58,2.16,1.75,2.16S78,103.51,78,102,77.43,99.93,76.31,99.93Zm5,5.71v-1.87a4.76,4.76,0,0,0,1.14.51,3.78,3.78,0,0,0,1.07.17,2.34,2.34,0,0,0,1-.17.53.53,0,0,0,.35-.51.47.47,0,0,0-.16-.37,1.45,1.45,0,0,0-.41-.26,3.93,3.93,0,0,0-.55-.19l-.58-.2a6.54,6.54,0,0,1-.79-.37,2,2,0,0,1-.57-.45,1.74,1.74,0,0,1-.35-.59,2.36,2.36,0,0,1-.12-.8,2.06,2.06,0,0,1,.27-1.08,2.37,2.37,0,0,1,.73-.75,3.5,3.5,0,0,1,1-.42,5.45,5.45,0,0,1,1.23-.14,7.08,7.08,0,0,1,2,.31v1.78a3.5,3.5,0,0,0-.94-.38,3.79,3.79,0,0,0-1-.13,1.87,1.87,0,0,0-.42,0,1.52,1.52,0,0,0-.36.12.65.65,0,0,0-.24.19.51.51,0,0,0,0,.63,1,1,0,0,0,.35.25,2.88,2.88,0,0,0,.47.19l.51.18a5.44,5.44,0,0,1,.84.35,2.5,2.5,0,0,1,.64.44,1.83,1.83,0,0,1,.41.6,2.11,2.11,0,0,1,.14.82,2.06,2.06,0,0,1-.29,1.14,2.16,2.16,0,0,1-.76.77,3.68,3.68,0,0,1-1.11.44,6.16,6.16,0,0,1-1.3.13A6.75,6.75,0,0,1,81.36,105.64Zm19,.2H98.05v-4.28c0-1.09-.4-1.63-1.2-1.63a1.1,1.1,0,0,0-.93.49,2,2,0,0,0-.36,1.22v4.2H93.24v-4.32c0-1.06-.39-1.59-1.18-1.59a1.1,1.1,0,0,0-.94.47,2,2,0,0,0-.36,1.27v4.17H88.45v-7.5h2.31v1.17h0a2.8,2.8,0,0,1,1-1,2.76,2.76,0,0,1,1.41-.38,2.17,2.17,0,0,1,2.18,1.4,2.78,2.78,0,0,1,2.52-1.4c1.63,0,2.45,1,2.45,3Zm5.4.18a4,4,0,0,1-3-1,4.35,4.35,0,0,1,0-5.76,4.19,4.19,0,0,1,3-1.06,3.93,3.93,0,0,1,2.93,1.06,3.72,3.72,0,0,1,1.07,2.78,4,4,0,0,1-1.1,3A4.09,4.09,0,0,1,105.76,106Zm.06-6.09a1.54,1.54,0,0,0-1.27.56,2.46,2.46,0,0,0-.46,1.6q0,2.16,1.74,2.16c1.11,0,1.67-.74,1.67-2.22S106.94,99.93,105.82,99.93Zm5.05,5.71v-1.87a4.88,4.88,0,0,0,1.13.51,3.9,3.9,0,0,0,1.08.17,2.34,2.34,0,0,0,1-.17.53.53,0,0,0,.35-.51.47.47,0,0,0-.16-.37,1.45,1.45,0,0,0-.41-.26,3.93,3.93,0,0,0-.55-.19l-.58-.2a6.54,6.54,0,0,1-.79-.37,2,2,0,0,1-.57-.45,1.6,1.6,0,0,1-.35-.59,2.36,2.36,0,0,1-.12-.8,2.06,2.06,0,0,1,.27-1.08,2.37,2.37,0,0,1,.73-.75,3.5,3.5,0,0,1,1-.42,5.45,5.45,0,0,1,1.23-.14,7.08,7.08,0,0,1,2,.31v1.78a3.5,3.5,0,0,0-.94-.38,3.85,3.85,0,0,0-1-.13,2,2,0,0,0-.43,0,1.6,1.6,0,0,0-.35.12.65.65,0,0,0-.24.19.51.51,0,0,0,0,.63,1,1,0,0,0,.35.25,2.56,2.56,0,0,0,.47.19l.51.18a5.44,5.44,0,0,1,.84.35,2.5,2.5,0,0,1,.64.44,2,2,0,0,1,.41.6,2.11,2.11,0,0,1,.14.82,2.06,2.06,0,0,1-.29,1.14,2.18,2.18,0,0,1-.77.77,3.62,3.62,0,0,1-1.1.44,6.16,6.16,0,0,1-1.3.13A6.75,6.75,0,0,1,110.87,105.64Zm7.31.2V95.33h3.72q5.59,0,5.6,5.13a5.15,5.15,0,0,1-1.53,3.91,5.62,5.62,0,0,1-4.07,1.47Zm2.37-8.58v6.66h1.17a3.16,3.16,0,0,0,2.41-.92,3.5,3.5,0,0,0,.88-2.52,3.18,3.18,0,0,0-.87-2.36,3.32,3.32,0,0,0-2.43-.86Zm8.69,8.58V95.33h3.83a4.76,4.76,0,0,1,2.7.65,2.07,2.07,0,0,1,.94,1.82,2.15,2.15,0,0,1-.57,1.48,3,3,0,0,1-1.47.89v0a2.89,2.89,0,0,1,1.79.83,2.29,2.29,0,0,1,.67,1.67,2.78,2.78,0,0,1-1,2.29,4.29,4.29,0,0,1-2.82.85Zm2.37-8.76v2.49h1a1.7,1.7,0,0,0,1.15-.36,1.19,1.19,0,0,0,.42-1c0-.78-.57-1.16-1.73-1.16Zm0,4.25v2.76h1.28a2,2,0,0,0,1.29-.38,1.26,1.26,0,0,0,.46-1,1.15,1.15,0,0,0-.46-1,2,2,0,0,0-1.28-.36Z"/></svg>