<svg xmlns="http://www.w3.org/2000/svg" width="200" height="128"><defs><style>.cls-1{fill:#0078d7;}.cls-2{fill:#706d6e;}</style></defs><path class="cls-1" d="M115,42.87H103.35l5.84,4.55ZM91.38,49a.53.53,0,0,1-.43-.14l-5.41-4.27v7H97.93V44.43l-5.84,4.42A1.56,1.56,0,0,1,91.38,49Zm17.81,0c-.14,0-.43,0-.43-.14l-5.55-4.27v7H115.6V44.43l-5.84,4.42A1.11,1.11,0,0,1,109.19,49Zm4.42-26.36H86.54L73,46,86.54,69.37h26.92L127,46ZM118.31,56H81.41a2.07,2.07,0,0,1-2-2.13V39.73a2.08,2.08,0,0,1,2-2.14h36.9c.43,0,1.14,0,6,9.12l.15.43-.15.43C119.45,56,118.74,56,118.31,56ZM97.22,42.87H85.4l5.84,4.55ZM81.41,39.16a.61.61,0,0,0-.57.57V53.84c0,.28.28.71.57.71H118a58.3,58.3,0,0,0,4.71-7.41,79.45,79.45,0,0,0-4.71-8Zm18,13.11a1,1,0,0,1-1,.85h-14c-.43,0-.57-.42-.57-.85V41.87c0-.43.14-.57.57-.57h14c.43,0,1,.14,1,.57Zm17.52,0a.79.79,0,0,1-.71.85H102.35a.79.79,0,0,1-.71-.85V41.87c0-.43.28-.57.71-.57h13.82c.43,0,.71.14.71.57Z"/><path class="cls-2" d="M90.6,89.34H89.24l-1.11-3H83.67l-1,3H81.26l4-10.51h1.27Zm-2.87-4-1.65-4.48a3.34,3.34,0,0,1-.16-.7h0a4.22,4.22,0,0,1-.17.7l-1.64,4.48Zm9.49-3.11-4.44,6.13h4.39v1H91V89l4.44-6.1h-4v-1h5.79Zm7.61,7.16h-1.2V88.15h0a2.45,2.45,0,0,1-2.31,1.36c-1.79,0-2.68-1.06-2.68-3.19V81.84H99.8v4.29c0,1.58.61,2.37,1.82,2.37a1.82,1.82,0,0,0,1.45-.65,2.5,2.5,0,0,0,.56-1.69V81.84h1.2Zm6.34-6.29a1.47,1.47,0,0,0-.91-.24,1.51,1.51,0,0,0-1.28.73,3.29,3.29,0,0,0-.52,2v3.83h-1.2v-7.5h1.2v1.54h0a2.61,2.61,0,0,1,.78-1.23,1.77,1.77,0,0,1,1.18-.44,2,2,0,0,1,.72.1Zm7.13,2.84H113a2.8,2.8,0,0,0,.67,1.93,2.3,2.3,0,0,0,1.77.68,3.69,3.69,0,0,0,2.33-.83V88.8a4.41,4.41,0,0,1-2.61.71,3.18,3.18,0,0,1-2.5-1,4.2,4.2,0,0,1-.91-2.87,4.09,4.09,0,0,1,1-2.86,3.19,3.19,0,0,1,2.46-1.1,2.84,2.84,0,0,1,2.28,1,4,4,0,0,1,.8,2.65Zm-1.23-1a2.43,2.43,0,0,0-.5-1.62,1.73,1.73,0,0,0-1.37-.58,1.94,1.94,0,0,0-1.44.61,2.81,2.81,0,0,0-.74,1.59ZM55.46,105.64a5.4,5.4,0,0,0,.72.67,3.09,3.09,0,0,0,1.41.63,4.92,4.92,0,0,0,.8.06h.25l.29,0,.27-.06.24-.08v2a4.07,4.07,0,0,1-.65.13,5.72,5.72,0,0,1-1,.07,3.73,3.73,0,0,1-1.32-.23,4.77,4.77,0,0,1-1.16-.65,8.55,8.55,0,0,1-1.08-.95L53.14,106a4.77,4.77,0,0,1-2-.45,4.54,4.54,0,0,1-1.5-1.12,5.08,5.08,0,0,1-1-1.66,6.24,6.24,0,0,1-.34-2,5.64,5.64,0,0,1,1.44-4,5,5,0,0,1,3.84-1.54,4.71,4.71,0,0,1,3.62,1.48,5.39,5.39,0,0,1,1.39,3.87,5.93,5.93,0,0,1-.85,3.24A4.56,4.56,0,0,1,55.46,105.64ZM53.58,97.2a2.39,2.39,0,0,0-2,.93,4.52,4.52,0,0,0,0,4.94,2.54,2.54,0,0,0,3.87,0,3.87,3.87,0,0,0,.71-2.46,4.15,4.15,0,0,0-.68-2.52A2.25,2.25,0,0,0,53.58,97.2Zm13.74,8.64H65V104.7h0A2.61,2.61,0,0,1,62.68,106c-1.74,0-2.61-1-2.61-3.16V98.34h2.31v4.32q0,1.59,1.26,1.59a1.27,1.27,0,0,0,1-.44,1.79,1.79,0,0,0,.37-1.18V98.34h2.31ZM76,102.75H71.11c.08,1.09.76,1.63,2.06,1.63a3.92,3.92,0,0,0,2.17-.59v1.67a5.58,5.58,0,0,1-2.7.56,3.49,3.49,0,0,1-3.82-3.81,4,4,0,0,1,1.08-3,3.61,3.61,0,0,1,2.67-1.1,3.29,3.29,0,0,1,2.54,1,3.78,3.78,0,0,1,.89,2.64Zm-2.14-1.42c0-1.08-.44-1.62-1.31-1.62a1.24,1.24,0,0,0-1,.47,2,2,0,0,0-.49,1.15Zm10.65,4.51H82.2V104.7h0A2.61,2.61,0,0,1,79.87,106c-1.74,0-2.61-1-2.61-3.16V98.34h2.31v4.32q0,1.59,1.26,1.59a1.27,1.27,0,0,0,1-.44,1.79,1.79,0,0,0,.37-1.18V98.34h2.31Zm8.68-3.09H88.3c.08,1.09.76,1.63,2.06,1.63a3.92,3.92,0,0,0,2.17-.59v1.67a5.58,5.58,0,0,1-2.7.56A3.49,3.49,0,0,1,86,102.21a4,4,0,0,1,1.08-3,3.61,3.61,0,0,1,2.67-1.1,3.29,3.29,0,0,1,2.54,1,3.78,3.78,0,0,1,.89,2.64Zm-2.14-1.42c0-1.08-.44-1.62-1.31-1.62a1.24,1.24,0,0,0-1,.47,2,2,0,0,0-.49,1.15Zm7.4,4.11v-2.35a4.53,4.53,0,0,0,1.39.8,4.36,4.36,0,0,0,1.5.27,3.53,3.53,0,0,0,.78-.08,1.82,1.82,0,0,0,.56-.22,1,1,0,0,0,.33-.34.78.78,0,0,0,.11-.42.88.88,0,0,0-.17-.55,2.09,2.09,0,0,0-.48-.45,4.76,4.76,0,0,0-.72-.39l-.9-.39A4.61,4.61,0,0,1,99,100.07a2.76,2.76,0,0,1-.6-1.79,2.73,2.73,0,0,1,1.22-2.38,4.14,4.14,0,0,1,1.32-.56,6.71,6.71,0,0,1,1.58-.18,8.92,8.92,0,0,1,1.45.1,5.56,5.56,0,0,1,1.17.3v2.19a3.12,3.12,0,0,0-.57-.32,4.88,4.88,0,0,0-.64-.23,5.18,5.18,0,0,0-.66-.14,4.49,4.49,0,0,0-.62,0,2.77,2.77,0,0,0-.73.08,2,2,0,0,0-.56.21,1.26,1.26,0,0,0-.35.34.8.8,0,0,0-.12.43.75.75,0,0,0,.14.47,1.47,1.47,0,0,0,.39.4,4.38,4.38,0,0,0,.63.37c.24.12.52.24.82.37a7.93,7.93,0,0,1,1.13.56,3.72,3.72,0,0,1,.87.67,2.62,2.62,0,0,1,.54.85,3,3,0,0,1,.19,1.12,3,3,0,0,1-.33,1.47,2.7,2.7,0,0,1-.9,1,4,4,0,0,1-1.33.53,7.55,7.55,0,0,1-1.6.16,9.66,9.66,0,0,1-1.65-.14A5.22,5.22,0,0,1,98.45,105.44Zm12.83.31a3.47,3.47,0,0,1-1.55.27c-1.63,0-2.45-.85-2.45-2.54V100h-1.21v-1.7h1.21V96.72l2.31-.66v2.28h1.69V100h-1.69v3q0,1.17.93,1.17a1.59,1.59,0,0,0,.76-.21Zm4.82.27a4,4,0,0,1-2.95-1,4.32,4.32,0,0,1,0-5.76,4.16,4.16,0,0,1,3-1.06,4,4,0,0,1,2.93,1.06,3.72,3.72,0,0,1,1.06,2.78,4,4,0,0,1-1.09,3A4.1,4.1,0,0,1,116.1,106Zm.05-6.09a1.55,1.55,0,0,0-1.27.56,2.52,2.52,0,0,0-.45,1.6q0,2.16,1.74,2.16c1.11,0,1.66-.74,1.66-2.22S117.27,99.93,116.15,99.93Zm10.43.5a1.88,1.88,0,0,0-1-.23,1.4,1.4,0,0,0-1.18.55,2.44,2.44,0,0,0-.42,1.51v3.58h-2.32v-7.5H124v1.39h0a2,2,0,0,1,2-1.52,1.65,1.65,0,0,1,.57.08Zm7.32,5.41h-2.19v-1.08h0a2.44,2.44,0,0,1-2.23,1.26,2.35,2.35,0,0,1-1.72-.62,2.2,2.2,0,0,1-.63-1.65c0-1.45.87-2.29,2.59-2.52l2-.27c0-.82-.45-1.23-1.34-1.23a4.59,4.59,0,0,0-2.55.8V98.79a5.42,5.42,0,0,1,1.33-.44,6.69,6.69,0,0,1,1.52-.2q3.21,0,3.21,3.21Zm-2.17-3v-.5l-1.37.17c-.75.1-1.12.44-1.12,1a.86.86,0,0,0,.27.65,1,1,0,0,0,.74.25,1.39,1.39,0,0,0,1.07-.45A1.64,1.64,0,0,0,131.73,102.79ZM143.09,105a4.25,4.25,0,0,1-1.21,3.23,4.89,4.89,0,0,1-3.5,1.15,5.56,5.56,0,0,1-2.41-.43v-2a4.61,4.61,0,0,0,2.34.67,2.54,2.54,0,0,0,1.82-.61,2.25,2.25,0,0,0,.64-1.69v-.59h0a2.58,2.58,0,0,1-2.33,1.26,2.82,2.82,0,0,1-2.28-1,4.1,4.1,0,0,1-.84-2.71,4.56,4.56,0,0,1,.93-3,3.07,3.07,0,0,1,2.47-1.13,2.29,2.29,0,0,1,2.05,1.06h0v-.87h2.32Zm-2.29-2.75v-.59a1.82,1.82,0,0,0-.42-1.21,1.35,1.35,0,0,0-1.1-.5,1.4,1.4,0,0,0-1.2.6,2.76,2.76,0,0,0-.44,1.69,2.43,2.43,0,0,0,.41,1.48,1.36,1.36,0,0,0,1.15.55,1.45,1.45,0,0,0,1.16-.55A2.32,2.32,0,0,0,140.8,102.23Zm11,.52h-4.9c.08,1.09.77,1.63,2.06,1.63a4,4,0,0,0,2.18-.59v1.67a5.64,5.64,0,0,1-2.7.56,3.5,3.5,0,0,1-3.83-3.81,4,4,0,0,1,1.09-3,3.6,3.6,0,0,1,2.66-1.1,3.28,3.28,0,0,1,2.54,1,3.74,3.74,0,0,1,.9,2.64Zm-2.15-1.42c0-1.08-.43-1.62-1.3-1.62a1.28,1.28,0,0,0-1,.47,2.08,2.08,0,0,0-.49,1.15Z"/></svg>