<svg xmlns="http://www.w3.org/2000/svg" width="200" height="128"><defs><style>.cls-1{fill:#0066c5;}.cls-2{fill:#8d040a;}.cls-3{fill:#fe677e;}.cls-4{fill:#f90005;}.cls-5{fill:#706d6e;}</style></defs><path class="cls-1" d="M100.59,23.16a16.31,16.31,0,0,1,13.27,6.78,15.07,15.07,0,0,1,2.63,7.87,12.2,12.2,0,0,1,7.67,4.25A11.47,11.47,0,0,1,127,50.33a12.26,12.26,0,0,1-9.6,10.85c0-1,0-2,0-3V53.09h-1.42c-.07-1.29-.48-1.68-1.83-1.68H85.94c-1.4,0-1.82.43-1.82,1.83,0,2.6,0,5.19,0,7.79-.42-.12-.84-.22-1.25-.36C77.25,58.86,72.93,53,73,47.25A14.45,14.45,0,0,1,85,33.58,1.18,1.18,0,0,0,86,32.77a15.41,15.41,0,0,1,7-7.66A14.37,14.37,0,0,1,100.59,23.16Z"/><path class="cls-2" d="M115.91,53.09l-10.23,0H85.84v15.7c-1.25.06-1.73-.38-1.74-1.63,0-2,0-4.11,0-6.17,0-2.6,0-5.19,0-7.79,0-1.4.42-1.83,1.82-1.83h28.14C115.43,51.41,115.84,51.8,115.91,53.09Z"/><path class="cls-3" d="M117.38,61.18c0,.72,0,1.43,0,2.15h-5V58.21h5C117.35,59.2,117.37,60.19,117.38,61.18Zm-16.6-3h4.9v-5H95.77v5H90.86V63.3h4.89v5.54h10V63.3h-4.92Z"/><path class="cls-4" d="M117.34,63.33v5.51H105.7V63.3h-4.92V58.18h4.9v-5l10.23,0h1.42v5.12h-5v5.12Zm-31.5,5.5h9.91V63.3H90.86V58.18h4.91v-5H85.84Z"/><path class="cls-5" d="M90.6,89.34H89.24l-1.11-3H83.67l-1,3H81.26l4-10.51h1.27Zm-2.87-4-1.65-4.48a3.34,3.34,0,0,1-.16-.7h0a4.22,4.22,0,0,1-.17.7l-1.64,4.48Zm9.49-3.11-4.44,6.13h4.39v1H91V89l4.44-6.1h-4v-1h5.79Zm7.61,7.16h-1.2V88.15h0a2.45,2.45,0,0,1-2.31,1.36c-1.79,0-2.68-1.06-2.68-3.19V81.84H99.8v4.29c0,1.58.61,2.37,1.82,2.37a1.82,1.82,0,0,0,1.45-.65,2.5,2.5,0,0,0,.56-1.69V81.84h1.2Zm6.34-6.29a1.47,1.47,0,0,0-.91-.24,1.51,1.51,0,0,0-1.28.73,3.29,3.29,0,0,0-.52,2v3.83h-1.2v-7.5h1.2v1.54h0a2.61,2.61,0,0,1,.78-1.23,1.77,1.77,0,0,1,1.18-.44,2,2,0,0,1,.72.1Zm7.13,2.84H113a2.8,2.8,0,0,0,.67,1.93,2.3,2.3,0,0,0,1.77.68,3.69,3.69,0,0,0,2.33-.83V88.8a4.41,4.41,0,0,1-2.61.71,3.18,3.18,0,0,1-2.5-1,4.2,4.2,0,0,1-.91-2.87,4.09,4.09,0,0,1,1-2.86,3.19,3.19,0,0,1,2.46-1.1,2.84,2.84,0,0,1,2.28,1,4,4,0,0,1,.8,2.65Zm-1.23-1a2.43,2.43,0,0,0-.5-1.62,1.73,1.73,0,0,0-1.37-.58,1.94,1.94,0,0,0-1.44.61,2.81,2.81,0,0,0-.74,1.59ZM80,97.26H76.24v2.58h3.41v1.92H76.24v4.08H73.88V95.33H80Zm2.67-.11a1.32,1.32,0,0,1-1-.35,1.13,1.13,0,0,1-.37-.85,1.1,1.1,0,0,1,.37-.85,1.58,1.58,0,0,1,1.93,0A1.1,1.1,0,0,1,84,96a1.13,1.13,0,0,1-.37.86A1.37,1.37,0,0,1,82.62,97.15Zm1.15,8.69H81.45v-7.5h2.32Zm6.84-5.41a2,2,0,0,0-1-.23,1.41,1.41,0,0,0-1.18.55,2.44,2.44,0,0,0-.42,1.51v3.58H85.71v-7.5H88v1.39h0a2,2,0,0,1,2-1.52,1.73,1.73,0,0,1,.57.08Zm7.75,2.32H93.47c.08,1.09.76,1.63,2.06,1.63a3.92,3.92,0,0,0,2.17-.59v1.67A5.58,5.58,0,0,1,95,106a3.49,3.49,0,0,1-3.82-3.81,4,4,0,0,1,1.08-3,3.61,3.61,0,0,1,2.67-1.1,3.29,3.29,0,0,1,2.54,1,3.78,3.78,0,0,1,.89,2.64Zm-2.14-1.42c0-1.08-.44-1.62-1.31-1.62a1.24,1.24,0,0,0-1,.47,2,2,0,0,0-.49,1.15Zm14.38-3-2.16,7.5H106l-1.11-4.4a4.66,4.66,0,0,1-.12-1h0a6.7,6.7,0,0,1-.15.93l-1.19,4.43H101l-2.12-7.5h2.36l1,4.89a5.57,5.57,0,0,1,.11.84h.05a4.6,4.6,0,0,1,.13-.87l1.29-4.86h2.2l1.16,4.89a8.2,8.2,0,0,1,.1.85h0c0-.28.07-.57.12-.85l1-4.89Zm7.34,7.5h-2.19v-1.08h0a2.44,2.44,0,0,1-2.23,1.26,2.35,2.35,0,0,1-1.72-.62,2.2,2.2,0,0,1-.63-1.65c0-1.45.87-2.29,2.59-2.52l2-.27c0-.82-.45-1.23-1.34-1.23a4.59,4.59,0,0,0-2.55.8V98.79a5.42,5.42,0,0,1,1.33-.44,6.69,6.69,0,0,1,1.52-.2q3.21,0,3.21,3.21Zm-2.17-3v-.5l-1.37.17c-.75.1-1.12.44-1.12,1a.86.86,0,0,0,.27.65,1,1,0,0,0,.74.25,1.39,1.39,0,0,0,1.07-.45A1.64,1.64,0,0,0,115.77,102.79Zm6.32,3h-2.32V94.73h2.32Zm4.26,0H124V94.73h2.32Z"/></svg>