<svg xmlns="http://www.w3.org/2000/svg" width="200" height="128">
	<path d="M88.36 67v4.9c0 .68-.34 1-.85 1H73.84a.8.8 0 0 1-.84-.85V58.57a.8.8 0 0 1 .84-.84h4.9c.67 0 1 .34 1 .84v7.6h7.76a.8.8 0 0 1 .86.83Zm37.8-47.93h-13.67c-.51 0-.85.34-.85 1V25a.8.8 0 0 0 .85.84h7.76v7.6c0 .5.34.84 1 .84h4.9a.8.8 0 0 0 .84-.84V19.93a.8.8 0 0 0-.83-.85Zm-8.1 38.82a4.93 4.93 0 0 0-1 .11l-5.24-9.16a6.24 6.24 0 0 0-6.71-10.33l-5.47-7.79a5.24 5.24 0 1 0-2.22 1.54l5.51 7.85a6.19 6.19 0 0 0-1.47 3.14l-20 1.65.23 2.69L101.6 46a6.2 6.2 0 0 0 1.55 2.66l-4 6.64a4 4 0 0 0-.5 0 4.22 4.22 0 1 0 3 1.21l3.81-6.33a6.27 6.27 0 0 0 2.17.39 6.34 6.34 0 0 0 1.86-.28l5.2 9.09A4.89 4.89 0 1 0 118.1 58Z" style="fill:#006dd6"/>
	<path d="M90.6 89.34h-1.36l-1.11-3h-4.46l-1 3h-1.41l4-10.51h1.27Zm-2.87-4-1.65-4.48a3.34 3.34 0 0 1-.16-.7 4.22 4.22 0 0 1-.17.7l-1.64 4.48Zm9.49-3.11-4.44 6.13h4.39v1H91V89l4.44-6.1h-4v-1h5.79Zm7.61 7.16h-1.2v-1.24a2.45 2.45 0 0 1-2.31 1.36c-1.79 0-2.68-1.06-2.68-3.19v-4.48h1.16v4.29c0 1.58.61 2.37 1.82 2.37a1.82 1.82 0 0 0 1.45-.65 2.5 2.5 0 0 0 .56-1.69v-4.32h1.2Zm6.34-6.29a1.47 1.47 0 0 0-.91-.24 1.51 1.51 0 0 0-1.28.73 3.29 3.29 0 0 0-.52 2v3.83h-1.2v-7.5h1.2v1.54a2.61 2.61 0 0 1 .78-1.23 1.77 1.77 0 0 1 1.18-.44 2 2 0 0 1 .72.1Zm7.13 2.84H113a2.8 2.8 0 0 0 .67 1.93 2.3 2.3 0 0 0 1.77.68 3.69 3.69 0 0 0 2.33-.83v1.08a4.41 4.41 0 0 1-2.61.71 3.18 3.18 0 0 1-2.5-1 4.2 4.2 0 0 1-.91-2.87 4.09 4.09 0 0 1 1-2.86 3.19 3.19 0 0 1 2.46-1.1 2.84 2.84 0 0 1 2.28 1 4 4 0 0 1 .8 2.65Zm-1.23-1a2.43 2.43 0 0 0-.5-1.62 1.73 1.73 0 0 0-1.37-.58 1.94 1.94 0 0 0-1.44.61 2.81 2.81 0 0 0-.74 1.59Zm-41 10.46v1.84h-.88V104h.88v1.83H72V104h.88v-6.83H72v-1.84Zm4.87 10.6a4 4 0 0 1-2.94-1 4.32 4.32 0 0 1 0-5.76 4.16 4.16 0 0 1 3-1.06 4 4 0 0 1 3 1.03 3.75 3.75 0 0 1 1 2.79 4 4 0 0 1-1.1 3 4.09 4.09 0 0 1-2.96 1Zm.06-6.07a1.54 1.54 0 0 0-1.27.56 2.46 2.46 0 0 0-.46 1.6c0 1.44.58 2.16 1.75 2.16s1.66-.74 1.66-2.22-.56-2.1-1.68-2.1Zm13.14-2.67h-3v8.58h-2.37v-8.58h-3v-1.93h8.35Zm14.64 8.58h-2.37v-4.28h-4.35v4.28h-2.37V95.33h2.37v4.19h4.35v-4.19h2.37Zm9.3 0h-2.3v-1.14a2.62 2.62 0 0 1-2.29 1.32c-1.74 0-2.61-1-2.61-3.16v-4.52h2.31v4.32q0 1.59 1.26 1.59a1.25 1.25 0 0 0 1-.44 1.74 1.74 0 0 0 .38-1.18v-4.29h2.3Zm4.3-.87v.87H120V94.73h2.32v4.74a2.73 2.73 0 0 1 2.43-1.32 2.69 2.69 0 0 1 2.24 1 4.32 4.32 0 0 1 .78 2.73 4.66 4.66 0 0 1-.91 3 3 3 0 0 1-2.45 1.13 2.36 2.36 0 0 1-2.03-1.01Zm-.07-3.17v.77a1.74 1.74 0 0 0 .42 1.2 1.35 1.35 0 0 0 1.07.48 1.43 1.43 0 0 0 1.22-.61 3 3 0 0 0 .44-1.74 2.33 2.33 0 0 0-.4-1.45 1.35 1.35 0 0 0-1.14-.52 1.45 1.45 0 0 0-1.15.52 1.94 1.94 0 0 0-.46 1.35Z" style="fill:#706d6e"/>
</svg>
