<svg xmlns="http://www.w3.org/2000/svg" width="200" height="128"><defs><style>.cls-1{fill:#3276bc;}.cls-2{fill:#706d6e;}</style></defs><path class="cls-1" d="M94.68,69.26H76.81V51.39h3.42a9.93,9.93,0,0,1-.66-3.55v-.26H73V72.93H98.49V58H94.68Zm25.23-17.87h3.28V69.26h-18V58h-3.68v15H127V47.58h-8a6.55,6.55,0,0,1,.92,3.54ZM76.81,40.74V22.88H94.68V33.26a13.5,13.5,0,0,1,3.68-1.84V19.2H73.13V44.55h7.36a9.79,9.79,0,0,1,2.36-3.67l-6-.14Zm28.38-9.59V22.88h18V40.74h-7.75a16.82,16.82,0,0,1,.52,3.55v.13h11V19.07H101.51V30.76h.92A10.85,10.85,0,0,1,105.19,31.15Zm11.82,20a4.06,4.06,0,0,0-3.94-4.07h-.52a10.35,10.35,0,0,0,.39-2.89,10.64,10.64,0,0,0-20.76-3.42,7.48,7.48,0,0,0-2.36-.39,7.24,7.24,0,0,0-7.23,7.36,7.33,7.33,0,0,0,7.23,7.36h23.65a3.8,3.8,0,0,0,3.54-4"/><path class="cls-2" d="M91.54,89.34H90.32l-1-2.65h-4l-1,2.65H83.13l3.63-9.46H87.9ZM89,85.69l-1.48-4a4.1,4.1,0,0,1-.15-.64h0a5.66,5.66,0,0,1-.15.64l-1.47,4ZM97.5,82.9l-4,5.52h4v.92H91.91V89l4-5.49H92.29v-.92H97.5Zm6.85,6.44h-1.08V88.27h0a2.22,2.22,0,0,1-2.08,1.23c-1.61,0-2.41-1-2.41-2.88v-4h1.07v3.86c0,1.43.55,2.14,1.64,2.14a1.66,1.66,0,0,0,1.3-.59,2.22,2.22,0,0,0,.51-1.52V82.59h1.08Zm5.7-5.66a1.35,1.35,0,0,0-.81-.22,1.37,1.37,0,0,0-1.16.66,3,3,0,0,0-.47,1.78v3.44h-1.08V82.59h1.08V84h0a2.25,2.25,0,0,1,.71-1.11,1.58,1.58,0,0,1,1.06-.4,1.78,1.78,0,0,1,.64.09Zm6.42,2.55h-4.76a2.52,2.52,0,0,0,.6,1.74,2.1,2.1,0,0,0,1.6.62,3.25,3.25,0,0,0,2.09-.76v1a3.9,3.9,0,0,1-2.35.65,2.88,2.88,0,0,1-2.25-.92,3.81,3.81,0,0,1-.81-2.59,3.67,3.67,0,0,1,.89-2.57,2.87,2.87,0,0,1,2.22-1,2.56,2.56,0,0,1,2,.86,3.58,3.58,0,0,1,.72,2.38Zm-1.1-.91a2.22,2.22,0,0,0-.46-1.46,1.5,1.5,0,0,0-1.23-.52,1.74,1.74,0,0,0-1.3.55,2.42,2.42,0,0,0-.66,1.43ZM29,103.34H26.7l-.67-2.1H22.67l-.67,2.1H19.7l3.44-9.46h2.52ZM25.54,99.6l-1-3.18a3.68,3.68,0,0,1-.16-.85h-.05a4.08,4.08,0,0,1-.17.83l-1,3.2Zm6.57,3h0v3.89H30V96.59h2.08v1h0a2.46,2.46,0,0,1,2.17-1.18,2.42,2.42,0,0,1,2,.9A3.82,3.82,0,0,1,37,99.77a4.18,4.18,0,0,1-.83,2.71,2.73,2.73,0,0,1-2.22,1A2.07,2.07,0,0,1,32.11,102.55Zm-.06-2.76v.54a1.72,1.72,0,0,0,.37,1.14,1.21,1.21,0,0,0,1,.44,1.29,1.29,0,0,0,1.1-.55,2.68,2.68,0,0,0,.39-1.56c0-1.19-.46-1.78-1.38-1.78a1.31,1.31,0,0,0-1,.48A2,2,0,0,0,32.05,99.79Zm8.43,2.76h0v3.89H38.37V96.59h2.08v1h0a2.65,2.65,0,0,1,4.2-.28,3.88,3.88,0,0,1,.71,2.45,4.18,4.18,0,0,1-.83,2.71,2.73,2.73,0,0,1-2.22,1A2.1,2.1,0,0,1,40.48,102.55Zm-.06-2.76v.54a1.72,1.72,0,0,0,.37,1.14,1.22,1.22,0,0,0,1,.44,1.29,1.29,0,0,0,1.1-.55,2.68,2.68,0,0,0,.39-1.56c0-1.19-.46-1.78-1.38-1.78a1.29,1.29,0,0,0-1,.48A2,2,0,0,0,40.42,99.79ZM50.24,103v-2.11a4,4,0,0,0,2.6,1,3.52,3.52,0,0,0,.7-.07,1.54,1.54,0,0,0,.5-.21.78.78,0,0,0,.4-.68.78.78,0,0,0-.16-.49,1.51,1.51,0,0,0-.43-.4,3.58,3.58,0,0,0-.65-.36l-.81-.35a4.07,4.07,0,0,1-1.65-1.13,2.46,2.46,0,0,1-.54-1.6,2.43,2.43,0,0,1,1.1-2.15,3.59,3.59,0,0,1,1.18-.5,6,6,0,0,1,1.43-.16,8.51,8.51,0,0,1,1.31.09,5.37,5.37,0,0,1,1.05.27v2a2.9,2.9,0,0,0-.52-.29,5.71,5.71,0,0,0-.58-.21,5.6,5.6,0,0,0-.59-.12,3.56,3.56,0,0,0-.55,0,2.62,2.62,0,0,0-.66.07,1.54,1.54,0,0,0-.5.2.91.91,0,0,0-.32.29.69.69,0,0,0-.11.4.74.74,0,0,0,.12.42,1.37,1.37,0,0,0,.36.36,4,4,0,0,0,.56.33c.22.11.47.22.74.33a9.72,9.72,0,0,1,1,.5,3.7,3.7,0,0,1,.78.61,2.3,2.3,0,0,1,.49.77,2.75,2.75,0,0,1,.17,1,2.7,2.7,0,0,1-.3,1.33,2.42,2.42,0,0,1-.81.87,3.59,3.59,0,0,1-1.2.48,7.33,7.33,0,0,1-1.44.14,7.84,7.84,0,0,1-1.48-.13A4.65,4.65,0,0,1,50.24,103Zm13.86-2.42H59.69Q59.8,102,61.55,102a3.6,3.6,0,0,0,2-.53V103a5,5,0,0,1-2.43.5,3.13,3.13,0,0,1-3.44-3.43,3.6,3.6,0,0,1,1-2.66,3.24,3.24,0,0,1,2.4-1,3,3,0,0,1,2.28.88,3.37,3.37,0,0,1,.81,2.38Zm-1.93-1.28c0-1-.39-1.45-1.18-1.45a1.12,1.12,0,0,0-.86.41,1.83,1.83,0,0,0-.45,1Zm7.57-.81a1.76,1.76,0,0,0-.88-.21,1.28,1.28,0,0,0-1.06.5,2.19,2.19,0,0,0-.38,1.35v3.23H65.34V96.59h2.08v1.25h0a1.8,1.8,0,0,1,1.78-1.37,1.36,1.36,0,0,1,.51.08Zm7.94-1.88-2.51,6.75H72.79L70.4,96.59h2.23l1.17,4.16A6.05,6.05,0,0,1,74,102h0a6.67,6.67,0,0,1,.24-1.16l1.2-4.2Zm1.94-1.07a1.2,1.2,0,0,1-.86-.31,1,1,0,0,1-.34-.77,1,1,0,0,1,.34-.77,1.44,1.44,0,0,1,1.73,0,1,1,0,0,1,.33.77,1,1,0,0,1-.33.78A1.24,1.24,0,0,1,79.62,95.52Zm1,7.82H78.57V96.59h2.08Zm6.87-.25a4,4,0,0,1-2,.41,3.45,3.45,0,0,1-2.52-.94,3.26,3.26,0,0,1-1-2.43,3.6,3.6,0,0,1,1-2.71,3.79,3.79,0,0,1,2.76-1,3.56,3.56,0,0,1,1.73.32v1.77A2.36,2.36,0,0,0,86.06,98a1.91,1.91,0,0,0-1.42.52,2,2,0,0,0-.52,1.45,1.9,1.9,0,0,0,.5,1.41,1.83,1.83,0,0,0,1.38.51,2.74,2.74,0,0,0,1.52-.49ZM95,100.56H90.54q.1,1.47,1.86,1.47a3.6,3.6,0,0,0,1.95-.53V103a5,5,0,0,1-2.43.5,3.13,3.13,0,0,1-3.44-3.43,3.6,3.6,0,0,1,1-2.66,3.24,3.24,0,0,1,2.4-1,3,3,0,0,1,2.28.88A3.37,3.37,0,0,1,95,99.68ZM93,99.28c0-1-.4-1.45-1.18-1.45a1.12,1.12,0,0,0-.86.41,1.83,1.83,0,0,0-.45,1Zm12.76,4.06h-5.66V93.88h5.45v1.74h-3.33v2.1h3.1v1.73h-3.1v2.16h3.54Zm7.84,0h-2.08V99.59c0-1-.37-1.57-1.12-1.57a1.12,1.12,0,0,0-.89.41,1.61,1.61,0,0,0-.35,1.06v3.85H107.1V96.59h2.08v1.07h0a2.37,2.37,0,0,1,2.16-1.24q2.25,0,2.25,2.79Zm8.07-6.75-2.51,6.75h-2.37l-2.4-6.75h2.23l1.17,4.16a6.16,6.16,0,0,1,.24,1.2h0a6,6,0,0,1,.25-1.16l1.2-4.2Zm2-1.07a1.22,1.22,0,0,1-.87-.31,1,1,0,0,1-.33-.77,1,1,0,0,1,.33-.77,1.3,1.3,0,0,1,.87-.29,1.28,1.28,0,0,1,.86.29,1,1,0,0,1,.33.77,1,1,0,0,1-.33.78A1.23,1.23,0,0,1,123.64,95.52Zm1,7.82h-2.08V96.59h2.08Zm6.16-4.87a1.76,1.76,0,0,0-.88-.21,1.28,1.28,0,0,0-1.06.5,2.19,2.19,0,0,0-.38,1.35v3.23h-2.08V96.59h2.08v1.25h0a1.8,1.8,0,0,1,1.78-1.37,1.36,1.36,0,0,1,.51.08Zm4.13,5a3.62,3.62,0,0,1-2.65-.94,3.9,3.9,0,0,1,0-5.19,3.78,3.78,0,0,1,2.71-1,3.58,3.58,0,0,1,2.63,1,3.35,3.35,0,0,1,1,2.5,3.57,3.57,0,0,1-1,2.66A3.65,3.65,0,0,1,135,103.5ZM135,98a1.38,1.38,0,0,0-1.15.51,2.21,2.21,0,0,0-.41,1.43c0,1.3.52,2,1.57,2s1.5-.67,1.5-2S136,98,135,98Zm11.5,5.32h-2.08V99.59c0-1-.37-1.57-1.12-1.57a1.12,1.12,0,0,0-.89.41,1.61,1.61,0,0,0-.35,1.06v3.85H140V96.59h2.08v1.07h0a2.38,2.38,0,0,1,2.17-1.24c1.49,0,2.24.93,2.24,2.79Zm12.36,0H156.8V99.49q0-1.47-1.08-1.47a1,1,0,0,0-.84.44,1.77,1.77,0,0,0-.32,1.1v3.78h-2.09V99.45c0-1-.35-1.43-1.06-1.43a1,1,0,0,0-.85.42,1.87,1.87,0,0,0-.32,1.15v3.75h-2.08V96.59h2.08v1h0a2.45,2.45,0,0,1,.9-.88,2.58,2.58,0,0,1,1.28-.34,2,2,0,0,1,2,1.26,2.49,2.49,0,0,1,2.26-1.26c1.47,0,2.2.91,2.2,2.72Zm7.72-2.78h-4.41q.1,1.47,1.86,1.47a3.6,3.6,0,0,0,2-.53V103a5,5,0,0,1-2.43.5,3.13,3.13,0,0,1-3.44-3.43,3.6,3.6,0,0,1,1-2.66,3.24,3.24,0,0,1,2.4-1,3,3,0,0,1,2.28.88,3.37,3.37,0,0,1,.81,2.38Zm-1.93-1.28c0-1-.4-1.45-1.18-1.45a1.12,1.12,0,0,0-.86.41,1.83,1.83,0,0,0-.45,1Zm9.69,4.06h-2.08V99.59c0-1-.37-1.57-1.12-1.57a1.12,1.12,0,0,0-.89.41,1.61,1.61,0,0,0-.35,1.06v3.85h-2.08V96.59h2.08v1.07h0a2.37,2.37,0,0,1,2.16-1.24q2.25,0,2.25,2.79Zm5.72-.08a3.1,3.1,0,0,1-1.39.24c-1.46,0-2.2-.76-2.2-2.29V98.12h-1.09V96.59h1.09V95.13l2.08-.59v2h1.51v1.53h-1.51v2.73c0,.71.28,1.06.84,1.06a1.49,1.49,0,0,0,.67-.19Z"/></svg>