<svg xmlns="http://www.w3.org/2000/svg" width="200" height="128"><defs><style>.cls-1{fill:#ffd000;}.cls-2{fill:#7eba02;}.cls-3{fill:#e5e5e5;}.cls-4{fill:#5b8602;}.cls-5{fill:#706d6e;}</style></defs><rect class="cls-1" x="119.01" y="36.89" width="4.84" height="23.85"/><rect class="cls-1" x="119.01" y="23.39" width="4.84" height="9.11"/><rect class="cls-2" x="76.15" y="19" width="42.86" height="54"/><rect x="93.59" y="24.51" width="20.14" height="12.6"/><rect x="95.5" y="53.43" width="3.15" height="14.06"/><rect x="89.87" y="53.43" width="3.15" height="14.06"/><circle class="cls-3" cx="94.94" cy="44.99" r="2.81"/><rect class="cls-4" x="107.31" y="37.11" width="1.8" height="6.75"/><rect class="cls-4" x="102.27" y="43.85" width="6.86" height="1.8"/><rect class="cls-4" x="104.12" y="60.25" width="4.5" height="1.8"/><rect class="cls-4" x="85.49" y="32.05" width="1.8" height="27"/><rect class="cls-4" x="87.26" y="32.08" width="6.3" height="1.8"/><rect class="cls-4" x="87.28" y="57.32" width="2.59" height="1.69"/><rect class="cls-4" x="82.59" y="62.76" width="7.31" height="2.14"/><rect class="cls-4" x="80.87" y="27.44" width="1.69" height="37.46"/><rect class="cls-4" x="82.61" y="27.46" width="10.91" height="2.14"/><rect class="cls-3" x="108.66" y="53.76" width="4.05" height="13.28"/><rect class="cls-4" x="102.36" y="45.66" width="1.8" height="16.43"/><path class="cls-5" d="M90.6,89.34H89.24l-1.11-3H83.67l-1,3H81.26l4-10.51h1.27Zm-2.87-4-1.65-4.48a3.34,3.34,0,0,1-.16-.7h0a4.22,4.22,0,0,1-.17.7l-1.64,4.48Zm9.49-3.11-4.44,6.13h4.39v1H91V89l4.44-6.1h-4v-1h5.79Zm7.61,7.16h-1.2V88.15h0a2.45,2.45,0,0,1-2.31,1.36c-1.79,0-2.68-1.06-2.68-3.19V81.84H99.8v4.29c0,1.58.61,2.37,1.82,2.37a1.82,1.82,0,0,0,1.45-.65,2.5,2.5,0,0,0,.56-1.69V81.84h1.2Zm6.34-6.29a1.47,1.47,0,0,0-.91-.24,1.51,1.51,0,0,0-1.28.73,3.29,3.29,0,0,0-.52,2v3.83h-1.2v-7.5h1.2v1.54h0a2.61,2.61,0,0,1,.78-1.23,1.77,1.77,0,0,1,1.18-.44,2,2,0,0,1,.72.1Zm7.13,2.84H113a2.8,2.8,0,0,0,.67,1.93,2.3,2.3,0,0,0,1.77.68,3.69,3.69,0,0,0,2.33-.83V88.8a4.41,4.41,0,0,1-2.61.71,3.18,3.18,0,0,1-2.5-1,4.2,4.2,0,0,1-.91-2.87,4.09,4.09,0,0,1,1-2.86,3.19,3.19,0,0,1,2.46-1.1,2.84,2.84,0,0,1,2.28,1,4,4,0,0,1,.8,2.65Zm-1.23-1a2.43,2.43,0,0,0-.5-1.62,1.73,1.73,0,0,0-1.37-.58,1.94,1.94,0,0,0-1.44.61,2.81,2.81,0,0,0-.74,1.59Zm-70.7,21H44l-4.32-6.6c-.26-.39-.43-.68-.53-.87h0c0,.37.06.93.06,1.7v5.77H36.92V95.33h2.55l4.17,6.4c.19.29.37.57.53.86h0a11.14,11.14,0,0,1-.06-1.45V95.33h2.23Zm8.92-3.09h-4.9c.08,1.09.77,1.63,2.06,1.63a4,4,0,0,0,2.18-.59v1.67a5.65,5.65,0,0,1-2.71.56,3.78,3.78,0,0,1-2.82-1,3.82,3.82,0,0,1-1-2.8,4,4,0,0,1,1.09-3,3.6,3.6,0,0,1,2.66-1.1,3.29,3.29,0,0,1,2.54,1,3.74,3.74,0,0,1,.9,2.64Zm-2.15-1.42c0-1.08-.43-1.62-1.3-1.62a1.26,1.26,0,0,0-1,.47,2.08,2.08,0,0,0-.49,1.15Zm8.06,4.42a3.47,3.47,0,0,1-1.55.27c-1.63,0-2.44-.85-2.44-2.54V100H56v-1.7h1.22V96.72l2.3-.66v2.28H61.2V100H59.51v3q0,1.17.93,1.17a1.59,1.59,0,0,0,.76-.21Zm12.16-7.41-2.16,7.5H68.77l-1.11-4.4a4.66,4.66,0,0,1-.12-1h0a6.7,6.7,0,0,1-.15.93l-1.19,4.43h-2.4l-2.12-7.5H64l1,4.89a5.57,5.57,0,0,1,.11.84h0a4.6,4.6,0,0,1,.13-.87l1.29-4.86h2.2L70,103.23a8.2,8.2,0,0,1,.1.85h.05c0-.28.07-.57.12-.85l1-4.89ZM78,106A4,4,0,0,1,75,105a4.35,4.35,0,0,1,0-5.76,4.19,4.19,0,0,1,3-1.06A3.93,3.93,0,0,1,81,99.21,3.72,3.72,0,0,1,82.06,102a4,4,0,0,1-1.1,3A4.09,4.09,0,0,1,78,106ZM78,99.93a1.54,1.54,0,0,0-1.27.56,2.46,2.46,0,0,0-.46,1.6c0,1.44.58,2.16,1.75,2.16s1.66-.74,1.66-2.22S79.14,99.93,78,99.93Zm10.43.5a1.91,1.91,0,0,0-1-.23,1.39,1.39,0,0,0-1.18.55,2.38,2.38,0,0,0-.43,1.51v3.58H83.56v-7.5h2.31v1.39h0a2,2,0,0,1,2-1.52,1.73,1.73,0,0,1,.57.08ZM97,105.84H94.27l-2.4-3.72h0v3.72H89.53V94.73h2.31v7.07h0l2.23-3.46h2.75l-2.69,3.52Zm8.48-10.51v1.84h-.88V104h.88v1.83H101.4V104h.88V97.17h-.88V95.33Zm8.53,10.51h-2.31v-4.17c0-1.16-.41-1.74-1.24-1.74a1.23,1.23,0,0,0-1,.46,1.76,1.76,0,0,0-.39,1.17v4.28H106.8v-7.5h2.32v1.18h0a2.65,2.65,0,0,1,2.41-1.37c1.66,0,2.49,1,2.49,3.1Zm6.36-.09a3.4,3.4,0,0,1-1.54.27c-1.63,0-2.45-.85-2.45-2.54V100h-1.21v-1.7h1.21V96.72l2.31-.66v2.28h1.68V100h-1.68v3q0,1.17.93,1.17a1.58,1.58,0,0,0,.75-.21Zm8-3h-4.9c.08,1.09.77,1.63,2.06,1.63a4,4,0,0,0,2.18-.59v1.67A5.65,5.65,0,0,1,125,106a3.78,3.78,0,0,1-2.82-1,3.82,3.82,0,0,1-1-2.8,4,4,0,0,1,1.09-3,3.6,3.6,0,0,1,2.66-1.1,3.28,3.28,0,0,1,2.54,1,3.74,3.74,0,0,1,.9,2.64Zm-2.15-1.42c0-1.08-.43-1.62-1.3-1.62a1.26,1.26,0,0,0-1,.47,2.08,2.08,0,0,0-.49,1.15Zm8.42-.9a2,2,0,0,0-1-.23,1.41,1.41,0,0,0-1.18.55,2.44,2.44,0,0,0-.42,1.51v3.58h-2.32v-7.5h2.32v1.39h0a2,2,0,0,1,2-1.52,1.75,1.75,0,0,1,.58.08ZM141,96.51a2.29,2.29,0,0,0-.86-.18c-.74,0-1.11.4-1.11,1.21v.8h1.71V100H139v5.8h-2.31V100h-1.26v-1.7h1.26v-.93a2.71,2.71,0,0,1,.84-2.07,3.18,3.18,0,0,1,2.27-.78,3.87,3.87,0,0,1,1.17.15Zm7.1,9.33h-2.19v-1.08h0a2.46,2.46,0,0,1-2.24,1.26,2.33,2.33,0,0,1-1.71-.62,2.2,2.2,0,0,1-.63-1.65q0-2.18,2.58-2.52l2-.27c0-.82-.44-1.23-1.33-1.23a4.54,4.54,0,0,0-2.55.8V98.79a5.19,5.19,0,0,1,1.32-.44,6.85,6.85,0,0,1,1.53-.2q3.21,0,3.21,3.21Zm-2.18-3v-.5l-1.36.17c-.75.1-1.13.44-1.13,1a.86.86,0,0,0,.27.65,1.08,1.08,0,0,0,.75.25,1.37,1.37,0,0,0,1.06-.45A1.64,1.64,0,0,0,145.93,102.79Zm9.69,2.78a4.61,4.61,0,0,1-2.26.45,3.83,3.83,0,0,1-2.8-1,3.6,3.6,0,0,1-1.07-2.7,4,4,0,0,1,1.15-3,4.2,4.2,0,0,1,3.06-1.11,3.83,3.83,0,0,1,1.92.36v2a2.63,2.63,0,0,0-1.62-.54,2.14,2.14,0,0,0-1.58.58,2.2,2.2,0,0,0-.58,1.61,2.14,2.14,0,0,0,.56,1.56,2,2,0,0,0,1.53.57,3.07,3.07,0,0,0,1.69-.54Zm8.26-2.82H159c.08,1.09.77,1.63,2.06,1.63a4,4,0,0,0,2.18-.59v1.67a5.65,5.65,0,0,1-2.71.56,3.49,3.49,0,0,1-3.82-3.81,4,4,0,0,1,1.08-3,3.64,3.64,0,0,1,2.67-1.1,3.29,3.29,0,0,1,2.54,1,3.74,3.74,0,0,1,.9,2.64Zm-2.15-1.42c0-1.08-.44-1.62-1.3-1.62a1.25,1.25,0,0,0-1,.47,2.08,2.08,0,0,0-.49,1.15Z"/></svg>