<svg xmlns="http://www.w3.org/2000/svg" width="200" height="128"><defs><style>.cls-1{fill:#2d71c0;}.cls-2{fill:#fff;}.cls-3{fill:#8cb7df;}.cls-4{fill:#6fb3d4;}.cls-5{fill:#706d6e;}</style></defs><path class="cls-1" d="M87.8,47.71v5.75a9.09,9.09,0,0,0-4.44-1.05h0a9.45,9.45,0,0,0-6.67,2.71,9.25,9.25,0,0,0-2.18,3.34,11.18,11.18,0,0,1-1.2-5.07,10.14,10.14,0,0,1,6.42-9.52c0-.43-.11-1-.11-1.39a13.77,13.77,0,0,1,13.91-13.7,14,14,0,0,1,3,.28,7.71,7.71,0,0,0-.36,2.32,8.25,8.25,0,0,0,8.48,8.21h6.41v8.11h-5.52a4.15,4.15,0,0,0-8,0Zm33-3.73v-.86a10,10,0,0,0-.66-3.55c-.2,0-.4,0-.61,0H113v9.95h-7.28a4.15,4.15,0,0,1-8.17,0H89.64V54.7a7.77,7.77,0,0,1,9.84,6.43,7.62,7.62,0,0,1,2.69,3.71h12.66c6.74,0,12-5,12-11.44A10.37,10.37,0,0,0,120.82,44Z"/><path class="cls-2" d="M87.8,65V56.39A6.94,6.94,0,0,1,89,57.66a4.82,4.82,0,0,1,.63-.35V65l2.2-2.2v2.65L88.72,68.6l-3.13-3.12V62.83Z"/><path class="cls-3" d="M89.64,49.55V54.7h0a9.29,9.29,0,0,0-1.82-1.24V47.71h9.79a4.15,4.15,0,0,1,8,0h5.52V39.6H113v9.95h-7.28a4.15,4.15,0,0,1-8.17,0Z"/><path class="cls-4" d="M125.58,31.38a5.82,5.82,0,0,1-6,5.76H113V30.35l2.2,2.2V29.9L112,26.78l-3.12,3.12v2.65l2.2-2.2v6.79H104.7a5.83,5.83,0,0,1-6-5.76,5.12,5.12,0,0,1,3.23-4.79c0-.21-.05-.48-.05-.7a6.93,6.93,0,0,1,7-6.89,6.82,6.82,0,0,1,5.66,2.8,5,5,0,0,1,2.79-.81,5.28,5.28,0,0,1,5.28,5.23v.43A5.2,5.2,0,0,1,125.58,31.38ZM100.1,67.24a5.83,5.83,0,0,1-6,5.76H79.22a5.83,5.83,0,0,1-6-5.76,5.1,5.1,0,0,1,3.23-4.79c0-.22-.06-.48-.06-.7a6.93,6.93,0,0,1,7-6.89,6.77,6.77,0,0,1,4.44,1.53V65l-2.21-2.2v2.65l3.13,3.12,3.12-3.12V62.83L89.64,65V57.31a5.29,5.29,0,0,1,7.45,4.76v.43A5.23,5.23,0,0,1,100.1,67.24Z"/><path class="cls-2" d="M113,30.35v6.79h-1.84V30.35l-2.2,2.2V29.9L112,26.78l3.12,3.12v2.65Z"/><path class="cls-5" d="M90.6,89.34H89.24l-1.11-3H83.67l-1,3H81.26l4-10.51h1.27Zm-2.87-4-1.65-4.48a3.34,3.34,0,0,1-.16-.7h0a4.22,4.22,0,0,1-.17.7l-1.64,4.48Zm9.49-3.11-4.44,6.13h4.39v1H91V89l4.44-6.1h-4v-1h5.79Zm7.61,7.16h-1.2V88.15h0a2.45,2.45,0,0,1-2.31,1.36c-1.79,0-2.68-1.06-2.68-3.19V81.84H99.8v4.29c0,1.58.61,2.37,1.82,2.37a1.82,1.82,0,0,0,1.45-.65,2.5,2.5,0,0,0,.56-1.69V81.84h1.2Zm6.34-6.29a1.47,1.47,0,0,0-.91-.24,1.51,1.51,0,0,0-1.28.73,3.29,3.29,0,0,0-.52,2v3.83h-1.2v-7.5h1.2v1.54h0a2.61,2.61,0,0,1,.78-1.23,1.77,1.77,0,0,1,1.18-.44,2,2,0,0,1,.72.1Zm7.13,2.84H113a2.8,2.8,0,0,0,.67,1.93,2.3,2.3,0,0,0,1.77.68,3.69,3.69,0,0,0,2.33-.83V88.8a4.41,4.41,0,0,1-2.61.71,3.18,3.18,0,0,1-2.5-1,4.2,4.2,0,0,1-.91-2.87,4.09,4.09,0,0,1,1-2.86,3.19,3.19,0,0,1,2.46-1.1,2.84,2.84,0,0,1,2.28,1,4,4,0,0,1,.8,2.65Zm-1.23-1a2.43,2.43,0,0,0-.5-1.62,1.73,1.73,0,0,0-1.37-.58,1.94,1.94,0,0,0-1.44.61,2.81,2.81,0,0,0-.74,1.59Zm-92.78,21V95.33H28q5.59,0,5.59,5.13a5.18,5.18,0,0,1-1.52,3.91A5.63,5.63,0,0,1,28,105.84Zm2.36-8.58v6.66h1.17a3.2,3.2,0,0,0,2.42-.92,3.54,3.54,0,0,0,.87-2.52,3.18,3.18,0,0,0-.87-2.36,3.3,3.3,0,0,0-2.43-.86Zm15.21,5.49H37c.08,1.09.77,1.63,2.06,1.63a4,4,0,0,0,2.18-.59v1.67a5.64,5.64,0,0,1-2.7.56,3.5,3.5,0,0,1-3.83-3.81,4,4,0,0,1,1.09-3,3.6,3.6,0,0,1,2.66-1.1,3.28,3.28,0,0,1,2.54,1,3.74,3.74,0,0,1,.9,2.64Zm-2.15-1.42c0-1.08-.43-1.62-1.3-1.62a1.28,1.28,0,0,0-1,.47,2.08,2.08,0,0,0-.49,1.15ZM45.58,105h0v4.32H43.23v-11h2.32v1.13h0a2.94,2.94,0,0,1,4.66-.32,4.28,4.28,0,0,1,.79,2.73,4.6,4.6,0,0,1-.92,3A3,3,0,0,1,47.64,106,2.33,2.33,0,0,1,45.58,105Zm-.07-3.08v.6a1.94,1.94,0,0,0,.41,1.27,1.36,1.36,0,0,0,1.08.49,1.44,1.44,0,0,0,1.23-.61,3,3,0,0,0,.43-1.74c0-1.31-.51-2-1.54-2a1.45,1.45,0,0,0-1.16.54A2.12,2.12,0,0,0,45.51,101.89Zm9.34,4H52.54V94.73h2.31Zm5.52.18a4,4,0,0,1-2.94-1,4.32,4.32,0,0,1,0-5.76,4.16,4.16,0,0,1,3-1.06,4,4,0,0,1,2.93,1.06A3.75,3.75,0,0,1,64.47,102a4,4,0,0,1-1.1,3A4.09,4.09,0,0,1,60.37,106Zm.06-6.09a1.54,1.54,0,0,0-1.27.56,2.46,2.46,0,0,0-.46,1.6c0,1.44.58,2.16,1.75,2.16s1.66-.74,1.66-2.22S61.55,99.93,60.43,99.93Zm12.68-1.59-3,8.1q-1.09,2.93-3.31,2.92a4.14,4.14,0,0,1-1.38-.19v-1.85a2,2,0,0,0,1,.28,1.27,1.27,0,0,0,1.25-.85l.39-.93-3-7.48h2.56l1.4,4.56a5.88,5.88,0,0,1,.2,1h0a9.16,9.16,0,0,1,.24-1l1.42-4.58ZM86,105.84H83.64v-4.28c0-1.09-.4-1.63-1.2-1.63a1.1,1.1,0,0,0-.93.49,2,2,0,0,0-.36,1.22v4.2H78.84v-4.32c0-1.06-.4-1.59-1.18-1.59a1.11,1.11,0,0,0-1,.47,2,2,0,0,0-.36,1.27v4.17H74v-7.5h2.31v1.17h0a2.86,2.86,0,0,1,2.43-1.36A2.16,2.16,0,0,1,81,99.55a2.78,2.78,0,0,1,2.52-1.4c1.63,0,2.45,1,2.45,3Zm8.57-3.09H89.63c.07,1.09.76,1.63,2.05,1.63a4,4,0,0,0,2.18-.59v1.67a5.58,5.58,0,0,1-2.7.56,3.5,3.5,0,0,1-3.83-3.81,4,4,0,0,1,1.09-3,3.6,3.6,0,0,1,2.66-1.1,3.28,3.28,0,0,1,2.54,1,3.74,3.74,0,0,1,.9,2.64Zm-2.15-1.42c0-1.08-.43-1.62-1.3-1.62a1.24,1.24,0,0,0-1,.47,2,2,0,0,0-.5,1.15Zm10.77,4.51h-2.31v-4.17c0-1.16-.41-1.74-1.24-1.74a1.23,1.23,0,0,0-1,.46,1.76,1.76,0,0,0-.39,1.17v4.28H95.9v-7.5h2.31v1.18h0a2.65,2.65,0,0,1,2.41-1.37c1.66,0,2.49,1,2.49,3.1Zm6.36-.09A3.4,3.4,0,0,1,108,106c-1.63,0-2.45-.85-2.45-2.54V100H104.3v-1.7h1.21V96.72l2.31-.66v2.28h1.68V100h-1.68v3q0,1.17.93,1.17a1.55,1.55,0,0,0,.75-.21Zm17.64.09H124.8V99.55c0-.67,0-1.43.09-2.25h-.06a10.56,10.56,0,0,1-.33,1.4L122,105.84h-1.93l-2.51-7.07q-.09-.28-.33-1.47h-.06q.09,1.56.09,2.73v5.81h-2.13V95.33h3.47l2.14,6.23a9.16,9.16,0,0,1,.38,1.5h0a13.72,13.72,0,0,1,.42-1.51l2.14-6.22h3.38Zm8.4,0h-2.19v-1.08h0a2.44,2.44,0,0,1-2.23,1.26,2.35,2.35,0,0,1-1.72-.62,2.2,2.2,0,0,1-.63-1.65c0-1.45.87-2.29,2.59-2.52l2-.27c0-.82-.45-1.23-1.34-1.23a4.59,4.59,0,0,0-2.55.8V98.79a5.42,5.42,0,0,1,1.33-.44,6.76,6.76,0,0,1,1.52-.2q3.21,0,3.21,3.21Zm-2.17-3v-.5l-1.37.17c-.75.1-1.12.44-1.12,1a.86.86,0,0,0,.27.65,1,1,0,0,0,.74.25,1.39,1.39,0,0,0,1.07-.45A1.64,1.64,0,0,0,133.37,102.79Zm11.25,3h-2.31v-4.17c0-1.16-.42-1.74-1.25-1.74a1.2,1.2,0,0,0-1,.46,1.76,1.76,0,0,0-.39,1.17v4.28h-2.32v-7.5h2.32v1.18h0a2.65,2.65,0,0,1,2.41-1.37c1.66,0,2.49,1,2.49,3.1Zm8.07,0H150.5v-1.08h0a2.45,2.45,0,0,1-2.24,1.26,2.33,2.33,0,0,1-1.71-.62,2.2,2.2,0,0,1-.63-1.65c0-1.45.86-2.29,2.59-2.52l2-.27c0-.82-.44-1.23-1.33-1.23a4.59,4.59,0,0,0-2.55.8V98.79a5.19,5.19,0,0,1,1.32-.44,6.85,6.85,0,0,1,1.53-.2q3.21,0,3.21,3.21Zm-2.18-3v-.5l-1.36.17c-.75.1-1.13.44-1.13,1a.83.83,0,0,0,.28.65,1,1,0,0,0,.74.25,1.37,1.37,0,0,0,1.06-.45A1.6,1.6,0,0,0,150.51,102.79ZM161.87,105a4.22,4.22,0,0,1-1.21,3.23,4.86,4.86,0,0,1-3.5,1.15,5.51,5.51,0,0,1-2.4-.43v-2a4.59,4.59,0,0,0,2.34.67,2.51,2.51,0,0,0,1.81-.61,2.25,2.25,0,0,0,.65-1.69v-.59h0a2.59,2.59,0,0,1-2.34,1.26,2.83,2.83,0,0,1-2.28-1,4.1,4.1,0,0,1-.84-2.71,4.51,4.51,0,0,1,.94-3,3.06,3.06,0,0,1,2.47-1.13,2.3,2.3,0,0,1,2.05,1.06h0v-.87h2.31Zm-2.28-2.75v-.59a1.82,1.82,0,0,0-.42-1.21,1.37,1.37,0,0,0-1.1-.5,1.43,1.43,0,0,0-1.21.6,2.83,2.83,0,0,0-.44,1.69,2.37,2.37,0,0,0,.42,1.48,1.35,1.35,0,0,0,1.14.55,1.43,1.43,0,0,0,1.16-.55A2.26,2.26,0,0,0,159.59,102.23Zm10.95.52h-4.89c.08,1.09.77,1.63,2.06,1.63a3.92,3.92,0,0,0,2.17-.59v1.67a5.58,5.58,0,0,1-2.7.56,3.49,3.49,0,0,1-3.82-3.81,4,4,0,0,1,1.08-3,3.62,3.62,0,0,1,2.67-1.1,3.29,3.29,0,0,1,2.54,1,3.78,3.78,0,0,1,.89,2.64Zm-2.14-1.42c0-1.08-.44-1.62-1.31-1.62a1.24,1.24,0,0,0-1,.47,2.08,2.08,0,0,0-.49,1.15Zm8.41-.9a1.88,1.88,0,0,0-1-.23,1.4,1.4,0,0,0-1.18.55,2.44,2.44,0,0,0-.42,1.51v3.58h-2.32v-7.5h2.32v1.39h0a2,2,0,0,1,2-1.52,1.65,1.65,0,0,1,.57.08Z"/></svg>