<svg xmlns="http://www.w3.org/2000/svg" width="200" height="128">
	<path d="M131 46.9a1.73 1.73 0 0 0 0-2.26l-3-3-13.58-13.17a1.44 1.44 0 0 0-2.13 0 1.49 1.49 0 0 0 0 2.26l14.16 13.91a1.59 1.59 0 0 1 0 2.26L112 61.32a1.59 1.59 0 0 0 0 2.26 1.56 1.56 0 0 0 2.13 0l13.41-13.29.13-.13Zm-62 0a1.73 1.73 0 0 1 0-2.26l3-3 13.58-13.17a1.44 1.44 0 0 1 2.13 0 1.49 1.49 0 0 1 0 2.26L73.8 44.64a1.59 1.59 0 0 0 0 2.26L88 61.32a1.59 1.59 0 0 1 0 2.26 1.56 1.56 0 0 1-2.13 0l-13.7-13.17-.17-.12Z" style="fill:#3999c6"/>
	<path d="M91.47 45.77a4.17 4.17 0 0 1-4.13 4.14A4.6 4.6 0 0 1 83 45.77a4.23 4.23 0 0 1 4.39-4.14 4.09 4.09 0 0 1 4.08 4.14Zm12.67 0a4.18 4.18 0 0 1-4.14 4.14 4.6 4.6 0 0 1-4.39-4.14 4.41 4.41 0 0 1 4.39-4.14 4.18 4.18 0 0 1 4.14 4.14Zm8.65-4.14a4.14 4.14 0 1 1-4.14 4.14 4.15 4.15 0 0 1 4.14-4.14Z" style="fill:#7fba00"/>
	<path d="M90.6 89.34h-1.36l-1.11-3h-4.46l-1 3h-1.41l4-10.51h1.27Zm-2.87-4-1.65-4.48a3.34 3.34 0 0 1-.16-.7 4.22 4.22 0 0 1-.17.7l-1.64 4.48Zm9.49-3.11-4.44 6.13h4.39v1H91V89l4.44-6.1h-4v-1h5.79Zm7.61 7.16h-1.2v-1.24a2.45 2.45 0 0 1-2.31 1.36c-1.79 0-2.68-1.06-2.68-3.19v-4.48h1.16v4.29c0 1.58.61 2.37 1.82 2.37a1.82 1.82 0 0 0 1.45-.65 2.5 2.5 0 0 0 .56-1.69v-4.32h1.2Zm6.34-6.29a1.47 1.47 0 0 0-.91-.24 1.51 1.51 0 0 0-1.28.73 3.29 3.29 0 0 0-.52 2v3.83h-1.2v-7.5h1.2v1.54a2.61 2.61 0 0 1 .78-1.23 1.77 1.77 0 0 1 1.18-.44 2 2 0 0 1 .72.1Zm7.13 2.84H113a2.8 2.8 0 0 0 .67 1.93 2.3 2.3 0 0 0 1.77.68 3.69 3.69 0 0 0 2.33-.83v1.08a4.41 4.41 0 0 1-2.61.71 3.18 3.18 0 0 1-2.5-1 4.2 4.2 0 0 1-.91-2.87 4.09 4.09 0 0 1 1-2.86 3.19 3.19 0 0 1 2.46-1.1 2.84 2.84 0 0 1 2.28 1 4 4 0 0 1 .8 2.65Zm-1.23-1a2.43 2.43 0 0 0-.5-1.62 1.73 1.73 0 0 0-1.37-.58 1.94 1.94 0 0 0-1.44.61 2.81 2.81 0 0 0-.74 1.59ZM53.31 95.33l-3.62 10.51H47l-3.56-10.51H46l2.19 7.31a5.54 5.54 0 0 1 .21 1 6.28 6.28 0 0 1 .23-1.07l2.18-7.29Zm2.21 1.82a1.32 1.32 0 0 1-1-.35 1.11 1.11 0 0 1-.38-.85 1.08 1.08 0 0 1 .38-.85 1.56 1.56 0 0 1 1.92 0 1.07 1.07 0 0 1 .37.85 1.09 1.09 0 0 1-.37.86 1.36 1.36 0 0 1-.92.34Zm1.14 8.69h-2.32v-7.5h2.32Zm6.84-5.41a1.91 1.91 0 0 0-1-.23 1.39 1.39 0 0 0-1.18.55 2.38 2.38 0 0 0-.43 1.51v3.58h-2.28v-7.5h2.31v1.39a2 2 0 0 1 2-1.52 1.73 1.73 0 0 1 .57.08Zm6 5.32a3.4 3.4 0 0 1-1.5.25c-1.63 0-2.45-.85-2.45-2.54V100h-1.22v-1.7h1.22v-1.58l2.31-.66v2.28h1.68V100h-1.68v3q0 1.17.93 1.17a1.58 1.58 0 0 0 .75-.21Zm8.43.09h-2.3v-1.14a2.62 2.62 0 0 1-2.29 1.3c-1.74 0-2.61-1-2.61-3.16v-4.5H73v4.32q0 1.59 1.26 1.59a1.25 1.25 0 0 0 1-.44 1.74 1.74 0 0 0 .38-1.18v-4.29H78Zm8.19 0H84v-1.08a2.44 2.44 0 0 1-2.29 1.24 2.35 2.35 0 0 1-1.71-.6 2.2 2.2 0 0 1-.63-1.65c0-1.45.87-2.29 2.59-2.52l2-.27c0-.82-.45-1.23-1.34-1.23a4.59 4.59 0 0 0-2.55.8v-1.74a5.42 5.42 0 0 1 1.33-.44 6.69 6.69 0 0 1 1.52-.2q3.21 0 3.21 3.21Zm-2.17-3v-.5l-1.37.17c-.75.1-1.12.44-1.12 1a.86.86 0 0 0 .27.65 1 1 0 0 0 .74.25 1.39 1.39 0 0 0 1.07-.45 1.64 1.64 0 0 0 .46-1.17Zm6.32 3H88V94.73h2.32Zm15.76 0h-2.39l-4.33-6.6c-.25-.39-.43-.68-.53-.87v7.47h-2.16V95.33h2.55l4.17 6.4c.19.29.36.57.52.86a11.14 11.14 0 0 1-.06-1.45v-5.81h2.24Zm8.91-3.09h-4.89c.08 1.09.76 1.63 2.06 1.63a3.92 3.92 0 0 0 2.17-.59v1.67a5.58 5.58 0 0 1-2.7.56 3.49 3.49 0 0 1-3.82-3.81 4 4 0 0 1 1.08-3 3.61 3.61 0 0 1 2.67-1.1 3.25 3.25 0 0 1 2.53 1 3.74 3.74 0 0 1 .9 2.64Zm-2.14-1.42c0-1.08-.44-1.62-1.31-1.62a1.24 1.24 0 0 0-1 .47 2.09 2.09 0 0 0-.5 1.15Zm8 4.42a3.4 3.4 0 0 1-1.54.27c-1.63 0-2.45-.85-2.45-2.54V100h-1.21v-1.7h1.21v-1.58l2.31-.66v2.28h1.68V100h-1.68v3q0 1.17.93 1.17a1.58 1.58 0 0 0 .75-.21Zm12.17-7.41-2.16 7.5h-2.43l-1.11-4.4a4.66 4.66 0 0 1-.12-1 4.62 4.62 0 0 1-.15.93l-1.18 4.43h-2.4l-2.12-7.5h2.36l1 4.89a5.57 5.57 0 0 1 .11.84 4.52 4.52 0 0 1 .14-.87l1.29-4.86h2.2l1.16 4.89a8.2 8.2 0 0 1 .1.85 8.27 8.27 0 0 1 .12-.85l1-4.89Zm4.6 7.68a4 4 0 0 1-2.95-1 4.35 4.35 0 0 1 0-5.76 4.17 4.17 0 0 1 3-1.06 4 4 0 0 1 2.93 1.06 3.72 3.72 0 0 1 1.06 2.78 4 4 0 0 1-1.09 3 4.09 4.09 0 0 1-2.86.96Zm.06-6.09a1.56 1.56 0 0 0-1.28.56 2.52 2.52 0 0 0-.45 1.6q0 2.16 1.74 2.16c1.11 0 1.66-.74 1.66-2.22s-.47-2.1-1.58-2.1Zm10.43.5a2 2 0 0 0-1-.23 1.41 1.41 0 0 0-1.18.55 2.44 2.44 0 0 0-.42 1.51v3.58h-2.32v-7.5h2.32v1.39a2 2 0 0 1 2-1.52 1.75 1.75 0 0 1 .58.08Zm8.59 5.41H154l-2.39-3.72v3.72h-2.32V94.73h2.32v7.07l2.23-3.46h2.75l-2.69 3.52Z" style="fill:#706d6e"/>
</svg>
