<svg xmlns="http://www.w3.org/2000/svg" width="200" height="128">
	<linearGradient id="a" x1="89.17" y1="35.11" x2="89.17" y2="88.86" gradientTransform="matrix(1 0 0 -1 0 108)" gradientUnits="userSpaceOnUse">
		<stop offset=".05" stop-color="#949494"/>
		<stop offset=".36" stop-color="#979797"/>
		<stop offset=".54" stop-color="#9f9f9f"/>
		<stop offset=".69" stop-color="#adadad"/>
		<stop offset=".73" stop-color="#b3b3b3"/>
	</linearGradient>
	<linearGradient id="b" x1="104.93" y1="71.41" x2="104.93" y2="28.12" gradientTransform="matrix(1 0 0 -1 0 108)" gradientUnits="userSpaceOnUse">
		<stop offset=".18" stop-color="#5ea0ef"/>
		<stop offset="1" stop-color="#0078d4"/>
	</linearGradient>
	<path fill="#706d6e" d="M90.6 89.5h-1.36l-1.11-3h-4.46l-1 3h-1.41l4-10.51h1.27zm-2.88-4L86.08 81a3.34 3.34 0 0 1-.16-.7 4.22 4.22 0 0 1-.17.7l-1.64 4.48zm9.5-3.16-4.44 6.13h4.39v1H91v-.38L95.45 83h-4v-1h5.79zm7.61 7.16h-1.2v-1.19a2.46 2.46 0 0 1-2.31 1.36c-1.79 0-2.68-1.06-2.68-3.19V82h1.16v4.29c0 1.58.61 2.37 1.82 2.37a1.8 1.8 0 0 0 1.44-.65 2.45 2.45 0 0 0 .57-1.69V82h1.2zm6.34-6.29a1.47 1.47 0 0 0-.91-.24 1.51 1.51 0 0 0-1.28.73 3.29 3.29 0 0 0-.52 2v3.8h-1.2V82h1.2v1.54a2.57 2.57 0 0 1 .78-1.23 1.77 1.77 0 0 1 1.18-.44 2 2 0 0 1 .72.1zm7.13 2.84H113a2.8 2.8 0 0 0 .67 1.93 2.34 2.34 0 0 0 1.77.68 3.71 3.71 0 0 0 2.33-.83V89a4.41 4.41 0 0 1-2.61.71 3.18 3.18 0 0 1-2.5-1 4.8 4.8 0 0 1 .08-5.73 3.22 3.22 0 0 1 2.47-1.1 2.84 2.84 0 0 1 2.28 1 4 4 0 0 1 .8 2.65zm-1.23-1a2.43 2.43 0 0 0-.5-1.62 1.73 1.73 0 0 0-1.37-.58 2 2 0 0 0-1.45.61A2.8 2.8 0 0 0 113 85zM51 106h-2.57l-.74-2.34H44l-.79 2.34h-2.56l3.82-10.51h2.81zm-3.87-4.16L46 98.31a4.36 4.36 0 0 1-.18-.94h-.06a3.58 3.58 0 0 1-.18.91l-1.14 3.56zm7.31 3.29v4.32H52.1v-11h2.31v1.12a2.94 2.94 0 0 1 4.66-.31 4.27 4.27 0 0 1 .8 2.72 4.57 4.57 0 0 1-.93 3 3 3 0 0 1-2.47 1.14 2.33 2.33 0 0 1-2.03-.99zm-.07-3.08v.6a1.94 1.94 0 0 0 .41 1.27 1.38 1.38 0 0 0 1.08.49 1.44 1.44 0 0 0 1.23-.61 3 3 0 0 0 .43-1.74c0-1.31-.51-2-1.54-2a1.47 1.47 0 0 0-1.16.53 2.17 2.17 0 0 0-.45 1.46zm9.37 3.08v4.32H61.4v-11h2.31v1.12a2.94 2.94 0 0 1 4.66-.31 4.27 4.27 0 0 1 .8 2.72 4.57 4.57 0 0 1-.93 3 3 3 0 0 1-2.46 1.14 2.33 2.33 0 0 1-2.04-.99zm-.06-3.08v.6a1.88 1.88 0 0 0 .41 1.27 1.34 1.34 0 0 0 1.07.49 1.44 1.44 0 0 0 1.23-.61 3 3 0 0 0 .43-1.74c0-1.31-.51-2-1.53-2a1.45 1.45 0 0 0-1.16.53 2.17 2.17 0 0 0-.45 1.46zm10.9 3.54v-2.34a4.53 4.53 0 0 0 1.39.8 4.36 4.36 0 0 0 1.5.27 3.53 3.53 0 0 0 .78-.08 1.82 1.82 0 0 0 .56-.22 1 1 0 0 0 .33-.34.78.78 0 0 0 .11-.42.88.88 0 0 0-.17-.55 2.09 2.09 0 0 0-.48-.45 4 4 0 0 0-.72-.39l-.9-.39a4.61 4.61 0 0 1-1.84-1.25 2.76 2.76 0 0 1-.6-1.79 2.73 2.73 0 0 1 1.22-2.38 3.93 3.93 0 0 1 1.32-.56 6.71 6.71 0 0 1 1.58-.18 8.92 8.92 0 0 1 1.45.1 5 5 0 0 1 1.17.3v2.19a3.12 3.12 0 0 0-.57-.32 4.88 4.88 0 0 0-.64-.23 5.18 5.18 0 0 0-.66-.14 4.49 4.49 0 0 0-.62 0 2.77 2.77 0 0 0-.73.08 1.93 1.93 0 0 0-.56.21 1.11 1.11 0 0 0-.35.33.83.83 0 0 0-.12.44.77.77 0 0 0 .14.47 1.62 1.62 0 0 0 .39.4 3.91 3.91 0 0 0 .62.36c.25.12.52.25.83.37a9.14 9.14 0 0 1 1.13.57 3.46 3.46 0 0 1 .86.67 2.4 2.4 0 0 1 .55.85 3 3 0 0 1 .19 1.12 3 3 0 0 1-.33 1.47 2.7 2.7 0 0 1-.9 1 4.16 4.16 0 0 1-1.33.53 7.55 7.55 0 0 1-1.6.16 8.73 8.73 0 0 1-1.65-.15 4.56 4.56 0 0 1-1.35-.51zM90 102.91h-4.91c.08 1.09.77 1.63 2.06 1.63a4 4 0 0 0 2.17-.59v1.67a5.58 5.58 0 0 1-2.7.56 3.49 3.49 0 0 1-3.82-3.82 4 4 0 0 1 1.08-3 3.62 3.62 0 0 1 2.67-1.1 3.29 3.29 0 0 1 2.54 1 3.78 3.78 0 0 1 .89 2.64zm-2.14-1.42c0-1.08-.44-1.62-1.31-1.62a1.26 1.26 0 0 0-1 .46 2.14 2.14 0 0 0-.49 1.16zm8.39-.91a2 2 0 0 0-1-.22 1.4 1.4 0 0 0-1.18.55 2.44 2.44 0 0 0-.42 1.51V106h-2.29v-7.5h2.32v1.39a2 2 0 0 1 2-1.52 1.44 1.44 0 0 1 .57.08zm8.82-2.08-2.79 7.5h-2.64L97 98.5h2.47l1.31 4.62a6.72 6.72 0 0 1 .25 1.33 7.87 7.87 0 0 1 .27-1.29l1.33-4.66zm2.16-1.19a1.37 1.37 0 0 1-1-.35 1.1 1.1 0 0 1-.37-.85 1.07 1.07 0 0 1 .37-.85 1.58 1.58 0 0 1 1.93 0 1.1 1.1 0 0 1 .37.85 1.13 1.13 0 0 1-.37.86 1.37 1.37 0 0 1-.93.34zm1.15 8.69h-2.32v-7.5h2.32zm7.62-.27a4.65 4.65 0 0 1-2.27.45 3.8 3.8 0 0 1-2.79-1.05 3.59 3.59 0 0 1-1.07-2.7 4 4 0 0 1 1.14-3 4.24 4.24 0 0 1 3.07-1.11 3.88 3.88 0 0 1 1.92.36v2a2.67 2.67 0 0 0-1.62-.54 2.12 2.12 0 0 0-1.58.58 2.16 2.16 0 0 0-.58 1.61 2.14 2.14 0 0 0 .55 1.56 2.07 2.07 0 0 0 1.53.57 3.07 3.07 0 0 0 1.7-.54zm8.26-2.82h-4.89c.08 1.09.76 1.63 2.06 1.63a4 4 0 0 0 2.17-.59v1.67a5.58 5.58 0 0 1-2.7.56 3.49 3.49 0 0 1-3.82-3.82 4 4 0 0 1 1.08-3 3.61 3.61 0 0 1 2.67-1.1 3.25 3.25 0 0 1 2.53 1 3.74 3.74 0 0 1 .9 2.64zm-2.14-1.42c0-1.08-.44-1.62-1.31-1.62a1.26 1.26 0 0 0-1 .46 2.15 2.15 0 0 0-.5 1.16zm10.25.89V106H130V95.49h3.71q4 0 4 3.35a3.2 3.2 0 0 1-1.14 2.56 4.51 4.51 0 0 1-3 1zm0-5.07v3.27h.93q1.89 0 1.89-1.65t-1.89-1.62zm8.93 8.69H139V94.89h2.31zm8.19 0h-2.19v-1.08a2.43 2.43 0 0 1-2.23 1.26 2.35 2.35 0 0 1-1.72-.62 2.19 2.19 0 0 1-.62-1.65q0-2.18 2.58-2.52l2-.27c0-.82-.45-1.23-1.34-1.23a4.54 4.54 0 0 0-2.54.8v-1.75a6.12 6.12 0 0 1 1.32-.44 7.42 7.42 0 0 1 1.53-.19q3.19 0 3.2 3.2zm-2.17-3v-.51l-1.36.18c-.76.1-1.13.44-1.13 1a.86.86 0 0 0 .27.65 1.06 1.06 0 0 0 .75.25 1.38 1.38 0 0 0 1.06-.45 1.64 1.64 0 0 0 .41-1.12zm11.25 3h-2.31v-4.17c0-1.16-.41-1.74-1.24-1.74a1.23 1.23 0 0 0-1 .46 1.76 1.76 0 0 0-.39 1.17V106h-2.32v-7.5h2.32v1.18a2.65 2.65 0 0 1 2.41-1.37c1.66 0 2.49 1 2.49 3.1z"/>
	<path d="M104.93 71.09a1.77 1.77 0 0 1-1.73 1.8h-28a1.77 1.77 0 0 1-1.77-1.77V20.94a1.77 1.77 0 0 1 1.74-1.8h28a1.78 1.78 0 0 1 1.83 1.74v.06z" fill="url(#a)"/>
	<path fill="#003067" d="M77.87 38a3.41 3.41 0 0 1 3.41-3.41h16a3.42 3.42 0 0 1 3.29 3.41 3.42 3.42 0 0 1-3.38 3.45H81.35A3.44 3.44 0 0 1 77.87 38zm0-10.2a3.44 3.44 0 0 1 3.44-3.44h15.94a3.41 3.41 0 0 1 3.32 3.44 3.42 3.42 0 0 1-3.41 3.42H81.35a3.42 3.42 0 0 1-3.48-3.35z"/>
	<circle fill="#50e6ff" cx="81.57" cy="27.8" r="2.31"/>
	<circle fill="#50e6ff" cx="81.57" cy="37.98" r="2.31"/>
	<path d="M126.62 63a9.85 9.85 0 0 0-8.44-9.49 12.41 12.41 0 0 0-12.65-12 12.62 12.62 0 0 0-12.1 8.41 11.7 11.7 0 0 0-10.19 11.37 11.93 11.93 0 0 0 12.21 11.6h21.4a10 10 0 0 0 9.77-9.89z" fill="url(#b)"/>
	<path fill="none" d="M71.55 17.56h56.91v56.91H71.55z"/>
</svg>
