<svg xmlns="http://www.w3.org/2000/svg" width="200" height="128"><defs><style>.cls-1{fill:#59b4d9;}.cls-2{fill:#3999c6;}.cls-3{fill:#fff;}.cls-4{fill:#7fba00;}.cls-5{fill:#b8d432;}.cls-6{fill:#706d6e;}</style></defs><path class="cls-1" d="M127,50.82h0V37.72L112.12,50.6h-.32V37.72L97,50.6h0V23.65c0-2.27-5.09-4.54-11.8-4.54S73,21.27,73,23.65V73h54.1Zm-41.78-25c-4.87,0-8.76-1.19-8.76-2.49s3.89-2.49,8.76-2.49,8.77,1.08,8.77,2.49S89.94,25.82,85.17,25.82Zm25.54,38.41h-5.95v-6h5.95Zm-10.49,0h-6v-6h6Zm15.15,0v-6h5.95v6Z"/><rect class="cls-2" x="72.95" y="23.33" width="12.01" height="49.67"/><path class="cls-3" d="M96.86,23.33c0,2.38-5.41,4.33-12,4.33S73,25.71,73,23.33,78.36,19,85,19s11.9,1.84,11.9,4.33"/><path class="cls-4" d="M94.48,23c0,1.63-4.22,2.82-9.52,2.82S75.43,24.63,75.43,23s4.23-2.81,9.53-2.81,9.52,1.3,9.52,2.81"/><path class="cls-5" d="M92.42,24.74c1.3-.44,2-1.09,2-1.74,0-1.62-4.22-2.81-9.52-2.81s-9.52,1.3-9.52,2.81c.1.65.86,1.3,2,1.74A23,23,0,0,1,85,23.65a22.64,22.64,0,0,1,7.46,1.09"/><path class="cls-6" d="M90.6,89.34H89.24l-1.11-3H83.67l-1,3H81.26l4-10.51h1.27Zm-2.87-4-1.65-4.48a3.34,3.34,0,0,1-.16-.7h0a4.22,4.22,0,0,1-.17.7l-1.64,4.48Zm9.49-3.11-4.44,6.13h4.39v1H91V89l4.44-6.1h-4v-1h5.79Zm7.61,7.16h-1.2V88.15h0a2.45,2.45,0,0,1-2.31,1.36c-1.79,0-2.68-1.06-2.68-3.19V81.84H99.8v4.29c0,1.58.61,2.37,1.82,2.37a1.82,1.82,0,0,0,1.45-.65,2.5,2.5,0,0,0,.56-1.69V81.84h1.2Zm6.34-6.29a1.47,1.47,0,0,0-.91-.24,1.51,1.51,0,0,0-1.28.73,3.29,3.29,0,0,0-.52,2v3.83h-1.2v-7.5h1.2v1.54h0a2.61,2.61,0,0,1,.78-1.23,1.77,1.77,0,0,1,1.18-.44,2,2,0,0,1,.72.1Zm7.13,2.84H113a2.8,2.8,0,0,0,.67,1.93,2.3,2.3,0,0,0,1.77.68,3.69,3.69,0,0,0,2.33-.83V88.8a4.41,4.41,0,0,1-2.61.71,3.18,3.18,0,0,1-2.5-1,4.2,4.2,0,0,1-.91-2.87,4.09,4.09,0,0,1,1-2.86,3.19,3.19,0,0,1,2.46-1.1,2.84,2.84,0,0,1,2.28,1,4,4,0,0,1,.8,2.65Zm-1.23-1a2.43,2.43,0,0,0-.5-1.62,1.73,1.73,0,0,0-1.37-.58,1.94,1.94,0,0,0-1.44.61,2.81,2.81,0,0,0-.74,1.59Zm-60.56,21V95.33h3.72q5.6,0,5.59,5.13a5.15,5.15,0,0,1-1.53,3.91,5.59,5.59,0,0,1-4.06,1.47Zm2.36-8.58v6.66H60a3.2,3.2,0,0,0,2.42-.92,3.54,3.54,0,0,0,.87-2.52,3.18,3.18,0,0,0-.87-2.36A3.3,3.3,0,0,0,60,97.26Zm14.71,8.58H71.39v-1.08h0A2.45,2.45,0,0,1,69.12,106a2.33,2.33,0,0,1-1.71-.62,2.2,2.2,0,0,1-.63-1.65c0-1.45.86-2.29,2.59-2.52l2-.27c0-.82-.44-1.23-1.33-1.23a4.59,4.59,0,0,0-2.55.8V98.79a5.19,5.19,0,0,1,1.32-.44,6.85,6.85,0,0,1,1.53-.2q3.21,0,3.21,3.21Zm-2.18-3v-.5l-1.36.17c-.75.1-1.13.44-1.13,1a.83.83,0,0,0,.28.65,1,1,0,0,0,.74.25,1.35,1.35,0,0,0,1.06-.45A1.6,1.6,0,0,0,71.4,102.79Zm8.54,3a3.4,3.4,0,0,1-1.54.27c-1.63,0-2.45-.85-2.45-2.54V100H74.74v-1.7H76V96.72l2.31-.66v2.28h1.68V100H78.26v3q0,1.17.93,1.17a1.58,1.58,0,0,0,.75-.21Zm7.55.09H85.3v-1.08h0A2.46,2.46,0,0,1,83,106a2.33,2.33,0,0,1-1.71-.62,2.2,2.2,0,0,1-.63-1.65c0-1.45.86-2.29,2.59-2.52l2-.27c0-.82-.44-1.23-1.33-1.23a4.57,4.57,0,0,0-2.55.8V98.79a5.19,5.19,0,0,1,1.32-.44,6.85,6.85,0,0,1,1.53-.2q3.21,0,3.21,3.21Zm-2.18-3v-.5l-1.36.17c-.75.1-1.13.44-1.13,1a.83.83,0,0,0,.28.65,1,1,0,0,0,.74.25,1.37,1.37,0,0,0,1.06-.45A1.64,1.64,0,0,0,85.31,102.79Zm14.44-5.53h-3.7v2.58h3.4v1.92h-3.4v4.08H93.68V95.33h6.07Zm7.3,8.58h-2.19v-1.08h0A2.44,2.44,0,0,1,102.6,106a2.35,2.35,0,0,1-1.72-.62,2.2,2.2,0,0,1-.63-1.65c0-1.45.86-2.29,2.59-2.52l2-.27c0-.82-.44-1.23-1.33-1.23a4.59,4.59,0,0,0-2.55.8V98.79a5.33,5.33,0,0,1,1.32-.44,6.85,6.85,0,0,1,1.53-.2q3.21,0,3.21,3.21Zm-2.18-3v-.5l-1.36.17c-.75.1-1.13.44-1.13,1a.87.87,0,0,0,.28.65,1,1,0,0,0,.74.25,1.35,1.35,0,0,0,1.06-.45A1.6,1.6,0,0,0,104.87,102.79Zm9.69,2.78a4.58,4.58,0,0,1-2.26.45,3.84,3.84,0,0,1-2.8-1,3.6,3.6,0,0,1-1.07-2.7,4,4,0,0,1,1.15-3,4.22,4.22,0,0,1,3.07-1.11,3.81,3.81,0,0,1,1.91.36v2a2.62,2.62,0,0,0-1.61-.54,2.12,2.12,0,0,0-1.58.58,2.16,2.16,0,0,0-.58,1.61,2.14,2.14,0,0,0,.55,1.56,2,2,0,0,0,1.53.57,3,3,0,0,0,1.69-.54Zm6,.18a3.4,3.4,0,0,1-1.54.27c-1.63,0-2.45-.85-2.45-2.54V100h-1.21v-1.7h1.21V96.72l2.31-.66v2.28h1.68V100h-1.68v3q0,1.17.93,1.17a1.55,1.55,0,0,0,.75-.21Zm4.82.27a4,4,0,0,1-2.94-1,4.32,4.32,0,0,1,0-5.76,4.16,4.16,0,0,1,3-1.06,4,4,0,0,1,2.93,1.06,3.75,3.75,0,0,1,1.06,2.78,4,4,0,0,1-1.1,3A4.09,4.09,0,0,1,125.43,106Zm.06-6.09a1.55,1.55,0,0,0-1.27.56,2.52,2.52,0,0,0-.46,1.6c0,1.44.58,2.16,1.75,2.16s1.66-.74,1.66-2.22S126.61,99.93,125.49,99.93Zm10.43.5a1.91,1.91,0,0,0-1-.23,1.39,1.39,0,0,0-1.18.55,2.44,2.44,0,0,0-.43,1.51v3.58H131v-7.5h2.31v1.39h0a2,2,0,0,1,2-1.52,1.69,1.69,0,0,1,.57.08Zm8.82-2.09-3.05,8.1q-1.09,2.93-3.31,2.92a4.14,4.14,0,0,1-1.38-.19v-1.85a2,2,0,0,0,1,.28,1.27,1.27,0,0,0,1.25-.85l.39-.93-3-7.48h2.56l1.4,4.56a5.88,5.88,0,0,1,.2,1h0a9.16,9.16,0,0,1,.24-1l1.42-4.58Z"/></svg>