<svg xmlns="http://www.w3.org/2000/svg" width="200" height="128"><defs><style>.cls-1{fill:#a0a1a2;}.cls-2{fill:#7a7a7a;}.cls-3{fill:#fcd116;}.cls-4{fill:#ff8c00;opacity:0.3;isolation:isolate;}.cls-5{fill:#706d6e;}</style></defs><path class="cls-1" d="M123,44.92c0-.4,0-.79-.07-1.2L127,41.46a19.59,19.59,0,0,0-1-3.91l-4.66.08a17,17,0,0,0-1.18-2.09l2.4-4a20.2,20.2,0,0,0-2.85-2.85l-2.37,1.4-1,1.48-2.14,3.16a12.88,12.88,0,1,1-10.06-2.5l1-4-2.27-4.08a19.77,19.77,0,0,0-3.89,1.05L99,29.9a15.86,15.86,0,0,0-2.08,1.18l-4-2.39a19.69,19.69,0,0,0-2.85,2.85l2.4,4a14.24,14.24,0,0,0-1.18,2.09l-4.68-.08a21.81,21.81,0,0,0-1,3.91l4.07,2.26c0,.41,0,.8,0,1.2s0,.79,0,1.2l-4.07,2.26a20.29,20.29,0,0,0,1.05,3.91l4.66-.08a14.77,14.77,0,0,0,1.18,2.09l-2.4,4a20.89,20.89,0,0,0,2.85,2.87l4-2.41A18.69,18.69,0,0,0,99,60l-.07,4.65a19.68,19.68,0,0,0,3.9,1l2.27-4.08c.39,0,.78.06,1.19.06s.81,0,1.19-.06l2.27,4.08a19.77,19.77,0,0,0,3.91-1L113.57,60a18.09,18.09,0,0,0,2.09-1.19l4,2.41a21.47,21.47,0,0,0,2.85-2.87l-2.4-4a19.45,19.45,0,0,0,1.19-2.09l4.65.08a19.77,19.77,0,0,0,1-3.91l-4.08-2.26C123,45.71,123,45.33,123,44.92Z"/><path class="cls-2" d="M90.28,62.6v-2l-.11-.1-2-.7-.53-1.38,1-2.11.12-.24-.64-.64-.77-.77-.27.13-2,1-1.38-.39-.88-2.24h-2l-.1.1L80,55.34l-1.4.53-2.33-1.12-1.42,1.4.13.27,1,2-.57,1.39L73,60.68v2l.29.08,2.14.71L76,64.87l-1.09,2.32,1.41,1.44.27-.14,2-1L80,68l.87,2.43h2l.09-.29.7-2.14L85,67.46l2.35,1.1,1.41-1.42-.13-.27-1-2,.4-1.4Zm-8.45,1.86a2.82,2.82,0,1,1,2.8-2.82A2.82,2.82,0,0,1,81.83,64.46Z"/><path class="cls-3" d="M109,21.53,108.18,24l-1.33,4.25-.64,2-.56,1.79L101.77,44.4a.29.29,0,0,0,.3.42h3.58a.27.27,0,0,1,.25.1.29.29,0,0,1,.06.34l-3.7,9c-.1.24,0,.29.13.08L114.09,41c.17-.2.1-.36-.15-.36l-3.83,0-.71,0a.25.25,0,0,1-.24-.41l3.65-6.49.86-1.56,1-1.78,2.13-3.77L118,24.52A23.22,23.22,0,0,0,109,21.53Z"/><path class="cls-4" d="M115.66,23.35,107.19,40.7h2.11a.23.23,0,0,1-.15-.39l3.65-6.49.86-1.56,1-1.79,2.13-3.76L118,24.52A24.14,24.14,0,0,0,115.66,23.35Z"/><path class="cls-4" d="M114,40.68l-2.36,0-8.74,13.11L114.11,41C114.27,40.84,114.21,40.68,114,40.68Z"/><path class="cls-5" d="M90.6,89.34H89.24l-1.11-3H83.67l-1,3H81.26l4-10.51h1.27Zm-2.87-4-1.65-4.48a3.34,3.34,0,0,1-.16-.7h0a4.22,4.22,0,0,1-.17.7l-1.64,4.48Zm9.49-3.11-4.44,6.13h4.39v1H91V89l4.44-6.1h-4v-1h5.79Zm7.61,7.16h-1.2V88.15h0a2.45,2.45,0,0,1-2.31,1.36c-1.79,0-2.68-1.06-2.68-3.19V81.84H99.8v4.29c0,1.58.61,2.37,1.82,2.37a1.82,1.82,0,0,0,1.45-.65,2.5,2.5,0,0,0,.56-1.69V81.84h1.2Zm6.34-6.29a1.47,1.47,0,0,0-.91-.24,1.51,1.51,0,0,0-1.28.73,3.29,3.29,0,0,0-.52,2v3.83h-1.2v-7.5h1.2v1.54h0a2.61,2.61,0,0,1,.78-1.23,1.77,1.77,0,0,1,1.18-.44,2,2,0,0,1,.72.1Zm7.13,2.84H113a2.8,2.8,0,0,0,.67,1.93,2.3,2.3,0,0,0,1.77.68,3.69,3.69,0,0,0,2.33-.83V88.8a4.41,4.41,0,0,1-2.61.71,3.18,3.18,0,0,1-2.5-1,4.2,4.2,0,0,1-.91-2.87,4.09,4.09,0,0,1,1-2.86,3.19,3.19,0,0,1,2.46-1.1,2.84,2.84,0,0,1,2.28,1,4,4,0,0,1,.8,2.65Zm-1.23-1a2.43,2.43,0,0,0-.5-1.62,1.73,1.73,0,0,0-1.37-.58,1.94,1.94,0,0,0-1.44.61,2.81,2.81,0,0,0-.74,1.59Zm-49,21H65.5l-.75-2.34H61l-.74,2.34H57.71l3.82-10.51h2.81Zm-3.86-4.15-1.13-3.54a5.07,5.07,0,0,1-.18-.94h-.06a3.58,3.58,0,0,1-.18.91l-1.14,3.57Zm12.07,4.15H74V104.7h0A2.61,2.61,0,0,1,71.65,106c-1.74,0-2.61-1-2.61-3.16V98.34h2.31v4.32q0,1.59,1.26,1.59a1.25,1.25,0,0,0,1-.44,1.74,1.74,0,0,0,.38-1.18V98.34h2.3Zm6.49-.09a3.47,3.47,0,0,1-1.55.27c-1.63,0-2.45-.85-2.45-2.54V100H77.56v-1.7h1.21V96.72l2.31-.66v2.28h1.69V100H81.08v3q0,1.17.93,1.17a1.59,1.59,0,0,0,.76-.21Zm4.82.27a4,4,0,0,1-3-1,4.32,4.32,0,0,1,0-5.76,4.16,4.16,0,0,1,3-1.06,4,4,0,0,1,2.93,1.06A3.72,3.72,0,0,1,91.68,102a4,4,0,0,1-1.09,3A4.1,4.1,0,0,1,87.59,106Zm0-6.09a1.55,1.55,0,0,0-1.27.56,2.52,2.52,0,0,0-.45,1.6q0,2.16,1.74,2.16c1.11,0,1.66-.74,1.66-2.22S88.76,99.93,87.64,99.93Zm17.45,5.91h-2.31v-4.28c0-1.09-.4-1.63-1.2-1.63a1.1,1.1,0,0,0-.93.49,2,2,0,0,0-.36,1.22v4.2H98v-4.32c0-1.06-.39-1.59-1.18-1.59a1.11,1.11,0,0,0-1,.47,2,2,0,0,0-.35,1.27v4.17H93.18v-7.5H95.5v1.17h0a2.69,2.69,0,0,1,1-1A2.8,2.8,0,0,1,98,98.15a2.16,2.16,0,0,1,2.17,1.4,2.8,2.8,0,0,1,2.52-1.4c1.64,0,2.45,1,2.45,3Zm8.07,0H111v-1.08h0a2.43,2.43,0,0,1-2.23,1.26,2.35,2.35,0,0,1-1.72-.62,2.19,2.19,0,0,1-.62-1.65q0-2.18,2.58-2.52l2-.27c0-.82-.45-1.23-1.34-1.23a4.59,4.59,0,0,0-2.55.8V98.79a5.42,5.42,0,0,1,1.33-.44,6.84,6.84,0,0,1,1.52-.2q3.21,0,3.21,3.21Zm-2.17-3v-.5l-1.37.17c-.75.1-1.12.44-1.12,1a.86.86,0,0,0,.27.65,1,1,0,0,0,.74.25,1.39,1.39,0,0,0,1.07-.45A1.64,1.64,0,0,0,111,102.79Zm8.54,3A3.44,3.44,0,0,1,118,106c-1.63,0-2.44-.85-2.44-2.54V100h-1.22v-1.7h1.22V96.72l2.3-.66v2.28h1.69V100h-1.69v3q0,1.17.93,1.17a1.59,1.59,0,0,0,.76-.21Zm2.47-8.6a1.32,1.32,0,0,1-1-.35,1.1,1.1,0,0,1-.37-.85,1.07,1.07,0,0,1,.37-.85,1.58,1.58,0,0,1,1.93,0,1.1,1.1,0,0,1,.37.85,1.13,1.13,0,0,1-.37.86A1.37,1.37,0,0,1,122,97.15Zm1.15,8.69h-2.32v-7.5h2.32Zm5.52.18a4,4,0,0,1-2.95-1,4.35,4.35,0,0,1,0-5.76,4.17,4.17,0,0,1,3-1.06,4,4,0,0,1,2.93,1.06,3.72,3.72,0,0,1,1.06,2.78,4,4,0,0,1-1.09,3A4.09,4.09,0,0,1,128.67,106Zm.06-6.09a1.56,1.56,0,0,0-1.28.56,2.52,2.52,0,0,0-.45,1.6q0,2.16,1.74,2.16c1.11,0,1.66-.74,1.66-2.22S129.84,99.93,128.73,99.93Zm12.78,5.91H139.2v-4.17c0-1.16-.42-1.74-1.25-1.74a1.2,1.2,0,0,0-1,.46,1.76,1.76,0,0,0-.39,1.17v4.28h-2.32v-7.5h2.32v1.18h0A2.65,2.65,0,0,1,139,98.15c1.66,0,2.49,1,2.49,3.1Z"/></svg>