<svg xmlns="http://www.w3.org/2000/svg" width="200" height="128">
	<defs>
		<style>
			.cls-1{fill:#0072c6}.cls-2{fill:#59b4d9}.cls-3{fill:#b8d432}
		</style>
	</defs>
	<path class="cls-1" d="M115.12 42.76V40.6h-16.2l-7.57 7.56h-5.58L98.73 35.2h8.83v-2.16h-9.72v.01l-.01-.01-15.12 15.12h-2.15v2.16h6.48l7.56 7.56h18.36v-2.16H95.49l-5.4-5.4h13.15v-2.16h-8.83l5.4-5.4h15.31z"/>
	<circle class="cls-2" cx="105.4" cy="49.24" r="3.13"/>
	<circle class="cls-2" cx="108.64" cy="34.12" r="3.13"/>
	<circle class="cls-3" cx="116.2" cy="41.68" r="3.13"/>
	<circle class="cls-3" cx="112.96" cy="56.8" r="3.13"/>
	<path class="cls-1" d="M73.87 19a.79.79 0 0 0-.87.86v10.8a.8.8 0 0 0 .87.87h5.4a.8.8 0 0 0 .87-.87v-4.42h39.7v4.53c0 .54.32.87 1.08.87h5.19a.8.8 0 0 0 .87-.87V20c.11-.65-.22-1-.76-1H73.87Z"/>
	<path class="cls-1" d="M126.14 73a.79.79 0 0 0 .86-.86V61.55a.79.79 0 0 0-.86-.86H121a.79.79 0 0 0-.86.86v4.32h-39.9v-4.53c0-.54-.33-.87-1.08-.87h-5.3c-.54 0-.86.33-.86 1.08v10.59a.79.79 0 0 0 .86.86Z"/>
	<path d="M90.6 89.34h-1.36l-1.11-3h-4.46l-1 3h-1.41l4-10.51h1.27Zm-2.87-4-1.65-4.48a3.34 3.34 0 0 1-.16-.7 4.22 4.22 0 0 1-.17.7l-1.64 4.48Zm9.49-3.11-4.44 6.13h4.39v1H91V89l4.44-6.1h-4v-1h5.79Zm7.61 7.16h-1.2v-1.24a2.45 2.45 0 0 1-2.31 1.36c-1.79 0-2.68-1.06-2.68-3.19v-4.48h1.16v4.29c0 1.58.61 2.37 1.82 2.37a1.82 1.82 0 0 0 1.45-.65 2.5 2.5 0 0 0 .56-1.69v-4.32h1.2Zm6.34-6.29a1.47 1.47 0 0 0-.91-.24 1.51 1.51 0 0 0-1.28.73 3.29 3.29 0 0 0-.52 2v3.83h-1.2v-7.5h1.2v1.54a2.61 2.61 0 0 1 .78-1.23 1.77 1.77 0 0 1 1.18-.44 2 2 0 0 1 .72.1Zm7.13 2.84H113a2.8 2.8 0 0 0 .67 1.93 2.3 2.3 0 0 0 1.77.68 3.69 3.69 0 0 0 2.33-.83v1.08a4.41 4.41 0 0 1-2.61.71 3.18 3.18 0 0 1-2.5-1 4.2 4.2 0 0 1-.91-2.87 4.09 4.09 0 0 1 1-2.86 3.19 3.19 0 0 1 2.46-1.1 2.84 2.84 0 0 1 2.28 1 4 4 0 0 1 .8 2.65Zm-1.23-1a2.43 2.43 0 0 0-.5-1.62 1.73 1.73 0 0 0-1.37-.58 1.94 1.94 0 0 0-1.44.61 2.81 2.81 0 0 0-.74 1.59Zm-46.26 21h-6.3V95.33h6.06v1.93h-3.69v2.34h3.44v1.92h-3.44v2.4h3.93Zm8.6-7.5-2.79 7.5H74l-2.65-7.5h2.45l1.31 4.56a6.86 6.86 0 0 1 .25 1.33 9.38 9.38 0 0 1 .27-1.29l1.37-4.7Zm7.59 4.31h-4.9c.08 1.09.76 1.63 2.06 1.63a3.92 3.92 0 0 0 2.17-.59v1.67a5.58 5.58 0 0 1-2.7.56 3.49 3.49 0 0 1-3.82-3.81 4 4 0 0 1 1.08-3 3.61 3.61 0 0 1 2.67-1.1 3.29 3.29 0 0 1 2.54 1 3.78 3.78 0 0 1 .89 2.64Zm-2.14-1.42c0-1.08-.44-1.62-1.31-1.62a1.24 1.24 0 0 0-1 .47 2 2 0 0 0-.49 1.15Zm10.76 4.51h-2.3v-4.17c0-1.16-.42-1.74-1.25-1.74a1.23 1.23 0 0 0-1 .46 1.76 1.76 0 0 0-.39 1.17v4.28h-2.31v-7.5h2.31v1.18a2.67 2.67 0 0 1 2.41-1.37c1.66 0 2.49 1 2.49 3.1Zm6.37-.09a3.44 3.44 0 0 1-1.55.27c-1.63 0-2.44-.85-2.44-2.54V100h-1.23v-1.7H98v-1.58l2.3-.66v2.28h1.7V100h-1.69v3q0 1.17.93 1.17a1.59 1.59 0 0 0 .76-.17Zm14.29-.62a7.49 7.49 0 0 1-3.83.89 5.53 5.53 0 0 1-4-1.4 5.13 5.13 0 0 1-1.46-3.87 5.39 5.39 0 0 1 1.59-4 5.83 5.83 0 0 1 4.25-1.56 8.58 8.58 0 0 1 3 .46v2.22a5.84 5.84 0 0 0-3-.7 3.22 3.22 0 0 0-2.4 1 3.55 3.55 0 0 0-.92 2.55 3.51 3.51 0 0 0 .83 2.51 2.92 2.92 0 0 0 2.24.89 3 3 0 0 0 1.35-.25v-2.05h-2.1v-1.97h4.47Zm6.71-4.7a2 2 0 0 0-1-.23 1.41 1.41 0 0 0-1.18.55 2.44 2.44 0 0 0-.42 1.51v3.58h-2.32v-7.5h2.32v1.39a2 2 0 0 1 2-1.52 1.73 1.73 0 0 1 .57.08Zm2.3-3.28a1.32 1.32 0 0 1-1-.35 1.13 1.13 0 0 1-.29-.8 1.1 1.1 0 0 1 .37-.85 1.58 1.58 0 0 1 1.93 0 1.1 1.1 0 0 1 .37.85 1.13 1.13 0 0 1-.37.86 1.37 1.37 0 0 1-1.02.29Zm1.15 8.69h-2.32v-7.5h2.32Zm9.28 0h-2.32v-1a2.58 2.58 0 0 1-2.32 1.22 2.87 2.87 0 0 1-2.27-1 4.12 4.12 0 0 1-.85-2.77 4.45 4.45 0 0 1 .94-3 3.09 3.09 0 0 1 2.48-1.13 2.1 2.1 0 0 1 2 1v-4.43h2.31Zm-2.27-3.65v-.56a1.79 1.79 0 0 0-.42-1.22 1.42 1.42 0 0 0-1.11-.48 1.4 1.4 0 0 0-1.2.6 2.8 2.8 0 0 0-.43 1.66 2.39 2.39 0 0 0 .42 1.52 1.36 1.36 0 0 0 1.15.54 1.4 1.4 0 0 0 1.15-.57 2.36 2.36 0 0 0 .43-1.49Z" style="fill:#706d6e"/>
</svg>
