<svg xmlns="http://www.w3.org/2000/svg" width="200" height="128">
	<path d="M99.15 56.12c0 .12.12.34 0 .46a3.17 3.17 0 0 1-3.48 1.12.58.58 0 0 1-.45-.22 2.08 2.08 0 0 1 .56-.12c1.35-.33 1.57-.45 2.14-1.12.11-.11.22-.34.45-.45.22-.23.33-.23.56-.11ZM94 50.84a16.64 16.64 0 0 0 .11-3.15v-.45c0-.23 0-4.05 2.14-6.3-1.35-.45-4.61-1.24-6.64.11-1.24.9-1.8 2.48-1.69 4.84.12 2 2.14 10.69 4.28 11.36.11 0 .56.23 1.12-.56.9-1 1.69-1.92 2-2.37-.11-.11-.23-.11-.23-.22A3.18 3.18 0 0 1 94 50.84Zm3.49 3.71a2.59 2.59 0 0 1-1.92-.9 3.34 3.34 0 0 1-.9-2.7 18.24 18.24 0 0 0 .12-3.37v-.23a3.53 3.53 0 0 1 2.81-.79 1.22 1.22 0 0 1 .9 1c.67 2.93.11 4.17-.34 5.18a2 2 0 0 0-.22.56l-.12.12c-.13.45-.24.79-.35 1.13Zm0-6.64c.45 0 .78-.22.78-.45s-.33-.45-.67-.45-.56 0-.68.12a.11.11 0 0 0-.11.11c0 .11.11.22.11.34a1 1 0 0 0 .55.33ZM108.38 46v.11a7.59 7.59 0 0 1-.11 1.58 4 4 0 0 0-.12 1.24 5.18 5.18 0 0 0 .12 1.35 5.51 5.51 0 0 1-.45 3.71.11.11 0 0 0 .11.11c3-4.84 4.16-10.35 3.15-11.59-2.25-2.92-5.74-2.58-7.43-2.25a8.89 8.89 0 0 1 4.73 5.74Zm-.9 1.57a4.34 4.34 0 0 0-.11 1.24 6.53 6.53 0 0 0 .11 1.46 5.33 5.33 0 0 1-.23 2.93c-.11-.11-.11-.23-.22-.34s-.23-.33-.34-.67c-.67-1.24-2.25-4-1.46-5.18.45-.56 1.46-.56 2.36-.45 0 .23-.11.68-.11 1.01Zm-.56-.56a.11.11 0 0 0-.12-.11c-.11-.11-.33-.11-.67-.11s-.68.22-.56.33.11.23.22.34a.42.42 0 0 0 .34.11h.11c.23 0 .34-.11.56-.33a.38.38 0 0 0 .12-.24Zm.9 8.44h-.23c-.34.11-.67.23-.67 1.13a5.35 5.35 0 0 0 3.15-.23 4.29 4.29 0 0 0 1-.67 4.31 4.31 0 0 1-3.25-.23Zm-.68-1c-.22-.34-.56-.79-.9-1.35a1 1 0 0 0-.34-.57c-.9-1.57-2.47-4.5-1.35-6 .45-.67 1.47-1 2.93-.9a8 8 0 0 0-7.2-5.4h-.11a4.42 4.42 0 0 0-3.38 1.35 8.57 8.57 0 0 0-1.91 4.84 4.73 4.73 0 0 1 2-.67 2 2 0 0 1 2.48 1.68 7.93 7.93 0 0 1-.45 5.63c-.11.22-.11.34-.23.56l-.11.11-.34 1a.91.91 0 0 1 .79.11c.45.11.68.56.9 1v.34c-.11 3.26 0 6.07.34 6.75a2 2 0 0 0 2.7 1.46c1.69-.34 2.25-.9 2.47-2.47.23-1.24.68-4.73.68-5.4a1.62 1.62 0 0 1 1.12-1.92.38.38 0 0 1-.09-.16ZM120 27v37.34c0 4-8.78 8.66-19.92 8.66s-20-4.73-20-8.77V26.88c0-4.05 9-7.88 20-7.88s20.11 3.94 19.92 8Zm-7.8 28.23c-.11-.34-.56-.45-1.12-.34-1.91.34-2.59.11-2.81 0 3-4.61 4.72-11.14 3.26-12.94-3.15-4.05-8.33-2.47-9.34-2.14H102a10.23 10.23 0 0 0-1.92-.22h-.11a5.51 5.51 0 0 0-3.15.9c-.9-.34-5.17-1.8-7.87.11-1.47 1-2.14 2.93-2 5.63.11 1.23 1.91 11.13 4.73 12.15.11 0 .33.11.45.11a2.11 2.11 0 0 0 1.57-.9 26.2 26.2 0 0 1 2.14-2.36 3.74 3.74 0 0 0 1.46.45c-.11.11-.22.22-.22.33-.34.45-.45.57-1.58.79-.34.11-1.24.23-1.24.9s1.13 1 1.24 1a4.35 4.35 0 0 0 1.24.12 3.92 3.92 0 0 0 2.47-.9 31.36 31.36 0 0 0 .34 5.62 2.9 2.9 0 0 0 3.6 2c1.91-.45 2.81-1.24 3.15-3.15.23-1 .45-3.38.56-4.73a3.58 3.58 0 0 0 1.13.11 7.31 7.31 0 0 0 2.47-.45c.73-.63 1.97-1.42 1.74-2.09Zm2.14-28.92c0-2.47-6.41-4.39-14.29-4.39s-14.17 1.92-14.17 4.39 6.41 4.39 14.29 4.39 14.17-2.02 14.17-4.39Z" style="fill:#0078d7"/>
	<path d="M90.6 89.34h-1.36l-1.11-3h-4.46l-1 3h-1.41l4-10.51h1.27Zm-2.87-4-1.65-4.48a3.34 3.34 0 0 1-.16-.7 4.22 4.22 0 0 1-.17.7l-1.64 4.48Zm9.49-3.11-4.44 6.13h4.39v1H91V89l4.44-6.1h-4v-1h5.79Zm7.61 7.16h-1.2v-1.24a2.45 2.45 0 0 1-2.31 1.36c-1.79 0-2.68-1.06-2.68-3.19v-4.48h1.16v4.29c0 1.58.61 2.37 1.82 2.37a1.82 1.82 0 0 0 1.45-.65 2.5 2.5 0 0 0 .56-1.69v-4.32h1.2Zm6.34-6.29a1.47 1.47 0 0 0-.91-.24 1.51 1.51 0 0 0-1.28.73 3.29 3.29 0 0 0-.52 2v3.83h-1.2v-7.5h1.2v1.54a2.61 2.61 0 0 1 .78-1.23 1.77 1.77 0 0 1 1.18-.44 2 2 0 0 1 .72.1Zm7.13 2.84H113a2.8 2.8 0 0 0 .67 1.93 2.3 2.3 0 0 0 1.77.68 3.69 3.69 0 0 0 2.33-.83v1.08a4.41 4.41 0 0 1-2.61.71 3.18 3.18 0 0 1-2.5-1 4.2 4.2 0 0 1-.91-2.87 4.09 4.09 0 0 1 1-2.86 3.19 3.19 0 0 1 2.46-1.1 2.84 2.84 0 0 1 2.28 1 4 4 0 0 1 .8 2.65Zm-1.23-1a2.43 2.43 0 0 0-.5-1.62 1.73 1.73 0 0 0-1.37-.58 1.94 1.94 0 0 0-1.44.61 2.81 2.81 0 0 0-.74 1.59Zm-81.33 21V95.33h3.72q5.59 0 5.6 5.13a5.15 5.15 0 0 1-1.53 3.91 5.62 5.62 0 0 1-4.07 1.47Zm2.37-8.58v6.66h1.17a3.18 3.18 0 0 0 2.41-.92 3.5 3.5 0 0 0 .88-2.52 3.18 3.18 0 0 0-.87-2.36 3.33 3.33 0 0 0-2.44-.86Zm8.69 8.58V95.33h3.82a4.78 4.78 0 0 1 2.71.65 2.07 2.07 0 0 1 .94 1.82 2.15 2.15 0 0 1-.57 1.48 3.08 3.08 0 0 1-1.47.89A2.89 2.89 0 0 1 54 101a2.29 2.29 0 0 1 .67 1.67 2.78 2.78 0 0 1-1 2.29 4.29 4.29 0 0 1-2.82.85Zm2.37-8.76v2.49h1a1.7 1.7 0 0 0 1.15-.36 1.19 1.19 0 0 0 .42-1c0-.78-.57-1.16-1.73-1.16Zm0 4.25v2.76h1.28a1.92 1.92 0 0 0 1.28-.38 1.27 1.27 0 0 0 .47-1 1.15 1.15 0 0 0-.46-1 2 2 0 0 0-1.28-.36Zm16-4.82a2.29 2.29 0 0 0-.86-.18c-.74 0-1.11.4-1.11 1.21v.8H65V100h-1.75v5.8h-2.31V100h-1.26v-1.7h1.26v-.93a2.71 2.71 0 0 1 .84-2.07 3.19 3.19 0 0 1 2.27-.78 3.87 3.87 0 0 1 1.17.15Zm4.48 9.39a4 4 0 0 1-2.94-1 4.32 4.32 0 0 1 0-5.76 4.16 4.16 0 0 1 3-1.06 4 4 0 0 1 2.93 1.06 3.75 3.75 0 0 1 1.11 2.76 4 4 0 0 1-1.1 3 4.09 4.09 0 0 1-3 1Zm.06-6.09a1.54 1.54 0 0 0-1.27.56 2.46 2.46 0 0 0-.46 1.6c0 1.44.58 2.16 1.75 2.16s1.66-.74 1.66-2.22-.56-2.08-1.68-2.08Zm10.43.5a1.91 1.91 0 0 0-1-.23 1.39 1.39 0 0 0-1.18.55 2.38 2.38 0 0 0-.43 1.51v3.58h-2.28v-7.5h2.31v1.39a2 2 0 0 1 2-1.52 1.73 1.73 0 0 1 .57.08Zm7.86 1.81v3.62h-2.42V95.33h3.71q4 0 4 3.35a3.2 3.2 0 0 1-1.14 2.56 4.51 4.51 0 0 1-3 1Zm0-5.07v3.28h.93c1.26 0 1.89-.56 1.89-1.66s-.63-1.62-1.89-1.62Zm9.7 8.85a4 4 0 0 1-3-1 4.35 4.35 0 0 1 0-5.76 4.17 4.17 0 0 1 3-1.06 4 4 0 0 1 2.93 1.06 3.72 3.72 0 0 1 1.06 2.78 4 4 0 0 1-1.09 3 4.09 4.09 0 0 1-2.9.98Zm.06-6.09a1.56 1.56 0 0 0-1.28.56 2.52 2.52 0 0 0-.45 1.6q0 2.16 1.74 2.16c1.11 0 1.66-.74 1.66-2.22s-.56-2.08-1.67-2.08Zm5 5.71v-1.87a4.76 4.76 0 0 0 1.14.51 3.89 3.89 0 0 0 1.07.17 2.31 2.31 0 0 0 1-.17.54.54 0 0 0 .36-.51.47.47 0 0 0-.16-.37 1.8 1.8 0 0 0-.41-.26 4.08 4.08 0 0 0-.56-.19l-.58-.2a6.35 6.35 0 0 1-.78-.37 2.19 2.19 0 0 1-.58-.45 1.74 1.74 0 0 1-.35-.59 2.36 2.36 0 0 1-.12-.8 2 2 0 0 1 .28-1.08 2.27 2.27 0 0 1 .73-.75 3.3 3.3 0 0 1 1-.42 5.43 5.43 0 0 1 1.22-.14 6.87 6.87 0 0 1 1 .08 6.73 6.73 0 0 1 1 .23v1.78a3.37 3.37 0 0 0-.94-.38 3.72 3.72 0 0 0-1-.13 2 2 0 0 0-.43 0 1.6 1.6 0 0 0-.35.12.62.62 0 0 0-.25.19.48.48 0 0 0-.08.28.49.49 0 0 0 .13.35 1.11 1.11 0 0 0 .34.25 2.88 2.88 0 0 0 .47.19l.52.18a5.44 5.44 0 0 1 .84.35 2.69 2.69 0 0 1 .64.44 2.21 2.21 0 0 1 .41.6 2.31 2.31 0 0 1 .14.82 2.14 2.14 0 0 1-.29 1.14 2.18 2.18 0 0 1-.77.77 3.73 3.73 0 0 1-1.1.44 6.26 6.26 0 0 1-1.31.13 6.83 6.83 0 0 1-2.19-.32Zm11.63.11a3.47 3.47 0 0 1-1.55.27c-1.63 0-2.45-.85-2.45-2.54V100h-1.21v-1.7h1.21v-1.58l2.31-.66v2.28h1.69V100h-1.69v3q0 1.17.93 1.17a1.59 1.59 0 0 0 .76-.21ZM123 105a4.25 4.25 0 0 1-1.2 3.23 4.9 4.9 0 0 1-3.51 1.15 5.51 5.51 0 0 1-2.4-.43v-2a4.59 4.59 0 0 0 2.34.67 2.54 2.54 0 0 0 1.82-.61 2.25 2.25 0 0 0 .64-1.69v-.59a2.59 2.59 0 0 1-2.34 1.26 2.81 2.81 0 0 1-2.27-1 4.05 4.05 0 0 1-.85-2.71 4.57 4.57 0 0 1 .94-3 3.07 3.07 0 0 1 2.47-1.13 2.29 2.29 0 0 1 2.05 1.06v-.87H123Zm-2.28-2.75v-.59a1.82 1.82 0 0 0-.42-1.21 1.35 1.35 0 0 0-1.1-.5 1.43 1.43 0 0 0-1.21.6 2.83 2.83 0 0 0-.43 1.69 2.36 2.36 0 0 0 .41 1.48 1.36 1.36 0 0 0 1.15.55 1.45 1.45 0 0 0 1.16-.55 2.32 2.32 0 0 0 .46-1.49Zm9.11-1.8a1.91 1.91 0 0 0-1-.23 1.39 1.39 0 0 0-1.18.55 2.38 2.38 0 0 0-.43 1.51v3.58H125v-7.5h2.31v1.39a2 2 0 0 1 2-1.52 1.73 1.73 0 0 1 .57.08Zm7.76 2.32h-4.9c.08 1.09.77 1.63 2.06 1.63a4 4 0 0 0 2.18-.59v1.67a5.64 5.64 0 0 1-2.7.56 3.5 3.5 0 0 1-3.83-3.81 4 4 0 0 1 1.09-3 3.6 3.6 0 0 1 2.66-1.1 3.28 3.28 0 0 1 2.54 1 3.74 3.74 0 0 1 .9 2.64Zm-2.15-1.42c0-1.08-.43-1.62-1.3-1.62a1.26 1.26 0 0 0-1 .47 2.08 2.08 0 0 0-.49 1.15Zm3.27 4.11v-2.35a4.37 4.37 0 0 0 1.38.8 4.42 4.42 0 0 0 1.51.27 3.53 3.53 0 0 0 .78-.08 1.92 1.92 0 0 0 .56-.22 1 1 0 0 0 .33-.34.9.9 0 0 0-.07-1 1.85 1.85 0 0 0-.47-.45 5.46 5.46 0 0 0-.73-.39c-.27-.13-.58-.26-.9-.39a4.57 4.57 0 0 1-1.83-1.25 2.72 2.72 0 0 1-.61-1.79 2.83 2.83 0 0 1 .33-1.41 2.79 2.79 0 0 1 .9-1 4.14 4.14 0 0 1 1.32-.56 6.65 6.65 0 0 1 1.58-.18 9 9 0 0 1 1.45.1 5.89 5.89 0 0 1 1.17.3v2.19a3.6 3.6 0 0 0-.58-.32 4.41 4.41 0 0 0-.64-.23 5.42 5.42 0 0 0-.65-.14 4.59 4.59 0 0 0-.62 0 2.77 2.77 0 0 0-.73.08 1.93 1.93 0 0 0-.56.21 1.14 1.14 0 0 0-.35.34.8.8 0 0 0-.13.43.82.82 0 0 0 .14.47 1.68 1.68 0 0 0 .4.4 4.83 4.83 0 0 0 .62.37l.83.37a7.93 7.93 0 0 1 1.13.56 3.88 3.88 0 0 1 .86.67 2.64 2.64 0 0 1 .55.85 3 3 0 0 1 .19 1.12 3 3 0 0 1-.33 1.47 2.82 2.82 0 0 1-.91 1 3.86 3.86 0 0 1-1.33.53 7.48 7.48 0 0 1-1.6.16 9.63 9.63 0 0 1-1.64-.14 5.22 5.22 0 0 1-1.33-.47Zm15.31.2a5.4 5.4 0 0 0 .72.67 3.19 3.19 0 0 0 .69.42 3 3 0 0 0 .72.21 4.88 4.88 0 0 0 .79.06h.54l.28-.06.24-.08v2a4.32 4.32 0 0 1-.65.13 5.76 5.76 0 0 1-1 .07 3.81 3.81 0 0 1-1.32-.23 5 5 0 0 1-1.16-.65 9.24 9.24 0 0 1-1.07-.95l-1.08-1.25a4.74 4.74 0 0 1-1.95-.45 4.69 4.69 0 0 1-1.51-1.12 5.24 5.24 0 0 1-1-1.66 6 6 0 0 1-.34-2 5.64 5.64 0 0 1 1.44-4 5 5 0 0 1 3.84-1.54 4.71 4.71 0 0 1 3.62 1.48 5.39 5.39 0 0 1 1.39 3.87 5.93 5.93 0 0 1-.85 3.24 4.6 4.6 0 0 1-2.36 1.82Zm-1.88-8.44a2.41 2.41 0 0 0-2 .93 3.88 3.88 0 0 0-.73 2.47 3.83 3.83 0 0 0 .73 2.47 2.53 2.53 0 0 0 3.86 0 3.81 3.81 0 0 0 .72-2.46 4.08 4.08 0 0 0-.69-2.52 2.23 2.23 0 0 0-1.87-.91Zm13.09 8.64H159V95.33h2.37v8.59h3.89Z" style="fill:#706d6e"/>
</svg>
