<svg xmlns="http://www.w3.org/2000/svg" width="200" height="128"><defs><style>.cls-1{fill:#7fba00;}.cls-2,.cls-3{fill:#fff;}.cls-3{opacity:0.15;isolation:isolate;}.cls-4{fill:#59b4d9;}.cls-5{fill:#706d6e;}</style></defs><path class="cls-1" d="M100,73a5.07,5.07,0,0,1-3.56-1.51L74.51,49.56a5,5,0,0,1,0-7.12L96.39,20.56a4.94,4.94,0,0,1,7.11,0l22,22A4.9,4.9,0,0,1,127,46.11a5.06,5.06,0,0,1-1.51,3.55l-22,21.78A5.06,5.06,0,0,1,100,73"/><path class="cls-2" d="M105.05,39.08a8.22,8.22,0,0,1-5,1.72,8.32,8.32,0,1,1,5-1.72"/><path class="cls-3" d="M103.5,20.56a4.94,4.94,0,0,0-7.11,0L74.51,42.44a5,5,0,0,0,0,7.12L86.9,62l23.39-34.6Z"/><polygon class="cls-2" points="99.95 68.2 107.06 61.09 101.99 61.09 101.99 39.69 97.79 39.69 97.79 61.09 92.83 61.09 99.95 68.2"/><polygon class="cls-2" points="115.39 55.14 115.39 45.08 111.89 48.59 102.78 39.48 99.74 42.53 108.84 51.63 105.33 55.14 115.39 55.14"/><polygon class="cls-2" points="84.52 55.18 94.58 55.18 91.07 51.67 100.43 42.32 97.38 39.27 88.02 48.62 84.52 45.12 84.52 55.18"/><path class="cls-4" d="M104.38,38.21a7.21,7.21,0,1,1,1.34-10.1,7.14,7.14,0,0,1-1.34,10.1"/><path class="cls-2" d="M103.06,33.75a1.55,1.55,0,0,0,2.17.29l.1-.09c.69.49,1.17.81,1.45,1,.08-.21.13-.41.19-.62-.29-.21-.68-.51-1.24-1a1.52,1.52,0,0,0-.21-1.49,1.55,1.55,0,0,0-2-.4c-.73-.65-1.54-1.41-2.39-2.26A8.48,8.48,0,0,1,105.65,28a7,7,0,0,0-1-1.06,7.63,7.63,0,0,0-4.83.89h0q-1-1-2-2.22a5.68,5.68,0,0,0-1,.39,16.33,16.33,0,0,0,2,2.47h0a13.43,13.43,0,0,0-2,1.74l-.25.27a2.07,2.07,0,0,0-1.18.08,5.18,5.18,0,0,1-.5-3.13,7,7,0,0,0-.78.95,4.58,4.58,0,0,0,.29,2.91,2.16,2.16,0,0,0,0,2.64l.16.18a10.42,10.42,0,0,0-.42,2.53c.06.09.06.17.13.26a7.66,7.66,0,0,0,1.2,1.15,8,8,0,0,1,.5-3.28,2,2,0,0,0,1-.16l.58.49a11.91,11.91,0,0,0,2.11,1.34,1.42,1.42,0,0,0,2.29,1.28,1.52,1.52,0,0,0,.32-.35,12.9,12.9,0,0,0,2.83.3,5.56,5.56,0,0,0,.92-1.14,7.72,7.72,0,0,1-3.55-.24,1.32,1.32,0,0,0-.26-.58,1.43,1.43,0,0,0-1.91-.32,13.14,13.14,0,0,1-1.94-1.3c-.14-.1-.27-.21-.4-.32A2.15,2.15,0,0,0,98,31.59l.26-.24a14.42,14.42,0,0,1,1.88-1.52l-.07-.07.07.06h0c.9.84,1.85,1.63,2.75,2.33A1.55,1.55,0,0,0,103.06,33.75Z"/><path class="cls-5" d="M90.6,89.34H89.24l-1.11-3H83.67l-1,3H81.26l4-10.51h1.27Zm-2.87-4-1.65-4.48a3.34,3.34,0,0,1-.16-.7h0a4.22,4.22,0,0,1-.17.7l-1.64,4.48Zm9.49-3.11-4.44,6.13h4.39v1H91V89l4.44-6.1h-4v-1h5.79Zm7.61,7.16h-1.2V88.15h0a2.45,2.45,0,0,1-2.31,1.36c-1.79,0-2.68-1.06-2.68-3.19V81.84H99.8v4.29c0,1.58.61,2.37,1.82,2.37a1.82,1.82,0,0,0,1.45-.65,2.5,2.5,0,0,0,.56-1.69V81.84h1.2Zm6.34-6.29a1.47,1.47,0,0,0-.91-.24,1.51,1.51,0,0,0-1.28.73,3.29,3.29,0,0,0-.52,2v3.83h-1.2v-7.5h1.2v1.54h0a2.61,2.61,0,0,1,.78-1.23,1.77,1.77,0,0,1,1.18-.44,2,2,0,0,1,.72.1Zm7.13,2.84H113a2.8,2.8,0,0,0,.67,1.93,2.3,2.3,0,0,0,1.77.68,3.69,3.69,0,0,0,2.33-.83V88.8a4.41,4.41,0,0,1-2.61.71,3.18,3.18,0,0,1-2.5-1,4.2,4.2,0,0,1-.91-2.87,4.09,4.09,0,0,1,1-2.86,3.19,3.19,0,0,1,2.46-1.1,2.84,2.84,0,0,1,2.28,1,4,4,0,0,1,.8,2.65Zm-1.23-1a2.43,2.43,0,0,0-.5-1.62,1.73,1.73,0,0,0-1.37-.58,1.94,1.94,0,0,0-1.44.61,2.81,2.81,0,0,0-.74,1.59ZM37.36,105.62H34.78L34,103.28H30.3l-.74,2.34H27l3.83-10.51h2.8Zm-3.87-4.16-1.13-3.53a4.53,4.53,0,0,1-.17-.94h-.06a4.1,4.1,0,0,1-.19.91l-1.14,3.56Zm7.29,3.29h0v4.32H38.44V98.12h2.31v1.12h0a3,3,0,0,1,4.67-.31,4.27,4.27,0,0,1,.79,2.72,4.59,4.59,0,0,1-.93,3,3,3,0,0,1-2.46,1.14A2.36,2.36,0,0,1,40.78,104.75Zm-.06-3.08v.6a1.88,1.88,0,0,0,.41,1.27,1.34,1.34,0,0,0,1.07.49,1.44,1.44,0,0,0,1.23-.61,3,3,0,0,0,.44-1.74c0-1.32-.52-2-1.54-2a1.44,1.44,0,0,0-1.16.53A2.17,2.17,0,0,0,40.72,101.67Zm9.37,3.08h0v4.32H47.74V98.12h2.32v1.12h0a2.94,2.94,0,0,1,4.66-.31,4.27,4.27,0,0,1,.79,2.72,4.64,4.64,0,0,1-.92,3,3,3,0,0,1-2.47,1.14A2.33,2.33,0,0,1,50.09,104.75ZM50,101.67v.6a1.94,1.94,0,0,0,.41,1.27,1.35,1.35,0,0,0,1.08.49,1.43,1.43,0,0,0,1.22-.61,3,3,0,0,0,.44-1.74c0-1.32-.51-2-1.54-2a1.44,1.44,0,0,0-1.16.53A2.17,2.17,0,0,0,50,101.67Zm9.34,4H57V94.51h2.32Zm3.12-8.69a1.37,1.37,0,0,1-1-.35,1.1,1.1,0,0,1-.37-.85,1.07,1.07,0,0,1,.37-.85,1.56,1.56,0,0,1,1.92,0,1.07,1.07,0,0,1,.37.85,1.09,1.09,0,0,1-.37.86A1.36,1.36,0,0,1,62.48,96.93Zm1.14,8.69H61.31v-7.5h2.31Zm7.63-.28a4.46,4.46,0,0,1-2.26.46,3.83,3.83,0,0,1-2.8-1,3.63,3.63,0,0,1-1.07-2.7,3.94,3.94,0,0,1,1.15-3,4.2,4.2,0,0,1,3.06-1.11,4,4,0,0,1,1.92.35v2a2.63,2.63,0,0,0-1.62-.54,2.1,2.1,0,0,0-1.57.58,2.17,2.17,0,0,0-.59,1.61,2.14,2.14,0,0,0,.56,1.56,2,2,0,0,0,1.53.57,3,3,0,0,0,1.69-.54Zm7.76.28H76.82v-1.08h0a2.44,2.44,0,0,1-2.23,1.26,2.35,2.35,0,0,1-1.72-.62,2.2,2.2,0,0,1-.63-1.65c0-1.46.86-2.3,2.59-2.52l2-.27c0-.82-.44-1.23-1.33-1.23a4.51,4.51,0,0,0-2.55.8V98.56a6.12,6.12,0,0,1,1.32-.44,7.42,7.42,0,0,1,1.53-.19q3.21,0,3.21,3.2Zm-2.18-3.05v-.51l-1.36.18c-.75.1-1.13.44-1.13,1a.87.87,0,0,0,.28.65,1.08,1.08,0,0,0,.74.25,1.35,1.35,0,0,0,1.06-.45A1.6,1.6,0,0,0,76.83,102.57Zm8.54,3a3.4,3.4,0,0,1-1.54.27c-1.63,0-2.45-.85-2.45-2.54V99.82H80.17v-1.7h1.21V96.5l2.31-.66v2.28h1.68v1.7H83.69v3c0,.79.31,1.18.93,1.18a1.49,1.49,0,0,0,.75-.22Zm2.48-8.6a1.37,1.37,0,0,1-1-.35,1.1,1.1,0,0,1-.37-.85,1.07,1.07,0,0,1,.37-.85,1.4,1.4,0,0,1,1-.33,1.38,1.38,0,0,1,1,.33,1.07,1.07,0,0,1,.37.85,1.09,1.09,0,0,1-.37.86A1.34,1.34,0,0,1,87.85,96.93ZM89,105.62H86.68v-7.5H89Zm5.52.18a4,4,0,0,1-2.94-1,4.33,4.33,0,0,1,0-5.77,4.2,4.2,0,0,1,3-1,4,4,0,0,1,2.93,1,3.77,3.77,0,0,1,1.06,2.78,4,4,0,0,1-1.1,3A4.09,4.09,0,0,1,94.51,105.8Zm.06-6.09a1.53,1.53,0,0,0-1.27.56,2.52,2.52,0,0,0-.46,1.6c0,1.44.59,2.16,1.75,2.16s1.66-.74,1.66-2.22S95.69,99.71,94.57,99.71Zm12.78,5.91h-2.3v-4.17c0-1.16-.42-1.74-1.25-1.74a1.23,1.23,0,0,0-1,.46,1.74,1.74,0,0,0-.39,1.17v4.28h-2.31v-7.5h2.31V99.3h0a2.67,2.67,0,0,1,2.41-1.37q2.49,0,2.49,3.09Zm14.82-.71a7.55,7.55,0,0,1-3.82.89,5.57,5.57,0,0,1-4-1.4,5.14,5.14,0,0,1-1.46-3.87,5.36,5.36,0,0,1,1.6-4,5.81,5.81,0,0,1,4.25-1.56,8.56,8.56,0,0,1,2.94.46v2.22a5.83,5.83,0,0,0-3-.7,3.16,3.16,0,0,0-2.4,1,3.51,3.51,0,0,0-.93,2.55,3.55,3.55,0,0,0,.83,2.51,2.94,2.94,0,0,0,2.25.88,3.12,3.12,0,0,0,1.34-.24v-2h-2.1V99.63h4.47Zm8.06.71H128v-1.08h0a2.46,2.46,0,0,1-2.24,1.26,2.33,2.33,0,0,1-1.71-.62,2.2,2.2,0,0,1-.63-1.65c0-1.46.86-2.3,2.59-2.52l2-.27c0-.82-.44-1.23-1.33-1.23a4.51,4.51,0,0,0-2.55.8V98.56a6.12,6.12,0,0,1,1.32-.44,7.42,7.42,0,0,1,1.53-.19q3.21,0,3.21,3.2Zm-2.18-3.05v-.51l-1.36.18c-.75.1-1.13.44-1.13,1a.83.83,0,0,0,.28.65,1.08,1.08,0,0,0,.74.25,1.37,1.37,0,0,0,1.06-.45A1.6,1.6,0,0,0,128.05,102.57Zm8.54,3a3.43,3.43,0,0,1-1.54.27c-1.63,0-2.45-.85-2.45-2.54V99.82h-1.22v-1.7h1.22V96.5l2.31-.66v2.28h1.68v1.7h-1.68v3c0,.79.31,1.18.93,1.18a1.49,1.49,0,0,0,.75-.22Zm8-3h-4.9c.08,1.08.77,1.63,2.06,1.63a4,4,0,0,0,2.18-.59v1.67a5.77,5.77,0,0,1-2.71.56,3.49,3.49,0,0,1-3.82-3.82,4,4,0,0,1,1.08-3,3.67,3.67,0,0,1,2.67-1.09,3.29,3.29,0,0,1,2.54,1,3.74,3.74,0,0,1,.9,2.64Zm-2.15-1.43c0-1.07-.44-1.61-1.3-1.61a1.27,1.27,0,0,0-1,.46,2.14,2.14,0,0,0-.49,1.15Zm14.38-3-2.16,7.5h-2.43l-1.1-4.4a4,4,0,0,1-.13-1h0a7,7,0,0,1-.15.93l-1.19,4.43h-2.4l-2.11-7.5h2.35l1,4.89a7.34,7.34,0,0,1,.11.83h0a4.48,4.48,0,0,1,.13-.86l1.29-4.86h2.21l1.15,4.89a6.93,6.93,0,0,1,.11.85h.05a8.24,8.24,0,0,1,.11-.85l1-4.89Zm7.34,7.5H162v-1.08h0a2.43,2.43,0,0,1-2.23,1.26,2.35,2.35,0,0,1-1.72-.62,2.19,2.19,0,0,1-.62-1.65q0-2.19,2.58-2.52l2-.27c0-.82-.45-1.23-1.34-1.23a4.46,4.46,0,0,0-2.54.8V98.56a6.12,6.12,0,0,1,1.32-.44,7.41,7.41,0,0,1,1.52-.19q3.21,0,3.21,3.2ZM162,102.57v-.51l-1.36.18c-.76.1-1.13.44-1.13,1a.86.86,0,0,0,.27.65,1.11,1.11,0,0,0,.75.25,1.38,1.38,0,0,0,1.06-.45A1.64,1.64,0,0,0,162,102.57Zm11.14-4.45-3,8.1c-.73,2-1.84,2.92-3.31,2.92a4.2,4.2,0,0,1-1.39-.19V107.1a2,2,0,0,0,1,.27,1.25,1.25,0,0,0,1.24-.84l.4-.93L165,98.12h2.56l1.4,4.56a5.82,5.82,0,0,1,.21,1h0a6.35,6.35,0,0,1,.24-1l1.41-4.57Z"/></svg>