<?xml version="1.0" encoding="utf-8"?>
<!-- Generator: Adobe Illustrator 21.1.0, SVG Export Plug-In . SVG Version: 6.00 Build 0)  -->
<svg version="1.1" id="Layer_1" xmlns="http://www.w3.org/2000/svg" xmlns:xlink="http://www.w3.org/1999/xlink" x="0px" y="0px"
	 viewBox="0 0 160 180" style="enable-background:new 0 0 160 180;" xml:space="preserve">
<style type="text/css">
	.st0{fill:#0078D7;}
	.st1{fill:none;}
	.st2{fill:#FFFFFF;}
	.st3{fill:#606060;}
</style>
<title>azure-sql-database-logo</title>
<g>
	<g id="paths_1_">
		<g id="Storage_blob_1_">
			<polygon class="st0" points="106.8,0 53.4,0 26.7,46.5 53.4,93.3 106.8,93.3 133.3,46.5 			"/>
		</g>
	</g>
	<g>
		<path class="st1" d="M86,43.4c2,0,3.2-2.4,3.2-6.4s-1-6.1-3.2-6.1c-2,0-3.2,2.2-3.2,6.4l0,0C83.1,41.2,84.3,43.4,86,43.4z"/>
		<path class="st1" d="M72.3,53.7c-2,0-3.2,2.2-3.2,6.4c0,3.9,1.2,6.1,3.2,6.1s3.2-2.4,3.2-6.4C75.5,56.1,74.2,53.7,72.3,53.7z"/>
		<path class="st1" d="M95.1,23.8H59.5h-0.2c-2,0-3.2,1.7-3.2,3.4v42.4v0.2c0,2,1.7,3.2,3.4,3.2h40.7c2,0,3.4-1.7,3.4-3.4V34.1h-8.6
			V23.8z M86.2,28.9c3.2,0,5.1,2.9,5.1,7.8c0,5.4-2,8.1-5.4,8.1c-2.9,0-5.1-2.7-5.1-8.1C80.9,31.8,83.1,28.9,86.2,28.9z M72,67.9
			c-2.9,0-5.1-2.7-5.1-8.1c0-5.1,2.2-8.1,5.4-8.1c3.2,0,5.1,2.9,5.1,7.8C77.4,65.2,75.5,67.9,72,67.9z M78.4,45.1h-10v-2h4.2v-12
			l-3.9,2l-1-2l5.1-2.7h2v14.2h3.7V45.1z M81.1,67.1v-2h4.2v-12l-3.9,2l-0.7-2l5.1-2.7h2v14.2h3.7v2L81.1,67.1L81.1,67.1z"/>
		<path class="st2" d="M72.5,52.2c-3.2,0-5.4,2.9-5.4,8.1c0,5.1,2,8.1,5.1,8.1c3.4,0,5.4-2.9,5.4-8.1C77.7,55.1,75.5,52.2,72.5,52.2
			z M72.3,66.4c-2,0-3.2-2.2-3.2-6.1c0-4.2,1.5-6.4,3.2-6.4c2,0,3.2,2.2,3.2,6.1S74,66.4,72.3,66.4z"/>
		<path class="st2" d="M86,45.1c3.4,0,5.4-2.9,5.4-8.1c0-4.9-2-7.8-5.1-7.8c-3.2,0-5.4,2.9-5.4,8.1C80.9,42.1,83.1,45.1,86,45.1z
			 M83.1,37c0-4.2,1.5-6.4,3.2-6.4c2,0,3.2,2.2,3.2,6.1s-1.2,6.4-3.2,6.4S83.1,41.2,83.1,37L83.1,37z"/>
		<polygon class="st2" points="75,28.7 73,28.7 67.9,31.4 68.9,33.3 72.5,31.1 72.5,42.9 68.4,42.9 68.4,45.1 78.4,45.1 78.4,42.9 
			75,42.9 		"/>
		<polygon class="st2" points="87.7,65.2 87.7,51 85.8,51 80.6,53.4 81.3,55.4 85.3,53.2 85.3,65.2 81.1,65.2 81.1,67.1 91.4,67.1 
			91.4,65.2 		"/>
		<path class="st2" d="M95.6,20.3H59.8c-3.9,0-7.1,3.2-7.3,7.1v41.4c0,3.9,3.2,7.1,7.3,7.1h39.7c3.9,0,7.1-3.2,7.3-7.1V31.4
			L95.6,20.3z M103.4,69.6c0,2-1.7,3.4-3.4,3.4H59.3c-2,0-3.2-1.5-3.4-3.2v-0.2V27.2c0-2,1.5-3.2,3.2-3.4h0.2h35.5v10h8.6V69.6z"/>
	</g>
</g>
<g>
	<path class="st3" d="M21.9,134.1h-4.1l-2-5.7H7l-1.9,5.7H1l8.4-22.4h4.2L21.9,134.1z M14.9,125.3l-3.1-8.9
		c-0.1-0.3-0.2-0.8-0.3-1.4h-0.1c-0.1,0.6-0.2,1.1-0.3,1.4L8,125.3H14.9z"/>
	<path class="st3" d="M36.4,119.6l-8.6,11.7h8.6v2.8H22.7v-1.4l8.8-11.8h-8v-2.8h12.9V119.6z"/>
	<path class="st3" d="M53.4,134.1h-3.6v-2.5h-0.1c-1.1,1.9-2.7,2.9-4.9,2.9c-3.8,0-5.7-2.3-5.7-6.8v-9.6h3.6v9.2
		c0,2.9,1.1,4.3,3.3,4.3c1.1,0,2-0.4,2.6-1.2c0.7-0.8,1-1.8,1-3.1v-9.2h3.6V134.1z"/>
	<path class="st3" d="M67.4,121.5c-0.4-0.3-1.1-0.5-1.9-0.5c-1.1,0-2,0.5-2.7,1.5s-1.1,2.3-1.1,4v7.7h-3.6v-16h3.6v3.3h0.1
		c0.4-1.1,0.9-2,1.6-2.6c0.7-0.6,1.6-0.9,2.5-0.9c0.7,0,1.2,0.1,1.5,0.3V121.5z"/>
	<path class="st3" d="M83.3,127.1H72.4c0,1.5,0.5,2.6,1.4,3.4c0.9,0.8,2.1,1.2,3.6,1.2c1.7,0,3.3-0.5,4.7-1.5v2.9
		c-1.5,0.9-3.4,1.4-5.8,1.4c-2.4,0-4.2-0.7-5.5-2.2c-1.3-1.5-2-3.5-2-6.1c0-2.5,0.7-4.5,2.2-6.1c1.5-1.6,3.3-2.4,5.5-2.4
		s3.9,0.7,5.1,2.1c1.2,1.4,1.8,3.4,1.8,5.9V127.1z M79.8,124.5c0-1.3-0.3-2.3-0.9-3c-0.6-0.7-1.4-1.1-2.5-1.1c-1,0-1.9,0.4-2.6,1.1
		c-0.7,0.8-1.2,1.8-1.3,3H79.8z"/>
	<path class="st3" d="M95.9,134.1v-22.4h7.1c2.2,0,3.9,0.5,5.1,1.4c1.3,0.9,1.9,2.2,1.9,3.7c0,1.3-0.4,2.4-1.1,3.3s-1.7,1.6-3,2v0.1
		c1.5,0.2,2.8,0.7,3.7,1.7c0.9,1,1.4,2.2,1.4,3.8c0,1.9-0.8,3.5-2.3,4.7c-1.5,1.2-3.4,1.8-5.7,1.8H95.9z M99.6,114.6v6.4h2.4
		c1.3,0,2.3-0.3,3-0.9s1.1-1.5,1.1-2.6c0-1.9-1.3-2.9-3.8-2.9H99.6z M99.6,124v7.1h3.2c1.4,0,2.5-0.3,3.2-1c0.8-0.6,1.1-1.5,1.1-2.6
		c0-2.3-1.6-3.5-4.8-3.5H99.6z"/>
	<path class="st3" d="M118.5,134.1h-3.6v-23.7h3.6V134.1z"/>
	<path class="st3" d="M130.3,134.4c-2.5,0-4.4-0.7-5.9-2.2c-1.5-1.5-2.2-3.5-2.2-5.9c0-2.7,0.8-4.8,2.3-6.3c1.5-1.5,3.6-2.3,6.2-2.3
		c2.5,0,4.4,0.7,5.8,2.2c1.4,1.5,2.1,3.5,2.1,6.1c0,2.6-0.8,4.6-2.3,6.1C134.9,133.7,132.8,134.4,130.3,134.4z M130.5,120.6
		c-1.4,0-2.5,0.5-3.4,1.5c-0.8,1-1.2,2.4-1.2,4.1c0,1.7,0.4,3,1.3,4c0.8,1,1.9,1.4,3.3,1.4c1.4,0,2.5-0.5,3.3-1.4
		c0.8-0.9,1.1-2.3,1.1-4c0-1.8-0.4-3.1-1.1-4.1C133,121.1,131.9,120.6,130.5,120.6z"/>
	<path class="st3" d="M146,131.8L146,131.8l-0.1,2.3h-3.6v-23.7h3.6v10.5h0.1c1.2-2.1,3.1-3.2,5.4-3.2c2,0,3.6,0.7,4.7,2.1
		c1.1,1.4,1.7,3.4,1.7,5.8c0,2.7-0.6,4.8-1.9,6.4s-3,2.4-5.3,2.4C148.6,134.4,147.1,133.5,146,131.8z M145.9,125.4v2
		c0,1.2,0.4,2.2,1.1,3c0.7,0.8,1.7,1.2,2.8,1.2c1.3,0,2.4-0.5,3.2-1.6s1.1-2.5,1.1-4.4c0-1.6-0.4-2.8-1.1-3.7
		c-0.7-0.9-1.7-1.3-2.9-1.3c-1.3,0-2.3,0.5-3.1,1.4C146.3,122.9,145.9,124,145.9,125.4z"/>
	<path class="st3" d="M25.8,171.6v-3.8c0.3,0.3,0.8,0.6,1.2,0.8c0.5,0.3,1,0.5,1.5,0.6s1.1,0.3,1.6,0.4s1,0.1,1.5,0.1
		c1.6,0,2.7-0.3,3.5-0.8c0.8-0.5,1.1-1.3,1.1-2.3c0-0.5-0.1-1-0.4-1.4c-0.3-0.4-0.6-0.7-1.1-1.1c-0.5-0.3-1-0.6-1.6-0.9
		c-0.6-0.3-1.3-0.6-2-0.9c-0.8-0.4-1.5-0.8-2.1-1.2c-0.7-0.4-1.2-0.9-1.7-1.4c-0.5-0.5-0.9-1.1-1.1-1.7c-0.3-0.6-0.4-1.4-0.4-2.2
		c0-1.1,0.2-2,0.7-2.7c0.5-0.8,1.1-1.4,1.9-1.9c0.8-0.5,1.7-0.9,2.6-1.1c1-0.2,2-0.4,3-0.4c2.3,0,4.1,0.3,5.1,0.8v3.7
		c-1.3-0.9-2.9-1.4-4.9-1.4c-0.6,0-1.1,0.1-1.6,0.2c-0.5,0.1-1,0.3-1.5,0.5c-0.4,0.2-0.8,0.5-1.1,0.9c-0.3,0.4-0.4,0.8-0.4,1.4
		c0,0.5,0.1,0.9,0.3,1.3c0.2,0.4,0.5,0.7,0.9,1c0.4,0.3,0.9,0.6,1.5,0.9c0.6,0.3,1.2,0.6,2,0.9c0.8,0.4,1.5,0.8,2.2,1.3
		c0.7,0.4,1.3,0.9,1.8,1.5c0.5,0.5,0.9,1.1,1.3,1.8c0.3,0.7,0.5,1.4,0.5,2.3c0,1.1-0.2,2.1-0.7,2.9c-0.5,0.8-1.1,1.4-1.9,1.9
		c-0.8,0.5-1.7,0.8-2.7,1.1c-1,0.2-2.1,0.3-3.2,0.3c-0.4,0-0.8,0-1.4-0.1c-0.5-0.1-1.1-0.1-1.7-0.3c-0.6-0.1-1.1-0.2-1.6-0.4
		C26.6,172,26.1,171.8,25.8,171.6z"/>
	<path class="st3" d="M51.4,172.3c-0.7,0.4-1.6,0.5-2.8,0.5c-3.1,0-4.7-1.5-4.7-4.5v-9h-2.7v-2.8h2.7v-3.7l3.6-1v4.7h3.8v2.8h-3.8v8
		c0,0.9,0.2,1.6,0.5,2s0.9,0.6,1.7,0.6c0.6,0,1.1-0.2,1.6-0.5V172.3z"/>
	<path class="st3" d="M61.4,172.8c-2.5,0-4.4-0.7-5.9-2.2c-1.5-1.5-2.2-3.5-2.2-5.9c0-2.7,0.8-4.8,2.3-6.3c1.5-1.5,3.6-2.3,6.2-2.3
		c2.5,0,4.4,0.7,5.8,2.2c1.4,1.5,2.1,3.5,2.1,6.1c0,2.6-0.8,4.6-2.3,6.1C66,172.1,64,172.8,61.4,172.8z M61.6,159
		c-1.4,0-2.5,0.5-3.4,1.5c-0.8,1-1.2,2.4-1.2,4.1c0,1.7,0.4,3,1.3,4c0.8,1,1.9,1.4,3.3,1.4c1.4,0,2.5-0.5,3.3-1.4
		c0.8-0.9,1.1-2.3,1.1-4c0-1.8-0.4-3.1-1.1-4.1C64.1,159.5,63,159,61.6,159z"/>
	<path class="st3" d="M82.7,159.9c-0.4-0.3-1.1-0.5-1.9-0.5c-1.1,0-2,0.5-2.7,1.5s-1.1,2.3-1.1,4v7.7h-3.6v-16h3.6v3.3h0.1
		c0.4-1.1,0.9-2,1.6-2.6c0.7-0.6,1.6-0.9,2.5-0.9c0.7,0,1.2,0.1,1.5,0.3V159.9z"/>
	<path class="st3" d="M97.6,172.5H94V170H94c-1.1,1.9-2.7,2.9-4.9,2.9c-1.6,0-2.8-0.4-3.7-1.3c-0.9-0.9-1.3-2-1.3-3.4
		c0-3,1.7-4.8,5.2-5.3l4.8-0.7c0-2.3-1.1-3.4-3.3-3.4c-1.9,0-3.6,0.7-5.2,2v-3.2c1.7-1,3.6-1.5,5.8-1.5c4,0,6.1,2,6.1,6V172.5z
		 M94.1,164.6l-3.4,0.5c-1,0.1-1.8,0.4-2.4,0.8c-0.5,0.4-0.8,1-0.8,1.9c0,0.7,0.2,1.2,0.7,1.7c0.5,0.4,1.1,0.6,1.9,0.6
		c1.1,0,2-0.4,2.7-1.2c0.7-0.8,1.1-1.8,1.1-2.9V164.6z"/>
	<path class="st3" d="M116.5,171.2c0,5.9-3,8.8-8.9,8.8c-2.1,0-3.9-0.3-5.5-1v-3.3c1.8,1,3.4,1.5,5,1.5c3.8,0,5.7-1.9,5.7-5.6v-1.8
		h-0.1c-1.2,2-3,3.1-5.4,3.1c-1.9,0-3.5-0.7-4.7-2.1c-1.2-1.4-1.8-3.3-1.8-5.7c0-2.7,0.6-4.9,1.9-6.5c1.3-1.6,3-2.4,5.3-2.4
		c2.1,0,3.7,0.9,4.7,2.6h0.1v-2.2h3.6V171.2z M113,165.1v-2.1c0-1.1-0.4-2.1-1.1-2.9c-0.7-0.8-1.7-1.2-2.8-1.2
		c-1.4,0-2.5,0.5-3.2,1.5c-0.8,1-1.2,2.4-1.2,4.3c0,1.6,0.4,2.8,1.1,3.8c0.7,0.9,1.7,1.4,3,1.4c1.3,0,2.3-0.5,3-1.4
		C112.6,167.7,113,166.5,113,165.1z"/>
	<path class="st3" d="M134.8,165.5h-10.9c0,1.5,0.5,2.6,1.4,3.4c0.9,0.8,2.1,1.2,3.6,1.2c1.7,0,3.3-0.5,4.7-1.5v2.9
		c-1.5,0.9-3.4,1.4-5.8,1.4c-2.4,0-4.2-0.7-5.5-2.2c-1.3-1.5-2-3.5-2-6.1c0-2.5,0.7-4.5,2.2-6.1c1.5-1.6,3.3-2.4,5.5-2.4
		s3.9,0.7,5.1,2.1c1.2,1.4,1.8,3.4,1.8,5.9V165.5z M131.3,162.9c0-1.3-0.3-2.3-0.9-3c-0.6-0.7-1.4-1.1-2.5-1.1c-1,0-1.9,0.4-2.6,1.1
		c-0.7,0.8-1.2,1.8-1.3,3H131.3z"/>
</g>
</svg>
