<svg xmlns="http://www.w3.org/2000/svg" width="200" height="128">
	<defs>
		<linearGradient id="a" x1="111.66" y1="62.33" x2="120.97" y2="53.02" gradientUnits="userSpaceOnUse">
			<stop offset="0" stop-color="#0a72a6"/>
			<stop offset="1" stop-color="#1694c6"/>
		</linearGradient>
		<linearGradient id="b" x1="100.02" y1="59.41" x2="100.02" y2="73" gradientUnits="userSpaceOnUse">
			<stop offset="0" stop-color="#1a4173"/>
			<stop offset="1" stop-color="#133a54"/>
		</linearGradient>
		<linearGradient id="c" x1="73.04" y1="68.31" x2="104.72" y2="36.63" gradientUnits="userSpaceOnUse">
			<stop offset="0" stop-color="#3aacda"/>
			<stop offset="1" stop-color="#188dca"/>
		</linearGradient>
		<linearGradient id="d" x1="100.03" y1="38.76" x2="100.03" y2="19" gradientUnits="userSpaceOnUse">
			<stop offset="0" stop-color="#0872a4"/>
			<stop offset="1" stop-color="#1594c5"/>
		</linearGradient>
	</defs>
	<path style="fill:url(#a)" d="m108.74 59.41-6.83-6.84 8.4-10.21 15.33 16.92-3.32 13.71-13.58-13.58z"/>
	<path style="fill:url(#b)" d="M122.32 72.99V73H77.73l11.56-13.59h19.45l13.58 13.58z"/>
	<path style="fill:url(#c)" d="M106.86 38.76 89.29 59.41 77.73 73l-3.37-13.51 18.85-20.73h13.65z"/>
	<path style="fill:url(#d)" d="M93.21 19h13.64v19.76H93.21z"/>
	<path d="M91.86 89.34h-1.18l-1-2.55h-3.83l-.91 2.55h-1.18l3.49-9.1h1.1Zm-2.5-3.51L87.93 82a5.32 5.32 0 0 1-.14-.61 2.85 2.85 0 0 1-.15.61l-1.41 3.88Zm8.23-2.69-3.85 5.31h3.81v.89h-5.34V89l3.85-5.28h-3.49v-.89h5Zm6.6 6.2h-1v-1a2.13 2.13 0 0 1-2 1.18c-1.55 0-2.33-.92-2.33-2.77v-3.91h1v3.72c0 1.37.52 2 1.57 2a1.59 1.59 0 0 0 1.26-.56 2.17 2.17 0 0 0 .49-1.47v-3.69h1Zm5.49-5.45a1.26 1.26 0 0 0-.79-.21 1.33 1.33 0 0 0-1.11.63 2.89 2.89 0 0 0-.45 1.71v3.32h-1v-6.5h1v1.34a2.2 2.2 0 0 1 .68-1.07 1.52 1.52 0 0 1 1-.39 1.66 1.66 0 0 1 .62.09Zm6.18 2.46h-4.59a2.44 2.44 0 0 0 .59 1.67 2 2 0 0 0 1.53.59 3.18 3.18 0 0 0 2-.72v1a3.78 3.78 0 0 1-2.26.62 2.74 2.74 0 0 1-2.13-.91 3.65 3.65 0 0 1-.79-2.49 3.53 3.53 0 0 1 .87-2.47 2.73 2.73 0 0 1 2.13-1 2.46 2.46 0 0 1 2 .82 3.46 3.46 0 0 1 .69 2.29Zm-1.06-.88a2.16 2.16 0 0 0-.44-1.41 1.48 1.48 0 0 0-1.19-.5 1.69 1.69 0 0 0-1.25.53 2.4 2.4 0 0 0-.63 1.38Zm-84.57 16.87h-2v-5.45c0-.59 0-1.24.08-2h-.05a9.45 9.45 0 0 1-.29 1.21l-2.13 6.19h-1.71L22 96.21a11.76 11.76 0 0 1-.28-1.27h-.06c.05.9.08 1.69.08 2.36v5h-1.89v-9.1h3l1.86 5.39a7.7 7.7 0 0 1 .32 1.3 11.41 11.41 0 0 1 .36-1.31l1.86-5.38h2.93Zm7.28 0h-1.9v-.94a2.11 2.11 0 0 1-1.93 1.1 2 2 0 0 1-1.49-.54 1.94 1.94 0 0 1-.54-1.43c0-1.26.74-2 2.24-2.18l1.76-.24c0-.71-.38-1.07-1.15-1.07a3.88 3.88 0 0 0-2.21.7v-1.52a5.2 5.2 0 0 1 1.14-.38 6.07 6.07 0 0 1 1.33-.16 2.45 2.45 0 0 1 2.78 2.77Zm-1.89-2.64v-.44l-1.18.15c-.65.09-1 .38-1 .88a.75.75 0 0 0 .24.57 1 1 0 0 0 .65.21 1.2 1.2 0 0 0 .92-.39 1.43 1.43 0 0 0 .37-.98Zm8.4 2.4a3.88 3.88 0 0 1-2 .4 3.35 3.35 0 0 1-2.43-.91 3.17 3.17 0 0 1-.92-2.34 3.47 3.47 0 0 1 1-2.62 3.7 3.7 0 0 1 2.66-.95A3.45 3.45 0 0 1 44 96v1.71a2.26 2.26 0 0 0-1.4-.48 1.84 1.84 0 0 0-1.37.51 2.17 2.17 0 0 0 0 2.75 1.75 1.75 0 0 0 1.32.49 2.69 2.69 0 0 0 1.47-.47Zm7.55.24h-2v-3.7c0-1-.34-1.43-1-1.43a1.07 1.07 0 0 0-.86.41 1.52 1.52 0 0 0-.33 1v3.71h-2v-9.62h2v4.09a2.26 2.26 0 0 1 2-1.12c1.47 0 2.2.89 2.2 2.67Zm2.61-7.53a1.16 1.16 0 0 1-.83-.3 1 1 0 0 1-.33-.74.94.94 0 0 1 .33-.74A1.37 1.37 0 0 1 55 93a.93.93 0 0 1 .32.74 1 1 0 0 1-.32.75 1.2 1.2 0 0 1-.82.32Zm1 7.53h-2v-6.5h2Zm8 0h-2v-3.61c0-1-.36-1.52-1.08-1.52a1.06 1.06 0 0 0-.85.41 1.47 1.47 0 0 0-.34 1v3.71h-2v-6.5h2v1A2.29 2.29 0 0 1 61 95.68c1.43 0 2.15.89 2.15 2.68Zm7.43-2.68h-4.29c.07.94.66 1.41 1.78 1.41a3.47 3.47 0 0 0 1.89-.5V102a4.84 4.84 0 0 1-2.34.49 3 3 0 0 1-3.32-3.31 3.53 3.53 0 0 1 .94-2.57 3.14 3.14 0 0 1 2.31-.94 2.85 2.85 0 0 1 2.2.84 3.26 3.26 0 0 1 .78 2.29Zm-1.91-1.23c0-.93-.38-1.4-1.13-1.4a1.05 1.05 0 0 0-.83.4 1.79 1.79 0 0 0-.43 1Zm12.3 3.91h-5.46v-9.1h2v7.43H81Zm6.87-2.68h-4.28c.06.94.66 1.41 1.78 1.41a3.46 3.46 0 0 0 1.88-.5V102a4.84 4.84 0 0 1-2.34.49 3 3 0 0 1-3.31-3.31 3.49 3.49 0 0 1 .94-2.57 3.11 3.11 0 0 1 2.31-.94 2.85 2.85 0 0 1 2.2.84 3.26 3.26 0 0 1 .78 2.29ZM86 98.43c0-.93-.38-1.4-1.13-1.4a1.07 1.07 0 0 0-.84.4 1.86 1.86 0 0 0-.43 1Zm8.46 3.91h-1.9v-.94a2.11 2.11 0 0 1-1.93 1.1 2 2 0 0 1-1.49-.54 1.94 1.94 0 0 1-.54-1.43c0-1.26.74-2 2.24-2.18l1.76-.24c0-.71-.38-1.07-1.15-1.07a3.88 3.88 0 0 0-2.21.7v-1.52a5.2 5.2 0 0 1 1.14-.38 6.07 6.07 0 0 1 1.33-.16 2.45 2.45 0 0 1 2.78 2.77Zm-1.92-2.64v-.44l-1.18.15c-.65.09-1 .38-1 .88a.75.75 0 0 0 .24.57 1 1 0 0 0 .65.21 1.2 1.2 0 0 0 .92-.39 1.43 1.43 0 0 0 .37-.98Zm7.71-2a1.74 1.74 0 0 0-.84-.2 1.2 1.2 0 0 0-1 .48 2.05 2.05 0 0 0-.37 1.3v3.11H96v-6.5h2V97a1.72 1.72 0 0 1 1.71-1.32 1.24 1.24 0 0 1 .49.08Zm7.25 4.69h-2v-3.66c0-1-.36-1.52-1.08-1.52a1.06 1.06 0 0 0-.85.41 1.47 1.47 0 0 0-.34 1v3.71h-2v-6.5h2v1a2.29 2.29 0 0 1 2.09-1.19c1.43 0 2.15.89 2.15 2.68Zm2.61-7.53a1.2 1.2 0 0 1-.84-.3 1 1 0 0 1-.32-.74 1 1 0 0 1 .32-.74 1.24 1.24 0 0 1 .84-.28 1.19 1.19 0 0 1 .83.28 1 1 0 0 1 .32.74 1 1 0 0 1-.32.75 1.2 1.2 0 0 1-.83.24Zm1 7.53h-2v-6.5h2Zm8 0h-2v-3.66c0-1-.36-1.52-1.08-1.52a1.06 1.06 0 0 0-.85.41 1.47 1.47 0 0 0-.34 1v3.71h-2v-6.5h2v1a2.29 2.29 0 0 1 2.08-1.19c1.44 0 2.16.89 2.16 2.68Zm8-.74a3.7 3.7 0 0 1-1 2.8 4.26 4.26 0 0 1-3 1 4.78 4.78 0 0 1-2.08-.37v-1.69a4 4 0 0 0 2 .58 2.22 2.22 0 0 0 1.58-.53 2 2 0 0 0 .56-1.46v-.52a2.24 2.24 0 0 1-2 1.1 2.44 2.44 0 0 1-2-.88 3.59 3.59 0 0 1-.73-2.35 4 4 0 0 1 .81-2.62 2.66 2.66 0 0 1 2.14-1 2 2 0 0 1 1.78.91v-.75h2Zm-2-2.39v-.56a1.59 1.59 0 0 0-.36-1 1.2 1.2 0 0 0-1-.44 1.22 1.22 0 0 0-1 .53 2.44 2.44 0 0 0-.38 1.46 2.1 2.1 0 0 0 .36 1.29 1.19 1.19 0 0 0 1 .47 1.23 1.23 0 0 0 1-.48 2 2 0 0 0 .27-1.32Zm7 2.78v-2a3.82 3.82 0 0 0 1.2.69 3.73 3.73 0 0 0 1.31.23 2.79 2.79 0 0 0 .68-.07 1.5 1.5 0 0 0 .48-.19.89.89 0 0 0 .29-.29.78.78 0 0 0 .09-.37.8.8 0 0 0-.15-.47 1.59 1.59 0 0 0-.42-.39 3.92 3.92 0 0 0-.62-.34l-.78-.34a4.11 4.11 0 0 1-1.59-1.08 2.39 2.39 0 0 1-.53-1.55 2.45 2.45 0 0 1 .29-1.22 2.36 2.36 0 0 1 .78-.85 3.44 3.44 0 0 1 1.14-.48 5.53 5.53 0 0 1 1.37-.16 7.93 7.93 0 0 1 1.26.09 5.15 5.15 0 0 1 1 .26v1.9a2.69 2.69 0 0 0-.5-.28 3.62 3.62 0 0 0-.55-.2 5.78 5.78 0 0 0-.57-.12h-.54a3.06 3.06 0 0 0-.63.06 1.78 1.78 0 0 0-.48.19.87.87 0 0 0-.31.29.7.7 0 0 0-.11.38.75.75 0 0 0 .12.41 1.42 1.42 0 0 0 .35.34 3.21 3.21 0 0 0 .54.32l.71.32a7.46 7.46 0 0 1 1 .48 3.73 3.73 0 0 1 .75.58 2.25 2.25 0 0 1 .48.74 3 3 0 0 1-.13 2.25 2.41 2.41 0 0 1-.78.84 3.69 3.69 0 0 1-1.15.46 6.89 6.89 0 0 1-1.39.14 8.17 8.17 0 0 1-1.43-.13 4.12 4.12 0 0 1-1.23-.48Zm13.35-2.33h-4.24c.07.94.66 1.41 1.79 1.41a3.46 3.46 0 0 0 1.88-.5V102a4.84 4.84 0 0 1-2.34.49 3 3 0 0 1-3.32-3.31 3.53 3.53 0 0 1 .94-2.57 3.14 3.14 0 0 1 2.31-.94 2.83 2.83 0 0 1 2.2.84 3.26 3.26 0 0 1 .78 2.29Zm-1.86-1.23c0-.93-.37-1.4-1.13-1.4a1.05 1.05 0 0 0-.83.4 1.79 1.79 0 0 0-.43 1Zm7.3-.78a1.81 1.81 0 0 0-.85-.2 1.2 1.2 0 0 0-1 .48 2.05 2.05 0 0 0-.37 1.3v3.11h-2v-6.5h2V97a1.72 1.72 0 0 1 1.71-1.32 1.34 1.34 0 0 1 .5.08Zm7.64-1.81-2.42 6.5h-2.29l-2.3-6.5h2.15l1.13 4A6.39 6.39 0 0 1 155 101a6.52 6.52 0 0 1 .24-1.12l1.15-4Zm1.87-1a1.16 1.16 0 0 1-.83-.3 1 1 0 0 1-.32-.74.93.93 0 0 1 .32-.74 1.37 1.37 0 0 1 1.66 0 .94.94 0 0 1 .33.74 1 1 0 0 1-.33.75 1.2 1.2 0 0 1-.88.21Zm1 7.53h-2v-6.5h2Zm6.61-.24a3.85 3.85 0 0 1-2 .4 3.33 3.33 0 0 1-2.42-.91 3.14 3.14 0 0 1-.93-2.34 3.44 3.44 0 0 1 1-2.62 3.68 3.68 0 0 1 2.65-.95A3.42 3.42 0 0 1 168 96v1.71a2.22 2.22 0 0 0-1.4-.48 1.86 1.86 0 0 0-1.37.51 1.91 1.91 0 0 0-.5 1.39 1.87 1.87 0 0 0 .48 1.36 1.77 1.77 0 0 0 1.33.49 2.63 2.63 0 0 0 1.46-.47Zm7.16-2.44h-4.24c.07.94.66 1.41 1.78 1.41a3.47 3.47 0 0 0 1.89-.5V102a4.84 4.84 0 0 1-2.34.49 3 3 0 0 1-3.32-3.31 3.49 3.49 0 0 1 .94-2.57 3.14 3.14 0 0 1 2.31-.94 2.85 2.85 0 0 1 2.2.84 3.26 3.26 0 0 1 .78 2.29Zm-1.86-1.23c0-.93-.38-1.4-1.13-1.4a1.09 1.09 0 0 0-.84.4 1.85 1.85 0 0 0-.42 1Zm2.63 3.74v-1.63a4.48 4.48 0 0 0 1 .45 3.56 3.56 0 0 0 .93.14 2.09 2.09 0 0 0 .84-.14.48.48 0 0 0 .31-.45.4.4 0 0 0-.14-.32 1.49 1.49 0 0 0-.36-.22 4.24 4.24 0 0 0-.47-.17l-.51-.17a4.78 4.78 0 0 1-.68-.32 1.93 1.93 0 0 1-.49-.38 1.53 1.53 0 0 1-.31-.52 2 2 0 0 1-.1-.69 1.84 1.84 0 0 1 .23-.94 2 2 0 0 1 .64-.64 2.85 2.85 0 0 1 .91-.37 4.59 4.59 0 0 1 1.06-.12 5.3 5.3 0 0 1 .88.07 5.42 5.42 0 0 1 .87.19v1.55a2.88 2.88 0 0 0-.81-.33 3.24 3.24 0 0 0-.86-.12 2.21 2.21 0 0 0-.37 0 1.41 1.41 0 0 0-.31.1.58.58 0 0 0-.21.17.4.4 0 0 0-.07.24.44.44 0 0 0 .11.3 1 1 0 0 0 .3.22 3.17 3.17 0 0 0 .41.17l.45.15a5.38 5.38 0 0 1 .72.3 2.32 2.32 0 0 1 .56.39 1.54 1.54 0 0 1 .35.52 1.91 1.91 0 0 1 .13.71 1.82 1.82 0 0 1-.26 1 1.9 1.9 0 0 1-.66.66 2.92 2.92 0 0 1-1 .38 5.22 5.22 0 0 1-1.13.12 5.79 5.79 0 0 1-2.02-.38Z" style="fill:#706d6e"/>
</svg>
