<svg xmlns="http://www.w3.org/2000/svg" width="200" height="128">
	<path d="M99.89 45.9C96.22 42.3 92.51 38.75 89 35c2.06-2 4.14-4.09 6.2-6.15q4.86-4.87 9.69-9.76h21.12c.31 0 .74-.27 1 .23-.36.31-.73.61-1.07.94L101.12 45c-.36.37-.63.88-1.23.9ZM114 27.58c0-.58-.41-.89-.77-1.25-2.66-2.71-2.34-2.71-5 0-1.11 1.14-1.11 1.48 0 2.65 2.53 2.56 2.54 2.56 5-.06.43-.38.84-.73.77-1.34ZM103.34 38.5a1.22 1.22 0 0 0 .41-.15 12.85 12.85 0 0 0 2.5-2.55 1 1 0 0 0-.13-1.32c-.68-.73-1.35-1.46-2.08-2.14a1.19 1.19 0 0 0-1.81 0c-.65.64-1.3 1.28-1.94 1.94a1.2 1.2 0 0 0 0 1.88c.64.66 1.3 1.29 1.94 2a1.27 1.27 0 0 0 1.11.34Z" style="fill:#59b4d8"/>
	<path d="M99.89 45.9c.6 0 .87-.53 1.23-.88l24.81-24.78c.34-.33.71-.63 1.07-.94v21.81L111.06 57a22.75 22.75 0 0 1-2.93-2.79c-2.76-2.75-5.49-5.54-8.24-8.31Zm18.45-7.41c.66.1 1-.4 1.39-.79 2.64-2.6 2.6-2.35.06-4.87-1.21-1.19-1.63-1.19-2.86 0-2.4 2.38-2.4 2.38 0 4.79.42.38.74.93 1.41.87Zm-10.82 4.35c-.06.68.45 1 .83 1.39 2.59 2.63 2.28 2.6 4.85 0 1.19-1.2 1.18-1.5 0-2.73-2.67-2.69-2.26-2.6-4.93 0-.41.42-.8.77-.75 1.34Z" style="fill:#7ac2df"/>
	<path d="M104.92 19.06q-4.85 4.88-9.69 9.76c-2.06 2.06-4.14 4.1-6.2 6.15l-15.68-15.6c-.07-.07-.07-.21-.11-.31Z" style="fill:#0178d3"/>
	<path d="M111.06 57 127 41.11v31.65a.76.76 0 0 1-.32-.11q-7.81-7.82-15.62-15.65Z" style="fill:#3393db"/>
	<path d="M73 69.16Q82.12 60.09 91.24 51c2.46-2.47 2.45-2.48 4.92 0 1.17 1.17 1.19 1.49 0 2.71L77.4 72.39c-.2.19-.37.41-.56.61h-.72L73 69.88Zm0-14.62c.86.89 1.73 1.76 2.59 2.66a1.07 1.07 0 0 0 1.75 0q5.88-5.9 11.79-11.77a1 1 0 0 0 0-1.55c-.77-.75-1.53-1.51-2.28-2.29a1 1 0 0 0-1.55 0l-1.74 1.81L73 53.82ZM92 73q6-6 12.11-12.09c.73-.72.76-1.31 0-2s-1.33-1.28-2-1.95a1 1 0 0 0-1.72 0q-5.83 5.86-11.71 11.68a1.07 1.07 0 0 0 0 1.81c.86.82 1.67 1.7 2.5 2.56Z" style="fill:#b7d330"/>
	<path d="M90.6 89.34h-1.36l-1.11-3h-4.46l-1 3h-1.41l4-10.51h1.27Zm-2.87-4-1.65-4.48a3.34 3.34 0 0 1-.16-.7 4.22 4.22 0 0 1-.17.7l-1.64 4.48Zm9.49-3.11-4.44 6.13h4.39v1H91V89l4.44-6.1h-4v-1h5.79Zm7.61 7.16h-1.2v-1.24a2.45 2.45 0 0 1-2.31 1.36c-1.79 0-2.68-1.06-2.68-3.19v-4.48h1.16v4.29c0 1.58.61 2.37 1.82 2.37a1.82 1.82 0 0 0 1.45-.65 2.5 2.5 0 0 0 .56-1.69v-4.32h1.2Zm6.34-6.29a1.47 1.47 0 0 0-.91-.24 1.51 1.51 0 0 0-1.28.73 3.29 3.29 0 0 0-.52 2v3.83h-1.2v-7.5h1.2v1.54a2.61 2.61 0 0 1 .78-1.23 1.77 1.77 0 0 1 1.18-.44 2 2 0 0 1 .72.1Zm7.13 2.84H113a2.8 2.8 0 0 0 .67 1.93 2.3 2.3 0 0 0 1.77.68 3.69 3.69 0 0 0 2.33-.83v1.08a4.41 4.41 0 0 1-2.61.71 3.18 3.18 0 0 1-2.5-1 4.2 4.2 0 0 1-.91-2.87 4.09 4.09 0 0 1 1-2.86 3.19 3.19 0 0 1 2.46-1.1 2.84 2.84 0 0 1 2.28 1 4 4 0 0 1 .8 2.65Zm-1.23-1a2.43 2.43 0 0 0-.5-1.62 1.73 1.73 0 0 0-1.37-.58 1.94 1.94 0 0 0-1.44.61 2.81 2.81 0 0 0-.74 1.59Zm-64 21V95.33h3.73q5.59 0 5.59 5.13a5.15 5.15 0 0 1-1.53 3.91 5.59 5.59 0 0 1-4.06 1.47Zm2.37-8.58v6.66h1.17a3.2 3.2 0 0 0 2.42-.92 3.54 3.54 0 0 0 .87-2.52 3.18 3.18 0 0 0-.87-2.36 3.32 3.32 0 0 0-2.43-.86Zm14.71 8.58H68v-1.08a2.45 2.45 0 0 1-2.27 1.14 2.33 2.33 0 0 1-1.73-.6 2.2 2.2 0 0 1-.63-1.65c0-1.45.86-2.29 2.59-2.52l2-.27c0-.82-.44-1.23-1.33-1.23a4.59 4.59 0 0 0-2.55.8v-1.74a5.19 5.19 0 0 1 1.32-.44 6.85 6.85 0 0 1 1.53-.2q3.21 0 3.21 3.21Zm-2.18-3v-.5l-1.36.17c-.75.1-1.13.44-1.13 1a.83.83 0 0 0 .28.65 1 1 0 0 0 .74.25 1.37 1.37 0 0 0 1.06-.45 1.6 1.6 0 0 0 .44-1.27Zm8.54 3A3.4 3.4 0 0 1 75 106c-1.63 0-2.45-.85-2.45-2.54V100h-1.21v-1.7h1.22v-1.58l2.31-.66v2.28h1.68V100h-1.68v3q0 1.17.93 1.17a1.58 1.58 0 0 0 .75-.21Zm7.55.09h-2.15v-1.08a2.46 2.46 0 0 1-2.27 1.05 2.33 2.33 0 0 1-1.71-.62 2.2 2.2 0 0 1-.63-1.65q0-2.18 2.58-2.52l2-.27c0-.82-.44-1.23-1.33-1.23a4.54 4.54 0 0 0-2.55.8v-1.72a5.19 5.19 0 0 1 1.32-.44 6.85 6.85 0 0 1 1.53-.2q3.21 0 3.21 3.21Zm-2.18-3v-.5l-1.36.17c-.75.1-1.13.44-1.13 1a.83.83 0 0 0 .28.65 1 1 0 0 0 .74.25 1.37 1.37 0 0 0 1.06-.45 1.64 1.64 0 0 0 .45-1.36Zm14.67 3h-6.3v-10.7h6.06v1.93h-3.65v2.34h3.43v1.92h-3.43v2.4h3.93Zm8.7-7.5-2.43 3.47 2.46 3.87h-2.67l-1.08-2a6 6 0 0 1-.32-.69 3.78 3.78 0 0 1-.3.66l-1.09 2h-2.69l2.54-3.74-2.38-3.76H100l1.07 2.1a5 5 0 0 1 .3.7 3.93 3.93 0 0 1 .31-.71l1.09-2.09Zm3.39 6.63v4.32h-2.32v-11h2.32v1.13a2.94 2.94 0 0 1 4.66-.32 4.28 4.28 0 0 1 .79 2.73 4.66 4.66 0 0 1-.92 3 3 3 0 0 1-2.47 1.13 2.33 2.33 0 0 1-2.02-1.15Zm-.07-3.08v.6a1.94 1.94 0 0 0 .41 1.27 1.35 1.35 0 0 0 1.08.49 1.43 1.43 0 0 0 1.22-.61 3 3 0 0 0 .44-1.74c0-1.31-.51-2-1.54-2a1.45 1.45 0 0 0-1.16.54 2.12 2.12 0 0 0-.41 1.26Zm9.34 4h-2.32V94.73H118Zm5.52.18a4 4 0 0 1-3-1 4.35 4.35 0 0 1 0-5.76 4.19 4.19 0 0 1 3-1.06 3.93 3.93 0 0 1 2.93 1.06 3.72 3.72 0 0 1 1.07 2.78 4 4 0 0 1-1.1 3 4.09 4.09 0 0 1-2.86.72Zm.06-6.09a1.54 1.54 0 0 0-1.27.56 2.46 2.46 0 0 0-.46 1.6q0 2.16 1.74 2.16c1.11 0 1.67-.74 1.67-2.22s-.52-2.34-1.64-2.34Zm10.43.5a1.91 1.91 0 0 0-1-.23 1.39 1.39 0 0 0-1.18.55 2.38 2.38 0 0 0-.43 1.51v3.58H129v-7.5h2.31v1.39a2 2 0 0 1 2-1.52 1.73 1.73 0 0 1 .57.08Zm7.76 2.32h-4.9c.08 1.09.77 1.63 2.06 1.63a4 4 0 0 0 2.18-.59v1.67a5.65 5.65 0 0 1-2.71.56 3.78 3.78 0 0 1-2.82-1 3.82 3.82 0 0 1-1-2.8 4 4 0 0 1 1.08-3 3.64 3.64 0 0 1 2.67-1.1 3.29 3.29 0 0 1 2.54 1 3.74 3.74 0 0 1 .9 2.64Zm-2.15-1.42c0-1.08-.43-1.62-1.3-1.62a1.26 1.26 0 0 0-1 .47 2.08 2.08 0 0 0-.49 1.15Zm8.42-.9a2 2 0 0 0-1-.23 1.41 1.41 0 0 0-1.18.55 2.44 2.44 0 0 0-.42 1.51v3.58h-2.32v-7.5h2.32v1.39a2 2 0 0 1 2-1.52 1.75 1.75 0 0 1 .58.08Z" style="fill:#706d6e"/>
</svg>
