<svg version="1.1" id="Layer_1" xmlns="http://www.w3.org/2000/svg" x="0" y="0" viewBox="0 0 885.2 250" style="enable-background:new 0 0 885.2 250" xml:space="preserve">
	<style>
		.st0{fill:#008ad7}
	</style>
	<switch>
		<g>
			<path class="st0" d="M485.3 222.5h-26.7l-13.3-36.3h-57.4l-12.3 36.3h-26.7l54.4-142.2h26.6l55.4 142.2zM439.1 167l-20.5-56.5c-.9-3-1.6-6-2-9.1-.5 3.1-1.1 6.1-2 9.1L395.1 167h44zm139.6-36.3-55.4 73.6h55.4v18.2h-88.3v-8.9l57.5-74.7h-51.3v-18.2h83.1v10h-1zm110.7 91.8h-23.6v-16.1c-6.2 11.7-18.6 18.7-31.8 18.2-24.6 0-36.9-14.1-36.9-43.4v-60.5h23.6v58.5c0 18.2 7.2 27.2 21.5 27.2 6.6.3 12.9-2.3 17.4-7.1 4.6-5.7 7.1-12.8 7.1-20.2v-58.4h23.6l-.9 101.8zm90.2-79.7c-3.7-2.2-8-3.2-12.3-3-7.1 0-12.3 3-17.4 9.1-5.1 6.1-7.1 14.2-7.1 25.2v48.4h-23.6V120.7h23.6v21.2c1.9-6.5 5.5-12.4 10.3-17.1 4.4-4 10.2-6.2 16.2-6.1 3.2 0 6.4.6 9.2 2l1.1 22.1zm104.6 35.3h-70.8c0 9.1 3.1 17.1 9.2 22.2 5.1 5 13.3 8.1 23.6 8.1 11.1.2 22-3.3 30.9-10.1v18.2c-9.3 6.1-21.6 9.1-37 9.1-13.4.5-26.4-4.7-35.9-14.2-9.2-9.1-13.3-22.2-13.3-39.3-.5-14.2 4.6-27.9 14.2-38.3 9.2-10 22.3-15.5 35.9-15.1 14.2 0 24.6 4 32.8 13.1s11.3 21.2 11.3 37.3l-.9 9zM861.7 162c0-8.1-2-15.1-6.1-19.2-4-4.9-10.1-7.6-16.4-7.1-6.6-.3-12.9 2.3-17.4 7.1-5.1 5-7.1 11.1-8.2 19.2h48.1z"/>
			<path class="st0" d="m199 37.7-47.4 95.5 83.5 96.7-155 17.6 240.4 2.5L199 37.7zM189.6 0 80.8 91.1 0 227.4l68.8-6.9L189.6 0z"/>
		</g>
	</switch>
</svg>
