<svg xmlns="http://www.w3.org/2000/svg" width="200" height="128">
	<linearGradient id="a" x1="88.2" y1="46.77" x2="105.28" y2="30.27" gradientUnits="userSpaceOnUse">
		<stop offset="0" stop-color="#3267ba"/>
		<stop offset=".21" stop-color="#3062b3"/>
		<stop offset=".53" stop-color="#2b569f"/>
		<stop offset=".9" stop-color="#22417f"/>
		<stop offset="1" stop-color="#203b75"/>
	</linearGradient>
	<linearGradient id="b" x1="104.65" y1="63.79" x2="107.67" y2="62.94" gradientUnits="userSpaceOnUse">
		<stop offset="0" stop-color="#3b76d2"/>
		<stop offset=".36" stop-color="#3871c9"/>
		<stop offset=".96" stop-color="#2f63b0"/>
		<stop offset="1" stop-color="#2e62ae"/>
	</linearGradient>
	<linearGradient id="c" x1="104.7" y1="23.4" x2="115.26" y2="68.98" gradientUnits="userSpaceOnUse">
		<stop offset="0" stop-color="#73c8f2"/>
		<stop offset=".26" stop-color="#6fc1f0"/>
		<stop offset=".62" stop-color="#64afe9"/>
		<stop offset="1" stop-color="#5595df"/>
	</linearGradient>
	<path d="M90.6 89.34h-1.36l-1.11-3h-4.46l-1 3h-1.41l4-10.51h1.27zm-2.87-4-1.65-4.48a3.34 3.34 0 0 1-.16-.7 4.22 4.22 0 0 1-.17.7l-1.64 4.48zm9.49-3.11-4.44 6.13h4.39v1H91V89l4.44-6.1h-4v-1h5.79zm7.61 7.16h-1.2v-1.24a2.45 2.45 0 0 1-2.31 1.36c-1.79 0-2.68-1.06-2.68-3.19v-4.48h1.16v4.29c0 1.58.61 2.37 1.82 2.37a1.82 1.82 0 0 0 1.45-.65 2.5 2.5 0 0 0 .56-1.69v-4.32h1.2zm6.34-6.29a1.47 1.47 0 0 0-.91-.24 1.51 1.51 0 0 0-1.28.73 3.29 3.29 0 0 0-.52 2v3.83h-1.2v-7.5h1.2v1.54a2.61 2.61 0 0 1 .78-1.23 1.77 1.77 0 0 1 1.18-.44 2 2 0 0 1 .72.1zm7.13 2.84H113a2.8 2.8 0 0 0 .67 1.93 2.3 2.3 0 0 0 1.77.68 3.69 3.69 0 0 0 2.33-.83v1.08a4.41 4.41 0 0 1-2.61.71 3.18 3.18 0 0 1-2.5-1 4.2 4.2 0 0 1-.91-2.87 4.09 4.09 0 0 1 1-2.86 3.19 3.19 0 0 1 2.46-1.1 2.84 2.84 0 0 1 2.28 1 4 4 0 0 1 .8 2.65zm-1.23-1a2.43 2.43 0 0 0-.5-1.62 1.73 1.73 0 0 0-1.37-.58 1.94 1.94 0 0 0-1.44.61 2.81 2.81 0 0 0-.74 1.59zm-71.18 16.35q0 4.72-4.41 4.73c-2.86 0-4.28-1.54-4.28-4.62v-6.07h2.37v6.1c0 1.7.67 2.55 2 2.55s2-.82 2-2.46v-6.19h2.37zm1.56 4.35v-1.87a4.76 4.76 0 0 0 1.14.51 3.9 3.9 0 0 0 1.08.17 2.34 2.34 0 0 0 1-.17.54.54 0 0 0 .35-.51.47.47 0 0 0-.16-.37 1.8 1.8 0 0 0-.41-.26 4.08 4.08 0 0 0-.56-.19l-.58-.2a6.35 6.35 0 0 1-.78-.37 2 2 0 0 1-.57-.45 1.62 1.62 0 0 1-.36-.59 2.36 2.36 0 0 1-.12-.8 2 2 0 0 1 .28-1.08 2.27 2.27 0 0 1 .73-.75 3.4 3.4 0 0 1 1-.42 5.43 5.43 0 0 1 1.22-.14 7.12 7.12 0 0 1 1 .08 7.35 7.35 0 0 1 1 .23v1.78a3.56 3.56 0 0 0-.95-.38 3.72 3.72 0 0 0-1-.13 2 2 0 0 0-.43 0 1.6 1.6 0 0 0-.35.12.62.62 0 0 0-.25.19.57.57 0 0 0-.08.28.49.49 0 0 0 .13.35 1.11 1.11 0 0 0 .34.25 2.67 2.67 0 0 0 .48.19l.51.18a5.44 5.44 0 0 1 .84.35 2.5 2.5 0 0 1 .64.44 2.21 2.21 0 0 1 .41.6 2.31 2.31 0 0 1 .14.82 2.14 2.14 0 0 1-.29 1.14 2.18 2.18 0 0 1-.77.77 3.73 3.73 0 0 1-1.1.44 6.23 6.23 0 0 1-1.3.13 6.85 6.85 0 0 1-2.23-.34zm13.33.2h-2.19v-1.08a2.43 2.43 0 0 1-2.26 1.24 2.35 2.35 0 0 1-1.72-.62 2.19 2.19 0 0 1-.62-1.65q0-2.18 2.58-2.52l2-.27c0-.82-.45-1.23-1.34-1.23a4.54 4.54 0 0 0-2.54.8v-1.72a5.19 5.19 0 0 1 1.32-.44 6.85 6.85 0 0 1 1.53-.2q3.2 0 3.2 3.21zm-2.17-3v-.5l-1.36.17c-.76.1-1.13.44-1.13 1a.86.86 0 0 0 .27.65 1.06 1.06 0 0 0 .75.25 1.38 1.38 0 0 0 1.06-.45 1.64 1.64 0 0 0 .41-1.17zM70 105a4.25 4.25 0 0 1-1.21 3.23 4.87 4.87 0 0 1-3.5 1.15 5.51 5.51 0 0 1-2.4-.43v-2a4.58 4.58 0 0 0 2.33.67A2.54 2.54 0 0 0 67 107a2.25 2.25 0 0 0 .64-1.69v-.59a2.57 2.57 0 0 1-2.35 1.28 2.82 2.82 0 0 1-2.29-1 4.1 4.1 0 0 1-.84-2.71 4.56 4.56 0 0 1 .93-3 3.07 3.07 0 0 1 2.47-1.13 2.27 2.27 0 0 1 2.05 1.06v-.87H70zm-2.29-2.75v-.59a1.82 1.82 0 0 0-.42-1.21 1.33 1.33 0 0 0-1.09-.5 1.41 1.41 0 0 0-1.21.6 2.83 2.83 0 0 0-.44 1.69 2.37 2.37 0 0 0 .42 1.48 1.34 1.34 0 0 0 1.14.55 1.44 1.44 0 0 0 1.16-.55 2.32 2.32 0 0 0 .41-1.49zm11 .52h-4.96c.08 1.09.76 1.63 2.06 1.63a3.92 3.92 0 0 0 2.17-.59v1.67a5.58 5.58 0 0 1-2.7.56 3.5 3.5 0 0 1-3.83-3.81 4 4 0 0 1 1.09-3 3.6 3.6 0 0 1 2.66-1.1 3.28 3.28 0 0 1 2.54 1 3.74 3.74 0 0 1 .9 2.64zm-2.15-1.42c0-1.08-.43-1.62-1.3-1.62a1.24 1.24 0 0 0-1 .47 2.09 2.09 0 0 0-.5 1.15zm13.91 4.51h-2.26v-1.08a2.46 2.46 0 0 1-2.27 1.22 2.35 2.35 0 0 1-1.72-.62 2.23 2.23 0 0 1-.62-1.65q0-2.18 2.58-2.52l2-.27c0-.82-.44-1.23-1.33-1.23a4.54 4.54 0 0 0-2.55.8v-1.72a5.19 5.19 0 0 1 1.32-.44 6.85 6.85 0 0 1 1.53-.2q3.21 0 3.21 3.21zm-2.18-3v-.5l-1.36.17c-.75.1-1.13.44-1.13 1a.86.86 0 0 0 .27.65 1.08 1.08 0 0 0 .75.25 1.37 1.37 0 0 0 1.06-.45 1.64 1.64 0 0 0 .34-1.19zm11.25 3h-2.38v-4.17c0-1.16-.41-1.74-1.24-1.74a1.23 1.23 0 0 0-1 .46 1.76 1.76 0 0 0-.39 1.17v4.28h-2.3v-7.5h2.31v1.18A2.65 2.65 0 0 1 97 98.15c1.66 0 2.49 1 2.49 3.1zm9.17 0h-2.31v-1A2.6 2.6 0 0 1 104 106a2.85 2.85 0 0 1-2.26-1 4.12 4.12 0 0 1-.86-2.77 4.46 4.46 0 0 1 1-3 3.07 3.07 0 0 1 2.47-1.13 2.11 2.11 0 0 1 2 1v-4.37h2.31zm-2.27-3.65v-.56a1.75 1.75 0 0 0-.43-1.22 1.5 1.5 0 0 0-2.3.12 2.8 2.8 0 0 0-.43 1.66 2.39 2.39 0 0 0 .41 1.52 1.48 1.48 0 0 0 2.31 0 2.36 2.36 0 0 0 .37-1.54zm15 3.45a5.4 5.4 0 0 0 .72.67 3.09 3.09 0 0 0 1.41.63 4.92 4.92 0 0 0 .8.06h.54l.27-.06.24-.08v2a4.15 4.15 0 0 1-.64.13 5.92 5.92 0 0 1-1 .07 3.73 3.73 0 0 1-1.32-.23 4.77 4.77 0 0 1-1.16-.65 8.55 8.55 0 0 1-1.08-.95l-1.17-1.25a4.81 4.81 0 0 1-2-.45 4.54 4.54 0 0 1-1.5-1.12 5.08 5.08 0 0 1-1-1.66 6.24 6.24 0 0 1-.34-2 5.64 5.64 0 0 1 1.44-4 5 5 0 0 1 3.84-1.54 4.71 4.71 0 0 1 3.62 1.48 5.39 5.39 0 0 1 1.39 3.87 5.93 5.93 0 0 1-.85 3.24 4.56 4.56 0 0 1-2.28 1.82zm-1.88-8.44a2.39 2.39 0 0 0-2 .93 4.52 4.52 0 0 0 0 4.94 2.54 2.54 0 0 0 3.87 0 3.87 3.87 0 0 0 .71-2.46 4.15 4.15 0 0 0-.68-2.52 2.25 2.25 0 0 0-1.97-.91zm13.74 8.64h-2.31v-1.16a2.61 2.61 0 0 1-2.29 1.32c-1.74 0-2.61-1-2.61-3.16v-4.52h2.31v4.32q0 1.59 1.26 1.59a1.25 1.25 0 0 0 1-.44 1.74 1.74 0 0 0 .37-1.18v-4.29h2.31zm5.52.18a4 4 0 0 1-2.95-1 4.35 4.35 0 0 1 0-5.76 4.17 4.17 0 0 1 3-1.06 4 4 0 0 1 2.93 1.06 3.72 3.72 0 0 1 1.06 2.78 4 4 0 0 1-1.09 3 4.09 4.09 0 0 1-3.02.94zm.06-6.09a1.57 1.57 0 0 0-1.28.56 2.52 2.52 0 0 0-.45 1.6q0 2.16 1.74 2.16c1.11 0 1.67-.74 1.67-2.22s-.63-2.12-1.75-2.12zm10.07 5.82a3.44 3.44 0 0 1-1.55.27c-1.63 0-2.44-.85-2.44-2.54V100h-1.22v-1.7h1.22v-1.58l2.3-.66v2.28h1.69V100h-1.69v3q0 1.17.93 1.17a1.59 1.59 0 0 0 .76-.21zm7.54.09h-2.19v-1.08A2.43 2.43 0 0 1 152 106a2.35 2.35 0 0 1-1.72-.62 2.19 2.19 0 0 1-.62-1.65q0-2.18 2.58-2.52l2-.27c0-.82-.45-1.23-1.34-1.23a4.54 4.54 0 0 0-2.54.8v-1.72a5.19 5.19 0 0 1 1.32-.44 6.84 6.84 0 0 1 1.52-.2q3.21 0 3.21 3.21zm-2.17-3v-.5l-1.36.17c-.76.1-1.13.44-1.13 1a.86.86 0 0 0 .27.65 1.06 1.06 0 0 0 .75.25 1.38 1.38 0 0 0 1.06-.45 1.64 1.64 0 0 0 .34-1.19zm3.51 2.85v-1.87a4.76 4.76 0 0 0 1.14.51 3.9 3.9 0 0 0 1.08.17 2.34 2.34 0 0 0 1-.17.54.54 0 0 0 .35-.51.47.47 0 0 0-.16-.37 1.8 1.8 0 0 0-.41-.26 4.08 4.08 0 0 0-.56-.19l-.58-.2a6.35 6.35 0 0 1-.78-.37 2 2 0 0 1-.57-.45 1.62 1.62 0 0 1-.36-.59 2.36 2.36 0 0 1-.12-.8 2 2 0 0 1 .28-1.08 2.27 2.27 0 0 1 .73-.75 3.4 3.4 0 0 1 1-.42 5.43 5.43 0 0 1 1.22-.14 7.12 7.12 0 0 1 1 .08 7.35 7.35 0 0 1 1 .23v1.78a3.56 3.56 0 0 0-.95-.38 3.72 3.72 0 0 0-1-.13 2 2 0 0 0-.43 0 1.6 1.6 0 0 0-.35.12.62.62 0 0 0-.25.19.57.57 0 0 0-.08.28.49.49 0 0 0 .13.35 1.11 1.11 0 0 0 .34.25 2.67 2.67 0 0 0 .48.19l.51.18a5.44 5.44 0 0 1 .84.35 2.5 2.5 0 0 1 .64.44 2 2 0 0 1 .41.6 2.31 2.31 0 0 1 .14.82 2.14 2.14 0 0 1-.29 1.14 2.18 2.18 0 0 1-.77.77 3.73 3.73 0 0 1-1.1.44 6.23 6.23 0 0 1-1.3.13 6.85 6.85 0 0 1-2.3-.41z" fill="#706d6e"/>
	<path d="M87.46 72.53H74.37a2.72 2.72 0 0 1-2.57-3.6l16.35-47.81a2.73 2.73 0 0 1 2.58-1.84h13.09a2.72 2.72 0 0 1 2.57 3.6L90 70.69a2.71 2.71 0 0 1-2.54 1.84z" fill="url(#a)"/>
	<path d="M125.78 72.53H106a1.17 1.17 0 0 1-.79-.31L87.48 55.66a1.16 1.16 0 0 1 .79-2h22.9a1.15 1.15 0 0 1 .83.34l15.46 14.43a2.39 2.39 0 0 1-1.68 4.1z" fill="url(#b)"/>
	<path d="m128.2 68.93-16.35-47.81a2.73 2.73 0 0 0-2.58-1.84H90.78a2.72 2.72 0 0 1 2.57 1.84l16.35 47.81a2.71 2.71 0 0 1-2.57 3.6h18.5a2.72 2.72 0 0 0 2.57-3.6z" fill="url(#c)"/>
</svg>
