<svg xmlns="http://www.w3.org/2000/svg" width="200" height="128"><defs><style>.cls-1{fill:#68217a;}.cls-2{fill:#7fba00;}.cls-3{fill:#706d6e;}</style></defs><rect class="cls-1" x="78.14" y="57.22" width="44.58" height="5.46"/><rect class="cls-1" x="70.32" y="43.7" width="30.48" height="5.46" transform="translate(-7.77 74.1) rotate(-45)"/><rect class="cls-1" x="111.84" y="31.22" width="5.46" height="30.48" transform="translate(0.7 94.62) rotate(-45)"/><path class="cls-2" d="M100,24a8,8,0,1,0,8,8A8,8,0,0,0,100,24Zm0,10.64a2.59,2.59,0,1,1,2.59-2.59A2.58,2.58,0,0,1,100,34.64Z"/><path class="cls-2" d="M72.1,51.9A8.05,8.05,0,1,0,80.16,60,8,8,0,0,0,72.1,51.9Zm0,10.64A2.59,2.59,0,1,1,74.69,60,2.58,2.58,0,0,1,72.1,62.54Z"/><path class="cls-2" d="M127.9,51.9A8.05,8.05,0,1,0,136,60,8,8,0,0,0,127.9,51.9Zm0,10.64A2.59,2.59,0,1,1,130.48,60,2.58,2.58,0,0,1,127.9,62.54Z"/><path class="cls-3" d="M90.6,89.34H89.24l-1.11-3H83.67l-1,3H81.26l4-10.51h1.27Zm-2.87-4-1.65-4.48a3.34,3.34,0,0,1-.16-.7h0a4.22,4.22,0,0,1-.17.7l-1.64,4.48Zm9.49-3.11-4.44,6.13h4.39v1H91V89l4.44-6.1h-4v-1h5.79Zm7.61,7.16h-1.2V88.15h0a2.45,2.45,0,0,1-2.31,1.36c-1.79,0-2.68-1.06-2.68-3.19V81.84H99.8v4.29c0,1.58.61,2.37,1.82,2.37a1.82,1.82,0,0,0,1.45-.65,2.5,2.5,0,0,0,.56-1.69V81.84h1.2Zm6.34-6.29a1.47,1.47,0,0,0-.91-.24,1.51,1.51,0,0,0-1.28.73,3.29,3.29,0,0,0-.52,2v3.83h-1.2v-7.5h1.2v1.54h0a2.61,2.61,0,0,1,.78-1.23,1.77,1.77,0,0,1,1.18-.44,2,2,0,0,1,.72.1Zm7.13,2.84H113a2.8,2.8,0,0,0,.67,1.93,2.3,2.3,0,0,0,1.77.68,3.69,3.69,0,0,0,2.33-.83V88.8a4.41,4.41,0,0,1-2.61.71,3.18,3.18,0,0,1-2.5-1,4.2,4.2,0,0,1-.91-2.87,4.09,4.09,0,0,1,1-2.86,3.19,3.19,0,0,1,2.46-1.1,2.84,2.84,0,0,1,2.28,1,4,4,0,0,1,.8,2.65Zm-1.23-1a2.43,2.43,0,0,0-.5-1.62,1.73,1.73,0,0,0-1.37-.58,1.94,1.94,0,0,0-1.44.61,2.81,2.81,0,0,0-.74,1.59Zm-58.81,21H52V95.33h6v1.93H54.32V99.6h3.44v1.92H54.32v2.4h3.94Zm8.7-7.5L64.48,102l2.46,3.87H64.28l-1.09-2a6.24,6.24,0,0,1-.31-.69h0a3.78,3.78,0,0,1-.3.66l-1.09,2H58.8l2.53-3.74L59,98.34h2.68l1.07,2.1a5,5,0,0,1,.3.7h0a4,4,0,0,1,.32-.71l1.09-2.09ZM70.34,105h0v4.32H68v-11h2.31v1.13h0A2.94,2.94,0,0,1,75,99.15a4.29,4.29,0,0,1,.8,2.73,4.61,4.61,0,0,1-.93,3A3,3,0,0,1,72.41,106,2.33,2.33,0,0,1,70.34,105Zm-.06-3.08v.6a1.88,1.88,0,0,0,.41,1.27,1.34,1.34,0,0,0,1.07.49,1.44,1.44,0,0,0,1.23-.61,3,3,0,0,0,.43-1.74c0-1.31-.51-2-1.53-2a1.43,1.43,0,0,0-1.16.54A2.12,2.12,0,0,0,70.28,101.89Zm11.91-1.46a1.91,1.91,0,0,0-1-.23,1.39,1.39,0,0,0-1.18.55,2.44,2.44,0,0,0-.43,1.51v3.58H77.3v-7.5h2.31v1.39h0a2,2,0,0,1,2-1.52,1.69,1.69,0,0,1,.57.08ZM90,102.75H85.06c.07,1.09.76,1.63,2,1.63a4,4,0,0,0,2.18-.59v1.67a5.61,5.61,0,0,1-2.7.56,3.5,3.5,0,0,1-3.83-3.81,4,4,0,0,1,1.09-3,3.6,3.6,0,0,1,2.66-1.1,3.28,3.28,0,0,1,2.54,1,3.74,3.74,0,0,1,.9,2.64Zm-2.15-1.42c0-1.08-.43-1.62-1.3-1.62a1.24,1.24,0,0,0-1,.47,2,2,0,0,0-.5,1.15Zm3,4.31v-1.87a4.94,4.94,0,0,0,1.14.51,3.9,3.9,0,0,0,1.08.17,2.34,2.34,0,0,0,1-.17.54.54,0,0,0,.35-.51.47.47,0,0,0-.16-.37,1.61,1.61,0,0,0-.41-.26,4.08,4.08,0,0,0-.56-.19c-.2-.06-.39-.13-.57-.2a5.89,5.89,0,0,1-.79-.37,2,2,0,0,1-.57-.45,1.6,1.6,0,0,1-.35-.59,2.13,2.13,0,0,1-.13-.8,2.06,2.06,0,0,1,.28-1.08,2.37,2.37,0,0,1,.73-.75,3.5,3.5,0,0,1,1-.42,5.45,5.45,0,0,1,1.23-.14,7.08,7.08,0,0,1,2,.31v1.78a3.64,3.64,0,0,0-.94-.38,3.85,3.85,0,0,0-1-.13,2,2,0,0,0-.43,0,1.6,1.6,0,0,0-.35.12.52.52,0,0,0-.24.19.51.51,0,0,0,0,.63,1.11,1.11,0,0,0,.34.25,3,3,0,0,0,.48.19l.51.18a5.44,5.44,0,0,1,.84.35,2.5,2.5,0,0,1,.64.44,2,2,0,0,1,.41.6,2.31,2.31,0,0,1,.14.82,2.14,2.14,0,0,1-.29,1.14,2.18,2.18,0,0,1-.77.77,3.73,3.73,0,0,1-1.1.44,6.16,6.16,0,0,1-1.3.13A6.85,6.85,0,0,1,90.83,105.64Zm6.6,0v-1.87a4.76,4.76,0,0,0,1.14.51,3.9,3.9,0,0,0,1.08.17,2.34,2.34,0,0,0,1-.17.54.54,0,0,0,.35-.51.47.47,0,0,0-.16-.37,1.8,1.8,0,0,0-.41-.26,4.08,4.08,0,0,0-.56-.19l-.58-.2a6.35,6.35,0,0,1-.78-.37,2,2,0,0,1-.57-.45,1.62,1.62,0,0,1-.36-.59,2.36,2.36,0,0,1-.12-.8,2.06,2.06,0,0,1,.28-1.08,2.37,2.37,0,0,1,.73-.75,3.4,3.4,0,0,1,1-.42,5.43,5.43,0,0,1,1.22-.14,7.12,7.12,0,0,1,1,.08,7.35,7.35,0,0,1,1,.23v1.78a3.56,3.56,0,0,0-.95-.38,3.72,3.72,0,0,0-1-.13,2,2,0,0,0-.43,0,1.6,1.6,0,0,0-.35.12.62.62,0,0,0-.25.19.57.57,0,0,0-.08.28.49.49,0,0,0,.13.35,1.11,1.11,0,0,0,.34.25,2.67,2.67,0,0,0,.48.19l.51.18a5.44,5.44,0,0,1,.84.35,2.5,2.5,0,0,1,.64.44,2,2,0,0,1,.41.6,2.31,2.31,0,0,1,.14.82,2.14,2.14,0,0,1-.29,1.14,2.18,2.18,0,0,1-.77.77,3.73,3.73,0,0,1-1.1.44,6.16,6.16,0,0,1-1.3.13A6.85,6.85,0,0,1,97.43,105.64Zm20.27.2H115l-1.63-2.71c-.12-.2-.24-.38-.35-.54a3.09,3.09,0,0,0-.34-.42,1.63,1.63,0,0,0-.36-.26,1,1,0,0,0-.41-.09h-.64v4h-2.36V95.33h3.75c2.55,0,3.82,1,3.82,2.86a2.8,2.8,0,0,1-.17,1,2.83,2.83,0,0,1-.47.83,3.14,3.14,0,0,1-.75.65,3.7,3.7,0,0,1-1,.42v0a1.56,1.56,0,0,1,.46.24,3,3,0,0,1,.42.39,3.6,3.6,0,0,1,.39.47c.13.17.24.33.34.49Zm-6.45-8.73V100h1a1.69,1.69,0,0,0,1.22-.44,1.45,1.45,0,0,0,.47-1.11c0-.91-.55-1.37-1.65-1.37Zm10.4,8.91a4,4,0,0,1-2.94-1,4.32,4.32,0,0,1,0-5.76,4.16,4.16,0,0,1,3-1.06,4,4,0,0,1,2.93,1.06,3.72,3.72,0,0,1,1.06,2.78,4,4,0,0,1-1.1,3A4.09,4.09,0,0,1,121.65,106Zm.06-6.09a1.55,1.55,0,0,0-1.27.56,2.52,2.52,0,0,0-.46,1.6c0,1.44.59,2.16,1.75,2.16s1.66-.74,1.66-2.22S122.83,99.93,121.71,99.93Zm12.67,5.91h-2.31V104.7h0a2.61,2.61,0,0,1-2.29,1.32c-1.74,0-2.61-1-2.61-3.16V98.34h2.31v4.32q0,1.59,1.26,1.59a1.25,1.25,0,0,0,1-.44,1.74,1.74,0,0,0,.37-1.18V98.34h2.31Zm6.48-.09a3.44,3.44,0,0,1-1.55.27c-1.63,0-2.44-.85-2.44-2.54V100h-1.22v-1.7h1.22V96.72l2.3-.66v2.28h1.69V100h-1.69v3q0,1.17.93,1.17a1.59,1.59,0,0,0,.76-.21Zm8-3H144c.08,1.09.76,1.63,2.06,1.63a3.92,3.92,0,0,0,2.17-.59v1.67a5.58,5.58,0,0,1-2.7.56,3.49,3.49,0,0,1-3.82-3.81,4,4,0,0,1,1.08-3,3.61,3.61,0,0,1,2.67-1.1,3.29,3.29,0,0,1,2.54,1,3.78,3.78,0,0,1,.89,2.64Zm-2.14-1.42c0-1.08-.44-1.62-1.31-1.62a1.24,1.24,0,0,0-1,.47,2,2,0,0,0-.49,1.15Z"/></svg>