<svg xmlns="http://www.w3.org/2000/svg" width="200" height="128"><defs><style>.cls-1,.cls-4,.cls-5{fill:#59b4d9;}.cls-2,.cls-3{fill:#fff;}.cls-2{opacity:0.2;}.cls-2,.cls-4,.cls-5,.cls-7{isolation:isolate;}.cls-4{opacity:0.1;}.cls-5{opacity:0.3;}.cls-6{fill:#3e3e3e;}.cls-7{fill:#1e1e1e;opacity:0.5;}.cls-8{fill:#706d6e;}</style></defs><path class="cls-1" d="M120.52,34.34c0-.44.11-1,.11-1.41a13.9,13.9,0,0,0-14-13.82,13.62,13.62,0,0,0-11.34,5.61,10.07,10.07,0,0,0-5.62-1.62A10.58,10.58,0,0,0,79.05,33.58v.86c-3.89,2.06-6,5.4-6,9.51,0,6.48,5.29,11.55,12.1,11.55h29.8c6.81,0,12.1-5.07,12.1-11.55A10.24,10.24,0,0,0,120.52,34.34Z"/><path class="cls-2" d="M80.56,49.24c0-4.43,2.27-7.88,6.48-10v-.87a11.33,11.33,0,0,1,17.17-9.5,15,15,0,0,1,12.1-6.16h0A14.61,14.61,0,0,0,106.59,19a14,14,0,0,0-11.34,5.72,10.07,10.07,0,0,0-5.62-1.62A10.58,10.58,0,0,0,79.05,33.58v.86c-3.89,2.06-6,5.4-6,9.51a11.45,11.45,0,0,0,9.07,11.23A12.16,12.16,0,0,1,80.56,49.24Z"/><path class="cls-3" d="M110,52.48A9.35,9.35,0,0,1,101,59.61a8.15,8.15,0,0,1-2.27-.33,9.5,9.5,0,0,1-3-1.4A10,10,0,0,1,93.3,55.5a9.45,9.45,0,0,1-1.4-7.45A9.35,9.35,0,0,1,101,40.92a8.1,8.1,0,0,1,2.27.33A9.38,9.38,0,0,1,109,45.46a8.87,8.87,0,0,1,1.08,7"/><path class="cls-4" d="M110,52.48A9.35,9.35,0,0,1,101,59.61a8.15,8.15,0,0,1-2.27-.33,9.5,9.5,0,0,1-3-1.4A10,10,0,0,1,93.3,55.5a9.45,9.45,0,0,1-1.4-7.45A9.35,9.35,0,0,1,101,40.92a8.1,8.1,0,0,1,2.27.33A9.38,9.38,0,0,1,109,45.46a8.87,8.87,0,0,1,1.08,7"/><path class="cls-5" d="M106.05,42.44a9.12,9.12,0,0,0-2.81-1.19,8.1,8.1,0,0,0-2.27-.33,9.35,9.35,0,0,0-9.07,7.13,9,9,0,0,0,1.4,7.45,7,7,0,0,0,.87,1.08,24.11,24.11,0,0,1,11.88-14.14"/><path class="cls-6" d="M112.42,43.41a13.31,13.31,0,0,0-8.21-6,16.37,16.37,0,0,0-3.24-.43A13.4,13.4,0,0,0,88,47.08a13.09,13.09,0,0,0,1.41,9.83L79.26,67.17a3.54,3.54,0,0,0,0,4.86,3.67,3.67,0,0,0,5,0L94.38,61.77a13.44,13.44,0,0,0,3.46,1.4,16.37,16.37,0,0,0,3.24.43,13.39,13.39,0,0,0,13-10.15A13.58,13.58,0,0,0,112.42,43.41ZM110,52.48A9.35,9.35,0,0,1,101,59.61a8.15,8.15,0,0,1-2.27-.33,9.5,9.5,0,0,1-3-1.4A10,10,0,0,1,93.3,55.5a9.45,9.45,0,0,1-1.4-7.45A9.35,9.35,0,0,1,101,40.92a8.1,8.1,0,0,1,2.27.33A9.38,9.38,0,0,1,109,45.46,8.94,8.94,0,0,1,110,52.48Z"/><path class="cls-7" d="M93.41,61.23A13.05,13.05,0,0,1,90,57.77c-.22-.32-.33-.54-.54-.86l-.87,1-.11.11a2.41,2.41,0,0,0,.44.65,16,16,0,0,0,3.78,3.88,2.46,2.46,0,0,0,.75.33l1-1A10.24,10.24,0,0,0,93.41,61.23Z"/><path class="cls-8" d="M90.6,89.34H89.24l-1.11-3H83.67l-1,3H81.26l4-10.51h1.27Zm-2.87-4-1.65-4.48a3.34,3.34,0,0,1-.16-.7h0a4.22,4.22,0,0,1-.17.7l-1.64,4.48Zm9.49-3.11-4.44,6.13h4.39v1H91V89l4.44-6.1h-4v-1h5.79Zm7.61,7.16h-1.2V88.15h0a2.45,2.45,0,0,1-2.31,1.36c-1.79,0-2.68-1.06-2.68-3.19V81.84H99.8v4.29c0,1.58.61,2.37,1.82,2.37a1.82,1.82,0,0,0,1.45-.65,2.5,2.5,0,0,0,.56-1.69V81.84h1.2Zm6.34-6.29a1.47,1.47,0,0,0-.91-.24,1.51,1.51,0,0,0-1.28.73,3.29,3.29,0,0,0-.52,2v3.83h-1.2v-7.5h1.2v1.54h0a2.61,2.61,0,0,1,.78-1.23,1.77,1.77,0,0,1,1.18-.44,2,2,0,0,1,.72.1Zm7.13,2.84H113a2.8,2.8,0,0,0,.67,1.93,2.3,2.3,0,0,0,1.77.68,3.69,3.69,0,0,0,2.33-.83V88.8a4.41,4.41,0,0,1-2.61.71,3.18,3.18,0,0,1-2.5-1,4.2,4.2,0,0,1-.91-2.87,4.09,4.09,0,0,1,1-2.86,3.19,3.19,0,0,1,2.46-1.1,2.84,2.84,0,0,1,2.28,1,4,4,0,0,1,.8,2.65Zm-1.23-1a2.43,2.43,0,0,0-.5-1.62,1.73,1.73,0,0,0-1.37-.58,1.94,1.94,0,0,0-1.44.61,2.81,2.81,0,0,0-.74,1.59ZM77.35,105.44v-2.35a4.51,4.51,0,0,0,2.89,1.07,3.53,3.53,0,0,0,.78-.08,1.82,1.82,0,0,0,.56-.22,1,1,0,0,0,.33-.34.78.78,0,0,0,.11-.42.94.94,0,0,0-.17-.55,2.09,2.09,0,0,0-.48-.45,6,6,0,0,0-.72-.39l-.9-.39a4.54,4.54,0,0,1-1.84-1.25,2.76,2.76,0,0,1-.6-1.79,2.83,2.83,0,0,1,.33-1.41,2.76,2.76,0,0,1,.89-1,4.14,4.14,0,0,1,1.32-.56,6.71,6.71,0,0,1,1.58-.18,8.92,8.92,0,0,1,1.45.1,5.56,5.56,0,0,1,1.17.3v2.19a3.49,3.49,0,0,0-.57-.32,4.88,4.88,0,0,0-.64-.23,5.18,5.18,0,0,0-.66-.14,4.49,4.49,0,0,0-.62,0,2.77,2.77,0,0,0-.73.08,1.93,1.93,0,0,0-.56.21,1.14,1.14,0,0,0-.35.34.8.8,0,0,0-.12.43.75.75,0,0,0,.14.47,1.47,1.47,0,0,0,.39.4,4.83,4.83,0,0,0,.62.37l.83.37a7.93,7.93,0,0,1,1.13.56,3.66,3.66,0,0,1,.86.67,2.49,2.49,0,0,1,.55.85,3,3,0,0,1,.19,1.12,3,3,0,0,1-.33,1.47,2.7,2.7,0,0,1-.9,1,4,4,0,0,1-1.33.53,7.55,7.55,0,0,1-1.6.16,9.66,9.66,0,0,1-1.65-.14A5.22,5.22,0,0,1,77.35,105.44Zm15.4-2.69H87.86c.08,1.09.76,1.63,2.06,1.63a3.92,3.92,0,0,0,2.17-.59v1.67a5.58,5.58,0,0,1-2.7.56,3.49,3.49,0,0,1-3.82-3.81,4,4,0,0,1,1.08-3,3.61,3.61,0,0,1,2.67-1.1,3.29,3.29,0,0,1,2.54,1,3.78,3.78,0,0,1,.89,2.64Zm-2.14-1.42c0-1.08-.44-1.62-1.31-1.62a1.24,1.24,0,0,0-1,.47,2,2,0,0,0-.49,1.15Zm9.76,4.51H98.18v-1.08h0A2.44,2.44,0,0,1,95.92,106a2.35,2.35,0,0,1-1.72-.62,2.2,2.2,0,0,1-.63-1.65c0-1.45.87-2.29,2.59-2.52l2-.27c0-.82-.44-1.23-1.33-1.23a4.59,4.59,0,0,0-2.55.8V98.79a5.42,5.42,0,0,1,1.33-.44,6.69,6.69,0,0,1,1.52-.2q3.21,0,3.21,3.21Zm-2.18-3v-.5l-1.36.17c-.75.1-1.13.44-1.13,1a.87.87,0,0,0,.28.65,1,1,0,0,0,.74.25,1.35,1.35,0,0,0,1.06-.45A1.6,1.6,0,0,0,98.19,102.79Zm8.9-2.36a1.88,1.88,0,0,0-1-.23,1.4,1.4,0,0,0-1.18.55,2.44,2.44,0,0,0-.42,1.51v3.58H102.2v-7.5h2.32v1.39h0a2,2,0,0,1,2-1.52,1.65,1.65,0,0,1,.57.08Zm6.71,5.14a4.65,4.65,0,0,1-2.27.45,3.84,3.84,0,0,1-2.8-1,3.59,3.59,0,0,1-1.06-2.7,4,4,0,0,1,1.14-3,4.24,4.24,0,0,1,3.07-1.11,3.88,3.88,0,0,1,1.92.36v2a2.67,2.67,0,0,0-1.62-.54,2.12,2.12,0,0,0-1.58.58,2.16,2.16,0,0,0-.58,1.61,2.14,2.14,0,0,0,.55,1.56,2,2,0,0,0,1.53.57,3.1,3.1,0,0,0,1.7-.54Zm8.71.27H120.2v-4.26q0-1.65-1.2-1.65a1.2,1.2,0,0,0-1,.46,1.75,1.75,0,0,0-.38,1.17v4.28h-2.32V94.73h2.32v4.72h0a2.63,2.63,0,0,1,2.3-1.3c1.7,0,2.55,1,2.55,3.08Z"/></svg>