<svg xmlns="http://www.w3.org/2000/svg" xmlns:xlink="http://www.w3.org/1999/xlink" viewBox="0 0 203.71 171.15"><defs><style>.cls-1{fill:#465154;}.cls-2{fill:#005ba1;}.cls-3{fill:#fff;}.cls-4{fill:#1ac3f2;}.cls-5{fill:url(#linear-gradient);}</style><linearGradient id="linear-gradient" x1="103.93" y1="396.45" x2="100.54" y2="261.26" gradientTransform="matrix(1, 0, 0, -1, 0, 386.89)" gradientUnits="userSpaceOnUse"><stop offset="0" stop-color="#32d4f5"/><stop offset="0.23" stop-color="#31d0f1"/><stop offset="0.46" stop-color="#2cc3e6"/><stop offset="0.7" stop-color="#25afd4"/><stop offset="0.94" stop-color="#1c92ba"/><stop offset="1" stop-color="#198ab3"/></linearGradient></defs><title>azure-data-lake-logo</title><g id="Layer_2" data-name="Layer 2"><g id="Layer_1-2" data-name="Layer 1"><path class="cls-1" d="M18.29,170.82H14.72l-1.76-5H5.25l-1.7,5H0l7.34-19.61H11Zm-6.19-7.64-2.72-7.82a9.19,9.19,0,0,1-.26-1.23H9.06a8.08,8.08,0,0,1-.27,1.23L6.1,163.18Z"/><path class="cls-1" d="M31.67,158.15l-7.56,10.2h7.53v2.47h-12v-1.19l7.72-10.34h-7v-2.47H31.67Z"/><path class="cls-1" d="M46.37,170.82H43.2v-2.21h-.05a4.57,4.57,0,0,1-4.29,2.54q-5,0-5-6v-8.37h3.17v8q0,3.77,2.91,3.77a2.94,2.94,0,0,0,2.32-1,4,4,0,0,0,.91-2.72v-8.05h3.17Z"/><path class="cls-1" d="M58.24,159.84a2.63,2.63,0,0,0-1.65-.45,2.83,2.83,0,0,0-2.35,1.27,5.69,5.69,0,0,0-.94,3.46v6.7H50.12v-14h3.17v2.88h.05a4.88,4.88,0,0,1,1.43-2.3,3.22,3.22,0,0,1,2.15-.83,2.68,2.68,0,0,1,1.31.26Z"/><path class="cls-1" d="M72.29,164.68H62.75a4,4,0,0,0,1.2,3,4.45,4.45,0,0,0,3.14,1.05,6.92,6.92,0,0,0,4.12-1.34v2.56a9.41,9.41,0,0,1-5.06,1.2,6.26,6.26,0,0,1-4.85-1.91,7.63,7.63,0,0,1-1.76-5.37,7.46,7.46,0,0,1,1.93-5.33,6.33,6.33,0,0,1,4.81-2.06,5.52,5.52,0,0,1,4.44,1.85,7.66,7.66,0,0,1,1.57,5.13Zm-3.06-2.24a4.09,4.09,0,0,0-.81-2.66,2.7,2.7,0,0,0-2.19-1,3.08,3.08,0,0,0-2.32,1,4.56,4.56,0,0,0-1.17,2.61Z"/><path class="cls-1" d="M83.37,170.82V151.22H89q10.84,0,10.84,9.56a9.42,9.42,0,0,1-3,7.29,11.48,11.48,0,0,1-8.07,2.75ZM86.61,154v14.1h2.6a7.26,7.26,0,0,0,5.34-1.89,7.17,7.17,0,0,0,1.91-5.33q0-6.88-7.12-6.88Z"/><path class="cls-1" d="M113.48,170.82H110.4v-2.19h-.05a4.63,4.63,0,0,1-4.25,2.52,4.48,4.48,0,0,1-3.23-1.12,3.92,3.92,0,0,1-1.17-3q0-4,4.57-4.62l4.16-.59q0-3-2.84-3a6.76,6.76,0,0,0-4.51,1.72v-2.78a9.84,9.84,0,0,1,5.11-1.31q5.3,0,5.3,5.22Zm-3.06-6.88-2.94.41a4.66,4.66,0,0,0-2.06.66,1.94,1.94,0,0,0-.69,1.7,1.86,1.86,0,0,0,.64,1.46,2.46,2.46,0,0,0,1.7.57,3.14,3.14,0,0,0,2.4-1,3.61,3.61,0,0,0,1-2.56Z"/><path class="cls-1" d="M124.41,170.67a5.5,5.5,0,0,1-2.45.46q-4.07,0-4.07-3.91v-7.92h-2.34v-2.49h2.34v-3.24l3.17-.9v4.14h3.35v2.49h-3.35v7a2.76,2.76,0,0,0,.45,1.78,1.87,1.87,0,0,0,1.5.53,2.18,2.18,0,0,0,1.39-.46Z"/><path class="cls-1" d="M138,170.82H135v-2.19h-.05a4.63,4.63,0,0,1-4.25,2.52,4.48,4.48,0,0,1-3.23-1.12,3.92,3.92,0,0,1-1.17-3q0-4,4.57-4.62l4.16-.59q0-3-2.84-3a6.76,6.76,0,0,0-4.51,1.72v-2.78a9.84,9.84,0,0,1,5.11-1.31q5.3,0,5.3,5.22ZM135,163.94l-2.94.41A4.65,4.65,0,0,0,130,165a1.94,1.94,0,0,0-.69,1.7,1.86,1.86,0,0,0,.64,1.46,2.46,2.46,0,0,0,1.7.57,3.14,3.14,0,0,0,2.4-1,3.61,3.61,0,0,0,1-2.56Z"/><path class="cls-1" d="M160.82,170.82H150V151.22h3.25v16.86h7.6Z"/><path class="cls-1" d="M174.34,170.82h-3.08v-2.19h-.05a4.63,4.63,0,0,1-4.25,2.52,4.48,4.48,0,0,1-3.23-1.12,3.92,3.92,0,0,1-1.17-3q0-4,4.57-4.62l4.16-.59q0-3-2.84-3a6.76,6.76,0,0,0-4.51,1.72v-2.78a9.84,9.84,0,0,1,5.11-1.31q5.3,0,5.3,5.22Zm-3.06-6.88-2.94.41a4.65,4.65,0,0,0-2.06.66,1.94,1.94,0,0,0-.69,1.7,1.86,1.86,0,0,0,.64,1.46,2.46,2.46,0,0,0,1.7.57,3.14,3.14,0,0,0,2.4-1,3.61,3.61,0,0,0,1-2.56Z"/><path class="cls-1" d="M190.65,170.82h-4l-5.44-6.73h-.05v6.73h-3.19V150.09h3.19v13.14h.05l5.14-6.41h3.81l-5.78,6.75Z"/><path class="cls-1" d="M203.71,164.68h-9.54a4,4,0,0,0,1.2,3,4.45,4.45,0,0,0,3.14,1.05,6.92,6.92,0,0,0,4.12-1.34v2.56a9.4,9.4,0,0,1-5.06,1.2,6.26,6.26,0,0,1-4.85-1.91,7.63,7.63,0,0,1-1.76-5.37,7.46,7.46,0,0,1,1.93-5.33,6.33,6.33,0,0,1,4.81-2.06,5.52,5.52,0,0,1,4.44,1.85,7.66,7.66,0,0,1,1.57,5.13Zm-3.06-2.24a4.09,4.09,0,0,0-.81-2.66,2.69,2.69,0,0,0-2.19-1,3.08,3.08,0,0,0-2.32,1,4.56,4.56,0,0,0-1.17,2.61Z"/><path class="cls-2" d="M172.23,13.38H107.85a3,3,0,0,1-1.91-.61L87.52.52A3.74,3.74,0,0,0,85.61,0H31.48A3.48,3.48,0,0,0,28,3.39V117.2a3.48,3.48,0,0,0,3.48,3.39H172.23a3.48,3.48,0,0,0,3.48-3.39V16.86A3.48,3.48,0,0,0,172.23,13.38Z"/><rect class="cls-3" x="41.47" y="6.6" width="33.54" height="6.69" rx="1.39" ry="1.39"/><rect class="cls-4" x="41.47" y="6.6" width="6.69" height="6.69" rx="0.96" ry="0.96"/><path class="cls-5" d="M172.23,13.21H101.85a3.13,3.13,0,0,0-2.43,1L87.69,25.54a3.74,3.74,0,0,1-2.43,1H31.48A3.48,3.48,0,0,0,28,30h0v86.88a3.48,3.48,0,0,0,3.48,3.39H172.23a3.48,3.48,0,0,0,3.48-3.39v-100a3.48,3.48,0,0,0-3.3-3.64Z"/><path class="cls-3" d="M112.11,31.63a1.3,1.3,0,0,0-.7,0,1.39,1.39,0,0,0-1.13.61L82.83,72.11a1.39,1.39,0,0,0,0,1.39,1.65,1.65,0,0,0,1.3.87h16.25L93.17,98.52a1.13,1.13,0,0,0,.5,1.52l.11,0a.87.87,0,0,0,.61,0,1,1,0,0,0,1.13-.61L123.84,59v-.87a1.48,1.48,0,0,0-1.48-1.39H105L112,33A1.13,1.13,0,0,0,112.11,31.63Z"/></g></g></svg>