<svg xmlns="http://www.w3.org/2000/svg" width="200" height="128"><defs><style>.cls-1{fill:#0078d7;}.cls-2{fill:#706d6e;}</style></defs><path class="cls-1" d="M100.06,19c-11.14,0-20,3.83-20,7.88V64.23c0,4,9,8.77,20,8.77S120,68.5,120,64.34V27C120.08,22.94,111.08,19,100.06,19Zm0,2.92c7.87,0,14.28,2,14.28,4.39s-6.41,4.39-14.28,4.39-14.29-2-14.29-4.39S92.18,21.92,100.06,21.92Zm15.63,17.56a3.24,3.24,0,0,1-1.46,2.36c-1.91,1.46-2.14,1.69-2.47,3.37-1,4.62-1.35,5.52-2.14,7.09a6.11,6.11,0,0,1-2.25,2.48l-.45.22.11-.79v-.79c-.11,0-.22.34-.45.79a8.79,8.79,0,0,1-2.92,3.71,6.38,6.38,0,0,1-2.59.9h-.45l.34-.33c.33-.34,1.12-1.58,1.57-2.25s.9-3.15.68-3.15-.34.56-.57,1.35c-.11.22-.33.56-.45.79-.33.33-.33.45-1.12.45-.45,0-1.69-.12-2.7-.23-3.83-.45-4.73-.34-7.31,1.35a20.12,20.12,0,0,1-4.17,2,4.66,4.66,0,0,1-1.23.11c-.45,0-.57,0-.57-.23a3.7,3.7,0,0,1,.79-1.46c.23-.34.23-.34.11-.45a17.13,17.13,0,0,1-1.68-1.24,2,2,0,0,1,.45-.33c.56-.34,1.35-.34,2.81-.12.56.12,1.24.12,1.57.23.79,0,1-.11,1.92-1.35A8.39,8.39,0,0,1,93,52c1-.78,1.57-1,6-2.47,5.18-1.69,6-2.25,8.21-6.08,1.8-3.15,2.93-3.93,5.52-4.16a6.54,6.54,0,0,0,1.91-.45C115.47,38.24,115.81,38.35,115.69,39.48Z"/><path class="cls-2" d="M90.6,89.34H89.24l-1.11-3H83.67l-1,3H81.26l4-10.51h1.27Zm-2.87-4-1.65-4.48a3.34,3.34,0,0,1-.16-.7h0a4.22,4.22,0,0,1-.17.7l-1.64,4.48Zm9.49-3.11-4.44,6.13h4.39v1H91V89l4.44-6.1h-4v-1h5.79Zm7.61,7.16h-1.2V88.15h0a2.45,2.45,0,0,1-2.31,1.36c-1.79,0-2.68-1.06-2.68-3.19V81.84H99.8v4.29c0,1.58.61,2.37,1.82,2.37a1.82,1.82,0,0,0,1.45-.65,2.5,2.5,0,0,0,.56-1.69V81.84h1.2Zm6.34-6.29a1.47,1.47,0,0,0-.91-.24,1.51,1.51,0,0,0-1.28.73,3.29,3.29,0,0,0-.52,2v3.83h-1.2v-7.5h1.2v1.54h0a2.61,2.61,0,0,1,.78-1.23,1.77,1.77,0,0,1,1.18-.44,2,2,0,0,1,.72.1Zm7.13,2.84H113a2.8,2.8,0,0,0,.67,1.93,2.3,2.3,0,0,0,1.77.68,3.69,3.69,0,0,0,2.33-.83V88.8a4.41,4.41,0,0,1-2.61.71,3.18,3.18,0,0,1-2.5-1,4.2,4.2,0,0,1-.91-2.87,4.09,4.09,0,0,1,1-2.86,3.19,3.19,0,0,1,2.46-1.1,2.84,2.84,0,0,1,2.28,1,4,4,0,0,1,.8,2.65Zm-1.23-1a2.43,2.43,0,0,0-.5-1.62,1.73,1.73,0,0,0-1.37-.58,1.94,1.94,0,0,0-1.44.61,2.81,2.81,0,0,0-.74,1.59Zm-71.52,21V95.33h3.72q5.59,0,5.59,5.13a5.14,5.14,0,0,1-1.52,3.91,5.63,5.63,0,0,1-4.07,1.47Zm2.36-8.58v6.66h1.18A3.18,3.18,0,0,0,51.5,103a3.54,3.54,0,0,0,.87-2.52,3.17,3.17,0,0,0-.86-2.36,3.33,3.33,0,0,0-2.44-.86Zm8.7,8.58V95.33h3.82a4.76,4.76,0,0,1,2.7.65,2.07,2.07,0,0,1,.95,1.82,2.11,2.11,0,0,1-.58,1.48,3,3,0,0,1-1.46.89v0a2.92,2.92,0,0,1,1.79.83,2.33,2.33,0,0,1,.67,1.67,2.79,2.79,0,0,1-1,2.29,4.29,4.29,0,0,1-2.82.85ZM59,97.08v2.49h1a1.73,1.73,0,0,0,1.16-.36,1.19,1.19,0,0,0,.42-1c0-.78-.58-1.16-1.73-1.16Zm0,4.25v2.76h1.29a1.94,1.94,0,0,0,1.28-.38,1.27,1.27,0,0,0,.47-1,1.17,1.17,0,0,0-.46-1,2,2,0,0,0-1.28-.36ZM75,96.51a2.33,2.33,0,0,0-.86-.18c-.74,0-1.11.4-1.11,1.21v.8h1.71V100H73.06v5.8H70.75V100H69.49v-1.7h1.26v-.93a2.71,2.71,0,0,1,.84-2.07,3.18,3.18,0,0,1,2.27-.78,3.87,3.87,0,0,1,1.17.15ZM79.46,106a4,4,0,0,1-2.95-1,4.35,4.35,0,0,1,0-5.76,4.17,4.17,0,0,1,3-1.06,4,4,0,0,1,2.93,1.06A3.72,3.72,0,0,1,83.55,102a4,4,0,0,1-1.09,3A4.09,4.09,0,0,1,79.46,106Zm.06-6.09a1.57,1.57,0,0,0-1.28.56,2.52,2.52,0,0,0-.45,1.6q0,2.16,1.74,2.16c1.11,0,1.67-.74,1.67-2.22S80.64,99.93,79.52,99.93Zm10.43.5a2,2,0,0,0-1-.23,1.41,1.41,0,0,0-1.18.55,2.44,2.44,0,0,0-.42,1.51v3.58H85.06v-7.5h2.31v1.39h0a2,2,0,0,1,2-1.52,1.73,1.73,0,0,1,.57.08Zm17.41,5.41H105V99.55c0-.67,0-1.43.09-2.25h-.06a10.56,10.56,0,0,1-.33,1.4l-2.46,7.14h-1.93l-2.51-7.07a12.91,12.91,0,0,1-.33-1.47h-.06q.09,1.56.09,2.73v5.81H95.39V95.33h3.46l2.15,6.23a8.21,8.21,0,0,1,.37,1.5h0c.13-.58.27-1.08.41-1.51L104,95.33h3.38Zm8.4,0h-2.19v-1.08h0a2.44,2.44,0,0,1-2.23,1.26,2.34,2.34,0,0,1-1.72-.62,2.2,2.2,0,0,1-.63-1.65c0-1.45.86-2.29,2.59-2.52l2-.27c0-.82-.44-1.23-1.33-1.23a4.59,4.59,0,0,0-2.55.8V98.79a5.19,5.19,0,0,1,1.32-.44,6.85,6.85,0,0,1,1.53-.2q3.21,0,3.21,3.21Zm-2.18-3v-.5l-1.36.17c-.75.1-1.13.44-1.13,1a.83.83,0,0,0,.28.65,1,1,0,0,0,.74.25,1.35,1.35,0,0,0,1.06-.45A1.6,1.6,0,0,0,113.58,102.79Zm8.9-2.36a1.91,1.91,0,0,0-1-.23,1.39,1.39,0,0,0-1.18.55,2.44,2.44,0,0,0-.43,1.51v3.58h-2.31v-7.5h2.31v1.39h0a2,2,0,0,1,2-1.52,1.69,1.69,0,0,1,.57.08Zm2.31-3.28a1.32,1.32,0,0,1-1-.35,1.1,1.1,0,0,1-.37-.85,1.07,1.07,0,0,1,.37-.85,1.4,1.4,0,0,1,1-.33,1.38,1.38,0,0,1,1,.33,1.07,1.07,0,0,1,.37.85,1.09,1.09,0,0,1-.37.86A1.34,1.34,0,0,1,124.79,97.15Zm1.14,8.69h-2.31v-7.5h2.31Zm8.19,0h-2.19v-1.08h0a2.44,2.44,0,0,1-2.23,1.26,2.35,2.35,0,0,1-1.72-.62,2.2,2.2,0,0,1-.63-1.65c0-1.45.87-2.29,2.59-2.52l2-.27c0-.82-.44-1.23-1.33-1.23a4.59,4.59,0,0,0-2.55.8V98.79a5.42,5.42,0,0,1,1.33-.44,6.69,6.69,0,0,1,1.52-.2q3.21,0,3.21,3.21Zm-2.18-3v-.5l-1.36.17c-.75.1-1.13.44-1.13,1a.87.87,0,0,0,.28.65,1,1,0,0,0,.74.25,1.35,1.35,0,0,0,1.06-.45A1.6,1.6,0,0,0,131.94,102.79Zm4.24,3V95.33h3.72q5.59,0,5.59,5.13a5.14,5.14,0,0,1-1.52,3.91,5.63,5.63,0,0,1-4.07,1.47Zm2.36-8.58v6.66h1.18a3.18,3.18,0,0,0,2.41-.92,3.54,3.54,0,0,0,.87-2.52,3.17,3.17,0,0,0-.86-2.36,3.33,3.33,0,0,0-2.44-.86Zm8.7,8.58V95.33h3.82a4.76,4.76,0,0,1,2.7.65,2.07,2.07,0,0,1,1,1.82,2.11,2.11,0,0,1-.58,1.48,3,3,0,0,1-1.46.89v0a2.92,2.92,0,0,1,1.79.83,2.33,2.33,0,0,1,.67,1.67,2.79,2.79,0,0,1-1,2.29,4.29,4.29,0,0,1-2.82.85Zm2.36-8.76v2.49h1a1.73,1.73,0,0,0,1.16-.36,1.19,1.19,0,0,0,.42-1c0-.78-.58-1.16-1.73-1.16Zm0,4.25v2.76h1.29a1.94,1.94,0,0,0,1.28-.38,1.27,1.27,0,0,0,.47-1,1.17,1.17,0,0,0-.46-1,2,2,0,0,0-1.28-.36Z"/></svg>