<svg xmlns="http://www.w3.org/2000/svg" width="200" height="128"><defs><style>.cls-1{fill:#0078d7;}.cls-2{fill:#706d6e;}</style></defs><path class="cls-1" d="M105.51,29.88H73V28.15a3.37,3.37,0,0,1,3.35-3.35h24.08a3.41,3.41,0,0,1,2.92,1.68l1.56,2.7A2,2,0,0,0,105.51,29.88ZM127,34.69V63.85a3.37,3.37,0,0,1-3.35,3.35H76.35A3.37,3.37,0,0,1,73,63.85V31.61h51.89A3.42,3.42,0,0,1,127,34.69ZM107,47.54a.48.48,0,0,0-.48-.49h-5.73l2.38-8a.39.39,0,0,0-.21-.54.46.46,0,0,0-.22-.05.58.58,0,0,0-.38.21L93,52.18a.54.54,0,0,0-.06.49.56.56,0,0,0,.43.27H99l-2.48,8.15a.39.39,0,0,0,.21.54.32.32,0,0,0,.22.06.54.54,0,0,0,.38-.22l9.56-13.66C106.91,47.7,107,47.65,107,47.54Z"/><path class="cls-2" d="M90.6,89.34H89.24l-1.11-3H83.67l-1,3H81.26l4-10.51h1.27Zm-2.87-4-1.65-4.48a3.34,3.34,0,0,1-.16-.7h0a4.22,4.22,0,0,1-.17.7l-1.64,4.48Zm9.49-3.11-4.44,6.13h4.39v1H91V89l4.44-6.1h-4v-1h5.79Zm7.61,7.16h-1.2V88.15h0a2.45,2.45,0,0,1-2.31,1.36c-1.79,0-2.68-1.06-2.68-3.19V81.84H99.8v4.29c0,1.58.61,2.37,1.82,2.37a1.82,1.82,0,0,0,1.45-.65,2.5,2.5,0,0,0,.56-1.69V81.84h1.2Zm6.34-6.29a1.47,1.47,0,0,0-.91-.24,1.51,1.51,0,0,0-1.28.73,3.29,3.29,0,0,0-.52,2v3.83h-1.2v-7.5h1.2v1.54h0a2.61,2.61,0,0,1,.78-1.23,1.77,1.77,0,0,1,1.18-.44,2,2,0,0,1,.72.1Zm7.13,2.84H113a2.8,2.8,0,0,0,.67,1.93,2.3,2.3,0,0,0,1.77.68,3.69,3.69,0,0,0,2.33-.83V88.8a4.41,4.41,0,0,1-2.61.71,3.18,3.18,0,0,1-2.5-1,4.2,4.2,0,0,1-.91-2.87,4.09,4.09,0,0,1,1-2.86,3.19,3.19,0,0,1,2.46-1.1,2.84,2.84,0,0,1,2.28,1,4,4,0,0,1,.8,2.65Zm-1.23-1a2.43,2.43,0,0,0-.5-1.62,1.73,1.73,0,0,0-1.37-.58,1.94,1.94,0,0,0-1.44.61,2.81,2.81,0,0,0-.74,1.59Zm-71,21V95.33h3.73q5.59,0,5.59,5.13a5.15,5.15,0,0,1-1.53,3.91,5.59,5.59,0,0,1-4.06,1.47Zm2.37-8.58v6.66h1.17A3.2,3.2,0,0,0,52,103a3.54,3.54,0,0,0,.87-2.52A3.18,3.18,0,0,0,52,98.12a3.32,3.32,0,0,0-2.43-.86Zm14.71,8.58H60.91v-1.08h0A2.45,2.45,0,0,1,58.64,106a2.33,2.33,0,0,1-1.71-.62,2.2,2.2,0,0,1-.63-1.65c0-1.45.86-2.29,2.59-2.52l2-.27c0-.82-.44-1.23-1.33-1.23a4.59,4.59,0,0,0-2.55.8V98.79a5.19,5.19,0,0,1,1.32-.44,6.85,6.85,0,0,1,1.53-.2q3.21,0,3.21,3.21Zm-2.18-3v-.5l-1.36.17c-.75.1-1.13.44-1.13,1a.83.83,0,0,0,.28.65,1,1,0,0,0,.74.25,1.37,1.37,0,0,0,1.06-.45A1.6,1.6,0,0,0,60.92,102.79Zm8.54,3a3.4,3.4,0,0,1-1.54.27c-1.63,0-2.45-.85-2.45-2.54V100H64.25v-1.7h1.22V96.72l2.31-.66v2.28h1.68V100H67.78v3q0,1.17.93,1.17a1.58,1.58,0,0,0,.75-.21Zm7.55.09H74.82v-1.08h0A2.46,2.46,0,0,1,72.55,106a2.33,2.33,0,0,1-1.71-.62,2.2,2.2,0,0,1-.63-1.65q0-2.18,2.58-2.52l2-.27c0-.82-.44-1.23-1.33-1.23a4.54,4.54,0,0,0-2.55.8V98.79a5.19,5.19,0,0,1,1.32-.44,6.85,6.85,0,0,1,1.53-.2q3.21,0,3.21,3.21Zm-2.18-3v-.5l-1.36.17c-.75.1-1.13.44-1.13,1a.83.83,0,0,0,.28.65,1,1,0,0,0,.74.25,1.37,1.37,0,0,0,1.06-.45A1.64,1.64,0,0,0,74.83,102.79Zm14.63,3H83.2V95.33h2.37v8.59h3.89Zm7.42,0H94.69v-1.08h0A2.46,2.46,0,0,1,92.43,106a2.35,2.35,0,0,1-1.72-.62,2.23,2.23,0,0,1-.62-1.65q0-2.18,2.58-2.52l2-.27c0-.82-.45-1.23-1.33-1.23a4.54,4.54,0,0,0-2.55.8V98.79a5.19,5.19,0,0,1,1.32-.44,6.85,6.85,0,0,1,1.53-.2q3.19,0,3.2,3.21Zm-2.17-3v-.5l-1.36.17c-.76.1-1.13.44-1.13,1a.86.86,0,0,0,.27.65,1.06,1.06,0,0,0,.75.25,1.37,1.37,0,0,0,1.06-.45A1.64,1.64,0,0,0,94.71,102.79Zm11.52,3h-2.78l-2.39-3.72h0v3.72H98.72V94.73H101v7.07h0l2.23-3.46H106l-2.69,3.52Zm7.4-3.09h-4.9c.08,1.09.77,1.63,2.06,1.63a4,4,0,0,0,2.18-.59v1.67a5.64,5.64,0,0,1-2.7.56,3.5,3.5,0,0,1-3.83-3.81,4,4,0,0,1,1.09-3,3.6,3.6,0,0,1,2.66-1.1,3.28,3.28,0,0,1,2.54,1,3.74,3.74,0,0,1,.9,2.64Zm-2.15-1.42c0-1.08-.43-1.62-1.3-1.62a1.28,1.28,0,0,0-1,.47,2.08,2.08,0,0,0-.49,1.15Zm7.41,4.11v-2.35a4.37,4.37,0,0,0,1.38.8,4.42,4.42,0,0,0,1.51.27,3.53,3.53,0,0,0,.78-.08,1.92,1.92,0,0,0,.56-.22,1.06,1.06,0,0,0,.33-.34.9.9,0,0,0-.07-1,1.75,1.75,0,0,0-.48-.45,4.76,4.76,0,0,0-.72-.39l-.9-.39a4.57,4.57,0,0,1-1.83-1.25,2.72,2.72,0,0,1-.61-1.79,2.83,2.83,0,0,1,.33-1.41,2.79,2.79,0,0,1,.9-1,4.18,4.18,0,0,1,1.31-.56,6.79,6.79,0,0,1,1.59-.18,9,9,0,0,1,1.45.1,5.89,5.89,0,0,1,1.17.3v2.19a3.6,3.6,0,0,0-.58-.32,4.41,4.41,0,0,0-.64-.23,5.42,5.42,0,0,0-.65-.14,4.59,4.59,0,0,0-.62,0,2.72,2.72,0,0,0-.73.08,1.93,1.93,0,0,0-.56.21,1.14,1.14,0,0,0-.35.34.73.73,0,0,0-.13.43.82.82,0,0,0,.14.47,1.52,1.52,0,0,0,.4.4,4.83,4.83,0,0,0,.62.37c.24.12.52.24.83.37a8.5,8.5,0,0,1,1.13.56,3.88,3.88,0,0,1,.86.67,2.64,2.64,0,0,1,.55.85,3,3,0,0,1,.19,1.12,3,3,0,0,1-.33,1.47,2.82,2.82,0,0,1-.91,1,3.86,3.86,0,0,1-1.33.53,7.48,7.48,0,0,1-1.6.16,9.63,9.63,0,0,1-1.64-.14A5.22,5.22,0,0,1,118.89,105.44Zm12.82.31a3.43,3.43,0,0,1-1.54.27c-1.64,0-2.45-.85-2.45-2.54V100H126.5v-1.7h1.22V96.72l2.31-.66v2.28h1.68V100H130v3q0,1.17.93,1.17a1.58,1.58,0,0,0,.75-.21Zm4.82.27a4,4,0,0,1-2.95-1,4.35,4.35,0,0,1,0-5.76,4.17,4.17,0,0,1,3-1.06,4,4,0,0,1,2.93,1.06,3.72,3.72,0,0,1,1.06,2.78,4,4,0,0,1-1.09,3A4.09,4.09,0,0,1,136.53,106Zm.06-6.09a1.57,1.57,0,0,0-1.28.56,2.52,2.52,0,0,0-.45,1.6q0,2.16,1.74,2.16c1.11,0,1.67-.74,1.67-2.22S137.71,99.93,136.59,99.93Zm10.43.5a1.92,1.92,0,0,0-1-.23,1.38,1.38,0,0,0-1.17.55,2.38,2.38,0,0,0-.43,1.51v3.58h-2.31v-7.5h2.31v1.39h0a2,2,0,0,1,2-1.52,1.73,1.73,0,0,1,.57.08Zm7.75,2.32h-4.89c.08,1.09.77,1.63,2.06,1.63a4,4,0,0,0,2.18-.59v1.67a5.65,5.65,0,0,1-2.71.56,3.49,3.49,0,0,1-3.82-3.81,4,4,0,0,1,1.08-3,3.64,3.64,0,0,1,2.67-1.1,3.29,3.29,0,0,1,2.54,1,3.74,3.74,0,0,1,.89,2.64Zm-2.14-1.42c0-1.08-.44-1.62-1.3-1.62a1.25,1.25,0,0,0-1,.47,2.08,2.08,0,0,0-.49,1.15Z"/></svg>