<svg xmlns="http://www.w3.org/2000/svg" width="200" height="128"><defs><style>.cls-1{fill:#0078d7;}.cls-2{fill:#706d6e;}</style></defs><path class="cls-1" d="M113.54,22.58H86.46L73,46,86.46,69.42h27.08L127,46Zm.14,33.94A3.72,3.72,0,0,1,110,60.17H90.11a3.72,3.72,0,0,1-3.65-3.65V35.62A3.72,3.72,0,0,1,90.11,32h18l5.62,5.61V56.52ZM98,49.79c0-.28-.14-.42-.14-.56s-.14-.28-.28-.42-.14-.15-.29-.15h-.42c-.28,0-.42,0-.56.15a1.93,1.93,0,0,0-.42.56,1.78,1.78,0,0,0-.14.84v2.66a1.18,1.18,0,0,0,.28.84c.14.28.28.43.42.43s.28.14.56.14a.54.54,0,0,0,.43-.14.31.31,0,0,0,.28-.29c.14-.14.14-.28.28-.42s.14-.28.14-.56a1.52,1.52,0,0,1,.14-.7V50.35C98,50.21,98,50.07,98,49.79Zm6.31-10.94c0-.28-.14-.42-.14-.56s-.14-.28-.28-.43-.14-.14-.28-.14h-.42c-.28,0-.42,0-.57.14a2.16,2.16,0,0,0-.42.57,1.78,1.78,0,0,0-.14.84v2.66a1.18,1.18,0,0,0,.28.84c.14.28.28.42.43.42.14.15.28.15.56.15a.49.49,0,0,0,.42-.15.3.3,0,0,0,.28-.28c.14-.14.14-.28.28-.42s.14-.28.14-.56a1.52,1.52,0,0,1,.14-.7V39.41C104.42,39.41,104.42,39.13,104.28,38.85Zm2.8-4.91h-17a1.62,1.62,0,0,0-1.68,1.68v20.9a1.62,1.62,0,0,0,1.68,1.68H110a1.7,1.7,0,0,0,1.68-1.68v-18h-4.49V33.94ZM94.6,38.15v-.29l.14-.14,1.68-1.12H98v6.74h1.4l.14.14c.14.14,0,.14,0,.14v.7a.14.14,0,0,1-.14.14H94.74l-.14-.14v-.84a.14.14,0,0,1,.14-.14h1.68V38.15l-1.26.7c-.14,0-.14.14-.28.14h-.14a.14.14,0,0,0-.14-.14v-.7Zm4.91,15A2.68,2.68,0,0,1,99,54.42a2.38,2.38,0,0,1-.84.84,4.2,4.2,0,0,1-1.41.28,4.14,4.14,0,0,1-1.4-.28,1.26,1.26,0,0,1-.84-.84A4.62,4.62,0,0,1,94,53.15a6.82,6.82,0,0,1-.14-1.68A5.77,5.77,0,0,1,94,49.79a2.73,2.73,0,0,1,.56-1.27c.28-.28.56-.7.84-.84a3.67,3.67,0,0,1,2.81,0,1.26,1.26,0,0,1,.84.84,4.62,4.62,0,0,1,.42,1.27,6.82,6.82,0,0,1,.14,1.68A5.77,5.77,0,0,1,99.51,53.15Zm6.31,2v.14a.14.14,0,0,1-.14.14h-4.63l-.14-.14v-.84a.14.14,0,0,1,.14-.14h1.69V49.09l-1.27.7c-.14,0-.14.14-.28.14h-.14a.14.14,0,0,0-.14-.14v-1l.14-.15,1.69-1.12h1.54v6.74h1.4l.14.14v.7ZM106,42.21a2.73,2.73,0,0,1-.56,1.27,2.38,2.38,0,0,1-.84.84,3.67,3.67,0,0,1-2.81,0,1.26,1.26,0,0,1-.84-.84,3.46,3.46,0,0,1-.42-1.27c0-.42-.14-1.12-.14-1.68a5.77,5.77,0,0,1,.14-1.68,2.68,2.68,0,0,1,.56-1.27,2.38,2.38,0,0,1,.84-.84,4.2,4.2,0,0,1,1.41-.28,4.14,4.14,0,0,1,1.4.28,1.26,1.26,0,0,1,.84.84,4.62,4.62,0,0,1,.42,1.27,6.82,6.82,0,0,1,.14,1.68C106.1,41.23,106,41.79,106,42.21Z"/><path class="cls-2" d="M90.6,89.34H89.24l-1.11-3H83.67l-1,3H81.26l4-10.51h1.27Zm-2.87-4-1.65-4.48a3.34,3.34,0,0,1-.16-.7h0a4.22,4.22,0,0,1-.17.7l-1.64,4.48Zm9.49-3.11-4.44,6.13h4.39v1H91V89l4.44-6.1h-4v-1h5.79Zm7.61,7.16h-1.2V88.15h0a2.45,2.45,0,0,1-2.31,1.36c-1.79,0-2.68-1.06-2.68-3.19V81.84H99.8v4.29c0,1.58.61,2.37,1.82,2.37a1.82,1.82,0,0,0,1.45-.65,2.5,2.5,0,0,0,.56-1.69V81.84h1.2Zm6.34-6.29a1.47,1.47,0,0,0-.91-.24,1.51,1.51,0,0,0-1.28.73,3.29,3.29,0,0,0-.52,2v3.83h-1.2v-7.5h1.2v1.54h0a2.61,2.61,0,0,1,.78-1.23,1.77,1.77,0,0,1,1.18-.44,2,2,0,0,1,.72.1Zm7.13,2.84H113a2.8,2.8,0,0,0,.67,1.93,2.3,2.3,0,0,0,1.77.68,3.69,3.69,0,0,0,2.33-.83V88.8a4.41,4.41,0,0,1-2.61.71,3.18,3.18,0,0,1-2.5-1,4.2,4.2,0,0,1-.91-2.87,4.09,4.09,0,0,1,1-2.86,3.19,3.19,0,0,1,2.46-1.1,2.84,2.84,0,0,1,2.28,1,4,4,0,0,1,.8,2.65Zm-1.23-1a2.43,2.43,0,0,0-.5-1.62,1.73,1.73,0,0,0-1.37-.58,1.94,1.94,0,0,0-1.44.61,2.81,2.81,0,0,0-.74,1.59Zm-61.33,21V95.33h3.83a4.76,4.76,0,0,1,2.7.65,2.07,2.07,0,0,1,.94,1.82,2.15,2.15,0,0,1-.57,1.48,3,3,0,0,1-1.47.89v0A2.87,2.87,0,0,1,63,101a2.29,2.29,0,0,1,.67,1.67,2.78,2.78,0,0,1-1,2.29,4.29,4.29,0,0,1-2.82.85Zm2.37-8.76v2.49h1a1.7,1.7,0,0,0,1.15-.36,1.19,1.19,0,0,0,.42-1c0-.78-.57-1.16-1.72-1.16Zm0,4.25v2.76h1.28a2,2,0,0,0,1.29-.38,1.26,1.26,0,0,0,.46-1,1.15,1.15,0,0,0-.46-1,2,2,0,0,0-1.27-.36Zm9.34,4.51H65.13V94.73h2.32ZM73,106a4,4,0,0,1-3-1,4.35,4.35,0,0,1,0-5.76,4.17,4.17,0,0,1,3-1.06A4,4,0,0,1,76,99.21,3.72,3.72,0,0,1,77.06,102a4,4,0,0,1-1.09,3A4.09,4.09,0,0,1,73,106ZM73,99.93a1.57,1.57,0,0,0-1.28.56,2.52,2.52,0,0,0-.45,1.6q0,2.16,1.74,2.16c1.11,0,1.67-.74,1.67-2.22S74.15,99.93,73,99.93Zm7.88,5h0v.87H78.57V94.73h2.31v4.74h0a2.74,2.74,0,0,1,2.44-1.32,2.68,2.68,0,0,1,2.23,1,4.32,4.32,0,0,1,.79,2.73,4.66,4.66,0,0,1-.92,3A3,3,0,0,1,83,106,2.36,2.36,0,0,1,80.91,105Zm-.07-3.17v.77a1.74,1.74,0,0,0,.42,1.2,1.36,1.36,0,0,0,1.07.48,1.44,1.44,0,0,0,1.23-.61A3,3,0,0,0,84,101.9a2.33,2.33,0,0,0-.4-1.45,1.32,1.32,0,0,0-1.13-.52,1.47,1.47,0,0,0-1.16.52A2,2,0,0,0,80.84,101.8Zm10.91,3.64v-2.35a4.48,4.48,0,0,0,1.38.8,4.42,4.42,0,0,0,1.51.27,3.53,3.53,0,0,0,.78-.08,1.92,1.92,0,0,0,.56-.22,1,1,0,0,0,.33-.34.78.78,0,0,0,.11-.42.94.94,0,0,0-.17-.55,2.09,2.09,0,0,0-.48-.45,6,6,0,0,0-.72-.39c-.28-.13-.58-.26-.91-.39a4.57,4.57,0,0,1-1.83-1.25,2.76,2.76,0,0,1-.6-1.79A2.83,2.83,0,0,1,92,96.87a2.67,2.67,0,0,1,.89-1,4.14,4.14,0,0,1,1.32-.56,6.71,6.71,0,0,1,1.58-.18,8.92,8.92,0,0,1,1.45.1,5.72,5.72,0,0,1,1.17.3v2.19a3.49,3.49,0,0,0-.57-.32,4.88,4.88,0,0,0-.64-.23,5.18,5.18,0,0,0-.66-.14A4.49,4.49,0,0,0,96,97a2.77,2.77,0,0,0-.73.08,1.93,1.93,0,0,0-.56.21,1.14,1.14,0,0,0-.35.34.8.8,0,0,0-.12.43.81.81,0,0,0,.13.47,1.68,1.68,0,0,0,.4.4,4.83,4.83,0,0,0,.62.37l.83.37a7.93,7.93,0,0,1,1.13.56,3.66,3.66,0,0,1,.86.67,2.49,2.49,0,0,1,.55.85,3,3,0,0,1,.19,1.12,3,3,0,0,1-.33,1.47,2.64,2.64,0,0,1-.91,1,3.89,3.89,0,0,1-1.32.53,7.55,7.55,0,0,1-1.6.16,9.66,9.66,0,0,1-1.65-.14A5.22,5.22,0,0,1,91.75,105.44Zm12.82.31A3.4,3.4,0,0,1,103,106c-1.63,0-2.45-.85-2.45-2.54V100H99.37v-1.7h1.21V96.72l2.31-.66v2.28h1.68V100h-1.68v3q0,1.17.93,1.17a1.55,1.55,0,0,0,.75-.21Zm4.82.27a4,4,0,0,1-2.94-1,4.32,4.32,0,0,1,0-5.76,4.16,4.16,0,0,1,3-1.06,4,4,0,0,1,2.93,1.06,3.75,3.75,0,0,1,1.06,2.78,4,4,0,0,1-1.1,3A4.09,4.09,0,0,1,109.39,106Zm.06-6.09a1.55,1.55,0,0,0-1.27.56,2.52,2.52,0,0,0-.46,1.6c0,1.44.58,2.16,1.75,2.16s1.66-.74,1.66-2.22S110.57,99.93,109.45,99.93Zm10.43.5a1.91,1.91,0,0,0-1-.23,1.39,1.39,0,0,0-1.18.55,2.44,2.44,0,0,0-.43,1.51v3.58H115v-7.5h2.31v1.39h0a2,2,0,0,1,2-1.52,1.69,1.69,0,0,1,.57.08Zm7.32,5.41H125v-1.08h0a2.44,2.44,0,0,1-2.23,1.26,2.35,2.35,0,0,1-1.72-.62,2.2,2.2,0,0,1-.63-1.65c0-1.45.86-2.29,2.59-2.52l2-.27c0-.82-.44-1.23-1.33-1.23a4.59,4.59,0,0,0-2.55.8V98.79a5.19,5.19,0,0,1,1.32-.44,6.85,6.85,0,0,1,1.53-.2q3.21,0,3.21,3.21Zm-2.18-3v-.5l-1.36.17c-.75.1-1.13.44-1.13,1a.83.83,0,0,0,.28.65,1,1,0,0,0,.74.25,1.35,1.35,0,0,0,1.06-.45A1.6,1.6,0,0,0,125,102.79ZM136.38,105a4.22,4.22,0,0,1-1.21,3.23,4.86,4.86,0,0,1-3.5,1.15,5.51,5.51,0,0,1-2.4-.43v-2a4.59,4.59,0,0,0,2.34.67,2.51,2.51,0,0,0,1.81-.61,2.25,2.25,0,0,0,.65-1.69v-.59h0A2.59,2.59,0,0,1,131.7,106a2.81,2.81,0,0,1-2.27-1,4.05,4.05,0,0,1-.85-2.71,4.57,4.57,0,0,1,.94-3A3.07,3.07,0,0,1,132,98.15a2.29,2.29,0,0,1,2,1.06h0v-.87h2.31Zm-2.28-2.75v-.59a1.82,1.82,0,0,0-.42-1.21,1.35,1.35,0,0,0-1.1-.5,1.43,1.43,0,0,0-1.21.6,2.83,2.83,0,0,0-.44,1.69,2.37,2.37,0,0,0,.42,1.48,1.35,1.35,0,0,0,1.14.55,1.46,1.46,0,0,0,1.17-.55A2.32,2.32,0,0,0,134.1,102.23Zm11,.52h-4.9c.08,1.09.77,1.63,2.06,1.63a4,4,0,0,0,2.18-.59v1.67a5.65,5.65,0,0,1-2.71.56,3.49,3.49,0,0,1-3.82-3.81,4,4,0,0,1,1.08-3,3.64,3.64,0,0,1,2.67-1.1,3.29,3.29,0,0,1,2.54,1,3.74,3.74,0,0,1,.9,2.64Zm-2.15-1.42c0-1.08-.44-1.62-1.3-1.62a1.25,1.25,0,0,0-1,.47,2.08,2.08,0,0,0-.49,1.15Z"/></svg>