<svg xmlns="http://www.w3.org/2000/svg" width="200" height="128"><defs><style>.cls-1{fill:#0072c6;}.cls-2,.cls-5{fill:#fff;}.cls-2{opacity:0.2;isolation:isolate;}.cls-3{fill:#7fba00;}.cls-4{fill:#b8d432;}.cls-6{fill:#706d6e;}</style></defs><path class="cls-1" d="M100,73a5.07,5.07,0,0,1-3.56-1.51L74.51,49.56a5,5,0,0,1,0-7.12L96.39,20.56a4.94,4.94,0,0,1,7.11,0l22,22a4.94,4.94,0,0,1,0,7.11l-22,21.78A5.06,5.06,0,0,1,100,73"/><path class="cls-2" d="M109.11,26.17l-5.61-5.61a4.94,4.94,0,0,0-7.11,0L74.51,42.44a5,5,0,0,0,0,7.12l8.95,8.94Z"/><path class="cls-3" d="M85.93,41H80.54V51.5c0,1.07,2.38,1.94,5.29,1.94h.1c3,0,5.39-.87,5.39-1.94V41Z"/><path class="cls-4" d="M85.93,41v12.4c3,0,5.39-.87,5.39-1.94V41Z"/><path class="cls-5" d="M91.32,41c0,1.4-2.37,2.48-5.39,2.48S80.54,42.44,80.54,41s2.38-2.48,5.39-2.48,5.39,1.08,5.39,2.48"/><path class="cls-3" d="M89.92,41c0,.76-1.72,1.4-4,1.4s-4-.64-4-1.4,1.72-1.4,4-1.4,4,.65,4,1.4"/><path class="cls-3" d="M114,41h-5.39V51.5c0,1.07,2.37,1.94,5.28,1.94H114c3,0,5.39-.87,5.39-1.94V41Z"/><path class="cls-4" d="M114,41v12.4c3,0,5.39-.87,5.39-1.94V41Z"/><path class="cls-5" d="M119.35,41c0,1.4-2.37,2.48-5.39,2.48s-5.39-1.08-5.39-2.48,2.37-2.48,5.39-2.48,5.39,1.08,5.39,2.48"/><path class="cls-3" d="M118,41c0,.76-1.73,1.4-4,1.4s-4-.64-4-1.4,1.72-1.4,4-1.4,4,.65,4,1.4"/><path class="cls-3" d="M100,27H94.56V37.49c0,1.07,2.37,1.94,5.28,1.94H100c3,0,5.39-.87,5.39-1.94V27Z"/><path class="cls-4" d="M100,27v12.4c3,0,5.39-.87,5.39-1.94V27Z"/><path class="cls-5" d="M105.34,27c0,1.4-2.38,2.48-5.39,2.48S94.56,28.43,94.56,27s2.37-2.48,5.39-2.48,5.39,1.08,5.39,2.48"/><path class="cls-3" d="M103.93,27c0,.75-1.72,1.4-4,1.4s-4-.65-4-1.4,1.83-1.4,4-1.4,4,.65,4,1.4"/><path class="cls-3" d="M100,55.05H94.56V65.51c0,1.08,2.37,1.94,5.28,1.94H100c3,0,5.39-.86,5.39-1.94V55.05Z"/><path class="cls-4" d="M100,55.05v12.4c3,0,5.39-.86,5.39-1.94V55.05Z"/><path class="cls-5" d="M105.34,55.05c0,1.41-2.38,2.48-5.39,2.48s-5.39-1.07-5.39-2.48,2.37-2.48,5.39-2.48,5.39,1.08,5.39,2.48"/><path class="cls-3" d="M103.93,55.05c0,.76-1.72,1.41-4,1.41s-4-.65-4-1.41,1.72-1.4,4-1.4,4,.65,4,1.4"/><path class="cls-6" d="M90.6,89.34H89.24l-1.11-3H83.67l-1,3H81.26l4-10.51h1.27Zm-2.87-4-1.65-4.48a3.34,3.34,0,0,1-.16-.7h0a4.22,4.22,0,0,1-.17.7l-1.64,4.48Zm9.49-3.11-4.44,6.13h4.39v1H91V89l4.44-6.1h-4v-1h5.79Zm7.61,7.16h-1.2V88.15h0a2.45,2.45,0,0,1-2.31,1.36c-1.79,0-2.68-1.06-2.68-3.19V81.84H99.8v4.29c0,1.58.61,2.37,1.82,2.37a1.82,1.82,0,0,0,1.45-.65,2.5,2.5,0,0,0,.56-1.69V81.84h1.2Zm6.34-6.29a1.47,1.47,0,0,0-.91-.24,1.51,1.51,0,0,0-1.28.73,3.29,3.29,0,0,0-.52,2v3.83h-1.2v-7.5h1.2v1.54h0a2.61,2.61,0,0,1,.78-1.23,1.77,1.77,0,0,1,1.18-.44,2,2,0,0,1,.72.1Zm7.13,2.84H113a2.8,2.8,0,0,0,.67,1.93,2.3,2.3,0,0,0,1.77.68,3.69,3.69,0,0,0,2.33-.83V88.8a4.41,4.41,0,0,1-2.61.71,3.18,3.18,0,0,1-2.5-1,4.2,4.2,0,0,1-.91-2.87,4.09,4.09,0,0,1,1-2.86,3.19,3.19,0,0,1,2.46-1.1,2.84,2.84,0,0,1,2.28,1,4,4,0,0,1,.8,2.65Zm-1.23-1a2.43,2.43,0,0,0-.5-1.62,1.73,1.73,0,0,0-1.37-.58,1.94,1.94,0,0,0-1.44.61,2.81,2.81,0,0,0-.74,1.59Zm-72,20.57v-2.35a4.53,4.53,0,0,0,1.39.8,4.36,4.36,0,0,0,1.5.27,3.53,3.53,0,0,0,.78-.08,1.82,1.82,0,0,0,.56-.22,1,1,0,0,0,.33-.34.78.78,0,0,0,.11-.42.88.88,0,0,0-.17-.55,2.09,2.09,0,0,0-.48-.45,4.76,4.76,0,0,0-.72-.39l-.9-.39a4.61,4.61,0,0,1-1.84-1.25,2.76,2.76,0,0,1-.6-1.79,2.73,2.73,0,0,1,1.22-2.38,4.14,4.14,0,0,1,1.32-.56,6.71,6.71,0,0,1,1.58-.18,8.92,8.92,0,0,1,1.45.1,5.56,5.56,0,0,1,1.17.3v2.19a3.12,3.12,0,0,0-.57-.32,4.88,4.88,0,0,0-.64-.23,5.18,5.18,0,0,0-.66-.14,4.49,4.49,0,0,0-.62,0,2.77,2.77,0,0,0-.73.08,2,2,0,0,0-.56.21,1.26,1.26,0,0,0-.35.34.8.8,0,0,0-.12.43.75.75,0,0,0,.14.47A1.47,1.47,0,0,0,48,99a4.38,4.38,0,0,0,.63.37c.24.12.52.24.82.37a7.93,7.93,0,0,1,1.13.56,3.46,3.46,0,0,1,.86.67,2.49,2.49,0,0,1,.55.85,3,3,0,0,1,.19,1.12,3,3,0,0,1-.33,1.47,2.7,2.7,0,0,1-.9,1,4,4,0,0,1-1.33.53,7.55,7.55,0,0,1-1.6.16,9.66,9.66,0,0,1-1.65-.14A5.22,5.22,0,0,1,45.06,105.44Zm15.31.2a5.4,5.4,0,0,0,.72.67,3.09,3.09,0,0,0,1.41.63,4.92,4.92,0,0,0,.8.06h.26l.28,0,.27-.06.24-.08v2a4.15,4.15,0,0,1-.64.13,5.92,5.92,0,0,1-1,.07,3.73,3.73,0,0,1-1.32-.23,4.77,4.77,0,0,1-1.16-.65,8.55,8.55,0,0,1-1.08-.95L58.05,106a4.81,4.81,0,0,1-1.95-.45,4.54,4.54,0,0,1-1.5-1.12,5.08,5.08,0,0,1-1-1.66,6.24,6.24,0,0,1-.34-2,5.64,5.64,0,0,1,1.44-4,5,5,0,0,1,3.84-1.54,4.71,4.71,0,0,1,3.62,1.48,5.39,5.39,0,0,1,1.39,3.87,5.93,5.93,0,0,1-.85,3.24A4.56,4.56,0,0,1,60.37,105.64ZM58.49,97.2a2.39,2.39,0,0,0-2,.93,4.52,4.52,0,0,0,0,4.94,2.54,2.54,0,0,0,3.87,0,3.87,3.87,0,0,0,.71-2.46,4.15,4.15,0,0,0-.68-2.52A2.25,2.25,0,0,0,58.49,97.2Zm13.09,8.64H65.33V95.33h2.36v8.59h3.89Zm11.85,0h-6.3V95.33h6.06v1.93H79.5V99.6h3.44v1.92H79.5v2.4h3.93Zm3.78,0H84.89V94.73h2.32Zm8.18,0H93.2v-1.08h0A2.43,2.43,0,0,1,90.94,106a2.35,2.35,0,0,1-1.72-.62,2.23,2.23,0,0,1-.62-1.65q0-2.18,2.58-2.52l2-.27c0-.82-.45-1.23-1.33-1.23a4.54,4.54,0,0,0-2.55.8V98.79a5.19,5.19,0,0,1,1.32-.44,6.85,6.85,0,0,1,1.53-.2q3.19,0,3.2,3.21Zm-2.17-3v-.5l-1.36.17c-.76.1-1.13.44-1.13,1a.86.86,0,0,0,.27.65,1.06,1.06,0,0,0,.75.25,1.38,1.38,0,0,0,1.06-.45A1.64,1.64,0,0,0,93.22,102.79Zm3.51,2.85v-1.87a4.76,4.76,0,0,0,1.14.51,3.9,3.9,0,0,0,1.08.17,2.34,2.34,0,0,0,1-.17.54.54,0,0,0,.35-.51.47.47,0,0,0-.16-.37,1.8,1.8,0,0,0-.41-.26,4.08,4.08,0,0,0-.56-.19l-.58-.2a6.35,6.35,0,0,1-.78-.37,2,2,0,0,1-.57-.45,1.77,1.77,0,0,1-.36-.59,2.36,2.36,0,0,1-.12-.8A2.06,2.06,0,0,1,97,99.46a2.37,2.37,0,0,1,.73-.75,3.5,3.5,0,0,1,1.05-.42,5.45,5.45,0,0,1,1.23-.14,7.1,7.1,0,0,1,1,.08,7.35,7.35,0,0,1,1,.23v1.78a3.64,3.64,0,0,0-.94-.38,3.85,3.85,0,0,0-1-.13,2,2,0,0,0-.43,0,1.6,1.6,0,0,0-.35.12.62.62,0,0,0-.25.19.57.57,0,0,0-.08.28.49.49,0,0,0,.13.35,1.11,1.11,0,0,0,.34.25,2.67,2.67,0,0,0,.48.19l.51.18a5.44,5.44,0,0,1,.84.35,2.5,2.5,0,0,1,.64.44,2,2,0,0,1,.41.6,2.31,2.31,0,0,1,.14.82,2.14,2.14,0,0,1-.29,1.14,2.18,2.18,0,0,1-.77.77,3.73,3.73,0,0,1-1.1.44A6.16,6.16,0,0,1,99,106,6.85,6.85,0,0,1,96.73,105.64Zm11.63.11a3.44,3.44,0,0,1-1.55.27c-1.63,0-2.44-.85-2.44-2.54V100h-1.22v-1.7h1.22V96.72l2.3-.66v2.28h1.69V100h-1.69v3q0,1.17.93,1.17a1.59,1.59,0,0,0,.76-.21Zm2.47-8.6a1.32,1.32,0,0,1-1-.35,1.1,1.1,0,0,1-.37-.85,1.07,1.07,0,0,1,.37-.85,1.58,1.58,0,0,1,1.93,0,1.1,1.1,0,0,1,.37.85,1.13,1.13,0,0,1-.37.86A1.37,1.37,0,0,1,110.83,97.15Zm1.15,8.69h-2.32v-7.5H112Zm7.63-.27a4.65,4.65,0,0,1-2.27.45,3.8,3.8,0,0,1-2.79-1,3.56,3.56,0,0,1-1.07-2.7,4,4,0,0,1,1.14-3,4.24,4.24,0,0,1,3.07-1.11,3.88,3.88,0,0,1,1.92.36v2a2.67,2.67,0,0,0-1.62-.54,2.12,2.12,0,0,0-1.58.58,2.16,2.16,0,0,0-.58,1.61,2.14,2.14,0,0,0,.55,1.56,2.08,2.08,0,0,0,1.54.57,3.07,3.07,0,0,0,1.69-.54Zm8.24-3.35v3.62h-2.36V95.33h3.7q4,0,4,3.35a3.22,3.22,0,0,1-1.13,2.56,4.54,4.54,0,0,1-3.05,1Zm0-5.07v3.28h.93c1.26,0,1.89-.56,1.89-1.66s-.63-1.62-1.89-1.62ZM137.6,106a4,4,0,0,1-2.94-1,4.32,4.32,0,0,1,0-5.76,4.16,4.16,0,0,1,3-1.06,4,4,0,0,1,2.93,1.06A3.75,3.75,0,0,1,141.7,102a4,4,0,0,1-1.1,3A4.09,4.09,0,0,1,137.6,106Zm.06-6.09a1.54,1.54,0,0,0-1.27.56,2.46,2.46,0,0,0-.46,1.6c0,1.44.58,2.16,1.75,2.16s1.66-.74,1.66-2.22S138.78,99.93,137.66,99.93Zm9.11,6.09a4,4,0,0,1-2.94-1,4.32,4.32,0,0,1,0-5.76,4.16,4.16,0,0,1,3-1.06,4,4,0,0,1,2.93,1.06,3.75,3.75,0,0,1,1.06,2.78,4,4,0,0,1-1.1,3A4.09,4.09,0,0,1,146.77,106Zm.06-6.09a1.54,1.54,0,0,0-1.27.56,2.46,2.46,0,0,0-.46,1.6c0,1.44.58,2.16,1.75,2.16s1.66-.74,1.66-2.22S148,99.93,146.83,99.93Zm7.85,5.91h-2.31V94.73h2.31Z"/></svg>