<svg xmlns="http://www.w3.org/2000/svg" width="200" height="128"><defs><style>.cls-1{fill:#0078d7;fill-rule:evenodd;}.cls-2{fill:#706d6e;}</style></defs><path class="cls-1" d="M95.19,19.47a5.06,5.06,0,0,0-3.84-.16,4.78,4.78,0,0,0-2.81,2.59l-.7,1.47H82.28a4.93,4.93,0,0,0-4.92,4.91V46.17l-3.88,8.31a4.88,4.88,0,0,0-.17,3.82,4.7,4.7,0,0,0,2.59,2.81l1.46.71v1.83a4.94,4.94,0,0,0,4.92,4.92h17.77l8.42,3.94a4.76,4.76,0,0,0,2.11.49,5.08,5.08,0,0,0,1.73-.32,4.85,4.85,0,0,0,2.81-2.6l.72-1.51h1.81a4.94,4.94,0,0,0,4.92-4.92v-14l3.93-8.42a4.77,4.77,0,0,0,.17-3.88,4.7,4.7,0,0,0-2.59-2.81l-1.51-.74V28.28a4.93,4.93,0,0,0-4.92-4.91H103.48Zm12.58,23.12h-6.86L103.77,33a.58.58,0,0,0-.27-.66.34.34,0,0,0-.22-.05.61.61,0,0,0-.42.21L91.78,48.7a.68.68,0,0,0,0,.54.55.55,0,0,0,.48.27h6.64l-3,9.71a.59.59,0,0,0,.26.66.37.37,0,0,0,.22,0,.69.69,0,0,0,.44-.22l11.39-16.3a.84.84,0,0,0,.1-.33A.52.52,0,0,0,107.77,42.59Zm-25.49-16h35.37a1.62,1.62,0,0,1,1.62,1.62V63.6a1.63,1.63,0,0,1-1.62,1.62H82.28a1.63,1.63,0,0,1-1.63-1.62V28.22A1.63,1.63,0,0,1,82.28,26.6Z"/><path class="cls-2" d="M90.6,89.34H89.24l-1.11-3H83.67l-1,3H81.26l4-10.51h1.27Zm-2.87-4-1.65-4.48a3.34,3.34,0,0,1-.16-.7h0a4.22,4.22,0,0,1-.17.7l-1.64,4.48Zm9.49-3.11-4.44,6.13h4.39v1H91V89l4.44-6.1h-4v-1h5.79Zm7.61,7.16h-1.2V88.15h0a2.45,2.45,0,0,1-2.31,1.36c-1.79,0-2.68-1.06-2.68-3.19V81.84H99.8v4.29c0,1.58.61,2.37,1.82,2.37a1.82,1.82,0,0,0,1.45-.65,2.5,2.5,0,0,0,.56-1.69V81.84h1.2Zm6.34-6.29a1.47,1.47,0,0,0-.91-.24,1.51,1.51,0,0,0-1.28.73,3.29,3.29,0,0,0-.52,2v3.83h-1.2v-7.5h1.2v1.54h0a2.61,2.61,0,0,1,.78-1.23,1.77,1.77,0,0,1,1.18-.44,2,2,0,0,1,.72.1Zm7.13,2.84H113a2.8,2.8,0,0,0,.67,1.93,2.3,2.3,0,0,0,1.77.68,3.69,3.69,0,0,0,2.33-.83V88.8a4.41,4.41,0,0,1-2.61.71,3.18,3.18,0,0,1-2.5-1,4.2,4.2,0,0,1-.91-2.87,4.09,4.09,0,0,1,1-2.86,3.19,3.19,0,0,1,2.46-1.1,2.84,2.84,0,0,1,2.28,1,4,4,0,0,1,.8,2.65Zm-1.23-1a2.43,2.43,0,0,0-.5-1.62,1.73,1.73,0,0,0-1.37-.58,1.94,1.94,0,0,0-1.44.61,2.81,2.81,0,0,0-.74,1.59Zm-84.52,21V95.33h3.72q5.59,0,5.6,5.13a5.15,5.15,0,0,1-1.53,3.91,5.62,5.62,0,0,1-4.07,1.47Zm2.37-8.58v6.66h1.17A3.18,3.18,0,0,0,38.5,103a3.5,3.5,0,0,0,.88-2.52,3.18,3.18,0,0,0-.87-2.36,3.33,3.33,0,0,0-2.44-.86Zm14.7,8.58H47.43v-1.08h0A2.46,2.46,0,0,1,45.17,106a2.35,2.35,0,0,1-1.72-.62,2.23,2.23,0,0,1-.62-1.65q0-2.18,2.58-2.52l2-.27c0-.82-.45-1.23-1.33-1.23a4.54,4.54,0,0,0-2.55.8V98.79a5.19,5.19,0,0,1,1.32-.44,6.85,6.85,0,0,1,1.53-.2c2.14,0,3.2,1.07,3.2,3.21Zm-2.17-3v-.5l-1.36.17c-.76.1-1.13.44-1.13,1a.86.86,0,0,0,.27.65,1.06,1.06,0,0,0,.75.25,1.37,1.37,0,0,0,1.06-.45A1.64,1.64,0,0,0,47.45,102.79Zm8.54,3a3.44,3.44,0,0,1-1.55.27c-1.63,0-2.44-.85-2.44-2.54V100H50.78v-1.7H52V96.72l2.3-.66v2.28H56V100H54.3v3q0,1.17.93,1.17A1.59,1.59,0,0,0,56,104Zm7.54.09H61.34v-1.08h0A2.43,2.43,0,0,1,59.08,106a2.35,2.35,0,0,1-1.72-.62,2.19,2.19,0,0,1-.62-1.65q0-2.18,2.58-2.52l2-.27c0-.82-.45-1.23-1.34-1.23a4.54,4.54,0,0,0-2.54.8V98.79a5.19,5.19,0,0,1,1.32-.44,6.85,6.85,0,0,1,1.53-.2q3.2,0,3.2,3.21Zm-2.17-3v-.5l-1.36.17c-.76.1-1.13.44-1.13,1a.86.86,0,0,0,.27.65,1.06,1.06,0,0,0,.75.25,1.38,1.38,0,0,0,1.06-.45A1.64,1.64,0,0,0,61.36,102.79Zm14.62,3H69.73V95.33H72.1v8.59H76Zm7.43,0H81.22v-1.08h0A2.44,2.44,0,0,1,79,106a2.35,2.35,0,0,1-1.72-.62,2.2,2.2,0,0,1-.63-1.65c0-1.45.87-2.29,2.59-2.52l2-.27c0-.82-.45-1.23-1.34-1.23a4.59,4.59,0,0,0-2.55.8V98.79a5.42,5.42,0,0,1,1.33-.44,6.69,6.69,0,0,1,1.52-.2q3.21,0,3.21,3.21Zm-2.17-3v-.5l-1.37.17c-.75.1-1.12.44-1.12,1a.86.86,0,0,0,.27.65,1,1,0,0,0,.74.25,1.39,1.39,0,0,0,1.07-.45A1.64,1.64,0,0,0,81.24,102.79Zm11.52,3H90l-2.39-3.72h0v3.72H85.24V94.73h2.32v7.07h0l2.23-3.46h2.75l-2.69,3.52Zm7.39-3.09H95.26c.08,1.09.77,1.63,2.06,1.63a4,4,0,0,0,2.18-.59v1.67a5.65,5.65,0,0,1-2.71.56A3.49,3.49,0,0,1,93,102.21a4,4,0,0,1,1.08-3,3.62,3.62,0,0,1,2.67-1.1,3.29,3.29,0,0,1,2.54,1,3.78,3.78,0,0,1,.89,2.64ZM98,101.33c0-1.08-.44-1.62-1.31-1.62a1.24,1.24,0,0,0-1,.47,2.08,2.08,0,0,0-.49,1.15Zm17.12,4.51h-2.58l-.74-2.34h-3.74l-.74,2.34h-2.56l3.82-10.51h2.81Zm-3.86-4.15-1.13-3.54a4.36,4.36,0,0,1-.18-.94h-.06a3.58,3.58,0,0,1-.18.91l-1.14,3.57Zm12.19,4.15h-2.31v-4.17c0-1.16-.41-1.74-1.24-1.74a1.23,1.23,0,0,0-1,.46,1.76,1.76,0,0,0-.39,1.17v4.28h-2.31v-7.5h2.31v1.18h0A2.66,2.66,0,0,1,121,98.15c1.66,0,2.49,1,2.49,3.1Zm8.07,0h-2.19v-1.08h0a2.44,2.44,0,0,1-2.23,1.26,2.35,2.35,0,0,1-1.72-.62,2.2,2.2,0,0,1-.63-1.65c0-1.45.87-2.29,2.59-2.52l2-.27c0-.82-.45-1.23-1.34-1.23a4.59,4.59,0,0,0-2.55.8V98.79a5.42,5.42,0,0,1,1.33-.44,6.69,6.69,0,0,1,1.52-.2q3.21,0,3.21,3.21Zm-2.17-3v-.5l-1.37.17c-.75.1-1.12.44-1.12,1a.86.86,0,0,0,.27.65,1,1,0,0,0,.74.25,1.39,1.39,0,0,0,1.07-.45A1.64,1.64,0,0,0,129.36,102.79Zm6.32,3h-2.32V94.73h2.32Zm9.09-7.5-3.05,8.1c-.73,2-1.84,2.92-3.31,2.92a4.24,4.24,0,0,1-1.39-.19v-1.85a2,2,0,0,0,1,.28,1.26,1.26,0,0,0,1.24-.85l.4-.93-3-7.48h2.57l1.39,4.56a5.82,5.82,0,0,1,.21,1h0a6,6,0,0,1,.24-1l1.41-4.58Zm5.49,7.41a3.44,3.44,0,0,1-1.55.27c-1.63,0-2.44-.85-2.44-2.54V100h-1.22v-1.7h1.22V96.72l2.3-.66v2.28h1.69V100h-1.69v3q0,1.17.93,1.17a1.59,1.59,0,0,0,.76-.21Zm2.47-8.6a1.28,1.28,0,0,1-.95-.35,1.11,1.11,0,0,1-.38-.85,1.08,1.08,0,0,1,.38-.85,1.36,1.36,0,0,1,.95-.33,1.41,1.41,0,0,1,1,.33,1.1,1.1,0,0,1,.37.85,1.13,1.13,0,0,1-.37.86A1.37,1.37,0,0,1,152.73,97.15Zm1.15,8.69h-2.32v-7.5h2.32Zm7.63-.27a4.61,4.61,0,0,1-2.26.45,3.81,3.81,0,0,1-2.8-1,3.6,3.6,0,0,1-1.07-2.7,4,4,0,0,1,1.15-3,4.2,4.2,0,0,1,3.06-1.11,3.88,3.88,0,0,1,1.92.36v2a2.63,2.63,0,0,0-1.62-.54,2.14,2.14,0,0,0-1.58.58,2.49,2.49,0,0,0,0,3.17,2,2,0,0,0,1.53.57,3.07,3.07,0,0,0,1.69-.54Zm1,.07v-1.87a4.94,4.94,0,0,0,1.14.51,3.9,3.9,0,0,0,1.08.17,2.34,2.34,0,0,0,1-.17.54.54,0,0,0,.35-.51.47.47,0,0,0-.16-.37,1.61,1.61,0,0,0-.41-.26,4.08,4.08,0,0,0-.56-.19c-.2-.06-.39-.13-.57-.2a6.54,6.54,0,0,1-.79-.37,2,2,0,0,1-.57-.45,1.6,1.6,0,0,1-.35-.59,2.13,2.13,0,0,1-.13-.8,2.06,2.06,0,0,1,.28-1.08,2.37,2.37,0,0,1,.73-.75,3.5,3.5,0,0,1,1.05-.42,5.45,5.45,0,0,1,1.23-.14,7.08,7.08,0,0,1,2,.31v1.78a3.64,3.64,0,0,0-.94-.38,3.85,3.85,0,0,0-1-.13,2,2,0,0,0-.43,0,1.6,1.6,0,0,0-.35.12.52.52,0,0,0-.24.19.51.51,0,0,0,0,.63,1.11,1.11,0,0,0,.34.25,3,3,0,0,0,.48.19l.51.18a5.44,5.44,0,0,1,.84.35,2.5,2.5,0,0,1,.64.44,2,2,0,0,1,.41.6,2.31,2.31,0,0,1,.14.82,2.14,2.14,0,0,1-.29,1.14,2.18,2.18,0,0,1-.77.77,3.73,3.73,0,0,1-1.1.44,6.16,6.16,0,0,1-1.3.13A6.85,6.85,0,0,1,162.53,105.64Z"/></svg>