<svg xmlns="http://www.w3.org/2000/svg" width="200" height="128">
	<defs>
		<style>
			.cls-6{fill:#f1f1f1}
		</style>
	</defs>
	<path d="m119.76 53.45 1.3-3.35 5.94-2.05V43.3l-.65-.22-5.29-1.51-1.3-3.35 2.7-5.5-3.34-3.35-.65.32-4.86 2.49-3.46-1.41-2.15-5.72h-4.86l-.21.65-1.62 5.07-3.31 1.3-5.73-2.49-3.45 3.35.32.65 1.51 2.81a17 17 0 0 1 8.54-2.16 17.41 17.41 0 0 1 11.12 4.53 24.92 24.92 0 0 1 2 1.73 8.74 8.74 0 0 1 .87 1.19 8.44 8.44 0 0 1-2.18 10.8 8.29 8.29 0 0 1-8.54 1.19c-.32-.22-.54-.22-.64-.33a11 11 0 0 1-1.82-1.29c-.22 0-.32-.22-.65-.22a2.65 2.65 0 0 0-1.83.87l-.22.21a16.2 16.2 0 0 1-6.91 4.32l-1 2.05 3.24 3.24.21.22.65-.32 4.86-2.49 3.35 1.3 1.86 5.77h4.86l.22-.65 1.73-5.07 3.35-1.3 5.72 2.49 3.24-3.57-.32-.65Z" style="fill:#7a7a7a"/>
	<path d="M90.82 45a8.62 8.62 0 0 1-13.07-.22.91.91 0 0 0-1.51 0 1.22 1.22 0 0 0-.32.87 2.06 2.06 0 0 0 .32.86 10.9 10.9 0 0 0 16.2.22 8.66 8.66 0 0 1 13 .32c.54.54 1.19.54 1.51 0a1.22 1.22 0 0 0 .33-.86 2.06 2.06 0 0 0-.33-.87A10.86 10.86 0 0 0 90.82 45Z" style="fill:#48c8ef"/>
	<path d="M98.92 47.08a6.86 6.86 0 0 0-5.18 2.16l-.22.22-.22.21a12.16 12.16 0 0 1-9.39 3.89c-3.57 0-6.7-1.73-9.29-4.32-.54-.54-1.19-.54-1.51 0-.11 0-.11.22-.11.54a1.45 1.45 0 0 0 .54 1 14.29 14.29 0 0 0 10.8 5.08 14 14 0 0 0 10.91-4.75l.21-.22.22-.22a4.9 4.9 0 0 1 3.56-1.51 5.1 5.1 0 0 1 3.57 1.73c.54.54 1.19.54 1.51 0a1.21 1.21 0 0 0 .32-.86 2 2 0 0 0-.32-.87 8.77 8.77 0 0 0-5.4-2.08Z" style="fill:#00abec"/>
	<path d="M89.85 42.65a12.65 12.65 0 0 1 9.39-4 12.51 12.51 0 0 1 9.08 4.35c.54.54 1.18.54 1.51 0a1.26 1.26 0 0 0 .32-.87 2 2 0 0 0-.32-.86A14.29 14.29 0 0 0 99 36.17a14.49 14.49 0 0 0-10.91 4.75l-.22.22-.21.22a4.74 4.74 0 0 1-7.13-.22c-.54-.54-1.19-.54-1.51 0a1.22 1.22 0 0 0-.33.86 2.06 2.06 0 0 0 .33.87 6.94 6.94 0 0 0 10.26.21l.21-.21Z" style="fill:#84d6ef"/>
	<g style="opacity:.2;isolation:isolate">
		<path class="cls-6" d="M99.89 51.94c-.21 0-.32-.22-.65-.22a2.67 2.67 0 0 0-1.83.87l-.22.21a16.1 16.1 0 0 1-6.91 4.32l-1 2.06L91 60.9l8.85-9Z"/>
		<path class="cls-6" d="M90.71 36.5a16.92 16.92 0 0 1 8.53-2.16 17.38 17.38 0 0 1 11.13 4.53l1.51 1.19 9-9-1.88-1.8-.65.32-4.86 2.49-3.35-1.3-2.14-5.72h-4.86l-.21.65-1.62 5.07-3.31 1.3-5.73-2.49-3.45 3.35.32.65Z"/>
	</g>
	<path d="M90.6 89.34h-1.36l-1.11-3h-4.46l-1 3h-1.41l4-10.51h1.27Zm-2.87-4-1.65-4.48a3.34 3.34 0 0 1-.16-.7 4.22 4.22 0 0 1-.17.7l-1.64 4.48Zm9.49-3.11-4.44 6.13h4.39v1H91V89l4.44-6.1h-4v-1h5.79Zm7.61 7.16h-1.2v-1.24a2.45 2.45 0 0 1-2.31 1.36c-1.79 0-2.68-1.06-2.68-3.19v-4.48h1.16v4.29c0 1.58.61 2.37 1.82 2.37a1.82 1.82 0 0 0 1.45-.65 2.5 2.5 0 0 0 .56-1.69v-4.32h1.2Zm6.34-6.29a1.47 1.47 0 0 0-.91-.24 1.51 1.51 0 0 0-1.28.73 3.29 3.29 0 0 0-.52 2v3.83h-1.2v-7.5h1.2v1.54a2.61 2.61 0 0 1 .78-1.23 1.77 1.77 0 0 1 1.18-.44 2 2 0 0 1 .72.1Zm7.13 2.84H113a2.8 2.8 0 0 0 .67 1.93 2.3 2.3 0 0 0 1.77.68 3.69 3.69 0 0 0 2.33-.83v1.08a4.41 4.41 0 0 1-2.61.71 3.18 3.18 0 0 1-2.5-1 4.2 4.2 0 0 1-.91-2.87 4.09 4.09 0 0 1 1-2.86 3.19 3.19 0 0 1 2.46-1.1 2.84 2.84 0 0 1 2.28 1 4 4 0 0 1 .8 2.65Zm-1.23-1a2.43 2.43 0 0 0-.5-1.62 1.73 1.73 0 0 0-1.37-.58 1.94 1.94 0 0 0-1.44.61 2.81 2.81 0 0 0-.74 1.59Zm-75.25 20.5v-2.35a4.37 4.37 0 0 0 1.38.8 4.42 4.42 0 0 0 1.51.27 3.53 3.53 0 0 0 .78-.08 1.92 1.92 0 0 0 .56-.22 1 1 0 0 0 .33-.34.9.9 0 0 0-.07-1 1.75 1.75 0 0 0-.48-.45 4.76 4.76 0 0 0-.72-.39l-.9-.39a4.57 4.57 0 0 1-1.83-1.25 2.72 2.72 0 0 1-.61-1.79 2.83 2.83 0 0 1 .33-1.41 2.79 2.79 0 0 1 .9-1 4.18 4.18 0 0 1 1.31-.56 6.79 6.79 0 0 1 1.59-.18 9 9 0 0 1 1.45.1 5.89 5.89 0 0 1 1.17.3v2.19a3.6 3.6 0 0 0-.58-.32 4.41 4.41 0 0 0-.64-.23 5.42 5.42 0 0 0-.65-.14 4.59 4.59 0 0 0-.65 0 2.77 2.77 0 0 0-.73.08 1.93 1.93 0 0 0-.56.21 1.14 1.14 0 0 0-.35.34.73.73 0 0 0-.13.43.82.82 0 0 0 .14.47 1.68 1.68 0 0 0 .4.4 4.83 4.83 0 0 0 .62.37c.24.12.52.24.83.37a8.5 8.5 0 0 1 1.13.56 3.88 3.88 0 0 1 .86.67 2.64 2.64 0 0 1 .55.85 3 3 0 0 1 .19 1.12 3 3 0 0 1-.33 1.47 2.82 2.82 0 0 1-.91 1 3.86 3.86 0 0 1-1.33.53 7.48 7.48 0 0 1-1.6.16 9.63 9.63 0 0 1-1.64-.14 5.22 5.22 0 0 1-1.32-.45Zm12.82.31a3.43 3.43 0 0 1-1.54.27c-1.63 0-2.45-.85-2.45-2.54V100h-1.22v-1.7h1.22v-1.58l2.35-.66v2.28h1.68V100H53v3q0 1.17.93 1.17a1.58 1.58 0 0 0 .75-.21Zm6.2-5.32a2 2 0 0 0-1-.23 1.41 1.41 0 0 0-1.18.55 2.44 2.44 0 0 0-.42 1.51v3.58H56v-7.5h2.31v1.39a2 2 0 0 1 2-1.52 1.73 1.73 0 0 1 .57.08Zm7.75 2.32H63.7c.08 1.09.77 1.63 2.06 1.63a4 4 0 0 0 2.18-.59v1.67a5.65 5.65 0 0 1-2.71.56 3.49 3.49 0 0 1-3.82-3.81 4 4 0 0 1 1.08-3 3.62 3.62 0 0 1 2.67-1.1 3.29 3.29 0 0 1 2.54 1 3.78 3.78 0 0 1 .89 2.64Zm-2.14-1.42c0-1.08-.44-1.62-1.31-1.62a1.24 1.24 0 0 0-1 .47 2.08 2.08 0 0 0-.49 1.15Zm9.76 4.51H74v-1.08a2.44 2.44 0 0 1-2.24 1.24 2.35 2.35 0 0 1-1.76-.6 2.2 2.2 0 0 1-.63-1.65c0-1.45.87-2.29 2.59-2.52l2-.27c0-.82-.45-1.23-1.34-1.23a4.59 4.59 0 0 0-2.55.8v-1.74a5.42 5.42 0 0 1 1.33-.44 6.76 6.76 0 0 1 1.52-.2q3.21 0 3.21 3.21Zm-2.17-3v-.5l-1.37.17c-.75.1-1.12.44-1.12 1a.86.86 0 0 0 .27.65 1 1 0 0 0 .74.25 1.39 1.39 0 0 0 1.07-.45 1.64 1.64 0 0 0 .37-1.17Zm15.91 3h-2.31v-4.28c0-1.09-.4-1.63-1.2-1.63a1.1 1.1 0 0 0-.93.49 2 2 0 0 0-.36 1.22v4.2h-2.31v-4.32c0-1.06-.39-1.59-1.18-1.59a1.13 1.13 0 0 0-1 .47 2.08 2.08 0 0 0-.35 1.27v4.17H78v-7.5h2.32v1.17a2.77 2.77 0 0 1 1-1 2.82 2.82 0 0 1 1.42-.38A2.17 2.17 0 0 1 85 99.55a2.78 2.78 0 0 1 2.52-1.4c1.63 0 2.44 1 2.44 3Zm15.43 0h-2.57l-.75-2.34h-3.74l-.74 2.34H95l3.82-10.51h2.81Zm-3.86-4.15-1.13-3.54a5.07 5.07 0 0 1-.18-.94h-.06a3.58 3.58 0 0 1-.18.91l-1.14 3.57Zm12.19 4.15h-2.31v-4.17c0-1.16-.41-1.74-1.24-1.74a1.23 1.23 0 0 0-1 .46 1.76 1.76 0 0 0-.39 1.17v4.28h-2.31v-7.5h2.31v1.18a2.66 2.66 0 0 1 2.41-1.37c1.66 0 2.49 1 2.49 3.1Zm8.07 0h-2.19v-1.08a2.43 2.43 0 0 1-2.23 1.26 2.35 2.35 0 0 1-1.72-.62 2.19 2.19 0 0 1-.62-1.65q0-2.18 2.58-2.52l2-.27c0-.82-.45-1.23-1.34-1.23a4.54 4.54 0 0 0-2.54.8v-1.74a5.19 5.19 0 0 1 1.32-.44 6.84 6.84 0 0 1 1.52-.2q3.21 0 3.21 3.21Zm-2.17-3v-.5l-1.36.17c-.76.1-1.13.44-1.13 1a.86.86 0 0 0 .27.65 1.06 1.06 0 0 0 .75.25 1.38 1.38 0 0 0 1.06-.45 1.64 1.64 0 0 0 .41-1.17Zm6.32 3h-2.32V94.73h2.32Zm9.09-7.5-3.05 8.1c-.73 2-1.84 2.92-3.31 2.92a4.14 4.14 0 0 1-1.38-.19v-1.85a1.93 1.93 0 0 0 1 .28 1.25 1.25 0 0 0 1.24-.85l.4-.93-3-7.48h2.57l1.4 4.56a7 7 0 0 1 .2 1 6 6 0 0 1 .24-1l1.42-4.58Zm5.49 7.41a3.43 3.43 0 0 1-1.51.25c-1.64 0-2.45-.85-2.45-2.54V100h-1.25v-1.7h1.22v-1.58l2.31-.66v2.28h1.68V100h-1.68v3q0 1.17.93 1.17a1.58 1.58 0 0 0 .75-.21Zm2.48-8.6a1.32 1.32 0 0 1-1-.35 1.11 1.11 0 0 1-.38-.85 1.08 1.08 0 0 1 .38-.85 1.56 1.56 0 0 1 1.92 0 1.07 1.07 0 0 1 .37.85 1.09 1.09 0 0 1-.37.86 1.36 1.36 0 0 1-.91.34Zm1.14 8.69h-2.32v-7.5h2.32Zm7.63-.27a4.61 4.61 0 0 1-2.26.45 3.83 3.83 0 0 1-2.8-1 3.6 3.6 0 0 1-1.07-2.7 4 4 0 0 1 1.15-3 4.2 4.2 0 0 1 3.06-1.11 3.83 3.83 0 0 1 1.92.36v2a2.63 2.63 0 0 0-1.62-.54 2.14 2.14 0 0 0-1.58.58 2.2 2.2 0 0 0-.58 1.61 2.14 2.14 0 0 0 .56 1.56 2 2 0 0 0 1.53.57 3 3 0 0 0 1.69-.54Zm1 .07v-1.87a4.88 4.88 0 0 0 1.13.51 3.9 3.9 0 0 0 1.08.17 2.34 2.34 0 0 0 1-.17.53.53 0 0 0 .35-.51.47.47 0 0 0-.16-.37 1.45 1.45 0 0 0-.41-.26 3.93 3.93 0 0 0-.55-.19l-.58-.2a6.54 6.54 0 0 1-.79-.37 2 2 0 0 1-.57-.45 1.6 1.6 0 0 1-.35-.59 2.36 2.36 0 0 1-.12-.8 2.06 2.06 0 0 1 .27-1.08 2.37 2.37 0 0 1 .73-.75 3.5 3.5 0 0 1 1.05-.42 5.45 5.45 0 0 1 1.23-.14 7.08 7.08 0 0 1 2 .31v1.78a3.5 3.5 0 0 0-.94-.38 3.85 3.85 0 0 0-1-.13 2 2 0 0 0-.43 0 1.6 1.6 0 0 0-.35.12.65.65 0 0 0-.24.19.51.51 0 0 0 0 .63 1 1 0 0 0 .35.25 2.56 2.56 0 0 0 .47.19l.51.18a5.44 5.44 0 0 1 .84.35 2.5 2.5 0 0 1 .64.44 2 2 0 0 1 .41.6 2.11 2.11 0 0 1 .14.82 2.06 2.06 0 0 1-.29 1.14 2.18 2.18 0 0 1-.77.77 3.62 3.62 0 0 1-1.1.44 6.16 6.16 0 0 1-1.3.13 6.75 6.75 0 0 1-2.22-.34Z" style="fill:#706d6e"/>
</svg>
