<svg xmlns="http://www.w3.org/2000/svg" width="200" height="128"><defs><style>.cls-1{fill:#006fd4;}.cls-2{fill:#706d6e;}</style></defs><path class="cls-1" d="M106.3,43.28a.91.91,0,0,1-.93.93h-7a.91.91,0,0,1-.93-.93V38.11a.9.9,0,0,1,.93-.93h7a.9.9,0,0,1,.93.93Zm12.61,5.44a.91.91,0,0,1-.93.93h-7a.91.91,0,0,1-.93-.93V43.55a.9.9,0,0,1,.93-.93h7a.9.9,0,0,1,.93.93ZM106.3,54a.91.91,0,0,1-.93.93h-7a.91.91,0,0,1-.93-.93V48.85a.91.91,0,0,1,.93-.93h7a.91.91,0,0,1,.93.93ZM93.7,37.84a.91.91,0,0,1-.93.93H85.6a.9.9,0,0,1-.92-.93V32.4a.9.9,0,0,1,.92-.93h7a1,1,0,0,1,1.06.93ZM125.14,19H74.72a.9.9,0,0,0-.92.93V30.68a.89.89,0,0,0,.92.92h5.44a.9.9,0,0,0,.93-.92V26.16h37.82v4.52a.94.94,0,0,0,1.06.92h5.17a.9.9,0,0,0,.93-.92V19.8C126.07,19.27,125.67,19,125.14,19Zm0,41.53H120a.91.91,0,0,0-.93.93v4.38H81.09V61.32A.94.94,0,0,0,80,60.4H74.86a.94.94,0,0,0-.93,1.06V72.07a.91.91,0,0,0,.93.93h50.42a.9.9,0,0,0,.92-.93V61.46A1.12,1.12,0,0,0,125.14,60.53ZM93.57,48.59a.91.91,0,0,1-.93.93h-7a.9.9,0,0,1-.92-.93V43.41a.9.9,0,0,1,.92-.93h7a.91.91,0,0,1,.93.93Zm0,10.74a.91.91,0,0,1-.93.93h-7a.9.9,0,0,1-.92-.93V54.16a.9.9,0,0,1,.92-.93h7a.91.91,0,0,1,.93.93Z"/><path class="cls-2" d="M90.6,89.34H89.24l-1.11-3H83.67l-1,3H81.26l4-10.51h1.27Zm-2.87-4-1.65-4.48a3.34,3.34,0,0,1-.16-.7h0a4.22,4.22,0,0,1-.17.7l-1.64,4.48Zm9.49-3.11-4.44,6.13h4.39v1H91V89l4.44-6.1h-4v-1h5.79Zm7.61,7.16h-1.2V88.15h0a2.45,2.45,0,0,1-2.31,1.36c-1.79,0-2.68-1.06-2.68-3.19V81.84H99.8v4.29c0,1.58.61,2.37,1.82,2.37a1.82,1.82,0,0,0,1.45-.65,2.5,2.5,0,0,0,.56-1.69V81.84h1.2Zm6.34-6.29a1.47,1.47,0,0,0-.91-.24,1.51,1.51,0,0,0-1.28.73,3.29,3.29,0,0,0-.52,2v3.83h-1.2v-7.5h1.2v1.54h0a2.61,2.61,0,0,1,.78-1.23,1.77,1.77,0,0,1,1.18-.44,2,2,0,0,1,.72.1Zm7.13,2.84H113a2.8,2.8,0,0,0,.67,1.93,2.3,2.3,0,0,0,1.77.68,3.69,3.69,0,0,0,2.33-.83V88.8a4.41,4.41,0,0,1-2.61.71,3.18,3.18,0,0,1-2.5-1,4.2,4.2,0,0,1-.91-2.87,4.09,4.09,0,0,1,1-2.86,3.19,3.19,0,0,1,2.46-1.1,2.84,2.84,0,0,1,2.28,1,4,4,0,0,1,.8,2.65Zm-1.23-1a2.43,2.43,0,0,0-.5-1.62,1.73,1.73,0,0,0-1.37-.58,1.94,1.94,0,0,0-1.44.61,2.81,2.81,0,0,0-.74,1.59ZM71,105.84H64.7V95.33h6.06v1.93H67.07V99.6H70.5v1.92H67.07v2.4H71Zm8.6-7.5-2.79,7.5H74.17l-2.66-7.5H74l1.3,4.62a7,7,0,0,1,.26,1.33h0a7.11,7.11,0,0,1,.27-1.29l1.33-4.66Zm7.58,4.41H82.29c.08,1.09.76,1.63,2.06,1.63a3.92,3.92,0,0,0,2.17-.59v1.67a5.58,5.58,0,0,1-2.7.56A3.5,3.5,0,0,1,80,102.21a4,4,0,0,1,1.09-3,3.6,3.6,0,0,1,2.66-1.1,3.28,3.28,0,0,1,2.54,1,3.74,3.74,0,0,1,.9,2.64ZM85,101.33c0-1.08-.43-1.62-1.3-1.62a1.24,1.24,0,0,0-1,.47,2.09,2.09,0,0,0-.5,1.15Zm10.77,4.51H93.49v-4.17c0-1.16-.41-1.74-1.24-1.74a1.23,1.23,0,0,0-1,.46,1.76,1.76,0,0,0-.39,1.17v4.28H88.56v-7.5h2.31v1.18h0a2.66,2.66,0,0,1,2.41-1.37c1.66,0,2.49,1,2.49,3.1Zm6.37-.09a3.47,3.47,0,0,1-1.55.27c-1.63,0-2.45-.85-2.45-2.54V100H97v-1.7h1.21V96.72l2.31-.66v2.28h1.69V100h-1.69v3q0,1.17.93,1.17a1.62,1.62,0,0,0,.76-.21Zm14.75.09h-2.37v-4.28H110.2v4.28h-2.37V95.33h2.37v4.19h4.35V95.33h2.37Zm9.31,0h-2.31V104.7h0a2.61,2.61,0,0,1-2.29,1.32c-1.74,0-2.61-1-2.61-3.16V98.34h2.31v4.32q0,1.59,1.26,1.59a1.23,1.23,0,0,0,1-.44,1.74,1.74,0,0,0,.38-1.18V98.34h2.31Zm4.29-.87h0v.87h-2.32V94.73h2.32v4.74h0A2.74,2.74,0,0,1,133,98.15a2.69,2.69,0,0,1,2.23,1,4.32,4.32,0,0,1,.78,2.73,4.66,4.66,0,0,1-.91,3,3,3,0,0,1-2.45,1.13A2.36,2.36,0,0,1,130.52,105Zm-.07-3.17v.77a1.74,1.74,0,0,0,.42,1.2,1.35,1.35,0,0,0,1.07.48,1.45,1.45,0,0,0,1.23-.61,3,3,0,0,0,.43-1.74,2.33,2.33,0,0,0-.4-1.45,1.33,1.33,0,0,0-1.14-.52,1.45,1.45,0,0,0-1.15.52A1.94,1.94,0,0,0,130.45,101.8Z"/></svg>