<svg xmlns="http://www.w3.org/2000/svg" width="200" height="128"><defs><style>.cls-1{fill:#0078d7;}.cls-2{fill:#706d6e;}</style></defs><path class="cls-1" d="M123.68,21.09H75.89a3,3,0,0,0-2.89,3V57.48a3,3,0,0,0,2.89,3H92.2c1.74,6.21-.57,7.08-11,7.08v3.32h35.23V67.59c-10.4,0-11.41-.87-9.67-7.08h16.89a3.42,3.42,0,0,0,3.32-3V24.13A3.43,3.43,0,0,0,123.68,21.09Zm-.87,35.23H77V25.14h45.77ZM107.77,35l-8.38-4.76L91,35v.15l8.37,4.76L107.77,35Zm-7.48,6.28v9.53L108.67,46V36.5Zm-1.72,0L90.2,36.5V46l8.37,4.76Z"/><path class="cls-2" d="M90.6,89.34H89.24l-1.11-3H83.67l-1,3H81.26l4-10.51h1.27Zm-2.87-4-1.65-4.48a3.34,3.34,0,0,1-.16-.7h0a4.22,4.22,0,0,1-.17.7l-1.64,4.48Zm9.49-3.11-4.44,6.13h4.39v1H91V89l4.44-6.1h-4v-1h5.79Zm7.61,7.16h-1.2V88.15h0a2.45,2.45,0,0,1-2.31,1.36c-1.79,0-2.68-1.06-2.68-3.19V81.84H99.8v4.29c0,1.58.61,2.37,1.82,2.37a1.82,1.82,0,0,0,1.45-.65,2.5,2.5,0,0,0,.56-1.69V81.84h1.2Zm6.34-6.29a1.47,1.47,0,0,0-.91-.24,1.51,1.51,0,0,0-1.28.73,3.29,3.29,0,0,0-.52,2v3.83h-1.2v-7.5h1.2v1.54h0a2.61,2.61,0,0,1,.78-1.23,1.77,1.77,0,0,1,1.18-.44,2,2,0,0,1,.72.1Zm7.13,2.84H113a2.8,2.8,0,0,0,.67,1.93,2.3,2.3,0,0,0,1.77.68,3.69,3.69,0,0,0,2.33-.83V88.8a4.41,4.41,0,0,1-2.61.71,3.18,3.18,0,0,1-2.5-1,4.2,4.2,0,0,1-.91-2.87,4.09,4.09,0,0,1,1-2.86,3.19,3.19,0,0,1,2.46-1.1,2.84,2.84,0,0,1,2.28,1,4,4,0,0,1,.8,2.65Zm-1.23-1a2.43,2.43,0,0,0-.5-1.62,1.73,1.73,0,0,0-1.37-.58,1.94,1.94,0,0,0-1.44.61,2.81,2.81,0,0,0-.74,1.59ZM97.77,95.33l-3.62,10.51H91.47L87.89,95.33h2.55l2.19,7.31a4.85,4.85,0,0,1,.21,1h0a5.44,5.44,0,0,1,.23-1.07l2.17-7.29ZM111,105.84h-2.33V99.55c0-.67,0-1.43.09-2.25h-.06a12.48,12.48,0,0,1-.33,1.4l-2.46,7.14H104l-2.5-7.07a12.91,12.91,0,0,1-.33-1.47h-.07c.07,1,.1,2,.1,2.73v5.81H99V95.33h3.46l2.15,6.23a9.12,9.12,0,0,1,.37,1.5h0c.14-.58.28-1.08.42-1.51l2.15-6.22H111Z"/></svg>