<svg xmlns="http://www.w3.org/2000/svg" width="200" height="128">
	<defs>
		<style>
			.cls-3{fill:#fff}
		</style>
	</defs>
	<path d="M87.8 49.08v5.83L74.08 43.25H127v-17.5a6.83 6.83 0 0 0-7.13-6.7H79.8c-4 0-6.8 2.38-6.8 6.38v6.37h39.53V26l13.71 11.66H73v16.06c0 4 2.92 7.56 6.8 7.56h14.48L106.16 73l.1-11.67h13.5a7.15 7.15 0 0 0 7.24-7.18V49H87.8Z" style="fill:#ff8c00"/>
	<g style="opacity:.2">
		<path class="cls-3" d="M79.8 61.39h10.48l6.16-12.2h-8.75V55L74.08 43.25h25.16l3-5.62H73v16.09c0 4 2.92 7.56 6.8 7.67Z"/>
		<path class="cls-3" d="M111.45 19.05H79.8c-4 0-6.8 2.38-6.8 6.38v6.37h32.08Z"/>
	</g>
	<path d="M90.6 89.34h-1.36l-1.11-3h-4.46l-1 3h-1.41l4-10.51h1.27Zm-2.87-4-1.65-4.48a3.34 3.34 0 0 1-.16-.7 4.22 4.22 0 0 1-.17.7l-1.64 4.48Zm9.49-3.11-4.44 6.13h4.39v1H91V89l4.44-6.1h-4v-1h5.79Zm7.61 7.16h-1.2v-1.24a2.45 2.45 0 0 1-2.31 1.36c-1.79 0-2.68-1.06-2.68-3.19v-4.48h1.16v4.29c0 1.58.61 2.37 1.82 2.37a1.82 1.82 0 0 0 1.45-.65 2.5 2.5 0 0 0 .56-1.69v-4.32h1.2Zm6.34-6.29a1.47 1.47 0 0 0-.91-.24 1.51 1.51 0 0 0-1.28.73 3.29 3.29 0 0 0-.52 2v3.83h-1.2v-7.5h1.2v1.54a2.61 2.61 0 0 1 .78-1.23 1.77 1.77 0 0 1 1.18-.44 2 2 0 0 1 .72.1Zm7.13 2.84H113a2.8 2.8 0 0 0 .67 1.93 2.3 2.3 0 0 0 1.77.68 3.69 3.69 0 0 0 2.33-.83v1.08a4.41 4.41 0 0 1-2.61.71 3.18 3.18 0 0 1-2.5-1 4.2 4.2 0 0 1-.91-2.87 4.09 4.09 0 0 1 1-2.86 3.19 3.19 0 0 1 2.46-1.1 2.84 2.84 0 0 1 2.28 1 4 4 0 0 1 .8 2.65Zm-1.23-1a2.43 2.43 0 0 0-.5-1.62 1.73 1.73 0 0 0-1.37-.58 1.94 1.94 0 0 0-1.44.61 2.81 2.81 0 0 0-.74 1.59Zm-69.1 21h-2.38l-4.33-6.6c-.26-.39-.43-.68-.53-.87 0 .37.06.93.06 1.7v5.77h-2.27V95.33h2.55l4.17 6.4c.19.29.37.57.53.86a11.14 11.14 0 0 1-.06-1.45v-5.81H48Zm5.75.18a4 4 0 0 1-2.95-1 4.35 4.35 0 0 1 0-5.76 4.2 4.2 0 0 1 3-1.06 3.92 3.92 0 0 1 2.92 1.06 3.72 3.72 0 0 1 1.13 2.64 4 4 0 0 1-1.1 3 4.09 4.09 0 0 1-3 1Zm.06-6.09a1.54 1.54 0 0 0-1.27.56 2.46 2.46 0 0 0-.46 1.6c0 1.44.58 2.16 1.75 2.16s1.66-.74 1.66-2.22-.56-2.2-1.68-2.2Zm10.07 5.82a3.4 3.4 0 0 1-1.54.27c-1.63 0-2.45-.85-2.45-2.54V100h-1.22v-1.7h1.22v-1.58l2.31-.66v2.28h1.68V100h-1.68v3q0 1.17.93 1.17a1.58 1.58 0 0 0 .75-.21Zm2.48-8.6a1.32 1.32 0 0 1-1-.35A1.11 1.11 0 0 1 65 96a1.08 1.08 0 0 1 .38-.85 1.56 1.56 0 0 1 1.92 0 1.07 1.07 0 0 1 .37.85 1.09 1.09 0 0 1-.37.86 1.36 1.36 0 0 1-.97.29Zm1.14 8.69h-2.31v-7.5h2.31Zm6.84-9.33a2.29 2.29 0 0 0-.86-.18c-.74 0-1.11.4-1.11 1.21v.8h1.71V100h-1.71v5.8H70V100h-1.23v-1.7H70v-.93a2.71 2.71 0 0 1 .84-2.07 3.19 3.19 0 0 1 2.27-.78 3.87 3.87 0 0 1 1.17.15Zm2 .64a1.32 1.32 0 0 1-1-.35A1.1 1.1 0 0 1 75 96a1.07 1.07 0 0 1 .37-.85 1.4 1.4 0 0 1 1-.33 1.37 1.37 0 0 1 1 .33 1.07 1.07 0 0 1 .37.85 1.09 1.09 0 0 1-.37.86 1.33 1.33 0 0 1-1.03.29Zm1.14 8.69h-2.28v-7.5h2.31Zm7.63-.27a4.58 4.58 0 0 1-2.26.45 3.84 3.84 0 0 1-2.8-1 3.6 3.6 0 0 1-1.07-2.7 4 4 0 0 1 1.15-3 4.22 4.22 0 0 1 3.07-1.11 3.81 3.81 0 0 1 1.91.36v2a2.62 2.62 0 0 0-1.61-.54 2.12 2.12 0 0 0-1.58.58 2.17 2.17 0 0 0-.59 1.61 2.14 2.14 0 0 0 .56 1.56 2 2 0 0 0 1.53.57 3 3 0 0 0 1.69-.54Zm7.76.27h-2.16v-1.08a2.44 2.44 0 0 1-2.26 1.14 2.35 2.35 0 0 1-1.72-.62 2.2 2.2 0 0 1-.63-1.65c0-1.45.87-2.29 2.59-2.52l2-.27c0-.82-.45-1.23-1.34-1.23a4.59 4.59 0 0 0-2.55.8v-1.72a5.42 5.42 0 0 1 1.33-.44 6.69 6.69 0 0 1 1.52-.2q3.21 0 3.21 3.21Zm-2.17-3v-.5l-1.37.17c-.75.1-1.12.44-1.12 1a.86.86 0 0 0 .27.65 1 1 0 0 0 .74.25 1.39 1.39 0 0 0 1.07-.45 1.64 1.64 0 0 0 .44-1.27Zm8.54 3a3.47 3.47 0 0 1-1.55.27c-1.63 0-2.45-.85-2.45-2.54V100H94v-1.7h1.21v-1.58l2.31-.66v2.28h1.69V100h-1.66v3q0 1.17.93 1.17a1.59 1.59 0 0 0 .76-.21Zm2.47-8.6a1.32 1.32 0 0 1-1-.35 1.1 1.1 0 0 1-.37-.85 1.07 1.07 0 0 1 .37-.85 1.4 1.4 0 0 1 1-.33 1.37 1.37 0 0 1 1 .33 1.07 1.07 0 0 1 .32.71 1.09 1.09 0 0 1-.37.86 1.33 1.33 0 0 1-.92.29Zm1.14 8.69h-2.31v-7.5h2.31Zm5.53.18a4 4 0 0 1-2.95-1 4.32 4.32 0 0 1 0-5.76 4.16 4.16 0 0 1 3-1.06 4 4 0 0 1 2.93 1.06 3.72 3.72 0 0 1 1.06 2.78 4 4 0 0 1-1.09 3 4.09 4.09 0 0 1-2.92.77Zm.05-6.09a1.55 1.55 0 0 0-1.27.56 2.52 2.52 0 0 0-.45 1.6q0 2.16 1.74 2.16c1.11 0 1.66-.74 1.66-2.22s-.53-2.29-1.65-2.29Zm12.79 5.91h-2.31v-4.17c0-1.16-.42-1.74-1.25-1.74a1.23 1.23 0 0 0-1 .46 1.81 1.81 0 0 0-.38 1.17v4.28H114v-7.5h2.32v1.18a2.65 2.65 0 0 1 2.41-1.37c1.66 0 2.49 1 2.49 3.1Zm15.28 0h-2.37v-4.28h-4.35v4.28h-2.37v-10.7h2.37v4.19h4.35v-4.19h2.37Zm9.3 0h-2.3v-1.33a2.62 2.62 0 0 1-2.29 1.32c-1.74 0-2.61-1-2.61-3.16v-4.52h2.31v4.32q0 1.59 1.26 1.59a1.25 1.25 0 0 0 1-.44 1.74 1.74 0 0 0 .38-1.18v-4.29h2.3Zm4.29-.87v.87h-2.32v-11.3h2.32v4.74a2.76 2.76 0 0 1 2.44-1.32 2.69 2.69 0 0 1 2.24 1 4.32 4.32 0 0 1 .78 2.73 4.66 4.66 0 0 1-.91 3 3 3 0 0 1-2.45 1.13 2.39 2.39 0 0 1-2.07-1.01Zm-.06-3.36v.77a1.74 1.74 0 0 0 .42 1.2 1.34 1.34 0 0 0 1.07.48 1.43 1.43 0 0 0 1.22-.61 3 3 0 0 0 .44-1.74 2.4 2.4 0 0 0-.4-1.45 1.35 1.35 0 0 0-1.14-.52 1.45 1.45 0 0 0-1.15.52 1.94 1.94 0 0 0-.46 1.35Zm6.53 3.84v-1.87a4.76 4.76 0 0 0 1.14.51 3.89 3.89 0 0 0 1.07.17 2.31 2.31 0 0 0 1-.17.54.54 0 0 0 .36-.51.47.47 0 0 0-.16-.37 1.68 1.68 0 0 0-.42-.26 3.53 3.53 0 0 0-.52-.14l-.58-.2a6.35 6.35 0 0 1-.78-.37 2.19 2.19 0 0 1-.58-.45 1.74 1.74 0 0 1-.35-.59 2.36 2.36 0 0 1-.12-.8 2 2 0 0 1 .28-1.08 2.27 2.27 0 0 1 .73-.75 3.3 3.3 0 0 1 1.05-.42 5.43 5.43 0 0 1 1.22-.14 6.87 6.87 0 0 1 1 .08 6.73 6.73 0 0 1 1 .23v1.78a3.37 3.37 0 0 0-.94-.38 3.72 3.72 0 0 0-1-.13 2 2 0 0 0-.43 0 1.9 1.9 0 0 0-.36.12.65.65 0 0 0-.24.19.48.48 0 0 0-.08.28.49.49 0 0 0 .13.35 1 1 0 0 0 .34.25 2.88 2.88 0 0 0 .47.19l.52.18a4.93 4.93 0 0 1 .83.35 2.56 2.56 0 0 1 .65.44 2.21 2.21 0 0 1 .41.6 2.31 2.31 0 0 1 .14.82 2.14 2.14 0 0 1-.29 1.14 2.18 2.18 0 0 1-.77.77 3.68 3.68 0 0 1-1.11.44 6.1 6.1 0 0 1-1.3.13 6.83 6.83 0 0 1-2.28-.39Z" style="fill:#706d6e"/>
</svg>
