<svg xmlns="http://www.w3.org/2000/svg" width="200" height="128"><defs><style>.cls-1{fill:#0072c6;}.cls-2{fill:#706d6e;}</style></defs><path class="cls-1" d="M111.93,73H88.19a2.25,2.25,0,0,1-2.25-2.25v-26a2.25,2.25,0,0,1,2.25-2.25h23.74a2.26,2.26,0,0,1,2.25,2.25v26A2.43,2.43,0,0,1,111.93,73ZM111,45.89H89V69.74h22ZM95.73,48H91.56V67.71h4.17Zm6.52,0H98.09V67.71h4.16Zm6.53,0h-4.17V67.71h4.17Zm9.56-16.76A12.86,12.86,0,0,0,105.51,19a12.64,12.64,0,0,0-10.46,5.4,10.56,10.56,0,0,0-6.41-2.25A10.27,10.27,0,0,0,78.4,32.39a8.52,8.52,0,0,0,.34,2.47,9.67,9.67,0,0,0,4.05,18.45h2.14V43.53a2,2,0,0,1,1.91-1.92H97.75V35H94.49l5.4-7.54,5.4,7.54H102v6.63h11.14a2,2,0,0,1,1.91,1.92v9.78h.57a11.29,11.29,0,0,0,11.25-11.25A11.1,11.1,0,0,0,118.34,31.26Z"/><path class="cls-2" d="M90.6,89.34H89.24l-1.11-3H83.67l-1,3H81.26l4-10.51h1.27Zm-2.87-4-1.65-4.48a3.34,3.34,0,0,1-.16-.7h0a4.22,4.22,0,0,1-.17.7l-1.64,4.48Zm9.49-3.11-4.44,6.13h4.39v1H91V89l4.44-6.1h-4v-1h5.79Zm7.61,7.16h-1.2V88.15h0a2.45,2.45,0,0,1-2.31,1.36c-1.79,0-2.68-1.06-2.68-3.19V81.84H99.8v4.29c0,1.58.61,2.37,1.82,2.37a1.82,1.82,0,0,0,1.45-.65,2.5,2.5,0,0,0,.56-1.69V81.84h1.2Zm6.34-6.29a1.47,1.47,0,0,0-.91-.24,1.51,1.51,0,0,0-1.28.73,3.29,3.29,0,0,0-.52,2v3.83h-1.2v-7.5h1.2v1.54h0a2.61,2.61,0,0,1,.78-1.23,1.77,1.77,0,0,1,1.18-.44,2,2,0,0,1,.72.1Zm7.13,2.84H113a2.8,2.8,0,0,0,.67,1.93,2.3,2.3,0,0,0,1.77.68,3.69,3.69,0,0,0,2.33-.83V88.8a4.41,4.41,0,0,1-2.61.71,3.18,3.18,0,0,1-2.5-1,4.2,4.2,0,0,1-.91-2.87,4.09,4.09,0,0,1,1-2.86,3.19,3.19,0,0,1,2.46-1.1,2.84,2.84,0,0,1,2.28,1,4,4,0,0,1,.8,2.65Zm-1.23-1a2.43,2.43,0,0,0-.5-1.62,1.73,1.73,0,0,0-1.37-.58,1.94,1.94,0,0,0-1.44.61,2.81,2.81,0,0,0-.74,1.59ZM39.53,105.46a6.78,6.78,0,0,1-3,.56,5,5,0,0,1-3.8-1.42,5.18,5.18,0,0,1-1.39-3.79,5.52,5.52,0,0,1,1.56-4.08,5.42,5.42,0,0,1,4-1.57,7.51,7.51,0,0,1,2.59.39v2.28a4.57,4.57,0,0,0-2.4-.63,3.23,3.23,0,0,0-2.39.92,3.51,3.51,0,0,0-.91,2.52,3.39,3.39,0,0,0,.86,2.43A3,3,0,0,0,37,104a4.89,4.89,0,0,0,2.53-.68Zm5.18.56a4,4,0,0,1-3-1,4.35,4.35,0,0,1,0-5.76,4.17,4.17,0,0,1,3-1.06,4,4,0,0,1,2.93,1.06A3.72,3.72,0,0,1,48.8,102a4,4,0,0,1-1.09,3A4.09,4.09,0,0,1,44.71,106Zm.06-6.09a1.57,1.57,0,0,0-1.28.56,2.52,2.52,0,0,0-.45,1.6q0,2.16,1.74,2.16c1.11,0,1.67-.74,1.67-2.22S45.89,99.93,44.77,99.93Zm12.78,5.91H55.24v-4.17c0-1.16-.41-1.74-1.24-1.74a1.23,1.23,0,0,0-1,.46,1.76,1.76,0,0,0-.39,1.17v4.28H50.31v-7.5h2.31v1.18h0a2.65,2.65,0,0,1,2.41-1.37c1.66,0,2.49,1,2.49,3.1Zm6.36-.09a3.4,3.4,0,0,1-1.54.27c-1.63,0-2.45-.85-2.45-2.54V100H58.71v-1.7h1.21V96.72l2.31-.66v2.28h1.68V100H62.23v3q0,1.17.93,1.17a1.55,1.55,0,0,0,.75-.21Zm7.55.09H69.27v-1.08h0A2.45,2.45,0,0,1,67,106a2.33,2.33,0,0,1-1.71-.62,2.2,2.2,0,0,1-.63-1.65c0-1.45.86-2.29,2.59-2.52l2-.27c0-.82-.44-1.23-1.33-1.23a4.59,4.59,0,0,0-2.55.8V98.79a5.19,5.19,0,0,1,1.32-.44,6.85,6.85,0,0,1,1.53-.2q3.21,0,3.21,3.21Zm-2.18-3v-.5l-1.36.17c-.75.1-1.13.44-1.13,1a.83.83,0,0,0,.28.65,1,1,0,0,0,.74.25,1.35,1.35,0,0,0,1.06-.45A1.6,1.6,0,0,0,69.28,102.79Zm5.18-5.64a1.32,1.32,0,0,1-1-.35,1.1,1.1,0,0,1-.37-.85,1.07,1.07,0,0,1,.37-.85,1.4,1.4,0,0,1,1-.33,1.37,1.37,0,0,1,1,.33,1.07,1.07,0,0,1,.37.85,1.09,1.09,0,0,1-.37.86A1.33,1.33,0,0,1,74.46,97.15Zm1.14,8.69H73.29v-7.5H75.6Zm9.2,0H82.49v-4.17c0-1.16-.42-1.74-1.25-1.74a1.23,1.23,0,0,0-1,.46,1.81,1.81,0,0,0-.38,1.17v4.28H77.55v-7.5h2.32v1.18h0a2.65,2.65,0,0,1,2.41-1.37c1.66,0,2.49,1,2.49,3.1Zm8.56-3.09H88.47c.08,1.09.77,1.63,2.06,1.63a4,4,0,0,0,2.18-.59v1.67A5.65,5.65,0,0,1,90,106a3.49,3.49,0,0,1-3.82-3.81,4,4,0,0,1,1.08-3,3.64,3.64,0,0,1,2.67-1.1,3.29,3.29,0,0,1,2.54,1,3.74,3.74,0,0,1,.89,2.64Zm-2.14-1.42c0-1.08-.44-1.62-1.3-1.62a1.25,1.25,0,0,0-1,.47,2.08,2.08,0,0,0-.49,1.15Zm8.41-.9a1.88,1.88,0,0,0-1-.23,1.4,1.4,0,0,0-1.18.55,2.44,2.44,0,0,0-.42,1.51v3.58H94.74v-7.5h2.32v1.39h0a2,2,0,0,1,2-1.52,1.65,1.65,0,0,1,.57.08Zm8.69-5.1v1.84h-.88V104h.88v1.83H104.2V104h.88V97.17h-.88V95.33Zm8.53,10.51h-2.31v-4.17c0-1.16-.42-1.74-1.25-1.74a1.2,1.2,0,0,0-1,.46,1.76,1.76,0,0,0-.39,1.17v4.28H109.6v-7.5h2.32v1.18h0a2.65,2.65,0,0,1,2.41-1.37c1.66,0,2.49,1,2.49,3.1Zm1.34-.2v-1.87a4.76,4.76,0,0,0,1.14.51,3.78,3.78,0,0,0,1.07.17,2.34,2.34,0,0,0,1-.17.53.53,0,0,0,.35-.51.47.47,0,0,0-.16-.37,1.45,1.45,0,0,0-.41-.26,3.93,3.93,0,0,0-.55-.19l-.58-.2a6.54,6.54,0,0,1-.79-.37,2,2,0,0,1-.57-.45,1.6,1.6,0,0,1-.35-.59,2.36,2.36,0,0,1-.12-.8,2.06,2.06,0,0,1,.27-1.08,2.37,2.37,0,0,1,.73-.75,3.5,3.5,0,0,1,1-.42,5.45,5.45,0,0,1,1.23-.14,7.08,7.08,0,0,1,2,.31v1.78a3.5,3.5,0,0,0-.94-.38,3.79,3.79,0,0,0-1-.13,2,2,0,0,0-.43,0,1.6,1.6,0,0,0-.35.12.65.65,0,0,0-.24.19.51.51,0,0,0,0,.63,1,1,0,0,0,.35.25,2.56,2.56,0,0,0,.47.19l.51.18a5.44,5.44,0,0,1,.84.35,2.5,2.5,0,0,1,.64.44,1.83,1.83,0,0,1,.41.6,2.11,2.11,0,0,1,.14.82,2.06,2.06,0,0,1-.29,1.14,2.18,2.18,0,0,1-.77.77,3.62,3.62,0,0,1-1.1.44,6.16,6.16,0,0,1-1.3.13A6.75,6.75,0,0,1,118.19,105.64Zm11.62.11a3.44,3.44,0,0,1-1.55.27c-1.63,0-2.44-.85-2.44-2.54V100H124.6v-1.7h1.22V96.72l2.31-.66v2.28h1.68V100h-1.68v3q0,1.17.93,1.17a1.58,1.58,0,0,0,.75-.21Zm7.54.09h-2.19v-1.08h0A2.43,2.43,0,0,1,132.9,106a2.35,2.35,0,0,1-1.72-.62,2.23,2.23,0,0,1-.62-1.65q0-2.18,2.58-2.52l2-.27c0-.82-.45-1.23-1.33-1.23a4.54,4.54,0,0,0-2.55.8V98.79a5.19,5.19,0,0,1,1.32-.44,6.85,6.85,0,0,1,1.53-.2q3.19,0,3.2,3.21Zm-2.17-3v-.5l-1.36.17c-.76.1-1.13.44-1.13,1a.86.86,0,0,0,.27.65,1.06,1.06,0,0,0,.75.25,1.37,1.37,0,0,0,1.06-.45A1.64,1.64,0,0,0,135.18,102.79Zm11.25,3h-2.31v-4.17c0-1.16-.41-1.74-1.24-1.74a1.23,1.23,0,0,0-1,.46,1.76,1.76,0,0,0-.39,1.17v4.28h-2.31v-7.5h2.31v1.18h0a2.65,2.65,0,0,1,2.41-1.37c1.66,0,2.49,1,2.49,3.1Zm7.51-.27a4.58,4.58,0,0,1-2.26.45,3.84,3.84,0,0,1-2.8-1,3.6,3.6,0,0,1-1.07-2.7,4,4,0,0,1,1.15-3A4.21,4.21,0,0,1,152,98.15a3.83,3.83,0,0,1,1.92.36v2a2.63,2.63,0,0,0-1.62-.54,2.1,2.1,0,0,0-1.57.58,2.17,2.17,0,0,0-.59,1.61,2.14,2.14,0,0,0,.56,1.56,2,2,0,0,0,1.53.57,3,3,0,0,0,1.69-.54Zm8.26-2.82h-4.89c.07,1.09.76,1.63,2.05,1.63a4,4,0,0,0,2.18-.59v1.67a5.61,5.61,0,0,1-2.7.56,3.5,3.5,0,0,1-3.83-3.81,4,4,0,0,1,1.09-3,3.6,3.6,0,0,1,2.66-1.1,3.28,3.28,0,0,1,2.54,1,3.74,3.74,0,0,1,.9,2.64Zm-2.15-1.42c0-1.08-.43-1.62-1.3-1.62a1.24,1.24,0,0,0-1,.47,2,2,0,0,0-.5,1.15Zm3,4.31v-1.87a4.76,4.76,0,0,0,1.14.51,3.9,3.9,0,0,0,1.08.17,2.34,2.34,0,0,0,1-.17.54.54,0,0,0,.35-.51.47.47,0,0,0-.16-.37,1.8,1.8,0,0,0-.41-.26,4.08,4.08,0,0,0-.56-.19c-.2-.06-.39-.13-.57-.2a5.89,5.89,0,0,1-.79-.37,2,2,0,0,1-.57-.45,1.6,1.6,0,0,1-.35-.59,2.13,2.13,0,0,1-.13-.8,2.06,2.06,0,0,1,.28-1.08,2.37,2.37,0,0,1,.73-.75,3.5,3.5,0,0,1,1-.42,5.45,5.45,0,0,1,1.23-.14,7.1,7.1,0,0,1,1,.08,7.35,7.35,0,0,1,1,.23v1.78a3.64,3.64,0,0,0-.94-.38,3.85,3.85,0,0,0-1-.13,2,2,0,0,0-.43,0,1.6,1.6,0,0,0-.35.12.52.52,0,0,0-.24.19.51.51,0,0,0,0,.63,1.11,1.11,0,0,0,.34.25,2.67,2.67,0,0,0,.48.19l.51.18a5.44,5.44,0,0,1,.84.35,2.5,2.5,0,0,1,.64.44,2,2,0,0,1,.41.6,2.31,2.31,0,0,1,.14.82,2.14,2.14,0,0,1-.29,1.14,2.18,2.18,0,0,1-.77.77,3.73,3.73,0,0,1-1.1.44,6.16,6.16,0,0,1-1.3.13A6.85,6.85,0,0,1,163.08,105.64Z"/></svg>