<svg xmlns="http://www.w3.org/2000/svg" width="200" height="128">
	<path d="M107.09 49.43a.29.29 0 0 0 .1 0l7.18-4.15a.2.2 0 0 0 .12-.19.22.22 0 0 0-.12-.18l-7.22-4.16a.18.18 0 0 0-.22 0l-7.18 4.13a.21.21 0 0 0-.1.19.18.18 0 0 0 .1.18L107 49.4Zm-1 10.11h.1a.24.24 0 0 0 .12-.2V51a.22.22 0 0 0-.12-.18L99 46.66a.24.24 0 0 0-.23 0 .2.2 0 0 0-.1.19v8.33a.24.24 0 0 0 .1.19l7.21 4.14a.14.14 0 0 0 .07.03Zm2 0h.12l7.19-4.16a.24.24 0 0 0 .12-.19v-8.28a.23.23 0 0 0-.12-.2.26.26 0 0 0-.21 0L108 50.86a.24.24 0 0 0-.11.19v8.28a.18.18 0 0 0 .11.18.13.13 0 0 0 .08.03Zm-3-24.38-4.42-2.54a.18.18 0 0 0-.22 0L96 35.16h-8a2.32 2.32 0 0 0-2.22 2.33v16.38h-3.06V30.23l34.8-.05v5Zm7.35 30h12a2.53 2.53 0 0 0 2.47-2.31V37.49a2.55 2.55 0 0 0-2.47-2.33h-3.71v-5.75a2.55 2.55 0 0 0-2.48-2.34h-4v-5.74a2.52 2.52 0 0 0-2.53-2.33H75.4a2.32 2.32 0 0 0-2.23 2.33v25.3A2.3 2.3 0 0 0 75.4 49h4.21v5.76A2.31 2.31 0 0 0 81.84 57h4v5.8A2.31 2.31 0 0 0 88 65.11h13.22c1.34 4.74-.46 5.41-8.34 5.41V73h26.82v-2.48c-7.86 0-8.64-.67-7.29-5.41ZM124 62H89.23V38.33l34.77-.06ZM98.58 27.07l-4.39-2.53a.26.26 0 0 0-.21 0l-4.39 2.53h-7.75a2.32 2.32 0 0 0-2.23 2.34V45.8h-3.34V22.15h34.82v5Z" style="fill:#0078d7;fill-rule:evenodd"/>
	<path d="M90.6 89.34h-1.36l-1.11-3h-4.46l-1 3h-1.41l4-10.51h1.27Zm-2.87-4-1.65-4.48a3.34 3.34 0 0 1-.16-.7 4.22 4.22 0 0 1-.17.7l-1.64 4.48Zm9.49-3.11-4.44 6.13h4.39v1H91V89l4.44-6.1h-4v-1h5.79Zm7.61 7.16h-1.2v-1.24a2.45 2.45 0 0 1-2.31 1.36c-1.79 0-2.68-1.06-2.68-3.19v-4.48h1.16v4.29c0 1.58.61 2.37 1.82 2.37a1.82 1.82 0 0 0 1.45-.65 2.5 2.5 0 0 0 .56-1.69v-4.32h1.2Zm6.34-6.29a1.47 1.47 0 0 0-.91-.24 1.51 1.51 0 0 0-1.28.73 3.29 3.29 0 0 0-.52 2v3.83h-1.2v-7.5h1.2v1.54a2.61 2.61 0 0 1 .78-1.23 1.77 1.77 0 0 1 1.18-.44 2 2 0 0 1 .72.1Zm7.13 2.84H113a2.8 2.8 0 0 0 .67 1.93 2.3 2.3 0 0 0 1.77.68 3.69 3.69 0 0 0 2.33-.83v1.08a4.41 4.41 0 0 1-2.61.71 3.18 3.18 0 0 1-2.5-1 4.2 4.2 0 0 1-.91-2.87 4.09 4.09 0 0 1 1-2.86 3.19 3.19 0 0 1 2.46-1.1 2.84 2.84 0 0 1 2.28 1 4 4 0 0 1 .8 2.65Zm-1.23-1a2.43 2.43 0 0 0-.5-1.62 1.73 1.73 0 0 0-1.37-.58 1.94 1.94 0 0 0-1.44.61 2.81 2.81 0 0 0-.74 1.59ZM64.42 95.33l-3.62 10.51h-2.68l-3.57-10.51h2.55l2.19 7.31a6.47 6.47 0 0 1 .21 1 6.28 6.28 0 0 1 .23-1.07l2.17-7.29Zm13.23 10.51h-2.34v-6.29c0-.67 0-1.43.09-2.25h-.06a10.56 10.56 0 0 1-.34 1.4l-2.46 7.14h-1.92l-2.51-7.07a12.91 12.91 0 0 1-.33-1.47h-.06q.09 1.56.09 2.73v5.81h-2.13V95.33h3.46l2.15 6.23a9.12 9.12 0 0 1 .37 1.5c.13-.58.27-1.08.41-1.51l2.15-6.22h3.38Zm6-.4v-2.35a4.48 4.48 0 0 0 1.38.8 4.42 4.42 0 0 0 1.51.27 3.53 3.53 0 0 0 .78-.08 1.92 1.92 0 0 0 .56-.22 1 1 0 0 0 .33-.34.78.78 0 0 0 .11-.42.94.94 0 0 0-.17-.55 2.09 2.09 0 0 0-.48-.45 6 6 0 0 0-.72-.39c-.28-.13-.58-.26-.91-.39a4.57 4.57 0 0 1-1.83-1.25 2.76 2.76 0 0 1-.6-1.79 2.83 2.83 0 0 1 .39-1.41 2.67 2.67 0 0 1 .89-1 4.14 4.14 0 0 1 1.32-.56 6.71 6.71 0 0 1 1.58-.18 8.92 8.92 0 0 1 1.45.1 5.72 5.72 0 0 1 1.17.3v2.19a3.49 3.49 0 0 0-.57-.32 4.88 4.88 0 0 0-.64-.23 5.18 5.18 0 0 0-.66-.14 4.49 4.49 0 0 0-.62 0 2.77 2.77 0 0 0-.73.08 1.93 1.93 0 0 0-.56.21 1.14 1.14 0 0 0-.35.34.8.8 0 0 0-.12.43.81.81 0 0 0 .13.47 1.68 1.68 0 0 0 .4.4 4.83 4.83 0 0 0 .62.37l.83.37a7.93 7.93 0 0 1 1.13.56 3.66 3.66 0 0 1 .86.67 2.49 2.49 0 0 1 .55.85 3 3 0 0 1 .19 1.12 3 3 0 0 1-.33 1.47 2.64 2.64 0 0 1-.91 1 3.89 3.89 0 0 1-1.32.53 7.55 7.55 0 0 1-1.6.16 9.66 9.66 0 0 1-1.65-.14 5.22 5.22 0 0 1-1.37-.48Zm14.35.13a4.62 4.62 0 0 1-2.27.45A3.8 3.8 0 0 1 93 105a3.56 3.56 0 0 1-1.07-2.7 4 4 0 0 1 1.14-3 4.24 4.24 0 0 1 3.07-1.11 3.88 3.88 0 0 1 1.92.36v2a2.67 2.67 0 0 0-1.62-.54 2.12 2.12 0 0 0-1.58.58 2.16 2.16 0 0 0-.58 1.61 2.14 2.14 0 0 0 .55 1.56 2.08 2.08 0 0 0 1.54.57 3.07 3.07 0 0 0 1.69-.54Zm7.75.27h-2.15v-1.08a2.43 2.43 0 0 1-2.23 1.26 2.35 2.35 0 0 1-1.72-.62 2.23 2.23 0 0 1-.62-1.65q0-2.18 2.58-2.52l2-.27c0-.82-.45-1.23-1.33-1.23a4.54 4.54 0 0 0-2.55.8v-1.74a5.19 5.19 0 0 1 1.32-.44 6.85 6.85 0 0 1 1.53-.2q3.19 0 3.2 3.21Zm-2.17-3v-.5l-1.36.17c-.76.1-1.13.44-1.13 1a.86.86 0 0 0 .27.65 1.06 1.06 0 0 0 .75.25 1.37 1.37 0 0 0 1.06-.45 1.64 1.64 0 0 0 .45-1.17Zm6.32 3h-2.32V94.73h2.32Zm8.69-3.09h-4.9c.08 1.09.77 1.63 2.06 1.63a4 4 0 0 0 2.18-.59v1.67a5.65 5.65 0 0 1-2.71.56 3.78 3.78 0 0 1-2.82-1 3.82 3.82 0 0 1-1-2.8 4 4 0 0 1 1.08-3 3.64 3.64 0 0 1 2.67-1.1 3.29 3.29 0 0 1 2.54 1 3.74 3.74 0 0 1 .9 2.64Zm-2.15-1.42c0-1.08-.43-1.62-1.3-1.62a1.26 1.26 0 0 0-1 .47 2.08 2.08 0 0 0-.49 1.15Zm7.4 4.11v-2.35a4.53 4.53 0 0 0 1.39.8 4.42 4.42 0 0 0 1.51.27 3.53 3.53 0 0 0 .78-.08 1.75 1.75 0 0 0 .55-.22 1.1 1.1 0 0 0 .34-.34.9.9 0 0 0-.07-1 2.09 2.09 0 0 0-.48-.45 4.76 4.76 0 0 0-.72-.39l-.9-.39a4.57 4.57 0 0 1-1.83-1.25 2.72 2.72 0 0 1-.61-1.79 2.83 2.83 0 0 1 .33-1.41 2.79 2.79 0 0 1 .9-1 4.09 4.09 0 0 1 1.31-.56 6.77 6.77 0 0 1 1.58-.18 9 9 0 0 1 1.46.1 5.89 5.89 0 0 1 1.17.3v2.19a3.6 3.6 0 0 0-.58-.32 4.88 4.88 0 0 0-.64-.23 5.18 5.18 0 0 0-.66-.14 4.35 4.35 0 0 0-.61 0 2.85 2.85 0 0 0-.74.08 1.86 1.86 0 0 0-.55.21 1.14 1.14 0 0 0-.35.34.73.73 0 0 0-.13.43.82.82 0 0 0 .14.47 1.38 1.38 0 0 0 .4.4 4.22 4.22 0 0 0 .62.37c.24.12.52.24.83.37a8.5 8.5 0 0 1 1.13.56 3.88 3.88 0 0 1 .86.67 2.64 2.64 0 0 1 .55.85 3.16 3.16 0 0 1 .19 1.12 2.91 2.91 0 0 1-.34 1.47 2.7 2.7 0 0 1-.9 1 3.86 3.86 0 0 1-1.33.53 7.48 7.48 0 0 1-1.6.16 9.54 9.54 0 0 1-1.64-.14 5.43 5.43 0 0 1-1.32-.45Zm15.41-2.69h-4.85c.07 1.09.76 1.63 2 1.63a4 4 0 0 0 2.18-.59v1.67a5.61 5.61 0 0 1-2.7.56 3.5 3.5 0 0 1-3.83-3.81 4 4 0 0 1 1.09-3 3.6 3.6 0 0 1 2.66-1.1 3.28 3.28 0 0 1 2.54 1 3.74 3.74 0 0 1 .9 2.64Zm-2.15-1.42c0-1.08-.43-1.62-1.3-1.62a1.24 1.24 0 0 0-1 .47 2 2 0 0 0-.5 1.15Zm8.06 4.42a3.44 3.44 0 0 1-1.55.27c-1.63 0-2.44-.85-2.44-2.54V100H140v-1.7h1.22v-1.58l2.3-.66v2.28h1.69V100h-1.69v3q0 1.17.93 1.17a1.59 1.59 0 0 0 .76-.21Z" style="fill:#706d6e"/>
</svg>
