<svg xmlns="http://www.w3.org/2000/svg" width="200" height="128">
	<defs>
		<style>
			.cls-6{fill:#fff}.cls-5{fill:#7a7a7a}
		</style>
	</defs>
	<path d="M120.52 34.34c0-.44.11-1 .11-1.41a13.9 13.9 0 0 0-14-13.82 13.62 13.62 0 0 0-11.34 5.61 10.07 10.07 0 0 0-5.62-1.62 10.58 10.58 0 0 0-10.62 10.48v.86c-3.89 2.06-6 5.4-6 9.51 0 6.48 5.29 11.55 12.1 11.55h29.8c6.81 0 12.1-5.07 12.1-11.55a10.24 10.24 0 0 0-6.53-9.61Z" style="fill:#59b4d9"/>
	<path d="M80.56 49.24c0-4.43 2.27-7.88 6.48-10v-.87a11.33 11.33 0 0 1 17.17-9.5 15 15 0 0 1 12.1-6.16 14.61 14.61 0 0 0-9.72-3.71 14 14 0 0 0-11.34 5.72 10.07 10.07 0 0 0-5.62-1.62 10.58 10.58 0 0 0-10.58 10.48v.86c-3.89 2.06-6 5.4-6 9.51a11.45 11.45 0 0 0 9.07 11.23 12.16 12.16 0 0 1-1.56-5.94Z" style="isolation:isolate;opacity:.2;fill:#fff"/>
	<path d="M114.12 42.68v-.25c0-6.62-5.67-12.11-12.63-12.2-.17-.26-4.12.09-4.12.09a12.53 12.53 0 0 0-11.16 12.11c0 .17-.69 5 4.2 9 2.24 2 4.55 7.3 4.9 8.85l.26.51h9.1l.26-.51c.34-1.55 2.75-6.87 4.89-8.76 4.9-4.11 4.3-8.66 4.3-8.84Z" style="fill:#fcd116"/>
	<path d="M114.12 42.68v-.25c0-6.62-5.67-12.11-12.63-12.2-.17-.26-4.12.09-4.12.09a12.53 12.53 0 0 0-11.16 12.11c0 .17-.69 5 4.2 9 2.24 2 4.55 7.3 4.9 8.85l.26.51h9.1l.26-.51c.34-1.55 2.75-6.87 4.89-8.76 4.9-4.11 4.3-8.66 4.3-8.84Z" style="fill:#ff8c00;isolation:isolate;opacity:.2"/>
	<path class="cls-5" d="M95.74 63.9h9.1v2.92h-9.1z"/>
	<path class="cls-5" d="M98.57 73h3.35l2.83-3.01h-9.01L98.57 73z"/>
	<path class="cls-6" d="M103.92 38.53a3.77 3.77 0 1 1-3.76-3.77 3.76 3.76 0 0 1 3.76 3.77"/>
	<path class="cls-6" d="m102.91 43.7-2.75 3.85-2.76-3.85h-2.85v7.33h11.21V43.7h-2.85z"/>
	<path class="cls-6" d="M101.49 30.23c-.17-.26-4.12.09-4.12.09a12.53 12.53 0 0 0-11.16 12.11 10.2 10.2 0 0 0 3.34 8.24l18.55-18.55a12.6 12.6 0 0 0-6.61-1.89Z" style="opacity:.15;isolation:isolate"/>
	<path d="M90.6 89.34h-1.36l-1.11-3h-4.46l-1 3h-1.41l4-10.51h1.27Zm-2.87-4-1.65-4.48a3.34 3.34 0 0 1-.16-.7 4.22 4.22 0 0 1-.17.7l-1.64 4.48Zm9.49-3.11-4.44 6.13h4.39v1H91V89l4.44-6.1h-4v-1h5.79Zm7.61 7.16h-1.2v-1.24a2.45 2.45 0 0 1-2.31 1.36c-1.79 0-2.68-1.06-2.68-3.19v-4.48h1.16v4.29c0 1.58.61 2.37 1.82 2.37a1.82 1.82 0 0 0 1.45-.65 2.5 2.5 0 0 0 .56-1.69v-4.32h1.2Zm6.34-6.29a1.47 1.47 0 0 0-.91-.24 1.51 1.51 0 0 0-1.28.73 3.29 3.29 0 0 0-.52 2v3.83h-1.2v-7.5h1.2v1.54a2.61 2.61 0 0 1 .78-1.23 1.77 1.77 0 0 1 1.18-.44 2 2 0 0 1 .72.1Zm7.13 2.84H113a2.8 2.8 0 0 0 .67 1.93 2.3 2.3 0 0 0 1.77.68 3.69 3.69 0 0 0 2.33-.83v1.08a4.41 4.41 0 0 1-2.61.71 3.18 3.18 0 0 1-2.5-1 4.2 4.2 0 0 1-.91-2.87 4.09 4.09 0 0 1 1-2.86 3.19 3.19 0 0 1 2.46-1.1 2.84 2.84 0 0 1 2.28 1 4 4 0 0 1 .8 2.65Zm-1.23-1a2.43 2.43 0 0 0-.5-1.62 1.73 1.73 0 0 0-1.37-.58 1.94 1.94 0 0 0-1.44.61 2.81 2.81 0 0 0-.74 1.59ZM45 105.46a6.82 6.82 0 0 1-3 .56 5 5 0 0 1-3.8-1.42 5.21 5.21 0 0 1-1.38-3.79 5.55 5.55 0 0 1 1.55-4.08 5.44 5.44 0 0 1 4-1.57 7.57 7.57 0 0 1 2.6.39v2.28a4.63 4.63 0 0 0-2.41-.63 3.2 3.2 0 0 0-2.38.92 3.47 3.47 0 0 0-.91 2.52 3.38 3.38 0 0 0 .85 2.43 3 3 0 0 0 2.31.91 5 5 0 0 0 2.57-.68Zm8.73.38h-2.27v-1.14a2.61 2.61 0 0 1-2.33 1.3c-1.74 0-2.61-1-2.61-3.16v-4.5h2.31v4.32q0 1.59 1.26 1.59a1.27 1.27 0 0 0 1-.44 1.79 1.79 0 0 0 .37-1.18v-4.29h2.31Zm1.45-.2v-1.87a4.76 4.76 0 0 0 1.14.51 3.9 3.9 0 0 0 1.08.17 2.34 2.34 0 0 0 1-.17.54.54 0 0 0 .35-.51.47.47 0 0 0-.16-.37 1.8 1.8 0 0 0-.41-.26 4.08 4.08 0 0 0-.56-.19l-.58-.2a6.35 6.35 0 0 1-.78-.37 2 2 0 0 1-.57-.45 1.62 1.62 0 0 1-.36-.59 2.36 2.36 0 0 1-.12-.8 2.06 2.06 0 0 1 .28-1.08 2.37 2.37 0 0 1 .73-.75 3.4 3.4 0 0 1 1.05-.42 5.43 5.43 0 0 1 1.22-.14 7.12 7.12 0 0 1 1 .08 7.35 7.35 0 0 1 1 .23v1.78a3.56 3.56 0 0 0-1-.38 3.72 3.72 0 0 0-1-.13 2 2 0 0 0-.43 0 1.6 1.6 0 0 0-.35.12.62.62 0 0 0-.25.19.57.57 0 0 0-.08.28.49.49 0 0 0 .13.35 1.11 1.11 0 0 0 .49.33 2.67 2.67 0 0 0 .48.19l.51.18a5.44 5.44 0 0 1 .84.35 2.5 2.5 0 0 1 .64.44 2 2 0 0 1 .41.6 2.31 2.31 0 0 1 .14.82 2.14 2.14 0 0 1-.29 1.14 2.18 2.18 0 0 1-.77.77 3.73 3.73 0 0 1-1.1.44 6.16 6.16 0 0 1-1.3.13 6.85 6.85 0 0 1-2.34-.42Zm11.63.11a3.44 3.44 0 0 1-1.55.27c-1.63 0-2.44-.85-2.44-2.54V100h-1.18v-1.7h1.22v-1.58l2.3-.66v2.28h1.69V100h-1.69v3q0 1.17.93 1.17a1.59 1.59 0 0 0 .76-.21Zm4.82.27a4 4 0 0 1-3-1 4.35 4.35 0 0 1 0-5.76 4.16 4.16 0 0 1 3-1.06 4 4 0 0 1 2.93 1.06 3.72 3.72 0 0 1 1.2 2.74 4 4 0 0 1-1.09 3 4.09 4.09 0 0 1-3 1Zm.06-6.09a1.56 1.56 0 0 0-1.28.56 2.52 2.52 0 0 0-.45 1.6q0 2.16 1.74 2.16c1.11 0 1.66-.74 1.66-2.22s-.52-2.1-1.63-2.1Zm17.44 5.91h-2.27v-4.28c0-1.09-.4-1.63-1.2-1.63a1.1 1.1 0 0 0-.93.49 2 2 0 0 0-.36 1.22v4.2h-2.31v-4.32c0-1.06-.39-1.59-1.18-1.59a1.11 1.11 0 0 0-.95.47 2 2 0 0 0-.35 1.27v4.17h-2.32v-7.5h2.32v1.17a2.77 2.77 0 0 1 1-1 2.8 2.8 0 0 1 1.42-.36 2.18 2.18 0 0 1 2.18 1.4 2.78 2.78 0 0 1 2.52-1.4c1.63 0 2.44 1 2.44 3Zm8.57-3.09h-4.85c.08 1.09.76 1.63 2.06 1.63a3.92 3.92 0 0 0 2.17-.59v1.67a5.58 5.58 0 0 1-2.7.56 3.49 3.49 0 0 1-3.82-3.81 4 4 0 0 1 1.08-3 3.61 3.61 0 0 1 2.67-1.1 3.25 3.25 0 0 1 2.53 1 3.74 3.74 0 0 1 .9 2.64Zm-2.15-1.42c0-1.08-.43-1.62-1.3-1.62a1.24 1.24 0 0 0-1 .47 2.09 2.09 0 0 0-.5 1.15Zm8.42-.9a1.91 1.91 0 0 0-1-.23 1.39 1.39 0 0 0-1.18.55 2.38 2.38 0 0 0-.43 1.51v3.58h-2.24v-7.5h2.31v1.39a2 2 0 0 1 2-1.52 1.73 1.73 0 0 1 .57.08Zm8.69-5.1v1.84h-.88V104h.88v1.83h-4.13V104h.88v-6.83h-.88v-1.84Zm8.52 10.51h-2.3v-4.17c0-1.16-.42-1.74-1.25-1.74a1.23 1.23 0 0 0-1 .46 1.76 1.76 0 0 0-.39 1.17v4.28H114v-7.5h2.31v1.18a2.66 2.66 0 0 1 2.41-1.37c1.66 0 2.49 1 2.49 3.1Zm1.34-.2v-1.87a4.76 4.76 0 0 0 1.14.51 3.89 3.89 0 0 0 1.07.17 2.4 2.4 0 0 0 1-.17.54.54 0 0 0 .35-.51.47.47 0 0 0-.16-.37 1.8 1.8 0 0 0-.41-.26 4.08 4.08 0 0 0-.51-.14l-.58-.2a6.35 6.35 0 0 1-.78-.37 2 2 0 0 1-.57-.45 1.62 1.62 0 0 1-.36-.59 2.36 2.36 0 0 1-.12-.8 2 2 0 0 1 .28-1.08 2.27 2.27 0 0 1 .73-.75 3.3 3.3 0 0 1 1.05-.42 5.43 5.43 0 0 1 1.22-.14 6.87 6.87 0 0 1 1 .08 7.16 7.16 0 0 1 1 .23v1.78a3.56 3.56 0 0 0-1-.38 3.72 3.72 0 0 0-1-.13 2 2 0 0 0-.43 0 1.6 1.6 0 0 0-.35.12.62.62 0 0 0-.25.19.48.48 0 0 0-.08.28.49.49 0 0 0 .13.35 1.11 1.11 0 0 0 .34.25 2.88 2.88 0 0 0 .47.19l.52.18a5.44 5.44 0 0 1 .84.35 2.69 2.69 0 0 1 .64.44 2.21 2.21 0 0 1 .41.6 2.31 2.31 0 0 1 .14.82 2.14 2.14 0 0 1-.29 1.14 2.18 2.18 0 0 1-.77.77 3.73 3.73 0 0 1-1.1.44 6.26 6.26 0 0 1-1.31.13 6.83 6.83 0 0 1-2.22-.39Zm8.26-8.49a1.32 1.32 0 0 1-1-.35 1.13 1.13 0 0 1-.37-.85 1.1 1.1 0 0 1 .37-.85 1.58 1.58 0 0 1 1.93 0 1.1 1.1 0 0 1 .37.85 1.13 1.13 0 0 1-.37.86 1.37 1.37 0 0 1-.89.34Zm1.15 8.69h-2.32v-7.5H132Zm9.3-.86a4.22 4.22 0 0 1-1.21 3.23 4.87 4.87 0 0 1-3.5 1.15 5.51 5.51 0 0 1-2.4-.43v-2a4.58 4.58 0 0 0 2.33.67 2.54 2.54 0 0 0 1.82-.61 2.25 2.25 0 0 0 .64-1.69v-.59a2.57 2.57 0 0 1-2.33 1.26 2.82 2.82 0 0 1-2.28-1 4.1 4.1 0 0 1-.84-2.71 4.51 4.51 0 0 1 .94-3 3 3 0 0 1 2.46-1.13 2.27 2.27 0 0 1 2 1.06v-.87h2.32Zm-2.23-2.75v-.59a1.82 1.82 0 0 0-.42-1.21 1.33 1.33 0 0 0-1.09-.5 1.41 1.41 0 0 0-1.21.6 2.83 2.83 0 0 0-.44 1.69 2.37 2.37 0 0 0 .42 1.48 1.35 1.35 0 0 0 1.14.55 1.44 1.44 0 0 0 1.16-.55 2.26 2.26 0 0 0 .44-1.47Zm11.42 3.61h-2.31v-4.26q0-1.65-1.2-1.65a1.2 1.2 0 0 0-1 .46 1.75 1.75 0 0 0-.38 1.17v4.28h-2.33V94.73h2.32v4.72a2.63 2.63 0 0 1 2.3-1.3c1.7 0 2.55 1 2.55 3.08Zm6.37-.09a3.47 3.47 0 0 1-1.55.27c-1.63 0-2.45-.85-2.45-2.54V100h-1.21v-1.7h1.21v-1.58l2.31-.66v2.28h1.69V100h-1.69v3q0 1.17.93 1.17a1.59 1.59 0 0 0 .76-.21Zm.81-.11v-1.87a4.76 4.76 0 0 0 1.14.51 3.84 3.84 0 0 0 1.07.17 2.34 2.34 0 0 0 1-.17.54.54 0 0 0 .36-.51.51.51 0 0 0-.16-.37 1.68 1.68 0 0 0-.42-.26 3.93 3.93 0 0 0-.59-.14l-.58-.2a6.54 6.54 0 0 1-.79-.37 2.31 2.31 0 0 1-.57-.45 1.74 1.74 0 0 1-.35-.59 2.36 2.36 0 0 1-.12-.8 2.06 2.06 0 0 1 .27-1.08 2.41 2.41 0 0 1 .74-.75 3.34 3.34 0 0 1 1-.42 5.59 5.59 0 0 1 1.23-.14 7.08 7.08 0 0 1 2 .31v1.78a3.37 3.37 0 0 0-.94-.38 3.72 3.72 0 0 0-1-.13 1.91 1.91 0 0 0-.43 0 1.52 1.52 0 0 0-.36.12.65.65 0 0 0-.24.19.49.49 0 0 0-.09.28.54.54 0 0 0 .13.35 1.16 1.16 0 0 0 .35.25 2.88 2.88 0 0 0 .47.19l.52.18a5.31 5.31 0 0 1 .83.35 2.5 2.5 0 0 1 .64.44 1.83 1.83 0 0 1 .41.6 2.1 2.1 0 0 1 .15.82 2.14 2.14 0 0 1-.29 1.14 2.27 2.27 0 0 1-.77.77 3.68 3.68 0 0 1-1.11.44 6.16 6.16 0 0 1-1.3.13 6.79 6.79 0 0 1-2.22-.39Z" style="fill:#706d6e"/>
</svg>
