<svg xmlns="http://www.w3.org/2000/svg" width="200" height="128"><defs><style>.cls-1{fill:#e5e5e5;}.cls-2{fill:#3999c6;}.cls-3{fill:#59b4d9;}.cls-4{fill:#0072c6;}.cls-5{fill:#fff;opacity:0.15;isolation:isolate;}.cls-6{fill:#706d6e;}</style></defs><rect class="cls-1" x="78.91" y="37.08" width="37.78" height="22.02" transform="translate(-5.36 83.24) rotate(-45)"/><polygon class="cls-2" points="92.64 37.68 74.08 37.68 74.08 51.06 76.67 53.65 92.64 37.68"/><polygon class="cls-3" points="92.32 69.31 82.61 72.98 73 63.37 76.67 53.66 92.32 69.31"/><path class="cls-3" d="M103.44,27c9.6-9.61,23.42-7.78,23.42-7.78s1.83,13.71-7.77,23.43Z"/><circle class="cls-4" cx="102.36" cy="43.62" r="4.21"/><polygon class="cls-2" points="92.26 69.19 95.13 72 108.4 72 108.4 53.12 108.34 53.12 92.26 69.19"/><path class="cls-5" d="M126.43,19.12c-2.38-.22-14.36-.76-23,7.88L92.75,37.68H74.08V51.07l2.7,2.69L73,63.37l4.53,4.53Z"/><path class="cls-6" d="M90.6,89.34H89.24l-1.11-3H83.67l-1,3H81.26l4-10.51h1.27Zm-2.87-4-1.65-4.48a3.34,3.34,0,0,1-.16-.7h0a4.22,4.22,0,0,1-.17.7l-1.64,4.48Zm9.49-3.11-4.44,6.13h4.39v1H91V89l4.44-6.1h-4v-1h5.79Zm7.61,7.16h-1.2V88.15h0a2.45,2.45,0,0,1-2.31,1.36c-1.79,0-2.68-1.06-2.68-3.19V81.84H99.8v4.29c0,1.58.61,2.37,1.82,2.37a1.82,1.82,0,0,0,1.45-.65,2.5,2.5,0,0,0,.56-1.69V81.84h1.2Zm6.34-6.29a1.47,1.47,0,0,0-.91-.24,1.51,1.51,0,0,0-1.28.73,3.29,3.29,0,0,0-.52,2v3.83h-1.2v-7.5h1.2v1.54h0a2.61,2.61,0,0,1,.78-1.23,1.77,1.77,0,0,1,1.18-.44,2,2,0,0,1,.72.1Zm7.13,2.84H113a2.8,2.8,0,0,0,.67,1.93,2.3,2.3,0,0,0,1.77.68,3.69,3.69,0,0,0,2.33-.83V88.8a4.41,4.41,0,0,1-2.61.71,3.18,3.18,0,0,1-2.5-1,4.2,4.2,0,0,1-.91-2.87,4.09,4.09,0,0,1,1-2.86,3.19,3.19,0,0,1,2.46-1.1,2.84,2.84,0,0,1,2.28,1,4,4,0,0,1,.8,2.65Zm-1.23-1a2.43,2.43,0,0,0-.5-1.62,1.73,1.73,0,0,0-1.37-.58,1.94,1.94,0,0,0-1.44.61,2.81,2.81,0,0,0-.74,1.59Zm-45,21H65.76V95.33h2.37v8.59H72Zm4.76.18a4,4,0,0,1-3-1,4.35,4.35,0,0,1,0-5.76,4.17,4.17,0,0,1,3-1.06,4,4,0,0,1,2.93,1.06A3.72,3.72,0,0,1,80.87,102a4,4,0,0,1-1.09,3A4.09,4.09,0,0,1,76.78,106Zm.06-6.09a1.57,1.57,0,0,0-1.28.56,2.52,2.52,0,0,0-.45,1.6q0,2.16,1.74,2.16c1.11,0,1.66-.74,1.66-2.22S78,99.93,76.84,99.93Zm12.89,5a4.22,4.22,0,0,1-1.21,3.23,4.87,4.87,0,0,1-3.5,1.15,5.51,5.51,0,0,1-2.4-.43v-2a4.58,4.58,0,0,0,2.33.67,2.54,2.54,0,0,0,1.82-.61,2.25,2.25,0,0,0,.64-1.69v-.59h0A2.57,2.57,0,0,1,85.05,106a2.82,2.82,0,0,1-2.28-1,4.1,4.1,0,0,1-.84-2.71,4.51,4.51,0,0,1,.94-3,3,3,0,0,1,2.46-1.13,2.27,2.27,0,0,1,2,1.06h0v-.87h2.32Zm-2.29-2.75v-.59a1.82,1.82,0,0,0-.42-1.21,1.33,1.33,0,0,0-1.09-.5,1.41,1.41,0,0,0-1.21.6,2.83,2.83,0,0,0-.44,1.69,2.37,2.37,0,0,0,.42,1.48,1.34,1.34,0,0,0,1.14.55A1.44,1.44,0,0,0,87,103.7,2.32,2.32,0,0,0,87.44,102.23Zm5.39-5.08a1.32,1.32,0,0,1-1-.35A1.1,1.1,0,0,1,91.5,96a1.07,1.07,0,0,1,.37-.85,1.58,1.58,0,0,1,1.93,0,1.1,1.1,0,0,1,.37.85,1.13,1.13,0,0,1-.37.86A1.37,1.37,0,0,1,92.83,97.15ZM94,105.84H91.66v-7.5H94Zm7.63-.27a4.62,4.62,0,0,1-2.27.45,3.8,3.8,0,0,1-2.79-1,3.56,3.56,0,0,1-1.07-2.7,4,4,0,0,1,1.14-3,4.24,4.24,0,0,1,3.07-1.11,3.88,3.88,0,0,1,1.92.36v2a2.67,2.67,0,0,0-1.62-.54,2.14,2.14,0,0,0-1.58.58,2.16,2.16,0,0,0-.58,1.61,2.1,2.1,0,0,0,.56,1.56,2,2,0,0,0,1.53.57,3.07,3.07,0,0,0,1.69-.54Zm15.12.27h-2.58l-.75-2.34h-3.74l-.74,2.34h-2.56l3.82-10.51H113Zm-3.87-4.15-1.13-3.54a5.07,5.07,0,0,1-.18-.94h0a4.1,4.1,0,0,1-.19.91l-1.14,3.57Zm7.29,3.28h0v4.32h-2.31v-11h2.31v1.13h0a2.94,2.94,0,0,1,4.66-.32,4.29,4.29,0,0,1,.8,2.73,4.61,4.61,0,0,1-.93,3,3,3,0,0,1-2.46,1.13A2.35,2.35,0,0,1,120.15,105Zm-.06-3.08v.6a1.88,1.88,0,0,0,.41,1.27,1.34,1.34,0,0,0,1.07.49,1.44,1.44,0,0,0,1.23-.61,3,3,0,0,0,.44-1.74c0-1.31-.52-2-1.54-2a1.43,1.43,0,0,0-1.16.54A2.12,2.12,0,0,0,120.09,101.89Zm9.36,3.08h0v4.32h-2.32v-11h2.32v1.13h0a2.95,2.95,0,0,1,4.67-.32,4.28,4.28,0,0,1,.79,2.73,4.61,4.61,0,0,1-.93,3,3,3,0,0,1-2.46,1.13A2.36,2.36,0,0,1,129.45,105Zm-.06-3.08v.6a1.94,1.94,0,0,0,.41,1.27,1.35,1.35,0,0,0,1.08.49,1.43,1.43,0,0,0,1.22-.61,3,3,0,0,0,.44-1.74c0-1.31-.51-2-1.54-2a1.45,1.45,0,0,0-1.16.54A2.12,2.12,0,0,0,129.39,101.89Z"/></svg>