<svg xmlns="http://www.w3.org/2000/svg" width="200" height="128">
	<path d="M113.61 22.63H86.54L73 46l13.54 23.37h26.92L127 46ZM98.79 34.89h6.27v6.27h-6.27Zm0 7.83h6.27V49h-6.27Zm0 7.84h6.27v6.27h-6.27ZM91 34.89h6.27v6.27H91Zm0 7.83h6.27V49H91Zm0 7.84h6.27v6.27H91Zm21.8 9.69H87.25V34.74H89v23.8h23.79Zm.14-3.42h-6.26v-6.27h6.26Zm0-7.84h-6.26v-6.27h6.26Zm0-7.83h-6.26v-6.27h6.26Z" style="fill:#0078d7"/>
	<path d="M90.6 89.34h-1.36l-1.11-3h-4.46l-1 3h-1.41l4-10.51h1.27Zm-2.87-4-1.65-4.48a3.34 3.34 0 0 1-.16-.7 4.22 4.22 0 0 1-.17.7l-1.64 4.48Zm9.49-3.11-4.44 6.13h4.39v1H91V89l4.44-6.1h-4v-1h5.79Zm7.61 7.16h-1.2v-1.24a2.45 2.45 0 0 1-2.31 1.36c-1.79 0-2.68-1.06-2.68-3.19v-4.48h1.16v4.29c0 1.58.61 2.37 1.82 2.37a1.82 1.82 0 0 0 1.45-.65 2.5 2.5 0 0 0 .56-1.69v-4.32h1.2Zm6.34-6.29a1.47 1.47 0 0 0-.91-.24 1.51 1.51 0 0 0-1.28.73 3.29 3.29 0 0 0-.52 2v3.83h-1.2v-7.5h1.2v1.54a2.61 2.61 0 0 1 .78-1.23 1.77 1.77 0 0 1 1.18-.44 2 2 0 0 1 .72.1Zm7.13 2.84H113a2.8 2.8 0 0 0 .67 1.93 2.3 2.3 0 0 0 1.77.68 3.69 3.69 0 0 0 2.33-.83v1.08a4.41 4.41 0 0 1-2.61.71 3.18 3.18 0 0 1-2.5-1 4.2 4.2 0 0 1-.91-2.87 4.09 4.09 0 0 1 1-2.86 3.19 3.19 0 0 1 2.46-1.1 2.84 2.84 0 0 1 2.28 1 4 4 0 0 1 .8 2.65Zm-1.23-1a2.43 2.43 0 0 0-.5-1.62 1.73 1.73 0 0 0-1.37-.58 1.94 1.94 0 0 0-1.44.61 2.81 2.81 0 0 0-.74 1.59ZM60.66 97.26h-3v8.58h-2.37v-8.58h-3v-1.93h8.35Zm6.15 8.58h-2.19v-1.08a2.46 2.46 0 0 1-2.26 1.24 2.35 2.35 0 0 1-1.72-.62 2.23 2.23 0 0 1-.62-1.65q0-2.18 2.58-2.52l2-.27c0-.82-.45-1.23-1.33-1.23a4.54 4.54 0 0 0-2.55.8v-1.72a5.19 5.19 0 0 1 1.32-.44 6.85 6.85 0 0 1 1.53-.2c2.14 0 3.2 1.07 3.2 3.21Zm-2.17-3v-.5l-1.36.17c-.76.1-1.13.44-1.13 1a.86.86 0 0 0 .27.65 1.06 1.06 0 0 0 .75.25 1.37 1.37 0 0 0 1.06-.45 1.64 1.64 0 0 0 .41-1.17ZM71 105v.87h-2.35V94.73H71v4.74a2.74 2.74 0 0 1 2.44-1.32 2.68 2.68 0 0 1 2.23 1 4.32 4.32 0 0 1 .79 2.73 4.66 4.66 0 0 1-.92 3 3 3 0 0 1-2.46 1.12 2.36 2.36 0 0 1-2.08-1Zm-.07-3.17v.77a1.74 1.74 0 0 0 .42 1.2 1.36 1.36 0 0 0 1.07.48 1.44 1.44 0 0 0 1.23-.61 3 3 0 0 0 .43-1.74 2.33 2.33 0 0 0-.4-1.45 1.33 1.33 0 0 0-1.14-.52 1.47 1.47 0 0 0-1.15.52 2 2 0 0 0-.47 1.32Zm9.34 4H78v-11.1h2.31Zm8.73-3.08h-4.94c.07 1.09.76 1.63 2 1.63a4 4 0 0 0 2.18-.59v1.67a5.61 5.61 0 0 1-2.7.56 3.5 3.5 0 0 1-3.83-3.81 4 4 0 0 1 1.09-3 3.6 3.6 0 0 1 2.66-1.1 3.28 3.28 0 0 1 2.54 1 3.74 3.74 0 0 1 .9 2.64Zm-2.15-1.42c0-1.08-.43-1.62-1.3-1.62a1.24 1.24 0 0 0-1 .47 2 2 0 0 0-.5 1.15Zm7.41 4.11v-2.35a4.37 4.37 0 0 0 1.38.8 4.42 4.42 0 0 0 1.51.27 3.53 3.53 0 0 0 .78-.08 1.92 1.92 0 0 0 .56-.22 1 1 0 0 0 .33-.34.9.9 0 0 0-.07-1 1.75 1.75 0 0 0-.48-.45 4.76 4.76 0 0 0-.72-.39l-.9-.39a4.57 4.57 0 0 1-1.83-1.25 2.72 2.72 0 0 1-.61-1.79 2.83 2.83 0 0 1 .33-1.41 2.79 2.79 0 0 1 .9-1 4.18 4.18 0 0 1 1.31-.56 6.79 6.79 0 0 1 1.59-.18 9 9 0 0 1 1.45.1 5.89 5.89 0 0 1 1.17.3v2.19a3.6 3.6 0 0 0-.58-.32 4.41 4.41 0 0 0-.64-.23 5.42 5.42 0 0 0-.65-.14 4.59 4.59 0 0 0-.62 0 2.77 2.77 0 0 0-.73.08 1.93 1.93 0 0 0-.56.21 1.14 1.14 0 0 0-.35.34.73.73 0 0 0-.13.43.82.82 0 0 0 .14.47 1.68 1.68 0 0 0 .4.4 4.83 4.83 0 0 0 .62.37c.24.12.52.24.83.37a7.93 7.93 0 0 1 1.13.56 3.88 3.88 0 0 1 .86.67 2.64 2.64 0 0 1 .55.85 3 3 0 0 1 .19 1.12 3 3 0 0 1-.33 1.47 2.82 2.82 0 0 1-.91 1 3.86 3.86 0 0 1-1.33.53 7.48 7.48 0 0 1-1.6.16 9.63 9.63 0 0 1-1.64-.14 5.22 5.22 0 0 1-1.4-.45Zm12.82.31a3.43 3.43 0 0 1-1.54.27c-1.63 0-2.45-.85-2.45-2.54V100h-1.22v-1.7H103v-1.58l2.31-.66v2.28H107V100h-1.68v3q0 1.17.93 1.17a1.58 1.58 0 0 0 .75-.17Zm4.82.27a4 4 0 0 1-2.95-1 4.35 4.35 0 0 1 0-5.76 4.19 4.19 0 0 1 3-1.06 3.93 3.93 0 0 1 2.93 1.06A3.72 3.72 0 0 1 116 102a4 4 0 0 1-1.1 3 4.09 4.09 0 0 1-3.05 1Zm.06-6.09a1.54 1.54 0 0 0-1.27.56 2.46 2.46 0 0 0-.46 1.6q0 2.16 1.74 2.16c1.11 0 1.67-.74 1.67-2.22s-.64-2.1-1.73-2.1Zm10.43.5a1.91 1.91 0 0 0-1-.23 1.39 1.39 0 0 0-1.18.55 2.38 2.38 0 0 0-.43 1.51v3.58h-2.31v-7.5h2.31v1.39a2 2 0 0 1 2-1.52 1.73 1.73 0 0 1 .57.08Zm7.32 5.41h-2.19v-1.08a2.46 2.46 0 0 1-2.32 1.24 2.33 2.33 0 0 1-1.71-.62 2.2 2.2 0 0 1-.63-1.65q0-2.18 2.58-2.52l2-.27c0-.82-.44-1.23-1.33-1.23a4.54 4.54 0 0 0-2.55.8v-1.72a5.19 5.19 0 0 1 1.32-.44 6.85 6.85 0 0 1 1.53-.2q3.21 0 3.21 3.21Zm-2.18-3v-.5l-1.36.17c-.75.1-1.13.44-1.13 1a.83.83 0 0 0 .28.65 1 1 0 0 0 .74.25 1.37 1.37 0 0 0 1.06-.45 1.64 1.64 0 0 0 .36-1.17Zm11.31 2.16a4.22 4.22 0 0 1-1.21 3.23 4.86 4.86 0 0 1-3.5 1.15 5.51 5.51 0 0 1-2.4-.43v-2a4.59 4.59 0 0 0 2.34.67 2.51 2.51 0 0 0 1.81-.61 2.25 2.25 0 0 0 .65-1.69v-.59a2.59 2.59 0 0 1-2.34 1.26 2.82 2.82 0 0 1-2.28-1 4.1 4.1 0 0 1-.84-2.71 4.51 4.51 0 0 1 .94-3 3.06 3.06 0 0 1 2.47-1.13 2.3 2.3 0 0 1 2.05 1.06v-.87h2.31Zm-2.28-2.75v-.59a1.78 1.78 0 0 0-.43-1.21 1.33 1.33 0 0 0-1.09-.5 1.42 1.42 0 0 0-1.21.6 2.83 2.83 0 0 0-.44 1.69 2.37 2.37 0 0 0 .42 1.48 1.35 1.35 0 0 0 1.14.55 1.43 1.43 0 0 0 1.16-.55 2.26 2.26 0 0 0 .45-1.49Zm10.95.52h-4.89c.08 1.09.76 1.63 2.06 1.63a3.92 3.92 0 0 0 2.17-.59v1.67a5.58 5.58 0 0 1-2.7.56 3.49 3.49 0 0 1-3.82-3.81 4 4 0 0 1 1.08-3 3.61 3.61 0 0 1 2.67-1.1 3.29 3.29 0 0 1 2.54 1 3.78 3.78 0 0 1 .89 2.64Zm-2.14-1.42c0-1.08-.44-1.62-1.31-1.62a1.24 1.24 0 0 0-1 .47 2 2 0 0 0-.49 1.15Z" style="fill:#706d6e"/>
</svg>
