<svg xmlns="http://www.w3.org/2000/svg" width="200" height="128">
	<path d="M100 55.19a.34.34 0 0 1 .35-.26h13.59a15.12 15.12 0 0 0 2.43-.18 10.43 10.43 0 0 0 3.38-1.2 10.79 10.79 0 0 0 5.25-6.82 11.43 11.43 0 0 0 .28-3.35 10.3 10.3 0 0 0-1.41-4.71 10.78 10.78 0 0 0-4.23-4.08c-.38-.21-.41-.29-.34-.71s.11-.53.14-.79a12.11 12.11 0 0 0-.37-4.64 11.55 11.55 0 0 0-1.66-3.7 12.77 12.77 0 0 0-8.7-5.58 12.81 12.81 0 0 0-12.6 5.43c-.32.48-.37.49-.85.2a9.32 9.32 0 0 0-4.67-1.35 8.79 8.79 0 0 0-3.19.37A9.68 9.68 0 0 0 80.56 34a.7.7 0 0 1-.38.77 10.8 10.8 0 0 0-3.33 3 10.32 10.32 0 0 0-2 5.12 10.6 10.6 0 0 0 .39 4.4 10.92 10.92 0 0 0 3.69 5.36 10.48 10.48 0 0 0 3.55 1.85 12.56 12.56 0 0 0 3.66.47h12.73c0 .26 0 .45-.07.62s-.14.48-.19.72c-.16.8-.21.85-1 .85H78a5.86 5.86 0 0 0-.94.06 1.61 1.61 0 0 0-1.32 1.49v12.72a1.61 1.61 0 0 0 .92 1.37 2.27 2.27 0 0 0 1.14.2h44.92a1.66 1.66 0 0 0 1.34-.75 2 2 0 0 0 .29-1.21V58.79a1.63 1.63 0 0 0-1.48-1.6 5.61 5.61 0 0 0-.71 0H99.6a.72.72 0 0 1 0-.24q.15-.95.4-1.76Zm-.42 4.88h21c.85 0 .87 0 .87.87v9a3 3 0 0 1-.4.09 3.69 3.69 0 0 1-.47 0h-41.1c-.88 0-.88 0-.88-.87v-8.3c0-.78 0-.8.77-.8h17.98a.87.87 0 0 1-.59 1.31 3.6 3.6 0 0 0-2.82 2.21A3.69 3.69 0 1 0 99 61.79l-.34-.17a.39.39 0 0 1-.23-.5 1.85 1.85 0 0 0 0-.23c.26-.78.32-.82 1.12-.82ZM99.19 52h-13.6a7.81 7.81 0 0 1-4.69-1.53A7.92 7.92 0 0 1 78.18 47a7.57 7.57 0 0 1-.41-4.28 7.79 7.79 0 0 1 3.16-4.93 10.36 10.36 0 0 1 2.51-1.26l.22-.07c.32-.13.39-.25.3-.58s-.21-.72-.3-1.08a6.67 6.67 0 0 1 4.06-8 6.94 6.94 0 0 1 3.28-.39 6.78 6.78 0 0 1 4.43 2.38c.36.4.73.77 1.08 1.15.3-.1.33-.33.42-.52.33-.76.62-1.54 1-2.27A9.89 9.89 0 0 1 108 22a9.58 9.58 0 0 1 4.86 2.08 9.67 9.67 0 0 1 3.6 9 14.69 14.69 0 0 1-.58 2.21c-.07.25-.15.5-.24.81.3.12.55.23.81.32a8.83 8.83 0 0 1 2.88 1.43 7.75 7.75 0 0 1 2.74 4 7.87 7.87 0 0 1-4 9.17 8 8 0 0 1-3.75.91h-12.9c-.19 0-.39 0-.65-.06l.32-1.32L102 47c.2-.82.41-1.64.61-2.45.09-.35.17-.7.25-1.05a.61.61 0 0 1 .52-.48 4.6 4.6 0 0 0 1.87-.81c.46-.31.52-.31.92.08 1.23 1.19 2.45 2.4 3.7 3.58a1 1 0 0 1 .36 1.12 2.56 2.56 0 0 0 .5 2.21 2.8 2.8 0 1 0 3.19-4.34 2.61 2.61 0 0 0-2.18.12l-.62.3a4.37 4.37 0 0 1-.36-.3c-1.28-1.24-2.55-2.48-3.84-3.71a.67.67 0 0 1-.22-.89A4.18 4.18 0 0 0 107 38a4.27 4.27 0 0 0-2.73-3.68 4.41 4.41 0 0 0-5 1c-.42.38-.43.39-.92.08L96.19 34a.74.74 0 0 1-.39-.81 2.77 2.77 0 0 0-3.71-2.91 2.93 2.93 0 0 0-1.85 2.49 2.88 2.88 0 0 0 1.81 2.8 2.74 2.74 0 0 0 2.43-.23 2.71 2.71 0 0 0 .35-.24.54.54 0 0 1 .72 0c.73.48 1.48.93 2.22 1.4a3.66 3.66 0 0 1 .42.34c-.07.36-.14.68-.18 1a4.54 4.54 0 0 0 .2 2.22c.17.48.13.58-.29.85l-4.08 2.59a.72.72 0 0 1-.86-.05 2.25 2.25 0 0 0-3.09.86 2.2 2.2 0 0 0 0 2.28 2.15 2.15 0 0 0 2 1.09 2.19 2.19 0 0 0 2.14-2.13 1.23 1.23 0 0 1 .7-1.15c1.32-.8 2.61-1.65 3.92-2.47.41-.26.42-.26.78 0a5.43 5.43 0 0 0 1.79 1c.44.15.52.27.41.73-.16.72-.34 1.43-.51 2.14s-.43 1.67-.64 2.5c-.27 1.09-.53 2.18-.81 3.27-.04.34-.14.43-.48.43Zm17.64 12a12.39 12.39 0 0 1 0-2.11 5.2 5.2 0 0 1 2.29 0v1.79c0 .24-.09.41-.35.41h-1.78c.01-.01-.05-.09-.16-.09Zm0 4.17a11.15 11.15 0 0 1 0-2.16H119a5.06 5.06 0 0 1 .07 2.14 5.64 5.64 0 0 1-2.24.01Z" style="fill:#006dd6"/>
	<path d="M90.6 89.34h-1.36l-1.11-3h-4.46l-1 3h-1.41l4-10.51h1.27Zm-2.87-4-1.65-4.48a3.34 3.34 0 0 1-.16-.7 4.22 4.22 0 0 1-.17.7l-1.64 4.48Zm9.49-3.11-4.44 6.13h4.39v1H91V89l4.44-6.1h-4v-1h5.79Zm7.61 7.16h-1.2v-1.24a2.45 2.45 0 0 1-2.31 1.36c-1.79 0-2.68-1.06-2.68-3.19v-4.48h1.16v4.29c0 1.58.61 2.37 1.82 2.37a1.82 1.82 0 0 0 1.45-.65 2.5 2.5 0 0 0 .56-1.69v-4.32h1.2Zm6.34-6.29a1.47 1.47 0 0 0-.91-.24 1.51 1.51 0 0 0-1.28.73 3.29 3.29 0 0 0-.52 2v3.83h-1.2v-7.5h1.2v1.54a2.61 2.61 0 0 1 .78-1.23 1.77 1.77 0 0 1 1.18-.44 2 2 0 0 1 .72.1Zm7.13 2.84H113a2.8 2.8 0 0 0 .67 1.93 2.3 2.3 0 0 0 1.77.68 3.69 3.69 0 0 0 2.33-.83v1.08a4.41 4.41 0 0 1-2.61.71 3.18 3.18 0 0 1-2.5-1 4.2 4.2 0 0 1-.91-2.87 4.09 4.09 0 0 1 1-2.86 3.19 3.19 0 0 1 2.46-1.1 2.84 2.84 0 0 1 2.28 1 4 4 0 0 1 .8 2.65Zm-1.23-1a2.43 2.43 0 0 0-.5-1.62 1.73 1.73 0 0 0-1.37-.58 1.94 1.94 0 0 0-1.44.61 2.81 2.81 0 0 0-.74 1.59ZM73.68 95.33v1.84h-.87V104h.87v1.83h-4.12V104h.88v-6.83h-.88v-1.84ZM78.54 106a4 4 0 0 1-3-1 4.35 4.35 0 0 1 0-5.76 4.19 4.19 0 0 1 3-1.06 4 4 0 0 1 2.93 1.06 3.72 3.72 0 0 1 1.16 2.76 4 4 0 0 1-1.09 3 4.09 4.09 0 0 1-3 1Zm.06-6.09a1.57 1.57 0 0 0-1.28.56 2.52 2.52 0 0 0-.45 1.6q0 2.16 1.74 2.16c1.11 0 1.67-.74 1.67-2.22s-.56-2.08-1.68-2.08Zm13.14-2.67h-3v8.58h-2.37v-8.56h-3v-1.93h8.35Zm11.85 8.58h-6.3V95.33h6.06v1.93h-3.69v2.34h3.43v1.92h-3.43v2.4h3.93Zm8.8 0h-2.32v-1a2.58 2.58 0 0 1-2.32 1.22 2.83 2.83 0 0 1-2.26-1 4.12 4.12 0 0 1-.86-2.77 4.51 4.51 0 0 1 .94-3 3.09 3.09 0 0 1 2.43-1.12 2.09 2.09 0 0 1 2 1v-4.42h2.32Zm-2.27-3.65v-.56a1.8 1.8 0 0 0-.43-1.22 1.51 1.51 0 0 0-2.31.12 2.87 2.87 0 0 0-.43 1.66 2.39 2.39 0 0 0 .42 1.52 1.47 1.47 0 0 0 2.3 0 2.3 2.3 0 0 0 .45-1.5Zm11.57 2.83a4.25 4.25 0 0 1-1.21 3.23 4.87 4.87 0 0 1-3.5 1.15 5.51 5.51 0 0 1-2.4-.43v-2a4.58 4.58 0 0 0 2.33.67 2.54 2.54 0 0 0 1.82-.61 2.25 2.25 0 0 0 .64-1.69v-.59A2.57 2.57 0 0 1 117 106a2.82 2.82 0 0 1-2.28-1 4.1 4.1 0 0 1-.84-2.71 4.56 4.56 0 0 1 .93-3 3.07 3.07 0 0 1 2.47-1.13 2.27 2.27 0 0 1 2 1.06v-.87h2.32Zm-2.29-2.75v-.59a1.82 1.82 0 0 0-.42-1.21 1.33 1.33 0 0 0-1.09-.5 1.41 1.41 0 0 0-1.21.6 2.76 2.76 0 0 0-.44 1.69 2.37 2.37 0 0 0 .42 1.48 1.33 1.33 0 0 0 1.14.55 1.44 1.44 0 0 0 1.16-.55 2.32 2.32 0 0 0 .44-1.49Zm11 .52h-4.89c.07 1.09.76 1.63 2 1.63a3.93 3.93 0 0 0 2.18-.59v1.67a5.58 5.58 0 0 1-2.7.56 3.5 3.5 0 0 1-3.83-3.81 4 4 0 0 1 1.09-3 3.6 3.6 0 0 1 2.66-1.1 3.28 3.28 0 0 1 2.54 1 3.74 3.74 0 0 1 .9 2.64Zm-2.15-1.42c0-1.08-.43-1.62-1.3-1.62a1.24 1.24 0 0 0-1 .47 2.09 2.09 0 0 0-.5 1.15Z" style="fill:#706d6e"/>
</svg>
