<svg xmlns="http://www.w3.org/2000/svg" width="200" height="128">
	<path d="M100 73a5 5 0 0 1-3.52-1.46l-22-22a5 5 0 0 1 0-7l22-22a5 5 0 0 1 7 0l22 22a5 5 0 0 1 0 7l-22 22A5 5 0 0 1 100 73" style="fill:#59b4d9"/>
	<path d="M114.7 41.78a4.21 4.21 0 0 0-3.52 6.54l-8.37 8.36a3.81 3.81 0 0 0-.71-.4V34.94a4.22 4.22 0 1 0-4.2 0v21.34a4.64 4.64 0 0 0-.69.38l-8.37-8.38a4.16 4.16 0 0 0 .68-2.28 4.22 4.22 0 1 0-4.22 4.22 4.16 4.16 0 0 0 1.37-.22l8.81 8.81a4.75 4.75 0 0 0-.4 1.92 4.92 4.92 0 1 0 9.83 0 4.76 4.76 0 0 0-.38-1.89l8.83-8.84a4.22 4.22 0 1 0 1.34-8.21Z" style="fill:#fff"/>
	<path d="m116.71 46-1.93 1.93L99 32.12l1.93-1.93ZM99.1 30.21l1.9 1.92-15.76 15.79L83.31 46Z" style="isolation:isolate;opacity:.5;fill:#fff"/>
	<path d="M102.88 60.7a2.93 2.93 0 1 1-2.88-2.92 2.93 2.93 0 0 1 2.93 2.92m-.53-29.4A2.35 2.35 0 1 1 100 29a2.35 2.35 0 0 1 2.35 2.35M87.65 46a2.35 2.35 0 1 1-2.35-2.35A2.35 2.35 0 0 1 87.65 46m29.4 0a2.35 2.35 0 1 1-2.35-2.35 2.35 2.35 0 0 1 2.35 2.35" style="fill:#b8d432"/>
	<path d="M103.52 20.46a5 5 0 0 0-7 0l-22 22a5 5 0 0 0 0 7L86.93 62l23.45-34.68Z" style="opacity:.1;isolation:isolate;fill:#fff"/>
	<path d="M90.6 89.34h-1.36l-1.11-3h-4.46l-1 3h-1.41l4-10.51h1.27Zm-2.87-4-1.65-4.48a3.34 3.34 0 0 1-.16-.7 4.22 4.22 0 0 1-.17.7l-1.64 4.48Zm9.49-3.11-4.44 6.13h4.39v1H91V89l4.44-6.1h-4v-1h5.79Zm7.61 7.16h-1.2v-1.24a2.45 2.45 0 0 1-2.31 1.36c-1.79 0-2.68-1.06-2.68-3.19v-4.48h1.16v4.29c0 1.58.61 2.37 1.82 2.37a1.82 1.82 0 0 0 1.45-.65 2.5 2.5 0 0 0 .56-1.69v-4.32h1.2Zm6.34-6.29a1.47 1.47 0 0 0-.91-.24 1.51 1.51 0 0 0-1.28.73 3.29 3.29 0 0 0-.52 2v3.83h-1.2v-7.5h1.2v1.54a2.61 2.61 0 0 1 .78-1.23 1.77 1.77 0 0 1 1.18-.44 2 2 0 0 1 .72.1Zm7.13 2.84H113a2.8 2.8 0 0 0 .67 1.93 2.3 2.3 0 0 0 1.77.68 3.69 3.69 0 0 0 2.33-.83v1.08a4.41 4.41 0 0 1-2.61.71 3.18 3.18 0 0 1-2.5-1 4.2 4.2 0 0 1-.91-2.87 4.09 4.09 0 0 1 1-2.86 3.19 3.19 0 0 1 2.46-1.1 2.84 2.84 0 0 1 2.28 1 4 4 0 0 1 .8 2.65Zm-1.23-1a2.43 2.43 0 0 0-.5-1.62 1.73 1.73 0 0 0-1.37-.58 1.94 1.94 0 0 0-1.44.61 2.81 2.81 0 0 0-.74 1.59Zm-63.74 20.68h-2.58l-.75-2.34h-3.73l-.74 2.34H43l3.83-10.51h2.8Zm-3.87-4.16-1.13-3.53a4.53 4.53 0 0 1-.17-.94h-.06a4.1 4.1 0 0 1-.19.91l-1.14 3.56Zm10.63 3.88a4.46 4.46 0 0 1-2.26.46 3.84 3.84 0 0 1-2.8-1 3.63 3.63 0 0 1-1.07-2.7 4 4 0 0 1 1.15-3 4.22 4.22 0 0 1 3.07-1.11 3.94 3.94 0 0 1 1.91.35v2a2.62 2.62 0 0 0-1.61-.54 2.12 2.12 0 0 0-1.58.58 2.17 2.17 0 0 0-.59 1.61 2.14 2.14 0 0 0 .56 1.56 2 2 0 0 0 1.53.57 3 3 0 0 0 1.69-.54Zm6 .19a3.4 3.4 0 0 1-1.54.27c-1.63 0-2.45-.85-2.45-2.54v-3.44h-1.16v-1.7h1.21V96.5l2.31-.66v2.28h1.68v1.7h-1.68v3c0 .79.31 1.18.93 1.18a1.47 1.47 0 0 0 .75-.22Zm2.48-8.6a1.37 1.37 0 0 1-1-.35 1.1 1.1 0 0 1-.37-.85 1.07 1.07 0 0 1 .37-.85 1.4 1.4 0 0 1 1-.33 1.37 1.37 0 0 1 1 .33 1.07 1.07 0 0 1 .37.85 1.09 1.09 0 0 1-.37.86 1.33 1.33 0 0 1-.95.34Zm1.14 8.69h-2.26v-7.5h2.31Zm9.09-7.5-2.79 7.5h-2.59l-2.65-7.5h2.47l1.3 4.62a6.16 6.16 0 0 1 .26 1.33 7.67 7.67 0 0 1 .27-1.29l1.33-4.66Zm7.58 4.41h-4.84c.08 1.08.76 1.63 2.06 1.63a4 4 0 0 0 2.17-.59v1.67a5.7 5.7 0 0 1-2.7.56 3.49 3.49 0 0 1-3.82-3.8 4 4 0 0 1 1.08-3A3.64 3.64 0 0 1 83 97.93a3.29 3.29 0 0 1 2.54 1 3.78 3.78 0 0 1 .89 2.64Zm-2.14-1.43c0-1.07-.44-1.61-1.31-1.61a1.26 1.26 0 0 0-1 .46 2.16 2.16 0 0 0-.5 1.15Zm7.88 4.52V95.11h3.78q5.59 0 5.59 5.12a5.17 5.17 0 0 1-1.53 3.92 5.59 5.59 0 0 1-4.06 1.47ZM94.54 97v6.66h1.17a3.17 3.17 0 0 0 2.42-.93 3.5 3.5 0 0 0 .87-2.51 3.16 3.16 0 0 0-.87-2.36A3.32 3.32 0 0 0 95.7 97Zm9.64-.11a1.37 1.37 0 0 1-1-.35 1.1 1.1 0 0 1-.37-.85 1.07 1.07 0 0 1 .37-.85 1.4 1.4 0 0 1 1-.33 1.38 1.38 0 0 1 1 .33 1.07 1.07 0 0 1 .37.85 1.09 1.09 0 0 1-.37.86 1.34 1.34 0 0 1-1 .38Zm1.14 8.69H103v-7.5h2.31Zm6.84-5.42a2 2 0 0 0-1-.22 1.4 1.4 0 0 0-1.18.55 2.43 2.43 0 0 0-.43 1.5v3.59h-2.31v-7.5h2.31v1.39a2 2 0 0 1 2-1.53 1.44 1.44 0 0 1 .57.09Zm7.76 2.33H115c.07 1.08.76 1.63 2 1.63a4 4 0 0 0 2.18-.59v1.67a5.7 5.7 0 0 1-2.7.56 3.5 3.5 0 0 1-3.83-3.82 4 4 0 0 1 1.09-3 3.63 3.63 0 0 1 2.66-1.09 3.28 3.28 0 0 1 2.54 1 3.74 3.74 0 0 1 .9 2.64Zm-2.15-1.43c0-1.07-.43-1.61-1.3-1.61a1.26 1.26 0 0 0-1 .46 2.08 2.08 0 0 0-.5 1.15Zm9.21 4.24a4.49 4.49 0 0 1-2.26.46 3.81 3.81 0 0 1-2.8-1 3.63 3.63 0 0 1-1.07-2.7A3.94 3.94 0 0 1 122 99a4.2 4.2 0 0 1 3.06-1.11 4 4 0 0 1 1.92.35v2a2.63 2.63 0 0 0-1.62-.54 2.14 2.14 0 0 0-1.58.58 2.49 2.49 0 0 0 0 3.17 2 2 0 0 0 1.53.57 3.07 3.07 0 0 0 1.69-.54Zm6 .19a3.44 3.44 0 0 1-1.55.27c-1.63 0-2.44-.85-2.44-2.54v-3.4h-1.22v-1.7H129V96.5l2.3-.66v2.28h1.7v1.7h-1.69v3c0 .79.31 1.18.93 1.18a1.5 1.5 0 0 0 .76-.22Zm4.82.27a4 4 0 0 1-2.95-1 3.79 3.79 0 0 1-1.07-2.85 3.84 3.84 0 0 1 1.16-2.91 4.21 4.21 0 0 1 3-1 4 4 0 0 1 2.93 1 3.73 3.73 0 0 1 1.06 2.78 4 4 0 0 1-1.09 3 4.09 4.09 0 0 1-2.99 1.02Zm.06-6.09a1.55 1.55 0 0 0-1.28.56 2.52 2.52 0 0 0-.45 1.6q0 2.16 1.74 2.16c1.11 0 1.66-.74 1.66-2.22s-.53-2.06-1.62-2.06Zm10.43.49a2.05 2.05 0 0 0-1-.22 1.41 1.41 0 0 0-1.18.55 2.43 2.43 0 0 0-.42 1.5v3.59h-2.32v-7.5h2.32v1.39a2 2 0 0 1 2-1.53 1.48 1.48 0 0 1 .57.09Zm8.81-2.08-3 8.1c-.73 2-1.84 2.92-3.31 2.92a4.2 4.2 0 0 1-1.39-.19v-1.81a2 2 0 0 0 1 .27 1.25 1.25 0 0 0 1.24-.84l.4-.93-3.04-7.48h2.56l1.4 4.56a5.82 5.82 0 0 1 .21 1 6.35 6.35 0 0 1 .24-1l1.41-4.57Z" style="fill:#706d6e"/>
</svg>
