<svg xmlns="http://www.w3.org/2000/svg" width="200" height="128">
	<defs>
		<style>
			.cls-3{fill-rule:evenodd}.cls-2{fill:#1e1e1e}.cls-3{fill:#fffacb}
		</style>
	</defs>
	<path style="fill-rule:evenodd;fill:#fcd116" d="m90.42 32.82-4.24.73-3.76 1.69-3.27 2.06L76 41.06l-1.7 1.82-1.69.6-.49-1.09.85-1.09.12-1.57h.61l.48.48-.12-1.57-.61-.49v-.6l-1.45.84-1.45 1.58-.25 1.45.61 1.22.48 1.94 1.1.48h1.21l1.09-.73-.73 3.76.73 4.12-.85 1.94-2.55 2.79.37 1.82 1.33 1.94 2.3 1.57 1.34.24h1.33l-.85 3.64 3.15 1.33 4 .49L85.7 67l.12-2.3 1.57-2.55.13-2.06 3.63.36 3.4-.36-3.4 2.06.61 2.43 2.06 3.39 2.18.85 1.58-.61.72-1.45 3.52-2.67.73.61 5.45.24 1.09-.97.12-1.58-.36-.6-.24-4.24-1.82-3.64.24-1.7 1.09.61 3.15 2.91 1.46.12 1.69-.73 1.7-1.21.85-2.79 4.85.36 3.03-1.21 2.42-2.18 1.7-3.27.48-3.88-.36-4.36-.97-4-.97-1.34-1.33-.36-2.3 2.54-2.07.73-1.81-3.03-1.82-1.7-1.09-.6-3.88-3.4-3.27-1.69-3.16-.25-3.75.61-3.28 1.21-2.18 1.82-1.82 2.18-1.81.49-3.16 3.03z"/>
	<path class="cls-2" d="m74.06 41.06.49.61.12-.73h-.37l-.24.12z"/>
	<path class="cls-2" d="M129.82 36.33a13.38 13.38 0 0 0-1.46-4.85c-.12-.12-.24-.36-.36-.48a5 5 0 0 0-1.33-.85 1.82 1.82 0 0 0-1.58 0c-.12.12-.24.12-.36.24a6.62 6.62 0 0 0-.73 1 8 8 0 0 1-.85 1.09 4.5 4.5 0 0 1-1.33.73 4.74 4.74 0 0 0-.73-1.33 11.52 11.52 0 0 0-1.09-1.49l-1-1-1.09-.72a27.32 27.32 0 0 1-2.91-2.28c-.36-.36-.85-.72-1.21-1.09a10.7 10.7 0 0 0-6.43-2.78 17.41 17.41 0 0 0-7.27 1.57A12.89 12.89 0 0 0 97 26a17.6 17.6 0 0 0-2.3 2.67 3.67 3.67 0 0 0-1.22.24 4.28 4.28 0 0 0-1.45 1 7.92 7.92 0 0 1-1.09 1l-1 1a26.56 26.56 0 0 0-6.3 1.57 18.18 18.18 0 0 0-5.22 3.16 9.12 9.12 0 0 0-1.81 1.93 20.13 20.13 0 0 0-1.34 2.07l-1.09 1.09a2.47 2.47 0 0 1-1.21.72.93.93 0 0 1-.36.12v-.12a3.11 3.11 0 0 0 .72-2.3c.13.12.13.24.25.36s.12.25.24.37l.24-.24.36.12a5 5 0 0 0 .13-1.94 1.71 1.71 0 0 0-.61-1c0-.12.12-.12.12-.24a1.81 1.81 0 0 0 .24-.85l-.24-.12.24.12.37-.25-.49.13a7.9 7.9 0 0 0-3.27 2.06 5.24 5.24 0 0 0-1 1.33 2.74 2.74 0 0 0-.36 1.58 3.72 3.72 0 0 0 .72 1.33 6.4 6.4 0 0 0 .25.85 1.71 1.71 0 0 1 .24.72 2.51 2.51 0 0 0 1.33 1.22 3 3 0 0 0 1.46 0c-.12.6-.12 1.21-.25 1.81a23.66 23.66 0 0 0 .13 2.91 1.54 1.54 0 0 0 .12.73c0 .24.12.49.12.73a1.7 1.7 0 0 0-.24.73 5.8 5.8 0 0 1-.43 1.18l-1 1-.85.85-.24.24a1.48 1.48 0 0 0-.61 1.69 16.89 16.89 0 0 0 .61 1.94 7.44 7.44 0 0 0 1.21 1.7 12.75 12.75 0 0 0 3 1.94 3.64 3.64 0 0 0 1.94.24c0 .12 0 .25-.12.25a5.85 5.85 0 0 0-.36.84c-.73 1.7 0 2.55 1.21 3a10.88 10.88 0 0 0 1.94.61c.12 0 .24.12.48.12a18.17 18.17 0 0 0 3.4.73c1.33.12 2.54-.24 2.91-1.46a5.25 5.25 0 0 0 .24-1.21v-1.09a5.91 5.91 0 0 1 .85-1.45c0-.12.12-.12.12-.25.24-.48.48-.72.48-1.09v-1.45a14.9 14.9 0 0 0 2.31.12h1.21c-.12 0-.24.12-.37.12a.12.12 0 0 0-.12.12c-1.09.49-1.09 1.58-.72 2.55a5.63 5.63 0 0 0 1.33 2.42 9.61 9.61 0 0 0 2.42 2.79 3.34 3.34 0 0 0 3.52-.12A2.53 2.53 0 0 0 99 67.61c.12-.13.24-.37.36-.49a18.6 18.6 0 0 1 1.82-1.45 4.67 4.67 0 0 1 .85-.61 3.81 3.81 0 0 0 .73.36 4.57 4.57 0 0 0 1.33.12h3.15a3.52 3.52 0 0 0 2.06-.36 2.08 2.08 0 0 0 1-1.82v-1a1.65 1.65 0 0 0-.36-.85v-2.63a7.63 7.63 0 0 0-.73-2.79c-.12-.36-.24-.61-.36-1l-.24.12.24-.12a7.47 7.47 0 0 0-.61-1.45v-.34l.49.49.72.72a8.49 8.49 0 0 0 1.55 1.34 3 3 0 0 0 2.06.48 4.79 4.79 0 0 0 2.67-1 5.88 5.88 0 0 0 1.69-2.18c.13-.24.13-.48.25-.73s.12-.36.12-.6a14 14 0 0 0 3.88.12 10.83 10.83 0 0 0 3.51-1 8.89 8.89 0 0 0 3.52-3.52 13.6 13.6 0 0 0 1.72-5.42c-.12-1.42-.24-3.61-.6-5.67ZM111.64 51c-.37 1.21-1 3.27.72 3.64a2.15 2.15 0 0 0 1.82-.37 3.42 3.42 0 0 1-1.57 0 1 1 0 0 1-.85-.73c.12.13.36.13.85.25a2.17 2.17 0 0 0 2.66-1.21 11.09 11.09 0 0 1 .37-1.46 7.65 7.65 0 0 0 .84.24c-.12.49-.36 1-.48 1.58a3.43 3.43 0 0 1-3.39 2.3c-1.34 0-2.06-.85-3-1.57-.61-.49-1.22-1.09-1.82-1.58a13.37 13.37 0 0 1-4.37-2.18 8.22 8.22 0 0 0 3.28 2.54 31.85 31.85 0 0 1-1.58 5.82c-.24 1-2.54 4.73-3.27 5.09-.49.25-3.27 2.67-3.88 3A5.37 5.37 0 0 1 96.61 68c-1.82 1-3-.85-4-2.43-.49-.72-1.7-2.78-.61-3.39s1.58-1 2.67-1.58a3.49 3.49 0 0 0 .6.85c0-.36-.12-.6-.12-1a3.47 3.47 0 0 1 0-1.57c0-.49.12-1.09.12-1.58-.12.61-.48 1.09-.6 1.7a1.1 1.1 0 0 0-.12.61 19.78 19.78 0 0 1-7 .12c-.13-.85-.37-1.82-.49-2.43v3.88a2.78 2.78 0 0 1-.48 1.94c-.37.73-.61.85-1.22 2.06a10.54 10.54 0 0 1-.12 1.94c-.36 1.21-3.63.24-4.48 0-1.09-.24-3.27-.73-2.79-2.18A17.7 17.7 0 0 0 79 60.57a23.4 23.4 0 0 1-4.12-10.18 12.78 12.78 0 0 1 .48-5.94 16.17 16.17 0 0 1 4.25-6.66c2.78-2.43 5.33-3.4 9.45-4-1 1.09-1.94 2.3-3 3.51a18.53 18.53 0 0 0-2.42 3.88c-1 1.94-1 2.67.36 4.24 1.09 1.46 1.7 2.06 2.06 3.52a8.16 8.16 0 0 0-.61 2.54c1.34 1.46 2.31 2.43 3.52 2.67a4.73 4.73 0 0 0 3.39-.36c2.43-1.21 4.73-2.91 7.52-3a13.46 13.46 0 0 0 .48-9 54.17 54.17 0 0 1-.72-6.18 15.76 15.76 0 0 0-.25 6.3c.49 2.67.85 5.57-.48 7.88-2.55.24-4.73 1.69-7 2.91a4 4 0 0 1-2.91.24c-.73-.12-1.33-.73-2.42-1.94a5.69 5.69 0 0 1 .72-2.79 53.41 53.41 0 0 1 2.91-5c-1.21 1.58-2.42 2.91-3.39 4.37A11.26 11.26 0 0 0 85 44.7a2.55 2.55 0 0 1-.36-3.15A12.82 12.82 0 0 1 87 37.67c2-2.19 3.79-4.49 6-6.67a4.61 4.61 0 0 1 3.15-1.33c1.46-.25 2.79-.49 4.24-.85a24.87 24.87 0 0 1-4.12.36 9.64 9.64 0 0 1 4.24-3.63c5.34-2.31 8.73-2.55 12.85 1a30.5 30.5 0 0 0 3.15 2.54 5.46 5.46 0 0 0-1.21.24 4.68 4.68 0 0 1 1.82.12c.12.13.36.25.49.37a5 5 0 0 1 1.69 1.45 16.3 16.3 0 0 1 1.46 2.43c-.25-.12-.49-.12-.73-.25a.74.74 0 0 0-.49-.12 1.44 1.44 0 0 0-1 .25A4 4 0 0 1 117 34a1.35 1.35 0 0 0 1 0h.12c-.12.12-.12.36-.24.61a2 2 0 0 0 .12.84c0 .13.12.13.12.25-.24.12-.36.12-.61.24a11.81 11.81 0 0 1 2.91 0c.12.36.12.61.25 1h-.37a1.68 1.68 0 0 0-1.7-.12c-2.06.48-1.57 1.69-2.54 3.51 1-1.21 1-2.54 2.54-2.91.37-.12.61-.24.85-.12a2.45 2.45 0 0 0-1.09 1.09c-.48 1.34-.12 2.31-.72 3.52.6-1.09.6-2.06 1.21-3.27.24-.37 1-1.09 1.33-1.09h.36a10.9 10.9 0 0 1 .13 1.93c-.13 1.1-.37 2.67-.49 3.28a8.58 8.58 0 0 0 1.09-3.28 9.24 9.24 0 0 0 0-3.63c-.36-1.7 1.33-1.34 2.3-2.18.73-.61 1.22-1.46 1.82-2.06s1.7.24 1.94 1a24.14 24.14 0 0 1 1.34 9.69c-.37 3-1.82 6.43-4.49 7.88-3.39 1.94-7.51.73-10.91-.36a9.26 9.26 0 0 1-1.82-1 2.7 2.7 0 0 1 .19 2.18Zm-3 12.24c-.13 1.21-.49 1.33-1.7 1.33a25.5 25.5 0 0 1-3-.12 6.51 6.51 0 0 1-1.33-.24 17.1 17.1 0 0 0 3.39-5.45c.36-1.22.85-2.31 1.09-3.52a6.93 6.93 0 0 0 .48 1.46 6.91 6.91 0 0 1 .61 2.3 23.6 23.6 0 0 0 .12 2.91 1.84 1.84 0 0 1 .31 1.33ZM73.21 38a1.94 1.94 0 0 0-.36 1c-.36 1.33.12 2.55-1.09 3.51.6 1.1.48 1.58 1.82 1.1a5.31 5.31 0 0 0 1.33-.85c-.12.48-.36 1-.49 1.45 0 .12 0 .12-.12.24-1 .37-2.18.61-2.66-.36a5.63 5.63 0 0 1-.49-1.58c-1.57-1.57.73-3.75 2.06-4.51Zm.12 1.45a.68.68 0 0 1 .13-.48c0-.12 0-.12.12-.24.36.24.36.48.48 1-.24-.25-.48-.37-.73-.25Zm1.22 14.19a28.56 28.56 0 0 0 3.27 7 9.28 9.28 0 0 1-.36 1c-1 1.33-3.4-.61-4.13-1.34a5 5 0 0 1-1.45-2.66c-.12-.61 0-.61.48-1.09l1.82-1.82Zm46.18-20c0 .12.12.24.12.36l-.12.12c-.12-.12-.25-.36-.37-.48Zm-45.09 7.42Zm-1.94-2.91Zm-3 4.61Zm17 17.81Zm29.57-9Zm10.91-4.13Z"/>
	<path class="cls-2" d="M123.76 35.12a4.55 4.55 0 0 0 2.91-3.64 6.64 6.64 0 0 1-3.16 3.16 3 3 0 0 1-2.06.12 3.18 3.18 0 0 0 2.31.36Z"/>
	<path class="cls-2" d="M114.06 36.82a12.88 12.88 0 0 0-1.82.24c0-.24-.12-.36-.12-.61a1.76 1.76 0 0 0-1.09-1c.36-.24.85-.48 1.21-.72-1 .48-2.06.36-2.91.85s-1.69 2.06-2.42 2.66a9.4 9.4 0 0 0 1.45-1 2.07 2.07 0 0 0 .25.85 1.92 1.92 0 0 0 .84.85 3.81 3.81 0 0 0-.6 1.21 10.57 10.57 0 0 1 5.21-3.33Z"/>
	<path class="cls-2" d="M105.33 35a4.81 4.81 0 0 1 3-3.76c-2.88.76-3.33 1.94-3 3.76Z"/>
	<path class="cls-2" d="M110.06 48.82c-.12.36-.12 1-.24 1.33a5.26 5.26 0 0 1 .6-1.45c.25-.49.37-.49.85-.73a10.43 10.43 0 0 0 1.21-.61c-.36 0-1 .25-1.33.25-.85.12-.97.39-1.09 1.21Z"/>
	<path class="cls-2" d="M94.55 32.45c-1.1 1.1-2.06 4.61-2.43 6.06.49-1.21 1.82-4.48 2.79-5.33a2.42 2.42 0 0 1 .73-.48c-.73 1.21-.61 1.45-.37 3A6.45 6.45 0 0 1 97 32.21c1-.24 1.94-.6 3-1l-3.52.37c-1.09.27-1.33.27-1.93.87Z"/>
	<path class="cls-3" d="M109 38.64a.83.83 0 0 1 .36-1.09.82.82 0 0 1 1.09.36V38a8.55 8.55 0 0 0-1.09 1 .38.38 0 0 1-.36-.36"/>
	<path class="cls-3" d="M117.94 35.12a.61.61 0 1 1 1.21 0v.24a2.68 2.68 0 0 0-1 .25c-.12 0-.24-.25-.24-.49"/>
	<path d="M90.6 89.34h-1.36l-1.11-3h-4.46l-1 3h-1.41l4-10.51h1.27Zm-2.87-4-1.65-4.48a3.34 3.34 0 0 1-.16-.7 4.22 4.22 0 0 1-.17.7l-1.64 4.48Zm9.49-3.11-4.44 6.13h4.39v1H91V89l4.44-6.1h-4v-1h5.79Zm7.61 7.16h-1.2v-1.24a2.45 2.45 0 0 1-2.31 1.36c-1.79 0-2.68-1.06-2.68-3.19v-4.48h1.16v4.29c0 1.58.61 2.37 1.82 2.37a1.82 1.82 0 0 0 1.45-.65 2.5 2.5 0 0 0 .56-1.69v-4.32h1.2Zm6.34-6.29a1.47 1.47 0 0 0-.91-.24 1.51 1.51 0 0 0-1.28.73 3.29 3.29 0 0 0-.52 2v3.83h-1.2v-7.5h1.2v1.54a2.61 2.61 0 0 1 .78-1.23 1.77 1.77 0 0 1 1.18-.44 2 2 0 0 1 .72.1Zm7.13 2.84H113a2.8 2.8 0 0 0 .67 1.93 2.3 2.3 0 0 0 1.77.68 3.69 3.69 0 0 0 2.33-.83v1.08a4.41 4.41 0 0 1-2.61.71 3.18 3.18 0 0 1-2.5-1 4.2 4.2 0 0 1-.91-2.87 4.09 4.09 0 0 1 1-2.86 3.19 3.19 0 0 1 2.46-1.1 2.84 2.84 0 0 1 2.28 1 4 4 0 0 1 .8 2.65Zm-1.23-1a2.43 2.43 0 0 0-.5-1.62 1.73 1.73 0 0 0-1.37-.58 1.94 1.94 0 0 0-1.44.61 2.81 2.81 0 0 0-.74 1.59Zm-42.48 21h-2.37v-4.28h-4.35v4.28H65.5V95.33h2.37v4.19h4.35v-4.19h2.37Zm2.41 0V95.33h3.72q5.59 0 5.59 5.13a5.15 5.15 0 0 1-1.53 3.91 5.59 5.59 0 0 1-4.06 1.47Zm2.36-8.58v6.66h1.17A3.2 3.2 0 0 0 83 103a3.54 3.54 0 0 0 .87-2.52 3.18 3.18 0 0 0-.87-2.36 3.3 3.3 0 0 0-2.43-.86Zm11.94-2.03v1.84h-.88V104h.88v1.83h-4.12V104h.87v-6.83h-.87v-1.84Zm8.52 10.51h-2.3v-4.17c0-1.16-.42-1.74-1.25-1.74a1.23 1.23 0 0 0-1 .46 1.75 1.75 0 0 0-.38 1.17v4.28h-2.31v-7.5h2.32v1.18a2.67 2.67 0 0 1 2.41-1.37c1.66 0 2.49 1 2.49 3.1Zm1.35-.2v-1.87a4.88 4.88 0 0 0 1.13.51 3.9 3.9 0 0 0 1.08.17 2.34 2.34 0 0 0 1-.17.54.54 0 0 0 .35-.51.47.47 0 0 0-.16-.37 1.61 1.61 0 0 0-.41-.26 4.08 4.08 0 0 0-.56-.19c-.2-.06-.39-.13-.57-.2a6.54 6.54 0 0 1-.79-.37 2 2 0 0 1-.57-.45 1.6 1.6 0 0 1-.35-.59 2.36 2.36 0 0 1-.12-.8 2.06 2.06 0 0 1 .27-1.08 2.37 2.37 0 0 1 .73-.75 3.5 3.5 0 0 1 1-.42 5.45 5.45 0 0 1 1.23-.14 7.08 7.08 0 0 1 2 .31v1.78a3.64 3.64 0 0 0-.94-.38 3.85 3.85 0 0 0-1-.13 2 2 0 0 0-.43 0 1.6 1.6 0 0 0-.35.12.58.58 0 0 0-.24.19.51.51 0 0 0 0 .63 1.11 1.11 0 0 0 .34.25 3 3 0 0 0 .48.19l.51.18a5.44 5.44 0 0 1 .84.35 2.5 2.5 0 0 1 .64.44 2 2 0 0 1 .41.6 2.31 2.31 0 0 1 .14.82 2.06 2.06 0 0 1-.29 1.14 2.18 2.18 0 0 1-.77.77 3.73 3.73 0 0 1-1.1.44 6.16 6.16 0 0 1-1.3.13 6.75 6.75 0 0 1-2.2-.34Zm8.26-8.49a1.32 1.32 0 0 1-1-.35 1.11 1.11 0 0 1-.38-.85 1.08 1.08 0 0 1 .38-.85 1.56 1.56 0 0 1 1.92 0 1.07 1.07 0 0 1 .37.85 1.09 1.09 0 0 1-.37.86 1.36 1.36 0 0 1-.92.34Zm1.14 8.69h-2.32v-7.5h2.32Zm9.3-.86a4.22 4.22 0 0 1-1.21 3.23 4.86 4.86 0 0 1-3.5 1.15 5.51 5.51 0 0 1-2.4-.43v-2a4.59 4.59 0 0 0 2.34.67 2.51 2.51 0 0 0 1.81-.61 2.25 2.25 0 0 0 .65-1.69v-.59a2.59 2.59 0 0 1-2.34 1.26 2.82 2.82 0 0 1-2.28-1 4.1 4.1 0 0 1-.84-2.71 4.51 4.51 0 0 1 .94-3 3.06 3.06 0 0 1 2.47-1.13 2.3 2.3 0 0 1 2 1.06v-.87h2.31Zm-2.28-2.75v-.59a1.78 1.78 0 0 0-.43-1.21 1.33 1.33 0 0 0-1.09-.5 1.42 1.42 0 0 0-1.21.6 2.83 2.83 0 0 0-.44 1.69 2.37 2.37 0 0 0 .42 1.48 1.35 1.35 0 0 0 1.14.55 1.43 1.43 0 0 0 1.16-.55 2.26 2.26 0 0 0 .45-1.47Zm11.41 3.61h-2.3v-4.26q0-1.65-1.2-1.65a1.22 1.22 0 0 0-1 .46 1.81 1.81 0 0 0-.38 1.17v4.28h-2.32V94.73h2.32v4.72a2.63 2.63 0 0 1 2.31-1.3c1.69 0 2.54 1 2.54 3.08Zm6.37-.09a3.44 3.44 0 0 1-1.55.27c-1.63 0-2.44-.85-2.44-2.54V100h-1.22v-1.7h1.22v-1.58l2.3-.66v2.28h1.69V100h-1.69v3q0 1.17.93 1.17a1.59 1.59 0 0 0 .76-.21Z" style="fill:#706d6e"/>
</svg>
