<svg xmlns="http://www.w3.org/2000/svg" width="200" height="128"><defs><style>.cls-1{fill:#006fd4;}.cls-2{fill:#706d6e;}</style></defs><path class="cls-1" d="M78.34,28.85h18V32.4h-18Zm0,5.33h18v3.56h-18Zm0,5.34h18v3.56h-18Zm23.5-17.41A2.71,2.71,0,0,0,99.68,20H74.4c-.89,0-1.4,1.27-1.4,2.16V47.27a1.34,1.34,0,0,0,1.4,1.4H99.81c.89,0,2-.76,2-1.4ZM98.16,45H76.56v-18h21.6Zm21.6,6.1a.82.82,0,0,0-.76-.76H106.29a.82.82,0,0,0-.76.76V63.92a.82.82,0,0,0,.76.76h12.83a.82.82,0,0,0,.76-.76l-.12-12.84ZM118,63.15h-10.8v-9H118Zm-9-5.46h7.24V55.91H109Zm6-16.14s1.27-9.78-7.75-11.69h-2a2.93,2.93,0,0,0-1.66.38v3.94s.39-.38,1.78-.38a5.21,5.21,0,0,1,1.78.13c2.16.76,4.19,2.16,3.81,7.62h-3.81l6.1,7.63,6-7.63Zm7.75,12.58h-1.14V66.71H109v1.14a.82.82,0,0,0,.76.77h12.83a.83.83,0,0,0,.77-.77v-13A.64.64,0,0,0,122.68,54.13Zm3.56,3.43h-1.15V70.14H112.64v1.14a.82.82,0,0,0,.76.77h12.84a.82.82,0,0,0,.76-.77V58.58C127,58.07,126.62,57.56,126.24,57.56Z"/><path class="cls-2" d="M90.6,89.34H89.24l-1.11-3H83.67l-1,3H81.26l4-10.51h1.27Zm-2.87-4-1.65-4.48a3.34,3.34,0,0,1-.16-.7h0a4.22,4.22,0,0,1-.17.7l-1.64,4.48Zm9.49-3.11-4.44,6.13h4.39v1H91V89l4.44-6.1h-4v-1h5.79Zm7.61,7.16h-1.2V88.15h0a2.45,2.45,0,0,1-2.31,1.36c-1.79,0-2.68-1.06-2.68-3.19V81.84H99.8v4.29c0,1.58.61,2.37,1.82,2.37a1.82,1.82,0,0,0,1.45-.65,2.5,2.5,0,0,0,.56-1.69V81.84h1.2Zm6.34-6.29a1.47,1.47,0,0,0-.91-.24,1.51,1.51,0,0,0-1.28.73,3.29,3.29,0,0,0-.52,2v3.83h-1.2v-7.5h1.2v1.54h0a2.61,2.61,0,0,1,.78-1.23,1.77,1.77,0,0,1,1.18-.44,2,2,0,0,1,.72.1Zm7.13,2.84H113a2.8,2.8,0,0,0,.67,1.93,2.3,2.3,0,0,0,1.77.68,3.69,3.69,0,0,0,2.33-.83V88.8a4.41,4.41,0,0,1-2.61.71,3.18,3.18,0,0,1-2.5-1,4.2,4.2,0,0,1-.91-2.87,4.09,4.09,0,0,1,1-2.86,3.19,3.19,0,0,1,2.46-1.1,2.84,2.84,0,0,1,2.28,1,4,4,0,0,1,.8,2.65Zm-1.23-1a2.43,2.43,0,0,0-.5-1.62,1.73,1.73,0,0,0-1.37-.58,1.94,1.94,0,0,0-1.44.61,2.81,2.81,0,0,0-.74,1.59Zm-63.19,21V95.33h3.83a4.76,4.76,0,0,1,2.7.65,2.07,2.07,0,0,1,.94,1.82,2.15,2.15,0,0,1-.57,1.48,3,3,0,0,1-1.47.89v0a2.89,2.89,0,0,1,1.79.83,2.29,2.29,0,0,1,.67,1.67,2.78,2.78,0,0,1-1,2.29,4.29,4.29,0,0,1-2.82.85Zm2.37-8.76v2.49h1a1.7,1.7,0,0,0,1.15-.36,1.19,1.19,0,0,0,.42-1c0-.78-.57-1.16-1.72-1.16Zm0,4.25v2.76h1.28a2,2,0,0,0,1.29-.38,1.26,1.26,0,0,0,.46-1,1.15,1.15,0,0,0-.46-1,2,2,0,0,0-1.27-.36Zm13.26,4.51H67.32v-1.08h0A2.43,2.43,0,0,1,65.06,106a2.35,2.35,0,0,1-1.72-.62,2.19,2.19,0,0,1-.62-1.65q0-2.18,2.58-2.52l2-.27c0-.82-.45-1.23-1.34-1.23a4.54,4.54,0,0,0-2.54.8V98.79a5.19,5.19,0,0,1,1.32-.44,6.85,6.85,0,0,1,1.53-.2q3.19,0,3.2,3.21Zm-2.17-3v-.5l-1.36.17c-.76.1-1.13.44-1.13,1a.86.86,0,0,0,.27.65,1.06,1.06,0,0,0,.75.25,1.38,1.38,0,0,0,1.06-.45A1.64,1.64,0,0,0,67.34,102.79Zm8.54,3a3.44,3.44,0,0,1-1.55.27c-1.63,0-2.44-.85-2.44-2.54V100H70.67v-1.7h1.22V96.72l2.3-.66v2.28h1.69V100H74.19v3q0,1.17.93,1.17a1.59,1.59,0,0,0,.76-.21Zm6.93-.18a4.65,4.65,0,0,1-2.27.45,3.8,3.8,0,0,1-2.79-1,3.56,3.56,0,0,1-1.07-2.7,4,4,0,0,1,1.14-3,4.24,4.24,0,0,1,3.07-1.11,3.88,3.88,0,0,1,1.92.36v2a2.67,2.67,0,0,0-1.62-.54,2.12,2.12,0,0,0-1.58.58,2.16,2.16,0,0,0-.58,1.61,2.14,2.14,0,0,0,.55,1.56,2.07,2.07,0,0,0,1.53.57,3.1,3.1,0,0,0,1.7-.54Zm8.71.27h-2.3v-4.26c0-1.1-.41-1.65-1.21-1.65a1.2,1.2,0,0,0-1,.46,1.75,1.75,0,0,0-.38,1.17v4.28H84.32V94.73h2.32v4.72h0a2.63,2.63,0,0,1,2.3-1.3c1.7,0,2.55,1,2.55,3.08Zm5.72-.4v-2.35a4.37,4.37,0,0,0,1.38.8,4.42,4.42,0,0,0,1.51.27,3.53,3.53,0,0,0,.78-.08,1.75,1.75,0,0,0,.55-.22,1,1,0,0,0,.34-.34.9.9,0,0,0-.07-1,1.75,1.75,0,0,0-.48-.45,4.76,4.76,0,0,0-.72-.39l-.9-.39a4.57,4.57,0,0,1-1.83-1.25,2.72,2.72,0,0,1-.61-1.79,2.83,2.83,0,0,1,.33-1.41,2.79,2.79,0,0,1,.9-1,4.09,4.09,0,0,1,1.31-.56,6.77,6.77,0,0,1,1.58-.18,9,9,0,0,1,1.46.1,5.89,5.89,0,0,1,1.17.3v2.19a3.6,3.6,0,0,0-.58-.32,4.88,4.88,0,0,0-.64-.23,5.42,5.42,0,0,0-.65-.14,4.59,4.59,0,0,0-.62,0,2.85,2.85,0,0,0-.74.08,1.86,1.86,0,0,0-.55.21,1.14,1.14,0,0,0-.35.34.73.73,0,0,0-.13.43.82.82,0,0,0,.14.47,1.52,1.52,0,0,0,.4.4,4.22,4.22,0,0,0,.62.37c.24.12.52.24.83.37a8.5,8.5,0,0,1,1.13.56,3.88,3.88,0,0,1,.86.67,2.64,2.64,0,0,1,.55.85,3.16,3.16,0,0,1,.19,1.12,3,3,0,0,1-.33,1.47,2.82,2.82,0,0,1-.91,1,3.86,3.86,0,0,1-1.33.53,7.48,7.48,0,0,1-1.6.16,9.54,9.54,0,0,1-1.64-.14A5.22,5.22,0,0,1,97.24,105.44Zm15.4-2.69h-4.89c.07,1.09.76,1.63,2,1.63a4,4,0,0,0,2.18-.59v1.67a5.61,5.61,0,0,1-2.7.56,3.5,3.5,0,0,1-3.83-3.81,4,4,0,0,1,1.09-3,3.6,3.6,0,0,1,2.66-1.1,3.28,3.28,0,0,1,2.54,1,3.74,3.74,0,0,1,.9,2.64Zm-2.15-1.42c0-1.08-.43-1.62-1.3-1.62a1.24,1.24,0,0,0-1,.47,2,2,0,0,0-.5,1.15Zm8.42-.9a2,2,0,0,0-1-.23,1.41,1.41,0,0,0-1.18.55,2.44,2.44,0,0,0-.42,1.51v3.58H114v-7.5h2.31v1.39h0a2,2,0,0,1,2-1.52,1.73,1.73,0,0,1,.57.08Zm8.82-2.09-2.79,7.5H122.3l-2.66-7.5h2.48l1.3,4.62a7,7,0,0,1,.26,1.33h0A7.11,7.11,0,0,1,124,103l1.33-4.66Zm2.16-1.19a1.32,1.32,0,0,1-1-.35,1.11,1.11,0,0,1-.38-.85,1.08,1.08,0,0,1,.38-.85,1.56,1.56,0,0,1,1.92,0,1.07,1.07,0,0,1,.37.85,1.09,1.09,0,0,1-.37.86A1.36,1.36,0,0,1,129.89,97.15Zm1.14,8.69h-2.32v-7.5H131Zm7.63-.27a4.61,4.61,0,0,1-2.26.45,3.83,3.83,0,0,1-2.8-1,3.6,3.6,0,0,1-1.07-2.7,4,4,0,0,1,1.15-3,4.2,4.2,0,0,1,3.06-1.11,3.83,3.83,0,0,1,1.92.36v2a2.63,2.63,0,0,0-1.62-.54,2.14,2.14,0,0,0-1.58.58,2.2,2.2,0,0,0-.58,1.61,2.14,2.14,0,0,0,.56,1.56,2,2,0,0,0,1.53.57,3,3,0,0,0,1.69-.54Zm8.26-2.82H142c.08,1.09.77,1.63,2.06,1.63a4,4,0,0,0,2.18-.59v1.67a5.65,5.65,0,0,1-2.71.56,3.49,3.49,0,0,1-3.82-3.81,4,4,0,0,1,1.08-3,3.64,3.64,0,0,1,2.67-1.1,3.29,3.29,0,0,1,2.54,1,3.74,3.74,0,0,1,.9,2.64Zm-2.15-1.42c0-1.08-.44-1.62-1.3-1.62a1.25,1.25,0,0,0-1,.47,2.08,2.08,0,0,0-.49,1.15Z"/></svg>