<svg xmlns="http://www.w3.org/2000/svg" viewBox="0 0 194.23 189.63">
	<defs>
		<style>
			.cls-1{fill:#465154}.cls-2{fill:#949494}.cls-3{fill:#a3a3a3}.cls-5{fill:#9cebff}.cls-6{fill:#50e6ff}
		</style>
	</defs>
	<g id="Layer_2" data-name="Layer 2">
		<g id="Layer_1-2" data-name="Layer 1">
			<path class="cls-1" d="M18.29 149.44h-3.57l-1.76-5H5.25l-1.7 5H0l7.34-19.61H11Zm-6.19-7.64L9.38 134a9.19 9.19 0 0 1-.26-1.23h-.06a8.08 8.08 0 0 1-.27 1.23l-2.69 7.8Z"/>
			<path class="cls-1" d="M31.67 136.77 24.11 147h7.53v2.47h-12v-1.19l7.72-10.34h-7v-2.47h11.31Z"/>
			<path class="cls-1" d="M46.37 149.44H43.2v-2.21h-.05a4.57 4.57 0 0 1-4.29 2.54q-5 0-5-6v-8.37h3.17v8q0 3.77 2.91 3.77a2.94 2.94 0 0 0 2.32-1 4 4 0 0 0 .91-2.72v-8.05h3.17Z"/>
			<path class="cls-1" d="M58.24 138.46a2.63 2.63 0 0 0-1.65-.45 2.83 2.83 0 0 0-2.35 1.27 5.69 5.69 0 0 0-.94 3.46v6.7h-3.18v-14h3.17v2.88h.05a4.88 4.88 0 0 1 1.43-2.3 3.22 3.22 0 0 1 2.15-.83 2.68 2.68 0 0 1 1.31.26Z"/>
			<path class="cls-1" d="M72.29 143.3h-9.54a4 4 0 0 0 1.2 3 4.45 4.45 0 0 0 3.14 1.05A6.92 6.92 0 0 0 71.2 146v2.56a9.41 9.41 0 0 1-5.06 1.2 6.26 6.26 0 0 1-4.85-1.91 7.63 7.63 0 0 1-1.76-5.37 7.46 7.46 0 0 1 1.93-5.33 6.33 6.33 0 0 1 4.81-2.06 5.52 5.52 0 0 1 4.45 1.91 7.66 7.66 0 0 1 1.57 5.13Zm-3.06-2.24a4.09 4.09 0 0 0-.81-2.66 2.7 2.7 0 0 0-2.19-1 3.08 3.08 0 0 0-2.32 1 4.56 4.56 0 0 0-1.17 2.61Z"/>
			<path class="cls-1" d="M98.51 149.44h-3.8l-3.13-5.25a11.07 11.07 0 0 0-.83-1.24 5 5 0 0 0-.82-.84 2.78 2.78 0 0 0-.91-.48 3.77 3.77 0 0 0-1.11-.15h-1.3v8h-3.24v-19.64h6.45a9.34 9.34 0 0 1 2.54.33 5.91 5.91 0 0 1 2 1 4.63 4.63 0 0 1 1.35 1.65 5.22 5.22 0 0 1 .49 2.32 5.68 5.68 0 0 1-.31 1.91 5 5 0 0 1-.87 1.54 5.37 5.37 0 0 1-1.37 1.16 6.81 6.81 0 0 1-1.8.74v.05a5.06 5.06 0 0 1 .93.66q.4.36.75.75a9 9 0 0 1 .7.87q.35.48.77 1.13Zm-11.91-17v6.37h2.71a4 4 0 0 0 1.39-.23 3.18 3.18 0 0 0 1.1-.67 3.05 3.05 0 0 0 .72-1.07 3.66 3.66 0 0 0 .26-1.41 2.8 2.8 0 0 0-.89-2.2 3.72 3.72 0 0 0-2.56-.79Z"/>
			<path class="cls-1" d="M111.79 143.3h-9.54a4 4 0 0 0 1.2 3 4.45 4.45 0 0 0 3.14 1.05 6.92 6.92 0 0 0 4.11-1.35v2.56a9.41 9.41 0 0 1-5.06 1.2 6.26 6.26 0 0 1-4.85-1.91A7.63 7.63 0 0 1 99 142.5a7.46 7.46 0 0 1 1.93-5.33 6.33 6.33 0 0 1 4.81-2.06 5.52 5.52 0 0 1 4.44 1.85 7.66 7.66 0 0 1 1.57 5.13Zm-3.06-2.24a4.09 4.09 0 0 0-.81-2.66 2.7 2.7 0 0 0-2.19-1 3.08 3.08 0 0 0-2.32 1 4.56 4.56 0 0 0-1.17 2.61Z"/>
			<path class="cls-1" d="M114 149v-2.94a6.33 6.33 0 0 0 3.92 1.35q2.87 0 2.87-1.7a1.34 1.34 0 0 0-.25-.81 2.35 2.35 0 0 0-.66-.59 5.25 5.25 0 0 0-1-.46l-1.26-.46a13.36 13.36 0 0 1-1.55-.72 4.66 4.66 0 0 1-1.15-.87 3.26 3.26 0 0 1-.69-1.1 4 4 0 0 1-.23-1.44 3.31 3.31 0 0 1 .48-1.78 4.15 4.15 0 0 1 1.29-1.3 6.16 6.16 0 0 1 1.83-.79 8.39 8.39 0 0 1 2.12-.27 9.64 9.64 0 0 1 3.47.59v2.78a5.85 5.85 0 0 0-3.39-1 4.42 4.42 0 0 0-1.09.12 2.8 2.8 0 0 0-.83.34 1.66 1.66 0 0 0-.53.53 1.25 1.25 0 0 0-.19.68 1.44 1.44 0 0 0 .19.77 1.72 1.72 0 0 0 .57.55 4.86 4.86 0 0 0 .9.44l1.21.43a17.76 17.76 0 0 1 1.62.75 5.49 5.49 0 0 1 1.22.87 3.41 3.41 0 0 1 .78 1.12 3.82 3.82 0 0 1 .27 1.51 3.45 3.45 0 0 1-.49 1.86 4.11 4.11 0 0 1-1.31 1.31 6.15 6.15 0 0 1-1.89.77 9.82 9.82 0 0 1-2.26.25A9.53 9.53 0 0 1 114 149Z"/>
			<path class="cls-1" d="M133 149.77a6.94 6.94 0 0 1-5.17-2 7.09 7.09 0 0 1-1.93-5.2 6.91 6.91 0 0 1 7.45-7.49 6.72 6.72 0 0 1 5.11 1.93 7.45 7.45 0 0 1 1.83 5.35 7.34 7.34 0 0 1-2 5.37 7.1 7.1 0 0 1-5.29 2.04Zm.15-12.13a3.62 3.62 0 0 0-2.94 1.3 5.44 5.44 0 0 0-1.08 3.58 5.12 5.12 0 0 0 1.07 3.48 3.67 3.67 0 0 0 2.93 1.26A3.49 3.49 0 0 0 136 146a5.51 5.51 0 0 0 1-3.54 5.59 5.59 0 0 0-1-3.57 3.47 3.47 0 0 0-2.87-1.25Z"/>
			<path class="cls-1" d="M155.52 149.44h-3.17v-2.21h-.05a4.57 4.57 0 0 1-4.29 2.54q-5 0-5-6v-8.37h3.17v8q0 3.77 2.91 3.77a2.94 2.94 0 0 0 2.32-1 4 4 0 0 0 .91-2.72v-8.05h3.17Z"/>
			<path class="cls-1" d="M167.39 138.46a2.63 2.63 0 0 0-1.65-.45 2.83 2.83 0 0 0-2.35 1.27 5.69 5.69 0 0 0-.94 3.46v6.7h-3.17v-14h3.17v2.88h.05a4.88 4.88 0 0 1 1.43-2.3 3.22 3.22 0 0 1 2.15-.83 2.68 2.68 0 0 1 1.31.26Z"/>
			<path class="cls-1" d="M179.55 148.8a7.82 7.82 0 0 1-4 1 6.74 6.74 0 0 1-5-1.95 6.9 6.9 0 0 1-1.91-5.05 7.6 7.6 0 0 1 2.06-5.56 7.35 7.35 0 0 1 5.5-2.1 8 8 0 0 1 3.38.67v3a5.11 5.11 0 0 0-3.12-1.09 4.33 4.33 0 0 0-3.29 1.36 5 5 0 0 0-1.29 3.56 4.74 4.74 0 0 0 1.21 3.43 4.29 4.29 0 0 0 3.25 1.26 5.07 5.07 0 0 0 3.23-1.22Z"/>
			<path class="cls-1" d="M194.23 143.3h-9.54a4 4 0 0 0 1.2 3 4.45 4.45 0 0 0 3.14 1.05 6.92 6.92 0 0 0 4.12-1.34v2.56a9.41 9.41 0 0 1-5.06 1.2 6.26 6.26 0 0 1-4.85-1.91 7.63 7.63 0 0 1-1.76-5.37 7.46 7.46 0 0 1 1.93-5.33 6.33 6.33 0 0 1 4.81-2.06 5.52 5.52 0 0 1 4.44 1.85 7.66 7.66 0 0 1 1.57 5.13Zm-3.06-2.24a4.09 4.09 0 0 0-.81-2.66 2.7 2.7 0 0 0-2.19-1 3.08 3.08 0 0 0-2.32 1 4.56 4.56 0 0 0-1.17 2.61Z"/>
			<path class="cls-1" d="M64.79 183h-3.23v-12.64q0-1.56.19-3.81h-.05a13.38 13.38 0 0 1-.53 1.85L55.31 183h-2.24l-5.87-14.5a13.63 13.63 0 0 1-.52-2h-.05q.11 1.18.11 3.84V183h-3v-19.56h4.58l5.15 13.06a19.52 19.52 0 0 1 .77 2.24h.07q.51-1.55.82-2.3l5.25-13h4.42Z"/>
			<path class="cls-1" d="M79.71 183h-3.07v-2.19h-.05a4.63 4.63 0 0 1-4.25 2.52 4.48 4.48 0 0 1-3.23-1.12 3.92 3.92 0 0 1-1.17-3q0-4 4.57-4.62l4.16-.59q0-3-2.84-3a6.76 6.76 0 0 0-4.51 1.72V170a9.84 9.84 0 0 1 5.11-1.31q5.3 0 5.3 5.22Zm-3.06-6.88-2.94.41a4.66 4.66 0 0 0-2.06.66 1.94 1.94 0 0 0-.69 1.7 1.86 1.86 0 0 0 .64 1.46 2.46 2.46 0 0 0 1.7.57 3.14 3.14 0 0 0 2.4-1 3.61 3.61 0 0 0 1-2.56Z"/>
			<path class="cls-1" d="M95.79 183h-3.17v-7.89q0-3.92-2.78-3.92a3 3 0 0 0-2.39 1.09 4 4 0 0 0-.94 2.74v8h-3.19V169h3.18v2.32h.05a5 5 0 0 1 4.54-2.65 4.23 4.23 0 0 1 3.49 1.48 6.66 6.66 0 0 1 1.2 4.29Z"/>
			<path class="cls-1" d="M110.24 183h-3.08v-2.19h-.05a4.63 4.63 0 0 1-4.25 2.52 4.48 4.48 0 0 1-3.23-1.12 3.92 3.92 0 0 1-1.17-3q0-4 4.57-4.62l4.16-.59q0-3-2.84-3a6.76 6.76 0 0 0-4.51 1.72V170a9.84 9.84 0 0 1 5.11-1.31q5.3 0 5.3 5.22Zm-3.06-6.88-2.94.41a4.65 4.65 0 0 0-2.06.66 1.94 1.94 0 0 0-.69 1.7 1.86 1.86 0 0 0 .64 1.46 2.46 2.46 0 0 0 1.7.57 3.14 3.14 0 0 0 2.4-1 3.61 3.61 0 0 0 1-2.56Z"/>
			<path class="cls-1" d="M126.7 181.92q0 7.71-7.75 7.71a11.55 11.55 0 0 1-4.77-.92v-2.9a8.83 8.83 0 0 0 4.36 1.31q5 0 5-4.91v-1.53h-.05a5.5 5.5 0 0 1-8.85.81 7.54 7.54 0 0 1-1.57-5 8.84 8.84 0 0 1 1.68-5.67 5.59 5.59 0 0 1 4.62-2.11 4.46 4.46 0 0 1 4.12 2.27h.05V169h3.17Zm-3.14-5.29v-1.82a3.56 3.56 0 0 0-1-2.52 3.2 3.2 0 0 0-2.44-1 3.35 3.35 0 0 0-2.82 1.33 6 6 0 0 0-1 3.73 5.18 5.18 0 0 0 1 3.3 3.14 3.14 0 0 0 2.59 1.24 3.36 3.36 0 0 0 2.67-1.18 4.46 4.46 0 0 0 1-3.08Z"/>
			<path class="cls-1" d="M142.45 176.9h-9.55a4 4 0 0 0 1.2 3 4.45 4.45 0 0 0 3.14 1.05 6.92 6.92 0 0 0 4.12-1.34v2.56a9.4 9.4 0 0 1-5.06 1.2 6.26 6.26 0 0 1-4.85-1.91 7.63 7.63 0 0 1-1.76-5.37 7.46 7.46 0 0 1 1.93-5.33 6.33 6.33 0 0 1 4.81-2.06 5.52 5.52 0 0 1 4.44 1.85 7.66 7.66 0 0 1 1.57 5.13Zm-3.06-2.24a4.09 4.09 0 0 0-.81-2.66 2.69 2.69 0 0 0-2.19-1 3.08 3.08 0 0 0-2.32 1 4.56 4.56 0 0 0-1.17 2.61Z"/>
			<path class="cls-1" d="M153.47 172.06a2.63 2.63 0 0 0-1.65-.45 2.83 2.83 0 0 0-2.35 1.27 5.69 5.69 0 0 0-.94 3.46V183h-3.17v-14h3.17v2.88h.05a4.88 4.88 0 0 1 1.43-2.3 3.22 3.22 0 0 1 2.15-.83 2.68 2.68 0 0 1 1.31.26Z"/>
			<path class="cls-2" d="M39.27 96.57a1.1 1.1 0 0 0 .55 1l7.94 4.43 13.42 7.74a1.16 1.16 0 0 0 1.58-.41l4.52-7.67a1.1 1.1 0 0 0-.41-1.44L51.12 91.3a1.16 1.16 0 0 1-.55-1V19.67a1.1 1.1 0 0 1 .55-1l15.75-8.9a1.1 1.1 0 0 0 .41-1.44L62.76.7a1.16 1.16 0 0 0-1.55-.56L48 7.75l-8.22 4.59a1.1 1.1 0 0 0-.55 1Z"/>
			<path class="cls-3" d="m50.5 19.12.41-.41 15.75-8.9a1 1 0 0 0 .41-1.44L62.55.7a1 1 0 0 0-1.3-.64l-.2.1-13.22 7.59-8.15 4.59a.44.44 0 0 0-.41.41l6.16 3.49Z"/>
			<path class="cls-3" d="m66.66 100.06-15.75-8.9a1.51 1.51 0 0 1-.48-.62l-11.09 6.85h.34l7.88 4.45 13.7 7.6a1 1 0 0 0 1.43-.27l.08-.14 4.52-7.67a1 1 0 0 0-.5-1.26Z"/>
			<path class="cls-2" d="M155.69 96.57a1.1 1.1 0 0 1-.55 1L147.2 102l-13.42 7.74a1.16 1.16 0 0 1-1.58-.41l-4.52-7.67a1.1 1.1 0 0 1 .41-1.44l15.75-8.9a1.16 1.16 0 0 0 .55-1V19.67a1.1 1.1 0 0 0-.55-1l-15.75-8.9a1.1 1.1 0 0 1-.41-1.44L132.2.7a1.16 1.16 0 0 1 1.55-.56L146.9 7.6l8.22 4.59a1.1 1.1 0 0 1 .55 1Z"/>
			<path class="cls-3" d="m144.46 19.12-.41-.41-15.75-8.9a1 1 0 0 1-.41-1.44L132.4.7a1 1 0 0 1 1.3-.64l.2.1 13.22 7.46 8.15 4.59.41.41-6.16 3.49Z"/>
			<path class="cls-3" d="m128.29 100.06 15.71-8.9a1.51 1.51 0 0 0 .48-.62l11.09 6.85-7.88 4.45-13.7 7.6a1 1 0 0 1-1.43-.27l-.08-.14-4.48-7.67a1 1 0 0 1 .29-1.3Z"/>
			<path style="fill:#32bedd" d="M133.84 33.91v42.05L97.41 97.12V55l36.43-21.09z"/>
			<path class="cls-5" d="M133.84 33.91 97.48 55.07 61.05 33.91l36.43-21.16 36.36 21.16z"/>
			<path class="cls-6" d="M97.41 55.07v42.05L61.05 75.96V33.91l36.36 21.16z"/>
			<path class="cls-5" d="M61.05 75.96 97.41 55v42.12L61.05 75.96z"/>
			<path class="cls-6" d="M133.84 75.96 97.41 55v42.12l36.43-21.16z"/>
		</g>
	</g>
</svg>
