<svg xmlns="http://www.w3.org/2000/svg" width="200" height="128"><defs><style>.cls-1{fill:#59b4d9;}.cls-2{fill:#68217a;}.cls-3{fill:#706d6e;}</style></defs><path class="cls-1" d="M95.05,54.23H85.48a8.66,8.66,0,0,1-8.61-8.71,8.53,8.53,0,0,1,8.61-8.72c.86,0,1.83.22,2.9.33l1.83.53.54-1.83c1.72-5.59,7.1-9,13.23-9A12.9,12.9,0,0,1,117.1,39.92a13.56,13.56,0,0,1-.53,3.55l-.76,2.69,2.91-.32h.53a3.89,3.89,0,0,1,.54,7.74h-9.57a11.83,11.83,0,0,0-3.55-6.88,12.71,12.71,0,0,0-8.93-3.77,12.3,12.3,0,0,0-6.56,1.83l2,3.23A9.15,9.15,0,0,1,98,46.81a8,8,0,0,1,6.24,2.69,8.71,8.71,0,0,1,2.68,6.24A8,8,0,0,1,104.2,62a8.44,8.44,0,0,1-11,1.19l-2,3.22a13.68,13.68,0,0,0,6.56,2.05,12.16,12.16,0,0,0,8.93-3.66,12.64,12.64,0,0,0,3.55-7.53h10A7.55,7.55,0,0,0,127,49.5c0-3.23-3-6.24-6.56-6.89a5.47,5.47,0,0,0,.21-2c0-9.47-6.67-17-17.32-17h0A16.18,16.18,0,0,0,88.06,33.68c-.86,0-1.51-.32-2.47-.32a12.16,12.16,0,1,0-.33,24.31H95.8Z"/><circle class="cls-2" cx="97.53" cy="55.63" r="6.02"/><path class="cls-3" d="M90.6,89.34H89.24l-1.11-3H83.67l-1,3H81.26l4-10.51h1.27Zm-2.87-4-1.65-4.48a3.34,3.34,0,0,1-.16-.7h0a4.22,4.22,0,0,1-.17.7l-1.64,4.48Zm9.49-3.11-4.44,6.13h4.39v1H91V89l4.44-6.1h-4v-1h5.79Zm7.61,7.16h-1.2V88.15h0a2.45,2.45,0,0,1-2.31,1.36c-1.79,0-2.68-1.06-2.68-3.19V81.84H99.8v4.29c0,1.58.61,2.37,1.82,2.37a1.82,1.82,0,0,0,1.45-.65,2.5,2.5,0,0,0,.56-1.69V81.84h1.2Zm6.34-6.29a1.47,1.47,0,0,0-.91-.24,1.51,1.51,0,0,0-1.28.73,3.29,3.29,0,0,0-.52,2v3.83h-1.2v-7.5h1.2v1.54h0a2.61,2.61,0,0,1,.78-1.23,1.77,1.77,0,0,1,1.18-.44,2,2,0,0,1,.72.1Zm7.13,2.84H113a2.8,2.8,0,0,0,.67,1.93,2.3,2.3,0,0,0,1.77.68,3.69,3.69,0,0,0,2.33-.83V88.8a4.41,4.41,0,0,1-2.61.71,3.18,3.18,0,0,1-2.5-1,4.2,4.2,0,0,1-.91-2.87,4.09,4.09,0,0,1,1-2.86,3.19,3.19,0,0,1,2.46-1.1,2.84,2.84,0,0,1,2.28,1,4,4,0,0,1,.8,2.65Zm-1.23-1a2.43,2.43,0,0,0-.5-1.62,1.73,1.73,0,0,0-1.37-.58,1.94,1.94,0,0,0-1.44.61,2.81,2.81,0,0,0-.74,1.59ZM49.24,105.62H46.66l-.75-2.34H42.18l-.74,2.34H38.88L42.7,95.11h2.8Zm-3.87-4.16-1.13-3.53a4.53,4.53,0,0,1-.17-.94H44a4.08,4.08,0,0,1-.18.91l-1.15,3.56Zm7.55.54v3.62H50.55V95.11h3.71c2.64,0,4,1.12,4,3.35A3.21,3.21,0,0,1,57.09,101,4.54,4.54,0,0,1,54,102Zm0-5.07v3.27h.93q1.89,0,1.89-1.65t-1.89-1.62ZM63,95.11v1.83h-.88v6.85H63v1.83H58.89v-1.83h.87V96.94h-.87V95.11Zm17.61,10.51H78.29V99.33q0-1,.09-2.25h-.06c-.13.65-.24,1.11-.33,1.4l-2.46,7.14H73.59l-2.5-7.07a12.91,12.91,0,0,1-.33-1.47h-.07c.07,1,.1,2,.1,2.73v5.81H68.66V95.11h3.46l2.15,6.23a9.12,9.12,0,0,1,.37,1.5h0c.14-.58.28-1.09.42-1.52l2.15-6.21h3.37Zm8.4,0H86.83v-1.08h0a2.46,2.46,0,0,1-2.24,1.26,2.35,2.35,0,0,1-1.72-.62,2.23,2.23,0,0,1-.62-1.65q0-2.19,2.58-2.52l2-.27c0-.82-.44-1.23-1.33-1.23a4.47,4.47,0,0,0-2.55.8V98.56a6.12,6.12,0,0,1,1.32-.44,7.42,7.42,0,0,1,1.53-.19c2.14,0,3.2,1.07,3.2,3.2Zm-2.17-3.05v-.51l-1.36.18c-.75.1-1.13.44-1.13,1a.86.86,0,0,0,.27.65,1.11,1.11,0,0,0,.75.25,1.37,1.37,0,0,0,1.06-.45A1.64,1.64,0,0,0,86.85,102.57Zm11.25,3.05H95.79v-4.17c0-1.16-.41-1.74-1.24-1.74a1.23,1.23,0,0,0-1,.46,1.74,1.74,0,0,0-.39,1.17v4.28H90.86v-7.5h2.31V99.3h0a2.65,2.65,0,0,1,2.41-1.37q2.49,0,2.49,3.09Zm8.07,0H104v-1.08h0a2.44,2.44,0,0,1-2.23,1.26,2.35,2.35,0,0,1-1.72-.62,2.2,2.2,0,0,1-.63-1.65c0-1.46.87-2.3,2.59-2.52l2-.27c0-.82-.45-1.23-1.34-1.23a4.51,4.51,0,0,0-2.55.8V98.56a6.43,6.43,0,0,1,1.33-.44,7.25,7.25,0,0,1,1.52-.19q3.21,0,3.21,3.2ZM104,102.57v-.51l-1.37.18c-.75.1-1.12.44-1.12,1a.86.86,0,0,0,.27.65,1.08,1.08,0,0,0,.74.25,1.39,1.39,0,0,0,1.07-.45A1.64,1.64,0,0,0,104,102.57Zm11.36,2.19a4.25,4.25,0,0,1-1.21,3.23,4.89,4.89,0,0,1-3.5,1.15,5.56,5.56,0,0,1-2.41-.43v-1.95a4.61,4.61,0,0,0,2.34.67,2.5,2.5,0,0,0,1.82-.62,2.21,2.21,0,0,0,.64-1.68v-.59h0a2.58,2.58,0,0,1-2.33,1.26,2.82,2.82,0,0,1-2.28-1,4.12,4.12,0,0,1-.84-2.71,4.61,4.61,0,0,1,.93-3A3.09,3.09,0,0,1,111,97.93,2.27,2.27,0,0,1,113,99h0v-.87h2.32ZM113.07,102v-.59a1.82,1.82,0,0,0-.42-1.21,1.35,1.35,0,0,0-1.1-.5,1.4,1.4,0,0,0-1.2.6,2.76,2.76,0,0,0-.44,1.69,2.43,2.43,0,0,0,.41,1.48,1.38,1.38,0,0,0,1.15.55,1.43,1.43,0,0,0,1.16-.56A2.27,2.27,0,0,0,113.07,102Zm11,.52h-4.9c.08,1.08.77,1.63,2.06,1.63a4,4,0,0,0,2.18-.59v1.67a5.76,5.76,0,0,1-2.7.56,3.5,3.5,0,0,1-3.83-3.82,4,4,0,0,1,1.09-3,3.63,3.63,0,0,1,2.66-1.09,3.28,3.28,0,0,1,2.54,1,3.74,3.74,0,0,1,.9,2.64Zm-2.15-1.43c0-1.07-.43-1.61-1.3-1.61a1.3,1.3,0,0,0-1,.46,2.14,2.14,0,0,0-.49,1.15Zm15.43,4.52H135v-4.28c0-1.09-.4-1.63-1.2-1.63a1.07,1.07,0,0,0-.93.49,2,2,0,0,0-.36,1.22v4.2H130.2v-4.33c0-1.05-.39-1.58-1.18-1.58a1.14,1.14,0,0,0-1,.46,2.14,2.14,0,0,0-.35,1.28v4.17H125.4v-7.5h2.32v1.17h0a2.72,2.72,0,0,1,1-1,2.76,2.76,0,0,1,1.41-.38,2.17,2.17,0,0,1,2.18,1.4,2.78,2.78,0,0,1,2.52-1.4c1.63,0,2.44,1,2.44,3Zm8.57-3.09H141c.08,1.08.76,1.63,2.06,1.63a4,4,0,0,0,2.17-.59v1.67a5.7,5.7,0,0,1-2.7.56A3.49,3.49,0,0,1,138.7,102a4,4,0,0,1,1.08-3,3.64,3.64,0,0,1,2.67-1.09,3.29,3.29,0,0,1,2.54,1,3.78,3.78,0,0,1,.89,2.64Zm-2.14-1.43c0-1.07-.44-1.61-1.31-1.61a1.26,1.26,0,0,0-1,.46,2.07,2.07,0,0,0-.49,1.15Zm10.76,4.52h-2.3v-4.17c0-1.16-.42-1.74-1.25-1.74a1.23,1.23,0,0,0-1,.46,1.74,1.74,0,0,0-.39,1.17v4.28h-2.31v-7.5h2.31V99.3h0A2.67,2.67,0,0,1,152,97.93q2.49,0,2.49,3.09Zm6.37-.09a3.44,3.44,0,0,1-1.55.27c-1.63,0-2.44-.85-2.44-2.54V99.82h-1.22v-1.7h1.22V96.5l2.3-.66v2.28h1.69v1.7h-1.69v3c0,.79.31,1.18.93,1.18a1.5,1.5,0,0,0,.76-.22Z"/></svg>