<svg height="210mm" viewBox="0 0 1052.362 744.094" width="297mm" xmlns="http://www.w3.org/2000/svg">
	<g transform="translate(0 -308.268)">
		<ellipse cx="163.174" cy="714.162" fill="none" rx="31.324" ry="20.164"/>
		<g fill="#666">
			<path d="M586.459 657.09a76.723 74.15 0 0 0-76.725 74.15 76.723 74.15 0 0 0 76.725 74.15 76.723 74.15 0 0 0 76.723-74.15 76.723 74.15 0 0 0-76.723-74.15zm-.254 42.998a34.51 31.254 0 0 1 34.51 31.254 34.51 31.254 0 0 1-34.51 31.256 34.51 31.254 0 0 1-34.51-31.256 34.51 31.254 0 0 1 34.51-31.254z" fill-rule="evenodd"/>
			<path d="M413.236 656.483a76.452 76.306 0 0 0-76.45 76.306 76.452 76.306 0 0 0 .15 2.918v69.102h38.943v-.1h.223v-41.863h.021a36.193 62.005 0 0 1-.05-2.178 36.193 62.005 0 0 1 36.193-62.004 36.193 62.005 0 0 1 36.191 62.004 36.193 62.005 0 0 1-.064 2.178h.064v37.46a76.452 76.306 0 0 0 .03-.013v4.826h40.906v-66.664a76.452 76.306 0 0 0 .296-5.666 76.452 76.306 0 0 0-76.453-76.306z"/>
			<ellipse cx="735.297" cy="-257.162" rx="23.692" ry="54.941" transform="matrix(.00362 1 -.9999 .01394 0 0)"/>
			<path d="M929.217 657.09a76.723 74.15 0 0 0-76.725 74.15 76.723 74.15 0 0 0 76.725 74.15 76.723 74.15 0 0 0 48.892-17.044 16.644 56.001 0 0 0 11.813 16.586 16.644 56.001 0 0 0 16.644-56 16.644 56.001 0 0 0-.695-15.864 76.723 74.15 0 0 0 .068-1.828 76.723 74.15 0 0 0-76.722-74.15zm-.254 42.998a34.51 31.254 0 0 1 34.51 31.254 34.51 31.254 0 0 1-34.51 31.256 34.51 31.254 0 0 1-34.51-31.256 34.51 31.254 0 0 1 34.51-31.254z" fill-rule="evenodd"/>
		</g>
		<path d="M105.353 657.09a76.723 74.15 0 0 0-76.725 74.15 76.723 74.15 0 0 0 76.725 74.15 76.723 74.15 0 0 0 76.722-74.15 76.723 74.15 0 0 0-76.722-74.15zm-.254 42.998a34.51 31.254 0 0 1 34.51 31.254 34.51 31.254 0 0 1-34.51 31.256 34.51 31.254 0 0 1-34.51-31.256 34.51 31.254 0 0 1 34.51-31.254z" fill="#5783ad" fill-rule="evenodd"/>
		<ellipse cx="74.669" cy="665.421" fill="#5783ad" rx="20.565" ry="99.534" transform="rotate(2.427)"/>
		<g fill="#666">
			<path d="M678.12 657.086a81.639 152.469 0 0 0 81.554 148.063 81.639 152.469 0 0 0 81.521-148.063h-44.343a41.754 173.694 0 0 1-38.424 105.76 41.754 173.694 0 0 1-38.38-105.76z"/>
			<path d="M336.918 730.976h43.492v74.173h-43.492z"/>
			<path d="M444.077 731.35h33.615v73.927h-33.615z"/>
		</g>
		<ellipse cx="440.996" cy="737.948" fill="none" rx="15.974" ry="16.084"/>
	</g>
</svg>
