<svg xmlns="http://www.w3.org/2000/svg" xml:space="preserve" width="1514.947" height="350.035">
	<defs>
		<clipPath clipPathUnits="userSpaceOnUse" id="a">
			<path d="M0 262.526h1136.215V0H0Z"/>
		</clipPath>
	</defs>
	<g clip-path="url(#a)" transform="matrix(1.33333 0 0 -1.33333 0 350.035)">
		<path d="M0 0c.726-2.795 3.559-4.238 6.435-3.291C30.022 3.907 53.667 8.833 78.064 12.416c2.796.371 4.327 3.237 3.298 6.113a1501.9 1501.9 0 0 1-5.475 15.108c-.94 2.557-3.482 4.235-6.084 3.955C45.96 34.678 22.925 30.373-.16 23.741c-3.007-.936-4.852-4.274-4.095-7.235C-2.568 9.914-1.717 6.613 0 0" style="fill:#2c2a29;fill-opacity:1;fill-rule:nonzero;stroke:none" transform="translate(89.794 152.009)"/>
		<path d="M0 0c-.916 2.708-3.4 4.519-5.857 4.2C-43.184-.519-79.53-9.668-113.996-24.791c-2.514-1.178-4.022-4.314-3.494-7.078 1.35-7.067 2.032-10.605 3.411-17.686.59-3.028 3.442-4.422 6.254-3.061C-72.816-36.717-35.819-26.595 2.133-20.559c2.413.392 3.643 3.134 2.72 5.958A1273.366 1273.366 0 0 1 0 0" style="fill:#2c2a29;fill-opacity:1;fill-rule:nonzero;stroke:none" transform="translate(185.39 148.696)"/>
		<path d="M0 0c-.925 2.891-3.629 4.777-6.199 4.252C-29.504-.761-52.286-6.804-74.853-14.494c-2.862-1.041-4.474-4.035-3.721-6.79a5822.63 5822.63 0 0 1 4.512-16.429c.854-3.092 4.354-4.674 7.577-3.456 22.56 8.01 45.345 15.005 68.629 20.614 2.234.538 3.333 3.135 2.502 5.814A1410.423 1410.423 0 0 1 0 0" style="fill:#2c2a29;fill-opacity:1;fill-rule:nonzero;stroke:none" transform="translate(185.285 109.228)"/>
		<path d="M0 0c0 7.95-5.1 11.25-15.149 11.25h-12v-22.5H-15.3C-5.55-11.25 0-7.35 0 0m-17.55 50.698c-3.149 0-6.449-.3-9.599-.75V29.999h10.2c8.999 0 13.199 3.75 13.199 10.199 0 6.15-4.35 10.5-13.8 10.5M24.599-1.05c0-17.549-17.7-29.249-37.799-29.249h-36.899v96.896c12.3 1.8 21.6 3 32.549 3 20.249 0 36.449-9.45 36.449-25.949 0-9.449-4.95-15.749-13.799-19.199 13.649-3.9 19.499-12.15 19.499-25.499" style="fill:#2c2a29;fill-opacity:1;fill-rule:nonzero;stroke:none" transform="translate(274.267 115.7)"/>
		<path d="M0 0v12.899h-4.351c-10.199 0-19.499-2.25-19.499-9.299 0-5.4 3.601-7.35 10.951-7.35C-7.05-3.75-2.25-1.95 0 0m22.049 28.049v-39.448c-8.1-6.15-21.15-9.45-38.849-9.45-15.749 0-28.799 6.45-28.799 20.699 0 21.449 20.85 26.699 45.599 27.449-.45 9.3-4.2 11.7-12.45 11.7-4.35 0-15.9-1.951-17.399-1.951-3.6 0-6.45 2.25-8.849 8.85l-1.801 5.4c9.3 3.45 18.449 5.849 28.35 5.849 21.598 0 34.198-8.099 34.198-29.098" style="fill:#2c2a29;fill-opacity:1;fill-rule:nonzero;stroke:none" transform="translate(351.718 104.601)"/>
		<path d="M0 0v-53.398h-22.499V-7.95c0 7.95-5.249 12-14.399 12-3.45 0-6.749-.45-9.6-1.2v-56.248h-22.648l.149 66.747c9.45 6.3 24.749 9.75 37.198 9.75C-14.549 23.099 0 14.549 0 0" style="fill:#2c2a29;fill-opacity:1;fill-rule:nonzero;stroke:none" transform="translate(456.364 138.8)"/>
		<path d="M0 0c0 26.249 18.299 40.048 41.998 40.048 6.6 0 12.6-.9 19.799-2.549-.9-7.5-4.05-14.1-7.499-17.85-2.55.75-6.75 1.35-9.15 1.35-15.149 0-21.299-7.8-21.299-19.649 0-12 5.7-19.35 19.949-19.35 3.9 0 8.399.75 13.949 2.701l4.05-18c-8.249-3.3-16.799-4.8-23.549-4.8C15.149-38.099 0-24.299 0 0" style="fill:#2c2a29;fill-opacity:1;fill-rule:nonzero;stroke:none" transform="translate(466.12 122)"/>
		<path d="M0 0c0 12.299-6 19.499-16.499 19.499-10.2 0-16.499-7.2-16.499-19.499 0-12.899 6.149-19.649 16.499-19.649C-6-19.649 0-12.899 0 0m-55.647 0c0 23.999 16.199 38.999 39.148 38.999 23.849 0 39.148-15.6 39.148-38.999 0-24.149-15.449-39.148-39.148-39.148-23.85 0-39.148 15.449-39.148 39.148" style="fill:#2c2a29;fill-opacity:1;fill-rule:nonzero;stroke:none" transform="translate(587.915 123.05)"/>
		<path d="M0 0c5.249 3.9 16.649 7.2 22.648 7.2V-96.296H0z" style="fill:#2c2a29;fill-opacity:1;fill-rule:nonzero;stroke:none" transform="translate(623.316 181.698)"/>
		<path d="M0 0c0 12.299-6 19.499-16.499 19.499-10.2 0-16.5-7.2-16.5-19.499 0-12.899 6.15-19.649 16.5-19.649C-6-19.649 0-12.899 0 0m-55.647 0c0 23.999 16.199 38.999 39.148 38.999 23.849 0 39.148-15.6 39.148-38.999 0-24.149-15.449-39.148-39.148-39.148-23.85 0-39.148 15.449-39.148 39.148" style="fill:#2c2a29;fill-opacity:1;fill-rule:nonzero;stroke:none" transform="translate(714.363 123.05)"/>
		<path d="M0 0v-53.398h-22.349V-7.95c0 7.95-5.099 12-14.099 12-4.199 0-8.25-.9-11.55-2.25 1.2-3.3 1.801-6.9 1.801-10.8v-44.398h-22.35V-7.95c0 7.95-5.099 12-14.099 12-3.45 0-6.75-.45-9.6-1.2v-56.248h-22.649l.15 66.747c9 6.3 23.099 9.75 34.949 9.75 9.449 0 17.549-3.15 23.399-8.25 7.649 4.95 18.299 8.25 27.298 8.25C-12.749 23.099 0 14.399 0 0" style="fill:#2c2a29;fill-opacity:1;fill-rule:nonzero;stroke:none" transform="translate(863.16 138.8)"/>
		<path d="M0 0c0 13.8-7.2 18.75-18.75 18.75-4.649 0-8.399-.9-11.699-2.4v-37.649c4.05-.6 7.95-.9 11.55-.9C-5.7-22.199 0-12 0 0m22.349 2.85c0-27.299-16.2-43.048-42.599-43.048-12.899 0-25.349 2.4-32.849 5.849v91.947c5.25 3.9 16.8 7.199 22.65 7.199V29.249c6.45 5.55 14.25 8.55 21.299 8.55 22.349 0 31.499-15.45 31.499-34.949" style="fill:#2c2a29;fill-opacity:1;fill-rule:nonzero;stroke:none" transform="translate(931.712 124.1)"/>
		<path d="M0 0c3.149 1.35 7.05 2.1 11.399 2.1 4.35 0 8.1-.75 11.249-2.1v-74.397H0Zm-.301 23.699c0 6.3 5.25 11.55 11.55 11.55 6.45 0 11.699-5.1 11.699-11.55 0-6.15-5.249-11.55-11.699-11.55-6.3 0-11.55 5.101-11.55 11.55" style="fill:#2c2a29;fill-opacity:1;fill-rule:nonzero;stroke:none" transform="translate(966.813 159.799)"/>
		<path d="M0 0v12.899h-4.351c-10.199 0-19.499-2.25-19.499-9.299 0-5.4 3.601-7.35 10.951-7.35C-7.05-3.75-2.25-1.95 0 0m22.049 28.049v-39.448c-8.1-6.15-21.15-9.45-38.849-9.45-15.749 0-28.799 6.45-28.799 20.699 0 21.449 20.85 26.699 45.599 27.449-.45 9.3-4.2 11.7-12.45 11.7-4.35 0-15.9-1.951-17.399-1.951-3.6 0-6.45 2.25-8.85 8.85l-1.8 5.4c9.3 3.45 18.449 5.849 28.35 5.849 21.598 0 34.198-8.099 34.198-29.098" style="fill:#2c2a29;fill-opacity:1;fill-rule:nonzero;stroke:none" transform="translate(1046.312 104.601)"/>
	</g>
</svg>
