<svg xmlns="http://www.w3.org/2000/svg" style="enable-background:new 0 0 1400 980" width="1013.103" height="499.195">
	<path style="fill:#fff;fill-opacity:0;pointer-events:none" fill="none" d="M0 0h1013.103v499.195H0z"/>
	<switch transform="matrix(1.45833 0 0 1.45833 -192.797 -160.632)">
		<g>
			<g fill="#212121">
				<path d="M155.003 404.603c8.516 0 13.646 3.938 13.646 10.579 0 4.952-2.843 8.505-7.794 9.54 6.103.908 9.666 4.894 9.666 10.695 0 7.185-5.678 11.467-15.223 11.467h-18.121v-42.281h17.826zm-12.992 18.245h12.752c5.67 0 8.99-2.481 8.99-6.89 0-4.281-3.32-6.694-8.99-6.694h-12.752v13.584zm0 19.448h12.752c6.879 0 10.867-2.714 10.867-7.544 0-4.593-3.988-7.312-10.867-7.312h-12.752v14.856z"/>
				<path d="m208.278 436.198-4.712 10.686h-5.137l18.968-42.281h5.01l18.908 42.281h-5.256l-4.712-10.686h-23.069zm11.477-26.094-9.426 21.438h18.968l-9.542-21.438z"/>
				<path d="m302.316 446.884-25.361-33.93v33.93h-4.831v-42.281h5.01l25.372 34.019v-34.019h4.765v42.281h-4.955z"/>
				<path d="M346.843 442.296h28.327l-.063 4.588h-34.601v-3.864l28.013-33.756H341.29v-4.661h33.574v3.875l-28.021 33.818z"/>
				<path d="m412.023 436.198-4.725 10.686h-5.121l18.953-42.281h5.021l18.904 42.281h-5.247l-4.726-10.686h-23.059zm11.467-26.094-9.424 21.438h18.974l-9.55-21.438z"/>
				<path d="M475.865 446.884v-42.281h4.83v42.281h-4.83z"/>
				<path d="m552.328 411.381-6.225 7.359c-2.775-3.373-6.867-5.49-10.621-5.49-6.705 0-11.777 5.316-11.777 12.258 0 7.063 5.072 12.443 11.777 12.443 3.559 0 7.666-1.933 10.621-4.963l6.283 6.657c-4.525 4.641-11.229 7.729-17.453 7.729-12.734 0-22.225-9.365-22.225-21.744 0-12.206 9.723-21.387 22.588-21.387 6.284 0 12.813 2.782 17.032 7.138z"/>
				<path d="M610.141 437.888v8.996h-28.697v-42.281h10.758v33.285h17.939z"/>
				<path d="M682.387 425.683c0 12.326-9.783 21.691-22.902 21.691-13.045 0-22.816-9.302-22.816-21.691 0-12.316 9.771-21.439 22.816-21.439 13.119-.001 22.902 9.18 22.902 21.439zm-34.739.068c0 7.116 5.508 12.628 11.957 12.628 6.525 0 11.721-5.512 11.721-12.628 0-7.132-5.195-12.501-11.721-12.501-6.519 0-11.957 5.369-11.957 12.501z"/>
				<path d="M750.275 429.124c0 11.177-7.432 18.25-19.273 18.25-11.889 0-19.496-7.073-19.496-18.25v-24.521h10.738v24.521c0 5.744 3.689 9.255 8.832 9.255 5.068 0 8.504-3.511 8.504-9.255v-24.521h10.695v24.521z"/>
				<path d="M800.355 404.603c13.287 0 22.467 8.579 22.467 21.148 0 12.507-9.301 21.133-22.895 21.133h-17.76v-42.281h18.188zm-7.433 33.702h7.676c6.578 0 11.291-5.068 11.291-12.501 0-7.48-4.951-12.622-11.781-12.622h-7.186v25.123z"/>
			</g>
			<linearGradient id="a" gradientUnits="userSpaceOnUse" x1="-591.036" y1="423.513" x2="-416.31" y2="120.879" gradientTransform="translate(989.727)">
				<stop offset=".403" style="stop-color:#3c8ecd"/>
				<stop offset=".994" style="stop-color:#82cef2"/>
			</linearGradient>
			<path fill="url(#a)" d="M585.353 145.596c133.935 0 130.577 192.803 0 192.803H251.27c193.113-.001 199.084-192.803 334.083-192.803z"/>
			<linearGradient id="b" gradientUnits="userSpaceOnUse" x1="-7497.907" y1="410.92" x2="-7349.031" y2="153.06" gradientTransform="matrix(-1 0 0 1 -7088.632 0)">
				<stop offset=".403" style="stop-color:#c18dbe"/>
				<stop offset="1" style="stop-color:#9db4dd"/>
			</linearGradient>
			<path fill="url(#b)" d="M250.232 174.119c-114.124 0-111.261 164.279 0 164.279h284.652c-164.543 0-169.628-164.279-284.652-164.279z"/>
			<linearGradient id="c" gradientUnits="userSpaceOnUse" x1="-8246.088" y1="438.292" x2="-8041.023" y2="83.108" gradientTransform="matrix(-1 0 0 1 -7697.894 0)">
				<stop offset=".403" style="stop-color:#454494"/>
				<stop offset="1" style="stop-color:#76a1d6"/>
			</linearGradient>
			<path fill="url(#c)" d="M329.122 112.116c-157.196 0-153.252 226.282 0 226.282h392.092c-226.649 0-233.655-226.282-392.092-226.282z"/>
			<linearGradient id="d" gradientUnits="userSpaceOnUse" x1="-403.157" y1="400.19" x2="-276.31" y2="180.484" gradientTransform="translate(989.727)">
				<stop offset=".403" style="stop-color:#56bdc1"/>
				<stop offset=".994" style="stop-color:#82cef2"/>
			</linearGradient>
			<path fill="url(#d)" d="M722.076 198.426c97.242 0 94.809 139.973 0 139.973h-242.53c140.2-.001 144.527-139.973 242.53-139.973z"/>
			<linearGradient id="e" gradientUnits="userSpaceOnUse" x1="544.985" y1="440.146" x2="424.082" y2="230.735">
				<stop offset=".006" style="stop-color:#13287a"/>
				<stop offset="1" style="stop-color:#1a3d8e"/>
			</linearGradient>
			<path fill="url(#e)" d="M636.796 325.97c-19.643-6.314-37.102-14.745-52.933-24.621-44.091-27.511-75.553-66.205-106.381-101.445-24.808 26.09-47.991 57.293-77.863 83.474-26.975 23.64-59.411 43.179-103.419 51.152-13.78 2.498-28.691 3.868-44.929 3.868h469.944c-32.229 0-60.01-4.578-84.419-12.428z"/>
			<linearGradient id="f" gradientUnits="userSpaceOnUse" x1="284.028" y1="142.105" x2="431.74" y2="397.949">
				<stop offset="0" style="stop-color:#466bb3"/>
				<stop offset=".727" style="stop-color:#3c3079"/>
			</linearGradient>
			<path fill="url(#f)" d="M506.047 336.577c-47.54-6.229-79.905-27.761-106.428-53.199-49.78-47.748-79.001-109.259-149.387-109.259-10.431 0-19.883 1.379-28.365 3.875-24.723 58.757.769 138.239 74.333 156.537 10.077 2.508 21.048 3.868 32.922 3.868h205.762c-10.206-.001-19.793-.633-28.837-1.822z"/>
			<linearGradient id="g" gradientUnits="userSpaceOnUse" x1="541.362" y1="374.088" x2="647.376" y2="190.467">
				<stop offset=".192" style="stop-color:#1972a0"/>
				<stop offset="1" style="stop-color:#3b9fd9"/>
			</linearGradient>
			<path fill="url(#g)" d="M679.458 208.99c-36.069 19.373-58.695 61.423-95.595 92.359-25.184 21.116-57.018 37.05-104.317 37.05h105.806c20.207 0 37.366-4.622 51.443-12.429 41.974-23.278 56.525-74.896 42.663-116.98z"/>
			<path fill="#0D185C" d="M399.619 283.378c-26.975 23.64-59.411 43.179-103.419 51.152 10.077 2.508 21.048 3.868 32.922 3.868h150.425c9.42 0 18.218-.639 26.482-1.821-47.53-6.232-79.887-27.764-106.41-53.199z"/>
			<path fill="#061E5C" d="M583.863 301.349c-20.165 16.911-44.606 30.489-77.835 35.229h.019c9.044 1.188 18.631 1.821 28.837 1.821h50.469c20.207 0 37.366-4.622 51.443-12.429-19.643-6.315-37.102-14.745-52.933-24.621z"/>
			<path fill="#040F42" d="M506.028 336.577c-8.264 1.183-17.062 1.821-26.482 1.821h55.337c-10.206 0-19.793-.633-28.837-1.821h-.018z"/>
		</g>
	</switch>
</svg>
