<svg version="1.1" id="Layer_1" xmlns="http://www.w3.org/2000/svg" x="0" y="0" viewBox="0 0 500 210.6" style="enable-background:new 0 0 500 210.6" xml:space="preserve">
	<style>
		.st0{fill:#fff}.st1{fill:#2a3238}
	</style>
	<switch>
		<g>
			<path class="st0" d="M171.3 43 104.9 3.6C97-1 87.2-1 79.2 3.6L12.8 43C4.9 47.7 0 56.4 0 65.9v78.9c0 9.5 4.8 18 12.9 22.8l66.4 39.5c3.9 2.3 8.4 3.6 12.9 3.6s8.9-1.2 12.9-3.6l66.4-39.5c7.9-4.6 12.9-13.4 12.9-22.8V65.7c-.2-9.3-5-18-13.1-22.7z"/>
			<path class="st1" d="M171.3 43 104.9 3.6C101 1.2 96.5 0 92.1 0s-8.9 1.2-12.9 3.6L12.8 43C4.9 47.7 0 56.4 0 65.9v78.9c0 9.5 4.8 18 12.9 22.8l66.4 39.5c3.9 2.3 8.4 3.6 12.9 3.6s8.9-1.2 12.9-3.6l66.4-39.5c7.9-4.6 12.9-13.4 12.9-22.8V65.7c-.2-9.3-5-18-13.1-22.7zM81.5 202.8l-66.4-39.5c-6.4-3.9-10.5-11.1-10.5-18.7V65.7c0-7.7 4.1-15 10.5-18.7L81.5 7.5c3.2-2 6.8-2.9 10.5-2.9s7.3 1.1 10.5 2.9L169 46.9c5.5 3.2 9.1 8.9 10.2 15.2-2.1-4.6-7.1-6.1-13-2.7l-62.7 38.9c-7.9 4.6-13.6 9.6-13.6 19.1v77.5c0 5.7 2.3 9.3 5.7 10.4-1.1.2-2.3.4-3.6.4-3.5.1-7.3-1-10.5-2.9z"/>
			<path d="m154 152.3-16.6 9.8c-.4.2-.7.5-.7 1.1v4.3c0 .5.4.7.7.5l16.8-10.2c.4-.2.5-.7.5-1.2v-3.7c0-.6-.3-.8-.7-.6z" style="fill:#4da925"/>
			<path class="st0" d="M118.7 115.9c.5-.4.9 0 1.1.7v5.7c2.3-.9 4.5-1.2 6.4-.7.4.2.5.7.4 1.2l-1.2 5c-.2.4-.4.7-.5 1.1-.2.2-.2.2-.4.2s-.4.2-.5 0c-.9-.2-2.9-.7-6.1 1.1-3.4 1.8-4.6 4.6-4.5 6.8 0 2.7 1.4 3.4 5.9 3.4 6.1.2 8.7 2.9 8.9 8.9 0 6.1-3.2 12.7-8.2 16.6l.2 5.7c0 .7-.4 1.4-.9 1.8l-3.4 2c-.5.4-.9 0-1.1-.7V169c-2.9 1.2-5.7 1.4-7.7.7-.4-.2-.5-.7-.4-1.2l1.2-5.2c.2-.4.4-.9.5-1.1.2-.2.2-.2.4-.2.2-.2.4-.2.5 0 2 .7 4.6.4 7-.9 3.2-1.6 5.2-4.8 5.2-8 0-2.9-1.6-4.1-5.4-4.1-4.8 0-9.3-.9-9.5-8 0-5.9 3-12 7.9-15.7v-5.7c0-.7.4-1.4.9-1.8l3.3-1.9z"/>
			<path class="st1" d="M270 108.2c-1.6-2-3.6-3.7-5.9-5.2-.4-.2-.5-.4-.9-.5 1.8-1.2 3.4-2.7 4.8-4.3 1.4-1.8 2.7-3.7 3.6-5.9.9-2.1 1.2-4.6 1.4-7.1 0-4.5-.9-8.4-2.9-11.8-2-3.2-4.5-6.1-7.7-8-3-2-6.6-3.6-10.5-4.5-3.7-.9-7.7-1.4-11.6-1.4h-26.6c-1.8 0-3.4 1.4-3.4 3.2v85c0 1.8 1.4 3.2 3.4 3.2h28.7c4.1 0 8.2-.7 12.1-1.8 3.9-1.2 7.5-3 10.5-5.2 3-2.3 5.7-5.2 7.5-8.7 2-3.6 2.9-7.5 2.7-12 0-2.9-.5-5.5-1.4-8-.7-2.7-2-4.9-3.8-7zm-16.2-18.6c-.7 1.2-1.8 2.3-3 3.2-1.2.9-2.9 1.6-4.5 2.1-1.8.5-3.6.7-5.4.9h-12.5V75.2h12.1c2 0 3.9.4 5.7.7 1.8.4 3.2 1.1 4.5 2 1.2.7 2.1 1.8 2.9 3 .7 1.2 1.1 2.7 1.1 4.5.2 1.5-.2 3-.9 4.2zm-25.2 21.6h14.6c2.1 0 3.9.4 5.7 1.1 1.6.5 3.2 1.4 4.3 2.3 1.2 1.1 2.1 2.1 2.9 3.7.7 1.4 1.1 3.2.9 5.2 0 1.8-.4 3.6-1.1 5-.7 1.4-1.8 2.7-3 3.7-1.2 1.1-2.9 1.8-4.6 2.5-1.8.5-3.7.9-5.7.9h-13.9v-24.4z"/>
			<path class="st1" d="M325.4 61.8c-.4-1.2-1.8-2.1-3.2-2.1h-9.5c-1.4 0-2.7.9-3.2 2.1l-28.9 85c-.4.9-.2 2 .5 2.9.7.9 1.6 1.2 2.7 1.2h11.4c1.4 0 2.9-.9 3.2-2.3l6.4-19.8h24.8l6.4 19.8c.4 1.4 1.8 2.3 3.2 2.3h11.2c1.1 0 2.1-.5 2.7-1.2.7-.9.9-2 .5-2.9l-28.2-85zm-.7 51.2H310l7.3-22.8 7.4 22.8z"/>
			<path class="st1" d="M421.9 111.6c-1.6-2-3.4-3.7-5.4-5.2s-4.1-2.9-6.2-3.9-4.5-2.1-7-3c-2.3-.9-4.6-1.6-7-2.3-2-.5-4.1-1.2-6.2-2-2-.7-3.9-1.6-5.7-2.7-1.6-.9-2.9-2.1-3.9-3.4-.9-1.2-1.2-2.7-1.4-4.3 0-1.8.4-3.2 1.1-4.5.7-1.2 1.8-2.3 2.9-3.2 1.2-.9 2.9-1.6 4.5-2.1 3.9-1.1 8.2-.9 11.4.2 1.8.7 3.2 1.6 4.5 2.7 1.2 1.1 2.3 2.5 3 4.1.7 1.8 1.4 3.6 1.6 5.7.2 1.6 1.6 2.9 3.4 2.9H423c.9 0 1.8-.4 2.3-.9.7-.5.9-1.4.9-2.3-.2-4.3-1.1-8.4-3-12-2-3.6-4.5-6.6-7.5-9.1s-6.6-4.5-10.5-5.7c-7.5-2.5-15.9-2.7-23.9-.4-3.9 1.1-7.3 2.9-10.4 5-3 2.3-5.7 5-7.5 8.2-2 3.4-3 7.1-3 11.4s1.1 8 3 11.2c2 3 4.5 5.7 7.3 7.9 2.9 2.1 6.1 3.9 9.6 5.4 3.4 1.4 6.6 2.7 10 3.6 2.1.7 4.3 1.4 6.6 2.1 2.1.7 4.1 1.6 5.7 2.7 1.6 1.1 2.9 2.1 3.9 3.6.9 1.2 1.2 2.9 1.2 4.8 0 1.8-.4 3.2-1.1 4.5-.9 1.2-1.8 2.3-3.2 3.2-1.4.9-2.9 1.6-4.6 2-4.3 1.1-8.7.9-12.3-.2-2-.5-3.6-1.4-5.2-2.7-1.4-1.1-2.7-2.5-3.6-4.3-.9-1.6-1.6-3.7-2-5.9-.2-1.6-1.6-2.9-3.4-2.9h-11.6c-.9 0-1.8.4-2.5.9s-.9 1.4-.9 2.3c.2 4.6 1.2 8.7 3.4 12.3s4.8 6.6 8.2 9.1c3.2 2.5 7.1 4.3 11.2 5.5 4.1 1.2 8.4 2 12.7 2 3.9 0 7.7-.5 11.6-1.6 3.9-1.1 7.5-2.7 10.5-4.6 3.2-2.1 5.9-4.8 7.9-8 2.1-3.4 3.2-7.3 3.2-11.6 0-2.9-.4-5.5-1.2-8 0-2.4-1.3-4.6-2.9-6.5z"/>
			<path class="st1" d="M496.6 59.4h-10.7c-1.8 0-3.4 1.4-3.4 3.2V96h-30V62.7c0-1.8-1.4-3.2-3.4-3.2h-10.7c-1.8 0-3.4 1.4-3.4 3.2v85c0 1.8 1.4 3.2 3.4 3.2h10.7c1.8 0 3.4-1.4 3.4-3.2v-36.1h30v36.1c0 1.8 1.4 3.2 3.4 3.2h10.7c1.8 0 3.4-1.4 3.4-3.2v-85c-.2-1.8-1.7-3.3-3.4-3.3z"/>
			<path class="st1" d="M220.8 165.7h-4.1v10.9h-2.1v-10.9h-4.1v-1.8h10.4v1.8z"/>
			<path class="st1" d="M233.3 176.5h-2.1V171h-4.5v5.5h-2.1v-12.7h2.1v5.4h4.5v-5.4h2.1v12.7z"/>
			<path class="st1" d="M245.8 170.8h-5.5v3.9h6.4v1.6h-8.6v-12.5h8.6v1.8h-6.2v3.6h5.5v1.6h-.2z"/>
			<path class="st1" d="M264.7 176.5v-12.7h4.3c.7 0 1.2 0 1.8.2.5.2 1.1.4 1.4.5.4.4.7.7.9 1.1.2.4.4.9.4 1.6 0 .5-.2 1.1-.5 1.6-.4.4-.9.7-1.4 1.1.4.2.7.2 1.1.4.4.2.5.4.7.7.2.2.4.5.5.9.2.4.2.7.2 1.1 0 .5-.2 1.1-.4 1.6s-.5.9-.9 1.1c-.4.4-.9.5-1.4.7-.5.2-1.2.2-1.8.2h-4.9zm2.1-7.3h2.1c.4 0 .7 0 .9-.2.4 0 .5-.2.7-.4l.5-.5c.2-.2.2-.5.2-.7 0-.4 0-.5-.2-.9l-.5-.5c-.2-.2-.5-.2-.7-.4-.4 0-.5-.2-.9-.2h-2.1v3.8zm0 1.6v3.9h2.3c.4 0 .7 0 .9-.2.4-.2.5-.2.7-.4l.5-.5c.2-.2.2-.5.2-.9s0-.5-.2-.9c-.2-.2-.2-.5-.4-.7-.2-.2-.4-.4-.7-.4-.4-.2-.5-.2-.9-.2h-2.5v.3z"/>
			<path class="st1" d="M287 171c0 .7-.2 1.4-.4 2.1s-.5 1.2-.9 1.8c-.4.5-.9.9-1.4 1.2s-1.2.5-2.1.5c-.7 0-1.4-.2-2.1-.5-.5-.4-1.1-.7-1.4-1.2-.4-.5-.7-1.1-.9-1.8s-.4-1.4-.4-2.1v-1.6c0-.5 0-.9.2-1.4 0-.5.2-.9.4-1.2s.4-.9.7-1.1c.2-.4.5-.7.9-.9.4-.2.7-.5 1.2-.5.4-.2.9-.2 1.4-.2.7 0 1.4.2 2.1.5.5.4 1.1.7 1.4 1.2.4.5.7 1.1.9 1.8s.4 1.4.4 2.1v1.3zm-2.2-1.6c0-.5 0-.9-.2-1.4 0-.5-.2-.9-.4-1.2s-.5-.7-.7-.9c-.4-.2-.7-.4-1.2-.4s-.9.2-1.2.4c-.4.2-.5.5-.7.9-.2.4-.4.7-.4 1.2s-.2.9-.2 1.4v1.6c0 .5 0 .9.2 1.4 0 .5.2.9.4 1.2.2.4.5.7.7.9.4.2.7.4 1.2.4s.9-.2 1.2-.4c.4-.2.5-.5.7-.9.2-.4.4-.7.4-1.2s.2-.9.2-1.4v-1.6z"/>
			<path class="st1" d="M299.8 163.9v8.4c0 .7-.2 1.2-.4 1.8-.2.5-.5 1.1-.9 1.4-.4.4-.9.7-1.4.9-.5.2-1.1.4-1.8.4s-1.2-.2-1.8-.4c-.5-.2-1.1-.5-1.4-.9-.4-.4-.7-.9-.9-1.4s-.4-1.1-.4-1.8v-8.4h2.1v8.4c0 .4 0 .7.2 1.1.2.4.2.5.4.9.2.2.4.4.7.5.4.2.5.2.9.2s.7 0 .9-.2c.4-.2.5-.4.7-.5.2-.2.4-.5.4-.9.2-.4.2-.7.2-1.1v-8.4h2.5z"/>
			<path class="st1" d="M309.1 171.5H307v5h-2.1v-12.7h4.1c.7 0 1.2 0 2 .2.5.2 1.1.4 1.4.7.4.4.7.7.9 1.2.2.5.4 1.1.4 1.6 0 .4 0 .9-.2 1.2-.2.4-.4.7-.5.9-.2.4-.5.5-.7.7-.4.2-.5.4-.9.5l2.9 5.4v.2H312l-2.9-4.9zm-2.3-1.6h2c.4 0 .7 0 1.1-.2.4-.2.5-.2.7-.4.2-.2.4-.4.5-.7.2-.2.2-.5.2-.9s0-.7-.2-.9c-.2-.4-.4-.5-.5-.7-.2-.2-.5-.4-.7-.4-.4-.2-.7-.2-1.1-.2h-2v4.4z"/>
			<path class="st1" d="M326.6 176.5h-2.1l-4.3-8.7v8.7h-2.3v-12.7h2.1l4.3 8.6v-8.6h2.1v12.7h.2z"/>
			<path class="st1" d="M339.1 170.8h-5.5v3.9h6.4v1.6h-8.6v-12.5h8.6v1.8h-6.2v3.6h5.5v1.6h-.2z"/>
			<path class="st1" d="M352.9 171.9h-7.3v-1.6h7.3v1.6z"/>
			<path class="st1" d="M364.3 173.5h-4.1l-.9 2.9H357l4.3-12.7h2l4.3 12.7h-2.3l-1-2.9zm-3.6-1.6h3l-1.4-5-1.6 5z"/>
			<path class="st1" d="m380.2 174.9-.7.7c-.4.2-.7.4-1.1.5-.4.2-.7.4-1.2.4-.4 0-.9.2-1.4.2-.7 0-1.4-.2-2.1-.4-.5-.4-1.1-.7-1.6-1.2-.4-.5-.7-1.1-.9-1.8-.2-.7-.4-1.4-.4-2.3v-1.6c0-.7.2-1.6.4-2.3.2-.7.5-1.2.9-1.8.4-.5.9-.9 1.4-1.2s1.2-.5 2-.5c.7 0 1.2.2 1.8.4.5.2 1.1.4 1.4.7.4.4.7.7.9 1.2.2.5.4 1.1.4 1.6h-2.1c0-.4-.2-.7-.2-.9-.2-.4-.4-.5-.5-.7-.2-.2-.4-.4-.7-.4-.4 0-.5-.2-.9-.2-.5 0-.9.2-1.2.4-.4.2-.5.5-.9.9-.2.4-.4.7-.5 1.2-.2.5-.2 1.1-.2 1.4v1.6c0 .5 0 1.1.2 1.4.2.5.4.9.5 1.2.2.4.5.7.9.9.4.2.7.4 1.2.4h.7c.2 0 .4 0 .5-.2.2 0 .4-.2.5-.2.2-.2.4-.2.4-.4v-2.5h-2.3v-1.6h4.5l.3 5.1z"/>
			<path class="st1" d="M391.1 173.5H387l-.9 2.9h-2.3l4.3-12.7h2l4.3 12.7H392l-.9-2.9zm-3.6-1.6h3l-1.4-5-1.6 5z"/>
			<path class="st1" d="M398.2 163.9h7.9v1.8h-2.9v9.1h2.9v1.8h-7.9v-1.8h2.9v-9.1h-2.9v-1.8z"/>
			<path class="st1" d="M419.8 176.5h-2.1l-4.3-8.7v8.7h-2.1v-12.7h2.1l4.3 8.6v-8.6h2.1v12.7z"/>
			<path class="st1" d="M444.8 173.3c0-.4 0-.5-.2-.7l-.5-.5c-.2-.2-.5-.4-.9-.5-.4-.2-.7-.2-1.1-.4-.5-.2-1.1-.4-1.6-.5-.5-.2-.9-.5-1.4-.7-.4-.4-.7-.7-.9-1.1-.2-.4-.4-.9-.4-1.4 0-.5.2-1.1.4-1.4s.5-.7 1.1-1.1c.4-.4.9-.5 1.4-.7.5-.2 1.1-.2 1.8-.2s1.2.2 1.8.4c.5.2 1.1.5 1.4.7.4.4.7.7 1.1 1.2.2.5.4 1.1.4 1.6H445c0-.4-.2-.5-.2-.9-.2-.2-.4-.5-.5-.7-.2-.2-.5-.4-.7-.4-.4-.2-.7-.2-1.1-.2-.4 0-.7 0-.9.2-.4 0-.5.2-.7.4l-.5.5c-.2.2-.2.5-.2.7 0 .4 0 .5.2.7l.5.5c.2.2.5.4.9.4.4.2.7.2 1.1.4.5.2 1.1.4 1.6.5.5.2.9.5 1.2.9.4.4.7.7.9 1.1.2.4.4.9.4 1.4s-.2 1.1-.4 1.4c-.2.4-.5.7-1.1 1.1-.4.4-.9.5-1.4.7-.5.2-1.1.2-1.8.2-.4 0-.9 0-1.2-.2-.4 0-.7-.2-1.1-.4-.4-.2-.7-.4-1.1-.5s-.5-.5-.9-.7c-.2-.4-.4-.5-.5-.9s-.2-.7-.2-1.2h2.1c0 .4.2.7.2 1.1.2.4.4.5.5.7.2.2.5.4.9.4.4.2.7.2 1.1.2.4 0 .7 0 .9-.2.4 0 .5-.2.7-.4l.5-.5c.4-.4.6-.8.6-1z"/>
			<path class="st1" d="M459.8 176.5h-2.1V171h-4.5v5.5H451v-12.7h2.1v5.4h4.5v-5.4h2.1v12.7z"/>
			<path class="st1" d="M472.3 170.8h-5.5v3.9h6.4v1.6h-8.6v-12.5h8.6v1.8H467v3.6h5.5v1.6h-.2z"/>
			<path class="st1" d="M480.1 174.8h6.2v1.6h-8.6v-12.5h2.1v10.9h.3z"/>
			<path class="st1" d="M493.5 174.8h6.2v1.6h-8.6v-12.5h2.1v10.9h.3z"/>
		</g>
	</switch>
</svg>
