<svg xmlns="http://www.w3.org/2000/svg" viewBox="14.32 -9.68 774.36 815.36" style="isolation:isolate">
	<defs>
		<clipPath id="a">
			<path d="M0 0h800.16v800.16H0z"/>
		</clipPath>
	</defs>
	<g clip-path="url(#a)">
		<path fill="#4285F4" d="M320.617 90.542a13.29 13.29 0 0 1-3.771.188q-62.87.015-125.74.014c-3.994.001-3.613-.461-3.614 3.55q-.011 71.622-.012 143.244c0 1.259-.1 2.519-.153 3.779a9.396 9.396 0 0 0-1.029.538 428.63 428.63 0 0 1-42.269 25.851q-15.702 8.376-32.068 15.365c-.757-.355-.734-1.066-.803-1.741a285.617 285.617 0 0 1-1.81-28.792q-.002-121.519-.001-243.038c0-.486.039-.976-.005-1.458-.12-1.319.325-2.018 1.783-1.929 1.161.071 2.332-.034 3.499-.034q118.601-.003 237.202.005a10.611 10.611 0 0 1 3.19.178c.005.193-.011.387-.047.577a453.599 453.599 0 0 1-24.316 63.63c-3.196 6.77-6.663 13.396-10.036 20.073Z"/>
		<path fill="#F4B401" d="M502.393 53.575a207.5 207.5 0 0 1 24.738 20.821c37.923 36.91 62.194 81.347 73.218 133.065a110.066 110.066 0 0 1 2.08 11.739c-.479.953-1.037 1.875-1.425 2.863-3.378 8.593-7.138 17.024-11.102 25.354-4.593 9.656-9.39 19.214-14.466 28.634-7.381 13.696-15.388 27.013-23.861 40.052-8.899 13.694-18.538 26.861-28.552 39.757a142.045 142.045 0 0 0-8.22-14.08c-9.666-13.86-22.34-24.235-37.135-32.166-13.719-7.355-28.343-12.21-43.464-15.686-1.133-.26-2.266-.524-3.41-.79.076-1.01.908-.848 1.486-1.002 13.769-3.667 27.064-8.522 39.347-15.861 15.125-9.037 27.229-20.952 34.905-37.015a92.635 92.635 0 0 0 8.59-34.282 126.444 126.444 0 0 0-3.296-39.352c-4.649-18.495-14.125-33.987-29-46.064-.448-.364-.84-.798-1.258-1.2 1.86-5.001 3.764-9.986 5.572-15.006 5.889-16.346 10.848-32.979 15.253-49.781Z"/>
		<path fill="#DB4538" d="M523.023 355.86c10.014-12.896 19.653-26.063 28.552-39.757 8.473-13.039 16.48-26.356 23.861-40.052 5.076-9.42 9.873-18.978 14.466-28.634 3.964-8.33 7.724-16.761 11.102-25.354.388-.988.946-1.91 1.425-2.863a203.722 203.722 0 0 1 3.016 26.342c.467 7.571.54 15.158.537 22.748q-.044 124.036-.025 248.071c0 4.029.567 3.812-3.697 3.812l-171.607-.003h-1.473c.808-.785 1.868-.756 2.884-.903 14.687-2.114 28.99-5.643 42.577-11.733 19.093-8.557 34.485-21.307 44.764-39.788a107.24 107.24 0 0 0 11.956-36.361 156.699 156.699 0 0 0 1.745-26.458c-.292-16.484-2.895-32.502-9.635-47.685a13.659 13.659 0 0 1-.448-1.382Z"/>
		<path fill="#F4B401" d="M351.336 314.924c3.259-.2 6.363.696 9.461 1.46 17.96 4.428 30.697 15.264 38.749 31.791 4.555 9.349 7.098 19.29 8.693 29.513a187.927 187.927 0 0 1 1.66 38.387c-.592 11.898-2.615 23.549-7.313 34.605-8.307 19.55-23.251 30.553-43.959 34.142a95.029 95.029 0 0 1-16.547 1.259c-10.015-.028-20.03.012-30.045-.017-4.296-.012-3.774.556-3.776-3.649q-.022-50.756-.008-101.513 0-12.543.006-25.086c.002-1.066.089-2.131.136-3.197a9.05 9.05 0 0 0 .991-.598c14.261-11.195 27.837-23.176 40.913-35.728.383-.428.73-.886 1.039-1.369Z"/>
		<path fill="#109D57" d="M502.393 53.575c-4.405 16.802-9.364 33.435-15.253 49.781-1.808 5.02-3.712 10.005-5.572 15.006-1.678-1.151-3.349-2.312-5.035-3.451-12.135-8.201-25.54-13.476-39.64-17.118a219.723 219.723 0 0 0-36.746-5.97c-9.788-.821-19.586-1.122-29.403-1.1q-23.322.055-46.645.002c-1.16-.001-2.321-.119-3.482-.183 3.373-6.677 6.84-13.304 10.036-20.073a453.599 453.599 0 0 0 24.316-63.63c.036-.19.052-.384.047-.577 4.95-.245 9.91-.235 14.86.03a240.109 240.109 0 0 1 130.487 45.637c.706.509 1.355 1.095 2.03 1.646zM308.241 202.293l.001-72.675c0-3.577-.162-3.178 3.096-3.181 10.507-.009 21.014-.029 31.521.006a58.565 58.565 0 0 1 20.869 3.59c12.038 4.592 20.137 13.246 25.346 24.831 3.95 8.787 5.909 18.079 6.875 27.6a185.935 185.935 0 0 1-.059 36.415c-1.08 11.372-3.29 22.511-8.216 32.932-4.261 9.01-10.293 16.454-19.255 21.23a40.716 40.716 0 0 1-18.411 5.026c-13.323.268-26.654.133-39.981.218-1.43.009-1.905-.488-1.802-1.859.088-1.161.016-2.334.016-3.501v-70.632zm-196.28 80.778q16.353-7.017 32.068-15.365a428.63 428.63 0 0 0 42.269-25.851c.331-.2.675-.38 1.029-.538.049.966.143 1.933.143 2.901q.011 88.743.001 177.487c0 .871-.078 1.741-.119 2.613q-5.7 2.282-11.4 4.561a227.251 227.251 0 0 1-19.759-25.924 273.743 273.743 0 0 1-41.692-103.194c-1.016-5.54-1.887-11.097-2.54-16.69z"/>
		<path fill="#4587F4" d="M95.513 690.252a59.395 59.395 0 0 1 6.632 3.486c8.844 5.905 13.239 14.251 13.568 24.782a35.294 35.294 0 0 1-5.124 20.341c-5.707 9.096-14.359 13.626-24.608 15.616a45.356 45.356 0 0 1-8.705.707q-22.032-.009-44.063-.002c-3.458.001-3.175.149-3.175-3.139q-.003-57.924-.001-115.849c0-.486.025-.974-.002-1.458-.06-1.097.416-1.628 1.537-1.571.582.03 1.167.001 1.751.001 14.396 0 28.792-.043 43.188.02a44.049 44.049 0 0 1 17.636 3.377q16.906 7.382 17.618 25.864c.295 7.651-1.492 14.638-6.437 20.667a27.22 27.22 0 0 1-9.815 7.158Zm-49.931 29.195q0 9.774.004 19.548c.005 2.716.025 2.741 2.682 2.744 9.24.011 18.479-.012 27.718.01a30.262 30.262 0 0 0 8.902-1.363 19.823 19.823 0 0 0 10.66-7.245c3.325-4.558 4.132-9.742 3.934-15.213-.318-8.805-5.053-15.347-13.328-18.323a39.936 39.936 0 0 0-13.162-2.226c-8.265-.092-16.533-.037-24.799-.024-2.567.003-2.598.031-2.605 2.544-.018 6.516-.006 13.032-.006 19.548Zm.001-54.478c0 5.543-.018 11.086.008 16.629.011 2.247.054 2.301 2.244 2.302 9.141.005 18.282.023 27.422-.066a29.078 29.078 0 0 0 10.793-2.19 14.974 14.974 0 0 0 9.31-10.821c.495-2.182.694-4.421.589-6.657a16.923 16.923 0 0 0-11.263-15.856 25.672 25.672 0 0 0-8.838-1.672c-9.334-.087-18.67-.045-28.006-.025-2.197.004-2.24.056-2.251 2.31-.027 5.349-.009 10.697-.008 16.046Z"/>
		<path fill="#109D57" d="M335.105 678.981c.46-.692.91-1.39 1.381-2.074 4.988-7.237 11.938-11.171 20.582-12.364 8.431-1.163 16.263.244 23.314 5.168a34.871 34.871 0 0 1 11.599 14.34c3.808 8.199 5.01 16.902 4.88 25.838-.129 8.82-1.434 17.44-5.105 25.541-4.498 9.925-11.487 17.258-22.176 20.502a35.95 35.95 0 0 1-20.143.174 23.318 23.318 0 0 1-13.383-9.279 2.581 2.581 0 0 0-1.471-1.392v2.558l-.001 38.797c0 .68-.018 1.361-.003 2.041.017.794-.254 1.321-1.138 1.321-4.181.004-8.362-.001-12.543.008-.858.002-1.228-.421-1.224-1.25.006-.875-.007-1.75-.007-2.625q-.001-54.841-.005-109.682c-.001-2.819.005-5.641-.119-8.456-.063-1.408.406-1.885 1.808-1.859 3.693.069 7.39.056 11.084.005 1.226-.017 1.715.412 1.747 1.66.074 2.914.267 5.824.396 8.737.032.724.005 1.451.005 2.177l.522.114Zm-.978 31.874c0 2.332-.144 4.674.029 6.993a42.645 42.645 0 0 0 3.347 14.691 18.677 18.677 0 0 0 13.954 11.214c1.715.35 3.458.545 5.208.583 7.342.133 13.507-2.347 17.987-8.388a29.785 29.785 0 0 0 4.395-8.829c2.546-8.012 2.853-16.238 2.128-24.521a37.713 37.713 0 0 0-2.699-10.998c-3.184-7.787-9.657-14.913-22.081-14.174-9.967.594-16.785 5.574-20.025 15.031a50.396 50.396 0 0 0-2.243 18.398Z"/>
		<path fill="#F4B401" d="M485.092 730.665c-3.612 13.851-13.945 23.973-28.295 26.143a42.448 42.448 0 0 1-20.993-1.612c-9.566-3.419-15.889-10.225-19.944-19.303-4.48-10.028-5.358-20.605-4.427-31.405a56.807 56.807 0 0 1 3.893-16.684c4.033-9.882 10.503-17.499 20.751-21.236a40.088 40.088 0 0 1 27.988-.024c7.652 2.752 13.208 8.034 17.067 15.131 4.089 7.522 5.598 15.681 5.799 24.138.048 2.039-.074 4.081-.12 6.121-.026 1.176-.543 1.793-1.804 1.676-.675-.063-1.36-.009-2.041-.009l-53.087.001c-.681 0-1.365.049-2.041-.007-1.33-.111-1.641.56-1.594 1.752.278 7.115 1.724 13.904 5.855 19.848 4.954 7.127 11.911 9.9 20.46 9.146 7.984-.705 13.663-4.59 16.942-11.923.453-1.013.884-1.811 2.272-1.784 4.366.085 8.735.031 13.319.031Zm-35.99-28.022h4.66c5.34 0 10.68.019 16.019-.011 2.004-.011 2.109-.1 1.95-1.898a35.374 35.374 0 0 0-3.082-12.648c-3.674-7.52-9.764-11.433-18.048-11.667-8.505-.241-15.325 2.932-19.578 10.657a37.99 37.99 0 0 0-4.059 13.281c-.31 2.219-.236 2.27 2.041 2.278 6.699.022 13.398.008 20.097.008Z"/>
		<path fill="#4587F4" d="M176.39 713.61q-13.709 0-27.418.003c-2.822.003-2.755.016-2.562 2.924a41.023 41.023 0 0 0 2.667 12.784c2.787 6.903 7.199 12.217 14.673 14.293a24.32 24.32 0 0 0 16.523-1.238 17.23 17.23 0 0 0 8.895-9.243c.912-2.036 2.1-2.64 4.225-2.528 3.394.179 6.804.08 10.206.037 1.408-.017 1.683.584 1.267 1.8-4.316 12.619-13.295 21.978-27.883 24.354a42.818 42.818 0 0 1-18.779-.825c-11.467-3.254-18.713-11.072-23.008-21.843a61.468 61.468 0 0 1-3.853-27.177 59.954 59.954 0 0 1 4.459-20.091c4.56-10.541 11.94-18.093 23.261-21.245a41.023 41.023 0 0 1 21.886-.11c9.831 2.615 16.714 8.802 21.141 17.827 4.457 9.087 5.239 18.804 4.763 28.724-.052 1.088-.483 1.604-1.588 1.553-.679-.03-1.36 0-2.041 0l-26.834.001Zm-7.238-10.978q9.917 0 19.835-.003c2.829-.005 2.88-.026 2.677-2.934a33.282 33.282 0 0 0-.672-4.899c-2.074-9.298-7.463-17.198-18.794-18.274-8.615-.818-16.753 2.286-21.211 10.794a38.18 38.18 0 0 0-3.896 13.049c-.284 2.213-.315 2.252 1.933 2.259 6.709.022 13.418.008 20.128.008Z"/>
		<path fill="#109D57" d="M220.52 709.672a55.5 55.5 0 0 1 5.464-24.119c7.751-15.743 22.807-22.808 39.148-21.149 15.476 1.572 25.951 10.037 31.404 24.303a59.118 59.118 0 0 1-.483 44.7c-5.222 12.764-14.636 20.997-28.443 23.321-21.659 3.646-39.1-7.747-44.933-29.02a66.38 66.38 0 0 1-2.157-18.036Zm15.415.847a47.64 47.64 0 0 0 .663 9.367c1.089 6.114 3.125 11.824 7.155 16.658a22.016 22.016 0 0 0 35.147-1.598 29.956 29.956 0 0 0 3.818-7.822 54.788 54.788 0 0 0 2.048-22.744 39.545 39.545 0 0 0-4.708-15.785c-5.55-9.784-15.654-13.163-25.658-10.787-7.768 1.845-12.491 7.127-15.373 14.253a46.496 46.496 0 0 0-3.092 18.458Z"/>
		<path fill="#F4B401" d="M520.952 679.57a6.893 6.893 0 0 0 1.902-2.585c4.485-7.277 11.06-11.22 19.443-12.437a34.808 34.808 0 0 1 12.467.295c10.268 2.228 16.666 8.678 19.803 18.545a44.234 44.234 0 0 1 1.944 13.506q-.007 27.857-.005 55.714c-.001 2.541-.029 2.558-2.528 2.572q-4.959.026-9.918-.002c-2.311-.017-2.312-.042-2.347-2.454-.009-.583-.002-1.167-.002-1.75q0-25.378.006-50.756a40.969 40.969 0 0 0-.967-8.96c-2.303-10.374-9.695-14.464-19.612-13.584-9.17.813-14.898 6.007-17.874 14.48a47.111 47.111 0 0 0-2.369 15.778q.002 21.877-.007 43.755c-.005 3.857.49 3.472-3.354 3.493-3.208.019-6.419-.067-9.625.034-1.584.05-2.092-.584-1.958-2.048.062-.675.01-1.361.01-2.041q-.001-36.317-.007-72.633c-.002-3.402-.029-6.806-.165-10.205-.062-1.544.501-2.03 2.002-1.998 3.595.078 7.196.085 10.791-.003 1.435-.035 1.764.565 1.912 1.859.419 3.682.28 7.379.458 11.425Z"/>
		<path fill="#DB4538" d="M734.973 701.167v50.472c0 .681-.041 1.364.002 2.042.075 1.164-.51 1.518-1.584 1.512q-6.418-.038-12.837-.001c-.977.006-1.427-.385-1.4-1.365.021-.777-.003-1.556-.003-2.334q-.001-50.181-.005-100.361c-.001-4.538.432-3.967-4.11-3.977-10.211-.024-20.422-.007-30.633-.008-.681 0-1.362-.019-2.042-.008a1.08 1.08 0 0 1-1.253-1.226q-.001-5.689-.007-11.378c-.003-.981.465-1.405 1.431-1.359.582.027 1.167.002 1.75.002q42.741-.001 85.483.002c3.597 0 3.251-.297 3.264 3.314.01 2.431.015 4.863-.001 7.294-.025 3.729.41 3.35-3.502 3.355q-15.463.02-30.925.004c-.681 0-1.364.038-2.042-.003-1.094-.066-1.635.375-1.586 1.508.033.777.001 1.556.001 2.334l-.001 50.181zm-71.801-6.772-.001 57.174c0 .681-.035 1.363.003 2.042.061 1.091-.37 1.592-1.514 1.583q-6.417-.049-12.835-.006c-1.016.006-1.394-.438-1.348-1.404.032-.679-.001-1.361-.001-2.042l-.001-114.931c0-.486-.01-.972.003-1.458.057-2.11.059-2.15 2.06-2.166q5.688-.045 11.377-.002c2.202.015 2.244.048 2.249 2.286q.027 13.419.007 26.837l.001 32.087z"/>
		<path fill="#109D57" d="M351.336 314.924c-.309.483-.656.941-1.039 1.369-13.076 12.552-26.652 24.533-40.913 35.728a9.05 9.05 0 0 1-.991.598c-.072-.478-.119-.96-.142-1.444q-.014-17.491 0-34.983c.003-2.078.056-2.156 2.092-2.138 12.532.113 25.069-.338 37.596.304 1.144.059 2.348-.116 3.397.566Z"/>
		<path fill="#F4B401" d="m175.952 428.879 11.4-4.561v16.485l-.5.294a132.81 132.81 0 0 1-10.9-12.218Z"/>
	</g>
</svg>
