<svg xmlns="http://www.w3.org/2000/svg" width="200" height="128">
	<path d="M44.83 74.86c-.08-.49-.46-1.58-3.77-.87-3.33-.71-3.69.38-3.77.87-.23 1.55 2.29 1.94 3.32 2v1.43h-3.32l.31 1.11h6.9l.3-1.11h-3.32v-1.4c1.04-.09 3.57-.48 3.35-2.03z"/>
	<path d="M59.83 62.85a17 17 0 0 0-3.64-.57l-.77-2.72 1.92-1.77a4.6 4.6 0 0 0-.2-6.52l-.37-.34a4.61 4.61 0 0 0-6.52.22l-1.67 1.75-7.52-1.5-7.52 1.5-1.64-1.76a4.63 4.63 0 0 0-6.53-.23l-.37.34a4.61 4.61 0 0 0-.24 6.52l1.92 1.77-.76 2.72a17.17 17.17 0 0 0-3.65.57.53.53 0 0 0-.35.55l.3 2.19.13.07c.42.22.53.55 1.1 2.54l.1.36c.62 2.16 1.14 3.1 2.16 3.84l1.75 6.31 8.77 4.43h9.62l8.77-4.43 1.75-6.31c1-.74 1.55-1.68 2.17-3.84l.1-.36c.57-2 .68-2.32 1.09-2.54l.14-.07.3-2.19a.53.53 0 0 0-.34-.53zM30.14 55.8l10.92-2.4L52 55.81l2.1 6.39h-1a35.73 35.73 0 0 0-4.74.34 33.542 33.542 0 0 0-4.41.86 11.13 11.13 0 0 1-2.87.46 11.2 11.2 0 0 1-2.88-.46c-.5-.13-1.07-.27-1.78-.42-.87-.19-1.75-.34-2.63-.45A37.47 37.47 0 0 0 29 62.2h-1zm-3.39 15.59a3.59 3.59 0 0 1-1.09-1.29 6 6 0 0 1-.54-1.85c-.33-2.42 0-3.23.26-3.51a2.06 2.06 0 0 1 .79-.57 6 6 0 0 1 1.73-.38 16.9 16.9 0 0 1 2-.09h2.09a21.6 21.6 0 0 1 4 .73c.71.25 1.68.64 1.88 1.28a6.07 6.07 0 0 1-.31 3.09 6.86 6.86 0 0 1-2.06 2.5 7.15 7.15 0 0 1-4 1.09 10.34 10.34 0 0 1-3.92-.63 3.84 3.84 0 0 1-.83-.37zm26.52 6.19-7.79 3.93h-8.85l-7.78-3.93-1.2-4.35a15.57 15.57 0 0 0 3.66.42 16.32 16.32 0 0 0 1.69-.09 7.21 7.21 0 0 0 5-2.71 23.26 23.26 0 0 0 1.92-3.76c.21-.49 1.06-.51 1.17-.51s.95 0 1.16.51a23.26 23.26 0 0 0 1.92 3.76 7.26 7.26 0 0 0 5 2.71 16.32 16.32 0 0 0 1.71.09 15.6 15.6 0 0 0 3.67-.42zM57 68.25a5.71 5.71 0 0 1-.54 1.85 3.4 3.4 0 0 1-1.09 1.29 3.76 3.76 0 0 1-.76.42 10.41 10.41 0 0 1-3.92.63 7.15 7.15 0 0 1-4-1.09 6.81 6.81 0 0 1-2.06-2.49 6 6 0 0 1-.32-3.09c.21-.65 1.17-1 1.89-1.28a21.32 21.32 0 0 1 4-.73c.75 0 1.46-.06 2.09-.06s1.34 0 2 .09a6.47 6.47 0 0 1 1.73.39 2.11 2.11 0 0 1 .79.57c.19.25.52 1.08.19 3.5zm24.84-.43a4.39 4.39 0 0 0 1.3-1.31 4.53 4.53 0 0 0 .66-2.46 4.1 4.1 0 0 0-1.71-3.47 7.79 7.79 0 0 0-4.7-1.22h-8V77h8.45a8.64 8.64 0 0 0 5-1.25 4.24 4.24 0 0 0 1.79-3.64 4.38 4.38 0 0 0-2.87-4.33zm-9.46-6h4.79a4.83 4.83 0 0 1 2.76.66 2 2 0 0 1 .92 1.84 2.08 2.08 0 0 1-.92 1.85 5 5 0 0 1-2.76.65h-4.79zm8.41 12.07a5.61 5.61 0 0 1-3 .65h-5.4v-5.21h5.4c2.66 0 4 .86 4 2.63a2.12 2.12 0 0 1-1 1.95zm22.55-8.75a5.35 5.35 0 0 0-1.73-1.14 7 7 0 0 0-2.83-.55 7.43 7.43 0 0 0-3.49.81 6.07 6.07 0 0 0-2.47 2.32 6.94 6.94 0 0 0 0 6.81 6.13 6.13 0 0 0 2.47 2.32 7.39 7.39 0 0 0 3.49.83 7.12 7.12 0 0 0 2.73-.52 5.66 5.66 0 0 0 1.71-1.11v.41a4.25 4.25 0 0 1-1 3.11 4.44 4.44 0 0 1-3.21 1 8.41 8.41 0 0 1-2.7-.43 6.49 6.49 0 0 1-2.17-1.19l-.22-.19-1.39 2.24.16.14a7.25 7.25 0 0 0 2.79 1.49 12.41 12.41 0 0 0 3.59.51 7.3 7.3 0 0 0 5.23-1.7 7 7 0 0 0 1.77-5.3V63.53h-2.73zm-.62 6.86a3.6 3.6 0 0 1-1.5 1.42A4.58 4.58 0 0 1 99 74a4.66 4.66 0 0 1-2.2-.52A3.73 3.73 0 0 1 95.33 72a4.09 4.09 0 0 1-.54-2A3.73 3.73 0 0 1 96 67.07 4.36 4.36 0 0 1 99 66a4.23 4.23 0 0 1 3 1.1 3.73 3.73 0 0 1 1.27 2.9 4 4 0 0 1-.55 2zm18.65-11a8.18 8.18 0 0 0-5.37-1.65h-7V77h3v-5.2h4a8.18 8.18 0 0 0 5.42-1.66 6.24 6.24 0 0 0 0-9.16zm-2.09 7.26a5.34 5.34 0 0 1-3.4.94h-3.94V62h3.93a5.31 5.31 0 0 1 3.41.94 3.18 3.18 0 0 1 1.13 2.66 3.24 3.24 0 0 1-1.13 2.68zm29.59-3.35a5.64 5.64 0 0 0-4.11-1.51 7.06 7.06 0 0 0-2.87.56 4.76 4.76 0 0 0-1.58 1.09v-1.52h-2.76V77h2.85v-7a4.12 4.12 0 0 1 1-3 3.79 3.79 0 0 1 2.84-1 3.17 3.17 0 0 1 2.43.88 3.82 3.82 0 0 1 .84 2.68v7.47h2.85v-7.72a5.93 5.93 0 0 0-1.53-4.39zm14.4.17a5.22 5.22 0 0 0-1.62-1.08 6.5 6.5 0 0 0-2.68-.55 7.12 7.12 0 0 0-3.5.86A6.26 6.26 0 0 0 153 66.7a7.76 7.76 0 0 0 0 7.18 6.16 6.16 0 0 0 2.44 2.44 7.13 7.13 0 0 0 3.5.87 6.4 6.4 0 0 0 2.76-.59 5.35 5.35 0 0 0 1.64-1.19V77h2.75V57.69l-2.85 1.46zm-.51 7.49a3.86 3.86 0 0 1-1.48 1.52 4.38 4.38 0 0 1-4.24 0 3.82 3.82 0 0 1-1.48-1.53 5 5 0 0 1 0-4.55A3.77 3.77 0 0 1 157 66.5a4.43 4.43 0 0 1 4.24 0 3.71 3.71 0 0 1 1.52 1.5 5.15 5.15 0 0 1 0 4.57zm-33.11-9.16a9.41 9.41 0 0 0-4.8 1.24l1.27 2.16a6.43 6.43 0 0 1 3.43-.86 3.37 3.37 0 0 1 2.27.73 2.8 2.8 0 0 1 .81 2.16v.22h-3.49a6.38 6.38 0 0 0-4.14 1.11 3.87 3.87 0 0 0 .06 5.91 5.7 5.7 0 0 0 3.66 1.11 6.7 6.7 0 0 0 2.69-.5 4.08 4.08 0 0 0 1.34-.91V77h2.72v-8.1a5.34 5.34 0 0 0-1.47-4.1 6 6 0 0 0-4.35-1.39zm3 9.36a3.3 3.3 0 0 1-1.31 1.55 4.24 4.24 0 0 1-2.2.56 3.21 3.21 0 0 1-2-.52 1.57 1.57 0 0 1-.66-1.35c0-.43 0-1.76 2.75-1.76h3.39zm45.53-7.97a6 6 0 0 0-4.3-1.39 9.36 9.36 0 0 0-4.8 1.24l1.27 2.16a6.43 6.43 0 0 1 3.43-.86 3.38 3.38 0 0 1 2.27.73 2.79 2.79 0 0 1 .8 2.16v.22h-3.49a6.33 6.33 0 0 0-4.13 1.11 3.87 3.87 0 0 0-.4 5.46 2.79 2.79 0 0 0 .46.45 5.68 5.68 0 0 0 3.71 1.11 6.7 6.7 0 0 0 2.69-.5 4.08 4.08 0 0 0 1.34-.91V77h2.72v-8.1a5.38 5.38 0 0 0-1.57-4.1zm-1.33 8a3.3 3.3 0 0 1-1.31 1.55 4.24 4.24 0 0 1-2.2.56 3.21 3.21 0 0 1-2-.52 1.57 1.57 0 0 1-.66-1.35c0-.43 0-1.76 2.75-1.76h3.39zm-90.01 4.24h2.85V63.6l-2.85 1.55v11.89zM88.27 59a1.82 1.82 0 0 0-1.32.53 1.72 1.72 0 0 0-.52 1.27 1.69 1.69 0 0 0 .57 1.29 1.82 1.82 0 0 0 1.31.51 1.78 1.78 0 0 0 1.31-.53 1.76 1.76 0 0 0 .53-1.3 1.66 1.66 0 0 0-.53-1.24 1.89 1.89 0 0 0-1.35-.53z"/>
</svg>
