<svg xmlns="http://www.w3.org/2000/svg" width="200" height="128">
    <path d="M155.666 86.8q-.716-.088-1.432-.179a22.832 22.832 0 0 1-19.422-18.012 22.2 22.2 0 0 1 4.766-19.118 21.653 21.653 0 0 1 12.011-7.588 22.855 22.855 0 0 1 28 17.936c.2 1.042.245 2.113.364 3.17a2.2 2.2 0 0 0 .052.238v1.52c-.018.1-.041.2-.053.3-.118 1.036-.167 2.084-.362 3.106a22.862 22.862 0 0 1-19.511 18.446c-.477.062-.953.12-1.429.18zm1.488-42.064c-.809.067-1.622.1-2.427.208a18.366 18.366 0 0 0-11.408 5.745A18.75 18.75 0 0 0 138.7 69.4a14.466 14.466 0 0 0 3.9 6.913 12.04 12.04 0 0 0 10.655 3.3 12.368 12.368 0 0 0 8.432-5.535c.141-.2.241-.408.05-.63s-.392-.141-.607-.051a10.193 10.193 0 1 1 5.425-13.3 16.2 16.2 0 0 1 .9 8.827 17.281 17.281 0 0 1-8.755 12.623c-.572.334-1.2.577-1.778.895a.626.626 0 0 0-.278.433c-.018.224.183.336.4.367a1.265 1.265 0 0 0 .222 0 21.818 21.818 0 0 0 3.863-.428 19.25 19.25 0 0 0-3.98-38.08zm.018 12.655a6.616 6.616 0 1 0 6.6 6.633 6.621 6.621 0 0 0-6.6-6.63zM45.92 63.114a5.6 5.6 0 0 1 2.249 2.024 5.46 5.46 0 0 1 .2 5.8 5.382 5.382 0 0 1-4.964 2.954c-7.254.018-14.509.007-21.764.007A1.5 1.5 0 0 1 20 72.269V55.746a1.57 1.57 0 0 1 1.646-1.636c6.537.021 13.074 0 19.611.017a5.686 5.686 0 0 1 4.781 8.8c-.038.05-.067.104-.118.187zM23.027 65.5v5.424h20.508a2.713 2.713 0 0 0-.3-5.418H23.379zm-.014-2.976H41.113a3.426 3.426 0 0 0 .723-.066 2.705 2.705 0 0 0-.59-5.353q-8.979-.008-17.958 0c-.091 0-.182.012-.281.019zm85.165-8.4c2.534 0 5.069-.038 7.6.009a9.51 9.51 0 0 1 8.649 5.179 9.867 9.867 0 0 1-6.9 14.431 9.069 9.069 0 0 1-1.636.15q-7.855.016-15.71.006a3.563 3.563 0 0 1-3.61-3.611V57.724a3.563 3.563 0 0 1 3.621-3.6zm.059 2.986v-.01h-7.857c-.634 0-.827.193-.827.834v12.153c0 .641.193.834.826.834h15.333a6.641 6.641 0 0 0 1.228-.105 6.9 6.9 0 0 0-.847-13.692c-2.617-.064-5.237-.016-7.856-.016zm-40.553-2.987a5.61 5.61 0 0 0-5.473 4.558 16.355 16.355 0 0 0-.126 2.678c-.012 3.672-.006 7.344 0 11.016a1.49 1.49 0 1 0 2.977-.039v-12.44a2.716 2.716 0 0 1 2.8-2.8h17.489a3.067 3.067 0 0 1 .567.04 2.728 2.728 0 0 1 2.252 2.773v12.377a2.035 2.035 0 0 0 .059.562 1.491 1.491 0 0 0 2.916-.494v-12.6a5.683 5.683 0 0 0-5.656-5.637h-8.871q-4.467.005-8.934.006zM53.676 72.306a1.954 1.954 0 0 0 .087.62 1.468 1.468 0 0 0 1.661.958 1.483 1.483 0 0 0 1.226-1.541V55.666a1.759 1.759 0 0 0-.12-.646 1.484 1.484 0 0 0-2.853.609v8.386q-.004 4.146-.001 8.291z" fill="#0064d3"/>
</svg>
