<svg xmlns="http://www.w3.org/2000/svg" width="200" height="128">
    <defs>
        <linearGradient id="a" x1="43.463" y1="44.487" x2="32.34" y2="35.806" gradientTransform="matrix(1 0 0 -1 0 108)" gradientUnits="userSpaceOnUse">
            <stop offset=".18" stop-color="#0052cc"/>
            <stop offset="1" stop-color="#2684ff"/>
        </linearGradient>
    </defs>
    <path d="M62.413 54.3c4.227 0 6.278 2.083 6.278 5.428 0 2.51-1.137 4.038-3.471 4.608 3.062.505 4.575 2.176 4.575 5.109 0 3.313-2.241 5.586-6.877 5.586h-8.551V54.3zm-5.206 2.714v6.181h4.826c2.682 0 3.786-1.229 3.786-3.226S64.621 57 62.033 57zm0 8.709v6.454h5.8c2.715 0 3.945-.979 3.945-3.062 0-2.209-1.169-3.406-4.005-3.406zM74.435 53.2a1.771 1.771 0 0 1 1.893 1.893 1.893 1.893 0 0 1-3.786 0 1.771 1.771 0 0 1 1.893-1.893zm-1.388 6.059h2.714V75.03h-2.714zM86.123 72.377a8.656 8.656 0 0 0 1.7-.222v2.617a6.542 6.542 0 0 1-1.823.251c-3.378 0-5.02-1.986-5.02-4.923v-8.325h-2.558v-2.51h2.556v-3.36h2.636v3.345h4.195v2.51h-4.195v8.283a2.209 2.209 0 0 0 2.509 2.334zM99.013 75.342a5.177 5.177 0 0 1-5.019-3.091v2.776h-2.715v-22.37h2.733v9.433a5.558 5.558 0 0 1 5.331-3.155c4.195 0 6.311 3.564 6.311 8.2-.015 4.453-2.223 8.207-6.641 8.207zM98.6 61.459c-2.438 0-4.589 1.545-4.589 5.048v1.263c0 3.5 1.986 5.048 4.3 5.048 3.062 0 4.64-2.019 4.64-5.68-.026-3.786-1.539-5.679-4.351-5.679zM108.479 59.25h2.714v9.541c0 2.84 1.137 4.1 3.722 4.1 2.51 0 4.259-1.671 4.259-4.858V59.25h2.715v15.777h-2.715v-2.589a5.531 5.531 0 0 1-4.983 2.9c-3.629 0-5.712-2.51-5.712-6.848zM137.127 74.618a8.745 8.745 0 0 1-3.851.717c-5.615 0-8.247-3.406-8.247-8.247 0-4.765 2.618-8.171 8.247-8.171a8.339 8.339 0 0 1 3.761.774V62.2a7.948 7.948 0 0 0-3.585-.742c-4.1 0-5.773 2.585-5.773 5.647s1.7 5.647 5.837 5.647a9.948 9.948 0 0 0 3.586-.566zM140.221 75.027v-22.37h2.714V66.64l6.784-7.382h3.535L145.836 67l7.73 8.028h-3.693l-6.941-7.383v7.383zM162.559 75.342c-5.9 0-8.487-3.406-8.487-8.247 0-4.765 2.649-8.171 7.447-8.171 4.858 0 6.812 3.378 6.812 8.171v1.23h-11.516c.38 2.682 2.115 4.418 5.837 4.418a13.994 13.994 0 0 0 4.8-.85V74.4a11.37 11.37 0 0 1-4.893.942zm-5.773-9.322h8.8c-.157-2.933-1.484-4.608-4.195-4.608-2.875-.014-4.324 1.847-4.607 4.59zM177.8 72.377a8.646 8.646 0 0 0 1.7-.222v2.617a6.537 6.537 0 0 1-1.829.251c-3.377 0-5.019-1.986-5.019-4.923v-8.325H170.1v-2.51h2.557v-3.36h2.643v3.345h4.2v2.51h-4.2v8.283a2.205 2.205 0 0 0 2.5 2.334z" fill="#253858"/>
    <path fill="none" d="M29.365 68.257h4.679l1.13-6.594h-7.053l1.244 6.594z"/>
    <path d="M21.226 54.9a.717.717 0 0 0-.726.708.852.852 0 0 0 .009.124l3.044 18.48a.977.977 0 0 0 .954.814h14.6a.718.718 0 0 0 .717-.6l3.044-18.687a.717.717 0 0 0-.593-.823.647.647 0 0 0-.124-.009zm12.818 13.357h-4.661l-1.262-6.594h7.053z" fill="#2684ff"/>
    <path d="M41.9 61.663h-6.73l-1.13 6.594h-4.657l-5.5 6.533a.969.969 0 0 0 .627.237h14.604a.717.717 0 0 0 .717-.6z" fill="url(#a)"/>
</svg>
