<svg xmlns="http://www.w3.org/2000/svg" viewBox="-0.03 0.72 443.56 386.06">
	<path fill="#002b63" d="M201.499 27.46q5.478-2.5 10.92-5.08c-3.494-1.774-6.987-3.52-10.44-5.374q-.16 5.23-.48 10.453zm-19.187 8.866c3.454-1.654 6.92-3.28 10.413-4.84-3.266-1.827-6.546-3.654-9.8-5.52-.28 3.453-.453 6.906-.613 10.36zm220.195 198.408c-21.386-18.586-51.319-25.906-79.038-20.733a101.523 101.523 0 0 0-44.306-65.585c-2.96-39.172-5.733-78.371-8.733-117.53-3.08-1.28-6.146-2.6-9.213-3.907q-2.04 3.28-4.093 6.547c-1.613-.72-3.213-1.427-4.813-2.147-.134-2.866-.294-5.72-.467-8.586q-4.86-2.16-9.747-4.307-2.22 3.34-4.413 6.68c-1.826-.787-3.653-1.56-5.48-2.347-.013-2.906-.026-5.8-.026-8.706q-5.32-2.34-10.64-4.667-.04 145.377-.013 290.753 106.837-.02 213.661 0v-3.08a94.703 94.703 0 0 0-32.68-62.385zM250.217 69.151c-.36-5.48-.56-10.973-.76-16.466-3.746-1.986-10.386-1.946-10.08-7.626 4.667 1.573 9.174 3.52 13.734 5.386.226 6.6.613 13.187.826 19.786-.92-.266-2.786-.813-3.72-1.08zM120.194 376.864h26v-3.334c-7.44-.013-14.894.014-22.334 0 .027-8.226-.026-16.44.014-24.666 7.333.027 14.653-.026 21.986 0v-3.333c-7.333 0-14.666-.013-22 0q0-9.66-.013-19.333h22.346v-3.666h-26zm65.638-30.866c-4.56-2.547-10.053-2.893-14.44-5.773-2.24-1.6-1.333-5.334 1.12-6.227 4.467-2.28 9.094.574 12.987 2.68 1.84-3.787 3.8-7.52 5.706-11.266-8.186-3.787-18.066-6.266-26.652-2.333-9.053 4.146-12.027 16.6-7.373 24.959 4.6 6.733 14.08 5.507 20.012 10.226 2.614 2.774-.053 6.974-3.306 7.574-5.587 1.48-10.667-2.28-14.973-5.32-2.067 3.946-4.173 7.88-6.173 11.866 9.346 5.987 21.84 8.427 31.986 2.987 10.333-5.48 12.306-23.813 1.106-29.373zm-155.17 1.826c7.467-6.133 6.587-20.092-2.6-24.079-6.252-2.173-13.039-.96-19.532-1.16v53.812c7.026.493 14.213 1.147 21.173-.213 8.16-1.934 12.973-11.373 10.186-19.2-1.226-4.52-5.413-7.04-9.226-9.16zm-18.132-21.64c4.226.121 8.547-.426 12.68.588 7.253 2.12 9.04 12.986 3.373 17.679-4.453 3.747-10.706 2.48-16.053 2.787zm21.106 43.387c-5.533 5.546-14.066 3.573-21.106 3.973v-23.013c6.24.133 12.84-.653 18.746 1.827 6.267 3.106 7.346 12.453 2.36 17.213zm165.903 7.306q15.64-.02 31.305 0c.014-4 .014-8.013.014-12.013h-17v-9h16q-.02-6.166 0-12.333h-16v-8.666h17v-12.333c-10.453.026-20.893-.027-31.333.013.014 18.106-.013 36.226.014 54.332zm-146.33-3.333c-.027-17.013 0-34.013-.013-51.026-1 .014-3 .027-4 .027v54.319c6.066-.014 12.133.066 18.2-.093-.254-.76-.774-2.307-1.027-3.08-4.387-.36-8.774-.16-13.16-.147zm56.172-50.746-3.827-.586c-.253 13.4.36 26.826-.293 40.212-.6 10.2-13.76 14.36-21.813 9.96-4.773-1.867-7.24-7.013-7.213-11.92-.133-12.626.013-25.252-.04-37.88-1-.026-2.986-.079-3.986-.119-.04 10.933.013 21.853-.04 32.786 0 5.586.012 11.88 3.933 16.32 7.573 8.24 22.4 8.133 29.732-.347 3.734-4.453 3.427-10.586 3.68-16.04-.067-10.8.213-21.6-.133-32.386zm325.378-.133c-5.693-.214-11.386-.133-17.08-.133-3.24 4.866-6.652 9.626-9.932 14.466q-4.92-7.26-9.933-14.466c-5.8 0-11.6-.027-17.4.026 6.533 9.6 13.786 18.733 19.933 28.56.467 8.56.027 17.16.173 25.746h14.333c-.013-8.574 0-17.16-.013-25.733 6.626-9.507 13.626-18.733 19.92-28.466zm-155.596 32.813c-8.533-10.973-17.133-21.894-25.6-32.906-4.786-.054-9.586-.04-14.372-.04v54.345a852.27 852.27 0 0 1 14.32.013c.066-10.88-.08-21.76.08-32.64q12.74 16.281 25.386 32.627 7.273-.04 14.546 0 .02-27.18 0-54.345H279.19c-.013 10.986.027 21.959-.027 32.946zm97.784-5.133c7.027-7.987 4.454-23.066-6.24-26.48-9.812-2.64-20.146-.786-30.185-1.333.013 18.119-.027 36.225.013 54.345q7.16-.04 14.32 0-.02-10.28.026-20.533c4.48 6.787 8.747 13.72 13.187 20.533 6.026-.013 12.04.013 18.066-.066-5.507-7.227-11.253-14.28-16.506-21.68 2.56-1.386 5.266-2.653 7.32-4.786zm-14.146-4.76c-2.533.946-5.253 1.146-7.893 1.613a489.16 489.16 0 0 1-.027-13.986c3.32.72 7.56.213 9.8 3.32a6.288 6.288 0 0 1-1.88 9.052zm-64.612-23.067c-.013 4.12-.013 8.227.014 12.347h11.653v42.012a852.27 852.27 0 0 1 14.32.013c.026-14.012 0-28.012.013-42.025h11.666v-12.333c-12.56-.014-25.106.013-37.666-.014zm-144.516-22.346q5.4-73.698 10.906-147.41a103.275 103.275 0 0 0-32.185 41.293c-27.653 4.467-51.986 24-62.452 49.959-13.72-1.014-27.893 2.493-38.96 10.84A56.432 56.432 0 0 0 8.53 294.305v5.893q72.578-.02 145.143-.027z"/>
</svg>
