<svg xmlns="http://www.w3.org/2000/svg" width="200" height="128">
    <path d="M48.824 60.421v-1.138a6.042 6.042 0 0 0-3.043-5.324 716.04 716.04 0 0 0-4.361-2.556 248.143 248.143 0 0 0-3.974-2.26 5.821 5.821 0 0 0-5.907-.1c-2.767 1.539-5.505 3.151-8.146 4.71l-.257.15A5.924 5.924 0 0 0 20 59.2v9.555a5.857 5.857 0 0 0 2.806 5.15c2.772 1.7 5.752 3.412 8.864 5.1a5.671 5.671 0 0 0 2.723.706 6.083 6.083 0 0 0 2.975-.813c1.939-1.1 3.906-2.212 5.816-3.335.9-.532 1.8-1.06 2.679-1.592a5.731 5.731 0 0 0 2.816-3.965 6.481 6.481 0 0 0 .111-1.021c.078-3.032.088-5.834.034-8.564zm-7.409 13.553l-1.086.624-1.914 1.079-.761.446c-.407.237-.819.484-1.231.711a3.878 3.878 0 0 1-4.056.034 800.06 800.06 0 0 1-8.238-4.729 3.722 3.722 0 0 1-1.938-3.3 337.293 337.293 0 0 1-.024-7.033v-2.5a3.746 3.746 0 0 1 2-3.422l1.284-.745c2.375-1.36 4.783-2.769 7.153-4.1a3.282 3.282 0 0 1 1.619-.431 4.363 4.363 0 0 1 2.171.615q1.87 1.065 3.726 2.154l1.98 1.148 1.061.61 1.289.74a3.762 3.762 0 0 1 1.973 3.277v.392q-4.9-1.766-9.828-3.528a.992.992 0 0 0-.809.126c-2.52 1.936-5.03 3.92-7.511 5.919a7.555 7.555 0 0 1-2.724 1.453c-.94.295-1.861.624-2.786.934l.024.077h3.906l.034.189-1.721.484a2.309 2.309 0 0 1 1.939 1.108 18.142 18.142 0 0 1 1.681 2.164c.737 1.389.664 1.423 2.22 1.365.068 0 .14-.029.077 0l1.42-3.151 2.089 1.83-.572 1.152a26.328 26.328 0 0 1 2.287 2.105c1.28 1.481 3.073 1.2 4.8 1.694l-.6-2.521c-1.11.208-2.21.532-2.792-.9.388-.039.761-.063 1.124-.116 1.735-.252 1.663-.208 2.612 1.249.679 1.011.941 1.882.122 2.797zm3.222-1.883l-.581.343c-.257-1.016-.921-1.936-1.158-2.986a19.418 19.418 0 0 0 2.069-.228 8.107 8.107 0 0 1 1.2-.169l.286.106a3.56 3.56 0 0 1-1.818 2.924z" fill="#0093ee"/>
    <path d="M62.62 68.646a4.012 4.012 0 0 0 1-2.842 3.81 3.81 0 0 0-.991-2.779 3.19 3.19 0 0 0-2.363-1.016 3.156 3.156 0 0 0-2.366 1.037 4.462 4.462 0 0 0 0 5.61 3.167 3.167 0 0 0 4.716-.01zm-1.863-8.69a4.8 4.8 0 0 1 3.705 1.628 6.04 6.04 0 0 1 1.482 4.231 6.168 6.168 0 0 1-1.492 4.272 4.758 4.758 0 0 1-3.695 1.67 4.117 4.117 0 0 1-2.283-.633 4.612 4.612 0 0 1-1.562-1.69v2.136h-2.283V56.222h2.283v5.953a4.4 4.4 0 0 1 1.552-1.608 4.283 4.283 0 0 1 2.293-.611zm7.168 11.614V56.222h2.283V71.57zm12.716-11.428h2.283V71.57h-2.283v-1.8a3.714 3.714 0 0 1-3.525 1.97 4.058 4.058 0 0 1-3.074-1.275 4.989 4.989 0 0 1-1.212-3.578v-6.745h2.263v6.388a3.391 3.391 0 0 0 .741 2.354 2.589 2.589 0 0 0 2.023.82 2.621 2.621 0 0 0 2.033-.82 3.365 3.365 0 0 0 .751-2.354zm9.651 11.615a5.082 5.082 0 0 1-3.905-1.618 6.058 6.058 0 0 1-1.5-4.293 5.972 5.972 0 0 1 1.522-4.283 5.676 5.676 0 0 1 7.85-.062 5.544 5.544 0 0 1 1.5 4.034 7.4 7.4 0 0 1-.08 1.12h-8.451a3.322 3.322 0 0 0 .931 2.271 2.914 2.914 0 0 0 2.133.84 2.675 2.675 0 0 0 2.623-1.6h2.464a5.125 5.125 0 0 1-1.823 2.582 5.229 5.229 0 0 1-3.264 1.009zm3.084-6.72a3.026 3.026 0 0 0-.9-2.25 2.992 2.992 0 0 0-2.143-.84 2.89 2.89 0 0 0-2.113.84 3.454 3.454 0 0 0-.971 2.25zm5.746-4.791v1.846a3.8 3.8 0 0 1 3.625-2.053 4.324 4.324 0 0 1 2.333.642 3.831 3.831 0 0 1 1.532 1.888 4.3 4.3 0 0 1 1.612-1.867 4.427 4.427 0 0 1 2.413-.663 4.108 4.108 0 0 1 3.044 1.234 4.841 4.841 0 0 1 1.219 3.557v6.74h-1.382V65.1a4.133 4.133 0 0 0-.871-2.841 3.4 3.4 0 0 0-4.766 0 4.133 4.133 0 0 0-.872 2.841v6.47h-1.381V65.1a4.138 4.138 0 0 0-.871-2.841 3.4 3.4 0 0 0-4.767 0 4.138 4.138 0 0 0-.871 2.841v6.47h-1.4V60.246zm26.053 9.022a5.3 5.3 0 0 0 .01-6.709 3.789 3.789 0 0 0-2.874-1.276 3.835 3.835 0 0 0-2.864 1.224 4.562 4.562 0 0 0-1.181 3.308 4.877 4.877 0 0 0 1.191 3.4 3.812 3.812 0 0 0 5.718.052zm-3.064 2.51a4.86 4.86 0 0 1-3.785-1.68 6.187 6.187 0 0 1-1.5-4.283 5.866 5.866 0 0 1 1.492-4.19 4.982 4.982 0 0 1 3.8-1.586 4.59 4.59 0 0 1 4.265 2.675v-2.468h1.4V71.57h-1.4v-2.489a4.627 4.627 0 0 1-1.662 1.94 4.544 4.544 0 0 1-2.61.757zm13.256-10.391h-3.024V68.9a1.74 1.74 0 0 0 .32 1.192 1.526 1.526 0 0 0 1.142.343h1.562v1.14H133.5q-2.562 0-2.563-2.675v-7.513h-1.522v-1.141h1.522V57.4h1.4v2.842h3.024zm9.291 7.881a5.3 5.3 0 0 0 .01-6.709 3.792 3.792 0 0 0-2.874-1.276 3.835 3.835 0 0 0-2.864 1.224 4.562 4.562 0 0 0-1.181 3.308 4.877 4.877 0 0 0 1.191 3.4 3.812 3.812 0 0 0 5.718.052zm-3.064 2.51a4.86 4.86 0 0 1-3.785-1.68 6.187 6.187 0 0 1-1.5-4.283 5.866 5.866 0 0 1 1.492-4.19 4.979 4.979 0 0 1 3.795-1.586 4.59 4.59 0 0 1 4.265 2.675v-2.468h1.4V71.57h-1.4v-2.489a4.627 4.627 0 0 1-1.662 1.94 4.547 4.547 0 0 1-2.605.757zm16.039-2.51a5.3 5.3 0 0 0 .01-6.709 3.788 3.788 0 0 0-2.873-1.276 3.833 3.833 0 0 0-2.864 1.224 4.558 4.558 0 0 0-1.182 3.308 4.877 4.877 0 0 0 1.192 3.4 3.81 3.81 0 0 0 5.717.052zm-3.064 2.51a4.861 4.861 0 0 1-3.785-1.68 6.187 6.187 0 0 1-1.5-4.283 5.87 5.87 0 0 1 1.492-4.19 4.982 4.982 0 0 1 3.795-1.586 4.59 4.59 0 0 1 4.266 2.675v-6.492h1.4V71.57h-1.4v-2.489a4.641 4.641 0 0 1-1.662 1.94 4.55 4.55 0 0 1-2.606.757zm12.976-1.162a3.985 3.985 0 0 0 2.944-1.265 4.714 4.714 0 0 0 1.241-3.451 4.818 4.818 0 0 0-1.181-3.443 3.81 3.81 0 0 0-2.884-1.255 3.7 3.7 0 0 0-2.844 1.244 4.936 4.936 0 0 0-1.141 3.464 5.11 5.11 0 0 0 1.081 3.464 3.521 3.521 0 0 0 2.784 1.242zm0 1.162a4.918 4.918 0 0 1-3.815-1.618 6.06 6.06 0 0 1-1.472-4.241 5.885 5.885 0 0 1 1.562-4.252 5.5 5.5 0 0 1 7.81 0 5.853 5.853 0 0 1 1.562 4.231 5.73 5.73 0 0 1-1.642 4.241 5.454 5.454 0 0 1-4.005 1.639zm9.071-11.532v1.867A3.355 3.355 0 0 1 180 60.039v1.514h-.4a2.912 2.912 0 0 0-2.212.808 3.99 3.99 0 0 0-.771 2.78v6.429h-1.4V60.246z" fill-rule="evenodd"/>
</svg>
