<svg xmlns="http://www.w3.org/2000/svg" viewBox="-13.58 -16.58 1226.16 362.16" style="isolation:isolate">
	<defs>
		<clipPath id="a">
			<path d="M0 0h1200v333.332H0z"/>
		</clipPath>
	</defs>
	<g clip-path="url(#a)">
		<path fill="#030303" d="M78.19 322.267c-21.803 0-43.607-.027-65.41.048-1.878.007-2.288-.45-2.269-2.301q.328-31.018.456-62.038a4.735 4.735 0 0 1 1.406-3.566c5.371-5.377 10.558-10.95 16.134-16.104a219.884 219.884 0 0 1 16.712-14.492c6.613-4.981 13.085-10.159 20.02-14.705a333.502 333.502 0 0 1 37.062-21.33c18.134-8.805 36.981-15.737 56.189-21.787 4.373-1.377 8.815-2.787 13.196-3.829 9.098-2.164 18.238-4.287 27.442-6.037a2.894 2.894 0 0 1 1.497.204c12.119 3.917 23.34 9.525 32.994 17.922a65.477 65.477 0 0 1 13.959 17.751 72.428 72.428 0 0 1 8.137 22.036 98.141 98.141 0 0 1-4.51 52.086 71.466 71.466 0 0 1-12.028 20.005c-8.01 9.669-18.111 16.442-29.324 21.849a133.014 133.014 0 0 1-29.54 9.802 191.248 191.248 0 0 1-19.532 3.128c-13.682 1.548-27.418 1.361-41.15 1.358q-20.72-.003-41.441 0z"/>
		<path fill="#7FB827" d="M10.995 229.416v-2.011q0-108.749-.049-217.498c-.002-2.102.411-2.704 2.629-2.699 41.444.092 82.889-.062 124.333.174 16.944.097 33.619 2.553 49.654 8.395a99.347 99.347 0 0 1 27.019 14.783c.446.346.838.763 1.336 1.22a191.678 191.678 0 0 0-29.772 14.691c-3.613 2.18-7.119 4.591-10.716 6.749-8.802 5.281-16.888 11.511-25.046 17.654-4.611 3.472-9.042 7.183-13.406 10.987-3.343 2.913-6.8 5.729-10.172 8.633-8.73 7.52-16.947 15.581-25.063 23.743-5.571 5.603-11.097 11.254-16.319 17.193-6.028 6.855-12.178 13.605-18.16 20.5-7.557 8.71-14.642 17.806-21.598 27q-13.707 18.117-26.045 37.194c-2.838 4.41-5.506 8.929-8.251 13.398l-.374-.106z"/>
		<path fill="#7FB827" d="M11.388 246.188a38.235 38.235 0 0 1 3.015-6.758c3.652-7.476 7.909-14.611 12.204-21.733q5.281-8.754 11.247-17.031c5.491-7.578 10.769-15.313 16.836-22.467 2.844-3.354 5.214-7.124 8.183-10.352 3.252-3.535 6.025-7.452 9.309-10.954 3.632-3.874 6.994-8 10.605-11.893 3.993-4.305 8.095-8.511 12.222-12.689 5.925-5.999 11.801-12.054 17.914-17.858 5.086-4.828 10.38-9.454 15.49-14.253 4.755-4.467 9.87-8.51 14.694-12.888 2.434-2.21 5.46-3.989 8.096-6.112 8.649-6.966 17.298-13.955 26.636-19.969 9.023-5.813 17.935-11.837 27.487-16.794 4.596-2.385 9.237-4.686 13.843-7.053a2.498 2.498 0 0 1 3.421.578 64.049 64.049 0 0 1 17.001 32.883 87.484 87.484 0 0 1 1.728 14.784c.251 10.092-2.002 19.656-5.769 28.95a66.398 66.398 0 0 1-16.211 23.712 116.345 116.345 0 0 1-10.576 8.512c-3.823 2.836-8.489 2.44-12.801 3.364-7.166 1.535-14.389 2.788-21.567 4.29a334.123 334.123 0 0 0-42.335 11.868 282.164 282.164 0 0 0-29.649 12.425 291.236 291.236 0 0 0-36.952 21.448 303.909 303.909 0 0 0-28.885 22.359c-8.194 7.165-16.236 14.502-23.792 22.351-.347.36-.737.679-1.394 1.28zM332.783 58.115a47.112 47.112 0 0 1 15.441-10.427c11.179-4.409 22.288-4.626 33.051 1.222 4.966 2.698 7.955 7.277 9.993 12.401a61.125 61.125 0 0 1 3.866 18.162c.353 4.755.46 9.525.319 14.29-.232 8.345-1.63 16.47-5.19 24.142-4.065 8.761-10.891 14.069-20.103 16.506-4.424 1.17-8.984 1.408-13.488 2.037-4.949.692-9.795-.022-14.598-.309a132.954 132.954 0 0 1-29.077-4.63c-1.182-.342-2.3-.903-3.459-1.332a1.354 1.354 0 0 1-1.055-1.492c.034-.445.004-.896.004-1.343q0-57.225-.04-114.45c-.003-1.95.362-2.667 2.512-2.622 7.24.15 14.485.104 21.727.02 1.589-.018 1.989.458 1.993 2.006.02 8.287.337 16.576.192 24.858-.113 6.506-.262 13.056-2.075 19.404a7.572 7.572 0 0 0-.013 1.557zm1.772 35.738h.071c0 6.495.038 12.99-.032 19.484-.014 1.368.361 1.895 1.757 2.157a66.575 66.575 0 0 0 17.799 1.201c7.067-.579 11.226-3.786 12.879-10.655 2.444-10.157 2.202-20.447.494-30.67-.738-4.415-3.176-7.884-7.858-9.148a24.827 24.827 0 0 0-10.633-.42c-4.779.788-8.666 3.479-12.723 5.843a3.147 3.147 0 0 0-1.794 3.173c.097 6.344.04 12.69.04 19.035zm121.468 42.609c-8.542.026-15.806-.282-22.871-2.468a30.876 30.876 0 0 1-12.146-6.928c-6.391-5.928-8.652-13.585-10.197-21.798-1.252-6.655-1.044-13.324-.849-19.951.244-8.29 1.268-16.589 5.457-24.048a28.212 28.212 0 0 1 17.807-14.047 83.779 83.779 0 0 1 33.159-1.93 55.304 55.304 0 0 1 12.696 2.949c9.784 3.776 15.232 11.265 18.168 21.024 2.056 6.834 2.447 13.883 2.477 20.876.039 9.034-.648 18.068-4.181 26.622-3.686 8.923-10.28 14.493-19.406 17.208a63.232 63.232 0 0 1-20.114 2.491zm-18.565-45.659c.212 5.821-.202 12.14 2.132 18.134 1.277 3.277 3.378 5.726 6.897 6.773a31.615 31.615 0 0 0 14.16.707c5.629-.888 8.75-4.305 10.103-9.675a48.045 48.045 0 0 0 1.413-10.614c.19-7.829.434-15.666-1.886-23.3a10.378 10.378 0 0 0-6.288-7.086 25.765 25.765 0 0 0-13.641-1.209c-7.164 1.09-10.289 4.094-11.809 11.155-1.044 4.851-.956 9.778-1.081 15.115zm76.815-1.058c0-2.982-.179-5.977.034-8.944.613-8.549 2.539-16.761 7.84-23.716 5.012-6.576 12.081-9.805 20.055-11.217a93.98 93.98 0 0 1 34.823.45 30.694 30.694 0 0 1 7.547 2.16 33.809 33.809 0 0 1 6.445 4.397c6.32 5.298 8.416 12.397 8.824 20.232a34.352 34.352 0 0 1-1.142 11.246c-2.284 8.068-7.829 12.476-15.761 14.194a46.454 46.454 0 0 1-10.973.914c-9.331-.212-18.67-.036-28.006-.099-1.781-.012-2.138.486-1.729 2.219.771 3.269 1.556 6.472 3.794 9.124 3.075 3.644 7.404 4.261 11.669 4.486a186.69 186.69 0 0 0 31.685-1.177c1.624-.191 3.279.089 4.885-.393.731-.22 1.008.143 1.122.914.694 4.686 1.449 9.364 2.197 14.042a1.362 1.362 0 0 1-.968 1.691c-6.433 2.748-13.185 4.095-20.077 5.141-5.347.811-10.726.666-16.075 1.229-3.459.364-7.037-.408-10.563-.659a49.33 49.33 0 0 1-10.956-1.988 34.107 34.107 0 0 1-13.316-7.115c-7.138-6.426-9.552-14.78-10.838-23.8-.633-4.442-.423-8.887-.516-13.331zm40.99-6.241v-.039c3.882 0 7.767.068 11.648-.017 4.525-.1 6.909-2.332 7.323-6.777.139-1.713.07-3.436-.206-5.132a7.854 7.854 0 0 0-6.178-6.873 33.6 33.6 0 0 0-16.612-.153c-4.624 1.086-7.463 4.197-8.551 8.813a48.104 48.104 0 0 0-1.192 8.177c-.093 1.546.267 2.083 1.895 2.037 3.955-.112 7.915-.036 11.873-.036z"/>
		<path fill="#030303" d="M1025.953 243.198c-5.849-3.695-8.753-9.041-9.777-15.818a39.649 39.649 0 0 1-.29-9.003c.419-5.323 1.554-10.53 5.138-14.991 4.354-5.421 10.371-7.265 16.673-8.238 10.923-1.686 21.882-1.911 32.698 1.058.654.133 1.324.18 1.99.14 7.841.009 15.682.053 23.521-.032 1.668-.018 2.16.453 1.622 1.998a2.996 2.996 0 0 0-.213.632c-.124 1.174.436 2.702-.425 3.447-1.103.954-2.801.565-4.254.654-3.176.194-6.353.374-9.661.568.244 1.258 1.277 2.077 1.729 3.184 3.947 9.669 4.23 19.403-.286 28.887-2.535 5.324-7.348 8.238-12.931 9.982-8.958 2.797-18.136 2.367-27.317 2.131a41.645 41.645 0 0 1-10.814-1.726c-.842-.249-1.259.086-1.759.829-4.458 6.633-3.333 14.861 7.718 16.669 11.801 1.932 23.636 3.683 35.381 5.912 7.569 1.436 14.328 4.613 16.474 12.991 2.274 8.881 2.468 17.681-2.867 25.757-2.958 4.48-7.579 6.404-12.513 7.75-10.752 2.932-21.733 2.417-32.698 2.153a55.368 55.368 0 0 1-17.324-3.081c-6.372-2.263-10.812-6.278-12.48-13.102-1.848-7.556-1.678-14.897 1.769-21.974 1.988-4.081 5.766-6.334 9.376-8.701 1.094-.718 2.327-.838.279-2.212-4.023-2.699-5.815-9.246-5.044-14.03a21.255 21.255 0 0 1 6.285-11.834zm27.683 65.621c6.089-.11 10.867-.308 15.541-1.389 5.541-1.281 10.377-3.534 11.817-9.776a26.153 26.153 0 0 0-.019-11.545 8.024 8.024 0 0 0-4.375-5.607 25.056 25.056 0 0 0-7.806-2.585c-11.037-1.787-22.091-3.46-33.13-5.234a3.198 3.198 0 0 0-2.441.716c-7.73 4.966-10.558 12.176-9.789 21.089.611 7.081 3.67 10.921 10.602 12.577 6.86 1.639 13.887 1.781 19.6 1.754zm-1.906-69.425c5.384-.238 10.611-.372 15.602-2.194a13.21 13.21 0 0 0 8.606-8.71 26.113 26.113 0 0 0 .793-11.058c-.776-6.862-4.61-11.399-11.342-13.009a58.616 58.616 0 0 0-27.48.044c-5.603 1.328-9.386 4.715-10.808 10.421a26.603 26.603 0 0 0-.419 10.454c.992 6.595 4.814 10.619 11.258 12.388 4.592 1.261 9.27 1.398 13.79 1.664z"/>
		<path fill="#7FB827" d="M639.83 59.77a68.011 68.011 0 0 1 21.921-13.009 47.1 47.1 0 0 1 16.59-2.339c1.684.017 1.345 1.088 1.258 1.95-.48 4.796-1.029 9.585-1.556 14.376-.227 2.062-.533 4.119-.653 6.187-.075 1.28-.43 1.888-1.843 1.809-10.582-.588-20.607 1.959-30.498 5.376-1.582.546-1.75 1.398-1.747 2.788.032 18.371-.005 36.742.063 55.113.006 1.824-.408 2.398-2.314 2.368-7.318-.117-14.639-.081-21.958-.019-1.434.013-2.076-.169-2.073-1.876q.086-41.896.009-83.791c-.002-1.467.384-1.887 1.859-1.864 5.526.086 11.056.128 16.579-.02 1.715-.047 2.174.711 2.415 2.076.627 3.556 1.272 7.109 1.948 10.875z"/>
		<path fill="#030303" d="M563.911 219.998c0-19.932.02-39.865-.038-59.797-.005-1.708.354-2.367 2.183-2.242 2.452.169 4.926.086 7.388.024 1.237-.031 1.707.374 1.697 1.667-.101 14.257.537 28.514-.02 42.768.01 2-.247 3.991-.764 5.923-.13.412-.326 1.101.238 1.402.489.262.721-.3 1.067-.557 9.905-7.363 20.484-13.402 32.967-14.886 6.326-.752 12.739-.583 18.512 2.95a19.019 19.019 0 0 1 8.987 13.133c.618 3.433.897 6.918.832 10.405-.024 19.558-.056 39.118.049 58.676.012 2.258-.651 2.785-2.733 2.606a40.63 40.63 0 0 0-6.489-.003c-1.826.137-2.365-.379-2.357-2.287q.114-29.002.016-58.005a29.724 29.724 0 0 0-1.656-10.438c-1.614-4.365-4.819-6.231-8.916-7.024-7.047-1.363-13.695.235-20.144 3.075a137.393 137.393 0 0 0-18.074 10.096 3.12 3.12 0 0 0-1.585 3.058c.05 19.708-.002 39.416.089 59.124.009 2.043-.558 2.551-2.481 2.403a47.016 47.016 0 0 0-6.714-.003c-1.647.11-2.113-.333-2.1-2.048.087-11.496.046-22.993.046-34.489v-25.531zm-148.245 24.69c-8.517 0-15.538.042-22.556-.033-1.477-.016-1.832.355-1.737 1.844.206 4.173.9 8.306 2.068 12.317 2.758 8.995 9.617 14.193 19.293 15.079 11.519 1.055 22.942.107 34.357-1.272 3.117-.376 3.21-.345 3.846 2.693.061 1.108.226 2.207.492 3.284.331.823.031 1.334-1.053 1.674a84.848 84.848 0 0 1-15.484 2.961 114.719 114.719 0 0 1-23.516.791c-8.281-.731-16.364-2.777-22.363-9.302a39.988 39.988 0 0 1-4.708-6.756c-2.452-4.115-2.985-8.719-3.932-13.252-.316-1.514-.171-3.195-1.171-4.539a1.35 1.35 0 0 1-.2-1.25 20.522 20.522 0 0 0-.044-9.376c-.244-1.258.465-2.402.458-3.681-.037-7.505.643-14.919 3.134-22.078a29.35 29.35 0 0 1 8.508-12.781c4.967-4.363 10.98-5.498 17.074-6.389a72.618 72.618 0 0 1 24.813.903 28.762 28.762 0 0 1 10.882 4.643c6.379 4.454 8.98 10.856 9.521 18.403.397 5.533.008 10.881-2.194 16.044-2.471 5.794-6.973 8.923-13.039 9.669-7.952.978-15.965.142-22.449.404zm-2.904-8.905v-.029c6.493 0 12.987.055 19.48-.019a9.054 9.054 0 0 0 8.823-6.328 23.886 23.886 0 0 0 .798-11.925c-1.052-6.574-4.918-10.566-11.365-12.281-7.075-1.883-14.197-1.725-21.3-.601-8.219 1.302-13.447 6.158-15.797 14.169-1.461 4.978-1.845 10.093-2.311 15.214-.137 1.508.287 1.849 1.744 1.833 6.642-.076 13.285-.033 19.928-.033zm540.383 48.376a49.287 49.287 0 0 1-19.112-2.739c-8.509-3.185-13.681-9.481-16.379-18.044a86.57 86.57 0 0 1-2.761-14.35c-.717-5.191-.382-10.368-.289-15.5.11-6 1.028-11.957 2.73-17.712a34 34 0 0 1 4.976-9.996c4.022-5.754 9.706-8.724 16.333-10.263a73.07 73.07 0 0 1 21.769-1.316c6.975.49 13.802 1.892 19.72 6.115a26.225 26.225 0 0 1 7.582 8.515c2.728 4.754 3.858 9.949 4.711 15.253 1.353 8.41 1.151 16.831.542 25.304a49.943 49.943 0 0 1-4.956 19.456c-4.028 7.876-10.961 12.015-19.398 13.947a61.865 61.865 0 0 1-15.468 1.33zm28.576-44.89a73.76 73.76 0 0 0-1.848-18.878c-2.142-8.634-7.326-14.093-16.272-15.697a52.821 52.821 0 0 0-19.562.128c-8.494 1.646-13.704 6.891-15.525 15.054a85.25 85.25 0 0 0 .345 39.913 17.696 17.696 0 0 0 13.786 13.518 48.733 48.733 0 0 0 19.113.71c11.162-1.779 16.417-6.934 18.601-18.05a80.741 80.741 0 0 0 1.362-16.698zM802.59 284.168c-7.614.144-15.035-.722-22.031-4.019-7.441-3.508-11.37-9.723-13.929-17.237-3.475-10.203-2.704-20.7-2.694-31.171a52.273 52.273 0 0 1 4.345-20.475 25.428 25.428 0 0 1 7.259-9.991c5.037-4.15 10.966-5.723 17.161-6.56a71.641 71.641 0 0 1 26.11.972c11.36 2.662 18.192 9.987 21.257 21.108a67.913 67.913 0 0 1 2.064 11.325c.618 5.54.717 11.126.296 16.684-.207 2.386-.125 4.829-.242 7.218a41.306 41.306 0 0 1-1.702 7.881 33.834 33.834 0 0 1-5.578 12.574c-4.406 5.752-10.356 8.896-17.37 10.389a64.374 64.374 0 0 1-14.946 1.302zm-26.988-44.97c.201 6.874.298 13.613 2.186 20.125 2.157 7.438 6.787 12.432 14.585 14.116a50.727 50.727 0 0 0 18.677.559c10.457-1.631 15.794-6.214 18.044-16.434a84.221 84.221 0 0 0-.003-36.651c-2.295-10.331-7.967-15.098-18.489-16.552a55.974 55.974 0 0 0-14.939.02c-10.18 1.322-16.174 6.782-18.381 16.732-1.335 6.017-1.501 12.126-1.68 18.085zm414.518-42.846c-2.929 7.492-5.765 14.79-8.633 22.075q-12.308 31.265-24.635 62.523c-3.202 8.132-6.413 16.244-11.646 23.379a35.738 35.738 0 0 1-18.537 13.313c-.688.217-1.489.045-2.208.196-4.34.911-4.337.925-5.393-3.143-.833-3.206-.88-3.341 2.16-4.401a33.712 33.712 0 0 0 14.729-10.306c4.279-5.06 7.002-11.122 9.215-17.539a18.218 18.218 0 0 1-3.826-.525 4.921 4.921 0 0 1-3.114-3.17c-2.673-6.79-5.334-13.587-8.084-20.347-3.948-9.707-7.739-19.478-11.618-29.21-3.057-7.668-6.131-15.343-8.968-23.104a111.193 111.193 0 0 0-3.442-8.319c-.563-1.223-.183-1.43.909-1.426 3.286.011 6.571.006 9.856.003a1.665 1.665 0 0 1 1.858 1.401c1.03 5.078 3.499 9.651 5.103 14.531a90.135 90.135 0 0 0 4.622 11.882c1.588 3.21 2.339 6.698 3.92 9.934 1.078 2.208 1.654 4.956 2.583 7.391 3.846 10.07 7.748 20.116 11.179 30.338.118.51.45.945.91 1.195 2.753-.085 1.034.027 1.497-.049.381-.036 1.344-1.776 1.443-1.974.988-2.817.875-2.625.987-2.921.782-2.573 1.777-5.113 2.689-7.665.795-2.222 1.683-4.41 2.489-6.628.987-2.72 2.309-5.245 2.804-8.245.306-1.855 1.772-3.845 2.554-5.895 1.379-3.614 2.805-7.186 3.935-10.904 1.082-3.56 3.031-6.852 4.181-10.398.779-2.4 1.565-4.851 2.292-7.262.587-1.951 1.904-3.817 2.57-5.929.832-2.642 2.117-5.138 3.106-7.734.285-.749.609-1.081 1.406-1.076 3.639.022 7.278.009 11.107.009zm-514.057 13.795a101.381 101.381 0 0 1 15.95-10.095 50.892 50.892 0 0 1 26.59-5.912c7.048.394 13.137 2.908 16.958 9.207a22.724 22.724 0 0 1 3.269 11.83c.063 21.506.047 43.013.172 64.519.012 2.06-.583 2.51-2.474 2.373a54.127 54.127 0 0 0-6.941-.006c-1.504.085-1.874-.417-1.866-1.875.058-10.38.043-20.76.022-31.14-.02-10.23.005-20.461-.16-30.689a16.656 16.656 0 0 0-2.442-9.029c-2.982-4.537-7.575-5.543-12.594-5.506a40.635 40.635 0 0 0-16.774 4.116c-6.184 2.834-11.865 6.534-17.716 9.945-1.165.68-1.165 1.747-1.129 2.897.584 19.03.264 38.067.407 57.1.031 4.147.01 4.147-4.189 4.147-1.792 0-3.593-.106-5.375.032-1.52.118-1.87-.436-1.856-1.878.068-6.869.027-13.74.027-20.61-.001-20.313.026-40.625-.045-60.937-.006-1.842.392-2.564 2.301-2.315 1.266.092 2.537.102 3.805.031 3.469 0 3.439.001 3.57 3.579.124 3.39.322 6.777.49 10.216zm-162.449 73.991a58.054 58.054 0 0 1-20.174-2.693 24.788 24.788 0 0 1-14.403-12.411 43.215 43.215 0 0 1-4.045-12.922c-1.514-8.503-1.179-17.085-.956-25.663a49.308 49.308 0 0 1 4.495-20.208 25.145 25.145 0 0 1 16.058-13.69c9.113-2.687 18.393-2.823 27.797-2.066a85.153 85.153 0 0 1 16.087 2.76c1.425.397 2.248.817 1.418 2.556a11.027 11.027 0 0 0-.884 3.865c-.102 1.367-.963 1.795-1.92 1.534-3.987-1.088-8.1-.732-12.139-1.126a83.962 83.962 0 0 0-15.869.039 32.119 32.119 0 0 0-9.227 1.906c-7.508 3.057-11.317 9.013-12.947 16.69-1.624 7.642-1.487 15.384-1.26 23.104a50.252 50.252 0 0 0 1.825 12.249c2.41 8.475 7.797 13.794 16.637 15.363 7.612 1.35 15.264 1.036 22.922.652a74.597 74.597 0 0 0 12.606-1.433c1.193-.267 1.256.66 1.383 1.242.391 1.796.614 3.628.904 5.446.151.942-.499 1.091-1.191 1.252-2.498.579-4.976 1.258-7.489 1.758a89.577 89.577 0 0 1-19.628 1.796zm-189.57-45.201c0-11.739-.038-21.671.037-31.602.012-1.614-.296-2.193-2.049-2.124-3.878.15-7.768-.039-11.648.087-1.632.053-2.145-.506-1.905-2.014a4.42 4.42 0 0 0 .003-.671c-.014-5.453-.014-5.448 5.357-5.733a68.228 68.228 0 0 1 7.576-.37c2.435.143 2.712-.877 2.677-2.949-.122-7.092.018-14.188-.095-21.28-.028-1.745.506-2.136 2.125-2.042a64.16 64.16 0 0 0 7.166.001c1.556-.085 2.008.376 1.988 1.96-.088 7.018-.035 14.038-.039 21.058-.001 3.094-.006 3.094 3.197 3.094 7.992 0 15.983.03 23.974-.029 1.374-.01 2.016.224 1.884 1.786a32.762 32.762 0 0 0-.003 5.371c.126 1.572-.537 1.814-1.918 1.805-8.439-.055-16.879-.001-25.318-.052-1.514-.009-1.948.078-1.932 1.995.084 10.2.178 20.402-.029 30.607-.179 8.793-.001 17.608.444 26.392.26 5.147 4.448 8.61 9.666 8.747 4.925.129 9.854.148 14.781.169 1.187.005 1.933.119 1.974 1.654a14.65 14.65 0 0 0 .869 4.532c.817 2.253-.482 2.805-2.169 2.948-4.11.347-8.2.874-12.331 1.072-3.469.287-6.96.11-10.382-.528-8.138-1.771-12.63-7.695-13.466-15.471-1.079-10.038-.177-20.146-.434-28.413zm544.196-26.463c0-17.389.029-34.778-.042-52.167-.007-1.812.372-2.489 2.291-2.349 2.45.179 4.924.074 7.386.03 1.123-.019 1.694.35 1.565 1.55a14.627 14.627 0 0 0-.009 1.567l-.002 98.288c-.001 3.19.049 6.342 1.988 9.131a9.666 9.666 0 0 0 6.897 4.135c3.721.637 7.391.314 11.078.477.98.044 1.528.039 1.701 1.346.269 2.041.624 4.073.855 6.128.114 1.017-.246 1.123-1.091 1.416a27.135 27.135 0 0 1-7.56 1.167c-3.827.2-7.624.693-11.511-.334-5.716-1.51-9.725-4.699-11.908-10.157a23.372 23.372 0 0 1-1.662-8.957c.097-17.09.046-34.181.046-51.271h-.022z"/>
	</g>
</svg>
