<svg xmlns="http://www.w3.org/2000/svg" width="200" height="128">
    <path d="M33.07 87.92c-.35-.24-.38-.48 0-.78a5.3 5.3 0 001.64-5.32A6.16 6.16 0 0029.36 77c-3.12-.12-6.24-.08-9.36-.11-.42 0-.51.21-.51.58v20.92c0 .58.18.8.8.8h8.39a8.86 8.86 0 002.8-.49 6 6 0 004.11-4.89 5.59 5.59 0 00-2.52-5.89zm-9.93-7.16c0-.15.37-.35.57-.37h4.41a2.85 2.85 0 013 2.8 2.87 2.87 0 01-2.94 3h-4.31c-.71 0-.79-.15-.75-.86v-3a14.06 14.06 0 01.02-1.57zM29 95.66h-5.17c-.56 0-.73-.35-.73-.83v-4.62c0-.52.25-.67.71-.67h5a3.06 3.06 0 11.19 6.12zM119.81 55.84a15.37 15.37 0 00-.18-6.33 17.2 17.2 0 00-4.38-8.26 16.91 16.91 0 00-11.56-5.42c-2.49-.14-5-.06-7.47-.09a19.71 19.71 0 00-5 .58 17.19 17.19 0 00-8.22 4.8 17.94 17.94 0 00-4.87 10.49 12.56 12.56 0 001.34 7.58 13.24 13.24 0 0011.93 7.53c2.62.07 5.25 0 7.87 0h7.54a12.67 12.67 0 006.84-2 13.05 13.05 0 006.16-8.88zM105 64.71h-6c-2.69 0-5.37.1-8.05 0a10.83 10.83 0 01-7.24-3.21 11.17 11.17 0 01-3.47-7.77 14.7 14.7 0 011.11-6 15.07 15.07 0 013.93-5.78 14.33 14.33 0 016.44-3.5 20.65 20.65 0 014.14-.51c2.87-.05 5.75 0 8.62.1a12.48 12.48 0 015.48 1.74 14.81 14.81 0 016.94 7.69c1.8 4.53 1.85 9-1.3 13a10.59 10.59 0 01-6.91 4.08 27.88 27.88 0 01-3.69.16zM123.2 91.08c-.25-.42-.15-.65.26-.87a9 9 0 001.3-.84 6.82 6.82 0 002.08-7.72 6.71 6.71 0 00-6-4.67c-3-.19-6 0-9.08 0-.51 0-.58.3-.58.72v20.74c0 .56.21.81.78.8h2.3c.53 0 .71-.24.71-.73v-6.78c0-.49.17-.66.63-.65h3a1.23 1.23 0 01.83.45c.38.51 3.07 5.23 4.11 7a1.12 1.12 0 001.19.67c.78-.06 1.57 0 2.36 0 .19 0 .48 0 .55-.15s0-.4-.12-.57c-1.43-2.48-2.87-4.95-4.32-7.4zm-3-3.36h-4.65c-.47 0-.65-.21-.64-.67v-6.14c0-.4.15-.56.53-.56h4.89c1.92 0 3.18 1.63 3.18 3.68a3.37 3.37 0 01-3.27 3.69zM179.68 96.56c0-.84-.12-1-1-1h-8.11c-.62 0-.79-.24-.78-.83v-4.29c0-.67.17-.82.78-.82h7.42c.51 0 .75-.16.72-.7s0-1.38 0-2.06-.2-.76-.73-.75h-7.47c-.38 0-.74-.06-.74-.56 0-1.4 0-2.8.05-4.19 0-.91.07-1 1-1h8c.5 0 .67-.22.66-.7v-2.24c0-.46-.17-.62-.61-.62h-12.14c-.41 0-.58.15-.58.58v21.03c0 .45.1.78.66.78h12.09c.6 0 .82-.28.8-.85s-.04-1.19-.02-1.78zM157.25 88.17a41.38 41.38 0 00-4.66-1.91c-1-.4-2-.71-3-1.2a2.25 2.25 0 01-1.41-2.28 2.11 2.11 0 011.19-2.07 4.81 4.81 0 016.63 1.92c.26.49.5.49.9.25a14.24 14.24 0 011.89-1.09c.56-.23.58-.48.32-1a7.9 7.9 0 00-5.41-4A8.11 8.11 0 00147 78c-3.15 2.12-3.52 7.26-.2 9.51a20.83 20.83 0 005 2.14 17.81 17.81 0 013.55 1.54 2.37 2.37 0 01.23 3.74A4.6 4.6 0 01152 96c-2.24-.11-4-1-4.91-3.13-.16-.38-.44-.55-.82-.34-.76.44-1.52.9-2.24 1.4a.74.74 0 00-.21.66 7.9 7.9 0 005.78 4.71 16.56 16.56 0 004.56.09 6.35 6.35 0 005.9-6.43 5 5 0 00-2.81-4.79zM98.3 77c-2.75-.12-8.28 0-8.28 0-.49 0-.71.2-.71.73V98.4c0 .55.21.81.78.79h2.24c.55 0 .76-.27.76-.78v-6.14c0-.56.14-.76.69-.74a47.85 47.85 0 005.46-.1 7.37 7.37 0 005.74-7.12A7.28 7.28 0 0098.3 77zm-.68 11.14h-4c-.42 0-.63-.17-.62-.62V84.3v-3.27c0-.49.2-.64.65-.64h3.8a3.7 3.7 0 013.8 3.73 3.78 3.78 0 01-3.63 3.97zM82.78 76.91h-15c-.34 0-.54.11-.53.5v2.41c0 .35.09.62.51.62h4.88c.61 0 .89 0 .89.82v17.1c0 .42 0 .83.61.83h2.42c.54 0 .76-.29.75-.8v-10-7.09c0-.66.18-.82.82-.82h4.6c.59 0 .84-.25.81-.84a17 17 0 010-1.89c.07-.63-.16-.84-.76-.84zM106.39 34.15a2.83 2.83 0 002.72-2.73 2.79 2.79 0 00-2.66-2.68 2.85 2.85 0 00-2.8 2.65 2.77 2.77 0 002.74 2.76zM92.63 34.14a1.55 1.55 0 001.53-1.48 1.52 1.52 0 00-1.56-1.55 1.41 1.41 0 00-1.53 1.48 1.55 1.55 0 001.56 1.55z"/>
    <path d="M114.91 49.05a5.54 5.54 0 00-5.39-3.74H89.01a9.87 9.87 0 00-2.47.39A5.56 5.56 0 0083 51.51a5.64 5.64 0 005.38 4.8c6.88.09 13.76 0 20.63 0a6.81 6.81 0 003.42-.8 5.29 5.29 0 002.48-6.46zm-22.16 4.29A2.72 2.72 0 0190 50.58a2.6 2.6 0 012.72-2.52 2.65 2.65 0 012.63 2.61 2.77 2.77 0 01-2.6 2.67zm13.18 0a2.68 2.68 0 01-2.7-2.73 2.64 2.64 0 015.28 0 2.69 2.69 0 01-2.58 2.72zM103.17 59.41a5 5 0 01-2.26 1.28 6 6 0 01-3.83-.08 10.37 10.37 0 01-2-1.23.79.79 0 00-1.13 0c-.38.37-.2.68.07 1a5.77 5.77 0 004.93 2v.18a28.38 28.38 0 003.36-.81 6.52 6.52 0 001.87-1.29.71.71 0 00.06-1.12.69.69 0 00-1.07.07zM52.4 76.58A11.44 11.44 0 1063.83 88 11.45 11.45 0 0052.4 76.58zm0 19.42a7.94 7.94 0 117.93-8 7.94 7.94 0 01-7.93 8z"/>
    <rect x="133.82" y="76.91" width="3.68" height="22.28" rx=".68"/>
</svg>
