<svg xmlns="http://www.w3.org/2000/svg" height="151.267" width="707.56" xml:space="preserve">
	<path style="fill:#8ecef1;fill-opacity:1;fill-rule:nonzero;stroke:none" d="M529.832 1134.49v-124.78h124.777v124.78H529.832" transform="matrix(.13333 0 0 -.13333 0 151.267)"/>
	<path style="fill:#8ecef1;fill-opacity:1;fill-rule:nonzero;stroke:none" d="M529.832 986.648V861.859h124.777v124.789H529.832" transform="matrix(.13333 0 0 -.13333 0 151.267)"/>
	<path style="fill:#8ecef1;fill-opacity:1;fill-rule:nonzero;stroke:none" d="M677.676 986.648V861.859h124.789v124.789H677.676" transform="matrix(.13333 0 0 -.13333 0 151.267)"/>
	<path style="fill:#8ecef1;fill-opacity:1;fill-rule:nonzero;stroke:none" d="M529.832 839.484V714.711h124.777v124.773H529.832" transform="matrix(.13333 0 0 -.13333 0 151.267)"/>
	<path style="fill:#8ecef1;fill-opacity:1;fill-rule:nonzero;stroke:none" d="M677.676 839.484V714.711h124.789v124.773H677.676" transform="matrix(.13333 0 0 -.13333 0 151.267)"/>
	<path style="fill:#8ecef1;fill-opacity:1;fill-rule:nonzero;stroke:none" d="M529.785 692.32V567.547H654.57V692.32H529.785" transform="matrix(.13333 0 0 -.13333 0 151.267)"/>
	<path style="fill:#8ecef1;fill-opacity:1;fill-rule:nonzero;stroke:none" d="M677.652 692.32V567.547h124.786V692.32H677.652" transform="matrix(.13333 0 0 -.13333 0 151.267)"/>
	<path style="fill:#8ecef1;fill-opacity:1;fill-rule:nonzero;stroke:none" d="M825.531 839.484V714.711h124.774v124.773H825.531" transform="matrix(.13333 0 0 -.13333 0 151.267)"/>
	<path style="fill:#8ecef1;fill-opacity:1;fill-rule:nonzero;stroke:none" d="M825.531 692.32V567.547h124.774V692.32H825.531" transform="matrix(.13333 0 0 -.13333 0 151.267)"/>
	<path style="fill:#8ecef1;fill-opacity:1;fill-rule:nonzero;stroke:none" d="M381.867 1134.49v-124.78h124.789v124.78H381.867" transform="matrix(.13333 0 0 -.13333 0 151.267)"/>
	<path style="fill:#8ecef1;fill-opacity:1;fill-rule:nonzero;stroke:none" d="M381.867 986.648V861.859h124.789v124.789H381.867" transform="matrix(.13333 0 0 -.13333 0 151.267)"/>
	<path style="fill:#8ecef1;fill-opacity:1;fill-rule:nonzero;stroke:none" d="M234.027 986.648V861.859h124.774v124.789H234.027" transform="matrix(.13333 0 0 -.13333 0 151.267)"/>
	<path style="fill:#8ecef1;fill-opacity:1;fill-rule:nonzero;stroke:none" d="M381.867 839.484V714.711h124.789v124.773H381.867" transform="matrix(.13333 0 0 -.13333 0 151.267)"/>
	<path style="fill:#8ecef1;fill-opacity:1;fill-rule:nonzero;stroke:none" d="M234.027 839.484V714.711h124.774v124.773H234.027" transform="matrix(.13333 0 0 -.13333 0 151.267)"/>
	<path style="fill:#8ecef1;fill-opacity:1;fill-rule:nonzero;stroke:none" d="M381.918 692.32V567.547h124.773V692.32H381.918" transform="matrix(.13333 0 0 -.13333 0 151.267)"/>
	<path style="fill:#8ecef1;fill-opacity:1;fill-rule:nonzero;stroke:none" d="M234.051 692.32V567.547h124.773V692.32H234.051" transform="matrix(.13333 0 0 -.13333 0 151.267)"/>
	<path style="fill:#8ecef1;fill-opacity:1;fill-rule:nonzero;stroke:none" d="M86.172 839.484V714.711h124.785v124.773H86.172" transform="matrix(.13333 0 0 -.13333 0 151.267)"/>
	<path style="fill:#8ecef1;fill-opacity:1;fill-rule:nonzero;stroke:none" d="M86.172 692.32V567.547h124.785V692.32H86.172" transform="matrix(.13333 0 0 -.13333 0 151.267)"/>
	<path style="fill:#427abe;fill-opacity:1;fill-rule:nonzero;stroke:none" d="M1473.72 299.113c.76-38.508 5.58-70.07 14.44-94.703 8.84-24.648 20.39-44.277 34.64-58.894 14.24-14.637 30.61-24.645 49.09-30.028 18.47-5.398 37.71-8.078 57.74-8.078 21.55 0 41.57 3.84 60.05 11.539 18.48 7.692 34.65 19.817 48.5 36.383 13.87 16.547 24.64 38.293 32.34 65.25 7.69 26.941 11.55 60.051 11.55 99.32 0 37.707-4.04 69.868-12.13 96.426-8.08 26.563-18.67 48.11-31.76 64.676-13.09 16.547-28.69 28.672-46.77 36.375-18.09 7.687-36.77 11.547-56.01 11.547-28.49 0-52.94-4.617-73.33-13.856-20.41-9.234-37.15-22.34-50.24-39.265-13.1-16.942-22.71-37.157-28.87-60.629-6.17-23.496-9.24-49.477-9.24-77.953v-28.875zm1.16 543.938V540.48c23.85 31.559 51.39 55.614 82.57 72.176 31.18 16.551 67.56 24.832 109.13 24.832 43.11 0 80.45-7.703 112.02-23.097 31.57-15.411 57.75-36.957 78.54-64.672 20.78-27.719 36.38-61.028 46.77-99.899 10.39-38.886 15.59-81.812 15.59-128.761 0-49.282-6.17-93.75-18.48-133.391-12.32-39.664-30.02-73.34-53.12-101.047-23.1-27.723-50.82-49.082-83.15-64.101C1732.41 7.512 1696.22 0 1656.19 0c-36.19 0-69.69 6.93-100.47 20.79-30.8 13.85-58.9 36.948-84.31 69.288V18.481h-127.03v824.57h130.5" transform="matrix(.13333 0 0 -.13333 0 151.267)"/>
	<path style="fill:#427abe;fill-opacity:1;fill-rule:nonzero;stroke:none" d="M2255.55 106.25c55.44 0 96.04 19.051 121.84 57.164 25.78 38.109 38.69 90.258 38.69 156.488 0 65.426-12.91 117.016-38.69 154.75-25.8 37.715-66.4 56.59-121.84 56.59-55.43 0-96.05-19.058-121.84-57.168-25.8-38.109-38.69-89.504-38.69-154.172 0-65.453 12.51-117.418 37.54-155.91 25.01-38.504 66.01-57.742 122.99-57.742zM2254.4 0c-93.94 0-166.7 27.719-218.27 83.148-51.59 55.434-77.37 133.969-77.37 235.598 0 47.727 6.72 91.231 20.2 130.496 13.46 39.266 32.92 72.758 58.33 100.477 25.4 27.715 56.58 49.261 93.54 64.672 36.95 15.394 78.91 23.097 125.88 23.097 47.73 0 90.08-7.906 127.04-23.675 36.95-15.79 67.93-37.532 92.96-65.25 25.01-27.719 43.88-61.028 56.59-99.899 12.7-38.887 19.05-81.414 19.05-127.605 0-52.368-7.32-98.368-21.94-138.008-14.63-39.668-35.22-73.16-61.78-100.473-26.57-27.348-57.94-47.937-94.13-61.789C2338.31 6.93 2298.28 0 2254.4 0" transform="matrix(.13333 0 0 -.13333 0 151.267)"/>
	<path style="fill:#427abe;fill-opacity:1;fill-rule:nonzero;stroke:none" d="M2523.48 619.008h154.75l122.42-191.703 131.65 191.703h137.43l-195.17-282.942L3088.2 18.481h-152.43l-143.2 219.421-145.52-219.421h-143.21l218.28 311.812-198.64 288.715" transform="matrix(.13333 0 0 -.13333 0 151.267)"/>
	<path style="fill:#2a4f83;fill-opacity:1;fill-rule:nonzero;stroke:none" d="M3245.26 299.113c.75-38.508 5.58-70.07 14.44-94.703 8.84-24.648 20.38-44.277 34.64-58.894 14.23-14.637 30.6-24.645 49.08-30.028 18.49-5.398 37.71-8.078 57.74-8.078 21.55 0 41.58 3.84 60.06 11.539 18.47 7.692 34.64 19.817 48.51 36.383 13.85 16.547 24.62 38.293 32.33 65.25 7.69 26.941 11.54 60.051 11.54 99.32 0 37.707-4.03 69.868-12.11 96.426-8.1 26.563-18.68 48.11-31.76 64.676-13.11 16.547-28.7 28.672-46.79 36.375-18.09 7.687-36.76 11.547-56 11.547-28.49 0-52.95-4.617-73.33-13.856-20.41-9.234-37.16-22.34-50.25-39.265-13.09-16.942-22.71-37.157-28.86-60.629-6.18-23.496-9.24-49.477-9.24-77.953v-28.875zm1.15 543.938V540.48c23.86 31.559 51.39 55.614 82.58 72.176 31.18 16.551 67.56 24.832 109.14 24.832 43.1 0 80.43-7.703 112.01-23.097 31.57-15.411 57.75-36.957 78.53-64.672 20.8-27.719 36.38-61.028 46.77-99.899 10.4-38.886 15.59-81.812 15.59-128.761 0-49.282-6.17-93.75-18.47-133.391-12.33-39.664-30.02-73.34-53.13-101.047-23.09-27.723-50.81-49.082-83.15-64.101C3503.95 7.512 3467.75 0 3427.72 0c-36.19 0-69.68 6.93-100.47 20.79-30.8 13.85-58.9 36.948-84.3 69.288V18.481h-127.04v824.57h130.5" transform="matrix(.13333 0 0 -.13333 0 151.267)"/>
	<path style="fill:#2a4f83;fill-opacity:1;fill-rule:nonzero;stroke:none" d="M4027.09 106.25c55.44 0 96.03 19.051 121.84 57.164 25.79 38.109 38.68 90.258 38.68 156.488 0 65.426-12.89 117.016-38.68 154.75-25.81 37.715-66.4 56.59-121.84 56.59s-96.06-19.058-121.84-57.168c-25.8-38.109-38.68-89.504-38.68-154.172 0-65.453 12.5-117.418 37.53-155.91 25-38.504 66.01-57.742 122.99-57.742zM4025.94 0c-93.95 0-166.7 27.719-218.27 83.148-51.6 55.434-77.38 133.969-77.38 235.598 0 47.727 6.74 91.231 20.22 130.496 13.45 39.266 32.91 72.758 58.31 100.477 25.4 27.715 56.59 49.261 93.54 64.672 36.96 15.394 78.91 23.097 125.89 23.097 47.73 0 90.07-7.906 127.03-23.675 36.95-15.79 67.93-37.532 92.97-65.25 25-27.719 43.88-61.028 56.58-99.899 12.71-38.887 19.06-81.414 19.06-127.605 0-52.368-7.33-98.368-21.94-138.008-14.63-39.668-35.22-73.16-61.79-100.473-26.56-27.348-57.94-47.937-94.11-61.789C4109.84 6.93 4069.83 0 4025.94 0" transform="matrix(.13333 0 0 -.13333 0 151.267)"/>
	<path style="fill:#2a4f83;fill-opacity:1;fill-rule:nonzero;stroke:none" d="M4673.81 299.113c-39.27-2.308-71.03-6.55-95.28-12.703-24.24-6.176-42.92-14.055-56-23.676-13.11-9.64-21.77-20.789-25.99-33.492-4.24-12.699-6.36-26.383-6.36-40.996 0-26.187 8.27-46.594 24.84-61.207 16.55-14.641 40.99-21.949 73.34-21.949 57.74 0 100.46 14.621 128.19 43.89 27.71 29.25 41.57 68.891 41.57 118.95v34.644zm86.61-202.101c-22.33-26.961-49.65-49.282-81.99-66.98-32.33-17.712-71.6-26.563-117.8-26.563-28.49 0-55.05 3.66-79.68 10.972-24.65 7.297-46.02 18.278-64.09 32.91-18.1 14.618-32.35 33.29-42.74 56.008-10.39 22.7-15.58 49.461-15.58 80.27 0 41.57 9.24 75.238 27.71 101.051 18.48 25.785 42.53 45.992 72.17 60.625 29.64 14.617 62.95 24.832 99.9 30.605a985.315 985.315 0 0 0 110.87 10.969l88.93 4.625v25.402c0 45.422-10.97 76.797-32.92 94.125-21.94 17.321-50.63 25.985-86.04 25.985-40.81 0-71.02-6.934-90.65-20.789-19.64-13.856-32.53-33.887-38.68-60.055l-120.11 12.707c10.76 58.5 37.33 101.226 79.68 128.184 42.33 26.949 100.48 40.425 174.39 40.425 47.72 0 87.18-6.172 118.37-18.48 31.18-12.324 56.01-29.266 74.48-50.809 18.49-21.57 31.38-47.172 38.69-76.804 7.32-29.645 10.98-62.184 10.98-97.582V18.481h-125.89v78.53" transform="matrix(.13333 0 0 -.13333 0 151.267)"/>
	<path style="fill:#2a4f83;fill-opacity:1;fill-rule:nonzero;stroke:none" d="M4914.01 515.07v103.938h94.7v161.683h130.49V619.008h148.99V515.07H5139.2V200.945c0-30.797 6.36-53.121 19.06-66.984 12.7-13.852 31.36-20.781 56.01-20.781 13.09 0 25.6.75 37.54 2.308a185.69 185.69 0 0 1 35.23 8.082l19.63-98.16c-36.96-12.308-77-18.48-120.11-18.48-66.23 0-112.42 17.129-138.59 51.39-26.18 34.25-39.26 85.641-39.26 154.172V515.07h-94.7" transform="matrix(.13333 0 0 -.13333 0 151.267)"/>
	<path style="fill:#8ecef1;fill-opacity:1;fill-rule:nonzero;stroke:none" d="M317.879 143.918c7.652 0 15.156-2.508 20.953-7.773 5.231-3.934 9.148-9.165 11.766-15.696 19.617-22.238 41.847-35.3 66.683-35.3 27.465 0 51 15.691 71.918 41.831 6.953 10.942 17.688 15.825 28.754 15.825 3.496 0 7.027-.489 10.481-1.426 7.847-2.633 15.683-6.535 20.918-14.399 20.918-27.46 45.765-41.832 71.918-41.832 27.449 0 50.996 15.692 71.918 41.832 6.953 10.942 17.679 15.825 28.742 15.825 3.492 0 7.023-.489 10.476-1.426 7.848-2.633 15.696-6.535 20.93-14.399 20.918-27.46 45.769-41.832 71.918-41.832 27.453 0 50.984 15.692 71.902 41.832 7.032 10.149 18.711 15.637 30.047 15.637 7.656 0 15.156-2.504 20.953-7.773 17-10.465 20.918-35.324 7.848-49.696-32.684-45.77-79.766-71.937-128.145-71.937-37.918 0-71.91 14.398-101.988 40.539-28.766-26.14-62.766-40.54-100.683-40.54-37.918 0-71.918 14.4-101.989 40.54-27.465-26.14-62.765-40.54-100.683-40.54-37.918 0-71.918 14.4-101.985 40.54-28.769-26.14-64.07-40.54-100.683-40.54-51 0-96.77 27.47-132.067 71.938-11.77 16.993-10.457 39.231 3.914 48.372 7.89 6.761 16.512 9.878 24.707 9.878 10.825 0 20.911-5.441 27.61-15.117 20.918-27.441 44.449-41.832 71.902-41.832 27.469 0 51 15.692 71.918 41.832 7.031 10.149 18.711 15.641 30.047 15.637" transform="matrix(.13333 0 0 -.13333 0 151.267)"/>
	<path style="fill:#427abe;fill-opacity:1;fill-rule:nonzero;stroke:none" d="M215.914 113.422c16.981 0 33.465 10.18 50.383 31.117 11.879 16.52 31.082 26.352 51.582 26.352 14.269 0 27.758-4.938 38.129-13.934 7.351-5.75 13.195-12.98 17.422-21.547 14.64-15.672 29.015-23.301 43.855-23.301 16.887 0 33.274 10.071 50.094 30.778 11.508 17.113 29.851 26.886 50.578 26.886.184 0 .363-.074.555-.078v601.977c-12.848.137-25.711-2.406-37.879-7.82L207.48 642.449 20.106 558c-15.84-6.594-23.75-25.07-18.481-42.227L192.09 119.801c9.426-5.262 17.578-6.379 23.824-6.379" transform="matrix(.13333 0 0 -.13333 0 151.267)"/>
	<path style="fill:#2a4f83;fill-opacity:1;fill-rule:nonzero;stroke:none" d="m1016.48 558-187.371 84.449-273.148 121.403c-12.172 5.414-25.031 7.957-37.879 7.82V169.754a66.982 66.982 0 0 0 17.414-2.348l1.5-.453c5.676-1.894 22.762-7.617 34.227-24.168 10.871-14.125 28.261-30.676 50.043-30.676 16.882 0 33.281 10.071 50.097 30.778 11.512 17.113 29.852 26.886 50.567 26.886 5.855 0 11.758-.8 17.543-2.367l1.492-.453c5.683-1.902 22.785-7.625 34.234-24.168 10.879-14.125 28.27-30.676 50.055-30.676 5.902 0 11.734 1.7 17.559 4.192l192.157 399.472c5.27 17.157-2.64 35.633-18.49 42.227" transform="matrix(.13333 0 0 -.13333 0 151.267)"/>
</svg>
