<svg width="282" height="76" fill="none" xmlns="http://www.w3.org/2000/svg">
	<path d="M19.957 16.48 33.99 8.315c.844-.492 1.902.123 1.902 1.105v37.3a.423.423 0 0 1-.635.37l-15.3-8.903A1.926 1.926 0 0 1 19 36.522V18.146c0-.688.364-1.324.957-1.667Z" fill="#3E3E3E"/>
	<path d="m53.651 37.163-14.37-8.358c-.844-.493-1.902.123-1.902 1.105v17.488c-.036.523-.244.922-.658 1.22l-.82.477a.54.54 0 0 1-.078.024l.063-.018-14.242 8.287c-.843.492-.843 1.72 0 2.21l14.364 8.355c.393.229.876.229 1.267 0l14.686-8.541a4.69 4.69 0 0 0 2.325-4.055V38.268c0-.456-.245-.877-.635-1.105Z" fill="#3E3E3E"/>
	<g clip-path="url(#a)" fill="#3E3E3E">
		<path d="M132.899 20.296a2.227 2.227 0 0 0-2.226 2.226v30.102a2.227 2.227 0 0 0 4.452 0V22.522a2.227 2.227 0 0 0-2.226-2.226Z"/>
		<path d="M150.094 24.754h7.244a2.227 2.227 0 0 0 0-4.452h-7.244c-4.525 0-8.205 3.832-8.205 8.54v17.274c0 4.714 3.68 8.54 8.205 8.54h7.244a2.227 2.227 0 0 0 0-4.453h-7.244c-2.068 0-3.747-1.83-3.747-4.087V28.842c0-2.257 1.679-4.088 3.747-4.088Z"/>
		<path d="M260.539 50.197h-7.244c-2.068 0-3.747-1.83-3.747-4.087V28.836c0-2.25 1.679-4.088 3.747-4.088h7.244a2.227 2.227 0 0 0 0-4.452h-7.244c-4.525 0-8.205 3.832-8.205 8.54V46.11c0 4.714 3.68 8.54 8.205 8.54h7.244a2.227 2.227 0 0 0 2.226-2.226 2.22 2.22 0 0 0-2.226-2.227Z"/>
		<path d="M229.129 19.688c-5.693 0-10.328 4.634-10.328 10.328v14.962c0 5.694 4.635 10.328 10.328 10.328 5.694 0 10.328-4.634 10.328-10.328V30.015c0-5.693-4.634-10.328-10.328-10.328Zm5.87 25.296a5.879 5.879 0 0 1-5.876 5.87 5.877 5.877 0 0 1-5.869-5.87V30.022a5.876 5.876 0 0 1 5.869-5.87c3.236 0 5.876 2.634 5.876 5.87v14.962Z"/>
		<path d="m178.937 34.918-3.291 3.631 6.405 14.89a2.232 2.232 0 0 0 2.932 1.168 2.227 2.227 0 0 0 1.168-2.926l-7.214-16.763Z"/>
		<path d="M185.609 20.892a2.224 2.224 0 0 0-3.15.122l-12.767 13.8V22.523a2.228 2.228 0 0 0-4.453 0v30.102a2.227 2.227 0 0 0 4.453 0V41.372l16.039-17.335c.833-.9.779-2.312-.122-3.145Z"/>
		<path d="M202.561 20.296h-8.406a2.227 2.227 0 0 0-2.226 2.226v30.102c0 1.229.998 2.226 2.226 2.226h8.406c5.864 0 10.638-4.768 10.638-10.638V30.934c-.006-5.87-4.774-10.638-10.638-10.638Zm6.18 23.922a6.189 6.189 0 0 1-6.18 6.18h-6.18V24.754h6.18a6.189 6.189 0 0 1 6.18 6.18v13.284Z"/>
		<path d="M92.986 35.66a8.866 8.866 0 0 0 2.804-6.465c0-4.909-3.99-8.899-8.893-8.899h-8.546a2.227 2.227 0 0 0-2.226 2.226v30.151c0 1.229.998 2.226 2.226 2.226h8.406c5.864 0 10.638-4.769 10.638-10.638 0-3.534-1.745-6.667-4.41-8.6ZM80.583 24.754h6.314a4.445 4.445 0 0 1 4.44 4.44 4.445 4.445 0 0 1-4.44 4.44h-6.314v-8.88Zm6.18 25.693h-6.18V38.093h6.18a6.189 6.189 0 0 1 6.18 6.18c-.006 3.4-2.774 6.174-6.18 6.174Z"/>
		<path d="M124.316 30.934c0-5.87-4.774-10.638-10.638-10.638h-8.406a2.227 2.227 0 0 0-2.226 2.226V39.34l.036 13.284a2.228 2.228 0 0 0 4.453 0V41.566h6.143c.146 0 .286-.018.426-.024l5.936 12.347a2.232 2.232 0 0 0 2.975 1.047 2.23 2.23 0 0 0 1.04-2.975l-5.56-11.563c3.449-1.757 5.821-5.334 5.821-9.464Zm-10.638 6.18h-6.143v-12.36h6.143a6.189 6.189 0 0 1 6.18 6.18 6.189 6.189 0 0 1-6.18 6.18Z"/>
	</g>
	<defs>
		<clipPath id="a">
			<path fill="#fff" transform="translate(76.125 19.688)" d="M0 0h186.647v35.625H0z"/>
		</clipPath>
	</defs>
</svg>
