<svg xmlns="http://www.w3.org/2000/svg" xmlns:xlink="http://www.w3.org/1999/xlink" viewBox="-10.37 -10.37 539.24 119.74">
	<defs>
		<path id="a" d="M.001.664h55.483v76.744H.001z"/>
		<path id="c" d="M.466.021h55.686V78H.466z"/>
	</defs>
	<g fill="none" fill-rule="evenodd">
		<path fill="#662EFF" d="M361.005 26.814c-4.74 4.271-7.245 10.528-7.245 18.092v32.157h12.504V44.906c0-3.958 1.036-6.917 3.078-8.795 2.246-2.064 6.81-2.918 11.45-2.522l6.92-11.796-6.985-.43c-8.029-.83-14.848 1.056-19.722 5.451"/>
		<path fill="#052882" d="M68.47 26.814c-4.74 4.271-7.244 10.528-7.244 18.092v32.157H73.73V44.906c0-3.958 1.036-6.917 3.078-8.795 2.246-2.064 6.81-2.918 11.448-2.522l6.922-11.796-6.985-.43c-8.03-.83-14.848 1.056-19.722 5.451"/>
		<path fill="#052882" d="M99.867 77.063h12.503V22.225H99.867z"/>
		<path fill="#662EFF" d="M506.415 23.036v32.26c0 5.468-3.146 9.286-8.666 9.286-5.468 0-8.578-3.818-8.578-9.286v-32.26h-12.379v32.26c0 5.468-3.146 9.286-8.665 9.286-5.555 0-8.579-3.732-8.579-9.286v-32.26h-12.465v32.26c0 12.401 8.643 21.753 21.044 21.753 6.049 0 10.903-2.305 14.84-6.384 3.962 4.08 8.796 6.384 14.782 6.384 12.604 0 21.044-9.148 21.044-21.753v-32.26h-12.378z"/>
		<g transform="translate(0 -.664)">
			<mask id="b" fill="#fff">
				<use xlink:href="#a"/>
			</mask>
			<path fill="#052882" d="M27.742 21.924a27.746 27.746 0 0 0-15.239 4.566V.664H.001v44.122c0 7.663.768 14.623 5.356 21.017 3.917 5.457 9.753 9.437 16.317 10.929a27.253 27.253 0 0 0 6.069.676c15.297 0 27.742-12.445 27.742-27.742S43.04 21.924 27.743 21.924m15.402 27.742c0 8.493-6.91 15.402-15.403 15.402S12.34 58.159 12.34 49.666c0-8.493 6.91-15.402 15.403-15.402s15.402 6.909 15.402 15.402" mask="url(#b)"/>
		</g>
		<path fill="#052882" d="M160.931 25.826a27.745 27.745 0 0 0-15.238-4.566c-15.298 0-27.743 12.445-27.743 27.742s12.445 27.742 27.742 27.742c13.48 0 27.101-11.025 27.42-25 .232-10.262.1-20.557.173-30.825L173.435 0H160.93v25.826zm.164 23.176c0 8.493-6.91 15.402-15.402 15.402-8.493 0-15.403-6.909-15.403-15.402 0-8.493 6.91-15.402 15.403-15.402 8.492 0 15.402 6.91 15.402 15.402z"/>
		<g transform="translate(178 21.336)">
			<mask id="d" fill="#fff">
				<use xlink:href="#c"/>
			</mask>
			<path fill="#052882" d="M56.052 27.298a39.921 39.921 0 0 0-.229-2.544C54.12 10.964 42.408.12 28.406.022h-.198C12.911.021.466 12.465.466 27.762s12.445 27.742 27.742 27.742c5.495 0 10.855-1.64 15.392-4.667-.307 8.225-7.093 14.822-15.392 14.822-5.194 0-10.008-2.604-12.874-6.967l-1.118-1.7-8.953 8.91.882 1.157C11.445 74.012 19.486 78 28.208 78c13.802 0 25.67-10.796 27.537-24.374.562-4.085.205-8.373.205-12.49 0-4.503.375-9.274.102-13.838m-12.442.465c0 8.493-6.909 15.402-15.402 15.402-8.493 0-15.402-6.909-15.402-15.402 0-8.493 6.91-15.402 15.402-15.402 8.493 0 15.402 6.91 15.402 15.402" mask="url(#d)"/>
		</g>
		<path fill="#662EFF" d="M338.01 61.218a15.237 15.237 0 0 1-9.364 3.186c-8.493 0-15.403-6.909-15.403-15.402 0-8.493 6.91-15.402 15.403-15.402 3.033 0 5.933.883 8.438 2.536l1.87 1.367 8.745-8.745-1.41-1.164a27.787 27.787 0 0 0-17.643-6.334c-15.298 0-27.743 12.445-27.743 27.742s12.445 27.742 27.743 27.742c6.429 0 12.697-2.25 17.65-6.338.05-.042.1-.086.15-.13l1.449-1.218-8.728-8.728-1.156.888z"/>
		<path fill="#052882" d="M257.586 22.933c-14.375 5.232-21.813 21.183-16.581 35.558 5.232 14.374 21.183 21.812 35.558 16.58a27.797 27.797 0 0 0 14.286-11.775c-.604-.735-10.217-5.218-10.951-5.779a15.245 15.245 0 0 1-7.556 5.958c-5.606 2.041-11.925.578-16.102-3.533l26.39-9.605.004.032 12.052-4.387-.217-1.355a27.935 27.935 0 0 0-1.326-5.113c-5.232-14.375-21.183-21.813-35.557-16.581zm-5.9 25.361a15.405 15.405 0 0 1 26.721-9.726l-26.721 9.726z"/>
		<path fill="#662EFF" d="M403.409 22.933c-14.375 5.232-21.813 21.183-16.581 35.558 5.232 14.374 21.183 21.812 35.558 16.58a27.797 27.797 0 0 0 14.286-11.775c-.604-.735-10.217-5.218-10.951-5.779a15.245 15.245 0 0 1-7.556 5.958c-5.606 2.041-11.925.578-16.102-3.533l26.39-9.605.004.032 12.052-4.387-.217-1.355a27.935 27.935 0 0 0-1.326-5.113c-5.232-14.375-21.183-21.813-35.557-16.581zm-5.9 25.361a15.403 15.403 0 0 1 10.12-13.765 15.404 15.404 0 0 1 16.6 4.039l-26.72 9.726z"/>
		<path fill="#052882" d="M100.416 15.462s0 1 1 1h10.503s1 0 1-1V4.96s0-1-1-1l-11.503 11.503z"/>
	</g>
</svg>
