<svg xmlns="http://www.w3.org/2000/svg" width="200" height="128">
	<path d="M129.522 19a2.661 2.661 0 0 0 .494.255c2.671.758 3.863 2.148 3.925 4.913.077 3.39.118 6.786-.031 10.17-.054 1.221-1 2.416-1 3.623s.941 2.4 1 3.622c.153 3.288.1 6.589.041 9.883-.058 3.457-1.927 5.261-5.4 5.269-7.355.017-14.71.006-22.065.006h-1.591c-.356 5.43.859 10.819-.95 16.367 1.036 1.066.974 2.8.966 4.529-.019 3.668-.006 7.336-.006 11.114h11.275V77.172c.006-4.2 1.725-5.909 5.925-5.913 2.149 0 4.3-.027 6.447.007 3.437.055 5.344 1.905 5.4 5.312.055 3.246.117 6.5-.04 9.74-.062 1.27-1.008 2.512-1.008 3.767s.937 2.491 1.008 3.761c.164 2.951.056 5.919.054 8.88 0 3.769-.723 4.853-4.158 6.274h-9.172c-.484-.179-.974-.344-1.452-.539-2.2-.9-3-2.667-3-4.9-.009-3.907 0-7.815 0-11.893-.441-.021-.991-.07-1.542-.07q-10.821-.013-21.642-.01c-4.082 0-5.837-1.771-5.841-5.851 0-3.008-.114-6.024.052-9.023.074-1.318 1.02-2.6 1.021-3.905s-.953-2.581-1.02-3.894c-.163-3.192-.068-6.4-.049-9.6.022-3.511 1.891-5.346 5.436-5.349q11.1-.011 22.207 0h1.37c0-4.112-.062-8.066.039-12.016a19.837 19.837 0 0 1 .793-3.418A3.129 3.129 0 0 0 117 37.28a21.484 21.484 0 0 1-.783-3.422c-.116-2.86-.04-5.729-.038-8.595 0-3.754.741-4.863 4.171-6.263zm1.686 10.2c0-1.672.033-3.345-.01-5.015-.039-1.525-.7-2.262-2.167-2.294-2.626-.059-5.254-.041-7.881-.009a1.951 1.951 0 0 0-2.172 2q-.09 5.371 0 10.746c.023 1.271.738 1.95 2.145 1.912 2.578-.07 5.158-.016 7.738-.021 1.727 0 2.3-.543 2.338-2.3.04-1.673.01-3.345.009-5.019zm-12.267 17.413c0 1.717-.041 3.436.013 5.151a1.953 1.953 0 0 0 2.127 2.176c2.622.06 5.247.057 7.87.008a2.012 2.012 0 0 0 2.234-2.236q.07-5.151 0-10.3c-.02-1.479-.671-2.044-2.145-2.053a829.262 829.262 0 0 0-7.727 0c-1.838 0-2.343.5-2.372 2.394-.02 1.616 0 3.238 0 4.86zm0 52.067c0 1.668-.024 3.337.007 5 .031 1.685.69 2.4 2.318 2.433q3.787.068 7.577 0c1.575-.026 2.329-.732 2.349-2.268q.067-5.147 0-10.294c-.021-1.47-.677-2.036-2.159-2.034-2.621 0-5.242.041-7.863.068-1.687.018-2.185.5-2.219 2.228-.035 1.626-.01 3.247-.01 4.867zm0-17.289c0 1.669-.032 3.339.009 5.007.04 1.642.667 2.241 2.265 2.247q3.862.017 7.726 0c1.629 0 2.225-.491 2.248-2.07q.075-5.149 0-10.3a1.983 1.983 0 0 0-2.232-2.223q-3.861-.076-7.725 0c-1.541.028-2.247.775-2.283 2.335-.037 1.665-.007 3.335-.007 5.004zM89.95 64.023c0 1.718-.026 3.437.008 5.155.031 1.583.632 2.184 2.162 2.194q3.938.027 7.875 0c1.526-.01 2.106-.517 2.127-2.052q.072-5.224 0-10.452c-.017-1.474-.652-2.087-2.128-2.11a269.243 269.243 0 0 0-7.731-.005c-1.651.021-2.294.715-2.313 2.4-.015 1.625 0 3.247 0 4.87zm12.195 17.514h-.016c0-1.813.031-3.626-.011-5.438a1.713 1.713 0 0 0-1.984-1.886c-2.623.042-5.248.007-7.872.014-1.738 0-2.3.539-2.306 2.306q-.033 4.938 0 9.877c.009 1.682.638 2.39 2.3 2.428q3.791.089 7.586 0c1.653-.037 2.267-.731 2.3-2.436.026-1.62.003-3.243.003-4.865zM29.49 60.274c1.691-3.486 3.409-4.409 7.106-3.727v8.26h12c.034.641.08 1.1.08 1.563q.007 8.655 0 17.309c-.005 3.624-1.821 5.424-5.465 5.45l-13.722.094zm7.22 11.712v10.031h4.79V71.986zm133.8 30.422c-1.022 3.1-3.227 4.215-6.387 4.042-2.564-.14-5.142-.028-7.811-.028v-7.073h5.855c-.948-1.612-1.733-2.951-2.521-4.287-.873-1.48-1.673-3.01-2.644-4.422a5.811 5.811 0 0 1-.57-4.936c.551-2.3 2.318-3.507 4.92-3.548 3.052-.048 6.1-.067 9.158-.1v7.166h-6.122c2.181 3.575 4.151 6.8 6.122 10.032zm-115.5-30.33c-.436-.069-.663-.126-.893-.137-2.759-.136-2.759-.134-2.759-2.967v-4c.4-.054.627-.1.856-.113 2.766-.116 2.9-.123 2.739-2.809-.211-3.588 2.063-5.977 5.958-5.728.906.058 1.129.386 1.123 1.2-.016 2.288.021 4.577.044 6.866 0 .086.072.171.185.424h3.226v7.116h-3.464v17.085H55.01zm26.89-.148h-3.985V89h-7.047c-.027-.448-.08-.905-.08-1.363q-.009-8.731 0-17.464c0-3.476 1.817-5.294 5.277-5.309 1.9-.009 3.8 0 5.836 0zm70.371 8.889c-1.1 0-2.1-.055-3.089.029-.357.031-.685.4-1.026.61.324.23.633.63.974.659 1.03.087 2.072.031 3.183.031v7.028h-4.1V106.3h-7.146v-1.5c0-8.449.07-16.9-.035-25.347-.04-3.226 1.818-6.014 5.683-5.727 1.8.134 3.621.023 5.552.023z"/>
</svg>
