<svg xmlns="http://www.w3.org/2000/svg" width="200" height="128">
	<defs>
		<mask id="a" x="20" y="38.276" width="45.603" height="51.403" maskUnits="userSpaceOnUse">
			<path d="M40.776 38.819a4.049 4.049 0 0 1 4.051 0l18.751 10.825a4.052 4.052 0 0 1 2.022 3.508V74.8a4.052 4.052 0 0 1-2.025 3.508L44.827 89.136a4.049 4.049 0 0 1-4.051 0L22.025 78.311A4.052 4.052 0 0 1 20 74.8V53.152a4.052 4.052 0 0 1 2.025-3.508z" fill="#fff" fill-rule="evenodd"/>
		</mask>
		<mask id="b" x="20" y="38.276" width="45.603" height="52.029" maskUnits="userSpaceOnUse">
			<path d="M40.776 38.819a4.049 4.049 0 0 1 4.051 0l18.751 10.825a4.052 4.052 0 0 1 2.022 3.508V74.8a4.052 4.052 0 0 1-2.025 3.508L44.827 89.136a4.049 4.049 0 0 1-4.051 0L22.025 78.311A4.052 4.052 0 0 1 20 74.8V53.152a4.052 4.052 0 0 1 2.025-3.508z" fill="#fff" fill-rule="evenodd"/>
		</mask>
		<mask id="c" x="20" y="37.65" width="45.603" height="52.029" maskUnits="userSpaceOnUse">
			<path d="M40.776 38.819a4.049 4.049 0 0 1 4.051 0l18.751 10.825a4.052 4.052 0 0 1 2.022 3.508V74.8a4.052 4.052 0 0 1-2.025 3.508L44.827 89.136a4.049 4.049 0 0 1-4.051 0L22.025 78.311A4.052 4.052 0 0 1 20 74.8V53.152a4.052 4.052 0 0 1 2.025-3.508z" fill="#fff" fill-rule="evenodd"/>
		</mask>
		<mask id="d" x="20" y="38.276" width="45.603" height="52.074" maskUnits="userSpaceOnUse">
			<path d="M40.776 38.819a4.049 4.049 0 0 1 4.051 0l18.751 10.825a4.052 4.052 0 0 1 2.022 3.508V74.8a4.052 4.052 0 0 1-2.025 3.508L44.827 89.136a4.049 4.049 0 0 1-4.051 0L22.025 78.311A4.052 4.052 0 0 1 20 74.8V53.152a4.052 4.052 0 0 1 2.025-3.508z" fill="#fff" fill-rule="evenodd"/>
		</mask>
	</defs>
	<g mask="url(#a)">
		<path d="M40.776 38.819a4.049 4.049 0 0 1 4.051 0l18.751 10.825a4.052 4.052 0 0 1 2.022 3.508V74.8a4.052 4.052 0 0 1-2.025 3.508L44.827 89.136a4.049 4.049 0 0 1-4.051 0L22.025 78.311A4.052 4.052 0 0 1 20 74.8V53.152a4.052 4.052 0 0 1 2.025-3.508z" fill="#0da7fe" fill-rule="evenodd"/>
	</g>
	<g mask="url(#b)">
		<path fill="#1a67fd" fill-rule="evenodd" d="m20 77.144 11.843-13.166 10.958 26.328L20 77.144z"/>
	</g>
	<g mask="url(#a)">
		<path fill="#0da7fe" fill-rule="evenodd" d="M31.843 63.978 20.16 50.721 20 77.144l11.843-13.166z"/>
	</g>
	<g mask="url(#c)">
		<path fill="#05bbff" fill-rule="evenodd" d="M31.843 63.978 42.801 37.65 20.16 50.721l11.683 13.257z"/>
	</g>
	<g mask="url(#c)">
		<path fill="#00c9ff" fill-rule="evenodd" d="m42.801 37.65 22.802 39.492-33.76-13.164"/>
	</g>
	<g mask="url(#d)">
		<path fill="#1a86fd" fill-rule="evenodd" d="m42.801 90.35 22.802-13.206-33.76-13.166L42.801 90.35z"/>
	</g>
	<g mask="url(#c)">
		<path fill="#05bbff" fill-rule="evenodd" d="M65.603 77.142V50.814L42.801 37.65l22.802 39.492z"/>
	</g>
	<path fill="#1a67fd" fill-opacity=".5" fill-rule="evenodd" d="m47.621 61.756 2.894 2.894-1.436 1.437-1.458 1.458-8.149 8.148-2.894-2.894 8.149-8.149-8.149-8.148 2.894-2.894 8.149 8.148z"/>
	<path fill="#d6ffff" fill-rule="evenodd" d="m50.515 63.351-2.894-2.894L36.578 71.5l2.894 2.894 11.043-11.043z"/>
	<path fill="#d6ffff" fill-rule="evenodd" d="m39.472 52.309-2.894 2.894 11.043 11.043 2.894-2.895-11.043-11.042z"/>
	<path d="M97.464 68.416a6.449 6.449 0 0 1-2.333 5.374 9.362 9.362 0 0 1-6 1.85h-8.915V51.445h8.641a8.881 8.881 0 0 1 5.772 1.694 5.848 5.848 0 0 1 2.074 4.8A6.323 6.323 0 0 1 96 60.9a4.886 4.886 0 0 1-1.919 2.057q3.382 1.416 3.383 5.459zm-8.918-11.924h-2.454v4.389h2.523a1.92 1.92 0 0 0 1.539-.622 2.408 2.408 0 0 0 .535-1.625 2.209 2.209 0 0 0-.535-1.572 2.107 2.107 0 0 0-1.608-.57zM89 65.616h-2.9v4.943h2.869a2.273 2.273 0 0 0 1.78-.709 2.557 2.557 0 0 0 .64-1.78 2.522 2.522 0 0 0-.623-1.78A2.278 2.278 0 0 0 89 65.616zm16.655-8.122v10.818a2.633 2.633 0 0 0 .657 1.918 2.3 2.3 0 0 0 1.728.674 2.348 2.348 0 0 0 1.832-.725 2.679 2.679 0 0 0 .656-1.867V57.494h5.772V75.64h-5.633v-1.867a4.979 4.979 0 0 1-1.8 1.625 5.483 5.483 0 0 1-2.765.691 6.653 6.653 0 0 1-2.817-.553 4.9 4.9 0 0 1-1.832-1.365 6.02 6.02 0 0 1-1-2.04 12.378 12.378 0 0 1-.466-2.246 23.333 23.333 0 0 1-.1-2.333V57.494zm26.717 18.146v-1.418a5.93 5.93 0 0 1-1.849 1.245 7 7 0 0 1-3.059.622 8.362 8.362 0 0 1-6.394-2.661 9.622 9.622 0 0 1-2.489-6.844 10.037 10.037 0 0 1 2.333-6.9 7.907 7.907 0 0 1 6.239-2.645 6.973 6.973 0 0 1 3.076.623 5.356 5.356 0 0 1 1.763 1.209V50.65h5.772v24.99zm-.207-9.021a4.763 4.763 0 0 0-1.072-3.3 3.627 3.627 0 0 0-2.834-1.193 3.553 3.553 0 0 0-2.834 1.245 4.8 4.8 0 0 0-1.072 3.249 4.666 4.666 0 0 0 1.072 3.214 3.6 3.6 0 0 0 2.834 1.21 3.519 3.519 0 0 0 2.851-1.262 4.763 4.763 0 0 0 1.055-3.163zm21.809 9.021v-1.418a5.93 5.93 0 0 1-1.849 1.245 7 7 0 0 1-3.059.622 8.362 8.362 0 0 1-6.394-2.661 9.622 9.622 0 0 1-2.489-6.844 10.037 10.037 0 0 1 2.333-6.9 7.907 7.907 0 0 1 6.239-2.645 6.973 6.973 0 0 1 3.076.623 5.356 5.356 0 0 1 1.763 1.209V50.65h5.772v24.99zm-.207-9.021a4.763 4.763 0 0 0-1.072-3.3 3.626 3.626 0 0 0-2.834-1.193 3.554 3.554 0 0 0-2.834 1.245 4.8 4.8 0 0 0-1.072 3.249 4.666 4.666 0 0 0 1.072 3.214 3.6 3.6 0 0 0 2.834 1.21 3.523 3.523 0 0 0 2.852-1.262 4.768 4.768 0 0 0 1.054-3.163zM180 57.494l-8.986 24.332h-5.461l2.454-6.774-6.775-17.558h6.187l3.215 10.438 3.352-10.438z"/>
</svg>
