<svg xmlns="http://www.w3.org/2000/svg" width="200" height="128">
    <path d="M120.827 51.416a9.511 9.511 0 0 0-9.1 9.577v11.658a.5.5 0 0 0 .5.5h2.826a.5.5 0 0 0 .5-.5v-11.7a5.661 5.661 0 0 1 5.28-5.714 5.564 5.564 0 0 1 5.831 5.283c0 .093.007.185.007.277v11.86a.5.5 0 0 0 .5.5h2.825a.5.5 0 0 0 .5-.5V60.8a9.4 9.4 0 0 0-9.411-9.387c-.085-.001-.173 0-.258.003zM144.678 51.522a10.855 10.855 0 1 0 6.559 19.1v2.022a.5.5 0 0 0 .5.5h2.828a.5.5 0 0 0 .5-.5V62.589a11 11 0 0 0-10.387-11.067zm-.472 17.878a7.034 7.034 0 1 1 7.031-7.036 7.041 7.041 0 0 1-7.031 7.036zM169.611 51.522a10.855 10.855 0 1 0 6.559 19.1v4.292A7.188 7.188 0 0 1 169 82.14a6.984 6.984 0 0 1-5.6-2.96.494.494 0 0 0-.66-.128l-2.4 1.488a.5.5 0 0 0-.159.692l.013.02a10.78 10.78 0 0 0 8.738 4.71A11.031 11.031 0 0 0 180 74.889V62.6a11.016 11.016 0 0 0-10.389-11.078zm-.474 17.878a7.034 7.034 0 1 1 7.033-7.034 7.042 7.042 0 0 1-7.033 7.034zM78.491 51.522a10.855 10.855 0 1 0 6.562 19.1v4.292a7.187 7.187 0 0 1-7.17 7.221 6.987 6.987 0 0 1-5.6-2.96.493.493 0 0 0-.66-.128l-2.4 1.488a.5.5 0 0 0-.16.692l.014.02a10.778 10.778 0 0 0 8.719 4.71 11.032 11.032 0 0 0 11.069-11.068V62.6a10.988 10.988 0 0 0-10.374-11.078zM78.019 69.4a7.034 7.034 0 1 1 7.034-7.034 7.043 7.043 0 0 1-7.034 7.034zM63.116 51.662l-2.828.044a.5.5 0 0 0-.49.494v11.279a5.565 5.565 0 0 1-5.569 5.559c-.09 0-.179 0-.269-.007a5.665 5.665 0 0 1-5.279-5.714v-11.1a.5.5 0 0 0-.5-.5h-2.824a.5.5 0 0 0-.5.5v11.068a9.518 9.518 0 0 0 9.1 9.578 9.4 9.4 0 0 0 9.662-9.13V52.16a.5.5 0 0 0-.5-.5zM101.026 60.543c-2.77-.77-4.452-1.344-4.452-2.844 0-2.17 2.374-2.957 3.97-2.957a7.414 7.414 0 0 1 4.354 1.3.5.5 0 0 0 .676-.156l1.312-2.035a.5.5 0 0 0-.149-.689l-.015-.009a12.163 12.163 0 0 0-6.308-1.748c-3.6 0-7.306 2.37-7.306 6.335 0 4.048 3.6 5.02 6.766 5.878 3 .81 4.816 1.438 4.816 3.328 0 1.736-1.784 3.046-4.148 3.046a8.931 8.931 0 0 1-5.4-2 .494.494 0 0 0-.688.078l-1.558 1.9a.5.5 0 0 0 .072.7 11.968 11.968 0 0 0 7.744 2.658c4.31 0 7.436-2.738 7.436-6.512.01-4.291-3.948-5.391-7.122-6.273zM32.125 51.584a10.813 10.813 0 0 0-8.3 2.524V42.532a.5.5 0 0 0-.5-.5.493.493 0 0 0-.256.072l-2.828 1.72a.5.5 0 0 0-.238.426v17.895a11 11 0 0 0 10.378 11.068 10.858 10.858 0 0 0 1.744-21.629zM30.855 69.4a7.034 7.034 0 1 1 7.034-7.034 7.033 7.033 0 0 1-7.034 7.034z"/>
</svg>
