<svg width="181" height="34" fill="none" xmlns="http://www.w3.org/2000/svg">
	<path d="M0 0v23.755a5.147 5.147 0 0 0 5.152 5.143V5.143A5.147 5.147 0 0 0 0 0Z" fill="#4994E4"/>
	<path d="m21.042 20.386-6.308-6.85a5.161 5.161 0 0 0-7.282-.305l6.589 7.155-6.589 7.154a5.162 5.162 0 0 0 7.282-.304l6.308-6.85Z" fill="#6AD293"/>
	<path d="M23.008 28.898a2.574 2.574 0 0 0 2.576-2.572 2.574 2.574 0 0 0-2.576-2.571 2.574 2.574 0 0 0-2.576 2.571 2.574 2.574 0 0 0 2.576 2.572Z" fill="#F8CC66"/>
	<path d="M41.55 29.006c-1.118 0-2.123-.257-3.017-.771a5.722 5.722 0 0 1-2.126-2.112c-.522-.893-.791-1.897-.805-3.012V12.99c0-.257.074-.463.225-.611.151-.15.355-.225.612-.225.242 0 .441.074.59.225.15.15.225.354.225.61v6.303a5.174 5.174 0 0 1 1.878-1.619c.78-.407 1.65-.61 2.61-.61 1.103 0 2.089.26 2.964.782a5.714 5.714 0 0 1 2.073 2.134c.508.9.762 1.915.762 3.043 0 1.145-.261 2.165-.784 3.065a5.777 5.777 0 0 1-2.137 2.133c-.902.525-1.926.786-3.07.786Zm0-1.502c.83 0 1.576-.196 2.233-.589a4.257 4.257 0 0 0 1.557-1.597c.378-.673.568-1.436.568-2.294 0-.842-.19-1.604-.568-2.284a4.189 4.189 0 0 0-1.557-1.597c-.66-.385-1.403-.58-2.233-.58-.816 0-1.554.195-2.211.58-.66.386-1.176.92-1.548 1.597-.371.68-.558 1.44-.558 2.284 0 .858.184 1.624.558 2.294a4.18 4.18 0 0 0 1.548 1.597c.657.393 1.395.59 2.21.59Z" fill="#242148"/>
	<path d="M55.334 29.027c-1.017 0-1.926-.21-2.727-.632a4.641 4.641 0 0 1-1.9-1.856c-.465-.814-.697-1.808-.697-2.98v-5.573a.79.79 0 0 1 .237-.579.786.786 0 0 1 .58-.235c.243 0 .444.08.602.235.159.158.235.35.235.58v5.574c0 .886.168 1.616.504 2.186.336.572.794 1 1.374 1.285.581.285 1.236.429 1.965.429.7 0 1.336-.136 1.9-.407a3.388 3.388 0 0 0 1.343-1.116 2.748 2.748 0 0 0 .494-1.609h1.18c-.043.9-.29 1.705-.741 2.411a4.806 4.806 0 0 1-1.816 1.672c-.758.411-1.604.615-2.533.615Zm4.723-.13c-.245 0-.441-.074-.59-.224-.151-.151-.226-.355-.226-.611V17.986c0-.241.075-.44.226-.589a.798.798 0 0 1 .59-.225c.242 0 .444.075.602.225a.78.78 0 0 1 .237.59v10.075c0 .256-.079.462-.237.61a.834.834 0 0 1-.602.226Z" fill="#242148"/>
	<path d="M65.581 14.94c-.314 0-.587-.114-.815-.341a1.13 1.13 0 0 1-.343-.836c0-.357.117-.64.355-.848.237-.206.51-.311.827-.311.3 0 .569.103.806.311.235.209.355.491.355.848 0 .328-.115.608-.343.835a1.161 1.161 0 0 1-.842.343Zm.022 13.958c-.257 0-.46-.075-.612-.225-.15-.151-.225-.355-.225-.61V18.007c0-.256.074-.462.225-.61.151-.151.355-.226.612-.226.242 0 .441.075.59.226.151.15.225.354.225.61v10.054c0 .256-.074.462-.225.61a.798.798 0 0 1-.59.226Z" fill="#242148"/>
	<path d="M73.163 28.898a2.623 2.623 0 0 1-1.535-.472c-.451-.314-.801-.75-1.053-1.307-.252-.558-.377-1.2-.377-1.93V12.968c0-.242.075-.44.226-.59a.798.798 0 0 1 .59-.224c.242 0 .441.074.59.225.15.15.225.347.225.589v12.22c0 .616.125 1.117.377 1.502.25.386.568.58.954.58h.538a.64.64 0 0 1 .515.225c.13.15.195.347.195.589 0 .244-.09.44-.269.589-.18.15-.412.225-.698.225h-.278Z" fill="#242148"/>
	<path d="M81.387 29.005c-1.132 0-2.147-.26-3.049-.782a5.777 5.777 0 0 1-2.137-2.134c-.523-.9-.784-1.923-.784-3.065 0-1.128.254-2.143.763-3.043.508-.9 1.199-1.611 2.072-2.133s1.861-.783 2.965-.783c.959 0 1.825.203 2.597.61a5.226 5.226 0 0 1 1.869 1.619v-6.305c0-.256.079-.462.237-.61a.834.834 0 0 1 .602-.225c.242 0 .444.074.602.225.159.15.238.354.238.61v10.12c-.03 1.115-.305 2.118-.828 3.011a5.74 5.74 0 0 1-2.125 2.112c-.9.515-1.907.773-3.022.773Zm0-1.5c.83 0 1.57-.197 2.223-.59a4.303 4.303 0 0 0 1.547-1.597c.38-.673.569-1.437.569-2.294 0-.843-.19-1.604-.569-2.284a4.199 4.199 0 0 0-1.547-1.597c-.652-.386-1.393-.58-2.223-.58-.816 0-1.554.195-2.212.58a4.27 4.27 0 0 0-1.568 1.597c-.386.68-.58 1.44-.58 2.284 0 .857.194 1.624.58 2.294a4.339 4.339 0 0 0 1.569 1.597c.657.393 1.395.59 2.21.59Z" fill="#242148"/>
	<path d="M90.71 29.24c-.344 0-.639-.122-.881-.364a1.19 1.19 0 0 1-.365-.879c0-.357.125-.656.377-.9.25-.242.54-.364.87-.364.344 0 .636.124.88.376.243.251.365.546.365.89 0 .329-.117.618-.355.87a1.188 1.188 0 0 1-.892.37Z" fill="#242148"/>
	<path d="M99.06 29.005a7.714 7.714 0 0 1-2.513-.428c-.83-.285-1.504-.714-2.02-1.286a.687.687 0 0 1-.194-.58.873.873 0 0 1 .322-.557.849.849 0 0 1 .623-.173.864.864 0 0 1 .537.278c.343.4.8.706 1.365.922a5.24 5.24 0 0 0 1.878.32c1.06 0 1.825-.181 2.298-.545.472-.364.715-.805.729-1.32 0-.514-.245-.938-.729-1.276-.487-.335-1.288-.596-2.406-.783-1.446-.227-2.506-.63-3.178-1.2-.674-.572-1.01-1.25-1.01-2.037 0-.728.195-1.336.58-1.822.387-.486.903-.85 1.548-1.094a6.006 6.006 0 0 1 2.125-.364c.96 0 1.787.165 2.48.493.693.328 1.257.771 1.686 1.329a.76.76 0 0 1 .173.58c-.029.2-.144.363-.343.493a.862.862 0 0 1-.59.095.952.952 0 0 1-.569-.31 3.274 3.274 0 0 0-1.244-.913c-.473-.194-1.017-.29-1.634-.29-.787 0-1.417.16-1.89.481-.472.321-.707.726-.707 1.212 0 .328.088.615.268.857.18.244.487.457.924.644.436.187 1.048.343 1.837.472 1.074.172 1.921.426 2.545.761.623.336 1.067.728 1.331 1.178.264.45.398.941.398 1.468a2.81 2.81 0 0 1-.59 1.77c-.393.507-.938.905-1.631 1.19-.698.292-1.494.435-2.398.435Z" fill="#242148"/>
	<path d="M111.861 29.005c-1.161 0-2.188-.253-3.082-.761a5.463 5.463 0 0 1-2.104-2.112c-.508-.9-.763-1.93-.763-3.086 0-1.171.24-2.205.72-3.098a5.44 5.44 0 0 1 1.986-2.112c.844-.515 1.818-.771 2.921-.771 1.089 0 2.037.246 2.845.74a5.007 5.007 0 0 1 1.878 2.047c.444.871.667 1.865.667 2.98 0 .23-.072.413-.216.547a.777.777 0 0 1-.559.203h-9.126V22.21h9.299l-.924.666c.015-.829-.136-1.573-.451-2.23a3.68 3.68 0 0 0-1.343-1.544c-.58-.37-1.271-.558-2.072-.558-.816 0-1.533.194-2.147.58a3.865 3.865 0 0 0-1.427 1.597c-.336.68-.504 1.453-.504 2.325 0 .871.19 1.642.569 2.315.379.673.899 1.2 1.556 1.588.658.385 1.418.58 2.277.58.515 0 1.033-.09 1.556-.27.523-.179.941-.404 1.257-.674a.874.874 0 0 1 .537-.204.752.752 0 0 1 .516.16c.185.173.283.357.29.558.008.202-.074.372-.247.515-.472.4-1.074.733-1.803.996-.732.264-1.435.395-2.106.395Z" fill="#242148"/>
	<path d="M124.531 29.005c-1.132 0-2.137-.26-3.017-.782a5.689 5.689 0 0 1-2.084-2.134c-.509-.9-.763-1.915-.763-3.043 0-1.142.242-2.165.729-3.065a5.56 5.56 0 0 1 1.998-2.133c.844-.522 1.818-.783 2.922-.783.873 0 1.678.172 2.415.514a5.465 5.465 0 0 1 1.943 1.545c.158.172.215.354.172.546-.043.194-.165.361-.364.503a.656.656 0 0 1-.526.117.837.837 0 0 1-.503-.311c-.83-.944-1.876-1.415-3.135-1.415-.801 0-1.506.194-2.116.579a3.895 3.895 0 0 0-1.417 1.587c-.336.673-.504 1.444-.504 2.316 0 .857.18 1.623.537 2.294.358.672.859 1.2 1.504 1.587.646.386 1.382.58 2.212.58.559 0 1.07-.075 1.535-.226.465-.15.878-.383 1.235-.696a.944.944 0 0 1 .537-.235.705.705 0 0 1 .516.172.831.831 0 0 1 .29.537.575.575 0 0 1-.204.515c-1.05.953-2.353 1.431-3.912 1.431Z" fill="#242148"/>
	<path d="M137.2 29.027c-1.017 0-1.926-.21-2.727-.632a4.635 4.635 0 0 1-1.9-1.856c-.465-.814-.698-1.808-.698-2.98v-5.573a.79.79 0 0 1 .237-.579.788.788 0 0 1 .581-.235c.242 0 .444.08.602.235.158.158.235.35.235.58v5.574c0 .886.168 1.616.504 2.186a3.2 3.2 0 0 0 1.374 1.285c.58.285 1.235.429 1.964.429.701 0 1.336-.136 1.9-.407a3.388 3.388 0 0 0 1.343-1.116 2.745 2.745 0 0 0 .494-1.609h1.18c-.043.9-.29 1.705-.741 2.411a4.806 4.806 0 0 1-1.815 1.672c-.758.411-1.603.615-2.533.615Zm4.725-.13c-.245 0-.442-.074-.59-.224-.151-.151-.226-.355-.226-.611V17.986c0-.241.075-.44.226-.589a.798.798 0 0 1 .59-.225c.242 0 .444.075.602.225a.78.78 0 0 1 .237.59v10.075c0 .256-.079.462-.237.61a.838.838 0 0 1-.602.226Z" fill="#242148"/>
	<path d="M147.443 28.898c-.257 0-.458-.072-.602-.216-.144-.144-.216-.342-.216-.601V17.986c0-.256.072-.457.216-.6.144-.144.343-.216.602-.216.257 0 .458.072.602.215.144.144.216.343.216.601v10.097c0 .257-.072.458-.216.601-.144.142-.345.213-.602.213Zm-.13-7.224c.044-.886.276-1.679.698-2.38a4.69 4.69 0 0 1 1.653-1.65 4.383 4.383 0 0 1 2.267-.601c.657 0 1.165.093 1.525.278.357.186.494.457.408.814-.058.215-.154.357-.29.428a.903.903 0 0 1-.495.087 45.229 45.229 0 0 0-.654-.043c-.801-.072-1.514.01-2.137.246-.624.235-1.118.596-1.483 1.082-.364.486-.547 1.066-.547 1.736h-.945v.003Z" fill="#242148"/>
	<path d="M157.622 14.94c-.315 0-.588-.114-.816-.341a1.13 1.13 0 0 1-.343-.836c0-.357.118-.64.355-.848.238-.206.511-.311.828-.311.299 0 .568.103.806.311.235.209.354.491.354.848 0 .328-.115.608-.342.835a1.163 1.163 0 0 1-.842.343Zm.021 13.958c-.256 0-.46-.075-.611-.225-.152-.151-.226-.355-.226-.61V18.007c0-.256.074-.462.226-.61.151-.151.355-.226.611-.226.242 0 .442.075.59.226.151.15.226.354.226.61v10.054c0 .256-.075.462-.226.61-.148.151-.348.226-.59.226Z" fill="#242148"/>
	<path d="M161.917 19.035a.746.746 0 0 1-.537-.203.666.666 0 0 1-.216-.503c0-.216.072-.39.216-.525a.746.746 0 0 1 .537-.203h5.476c.216 0 .393.067.537.203a.69.69 0 0 1 .216.525.659.659 0 0 1-.216.503.746.746 0 0 1-.537.203h-5.476Zm5.347 9.863c-.758 0-1.435-.18-2.03-.537a3.854 3.854 0 0 1-1.405-1.468c-.343-.622-.516-1.333-.516-2.133V14.277a.83.83 0 0 1 .226-.6.776.776 0 0 1 .59-.235c.242 0 .443.079.602.235a.812.812 0 0 1 .237.6V24.76c0 .728.216 1.327.645 1.791.43.465.981.697 1.653.697h.58c.228 0 .415.079.559.235a.855.855 0 0 1 .216.6.744.744 0 0 1-.257.59.948.948 0 0 1-.645.225h-.455Z" fill="#242148"/>
	<path d="M175.703 28.534c-.215.1-.415.117-.602.052-.187-.064-.335-.203-.451-.419l-4.789-9.905c-.101-.216-.116-.415-.044-.601.072-.187.216-.328.43-.429.216-.1.415-.117.602-.052.187.064.328.203.429.419l4.704 9.905c.115.215.151.414.108.601-.044.184-.173.328-.387.429ZM173.319 34c-.115 0-.244-.029-.386-.086-.487-.216-.623-.558-.408-1.03l6.937-15.264c.216-.457.559-.587 1.031-.386.487.202.624.537.408 1.009l-6.958 15.264c-.144.328-.353.493-.624.493Z" fill="#242148"/>
</svg>
