<svg width="800" height="150" fill="none" xmlns="http://www.w3.org/2000/svg">
	<path d="M783.413 120.973V29.988h16.586v90.985h-16.586Z" fill="#220596"/>
	<path d="M266.71 91.526c0 18.99-13.822 31.009-28.966 31.009-6.731 0-14.784-2.764-18.99-8.894v7.332h-16.587V29.988h16.707V69.17c4.207-5.89 12.259-8.533 18.99-8.533 15.144-.12 28.846 11.898 28.846 30.889Zm-16.947 0c0-8.654-6.851-15.505-15.144-15.505-7.692 0-15.264 6.49-15.264 15.505 0 9.014 7.211 15.625 15.264 15.625 8.413 0 15.144-7.092 15.144-15.625Z" fill="#220596"/>
	<path d="M318.392 62.08h16.587v59.013h-16.587v-9.615c-2.524 7.692-11.898 11.057-17.668 11.057-15.384 0-23.437-10.336-23.317-28.004V62.079h16.587v31.61c0 9.255 5.528 13.462 11.177 13.462 5.89 0 13.221-3.245 13.221-13.942v-31.13Z" fill="#220596"/>
	<path d="M407.334 88.761v32.332h-16.586v-31.49c0-9.255-5.529-13.342-11.178-13.342-5.89 0-13.221 3.125-13.221 13.942v30.89h-16.587V62.079h16.587v9.976c2.524-7.933 11.899-11.539 17.668-11.539 15.384 0 23.437 10.457 23.317 28.245Z" fill="#220596"/>
	<path d="M479.209 88.761v32.332h-16.586v-31.49c0-9.255-5.529-13.342-11.178-13.342-5.89 0-13.221 3.125-13.221 13.942v30.89h-16.587V62.079h16.587v9.976c2.524-7.933 11.899-11.539 17.668-11.539 15.384 0 23.437 10.457 23.317 28.245Z" fill="#220596"/>
	<path d="M528.968 62.08h17.789l-36.418 87.859H492.67l14.063-34.495-23.317-53.365h18.149l13.942 34.135 13.461-34.135Z" fill="#220596"/>
	<path d="M549.641 102.463h15.505c0 3.365 2.884 7.091 8.654 7.091 4.807 0 8.413-2.404 8.413-5.769 0-2.524-2.043-3.846-6.49-4.928l-7.813-1.923c-15.144-4.086-17.187-12.5-17.187-18.63 0-9.134 9.495-17.668 23.077-17.668 10.697 0 23.317 5.169 23.197 19.23h-15.745c0-4.086-3.246-6.129-7.212-6.129-3.846 0-6.851 2.164-6.851 5.168 0 2.765 2.524 4.207 5.769 5.048l9.736 2.525c14.182 3.846 15.865 12.62 15.865 17.427 0 12.38-12.62 18.87-24.759 18.87-12.02-.24-24.039-7.331-24.159-20.312Z" fill="#220596"/>
	<path d="M668.15 88.761v32.332h-16.586v-31.37c0-9.255-5.529-13.462-11.178-13.462-5.89 0-13.221 3.246-13.221 13.943v30.889h-16.587V30.108h16.587v41.466c2.524-7.572 12.019-10.817 17.668-10.817 15.384-.24 23.437 10.216 23.317 28.004Z" fill="#220596"/>
	<path d="M740.505 96.934h-44.351c1.803 6.971 7.332 10.938 15.145 10.938 6.009 0 11.899-2.765 15.504-6.972l9.616 9.736c-5.529 7.452-15.745 11.899-26.082 11.899-18.149 0-31.49-12.74-31.49-30.89 0-19.11 14.543-31.009 31.37-31.009 16.947 0 30.649 12.02 30.649 30.048 0 1.563-.12 3.606-.361 6.25Zm-16.346-10.697c-.481-6.971-6.13-11.418-13.582-11.418-6.851 0-12.62 3.365-14.423 11.418h28.005Z" fill="#220596"/>
	<path d="M752.164 120.973V29.988h16.586v90.985h-16.586Z" fill="#220596"/>
	<path d="M137.507 13.173c3.966 1.586 5.711 6.188 4.125 9.996a7.71 7.71 0 0 1-7.14 4.76c-.952 0-2.063-.16-3.015-.635-19.197-8.092-39.665-12.059-60.449-12.059-4.284 0-7.616-3.49-7.616-7.615S66.902.004 71.028.004c23.006-.159 45.377 4.284 66.479 13.169Z" fill="#220596"/>
	<path d="M137.506 43.953c3.967 1.586 5.712 6.188 4.125 9.995a7.71 7.71 0 0 1-7.139 4.76c-.952 0-2.063-.158-3.015-.634-19.198-8.092-39.506-12.059-60.45-12.059-21.101 0-41.41 3.967-60.449 11.9-3.966 1.587-8.409-.159-9.995-4.125-1.587-3.967.158-8.41 4.125-9.996 20.943-8.726 43.155-13.169 66.32-13.169 23.005 0 45.376 4.443 66.478 13.328Z" fill="#220596"/>
	<path d="M107.837 65.372c4.125.952 6.822 4.919 5.87 9.044-.952 4.125-4.918 6.822-9.043 5.87-11.265-2.38-22.53-3.649-33.478-3.649-21.101 0-41.41 3.966-60.45 12.058-.951.318-1.903.635-3.014.635a7.71 7.71 0 0 1-7.14-4.76c-1.586-3.966.16-8.409 4.126-9.995 20.943-8.727 43.155-13.17 66.32-13.17 12.216 0 24.592 1.27 36.809 3.967Z" fill="#220596"/>
	<path d="M71.186 92.027c4.284 0 7.616 3.49 7.616 7.615 0 4.126-3.49 7.616-7.616 7.616-21.102 0-41.41 3.967-60.45 12.058-.951.318-1.903.635-3.014.635a7.71 7.71 0 0 1-7.14-4.76c-1.586-3.966.16-8.409 4.126-9.996 21.101-8.726 43.314-13.168 66.478-13.168Z" fill="#220596"/>
</svg>
