<svg xmlns="http://www.w3.org/2000/svg" height="141.987" width="942.307" xml:space="preserve">
	<path style="fill:#ed1d24;fill-opacity:1;fill-rule:nonzero;stroke:none" d="M1003.03 303.227C925.652 118.207 726.719.43 529.156.43 236.262.43 0 245.336 0 536.137c0 288.047 239.016 528.813 523.617 528.813 204.481 0 406.18-119.137 484.923-311.071H793.023C729.473 831.078 627.246 880.711 525 880.711c-186.516 0-335.715-161.266-335.715-351.481 0-180.515 154.731-344.539 337.098-344.539 100.863 0 187.89 45.497 256.972 118.536h219.675" transform="matrix(.13333 0 0 -.13333 0 141.987)"/>
	<path style="fill:#ed1d24;fill-opacity:1;fill-rule:nonzero;stroke:none" d="M1858.19 789.125h-167.91v-108.25c-60.81 86.031-151.98 132.703-256.99 132.703-111.91 0-207.27-42.492-284.84-132.703-70.64-80.227-98.34-168.215-98.34-274.094 0-105.89 34.62-204.883 95.57-278.242C1212.18 49.429 1308.95 0 1427.76 0c96.72 0 204.49 49.43 262.52 128.539V24.461h167.91zm-173.44-380.957c0-130.637-91.18-229.648-223.81-228.281-124.36-1.367-226.61 94.871-226.61 220 0 133.398 93.96 235.164 229.37 233.789 129.87 1.375 221.05-97.617 221.05-225.508" transform="matrix(.13333 0 0 -.13333 0 141.987)"/>
	<path style="fill:#ed1d24;fill-opacity:1;fill-rule:nonzero;stroke:none" d="M1995.5 24.46h169V128.54C2225.32 38.301 2319.28 0 2424.28 0c106.38 0 212.84 45.27 280.71 128.539 60.96 71.981 99.75 186.094 98.37 278.191 0 214.485-160.68 406.465-384.6 406.465-87.04 0-185.14-30.398-239.02-105v337.795h-184.25zm403.93 609.126c131.25 0 219.69-101.746 219.69-228.231 0-127.824-89.81-225.468-219.69-225.468-138.17 0-230.78 103.125-230.78 236.472 0 126.477 107.8 217.227 230.78 217.227" transform="matrix(.13333 0 0 -.13333 0 141.987)"/>
	<path style="fill:#ed1d24;fill-opacity:1;fill-rule:nonzero;stroke:none" d="M2907.31 1045.99h184.25V24.21h-184.25v1021.78" transform="matrix(.13333 0 0 -.13333 0 141.987)"/>
	<path style="fill:#ed1d24;fill-opacity:1;fill-rule:nonzero;stroke:none" d="M3993.93 326.477c4.14 28.996 9.63 58 9.63 87.043 0 211.902-173.21 399.675-391.96 399.675-229.84 0-406.51-186.414-406.51-410.73 0-222.473 180.82-402.086 403.74-402.086 162.03 0 320.51 109.117 367.25 245.941h-202.45c-36.02-40.086-102.5-66.328-171.72-66.328-92.78 0-174.47 58.047-202.19 146.485zm-596.97 163.007c27.68 87.016 121.85 144.102 213.25 144.102 94.2 0 178.64-54.356 209.09-144.102h-422.34" transform="matrix(.13333 0 0 -.13333 0 141.987)"/>
	<path style="fill:#ed1d24;fill-opacity:1;fill-rule:nonzero;stroke:none" d="M4099.02 1045.99h102.69V117.531h422.36v-93.07h-525.05V1045.99" transform="matrix(.13333 0 0 -.13333 0 141.987)"/>
	<path style="fill:#ed1d24;fill-opacity:1;fill-rule:nonzero;stroke:none" d="M5377.14 779.75h-98.07V635.949c-56.61 107.864-176.69 160.637-295.38 160.637-104.87 0-211.14-37.578-325.83-160.637-27.75-24.91-79.09-128.64-79.09-229.609 0-114.863 47.18-210.281 74.94-240.711 96.77-110 219.57-158.207 332.75-158.207 118.68 0 234.62 52.277 292.61 158.176V24.211h98.08zm-393.45-81.516c168.42 0 295.38-134.218 295.38-301.589 0-157.727-135.28-293.262-292.61-293.262-161.46 0-305.02 128.64-305.02 294.617 0 167.402 136.66 300.234 302.25 300.234" transform="matrix(.13333 0 0 -.13333 0 141.987)"/>
	<path style="fill:#ed1d24;fill-opacity:1;fill-rule:nonzero;stroke:none" d="M5495.94 24.21h97.1v128.978c59.46-97.56 192.14-145.766 301.32-145.766 110.55 0 204.54 27.7 309.6 145.766 41.66 45.652 90.23 142.519 90.23 251.785 0 224.152-189.76 391.457-409.5 391.457-111.92 0-236.32-52.512-286.08-157.617v407.177h-102.67zm391.5 674.134c168.63 0 304.06-124.551 304.06-296.133 0-164.641-132.68-298.828-297.14-298.828-165.87 0-302.69 123.125-302.69 291.902 0 83.047 20.74 152.207 80.2 211.692 56.62 58.132 134.05 91.367 215.57 91.367" transform="matrix(.13333 0 0 -.13333 0 141.987)"/>
	<path style="fill:#ed1d24;fill-opacity:1;fill-rule:nonzero;stroke:none" d="M6451.85 247.621c-2.77-77.199 59.34-141.965 136.23-141.965 72.79 0 131.81 50.989 131.81 125.403 0 90.984-71.4 124.07-145.53 144.734-48.09 15.176-98.93 30.324-136.38 66.164-40.24 35.828-61.06 89.578-61.06 143.328 0 122.727 99.91 211.145 218.03 211.145 112.6 0 208.23-93.965 208.23-204.219h-102.5c0 66.141-50.79 106.133-116.74 106.133-57.67 0-104.35-46.895-104.35-104.785 0-82.696 65.94-104.739 131.83-125.43 112.63-35.84 211.17-84.063 211.17-220.508 0-141.965-104.05-240.07-244.11-240.07-128.02 0-236.07 111.887-229.2 240.07h102.57" transform="matrix(.13333 0 0 -.13333 0 141.987)"/>
	<path style="fill:#ed1d24;fill-opacity:1;fill-rule:nonzero;stroke:none" d="M6945.05 823.73v35.844h23.71c12.12 0 25.02-2.668 25.02-16.984 0-17.797-13.14-18.86-27.91-18.86zm0-14.703h20.01l30.36-50.109H7015l-32.79 50.898c16.88 2.102 29.88 11.036 29.88 31.692 0 22.777-13.52 32.754-40.7 32.754h-43.8V758.918h17.46zm21.09-92.336c54.43 0 101.11 42.227 101.11 100.211 0 57.36-46.68 100.102-101.11 100.102-54.91 0-101.46-42.742-101.46-100.102 0-57.984 46.55-100.211 101.46-100.211zm-81.3 100.211c0 47.383 35.65 83.559 81.3 83.559 45.17 0 80.97-36.176 80.97-83.559 0-48.16-35.8-83.695-80.97-83.695-45.65 0-81.3 35.535-81.3 83.695" transform="matrix(.13333 0 0 -.13333 0 141.987)"/>
</svg>
