<svg xmlns="http://www.w3.org/2000/svg" width="200" height="128">
	<defs>
		<linearGradient id="a" x1="40.765" y1="45.52" x2="89.765" y2="95.963" gradientUnits="userSpaceOnUse">
			<stop offset="0" stop-color="#7fd823"/>
			<stop offset=".439" stop-color="#009d00"/>
			<stop offset=".904" stop-color="#080"/>
		</linearGradient>
		<linearGradient id="b" x1="42.799" y1="41.228" x2="46.695" y2="63.447" gradientUnits="userSpaceOnUse">
			<stop offset="0" stop-color="#64bc2a"/>
			<stop offset=".996" stop-color="#009f00"/>
		</linearGradient>
		<linearGradient id="c" x1="71.623" y1="81.097" x2="70.248" y2="107.024" gradientUnits="userSpaceOnUse">
			<stop offset="0" stop-color="#007d00" stop-opacity=".8"/>
			<stop offset=".996" stop-color="#006c00"/>
		</linearGradient>
		<linearGradient id="d" x1="64.767" y1="23.037" x2="71.838" y2="63.367" gradientUnits="userSpaceOnUse">
			<stop offset="0" stop-color="#009e0e" stop-opacity=".7"/>
			<stop offset=".996" stop-color="#070" stop-opacity=".9"/>
		</linearGradient>
		<linearGradient id="e" x1="89.151" y1="46.408" x2="75.271" y2="71.418" gradientUnits="userSpaceOnUse">
			<stop offset=".004" stop-color="#008a00"/>
			<stop offset="1" stop-color="#007500"/>
		</linearGradient>
		<linearGradient id="f" x1="28.274" y1="59.893" x2="49.552" y2="74.624" gradientUnits="userSpaceOnUse">
			<stop offset="0" stop-color="#59ba17"/>
			<stop offset=".996" stop-color="#009800"/>
		</linearGradient>
	</defs>
	<path d="M111.088 54.854a1.236 1.236 0 0 0 .937-.828c.257-.763.2-1.988-1.945-3.956-3.1-2.849-8.485-1.347-9.36 2.766a5.324 5.324 0 0 0-.1 1.113v27.337s-.007 5.694 2.7 7.852c2.94 2.345 7.447.375 9.27-1.8 1.518-1.81.887-4.706-1.143-5.435a1.715 1.715 0 0 0-2.39 1.639c-.105 1.521-.742 1.79-1.746 1.723-1.076-.072-2.293-1.753-2.382-5.289-.082-3.194-.187-21.489-.207-25.007a2.448 2.448 0 0 1 .662-1.731 2 2 0 0 1 1.477-.623c1.832.002 2.244 2.618 4.227 2.239zM128.9 80.261a8.761 8.761 0 0 1-1.27-4.708c0-3.318-.231-14.886.254-22 .235-3.461-.964-5.522-2.316-6.735a4.624 4.624 0 0 0-6.63.452c-1.575 1.773-3.141 5.061-3.6 11.177-.873 11.745-.085 19.227.754 22.416a4.715 4.715 0 0 0 1.82 2.7 4.98 4.98 0 0 0 2.941.859 3.1 3.1 0 0 0 3.366-2.652.162.162 0 0 1 .3-.065 3.458 3.458 0 0 0 3.131 1.658 1.59 1.59 0 0 0 1.654-1.406 2.478 2.478 0 0 0-.404-1.696zm-5.665-23.208c-.061 2.239-.741 13.905-.781 17.281s-.279 6.314-1.838 6.433-2.027-5.013-1.847-7.921-.089-11.357 1.137-16.961c.551-2.5 1.271-3.7 1.9-4.266a1.163 1.163 0 0 1 1.912.785c.134 1.273-.437 3.016-.481 4.649zm29.489-16.872s-7.352-.28-8.436 3a2.807 2.807 0 0 0 2.43 3.755c1.9.141 1.361-1.447 1.316-2.421a1.067 1.067 0 0 1 1.948-.524c.455.824-.111 37.562-.17 41.341a3.68 3.68 0 0 0 .111 1 2.562 2.562 0 0 0 2.042 2.033c1.874.309 2.018-1.978 2.018-2.9V44.211s.059-1.258 1.753-1.258a2.453 2.453 0 0 1 2.242 3.431c-.326.75-.882 2.09.515 2.607 1.213.45 2.637-.854 2.637-2.277a5.987 5.987 0 0 0-2.832-5.32 14.732 14.732 0 0 0-5.574-1.213zm11.603 1.106a3.172 3.172 0 0 0-1.943 2.471 4.489 4.489 0 0 0 1.847 4.044c3.337 2.937 6.414.54 6.993-.559s.606-3.118-2.078-5.055a5.2 5.2 0 0 0-4.819-.901zm-.755 11.213v35.965a3.02 3.02 0 0 0 .281 1.318 2.169 2.169 0 0 0 2.137 1.273 2.29 2.29 0 0 0 2.138-1.845 4.7 4.7 0 0 0 .192-1.468l-.642-34.718a2.609 2.609 0 0 0-.535-1.573 1.922 1.922 0 0 0-1.553-.773 1.964 1.964 0 0 0-2.018 1.821z" fill="#2c5e00"/>
	<path d="M110.258 54.1a1.237 1.237 0 0 0 .938-.828c.257-.763.2-1.989-1.946-3.956-3.1-2.849-8.485-1.347-9.36 2.765a5.407 5.407 0 0 0-.1 1.114v27.339s-.007 5.694 2.7 7.852c2.939 2.345 7.447.375 9.27-1.8 1.517-1.809.887-4.7-1.143-5.434a1.716 1.716 0 0 0-2.391 1.639c-.105 1.52-.742 1.79-1.746 1.723-1.076-.073-2.292-1.753-2.382-5.29-.081-3.193-.187-21.488-.207-25.007a2.453 2.453 0 0 1 .663-1.731 2 2 0 0 1 1.477-.622c1.832.001 2.245 2.617 4.227 2.236z" fill="#64c600"/>
	<path d="M145.31 55.461a1.234 1.234 0 0 0 .937-.828c.257-.763.2-1.988-1.945-3.956-3.1-2.849-8.485-1.347-9.36 2.766a5.324 5.324 0 0 0-.1 1.113v27.337s-.007 5.694 2.7 7.852c2.939 2.345 7.447.375 9.27-1.8 1.518-1.81.887-4.706-1.143-5.435a1.716 1.716 0 0 0-2.39 1.639c-.105 1.521-.742 1.791-1.746 1.723-1.077-.072-2.293-1.753-2.383-5.289-.081-3.193-.186-21.489-.206-25.007a2.45 2.45 0 0 1 .662-1.731 2 2 0 0 1 1.477-.623c1.832.002 2.244 2.618 4.227 2.239z" fill="#2c5e00"/>
	<path d="M144.48 54.709a1.234 1.234 0 0 0 .937-.828c.258-.763.2-1.988-1.945-3.956-3.1-2.849-8.485-1.347-9.36 2.766a5.324 5.324 0 0 0-.1 1.113v27.337s-.007 5.694 2.7 7.852c2.939 2.345 7.447.375 9.27-1.8 1.517-1.81.887-4.706-1.143-5.435a1.716 1.716 0 0 0-2.391 1.639c-.1 1.521-.742 1.79-1.746 1.723-1.076-.072-2.292-1.753-2.382-5.289-.081-3.194-.187-21.489-.207-25.007a2.451 2.451 0 0 1 .663-1.731 2 2 0 0 1 1.477-.623c1.832.002 2.247 2.618 4.227 2.239zm-16.408 24.799A8.766 8.766 0 0 1 126.8 74.8c0-3.318-.231-14.886.255-22 .234-3.461-.965-5.522-2.317-6.735a4.623 4.623 0 0 0-6.629.452c-1.576 1.773-3.142 5.06-3.6 11.177-.873 11.745-.085 19.227.754 22.416a4.721 4.721 0 0 0 1.82 2.7 4.981 4.981 0 0 0 2.942.859 3.1 3.1 0 0 0 3.375-2.649.162.162 0 0 1 .3-.065 3.458 3.458 0 0 0 3.131 1.658 1.59 1.59 0 0 0 1.654-1.407 2.474 2.474 0 0 0-.413-1.698zM122.407 56.3c-.061 2.238-.74 13.905-.781 17.281s-.279 6.314-1.837 6.432-2.028-5.013-1.848-7.92-.088-11.357 1.138-16.961c.55-2.5 1.27-3.706 1.9-4.266a1.163 1.163 0 0 1 1.912.785c.131 1.274-.44 3.017-.484 4.649z" fill="#64c600"/>
	<path d="M151.894 39.428s-7.352-.279-8.436 3a2.807 2.807 0 0 0 2.431 3.755c1.9.141 1.36-1.447 1.315-2.421a1.067 1.067 0 0 1 1.948-.525c.455.825-.11 37.562-.17 41.342a3.685 3.685 0 0 0 .112 1 2.558 2.558 0 0 0 2.041 2.032c1.874.31 2.018-1.977 2.018-2.9V43.459s.06-1.259 1.753-1.259a2.454 2.454 0 0 1 2.243 3.432c-.326.75-.883 2.09.514 2.607 1.214.449 2.637-.854 2.637-2.278a5.987 5.987 0 0 0-2.832-5.319 14.738 14.738 0 0 0-5.574-1.214zm11.606 1.107a3.172 3.172 0 0 0-1.943 2.471 4.493 4.493 0 0 0 1.843 4.044c3.336 2.937 6.413.54 6.992-.559s.606-3.118-2.077-5.055a5.2 5.2 0 0 0-4.815-.901zm-.757 11.21v35.968a3.019 3.019 0 0 0 .28 1.318 2.17 2.17 0 0 0 2.137 1.269 2.288 2.288 0 0 0 2.138-1.844 4.667 4.667 0 0 0 .192-1.468l-.642-34.719a2.606 2.606 0 0 0-.535-1.572 1.921 1.921 0 0 0-1.553-.773 1.963 1.963 0 0 0-2.017 1.821z" fill="#64c600"/>
	<path d="M89.049 59.078c-1.684 4.341-7 7.309-15.79 8.808l-.3.059-.008.3c-.015.453-.26 11.1-.245 11.924.06 4.208 1.41 9.372 2.493 13.527.943 3.584 1.752 6.685 1.41 7.843-1.558 5.268-11.783 7.086-18.186 6.648-3.51-.237-4.942-1.091-6.329-2.107-1.663-1.21-2.612-3.866-2.694-7.479-.067-3.369 1.024-7.873 2.078-12.229 1.365-5.654 2.545-10.536 1.046-12.3-1.232-1.432-9.075-1.565-10.64-1.58-.119 0-11.924-.2-12.585-9.6-1.068-15.248 7.027-20.331 7.146-20.4a8.935 8.935 0 0 1 4.956-1.5 9.362 9.362 0 0 1 1.254.089 7.115 7.115 0 0 1 2.074.624 5.728 5.728 0 0 1 3.3 4.971c.171 3.376-1.714 8.31-1.736 8.37-.044.141-1.105 3.383.134 5.565a3.638 3.638 0 0 0 2.5 1.751c2.293.5 3.554-2.092 3.888-3.5a26.227 26.227 0 0 0 1.217-6.619c.3-9.075-1.246-12.332-3.027-16.1a37.147 37.147 0 0 1-2.53-6.478 7.824 7.824 0 0 1 3.042-8.622c3.368-2.278 7.917-1.58 12.48 1.9 3.681 2.812 5.9 8.184 6.6 15.96a89.55 89.55 0 0 1 .222 9.023c-.044 4.889-.081 8.125 1.492 8.7a2.038 2.038 0 0 0 1.966-.126c1.343-.9 2.055-3.851 2.256-9.312.052-2.679 2.448-4.192 4.8-4.511a7.264 7.264 0 0 1 8.125 5.35 19.784 19.784 0 0 1-.409 11.051z" fill="url(#a)"/>
	<path d="M50.02 62.358c-2.285 1.521-5.417 1.38-7.071-1.35s.393-7.48-.416-7.873-.764-.89.3-4.319-.312-4.689-1.818-5.52-.8-1.61-.4-1.684a6.653 6.653 0 0 1 5.061 1.469c2.768 2.189 1.632 8.273.853 11.315 0 .008-.007.015-.007.023a19.35 19.35 0 0 1-.223.623 9.337 9.337 0 0 0-.282 1.128 6.805 6.805 0 0 0 .416 4.437 3.638 3.638 0 0 0 2.5 1.751 2.349 2.349 0 0 0 1.087 0z" fill="url(#b)"/>
	<path d="M75.092 102.255c-.831.2-2.923 2.879-4.274 3.584s-5.854 2.352-5.283 1.069 4.037-1.774 4.519-3.733 1.306-1.855 2.441-4.956-1.1-3.02-2.582-4.526-1.729-3.436-.549-4.452a3.567 3.567 0 0 0 .757-4.193 10.451 10.451 0 0 1-.572-3.5c.839-4.088 5.053 8.808 4.593 12.473s1.781 8.041.95 8.234z" fill="url(#c)"/>
	<path d="M71.189 64.376c-.549.052-.593-4.437-1.291-2.753s-.742-.371-1.046-7.271-2.3-4.059-1.877-15.315c.408-10.922-4.408-16.925-4.7-17.274A18.235 18.235 0 0 1 64 22.936a11.177 11.177 0 0 1 1.106.964c4.088 5.3 4.4 14.076 4.326 16.925s.519 11.813 1.306 13.586.993 9.913.451 9.965z" opacity=".9" fill="url(#d)"/>
	<path d="M89.969 54.693v.015a16.718 16.718 0 0 1-.92 4.37c-1.684 4.341-7 7.309-15.79 8.808l-.3.059-.008.3c-.007.2-.059 2.471-.119 4.979.082-3.665-2.493-4.14-1.343-7.561.468-1.4 1.6-1.291 2.226-.334 1.084 1.633 8.14-.133 12.221-5.706a4.455 4.455 0 0 0 .349-3.873c-.853-2.033.742-4.281.7-5.55s-3.405-4.623-2.137-5.365 5.099 1.652 5.121 9.858z" opacity=".85" fill="url(#e)"/>
	<path d="M42.251 71.878c-2.664-.193-6.522.208-10.44-4.7 0 0-2.6-2.991-1.936-9.543 0 0 .489-2.226.7-1.706a7.034 7.034 0 0 1 1.046 3.228c.193 2.033 1.811.348 2.011 3.131s.46 7.739 11.664 8.2c0 0 3.74.193 5.031.816s-5.419.774-8.076.574z" fill="url(#f)"/>
	<g opacity=".5" fill="#fff">
		<path d="M33.753 70.933c-.131-.144-3.182-3.659-1.749-15.162C33.44 44.242 42.239 40.9 42.328 40.872l.507.189c-.087.031-9.056 3.46-10.463 14.756C30.96 67.152 34 70.65 34.028 70.684z"/>
		<path d="M35.823 71.338c-.013-.063-1.314-6.4.635-16.408 1.958-10.055 8.127-13.361 8.19-13.393l.41.237C45 41.806 38.744 45.133 36.822 55c-1.933 9.923-.591 16.459-.578 16.521z"/>
		<path d="M39.019 72.218c-.009-.058-.93-5.929.948-15.281 1.884-9.376 6.438-13.945 6.484-13.99l.26.264c-.045.045-4.52 4.543-6.38 13.8-1.864 9.28-.955 15.092-.945 15.15z"/>
		<path d="M41.7 72.5a61.458 61.458 0 0 1 .889-12.861c1.2-5.683 5.565-12.821 5.606-12.887v.712c-.041.066-4.062 6.632-5.242 12.252a61.011 61.011 0 0 0-.882 12.769zm2.807.279c-.811-5.9 1.442-13.837 1.464-13.908l.332.853c-.021.069-2.039 7.2-1.245 12.979zm3.862.135c-.3-4.769 0-10.779 0-10.837l.555.221c0 .058-.3 5.954 0 10.69zm4.452 1.991-.571-.835c.086-6.127-.237-13.7-.241-13.78l.546-.607c.003.076.352 9.079.266 15.222z"/>
		<path d="m55.6 108.131-.742-.007c0-.494.438-50.5.007-62.224-.428-11.636-6.374-21.891-6.434-21.993l.64-.375c.061.1 6.1 10.512 6.536 22.341.429 11.744-.007 61.763-.007 62.258zm-2.724-1.401-.56-.305c.108-3.044-.3-23.248-.307-23.451l.536-1.6c.004.202.439 22.296.331 25.356z"/>
		<path d="m60.057 108.265-1.15-37.445c0-.308.138-29.522-.55-35.542-.65-5.685-6.652-13.621-7.215-14.082l.219-.267-.225-.354.372-.021c.649.31 6.9 8.672 7.586 14.64.693 6.062.556 35.322.555 35.617l1.15 37.43z"/>
		<path d="m64.239 108.1-1.258-50.856-.567-18.635c-.012-.117-1.434-14.076-8.675-18.652l.4-.627c7.546 4.77 8.961 18.643 9.015 19.232l.569 18.661 1.255 50.747z"/>
		<path d="M68.07 107.428 66.735 61c-.01-.189-.987-19.781-1.5-27.221-.51-7.322-5.452-13.2-5.5-13.256l.565-.481c.21.247 5.15 6.122 5.677 13.685.518 7.448 1.5 27.047 1.506 27.244l1.337 46.274z"/>
		<path d="M71.265 106.389c-.011-.328-1.165-33.172-1.252-46.109-.089-13.55-.716-23.662-1.26-26.3-.555-2.689-4.053-10.529-4.087-10.6l.656.095c.139.312 3.41 7.649 3.976 10.4.549 2.662 1.181 12.821 1.272 26.406.087 12.93 1.223 45.607 1.235 45.936zm3.149-38.672-.371-.01a43.389 43.389 0 0 0-.826-10.856l.359-.094a43.757 43.757 0 0 1 .838 10.96zm2.986-.657-.371-.012a99.785 99.785 0 0 0-1.109-14.825l.281-.69A107.3 107.3 0 0 1 77.4 67.06zM80.443 66c-.137-13.779-3.349-20.887-3.381-20.958l.208-.461c.034.071 3.407 7.558 3.544 21.414zm3.857-1.6-.368-.041c1.534-13.992-4.3-21.216-4.358-21.286l.39-.138c.061.065 5.891 7.301 4.336 21.465zm-8.672 39.57h-.445c.01-5.455-1.692-17.394-1.71-17.514l.441-.064c.017.12 1.724 12.091 1.714 17.578z"/>
	</g>
	<path d="M90.17 47.815a7.977 7.977 0 0 0-8.934-5.877c-3.206.43-5.394 2.53-5.446 5.224-.186 5.053-.831 7.984-1.922 8.718a1.337 1.337 0 0 1-1.3.045c-1.083-.4-1.046-4.089-1.009-8 .03-2.782.06-5.936-.222-9.1-.728-8.1-2.983-13.5-6.886-16.48-4.763-3.631-9.751-4.359-13.351-1.925a8.557 8.557 0 0 0-3.339 9.438 38.173 38.173 0 0 0 2.568 6.6c1.743 3.687 3.25 6.863 2.96 15.76a26.042 26.042 0 0 1-1.187 6.433c-.007.037-.853 3.443-3.013 2.983a2.919 2.919 0 0 1-2.018-1.388c-1.076-1.892-.089-4.934-.081-4.949.081-.208 1.958-5.12 1.773-8.659a6.618 6.618 0 0 0-6-6.292 9.532 9.532 0 0 0-6.73 1.536c-.356.208-8.57 5.327-7.472 21.065.7 10.084 13.2 10.292 13.327 10.292 3.48.029 9.3.408 10.076 1.32 1.254 1.477 0 6.649-1.209 11.642-1.062 4.4-2.167 8.956-2.093 12.421.082 3.851 1.15 6.716 3 8.066a11.2 11.2 0 0 0 6.715 2.248q.968.067 2.026.067c6.715 0 15.4-2.063 16.925-7.249.4-1.351-.394-4.393-1.4-8.244-1.076-4.111-2.411-9.23-2.471-13.348-.015-.728.193-9.8.238-11.591 8.876-1.571 14.278-4.677 16.044-9.226a19.531 19.531 0 0 0 1.061-6.626 17.874 17.874 0 0 0-.63-4.904zm-.2 6.878v.015a16.718 16.718 0 0 1-.92 4.37c-1.684 4.341-7 7.309-15.79 8.808l-.3.059-.008.3c0 .038-.007.149-.007.319-.008.231-.015.564-.023.98-.022.7-.037 1.617-.066 2.627 0 .193-.008.385-.015.586 0 .1 0 .2-.008.3v.17c-.066 3.072-.133 6.493-.126 6.945.06 4.208 1.41 9.372 2.493 13.527.943 3.584 1.752 6.685 1.41 7.843-1.558 5.268-11.783 7.086-18.186 6.648-3.51-.237-4.942-1.091-6.329-2.107-1.663-1.21-2.612-3.866-2.694-7.479-.067-3.369 1.024-7.873 2.078-12.229 1.365-5.654 2.545-10.536 1.046-12.3-1.232-1.432-9.075-1.565-10.64-1.58-.119 0-11.924-.2-12.585-9.6-1.068-15.248 7.027-20.331 7.146-20.4a8.935 8.935 0 0 1 4.956-1.5 9.362 9.362 0 0 1 1.254.089 5.92 5.92 0 0 1 5.372 5.595 24 24 0 0 1-1.503 7.721c0 .008-.007.015-.007.023a19.35 19.35 0 0 1-.223.623.117.117 0 0 1-.015.037c-.015.067-.059.2-.111.393-.045.178-.1.4-.148.668a.044.044 0 0 1-.008.03 6.805 6.805 0 0 0 .416 4.437 3.638 3.638 0 0 0 2.5 1.751 2.349 2.349 0 0 0 1.091 0c1.61-.364 2.523-2.33 2.8-3.5a26.227 26.227 0 0 0 1.217-6.619c.3-9.075-1.246-12.332-3.027-16.1a37.147 37.147 0 0 1-2.53-6.478 7.824 7.824 0 0 1 3.042-8.622c2.938-1.989 6.782-1.707 10.744.712l.015.015A18.235 18.235 0 0 1 64 22.936a11.177 11.177 0 0 1 1.106.964c3.02 3 4.867 8.036 5.491 15a89.55 89.55 0 0 1 .222 9.023c-.044 4.889-.081 8.125 1.492 8.7a2.038 2.038 0 0 0 1.966-.126c1.343-.9 2.055-3.851 2.256-9.312.052-2.679 2.448-4.192 4.8-4.511a7.264 7.264 0 0 1 8.125 5.35 18.634 18.634 0 0 1 .511 6.669z"/>
</svg>
