<svg xmlns="http://www.w3.org/2000/svg" width="200" height="128">
    <defs>
        <radialGradient id="a" cx="47.023" cy="-114" r="24.87" gradientTransform="translate(0 178)" gradientUnits="userSpaceOnUse">
            <stop offset="0" stop-color="#fff"/>
            <stop offset="1" stop-color="#99d9e8"/>
        </radialGradient>
        <radialGradient id="b" cx="8.517" cy="-120.908" r="25.287" gradientTransform="matrix(.908 0 0 1.009 38.046 180.307)" gradientUnits="userSpaceOnUse">
            <stop offset="0" stop-color="#ccebb9"/>
            <stop offset="1" stop-color="#66bb50"/>
        </radialGradient>
    </defs>
    <g>
        <path d="M47.023 41.487C32.48 41.487 21.1 60.006 20 75.615c4.565 7.916 15.573 10.9 27.023 10.9s22.457-2.982 27.022-10.9c-1.104-15.609-12.48-34.128-27.022-34.128z" fill="url(#a)"/>
        <path d="M69.811 74.658c.074 4.639-10.492 9.057-23.414 9.388-12.923-.331-23.452-4.712-23.415-9.388 0-4.565 10.087-13.99 23.415-14.211 13.327.258 23.414 9.646 23.414 14.211z" fill="url(#b)"/>
        <ellipse cx="46.397" cy="73.517" rx="10.014" ry="4.712" fill="#695114" opacity=".64"/>
        <path d="M44.924 52.937c.847 3.313-2.687 4.823-4.528 7.326-3.166 4.013-5.375 12.149.184 15.463l.663.331c3.2 1.436 7.731 1.031 10.823-.479a4.91 4.91 0 0 0 2.945-3.166c.4-2.209-2.245-3.019-2.135-5.191a4.86 4.86 0 0 1 .847-2.5c.736-1.252 1.068-3.792-.994-3.976.11.883-1.325 3.534-2.651 2.466-.773-.625.111-2.061.295-2.8.883-4.049-.957-9.5-5.928-10.529" fill="#ff7f00"/>
        <path d="M49.526 70.535a4.972 4.972 0 0 1 0 1.8 4.2 4.2 0 0 1-.626 1.583 2.541 2.541 0 0 1-.589.662c-.11.074-.221.185-.331.258a1.666 1.666 0 0 1-.4.111 2.577 2.577 0 0 1-.737.11c-.257 0-.552-.037-.809-.037h-.185a3.218 3.218 0 0 1-1.546-.515 5.518 5.518 0 0 1-1.4-1.031 5.258 5.258 0 0 1-.92-6.369c.957-1.841 2.835-3.2 3.792-5.044A3.766 3.766 0 0 0 46.176 61a2.684 2.684 0 0 0-.111-1.326c.037.037.368.147.405.184a1.145 1.145 0 0 1 .258.332 1.789 1.789 0 0 1 .074.883 2.653 2.653 0 0 1-.258.921c-.184.368-.221.809-.4 1.178a8.3 8.3 0 0 1-.479.994 3.008 3.008 0 0 0-.515 1.031 7.476 7.476 0 0 0-.221 1.546 3.92 3.92 0 0 0 .773 1.914 1.458 1.458 0 0 0 1.841.773 4.665 4.665 0 0 0 2.356-2.466c-.888 1.767-.699 1.914-.373 3.571z" fill="#ff0"/>
        <path d="M45.7 73.554a1.719 1.719 0 0 1-1.546-1.178 4.729 4.729 0 0 1-.258-2.357 5.758 5.758 0 0 0 .258-.736c.074-.3.037-.7.294-.92.111-.074.148.7.148.736 0 .11-.074.331 0 .442.11.221.221.073.294.11.332.3.442.957.663 1.362.589 1.142 1.546 1.547 2.614.516a3.047 3.047 0 0 1-1.657 1.583" fill="#fff" opacity=".75"/>
        <path d="M67.418 69.909c-2.687-.884-4.381 6.848-8.909 9.609-4.234 2.614-9.977 3.387-12.922 4.344A44.28 44.28 0 0 0 64.142 80.4c3.939-1.656 8.578-5.191 3.276-10.492M26.59 78.929c-4.307-2.835 4.749-12.223 6.369-14.727-2.062.332-6.884 4.566-8.173 6.443-2.246 3.277-2.945 5.78 1.436 8.468" fill="#695114" opacity=".15"/>
        <path d="M89.581 75.21C84.317 75.21 81 71.492 81 65.9s3.424-9.388 8.541-9.388a9.38 9.38 0 0 1 5.044 1.325l-.515 3.277a7.281 7.281 0 0 0-4.381-1.583c-3.2 0-5.154 2.43-5.154 6.369 0 3.976 2.1 6.332 5.3 6.332a8.067 8.067 0 0 0 4.565-1.513l.479 2.982a10.326 10.326 0 0 1-5.298 1.509zM104.344 74.879l-.258-1.657a5.593 5.593 0 0 1-4.2 1.915 3.306 3.306 0 0 1-3.572-3.5c0-3.055 2.5-4.381 7.621-4.9v-.368c0-1.363-.773-1.878-2.172-1.878a9.807 9.807 0 0 0-4.2 1.031l-.4-2.5a12.93 12.93 0 0 1 5.044-1.03c3.276 0 4.9 1.214 4.9 4.233v8.652zm-.442-6.3c-3.644.441-4.491 1.509-4.491 2.724a1.394 1.394 0 0 0 1.546 1.472 4.228 4.228 0 0 0 2.945-1.362zM124.372 74.879V66.6c0-1.1-.405-1.84-1.546-1.84a4.166 4.166 0 0 0-2.8 1.583v8.578H116.9v-8.289c0-1.1-.405-1.84-1.583-1.84a4.166 4.166 0 0 0-2.8 1.583v8.578h-3.129V62.325h2.687l.3 1.767a5.937 5.937 0 0 1 4.16-2.025 3.114 3.114 0 0 1 3.24 2.025 5.947 5.947 0 0 1 4.2-2.025c2.393 0 3.571 1.436 3.571 3.792v9.094h-3.166v-.074zM135.674 75.026a8.14 8.14 0 0 1-2.945-.515v4.749l-3.129.479V62.214h2.687l.295 1.731a5.062 5.062 0 0 1 3.865-1.988c2.651 0 4.749 1.988 4.749 6.222.004 4.749-2.613 6.847-5.522 6.847zm-.074-10.271a3.629 3.629 0 0 0-2.835 1.767v5.412a4.941 4.941 0 0 0 2.43.552c1.619 0 2.871-1.325 2.871-4.123-.036-2.43-1.03-3.608-2.466-3.608zM148.375 58.791c-1.067 0-1.656.478-1.656 1.583v1.84h2.393l.405 2.578h-2.8v10.087h-3.13V64.792h-1.84v-2.578h1.84v-2.172c0-2.8 1.768-3.865 4.382-3.865a6.009 6.009 0 0 1 1.288.11l.405 2.577a11.053 11.053 0 0 0-1.287-.073zM152.352 60.116a1.794 1.794 0 0 1-1.878-1.767 1.831 1.831 0 0 1 1.878-1.841 1.8 1.8 0 1 1 0 3.608zm-1.62 14.763V62.251h3.129v12.628zM160.083 67.626v7.253h-3.13V62.251h2.688l.405 2.541a4.943 4.943 0 0 1 4.05-2.8l.515 3.129a5.707 5.707 0 0 0-4.528 2.505zM175.987 69.173h-8.1c.147 2.466 1.472 3.534 3.387 3.534a7.244 7.244 0 0 0 4.344-1.583l.368 2.466a8.545 8.545 0 0 1-5.044 1.547c-3.534 0-6.185-2.025-6.185-6.553 0-4.124 2.467-6.59 5.744-6.59 3.792 0 5.485 2.871 5.485 6.442a4.894 4.894 0 0 1 .001.737zm-5.522-5.044c-1.252 0-2.283.994-2.5 3.056h5.044c-.262-1.952-1.035-3.056-2.544-3.056z"/>
        <path d="M177.386 57.244v.332h-.663v1.693h-.405v-1.693h-.662v-.332zm2.209 2.025l-.074-1.215V57.5h-.036a3.605 3.605 0 0 1-.185.589l-.368 1.141h-.405l-.368-1.178c-.037-.147-.11-.405-.147-.589h-.037v.552l-.074 1.215h-.4l.147-2.024h.589l.368.994a6.6 6.6 0 0 0 .147.515c.037-.184.111-.368.148-.515l.368-.994h.589l.143 2.026-.405.037z" fill="#cccbcb"/>
    </g>
</svg>
