<svg xmlns="http://www.w3.org/2000/svg" viewBox="59.72 68.97 365.82 290.82">
	<g data-name="Layer 2">
		<path fill="#26347a" d="M359.61 164.067q2.637-2.227 5.114-4.467a188.88 188.88 0 0 0 3.53-3.274c23.503-22.335 34.68-44.888 27.236-60.87-13.13-28.197-79.164-25.261-147.49 6.557-41.359 19.26-74.076 44.688-90.547 68.014-42.886 12.76-70.248 28.579-67.3 41.32.587 2.532 2.35 4.81 5.14 6.83 3.496-9.91 23.275-21.208 53.06-31.397-2.83 7.709-3.398 14.902-1.35 21.207 8.224 27.662 63.744 51.558 132.196 55.262 75.261 4.073 137.635-17.803 139.315-48.862 1.064-19.652-22.443-38.262-58.904-50.32zM252.63 106.89c49.952-23.261 99.288-23.13 110.196.295 5.613 12.053-.083 27.923-13.705 43.66-2.012 2.326-5.408 5.858-7.757 8.165a45.477 45.477 0 0 0-5.416-1.402 311.002 311.002 0 0 0-50.662-6.832 327.338 327.338 0 0 0-25.211-.384c-27.675.636-73.992 12.13-74.956 12.353 10.35-19.472 35.056-40.74 67.512-55.855zm-67.47 89.524c-.559-8.875 9.72-18.725 22.465-25.455 18.824-9.938 47.575-15.427 79.453-13.702 4.566.248 9.045.644 13.434 1.162a186.766 186.766 0 0 1 33.642 7.015 192.996 192.996 0 0 1-42.02 26.283c-46.095 21.465-105.95 20.739-106.974 4.697zm96.861 54.28c-30.889-1.671-58.134-9.758-75.847-21.095 25.81-1.988 57.342-10.557 89.378-25.475a301.935 301.935 0 0 0 54.714-32.583c21.44 9.755 34.688 23.403 33.908 37.826-1.397 25.802-47.132 44.305-102.153 41.328z"/>
		<path fill="#ef463e" d="M85.047 233.206a9.943 9.943 0 1 1-2.397-13.856 9.943 9.943 0 0 1 2.397 13.856zm88.049 115.216a32.983 32.983 0 0 1-12.93-12.264 35.758 35.758 0 0 1 0-35.46 32.997 32.997 0 0 1 12.93-12.263 38.42 38.42 0 0 1 18.491-4.421 38.807 38.807 0 0 1 15.639 3.042 31.342 31.342 0 0 1 11.74 8.746l-9.887 9.127a21.263 21.263 0 0 0-16.732-7.796 22.211 22.211 0 0 0-11.027 2.71 19.259 19.259 0 0 0-7.559 7.558 23.8 23.8 0 0 0 0 22.055 19.259 19.259 0 0 0 7.559 7.558 22.211 22.211 0 0 0 11.027 2.71 21.153 21.153 0 0 0 16.732-7.89l9.887 9.125a30.811 30.811 0 0 1-11.788 8.842 39.148 39.148 0 0 1-15.687 3.042 38.218 38.218 0 0 1-18.395-4.42zm96.92-10.98H239.12l-5.894 14.26h-15.781l29.66-66.547h15.212l29.756 66.547H275.91zm-4.848-11.693-10.552-25.478-10.552 25.478zm76.197-37.647a22.814 22.814 0 0 1 10.03 8.366 25.086 25.086 0 0 1 0 25.621 22.398 22.398 0 0 1-10.03 8.365 37.47 37.47 0 0 1-15.353 2.9h-13.404v18.348h-15.402v-66.547h28.806a36.983 36.983 0 0 1 15.353 2.947zm-5.656 29.709q3.611-2.996 3.613-8.509 0-5.609-3.613-8.603-3.615-2.995-10.553-2.996h-12.548v23.102h12.548q6.938 0 10.553-2.994zm79.857 21.533v12.358h-51.528v-66.547h50.291v12.359h-34.985v14.45h30.897v11.979h-30.897v15.401z"/>
		<path fill="none" d="M0 0h484.543v424.401H0z"/>
	</g>
</svg>
