<svg xmlns="http://www.w3.org/2000/svg" viewBox="-11.14 -11.14 579.28 221.78">
	<path fill="#cf1f27" d="M534.012 18.599C496.605-22.663 255.9 14.452 153.539 36.814l-2.384.516a.905.905 0 1 0 .312 1.784l2.368-.462c84.804-15.099 261.164-36.034 299.114 1.596 11.578 11.478 8.817 26.27-4.606 43.717 7.239 4.651 12.392 11.964 14.713 21.116 52.408-34.866 87.624-68.099 70.956-86.482zM378.248 144.695a.756.756 0 0 1-.075.053c-23.73 16.8-51.842 34.447-82.084 52.967l-1.194.697a.9.9 0 0 0-.216 1.257.894.894 0 0 0 1.254.219l1.008-.532c25.647-13.387 55.108-29.278 84.75-45.58.162-.087.315-.177.475-.263a37.08 37.08 0 0 1-3.918-8.818"/>
	<path fill="#193a59" d="M381.12 133.081c-.86-24.773 18.551-50.108 46.745-50.108 18.86 0 31.202 12.565 31.89 31.809.904 26.131-17.229 50.117-46.745 50.117-18.863 0-31.204-12.54-31.89-31.818zm12.266.779c.485 14.52 9.665 26.406 21.649 26.406 23.217 0 33.098-28.504 32.41-47.555-.49-14.552-9.915-26.416-21.878-26.416-19.972 0-32.862 28.387-32.18 47.565M138.54 111.294c-.103 2.277-.492 4.272-1.103 7.752l-4.15 23.275c-.355 2.064.411 3.69 2.331 4.798l-.128.909-23.743-.032-.215-5.919c-3.457 2.085-7.63 3.844-11.406 4.876-3.76.965-6.807 1.395-11.378 1.395-7.67 0-12.065-.798-15.092-3.455-3.083-2.745-4.573-4.56-4.427-8.334.119-2.17 1.241-4.956 2.87-6.906 1.645-1.982 3.883-3.274 6.32-4.415 2.45-1.169 5.332-2.012 9.527-2.674 4.201-.684 10.048-1.363 17.882-2.017 4.115-.342 6.622-1.297 7.803-1.764 1.635-.636 2.276-1.338 2.518-2.671.438-2.395-.327-3.755-3.502-4.389-8.557-1.681-24.586 1.087-32.851 3.156l4.492-12.114c10.898-1.59 21.115-2.609 31.864-2.609 17.087 0 22.56 4.876 22.388 11.138zm-24.511 15.243c-1.01.379-2.309.756-3.922 1.093-1.608.363-4.55.886-8.82 1.56-2.942.463-4.98 1.078-6.145 1.91-1.112.828-1.766 1.808-1.954 3.005-.23 1.28.188 2.3 1.296 3.1 1.126.787 3.014 1.192 5.683 1.192 1.997 0 3.958-.324 5.855-.929 1.92-.628 3.535-1.484 4.785-2.54.913-.79 1.568-1.795 2.056-3 .283-.792.688-2.58 1.166-5.39m102.834-35.784c.68-3.823 6.714-6.927 13.454-6.927 6.753 0 11.681 3.104 11.03 6.927-.713 3.825-6.735 6.922-13.492 6.922-6.775 0-11.676-3.097-10.992-6.922zm-9.5 57.274 8.241-46.504h22.733l-8.24 46.504h-22.734m136.215-36.645c-.093 2.283-.497 4.295-1.124 7.744l-4.117 23.305c-.357 2.052.404 3.67 2.316 4.813l-.141.807-23.736.045-.182-5.93c-3.47 2.101-7.667 3.849-11.415 4.868-3.78.993-6.823 1.4-11.42 1.4-7.66 0-12.023-.769-15.063-3.445-3.095-2.753-4.59-4.558-4.423-8.322.086-2.185 1.226-4.988 2.862-6.908 1.644-2.005 3.885-3.273 6.336-4.423 2.448-1.151 5.343-2.004 9.487-2.699 4.222-.653 10.09-1.364 17.916-2.017 4.076-.342 6.586-1.269 7.757-1.718 1.657-.64 2.312-1.358 2.555-2.696.421-2.347-.328-3.746-3.484-4.384-8.596-1.697-24.586 1.09-32.849 3.143l4.468-12.109c10.941-1.598 21.105-2.62 31.87-2.62 17.078 0 22.527 4.898 22.387 11.146zm-24.503 15.267c-1.019.347-2.34.723-3.945 1.093-1.592.38-4.536.85-8.832 1.552-2.923.465-4.999 1.08-6.121 1.914-1.09.8-1.739 1.794-1.97 2.991-.24 1.286.231 2.324 1.298 3.095 1.148.789 3.05 1.174 5.72 1.174 1.981 0 3.92-.297 5.832-.896 1.937-.65 3.547-1.476 4.805-2.544.873-.788 1.548-1.815 2.022-3.02.292-.778.688-2.57 1.191-5.359m-252.953 4.662c-7.4 1.468-11.563 2.032-18.88 2.032-10.862 0-19.487-5.392-19.021-15.276.33-6.583 8.132-20.477 27.95-20.477 6.235 0 11.112 1.105 17.67 4.842l2.878-16.153c-8.915-3.371-14.822-3.877-22.476-3.793-25.966.279-50.925 12.092-54.013 36.1-3.148 24.398 26.653 30.534 39.883 30.478 7.64-.023 15.58-.335 22.994-1.103l3.015-16.65m184.744-30.059 1.635-9.468 23.778-5.176-2.532 14.644h11.644l-2.212 9.369-11.295-.026-6.864 37.4s-22.892-.152-22.972 0l6.833-37.31h-8.643l1.754-9.433h8.874m115.79 46.742-23.155.033 11.648-64.885 22.557.636-11.05 64.217m-230.756 16.089 11.063-62.331h19.965l-1.545 7.956c1.733-2.374 4.501-4.325 8.318-5.916 3.854-1.575 8.19-2.744 12.897-2.744 5.21 0 8.424.28 12.324 2.3 3.879 2.035 6.58 4.981 8.054 8.825 1.496 3.781 1.807 8.035.998 12.662-1.35 7.68-5.099 13.742-11.237 18.192-6.095 4.448-11.575 5.617-19.408 5.648-2.774 0-5.093-.288-7.02-.759-1.882-.493-3.38-1.09-4.527-1.817-1.091-.736-2.251-1.752-3.743-3.381l-3.717 21.365zm41.393-51.663c-2.978 0-5.674.9-8.072 2.708-2.373 1.812-3.885 4.446-4.497 7.962-.714 4.061-.296 6.972 1.31 8.777 1.627 1.784 3.962 2.683 7.03 2.683 2.065 0 4.212-.37 5.785-1.15 1.945-1.028 3.29-2.116 4.45-3.824 1.255-1.804 2.078-3.81 2.5-6.138.651-3.671.1-6.424-1.602-8.237-1.657-1.864-3.94-2.78-6.904-2.78m373.33 34.337 1.8 1.22c-4.546 9.26-13.817 16.715-24.696 16.715-8.896 0-16.189-5.92-16.575-17.045-.72-19.933 17.954-38.451 33.25-38.451 6.56 0 12.642 2.866 12.914 9.928.564 15.852-21.697 20.701-36.36 21.03-.478 1.654-.655 3.321-.57 5.855.241 6.571 4.221 12.1 12.441 12.1 7.104 0 14.206-5.718 17.796-11.352zm-1.996-28.628c-.13-3.75-2.014-6.268-5.883-6.268-9.325 0-19.24 18.264-20.953 25.63 15.299 0 27.206-9.113 26.836-19.362"/>
	<path fill="#193a59" d="M459.42 117.609c1.578-.21 4.12-.488 5.218-.488 1.676 0 3.246.316 3.324 1.97.03.984-1.743 8.044-2.119 9.683l-3.544 15.637c-1.43 6.398-2.985 13.098-4.361 18.39h9.11l5.119-24.769c15.625-16.274 21.637-21.58 25.329-21.58 1.656 0 2.8.87 2.88 2.857.09 2.865-1.682 9.368-2.302 11.232l-5.225 18.066c-1.187 4.06-2.065 7.719-1.984 10.337.16 3.967 2.557 5.729 6.117 5.729 6.659 0 11.488-6.938 15.715-13.755l-1.238-2.236c-1.712 2.742-5.656 8.724-8.772 8.724-.985 0-1.913-.656-1.946-2.308-.094-2.115.8-5.267 1.412-7.363l5.804-21.165c1.554-5.829 2.302-9.58 2.262-11.576-.144-3.952-2.452-5.8-5.986-5.8-5.99 0-13.956 4.377-30.802 23.773h-.241l2.12-9.466c1.153-5.175 2.28-10.576 3.373-14.307-5.825 2.1-14.181 4.45-19.344 5.447l.08 2.968"/>
</svg>
