<svg xmlns="http://www.w3.org/2000/svg" style="isolation:isolate" viewBox="0 0 362.34 52.84" width="483.12" height="70.453">
	<defs>
		<clipPath id="a">
			<path d="M0 0h362.34v52.84H0z"/>
		</clipPath>
	</defs>
	<g clip-path="url(#a)">
		<path d="m86.44 19.05-.35 2a4.65 4.65 0 0 0 .49 3h19.64l-6.92-4A3.59 3.59 0 0 1 98.16 19H86.44v.05Z" fill="#F74020"/>
		<path d="m101.94 33.78 3.59 2.07a3.65 3.65 0 0 1 1.59 4.43c-.174.472-.45.899-.81 1.25h11.4c.47-2.46 1-5.52 1.18-6.63a5.986 5.986 0 0 0 0-1.12h-17 .05Z" fill="#F74020"/>
		<path d="m88.51 26 10.74 6.2h19.33a4.509 4.509 0 0 0-2.1-2.38c-1.66-.88-3.59-1.91-4.69-2.55L109.58 26H88.51Z" fill="#F74020"/>
		<path d="m87.4 13.63-.62 3.49h10.77a3.53 3.53 0 0 1 2.64-3.49H87.4Z" fill="#F74020"/>
		<path d="M88.48 7.82a6.13 6.13 0 0 0-.19.74l-.48 2.74H123l.68-3.48h-35.2Z" fill="#F74020"/>
		<path d="M94.47 3.38a6.279 6.279 0 0 0-4.69 2.11h34.31l.42-2.11H94.47Z" fill="#F74020"/>
		<path d="M33.28 42.69H0a11 11 0 0 0 11 10.1h20.69l1.78-10.1h-.19Z" fill="#F74020"/>
		<path d="m13.64 24.09.89-5.04H3.84l-.89 5.04H13.64Z" fill="#F74020"/>
		<path d="M11.71 41.53A3.12 3.12 0 0 1 11 39l.92-5.19H1.24l-1.08 6.1A10.014 10.014 0 0 0 0 41.53h11.71Z" fill="#F74020"/>
		<path d="m12.21 32.23 1.09-6.2H2.61l-1.1 6.2h10.7Z" fill="#F74020"/>
		<path d="M14.89 17.12a4.68 4.68 0 0 1 3.55-3.49H4.8v.11l-.59 3.38h10.68Z" fill="#F74020"/>
		<path d="M40 5.49H10.17a12.467 12.467 0 0 1 7-2.11h52.3a12.434 12.434 0 0 1 7 2.11H40Z" fill="#F74020"/>
		<path d="M65.14 52.79h-27.9L39 42.69h78.45C117.23 44.05 117 45 117 45a9.41 9.41 0 0 1-9.26 7.78h-42.6v.01Z" fill="#F74020"/>
		<path d="M47.08 24.09h5.96l.9-5.04H43.25l-.9 5.04h4.73Z" fill="#F74020"/>
		<path d="M75.66 19.05h-4.75l-.88 5.04H80.72l.89-5.04h-5.95Z" fill="#F74020"/>
		<path d="M45.55 33.78h-4.92l-1.39 7.75h10.67l1.39-7.75h-5.75Z" fill="#F74020"/>
		<path d="m68.32 33.78-.88 5a4.72 4.72 0 0 1-1.59 2.76h11.8L79 33.78H68.32Z" fill="#F74020"/>
		<path d="M45.76 32.23h5.82l1.11-6.2H42.01l-.86 4.81-.25 1.39h4.86Z" fill="#F74020"/>
		<path d="m69.68 26.03-1.09 6.2h10.7l1.09-6.2h-10.7Z" fill="#F74020"/>
		<path d="m54.29 17.12.62-3.49H44.22l-.62 3.49h10.69Z" fill="#F74020"/>
		<path d="M76.17 13.63h-8.85a4.718 4.718 0 0 1 3.54 3.49h11a12.642 12.642 0 0 0-.15-3.49h-5.54Z" fill="#F74020"/>
		<path d="M44.63 11.3h36.46A12.796 12.796 0 0 0 79 7.82H7.55a12.46 12.46 0 0 0-2.08 3.48h39.16Z" fill="#F74020"/>
		<path d="m45.69 5.36-.02.13"/>
		<path d="M288.81 13.64h-6.27l-1.96 11.25h-13.45l-.94 5.41h13.45l-2.94 16.91H262l-.65 5.47h35.9l.68-5.47h-14.99l2.95-16.91h13.57l.95-5.41h-13.57l1.97-11.25Z" fill="#230D59"/>
		<path d="M277.93 0h-7L268 4.66h-14.52l-.94 5.54h11.78q-3 4.48-6.76 9.38t-8.59 11h6.9l-3.51 22.22h6.23l5.15-31.7 3.93-5.48c1.28-1.79 2.53-3.59 3.74-5.42h31.31l1-5.54H275L277.93 0Z" fill="#230D59"/>
		<path d="M323.18 46.99h-19.74l-.85 5.81h19.72l.87-5.81Z" fill="#230D59"/>
		<path d="M304.41 41h19.44l1-5.75h-9.93Q318 30.68 321.23 25q3.23-5.68 6-11.34h-6.38c-.51 1.14-1.14 2.38-1.87 3.73h-2.58c.71-1.18 1.45-2.47 2.21-3.85s1.54-2.82 2.31-4.28c.77-1.46 1.53-3 2.26-4.47.73-1.47 1.39-3 2-4.4h-6.46q-.92 2.27-2.28 5.11c-.91 1.89-1.89 3.85-3 5.87s-2.17 4-3.31 6c-1.14 2-2.22 3.83-3.24 5.5H316q-2.64 4.53-5.63 9.18-2.99 4.65-5.93 9" fill="#230D59"/>
		<path d="M183.46 2.16q.6-1.2 1-2.13h-7.57c-.29.59-.64 1.27-1.06 2-.42.73-.83 1.6-1.29 2.37h-16.42c-.19-.81-.4-1.61-.63-2.39a20.177 20.177 0 0 0-.69-2h-7.57q.28.83.57 2c.19.8.38 1.59.57 2.36h-10.15l-.82 5.36h21.69c-.37.86-.76 1.72-1.17 2.6-.41.88-.84 1.76-1.3 2.65h-16.2l-5.83 37.76h39.8a5.38 5.38 0 0 0 5.08-4.37L186.83 15h-20.06c.44-.82.87-1.67 1.28-2.56.41-.89.79-1.79 1.13-2.69h22.21l.86-5.36h-10c.42-.7.83-1.44 1.23-2.24M177 36.57h-31.54l.84-5.42h31.57l-.87 5.42Zm-32.38 5.31h31.53l-.4 2.53-.14.88-.33 2.06h-31.5l.84-5.47Zm35-21.57-.89 5.6h-31.61l.86-5.6h31.64Z" fill="#230D59"/>
		<path d="M221.79 52.83h5.89L235 6h6.78c-.33 1.28-.72 2.7-1.18 4.25-.46 1.55-1 3.16-1.51 4.81-.51 1.65-1.14 3.34-1.76 5.07-.62 1.73-1.26 3.41-1.93 5h3.86l-1.58 9.44a26.151 26.151 0 0 1-2.48 7.81 26.359 26.359 0 0 1-4.34 6h6.94a25.144 25.144 0 0 0 3.33-6.09 38.663 38.663 0 0 0 2.1-7.72l2.38-14.1h-2.71c.44-1.25.92-2.67 1.42-4.29.5-1.62 1-3.27 1.52-5s1-3.43 1.45-5.16c.45-1.73.89-3.33 1.25-4.81H229.9l-8.11 51.62Z" fill="#230D59"/>
		<path d="m202.66 23.52 2-4h20.63l.84-5.07h-4c.57-1.09 1.09-2.13 1.57-3.12.48-.99.94-2 1.41-3S226 6.17 226.43 5c.43-1.17.91-2.37 1.41-3.73h-5.46a77.61 77.61 0 0 1-2.73 6.56c-.97 2.04-2.08 4.23-3.36 6.56h-4.89l.92-5.6h5.94l.83-5h-6l.67-3.79h-6l-.62 3.79h-9l-.81 5h9l-.92 5.6h-10.17l-.82 5.07h4.27q-1.41 2.91-3.15 6.06-1.74 3.15-3.94 6.68h4l-3.35 20.63h21.45a5.41 5.41 0 0 0 5.13-4.38L223 23.52h-20.34Zm-.75 4.95h14.52l-1.19 7.23h-14.51l1.18-7.23Zm-2 12.12h14.5l-.6 3.62-.28 1.66a.215.215 0 0 1 0 .08l-.32 1.93h-14.46l1.16-7.29Z" fill="#230D59"/>
		<path d="M357.29 12.74a5.052 5.052 0 0 1-4.706-3.094 5.053 5.053 0 0 1 1.085-5.527 5.053 5.053 0 0 1 5.527-1.085 5.052 5.052 0 0 1 3.094 4.706 5 5 0 0 1-5 5Z" fill="#F74020"/>
		<path d="M342.92 16.49c0-.93.05-1.88.11-2.85L353 13a6.83 6.83 0 0 1-2.49-5l-7.15.48q.29-4.14 1-8.51h-6.1c-.2 1.55-.4 3.07-.59 4.55-.19 1.48-.33 2.91-.43 4.31l-8.3.46-.94 5.22 8.88-.46c-.13 2-.15 4.8-.13 6.63l-10.4.71-.93 5.18 11.58-.8c.116 2.348.38 4.686.79 7 .43 2.476.998 4.927 1.7 7.34q-3.63 3.27-7.7 6.44c-2.72 2.12-5.47 4.19-8.52 6.21H332c1.59-1.09 3-2.23 4.6-3.44 1.6-1.21 3.51-2.62 5.08-4 .432 1.198.94 2.367 1.52 3.5a33.834 33.834 0 0 0 2.38 3.89h9.05c-1.56-1-3.73-4.2-4.93-6.06a31.518 31.518 0 0 1-3.06-6.18q3.21-3.2 6.32-6.73c2.06-2.35 3.36-3.92 5.39-6.49h-6.43A86.927 86.927 0 0 1 345 35c-.43-1.71-.8-3.45-1.09-5.22a42.729 42.729 0 0 1-.62-4.52L358.47 24l.95-5.18L343 20.15c-.06-.89-.09-2.72-.08-3.66Z" fill="#230D59"/>
	</g>
</svg>
