<svg xmlns="http://www.w3.org/2000/svg" height="200.053" width="557.347" xml:space="preserve">
	<path style="fill:#cf1f27;fill-opacity:1;fill-rule:nonzero;stroke:none" d="M4005.19 1360.94c-280.56 309.47-2085.89 31.1-2853.62-136.62l-17.88-3.87c-3.69-.65-6.14-4.18-5.52-7.85a6.788 6.788 0 0 1 7.86-5.53l17.76 3.47c636.05 113.24 1958.78 270.26 2243.41-11.97 86.84-86.09 66.13-197.03-34.54-327.89 54.29-34.883 92.94-89.727 110.35-158.371 393.07 261.5 657.19 510.751 532.18 648.631zM2836.93 415.199a5.664 5.664 0 0 0-.56-.398c-177.98-126-388.83-258.36-615.65-397.262l-8.95-5.23c-3.02-2.16-3.81-6.329-1.62-9.43 2.12-3.07 6.33-3.8 9.4-1.64l7.56 3.991c192.36 100.399 413.32 219.59 635.65 341.86 1.21.648 2.36 1.32 3.56 1.969-12.22 20.031-22.25 42.019-29.39 66.14" transform="matrix(.13333 0 0 -.13333 0 200.053)"/>
	<path style="fill:#193a59;fill-opacity:1;fill-rule:nonzero;stroke:none" d="M2858.47 502.301c-6.45 185.804 139.14 375.824 350.6 375.824 141.45 0 234.02-94.242 239.18-238.574 6.78-195.992-129.22-375.891-350.6-375.891-141.47 0-234.03 94.059-239.18 238.641zm92-5.84c3.64-108.91 72.49-198.051 162.37-198.051 174.13 0 248.24 213.785 243.08 356.668-3.68 109.145-74.36 198.125-164.09 198.125-149.79 0-246.47-212.906-241.36-356.742" transform="matrix(.13333 0 0 -.13333 0 200.053)"/>
	<path style="fill:#193a59;fill-opacity:1;fill-rule:nonzero;stroke:none" d="M1039.08 665.707c-.77-17.078-3.69-32.035-8.27-58.141L999.684 433c-2.664-15.48 3.086-27.68 17.486-35.988l-.96-6.813-178.081.242-1.609 44.387c-25.93-15.637-57.227-28.828-85.547-36.566-28.207-7.242-51.055-10.461-85.336-10.461-57.524 0-90.489 5.98-113.196 25.91-23.125 20.59-34.3 34.199-33.203 62.508.891 16.269 9.309 37.168 21.532 51.797 12.332 14.859 29.113 24.55 47.398 33.113 18.371 8.762 39.984 15.09 71.453 20.051 31.508 5.133 75.359 10.226 134.117 15.129 30.864 2.566 49.668 9.73 58.52 13.23 12.269 4.774 17.074 10.035 18.887 20.035 3.289 17.961-2.454 28.164-26.262 32.914-64.18 12.614-184.399-8.152-246.391-23.664l33.692 90.852c81.734 11.929 158.363 19.57 238.984 19.57 128.16 0 169.202-36.574 167.912-83.539zM855.246 551.383c-7.57-2.84-17.316-5.668-29.414-8.199-12.062-2.719-34.125-6.645-66.152-11.7-22.063-3.468-37.348-8.082-46.086-14.328-8.344-6.203-13.25-13.558-14.66-22.535-1.731-9.601 1.41-17.25 9.718-23.25 8.446-5.902 22.61-8.941 42.625-8.941 14.977 0 29.684 2.429 43.914 6.968 14.399 4.711 26.516 11.133 35.891 19.051 6.848 5.922 11.758 13.465 15.418 22.504 2.121 5.938 5.16 19.344 8.746 40.43" transform="matrix(.13333 0 0 -.13333 0 200.053)"/>
	<path style="fill:#193a59;fill-opacity:1;fill-rule:nonzero;stroke:none" d="M1626.52 819.766c5.1 28.672 50.36 51.949 100.91 51.949 50.65 0 87.61-23.277 82.72-51.949-5.34-28.688-50.51-51.922-101.19-51.922-50.81 0-87.57 23.234-82.44 51.922zm-71.25-429.567 61.81 348.785h170.5l-61.8-348.785h-170.51" transform="matrix(.13333 0 0 -.13333 0 200.053)"/>
	<path style="fill:#193a59;fill-opacity:1;fill-rule:nonzero;stroke:none" d="M2576.91 665.039c-.7-17.121-3.73-32.211-8.43-58.082l-30.88-174.785c-2.68-15.391 3.03-27.524 17.37-36.102l-1.06-6.05-178.02-.34-1.37 44.48c-26.03-15.762-57.5-28.871-85.61-36.512-28.35-7.449-51.18-10.5-85.65-10.5-57.46 0-90.18 5.762-112.98 25.832-23.21 20.649-34.42 34.192-33.17 62.418.64 16.391 9.19 37.415 21.46 51.813 12.33 15.035 29.14 24.551 47.52 33.172 18.36 8.637 40.08 15.031 71.16 20.242 31.66 4.902 75.67 10.23 134.37 15.133 30.57 2.562 49.4 9.515 58.18 12.883 12.43 4.804 17.34 10.187 19.16 20.222 3.16 17.598-2.46 28.094-26.13 32.879-64.47 12.727-184.4-8.172-246.37-23.574l33.51 90.82c82.06 11.989 158.29 19.649 239.03 19.649 128.09 0 168.96-36.735 167.91-83.598zm-183.78-114.504c-7.64-2.601-17.55-5.418-29.59-8.195-11.94-2.852-34.02-6.379-66.24-11.641-21.92-3.488-37.49-8.101-45.91-14.359-8.17-5.996-13.04-13.449-14.78-22.43-1.79-9.648 1.74-17.43 9.74-23.211 8.61-5.918 22.88-8.808 42.9-8.808 14.86 0 29.41 2.23 43.74 6.718 14.53 4.871 26.61 11.071 36.04 19.082 6.55 5.911 11.61 13.614 15.17 22.653 2.19 5.836 5.16 19.281 8.93 40.191" transform="matrix(.13333 0 0 -.13333 0 200.053)"/>
	<path style="fill:#193a59;fill-opacity:1;fill-rule:nonzero;stroke:none" d="M495.934 515.57c-55.496-11.011-86.723-15.242-141.602-15.242-81.469 0-146.16 40.442-142.664 114.574 2.484 49.371 60.996 153.582 209.633 153.582 46.762 0 83.34-8.285 132.535-36.316l21.582 121.152c-66.871 25.282-111.168 29.078-168.578 28.446-194.75-2.09-381.945-90.688-405.106-270.75C-21.875 428.02 201.637 382 300.86 382.422c57.309.168 116.856 2.508 172.461 8.269l22.614 124.879" transform="matrix(.13333 0 0 -.13333 0 200.053)"/>
	<path style="fill:#193a59;fill-opacity:1;fill-rule:nonzero;stroke:none" d="m1881.55 741.016 12.26 71.015 178.34 38.817-18.99-109.832h87.33l-16.59-70.266-84.71.195-51.48-280.504s-171.7 1.137-172.3 0l51.25 279.832h-64.82l13.15 70.743h66.56" transform="matrix(.13333 0 0 -.13333 0 200.053)"/>
	<path style="fill:#193a59;fill-opacity:1;fill-rule:nonzero;stroke:none" d="m2750 390.441-173.67-.242 87.36 486.645 169.18-4.77L2750 390.441" transform="matrix(.13333 0 0 -.13333 0 200.053)"/>
	<path style="fill:#193a59;fill-opacity:1;fill-rule:nonzero;stroke:none" d="m1019.28 269.77 82.98 467.492H1252l-11.59-59.672c13 17.808 33.76 32.437 62.39 44.367 28.9 11.816 61.42 20.586 96.73 20.586 39.07 0 63.18-2.105 92.43-17.25 29.09-15.266 49.35-37.363 60.41-66.191 11.22-28.36 13.55-60.262 7.48-94.965-10.12-57.606-38.24-103.067-84.28-136.446-45.71-33.363-86.81-42.132-145.56-42.363-20.81 0-38.2 2.16-52.65 5.692-14.12 3.699-25.36 8.171-33.96 13.628-8.18 5.52-16.88 13.141-28.07 25.364l-27.88-160.242Zm310.46 387.476c-22.34 0-42.56-6.742-60.54-20.305-17.8-13.593-29.14-33.351-33.73-59.722-5.36-30.457-2.22-52.289 9.83-65.824 12.2-13.383 29.71-20.125 52.72-20.125 15.49 0 31.59 2.769 43.39 8.621 14.59 7.711 24.67 15.871 33.38 28.683 9.41 13.535 15.58 28.571 18.75 46.039 4.88 27.535.75 48.18-12.02 61.778-12.43 13.98-29.55 20.855-51.78 20.855" transform="matrix(.13333 0 0 -.13333 0 200.053)"/>
	<path style="fill:#193a59;fill-opacity:1;fill-rule:nonzero;stroke:none" d="m4129.78 399.711 13.51-9.152c-34.1-69.457-103.64-125.368-185.23-125.368-66.72 0-121.42 44.399-124.32 127.84-5.39 149.504 134.66 288.391 249.38 288.391 49.2 0 94.82-21.496 96.86-74.465 4.23-118.887-162.73-155.258-272.71-157.727-3.58-12.402-4.91-24.91-4.27-43.91 1.81-49.289 31.66-90.761 93.31-90.761 53.28 0 106.55 42.89 133.47 85.152zm-14.97 214.715c-.97 28.129-15.1 47.008-44.12 47.008-69.94 0-144.31-136.981-157.15-192.223 114.74 0 204.05 68.344 201.27 145.215" transform="matrix(.13333 0 0 -.13333 0 200.053)"/>
	<path style="fill:#193a59;fill-opacity:1;fill-rule:nonzero;stroke:none" d="M3445.73 618.348c11.84 1.574 30.91 3.66 39.14 3.66 12.57 0 24.35-2.375 24.93-14.781.23-7.375-13.07-60.329-15.89-72.622l-26.58-117.277c-10.73-47.988-22.39-98.238-32.71-137.937h68.33l38.39 185.777c117.19 122.062 162.28 161.859 189.97 161.859 12.42 0 21.01-6.531 21.6-21.433.68-21.485-12.61-70.262-17.26-84.242l-39.19-135.5c-8.9-30.454-15.49-57.891-14.88-77.524 1.2-29.758 19.18-42.969 45.88-42.969 49.94 0 86.16 52.032 117.86 103.161l-9.28 16.769c-12.84-20.559-42.42-65.43-65.79-65.43-7.39 0-14.35 4.922-14.6 17.313-.7 15.859 6 39.5 10.59 55.226l43.53 158.735c11.66 43.719 17.27 71.851 16.97 86.824-1.08 29.645-18.39 43.504-44.9 43.504-44.92 0-104.67-32.832-231.02-178.301h-1.81l15.91 70.996c8.64 38.813 17.09 79.317 25.29 107.305-43.69-15.754-106.36-33.371-145.08-40.856l.6-22.257" transform="matrix(.13333 0 0 -.13333 0 200.053)"/>
</svg>
