<svg xmlns="http://www.w3.org/2000/svg" width="200" height="128">
    <path d="M94.685 68.415a5.105 5.105 0 0 1-1.806-1.8 4.745 4.745 0 0 1 0-4.866 5.115 5.115 0 0 1 1.806-1.789 4.7 4.7 0 0 1 2.422-.667 4.8 4.8 0 0 1 1.91.392 4.883 4.883 0 0 1 1.585 1.1l-.98.934a3.6 3.6 0 0 0-1.147-.834 3.2 3.2 0 0 0-1.368-.3 3.255 3.255 0 0 0-1.73.5A3.7 3.7 0 0 0 94.1 62.4a3.66 3.66 0 0 0 1.28 4.912 3.246 3.246 0 0 0 1.73.5 3.173 3.173 0 0 0 1.368-.3 3.582 3.582 0 0 0 1.147-.834l.98.934A5.036 5.036 0 0 1 99 68.7a4.8 4.8 0 0 1-1.9.392 4.7 4.7 0 0 1-2.415-.677zm12.4-5.967a2.991 2.991 0 0 1 .783 2.16v4.312h-1.334v-.968a2.558 2.558 0 0 1-1.034.834 3.185 3.185 0 0 1-1.334.3 2.846 2.846 0 0 1-1.885-.621 2.035 2.035 0 0 1-.742-1.668 2.087 2.087 0 0 1 .379-1.251 2.447 2.447 0 0 1 1.03-.834 3.409 3.409 0 0 1 1.439-.3 6.575 6.575 0 0 1 2.147.384v-.221a2.034 2.034 0 0 0-.417-1.314 1.7 1.7 0 0 0-1.405-.529 4.5 4.5 0 0 0-1.993.592l-.513-1a6.084 6.084 0 0 1 2.7-.717 2.9 2.9 0 0 1 2.176.841zm-1.322 5.221a1.565 1.565 0 0 0 .771-.968v-.963a6.625 6.625 0 0 0-1.939-.275 2.021 2.021 0 0 0-1.251.371 1.111 1.111 0 0 0-.509.934 1.062 1.062 0 0 0 .459.9 1.849 1.849 0 0 0 1.147.338 2.6 2.6 0 0 0 1.319-.337zm6.571-5.613a3.074 3.074 0 0 1 1.618-.417v1.18a3.084 3.084 0 0 0-1.376.292 2.177 2.177 0 0 0-.938.834 2.217 2.217 0 0 0-.329 1.205v3.77h-1.364V61.8h1.38v1.39a2.567 2.567 0 0 1 1.006-1.134zm8.8.054a3.3 3.3 0 0 1 1.172 1.322 4.215 4.215 0 0 1 .417 1.918 4.266 4.266 0 0 1-.417 1.927 3.268 3.268 0 0 1-1.172 1.33 3.023 3.023 0 0 1-1.668.475 2.977 2.977 0 0 1-1.468-.371 2.887 2.887 0 0 1-1.088-1.042v1.251h-1.364V59.3h1.364v3.786a2.918 2.918 0 0 1 1.088-1.076 2.975 2.975 0 0 1 1.485-.371 3.036 3.036 0 0 1 1.647.471zm-.834 5.463a2.146 2.146 0 0 0 .788-.9 3 3 0 0 0 .283-1.318 2.944 2.944 0 0 0-.283-1.3 2.142 2.142 0 0 0-.788-.9 2.1 2.1 0 0 0-1.143-.325 2.043 2.043 0 0 0-1.134.325 2.135 2.135 0 0 0-.788.9 2.929 2.929 0 0 0-.279 1.3 3 3 0 0 0 .279 1.318 2.144 2.144 0 0 0 .763.9 2.035 2.035 0 0 0 1.134.325 2.09 2.09 0 0 0 1.151-.325zm5.45 1.005a3.787 3.787 0 0 1-1.368-1.36 3.62 3.62 0 0 1-.509-1.868 3.579 3.579 0 0 1 .509-1.851 3.8 3.8 0 0 1 1.368-1.355 3.7 3.7 0 0 1 3.753 0 3.8 3.8 0 0 1 1.347 1.355 3.583 3.583 0 0 1 .492 1.851 3.62 3.62 0 0 1-.509 1.868 3.787 3.787 0 0 1-1.368 1.36 3.7 3.7 0 0 1-3.753 0zm3.056-1.026a2.537 2.537 0 0 0 .868-.926 2.692 2.692 0 0 0 0-2.547 2.5 2.5 0 0 0-.868-.922 2.268 2.268 0 0 0-2.381 0 2.5 2.5 0 0 0-.867.922 2.687 2.687 0 0 0 0 2.547 2.534 2.534 0 0 0 .867.926 2.222 2.222 0 0 0 2.381 0zm9.207-5.571a2.373 2.373 0 0 1 .943.972 2.979 2.979 0 0 1 .338 1.434v4.533h-1.322v-4.3a1.855 1.855 0 0 0-.455-1.3 1.5 1.5 0 0 0-1.172-.5 2.151 2.151 0 0 0-.992.23 1.836 1.836 0 0 0-.717.608 1.5 1.5 0 0 0-.259.834v4.428h-1.367V61.8h1.363v1.046a2.365 2.365 0 0 1 .93-.875 2.865 2.865 0 0 1 2.715 0zm7.423-2.519h4.487a3.045 3.045 0 0 1 1.388.3 2.324 2.324 0 0 1 .951.834 2.2 2.2 0 0 1 .346 1.23 2.119 2.119 0 0 1-.338 1.218 2.842 2.842 0 0 1-1 .875 3.368 3.368 0 0 1 1.251 1.039 2.336 2.336 0 0 1 .45 1.4 2.4 2.4 0 0 1-.367 1.31 2.5 2.5 0 0 1-1.03.917 3.318 3.318 0 0 1-1.472.334h-4.67zm4.124 3.938a1.747 1.747 0 0 0 1.168-.38 1.2 1.2 0 0 0 .454-.971 1.229 1.229 0 0 0-.454-.976 1.754 1.754 0 0 0-1.168-.384h-2.74V63.4zm.221 4.291a1.884 1.884 0 0 0 1.284-.417 1.494 1.494 0 0 0 0-2.24 1.884 1.884 0 0 0-1.284-.417h-2.961v3.107zM154.9 59.3h1.364v9.62H154.9zm8.478 3.152a2.992 2.992 0 0 1 .784 2.16v4.308h-1.335v-.968a2.576 2.576 0 0 1-1.03.834 3.2 3.2 0 0 1-1.338.3 2.848 2.848 0 0 1-1.885-.621 2.051 2.051 0 0 1-.742-1.668 2.087 2.087 0 0 1 .379-1.251 2.453 2.453 0 0 1 1.03-.834 3.415 3.415 0 0 1 1.439-.3 6.575 6.575 0 0 1 2.147.384v-.221a2.034 2.034 0 0 0-.417-1.314 1.7 1.7 0 0 0-1.41-.529 4.5 4.5 0 0 0-1.993.592l-.509-1a6.054 6.054 0 0 1 2.694-.717 2.894 2.894 0 0 1 2.183.841zm-1.322 5.221a1.561 1.561 0 0 0 .771-.968v-.963a6.625 6.625 0 0 0-1.939-.275 2.021 2.021 0 0 0-1.251.371 1.107 1.107 0 0 0-.508.934 1.058 1.058 0 0 0 .458.9 1.849 1.849 0 0 0 1.147.338 2.6 2.6 0 0 0 1.319-.341zm5.483.905a3.947 3.947 0 0 1-1.379-1.378 3.557 3.557 0 0 1 0-3.695 3.9 3.9 0 0 1 1.385-1.359 3.588 3.588 0 0 1 1.855-.513 3.494 3.494 0 0 1 1.426.292 4 4 0 0 1 1.205.809l-.921.855a2.43 2.43 0 0 0-.78-.563 2.182 2.182 0 0 0-2.11.137 2.535 2.535 0 0 0-.876.926 2.57 2.57 0 0 0-.325 1.251 2.6 2.6 0 0 0 .325 1.276 2.535 2.535 0 0 0 .876.926 2.207 2.207 0 0 0 2.131.133 2.444 2.444 0 0 0 .8-.588l.926.834a4.016 4.016 0 0 1-1.217.834 3.563 3.563 0 0 1-1.456.3 3.617 3.617 0 0 1-1.868-.481zm5.951-9.278h1.363v6.15l3.482-3.644H180l-3.069 3.219 2.919 3.895h-1.622L176 65.93l-1.143 1.155v1.835h-1.363zM48.3 68.211l-2.886-8.048a1.3 1.3 0 0 1-.091-.388.7.7 0 0 1 .717-.663.746.746 0 0 1 .717.588l2.389 6.922 2.406-6.939a.727.727 0 0 1 .7-.571h.075a.751.751 0 0 1 .734.571l2.389 6.939 2.427-6.959a.692.692 0 0 1 .68-.551.68.68 0 0 1 .7.663 1.264 1.264 0 0 1-.092.388l-2.919 8.052a.833.833 0 0 1-.771.638h-.021a.792.792 0 0 1-.792-.642l-2.369-6.826-2.393 6.826a.789.789 0 0 1-.771.638h-.038a.833.833 0 0 1-.788-.638m21.024-8.4v8.306a.709.709 0 0 0 1.414.109.661.661 0 0 0 0-.109V64.9c0-2.744 1.509-4.124 3.336-4.349a.7.7 0 0 0 .625-.718.683.683 0 0 0-.649-.716h-.035a3.874 3.874 0 0 0-3.277 2.331v-1.63a.7.7 0 0 0-.692-.717.714.714 0 0 0-.7.717m9.92 9.107A4.729 4.729 0 0 0 82.78 67.5a.6.6 0 0 0-.8-.893A3.779 3.779 0 0 1 79.3 67.7a3.262 3.262 0 0 1-3.282-3.186h6.743a.654.654 0 0 0 .65-.659c0-2.5-1.568-4.774-4.328-4.774a4.628 4.628 0 0 0-4.454 4.912v.037a4.653 4.653 0 0 0 4.654 4.9m-3.267-5.43a3.227 3.227 0 0 1 3.027-3.2c1.86 0 2.832 1.493 2.978 3.2zM59.274 66c0 1.947 1.785 2.956 3.544 2.956a4.166 4.166 0 0 0 3.432-1.634v.905a.65.65 0 0 0 .638.663h.038a.673.673 0 0 0 .68-.663v-5.295a3.751 3.751 0 0 0-.971-2.769 4.17 4.17 0 0 0-3.065-1.042 6.323 6.323 0 0 0-2.848.537.59.59 0 0 0-.388.588.63.63 0 0 0 .626.609.7.7 0 0 0 .254-.058 4.855 4.855 0 0 1 2.21-.417c1.776 0 2.827.88 2.827 2.585v.335a9.984 9.984 0 0 0-2.919-.417c-2.4 0-4.057 1.063-4.057 3.065v.033m7.014-.734c0 1.5-1.435 2.565-3.174 2.565-1.284 0-2.385-.7-2.385-1.889v-.038c0-1.188.993-1.964 2.769-1.964a9.986 9.986 0 0 1 2.79.413v.921m-43.7-5.546a1.339 1.339 0 0 0-1.765-.684l-.028.013a1.313 1.313 0 0 0-.693 1.724c.01.025.022.049.034.073l3.01 6.547c.476 1.026.972 1.564 1.91 1.564s1.435-.588 1.91-1.564l2.655-5.782a.379.379 0 0 1 .388-.242.417.417 0 0 1 .417.417v5.6a1.414 1.414 0 1 0 2.81 0v-4.589a1.409 1.409 0 0 1 1.36-1.457 1.249 1.249 0 0 1 .137 0 1.372 1.372 0 0 1 1.436 1.3v4.737a1.407 1.407 0 0 0 1.4 1.572 1.422 1.422 0 0 0 1.417-1.572v-4.58a1.405 1.405 0 0 1 1.352-1.457 1.327 1.327 0 0 1 .141 0 1.372 1.372 0 0 1 1.44 1.3v4.742a1.407 1.407 0 0 0 1.4 1.572 1.422 1.422 0 0 0 1.417-1.572v-5.2a3.265 3.265 0 0 0-3.27-3.26h-.128a4.364 4.364 0 0 0-3.011 1.28 3.314 3.314 0 0 0-2.889-1.28 4.77 4.77 0 0 0-2.84 1.28 3.4 3.4 0 0 0-2.548-1.28A3.113 3.113 0 0 0 26.983 61l-1.923 4.525-2.468-5.817m60.934.568a1.166 1.166 0 0 0 1.159 1.175h.015a1.183 1.183 0 0 0 1.188-1.18 1.176 1.176 0 0 0-2.348-.14v.14m2.119 0a.951.951 0 0 1-1.9.126v-.126a.951.951 0 0 1 .939-.938.937.937 0 0 1 .946.93v.025m-1.4.417a.125.125 0 0 0 .125.125.122.122 0 0 0 .126-.117v-.254h.2l.242.308a.173.173 0 0 0 .125.063.116.116 0 0 0 .116-.117.144.144 0 0 0-.037-.1l-.171-.208a.35.35 0 0 0 .225-.346.367.367 0 0 0-.1-.259.445.445 0 0 0-.334-.117h-.392a.125.125 0 0 0-.125.126zm.251-.471V59.9h.25c.121 0 .192.055.192.163 0 .1-.067.159-.188.159z" fill="#231f20"/>
</svg>
