<svg xmlns="http://www.w3.org/2000/svg" width="200" height="128">
    <path d="M46.105 94.82a4.162 4.162 0 0 1 2.8.821c.091.853-.67 2.222-1.157 2.222a4.956 4.956 0 0 0-1.795-.335c-2.769 0-4.139 2.861-4.139 5.69 0 1.765.609 2.83 2.009 2.83a6.452 6.452 0 0 0 3.864-1.764 1.6 1.6 0 0 1 .487 1.186 2.329 2.329 0 0 1-.73 1.735 6.888 6.888 0 0 1-4.991 1.8c-2.738 0-4.625-1.552-4.625-5.173 0-4.747 3.134-9.007 8.247-9.007zM55.05 105.9c1.491 0 4.2-2.617 4.96-7.607a5.516 5.516 0 0 1 .122-.7 3.972 3.972 0 0 0-4.565 1.521 8.612 8.612 0 0 0-1.521 4.839c0 1.277.365 1.947.973 1.947zm-4.9-1.369a10.6 10.6 0 0 1 2.892-7.212 8.583 8.583 0 0 1 6.481-2.5 26.369 26.369 0 0 1 4.594.7c-.3 1.339-1.034 6.39-1.369 9.311a23.034 23.034 0 0 0-.152 3.621 11.467 11.467 0 0 1-3.408.548c-.273 0-.335-1.248-.243-2.434.03-.4.091-.974.121-1.218A7.417 7.417 0 0 1 53.072 109c-1.765 0-2.922-1.461-2.922-4.443zM71.693 94.82a4.379 4.379 0 0 1 2.982 1.034c-.03.853-.7 2.282-1.765 1.887a4.528 4.528 0 0 0-1.521-.273c-.822 0-1.522.365-1.522 1.125 0 .578.426 1 2.465 2.434 1.461 1.065 2.039 2.009 2.039 3.347 0 2.222-2.1 4.626-5.751 4.626a4.255 4.255 0 0 1-3.226-1.187c-.548-.913-.122-2.708.487-2.4a7.978 7.978 0 0 0 3.165.822c1 0 1.643-.457 1.643-1.066 0-.516-.457-.973-2.313-2.282-1.552-1.156-2.039-2.221-2.039-3.438 0-2.525 2.161-4.625 5.325-4.625zM82.189 94.82a4.378 4.378 0 0 1 2.983 1.034c-.031.853-.7 2.282-1.765 1.887a4.528 4.528 0 0 0-1.521-.273c-.822 0-1.522.365-1.522 1.125 0 .578.426 1 2.465 2.434 1.461 1.065 2.039 2.009 2.039 3.347 0 2.222-2.1 4.626-5.752 4.626a4.253 4.253 0 0 1-3.225-1.187c-.548-.913-.122-2.708.487-2.4a7.968 7.968 0 0 0 3.164.822c1 0 1.643-.457 1.643-1.066 0-.516-.456-.973-2.312-2.282-1.552-1.156-2.039-2.221-2.039-3.438 0-2.525 2.161-4.625 5.326-4.625zM91.773 105.9c1.492 0 4.2-2.617 4.96-7.607a5.7 5.7 0 0 1 .123-.7 3.973 3.973 0 0 0-4.566 1.517 8.619 8.619 0 0 0-1.521 4.839c0 1.277.365 1.947.974 1.947zm-4.9-1.369a10.6 10.6 0 0 1 2.891-7.212 8.585 8.585 0 0 1 6.482-2.5 26.381 26.381 0 0 1 4.595.7c-.3 1.339-1.035 6.39-1.37 9.311a23.034 23.034 0 0 0-.152 3.621 11.467 11.467 0 0 1-3.408.548c-.273 0-.335-1.248-.244-2.434.031-.4.092-.974.122-1.218A7.415 7.415 0 0 1 89.8 109c-1.765 0-2.922-1.461-2.922-4.443zM107.717 98.775c1.4-2.251 3.225-3.955 5.781-3.955 2.161 0 2.86 2.008 2.465 4.868-.213 1.34-.578 3.256-.822 5.021a24.258 24.258 0 0 0-.334 3.743 12.762 12.762 0 0 1-3.621.548c-.213 0-.244-1.674.03-3.439.243-1.46.761-4.107 1-5.629.153-.882.122-1.948-.73-1.948-1.126 0-3.8 1.8-5.143 9.159a1.573 1.573 0 0 1-.67 1.187 7.5 7.5 0 0 1-3.407.548c.365-1.856.944-5.66 1.369-8.459a23.531 23.531 0 0 0 .456-4.838 32.478 32.478 0 0 1 3.53-.761c.336 0 .4.943.092 3.226-.03.213-.061.547-.092.729zM123.174 105.866c1.338 0 4.047-2.5 4.807-6.908.031-.243.122-.7.183-.974a2.383 2.383 0 0 0-1.734-.608c-3.074 0-4.443 3.682-4.443 6.33 0 1.43.487 2.16 1.156 2.16zM121.166 109c-1.948 0-3.165-1.735-3.165-4.716 0-4.93 3.073-9.464 8.246-9.464a4.627 4.627 0 0 1 2.251.547c.274-1.4.913-5.72.944-7a28.171 28.171 0 0 1 3.5-.426c.336 0 .427.334.305 1.095-.731 4.565-2.038 13.328-2.282 15.276a31.6 31.6 0 0 0-.184 4.168 11.507 11.507 0 0 1-3.468.518c-.214 0-.335-1.4-.274-2.647.031-.4.091-.975.091-1.065A6.89 6.89 0 0 1 121.2 109zM139 99.2c1.613-3.591 3.529-4.382 4.777-4.382a2.02 2.02 0 0 1 1.278.548 6.417 6.417 0 0 1-1.369 3.772 3.011 3.011 0 0 0-1.339-.365c-1.035 0-3.073 1.614-4.351 8.551-.092.579-.274.822-.608.974a12.371 12.371 0 0 1-3.53.578c.456-2.5 1.247-7.577 1.552-10.559a16.577 16.577 0 0 0 .06-2.708 15.9 15.9 0 0 1 3.378-.791c.274 0 .487 1.674.06 4.382zM149.735 105.9c1.492 0 4.2-2.617 4.961-7.607a5.7 5.7 0 0 1 .121-.7 3.8 3.8 0 0 0-1.248-.213 3.843 3.843 0 0 0-3.317 1.734 8.619 8.619 0 0 0-1.521 4.839c0 1.277.365 1.947.974 1.947zm-4.9-1.369a10.6 10.6 0 0 1 2.891-7.212 8.583 8.583 0 0 1 6.481-2.5 26.407 26.407 0 0 1 4.6.7c-.305 1.339-1.035 6.39-1.37 9.311a23.034 23.034 0 0 0-.152 3.621 11.467 11.467 0 0 1-3.408.548c-.274 0-.334-1.248-.244-2.434.031-.4.092-.974.123-1.218a7.42 7.42 0 0 1-5.998 3.653c-1.765 0-2.922-1.461-2.922-4.443z" fill="#373535"/>
    <g>
        <path d="M140.8 44.256c1 11.7-17.4 22.828-41.113 24.863s-43.744-5.8-44.747-17.5 17.4-22.83 41.113-24.864 43.745 5.8 44.747 17.5" fill="#bbe6fb"/>
        <g fill="#fff">
            <path d="M96.748 27.13c-9.044-.147-19.628 3.444-27.5 6.806a22.741 22.741 0 0 0-1.261 7.478c0 13.875 12.528 25.124 27.983 25.124s27.983-11.249 27.983-25.124a23.025 23.025 0 0 0-3.463-12.107 177.842 177.842 0 0 0-23.74-2.177"/>
            <path d="M95.967 27.127c-5.007-.306-13.637 2.307-20.833 4.913a21.373 21.373 0 0 0-1.7 8.368c0 12.156 11.022 22.011 22.682 22.011 11.582 0 21.83-9.871 22.681-22.011a19.013 19.013 0 0 0-2.974-10.891 194.461 194.461 0 0 0-19.855-2.39"/>
        </g>
        <g fill="#373535">
            <path d="M83.118 38.811c.614-1.36 1.545-2.026 2.446-3.166a7.07 7.07 0 0 1-.319-1.46 2.477 2.477 0 0 1 2.476-2.476 2.448 2.448 0 0 1 .912.177 18.041 18.041 0 0 1 14.915-3.273c.5.111.981.246 1.457.395A21.239 21.239 0 0 0 89.5 33.479a6.074 6.074 0 0 1 .474 1.482c0 1.368-.885 1.7-2.252 1.7a2.459 2.459 0 0 1-.882-.164 25.1 25.1 0 0 0-2.622 5.1c2.272 2.032 4.324 2.769 7 3.769-.006-.128.092-.246.092-.376a7.722 7.722 0 0 1 7.752-7.472 7.461 7.461 0 0 1 7.351 6.211c1.843-1.173 3.626-2.072 4.984-3.81a4.378 4.378 0 0 1-.659-2.02 2.23 2.23 0 0 1 2.756-2.183 19.7 19.7 0 0 0 1.543-4.469c-6.447-4.772-18.92-4.121-18.92-4.121s-9.925-.518-16.644 2.756a19.776 19.776 0 0 0 3.647 8.925"/>
            <path d="M113.93 36.952a4.161 4.161 0 0 1 .9 1.122c.6 1.084-.607 2.076-1.848 2.076a2.262 2.262 0 0 1-.369-.037 23.629 23.629 0 0 1-6.02 6.4 18.935 18.935 0 0 1 8.982 3.946 26.665 26.665 0 0 0 3.22-11.985 8.543 8.543 0 0 0-3.377-6.922 24.559 24.559 0 0 1-1.489 5.4M86.859 57.632c1.112-3.068 3.845-5.446 6.431-7.538a14.415 14.415 0 0 1-1.183-2.407A18.1 18.1 0 0 1 84 42.556c-.016.069-.035.136-.052.205a16.417 16.417 0 0 0-.279 5.442 3.251 3.251 0 0 1 2.653 3.2 4.98 4.98 0 0 1-1.47 2.907 15.293 15.293 0 0 0 2.008 3.326"/>
            <path d="M86.664 60.208c-1.326-1.317-2.242-3.946-3.1-5.6a3.22 3.22 0 0 1-.5.042c-1.8 0-3.681-1.509-3.255-3.254a3.231 3.231 0 0 1 1.991-2.123 22.835 22.835 0 0 1 .15-6.958 13.422 13.422 0 0 1 .6-1.441 19.081 19.081 0 0 1-3.265-10.492c0-.138.007-.274.01-.411-3.352 1.681-5.865 4.329-5.865 8.5 0 9.222 5.311 18.268 13.214 21.814 0-.025.01-.05.017-.075M106.1 47.46a7.45 7.45 0 0 1-11.643 3.392 21.92 21.92 0 0 0-6.2 8.721 17.109 17.109 0 0 0 1.526 1.579c1.83.476 4.35 0 6.331 0 7.968 0 15.025-3.545 19.071-9.761-2.69-1.863-5.864-3.636-9.09-3.931"/>
        </g>
        <g fill="#1287b1">
            <path d="M82.914 39.889A18.008 18.008 0 0 1 85.2 36.13a2.472 2.472 0 0 1 3.23-3.167 18.045 18.045 0 0 1 14.915-3.272c.5.111.98.246 1.457.395a19.86 19.86 0 0 0-15 4.216 2.444 2.444 0 0 1 .194.961 2.472 2.472 0 0 1-3.357 2.312 16.687 16.687 0 0 0-2.244 4.107 18.428 18.428 0 0 0 7.021 4.765c-.007-.127-.02-.253-.02-.383a7.46 7.46 0 0 1 14.814-1.253 19.351 19.351 0 0 0 4.84-4.417 2.219 2.219 0 0 1-.514-1.413 2.226 2.226 0 0 1 2.756-2.183 19.666 19.666 0 0 0 1.542-4.469c-6.446-4.773-18.919-4.122-18.919-4.122s-9.925-.518-16.645 2.757a19.789 19.789 0 0 0 3.648 8.925"/>
            <path d="M114.278 37.32a2.238 2.238 0 0 1-1.5 3.908 2.251 2.251 0 0 1-.369-.037 18.187 18.187 0 0 1-5.425 5.456 18.171 18.171 0 0 1 8.743 3.931 22.568 22.568 0 0 0 2.864-11.031 8.542 8.542 0 0 0-3.377-6.922 18.074 18.074 0 0 1-.937 4.7M87.2 58.37a18.111 18.111 0 0 1 5.628-7.914 7.465 7.465 0 0 1-.927-1.692 18.094 18.094 0 0 1-8.108-5.13c-.016.069-.036.136-.052.2a16.357 16.357 0 0 0-.279 5.441 3.25 3.25 0 0 1 1.605 5.584A19.566 19.566 0 0 0 87.2 58.37"/>
            <path d="M86.655 60.171a18.145 18.145 0 0 1-3.3-4.482 3.251 3.251 0 0 1-1.913-6.139 18.039 18.039 0 0 1 .3-6.157c.133-.595.3-1.175.482-1.743a18 18 0 0 1-3.145-10.19c0-.138.006-.275.009-.411-3.351 1.681-5.865 4.33-5.865 8.5a22.681 22.681 0 0 0 13.41 20.7l.017-.075M105.892 48.538a7.45 7.45 0 0 1-11.643 3.392 18.485 18.485 0 0 0-5.8 7.92 20.349 20.349 0 0 0 1.73 1.65 22.693 22.693 0 0 0 24.751-9.6 19.026 19.026 0 0 0-9.038-3.362"/>
        </g>
        <path d="M106.154 46.613l6.9-1.645-6.922-.353 5.633-4.3-6.396 2.285 4.344-6.02-6 3.988 2.1-7.047-4.123 5.809-.093-7.339-2.712 6.537-2.26-6.615.122 7.793-3.906-6.986 2.114 7.418-6.337-4.608 4.964 6.237-7.867-2.893 6.209 4.594-7.962.244 8.14 2.1-8.147 1.762 8.045.584-6.785 4.342 6.985-2.531-4.846 6.136 6.123-4.937-2.2 8.234L96 52.7l-.662 7.915 2.683-7.175 2.284 7.541.555-7.564 3.39 6.453-2-7.381 6.208 4.808-4.008-6.13 6.811 2.653-5.213-5.12 6.983.549z" fill="#fff"/>
        <path d="M32.738 59.809c21.387-21.387 38.468-27.99 53.971-31 2.051-.4 2.439-4.881 2.439-4.881s.287 3.3 1.723 3.732 3.3-5.167 3.3-5.167-1.722 5.024 0 5.311 4.881-4.88 4.881-4.88-1.292 4.449-.43 4.736 5.166-6.459 5.166-6.459-2.584 4.45-.143 4.881 6-3.037 6-3.037-2.8 3.172-1.552 3.61c5.311 1.867 9.609-5.036 9.609-5.036a23.257 23.257 0 0 1-3.58 6.328c5.6 1.435 9.755-7 9.755-7l-4.157 8.432c2.153 1.15 10.766-8.755 10.766-8.755s-4.45 7.751-7.033 9.33c1.435 1.148 6.6-3.445 6.6-3.445s-4.163 5.167-2.584 5.454c2.3 1.866 10.765-9.617 10.765-9.617a58.226 58.226 0 0 1-8.178 12.054c4.079 2.041 14.211-11.052 14.211-11.052s-.288 4.163-7.608 10.765c5.454-.717 12.488-11.052 12.488-11.052a34.241 34.241 0 0 1-8.757 13.205c5.356-.557 13.923-13.779 13.923-13.779s-3.3 9.186-10.046 14.5c7.464 1.651 18.229-9.473 18.229-9.473s-4.234 7.9-9.761 11.124c6.172 2.368 14.641-7.393 14.641-7.393s-8.469 13.063-21.961 12.489c-4.427-.19-17.815-13.434-46.507-12.346-37.893 1.436-45.931 17.512-66.17 28.421" fill="#373535" opacity=".2"/>
        <path d="M33.614 58.184C55 36.8 72.082 30.2 87.585 27.181c2.051-.4 2.439-4.88 2.439-4.88s.287 3.3 1.723 3.731 3.3-5.166 3.3-5.166-1.722 5.024 0 5.31 4.88-4.88 4.88-4.88-1.291 4.449-.431 4.736 5.168-6.459 5.168-6.459-2.584 4.45-.144 4.88 6-3.036 6-3.036-2.8 3.173-1.551 3.611c5.311 1.866 9.607-5.037 9.607-5.037A23.279 23.279 0 0 1 115 26.319c5.6 1.436 9.755-7 9.755-7l-4.155 8.436C122.751 28.9 131.362 19 131.362 19s-4.448 7.75-7.032 9.329c1.435 1.148 6.6-3.445 6.6-3.445s-4.163 5.168-2.584 5.454c2.3 1.867 10.765-9.616 10.765-9.616a58.272 58.272 0 0 1-8.181 12.057c4.079 2.041 14.21-11.053 14.21-11.053s-.287 4.164-7.608 10.766c5.455-.718 12.488-11.053 12.488-11.053a34.239 34.239 0 0 1-8.756 13.206c5.356-.557 13.923-13.779 13.923-13.779s-3.3 9.186-10.047 14.5c7.464 1.651 18.229-9.472 18.229-9.472s-4.234 7.893-9.761 11.123c6.173 2.368 14.642-7.392 14.642-7.392s-8.469 13.062-21.963 12.488c-4.425-.189-17.816-13.431-46.506-12.344-37.89 1.431-45.928 17.507-66.167 28.415" fill="#373535"/>
        <path d="M32.178 62.148c11.3 5.67 21.638-.861 34.664 2.81 9.9 2.791 21.961 6.233 38.324 3.864s30.358-9.473 37.034-22.177c2.081-5.669 10.549 1.293 10.549 1.293s-6.172-2.584-6.028-1.364 9.258 5.454 9.258 5.454-8.254-2.584-7.751-.646 10.333 9.689 10.333 9.689-11.123-8.471-12.055-7.321 4.736 5.814 4.736 5.814-9.4-5.814-12.7-4.1c-2.378 1.236 9.758 9.196 9.758 9.196s-7.9-6.029-9.762-4.45 8.9 14.5 8.9 14.5-12.2-13.2-13.421-12.559 3.373 6.962 3.373 6.962-6.029-6.6-7.679-5.455 8.612 18.3 8.612 18.3-11.123-17.585-15.717-14.644c7.213 15.826 4.522 18.087 4.522 18.087s-.921-16.145-9.905-15.718c-4.521.216 2.153 12.057 2.153 12.057s-6.143-10.815-10.234-10.6c7.54 14.27 4.852 20.074 4.852 20.074s1.247-12.187-8.979-18.969c3.875 3.444-2.432 18.969-2.432 18.969s5.548-22.878-4.092-18.516c-1.523.688-.107 11.411-.107 11.411s-1.938-12.273-4.844-11.627c-1.694.376-10.766 17.009-10.766 17.009s7.426-17.978 5.168-17.224c-1.647.549-4.737 7.967-4.737 7.967s1.507-7.321 0-7.752-9.9 7.752-9.9 7.752 6.244-7.321 5.167-8.829c-1.631-2.283-3.544-2.391-5.813-1.506-3.3 1.286-7.751 7.32-7.751 7.32s4.435-6.109 3.66-8.4c-1.245-3.677-13.995 7.105-13.995 7.105s7.536-7.105 5.814-8.613-11.075-1.04-14-1.049c-8.612-.026-11.6-2.047-14.21-4.117" fill="#373535" opacity=".2"/>
        <path d="M31.747 60.856c11.3 5.67 21.639-.861 34.664 2.81 9.9 2.791 21.962 6.233 38.325 3.864s30.357-9.474 37.033-22.176c2.081-5.67 10.549 1.291 10.549 1.291s-6.172-2.583-6.028-1.363 9.258 5.454 9.258 5.454-8.254-2.583-7.751-.645 10.335 9.688 10.335 9.688-11.125-8.469-12.057-7.32 4.737 5.813 4.737 5.813-9.4-5.813-12.7-4.1c-2.375 1.232 9.761 9.2 9.761 9.2s-7.9-6.029-9.761-4.45 8.9 14.5 8.9 14.5-12.2-13.205-13.421-12.559 3.373 6.961 3.373 6.961-6.029-6.6-7.679-5.454 8.612 18.3 8.612 18.3-11.124-17.583-15.718-14.641c7.213 15.825 4.522 18.086 4.522 18.086s-.92-16.145-9.905-15.717c-4.521.215 2.153 12.056 2.153 12.056s-6.143-10.816-10.233-10.6c7.54 14.27 4.851 20.074 4.851 20.074s1.247-12.188-8.979-18.97c3.875 3.445-2.432 18.97-2.432 18.97s5.549-22.878-4.09-18.516c-1.523.688-.108 11.411-.108 11.411S96.015 70.545 93.11 71.19c-1.695.376-10.767 17.01-10.767 17.01s7.429-17.978 5.168-17.223c-1.646.548-4.737 7.965-4.737 7.965s1.508-7.32 0-7.751-9.9 7.751-9.9 7.751 6.244-7.32 5.166-8.828c-1.631-2.283-3.544-2.39-5.812-1.506-3.3 1.287-7.751 7.32-7.751 7.32s4.434-6.11 3.66-8.4c-1.245-3.676-13.995 7.105-13.995 7.105s7.536-7.105 5.813-8.612-11.075-1.041-13.995-1.05c-8.612-.027-11.6-2.046-14.21-4.117" fill="#373535"/>
    </g>
</svg>
