<?xml version="1.0" encoding="utf-8"?>
<!-- Generator: Adobe Illustrator 22.0.1, SVG Export Plug-In . SVG Version: 6.00 Build 0)  -->
<svg version="1.1" id="design" xmlns="http://www.w3.org/2000/svg" xmlns:xlink="http://www.w3.org/1999/xlink" x="0px" y="0px"
	 viewBox="0 0 258.2 170" style="enable-background:new 0 0 258.2 170;" xml:space="preserve">
<style type="text/css">
	.st0{fill:#E25A1C;}
	.st1{fill:#3C3A3E;}
	.st2{fill:#373535;}
	.st3{fill:#BBE6FB;}
	.st4{fill:#FFFFFF;}
	.st5{fill:#1287B1;}
	.st6{fill:#373535;fill-opacity:0.35;}
	.st7{fill:#2D72B8;}
	.st8{fill:#205B98;}
	.st9{fill:#5294CF;}
	.st10{fill-rule:evenodd;clip-rule:evenodd;}
	.st11{fill-rule:evenodd;clip-rule:evenodd;fill:#1F1A17;}
	.st12{fill-rule:evenodd;clip-rule:evenodd;fill:#66CCFF;}
	.st13{fill-rule:evenodd;clip-rule:evenodd;fill:#FFFF00;}
	.st14{fill:none;stroke:#1F1A17;stroke-width:0.301;stroke-miterlimit:10;}
	.st15{fill-rule:evenodd;clip-rule:evenodd;fill:#FFFFCC;}
	.st16{fill-rule:evenodd;clip-rule:evenodd;fill:#CCCC00;}
	.st17{clip-path:url(#SVGID_2_);}
	.st18{clip-path:url(#SVGID_6_);}
</style>
<g>
	<g transform="translate(15.000000, 129.000000)">
		<path class="st2" d="M15.2,14.1c2.2,0,4.2,0.5,5.3,1.5c0.2,1.6-1.3,4.2-2.2,4.2c-1.1-0.4-2.1-0.6-3.4-0.6c-5.2,0-7.9,5.4-7.9,10.8
			c0,3.3,1.1,5.3,3.8,5.3c2.8,0,5.6-1.9,7.3-3.3c0.4,0.3,0.9,1.2,0.9,2.2c0,1.1-0.3,2.2-1.4,3.3c-1.8,1.8-4.9,3.4-9.5,3.4
			c-5.1,0-8.8-2.9-8.8-9.8C-0.4,22.2,5.5,14.1,15.2,14.1L15.2,14.1L15.2,14.1z"/>
		<path class="st2" d="M32.2,35.1c2.8,0,8-4.9,9.4-14.4c0.1-0.6,0.1-0.7,0.2-1.3c-0.6-0.2-1.5-0.4-2.3-0.4c-2.1,0-4.3,0.6-6.2,3.3
			c-2,2.8-2.9,6.3-2.9,9.2C30.2,33.7,31,35.1,32.2,35.1L32.2,35.1L32.2,35.1z M22.9,32.4c0-3.4,1.1-9.3,5.4-13.6
			c3.7-3.8,8.2-4.7,12.3-4.7c2.7,0,6.3,0.9,8.7,1.3c-0.6,2.5-1.9,12.1-2.6,17.6c-0.3,2.3-0.4,5.6-0.3,6.9c-1.9,0.8-5.4,1-6.4,1
			c-0.5,0-0.6-2.3-0.5-4.6c0.1-0.7,0.2-1.8,0.2-2.3c-2.2,3.7-6.7,6.9-11.3,6.9C25,40.9,22.9,38.1,22.9,32.4L22.9,32.4L22.9,32.4z"/>
		<path class="st2" d="M63.6,14.1c2.3,0,4.6,0.9,5.6,1.9c-0.1,1.6-1.3,4.3-3.3,3.5C65,19.2,64.2,19,63,19c-1.5,0-2.9,0.7-2.9,2.1
			c0,1.1,0.8,1.9,4.6,4.6c2.7,2,3.8,3.8,3.8,6.3c0,4.2-3.9,8.8-10.9,8.8c-2.8,0-5.3-1.1-6-2.2c-1-1.7-0.2-5.1,0.9-4.5
			c1.5,0.7,3.9,1.5,5.9,1.5c1.9,0,3.1-0.9,3.1-2c0-1-0.9-1.8-4.3-4.3c-2.9-2.2-3.8-4.2-3.8-6.4C53.4,18,57.6,14.1,63.6,14.1
			L63.6,14.1L63.6,14.1z"/>
		<path class="st2" d="M83.5,14.1c2.3,0,4.6,0.9,5.6,1.9c-0.1,1.6-1.3,4.3-3.3,3.5c-0.9-0.3-1.7-0.5-2.9-0.5c-1.5,0-2.9,0.7-2.9,2.1
			c0,1.1,0.8,1.9,4.6,4.6c2.7,2,3.8,3.8,3.8,6.3c0,4.2-3.9,8.8-10.9,8.8c-2.8,0-5.2-1.1-6-2.2c-1-1.7-0.2-5.1,0.9-4.5
			c1.5,0.7,3.9,1.5,5.9,1.5c1.9,0,3.1-0.9,3.1-2c0-1-0.9-1.8-4.3-4.3c-2.9-2.2-3.8-4.2-3.8-6.4C73.3,18,77.4,14.1,83.5,14.1
			L83.5,14.1L83.5,14.1z"/>
		<path class="st2" d="M101.5,35.1c2.8,0,8-4.9,9.4-14.4c0.1-0.6,0.1-0.7,0.2-1.3c-0.6-0.2-1.5-0.4-2.3-0.4c-2.1,0-4.3,0.6-6.2,3.3
			c-2,2.8-2.9,6.3-2.9,9.2C99.7,33.7,100.3,35.1,101.5,35.1L101.5,35.1L101.5,35.1z M92.2,32.4c0-3.4,1.1-9.3,5.4-13.6
			c3.7-3.8,8.2-4.7,12.3-4.7c2.7,0,6.3,0.9,8.7,1.3c-0.6,2.5-1.9,12.1-2.6,17.6c-0.3,2.3-0.4,5.6-0.3,6.9c-1.9,0.8-5.4,1-6.4,1
			c-0.5,0-0.6-2.3-0.5-4.6c0.1-0.7,0.2-1.8,0.2-2.3c-2.2,3.7-6.7,6.9-11.3,6.9C94.4,40.9,92.2,38.1,92.2,32.4L92.2,32.4L92.2,32.4z"
			/>
		<path class="st2" d="M131.6,21.6c2.6-4.2,6-7.5,10.9-7.5c4.1,0,5.4,3.8,4.6,9.2c-0.4,2.5-1.1,6.1-1.5,9.5
			c-0.4,2.8-0.7,5.3-0.6,7.1c-1.5,0.7-5.8,1-6.9,1c-0.4,0-0.5-3.1,0.1-6.4c0.5-2.7,1.4-7.8,1.9-10.7c0.3-1.7,0.2-3.7-1.4-3.7
			c-2.1,0-7.2,3.4-9.7,17.3c-0.2,1.1-0.6,1.8-1.3,2.2c-0.9,0.5-2.7,1-6.4,1c0.7-3.5,1.8-10.7,2.6-16c0.7-4.8,1-8,0.9-9.2
			c1-0.3,6.1-1.4,6.7-1.4c0.6,0,0.7,1.8,0.2,6c-0.1,0.4-0.1,1-0.2,1.4h0.1V21.6L131.6,21.6z"/>
		<path class="st2" d="M160.8,35c2.5,0,7.7-4.7,9.1-13.1c0.1-0.5,0.2-1.3,0.3-1.8c-0.7-0.7-1.7-1.1-3.3-1.1c-5.8,0-8.4,7-8.4,12
			C158.6,33.5,159.5,35,160.8,35L160.8,35L160.8,35z M157.1,40.9c-3.7,0-5.9-3.3-5.9-8.9c0-9.3,5.8-17.8,15.6-17.8
			c1.7,0,3.3,0.5,4.2,1c0.5-2.6,1.7-10.8,1.8-13.2c1.6-0.3,5-0.8,6.7-0.8c0.6,0,0.8,0.6,0.6,2.1c-1.4,8.7-3.8,25.2-4.3,28.8
			c-0.3,3.1-0.4,6.1-0.3,7.9c-1.8,0.8-5.5,1-6.6,1c-0.4,0-0.6-2.6-0.5-5c0.1-0.7,0.2-1.8,0.2-2C165.5,38.6,161.5,40.9,157.1,40.9
			L157.1,40.9L157.1,40.9z"/>
		<path class="st2" d="M190.8,22.4c3-6.8,6.7-8.3,9.1-8.3c0.7,0,1.9,0.5,2.4,1c0.2,1.9-1.3,5.6-2.6,7.2c-0.7-0.3-1.5-0.7-2.5-0.7
			c-1.9,0-5.8,3-8.3,16.1c-0.2,1.1-0.5,1.5-1.1,1.8c-1,0.6-4.8,1-6.7,1.1c0.9-4.7,2.3-14.3,2.9-20c0.2-1.4,0.2-4.1,0.1-5.1
			c1.1-0.5,5.4-1.5,6.3-1.5c0.5,0,0.9,3.1,0.1,8.3h0.2V22.4L190.8,22.4z"/>
		<path class="st2" d="M211,35.1c2.8,0,8-4.9,9.4-14.4c0.1-0.6,0.1-0.7,0.2-1.3c-0.6-0.2-1.5-0.4-2.3-0.4c-2.1,0-4.3,0.6-6.2,3.3
			c-2,2.8-2.9,6.3-2.9,9.2C209.2,33.7,209.8,35.1,211,35.1L211,35.1L211,35.1z M201.8,32.4c0-3.4,1.1-9.3,5.4-13.6
			c3.7-3.8,8.2-4.7,12.3-4.7c2.7,0,6.3,0.9,8.7,1.3c-0.6,2.5-1.9,12.1-2.6,17.6c-0.3,2.3-0.4,5.6-0.3,6.9c-1.9,0.8-5.4,1-6.4,1
			c-0.5,0-0.6-2.3-0.5-4.6c0.1-0.7,0.2-1.8,0.2-2.3c-2.2,3.7-6.7,6.9-11.3,6.9C204,40.9,201.8,38.1,201.8,32.4L201.8,32.4
			L201.8,32.4z"/>
	</g>
	<g>
		<path class="st3" d="M206.2,45.6c1.9,22.1-32.9,43.1-77.7,47c-44.8,3.8-82.6-11-84.5-33.1s32.9-43.1,77.7-47
			C166.4,8.8,204.3,23.5,206.2,45.6"/>
		<path class="st4" d="M122.8,15.1c-17.1-0.3-37.1,6.6-52,12.9c-1.5,4.4-2.4,9.2-2.4,14.1c0,26.2,23.7,47.5,52.9,47.5
			s53-21.2,53-47.5c0-8.3-2.4-16.1-6.6-22.9C155.9,17.4,139.5,15.4,122.8,15.1"/>
		<path class="st4" d="M121.4,15.1c-9.5-0.6-25.8,4.3-39.4,9.3c-2.1,4.8-3.2,10.2-3.2,15.8c0,23,20.9,41.6,42.8,41.6
			c21.9,0,41.2-18.6,42.8-41.6c0.5-7.5-2-14.5-5.6-20.6C144.8,17.2,129.9,15.7,121.4,15.1"/>
		<path class="st2" d="M97.1,37.3c1.2-2.6,2.9-3.8,4.6-5.9c-0.2-0.5-0.6-2.2-0.6-2.7c0-2.6,2.1-4.6,4.6-4.6c0.6,0,1.2,0.1,1.7,0.3
			c7.8-5.9,17.9-8.5,28.2-6.1c0.9,0.2,1.8,0.5,2.7,0.7c-10.1-1.4-21.6,2.2-29.3,8.5c0.2,0.6,0.9,2.1,0.9,2.8c0,2.6-1.7,3.2-4.2,3.2
			c-0.6,0-1.1-0.1-1.7-0.3c-1.7,2.3-3.9,6.9-4.9,9.7c4.3,3.8,8.2,5.2,13.2,7.2c0-0.2,0.2-0.5,0.2-0.7c0-7.8,6.9-14.1,14.6-14.1
			c7,0,12.8,5,13.9,11.7c3.5-2.2,6.9-3.9,9.4-7.2c-0.6-0.7-1.2-2.8-1.2-3.8c0-2.3,1.9-4.2,4.2-4.2c0.3,0,0.6,0,1,0.1
			c1.3-2.7,2.3-5.5,2.9-8.5c-12.2-9.1-35.8-7.8-35.8-7.8s-18.7-1-31.4,5.2C91.1,26.5,93.5,32.3,97.1,37.3"/>
		<path class="st2" d="M155.4,33.8c0.9,0.8,1.3,1.4,1.7,2.1c1.1,2-1.1,3.9-3.5,3.9c-0.2,0-0.5,0-0.7-0.1c-2.6,4.1-7.3,9.4-11.4,12.1
			c6.3,1,12.3,3.5,16.9,7.5c3.4-6.1,6-15.1,6-22.7c0-5.7-2.5-10-6.3-13.1C158,26.6,156.3,30.9,155.4,33.8"/>
		<path class="st2" d="M104.2,72.9c2.1-5.8,7.3-10.3,12.2-14.2c-0.7-1-1.8-3.4-2.2-4.5c-5.9-1.8-11.2-5.2-15.3-9.7
			c0,0.1-0.1,0.3-0.1,0.4c-0.8,3.4-0.9,7-0.5,10.3c2.8,0.5,5,3,5,6c0,1.8-1.6,4.3-2.8,5.5C101.7,69.3,102.6,70.7,104.2,72.9"/>
		<path class="st2" d="M103.8,77.7c-2.5-2.5-4.2-7.5-5.8-10.6c-0.3,0-0.6,0.1-0.9,0.1c-3.4,0-7-2.8-6.1-6.1c0.4-1.8,1.7-3,3.7-4
			c-0.5-3.8-0.6-9.2,0.3-13.1c0.2-1.1,0.8-1.6,1.1-2.7c-3.7-5.4-6.1-12.7-6.1-19.9v-0.8c-6.3,3.2-11.1,8.2-11.1,16
			c0,17.4,10.1,34.6,25,41.2V77.7"/>
		<path class="st2" d="M140.6,53.6c-1.9,5.4-7.2,9.5-13.3,9.5c-3.3,0-6.3-1.1-8.7-3c-4.9,3.8-9.5,10.6-11.7,16.5c1,1.1,1.7,2,2.9,3
			c3.4,0.9,8.3,0,12,0c15,0,28.4-6.7,36.1-18.4C152.7,57.5,146.6,54.1,140.6,53.6"/>
		<path class="st5" d="M96.7,39.3c1.2-2.6,2.6-4.9,4.3-7.2c-0.2-0.5-0.3-1.1-0.3-1.6c0-2.6,2.1-4.6,4.6-4.6c0.6,0,1.2,0.1,1.7,0.3
			c7.8-5.9,17.9-8.5,28.2-6.1c0.9,0.2,1.8,0.5,2.7,0.7c-10.1-1.4-20.6,1.7-28.3,8c0.2,0.6,0.4,1.2,0.4,1.8c0,2.6-2.1,4.6-4.6,4.6
			c-0.6,0-1.1-0.1-1.7-0.3c-1.7,2.3-3.2,4.9-4.2,7.8c3.7,3.9,8.3,7.2,13.3,9v-0.7c0-7.8,6.3-14.1,14.1-14.1c7,0,12.8,5,13.9,11.7
			c3.5-2.2,6.6-5,9.2-8.4c-0.6-0.7-1-1.6-1-2.6c0-2.3,1.9-4.2,4.2-4.2c0.3,0,0.6,0,1,0.1c1.3-2.7,2.3-5.5,2.9-8.5
			c-12.2-9.1-35.8-7.8-35.8-7.8s-18.7-1-31.4,5.2C90.7,28.5,93.1,34.4,96.7,39.3"/>
		<path class="st5" d="M156,34.5c0.9,0.8,1.4,1.9,1.4,3.1c0,2.3-1.9,4.2-4.2,4.2c-0.2,0-0.5,0-0.7-0.1c-2.6,4.1-6.1,7.7-10.3,10.3
			c6,0.9,11.8,3.5,16.5,7.5c3.4-6.1,5.4-13.3,5.4-20.9c0-5.7-2.5-10-6.3-13.1C157.6,28.6,157,31.6,156,34.5"/>
		<path class="st5" d="M104.8,74.2c2.1-5.8,5.7-11,10.7-14.9c-0.7-1-1.3-2-1.7-3.2c-5.9-1.8-11.2-5.2-15.3-9.7
			c0,0.1-0.1,0.3-0.1,0.4c-0.8,3.4-0.9,7-0.5,10.3c2.8,0.5,5,3,5,6c0,1.8-0.8,3.4-2,4.5C101.9,69.9,103.3,72.2,104.8,74.2"/>
		<path class="st5" d="M103.8,77.6c-2.5-2.5-4.6-5.3-6.2-8.5c-0.3,0-0.6,0.1-0.9,0.1c-3.4,0-6.1-2.7-6.1-6.1c0-2.4,1.4-4.5,3.4-5.5
			c-0.5-3.8-0.3-7.7,0.6-11.6c0.2-1.1,0.6-2.2,0.9-3.3c-3.7-5.4-5.9-12.1-5.9-19.2v-0.8c-6.3,3.2-11.1,8.2-11.1,16
			c0,17.4,10.4,32.4,25.3,39.1C103.8,77.7,103.8,77.7,103.8,77.6"/>
		<path class="st5" d="M140.2,55.6c-1.9,5.4-7.2,9.5-13.3,9.5c-3.3,0-6.3-1.1-8.7-3c-4.9,3.8-8.7,9.1-11,15c1,1.1,2.1,2.1,3.2,3.1
			c3.4,0.9,7.1,1.4,10.8,1.4c15,0,28.3-7.8,36-19.5C152.2,58.4,146.2,56.1,140.2,55.6"/>
		<path class="st4" d="M140.7,52l13-3.1l-13.1-0.7l10.7-8.1l-12.1,4.3l8.2-11.4l-11.4,7.6l3.9-13.3l-7.8,11l-0.2-13.9l-5.1,12.4
			l-4.2-12.5l0.2,14.7l-7.4-13.2l4,14l-12-8.7l9.4,11.8l-14.9-5.4l11.7,8.7l-15,0.5l15.4,3.9l-15.4,3.3l15.2,1.1L101,63.2l13.2-4.7
			L105,70l11.6-9.4l-4.1,15.5l9-12.7l-1.2,14.9l5-13.6l4.3,14.2l1-14.3l6.4,12.2L133.2,63l11.7,9.1l-7.6-11.6l12.9,5l-9.9-9.7
			l13.2,1L140.7,52L140.7,52z"/>
		<path class="st6" d="M1.9,76.9c40.4-40.4,72.7-52.9,102-58.5c3.8-0.7,4.6-9.3,4.6-9.3s0.5,6.2,3.2,7.1c2.7,0.8,6.2-9.8,6.2-9.8
			s-3.2,9.5,0,10.1c3.2,0.5,9.3-9.3,9.3-9.3s-2.4,8.4-0.8,9c1.6,0.5,9.8-12.2,9.8-12.2s-4.8,8.4-0.3,9.3c4.6,0.8,11.4-5.7,11.4-5.7
			s-5.2,5.9-2.9,6.9c10.1,3.5,18.1-9.5,18.1-9.5s-1.9,5.7-6.8,12c10.6,2.7,18.4-13.2,18.4-13.2l-7.9,15.9c4,2,20.3-16.7,20.3-16.7
			s-8.4,14.6-13.3,17.6c2.7,2.2,12.5-6.6,12.5-6.6s-7.9,9.8-4.8,10.3C185.3,27.7,201.3,6,201.3,6s-6.2,12.8-15.4,22.8
			c7.7,3.9,26.8-20.8,26.8-20.8s-0.5,7.9-14.4,20.4c10.3-1.3,23.6-20.9,23.6-20.9s-4.8,14.6-16.5,25c10.1-1,26.3-26,26.3-26
			s-6.2,17.3-18.9,27.4c14.1,3.1,34.5-17.9,34.5-17.9s-8,14.9-18.4,21.1c11.7,4.4,27.7-14,27.7-14s-16,24.7-41.5,23.6
			c-8.4-0.4-33.7-25.4-87.9-23.4C55.3,25.9,40.2,56.3,1.9,76.9"/>
		<path class="st2" d="M3.5,73.9c40.4-40.4,72.7-52.9,102-58.5c3.8-0.7,4.6-9.3,4.6-9.3s0.5,6.2,3.2,7.1c2.7,0.8,6.2-9.8,6.2-9.8
			s-3.2,9.5,0,10.1c3.2,0.5,9.3-9.3,9.3-9.3s-2.4,8.4-0.8,9c1.6,0.5,9.8-12.2,9.8-12.2s-4.8,8.4-0.3,9.3c4.6,0.8,11.4-5.7,11.4-5.7
			s-5.2,5.9-2.9,6.9c10.1,3.5,18.1-9.5,18.1-9.5s-1.9,5.7-6.8,12c10.6,2.7,18.4-13.2,18.4-13.2L168,16.5C172,18.7,188.3,0,188.3,0
			S180,14.6,175,17.6c2.7,1.9,12.5-6.8,12.5-6.8s-7.9,9.8-4.8,10.3C187,24.7,203.1,3,203.1,3s-6.3,12.8-15.5,22.8
			c7.7,3.8,26.9-20.9,26.9-20.9s-0.5,7.9-14.4,20.4c10.3-1.3,23.6-20.9,23.6-20.9s-4.8,14.6-16.5,25c10.1-1,26.3-26,26.3-26
			s-6.2,17.3-18.9,27.4c14.1,3.1,34.5-17.9,34.5-17.9s-8,14.9-18.4,21.1c11.7,4.4,27.7-14,27.7-14s-16,24.7-41.5,23.6
			c-8.4-0.4-33.7-25.4-87.9-23.4C57,22.9,41.8,53.2,3.5,73.9"/>
		<path class="st6" d="M0.9,81.3c21.4,10.7,40.9-1.6,65.5,5.3c18.7,5.2,41.5,11.8,72.5,7.3c30.9-4.4,57.3-17.9,70-41.9
			c3.9-10.7,20,2.4,20,2.4s-11.7-4.8-11.4-2.6c0.3,2.3,17.5,10.3,17.5,10.3s-15.6-4.8-14.6-1.2c0.9,3.6,19.5,18.3,19.5,18.3
			s-21.3-15.9-23-13.7c-1.8,2.2,9,11,9,11s-17.7-11-24-7.8c-4.5,2.3,18.4,17.3,18.4,17.3s-14.9-11.4-18.4-8.4
			c-3.5,3,16.8,27.4,16.8,27.4s-23.2-25-25.5-23.8c-2.3,1.2,6.3,13.2,6.3,13.2S188.3,82,185.2,84.1c-3.1,2.2,16.3,34.6,16.3,34.6
			s-21.1-33.2-29.8-27.6c13.6,29.9,8.6,34.2,8.6,34.2s-1.7-30.5-18.7-29.7c-8.6,0.4,4,22.8,4,22.8S154,97.8,146.2,98.3
			c14.2,27,9.2,37.9,9.2,37.9s2.3-23.1-16.9-35.9c7.4,6.6-4.6,35.9-4.6,35.9s10.5-43.2-7.8-35c-2.9,1.3-0.2,21.6-0.2,21.6
			s-3.6-23.2-9.2-22c-3.2,0.7-20.4,32.1-20.4,32.1s14-34,9.8-32.5c-3.1,1-9,15-9,15s2.8-13.8,0-14.6c-2.8-0.8-18.7,14.6-18.7,14.6
			s11.8-13.8,9.8-16.7c-3.1-4.3-6.7-4.5-11-2.8c-6.2,2.4-14.6,13.8-14.6,13.8s8.4-11.6,7-15.8c-2.3-7-26.4,13.4-26.4,13.4
			s14.2-13.4,11-16.3c-3.2-2.8-21-2-26.4-2C11.5,89.1,5.8,85.3,0.9,81.3"/>
		<path class="st2" d="M0,78.9c21.4,10.7,40.9-1.6,65.5,5.3C84.2,89.5,107,96,138,91.5c30.9-4.4,57.3-17.9,70-41.9
			c3.9-10.7,20,2.4,20,2.4s-11.7-4.8-11.4-2.6c0.3,2.3,17.5,10.3,17.5,10.3s-15.6-4.8-14.6-1.2c0.9,3.6,19.5,18.3,19.5,18.3
			S218,60.8,216.3,63c-1.7,2.2,9,11,9,11s-17.7-11-24-7.8c-4.5,2.3,18.4,17.3,18.4,17.3s-14.9-11.4-18.4-8.4
			c-3.5,3,16.8,27.4,16.8,27.4s-23.1-25-25.4-23.8C190.4,80,199,92,199,92s-11.5-12.4-14.6-10.3c-3.1,2.2,16.2,34.6,16.2,34.6
			S179.6,83,170.9,88.6c13.7,30,8.6,34.3,8.6,34.3s-1.7-30.5-18.7-29.7c-8.6,0.4,4,22.8,4,22.8s-11.5-20.4-19.2-20
			c14.2,27,9.2,37.9,9.2,37.9s2.3-23.1-16.9-35.9c7.4,6.6-4.6,35.9-4.6,35.9s10.5-43.2-7.8-35c-2.9,1.3-0.2,21.6-0.2,21.6
			s-3.6-23.2-9.2-22c-3.2,0.7-20.4,32.1-20.4,32.1s14-34,9.8-32.5c-3.1,1-9,15-9,15s2.8-13.8,0-14.6c-2.8-0.8-18.7,14.6-18.7,14.6
			s11.8-13.8,9.8-16.7c-3.1-4.3-6.7-4.5-11-2.8c-6.2,2.4-14.6,13.8-14.6,13.8s8.4-11.6,7-15.8c-2.3-7-26.4,13.4-26.4,13.4
			s14.2-13.4,11-16.3c-3.2-2.8-21-2-26.4-2C10.6,86.7,4.9,82.8,0,78.9"/>
	</g>
</g>
</svg>
