<svg xmlns="http://www.w3.org/2000/svg" width="400" height="225">
	<g fill-rule="evenodd">
		<path d="M94.429 73.164c-3.093.433-3.139.471-16.12 13.426-15.298 15.267-13.931 12.719-13.931 25.959 0 13.25-1.312 10.776 13.731 25.884 12.842 12.897 12.832 12.889 16.391 13.644 2.413.513 4.54.221 7.019-.961 1.895-.904 20.376-19.067 21.924-21.548 2.087-3.342 2.351-7.409.698-10.761-1.067-2.165-1.11-2.192-2.046-1.293-2.873 2.759-3.482 3.451-3.34 3.793.627 1.508.602 3.284-.064 4.636-.398.808-18.96 19.471-19.365 19.471-.156 0-.283.091-.283.202 0 .782-3.81.792-5.064.015-1.359-.842-22.789-22.569-23.165-23.486-.646-1.572-.514-17.94.155-19.219.623-1.193 22.389-23.056 23.459-23.563 1.022-.485 3.156-.447 4.278.077 1.708.797 20.018 19.487 20.369 20.79.829 3.085.969 2.891-10.115 14.03-12.808 12.873-12.192 12.693-19.333 5.634-6.788-6.71-6.775-7.557.23-14.465 6.361-6.272 7.035-6.288 13.115-.306l3.837 3.777 2.087-2.127 2.086-2.128-3.549-3.541c-5.936-5.921-8.881-7.201-13.577-5.9-4.29 1.189-13.251 9.904-14.633 14.231-1.585 4.962-.266 8.21 5.8 14.278 6.068 6.071 7.174 6.722 11.432 6.726 4.814.004 5.141-.231 17.136-12.292 11.192-11.254 11.773-12.062 11.773-16.402 0-4.343-.58-5.151-11.773-16.389-12.427-12.478-13.272-13.016-19.162-12.192m233.539 16.875v3.602h7.654v-7.203h-7.654v3.601m-75.927-3.231c-.086.085-.156 1.81-.156 3.832v3.676h-5.177v6.753h5.153l.069 12.887c.075 14.264-.021 13.336 1.571 15.149 1.541 1.755 2.181 1.902 8.281 1.902h5.41v-7.203h-3.597c-3.544 0-3.599-.007-3.721-.506-.067-.279-.095-5.369-.06-11.312l.062-10.804 3.658-.062 3.658-.062v-6.742h-3.597c-4.255 0-3.809.49-3.889-4.277l-.055-3.264-3.728-.061c-2.05-.034-3.797.008-3.882.094m-64.058 6.956c-6.309 1.368-10.837 5.605-11.411 10.676l-.154 1.367 3.79-.061 3.79-.062.323-1.351c1.556-6.507 12.069-7.036 14.407-.726 1.463 3.949 1.075 4.726-2.555 5.107-15.031 1.578-21.481 5.285-21.494 12.356-.007 3.842 1.847 6.967 5.295 8.925 5.537 3.145 14.896 2.278 18.415-1.705.391-.442.961-1.1 1.268-1.463.388-.459.571-.557.602-.322.024.186.173 1.275.33 2.42l.286 2.082h7.265l-.295-1.407c-.524-2.5-.775-8.98-.618-15.925.207-9.155-.4-12.185-3.119-15.568-2.959-3.683-10.192-5.631-16.125-4.343m111.848.016c-4.016.875-8.366 3.84-9.719 6.625-.943 1.942-1.536 3.844-1.536 4.928 0 .449.115.463 3.827.463 3.552 0 3.827-.029 3.827-.41 0-5.508 8.335-8.249 13.129-4.317 1.134.93 2.153 3.708 2.169 5.914.01 1.325-.141 1.405-3.256 1.728-14.778 1.535-21.497 5.397-21.497 12.357 0 6.628 5.214 10.732 13.619 10.723 5.528-.006 8.396-1.18 11.218-4.593.687-.832 1.039-.695 1.046.407.002.295.123 1.181.268 1.969l.264 1.433h3.562c3.902 0 3.712.084 3.331-1.463-.23-.932-.928-11.354-.778-11.597.524-.847-.018-14.522-.601-15.178a.908.908 0 0 1-.19-.519c0-1.756-3.04-5.562-5.576-6.982-2.91-1.629-9.188-2.342-13.107-1.488m-148.677.104c-9.238 1.287-14.861 8.481-14.854 19.003.008 11.622 6.61 18.869 17.217 18.899 6.384.017 10.276-1.802 14.361-6.712.89-1.072 2.709-5.087 2.741-6.053.003-.093-1.767-.169-3.934-.169-3.599 0-3.939.034-3.944.394-.055 4.374-8.209 7.731-12.771 5.257-6.875-3.728-7.822-17.377-1.553-22.384 4.202-3.358 10.914-2.036 13.53 2.664l.501.901 3.751.061c4.29.071 4.1.185 3.28-1.975-2.622-6.899-10.245-11.012-18.325-9.886m74.395.104c-8.211 1.277-12.778 6.621-11.122 13.014 1.217 4.697 4.615 6.796 13.71 8.471 6.379 1.174 8.892 2.754 8.892 5.592 0 6.038-12.177 6.905-15.091 1.074-.366-.733-.666-1.469-.666-1.635 0-.24-.792-.301-3.909-.301h-3.909l.396 1.428c.945 3.409 3.461 6.615 6.414 8.173 6.817 3.598 16.604 2.558 21.379-2.27 5.835-5.9 3.193-14.907-4.985-16.994-.477-.122-1.475-.386-2.218-.587a49.56 49.56 0 0 0-2.926-.669l-3.297-.635c-4.024-.774-5.396-1.452-6.214-3.071-1.199-2.374-.365-3.799 3.186-5.444 3.295-1.527 10.41.594 11.069 3.299.24.982.334 1.005 4.078 1.009 3.837.004 3.771.033 3.323-1.454-2.001-6.651-9.443-10.349-18.11-9m102.419 21.262v15.757h7.654V99.494h-7.654v15.756m-128.58 1.243c.074 3.07-.246 4.446-1.413 6.087-3.408 4.795-13.135 4.639-14.744-.236-1.353-4.1 2.578-6.903 11.254-8.026 1.052-.137 2.471-.321 3.151-.411.681-.089 1.34-.145 1.464-.123.13.023.251 1.157.288 2.709m112.325-.363c.185 6.638-2.931 9.813-9.631 9.813-5.075 0-7.463-2.316-6.663-6.464.459-2.383 4.722-4.35 11.165-5.152 1.052-.131 2.521-.317 3.264-.413.743-.096 1.452-.155 1.576-.132.127.024.253 1.041.289 2.348m-38.443 11.276v3.601h8.103v-7.203h-8.103v3.602" fill="#060606"/>
		<path d="M0 112.549v112.549h400V0H0v112.549m101.128-38.931c.772.384 1.759.962 2.192 1.285 1.024.763 18.772 18.539 19.832 19.863 3.13 3.908 3.166 10.016.083 13.85-1.62 2.014-19.461 19.693-20.614 20.427-3.772 2.399-9.015 2.327-12.564-.174-1.224-.862-9.38-9.194-9.916-10.13-2.196-3.834-2.221-8.16-.066-11.813 1.306-2.215 9.467-10.163 11.396-11.098 5.665-2.749 9.219-1.683 15.675 4.702l4.163 4.118-2.138 2.235c-1.175 1.229-2.261 2.222-2.413 2.206-.152-.016-1.925-1.664-3.939-3.663-6.062-6.015-6.555-5.995-13.061.546-4.495 4.519-4.671 4.777-4.671 6.826 0 1.967.408 2.557 4.768 6.89 6.964 6.921 6.207 7.151 19.114-5.805l9.588-9.624.285-1.341c.608-2.866.88-2.5-9.979-13.386C98.321 78.965 98.427 79.049 95.999 79.3c-.683.07-1.568.332-1.968.582-1.163.726-22.511 22.468-22.953 23.377-.634 1.303-.602 17.568.038 18.871.853 1.741 22.893 23.391 24.157 23.731 2.678.718 2.917.541 13.288-9.852 11.3-11.325 10.925-10.799 10.083-14.144l-.268-1.065 2.184-2.193c2.4-2.409 2.435-2.42 3.271-1.035 2.166 3.585 2.117 8.766-.114 12.127-1.655 2.494-20.186 20.724-21.985 21.628-3.196 1.606-7.083 1.616-10.265.025-1.546-.773-23.1-21.84-25.191-24.622-1.946-2.589-2.123-3.773-2.123-14.181 0-9.755.061-10.367 1.286-12.83 1.084-2.181 23.97-24.93 26.064-25.907 2.931-1.369 7.087-1.453 9.625-.194m234.668 16.478-.062 3.883-3.922.061c-2.988.047-3.966-.006-4.105-.225-.218-.343-.254-7.237-.039-7.452.083-.083 1.959-.15 4.17-.15h4.02l-.062 3.883m-75.719-3.302c.075.196.137 1.918.137 3.827v3.47h7.203v7.203h-7.203v22.049l3.545.062 3.545.062.062 3.995.061 3.996h-5.162c-5.974 0-7.015-.23-8.709-1.921-1.901-1.898-1.775-.854-1.847-15.349l-.063-12.88-2.638-.063-2.638-.063v-6.978l2.589-.113 2.589-.112.058-3.489c.032-1.919.105-3.616.162-3.771.172-.469 8.128-.397 8.309.075m48.577 6.757c3.33.63 5.013 1.516 7.305 3.844 1.289 1.31 2.78 3.779 2.78 4.604 0 .182.095.427.212.545.556.563.863 5.42.747 11.806-.12 6.598.156 12.614.699 15.245.402 1.945.53 1.883-3.7 1.812l-3.698-.062-.155-.788c-.086-.433-.289-1.438-.451-2.234l-.295-1.446-.534.771c-1.068 1.543-3.768 3.313-5.88 3.857-.434.112-1.143.296-1.576.41-1.021.268-6.632.268-7.653 0-.434-.114-1.152-.3-1.596-.413-8.872-2.261-11.315-12.94-4.155-18.165 1.442-1.052 5.882-3.032 6.812-3.037.15-.001.708-.139 1.238-.308 1.336-.423 7.595-1.445 11.263-1.838l1.294-.139v-.979c0-4.642-2.856-7.542-7.429-7.542-4.042 0-7.014 2.23-7.245 5.438l-.07.977-4.108.061-4.108.062.006-.737c.029-3.901 3.168-8.264 7.464-10.377 3.763-1.851 7.935-2.295 12.833-1.367m-112.553-.029c5.352.933 8.861 3.809 10.485 8.592.87 2.561 1.034 4.697.886 11.51-.146 6.714.088 12.545.628 15.641.409 2.339.624 2.215-3.728 2.142l-3.697-.062-.313-2.026c-.173-1.114-.345-2.064-.384-2.11-.039-.046-.672.517-1.406 1.251-1.314 1.314-3.516 2.613-5.136 3.029l-1.596.413c-1.093.285-6.447.285-7.541 0l-1.596-.413c-6.896-1.773-10.59-9.823-6.993-15.241 2.907-4.381 8.788-6.543 21.983-8.082l1.294-.151v-1.659c0-.912-.101-1.721-.225-1.798-.124-.076-.225-.312-.225-.523 0-.211-.203-.763-.451-1.226-3.049-5.687-13.73-3.637-13.73 2.636v.576h-4.165c-2.29 0-4.163-.076-4.162-.168.005-.526.491-3.071.647-3.392.102-.208.375-.784.607-1.279.858-1.828 4.114-5.515 4.871-5.515.102 0 .563-.234 1.024-.52 2.819-1.743 8.295-2.432 12.923-1.625m-38.982.129c5.993.949 12.158 6.39 13.194 11.644l.145.737-4.119-.062-4.12-.061-.523-1.013c-3.134-6.066-12.402-5.771-15.538.495-1.91 3.815-2.09 12.431-.297 14.224.125.125.228.41.228.633 0 .222.094.405.21.405.115 0 .267.181.338.403.07.222.507.812.972 1.312 4.412 4.749 13.022 3.032 14.806-2.953l.268-.901h8.054l-.035.563c-.305 4.854-6.078 11.041-11.557 12.385-.557.137-1.456.354-1.997.484-1.282.306-7.322.114-8.358-.266-8.647-3.176-12.542-8.705-12.777-18.14-.331-13.259 8.776-21.841 21.106-19.889m74.958-.007c3.791.581 6.48 1.913 8.934 4.426 1.557 1.594 2.928 4.115 3.04 5.588l.068.9h-7.647l-.453-.956c-1.311-2.766-4.754-4.068-9.145-3.46-7.059.978-6.704 6.969.475 8.023.558.082 1.621.281 2.364.443l3.151.686c.991.215 2.235.53 2.766.698.53.168 1.083.306 1.227.306.766 0 4.471 2.098 5.483 3.104 5.388 5.36 2.559 14.574-5.379 17.516-.92.34-1.34.457-3.611 1-1.323.316-8.043.173-9.039-.192-.372-.137-1.317-.471-2.1-.743-4.218-1.464-7.587-5.116-8.684-9.413-.483-1.889-.596-1.838 3.89-1.767l3.878.062.541 1.33c2.537 6.245 14.818 6.2 14.818-.055 0-3.039-1.69-4.046-9.305-5.543-10.043-1.975-13.505-4.875-13.505-11.313 0-7.027 8.696-12.102 18.233-10.64m103.657 21.606v16.095l-3.922.062c-2.988.047-3.966-.007-4.105-.225-.317-.501-.233-31.554.087-31.874.2-.2 1.317-.258 4.108-.213l3.832.061v16.094m-139.561-.886c-.495.101-1.999.349-3.343.55-7.235 1.082-10.169 3.287-9.365 7.038.711 3.314 7.068 5.11 10.94 3.091.353-.185.723-.336.821-.337.597-.005 2.911-2.462 3.198-3.395.093-.3.27-.673.394-.828.124-.156.278-1.65.342-3.32l.116-3.038-1.101.027a13.77 13.77 0 0 0-2.002.212m112.85-.127c-.062.062-.965.22-2.007.352-8.054 1.015-11.462 2.878-11.462 6.265 0 3.604 3.331 5.483 8.501 4.794 4.897-.651 7.11-3.311 7.41-8.903l.14-2.62h-1.235c-.679 0-1.285.05-1.347.112m-27.561 9.473c.204.532.158 7.14-.053 7.471-.138.219-1.139.273-4.217.226l-4.035-.062-.062-3.81c-.047-2.897.007-3.853.225-3.992.594-.377 7.991-.225 8.142.167" fill="#fbfbfb"/>
		<path d="M92.966 73.167c-.247.167-.156.188.337.078.828-.185 1.008-.314.432-.31a1.64 1.64 0 0 0-.769.232m6.096-.154c.052.044.398.149.769.232.493.11.584.089.338-.078-.304-.205-1.333-.349-1.107-.154M77.996 86.494 66.517 98.03l11.536-11.479c10.723-10.67 11.637-11.593 11.479-11.593-.031 0-5.223 5.191-11.536 11.536m17.298-7.312c-.143.091.43.165 1.273.165s1.416-.074 1.273-.165c-.143-.091-.716-.166-1.273-.166-.557 0-1.13.075-1.273.166m16.571 4.161c.932.994 1.134 1.172 1.134 1.003 0-.036-.481-.517-1.069-1.069l-1.069-1.004 1.004 1.07m215.753 3.161c-.062.159-.083 1.856-.049 3.77l.063 3.48.112-3.771c.11-3.705.097-4.062-.126-3.479m-75.811.103c-.058.092 1.126.142 2.631.11 5.132-.111 5.668-.191 1.569-.235-2.253-.024-4.142.032-4.2.125m8.273 3.883c0 2.042.035 2.878.076 1.857a54.753 54.753 0 0 0 0-3.714c-.041-1.022-.076-.186-.076 1.857M79.787 93.922l-.89.957.957-.89c.889-.827 1.06-1.023.889-1.023-.036 0-.467.43-.956.956m223.702-.795c.34.051.898.051 1.238 0 .341-.052.062-.094-.619-.094s-.959.042-.619.094m-113.897.225c.342.052.849.051 1.126-.003.277-.053-.003-.096-.622-.094-.619.002-.846.046-.504.097m3.602 0c.342.052.849.051 1.125-.003.277-.053-.003-.096-.622-.094-.619.002-.845.046-.503.097m108.159-.002c.28.054.685.052.901-.005.215-.056-.014-.1-.509-.097-.496.002-.672.048-.392.102m4.727 0c.28.054.685.052.901-.005.215-.056-.014-.1-.509-.097-.496.002-.672.048-.392.102m-154.082.221c.216.057.571.057.788 0 .216-.057.039-.103-.394-.103-.434 0-.611.046-.394.103m75.073.004c.28.054.685.052.9-.004.215-.057-.014-.101-.509-.098-.495.002-.671.048-.391.102m2.926 0c.28.054.685.052.9-.004.216-.057-.013-.101-.509-.098-.495.002-.671.048-.391.102m101.686.291-4.052.128 3.982.049c2.466.03 4.035-.038 4.121-.177.077-.124.108-.203.07-.177-.038.027-1.893.106-4.121.177m-173.645.081c.051.044.398.149.769.232.493.11.584.089.338-.078-.304-.205-1.333-.349-1.107-.154m88.319.436c-.062.16-.084 1.756-.049 3.545l.062 3.254 2.646.011 2.645.011-2.6-.075-2.6-.074.067-3.482c.067-3.437.049-3.764-.171-3.19m-150.746.323c.526.048 1.387.048 1.913 0 .526-.047.096-.086-.957-.086-1.052 0-1.483.039-.956.086M75.74 97.974l-1.57 1.632 1.632-1.57c.897-.863 1.632-1.597 1.632-1.632 0-.165-.237.054-1.694 1.57m13.898-1.013c-.538.526-.547.552-.06.172.961-.748 1.007-.791.848-.791-.085 0-.439.279-.788.619m90.764.113-.661.731.732-.661c.402-.363.731-.693.731-.731 0-.174-.185-.021-.802.661m135.299.169c.483.495.929.9.991.9.062 0-.283-.405-.766-.9-.484-.496-.93-.901-.992-.901-.062 0 .283.405.767.901m-23.646.281-.89.957.957-.89c.526-.49.956-.92.956-.957 0-.17-.196 0-1.023.89m-188.06.056c.42.434.815.788.877.788.062 0-.231-.354-.651-.788-.42-.433-.815-.788-.877-.788-.061 0 .232.355.651.788m136.748.338c.483.495.93.9.992.9.061 0-.284-.405-.767-.9-.484-.495-.93-.901-.992-.901-.062 0 .283.406.767.901m88.464 1.279c3.296.162 6.589.17 6.493.015-.058-.093-1.846-.149-3.974-.125-2.129.024-3.262.073-2.519.11m-137.927.231c.28.053.685.051.9-.005.216-.056-.013-.1-.509-.098-.495.003-.671.049-.391.103m111.987.002c.342.052.849.05 1.126-.003.276-.054-.004-.096-.623-.094-.619.002-.845.045-.503.097m24.358 15.82c0 8.729.028 12.299.062 7.935s.034-11.505 0-15.869c-.034-4.364-.062-.794-.062 7.934M72.699 101.013l-1.23 1.294 1.294-1.23c1.203-1.143 1.398-1.358 1.23-1.358-.035 0-.617.582-1.294 1.294m153.806-.914c.217.057.572.057.788 0 .217-.057.04-.103-.394-.103-.433 0-.61.046-.394.103m3.492.004c.28.054.685.052.9-.005.216-.056-.013-.1-.509-.098-.495.003-.671.049-.391.103m-75.073.446c.217.057.571.057.788 0 .217-.057.039-.103-.394-.103s-.611.046-.394.103m-29.477 1.196c0 .68.043.959.094.619a4.94 4.94 0 0 0 0-1.239c-.051-.34-.094-.061-.094.62m134.692-.526c-.083.083-.15 5.143-.15 11.245v11.094l3.693.067c2.031.037 3.646-.009 3.588-.102-.058-.093-1.669-.169-3.58-.169h-3.476v-22.049l3.658-.067 3.658-.068-3.621-.05c-1.991-.028-3.688.017-3.77.099m-170.44 4.634-4.049 4.108 4.108-4.05c3.817-3.762 4.21-4.166 4.049-4.166-.032 0-1.88 1.848-4.108 4.108m13.393-.226c1.918 1.95 3.64 3.538 3.827 3.528.301-.016.301-.032.003-.138-.186-.066-1.908-1.653-3.827-3.527l-3.489-3.408 3.486 3.545m44.56-2.588-.775.844.844-.776c.786-.722.947-.912.776-.912-.038 0-.418.38-.845.844m11.943-.774c0 .039.329.368.731.732l.732.661-.661-.732c-.616-.682-.802-.835-.802-.661m-40.717.418a4.079 4.079 0 0 1-.156.788c-.122.39-.116.391.128.011.142-.221.212-.575.156-.788-.092-.348-.104-.35-.128-.011m87.801.074c-.004.248.08.653.187.901.246.573.246-.018 0-.788-.145-.452-.182-.474-.187-.113m7.244 1.576c0 1.114.038 1.599.085 1.076.047-.522.048-1.434.001-2.026-.046-.592-.085-.164-.086.95m-37.53-.985c-.188.939-.006 1.12.197.197.085-.389.108-.754.051-.811-.057-.058-.169.219-.248.614m-112.137 9.201c0 5.262.03 7.414.066 4.784.036-2.631.036-6.936 0-9.567-.036-2.631-.066-.478-.066 4.783m176.037-8.103-3.827.129 3.757.048c2.315.029 3.811-.039 3.896-.177.077-.124.108-.204.07-.177-.038.026-1.792.106-3.896.177m56.135.851c-.074.447-.041.657.084.532.113-.113.168-.445.122-.738-.071-.451-.102-.419-.206.206m-97.377 1.737c.002.619.046.846.098.504.051-.342.05-.849-.003-1.126-.054-.277-.096.003-.095.622m8.361 4.052c0 2.848.033 3.981.072 2.52a114.58 114.58 0 0 0 0-5.178c-.04-1.385-.072-.189-.072 2.658m112.304-2.138c0 .928.039 1.308.088.844a9.912 9.912 0 0 0 0-1.688c-.049-.465-.088-.085-.088.844m-123.599-.52c.217.056.571.056.788 0 .217-.057.039-.103-.394-.103s-.611.046-.394.103m32.133.069c.309.1.765.181 1.013.181.356 0 .333-.038-.113-.181-.309-.099-.765-.18-1.013-.18-.356 0-.333.038.113.18m79.966-.069c.217.056.571.056.788 0 .217-.057.039-.103-.394-.103s-.611.046-.394.103m-121.272 1.42c-.283.122-.325.194-.112.194.185 0 .54-.088.788-.194.283-.122.325-.193.112-.193-.186 0-.54.087-.788.193m29.488 1.351c.484.495.93.9.992.9.062 0-.283-.405-.767-.9-.483-.496-.93-.901-.991-.901-.062 0 .283.405.766.901m-131.509 1.575c0 .557.044.785.098.507a3.187 3.187 0 0 0 0-1.013c-.054-.279-.098-.051-.098.506m59.422.113c.002.495.048.671.102.391.054-.28.052-.685-.004-.9-.057-.215-.101.014-.098.509m32.684 1.744-.889.957.956-.89c.89-.827 1.06-1.023.89-1.023-.037 0-.467.43-.957.956m21.892-.572c.163.116.304.955.353 2.099l.081 1.906-.015-2.008c-.012-1.584-.086-2.027-.353-2.099-.24-.065-.259-.035-.066.102m90.093.685-.775.844.844-.776c.464-.426.844-.806.844-.844 0-.172-.191-.01-.913.776m-94.132-.235c.28.054.685.052.9-.004.215-.057-.014-.101-.509-.098-.495.002-.671.048-.391.102m112.209-.004c.216.057.571.057.787 0 .217-.056.04-.103-.393-.103-.434 0-.611.047-.394.103m-228.528.427c.002.237.106.583.232.769.167.246.188.155.077-.338-.185-.828-.314-1.007-.309-.431m223.632.329c-.314.142-.178.162.45.067.495-.076.943-.175.994-.22.193-.17-1.012-.043-1.444.153M89.589 119.64c2.04 2.043 3.76 3.714 3.822 3.714.062 0-1.557-1.671-3.597-3.714s-3.759-3.714-3.821-3.714c-.062 0 1.556 1.671 3.596 3.714m229.91-1.126c0 1.362.038 1.89.082 1.174.045-.716.045-1.831-.001-2.476-.045-.646-.082-.059-.081 1.302m-198.396-.45c-.922.929-1.626 1.688-1.564 1.688.061 0 .867-.759 1.789-1.688.922-.928 1.626-1.688 1.565-1.688-.062 0-.868.76-1.79 1.688m123.692 2.139c0 1.228.068 2.06.153 1.848.084-.212.153-1.044.153-1.848 0-.805-.069-1.637-.153-1.849-.085-.212-.153.62-.153 1.849m-82.196-1.454c-.074.191-.07.411.007.488.077.077.14-.033.14-.245 0-.351.352-.379 4.031-.319 2.217.037 3.983-.01 3.926-.102-.227-.366-7.961-.196-8.104.178m124.092-.001c-.077.201-.13.586-.118.854.015.309.091.199.208-.298.197-.837.143-1.165-.09-.556m-204.868 2.13c.735.743 1.387 1.35 1.449 1.35.062 0-.489-.607-1.224-1.35-.735-.743-1.387-1.351-1.449-1.351-.062 0 .489.608 1.224 1.351m131.425-.783c-.074.193-.072.415.005.492.077.078.14-.028.14-.234 0-.445 7.737-.586 7.956-.145.063.127.088.102.056-.056-.096-.474-7.976-.53-8.157-.057m82.149.783c0 .681.042.959.093.619a4.932 4.932 0 0 0 0-1.238c-.051-.341-.093-.062-.093.619m-121.103.225c0 .681.042.959.093.619.052-.34.052-.898 0-1.238-.051-.34-.093-.062-.093.619m33.102 2.138c-.001 1.115.037 1.599.084 1.076.047-.522.048-1.434.001-2.025-.046-.592-.085-.165-.085.949m79.158-.544c.002.3.103.696.225.882.155.238.178.104.076-.45-.178-.971-.306-1.154-.301-.432m-167.635.882c0 .681.043.96.094.619.052-.34.052-.897 0-1.238-.051-.34-.094-.062-.094.619m190.24-.169-.662.732.732-.661c.682-.617.835-.802.661-.802-.039 0-.368.329-.731.731M82.386 134.005c6.128 6.166 11.345 11.32 11.593 11.453.247.133.396.203.331.155-.066-.048-5.283-5.202-11.593-11.453l-11.473-11.367 11.142 11.212m237.33-9.3c0 .928.039 1.308.088.844a9.923 9.923 0 0 0 0-1.689c-.049-.464-.088-.084-.088.845m-44.376-1.184c1.077.042 2.901.042 4.052.001 1.152-.041.27-.075-1.958-.075-2.229 0-3.171.033-2.094.074m20.665-.097c0 .039.329.368.731.732l.732.661-.661-.731c-.617-.682-.802-.835-.802-.662m-22.856 4.094.008 3.827 4.052.008 4.052.007-3.991-.069-3.99-.069-.069-3.765-.07-3.765.008 3.826m8.316-.112c0 2.043.034 2.878.076 1.857a56.088 56.088 0 0 0 0-3.714c-.042-1.022-.076-.186-.076 1.857m-185.402-2.992c.28.053.686.051.901-.005.215-.056-.014-.1-.509-.098-.496.003-.672.049-.392.103m131.568 1.346c.216.057.571.057.788 0 .216-.057.039-.103-.394-.103-.434 0-.611.046-.394.103m2.926 0c.217.057.571.057.788 0 .217-.057.039-.103-.394-.103s-.611.046-.394.103m-41.193.231c.341.052.898.052 1.238 0 .341-.051.062-.093-.619-.093s-.959.042-.619.093m112.099 0c.341.052.898.052 1.238 0 .341-.051.062-.093-.619-.093s-.959.042-.619.093m-213.224 1.302c.672.681 1.273 1.238 1.335 1.238.062 0-.438-.557-1.11-1.238-.673-.681-1.274-1.238-1.336-1.238-.061 0 .438.557 1.111 1.238m78.109-.225c-.547.557-.944 1.013-.882 1.013.062 0 .56-.456 1.107-1.013.547-.557.943-1.013.881-1.013-.061 0-.559.456-1.106 1.013m75.648.399c-.828.949-.949 1.147-.374.614.755-.701 1.856-2.034 1.669-2.021-.04.003-.622.636-1.295 1.407m-126.525 1.683-2.359 2.42 2.42-2.359c2.247-2.192 2.522-2.481 2.359-2.481-.033 0-1.122 1.089-2.42 2.42m83.994-1.913c-.24.398-.242.446-.009.225.475-.451.655-.332.683.45.014.415.072.553.132.32.286-1.107-.301-1.832-.806-.995m112.691.056c.06.31.147.563.194.563.048 0 .087-.253.087-.563 0-.309-.088-.563-.194-.563-.107 0-.146.254-.087.563m-22.792 1.013c.484.495.93.901.992.901.062 0-.283-.406-.767-.901-.483-.495-.93-.9-.992-.9-.061 0 .284.405.767.9m31.018 2.139.046.675h-3.749c-2.062 0-3.703.076-3.645.169.058.093 1.759.169 3.781.169 3.932 0 4.041-.034 3.698-1.126-.166-.531-.174-.524-.131.113m-119.747.45c.044.43.212.45 3.867.45s3.822-.02 3.867-.45c.036-.35.02-.363-.07-.057-.104.355-.486.394-3.797.394-3.312 0-3.693-.039-3.797-.394-.091-.306-.106-.293-.07.057m55.928.378c.532.21 10.854.225 10.854.016 0-.093-2.529-.169-5.62-.169s-5.446.069-5.234.153m75.12-.041-4.052.129 3.982.048c2.466.03 4.035-.037 4.121-.177.077-.123.108-.203.07-.176-.038.026-1.893.106-4.121.176m-220.154 1.857-1.343 1.407 1.407-1.343c1.306-1.248 1.509-1.47 1.343-1.47-.035 0-.668.633-1.407 1.406m-3.15 3.152-1.57 1.632 1.632-1.57c1.516-1.458 1.735-1.694 1.57-1.694-.034 0-.769.734-1.632 1.632m-4.388 4.389-1.909 1.97 1.97-1.908c1.829-1.773 2.072-2.031 1.908-2.031-.034 0-.92.886-1.969 1.969m-3.38 3.377-1.23 1.294 1.294-1.23c1.203-1.143 1.398-1.359 1.231-1.359-.036 0-.618.583-1.295 1.295m6.634 2.588-.661.732.732-.661c.682-.616.835-.802.661-.802-.039 0-.368.329-.732.731m-11.184 5.956c.278.053.734.053 1.013 0 .278-.054.05-.098-.507-.098s-.785.044-.506.098" fill="#9f9f9f"/>
		<path d="M96.063 72.866c.28.054.686.052.901-.005.215-.056-.014-.1-.509-.097-.496.002-.672.048-.392.102m-7.269 11.827L87.451 86.1l1.407-1.343c1.306-1.248 1.509-1.471 1.343-1.471-.035 0-.668.634-1.407 1.407m242.929 1.685c2.802.051 3.894.146 3.961.346.052.152.083.125.069-.061-.021-.286-.627-.339-3.961-.346l-3.936-.009 3.867.07m-79.972 3.999c.001 1.981.035 2.761.077 1.734a51.477 51.477 0 0 0-.001-3.602c-.042-.953-.076-.113-.076 1.868m-60.246 2.973c.28.054.685.052.901-.005.215-.056-.014-.1-.51-.097-.495.002-.671.048-.391.102m37.026.221c.217.057.571.057.788 0 .217-.057.039-.103-.394-.103s-.61.046-.394.103m18.098.689c-.057.093.722.142 1.732.108 3.155-.104 3.512-.2.893-.239-1.386-.021-2.567.038-2.625.131m14.71-.017c3.015.163 6.028.172 5.931.017-.057-.093-1.694-.15-3.637-.126-1.942.023-2.975.072-2.294.109m-175.126 6.038c-.923.929-1.627 1.689-1.565 1.689.062 0 .867-.76 1.79-1.689.922-.928 1.626-1.688 1.564-1.688-.062 0-.867.76-1.789 1.688m165.552 13.394c0 6.747.029 9.507.064 6.134.035-3.374.035-8.895 0-12.268-.035-3.374-.064-.614-.064 6.134m-181.208-1.013c0 4.457.03 6.312.067 4.122.037-2.189.037-5.836 0-8.103-.036-2.268-.066-.476-.067 3.981m42.655-2.87-.775.844.844-.776c.464-.426.844-.806.844-.844 0-.172-.191-.01-.913.776m-1.69 1.688-.661.732.732-.662c.402-.363.731-.692.731-.731 0-.174-.186-.021-.802.661m-2.468 2.476-1.569 1.632 1.631-1.57c1.516-1.457 1.735-1.694 1.57-1.694-.034 0-.769.735-1.632 1.632m-3.376 3.377-1.57 1.632 1.632-1.57c1.516-1.458 1.735-1.694 1.57-1.694-.035 0-.769.734-1.632 1.632m-2.808 2.757c-.547.557-.943 1.013-.882 1.013.062 0 .56-.456 1.107-1.013.547-.557.944-1.013.882-1.013-.062 0-.56.456-1.107 1.013m183.748 1.013c0 .681.042.959.094.619.051-.34.051-.898 0-1.238-.052-.34-.094-.062-.094.619m-49.762 0c0 .433.046.611.103.394a1.869 1.869 0 0 0 0-.788c-.057-.217-.103-.039-.103.394m-7.759 4.886c.28.054.685.052.9-.004.215-.057-.014-.101-.509-.098-.495.002-.671.048-.391.102m-118.691 17.23-1.796 1.857 1.857-1.796c1.021-.987 1.857-1.823 1.857-1.857 0-.164-.251.071-1.918 1.796m-2.711 2.701-.661.732.732-.661c.682-.617.835-.802.661-.802-.039 0-.368.329-.732.731m-21.932.507c.42.433.814.787.876.787.062 0-.231-.354-.651-.787-.42-.434-.815-.788-.877-.788-.061 0 .232.354.652.788" fill="#848484"/>
		<path d="M94.598 73.087c.216.057.571.057.787 0 .217-.057.04-.103-.393-.103-.434 0-.611.046-.394.103m2.926 0c.217.057.571.057.788 0 .216-.057.039-.103-.394-.103s-.611.046-.394.103M77.996 86.719 66.742 98.03l11.311-11.254c6.221-6.189 11.311-11.279 11.311-11.311 0-.158-.907.74-11.368 11.254m31.064-5.909c2.97 2.972 5.45 5.403 5.512 5.403.062 0-2.317-2.431-5.287-5.403-2.969-2.971-5.449-5.402-5.511-5.402-.062 0 2.317 2.431 5.286 5.402m2.926 11.705c3.465 3.467 6.351 6.303 6.413 6.303.062 0-2.723-2.836-6.187-6.303-3.465-3.466-6.351-6.302-6.413-6.302-.062 0 2.723 2.836 6.187 6.302m4.277-4.501c.86.866 1.615 1.575 1.677 1.575.061 0-.592-.709-1.452-1.575-.86-.867-1.614-1.576-1.676-1.576-.062 0 .591.709 1.451 1.576m211.531 2.082-.051 3.77 3.996-.051 3.995-.05-3.877-.067-3.877-.068-.068-3.652-.068-3.653-.05 3.771m-68.084-1.014c.11 4.482.193 4.919.236 1.239.024-2.012-.033-3.658-.126-3.659-.093 0-.142 1.089-.11 2.42m76.001 1.07c0 1.733.035 2.413.078 1.51.043-.903.043-2.322 0-3.152-.044-.83-.079-.091-.078 1.642M120.09 91.84c1.109 1.114 2.067 2.026 2.129 2.026.062 0-.795-.912-1.904-2.026-1.109-1.114-2.067-2.026-2.129-2.026-.062 0 .795.912 1.904 2.026m-44.234 5.796-4.612 4.671 4.67-4.612c2.569-2.537 4.671-4.639 4.671-4.671 0-.16-.443.273-4.729 4.612m227.633-4.284c.34.052.898.052 1.238 0 .341-.052.062-.094-.619-.094s-.959.042-.619.094m-152.276.448c.28.054.685.052.9-.004.215-.057-.014-.101-.509-.098-.495.002-.671.048-.391.102m4.611-.004c.217.057.572.057.788 0 .217-.056.04-.103-.394-.103-.433 0-.61.047-.394.103m31.008.08c-.247.167-.156.188.337.078.828-.185 1.008-.314.432-.31a1.644 1.644 0 0 0-.769.232m39.338-.076c.28.054.686.052.901-.004.215-.057-.014-.101-.509-.098-.496.002-.672.048-.392.102m4.727 0c.28.054.686.052.901-.004.215-.057-.014-.101-.509-.098-.496.002-.672.048-.392.102m77.507-.078c.051.044.397.149.769.232.493.11.584.089.337-.078-.304-.205-1.332-.349-1.106-.154m-61.831 4.083c0 1.857.035 2.587.077 1.622.043-.965.042-2.485 0-3.377-.043-.891-.077-.102-.077 1.755m20.709 0c0 1.857.035 2.587.077 1.622.043-.965.042-2.485 0-3.377-.043-.891-.077-.102-.077 1.755M99.156 95.217c.247.106.602.193.788.193.213 0 .171-.071-.113-.193-.247-.107-.602-.194-.788-.194-.212 0-.171.072.113.194m192.899 2.532-.89.957.957-.89c.526-.49.956-.92.956-.957 0-.17-.196 0-1.023.89m-75.297.113-.776.844.844-.776c.786-.722.948-.913.776-.913-.038 0-.418.38-.844.845m111.089 1.688c-.059.155-.081 7.321-.049 15.926l.058 15.644 3.883.008 3.883.008-3.827-.07-3.827-.069V99.504l3.883-.067 3.883-.067-3.89-.051c-2.942-.038-3.916.018-3.997.231m7.881 15.7c0 8.357.028 11.776.063 7.597.034-4.178.034-11.015 0-15.194-.035-4.178-.063-.759-.063 7.597m-149.923-13.899-.661.731.731-.661c.402-.364.732-.693.732-.732 0-.173-.186-.02-.802.662m-89.744-.348c.278.054.734.054 1.013 0 .278-.054.05-.098-.507-.098s-.785.044-.506.098m138.942.854c.42.433.814.788.876.788.062 0-.231-.355-.651-.788-.42-.433-.814-.788-.876-.788-.062 0 .231.355.651.788m24.865 10.467c0 6.128.029 8.635.064 5.571.036-3.064.036-8.078 0-11.142-.035-3.064-.064-.557-.064 5.571M89.3 105.979c-2.193 2.206-3.988 4.096-3.988 4.202 0 .106.026.149.057.096.031-.052 1.875-1.943 4.099-4.201 2.224-2.259 3.993-4.106 3.931-4.106-.061 0-1.906 1.804-4.099 4.009m13.795-.52c1.916 1.919 3.534 3.489 3.596 3.489.062 0-1.455-1.57-3.371-3.489-1.916-1.919-3.534-3.489-3.596-3.489-.062 0 1.455 1.57 3.371 3.489m44.557-2.645-.775.844.844-.776c.786-.722.947-.912.776-.912-.038 0-.418.379-.845.844m12.618-.057c.42.434.814.788.876.788.062 0-.231-.354-.651-.788-.42-.433-.814-.787-.876-.787-.062 0 .231.354.651.787m61.284 1.126c.002.495.048.671.102.391.054-.28.052-.685-.004-.9-.057-.215-.101.014-.098.509m-14.875-.338c.011.585.366 1.546.373 1.013a2.633 2.633 0 0 0-.186-.9c-.119-.276-.191-.32-.187-.113m-30.391 1.632-.036.844h3.915c4.146 0 4.23-.021 4.166-1.087-.012-.212-.09-.13-.179.187l-.156.563-3.746.061-3.745.062-.092-.737c-.09-.732-.091-.731-.127.107m119.968 0-.026.619h-3.811c-3.637 0-3.816-.02-3.913-.453-.085-.378-.097-.368-.072.056.029.506.056.51 3.918.571 4.122.066 4.301.021 4.035-1.005-.069-.266-.114-.193-.131.212m-215.148.45c-.251.279-.536.659-.635.845-.19.358-.138.309.774-.732.298-.34.492-.619.43-.619s-.318.228-.569.506m88.841-.206c0 .488-7.114.575-7.653.094-.269-.239-.271-.223-.018.112.424.56 7.606.603 7.819.047.073-.191.07-.41-.007-.488-.077-.077-.141.029-.141.235m141.419.938c.002.495.049.671.102.391.054-.28.052-.685-.004-.9-.056-.215-.101.014-.098.509m-112.16.721c-.06.644-.026 1.088.075.987.101-.101.149-.628.108-1.171l-.075-.987-.108 1.171m23.301-.644c.245.29.65.632.899.759.478.245.408.17-.671-.727-.65-.539-.658-.541-.228-.032m96.963.823c.002.496.048.672.102.392.054-.28.052-.685-.005-.901-.056-.215-.1.014-.097.509m-121.779 1.169c.216.056.571.056.788 0 .216-.057.039-.103-.394-.103-.434 0-.611.046-.394.103m-53.128.745c0 .433.047.61.103.394a1.837 1.837 0 0 0 0-.788c-.056-.217-.103-.04-.103.394m48.569-.225c-.452.145-.474.181-.112.187.248.003.653-.081.9-.187.574-.247-.018-.247-.788 0m-4.276.675c-.464.148-.484.184-.113.199.248.011.602-.079.788-.199.394-.255.121-.255-.675 0m130.644 2.589c.001 1.609.036 2.238.08 1.397.043-.841.043-2.158-.001-2.926-.044-.769-.079-.081-.079 1.529m-183.457.675c.001 1.486.037 2.064.081 1.285a27.64 27.64 0 0 0 0-2.701c-.045-.707-.081-.07-.081 1.416m80.95-1.381c0 .062.304.329.675.593.372.265.676.43.676.368s-.304-.329-.676-.593c-.371-.265-.675-.43-.675-.368m-138.368 1.268c0 .681.042.96.094.619.051-.34.051-.897 0-1.238-.052-.34-.094-.062-.094.619m6.071 0c0 .557.044.785.098.507a3.187 3.187 0 0 0 0-1.013c-.054-.279-.098-.051-.098.506m226.549 1.061c.177.126.3 1.063.35 2.662l.077 2.468-.013-2.571c-.01-2.086-.076-2.587-.35-2.662-.241-.065-.26-.036-.064.103m-114.339.224c.28.054.685.052.9-.005.215-.056-.014-.1-.509-.097-.495.002-.671.048-.391.102m112.208-.004c.217.057.572.057.788 0 .217-.057.04-.103-.394-.103-.433 0-.61.046-.394.103m-20.102.914-.775.844.844-.776c.464-.426.844-.806.844-.844 0-.172-.191-.01-.913.776m-81.832 3.433c0 2.043.034 2.878.076 1.857a54.753 54.753 0 0 0 0-3.714c-.042-1.022-.076-.186-.076 1.857m-121.69-2.814c.133.248 1.994 2.172 4.136 4.277l3.895 3.827-4.049-4.163c-2.227-2.289-4.088-4.214-4.136-4.277-.048-.063.022.088.154.336m59.073.788c0 .433.047.61.103.394a1.837 1.837 0 0 0 0-.788c-.056-.217-.103-.039-.103.394m-22.574 1.069-.775.844.844-.775c.785-.723.947-.913.775-.913-.037 0-.417.38-.844.844m197.251 1.182c0 .433.046.61.103.394a1.869 1.869 0 0 0 0-.788c-.057-.217-.103-.039-.103.394m-198.941.506-.661.732.731-.661c.403-.364.732-.693.732-.732 0-.174-.186-.021-.802.661m44.291-.339c1.077.042 2.9.042 4.052.001 1.151-.041.27-.075-1.959-.075-2.228 0-3.17.033-2.093.074m80.162 1.409c0 .804.041 1.134.091.731.05-.402.05-1.061 0-1.463-.05-.402-.091-.073-.091.732m-70.238.787c.001.619.045.846.097.504.052-.342.05-.849-.003-1.126-.054-.277-.096.003-.094.622m40.723-.845c1.077.041 2.9.041 4.052 0 1.151-.041.27-.074-1.958-.075-2.229 0-3.171.034-2.094.075m-90.157 1.746c.072.619.168 1.168.214 1.219.158.177.039-1.22-.152-1.782-.129-.379-.149-.196-.062.563m88.54-.432c.002.238.106.584.232.769.167.247.188.156.077-.337-.185-.828-.314-1.008-.309-.432m105.85 1.107c.002.495.048.671.102.391.054-.28.052-.685-.005-.9-.056-.215-.1.014-.097.509m-10.06.739c-.793.951-.809.991-.149.387.625-.573 1.31-1.48 1.099-1.456-.035.004-.462.485-.95 1.069m-190.283.274c0 .433.047.611.103.394a1.837 1.837 0 0 0 0-.788c-.056-.217-.103-.039-.103.394m-36.63 10.805c6.065 6.066 11.078 11.03 11.14 11.03.062 0-4.85-4.964-10.915-11.03-6.066-6.067-11.079-11.03-11.141-11.03-.062 0 4.85 4.963 10.916 11.03m153.052-10.298-.661.731.732-.661c.682-.616.835-.802.661-.802-.039 0-.368.329-.732.732m27.983-.341 3.658.07v7.184l-5.121.067-5.121.067 5.177-.007 5.177-.006v-7.428l-3.714-.009-3.714-.009 3.658.071m11.818.002c1.083.041 2.856.041 3.939 0 1.083-.042.197-.075-1.97-.075-2.166 0-3.053.033-1.969.075m20.653-.097c0 .038.329.367.731.731l.732.661-.661-.731c-.617-.682-.802-.835-.802-.661m-170.82.829c-.02.31-.089.816-.152 1.126l-.116.563.242-.554c.133-.305.201-.812.152-1.126l-.089-.571-.037.562m-18.837.957-.889.957.956-.89c.89-.828 1.06-1.024.89-1.024-.037 0-.467.431-.957.957m44.468-.517c.186.126.532.23.769.232.576.005.396-.124-.431-.309-.494-.11-.585-.089-.338.077m5.853.011c-.464.148-.484.183-.113.199.248.01.602-.079.788-.199.394-.255.12-.255-.675 0m69.33.665c.186.125.532.23.769.232.576.004.396-.125-.431-.31-.494-.11-.585-.089-.338.078m6.415.01c-.284.122-.325.193-.112.193.185 0 .54-.087.787-.193.284-.122.326-.194.113-.194-.186 0-.54.088-.788.194m-92.403.07c0 .039.329.368.732.732l.731.661-.661-.731c-.616-.682-.802-.836-.802-.662M166 127.237l-.89.957.956-.89c.89-.828 1.061-1.024.89-1.024-.037 0-.467.431-.956.957m-55.703 7.316-7.99 8.047 8.048-7.99c7.479-7.426 8.148-8.105 7.989-8.105-.031 0-3.653 3.622-8.047 8.048m106.585-7.147c.484.495.93.9.992.9.062 0-.283-.405-.767-.9-.483-.495-.929-.901-.991-.901-.062 0 .283.406.766.901m24.751.281-.89.957.956-.89c.89-.828 1.061-1.024.89-1.024-.036 0-.467.431-.956.957m-34.04.169c0 .433.046.611.103.394a1.837 1.837 0 0 0 0-.788c-.057-.217-.103-.039-.103.394m81.433-.155c0 .039.33.368.732.732l.732.661-.662-.732c-.616-.682-.802-.835-.802-.661m-88.639 1.055c-.003.31.077.816.176 1.126.242.756.242-.061 0-1.013-.155-.607-.173-.618-.176-.113m52.624.071c0 .039.329.368.731.731l.732.661-.661-.731c-.617-.682-.802-.835-.802-.661M95.836 130.72c.402.05 1.06.05 1.463 0 .402-.05.073-.091-.732-.091-.804 0-1.134.041-.731.091m220.878.287-3.715.13 3.645.048c2.24.029 3.698-.039 3.784-.178.076-.123.108-.203.069-.177-.038.026-1.741.106-3.783.177m-158.02.225c-.463.149-.483.184-.112.2.247.01.602-.08.788-.2.394-.254.12-.254-.676 0m44.063-.057c1.022.041 2.693.041 3.715 0 1.021-.042.185-.076-1.857-.076-2.043 0-2.879.034-1.858.076m72.583 0c1.077.041 2.901.041 4.052 0 1.152-.041.27-.074-1.958-.075-2.229 0-3.171.034-2.094.075m19.089.047c.186.126.532.23.769.232.576.005.396-.124-.432-.309-.493-.111-.584-.09-.337.077m-141.531.85a9.912 9.912 0 0 0 1.688 0c.465-.049.085-.089-.844-.089-.928 0-1.308.04-.844.089m34.323-.002c.399.05 1.108.051 1.575.002.467-.049.14-.089-.726-.09-.867-.001-1.249.038-.849.088m41.198.003c.526.047 1.387.047 1.913 0 .526-.048.096-.087-.957-.087-1.052 0-1.482.039-.956.087m71.137 0c.529.047 1.34.047 1.801-.002.461-.048.027-.087-.963-.086-.991.001-1.368.04-.838.088m-198.831 12.046-1.344 1.407 1.407-1.343c1.307-1.248 1.51-1.471 1.343-1.471-.034 0-.668.634-1.406 1.407m-7.534 7.812c.185.126.532.23.769.232.576.005.396-.124-.432-.309-.493-.111-.584-.09-.337.077" fill="#747474"/>
	</g>
</svg>
