<svg version="1.1" id="Layer_1" xmlns="http://www.w3.org/2000/svg" x="0" y="0" viewBox="0 0 2032 2328" style="enable-background:new 0 0 2032 2328" xml:space="preserve">
	<style>
		.st33{fill:#006eba}.st34{fill:#0078c2}.st35{fill:#0084cc}.st36{fill:#0085cd}.st37{fill:#0090d6}.st38{fill:#00a1e5}.st39{fill:#09aef3}.st40{fill:#27bfff}.st41{fill:#64cffd}.st42{fill:#81d9ff}
	</style>
	<g id="logos-_x26_-marks">
		<g id="catchpoint">
			<circle id="Oval" class="st33" cx="1844.4" cy="1139.8" r="49.6"/>
			<circle id="Oval_1_" class="st33" cx="1866.5" cy="886" r="49.6"/>
			<circle id="Oval_2_" class="st33" cx="1811.4" cy="621.3" r="49.6"/>
			<circle id="Oval_3_" class="st33" cx="1679" cy="400.6" r="49.6"/>
			<circle id="Oval_4_" class="st33" cx="1491.4" cy="224.1" r="49.6"/>
			<circle id="Oval_5_" class="st33" cx="1259.7" cy="113.8" r="49.6"/>
			<circle id="Oval_6_" class="st33" cx="995" cy="69.6" r="49.6"/>
			<circle id="Oval_7_" class="st33" cx="741.2" cy="113.8" r="49.6"/>
			<circle id="Oval_8_" class="st33" cx="1745.2" cy="1382.5" r="49.6"/>
			<circle id="Oval_9_" class="st33" cx="1590.7" cy="1592.1" r="49.6"/>
			<circle id="Oval_10_" class="st33" cx="1370.1" cy="1735.5" r="49.6"/>
			<circle id="Oval_11_" class="st33" cx="1127.4" cy="1812.7" r="49.6"/>
			<circle id="Oval_12_" class="st33" cx="862.6" cy="1801.7" r="49.6"/>
			<circle id="Oval_13_" class="st33" cx="619.9" cy="1724.5" r="49.6"/>
			<circle id="Oval_14_" class="st33" cx="410.3" cy="1581.1" r="49.6"/>
			<circle id="Oval_15_" class="st33" cx="244.8" cy="1371.5" r="49.6"/>
			<circle id="Oval_16_" class="st33" cx="145.5" cy="1128.7" r="49.6"/>
			<circle id="Oval_17_" class="st33" cx="134.4" cy="864" r="49.6"/>
			<circle id="Oval_18_" class="st33" cx="189.6" cy="610.2" r="49.6"/>
			<circle id="Oval_19_" class="st33" cx="322" cy="400.6" r="49.6"/>
			<circle id="Oval_20_" class="st33" cx="509.5" cy="224.1" r="49.6"/>
			<g id="Group" transform="rotate(9 -4.182 99.324)">
				<circle id="Oval_21_" transform="rotate(-81.002 1869.944 944.67)" class="st34" cx="1870" cy="944.7" r="44.1"/>
				<circle id="Oval_22_" transform="rotate(-81.002 1892.012 724.031)" class="st34" cx="1892.1" cy="724" r="44.1"/>
				<circle id="Oval_23_" transform="rotate(-81.002 1847.887 492.358)" class="st34" cx="1847.9" cy="492.3" r="44.1"/>
				<circle id="Oval_24_" transform="rotate(-81.002 1726.538 282.748)" class="st34" cx="1726.6" cy="282.7" r="44.1"/>
				<circle id="Oval_25_" transform="rotate(-81.002 1550.028 128.298)" class="st34" cx="1550.1" cy="128.3" r="44.1"/>
				<circle id="Oval_26_" transform="rotate(-81.002 1351.454 40.039)" class="st34" cx="1351.5" cy="40" r="44.1"/>
				<circle id="Oval_27_" transform="rotate(-81.002 1119.782 -4.093)" class="st34" cx="1119.8" cy="-4.1" r="44.1"/>
				<circle id="Oval_28_" transform="rotate(-81.002 888.11 40.032)" class="st34" cx="888.1" cy="40" r="44.1"/>
				<circle id="Oval_29_" transform="rotate(-81.002 1781.685 1165.31)" class="st34" cx="1781.7" cy="1165.3" r="44.1"/>
				<circle id="Oval_30_" transform="rotate(-81.002 1649.298 1352.851)" class="st34" cx="1649.4" cy="1352.9" r="44.1"/>
				<circle id="Oval_31_" transform="rotate(-81.002 1450.72 1485.233)" class="st34" cx="1450.8" cy="1485.2" r="44.1"/>
				<circle id="Oval_32_" transform="rotate(-81.002 1230.08 1551.421)" class="st34" cx="1230.1" cy="1551.4" r="44.1"/>
				<circle id="Oval_33_" transform="rotate(-81.002 998.407 1540.386)" class="st34" cx="998.5" cy="1540.4" r="44.1"/>
				<circle id="Oval_34_" transform="rotate(-81.002 788.8 1474.19)" class="st34" cx="788.8" cy="1474.2" r="44.1"/>
				<circle id="Oval_35_" transform="rotate(-81.002 590.226 1352.836)" class="st34" cx="590.3" cy="1352.9" r="44.1"/>
				<circle id="Oval_36_" transform="rotate(-81.002 446.813 1154.258)" class="st34" cx="446.8" cy="1154.3" r="44.1"/>
				<circle id="Oval_37_" transform="rotate(-81.002 358.56 944.648)" class="st34" cx="358.6" cy="944.7" r="44.1"/>
				<circle id="Oval_38_" transform="rotate(-81.002 347.532 701.944)" class="st34" cx="347.6" cy="702" r="44.1"/>
				<circle id="Oval_39_" transform="rotate(-81.002 391.663 481.305)" class="st34" cx="391.7" cy="481.3" r="44.1"/>
				<circle id="Oval_40_" transform="rotate(-81.002 513.018 282.73)" class="st34" cx="513" cy="282.7" r="44.1"/>
				<circle id="Oval_41_" transform="rotate(-81.002 678.5 128.285)" class="st34" cx="678.5" cy="128.3" r="44.1"/>
			</g>
			<g id="Group_1_" transform="rotate(18 8.7 82.99)">
				<circle id="Oval_42_" transform="rotate(90 1906.54 747.239)" class="st35" cx="1906.5" cy="747.2" r="33.4"/>
				<circle id="Oval_43_" transform="rotate(90 1926.773 544.918)" class="st35" cx="1926.8" cy="544.9" r="33.4"/>
				<circle id="Oval_44_" transform="rotate(90 1886.309 332.482)" class="st35" cx="1886.3" cy="332.5" r="33.4"/>
				<circle id="Oval_45_" transform="rotate(90 1775.032 140.277)" class="st35" cx="1775" cy="140.3" r="33.4"/>
				<circle id="Oval_46_" transform="rotate(90 1613.176 -1.347)" class="st35" cx="1613.2" cy="-1.3" r="33.4"/>
				<circle id="Oval_47_" transform="rotate(90 1431.088 -82.275)" class="st35" cx="1431.1" cy="-82.3" r="33.4"/>
				<circle id="Oval_48_" transform="rotate(90 1218.651 -122.74)" class="st35" cx="1218.7" cy="-122.7" r="33.4"/>
				<circle id="Oval_49_" transform="rotate(90 1006.215 -82.275)" class="st35" cx="1006.2" cy="-82.3" r="33.4"/>
				<circle id="Oval_50_" transform="rotate(90 1825.612 949.56)" class="st35" cx="1825.6" cy="949.6" r="33.4"/>
				<circle id="Oval_51_" transform="rotate(90 1704.22 1121.531)" class="st35" cx="1704.2" cy="1121.5" r="33.4"/>
				<circle id="Oval_52_" transform="rotate(90 1522.132 1242.924)" class="st35" cx="1522.1" cy="1242.9" r="33.4"/>
				<circle id="Oval_53_" transform="rotate(90 1319.811 1303.62)" class="st35" cx="1319.8" cy="1303.6" r="33.4"/>
				<circle id="Oval_54_" transform="rotate(90 1107.375 1293.504)" class="st35" cx="1107.4" cy="1293.5" r="33.4"/>
				<circle id="Oval_55_" transform="rotate(90 915.17 1232.808)" class="st35" cx="915.2" cy="1232.8" r="33.4"/>
				<circle id="Oval_56_" transform="rotate(90 733.082 1121.531)" class="st35" cx="733.1" cy="1121.5" r="33.4"/>
				<circle id="Oval_57_" transform="rotate(90 601.574 939.443)" class="st35" cx="601.6" cy="939.4" r="33.4"/>
				<circle id="Oval_58_" transform="rotate(90 520.646 747.238)" class="st35" cx="520.6" cy="747.2" r="33.4"/>
				<circle id="Oval_59_" transform="rotate(90 510.53 524.686)" class="st35" cx="510.5" cy="524.7" r="33.4"/>
				<circle id="Oval_60_" transform="rotate(90 550.994 322.366)" class="st35" cx="551" cy="322.4" r="33.4"/>
				<circle id="Oval_61_" transform="rotate(90 662.27 140.277)" class="st35" cx="662.3" cy="140.3" r="33.4"/>
				<circle id="Oval_62_" transform="rotate(90 814.01 -1.347)" class="st35" cx="814" cy="-1.3" r="33.4"/>
			</g>
			<g id="Group_2_" transform="rotate(26 10.567 75.357)">
				<ellipse id="Oval_63_" transform="rotate(90 1910.054 554.561)" class="st36" cx="1910.1" cy="554.6" rx="27.6" ry="27.7"/>
				<ellipse id="Oval_64_" transform="rotate(90 1932.23 377.16)" class="st36" cx="1932.2" cy="377.2" rx="27.6" ry="27.7"/>
				<ellipse id="Oval_65_" transform="rotate(90 1887.88 177.582)" class="st36" cx="1887.9" cy="177.6" rx="27.6" ry="27.7"/>
				<ellipse id="Oval_66_" transform="rotate(90 1788.09 .18)" class="st36" cx="1788.1" cy=".2" rx="27.6" ry="27.7"/>
				<ellipse id="Oval_67_" transform="rotate(90 1643.951 -121.783)" class="st36" cx="1644" cy="-121.8" rx="27.6" ry="27.7"/>
				<ellipse id="Oval_68_" transform="rotate(90 1477.637 -199.397)" class="st36" cx="1477.6" cy="-199.4" rx="27.6" ry="27.7"/>
				<ellipse id="Oval_69_" transform="rotate(90 1278.06 -232.66)" class="st36" cx="1278.1" cy="-232.7" rx="27.6" ry="27.7"/>
				<ellipse id="Oval_70_" transform="rotate(90 1089.57 -199.397)" class="st36" cx="1089.6" cy="-199.4" rx="27.6" ry="27.7"/>
				<ellipse id="Oval_71_" transform="rotate(90 1832.44 743.05)" class="st36" cx="1832.4" cy="743.1" rx="27.6" ry="27.7"/>
				<ellipse id="Oval_72_" transform="rotate(90 1721.565 898.277)" class="st36" cx="1721.6" cy="898.3" rx="27.6" ry="27.7"/>
				<ellipse id="Oval_73_" transform="rotate(90 1555.25 1009.153)" class="st36" cx="1555.3" cy="1009.2" rx="27.6" ry="27.7"/>
				<ellipse id="Oval_74_" transform="rotate(90 1377.849 1064.592)" class="st36" cx="1377.8" cy="1064.6" rx="27.6" ry="27.7"/>
				<ellipse id="Oval_75_" transform="rotate(90 1178.271 1053.504)" class="st36" cx="1178.3" cy="1053.5" rx="27.6" ry="27.7"/>
				<ellipse id="Oval_76_" transform="rotate(90 1011.957 998.066)" class="st36" cx="1012" cy="998.1" rx="27.6" ry="27.7"/>
				<ellipse id="Oval_77_" transform="rotate(90 845.643 898.277)" class="st36" cx="845.6" cy="898.3" rx="27.6" ry="27.7"/>
				<ellipse id="Oval_78_" transform="rotate(90 723.68 731.963)" class="st36" cx="723.7" cy="732" rx="27.6" ry="27.7"/>
				<ellipse id="Oval_79_" transform="rotate(90 646.066 554.561)" class="st36" cx="646.1" cy="554.6" rx="27.6" ry="27.7"/>
				<ellipse id="Oval_80_" transform="rotate(90 634.978 354.984)" class="st36" cx="635" cy="355" rx="27.6" ry="27.7"/>
				<ellipse id="Oval_81_" transform="rotate(90 679.329 166.494)" class="st36" cx="679.3" cy="166.5" rx="27.6" ry="27.7"/>
				<ellipse id="Oval_82_" transform="rotate(90 779.117 .18)" class="st36" cx="779.1" cy=".2" rx="27.6" ry="27.7"/>
				<ellipse id="Oval_83_" transform="rotate(90 912.169 -121.784)" class="st36" cx="912.2" cy="-121.8" rx="27.6" ry="27.7"/>
			</g>
			<g id="Group_3_" transform="rotate(17 -20.396 101.898)">
				<ellipse id="Oval_84_" transform="rotate(90 1766.722 733.146)" class="st33" cx="1766.7" cy="733.1" rx="25" ry="25.1"/>
				<ellipse id="Oval_85_" transform="rotate(90 1786.775 572.72)" class="st33" cx="1786.8" cy="572.7" rx="25" ry="25.1"/>
				<ellipse id="Oval_86_" transform="rotate(90 1746.669 392.242)" class="st33" cx="1746.7" cy="392.2" rx="25" ry="25.1"/>
				<ellipse id="Oval_87_" transform="rotate(90 1656.43 231.816)" class="st33" cx="1656.4" cy="231.8" rx="25" ry="25.1"/>
				<ellipse id="Oval_88_" transform="rotate(90 1526.083 121.524)" class="st33" cx="1526.1" cy="121.5" rx="25" ry="25.1"/>
				<ellipse id="Oval_89_" transform="rotate(90 1375.685 51.337)" class="st33" cx="1375.7" cy="51.3" rx="25" ry="25.1"/>
				<ellipse id="Oval_90_" transform="rotate(90 1195.206 21.258)" class="st33" cx="1195.2" cy="21.3" rx="25" ry="25.1"/>
				<ellipse id="Oval_91_" transform="rotate(90 1024.754 51.338)" class="st33" cx="1024.8" cy="51.3" rx="25" ry="25.1"/>
				<ellipse id="Oval_92_" transform="rotate(90 1696.536 903.598)" class="st33" cx="1696.5" cy="903.6" rx="25" ry="25.1"/>
				<ellipse id="Oval_93_" transform="rotate(90 1596.27 1043.97)" class="st33" cx="1596.3" cy="1044" rx="25" ry="25.1"/>
				<ellipse id="Oval_94_" transform="rotate(90 1445.87 1144.236)" class="st33" cx="1445.9" cy="1144.2" rx="25" ry="25.1"/>
				<ellipse id="Oval_95_" transform="rotate(90 1285.445 1194.37)" class="st33" cx="1285.4" cy="1194.4" rx="25" ry="25.1"/>
				<ellipse id="Oval_96_" transform="rotate(90 1104.967 1184.343)" class="st33" cx="1105" cy="1184.3" rx="25" ry="25.1"/>
				<ellipse id="Oval_97_" transform="rotate(90 954.568 1134.21)" class="st33" cx="954.6" cy="1134.2" rx="25" ry="25.1"/>
				<ellipse id="Oval_98_" transform="rotate(90 804.169 1043.97)" class="st33" cx="804.2" cy="1044" rx="25" ry="25.1"/>
				<ellipse id="Oval_99_" transform="rotate(90 693.876 893.572)" class="st33" cx="693.9" cy="893.6" rx="25" ry="25.1"/>
				<ellipse id="Oval_100_" transform="rotate(90 623.69 733.146)" class="st33" cx="623.7" cy="733.1" rx="25" ry="25.1"/>
				<ellipse id="Oval_101_" transform="rotate(90 613.663 552.667)" class="st33" cx="613.7" cy="552.7" rx="25" ry="25.1"/>
				<ellipse id="Oval_102_" transform="rotate(90 653.77 382.215)" class="st33" cx="653.8" cy="382.2" rx="25" ry="25.1"/>
				<ellipse id="Oval_103_" transform="rotate(90 744.009 231.816)" class="st33" cx="744" cy="231.8" rx="25" ry="25.1"/>
				<ellipse id="Oval_104_" transform="rotate(90 864.328 121.524)" class="st33" cx="864.3" cy="121.5" rx="25" ry="25.1"/>
			</g>
			<g id="Group_4_" transform="rotate(17 -20.396 101.898)">
				<ellipse id="Oval_105_" transform="rotate(90 1766.722 733.146)" class="st37" cx="1766.7" cy="733.1" rx="25" ry="25.1"/>
				<ellipse id="Oval_106_" transform="rotate(90 1786.775 572.72)" class="st37" cx="1786.8" cy="572.7" rx="25" ry="25.1"/>
				<ellipse id="Oval_107_" transform="rotate(90 1746.669 392.242)" class="st37" cx="1746.7" cy="392.2" rx="25" ry="25.1"/>
				<ellipse id="Oval_108_" transform="rotate(90 1656.43 231.816)" class="st37" cx="1656.4" cy="231.8" rx="25" ry="25.1"/>
				<ellipse id="Oval_109_" transform="rotate(90 1526.083 121.524)" class="st37" cx="1526.1" cy="121.5" rx="25" ry="25.1"/>
				<ellipse id="Oval_110_" transform="rotate(90 1375.685 51.337)" class="st37" cx="1375.7" cy="51.3" rx="25" ry="25.1"/>
				<ellipse id="Oval_111_" transform="rotate(90 1195.206 21.258)" class="st37" cx="1195.2" cy="21.3" rx="25" ry="25.1"/>
				<ellipse id="Oval_112_" transform="rotate(90 1024.754 51.338)" class="st37" cx="1024.8" cy="51.3" rx="25" ry="25.1"/>
				<ellipse id="Oval_113_" transform="rotate(90 1696.536 903.598)" class="st37" cx="1696.5" cy="903.6" rx="25" ry="25.1"/>
				<ellipse id="Oval_114_" transform="rotate(90 1596.27 1043.97)" class="st37" cx="1596.3" cy="1044" rx="25" ry="25.1"/>
				<ellipse id="Oval_115_" transform="rotate(90 1445.87 1144.236)" class="st37" cx="1445.9" cy="1144.2" rx="25" ry="25.1"/>
				<ellipse id="Oval_116_" transform="rotate(90 1285.445 1194.37)" class="st37" cx="1285.4" cy="1194.4" rx="25" ry="25.1"/>
				<ellipse id="Oval_117_" transform="rotate(90 1104.967 1184.343)" class="st37" cx="1105" cy="1184.3" rx="25" ry="25.1"/>
				<ellipse id="Oval_118_" transform="rotate(90 954.568 1134.21)" class="st37" cx="954.6" cy="1134.2" rx="25" ry="25.1"/>
				<ellipse id="Oval_119_" transform="rotate(90 804.169 1043.97)" class="st37" cx="804.2" cy="1044" rx="25" ry="25.1"/>
				<ellipse id="Oval_120_" transform="rotate(90 693.876 893.572)" class="st37" cx="693.9" cy="893.6" rx="25" ry="25.1"/>
				<ellipse id="Oval_121_" transform="rotate(90 623.69 733.146)" class="st37" cx="623.7" cy="733.1" rx="25" ry="25.1"/>
				<ellipse id="Oval_122_" transform="rotate(90 613.663 552.667)" class="st37" cx="613.7" cy="552.7" rx="25" ry="25.1"/>
				<ellipse id="Oval_123_" transform="rotate(90 653.77 382.215)" class="st37" cx="653.8" cy="382.2" rx="25" ry="25.1"/>
				<ellipse id="Oval_124_" transform="rotate(90 744.009 231.816)" class="st37" cx="744" cy="231.8" rx="25" ry="25.1"/>
				<ellipse id="Oval_125_" transform="rotate(90 864.328 121.524)" class="st37" cx="864.3" cy="121.5" rx="25" ry="25.1"/>
			</g>
			<g id="Group_5_" transform="rotate(26 -7.305 85.587)">
				<ellipse id="Oval_126_" transform="rotate(90 1782.04 527.557)" class="st33" cx="1782" cy="527.6" rx="22.4" ry="22.5"/>
				<ellipse id="Oval_127_" transform="rotate(90 1800.071 383.298)" class="st33" cx="1800.1" cy="383.3" rx="22.4" ry="22.5"/>
				<ellipse id="Oval_128_" transform="rotate(90 1764.007 221.007)" class="st33" cx="1764" cy="221" rx="22.4" ry="22.5"/>
				<ellipse id="Oval_129_" transform="rotate(90 1682.861 76.749)" class="st33" cx="1682.9" cy="76.7" rx="22.4" ry="22.5"/>
				<ellipse id="Oval_130_" transform="rotate(90 1565.651 -22.43)" class="st33" cx="1565.7" cy="-22.4" rx="22.4" ry="22.5"/>
				<ellipse id="Oval_131_" transform="rotate(90 1430.408 -85.543)" class="st33" cx="1430.4" cy="-85.5" rx="22.4" ry="22.5"/>
				<ellipse id="Oval_132_" transform="rotate(90 1268.117 -112.591)" class="st33" cx="1268.1" cy="-112.6" rx="22.4" ry="22.5"/>
				<ellipse id="Oval_133_" transform="rotate(90 1114.843 -85.543)" class="st33" cx="1114.8" cy="-85.5" rx="22.4" ry="22.5"/>
				<ellipse id="Oval_134_" transform="rotate(90 1718.926 680.832)" class="st33" cx="1718.9" cy="680.8" rx="22.4" ry="22.5"/>
				<ellipse id="Oval_135_" transform="rotate(90 1628.764 807.058)" class="st33" cx="1628.8" cy="807.1" rx="22.4" ry="22.5"/>
				<ellipse id="Oval_136_" transform="rotate(90 1493.521 897.22)" class="st33" cx="1493.5" cy="897.2" rx="22.4" ry="22.5"/>
				<ellipse id="Oval_137_" transform="rotate(90 1349.263 942.3)" class="st33" cx="1349.3" cy="942.3" rx="22.4" ry="22.5"/>
				<ellipse id="Oval_138_" transform="rotate(90 1186.972 933.285)" class="st33" cx="1187" cy="933.3" rx="22.4" ry="22.5"/>
				<ellipse id="Oval_139_" transform="rotate(90 1051.73 888.204)" class="st33" cx="1051.7" cy="888.2" rx="22.4" ry="22.5"/>
				<ellipse id="Oval_140_" transform="rotate(90 916.487 807.058)" class="st33" cx="916.5" cy="807.1" rx="22.4" ry="22.5"/>
				<ellipse id="Oval_141_" transform="rotate(90 817.309 671.816)" class="st33" cx="817.3" cy="671.8" rx="22.4" ry="22.5"/>
				<ellipse id="Oval_142_" transform="rotate(90 754.196 527.557)" class="st33" cx="754.2" cy="527.6" rx="22.4" ry="22.5"/>
				<ellipse id="Oval_143_" transform="rotate(90 745.18 365.266)" class="st33" cx="745.2" cy="365.3" rx="22.4" ry="22.5"/>
				<ellipse id="Oval_144_" transform="rotate(90 781.244 211.991)" class="st33" cx="781.2" cy="212" rx="22.4" ry="22.5"/>
				<ellipse id="Oval_145_" transform="rotate(90 862.39 76.748)" class="st33" cx="862.4" cy="76.7" rx="22.4" ry="22.5"/>
				<ellipse id="Oval_146_" transform="rotate(90 970.584 -22.43)" class="st33" cx="970.6" cy="-22.4" rx="22.4" ry="22.5"/>
			</g>
			<g id="Group_6_" transform="rotate(26 -7.305 85.587)">
				<ellipse id="Oval_147_" transform="rotate(90 1782.04 527.557)" class="st38" cx="1782" cy="527.6" rx="22.4" ry="22.5"/>
				<ellipse id="Oval_148_" transform="rotate(90 1800.071 383.298)" class="st38" cx="1800.1" cy="383.3" rx="22.4" ry="22.5"/>
				<ellipse id="Oval_149_" transform="rotate(90 1764.007 221.007)" class="st38" cx="1764" cy="221" rx="22.4" ry="22.5"/>
				<ellipse id="Oval_150_" transform="rotate(90 1682.861 76.749)" class="st38" cx="1682.9" cy="76.7" rx="22.4" ry="22.5"/>
				<ellipse id="Oval_151_" transform="rotate(90 1565.651 -22.43)" class="st38" cx="1565.7" cy="-22.4" rx="22.4" ry="22.5"/>
				<ellipse id="Oval_152_" transform="rotate(90 1430.408 -85.543)" class="st38" cx="1430.4" cy="-85.5" rx="22.4" ry="22.5"/>
				<ellipse id="Oval_153_" transform="rotate(90 1268.117 -112.591)" class="st38" cx="1268.1" cy="-112.6" rx="22.4" ry="22.5"/>
				<ellipse id="Oval_154_" transform="rotate(90 1114.843 -85.543)" class="st38" cx="1114.8" cy="-85.5" rx="22.4" ry="22.5"/>
				<ellipse id="Oval_155_" transform="rotate(90 1718.926 680.832)" class="st38" cx="1718.9" cy="680.8" rx="22.4" ry="22.5"/>
				<ellipse id="Oval_156_" transform="rotate(90 1628.764 807.058)" class="st38" cx="1628.8" cy="807.1" rx="22.4" ry="22.5"/>
				<ellipse id="Oval_157_" transform="rotate(90 1493.521 897.22)" class="st38" cx="1493.5" cy="897.2" rx="22.4" ry="22.5"/>
				<ellipse id="Oval_158_" transform="rotate(90 1349.263 942.3)" class="st38" cx="1349.3" cy="942.3" rx="22.4" ry="22.5"/>
				<ellipse id="Oval_159_" transform="rotate(90 1186.972 933.285)" class="st38" cx="1187" cy="933.3" rx="22.4" ry="22.5"/>
				<ellipse id="Oval_160_" transform="rotate(90 1051.73 888.204)" class="st38" cx="1051.7" cy="888.2" rx="22.4" ry="22.5"/>
				<ellipse id="Oval_161_" transform="rotate(90 916.487 807.058)" class="st38" cx="916.5" cy="807.1" rx="22.4" ry="22.5"/>
				<ellipse id="Oval_162_" transform="rotate(90 817.309 671.816)" class="st38" cx="817.3" cy="671.8" rx="22.4" ry="22.5"/>
				<ellipse id="Oval_163_" transform="rotate(90 754.196 527.557)" class="st38" cx="754.2" cy="527.6" rx="22.4" ry="22.5"/>
				<ellipse id="Oval_164_" transform="rotate(90 745.18 365.266)" class="st38" cx="745.2" cy="365.3" rx="22.4" ry="22.5"/>
				<ellipse id="Oval_165_" transform="rotate(90 781.244 211.991)" class="st38" cx="781.2" cy="212" rx="22.4" ry="22.5"/>
				<ellipse id="Oval_166_" transform="rotate(90 862.39 76.748)" class="st38" cx="862.4" cy="76.7" rx="22.4" ry="22.5"/>
				<ellipse id="Oval_167_" transform="rotate(90 970.584 -22.43)" class="st38" cx="970.6" cy="-22.4" rx="22.4" ry="22.5"/>
			</g>
			<g id="Group_7_" transform="rotate(35 -.663 76.131)">
				<circle id="Oval_168_" transform="rotate(90 1774.577 314.743)" class="st39" cx="1774.6" cy="314.7" r="20.3"/>
				<circle id="Oval_169_" transform="rotate(90 1790.848 184.573)" class="st39" cx="1790.8" cy="184.6" r="20.3"/>
				<circle id="Oval_170_" transform="rotate(90 1758.305 38.131)" class="st39" cx="1758.3" cy="38.1" r="20.3"/>
				<circle id="Oval_171_" transform="rotate(90 1685.085 -92.04)" class="st39" cx="1685.1" cy="-92" r="20.3"/>
				<circle id="Oval_172_" transform="rotate(90 1579.321 -181.531)" class="st39" cx="1579.3" cy="-181.5" r="20.3"/>
				<circle id="Oval_173_" transform="rotate(90 1457.287 -238.48)" class="st39" cx="1457.3" cy="-238.5" r="20.3"/>
				<circle id="Oval_174_" transform="rotate(90 1310.845 -262.888)" class="st39" cx="1310.8" cy="-262.9" r="20.3"/>
				<circle id="Oval_175_" transform="rotate(90 1172.54 -238.481)" class="st39" cx="1172.5" cy="-238.5" r="20.3"/>
				<circle id="Oval_176_" transform="rotate(90 1717.627 453.049)" class="st39" cx="1717.6" cy="453" r="20.3"/>
				<circle id="Oval_177_" transform="rotate(90 1636.27 566.948)" class="st39" cx="1636.3" cy="566.9" r="20.3"/>
				<circle id="Oval_178_" transform="rotate(90 1514.236 648.304)" class="st39" cx="1514.2" cy="648.3" r="20.3"/>
				<circle id="Oval_179_" transform="rotate(90 1384.066 688.982)" class="st39" cx="1384.1" cy="689" r="20.3"/>
				<circle id="Oval_180_" transform="rotate(90 1237.624 680.847)" class="st39" cx="1237.6" cy="680.8" r="20.3"/>
				<circle id="Oval_181_" transform="rotate(90 1115.59 640.168)" class="st39" cx="1115.6" cy="640.2" r="20.3"/>
				<circle id="Oval_182_" transform="rotate(90 993.555 566.948)" class="st39" cx="993.6" cy="566.9" r="20.3"/>
				<circle id="Oval_183_" transform="rotate(90 904.063 444.913)" class="st39" cx="904.1" cy="444.9" r="20.3"/>
				<circle id="Oval_184_" transform="rotate(90 847.113 314.743)" class="st39" cx="847.1" cy="314.7" r="20.3"/>
				<circle id="Oval_185_" transform="rotate(90 838.978 168.301)" class="st39" cx="839" cy="168.3" r="20.3"/>
				<circle id="Oval_186_" transform="rotate(90 871.52 29.995)" class="st39" cx="871.5" cy="30" r="20.3"/>
				<circle id="Oval_187_" transform="rotate(90 944.741 -92.04)" class="st39" cx="944.7" cy="-92" r="20.3"/>
				<circle id="Oval_188_" transform="rotate(90 1042.369 -181.532)" class="st39" cx="1042.4" cy="-181.5" r="20.3"/>
			</g>
			<g id="Group_8_" transform="rotate(43 3.355 70.062)">
				<circle id="Oval_189_" transform="rotate(90 1749.073 123.189)" class="st40" cx="1749.1" cy="123.2" r="19.6"/>
				<circle id="Oval_190_" transform="rotate(90 1764.032 3.52)" class="st40" cx="1764" cy="3.5" r="19.6"/>
				<circle id="Oval_191_" transform="rotate(90 1734.114 -131.11)" class="st40" cx="1734.1" cy="-131.1" r="19.6"/>
				<circle id="Oval_192_" transform="rotate(90 1666.8 -250.779)" class="st40" cx="1666.8" cy="-250.8" r="19.6"/>
				<circle id="Oval_193_" transform="rotate(90 1569.569 -333.052)" class="st40" cx="1569.6" cy="-333.1" r="19.6"/>
				<circle id="Oval_194_" transform="rotate(90 1457.379 -385.407)" class="st40" cx="1457.4" cy="-385.4" r="19.6"/>
				<circle id="Oval_195_" transform="rotate(90 1322.75 -407.845)" class="st40" cx="1322.8" cy="-407.8" r="19.6"/>
				<circle id="Oval_196_" transform="rotate(90 1195.602 -385.407)" class="st40" cx="1195.6" cy="-385.4" r="19.6"/>
				<circle id="Oval_197_" transform="rotate(90 1696.718 250.338)" class="st40" cx="1696.7" cy="250.3" r="19.6"/>
				<circle id="Oval_198_" transform="rotate(90 1621.924 355.048)" class="st40" cx="1621.9" cy="355" r="19.6"/>
				<circle id="Oval_199_" transform="rotate(90 1509.734 429.842)" class="st40" cx="1509.7" cy="429.8" r="19.6"/>
				<circle id="Oval_200_" transform="rotate(90 1390.064 467.238)" class="st40" cx="1390.1" cy="467.2" r="19.6"/>
				<circle id="Oval_201_" transform="rotate(90 1255.436 459.759)" class="st40" cx="1255.4" cy="459.8" r="19.6"/>
				<circle id="Oval_202_" transform="rotate(90 1143.246 422.362)" class="st40" cx="1143.2" cy="422.4" r="19.6"/>
				<circle id="Oval_203_" transform="rotate(90 1031.056 355.048)" class="st40" cx="1031.1" cy="355" r="19.6"/>
				<circle id="Oval_204_" transform="rotate(90 948.783 242.858)" class="st40" cx="948.8" cy="242.9" r="19.6"/>
				<circle id="Oval_205_" transform="rotate(90 896.427 123.188)" class="st40" cx="896.4" cy="123.2" r="19.6"/>
				<circle id="Oval_206_" transform="rotate(90 888.948 -11.44)" class="st40" cx="888.9" cy="-11.4" r="19.6"/>
				<circle id="Oval_207_" transform="rotate(90 918.866 -138.589)" class="st40" cx="918.9" cy="-138.6" r="19.6"/>
				<circle id="Oval_208_" transform="rotate(90 986.18 -250.78)" class="st40" cx="986.2" cy="-250.8" r="19.6"/>
				<circle id="Oval_209_" transform="rotate(90 1075.932 -333.052)" class="st40" cx="1075.9" cy="-333.1" r="19.6"/>
			</g>
			<g id="Group_9_" transform="rotate(51 5.456 65.539)">
				<circle id="Oval_210_" transform="rotate(90 1692.025 -69.527)" class="st41" cx="1692" cy="-69.5" r="19.6"/>
				<circle id="Oval_211_" transform="rotate(90 1705.47 -177.085)" class="st41" cx="1705.5" cy="-177.1" r="19.6"/>
				<circle id="Oval_212_" transform="rotate(90 1678.58 -298.09)" class="st41" cx="1678.6" cy="-298.1" r="19.6"/>
				<circle id="Oval_213_" transform="rotate(90 1618.078 -405.648)" class="st41" cx="1618.1" cy="-405.6" r="19.6"/>
				<circle id="Oval_214_" transform="rotate(90 1530.687 -479.594)" class="st41" cx="1530.7" cy="-479.6" r="19.6"/>
				<circle id="Oval_215_" transform="rotate(90 1429.85 -526.651)" class="st41" cx="1429.9" cy="-526.7" r="19.6"/>
				<circle id="Oval_216_" transform="rotate(90 1308.847 -546.819)" class="st41" cx="1308.8" cy="-546.8" r="19.6"/>
				<circle id="Oval_217_" transform="rotate(90 1194.565 -526.651)" class="st41" cx="1194.6" cy="-526.7" r="19.6"/>
				<circle id="Oval_218_" transform="rotate(90 1644.968 44.755)" class="st41" cx="1645" cy="44.8" r="19.6"/>
				<circle id="Oval_219_" transform="rotate(90 1577.744 138.868)" class="st41" cx="1577.7" cy="138.9" r="19.6"/>
				<circle id="Oval_220_" transform="rotate(90 1476.907 206.093)" class="st41" cx="1476.9" cy="206.1" r="19.6"/>
				<circle id="Oval_221_" transform="rotate(90 1369.349 239.705)" class="st41" cx="1369.3" cy="239.7" r="19.6"/>
				<circle id="Oval_222_" transform="rotate(90 1248.345 232.982)" class="st41" cx="1248.3" cy="233" r="19.6"/>
				<circle id="Oval_223_" transform="rotate(90 1147.509 199.37)" class="st41" cx="1147.5" cy="199.4" r="19.6"/>
				<circle id="Oval_224_" transform="rotate(90 1046.672 138.869)" class="st41" cx="1046.7" cy="138.9" r="19.6"/>
				<circle id="Oval_225_" transform="rotate(90 972.726 38.032)" class="st41" cx="972.7" cy="38" r="19.6"/>
				<circle id="Oval_226_" transform="rotate(90 925.669 -69.526)" class="st41" cx="925.7" cy="-69.5" r="19.6"/>
				<circle id="Oval_227_" transform="rotate(90 918.946 -190.53)" class="st41" cx="918.9" cy="-190.5" r="19.6"/>
				<circle id="Oval_228_" transform="rotate(90 945.836 -304.811)" class="st41" cx="945.8" cy="-304.8" r="19.6"/>
				<circle id="Oval_229_" transform="rotate(90 1006.338 -405.648)" class="st41" cx="1006.3" cy="-405.6" r="19.6"/>
				<circle id="Oval_230_" transform="rotate(90 1087.007 -479.594)" class="st41" cx="1087" cy="-479.6" r="19.6"/>
			</g>
			<g id="Group_10_" transform="rotate(59 7.56 61.57)">
				<circle id="Oval_231_" transform="rotate(90 1619.303 -257.262)" class="st42" cx="1619.3" cy="-257.3" r="19.6"/>
				<circle id="Oval_232_" transform="rotate(90 1631.54 -355.164)" class="st42" cx="1631.5" cy="-355.2" r="19.6"/>
				<circle id="Oval_233_" transform="rotate(90 1607.065 -465.304)" class="st42" cx="1607.1" cy="-465.3" r="19.6"/>
				<circle id="Oval_234_" transform="rotate(90 1551.995 -563.206)" class="st42" cx="1552" cy="-563.2" r="19.6"/>
				<circle id="Oval_235_" transform="rotate(90 1472.45 -630.513)" class="st42" cx="1472.4" cy="-630.5" r="19.6"/>
				<circle id="Oval_236_" transform="rotate(90 1380.667 -673.346)" class="st42" cx="1380.7" cy="-673.3" r="19.6"/>
				<circle id="Oval_237_" transform="rotate(90 1270.527 -691.702)" class="st42" cx="1270.5" cy="-691.7" r="19.6"/>
				<circle id="Oval_238_" transform="rotate(90 1166.506 -673.346)" class="st42" cx="1166.5" cy="-673.3" r="19.6"/>
				<circle id="Oval_239_" transform="rotate(90 1576.47 -153.24)" class="st42" cx="1576.5" cy="-153.2" r="19.6"/>
				<circle id="Oval_240_" transform="rotate(90 1515.282 -67.576)" class="st42" cx="1515.3" cy="-67.6" r="19.6"/>
				<circle id="Oval_241_" transform="rotate(90 1423.499 -6.388)" class="st42" cx="1423.5" cy="-6.4" r="19.6"/>
				<circle id="Oval_242_" transform="rotate(90 1325.597 24.207)" class="st42" cx="1325.6" cy="24.2" r="19.6"/>
				<circle id="Oval_243_" transform="rotate(90 1215.457 18.088)" class="st42" cx="1215.5" cy="18.1" r="19.6"/>
				<circle id="Oval_244_" transform="rotate(90 1123.674 -12.507)" class="st42" cx="1123.7" cy="-12.5" r="19.6"/>
				<circle id="Oval_245_" transform="rotate(90 1031.89 -67.577)" class="st42" cx="1031.9" cy="-67.6" r="19.6"/>
				<circle id="Oval_246_" transform="rotate(90 964.583 -159.36)" class="st42" cx="964.6" cy="-159.4" r="19.6"/>
				<circle id="Oval_247_" transform="rotate(90 921.75 -257.262)" class="st42" cx="921.8" cy="-257.3" r="19.6"/>
				<circle id="Oval_248_" transform="rotate(90 915.632 -367.402)" class="st42" cx="915.6" cy="-367.4" r="19.6"/>
				<circle id="Oval_249_" transform="rotate(90 940.107 -471.423)" class="st42" cx="940.1" cy="-471.4" r="19.6"/>
				<circle id="Oval_250_" transform="rotate(90 995.177 -563.206)" class="st42" cx="995.2" cy="-563.2" r="19.6"/>
				<circle id="Oval_251_" transform="rotate(90 1068.604 -630.513)" class="st42" cx="1068.6" cy="-630.5" r="19.6"/>
			</g>
			<g id="Group_11_" transform="rotate(68 8.592 57.854)">
				<circle id="Oval_252_" transform="rotate(90 1498.575 -461.808)" class="st42" cx="1498.6" cy="-461.8" r="19.6"/>
				<circle id="Oval_253_" transform="rotate(90 1509.124 -546.202)" class="st42" cx="1509.1" cy="-546.2" r="19.6"/>
				<circle id="Oval_254_" transform="rotate(90 1488.026 -641.146)" class="st42" cx="1488" cy="-641.1" r="19.6"/>
				<circle id="Oval_255_" transform="rotate(90 1440.554 -725.54)" class="st42" cx="1440.6" cy="-725.5" r="19.6"/>
				<circle id="Oval_256_" transform="rotate(90 1371.984 -783.56)" class="st42" cx="1372" cy="-783.6" r="19.6"/>
				<circle id="Oval_257_" transform="rotate(90 1292.864 -820.483)" class="st42" cx="1292.9" cy="-820.5" r="19.6"/>
				<circle id="Oval_258_" transform="rotate(90 1197.92 -836.307)" class="st42" cx="1197.9" cy="-836.3" r="19.6"/>
				<circle id="Oval_259_" transform="rotate(90 1108.252 -820.483)" class="st42" cx="1108.3" cy="-820.5" r="19.6"/>
				<circle id="Oval_260_" transform="rotate(90 1461.652 -372.14)" class="st42" cx="1461.7" cy="-372.1" r="19.6"/>
				<circle id="Oval_261_" transform="rotate(90 1408.906 -298.294)" class="st42" cx="1408.9" cy="-298.3" r="19.6"/>
				<circle id="Oval_262_" transform="rotate(90 1329.786 -245.548)" class="st42" cx="1329.8" cy="-245.5" r="19.6"/>
				<circle id="Oval_263_" transform="rotate(90 1245.392 -219.175)" class="st42" cx="1245.4" cy="-219.2" r="19.6"/>
				<circle id="Oval_264_" transform="rotate(90 1150.449 -224.45)" class="st42" cx="1150.4" cy="-224.4" r="19.6"/>
				<circle id="Oval_265_" transform="rotate(90 1071.33 -250.823)" class="st42" cx="1071.3" cy="-250.8" r="19.6"/>
				<circle id="Oval_266_" transform="rotate(90 992.21 -298.294)" class="st42" cx="992.2" cy="-298.3" r="19.6"/>
				<circle id="Oval_267_" transform="rotate(90 934.189 -377.414)" class="st42" cx="934.2" cy="-377.4" r="19.6"/>
				<circle id="Oval_268_" transform="rotate(90 897.266 -461.808)" class="st42" cx="897.3" cy="-461.8" r="19.6"/>
				<circle id="Oval_269_" transform="rotate(90 891.991 -556.752)" class="st42" cx="892" cy="-556.8" r="19.6"/>
				<circle id="Oval_270_" transform="rotate(90 913.09 -646.42)" class="st42" cx="913.1" cy="-646.4" r="19.6"/>
				<circle id="Oval_271_" transform="rotate(90 960.562 -725.54)" class="st42" cx="960.6" cy="-725.5" r="19.6"/>
				<circle id="Oval_272_" transform="rotate(90 1023.858 -783.561)" class="st42" cx="1023.9" cy="-783.6" r="19.6"/>
			</g>
		</g>
	</g>
	<path d="M300.7 2122.7c-.9-6.8-3-13-6.5-18.4-5.1-7.4-13-11.1-23.8-11.1-15.3 0-25.8 8-31.5 24-3 8.5-4.5 19.7-4.5 33.8 0 13.4 1.5 24.1 4.5 32.3 5.4 15.2 15.7 22.8 30.7 22.8 10.6 0 18.2-3 22.7-9s7.2-13.8 8.1-23.5h46.4c-1.1 14.5-6.1 28.3-15 41.2-14.3 20.9-35.4 31.3-63.3 31.3-28 0-48.5-8.7-61.7-26.1s-19.8-40-19.8-67.8c0-31.3 7.3-55.7 21.8-73.1 14.6-17.4 34.7-26.1 60.3-26.1 21.8 0 39.6 5.1 53.5 15.4 13.9 10.3 22.1 28.4 24.6 54.4h-46.5z"/>
	<path d="M447.1 2128.8c8.5-1.1 14.5-2.5 18.1-4.2 6.5-2.9 9.8-7.4 9.8-13.6 0-7.5-2.5-12.6-7.5-15.5-5-2.8-12.4-4.3-22-4.3-10.9 0-18.6 2.8-23.1 8.4-3.2 4.1-5.4 9.7-6.5 16.8H372c1-16 5.2-29.1 12.8-39.4 12.1-16.1 32.8-24.1 62.1-24.1 19.1 0 36.1 4 50.9 11.9 14.8 7.9 22.2 22.9 22.2 44.9v83.8c0 5.8.1 12.8.3 21.1.3 6.3 1.2 10.5 2.7 12.7 1.5 2.2 3.7 4.1 6.7 5.5v7h-49.4c-1.4-3.7-2.3-7.1-2.9-10.4-.5-3.2-1-6.9-1.3-11.1-6.3 7.1-13.6 13.2-21.8 18.3-9.8 5.9-20.9 8.9-33.3 8.9-15.8 0-28.9-4.7-39.2-14.2-10.3-9.4-15.5-22.8-15.5-40.1 0-22.4 8.3-38.7 24.9-48.7 9.1-5.5 22.5-9.4 40.1-11.7l15.8-2zm27.7 22.2c-2.9 1.9-5.8 3.4-8.8 4.6-3 1.2-7 2.3-12.2 3.3l-10.3 2c-9.7 1.8-16.6 4-20.9 6.5-7.2 4.4-10.7 11.1-10.7 20.3 0 8.2 2.2 14 6.6 17.7 4.4 3.6 9.7 5.4 15.9 5.4 9.9 0 19.1-3 27.4-9 8.4-6 12.7-17 13-33V2151z"/>
	<path d="M541.9 2092.9v-34h24.2V2008H611v50.9h28.2v34H611v96.5c0 7.5.9 12.1 2.7 14 1.8 1.8 7.3 2.8 16.6 2.8 1.4 0 2.8 0 4.4-.1 1.5-.1 3.1-.1 4.5-.3v35.7l-21.5.8c-21.5.8-36.1-3.1-44-11.7-5.1-5.5-7.6-13.9-7.6-25.3v-112.4h-24.2z"/>
	<path d="M772.3 2122.7c-.9-6.8-3-13-6.5-18.4-5.1-7.4-13-11.1-23.8-11.1-15.3 0-25.8 8-31.5 24-3 8.5-4.5 19.7-4.5 33.8 0 13.4 1.5 24.1 4.5 32.3 5.4 15.2 15.7 22.8 30.7 22.8 10.6 0 18.2-3 22.7-9s7.2-13.8 8.1-23.5h46.4c-1.1 14.5-6.1 28.3-15 41.2-14.3 20.9-35.4 31.3-63.3 31.3-28 0-48.5-8.7-61.7-26.1s-19.8-40-19.8-67.8c0-31.3 7.3-55.7 21.8-73.1 14.6-17.4 34.7-26.1 60.3-26.1 21.8 0 39.6 5.1 53.5 15.4 13.9 10.3 22.1 28.4 24.6 54.4h-46.5z"/>
	<path d="M974.7 2058.2c8.7 3.9 15.9 9.9 21.5 17.9 4.8 6.8 7.7 13.8 8.7 21 1.1 7.2 1.6 19 1.6 35.3v107.3h-46.4v-111.2c0-9.8-1.6-17.8-4.7-23.8-4.1-8.5-11.9-12.7-23.4-12.7-11.9 0-21 4.2-27.1 12.7-6.2 8.4-9.3 20.5-9.3 36.1v99h-45.4v-246.1h45.4v87.1c6.6-10.6 14.1-18 22.8-22.2 8.6-4.2 17.7-6.3 27.2-6.3 10.7.1 20.4 2 29.1 5.9z"/>
	<path d="M1195.3 2076.8c14.2 15.7 21.2 38.9 21.2 69.4 0 32.2-6.9 56.7-20.8 73.5-13.8 16.9-31.7 25.3-53.5 25.3-13.9 0-25.4-3.6-34.6-10.9-5-4-9.9-9.9-14.8-17.6v95.2H1048v-254.5h43.5v27c4.9-7.9 10.2-14.2 15.7-18.8 10.2-8.2 22.2-12.2 36.2-12.2 20.4 0 37.7 7.9 51.9 23.6zm-34.9 34.4c-6.2-10.8-16.2-16.2-30-16.2-16.6 0-28.1 8.2-34.3 24.6-3.2 8.7-4.8 19.8-4.8 33.2 0 21.2 5.4 36.1 16.2 44.7 6.4 5 14.1 7.5 22.9 7.5 12.8 0 22.5-5.1 29.2-15.4 6.7-10.3 10.1-24 10.1-41 0-14.1-3.1-26.6-9.3-37.4z"/>
	<path d="M1393.4 2217.5c-14.7 19-36.9 28.5-66.8 28.5s-52.1-9.5-66.8-28.5c-14.7-19-22-41.9-22-68.7 0-26.3 7.3-49.2 22-68.5 14.7-19.3 36.9-29 66.8-29 29.8 0 52.1 9.7 66.8 29 14.7 19.3 22 42.1 22 68.5 0 26.8-7.3 49.7-22 68.7zm-36.3-26.4c7.1-9.9 10.7-24 10.7-42.3 0-18.3-3.6-32.4-10.7-42.2-7.1-9.9-17.3-14.8-30.6-14.8s-23.5 4.9-30.7 14.8c-7.2 9.9-10.8 23.9-10.8 42.2 0 18.3 3.6 32.4 10.8 42.3 7.2 9.9 17.4 14.9 30.7 14.9s23.5-5 30.6-14.9z"/>
	<path d="M1494.6 2035.5h-46v-44.1h46v44.1zm-46.1 21.7h46v182.6h-46v-182.6z"/>
	<path d="M1678.6 2067.7c11.4 9.9 17.1 26.3 17.1 49.2v123h-46.5v-111.1c0-9.6-1.2-17-3.6-22.1-4.4-9.4-12.9-14.1-25.3-14.1-15.3 0-25.8 6.9-31.5 20.6-3 7.3-4.4 16.5-4.4 27.8v98.8H1539v-182.3h44v26.6c5.8-9.4 11.3-16.1 16.5-20.3 9.3-7.4 21.1-11.1 35.4-11.1 17.7.2 32.3 5.1 43.7 15z"/>
	<path d="M1720.1 2092.9v-34h24.2V2008h44.9v50.9h28.2v34h-28.2v96.5c0 7.5.9 12.1 2.7 14 1.8 1.8 7.3 2.8 16.6 2.8 1.4 0 2.8 0 4.4-.1 1.5-.1 3.1-.1 4.5-.3v35.7l-21.5.8c-21.5.8-36.1-3.1-44-11.7-5.1-5.5-7.6-13.9-7.6-25.3v-112.4h-24.2z"/>
</svg>
