<svg xmlns="http://www.w3.org/2000/svg" width="200" height="128">
    <g fill="#278bd5">
        <path d="M149.657 52.941a1.851 1.851 0 1 1-1.851 1.85 1.79 1.79 0 0 1 1.851-1.85zM41.062 57.964a.154.154 0 0 1-.117-.059.224.224 0 0 1-.059-.118.189.189 0 0 1 .176-.176.154.154 0 0 1 .118.059.225.225 0 0 1 .059.117c.029.118-.059.177-.177.177zm-1.85.293a.2.2 0 0 1-.176-.117.186.186 0 1 1 .352-.118v.147c-.029.03-.059.088-.117.088a.041.041 0 0 0-.059 0zm3.73 0h-.058a.185.185 0 1 1 .116-.352.186.186 0 0 1 .118.235.184.184 0 0 1-.177.117zm-5.434.794a.163.163 0 0 1-.147-.089.191.191 0 1 1 .265.059.219.219 0 0 1-.118.03zm7.109.029a.225.225 0 0 1-.118-.029.414.414 0 0 1-.088-.118.268.268 0 0 1 .029-.147.226.226 0 0 1 .265-.059.414.414 0 0 1 .088.118.268.268 0 0 1-.029.147.163.163 0 0 1-.147.088zm-8.489 1.263a.18.18 0 0 1-.118-.029.156.156 0 0 1-.059-.118.261.261 0 0 1 .03-.147.188.188 0 0 1 .294.235c-.059.03-.089.059-.147.059zM46 60.4a.228.228 0 0 1-.147-.059.188.188 0 0 1 .294-.235.177.177 0 0 1 .029.117.153.153 0 0 1-.058.118.156.156 0 0 1-.118.059zm-10.783 1.47h-.059c-.029-.029-.088-.058-.088-.088a.135.135 0 0 1 0-.147.163.163 0 0 1 .235-.088c.03.03.088.059.088.088a.129.129 0 0 1 0 .147.327.327 0 0 1-.176.088zm11.72.147a.2.2 0 0 1-.176-.117.135.135 0 0 1 0-.147c.029-.059.059-.088.088-.088a.175.175 0 0 1 .235.117.135.135 0 0 1 0 .147c-.029.059-.059.088-.088.088zm-12.19 1.675a.228.228 0 0 1-.147-.059.129.129 0 0 1-.029-.147.189.189 0 0 1 .176-.176c.118 0 .176.088.176.2a.156.156 0 0 1-.176.177zm12.6.176a.189.189 0 0 1-.176-.176.214.214 0 0 1 .176-.206.194.194 0 0 1 .206.176.246.246 0 0 1-.206.206zm-12.483 1.7a.186.186 0 0 1-.177-.146.259.259 0 0 1 .03-.147.378.378 0 0 1 .117-.088.172.172 0 0 1 .206.146.259.259 0 0 1-.03.147.378.378 0 0 1-.117.088zm12.307.177a.137.137 0 0 1-.147-.088.225.225 0 0 1-.024-.144.178.178 0 1 1 .352.058c-.029.118-.088.177-.176.177zm-11.66 1.589a.161.161 0 0 1-.147-.088.154.154 0 0 1 .059-.235.176.176 0 0 1 .235.059.22.22 0 0 1 .029.146c0 .059-.059.089-.088.118zm10.956.176a.109.109 0 0 1-.088-.029.414.414 0 0 1-.088-.118.27.27 0 0 1 .029-.147.163.163 0 0 1 .235-.058.378.378 0 0 1 .088.117.268.268 0 0 1-.029.147.25.25 0 0 1-.147.088zm-9.781 1.322a.153.153 0 0 1-.118-.059.225.225 0 0 1-.059-.117.156.156 0 0 1 .059-.118.219.219 0 0 1 .265 0 .225.225 0 0 1 .058.118.153.153 0 0 1-.058.117.488.488 0 0 1-.147.059zm8.577.117c-.059 0-.088-.029-.147-.058a.227.227 0 0 1-.059-.118.152.152 0 0 1 .059-.117.187.187 0 0 1 .264.264c-.029.029-.058.029-.117.029zm-7.05.97a.106.106 0 0 1-.088-.03c-.029-.029-.088-.058-.088-.117-.029-.059 0-.088 0-.147a.185.185 0 0 1 .235-.088.2.2 0 0 1 .088.235.137.137 0 0 1-.147.147zm5.493.088a.181.181 0 0 1-.176-.118.177.177 0 1 1 .235.089c0 .029-.03.029-.059.029zm-3.7.5a.174.174 0 0 1-.147-.058.225.225 0 0 1-.029-.147.165.165 0 0 1 .176-.147h.029c.088.029.177.117.147.2a.164.164 0 0 1-.176.147zm1.88.03a.165.165 0 0 1-.176-.147.268.268 0 0 1 .029-.147.154.154 0 0 1 .118-.059h.029a.165.165 0 0 1 .176.147c.029.088-.029.176-.176.206zM42 57.435a.134.134 0 0 1-.146-.088.129.129 0 0 1-.03-.147.2.2 0 0 1 .206-.176h.029c.059 0 .088.029.118.088a.13.13 0 0 1 .029.147.2.2 0 0 1-.206.176zm-2.056 0a.214.214 0 0 1-.2-.176c-.03-.118.058-.206.176-.235s.2.058.235.176a.217.217 0 0 1-.03.147.207.207 0 0 1-.176.088zm4.056.587a.108.108 0 0 1-.088-.029.2.2 0 0 1 .176-.352.223.223 0 0 1 .117.117.129.129 0 0 1 0 .147.293.293 0 0 1-.2.117zm-6.051.059a.16.16 0 0 1-.176-.117.2.2 0 1 1 .264.088c-.029 0-.059.029-.088.029zm7.784 1.087c-.059 0-.088-.029-.147-.059a.211.211 0 0 1 0-.293.2.2 0 0 1 .294 0 .164.164 0 0 1 0 .264.162.162 0 0 1-.147.088zm-9.488.088a.206.206 0 0 1-.145-.356.266.266 0 0 1 .294 0 .222.222 0 0 1 0 .293c-.029.059-.088.059-.147.059zm10.78 1.528a.21.21 0 0 1-.176-.089.265.265 0 0 1-.029-.146c0-.059.058-.089.088-.118a.191.191 0 0 1 .2.323c0 .03-.058.03-.088.03zm-12.043.116a.109.109 0 0 1-.088-.029c-.059-.03-.088-.059-.088-.118a.129.129 0 0 1 .029-.147.2.2 0 1 1 .353.177.255.255 0 0 1-.206.117zm12.836 1.821a.188.188 0 0 1-.176-.293c.029-.059.059-.089.118-.089a.2.2 0 1 1 .088.382zm-13.541 0a.193.193 0 0 1-.176-.235.182.182 0 0 1 .235-.147c.059 0 .088.03.117.089a.257.257 0 0 1 .03.146.222.222 0 0 1-.206.147zm13.688 2.056a.2.2 0 0 1-.205-.205c0-.118.088-.176.205-.176a.22.22 0 0 1 .206.2c0 .118-.088.176-.206.176zm-13.864.03a.2.2 0 0 1-.206-.176c0-.059 0-.118.059-.147a.22.22 0 0 1 .147-.059.2.2 0 0 1 .2.176.248.248 0 0 1-.2.206zm13.424 2h-.059a.232.232 0 0 1-.118-.117.268.268 0 0 1-.029-.147.221.221 0 0 1 .264-.118.23.23 0 0 1 .118.118.135.135 0 0 1 0 .147.161.161 0 0 1-.176.117zm-12.954.03a.2.2 0 0 1-.176-.118.2.2 0 1 1 .381-.147.129.129 0 0 1 0 .147.228.228 0 0 1-.117.118c-.059-.03-.059 0-.088 0zM46.5 68.626c-.03 0-.089-.029-.118-.029a.63.63 0 0 1-.088-.147.21.21 0 1 1 .206.176zm-10.9 0a.161.161 0 0 1-.147-.088.185.185 0 0 1 .029-.264.209.209 0 0 1 .265.323c-.059 0-.088.029-.147.029zm9.37 1.41a.252.252 0 0 1-.176-.088.191.191 0 0 1 .323-.2.22.22 0 0 1 .029.146c0 .059-.029.089-.088.118a.3.3 0 0 1-.088.029zm-7.843 0a.177.177 0 0 1-.117-.029c-.03-.029-.088-.088-.088-.118a.22.22 0 0 1 .029-.146.191.191 0 1 1 .323.2.161.161 0 0 1-.147.088zm5.963.911a.165.165 0 0 1-.176-.147c-.029-.059 0-.117 0-.147.029-.059.059-.088.117-.088a.185.185 0 0 1 .235.118.236.236 0 0 1-.117.264c0-.029-.029 0-.059 0zm-4.083 0h-.058a.4.4 0 0 1-.118-.088.135.135 0 0 1 0-.147.193.193 0 0 1 .235-.147.414.414 0 0 1 .118.088.135.135 0 0 1 0 .147.219.219 0 0 1-.177.147zm2.027.294a.206.206 0 1 1 .206-.206.2.2 0 0 1-.206.206zm.059-14.57a.209.209 0 0 1-.206-.235.206.206 0 0 1 .411 0 .209.209 0 0 1-.2.235zm-2.262.323a.221.221 0 0 1-.206-.146.2.2 0 0 1 .03-.177c.029-.058.088-.088.117-.117a.214.214 0 1 1 .118.411.093.093 0 0 1-.059.029zm4.524.03H43.3a.234.234 0 0 1-.118-.118.189.189 0 0 1 0-.176.225.225 0 0 1 .265-.147.212.212 0 0 1 .147.265.276.276 0 0 1-.235.176zm-6.61.969a.177.177 0 0 1-.176-.088c-.029-.059-.059-.118-.029-.176a.25.25 0 0 1 .088-.147.227.227 0 0 1 .294.059.2.2 0 0 1 .029.176c0 .059-.059.117-.088.147-.029 0-.059.029-.118.029zm8.666.029c-.059 0-.088 0-.118-.029a.161.161 0 0 1-.088-.147.376.376 0 0 1 .029-.176.212.212 0 0 1 .353.235.213.213 0 0 1-.176.117zm-10.34 1.5c-.059 0-.088-.03-.147-.059a.163.163 0 0 1-.088-.147c0-.059 0-.118.059-.147a.2.2 0 0 1 .294-.029.23.23 0 0 1 .029.323.225.225 0 0 1-.147.059zm11.985.088a.258.258 0 0 1-.177-.088.234.234 0 0 1 .03-.324.224.224 0 0 1 .294.03.2.2 0 0 1-.03.294c-.029.058-.059.088-.117.088zM33.983 61.4a.11.11 0 0 1-.088-.029.224.224 0 1 1 .294-.117c-.059.088-.118.146-.206.146zm14.217.177a.22.22 0 0 1-.2-.147.183.183 0 0 1 0-.176.225.225 0 0 1 .117-.118.279.279 0 0 1 .294.118.24.24 0 0 1-.118.293.22.22 0 0 1-.088.03zM33.425 63.6a.177.177 0 0 1-.176-.088c-.029-.058-.059-.088-.059-.147a.221.221 0 0 1 .206-.205.194.194 0 0 1 .206.235.165.165 0 0 1-.177.2zm15.245.206a.2.2 0 0 1-.2-.206.224.224 0 0 1 .058-.146c.03-.059.088-.059.147-.089a.227.227 0 0 1 .235.206.216.216 0 0 1-.235.235zM33.543 65.9c-.088 0-.206-.089-.206-.177a.367.367 0 0 1 .03-.176.16.16 0 0 1 .146-.088.23.23 0 0 1 .265.176.363.363 0 0 1-.03.176.161.161 0 0 1-.146.089zm14.951.2h-.059a.257.257 0 0 1-.176-.264.21.21 0 0 1 .264-.147.25.25 0 0 1 .147.088.261.261 0 0 1 .03.147.216.216 0 0 1-.206.176zm-14.129 1.939a.219.219 0 0 1-.205-.118.363.363 0 0 1-.03-.176c.03-.059.059-.117.118-.117a.208.208 0 0 1 .293.088.2.2 0 0 1-.088.294.108.108 0 0 1-.088.029zm13.248.176a.18.18 0 0 1-.118-.029.163.163 0 0 1-.088-.147.363.363 0 0 1 .03-.176.237.237 0 0 1 .293-.088.16.16 0 0 1 .088.146.38.38 0 0 1-.029.177c0 .088-.088.117-.176.117zM35.746 69.86a.22.22 0 0 1-.146-.06.228.228 0 1 1 .323 0 .409.409 0 0 1-.176.059zm10.427.118a.427.427 0 0 1-.173-.059.213.213 0 0 1 0-.294.264.264 0 0 1 .323 0 .21.21 0 0 1-.029.323c0 .03-.059.03-.118.03zm-8.547 1.174a.108.108 0 0 1-.088-.029.217.217 0 1 1 .205-.382.234.234 0 0 1 .118.118.189.189 0 0 1 0 .176.3.3 0 0 1-.235.117zm6.638.118a.246.246 0 0 1-.205-.118.183.183 0 0 1 0-.176.227.227 0 0 1 .117-.117.224.224 0 1 1 .176.411c-.029-.029-.058 0-.088 0zm-4.465.587a.227.227 0 0 1-.2-.264.214.214 0 0 1 .264-.176.161.161 0 0 1 .147.088c.029.059.059.117.029.176a.274.274 0 0 1-.235.176zm2.291.03a.2.2 0 0 1-.205-.176.188.188 0 0 1 .176-.235c.118 0 .235.088.235.176a.189.189 0 0 1-.176.235zM42.208 56c-.176-.03-.264-.147-.235-.265s.147-.235.264-.2.235.147.206.264a.209.209 0 0 1-.235.206zm-2.5.029a.227.227 0 0 1-.235-.206.237.237 0 0 1 .47-.058.378.378 0 0 1-.029.176.162.162 0 0 1-.147.088zm4.935.7a.109.109 0 0 1-.088-.029.2.2 0 0 1-.118-.147.189.189 0 0 1 0-.176.243.243 0 1 1 .441.2.3.3 0 0 1-.235.147zm-7.343.059a.22.22 0 0 1-.206-.147.189.189 0 0 1 0-.176.292.292 0 0 1 .117-.147.243.243 0 1 1 .206.44.172.172 0 0 1-.117.03zm9.429 1.322a.426.426 0 0 1-.177-.059.24.24 0 1 1 .323-.353.239.239 0 0 1 0 .353.225.225 0 0 1-.146.059zm-11.486.117a.254.254 0 0 1-.176-.088.216.216 0 0 1-.059-.176.256.256 0 0 1 .089-.177.268.268 0 0 1 .352 0 .217.217 0 0 1 .059.177.258.258 0 0 1-.088.176.254.254 0 0 1-.177.088zm13.072 1.851a.247.247 0 0 1-.206-.118.376.376 0 0 1-.029-.176.287.287 0 0 1 .117-.147.237.237 0 1 1 .235.411.172.172 0 0 1-.117.03zm-14.628.146a.18.18 0 0 1-.118-.029.287.287 0 0 1-.117-.147c-.03-.059 0-.117.029-.176a.237.237 0 0 1 .411.235.245.245 0 0 1-.205.117zm15.568 2.2a.256.256 0 0 1-.235-.177.242.242 0 0 1 .47-.117.193.193 0 0 1-.03.176.294.294 0 0 1-.147.118zm-16.42 0h-.059a.245.245 0 0 1-.176-.294.259.259 0 0 1 .294-.176.257.257 0 0 1 .176.293.224.224 0 0 1-.235.177zm16.6 2.5a.225.225 0 0 1-.235-.264.252.252 0 0 1 .235-.235.177.177 0 0 1 .176.088.413.413 0 0 1 .059.176.216.216 0 0 1-.235.235zm-16.8.03a.232.232 0 0 1-.235-.235.426.426 0 0 1 .059-.177.178.178 0 0 1 .176-.088.258.258 0 0 1 .265.235.311.311 0 0 1-.265.265zm16.273 2.438a.106.106 0 0 1-.088-.03.291.291 0 0 1-.147-.117.189.189 0 0 1 0-.176.251.251 0 1 1 .47.176.3.3 0 0 1-.235.147zm-15.715 0a.3.3 0 0 1-.235-.147.238.238 0 0 1 .147-.323.26.26 0 0 1 .323.147.183.183 0 0 1 0 .176c-.029.059-.058.117-.147.117a.105.105 0 0 1-.088.03zm14.452 2.173a.227.227 0 0 1-.147-.058.241.241 0 0 1-.029-.353.267.267 0 0 1 .352-.029.239.239 0 0 1 .03.352.267.267 0 0 1-.206.088zm-13.189.03a.178.178 0 0 1-.176-.088.268.268 0 0 1 .029-.353.271.271 0 0 1 .353.029.268.268 0 0 1-.029.353c-.089.029-.118.059-.177.059zm11.339 1.7a.221.221 0 0 1-.206-.117.378.378 0 0 1-.029-.176.245.245 0 0 1 .088-.147.259.259 0 0 1 .323.059.208.208 0 0 1-.059.323c0 .029-.059.058-.117.058zm-9.517 0c-.059 0-.089-.029-.147-.029a.241.241 0 1 1 .293-.382.162.162 0 0 1 .088.147.376.376 0 0 1-.029.176.227.227 0 0 1-.2.088zm7.255 1.087a.223.223 0 0 1-.235-.176.192.192 0 0 1 .029-.176.3.3 0 0 1 .147-.118.244.244 0 0 1 .294.147.193.193 0 0 1-.03.176.3.3 0 0 1-.146.118c0 .029-.03.029-.059.029zm-4.964 0h-.059a.232.232 0 1 1 .147-.44.291.291 0 0 1 .147.117.378.378 0 0 1 .029.176.351.351 0 0 1-.264.147zm2.467.382a.235.235 0 1 1 .235-.235c.029.118-.088.235-.235.235zm.059-17.683a.265.265 0 1 1 0-.529.21.21 0 0 1 .176.088.254.254 0 0 1 .088.177.262.262 0 0 1-.264.264zm-2.761.411a.338.338 0 0 1-.265-.176.258.258 0 0 1 .03-.206.2.2 0 0 1 .144-.11.26.26 0 1 1 .146.5zm5.493.03h-.089a.261.261 0 0 1 .147-.5.294.294 0 0 1 .147.118.49.49 0 0 1 .03.2c0 .089-.118.177-.235.177zm-7.99 1.145a.362.362 0 0 1-.235-.117.273.273 0 1 1 .382.059c-.03.058-.088.058-.147.058zm10.486.059a.225.225 0 0 1-.147-.059.269.269 0 0 1-.117-.176.508.508 0 0 1 .029-.206.279.279 0 0 1 .382-.058c.059.029.088.088.118.176a.492.492 0 0 1-.03.206.266.266 0 0 1-.235.117zm-12.516 1.825a.409.409 0 0 1-.176-.059.207.207 0 0 1-.088-.176.276.276 0 0 1 .059-.205.273.273 0 0 1 .381-.03.21.21 0 0 1 .088.176.283.283 0 0 1-.058.206.317.317 0 0 1-.206.088zm14.54.088a.267.267 0 0 1-.206-.088.249.249 0 0 1-.058-.205.21.21 0 0 1 .088-.177.279.279 0 0 1 .382.059.251.251 0 0 1 .058.206.331.331 0 0 1-.088.176c-.058 0-.117.029-.176.029zm-15.891 2.174a.227.227 0 0 1-.118-.029.363.363 0 0 1-.146-.147.247.247 0 0 1 0-.206.283.283 0 0 1 .352-.147.26.26 0 0 1 .147.353.224.224 0 0 1-.235.176zm17.242.235a.224.224 0 0 1-.235-.176.255.255 0 0 1 0-.206.359.359 0 0 1 .147-.147.27.27 0 1 1 .206.5.18.18 0 0 1-.118.029zM31.81 63.515a.267.267 0 0 1-.206-.088.246.246 0 0 1-.059-.2.24.24 0 0 1 .265-.235h.029a.207.207 0 0 1 .176.088.245.245 0 0 1 .059.2.311.311 0 0 1-.264.235zm18.505.235a.258.258 0 0 1-.264-.235.531.531 0 0 1 .059-.2.25.25 0 0 1 .176-.088.314.314 0 0 1 .293.235.27.27 0 0 1-.264.293zm-18.358 2.526a.283.283 0 0 1-.265-.2.271.271 0 1 1 .323.2zm18.123.235h-.059a.612.612 0 0 1-.176-.117.242.242 0 0 1-.029-.206.269.269 0 0 1 .323-.2.6.6 0 0 1 .176.117.258.258 0 0 1 .03.206.272.272 0 0 1-.265.2zm-17.154 2.35a.3.3 0 0 1-.235-.147.263.263 0 0 1 .47-.235.508.508 0 0 1 .029.206.287.287 0 0 1-.117.147.268.268 0 0 1-.147.029zm16.1.235a.268.268 0 0 1-.147-.029.2.2 0 0 1-.118-.176.258.258 0 0 1 .03-.206.246.246 0 0 1 .352-.088.251.251 0 0 1 .088.352.219.219 0 0 1-.2.147zM34.63 71.064a.21.21 0 0 1-.177-.088.254.254 0 0 1-.088-.176.21.21 0 0 1 .088-.176.281.281 0 0 1 .47.176.315.315 0 0 1-.058.176.588.588 0 0 1-.235.088zm12.63.177a.264.264 0 0 1-.2-.089.245.245 0 0 1-.059-.2.207.207 0 0 1 .088-.176.275.275 0 0 1 .382.029.248.248 0 0 1 .059.206.212.212 0 0 1-.088.176.254.254 0 0 1-.177.059zM36.891 72.68a.177.177 0 0 1-.117-.029.257.257 0 0 1-.118-.353.283.283 0 0 1 .353-.117.357.357 0 0 1 .147.146.182.182 0 0 1-.03.206.3.3 0 0 1-.235.147zm8.078.088a.263.263 0 0 1-.235-.147.252.252 0 0 1 0-.2.242.242 0 0 1 .147-.147.282.282 0 0 1 .352.117.273.273 0 0 1-.117.353.4.4 0 0 1-.147.029zm-5.434.764c-.176-.03-.264-.147-.235-.294a.253.253 0 1 1 .5.088.282.282 0 0 1-.264.206zm2.761.029a.27.27 0 0 1-.206-.44c.03-.059.118-.089.177-.118a.248.248 0 0 1 .293.235.283.283 0 0 1-.058.206c-.03.058-.118.088-.206.117zm.176-19.3a.21.21 0 0 1-.2-.118.279.279 0 0 1-.059-.205.344.344 0 0 1 .323-.265.3.3 0 0 1 .206.118.281.281 0 0 1 .058.2.337.337 0 0 1-.323.265zm-3.055.029a.316.316 0 0 1-.293-.235.248.248 0 0 1 .059-.206.3.3 0 0 1 .2-.117.275.275 0 0 1 .323.235.245.245 0 0 1-.059.2c-.058.059-.117.118-.176.118zm5.993.852a.175.175 0 0 1-.118-.03.3.3 0 0 1-.147-.176.328.328 0 0 1 0-.235.289.289 0 1 1 .529.235.273.273 0 0 1-.264.206zm-8.9.088a.283.283 0 0 1-.264-.176.326.326 0 0 1 0-.235.306.306 0 0 1 .147-.177.292.292 0 0 1 .382.147.326.326 0 0 1 0 .235.306.306 0 0 1-.147.177c-.029.029-.059.029-.118.029zm11.427 1.616a.318.318 0 0 1-.206-.089.284.284 0 0 1 0-.411.315.315 0 0 1 .411-.029.282.282 0 0 1 0 .411.2.2 0 0 1-.2.118zm-13.923.146a.267.267 0 0 1-.206-.088.264.264 0 0 1-.088-.2.267.267 0 0 1 .088-.206.313.313 0 0 1 .411 0 .283.283 0 0 1 0 .411.314.314 0 0 1-.205.088zm15.832 2.233a.3.3 0 0 1-.294-.382c.03-.088.059-.147.147-.176a.3.3 0 0 1 .412.117.316.316 0 0 1 .029.235c-.029.088-.059.147-.147.176a1.225 1.225 0 0 1-.147.03zm-17.712.147a.261.261 0 0 1-.147-.03.3.3 0 0 1-.147-.176.335.335 0 0 1 .029-.235.326.326 0 0 1 .412-.117.3.3 0 0 1 .147.176.33.33 0 0 1-.03.235.282.282 0 0 1-.264.147zm18.858 2.7a.286.286 0 0 1-.294-.235.335.335 0 0 1 .029-.235.242.242 0 0 1 .177-.117.288.288 0 1 1 .146.558c0 .029-.029.029-.058.029zm-19.916 0h-.058a.272.272 0 0 1-.177-.117.316.316 0 0 1-.029-.235.288.288 0 1 1 .558.146.291.291 0 0 1-.294.206zm20.15 3.028a.3.3 0 0 1-.294-.324.29.29 0 0 1 .294-.264.3.3 0 0 1 .293.323.271.271 0 0 1-.293.265zm-20.386.029a.29.29 0 0 1-.293-.264.32.32 0 0 1 .264-.324.295.295 0 1 1 .029.588zM50.579 68.1a.218.218 0 0 1-.117-.03.353.353 0 0 1-.147-.147.325.325 0 0 1 0-.235.306.306 0 0 1 .382-.176.789.789 0 0 1 .176.147.316.316 0 0 1 0 .235.353.353 0 0 1-.294.206zm-19.063 0a.3.3 0 0 1-.264-.177.3.3 0 0 1 .558-.205.326.326 0 0 1 0 .235.3.3 0 0 1-.177.147zm17.536 2.643a.42.42 0 0 1-.176-.058.482.482 0 0 1-.118-.206.248.248 0 0 1 .059-.206.294.294 0 0 1 .47.353.267.267 0 0 1-.235.117zm-16.009 0a.267.267 0 0 1-.235-.117.283.283 0 0 1-.058-.206.293.293 0 0 1 .117-.205.294.294 0 0 1 .353.47.219.219 0 0 1-.177.058zm13.777 2.084a.361.361 0 0 1-.235-.118.277.277 0 0 1-.059-.2.274.274 0 0 1 .117-.177.3.3 0 0 1 .412.089.29.29 0 0 1-.088.411c-.03-.03-.089 0-.147 0zm-11.544 0a.418.418 0 0 1-.176-.059.289.289 0 0 1-.089-.411.324.324 0 0 1 .412-.088.289.289 0 0 1 .088.411.243.243 0 0 1-.235.147zm8.783 1.322a.284.284 0 0 1-.265-.206.23.23 0 0 1 .03-.235.3.3 0 0 1 .558.059.261.261 0 0 1-.206.352.218.218 0 0 1-.117.03zm-6.022 0h-.088a.3.3 0 0 1-.176-.149.562.562 0 0 1-.03-.235.32.32 0 0 1 .353-.206c.088.03.147.059.176.147a.311.311 0 0 1 .029.235.251.251 0 0 1-.264.206zm3.025.47a.294.294 0 0 1 0-.588.294.294 0 0 1 0 .588zm.03-21.443a.358.358 0 0 1-.353-.353.334.334 0 0 1 .353-.323.357.357 0 0 1 .352.353.333.333 0 0 1-.352.323zm-3.319.5a.3.3 0 1 1 .088 0zm6.638.03a.216.216 0 0 1-.117-.03.392.392 0 0 1-.206-.176v-.235a.33.33 0 0 1 .411-.206.4.4 0 0 1 .206.177.412.412 0 0 1 .029.264.331.331 0 0 1-.323.206zm-9.693 1.409a.407.407 0 0 1-.294-.146.83.83 0 0 1-.024-.269c.029-.088.058-.176.146-.205a.365.365 0 0 1 .47.088.336.336 0 0 1-.088.47.424.424 0 0 1-.2.058zm12.719.059a.536.536 0 0 1-.206-.059.336.336 0 0 1-.088-.47.361.361 0 0 1 .47-.088.337.337 0 0 1 .088.47.276.276 0 0 1-.264.147zM32.25 57.406a.264.264 0 0 1-.2-.089.335.335 0 1 1 .411-.528.362.362 0 0 1 .117.235.865.865 0 0 1-.058.264.373.373 0 0 1-.265.118zm17.654.088a.368.368 0 0 1-.264-.118.335.335 0 1 1 .528-.411.229.229 0 0 1 .059.235.366.366 0 0 1-.117.235.554.554 0 0 1-.206.059zm-19.269 2.643c-.059 0-.088 0-.118-.029a.336.336 0 0 1 .265-.617.267.267 0 0 1 .176.176.414.414 0 0 1 0 .265.361.361 0 0 1-.323.2zm20.914.294a.36.36 0 0 1-.323-.206.344.344 0 1 1 .44.206c-.029-.029-.058 0-.117 0zM29.842 63.4a.373.373 0 0 1-.265-.118.316.316 0 0 1 .294-.528.362.362 0 0 1 .235.117.333.333 0 0 1 .088.235.408.408 0 0 1-.352.294zm22.441.294a.375.375 0 0 1-.352-.324.333.333 0 0 1 .088-.235.366.366 0 0 1 .235-.117h.029a.326.326 0 0 1 .323.323.333.333 0 0 1-.088.235.239.239 0 0 1-.235.118zm-22.265 3.052a.343.343 0 0 1-.323-.264.3.3 0 0 1 .059-.264.336.336 0 0 1 .2-.147.38.38 0 0 1 .411.264.3.3 0 0 1-.058.265.339.339 0 0 1-.206.146zm21.971.324H51.9a.379.379 0 0 1-.205-.147.287.287 0 0 1-.03-.265.364.364 0 0 1 .412-.264.382.382 0 0 1 .264.411.413.413 0 0 1-.353.265zm-20.8 2.819a.322.322 0 0 1-.294-.176.311.311 0 0 1-.029-.235.514.514 0 0 1 .147-.2.349.349 0 0 1 .47.146.422.422 0 0 1 .029.265.514.514 0 0 1-.147.2zm19.533.294a.413.413 0 0 1-.176-.059.333.333 0 0 1-.117-.47.369.369 0 0 1 .47-.117c.088.059.146.117.146.206a.412.412 0 0 1-.029.264.324.324 0 0 1-.294.176zm-17.473 2.379a.333.333 0 0 1-.235-.088.306.306 0 0 1 0-.47.328.328 0 0 1 .47 0 .306.306 0 0 1 0 .47.333.333 0 0 1-.235.088zm15.362.235a.358.358 0 0 1-.264-.117.333.333 0 1 1 .47.029.611.611 0 0 1-.206.088zm-12.6 1.7a.223.223 0 0 1-.147-.029.312.312 0 0 1-.176-.206.288.288 0 0 1 .028-.262.343.343 0 0 1 .47-.147.309.309 0 0 1 .177.2.287.287 0 0 1-.03.265.406.406 0 0 1-.323.176zm9.782.147a.318.318 0 0 1-.294-.206.386.386 0 0 1 .176-.47.336.336 0 1 1 .264.617c-.058.03-.088.059-.146.059zm-6.58.911h-.059a.409.409 0 0 1-.235-.147.437.437 0 0 1-.059-.265.312.312 0 0 1 .382-.264.354.354 0 0 1 .294.382.342.342 0 0 1-.323.294zm3.348.029a.3.3 0 0 1-.323-.294.341.341 0 1 1 .676-.088.316.316 0 0 1-.059.235.635.635 0 0 1-.235.147zm.206-23.323h-.059a.444.444 0 1 1 .118-.881.468.468 0 0 1 .382.529.4.4 0 0 1-.441.352zm-3.7.059a.422.422 0 0 1-.441-.382.331.331 0 0 1 .089-.323.388.388 0 0 1 .293-.176.462.462 0 0 1 .529.382.479.479 0 0 1-.382.528c-.029-.058-.059-.029-.088-.029zm7.255 1.028a.579.579 0 0 1-.2-.029.45.45 0 0 1-.206-.617.465.465 0 0 1 .617-.206.418.418 0 0 1 .235.265.445.445 0 0 1-.441.587zm-10.78.088a.443.443 0 0 1-.411-.264.449.449 0 0 1 .206-.617.473.473 0 0 1 .616.206.447.447 0 0 1-.2.616.28.28 0 0 1-.206.059zm13.865 1.968a.341.341 0 0 1-.294-.117.473.473 0 0 1-.147-.323.444.444 0 0 1 .117-.324.494.494 0 0 1 .647-.029.462.462 0 0 1 .029.646.542.542 0 0 1-.352.147zm-16.89.147a.471.471 0 0 1-.323-.147.417.417 0 0 1-.147-.323.469.469 0 0 1 .147-.323.462.462 0 0 1 .646.029.438.438 0 0 1-.03.647.376.376 0 0 1-.293.117zm19.21 2.732a.424.424 0 0 1-.382-.235.463.463 0 0 1 .147-.617.446.446 0 0 1 .617.176.508.508 0 0 1 .059.353.474.474 0 0 1-.206.264.56.56 0 0 1-.235.059zm-21.5.2a.693.693 0 0 1-.235-.058.373.373 0 0 1-.206-.265.5.5 0 0 1 .029-.352.472.472 0 0 1 .617-.176.372.372 0 0 1 .206.264.491.491 0 0 1-.03.352.392.392 0 0 1-.381.235zm22.882 3.232a.468.468 0 0 1-.441-.353.505.505 0 0 1 .059-.352.533.533 0 0 1 .294-.206.469.469 0 0 1 .558.323.508.508 0 0 1-.059.353.424.424 0 0 1-.294.205.172.172 0 0 1-.117.03zm-24.146.029h-.088a.493.493 0 0 1-.293-.206.475.475 0 1 1 .381.206zM53.4 65.425a.487.487 0 0 1-.352-.147.443.443 0 0 1-.118-.323.432.432 0 0 1 .47-.412.471.471 0 0 1 .323.147.439.439 0 0 1 .118.323.428.428 0 0 1-.441.412zm-24.732.029a.427.427 0 0 1-.441-.411.481.481 0 0 1 .411-.5.419.419 0 0 1 .47.412.442.442 0 0 1-.117.323.577.577 0 0 1-.323.176zm23.939 3.584a.367.367 0 0 1-.176-.03.456.456 0 0 1 .323-.852.42.42 0 0 1 .265.235.38.38 0 0 1 0 .353.443.443 0 0 1-.412.294zm-23.117.029a.443.443 0 0 1-.411-.294.486.486 0 0 1 0-.352.44.44 0 0 1 .822.029.483.483 0 0 1 0 .353.454.454 0 0 1-.235.235c-.058 0-.117.029-.176.029zm21.267 3.172a.565.565 0 0 1-.294-.088.436.436 0 0 1-.059-.646.494.494 0 0 1 .646-.088.464.464 0 0 1 .089.646.516.516 0 0 1-.382.176zm-19.416.03a.419.419 0 0 1-.353-.177.332.332 0 0 1-.088-.323.388.388 0 0 1 .176-.293.468.468 0 0 1 .647.088.332.332 0 0 1 .088.323.324.324 0 0 1-.177.294.571.571 0 0 1-.293.088zm16.713 2.5a.428.428 0 0 1-.382-.2.457.457 0 0 1-.058-.353.5.5 0 0 1 .176-.293.444.444 0 1 1 .5.734.216.216 0 0 1-.235.117zm-14.011.03a.478.478 0 0 1-.264-.088.391.391 0 0 1-.176-.294.507.507 0 0 1 .058-.353.44.44 0 0 1 .617-.117.39.39 0 0 1 .176.294.5.5 0 0 1-.058.352.408.408 0 0 1-.353.206zm10.662 1.611a.441.441 0 0 1-.441-.323.491.491 0 0 1 .03-.352.512.512 0 0 1 .264-.235.452.452 0 0 1 .558.294.429.429 0 0 1-.294.558.151.151 0 0 1-.117.058zm-7.314 0a.268.268 0 0 1-.147-.029.441.441 0 0 1-.294-.558.446.446 0 1 1 .852.264.413.413 0 0 1-.411.323zm3.671.529a.441.441 0 1 1 0-.881.452.452 0 0 1 .441.441.433.433 0 0 1-.441.44zm.059-26.054a.473.473 0 0 1-.323-.147.442.442 0 0 1-.117-.323.452.452 0 0 1 .44-.441.433.433 0 0 1 .441.441.441.441 0 0 1-.441.47zm-4.053.587a.441.441 0 0 1-.441-.323.446.446 0 0 1 .852-.264.491.491 0 0 1-.03.352.512.512 0 0 1-.264.235zm8.077.059A.262.262 0 0 1 45 51.5a.441.441 0 0 1-.293-.558.429.429 0 0 1 .558-.293.416.416 0 0 1 .264.235.491.491 0 0 1 .03.352.393.393 0 0 1-.412.294zM33.4 53.235a.5.5 0 0 1-.382-.206.444.444 0 1 1 .734-.5.455.455 0 0 1 .059.352.5.5 0 0 1-.176.294.56.56 0 0 1-.235.059zm15.421.088a.478.478 0 0 1-.264-.088.444.444 0 0 1 .5-.735.47.47 0 0 1 .118.646.385.385 0 0 1-.353.177zM30.4 56a.575.575 0 0 1-.294-.088.437.437 0 0 1-.059-.647.461.461 0 0 1 .647-.058.614.614 0 0 1 .176.293.6.6 0 0 1-.088.323.57.57 0 0 1-.382.177zm21.384.117a.42.42 0 0 1-.353-.176.333.333 0 0 1-.088-.323.39.39 0 0 1 .176-.294.465.465 0 0 1 .647.088.333.333 0 0 1 .088.323.39.39 0 0 1-.176.294.568.568 0 0 1-.294.088zm-23.352 3.2a.38.38 0 0 1-.177-.029.461.461 0 0 1-.235-.235.38.38 0 0 1 0-.353.448.448 0 0 1 .823.353.462.462 0 0 1-.411.264zm25.349.352a.442.442 0 0 1-.411-.293.456.456 0 1 1 .587.264.374.374 0 0 1-.176.029zM27.433 63.28H27.4a.457.457 0 1 1 .5-.411.474.474 0 0 1-.47.411zm27.229.382a.426.426 0 0 1-.44-.411.441.441 0 0 1 .117-.323.473.473 0 0 1 .323-.147h.03a.426.426 0 0 1 .44.411.481.481 0 0 1-.47.47zm-26.994 3.7a.444.444 0 0 1-.441-.352.45.45 0 0 1 .882-.176.443.443 0 0 1-.353.528zm26.642.353h-.118a.5.5 0 0 1-.293-.206.48.48 0 0 1-.059-.352.456.456 0 0 1 .881.235.369.369 0 0 1-.411.323zm-25.2 3.466a.394.394 0 0 1-.382-.235.454.454 0 0 1 .794-.441.5.5 0 0 1 .029.353.47.47 0 0 1-.206.264.922.922 0 0 1-.235.059zm23.676.323a.672.672 0 0 1-.235-.059.448.448 0 1 1 .47-.763.472.472 0 0 1 .176.616.513.513 0 0 1-.411.206zM31.6 74.413a.615.615 0 0 1-.323-.118.471.471 0 0 1-.147-.323.439.439 0 0 1 .118-.323.461.461 0 0 1 .646 0 .473.473 0 0 1 .147.323.441.441 0 0 1-.118.323.612.612 0 0 1-.323.118zm18.594.264a.416.416 0 0 1-.323-.147.437.437 0 0 1-.118-.323.473.473 0 0 1 .147-.323.491.491 0 0 1 .646.03.441.441 0 0 1 .118.323.473.473 0 0 1-.147.323.442.442 0 0 1-.323.117zm-15.271 2.086a.549.549 0 0 1-.2-.059.515.515 0 0 1-.235-.264.488.488 0 0 1 .029-.353.475.475 0 0 1 .617-.2.45.45 0 0 1 .206.617.444.444 0 0 1-.412.264zm11.9.176a.5.5 0 0 1-.412-.264.38.38 0 0 1 0-.353.421.421 0 0 1 .235-.264.505.505 0 0 1 .617.206.431.431 0 0 1-.2.587.588.588 0 0 1-.235.088zM38.8 78.026h-.088a.5.5 0 0 1-.294-.176.59.59 0 0 1-.088-.323.461.461 0 0 1 .91.146.42.42 0 0 1-.44.353zm4.083.059a.446.446 0 0 1-.441-.382.458.458 0 0 1 .382-.5.456.456 0 0 1 .5.382.33.33 0 0 1-.088.323.5.5 0 0 1-.294.177h-.058zm.264-28.434h-.059a.5.5 0 0 1-.294-.176.425.425 0 0 1-.088-.323.445.445 0 0 1 .882.117.422.422 0 0 1-.441.382zm-4.494.059a.422.422 0 0 1-.441-.382.461.461 0 1 1 .529.382zm8.812 1.233c-.059 0-.118-.029-.206-.029a.448.448 0 0 1-.2-.617.474.474 0 0 1 .617-.2.448.448 0 0 1 .205.616.468.468 0 0 1-.411.235zm-13.1.118a.443.443 0 0 1-.411-.264.488.488 0 0 1-.029-.353.413.413 0 0 1 .235-.264.483.483 0 0 1 .616.2.448.448 0 0 1-.205.617.248.248 0 0 1-.206.059zM51.2 53.44a.339.339 0 0 1-.293-.117.461.461 0 0 1-.03-.647.492.492 0 0 1 .646-.029.469.469 0 0 1 .147.323.441.441 0 0 1-.117.323.465.465 0 0 1-.353.147zm-20.5.206a.475.475 0 0 1-.324-.147.442.442 0 0 1-.117-.323.471.471 0 0 1 .147-.323.461.461 0 0 1 .646.029.442.442 0 0 1 .117.323.47.47 0 0 1-.146.323.492.492 0 0 1-.323.118zm23.322 3.29a.424.424 0 0 1-.382-.235.446.446 0 0 1 .177-.617.461.461 0 0 1 .616.147.446.446 0 0 1-.176.617.268.268 0 0 1-.235.088zm-26.09.264a.417.417 0 0 1-.2-.059.375.375 0 0 1-.206-.264.4.4 0 0 1 .03-.323.47.47 0 0 1 .616-.176.369.369 0 0 1 .206.264.5.5 0 0 1-.029.352.618.618 0 0 1-.412.206zm27.759 3.936a.468.468 0 0 1-.441-.352.411.411 0 0 1 .059-.324.534.534 0 0 1 .293-.2.468.468 0 0 1 .558.323.425.425 0 0 1-.323.529.59.59 0 0 0-.146.029zm-29.286 0h-.088a.5.5 0 0 1-.353-.558.438.438 0 0 1 .529-.323.5.5 0 0 1 .294.2.508.508 0 0 1 .059.353.441.441 0 0 1-.441.323zM56.043 65.6a.442.442 0 1 1 .059-.881.469.469 0 0 1 .323.147.441.441 0 0 1 .117.323.529.529 0 0 1-.5.411zm-30.02.029a.427.427 0 0 1-.441-.411.443.443 0 0 1 .118-.318.408.408 0 0 1 .294-.147.418.418 0 0 1 .47.411.441.441 0 0 1-.118.323.421.421 0 0 1-.323.147zm29.051 4.348a.369.369 0 0 1-.177-.03.319.319 0 0 1-.235-.235.378.378 0 0 1 0-.352.456.456 0 1 1 .852.323.514.514 0 0 1-.44.294zm-28.052.029a.442.442 0 0 1-.411-.294.481.481 0 0 1 0-.352.446.446 0 0 1 .235-.235.456.456 0 0 1 .323.852.223.223 0 0 1-.147.029zm25.819 3.877a.562.562 0 0 1-.293-.088.436.436 0 0 1-.059-.646.493.493 0 0 1 .646-.088.436.436 0 0 1 .059.646.457.457 0 0 1-.353.176zm-23.587.03a.417.417 0 0 1-.352-.177.33.33 0 0 1-.088-.323.321.321 0 0 1 .176-.293.467.467 0 0 1 .646.088.33.33 0 0 1 .088.323.325.325 0 0 1-.176.294.5.5 0 0 1-.294.088zm20.3 3.054a.461.461 0 1 1 .235-.088.33.33 0 0 1-.235.088zm-17.007 0a.471.471 0 0 1-.264-.088.389.389 0 0 1-.177-.293.508.508 0 0 1 .059-.353.44.44 0 0 1 .617-.117.435.435 0 0 1 .118.616.322.322 0 0 1-.353.235zm12.953 1.94a.441.441 0 0 1-.441-.323.491.491 0 0 1 .03-.352.507.507 0 0 1 .262-.232.446.446 0 1 1 .264.851.116.116 0 0 1-.117.059zm-8.9.03a.259.259 0 0 1-.147-.03.441.441 0 0 1-.294-.558.429.429 0 0 1 .558-.294.416.416 0 0 1 .264.235.493.493 0 0 1 .03.353.424.424 0 0 1-.411.294zm4.464.646a.452.452 0 0 1-.44-.441.441.441 0 0 1 .881 0 .452.452 0 0 1-.441.441zm.059-31.371a.676.676 0 0 1 0-1.352.684.684 0 0 1 .676.676.665.665 0 0 1-.676.676zm-4.876.734a.7.7 0 0 1-.646-.47.682.682 0 0 1 .441-.852.437.437 0 0 1 .2-.029.7.7 0 0 1 .646.47.671.671 0 0 1-.058.528.764.764 0 0 1-.412.324c-.058 0-.117.029-.176.029zm9.782.029a.508.508 0 0 1-.206-.029.682.682 0 0 1-.441-.852.661.661 0 0 1 .647-.47.49.49 0 0 1 .2.03.681.681 0 0 1 .441.851.661.661 0 0 1-.646.47zm-14.278 2.086a.668.668 0 0 1-.558-.294.69.69 0 0 1 .176-.94.832.832 0 0 1 .382-.117.668.668 0 0 1 .558.293.69.69 0 0 1-.176.94.587.587 0 0 1-.382.118zm18.711.088a.592.592 0 0 1-.382-.117.793.793 0 0 1-.294-.441.613.613 0 0 1 .118-.5.676.676 0 1 1 1.116.763.6.6 0 0 1-.558.294zm-22.353 3.26a.7.7 0 0 1-.412-.146.562.562 0 0 1-.235-.441.636.636 0 0 1 .147-.5.715.715 0 0 1 .529-.265.7.7 0 0 1 .411.147.726.726 0 0 1 .118.969.8.8 0 0 1-.558.235zm25.966.147a.629.629 0 0 1-.529-.264.772.772 0 0 1-.147-.5.631.631 0 0 1 .265-.441.7.7 0 0 1 .969.118.764.764 0 0 1 .147.5.63.63 0 0 1-.264.44.867.867 0 0 1-.441.147zm-28.346 3.878a.867.867 0 0 1-.264-.059.748.748 0 0 1-.382-.353.81.81 0 0 1 0-.528.665.665 0 0 1 .617-.412.867.867 0 0 1 .264.059.574.574 0 0 1 .353.382.813.813 0 0 1 0 .529.6.6 0 0 1-.588.382zm30.784.44a.733.733 0 0 1-.646-.44.813.813 0 0 1 0-.529.643.643 0 0 1 .382-.353.693.693 0 0 1 .235-.058.7.7 0 0 1 .646.44.672.672 0 0 1-.382.882.7.7 0 0 1-.235.058zm-31.959 4.377H24.5a.684.684 0 0 1-.617-.734.678.678 0 1 1 1.351.117.7.7 0 0 1-.676.617zm33.016.441a.677.677 0 0 1-.675-.647.8.8 0 0 1 .176-.5.725.725 0 0 1 .47-.235.692.692 0 0 1 .088 1.381zm-32.751 4.494a.723.723 0 0 1-.676-.529.638.638 0 0 1 .529-.793.671.671 0 0 1 .793.529.734.734 0 0 1-.088.5.666.666 0 0 1-.441.294zm32.34.44a.223.223 0 0 1-.147-.029.606.606 0 0 1-.412-.297.734.734 0 0 1-.088-.5.68.68 0 0 1 1.322.323.723.723 0 0 1-.676.5zm-30.607 4.2a.706.706 0 0 1-.588-.353.673.673 0 0 1 .265-.91.588.588 0 0 1 .323-.088.7.7 0 0 1 .587.352.66.66 0 0 1 .059.529.76.76 0 0 1-.323.411 1.068 1.068 0 0 1-.323.059zm28.727.382a.79.79 0 0 1-.352-.088.679.679 0 0 1 .352-1.264.782.782 0 0 1 .353.089.674.674 0 0 1 .235.94.645.645 0 0 1-.588.323zm-25.7 3.524a.666.666 0 0 1-.47-.176.692.692 0 0 1-.029-.969.686.686 0 0 1 1 .94.687.687 0 0 1-.5.2zm22.589.324a.632.632 0 0 1-.5-.235.669.669 0 0 1 .059-.97.694.694 0 0 1 .969.059.668.668 0 0 1-.058.969.719.719 0 0 1-.47.177zm-18.537 2.527a.665.665 0 0 1-.646-.441.665.665 0 0 1 .029-.529.685.685 0 0 1 .617-.381.887.887 0 0 1 .294.058.736.736 0 0 1 .352.382.665.665 0 0 1-.029.529.686.686 0 0 1-.617.382zm14.393.2a.687.687 0 0 1-.617-.381.665.665 0 0 1-.029-.529.644.644 0 0 1 .352-.382.876.876 0 0 1 .294-.059.686.686 0 0 1 .617.382.665.665 0 0 1 .029.529.647.647 0 0 1-.352.382.882.882 0 0 1-.294.058zm-9.693 1.327h-.118a.676.676 0 0 1-.558-.793.694.694 0 0 1 1.234-.294.614.614 0 0 1 .117.5.689.689 0 0 1-.675.587zm4.969.09a.719.719 0 0 1-.676-.587.752.752 0 0 1 .118-.5.7.7 0 0 1 .44-.264.685.685 0 0 1 .764.588.632.632 0 0 1-.147.5.692.692 0 0 1-.44.264zm.294-34.367h-.118a.8.8 0 0 1-.676-.911.822.822 0 0 1 .911-.675.951.951 0 0 1 .529.294.848.848 0 0 1 .147.587.8.8 0 0 1-.793.705zm-5.435.059a.818.818 0 0 1-.793-.676.849.849 0 0 1 .147-.587.721.721 0 0 1 .529-.323.8.8 0 0 1 .911.646.849.849 0 0 1-.147.587.718.718 0 0 1-.529.323.174.174 0 0 1-.118.03zm10.663 1.5a.59.59 0 0 1-.323-.088.863.863 0 0 1-.411-.441.894.894 0 0 1 .029-.617.814.814 0 0 1 .7-.47 1.063 1.063 0 0 1 .323.059.821.821 0 0 1 .382 1.058.721.721 0 0 1-.7.5zm-15.862.147a.786.786 0 0 1-.7-.441.75.75 0 0 1-.029-.617.808.808 0 0 1 .411-.47.794.794 0 0 1 .353-.088.786.786 0 0 1 .7.441.75.75 0 0 1 .029.617.808.808 0 0 1-.411.47.794.794 0 0 1-.353.088zm20.386 2.908a.842.842 0 0 1-.529-.206.79.79 0 0 1-.059-1.116.851.851 0 0 1 1.116-.059.79.79 0 0 1 .059 1.116.844.844 0 0 1-.587.265zm-24.851.205a.932.932 0 0 1-.587-.235.669.669 0 0 1-.206-.558.807.807 0 0 1 .235-.558.775.775 0 0 1 .558-.2.932.932 0 0 1 .588.235.788.788 0 0 1-.029 1.116.826.826 0 0 1-.559.205zm28.287 4.025a.814.814 0 0 1-.675-.382.691.691 0 0 1-.088-.588.872.872 0 0 1 .352-.5.954.954 0 0 1 .411-.118.744.744 0 0 1 .676.382.694.694 0 0 1 .088.588.732.732 0 0 1-.352.47.6.6 0 0 1-.412.147zm-31.635.293a.812.812 0 0 1-.382-.088.771.771 0 0 1-.382-.47.9.9 0 0 1 .059-.617.853.853 0 0 1 .7-.411.812.812 0 0 1 .382.088.805.805 0 0 1-.382 1.5zM58.8 60.725a.788.788 0 0 1-.764-.617.812.812 0 0 1 .089-.587.871.871 0 0 1 .5-.353c.059 0 .117-.029.176-.029a.789.789 0 0 1 .179 1.561.363.363 0 0 1-.176.03zm-35.542.029a.374.374 0 0 1-.176-.029.876.876 0 0 1-.5-.353.692.692 0 0 1-.088-.587.811.811 0 0 1 .764-.617.376.376 0 0 1 .176.029.757.757 0 0 1 .588.94.736.736 0 0 1-.764.617zm35.983 5.405h-.059a.717.717 0 0 1-.529-.264.776.776 0 0 1-.2-.559.8.8 0 1 1 .793.823zm-36.394.029a.769.769 0 1 1 .058 0zm35.193 5.317a1.018 1.018 0 0 1-.293-.059.863.863 0 0 1-.441-.411.894.894 0 0 1-.029-.617.8.8 0 0 1 .734-.5 1.024 1.024 0 0 1 .294.059.767.767 0 0 1 .44 1.028.732.732 0 0 1-.7.5zm-33.985 0a.8.8 0 0 1-.734-.5.891.891 0 0 1 0-.617.678.678 0 0 1 .44-.411.857.857 0 0 1 .294-.059.792.792 0 0 1 .294 1.527.581.581 0 0 1-.294.059zm31.283 4.729a.8.8 0 0 1-.5-.176.783.783 0 0 1-.118-1.116.825.825 0 0 1 .617-.294.8.8 0 0 1 .5.176.766.766 0 0 1 .118 1.116.825.825 0 0 1-.617.294zm-28.581 0a.821.821 0 0 1-.616-.294.74.74 0 0 1-.177-.587.749.749 0 0 1 .294-.529.8.8 0 0 1 .5-.176.793.793 0 0 1 .5 1.41.8.8 0 0 1-.5.176zm24.586 3.7a.737.737 0 0 1-.646-.352.705.705 0 0 1-.118-.582.721.721 0 0 1 .324-.5.87.87 0 0 1 .44-.147.735.735 0 0 1 .646.353.835.835 0 0 1-.2 1.116.987.987 0 0 1-.441.117zm-20.591.03a.789.789 0 0 1-.44-.147.719.719 0 0 1-.323-.5.825.825 0 0 1 .117-.587.807.807 0 0 1 .646-.353.8.8 0 0 1 .646 1.234.8.8 0 0 1-.646.353zm15.686 2.349a.82.82 0 0 1-.764-.558.9.9 0 0 1 .059-.616.764.764 0 0 1 .47-.382.634.634 0 0 1 .235-.03.823.823 0 0 1 .764.558.832.832 0 0 1-.529 1 .655.655 0 0 1-.235.029zm-10.78 0a.655.655 0 0 1-.235-.029.767.767 0 0 1-.47-.382.78.78 0 0 1 .7-1.145.655.655 0 0 1 .235.029.8.8 0 0 1 .528 1 .794.794 0 0 1-.763.528zm5.4.823a.793.793 0 1 1 .794-.793.79.79 0 0 1-.794.793zM41 45.039a1.041 1.041 0 0 1-1.028-1.028 1.158 1.158 0 0 1 .293-.734.975.975 0 0 1 .735-.294 1.041 1.041 0 0 1 1.028 1.028 1.162 1.162 0 0 1-.294.735 1.1 1.1 0 0 1-.734.293zm5.963.881a1.05 1.05 0 0 1-.294-.058A1.009 1.009 0 0 1 47 43.894a.536.536 0 0 1 .294.058 1 1 0 0 1 .646 1.264 1.042 1.042 0 0 1-.969.7zm-11.9 0a1.013 1.013 0 0 1-.969-.7.981.981 0 0 1 .059-.764 1 1 0 0 1 .587-.5 1.057 1.057 0 0 1 .294-.058 1.013 1.013 0 0 1 .969.7.979.979 0 0 1-.059.763 1 1 0 0 1-.587.5.488.488 0 0 1-.294.058zm17.3 2.615a1.062 1.062 0 0 1-.587-.176 1.015 1.015 0 0 1-.294-1.41.96.96 0 0 1 .852-.441 1.06 1.06 0 0 1 .587.176 1.015 1.015 0 0 1 .294 1.41 1.114 1.114 0 0 1-.852.441zm-22.706.029a1.114 1.114 0 0 1-.851-.44 1 1 0 0 1 .264-1.41 1.055 1.055 0 0 1 .587-.177 1.071 1.071 0 0 1 .852.441 1 1 0 0 1-.264 1.41 1.369 1.369 0 0 1-.588.176zm27.112 4.054a1 1 0 0 1-1-1.146 1.053 1.053 0 0 1 .382-.675 1.025 1.025 0 0 1 .646-.235 1 1 0 0 1 1 1.145 1.06 1.06 0 0 1-.381.676 1.166 1.166 0 0 1-.647.235zm-31.488.029a1.1 1.1 0 0 1-.617-.206A1.027 1.027 0 0 1 24.5 51a1.078 1.078 0 0 1 .793-.382 1.287 1.287 0 0 1 .646.206 1.027 1.027 0 0 1 .176 1.439 1.141 1.141 0 0 1-.822.382zm-2.85 4.905a.9.9 0 0 1-.381-.088.946.946 0 0 1-.558-.558.932.932 0 0 1 0-.793 1.019 1.019 0 0 1 .939-.646.9.9 0 0 1 .382.088.949.949 0 0 1 .558.558.932.932 0 0 1 0 .793 1.019 1.019 0 0 1-.94.646zm37.305.265a1.017 1.017 0 0 1-.352-1.968.8.8 0 0 1 .381-.059 1.017 1.017 0 0 1 .353 1.968 1.508 1.508 0 0 1-.382.059zM21.03 63.368h-.089a1.032 1.032 0 1 1 1.117-.939 1.047 1.047 0 0 1-1.028.939zm40.036.294a1.047 1.047 0 0 1-1.028-.94.966.966 0 0 1 .235-.734 1.018 1.018 0 1 1 .852 1.674zm-39.655 5.7a1.032 1.032 0 0 1-1-.793 1.009 1.009 0 0 1 .147-.764.943.943 0 0 1 .616-.441.508.508 0 0 1 .206-.029 1.034 1.034 0 0 1 1 .793 1.014 1.014 0 0 1-.147.764 1 1 0 0 1-.646.44c-.03.03-.118.03-.177.03zm39.214.293a.655.655 0 0 1-.235-.029 1.047 1.047 0 0 1-.646-.47 1 1 0 0 1-.117-.764 1.032 1.032 0 0 1 1-.793.634.634 0 0 1 .235.03 1.02 1.02 0 0 1 .764 1.233 1.033 1.033 0 0 1-1 .793zM23.556 75a1.024 1.024 0 0 1-.5-1.909.967.967 0 0 1 .5-.117 1.024 1.024 0 0 1 .5 1.909 1.726 1.726 0 0 1-.5.117zm34.837.235a1 1 0 0 1-.852-1.527 1 1 0 0 1 .881-.5 1.043 1.043 0 0 1 .97.763 1.026 1.026 0 0 1-1 1.263zm-31.166 4.5a.959.959 0 0 1-.705-.294.941.941 0 0 1-.323-.705 1.123 1.123 0 0 1 .265-.736 1.029 1.029 0 0 1 1.439-.059 1.019 1.019 0 0 1 .029 1.439.8.8 0 0 1-.7.353zm27.406.176a1.07 1.07 0 0 1-.764-.323 1 1 0 0 1-.264-.735.939.939 0 0 1 .323-.7.982.982 0 0 1 .676-.264 1.068 1.068 0 0 1 .763.323 1.126 1.126 0 0 1 .265.735 1 1 0 0 1-1 .969zm-22.471 3.226a.817.817 0 0 1-.44-.118 1.028 1.028 0 0 1-.47-1.351 1.008 1.008 0 0 1 .91-.558.832.832 0 0 1 .441.118 1.021 1.021 0 0 1 .47 1.351.979.979 0 0 1-.911.558zm17.478.147a1 1 0 0 1-.911-.588 1.048 1.048 0 0 1-.029-.796.95.95 0 0 1 .528-.587 1.175 1.175 0 0 1 .441-.088 1 1 0 0 1 .91.587 1.053 1.053 0 0 1 .03.793.95.95 0 0 1-.529.588 2.382 2.382 0 0 1-.44.088zm-11.75 1.674h-.147a.98.98 0 0 1-.675-.411 1.031 1.031 0 0 1-.177-.764 1.013 1.013 0 0 1 1.175-.852 1.029 1.029 0 0 1 .852 1.175 1.039 1.039 0 0 1-1.028.852zm5.992.059a1.012 1.012 0 0 1-1-.881.985.985 0 0 1 .851-1.146 1.021 1.021 0 0 1 1.146.852.986.986 0 0 1-.852 1.146.222.222 0 0 1-.147.029zM78.954 58.7l-.352 2.35a6.316 6.316 0 0 0-2.5-.5c-2.32 0-3.348 1.38-3.348 3.524 0 2.174 1.057 3.555 3.348 3.555a6.317 6.317 0 0 0 2.5-.5l.352 2.35a7.809 7.809 0 0 1-3.348.705c-4.024 0-6.169-2.643-6.169-6.11s2.174-6.08 6.169-6.08a7.909 7.909 0 0 1 3.348.7zM86.68 67.1v-1.852c-.676.059-1.5.118-2.145.206-.969.147-1.586.47-1.586 1.322 0 .764.529 1.145 1.381 1.145a3.575 3.575 0 0 0 2.35-.822zm.117 1.586a5.094 5.094 0 0 1-3.671 1.5 3.168 3.168 0 0 1-3.349-3.319c0-2.144 1.527-3.231 4.024-3.407.969-.059 2.056-.089 2.879-.118v-.411a2.046 2.046 0 0 0-2.291-2.321 6.924 6.924 0 0 0-3.173.764l-.646-2.32a8.664 8.664 0 0 1 4.406-1.087c3.084 0 4.994 1.733 4.994 5.052v6.9H86.8v-1.234zM91.85 58.257v-3.025h3.289v3.025h3.5v2.556h-3.5v5.023c0 1.087.324 1.792 1.5 1.792a5.982 5.982 0 0 0 1.792-.265l.235 2.321a8.322 8.322 0 0 1-2.908.5c-2.82 0-3.877-1.85-3.877-4.259v-7.668zM108.5 58.7l-.352 2.35a6.316 6.316 0 0 0-2.5-.5c-2.291 0-3.348 1.38-3.348 3.524 0 2.174 1.057 3.555 3.348 3.555a6.317 6.317 0 0 0 2.5-.5l.352 2.35a7.809 7.809 0 0 1-3.348.705c-4.024 0-6.169-2.643-6.169-6.11s2.174-6.08 6.169-6.08a7.809 7.809 0 0 1 3.348.7zM109.8 69.948V53h3.29v6.667a3.811 3.811 0 0 1 3.29-1.645c3.025 0 4.229 2.762 4.229 5.875v6.081h-3.289v-6.14c0-2.085-.617-3.231-2.115-3.231a2.621 2.621 0 0 0-2.115 1.117v8.2l-3.29.029zM125.952 61.665v5.786a4.289 4.289 0 0 0 1.587.235c2.261 0 3.231-1.527 3.231-3.7 0-1.938-.793-3.407-2.5-3.407a3.019 3.019 0 0 0-2.321 1.087zm-3.289-3.408h3.143v1.5a4.136 4.136 0 0 1 3.554-1.733c2.82 0 4.67 2.38 4.67 5.963 0 4.054-2.7 6.228-6.021 6.228a6.512 6.512 0 0 1-2.057-.294v4.993h-3.289V58.257zM140.786 60.46c-2.027 0-2.732 1.734-2.732 3.643s.735 3.613 2.732 3.613c2.027 0 2.732-1.733 2.732-3.613 0-1.909-.705-3.643-2.732-3.643zm0 9.723a5.716 5.716 0 0 1-6.021-6.08c0-3.378 2.144-6.11 6.021-6.11s6.022 2.7 6.022 6.11a5.716 5.716 0 0 1-6.022 6.08zM148.188 69.948V58.257h3.29v11.691h-3.29zM153.652 69.948V58.257h3.172v1.587a3.806 3.806 0 0 1 3.407-1.822c3.026 0 4.23 2.762 4.23 5.875v6.081h-3.29v-6.14c0-2.085-.616-3.231-2.114-3.231a2.621 2.621 0 0 0-2.115 1.117v8.2l-3.29.029zM165.871 58.257v-3.025h3.29v3.025h3.5v2.556h-3.5v5.023c0 1.087.323 1.792 1.5 1.792a5.987 5.987 0 0 0 1.792-.265l.235 2.321a8.326 8.326 0 0 1-2.908.5c-2.82 0-3.877-1.85-3.877-4.259v-5.112l-.03-2.556zM175.653 58.757h-.793v-.529h2.144v.529h-.793v2.056h-.558v-2.056zM177.415 58.228h.617l.676 1.087.675-1.087H180v2.585h-.558v-1.674l-.734 1.086-.735-1.086v1.674h-.558v-2.585z"/>
    </g>
</svg>
