<svg xmlns="http://www.w3.org/2000/svg" viewBox="-32.34 -31.34 1629.68 256.68">
	<g fill="#231f20">
		<path d="M750.282 2.59h-31.697v191.718H842.63v-31.696h-92.349V2.59"/>
		<path d="M929.963 194.308h140.801v-31.696H929.963v31.696"/>
		<path d="M1070.764 82.6H930.482v31.697h140.282V82.6"/>
		<path d="M929.963 34.286h140.801V2.59H929.963v31.696"/>
		<path d="m324.078 2.59-85.359 191.718h34.696l66.51-149.386 66.513 149.386h34.696L355.775 2.59h-31.697"/>
		<path d="M97.24 31.695c18.071 0 34.457 7.352 46.325 19.22L166 28.48C148.402 10.883 124.092 0 97.24 0 43.536 0 0 43.534 0 97.24c0 53.704 43.536 97.24 97.24 97.24 26.852 0 51.162-10.884 68.76-28.481l-22.435-22.435c-11.868 11.868-28.254 19.22-46.325 19.22-36.14 0-65.543-29.404-65.543-65.544S61.099 31.695 97.24 31.695"/>
		<path d="M560.612 97.183 518.496 2.59h-34.697l60.964 136.926v54.792h31.697v-54.792L637.424 2.59h-34.696l-42.116 94.593"/>
		<path d="M1301.16 143.315 1191.212 2.59h-32.08v191.718h31.696V53.583l109.948 140.725h32.078V2.59h-31.696v140.725"/>
		<path d="M1421.223 2.59v31.696h56.947v160.022h31.706V34.286h56.947V2.59h-145.6"/>
		<path d="M358.666 159.997H280.58v-31.263h64.165l13.92 31.263"/>
	</g>
</svg>
