<svg xmlns="http://www.w3.org/2000/svg" viewBox="-2.11 -1.86 109.59 27.34">
	<defs>
		<linearGradient id="a" x1="0%" x2="66.048%" y1="50%" y2="50%">
			<stop offset="0%" stop-color="#FDA229"/>
			<stop offset="100%" stop-color="#FDA229" stop-opacity=".6"/>
		</linearGradient>
	</defs>
	<g fill="none" fill-rule="evenodd">
		<path d="M105.298 16.593a.59.59 0 0 0-.467-.227h-1.288c-.983 0-1.58-.135-1.58-1.996V7.177h1.663c.244 0 .46-.145.55-.37l.42-1.04a.593.593 0 0 0-.55-.81l-2.083-.001v-2.87a.593.593 0 0 0-.593-.59h-1.043a.593.593 0 0 0-.592.59v2.87h-1.03a.591.591 0 0 0-.55.371l-.418 1.04a.591.591 0 0 0 .55.81h1.448v7.193c0 2.832 1.21 4.151 3.808 4.151h1.043c.273 0 .51-.184.576-.448l.243-.972a.587.587 0 0 0-.107-.508m-7.911.051c-.566-.121-.672-.413-.685-1.057a.574.574 0 0 0 .021-.156v-5.064c0-4.682-4.002-4.682-5.317-4.682-1.128 0-2.232.308-3.289.918v-.305a.593.593 0 0 0-.593-.592h-1.042a.593.593 0 0 0-.593.592v11.654c0 .326.265.591.593.591h1.042a.593.593 0 0 0 .593-.591v-8.73c.932-.873 2.037-1.316 3.29-1.316 1.24 0 2.112.242 2.59.72.507.512.503 1.249.5 1.788l-.001 5.68c0 1.361 1.107 2.427 2.522 2.427.253 0 .478-.16.56-.4l.245-.706a.592.592 0 0 0-.436-.77M78.372 7.905c1.775 0 2.712.637 2.712 1.841 0 1.486-2.054 1.797-3.778 1.797-.985 0-1.916-.106-2.438-.179.051-1.786.455-3.459 3.504-3.459m4.525 5.873-1.076.138a.594.594 0 0 0-.515.585c0 .918-1.13 1.908-2.956 1.908-2.288 0-3.286-.804-3.46-2.842.607.086 1.532.187 2.55.187 4.854 0 5.872-2.179 5.872-4.008 0-1.964-1.297-4.062-4.94-4.062-5.738 0-5.738 4.623-5.738 6.141v1.04c0 3.772 1.976 5.766 5.716 5.766 1.175 0 2.44-.398 3.383-1.067 1.133-.802 1.757-1.938 1.757-3.195a.593.593 0 0 0-.593-.591m-11.865 2.587h-1.287c-.984 0-1.581-.135-1.581-1.997V.835a.593.593 0 0 0-.593-.591H66.53a.593.593 0 0 0-.593.591V14.37c0 2.833 1.21 4.152 3.81 4.152h1.041c.273 0 .51-.184.576-.448l.243-.972a.589.589 0 0 0-.575-.735m-8.36-10.682h-1.043a.592.592 0 0 0-.592.591v7.055c0 1.48-.391 2.992-3.29 2.992-1.925 0-3.288-.202-3.288-2.814V6.275a.593.593 0 0 0-.593-.59h-1.042a.593.593 0 0 0-.593.59v7.233c0 5.035 4.152 5.035 5.516 5.035.609 0 2.04-.084 3.268-.787v.195c0 1.614-1.234 3.35-3.943 3.35-1.17 0-2.27-.377-3.092-1.06a.61.61 0 0 0-.749-.01l-.865.687a.59.59 0 0 0-.078.85c.891 1.018 2.938 1.729 4.975 1.729 2.902 0 6.002-1.457 6.002-5.546V6.275a.593.593 0 0 0-.593-.59M47.197 14.06c0 1.365-1.395 2.394-3.245 2.394-1.088 0-2.912-.219-2.912-1.686 0-1.26.718-1.665 2.956-1.665.248 0 .499.004.754.009.245.003.487.008.721.008.56 0 1.183-.016 1.726-.165v1.105zm-1.764-1.532h-.01.01zm4.749 4.203c-.523-.184-.758-.751-.758-1.234v-5.33c0-4.66-4.085-4.66-5.428-4.66-2.113 0-3.029.407-4.415 1.022l-.107.047a.594.594 0 0 0-.316.338.594.594 0 0 0 .025.46l.465.952a.608.608 0 0 0 .777.28c.13-.059.255-.12.381-.18.749-.358 1.455-.696 3.28-.696 3.155 0 3.155 1.482 3.155 2.04 0 .775-.27 1.145-1.805 1.145-.303 0-.626-.014-.938-.027-.328-.014-.666-.03-.99-.03-2.94 0-4.696 1.487-4.696 3.976 0 1.338.666 2.406 1.926 3.09 1.252.678 2.665.752 3.214.752 2.01 0 3.232-.79 3.84-1.34.6.956 1.644 1.314 1.693 1.33a.597.597 0 0 0 .744-.351l.31-.817a.592.592 0 0 0-.357-.767zM35.196 7.295a6.294 6.294 0 0 0-4.478-1.832h-.355c-1.713 0-3.297.653-4.458 1.835a6.262 6.262 0 0 0-1.858 4.462v.553c0 1.684.66 3.268 1.858 4.462a6.198 6.198 0 0 0 4.458 1.857h.355c1.689 0 3.28-.659 4.478-1.854a6.04 6.04 0 0 0 1.28-1.866.589.589 0 0 0-.376-.8l-1.044-.31a.604.604 0 0 0-.7.31c-.68 1.396-2.109 2.298-3.638 2.298h-.355c-2.216 0-4.087-1.897-4.087-4.141v-.465c0-2.271 1.834-4.119 4.087-4.119h.355c1.6 0 3.1.986 3.737 2.452a.597.597 0 0 0 .702.335l1.043-.288a.592.592 0 0 0 .391-.792 6.294 6.294 0 0 0-1.395-2.097" fill="#292E30"/>
		<path fill="#FDA229" d="m9 15.633 9-4.22v6.365L9 22v-6.367ZM9 8.22 18 4v6.366l-9 4.221V8.22Z" opacity=".6"/>
		<path fill="#FDA229" d="M0 17.778v-6.365l9 4.22V22l-9-4.222Zm0-7.412V4l9 4.22v6.367l-9-4.221Z"/>
		<path d="M9.75 4.787V3c0 .255-1.007.462-2.25.462S5.25 3.255 5.25 3v1.787c0 .256 1.009.463 2.25.463 1.243 0 2.25-.207 2.25-.463m3-1.787C13.99 3 15 2.793 15 2.539V.75c0 .255-1.01.462-2.25.462-1.244 0-2.25-.206-2.25-.462v1.789c0 .254 1.006.461 2.25.461M2.25 3c1.243 0 2.25-.206 2.25-.462V.75c0 .255-1.007.462-2.25.462C1.009 1.212 0 1.005 0 .75v1.788C0 2.795 1.009 3 2.25 3m5.25-.75c1.243 0 2.25-.206 2.25-.461V0c0 .256-1.007.462-2.25.462S5.25.256 5.25 0v1.789c0 .256 1.007.461 2.25.461" fill="url(#a)" transform="translate(1.5 1)"/>
	</g>
</svg>
