<svg xmlns="http://www.w3.org/2000/svg" xml:space="preserve" width="1566.827" height="194.48">
	<path d="M5627.13 1439.18H5389.4V1.29h930.35v237.722h-692.62V1439.18" style="fill:#231f20;fill-opacity:1;fill-rule:nonzero;stroke:none" transform="matrix(.13333 0 0 -.13333 0 194.48)"/>
	<path d="M6974.74 1.29h1056.01v237.722H6974.74V1.289" style="fill:#231f20;fill-opacity:1;fill-rule:nonzero;stroke:none" transform="matrix(.13333 0 0 -.13333 0 194.48)"/>
	<path d="M8030.75 839.098H6978.63V601.375h1052.12v237.723" style="fill:#231f20;fill-opacity:1;fill-rule:nonzero;stroke:none" transform="matrix(.13333 0 0 -.13333 0 194.48)"/>
	<path d="M6974.74 1201.46h1056.01v237.72H6974.74v-237.72" style="fill:#231f20;fill-opacity:1;fill-rule:nonzero;stroke:none" transform="matrix(.13333 0 0 -.13333 0 194.48)"/>
	<path d="M2430.59 1439.18 1790.4 1.29h260.22l498.83 1120.4L3048.29 1.29h260.22l-640.19 1437.89H2430.59" style="fill:#231f20;fill-opacity:1;fill-rule:nonzero;stroke:none" transform="matrix(.13333 0 0 -.13333 0 194.48)"/>
	<path d="M729.305 1220.89c135.531 0 258.425-55.14 347.435-144.15L1245 1245c-131.98 131.98-314.305 213.61-515.695 213.61C326.52 1458.61 0 1132.09 0 729.305 0 326.52 326.52 0 729.305 0 930.695 0 1113.02 81.629 1245 213.609l-168.26 168.262c-89.01-89.012-211.904-144.152-347.435-144.152-271.059 0-491.578 220.531-491.578 491.586s220.519 491.585 491.578 491.585" style="fill:#231f20;fill-opacity:1;fill-rule:nonzero;stroke:none" transform="matrix(.13333 0 0 -.13333 0 194.48)"/>
	<path d="m4204.6 729.727-315.87 709.453H3628.5l457.23-1026.95V1.29h237.73v410.94l457.23 1026.95h-260.22L4204.6 729.727" style="fill:#231f20;fill-opacity:1;fill-rule:nonzero;stroke:none" transform="matrix(.13333 0 0 -.13333 0 194.48)"/>
	<path d="m9758.72 383.738-824.6 1055.442h-240.6V1.29h237.72v1055.44L9755.85 1.29h240.59v1437.89h-237.72V383.738" style="fill:#231f20;fill-opacity:1;fill-rule:nonzero;stroke:none" transform="matrix(.13333 0 0 -.13333 0 194.48)"/>
	<path d="M10659.2 1439.18v-237.72h427.1V1.29h237.8v1200.17h427.1v237.72h-1092" style="fill:#231f20;fill-opacity:1;fill-rule:nonzero;stroke:none" transform="matrix(.13333 0 0 -.13333 0 194.48)"/>
	<path d="M2690 258.621h-585.64v234.477h481.24L2690 258.621" style="fill:#231f20;fill-opacity:1;fill-rule:nonzero;stroke:none" transform="matrix(.13333 0 0 -.13333 0 194.48)"/>
</svg>
