<svg xmlns="http://www.w3.org/2000/svg" viewBox="309 252 1300 574" style="enable-background:new 0 0 1920 1080">
	<path d="M433.5 512.7c14.1 0 25.9 3.6 35.2 10.8 9.4 7.1 15.2 17 17.7 29.6h44.1c-4.2-23.5-14.7-42.1-31.7-55.9-17-13.8-38.4-20.6-64.3-20.6-19.5 0-36.6 4.1-51.6 12.4s-26.6 20.2-35.2 35.7c-8.5 15.5-12.8 33.7-12.8 54.6 0 21.1 4.2 39.4 12.6 55.1 8.5 15.5 20.2 27.4 35.2 35.7 15 8.3 32.1 12.4 51.6 12.4 25.9 0 47.5-6.9 64.4-20.8 17-13.9 27.6-32.6 31.7-56.1h-44.1c-2.5 12.6-8.4 22.6-17.7 29.9-9.4 7.3-21.1 10.9-35.2 10.9-16 0-29.4-5.7-40-17.1-10.7-11.4-16-28.1-16-49.9 0-21.8 5.3-38.4 16-49.7 10.7-11.3 24.1-17 40.1-17zm586.6-23.7c-15.6-8.3-33.1-12.4-52.4-12.4-19.5 0-36.8 4.1-52.3 12.4-15.4 8.3-27.5 20.2-36.4 35.7-8.9 15.6-13.3 33.7-13.3 54.6s4.5 39.2 13.3 54.8c8.9 15.6 20.9 27.6 36.4 35.9 15.4 8.3 32.8 12.4 52.3 12.4 19.4 0 36.9-4.1 52.4-12.4s27.6-20.2 36.4-35.7 13.1-33.8 13.1-55c-.1-20.9-4.5-39.2-13.1-54.6-8.8-15.5-20.9-27.4-36.4-35.7zm-1.4 127.5c-5.5 9.9-12.6 17.3-21.7 22.2-9 4.8-18.8 7.3-29.5 7.3s-20.6-2.5-29.5-7.3c-9-4.8-16.2-12.3-21.7-22.2-5.5-9.9-8.2-22.3-8.2-37.2 0-14.6 2.7-26.9 8.2-36.9 5.5-10 12.6-17.6 21.7-22.4 8.9-4.8 18.8-7.3 29.5-7.3 10.6 0 20.4 2.5 29.5 7.3 8.9 4.8 16.2 12.3 21.7 22.4 5.5 10 8.2 22.4 8.2 36.9 0 14.8-2.7 27.2-8.2 37.2zm356.5-213.1c-5-4.6-11.4-6.9-19.5-6.9s-14.5 2.4-19.3 6.9c-5 4.6-7.3 10.4-7.3 17.5s2.5 12.8 7.3 17.1c4.8 4.3 11.3 6.6 19.3 6.6 7.9 0 14.5-2.2 19.5-6.6 5-4.3 7.4-10 7.4-17.1.1-7.1-2.4-12.9-7.4-17.5zm-40.2 75.8h41.5v200.7H1335z"/>
	<path d="M1214.1 475.4c-5.1 0-10 .4-14.6 1.2C1174 372 1100 277 1014.3 277c-70.3 0-48.9 61.3-149.2 132.1-11.9 8.4-23.4 15.8-34.4 22.5v-21.3h-41.5v45.9c-25.7 15.5-46.5 30.1-60.2 51.4-6.6-7.5-14.4-13.8-23.3-18.7-15-8.3-32.1-12.4-51.5-12.4-19.5 0-36.6 4.1-51.6 12.4s-26.6 20.2-35.2 35.7c-8.6 15.5-12.8 33.7-12.8 54.6 0 21.2 4.2 39.4 12.8 55 8.5 15.5 20.2 27.5 35.2 35.7 14.9 8.3 32.1 12.4 51.6 12.4 19.4 0 36.6-4.1 51.5-12.4 7-3.9 13.2-8.5 18.7-13.9 32.5 86.4 121.2 146 235.5 146 142.3 0 248.8-115.6 249.2-249.1 0-13.9-1-28.1-3-42.2 12.3 1.4 22.3 6.1 30 14.3 9.3 9.9 13.9 23.9 13.9 41.9v112.9h41.6V562.6c0-28-7.1-49.6-21.2-64.7-14.1-15.1-33-22.5-56.3-22.5zm-600.7 49.3c10.9-9.9 24.5-15 40.8-15s29.9 5 40.8 15c9 8.2 14.6 19.6 16.9 34.2H596.6c2.2-14.6 7.8-26 16.8-34.2zm96.1 85.3c-2.8 9.8-7.4 17.7-13.9 23.7-10.7 9.9-25.8 15-41.5 15s-30.9-5-41.5-15c-10.7-9.9-16.4-25.3-17.1-45.9H711c.2 7.5.8 14.9 1.8 22.2h-3.3zm419.4 108.9c-44.5 45.6-104.6 70.8-169 70.8-66.7 0-127.3-21.6-170.7-60.6-25.9-23.3-44.7-51.9-55.5-83.5 2.6-3.5 5-7.2 7.1-11.1 4.1-7.4 7.2-15.6 9.3-24.4h-24.9c-1-7.3-1.7-14.7-2-22.2h30.1c.2-2.8.2-5.6.2-8.4 0-20.8-4.2-39.2-12.8-54.6-1.2-2.2-2.5-4.4-3.9-6.5 11.3-19.7 29.1-33.3 52.2-47.6V680h41.5V446c13.1-7.9 27.1-16.6 41.6-26.9 48.8-34.5 70.3-67.2 85.9-91 17.3-26.8 25.3-38.9 56.1-38.9 33 0 66.3 15.9 96.3 46 35.8 35.9 63.4 88.9 76.9 144.2-21.7 7-36.5 21.9-44.2 36.5v-36.3h-41.6v200.2h41.6v-107c0-20.4 5-35.9 15-46.6 9-9.6 20.8-14.8 35.3-15.7 2.1 14.2 3.2 28.4 3.1 42.4.1 62.4-24.1 121.3-67.6 166zm381.8-156.4c-32.6-9.3-50.6-14.9-50.6-31.6 0-16.1 19-24.7 35.6-24.7 21.7 0 43.1 10.2 43.1 31.5h40.5c0-35.7-32.3-62.5-82.1-62.7-39.8 0-78.8 19.7-78.8 56.3 0 36.7 29.9 44.5 73.6 57.7 34.8 10.5 52.4 14.1 52.4 35.2 0 18.1-23.7 24.5-45.4 24.5-21.1 0-47.1-11.8-48.1-34.1h-42.5c0 42 42 67.2 91.7 67.2 41 0 84-18.7 84-56.1.1-40.3-30.8-51-73.4-63.2z"/>
</svg>
