<svg xmlns="http://www.w3.org/2000/svg" width="200" height="128">
	<path d="M28.18 81.528a22.155 22.155 0 1 1 27.9.113 20.125 20.125 0 0 1-2.033-1.8 2.377 2.377 0 0 1-.207-2.845 15.778 15.778 0 0 1 1.514-2.155 16.713 16.713 0 0 0-14.841-27.023c-6.556.741-11.289 4.174-13.812 10.248-2.511 6.045-1.533 11.757 2.468 16.941.119.155.245.3.369.457 2.126 2.607 1.692 4.543-1.358 6.064z" fill="#ff4e4e"/>
	<path d="M134.5 76.345v9.3h-5.274V51.848h5.235v3.23c.99-.728 1.815-1.34 2.645-1.944a6.818 6.818 0 0 1 4.388-1.393c2.117.081 4.249.008 6.349.237a4.858 4.858 0 0 1 4.452 4.075 30.031 30.031 0 0 1 .687 6.205c-.011 4.006-.073 8.031-.474 12.011-.35 3.475-2.423 5.143-5.929 5.309-1.954.093-3.917.055-5.875.02a7.028 7.028 0 0 1-3.938-1.575c-.713-.504-1.403-1.033-2.266-1.678zm0-10.717c0 2.284-.018 4.568.02 6.852a1.2 1.2 0 0 0 .452.918 9.09 9.09 0 0 0 2.892 1.128 62.431 62.431 0 0 0 7.015.254c1.767-.027 2.508-.682 2.549-2.436q.153-6.642 0-13.29c-.042-1.8-.824-2.413-2.614-2.505-1.432-.073-2.872 0-4.306-.05a11.209 11.209 0 0 0-5.371 1.243.972.972 0 0 0-.655 1.033c.031 2.284.018 4.569.018 6.853z" fill="#34424b"/>
	<path d="M31.314 83.8a6.733 6.733 0 0 0 3.166-4.13 6.426 6.426 0 0 0-1.9-6.173A13.145 13.145 0 0 1 42.749 51.29c5.528.355 9.567 3.054 11.655 8.173s1.109 9.854-2.587 13.995C49.1 76.5 49.006 80.1 51.6 82.653c.369.363.8.663 1.3 1.076a15.7 15.7 0 0 1-4.745 1.914c-.237.056-.622-.3-.869-.544-3-2.9-3.561-6.386-2.409-10.262a12.067 12.067 0 0 1 2.776-4.785 8.048 8.048 0 0 0 2.378-5.819 7.812 7.812 0 0 0-5.573-7.265 7.917 7.917 0 0 0-8.852 3.2 7.594 7.594 0 0 0 .492 9.115 15.475 15.475 0 0 1 3.368 5.451c1.139 3.785.672 7.217-2.151 10.169a1.6 1.6 0 0 1-2.051.523c-1.225-.562-2.495-1.026-3.95-1.626z" fill="#ff4e4e"/>
	<path d="M107.232 67.445c.165 2.118.287 4.1.49 6.066a1.4 1.4 0 0 0 1.463 1.325c3.068.035 6.136.05 9.2.018a1.474 1.474 0 0 0 1.539-1.47c.077-.774.132-1.55.2-2.375h5.144c-.041 2.144.013 4.293-1.124 6.232a4.555 4.555 0 0 1-4.092 2.277c-3.915.051-7.841.165-11.746-.051-3.59-.2-5.273-1.784-5.783-5.36a59.77 59.77 0 0 1 .005-16.885c.494-3.473 2.186-5.129 5.618-5.313a104.539 104.539 0 0 1 11.54.082 4.9 4.9 0 0 1 4.97 4.557 78.337 78.337 0 0 1 .618 8.767c.086 2.346.323 2.127-2.137 2.129q-7.444.007-14.89 0zm12.883-4.329c-.151-1.784-.271-3.467-.445-5.145a1.45 1.45 0 0 0-1.492-1.414q-4.5-.063-9.006-.011a1.387 1.387 0 0 0-1.469 1.2c-.2 1.765-.3 3.542-.445 5.365zm42.123 16.428h-5.311V42.363c1.694.675 3.272 1.263 4.8 1.951a1.307 1.307 0 0 1 .485 1.008c.038 2.841.022 5.682.022 8.522v1.207c1.06-.773 1.939-1.435 2.841-2.064a6.428 6.428 0 0 1 3.944-1.239c2.183.065 4.389-.061 6.544.213a4.7 4.7 0 0 1 4.22 4.465 22.706 22.706 0 0 1 .2 2.925q.029 9.7.011 19.4c0 .253-.03.506-.048.8h-5.284V60.112c-.038-2.834-.783-3.586-3.631-3.6-2.635-.013-5.287-.22-7.773 1.041a1.527 1.527 0 0 0-1.046 1.591c.042 6.4.023 12.8.023 19.2zM93.031 69.472h5.2a19.535 19.535 0 0 1-.643 6.794 4.355 4.355 0 0 1-3.791 3.127 45.339 45.339 0 0 1-4.592.2c-2.221.025-4.445.05-6.664-.025-4.166-.14-6.309-1.936-6.613-6.071-.318-4.321-.251-8.672-.272-13.011a18.163 18.163 0 0 1 .428-3.687c.61-2.995 2.189-4.672 5.206-4.828 4.131-.215 8.284-.121 12.424 0a4.108 4.108 0 0 1 3.767 3.109c.727 2.069.622 4.229.7 6.433h-5.159c-.082-1-.155-2.029-.252-3.055-.138-1.45-.45-1.825-1.858-1.85q-3.918-.069-7.838.02c-1.349.03-1.834.408-1.9 1.738-.169 3.487-.236 6.98-.275 10.471a31.79 31.79 0 0 0 .256 4.1c.168 1.4.59 1.776 1.96 1.8q3.967.062 7.937.013c1.385-.017 1.749-.415 1.883-1.835.055-.585.076-1.173.092-1.761.016-.546.004-1.092.004-1.682z" fill="#34424b"/>
	<path d="M46.525 64.684a4.342 4.342 0 1 1-4.3-4.413 4.358 4.358 0 0 1 4.3 4.413z" fill="#ff4e4e"/>
</svg>
