<svg id="Layer_1" data-name="Layer 1" xmlns="http://www.w3.org/2000/svg" viewBox="0 0 576 180">
	<defs>
		<style>
			.cls-1{fill:#172d73}.cls-4{fill:#f488a5}.cls-5{fill:#4bcaf8}
		</style>
	</defs>
	<path class="cls-1" d="M151.81 127.141c-.464-1.178-1.451-1.396-2.667-1.023-2.45.751-4.948 1.354-7.382 2.152a1.72 1.72 0 0 1-1.553.001 9.542 9.542 0 0 0-6.713-5.214 2.612 2.612 0 0 1-.639-1.62 80.025 80.025 0 0 0-3.897-15.489 2.58 2.58 0 0 1-.162-1.902 9.523 9.523 0 0 0 4.083-6.874 4.095 4.095 0 0 1 2.62-1.229c4.965-.978 9.844-2.32 14.687-3.788 1.231-.373 2.08-1.141 1.687-2.518-.398-1.391-1.504-1.558-2.758-1.185-.613.182-1.227.36-1.838.546-4.505 1.366-9.08 2.455-13.671 3.48a1.766 1.766 0 0 1-1.503-.13 9.457 9.457 0 0 0-9.773-5.597 1.706 1.706 0 0 1-.708-1.05 105.98 105.98 0 0 1-3.188-14.804 2.308 2.308 0 0 1 .36-1.882 9.533 9.533 0 0 0 6.385-8.15l25.053-6.443c1.264-.388 2.003-1.187 1.628-2.552-.373-1.357-1.5-1.333-2.618-1.164a6.154 6.154 0 0 0-.819.25 219.3 219.3 0 0 1-22.449 5.328 2.506 2.506 0 0 1-1.539-.043 9.564 9.564 0 0 0-5.8-5.273c-.06-.02-.124-.034-.185-.053.073-.487.65-4.304.852-5.614a66.869 66.869 0 0 1 4.531-17.14c.532-1.212.521-2.248-.784-2.882-1.354-.659-2.145.095-2.7 1.25-.185.386-.354.779-.522 1.172-2.963 6.918-4.125 14.16-5.596 21.603a2.244 2.244 0 0 1-.638 1.44 9.534 9.534 0 0 0-7.28 7.773 1.533 1.533 0 0 1-1.405.68c-4.632.29-9.26.652-13.89.989l-2.145.017a2.91 2.91 0 0 1-2.926-.798 9.55 9.55 0 0 0-6.54-6.423 1.95 1.95 0 0 1-.33-1.672c.362-2.248.625-4.513 1.041-6.75a71.794 71.794 0 0 1 5.027-16.497c.577-1.278.357-2.243-.904-2.834-1.257-.59-2.022.134-2.565 1.186-.228.442-.41.907-.605 1.366A75.269 75.269 0 0 0 75.369 51.1a2.957 2.957 0 0 1-.596 1.749 9.549 9.549 0 0 0-6.987 6.339c-1.56.87-3.62.394-5.547.361-.356-.006-.713-.047-1.069-.078a1.87 1.87 0 1 0-.275 3.72c1.85.139 3.698.336 5.55.45a1.7 1.7 0 0 1 1.05.341 9.535 9.535 0 0 0 8.09 7.585 1.689 1.689 0 0 1 .51 1.143 83.48 83.48 0 0 0 3.361 14.75 1.634 1.634 0 0 1-.777 2.245 10.845 10.845 0 0 0-4.736 6.623c-.293 1.283-.853 1.553-2.048 1.498a259.173 259.173 0 0 1-14.524-1.048 1.984 1.984 0 0 1-1.695-.819 9.517 9.517 0 0 0-10.451-8.668c-.6-.279-.858-.828-1.093-1.652a108.479 108.479 0 0 1-3.153-14.59c-.233-1.654-.503-3.226.258-4.352a9.246 9.246 0 0 0 5.25-4.298 27.337 27.337 0 0 1 5.756-.162c1.147.043 1.983-.348 2.195-1.5.239-1.303-.552-2.02-1.732-2.265a19.9 19.9 0 0 0-3.394-.455c-.861-.027-1.399-.242-1.697-.838a9.117 9.117 0 0 0-.814-3.094 8.66 8.66 0 0 0-4.858-4.897 1.512 1.512 0 0 1-1.028-1.959 82.516 82.516 0 0 1 2.116-9.798A75.65 75.65 0 0 1 46.47 27.8a1.765 1.765 0 0 0-.847-2.516 1.74 1.74 0 0 0-2.525.825 15.353 15.353 0 0 0-.997 2.124 80.867 80.867 0 0 0-5.055 18.704c-.166 1.056-.437 1.556-1.538 1.84a7.721 7.721 0 0 0-5.021 3.73c-.804 1.489-1.721 1.323-2.966.913-2.775-.912-5.559-1.804-8.364-2.617-1.111-.322-2.377-.5-2.84 1.01-.453 1.477.36 2.253 1.713 2.663 3.135.949 6.244 1.986 9.4 2.853a1.694 1.694 0 0 1 1.5 1.635 8.916 8.916 0 0 0 5.001 6.973 9.14 9.14 0 0 0 1.887.807 2.654 2.654 0 0 1 1.11 2.335 77.88 77.88 0 0 0 3.238 16.518 5.995 5.995 0 0 1 .405 3.504 9.56 9.56 0 0 0-3.184 4.068 2.027 2.027 0 0 1-1.449.051 169.701 169.701 0 0 1-16.459-4.595c-1.32-.446-2.625-.71-3.156.96-.515 1.618.6 2.226 1.963 2.693a163.123 163.123 0 0 0 16.451 4.616c.708.163 1.5.126 1.988.816a9.533 9.533 0 0 0 9.472 8.573c.258 0 .512-.019.765-.04a1.324 1.324 0 0 1 .877.965 81.345 81.345 0 0 1 4.15 17.844 2.016 2.016 0 0 1-.262 1.566 9.549 9.549 0 0 0-6.49 5.418c-1.362.756-3.06.192-4.744-.138-1.047-.206-2.08-.49-3.125-.703a137.927 137.927 0 0 1-18.32-5.035c-1.185-.418-2.177-.275-2.676.92-.535 1.284.072 2.199 1.305 2.716.393.165.813.268 1.218.405a159.991 159.991 0 0 0 23.811 5.99 2.72 2.72 0 0 1 1.804.881 9.533 9.533 0 0 0 6.2 7.736c.617.73.576 1.642.289 2.866a110.856 110.856 0 0 1-3.237 12.376c-.403 1.119-.428 2.344 1.015 2.843 1.533.53 2.218-.454 2.688-1.694.126-.332.274-.657.374-.997a89.684 89.684 0 0 0 3.153-13.5 2.451 2.451 0 0 1 .528-1.457 9.537 9.537 0 0 0 7.282-5.912 1.874 1.874 0 0 1 1.636-.467 165.784 165.784 0 0 0 17.766.698 1.808 1.808 0 0 1 1.3.385 9.544 9.544 0 0 0 6.077 6.666 1.505 1.505 0 0 1 .124 1.262 101.461 101.461 0 0 1-3.045 11.768c-.462 1.3-.821 2.598.836 3.214 1.603.597 2.276-.454 2.752-1.824a76.84 76.84 0 0 0 3.136-12.171 2.837 2.837 0 0 1 .847-1.834 9.48 9.48 0 0 0 4.564-2.059 6.183 6.183 0 0 0 .852-.81 9.497 9.497 0 0 0 2.38-4.498c.03-.131.043-.267.067-.4l5.376-1.115a1.76 1.76 0 0 0 1.515-2.007 1.625 1.625 0 0 0-1.837-1.654c-1.284.032-2.57.207-3.841.26-1.058.045-1.212.112-1.592-.222a9.546 9.546 0 0 0-6.483-6.06 1.425 1.425 0 0 1-.459-1.043 76.255 76.255 0 0 0-2.702-15.526c-.233-.786.093-1.141.702-1.548a12.022 12.022 0 0 0 5.351-7.922 1.359 1.359 0 0 1 1.489-1.333q6.616-.507 13.21-1.272a2.477 2.477 0 0 1 1.957.38 9.467 9.467 0 0 0 9.67 5.466 2.105 2.105 0 0 1 .84 1.228 104.86 104.86 0 0 1 3.883 15.292 1.186 1.186 0 0 1-.206 1.075 9.539 9.539 0 0 0-6.799 8.187c-1.04 1.243-2.714 1.438-4.531 1.634-.64.07-1.284.115-1.916.228-1.27.229-2.154.845-1.933 2.3.21 1.388 1.243 1.645 2.403 1.504a80.837 80.837 0 0 0 5.285-.797 2.196 2.196 0 0 1 1.55.103 9.558 9.558 0 0 0 5.836 5.077 2.815 2.815 0 0 1 .235 2.353 93.773 93.773 0 0 1-3.972 16.575 1.75 1.75 0 0 0 1.073 2.435 1.805 1.805 0 0 0 2.558-1.177c.112-.261.232-.52.32-.79a87.062 87.062 0 0 0 3.87-17.259 2.808 2.808 0 0 1 .804-1.965 9.526 9.526 0 0 0 7.384-8.765 2.109 2.109 0 0 1 1.443-.917 197.92 197.92 0 0 0 7.815-2.207 1.864 1.864 0 0 0 1.418-2.639Zm-49.598 11.144c.015-.215.036-.428.036-.646a5.42 5.42 0 0 1-.036.646Zm-18.669-3.11s-3.185.38-4.263.438c-4.843.264-9.686-.282-14.532-.472a1.663 1.663 0 0 1-1.373-.51 9.531 9.531 0 0 0-7.06-7.975 2.02 2.02 0 0 1-.536-1.374 73.704 73.704 0 0 0-4.106-18.689 2.624 2.624 0 0 1-.144-1.95 9.583 9.583 0 0 0 3.13-3.54c1.2-.722 2.746-.576 4.444-.373 4.241.507 8.526.667 12.798.885 1.068.055 1.625.294 1.938 1.426 1.664 6.014 6.51 9.62 12.645 9.282 1.507-.084 1.895.375 2.215 1.695a89.163 89.163 0 0 1 2.199 13.015c.057.631.022 1.032-.267 1.327a9.54 9.54 0 0 0-7.088 6.815Zm30.38-39.645a1.239 1.239 0 0 1-1.003.461c-4.328.4-8.652.858-12.973 1.331-1.2.132-1.787-.092-2.25-1.455a12.163 12.163 0 0 0-12.49-8.411 1.96 1.96 0 0 1-2.335-1.702 126.259 126.259 0 0 1-2.94-12.875 2.009 2.009 0 0 1 .33-1.87 9.549 9.549 0 0 0 5.737-6.335 1.63 1.63 0 0 1 1.574-.724 167.76 167.76 0 0 0 17.115-.935 1.82 1.82 0 0 1 2.204.598 9.541 9.541 0 0 0 7.21 5.782 1.834 1.834 0 0 1 .53 1.303 77.822 77.822 0 0 0 3.366 16.034 2.169 2.169 0 0 1 .034 1.625 9.516 9.516 0 0 0-4.11 7.173Z"/>
	<path d="M85.86 91.277a8.57 8.57 0 0 0-8.619 8.701 8.465 8.465 0 0 0 8.548 8.505 8.356 8.356 0 0 0 8.676-8.542 8.474 8.474 0 0 0-8.604-8.664Z" style="fill:#fefefe"/>
	<path d="M123.425 90.796a5.27 5.27 0 0 0-5.423 5.372 5.407 5.407 0 1 0 10.814.033 5.286 5.286 0 0 0-5.39-5.405Zm1.92 5.66a1.738 1.738 0 0 1-2.028 1.681 1.76 1.76 0 0 1-1.825-2.1c.075-1.242 1.004-1.731 1.935-2.188 1.198.582 2.069 1.253 1.918 2.608Z" style="fill:#4ccaf8"/>
	<path class="cls-4" d="M54.026 130.383a5.547 5.547 0 0 0-5.505 5.418 5.484 5.484 0 0 0 5.38 5.513 5.466 5.466 0 0 0 .125-10.931Zm-.023 7.555c-1.417.032-2.011-.796-2.025-2.196a1.836 1.836 0 0 1 2.066-2.046 2.123 2.123 0 0 1-.04 4.242Z"/>
	<path class="cls-5" d="M46.132 91.36a5.447 5.447 0 0 0-5.327 5.556 5.575 5.575 0 0 0 5.502 5.429 5.512 5.512 0 0 0 5.302-5.604 5.406 5.406 0 0 0-5.477-5.38Zm.019 7.62c-1.312-.015-1.854-.84-1.908-2.041.01-1.365.584-2.22 2.012-2.193 1.3.024 1.88.806 1.894 2.062.014 1.35-.58 2.187-1.998 2.171Z"/>
	<path class="cls-4" d="M43.643 57.654a5.46 5.46 0 1 0-5.433 5.44 5.42 5.42 0 0 0 5.433-5.44Zm-5.458 1.992c-1.25-.066-2.027-.599-2.048-1.89-.023-1.412.82-1.99 2.134-2 1.243.033 2.152.546 2.071 1.855a1.895 1.895 0 0 1-2.157 2.035Z"/>
	<path d="M82.434 62.288a5.492 5.492 0 1 0-10.98.023 5.492 5.492 0 0 0 10.98-.023Zm-7.624-.123a2.016 2.016 0 0 1 2.034-2.048 1.924 1.924 0 0 1 2.134 2.113c.002 1.239-.787 1.9-2.077 2.115-1.16-.222-2.104-.887-2.091-2.18Z" style="fill:#4bcbf9"/>
	<path d="M115.53 65.471a5.469 5.469 0 0 0 .183-10.936 5.47 5.47 0 0 0-.182 10.936Zm-2.094-5.68a2.17 2.17 0 0 1 2.495-1.846c1.326.142 1.772 1.028 1.685 2.33-.247 1.106-.888 2.032-2.152 1.803-1.123-.204-2.32-.848-2.028-2.287Z" style="fill:#f589a5"/>
	<path d="M131.66 126.91a5.484 5.484 0 1 0 5.42 5.473 5.499 5.499 0 0 0-5.42-5.474Zm-.043 7.593c-1.45.037-1.996-.872-1.982-2.367a1.76 1.76 0 0 1 1.974-1.861 2.117 2.117 0 1 1 .008 4.228Z" style="fill:#f489a5"/>
	<path class="cls-5" d="M87.233 137.637a5.68 5.68 0 0 0 5.51 5.462 5.593 5.593 0 0 0 5.48-5.465 5.4 5.4 0 0 0-5.481-5.36 5.476 5.476 0 0 0-5.509 5.363Zm5.575-2.059a1.92 1.92 0 0 1 2.033 2.04c-.086 1.24-.69 2.188-1.872 2.073-1.595-.055-2.34-.674-2.344-1.979a2.016 2.016 0 0 1 2.183-2.134Z"/>
	<path d="M123.427 93.85c-.93.456-1.86.945-1.935 2.188a1.76 1.76 0 0 0 1.825 2.1 1.738 1.738 0 0 0 2.028-1.681c.15-1.355-.72-2.026-1.918-2.608Z" style="fill:#10a5f5"/>
	<path d="M54.044 133.696a1.836 1.836 0 0 0-2.065 2.046c.013 1.4.607 2.228 2.025 2.196a2.123 2.123 0 0 0 .04-4.242Z" style="fill:#ef5e7f"/>
	<path d="M46.255 94.746c-1.428-.027-2.001.828-2.012 2.193.054 1.2.596 2.026 1.908 2.04 1.418.016 2.012-.822 1.998-2.171-.013-1.256-.595-2.038-1.894-2.062Z" style="fill:#13a5f6"/>
	<path d="M38.27 55.755c-1.313.012-2.156.59-2.133 2 .021 1.292.798 1.825 2.048 1.89a1.895 1.895 0 0 0 2.157-2.034c.08-1.309-.828-1.822-2.071-1.856Z" style="fill:#ef5e80"/>
	<path d="M78.978 62.23a1.924 1.924 0 0 0-2.134-2.113 2.016 2.016 0 0 0-2.034 2.048c-.013 1.293.93 1.958 2.09 2.18 1.291-.216 2.08-.876 2.078-2.115Z" style="fill:#12a5f5"/>
	<path d="M115.464 62.078c1.264.229 1.905-.697 2.152-1.802.087-1.303-.359-2.189-1.685-2.33a2.17 2.17 0 0 0-2.495 1.845c-.291 1.439.905 2.083 2.028 2.287Z" style="fill:#f05f7f"/>
	<path d="M131.61 130.275a1.76 1.76 0 0 0-1.975 1.861c-.014 1.495.531 2.404 1.982 2.367a2.117 2.117 0 1 0-.008-4.228Z" style="fill:#ef5f80"/>
	<path d="M92.97 139.691c1.182.115 1.784-.833 1.871-2.072a1.92 1.92 0 0 0-2.033-2.04 2.016 2.016 0 0 0-2.183 2.133c.004 1.305.749 1.924 2.344 1.979Z" style="fill:#13a6f6"/>
	<path class="cls-1" d="M188.804 69.378a18.603 18.603 0 0 1 14.062-5.787q11.422 0 16.703 7.758a17.173 17.173 0 0 1 3.131 8.745h-9.558a13.48 13.48 0 0 0-2.342-5.088q-2.554-3.053-7.57-3.053a9.267 9.267 0 0 0-8.057 4.309q-2.949 4.309-2.949 12.194 0 7.887 3.112 11.813a9.665 9.665 0 0 0 7.908 3.928 8.87 8.87 0 0 0 7.499-3.372 14.97 14.97 0 0 0 2.367-5.437h9.498a21.29 21.29 0 0 1-6.28 12.465 18.02 18.02 0 0 1-12.94 4.802q-9.764 0-15.352-6.488-5.588-6.517-5.588-17.87 0-12.273 6.356-18.92Z"/>
	<path class="cls-1" d="M253.987 76.883a9.977 9.977 0 0 1 4.188 3.405 9.197 9.197 0 0 1 1.699 3.995 50.617 50.617 0 0 1 .309 6.699v20.369h-9.031V90.245a9.543 9.543 0 0 0-.924-4.52q-1.202-2.42-4.56-2.42a6.194 6.194 0 0 0-5.284 2.404q-1.802 2.404-1.801 6.86v18.782h-8.845V64.64h8.845v16.535a10.92 10.92 0 0 1 4.434-4.213 12.235 12.235 0 0 1 5.3-1.193 14.021 14.021 0 0 1 5.67 1.114Z"/>
	<path class="cls-1" d="M282.359 90.269a13.716 13.716 0 0 0 3.532-.795 2.72 2.72 0 0 0 1.908-2.576 3.065 3.065 0 0 0-1.463-2.941 9.055 9.055 0 0 0-4.294-.81q-3.178 0-4.499 1.59a6.647 6.647 0 0 0-1.259 3.179h-8.534a13.466 13.466 0 0 1 2.493-7.472q3.523-4.58 12.095-4.58a21.137 21.137 0 0 1 9.91 2.258q4.334 2.258 4.334 8.522v15.9q0 1.652.061 4.005a5.137 5.137 0 0 0 .529 2.417 3.18 3.18 0 0 0 1.302 1.049v1.336h-9.62a10.253 10.253 0 0 1-.558-1.972q-.156-.921-.248-2.098a18.379 18.379 0 0 1-4.247 3.465 12.593 12.593 0 0 1-6.493 1.686 11.035 11.035 0 0 1-7.632-2.688q-3.012-2.686-3.012-7.615 0-6.39 4.846-9.253a21.255 21.255 0 0 1 7.816-2.226Zm5.408 4.23a9.7 9.7 0 0 1-1.715.873 14.19 14.19 0 0 1-2.375.62l-2.013.382a13.002 13.002 0 0 0-4.066 1.24 4.16 4.16 0 0 0-2.09 3.847 4.071 4.071 0 0 0 1.277 3.356 4.777 4.777 0 0 0 3.104 1.033 9.093 9.093 0 0 0 5.342-1.717q2.442-1.718 2.536-6.265Z"/>
	<path class="cls-1" d="M333.031 107.11q-4.283 5.418-13.004 5.417-8.722 0-13.004-5.416a20.38 20.38 0 0 1-4.283-13.042 20.516 20.516 0 0 1 4.283-12.994q4.283-5.496 13.004-5.497 8.72 0 13.004 5.497a20.52 20.52 0 0 1 4.282 12.994 20.385 20.385 0 0 1-4.282 13.042Zm-7.076-5.008q2.078-2.826 2.079-8.033 0-5.208-2.08-8.017a7.74 7.74 0 0 0-11.933 0q-2.094 2.81-2.094 8.017t2.094 8.033a7.712 7.712 0 0 0 11.934 0Z"/>
	<path class="cls-1" d="M350.974 100.421a6.125 6.125 0 0 0 1.216 3.434q1.654 1.813 6.112 1.812a9.158 9.158 0 0 0 4.164-.795 2.548 2.548 0 0 0 1.544-2.385 2.586 2.586 0 0 0-1.245-2.32q-1.243-.795-9.253-2.735-5.765-1.462-8.124-3.657a8.027 8.027 0 0 1-2.359-6.232 10.915 10.915 0 0 1 3.686-8.252q3.685-3.45 10.373-3.45a18.703 18.703 0 0 1 10.34 2.592q3.997 2.592 4.588 8.95h-8.845a5.432 5.432 0 0 0-.964-2.766q-1.464-1.843-4.98-1.844a7.04 7.04 0 0 0-4.124.922 2.667 2.667 0 0 0-1.228 2.163 2.373 2.373 0 0 0 1.306 2.257q1.307.732 9.236 2.512a16.779 16.779 0 0 1 7.924 3.848 8.847 8.847 0 0 1 2.606 6.518 10.633 10.633 0 0 1-3.747 8.41q-3.749 3.26-11.584 3.26-7.992 0-11.8-3.45a11.337 11.337 0 0 1-3.81-8.792Z"/>
	<path class="cls-1" d="M429.386 64.481h14.095v46.87h-9.128V79.648q0-1.366.032-3.831.032-2.463.031-3.8l-8.883 39.334h-9.52l-8.82-39.334q0 1.336.033 3.8.031 2.464.032 3.831v31.703h-9.128V64.48h14.253l8.533 36.853Z"/>
	<path class="cls-1" d="M474.878 77.393a13.488 13.488 0 0 1 5.618 5.128 17.708 17.708 0 0 1 2.59 7.165 47.246 47.246 0 0 1 .281 6.879h-23.68q.199 5.215 3.4 7.313a8.229 8.229 0 0 0 4.688 1.304 6.901 6.901 0 0 0 4.72-1.59 7.563 7.563 0 0 0 1.75-2.385h8.678a11.573 11.573 0 0 1-3.151 6.264q-4.369 5.057-12.232 5.056a17.048 17.048 0 0 1-11.45-4.264q-4.963-4.264-4.962-13.876 0-9.007 4.479-13.812a15.165 15.165 0 0 1 11.626-4.806 17.527 17.527 0 0 1 7.645 1.624Zm-12.716 7.829a9.709 9.709 0 0 0-2.265 5.365h14.645a7.79 7.79 0 0 0-2.265-5.477 7.171 7.171 0 0 0-5.042-1.868 6.509 6.509 0 0 0-5.073 1.98Z"/>
	<path class="cls-1" d="M497.027 100.48a6.125 6.125 0 0 0 1.216 3.433q1.654 1.813 6.112 1.812a9.158 9.158 0 0 0 4.163-.795 2.548 2.548 0 0 0 1.544-2.384 2.586 2.586 0 0 0-1.244-2.322q-1.244-.794-9.253-2.734-5.766-1.462-8.124-3.657a8.027 8.027 0 0 1-2.36-6.232 10.915 10.915 0 0 1 3.686-8.252q3.686-3.45 10.373-3.45a18.703 18.703 0 0 1 10.341 2.592q3.996 2.592 4.588 8.95h-8.846a5.432 5.432 0 0 0-.964-2.766q-1.463-1.843-4.98-1.844a7.04 7.04 0 0 0-4.123.922 2.667 2.667 0 0 0-1.229 2.163 2.373 2.373 0 0 0 1.307 2.257q1.307.732 9.235 2.512a16.779 16.779 0 0 1 7.924 3.848A8.847 8.847 0 0 1 519 101.05a10.633 10.633 0 0 1-3.747 8.41q-3.749 3.26-11.584 3.26-7.993 0-11.801-3.45a11.337 11.337 0 0 1-3.81-8.792Z"/>
	<path class="cls-1" d="M550.077 76.883a9.972 9.972 0 0 1 4.187 3.405 9.197 9.197 0 0 1 1.699 3.995 50.595 50.595 0 0 1 .31 6.699v20.369h-9.032V90.245a9.538 9.538 0 0 0-.924-4.52q-1.2-2.42-4.56-2.42a6.193 6.193 0 0 0-5.282 2.404q-1.804 2.404-1.802 6.86v18.782h-8.846V64.64h8.846v16.535a10.914 10.914 0 0 1 4.433-4.213 12.235 12.235 0 0 1 5.3-1.193 14.026 14.026 0 0 1 5.671 1.114Z"/>
</svg>
