<svg id="Calque_1" data-name="Calque 1" xmlns="http://www.w3.org/2000/svg" viewBox="0 0 800 800">
	<defs>
		<style>
			.cls-1{fill:#363f45}.cls-2{fill:#feb41c}
		</style>
	</defs>
	<path class="cls-1" d="M302.8 415.3q-9 0-14.08-6.15t-5-18.13q0-12 5-18.39t14.08-6.43a16.61 16.61 0 0 1 16.32 10.34l-4.63 2.79a13.11 13.11 0 0 0-4.35-5.88 11.79 11.79 0 0 0-7.34-2.21 12.42 12.42 0 0 0-5.48 1.16 11.17 11.17 0 0 0-4.08 3.31 15.51 15.51 0 0 0-2.55 5.11 23.3 23.3 0 0 0-.88 6.66v7.09q0 7.38 3.4 11.54t9.59 4.16a12.11 12.11 0 0 0 7.61-2.35 13.52 13.52 0 0 0 4.49-6.22l4.56 2.86a18.26 18.26 0 0 1-6.46 7.88 17.71 17.71 0 0 1-10.2 2.86Z"/>
	<path class="cls-1" d="M327.75 364.16h5.44V385h.28a11.49 11.49 0 0 1 3.63-4.71 10.27 10.27 0 0 1 6.29-1.75 11 11 0 0 1 8.61 3.5q3.15 3.51 3.16 9.9v22.5h-5.44v-21.6q0-9.47-8-9.47a12.28 12.28 0 0 0-3.16.41 9.15 9.15 0 0 0-2.75 1.22 6 6 0 0 0-1.94 2.08 5.89 5.89 0 0 0-.72 3v24.39h-5.44Z"/>
	<path class="cls-1" d="M391.88 414.48c-2 0-3.51-.54-4.39-1.63a8.08 8.08 0 0 1-1.66-4.08h-.34a9.16 9.16 0 0 1-3.81 4.9 11.83 11.83 0 0 1-6.33 1.63c-3.72 0-6.6-.95-8.67-2.86a10 10 0 0 1-3.09-7.75 8.82 8.82 0 0 1 3.64-7.61q3.63-2.65 11.32-2.66h6.94V391a7.6 7.6 0 0 0-2.05-5.72q-2-2-6.25-2a9.45 9.45 0 0 0-5.34 1.43 11.68 11.68 0 0 0-3.57 3.81l-3.28-3.07a12.31 12.31 0 0 1 4.55-4.86 14.35 14.35 0 0 1 7.89-2q6.39 0 9.93 3.12t3.53 8.69v19.27h4v4.82Zm-15.64-3.8a13.77 13.77 0 0 0 3.74-.48 9.26 9.26 0 0 0 2.92-1.36 6.65 6.65 0 0 0 1.9-2 4.82 4.82 0 0 0 .69-2.52v-5.82h-7.21c-3.13 0-5.41.46-6.84 1.36a4.4 4.4 0 0 0-2.14 3.95v1.43a4.74 4.74 0 0 0 1.87 4 8.18 8.18 0 0 0 5.07 1.44Z"/>
	<path class="cls-1" d="M416 415.3a15.82 15.82 0 0 1-6.46-1.29 13.89 13.89 0 0 1-5-3.71 17.44 17.44 0 0 1-3.23-5.78 25.25 25.25 0 0 1 0-15.13 17.49 17.49 0 0 1 3.23-5.81 13.89 13.89 0 0 1 5-3.71 15.82 15.82 0 0 1 6.46-1.29 15.53 15.53 0 0 1 6.42 1.29 14.25 14.25 0 0 1 5 3.71 17.05 17.05 0 0 1 3.27 5.81 25.46 25.46 0 0 1 0 15.13 17 17 0 0 1-3.27 5.78 14.25 14.25 0 0 1-5 3.71 15.53 15.53 0 0 1-6.42 1.29Zm0-4.83a9.86 9.86 0 0 0 7.21-2.72c1.85-1.81 2.78-4.58 2.78-8.29v-5c0-3.71-.93-6.48-2.78-8.29a10.92 10.92 0 0 0-14.42 0c-1.86 1.81-2.79 4.58-2.79 8.29v5c0 3.71.93 6.48 2.79 8.29a9.86 9.86 0 0 0 7.21 2.72Z"/>
	<path class="cls-1" d="M451.31 415.3a16.39 16.39 0 0 1-8.2-1.87 18.62 18.62 0 0 1-5.67-5l3.87-3.13a15.15 15.15 0 0 0 4.56 4 11.86 11.86 0 0 0 5.85 1.4 8.63 8.63 0 0 0 5.4-1.5 5.43 5.43 0 0 0 .61-7.72q-1.32-1.45-4.79-2l-2.79-.41a23.27 23.27 0 0 1-4.49-1.06 12.4 12.4 0 0 1-3.57-1.9 8.19 8.19 0 0 1-2.38-3 9.73 9.73 0 0 1-.85-4.21 10.11 10.11 0 0 1 1-4.53 9.14 9.14 0 0 1 2.61-3.23 11.45 11.45 0 0 1 4-1.93 18.43 18.43 0 0 1 5-.65 15.47 15.47 0 0 1 7.17 1.5 16 16 0 0 1 5.07 4.14l-3.71 3.29a10.69 10.69 0 0 0-3.4-3 11 11 0 0 0-5.6-1.29 7.78 7.78 0 0 0-5.14 1.47 4.93 4.93 0 0 0-1.73 4 4.17 4.17 0 0 0 1.73 3.74 13 13 0 0 0 5 1.7l2.72.41q5.85.88 8.3 3.37a8.85 8.85 0 0 1 2.45 6.49 10 10 0 0 1-3.47 8q-3.49 2.92-9.55 2.92Z"/>
	<path class="cls-2" d="M486 372.05v42.43h-5.71v-42.43h-15.1v-5h35.9v5Z"/>
	<path class="cls-2" d="M517.2 415.3a15.82 15.82 0 0 1-6.46-1.29 14 14 0 0 1-5-3.71 17.44 17.44 0 0 1-3.23-5.78 25.46 25.46 0 0 1 0-15.13 17.49 17.49 0 0 1 3.23-5.81 14 14 0 0 1 5-3.71 15.82 15.82 0 0 1 6.46-1.29 15.61 15.61 0 0 1 6.43 1.29 14.43 14.43 0 0 1 5 3.71 17.2 17.2 0 0 1 3.26 5.81 25.25 25.25 0 0 1 0 15.13 17.15 17.15 0 0 1-3.26 5.78 14.43 14.43 0 0 1-5 3.71 15.61 15.61 0 0 1-6.43 1.29Zm0-4.83a9.86 9.86 0 0 0 7.21-2.72c1.86-1.81 2.79-4.58 2.79-8.29v-5c0-3.71-.93-6.48-2.79-8.29a10.92 10.92 0 0 0-14.42 0c-1.86 1.81-2.78 4.58-2.78 8.29v5c0 3.71.92 6.48 2.78 8.29a9.86 9.86 0 0 0 7.21 2.72Z"/>
	<path class="cls-2" d="M555.28 415.3a15.82 15.82 0 0 1-6.46-1.29 14 14 0 0 1-5-3.71 17.44 17.44 0 0 1-3.23-5.78 25.46 25.46 0 0 1 0-15.13 17.49 17.49 0 0 1 3.23-5.81 14 14 0 0 1 5-3.71 15.82 15.82 0 0 1 6.46-1.29 15.61 15.61 0 0 1 6.43 1.29 14.43 14.43 0 0 1 5 3.71 17.2 17.2 0 0 1 3.26 5.81 25.46 25.46 0 0 1 0 15.13 17.15 17.15 0 0 1-3.26 5.78 14.43 14.43 0 0 1-5 3.71 15.61 15.61 0 0 1-6.43 1.29Zm0-4.83a9.86 9.86 0 0 0 7.21-2.72c1.86-1.81 2.79-4.58 2.79-8.29v-5c0-3.71-.93-6.48-2.79-8.29a10.92 10.92 0 0 0-14.42 0c-1.86 1.81-2.78 4.58-2.78 8.29v5c0 3.71.92 6.48 2.78 8.29a9.86 9.86 0 0 0 7.21 2.72Z"/>
	<path class="cls-2" d="M585.88 414.48a5.6 5.6 0 0 1-4.32-1.59 5.8 5.8 0 0 1-1.46-4.05v-44.68h5.44v45.5h5.17v4.82Z"/>
	<path class="cls-2" d="M598.6 364.16h5.4v31.9h.27l5.37-6 9.93-10.67h6.59l-13 13.87 14.28 21.21h-6.6l-11.57-17.87L604 402v12.51h-5.4Z"/>
	<path class="cls-2" d="M637.15 371.17a3.31 3.31 0 0 1-2.55-.85 3.14 3.14 0 0 1-.78-2.21v-.89a3.16 3.16 0 0 1 .78-2.21 4.25 4.25 0 0 1 5.1 0 3.16 3.16 0 0 1 .78 2.21v.89a3.14 3.14 0 0 1-.78 2.21 3.31 3.31 0 0 1-2.55.85Zm-2.72 8.23h5.44v35.08h-5.44Z"/>
	<path class="cls-2" d="M659.18 414.48a5.56 5.56 0 0 1-4.31-1.59 5.9 5.9 0 0 1-1.47-4.17v-24.5h-5.78v-4.82h3.27a3.17 3.17 0 0 0 2.41-.72 3.69 3.69 0 0 0 .65-2.48v-6.53h4.89v9.73h7.69v4.82h-7.69v25.44H666v4.82Z"/>
	<path class="cls-2" d="M243.92 351.13a77.77 77.77 0 0 1 18.52 75.55L187.75 405Z"/>
	<path d="M206.65 340a67.5 67.5 0 0 1 29.95 18.14L187.75 405l-16.11-65.7a67.45 67.45 0 0 1 35.01.7Z" style="fill:#5e7c88"/>
	<path d="M174.06 349.11 187.75 405l-55.2-16.06a57.47 57.47 0 0 1 41.51-39.83Z" style="fill:#4b5f6d"/>
	<path class="cls-1" d="M142.29 391.73 187.75 405l-34.18 32.76a47.33 47.33 0 0 1-11.28-46.03Z"/>
	<path d="m187.75 405 8.86 36.14a37.27 37.27 0 0 1-35.72-10.39Z" style="fill:#24221f"/>
</svg>
