<svg id="svg2" xmlns="http://www.w3.org/2000/svg" viewBox="0 0 642.946 708.048">
	<defs>
		<clipPath id="clip-path">
			<path class="cls-1" d="M511.134 81.314c-5.459-23.648-22.198-22.55-40.136-17.409a40.067 40.067 0 0 0-11.777 5.545c-20.748-35.131-60.606-56.756-136.712-56.756-76.173 0-116.74 22.936-138.272 59.565a39.291 39.291 0 0 0-15.345-8.354c-17.938-5.14-34.678-6.24-40.137 17.409s6.886 30.884 24.823 36.025a39.965 39.965 0 0 0 13.574 1.498c-8.915 42.566-6.662 94.042-6.662 146.948 0 130.91-21.798 231.958 162.019 231.958S480.77 389.91 480.77 258.998c0-51.027 2.67-99.695-4.482-140.092a40.557 40.557 0 0 0 10.023-1.567c17.938-5.141 30.281-12.377 24.823-36.025Z"/>
		</clipPath>
		<clipPath id="clip-path-2">
			<path class="cls-1" d="M352.657 229.383c0 12.132-14.518 9.056-32.427 9.056s-32.427 3.076-32.427-9.056 14.518-21.967 32.427-21.967 32.427 9.835 32.427 21.967Z"/>
		</clipPath>
		<clipPath id="clip-path-3">
			<ellipse class="cls-1" cx="320.23" cy="213.647" rx="16.591" ry="9.454"/>
		</clipPath>
		<clipPath id="clip-path-4">
			<path class="cls-1" d="m320.507 335.825-.614 216.769L140.15 448.82l.615-216.77 179.742 103.775z"/>
		</clipPath>
		<clipPath id="clip-path-5">
			<path class="cls-1" d="m499.082 232.049-.615 216.769-178.574 103.776.614-216.451 178.575-104.094z"/>
		</clipPath>
		<style>
			.cls-1{fill:none}.cls-2{fill:#6d2f89}.cls-9{fill:#6195ce}.cls-10{fill:#6194ce}.cls-11{fill:#6193ce}.cls-12{fill:#6192ce}.cls-13{fill:#6191ce}.cls-14{fill:#6190ce}.cls-15{fill:#618fce}.cls-16{fill:#618ece}.cls-17{fill:#618dce}.cls-18{fill:#618cce}.cls-19{fill:#618bce}.cls-20{fill:#618ace}.cls-21{fill:#6189ce}.cls-22{fill:#6188ce}.cls-23{fill:#6187ce}.cls-24{fill:#6186ce}.cls-25{fill:#6185ce}.cls-26{fill:#6184ce}.cls-27{fill:#6183ce}.cls-28{fill:#6182ce}.cls-29{fill:#6181ce}.cls-30{fill:#6180ce}.cls-31{fill:#617fce}.cls-32{fill:#617ece}.cls-33{fill:#617dce}.cls-34{fill:#617cce}.cls-35{fill:#617bce}.cls-36{fill:#617ace}.cls-37{fill:#6179ce}.cls-39{fill:#6177ce}.cls-40{fill:#6176ce}.cls-41{fill:#6175ce}.cls-42{fill:#6174ce}.cls-43{fill:#6173ce}.cls-44{fill:#6172ce}.cls-45{fill:#6171ce}.cls-46{fill:#6170ce}.cls-47{fill:#616fce}.cls-48{fill:#616ece}.cls-49{fill:#616cce}.cls-50{fill:#616bce}.cls-51{fill:#616ace}.cls-52{fill:#6169ce}.cls-53{fill:#6168ce}.cls-54{fill:#6167ce}.cls-55{fill:#6166ce}.cls-56{fill:#6165ce}.cls-57{fill:#6164ce}.cls-58{fill:#6163ce}.cls-59{fill:#6162ce}.cls-60{fill:#6161ce}.cls-61{fill:#6160ce}.cls-62{fill:#615fce}.cls-63{fill:#615ece}.cls-64{fill:#615dce}.cls-65{fill:#615cce}.cls-66{fill:#615bce}.cls-87{fill:#6146ce}.cls-88{fill:#fff}.cls-90{fill:#616dce}.cls-93{fill:#1c005e}.cls-189{fill:#7300bf}.cls-190{fill:#f3e6fc}.cls-192{fill:#ffbc5a}.cls-379{fill:#f2e4fd}
		</style>
	</defs>
	<path class="cls-2" d="m319.578 103.249-205.72 115.959.08 248.746 206.257 119.084 204.917-119.085.706-248.747Zm150.711 148.227"/>
	<path style="fill:#898989" d="m494.382 232.051-.614 216.769L318.74 347.768l.615-216.769 175.027 101.052z"/>
	<path style="fill:#c5c5c5" d="m319.355 130.999-.615 216.769-173.89 101.054.615-216.769 173.89-101.054z"/>
	<path style="fill:#2b4359" d="m320.492 333.104-.614 216.77L144.85 448.822l.615-216.77 175.027 101.052z"/>
	<path style="fill:#b78544" d="m494.382 232.05-173.89 101.054-175.027-101.052 173.89-101.054L494.382 232.05z"/>
	<path style="fill:#3e607f" d="m494.382 232.05-.615 216.77-173.889 101.054.614-216.77 173.89-101.054z"/>
	<g style="clip-path:url(#clip-path)">
		<path class="cls-9" d="M123.297 12.694h393.295v3.57H123.297z"/>
		<path class="cls-9" d="M123.297 16.264h393.295v3.443H123.297z"/>
		<path class="cls-10" d="M123.297 19.706h393.295v3.443H123.297z"/>
		<path class="cls-11" d="M123.297 23.149h393.295v3.443H123.297z"/>
		<path class="cls-12" d="M123.297 26.592h393.295v3.443H123.297z"/>
		<path class="cls-13" d="M123.297 30.034h393.295v3.443H123.297z"/>
		<path class="cls-14" d="M123.297 33.477h393.295v3.443H123.297z"/>
		<path class="cls-15" d="M123.297 36.92h393.295v3.443H123.297z"/>
		<path class="cls-16" d="M123.297 40.362h393.295v3.443H123.297z"/>
		<path class="cls-17" d="M123.297 43.805h393.295v3.443H123.297z"/>
		<path class="cls-18" d="M123.297 47.248h393.295v3.443H123.297z"/>
		<path class="cls-19" d="M123.297 50.691h393.295v3.443H123.297z"/>
		<path class="cls-20" d="M123.297 54.133h393.295v3.443H123.297z"/>
		<path class="cls-21" d="M123.297 57.576h393.295v3.443H123.297z"/>
		<path class="cls-22" d="M123.297 61.019h393.295v3.443H123.297z"/>
		<path class="cls-23" d="M123.297 64.461h393.295v3.443H123.297z"/>
		<path class="cls-24" d="M123.297 67.904h393.295v3.443H123.297z"/>
		<path class="cls-25" d="M123.297 71.347h393.295v3.443H123.297z"/>
		<path class="cls-26" d="M123.297 74.789h393.295v3.443H123.297z"/>
		<path class="cls-27" d="M123.297 78.232h393.295v3.443H123.297z"/>
		<path class="cls-28" d="M123.297 81.675h393.295v3.443H123.297z"/>
		<path class="cls-29" d="M123.297 85.117h393.295v3.443H123.297z"/>
		<path class="cls-30" d="M123.297 88.56h393.295v3.443H123.297z"/>
		<path class="cls-31" d="M123.297 92.003h393.295v3.443H123.297z"/>
		<path class="cls-32" d="M123.297 95.445h393.295v3.443H123.297z"/>
		<path class="cls-33" d="M123.297 98.888h393.295v3.443H123.297z"/>
		<path class="cls-34" d="M123.297 102.331h393.295v3.443H123.297z"/>
		<path class="cls-35" d="M123.297 105.774h393.295v3.443H123.297z"/>
		<path class="cls-36" d="M123.297 109.216h393.295v3.443H123.297z"/>
		<path class="cls-37" d="M123.297 112.659h393.295v3.443H123.297z"/>
		<path style="fill:#6178ce" d="M123.297 116.102h393.295v3.443H123.297z"/>
		<path class="cls-39" d="M123.297 119.544h393.295v3.443H123.297z"/>
		<path class="cls-40" d="M123.297 122.987h393.295v3.443H123.297z"/>
		<path class="cls-41" d="M123.297 126.43h393.295v3.443H123.297z"/>
		<path class="cls-42" d="M123.297 129.872h393.295v3.443H123.297z"/>
		<path class="cls-43" d="M123.297 133.315h393.295v3.443H123.297z"/>
		<path class="cls-44" d="M123.297 136.758h393.295v3.443H123.297z"/>
		<path class="cls-45" d="M123.297 140.2h393.295v3.443H123.297z"/>
		<path class="cls-46" d="M123.297 143.643h393.295v3.443H123.297z"/>
		<path class="cls-47" d="M123.297 147.086h393.295v3.443H123.297z"/>
		<path class="cls-48" d="M123.297 150.529h393.295v3.443H123.297z"/>
		<path class="cls-49" d="M123.297 153.971h393.295v3.443H123.297z"/>
		<path class="cls-50" d="M123.297 157.414h393.295v3.443H123.297z"/>
		<path class="cls-51" d="M123.297 160.857h393.295v3.443H123.297z"/>
		<path class="cls-52" d="M123.297 164.299h393.295v3.443H123.297z"/>
		<path class="cls-53" d="M123.297 167.742h393.295v3.443H123.297z"/>
		<path class="cls-54" d="M123.297 171.185h393.295v3.443H123.297z"/>
		<path class="cls-55" d="M123.297 174.627h393.295v3.443H123.297z"/>
		<path class="cls-56" d="M123.297 178.07h393.295v3.443H123.297z"/>
		<path class="cls-57" d="M123.297 181.513h393.295v3.443H123.297z"/>
		<path class="cls-58" d="M123.297 184.955h393.295v3.443H123.297z"/>
		<path class="cls-59" d="M123.297 188.398h393.295v3.443H123.297z"/>
		<path class="cls-60" d="M123.297 191.841h393.295v3.443H123.297z"/>
		<path class="cls-61" d="M123.297 195.284h393.295v3.443H123.297z"/>
		<path class="cls-62" d="M123.297 198.726h393.295v3.443H123.297z"/>
		<path class="cls-63" d="M123.297 202.169h393.295v3.443H123.297z"/>
		<path class="cls-64" d="M123.297 205.612h393.295v3.443H123.297z"/>
		<path class="cls-65" d="M123.297 209.054h393.295v3.443H123.297z"/>
		<path class="cls-66" d="M123.297 212.497h393.295v3.443H123.297z"/>
		<path style="fill:#615ace" d="M123.297 215.94h393.295v3.443H123.297z"/>
		<path style="fill:#6159ce" d="M123.297 219.382h393.295v3.443H123.297z"/>
		<path style="fill:#6158ce" d="M123.297 222.825h393.295v3.443H123.297z"/>
		<path style="fill:#6157ce" d="M123.297 226.268h393.295v3.443H123.297z"/>
		<path style="fill:#6156ce" d="M123.297 229.71h393.295v3.443H123.297z"/>
		<path style="fill:#6155ce" d="M123.297 233.153h393.295v3.443H123.297z"/>
		<path style="fill:#6154ce" d="M123.297 236.596h393.295v3.443H123.297z"/>
		<path style="fill:#6153ce" d="M123.297 240.039h393.295v3.443H123.297z"/>
		<path style="fill:#6152ce" d="M123.297 243.481h393.295v3.443H123.297z"/>
		<path style="fill:#6151ce" d="M123.297 246.924h393.295v3.443H123.297z"/>
		<path style="fill:#6150ce" d="M123.297 250.367h393.295v3.443H123.297z"/>
		<path style="fill:#614fce" d="M123.297 253.809h393.295v3.443H123.297z"/>
		<path style="fill:#614ece" d="M123.297 257.252h393.295v3.443H123.297z"/>
		<path style="fill:#614dce" d="M123.297 260.695h393.295v3.443H123.297z"/>
		<path style="fill:#614cce" d="M123.297 264.137h393.295v3.443H123.297z"/>
		<path style="fill:#614bce" d="M123.297 267.58h393.295v3.443H123.297z"/>
		<path style="fill:#614ace" d="M123.297 271.023h393.295v3.443H123.297z"/>
		<path style="fill:#6149ce" d="M123.297 274.465h393.295v3.443H123.297z"/>
		<path style="fill:#6148ce" d="M123.297 277.908h393.295v3.443H123.297z"/>
		<path style="fill:#6147ce" d="M123.297 281.351h393.295v3.443H123.297z"/>
		<path class="cls-87" d="M123.297 284.794h393.295v3.443H123.297z"/>
		<path class="cls-87" d="M123.297 288.236h393.295v209.507H123.297z"/>
	</g>
	<path class="cls-88" d="M322.509 500.098c-33.314 0-60.303-3.228-82.51-9.87-21.002-6.28-37.266-15.49-49.72-28.155-34.631-35.218-33.672-92.373-32.56-158.553.204-12.217.417-24.85.417-37.735 0-8.95-.066-17.975-.13-26.701-.307-42.587-.6-82.875 6.25-117.814a42.557 42.557 0 0 1-11.326-1.667c-16.078-4.608-32.708-11.788-26.468-38.819 2.159-9.355 6.094-15.604 12.032-19.102 8.993-5.298 20.741-2.994 31.046-.04a42.285 42.285 0 0 1 14.094 7.061c11.574-18.682 27.388-32.471 48.262-42.1 23.722-10.944 53.362-16.264 90.613-16.264 37.254 0 66.717 5.04 90.07 15.407 20.695 9.186 36.224 22.419 47.399 40.408a42.62 42.62 0 0 1 10.371-4.512c10.306-2.954 22.054-5.258 31.046.04 5.938 3.498 9.874 9.747 12.033 19.102 6.24 27.03-10.391 34.21-26.469 38.818a43.288 43.288 0 0 1-7.907 1.494c5.17 31.243 4.758 67.143 4.323 105.09-.123 10.692-.25 21.748-.25 32.812 0 14.619.32 28.994.63 42.897 1.488 66.808 2.774 124.505-32.283 160.35-24.909 25.471-67.094 37.853-128.963 37.853ZM170.09 116.288l-.634 3.032c-7.354 35.11-7.056 76.213-6.741 119.73.063 8.735.129 17.767.129 26.735 0 12.924-.213 25.578-.418 37.814-1.094 65.121-2.038 121.362 31.21 155.173 11.883 12.084 27.49 20.898 47.712 26.945 21.762 6.508 48.31 9.672 81.16 9.672 60.536 0 101.62-11.918 125.597-36.436 33.67-34.429 32.405-91.208 30.94-156.953-.309-13.929-.63-28.331-.63-43.002 0-11.091.127-22.16.25-32.865.445-38.779.865-75.407-4.696-106.817l-.476-2.687 2.728-.077a38.21 38.21 0 0 0 9.44-1.476c18.765-5.379 28.017-12.267 23.178-33.233-1.854-8.029-5.07-13.297-9.835-16.104-7.458-4.394-18.016-2.248-27.36.43a37.635 37.635 0 0 0-11.084 5.216l-2.08 1.44-1.287-2.178c-22.403-37.932-65.2-55.599-134.685-55.599-36.555 0-65.55 5.178-88.64 15.83-20.843 9.616-36.414 23.542-47.602 42.574l-1.455 2.475-2.142-1.91a37.095 37.095 0 0 0-14.427-7.848c-9.344-2.678-19.902-4.823-27.358-.43-4.765 2.807-7.982 8.075-9.835 16.104-4.84 20.966 4.412 27.854 23.177 33.233A37.49 37.49 0 0 0 167 116.488Z"/>
	<ellipse class="cls-88" cx="259.502" cy="151.583" rx="51.641" ry="48.12" transform="rotate(-79.08 259.502 151.583)"/>
	<ellipse class="cls-88" cx="380.388" cy="151.583" rx="48.12" ry="51.641" transform="rotate(-10.92 380.388 151.583)"/>
	<rect class="cls-88" x="301.33" y="231.746" width="37.8" height="20.541" rx="8.751"/>
	<g style="clip-path:url(#clip-path-2)">
		<path class="cls-9" d="M287.803 207.416h1.118v34.099h-1.118z"/>
		<path class="cls-10" d="M288.921 207.416h1.118v34.099h-1.118z"/>
		<path class="cls-11" d="M290.039 207.416h1.118v34.099h-1.118z"/>
		<path class="cls-12" d="M291.157 207.416h1.118v34.099h-1.118z"/>
		<path class="cls-13" d="M292.275 207.416h1.118v34.099h-1.118z"/>
		<path class="cls-14" d="M293.394 207.416h1.118v34.099h-1.118z"/>
		<path class="cls-15" d="M294.512 207.416h1.118v34.099h-1.118z"/>
		<path class="cls-16" d="M295.63 207.416h1.118v34.099h-1.118z"/>
		<path class="cls-17" d="M296.748 207.416h1.118v34.099h-1.118z"/>
		<path class="cls-18" d="M297.866 207.416h1.118v34.099h-1.118z"/>
		<path class="cls-19" d="M298.984 207.416h1.118v34.099h-1.118z"/>
		<path class="cls-20" d="M300.103 207.416h1.118v34.099h-1.118z"/>
		<path class="cls-21" d="M301.221 207.416h1.118v34.099h-1.118z"/>
		<path class="cls-22" d="M302.339 207.416h1.118v34.099h-1.118z"/>
		<path class="cls-23" d="M303.457 207.416h1.118v34.099h-1.118z"/>
		<path class="cls-24" d="M304.575 207.416h1.118v34.099h-1.118z"/>
		<path class="cls-25" d="M305.693 207.416h1.118v34.099h-1.118z"/>
		<path class="cls-26" d="M306.812 207.416h1.118v34.099h-1.118z"/>
		<path class="cls-27" d="M307.93 207.416h1.118v34.099h-1.118z"/>
		<path class="cls-28" d="M309.048 207.416h1.118v34.099h-1.118z"/>
		<path class="cls-29" d="M310.166 207.416h1.118v34.099h-1.118z"/>
		<path class="cls-30" d="M311.284 207.416h1.118v34.099h-1.118z"/>
		<path class="cls-31" d="M312.403 207.416h1.118v34.099h-1.118z"/>
		<path class="cls-32" d="M313.521 207.416h1.118v34.099h-1.118z"/>
		<path class="cls-33" d="M314.639 207.416h1.118v34.099h-1.118z"/>
		<path class="cls-34" d="M315.757 207.416h1.118v34.099h-1.118z"/>
		<path class="cls-35" d="M316.875 207.416h1.118v34.099h-1.118z"/>
		<path class="cls-36" d="M317.993 207.416h1.118v34.099h-1.118z"/>
		<path class="cls-37" d="M319.112 207.416h1.118v34.099h-1.118z"/>
		<path class="cls-39" d="M320.23 207.416h1.118v34.099h-1.118z"/>
		<path class="cls-40" d="M321.348 207.416h1.118v34.099h-1.118z"/>
		<path class="cls-41" d="M322.466 207.416h1.118v34.099h-1.118z"/>
		<path class="cls-42" d="M323.584 207.416h1.118v34.099h-1.118z"/>
		<path class="cls-43" d="M324.703 207.416h1.118v34.099h-1.118z"/>
		<path class="cls-44" d="M325.821 207.416h1.118v34.099h-1.118z"/>
		<path class="cls-45" d="M326.939 207.416h1.118v34.099h-1.118z"/>
		<path class="cls-46" d="M328.057 207.416h1.118v34.099h-1.118z"/>
		<path class="cls-47" d="M329.175 207.416h1.118v34.099h-1.118z"/>
		<path class="cls-48" d="M330.293 207.416h1.118v34.099h-1.118z"/>
		<path class="cls-90" d="M331.412 207.416h1.118v34.099h-1.118z"/>
		<path class="cls-49" d="M332.53 207.416h1.118v34.099h-1.118z"/>
		<path class="cls-50" d="M333.648 207.416h1.118v34.099h-1.118z"/>
		<path class="cls-51" d="M334.766 207.416h1.118v34.099h-1.118z"/>
		<path class="cls-52" d="M335.884 207.416h1.118v34.099h-1.118z"/>
		<path class="cls-53" d="M337.003 207.416h1.118v34.099h-1.118z"/>
		<path class="cls-54" d="M338.121 207.416h1.118v34.099h-1.118z"/>
		<path class="cls-55" d="M339.239 207.416h1.118v34.099h-1.118z"/>
		<path class="cls-56" d="M340.357 207.416h1.118v34.099h-1.118z"/>
		<path class="cls-57" d="M341.475 207.416h1.118v34.099h-1.118z"/>
		<path class="cls-58" d="M342.593 207.416h1.118v34.099h-1.118z"/>
		<path class="cls-59" d="M343.712 207.416h1.118v34.099h-1.118z"/>
		<path class="cls-60" d="M344.83 207.416h1.118v34.099h-1.118z"/>
		<path class="cls-61" d="M345.948 207.416h1.118v34.099h-1.118z"/>
		<path class="cls-62" d="M347.066 207.416h1.118v34.099h-1.118z"/>
		<path class="cls-63" d="M348.184 207.416h1.118v34.099h-1.118z"/>
		<path class="cls-64" d="M349.303 207.416h1.118v34.099h-1.118z"/>
		<path class="cls-65" d="M350.421 207.416h1.118v34.099h-1.118z"/>
		<path class="cls-66" d="M351.539 207.416h1.118v34.099h-1.118z"/>
	</g>
	<path class="cls-88" d="M336.738 241.142c-2.318 0-4.803-.078-7.43-.16-2.919-.093-5.937-.188-9.078-.188s-6.159.095-9.078.187c-10.265.324-18.375.58-22.736-3.645a10.605 10.605 0 0 1-2.968-7.953c0-13.411 15.603-24.322 34.782-24.322s34.781 10.91 34.781 24.322a10.605 10.605 0 0 1-2.967 7.953c-3.245 3.143-8.566 3.806-15.306 3.806ZM320.23 209.77c-16.582 0-30.073 8.798-30.073 19.613a6.05 6.05 0 0 0 1.536 4.57c2.928 2.838 10.52 2.598 19.31 2.321 2.956-.093 6.012-.19 9.227-.19s6.271.097 9.226.19c8.787.277 16.382.517 19.31-2.32a6.05 6.05 0 0 0 1.536-4.571c0-10.815-13.49-19.613-30.072-19.613Z"/>
	<g style="clip-path:url(#clip-path-3)">
		<path class="cls-9" d="M303.638 204.193h.572v18.909h-.572z"/>
		<path class="cls-10" d="M304.21 204.193h.572v18.909h-.572z"/>
		<path class="cls-11" d="M304.783 204.193h.572v18.909h-.572z"/>
		<path class="cls-12" d="M305.355 204.193h.572v18.909h-.572z"/>
		<path class="cls-13" d="M305.927 204.193h.572v18.909h-.572z"/>
		<path class="cls-14" d="M306.499 204.193h.572v18.909h-.572z"/>
		<path class="cls-15" d="M307.071 204.193h.572v18.909h-.572z"/>
		<path class="cls-16" d="M307.643 204.193h.572v18.909h-.572z"/>
		<path class="cls-17" d="M308.215 204.193h.572v18.909h-.572z"/>
		<path class="cls-18" d="M308.787 204.193h.572v18.909h-.572z"/>
		<path class="cls-19" d="M309.36 204.193h.572v18.909h-.572z"/>
		<path class="cls-20" d="M309.932 204.193h.572v18.909h-.572z"/>
		<path class="cls-21" d="M310.504 204.193h.572v18.909h-.572z"/>
		<path class="cls-22" d="M311.076 204.193h.572v18.909h-.572z"/>
		<path class="cls-23" d="M311.648 204.193h.572v18.909h-.572z"/>
		<path class="cls-24" d="M312.22 204.193h.572v18.909h-.572z"/>
		<path class="cls-25" d="M312.792 204.193h.572v18.909h-.572z"/>
		<path class="cls-26" d="M313.364 204.193h.572v18.909h-.572z"/>
		<path class="cls-27" d="M313.937 204.193h.572v18.909h-.572z"/>
		<path class="cls-28" d="M314.509 204.193h.572v18.909h-.572z"/>
		<path class="cls-29" d="M315.081 204.193h.572v18.909h-.572z"/>
		<path class="cls-30" d="M315.653 204.193h.572v18.909h-.572z"/>
		<path class="cls-31" d="M316.225 204.193h.572v18.909h-.572z"/>
		<path class="cls-32" d="M316.797 204.193h.572v18.909h-.572z"/>
		<path class="cls-33" d="M317.369 204.193h.572v18.909h-.572z"/>
		<path class="cls-34" d="M317.941 204.193h.572v18.909h-.572z"/>
		<path class="cls-35" d="M318.513 204.193h.572v18.909h-.572z"/>
		<path class="cls-36" d="M319.086 204.193h.572v18.909h-.572z"/>
		<path class="cls-37" d="M319.658 204.193h.572v18.909h-.572z"/>
		<path class="cls-39" d="M320.23 204.193h.572v18.909h-.572z"/>
		<path class="cls-40" d="M320.802 204.193h.572v18.909h-.572z"/>
		<path class="cls-41" d="M321.374 204.193h.572v18.909h-.572z"/>
		<path class="cls-42" d="M321.946 204.193h.572v18.909h-.572z"/>
		<path class="cls-43" d="M322.518 204.193h.572v18.909h-.572z"/>
		<path class="cls-44" d="M323.09 204.193h.572v18.909h-.572z"/>
		<path class="cls-45" d="M323.663 204.193h.572v18.909h-.572z"/>
		<path class="cls-46" d="M324.235 204.193h.572v18.909h-.572z"/>
		<path class="cls-47" d="M324.807 204.193h.572v18.909h-.572z"/>
		<path class="cls-48" d="M325.379 204.193h.572v18.909h-.572z"/>
		<path class="cls-90" d="M325.951 204.193h.572v18.909h-.572z"/>
		<path class="cls-49" d="M326.523 204.193h.572v18.909h-.572z"/>
		<path class="cls-50" d="M327.095 204.193h.572v18.909h-.572z"/>
		<path class="cls-51" d="M327.667 204.193h.572v18.909h-.572z"/>
		<path class="cls-52" d="M328.24 204.193h.572v18.909h-.572z"/>
		<path class="cls-53" d="M328.812 204.193h.572v18.909h-.572z"/>
		<path class="cls-54" d="M329.384 204.193h.572v18.909h-.572z"/>
		<path class="cls-55" d="M329.956 204.193h.572v18.909h-.572z"/>
		<path class="cls-56" d="M330.528 204.193h.572v18.909h-.572z"/>
		<path class="cls-57" d="M331.1 204.193h.572v18.909h-.572z"/>
		<path class="cls-58" d="M331.672 204.193h.572v18.909h-.572z"/>
		<path class="cls-59" d="M332.244 204.193h.572v18.909h-.572z"/>
		<path class="cls-60" d="M332.816 204.193h.572v18.909h-.572z"/>
		<path class="cls-61" d="M333.389 204.193h.572v18.909h-.572z"/>
		<path class="cls-62" d="M333.961 204.193h.572v18.909h-.572z"/>
		<path class="cls-63" d="M334.533 204.193h.572v18.909h-.572z"/>
		<path class="cls-64" d="M335.105 204.193h.572v18.909h-.572z"/>
		<path class="cls-65" d="M335.677 204.193h.572v18.909h-.572z"/>
		<path class="cls-66" d="M336.249 204.193h.572v18.909h-.572z"/>
	</g>
	<path class="cls-88" d="M320.23 225.456c-10.624 0-18.946-5.187-18.946-11.809s8.322-11.808 18.946-11.808c10.624 0 18.946 5.187 18.946 11.808s-8.322 11.81-18.946 11.81Zm0-18.908c-8.39 0-14.237 3.741-14.237 7.1s5.847 7.1 14.237 7.1 14.237-3.742 14.237-7.1-5.847-7.1-14.237-7.1Z"/>
	<circle class="cls-9" cx="264.621" cy="152.429" r="5.12"/>
	<circle class="cls-9" cx="376.864" cy="152.429" r="5.12"/>
	<path class="cls-88" d="M174.715 93.162c-1.893 6.95-8.722 11.143-15.253 9.364s-14.986-11.202-13.093-18.152 13.416-8.796 19.947-7.018 10.291 8.855 8.399 15.806Z"/>
	<path class="cls-88" d="M467.528 92.721c-2.25-6.843 1.14-14.104 7.57-16.217s18.679 1.094 20.928 7.937-6.352 14.732-12.783 16.845-13.466-1.721-15.715-8.565Z"/>
	<g style="clip-path:url(#clip-path-4)">
		<path class="cls-93" d="M320.507 384.581 200.829 232.05h119.678v152.531z"/>
		<path class="cls-93" d="M320.507 387.217 198.761 232.05h2.068l119.678 152.531v2.636z"/>
		<path style="fill:#1d005f" d="M320.507 389.853 196.693 232.05h2.068l121.746 155.167v2.636z"/>
		<path style="fill:#1e0060" d="M320.507 392.489 194.625 232.05h2.068l123.814 157.803v2.636z"/>
		<path style="fill:#1f0061" d="M320.507 395.125 192.557 232.05h2.068l125.882 160.439v2.636z"/>
		<path style="fill:#200062" d="M320.507 397.761 190.489 232.05h2.068l127.95 163.075v2.636z"/>
		<path style="fill:#210063" d="M320.507 400.396 188.42 232.05h2.069l130.018 165.711v2.635z"/>
		<path style="fill:#210064" d="M320.507 403.032 186.352 232.05h2.068l132.087 168.346v2.636z"/>
		<path style="fill:#220065" d="M320.507 405.668 184.284 232.05h2.068l134.155 170.982v2.636z"/>
		<path style="fill:#230066" d="M320.507 408.304 182.216 232.05h2.068l136.223 173.618v2.636z"/>
		<path style="fill:#240067" d="M320.507 410.94 180.148 232.05h2.068l138.291 176.254v2.636z"/>
		<path style="fill:#250068" d="M320.507 413.576 178.08 232.05h2.068l140.359 178.89v2.636z"/>
		<path style="fill:#260069" d="M320.507 416.212 176.011 232.05h2.069l142.427 181.526v2.636z"/>
		<path style="fill:#27006a" d="M320.507 418.848 173.943 232.05h2.068l144.496 184.162v2.636z"/>
		<path style="fill:#28006b" d="M320.507 421.483 171.875 232.05h2.068l146.564 186.798v2.635z"/>
		<path style="fill:#29006c" d="m320.507 424.119-150.7-192.069h2.068l148.632 189.433v2.636z"/>
		<path style="fill:#2a006d" d="M320.507 426.755 167.739 232.05h2.068l150.7 192.069v2.636z"/>
		<path style="fill:#2b006e" d="M320.507 429.391 165.671 232.05h2.068l152.768 194.705v2.636z"/>
		<path style="fill:#2b006f" d="M320.507 432.027 163.603 232.05h2.068l154.836 197.341v2.636z"/>
		<path style="fill:#2c0070" d="M320.507 434.663 161.534 232.05h2.069l156.904 199.977v2.636z"/>
		<path style="fill:#2d0071" d="M320.507 437.299 159.466 232.05h2.068l158.973 202.613v2.636z"/>
		<path style="fill:#2e0072" d="M320.507 439.935 157.398 232.05h2.068l161.041 205.249v2.636z"/>
		<path style="fill:#2f0073" d="M320.507 442.571 155.33 232.05h2.068l163.109 207.885v2.636z"/>
		<path style="fill:#300074" d="M320.507 445.206 153.262 232.05h2.068l165.177 210.521v2.635z"/>
		<path style="fill:#310075" d="M320.507 447.842 151.194 232.05h2.068l167.245 213.156v2.636z"/>
		<path style="fill:#320076" d="M320.507 450.478 149.125 232.05h2.069l169.313 215.792v2.636z"/>
		<path style="fill:#307" d="M320.507 453.114 147.057 232.05h2.068l171.382 218.428v2.636z"/>
		<path style="fill:#340078" d="m320.507 455.75-175.518-223.7h2.068l173.45 221.064v2.636z"/>
		<path style="fill:#340079" d="M320.507 458.386 142.921 232.05h2.068l175.518 223.7v2.636z"/>
		<path style="fill:#35007a" d="M320.507 461.022 140.853 232.05h2.068l177.586 226.336v2.636z"/>
		<path style="fill:#36007b" d="M320.507 463.658 140.15 233.791v-1.741h.703l179.654 228.972v2.636z"/>
		<path style="fill:#37007c" d="M320.507 466.293 140.15 236.426v-2.635l180.357 229.867v2.635z"/>
		<path style="fill:#38007d" d="M320.507 468.929 140.15 239.062v-2.636l180.357 229.867v2.636z"/>
		<path style="fill:#39007e" d="M320.507 471.565 140.15 241.698v-2.636l180.357 229.867v2.636z"/>
		<path style="fill:#3a007f" d="M320.507 474.201 140.15 244.334v-2.636l180.357 229.867v2.636z"/>
		<path style="fill:#3b0080" d="M320.507 476.837 140.15 246.97v-2.636l180.357 229.867v2.636z"/>
		<path style="fill:#3c0081" d="M320.507 479.473 140.15 249.606v-2.636l180.357 229.867v2.636z"/>
		<path style="fill:#3d0082" d="M320.507 482.109 140.15 252.242v-2.636l180.357 229.867v2.636z"/>
		<path style="fill:#3e0083" d="M320.507 484.745 140.15 254.878v-2.636l180.357 229.867v2.636z"/>
		<path style="fill:#3e0084" d="M320.507 487.38 140.15 257.513v-2.635l180.357 229.867v2.635z"/>
		<path style="fill:#3f0085" d="M320.507 490.016 140.15 260.149v-2.636L320.507 487.38v2.636z"/>
		<path style="fill:#400086" d="M320.507 492.652 140.15 262.785v-2.636l180.357 229.867v2.636z"/>
		<path style="fill:#410087" d="M320.507 495.288 140.15 265.421v-2.636l180.357 229.867v2.636z"/>
		<path style="fill:#420088" d="M320.507 497.924 140.15 268.057v-2.636l180.357 229.867v2.636z"/>
		<path style="fill:#430089" d="M320.507 500.56 140.15 270.693v-2.636l180.357 229.867v2.636z"/>
		<path style="fill:#44008a" d="M320.507 503.196 140.15 273.329v-2.636L320.507 500.56v2.636z"/>
		<path style="fill:#45008b" d="M320.507 505.832 140.15 275.965v-2.636l180.357 229.867v2.636z"/>
		<path style="fill:#46008c" d="M320.507 508.468 140.15 278.6v-2.635l180.357 229.867v2.636z"/>
		<path style="fill:#47008d" d="M320.507 511.103 140.15 281.236V278.6l180.357 229.868v2.635z"/>
		<path style="fill:#48008f" d="M320.507 513.739 140.15 283.872v-2.636l180.357 229.867v2.636z"/>
		<path style="fill:#480090" d="M320.507 516.375 140.15 286.508v-2.636l180.357 229.867v2.636z"/>
		<path style="fill:#490091" d="M320.507 519.011 140.15 289.144v-2.636l180.357 229.867v2.636z"/>
		<path style="fill:#4a0092" d="M320.507 521.647 140.15 291.78v-2.636l180.357 229.867v2.636z"/>
		<path style="fill:#4b0093" d="M320.507 524.283 140.15 294.416v-2.636l180.357 229.867v2.636z"/>
		<path style="fill:#4c0094" d="M320.507 526.919 140.15 297.052v-2.636l180.357 229.867v2.636z"/>
		<path style="fill:#4d0095" d="M320.507 529.555 140.15 299.688v-2.636l180.357 229.867v2.636z"/>
		<path style="fill:#4e0096" d="M320.507 532.19 140.15 302.323v-2.635l180.357 229.867v2.635z"/>
		<path style="fill:#4f0097" d="M320.507 534.826 140.15 304.959v-2.636L320.507 532.19v2.636z"/>
		<path style="fill:#500098" d="M320.507 537.462 140.15 307.595v-2.636l180.357 229.867v2.636z"/>
		<path style="fill:#510099" d="M320.507 540.098 140.15 310.231v-2.636l180.357 229.867v2.636z"/>
		<path style="fill:#51009a" d="M320.507 542.734 140.15 312.867v-2.636l180.357 229.867v2.636z"/>
		<path style="fill:#52009b" d="M320.507 545.37 140.15 315.503v-2.636l180.357 229.867v2.636z"/>
		<path style="fill:#53009c" d="M320.507 548.006 140.15 318.139v-2.636L320.507 545.37v2.636z"/>
		<path style="fill:#54009d" d="M320.507 550.642 140.15 320.775v-2.636l180.357 229.867v2.636z"/>
		<path style="fill:#55009e" d="M319.971 552.594 140.15 323.41v-2.635l180.357 229.867v1.952h-.536z"/>
		<path style="fill:#56009f" d="M317.903 552.594 140.15 326.046v-2.636l179.821 229.184h-2.068z"/>
		<path style="fill:#5700a0" d="M315.835 552.594 140.15 328.682v-2.636l177.753 226.548h-2.068z"/>
		<path style="fill:#5800a1" d="M313.767 552.594 140.15 331.318v-2.636l175.685 223.912h-2.068z"/>
		<path style="fill:#5900a2" d="M311.699 552.594 140.15 333.954v-2.636l173.617 221.276h-2.068z"/>
		<path style="fill:#5a00a3" d="M309.631 552.594 140.15 336.59v-2.636l171.549 218.64h-2.068z"/>
		<path style="fill:#5b00a4" d="M307.562 552.594 140.15 339.226v-2.636l169.481 216.004h-2.069z"/>
		<path style="fill:#5b00a5" d="M305.494 552.594 140.15 341.862v-2.636l167.412 213.368h-2.068z"/>
		<path style="fill:#5c00a6" d="M303.426 552.594 140.15 344.497v-2.635l165.344 210.732h-2.068z"/>
		<path style="fill:#5d00a7" d="M301.358 552.594 140.15 347.133v-2.636l163.276 208.097h-2.068z"/>
		<path style="fill:#5e00a8" d="M299.29 552.594 140.15 349.769v-2.636l161.208 205.461h-2.068z"/>
		<path style="fill:#5f00a9" d="M297.222 552.594 140.15 352.405v-2.636l159.14 202.825h-2.068z"/>
		<path style="fill:#6000aa" d="M295.153 552.594 140.15 355.041v-2.636l157.072 200.189h-2.069z"/>
		<path style="fill:#6100ab" d="M293.085 552.594 140.15 357.677v-2.636l155.003 197.553h-2.068z"/>
		<path style="fill:#6200ac" d="M291.017 552.594 140.15 360.313v-2.636l152.935 194.917h-2.068z"/>
		<path style="fill:#6300ad" d="M288.949 552.594 140.15 362.949v-2.636l150.867 192.281h-2.068z"/>
		<path style="fill:#6400ae" d="M286.881 552.594 140.15 365.585v-2.636l148.799 189.645h-2.068z"/>
		<path style="fill:#6500af" d="M284.813 552.594 140.15 368.22v-2.635l146.731 187.009h-2.068z"/>
		<path style="fill:#6500b0" d="M282.745 552.594 140.15 370.856v-2.636l144.663 184.374h-2.068z"/>
		<path style="fill:#6600b1" d="M280.676 552.594 140.15 373.492v-2.636l142.595 181.738h-2.069z"/>
		<path style="fill:#6700b2" d="M278.608 552.594 140.15 376.128v-2.636l140.526 179.102h-2.068z"/>
		<path style="fill:#6800b3" d="m276.54 552.594-136.39-173.83v-2.636l138.458 176.466h-2.068z"/>
		<path style="fill:#6900b4" d="M274.472 552.594 140.15 381.4v-2.636l136.39 173.83h-2.068z"/>
		<path style="fill:#6a00b5" d="M272.404 552.594 140.15 384.036V381.4l134.322 171.194h-2.068z"/>
		<path style="fill:#6b00b6" d="M270.336 552.594 140.15 386.672v-2.636l132.254 168.558h-2.068z"/>
		<path style="fill:#6c00b7" d="M268.268 552.594 140.15 389.307v-2.635l130.186 165.922h-2.068z"/>
		<path style="fill:#6d00b8" d="M266.199 552.594 140.15 391.943v-2.636l128.118 163.287h-2.069z"/>
		<path style="fill:#6e00b9" d="M264.131 552.594 140.15 394.579v-2.636l126.049 160.651h-2.068z"/>
		<path style="fill:#6e00ba" d="M262.063 552.594 140.15 397.215v-2.636l123.981 158.015h-2.068z"/>
		<path style="fill:#6f00bb" d="M259.995 552.594 140.15 399.851v-2.636l121.913 155.379h-2.068z"/>
		<path style="fill:#7000bc" d="M257.927 552.594 140.15 402.487v-2.636l119.845 152.743h-2.068z"/>
		<path style="fill:#7100bd" d="M255.859 552.594 140.15 405.123v-2.636l117.777 150.107h-2.068z"/>
		<path style="fill:#7200be" d="M253.79 552.594 140.15 407.759v-2.636l115.709 147.471h-2.069z"/>
		<path class="cls-189" d="m251.722 552.594-111.572-142.2v-2.635l113.64 144.835h-2.068z"/>
		<path class="cls-189" d="m140.15 410.394 111.572 142.2H140.15v-142.2z"/>
	</g>
	<path class="cls-2" d="M36.434 650.884a17.44 17.44 0 0 0-3.885 6.15 37.852 37.852 0 0 0-2.072 7.9 51.018 51.018 0 0 0-.647 7.705 15.19 15.19 0 0 0 1.489 7.186q1.49 2.785 5.374 2.784a7.204 7.204 0 0 0 4.143-1.23 9.98 9.98 0 0 0 2.979-3.172 16.566 16.566 0 0 0 1.813-4.533 35.874 35.874 0 0 0 .906-5.309l19.942 10.49a27.972 27.972 0 0 1-4.014 7.445 31.222 31.222 0 0 1-6.798 6.67 36.644 36.644 0 0 1-9.324 4.855 33.773 33.773 0 0 1-11.46 1.878 29.6 29.6 0 0 1-11.395-2.137 28.377 28.377 0 0 1-9-5.827 25.424 25.424 0 0 1-5.892-8.741 28.38 28.38 0 0 1-2.072-10.877 49.826 49.826 0 0 1 2.46-15.734 37.411 37.411 0 0 1 7.317-13.014 35.037 35.037 0 0 1 11.848-8.805 38.15 38.15 0 0 1 16.187-3.238 33.581 33.581 0 0 1 10.295 1.554 26.017 26.017 0 0 1 8.417 4.403 22.377 22.377 0 0 1 5.697 6.734 17.445 17.445 0 0 1 2.137 8.546v.13l-22.661 9.841q.259-.906.518-1.942a12.65 12.65 0 0 0 .388-2.072 23.523 23.523 0 0 0 .13-2.59 8.484 8.484 0 0 0-1.684-5.31 6.106 6.106 0 0 0-5.18-2.2 8.114 8.114 0 0 0-5.956 2.46Z"/>
	<path class="cls-2" d="m107.656 698.149 7.898-37.294a23.068 23.068 0 0 0 .648-5.05 6.337 6.337 0 0 0-1.23-3.95q-1.23-1.619-4.338-1.619a7.547 7.547 0 0 0-3.95.972 9.323 9.323 0 0 0-2.783 2.59 13.887 13.887 0 0 0-1.878 3.755 44.765 44.765 0 0 0-1.23 4.467l-7.64 36.129h-23.31l19.943-93.753h23.308l-4.92 22.79q-.648 3.109-1.49 6.022-.841 2.914-1.489 5.115-.777 2.59-1.683 4.92h.518a40.34 40.34 0 0 1 8.417-8.287 19.523 19.523 0 0 1 11.913-3.626q7.38 0 11.848 4.727t4.468 12.496q0 1.813-.194 3.95a31.374 31.374 0 0 1-.712 4.337l-8.806 41.309Z"/>
	<path class="cls-2" d="M185.742 649.46a8.312 8.312 0 0 0-4.403-1.036 11.162 11.162 0 0 0-7.381 2.59 16.42 16.42 0 0 0-4.791 7.38l-18.907-10.359a35.61 35.61 0 0 1 13.21-11.913q8.675-4.791 20.847-4.791a33.356 33.356 0 0 1 9.454 1.294 23.426 23.426 0 0 1 7.704 3.82 18.322 18.322 0 0 1 5.245 6.346 19.312 19.312 0 0 1 1.942 8.87 26.904 26.904 0 0 1-.26 3.69q-.258 1.878-.646 3.691l-4.274 20.33q-.777 3.885-1.683 8.029a33.3 33.3 0 0 0-.907 6.863 13.858 13.858 0 0 0 .26 2.72q.13.647.258 1.165h-16.963a11.891 11.891 0 0 1-1.813-3.626 13.063 13.063 0 0 1-.648-3.885v-.259h-.518a17.483 17.483 0 0 1-2.524 3.237 20.305 20.305 0 0 1-3.756 3.043 19.96 19.96 0 0 1-10.813 3.044 20.76 20.76 0 0 1-7.704-1.36 16.282 16.282 0 0 1-5.763-3.755 17.435 17.435 0 0 1-3.625-5.504 16.989 16.989 0 0 1-1.295-6.604 17.876 17.876 0 0 1 7.64-15.474 31.06 31.06 0 0 1 7.898-4.08 78.12 78.12 0 0 1 9.065-2.589q2.719-.648 5.633-1.23a45.338 45.338 0 0 0 5.439-1.425 15.454 15.454 0 0 0 4.143-2.007 3.75 3.75 0 0 0-.064-6.216Zm-4.662 21.301a23.4 23.4 0 0 1-5.05 1.878 26.206 26.206 0 0 0-5.374 2.007 4.454 4.454 0 0 0-2.396 4.338 3.699 3.699 0 0 0 1.36 3.043 5.7 5.7 0 0 0 3.69 1.1 9.524 9.524 0 0 0 6.28-2.33q2.785-2.331 3.82-7.252l1.166-5.31a14.562 14.562 0 0 1-3.496 2.526Z"/>
	<path class="cls-2" d="M216.757 656.193a38.37 38.37 0 0 1 7.381-12.95 34.159 34.159 0 0 1 11.913-8.74 39.277 39.277 0 0 1 16.252-3.172 32.327 32.327 0 0 1 11.525 2.007 27.79 27.79 0 0 1 9.258 5.697 25.924 25.924 0 0 1 6.151 8.806 28.367 28.367 0 0 1 2.202 11.33 47.912 47.912 0 0 1-2.525 15.734 38.49 38.49 0 0 1-7.381 12.884 34.016 34.016 0 0 1-11.979 8.74 39.383 39.383 0 0 1-16.186 3.174 32.337 32.337 0 0 1-11.525-2.007 27.805 27.805 0 0 1-9.259-5.698 25.938 25.938 0 0 1-6.15-8.806 28.369 28.369 0 0 1-2.202-11.33 48.082 48.082 0 0 1 2.525-15.669Zm22.532 23.632a6.151 6.151 0 0 0 5.633 2.784 8.328 8.328 0 0 0 6.021-2.46 18.464 18.464 0 0 0 4.08-6.15 38.122 38.122 0 0 0 2.33-7.9 42.703 42.703 0 0 0 .777-7.704 12.952 12.952 0 0 0-1.813-7.187 6.308 6.308 0 0 0-5.697-2.784 8.331 8.331 0 0 0-6.022 2.46 18.464 18.464 0 0 0-4.08 6.15 35.585 35.585 0 0 0-2.265 7.9 46.438 46.438 0 0 0-.713 7.705 13.33 13.33 0 0 0 1.749 7.186Z"/>
	<path class="cls-2" d="M305.657 680.99a12.447 12.447 0 0 0 8.03 2.396 9.31 9.31 0 0 0 4.66-1.1 3.467 3.467 0 0 0 1.943-3.173 3.013 3.013 0 0 0-1.23-2.33 12.547 12.547 0 0 0-3.238-1.878 39.467 39.467 0 0 0-4.532-1.554q-2.524-.712-5.115-1.49a44.957 44.957 0 0 1-6.086-2.266 19.2 19.2 0 0 1-5.244-3.496 17.332 17.332 0 0 1-3.69-5.05 15.949 15.949 0 0 1-1.425-7.057 18.379 18.379 0 0 1 2.525-9.648 23.598 23.598 0 0 1 6.604-7.122 29.875 29.875 0 0 1 9.389-4.402 40.556 40.556 0 0 1 11.006-1.49q11.395 0 18.647 4.08a34.683 34.683 0 0 1 11.784 10.683l-19.424 9.453a11.743 11.743 0 0 0-3.885-5.569 11.488 11.488 0 0 0-7.51-2.33 9.022 9.022 0 0 0-4.209.97 3.116 3.116 0 0 0-1.878 2.914 2.284 2.284 0 0 0 1.165 1.943 12.85 12.85 0 0 0 3.238 1.424q2.072.647 4.856 1.49t6.15 2.006a63.178 63.178 0 0 1 5.764 2.59 20.304 20.304 0 0 1 4.92 3.497 15.786 15.786 0 0 1 3.432 4.985 16.953 16.953 0 0 1 1.295 6.928 18.708 18.708 0 0 1-2.59 9.776 24.216 24.216 0 0 1-6.734 7.317 31.826 31.826 0 0 1-9.582 4.597 38.397 38.397 0 0 1-11.007 1.619q-12.044 0-20.2-4.08a26.758 26.758 0 0 1-12.173-11.848l19.683-9.583a15.653 15.653 0 0 0 4.661 6.799Z"/>
	<path class="cls-2" d="M415.468 698.149h-24.603l-8.158-22.662-8.935 9.194-2.72 13.468h-23.308l19.942-93.753h23.308l-8.158 38.46q-.647 3.107-1.49 6.02-.84 2.914-1.488 5.116-.776 2.59-1.554 4.92h.518l3.108-4.143q1.425-1.813 2.979-3.82 1.553-2.008 3.236-3.82l12.95-14.245h27.323l-27.453 25.899Z"/>
	<path class="cls-2" d="m456.65 632.884-7.898 37.294a23.068 23.068 0 0 0-.648 5.05 6.854 6.854 0 0 0 1.1 3.95q1.1 1.619 4.209 1.619a7.545 7.545 0 0 0 3.95-.972 8.634 8.634 0 0 0 2.719-2.59 13.697 13.697 0 0 0 1.748-3.755q.647-2.136 1.165-4.467l7.64-36.129h23.309l-13.856 65.265H456.78l3.496-10.36h-.518a41.905 41.905 0 0 1-8.287 8.288 18.964 18.964 0 0 1-11.784 3.626q-7.381 0-11.719-4.727-4.339-4.726-4.338-12.496 0-1.813.194-3.95a31.371 31.371 0 0 1 .712-4.337l8.806-41.309Z"/>
	<path class="cls-2" d="M531.111 626.021q-.647 2.72-1.424 5.633-.777 2.914-1.554 5.374-.906 2.849-1.813 5.568h.518q1.553-1.942 3.302-3.95a25.782 25.782 0 0 1 3.884-3.625 20.247 20.247 0 0 1 4.727-2.655 15.211 15.211 0 0 1 5.698-1.035 16.578 16.578 0 0 1 9.064 2.46 21.607 21.607 0 0 1 6.475 6.345 28.037 28.037 0 0 1 3.82 8.74 39.164 39.164 0 0 1 1.23 9.648 51.743 51.743 0 0 1-2.137 14.568 46.357 46.357 0 0 1-6.15 13.208 34.322 34.322 0 0 1-9.842 9.647 23.85 23.85 0 0 1-13.208 3.756q-6.604 0-10.618-3.756a18.926 18.926 0 0 1-5.44-8.805h-.517l-2.331 11.007h-22.273l19.942-93.753h23.308Zm-2.72 25.64a16.967 16.967 0 0 0-4.014 5.503 29.342 29.342 0 0 0-2.266 7.058 37.05 37.05 0 0 0-.712 6.863 14.583 14.583 0 0 0 1.748 7.575 6.072 6.072 0 0 0 5.633 2.914 8.62 8.62 0 0 0 5.957-2.202 16.954 16.954 0 0 0 4.014-5.503 29.344 29.344 0 0 0 2.266-7.058 37.114 37.114 0 0 0 .712-6.863 14.575 14.575 0 0 0-1.748-7.575 6.07 6.07 0 0 0-5.633-2.914 8.62 8.62 0 0 0-5.956 2.202Z"/>
	<path class="cls-2" d="M591.714 673.286q0 10.1 8.547 10.1a10.762 10.762 0 0 0 6.993-2.2 13.726 13.726 0 0 0 4.143-5.958l18.647 10.748a30.064 30.064 0 0 1-13.273 10.36 44.859 44.859 0 0 1-17.158 3.367 34.485 34.485 0 0 1-11.913-1.943 26.105 26.105 0 0 1-9.129-5.568 23.916 23.916 0 0 1-5.827-8.74 31.522 31.522 0 0 1-2.007-11.59 48.082 48.082 0 0 1 2.524-15.669 38.37 38.37 0 0 1 7.382-12.95 34.159 34.159 0 0 1 11.913-8.74 39.277 39.277 0 0 1 16.251-3.172 33.01 33.01 0 0 1 10.748 1.683 22.82 22.82 0 0 1 13.921 12.69 24.676 24.676 0 0 1 2.007 10.1 28.737 28.737 0 0 1-1.295 8.741 63.896 63.896 0 0 1-2.849 7.446h-39.625Zm7.835-22.92a23.588 23.588 0 0 0-4.727 7.122h19.813a2.121 2.121 0 0 1 .13-.647 6.908 6.908 0 0 1 .064-.777 9.36 9.36 0 0 0 .065-1.166 7.436 7.436 0 0 0-2.008-5.503 7.986 7.986 0 0 0-5.891-2.007 9.968 9.968 0 0 0-7.446 2.978Z"/>
	<path class="cls-190" d="M320.83 481.9c-.633 0-1.266 0-1.906-.008-83.707-1.165-125.724-52.299-143.319-82.676a6.693 6.693 0 1 0-11.582 6.709c19.016 32.83 64.403 88.094 154.715 89.35.7.01 1.396.01 2.093.01Z"/>
	<path class="cls-190" d="M281.61 378.071c-.005.067-.01.134-.013.201-.04.678-.07 1.356-.08 2.033a41.556 41.556 0 0 0 34.797 41.527c-11.582 3.061-24.812 2.298-38.63-2.398-28.984-9.851-46.023-33.24-45.63-61.264a71.41 71.41 0 0 1 1.048-11.144 77.263 77.263 0 0 1 30.218-48.397 117.3 117.3 0 0 1-12.898-6.73 89.91 89.91 0 0 0-30.51 52.851 82.14 82.14 0 0 0-1.19 12.813 76.536 76.536 0 0 0 9.689 38.78c9.397 16.591 24.946 28.958 44.966 35.762 16.82 5.718 33.088 6.464 47.454 2.388V408.9a28.103 28.103 0 0 1 0-56.038v-24.158a62.305 62.305 0 0 0-14.73 7.686c-14.263 10.066-23.49 25.867-24.492 41.681Z"/>
	<path class="cls-190" d="M201.23 403.875a6.664 6.664 0 0 0 1.336 4.101c1.41 1.881 2.905 3.75 4.446 5.556a6.692 6.692 0 0 0 10.18-8.69 98.79 98.79 0 0 1-3.914-4.89 6.692 6.692 0 0 0-12.048 3.923Z"/>
	<path class="cls-190" d="M225.08 427.142a6.684 6.684 0 0 0 2.766 5.52c1.878 1.36 3.836 2.698 5.82 3.978a6.693 6.693 0 0 0 7.256-11.247 117.54 117.54 0 0 1-5.225-3.573 6.692 6.692 0 0 0-10.618 5.322Z"/>
	<path class="cls-190" d="M210.731 288.319a98.816 98.816 0 0 1 3.606-5.125 6.693 6.693 0 0 0-10.695-8.049 112.34 112.34 0 0 0-4.099 5.824 6.693 6.693 0 0 0 11.188 7.35Z"/>
	<path class="cls-190" d="M201.071 378.218a93.514 93.514 0 0 1-2.116-5.874 6.693 6.693 0 1 0-12.737 4.114 107.544 107.544 0 0 0 2.418 6.714 6.693 6.693 0 0 0 12.435-4.954Z"/>
	<path class="cls-190" d="M197.897 316.79c.55-2.013 1.171-4.03 1.843-5.996a6.693 6.693 0 0 0-12.665-4.331 114.32 114.32 0 0 0-2.089 6.794 6.693 6.693 0 1 0 12.911 3.533Z"/>
	<path class="cls-190" d="M194.484 347.811a97.716 97.716 0 0 1-.11-6.192l.001-.07a6.693 6.693 0 0 0-13.383-.187l-.001.071c-.033 2.344.009 4.714.125 7.044a6.692 6.692 0 1 0 13.368-.666Z"/>
	<g style="clip-path:url(#clip-path-5)">
		<path class="cls-192" d="M499.082 294.283 319.893 403.936V232.049h179.189v62.234z"/>
		<path class="cls-192" d="M499.082 295.434 319.893 405.087v-1.151l179.189-109.653v1.151z"/>
		<path style="fill:#febb5b" d="M499.082 296.586 319.893 406.239v-1.152l179.189-109.653v1.152z"/>
		<path style="fill:#feba5b" d="M499.082 297.738 319.893 407.391v-1.152l179.189-109.653v1.152z"/>
		<path style="fill:#fdb95c" d="M499.082 298.889 319.893 408.542v-1.151l179.189-109.653v1.151z"/>
		<path style="fill:#fcb85c" d="M499.082 300.041 319.893 409.694v-1.152l179.189-109.653v1.152z"/>
		<path style="fill:#fbb75d" d="M499.082 301.192 319.893 410.845v-1.151l179.189-109.653v1.151z"/>
		<path style="fill:#fbb65d" d="M499.082 302.344 319.893 411.997v-1.152l179.189-109.653v1.152z"/>
		<path style="fill:#fab55e" d="M499.082 303.496 319.893 413.149v-1.152l179.189-109.653v1.152z"/>
		<path style="fill:#f9b45e" d="M499.082 304.647 319.893 414.3v-1.151l179.189-109.653v1.151z"/>
		<path style="fill:#f8b35f" d="M499.082 305.799 319.893 415.452V414.3l179.189-109.653v1.152z"/>
		<path style="fill:#f8b25f" d="M499.082 306.951 319.893 416.604v-1.152l179.189-109.653v1.152z"/>
		<path style="fill:#f7b160" d="M499.082 308.102 319.893 417.755v-1.151l179.189-109.653v1.151z"/>
		<path style="fill:#f6b060" d="M499.082 309.254 319.893 418.907v-1.152l179.189-109.653v1.152z"/>
		<path style="fill:#f5af61" d="M499.082 310.405 319.893 420.058v-1.151l179.189-109.653v1.151z"/>
		<path style="fill:#f5ae62" d="M499.082 311.557 319.893 421.21v-1.152l179.189-109.653v1.152z"/>
		<path style="fill:#f4ad62" d="M499.082 312.709 319.893 422.362v-1.152l179.189-109.653v1.152z"/>
		<path style="fill:#f3ac63" d="M499.082 313.86 319.893 423.513v-1.151l179.189-109.653v1.151z"/>
		<path style="fill:#f2ab63" d="M499.082 315.012 319.893 424.665v-1.152L499.082 313.86v1.152z"/>
		<path style="fill:#f2aa64" d="M499.082 316.163 319.893 425.816v-1.151l179.189-109.653v1.151z"/>
		<path style="fill:#f1a964" d="M499.082 317.315 319.893 426.968v-1.152l179.189-109.653v1.152z"/>
		<path style="fill:#f0a865" d="M499.082 318.467 319.893 428.12v-1.152l179.189-109.653v1.152z"/>
		<path style="fill:#efa765" d="M499.082 319.618 319.893 429.271v-1.151l179.189-109.653v1.151z"/>
		<path style="fill:#efa666" d="M499.082 320.77 319.893 430.423v-1.152l179.189-109.653v1.152z"/>
		<path style="fill:#eea566" d="M499.082 321.922 319.893 431.575v-1.152L499.082 320.77v1.152z"/>
		<path style="fill:#eda467" d="M499.082 323.073 319.893 432.726v-1.151l179.189-109.653v1.151z"/>
		<path style="fill:#eca368" d="M499.082 324.225 319.893 433.878v-1.152l179.189-109.653v1.152z"/>
		<path style="fill:#eca268" d="M499.082 325.376 319.893 435.029v-1.151l179.189-109.653v1.151z"/>
		<path style="fill:#eba169" d="M499.082 326.528 319.893 436.181v-1.152l179.189-109.653v1.152z"/>
		<path style="fill:#eaa069" d="M499.082 327.68 319.893 437.333v-1.152l179.189-109.653v1.152z"/>
		<path style="fill:#e99f6a" d="M499.082 328.831 319.893 438.484v-1.151L499.082 327.68v1.151z"/>
		<path style="fill:#e99e6a" d="M499.082 329.983 319.893 439.636v-1.152l179.189-109.653v1.152z"/>
		<path style="fill:#e89d6b" d="M499.082 331.134 319.893 440.787v-1.151l179.189-109.653v1.151z"/>
		<path style="fill:#e79c6b" d="M499.082 332.286 319.893 441.939v-1.152l179.189-109.653v1.152z"/>
		<path style="fill:#e69b6c" d="M499.082 333.438 319.893 443.091v-1.152l179.189-109.653v1.152z"/>
		<path style="fill:#e69a6c" d="M499.082 334.589 319.893 444.242v-1.151l179.189-109.653v1.151z"/>
		<path style="fill:#e5996d" d="M499.082 335.741 319.893 445.394v-1.152l179.189-109.653v1.152z"/>
		<path style="fill:#e4986d" d="M499.082 336.893 319.893 446.546v-1.152l179.189-109.653v1.152z"/>
		<path style="fill:#e3976e" d="M499.082 338.044 319.893 447.697v-1.151l179.189-109.653v1.151z"/>
		<path style="fill:#e3966f" d="M499.082 339.196 319.893 448.849v-1.152l179.189-109.653v1.152z"/>
		<path style="fill:#e2956f" d="M499.082 340.347 319.893 450v-1.151l179.189-109.653v1.151z"/>
		<path style="fill:#e19470" d="M499.082 341.499 319.893 451.152V450l179.189-109.653v1.152z"/>
		<path style="fill:#e09370" d="M499.082 342.651 319.893 452.304v-1.152l179.189-109.653v1.152z"/>
		<path style="fill:#e09271" d="M499.082 343.802 319.893 453.455v-1.151l179.189-109.653v1.151z"/>
		<path style="fill:#df9171" d="M499.082 344.954 319.893 454.607v-1.152l179.189-109.653v1.152z"/>
		<path style="fill:#de9072" d="M499.082 346.105 319.893 455.758v-1.151l179.189-109.653v1.151z"/>
		<path style="fill:#dd8f72" d="M499.082 347.257 319.893 456.91v-1.152l179.189-109.653v1.152z"/>
		<path style="fill:#dd8e73" d="M499.082 348.409 319.893 458.062v-1.152l179.189-109.653v1.152z"/>
		<path style="fill:#dc8d73" d="M499.082 349.56 319.893 459.213v-1.151l179.189-109.653v1.151z"/>
		<path style="fill:#db8c74" d="M499.082 350.712 319.893 460.365v-1.152L499.082 349.56v1.152z"/>
		<path style="fill:#da8b74" d="M499.082 351.864 319.893 461.517v-1.152l179.189-109.653v1.152z"/>
		<path style="fill:#da8a75" d="M499.082 353.015 319.893 462.668v-1.151l179.189-109.653v1.151z"/>
		<path style="fill:#d98976" d="M499.082 354.167 319.893 463.82v-1.152l179.189-109.653v1.152z"/>
		<path style="fill:#d88876" d="M499.082 355.318 319.893 464.971v-1.151l179.189-109.653v1.151z"/>
		<path style="fill:#d78777" d="M499.082 356.47 319.893 466.123v-1.152l179.189-109.653v1.152z"/>
		<path style="fill:#d78677" d="M499.082 357.622 319.893 467.275v-1.152L499.082 356.47v1.152z"/>
		<path style="fill:#d68578" d="M499.082 358.773 319.893 468.426v-1.151l179.189-109.653v1.151z"/>
		<path style="fill:#d58478" d="M499.082 359.925 319.893 469.578v-1.152l179.189-109.653v1.152z"/>
		<path style="fill:#d48379" d="M499.082 361.076 319.893 470.729v-1.151l179.189-109.653v1.151z"/>
		<path style="fill:#d48279" d="M499.082 362.228 319.893 471.881v-1.152l179.189-109.653v1.152z"/>
		<path style="fill:#d3817a" d="M499.082 363.38 319.893 473.033v-1.152l179.189-109.653v1.152z"/>
		<path style="fill:#d2807a" d="M499.082 364.531 319.893 474.184v-1.151L499.082 363.38v1.151z"/>
		<path style="fill:#d17f7b" d="M499.082 365.683 319.893 475.336v-1.152l179.189-109.653v1.152z"/>
		<path style="fill:#d17e7b" d="M499.082 366.835 319.893 476.488v-1.152l179.189-109.653v1.152z"/>
		<path style="fill:#d07d7c" d="M499.082 367.986 319.893 477.639v-1.151l179.189-109.653v1.151z"/>
		<path style="fill:#cf7c7d" d="M499.082 369.138 319.893 478.791v-1.152l179.189-109.653v1.152z"/>
		<path style="fill:#ce7b7d" d="M499.082 370.289 319.893 479.942v-1.151l179.189-109.653v1.151z"/>
		<path style="fill:#ce7a7e" d="M499.082 371.441 319.893 481.094v-1.152l179.189-109.653v1.152z"/>
		<path style="fill:#cd797e" d="M499.082 372.593 319.893 482.246v-1.152l179.189-109.653v1.152z"/>
		<path style="fill:#cc787f" d="M499.082 373.744 319.893 483.397v-1.151l179.189-109.653v1.151z"/>
		<path style="fill:#cb777f" d="M499.082 374.896 319.893 484.549v-1.152l179.189-109.653v1.152z"/>
		<path style="fill:#cb7680" d="M499.082 376.047 319.893 485.7v-1.151l179.189-109.653v1.151z"/>
		<path style="fill:#ca7580" d="M499.082 377.199 319.893 486.852V485.7l179.189-109.653v1.152z"/>
		<path style="fill:#c97481" d="M499.082 378.351 319.893 488.004v-1.152l179.189-109.653v1.152z"/>
		<path style="fill:#c87381" d="M499.082 379.502 319.893 489.155v-1.151l179.189-109.653v1.151z"/>
		<path style="fill:#c87282" d="M499.082 380.654 319.893 490.307v-1.152l179.189-109.653v1.152z"/>
		<path style="fill:#c77183" d="M499.082 381.806 319.893 491.459v-1.152l179.189-109.653v1.152z"/>
		<path style="fill:#c67083" d="M499.082 382.957 319.893 492.61v-1.151l179.189-109.653v1.151z"/>
		<path style="fill:#c56f84" d="M499.082 384.109 319.893 493.762v-1.152l179.189-109.653v1.152z"/>
		<path style="fill:#c56e84" d="M499.082 385.26 319.893 494.913v-1.151l179.189-109.653v1.151z"/>
		<path style="fill:#c46d85" d="M499.082 386.412 319.893 496.065v-1.152L499.082 385.26v1.152z"/>
		<path style="fill:#c36c85" d="M499.082 387.564 319.893 497.217v-1.152l179.189-109.653v1.152z"/>
		<path style="fill:#c26b86" d="M499.082 388.715 319.893 498.368v-1.151l179.189-109.653v1.151z"/>
		<path style="fill:#c26a86" d="M499.082 389.867 319.893 499.52v-1.152l179.189-109.653v1.152z"/>
		<path style="fill:#c16987" d="M499.082 391.018 319.893 500.671v-1.151l179.189-109.653v1.151z"/>
		<path style="fill:#c06887" d="M499.082 392.17 319.893 501.823v-1.152l179.189-109.653v1.152z"/>
		<path style="fill:#bf6788" d="M499.082 393.322 319.893 502.975v-1.152L499.082 392.17v1.152z"/>
		<path style="fill:#bf6688" d="M499.082 394.473 319.893 504.126v-1.151l179.189-109.653v1.151z"/>
		<path style="fill:#be6589" d="M499.082 395.625 319.893 505.278v-1.152l179.189-109.653v1.152z"/>
		<path style="fill:#bd648a" d="M499.082 396.777 319.893 506.43v-1.152l179.189-109.653v1.152z"/>
		<path style="fill:#bc638a" d="M499.082 397.928 319.893 507.581v-1.151l179.189-109.653v1.151z"/>
		<path style="fill:#bc628b" d="M499.082 399.08 319.893 508.733v-1.152l179.189-109.653v1.152z"/>
		<path style="fill:#bb618b" d="M499.082 400.231 319.893 509.884v-1.151L499.082 399.08v1.151z"/>
		<path style="fill:#ba608c" d="M499.082 401.383 319.893 511.036v-1.152l179.189-109.653v1.152z"/>
		<path style="fill:#b95f8c" d="M499.082 402.535 319.893 512.188v-1.152l179.189-109.653v1.152z"/>
		<path style="fill:#b95d8d" d="M499.082 403.686 319.893 513.339v-1.151l179.189-109.653v1.151z"/>
		<path style="fill:#b85c8d" d="M499.082 404.838 319.893 514.491v-1.152l179.189-109.653v1.152z"/>
		<path style="fill:#b75b8e" d="M499.082 405.989 319.893 515.642v-1.151l179.189-109.653v1.151z"/>
		<path style="fill:#b65a8e" d="M499.082 407.141 319.893 516.794v-1.152l179.189-109.653v1.152z"/>
		<path style="fill:#b6598f" d="M499.082 408.293 319.893 517.946v-1.152l179.189-109.653v1.152z"/>
		<path style="fill:#b5588f" d="M499.082 409.444 319.893 519.097v-1.151l179.189-109.653v1.151z"/>
		<path style="fill:#b45790" d="M499.082 410.596 319.893 520.249v-1.152l179.189-109.653v1.152z"/>
		<path style="fill:#b35691" d="M499.082 411.748 319.893 521.401v-1.152l179.189-109.653v1.152z"/>
		<path style="fill:#b35591" d="M499.082 412.899 319.893 522.552v-1.151l179.189-109.653v1.151z"/>
		<path style="fill:#b25492" d="M499.082 414.051 319.893 523.704v-1.152l179.189-109.653v1.152z"/>
		<path style="fill:#b15392" d="M499.082 415.202 319.893 524.855v-1.151l179.189-109.653v1.151z"/>
		<path style="fill:#b05293" d="M499.082 416.354 319.893 526.007v-1.152l179.189-109.653v1.152z"/>
		<path style="fill:#b05193" d="M499.082 417.506 319.893 527.159v-1.152l179.189-109.653v1.152z"/>
		<path style="fill:#af5094" d="M499.082 418.657 319.893 528.31v-1.151l179.189-109.653v1.151z"/>
		<path style="fill:#ae4f94" d="M499.082 419.809 319.893 529.462v-1.152l179.189-109.653v1.152z"/>
		<path style="fill:#ad4e95" d="M499.082 420.96 319.893 530.613v-1.151l179.189-109.653v1.151z"/>
		<path style="fill:#ad4d95" d="M499.082 422.112 319.893 531.765v-1.152L499.082 420.96v1.152z"/>
		<path style="fill:#ac4c96" d="M499.082 423.264 319.893 532.917v-1.152l179.189-109.653v1.152z"/>
		<path style="fill:#ab4b96" d="M499.082 424.415 319.893 534.068v-1.151l179.189-109.653v1.151z"/>
		<path style="fill:#aa4a97" d="M499.082 425.567 319.893 535.22v-1.152l179.189-109.653v1.152z"/>
		<path style="fill:#aa4998" d="M499.082 426.719 319.893 536.372v-1.152l179.189-109.653v1.152z"/>
		<path style="fill:#a94898" d="M499.082 427.87 319.893 537.523v-1.151l179.189-109.653v1.151z"/>
		<path style="fill:#a84799" d="M499.082 429.022 319.893 538.675v-1.152L499.082 427.87v1.152z"/>
		<path style="fill:#a74699" d="M499.082 430.173 319.893 539.826v-1.151l179.189-109.653v1.151z"/>
		<path style="fill:#a7459a" d="M499.082 431.325 319.893 540.978v-1.152l179.189-109.653v1.152z"/>
		<path style="fill:#a6449a" d="M499.082 432.477 319.893 542.13v-1.152l179.189-109.653v1.152z"/>
		<path style="fill:#a5439b" d="M499.082 433.628 319.893 543.281v-1.151l179.189-109.653v1.151z"/>
		<path style="fill:#a4429b" d="M499.082 434.78 319.893 544.433v-1.152l179.189-109.653v1.152z"/>
		<path style="fill:#a4419c" d="M499.082 435.931 319.893 545.584v-1.151L499.082 434.78v1.151z"/>
		<path style="fill:#a3409c" d="M499.082 437.083 319.893 546.736v-1.152l179.189-109.653v1.152z"/>
		<path style="fill:#a23f9d" d="M499.082 438.235 319.893 547.888v-1.152l179.189-109.653v1.152z"/>
		<path style="fill:#a13e9e" d="M499.082 439.386 319.893 549.039v-1.151l179.189-109.653v1.151z"/>
		<path style="fill:#a13d9e" d="M499.082 440.538 319.893 550.191v-1.152l179.189-109.653v1.152z"/>
		<path style="fill:#a03c9f" d="M499.082 441.69 319.893 551.343v-1.152l179.189-109.653v1.152z"/>
		<path style="fill:#9f3b9f" d="M499.082 442.841 319.893 552.494v-1.151L499.082 441.69v1.151z"/>
		<path style="fill:#9e3aa0" d="M499.082 443.993 321.611 552.594h-1.718v-.1l179.189-109.653v1.152z"/>
		<path style="fill:#9e39a0" d="m499.082 445.144-175.589 107.45h-1.882l177.471-108.601v1.151z"/>
		<path style="fill:#9d38a1" d="M499.082 446.296 325.375 552.594h-1.882l175.589-107.45v1.152z"/>
		<path style="fill:#9c37a1" d="M499.082 447.448 327.257 552.594h-1.882l173.707-106.298v1.152z"/>
		<path style="fill:#9b36a2" d="M499.082 448.599 329.139 552.594h-1.882l171.825-105.146v1.151z"/>
		<path style="fill:#9b35a2" d="M499.082 449.751 331.021 552.594h-1.882l169.943-103.995v1.152z"/>
		<path style="fill:#9a34a3" d="M499.082 450.902 332.903 552.594h-1.882l168.061-102.843v1.151z"/>
		<path style="fill:#9933a3" d="m499.082 452.054-164.297 100.54h-1.882l166.179-101.692v1.152z"/>
		<path style="fill:#9832a4" d="m499.082 453.206-162.415 99.388h-1.882l164.297-100.54v1.152z"/>
		<path style="fill:#9831a5" d="m499.082 454.357-160.534 98.237h-1.881l162.415-99.388v1.151z"/>
		<path style="fill:#9730a5" d="M499.082 455.509 340.43 552.594h-1.882l160.534-98.237v1.152z"/>
		<path style="fill:#962fa6" d="m499.082 456.661-156.77 95.933h-1.882l158.652-97.085v1.152z"/>
		<path style="fill:#952ea6" d="m499.082 457.812-154.888 94.782h-1.882l156.77-95.933v1.151z"/>
		<path style="fill:#952da7" d="m499.082 458.964-153.006 93.63h-1.882l154.888-94.782v1.152z"/>
		<path style="fill:#942ca7" d="m499.082 460.115-151.124 92.479h-1.882l153.006-93.63v1.151z"/>
		<path style="fill:#932ba8" d="M499.082 461.267 349.84 552.594h-1.882l151.124-92.479v1.152z"/>
		<path style="fill:#922aa8" d="m499.082 462.419-147.36 90.175h-1.882l149.242-91.327v1.152z"/>
		<path style="fill:#9229a9" d="m499.082 463.57-145.478 89.024h-1.882l147.36-90.175v1.151z"/>
		<path style="fill:#9128a9" d="m499.082 464.722-143.596 87.872h-1.882l145.478-89.024v1.152z"/>
		<path style="fill:#9027aa" d="m499.082 465.873-141.715 86.721h-1.881l143.596-87.872v1.151z"/>
		<path style="fill:#8f26aa" d="m499.082 467.025-139.833 85.569h-1.882l141.715-86.721v1.152z"/>
		<path style="fill:#8f25ab" d="m499.082 468.177-137.951 84.417h-1.882l139.833-85.569v1.152z"/>
		<path style="fill:#8e24ac" d="m499.082 469.328-136.069 83.266h-1.882l137.951-84.417v1.151z"/>
		<path style="fill:#8d23ac" d="m499.082 470.48-134.187 82.114h-1.882l136.069-83.266v1.152z"/>
		<path style="fill:#8c22ad" d="m499.082 471.632-132.305 80.962h-1.882l134.187-82.114v1.152z"/>
		<path style="fill:#8c21ad" d="m499.082 472.783-130.423 79.811h-1.882l132.305-80.962v1.151z"/>
		<path style="fill:#8b20ae" d="m499.082 473.935-128.541 78.659h-1.882l130.423-79.811v1.152z"/>
		<path style="fill:#8a1fae" d="m499.082 475.086-126.659 77.508h-1.882l128.541-78.659v1.151z"/>
		<path style="fill:#891eaf" d="m499.082 476.238-124.777 76.356h-1.882l126.659-77.508v1.152z"/>
		<path style="fill:#891daf" d="m499.082 477.39-122.895 75.204h-1.882l124.777-76.356v1.152z"/>
		<path style="fill:#881cb0" d="m499.082 478.541-121.014 74.053h-1.881l122.895-75.204v1.151z"/>
		<path style="fill:#871bb0" d="M499.082 479.693 379.95 552.594h-1.882l121.014-74.053v1.152z"/>
		<path style="fill:#861ab1" d="m499.082 480.844-117.25 71.75h-1.882l119.132-72.901v1.151z"/>
		<path style="fill:#8619b1" d="m499.082 481.996-115.368 70.598h-1.882l117.25-71.75v1.152z"/>
		<path style="fill:#8518b2" d="m499.082 483.148-113.486 69.446h-1.882l115.368-70.598v1.152z"/>
		<path style="fill:#8417b3" d="m499.082 484.299-111.604 68.295h-1.882l113.486-69.446v1.151z"/>
		<path style="fill:#8316b3" d="M499.082 485.451 389.36 552.594h-1.882l111.604-68.295v1.152z"/>
		<path style="fill:#8315b4" d="m499.082 486.603-107.84 65.991h-1.882l109.722-67.143v1.152z"/>
		<path style="fill:#8214b4" d="m499.082 487.754-105.958 64.84h-1.882l107.84-65.991v1.151z"/>
		<path style="fill:#8113b5" d="m499.082 488.906-104.076 63.688h-1.882l105.958-64.84v1.152z"/>
		<path style="fill:#8012b5" d="m499.082 490.057-102.194 62.537h-1.882l104.076-63.688v1.151z"/>
		<path style="fill:#8011b6" d="m499.082 491.209-100.313 61.385h-1.881l102.194-62.537v1.152z"/>
		<path style="fill:#7f10b6" d="m499.082 492.361-98.431 60.233h-1.882l100.313-61.385v1.152z"/>
		<path style="fill:#7e0fb7" d="m499.082 493.512-96.549 59.082h-1.882l98.431-60.233v1.151z"/>
		<path style="fill:#7d0eb7" d="m499.082 494.664-94.667 57.93h-1.882l96.549-59.082v1.152z"/>
		<path style="fill:#7d0db8" d="m499.082 495.815-92.785 56.779h-1.882l94.667-57.93v1.151z"/>
		<path style="fill:#7c0cb9" d="m499.082 496.967-90.903 55.627h-1.882l92.785-56.779v1.152z"/>
		<path style="fill:#7b0bb9" d="m499.082 498.119-89.021 54.475h-1.882l90.903-55.627v1.152z"/>
		<path style="fill:#7a0aba" d="m499.082 499.27-87.139 53.324h-1.882l89.021-54.475v1.151z"/>
		<path style="fill:#7a09ba" d="m499.082 500.422-85.257 52.172h-1.882l87.139-53.324v1.152z"/>
		<path style="fill:#7908bb" d="m499.082 501.574-83.375 51.02h-1.882l85.257-52.172v1.152z"/>
		<path style="fill:#7807bb" d="m499.082 502.725-81.493 49.869h-1.882l83.375-51.02v1.151z"/>
		<path style="fill:#7706bc" d="m499.082 503.877-79.612 48.717h-1.881l81.493-49.869v1.152z"/>
		<path style="fill:#7705bc" d="m499.082 505.028-77.73 47.566h-1.882l79.612-48.717v1.151z"/>
		<path style="fill:#7604bd" d="m499.082 506.18-75.848 46.414h-1.882l77.73-47.566v1.152z"/>
		<path style="fill:#7503bd" d="m499.082 507.332-73.966 45.262h-1.882l75.848-46.414v1.152z"/>
		<path style="fill:#7402be" d="m499.082 508.483-72.084 44.111h-1.882l73.966-45.262v1.151z"/>
		<path style="fill:#7401be" d="m499.082 509.635-70.202 42.959h-1.882l72.084-44.111v1.152z"/>
		<path class="cls-189" d="m499.082 510.786-68.32 41.808h-1.882l70.202-42.959v1.151z"/>
		<path class="cls-189" d="m430.762 552.594 68.32-41.808v41.808h-68.32z"/>
	</g>
	<path class="cls-88" d="M480.587 223.592v2.662l10.306 5.95-170.412 99.033-171.527-99.031 11.028-6.409v-2.679l-15.634 9.085 176.148 101.699 175.003-101.7-14.912-8.61z"/>
	<path class="cls-88" d="M320.499 336.17 140.434 232.209l21.51-12.501v7.219l-9.075 5.273 167.609 96.769 166.501-96.759-8.354-4.823v-7.194l20.788 12.003L320.499 336.17z"/>
	<circle class="cls-379" cx="174.377" cy="278.583" r="2.115"/>
	<circle class="cls-379" cx="160.801" cy="293.483" r="1.496"/>
	<circle class="cls-190" cx="295.762" cy="515.632" r="2.745"/>
	<circle class="cls-190" cx="186.242" cy="459.679" r="1.495"/>
	<circle class="cls-190" cx="155.441" cy="439.236" r="2.17"/>
	<circle class="cls-190" cx="276.254" cy="462.096" r="2.417"/>
	<circle class="cls-190" cx="305.227" cy="450.409" r="1.589"/>
	<circle class="cls-190" cx="268.083" cy="397.565" r="1.689"/>
	<circle class="cls-190" cx="306.839" cy="366.094" r="1.612"/>
	<circle class="cls-190" cx="258.78" cy="341.25" r="3.55"/>
	<circle class="cls-190" cx="288.963" cy="328.358" r="1.16"/>
	<circle class="cls-190" cx="250.072" cy="353.297" r="1.539"/>
	<circle class="cls-190" cx="203.061" cy="359.225" r="1.513"/>
	<circle class="cls-190" cx="217.239" cy="292.893" r="1.556"/>
</svg>
