<svg xmlns="http://www.w3.org/2000/svg" width="200" height="128">
	<path d="M26.471 52.9a6.471 6.471 0 0 1 6.471 6.471v6.346a.126.126 0 0 1-.126.126h-6.345A6.471 6.471 0 0 1 20 59.372a6.471 6.471 0 0 1 6.471-6.472zm-1.495 20.642a6.471 6.471 0 0 1 6.471-6.471h6.346a.126.126 0 0 1 .126.126v6.345a6.471 6.471 0 0 1-6.471 6.471 6.471 6.471 0 0 1-6.472-6.471zm20.581 1.493a6.471 6.471 0 0 1-6.471-6.471v-6.346a.126.126 0 0 1 .126-.126h6.345a6.471 6.471 0 0 1 6.471 6.471 6.471 6.471 0 0 1-6.471 6.471z" fill="#f03748"/>
	<path d="M47.074 54.455a6.471 6.471 0 0 1-6.471 6.471H34.26a.126.126 0 0 1-.126-.126v-6.345a6.471 6.471 0 0 1 6.471-6.471 6.471 6.471 0 0 1 6.469 6.471z" fill="#13202f"/>
	<path d="M72.949 59.828a8.776 8.776 0 0 0-5.078-2.12 6.642 6.642 0 0 0-6.225 6.462 6.373 6.373 0 0 0 6.454 6.084A7.272 7.272 0 0 0 73.017 68l2.5 2.146a10.845 10.845 0 0 1-7.679 3.439 9.3 9.3 0 0 1-9.579-9.412 9.663 9.663 0 0 1 9.579-9.754 10.32 10.32 0 0 1 7.679 3.47zm8.181 13.687h-3.3V54.363h3.3v7.728a4.4 4.4 0 0 1 3.654-1.651c3 0 4.925 2.111 4.925 5.494v7.581h-3.3v-7.094a2.648 2.648 0 1 0-5.277 0zm21.076-1.407a4.836 4.836 0 0 1-3.951 1.519 6.6 6.6 0 0 1 0-13.187 4.881 4.881 0 0 1 3.951 1.411v-1.032h3.328v12.7h-3.328zm0-5.088a3.284 3.284 0 0 0-3.41-3.467 3.484 3.484 0 1 0 0 6.962 3.307 3.307 0 0 0 3.41-3.495zm15.98 2.604a4.7 4.7 0 0 1-2.852 1.158 1.652 1.652 0 0 1-1.746-1.815v-5.225h4.542l-.467-1.436-.485-1.487h-3.617v-3.354h-3.3v3.354h-2.469v2.923h2.442v5.335c0 3.165 2.106 4.817 4.89 4.817a7.887 7.887 0 0 0 4-1.388zm23.023-9.072-4.26 12.963h-4.375l-2.677-8.8-2.59 8.8h-4l-4.231-12.963h3.742l2.561 9.337 2.792-9.337H132l2.85 9.391 2.59-9.391zm-.078 6.494a6.758 6.758 0 1 1 6.739 6.469 6.6 6.6 0 0 1-6.739-6.469zm10.176-.025a3.438 3.438 0 1 0-6.874 0 3.439 3.439 0 1 0 6.874 0zm12.151-6.349a3.7 3.7 0 0 0-3.165 1.717v-1.666h-3.3v12.792h3.3v-6.822a2.725 2.725 0 0 1 2.629-2.869 3.076 3.076 0 0 1 2.119.5v-3.369a3.793 3.793 0 0 0-1.583-.283zM167.5 54.4h3.3v10.834h1.3l3.863-4.682H180l-4.945 6.008 4.79 6.955h-4.14l-3.545-5.277h-1.36v5.277h-3.3z" fill="#13202f"/>
</svg>
