<svg width="592" height="177" fill="none" xmlns="http://www.w3.org/2000/svg">
	<path fill-rule="evenodd" clip-rule="evenodd" d="M560.727 116.189h-21.375l-31.791-83.306h24.115l18.088 51.794 18.087-51.794h24.119l-31.243 83.306Zm-66.596-10.962c-16.443 16.715-43.028 16.715-59.745.548a43.308 43.308 0 0 1-9.594-14.522c-2.192-5.483-3.288-11.51-3.288-17.264 0-6.03 1.096-12.059 3.288-17.538a47.132 47.132 0 0 1 9.046-13.977c3.836-3.835 8.494-7.124 13.429-9.317 5.206-2.19 10.96-3.287 16.443-3.287 5.755 0 11.235 1.097 16.718 3.013 4.932 1.918 9.59 4.934 13.429 9.043 3.836 4.111 7.124 8.768 9.043 13.977 2.192 5.753 3.291 11.781 3.291 18.086 0 6.028-1.099 11.781-3.291 17.264-1.919 5.205-4.933 9.865-8.769 13.974Zm-10.689-40.555c-1.096-2.741-2.466-5.209-4.658-7.124-1.918-1.92-4.113-3.564-6.853-4.66-5.206-2.194-11.235-2.194-16.444 0-2.466 1.096-4.932 2.467-6.576 4.66-1.918 2.19-3.562 4.383-4.384 7.124a26.607 26.607 0 0 0-1.647 9.317c0 3.012.548 6.028 1.647 9.043 1.096 2.738 2.466 5.205 4.384 7.124 1.918 1.919 4.11 3.564 6.576 4.657 2.466 1.097 5.483 1.645 8.223 1.645 2.741 0 5.481-.548 8.221-1.645 2.466-1.093 4.935-2.738 6.853-4.657 1.918-2.193 3.562-4.386 4.658-7.124 2.192-5.757 2.192-12.333 0-18.36Zm-87.426 51.517-16.992-30.145-14.799 19.457v10.688h-21.376V0h21.376v73.44l31.517-40.01h24.392l-27.68 34.528 27.68 48.505-24.118-.274Zm-82.218-56.726c-1.37-1.641-2.74-3.286-4.658-4.383-1.644-1.096-3.562-2.192-5.48-2.74-1.921-.549-4.113-.823-6.031-.823-2.74 0-5.754.548-8.22 1.919-2.469 1.096-4.935 3.015-6.579 4.931-1.918 2.193-3.562 4.934-4.385 7.675-1.096 3.013-1.644 6.576-1.644 9.866 0 2.738.548 5.48 1.644 8.22 1.097 2.465 2.467 4.657 4.385 6.576 1.918 1.92 4.11 3.56 6.579 4.383 4.384 1.92 9.59 2.193 14.251.823 1.918-.549 3.836-1.371 5.48-2.464 1.644-1.097 3.288-2.468 4.384-3.838 1.37-1.645 2.467-3.29 3.289-5.206l15.621 15.619c-1.918 2.739-4.11 5.206-6.85 7.673-2.466 2.193-5.206 4.109-8.223 5.753-3.015 1.645-6.029 2.742-9.317 3.564-3.288.822-6.853 1.097-10.141 1.097-5.754 0-11.237-1.097-16.443-3.29-10.142-4.383-18.362-12.329-22.746-22.469-2.195-5.208-3.291-10.688-3.291-16.441 0-6.03 1.096-12.059 3.291-17.815 2.192-5.48 5.206-10.137 9.042-14.523 3.836-4.108 8.497-7.398 13.43-9.865 5.206-2.467 10.689-3.56 16.443-3.56 3.562 0 6.853.548 10.141 1.367 6.85 1.645 12.882 5.208 17.814 10.14 2.466 2.467 4.932 5.208 6.576 8.494l-15.621 15.622c-.275-2.741-1.371-4.66-2.741-6.305ZM212.672 96.458h2.466c1.918 0 4.11-.274 6.028-.823 1.918-.548 3.836-1.37 5.483-2.464 3.288-2.193 6.028-5.208 7.672-9.043l15.622 15.62c-1.918 2.741-4.11 5.205-6.85 7.672a44.08 44.08 0 0 1-8.224 5.753c-3.014 1.645-6.028 2.742-9.319 3.564-3.562.822-7.124 1.096-10.412 1.096-11.238 0-22.201-4.386-30.147-12.332-3.836-4.109-7.127-8.769-9.045-13.974-2.192-5.483-3.288-11.51-3.288-17.812 0-6.305 1.096-12.333 3.288-18.086a40.377 40.377 0 0 1 22.748-22.746c5.206-2.19 10.961-3.287 16.444-3.287 3.562 0 6.85.274 10.138 1.37 9.867 2.465 18.639 8.496 24.667 16.99l-39.74 47.954c.825.274 1.647.548 2.469.548Zm8.22-44.393c-.822-.274-1.918-.548-3.014-.822-1.096 0-1.918-.274-3.014-.274-2.74 0-5.483.548-8.223 1.644-2.467 1.097-4.933 2.468-6.577 4.66-1.918 1.916-3.562 4.383-4.384 7.125a26.608 26.608 0 0 0-1.647 9.317v2.738c0 1.096.274 1.919.274 3.015 0 1.097.274 1.92.551 3.016.274.822.548 1.644 1.096 2.464l24.938-32.883Zm-80.299 16.716c.274-2.19-.274-4.11-1.096-6.302A16.09 16.09 0 0 0 131 53.984c-1.919-.822-4.111-1.37-6.029-1.37-6.576 0-12.333 3.837-14.799 9.865-.822 1.919-1.37 4.112-1.37 6.302v47.408H87.7V0h21.102v36.72c2.466-1.919 4.932-3.29 7.949-4.111 2.74-.823 5.48-1.097 8.22-1.097 4.932 0 9.868.822 14.526 3.015 4.384 1.92 8.497 4.66 11.785 7.947 3.288 3.564 6.028 7.398 7.946 11.784 1.918 4.657 3.014 9.591 3.014 14.523v47.408h-21.375l-.274-47.408ZM58.65 59.463c-1.37-1.641-2.74-3.286-4.662-4.383-1.644-1.096-3.562-2.192-5.48-2.74-1.918-.549-4.11-.823-6.028-.823-2.74 0-5.757.548-8.223 1.919-2.466 1.096-4.932 3.015-6.576 4.931-1.918 1.919-3.562 4.66-4.661 7.401-1.096 3.013-1.644 6.576-1.644 9.866 0 2.738.548 5.48 1.644 8.22 1.099 2.464 2.469 4.657 4.387 6.576 1.918 1.92 4.11 3.56 6.576 4.383 4.384 1.919 9.593 2.193 14.251.822 1.918-.548 3.836-1.37 5.48-2.464 1.648-1.096 3.291-2.467 4.388-3.837 1.37-1.645 2.466-3.29 3.288-5.206l15.621 15.62c-1.918 2.741-4.11 5.205-6.85 7.672a44.045 44.045 0 0 1-8.223 5.753c-3.014 1.645-6.029 2.742-9.32 3.564-3.288.822-6.85 1.096-10.138 1.096-5.757 0-11.237-1.096-16.443-3.289-10.142-4.383-18.365-12.33-22.749-22.469C1.096 86.867 0 81.387 0 75.634c0-6.031 1.096-12.059 3.288-17.812 2.192-5.483 5.21-10.14 9.045-14.526 3.836-4.109 8.495-7.398 13.43-9.865 5.206-2.464 10.686-3.56 16.443-3.56 3.562 0 6.85.548 10.138 1.37 6.854 1.642 12.882 5.205 17.817 10.136 2.466 2.467 4.932 5.209 6.576 8.495L61.116 65.494c0-2.467-1.096-4.386-2.466-6.03Z" fill="#052882"/>
	<path fill-rule="evenodd" clip-rule="evenodd" d="M346.002 135.73h5.191v10.657h.042a5.06 5.06 0 0 1 1.53-.837 15.928 15.928 0 0 1 2.821-.901l.991-.084a5.405 5.405 0 0 1 1.873 0l.756.042c1.743.428 3.188.834 4.48 1.651a11.978 11.978 0 0 1 4.652 5.705c.172.515.301 1.027.41 1.564.367 1.461.409 2.982.129 4.461-.217.922-.472 1.822-.84 2.681-1.421 3.217-4.071 5.274-7.603 6.413-.518.172-1.014.127-1.575.256-.493.087-.99.109-1.484.087a10.527 10.527 0 0 1-5.947-1.78 11.6 11.6 0 0 1-4.845-6.326c-.777-2.337-.581-5.621-.581-8.666V135.73Zm66.774 0h5.191c-.021 3.795-.021 7.57-.042 11.365v3.708a9.604 9.604 0 0 1-.043 1.91v2.015c0 1.672.043 3.432-.367 4.718-.774 2.404-2.349 4.482-4.435 5.919-.368.259-.735.386-1.12.624-1.768 1.072-5.237 1.994-8.058 1.198-3.941-1.114-6.633-3.388-8.142-6.904a17.234 17.234 0 0 1-.668-2.358c-.41-1.609-.043-4.16.409-5.405 1.379-3.711 3.511-5.982 7.218-7.356 1.656-.599 4.48-.9 6.482-.322 1.25.364 2.455.901 3.575 1.566V135.73Zm-20.376 1.65h.259c.042.043.084.106.129.172.151.172.084.729.084 1.027v2.811c0 .407.109.964-.213 1.072-.196.151-.777.085-1.12.085h-2.951c-.368 0-1.078-.022-.907-.449l1.25-1.202 3.469-3.516Zm-15.811 30.217h-5.191v-10.423c0-2.165-.13-4.482.409-6.157.949-2.895 2.671-4.801 5.384-5.916 2.348-.946 5.408-.452 8.25-.364v.084c-.301.428-.56.879-.795 1.374a136.48 136.48 0 0 1-1.337 2.144c-.216.365-.497 1.265-.99 1.287-.238-.151-1.033-.046-1.292 0l-.756.042c-.99.235-1.852.427-2.454 1.03-1.4 1.392-1.292 3.344-1.292 6.112v10.787h.064Zm116.254 0v-10.552c0-1.994-.172-4.269.322-5.832.928-2.898 2.544-4.913 5.236-6.028.69-.256 1.4-.448 2.111-.578l1.078-.087a6.957 6.957 0 0 1 1.873-.043c.539.109 1.25 0 1.831.13.539.084 1.078.13 1.617.13v.042a6.59 6.59 0 0 0-.627 1.072c-.539.859-1.078 1.78-1.614 2.636-.195.322-.409 1.093-.864 1.117-.235-.15-1.033-.045-1.292 0l-.794.043a5.85 5.85 0 0 0-2.286.9c-1.463 1.052-1.421 3.151-1.421 5.706v11.278a6.03 6.03 0 0 1-1.659.042h-3.511v.024ZM455.9 144.52a11.737 11.737 0 0 1 2.608.087c1.099.214 2.153.536 3.188.943 3.34 1.458 6.074 4.91 6.592 9.178-.41.109-.819.26-1.208.452-.903.386-1.852.621-2.734.985-.56.235-1.099.302-1.659.537-1.81.75-3.749 1.328-5.558 2.057-1.163.473-2.391.816-3.532 1.289-.389.148-.949.193-1.25.449h.042c.28.322.627.6.991.795 1.099.729 3.146 1.413 4.977.856 1.614-.47 2.993-1.371 3.77-2.681 1.099.602 2.261 1.16 3.36 1.738.301.151 1.099.428 1.163.75a3.067 3.067 0 0 0-.494.75c-.304.431-.735.753-1.036 1.16a2.215 2.215 0 0 1-.28.364c-.602.449-1.141 1.006-1.789 1.416a14.776 14.776 0 0 1-4.263 1.651l-.991.084a4.726 4.726 0 0 1-1.12.045c-1.939-.15-3.017-.343-4.393-.945-3.21-1.392-5.3-3.688-6.441-7.14-.433-1.331-.798-3.669-.367-5.341.238-1.009.56-2.015.948-2.982 1.12-2.53 3.511-4.609 6.095-5.702a18.43 18.43 0 0 1 2.369-.666c.323-.063.777.021 1.012-.129Zm25.57 0c3.102-.064 5.254.581 7.088 1.738.623.385 1.12.943 1.744 1.328v.045h-.043l-3.577 3.603c-.238-.15-.451-.322-.668-.494-.56-.364-1.141-.666-1.786-.858-3.727-1.223-6.85 1.436-7.841 3.837a8.836 8.836 0 0 0-.409 2.232c-.021.838.15 1.651.494 2.401a6.394 6.394 0 0 0 4.351 3.841c1.788.536 3.77-.108 4.848-.795a3.177 3.177 0 0 0 1.032-.75h.046v.042l3.616 3.56v.043h-.042c-.365.515-1.078.879-1.614 1.244-2.198 1.458-6.098 2.639-9.545 1.479-3.876-1.287-6.483-3.775-7.754-7.633-.452-1.374-.819-3.712-.364-5.447.171-.774.385-1.524.665-2.274 1.141-2.615 3.21-4.931 5.818-6.07a19.848 19.848 0 0 1 2.499-.834c.343-.13 1.162-.067 1.442-.238Zm34.938 0a11.858 11.858 0 0 1 3.125.171c3.619.922 5.944 2.597 7.669 5.362a10.307 10.307 0 0 1 1.614 4.675c-.518.151-1.033.344-1.529.579-.904.385-1.852.623-2.735.988-.56.235-1.099.298-1.659.536-1.809.75-3.748 1.329-5.558 2.057-1.033.431-2.09.708-3.08 1.115-.41.172-1.054.217-1.379.494h.045c.301.343.665.624 1.075.837 1.12.708 3.08 1.329 4.89.835 1.508-.428 3.146-1.437 3.77-2.678 1.099.599 2.282 1.136 3.36 1.735.301.172 1.099.407 1.162.75a4.181 4.181 0 0 0-.452.708c-.28.386-.623.729-.903 1.115a3.996 3.996 0 0 1-.71.623c-.561.407-1.057.943-1.66 1.329-1.27.795-2.716 1.201-4.396 1.608l-.752.042c-1.464.323-3.728-.192-4.782-.62a11.664 11.664 0 0 1-1.789-.75 11.682 11.682 0 0 1-5.429-6.862 10.14 10.14 0 0 1-.451-3.389c.021-.386.021-.771.042-1.16a18.24 18.24 0 0 1 .539-2.359c1.249-3.087 3.21-5.467 6.227-6.774a16.928 16.928 0 0 1 2.324-.75l1.422-.217Zm-85.774.045c6.808-.13 10.729 3.729 12.192 8.877.518 1.823.322 4.181.28 6.326v3.603a7.235 7.235 0 0 1 0 1.651c-.129.578.042 1.138-.087 1.696a17.135 17.135 0 0 1-.666 2.551 12.371 12.371 0 0 1-3.899 5.169 13.863 13.863 0 0 1-3.899 1.949c-.539.172-1.057.151-1.659.28a8.653 8.653 0 0 1-2.692.042l-1.702-.322c-1.294-.385-2.52-.985-3.661-1.735-.259-.172-.476-.431-.714-.624a7.066 7.066 0 0 1-1.484-1.521c-.172-.235-.518-.452-.581-.795a6.484 6.484 0 0 0 1.033-.985l1.659-1.609c.259-.256.689-.858 1.032-.985v.043c.28.343.518.728.756 1.114a6.446 6.446 0 0 0 2.692 1.973 6.835 6.835 0 0 0 4.393.042c2.241-.813 4.267-2.786 4.309-5.747h-.042c-.41.301-.861.557-1.337.75-2.069 1.072-5.643 1.608-8.38.708-3.833-1.265-6.374-3.838-7.645-7.676-.476-1.415-.777-3.925-.28-5.663.193-.792.452-1.563.753-2.316a11.56 11.56 0 0 1 5.859-5.832c.753-.301 1.53-.557 2.328-.75l1.442-.214Zm-43.166.343h5.191v22.689h-5.191v-22.689Zm144.106.32h5.149c.063.451.085.9.042 1.373v12.694c.064.301.13.603.214.901.196.602.56 1.117 1.036 1.524 1.701 1.265 4.351.708 5.321-.837.731-1.157.581-3.193.581-5.082v-10.573h5.149v10.66c0 1.693-.196 3.751.451 4.823.645 1.072 1.358 1.395 2.779 1.696 1.271.277 2.78-.708 3.186-1.332.864-1.22.714-3.129.714-5.211v-10.636h5.146v9.714c0 1.738.195 4.206-.172 5.664a10.134 10.134 0 0 1-1.487 3.473 5.385 5.385 0 0 1-.991 1.244 10.79 10.79 0 0 1-3.661 1.973c-.494.151-.949.084-1.485.214a3.202 3.202 0 0 1-1.12.042h-.711c-.325-.063-.713-.063-1.035-.172a9.3 9.3 0 0 1-2.909-1.37 4.877 4.877 0 0 1-1.292-1.073c-.021 0-.021.021-.042.042l-.949.859a10.469 10.469 0 0 1-2.734 1.416c-1.96.641-4.567.214-6.097-.452-2.584-1.115-4.05-3.109-4.848-5.983-.406-1.458-.214-3.602-.214-5.362v-10.229h-.021Zm-174.524 4.376c-.28.064-.581.106-.861.127a10 10 0 0 0-1.292.41 6.503 6.503 0 0 0-3.36 3.557 6.24 6.24 0 0 0-.323 1.244c-.15.88-.108 1.781.172 2.639.623 2.058 1.767 3.431 3.661 4.223.603.259 2.027.754 3.039.537a11.293 11.293 0 0 0 1.701-.365 6.641 6.641 0 0 0 3.661-3.431 9.48 9.48 0 0 0 .452-1.563c.28-1.244-.129-2.639-.452-3.431-1.054-2.383-3.014-3.947-6.398-3.947Zm48.921 0a2.304 2.304 0 0 1-.669.085c-.473.108-.927.235-1.379.406a6.662 6.662 0 0 0-3.532 3.754c-.087.407-.193.795-.28 1.202a5.352 5.352 0 0 0 .259 2.723 6.19 6.19 0 0 0 3.683 4.055c.56.234 1.96.704 2.908.491a13.09 13.09 0 0 0 1.831-.407 6.667 6.667 0 0 0 3.577-3.431c.172-.452.322-.922.407-1.416a5.714 5.714 0 0 0-.172-2.765c-.753-2.317-2.132-3.775-4.435-4.504-.714-.15-1.446-.238-2.198-.193Zm50.384 0a2.304 2.304 0 0 1-.669.085c-.43.087-.861.214-1.291.364-1.961.817-3.921 2.895-3.945 5.618h.045a6.94 6.94 0 0 1 .581-.214c.582-.235 1.208-.406 1.831-.665 1.96-.793 4.071-1.437 6.01-2.229.56-.235 1.162-.407 1.701-.621.323-.066.627-.172.907-.322-.368-.238-.669-.645-1.036-.901-1.054-.729-2.303-1.093-4.134-1.115Zm60.528 0a2.927 2.927 0 0 1-.626.085c-.473.108-.945.235-1.421.406a6.35 6.35 0 0 0-3.854 5.576h.042c.217-.105.451-.192.71-.256.581-.235 1.208-.406 1.831-.665 1.918-.793 3.987-1.416 5.902-2.187.626-.256 1.249-.428 1.831-.666a3.44 3.44 0 0 0 .797-.277c-.343-.214-.581-.603-.903-.838-1.165-.75-2.415-1.156-4.309-1.178Zm-85.797.043a2.325 2.325 0 0 1-.669.084c-.472.108-.924.238-1.376.41-1.574.683-2.8 1.973-3.447 3.557a9.11 9.11 0 0 0-.368 1.437 5.324 5.324 0 0 0 .217 2.53c.669 2.082 1.789 3.41 3.725 4.227.56.235 1.984.708 2.909.494a13.458 13.458 0 0 0 1.83-.41 6.59 6.59 0 0 0 3.62-3.515c.15-.407.28-.838.367-1.287a6.084 6.084 0 0 0-.217-2.982c-.623-2.102-2.282-3.753-4.393-4.331a7.566 7.566 0 0 0-2.198-.214Z" fill="#000"/>
	<path d="M292.556 150.046c.639-1.111 1.583-1.944 2.833-2.499a9.724 9.724 0 0 1 3.999-.833c1.333 0 2.597.236 3.791.708a9.098 9.098 0 0 1 3.125 2.041c.916.861 1.624 1.917 2.124 3.166.528 1.25.792 2.653.792 4.208 0 1.555-.264 2.958-.792 4.208-.527 1.249-1.25 2.319-2.166 3.208a9.993 9.993 0 0 1-3.125 2.041 10.219 10.219 0 0 1-3.791.708 8.709 8.709 0 0 1-2.041-.25 9.083 9.083 0 0 1-1.916-.625 9.12 9.12 0 0 1-1.625-1.083 6.162 6.162 0 0 1-1.208-1.458v1.291c0 .528-.181.986-.542 1.375-.361.361-.819.542-1.375.542-.527 0-.972-.181-1.333-.542a1.954 1.954 0 0 1-.541-1.375v-26.62c0-.528.18-.972.541-1.334a1.751 1.751 0 0 1 1.333-.583c.556 0 1.014.195 1.375.583.361.362.542.806.542 1.334v11.789Zm.041 6.749c0 1.028.167 1.944.5 2.75a6.39 6.39 0 0 0 1.417 2.041 6.721 6.721 0 0 0 2.083 1.292 7.268 7.268 0 0 0 2.458.416c.861 0 1.68-.152 2.458-.458a6.306 6.306 0 0 0 1.999-1.333 6.82 6.82 0 0 0 1.333-2.041c.334-.806.5-1.695.5-2.667 0-.972-.166-1.847-.5-2.624a6.294 6.294 0 0 0-1.333-2 5.773 5.773 0 0 0-1.999-1.291 6.654 6.654 0 0 0-2.458-.459c-.778 0-1.556.139-2.333.417a6.497 6.497 0 0 0-2.083 1.208c-.611.528-1.111 1.194-1.5 2-.361.805-.542 1.722-.542 2.749Z" fill="#000"/>
	<path d="m321.357 161.211 5.416-13.123a1.77 1.77 0 0 1 1-.999c.5-.223.986-.237 1.458-.042.5.194.847.541 1.042 1.041.194.473.18.945-.042 1.417l-10.665 25.496a1.772 1.772 0 0 1-1 1 1.776 1.776 0 0 1-1.458.041 1.768 1.768 0 0 1-.958-1.041 1.92 1.92 0 0 1 .042-1.417l3.082-7.582-6.832-16.539c-.166-.472-.153-.958.042-1.458.222-.528.583-.861 1.083-1 .528-.139 1-.097 1.416.125.445.195.778.556 1 1.083l5.374 12.998Z" fill="#000"/>
</svg>
