<svg xmlns="http://www.w3.org/2000/svg" viewBox="0 0 206.5 36">
	<defs>
		<style>
			.cls-1{fill:#ea8697}.cls-2{fill:#060e9f}.cls-3{fill:#fff}.cls-4{fill:#fd0}.cls-5{fill:#c3002f}.cls-6{fill:#231f20}
		</style>
	</defs>
	<g id="Layer_2" data-name="Layer 2">
		<g id="Layer_1-2" data-name="Layer 1">
			<path class="cls-1" d="M0 0h40v36H0z"/>
			<path class="cls-2" d="M25.38 21.39a47.54 47.54 0 0 1-7.81.45 17.69 17.69 0 0 1-3-.46c-.54-.11-1.09-.17-1.64-.29s-1.6-.14-1.91-.49a6.69 6.69 0 0 1-.86-2.39C9.93 17.14 9.82 16 9.5 15a11.72 11.72 0 0 1-.2-3.23 12.18 12.18 0 0 1 .19-2.85A11.16 11.16 0 0 1 11 5.23a2.85 2.85 0 0 1 .85-1 3.77 3.77 0 0 1 1.59-.29c2.62 0 5.25.12 7.88.16 1.48 0 3 .06 4.44 0 .7 0 1.4 0 2.1-.07s1.15-.18 1.73-.23a1.72 1.72 0 0 1 1.24.46c.32.27.21.51.2.95a26 26 0 0 0 .31 3.94c.3 2.32.91 4.56 1.1 6.88a7.67 7.67 0 0 1-.39 3.83c-.36.69-1.44.7-2 .79-.88.14-1.8.27-2.69.33-.72 0-1.3.28-2 .39"/>
			<path class="cls-3" d="M13 5.36c.41-.91 1.51-.5 2.28-.43s1.46.17 2.19.31A23.63 23.63 0 0 0 24 6a21.12 21.12 0 0 0 3.15-.36c.85-.21 2.21-.3 2.52.77a11.36 11.36 0 0 1 0 3c0 1.19.09 2.37.11 3.56s0 2.18.12 3.24c.06.57.21 1.45-.16 1.94-.54.71-1.57.77-2.36 1a34.44 34.44 0 0 1-3.39.7c-1.53.24-3.1.25-4.62.54a10.48 10.48 0 0 1-2.53 0 12.19 12.19 0 0 1-1.8-.19 15.63 15.63 0 0 1-2-.39c-1.23-.43-1.2-1.45-1.2-2.61 0-1.38-.06-2.75 0-4.13s.29-2.76.45-4.12c.08-.68.22-1.32.26-2A2.41 2.41 0 0 1 13 5.36c.27-.58-.08.08 0 0Z"/>
			<path class="cls-2" d="M34.61 29.46a12.72 12.72 0 0 1-3.29.37c-1.36.08-2.72 0-4.09.05s-2.71.19-4.07.23c-.65 0-1.28-.12-1.93-.09l-1.67.09a10.89 10.89 0 0 0-1.76.29 16.33 16.33 0 0 1-2.22.21c-1.37.12-2.76.5-4.12.73s-2.53.61-3.81.93c-.85.21-2.16.6-2.92 0s-.64-1.76-.81-2.59c-.21-1-.51-2 .43-2.79a11.29 11.29 0 0 1 2.25-1.36 18.51 18.51 0 0 1 3.69-1.25 73.57 73.57 0 0 1 8.06-1.67c2.7-.34 5.4-.54 8.1-.74 1.67-.13 3.36-.1 5-.15 1 0 2.92-.24 3.45.87a3.88 3.88 0 0 1 .12 1.56 9.12 9.12 0 0 0 .13 1.29c.1.73.15 1.46.19 2.19a2 2 0 0 1-.79 1.85"/>
			<circle class="cls-3" cx="8.92" cy="27.18" r=".65"/>
			<circle class="cls-3" cx="13.43" cy="27.15" r=".65"/>
			<circle class="cls-3" cx="15.1" cy="27.68" r=".65"/>
			<circle class="cls-3" cx="16.97" cy="25.25" r=".65"/>
			<circle class="cls-3" cx="18.5" cy="26.92" r=".65"/>
			<circle class="cls-3" cx="18.72" cy="24.23" r=".65"/>
			<circle class="cls-3" cx="12.61" cy="29.13" r=".65"/>
			<circle class="cls-3" cx="10.59" cy="29.49" r=".65"/>
			<circle class="cls-4" cx="16.94" cy="28.08" r=".44"/>
			<circle class="cls-4" cx="13.7" cy="24.9" r=".44"/>
			<circle class="cls-4" cx="11.6" cy="27.13" r=".44"/>
			<circle class="cls-4" cx="8.5" cy="29.65" r=".44"/>
			<circle class="cls-4" cx="24.57" cy="24.94" r=".86"/>
			<circle class="cls-4" cx="29.54" cy="25.16" r=".86"/>
			<circle class="cls-4" cx="27.71" cy="26.83" r=".86"/>
			<circle class="cls-4" cx="25.54" cy="27.83" r=".86"/>
			<path class="cls-2" d="M17.41 9.65h-1.57V8.07h1.58Zm-.26-1.32h-1.06v1.06h1.06Z"/>
			<path class="cls-2" d="M27.33 8.58h-1.58V7h1.58ZM26 8.33h1.06V7.27H26Z"/>
			<path class="cls-2" d="M29.07 14.57H27.5V13h1.58Zm-1.32-.26h1.06v-1.06h-1.06Z"/>
			<path class="cls-2" d="M23.25 16h-1.58v-1.53h1.58Zm-1.32-.26H23v-1.02h-1.07Z"/>
			<path class="cls-2" d="M20.36 15.63h-1.57v-1.57h1.58ZM19 15.38h1.06v-1.06H19Z"/>
			<path class="cls-2" d="m14.29 17.44-1.41-.71.72-1.4L15 16Zm-1.06-.83.95.48.48-.94-.95-.48Z"/>
			<path class="cls-2" d="m26.64 9.57.05-1.08h-.29l-.05 1.07-4.83 1.64-4.76-.8v-.87h-.26v.94l-2.11 4.66 5.3-1.76 2.66.37v.06h.09l3.26-1.48 2.74-.06h.07Zm-1.58.62-3.16 1.7-.21-.55Zm-3.63 1.18.25.64-1 .51-3.26-1.82Zm-1.8 1.73h-.07l-4.7 1.6 1.86-4.11 3.73 2.07Zm.43.06.65-.35 1.06.59Zm.92-.5.78-.42.42 1.09Zm1-.54 4.23-2.28-.68 2.22-3 1.39Zm3.91-.12.65-2.13L28 12Z"/>
			<path class="cls-2" d="M28.41 13.19h-.26V12h.26Z"/>
			<path class="cls-2" d="m14.29 15.9-.23-.11.46-1 .23.11Z"/>
			<path class="cls-2" d="M19.72 14.27h-.31v-1.1h.31Z"/>
			<path class="cls-2" d="M22.61 14.7h-.31v-1.17h.31Z"/>
			<circle class="cls-5" cx="26.48" cy="9.56" r=".61"/>
			<circle class="cls-5" cx="19.6" cy="13.24" r=".65"/>
			<circle class="cls-5" cx="21.5" cy="11.19" r=".62"/>
			<circle class="cls-1" cx="14.68" cy="14.92" r=".62"/>
			<circle class="cls-1" cx="25.68" cy="12.14" r=".61"/>
			<circle class="cls-4" cx="28.29" cy="12.08" r=".62"/>
			<circle class="cls-4" cx="16.62" cy="10.44" r=".62"/>
			<circle class="cls-4" cx="22.46" cy="13.62" r=".62"/>
			<path class="cls-6" d="M61.83 7.72C61.21 4.58 58.7 3 55.62 3c-5.28 0-7.51 4.35-7.51 9 0 5.06 2.24 9.29 7.55 9.29 3.88 0 6.12-2.73 6.4-6.4H65c-.56 5.53-4 8.88-9.6 8.88-6.89 0-10.25-5.09-10.25-11.55S48.82.51 55.65.51c4.63 0 8.45 2.49 9.13 7.21Z"/>
			<path class="cls-6" d="M67.45 1h2.64v8.52h.06c.87-1.93 3.14-2.73 5.06-2.73 4.22 0 5.53 2.42 5.53 5.87v10.55H78.1V12.35a3 3 0 0 0-3.26-3.23c-3.2 0-4.75 2.14-4.75 5v9.07h-2.64Z"/>
			<path class="cls-6" d="M97.14 18.12c-.71 3.54-3.26 5.47-6.86 5.47-5.12 0-7.55-3.54-7.7-8.45 0-4.81 3.17-8.35 7.55-8.35 5.68 0 7.42 5.31 7.27 9.19h-12c-.09 2.8 1.49 5.28 5 5.28a3.87 3.87 0 0 0 4.16-3.14Zm-2.54-4.47A4.62 4.62 0 0 0 90 9.12a4.57 4.57 0 0 0-4.6 4.53Z"/>
			<path class="cls-6" d="M110.74 12.31a3.74 3.74 0 0 0-4-3.2c-3.82 0-5 3-5 6.27 0 2.95 1.33 5.87 4.69 5.87a4.15 4.15 0 0 0 4.41-3.91h2.7c-.59 3.91-3 6.24-7.09 6.24-4.9 0-7.51-3.42-7.51-8.2s2.48-8.6 7.58-8.6c3.64 0 6.55 1.71 6.93 5.53Z"/>
			<path class="cls-6" d="M115.74 1h2.64v13.18l7.33-7h3.54L122.89 13l6.83 10.22h-3.35l-5.5-8.38-2.48 2.3v6.09h-2.64Z"/>
			<path class="cls-6" d="M139.22 1h9.72c4.41 0 6.8 2.45 6.8 6.55s-2.39 6.58-6.8 6.55h-6.77v9.07h-2.95Zm2.95 10.62h5.78c3.32 0 4.84-1.43 4.84-4.07s-1.52-4.07-4.84-4.07h-5.78Z"/>
			<path class="cls-6" d="M164.47 6.79c5.09 0 7.8 3.7 7.8 8.42s-2.7 8.39-7.8 8.39-7.8-3.7-7.8-8.39 2.71-8.42 7.8-8.42Zm0 14.47c2.77 0 5-2.17 5-6.06s-2.24-6.09-5-6.09-5 2.17-5 6.09 2.24 6.06 5 6.06Z"/>
			<path class="cls-6" d="M177.48 4.27h-2.64V1h2.64Zm-2.64 2.89h2.64v16.05h-2.64Z"/>
			<path class="cls-6" d="M180.8 7.16h2.48v2.55h.06a5.59 5.59 0 0 1 5.22-2.92c4.22 0 5.53 2.42 5.53 5.87v10.55h-2.64V12.35a3 3 0 0 0-3.26-3.23c-3.2 0-4.75 2.14-4.75 5v9.07h-2.64Z"/>
			<path class="cls-6" d="M201 7.16h3.2v2.33H201v10c0 1.21.34 1.43 2 1.43h1.21v2.33h-2c-2.73 0-3.82-.56-3.82-3.51V9.49h-2.73V7.16h2.73V2.35H201Z"/>
			<path class="cls-6" d="M50.31 30.76a1.54 1.54 0 0 0-1.74-1.44c-.79 0-1.57.28-1.57 1.2s1.12 1 2.25 1.24 2.24.65 2.24 2-1.49 2.13-2.74 2.13c-1.57 0-2.9-.77-2.9-2.48h.88c0 1.18 1 1.69 2 1.69.84 0 1.78-.26 1.78-1.28s-1.12-1.13-2.24-1.37-2.25-.57-2.25-1.86 1.27-2.05 2.55-2.05c1.43 0 2.52.68 2.59 2.22Z"/>
			<path class="cls-6" d="M55.91 28.54a3.37 3.37 0 0 1 3.36 3.67 3.37 3.37 0 1 1-6.72 0 3.37 3.37 0 0 1 3.36-3.67Zm0 6.56c1.71 0 2.43-1.47 2.43-2.89s-.72-2.89-2.43-2.89-2.43 1.47-2.43 2.89.72 2.89 2.43 2.89Z"/>
			<path class="cls-6" d="M60.73 28.7h4.61v.79h-3.68v2.23h3.22v.79h-3.22v3.21h-.93Z"/>
			<path class="cls-6" d="M68.4 29.49h-2.34v-.79h5.61v.79h-2.33v6.23h-.94Z"/>
			<path class="cls-6" d="M79.48 35.72h-1l-1.6-5.9-1.62 5.9h-1l-1.8-7h1l1.38 5.84 1.57-5.84h1L79 34.54l1.43-5.84h.93Z"/>
			<path class="cls-6" d="M83.92 28.7h1l2.74 7h-1l-.76-2.1h-3l-.79 2.11h-1Zm-.7 4.12h2.38l-1.17-3.27Z"/>
			<path class="cls-6" d="M88.74 28.7H92c1.32 0 2.13.72 2.13 1.84A1.68 1.68 0 0 1 93 32.32c.82.16 1 .76 1.05 1.44a3.6 3.6 0 0 0 .41 1.94h-1c-.27-.28-.12-1-.26-1.73s-.27-1.27-1.17-1.27h-2.36v3h-.94Zm2.88 3.23c.87 0 1.62-.22 1.62-1.25A1.11 1.11 0 0 0 92 29.49h-2.33v2.44Z"/>
			<path class="cls-6" d="M95.82 28.7h4.85v.79h-3.91v2.23h3.64v.79h-3.64v2.43h3.94v.78h-4.88Z"/>
			<path class="cls-6" d="M106.86 29.49h-2.34v-.79h5.61v.79h-2.34v6.23h-.93Z"/>
			<path class="cls-6" d="M111.26 28.7h4.84v.79h-3.91v2.23h3.65v.79h-3.65v2.43h3.94v.78h-4.87Z"/>
			<path class="cls-6" d="M122.55 30.82a1.85 1.85 0 0 0-2-1.49c-1.67 0-2.38 1.38-2.38 2.84s.71 2.94 2.39 2.94a2 2 0 0 0 2-2h.94a2.86 2.86 0 0 1-3 2.81c-2.18 0-3.24-1.61-3.24-3.66s1.16-3.69 3.32-3.69a2.68 2.68 0 0 1 2.89 2.28Z"/>
			<path class="cls-6" d="M125.07 28.7h.93v3h3.7v-3h.93v7h-.93v-3.2H126v3.21h-.93Z"/>
			<path class="cls-6" d="M132.51 28.7h1l3.69 5.69V28.7h.89v7h-1l-3.66-5.63v5.63h-.89Z"/>
			<path class="cls-6" d="M142.94 28.54a3.37 3.37 0 0 1 3.36 3.67 3.37 3.37 0 1 1-6.72 0 3.37 3.37 0 0 1 3.36-3.67Zm0 6.56c1.71 0 2.43-1.47 2.43-2.89s-.72-2.89-2.43-2.89-2.43 1.47-2.43 2.89.72 2.89 2.43 2.89Z"/>
			<path class="cls-6" d="M147.7 28.7h.93v6.23h3.72v.78h-4.65Z"/>
			<path class="cls-6" d="M156.33 28.54a3.37 3.37 0 0 1 3.36 3.67 3.37 3.37 0 1 1-6.72 0 3.37 3.37 0 0 1 3.36-3.67Zm0 6.56c1.71 0 2.43-1.47 2.43-2.89s-.72-2.89-2.43-2.89-2.43 1.47-2.43 2.89.72 2.89 2.43 2.89Z"/>
			<path class="cls-6" d="M166.43 34.84a2.74 2.74 0 0 1-2.25 1 3.36 3.36 0 0 1-3.34-3.54c0-2 1.12-3.81 3.34-3.81a2.72 2.72 0 0 1 3 2.33h-.93a1.9 1.9 0 0 0-2.08-1.54c-1.7 0-2.4 1.47-2.4 3a2.52 2.52 0 0 0 2.4 2.8 2.11 2.11 0 0 0 2.25-2.29h-2.24V32h3.08v3.69h-.59Z"/>
			<path class="cls-6" d="M169 28.7h1v7h-1Z"/>
			<path class="cls-6" d="M171.9 28.7h4.84v.79h-3.91v2.23h3.65v.79h-3.65v2.43h3.94v.78h-4.87Z"/>
			<path class="cls-6" d="M182.32 30.76a1.53 1.53 0 0 0-1.74-1.44c-.79 0-1.57.28-1.57 1.2s1.12 1 2.25 1.24 2.24.65 2.24 2-1.46 2.09-2.74 2.09c-1.57 0-2.9-.77-2.9-2.48h.88c0 1.18 1 1.69 2 1.69.84 0 1.78-.26 1.78-1.28s-1.12-1.13-2.24-1.37-2.25-.57-2.25-1.86 1.27-2.05 2.54-2.05c1.44 0 2.53.68 2.59 2.22Z"/>
			<path class="cls-6" d="M187.91 28.7h.93v6.23h3.71v.78h-4.65Z"/>
			<path class="cls-6" d="M194.47 29.49h-2.34v-.79h5.61v.79h-2.34v6.23h-.93Z"/>
			<path class="cls-6" d="M198.87 28.7h2.41c2.16 0 3.37 1.08 3.37 3.34s-1 3.68-3.37 3.68h-2.41Zm.93 6.23h1.55c.64 0 2.36-.18 2.36-2.76 0-1.67-.62-2.68-2.34-2.68h-1.57Z"/>
			<path class="cls-6" d="M205.41 35.72h1.09v-1.09h-1.09Z"/>
			<path class="cls-6" d="M204.49 2.11a1.77 1.77 0 1 1-1.78 1.76 1.76 1.76 0 0 1 1.78-1.76Zm0 3.28a1.46 1.46 0 0 0 1.45-1.52 1.46 1.46 0 1 0-2.92 0 1.46 1.46 0 0 0 1.47 1.52Zm-.69-2.55h.8c.49 0 .72.2.72.59a.53.53 0 0 1-.54.56l.59.91H205l-.54-.9h-.34v.89h-.32Zm.32.92h.33c.28 0 .54 0 .54-.34s-.24-.32-.45-.32h-.43Z"/>
		</g>
	</g>
</svg>
