<svg xmlns="http://www.w3.org/2000/svg" width="200" height="128">
    <path d="M57.951 98.413v-.059A10.461 10.461 0 0 1 68.683 87.71a10.624 10.624 0 0 1 8.117 3.175l-2.882 3.323a7.6 7.6 0 0 0-5.264-2.322 6.1 6.1 0 0 0-5.97 6.414v.059c0 3.529 2.441 6.469 5.969 6.469a7.432 7.432 0 0 0 5.411-2.411l2.881 2.911A10.518 10.518 0 0 1 68.507 109a10.39 10.39 0 0 1-10.556-10.587M81.844 88.036h4.529v8.148h8.354v-8.148h4.531v20.591h-4.531v-8.266h-8.354v8.266h-4.529zM104.766 88.036H120.3v4.03h-11.033v4.176h9.707v4.031h-9.707v4.327h11.179v4.03h-15.68zM126.372 88.036h15.677v4.119H130.9v4.382h9.826v4.118H130.9v7.972h-4.528V88.036zM100.566 60.809a12.983 12.983 0 1 1 12.472-16.586h5.023a17.86 17.86 0 1 0 0 7.208h-5.023a13 13 0 0 1-12.472 9.378" fill="#435363"/>
    <path d="M91.814 56.578a12.342 12.342 0 0 0 8.752 3.632v-5.176a7.194 7.194 0 0 1-5.1-2.112l-3.656 3.656z" fill="#435363"/>
    <path d="M88.183 47.826a12.319 12.319 0 0 0 1.051 4.983l4.735-2.082a7.206 7.206 0 0 1 6.6-10.107v-5.177a12.4 12.4 0 0 0-12.386 12.383" fill="#f38b00"/>
    <path d="M105.055 36.287l-1.878 4.825a7.228 7.228 0 0 1 3.628 3.11h5.607a12.433 12.433 0 0 0-7.357-7.935" fill="#435363"/>
    <path d="M103.18 54.54l1.876 4.825a12.439 12.439 0 0 0 7.358-7.936h-5.607a7.234 7.234 0 0 1-3.627 3.111" fill="#f38b00"/>
    <path d="M77.657 54.753q-.123-.405-.233-.818l-.013-.05a25.21 25.21 0 0 1-.188-.767l-.035-.158c-.049-.22-.093-.443-.137-.665-.019-.1-.036-.2-.053-.3-.031-.178-.062-.355-.09-.535a17.996 17.996 0 0 1-.064-.458 23.576 23.576 0 0 1-.216-3.179h-4.89a28.932 28.932 0 0 0 .21 3.471c0 .024.007.049.01.073.038.311.081.622.129.929l.042.256c.043.253.086.506.135.757.025.134.054.266.082.4q.061.3.13.6c.04.175.084.349.128.523.039.156.077.311.119.467.056.2.115.409.174.613.025.085.047.172.073.256a28.682 28.682 0 0 0 1.2 3.262l4.481-1.971a23.567 23.567 0 0 1-1-2.706z" fill="#435363"/>
    <path d="M100.566 71.765a23.858 23.858 0 0 1-16.916-7.022l-3.464 3.464a28.823 28.823 0 0 0 48.983-16.776h-4.935a23.979 23.979 0 0 1-23.668 20.334M100.566 23.889a23.8 23.8 0 0 1 14.31 4.762l2.93-3.927A28.831 28.831 0 0 0 73.7 37.371l4.562 1.775a23.974 23.974 0 0 1 22.307-15.257" fill="#f38b00"/>
    <path d="M124.234 44.223h4.935a28.646 28.646 0 0 0-4.146-11.661l-4.156 2.594a23.8 23.8 0 0 1 3.367 9.067" fill="#435363"/>
    <path d="M118.674 44.223h4.951a23.406 23.406 0 0 0-14.6-18.143l-1.768 4.547a18.528 18.528 0 0 1 11.415 13.6" fill="#f38b00"/>
    <path d="M100.566 29.365V24.49a23.374 23.374 0 0 0-21.748 14.874l4.544 1.769a18.491 18.491 0 0 1 17.2-11.768" fill="#435363"/>
    <path d="M82.106 47.826H77.23A23.368 23.368 0 0 0 91.9 69.489l1.811-4.526a18.485 18.485 0 0 1-11.605-17.137" fill="#f38b00"/>
    <path d="M100.566 66.287v4.877a23.376 23.376 0 0 0 23.059-19.735h-4.953a18.488 18.488 0 0 1-18.106 14.858" fill="#435363"/>
</svg>
