<svg xmlns="http://www.w3.org/2000/svg" viewBox="0 0 286.1 375.1" style="enable-background:new 0 0 286.1 375.1" xml:space="preserve">
	<style>
		.st3{fill:#ef9600}.st5{fill:#425563}.st6{fill:#4b4e52}
	</style>
	<g id="Logos">
		<path class="st5" d="M1.1 251.4v-.2c0-18.4 13.9-33.5 33.8-33.5 12.2 0 19.5 4.1 25.6 10l-9.1 10.5c-5-4.5-10.1-7.3-16.6-7.3-10.9 0-18.8 9.1-18.8 20.2v.2c0 11.1 7.7 20.4 18.8 20.4 7.4 0 11.9-3 17-7.6l9.1 9.2c-6.7 7.1-14.1 11.6-26.6 11.6-19-.2-33.2-14.9-33.2-33.5"/>
		<path class="st5" d="M118 218.8v25.6H91.7v-25.6H77.5v64.8h14.2v-26H118v26h14.3v-64.8z"/>
		<path class="st5" d="M149.7 218.8v64.8h49.4v-12.7h-35.2v-13.6h30.6v-12.7h-30.6v-13.1h34.7v-12.7z"/>
		<path class="st5" d="M217.7 218.8v64.8H232v-25.1h30.9v-13H232v-13.8h35.1v-12.9z"/>
		<path class="st5" d="M277 227.6v-6.3h2.7c.5 0 1 0 1.5.2.3.1.6.3.7.6.3.6.3 1.3 0 1.9l-.2.2c-.3.3-.6.5-1.1.6.1.1.3.3.5.6.3.3.5.7.7 1l.8 1.2h-1.5l-.9-1.4c-.2-.3-.4-.6-.7-.9-.1-.1-.2-.2-.4-.3-.2-.1-.4-.1-.6-.1h-.3v2.6H277zm1.3-3.7h.9c.4 0 .8 0 1.1-.1.1 0 .3-.1.4-.3.1-.1.1-.3.1-.5s-.1-.4-.2-.5c-.1-.1-.3-.2-.5-.2h-1.9l.1 1.6z"/>
		<path class="st5" d="M279.4 230c-.8 0-1.5-.1-2.2-.4-.3-.1-.7-.3-1-.5-.3-.2-.6-.4-.8-.7-.3-.3-.5-.5-.7-.8-.2-.3-.4-.6-.5-1-.6-1.4-.6-3 0-4.4.1-.3.3-.6.5-1 .4-.6.9-1.1 1.5-1.5.3-.2.6-.4 1-.5.7-.3 1.4-.4 2.2-.5.8 0 1.5.2 2.2.5.3.1.7.3 1 .5.3.2.6.4.8.7.3.3.5.5.7.8.2.3.4.6.5 1 .6 1.4.6 3 0 4.4-.1.3-.3.7-.5 1-.4.6-.9 1.1-1.5 1.5-.3.2-.6.4-1 .5-.7.3-1.5.4-2.2.4m0-10.7c-2.8 0-5.2 2.3-5.2 5.1s2.3 5.2 5.1 5.2 5.2-2.3 5.2-5.1c0-2.9-2.3-5.2-5.1-5.2"/>
		<path class="st5" d="M44.8 93.1c.3 10.7 2.4 21.1 6.5 31l11.2-4.5a80.3 80.3 0 0 1-5.6-26.9l-12.1.4z"/>
		<path class="st3" d="M135.6 11.6c16.4 0 32.4 5.1 45.8 14.7l7-9.7c-40.8-29.2-97.6-19.8-126.7 21-3.6 5.1-6.7 10.5-9.2 16.1l11 4.9c12.6-28.5 40.8-46.9 72.1-47z"/>
		<path class="st5" d="M225.3 76.6c-1.8-11.3-5.7-22.3-11.5-32.2l-10.4 6c4.8 8 8.1 16.9 9.8 26.2h12.1z"/>
		<path class="st3" d="M213.2 104.3c-7.6 42.9-48.5 71.3-91.4 63.7-15.7-2.8-30-10.3-41.4-21.3l-8.3 8.6c35.8 35.1 93.3 34.4 128.4-1.4 13.3-13.5 21.9-30.9 24.9-49.6h-12.2z"/>
		<path class="st3" d="M194.3 76.6h12.2C201.8 53.1 186 33.4 164 24l-4.8 10.9c17.6 7.5 30.6 23 35.1 41.7z"/>
		<path class="st5" d="M80.3 66.1c9.7-21.8 31.2-35.9 55.1-36l.1-11.9c-28.6 0-54.5 16.9-66.1 43.1l10.9 4.8z"/>
		<path class="st3" d="M112.2 146.1c-21.8-9.2-36.3-30.1-37-53.8l-11.9.4c.9 28.4 18.3 53.6 44.5 64.6l4.4-11.2z"/>
		<path class="st5" d="M194.3 104.3c-6.4 26.7-29.9 45.8-57.4 46.5l.4 11.9c34-.9 62.7-25.1 69.3-58.4h-12.3z"/>
		<path class="st5" d="M175.1 104.3c-7.7 21.8-31.6 33.3-53.4 25.6-21.8-7.6-33.3-31.6-25.6-53.4s31.6-33.3 53.4-25.6c11.9 4.2 21.4 13.6 25.6 25.6h12.5c-7.7-28.8-37.2-45.8-65.9-38.2s-45.8 37.2-38.2 65.9 37.2 45.8 65.9 38.2c18.6-5 33.2-19.5 38.2-38.2h-12.5z"/>
		<path class="st3" d="M154.4 104.3c-2.3 3.2-5.6 5.8-9.2 7.4l5.2 10.8c7.9-3.7 14.2-10.2 17.6-18.2h-13.6z"/>
		<path class="st5" d="M135.6 113.9c-6.3 0-12.3-2.5-16.7-7l-8.3 8.6c6.7 6.7 15.7 10.5 25 10.5h.4l-.4-12.1z"/>
		<path class="st3" d="M134.8 67.1v-12c-19.6.3-35 16.4-34.7 36 .1 4.2.9 8.3 2.4 12.2l11.1-4.5c-4.6-12 1.4-25.5 13.4-30.2 2.5-.9 5.2-1.4 7.8-1.5z"/>
		<path class="st5" d="m149.4 57.9-4.8 11c3.9 1.7 7.3 4.3 9.9 7.7h13.7c-3.7-8.5-10.5-15.1-18.8-18.7z"/>
		<path d="M52.8 350.7c0 .6-.4 1.3-.9 1.6L38.7 360v-29.4l-25.5-14.7 13.2-7.6c.5-.3 1.4-.3 1.9 0l24.5 14.1v28.3zM33 333.8l-17.4-10.1c-.5-.3-1.4-.3-1.9 0l-11.8 6.8 18.4 10.6v21.2l11.8-6.8c.5-.3.9-1 .9-1.6v-20.1zm-31.1 18 12.7 7.3v-14.7l-12.7 7.4z" style="fill:#5ce500"/>
		<path class="st6" d="M80.9 322.4H67V360h6.2v-14.7H81c8.4 0 13-4.1 13-11.6 0-3.4-1.3-11.3-13.1-11.3m6.8 11.4c0 4.2-2.2 6-7.6 6h-7V328h7.8c4.6 0 6.8 1.9 6.8 5.8m24.6-1.2.5.2-1 5.6-.7-.2c-.6-.2-1.2-.3-1.8-.3-5.7 0-6.2 4.6-6.2 10.1v12h-5.7v-27.6h5.3v3.3c1.5-2.2 3.2-3.4 5.5-3.7 1.5-.1 2.9.1 4.1.6m14-.8c-4.5 0-8.1 1.7-10.4 4.9-2.4 3.4-2.8 7.4-2.8 9.5 0 8.7 5.2 14.3 13.2 14.3 9.7 0 13.2-7.8 13.2-14.6 0-3.9-1.1-7.4-3.2-9.9-2.4-2.7-5.9-4.2-10-4.2m0 23.7c-4.5 0-7.2-3.5-7.2-9.3 0-5.8 2.8-9.4 7.2-9.4s7.3 3.6 7.3 9.3c0 5.8-2.8 9.4-7.3 9.4m61.1-22.9.5.2-1 5.6-.7-.2c-.6-.2-1.2-.3-1.8-.3-5.7 0-6.2 4.6-6.2 10.1v12h-5.7v-27.6h5.3v3.3c1.5-2.2 3.2-3.4 5.5-3.7 1.5-.1 2.9.1 4.1.6m20.4 18.5-.1.3c-1.2 3.4-4 4.1-6.2 4.1-4.3 0-7.1-2.9-7.4-7.5h19.5l.1-.5c.1-.6.1-1.5.1-2.2v-.5c-.3-7.7-5.3-12.9-12.5-12.9-4.2 0-7.7 1.7-10 4.8-1.9 2.5-3 6-3 9.6 0 8.5 5.3 14.3 13.2 14.3 6.1 0 10.3-3.1 11.8-8.7l.2-.7h-5.7zm-13.5-8c.5-3.8 3.1-6.3 6.8-6.3 2.8 0 6.2 1.7 6.7 6.3h-13.5zm-32.3-8.4c-1.8-1.9-4.3-2.9-7.3-2.9-8.4 0-12.2 7.4-12.2 14.2 0 7 3.8 14.1 12.2 14.1 2.8 0 5.3-1 7.1-2.9 0 1.2-.1 2.4-.1 2.9-.3 4.6-2.5 6.7-6.9 6.7-2.4 0-5.1-.8-5.6-3.2l-.2-.6h-5.6l.1.8c.6 4.9 4.9 7.9 11.1 7.9 5.5 0 9.4-2.1 11.3-6 .9-1.9 1.4-4.6 1.4-8.2v-25.1H162v2.3zm-7 20.3c-2 0-6.6-.9-6.6-9.3 0-5.5 2.6-8.9 6.8-8.9 3.2 0 6.7 2.3 6.7 8.9-.1 5.9-2.6 9.3-6.9 9.3m85.1-3.3c0 4.4-3.6 8.8-11.8 8.8-7.2 0-11.5-3.1-12.1-8.8l-.1-.6h5.6l.1.4c.7 3.4 3.9 4.1 6.5 4.1 2.8 0 5.9-.9 5.9-3.5 0-1.3-.8-2.2-2.5-2.7-1-.3-2.2-.6-3.5-1-2.2-.6-4.5-1.3-5.9-1.8-3.5-1.3-5.5-3.7-5.5-6.7 0-5.6 5.4-8.1 10.8-8.1 7.2 0 10.9 2.7 11.4 8.3v.6h-5.5l-.1-.4c-.6-3.2-3.7-3.7-5.6-3.7-1.6 0-5.3.3-5.3 2.9 0 1.2 1 2.1 3.1 2.7.6.2 1.6.4 2.7.7 2.3.6 5.1 1.3 6.5 1.8 3.5 1.3 5.3 3.6 5.3 7m26.3 0c0 4.4-3.6 8.8-11.8 8.8-7.2 0-11.5-3.1-12.1-8.8l-.1-.6h5.6l.1.4c.7 3.4 3.9 4.1 6.5 4.1 2.8 0 5.9-.9 5.9-3.5 0-1.3-.8-2.2-2.5-2.7-1-.3-2.2-.6-3.5-1-2.2-.6-4.5-1.3-5.9-1.8-3.5-1.3-5.5-3.7-5.5-6.7 0-5.6 5.4-8.1 10.8-8.1 7.2 0 10.9 2.7 11.3 8.3v.6h-5.5l-.1-.4c-.6-3.2-3.7-3.7-5.6-3.7-1.6 0-5.3.3-5.3 2.9 0 1.2 1 2.1 3.1 2.7.6.2 1.6.4 2.7.7 2.3.6 5.1 1.3 6.5 1.8 3.7 1.3 5.4 3.6 5.4 7"/>
		<path class="st6" d="M270.9 335.4c-2.1 0-3.9-1.7-3.9-3.9 0-2.3 1.8-3.9 3.9-3.9 2.1 0 3.9 1.7 3.9 3.9s-1.7 3.9-3.9 3.9m0-7.2c-1.8 0-3.2 1.4-3.2 3.3s1.4 3.3 3.2 3.3c1.8 0 3.2-1.4 3.2-3.3 0-2-1.4-3.3-3.2-3.3m-.4 4v1.3h-1.2v-4.1h1.9c.9 0 1.5.5 1.5 1.4 0 .6-.3 1.1-.8 1.2l.9 1.4h-1.3l-.8-1.3h-.2zm.6-1.9h-.6v.9h.6c.3 0 .5-.2.5-.5s-.1-.4-.5-.4"/>
	</g>
</svg>
