<svg xmlns="http://www.w3.org/2000/svg" viewBox="0 0 624 281.96">
	<defs>
		<style>
			.cls-1{fill:#405364}.cls-2{fill:#ee9721}
		</style>
	</defs>
	<g id="Layer_2" data-name="Layer 2">
		<g id="Layer_1-2" data-name="Layer 1">
			<g id="Automate_Horizontal" data-name="Automate Horizontal">
				<path class="cls-1" d="M0 83.22A81.75 81.75 0 0 1 80.38.1h3a82.48 82.48 0 0 1 63 24.71L124 50.61a58.93 58.93 0 0 0-40.87-18.17 47.31 47.31 0 0 0-46.84 47.8c0 .69 0 1.38.06 2.07v.46A47.52 47.52 0 0 0 81 132.94l1.64.06a57.7 57.7 0 0 0 42.06-18.71l22.35 22.62a81.8 81.8 0 0 1-65.32 28.52A80.66 80.66 0 0 1 0 85.88v-2.66"/>
				<path class="cls-1" d="M175.7 2.83h35.16v63.58h64.85V2.83h35.16v159.88h-35.16V98.57h-64.85v64.14H175.7V2.83z"/>
				<path class="cls-1" d="M349.21 2.83h120.63v31.34h-85.66V66.6h75.39v31.24h-75.39v33.61h86.75v31.26H349.21V2.83z"/>
				<path class="cls-1" d="M502.27 2.83H624V34.8h-86.57v34.07h76.31v31.97h-76.31v61.87h-35.16V2.83z"/>
			</g>
			<path class="cls-2" d="M11.39 281.83H.26V203h11.13Z"/>
			<path class="cls-2" d="M86.5 266.19h.22v-62.86h11.13V282h-14l-42-64.19h-.23V282H30.41v-78.67h14.5Z"/>
			<path class="cls-2" d="M127.83 281.83h-11.2v-78.74h50v9.68h-38.8v24.46h36.33v9.46h-36.33Z"/>
			<path class="cls-2" d="M196.56 281.83h-11.13V203H211a49.22 49.22 0 0 1 10.9 1.17 26.8 26.8 0 0 1 9.05 3.73 18.31 18.31 0 0 1 6.13 6.73 21.21 21.21 0 0 1 2.25 10.18q0 8.68-5.4 14a25.25 25.25 0 0 1-13.94 6.79l22.26 36.17h-13.54l-20.23-35.06h-11.92Zm0-44.3h12.82a37.22 37.22 0 0 0 7.3-.67 18.11 18.11 0 0 0 5.9-2.17 11.36 11.36 0 0 0 4-3.89 11.42 11.42 0 0 0-3.87-15.75A17.15 17.15 0 0 0 217 213a37 37 0 0 0-6.86-.61h-13.6Z"/>
			<path class="cls-2" d="M267.33 281.83h-12.46L289.64 203h10.2l34.43 78.8h-12.68l-8.16-19.36h-38.06Zm12-29h30l-15-36.95Z"/>
			<path class="cls-2" d="M332.25 221.62h-1.89v-16.91h-6.23V203h14.34v1.68h-6.22Z"/>
			<path class="cls-2" d="m350.44 218.41 6.25-15.41h2.89v18.59h-1.89v-16.12h-.05l-6.73 16.15h-1l-6.73-16.15h-.05v16.15h-1.89V203h2.89Z"/>
		</g>
	</g>
</svg>
