<?xml version="1.0" encoding="utf-8"?>
<!-- Generator: Adobe Illustrator 22.0.1, SVG Export Plug-In . SVG Version: 6.00 Build 0)  -->
<svg version="1.1" id="design" xmlns="http://www.w3.org/2000/svg" xmlns:xlink="http://www.w3.org/1999/xlink" x="0px" y="0px"
	 viewBox="0 0 159.1 170" style="enable-background:new 0 0 159.1 170;" xml:space="preserve">
<style type="text/css">
	.st0{fill:#1A1918;}
	.st1{fill:#FFFFFF;}
	.st2{fill:#435363;}
	.st3{fill:#F38B00;}
	.st4{fill:#364548;}
	.st5{fill:#22A0C8;}
	.st6{fill:#37B1D9;}
	.st7{fill:#1B81A5;}
	.st8{fill:#1D91B4;}
	.st9{fill:#23A3C2;}
	.st10{fill:#34BBDE;}
	.st11{fill:#D3ECEC;}
	.st12{fill:#BDD9D7;}
	.st13{fill:#E24329;}
	.st14{fill:#FC6D26;}
	.st15{fill:#FCA326;}
	.st16{fill:#D33833;}
	.st17{fill:#EF3D3A;}
	.st18{fill:#231F20;}
	.st19{fill:#F0D6B7;}
	.st20{fill:#335061;}
	.st21{fill:#6D6B6D;}
	.st22{fill:#DCD9D8;}
	.st23{fill:#F7E4CD;}
	.st24{fill:#49728B;}
	.st25{stroke:#D33833;stroke-width:0.816;}
	.st26{fill:#81B0C4;}
	.st27{fill:#1D1919;}
	.st28{fill:#326DE6;}
</style>
<g>
	<g>
		<path class="st2" d="M0.1,150.8v-0.1c0-10.6,8-19.3,19.4-19.3c7,0,11.2,2.3,14.7,5.8l-5.2,6c-2.9-2.6-5.8-4.2-9.5-4.2
			c-6.3,0-10.8,5.2-10.8,11.6v0.1c0,6.4,4.4,11.7,10.8,11.7c4.3,0,6.9-1.7,9.8-4.4l5.2,5.3c-3.8,4.1-8.1,6.7-15.3,6.7
			C8.3,170,0.1,161.5,0.1,150.8 M45.3,132.1h8.2v14.8h15.1v-14.8h8.2v37.3h-8.2v-15H53.5v15h-8.2V132.1z M90,132.1h28.6v7.4H98.3
			v7.7h17.9v7.4H98.3v8h20.6v7.4H90L90,132.1L90,132.1z M130.8,132.1h28.4v7.5H139v7.9h17.8v7.5H139v14.4h-8.2V132.1z"/>
	</g>
	<path class="st2" d="M80.8,79.5c-13.6,0-24.7-11.1-24.7-24.7c0-13.6,11.1-24.7,24.7-24.7c11.2,0,20.7,7.5,23.7,17.8h9.6
		c-3.2-15.5-16.9-27.1-33.3-27.1c-18.7,0-34,15.2-34,34c0,18.7,15.2,34,34,34c16.4,0,30.1-11.7,33.3-27.1h-9.6
		C101.5,71.9,92,79.5,80.8,79.5"/>
	<path class="st2" d="M64.2,71.4c4.3,4.3,10.1,6.9,16.6,6.9v-9.8c-3.6,0-7.1-1.4-9.7-4L64.2,71.4z"/>
	<path class="st3" d="M57.3,54.8c0,3.4,0.7,6.6,2,9.5l9-4c-0.8-1.7-1.2-3.6-1.2-5.5c0-7.6,6.1-13.7,13.7-13.7v-9.8
		C67.8,31.3,57.3,41.8,57.3,54.8"/>
	<path class="st2" d="M89.3,32.9L85.8,42c2.9,1.1,5.3,3.2,6.9,5.9h10.7C101.2,41,96,35.5,89.3,32.9"/>
	<path class="st3" d="M85.8,67.6l3.6,9.2c6.7-2.6,11.9-8.2,14-15.1H92.7C91.1,64.3,88.7,66.4,85.8,67.6"/>
	<path class="st2" d="M37.3,68c-0.2-0.5-0.3-1-0.4-1.6l0-0.1c-0.1-0.5-0.2-1-0.4-1.5c-0.1-0.5-0.2-1-0.3-1.6c0-0.2-0.1-0.4-0.1-0.6
		c-0.1-0.3-0.1-0.7-0.2-1c0-0.3-0.1-0.6-0.1-0.9c-0.3-2-0.4-4-0.4-6H26c0,2.2,0.1,4.4,0.4,6.6c0,0,0,0.1,0,0.1
		c0.1,0.6,0.2,1.2,0.2,1.8c0,0.2,0.1,0.3,0.1,0.5c0.1,0.5,0.2,1,0.3,1.4c0,0.3,0.1,0.5,0.2,0.8c0.1,0.4,0.2,0.8,0.2,1.1
		c0.1,0.3,0.2,0.7,0.2,1c0.1,0.3,0.1,0.6,0.2,0.9c0.1,0.4,0.2,0.8,0.3,1.2c0,0.2,0.1,0.3,0.1,0.5h0c0.6,2.1,1.4,4.2,2.3,6.2l8.5-3.7
		C38.4,71.4,37.8,69.7,37.3,68L37.3,68z"/>
	<path class="st3" d="M80.8,100.3c-12.5,0-23.9-5.1-32.2-13.3l-6.6,6.6c9.9,9.9,23.6,16.1,38.7,16.1c27.9,0,51-20.9,54.4-48h-9.4
		C122.5,83.5,103.6,100.3,80.8,100.3 M80.8,9.3c10.2,0,19.6,3.4,27.2,9.1l5.6-7.5C104.4,4,93.1,0,80.8,0C57.6,0,37.7,14.5,29.7,34.9
		l8.7,3.4C45,21.3,61.5,9.3,80.8,9.3"/>
	<path class="st2" d="M125.8,48h9.4c-1-7.9-3.7-15.4-7.9-22.2l-7.9,4.9C122.7,36,124.9,41.8,125.8,48"/>
	<path class="st3" d="M115.2,48h9.4c-2.5-15.8-13.3-28.8-27.8-34.5l-3.4,8.6C104.5,26.4,112.9,36.1,115.2,48"/>
	<path class="st2" d="M80.8,19.7l0-9.3h0c-18.8,0-34.9,11.7-41.3,28.3l8.6,3.4C53.2,29,65.9,19.7,80.8,19.7"/>
	<path class="st3" d="M45.7,54.8h-9.3C36.4,73.4,48,89.4,64.3,96l3.4-8.6C54.9,82.2,45.7,69.5,45.7,54.8"/>
	<path class="st2" d="M80.8,89.9v9.3c22.1,0,40.5-16.3,43.8-37.5h-9.4C112,77.7,97.8,89.9,80.8,89.9"/>
</g>
</svg>
