<svg xmlns="http://www.w3.org/2000/svg" viewBox="0 0 394.02 108.09">
	<defs>
		<style>
			.cls-1{fill:#df0428}
		</style>
	</defs>
	<g id="图层_2" data-name="图层 2">
		<g id="图层_1-2" data-name="图层 1">
			<path class="cls-1" d="M232.73 41.18V25H257v-5.66h-58.24V25h24.3v16.23h-26.22v5.62h25.53c-1.69 8.13-7.3 19.51-25.53 24.49v5.81c17.84-2.69 26.67-12.17 31-21 4.39 8.81 13.22 18.29 31.06 21v-5.81c-18.23-5-23.84-16.36-25.54-24.49H259v-5.62h-26.27Z"/>
			<path class="cls-1" d="M333.83 19.34h58.26v5.62h-58.26z"/>
			<path class="cls-1" d="M394 46.23v-5.62h-62.09v5.62h11.49l-8 23.51a5.78 5.78 0 0 0 5.48 7.64h45.56a5.78 5.78 0 0 0 5.4-7.85l-5.82-15.18h-8.47l6.35 16.55h-40.48l8.35-24.67Z"/>
			<path class="cls-1" d="M313.29 68.24h12.58v-3.78h-12.94v-3.17h12.94V57.5h-12.94v-3.17h10a2.3 2.3 0 0 0 2.29-2.33V40.73a2.31 2.31 0 0 0-2.31-2.32h-54.52a2.32 2.32 0 0 0-2.32 2.32V52a2.31 2.31 0 0 0 2.32 2.31h10v3.19h-12.97v3.79h12.94v3.17h-12.94v3.78H278c-.74 2-3.26 4-6.8 4.61a38.31 38.31 0 0 1-5.84.51v4a53.93 53.93 0 0 0 10.39-.88c5.17-1 9-4.17 10.24-8.29h19.31c1.28 4.12 5.08 7.3 10.24 8.29a53.93 53.93 0 0 0 10.39.88v-4a38.31 38.31 0 0 1-5.84-.51c-3.54-.58-6.09-2.63-6.8-4.61Zm-14.07-17.48v-3h18.86v3Zm18.86-5.82h-18.86V42h18.86Zm-26-2.95v2.95h-18.86V42Zm-18.86 5.81h18.86v3h-18.86Zm13.25 6.53h18.35v3.17h-18.35Zm0 7h18.35v3.17h-18.35Z"/>
			<path class="cls-1" d="M288.55 35.6h.71a4.88 4.88 0 0 0 4.88-4.87v-6.51a4.89 4.89 0 0 0-4.88-4.88h-23.7V23h20a1.39 1.39 0 0 1 1.44 1.36V26h-20.15v2.9H287v1.69a1.39 1.39 0 0 1-1.4 1.41h-20v3.6h23Z"/>
			<path class="cls-1" d="M320.15 35.6h.71a4.87 4.87 0 0 0 4.87-4.87v-6.51a4.88 4.88 0 0 0-4.87-4.88h-23.7V23h20a1.39 1.39 0 0 1 1.39 1.39V26h-20.1v2.9h20.14v1.69A1.39 1.39 0 0 1 317.2 32h-20v3.6h23Z"/>
			<path class="cls-1" d="M145.23 32.16a28.9 28.9 0 0 0-32.61-17.59A44.66 44.66 0 0 0 40 24a40 40 0 0 0 0 80h62.78a.59.59 0 0 0 .4-1 46.9 46.9 0 0 1-10.3-15 1 1 0 0 0-.91-.6H40a23.31 23.31 0 1 1 11-43.96 29.28 29.28 0 0 1 56.23-9.67 14.58 14.58 0 0 1 24.93 13.93 20.76 20.76 0 1 1-15 22.86h10.31a.76.76 0 0 0 .53-1.3l-19.88-19.85a.94.94 0 0 0-1.34 0L86.94 69.26a.76.76 0 0 0 .53 1.3h9.76a37.42 37.42 0 0 0 2.9 13.74 38.56 38.56 0 1 0 45.1-52.14Z"/>
			<path class="cls-1" d="M292.4 98.82h-8a3 3 0 0 0 3.29 2.43 3.6 3.6 0 0 0 2.75-1.1l1.27 1.46a4.89 4.89 0 0 1-4.08 1.65 5.42 5.42 0 0 1-4.42-1.83 5.18 5.18 0 0 1-1.18-3.37 5 5 0 0 1 5.18-5.18 4.94 4.94 0 0 1 5.18 5.24c.04.16.03.4.01.7Zm-8-1.57h5.76a2.77 2.77 0 0 0-2.87-2.47 2.82 2.82 0 0 0-2.87 2.47Z"/>
			<path class="cls-1" d="M275.86 98.82h-7.95a3 3 0 0 0 3.28 2.43 3.6 3.6 0 0 0 2.76-1.1l1.27 1.46a4.93 4.93 0 0 1-4.08 1.65 5.43 5.43 0 0 1-4.43-1.83 5.1 5.1 0 0 1-1.17-3.37 5 5 0 0 1 5.18-5.18 4.94 4.94 0 0 1 5.18 5.24c0 .16-.01.4-.04.7Zm-8-1.57h5.75a2.76 2.76 0 0 0-2.86-2.47 2.81 2.81 0 0 0-2.86 2.47Z"/>
			<path class="cls-1" d="M277.8 89.05h2.37v14.08h-2.37Z"/>
			<path class="cls-1" d="M293.5 98.06a5.12 5.12 0 0 1 5.5-5.18 4.46 4.46 0 0 1 4.33 2.36l-1.82 1.06a2.87 2.87 0 0 0-2.51-1.41 3.17 3.17 0 0 0 0 6.34 2.87 2.87 0 0 0 2.53-1.4l1.82 1.06a4.54 4.54 0 0 1-4.33 2.37c-2.96 0-5.52-1.89-5.52-5.2Z"/>
			<path class="cls-1" d="M333.64 97.32v5.81h-2.37v-5.5c0-.89-.21-2.68-2.28-2.68-2.28 0-2.64 2-2.64 3v5.14H324v-5.5c0-.89-.2-2.68-2.28-2.68-2.33 0-2.64 2-2.64 3v5.14h-2.37V93H319v1.29a4.08 4.08 0 0 1 3.32-1.41 3.7 3.7 0 0 1 3.42 1.69 4.66 4.66 0 0 1 3.79-1.69 4.19 4.19 0 0 1 3.04 1.12 4.68 4.68 0 0 1 1.07 3.32Z"/>
			<path class="cls-1" d="M309.39 92.88a5.19 5.19 0 1 0 5.4 5.19 5.08 5.08 0 0 0-5.4-5.19Zm0 8.35a3.17 3.17 0 1 1 3-3.17 3 3 0 0 1-3 3.17Z"/>
			<path class="cls-1" d="M259.67 91.26H255v-2.21h12v2.21h-4.67v11.87h-2.61Z"/>
			<path class="cls-1" d="M354.58 89.05H357v14.08h-2.37Z"/>
			<path class="cls-1" d="M381.36 93v10.13h-2.26v-1.29a4.15 4.15 0 0 1-3.27 1.42c-3.87 0-4.36-3-4.36-4.48V93h2.37v5.46c0 .91.21 2.72 2.37 2.72 2.46 0 2.77-2.07 2.77-3.06V93Z"/>
			<path class="cls-1" d="m352.81 91.88-1.59 1.5a4.68 4.68 0 0 0-3.55-1.56 4.67 4.67 0 0 0-.26 9.33 4.68 4.68 0 0 0 3.81-1.57l1.59 1.52s-1.56 2.22-5.43 2.22a6.72 6.72 0 0 1-6.95-6.83 6.82 6.82 0 0 1 7.12-6.83 6.53 6.53 0 0 1 5.26 2.22Z"/>
			<path class="cls-1" d="M364.25 92.88a5.19 5.19 0 1 0 5.4 5.19 5.07 5.07 0 0 0-5.4-5.19Zm0 8.35a3.17 3.17 0 1 1 3-3.17 3 3 0 0 1-3 3.17Z"/>
			<path class="cls-1" d="M391.64 89.05v5.2a4.27 4.27 0 0 0-3.26-1.37 5.19 5.19 0 0 0 0 10.38 4.08 4.08 0 0 0 3.36-1.44v1.31H394V89.05Zm-3 12.18a3.17 3.17 0 1 1 3-3.17 3 3 0 0 1-2.98 3.17Z"/>
			<path class="cls-1" d="M220 97.32v5.81h-2.37v-5.5c0-.89-.23-2.68-2.41-2.68a2.73 2.73 0 0 0-2.81 3.05v5.12H210V89.05h2.38v5.12a4.35 4.35 0 0 1 3.27-1.29c3.62 0 4.35 2.53 4.35 4.44Z"/>
			<path class="cls-1" d="M222.66 93H225v10.13h-2.37Zm2.71-3.1a1.52 1.52 0 1 1-1.52-1.42 1.44 1.44 0 0 1 1.52 1.42Z"/>
			<path class="cls-1" d="M237.75 97.32v5.81h-2.38v-5.5c0-.89-.22-2.68-2.41-2.68-2.51 0-2.82 2.07-2.82 3.06v5.12h-2.38V93H230v1.31a4.22 4.22 0 0 1 3.38-1.43c3.54 0 4.37 2.41 4.37 4.44Z"/>
			<path class="cls-1" d="M248.87 97.19v5.94h-2.24v-1.23c-.29.44-1.09 1.36-3.19 1.36-3.32 0-3.8-2.31-3.78-3 0-1.16.51-3 4.22-3h2.62c0-1.07-.32-2.35-2.53-2.35a5 5 0 0 0-3.07 1l-.9-1.78a7 7 0 0 1 4.29-1.25c1.46 0 4.58.3 4.58 4.31ZM246.5 100v-1.22h-2.45c-1.37 0-2.05.45-2.05 1.35 0 1.16 1.24 1.41 1.93 1.41a2.55 2.55 0 0 0 2.57-1.54Z"/>
			<path class="cls-1" d="m208.27 91.88-1.59 1.5a4.68 4.68 0 0 0-3.55-1.56 4.67 4.67 0 0 0-.26 9.33 4.68 4.68 0 0 0 3.81-1.57l1.59 1.52s-1.56 2.22-5.43 2.22a6.72 6.72 0 0 1-7-6.83 6.82 6.82 0 0 1 7.16-6.83 6.53 6.53 0 0 1 5.27 2.22Z"/>
		</g>
	</g>
</svg>
