<svg xmlns="http://www.w3.org/2000/svg" style="isolation:isolate" viewBox="0 0 57.4 37.4" width="57.4pt" height="37.4pt">
	<defs>
		<clipPath id="a">
			<path d="M0 0h57.4v37.4H0z"/>
		</clipPath>
	</defs>
	<g clip-path="url(#a)">
		<clipPath id="b">
			<path d="M37.2 17.1c-2.5 0-4.6-2.1-4.6-4.6 0-2.5 2.1-4.6 4.6-4.6 1.7 0 3.1.9 3.9 2.2C39.9 4.3 34.8 0 28.7 0c-7 0-12.6 5.7-12.6 12.6 0 7 5.7 12.6 12.6 12.6 6.2 0 11.3-4.5 12.4-10.3-.7 1.3-2.2 2.2-3.9 2.2Z" fill="#FFF"/>
		</clipPath>
		<g clip-path="url(#b)">
			<circle vector-effect="non-scaling-stroke" cx="28.8" cy="12.5" r="12.6" fill="#02AA69"/>
			<circle vector-effect="non-scaling-stroke" cx="28.8" cy="12.5" r="12.6" fill="#02AB6A"/>
			<circle vector-effect="non-scaling-stroke" cx="28.9" cy="12.5" r="12.5" fill="#02AC6A"/>
			<circle vector-effect="non-scaling-stroke" cx="28.9" cy="12.5" r="12.5" fill="#02AD6B"/>
			<circle vector-effect="non-scaling-stroke" cx="29" cy="12.5" r="12.4" fill="#02AE6C"/>
			<circle vector-effect="non-scaling-stroke" cx="29" cy="12.5" r="12.4" fill="#02AF6D"/>
			<circle vector-effect="non-scaling-stroke" cx="29.1" cy="12.5" r="12.3" fill="#02B06D"/>
			<circle vector-effect="non-scaling-stroke" cx="29.2" cy="12.5" r="12.2" fill="#02B16E"/>
			<circle vector-effect="non-scaling-stroke" cx="29.2" cy="12.5" r="12.2" fill="#02B26F"/>
			<circle vector-effect="non-scaling-stroke" cx="29.3" cy="12.5" r="12.1" fill="#02B36F"/>
			<circle vector-effect="non-scaling-stroke" cx="29.3" cy="12.5" r="12.1" fill="#02B470"/>
			<circle vector-effect="non-scaling-stroke" cx="29.4" cy="12.5" r="12" fill="#02B571"/>
			<circle vector-effect="non-scaling-stroke" cx="29.4" cy="12.5" r="12" fill="#02B672"/>
			<circle vector-effect="non-scaling-stroke" cx="29.5" cy="12.5" r="11.9" fill="#02B772"/>
			<circle vector-effect="non-scaling-stroke" cx="29.6" cy="12.5" r="11.8" fill="#01B873"/>
			<circle vector-effect="non-scaling-stroke" cx="29.6" cy="12.5" r="11.8" fill="#01B974"/>
			<circle vector-effect="non-scaling-stroke" cx="29.7" cy="12.5" r="11.7" fill="#01BA74"/>
			<circle vector-effect="non-scaling-stroke" cx="29.7" cy="12.5" r="11.7" fill="#01BB75"/>
			<circle vector-effect="non-scaling-stroke" cx="29.8" cy="12.5" r="11.6" fill="#01BC76"/>
			<circle vector-effect="non-scaling-stroke" cx="29.8" cy="12.5" r="11.5" fill="#01BD77"/>
			<circle vector-effect="non-scaling-stroke" cx="29.9" cy="12.5" r="11.5" fill="#01BE77"/>
			<circle vector-effect="non-scaling-stroke" cx="30" cy="12.5" r="11.4" fill="#01BF78"/>
			<circle vector-effect="non-scaling-stroke" cx="30" cy="12.5" r="11.4" fill="#01C079"/>
			<circle vector-effect="non-scaling-stroke" cx="30.1" cy="12.5" r="11.3" fill="#01C179"/>
			<circle vector-effect="non-scaling-stroke" cx="30.1" cy="12.5" r="11.3" fill="#01C27A"/>
			<circle vector-effect="non-scaling-stroke" cx="30.2" cy="12.5" r="11.2" fill="#01C37B"/>
			<circle vector-effect="non-scaling-stroke" cx="30.3" cy="12.5" r="11.1" fill="#01C47C"/>
			<circle vector-effect="non-scaling-stroke" cx="30.3" cy="12.5" r="11.1" fill="#01C47C"/>
			<circle vector-effect="non-scaling-stroke" cx="30.4" cy="12.5" r="11" fill="#01C57D"/>
			<circle vector-effect="non-scaling-stroke" cx="30.4" cy="12.5" r="11" fill="#01C67E"/>
			<circle vector-effect="non-scaling-stroke" cx="30.5" cy="12.5" r="10.9" fill="#01C77F"/>
			<circle vector-effect="non-scaling-stroke" cx="30.5" cy="12.5" r="10.9" fill="#01C87F"/>
			<circle vector-effect="non-scaling-stroke" cx="30.6" cy="12.5" r="10.8" fill="#01C980"/>
			<circle vector-effect="non-scaling-stroke" cx="30.7" cy="12.5" r="10.7" fill="#01CA81"/>
			<circle vector-effect="non-scaling-stroke" cx="30.7" cy="12.5" r="10.7" fill="#01CB81"/>
			<circle vector-effect="non-scaling-stroke" cx="30.8" cy="12.5" r="10.6" fill="#01CC82"/>
			<circle vector-effect="non-scaling-stroke" cx="30.8" cy="12.5" r="10.6" fill="#01CD83"/>
			<circle vector-effect="non-scaling-stroke" cx="30.9" cy="12.5" r="10.5" fill="#01CE84"/>
			<circle vector-effect="non-scaling-stroke" cx="30.9" cy="12.5" r="10.5" fill="#01CF84"/>
			<circle vector-effect="non-scaling-stroke" cx="31" cy="12.5" r="10.4" fill="#01D085"/>
			<circle vector-effect="non-scaling-stroke" cx="31.1" cy="12.5" r="10.3" fill="#00D186"/>
			<circle vector-effect="non-scaling-stroke" cx="31.1" cy="12.5" r="10.3" fill="#00D286"/>
			<circle vector-effect="non-scaling-stroke" cx="31.2" cy="12.5" r="10.2" fill="#00D387"/>
			<circle vector-effect="non-scaling-stroke" cx="31.2" cy="12.5" r="10.2" fill="#00D488"/>
			<circle vector-effect="non-scaling-stroke" cx="31.3" cy="12.5" r="10.1" fill="#00D589"/>
			<circle vector-effect="non-scaling-stroke" cx="31.3" cy="12.5" r="10.1" fill="#00D689"/>
			<circle vector-effect="non-scaling-stroke" cx="31.4" cy="12.5" r="10" fill="#00D78A"/>
			<circle vector-effect="non-scaling-stroke" cx="31.5" cy="12.5" r="9.9" fill="#00D88B"/>
			<circle vector-effect="non-scaling-stroke" cx="31.5" cy="12.5" r="9.9" fill="#00D98B"/>
			<circle vector-effect="non-scaling-stroke" cx="31.6" cy="12.5" r="9.8" fill="#00DA8C"/>
			<circle vector-effect="non-scaling-stroke" cx="31.6" cy="12.5" r="9.8" fill="#00DB8D"/>
			<circle vector-effect="non-scaling-stroke" cx="31.7" cy="12.5" r="9.7" fill="#00DC8E"/>
			<circle vector-effect="non-scaling-stroke" cx="31.7" cy="12.5" r="9.7" fill="#00DD8E"/>
			<circle vector-effect="non-scaling-stroke" cx="31.8" cy="12.5" r="9.6" fill="#00DE8F"/>
			<clipPath id="c">
				<circle vector-effect="non-scaling-stroke" cx="28.8" cy="12.5" r="12.6" fill="#FFF"/>
			</clipPath>
			<g clip-path="url(#c)">
				<path d="M-3.489-28.214h23.55v23.55h-23.55v-23.55Z" style="stroke:none;fill:#f0f0f0;stroke-miterlimit:10"/>
			</g>
			<path d="M37.2 17.1c-2.6 0-4.6-2.1-4.6-4.6 0-2.5 2.1-4.6 4.6-4.6 1.6 0 3.1.8 3.9 2.1C39.9 4.2 34.8-.1 28.7-.1c-7 0-12.6 5.7-12.6 12.6 0 6.9 5.7 12.6 12.6 12.6 6.2 0 11.3-4.4 12.4-10.2-.8 1.3-2.2 2.2-3.9 2.2Z" fill="none"/>
		</g>
		<g fill="#13181F">
			<path d="M2.3 30.9c.7 0 1.2.4 1.3.9h.9c-.2-1-1-1.6-2.2-1.6-1.4 0-2.3 1-2.3 2.5s1 2.5 2.3 2.5c1.2 0 2-.7 2.2-1.6h-.9c-.2.6-.6.9-1.3.9-.9 0-1.5-.6-1.5-1.8-.1-1.1.6-1.8 1.5-1.8Z"/>
			<path d="M7.6 30.3c-.7 0-1.3.3-1.6.8v-2.4h-.8v6.4H6v-2.6c0-1 .6-1.5 1.4-1.5.8 0 1.3.5 1.3 1.5v2.7h.8v-2.8c0-1.5-.8-2.1-1.9-2.1Z"/>
			<path d="M11.4 31.1v-.8h-.8v4.8h.8v-2.6c0-1.1.6-1.4 1.3-1.4h.2v-.8c-.7 0-1.3.3-1.5.8Z"/>
			<path d="M15.6 30.3c-1.3 0-2.4.9-2.4 2.5 0 1.5 1 2.5 2.4 2.5s2.4-1 2.4-2.5c0-1.6-1-2.5-2.4-2.5Zm0 4.2c-.8 0-1.6-.6-1.6-1.8 0-1.2.8-1.8 1.6-1.8s1.6.6 1.6 1.8c0 1.2-.8 1.8-1.6 1.8Z"/>
			<path d="M21.2 30.3c-.6 0-1.2.3-1.5.8v-.7h-.8v4.8h.8v-2.7c0-1 .6-1.5 1.4-1.5.8 0 1.3.5 1.3 1.5v2.7h.8v-2.8c-.1-1.5-.9-2.1-2-2.1Z"/>
			<path d="M26.3 30.3c-1.3 0-2.4.9-2.4 2.5 0 1.5 1 2.5 2.4 2.5s2.4-1 2.4-2.5c0-1.6-1-2.5-2.4-2.5Zm0 4.2c-.8 0-1.6-.6-1.6-1.8 0-1.2.8-1.8 1.6-1.8s1.6.6 1.6 1.8c0 1.2-.8 1.8-1.6 1.8Z"/>
			<path d="M30.3 31.6c0-.4.3-.7.9-.7.6 0 1 .3 1 .8h.8c-.1-.9-.7-1.5-1.8-1.5s-1.7.6-1.7 1.3c0 1.8 2.8 1.2 2.8 2.2 0 .4-.3.7-1 .7s-1.1-.3-1.1-.8h-.8c.1.9.8 1.5 1.9 1.5 1.1 0 1.7-.6 1.7-1.4 0-1.6-2.7-1-2.7-2.1Z"/>
			<path d="M36.5 30.3c-.9 0-1.5.5-1.8 1v-.9h-.8v7h.8v-3.1c.3.5.9 1 1.8 1 1.3 0 2.3-1 2.3-2.5-.1-1.6-1.1-2.5-2.3-2.5Zm-.2 4.2c-.9 0-1.6-.7-1.6-1.8s.8-1.8 1.6-1.8c.9 0 1.6.6 1.6 1.8 0 1.2-.7 1.8-1.6 1.8Z"/>
			<path d="M41.9 30.3c-.7 0-1.3.3-1.6.8v-2.4h-.8v6.4h.8v-2.6c0-1 .6-1.5 1.4-1.5.8 0 1.3.5 1.3 1.5v2.7h.8v-2.8c0-1.5-.8-2.1-1.9-2.1Z"/>
			<path d="M47 30.3c-1.4 0-2.4.9-2.4 2.5 0 1.5 1 2.5 2.4 2.5 1.2 0 1.9-.7 2.2-1.5h-.9c-.2.5-.6.9-1.3.9-.8 0-1.5-.5-1.5-1.5h3.8v-.5c0-1.5-.9-2.4-2.3-2.4Zm-1.6 2.1c.1-.9.7-1.4 1.5-1.4s1.5.5 1.5 1.4h-3Z"/>
			<path d="M50.9 31.1v-.8h-.8v4.8h.8v-2.6c0-1.1.6-1.4 1.3-1.4h.2v-.8c-.7 0-1.3.3-1.5.8Z"/>
			<path d="M57.4 32.5c0-1.3-.9-2.3-2.3-2.3s-2.4.9-2.4 2.5c0 1.5 1 2.5 2.4 2.5 1.2 0 1.9-.7 2.2-1.5h-.9c-.2.5-.6.9-1.3.9-.8 0-1.5-.5-1.5-1.5h3.8c-.1-.2 0-.4 0-.6Zm-3.9-.1c.1-.9.7-1.4 1.5-1.4s1.5.5 1.5 1.4h-3Z"/>
		</g>
	</g>
</svg>
