<svg xmlns="http://www.w3.org/2000/svg" width="200" height="128">
	<path d="M51.29 55.4H41.277l-5.006 8.683 5.006 8.605H51.29l5.01-8.61zm-1.33 14.936h-7.353l-3.677-6.258 3.677-6.336h7.353l3.677 6.336z" fill="#373737"/>
	<path fill="#e82429" d="M49.96 57.664h-7.353l-3.677 6.414 3.677 6.258h7.353l3.677-6.258-3.677-6.414z"/>
	<path d="M51.29 73.856H41.277l-5.006 8.683 5.006 8.605H51.29l5.01-8.605zm-1.33 15.019h-7.353l-3.677-6.258 3.677-6.336h7.353l3.677 6.336z" fill="#373737"/>
	<path fill="#6289c6" d="M49.96 76.203h-7.353l-3.677 6.336 3.677 6.336h7.353l3.677-6.336-3.677-6.336z"/>
	<path d="M51.29 36.856H41.277l-5.006 8.683 5.006 8.6H51.29l5.006-8.6zM49.96 51.8h-7.353l-3.677-6.261 3.677-6.414h7.353l3.677 6.336z" fill="#373737"/>
	<path fill="#f9c515" d="M49.96 39.125h-7.353l-3.677 6.414 3.677 6.258h7.353l3.677-6.258-3.677-6.414z"/>
	<path d="M67.561 64.7h-9.935l-5.006 8.687 5.006 8.605h10.013l5.006-8.605zm-1.33 14.941h-7.353L55.2 73.387l3.677-6.336h7.353l3.676 6.336z" fill="#373737"/>
	<path fill="#8061a9" d="M66.231 66.973h-7.275l-3.677 6.414 3.677 6.258h7.275l3.755-6.258-3.755-6.414z"/>
	<path d="M67.561 46.165h-9.935l-5.006 8.6 5.006 8.605h10.013l5.006-8.605zm-1.33 14.941h-7.353L55.2 54.848l3.677-6.337h7.353l3.676 6.337z" fill="#373737"/>
	<path fill="#f17423" d="M66.231 48.433h-7.275l-3.677 6.415 3.677 6.258h7.275l3.755-6.258-3.755-6.415z"/>
	<path d="M34.941 64.7h-9.935L20 73.387l5.006 8.605h10.013l5.007-8.605zm-1.33 14.941h-7.275l-3.676-6.254 3.676-6.336h7.353l3.677 6.336z" fill="#373737"/>
	<path fill="#97c93d" d="M33.611 66.973h-7.275l-3.676 6.414 3.676 6.258h7.275l3.755-6.258-3.755-6.414z"/>
	<path d="M34.941 46.165h-9.935L20 54.769l5.006 8.605h10.013l5.007-8.605zm-1.33 14.941h-7.275l-3.676-6.258 3.676-6.337h7.353l3.677 6.337z" fill="#373737"/>
	<path fill="#cadd72" d="M33.611 48.433h-7.275l-3.676 6.415 3.676 6.258h7.275l3.755-6.258-3.755-6.415z"/>
	<path d="M85.007 54.36a13.675 13.675 0 0 1 2.886.321 8.661 8.661 0 0 1 2.373.9V58.4q-1.347-.482-2.5-.77a10.624 10.624 0 0 0-2.438-.321 8.482 8.482 0 0 0-2.5.385 5.846 5.846 0 0 0-2.245 1.347 8.009 8.009 0 0 0-1.6 2.5 11.051 11.051 0 0 0-.577 3.848 9.657 9.657 0 0 0 .449 3.079 7.478 7.478 0 0 0 1.345 2.44 6.023 6.023 0 0 0 2.181 1.6 7.749 7.749 0 0 0 3.079.577 12.026 12.026 0 0 0 2.565-.256 18.693 18.693 0 0 0 2.5-.77v2.822a6.958 6.958 0 0 1-.962.449q-.578.192-1.347.385a9.731 9.731 0 0 1-1.54.257 13.523 13.523 0 0 1-1.6.128 11.753 11.753 0 0 1-3.977-.642 10.474 10.474 0 0 1-3.271-1.924 9.417 9.417 0 0 1-2.186-3.334 14.413 14.413 0 0 1-.385-8.4 9.73 9.73 0 0 1 1.155-2.886 9.585 9.585 0 0 1 1.731-2.114 9.393 9.393 0 0 1 2.117-1.411 11.175 11.175 0 0 1 2.309-.834c.898-.067 1.668-.195 2.438-.195zm14.175-4.233v-3.785h-3.4v3.785zm.064 25.464V54.937h-3.4v20.654zm10.327 0V44.1h-3.4v31.491zm10.262-25.464v-3.785h-3.4v3.785zm.065 25.464V54.937h-3.4v20.654zm14.944.513a13.821 13.821 0 0 0 2.951-.321 7.617 7.617 0 0 0 2.309-1.026 7.7 7.7 0 0 0 1.668-1.539 8.61 8.61 0 0 0 1.09-1.989 6.986 6.986 0 0 0 .385-1.668 17.087 17.087 0 0 0 .128-1.924v-12.7h-3.4v12.636a7.842 7.842 0 0 1-.385 2.63 4.529 4.529 0 0 1-1.668 2.245 5.005 5.005 0 0 1-3.079.834 5.316 5.316 0 0 1-2.95-.77 4.056 4.056 0 0 1-1.668-2.053 7.588 7.588 0 0 1-.449-2.886V54.937h-3.4v12.636a19.606 19.606 0 0 0 .128 2.053 11.324 11.324 0 0 0 .449 1.731 7.131 7.131 0 0 0 1.09 1.925 6.379 6.379 0 0 0 1.668 1.539 10.261 10.261 0 0 0 2.245.962 12.764 12.764 0 0 0 2.886.321zm31.686-.513V60.967a10.713 10.713 0 0 1 2.694-2.694 5.76 5.76 0 0 1 3.271-.963 4.924 4.924 0 0 1 1.732.257 3.816 3.816 0 0 1 1.347.9 3.546 3.546 0 0 1 .834 1.533 8 8 0 0 1 .321 2.309v13.346H180V61.8a8.734 8.734 0 0 0-.706-3.72 5.58 5.58 0 0 0-1.667-2.245 6.088 6.088 0 0 0-2.245-1.09 10.454 10.454 0 0 0-2.309-.321 7.842 7.842 0 0 0-4.105 1.09 10.736 10.736 0 0 0-3.143 3.015h-.064a7.446 7.446 0 0 0-2.374-3.015 6.651 6.651 0 0 0-3.848-1.09 7.352 7.352 0 0 0-2.117.257 5.521 5.521 0 0 0-1.8.705 12.551 12.551 0 0 0-1.475 1.091c-.449.449-.834.9-1.219 1.347h-.064l-.641-2.887H149.6v20.718h3.4V60.967a9.59 9.59 0 0 1 2.63-2.694 5.76 5.76 0 0 1 3.271-.963 4.924 4.924 0 0 1 1.732.257 3.816 3.816 0 0 1 1.347.9 3.546 3.546 0 0 1 .83 1.533 8 8 0 0 1 .321 2.309v13.282z" fill="#1e2222"/>
</svg>
