<svg width="760" height="840" fill="none" xmlns="http://www.w3.org/2000/svg">
	<path d="M91.127 663.001a84.51 84.51 0 0 1 19.091 2.093 56.7 56.7 0 0 1 15.571 5.872v18.742a125.551 125.551 0 0 0-16.755-5.217 70.94 70.94 0 0 0-15.571-1.749 51.907 51.907 0 0 0-16.63 2.78 37.972 37.972 0 0 0-14.762 9.058 45.382 45.382 0 0 0-10.495 16.681 72.567 72.567 0 0 0-4.018 25.613 68.917 68.917 0 0 0 2.959 20.585 46.428 46.428 0 0 0 8.844 16.336 39.594 39.594 0 0 0 14.669 10.714 50.262 50.262 0 0 0 20.398 3.873 80.703 80.703 0 0 0 16.942-1.843 95.559 95.559 0 0 0 16.63-5.122v18.741a40.38 40.38 0 0 1-6.447 2.905 71.303 71.303 0 0 1-8.751 2.53 101.68 101.68 0 0 1-10.121 1.75 87.592 87.592 0 0 1-10.713.655 80.745 80.745 0 0 1-26.253-4.216 59.134 59.134 0 0 1-21.613-12.901 60.76 60.76 0 0 1-14.606-22.084 84.341 84.341 0 0 1-5.481-31.517 98.418 98.418 0 0 1 2.802-24.52 74.094 74.094 0 0 1 7.755-19.148 57.842 57.842 0 0 1 11.492-14.087 64.398 64.398 0 0 1 29.46-14.869 74.26 74.26 0 0 1 15.603-1.655Z" fill="#1E2322"/>
	<path d="M163 634v-25h23.288v25H163Zm.615 170V666.094H187V804h-23.385Z" fill="#1E2322"/>
	<path d="M233 804V594h22v210h-22Z" fill="#1E2322"/>
	<path d="M302 634v-25h22.409v25H302Zm.591 170V666.094H325V804h-22.409Z" fill="#1E2322"/>
	<path d="M424.575 807.994a73.971 73.971 0 0 1-19.435-2.351 52.277 52.277 0 0 1-15.158-6.427 42.987 42.987 0 0 1-11.006-10.127 49.724 49.724 0 0 1-7.17-12.886 51.758 51.758 0 0 1-2.925-11.506 101.451 101.451 0 0 1-.88-13.67V666h22.642v84.651a52.275 52.275 0 0 0 3.145 19.219 28.518 28.518 0 0 0 11.321 13.764 36.157 36.157 0 0 0 19.938 5.016 35.018 35.018 0 0 0 20.661-5.518 30.544 30.544 0 0 0 11.195-14.861 54.733 54.733 0 0 0 2.453-17.62V666h22.642v85.027a99.257 99.257 0 0 1-.786 13.043 58.1 58.1 0 0 1-2.547 11.161 51.688 51.688 0 0 1-7.233 13.168 45.505 45.505 0 0 1-11.321 10.409 54.843 54.843 0 0 1-15.724 6.772 76.16 76.16 0 0 1-19.812 2.414Z" fill="#1E2322"/>
	<path d="M636.627 804h-22.512v-88.367a51.522 51.522 0 0 0-1.97-15.251 26.784 26.784 0 0 0-5.66-10.334 22.174 22.174 0 0 0-8.849-5.914 33.71 33.71 0 0 0-11.538-1.899 39.373 39.373 0 0 0-21.887 6.443 65.525 65.525 0 0 0-17.698 17.711V804H524V666.641h17.416l4.347 19.08h.437a79.532 79.532 0 0 1 8.224-8.902c3-2.782 6.316-5.205 9.88-7.221a48.777 48.777 0 0 1 11.976-4.856 55.564 55.564 0 0 1 14.227-1.712 42.514 42.514 0 0 1 25.546 7.346 47.5 47.5 0 0 1 15.634 20.108h.594a73.262 73.262 0 0 1 20.95-20.17 51.184 51.184 0 0 1 27.484-7.284 63.095 63.095 0 0 1 15.416 2.024 38.898 38.898 0 0 1 14.977 7.439 40.755 40.755 0 0 1 11.35 14.971 57.698 57.698 0 0 1 4.503 24.559V804h-22.513v-88.367a52.672 52.672 0 0 0-1.939-15.251 27.65 27.65 0 0 0-5.784-10.428 22.283 22.283 0 0 0-8.88-5.914 33.733 33.733 0 0 0-11.538-1.898 39.65 39.65 0 0 0-21.888 6.443 64.864 64.864 0 0 0-17.792 17.711V804Z" fill="#1E2322"/>
	<path d="M172.5 131h83l41.5 72-41.5 72h-83L131 203l41.5-72Z" fill="#CBDD72"/>
	<path d="M172.5 316h83l41.5 71.5-41.5 71.5h-83L131 387.5l41.5-71.5Z" fill="#98CA3F"/>
	<path d="M334.5 407h83l41.5 71.5-41.5 71.5h-83L293 478.5l41.5-71.5Z" fill="#6389C6"/>
	<path d="M334.5 222h83l41.5 72-41.5 72h-83L293 294l41.5-72Z" fill="#E8282B"/>
	<path d="M334.5 38h83l41.5 71.5-41.5 71.5h-83L293 109.5 334.5 38Z" fill="#F8C519"/>
	<path d="M495.25 131h84.5L622 203l-42.25 72h-84.5L453 203l42.25-72Z" fill="#F07525"/>
	<path d="M495.25 316h84.5L622 387.5 579.75 459h-84.5L453 387.5l42.25-71.5Z" fill="#8162AA"/>
	<path d="M424.89 209h-99.156L276 294.797 325.734 380h99.156L475 294.765 424.89 209Zm-12.966 148.146h-72.66l-36.956-62.225 36.768-63.067h72.848l36.737 63.067-36.737 62.225Z" fill="#373737"/>
	<path d="M424.89 393h-99.156L276 478.719 325.734 564h99.156L475 478.719 424.89 393Zm-12.966 148.102h-72.66l-36.956-62.227 36.768-63.102h72.848l36.737 63.102-36.737 62.227Z" fill="#373737"/>
	<path d="M424.89 25h-99.156L276 110.828 325.734 196h99.156L475 110.828 424.89 25Zm-12.966 148.225h-72.66l-36.956-62.397 36.768-63.022h72.848l36.612 63.022-36.612 62.397Z" fill="#373737"/>
	<path d="M586.89 301h-99.187L438 386.796 487.703 472h99.187L637 386.796 586.89 301Zm-13.123 148.123h-72.66l-36.768-62.202 36.768-63.169h72.66l36.769 63.044-36.769 62.327Z" fill="#373737"/>
	<path d="M586.89 117h-99.187L438 203.267 487.703 289h99.187L637 203.267 586.89 117Zm-13.123 149.044h-72.66l-36.768-62.589 36.768-63.436h72.66l36.769 63.436-36.769 62.589Z" fill="#373737"/>
	<path d="M263.142 301h-98.658L115 386.796 164.484 472h98.658L313 386.796 263.142 301Zm-13.026 148.123h-72.294l-36.584-62.202 36.584-63.169h72.294l36.584 63.169-36.584 62.202Z" fill="#373737"/>
	<path d="M263.142 117h-98.658L115 203.267 164.484 289h98.658L313 203.267 263.142 117Zm-13.026 149.044h-72.294l-36.584-62.651 36.584-63.437h72.294l36.584 63.437-36.584 62.651Z" fill="#373737"/>
</svg>
