<svg xmlns="http://www.w3.org/2000/svg" viewBox="-7.01 -7.01 364.52 147.02">
	<path fill="#575756" d="M48.35 0c22.9 0 34.62 12.53 34.62 12.53l-6.6 10a43.41 43.41 0 0 0-27.48-10.37c-21.28 0-35.15 16.16-35.15 36.37s14.14 37.58 35.28 37.58c17.92 0 29.37-12.39 29.37-12.39l7.13 9.56s-13.06 15.08-36.9 15.08C20.07 98.36 0 76.54 0 48.66 0 21 20.74 0 48.35 0zm56 1.62h13.33v95.09h-13.33zm25.75 0h13.25l42.29 61.82c3.51 5.12 7.95 13.74 7.95 13.74h.27s-.94-8.49-.94-13.74V1.62h13.33v95.09h-13.11L150.71 35c-3.5-5.25-7.95-13.87-7.95-13.87h-.27s.95 8.48.95 13.87v61.69H130.1zM267.75 0c27.61 0 48.89 21.15 48.89 48.62A49.54 49.54 0 0 1 305.46 80l1.78 8.5-4.33-3.25-5 2.83a47.48 47.48 0 0 1-30.17 10.23c-27.47 0-48.76-21.95-48.76-49.7C218.99 21.15 240.28 0 267.75 0zm0 86.07a34.25 34.25 0 0 0 20.61-7l-11.18-10.91 7.81-8.35 10.91 11.05a38.3 38.3 0 0 0 7-22.23c0-21-15.36-36.5-35.16-36.5s-35 15.49-35 36.5c-.01 21.27 15.35 37.44 35.01 37.44z"/>
	<path fill="#58addf" d="m278.998 53.91 37.663 35.679-8.713 9.198-37.664-35.68z"/>
	<circle cx="340.6" cy="88.11" r="10.13" fill="#f39200"/>
	<path fill="#575756" d="M38.46 126.67a11.65 11.65 0 0 1-.12 1.45 5.83 5.83 0 0 1-.37 1.36 3.49 3.49 0 0 1-.76 1.15 3.84 3.84 0 0 1-1.41.88 5.32 5.32 0 0 1-1.83.31h-4.39V119h4.39a5.09 5.09 0 0 1 1.83.31 3.71 3.71 0 0 1 1.41.88 3.51 3.51 0 0 1 .76 1.1 5.19 5.19 0 0 1 .37 1.26 10 10 0 0 1 .12 1.35v2.77zm-1.37-2.59a9.65 9.65 0 0 0-.08-1.11 4.44 4.44 0 0 0-.25-1 2.42 2.42 0 0 0-.51-.81 2.72 2.72 0 0 0-1.13-.73 4.36 4.36 0 0 0-1.39-.21h-2.79v10.37h2.79a4.36 4.36 0 0 0 1.39-.21 2.7 2.7 0 0 0 1.13-.72 2.37 2.37 0 0 0 .51-.86 5.36 5.36 0 0 0 .25-1.1 11.71 11.71 0 0 0 .08-1.21v-1.23c0-.4.01-.79 0-1.18zm11.89 7.74-1-2.9h-5.63l-1 2.9h-1.46l4.7-12.82h1.15l4.7 12.82zM45.18 121l-2.41 6.77h4.79zm10.01-.78v11.6h-1.37v-11.6h-3.71V119h8.79v1.22zm12.49 11.6-1-2.9h-5.6l-1 2.9h-1.46L63.29 119h1.15l4.7 12.82zM63.88 121l-2.41 6.77h4.79z"/>
	<path fill="#58addf" d="M76.12 133.15v-15.48h1.3v15.48Z"/>
	<path fill="#575756" d="M94.92 126.67a10 10 0 0 1-.11 1.45 6.36 6.36 0 0 1-.37 1.36 3.52 3.52 0 0 1-.77 1.15 3.8 3.8 0 0 1-1.4.88 5.34 5.34 0 0 1-1.84.31h-4.39V119h4.39a5.11 5.11 0 0 1 1.84.31 3.67 3.67 0 0 1 1.4.88 3.54 3.54 0 0 1 .77 1.1 5.68 5.68 0 0 1 .37 1.26 8.58 8.58 0 0 1 .11 1.35v1.36c0 .44.01.92 0 1.41zm-1.36-2.59c0-.39 0-.76-.08-1.11a4.44 4.44 0 0 0-.26-1 2.4 2.4 0 0 0-.5-.81 2.78 2.78 0 0 0-1.13-.73 4.4 4.4 0 0 0-1.39-.21h-2.79v10.37h2.79a4.4 4.4 0 0 0 1.39-.21 2.76 2.76 0 0 0 1.13-.72 2.35 2.35 0 0 0 .5-.86 5.36 5.36 0 0 0 .26-1.1c0-.39.07-.79.08-1.21s0-.83 0-1.23v-1.18zm4.6 7.74V119h7.95v1.22h-6.59v4.52h5.62V126h-5.62v4.62h6.59v1.23zm14.41 0h-1.11L107.25 119h1.43l3.34 10.37 3.33-10.37h1.44zm14.49-4.62a8 8 0 0 1-.13 1.37 4.5 4.5 0 0 1-.36 1.09 3.66 3.66 0 0 1-.7.93 4.54 4.54 0 0 1-1.47 1 4.62 4.62 0 0 1-1.8.34 4.45 4.45 0 0 1-3.28-1.33 3.61 3.61 0 0 1-.69-.93 4.5 4.5 0 0 1-.36-1.09 8 8 0 0 1-.13-1.37v-3.58a7.87 7.87 0 0 1 .13-1.37 4.36 4.36 0 0 1 .36-1.09 3.49 3.49 0 0 1 .69-.94 4.7 4.7 0 0 1 6.55 0 3.54 3.54 0 0 1 .7.94 4.36 4.36 0 0 1 .36 1.09 7.87 7.87 0 0 1 .13 1.37v1.79c0 .69.01 1.27 0 1.78zm-1.37-3.49a8.47 8.47 0 0 0-.12-1.18 3 3 0 0 0-.27-.84 2.69 2.69 0 0 0-.49-.66 2.93 2.93 0 0 0-1-.67 3.15 3.15 0 0 0-1.21-.24 3.2 3.2 0 0 0-1.22.24 2.89 2.89 0 0 0-1 .67 2.69 2.69 0 0 0-.49.66 3 3 0 0 0-.27.84 8.47 8.47 0 0 0-.12 1.18v3.4a8.81 8.81 0 0 0 .12 1.18 3 3 0 0 0 .27.83 2.36 2.36 0 0 0 .49.66 2.91 2.91 0 0 0 1 .68 3.2 3.2 0 0 0 1.22.24 3.15 3.15 0 0 0 1.21-.24 3 3 0 0 0 1-.68 2.36 2.36 0 0 0 .49-.66 3 3 0 0 0 .27-.83 8.81 8.81 0 0 0 .12-1.18v-1.7c0-.7.01-1.24 0-1.7zm13.05.62a3.31 3.31 0 0 1-.81 1.19 3.63 3.63 0 0 1-1.25.75 4.57 4.57 0 0 1-1.61.27h-3.4v5.28h-1.32V119h4.77a4.81 4.81 0 0 1 1.61.26 3.45 3.45 0 0 1 2.06 1.94 4.37 4.37 0 0 1 0 3.13zm-1.83-3.48a3 3 0 0 0-2-.63h-3.28v5.1h3.28a3 3 0 0 0 2-.64 2.39 2.39 0 0 0 .75-1.92 2.36 2.36 0 0 0-.75-1.91zm12.14 8.96a3.13 3.13 0 0 1-.9 1.14 4.31 4.31 0 0 1-1.4.72 6.09 6.09 0 0 1-1.81.25 7 7 0 0 1-2.47-.39 5.72 5.72 0 0 1-1.93-1.3l.94-.93a4.66 4.66 0 0 0 1.6 1.09 5.2 5.2 0 0 0 1.89.31 3.59 3.59 0 0 0 2.22-.62 2.09 2.09 0 0 0 .81-1.76 2.42 2.42 0 0 0-.16-.91 1.59 1.59 0 0 0-.46-.69 1.93 1.93 0 0 0-.63-.39 7.39 7.39 0 0 0-1-.22l-1.49-.23a4.71 4.71 0 0 1-2.36-1 3 3 0 0 1-1-2.39 3.8 3.8 0 0 1 .28-1.49 3.27 3.27 0 0 1 .82-1.14 4.05 4.05 0 0 1 1.29-.73 5.3 5.3 0 0 1 1.71-.26 6 6 0 0 1 2.11.33 5.74 5.74 0 0 1 1.71 1.08l-.89.88a4.18 4.18 0 0 0-1.27-.82 4.5 4.5 0 0 0-1.71-.28 2.85 2.85 0 0 0-2 .65 2.23 2.23 0 0 0-.7 1.73 1.86 1.86 0 0 0 .57 1.47 2.81 2.81 0 0 0 .77.43 4.84 4.84 0 0 0 1 .27l1.4.22.81.15a5.78 5.78 0 0 1 .62.19 3.19 3.19 0 0 1 .49.24 2.59 2.59 0 0 1 .42.32 3.15 3.15 0 0 1 1.08 2.54 3.56 3.56 0 0 1-.36 1.54z"/>
	<path fill="#58addf" d="M157.14 133.15v-15.48h1.3v15.48Z"/>
	<path fill="#575756" d="M175.94 126.67a10 10 0 0 1-.12 1.45 5.83 5.83 0 0 1-.37 1.36 3.34 3.34 0 0 1-.76 1.15 3.8 3.8 0 0 1-1.4.88 5.42 5.42 0 0 1-1.84.31h-4.39V119h4.39a5.19 5.19 0 0 1 1.84.31 3.67 3.67 0 0 1 1.4.88 3.35 3.35 0 0 1 .76 1.1 5.19 5.19 0 0 1 .37 1.26 8.58 8.58 0 0 1 .12 1.35v1.36c0 .44.01.92 0 1.41zm-1.37-2.59a7.83 7.83 0 0 0-.08-1.11 4.44 4.44 0 0 0-.25-1 2.57 2.57 0 0 0-.5-.81 2.82 2.82 0 0 0-1.14-.73 4.34 4.34 0 0 0-1.38-.21h-2.79v10.37h2.79a4.34 4.34 0 0 0 1.38-.21 2.79 2.79 0 0 0 1.14-.72 2.5 2.5 0 0 0 .5-.86 5.36 5.36 0 0 0 .25-1.1 9.46 9.46 0 0 0 .08-1.21v-1.23c0-.4.01-.79 0-1.18zm4.6 7.74V119h8v1.22h-6.59v4.52h5.62V126h-5.62v4.62h6.59v1.23zm14.42 0h-1.12L188.26 119h1.44l3.33 10.37 3.32-10.37h1.44zm6.21 0V119h8v1.22h-6.59v4.52h5.61V126h-5.61v4.62h6.59v1.23zm10.8 0V119h1.37v11.59h6.55v1.23zm18.13-4.62a9 9 0 0 1-.14 1.37 4.5 4.5 0 0 1-.36 1.09 3.61 3.61 0 0 1-.69.93 4.69 4.69 0 0 1-1.48 1 4.62 4.62 0 0 1-1.8.34 4.45 4.45 0 0 1-3.28-1.33 3.61 3.61 0 0 1-.69-.93 4.5 4.5 0 0 1-.36-1.09 8 8 0 0 1-.13-1.37v-3.58a7.87 7.87 0 0 1 .13-1.37 4.36 4.36 0 0 1 .36-1.09 3.49 3.49 0 0 1 .69-.94 4.71 4.71 0 0 1 6.56 0 3.49 3.49 0 0 1 .69.94 4.36 4.36 0 0 1 .36 1.09 8.9 8.9 0 0 1 .14 1.37v1.79c0 .69.01 1.27 0 1.78zm-1.38-3.49a8.47 8.47 0 0 0-.12-1.18 3 3 0 0 0-.27-.84 2.69 2.69 0 0 0-.49-.66 2.89 2.89 0 0 0-1-.67 3.2 3.2 0 0 0-1.22-.24 3.11 3.11 0 0 0-1.21.24 2.93 2.93 0 0 0-1 .67 2.69 2.69 0 0 0-.49.66 3 3 0 0 0-.27.84 8.47 8.47 0 0 0-.12 1.18v3.4a8.81 8.81 0 0 0 .12 1.18 3 3 0 0 0 .27.83 2.36 2.36 0 0 0 .49.66 3 3 0 0 0 1 .68 3.11 3.11 0 0 0 1.21.24 3.2 3.2 0 0 0 1.22-.24 2.91 2.91 0 0 0 1-.68 2.36 2.36 0 0 0 .49-.66 3 3 0 0 0 .27-.83 8.81 8.81 0 0 0 .12-1.18v-3.4zm13.06.62a3.59 3.59 0 0 1-.81 1.19 3.82 3.82 0 0 1-1.25.75 4.67 4.67 0 0 1-1.62.27h-3.38v5.28h-1.37V119h4.77a4.91 4.91 0 0 1 1.62.26 3.53 3.53 0 0 1 1.25.76 3.65 3.65 0 0 1 .81 1.18 4.51 4.51 0 0 1 0 3.13zm-1.84-3.48a3 3 0 0 0-2-.63h-3.22v5.1h3.28a3 3 0 0 0 2-.64 2.4 2.4 0 0 0 .76-1.92 2.36 2.36 0 0 0-.82-1.91zm14.35 10.97v-9.74l-3.51 7.72h-1.17l-3.57-7.72v9.74h-1.32V119h1.37l4.18 9.09 4.07-9.09h1.36v12.82zm5.07 0V119h8v1.22h-6.64v4.52h5.62V126h-5.62v4.62h6.59v1.23zm18.97 0-6.8-10.28v10.28h-1.37V119h1.3l6.8 10.24V119h1.37v12.82zm8.77-11.6v11.6h-1.38v-11.6h-3.7V119h8.79v1.22z"/>
</svg>
