<svg xmlns="http://www.w3.org/2000/svg" viewBox="0 0 113.7 32"><defs><style>.cls-1{fill:#161616;}</style></defs><title>circleci-logo</title><g id="Layer_2" data-name="Layer 2"><g id="Layer_1-2" data-name="Layer 1"><path class="cls-1" d="M46.74,20.77H45.22a.33.33,0,0,0-.26.13,4.92,4.92,0,1,1,0-5.51.33.33,0,0,0,.26.13h1.52A.33.33,0,0,0,47,15a6.89,6.89,0,1,0,0,6.2.32.32,0,0,0,0-.15.33.33,0,0,0-.33-.33ZM51.34,9a1.31,1.31,0,0,1-2.63,0A1.31,1.31,0,0,1,51.34,9ZM51,24.38V11.58H49v12.8a.33.33,0,0,0,.33.33h1.31a.33.33,0,0,0,.33-.33Zm8.54-13.12A5.84,5.84,0,0,0,55,13.75V11.9a.33.33,0,0,0-.33-.33H53.31a.33.33,0,0,0-.33.33V24.38a.33.33,0,0,0,.33.33h1.31a.33.33,0,0,0,.33-.33V18.14a4.93,4.93,0,0,1,4.6-4.91.33.33,0,0,0,.33-.33V11.58a.33.33,0,0,0-.32-.33Zm13.08,9.5H71.11a.33.33,0,0,0-.26.13,4.92,4.92,0,1,1,0-5.51.33.33,0,0,0,.26.13h1.53a.33.33,0,0,0,.33-.33.32.32,0,0,0,0-.15,6.89,6.89,0,1,0,0,6.2.32.32,0,0,0,0-.15.33.33,0,0,0-.33-.33ZM76.57,7.3H75.26a.33.33,0,0,0-.33.33V24.37a.33.33,0,0,0,.33.33h1.31a.33.33,0,0,0,.33-.33V7.64a.33.33,0,0,0-.33-.33Zm9.2,3.94a6.89,6.89,0,1,0,6.15,10,.33.33,0,0,0-.29-.47H90.1a.33.33,0,0,0-.26.13,4.92,4.92,0,0,1-9-2.11H92.31a.33.33,0,0,0,.33-.31v-.35a6.89,6.89,0,0,0-6.89-6.89ZM81,16.82a4.93,4.93,0,0,1,9.49,0ZM111.73,7a2,2,0,0,0,0,3.94A2,2,0,0,0,111.73,7Zm1.64,4.59v12.8a.33.33,0,0,1-.33.33h-2.63a.33.33,0,0,1-.33-.33V11.57ZM101.51,25a6.9,6.9,0,0,0,6.68-5.19.3.3,0,0,0,0-.07.33.33,0,0,0-.33-.33h-2.78a.33.33,0,0,0-.3.19,3.61,3.61,0,1,1,0-3,.33.33,0,0,0,.3.19h2.78a.33.33,0,0,0,.33-.33.32.32,0,0,0,0-.07,6.89,6.89,0,1,0-6.68,8.6Z"/><circle class="cls-1" cx="15.52" cy="16.01" r="3.81"/><path class="cls-1" d="M15.52,0A16,16,0,0,0,0,12a.78.78,0,0,0,0,.19A.76.76,0,0,0,.76,13H7.21a.75.75,0,0,0,.69-.45v0a8.38,8.38,0,1,1,0,7v0A.76.76,0,0,0,7.22,19H.76a.76.76,0,0,0-.76.76A.75.75,0,0,0,0,20,16,16,0,1,0,15.54,0Z"/></g></g></svg>