<svg xmlns="http://www.w3.org/2000/svg" width="200" height="128">
    <path d="M24.156 67.222c.985 0 1.971.029 2.954-.011a1.221 1.221 0 0 1 1.266.771 8.474 8.474 0 0 0 5.7 4.536 8.779 8.779 0 1 0 3.373-17.209 8.666 8.666 0 0 0-8.909 4.365 3.547 3.547 0 0 0-.228.436 1.035 1.035 0 0 1-1.107.67c-1.876-.02-3.752-.007-5.629-.007-.234 0-.469.007-.7 0-.719-.034-1.006-.422-.82-1.112A16.716 16.716 0 0 1 36.747 47.3a16.287 16.287 0 0 1 12.693 6.53 15.883 15.883 0 0 1 3.385 8.5 16.724 16.724 0 0 1-13.266 18.021 16.244 16.244 0 0 1-15.022-4.393 16 16 0 0 1-4.456-7.529c-.226-.82.044-1.194.909-1.2 1.055-.016 2.11-.007 3.166-.007zM169.237 62.016c-.562 0-1.127-.031-1.687.009a.942.942 0 0 1-.974-.628 5.041 5.041 0 0 0-2.994-2.51 5.179 5.179 0 0 0-5.518 1.258 5.11 5.11 0 0 0-1.379 5.427 5.167 5.167 0 0 0 4.241 3.754 5.3 5.3 0 0 0 5.634-2.709 1.071 1.071 0 0 1 1.106-.647c1.123.037 2.25 0 3.375.013.726.006.886.21.655.914a9.991 9.991 0 0 1-8.319 7.24 10.264 10.264 0 1 1 8.294-13.132c.027.09.069.176.088.267.106.5-.048.721-.553.737-.656.021-1.312.005-1.969.005zM131.025 64.965a7.236 7.236 0 0 0 5.622 6.209 7.156 7.156 0 0 0 7.449-2.66 1.269 1.269 0 0 1 1.18-.576c.513.042 1.031 0 1.547.012.669.016.846.3.53.893a10.029 10.029 0 0 1-4.334 4.282 10.276 10.276 0 1 1 5.349-11.155 13.922 13.922 0 0 1 .191 2.305c.018.521-.151.66-.664.688-.187.01-.375 0-.563 0h-16.307zm.226-2.955h14.069c-.393-2.769-3.553-5.267-6.751-5.369a7.242 7.242 0 0 0-7.318 5.369zM117.387 60.046c-.824.243-1.392-.263-2.032-.967a7.347 7.347 0 0 0-12.689 3.621 7.316 7.316 0 0 0 7.416 8.654 7.107 7.107 0 0 0 5.63-2.846 1.253 1.253 0 0 1 1.185-.568c.512.041 1.031 0 1.546.012.678.018.85.3.52.9a10.04 10.04 0 0 1-6.565 5.117 10.274 10.274 0 1 1 6.424-15.081 3.405 3.405 0 0 1 .225.437c.169.413.009.685-.446.72-.349.022-.701.001-1.214.001zM71.144 53.691a10.352 10.352 0 0 1 8.974 5.175 3.1 3.1 0 0 1 .257.5c.132.343-.015.646-.378.662a18.291 18.291 0 0 1-2.318-.014c-.222-.018-.458-.3-.622-.509a7.177 7.177 0 0 0-3.9-2.613 7.366 7.366 0 1 0-3.12 14.376 7.148 7.148 0 0 0 6.8-2.518 2.517 2.517 0 0 0 .26-.332.953.953 0 0 1 .942-.477c.514.03 1.031 0 1.547.008.9.008 1.044.26.587 1.066A10.04 10.04 0 0 1 74.6 73.7a10.279 10.279 0 1 1-5.389-19.786c.66-.127 1.342-.158 1.933-.223zM174.694 54.222h4.792c.016.181.041.337.041.493V72.93c0 .749-.109.863-.845.869q-1.581.013-3.164 0c-.73-.006-.862-.134-.862-.867q-.006-9.142 0-18.285c.001-.115.02-.229.038-.425zM92.278 57.33c.221-.24.362-.385.494-.538a8.683 8.683 0 0 1 5.985-3.037c.683-.064.818.075.828.783.007.445.009.891 0 1.337-.012.6-.126.729-.738.788a6.768 6.768 0 0 0-2.67.811 7.035 7.035 0 0 0-3.913 6.239c-.079 2.953-.026 5.91-.03 8.865 0 1.2-.027 1.223-1.214 1.223-.352 0-.7.015-1.056-.007-.488-.03-.608-.163-.634-.648-.007-.14 0-.281 0-.422V55.275c0-.141-.005-.282 0-.422.025-.49.143-.633.628-.654a18.553 18.553 0 0 1 1.617 0c.476.019.632.172.651.647.023.586 0 1.173.009 1.759.002.195.023.4.043.725zM122.128 60.784V48.97c0-.164-.006-.328 0-.492.026-.491.149-.633.627-.647a28.787 28.787 0 0 1 1.688 0c.4.013.543.163.588.551a4.245 4.245 0 0 1 .007.492V73.064c-.027.563-.158.712-.712.732-.491.019-.984.017-1.476 0-.6-.02-.712-.151-.721-.778-.008-.493 0-.985 0-1.477zM83.429 54.193h2.572a2.286 2.286 0 0 1 .306.047c.013.221.036.425.036.629v17.919a3.939 3.939 0 0 1-.006.421c-.043.4-.174.558-.57.577-.584.028-1.172.03-1.756 0-.429-.021-.552-.185-.58-.632-.008-.117 0-.234 0-.351v-18.61z"/>
    <path d="M36.182 60.05a3.948 3.948 0 1 1-3.964 3.918 3.976 3.976 0 0 1 3.964-3.918zM180 50.246a2.9 2.9 0 1 1-2.9-2.887 2.872 2.872 0 0 1 2.9 2.887zM86.8 50.236a1.918 1.918 0 1 1-1.924-1.9 1.883 1.883 0 0 1 1.924 1.9z"/>
</svg>
