<svg xmlns="http://www.w3.org/2000/svg" width="200" height="128">
    <g fill="#1e1e1e">
        <path d="M49.016 92.071l2.157 5.77h-1.317l-.436-1.285h-2.158l-.452 1.285h-1.277l2.182-5.77zm.072 3.539l-.727-2.117h-.016l-.751 2.117zM55.085 92.071a2.429 2.429 0 0 1 .921.157 1.742 1.742 0 0 1 .618.416 1.611 1.611 0 0 1 .348.591 2.2 2.2 0 0 1 0 1.369 1.591 1.591 0 0 1-.348.594 1.729 1.729 0 0 1-.618.416 2.409 2.409 0 0 1-.921.158h-1.334v2.069h-1.268v-5.77zm-.348 2.715a2.59 2.59 0 0 0 .42-.033.989.989 0 0 0 .356-.124.686.686 0 0 0 .246-.263 1.109 1.109 0 0 0 0-.889.679.679 0 0 0-.246-.263.99.99 0 0 0-.356-.125 2.71 2.71 0 0 0-.42-.032h-.986v1.729zM61.283 92.071a2.429 2.429 0 0 1 .921.157 1.742 1.742 0 0 1 .618.416 1.6 1.6 0 0 1 .347.591 2.185 2.185 0 0 1 0 1.369 1.575 1.575 0 0 1-.347.594 1.729 1.729 0 0 1-.618.416 2.409 2.409 0 0 1-.921.158h-1.334v2.069h-1.268v-5.77zm-.348 2.715a2.6 2.6 0 0 0 .42-.033.989.989 0 0 0 .356-.124.694.694 0 0 0 .246-.263 1.109 1.109 0 0 0 0-.889.687.687 0 0 0-.246-.263.99.99 0 0 0-.356-.125 2.719 2.719 0 0 0-.42-.032h-.986v1.729zM66.147 92.071v4.7h2.812v1.068h-4.081v-5.77zM71.748 92.071v5.77h-1.269v-5.77zM77.372 93.61a1.292 1.292 0 0 0-.667-.533 1.328 1.328 0 0 0-.449-.077 1.485 1.485 0 0 0-.727.166 1.371 1.371 0 0 0-.485.444 1.961 1.961 0 0 0-.271.635 3.18 3.18 0 0 0-.085.735 2.968 2.968 0 0 0 .085.707 1.916 1.916 0 0 0 .271.618 1.379 1.379 0 0 0 .485.44 1.474 1.474 0 0 0 .727.166 1.173 1.173 0 0 0 .909-.355 1.647 1.647 0 0 0 .4-.937h1.229a2.944 2.944 0 0 1-.251.977 2.349 2.349 0 0 1-.533.744 2.286 2.286 0 0 1-.776.468 2.834 2.834 0 0 1-.978.161 2.968 2.968 0 0 1-1.192-.229 2.545 2.545 0 0 1-.892-.635 2.79 2.79 0 0 1-.558-.95 3.486 3.486 0 0 1-.194-1.175 3.612 3.612 0 0 1 .194-1.2 2.859 2.859 0 0 1 .558-.965 2.538 2.538 0 0 1 .892-.648 3.091 3.091 0 0 1 2.093-.1 2.413 2.413 0 0 1 .76.4 2.152 2.152 0 0 1 .553.65 2.324 2.324 0 0 1 .275.89h-1.228a1.056 1.056 0 0 0-.145-.397zM83.343 92.071l2.158 5.77h-1.317l-.437-1.285H81.59l-.453 1.285H79.86l2.182-5.77zm.073 3.539l-.727-2.117h-.017l-.751 2.117zM85.614 93.137v-1.066h4.727v1.066h-1.729v4.7h-1.269v-4.7zM93.081 92.071v5.77h-1.269v-5.77zM94.948 93.78a2.873 2.873 0 0 1 .557-.965 2.551 2.551 0 0 1 .893-.648 3.163 3.163 0 0 1 2.388 0 2.554 2.554 0 0 1 .889.648 2.873 2.873 0 0 1 .557.965 3.587 3.587 0 0 1 .2 1.2 3.461 3.461 0 0 1-.2 1.175 2.8 2.8 0 0 1-.557.95 2.56 2.56 0 0 1-.889.635 3.227 3.227 0 0 1-2.388 0 2.558 2.558 0 0 1-.893-.635 2.8 2.8 0 0 1-.557-.95 3.461 3.461 0 0 1-.195-1.175 3.587 3.587 0 0 1 .195-1.2zm1.159 1.907a1.916 1.916 0 0 0 .271.618 1.379 1.379 0 0 0 .485.44 1.675 1.675 0 0 0 1.454 0 1.388 1.388 0 0 0 .485-.44 1.916 1.916 0 0 0 .271-.618 2.968 2.968 0 0 0 .085-.707 3.18 3.18 0 0 0-.085-.735 1.961 1.961 0 0 0-.271-.635 1.38 1.38 0 0 0-.485-.444 1.675 1.675 0 0 0-1.454 0 1.371 1.371 0 0 0-.485.444 1.961 1.961 0 0 0-.271.635 3.18 3.18 0 0 0-.085.735 2.968 2.968 0 0 0 .085.707zM103.36 92.071l2.408 3.87h.016v-3.87h1.188v5.77H105.7l-2.4-3.863h-.016v3.863H102.1v-5.77zM115.651 93.61a1.3 1.3 0 0 0-.667-.533 1.328 1.328 0 0 0-.449-.077 1.483 1.483 0 0 0-.727.166 1.371 1.371 0 0 0-.485.444 1.937 1.937 0 0 0-.27.635 3.126 3.126 0 0 0-.086.735 2.918 2.918 0 0 0 .086.707 1.893 1.893 0 0 0 .27.618 1.379 1.379 0 0 0 .485.44 1.472 1.472 0 0 0 .727.166 1.177 1.177 0 0 0 .91-.355 1.646 1.646 0 0 0 .4-.937h1.229a2.944 2.944 0 0 1-.251.977 2.333 2.333 0 0 1-.533.744 2.286 2.286 0 0 1-.776.468 2.834 2.834 0 0 1-.978.161 2.959 2.959 0 0 1-1.191-.229 2.552 2.552 0 0 1-.894-.635 2.8 2.8 0 0 1-.557-.95 3.486 3.486 0 0 1-.194-1.175 3.612 3.612 0 0 1 .194-1.2 2.873 2.873 0 0 1 .557-.965 2.546 2.546 0 0 1 .894-.648 3.091 3.091 0 0 1 2.093-.1 2.419 2.419 0 0 1 .759.4 2.152 2.152 0 0 1 .553.65 2.342 2.342 0 0 1 .276.89H115.8a1.056 1.056 0 0 0-.149-.397zM123.061 92.071v1.066h-3.046v1.237h2.8v.986h-2.8v1.413h3.111v1.068h-4.38v-5.77zM126.051 92.071l2.408 3.87h.015v-3.87h1.188v5.77h-1.268l-2.4-3.863h-.016v3.863h-1.188v-5.77zM131.134 93.137v-1.066h4.727v1.066h-1.729v4.7h-1.269v-4.7zM140.442 92.071a1.845 1.845 0 0 1 .7.125 1.629 1.629 0 0 1 .534.343 1.528 1.528 0 0 1 .339.5 1.619 1.619 0 0 1 .117.618 1.738 1.738 0 0 1-.214.882 1.344 1.344 0 0 1-.7.565v.016a1.009 1.009 0 0 1 .388.2 1.12 1.12 0 0 1 .251.316 1.492 1.492 0 0 1 .141.4 3.27 3.27 0 0 1 .06.435c0 .092.012.2.017.324s.015.251.028.38a2.452 2.452 0 0 0 .065.368.825.825 0 0 0 .133.295h-1.269a2.243 2.243 0 0 1-.129-.655 9.607 9.607 0 0 0-.073-.727 1.139 1.139 0 0 0-.275-.663.943.943 0 0 0-.686-.21H138.6v2.255h-1.269v-5.77zm-.452 2.61a.959.959 0 0 0 .654-.194.807.807 0 0 0 .218-.63.768.768 0 0 0-.218-.61.969.969 0 0 0-.654-.19h-1.39v1.624zM145.243 92.071v5.77h-1.269v-5.77zM150.867 93.61a1.3 1.3 0 0 0-.666-.533 1.328 1.328 0 0 0-.449-.077 1.483 1.483 0 0 0-.727.166 1.363 1.363 0 0 0-.485.444 1.918 1.918 0 0 0-.271.635 3.126 3.126 0 0 0-.085.735 2.918 2.918 0 0 0 .085.707 1.874 1.874 0 0 0 .271.618 1.371 1.371 0 0 0 .485.44 1.472 1.472 0 0 0 .727.166 1.175 1.175 0 0 0 .909-.355 1.653 1.653 0 0 0 .4-.937h1.228a2.92 2.92 0 0 1-.251.977 2.333 2.333 0 0 1-.533.744 2.276 2.276 0 0 1-.776.468 2.829 2.829 0 0 1-.977.161 2.964 2.964 0 0 1-1.192-.229 2.562 2.562 0 0 1-.894-.635 2.821 2.821 0 0 1-.557-.95 3.486 3.486 0 0 1-.194-1.175 3.612 3.612 0 0 1 .194-1.2 2.89 2.89 0 0 1 .557-.965 2.555 2.555 0 0 1 .894-.648 3.091 3.091 0 0 1 2.093-.1 2.408 2.408 0 0 1 .759.4 2.169 2.169 0 0 1 .554.65 2.359 2.359 0 0 1 .275.89h-1.229a1.039 1.039 0 0 0-.145-.397zM45.509 101.768v5.769H44.24v-5.769zM48.693 101.768l2.408 3.87h.016v-3.87h1.188v5.769h-1.269l-2.4-3.862h-.016v3.862h-1.188v-5.769zM58.285 101.768v1.066H55.5v1.334h2.416v.985H55.5v2.384h-1.272v-5.769zM62.939 101.768a1.845 1.845 0 0 1 .7.125 1.629 1.629 0 0 1 .534.343 1.5 1.5 0 0 1 .339.5 1.619 1.619 0 0 1 .117.618 1.738 1.738 0 0 1-.214.882 1.344 1.344 0 0 1-.7.565v.016a.989.989 0 0 1 .388.2 1.106 1.106 0 0 1 .251.316 1.492 1.492 0 0 1 .141.4 3.447 3.447 0 0 1 .061.435l.016.324c.006.124.014.251.028.38a2.587 2.587 0 0 0 .064.368.848.848 0 0 0 .134.294h-1.269a2.23 2.23 0 0 1-.129-.654c-.016-.253-.04-.5-.073-.727a1.139 1.139 0 0 0-.275-.663.945.945 0 0 0-.687-.21H61.1v2.254h-1.272v-5.769zm-.452 2.61a.959.959 0 0 0 .654-.194.8.8 0 0 0 .219-.63.765.765 0 0 0-.219-.61.969.969 0 0 0-.654-.191H61.1v1.625zM69.348 101.768l2.157 5.769h-1.317l-.437-1.284h-2.157l-.452 1.284h-1.278l2.182-5.769zm.072 3.539l-.727-2.117h-.016l-.752 2.117zM73.784 106.115a.909.909 0 0 0 .279.327 1.184 1.184 0 0 0 .408.186 1.939 1.939 0 0 0 .484.061 2.5 2.5 0 0 0 .364-.028 1.292 1.292 0 0 0 .364-.109.8.8 0 0 0 .283-.223.559.559 0 0 0 .113-.359.506.506 0 0 0-.15-.38 1.181 1.181 0 0 0-.392-.243 3.891 3.891 0 0 0-.549-.169c-.2-.048-.412-.1-.622-.161a5.785 5.785 0 0 1-.631-.2 2.127 2.127 0 0 1-.549-.3 1.428 1.428 0 0 1-.392-.465 1.4 1.4 0 0 1-.149-.674 1.518 1.518 0 0 1 .189-.772 1.718 1.718 0 0 1 .5-.545 2.185 2.185 0 0 1 .695-.324 2.959 2.959 0 0 1 .776-.105 3.692 3.692 0 0 1 .869.1 2.184 2.184 0 0 1 .739.328 1.656 1.656 0 0 1 .513.577 1.771 1.771 0 0 1 .19.853h-1.231a1.023 1.023 0 0 0-.109-.429.72.72 0 0 0-.247-.266 1.01 1.01 0 0 0-.351-.137 2.159 2.159 0 0 0-.433-.041 1.515 1.515 0 0 0-.306.032.84.84 0 0 0-.279.113.7.7 0 0 0-.206.2.541.541 0 0 0-.081.307.515.515 0 0 0 .064.274.574.574 0 0 0 .255.194 3.117 3.117 0 0 0 .525.178q.336.09.877.226c.108.022.257.061.448.118a2.1 2.1 0 0 1 .57.271 1.7 1.7 0 0 1 .489.5 1.42 1.42 0 0 1 .206.8 1.77 1.77 0 0 1-.153.736 1.594 1.594 0 0 1-.457.585 2.212 2.212 0 0 1-.752.385 3.573 3.573 0 0 1-1.038.136 3.647 3.647 0 0 1-.925-.116 2.309 2.309 0 0 1-.792-.369 1.794 1.794 0 0 1-.545-.638 1.891 1.891 0 0 1-.195-.921h1.229a1.06 1.06 0 0 0 .105.487zM78.414 102.834v-1.066h4.727v1.066h-1.729v4.7h-1.269v-4.7zM87.723 101.768a1.848 1.848 0 0 1 .7.125 1.624 1.624 0 0 1 .533.343 1.486 1.486 0 0 1 .34.5 1.619 1.619 0 0 1 .117.618 1.748 1.748 0 0 1-.214.882 1.344 1.344 0 0 1-.7.565v.016a1 1 0 0 1 .388.2 1.1 1.1 0 0 1 .25.316 1.46 1.46 0 0 1 .142.4 3.636 3.636 0 0 1 .06.435c.006.092.011.2.016.324s.015.251.029.38a2.587 2.587 0 0 0 .064.368.847.847 0 0 0 .133.294h-1.268a2.23 2.23 0 0 1-.129-.654 9.607 9.607 0 0 0-.073-.727 1.146 1.146 0 0 0-.275-.663.945.945 0 0 0-.687-.21h-1.268v2.254h-1.269v-5.769zm-.452 2.61a.96.96 0 0 0 .654-.194.8.8 0 0 0 .218-.63.765.765 0 0 0-.218-.61.971.971 0 0 0-.654-.191h-1.39v1.625zM95.5 107.1a3.179 3.179 0 0 1-3.624 0 2.2 2.2 0 0 1-.643-1.745v-3.588H92.5v3.588a2.605 2.605 0 0 0 .04.46.9.9 0 0 0 .53.683 1.454 1.454 0 0 0 .618.109 1.188 1.188 0 0 0 .937-.3 1.446 1.446 0 0 0 .259-.949v-3.588h1.269v3.588a2.186 2.186 0 0 1-.653 1.742zM101.751 103.307a1.276 1.276 0 0 0-.282-.319 1.312 1.312 0 0 0-.384-.214 1.328 1.328 0 0 0-.449-.077 1.485 1.485 0 0 0-.727.166 1.371 1.371 0 0 0-.485.444 1.961 1.961 0 0 0-.271.635 3.18 3.18 0 0 0-.085.735 2.968 2.968 0 0 0 .085.707 1.916 1.916 0 0 0 .271.618 1.379 1.379 0 0 0 .485.44 1.474 1.474 0 0 0 .727.166 1.173 1.173 0 0 0 .909-.355 1.647 1.647 0 0 0 .4-.937h1.229a2.944 2.944 0 0 1-.251.977 2.349 2.349 0 0 1-.533.744 2.286 2.286 0 0 1-.776.468 2.839 2.839 0 0 1-.978.161 2.968 2.968 0 0 1-1.192-.229 2.558 2.558 0 0 1-.893-.635 2.8 2.8 0 0 1-.557-.95 3.461 3.461 0 0 1-.194-1.175 3.587 3.587 0 0 1 .194-1.2 2.888 2.888 0 0 1 .557-.966 2.562 2.562 0 0 1 .893-.647 3.091 3.091 0 0 1 2.093-.1 2.413 2.413 0 0 1 .76.4 2.166 2.166 0 0 1 .553.65 2.324 2.324 0 0 1 .275.889H101.9a1.042 1.042 0 0 0-.149-.396zM104.394 102.834v-1.066h4.727v1.066h-1.729v4.7h-1.269v-4.7zM114.834 107.1a3.179 3.179 0 0 1-3.624 0 2.207 2.207 0 0 1-.642-1.745v-3.588h1.268v3.588a2.606 2.606 0 0 0 .041.46.926.926 0 0 0 .17.4.938.938 0 0 0 .359.283 1.46 1.46 0 0 0 .618.109 1.19 1.19 0 0 0 .938-.3 1.441 1.441 0 0 0 .258-.949v-3.588h1.269v3.588a2.183 2.183 0 0 1-.655 1.742zM120.5 101.768a1.839 1.839 0 0 1 .7.125 1.629 1.629 0 0 1 .534.343 1.515 1.515 0 0 1 .34.5 1.618 1.618 0 0 1 .116.618 1.738 1.738 0 0 1-.214.882 1.341 1.341 0 0 1-.7.565v.016a.984.984 0 0 1 .387.2 1.089 1.089 0 0 1 .251.316 1.458 1.458 0 0 1 .141.4 3.447 3.447 0 0 1 .061.435c.005.092.011.2.016.324s.015.251.028.38a2.586 2.586 0 0 0 .065.368.813.813 0 0 0 .134.294h-1.269a2.261 2.261 0 0 1-.13-.654c-.016-.253-.04-.5-.073-.727a1.146 1.146 0 0 0-.274-.663.946.946 0 0 0-.687-.21h-1.269v2.254h-1.268v-5.769zm-.453 2.61a.957.957 0 0 0 .654-.194.8.8 0 0 0 .219-.63.765.765 0 0 0-.219-.61.967.967 0 0 0-.654-.191h-1.39v1.625zM128.345 101.768v1.066H125.3v1.236h2.8v.987h-2.8v1.413h3.111v1.067h-4.379v-5.769zM134.35 103.412a8.463 8.463 0 0 0-.21 1.879 8.713 8.713 0 0 0 .206 1.9 7.3 7.3 0 0 0 .666 1.81h-.953a7.5 7.5 0 0 1-.788-1.754 6.427 6.427 0 0 1-.279-1.874 6.912 6.912 0 0 1 .069-.95 8.009 8.009 0 0 1 .2-.99 7.011 7.011 0 0 1 .331-.953 4.937 4.937 0 0 1 .465-.849h.961a7.012 7.012 0 0 0-.668 1.781zM139.206 101.768l2.157 5.769h-1.317l-.436-1.284h-2.158l-.452 1.284h-1.277l2.182-5.769zm.073 3.539l-.728-2.117h-.016l-.751 2.117zM146.374 103.307a1.28 1.28 0 0 0-.283-.319 1.294 1.294 0 0 0-.383-.214 1.328 1.328 0 0 0-.449-.077 1.483 1.483 0 0 0-.727.166 1.371 1.371 0 0 0-.485.444 1.918 1.918 0 0 0-.271.635 3.126 3.126 0 0 0-.085.735 2.918 2.918 0 0 0 .085.707 1.874 1.874 0 0 0 .271.618 1.379 1.379 0 0 0 .485.44 1.472 1.472 0 0 0 .727.166 1.175 1.175 0 0 0 .909-.355 1.647 1.647 0 0 0 .4-.937h1.232a2.92 2.92 0 0 1-.251.977 2.333 2.333 0 0 1-.533.744 2.276 2.276 0 0 1-.776.468 2.829 2.829 0 0 1-.977.161 2.968 2.968 0 0 1-1.192-.229 2.548 2.548 0 0 1-.893-.635 2.823 2.823 0 0 1-.558-.95 3.486 3.486 0 0 1-.194-1.175 3.612 3.612 0 0 1 .194-1.2 2.907 2.907 0 0 1 .558-.966 2.552 2.552 0 0 1 .893-.647 3.091 3.091 0 0 1 2.093-.1 2.408 2.408 0 0 1 .759.4 2.169 2.169 0 0 1 .554.65 2.359 2.359 0 0 1 .275.889h-1.232a1.059 1.059 0 0 0-.146-.396zM150.738 101.768v5.769h-1.269v-5.769zM152.714 107.226a8.231 8.231 0 0 0 .213-1.87 8.693 8.693 0 0 0-.21-1.907 7.8 7.8 0 0 0-.654-1.819h.945a7.48 7.48 0 0 1 .788 1.762 6.522 6.522 0 0 1 .279 1.883 7.374 7.374 0 0 1-.065.949 7.172 7.172 0 0 1-.2.986 6.815 6.815 0 0 1-.335.95 4.84 4.84 0 0 1-.469.84h-.953a7.616 7.616 0 0 0 .661-1.774z"/>
    </g>
    <path d="M156.524 37.48a2.455 2.455 0 0 0-4.91 0v5.156a2.455 2.455 0 1 0 4.91 0zm-13.5-6.769a2.469 2.469 0 0 0-4.938 0v11.925a2.469 2.469 0 0 0 4.938 0zM129.5 21.452a2.454 2.454 0 0 0-4.907 0v26.085a2.454 2.454 0 1 0 4.907 0zm-13.527 9.259a2.454 2.454 0 0 0-4.907 0v11.925a2.454 2.454 0 1 0 4.907 0zm-13.52 6.769a2.453 2.453 0 0 0-4.906 0v5.156a2.453 2.453 0 1 0 4.906 0zm-13.5-6.769a2.461 2.461 0 0 0-4.922 0v11.925a2.461 2.461 0 0 0 4.922 0zm-13.519-9.259a2.462 2.462 0 0 0-4.923 0v26.085a2.462 2.462 0 0 0 4.923 0zm-13.519 9.259a2.461 2.461 0 0 0-4.921 0v11.925a2.461 2.461 0 0 0 4.921 0zM48.4 37.48a2.461 2.461 0 0 0-4.922 0v5.156a2.461 2.461 0 0 0 4.922 0V37.48zm50.8 21.382a21.138 21.138 0 0 0-4.831-.626c-4.569 0-7.32 2.467-7.32 6.141 0 3.252 2.3 4.874 5.063 5.747.306.1.757.242 1.058.342 1.229.386 2.21.961 2.21 1.956 0 1.114-1.134 1.834-3.6 1.834a18.559 18.559 0 0 1-4.682-.73v4.521a29.719 29.719 0 0 0 5.35.536c3.793 0 8.133-1.658 8.133-6.592 0-2.393-1.466-4.6-4.683-5.619l-1.368-.436c-.815-.257-2.272-.674-2.272-1.87 0-.945 1.079-1.61 3.066-1.61a17 17 0 0 1 3.875.6v-4.194zm41.9 9.548a5.126 5.126 0 1 1-5.126-5.166 5.08 5.08 0 0 1 5.126 5.166m-5.126-10.168a10.173 10.173 0 1 0 10.38 10.168 10.082 10.082 0 0 0-10.38-10.168m-67.335.7a15.078 15.078 0 0 0-4.519-.7c-6.033 0-10.461 4.3-10.461 10.168 0 6.329 4.888 10.173 10.461 10.173a15.712 15.712 0 0 0 4.519-.7v-5.272a8.7 8.7 0 0 1-4.164 1.042 5.245 5.245 0 1 1 0-10.483 8.6 8.6 0 0 1 4.164 1.049zm51.741 0a15.15 15.15 0 0 0-4.517-.7c-6.042 0-10.47 4.3-10.47 10.168 0 6.329 4.894 10.173 10.47 10.173a15.835 15.835 0 0 0 4.517-.7v-5.272a8.76 8.76 0 0 1-4.171 1.042 5.245 5.245 0 1 1 0-10.483 8.665 8.665 0 0 1 4.171 1.049zM80.406 78.233h-4.958V58.59h4.958z" fill="#049fd9"/>
</svg>
