<svg xmlns="http://www.w3.org/2000/svg" viewBox="-27.98 -28.98 1974.96 480.96">
	<defs>
		<style>
			.cls-1{fill:#010101}.cls-2{fill:#ff6245}
		</style>
	</defs>
	<path d="M1294.354 119.504a180.599 180.599 0 0 1 31.807 1.898 154.715 154.715 0 0 1 36.455 10.238 133.621 133.621 0 0 1 22.514 12.02 150.886 150.886 0 0 1 36.766 34.2 136.244 136.244 0 0 1 25.28 53.944 163.31 163.31 0 0 1 3.738 43.305 81.938 81.938 0 0 1-1.769 15.436c-.284 1.237-.811 1.594-1.932 1.513-.557-.04-1.12-.007-1.68-.007q-108.823 0-217.647.01a6.796 6.796 0 0 0-2.94.238 68.566 68.566 0 0 0 4.468 13.166 72.996 72.996 0 0 0 8.762 15.158 83.96 83.96 0 0 0 9.342 10.509 77.004 77.004 0 0 0 16.43 11.688 67.77 67.77 0 0 0 16.07 5.957 93.26 93.26 0 0 0 44.28-.55 78.34 78.34 0 0 0 20.014-8.093c3.792-2.178 7.215-4.838 10.814-7.261 2.87-1.932 4.814-4.651 7.251-6.917a26.886 26.886 0 0 0 4.052-5.515 20.145 20.145 0 0 1 2.252-2.995c.554.035 1.11.097 1.665.097q36.426.008 72.852 0c.634 0 1.269-.073 1.904-.112-.042 2.247-1.205 4.152-1.996 6.143a135.212 135.212 0 0 1-13.994 26.296 139.552 139.552 0 0 1-29.544 31.406 164.363 164.363 0 0 1-27.046 17.072 120.702 120.702 0 0 1-12.869 5.829 165.46 165.46 0 0 1-35.759 8.966 191.84 191.84 0 0 1-42.35.765 149.045 149.045 0 0 1-19.632-3.11c-2.126-.485-4.342-.619-6.435-1.206-3.768-1.058-7.476-2.33-11.206-3.524a97.36 97.36 0 0 1-11.68-4.657 140.962 140.962 0 0 1-22.621-12.958 167.254 167.254 0 0 1-7.507-5.723c-1.621-1.313-3.077-2.828-4.634-4.222-1.122-1.005-2.376-1.867-3.508-2.841a67.055 67.055 0 0 1-8.968-8.979c-2.192-2.767-4.526-5.426-6.824-8.076a116.049 116.049 0 0 1-11.58-16.554 103.556 103.556 0 0 1-6.422-12.384c-1.828-4.25-3.583-8.516-5.146-12.864a80.365 80.365 0 0 1-3.686-12.558c-2.666-14.537-4.501-29.16-3.716-44.016a227.754 227.754 0 0 1 2.915-25.445 114.706 114.706 0 0 1 3.23-13.743 134.126 134.126 0 0 1 5.29-14.242c1.547-3.643 3.467-7.098 5.224-10.622a98.199 98.199 0 0 1 8.93-14.316 106.587 106.587 0 0 1 8.122-10.239c5.035-5.327 10.197-10.521 15.587-15.503a110.176 110.176 0 0 1 11.897-9.581c3.236-2.25 6.48-4.517 9.882-6.496a144.514 144.514 0 0 1 30.7-13.468 165.606 165.606 0 0 1 37.41-6.716 40.295 40.295 0 0 0 7.188-.361zm79.087 119.805a77.476 77.476 0 0 0-6.185-16.023c-15.13-29.07-46.666-46.084-83.15-39.273-21.26 3.969-37.422 15.754-48.948 33.936a77.467 77.467 0 0 0-9.171 21.36zM638.675 120.95a184.903 184.903 0 0 1 29.445-1.414 173.697 173.697 0 0 1 30.127 3.638 145.442 145.442 0 0 1 68.833 35.375 149.225 149.225 0 0 1 22.004 25.989c.666.967 1.233 2.002 1.9 3.093-1.165 1.216-2.745 1.826-4.127 2.691-8.785 5.498-17.616 10.92-26.428 16.376q-14.391 8.91-28.774 17.834a7.527 7.527 0 0 1-1.44.832c-.522.179-1.29.172-1.429-.44-.434-1.917-2.047-2.982-3.048-4.48a71.619 71.619 0 0 0-9.538-10.884 53.528 53.528 0 0 0-6.163-5.103 59.124 59.124 0 0 0-7.723-5.31 118.311 118.311 0 0 0-17.105-7.467 72.42 72.42 0 0 0-30.926-3.094 67.825 67.825 0 0 0-15.156 3.197 100.29 100.29 0 0 0-14.806 6.555 77.583 77.583 0 0 0-27.897 26.056 75.001 75.001 0 0 0-11.314 28.822 80.249 80.249 0 0 0 .535 30.724 76.99 76.99 0 0 0 13.65 30.072 80.924 80.924 0 0 0 14.182 14.82 76.527 76.527 0 0 0 25.73 13.687 78.153 78.153 0 0 0 41.901 1.405 79.753 79.753 0 0 0 20.387-8.29c2.847-1.594 5.322-3.662 8.137-5.268 1.928-1.101 3.463-2.904 5.138-4.432a81.794 81.794 0 0 0 14.034-16.543c.695-1.092 1.162-.75 1.82-.343q9.088 5.615 18.157 11.262 13.878 8.604 27.761 17.2c4.771 2.956 9.54 5.915 14.397 8.926a50.14 50.14 0 0 1-5.106 7.932 139.939 139.939 0 0 1-45.301 40.7 83.364 83.364 0 0 1-8.954 4.92c-3.527 1.48-6.914 3.28-10.584 4.467-2.874.93-5.714 1.987-8.589 2.941a143.229 143.229 0 0 1-18.978 4.696 167.088 167.088 0 0 1-30.058 2.67 175.544 175.544 0 0 1-39.968-4.28c-2.725-.625-5.497-1.06-8.197-1.808-2.085-.577-4.11-1.355-6.168-2.02a123.31 123.31 0 0 1-21.245-9.173 28.893 28.893 0 0 1-5.042-3.139c-1.53-1.3-3.67-1.705-5.315-2.947-2.132-1.609-4.524-2.847-6.428-4.797a17.627 17.627 0 0 0-3.284-2.228 47.84 47.84 0 0 1-6.201-5.217c-3.59-3.248-7.499-6.175-10.657-9.883-3.01-3.534-6.253-6.858-9.086-10.56-1.704-2.227-3.663-4.281-5.21-6.632-2.265-3.44-4.676-6.77-6.632-10.436-1.077-2.02-2.288-4.045-3.454-6.047-1.585-2.723-2.75-5.693-4.086-8.56a98 98 0 0 1-4.767-12.67 74.04 74.04 0 0 1-3.076-12.338c-.503-3.95-1.47-7.84-2.023-11.797a172.456 172.456 0 0 1-1.46-28.45 187.483 187.483 0 0 1 2.404-24.064c.588-3.76 1.313-7.492 2.192-11.168a129.841 129.841 0 0 1 3.963-12.428 88.208 88.208 0 0 1 4.613-10.92 127.2 127.2 0 0 1 6.124-11.46c1.257-1.954 2.395-4.023 3.706-5.951a115.016 115.016 0 0 1 8.598-11.368c1.187-1.351 2.203-2.89 3.35-4.306a77.806 77.806 0 0 1 6.067-6.073c3.099-3.062 5.927-6.406 9.36-9.121a42.287 42.287 0 0 1 4.652-3.55c2.264-1.334 3.988-3.409 6.165-4.91a130.264 130.264 0 0 1 15.587-9.616 154.657 154.657 0 0 1 24.863-10.227 172.368 172.368 0 0 1 24.014-5.336 2.582 2.582 0 0 0 1.947-.332zm381.113-1.45a163.865 163.865 0 0 1 17.21.49 5.61 5.61 0 0 0 2.876.358 106.695 106.695 0 0 1 42.356 13.946 100.904 100.904 0 0 1 23.099 18.611 76.888 76.888 0 0 1 20.764 53.125 4.316 4.316 0 0 1-2.428.265q-33.82.02-67.64.01c-.48 0-.96-.017-1.44.002-.684.028-1-.238-1.003-.966-.013-3.52-1.193-6.817-2.45-9.99a22.273 22.273 0 0 0-6.393-8.615 35.1 35.1 0 0 0-11.492-6.472 28.585 28.585 0 0 0-7.122-1.478 8.502 8.502 0 0 0-3.573-.047 28.41 28.41 0 0 0-12.016 2.612c-6.206 3.097-11.542 7.269-13.92 14.064a19.95 19.95 0 0 0 1.806 17 32.012 32.012 0 0 0 10.63 10.734c8.528 5.638 17.984 9.148 27.74 11.947 8.306 2.383 16.737 4.329 24.913 7.172 12.414 4.316 24.27 9.735 35.054 17.345 11.742 8.286 20.93 18.734 26.774 31.918a74.052 74.052 0 0 1 5.956 22.86 98.797 98.797 0 0 1-.968 27.225 78.989 78.989 0 0 1-31.028 50.617 114.765 114.765 0 0 1-16.91 10.47 54.633 54.633 0 0 1-6.818 3.23c-3.152 1.085-6.265 2.3-9.462 3.283a131.659 131.659 0 0 1-36.15 5.478 145.977 145.977 0 0 1-36.13-3.82 97.955 97.955 0 0 1-15.891-5.203 87.105 87.105 0 0 1-20.095-11.7c-2.248-1.759-4.729-3.317-6.632-5.397-2.467-2.694-5.494-4.762-7.774-7.69-1.727-2.218-3.902-4.123-5.613-6.409a91.1 91.1 0 0 1-9.151-14.993 69.83 69.83 0 0 1-4.893-13.103 90.57 90.57 0 0 1-2.759-20.17 5.698 5.698 0 0 1 .256-2.75h69.511c2.574 0 2.577.001 2.79 2.624a29.507 29.507 0 0 0 8.614 18.82 33.39 33.39 0 0 0 14.768 9.178 37.258 37.258 0 0 0 22.937-.658c4.68-1.629 8.533-4.549 12.13-7.914 3.285-3.071 4.694-6.91 5.976-11.104 1.321-4.32.277-8.027-1.023-11.96a34.546 34.546 0 0 0-2.733-5.382 14.433 14.433 0 0 0-3.549-3.806c-2.054-1.748-3.785-3.866-6.149-5.264a118.15 118.15 0 0 0-12.6-6.27c-4.357-1.922-8.914-3.308-13.4-4.808a59.978 59.978 0 0 0-9.15-2.651 77.704 77.704 0 0 1-9.707-2.289c-2.765-.827-5.49-1.916-8.251-2.799a127.421 127.421 0 0 1-20.034-8.402c-3.326-1.73-6.753-3.318-9.562-5.913a16.56 16.56 0 0 0-2.689-1.417c-2.102-1.307-3.658-3.257-5.658-4.644-2.564-1.778-4.556-4.159-6.873-6.152-3.683-3.168-6.14-7.228-8.988-10.98a46.349 46.349 0 0 1-4.403-7.2 79.845 79.845 0 0 1-5.266-13.041 77.954 77.954 0 0 1-2.112-11.125 104.21 104.21 0 0 1 .76-33.16 69.806 69.806 0 0 1 4.306-14.736 61.795 61.795 0 0 1 11.802-19.004c2.31-2.45 4.549-4.996 7.14-7.251a108.69 108.69 0 0 1 13.493-10.135 103.999 103.999 0 0 1 28.925-12.502 108.1 108.1 0 0 1 17.115-3.1q2.984-.274 5.965-.554a30.522 30.522 0 0 0 6.232-.36z" class="cls-1"/>
	<path d="M484.979 10.124c-2.976 6.065-5.808 11.847-8.647 17.625q-9.976 20.3-19.965 40.594c-3.06 6.197-6.345 12.287-9.257 18.551-3.323 7.148-6.954 14.14-10.369 21.241-4.21 8.755-8.623 17.413-12.915 26.128-5.604 11.38-11.158 22.782-16.765 34.16-4.76 9.66-9.588 19.286-14.345 28.948-5.098 10.354-10.124 20.743-15.225 31.095-5.31 10.776-10.7 21.514-16.007 32.291-5.71 11.593-11.357 23.216-17.048 34.819q-6.638 13.534-13.314 27.05-7.603 15.432-15.212 30.861-12.725 25.843-25.442 51.69a10.65 10.65 0 0 0-.523 1.077c-.5 1.394-1.445 1.83-2.935 1.827q-35.153-.064-70.306-.03a3.433 3.433 0 0 1-.48-.004c-.515-.073-1.184.227-1.474-.436-.246-.56.364-.807.59-1.197a19.028 19.028 0 0 0 1.374-2.485 103.37 103.37 0 0 1 5.773-11.83 145.016 145.016 0 0 0 4.069-8.018c1.733-3.67 3.651-7.253 5.318-10.951 1.573-3.492 3.35-6.887 4.977-10.35a40.78 40.78 0 0 1 2.657-5.184c1.115-1.694 1.714-3.677 2.695-5.48 1.912-3.518 3.596-7.17 5.314-10.79 1.035-2.181 2.137-4.345 3.09-6.578 1.062-2.488 2.577-4.815 3.787-7.27 2.844-5.77 5.72-11.525 8.525-17.315 1.364-2.816 2.533-5.727 3.912-8.536 1.203-2.451 2.824-4.724 3.808-7.251 1.122-2.883 2.65-5.532 4.036-8.263 1.777-3.5 3.153-7.201 5.02-10.637 4.584-8.44 8.711-17.106 12.962-25.71 1.286-2.605 2.382-5.329 3.722-7.882a217.914 217.914 0 0 0 2.628-5.197 51.605 51.605 0 0 0 3.009-6.364 16.77 16.77 0 0 1 1.649-3.374c1.602-2.634 2.687-5.573 4.205-8.23 1.675-2.93 2.136-6.443 4.506-9.002a4.337 4.337 0 0 0 .547-1.062c3.073-6.243 6.222-12.451 9.188-18.745 1.642-3.484 3.247-7.014 5.012-10.41 1.649-3.173 3.106-6.453 4.788-9.615 3.146-5.914 5.651-12.165 8.711-18.128 2.682-5.226 5.578-10.348 8.028-15.688 1.725-3.758 3.746-7.368 5.372-11.186.735-1.727 1.758-3.471 2.598-5.202a54.779 54.779 0 0 0 2.997-6.133 34.775 34.775 0 0 1 2.1-3.944c2.915-5.885 5.932-11.726 8.623-17.713.958-2.13 1.92-4.32 3.01-6.335 1.03-1.904 1.72-3.98 2.96-5.82a63.625 63.625 0 0 0 3.846-7.573c1.298-2.638 2.699-5.233 3.85-7.934a76.272 76.272 0 0 1 3.94-8.605c4.085-7.022 7.316-14.47 10.95-21.715 1.408-2.807 2.438-5.828 3.945-8.595 2.45-4.498 4.94-8.967 6.994-13.667a2.454 2.454 0 0 1 2.532-1.694q35.633.089 71.266.047c.315 0 .63.056 1.346.124z" class="cls-2"/>
	<path d="M1476.862 408.176c-.544-.008-.923-.241-.957-.815a36.817 36.817 0 0 1-.047-2.156q-.002-196.373.02-392.747c0-.815-.43-1.765.412-2.46.551.042 1.105.121 1.659.121q33.817.01 67.633 0c.554 0 1.108-.08 1.662-.122a.935.935 0 0 1 .511.982q.008 1.08.01 2.158l-.001 391.52c0 .8-.016 1.599-.015 2.398.002.82-.47 1.113-1.2 1.113-.375-.032-.764-.092-1.153-.092q-33.563-.006-67.125 0c-.47 0-.94.066-1.409.1z" class="cls-1"/>
	<path d="M1761.807 408.132c-.763-.027-1.026-.58-1.398-.97-4.024-4.227-8.059-8.445-12.058-12.695-1.914-2.033-4.244-3.639-5.988-5.835-2.167-2.73-4.666-5.161-7.006-7.73-5.638-6.189-11.493-12.18-17.261-18.25-.275-.29-.55-.582-.827-.87-1.953-2.028-1.567-1.687.057-3.269q2.796-2.724 5.484-5.558c1.467-1.547 3.38-2.668 4.85-4.256 2.973-3.21 6.361-5.982 9.499-9.017a22.806 22.806 0 0 0 3.265-3.469c1.043-1.54 2.841-2.271 4.147-3.56 4.132-4.082 8.264-8.165 12.475-12.164 3.847-3.654 7.818-7.177 11.695-10.799q6.681-6.241 13.285-12.565c2.58-2.489 4.986-5.16 7.584-7.63 2.356-2.24 4.704-4.494 7.258-6.527a11.086 11.086 0 0 0 2.945-3.103c.57-1.008 1.785-1.312 2.57-2.081 1.819-1.784 3.752-3.444 5.447-5.369a49.658 49.658 0 0 1 4.266-3.832c1.585-1.424 1.695-1.383-.11-2.828a52.754 52.754 0 0 1-5.36-4.724c-7.82-8.226-16.3-15.767-24.5-23.597-2.493-2.38-4.893-4.864-7.488-7.127a83.07 83.07 0 0 1-6.234-5.548c-7.256-7.74-15.226-14.742-22.895-22.054-2.344-2.235-4.792-4.402-7.14-6.625-3.682-3.488-7.62-6.705-11.004-10.548-3.051-3.466-6.667-6.436-10.028-9.63-1.8-1.712-1.786-1.707.042-3.431 2.947-2.78 5.197-6.204 8.16-8.958 5.147-4.786 9.886-9.966 14.68-15.089 2.49-2.662 5.269-5.077 7.504-7.943 1.808-2.319 4.155-4.105 5.877-6.48a8.437 8.437 0 0 1 1.862-1.86 23.135 23.135 0 0 0 4.303-4.461c1.555-1.927 1.54-1.968 3.254-.346q5.312 5.029 10.612 10.07l15.474 14.682c7.7 7.333 15.372 14.696 23.086 22.014 8 7.589 16.059 15.115 24.053 22.71q26.25 24.937 52.463 49.912c6.43 6.11 12.91 12.17 19.366 18.254.407.384.784.805 1.22 1.153.875.699.936 1.276.055 2.109q-18.711 17.686-37.374 35.424-17.717 16.808-35.432 33.62-19.29 18.314-38.572 36.636-17.305 16.424-34.628 32.83c-.517.49-1.057.954-1.535 1.384zM205.149 359.958c-4.17 4.388-8.015 8.45-11.88 12.492-5.302 5.548-10.741 10.973-15.892 16.658-3.803 4.197-7.845 8.165-11.562 12.449-1.7 1.958-3.629 3.788-5.51 5.62-1.189 1.156-1.191 1.19-2.405.043-5.463-5.162-10.902-10.348-16.378-15.495q-2.697-2.535-5.496-4.965c-1.702-1.473-3.218-3.233-4.842-4.835-2.265-2.234-4.924-4.027-7.13-6.347-9.357-9.846-19.591-18.786-29.313-28.256-2.898-2.823-6.233-5.161-8.999-8.133-6.957-7.474-14.695-14.143-21.994-21.265-3.063-2.988-6.07-6.054-9.339-8.803a69.97 69.97 0 0 1-7.228-6.596A156.207 156.207 0 0 0 35.68 291.35c-4.592-4.165-8.818-8.71-13.588-12.702a26.463 26.463 0 0 1-4.877-4.788 17.414 17.414 0 0 0-3.692-3.386 24.588 24.588 0 0 1-3.447-3.188L158.734 126.23c2.49 2.377 4.923 4.524 7.157 6.86q14.332 15 28.569 30.091 4.536 4.782 9.08 9.558c1.76 1.846 1.48 1.623-.092 3.118q-12.6 11.976-25.235 23.918-12.615 11.965-25.216 23.945-18.315 17.383-36.644 34.751c-2.554 2.415-5.19 4.74-7.639 7.266-1.45 1.497-1.482 1.494-.007 2.903q9.972 9.522 19.96 19.028 18.176 17.25 36.374 34.478 19.574 18.567 39.139 37.143a8.786 8.786 0 0 0 .97.67z" class="cls-2"/>
	<path d="M890.961 266.967q0 69.075-.006 138.151c-.001 3.59.434 3.016-3.043 3.019q-33.118.026-66.235.006c-2.955 0-2.656.283-2.656-2.734q-.004-138.271-.002-276.543c0-.32-.006-.64 0-.96.037-1.76.038-1.785 1.894-1.787q12.12-.016 24.239-.005h42.956a16.536 16.536 0 0 0 1.68-.01c.995-.101 1.244.395 1.181 1.272-.045.637-.008 1.279-.008 1.919v137.672zM855.001 10.02q16.792 0 33.585.005c2.702.003 2.37-.358 2.37 2.45q.013 33.446.005 66.891c0 .56-.012 1.12-.002 1.679.013.724-.367.975-1.045.94-.479-.024-.96-.002-1.44-.002h-66.928c-.24 0-.48.005-.72 0-1.775-.038-1.8-.039-1.803-1.89q-.015-11.868-.003-23.736V12.962c0-.559.03-1.12-.006-1.677-.056-.879.236-1.33 1.205-1.276 1.036.057 2.078.01 3.117.01h31.665z" class="cls-1"/>
	<path d="M1445.102 317.431c-.635.039-1.27.111-1.904.111q-36.426.01-72.852.001c-.555 0-1.11-.062-1.665-.097.639-.508 1.386-.257 2.075-.257q36.136-.023 72.271 0c.69 0 1.434-.256 2.075.242zM1547.244 9.997c-.554.042-1.108.122-1.662.122q-33.817.01-67.633 0c-.554 0-1.108-.08-1.659-.122.556-.044 1.107-.126 1.66-.126q33.818-.01 67.638 0c.552 0 1.104.082 1.656.126zm-70.382 398.18c.47-.035.94-.1 1.409-.1q33.562-.008 67.125-.001c.389 0 .778.06 1.153.092-6.474.021-12.934.062-19.393.06q-25.147-.011-50.294-.052zm-182.508-288.673a40.295 40.295 0 0 1-7.187.36 26.141 26.141 0 0 1 7.187-.36zm-274.566-.002a30.522 30.522 0 0 1-6.232.359 19.8 19.8 0 0 1 6.232-.36zm2.764 59.238a8.502 8.502 0 0 1 3.573.047l-3.573-.047zm17.322-58.391a5.61 5.61 0 0 1-2.876-.359 4.883 4.883 0 0 1 2.876.359zm-401.2.602a2.582 2.582 0 0 1-1.946.332 2.49 2.49 0 0 1 1.947-.332z" class="cls-2"/>
</svg>
