<svg xmlns="http://www.w3.org/2000/svg" width="200" height="128">
	<path d="M26.7 60.85a4 4 0 0 1 3.95 2.51.83.83 0 0 0 .79.59.74.74 0 0 0 .73-.74 1.07 1.07 0 0 0-.12-.56 5.65 5.65 0 0 0-5.42-3.24c-3.75 0-6.38 2.74-6.38 6.67s2.6 6.65 6.38 6.65a5.47 5.47 0 0 0 5.42-3.46 1.34 1.34 0 0 0 .1-.52.78.78 0 0 0-.79-.79.82.82 0 0 0-.76.59 4 4 0 0 1-4 2.75c-2.82 0-4.76-2.13-4.76-5.2s2.07-5.25 4.86-5.25zm17.69-1.1h-2.77v-3.51c0-.59-.27-.91-.78-.91s-.81.35-.81.91v15.41c0 .54.27.88.78.88a.78.78 0 0 0 .81-.88V61.17h2.77a.71.71 0 1 0 0-1.42zm9.25.15a4 4 0 0 0-2.08-.49 3.67 3.67 0 0 0-3 1.42v-.32c0-.59-.27-.91-.79-.91a.8.8 0 0 0-.81.91v11.14a.77.77 0 0 0 .81.88c.52 0 .79-.32.79-.88v-7.34c0-1.89 1.1-3.38 2.82-3.38a2.48 2.48 0 0 1 1.3.27 1.16 1.16 0 0 0 .59.17h.07a.74.74 0 0 0 .74-.76.78.78 0 0 0-.44-.71zm2.87-.3a.8.8 0 0 0-.81.91v11.14c0 .54.27.88.79.88a.78.78 0 0 0 .81-.88V60.51c0-.59-.3-.91-.79-.91zm-20.63 0c-.52 0-.81.35-.81.91v11.14c0 .54.27.88.78.88a.78.78 0 0 0 .81-.88V60.51c0-.59-.27-.91-.78-.91zm0-4.27a1.28 1.28 0 1 0 1.28 1.28 1.28 1.28 0 0 0-1.28-1.28zM66.72 66l4.41-5a.75.75 0 0 0 .27-.59.72.72 0 0 0-.78-.71.74.74 0 0 0-.62.3l-4.27 5-4.27-5a.77.77 0 0 0-.62-.32.74.74 0 0 0-.79.73.78.78 0 0 0 .27.59l4.41 5-4.59 5.2a.83.83 0 0 0-.22.57.75.75 0 0 0 .76.73.81.81 0 0 0 .64-.32l4.39-5.15 4.42 5.15a.81.81 0 0 0 .64.32.73.73 0 0 0 .76-.73.87.87 0 0 0-.22-.57zm-1.01-8.11a1.28 1.28 0 1 0-1.27-1.28 1.28 1.28 0 0 0 1.27 1.28zM91 56.58a.07.07 0 0 0-.07.07v6.91h-9.38v-6.91a.07.07 0 0 0-.08-.07H80.1a.07.07 0 0 0-.07.07v15.89a.07.07 0 0 0 .07.07h1.37a.07.07 0 0 0 .08-.07V65h9.34v7.53a.07.07 0 0 0 .07.07h1.37a.07.07 0 0 0 .07-.07V56.65a.07.07 0 0 0-.07-.07zm13.46 4.52h-1.34a.08.08 0 0 0-.07 0l-3.57 9.36-3.65-9.36a.07.07 0 0 0-.07 0h-1.41a.07.07 0 0 0-.06 0 .06.06 0 0 0 0 .07l4.44 11.17-.5 1.29a2.34 2.34 0 0 1-.25.5 1.72 1.72 0 0 1-.4.41 2.1 2.1 0 0 1-.64.29 3.37 3.37 0 0 1-1 .1H94.8v.91a.08.08 0 0 0 0 .07 4.65 4.65 0 0 0 1.55.23 4.21 4.21 0 0 0 1.33-.14 2.77 2.77 0 0 0 1.12-.75 4.4 4.4 0 0 0 .85-1.41l4.88-12.65a.08.08 0 0 0 0-.07.1.1 0 0 0-.07-.02zm9.54.41a5 5 0 0 0-2.5-.63 4.39 4.39 0 0 0-1.58.26 4 4 0 0 0-1.9 1.44 3.66 3.66 0 0 0-.3.47v-1.87a.08.08 0 0 0-.07-.08h-1.35a.08.08 0 0 0-.08.08v14.89a.07.07 0 0 0 .08.08h1.38a.08.08 0 0 0 .08-.08V70.6c.08.15.18.32.29.49a4.05 4.05 0 0 0 .74.83 3.87 3.87 0 0 0 1.11.65 4.15 4.15 0 0 0 1.56.26 4.63 4.63 0 0 0 2.69-.75 4.51 4.51 0 0 0 1.63-2.08 8.94 8.94 0 0 0 .54-3.28 7.65 7.65 0 0 0-.6-3.24 4.28 4.28 0 0 0-1.72-1.97zm-.2 8.86a3.17 3.17 0 0 1-2.55 1.16 3.09 3.09 0 0 1-2-.62 3.84 3.84 0 0 1-1.2-1.71 7 7 0 0 1-.41-2.45 5.49 5.49 0 0 1 .92-3.32 3.08 3.08 0 0 1 2.64-1.23 3 3 0 0 1 2.64 1.23 5.7 5.7 0 0 1 .88 3.32 5.63 5.63 0 0 1-.9 3.62zm11.81-8.81a5.48 5.48 0 0 0-5.41.07 4.65 4.65 0 0 0-1.76 2.11 8.16 8.16 0 0 0-.6 3.23 7 7 0 0 0 .67 3.16 4.71 4.71 0 0 0 1.86 2 5.35 5.35 0 0 0 2.73.69 5.41 5.41 0 0 0 2.05-.38 4.45 4.45 0 0 0 1.67-1.14 3.83 3.83 0 0 0 .91-1.91.06.06 0 0 0 0-.06.09.09 0 0 0-.06 0h-1.37s-.07 0-.07.06a2.44 2.44 0 0 1-1.07 1.61 3.67 3.67 0 0 1-2.07.58 3.42 3.42 0 0 1-2.08-.6 3.47 3.47 0 0 1-1.2-1.58 5.93 5.93 0 0 1-.39-2.09h8.34a.08.08 0 0 0 .08-.07v-.68a7.38 7.38 0 0 0-.57-3 4.34 4.34 0 0 0-1.66-2zM119.43 66a5.06 5.06 0 0 1 .36-1.79 3.54 3.54 0 0 1 1.21-1.45 3.21 3.21 0 0 1 2-.58 3.32 3.32 0 0 1 1.9.51 3.19 3.19 0 0 1 1.1 1.41 5.4 5.4 0 0 1 .36 1.94zm15.44-5.07a4.17 4.17 0 0 0-1.88.16 3.26 3.26 0 0 0-1.19.69 2.86 2.86 0 0 0-.69.93v-1.53a.08.08 0 0 0-.08-.08h-1.29a.09.09 0 0 0-.08.08v11.36a.08.08 0 0 0 .08.07h1.37a.08.08 0 0 0 .08-.07V65a2.61 2.61 0 0 1 .28-1.28 2 2 0 0 1 .74-.8 3 3 0 0 1 1-.42 4.85 4.85 0 0 1 1.06-.09 3.81 3.81 0 0 1 .54 0 1.53 1.53 0 0 1 .5.12.06.06 0 0 0 .07 0 .07.07 0 0 0 0-.06v-1.32a.07.07 0 0 0 0-.07 1.42 1.42 0 0 0-.51-.15zm11.39.17H145a.07.07 0 0 0-.07.06l-3.34 9.64h-.15l-3.29-9.64a.07.07 0 0 0-.07-.06h-1.36a.07.07 0 0 0-.06 0 .06.06 0 0 0 0 .07l4 11.35a.08.08 0 0 0 .07 0h1.58a.08.08 0 0 0 .07 0l4-11.36a.07.07 0 0 0 0-.06h-.12z"/>
	<rect x="147.75" y="56.6" width="1.64" height="1.81" rx=".08"/>
	<rect x="147.83" y="61.1" width="1.5" height="11.51" rx=".08"/>
	<path d="M159.77 67.75A3.15 3.15 0 0 0 159 67a4 4 0 0 0-1.18-.51l-2.52-.68a4.08 4.08 0 0 1-1.43-.62 1.22 1.22 0 0 1-.49-1 1.73 1.73 0 0 1 .73-1.53 3.47 3.47 0 0 1 1.94-.49 2.71 2.71 0 0 1 1.81.53 2.14 2.14 0 0 1 .75 1.4s0 .06.07.06H160a2.94 2.94 0 0 0-1.17-2.4 4.66 4.66 0 0 0-2.82-.8 5.6 5.6 0 0 0-2.31.43 3 3 0 0 0-1.39 1.18 3.34 3.34 0 0 0-.45 1.74 2.39 2.39 0 0 0 .79 1.92 5.16 5.16 0 0 0 2.1 1l2.54.67a2.38 2.38 0 0 1 1.14.62 1.64 1.64 0 0 1 .37 1.1 1.66 1.66 0 0 1-.75 1.5 3.71 3.71 0 0 1-2 .49 4.13 4.13 0 0 1-1.52-.26 2.55 2.55 0 0 1-1.6-1.92.08.08 0 0 0-.08-.06h-1.37a.07.07 0 0 0 0 .06 3.56 3.56 0 0 0 2.4 3.07 6.14 6.14 0 0 0 2.19.37 5.82 5.82 0 0 0 2.31-.41 3 3 0 0 0 1.9-2.94 3.33 3.33 0 0 0-.12-.88 2.81 2.81 0 0 0-.39-.89zm9.51-6.19a5.11 5.11 0 0 0-2.66-.68 5 5 0 0 0-2.84.76 4.68 4.68 0 0 0-1.72 2.11 8.2 8.2 0 0 0-.57 3.15 7.58 7.58 0 0 0 .64 3.28 4.52 4.52 0 0 0 1.79 2 5.34 5.34 0 0 0 2.69.66 5 5 0 0 0 2.83-.75 4.57 4.57 0 0 0 1.68-2.09 8.05 8.05 0 0 0 .56-3.1 7.74 7.74 0 0 0-.63-3.32 4.45 4.45 0 0 0-1.77-2.02zm.44 7.88a3.28 3.28 0 0 1-1.21 1.56 3.35 3.35 0 0 1-1.89.53 3.28 3.28 0 0 1-2-.6 3.47 3.47 0 0 1-1.18-1.64 7.19 7.19 0 0 1-.38-2.42 6.55 6.55 0 0 1 .44-2.59 3.26 3.26 0 0 1 1.24-1.56 3.39 3.39 0 0 1 1.91-.52 3.21 3.21 0 0 1 2 .59 3.43 3.43 0 0 1 1.15 1.65 7.25 7.25 0 0 1 .38 2.43 6.86 6.86 0 0 1-.46 2.57zm9.37-8.36a1.41 1.41 0 0 0-.5-.15 4.2 4.2 0 0 0-1.88.16 3.34 3.34 0 0 0-1.19.69 2.86 2.86 0 0 0-.69.93v-1.53a.08.08 0 0 0-.07-.08h-1.3a.08.08 0 0 0-.07.08v11.36a.07.07 0 0 0 .07.07h1.38a.07.07 0 0 0 .07-.07V65a2.72 2.72 0 0 1 .28-1.28 2.2 2.2 0 0 1 .74-.8 3 3 0 0 1 1-.42 4.85 4.85 0 0 1 1.06-.09 3.79 3.79 0 0 1 .53 0 1.46 1.46 0 0 1 .5.12.08.08 0 0 0 .08 0 .07.07 0 0 0 0-.06v-1.32a.08.08 0 0 0-.01-.07z"/>
</svg>
