<svg xmlns="http://www.w3.org/2000/svg" height="94.563" width="304.271" xml:space="preserve">
	<defs>
		<clipPath id="a" clipPathUnits="userSpaceOnUse">
			<path d="M0 70.922h228.203V0H0Z"/>
		</clipPath>
	</defs>
	<g clip-path="url(#a)" transform="matrix(1.33333 0 0 -1.33333 0 94.563)">
		<path style="fill:#231f20;fill-opacity:1;fill-rule:nonzero;stroke:none" d="M0 0c0 16.007 10.74 27.152 26.038 27.152 10.332 0 18.742-5.169 22.083-13.17.408-.808.507-1.518.507-2.33 0-1.823-1.419-3.04-3.242-3.04-1.418 0-2.631.812-3.241 2.433-2.632 6.484-8.608 10.233-16.107 10.233-11.45 0-19.451-8.715-19.451-21.278 0-12.461 7.902-21.172 19.451-21.172 7.499 0 13.17 3.647 16.21 11.244.606 1.522 1.621 2.434 3.138 2.434 1.823 0 3.242-1.419 3.242-3.242 0-.71-.099-1.217-.404-2.128-3.242-8.712-11.549-14.284-22.186-14.284C10.637-27.148 0-16.004 0 0" transform="translate(0 27.13)"/>
		<path style="fill:#231f20;fill-opacity:1;fill-rule:nonzero;stroke:none" d="M0 0c0-2.228-1.217-3.646-3.341-3.646-2.128 0-3.242 1.418-3.242 3.646l-.002 62.836c0 2.33 1.217 3.65 3.345 3.65s3.242-1.32 3.242-3.65V48.529h11.336c2.025 0 3.242-1.113 3.242-2.936 0-1.827-1.217-2.941-3.242-2.941H.002Z" transform="translate(86.897 4.436)"/>
		<path style="fill:#231f20;fill-opacity:1;fill-rule:nonzero;stroke:none" d="M0 0c0-1.823-1.319-3.139-3.241-3.139-.71 0-1.419.202-2.434.709-1.518.71-3.138 1.114-5.267 1.114-6.992 0-11.549-6.08-11.549-13.78v-29.886c0-2.327-1.113-3.647-3.242-3.647-2.128 0-3.345 1.32-3.345 3.647V.404c0 2.33 1.217 3.65 3.345 3.65 2.129 0 3.242-1.32 3.242-3.65V-.912c2.838 3.749 7.292 5.775 12.259 5.775 3.847 0 6.582-.809 8.508-2.026C-.61 2.128 0 1.216 0 0" transform="translate(137.641 49.419)"/>
		<path style="fill:#231f20;fill-opacity:1;fill-rule:nonzero;stroke:none" d="M0 0c0 2.331 1.213 3.65 3.342 3.65C5.47 3.65 6.583 2.331 6.583 0v-45.386c0-2.228-1.217-3.647-3.341-3.647C1.114-49.033 0-47.614 0-45.386z" transform="translate(144.323 49.822)"/>
		<path style="fill:#231f20;fill-opacity:1;fill-rule:nonzero;stroke:none" d="M0 0c0 2.331 1.213 3.65 3.341 3.65S6.583 2.331 6.583 0v-45.386c0-2.228-1.217-3.647-3.341-3.647C1.114-49.033 0-47.614 0-45.386z" transform="translate(60.197 49.822)"/>
		<path style="fill:#231f20;fill-opacity:1;fill-rule:nonzero;stroke:none" d="M0 0a5.175 5.175 0 1 0-10.35.001A5.175 5.175 0 0 0 0 0" transform="translate(68.662 65.748)"/>
		<path style="fill:#231f20;fill-opacity:1;fill-rule:nonzero;stroke:none" d="m0 0-17.932-20.969c-.709-.916-1.621-1.32-2.635-1.32-1.824 0-3.139 1.419-3.139 3.04 0 .709.202 1.521.912 2.33L-4.053 4.255l-18.032 20.666c-.709.812-1.113 1.522-1.113 2.433 0 1.621 1.315 3.04 3.241 3.04 1.011 0 1.721-.408 2.533-1.32L0 8.612l17.424 20.462c.812.912 1.522 1.32 2.533 1.32 1.926 0 3.241-1.419 3.241-3.04 0-.911-.404-1.621-1.113-2.433L4.053 4.255l18.741-21.174c.71-.809.912-1.621.912-2.33 0-1.621-1.316-3.04-3.139-3.04-1.014 0-1.926.404-2.635 1.32z" transform="translate(185.143 23.079)"/>
		<path style="fill:#231f20;fill-opacity:1;fill-rule:nonzero;stroke:none" d="M0 0v-5.613h-.748v3.573l.085 1.053H-.68l-.135-.425-1.753-4.201h-.579l-1.752 4.201-.153.425h-.016l.084-1.053v-3.573h-.749V0h.936l1.666-4.048.274-.697h.016l.238.697L-.901 0Zm-6.788-.595h-1.905v-5.018h-.766v5.018h-1.939V0h4.61z" transform="translate(228.203 6.91)"/>
		<path style="fill:#231f20;fill-opacity:1;fill-rule:nonzero;stroke:none" d="M0 0a5.174 5.174 0 1 0-10.348 0A5.174 5.174 0 0 0 0 0" transform="translate(190.317 65.748)"/>
	</g>
</svg>
