<svg width="319" height="171" fill="none" xmlns="http://www.w3.org/2000/svg">
	<path d="M208.998 28.844v55.802l-10.702-13.343-5.961-14.556h-.004l5.662-14.76 11.005-13.143Z" fill="#AB2B4A"/>
	<path d="M109.004 28.844v55.802l9.46-12.939 7.203-14.96h.004l-7.323-14.192-9.344-13.71Z" fill="#E87A68"/>
	<path d="m192.331 56.747-31.515 1.933-35.149-1.933 14.668-27.903L159.001.946l20.296 30.63 13.034 25.171Z" fill="#D74D4E"/>
	<path d="m208.998 28.844-16.667 27.903L159.001.946l49.997 27.898Z" fill="#BD3246"/>
	<path d="m159.001.946-33.334 55.801L109 28.844 159.001.946Z" fill="#F19175"/>
	<path d="M192.331 56.747 180.94 80.842l-21.939 31.707-22.577-32.773-10.757-23.029h66.664Z" fill="#CF3942"/>
	<path d="M159.001 112.549 109 84.646l16.667-27.899 33.334 55.802Z" fill="#E0625B"/>
	<path d="m158.997 112.549 50.001-27.903-16.667-27.899-33.334 55.802Z" fill="#9A244F"/>
	<path d="M15.105 148.139c-4.721 0-7.907 3.48-7.907 7.87 0 4.391 3.245 7.928 7.848 7.928 2.891 0 5.192-.969 6.962-2.68l3.659 5.133c-2.242 2.396-6.314 4.107-10.798 4.107-8.378 0-14.869-6.502-14.869-14.43 0-7.984 6.491-14.485 14.751-14.485 4.838 0 8.674 1.597 11.152 4.107l-4.13 4.961c-1.77-1.655-3.895-2.511-6.668-2.511Z" fill="#39396D"/>
	<path d="M31.093 130.46h7.199v39.237h-7.199V130.46Z" fill="#39396D"/>
	<path d="M44.839 156.066c0-7.984 6.136-14.485 14.279-14.485 8.084 0 14.22 6.045 14.22 13.915 0 .856-.059 1.825-.177 2.281H52.214c.708 3.821 3.717 6.559 8.084 6.559a9.751 9.751 0 0 0 6.904-2.851l3.717 4.733c-2.125 2.395-6.137 4.277-10.916 4.277-8.791.001-15.164-6.501-15.164-14.429Zm7.494-2.68h13.63c-.826-3.878-3.363-5.874-6.727-5.874-3.599.001-6.077 2.396-6.903 5.874Z" fill="#39396D"/>
	<path d="M104.728 142.379 94.52 169.697h-9.323L74.93 142.379h7.907l7.198 21.102 7.317-21.102h7.376Z" fill="#39396D"/>
	<path d="M106.731 156.066c0-7.984 6.136-14.485 14.279-14.485 8.084 0 14.22 6.045 14.22 13.915 0 .856-.059 1.825-.177 2.281h-20.947c.708 3.821 3.717 6.559 8.084 6.559a9.751 9.751 0 0 0 6.904-2.851l3.717 4.733c-2.125 2.395-6.137 4.277-10.916 4.277-8.792.001-15.164-6.501-15.164-14.429Zm7.494-2.68h13.63c-.826-3.878-3.363-5.874-6.727-5.874-3.599.001-6.077 2.396-6.903 5.874Z" fill="#39396D"/>
	<path d="M148.622 169.697h-7.199v-27.318h7.199v2.966c1.593-2.281 3.953-3.765 6.903-3.765 1.888 0 3.422.513 4.543 1.369l-3.009 6.616c-.944-.742-2.36-1.198-3.717-1.198-2.891 0-4.72 2.338-4.72 6.046v15.284Z" fill="#39396D"/>
	<path d="M191.279 148.139c-4.721 0-7.907 3.48-7.907 7.87 0 4.391 3.245 7.928 7.848 7.928 2.891 0 5.192-.969 6.962-2.68l3.659 5.133c-2.242 2.396-6.313 4.107-10.798 4.107-8.378 0-14.869-6.502-14.869-14.43 0-7.984 6.491-14.485 14.751-14.485 4.838 0 8.674 1.597 11.152 4.107l-4.13 4.961c-1.771-1.655-3.895-2.511-6.668-2.511Z" fill="#39396D"/>
	<path d="M207.266 130.46h7.199v39.237h-7.199V130.46Z" fill="#39396D"/>
	<path d="M221.013 156.066c0-7.984 6.491-14.485 14.692-14.485s14.751 6.502 14.751 14.485c0 7.928-6.55 14.43-14.751 14.43s-14.692-6.502-14.692-14.43Zm22.186-.057c0-4.391-3.127-7.87-7.435-7.87-4.367 0-7.553 3.479-7.553 7.87s3.186 7.928 7.553 7.928c4.307 0 7.435-3.536 7.435-7.928Z" fill="#39396D"/>
	<path d="M263.788 157.15c0 3.992 2.419 6.673 6.019 6.673 3.599 0 6.019-2.68 6.019-6.673v-14.771h7.199v15.284c0 7.643-5.251 12.718-13.217 12.718s-13.219-5.075-13.219-12.718v-15.284h7.199v14.771Z" fill="#39396D"/>
	<path d="M318.659 130.46v39.237h-7.258v-2.965c-2.065 2.338-4.957 3.765-8.615 3.765-7.494 0-13.571-5.932-13.571-14.43 0-8.269 5.724-14.485 13.571-14.485 3.717 0 6.608 1.312 8.615 3.536V130.46h7.258Zm-7.258 25.549c0-4.39-3.127-7.87-7.435-7.87-4.367 0-7.553 3.48-7.553 7.87 0 4.391 3.186 7.928 7.553 7.928 4.307 0 7.435-3.536 7.435-7.928Z" fill="#39396D"/>
</svg>
