<svg xmlns="http://www.w3.org/2000/svg" width="200" height="128">
	<path d="M20 71.448h2.546v2.546H20z" fill="red"/>
	<path d="M20 53.628h2.546v17.82H20zm5.091 0h2.546v20.366h-2.546zm5.092 0h2.545v20.366h-2.545zm5.091 0h2.546v20.366h-2.546zm5.091 8.272h2.546v3.82h-2.546z" fill="orange"/>
	<path d="M62.951 74.372a9.5 9.5 0 0 1-3.574-.654 8.078 8.078 0 0 1-2.813-1.867 8.489 8.489 0 0 1-1.854-2.96 12.048 12.048 0 0 1 .04-8.014 8.353 8.353 0 0 1 4.921-4.893 10.193 10.193 0 0 1 3.68-.654 11.148 11.148 0 0 1 2.973.347 12.1 12.1 0 0 1 2.28.88l-.693 2.16a9.832 9.832 0 0 0-2.187-1.1A8.058 8.058 0 0 0 63 57.2a5.846 5.846 0 0 0-4.467 2.02 7.262 7.262 0 0 0-1.373 2.418 9.871 9.871 0 0 0-.507 3.3 10.178 10.178 0 0 0 .467 3.215 6.882 6.882 0 0 0 1.306 2.379A5.5 5.5 0 0 0 60.457 72a6.654 6.654 0 0 0 2.627.5 7.582 7.582 0 0 0 2.414-.379 10.859 10.859 0 0 0 2.173-1.008l.667 1.627a7.388 7.388 0 0 1-2.134 1.12 9.49 9.49 0 0 1-3.253.512zM73.484 54.77v19.335h-2.267V54.77zm4.907 3.894a1.351 1.351 0 0 1-1.44-1.414 1.493 1.493 0 0 1 .387-1.04 1.5 1.5 0 0 1 2.093 0 1.464 1.464 0 0 1 .4 1.04 1.372 1.372 0 0 1-.4 1.014 1.4 1.4 0 0 1-1.04.4zm1.147 2.027v13.414h-2.267V60.691zm9.601 13.681a7.186 7.186 0 0 1-2.6-.467 5.884 5.884 0 0 1-2.107-1.374 6.6 6.6 0 0 1-1.413-2.2 8.534 8.534 0 0 1 0-5.867 6.409 6.409 0 0 1 1.44-2.2 6.085 6.085 0 0 1 2.174-1.373 7.655 7.655 0 0 1 2.693-.467 8.923 8.923 0 0 1 2.16.24 5.1 5.1 0 0 1 1.6.667l-.667 2.026a7.577 7.577 0 0 0-1.507-.886 4.427 4.427 0 0 0-1.747-.313 4.333 4.333 0 0 0-1.68.332 3.827 3.827 0 0 0-1.387.984 4.818 4.818 0 0 0-.933 1.623 6.675 6.675 0 0 0-.347 2.247 5.343 5.343 0 0 0 1.254 3.884 4.564 4.564 0 0 0 3.413 1.277 5.765 5.765 0 0 0 3.094-.987l.507 1.68a5.516 5.516 0 0 1-1.694.854 7.39 7.39 0 0 1-2.253.32zm8.933-19.602v19.335h-2.267V54.77zm5.947 19.335-5.6-7.161 5.52-6.253h2.374l-5.467 5.987 5.84 7.427zm17.281-8.214h-9.52v8.214h-2.454V55.57h2.454v8.454h9.52V55.57h2.454v18.535H121.3zm12.161 8.481a6.647 6.647 0 0 1-2.48-.467 5.914 5.914 0 0 1-2.054-1.36 6.56 6.56 0 0 1-1.4-2.187 8.762 8.762 0 0 1 0-5.947 6.431 6.431 0 0 1 1.4-2.174 6.02 6.02 0 0 1 2.054-1.346 6.647 6.647 0 0 1 2.48-.467 6.752 6.752 0 0 1 2.493.467 6.142 6.142 0 0 1 2.081 1.346 6.486 6.486 0 0 1 1.426 2.174 8.561 8.561 0 0 1 0 5.947 6.616 6.616 0 0 1-1.426 2.187 6.032 6.032 0 0 1-2.081 1.36 6.752 6.752 0 0 1-2.493.467zm0-1.734a4.517 4.517 0 0 0 1.56-.277 3.407 3.407 0 0 0 1.347-.911 4.719 4.719 0 0 0 .946-1.637 7.219 7.219 0 0 0 .36-2.429 7.1 7.1 0 0 0-.36-2.415 4.749 4.749 0 0 0-.946-1.624 3.426 3.426 0 0 0-1.347-.91 4.517 4.517 0 0 0-1.56-.277 4.3 4.3 0 0 0-1.534.277 3.462 3.462 0 0 0-1.32.91 4.59 4.59 0 0 0-.933 1.624 7.358 7.358 0 0 0-.347 2.415 7.477 7.477 0 0 0 .347 2.429 4.565 4.565 0 0 0 .933 1.637 3.443 3.443 0 0 0 1.32.911 4.3 4.3 0 0 0 1.534.277zm16.494.962a5.127 5.127 0 0 1-2.947.774A4.1 4.1 0 0 1 144 73.238a4.741 4.741 0 0 1-1.147-3.507v-9.04h2.293v9.04a4.1 4.1 0 0 0 .187 1.334 2.058 2.058 0 0 0 .533.853 1.984 1.984 0 0 0 .8.453 3.472 3.472 0 0 0 .986.134 3.807 3.807 0 0 0 2.414-.72 5.81 5.81 0 0 0 1.56-1.974v-9.12h2.267v13.414h-2l-.213-2.4h-.053a4.758 4.758 0 0 1-1.672 1.895zm11.245.772a13.523 13.523 0 0 1-1.707-.094 10.237 10.237 0 0 1-1.28-.24 6.157 6.157 0 0 1-.974-.333 6.567 6.567 0 0 1-.759-.4l.746-1.894a3.517 3.517 0 0 0 .534.36 6.3 6.3 0 0 0 .853.4 6.9 6.9 0 0 0 1.16.334 7.137 7.137 0 0 0 1.427.133 3.557 3.557 0 0 0 2.187-.57 1.873 1.873 0 0 0 .746-1.577 1.66 1.66 0 0 0-.613-1.352 6.357 6.357 0 0 0-2.107-.954q-.853-.267-1.64-.549a5.6 5.6 0 0 1-1.4-.722 3.423 3.423 0 0 1-.987-1.1 3.35 3.35 0 0 1-.373-1.673 3.194 3.194 0 0 1 1.306-2.8 6.148 6.148 0 0 1 3.6-.924 10.751 10.751 0 0 1 2.373.227 7.856 7.856 0 0 1 1.6.52l-.534 1.867a12.731 12.731 0 0 0-1.333-.579 5.816 5.816 0 0 0-2.027-.3 4.5 4.5 0 0 0-2.067.408 1.5 1.5 0 0 0-.787 1.46 1.384 1.384 0 0 0 .24.816 2.138 2.138 0 0 0 .653.593 4.893 4.893 0 0 0 .961.434q.546.185 1.133.342.774.24 1.547.52a5.238 5.238 0 0 1 1.374.733 3.318 3.318 0 0 1 1.346 2.854 3.643 3.643 0 0 1-.44 1.853 3.816 3.816 0 0 1-1.16 1.254 4.975 4.975 0 0 1-1.653.72 8.238 8.238 0 0 1-1.945.233zm18.37-1.414a5.786 5.786 0 0 1-1.867 1.014 7.928 7.928 0 0 1-2.613.4 6.386 6.386 0 0 1-4.907-1.827 7.273 7.273 0 0 1-1.707-5.161 8.353 8.353 0 0 1 .48-2.92 6.549 6.549 0 0 1 1.32-2.2 5.539 5.539 0 0 1 1.973-1.373 6.351 6.351 0 0 1 2.441-.467 6.1 6.1 0 0 1 2.44.467 4.431 4.431 0 0 1 1.787 1.386 5.29 5.29 0 0 1 .96 2.294 9.7 9.7 0 0 1-.013 3.16H170.8q.161 4.775 4.507 4.774a5.96 5.96 0 0 0 2.054-.332 8.1 8.1 0 0 0 1.68-.842zm-4.934-10.934a3.372 3.372 0 0 0-2.466 1.02 5.155 5.155 0 0 0-1.294 3.087h6.8a4.161 4.161 0 0 0-.706-3.1 2.924 2.924 0 0 0-2.334-1.007z"/>
</svg>
