<svg xmlns="http://www.w3.org/2000/svg" width="200" height="128">
    <defs>
        <clipPath id="a">
            <path d="M101.28 59.9a2.654 2.654 0 0 0 1.029 2.079 4.669 4.669 0 0 1 1.48 3.375c.042 1.581-.066 3.411-.132 4.343-.847.12-1.442.4-1.442.733 0 .439 1.054.945 2.353.945s2.354-.506 2.354-.945c0-.33-.595-.613-1.442-.733-.066-.932-.174-2.762-.132-4.343a4.673 4.673 0 0 1 1.48-3.375 2.654 2.654 0 0 0 1.029-2.079 3.329 3.329 0 0 0-6.577 0" fill="none"/>
        </clipPath>
        <linearGradient id="b" x1="-234.989" y1="434.546" x2="-234.698" y2="434.546" gradientTransform="matrix(-72.791 0 0 72.791 -16990.692 -31566.946)" gradientUnits="userSpaceOnUse">
            <stop offset="0" stop-color="#41b5e7"/>
            <stop offset=".037" stop-color="#3ab4e7"/>
            <stop offset=".093" stop-color="#25b3e7"/>
            <stop offset=".129" stop-color="#14b1e7"/>
            <stop offset=".432" stop-color="#238ece"/>
            <stop offset=".803" stop-color="#3469b3"/>
            <stop offset="1" stop-color="#3a5ba9"/>
        </linearGradient>
    </defs>
    <g fill="#373a36">
        <path d="M86.709 65.544V53.86h8.408v2.123h-6.2v3.193h5.867v2.039h-5.868v4.329zM124.2 53.86v6.7c0 3.46-2.123 5.232-5.065 5.232a4.881 4.881 0 0 1-5.2-5.232v-6.7h2.19v6.7c0 2.106 1.2 3.226 3.025 3.226s2.858-1.22 2.858-3.226v-6.7zM136.139 53.827h2.207v11.717h-1.371v.017l-6.151-7.906v7.889h-2.206v-11.7h1.788l5.733 7.254zM152.78 59.593a5.542 5.542 0 0 1-5.85 5.951h-4.6v-11.7h4.6a5.525 5.525 0 0 1 5.85 5.749zm-8.257 3.828h2.407a3.745 3.745 0 0 0 0-7.488h-2.407zM166.729 65.544H164.1l-3.4-3.911h-2.123v3.911h-2.207V53.827c1.856 0 3.711.017 5.567.017a3.877 3.877 0 0 1 4.212 3.877 3.472 3.472 0 0 1-2.959 3.678l3.544 4zm-8.157-9.644v3.745h3.36a1.877 1.877 0 1 0 0-3.745zM174.233 58.674l3.109-4.83H180v.1l-4.663 6.769v4.831h-2.207v-4.831l-4.5-6.769v-.1h2.624z"/>
        <g>
            <path d="M30.346 63.948a6.059 6.059 0 0 1-4.289 1.766 6.022 6.022 0 1 1 0-12.044 6.059 6.059 0 0 1 4.289 1.766l-.622.538a5.155 5.155 0 0 0-3.667-1.5 5.2 5.2 0 0 0 0 10.4 5.263 5.263 0 0 0 3.684-1.5zM34.136 53.8v10.922h6.628v.858h-7.536V53.8zM55.136 59.709c-.017 3.095-1.985 6.073-5.939 6.073s-5.938-2.995-5.938-6.107c0-3.162 1.968-6.055 5.938-6.055s5.956 2.91 5.939 6.089zm-10.985-.017c.016 2.658 1.7 5.249 5.046 5.249a4.95 4.95 0 0 0 5.064-5.249c0-2.725-1.682-5.232-5.064-5.232s-5.063 2.457-5.046 5.232zM67.589 53.8v7.318c0 6.157-9.017 6.174-9.017 0V53.8h.892v7.318a3.621 3.621 0 1 0 7.233 0V53.8zM81.22 59.558a5.653 5.653 0 0 1-5.971 6.022h-3.988V53.8h3.988a5.655 5.655 0 0 1 5.971 5.758zm-9.05-4.9v10.047h3.079a5.022 5.022 0 1 0 0-10.043z"/>
        </g>
    </g>
    <path d="M102.411 66.016s.369-1.4-1.237-3.207l-.053-.056a4.448 4.448 0 0 1 3.408-7.317h.1a4.449 4.449 0 0 1 3.409 7.317l-.054.055a4.256 4.256 0 0 0-1.237 3.208 6.488 6.488 0 0 0-1.8-12.616h-.74a6.488 6.488 0 0 0-1.8 12.616zM110.823 71.182a2.1 2.1 0 0 1 .39-.114 2.617 2.617 0 0 1 .45-.054l-.017-.126a1.118 1.118 0 0 0-.074-.272l-.049-.141c-.02-.044-.045-.085-.064-.12l-.064-.115a4.153 4.153 0 0 1-.465-.106 3.739 3.739 0 0 1-.42-.144 1.814 1.814 0 0 1-.578-.353.425.425 0 0 1-.164-.361.314.314 0 0 1 .077-.16.526.526 0 0 1 .169-.132l-.141-.078c-.042-.023-.089-.051-.144-.078l-.176-.085c-.119-.056-.236-.112-.335-.15l-.158-.063a3.22 3.22 0 0 1-.365.025c-.131 0-.264 0-.394-.011a3.785 3.785 0 0 1-.74-.124 1.754 1.754 0 0 1-.3-.1 1.339 1.339 0 0 1-.225-.119c-.119-.086-.2-.173-.2-.262l-.179-.029c-.111-.018-.348-.049-.5-.069 0 .025-.019.049-.025.09l-.039.184a.723.723 0 0 0 .5.844 2.521 2.521 0 0 1 1.743 1.2c.39 1.051-1.247 2.078-3.736 2.078s-4.127-1.027-3.738-2.078a2.469 2.469 0 0 1 1.681-1.181.762.762 0 0 0 .519-.887l-.053-.25c-.1.011-.214.026-.332.041-.148.016-.289.042-.4.059l-.181.03a.325.325 0 0 1-.17.265 1.534 1.534 0 0 1-.21.124 2.72 2.72 0 0 1-.291.109 2.881 2.881 0 0 1-.355.082 3.44 3.44 0 0 1-.383.051 3.8 3.8 0 0 1-.77 0l-.044.017c-.026.012-.069.027-.112.049l-.327.156c-.117.059-.223.122-.309.169l-.1.058-.035.023a.433.433 0 0 1 .277.293.392.392 0 0 1-.124.371 1.649 1.649 0 0 1-.233.193 2.145 2.145 0 0 1-.334.178 3.694 3.694 0 0 1-.885.274.636.636 0 0 0-.051.118l-.093.267-.039.276a.484.484 0 0 0-.008.129 2.515 2.515 0 0 1 .88.154 1.077 1.077 0 0 1 .551.381.607.607 0 0 1 .05.565 1.347 1.347 0 0 1-.5.64l.042.036.126.09c.108.074.244.18.405.275l.47.258c.064.036.13.059.17.078l.067.03a4.151 4.151 0 0 1 1.21-.293 3.49 3.49 0 0 1 .6-.015 3.248 3.248 0 0 1 .586.07 3.5 3.5 0 0 1 .527.166 3.012 3.012 0 0 1 .441.25 1.462 1.462 0 0 1 .571.722l.35.014c.21 0 .491.025.771.01s.561-.013.768-.028l.343-.032a1.05 1.05 0 0 1 .179-.4 1.316 1.316 0 0 1 .147-.171 1.637 1.637 0 0 1 .17-.162 1.755 1.755 0 0 1 .418-.255 2.341 2.341 0 0 1 .505-.182 4.551 4.551 0 0 1 .569-.09 5.224 5.224 0 0 1 .6 0 4.191 4.191 0 0 1 1.225.259l.212-.119a3.684 3.684 0 0 0 .432-.265c.137-.1.282-.2.369-.279l.141-.132a1.624 1.624 0 0 1-.556-.617.691.691 0 0 1-.066-.29.415.415 0 0 1 .066-.264.912.912 0 0 1 .484-.395z" fill="#373a36"/>
    <g clip-path="url(#a)">
        <path transform="rotate(-81.9 104.569 64.233)" fill="url(#b)" d="M97.031 59.963h15.075v8.539H97.031z"/>
    </g>
</svg>
