<svg xmlns="http://www.w3.org/2000/svg" xmlns:xlink="http://www.w3.org/1999/xlink" viewBox="0 0 250.95 154.11"><defs><style>.cls-1{fill:#231f20;}.cls-2{fill:#4b4b4b;}.cls-3{fill:url(#linear-gradient);}.cls-4{fill:url(#linear-gradient-2);}.cls-5{fill:#4f4f4f;}</style><linearGradient id="linear-gradient" x1="130.45" y1="4.85" x2="115.65" y2="108.44" gradientUnits="userSpaceOnUse"><stop offset="0" stop-color="#00b3e3"/><stop offset="0.13" stop-color="#00b3e3"/><stop offset="1" stop-color="#00b3e3" stop-opacity="0"/></linearGradient><linearGradient id="linear-gradient-2" x1="130.45" y1="4.85" x2="115.65" y2="108.44" gradientUnits="userSpaceOnUse"><stop offset="0" stop-color="#3b5cad" stop-opacity="0"/><stop offset="0.13" stop-color="#3b5cad" stop-opacity="0"/><stop offset="1" stop-color="#3b5cad"/></linearGradient></defs><title>cloud-foundry-logo</title><g id="Layer_2" data-name="Layer 2"><g id="Layer_1-2" data-name="Layer 1"><path class="cls-1" d="M136.36,42.42a13.11,13.11,0,0,0,5.09-10.27c-.07-7.71-7.34-13.91-16.25-13.91S109,24.44,108.93,32.15A13.11,13.11,0,0,0,114,42.42c3.92,3.19,7.13,9.64,7.31,16.68.21,7.82-.32,16.86-.65,21.46-4.19.59-7.13,2-7.13,3.62,0,2.17,5.21,4.67,11.63,4.67s11.63-2.5,11.63-4.67c0-1.63-2.94-3-7.13-3.62-.33-4.6-.86-13.65-.65-21.46C129.23,52.06,132.44,45.61,136.36,42.42Z"/><path class="cls-2" d="M156.17,87.9a9.89,9.89,0,0,1,1.93-.56,12.2,12.2,0,0,1,2.23-.27s0-.25-.09-.62a5.93,5.93,0,0,0-.36-1.34l-.25-.7c-.1-.22-.22-.42-.31-.6l-.31-.57a19.78,19.78,0,0,1-2.3-.52,18,18,0,0,1-2.07-.71,8.94,8.94,0,0,1-2.86-1.74,2.1,2.1,0,0,1-.81-1.79,1.53,1.53,0,0,1,.38-.79,2.46,2.46,0,0,1,.84-.65l-.7-.39-.71-.39-.88-.42c-.58-.28-1.17-.56-1.66-.74l-.78-.31a15.33,15.33,0,0,1-1.81.13c-.65,0-1.31,0-1.95-.05a18.94,18.94,0,0,1-3.66-.61,9.11,9.11,0,0,1-1.49-.52,6.91,6.91,0,0,1-1.11-.59c-.58-.43-1-.86-1-1.29l-.88-.15-2.46-.34c0,.13-.09.24-.12.45l-.19.91a3.56,3.56,0,0,0,2.45,4.17c4.36,1.27,7.67,3.36,8.62,5.93C145.8,88,137.71,93.1,125.4,93.1S105,88,106.92,82.82c.93-2.51,4.1-4.56,8.31-5.84a3.77,3.77,0,0,0,2.57-4.39l-.26-1.23-1.64.2c-.73.08-1.43.21-2,.3L113,72a1.61,1.61,0,0,1-.84,1.31,7.33,7.33,0,0,1-1,.62,12.64,12.64,0,0,1-1.44.54,14.35,14.35,0,0,1-1.76.4,17.31,17.31,0,0,1-1.89.26,19.22,19.22,0,0,1-3.81,0l-.22.09c-.13.06-.34.13-.55.24l-1.62.77c-.58.29-1.1.61-1.53.84l-.51.28-.18.12A2.13,2.13,0,0,1,99,78.9c.21.58-.08,1.18-.61,1.84a7.84,7.84,0,0,1-1.15,1,10.39,10.39,0,0,1-1.65.88,17.9,17.9,0,0,1-4.37,1.35,2.78,2.78,0,0,0-.25.58l-.46,1.32c-.07.48-.14,1-.19,1.37a2.16,2.16,0,0,0,0,.64,12.33,12.33,0,0,1,4.35.76,5.37,5.37,0,0,1,2.73,1.88,3,3,0,0,1,.25,2.79,6.65,6.65,0,0,1-2.47,3.16l.21.18L96,97c.53.37,1.21.89,2,1.36l2.33,1.28c.32.18.64.29.84.39l.33.14a20.67,20.67,0,0,1,6-1.45,17.51,17.51,0,0,1,3-.07,16.26,16.26,0,0,1,2.9.35,17.37,17.37,0,0,1,2.6.82,15,15,0,0,1,2.18,1.23,7.21,7.21,0,0,1,2.82,3.57l1.73.07c1,0,2.43.12,3.81,0s2.77-.07,3.8-.13l1.69-.16a5.23,5.23,0,0,1,.89-2,6.37,6.37,0,0,1,.72-.84,8.45,8.45,0,0,1,2.91-2.06,12,12,0,0,1,2.5-.9,22.13,22.13,0,0,1,2.82-.44,25.11,25.11,0,0,1,3,0,21,21,0,0,1,6.06,1.28l1.05-.58A18.66,18.66,0,0,0,154,97.64c.68-.5,1.39-1,1.82-1.37l.7-.66a8.05,8.05,0,0,1-2.75-3.05,3.35,3.35,0,0,1-.32-1.43,2.05,2.05,0,0,1,.32-1.31,4.52,4.52,0,0,1,2.38-1.92"/><path class="cls-2" d="M114.52,62.37s1.83-6.92-6.11-15.85l-.26-.28A22,22,0,0,1,125,10.07h.51a22,22,0,0,1,16.85,36.16l-.26.27A21,21,0,0,0,136,62.37a32.09,32.09,0,0,0,21.64-30.11A32.41,32.41,0,0,0,127.08,0h-.63l-1.2,0-1.2,0h-.63A32.41,32.41,0,0,0,92.89,32.26,32.09,32.09,0,0,0,114.52,62.37Z"/><path class="cls-3" d="M136.36,42.42a13.11,13.11,0,0,0,5.09-10.27c-.07-7.71-7.34-13.91-16.25-13.91S109,24.44,108.93,32.15A13.11,13.11,0,0,0,114,42.42c3.92,3.19,7.13,9.64,7.31,16.68.21,7.82-.32,16.86-.65,21.46-4.19.59-7.13,2-7.13,3.62,0,2.17,5.21,4.67,11.63,4.67s11.63-2.5,11.63-4.67c0-1.63-2.94-3-7.13-3.62-.33-4.6-.86-13.65-.65-21.46C129.23,52.06,132.44,45.61,136.36,42.42Z"/><path class="cls-4" d="M136.36,42.42a13.11,13.11,0,0,0,5.09-10.27c-.07-7.71-7.34-13.91-16.25-13.91S109,24.44,108.93,32.15A13.11,13.11,0,0,0,114,42.42c3.92,3.19,7.13,9.64,7.31,16.68.21,7.82-.32,16.86-.65,21.46-4.19.59-7.13,2-7.13,3.62,0,2.17,5.21,4.67,11.63,4.67s11.63-2.5,11.63-4.67c0-1.63-2.94-3-7.13-3.62-.33-4.6-.86-13.65-.65-21.46C129.23,52.06,132.44,45.61,136.36,42.42Z"/><path class="cls-5" d="M17.19,151.3A10,10,0,0,1,10,154.11c-7,0-10-4.83-10-9.74s3.18-10,10-10a9.75,9.75,0,0,1,6.94,2.89l-2.37,2.29A6.49,6.49,0,0,0,10,137.81a6.19,6.19,0,0,0-6.5,6.56c0,3.13,1.84,6.4,6.5,6.4a7,7,0,0,0,4.75-1.92Z"/><path class="cls-5" d="M25.18,134.79v15.6H34.9v3.29H21.62V134.79Z"/><path class="cls-5" d="M58.11,144.34c-.05,4.88-3,9.77-9.69,9.77s-9.72-4.78-9.72-9.74,3.18-10,9.72-10S58.16,139.4,58.11,144.34Zm-15.9.08c.08,3.1,1.75,6.42,6.21,6.42s6.13-3.35,6.18-6.45-1.73-6.75-6.18-6.75S42.13,141.24,42.22,144.42Z"/><path class="cls-5" d="M80,134.81v10.82c0,5.59-3.43,8.45-8.18,8.45-4.53,0-8.39-2.75-8.39-8.45V134.81H67v10.82c0,3.4,1.94,5.21,4.88,5.21s4.61-2,4.61-5.21V134.81Z"/><path class="cls-5" d="M102.81,144.07c.08,4.78-2.83,9.61-9.45,9.61H85.94V134.79h7.42C99.84,134.79,102.73,139.4,102.81,144.07Zm-13.33,6.18h3.89c4.29,0,6-3.13,5.91-6.21s-1.81-5.88-5.91-5.88H89.48Z"/><path class="cls-2" d="M112.92,143.87H123.8v1.38H112.92v8.56h-1.46V134.87h12.72v1.46H112.92Z"/><path class="cls-2" d="M168.83,134.86v11.71c0,9.86-14.43,9.88-14.43,0V134.86h1.43v11.71a5.8,5.8,0,1,0,11.58,0V134.86Z"/><path class="cls-2" d="M175.45,134.86l12.68,15.59V134.86h1.43v18.85H189l-12.71-15.56v15.56h-1.45V134.86Z"/><path class="cls-2" d="M211.59,144.07c.11,4.79-3,9.64-9.56,9.64h-6.38V134.86H202C208.41,134.86,211.48,139.44,211.59,144.07Zm-14.49-7.84v16.08H202c5.6,0,8.19-4.2,8.11-8.24a7.67,7.67,0,0,0-8.11-7.84Z"/><path class="cls-2" d="M231.95,153.71H230l-6.52-7.14h-5.14v7.14h-1.45V134.86h8.29a5.83,5.83,0,0,1,6.19,5.87c0,3.07-2,5.76-6.11,5.76Zm-13.57-8.51h6.68c3.29,0,4.74-1.86,4.77-4.5a4.34,4.34,0,0,0-4.6-4.5h-6.84Z"/><path class="cls-2" d="M242.12,146.17l-7.35-11.28v0h1.7l6.38,9.91,6.41-9.91H251v0l-7.38,11.28v7.54h-1.45Z"/><path class="cls-2" d="M148.56,144.25c0,4.92-3.16,9.66-9.45,9.66s-9.45-4.76-9.45-9.71,3.13-9.63,9.45-9.63S148.59,139.19,148.56,144.25Zm-17.48,0c0,4.23,2.7,8.35,8,8.35s8.06-4.12,8.06-8.35-2.68-8.32-8.06-8.32S131.06,139.81,131.09,144.22Z"/></g></g></svg>