<svg version="1.1" id="Layer_1" xmlns="http://www.w3.org/2000/svg" x="0" y="0" viewBox="0 0 288 204" style="enable-background:new 0 0 288 204" xml:space="preserve">
	<style>
		.st0{fill:#16211f}.st1{fill:#00bce7}
	</style>
	<path class="st0" d="M200.1 99.5v2.5h-15.8v-2.1c0-5.5-3.7-9.8-12.6-9.8-7.4 0-11.3 3.2-11.3 7.9 0 5.7 3.8 7.2 16.3 11.4 18.6 5.2 24.3 10.7 24.3 22.8 0 14.1-11.6 22-28.7 22-19.9 0-29-9-29-22.8v-3.3h15.8v2.2c0 6.9 4.6 10.9 13.6 10.9 7.8 0 12.2-3 12.2-8.1 0-5.9-2.9-7.4-16.7-11.8-17.5-4.7-23.9-10.1-23.9-22.5 0-12.7 10.4-21.5 27.8-21.5 19.1-.2 28 8.9 28 22.2z"/>
	<path class="st0" d="M19.4 138.7H34c5.1 0 10.8-2.2 10.8-8.6 0-7-7.8-8.1-13.1-8.1H19.4v16.7zm0-30.4h11.7c5 0 10.2-2.1 10.2-8 0-6.1-5.8-7.7-10.9-7.7h-11v15.7zM3.3 79h27.4c12.9 0 26.9 2.7 26.9 18.7 0 8.2-5.1 13.8-12.7 16.2v.2c9.6 1.2 16.1 8.4 16.1 17.9 0 15.3-14.5 20.4-27.6 20.4H3.3V79z"/>
	<path class="st0" d="M207.4 79h16.1v27.3H255V79h16.1v73.4H255v-31.7h-31.5v31.7h-16.1V79z"/>
	<path class="st1" d="M14.9 63.7c-1.4 1.4-3.3 2.1-5.1 2.1-4.7 0-7.2-3.3-7.2-7.1 0-3.7 2.4-7.2 7.2-7.2 1.8 0 3.7.7 5.1 2.1l-.7.6c-1.2-1.2-2.8-1.8-4.3-1.8-4.1 0-6.2 2.9-6.1 6.2 0 3.3 2.1 6.1 6.1 6.1 1.6 0 3.2-.6 4.4-1.8l.6.8z"/>
	<path class="st1" d="M20.2 51.7v12.9h7.9v1.1h-9v-14h1.1z"/>
	<path class="st1" d="M32.9 58.7c0 3.2 2 6.2 6 6.2s6-3.1 6-6.2c0-3.2-2-6.2-6-6.2s-6 2.9-6 6.2m13 0c0 3.7-2.4 7.2-7 7.2-4.7 0-7-3.6-7-7.2 0-3.7 2.3-7.2 7-7.2s7.1 3.4 7 7.2"/>
	<path class="st1" d="M61.5 51.7v8.7c0 7.3-10.7 7.3-10.7 0v-8.7h1.1v8.7c0 6 8.6 6 8.6 0v-8.7h1z"/>
	<path class="st1" d="M67.8 52.7v11.9h3.7c4.2 0 6.1-3.1 6-6.1-.1-2.9-2-5.8-6-5.8h-3.7zm10.7 5.8c.1 3.6-2.2 7.1-7.1 7.1h-4.7v-14h4.7c4.8.1 7 3.5 7.1 6.9"/>
	<path class="st1" d="M84.8 65.7v-14h10v2.5h-7.4v3.9h7v2.4h-7v5.2h-2.6z"/>
	<path class="st1" d="M101 58.8c.1 2.3 1.3 4.7 4.6 4.7s4.5-2.5 4.6-4.8c0-2.4-1.3-5-4.6-5-3.3.1-4.7 2.8-4.6 5.1m11.7 0c0 3.6-2.3 7.2-7.2 7.2s-7.2-3.5-7.2-7.2 2.4-7.4 7.2-7.4c4.9 0 7.3 3.7 7.2 7.4"/>
	<path class="st1" d="M129.3 51.7v8c0 4.1-2.5 6.2-6 6.2-3.4 0-6.2-2-6.2-6.2v-8h2.6v8c0 2.5 1.4 3.8 3.6 3.8s3.4-1.5 3.4-3.8v-8h2.6z"/>
	<path class="st1" d="M143.4 51.7h2.6v14h-1.6l-7.4-9.5v9.5h-2.6v-14h2.1l6.9 8.6v-8.6z"/>
	<path class="st1" d="M153.2 63.1h2.9c3.2 0 4.4-2.3 4.4-4.6-.1-2.2-1.3-4.3-4.4-4.3h-2.9v8.9zm9.8-4.5c.1 3.5-2.1 7.1-7 7.1h-5.5v-14h5.5c4.8 0 7 3.4 7 6.9"/>
	<path class="st1" d="M169.8 54.1v4.5h4c1.7 0 2.4-1.1 2.4-2.2s-.7-2.2-2.4-2.2h-4v-.1zm9.7 11.6h-3.1l-4.1-4.7h-2.5v4.7h-2.6v-14h6.6c3.3 0 5 2.2 5 4.6 0 1.9-.9 3.8-3.5 4.4l4.2 4.8v.2z"/>
	<path class="st1" d="m188.8 57.5 3.7-5.8h3.2v.1l-5.6 8.1v5.8h-2.6v-5.8l-5.4-8.1v-.1h3.2l3.5 5.8z"/>
	<path d="M94.8 114.8c.4-3.5 3.4-6.3 7-6.3 3.9 0 7 3.1 7 7 0 2.8-1.6 5.2-4 6.3 0 0-.2.2-.3.4 0 .3.1.4.2.5 1 .7 6.3 4.5 8.4 6 .3.2.6.3.9.3.3 0 .6-.2.8-.3 3.4-3.4 5.5-8 5.5-13.1 0-10.2-8.3-18.5-18.5-18.5-7.3 0-13.7 4.3-16.7 10.5-.1.1-.2.6-.1.9.1.4.4.6.4.6s7.3 5.2 8.6 6.2c.1 0 .3.2.5.1.3-.3.3-.5.3-.6z" style="fill:#2261ae"/>
	<path class="st0" d="M126.9 117.7c-1.1 12.9-11.9 23.1-25.1 23.1h-.1c-13.4-.1-24.3-10.6-25-23.8 0-.1 0-.6-.4-1-.3-.3-.8-.4-1.1-.4H65.1c-.6 0-1 .1-1.4.4-.4.3-.4 1-.3 1.4v.6c1.2 20.1 17.9 36 38.3 36.1h.1c17.4 0 32.2-11.7 36.9-27.6.1-.2.2-.7.1-1.3-.1-.4-.4-.7-.6-.9-2.2-1.6-8.2-5.9-9.8-7.1-.2-.1-.5-.3-1-.1-.4.1-.5.5-.5.6z"/>
	<path class="st1" d="M76.7 113.5c1.1-12.9 11.9-23.1 25.1-23.1h.1c13.4.1 24.3 10.6 25 23.8 0 .1 0 .6.4 1 .3.3.8.4 1.1.4h10.1c.6 0 1-.1 1.4-.4.4-.3.4-1 .3-1.4v-.6c-1.2-20.1-17.9-36-38.3-36.1h-.1c-17.4 0-32.2 11.7-36.9 27.6-.1.2-.2.7-.1 1.3.1.4.4.7.6.9 2.2 1.6 8.2 5.9 9.8 7.1.2.1.5.3 1 .1.4-.1.5-.6.5-.6z"/>
	<path class="st0" d="M276.2 147.6h-1.8v-.9h4.6v.9h-1.8v4.8h-1v-4.8z"/>
	<path class="st0" d="M279.6 146.7h1.6l1.5 4 1.5-4h1.6v5.7h-1v-4.6l-1.8 4.6h-.7l-1.7-4.6v4.6h-1v-5.7z"/>
</svg>
