<svg xmlns="http://www.w3.org/2000/svg" xmlns:xlink="http://www.w3.org/1999/xlink" viewBox="-3.47 -3.72 164.31 180.31" style="enable-background:new 0 0 157.5 157.3">
	<style>
		.st0{fill:#fff}
	</style>
	<g id="g3363" transform="matrix(1.25 0 0 -1.25 0 236.25)">
		<g id="g3365" transform="translate(88.836 84.511)">
			<path id="path3367" d="m-9 27.2-16.9-9.3-17 9.6v19.2l17 9.7L-9 47.6V27.2zm.1 38.9-16.9 9.7-17-9.7-16.9 9.8V17.4l34.1-19.2L8 17.4l.4 58.5-17.3-9.8z" class="st0"/>
		</g>
		<g id="g3433">
			<defs>
				<path id="SVGID_1_" d="M0 126.2c0-34.8 28.2-63 63-63s63 28.2 63 63-28.2 63-63 63-63-28.2-63-63"/>
			</defs>
			<clipPath id="SVGID_2_">
				<use overflow="visible" xlink:href="#SVGID_1_"/>
			</clipPath>
			<g id="g3435" clip-path="url(#SVGID_2_)">
				<g id="g3441">
					<g id="g3443">
						<linearGradient id="path3453_1_" x1="-286.623" x2="-285.623" y1="22.333" y2="22.333" gradientTransform="matrix(0 206.4569 206.4569 0 -4547.883 59153.996)" gradientUnits="userSpaceOnUse">
							<stop offset="0" stop-color="#f79422"/>
							<stop offset=".984" stop-color="#f4c91d"/>
							<stop offset="1" stop-color="#f4c91d"/>
						</linearGradient>
						<path id="path3453" fill="url(#path3453_1_)" d="M0 126.2c0-34.8 28.2-63 63-63s63 28.2 63 63-28.2 63-63 63-63-28.2-63-63"/>
					</g>
				</g>
			</g>
		</g>
		<g id="g3455">
			<g id="g3457">
				<g id="g3463" transform="translate(74.555 128.48)">
					<path id="path3465" d="m-9 27.2 12-6.9V6.4l-12 6.9v13.9z" class="st0"/>
				</g>
				<g id="g3467" transform="translate(57.75 121.535)">
					<path id="path3469" d="m-9 27.2 12 6.9V20.2l-12-6.9v13.9z" class="st0"/>
				</g>
				<g id="g3471" transform="translate(40.943 128.48)">
					<path id="path3473" d="m-9 27.2 12-6.9V3.6L-9-3.3v30.5z" class="st0"/>
				</g>
				<g id="g3475" transform="translate(40.943 92.427)">
					<path id="path3477" d="m-9 27.2 12 6.9V20.2l-12-6.9v13.9z" class="st0"/>
				</g>
				<g id="g3479" transform="translate(69.778 59.13)">
					<path id="path3481" d="m-9 27.2-26.4 15.3 12 6.9L-9 41.1V27.2z" class="st0"/>
				</g>
				<g id="g3483" transform="translate(74.555 59.13)">
					<path id="path3485" d="M-9 27.2v13.9l14.4 8.3 12-6.9L-9 27.2z" class="st0"/>
				</g>
				<g id="g3487" transform="translate(103.388 78.537)">
					<path id="path3489" d="m-9 27.2-12 6.9V48l12-6.9V27.2z" class="st0"/>
				</g>
				<g id="g3491" transform="translate(103.388 97.943)">
					<path id="path3493" d="m-9 27.2-12 6.9v16.6l12 6.9V27.2z" class="st0"/>
				</g>
				<g id="g3495" transform="translate(103.388 97.943)">
					<path id="path3497" fill="#87752e" d="m-9 27.2-12 6.9v16.6l12 6.9V27.2zm0-19.4-12 6.9v13.9l12-6.9V7.8zm-28.8-19.4V2.3l14.4 8.3 12-6.9-26.4-15.3zm12 40.2V14.7l-12-6.9v13.9l12 6.9zm-26.4 4.2 12 6.9 12-6.9-12-6.9-12 6.9zm9.6-25-12 6.9v13.9l12-6.9V7.8zm0-19.4L-69.1 3.6l12 6.9 14.4-8.3c.1.1.1-13.8.1-13.8zm-28.8 33.3 12 6.9V14.7l-12-6.9v13.9zm0 36 12-6.9V34.1l-12-6.9v30.5zm16.8-6.9 12 6.9V43.8l-12-6.9v13.9zm16.8 6.9 12-6.9V36.9l-12 6.9v13.9zm14.4-2.8-16.8 9.7-16.8-9.7L-76.2 66V2.3l36-20.8 36 20.8V66l-19.2-11.1z"/>
				</g>
			</g>
		</g>
	</g>
	<path d="M15.606 162.325c-1.102 1.112-1.655 2.699-1.655 4.754 0 1.903.487 3.401 1.455 4.493.971 1.086 2.303 1.63 3.997 1.63 1.369 0 2.492-.403 3.37-1.208.875-.802 1.42-1.848 1.634-3.132H21.97c-.166.607-.373 1.064-.625 1.366-.453.566-1.11.848-1.974.848-.84 0-1.537-.33-2.082-.987-.546-.66-.819-1.648-.819-2.969 0-1.32.26-2.344.776-3.065.516-.723 1.223-1.084 2.119-1.084.877 0 1.541.257 1.989.768.25.287.455.714.616 1.278h2.46c-.036-.734-.31-1.466-.814-2.198-.916-1.299-2.367-1.949-4.35-1.949-1.48 0-2.7.484-3.66 1.455zm3.59-1.591zm9.23 12.14v-11.781H26.15v11.781zm7.667-2.316c-.357.472-.869.711-1.535.711-.666 0-1.18-.239-1.539-.711-.359-.476-.539-1.149-.539-2.024 0-.873.18-1.546.54-2.019.358-.47.872-.707 1.538-.707s1.178.237 1.535.707c.357.473.534 1.146.534 2.02 0 .874-.177 1.547-.534 2.023zm1.821 1.257c.737-.907 1.103-2 1.103-3.28 0-1.258-.366-2.347-1.103-3.27-.734-.92-1.85-1.382-3.349-1.382-1.496 0-2.612.461-3.349 1.382-.734.923-1.102 2.012-1.102 3.27 0 1.28.368 2.373 1.102 3.28.737.91 1.853 1.364 3.35 1.364s2.614-.455 3.348-1.364zm-3.349-7.885zm8.353.232h-2.333v5.252c0 .996.125 1.75.376 2.262.447.928 1.316 1.392 2.605 1.392.448 0 .837-.06 1.17-.178.333-.116.678-.334 1.035-.655a1.62 1.62 0 0 0 .305-.352c.084-.132.139-.214.159-.239v1.23h2.214v-8.712h-2.31v4.74c0 .56-.074 1.01-.225 1.35-.286.63-.82.944-1.598.944-.607 0-1.014-.22-1.223-.663-.116-.25-.175-.623-.175-1.119zm1.598-.232zm10.752.373a2.814 2.814 0 0 0-1.408-.348c-1.145 0-2.06.425-2.746 1.278-.684.853-1.025 2.023-1.025 3.51 0 1.29.347 2.344 1.04 3.17.697.823 1.554 1.234 2.572 1.234.619 0 1.135-.118 1.55-.352.415-.234.785-.61 1.11-1.128v1.207h2.215V161.11h-2.31v4.156a2.77 2.77 0 0 0-.998-.962zm.559 6.207c-.337.477-.825.718-1.471.718-.646 0-1.125-.24-1.444-.723-.316-.482-.475-1.125-.475-1.93 0-.746.157-1.37.468-1.876.312-.502.8-.754 1.467-.754.436 0 .82.138 1.15.416.54.457.807 1.22.807 2.285 0 .763-.168 1.384-.502 1.864zm10.694-8.185c-1.102 1.112-1.655 2.699-1.655 4.754 0 1.903.485 3.401 1.455 4.493.969 1.086 2.301 1.63 3.997 1.63 1.369 0 2.492-.403 3.367-1.208.878-.802 1.423-1.848 1.635-3.132h-2.437c-.166.607-.373 1.064-.623 1.366-.453.566-1.112.848-1.974.848-.843 0-1.536-.33-2.082-.987-.546-.66-.82-1.648-.82-2.969 0-1.32.258-2.344.774-3.065.519-.723 1.224-1.084 2.12-1.084.88 0 1.543.257 1.989.768.252.287.457.714.616 1.278h2.462c-.036-.734-.31-1.466-.816-2.198-.916-1.299-2.365-1.949-4.347-1.949-1.483 0-2.701.484-3.66 1.455zm3.588-1.591zm9.176 3.428h-2.333v5.252c0 .996.125 1.75.375 2.262.448.928 1.317 1.392 2.606 1.392.448 0 .837-.06 1.17-.178.333-.116.678-.334 1.035-.655a1.62 1.62 0 0 0 .305-.352c.084-.132.138-.214.159-.239v1.23h2.214v-8.712h-2.31v4.74c0 .56-.075 1.01-.222 1.35-.29.63-.821.944-1.6.944-.608 0-1.015-.22-1.222-.663-.118-.25-.177-.623-.177-1.119zm1.598-.232zm7.905 6.164h-2.31c0 .893.328 1.63.98 2.21.653.577 1.664.866 3.033.866 1.344 0 2.335-.273 2.978-.819.641-.545.962-1.25.962-2.114 0-.655-.223-1.203-.67-1.64-.453-.431-1.133-.752-2.04-.965-1.357-.298-2.149-.51-2.374-.632a.594.594 0 0 1-.334-.567c0-.209.105-.39.316-.545.21-.153.562-.23 1.057-.23.603 0 1.03.153 1.28.462.132.17.216.402.248.695h2.278c-.102-1.064-.495-1.814-1.18-2.248-.684-.434-1.57-.653-2.657-.653-1.146 0-2.033.29-2.665.869-.632.577-.948 1.269-.948 2.073 0 .682.202 1.205.607 1.567.407.368 1.1.673 2.087.918 1.369.325 2.16.555 2.374.69.213.131.32.327.32.581 0 .266-.132.466-.395.6-.264.132-.621.2-1.069.2-.762 0-1.282-.152-1.566-.457-.16-.17-.264-.457-.312-.861zm1.744-6.164zm4.69 1.935h1.216v5.363c0 .544.128.946.382 1.208.396.409 1.13.595 2.208.559l1.078-.041v-1.703a3.6 3.6 0 0 1-.228.014c-.077.002-.15.004-.22.004-.462 0-.74-.045-.83-.134-.091-.086-.136-.31-.136-.666v-4.604h1.414v-1.623h-1.414v-2.428h-2.254v2.428h-1.216zm11.79 4.693c-.356.472-.868.711-1.534.711s-1.18-.239-1.54-.711c-.358-.476-.538-1.149-.538-2.024 0-.873.18-1.546.539-2.019.359-.47.873-.707 1.539-.707.666 0 1.178.237 1.535.707.356.473.534 1.146.534 2.02 0 .874-.178 1.547-.534 2.023zm1.822 1.257c.736-.907 1.105-2 1.105-3.28 0-1.258-.369-2.347-1.105-3.27-.735-.92-1.851-1.382-3.35-1.382-1.495 0-2.612.461-3.348 1.382-.734.923-1.103 2.012-1.103 3.27 0 1.28.369 2.373 1.103 3.28.736.91 1.853 1.364 3.349 1.364 1.498 0 2.614-.455 3.349-1.364zm-3.35-7.885zm10.704.373a2.814 2.814 0 0 0-1.407-.348c-1.146 0-2.06.425-2.746 1.278-.685.853-1.026 2.023-1.026 3.51 0 1.29.348 2.344 1.042 3.17.695.823 1.552 1.234 2.57 1.234.62 0 1.135-.118 1.551-.352.416-.234.785-.61 1.11-1.128v1.207h2.214V161.11h-2.31v4.156a2.77 2.77 0 0 0-.998-.962zm.56 6.207c-.337.477-.826.718-1.471.718-.646 0-1.126-.24-1.444-.723-.316-.482-.475-1.125-.475-1.93 0-.746.157-1.37.468-1.876.312-.502.8-.754 1.467-.754.436 0 .82.138 1.15.416.539.457.807 1.22.807 2.285 0 .763-.166 1.384-.502 1.864zm7.161-7.387v-2.103h-2.31v2.103zm-2.31 1.04v8.711h2.31v-8.712zm9.32 4.476v.848c-.017.761-.23 1.287-.644 1.573a2.314 2.314 0 0 1-1.355.432c-.31 0-.57-.086-.787-.26-.216-.172-.323-.454-.323-.843 0-.436.176-.759.528-.968.207-.123.55-.225 1.03-.312l.511-.095c.257-.048.457-.1.603-.155.148-.057.293-.13.436-.22zm-1.383-1.064-.775.095c-.88.114-1.546.3-1.999.562-.825.48-1.239 1.255-1.239 2.326 0 .825.257 1.464.771 1.914.514.45 1.166.675 1.955.675.619 0 1.173-.14 1.662-.425.412-.239.773-.53 1.087-.87a6.603 6.603 0 0 0 .064.527c.027.154.075.32.145.495h2.478v-.336a.806.806 0 0 1-.336-.264c-.075-.105-.12-.307-.137-.607a35.2 35.2 0 0 1-.016-1.007v-3.995c0-1.05-.37-1.764-1.111-2.144-.74-.377-1.587-.566-2.542-.566-1.464 0-2.499.382-3.101 1.15-.378.492-.591 1.117-.639 1.879h2.198c.053-.337.16-.603.321-.798.223-.269.605-.4 1.141-.4.48 0 .844.068 1.092.202.247.136.372.384.372.741 0 .293-.163.507-.488.646-.182.082-.482.147-.903.2zm.12-3.645zm12.6.732c-.573-.472-1.31-.707-2.21-.707-.718 0-1.314.175-1.782.528-.261.195-.539.518-.832.966v-1.27h-2.196v8.695h2.269v-4.715c0-.539.075-.98.222-1.328.29-.654.819-.982 1.592-.982.63 0 1.055.223 1.28.67.12.246.182.599.182 1.056v5.3h2.335v-5.866c0-1.094-.287-1.876-.86-2.347zm-3.048-.732z"/>
</svg>
