<svg width="297mm" height="210mm" viewBox="0 0 297 210" xmlns="http://www.w3.org/2000/svg">
	<g style="font-weight:700;font-size:50.8px;line-height:1.25;font-family:'Helvetica Neue';-inkscape-font-specification:'Helvetica Neue Bold';stroke-width:.264583">
		<path style="fill:#008aff" d="M17.135 35.85v36.27h7.974V60.436l4.573-4.622 10.922 16.307H50.61L35.066 50.176 49.24 35.85h-9.957L25.11 50.887V35.85zm66.111 0v36.27h6.858v-3.353h.101c.779 1.456 1.931 2.49 3.455 3.1 1.524.609 3.251.913 5.182.913 1.32 0 2.623-.27 3.91-.812s2.439-1.373 3.455-2.49c1.05-1.118 1.898-2.54 2.541-4.268.644-1.761.965-3.844.965-6.248 0-2.405-.321-4.47-.965-6.197-.643-1.761-1.491-3.201-2.541-4.319-1.016-1.117-2.168-1.946-3.455-2.488s-2.59-.813-3.91-.813c-1.626 0-3.2.322-4.725.965a7.564 7.564 0 0 0-3.556 2.946h-.102V35.85Zm43.195 9.296c-1.998 0-3.826.356-5.486 1.067a12.786 12.786 0 0 0-4.215 2.945c-1.185 1.22-2.1 2.676-2.744 4.37-.643 1.693-.965 3.521-.965 5.486 0 2.032.305 3.894.914 5.588.644 1.693 1.542 3.15 2.694 4.369 1.151 1.219 2.555 2.168 4.215 2.845 1.659.644 3.522.965 5.587.965 2.98 0 5.522-.678 7.622-2.033 2.1-1.355 3.657-3.606 4.673-6.756h-6.35c-.236.813-.881 1.593-1.93 2.338-1.05.711-2.302 1.066-3.759 1.066-2.032 0-3.59-.526-4.674-1.576-1.083-1.05-1.677-2.741-1.779-5.078h18.95c.135-2.032-.034-3.98-.508-5.844-.475-1.862-1.255-3.522-2.338-4.978-1.05-1.456-2.403-2.607-4.063-3.453-1.66-.88-3.608-1.32-5.844-1.32zm-73.357.711v16.155c0 1.625.135 3.116.406 4.47.305 1.321.812 2.454 1.524 3.403.71.914 1.677 1.627 2.896 2.135 1.253.508 2.843.761 4.774.761 1.524 0 3.014-.338 4.47-1.015 1.457-.678 2.643-1.78 3.557-3.303h.152v3.658h6.858V45.857h-7.213v13.766c0 2.676-.44 4.606-1.32 5.791-.881 1.152-2.304 1.729-4.268 1.729-1.727 0-2.93-.527-3.608-1.577-.677-1.083-1.015-2.707-1.015-4.875V45.857Zm43.268 4.725c1.083 0 1.999.237 2.744.711a5.53 5.53 0 0 1 1.93 1.828c.507.779.88 1.677 1.117 2.693s.355 2.082.355 3.2c0 1.083-.118 2.134-.355 3.15s-.61 1.913-1.118 2.691a6.018 6.018 0 0 1-1.93 1.881c-.744.44-1.66.66-2.743.66-1.05 0-1.964-.22-2.743-.66a6.024 6.024 0 0 1-1.931-1.88c-.508-.78-.88-1.676-1.117-2.692a13.823 13.823 0 0 1-.356-3.15c0-1.118.118-2.184.356-3.2.237-1.016.609-1.914 1.117-2.693a5.536 5.536 0 0 1 1.931-1.828c.78-.474 1.693-.711 2.743-.711zm29.886 0c1.761 0 3.066.474 3.912 1.422.88.948 1.492 2.337 1.83 4.166h-11.736a9.325 9.325 0 0 1 .305-1.729 5.953 5.953 0 0 1 .967-1.828c.474-.575 1.083-1.05 1.828-1.422.779-.406 1.743-.609 2.894-.609z" transform="translate(17.604 34.64)" aria-label="Kube"/>
	</g>
	<path d="M141.563 35.26v36.27h7.976V58.527h8.38c2.27 0 4.2-.321 5.792-.965 1.592-.677 2.88-1.558 3.861-2.642a9.61 9.61 0 0 0 2.184-3.71c.474-1.421.713-2.86.713-4.315 0-1.49-.239-2.93-.713-4.319a9.61 9.61 0 0 0-2.184-3.709c-.982-1.084-2.27-1.946-3.861-2.59-1.592-.677-3.522-1.017-5.791-1.017zm33.375 0v36.27h7.212V35.26Zm-25.399 6.199h6.197c.915 0 1.794.068 2.641.203.847.136 1.593.406 2.236.813.644.372 1.151.913 1.524 1.625.406.71.61 1.643.61 2.795 0 1.151-.204 2.081-.61 2.792a4.297 4.297 0 0 1-1.524 1.678c-.643.373-1.39.626-2.236.762a16.69 16.69 0 0 1-2.64.203h-6.198zm79.223 3.098c-1.423 0-2.81.135-4.164.406-1.355.237-2.575.679-3.659 1.322a7.297 7.297 0 0 0-2.642 2.54c-.644 1.083-.965 2.472-.965 4.165 0 1.152.237 2.133.711 2.946a6.549 6.549 0 0 0 1.88 1.982c.78.508 1.66.93 2.641 1.27 1.016.304 2.05.575 3.1.812 2.574.542 4.572 1.083 5.994 1.625 1.456.542 2.184 1.356 2.184 2.44 0 .643-.152 1.184-.457 1.624a3.782 3.782 0 0 1-1.168 1.016c-.44.237-.948.425-1.524.56a8.535 8.535 0 0 1-1.574.153 8.566 8.566 0 0 1-2.084-.256 5.7 5.7 0 0 1-1.726-.762 4.909 4.909 0 0 1-1.27-1.37c-.305-.576-.459-1.253-.459-2.032h-6.857c.067 1.761.456 3.235 1.168 4.42a9.162 9.162 0 0 0 2.795 2.793c1.151.711 2.455 1.219 3.912 1.523 1.456.305 2.946.457 4.47.457 1.49 0 2.945-.152 4.368-.457 1.456-.27 2.743-.761 3.86-1.472a8.178 8.178 0 0 0 2.694-2.793c.711-1.186 1.067-2.642 1.067-4.37 0-1.219-.237-2.235-.711-3.048a6.176 6.176 0 0 0-1.881-2.082 9.595 9.595 0 0 0-2.692-1.373 28.82 28.82 0 0 0-3.048-.864 121.668 121.668 0 0 0-2.996-.66 30.053 30.053 0 0 1-2.643-.66c-.745-.27-1.354-.61-1.828-1.016s-.711-.93-.711-1.574c0-.542.135-.966.406-1.271a2.6 2.6 0 0 1 .965-.762c.406-.17.846-.27 1.32-.305a9.373 9.373 0 0 1 1.32-.101c1.288 0 2.406.254 3.354.762.948.474 1.473 1.406 1.574 2.794h6.86c-.136-1.625-.56-2.963-1.272-4.013a7.887 7.887 0 0 0-2.59-2.59c-1.05-.644-2.252-1.102-3.607-1.373a20.435 20.435 0 0 0-4.115-.406zm-40.932.71v16.155c0 1.625.135 3.116.406 4.47.305 1.321.815 2.457 1.526 3.405.71.914 1.675 1.625 2.894 2.133 1.253.508 2.845.761 4.776.761 1.524 0 3.014-.338 4.47-1.015 1.457-.678 2.643-1.777 3.557-3.301h.152v3.656h6.858V45.268h-7.213v13.767c0 2.676-.442 4.606-1.322 5.791-.88 1.152-2.304 1.727-4.268 1.727-1.727 0-2.928-.525-3.605-1.574-.678-1.084-1.016-2.71-1.016-4.877V45.268Z" transform="translate(17.604 34.64)" aria-label="Plus" style="font-weight:700;font-size:50.8px;line-height:1.25;font-family:'Helvetica Neue';-inkscape-font-specification:'Helvetica Neue Bold';fill:#ff7f2a;stroke-width:.264583"/>
</svg>
