<svg xmlns="http://www.w3.org/2000/svg" height="640" width="1098.667" xml:space="preserve">
	<defs>
		<clipPath id="a" clipPathUnits="userSpaceOnUse">
			<path d="M0 480h824V0H0Z"/>
		</clipPath>
	</defs>
	<g clip-path="url(#a)" transform="matrix(1.33333 0 0 -1.33333 0 640)">
		<path style="fill:#0090d1;fill-opacity:1;fill-rule:nonzero;stroke:none" d="M0 0c-17.25-12.144-38.285-19.277-60.986-19.277-21.902 0-42.252 6.64-59.148 18.009 20.305 8.454 41.246 18.939 61.571 30.856C-39.238 18.256-19.363 8.227 0 0m-310.243 78.822c0 53.285 43.2 96.484 96.493 96.484 13.879 0 27.075-2.931 38.999-8.205a96.784 96.784 0 0 0-5.279 31.616c0 53.477 43.356 96.825 96.84 96.825 9.33 0 18.353-1.319 26.892-3.782l-1.96.134h-.607c-26.349-1.271-47.321-23.059-47.321-49.716 0-26.662 20.972-48.449 47.321-49.716h.607c26.346 1.267 47.32 23.054 47.32 49.716 0 12.271-4.445 23.512-11.812 32.193 13.35-10.678 23.811-24.812 30.027-41.05 18.694 10.145 40.108 15.906 62.873 15.906 72.891 0 131.981-59.083 131.981-131.967 0-49.802-27.586-93.158-68.313-115.623.282 18.095-15.896 44.301-47.838 73.727-3.291-8.171-9.722-13.716-17.085-16.557C92.666 29.685 89.326 8.623 57.055 8.623c-25.268 0-62.254 12.91-97.584 32.482C-21.35 53.462-10.875 60.073 5.078 74.52c7.471 6.767-6.017 22.882-22.492 8.078-11.611-10.431-26.996-21.369-41.149-30.371-14.148 9.002-37.532 26.605-49.146 37.033-16.474 14.805-29.965-1.312-22.494-8.076 15.958-14.446 34.428-27.722 53.606-40.079-21.035-11.648-42.656-20.948-62.046-26.556 0 0-2.713-.801-4.204-1.167-11.55-3.074-22.205-4.759-31.327-4.759-32.273 0-35.616 21.062-11.842 50.184-7.36 2.841-13.801 8.386-17.082 16.557-41.22-37.966-56.186-70.57-43.427-87.317-37.159 13.413-63.718 48.995-63.718 90.775M56.91 72.256c8.215 0 15.688 5.197 15.688 15.686 0 52.254-30.084 97.482-73.881 119.314a69.28 69.28 0 0 0-23.547-23.918c38.594-14.5 66.055-51.743 66.055-95.396 0-10.489 7.47-15.686 15.685-15.686m-230.947 0c8.22 0 15.692 5.197 15.692 15.686 0 43.653 27.46 80.896 66.053 95.396a69.312 69.312 0 0 0-23.549 23.918c-43.792-21.832-73.88-67.06-73.88-119.314 0-10.489 7.471-15.686 15.684-15.686" transform="translate(466.344 152.2)"/>
		<path style="fill:#005bab;fill-opacity:1;fill-rule:evenodd;stroke:none" d="M0 0v-138.019l-2.782-1.78c-14.149 8.992-31.742 19.607-43.355 30.035-16.475 14.798-26.306-4.824-18.832-11.589 15.956-14.443 24.976-17.219 44.153-29.566-10.486-5.809-21.115-11.033-31.543-15.503l-67.458 46.054 1.223-.036c5.816 0 11.252 2.599 13.934 7.838 1.327 2.276 2.097 5.105 2.097 8.474 0 17.469 4.395 33.908 12.147 48.275C-78.772-34.583-59.78-17.948-36.86-9.336l-.506.313.854.324a69.29 69.29 0 0 0-23.546 23.916A133.307 133.307 0 0 1-91.212-6.325c10.308 17.511 24.47 33.027 41.513 45.592C-45.141 17.465-26.318.888-3.436-.216h.609zm-119.309-25.573-.313.926.661-.29a96.283 96.283 0 0 0-3.338 12.203 122.066 122.066 0 0 0 6.304-5.27l8.044-7.199c-16.54-22.196-26.329-49.715-26.329-79.522 0-2.486.424-4.676 1.167-6.567l-94.53 64.538c17.539 18.12 42.123 29.386 69.339 29.386 13.88 0 27.068-2.931 38.995-8.205M0-164.891v-37.275l-33.257 22.706a531.305 531.305 0 0 1 30.13 16.39z" transform="translate(409.97 343.298)"/>
		<path style="fill:#005bab;fill-opacity:1;fill-rule:evenodd;stroke:none" d="m0 0-21.955-85.025a133.815 133.815 0 0 1-24.053 30.606zm-36.639-141.883-21.154-81.929c-9.459 2.85-19.418 6.555-29.549 10.955l-8.865 4.004a362.187 362.187 0 0 0-21.357 10.931c19.179 12.347 25.755 15.529 41.712 29.972 7.467 6.762-2.121 26.315-18.595 11.511-11.614-10.429-26.996-21.371-41.148-30.363-4.122 2.612-9.019 5.963-14.182 9.645l83.019 98.201c16.682-16.338 27.762-38.357 30.119-62.927m-99.301-68.19c19.202-11.265 38.956-21.243 58.21-29.44-17.122-11.848-37.891-18.792-60.291-18.792-21.709 0-41.894 6.523-58.699 17.715 20.062 8.395 40.716 18.752 60.78 30.517m-26.972 17.377 8.571-5.618a355.095 355.095 0 0 0-23.261-11.754z" transform="translate(542.783 390.3)"/>
		<path style="fill:#32449b;fill-opacity:1;fill-rule:evenodd;stroke:none" d="m0 0 81.084-231.21a132.462 132.462 0 0 0-22.451-15.618c.279 18.096-15.901 44.302-47.84 73.725l-.359-.63-.205-.481-.604-1.361-12.211 15.046c0 52.254-30.086 97.477-73.881 119.309a68.875 68.875 0 0 0-10.892-13.994L-99.34-40.342a49.746 49.746 0 0 1 6.955 9.842c3.992 7.165 6.266 15.415 6.266 24.198 0 7.992-1.881 15.548-5.233 22.242l2.938.234a96.922 96.922 0 0 0 20.162-31.971C-49.564-5.656-28.15.108-5.385.108z" transform="translate(540.928 399.735)"/>
		<path style="fill:#32449b;fill-opacity:1;fill-rule:evenodd;stroke:none" d="m0 0-81.088-136.583c-5.832 12.427-9.083 26.296-9.083 40.927 0 16.329 4.049 31.709 11.208 45.184C-63.543-21.953-34.169-2.082 0 0" transform="translate(245.696 325.745)"/>
		<path style="fill:#005bab;fill-opacity:1;fill-rule:evenodd;stroke:none" d="M0 0c0-23.395-6.096-45.37-16.771-64.419a132.43 132.43 0 0 0-20.415-27.133C-32.539-36.576-26.91 27.024-22.701 74.019-8.375 52.912 0 27.43 0 0" transform="translate(667.512 267.89)"/>
		<path style="fill:#fff;fill-opacity:1;fill-rule:nonzero;stroke:none" d="M411.95 312.595h-5.635v18.697h5.635z"/>
		<path style="fill:#fff;fill-opacity:1;fill-rule:evenodd;stroke:none" d="m0 0-13.221-13.224-3.984 3.985L-3.984 3.985z" transform="translate(475.16 302.776)"/>
		<path style="fill:#fff;fill-opacity:1;fill-rule:nonzero;stroke:none" d="m0 0-18.699.002v5.63H0Z" transform="translate(499.41 237.185)"/>
		<path style="fill:#fff;fill-opacity:1;fill-rule:nonzero;stroke:none" d="m0 0 18.699-.005v-5.632H0Z" transform="translate(317.352 244.702)"/>
		<path style="fill:#fff;fill-opacity:1;fill-rule:nonzero;stroke:none" d="m0 0 13.226-13.222-3.989-3.986L-3.984-3.984Z" transform="translate(346.523 307.64)"/>
		<path style="fill:#32449b;fill-opacity:1;fill-rule:evenodd;stroke:none" d="M0 0c-.512-6.112-2.804-10.899-6.879-14.365-4.177-3.361-9.678-5.042-16.503-5.042-7.947 0-14.009 2.395-18.186 7.183-4.176 4.584-6.265 11.358-6.265 20.323 0 9.169 2.139 16.046 6.419 20.63 4.38 4.787 10.696 7.181 18.949 7.181 6.723 0 12.072-1.68 16.045-5.043C-2.65 27.608-.512 23.023 0 17.115h-6.572c-2.446 0-4.178 1.07-5.197 3.209a14.898 14.898 0 0 1-2.598 3.514c-2.036 1.528-4.737 2.293-8.098 2.293-4.687 0-8.303-1.527-10.851-4.585-2.444-3.056-3.667-7.537-3.667-13.447 0-5.704 1.223-10.085 3.667-13.142 2.344-3.158 5.859-4.737 10.545-4.737 3.26 0 5.96.815 8.099 2.445C-12.735-5.806-11.36-3.362-10.546 0z" transform="translate(196.8 69.559)"/>
		<path style="fill:#32449b;fill-opacity:1;fill-rule:evenodd;stroke:none" d="M0 0h5.501c1.427 0 2.65-.484 3.668-1.452 1.019-.968 1.528-2.164 1.528-3.591v-47.523H0Z" transform="translate(202.075 103.941)"/>
		<path style="fill:#32449b;fill-opacity:1;fill-rule:evenodd;stroke:none" d="M0 0c-2.141-2.344-3.108-5.832-2.904-10.467.204-4.635 1.07-7.869 2.597-9.703.612-.814 1.682-1.504 3.209-2.062 1.529-.561 3.082-.612 4.662-.154 1.58.458 2.98 1.605 4.202 3.439 1.223 1.834 1.885 4.788 1.987 8.861 0 3.668-.585 6.418-1.758 8.252C10.824 0 9.474 1.172 7.946 1.682c-1.528.508-3.056.535-4.586.076C1.834 1.299.713.714 0 0m-7.335-26.893c-2.141 1.834-3.668 4.303-4.584 7.411-.917 3.108-1.376 6.342-1.376 9.703 0 2.751.381 5.501 1.145 8.252.765 2.751 1.962 5.043 3.591 6.877 2.65 3.055 6.063 4.863 10.24 5.423 4.177.561 7.946.23 11.308-.993 3.871-1.527 6.724-4.176 8.558-7.947 1.732-3.36 2.599-7.282 2.599-11.765 0-3.26-.358-6.061-1.071-8.404-.713-2.345-1.63-4.33-2.751-5.96-2.445-3.362-5.553-5.45-9.321-6.265a20.819 20.819 0 0 0-10.162-.231c-3.414.766-6.14 2.065-8.176 3.899" transform="translate(229.39 81.936)"/>
		<path style="fill:#32449b;fill-opacity:1;fill-rule:evenodd;stroke:none" d="M0 0v-23.838C0-31.07-1.885-35.81-5.653-38.049c-3.77-2.242-7.897-3.363-12.379-3.363-4.381.204-8.38 1.426-11.995 3.668-3.618 2.242-5.426 6.877-5.426 13.906V0h10.697v-25.977c0-2.445.713-4.228 2.139-5.349 1.427-1.121 3.055-1.68 4.891-1.68 1.834 0 3.49.559 4.966 1.68 1.478 1.121 2.216 2.904 2.216 5.349v20.782c0 1.425.483 2.648 1.451 3.668C-8.124-.51-6.877 0-5.348 0Z" transform="translate(293.231 92.022)"/>
		<path style="fill:#32449b;fill-opacity:1;fill-rule:evenodd;stroke:none" d="M0 0c0-4.074.765-7.182 2.292-9.322 1.529-2.139 3.719-3.208 6.572-3.208 2.75 0 4.889 1.069 6.418 3.208 1.427 2.14 2.139 5.248 2.139 9.322 0 3.668-.764 6.571-2.292 8.71-1.63 2.038-3.82 3.055-6.571 3.055-2.648 0-4.737-1.069-6.266-3.208C.765 6.52 0 3.668 0 0m17.421 32.09h5.196c1.427 0 2.65-.534 3.668-1.605 1.018-1.069 1.528-2.266 1.528-3.59V-2.903c0-7.235-2.087-12.123-6.265-14.67-4.177-2.546-8.711-3.822-13.6-3.822-2.65 0-5.248.434-7.796 1.3-2.546.866-4.584 2.268-6.112 4.202-2.954 3.769-4.432 8.914-4.432 15.435 0 6.419 1.478 11.562 4.432 15.433 3.057 3.973 6.979 5.96 11.767 5.96 2.547 0 4.788-.51 6.725-1.529 2.037-1.221 3.667-2.802 4.889-4.736z" transform="translate(306.873 72.004)"/>
		<path style="fill:#32449b;fill-opacity:1;fill-rule:evenodd;stroke:none" d="M0 0h-10.849v19.56l-19.103 33.006h13.295L-5.501 29.95l9.017 19.56c1.018 2.037 2.7 3.056 5.043 3.056h8.71L0 19.56Z" transform="translate(368.935 51.375)"/>
		<path style="fill:#32449b;fill-opacity:1;fill-rule:evenodd;stroke:none" d="M0 0v-23.838C0-31.07-1.885-35.81-5.654-38.049c-3.769-2.242-7.895-3.363-12.379-3.363-4.38.204-8.377 1.426-11.995 3.668-3.617 2.242-5.425 6.877-5.425 13.906V0h10.697v-25.977c0-2.445.714-4.228 2.139-5.349 1.426-1.121 3.057-1.68 4.891-1.68s3.489.559 4.966 1.68c1.477 1.121 2.215 2.904 2.215 5.349v20.782c0 1.425.484 2.648 1.453 3.668C-8.123-.51-6.877 0-5.349 0Z" transform="translate(419.272 92.022)"/>
		<path style="fill:#32449b;fill-opacity:1;fill-rule:evenodd;stroke:none" d="M0 0c0-7.029 2.038-10.926 6.114-11.688 4.074-.766 7.08.176 9.015 2.826.917 1.121 1.579 2.877 1.986 5.271.407 2.396.434 4.764.076 7.107-.354 2.342-1.196 4.43-2.52 6.265-1.325 1.833-3.26 2.749-5.807 2.749-3.464 0-5.807-1.272-7.03-3.82C.611 6.165 0 3.261 0 0m17.422-17.572v2.597c-1.834-2.852-4.305-4.635-7.411-5.348-3.109-.713-6.192-.459-9.246.764-3.057 1.222-5.681 3.488-7.869 6.799-2.192 3.312-3.288 7.667-3.288 13.067 0 6.316 1.453 11.435 4.356 15.357 2.904 3.922 7.563 5.883 13.983 5.883 4.89 0 9.424-1.324 13.601-3.974 4.177-2.647 6.265-7.539 6.265-14.668v-21.547c0-7.132-2.088-11.995-6.265-14.593-4.177-2.598-8.711-3.897-13.601-3.897-9.373 0-15.18 4.38-17.422 13.141H1.681c.815-1.426 2.063-2.52 3.745-3.284 1.68-.766 3.361-.968 5.043-.611 1.68.356 3.209 1.349 4.584 2.979 1.376 1.631 2.165 4.074 2.369 7.335" transform="translate(434.784 71.392)"/>
		<path style="fill:#32449b;fill-opacity:1;fill-rule:evenodd;stroke:none" d="M0 0a18.841 18.841 0 0 0-6.799-2.063c-2.395-.253-4.51-.382-6.343-.382-3.668 0-6.876.994-9.628 2.98-2.75 1.987-4.125 5.272-4.125 9.857 0 4.279 1.248 7.335 3.744 9.169 2.496 1.834 5.678 3.056 9.55 3.668.51 0 1.121.074 1.834.228.714.153 1.527.279 2.445.383 4.482.609 6.724 1.934 6.724 3.972 0 1.528-.79 2.521-2.369 2.979-1.579.46-3.031.688-4.355.688-1.426 0-2.7-.204-3.82-.612-1.121-.406-1.936-1.17-2.445-2.292h-10.239c.408 3.158 1.833 5.757 4.279 7.794 2.75 2.344 6.672 3.515 11.767 3.515 5.706 0 9.984-.968 12.837-2.904 2.955-2.037 4.431-4.89 4.431-8.558V14.518c0-4.077-.738-7.26-2.217-9.552C3.795 2.674 2.037 1.02 0 0m-2.445 18.795c-1.427-.711-3.412-1.373-5.961-1.985l-3.514-.764c-1.833-.51-3.158-1.171-3.973-1.986-.713-1.122-1.07-2.243-1.07-3.362 0-1.529.458-2.751 1.376-3.668.916-.815 2.241-1.223 3.973-1.223 2.853 0 5.093.816 6.723 2.446 1.631 1.63 2.446 3.87 2.446 6.723z" transform="translate(494.66 53.055)"/>
		<path style="fill:#0090d1;fill-opacity:1;fill-rule:evenodd;stroke:none" d="M0 0h5.194v-8.403H-3.21v5.194C-3.21-1.069-2.141 0 0 0" transform="translate(511.19 59.778)"/>
		<path style="fill:#0090d1;fill-opacity:1;fill-rule:evenodd;stroke:none" d="M0 0c-1.834-2.647-4.023-4.585-6.571-5.807-2.649-1.12-5.552-1.681-8.71-1.681-7.539 0-13.499 2.496-17.88 7.488-4.484 4.89-6.724 11.614-6.724 20.17 0 8.456 2.191 15.129 6.571 20.019 4.585 5.093 10.646 7.64 18.186 7.64 6.521 0 11.919-1.579 16.197-4.736 4.177-3.362 6.673-7.743 7.489-13.143H1.222c-2.139 0-3.718.969-4.737 2.904-.714 1.222-1.732 2.343-3.056 3.362-2.036 1.426-4.737 2.139-8.099 2.139-4.38 0-7.846-1.579-10.392-4.737-2.546-3.361-3.822-7.844-3.822-13.448 0-5.703 1.326-10.187 3.976-13.447 2.546-3.159 6.163-4.736 10.85-4.736 3.463 0 6.315.967 8.557 2.903 2.242 2.037 3.667 4.839 4.278 8.405H-7.64c-1.529 0-2.829.534-3.898 1.604-1.069 1.069-1.604 2.369-1.604 3.895v3.516H8.71V-6.265H5.807c-2.853 0-4.635 1.426-5.349 4.279z" transform="translate(559.85 57.64)"/>
		<path style="fill:#0090d1;fill-opacity:1;fill-rule:evenodd;stroke:none" d="M0 0v-23.838C0-31.07-1.885-35.81-5.653-38.049c-3.77-2.242-7.897-3.363-12.379-3.363-4.38.204-8.38 1.426-11.996 3.668-3.617 2.242-5.425 6.877-5.425 13.906V0h10.698v-25.977c0-2.445.713-4.228 2.139-5.349 1.426-1.121 3.054-1.68 4.888-1.68s3.492.559 4.968 1.68c1.478 1.121 2.216 2.904 2.216 5.349v20.782c0 1.425.484 2.648 1.451 3.668C-8.125-.51-6.877 0-5.348 0Z" transform="translate(608.887 92.022)"/>
		<path style="fill:#0090d1;fill-opacity:1;fill-rule:evenodd;stroke:none" d="M0 0v19.712c0 3.974.586 7.309 1.758 10.009 1.172 2.7 2.776 4.864 4.814 6.494 1.935 1.528 4.201 2.649 6.8 3.362a30.134 30.134 0 0 0 8.023 1.069h1.528V29.798h-3.516c-2.954 0-5.143-.714-6.569-2.14-1.428-1.426-2.141-3.668-2.141-6.725V0Z" transform="translate(613.054 51.375)"/>
		<path style="fill:#0090d1;fill-opacity:1;fill-rule:evenodd;stroke:none" d="M0 0v-23.838C0-31.07-1.885-35.81-5.654-38.049c-3.769-2.242-7.896-3.363-12.379-3.363-4.38.204-8.378 1.426-11.995 3.668-3.617 2.242-5.425 6.877-5.425 13.906V0h10.697v-25.977c0-2.445.712-4.228 2.139-5.349 1.426-1.121 3.057-1.68 4.891-1.68s3.489.559 4.966 1.68c1.477 1.121 2.215 2.904 2.215 5.349v20.782c0 1.425.484 2.648 1.453 3.668C-8.125-.51-6.877 0-5.349 0Z" transform="translate(675.033 92.022)"/>
		<path style="fill:#32449b;fill-opacity:1;fill-rule:evenodd;stroke:none" d="M0 0h267.124a24.041 24.041 0 0 1 3.075-4.5H0Zm314.466 0h207.07v-4.5H311.175a19.737 19.737 0 0 1 3.291 4.5" transform="translate(153.006 38.837)"/>
	</g>
</svg>
