<svg xmlns="http://www.w3.org/2000/svg" viewBox="60.39 0.64 278.72 244.72">
	<defs>
		<linearGradient id="a" x1="-103.614" x2="-103.362" y1="517.123" y2="516.4" gradientTransform="matrix(102.56369 0 0 -152.10762 10839.97 78686.855)" gradientUnits="userSpaceOnUse">
			<stop offset="0" stop-color="#77cffe"/>
			<stop offset="1" stop-color="#289ce1"/>
		</linearGradient>
		<linearGradient id="b" x1="-103.099" x2="-102.784" y1="516.02" y2="515.569" gradientTransform="matrix(79.89172 0 0 -97.08997 8381.077 50116.696)" gradientUnits="userSpaceOnUse">
			<stop offset="0" stop-color="#289ce1"/>
			<stop offset="1" stop-color="#006ab0"/>
		</linearGradient>
		<linearGradient id="c" x1="-98.966" x2="-98.026" y1="507.552" y2="507.552" gradientTransform="matrix(24.83121 0 0 -25.02763 2669.358 12787.81)" gradientUnits="userSpaceOnUse">
			<stop offset="0" stop-color="#006ab0" stop-opacity=".5"/>
			<stop offset="1" stop-color="#006ab0" stop-opacity="0"/>
		</linearGradient>
	</defs>
	<path fill="url(#a)" fill-rule="evenodd" d="M211.944 73.038v23.52h22.192a22.012 22.012 0 1 1-22.198 21.905l.006-67.293a45.966 45.966 0 0 0-9.548-28.05c-2.32-2.732-1.55-2.673-4.31-.365q-.1.084-.192.176l-12.775 12.69c-2.145 2.13-1.928 1.365-.432 3.749a21.859 21.859 0 0 1 3.53 11.8v67.397a45.885 45.885 0 1 0 45.893-45.529h-22.166z"/>
	<path fill="url(#b)" fill-rule="evenodd" d="M166.165 29.585a21.856 21.856 0 0 1 12.813 3.82l16.682-16.677A43.718 43.718 0 0 0 166.165 6a45.65 45.65 0 0 0 0 91.3h16.14V73.717h-16.14a22.065 22.065 0 0 1 0-44.13z"/>
	<path fill="url(#c)" fill-rule="evenodd" d="M211.904 73.208h23.35v23.535h-23.35z"/>
	<path fill="#1e252c" d="M329.64 230.75a4.17 4.17 0 1 1-4.107 4.163 4.156 4.156 0 0 1 4.108-4.164zm0 .823a3.348 3.348 0 1 0 3.228 3.34 3.239 3.239 0 0 0-3.227-3.34zm.193 1.038a1.451 1.451 0 0 1 1.534 1.422 1.405 1.405 0 0 1-.993 1.343l1.016 1.772h-.982l-.948-1.693h-.338v1.693h-.858v-4.537zm-.125.745h-.586v1.354h.586c.508 0 .79-.248.79-.665 0-.44-.282-.689-.79-.689zm-45.283-21.49c9.011 0 13.14 7.046 13.14 14.752 0 .348-.017.728-.04 1.123l-.02.299-.042.606h-18.777a6.268 6.268 0 0 0 6.595 5.323 8.709 8.709 0 0 0 6.369-2.626l.175-.162 4.38 3.903a13.458 13.458 0 0 1-11.025 5.07c-8.024 0-13.975-5.615-14.093-13.794l-.002-.249.001-.334c.109-7.65 5.564-13.91 13.34-13.91zm-30.299 0c9.011 0 13.14 7.046 13.14 14.752 0 .348-.017.728-.04 1.123l-.02.299-.042.606h-18.777a6.268 6.268 0 0 0 6.595 5.323 8.709 8.709 0 0 0 6.369-2.626l.175-.162 4.38 3.903a13.458 13.458 0 0 1-11.025 5.07c-8.024 0-13.975-5.615-14.093-13.794l-.002-.249.002-.334c.108-7.65 5.564-13.91 13.338-13.91zm-126.519 0c8.273 0 14.425 6.111 14.547 13.809l.002.233-.002.335c-.123 7.7-6.325 13.91-14.648 13.91-8.273 0-14.424-6.111-14.546-13.808l-.002-.234.002-.335c.123-7.7 6.324-13.91 14.647-13.91zm-43.243-8.415c6.541 0 10.497 2.161 13.74 5.323l.154.152-4.933 5.728c-2.718-2.484-5.487-4.005-9.011-4.005-5.88 0-10.133 4.869-10.218 10.868l-.001.184.001.283c.083 6.002 4.237 10.97 10.218 10.97 3.776 0 6.18-1.425 8.747-3.692l.171-.152.345-.312 4.933 5.019a17.958 17.958 0 0 1-14.448 6.336 17.838 17.838 0 0 1-18.07-17.944l-.002-.305.002-.404a17.962 17.962 0 0 1 18.372-18.05zm226.735 8.516a18.583 18.583 0 0 1 10.069 3.143l-2.92 5.323a15.911 15.911 0 0 0-7.3-2.534c-1.862 0-2.819.81-2.819 1.875v.102c0 1.52 2.568 2.23 5.488 3.244l.438.149.447.157c3.492 1.245 7.165 3.118 7.268 7.562l.002.294c0 6.032-4.48 8.77-10.32 8.77a18.818 18.818 0 0 1-11.578-4.106l3.272-5.07a15.192 15.192 0 0 0 8.507 3.245c2.215 0 3.222-.811 3.222-2.028v-.101c0-1.642-2.522-2.21-5.423-3.093l-.727-.22-.295-.094c-3.49-1.123-7.1-2.972-7.195-7.705l-.002-.295c0-5.525 4.43-8.618 9.866-8.618zm-108.409-9.429v37.007h-7.651v-3.904a9.89 9.89 0 0 1-8.407 4.41c-6.23 0-12.164-4.868-12.282-13.77l-.001-.271.001-.373c.116-8.902 5.952-13.771 12.282-13.771a10.23 10.23 0 0 1 8.086 3.682l.108.123.213.25v-13.383zm-49.227 9.835v15.157c0 3.65 1.712 5.526 4.632 5.526 2.87 0 4.72-1.814 4.78-5.345l.002-.18v-15.158h7.652v27.172h-7.652v-3.853c-1.762 2.281-4.027 4.36-7.903 4.36-5.727 0-9.09-3.77-9.161-9.888l-.001-.2v-17.591zm70.415-8.314c4.027 0 7.198 1.115 9.212 3.143a8.126 8.126 0 0 1 2.414 5.806l.002.227-.002.314a8.248 8.248 0 0 1-4.629 7.442l.366.145c3.802 1.548 6.154 3.88 6.227 8.36l.002.214-.002.295c-.102 6.297-5.21 9.476-12.952 9.539l-17 .001v-35.486zm-114.4-1.52v37.006h-7.652v-37.007zm79.117 15.866c-3.526 0-6.513 2.862-6.593 7.32l-.002.183.002.284c.08 4.41 3.067 7.32 6.593 7.32s6.464-2.91 6.543-7.32l.001-.182v-.102c0-4.512-2.97-7.503-6.544-7.503zm-61.089.102c-4.32 0-6.927 3.306-6.996 7.241l-.001.16.001.26a7.183 7.183 0 0 0 7.097 7.344c4.321 0 6.927-3.306 6.996-7.241l.001-.16-.001-.26a7.183 7.183 0 0 0-7.097-7.344zm96.523 6.387h-8.961v7.807h9.212c3.365 0 5.416-1.175 5.486-3.717l.002-.136-.002-.22c-.058-2.312-1.827-3.734-5.737-3.734zm60.396-6.843c-3.118 0-5.165 2.204-5.807 5.602l-.032.177h11.528c-.453-3.447-2.467-5.78-5.689-5.78zm-30.299 0c-3.118 0-5.165 2.204-5.807 5.602l-.032.177h11.528c-.453-3.447-2.467-5.78-5.689-5.78zm-31.406-7.148h-7.652v7.502h7.148c3.366 0 5.515-1.077 5.586-3.618l.002-.133v-.101c0-2.332-1.812-3.65-5.084-3.65z"/>
</svg>
