<svg xmlns="http://www.w3.org/2000/svg" width="200" height="128">
    <defs>
        <linearGradient id="a" x1="174.922" y1="115.79" x2="175.001" y2="115.79" gradientTransform="matrix(1999.99 0 0 -280.68 -349823.231 32551.313)" gradientUnits="userSpaceOnUse">
            <stop offset=".005" stop-color="#5bc1a6"/>
            <stop offset="1" stop-color="#211645"/>
        </linearGradient>
    </defs>
    <path d="M20 51.45a10.6 10.6 0 0 1 10.654-11.042c5.371 0 8.564 3.163 9.52 6.863L36.8 48.405a5.87 5.87 0 0 0-6.147-4.625c-3.492 0-6.984 2.536-6.984 7.669 0 4.954 3.4 7.58 7.013 7.58a6.317 6.317 0 0 0 6.3-4.655l3.283 1.074a9.494 9.494 0 0 1-9.58 7.012C24.983 62.461 20 58.343 20 51.45zm22.254 10.564V40.408h3.462v21.606zm20.618-7.281a7.537 7.537 0 1 1-15.07 0 7.537 7.537 0 1 1 15.07 0zm-3.492 0c0-3.014-1.91-4.566-4.058-4.566-2.119 0-4.058 1.552-4.058 4.566s1.94 4.625 4.058 4.625c2.148-.001 4.058-1.582 4.058-4.625zm10.891 7.7c-3.462 0-5.491-2.567-5.491-5.789V47.48h3.462v8.535c0 1.791.835 3.313 2.924 3.313 2 0 3.044-1.343 3.044-3.253v-8.6h3.462v11.882a23.815 23.815 0 0 0 .149 2.656h-3.312a10.751 10.751 0 0 1-.12-1.611 4.649 4.649 0 0 1-4.118 2.029zm24.019-3.076a23.709 23.709 0 0 0 .15 2.656h-3.313a14.479 14.479 0 0 1-.149-1.88 4.782 4.782 0 0 1-4.268 2.238c-4.177 0-6.983-3.283-6.983-7.67 0-4.178 2.835-7.61 6.923-7.61 2.536 0 3.819 1.164 4.267 2.089v-8.772h3.373v18.949zm-7.19-.029c2.268 0 3.849-1.881 3.849-4.656s-1.552-4.506-3.82-4.506-3.939 1.761-3.939 4.534 1.551 4.628 3.91 4.628zm24.173 2.686v-9.042h-9.937v9.042h-3.582V40.408h3.581V49.6h9.937v-9.192h3.611v21.606zm20.1-4.149a6.544 6.544 0 0 1-6.565 4.6c-3.939 0-7.431-2.865-7.431-7.789a7.285 7.285 0 0 1 7.072-7.64c4.477 0 7.1 2.955 7.1 7.551a5.1 5.1 0 0 1-.09 1.1h-10.618a3.892 3.892 0 0 0 3.969 3.789 3.507 3.507 0 0 0 3.641-2.536zm-3.312-4.714a3.255 3.255 0 0 0-3.581-3.223 3.488 3.488 0 0 0-3.551 3.223zm9.1.537l3.73-.568c.836-.119 1.074-.537 1.074-1.044 0-1.223-.835-2.209-2.745-2.209a2.8 2.8 0 0 0-2.984 2.626l-3.164-.716c.269-2.507 2.537-4.745 6.118-4.745 4.476 0 6.178 2.536 6.178 5.431v7.221a13.17 13.17 0 0 0 .179 2.328h-3.223a8.03 8.03 0 0 1-.15-1.85 5.072 5.072 0 0 1-4.476 2.3c-3.044 0-4.924-2.089-4.924-4.387 0-2.595 1.911-4.027 4.387-4.385zm4.8 2.3v-.658l-3.79.567c-1.074.179-1.939.776-1.939 1.97a1.922 1.922 0 0 0 2.119 1.88c1.949-.001 3.617-.926 3.617-3.761zm6.232 6.028V40.408h3.462v21.606zm10.92-14.536h3.014v3.074h-3.014V57.3c0 1.283.567 1.821 1.85 1.821a7.362 7.362 0 0 0 1.194-.12v2.865a5.442 5.442 0 0 1-2.119.328 4.007 4.007 0 0 1-4.357-4.327v-7.313H153V47.48h.746a2.061 2.061 0 0 0 2.238-2.268v-2.179h3.133v4.447zm8.574 14.534h-3.462V40.408h3.462v8.476a5.178 5.178 0 0 1 4.148-1.821c3.581 0 5.311 2.567 5.311 5.76v9.191h-3.461v-8.6c0-1.791-.806-3.223-2.984-3.223-1.91 0-2.955 1.432-3.014 3.283z" fill="url(#a)"/>
    <g fill="#727174">
        <path d="M133.228 84.862l-3.609-10.046a1.676 1.676 0 0 1-.11-.482.871.871 0 0 1 .9-.842.93.93 0 0 1 .9.73l2.982 8.651 3.014-8.678a.89.89 0 0 1 .863-.7h.094a.933.933 0 0 1 .922.7l2.982 8.678 3.037-8.7a.859.859 0 0 1 .851-.684.841.841 0 0 1 .865.827 1.959 1.959 0 0 1-.108.48l-3.627 10.063a1.061 1.061 0 0 1-.969.8h-.064a1 1 0 0 1-.972-.8l-2.963-8.537-2.982 8.537a1 1 0 0 1-.967.8h-.049a1.056 1.056 0 0 1-.983-.8M159.507 74.382a.9.9 0 0 1 .874-.9.88.88 0 0 1 .9.9v2.04a4.829 4.829 0 0 1 4.094-2.91.849.849 0 0 1 .877.892.888.888 0 0 1-.784.9c-2.3.271-4.188 2-4.188 5.43v4.034a.873.873 0 0 1-.869.893.885.885 0 0 1-.9-.893zM171.939 85.658a5.823 5.823 0 0 1-5.818-6.124v-.045c0-3.391 2.366-6.131 5.592-6.131 3.447 0 5.407 2.848 5.407 5.965a.82.82 0 0 1-.81.826h-8.428a4.083 4.083 0 0 0 4.1 3.982 4.727 4.727 0 0 0 3.357-1.367.753.753 0 0 1 .5-.2.77.77 0 0 1 .77.758.74.74 0 0 1-.271.558 5.869 5.869 0 0 1-4.4 1.783zm3.44-6.806c-.177-2.143-1.394-4.008-3.711-4.008-2.034 0-3.564 1.705-3.786 4.008zM146.95 81.969v-.047c0-2.5 2.062-3.829 5.062-3.829a12.726 12.726 0 0 1 3.657.5v-.419c0-2.125-1.309-3.232-3.536-3.232a5.936 5.936 0 0 0-2.749.543 1.044 1.044 0 0 1-.324.068.786.786 0 0 1-.786-.752.732.732 0 0 1 .486-.74 7.8 7.8 0 0 1 3.554-.672 5.2 5.2 0 0 1 3.837 1.3 4.7 4.7 0 0 1 1.212 3.466v6.544a.84.84 0 0 1-.853.872.813.813 0 0 1-.841-.827v-1.129a5.179 5.179 0 0 1-4.287 2.044c-2.2 0-4.432-1.257-4.432-3.69m8.741-.915V79.9a12.467 12.467 0 0 0-3.489-.5c-2.223 0-3.46.965-3.46 2.452v.048c0 1.483 1.381 2.36 2.983 2.36 2.174 0 3.966-1.332 3.966-3.208M101.575 74.313a1.658 1.658 0 1 0-3.012 1.387l3.7 8.038c.58 1.261 1.191 1.922 2.344 1.922 1.224 0 1.767-.719 2.35-1.922 0 0 3.226-7.028 3.254-7.1a.472.472 0 0 1 .467-.3.519.519 0 0 1 .517.52v6.871a1.723 1.723 0 0 0 1.71 1.927 1.747 1.747 0 0 0 1.744-1.927V78.1a1.721 1.721 0 0 1 1.833-1.782 1.683 1.683 0 0 1 1.766 1.782v5.629a1.738 1.738 0 1 0 3.455 0V78.1a1.727 1.727 0 0 1 1.844-1.782 1.681 1.681 0 0 1 1.758 1.782v5.629a1.728 1.728 0 0 0 1.719 1.927 1.746 1.746 0 0 0 1.744-1.927v-6.4a4.01 4.01 0 0 0-4.168-4 5.316 5.316 0 0 0-3.693 1.578 4.1 4.1 0 0 0-3.573-1.574 5.878 5.878 0 0 0-3.491 1.574 4.169 4.169 0 0 0-3.112-1.574 3.82 3.82 0 0 0-3.758 2.547l-2.366 5.577zM177.12 74.879v-.006a1.44 1.44 0 1 1 2.88-.01v.01a1.45 1.45 0 0 1-1.439 1.447 1.433 1.433 0 0 1-1.441-1.441m2.6-.006v-.005a1.162 1.162 0 0 0-1.165-1.183 1.174 1.174 0 0 0-1.169 1.188v.006a1.167 1.167 0 1 0 2.334-.006"/>
        <path d="M178.011 74.294a.153.153 0 0 1 .153-.155h.48a.553.553 0 0 1 .408.144.423.423 0 0 1 .126.323.417.417 0 0 1-.283.423l.218.262a.2.2 0 0 1 .049.118.145.145 0 0 1-.148.139.169.169 0 0 1-.147-.079l-.3-.37h-.257v.3a.147.147 0 0 1-.148.151.152.152 0 0 1-.154-.151v-1.1zm.623.528c.144 0 .231-.078.231-.2v-.007c0-.13-.091-.2-.242-.2h-.312v.406h.323zM87.066 81.618c0 2.163-1.388 3.688-3.239 3.688a2.856 2.856 0 0 1-2.559-1.484v1.32h-1.02v-9.511h1.02v3.8a2.854 2.854 0 0 1 2.559-1.484 3.366 3.366 0 0 1 3.239 3.671zm-1.075 0a2.392 2.392 0 1 0-2.354 2.776 2.48 2.48 0 0 0 2.354-2.776zM88.766 87.36l.245-.87a1.859 1.859 0 0 0 .83.176 1.05 1.05 0 0 0 1.021-.626l.408-.87-3.061-7.063h1.129l2.462 5.852 2.327-5.852h1.1l-3.211 7.825a2.2 2.2 0 0 1-2.136 1.66 2.688 2.688 0 0 1-1.114-.232z"/>
    </g>
</svg>
