<svg xmlns="http://www.w3.org/2000/svg" width="200" height="128">
	<path d="M178.642 80.641a1.349 1.349 0 0 1-1.358-1.358 1.358 1.358 0 0 1 2.716 0 1.378 1.378 0 0 1-1.358 1.358m0-2.449a1.091 1.091 0 1 0 1.091 1.091 1.093 1.093 0 0 0-1.091-1.091m.69 1.8h-.312l-.267-.512h-.353V80h-.289v-1.5h.712a.473.473 0 0 1 .512.49.462.462 0 0 1-.312.445zm-.534-.78a.209.209 0 0 0 .222-.222c0-.178-.089-.223-.222-.223h-.445v.445zm-141.634-1.42h3.473v9.461h6.033v3.028h-9.506zm13.091 6.278v-.045A6.552 6.552 0 0 1 57 77.524a6.477 6.477 0 0 1 6.7 6.457v.044a6.552 6.552 0 0 1-6.745 6.5 6.477 6.477 0 0 1-6.7-6.456m9.929 0v-.045a3.229 3.229 0 0 0-3.206-3.362A3.187 3.187 0 0 0 53.817 84v.044A3.223 3.223 0 0 0 57 87.409a3.191 3.191 0 0 0 3.184-3.339m7.769.734v-7.012h3.518v6.945c0 1.8.912 2.65 2.293 2.65s2.293-.824 2.293-2.561v-7.034h3.517v6.923c0 4.03-2.293 5.788-5.855 5.788-3.54 0-5.766-1.781-5.766-5.7m16.92-7.012h4.808c4.453 0 7.058 2.56 7.058 6.166V84c0 3.606-2.627 6.278-7.124 6.278h-4.742V77.792zm4.875 9.417c2.071 0 3.451-1.136 3.451-3.162V84c0-2-1.38-3.161-3.451-3.161h-1.4v6.344h1.4zm12.022-9.417h10v3.027h-6.545v2.137h5.921v2.872h-5.921v4.453h-3.455zm14.8 0h3.451v9.461h6.055v3.028h-9.506zm18.545-.089h3.339l5.321 12.578h-3.718l-.913-2.226h-4.804l-.891 2.226h-3.628zm3.05 7.658-1.38-3.54-1.4 3.54zm10.063-7.569h5.9a5.425 5.425 0 0 1 4.074 1.358 3.854 3.854 0 0 1 1.113 2.916v.044a3.937 3.937 0 0 1-2.56 3.83l2.983 4.363h-4.007l-2.516-3.785H151.7V90.3h-3.472V77.792zm5.743 5.988c1.18 0 1.848-.579 1.848-1.469v-.045c0-.979-.712-1.469-1.87-1.469h-2.271v2.984zm10.33-5.988h10.04v2.939h-6.612v1.893h5.989v2.738h-5.989v1.981h6.7v2.939h-10.124zM29.6 85.539a3.071 3.071 0 0 1-2.849 1.87 3.237 3.237 0 0 1-3.184-3.362V84a3.187 3.187 0 0 1 3.161-3.34 3.1 3.1 0 0 1 2.961 2.071h3.651a6.508 6.508 0 0 0-6.589-5.187A6.551 6.551 0 0 0 20 84.047v.045a6.477 6.477 0 0 0 6.7 6.456 6.567 6.567 0 0 0 6.545-4.987l-3.645-.022z" fill="#404041"/>
	<path d="M152.862 69.955a4.734 4.734 0 0 0-.49-4.163 4.221 4.221 0 0 0-3.361-1.647l-27.4-.356a.508.508 0 0 1-.423-.223.613.613 0 0 1-.067-.49.753.753 0 0 1 .646-.49l27.649-.356a9.9 9.9 0 0 0 8.082-6.055l1.58-4.119a.886.886 0 0 0 .045-.534 18 18 0 0 0-34.623-1.848 8.094 8.094 0 0 0-12.912 5.655 8.489 8.489 0 0 0 .2 2.827 11.5 11.5 0 0 0-11.176 11.51 13.965 13.965 0 0 0 .112 1.669.548.548 0 0 0 .534.468h50.58a.689.689 0 0 0 .646-.49z" fill="#f38020"/>
	<path d="M161.589 52.346c-.245 0-.512 0-.757.022a.45.45 0 0 0-.4.312l-1.069 3.72a4.734 4.734 0 0 0 .49 4.163 4.225 4.225 0 0 0 3.361 1.648l5.833.356a.506.506 0 0 1 .423.223.628.628 0 0 1 .067.489.751.751 0 0 1-.646.49l-6.078.356a9.871 9.871 0 0 0-8.081 6.056l-.445 1.135a.32.32 0 0 0 .312.445h20.882a.547.547 0 0 0 .534-.4 15.228 15.228 0 0 0 .557-4.052 15 15 0 0 0-14.983-14.96" fill="#faae40"/>
	<path d="M151.969 71.781a.69.69 0 0 0 .515-.468l.378-1.358a4.734 4.734 0 0 0-.49-4.163 4.221 4.221 0 0 0-3.361-1.647l-27.4-.356a.508.508 0 0 1-.423-.223.613.613 0 0 1-.067-.49.753.753 0 0 1 .646-.49l27.649-.356a9.9 9.9 0 0 0 8.082-6.055l1.58-4.119a.96.96 0 0 0 .059-.343l1.566.677.029.016a.464.464 0 0 0-.3.274l-1.069 3.72a4.734 4.734 0 0 0 .49 4.163 4.225 4.225 0 0 0 3.361 1.648l5.833.356a.506.506 0 0 1 .423.223.628.628 0 0 1 .067.489.751.751 0 0 1-.646.49l-6.078.356a9.869 9.869 0 0 0-8.081 6.056l-.445 1.135a.32.32 0 0 0 .312.445z" fill="#fff"/>
</svg>
