<svg xmlns="http://www.w3.org/2000/svg" width="200" height="128">
	<path d="M29.37 74.72A9.19 9.19 0 0 1 20 65.35v-.08a9.293 9.293 0 0 1 9.529-9.449 9.456 9.456 0 0 1 7.225 2.859l.159.159-2.779 3.176-.159-.159a6.451 6.451 0 0 0-4.446-1.985 5.083 5.083 0 0 0-5 5.4c0 3.1 2.144 5.479 5 5.479a6.09 6.09 0 0 0 4.605-2.064l.159-.159 2.779 2.779-.159.159a9.5 9.5 0 0 1-7.543 3.255zm22.789 0a7.362 7.362 0 0 1-7.623-7.306v-.079a7.361 7.361 0 0 1 7.623-7.3 7.361 7.361 0 0 1 7.623 7.3v.079a7.315 7.315 0 0 1-7.623 7.306zm0-10.958a3.371 3.371 0 0 0-3.415 3.573v.079a3.429 3.429 0 0 0 3.415 3.574 3.371 3.371 0 0 0 3.414-3.574v-.079a3.379 3.379 0 0 0-3.414-3.573zM66.213 74.72c-3.017 0-4.843-1.986-4.843-5.32v-9.053h4.288v7.861c0 1.668.794 2.621 2.143 2.621 1.43 0 2.224-.953 2.224-2.621v-7.861h4.288v14.134h-4.288v-1.588l-.238.239a4.955 4.955 0 0 1-3.574 1.588zm16.278 0c-3.176 0-6.431-2.462-6.431-7.306v-.079c0-3.653 2.223-7.3 6.431-7.3a5.149 5.149 0 0 1 3.809 1.503l.238.239v-6.432h4.288V74.4h-4.285v-1.586l-.238.238a5 5 0 0 1-3.812 1.668zm1.033-10.958a3.292 3.292 0 0 0-3.177 3.573v.079a3.2 3.2 0 1 0 6.353 0v-.079c-.08-2.065-1.35-3.573-3.176-3.573zM102.5 74.72a9.19 9.19 0 0 1-9.369-9.37v-.08a9.293 9.293 0 0 1 9.528-9.449 9.458 9.458 0 0 1 7.226 2.859l.079.079-3.016 2.941a6.375 6.375 0 0 0-4.367-1.905 5.082 5.082 0 0 0-5 5.4v.079c0 3.1 2.144 5.479 5 5.479a6.263 6.263 0 0 0 4.526-1.985l3.017 2.621-.079.158a9.8 9.8 0 0 1-7.545 3.173zm17.946-.318v-7.861c0-1.668-.794-2.62-2.144-2.62-1.43 0-2.224.952-2.224 2.62V74.4h-4.287V57.489L116 53.28v8.576l.238-.238a4.953 4.953 0 0 1 3.573-1.588c3.018 0 4.844 1.985 4.844 5.32v9.05zm13.1.318a7.114 7.114 0 0 1-7.384-7.306v-.079a6.977 6.977 0 0 1 6.987-7.3c3.177 0 6.909 1.985 6.909 7.623v1.27h-9.529l.079.238a3.039 3.039 0 0 0 3.1 2.144 4.268 4.268 0 0 0 3.176-1.35l.159-.079L139.5 72.1l-.08.159a7.839 7.839 0 0 1-5.872 2.461zm-.4-11.117a2.775 2.775 0 0 0-2.7 2.382l-.08.159h5.4v-.159a2.581 2.581 0 0 0-2.615-2.385zm15.569 11.117a7.189 7.189 0 0 1-7.306-7.306v-.079a7.16 7.16 0 0 1 7.385-7.3 6.9 6.9 0 0 1 5.638 2.382l.079.159-2.62 2.858-.159-.159a3.807 3.807 0 0 0-3.017-1.429 3.39 3.39 0 0 0-3.177 3.573v.08a3.277 3.277 0 0 0 3.335 3.573 4.056 4.056 0 0 0 3.018-1.429l.159-.159 2.541 2.541-.08.159a7.155 7.155 0 0 1-5.796 2.536zm16.2-.318-3.494-5.479-1.191 1.191V74.4h-4.21V55.345h4.208v9.687l4.368-4.685h5.161l-5.479 5.559 5.558 8.5zm6.432 0V60.347h4.288v2.065l.238-.4a4.154 4.154 0 0 1 3.653-1.906H180v4.367h-.4a3.606 3.606 0 0 0-2.938 1.191 5.552 5.552 0 0 0-1.032 3.494V74.4zM38.66 55.345h4.288V74.4H38.66z" fill="#0a3453"/>
</svg>
