<svg xmlns="http://www.w3.org/2000/svg" width="200" height="128">
	<path d="M22.612 51.2h-1.94l3.656-5.82h2.314L30.3 51.2h-2.166l-.671-.9h-4.254zm2.761-4.4-1.343 2.163h2.612zm5.97-1.418h5.075c1.567 0 2.686.373 2.686 2.238s-1.119 2.239-2.686 2.239h-3.134V51.2h-1.941zm4.926 3.059c.671 0 .9-.224.9-.821s-.224-.82-.9-.82h-2.985v1.64zm4.253-3.059H45.6c1.567 0 2.687.373 2.687 2.238s-1.12 2.165-2.687 2.165h-3.137v1.343h-1.941zm4.926 3.059c.671 0 .9-.224.9-.821s-.224-.82-.9-.82h-2.985v1.64zm7.164-1.567h-3.284v-1.493h8.433v1.492h-3.283V51.2h-1.941v-4.327zm6.788-1.493h2.015v5.746h-1.94zm3.507 2.91c0-2.537 1.493-3.06 4.777-3.06s4.776.523 4.776 3.06-1.493 3.06-4.776 3.06-4.774-.523-4.774-3.06zm7.463 0c0-1.492-.6-1.567-2.686-1.567s-2.612.075-2.612 1.567.6 1.642 2.686 1.642c2.015 0 2.538-.149 2.612-1.642zM39.627 64.56h-4.478a5.089 5.089 0 0 0-5-3.433c-3.507 0-5.97 2.836-5.97 6.94 0 3.806 2.388 7.015 6.045 7.015a5.219 5.219 0 0 0 5.149-3.731H40a9.806 9.806 0 0 1-9.776 7.239C24.03 78.59 20 74.037 20 68.067a10.063 10.063 0 0 1 10.224-10.448 9.307 9.307 0 0 1 9.403 6.941zm3.283-7.388h3.956v20.821h-3.881V57.172zm13.956 6.492a7.108 7.108 0 0 1 7.388 6.866v.522a7.391 7.391 0 0 1-14.776.448v-.448a7.218 7.218 0 0 1 6.94-7.388zm0 11.343c2.089 0 3.433-1.716 3.433-3.955s-1.2-3.88-3.433-3.88-3.433 1.641-3.433 3.955 1.492 3.88 3.433 3.88zm22.91 2.986H75.9v-1.717h-.075a4.413 4.413 0 0 1-4.03 2.164c-2.239 0-5-1.418-5-6.119v-8.209h3.881V71.8c0 2.014.97 3.134 2.462 3.134 1.717 0 2.762-1.194 2.762-3.508v-7.314h3.88zm17.314 0h-3.732V76.5h-.149a6.154 6.154 0 0 1-4.552 2.015c-2.687 0-6.269-2.164-6.269-7.463 0-4.4 3.06-7.388 6.567-7.388a4.757 4.757 0 0 1 4.179 2.09h.15v-8.582h3.806zm-7.165-2.911a3.717 3.717 0 0 0 3.508-3.955c0-2.314-1.493-4.1-3.433-4.1-2.388 0-3.582 2.09-3.582 4.1s1.119 3.955 3.507 3.955zm24.553 2.911h-3.732v-1.717h-.146a5.253 5.253 0 0 1-4.478 2.164c-2.686 0-6.268-2.164-6.268-7.388 0-4.477 3.059-7.313 6.567-7.313A4.654 4.654 0 0 1 110.6 65.9h.149v-1.788h3.732zm-7.165-2.986a3.661 3.661 0 0 0 3.433-3.955c0-2.313-1.492-4.03-3.433-4.03-2.388 0-3.582 2.015-3.582 3.956s1.194 4.029 3.582 4.029zm10.9-17.835h3.731v8.582h.15a5.654 5.654 0 0 1 4.552-2.015c2.686 0 6.268 2.239 6.268 7.388 0 4.552-3.209 7.313-6.567 7.313a4.864 4.864 0 0 1-4.179-2.015h-.074v1.493h-3.806zm7.09 10c-1.866 0-3.433 1.567-3.433 3.955s1.567 3.955 3.433 3.955a3.664 3.664 0 0 0 3.582-3.955c-.004-2.09-1.124-3.955-3.585-3.955zm10.149-9.627h4.1v3.731h-4.1zm.074 6.567h3.874v13.806h-3.881zm7.463-6.94h3.881v20.821h-3.881zm7.388.373h4.105v3.731h-4.105zm.075 6.567h3.88v13.806h-3.88zm6.045 0h1.641v-4.4h3.956v4.4h3.283V67.4h-3.287v5.373c0 1.641.522 2.089 1.716 2.089a5.8 5.8 0 0 0 1.642-.224v3.209a11.1 11.1 0 0 1-2.687.373c-3.433 0-4.627-1.94-4.627-5v-5.75h-1.641zm15.9 20.6h-3.657l2.538-6.866-5-13.731h4.03l2.014 5.97a28.936 28.936 0 0 1 .9 3.433h.149a29.13 29.13 0 0 1 .9-3.433l1.94-5.97H180zM74.776 43.291a1.493 1.493 0 1 1-1.492 1.493 1.5 1.5 0 0 1 1.492-1.493zm0 2.687a1.149 1.149 0 0 0 1.12-1.12 1.163 1.163 0 0 0-1.12-1.194H74.7a1.148 1.148 0 0 0-1.119 1.12 1.349 1.349 0 0 0 1.194 1.194zm.746-.374H75l-.373-.522h-.075v.518H74.1v-1.637h.672c.448 0 .6.224.6.522a.418.418 0 0 1-.373.448zm-.746-1.343h-.149v.373h.149A.2.2 0 0 0 75 44.41c0-.149 0-.149-.224-.149z" fill="#103a5e"/>
</svg>
