<svg xmlns="http://www.w3.org/2000/svg" width="200" height="128">
	<path d="M43.93 58.52h1a7.9 7.9 0 0 0 5.22-2.39 8.2 8.2 0 1 0-13.92-4.64c-.9 5-5.61 5.74-7.67 5.8a8.07 8.07 0 0 0-6.38 2.39 8.2 8.2 0 1 0 14 6.31v-.45c.2-6.12 5.48-7 7.72-7z" fill="#549abc"/>
	<circle fill="#12577e" cx="43.75" cy="81.26" r="8.18" transform="rotate(-13.28 43.78 81.28)"/>
	<path fill="#12577e" d="M66.61 69a13.6 13.6 0 0 1-1.37.1 3.09 3.09 0 0 1-2.49-.93 4.75 4.75 0 0 1 0-5.14 2.76 2.76 0 0 1 2.3-1 5.35 5.35 0 0 1 1.32.14 6.38 6.38 0 0 1 1.07.35l.84-2.84a10 10 0 0 0-1.62-.49A6.88 6.88 0 0 0 64.9 59a6.69 6.69 0 0 0-2.69.54 5.82 5.82 0 0 0-2 1.42 5.68 5.68 0 0 0-1.28 2 7.64 7.64 0 0 0-.44 2.55 11.81 11.81 0 0 0 .3 2.64A5.33 5.33 0 0 0 62 71.66a7.72 7.72 0 0 0 2.93.49 8.35 8.35 0 0 0 2-.2 5.2 5.2 0 0 0 1.51-.44l-.49-2.88a5.1 5.1 0 0 1-1.34.37zm32.88-9.56v9.48a2.94 2.94 0 0 1-.74.1 4 4 0 0 1-.78 0 1.75 1.75 0 0 1-1.66-.73 5.1 5.1 0 0 1-.44-2.45v-6.39h-3.52v6.88a8.94 8.94 0 0 0 .24 2.35 5.1 5.1 0 0 0 .88 1.81 3.88 3.88 0 0 0 1.66 1.17 7 7 0 0 0 2.65.44 18.39 18.39 0 0 0 2.93-.24 15.25 15.25 0 0 0 2.3-.49V59.44zm-11.4 1.46a5.17 5.17 0 0 0-1.91-1.32 5.75 5.75 0 0 0-2.44-.49 6.65 6.65 0 0 0-2.45.49 5.89 5.89 0 0 0-1.91 1.32 6.2 6.2 0 0 0-1.27 2.1 7.53 7.53 0 0 0-.44 2.64 7.74 7.74 0 0 0 .44 2.64 6 6 0 0 0 1.22 2.05 5.05 5.05 0 0 0 1.91 1.32 5.88 5.88 0 0 0 2.5.49 6.46 6.46 0 0 0 2.49-.49 5.05 5.05 0 0 0 1.91-1.32 5.6 5.6 0 0 0 1.22-2.05 7.53 7.53 0 0 0 .44-2.64 6.38 6.38 0 0 0-.49-2.64 5.66 5.66 0 0 0-1.22-2.1zm-2.5 7.29a2.32 2.32 0 0 1-3.72 0 4.54 4.54 0 0 1-.63-2.59 4.38 4.38 0 0 1 .63-2.55 2.32 2.32 0 0 1 3.72 0 4.38 4.38 0 0 1 .64 2.55 5.11 5.11 0 0 1-.64 2.59zm-10.91.23a1.62 1.62 0 0 1-.29-.64 4.31 4.31 0 0 1 0-.83V53.52l-3.52.58v13.6a9 9 0 0 0 .2 1.76 2.5 2.5 0 0 0 .73 1.32 3.49 3.49 0 0 0 1.52.88 8.29 8.29 0 0 0 2.49.34l.54-3a2.66 2.66 0 0 1-1-.19 1.94 1.94 0 0 1-.67-.39zm79.17-14.61a2 2 0 0 0-1.47.54 1.88 1.88 0 0 0-.64 1.51 2.07 2.07 0 0 0 .64 1.52 2.14 2.14 0 0 0 1.47.54 2 2 0 0 0 1.46-.54 1.9 1.9 0 0 0 .64-1.52 1.81 1.81 0 0 0-.64-1.51 2.12 2.12 0 0 0-1.46-.54zM165.43 69a9.55 9.55 0 0 1-1.18.1 1.66 1.66 0 0 1-1.57-.64 3.67 3.67 0 0 1-.39-1.76v-4.33h4.21v-2.94h-4.21v-3.67l-3.52.59v10.42A9.58 9.58 0 0 0 159 69a3.66 3.66 0 0 0 .78 1.66 3.82 3.82 0 0 0 1.52 1.08 6.18 6.18 0 0 0 2.34.39 7.23 7.23 0 0 0 1.91-.2 5.9 5.9 0 0 0 1.42-.43l-.49-2.74a3.61 3.61 0 0 1-1.05.24zm-51.71-9.18c-.39-.14-.78-.29-1.18-.39a5.35 5.35 0 0 0-1.32-.14 5.92 5.92 0 0 0-2.34.43 4.44 4.44 0 0 0-1.72 1.28 5.81 5.81 0 0 0-1.07 2 8.76 8.76 0 0 0-.39 2.69 7.54 7.54 0 0 0 .43 2.64 5.66 5.66 0 0 0 1.28 2 5.21 5.21 0 0 0 2 1.27 8 8 0 0 0 2.74.44 11.56 11.56 0 0 0 1.32 0l1.37-.14c.45-.1.89-.15 1.28-.25s.78-.19 1.07-.29V53.51l-3.52.59zm0 9.12a4.62 4.62 0 0 1-.72.06 5.14 5.14 0 0 1-.88 0 2.57 2.57 0 0 1-2.15-1 4.15 4.15 0 0 1-.73-2.59c0-2.25.83-3.37 2.44-3.42a3.56 3.56 0 0 1 1.08.14 2.54 2.54 0 0 1 .88.35zm66.04-6.52a4.11 4.11 0 0 0-.84-1.76 4.46 4.46 0 0 0-1.61-1.18 7.37 7.37 0 0 0-2.5-.39l-1.07.1c-.34.1-.64.15-.88.24v-5.91l-3.52.58v17.66h3.47v-9.34a2.56 2.56 0 0 1 .73-.2 5.27 5.27 0 0 1 .88-.1 1.69 1.69 0 0 1 1.61.69 4.77 4.77 0 0 1 .44 2.4v6.5H180v-7a11 11 0 0 0-.24-2.29zm-27.63 9.34h3.53V59.43h-3.53v12.33zM128.51 66a5.92 5.92 0 0 0-1.17-.87 20.24 20.24 0 0 0-1.91-.84l-.93-.39c-.24-.14-.44-.24-.59-.34a.88.88 0 0 1-.29-.29 1.07 1.07 0 0 1-.05-.39c0-.64.59-.93 1.67-.93a7.9 7.9 0 0 1 1.61.14c.49.15.93.25 1.32.39l.59-2.73-1.67-.44a10.37 10.37 0 0 0-2.15-.2 5.54 5.54 0 0 0-3.52 1 3.31 3.31 0 0 0-1.27 2.74 3.58 3.58 0 0 0 .24 1.51 4 4 0 0 0 .73 1.08 3.81 3.81 0 0 0 1.13.78 10.35 10.35 0 0 0 1.46.64 17.15 17.15 0 0 1 1.57.73.88.88 0 0 1 .54.73.72.72 0 0 1-.39.73 3.21 3.21 0 0 1-1.37.2 8.27 8.27 0 0 1-1.86-.19 9.43 9.43 0 0 1-1.81-.54l-.59 2.84a10.92 10.92 0 0 0 1.52.49 11.16 11.16 0 0 0 2.74.29 6.82 6.82 0 0 0 3.87-.93 3.17 3.17 0 0 0 1.36-2.79 5.8 5.8 0 0 0-.19-1.37 2.63 2.63 0 0 0-.59-1.05zm19.42-5.24a4 4 0 0 0-1.52-1.18 7 7 0 0 0-2.44-.39 6.46 6.46 0 0 0-1.81.29 6.39 6.39 0 0 0-1.72.83 4.83 4.83 0 0 0-1.36-.83 5.49 5.49 0 0 0-2.16-.34 13 13 0 0 0-1.37 0 6.77 6.77 0 0 0-1.37.14c-.44.1-.88.15-1.27.25s-.73.15-1 .24v12h3.52v-9.5a3.38 3.38 0 0 1 .69-.1 3.45 3.45 0 0 1 .69-.05 1.53 1.53 0 0 1 1.46.69 4.77 4.77 0 0 1 .44 2.4h-.08v6.56h3.51V65a10.46 10.46 0 0 0-.05-1.28 4.45 4.45 0 0 0-.19-1.12 2.39 2.39 0 0 1 .83-.34 2.88 2.88 0 0 1 .78-.15 1.57 1.57 0 0 1 1.47.68 4.9 4.9 0 0 1 .44 2.4v6.59h3.52v-7a10.89 10.89 0 0 0-.2-2.3 4 4 0 0 0-.81-1.72z"/>
</svg>
