<svg xmlns="http://www.w3.org/2000/svg" viewBox="50.77 8.02 298.22 224.72">
	<defs>
		<style>
			.cls-4{fill:#3a3b8e;opacity:.5}.cls-5,.cls-6{fill:#565fab;opacity:.3}.cls-6{fill:#7984c0}
		</style>
	</defs>
	<path fill="#1e0e41" d="M56.597 210.613v-.119a16.539 16.539 0 0 1 16.888-16.769c4.867 0 8.293 1.322 10.998 3.606a4.05 4.05 0 0 1 1.442 3.127 4.105 4.105 0 0 1-4.147 4.086 4.297 4.297 0 0 1-2.644-.901 8.707 8.707 0 0 0-5.71-2.044c-4.568 0-7.812 4.027-7.812 8.774v.121c0 4.928 3.185 8.894 8.172 8.894a9.263 9.263 0 0 0 6.011-2.223 4.246 4.246 0 0 1 2.464-.842 3.876 3.876 0 0 1 2.523 6.792c-2.704 2.463-6.13 4.146-11.417 4.146a16.448 16.448 0 0 1-16.768-16.648zm34.496-23.739a4.568 4.568 0 0 1 9.135 0v35.459a4.568 4.568 0 0 1-9.135 0zm13.161 23.739v-.119c0-9.257 7.451-16.769 17.488-16.769 9.977 0 17.369 7.393 17.369 16.648v.121c0 9.255-7.453 16.767-17.49 16.767-9.975 0-17.367-7.39-17.367-16.648zm25.841 0v-.119c0-4.75-3.425-8.895-8.473-8.895-5.229 0-8.354 4.027-8.354 8.774v.121c0 4.748 3.426 8.894 8.474 8.894 5.228 0 8.353-4.027 8.353-8.775zm43.09 11.72a4.567 4.567 0 0 1-9.134 0v-.361c-2.104 2.705-4.808 5.17-9.436 5.17-6.91 0-10.938-4.569-10.938-11.96v-16.648a4.567 4.567 0 1 1 9.135 0v13.762c0 4.327 2.044 6.552 5.529 6.552 3.486 0 5.71-2.225 5.71-6.552v-13.762a4.567 4.567 0 1 1 9.134 0zm38.763 0a4.567 4.567 0 0 1-9.135 0v-.42a11.832 11.832 0 0 1-10.036 5.229c-7.512 0-14.664-5.89-14.664-16.648v-.121c0-10.757 7.032-16.648 14.664-16.648a12.37 12.37 0 0 1 10.036 4.81v-11.66a4.567 4.567 0 0 1 9.135 0zm-24.7-11.96v.121c0 5.35 3.606 8.894 7.873 8.894s7.812-3.545 7.812-8.894v-.121c0-5.349-3.545-8.896-7.812-8.896s-7.874 3.488-7.874 8.896zm29.867-23.499a4.568 4.568 0 0 1 9.135 0v12.02c2.103-2.704 4.808-5.169 9.435-5.169 6.912 0 10.938 4.57 10.938 11.96v16.648a4.567 4.567 0 0 1-9.135 0V208.57c0-4.329-2.043-6.552-5.53-6.552-3.484 0-5.708 2.223-5.708 6.552v13.762a4.568 4.568 0 0 1-9.135 0zm50.902 40.387c-9.675 0-16.827-6.792-16.827-16.648v-.119c0-9.195 6.55-16.769 15.926-16.769 10.757 0 15.506 8.836 15.506 15.507a4.167 4.167 0 0 1-4.268 4.386h-18.089a7.47 7.47 0 0 0 7.872 6.312 10.55 10.55 0 0 0 6.491-2.164 3.4 3.4 0 0 1 2.224-.722 3.493 3.493 0 0 1 3.546 3.606 3.587 3.587 0 0 1-1.202 2.705 16.695 16.695 0 0 1-11.179 3.906zm5.89-19.351c-.541-4.089-2.944-6.853-6.79-6.853-3.788 0-6.252 2.705-6.973 6.853zm13.881-9.376a4.568 4.568 0 1 1 9.136 0v1.44c1.322-3.123 3.485-6.009 6.19-6.009a4.413 4.413 0 0 1 1.021 8.715c-4.627 1.082-7.211 4.629-7.211 11.119v8.534a4.568 4.568 0 0 1-9.136 0zm20.675 12.079v-.119c0-9.257 7.451-16.769 17.487-16.769 9.978 0 17.37 7.393 17.37 16.648v.121c0 9.255-7.453 16.767-17.49 16.767-9.975 0-17.367-7.39-17.367-16.648zm25.842 0v-.119c0-4.75-3.427-8.895-8.475-8.895-5.228 0-8.353 4.027-8.353 8.774v.121c0 4.748 3.425 8.894 8.473 8.894 5.23 0 8.355-4.027 8.355-8.775zM215.975 56.79c6.143 6.285 5.977 7.224 9.293 10.81 4.748 5.122 9.842 5.785 15.768 4.074a15.996 15.996 0 0 0 11.007-19.781c-2.554-9.4-11.832-28.212-39.07-35.565-30.684-8.28-58.866 4.376-74.56 29.786-16.284 26.356-7.464 58.367 3.269 72.226 21.753 28.076 54.577 30.781 78.668 26.837 35.37-5.795 50.922-30.8 50.922-30.8s-20.687 22.067-58.848 18.603c35.97-4.455 59.765-25.313 80.808-60.988-21.219 26.634-51.84 47.26-86.299 43.6-34.457-3.654-40.274-22.086-42.116-28.655-2.428-8.643-2.012-27.965 19.024-36.399a30.46 30.46 0 0 1 32.135 6.252z"/>
	<path fill="#26215a" d="M237.782 112.517a76.7 76.7 0 0 1-30.849 3.076c-34.457-3.654-40.274-22.086-42.117-28.655-2.427-8.643-2.01-27.965 19.025-36.399a30.46 30.46 0 0 1 32.135 6.252c6.142 6.285 5.976 7.224 9.292 10.81 4.747 5.122 9.842 5.785 15.768 4.074a15.996 15.996 0 0 0 11.007-19.781c-2.554-9.4-11.832-28.212-39.07-35.565-30.684-8.28-58.866 4.376-74.56 29.786-16.284 26.356-7.464 58.367 3.269 72.226 0 0 7.34-.433 36.361 8.628 35.456 11.064 59.739-14.452 59.739-14.452z"/>
	<path fill="#2d2c70" d="M206.933 115.593c-34.457-3.654-40.274-22.086-42.117-28.655-2.427-8.643-2.01-27.965 19.025-36.399a30.46 30.46 0 0 1 32.135 6.252c6.142 6.285 5.976 7.224 9.292 10.81 4.747 5.122 9.842 5.785 15.768 4.074a15.996 15.996 0 0 0 11.007-19.781c-2.554-9.4-11.832-28.212-39.07-35.565-30.684-8.28-58.866 4.376-74.56 29.786a61.568 61.568 0 0 0-8.976 33.038s8.38-.11 20.85 19.296c17.886 27.821 56.646 17.144 56.646 17.144z"/>
	<path d="M172.133 100.774a33.413 33.413 0 0 1-7.317-13.836c-2.427-8.643-2.01-27.965 19.025-36.399a30.46 30.46 0 0 1 32.135 6.252c6.142 6.285 5.976 7.224 9.292 10.81 4.747 5.122 9.842 5.785 15.768 4.074a15.996 15.996 0 0 0 11.007-19.781c-2.554-9.4-11.832-28.212-39.07-35.565-30.684-8.28-58.866 4.376-74.56 29.786a58.736 58.736 0 0 0-5.838 12.544s11.9-1.33 16.012 18.614c3.526 17.097 23.546 23.5 23.546 23.5z" class="cls-4"/>
	<path d="M167.688 94.37a36.629 36.629 0 0 1-2.872-7.432c-2.427-8.643-2.01-27.965 19.025-36.399a30.46 30.46 0 0 1 32.135 6.252c6.142 6.285 5.976 7.224 9.292 10.81 4.747 5.122 9.842 5.785 15.768 4.074a15.996 15.996 0 0 0 11.007-19.781c-2.554-9.4-11.832-28.212-39.07-35.565-26.082-7.039-50.365 1.055-66.696 19.25 0 0 6.525 1.845 7.329 25.163.637 18.302 14.082 33.628 14.082 33.628z" class="cls-4"/>
	<path d="M164.077 83.24c-1.26-9.604 1.358-25.322 19.764-32.701a30.46 30.46 0 0 1 32.135 6.252c6.143 6.285 5.976 7.224 9.292 10.81 4.748 5.122 9.842 5.785 15.768 4.074a15.996 15.996 0 0 0 11.007-19.781c-2.554-9.4-11.832-28.212-39.07-35.565a68.874 68.874 0 0 0-27.24-1.945s-23.199 14.582-26.622 37.755c-2.29 15.509 4.966 31.1 4.966 31.1z" class="cls-4"/>
	<path d="M170.163 41.232a35.762 35.762 0 0 0-3.326 24.293c2.857-5.86 8.073-11.404 17.004-14.986a30.46 30.46 0 0 1 32.135 6.252c6.142 6.285 5.976 7.224 9.292 10.81 4.747 5.122 9.842 5.785 15.768 4.074a15.996 15.996 0 0 0 11.007-19.781c-2.554-9.4-11.832-28.212-39.07-35.565a71.557 71.557 0 0 0-17.672-2.52s-14.063 6.62-25.138 27.423z" class="cls-4"/>
	<path d="M172.01 58.196a34.068 34.068 0 0 1 11.831-7.657 30.46 30.46 0 0 1 32.135 6.252c6.142 6.285 5.976 7.224 9.292 10.81 4.747 5.122 9.842 5.785 15.768 4.074a15.996 15.996 0 0 0 11.007-19.781c-2.394-8.79-10.662-25.821-34.016-34.001 0 0-12.939-.647-28.031 13.041-15.084 13.688-17.986 27.262-17.986 27.262z" class="cls-5"/>
	<path d="M175.875 54.877a36.858 36.858 0 0 1 7.966-4.338 30.46 30.46 0 0 1 32.135 6.252c6.142 6.285 5.976 7.224 9.292 10.81 4.747 5.122 9.842 5.785 15.768 4.074a15.996 15.996 0 0 0 11.007-19.781 47.556 47.556 0 0 0-12.314-20.705s-11.717-6.59-33.687 2.244c-20.989 8.441-30.167 21.444-30.167 21.444z" class="cls-5"/>
	<path d="M195.301 48.383a30.692 30.692 0 0 1 20.675 8.408c6.142 6.285 5.976 7.224 9.292 10.81 4.748 5.122 9.842 5.785 15.768 4.074a15.996 15.996 0 0 0 11.007-19.781 30.595 30.595 0 0 0-.362-1.234s-3.827-6.784-27.658-6.784c-13.902 0-28.722 4.507-28.722 4.507z" class="cls-5"/>
	<path d="M212.662 54.01a23.301 23.301 0 0 1 3.314 2.781c6.142 6.285 5.976 7.224 9.292 10.81 4.748 5.122 9.842 5.785 15.768 4.074a16.244 16.244 0 0 0 11.56-13.662s-5.37-6.96-19.963-7.795c-14.6-.832-19.971 3.792-19.971 3.792z" class="cls-5"/>
	<path d="M234.24 56.299c-6.768.017-16.18 2.677-16.18 2.677 4.073 4.386 4.322 5.503 7.208 8.624 4.748 5.123 9.842 5.786 15.768 4.075a16.285 16.285 0 0 0 11.499-13.127 69.217 69.217 0 0 0-18.295-2.25z" class="cls-6"/>
	<path d="M224.023 66.19c.359.433.77.892 1.245 1.41 4.748 5.123 9.847 5.983 15.778 4.272A16.847 16.847 0 0 0 251.7 61.847s-4.074-1.797-13.048 2.004c-5.575 2.36-14.63 2.34-14.63 2.34z" class="cls-6"/>
</svg>
