<svg data-name="Layer 1" xmlns="http://www.w3.org/2000/svg" xmlns:xlink="http://www.w3.org/1999/xlink" viewBox="0 0 500 500">
	<defs>
		<linearGradient id="a" x1="98.01" y1="275.91" x2="258.86" y2="275.91" gradientUnits="userSpaceOnUse">
			<stop offset=".29" stop-color="#0966fa"/>
			<stop offset="1" stop-color="#2ad2ff"/>
		</linearGradient>
		<linearGradient id="b" x1="379.49" y1="319.49" x2="304.76" y2="192.41" xlink:href="#a"/>
		<linearGradient id="c" x1="273.35" y1="69.28" x2="197.1" y2="196.37" xlink:href="#a"/>
	</defs>
	<path d="M68.72 443.6H35.81a13.35 13.35 0 0 1-13.35-13.35v-34.76a13.35 13.35 0 0 1 13.35-13.36h32.91v8.59h-34a2 2 0 0 0-2 2v40.11a2 2 0 0 0 2 2h34Z"/>
	<path d="M89.91 443.6h-9.63v-61.47h9.63Z"/>
	<path d="M132.18 443.6H113.7a13.35 13.35 0 0 1-13.35-13.35v-35.16h9.26v38.36a2 2 0 0 0 2 2h22.29a2 2 0 0 0 2-2v-38.36h9.63v35.16a13.35 13.35 0 0 1-13.35 13.35Z"/>
	<path d="M186 443.6h-33v-8.14h34.66a2 2 0 0 0 2-2v-8.21a2 2 0 0 0-2-2h-21.3A13.36 13.36 0 0 1 153 409.88v-1.43a13.36 13.36 0 0 1 13.35-13.36h32.57v8.52h-34.65a2 2 0 0 0-2 2v7.48a2 2 0 0 0 2 2H186a13.35 13.35 0 0 1 13.35 13.35v1.81A13.35 13.35 0 0 1 186 443.6Z"/>
	<path d="M203.9 395.09h5.4a2 2 0 0 0 2-2v-9.48h9.26v9.48a2 2 0 0 0 2 2h16.89V404h-16.89a2 2 0 0 0-2 2v27.1a2 2 0 0 0 2 2h16.52v8.51h-14.42a13.36 13.36 0 0 1-13.36-13.35V406a2 2 0 0 0-2-2h-5.4Z"/>
	<path d="M293.11 443.6H259.8a13.35 13.35 0 0 1-13.35-13.35v-21.8a13.36 13.36 0 0 1 13.35-13.36h20a13.36 13.36 0 0 1 13.35 13.36v.69a13.36 13.36 0 0 1-13.35 13.36h-22.09a2 2 0 0 0-2 2v8.58a2 2 0 0 0 2 2h35.4Zm-9.26-31.6v-6a2 2 0 0 0-2-2h-24.14a2 2 0 0 0-2 2v6a2 2 0 0 0 2 2h24.14a2 2 0 0 0 2-2Z"/>
	<path d="M332.66 404h-19.84a2 2 0 0 0-2 2v37.6h-9.62v-35.15a13.35 13.35 0 0 1 13.35-13.36h18.12Z"/>
	<path d="M382.66 443.6h-9.26V406a2 2 0 0 0-2-2h-21.17a2 2 0 0 0-2 2v37.6H339v-35.15a13.35 13.35 0 0 1 13.35-13.36h17a13.36 13.36 0 0 1 13.35 13.36Z"/>
	<path d="M438.14 443.6h-33.31a13.35 13.35 0 0 1-13.35-13.35v-21.8a13.36 13.36 0 0 1 13.35-13.36h19.95a13.36 13.36 0 0 1 13.36 13.36v.69a13.36 13.36 0 0 1-13.36 13.36h-22a2 2 0 0 0-2 2v8.58a2 2 0 0 0 2 2h35.4Zm-9.26-31.6v-6a2 2 0 0 0-2-2h-24.14a2 2 0 0 0-2 2v6a2 2 0 0 0 2 2h24.14a2 2 0 0 0 2-2Z"/>
	<path d="M442 395.09h5.4a2 2 0 0 0 2-2v-9.48h9.26v9.48a2 2 0 0 0 2 2h16.88V404h-16.88a2 2 0 0 0-2 2v27.1a2 2 0 0 0 2 2h16.51v8.51h-14.42a13.35 13.35 0 0 1-13.35-13.35V406a2 2 0 0 0-2-2H442Z"/>
	<path d="m139.45 225.36-36.76 21.23a9.34 9.34 0 0 0-4.68 8.1v42.45a9.34 9.34 0 0 0 4.68 8.1l36.76 21.22a9.35 9.35 0 0 0 9.35 0l39.27-22.67a9.37 9.37 0 0 1 4.68-1.25h56.75a9.36 9.36 0 0 0 9.36-9.36v-34.53a9.36 9.36 0 0 0-9.36-9.36h-56.75a9.38 9.38 0 0 1-4.68-1.26l-39.26-22.67a9.37 9.37 0 0 0-9.36 0Z" style="fill:url(#a)"/>
	<path d="m354.64 224.09-24.42-39.27a9.38 9.38 0 0 0-12.63-3.16l-29.9 17.26a9.37 9.37 0 0 0-3.27 13.08l23.92 38.47a9.28 9.28 0 0 1 1.42 4.94v45.18a9.34 9.34 0 0 0 4.68 8.1l36.76 21.23a9.35 9.35 0 0 0 9.35 0l36.76-21.23a9.34 9.34 0 0 0 4.68-8.1v-42.48a9.34 9.34 0 0 0-4.68-8.1l-39.41-22.76a9.31 9.31 0 0 1-3.26-3.16Z" style="fill:url(#b)"/>
	<path d="m252 160.3 39.43-22.77a9.37 9.37 0 0 0 4.68-8.1V87a9.39 9.39 0 0 0-4.68-8.11l-36.75-21.24a9.37 9.37 0 0 0-9.36 0l-36.76 21.22a9.39 9.39 0 0 0-4.68 8.13v45.15a9.34 9.34 0 0 1-1.44 5L177.36 177a9.35 9.35 0 0 0 3.24 13.09l29.9 17.26a9.35 9.35 0 0 0 12.6-3.12l25.67-40.79a9.31 9.31 0 0 1 3.23-3.14Z" style="fill:url(#c)"/>
</svg>
