<?xml version="1.0" standalone="no"?>
<!DOCTYPE svg PUBLIC "-//W3C//DTD SVG 20010904//EN"
 "http://www.w3.org/TR/2001/REC-SVG-20010904/DTD/svg10.dtd">
<svg version="1.0" xmlns="http://www.w3.org/2000/svg"
 width="910.000000pt" height="912.000000pt" viewBox="0 0 910.000000 912.000000"
 preserveAspectRatio="xMidYMid meet">
<metadata>
Created by potrace 1.16, written by Peter Selinger 2001-2019
</metadata>
<g transform="translate(0.000000,912.000000) scale(0.100000,-0.100000)"
fill="#000000" stroke="none">
<path d="M0 4560 l0 -4560 4550 0 4550 0 0 4560 0 4560 -4550 0 -4550 0 0
-4560z m5090 3985 l525 -525 -263 0 -262 0 0 -930 c0 -511 -4 -930 -9 -930 -4
0 -50 21 -102 46 -52 26 -122 59 -156 75 -35 16 -93 43 -130 60 -79 37 -145
46 -198 29 -33 -11 -180 -79 -384 -179 -36 -17 -68 -31 -73 -31 -4 0 -8 419
-8 930 l0 930 -262 0 -263 0 525 525 c289 289 527 525 530 525 3 0 241 -236
530 -525z m-469 -2694 c34 -34 36 -64 15 -203 -14 -94 -12 -131 10 -149 8 -6
14 -20 14 -30 0 -15 7 -19 33 -19 34 0 215 -44 245 -59 9 -5 48 -23 86 -41 94
-43 189 -105 263 -174 35 -32 64 -52 68 -46 3 5 20 10 36 10 25 0 49 18 132
100 100 98 103 100 149 100 38 0 50 -5 67 -26 23 -30 27 -64 9 -97 -13 -25
-23 -33 -136 -104 -94 -59 -112 -75 -112 -98 0 -9 -7 -23 -15 -31 -12 -13 -8
-26 34 -107 95 -180 139 -375 128 -562 -5 -81 -3 -94 11 -99 10 -3 28 -14 42
-25 19 -16 54 -24 148 -34 150 -17 175 -31 180 -99 2 -34 -2 -48 -17 -62 -31
-28 -88 -31 -156 -6 -143 51 -189 62 -207 51 -10 -6 -26 -11 -35 -11 -13 0
-27 -21 -47 -73 -77 -189 -206 -352 -375 -473 l-68 -49 4 -45 c5 -56 14 -76
80 -174 45 -67 53 -85 53 -126 0 -59 -24 -85 -80 -85 -61 0 -83 28 -125 155
-30 92 -55 138 -90 164 -18 14 -34 23 -37 21 -19 -19 -277 -65 -368 -65 -74 0
-227 24 -312 49 l-67 19 -38 -37 c-23 -22 -45 -57 -55 -86 -32 -97 -41 -120
-60 -161 -30 -64 -92 -83 -142 -43 -21 16 -26 29 -26 64 0 46 8 66 56 135 56
81 72 117 75 169 l3 51 -60 41 c-85 60 -197 172 -260 261 -51 72 -144 251
-144 277 0 6 -9 11 -21 11 -11 0 -29 5 -40 10 -14 8 -49 1 -154 -34 -113 -37
-141 -43 -163 -35 -46 18 -62 39 -62 83 0 69 38 88 204 105 76 8 106 15 125
31 15 11 33 23 42 26 15 5 16 19 11 110 -10 212 51 448 161 615 16 23 16 28 2
39 -8 7 -15 20 -15 29 -1 28 -22 47 -119 105 -101 62 -112 70 -129 103 -18 32
-14 67 9 97 17 21 29 26 66 26 43 0 48 -3 138 -92 105 -103 106 -103 158 -111
33 -5 42 -2 70 26 17 18 50 46 72 62 22 16 42 32 45 35 22 23 160 95 255 134
59 24 194 56 238 56 29 0 37 4 37 19 0 10 7 25 16 32 17 14 17 15 -2 241 -6
76 -6 77 24 107 41 41 83 42 123 2z m-2675 -881 c800 0 845 -1 840 -17 -12
-43 -31 -125 -56 -238 -5 -22 -20 -87 -34 -145 -13 -58 -34 -147 -45 -197 -54
-239 -64 -281 -77 -330 -8 -28 -14 -70 -14 -92 l0 -41 -730 0 -730 0 0 -262 0
-263 -527 527 -528 528 525 525 525 525 3 -260 2 -260 846 0z m6601 -1057
l-527 -528 0 263 0 262 -730 0 -730 0 0 39 c0 21 -11 81 -23 132 -13 52 -29
119 -36 149 -28 130 -36 162 -85 370 -19 80 -44 188 -56 240 -12 52 -24 103
-26 113 -5 16 40 17 840 17 l846 0 0 262 0 263 527 -528 528 -527 -528 -527z
m-3457 -2118 l0 -705 262 0 263 0 -528 -527 -527 -528 -527 528 -528 527 263
0 262 0 0 705 0 705 530 0 530 0 0 -705z"/>
<path d="M4390 5210 c-108 -20 -211 -63 -315 -133 -75 -51 -111 -84 -102 -93
4 -4 85 -63 179 -130 194 -139 223 -149 257 -94 14 25 19 61 24 193 4 89 10
186 13 215 4 29 3 51 -2 51 -5 -1 -29 -5 -54 -9z"/>
<path d="M4674 5157 c3 -34 9 -133 13 -220 5 -134 9 -162 25 -183 25 -31 65
-31 109 -1 76 53 286 201 306 217 l23 18 -43 39 c-93 86 -268 167 -401 187
l-39 5 7 -62z"/>
<path d="M3796 4763 c-58 -117 -96 -273 -96 -398 0 -78 1 -85 18 -77 9 5 60
21 112 36 147 40 160 44 233 67 103 32 132 76 84 129 -21 24 -160 151 -236
216 -19 16 -44 39 -57 52 -13 12 -25 22 -28 22 -3 0 -16 -21 -30 -47z"/>
<path d="M5239 4767 c-25 -23 -68 -62 -96 -87 -193 -174 -193 -173 -193 -203
0 -50 25 -63 225 -118 22 -6 51 -15 65 -19 14 -4 45 -13 70 -20 25 -7 55 -16
68 -21 13 -5 27 -9 32 -9 16 0 12 144 -6 223 -25 116 -94 297 -112 297 -4 0
-28 -20 -53 -43z"/>
<path d="M4457 4457 c-32 -44 -37 -57 -32 -87 14 -81 23 -95 78 -121 l54 -25
56 25 c60 26 64 31 78 105 9 48 8 50 -31 103 l-41 53 -62 -1 -62 0 -38 -52z"/>
<path d="M4887 4130 c-30 -24 -35 -59 -14 -100 7 -14 28 -63 46 -110 18 -47
42 -104 52 -128 11 -24 27 -62 36 -85 22 -56 26 -60 49 -40 10 10 41 36 68 57
26 21 74 73 107 114 66 83 137 218 123 232 -5 5 -41 14 -79 20 -39 6 -95 15
-125 20 -30 5 -82 14 -115 19 -33 5 -74 13 -90 16 -23 5 -37 1 -58 -15z"/>
<path d="M4095 4129 c-27 -4 -77 -13 -110 -18 -33 -6 -90 -15 -126 -20 -90
-14 -98 -18 -91 -44 27 -103 176 -292 291 -369 35 -24 35 -24 50 20 8 20 24
60 36 87 13 28 38 88 56 135 17 47 36 90 40 95 4 6 10 26 14 47 6 29 3 40 -14
57 -23 23 -56 25 -146 10z"/>
<path d="M4517 3950 c-15 -12 -27 -25 -27 -29 0 -5 -18 -41 -41 -82 -23 -41
-62 -112 -86 -159 -25 -47 -50 -89 -54 -94 -21 -23 -5 -35 69 -52 102 -23 263
-23 365 0 73 17 89 28 68 52 -4 5 -29 47 -54 94 -24 47 -63 118 -86 159 -23
41 -41 77 -41 81 0 13 -35 38 -60 45 -18 4 -34 0 -53 -15z"/>
</g>
</svg>
