<?xml version="1.0" encoding="UTF-8" standalone="no"?>
<!-- Created with Inkscape (http://www.inkscape.org/) -->

<svg
   version="1.1"
   id="svg2"
   width="910.49774"
   height="912"
   viewBox="0 0 910.49774 912"
   sodipodi:docname="cluster-autoscaler.svg"
   inkscape:version="1.1.2 (0a00cf5339, 2022-02-04)"
   xmlns:inkscape="http://www.inkscape.org/namespaces/inkscape"
   xmlns:sodipodi="http://sodipodi.sourceforge.net/DTD/sodipodi-0.dtd"
   xmlns="http://www.w3.org/2000/svg"
   xmlns:svg="http://www.w3.org/2000/svg">
  <defs
     id="defs6" />
  <sodipodi:namedview
     id="namedview4"
     pagecolor="#ffffff"
     bordercolor="#666666"
     borderopacity="1.0"
     inkscape:pageshadow="2"
     inkscape:pageopacity="0.0"
     inkscape:pagecheckerboard="0"
     showgrid="false"
     fit-margin-top="0"
     fit-margin-left="0"
     fit-margin-right="0"
     fit-margin-bottom="0"
     inkscape:zoom="0.95723684"
     inkscape:cx="456"
     inkscape:cy="455.47766"
     inkscape:window-width="2558"
     inkscape:window-height="1438"
     inkscape:window-x="2422"
     inkscape:window-y="2160"
     inkscape:window-maximized="1"
     inkscape:current-layer="g8" />
  <g
     inkscape:groupmode="layer"
     inkscape:label="Image"
     id="g8"
     transform="translate(1.0865064,-0.0576437)">
    <g
       id="g84"
       transform="translate(-1.0865064,0.0576437)">
      <path
         style="fill:#fefefe"
         d="M 0,456 V 0 H 455 910 V 233.74659 467.49318 L 855,412.5 800,357.50682 V 385.25341 413 h -83.27012 -83.27013 l -2.32806,-10.25 c -8.67134,-38.17824 -10.88689,-46.61784 -13.23572,-50.41832 -2.9653,-4.79796 -7.4313,-8.16684 -16.38989,-12.36354 C 597.10274,337.90537 586.75,332.96971 578.5,329 c -8.25,-3.96971 -18.6,-8.91971 -23,-11 -4.4,-2.08029 -14.525,-6.90707 -22.5,-10.72618 -7.975,-3.8191 -16.1875,-7.74435 -18.25,-8.72276 L 511,296.77212 V 204.38606 112 h 27.74887 27.74887 L 511.24887,56.751131 456,1.5022624 400.75113,56.751131 345.50226,112 H 373.25113 401 v 92.33564 92.33563 l -14.04059,6.74249 c -30.86374,14.8212 -63.23077,30.29111 -75.48907,36.08021 -15.93292,7.52448 -18.86839,11.42902 -23.31059,31.00603 -1.6224,7.15 -4.45955,19.6365 -6.30478,27.74779 L 278.5,412.99557 195.25,412.99779 112,413 V 385.25113 357.50226 L 56.751131,412.75113 1.5022624,468 56.751131,523.24887 112,578.49774 V 550.74887 523 h 72.29911 72.29911 l 1.25027,3.45756 c 0.68765,1.90166 10.57789,15.06416 21.9783,29.25 11.40042,14.18584 33.74135,41.99244 49.64651,61.79244 15.90516,19.8 29.84282,36.83939 30.97258,37.86531 6.3884,5.8012 13.21219,7.60707 28.80412,7.62282 L 401,663 v 69 69 H 373.25113 345.50226 L 400.75113,856.24887 456,911.49774 511.24887,856.24887 566.49774,801 H 538.74887 511 v -68.9041 -68.90411 l 13.75,-0.45392 c 7.5625,-0.24965 15.35441,-0.96602 17.31535,-1.59191 5.85349,-1.86833 11.01358,-7.16227 29.67236,-30.44197 9.76926,-12.18867 18.51862,-23.07084 19.44302,-24.1826 20.77806,-24.98942 60.36362,-75.21228 62.05515,-78.7304 l 2.26412,-4.70901 72.25,-0.041 L 800,523 v 27.74659 27.74659 L 855,523.5 910,468.50682 V 690.25341 912 H 455 0 Z m 389.73616,153.75 c -0.90536,-0.6875 -2.12011,-2.52664 -2.69945,-4.08698 -1.30886,-3.52516 0.43295,-7.77328 7.80733,-19.04133 2.83578,-4.33306 5.19481,-8.38306 5.24228,-9 0.80742,-10.49163 1.04026,-9.84605 -4.91291,-13.62169 -7.21688,-4.57712 -21.64867,-18.78916 -27.41746,-27 -4.77433,-6.79538 -11.01458,-18.54825 -13.18103,-24.82508 -1.19371,-3.45853 -1.59358,-3.72462 -6.79077,-4.51899 -4.89778,-0.74861 -6.5268,-0.48611 -14.40326,2.32094 -14.28478,5.09087 -15.81799,5.40205 -19.03029,3.86244 -4.06813,-1.9498 -5.88,-6.147 -4.30012,-9.96118 1.73809,-4.19612 4.85797,-5.38685 17.88107,-6.8245 C 339.1599,495.81412 344,494.53503 344,492.80726 c 0,-0.47944 0.99493,-1.23976 2.21095,-1.68959 2.14465,-0.79336 2.20295,-1.20466 1.94428,-13.71778 -0.42011,-20.32245 4.67113,-40.42856 14.35265,-56.681 3.10539,-5.21302 3.39541,-6.19351 2.05403,-6.94418 C 363.70286,413.29396 363,412.04119 363,410.99078 c 0,-2.55834 -4.03967,-6.17491 -12.5,-11.19079 -12.18173,-7.22219 -15.1782,-11.2631 -12.85034,-17.3294 0.98529,-2.56764 6.15904,-4.38584 9.63958,-3.38764 1.62659,0.4665 7.27965,5.04842 12.60934,10.22012 8.41662,8.16713 10.20984,9.44813 13.92321,9.9462 3.85851,0.51754 4.61363,0.24238 7.97027,-2.90428 15.08704,-14.14321 35.18447,-24.35373 53.8205,-27.34355 C 446.27761,367.29043 447,367.06486 447,365.44576 c 0,-0.83387 0.73623,-2.63975 1.63606,-4.01307 1.47942,-2.25788 1.51131,-3.8267 0.33307,-16.38558 -1.18913,-12.67512 -1.15623,-14.11261 0.37659,-16.452 3.27657,-5.00067 10.96957,-4.51069 13.54497,0.8627 1.15394,2.40762 1.19735,4.73919 0.25088,13.47674 -1.51129,13.95193 -1.44326,17.57018 0.35843,19.06545 0.825,0.68469 1.5,2.04164 1.5,3.01546 0,1.93954 1.90949,2.98454 5.45356,2.98454 5.28562,0 22.43611,5.27191 31.88365,9.80075 9.92197,4.75627 23.27708,13.97321 29.03492,20.03827 2.11458,2.2274 3.30151,2.79543 4.5,2.15358 0.89533,-0.47949 2.93654,-1.15041 4.53602,-1.49094 1.82006,-0.38749 6.53129,-4.1296 12.59185,-10.00166 5.32604,-5.16038 10.8467,-9.6744 12.26813,-10.03116 5.89955,-1.48069 11.2017,4.44956 9.16252,10.24792 -0.99624,2.8328 -3.60131,4.92304 -16.93065,13.58469 -4.81064,3.12604 -8.14083,5.99589 -8.35324,7.19855 -0.19428,1.1 -1.02228,2.75518 -1.83999,3.67818 -1.33309,1.50473 -1.12514,2.2952 2.01191,7.64775 9.71554,16.57705 14.18132,33.85828 14.18132,54.87746 0,13.75903 0.0704,14.23547 2.25,15.22856 1.2375,0.56385 2.25,1.44992 2.25,1.96906 0,1.52714 5.7851,2.93673 16.93637,4.1267 11.86373,1.266 15.26542,2.63104 17.00156,6.82244 1.63763,3.95358 -0.64662,8.50405 -5.03719,10.03461 -2.70543,0.94312 -4.40012,0.65908 -11.78038,-1.97443 -9.72463,-3.47006 -18.82571,-5.87165 -19.5409,-5.15645 -0.26288,0.26288 -1.92144,0.77318 -3.68569,1.13401 -2.59594,0.53093 -3.46367,1.39533 -4.54971,4.53229 -6.78227,19.59013 -23.81987,41.1647 -41.68569,52.78627 -4.43866,2.88731 -4.56109,3.29184 -3.7572,12.41524 0.0543,0.61694 2.41754,4.66694 5.25151,9 7.19259,10.99728 8.8363,14.92995 7.77981,18.61371 -1.05216,3.66865 -3.56595,5.69076 -7.12673,5.7328 -4.82881,0.057 -7.54705,-3.61631 -11.7538,-15.88354 -3.34234,-9.74655 -4.51657,-11.96559 -8.0323,-15.17928 l -4.11768,-3.76393 -5.56951,1.91619 c -18.69408,6.43171 -44.01782,6.41038 -64.04346,-0.0539 l -6.21099,-2.00492 -4.36896,4.25061 c -3.74744,3.64593 -4.84899,5.74432 -7.7433,14.75061 -3.77006,11.73141 -6.89086,16 -11.69771,16 -1.58718,0 -3.62654,-0.5625 -4.53189,-1.25 z m 75.94148,-48.79619 c 4.3023,-0.57541 10.21213,-1.7209 13.13295,-2.54555 l 5.3106,-1.49936 -3.45528,-6.20445 C 478.76551,547.292 475.97208,542.25 474.45828,539.5 460.90393,514.87682 460.99673,515 456,515 c -2.25837,0 -4.29017,0.67896 -5.23686,1.75 -0.85077,0.9625 -6.15385,10.075 -11.78464,20.25 -5.63079,10.175 -10.41597,18.81317 -10.63375,19.19593 -0.54545,0.9587 5.61675,2.69901 15.15525,4.28011 10.23646,1.69679 12.67087,1.74924 22.17764,0.47777 z m 49.27115,-22.64269 c 7.46654,-6.87958 15.85739,-18.36283 19.59768,-26.82028 1.34944,-3.05133 2.45353,-5.95313 2.45353,-6.44846 0,-0.49532 -2.3625,-1.37095 -5.25,-1.94585 C 518.42406,500.44336 496.74523,497 493.36726,497 c -4.27838,0 -8.36069,3.13018 -8.37845,6.42431 -0.006,1.14163 3.90256,11.61418 8.68603,23.27234 l 8.69721,21.19664 2.92992,-1.69664 c 1.61145,-0.93316 5.95252,-4.48164 9.64682,-7.88553 z m -96.82817,-11.09624 c 9.52595,-23.12718 9.71521,-23.88258 6.88496,-27.48066 -2.66061,-3.38241 -4.97619,-3.46103 -20.83359,-0.70733 C 378.97515,503.40241 375,504.24292 375,505.19504 c 0,2.45741 9.47482,18.92545 14.19817,24.67763 5.88409,7.16575 17.60228,17.22837 19.64043,16.86559 0.73623,-0.13104 4.91314,-8.91656 9.28202,-19.52338 z m 44.37745,-39.93311 c 4.64563,-2.27844 5.69861,-3.29848 6.50805,-6.30448 2.42659,-9.01168 2.4001,-9.20585 -2.01216,-14.74741 L 462.82987,461 h -6.7584 -6.7584 l -4.27971,5.07549 -4.27972,5.07549 1.41335,6.62811 c 1.41024,6.61349 1.4254,6.63418 6.87319,9.38183 3.0029,1.51454 6.01235,2.77292 6.68767,2.7964 0.67531,0.0235 3.72191,-1.18053 6.77022,-2.67555 z M 393,477.44338 c 10.725,-3.11123 20.19281,-6.02393 21.03958,-6.47266 0.84677,-0.44872 2.14822,-1.95312 2.89212,-3.34309 2.00776,-3.75155 0.026,-7.5063 -7.27424,-13.78197 -3.3866,-2.91131 -6.38246,-5.54471 -6.65746,-5.852 -3.75081,-4.19125 -20.29629,-17.92857 -21.03995,-17.46897 -1.60818,0.99391 -5.76609,9.81906 -8.3335,17.68782 -2.84371,8.71559 -5.22525,26.78261 -4.22983,32.08864 0.55129,2.93864 1.09658,3.68569 2.40798,3.29896 0.93241,-0.27496 10.4703,-3.04549 21.1953,-6.15673 z M 542.00202,467 c -0.68795,-5.775 -2.31885,-13.77337 -3.62422,-17.77416 -2.85024,-8.7356 -8.13085,-19.48397 -9.35574,-19.04306 -0.4847,0.17447 -8.33677,6.98415 -17.44903,15.13262 -17.39628,15.5563 -19.09124,17.88805 -16.43911,22.61531 1.39473,2.48601 4.93332,4.08894 15.36608,6.96062 2.2,0.60557 8.725,2.50138 14.5,4.21293 17.02967,5.0471 16.36019,4.99124 17.37642,1.44988 0.54362,-1.89444 0.40146,-7.04114 -0.3744,-13.55414 z m -102.9592,-28.02292 c 1.05124,-0.5626 2.41038,-1.95538 3.02032,-3.09507 0.98485,-1.84019 4.14778,-45.83854 3.36034,-46.74445 -0.75478,-0.86836 -16.44277,3.35911 -23.48102,6.32747 -8.30778,3.50378 -20.0092,10.90087 -24.21258,15.30605 l -2.60389,2.72892 16.972,12 c 22.3452,15.7991 22.48006,15.86656 26.94483,13.47708 z m 55.05543,-9.76052 C 513.52207,415.61708 516,413.778 516,412.96137 c 0,-1.22282 -10.93252,-9.42345 -17.74948,-13.31412 -6.94987,-3.96652 -20.50811,-8.86443 -27.99512,-10.11324 l -4.2446,-0.70798 0.53232,7.33698 c 0.29278,4.03535 0.94342,14.53699 1.44588,23.33699 0.88343,15.47229 0.99946,16.07421 3.51804,18.25 1.43247,1.2375 3.6361,2.25 4.89697,2.25 1.29606,0 8.9868,-4.68698 17.69424,-10.78344 z"
         id="path100" />
      <path
         style="fill:#9cc2e5"
         d="M 403.5,855 351.50721,803 H 377.25361 403 v -70 -70 h 53 53 v 70 70 h 25.74639 25.7464 L 508.5,855 c -28.59603,28.6 -52.22103,52 -52.5,52 -0.27897,0 -23.90397,-23.4 -52.5,-52 z M 382.29159,662.2575 c 3.73537,-0.19293 9.58537,-0.19149 13,0.003 3.41462,0.19468 0.35841,0.35253 -6.79159,0.35078 -7.15,-0.002 -9.94379,-0.16103 -6.20841,-0.35396 z m 135,0 c 3.73537,-0.19293 9.58537,-0.19149 13,0.003 3.41462,0.19468 0.35841,0.35253 -6.79159,0.35078 -7.15,-0.002 -9.94379,-0.16103 -6.20841,-0.35396 z M 57.502401,520.00327 5.5048022,467.99759 57.752401,415.74999 110,363.50239 V 389.2512 415 h 83.9098 83.9098 l -1.4105,5.75 c -0.77577,3.1625 -1.85569,7.775 -2.39982,10.25 -0.94475,4.29728 -4.42892,19.46363 -12.52028,54.5 C 255.93514,509.54874 255,514.19627 255,517.74963 V 521 H 182.51688 110.03376 L 109.76688,546.50448 109.5,572.00896 Z M 802,546.7488 V 521 H 729.25 656.5 l -0.0633,-4.75 c -0.0348,-2.6125 -0.6427,-7.225 -1.35086,-10.25 -1.82999,-7.81708 -2.73071,-11.79116 -3.96636,-17.5 -0.59522,-2.75 -2.22399,-9.725 -3.61949,-15.5 -1.3955,-5.775 -3.02427,-12.75 -3.61949,-15.5 -0.59522,-2.75 -1.44145,-6.575 -1.88051,-8.5 -0.43906,-1.925 -1.28706,-5.75 -1.88444,-8.5 -0.59739,-2.75 -2.14233,-9.5 -3.43322,-15 l -2.34706,-10 83.83236,-0.25568 83.83236,-0.25568 V 389.24552 363.50239 L 854.24879,415.7512 906.49761,468 854.2488,520.2488 802,572.49761 Z m -348.75,14.53495 c 1.5125,-0.22913 3.9875,-0.22913 5.5,0 1.5125,0.22912 0.275,0.41659 -2.75,0.41659 -3.025,0 -4.2625,-0.18747 -2.75,-0.41659 z M 529,554.62244 c 0,-0.20765 0.7875,-0.99515 1.75,-1.75 1.58606,-1.24387 1.62143,-1.2085 0.37756,0.37756 C 529.82119,554.91575 529,555.44548 529,554.62244 Z m 4,-4 c 0,-0.20765 0.7875,-0.99515 1.75,-1.75 1.58606,-1.24387 1.62143,-1.2085 0.37756,0.37756 C 533.82119,550.91575 533,551.44548 533,550.62244 Z M 394.45295,535.75 390.5,531.5 l 4.25,3.95295 c 2.3375,2.17412 4.25,4.08662 4.25,4.25 0,0.75658 -0.87085,-4.9e-4 -4.54705,-3.95295 z m 7.35955,-36.43311 c 0.72187,-0.28887 1.58438,-0.25335 1.91667,0.0789 0.33229,0.33229 -0.25834,0.56864 -1.3125,0.52522 -1.16495,-0.048 -1.4019,-0.28494 -0.60417,-0.60416 z m 108,0 c 0.72187,-0.28887 1.58438,-0.25335 1.91667,0.0789 0.33229,0.33229 -0.25834,0.56864 -1.3125,0.52522 -1.16495,-0.048 -1.4019,-0.28494 -0.60417,-0.60416 z m -12,-2 c 0.72187,-0.28887 1.58438,-0.25335 1.91667,0.0789 0.33229,0.33229 -0.25834,0.56864 -1.3125,0.52522 -1.16495,-0.048 -1.4019,-0.28494 -0.60417,-0.60416 z M 369.32007,475 c 0,-3.575 0.1815,-5.0375 0.40333,-3.25 0.22182,1.7875 0.22182,4.7125 0,6.5 -0.22183,1.7875 -0.40333,0.325 -0.40333,-3.25 z m 172.97959,0 c 0,-3.025 0.18747,-4.2625 0.41659,-2.75 0.22913,1.5125 0.22913,3.9875 0,5.5 -0.22912,1.5125 -0.41659,0.275 -0.41659,-2.75 z M 417.15789,465 c 0,-1.375 0.22698,-1.9375 0.50439,-1.25 0.27741,0.6875 0.27741,1.8125 0,2.5 -0.27741,0.6875 -0.50439,0.125 -0.50439,-1.25 z m -5.28545,-8.75 c -1.24387,-1.58606 -1.2085,-1.62143 0.37756,-0.37756 1.66575,1.30637 2.19548,2.12756 1.37244,2.12756 -0.20765,0 -0.99515,-0.7875 -1.75,-1.75 z M 500,455.62244 c 0,-0.20765 0.7875,-0.99515 1.75,-1.75 1.58606,-1.24387 1.62143,-1.2085 0.37756,0.37756 C 500.82119,455.91575 500,456.44548 500,455.62244 Z m 10,-9 c 0,-0.20765 0.7875,-0.99515 1.75,-1.75 1.58606,-1.24387 1.62143,-1.2085 0.37756,0.37756 C 510.82119,446.91575 510,447.44548 510,446.62244 Z M 392.87244,439.25 c -1.24387,-1.58606 -1.2085,-1.62143 0.37756,-0.37756 1.66575,1.30637 2.19548,2.12756 1.37244,2.12756 -0.20765,0 -0.99515,-0.7875 -1.75,-1.75 z m 75.20651,-10.83333 c 0.048,-1.16495 0.28494,-1.4019 0.60416,-0.60417 0.28887,0.72187 0.25335,1.58438 -0.0789,1.91667 -0.33229,0.33229 -0.56864,-0.25834 -0.52522,-1.3125 z M 443.15789,427 c 0,-1.375 0.22698,-1.9375 0.50439,-1.25 0.27741,0.6875 0.27741,1.8125 0,2.5 -0.27741,0.6875 -0.50439,0.125 -0.50439,-1.25 z M 467.232,409 c 0,-1.925 0.2058,-2.7125 0.45733,-1.75 0.25152,0.9625 0.25152,2.5375 0,3.5 -0.25153,0.9625 -0.45733,0.175 -0.45733,-1.75 z m -23.03705,-1.5 c 0.0204,-1.65 0.2445,-2.20394 0.49804,-1.23097 0.25354,0.97297 0.23687,2.32297 -0.0371,3 -0.27393,0.67703 -0.48137,-0.11903 -0.46099,-1.76903 z M 550.5,407 c 0.99549,-1.1 2.03498,-2 2.30998,-2 0.275,0 -0.31449,0.9 -1.30998,2 -0.99549,1.1 -2.03498,2 -2.30998,2 -0.275,0 0.31449,-0.9 1.30998,-2 z m -12.75,-8.66228 c 0.6875,-0.27741 1.8125,-0.27741 2.5,0 0.6875,0.27741 0.125,0.50439 -1.25,0.50439 -1.375,0 -1.9375,-0.22698 -1.25,-0.50439 z M 381,396.62244 c 0,-0.20765 0.7875,-0.99515 1.75,-1.75 1.58606,-1.24387 1.62143,-1.2085 0.37756,0.37756 C 381.82119,396.91575 381,397.44548 381,396.62244 Z M 338.87244,392.25 c -1.24387,-1.58606 -1.2085,-1.62143 0.37756,-0.37756 1.66575,1.30637 2.19548,2.12756 1.37244,2.12756 -0.20765,0 -0.99515,-0.7875 -1.75,-1.75 z M 445.15789,391 c 0,-1.375 0.22698,-1.9375 0.50439,-1.25 0.27741,0.6875 0.27741,1.8125 0,2.5 -0.27741,0.6875 -0.50439,0.125 -0.50439,-1.25 z M 466.75,389.33772 c 0.6875,-0.27741 1.8125,-0.27741 2.5,0 0.6875,0.27741 0.125,0.50439 -1.25,0.50439 -1.375,0 -1.9375,-0.22698 -1.25,-0.50439 z M 556,384.62244 c 0,-0.20765 0.7875,-0.99515 1.75,-1.75 1.58606,-1.24387 1.62143,-1.2085 0.37756,0.37756 C 556.82119,384.91575 556,385.44548 556,384.62244 Z M 435.8125,368.31689 c 0.72187,-0.28887 1.58438,-0.25335 1.91667,0.0789 0.33229,0.33229 -0.25834,0.56864 -1.3125,0.52522 -1.16495,-0.048 -1.4019,-0.28494 -0.60417,-0.60416 z M 403,202.5 V 110 H 377.2512 351.50239 L 403.7512,57.751196 456,5.5023923 508.2488,57.751196 560.49761,110 H 534.7488 509 v 92.5 c 0,50.875 -0.25509,92.5 -0.56688,92.5 -0.31178,0 -4.69928,-1.98313 -9.75,-4.40696 -27.4157,-13.15672 -33.64998,-15.89854 -38.43515,-16.90362 -8.03327,-1.68732 -10.00738,-1.00405 -42.43509,14.68748 C 410.28496,292.01961 403.87246,295 403.56288,295 403.25329,295 403,253.375 403,202.5 Z"
         id="path98" />
      <path
         style="fill:#91b7e5"
         d="M 402.99643,855.25 350.5,802.5 403.25,854.99643 456,907.49286 508.75,854.99643 561.5,802.5 509.00357,855.25 C 480.13054,884.2625 456.27893,908 456,908 c -0.27893,0 -24.13054,-23.7375 -53.00357,-52.75 z M 56.998807,520.49881 4.5047565,467.99761 57.501185,415.24881 110.49761,362.5 58.002378,415.25 5.507143,468 58,520.5 c 28.871071,28.875 52.26786,52.5 51.99286,52.5 -0.275,0 -24.122326,-23.62554 -52.994053,-52.50119 z M 853.99762,520.75 906.49286,468 853.99762,415.25 801.50239,362.5 l 52.99762,52.75 52.99762,52.75 -52.99762,52.75 -52.99762,52.75 z m -598.91867,-1.33333 c 0.048,-1.16495 0.28494,-1.4019 0.60416,-0.60417 0.28887,0.72187 0.25335,1.58438 -0.0789,1.91667 -0.3323,0.33229 -0.56864,-0.25834 -0.52522,-1.3125 z M 656.27236,516 c 0,-2.475 0.19502,-3.4875 0.43337,-2.25 0.23836,1.2375 0.23836,3.2625 0,4.5 -0.23835,1.2375 -0.43337,0.225 -0.43337,-2.25 z M 485.15789,504 c 0,-1.375 0.22698,-1.9375 0.50439,-1.25 0.27741,0.6875 0.27741,1.8125 0,2.5 -0.27741,0.6875 -0.50439,0.125 -0.50439,-1.25 z M 319.75,497.33772 c 0.6875,-0.27741 1.8125,-0.27741 2.5,0 0.6875,0.27741 0.125,0.50439 -1.25,0.50439 -1.375,0 -1.9375,-0.22698 -1.25,-0.50439 z m 330.32895,-10.92105 c 0.048,-1.16495 0.28494,-1.4019 0.60416,-0.60417 0.28887,0.72187 0.25335,1.58438 -0.0789,1.91667 -0.33229,0.33229 -0.56864,-0.25834 -0.52522,-1.3125 z m -387,-9 c 0.048,-1.16495 0.28494,-1.4019 0.60416,-0.60417 0.28887,0.72187 0.25335,1.58438 -0.0789,1.91667 -0.33229,0.33229 -0.56864,-0.25834 -0.52522,-1.3125 z M 517,440.62244 c 0,-0.20765 0.7875,-0.99515 1.75,-1.75 1.58606,-1.24387 1.62143,-1.2085 0.37756,0.37756 C 517.82119,440.91575 517,441.44548 517,440.62244 Z m 122.07895,-2.20577 c 0.048,-1.16495 0.28494,-1.4019 0.60416,-0.60417 0.28887,0.72187 0.25335,1.58438 -0.0789,1.91667 -0.33229,0.33229 -0.56864,-0.25834 -0.52522,-1.3125 z m -365,-9 c 0.048,-1.16495 0.28494,-1.4019 0.60416,-0.60417 0.28887,0.72187 0.25335,1.58438 -0.0789,1.91667 -0.33229,0.33229 -0.56864,-0.25834 -0.52522,-1.3125 z m 194,-4 c 0.048,-1.16495 0.28494,-1.4019 0.60416,-0.60417 0.28887,0.72187 0.25335,1.58438 -0.0789,1.91667 -0.33229,0.33229 -0.56864,-0.25834 -0.52522,-1.3125 z M 612.87244,347.25 c -1.24387,-1.58606 -1.2085,-1.62143 0.37756,-0.37756 1.66575,1.30637 2.19548,2.12756 1.37244,2.12756 -0.20765,0 -0.99515,-0.7875 -1.75,-1.75 z M 451.8125,273.31689 c 0.72187,-0.28887 1.58438,-0.25335 1.91667,0.0789 0.33229,0.33229 -0.25834,0.56864 -1.3125,0.52522 -1.16495,-0.048 -1.4019,-0.28494 -0.60417,-0.60416 z M 403.25,57.499991 456,4.5023697 508.75,57.499991 561.5,110.49761 508.75,58.002378 456,5.507143 403.25,58.002378 350.5,110.49761 Z"
         id="path96" />
      <path
         style="fill:#6096ef"
         d="m 429.25,662.25071 c 14.7125,-0.15586 38.7875,-0.15586 53.5,0 14.7125,0.15585 2.675,0.28337 -26.75,0.28337 -29.425,0 -41.4625,-0.12752 -26.75,-0.28337 z m 87.5,-50.91299 c 0.6875,-0.27741 1.8125,-0.27741 2.5,0 0.6875,0.27741 0.125,0.50439 -1.25,0.50439 -1.375,0 -1.9375,-0.22698 -1.25,-0.50439 z m -64.5,-28.06619 c 2.0625,-0.21574 5.4375,-0.21574 7.5,0 2.0625,0.21575 0.375,0.39226 -3.75,0.39226 -4.125,0 -5.8125,-0.17651 -3.75,-0.39226 z M 375.40499,547.75 373.5,545.5 l 2.25,1.90499 c 2.11444,1.79022 2.70524,2.59501 1.90499,2.59501 -0.18976,0 -1.20226,-1.0125 -2.25,-2.25 z M 516.5,536 c 0.99549,-1.1 2.03498,-2 2.30998,-2 0.275,0 -0.31449,0.9 -1.30998,2 -0.99549,1.1 -2.03498,2 -2.30998,2 -0.275,0 0.31449,-0.9 1.30998,-2 z M 255.15789,516 c 0,-1.375 0.22698,-1.9375 0.50439,-1.25 0.27741,0.6875 0.27741,1.8125 0,2.5 -0.27741,0.6875 -0.50439,0.125 -0.50439,-1.25 z M 375,505 c 0,-0.55 0.47656,-1 1.05902,-1 0.58246,0 0.7809,0.45 0.44098,1 -0.33992,0.55 -0.81648,1 -1.05902,1 C 375.19844,506 375,505.55 375,505 Z m 10.8125,-2.68311 c 0.72187,-0.28887 1.58438,-0.25335 1.91667,0.0789 0.33229,0.33229 -0.25834,0.56864 -1.3125,0.52522 -1.16495,-0.048 -1.4019,-0.28494 -0.60417,-0.60416 z M 347.34281,474.5 c 0.004,-4.4 0.17944,-6.07561 0.39069,-3.72357 0.21124,2.35204 0.20827,5.95204 -0.007,8 -0.21487,2.04796 -0.38771,0.12357 -0.38408,-4.27643 z m 216.97726,0.5 c 0,-3.575 0.1815,-5.0375 0.40333,-3.25 0.22182,1.7875 0.22182,4.7125 0,6.5 -0.22183,1.7875 -0.40333,0.325 -0.40333,-3.25 z m 80.75888,-8.58333 c 0.048,-1.16495 0.28494,-1.4019 0.60416,-0.60417 0.28887,0.72187 0.25335,1.58438 -0.0789,1.91667 -0.33229,0.33229 -0.56864,-0.25834 -0.52522,-1.3125 z M 406.87244,452.25 c -1.24387,-1.58606 -1.2085,-1.62143 0.37756,-0.37756 0.9625,0.75485 1.75,1.54235 1.75,1.75 0,0.82304 -0.82119,0.29331 -2.12756,-1.37244 z m -9,-8 c -1.24387,-1.58606 -1.2085,-1.62143 0.37756,-0.37756 1.66575,1.30637 2.19548,2.12756 1.37244,2.12756 -0.20765,0 -0.99515,-0.7875 -1.75,-1.75 z m -10,-9 c -1.24387,-1.58606 -1.2085,-1.62143 0.37756,-0.37756 1.66575,1.30637 2.19548,2.12756 1.37244,2.12756 -0.20765,0 -0.99515,-0.7875 -1.75,-1.75 z M 468.232,421 c 0,-1.925 0.2058,-2.7125 0.45733,-1.75 0.25152,0.9625 0.25152,2.5375 0,3.5 -0.25153,0.9625 -0.45733,0.175 -0.45733,-1.75 z m -24.97982,-1.5 c 0.0111,-2.2 0.21589,-2.98225 0.45508,-1.73834 0.23919,1.24391 0.23011,3.04391 -0.0202,4 -0.25029,0.95609 -0.446,-0.0617 -0.4349,-2.26166 z M 396,412.62244 c 0,-0.20765 0.7875,-0.99515 1.75,-1.75 1.58606,-1.24387 1.62143,-1.2085 0.37756,0.37756 C 396.82119,412.91575 396,413.44548 396,412.62244 Z M 467.15789,403 c 0,-1.375 0.22698,-1.9375 0.50439,-1.25 0.27741,0.6875 0.27741,1.8125 0,2.5 -0.27741,0.6875 -0.50439,0.125 -0.50439,-1.25 z m -22.96294,-1.5 c 0.0204,-1.65 0.2445,-2.20394 0.49804,-1.23097 0.25354,0.97297 0.23687,2.32297 -0.0371,3 -0.27393,0.67703 -0.48137,-0.11903 -0.46099,-1.76903 z m 84.67749,-6.25 c -1.24387,-1.58606 -1.2085,-1.62143 0.37756,-0.37756 1.66575,1.30637 2.19548,2.12756 1.37244,2.12756 -0.20765,0 -0.99515,-0.7875 -1.75,-1.75 z M 550.5,390 c 2.14824,-2.2 4.1309,-4 4.4059,-4 0.275,0 -1.25766,1.8 -3.4059,4 -2.14824,2.2 -4.1309,4 -4.4059,4 -0.275,0 1.25766,-1.8 3.4059,-4 z m 24.65789,-4 c 0,-1.375 0.22698,-1.9375 0.50439,-1.25 0.27741,0.6875 0.27741,1.8125 0,2.5 -0.27741,0.6875 -0.50439,0.125 -0.50439,-1.25 z M 353.92431,383.25 351.5,380.5 l 2.75,2.42431 c 2.57029,2.26589 3.20859,3.07569 2.42431,3.07569 -0.17912,0 -1.41662,-1.2375 -2.75,-2.75 z m 85.88819,-15.93311 c 0.72187,-0.28887 1.58438,-0.25335 1.91667,0.0789 0.33229,0.33229 -0.25834,0.56864 -1.3125,0.52522 -1.16495,-0.048 -1.4019,-0.28494 -0.60417,-0.60416 z m 30,0 c 0.72187,-0.28887 1.58438,-0.25335 1.91667,0.0789 0.33229,0.33229 -0.25834,0.56864 -1.3125,0.52522 -1.16495,-0.048 -1.4019,-0.28494 -0.60417,-0.60416 z m -23.73355,-1.90022 c 0.048,-1.16495 0.28494,-1.4019 0.60416,-0.60417 0.28887,0.72187 0.25335,1.58438 -0.0789,1.91667 -0.33229,0.33229 -0.56864,-0.25834 -0.52522,-1.3125 z M 449.25218,355.5 c 0.0111,-2.2 0.21589,-2.98225 0.45508,-1.73834 0.23919,1.24391 0.23011,3.04391 -0.0202,4 -0.25029,0.95609 -0.446,-0.0617 -0.4349,-2.26166 z M 447.232,335 c 0,-1.925 0.2058,-2.7125 0.45733,-1.75 0.25152,0.9625 0.25152,2.5375 0,3.5 -0.25153,0.9625 -0.45733,0.175 -0.45733,-1.75 z m 16.92589,0 c 0,-1.375 0.22698,-1.9375 0.50439,-1.25 0.27741,0.6875 0.27741,1.8125 0,2.5 -0.27741,0.6875 -0.50439,0.125 -0.50439,-1.25 z M 454.75,273.33772 c 0.6875,-0.27741 1.8125,-0.27741 2.5,0 0.6875,0.27741 0.125,0.50439 -1.25,0.50439 -1.375,0 -1.9375,-0.22698 -1.25,-0.50439 z"
         id="path94" />
      <path
         style="fill:#2c73ed"
         d="M 359.40499,653.75 357.5,651.5 l 2.25,1.90499 c 2.11444,1.79022 2.70524,2.59501 1.90499,2.59501 -0.18976,0 -1.20226,-1.0125 -2.25,-2.25 z M 550,655.62244 c 0,-0.20765 0.7875,-0.99515 1.75,-1.75 1.58606,-1.24387 1.62143,-1.2085 0.37756,0.37756 C 550.82119,655.91575 550,656.44548 550,655.62244 Z m 5,-6 c 0,-0.20765 0.7875,-0.99515 1.75,-1.75 1.58606,-1.24387 1.62143,-1.2085 0.37756,0.37756 C 555.82119,649.91575 555,650.44548 555,649.62244 Z m 4,-5 c 0,-0.20765 0.7875,-0.99515 1.75,-1.75 1.58606,-1.24387 1.62143,-1.2085 0.37756,0.37756 C 559.82119,644.91575 559,645.44548 559,644.62244 Z m 13,-16 c 0,-0.20765 0.7875,-0.99515 1.75,-1.75 1.58606,-1.24387 1.62143,-1.2085 0.37756,0.37756 C 572.82119,628.91575 572,629.44548 572,628.62244 Z m -50,-18 c 0,-0.20765 0.7875,-0.99515 1.75,-1.75 1.58606,-1.24387 1.62143,-1.2085 0.37756,0.37756 C 522.82119,610.91575 522,611.44548 522,610.62244 Z m 70,-7 c 0,-0.20765 0.7875,-0.99515 1.75,-1.75 1.58606,-1.24387 1.62143,-1.2085 0.37756,0.37756 C 592.82119,603.91575 592,604.44548 592,603.62244 Z M 304.87244,586.25 c -1.24387,-1.58606 -1.2085,-1.62143 0.37756,-0.37756 1.66575,1.30637 2.19548,2.12756 1.37244,2.12756 -0.20765,0 -0.99515,-0.7875 -1.75,-1.75 z M 446.75,560.33772 c 0.6875,-0.27741 1.8125,-0.27741 2.5,0 0.6875,0.27741 0.125,0.50439 -1.25,0.50439 -1.375,0 -1.9375,-0.22698 -1.25,-0.50439 z m 16,0 c 0.6875,-0.27741 1.8125,-0.27741 2.5,0 0.6875,0.27741 0.125,0.50439 -1.25,0.50439 -1.375,0 -1.9375,-0.22698 -1.25,-0.50439 z M 629,557.62244 c 0,-0.20765 0.7875,-0.99515 1.75,-1.75 1.58606,-1.24387 1.62143,-1.2085 0.37756,0.37756 C 629.82119,557.91575 629,558.44548 629,557.62244 Z M 271.87244,545.25 c -1.24387,-1.58606 -1.2085,-1.62143 0.37756,-0.37756 1.66575,1.30637 2.19548,2.12756 1.37244,2.12756 -0.20765,0 -0.99515,-0.7875 -1.75,-1.75 z m 100,-1 c -1.24387,-1.58606 -1.2085,-1.62143 0.37756,-0.37756 0.9625,0.75485 1.75,1.54235 1.75,1.75 0,0.82304 -0.82119,0.29331 -2.12756,-1.37244 z m -104,-4 c -1.24387,-1.58606 -1.2085,-1.62143 0.37756,-0.37756 0.9625,0.75485 1.75,1.54235 1.75,1.75 0,0.82304 -0.82119,0.29331 -2.12756,-1.37244 z m 131,-1 c -1.24387,-1.58606 -1.2085,-1.62143 0.37756,-0.37756 1.66575,1.30637 2.19548,2.12756 1.37244,2.12756 -0.20765,0 -0.99515,-0.7875 -1.75,-1.75 z m 201.73351,-27.40206 c 1.04173,-1.45863 2.09405,-2.45863 2.33849,-2.22222 0.24445,0.23641 -0.60787,1.42984 -1.89404,2.65206 L 598.7119,514.5 Z m -342.527,-9.43127 c 0.048,-1.16495 0.28494,-1.4019 0.60416,-0.60417 0.28887,0.72187 0.25335,1.58438 -0.0789,1.91667 -0.33229,0.33229 -0.56864,-0.25834 -0.52522,-1.3125 z M 599.87244,500.25 c -1.24387,-1.58606 -1.2085,-1.62143 0.37756,-0.37756 1.66575,1.30637 2.19548,2.12756 1.37244,2.12756 -0.20765,0 -0.99515,-0.7875 -1.75,-1.75 z M 398.75,500.33772 c 0.6875,-0.27741 1.8125,-0.27741 2.5,0 0.6875,0.27741 0.125,0.50439 -1.25,0.50439 -1.375,0 -1.9375,-0.22698 -1.25,-0.50439 z m 113,0 c 0.6875,-0.27741 1.8125,-0.27741 2.5,0 0.6875,0.27741 0.125,0.50439 -1.25,0.50439 -1.375,0 -1.9375,-0.22698 -1.25,-0.50439 z m -101,-2 c 0.6875,-0.27741 1.8125,-0.27741 2.5,0 0.6875,0.27741 0.125,0.50439 -1.25,0.50439 -1.375,0 -1.9375,-0.22698 -1.25,-0.50439 z m 89,0 c 0.6875,-0.27741 1.8125,-0.27741 2.5,0 0.6875,0.27741 0.125,0.50439 -1.25,0.50439 -1.375,0 -1.9375,-0.22698 -1.25,-0.50439 z m 151.32895,-3.92105 c 0.048,-1.16495 0.28494,-1.4019 0.60416,-0.60417 0.28887,0.72187 0.25335,1.58438 -0.0789,1.91667 -0.33229,0.33229 -0.56864,-0.25834 -0.52522,-1.3125 z M 343,492.5 c 1.29175,-1.375 2.57363,-2.5 2.84863,-2.5 0.275,0 -0.55688,1.125 -1.84863,2.5 -1.29175,1.375 -2.57363,2.5 -2.84863,2.5 -0.275,0 0.55688,-1.125 1.84863,-2.5 z m 224.40499,-0.75 -1.90499,-2.25 2.25,1.90499 c 1.2375,1.04774 2.25,2.06024 2.25,2.25 0,0.80025 -0.80479,0.20945 -2.59501,-1.90499 z m -305.32604,-6.33333 c 0.048,-1.16495 0.28494,-1.4019 0.60416,-0.60417 0.28887,0.72187 0.25335,1.58438 -0.0789,1.91667 -0.33229,0.33229 -0.56864,-0.25834 -0.52522,-1.3125 z m 387,0 c 0.048,-1.16495 0.28494,-1.4019 0.60416,-0.60417 0.28887,0.72187 0.25335,1.58438 -0.0789,1.91667 -0.33229,0.33229 -0.56864,-0.25834 -0.52522,-1.3125 z m -302,-2 c 0.048,-1.16495 0.28494,-1.4019 0.60416,-0.60417 0.28887,0.72187 0.25335,1.58438 -0.0789,1.91667 -0.33229,0.33229 -0.56864,-0.25834 -0.52522,-1.3125 z M 564.15789,483 c 0,-1.375 0.22698,-1.9375 0.50439,-1.25 0.27741,0.6875 0.27741,1.8125 0,2.5 -0.27741,0.6875 -0.50439,0.125 -0.50439,-1.25 z m -95.07894,-7.58333 c 0.048,-1.16495 0.28494,-1.4019 0.60416,-0.60417 0.28887,0.72187 0.25335,1.58438 -0.0789,1.91667 -0.33229,0.33229 -0.56864,-0.25834 -0.52522,-1.3125 z m 95,-8 c 0.048,-1.16495 0.28494,-1.4019 0.60416,-0.60417 0.28887,0.72187 0.25335,1.58438 -0.0789,1.91667 -0.33229,0.33229 -0.56864,-0.25834 -0.52522,-1.3125 z m -217,-2 c 0.048,-1.16495 0.28494,-1.4019 0.60416,-0.60417 0.28887,0.72187 0.25335,1.58438 -0.0789,1.91667 -0.33229,0.33229 -0.56864,-0.25834 -0.52522,-1.3125 z M 409.87244,455.25 c -1.24387,-1.58606 -1.2085,-1.62143 0.37756,-0.37756 0.9625,0.75485 1.75,1.54235 1.75,1.75 0,0.82304 -0.82119,0.29331 -2.12756,-1.37244 z m 129.20651,0.16667 c 0.048,-1.16495 0.28494,-1.4019 0.60416,-0.60417 0.28887,0.72187 0.25335,1.58438 -0.0789,1.91667 -0.33229,0.33229 -0.56864,-0.25834 -0.52522,-1.3125 z M 501,455.62244 c 0,-0.20765 0.7875,-0.99515 1.75,-1.75 1.58606,-1.24387 1.62143,-1.2085 0.37756,0.37756 C 501.82119,455.91575 501,456.44548 501,455.62244 Z m 139.07895,-9.20577 c 0.048,-1.16495 0.28494,-1.4019 0.60416,-0.60417 0.28887,0.72187 0.25335,1.58438 -0.0789,1.91667 -0.33229,0.33229 -0.56864,-0.25834 -0.52522,-1.3125 z M 512,445.62244 c 0,-0.20765 0.7875,-0.99515 1.75,-1.75 1.58606,-1.24387 1.62143,-1.2085 0.37756,0.37756 C 512.82119,445.91575 512,446.44548 512,445.62244 Z m -36.1875,-6.30555 c 0.72187,-0.28887 1.58438,-0.25335 1.91667,0.0789 0.33229,0.33229 -0.25834,0.56864 -1.3125,0.52522 -1.16495,-0.048 -1.4019,-0.28494 -0.60417,-0.60416 z m -202.73355,-1.90022 c 0.048,-1.16495 0.28494,-1.4019 0.60416,-0.60417 0.28887,0.72187 0.25335,1.58438 -0.0789,1.91667 -0.33229,0.33229 -0.56864,-0.25834 -0.52522,-1.3125 z M 522,436.62244 c 0,-0.20765 0.7875,-0.99515 1.75,-1.75 1.58606,-1.24387 1.62143,-1.2085 0.37756,0.37756 C 522.82119,436.91575 522,437.44548 522,436.62244 Z M 468.232,415 c 0,-1.925 0.2058,-2.7125 0.45733,-1.75 0.25152,0.9625 0.25152,2.5375 0,3.5 -0.25153,0.9625 -0.45733,0.175 -0.45733,-1.75 z m -25,-2 c 0,-1.925 0.2058,-2.7125 0.45733,-1.75 0.25152,0.9625 0.25152,2.5375 0,3.5 -0.25153,0.9625 -0.45733,0.175 -0.45733,-1.75 z m -80.25206,0.47583 c -0.69572,-0.83829 -1.07128,-1.71782 -0.83459,-1.95452 0.2367,-0.23669 0.97964,0.44918 1.65098,1.52417 1.45181,2.32472 0.96763,2.57996 -0.81639,0.43035 z M 511.92431,410.25 509.5,407.5 l 2.75,2.42431 c 2.57029,2.26589 3.20859,3.07569 2.42431,3.07569 -0.17912,0 -1.41662,-1.2375 -2.75,-2.75 z M 282.07895,398.41667 c 0.048,-1.16495 0.28494,-1.4019 0.60416,-0.60417 0.28887,0.72187 0.25335,1.58438 -0.0789,1.91667 -0.33229,0.33229 -0.56864,-0.25834 -0.52522,-1.3125 z m 93.55349,0.79762 c -0.26708,-0.43215 0.34832,-0.78572 1.36756,-0.78572 1.01924,0 1.63464,0.35357 1.36756,0.78572 C 378.10049,399.64643 377.48508,400 377,400 c -0.48508,0 -1.10049,-0.35357 -1.36756,-0.78571 z M 361.92431,391.25 359.5,388.5 l 2.75,2.42431 c 2.57029,2.26589 3.20859,3.07569 2.42431,3.07569 -0.17912,0 -1.41662,-1.2375 -2.75,-2.75 z m 163.94813,1 c -1.24387,-1.58606 -1.2085,-1.62143 0.37756,-0.37756 0.9625,0.75485 1.75,1.54235 1.75,1.75 0,0.82304 -0.82119,0.29331 -2.12756,-1.37244 z m -56.05994,-1.93311 c 0.72187,-0.28887 1.58438,-0.25335 1.91667,0.0789 0.33229,0.33229 -0.25834,0.56864 -1.3125,0.52522 -1.16495,-0.048 -1.4019,-0.28494 -0.60417,-0.60416 z m -5.24821,-27.02376 c -0.54268,-1.4252 -0.42782,-1.54006 0.5598,-0.5598 0.68342,0.67834 0.99067,1.48524 0.68278,1.79313 -0.30789,0.30789 -0.86705,-0.24711 -1.24258,-1.23333 z M 447.15789,340 c 0,-1.375 0.22698,-1.9375 0.50439,-1.25 0.27741,0.6875 0.27741,1.8125 0,2.5 -0.27741,0.6875 -0.50439,0.125 -0.50439,-1.25 z m 17,-1 c 0,-1.375 0.22698,-1.9375 0.50439,-1.25 0.27741,0.6875 0.27741,1.8125 0,2.5 -0.27741,0.6875 -0.50439,0.125 -0.50439,-1.25 z m -0.0789,-7.58333 c 0.048,-1.16495 0.28494,-1.4019 0.60416,-0.60417 0.28887,0.72187 0.25335,1.58438 -0.0789,1.91667 -0.33229,0.33229 -0.56864,-0.25834 -0.52522,-1.3125 z"
         id="path92" />
      <path
         style="fill:#1c68ec"
         d="M 370.06367,660.28444 C 365.66357,658.72198 357.45128,651.40317 351.79124,644 348.84545,640.14699 347.87707,638.93563 337.10756,625.63195 333.04172,620.60938 320.9043,605.475 310.13552,592 299.36674,578.525 290.31685,567.275 290.02467,567 286.36338,563.55402 260.42473,529.79828 258.46248,525.92595 255.2657,519.61741 255.41004,515.74157 259.46523,499 262.2127,487.65725 262.62708,485.8604 265,475 c 2.40973,-11.02886 2.7921,-12.6974 5.5,-24 1.51536,-6.325 3.10239,-13.075 3.52674,-15 2.65285,-12.03421 3.27611,-14.90997 4.00948,-18.5 0.44942,-2.2 1.91292,-8.29708 3.25223,-13.54906 1.33931,-5.25198 3.67709,-15.37698 5.19506,-22.5 6.19572,-29.07315 8.07991,-32.44537 22.04443,-39.45376 4.93463,-2.47655 14.82206,-7.28328 21.97206,-10.68161 7.15,-3.39834 20.2,-9.63323 29,-13.85532 C 381.31456,306.994 394.1007,301 394.6123,301 c 0.23509,0 2.106,-1.04405 4.15757,-2.32011 2.05157,-1.27606 5.53013,-3.03798 7.73013,-3.91537 2.2,-0.8774 11.65,-5.28371 21,-9.79179 29.87305,-14.40324 27.13237,-14.37918 56,-0.49174 8.8,4.23345 18.025,8.59347 20.5,9.68895 2.475,1.09548 5.175,2.39745 6,2.89326 0.825,0.49581 3.525,1.86672 6,3.04645 2.475,1.17974 9.9,4.73028 16.5,7.89009 27.21519,13.02952 47.54578,22.71098 64.38658,30.66101 20.07234,9.47553 21.43596,11.33008 27.08727,36.83925 0.48739,2.2 1.35225,6.025 1.92192,8.5 0.56966,2.475 2.21382,9.675 3.65368,16 1.43987,6.325 2.87288,12.175 3.18447,13 0.3116,0.825 0.72563,2.4 0.92008,3.5 0.6925,3.91764 4.57146,21.22461 7.95651,35.5 1.89106,7.975 3.84582,16.3 4.3439,18.5 0.49808,2.2 1.36509,6.025 1.92669,8.5 0.56161,2.475 1.56544,6.975 2.23074,10 0.6653,3.025 2.26231,9.71176 3.5489,14.85948 1.28659,5.14771 2.33926,11.12517 2.33926,13.28324 0,3.73715 -3.35698,11.83564 -6.47789,15.62748 -5.49968,6.68197 -20.65528,25.52857 -23.50532,29.2298 -1.90581,2.475 -3.717,4.725 -4.02486,5 -0.47076,0.42051 -3.77409,4.49508 -9.70505,11.9709 -0.66721,0.841 -4.66829,5.8041 -8.89128,11.0291 -4.22299,5.225 -15.44783,19.175 -24.94407,31 -26.28167,32.72668 -28.3829,35.07433 -33.95153,37.93313 l -5,2.56687 -82.5,0.17989 c -72.84688,0.15883 -83.01908,-0.004 -86.93633,-1.39545 z m 28.29176,-49.40053 c 3.1125,-1.41814 5.20534,-5.70221 10.42995,-21.35025 0.9903,-2.96602 3.19483,-6.45762 5.47336,-8.66885 l 3.81518,-3.7025 6.71304,1.964 C 433.2582,581.6047 448.59863,584 456,584 c 9.06294,0 34.89006,-4.55673 36.8316,-6.49827 0.22838,-0.22838 1.89658,0.71464 3.70711,2.0956 3.44644,2.62872 5.93608,7.18628 8.96023,16.40267 4.19824,12.79452 6.38204,15.45455 12.68769,15.45455 5.04886,0 7.81337,-2.99013 7.81337,-8.45103 0,-4.11872 -0.89726,-6.1916 -5.63077,-13.00851 -5.6034,-8.06966 -7.56308,-12.32925 -7.79882,-16.95158 -0.23113,-4.53182 -0.21489,-4.55553 6.35575,-9.27639 16.97096,-12.19331 30.01273,-28.65124 37.64419,-47.50472 2.07353,-5.12264 3.44501,-7.24128 4.69322,-7.25 0.96996,-0.007 2.63669,-0.55759 3.70383,-1.22403 2.01189,-1.25645 3.5328,-0.86771 20.5326,5.24804 6.74358,2.42603 12.47315,2.20293 15.57762,-0.60657 2.84596,-2.57556 2.58733,-8.85572 -0.4915,-11.93455 -2.75453,-2.75453 -3.31578,-2.89645 -17.58612,-4.44678 -7.7431,-0.84121 -11.15641,-1.66331 -13,-3.13107 -1.375,-1.09469 -3.24891,-2.24132 -4.16423,-2.54806 -1.44807,-0.48527 -1.59224,-1.76453 -1.10992,-9.84886 1.11419,-18.67541 -3.32898,-38.23836 -12.76018,-56.1821 -4.27846,-8.14017 -4.66003,-9.36662 -3.42231,-11 0.76617,-1.01109 1.40734,-2.43298 1.42484,-3.15977 0.0477,-1.9807 2.18416,-3.78086 11.27188,-9.49744 11.24289,-7.07228 12.26922,-7.85445 13.60122,-10.36539 1.7328,-3.26648 1.40564,-6.73209 -0.91388,-9.68088 -1.71226,-2.17679 -2.88575,-2.63426 -6.75,-2.63143 -4.57854,0.003 -4.89233,0.21475 -14.84329,10 C 543.97619,396.22218 541.63027,398 539.14315,398 c -1.66381,0 -3.31262,0.46519 -3.66401,1.03376 -0.36392,0.58883 -3.29453,-1.42567 -6.80902,-4.68051 -7.38342,-6.83792 -16.84306,-13.10195 -26.26056,-17.38934 -3.80026,-1.7301 -7.69533,-3.55748 -8.65571,-4.06084 -2.91061,-1.52553 -21.0316,-5.8842 -24.50385,-5.89395 -2.54726,-0.007 -3.25,-0.42881 -3.25,-1.9501 0,-1.06754 -0.47776,-2.23626 -1.06168,-2.59714 -2.45679,-1.51838 -2.82856,-5.53421 -1.39586,-15.07817 2.17224,-14.47046 1.99075,-17.00435 -1.46554,-20.46063 -3.97852,-3.97853 -8.21959,-3.93425 -12.28206,0.12821 -3.01845,3.01846 -3.04428,3.13415 -2.40016,10.75 1.90966,22.57921 1.91077,22.7003 0.22113,24.10258 -0.88871,0.73756 -1.61583,2.18592 -1.61583,3.21857 0,1.50023 -0.75364,1.88065 -3.75,1.89291 -4.68437,0.0192 -18.12179,3.32373 -24.75,6.08656 -10.64556,4.43737 -22.18672,10.51151 -24.5,12.89442 -0.275,0.28328 -2.075,1.70577 -4,3.16109 -1.925,1.45532 -5.20931,4.23343 -7.29847,6.17357 -3.32199,3.08505 -4.26278,3.45666 -7.5,2.96248 -5.08126,-0.77568 -4.9759,-0.70131 -15.68773,-11.07292 C 349.42295,378.41843 348.79009,378 344.56798,378 c -3.58697,0 -4.81451,0.49795 -6.4954,2.63486 -4.61982,5.87314 -1.40507,12.58671 8.42742,17.59954 5.24461,2.67382 12.68364,7.75526 14.2182,9.71215 0.67,0.8544 1.2325,2.28585 1.25,3.18101 0.0175,0.89515 0.71694,2.19616 1.55433,2.89114 1.35799,1.12703 1.33729,1.54553 -0.19154,3.87244 -11.01986,16.77251 -17.16831,40.33068 -16.08183,61.61856 0.36839,7.21811 0.19616,10.4903 -0.55216,10.4903 -0.59816,0 -2.23719,1.08282 -3.64228,2.40626 C 340.42123,494.8867 330.78378,497 322.1055,497 314.16061,497 309,500.96942 309,507.08043 c 0,2.88649 0.61985,4.26198 2.63486,5.84699 3.77931,2.97281 7.75074,2.60236 21.08081,-1.96636 9.47686,-3.24808 12.23411,-3.83551 14.08138,-3 1.26338,0.57142 3.17588,1.03894 4.25,1.03894 1.07412,0 1.95295,0.51043 1.95295,1.1343 0,2.58161 9.28278,20.46244 14.37237,27.6846 6.10801,8.66729 18.25152,20.70199 26.71929,26.47987 l 5.56729,3.79877 -0.29017,4.85084 c -0.29495,4.93064 -2.12622,8.96488 -7.73801,17.04663 -4.82022,6.94178 -5.63077,8.89182 -5.63077,13.54672 0,3.46845 0.516,4.71899 2.63486,6.38569 2.94318,2.31511 6.06463,2.62225 9.72057,0.95649 z M 447.5,560.39172 c -1.65,-0.24208 -6.2625,-1.13494 -10.25,-1.98414 -6.9028,-1.47006 -8.45267,-2.6716 -6.39479,-4.95758 0.47036,-0.5225 2.89824,-4.775 5.39528,-9.45 4.58732,-8.58846 12.00636,-22.23846 13.58798,-25 0.4725,-0.825 1.96538,-2.12864 3.31751,-2.89697 2.10468,-1.19597 2.86858,-1.19597 5.30898,0 1.56781,0.76833 3.23201,2.07197 3.69822,2.89697 0.46621,0.825 2.81044,5.1 5.2094,9.5 2.39895,4.4 5.60932,10.25 7.13415,13 6.65987,12.01095 7.49327,13.61867 7.49327,14.45533 0,2.34513 -25.98171,5.68614 -34.5,4.43639 z m 54.04795,-16.9312 C 500.69658,541.4229 500,539.59801 500,539.40521 c 0,-0.1928 -1.07652,-2.72534 -2.39226,-5.62787 C 496.292,530.8748 494.45505,526.475 493.52564,524 491.9276,519.74447 491.0597,517.67021 487.5,509.59887 c -2.24769,-5.09645 -1.89292,-8.14464 1.23422,-10.60445 2.04373,-1.6076 3.49581,-1.98741 5.75,-1.50401 1.65868,0.35569 5.49078,1.04996 8.51578,1.54282 3.025,0.49285 8.2,1.34596 11.5,1.89579 3.3,0.54984 9.14022,1.47845 12.97826,2.0636 3.83804,0.58514 7.40111,1.48675 7.91792,2.00356 1.3118,1.3118 -5.1489,13.9869 -11.21777,22.00789 -4.40466,5.82146 -10.21252,11.70441 -15.79176,15.99593 -1.07255,0.825 -2.70174,2.09969 -3.62042,2.83265 -1.47263,1.17491 -1.85354,0.89415 -3.21828,-2.37213 z m -95.62453,0.78289 c -9.6357,-6.51987 -19.853,-18.20336 -25.79147,-29.49257 -5.30594,-10.08675 -5.29014,-10.11911 5.76448,-11.81128 3.63196,-0.55596 9.19107,-1.4448 12.35357,-1.9752 21.35645,-3.58179 23.06845,-3.64591 25.75,-0.96436 2.38731,2.38731 2.52392,5.0098 0.5,9.59887 -3.5597,8.07134 -4.4276,10.1456 -6.02564,14.40113 -0.92941,2.475 -2.7017,6.75 -3.93841,9.5 -1.23671,2.75 -2.85363,6.6875 -3.59315,8.75 -1.54459,4.30783 -1.57881,4.32143 -5.01938,1.99341 z m 43.97398,-57.32944 c -5.59053,-2.73228 -5.60522,-2.75148 -6.8167,-8.90932 -1.04992,-5.33665 -1.00037,-6.46414 0.36648,-8.33789 0.86932,-1.19172 2.58683,-3.62369 3.8167,-5.40438 2.11358,-3.0602 2.57685,-3.2383 8.45373,-3.25 l 6.2176,-0.0124 4.03583,5.34541 c 3.9319,5.20777 4.01177,5.47171 3.10154,10.25 -0.91016,4.77792 -2.01273,8.40459 -2.55514,8.40459 -0.14772,0 -2.68707,1.04673 -5.64301,2.32607 l -5.37443,2.32608 -5.6026,-2.73818 z M 370,475.60056 c 0,-12.35669 3.37958,-26.73834 9.25009,-39.36331 2.34849,-5.05059 3.30882,-5.8129 5.10334,-4.05101 0.73594,0.72257 4.89321,4.46376 9.23837,8.31376 21.04362,18.64555 23.40526,21.09226 23.40698,24.25 0.002,4.37143 -3.81812,6.41848 -20.99878,11.25131 -1.925,0.5415 -7.775,2.16803 -13,3.61452 -5.225,1.4465 -10.2875,3.04052 -11.25,3.54227 -1.60073,0.83445 -1.75,0.18981 -1.75,-7.55754 z m 167.5,6.43796 c -1.1,-0.45437 -4.025,-1.3761 -6.5,-2.0483 -2.475,-0.67219 -5.625,-1.56779 -7,-1.99022 -1.375,-0.42243 -4.3,-1.261 -6.5,-1.86351 -20.85315,-5.71094 -22.5,-6.55379 -22.5,-11.51538 0,-3.35056 1.26991,-4.69083 20.9598,-22.12111 2.4852,-2.2 6.32342,-5.68265 8.52937,-7.73922 2.20596,-2.05657 4.33708,-3.74407 4.73584,-3.75 0.77222,-0.0115 3.359,5.32277 6.73634,13.89116 3.24765,8.23935 6.03865,22.37657 6.03865,30.58747 0,7.83079 -0.30887,8.2803 -4.5,6.54911 z M 433.4627,438.96843 c -1.75661,-0.6561 -33.50313,-22.84488 -35.95956,-25.13342 -1.7485,-1.629 9.68902,-10.35678 21.21358,-16.18773 4.96955,-2.51439 15.96324,-5.96968 22.64136,-7.11613 l 3.85808,-0.66233 -0.70433,7.0134 c -0.38738,3.85737 -1.00989,13.9772 -1.38335,22.48852 -0.56313,12.83388 -0.98444,15.81262 -2.46851,17.4525 -2.17607,2.40453 -4.58256,3.1218 -7.19727,2.14519 z m 37.76743,-2.403 c -1.62058,-2.06023 -2.01264,-4.78939 -2.54987,-17.75 -0.34917,-8.42348 -0.93345,-18.33493 -1.29842,-22.02542 l -0.66358,-6.70999 3.89087,0.56544 c 13.30507,1.93353 30.77122,10.0551 40.08247,18.63792 l 4.28349,3.94838 -2.23755,1.74501 c -2.18375,1.70307 -23.87647,17.07279 -30.62709,21.69991 -4.44717,3.04825 -8.42707,3.00756 -10.88032,-0.11125 z"
         id="path90" />
      <path
         style="fill:#49699f"
         d="M 400.49659,855.79871 C 370.24847,825.43801 346.5125,801.43275 347.75,802.4537 c 1.2375,1.02095 2.25,1.45062 2.25,0.95483 0,-0.4958 23.85,22.94536 53,52.09147 L 456,908.49292 509,855.5 c 29.15,-29.14611 53,-52.58727 53,-52.09147 0,0.49579 1.0125,0.0661 2.25,-0.95483 1.2375,-1.02095 -22.49847,22.98431 -52.74659,53.34501 C 481.25528,886.15942 456.27875,911 456,911 c -0.27875,0 -25.25528,-24.84058 -55.50341,-55.20129 z M 509.50354,856.75 562.5,803.5 509.25,856.49646 456,909.49292 402.75,856.49646 349.5,803.5 402.49646,856.75 C 431.64452,886.0375 455.72111,910 456,910 c 0.27889,0 24.35548,-23.9625 53.50354,-53.25 z M 56.498861,522.99886 1.5045405,467.99772 56.95246,412.74886 C 87.448816,382.36199 111.56555,358.5125 110.5452,359.75 c -1.02035,1.2375 -1.44952,2.25 -0.95373,2.25 0.4958,0 -22.945362,23.85 -52.09147,53 L 4.5070756,468 57.5,521 c 29.146108,29.15 52.58727,53 52.09147,53 -0.49579,0 -0.087,0.9 0.90853,2 0.99549,1.1 1.6262,2 1.40158,2 -0.22462,0 -25.155843,-24.75051 -55.402719,-55.00114 z M 56.5,521 3.5070756,468 56.502356,414.75 109.49764,361.5 56.001174,414.74882 2.5047117,467.99764 55.498818,520.99882 C 84.645577,550.14947 108.71792,574 108.99292,574 109.26792,574 85.646108,550.15 56.5,521 Z m 744.9548,55.25 c 1.02035,-1.2375 1.44952,-2.25 0.95373,-2.25 -0.4958,0 22.94536,-23.85 52.09147,-53 L 907.49292,468 854.5,415 c -29.14611,-29.15 -52.58727,-53 -52.09147,-53 0.49579,0 0.0666,-1.0125 -0.95373,-2.25 -1.02035,-1.2375 23.0969,22.6125 53.59388,53 l 55.44906,55.25 -55.44906,55.25 c -30.49698,30.3875 -54.61423,54.2375 -53.59388,53 z m 54.54521,-161.5 -53.49765,-53.25 52.99528,53.25 52.99528,53.25 -52.99528,53.25 -52.99528,53.25 53.49765,-53.25 L 909.49765,468 Z M 400.75,56.951321 456,1.5022624 511.25,56.951321 c 30.3875,30.496983 54.2375,54.614229 53,53.593879 -1.2375,-1.02035 -2.25,-1.44952 -2.25,-0.95373 0,0.4958 -23.85,-22.945362 -53,-52.09147 L 456,4.5070756 403,57.5 c -29.15,29.146108 -53,52.58727 -53,52.09147 0,-0.49579 -1.0125,-0.0666 -2.25,0.95373 -1.2375,1.02035 22.6125,-23.096896 53,-53.593879 z M 509.25,56.502356 562.5,109.49764 509.25,55.999991 456,2.5023474 402.75,55.999991 349.5,109.49764 402.75,56.502356 456,3.5070756 Z"
         id="path88" />
      <path
         style="fill:#2e518e"
         d="M 401,855.5 346.50688,801 H 373.75344 401 v -69.5 c 0,-45.66667 0.34293,-69.5 1,-69.5 0.65721,0 1,24.16667 1,70.5 V 803 H 376.25117 349.50235 L 402.75117,856.24883 456,909.49765 509.24883,856.24883 562.49765,803 H 535.74883 509 v -70.5 c 0,-46.33333 0.34279,-70.5 1,-70.5 0.65707,0 1,23.83333 1,69.5 V 801 h 27.24656 27.24656 L 511,855.5 c -29.97122,29.975 -54.72122,54.5 -55,54.5 -0.27878,0 -25.02878,-24.525 -55,-54.5 z M 57.002291,522.50308 2.5045821,467.9977 57.252291,413.24999 112,358.50228 V 385.75114 413 h 83.55902 c 55.45136,0 83.35112,0.33638 82.94098,1 -0.40408,0.65382 -29.67705,1 -84.55902,1 H 110 V 388.25117 361.50235 L 56.751174,414.75117 3.5023474,468 56.751174,521.24883 110,574.49765 V 547.74883 521 h 73 c 48,0 73,0.34247 73,1 0,0.65741 -24.66131,1 -71.98393,1 H 112.03214 L 111.76607,550.00423 111.5,577.00846 Z M 800,550.24886 V 523 h -72.55902 c -48.11803,0 -72.35083,-0.33684 -71.94098,-1 0.40288,-0.65188 26.01038,-1 73.55902,-1 H 802 v 26.74883 26.74882 L 855.24883,521.24883 908.49765,468 855.24883,414.75117 802,361.50235 V 388.25117 415 h -83.94098 c -54.88197,0 -84.15494,-0.34618 -84.55902,-1 -0.41014,-0.66362 27.48962,-1 82.94098,-1 H 800 V 385.75114 358.50228 L 854.74886,413.25114 909.49772,468 854.74886,522.74886 800,577.49772 Z M 401,204.55902 V 112 H 373.75114 346.50228 L 401.25114,57.251142 456,2.5022831 510.74886,57.251142 565.49772,112 H 538.24886 511 v 92.55902 c 0,61.45136 -0.33608,92.3513 -1,91.94098 -0.65506,-0.40485 -1,-32.67705 -1,-93.55902 V 110 h 26.74883 26.74882 L 509.24883,56.751174 456,3.5023474 402.75117,56.751174 349.50235,110 H 376.25117 403 v 92.94098 c 0,60.88197 -0.34494,93.15417 -1,93.55902 -0.66392,0.41032 -1,-30.48962 -1,-91.94098 z"
         id="path86" />
    </g>
  </g>
</svg>
