<svg width="910.498" height="912" xmlns="http://www.w3.org/2000/svg">
	<path style="fill:#fefefe" d="M0 456V0h910v467.493L855 412.5l-55-54.993V413H633.46l-2.328-10.25c-8.672-38.178-10.887-46.618-13.236-50.418-2.965-4.798-7.431-8.167-16.39-12.364-4.403-2.063-14.756-6.998-23.006-10.968-8.25-3.97-18.6-8.92-23-11a6506.31 6506.31 0 0 1-22.5-10.726 9638.855 9638.855 0 0 0-18.25-8.723l-3.75-1.779V112h55.498l-55.25-55.249L456 1.502l-55.249 55.25L345.502 112H401v184.671l-14.04 6.743c-30.864 14.821-63.231 30.29-75.49 36.08-15.933 7.524-18.868 11.429-23.31 31.006-1.623 7.15-4.46 19.637-6.305 27.748l-3.355 14.748-83.25.002L112 413v-55.498l-55.249 55.25L1.502 468l55.25 55.249L112 578.498V523h144.598l1.25 3.458c.688 1.901 10.578 15.064 21.979 29.25 11.4 14.185 33.741 41.992 49.646 61.792 15.905 19.8 29.843 36.84 30.973 37.865 6.388 5.802 13.212 7.607 28.804 7.623L401 663v138h-55.498l55.25 55.249L456 911.498l55.249-55.25L566.498 801H511V663.192l13.75-.454c7.563-.25 15.354-.966 17.315-1.592 5.854-1.868 11.014-7.162 29.673-30.442 9.769-12.189 18.518-23.07 19.443-24.183 20.778-24.989 60.363-75.212 62.055-78.73l2.264-4.709 72.25-.041L800 523v55.493l55-54.993 55-54.993V912H0Zm389.736 153.75c-.905-.688-2.12-2.527-2.7-4.087-1.308-3.525.434-7.773 7.808-19.041 2.836-4.333 5.195-8.383 5.242-9 .808-10.492 1.04-9.846-4.913-13.622-7.216-4.577-21.648-18.79-27.417-27-4.774-6.795-11.015-18.548-13.181-24.825-1.194-3.459-1.594-3.725-6.79-4.52-4.899-.748-6.528-.485-14.404 2.322-14.285 5.09-15.818 5.402-19.03 3.862-4.069-1.95-5.88-6.147-4.3-9.96 1.738-4.197 4.857-5.388 17.88-6.825 11.229-1.24 16.069-2.519 16.069-4.247 0-.48.995-1.24 2.211-1.69 2.145-.793 2.203-1.204 1.944-13.717-.42-20.323 4.671-40.429 14.353-56.681 3.105-5.213 3.395-6.194 2.054-6.944-.86-.481-1.562-1.734-1.562-2.784 0-2.559-4.04-6.175-12.5-11.191-12.182-7.222-15.178-11.263-12.85-17.33.985-2.567 6.159-4.385 9.64-3.387 1.626.466 7.279 5.048 12.609 10.22 8.416 8.167 10.21 9.448 13.923 9.946 3.858.518 4.613.243 7.97-2.904 15.087-14.143 35.185-24.354 53.82-27.344 10.666-1.71 11.388-1.936 11.388-3.555 0-.834.736-2.64 1.636-4.013 1.48-2.258 1.511-3.827.333-16.386-1.189-12.675-1.156-14.113.377-16.452 3.276-5 10.97-4.51 13.545.863 1.154 2.407 1.197 4.739.25 13.477-1.51 13.951-1.443 17.57.359 19.065.825.685 1.5 2.042 1.5 3.015 0 1.94 1.91 2.985 5.454 2.985 5.285 0 22.436 5.272 31.883 9.8 9.922 4.757 23.277 13.974 29.035 20.039 2.115 2.227 3.302 2.795 4.5 2.154.895-.48 2.937-1.15 4.536-1.491 1.82-.388 6.531-4.13 12.592-10.002 5.326-5.16 10.847-9.674 12.268-10.031 5.9-1.48 11.202 4.45 9.163 10.248-.997 2.833-3.602 4.923-16.931 13.584-4.81 3.126-8.14 5.996-8.353 7.199-.195 1.1-1.023 2.755-1.84 3.678-1.333 1.505-1.125 2.295 2.012 7.648 9.715 16.577 14.181 33.858 14.181 54.877 0 13.76.07 14.236 2.25 15.229 1.238.564 2.25 1.45 2.25 1.969 0 1.527 5.785 2.937 16.936 4.127 11.864 1.266 15.266 2.63 17.002 6.822 1.638 3.954-.647 8.504-5.037 10.035-2.706.943-4.4.659-11.78-1.975-9.725-3.47-18.826-5.871-19.542-5.156-.262.263-1.921.773-3.685 1.134-2.596.53-3.464 1.395-4.55 4.532-6.782 19.59-23.82 41.165-41.686 52.786-4.438 2.888-4.56 3.292-3.757 12.416.054.617 2.418 4.667 5.252 9 7.192 10.997 8.836 14.93 7.78 18.613-1.053 3.67-3.566 5.691-7.127 5.733-4.829.057-7.547-3.616-11.754-15.883-3.342-9.747-4.517-11.966-8.032-15.18l-4.118-3.764-5.57 1.917c-18.694 6.431-44.017 6.41-64.043-.054l-6.211-2.005-4.369 4.25c-3.747 3.646-4.849 5.745-7.743 14.751-3.77 11.731-6.891 16-11.698 16-1.587 0-3.626-.562-4.532-1.25zm75.942-48.796c4.302-.576 10.212-1.721 13.133-2.546l5.31-1.5-3.455-6.204c-1.9-3.412-4.694-8.454-6.208-11.204C460.904 514.877 460.997 515 456 515c-2.258 0-4.29.679-5.237 1.75-.85.963-6.154 10.075-11.784 20.25a13640.94 13640.94 0 0 1-10.634 19.196c-.546.959 5.616 2.699 15.155 4.28 10.236 1.697 12.67 1.75 22.178.478zm49.27-22.643c7.467-6.88 15.858-18.363 19.598-26.82 1.35-3.051 2.454-5.953 2.454-6.449 0-.495-2.362-1.37-5.25-1.945-13.326-2.654-35.005-6.097-38.383-6.097-4.278 0-8.36 3.13-8.378 6.424-.006 1.142 3.902 11.614 8.686 23.273l8.697 21.196 2.93-1.696c1.611-.934 5.952-4.482 9.647-7.886zm-96.827-11.096c9.526-23.127 9.715-23.883 6.885-27.48-2.661-3.383-4.977-3.462-20.834-.708-25.197 4.375-29.172 5.216-29.172 6.168 0 2.457 9.475 18.925 14.198 24.678 5.884 7.165 17.602 17.228 19.64 16.865.737-.13 4.914-8.916 9.283-19.523zm44.377-39.933c4.646-2.279 5.699-3.299 6.508-6.305 2.427-9.011 2.4-9.206-2.012-14.747L462.83 461h-13.517l-4.28 5.075-4.28 5.076 1.414 6.628c1.41 6.614 1.425 6.634 6.873 9.382 3.003 1.514 6.013 2.773 6.688 2.796.675.024 3.722-1.18 6.77-2.675zM393 477.443c10.725-3.11 20.193-6.024 21.04-6.472.846-.449 2.148-1.953 2.892-3.343 2.007-3.752.026-7.507-7.275-13.782-3.386-2.912-6.382-5.545-6.657-5.852-3.75-4.192-20.296-17.929-21.04-17.47-1.608.995-5.766 9.82-8.333 17.689-2.844 8.715-5.226 26.782-4.23 32.088.551 2.939 1.096 3.686 2.408 3.3.932-.276 10.47-3.046 21.195-6.158zM542.002 467c-.688-5.775-2.319-13.773-3.624-17.774-2.85-8.736-8.131-19.484-9.356-19.043-.485.174-8.337 6.984-17.449 15.132-17.396 15.557-19.091 17.888-16.44 22.616 1.396 2.486 4.934 4.089 15.367 6.96 2.2.606 8.725 2.502 14.5 4.213 17.03 5.047 16.36 4.991 17.376 1.45.544-1.894.402-7.041-.374-13.554zm-102.96-28.023c1.052-.563 2.411-1.955 3.021-3.095.985-1.84 4.148-45.839 3.36-46.744-.754-.869-16.442 3.359-23.48 6.327-8.308 3.504-20.01 10.9-24.213 15.306l-2.604 2.729 16.972 12c22.345 15.8 22.48 15.867 26.945 13.477zm55.056-9.76C513.522 415.617 516 413.778 516 412.96c0-1.222-10.933-9.423-17.75-13.314-6.95-3.966-20.508-8.864-27.995-10.113l-4.244-.708.532 7.337c.293 4.035.944 14.537 1.446 23.337.883 15.472 1 16.074 3.518 18.25 1.433 1.237 3.636 2.25 4.897 2.25 1.296 0 8.987-4.687 17.694-10.783z"/>
	<path style="fill:#9cc2e5" d="m403.5 855-51.993-52H403V663h106v140h51.493L508.5 855c-28.596 28.6-52.221 52-52.5 52-.279 0-23.904-23.4-52.5-52zm-21.208-192.742c3.735-.193 9.585-.192 13 .003 3.414.194.358.352-6.792.35-7.15-.002-9.944-.16-6.208-.354zm135 0c3.735-.193 9.585-.192 13 .003 3.414.194.358.352-6.792.35-7.15-.002-9.944-.16-6.208-.354zM57.502 520.003 5.505 467.998l52.247-52.248L110 363.502V415h167.82l-1.41 5.75a535.397 535.397 0 0 0-2.4 10.25c-.945 4.297-4.43 19.464-12.521 54.5-5.554 24.049-6.489 28.696-6.489 32.25V521H110.034l-.267 25.504-.267 25.505ZM802 546.75V521H656.5l-.063-4.75c-.035-2.612-.643-7.225-1.351-10.25-1.83-7.817-2.73-11.791-3.967-17.5-.595-2.75-2.224-9.725-3.619-15.5-1.396-5.775-3.024-12.75-3.62-15.5A976.394 976.394 0 0 0 642 449c-.44-1.925-1.287-5.75-1.884-8.5-.598-2.75-2.143-9.5-3.434-15l-2.347-10 83.833-.256L802 414.99v-51.488l52.249 52.25L906.498 468l-52.25 52.249L802 572.498Zm-348.75 14.535c1.512-.23 3.987-.23 5.5 0 1.512.229.275.416-2.75.416s-4.263-.187-2.75-.416zm75.75-6.662c0-.207.787-.995 1.75-1.75 1.586-1.243 1.621-1.208.378.378-1.307 1.666-2.128 2.195-2.128 1.372Zm4-4c0-.207.787-.995 1.75-1.75 1.586-1.243 1.621-1.208.378.378-1.307 1.666-2.128 2.195-2.128 1.372ZM394.453 535.75l-3.953-4.25 4.25 3.953c2.337 2.174 4.25 4.087 4.25 4.25 0 .757-.87 0-4.547-3.953zm7.36-36.433c.721-.289 1.584-.253 1.916.079.332.332-.258.568-1.312.525-1.165-.048-1.402-.285-.604-.604zm108 0c.721-.289 1.584-.253 1.916.079.332.332-.258.568-1.312.525-1.165-.048-1.402-.285-.604-.604zm-12-2c.721-.289 1.584-.253 1.916.079.332.332-.258.568-1.312.525-1.165-.048-1.402-.285-.604-.604zM369.32 475c0-3.575.182-5.037.403-3.25.222 1.788.222 4.713 0 6.5-.221 1.788-.403.325-.403-3.25zm172.98 0c0-3.025.187-4.263.416-2.75.23 1.512.23 3.987 0 5.5-.229 1.512-.416.275-.416-2.75zm-125.142-10c0-1.375.227-1.938.504-1.25.278.688.278 1.813 0 2.5-.277.688-.504.125-.504-1.25zm-5.286-8.75c-1.243-1.586-1.208-1.621.378-.378 1.666 1.307 2.195 2.128 1.372 2.128-.207 0-.995-.787-1.75-1.75zm88.128-.628c0-.207.787-.995 1.75-1.75 1.586-1.243 1.621-1.208.378.378-1.307 1.666-2.128 2.195-2.128 1.372Zm10-9c0-.207.787-.995 1.75-1.75 1.586-1.243 1.621-1.208.378.378-1.307 1.666-2.128 2.195-2.128 1.372Zm-117.128-7.372c-1.243-1.586-1.208-1.621.378-.378 1.666 1.307 2.195 2.128 1.372 2.128-.207 0-.995-.787-1.75-1.75zm75.207-10.833c.048-1.165.285-1.402.604-.604.289.721.253 1.584-.079 1.916-.332.332-.568-.258-.525-1.312zM443.158 427c0-1.375.227-1.938.504-1.25.278.688.278 1.813 0 2.5-.277.688-.504.125-.504-1.25zm24.074-18c0-1.925.206-2.712.457-1.75.252.963.252 2.538 0 3.5-.251.963-.457.175-.457-1.75zm-23.037-1.5c.02-1.65.244-2.204.498-1.231.254.973.237 2.323-.037 3-.274.677-.481-.119-.461-1.769zM550.5 407c.995-1.1 2.035-2 2.31-2 .275 0-.315.9-1.31 2-.995 1.1-2.035 2-2.31 2-.275 0 .315-.9 1.31-2zm-12.75-8.662c.688-.278 1.813-.278 2.5 0 .688.277.125.504-1.25.504s-1.938-.227-1.25-.504zM381 396.622c0-.207.787-.995 1.75-1.75 1.586-1.243 1.621-1.208.378.378-1.307 1.666-2.128 2.195-2.128 1.372Zm-42.128-4.372c-1.243-1.586-1.208-1.621.378-.378 1.666 1.307 2.195 2.128 1.372 2.128-.207 0-.995-.787-1.75-1.75zM445.158 391c0-1.375.227-1.938.504-1.25.278.688.278 1.813 0 2.5-.277.688-.504.125-.504-1.25zm21.592-1.662c.688-.278 1.813-.278 2.5 0 .688.277.125.504-1.25.504s-1.938-.227-1.25-.504zm89.25-4.716c0-.207.787-.995 1.75-1.75 1.586-1.243 1.621-1.208.378.378-1.307 1.666-2.128 2.195-2.128 1.372Zm-120.188-16.305c.722-.289 1.585-.253 1.917.079.332.332-.258.568-1.312.525-1.165-.048-1.402-.285-.604-.604zM403 202.5V110h-51.498l52.25-52.249L456 5.502l52.249 52.25L560.498 110H509v92.5c0 50.875-.255 92.5-.567 92.5-.312 0-4.7-1.983-9.75-4.407-27.416-13.157-33.65-15.899-38.435-16.904-8.033-1.687-10.007-1.004-42.435 14.688-7.528 3.643-13.94 6.623-14.25 6.623-.31 0-.563-41.625-.563-92.5Z"/>
	<path style="fill:#91b7e5" d="M402.996 855.25 350.5 802.5l52.75 52.496L456 907.493l52.75-52.497L561.5 802.5l-52.496 52.75C480.13 884.263 456.279 908 456 908c-.279 0-24.13-23.738-53.004-52.75zM57 520.499 4.505 467.998l52.996-52.75 52.997-52.748-52.496 52.75L5.507 468 58 520.5c28.871 28.875 52.268 52.5 51.993 52.5-.275 0-24.122-23.626-52.994-52.501zm796.999.251L906.493 468l-52.495-52.75-52.496-52.75 52.998 52.75L907.498 468 854.5 520.75l-52.998 52.75zm-598.92-1.333c.049-1.165.286-1.402.605-.605.289.722.253 1.585-.079 1.917-.332.332-.568-.258-.525-1.312zM656.273 516c0-2.475.195-3.487.434-2.25.238 1.238.238 3.263 0 4.5-.239 1.238-.434.225-.434-2.25zm-171.114-12c0-1.375.227-1.938.504-1.25.278.688.278 1.813 0 2.5-.277.688-.504.125-.504-1.25zm-165.408-6.662c.688-.278 1.813-.278 2.5 0 .688.277.125.504-1.25.504s-1.938-.227-1.25-.504zm330.329-10.921c.048-1.165.285-1.402.604-.604.289.721.253 1.584-.079 1.916-.332.332-.568-.258-.525-1.312zm-387-9c.048-1.165.285-1.402.604-.604.289.721.253 1.584-.079 1.916-.332.332-.568-.258-.525-1.312zM517 440.622c0-.207.787-.995 1.75-1.75 1.586-1.243 1.621-1.208.378.378-1.307 1.666-2.128 2.195-2.128 1.372Zm122.079-2.205c.048-1.165.285-1.402.604-.604.289.721.253 1.584-.079 1.916-.332.332-.568-.258-.525-1.312zm-365-9c.048-1.165.285-1.402.604-.604.289.721.253 1.584-.079 1.916-.332.332-.568-.258-.525-1.312zm194-4c.048-1.165.285-1.402.604-.604.289.721.253 1.584-.079 1.916-.332.332-.568-.258-.525-1.312zm144.793-78.167c-1.243-1.586-1.208-1.621.378-.378 1.666 1.307 2.195 2.128 1.372 2.128-.207 0-.995-.787-1.75-1.75zm-161.06-73.933c.722-.289 1.585-.253 1.917.079.332.332-.258.568-1.312.525-1.165-.048-1.402-.285-.604-.604zM403.25 57.5 456 4.502 508.75 57.5l52.75 52.998-52.75-52.496L456 5.507l-52.75 52.495-52.75 52.496Z"/>
	<path style="fill:#6096ef" d="M429.25 662.25c14.713-.155 38.788-.155 53.5 0 14.713.157 2.675.284-26.75.284s-41.462-.127-26.75-.283zm87.5-50.912c.688-.278 1.813-.278 2.5 0 .688.277.125.504-1.25.504s-1.938-.227-1.25-.504zm-64.5-28.066c2.063-.216 5.438-.216 7.5 0 2.063.215.375.392-3.75.392s-5.813-.177-3.75-.392zm-76.845-35.522-1.905-2.25 2.25 1.905c2.114 1.79 2.705 2.595 1.905 2.595-.19 0-1.202-1.012-2.25-2.25zM516.5 536c.995-1.1 2.035-2 2.31-2 .275 0-.315.9-1.31 2-.995 1.1-2.035 2-2.31 2-.275 0 .315-.9 1.31-2zm-261.342-20c0-1.375.227-1.938.504-1.25.278.688.278 1.813 0 2.5-.277.688-.504.125-.504-1.25zM375 505c0-.55.477-1 1.059-1s.78.45.441 1c-.34.55-.816 1-1.059 1s-.441-.45-.441-1Zm10.813-2.683c.721-.289 1.584-.253 1.916.079.332.332-.258.568-1.312.525-1.165-.048-1.402-.285-.604-.604zm-38.47-27.817c.004-4.4.18-6.076.39-3.724.212 2.352.209 5.952-.007 8-.214 2.048-.387.124-.384-4.276zm216.977.5c0-3.575.182-5.037.403-3.25.222 1.788.222 4.713 0 6.5-.221 1.788-.403.325-.403-3.25zm80.759-8.583c.048-1.165.285-1.402.604-.604.289.721.253 1.584-.079 1.916-.332.332-.568-.258-.525-1.312zM406.872 452.25c-1.243-1.586-1.208-1.621.378-.378.963.755 1.75 1.543 1.75 1.75 0 .823-.821.294-2.128-1.372zm-9-8c-1.243-1.586-1.208-1.621.378-.378 1.666 1.307 2.195 2.128 1.372 2.128-.207 0-.995-.787-1.75-1.75zm-10-9c-1.243-1.586-1.208-1.621.378-.378 1.666 1.307 2.195 2.128 1.372 2.128-.207 0-.995-.787-1.75-1.75zm80.36-14.25c0-1.925.206-2.712.457-1.75.252.963.252 2.538 0 3.5-.251.963-.457.175-.457-1.75zm-24.98-1.5c.011-2.2.216-2.982.455-1.738.24 1.244.23 3.044-.02 4s-.446-.062-.435-2.262zM396 412.622c0-.207.787-.995 1.75-1.75 1.586-1.243 1.621-1.208.378.378-1.307 1.666-2.128 2.195-2.128 1.372ZM467.158 403c0-1.375.227-1.938.504-1.25.278.688.278 1.813 0 2.5-.277.688-.504.125-.504-1.25zm-22.963-1.5c.02-1.65.244-2.204.498-1.231.254.973.237 2.323-.037 3-.274.677-.481-.119-.461-1.769zm84.677-6.25c-1.243-1.586-1.208-1.621.378-.378 1.666 1.307 2.195 2.128 1.372 2.128-.207 0-.995-.787-1.75-1.75zM550.5 390c2.148-2.2 4.13-4 4.406-4 .275 0-1.258 1.8-3.406 4s-4.13 4-4.406 4c-.275 0 1.258-1.8 3.406-4zm24.658-4c0-1.375.227-1.938.504-1.25.278.688.278 1.813 0 2.5-.277.688-.504.125-.504-1.25zm-221.234-2.75-2.424-2.75 2.75 2.424c2.57 2.266 3.209 3.076 2.424 3.076-.179 0-1.416-1.238-2.75-2.75zm85.889-15.933c.721-.289 1.584-.253 1.916.079.332.332-.258.568-1.312.525-1.165-.048-1.402-.285-.604-.604zm30 0c.721-.289 1.584-.253 1.916.079.332.332-.258.568-1.312.525-1.165-.048-1.402-.285-.604-.604zm-23.734-1.9c.048-1.165.285-1.402.604-.604.289.721.253 1.584-.079 1.916-.332.332-.568-.258-.525-1.312zm3.173-9.917c.011-2.2.216-2.982.455-1.738.24 1.244.23 3.044-.02 4s-.446-.062-.435-2.262zm-2.02-20.5c0-1.925.206-2.712.457-1.75.252.963.252 2.538 0 3.5-.251.963-.457.175-.457-1.75zm16.926 0c0-1.375.227-1.938.504-1.25.278.688.278 1.813 0 2.5-.277.688-.504.125-.504-1.25zm-9.408-61.662c.688-.278 1.813-.278 2.5 0 .688.277.125.504-1.25.504s-1.938-.227-1.25-.504z"/>
	<path style="fill:#2c73ed" d="m359.405 653.75-1.905-2.25 2.25 1.905c2.114 1.79 2.705 2.595 1.905 2.595-.19 0-1.202-1.012-2.25-2.25zM550 655.622c0-.207.787-.995 1.75-1.75 1.586-1.243 1.621-1.208.378.378-1.307 1.666-2.128 2.195-2.128 1.372Zm5-6c0-.207.787-.995 1.75-1.75 1.586-1.243 1.621-1.208.378.378-1.307 1.666-2.128 2.195-2.128 1.372Zm4-5c0-.207.787-.995 1.75-1.75 1.586-1.243 1.621-1.208.378.378-1.307 1.666-2.128 2.195-2.128 1.372Zm13-16c0-.207.787-.995 1.75-1.75 1.586-1.243 1.621-1.208.378.378-1.307 1.666-2.128 2.195-2.128 1.372Zm-50-18c0-.207.787-.995 1.75-1.75 1.586-1.243 1.621-1.208.378.378-1.307 1.666-2.128 2.195-2.128 1.372Zm70-7c0-.207.787-.995 1.75-1.75 1.586-1.243 1.621-1.208.378.378-1.307 1.666-2.128 2.195-2.128 1.372ZM304.872 586.25c-1.243-1.586-1.208-1.621.378-.378 1.666 1.307 2.195 2.128 1.372 2.128-.207 0-.995-.787-1.75-1.75zm141.878-25.912c.688-.278 1.813-.278 2.5 0 .688.277.125.504-1.25.504s-1.938-.227-1.25-.504zm16 0c.688-.278 1.813-.278 2.5 0 .688.277.125.504-1.25.504s-1.938-.227-1.25-.504zM629 557.622c0-.207.787-.995 1.75-1.75 1.586-1.243 1.621-1.208.378.378-1.307 1.666-2.128 2.195-2.128 1.372ZM271.872 545.25c-1.243-1.586-1.208-1.621.378-.378 1.666 1.307 2.195 2.128 1.372 2.128-.207 0-.995-.787-1.75-1.75zm100-1c-1.243-1.586-1.208-1.621.378-.378.963.755 1.75 1.543 1.75 1.75 0 .823-.821.294-2.128-1.372zm-104-4c-1.243-1.586-1.208-1.621.378-.378.963.755 1.75 1.543 1.75 1.75 0 .823-.821.294-2.128-1.372zm131-1c-1.243-1.586-1.208-1.621.378-.378 1.666 1.307 2.195 2.128 1.372 2.128-.207 0-.995-.787-1.75-1.75zm201.734-27.402c1.042-1.459 2.094-2.459 2.338-2.222.245.236-.607 1.43-1.894 2.652l-2.338 2.222Zm-342.527-9.431c.048-1.165.285-1.402.604-.604.289.721.253 1.584-.079 1.916-.332.332-.568-.258-.525-1.312zm341.793-2.167c-1.243-1.586-1.208-1.621.378-.378 1.666 1.307 2.195 2.128 1.372 2.128-.207 0-.995-.787-1.75-1.75zm-201.122.088c.688-.278 1.813-.278 2.5 0 .688.277.125.504-1.25.504s-1.938-.227-1.25-.504zm113 0c.688-.278 1.813-.278 2.5 0 .688.277.125.504-1.25.504s-1.938-.227-1.25-.504zm-101-2c.688-.278 1.813-.278 2.5 0 .688.277.125.504-1.25.504s-1.938-.227-1.25-.504zm89 0c.688-.278 1.813-.278 2.5 0 .688.277.125.504-1.25.504s-1.938-.227-1.25-.504zm151.329-3.921c.048-1.165.285-1.402.604-.604.289.721.253 1.584-.079 1.916-.332.332-.568-.258-.525-1.312zM343 492.5c1.292-1.375 2.574-2.5 2.849-2.5.275 0-.557 1.125-1.849 2.5-1.292 1.375-2.574 2.5-2.849 2.5-.275 0 .557-1.125 1.849-2.5zm224.405-.75-1.905-2.25 2.25 1.905c1.238 1.048 2.25 2.06 2.25 2.25 0 .8-.805.21-2.595-1.905zm-305.326-6.333c.048-1.165.285-1.402.604-.604.289.721.253 1.584-.079 1.916-.332.332-.568-.258-.525-1.312zm387 0c.048-1.165.285-1.402.604-.604.289.721.253 1.584-.079 1.916-.332.332-.568-.258-.525-1.312zm-302-2c.048-1.165.285-1.402.604-.604.289.721.253 1.584-.079 1.916-.332.332-.568-.258-.525-1.312zM564.158 483c0-1.375.227-1.938.504-1.25.278.688.278 1.813 0 2.5-.277.688-.504.125-.504-1.25zm-95.08-7.583c.049-1.165.286-1.402.605-.604.289.721.253 1.584-.079 1.916-.332.332-.568-.258-.525-1.312zm95-8c.049-1.165.286-1.402.605-.604.289.721.253 1.584-.079 1.916-.332.332-.568-.258-.525-1.312zm-217-2c.049-1.165.286-1.402.605-.604.289.721.253 1.584-.079 1.916-.332.332-.568-.258-.525-1.312zm62.794-10.167c-1.243-1.586-1.208-1.621.378-.378.963.755 1.75 1.543 1.75 1.75 0 .823-.821.294-2.128-1.372zm129.207.167c.048-1.165.285-1.402.604-.604.289.721.253 1.584-.079 1.916-.332.332-.568-.258-.525-1.312zm-38.079.205c0-.207.787-.995 1.75-1.75 1.586-1.243 1.621-1.208.378.378-1.307 1.666-2.128 2.195-2.128 1.372Zm139.079-9.205c.048-1.165.285-1.402.604-.604.289.721.253 1.584-.079 1.916-.332.332-.568-.258-.525-1.312zM512 445.622c0-.207.787-.995 1.75-1.75 1.586-1.243 1.621-1.208.378.378-1.307 1.666-2.128 2.195-2.128 1.372Zm-36.188-6.305c.722-.289 1.585-.253 1.917.079.332.332-.258.568-1.312.525-1.165-.048-1.402-.285-.604-.604zm-202.733-1.9c.048-1.165.285-1.402.604-.604.289.721.253 1.584-.079 1.916-.332.332-.568-.258-.525-1.312zM522 436.622c0-.207.787-.995 1.75-1.75 1.586-1.243 1.621-1.208.378.378-1.307 1.666-2.128 2.195-2.128 1.372ZM468.232 415c0-1.925.206-2.712.457-1.75.252.963.252 2.538 0 3.5-.251.963-.457.175-.457-1.75zm-25-2c0-1.925.206-2.712.457-1.75.252.963.252 2.538 0 3.5-.251.963-.457.175-.457-1.75zm-80.252.476c-.696-.838-1.071-1.718-.835-1.955.237-.236.98.45 1.651 1.524 1.452 2.325.968 2.58-.816.43zm148.944-3.226-2.424-2.75 2.75 2.424c2.57 2.266 3.209 3.076 2.424 3.076-.179 0-1.416-1.238-2.75-2.75zM282.08 398.417c.048-1.165.285-1.402.604-.604.289.721.253 1.584-.079 1.916-.332.332-.568-.258-.525-1.312zm93.553.797c-.267-.432.349-.785 1.368-.785 1.02 0 1.635.353 1.368.785-.268.432-.883.786-1.368.786-.485 0-1.1-.354-1.368-.786zm-13.708-7.964-2.424-2.75 2.75 2.424c2.57 2.266 3.209 3.076 2.424 3.076-.179 0-1.416-1.238-2.75-2.75zm163.948 1c-1.243-1.586-1.208-1.621.378-.378.963.755 1.75 1.543 1.75 1.75 0 .823-.821.294-2.128-1.372zm-56.06-1.933c.722-.289 1.585-.253 1.917.079.332.332-.258.568-1.312.525-1.165-.048-1.402-.285-.604-.604zm-5.248-27.024c-.542-1.425-.428-1.54.56-.56.684.679.99 1.486.683 1.793-.308.308-.867-.247-1.243-1.233zM447.158 340c0-1.375.227-1.938.504-1.25.278.688.278 1.813 0 2.5-.277.688-.504.125-.504-1.25zm17-1c0-1.375.227-1.938.504-1.25.278.688.278 1.813 0 2.5-.277.688-.504.125-.504-1.25zm-.079-7.583c.048-1.165.285-1.402.604-.604.289.721.254 1.584-.079 1.916-.332.332-.568-.258-.525-1.312z"/>
	<path style="fill:#1c68ec" d="M370.064 660.284c-4.4-1.562-12.613-8.88-18.273-16.284-2.946-3.853-3.914-5.064-14.683-18.368-4.066-5.023-16.204-20.157-26.972-33.632-10.77-13.475-19.82-24.725-20.111-25-3.662-3.446-29.6-37.202-31.563-41.074-3.196-6.309-3.052-10.184 1.003-26.926 2.748-11.343 3.162-13.14 5.535-24 2.41-11.029 2.792-12.697 5.5-24 1.515-6.325 3.102-13.075 3.527-15 2.653-12.034 3.276-14.91 4.01-18.5.449-2.2 1.912-8.297 3.251-13.55 1.34-5.251 3.678-15.376 5.196-22.5 6.195-29.072 8.08-32.444 22.044-39.453 4.935-2.476 14.822-7.283 21.972-10.681 7.15-3.399 20.2-9.634 29-13.856 21.815-10.466 34.6-16.46 35.112-16.46.235 0 2.106-1.044 4.158-2.32 2.051-1.276 5.53-3.038 7.73-3.915 2.2-.878 11.65-5.284 21-9.792 29.873-14.404 27.132-14.38 56-.492 8.8 4.233 18.025 8.593 20.5 9.689 2.475 1.095 5.175 2.397 6 2.893.825.496 3.525 1.867 6 3.047 2.475 1.18 9.9 4.73 16.5 7.89 27.215 13.03 47.546 22.71 64.387 30.66 20.072 9.476 21.436 11.33 27.087 36.84.487 2.2 1.352 6.025 1.922 8.5.57 2.475 2.214 9.675 3.653 16 1.44 6.325 2.873 12.175 3.185 13 .312.825.726 2.4.92 3.5.693 3.918 4.571 21.225 7.957 35.5 1.89 7.975 3.845 16.3 4.343 18.5l1.927 8.5c.562 2.475 1.566 6.975 2.23 10 .666 3.025 2.263 9.712 3.55 14.86 1.286 5.147 2.339 11.125 2.339 13.283 0 3.737-3.357 11.835-6.478 15.627-5.5 6.682-20.655 25.529-23.505 29.23-1.906 2.475-3.717 4.725-4.025 5-.47.42-3.774 4.495-9.705 11.97-.667.842-4.668 5.805-8.891 11.03a17641.335 17641.335 0 0 0-24.944 31c-26.282 32.727-28.383 35.074-33.952 37.933l-5 2.567-82.5.18c-72.847.159-83.02-.004-86.936-1.396zm28.291-49.4c3.113-1.418 5.206-5.702 10.43-21.35.99-2.966 3.195-6.458 5.474-8.67l3.815-3.702 6.713 1.964C433.258 581.605 448.599 584 456 584c9.063 0 34.89-4.557 36.832-6.498.228-.229 1.896.714 3.707 2.095 3.446 2.629 5.936 7.187 8.96 16.403 4.198 12.795 6.382 15.455 12.688 15.455 5.048 0 7.813-2.99 7.813-8.451 0-4.12-.897-6.192-5.63-13.009-5.604-8.07-7.564-12.33-7.8-16.952-.23-4.531-.214-4.555 6.356-9.276 16.971-12.193 30.013-28.651 37.644-47.505 2.074-5.122 3.445-7.241 4.694-7.25.97-.007 2.636-.557 3.703-1.224 2.012-1.256 3.533-.867 20.533 5.248 6.744 2.426 12.473 2.203 15.578-.606 2.846-2.576 2.587-8.856-.492-11.935-2.754-2.754-3.316-2.896-17.586-4.447-7.743-.84-11.156-1.663-13-3.13-1.375-1.095-3.249-2.242-4.164-2.549-1.448-.485-1.592-1.764-1.11-9.849 1.114-18.675-3.33-38.238-12.76-56.182-4.279-8.14-4.66-9.366-3.423-11 .767-1.01 1.408-2.433 1.425-3.16.048-1.98 2.184-3.78 11.272-9.497 11.243-7.072 12.27-7.854 13.601-10.365 1.733-3.267 1.406-6.732-.914-9.681-1.712-2.177-2.885-2.634-6.75-2.632-4.578.003-4.892.215-14.843 10-8.358 8.22-10.704 9.997-13.19 9.997-1.665 0-3.313.465-3.665 1.034-.364.589-3.294-1.426-6.809-4.68-7.383-6.839-16.843-13.103-26.26-17.39-3.8-1.73-7.696-3.558-8.656-4.06-2.91-1.526-21.032-5.885-24.504-5.895-2.547-.007-3.25-.429-3.25-1.95 0-1.068-.478-2.236-1.062-2.597-2.456-1.519-2.828-5.534-1.396-15.078 2.173-14.47 1.991-17.005-1.465-20.46-3.979-3.98-8.22-3.935-12.282.127-3.019 3.019-3.044 3.134-2.4 10.75 1.91 22.58 1.91 22.7.22 24.103-.888.737-1.615 2.186-1.615 3.218 0 1.5-.754 1.881-3.75 1.893-4.684.02-18.122 3.324-24.75 6.087-10.646 4.437-22.187 10.511-24.5 12.894-.275.284-2.075 1.706-4 3.161-1.925 1.456-5.21 4.234-7.298 6.174-3.322 3.085-4.263 3.457-7.5 2.962-5.082-.775-4.976-.7-15.688-11.072-9.091-8.803-9.724-9.221-13.946-9.221-3.587 0-4.815.498-6.495 2.635-4.62 5.873-1.405 12.587 8.427 17.6 5.245 2.673 12.684 7.755 14.218 9.712.67.854 1.233 2.285 1.25 3.18.018.896.717 2.197 1.555 2.892 1.358 1.127 1.337 1.545-.192 3.872-11.02 16.773-17.168 40.33-16.082 61.619.369 7.218.196 10.49-.552 10.49-.598 0-2.237 1.083-3.642 2.406-2.634 2.48-12.271 4.594-20.95 4.594-7.944 0-13.105 3.97-13.105 10.08 0 2.887.62 4.262 2.635 5.847 3.78 2.973 7.75 2.603 21.08-1.966 9.478-3.248 12.235-3.835 14.082-3 1.263.571 3.176 1.039 4.25 1.039 1.074 0 1.953.51 1.953 1.134 0 2.582 9.283 20.463 14.372 27.685 6.108 8.667 18.252 20.702 26.72 26.48l5.567 3.799-.29 4.85c-.295 4.931-2.126 8.965-7.738 17.047-4.82 6.942-5.631 8.892-5.631 13.547 0 3.468.516 4.719 2.635 6.385 2.943 2.316 6.064 2.623 9.72.957zm49.145-50.492c-1.65-.242-6.263-1.135-10.25-1.984-6.903-1.47-8.453-2.672-6.395-4.958.47-.523 2.898-4.775 5.395-9.45 4.588-8.588 12.007-22.238 13.588-25 .473-.825 1.966-2.129 3.318-2.897 2.105-1.196 2.869-1.196 5.309 0 1.568.768 3.232 2.072 3.698 2.897.466.825 2.81 5.1 5.21 9.5 2.399 4.4 5.609 10.25 7.134 13 6.66 12.01 7.493 13.619 7.493 14.455 0 2.345-25.982 5.686-34.5 4.437zm54.048-16.931c-.851-2.038-1.548-3.863-1.548-4.056 0-.193-1.077-2.725-2.392-5.628-1.316-2.902-3.153-7.302-4.082-9.777-1.598-4.256-2.466-6.33-6.026-14.401-2.248-5.097-1.893-8.145 1.234-10.605 2.044-1.607 3.496-1.987 5.75-1.504 1.659.356 5.491 1.05 8.516 1.543 3.025.493 8.2 1.346 11.5 1.896 3.3.55 9.14 1.478 12.978 2.064 3.838.585 7.401 1.486 7.918 2.003 1.312 1.312-5.149 13.987-11.218 22.008-4.404 5.822-10.212 11.704-15.791 15.996-1.073.825-2.702 2.1-3.62 2.833-1.473 1.175-1.854.894-3.22-2.372zm-95.625.782c-9.635-6.52-19.853-18.203-25.791-29.492-5.306-10.087-5.29-10.12 5.764-11.811a1055.62 1055.62 0 0 0 12.354-1.976c21.356-3.581 23.068-3.646 25.75-.964 2.387 2.387 2.524 5.01.5 9.599-3.56 8.071-4.428 10.145-6.026 14.401-.929 2.475-2.701 6.75-3.938 9.5s-2.854 6.687-3.593 8.75c-1.545 4.308-1.579 4.321-5.02 1.993zm43.974-57.329c-5.59-2.732-5.605-2.752-6.816-8.91-1.05-5.336-1-6.463.366-8.337.87-1.192 2.587-3.624 3.817-5.405 2.113-3.06 2.577-3.238 8.454-3.25l6.217-.012 4.036 5.345c3.932 5.208 4.012 5.472 3.102 10.25-.91 4.778-2.013 8.405-2.556 8.405-.147 0-2.687 1.047-5.643 2.326l-5.374 2.326-5.603-2.738zM370 475.601c0-12.357 3.38-26.739 9.25-39.364 2.349-5.05 3.309-5.813 5.103-4.05.736.722 4.894 4.463 9.239 8.313 21.043 18.646 23.405 21.092 23.407 24.25.002 4.371-3.818 6.418-20.999 11.251-1.925.542-7.775 2.168-13 3.615-5.225 1.446-10.288 3.04-11.25 3.542-1.6.835-1.75.19-1.75-7.557zm167.5 6.438c-1.1-.455-4.025-1.377-6.5-2.049-2.475-.672-5.625-1.568-7-1.99a278.46 278.46 0 0 0-6.5-1.864c-20.853-5.71-22.5-6.553-22.5-11.515 0-3.35 1.27-4.69 20.96-22.121 2.485-2.2 6.323-5.683 8.53-7.74 2.205-2.056 4.336-3.743 4.735-3.75.772-.01 3.359 5.324 6.736 13.892 3.248 8.24 6.039 22.377 6.039 30.587 0 7.831-.309 8.28-4.5 6.55zm-104.037-43.07c-1.757-.657-33.503-22.845-35.96-25.134-1.748-1.629 9.69-10.357 21.214-16.188 4.97-2.514 15.963-5.97 22.641-7.116l3.858-.662-.704 7.013c-.388 3.858-1.01 13.977-1.384 22.489-.563 12.834-.984 15.812-2.468 17.452-2.176 2.405-4.583 3.122-7.197 2.145zm37.767-2.404c-1.62-2.06-2.013-4.789-2.55-17.75-.349-8.423-.933-18.335-1.298-22.025l-.664-6.71 3.891.565c13.305 1.934 30.771 10.056 40.083 18.638l4.283 3.949-2.237 1.745c-2.184 1.703-23.877 17.073-30.628 21.7-4.447 3.048-8.427 3.007-10.88-.112z"/>
	<path style="fill:#49699f" d="M400.497 855.799c-30.249-30.361-53.985-54.366-52.747-53.345 1.238 1.02 2.25 1.45 2.25.955 0-.496 23.85 22.945 53 52.091l53 52.993 53-52.993c29.15-29.146 53-52.587 53-52.091 0 .495 1.012.066 2.25-.955s-22.498 22.984-52.747 53.345C481.255 886.159 456.28 911 456 911c-.279 0-25.255-24.84-55.503-55.201zm109.007.951L562.5 803.5l-53.25 52.996L456 909.493l-53.25-52.997L349.5 803.5l52.996 53.25C431.645 886.038 455.721 910 456 910c.279 0 24.355-23.962 53.504-53.25zM56.499 522.999 1.505 467.998l55.447-55.25c30.497-30.386 54.614-54.236 53.593-52.998-1.02 1.238-1.45 2.25-.954 2.25S86.646 385.85 57.5 415L4.507 468 57.5 521c29.146 29.15 52.587 53 52.091 53-.495 0-.087.9.909 2 .995 1.1 1.626 2 1.402 2-.225 0-25.156-24.75-55.403-55.001zM56.5 521 3.507 468l52.995-53.25 52.996-53.25L56 414.749 2.505 467.998l52.994 53C84.646 550.15 108.718 574 108.993 574c.275 0-23.347-23.85-52.493-53Zm744.955 55.25c1.02-1.238 1.45-2.25.954-2.25s22.945-23.85 52.091-53l52.993-53-52.993-53c-29.146-29.15-52.587-53-52.091-53 .495 0 .066-1.012-.954-2.25s23.097 22.613 53.594 53L910.498 468l-55.45 55.25c-30.496 30.387-54.614 54.237-53.593 53zM856 414.75l-53.498-53.25 52.996 53.25L908.493 468l-52.995 53.25-52.996 53.25L856 521.25 909.498 468ZM400.75 56.951 456 1.502l55.25 55.45c30.387 30.496 54.237 54.614 53 53.593-1.238-1.02-2.25-1.45-2.25-.954S538.15 86.646 509 57.5L456 4.507 403 57.5c-29.15 29.146-53 52.587-53 52.091 0-.495-1.012-.066-2.25.954s22.613-23.097 53-53.594zm108.5-.449 53.25 52.996L509.25 56 456 2.502 402.75 56l-53.25 53.498 53.25-52.996L456 3.507Z"/>
	<path style="fill:#2e518e" d="M401 855.5 346.507 801H401v-69.5c0-45.667.343-69.5 1-69.5s1 24.167 1 70.5V803h-53.498l53.25 53.249L456 909.498l53.249-53.25L562.498 803H509v-70.5c0-46.333.343-70.5 1-70.5s1 23.833 1 69.5V801h54.493L511 855.5c-29.971 29.975-54.721 54.5-55 54.5-.279 0-25.029-24.525-55-54.5zM57.002 522.503 2.505 467.998l54.747-54.748L112 358.502V413h83.559c55.451 0 83.351.336 82.941 1-.404.654-29.677 1-84.559 1H110v-53.498l-53.249 53.25L3.502 468l53.25 53.249L110 574.498V521h73c48 0 73 .342 73 1 0 .657-24.661 1-71.984 1h-71.984l-.266 27.004-.266 27.004ZM800 550.25V523h-72.559c-48.118 0-72.35-.337-71.941-1 .403-.652 26.01-1 73.559-1H802v53.498l53.249-53.25L908.498 468l-53.25-53.249L802 361.502V415h-83.941c-54.882 0-84.155-.346-84.559-1-.41-.664 27.49-1 82.941-1H800v-54.498l54.749 54.75L909.498 468l-54.75 54.749L800 577.498ZM401 204.56V112h-54.498l54.75-54.749L456 2.502l54.749 54.75L565.498 112H511v92.559c0 61.451-.336 92.351-1 91.941-.655-.405-1-32.677-1-93.559V110h53.498l-53.25-53.249L456 3.502l-53.249 53.25L349.502 110H403v92.941c0 60.882-.345 93.154-1 93.559-.664.41-1-30.49-1-91.941z"/>
</svg>
