<svg data-name="Layer 1" xmlns="http://www.w3.org/2000/svg" viewBox="0 0 268 49">
	<path d="M10.168 9.597a15.96 15.96 0 0 1 11.916-4.786q9.678 0 14.153 6.417a13.987 13.987 0 0 1 2.654 7.232h-8.1a11.05 11.05 0 0 0-1.983-4.208q-2.165-2.525-6.415-2.524a7.905 7.905 0 0 0-6.828 3.563q-2.5 3.563-2.499 10.085 0 6.523 2.637 9.77a8.263 8.263 0 0 0 6.701 3.248 7.592 7.592 0 0 0 6.354-2.788 12.235 12.235 0 0 0 2.007-4.497h8.047a17.466 17.466 0 0 1-5.32 10.31 15.485 15.485 0 0 1-10.966 3.97q-8.274 0-13.009-5.365-4.735-5.39-4.735-14.78 0-10.15 5.386-15.647Z"/>
	<path d="M45.229 5.547h8.491l15.388 27.03V5.546h7.547V44.31h-8.098l-15.78-27.504V44.31h-7.548Z"/>
	<path d="M91.646 44.311h-8.047V5.547h8.047Z"/>
	<path d="M96.353 25.745h14.675v7.1H96.353Z"/>
	<path d="M143.217 17.645a7.594 7.594 0 0 0-4.498-5.55 11.036 11.036 0 0 0-4.444-.867 9.663 9.663 0 0 0-7.693 3.53q-3.012 3.53-3.01 10.617 0 7.14 3.26 10.105a10.719 10.719 0 0 0 7.416 2.966 9.61 9.61 0 0 0 6.68-2.339 10.093 10.093 0 0 0 3.209-6.128h-8.967v-6.47h16.146v20.802h-5.365l-.814-4.839a18.526 18.526 0 0 1-4.21 3.875 14.85 14.85 0 0 1-7.888 1.964 16.396 16.396 0 0 1-12.623-5.336q-5.13-5.361-5.128-14.665 0-9.408 5.18-15.085 5.18-5.677 13.702-5.677 7.389 0 11.873 3.747a13.937 13.937 0 0 1 5.143 9.35Z"/>
	<path d="M177.122 16.227a11.656 11.656 0 0 1 4.954 4.24 14.092 14.092 0 0 1 2.283 5.926 36.573 36.573 0 0 1 .247 5.69H163.73q.175 4.313 2.998 6.048a7.611 7.611 0 0 0 4.132 1.078 5.823 5.823 0 0 0 5.704-3.287h7.653a9.365 9.365 0 0 1-2.78 5.18q-3.85 4.182-10.784 4.182a15.626 15.626 0 0 1-10.096-3.527q-4.374-3.527-4.374-11.476 0-7.448 3.948-11.423a13.822 13.822 0 0 1 10.25-3.975 16.318 16.318 0 0 1 6.742 1.344ZM165.91 22.7a7.795 7.795 0 0 0-1.996 4.437h12.912a6.251 6.251 0 0 0-1.996-4.53 6.569 6.569 0 0 0-4.445-1.545 5.946 5.946 0 0 0-4.475 1.638Z"/>
	<path d="M211.512 17.29q2.815 2.327 2.815 7.718v19.303h-7.679V26.875a8.008 8.008 0 0 0-.6-3.471q-1.097-2.21-4.177-2.21a5.177 5.177 0 0 0-5.195 3.236 11.183 11.183 0 0 0-.732 4.365V44.31h-7.495V15.698h7.259v4.182a12.708 12.708 0 0 1 2.724-3.182 9.435 9.435 0 0 1 5.84-1.736 10.986 10.986 0 0 1 7.24 2.328Z"/>
	<path d="M229.002 12.227h-7.6V5.311h7.6Zm-7.6 3.419h7.6v28.665h-7.6Z"/>
	<path d="M254.94 16.227a11.656 11.656 0 0 1 4.954 4.24 14.092 14.092 0 0 1 2.283 5.926 36.57 36.57 0 0 1 .247 5.69h-20.878q.176 4.313 2.998 6.048a7.611 7.611 0 0 0 4.133 1.078 5.823 5.823 0 0 0 5.704-3.287h7.652a9.365 9.365 0 0 1-2.78 5.18q-3.85 4.182-10.783 4.182a15.626 15.626 0 0 1-10.097-3.527Q234 38.23 234 30.281q0-7.448 3.948-11.423a13.822 13.822 0 0 1 10.251-3.975 16.318 16.318 0 0 1 6.741 1.344ZM243.726 22.7a7.795 7.795 0 0 0-1.997 4.437h12.913a6.251 6.251 0 0 0-1.997-4.53 6.569 6.569 0 0 0-4.445-1.545 5.946 5.946 0 0 0-4.474 1.638Z"/>
</svg>
