<svg xmlns="http://www.w3.org/2000/svg" width="200" height="128">
	<path d="M146 62.866a5.925 5.925 0 0 1 3.686-1.083 2.524 2.524 0 0 1 2.687 2.619c.078 1.542-.014 3.092.032 4.637.024.827-.412 1.884 1.01 2.15.452.084.307.714.288 1.12-.027.592-.484.549-.9.592-3.618.374-3.611.377-3.621-3.215 0-1.334-.023-2.669-.08-4-.034-.788-.367-1.434-1.292-1.25-.771.154-1.757.157-1.743 1.381.016 1.405 0 2.811 0 4.217 0 .509.013.956.7 1.067.847.136.569.858.511 1.351-.068.572-.614.44-1.006.444q-1.9.019-3.795 0c-.4 0-.913.058-.965-.53-.041-.454-.251-1.08.438-1.223.906-.188.787-.843.787-1.462 0-3.022-.017-6.044.016-9.066.008-.783-.156-1.342-.954-1.64-.657-.245-.369-.828-.316-1.277.067-.57.557-.509.97-.551 3.54-.359 3.54-.361 3.542 3.278zm-55.765 4.977a1.975 1.975 0 0 0-1.121 1.957c.034.676.021 1.283.931 1.308.695.019.7.5.706 1.035 0 .731-.48.752-.993.754-1.405 0-2.81.01-4.215 0-.465 0-1.057.124-1.051-.639 0-.452-.206-1.072.538-1.144.828-.081.776-.657.777-1.222 0-3.161-.008-6.322.008-9.484 0-.611-.071-1.126-.747-1.323-.651-.189-.584-.68-.521-1.184.079-.641.515-.757 1.054-.755 1.109.005 2.218 0 3.484 0v8.444a8.765 8.765 0 0 0 2.564-2.441 3.438 3.438 0 0 1 3.357-1.236c.453.032.865.069.858.649-.006.464.177 1.025-.466 1.246-.264.09-.611.016-.817.193-1.533 1.325-1.794 1.758-1.044 3.169q.64 1.206 1.3 2.4c.366.664.611 1.432 1.557 1.544.724.085.57.682.549 1.152-.026.57-.453.625-.9.627H95.2c-2.417.029-2.417.029-3.469-2.075q-.745-1.484-1.496-2.975zM48.53 65.388c-.361-7.07 6.186-9.254 11.6-7.246a1.337 1.337 0 0 1 1 1.4c0 .627-.022.984-.022 1.468 0 .846.141 1.7-.828 1.745s-1.85-.08-1.846-1.362c0-1.009-.6-1.245-1.482-1.338-2.436-.258-4.126.786-4.742 3.133a7.937 7.937 0 0 0 .1 4.556 3.863 3.863 0 0 0 4.475 2.9c.985-.108 1.786-.378 1.835-1.563s.926-.968 1.671-.972c1.012-.007.811.743.832 1.343.016.491.005.983.011 1.472a1.486 1.486 0 0 1-1.242 1.643 11.706 11.706 0 0 1-7.031.178c-2.549-.805-3.8-2.728-4.2-5.267a20 20 0 0 1-.131-2.09zm76.017-3.637a14.377 14.377 0 0 1 1.884.154 2.639 2.639 0 0 1 2.4 2.516 32.081 32.081 0 0 1 .2 4.616c.031.837-.367 1.86.975 2.2.43.11.308.734.238 1.136-.1.552-.13.417-.751.489-.339.039-2.605.716-3.407-.721-.1-.187-.489.108-.712.248a5.312 5.312 0 0 1-2.162.767c-1.981.261-3.379-.61-3.688-2.266a3.074 3.074 0 0 1 2.7-3.969c.755-.143 1.537-.144 2.292-.287.477-.091 1.236.2 1.282-.681.037-.7.056-1.483-.689-1.851-.572-.283-1.453-.4-1.733.181-.645 1.339-1.707.887-2.684.879-.845-.006-.846-.573-.68-1.172.349-1.259 1.515-2.03 3.278-2.172.418-.033.843-.069 1.263-.069.008.094-.01.151-.006.002zm.358 6.8c-1.475-.01-2.146.4-2.06 1.239a1.016 1.016 0 0 0 1.136.967 1.677 1.677 0 0 0 1.834-1.524c.01-.77-.482-.702-.91-.683zm-51.733-1.304c.263 3.181-1.423 5.892-5.481 5.938-3.57.04-5.565-1.988-5.566-5.642 0-3.725 2.007-5.754 5.7-5.76 3.658-.006 5.339 1.717 5.347 5.464zm-3.379.019a10.643 10.643 0 0 0-.106-1.425 1.948 1.948 0 0 0-3.825-.277 6.024 6.024 0 0 0 .1 4.08 1.643 1.643 0 0 0 1.589 1.133 1.812 1.812 0 0 0 1.87-1.035 5.559 5.559 0 0 0 .372-2.476zm37.88.18a5.68 5.68 0 0 1 8.755-5.01 3.433 3.433 0 0 1 .517.363c1.993 1.687 1.977 3.963 1.61 6.207a4.584 4.584 0 0 1-3.617 3.929c-3.459.894-6.273-.421-7.106-3.4a8.664 8.664 0 0 1-.159-2.089zm7.617 0a10.937 10.937 0 0 0-.1-1.454c-.223-1.136-1.015-1.955-1.894-1.908a2.091 2.091 0 0 0-2.081 1.733 6.343 6.343 0 0 0 .151 3.7 1.815 1.815 0 0 0 1.934 1.263 1.757 1.757 0 0 0 1.7-1.284 5.674 5.674 0 0 0 .29-2.053z" fill="#1e3050"/>
	<path d="M159.614 67.449c0-1.47.024-2.941-.011-4.41-.018-.782.235-1.175 1.073-1.129a26.558 26.558 0 0 1 4.6.247c3.14.72 4.509 2.417 4.412 5.632a5.155 5.155 0 0 1-4.742 5c-1.451.176-2.935.067-4.4.111-.754.023-.948-.361-.935-1.041.023-1.47.004-2.94.003-4.41zm2.547 3.158c1.9.033 3.6.053 4.589-1.678a2.79 2.79 0 0 0-.226-3.332c-1.154-1.407-2.7-1.412-4.363-1.139z" fill="#3c910e"/>
	<path d="M140.024 72.1a4.423 4.423 0 0 1-2.292.907c-4.518.956-7.477-1.624-7.1-6.184A5.113 5.113 0 0 1 136 61.789a12.511 12.511 0 0 1 1.677.054c2.325.254 2.476.55 2.476 2.861 0 .545.127 1.259-.61 1.286s-1.668.249-1.87-.822c-.141-.748-.44-1.133-1.217-1.122a2.04 2.04 0 0 0-2.016 1.254 5.1 5.1 0 0 0 .045 4.085c.5 1.1 1.586 1.488 3.049 1.229 1.911-.338 1.911-.338 2.49 1.486zM80.559 61.786c.173.012.668.016 1.152.088 2.063.307 2.15 1.585 2.15 3.607 0 .429-.4.554-.777.526-.6-.044-1.4.2-1.6-.623-.245-.978-.711-1.519-1.753-1.317a2.2 2.2 0 0 0-1.79 1.844 6.654 6.654 0 0 0-.187 1.45c0 2.649 1.331 3.71 3.9 3.162.551-.117 1.131-.684 1.645.172.646 1.079.506 1.606-.7 2.028a8.4 8.4 0 0 1-1.02.253c-4.518.976-8.224-1.446-7.042-7.291.532-2.651 2.592-3.93 6.022-3.899zm21.594 1.368a4.045 4.045 0 0 1 3.719-1.363c.656.084.985.265.982 1.011 0 .968-.013 3.135-.013 3.135s-2.815.532-3.028-1.511c-.7.176-1.4.374-1.435.944a41.823 41.823 0 0 0-.028 5.032c.04.725.81.666 1.353.657.821-.015 1.094.337 1.039 1.14-.063.925-.722.685-1.225.692-1.612.023-3.225.01-4.837 0-.428 0-.876-.021-.922-.595-.033-.405-.168-.993.307-1.108 1.236-.3.893-1.233.92-2.008.036-1.05.027-2.1 0-3.154-.019-.863.259-1.775-.984-2.242-.613-.23-.274-1.753.4-1.823a16.416 16.416 0 0 1 2.932.029c.609.051.256.866.82 1.164z" fill="#1e3050"/>
	<path d="M179.8 68.607c-.339-1.141-1.1-1.141-1.732-1.507.938-.925 1.633-1.952 1.069-3.332-.6-1.471-1.935-1.731-3.29-1.822-1.187-.08-2.385.019-3.574-.045-.957-.051-1.2.381-1.181 1.25.039 2.173.012 4.348.012 6.522 0 3.228 0 3.191 3.176 3.239 2.06.031 4.736.365 5.52-1.775a4.125 4.125 0 0 0 0-2.53zm-3.068-3.46c-.011.715-.7 1.183-1.941 1.163-.433 0-.764-.011-1.023-.031v-2.206c.246-.025.567-.037 1-.037 1.217 0 1.98.121 1.965 1.111zm-2.116 5.669a9.24 9.24 0 0 1-.848-.027v-2.356a8.366 8.366 0 0 1 1.3-.061c1.5 0 2.183.521 2.157 1.361-.041 1.229-1.187 1.083-2.608 1.083z" fill="#3c910e"/>
	<path d="M35.329 58.612a12.281 12.281 0 0 1-5.536 0 12.335 12.335 0 0 1 2.768-3.084 12.409 12.409 0 0 1 2.768 3.084zm8.345-6.783a13.746 13.746 0 0 0-11.113 1.862 13.8 13.8 0 0 0-11.136-1.862 12.9 12.9 0 0 0-1.412.442.056.056 0 0 0 0 .071 13.418 13.418 0 0 0 .655 1.238.052.052 0 0 0 .063 0 13.137 13.137 0 0 1 1.427-.426 12.346 12.346 0 0 1 9.142 1.483 13.814 13.814 0 0 0-2.981 3.534c-.158.252-.292.512-.434.788s-.173.355-.26.544-.245.568-.347.852A13.771 13.771 0 0 0 30.66 75.1c.2.2.418.386.639.576s.347.291.529.425.465.347.7.5a.057.057 0 0 0 .064 0c.236-.165.473-.331.7-.5s.354-.276.528-.425.434-.379.639-.576a13.8 13.8 0 0 0 3.383-14.749c-.11-.292-.228-.575-.355-.859s-.173-.371-.26-.545-.276-.52-.434-.788a13.888 13.888 0 0 0-2.981-3.534 12.346 12.346 0 0 1 9.149-1.451 12.643 12.643 0 0 1 1.427.426.057.057 0 0 0 .064 0q.347-.6.646-1.23a.056.056 0 0 0 0-.071 13.251 13.251 0 0 0-1.424-.47z" fill="#151f34"/>
	<path d="M37.222 65.158a12.232 12.232 0 0 1-3.352 8.432 12.4 12.4 0 0 1-.57-3.69 12.231 12.231 0 0 1 3.352-8.431 12.3 12.3 0 0 1 .568 3.691" fill="#348540"/>
	<path d="M31.843 69.9a12.234 12.234 0 0 1-.568 3.692 12.26 12.26 0 0 1-2.784-12.123 12.222 12.222 0 0 1 3.352 8.431" fill="#7dbc42"/>
</svg>
