<svg xmlns="http://www.w3.org/2000/svg" viewBox="-7.81 -0.81 588.12 462.12">
	<defs>
		<clipPath id="a" clipPathUnits="userSpaceOnUse">
			<path d="M0 340h430V0H0z"/>
		</clipPath>
		<clipPath id="b" clipPathUnits="userSpaceOnUse">
			<path d="M214.913 319.358c-13.091 8.343-28.177 12.739-43.815 12.739a82.146 82.146 0 0 1-16.472-1.663l2.009-8.057a73.852 73.852 0 0 0 14.463 1.427c12.92 0 25.42-3.339 36.49-9.702-19.219-15.451-30.525-38.816-30.525-63.664 0-26.922 13.272-52.104 35.501-67.364l2.346-1.612 2.346 1.612a81.751 81.751 0 0 1 33.08 47.627l.001.001a81.594 81.594 0 0 1 2.42 19.736c0 24.847-11.305 48.212-30.522 63.662 11.071 6.364 23.571 9.704 36.492 9.704a73.89 73.89 0 0 0 14.46-1.426l2.007 8.057a82.089 82.089 0 0 1-16.467 1.662c-15.636 0-30.723-4.396-43.814-12.739m-14.705-49.234a20.3 20.3 0 0 0-.029 24.523 73.52 73.52 0 0 0 14.731 14.639 73.525 73.525 0 0 0 14.912-14.879c5.327-7.115 5.31-16.935-.027-24.042a73.709 73.709 0 0 0-14.885-14.829 73.691 73.691 0 0 0-14.702 14.588m18.848-31.421c0 5.7 2.398 11.147 6.635 14.957a81.88 81.88 0 0 1 15.424 18.686 73.246 73.246 0 0 0 3.349-21.908c0-21.439-9.369-41.651-25.408-55.517zm-33.699 11.735a73.246 73.246 0 0 0 3.349 21.908 81.901 81.901 0 0 1 15.423-18.686c4.238-3.81 6.635-9.257 6.635-14.957v-43.782a73.384 73.384 0 0 0-25.407 55.517"/>
		</clipPath>
	</defs>
	<path fill="#060034" d="M162.417 438.439h37.168v10.039h-49.01v-83.955h11.842z"/>
	<g clip-path="url(#a)" transform="matrix(1.33333 0 0 -1.33333 0 453.333)" fill="#060034">
		<path d="M245.106 27.389c0 10.715-5.406 17.955-13.708 17.955-8.592 0-14.77-6.66-14.77-17.955 0-11.391 6.275-17.858 14.77-17.858 8.205 0 13.708 7.143 13.708 17.858m8.494 0c0-15.059-8.881-25.002-20.947-25.002-7.529 0-12.936 2.993-16.218 8.398V3.642h-7.819v62.966h8.302V44.475c3.282 5.02 8.591 7.916 15.735 7.916 12.26 0 20.947-9.942 20.947-25.002"/>
		<path d="M189.854 28.088v-6.684c0-7.819-6.661-12.453-14.866-12.453-6.082 0-9.75 2.413-9.75 6.757 0 2.155.718 3.79 2.01 5.082 4.734 4.735 18.694 4.647 22.606 7.298m-11.391 24.399c-7.229 0-13.566-2.894-19.229-7.142v-8.59c3.892 3.145 11.189 8.879 19.518 8.879 3.659 0 6.687-1.05 8.651-3.014a7.934 7.934 0 0 0 1.692-2.471c1.325-3.047-.57-6.534-3.84-7.128l-6.02-1.095c-11.873-2.124-22.106-5.405-22.106-16.507 0-9.461 7.723-13.322 16.99-13.322 7.143 0 12.936 2.606 16.121 7.433V3.642h7.53v33.014c0 9.267-6.758 15.831-19.307 15.831"/>
		<path d="M281.696 31.636c-8.688 1.931-12.743 2.896-12.743 7.048 0 4.054 3.958 7.047 10.426 7.047 5.711 0 9.574-1.506 17.317-7.272v8.724c-5.474 3.867-10.49 5.305-17.317 5.305-11.005 0-18.438-5.792-18.438-14.094 0-7.916 4.634-10.715 17.279-13.418 7.626-1.641 13.322-3.089 13.322-8.302 0-4.73-4.633-7.529-10.812-7.529-6.278 0-9.674 1.795-18.997 8.706l-.019-.078V8.705c6.207-4.747 11.664-6.415 18.92-6.415 11.487 0 19.017 5.986 19.017 14.77 0 8.398-5.6 11.777-17.955 14.576"/>
		<path d="M68.51 103.528c0-10.715 5.889-18.148 15.059-18.148 9.171 0 14.963 7.433 14.963 18.148 0 10.716-5.792 18.148-14.963 18.148-9.17 0-15.059-7.432-15.059-18.148m38.517 0c0-14.865-9.654-25.099-23.458-25.099-13.901 0-23.554 10.234-23.554 25.099 0 14.866 9.653 25.099 23.554 25.099 13.804 0 23.458-10.233 23.458-25.099"/>
		<path d="M234.304 119.427c-2.463.697-4.424.995-6.284.995-6.371 0-11.102-5.502-11.102-15.155V79.781h-8.301v47.495h7.819v-7.144c2.221 4.634 6.178 7.928 11.777 7.928 3.964 0 6.086-1.171 6.086-1.171z"/>
		<path d="M245.5 103.528c0-10.715 5.889-18.148 15.06-18.148 9.17 0 14.962 7.433 14.962 18.148 0 10.716-5.792 18.148-14.962 18.148-9.171 0-15.06-7.432-15.06-18.148m38.518 0c0-14.865-9.654-25.099-23.458-25.099-13.901 0-23.554 10.234-23.554 25.099 0 14.866 9.653 25.099 23.554 25.099 13.804 0 23.458-10.233 23.458-25.099"/>
		<path d="M324.102 104.228v-6.684c0-7.819-6.661-12.453-14.866-12.453-6.082 0-9.75 2.413-9.75 6.758 0 2.154.718 3.789 2.01 5.081 4.735 4.735 18.694 4.648 22.606 7.298m-11.391 24.399c-7.229 0-13.565-2.893-19.229-7.142v-8.59c3.892 3.145 11.188 8.879 19.518 8.879 3.659 0 6.687-1.049 8.652-3.014a7.973 7.973 0 0 0 1.691-2.47c1.325-3.048-.57-6.535-3.84-7.129l-6.02-1.095c-11.873-2.123-22.106-5.405-22.106-16.507 0-9.46 7.723-13.321 16.99-13.321 7.143 0 12.935 2.606 16.121 7.432v-5.888h7.53v33.014c0 9.267-6.758 15.831-19.307 15.831"/>
		<path d="M427.005 112.314V79.782h-8.302v29.926c0 7.818-3.861 11.873-10.908 11.873-6.853 0-12.26-5.31-12.26-12.357V79.782h-8.301v62.966h8.301v-20.877c3.186 4.44 8.399 6.756 14.481 6.756 11.487 0 16.989-7.432 16.989-16.313"/>
		<path d="M149.686 90.122s-5.807-4.101-12.381-4.101c-12.438 0-14.559 12.956-14.559 17.629 0 2.567.863 17.513 14.913 17.513 6.395 0 12.027-3.099 12.027-3.099v7.511c-4.508 2.556-9.176 3.217-12.415 3.217-14.641 0-23.079-11.934-23.079-24.712 0-22.222 16.606-25.618 22.686-25.618 2.685 0 8.256.466 12.808 3.378z"/>
		<path d="M376.887 90.122s-5.808-4.101-12.381-4.101c-12.438 0-14.559 12.956-14.559 17.629 0 2.567.863 17.513 14.914 17.513 6.394 0 12.026-3.099 12.026-3.099v7.511c-4.508 2.556-9.176 3.217-12.414 3.217-14.642 0-23.079-11.934-23.079-24.712 0-22.222 16.605-25.618 22.685-25.618 2.686 0 8.256.466 12.808 3.378z"/>
		<path d="M192.797 79.781h9.267l-19.085 28.533-.009.014a80.574 80.574 0 0 1 11.757 18.947h-9.044a72.483 72.483 0 0 0-17.309-22.222v37.694h-8.302V79.781h8.302v14.855a80.817 80.817 0 0 1 9.299 7.923z"/>
		<path d="M32.534 86.474c-21.3 0-20.973 22.25-20.973 24.812 0 23.704 17.924 24.376 21.706 24.376 7.355 0 13.361-2.741 18.859-7.504v9.664c-3.922 2.72-10.089 6.171-18.859 6.171-11.31 0-30.452-6.889-30.452-32.707 0-2.483.362-11.207 5.006-19.229 5.152-8.898 13.697-13.601 24.713-13.601 8.814 0 14.144 2.894 19.592 6.881v9.615c-7.124-5.533-10.938-8.478-19.592-8.478"/>
	</g>
	<g clip-path="url(#b)" transform="matrix(1.33333 0 0 -1.33333 0 453.333)">
		<path fill="#00569c" d="m152.68 176.856 1.93 4.6-3.52-3.528z"/>
		<path fill="#1f55a3" d="m181.137 230.974 6.792-2.496-.986 7.806z"/>
		<path fill="#00579c" d="m150.019 179.517 1.072-1.59 3.518 3.53z"/>
		<path fill="#00569c" d="M154.626 176.463h15.071l-7.535 2.522zm-1.946.393 1.946-.393-.017 4.993z"/>
		<path fill="#172a71" d="m264.246 190.498.894-4.88 4.876.913z"/>
		<path fill="#1f5096" d="m179.159 198.676-5.808 1.228 1.506-5.319z"/>
		<path fill="#19266e" d="m275.42 180.844-4.377 1.25 4.152-5.631z"/>
		<path fill="#1557a4" d="m180.605 223.758-5.776-2.848 5.351-3.583z"/>
		<path fill="#00569c" d="m154.61 181.456.016-4.993 7.536 2.522z"/>
		<path fill="#5c64ad" d="m220.374 231.757.108 7.386-4.719-1z"/>
		<path fill="#004994" d="m153.788 243.876 6.87 1.616-5.102 3.453z"/>
		<path fill="#76bed3" d="m247.345 285.97 1.79 1.67-2.093 1.27z"/>
		<path fill="#00579d" d="m149.629 181.291.39-1.774 4.59 1.94z"/>
		<path fill="#0059a2" d="m162.003 206.704 6.541 3.24-4.199 3.533z"/>
		<path fill="#00579e" d="m152.28 186.173-2.651-4.882 4.98.165z"/>
		<path fill="#5757a6" d="m206.447 217.69-4.432-4.449 6.184-.622z"/>
		<path fill="#060034" d="m154.187 332.536-1.074 1.939-3.487-2.378zm6.191 1.706-2.348-6.997 7.416 3.052z"/>
		<path fill="#060034" d="m153.113 334.475-3.211-.736-.276-1.642z"/>
		<path fill="#060034" d="m149.902 333.74 3.211.735-2.406.728zm2.648-6.434-2.924 4.791v-9.425z"/>
		<path fill="#1c3c83" d="m197.233 302.076-4.856 2.221.833-4.597z"/>
		<path fill="#225ba7" d="m215.216 298.278-7.294-1.512 4.92-5.592z"/>
		<path fill="#060034" d="m153.457 336.96-1.071-.392.727-2.093z"/>
		<path fill="#060034" d="m151.52 336.016 1.593-1.541-.727 2.093z"/>
		<path fill="#03002f" d="m271.13 333.673 4.065 3.424h-7.536z"/>
		<path fill="#110749" d="m235.27 188.017 4.144 4.844-6.37-.231z"/>
		<path fill="#100b49" d="m177.745 315-2.549-5.538 8.14-.964z"/>
		<path fill="#060034" d="m153.457 336.96-.344-2.485 1.513 2.622z"/>
		<path fill="#203079" d="m161.763 265.825-4.956.54-1.288-4.816z"/>
		<path fill="#004b95" d="m252.453 211.022 4.128-4.24 1.63 6.932z"/>
		<path fill="#5955a5" d="m208.2 212.62 7.127-1.274-3.514 6.33z"/>
		<path fill="#005aa5" d="m155.364 219.135 3.504-5.986 2.15 5.014z"/>
		<path fill="#19266e" d="m276.364 176.6.354 2.47-1.523-2.607z"/>
		<path fill="#0058a0" d="m157.3 197.867-4.896-2.438 3.5-5.441z"/>
		<path fill="#3167ae" d="m241.797 226.212 3.927-5.838 3.874 6.846z"/>
		<path fill="#5c64ad" d="m220.374 231.757 1.873-4.594 6.038 1.28z"/>
		<path fill="#19266e" d="m276.364 176.6 1.071.392-.717 2.078z"/>
		<path fill="#162266" d="m252.488 191.8-2.416-6.104 4.606 1.707z"/>
		<path fill="#19266f" d="m279.113 178.357.806 1.464-3.201-.751z"/>
		<path fill="#171c62" d="M260.124 176.463h15.07l-7.535 2.585z"/>
		<path fill="#19276f" d="m280.195 181.463-4.774-.619 1.297-1.774z"/>
		<path fill="#00458e" d="m275.61 205-.135-5.48 4.72.772z"/>
		<path fill="#005aa5" d="m158.868 213.149-6.253 1.131 2.775-7.984z"/>
		<path fill="#19276f" d="m280.195 181.463-3.477-2.393 3.2.75z"/>
		<path fill="#0c0146" d="m241.285 179.931-7.67 3.238 3.902-6.706z"/>
		<path fill="#19266e" d="m276.718 179.07.717-2.078.866.552z"/>
		<path fill="#182870" d="m270.016 186.53-4.876-.912 5.903-3.523z"/>
		<path fill="#060034" d="m275.903 326.548-5.307 2.279-.037-5.175z"/>
		<path fill="#103f8c" d="m230.248 328.506-5.31-6.107 6.444-.675z"/>
		<path fill="#00002a" d="m280.057 333.266-2.469.354 2.607-1.523z"/>
		<path fill="#060034" d="m150.707 335.203 2.406-.728-1.593 1.54z"/>
		<path fill="#00002a" d="m275.195 337.097.619-4.774 1.774 1.297z"/>
		<path fill="#0d003f" d="m263.891 331.103-3.501-7.88 5.358 2.337zm0 0 6.705-2.276.533 4.846z"/>
		<path fill="#00002a" d="m277.588 333.62-1.774-1.297 4.38-.226z"/>
		<path fill="#00002a" d="m279.666 334.337-2.078-.717 2.47-.354zm-2.078-.717-.75 3.201-1.643.276zm0 0 2.078.717-.553.866z"/>
		<path fill="#19266e" d="m276.718 179.07-1.297 1.774-.226-4.381z"/>
		<path fill="#19266f" d="m279.113 178.357-2.395.713 1.583-1.526z"/>
		<path fill="#000029" d="m278.3 336.016-.712-2.396 1.525 1.583zm0 0-1.463.805.751-3.201z"/>
		<path fill="#3971a2" d="m270.247 292.113-2.795 5.22-2.771-5.703z"/>
		<path fill="#060034" d="m153.113 334.475 1.074-1.939.439 4.561z"/>
		<path fill="#00579f" d="m171.8 205.333-5.034-.29 2.39-7.121z"/>
		<path fill="#113f8e" d="m251.63 304.836-4.133-3.28 3.782-3.68z"/>
		<path fill="#3371b4" d="m245.32 229.641-3.523-3.43 7.801 1.009z"/>
		<path fill="#060034" d="m275.903 326.548-2.733-7.364 7.025 3.498z"/>
		<path fill="#12357e" d="m280.195 195.585-4.72 3.935-.882-4.7z"/>
		<path fill="#00569d" d="m162.054 191.43-2.043-6.241 4.504 1.98z"/>
		<path fill="#00438d" d="m256.581 206.782-6.224-1.293 5.116-3.72z"/>
		<path fill="#00559b" d="m160.011 185.189-4.107 4.799-3.623-3.815z"/>
		<path fill="#19256d" d="m271.043 182.095 4.378-1.25.52 5.904z"/>
		<path fill="#144d91" d="m173.465 179.884-6.467 1.032 2.7-4.453z"/>
		<path fill="#00559b" d="m160.011 185.189-5.402-3.733 7.553-2.471z"/>
		<path fill="#165196" d="m174.857 194.585-1.506 5.319-4.195-1.982z"/>
		<path fill="#153077" d="m262.909 195.529-3.839-4.753 5.176-.278z"/>
		<path fill="#4a519c" d="m225.558 215.922.562 6.435-5.235-3.785z"/>
		<path fill="#162e76" d="m270.21 191.832 4.383 2.988-6.6 1.83z"/>
		<path fill="#161e62" d="m254.678 187.403 4.392 3.373-6.582 1.024z"/>
		<path fill="#00559b" d="m160.011 185.189 6.987-4.273-2.483 6.254z"/>
		<path fill="#005aa3" d="m154.235 201.603-1.83-6.174 4.895 2.438z"/>
		<path fill="#19266e" d="m275.195 176.463-4.152 5.632-3.384-3.047z"/>
		<path fill="#162e77" d="m280.195 190.878-4.255-4.129 4.255-5.286z"/>
		<path fill="#172a71" d="m264.246 190.498 5.964 1.334-2.217 4.819z"/>
		<path fill="#182a73" d="m275.94 186.75-5.73 5.082-.194-5.301z"/>
		<path fill="#19276f" d="m280.195 181.463-4.255 5.286-.52-5.905z"/>
		<path fill="#044089" d="m266.895 203.286-4.126 4.956-2.163-6.381z"/>
		<path fill="#035296" d="m166.998 180.916-4.836-1.931 7.535-2.522z"/>
		<path fill="#00579e" d="m155.904 189.988 4.107-4.8 2.043 6.242z"/>
		<path fill="#1b4a8d" d="M177.233 176.463h7.535L181 180.519z"/>
		<path fill="#165196" d="m174.857 194.585-5.701 3.337.327-4.629z"/>
		<path fill="#00579e" d="m155.904 189.988 6.15 1.442-4.754 6.437zm-3.623-3.815 3.623 3.815-6.275.729z"/>
		<path fill="#035296" d="m166.998 180.916-6.987 4.273 2.15-6.204z"/>
		<path fill="#00549a" d="m164.515 187.17 4.676-1.53 2.466 3.738z"/>
		<path fill="#00569d" d="m165.018 195.351-2.964-3.921 7.429 1.863z"/>
		<path fill="#0058a0" d="m157.3 197.867 4.754-6.437 2.964 3.921z"/>
		<path fill="#00579d" d="m149.629 181.291 2.652 4.882-2.652 4.544z"/>
		<path fill="#00559b" d="m160.011 185.189-7.73.984 2.328-4.717z"/>
		<path fill="#14337c" d="m274.593 194.82 1.347-8.07 4.255 4.128z"/>
		<path fill="#171f65" d="m259.246 185.595 3.424-4.279 2.47 4.302-5.894-.023z"/>
		<path fill="#00569e" d="m272.485 213.344 5.391 1.07-3.355 4.035z"/>
		<path fill="#0b3b84" d="m275.475 199.52 4.72-3.935v4.707z"/>
		<path fill="#144d91" d="m173.465 179.884.467 5.068-4.741.687z"/>
		<path fill="#00549a" d="m164.515 187.17 2.483-6.254 2.193 4.723z"/>
		<path fill="#1e2b79" d="m248.945 315.23 6.38 2.98-9.5 3.332z"/>
		<path fill="#0e5196" d="m171.657 189.378 3.2 5.207-5.374-1.292z"/>
		<path fill="#015499" d="m169.483 193.293-4.968-6.123 7.142 2.208z"/>
		<path fill="#00549a" d="m164.515 187.17 4.968 6.123-7.43-1.863z"/>
		<path fill="#0e5196" d="m171.657 189.378 2.275-4.426 2.2 4.255z"/>
		<path fill="#0b549b" d="m173.351 199.904 4.071 4.905-5.621.524z"/>
		<path fill="#005aa4" d="m164.345 213.477 4.2-3.533-.454 7.543z"/>
		<path fill="#214c90" d="m180.487 193.033 1.02-7.002 4.246 4.58z"/>
		<path fill="#0058a1" d="m166.766 205.044-4.763 1.66-1.646-4.793z"/>
		<path fill="#00559c" d="m169.156 197.922-4.138-2.57 4.465-2.059z"/>
		<path fill="#00569d" d="m165.018 195.351.133 4.915-4.794 1.645z"/>
		<path fill="#00579f" d="m171.8 205.333-2.644-7.411 4.195 1.982z"/>
		<path fill="#00569d" d="m165.018 195.351 4.138 2.57-4.005 2.345z"/>
		<path fill="#34498e" d="m190.535 199.075-5.665 1.218 1.953-4.704z"/>
		<path fill="#165196" d="m174.857 194.585 5.63-1.552-1.328 5.643z"/>
		<path fill="#304182" d="m191.144 192.056-.609 7.02-3.712-3.487z"/>
		<path fill="#1d114c" d="m211.143 183.603-7.536-3.822 7.536-.742z"/>
		<path fill="#41549f" d="m193.345 212.673-7.559 1.475 3.026-4.597z"/>
		<path fill="#1f5096" d="m179.159 198.676-1.737 6.133-4.07-4.905z"/>
		<path fill="#214c90" d="m180.487 193.033-5.63 1.552 1.275-5.378z"/>
		<path fill="#2c4e94" d="m184.87 200.293-1.182 6.449-6.266-1.933z"/>
		<path fill="#1557a1" d="m178.741 211.046-1.319-6.237 6.266 1.933z"/>
		<path fill="#1557a1" d="m178.741 211.046 4.947-4.304 2.098 7.406z"/>
		<path fill="#2c4e94" d="m184.87 200.293-7.448 4.516 1.737-6.133z"/>
		<path fill="#0059a2" d="m168.544 209.944 5.75-.568-1.031 4.636z"/>
		<path fill="#325097" d="m187.744 204.153 2.791-5.078 1.942 5.945z"/>
		<path fill="#29549c" d="m183.688 206.742 1.182-6.45 2.874 3.86z"/>
		<path fill="#0059a4" d="m173.263 214.012 6.917 3.315-5.351 3.583zm0 0-5.172 3.475.453-7.543z"/>
		<path fill="#3b4e96" d="m192.477 205.02 5.29-2.694.392 5.925z"/>
		<path fill="#41549f" d="m193.345 212.673-2.506 7.282-5.053-5.807z"/>
		<path fill="#0057a1" d="m174.294 209.376 3.128-4.567 1.32 6.237z"/>
		<path fill="#0059a2" d="m168.544 209.944-6.54-3.24 4.762-1.66z"/>
		<path fill="#34498e" d="m190.535 199.075-2.791 5.078-2.874-3.86z"/>
		<path fill="#3b4e96" d="m192.477 205.02.868 7.653-4.533-3.122z"/>
		<path fill="#214c90" d="m180.487 193.033 6.336 2.556-7.664 3.087z"/>
		<path fill="#34498e" d="m190.535 199.075 5.291-2.36 1.942 5.611z"/>
		<path fill="#41549f" d="m193.345 212.673 4.138 3.294-6.644 3.988z"/>
		<path fill="#2d56a1" d="m185.786 214.148-5.606 3.18-1.439-6.282z"/>
		<path fill="#1a4e91" d="m176.132 189.207-2.2-4.255 7.576 1.08z"/>
		<path fill="#0057a3" d="m158.919 226.024 2.1-7.86 3.782 3.932z"/>
		<path fill="#29549c" d="m183.688 206.742 4.056-2.59 1.068 5.4z"/>
		<path fill="#4156a5" d="m193.35 228.868-2.511-8.913 5.37 1.912z"/>
		<path fill="#1f5096" d="m179.159 198.676 7.664-3.087-1.953 4.704z"/>
		<path fill="#2d498c" d="m186.823 195.59-1.07-4.98 5.391 1.446z"/>
		<path fill="#154e91" d="m173.932 184.952-2.275 4.426-2.466-3.739z"/>
		<path fill="#165196" d="m174.857 194.585-3.2-5.207 4.475-.171z"/>
		<path fill="#144d91" d="m173.465 179.884-4.274 5.755-2.193-4.723z"/>
		<path fill="#294181" d="M186.786 185.396 181 180.519l3.768-4.056z"/>
		<path fill="#144d91" d="m173.465 179.884 3.768-3.421 3.767 4.056z"/>
		<path fill="#294181" d="m186.786 185.396-2.018-8.933 5.71 3.404z"/>
		<path fill="#154e91" d="M173.932 184.952 181 180.52l.508 5.512z"/>
		<path fill="#0058a4" d="m152.39 223.301 6.529 2.723-6.656 2.394z"/>
		<path fill="#47509a" d="m198.16 208.25-4.815 4.423-.868-7.653z"/>
		<path fill="#4a56a3" d="m197.483 215.967.676-7.716 3.856 4.99z"/>
		<path fill="#4156a5" d="m193.35 228.868 2.859-7.001 2.277 5.225z"/>
		<path fill="#3356a4" d="m187.929 228.478-6.792 2.496-.532-7.216z"/>
		<path fill="#29549c" d="m183.688 206.742 5.124 2.81-3.026 4.596z"/>
		<path fill="#3b4e96" d="m192.477 205.02-3.665 4.531-1.068-5.398z"/>
		<path fill="#3c3c7f" d="m202.19 197.654 4.8 4.038-4.525 1.564z"/>
		<path fill="#504a94" d="m210.335 207.353-2.136 5.266-3.544-5.105z"/>
		<path fill="#5258a7" d="m202.066 224.122 4.381-6.431.021 7.936-4.402-1.505z"/>
		<path fill="#5258a7" d="m202.066 224.122-.664-4.604 5.045-1.827z"/>
		<path fill="#2957a5" d="m185.118 220.23.668-6.082 5.053 5.807z"/>
		<path fill="#1557a4" d="m180.605 223.758-4.657 2.163-1.12-5.011zm0 0-.425-6.43 4.938 2.903z"/>
		<path fill="#2d56a1" d="m185.786 214.148-.668 6.083-4.938-2.904z"/>
		<path fill="#0059a4" d="m168.091 217.487 6.738 3.423-5.086 3.951z"/>
		<path fill="#0059a4" d="m168.091 217.487 5.172-3.475 1.566 6.898z"/>
		<path fill="#0059a5" d="m164.801 222.096 3.29-4.609 1.652 7.374z"/>
		<path fill="#005aa5" d="m161.019 218.163 7.072-.676-3.29 4.609z"/>
		<path fill="#3b4e96" d="m192.477 205.02-1.942-5.945 7.233 3.251z"/>
		<path fill="#5154a1" d="m202.015 213.241-3.856-4.99 6.496-.737z"/>
		<path fill="#3c3c7f" d="m202.19 197.654-4.422 4.672-1.942-5.611z"/>
		<path fill="#47509a" d="m198.16 208.25-.392-5.924 4.697.93z"/>
		<path fill="#5955a5" d="m208.2 212.62-6.185.621 2.64-5.727z"/>
		<path fill="#4a56a3" d="m197.483 215.967 4.532-2.726-.613 6.277z"/>
		<path fill="#3c3c7f" d="m202.19 197.654-6.364-.94 3.729-3.232z"/>
		<path fill="#534e9a" d="m215.327 211.346-7.128 1.273 2.136-5.266z"/>
		<path fill="#46468d" d="m202.465 203.256 4.525-1.564-2.335 5.822z"/>
		<path fill="#5757a6" d="m206.447 217.69 1.752-5.07 3.614 5.056-5.366.015z"/>
		<path fill="#4a56a3" d="m197.483 215.967 3.92 3.551-5.194 2.349z"/>
		<path fill="#47509a" d="m198.16 208.25-.677 7.717-4.138-3.294z"/>
		<path fill="#293977" d="m190.479 179.867 2.834 6.014-6.527-.485z"/>
		<path fill="#3c3c7f" d="m202.19 197.654 6.079-2.103-1.279 6.141z"/>
		<path fill="#453e85" d="m215.002 204.113-4.667 3.24 1.679-7.819z"/>
		<path fill="#060034" d="m223.244 182.191 5.894 4.286-4.502 1.39z"/>
		<path fill="#5a5ca9" d="m216.128 226.349-4.992 1.808.677-10.48z"/>
		<path fill="#5154a1" d="m202.015 213.241 4.432 4.45-5.045 1.827z"/>
		<path fill="#595ca9" d="m209.171 233.089-2.703-7.462 4.668 2.53z"/>
		<path fill="#1557a4" d="m180.605 223.758 4.513-3.527 2.81 8.247z"/>
		<path fill="#5955a5" d="m211.813 217.676-5.345 7.95-.02-7.935 5.365-.015z"/>
		<path fill="#4d59a7" d="m198.486 227.092 3.58-2.97 1.26 6.864z"/>
		<path fill="#005aa3" d="m154.235 201.603-4.607 3.252v-4.713z"/>
		<path fill="#1a0c48" d="m211.143 179.039 5.968 3.15-5.968 1.414z"/>
		<path fill="#00509e" d="m169.967 236.713 4.002-6.054 3.248 6.397z"/>
		<path fill="#22478a" d="m181.508 186.031 5.278-.635-1.033 5.214z"/>
		<path fill="#3d3578" d="m212.014 199.534-5.024 2.158 1.279-6.141z"/>
		<path fill="#434085" d="m206.99 201.692 5.024-2.158-1.68 7.82z"/>
		<path fill="#48438b" d="m219.186 207.548-3.859 3.798-.325-7.233z"/>
		<path fill="#5a5ca9" d="m216.128 226.349-4.315-8.673 4.73-1.515z"/>
		<path fill="#434085" d="m206.99 201.692 3.345 5.661-5.68.16z"/>
		<path fill="#534e9a" d="m215.327 211.346-4.992-3.993 4.667-3.24z"/>
		<path fill="#304182" d="m191.144 192.056 8.143-3.501.268 4.927z"/>
		<path fill="#2f2563" d="m213.499 194.386-5.681-3.427 4.737-2.288z"/>
		<path fill="#224788" d="m181 180.519-7.068 4.433-.467-5.068z"/>
		<path fill="#304182" d="m191.144 192.056 8.41 1.426-3.728 3.233z"/>
		<path fill="#47509a" d="m198.16 208.25 4.305-4.994 2.19 4.258z"/>
		<path fill="#3c3c7f" d="m202.19 197.654.275 5.602-4.697-.93z"/>
		<path fill="#363070" d="m208.269 195.551 5.23-1.165-1.485 5.148z"/>
		<path fill="#393173" d="m216.49 199.877-2.991-5.49 5.128 1.543z"/>
		<path fill="#2f2563" d="m213.499 194.386-5.23 1.165-.451-4.592z"/>
		<path fill="#3e387c" d="m218.69 203.03 6.7-.2-.795 4.475z"/>
		<path fill="#363070" d="m208.269 195.551-6.08 2.103 5.629-6.695z"/>
		<path fill="#1e1251" d="m225.115 192.554-2.158 3.774-4.33-.398z"/>
		<path fill="#282863" d="M199.84 176.463h7.535l-3.768 3.318z"/>
		<path fill="#241854" d="m212.555 188.67 4.556-6.482 3.064 4.164z"/>
		<path fill="#0057a1" d="m174.294 209.376-5.75.568 3.257-4.611z"/>
		<path fill="#0059a4" d="m173.263 214.012 5.478-2.966 1.44 6.281z"/>
		<path fill="#17559d" d="m177.422 204.81-3.128 4.566-2.493-4.043z"/>
		<path fill="#1557a1" d="m178.741 211.046-5.478 2.966 1.031-4.636z"/>
		<path fill="#0b438e" d="m155.556 248.945-5.928-1.676 4.16-3.393z"/>
		<path fill="#0056a2" d="m152.263 228.418-2.635-9.425 2.763 4.308z"/>
		<path fill="#5955a5" d="m216.543 216.161-4.73 1.515 3.514-6.33z"/>
		<path fill="#5861ab" d="m222.247 227.163-1.362-8.591 5.235 3.785z"/>
		<path fill="#4c53a2" d="m198.173 242.978-6.48-4.3 7.601-1.672z"/>
		<path fill="#00509b" d="m154.262 236.886-1.999-8.468 5.783 5.628z"/>
		<path fill="#3b57a5" d="m190.839 219.955-2.91 8.523-2.811-8.247z"/>
		<path fill="#18509e" d="m177.217 237.056 3.92-6.082.877 4.87z"/>
		<path fill="#140041" d="m220.175 186.352 4.461 1.515-7.233 2.85z"/>
		<path fill="#21387e" d="m239.156 205.427 6.76-4.12-3.19 7.151z"/>
		<path fill="#34498e" d="m190.535 199.075.61-7.019 4.681 4.659z"/>
		<path fill="#005aa5" d="m161.019 218.163-2.151-5.014 5.477.328z"/>
		<path fill="#294181" d="m186.786 185.396 4.358 6.66-5.391-1.446z"/>
		<path fill="#2c3876" d="m193.313 185.881-2.169 6.175-4.358-6.66z"/>
		<path fill="#2d2663" d="m207.818 190.96-8.263 2.522-.268-4.927z"/>
		<path fill="#3c3c7f" d="m202.19 197.654-2.635-4.172 8.263-2.523z"/>
		<path fill="#00509e" d="m169.967 236.713-5.59-2.993 4.455-2.6z"/>
		<path fill="#2c3876" d="m193.313 185.881 5.974 2.674-8.143 3.501z"/>
		<path fill="#5955a5" d="m211.813 217.676-.677 10.48-4.668-2.53z"/>
		<path fill="#0059a1" d="M149.629 200.142v-9.425l2.775 4.712z"/>
		<path fill="#5c61ab" d="m215.435 232.23-4.299-4.073 4.992-1.808z"/>
		<path fill="#314891" d="m234.49 212.29-5.57-1.254 5.776-4.185z"/>
		<path fill="#5558a5" d="m220.885 218.572.53-6.07 4.143 3.42z"/>
		<path fill="#535aa8" d="m203.326 230.986 3.142-5.36 2.703 7.463z"/>
		<path fill="#4d59a7" d="m198.486 227.092-3.963 7.082-1.174-5.306z"/>
		<path fill="#221452" d="m217.403 190.716 1.224 5.214-5.128-1.544z"/>
		<path fill="#3d468f" d="m228.92 211.036-3.362 4.886-4.144-3.42z"/>
		<path fill="#294181" d="m186.786 185.396-5.278.635-.508-5.512z"/>
		<path fill="#292c68" d="m198.43 182.457-5.117 3.424-2.834-6.014z"/>
		<path fill="#274181" d="M184.768 176.463h15.071l-9.36 3.404z"/>
		<path fill="#292c68" d="m198.43 182.457-7.951-2.59 9.36-3.404z"/>
		<path fill="#12003e" d="m214.91 176.463-3.767 2.576-3.768-2.576z"/>
		<path fill="#2e316f" d="m199.287 188.555-5.974-2.674 5.118-3.424z"/>
		<path fill="#11003e" d="m217.11 182.188-4.555 6.483-1.412-5.068z"/>
		<path fill="#2e316f" d="m199.287 188.555-.856-6.098 6.206 2.238z"/>
		<path fill="#292c68" d="m198.43 182.457 1.41-5.994 3.767 3.318z"/>
		<path fill="#2d2663" d="m207.818 190.96-8.531-2.405 5.35-3.86z"/>
		<path fill="#005aa5" d="m161.019 218.163 3.326-4.686 3.746 4.01z"/>
		<path fill="#005aa4" d="m164.345 213.477-5.477-.328 3.135-6.445z"/>
		<path fill="#005aa5" d="m158.868 213.149-3.478-6.853 6.613.408z"/>
		<path fill="#00569d" d="m165.018 195.351-4.661 6.56-3.057-4.044z"/>
		<path fill="#534e9a" d="m215.327 211.346 3.86-3.798 2.227 4.954z"/>
		<path fill="#5a5ca9" d="m216.128 226.349.415-10.188 4.342 2.411z"/>
		<path fill="#5558a5" d="m220.885 218.572-4.342-2.41 4.871-3.66z"/>
		<path fill="#534e9a" d="m215.327 211.346 6.087 1.156-4.871 3.66z"/>
		<path fill="#314891" d="m234.49 212.29 8.235-3.832-3.84 7.044z"/>
		<path fill="#314891" d="m234.49 212.29 4.394 3.212-7.973.886z"/>
		<path fill="#3d468f" d="m228.92 211.036-7.506 1.466 3.181-5.197z"/>
		<path fill="#3f519b" d="m230.91 216.388.348 5.186-5.138.783z"/>
		<path fill="#535aa8" d="m203.326 230.986-1.26-6.864 4.402 1.505z"/>
		<path fill="#4858a6" d="m196.209 221.867 5.857 2.255-3.58 2.97z"/>
		<path fill="#535aa8" d="m203.326 230.986 5.845 2.103-4.397 3.046z"/>
		<path fill="#4455a3" d="m194.523 234.174 3.963-7.082 4.84 3.894z"/>
		<path fill="#453e85" d="m215.002 204.113 1.488-4.236 2.2 3.152z"/>
		<path fill="#4d4c97" d="m221.414 212.502-2.228-4.954 5.41-.243z"/>
		<path fill="#00559c" d="m169.156 197.922-2.39 7.122-1.615-4.778z"/>
		<path fill="#0059a2" d="m168.544 209.944-1.778-4.9 5.035.289z"/>
		<path fill="#005aa4" d="m155.39 206.296-2.775 7.984-2.987-4.713z"/>
		<path fill="#005aa5" d="m158.868 213.149-3.504 5.986-2.749-4.855z"/>
		<path fill="#0058a1" d="m166.766 205.044-6.41-3.134 4.795-1.644z"/>
		<path fill="#005aa6" d="m149.628 218.993 2.987-4.713 2.75 4.855z"/>
		<path fill="#005aa4" d="m155.39 206.296-1.155-4.693 6.122.307z"/>
		<path fill="#0059a1" d="m160.357 201.91 1.646 4.794-6.613-.408z"/>
		<path fill="#005aa5" d="m152.615 214.28-2.987 4.713v-9.426z"/>
		<path fill="#005aa3" d="m154.235 201.603-4.606-1.461 2.775-4.713z"/>
		<path fill="#005aa4" d="m155.39 206.296-5.762 3.271v-4.712z"/>
		<path fill="#00579e" d="m155.904 189.988-3.5 5.441-2.775-4.712z"/>
		<path fill="#14054c" d="m257.775 331.44 6.116-.337-3.767 5.994z"/>
		<path fill="#095194" d="M169.697 176.463h7.536l-3.768 3.421z"/>
		<path fill="#174b98" d="m173.289 243.29 5.667-.783-.14 5.102z"/>
		<path fill="#34408f" d="m182.157 256.839-7.524-6.305 4.183-2.925z"/>
		<path fill="#3a55a3" d="m190.031 232.71 3.318-3.842 1.174 5.306z"/>
		<path fill="#3b57a5" d="m190.839 219.955 2.51 8.913-5.42-.39z"/>
		<path fill="#4a56a3" d="m197.483 215.967-1.274 5.9-5.37-1.912z"/>
		<path fill="#5258a7" d="m202.066 224.122-5.857-2.255 5.193-2.349z"/>
		<path fill="#2d2663" d="m207.818 190.96-3.181-6.265 6.506-1.092z"/>
		<path fill="#11003e" d="m217.11 182.188-5.967-3.15 3.767-2.575z"/>
		<path fill="#24205a" d="m203.607 179.781 7.536 3.822-6.506 1.092z"/>
		<path fill="#1a0c48" d="m211.143 179.039-7.536.742 3.768-3.318z"/>
		<path fill="#292c68" d="m198.43 182.457 5.177-2.676 1.03 4.914z"/>
		<path fill="#445ba5" d="m231.258 221.574 8.939-.678-5.467 4.545z"/>
		<path fill="#95bace" d="m242.359 262.361 1.545-5.238 4.502 3.09z"/>
		<path fill="#3f519b" d="m230.91 216.388-4.79 5.969-.562-6.435z"/>
		<path fill="#5861ab" d="m222.247 227.163 3.873-4.806 2.165 6.085z"/>
		<path fill="#5366ae" d="m228.285 228.442-4.648 7.052-3.263-3.737z"/>
		<path fill="#5558a5" d="m220.885 218.572 1.362 8.591-6.12-.814z"/>
		<path fill="#5366ae" d="m228.285 228.442 6.445-3.001-1.372 5.473z"/>
		<path fill="#384f9e" d="m187.865 242.505-.922-6.22 4.75 2.394z"/>
		<path fill="#4264ab" d="m234.73 225.44 4.395 5.9-5.767-.426z"/>
		<path fill="#5c64ad" d="m220.374 231.757-4.61 6.386-.33-5.913z"/>
		<path fill="#0059a1" d="m160.357 201.91-6.122-.307 3.065-3.736z"/>
		<path fill="#005aa3" d="m149.628 204.855 4.607-3.252 1.155 4.693z"/>
		<path fill="#060034" d="M267.66 337.097h-7.536l3.767-5.994z"/>
		<path fill="#005aa5" d="m155.364 219.135 3.555 6.889-6.528-2.723z"/>
		<path fill="#0055a2" d="m173.97 230.659 1.978-4.738 5.189 5.053z"/>
		<path fill="#030031" d="m222.446 176.463-5.335 5.725-2.2-5.725z"/>
		<path fill="#140041" d="m220.175 186.352-3.064-4.164 6.133.003-3.069 4.161z"/>
		<path fill="#1e1251" d="m225.115 192.554-.479-4.687 4.502-1.39z"/>
		<path fill="#241854" d="m212.555 188.67 7.62-2.318-2.772 4.364z"/>
		<path fill="#0d0040" d="m229.138 186.477 3.905 6.152-7.928-.076 4.023-6.076z"/>
		<path fill="#121152" d="m241.597 188.578 3.019-4.144 1.66 5.242z"/>
		<path fill="#211c5a" d="m229.053 195.284-3.938-2.73 7.928.076-3.99 2.654z"/>
		<path fill="#352e70" d="m221.526 200.433 1.43-4.105 2.434 6.501z"/>
		<path fill="#040035" d="m228.348 181.368.79 5.109-5.894-4.286z"/>
		<path fill="#020034" d="M229.981 176.463h7.536l-3.901 6.706z"/>
		<path fill="#1d2161" d="m236.087 196.632 3.752 4.163-5.477.56z"/>
		<path fill="#3f3f86" d="m224.595 207.305.795-4.476 9.306 4.022z"/>
		<path fill="#453e85" d="m215.002 204.113-2.988-4.579 4.476.343z"/>
		<path fill="#2b296b" d="m229.008 200.076-3.618 2.753.57-7.288z"/>
		<path fill="#1e1251" d="m225.115 192.554-6.488 3.376-1.224-5.214z"/>
		<path fill="#393173" d="m216.49 199.877 2.67-1.106-.47 4.258z"/>
		<path fill="#221452" d="m217.403 190.716 7.233-2.85.48 4.688z"/>
		<path fill="#060034" d="m223.244 182.191 1.392 5.676-4.46-1.515z"/>
		<path fill="#030031" d="M222.446 176.463h7.535l-1.633 4.905z"/>
		<path fill="#172365" d="m245.381 195.101-3.784-6.523 4.68 1.098z"/>
		<path fill="#09003e" d="m233.616 183.169 1.654 4.848-6.132-1.54z"/>
		<path fill="#211c5a" d="m229.053 195.284 3.99-2.654 3.044 4.002z"/>
		<path fill="#353276" d="m225.39 202.83-2.433-6.502 3.003-.787z"/>
		<path fill="#2c3b81" d="m234.696 206.851-9.306-4.022 3.618-2.753z"/>
		<path fill="#3e387c" d="m218.69 203.03 5.905 4.275-5.409.243z"/>
		<path fill="#030031" d="m222.446 176.463 5.902 4.905-5.104.823z"/>
		<path fill="#09003e" d="m233.616 183.169-5.268-1.801 1.633-4.905z"/>
		<path fill="#0f064b" d="m245.053 176.463-3.768 3.468-3.768-3.468z"/>
		<path fill="#040035" d="m228.348 181.368 5.268 1.8-4.478 3.309z"/>
		<path fill="#110749" d="m235.27 188.017-1.654-4.848 5.4 1.354z"/>
		<path fill="#110c50" d="m244.616 184.434-5.6.089 2.269-4.592 3.33 4.503z"/>
		<path fill="#0d0040" d="m229.138 186.477 6.132 1.54-2.227 4.612z"/>
		<path fill="#2c3b81" d="m234.696 206.851-.334-5.495 4.794 4.071z"/>
		<path fill="#17195a" d="m239.414 192.86-3.327 3.772-3.044-4.003z"/>
		<path fill="#121152" d="m241.597 188.578-6.327-.561 3.746-3.494z"/>
		<path fill="#1e2d71" d="m239.84 200.795-.426-7.934 5.967 2.24z"/>
		<path fill="#162e74" d="m251.402 198.641-5.485 2.666-.536-6.206z"/>
		<path fill="#1e2d71" d="m239.84 200.795-.684 4.632-4.794-4.071z"/>
		<path fill="#0f064b" d="m245.053 176.463 3.767 3.933-7.535-.465z"/>
		<path fill="#09003e" d="m233.616 183.169 7.669-3.238-2.27 4.592z"/>
		<path fill="#171f65" d="m259.246 185.595-4.198-3.932 7.622-.347z"/>
		<path fill="#14195b" d="m246.277 189.676 6.21 2.124-7.106 3.301z"/>
		<path fill="#14175a" d="m250.072 185.696 4.976-4.033-.37 5.74z"/>
		<path fill="#110c50" d="m244.616 184.434 5.456 1.263-3.795 3.979z"/>
		<path fill="#162266" d="m252.488 191.8-6.211-2.124 3.795-3.98z"/>
		<path fill="#121152" d="m241.597 188.578 3.784 6.523-5.967-2.24z"/>
		<path fill="#14175a" d="m250.072 185.696-1.252-5.3 6.228 1.267z"/>
		<path fill="#10387f" d="m255.473 201.77 2.236-5.993 2.897 6.084z"/>
		<path fill="#182269" d="m267.66 179.048-4.99 2.268-2.546-4.853z"/>
		<path fill="#182a73" d="m275.94 186.75-5.924-.22 1.027-4.435z"/>
		<path fill="#172a71" d="m264.246 190.498 5.77-3.967.194 5.301z"/>
		<path fill="#153077" d="m262.909 195.529 1.337-5.031 3.746 6.153z"/>
		<path fill="#121053" d="m248.82 180.396 3.768-3.933 2.46 5.2z"/>
		<path fill="#161e62" d="m254.678 187.403 4.568-1.808-.176 5.18z"/>
		<path fill="#171c62" d="m260.124 176.463-5.076 5.2-2.46-5.2zm0 0 2.546 4.853-7.622.347z"/>
		<path fill="#152d74" d="m257.71 195.777-6.308 2.864 1.086-6.841zm0 0 5.199-.248-2.303 6.332z"/>
		<path fill="#183176" d="m245.917 201.307 5.485-2.666-1.045 6.848z"/>
		<path fill="#172365" d="m245.381 195.101 7.107-3.301-1.086 6.841z"/>
		<path fill="#2c3b81" d="m234.696 206.851-5.688-6.775 5.354 1.28z"/>
		<path fill="#2b296b" d="m229.008 200.076.045-4.792 7.034 1.348-7.08 3.444z"/>
		<path fill="#1e2d71" d="m239.84 200.795-3.753-4.163 3.327-3.771z"/>
		<path fill="#1d2161" d="m236.087 196.632-1.725 4.724-5.354-1.28z"/>
		<path fill="#110749" d="m235.27 188.017 6.327.561-2.183 4.283z"/>
		<path fill="#110c50" d="m244.616 184.434-3.02 4.144-2.58-4.055 5.6-.09z"/>
		<path fill="#182269" d="m267.66 179.048 3.383 3.047-5.903 3.523z"/>
		<path fill="#15195d" d="m255.048 181.663 4.198 3.932-4.568 1.808z"/>
		<path fill="#0a3c85" d="m270.8 200.524 4.81 4.476-4.73 1.041-.08-5.517z"/>
		<path fill="#17266c" d="m259.07 190.776 3.839 4.753-5.2.248z"/>
		<path fill="#00458e" d="m275.61 205-4.81-4.476 4.675-1.004z"/>
		<path fill="#004b95" d="m252.453 211.022 5.759 2.692-6.365 3.195z"/>
		<path fill="#044089" d="m266.895 203.286-3.986-7.757 5.083 1.122z"/>
		<path fill="#00438d" d="m256.581 206.782 4.025-4.921 2.163 6.38z"/>
		<path fill="#0063a9" d="m280.195 219.122-5.674-.673 3.355-4.035zm0 0-3.038 4.707-2.636-5.38z"/>
		<path fill="#5f6aaf" d="m223.637 235.494-1.75 8.263-1.405-4.614z"/>
		<path fill="#12347c" d="m267.993 196.65 6.6-1.83-3.793 5.704z"/>
		<path fill="#17266c" d="m259.07 190.776-1.36 5.001-5.222-3.977z"/>
		<path fill="#171f65" d="m259.246 185.595 5 4.903-5.176.278z"/>
		<path fill="#110c50" d="m244.616 184.434-3.331-4.503 7.535.465z"/>
		<path fill="#004e98" d="m246.626 213.397 3.73-7.908 2.097 5.533z"/>
		<path fill="#0c3e86" d="m250.357 205.489-3.731 7.908-3.9-4.939z"/>
		<path fill="#194189" d="m242.725 208.458 3.192-7.15 4.44 4.18z"/>
		<path fill="#172365" d="m245.381 195.101.536 6.206-6.078-.512z"/>
		<path fill="#171f65" d="m259.246 185.595 5.894.023-.894 4.88-5-4.903z"/>
		<path fill="#182269" d="m267.66 179.048-2.52 6.57-2.47-4.302z"/>
		<path fill="#00438d" d="m256.581 206.782 6.188 1.46-4.557 5.472z"/>
		<path fill="#10387f" d="m255.473 201.77-5.116 3.719 1.045-6.848z"/>
		<path fill="#004e97" d="m268.11 210.016.723 7.908-4.62-3.847z"/>
		<path fill="#00569f" d="m264.213 214.077-6.001-.363 4.557-5.472z"/>
		<path fill="#004b95" d="m252.453 211.022-.606 5.887-5.221-3.512z"/>
		<path fill="#0c3e86" d="m250.357 205.489 6.224 1.293-4.128 4.24z"/>
		<path fill="#152d74" d="m257.71 195.777-2.237 5.992-4.071-3.128z"/>
		<path fill="#0d3b83" d="m260.606 201.86-4.025 4.922-1.108-5.013z"/>
		<path fill="#004e98" d="m246.626 213.397 5.221 3.512-6.123 3.465zm0 0-3.31 3.12-.59-8.059z"/>
		<path fill="#005ea7" d="m260.956 218.123-9.109-1.214 6.365-3.195z"/>
		<path fill="#5f6aaf" d="m223.637 235.494 6.053.241 1.17 5.775z"/>
		<path fill="#27509a" d="m238.884 215.502 3.841-7.044.592 8.058z"/>
		<path fill="#27509a" d="m238.884 215.502 4.433 1.014-3.12 4.38z"/>
		<path fill="#016fb4" d="m254.868 226.432-4.145-4.368 8.093.79z"/>
		<path fill="#075da8" d="m245.724 220.374-3.927 5.838-1.6-5.316z"/>
		<path fill="#153077" d="m262.909 195.529 3.986 7.757-6.29-1.425z"/>
		<path fill="#0a3c85" d="m270.8 200.524-3.905 2.762 1.098-6.635z"/>
		<path fill="#182a73" d="m275.94 186.75-1.347 8.07-4.383-2.988z"/>
		<path fill="#004f97" d="M280.195 209.707v9.415l-2.319-4.708z"/>
		<path fill="#110c50" d="m244.616 184.434 4.204-4.038 1.252 5.3z"/>
		<path fill="#0f064b" d="M245.053 176.463h7.535l-3.768 3.933z"/>
		<path fill="#183176" d="m245.917 201.307-6.76 4.12.682-4.632z"/>
		<path fill="#314891" d="m234.49 212.29 4.666-6.863 3.57 3.031z"/>
		<path fill="#3a87c0" d="m259.753 235.09 1.384 5.804-6.417-2.84z"/>
		<path fill="#2a7cbb" d="m256.125 231.61-6.527-4.39 5.27-.788z"/>
		<path fill="#006db0" d="m271.576 223.344-6.055.493 3.312-5.913z"/>
		<path fill="#6e9dc6" d="m247.14 246.47-3.577-3.232 6.504-.599z"/>
		<path fill="#4264ab" d="m234.73 225.44 5.467-4.544 1.6 5.316z"/>
		<path fill="#27509a" d="m238.884 215.502 1.313 5.394-8.94.678z"/>
		<path fill="#4671b4" d="m239.125 231.34-3.384 4.69-2.383-5.116z"/>
		<path fill="#5366ae" d="m228.285 228.442-2.165-6.085 5.138-.783z"/>
		<path fill="#004e98" d="m246.626 213.397-.902 6.977-2.407-3.858z"/>
		<path fill="#2a5ca5" d="m240.197 220.896 3.12-4.38 2.407 3.858z"/>
		<path fill="#004e97" d="m268.11 210.016-3.897 4.061-1.444-5.835z"/>
		<path fill="#0060a6" d="m268.833 217.924-3.312 5.913-4.565-5.714z"/>
		<path fill="#044089" d="m266.895 203.286 1.215 6.73-5.341-1.774z"/>
		<path fill="#004790" d="m270.88 206.041 4.603 3.669-7.373.306z"/>
		<path fill="#0058a5" d="m251.847 216.91-1.124 5.154-4.999-1.69z"/>
		<path fill="#387cba" d="m250.407 233.063-5.717 1.454.63-4.876z"/>
		<path fill="#00569f" d="m264.213 214.077-3.257 4.046-2.744-4.409z"/>
		<path fill="#63b0d0" d="m280.195 247.365-3.295 4.708-5.44-1.85z"/>
		<path fill="#0060a6" d="m268.833 217.924-7.877.199 3.257-4.046z"/>
		<path fill="#0058a5" d="m251.847 216.91 9.11 1.213-2.141 4.731z"/>
		<path fill="#445ba5" d="m231.258 221.574-.347-5.186 7.973-.886z"/>
		<path fill="#5366ae" d="m228.285 228.442 2.973-6.868 3.472 3.867z"/>
		<path fill="#0068af" d="m258.816 222.854-8.093-.79 1.124-5.155z"/>
		<path fill="#196eb3" d="m249.598 227.22-3.874-6.846 4.999 1.69z"/>
		<path fill="#4a8dc2" d="m254.72 238.054-8.25 1.126 3.937-6.117z"/>
		<path fill="#95becf" d="m239.51 274.34-.423-6.457 4.98 4.132z"/>
		<path fill="#0063ad" d="m250.723 222.064 4.145 4.368-5.27.788z"/>
		<path fill="#0b75b7" d="m260.239 228.083-5.371-1.65 3.948-3.579z"/>
		<path fill="#6785bb" d="m236.612 242.791 5.155 6.032-5.323.784z"/>
		<path fill="#4f6db1" d="m233.358 230.914-3.668 4.821-1.405-7.293z"/>
		<path fill="#387cba" d="m250.407 233.063-.809-5.843 6.527 4.39z"/>
		<path fill="#477cb9" d="m244.69 234.517 1.78 4.663-5.719-.739z"/>
		<path fill="#4671b4" d="m239.125 231.34-4.395-5.9 7.067.772z"/>
		<path fill="#5c71b2" d="m229.69 235.735 3.668-4.82 2.383 5.115z"/>
		<path fill="#3371b4" d="m245.32 229.641-6.195 1.7 2.672-5.13z"/>
		<path fill="#5981bb" d="m240.751 238.441-1.626-7.1 5.565 3.176z"/>
		<path fill="#7084ba" d="m231.554 247.362 5.058-4.57-.168 6.815z"/>
		<path fill="#5366ae" d="m228.285 228.442 1.405 7.293-6.053-.24z"/>
		<path fill="#387cba" d="m250.407 233.063-5.087-3.422 4.278-2.421z"/>
		<path fill="#4671b4" d="m239.125 231.34 6.195-1.699-.63 4.876z"/>
		<path fill="#4a8dc2" d="m254.72 238.054-4.313-4.99 5.718-1.454zm0 0-4.653 4.585-3.598-3.459z"/>
		<path fill="#207ebb" d="m266.111 230.661-1.28 6.285-5.078-1.855z"/>
		<path fill="#63accb" d="m253.98 286.714-2.782-1.415 3.387-6.396z"/>
		<path fill="#4296c7" d="m280.195 237.95-1.388 4.708-4.57-1.791z"/>
		<path fill="#5f96c5" d="m250.067 242.64 4.653-4.586 1.624 6.392z"/>
		<path fill="#4d9eca" d="m274.238 240.867-4.148-5.175 6.98-2.449z"/>
		<path fill="#66abce" d="m263.035 246.55-1.898-5.656 6.541.952zm0 0-4.52 2.683-2.17-4.787z"/>
		<path fill="#5689bf" d="m246.47 239.18 3.597 3.46-6.504.598z"/>
		<path fill="#3a87c0" d="m259.753 235.09-5.033 2.964 1.405-6.444z"/>
		<path fill="#85c8d6" d="m267.041 258.424 5.463-2.348-.844 5.566z"/>
		<path fill="#4a8dc2" d="m254.72 238.054 6.417 2.84-4.793 3.552z"/>
		<path fill="#a4dad8" d="m251.161 272.657-3.047-5.852 4.931 1.152z"/>
		<path fill="#5981bb" d="m240.751 238.441 5.718.74-2.906 4.057z"/>
		<path fill="#387cba" d="m250.407 233.063-3.938 6.117-1.78-4.663z"/>
		<path fill="#5f96c5" d="m250.067 242.64 2.737 6.298-5.664-2.468z"/>
		<path fill="#8bb3cd" d="m243.904 257.123-1.545 5.238-3.137-3.504z"/>
		<path fill="#74aacc" d="m252.804 248.938-2.737-6.299 6.277 1.807z"/>
		<path fill="#7caacb" d="m247.583 251.27-3.68 5.853-2.136-8.3z"/>
		<path fill="#3f8fc4" d="m264.831 236.946 1.28-6.285 3.979 5.03z"/>
		<path fill="#0b75b7" d="m260.239 228.083-1.423-5.229 6.705.983z"/>
		<path fill="#89bad0" d="m251.412 255.427-3.006 4.787-4.502-3.091z"/>
		<path fill="#74aacc" d="m252.804 248.938-5.221 2.332-.443-4.8z"/>
		<path fill="#187cb9" d="m273.097 229.225-6.986 1.436 5.465-7.317z"/>
		<path fill="#0b75b7" d="m260.239 228.083-.486 7.008-3.628-3.48z"/>
		<path fill="#016fb4" d="m254.868 226.432 5.37 1.65-4.113 3.528z"/>
		<path fill="#0068af" d="m258.816 222.854 2.14-4.731 4.565 5.714z"/>
		<path fill="#207ebb" d="m266.111 230.661-6.358 4.43.486-7.008z"/>
		<path fill="#65adcf" d="m267.955 246.763 6.283-5.896-2.778 9.356z"/>
		<path fill="#5299c7" d="m261.137 240.894-1.384-5.803 5.078 1.855z"/>
		<path fill="#539eca" d="m267.678 241.846-6.54-.952 3.693-3.948z"/>
		<path fill="#006cb1" d="m265.521 223.837 6.055-.493-5.465 7.317z"/>
		<path fill="#398ec3" d="m270.09 235.692 3.007-6.467 3.972 4.018z"/>
		<path fill="#187cb9" d="m273.097 229.225-3.007 6.467-3.979-5.03z"/>
		<path fill="#66abce" d="m263.035 246.55-6.69-2.104 4.792-3.552z"/>
		<path fill="#539eca" d="m267.678 241.846-2.847-4.9 5.259-1.254z"/>
		<path fill="#0b75b7" d="m260.239 228.083 5.282-4.246.59 6.824z"/>
		<path fill="#006db0" d="m271.576 223.344 5.581.485-4.06 5.396z"/>
		<path fill="#66abce" d="m263.035 246.55 4.643-4.704.277 4.917z"/>
		<path fill="#9ad1d6" d="m256.01 263.852-.964-4.94 6.633 1.268z"/>
		<path fill="#66abce" d="m263.035 246.55 4.92.213-3.223 7.393z"/>
		<path fill="#398ec3" d="m270.09 235.692 4.148 5.175-6.56.98z"/>
		<path fill="#4d9eca" d="m274.238 240.867 4.569 1.791-7.347 7.565z"/>
		<path fill="#187cb9" d="m273.097 229.225 7.098-.689-3.126 4.707z"/>
		<path fill="#4296c7" d="M280.195 237.95v9.415l-1.388-4.707z"/>
		<path fill="#6eb7d2" d="m271.46 250.223 7.347-7.565 1.388 4.707z"/>
		<path fill="#4d9eca" d="m274.238 240.867-6.283 5.896-.277-4.917z"/>
		<path fill="#7dbfd3" d="m264.732 254.156 3.223-7.393 3.505 3.46zm0 0-6.217-4.923 4.52-2.683z"/>
		<path fill="#82bcd2" d="m256.939 254.246-5.527 1.181 1.392-6.49z"/>
		<path fill="#61a0c9" d="m256.344 244.446 2.171 4.787-5.71-.295z"/>
		<path fill="#82bcd2" d="m256.939 254.246-4.135-5.308 5.711.295z"/>
		<path fill="#137ab9" d="M280.195 228.536v9.415l-3.126-4.708z"/>
		<path fill="#2e88bf" d="m277.07 233.243 3.125 4.708-5.957 2.916z"/>
		<path fill="#0062a7" d="m274.521 218.45-2.945 4.894-2.743-5.42z"/>
		<path fill="#137ab9" d="m280.195 228.536-3.038-4.707 3.038-4.707z"/>
		<path fill="#004e97" d="m268.11 210.016-1.215-6.73 3.984 2.755zm0 0 4.375 3.328-3.652 4.58z"/>
		<path fill="#0060a6" d="m268.833 217.924 3.652-4.58 2.036 5.105z"/>
		<path fill="#00569e" d="m272.485 213.344 2.998-3.634 2.393 4.704z"/>
		<path fill="#2f2563" d="m213.499 194.386-.944-5.715 4.848 2.045z"/>
		<path fill="#2d2663" d="m207.818 190.96 3.325-7.357 1.412 5.068z"/>
		<path fill="#595aa6" d="m206.542 244.689-3.58-3.52 6.653-.45z"/>
		<path fill="#595ca9" d="m209.171 233.089 1.965-4.932 4.299 4.073z"/>
		<path fill="#5a5ca9" d="m216.128 226.349 6.119.814-1.873 4.594z"/>
		<path fill="#595ca9" d="m209.171 233.089 6.264-.859.328 5.913z"/>
		<path fill="#00002a" d="m275.195 337.097-4.066-3.424 4.685-1.35z"/>
		<path fill="#01002c" d="m275.814 332.323-4.685 1.35-.533-4.846z"/>
		<path fill="#0d003f" d="m263.891 331.103 7.238 2.57-3.47 3.424z"/>
		<path fill="#181158" d="M252.588 337.097v-8.918l5.187 3.26z"/>
		<path fill="#14054c" d="m257.775 331.44 2.615-8.216 3.501 7.879z"/>
		<path fill="#193785" d="m238.217 320.88-2.696 6.267-4.14-5.423z"/>
		<path fill="#148" d="m262.349 302.1-5.857-1.269 4.21-5.286z"/>
		<path fill="#1a155d" d="M252.588 328.18v8.917l-3.768-4.459z"/>
		<path fill="#1a1f66" d="m260.979 313.869-2.584-7.355 5.662 1.749z"/>
		<path fill="#161c5d" d="m267.86 313.406-2.538 5.82-4.343-5.357z"/>
		<path fill="#14054c" d="m257.775 331.44 2.349 5.657h-7.536z"/>
		<path fill="#0f0042" d="m265.748 325.56-5.358-2.336 4.932-3.999z"/>
		<path fill="#1a145c" d="m255.095 323.507 2.68 7.932-5.187-3.26z"/>
		<path fill="#0d003f" d="m263.891 331.103 1.857-5.543 4.848 3.267z"/>
		<path fill="#1e216c" d="m246.809 327.229-5.746 3.898.696-6.908z"/>
		<path fill="#181158" d="M252.588 337.097h-7.535l3.767-4.459z"/>
		<path fill="#0054a2" d="m231.972 307.75.394-5.43 5.015 4.817z"/>
		<path fill="#1c2b76" d="m241.063 331.127 5.746-3.898 2.011 5.41z"/>
		<path fill="#103f8c" d="m230.248 328.506 1.134-6.782 4.14 5.423z"/>
		<path fill="#0058a5" d="m251.279 297.875 3.011.763-2.66 6.198z"/>
		<path fill="#1e2b79" d="m248.945 315.23.478-5.462 5.235 1.345z"/>
		<path fill="#1d226b" d="m245.053 337.097-3.99-5.97 7.757 1.511z"/>
		<path fill="#141955" d="m280.195 313.268-2.04 4.707-4.131-4.905z"/>
		<path fill="#00002a" d="m280.195 332.097-4.292-5.55 4.292-3.865z"/>
		<path fill="#161c5d" d="m267.86 313.406-6.881.463 3.078-5.606z"/>
		<path fill="#140b50" d="m265.322 319.226 2.537-5.82 5.31 5.778-7.847.042z"/>
		<path fill="#060034" d="m270.596 328.827-4.848-3.267 4.81-1.908z"/>
		<path fill="#060034" d="m270.596 328.827 5.307-2.28-.09 5.776-5.217-3.496z"/>
		<path fill="#140b50" d="m265.322 319.226 5.237 4.426-4.81 1.908z"/>
		<path fill="#01002c" d="m275.814 332.323.09-5.775 4.29 5.549-4.38.226z"/>
		<path fill="#160951" d="m260.39 323.224-5.065-5.015 5.654-4.34z"/>
		<path fill="#0f0847" d="m278.155 317.975-4.985 1.209.854-6.114z"/>
		<path fill="#1d1c65" d="m255.325 318.21-.667-7.097 6.32 2.756z"/>
		<path fill="#1a145c" d="m255.095 323.507-9.27-1.965 9.5-3.333z"/>
		<path fill="#160951" d="m260.39 323.224.589-9.355 4.343 5.356z"/>
		<path fill="#182d71" d="m264.057 308.263-5.662-1.75 3.954-4.413z"/>
		<path fill="#0f0546" d="m273.17 319.184-2.611 4.468-5.237-4.427 7.848-.041z"/>
		<path fill="#0f0546" d="m273.17 319.184-5.31-5.778 6.164-.336z"/>
		<path fill="#160951" d="m260.39 323.224-5.295.283.23-5.298z"/>
		<path fill="#060034" d="m275.903 326.548-5.344-2.896 2.61-4.468z"/>
		<path fill="#1e216c" d="m246.809 327.229 8.286-3.722-2.507 4.672z"/>
		<path fill="#004994" d="m256.492 300.831.208-4.154 4.003-1.132z"/>
		<path fill="#161c5d" d="m267.86 313.406 2.639-8.283 3.525 7.947z"/>
		<path fill="#161c5d" d="m267.86 313.406-3.803-5.143 6.442-3.14z"/>
		<path fill="#1a3875" d="m270.499 305.123 9.696-1.27-2.938 4.707z"/>
		<path fill="#1963a1" d="m260.703 295.545 3.978-3.915 2.771 5.704z"/>
		<path fill="#204b85" d="m271.238 300.344 8.957 3.51-9.696 1.27z"/>
		<path fill="#141955" d="M280.195 313.268v9.414l-2.04-4.707z"/>
		<path fill="#09003a" d="m280.195 322.682-7.025-3.498 4.985-1.209z"/>
		<path fill="#14054c" d="m257.775 331.44-2.68-7.933 5.295-.283z"/>
		<path fill="#1e216c" d="m246.809 327.229 5.78.95-3.769 4.46z"/>
		<path fill="#193785" d="m238.217 320.88-6.835.844 1.695-6.008z"/>
		<path fill="#133e8f" d="m244.068 309.04-.56 7.43-5-2.472z"/>
		<path fill="#0c4291" d="m231.382 321.724-3.693-4.162 5.388-1.846z"/>
		<path fill="#1e216c" d="m246.809 327.229-.984-5.687 9.27 1.965z"/>
		<path fill="#16357f" d="m258.395 306.514 2.584 7.355-6.321-2.756z"/>
		<path fill="#1a3875" d="m270.499 305.123-6.442 3.14-1.708-6.163z"/>
		<path fill="#113f8e" d="m251.63 304.836 6.765 1.678-3.737 4.6z"/>
		<path fill="#004994" d="m256.492 300.831 1.903 5.683-6.764-1.678z"/>
		<path fill="#1d1c65" d="m255.325 318.21-6.38-2.98 5.713-4.117z"/>
		<path fill="#1e2875" d="m245.825 321.542-2.318-5.072 5.438-1.24z"/>
		<path fill="#2477b2" d="m255.04 292.863-.418-3.094 2.904 1.183z"/>
		<path fill="#148" d="m262.349 302.1-3.954 4.414-1.903-5.683z"/>
		<path fill="#98d6d7" d="m258.252 271.98-7.091.677 1.884-4.7z"/>
		<path fill="#148" d="m262.349 302.1-1.646-6.555 6.75 1.789z"/>
		<path fill="#0063a7" d="m254.007 295.83.283 2.808-1.275-1.29z"/>
		<path fill="#1963a1" d="m260.703 295.545.5-3.47 3.478-.445z"/>
		<path fill="#193785" d="m238.217 320.88.29-6.882 5 2.472z"/>
		<path fill="#1e2b79" d="m248.945 315.23-4.877-6.19 5.355.728z"/>
		<path fill="#3a6fb3" d="m228.007 294.157-3.067 4.95-4.553-6.247z"/>
		<path fill="#59a3c9" d="m247.042 288.91 2.094-1.27-1.441 3.63z"/>
		<path fill="#1573b2" d="m252.157 293.7-.502-2.96 3.384 2.123zm0 0-.908 1.988-1.933-1.023z"/>
		<path fill="#2b7cb8" d="m245.72 293.554 1.127 2.081-2.254.72z"/>
		<path fill="#146bae" d="m244.593 296.355 2.254-.72.93 2.175z"/>
		<path fill="#a4dad8" d="m251.161 272.657 7.091-.678-3.667 6.924z"/>
		<path fill="#2477b2" d="m255.04 292.863-3.385-2.122 2.967-.972z"/>
		<path fill="#6eb7d2" d="m271.46 250.223 1.044 5.853-7.772-1.92z"/>
		<path fill="#92d1d5" d="m254.585 278.903 4.175 4.152-4.78 3.659z"/>
		<path fill="#a1d9d8" d="m248.842 277.99 2.319-5.333 3.424 6.246z"/>
		<path fill="#92d1d5" d="m254.585 278.903 3.667-6.924 1.63 5.296z"/>
		<path fill="#498eba" d="m259.845 288.842-2.32 2.11-.58-3.267z"/>
		<path fill="#5495bb" d="m264.488 286.376-5.728-3.321 7.912-1.461z"/>
		<path fill="#0054a2" d="m231.972 307.75 6.536 6.248-5.431 1.718z"/>
		<path fill="#0056a3" d="m242.227 301.822 1.841 7.219-6.687-1.904z"/>
		<path fill="#1d2b78" d="m254.658 311.113-5.235-1.345 2.208-4.932z"/>
		<path fill="#2c71b3" d="m237.006 296.318 7.587.037-2.366 5.467-5.221-5.504z"/>
		<path fill="#628dbe" d="m232.17 285.892 3.053 4.918-7.216 3.347z"/>
		<path fill="#90c2d2" d="m241.277 279.14-4.522 3.418-2.341-7.797z"/>
		<path fill="#89d2da" d="m248.465 283.794-7.188-4.655 7.565-1.149z"/>
		<path fill="#77a7c9" d="m236.755 282.558-4.585 3.334-2.493-8.172z"/>
		<path fill="#98d6d7" d="m258.252 271.98-2.241-8.128 5.817 2.769z"/>
		<path fill="#3971a2" d="m270.247 292.113-5.566-.483 4.749-4.455z"/>
		<path fill="#326296" d="m276.881 294.79-2.754-2.356 3.647-.854z"/>
		<path fill="#148" d="m262.349 302.1 5.103-4.766 3.786 3.01z"/>
		<path fill="#89c8d2" d="m259.883 277.275 4.687.126-5.81 5.654z"/>
		<path fill="#83c6d1" d="m270.393 271.424 2.068 4.981-7.296-3.655z"/>
		<path fill="#498eba" d="m259.845 288.842 4.643-2.466.193 5.254z"/>
		<path fill="#85cbd5" d="m280.195 266.195-2.243 4.707-3.91-3.449z"/>
		<path fill="#1e2875" d="m245.825 321.542-4.066 2.677-3.542-3.34z"/>
		<path fill="#143f8f" d="m238.508 313.998-1.127-6.86 6.687 1.903z"/>
		<path fill="#1e2875" d="m245.825 321.542-7.608-.662 5.29-4.41z"/>
		<path fill="#1c2b76" d="m241.063 331.127 3.99 5.97h-7.536z"/>
		<path fill="#133e8f" d="m244.068 309.04-1.84-7.218 5.27-.266z"/>
		<path fill="#1e2b79" d="m248.945 315.23-5.438 1.24.561-7.43z"/>
		<path fill="#004e9d" d="m247.497 301.556 4.134 3.28-2.208 4.932z"/>
		<path fill="#005ca6" d="m245.084 299.492-.491-3.137 3.184 1.455z"/>
		<path fill="#2c71b3" d="m237.006 296.318 5.221 5.504-4.969-.514zm0 0 3.813-4.024 2.155 1.781zm0 0 .252 4.99-5.237-4.048z"/>
		<path fill="#5597c5" d="m241.626 289.483-6.403 1.327 5.34-4.053z"/>
		<path fill="#59a3c9" d="m247.042 288.91-2.904 2.073 1.113-3.743z"/>
		<path fill="#a1d9d8" d="m248.842 277.99-7.565 1.15 2.79-7.125zm0 0 5.743.913-6.12 4.89z"/>
		<path fill="#a1cfd5" d="m248.114 266.805 3.047 5.852-7.094-.642z"/>
		<path fill="#76b8ca" d="m272.461 276.405 7.734-.796-1.871 4.708z"/>
		<path fill="#89cad3" d="m265.165 272.75-5.282 4.525-1.631-5.296z"/>
		<path fill="#92d1d5" d="m254.585 278.903 5.298-1.628-1.123 5.78z"/>
		<path fill="#85c8d6" d="m267.041 258.424 4.619 3.218-3.799 4.696z"/>
		<path fill="#141955" d="m280.195 313.268-6.171-.198 3.233-4.51z"/>
		<path fill="#148" d="m262.349 302.1 8.889-1.756-.739 4.78z"/>
		<path fill="#225893" d="m267.452 297.334 6.47-1.012-2.684 4.022z"/>
		<path fill="#2c5c92" d="m273.923 296.322 2.958-1.532 1.308 4.356z"/>
		<path fill="#1a3875" d="m270.499 305.123 6.758 3.437-3.233 4.51z"/>
		<path fill="#254f86" d="m278.19 299.146-6.952 1.198 2.685-4.022z"/>
		<path fill="#1e3b74" d="M280.195 303.853v9.415l-2.938-4.708z"/>
		<path fill="#254f86" d="M280.195 299.146v4.707l-2.006-4.707z"/>
		<path fill="#204b85" d="m271.238 300.344 6.951-1.198 2.006 4.707z"/>
		<path fill="#1e216c" d="m246.809 327.229-5.05-3.01 4.066-2.677z"/>
		<path fill="#183784" d="m235.521 327.147 2.696-6.267 3.542 3.339z"/>
		<path fill="#054e9d" d="m237.38 307.137-5.014-4.816 4.892-1.013z"/>
		<path fill="#1c2b76" d="m241.063 331.127-5.542-3.98 6.238-2.928z"/>
		<path fill="#004e9d" d="m247.497 301.556 1.926 8.212-5.355-.727z"/>
		<path fill="#054e9d" d="m237.38 307.137-.122-5.83 4.97.515z"/>
		<path fill="#2b6cb0" d="m232.02 297.26 5.238 4.048-4.892 1.013z"/>
		<path fill="#2265ae" d="m224.94 299.107 7.081-1.847.345 5.06z"/>
		<path fill="#3a65ad" d="m220.387 292.86 4.822-5.293 2.798 6.59z"/>
		<path fill="#2f7ab7" d="m242.974 294.075 1.164-3.092 1.583 2.571z"/>
		<path fill="#90c2d2" d="m241.277 279.14 3.974 8.1-4.687-.483z"/>
		<path fill="#4d85bc" d="m235.223 290.81 5.596 1.484-3.813 4.024z"/>
		<path fill="#5597c5" d="m241.626 289.483 3.625-2.243-1.113 3.743z"/>
		<path fill="#4d85bc" d="m235.223 290.81 1.783 5.508-4.985.942zm0 0-3.053-4.918 4.585-3.334z"/>
		<path fill="#89d2da" d="m248.465 283.794-3.214 3.446-3.974-8.1z"/>
		<path fill="#a0ccd3" d="m244.067 272.014 7.094.643-2.32 5.333z"/>
		<path fill="#a1cfd5" d="m248.114 266.805-4.047 5.21-4.98-4.132zm0 0 .292-6.591 7.605 3.638z"/>
		<path fill="#90c6d4" d="m255.046 258.911-6.64 1.303 3.006-4.787z"/>
		<path fill="#82bcd2" d="m256.939 254.246 1.576-5.013 6.217 4.923-7.793.09z"/>
		<path fill="#a1cfd5" d="m248.114 266.805 7.897-2.953-2.966 4.105z"/>
		<path fill="#98d6d7" d="m258.252 271.98-5.207-4.023 2.966-4.105z"/>
		<path fill="#1a307c" d="M237.517 337.097h-7.536l3.768-4.42z"/>
		<path fill="#014693" d="m224.814 328.876-4.58 4.558-1.1-8.158z"/>
		<path fill="#0053a0" d="m218.512 317.607-5.25-5.624 7.178-1.438z"/>
		<path fill="#2265ae" d="m224.94 299.107 7.426 3.214-5.62 2.321z"/>
		<path fill="#4d85bc" d="m235.223 290.81-3.202 6.45-4.014-3.103z"/>
		<path fill="#67a5ca" d="m240.564 286.757-3.81-4.199 4.523-3.419z"/>
		<path fill="#677bb5" d="m224.713 280.278 1.715-7.1 3.249 4.542z"/>
		<path fill="#173885" d="m233.75 332.678 7.313-1.55-3.546 5.969z"/>
		<path fill="#183784" d="m235.521 327.147-1.772 5.53-3.501-4.17z"/>
		<path fill="#143f8f" d="m238.508 313.998-6.536-6.248 5.409-.613z"/>
		<path fill="#0058a6" d="m224.982 309.077 1.764-4.435 5.226 3.108z"/>
		<path fill="#4d85bc" d="m235.223 290.81 1.532-8.252 3.809 4.2z"/>
		<path fill="#5375b4" d="m225.209 287.567 6.96-1.675-4.162 8.265z"/>
		<path fill="#7c8ebd" d="m230.687 255.699 5.255 6.53-6.394-.234z"/>
		<path fill="#95bace" d="m242.359 262.361 5.755 4.444-9.027 1.078z"/>
		<path fill="#88a9c8" d="m234.414 274.761-7.986-1.584 5.166-5.12z"/>
		<path fill="#a0ccd3" d="m244.067 272.014-2.79 7.125-1.766-4.8z"/>
		<path fill="#103f8c" d="m230.248 328.506 3.501 4.172-8.228 1.488z"/>
		<path fill="#1c2b76" d="m241.063 331.127-7.314 1.55 1.772-5.53z"/>
		<path fill="#004993" d="m214.91 337.097-.3-6.845 5.624 3.182z"/>
		<path fill="#0b003f" d="m174.852 320.522 2.893-5.523 3.328 5.107z"/>
		<path fill="#08438f" d="m225.52 334.166 8.23-1.488-3.769 4.419z"/>
		<path fill="#103f8c" d="m230.248 328.506-5.434.37.124-6.477z"/>
		<path fill="#90c2d2" d="m241.277 279.14-6.863-4.379 5.097-.422z"/>
		<path fill="#869cc2" d="m231.594 268.058 7.493-.175-4.673 6.878z"/>
		<path fill="#6f77b3" d="m222.874 250.963 5.19.25-3.071 6.707z"/>
		<path fill="#667ab6" d="m230.86 241.51 4.88-5.48.872 6.761z"/>
		<path fill="#88a9c8" d="m234.414 274.761 4.673-6.878.424 6.456z"/>
		<path fill="#96b9cd" d="m239.087 267.883-3.145-5.655 6.417.133z"/>
		<path fill="#95bace" d="m242.359 262.361-6.417-.133 3.28-3.371z"/>
		<path fill="#a1cfd5" d="m248.114 266.805-5.755-4.444 6.047-2.147z"/>
		<path fill="#7c8ebd" d="m230.687 255.699.867-8.337 4.89 2.245z"/>
		<path fill="#6e9dc6" d="m247.14 246.47-5.373 2.353 1.796-5.585z"/>
		<path fill="#7caacb" d="m247.583 251.27-5.816-2.447 5.373-2.353z"/>
		<path fill="#759bc5" d="m241.767 248.823-2.448 5.331-2.875-4.547zm0 0 2.137 8.3-4.585-2.969z"/>
		<path fill="#89bad0" d="m251.412 255.427-7.508 1.696 3.679-5.853z"/>
		<path fill="#7c8ebd" d="m230.687 255.699 8.535 3.158-3.28 3.371z"/>
		<path fill="#8bb3cd" d="m243.904 257.123-4.682 1.734.097-4.703 4.585 2.969z"/>
		<path fill="#82a2c7" d="m239.32 254.154-8.633 1.545 5.757-6.092z"/>
		<path fill="#5f6aaf" d="m223.637 235.494 7.224 6.016-3.91 3.43z"/>
		<path fill="#82a2c7" d="m239.32 254.154-.098 4.703-8.535-3.158 8.632-1.545z"/>
		<path fill="#667ab6" d="m230.86 241.51 5.752 1.281-5.058 4.57z"/>
		<path fill="#8091bd" d="m229.548 261.995 6.394.233-4.348 5.83z"/>
		<path fill="#5b55a2" d="m207.512 259.06 6.797-3.21-.667 7.487z"/>
		<path fill="#5981bb" d="m240.751 238.441-4.139 4.35-.871-6.761z"/>
		<path fill="#759bc5" d="m241.767 248.823-5.155-6.032 6.951.447z"/>
		<path fill="#6b79b5" d="m226.951 244.94 3.91-3.43.693 5.852z"/>
		<path fill="#5877b6" d="m235.74 236.03-4.88 5.48-1.17-5.775z"/>
		<path fill="#7482b8" d="m228.064 251.212 3.49-3.85-.867 8.337z"/>
		<path fill="#5f6aaf" d="m223.637 235.494 3.314 9.446-5.065-1.183z"/>
		<path fill="#3452a1" d="m186.943 236.284.986-7.806 2.102 4.231z"/>
		<path fill="#0055a2" d="m173.97 230.659 7.167.315-3.92 6.082z"/>
		<path fill="#3a55a3" d="m190.031 232.71 1.662 5.969-4.75-2.395z"/>
		<path fill="#18509e" d="m177.217 237.056 6.194 3.462-4.455 1.989z"/>
		<path fill="#0058a5" d="m169.743 224.861-4.954 3.054.012-5.82 4.942 2.766zm0 0 5.086-3.951 1.119 5.01z"/>
		<path fill="#1f55a3" d="m181.137 230.974-5.19-5.053 4.658-2.163z"/>
		<path fill="#0058a5" d="m169.743 224.861 6.205 1.06-1.979 4.738z"/>
		<path fill="#1f55a3" d="m181.137 230.974 5.806 5.31-4.929-.44z"/>
		<path fill="#384f9e" d="m187.865 242.505-4.454-1.987 3.532-4.234z"/>
		<path fill="#535aa8" d="m203.326 230.986 1.448 5.15-5.48.87z"/>
		<path fill="#3b4b9b" d="m188.691 247.882.516 7.416-4.506-3.718z"/>
		<path fill="#4156a5" d="m193.35 228.868-3.319 3.841-2.102-4.23z"/>
		<path fill="#3f52a1" d="m191.693 238.679-1.662-5.97 4.492 1.465z"/>
		<path fill="#4d57a5" d="m199.294 237.006-7.601 1.673 2.83-4.505z"/>
		<path fill="#005aa6" d="m149.628 218.993 5.736.142-2.973 4.166z"/>
		<path fill="#6f77b3" d="m222.874 250.963-.988-7.206 5.065 1.183z"/>
		<path fill="#4f52a1" d="m199.497 247.924-6.377-4.12 5.053-.826z"/>
		<path fill="#545aa7" d="m204.774 236.135 4.397-3.046.444 7.63z"/>
		<path fill="#5358a5" d="m202.963 241.169 1.811-5.034 4.84 4.585z"/>
		<path fill="#5c5ea8" d="m209.615 240.72-.444-7.631 6.592 5.054z"/>
		<path fill="#4d57a5" d="m199.294 237.006 5.48-.87-1.811 5.033z"/>
		<path fill="#6164ac" d="m214.257 243.173 7.63.584-2.298 3.985z"/>
		<path fill="#8091bd" d="m229.548 261.995-4.555-4.075 5.694-2.221z"/>
		<path fill="#4d57a5" d="m199.294 237.006 3.669 4.163-4.79 1.81z"/>
		<path fill="#535aa8" d="m203.326 230.986-4.032 6.02-4.771-2.832z"/>
		<path fill="#3d398a" d="m192.07 272.38-4.287-7.498 5.634 1.754z"/>
		<path fill="#4f52a1" d="m199.497 247.924 3.466-6.755 3.579 3.52z"/>
		<path fill="#5c5ea8" d="m209.615 240.72 6.148-2.577-1.506 5.03z"/>
		<path fill="#5352a0" d="m202.112 253.294-5.691 1.812 3.076-7.182z"/>
		<path fill="#595aa6" d="m206.542 244.689 3.073-3.97 4.642 2.454z"/>
		<path fill="#4f52a1" d="m199.497 247.924 7.045-3.235.338 5.008z"/>
		<path fill="#005aa5" d="m155.364 219.135 5.655-.972-2.1 7.86z"/>
		<path fill="#004f9b" d="M149.628 237.843v-18.85l2.635 9.425z"/>
		<path fill="#00529f" d="m158.046 234.046-5.783-5.628 6.656-2.394z"/>
		<path fill="#004d99" d="m163.495 239.998.883-6.278 5.589 2.993z"/>
		<path fill="#3b4b9b" d="m188.691 247.882 4.429-4.078.686 5.933z"/>
		<path fill="#384f9e" d="m187.865 242.505 3.828-3.826 1.427 5.125z"/>
		<path fill="#254c9b" d="m178.956 242.507 4.455-1.99.194 5.325z"/>
		<path fill="#004d99" d="m163.495 239.998 6.472-3.285-1.572 4.921z"/>
		<path fill="#154591" d="m166.133 248.365-5.476-2.873 7.738-3.858z"/>
		<path fill="#0059a5" d="m164.801 222.096-.012 5.82-5.87-1.892 5.882-3.928z"/>
		<path fill="#064793" d="m160.657 245.492-2.54-4.791 5.378-.703z"/>
		<path fill="#174b98" d="m173.289 243.29-3.322-6.577 7.25.343z"/>
		<path fill="#0053a0" d="m164.378 233.72-.883 6.278-5.449-5.952z"/>
		<path fill="#254c9b" d="m178.956 242.507-5.667.783 3.928-6.234z"/>
		<path fill="#174b98" d="m173.289 243.29 1.344 7.244-3.748-3.051z"/>
		<path fill="#0056a3" d="m164.79 227.915-6.744 6.131.873-8.022zm0 0 4.953-3.054-.911 6.258z"/>
		<path fill="#0054a2" d="m168.832 231.12.91-6.259 4.227 5.798z"/>
		<path fill="#0056a3" d="m164.79 227.915-.412 5.805-6.332.326z"/>
		<path fill="#00509e" d="m169.967 236.713-1.135-5.594 5.137-.46z"/>
		<path fill="#0053a0" d="m164.378 233.72.411-5.805 4.043 3.204z"/>
		<path fill="#2d4f9d" d="m183.41 240.518-6.193-3.462 4.797-1.212z"/>
		<path fill="#294896" d="m178.816 247.609.14-5.102 4.649 3.335z"/>
		<path fill="#4f52a1" d="m199.497 247.924-5.691 1.813-.686-5.933z"/>
		<path fill="#174b98" d="m173.289 243.29 5.527 4.319-4.183 2.925z"/>
		<path fill="#3a65ad" d="m220.387 292.86-7.545-1.686 4.473-2.293z"/>
		<path fill="#183d87" d="m159.144 255.033 9.152 2.596-5.543 2.111z"/>
		<path fill="#364695" d="m184.701 251.58-5.885-3.971 4.789-1.767z"/>
		<path fill="#293582" d="m173.21 263.6-4.879 3.95-1.318-4.956z"/>
		<path fill="#1a4693" d="m170.885 247.483-2.59 10.146-2.162-9.264z"/>
		<path fill="#183a83" d="m154.538 256.737-3.042-4.756 4.06-3.036z"/>
		<path fill="#00509e" d="m169.967 236.713 3.322 6.577-4.894-1.656z"/>
		<path fill="#034c99" d="m168.395 241.634 4.894 1.656-2.404 4.193z"/>
		<path fill="#3452a1" d="m186.943 236.284-3.532 4.234-1.397-4.674z"/>
		<path fill="#314b9a" d="m183.605 245.842-.194-5.324 4.454 1.987z"/>
		<path fill="#213b87" d="m168.296 257.629 2.59-10.146 3.747 3.051z"/>
		<path fill="#034c99" d="m168.395 241.634 2.49 5.849-4.752.882z"/>
		<path fill="#11003e" d="m217.11 182.188 5.336-5.725.798 5.728-6.133-.003z"/>
		<path fill="#3d468f" d="m228.92 211.036 5.57 1.254-3.58 4.098z"/>
		<path fill="#314891" d="m234.49 212.29.206-5.439 4.46-1.424z"/>
		<path fill="#4a519c" d="m225.558 215.922 3.361-4.886 1.992 5.352z"/>
		<path fill="#2c3b81" d="m234.696 206.851-5.777 4.185-4.324-3.73z"/>
		<path fill="#6785bb" d="m236.612 242.791 4.14-4.35 2.811 4.797z"/>
		<path fill="#4671b4" d="m239.125 231.34 1.626 7.101-5.01-2.411z"/>
		<path fill="#74aacc" d="m252.804 248.938-1.392 6.49-3.83-4.158z"/>
		<path fill="#90c6d4" d="m255.046 258.911-3.634-3.484 5.527-1.18z"/>
		<path fill="#8eccd7" d="m261.679 260.18-4.74-5.934 7.793-.09-3.053 6.025z"/>
		<path fill="#94c2d1" d="m248.406 260.214 6.64-1.303.965 4.941z"/>
		<path fill="#63b0d0" d="M280.195 247.365v9.415l-3.295-4.707z"/>
		<path fill="#477faa" d="m275.339 288.734-1.54-6.14 6.396 2.43z"/>
		<path fill="#7dbfd3" d="m264.732 254.156 7.772 1.92-5.463 2.348z"/>
		<path fill="#8eccd7" d="m261.679 260.18-6.633-1.269 1.893-4.665z"/>
		<path fill="#6eb7d2" d="m271.46 250.223 5.44 1.85-4.396 4.003z"/>
		<path fill="#9ad1d6" d="m256.01 263.852 5.669-3.672.149 6.44z"/>
		<path fill="#477faa" d="m275.339 288.734-1.212 3.7-3.88-.32z"/>
		<path fill="#89cad3" d="m265.165 272.75-3.337-6.13 6.033-.282z"/>
		<path fill="#8eccd7" d="m261.679 260.18 3.053-6.024 2.309 4.268z"/>
		<path fill="#73bbd3" d="m276.9 252.073 3.295 4.707-7.691-.704z"/>
		<path fill="#8cced6" d="m267.861 266.338-6.182-6.158 5.362-1.756z"/>
		<path fill="#71b3ca" d="m258.76 283.055 5.728 3.321-4.643 2.466z"/>
		<path fill="#5f9ebd" d="m273.798 282.593 1.54 6.14-5.908-1.558z"/>
		<path fill="#89cad3" d="m265.165 272.75-6.913-.77 3.576-5.36z"/>
		<path fill="#326296" d="m276.881 294.79.893-3.21 2.42 2.859z"/>
		<path fill="#83c9d6" d="m277.224 261.487-4.72-5.41 7.69.703z"/>
		<path fill="#76b8ca" d="m272.461 276.405 1.337 6.188-7.126-1z"/>
		<path fill="#85cbd5" d="M280.195 266.195v9.414l-2.243-4.707z"/>
		<path fill="#83c9d6" d="m277.224 261.487 2.97 4.708-6.152 1.258z"/>
		<path fill="#8cced6" d="m267.861 266.338 3.799-4.696 2.382 5.811z"/>
		<path fill="#76b8ca" d="m272.461 276.405-2.068-4.98 7.56-.523z"/>
		<path fill="#8cced6" d="m267.861 266.338 6.18 1.115-3.648 3.971zm0 0-6.033.283-.15-6.44z"/>
		<path fill="#85cad4" d="m274.042 267.453-2.382-5.81 5.564-.156z"/>
		<path fill="#71b3ca" d="m258.76 283.055 5.81-5.654 2.102 4.193z"/>
		<path fill="#225893" d="m267.452 297.334 2.795-5.22 3.676 4.208z"/>
		<path fill="#3777ab" d="m264.68 291.63-.192-5.254 4.942.8z"/>
		<path fill="#7ec3d1" d="m277.952 270.902 2.243 4.707-7.734.796z"/>
		<path fill="#5691b5" d="m280.195 285.024-6.397-2.43 4.526-2.277z"/>
		<path fill="#76b8ca" d="m272.461 276.405-5.79 5.189-2.1-4.193z"/>
		<path fill="#89c8d2" d="m259.883 277.275 5.282-4.525-.595 4.651z"/>
		<path fill="#76b8ca" d="m272.461 276.405-7.89.996.594-4.651z"/>
		<path fill="#69aac4" d="m266.672 281.594 2.758 5.581-4.942-.799z"/>
		<path fill="#5691b5" d="m280.195 285.024-1.871-4.707 1.87-4.708z"/>
		<path fill="#4e8bb4" d="m269.43 287.175 5.909 1.559-5.092 3.38z"/>
		<path fill="#69aac4" d="m266.672 281.594 7.126 1-4.368 4.581z"/>
		<path fill="#76b8ca" d="m272.461 276.405 5.863 3.912-4.526 2.276z"/>
		<path fill="#187cb9" d="m273.097 229.225 4.06-5.396 3.038 4.707z"/>
		<path fill="#0062a7" d="m274.521 218.45 2.636 5.379-5.581-.485z"/>
		<path fill="#6164ac" d="m214.257 243.173 6.225-4.03 1.404 4.614z"/>
		<path fill="#626aaf" d="m220.482 239.143-.108-7.386 3.263 3.737z"/>
		<path fill="#5a5ca9" d="m216.128 226.349 4.246 5.408-4.94.473z"/>
		<path fill="#065ca9" d="m226.746 304.642 5.62-2.321-.394 5.429z"/>
		<path fill="#225ba7" d="m215.216 298.278-2.374-7.104 7.545 1.686z"/>
		<path fill="#0058a6" d="m224.982 309.077 6.99-1.327-3.286 4.338z"/>
		<path fill="#2265ae" d="m224.94 299.107 1.806 5.535-5.914-1.408z"/>
		<path fill="#3a65ad" d="m220.387 292.86-.234 4.953-4.937.465z"/>
		<path fill="#2b6cb0" d="m232.02 297.26-7.08 1.847 3.067-4.95z"/>
		<path fill="#254f9b" d="m207.922 296.766-2.22 5.107-4.845-2.746z"/>
		<path fill="#4951a0" d="m210.914 283.93-2.526-4.599 6.292 1.758z"/>
		<path fill="#2662ac" d="m220.153 297.813.679 5.42-5.616-4.955z"/>
		<path fill="#5465ac" d="m218.411 283.975-1.096 4.906-6.4-4.952 7.496.046z"/>
		<path fill="#0059a6" d="m214.172 305.121 6.66-1.887-.392 7.31z"/>
		<path fill="#0059a6" d="m214.172 305.121 1.044-6.843 5.616 4.956z"/>
		<path fill="#677bb5" d="m224.713 280.278-6.302 3.697.618-6.165zm0 0 7.457 5.614-6.961 1.675z"/>
		<path fill="#4561a9" d="m217.315 288.88 7.894-1.313-4.822 5.293z"/>
		<path fill="#677bb5" d="m224.713 280.278.496 7.29-6.798-3.593z"/>
		<path fill="#3a65ad" d="m220.387 292.86 4.553 6.247-4.787-1.294z"/>
		<path fill="#075eaa" d="m220.832 303.234-.68-5.421 4.788 1.294z"/>
		<path fill="#005099" d="m208.069 312.83-2.936-5.417 4.977.66z"/>
		<path fill="#0055a0" d="m210.11 308.074 4.062-2.953-.91 6.862z"/>
		<path fill="#4951a0" d="m210.914 283.93 6.401 4.95-4.473 2.294z"/>
		<path fill="#5375b4" d="m225.209 287.567-7.894 1.314 1.096-4.906z"/>
		<path fill="#5465ac" d="m218.411 283.975-3.73-2.886 4.348-3.28z"/>
		<path fill="#7686b9" d="m226.428 273.177 7.986 1.584-4.737 2.959z"/>
		<path fill="#272870" d="m182.703 288.587-3.242 7.626-2.27-7.167z"/>
		<path fill="#4951a0" d="m210.914 283.93-3.645 4.849-2.747-5.147z"/>
		<path fill="#6867ab" d="m217.32 269.843 1.71 7.967-6.099-1.102z"/>
		<path fill="#7686b9" d="m226.428 273.177-1.715 7.101-5.684-2.468z"/>
		<path fill="#77a7c9" d="m236.755 282.558-7.078-4.838 4.737-2.959z"/>
		<path fill="#628dbe" d="m232.17 285.892-7.457-5.614 4.964-2.558z"/>
		<path fill="#144d97" d="m205.701 301.873 5.15-.76-.74 6.96z"/>
		<path fill="#2a3a84" d="m195.977 293.191 5.235-4.756 1.808 5.412z"/>
		<path fill="#1255a1" d="m210.85 301.113 4.366-2.835-1.044 6.843z"/>
		<path fill="#254f9b" d="m207.922 296.766-7.065 2.36 2.163-5.28z"/>
		<path fill="#004184" d="m202.556 324.172-8.423 1.562 2.765-6.569z"/>
		<path fill="#004d95" d="m205.133 307.413-8.733-.74.833-4.597z"/>
		<path fill="#254f9b" d="m207.922 296.766 7.294 1.512-4.366 2.835z"/>
		<path fill="#1c3c83" d="m197.233 302.076 8.468-.203-.568 5.54z"/>
		<path fill="#0058a5" d="m213.261 311.983-2.433 5.226-2.76-4.38z"/>
		<path fill="#144d97" d="m205.701 301.873 4.41 6.2-4.978-.66z"/>
		<path fill="#0055a0" d="m210.11 308.074.74-6.96 3.322 4.007z"/>
		<path fill="#254f9b" d="m207.922 296.766 2.928 4.347-5.149.76z"/>
		<path fill="#7a84b8" d="m225.636 266.691-4.555-4.075 8.467-.621z"/>
		<path fill="#96b9cd" d="m239.087 267.883-7.493.175 4.348-5.83z"/>
		<path fill="#6269ad" d="m219.03 277.81-1.71-7.967 4.963.549z"/>
		<path fill="#5f5ca6" d="m209.387 254.23 5.645-5.863-.723 7.482z"/>
		<path fill="#5955a5" d="m212.931 276.708-6.066-7.793 5.309-.456z"/>
		<path fill="#7275b2" d="m221.081 262.616 4.555 4.075-3.353 3.7z"/>
		<path fill="#7a84b8" d="m225.636 266.691 3.912-4.696 2.046 6.063z"/>
		<path fill="#7780b6" d="m224.993 257.92 4.555 4.075-8.467.621z"/>
		<path fill="#869cc2" d="m231.594 268.058-5.166 5.12-.792-6.487z"/>
		<path fill="#7177b3" d="m222.283 270.392 3.353-3.7.792 6.485z"/>
		<path fill="#6560a8" d="m213.642 263.337.667-7.488 5.248 1.52z"/>
		<path fill="#7084ba" d="m231.554 247.362-3.49 3.85-1.113-6.272z"/>
		<path fill="#7780b6" d="m224.993 257.92-3.912 4.696-1.524-5.246z"/>
		<path fill="#6f77b3" d="m222.874 250.963 2.119 6.957-5.436-.55z"/>
		<path fill="#6269ad" d="m219.03 277.81 3.253-7.418 4.145 2.785z"/>
		<path fill="#7275b2" d="m221.081 262.616 1.202 7.776-4.964-.549z"/>
		<path fill="#6566ac" d="m215.032 248.367-8.152 1.33-.338-5.008z"/>
		<path fill="#686fb1" d="m221.886 243.757.988 7.206-3.285-3.22z"/>
		<path fill="#6164ac" d="m214.257 243.173 1.506-5.03 4.72 1z"/>
		<path fill="#595aa6" d="m206.542 244.689 7.715-1.516.775 5.194z"/>
		<path fill="#6665aa" d="m214.309 255.85 5.28-8.108 3.285 3.22z"/>
		<path fill="#6164ac" d="m214.257 243.173 5.332 4.57-4.557.624z"/>
		<path fill="#3a408f" d="m186.496 259.793 6.465.96-5.178 4.13z"/>
		<path fill="#434394" d="m192.96 260.753-6.464-.96 2.71-4.495z"/>
		<path fill="#5352a0" d="m202.112 253.294-2.615-5.37 7.383 1.773z"/>
		<path fill="#454d9c" d="m193.806 249.737 5.69-1.813-3.075 7.182z"/>
		<path fill="#4c53a2" d="m198.173 242.978-5.053.826-1.427-5.125z"/>
		<path fill="#5358a5" d="m202.963 241.169-3.466 6.755-1.324-4.946z"/>
		<path fill="#5f5ca6" d="m209.387 254.23-7.275-.936 4.768-3.597z"/>
		<path fill="#5352a0" d="m202.112 253.294 7.275.937-6.259 3.523z"/>
		<path fill="#3e4595" d="m189.207 255.298 4.599-5.561 2.615 5.37z"/>
		<path fill="#3b4b9b" d="m188.691 247.882-.826-5.377 5.255 1.299z"/>
		<path fill="#3e4595" d="m189.207 255.298 7.214-.191-3.46 5.646z"/>
		<path fill="#364695" d="m184.701 251.58 4.506 3.718-7.05 1.54z"/>
		<path fill="#4a4a9b" d="m196.42 255.107 5.692-1.813 1.016 4.46z"/>
		<path fill="#434394" d="m192.96 260.753 3.46-5.646 3.994 6.33z"/>
		<path fill="#554f9e" d="m205.17 263.855-4.756-2.418 2.714-3.683z"/>
		<path fill="#4d4597" d="m203.142 272.65-5.702 3.034 2.597-7.296z"/>
		<path fill="#303785" d="m179.376 264.773 7.12-4.98 1.287 5.09z"/>
		<path fill="#34408f" d="m182.157 256.839 7.05-1.541-2.71 4.495z"/>
		<path fill="#294896" d="m178.816 247.609 5.885 3.971-2.544 5.259z"/>
		<path fill="#314b9a" d="m183.605 245.842 4.26-3.337.826 5.377z"/>
		<path fill="#554f9e" d="m205.17 263.855-2.042-6.1 4.384 1.306z"/>
		<path fill="#4a4a9b" d="m196.42 255.107 6.708 2.647-2.714 3.683z"/>
		<path fill="#6560a8" d="m213.642 263.337-1.468 5.122-7.003-4.604z"/>
		<path fill="#4d4c9c" d="m208.388 279.332 4.543-2.624 1.75 4.381z"/>
		<path fill="#6560a8" d="m213.642 263.337-8.471.518 2.341-4.794z"/>
		<path fill="#554f9e" d="m205.17 263.855 1.695 5.06-6.828-.527z"/>
		<path fill="#064793" d="m160.657 245.492 2.838-5.494 4.9 1.636zm0 0 .855 5.026-5.956-1.573z"/>
		<path fill="#0056a2" d="m152.263 228.418 1.999 8.468-4.634.957z"/>
		<path fill="#004c98" d="m158.117 240.7-.07-6.654 5.448 5.952-5.378.703z"/>
		<path fill="#13428d" d="m161.512 250.518-.855-5.026 5.476 2.873z"/>
		<path fill="#004c98" d="m158.117 240.7 2.54 4.792-6.869-1.616z"/>
		<path fill="#293d8a" d="m175.239 257.453-.606-6.919 7.524 6.305z"/>
		<path fill="#213b87" d="m168.296 257.629-9.152-2.596 2.368-4.515z"/>
		<path fill="#004994" d="m153.788 243.876.474-6.99 3.855 3.815z"/>
		<path fill="#13428d" d="m161.512 250.518-2.368 4.515-3.588-6.088z"/>
		<path fill="#213b87" d="m168.296 257.629-6.784-7.11 4.621-2.154z"/>
		<path fill="#034590" d="m149.628 247.269 1.868 4.712-1.869 4.713z"/>
		<path fill="#034590" d="m149.628 247.269 5.928 1.676-4.06 3.036z"/>
		<path fill="#00529f" d="m158.046 234.046.071 6.655-3.855-3.815 3.784-2.84z"/>
		<path fill="#183a83" d="m154.538 256.737 1.018-7.792 3.588 6.088z"/>
		<path fill="#034590" d="M149.628 247.269v-9.426l4.16 6.033z"/>
		<path fill="#00509b" d="m154.262 236.886-.474 6.99-4.16-6.033z"/>
		<path fill="#7dc3d5" d="m272.504 256.076 4.72 5.411-5.564.155z"/>
		<path fill="#7dc5d6" d="M280.195 256.78v9.415l-2.97-4.708z"/>
		<path fill="#8cced6" d="m267.861 266.338 2.532 5.086-5.228 1.326z"/>
		<path fill="#7ec3d1" d="m277.952 270.902-7.56.522 3.65-3.97z"/>
		<path fill="#093d86" d="M280.195 200.292v9.415L275.61 205z"/>
		<path fill="#00458e" d="m275.61 205 4.585 4.707-4.712.003.127-4.71z"/>
		<path fill="#0059a0" d="m277.876 214.414-2.393-4.704 4.712-.003-2.319 4.707z"/>
		<path fill="#004e97" d="m268.11 210.016 7.373-.306-2.998 3.634z"/>
		<path fill="#0a3c85" d="m270.8 200.524.08 5.517-3.985-2.755 3.905-2.762z"/>
		<path fill="#004f97" d="m275.483 209.71-4.604-3.669L275.61 205z"/>
		<path fill="#254f9b" d="m207.922 296.766-4.902-2.92 4.249-5.067z"/>
		<path fill="#3a4c9a" d="m207.269 288.779 3.645-4.85 1.928 7.245z"/>
		<path fill="#6269ad" d="m219.03 277.81-4.35 3.28-1.749-4.382z"/>
		<path fill="#5465ac" d="m218.411 283.975-7.497-.046 3.766-2.84 3.731 2.886z"/>
		<path fill="#21357b" d="m193.21 299.7 7.647-.573-3.624 2.949z"/>
		<path fill="#564e9e" d="m206.865 268.915 6.066 7.793-4.543 2.623z"/>
		<path fill="#343784" d="m194.235 286.016 6.977 2.419-5.235 4.756z"/>
		<path fill="#4b4496" d="m200.037 268.388-6.62-1.752 6.997-5.2z"/>
		<path fill="#254f9b" d="m207.922 296.766-.653-7.987 5.573 2.395z"/>
		<path fill="#414696" d="m204.522 283.632 2.747 5.147-6.057-.344z"/>
		<path fill="#3d3d8d" d="m198.693 281.864 2.519 6.57-6.977-2.418z"/>
		<path fill="#414696" d="m204.522 283.632-1.186-5.712 5.052 1.411z"/>
		<path fill="#2a3a84" d="m195.977 293.191 4.88 5.936-7.647.573z"/>
		<path fill="#3a4c9a" d="m207.269 288.779-4.25 5.068-1.807-5.412z"/>
		<path fill="#414696" d="m204.522 283.632 3.866-4.3 2.526 4.597z"/>
		<path fill="#4d4c9c" d="m208.388 279.332-5.052-1.412-.194-5.27z"/>
		<path fill="#060034" d="m154.187 332.536 6.191 1.706-5.752 2.855z"/>
		<path fill="#131b57" d="m183.828 314.619-2.755 5.487-3.328-5.107z"/>
		<path fill="#004d95" d="m205.133 307.413 2.936 5.417-7.74-.633z"/>
		<path fill="#0c0745" d="m178.237 324.406 2.183 6.558-6.955-.55z"/>
		<path fill="#7275b2" d="m221.081 262.616-3.762 7.227-3.677-6.506z"/>
		<path fill="#605aa5" d="m212.174 268.459 1.468-5.122 3.677 6.506z"/>
		<path fill="#5f5ca6" d="m209.387 254.23 4.922 1.62-6.797 3.21z"/>
		<path fill="#6566ac" d="m215.032 248.367 4.557-.625-5.28 8.107z"/>
		<path fill="#6560a8" d="m213.642 263.337 5.915-5.967 1.524 5.246z"/>
		<path fill="#6f77b3" d="m222.874 250.963-3.317 6.407-5.248-1.52z"/>
		<path fill="#5955a5" d="m212.931 276.708-.757-8.249 5.145 1.384z"/>
		<path fill="#554f9e" d="m205.17 263.855 7.004 4.604-5.31.456z"/>
		<path fill="#5f5ca6" d="m209.387 254.23-1.875 4.83-4.384-1.306z"/>
		<path fill="#6566ac" d="m215.032 248.367-5.645 5.864-2.507-4.534z"/>
		<path fill="#7780b6" d="m224.993 257.92 3.071-6.708 2.623 4.487z"/>
		<path fill="#6b79b5" d="m226.951 244.94 1.113 6.272-5.19-.25z"/>
		<path fill="#3e4595" d="m189.207 255.298-.516-7.416 5.115 1.855z"/>
		<path fill="#314b9a" d="m183.605 245.842 5.086 2.04-3.99 3.698z"/>
		<path fill="#293d8a" d="m175.239 257.453-6.943.176 6.337-7.095z"/>
		<path fill="#3d3d8d" d="m198.693 281.864 5.83 1.768-3.311 4.803z"/>
		<path fill="#004184" d="m202.556 324.172 4.925-2.27 1.041 5.205z"/>
		<path fill="#004d95" d="m205.133 307.413-4.803 4.784-3.93-5.524z"/>
		<path fill="#253179" d="m191.026 294.929 4.951-1.738-2.767 6.509z"/>
		<path fill="#2a3a84" d="m195.977 293.191 7.043.656-2.163 5.28z"/>
		<path fill="#253179" d="m191.026 294.929-4.61 4.138-.22-6.192z"/>
		<path fill="#2c337d" d="m191.515 290.07-3.59-3.31 6.31-.744z"/>
		<path fill="#1c3c83" d="m197.233 302.076 3.624-2.95 4.844 2.747z"/>
		<path fill="#1b3276" d="m192.377 304.297 4.856-2.221-.833 4.597z"/>
		<path fill="#1b3276" d="m192.377 304.297 4.023 2.376-1 4.87z"/>
		<path fill="#1f296c" d="m186.415 299.067 5.962 5.23-4.6.813z"/>
		<path fill="#191c5c" d="m180.86 303.493 6.916 1.617-4.44 3.388z"/>
		<path fill="#170b4f" d="m168.577 298.241-4.862-4.046 5.496-4.784z"/>
		<path fill="#3b3b8c" d="m187.783 264.882-4.244 3.074-4.163-3.183z"/>
		<path fill="#3a3888" d="m194.21 279.556-6.177-3.994 4.036-3.182z"/>
		<path fill="#21357b" d="m193.21 299.7-6.795-.633 4.61-4.138z"/>
		<path fill="#2d2c77" d="m184.301 282.726-1.598 5.86-3.432-7.885z"/>
		<path fill="#2a3a84" d="m195.977 293.191-4.951 1.738.489-4.859z"/>
		<path fill="#414696" d="m204.522 283.632-5.83-1.768 4.644-3.944z"/>
		<path fill="#343280" d="m189.269 280.55 4.942-.994.024 6.46-4.966-5.465z"/>
		<path fill="#3a3888" d="m194.21 279.556-2.14-7.176 5.37 3.304z"/>
		<path fill="#21357b" d="m193.21 299.7-.833 4.597-5.962-5.23z"/>
		<path fill="#252a71" d="m186.197 292.875 1.728-6.114 3.59 3.31z"/>
		<path fill="#131b57" d="m183.828 314.619 5.951 3.713-3.984 2.695z"/>
		<path fill="#252a71" d="m186.197 292.875.218 6.192-6.954-2.854z"/>
		<path fill="#0f3779" d="m195.4 311.543-6.369-.185 3.346-7.06z"/>
		<path fill="#1e175c" d="m169.211 289.41 7.98-.364-3.764 5.135z"/>
		<path fill="#1f296c" d="m186.415 299.067 1.361 6.043-6.916-1.617z"/>
		<path fill="#100042" d="m158.37 302.258-.137 5.528-6.148.748z"/>
		<path fill="#272870" d="m182.703 288.587 5.222-1.826-1.728 6.114z"/>
		<path fill="#343280" d="m189.269 280.55 4.966 5.466-6.31.745z"/>
		<path fill="#2a3a84" d="m195.977 293.191-4.462-3.12 2.72-4.055z"/>
		<path fill="#252a71" d="m186.197 292.875 5.318-2.805-.49 4.859z"/>
		<path fill="#1f1e61" d="m179.461 296.213 3.242-7.626 3.494 4.288z"/>
		<path fill="#222066" d="m177.191 289.046 2.08-8.345 3.432 7.886z"/>
		<path fill="#0f1954" d="m184.98 325.768.815-4.74 8.338 4.706-9.154.034z"/>
		<path fill="#140449" d="m158.432 296.495.566-5.916 4.717 3.616z"/>
		<path fill="#120a4a" d="m175.196 309.462-8.853 2.072 5.02-5.687z"/>
		<path fill="#171152" d="m174.092 301.34 6.768 2.153-4.248 1.64z"/>
		<path fill="#191c5c" d="m180.86 303.493-1.399-7.28 6.954 2.854z"/>
		<path fill="#171152" d="m174.092 301.34 5.369-5.127 1.4 7.28z"/>
		<path fill="#063877" d="m198.597 330.607 5.01 3.106-3.768 3.384z"/>
		<path fill="#171e5c" d="m183.337 308.498-8.14.964 1.415-4.329z"/>
		<path fill="#1b3276" d="m192.377 304.297-3.346 7.06-1.255-6.247z"/>
		<path fill="#142968" d="m189.031 311.358-5.694-2.86 4.44-3.388z"/>
		<path fill="#100b49" d="m177.745 315-8.404.512 5.855-6.05z"/>
		<path fill="#171e5c" d="m183.337 308.498-6.725-3.365 4.248-1.64z"/>
		<path fill="#120548" d="m171.363 305.847 5.249-.714-1.416 4.329z"/>
		<path fill="#2f3b89" d="m178.967 260.175 7.53-.382-7.121 4.98z"/>
		<path fill="#293d8a" d="m175.239 257.453 6.918-.614-3.19 3.336z"/>
		<path fill="#3d398a" d="m192.07 272.38-8.599.816.068-5.24 8.53 4.424z"/>
		<path fill="#2c2c78" d="m178.504 275.344 4.967-2.148-4.2 7.505z"/>
		<path fill="#3a408f" d="m186.496 259.793-7.529.382 3.19-3.336z"/>
		<path fill="#293582" d="m173.21 263.6 5.757-3.425.409 4.598z"/>
		<path fill="#142968" d="m189.031 311.358 6.37.185-1.722 4.297z"/>
		<path fill="#014286" d="m200.33 312.197-6.65 3.643 1.72-4.297z"/>
		<path fill="#00498f" d="m205.066 317.046-3.653 2.718-1.083-7.567z"/>
		<path fill="#171e5c" d="m183.337 308.498 5.694 2.86-5.203 3.26z"/>
		<path fill="#0f1954" d="m184.98 325.768-6.743-1.362 2.836-4.3z"/>
		<path fill="#060034" d="m163.449 324.614 1.997 5.683-7.416-3.052zm-9.262 7.922-1.637-5.23 5.48-.061-3.843 5.291z"/>
		<path fill="#0d2965" d="M192.304 337.097h-7.536l3.768-2.763z"/>
		<path fill="#2a2973" d="m179.27 280.701-5.436 3.077-1.841-5.53z"/>
		<path fill="#1e2269" d="m155.136 275.33-1.663-5.258 5.384 1.19z"/>
		<path fill="#014286" d="m200.33 312.197-4.93-.654 1-4.87z"/>
		<path fill="#0d2965" d="m192.304 337.097 6.293-6.49 1.242 6.49z"/>
		<path fill="#0c0745" d="m178.237 324.406-3.385-3.884 6.221-.416z"/>
		<path fill="#112865" d="m189.779 318.332-5.95-3.713 5.202-3.261z"/>
		<path fill="#060036" d="m169.697 337.097 3.768-6.683 3.768 6.683z"/>
		<path fill="#171e5c" d="m183.337 308.498.491 6.12-6.083.381z"/>
		<path fill="#0b003f" d="m174.852 320.522-5.511-5.01 8.404-.513z"/>
		<path fill="#0e3272" d="m193.68 315.84 6.65-3.643-3.432 6.968z"/>
		<path fill="#120548" d="m171.363 305.847 2.729-4.507 2.52 3.793z"/>
		<path fill="#112865" d="m189.779 318.332 4.354 7.402-8.338-4.707z"/>
		<path fill="#070038" d="m170.518 324.957 7.719-.551-4.772 6.008z"/>
		<path fill="#060034" d="m158.03 327.245 2.348 6.997-6.191-1.706z"/>
		<path fill="#0c0d48" d="m180.42 330.964 4.348 6.133h-7.535z"/>
		<path fill="#0f114d" d="m181.073 320.106 4.722.921-.816 4.741z"/>
		<path fill="#0f1954" d="m184.98 325.768-4.56 5.196-2.183-6.558z"/>
		<path fill="#073879" d="m196.898 319.165-2.765 6.57-4.354-7.403z"/>
		<path fill="#0e215c" d="m188.536 334.334-8.116-3.37 7.773-1.29z"/>
		<path fill="#070037" d="m169.424 332.54 4.04-2.126-3.767 6.683z"/>
		<path fill="#0c0d48" d="m180.42 330.964 8.116 3.37-3.768 2.763z"/>
		<path fill="#073879" d="m196.898 319.165-7.119-.833 3.9-2.492z"/>
		<path fill="#142968" d="m189.031 311.358 4.648 4.482-3.9 2.492z"/>
		<path fill="#131b57" d="m183.828 314.619 1.967 6.408-4.722-.921z"/>
		<path fill="#0c306d" d="m194.133 325.734-5.94 3.94-3.214-3.906 9.154-.034z"/>
		<path fill="#0d2965" d="m192.304 337.097-3.768-2.763 10.06-3.727z"/>
		<path fill="#0f215b" d="m188.193 329.675 5.94-3.94 4.464 4.872z"/>
		<path fill="#063877" d="m198.597 330.607 5.452-1.939-.442 5.045z"/>
		<path fill="#004184" d="m201.413 319.764 1.143 4.408-5.658-5.007z"/>
		<path fill="#080037" d="m155.51 312.599-2.387 5.36-3.497-4.713z"/>
		<path fill="#0b003f" d="m174.852 320.522-4.334 4.435-3.446-5.155z"/>
		<path fill="#043a7a" d="m199.84 337.097 3.767-3.384 3.768 3.384z"/>
		<path fill="#004184" d="m202.556 324.172-3.96 6.435-4.463-4.873z"/>
		<path fill="#00529b" d="m210.828 317.209-3.347 4.692-2.415-4.855z"/>
		<path fill="#004285" d="m204.05 328.668-5.453 1.939 3.96-6.435z"/>
		<path fill="#00478e" d="m209.694 332.302-5.645-3.634 4.473-1.561z"/>
		<path fill="#343280" d="m189.269 280.55-1.344 6.21-3.624-4.034z"/>
		<path fill="#323280" d="m183.471 273.196 4.562 2.366-3.732 7.164z"/>
		<path fill="#222066" d="m177.191 289.046-3.357-5.268 5.437-3.077z"/>
		<path fill="#353685" d="m183.539 267.956-.068 5.24-7.908-5.176 7.976-.064z"/>
		<path fill="#272870" d="m182.703 288.587 1.598-5.86 3.624 4.034z"/>
		<path fill="#323280" d="m183.471 273.196.83 9.53-5.03-2.025z"/>
		<path fill="#2b327e" d="m175.563 268.02-7.232-.47 4.878-3.95z"/>
		<path fill="#15054b" d="M149.627 294.396v-9.426l3.501 3.464z"/>
		<path fill="#0b003b" d="m166.343 311.534 8.853-2.072-5.855 6.05zm0 0 .73 8.268-5.114-.08 4.384-8.188z"/>
		<path fill="#090038" d="m161.422 312.304 4.92-.77-4.383 8.188z"/>
		<path fill="#242269" d="m173.834 283.778-4.623 5.633-1.44-7.143z"/>
		<path fill="#063877" d="m198.597 330.607-10.061 3.727-.343-4.66z"/>
		<path fill="#004184" d="m202.556 324.172-1.143-4.408 6.068 2.137z"/>
		<path fill="#004993" d="M214.91 337.097h-7.535l2.32-4.795z"/>
		<path fill="#014286" d="m200.33 312.197 1.083 7.567-4.515-.599z"/>
		<path fill="#004a91" d="m207.48 321.901-6.067-2.137 3.653-2.718z"/>
		<path fill="#0053a0" d="m218.512 317.607.622 7.67-6.538-1.574z"/>
		<path fill="#004993" d="m214.91 337.097-5.216-4.795 4.916-2.05z"/>
		<path fill="#00498f" d="m205.066 317.046 3.003-4.216 2.76 4.379z"/>
		<path fill="#00488e" d="m208.522 327.107-1.041-5.206 5.115 1.802z"/>
		<path fill="#00529b" d="m210.828 317.209 2.433-5.226 5.25 5.624z"/>
		<path fill="#004d96" d="m212.596 323.703-5.115-1.802 3.347-4.692z"/>
		<path fill="#00488e" d="m208.522 327.107 4.074-3.404 2.014 6.549z"/>
		<path fill="#004a93" d="m214.61 330.252-4.916 2.05-1.172-5.195z"/>
		<path fill="#004c98" d="m219.134 325.276-4.524 4.976-2.014-6.55z"/>
		<path fill="#004a93" d="m214.61 330.252 4.524-4.976 1.1 8.158z"/>
		<path fill="#005099" d="m208.069 312.83-3.003 4.216-4.736-4.85z"/>
		<path fill="#0058a5" d="m213.261 311.983-5.192.847 2.041-4.756z"/>
		<path fill="#004285" d="m204.05 328.668 5.644 3.634-6.087 1.411z"/>
		<path fill="#004184" d="m202.556 324.172 5.966 2.935-4.473 1.561z"/>
		<path fill="#00529b" d="m210.828 317.209 7.684.398-5.916 6.096z"/>
		<path fill="#014693" d="m224.814 328.876-5.68-3.6 5.804-2.877z"/>
		<path fill="#0058a5" d="m213.261 311.983.91-6.862 6.269 5.424z"/>
		<path fill="#00519f" d="m228.686 312.088 4.39 3.628-5.387 1.846z"/>
		<path fill="#004c98" d="m219.134 325.276-.622-7.669 6.426 4.792z"/>
		<path fill="#0053a1" d="m223.088 315.062 4.6 2.5-2.75 4.837z"/>
		<path fill="#0c4291" d="m231.382 321.724-6.444.675 2.75-4.837z"/>
		<path fill="#0053a1" d="m223.088 315.062 1.85 7.337-6.426-4.792z"/>
		<path fill="#0054a2" d="m231.972 307.75 1.105 7.966-4.391-3.628z"/>
		<path fill="#084695" d="m233.077 315.716 5.43-1.718-.29 6.882z"/>
		<path fill="#014693" d="m224.814 328.876.707 5.29-5.287-.732z"/>
		<path fill="#004993" d="m214.91 337.097 5.324-3.663 5.287.732z"/>
		<path fill="#103f8c" d="m230.248 328.506-4.727 5.66-.707-5.29z"/>
		<path fill="#004993" d="m214.91 337.097 10.61-2.93 4.461 2.93z"/>
		<path fill="#0058a6" d="m224.982 309.077-4.15-5.843 5.914 1.408z"/>
		<path fill="#0053a1" d="m223.088 315.062 5.598-2.974-.997 5.474z"/>
		<path fill="#0053a1" d="m223.088 315.062 1.894-5.985 3.704 3.011z"/>
		<path fill="#075eaa" d="m220.832 303.234 4.15 5.843-4.542 1.468z"/>
		<path fill="#0053a0" d="m218.512 317.607 1.928-7.062 2.648 4.517z"/>
		<path fill="#0053a1" d="m223.088 315.062-2.648-4.517 4.542-1.468z"/>
		<path fill="#004083" d="m203.607 333.713 6.087-1.41-2.32 4.794z"/>
		<path fill="#3d398a" d="m192.07 272.38-8.531-4.424 4.244-3.074z"/>
		<path fill="#323280" d="m183.471 273.196-4.967 2.148-2.941-7.324z"/>
		<path fill="#3b3b8c" d="m187.783 264.882 5.178-4.129.456 5.883z"/>
		<path fill="#3d3d8d" d="m198.693 281.864-1.253-6.18 5.896 2.236z"/>
		<path fill="#434394" d="m192.96 260.753 7.454.684-6.997 5.199z"/>
		<path fill="#4e4a9a" d="m200.414 261.437 4.757 2.418-5.134 4.533z"/>
		<path fill="#4d4597" d="m203.142 272.65-3.105-4.262 6.828.527z"/>
		<path fill="#3d398a" d="m192.07 272.38 1.347-5.744 6.62 1.752z"/>
		<path fill="#3a3888" d="m194.21 279.556 3.23-3.872 1.253 6.18z"/>
		<path fill="#4b4496" d="m200.037 268.388-2.597 7.296-5.37-3.304z"/>
		<path fill="#343784" d="m194.235 286.016-.024-6.46 4.482 2.308-4.458 4.152z"/>
		<path fill="#3a3888" d="m194.21 279.556-4.941.995-1.236-4.989z"/>
		<path fill="#4d4c9c" d="m208.388 279.332-5.246-6.682 3.723-3.735z"/>
		<path fill="#423d8f" d="m197.44 275.684 5.702-3.034.194 5.27z"/>
		<path fill="#1e175c" d="m169.211 289.41 4.216 4.771-4.85 4.06z"/>
		<path fill="#1f2066" d="m160.33 278.613 7.442 3.655-5.054 3.451z"/>
		<path fill="#1d175c" d="m162.718 285.719 6.493 3.692-5.496 4.784z"/>
		<path fill="#252a74" d="m168.977 272.325-.646-4.775 5.45 5.15z"/>
		<path fill="#223580" d="m167.013 262.594-4.26-2.854 5.543-2.111z"/>
		<path fill="#252a74" d="m168.977 272.325-5.304 1.795 4.658-6.57z"/>
		<path fill="#0b003f" d="m174.852 320.522-7.78-.72 2.269-4.29z"/>
		<path fill="#0c0d48" d="m180.42 330.964 4.56-5.196 3.213 3.907z"/>
		<path fill="#09003b" d="m173.465 330.414 6.955.55-3.187 6.133z"/>
		<path fill="#070038" d="m170.518 324.957-5.072 5.34-1.997-5.683z"/>
		<path fill="#060036" d="M169.697 337.097h-15.071l5.752-2.855z"/>
		<path fill="#060034" d="m165.446 330.297 4.251 6.8-9.319-2.855z"/>
		<path fill="#0c0745" d="m178.237 324.406-7.719.551 4.334-4.435z"/>
		<path fill="#070038" d="m170.518 324.957 2.947 5.457-4.041 2.125z"/>
		<path fill="#060036" d="m169.697 337.097-4.251-6.8 3.978 2.242z"/>
		<path fill="#070038" d="m170.518 324.957-1.094 7.582-3.978-2.242z"/>
		<path fill="#170b4f" d="m168.577 298.241 2.786 7.606-5.221.71z"/>
		<path fill="#2d2c77" d="m184.301 282.726 3.732-7.164 1.236 4.989z"/>
		<path fill="#323280" d="m183.471 273.196 8.598-.816-4.036 3.182z"/>
		<path fill="#180e53" d="m158.998 290.58 3.72-4.861.997 8.476z"/>
		<path fill="#25256e" d="m171.993 278.248 1.84 5.53-6.061-1.51z"/>
		<path fill="#223580" d="m167.013 262.594-5.25 3.231.99-6.085z"/>
		<path fill="#25256e" d="m171.993 278.248 1.788-5.547 4.723 2.643z"/>
		<path fill="#252f7a" d="m168.331 267.55-6.568-1.725 5.25-3.23z"/>
		<path fill="#21266e" d="m163.673 274.12 8.32 4.128-4.221 4.02z"/>
		<path fill="#183a83" d="m154.538 256.737-4.91 4.67v-4.713l4.91.043z"/>
		<path fill="#1e2268" d="m149.627 275.545 3.846-5.473 1.663 5.258z"/>
		<path fill="#252f7a" d="m168.331 267.55-4.658 6.57-1.91-8.295z"/>
		<path fill="#2b327e" d="m175.563 268.02-2.354-4.42 6.167 1.173z"/>
		<path fill="#293582" d="m173.21 263.6-4.914-5.971 6.943-.176z"/>
		<path fill="#1f2066" d="m160.33 278.613 3.343-4.493 4.099 8.148z"/>
		<path fill="#213b87" d="m168.296 257.629 4.913 5.97-6.196-1.005z"/>
		<path fill="#2f3b89" d="m178.967 260.175-5.758 3.424 2.03-6.146z"/>
		<path fill="#353685" d="m183.539 267.956-7.976.064 3.813-3.247z"/>
		<path fill="#252f7a" d="m168.331 267.55 7.232.47-1.782 4.68z"/>
		<path fill="#25256e" d="m171.993 278.248-3.016-5.923 4.804.376z"/>
		<path fill="#15054b" d="m149.627 294.396 4.952-1.255-1.284 5.967z"/>
		<path fill="#090038" d="m161.422 312.304-3.189-4.518 7.909-1.229z"/>
		<path fill="#140348" d="m163.254 299.692-4.884 2.566.062-5.763 4.822 3.197z"/>
		<path fill="#242269" d="m173.834 283.778 3.357 5.268-7.98.365z"/>
		<path fill="#222066" d="m177.191 289.046 2.27 7.167-6.034-2.032z"/>
		<path fill="#1f1e61" d="m179.461 296.213-5.37 5.127-.664-7.159z"/>
		<path fill="#1d175a" d="m173.427 294.181.665 7.159-5.515-3.099z"/>
		<path fill="#120548" d="m171.363 305.847-2.786-7.606 5.515 3.099z"/>
		<path fill="#140348" d="m163.254 299.692 2.888 6.865-7.772-4.3z"/>
		<path fill="#25256e" d="m171.993 278.248 6.51-2.904.768 5.357z"/>
		<path fill="#2b327e" d="m175.563 268.02 2.94 7.324-4.722-2.643z"/>
		<path fill="#080037" d="m155.51 312.599 6.45 7.123-8.837-1.763z"/>
		<path fill="#070038" d="m170.518 324.957-7.07-.343 3.624-4.812z"/>
		<path fill="#090038" d="m161.422 312.304 4.72-5.747.2 4.977z"/>
		<path fill="#060034" d="m167.072 319.802-3.623 4.812-1.49-4.892 5.113.08zm-10.138 2.082 6.515 2.73-5.42 2.63z"/>
		<path fill="#060034" d="m152.55 327.306-2.924-4.634 7.308-.788z"/>
		<path fill="#070036" d="m149.626 313.246 3.497 4.713-3.497 4.713z"/>
		<path fill="#060034" d="m161.96 319.722-6.45-7.123 5.912-.295z"/>
		<path fill="#120548" d="m171.363 305.847-5.02 5.687-.201-4.977z"/>
		<path fill="#060034" d="m167.072 319.802-.73-8.268 2.999 3.978z"/>
		<path fill="#180c50" d="m163.715 294.195-.46 5.497-4.823-3.197z"/>
		<path fill="#080037" d="m155.51 312.599 2.723-4.813 3.189 4.518z"/>
		<path fill="#070036" d="M149.626 313.246v-9.425l2.459 4.713z"/>
		<path fill="#080037" d="m155.51 312.599-5.884.647 2.459-4.712z"/>
		<path fill="#0a0039" d="m152.085 308.534-2.458-4.713 8.743-1.563z"/>
		<path fill="#104" d="m153.295 299.108 5.075 3.15-8.743 1.563z"/>
		<path fill="#170b4f" d="m168.577 298.241-5.323 1.451.461-5.497z"/>
		<path fill="#0a0039" d="m152.085 308.534 6.148-.748-2.723 4.813z"/>
		<path fill="#0f0041" d="m166.142 306.557-7.909 1.229.137-5.528zm0 0-2.888-6.865 5.323-1.45z"/>
		<path fill="#104" d="m153.295 299.108 5.137-2.613-.062 5.763-5.075-3.15z"/>
		<path fill="#060034" d="m149.626 332.097 2.924-4.79 1.637 5.23zm7.308-10.213 5.025-2.162 1.49 4.892zm0 0-7.308.788 3.497-4.713z"/>
		<path fill="#0e003e" d="M149.627 303.82v-9.424l3.668 4.712z"/>
		<path fill="#1c347e" d="m155.519 261.55 3.625-6.517 3.609 4.707z"/>
		<path fill="#1f2066" d="m160.33 278.613-4.115 5.983-3.55-4.338z"/>
		<path fill="#203079" d="m161.763 265.825-6.244-4.276 7.234-1.809z"/>
		<path fill="#1e2970" d="m153.473 270.072 3.334-3.707 2.05 4.898z"/>
		<path fill="#1d175c" d="m162.718 285.719-3.72 4.86-2.783-5.983z"/>
		<path fill="#1d2e76" d="m149.627 266.12 5.892-4.57 1.288 4.815z"/>
		<path fill="#16084d" d="m154.579 293.14 4.42-2.56-.567 5.915z"/>
		<path fill="#1b165a" d="m156.215 284.596 2.783 5.983-5.87-2.145z"/>
		<path fill="#104" d="m153.295 299.108 1.284-5.967 3.853 3.354z"/>
		<path fill="#1d1b60" d="m152.664 280.258 3.551 4.338-6.588.374z"/>
		<path fill="#180e53" d="m158.998 290.58-4.42 2.56-1.45-4.706z"/>
		<path fill="#1e175c" d="m169.211 289.41-6.493-3.691 5.054-3.451z"/>
		<path fill="#1f2066" d="m160.33 278.613 2.388 7.106-6.503-1.123zm0 0-1.473-7.35 4.816 2.857z"/>
		<path fill="#15054b" d="m149.627 294.396 3.501-5.962 1.45 4.707z"/>
		<path fill="#1e2269" d="m155.136 275.33 5.194 3.283-7.666 1.645z"/>
		<path fill="#1a1559" d="m149.627 284.97 6.588-.374-3.087 3.838zm0 0v-9.425l3.037 4.713z"/>
		<path fill="#1d1b60" d="m152.664 280.258-3.037-4.713 5.509-.215z"/>
		<path fill="#21266e" d="m163.673 274.12-4.816-2.857 2.906-5.438z"/>
		<path fill="#1f2066" d="m160.33 278.613-5.194-3.283 3.721-4.067z"/>
		<path fill="#1c347e" d="m155.519 261.55-5.892-.143 4.911-4.67z"/>
		<path fill="#1e2970" d="m153.473 270.072-3.846 5.473v-9.426z"/>
		<path fill="#21266e" d="m163.673 274.12 5.304-1.795 3.016 5.923z"/>
		<path fill="#1f2970" d="m158.857 271.263-2.05-4.898 4.956-.54z"/>
		<path fill="#1d2e76" d="m149.627 266.12 7.18.245-3.334 3.707z"/>
		<path fill="#10408a" d="m151.496 251.981 3.042 4.756-4.91-.043 1.868-4.713z"/>
		<path fill="#1c347e" d="m155.519 261.55-5.892 4.57v-4.713z"/>
		<path fill="#183d87" d="m159.144 255.033-3.625 6.516-.98-4.812z"/>
		<path fill="#060034" d="m152.55 327.306 4.384-5.422 1.096 5.36-5.48.062zm.573-9.347 8.836 1.763-5.025 2.162z"/>
		<path fill="#14337c" d="m274.593 194.82 5.602-3.942v4.707z"/>
		<path fill="#0a3c85" d="m270.8 200.524 3.793-5.704.882 4.7z"/>
		<path fill="#22478a" d="m181.508 186.031-1.021 7.002-4.355-3.826z"/>
		<path fill="#2d498c" d="m186.823 195.59-6.336-2.557 5.266-2.423z"/>
		<path fill="#77c0d3" d="m251.198 285.299-2.062 2.341-1.791-1.67z"/>
		<path fill="#63accb" d="m253.98 286.714.642 3.055-2.967.972z"/>
		<path fill="#4990c2" d="m244.138 290.983 2.904-2.073.653 2.36z"/>
		<path fill="#76bed3" d="m247.345 285.97-.303 2.94-1.79-1.67z"/>
		<path fill="#2b7cb8" d="m245.72 293.554-1.582-2.57 3.557.285z"/>
		<path fill="#4990c2" d="m244.138 290.983-3.32 1.311.808-2.811z"/>
		<path fill="#6ab1cf" d="m245.251 287.24 3.214-3.446-1.12 2.177z"/>
		<path fill="#77c0d3" d="m251.198 285.299-3.853.672 1.12-2.177z"/>
		<path fill="#92d1d5" d="m254.585 278.903-3.387 6.396-2.733-1.505z"/>
		<path fill="#63accb" d="m253.98 286.714-4.844.926 2.062-2.341z"/>
		<path fill="#408ec0" d="m247.695 291.27 1.44-3.63 2.52 3.1z"/>
		<path fill="#63accb" d="m253.98 286.714-2.325 4.027-2.52-3.1z"/>
		<path fill="#0770b1" d="m249.316 294.665-3.595-1.11 1.974-2.286z"/>
		<path fill="#2f7ab7" d="m242.974 294.075 2.747-.52-1.128 2.8z"/>
		<path fill="#3e8dbe" d="m251.655 290.74-2.339 3.925-1.621-3.396z"/>
		<path fill="#0066ab" d="m251.249 295.688-3.472 2.122 1.539-3.145z"/>
		<path fill="#2c71b3" d="m237.006 296.318 5.968-2.243 1.619 2.28-7.587-.037z"/>
		<path fill="#4990c2" d="m244.138 290.983-1.164 3.092-2.155-1.78z"/>
		<path fill="#4d85bc" d="m235.223 290.81 6.403-1.327-.807 2.811z"/>
		<path fill="#6ab1cf" d="m245.251 287.24-3.625 2.243-1.062-2.726z"/>
		<path fill="#549cc2" d="m256.946 287.685-2.324 2.084-.643-3.055z"/>
		<path fill="#4490be" d="m254.622 289.769 2.324-2.084.58 3.267z"/>
		<path fill="#63accb" d="m253.98 286.714 4.78-3.659-1.814 4.63z"/>
		<path fill="#71b3ca" d="m258.76 283.055 1.085 5.787-2.9-1.157z"/>
		<path fill="#3277ad" d="m261.203 292.075-3.677-1.123 2.32-2.11z"/>
		<path fill="#3882b6" d="m257.526 290.952 3.677 1.123-3.111 1.88z"/>
		<path fill="#2477b2" d="m255.04 292.863 1.66 3.814-2.693-.847z"/>
		<path fill="#0770b1" d="m249.316 294.665 2.339-3.924.502 2.958z"/>
		<path fill="#0058a5" d="m251.279 297.875-3.782 3.68.28-3.745 3.502.065z"/>
		<path fill="#005ca6" d="m245.084 299.492 2.693-1.682-.28 3.746z"/>
		<path fill="#241d5b" d="m225.96 195.54-3.003.788 2.158-3.774z"/>
		<path fill="#342b6c" d="m219.16 198.771 3.797-2.443-1.431 4.105z"/>
		<path fill="#1e1251" d="m225.115 192.554 3.938 2.73-3.093.257z"/>
		<path fill="#2b296b" d="m229.008 200.076-3.048-4.535 3.093-.257-.045 4.792z"/>
		<path fill="#2f2563" d="m213.499 194.386 2.99 5.491-4.475-.343z"/>
		<path fill="#342b6c" d="m219.16 198.771-2.67 1.106 2.137-3.947z"/>
		<path fill="#292160" d="m222.957 196.328-3.796 2.443-.534-2.841z"/>
		<path fill="#3e387c" d="m218.69 203.03.47-4.259 2.366 1.662z"/>
		<path fill="#353276" d="m225.39 202.83-6.7.2 2.836-2.597z"/>
		<path fill="#48438b" d="m219.186 207.548-4.184-3.435 3.689-1.084z"/>
		<path fill="#3277ad" d="m261.203 292.075-.5 3.47-2.611-1.59z"/>
		<path fill="#498eba" d="m259.845 288.842 4.836 2.788-3.478.445z"/>
		<path fill="#254f86" d="m278.19 299.146 2.005-4.707v4.707z"/>
		<path fill="#396e9f" d="m274.127 292.434 1.212-3.7 2.435 2.846z"/>
		<path fill="#2c5c92" d="m273.923 296.322-3.676-4.209 3.88.32z"/>
		<path fill="#5691b5" d="M280.195 285.024v4.707l-4.856-.997z"/>
		<path fill="#437aa7" d="M280.195 289.731v4.708l-2.42-2.86z"/>
		<path fill="#254f86" d="m278.19 299.146-1.309-4.356 3.314-.351z"/>
		<path fill="#396e9f" d="m274.127 292.434 2.754 2.356-2.958 1.532z"/>
		<path fill="#00539e" d="m254.29 298.638 2.41-1.961-.208 4.154z"/>
		<path fill="#216daa" d="m258.092 293.956-3.053-1.093 2.487-1.911z"/>
		<path fill="#113f8e" d="m251.63 304.836 2.66-6.198 2.202 2.193z"/>
		<path fill="#0066ab" d="m251.249 295.688 2.758.142-.992 1.519z"/>
		<path fill="#1963a1" d="m260.703 295.545-4.003 1.132 1.392-2.721z"/>
		<path fill="#2477b2" d="m255.04 292.863 3.052 1.093-1.392 2.72zm0 0-1.033 2.967-1.85-2.13z"/>
		<path fill="#005ea1" d="m256.7 296.677-2.41 1.961-.283-2.808z"/>
		<path fill="#00539e" d="m254.29 298.638-3.011-.763 1.736-.526z"/>
		<path fill="#005aa4" d="m253.015 297.349-1.736.526-.03-2.187 1.766 1.66z"/>
		<path fill="#0066ab" d="m251.249 295.688.908-1.989 1.85 2.131z"/>
		<path fill="#005ea8" d="m247.777 297.81 3.472-2.122.03 2.187-3.502-.065z"/>
		<path fill="#2b7cb8" d="m245.72 293.554 3.596 1.11-2.47.971z"/>
		<path fill="#0770b1" d="m249.316 294.665-1.539 3.145-.93-2.175z"/>
		<path fill="#004e9d" d="m247.497 301.556-5.27.266 2.857-2.33z"/>
		<path fill="#0056a3" d="m242.227 301.822 2.366-5.467.49 3.137z"/>
		<path fill="#477faa" d="m275.339 288.734 4.856.997-2.42 1.849z"/>
	</g>
</svg>
