<svg xmlns="http://www.w3.org/2000/svg" viewBox="0 0 237.6 220.44"><defs><style>.cls-1{fill:#014466;}.cls-2{fill:#29aed3;}.cls-3{fill:#004263;}</style></defs><title>codeship-logo</title><g id="Layer_2" data-name="Layer 2"><g id="Layer_1-2" data-name="Layer 1"><path class="cls-1" d="M150.82,61.12c-2.18-.93-4.16-1.78-6.14-2.64A132,132,0,0,0,119.1,51c-2.31-.46-4.43.33-6.54.79a126,126,0,0,0-26.5,8.79c-.33.13-.66.26-.93.4-.59-.26-.4-.66-.4-1V48.83a2.48,2.48,0,0,1,1.78-2.71,91.86,91.86,0,0,1,36.08-5.42,93,93,0,0,1,26.1,5.22c1.59.59,2.31,1.39,2.25,3.11C150.75,53,150.82,56.89,150.82,61.12Z"/><path class="cls-2" d="M101.4,33.64c0-3.44-.07-6.74,0-10a2.9,2.9,0,0,1,2-2.51,32.47,32.47,0,0,1,28.81,0,3.16,3.16,0,0,1,2,2.91v9.51A102.9,102.9,0,0,0,101.4,33.64Z"/><path class="cls-2" d="M90.16,103.54c2,5.29,3.83,10.64,5.48,16.32a28.15,28.15,0,0,1-5.75-2.25,52.86,52.86,0,0,0-24.65-4.76,18,18,0,0,0-6.14,1.06l-1.39-2.78c-1.32-3-1.32-3,1.32-5,9.18-6.67,19-7.4,29.47-3.37C89,103.08,89.57,103.28,90.16,103.54Z"/><path class="cls-1" d="M160.27,101.3c-6.34,1.32-11.23,5.22-15.73,9.65-.66.73-1.39,1.39-2.11,2.11a4.16,4.16,0,0,1,.33-1.92c4-11.56,8.52-22.8,14.93-33.23,1.19-1.92.93-2.71-1-4-9.58-6.28-20.09-10.24-31.12-13-3.57-.92-7-2.11-10.9-1.19-12.62,3-24.71,7-35.61,14.21-2,1.32-2.25,2.11-.93,4.23a148.59,148.59,0,0,1,12,25.37c2,5.29,3.83,10.64,5.48,16.45a32.56,32.56,0,0,1-5.75-2.25A52.71,52.71,0,0,0,65.25,113,18,18,0,0,0,59.11,114a53.81,53.81,0,0,0,9,13.35c16.91,18.5,37.86,26,62.51,21.34,20.95-4,36.21-16.19,46.19-35a44.69,44.69,0,0,0,4-10.11C174.14,100.24,167.34,99.78,160.27,101.3ZM117.85,116a94.92,94.92,0,0,1-2.51-13.61c-.92-7.8-1.72-15.66-.86-23.52.4-3.9,1.06-7.73,3.24-11.23a6,6,0,0,1,1.65,2.84c1.78,4.76,2.11,9.78,2.11,14.8A145.68,145.68,0,0,1,117.85,116Z"/><path class="cls-3" d="M118.81,8.56a75.7,75.7,0,1,0,75.66,75.7,75.82,75.82,0,0,0-75.66-75.7Zm0,160.08a84.32,84.32,0,1,1,84.31-84.32,84.43,84.43,0,0,1-84.31,84.32"/><path class="cls-3" d="M12.42,219.81A12.57,12.57,0,0,1,0,207.08s0,0,0-.07a12.58,12.58,0,0,1,12.35-12.8h.07c3.48,0,6.53.88,8.8,3.22a1.8,1.8,0,0,1,.07,2.49l-.07.07a1.77,1.77,0,0,1-2.56.07,8.2,8.2,0,0,0-6.24-2.23A9,9,0,0,0,3.55,207h0a9.09,9.09,0,0,0,8.87,9.2c2.48,0,4.68-.44,6.31-2.12a1.72,1.72,0,0,1,2.48,0,1.85,1.85,0,0,1,0,2.56c-2.27,2.34-5.32,3.22-8.8,3.22m30.3-3.66a9.14,9.14,0,0,0,0-18.28h0a9.14,9.14,0,0,0,0,18.28Zm0-21.94A12.57,12.57,0,0,1,55.13,207s0,0,0,.07a12.42,12.42,0,1,1-24.83,0h0a12.58,12.58,0,0,1,12.35-12.8h.07M70,198.06v17.81h6a8.92,8.92,0,0,0,0-17.84Zm6-3.51a12.42,12.42,0,1,1,0,24.83H68.26a1.74,1.74,0,0,1-1.26-.53,1.84,1.84,0,0,1-.52-1.3V196.32A1.83,1.83,0,0,1,67,195a1.75,1.75,0,0,1,1.26-.53h7.81m42.58,21.4a1.76,1.76,0,1,1,0,3.52h-17a1.75,1.75,0,0,1-1.26-.53,1.82,1.82,0,0,1-.52-1.3v-21.2a1.85,1.85,0,0,1,.52-1.3,1.72,1.72,0,0,1,1.26-.53h17a1.76,1.76,0,1,1,0,3.52H103.38v6.87h11.74a1.66,1.66,0,0,1,1.25.48,1.82,1.82,0,0,1,.53,1.27,1.78,1.78,0,0,1-.53,1.27,1.66,1.66,0,0,1-1.25.48h-11.7v7.46h15.25m62.9-7.82H165.25v9.65a1.78,1.78,0,1,1-3.55,0v-21.5a1.78,1.78,0,1,1,3.55,0v8.33h16.32v-8.33a1.78,1.78,0,1,1,3.55,0v21.5a1.78,1.78,0,1,1-3.55,0v-9.65m21.3,9.65a1.78,1.78,0,1,1-3.55,0v-21.5a1.78,1.78,0,1,1,3.55,0v21.5m17.74-19.63V207h9.26a4.47,4.47,0,0,0,0-8.92Zm9.26-3.51a8,8,0,0,1,0,15.94h-9.26v7.31a1.76,1.76,0,0,1-.53,1.27,1.66,1.66,0,0,1-1.25.48,1.72,1.72,0,0,1-1.26-.53,1.86,1.86,0,0,1-.52-1.3V196.43a1.83,1.83,0,0,1,.52-1.3,1.75,1.75,0,0,1,1.26-.53H229.9"/><path class="cls-1" d="M140.11,220.44c-.29,0-.58,0-.87,0a10.23,10.23,0,0,1-6.36-2.59,1.52,1.52,0,0,1-.42-1.18,1.36,1.36,0,0,1,.63-1,2.09,2.09,0,0,1,1.15-.33,1.85,1.85,0,0,1,1.38.55,6.46,6.46,0,0,0,3.88,1.51l.58,0c3.06,0,5.19-1.59,5.4-4,.23-2.66-2.45-3.89-5.54-5.31-3.55-1.64-7.57-3.49-7.18-8,.33-3.72,3.41-6,8.23-6l1,0a9.44,9.44,0,0,1,5.91,2.37,1.42,1.42,0,0,1,.45,1.12,1.38,1.38,0,0,1-.6,1,2.29,2.29,0,0,1-1.23.36,1.8,1.8,0,0,1-1.36-.56,5.81,5.81,0,0,0-3.45-1.37h-.47c-2.82,0-4.58,1.13-4.72,3-.26,2.82,2.47,4.07,5.57,5.52,3.52,1.63,7.56,3.49,7.11,8-.34,4-4,6.74-9.06,6.74"/></g></g></svg>