<svg width="144" height="32" fill="none" xmlns="http://www.w3.org/2000/svg">
	<path d="M74.755 13.635H70.02a4.507 4.507 0 0 0-.53-1.607 4.102 4.102 0 0 0-1.027-1.213 4.541 4.541 0 0 0-1.45-.767 5.624 5.624 0 0 0-1.762-.266c-1.146 0-2.145.28-2.995.841-.851.553-1.51 1.362-1.98 2.426-.468 1.058-.702 2.342-.702 3.853 0 1.554.234 2.859.703 3.916.476 1.057 1.139 1.855 1.99 2.395.85.539 1.834.808 2.952.808.627 0 1.207-.081 1.74-.244.541-.164 1.02-.401 1.439-.713.418-.32.764-.706 1.038-1.16.281-.454.476-.972.584-1.554l4.736.021a8.336 8.336 0 0 1-.919 2.895 8.72 8.72 0 0 1-1.957 2.48c-.815.723-1.788 1.298-2.92 1.723-1.124.419-2.397.628-3.817.628-1.975 0-3.742-.44-5.299-1.32-1.55-.88-2.775-2.153-3.676-3.82-.894-1.667-1.341-3.686-1.341-6.055 0-2.377.454-4.399 1.362-6.066.909-1.667 2.141-2.937 3.698-3.81 1.558-.88 3.31-1.32 5.256-1.32 1.283 0 2.473.178 3.569.533a9.095 9.095 0 0 1 2.93 1.553c.85.674 1.543 1.5 2.076 2.48.54.979.887 2.1 1.038 3.363Z" fill="#000"/>
	<path d="M85.447 28.119c-1.68 0-3.133-.352-4.358-1.054a7.258 7.258 0 0 1-2.823-2.959c-.663-1.27-.995-2.742-.995-4.416 0-1.689.332-3.164.995-4.427a7.172 7.172 0 0 1 2.823-2.958c1.225-.71 2.678-1.065 4.358-1.065 1.68 0 3.128.355 4.347 1.065a7.152 7.152 0 0 1 2.833 2.958c.663 1.263.995 2.739.995 4.427 0 1.674-.332 3.147-.995 4.416a7.238 7.238 0 0 1-2.833 2.959c-1.219.702-2.668 1.054-4.347 1.054Zm.021-3.512c.764 0 1.402-.213 1.914-.639.512-.433.898-1.021 1.157-1.766.267-.745.4-1.593.4-2.544 0-.95-.133-1.798-.4-2.543-.26-.745-.645-1.334-1.157-1.767-.512-.433-1.15-.65-1.914-.65-.771 0-1.42.217-1.946.65-.52.433-.912 1.022-1.179 1.767-.26.745-.39 1.592-.39 2.543 0 .95.13 1.799.39 2.544.267.744.66 1.333 1.179 1.766.526.426 1.175.639 1.946.639Z" fill="#000"/>
	<path d="M102.653 28.065c-1.262 0-2.404-.319-3.428-.957-1.016-.646-1.824-1.593-2.422-2.842-.591-1.256-.887-2.795-.887-4.618 0-1.873.306-3.43.92-4.672.612-1.249 1.427-2.182 2.443-2.8a6.337 6.337 0 0 1 3.363-.936c.93 0 1.705.156 2.325.469.627.305 1.132.688 1.514 1.149.389.454.685.9.887 1.34h.14V6.005h4.596V27.8h-4.542v-2.618h-.194a5.845 5.845 0 0 1-.919 1.352c-.39.44-.898.805-1.525 1.096-.62.29-1.377.436-2.271.436Zm1.46-3.607c.742 0 1.37-.199 1.881-.596.52-.405.916-.969 1.19-1.692.281-.724.422-1.572.422-2.544s-.137-1.816-.411-2.533c-.274-.716-.671-1.27-1.19-1.66-.519-.39-1.15-.585-1.892-.585-.757 0-1.395.202-1.914.606-.519.405-.912.965-1.179 1.682-.267.716-.4 1.547-.4 2.49 0 .95.133 1.792.4 2.522.274.724.667 1.292 1.179 1.703.519.405 1.157.607 1.914.607Z" fill="#000"/>
	<path d="M123.377 28.119c-1.709 0-3.18-.341-4.412-1.022a7.042 7.042 0 0 1-2.833-2.916c-.664-1.263-.995-2.756-.995-4.48 0-1.682.331-3.157.995-4.427.663-1.27 1.596-2.26 2.8-2.97 1.211-.709 2.632-1.064 4.261-1.064 1.096 0 2.116.174 3.06.522.952.34 1.781.855 2.487 1.543.714.688 1.269 1.554 1.666 2.597.396 1.035.594 2.249.594 3.64v1.244h-14.025v-2.81h9.689c0-.652-.144-1.23-.433-1.734a3.07 3.07 0 0 0-1.2-1.181c-.504-.291-1.092-.437-1.762-.437-.7 0-1.32.16-1.86.48a3.383 3.383 0 0 0-1.255 1.266 3.528 3.528 0 0 0-.465 1.756v2.67c0 .81.152 1.509.454 2.097.31.59.747 1.043 1.309 1.363.562.319 1.229.478 2 .478a4.42 4.42 0 0 0 1.406-.213c.425-.141.79-.354 1.092-.638.303-.284.534-.631.692-1.043l4.261.277a5.692 5.692 0 0 1-1.33 2.639c-.663.745-1.521 1.327-2.574 1.745-1.045.412-2.253.618-3.622.618Z" fill="#000"/>
	<path d="M133.922 27.8V11.452h4.466v2.852h.173c.303-1.014.811-1.78 1.525-2.298.713-.525 1.535-.788 2.465-.788.231 0 .48.014.746.043.267.028.501.067.703.117V15.4a6.101 6.101 0 0 0-.897-.17 8.203 8.203 0 0 0-1.049-.074c-.678 0-1.283.145-1.817.436a3.243 3.243 0 0 0-1.254 1.192c-.303.51-.454 1.1-.454 1.766V27.8h-4.607Z" fill="#000"/>
	<path d="M43.336 13.547c-.885 0-1.475-.51-1.475-1.56v-6.02C41.86 2.123 40.25 0 36.095 0h-1.93v4.059h.59c1.635 0 2.413.887 2.413 2.473v5.322c0 2.311.697 3.252 2.226 3.736-1.529.457-2.226 1.424-2.226 3.736v3.951c0 1.102 0 2.177-.295 3.28a8.064 8.064 0 0 1-1.448 2.821 7.167 7.167 0 0 1-1.287 1.264v.537h1.93c4.157 0 5.766-2.123 5.766-5.967v-6.02c0-1.076.563-1.56 1.475-1.56h1.1v-4.058h-1.073v-.027Z" fill="#000"/>
	<path d="M30.196 6.13h-5.954a.24.24 0 0 1-.241-.243V5.43a.24.24 0 0 1 .241-.242h5.98a.24.24 0 0 1 .242.242v.457c0 .135-.134.242-.268.242Z" fill="#000"/>
	<path d="M31.215 11.935H26.87a.24.24 0 0 1-.241-.242v-.457a.24.24 0 0 1 .241-.242h4.345a.24.24 0 0 1 .24.242v.457c0 .107-.106.242-.24.242Z" fill="#000"/>
	<path d="M32.93 9.032h-8.688a.24.24 0 0 1-.241-.242v-.457a.24.24 0 0 1 .241-.242h8.662a.24.24 0 0 1 .241.242v.457c0 .108-.08.242-.214.242Z" fill="#000"/>
	<path d="M17.35 7.445c.59 0 1.18.054 1.743.189V6.532c0-1.56.805-2.473 2.414-2.473h.59V0h-1.931C16.009 0 14.4 2.123 14.4 5.967v1.99a9.072 9.072 0 0 1 2.95-.512Z" fill="#000"/>
	<path d="M34.754 22.067c-.429-3.414-3.057-6.263-6.436-6.908a7.498 7.498 0 0 0-2.789-.054c-.026 0-.026-.027-.053-.027-1.475-3.09-4.64-5.134-8.072-5.134-3.433 0-6.57 1.99-8.072 5.08-.027 0-.027.027-.053.027a8.116 8.116 0 0 0-2.897.188A8.373 8.373 0 0 0 .08 22.229c-.053.35-.08.699-.08 1.021 0 1.022.697 1.963 1.716 2.097 1.26.188 2.36-.78 2.333-2.016 0-.188 0-.403.027-.591.215-1.72 1.529-3.172 3.245-3.575a3.958 3.958 0 0 1 1.582-.08c1.636.214 3.245-.62 3.942-2.07.51-1.076 1.314-2.016 2.387-2.527a4.92 4.92 0 0 1 3.754-.215c1.287.457 2.253 1.424 2.843 2.634.616 1.183.911 2.016 2.225 2.177.537.08 2.038.054 2.602.027 1.1 0 2.199.376 2.976 1.156.51.537.885 1.21 1.046 1.962.241 1.21-.053 2.419-.778 3.333a3.875 3.875 0 0 1-1.984 1.344c-.375.107-.75.134-1.126.134h-5.927c-1.18 0-2.118-.94-2.118-2.123V17.04a.596.596 0 0 0-.59-.591h-.832c-1.635.027-2.95 1.855-2.95 3.79v7.07c0 2.095 1.69 3.789 3.782 3.789l9.44-.027a8.038 8.038 0 0 0 5.47-3.01c1.34-1.64 1.957-3.79 1.69-5.994Z" fill="#000"/>
</svg>
