<svg xmlns="http://www.w3.org/2000/svg" viewBox="1.4 81.9 395.2 241.2">
	<path fill="#00B1AB" d="M205.223 125.426a62.57 62.57 0 0 1 13.837 52.951c19.616-7.824 27.226-20.942 29.541-34.06 0 0 6.688-24.859 17.082-35.192-20.54 3.223-22.615-4.835-60.46 16.321"/>
	<path fill="#00B1AB" d="M173.79 150.832a83.554 83.554 0 0 0-20.65-33.59s28.562 7.507 45.005 60.816c-15.516-4.682-22.135-19.993-24.385-27.226h.03zm35.342 34.886c.458-2.55 8.027-28.337-6.968-49.279-25.109-27.827-62.953-31.734-62.953-31.734 7.385 14.281 7.62 27.613 15.688 54.798 9.778 28.143 45.852 30.041 48.525 30.092 2.423 3.825 7.976 8.976 20.692 11.639l1.408-6.702c-10.971-2.295-14.985-6.518-16.362-8.844"/>
	<path fill="#0A2540" d="M143.272 96.516c-15.959 7.518-22.359 25.869-22.359 53.92 0 27.542 6.39 46.005 22.359 54.064l-1.79 6.885c-24.527-8.599-35.646-27.715-35.646-60.836 0-33.377 11.119-52.503 35.646-60.919l1.79 6.886zm118.169-6.886c24.549 8.406 35.641 27.542 35.641 60.908 0 33.152-11.118 52.248-35.645 60.776l-1.914-6.875c15.981-8.028 22.361-26.522 22.361-54.064 0-28.052-6.391-46.382-22.361-53.9l1.918-6.845zM44.204 298.027a42.681 42.681 0 0 1-16.35 2.825c-13.751 0-20.36-5.958-18.232-21.006 1.962-14.193 7.388-19.994 21.775-19.994a45.645 45.645 0 0 1 16.576 2.825l-1.955 8.695-12.81-.078c-5.817 0-7.783 1.962-8.728 9.012-1.024 7.761.32 9.17 5.976 9.17a116.41 116.41 0 0 0 12.731-.625l1.017 9.176zm22.957-17.005c-1.1 7.998-.395 9.874 4.722 9.874 4.952 0 6.53-2.112 7.783-10.974 1.254-8.15.396-10.062-4.405-10.062-5.185 0-6.76 1.956-8.1 11.141v.021zm27.27.007c-2.156 14.661-8.092 19.827-23.058 19.827S50.1 295.215 52.296 279.93c2.055-14.812 8.02-20.073 23.198-20.073 15.01 0 21.143 5.806 18.944 21.172m30.572-12.016c-5.975 0-7.387 1.251-8.57 10.27-.941 7.057-1.099 9.874 2.437 9.645a14.696 14.696 0 0 0 8.807-4.076l2.116-15.809-4.79-.03zm14.852 30.903h-11.24l-.155-6.583a23.496 23.496 0 0 1-15.325 7.524c-9.117 0-13.202-6.431-11.244-21.322 2.156-16.306 8.57-19.677 16.979-19.677a69.97 69.97 0 0 1 12.576 1.135c-.04-2.677.145-5.352.554-7.998l1.333-7.906h14.29l-7.768 54.827zm33.491-23.211c3.54-.316 5.42-.861 5.75-4.233.238-2.586-.787-3.061-4.722-2.981-4.8.079-6.371 1.487-7.625 7.841l6.597-.627zM189 297.719a46.112 46.112 0 0 1-17.927 3.133c-16.663 0-21.201-7.287-19.732-20.927 1.797-16.22 9.203-20.065 23.267-20.065 15.408 0 19.458 5.096 18.232 14.015-1.103 7.294-6.055 9.378-16.377 10.191l-10.615.782c.165 4.161 2.203 4.944 6.608 4.944 3.449 0 10.808-.395 15.555-.941l.989 8.868zm34.553-47.788c-4.801 0-6.759 1.099-7.467 6.109l-.863 5.67h11.859l-.795 5.842h-11.858l-5.189 36.768a11.616 11.616 0 0 1-3.852 8.271 11.613 11.613 0 0 1-8.641 2.932 80.327 80.327 0 0 1-9.505-.632l1.182-5.649h5.894c4.721 0 6.679-1.1 7.394-6.109l5.032-35.574h-6.828l.719-5.49 6.996-.388.945-6.828a11.49 11.49 0 0 1 3.866-8.262 11.489 11.489 0 0 1 8.667-2.847 92.287 92.287 0 0 1 11.237.545l-1.255 5.678-7.538-.036zm35.85 17.843h-2.156c-4.313 0-8.487 2.875-15.131 7.761l-3.382 24.378h-7.629l5.419-38.254h5.821l-.396 8.782c6.109-6.268 12.1-9.803 17.296-9.803h2.044l-1.886 7.136zm26.514 10.655c4.718-.309 6.759-1.639 7.384-6.037.719-5.253-1.959-5.39-8.092-5.39-7.772 0-10.449 2.113-12.098 12.62l12.806-1.193zm11.002 20.23a50.684 50.684 0 0 1-15.809 2.2c-13.296 0-17.842-6.829-15.963-21.086 2.049-14.898 7.31-19.131 21.201-19.131 12.576 0 15.645 4.708 14.542 12.39-1.254 7.603-5.655 10.349-15.009 11.054l-13.296 1.177c-.078 7.683 3.537 9.242 9.664 9.242 4.251 0 9.748-.467 14.153-.941l.517 5.095zm21.033-17.72c-5.498-2.587-8.091-5.562-7.387-11.139.866-7.287 6.133-9.342 16.195-9.17 5.497.093 10.981.539 16.42 1.337l-.944 5.389c-4.869-.151-9.432-.316-15.246-.395-6.291 0-8.65.159-9.044 3.371-.388 2.874 1.437 3.686 4.567 5.095l10.376 4.708c5.969 2.745 8.413 5.174 7.618 11.052-1.174 8.704-7.387 9.566-18.16 9.566a98.05 98.05 0 0 1-14.851-1.1l.866-5.642c3.539.309 8.487.396 12.026.396 9.671 0 12.185-.784 12.653-3.924.47-2.817-1.437-3.291-4.797-4.858l-10.292-4.686zm45.923-20.848a82.413 82.413 0 0 1-1.886 9.407c6.664-5.878 12.234-8.867 17.747-8.867a8.397 8.397 0 0 1 9.123 10.736l-4.086 28.531h-7.546l3.694-26.648c.629-4.786-.237-6.194-3.535-6.194-4.723 0-9.275 3.212-15.854 8.386l-3.381 24.435h-7.643l7.779-54.87h7.546l-1.958 15.084z"/>
</svg>
