<svg xmlns="http://www.w3.org/2000/svg" viewBox="-9.49 -9.49 493.48 130.48">
	<g fill="#663FBD" clip-path="url(#a)">
		<path d="M185.361 13.812a10.972 10.972 0 0 1 10.998 11.01c0 6.106-4.899 11.01-10.998 11.01a10.972 10.972 0 0 1-10.998-11.01c0-6.105 4.999-11.01 10.998-11.01zm0-9.408c-11.198 0-20.296 9.108-20.296 20.318s9.098 20.318 20.296 20.318c11.198 0 20.296-9.108 20.296-20.318s-8.998-20.318-20.296-20.318zm187.76 9.408a10.972 10.972 0 0 1 10.998 11.01c0 6.106-4.899 11.01-10.998 11.01a10.972 10.972 0 0 1-10.997-11.01c0-6.105 4.899-11.01 10.997-11.01zm0-9.408c-11.197 0-20.295 9.108-20.295 20.318s9.098 20.318 20.295 20.318c11.198 0 20.296-9.108 20.296-20.318s-9.098-20.318-20.296-20.318zm-187.76 64.458a10.972 10.972 0 0 1 10.998 11.01c0 6.105-4.899 11.01-10.998 11.01a10.972 10.972 0 0 1-10.998-11.01c0-6.106 4.999-11.01 10.998-11.01zm0-9.409c-11.198 0-20.296 9.108-20.296 20.318s9.098 20.318 20.296 20.318c11.198 0 20.296-9.108 20.296-20.318s-8.998-20.318-20.296-20.318zm-94.88-34.23L47.49.4c-.9-.5-2.1-.5-3 0L1.5 25.223c-.9.6-1.5 1.6-1.5 2.602v49.744c0 1.101.6 2.102 1.5 2.603l42.99 24.822c.5.3 1 .4 1.5.4s1-.1 1.5-.4l42.99-24.822c.9-.5 1.5-1.502 1.5-2.603V27.825c0-1.001-.6-2.002-1.5-2.603zM45.09 67.46l-5.7-3.303v-7.506L18.997 44.84v22.72l20.296 11.81v-7.005l1 .6 4.798 2.803v8.607c0 .2 0 .5-.1.701 0 .1 0 .1-.1.2-.1.2-.1.3-.2.5 0 .1-.1.1-.1.2-.1.2-.2.401-.4.501-.2.2-.3.3-.5.4-.1 0-.1.1-.2.1s-.3.1-.5.1c-.099 0-.099 0-.199.1-.2.1-.4.1-.7.1-.2 0-.5 0-.7-.1-.1 0-.1 0-.2-.1-.2-.1-.3-.1-.5-.2h-.1L14.597 71.665c-.9-.5-1.4-1.501-1.4-2.502V39.836c0-1.001.5-2.002 1.4-2.503.9-.5 2-.5 2.9 0L43.49 52.547c.9.5 1.4 1.501 1.4 2.502V67.46h.2zm225.653-57.45c2.699 2.702 3.999 6.706 3.999 12.11v21.62h-10.598V23.721c0-2.902-.599-5.004-1.799-6.506-1.2-1.4-2.9-2.102-5.099-2.102-2.5 0-4.399.801-5.899 2.403-1.4 1.601-2.199 4.003-2.199 7.106v19.017H238.55V23.621c0-5.705-2.3-8.608-6.899-8.608-2.399 0-4.399.801-5.799 2.403-1.399 1.601-2.199 4.003-2.199 7.106v19.017h-10.598V6.506h10.098v4.204c1.4-1.502 2.999-2.703 4.999-3.504 2-.8 4.099-1.2 6.499-1.2 2.599 0 4.899.5 6.998 1.5 2.1 1.002 3.699 2.503 4.999 4.405a14.61 14.61 0 0 1 5.699-4.404c2.299-1.001 4.799-1.602 7.498-1.602 4.599 0 8.199 1.402 10.898 4.104zm48.99 14.613V43.64h-10.598V23.621c0-5.705-2.3-8.608-6.899-8.608-2.399 0-4.399.801-5.798 2.403-1.4 1.601-2.2 4.003-2.2 7.106v19.017H283.64V6.506h10.098v4.204c1.4-1.502 3-2.703 4.999-3.504 2-.8 4.099-1.2 6.499-1.2 2.599 0 4.899.5 6.998 1.5 2.1 1.002 3.699 2.503 4.999 4.405a14.61 14.61 0 0 1 5.699-4.404c2.3-1.001 4.799-1.602 7.498-1.602 4.599 0 8.199 1.301 10.898 4.004 2.7 2.702 3.999 6.706 3.999 12.11v21.62H334.73V23.621c0-2.903-.6-5.004-1.8-6.506-1.2-1.401-2.899-2.102-5.099-2.102-2.499 0-4.399.801-5.899 2.403-1.499 1.701-2.199 4.103-2.199 7.206zM434.309 10.11c2.799 2.802 4.199 6.906 4.199 12.311v21.32H427.71V24.02c0-2.902-.6-5.104-1.9-6.605-1.299-1.402-3.199-2.202-5.598-2.202-2.7 0-4.899.8-6.499 2.502-1.6 1.701-2.4 4.204-2.4 7.506V43.64h-10.797V6.506h10.397v4.304c1.4-1.602 3.2-2.803 5.299-3.604 2.1-.9 4.399-1.3 6.999-1.3 4.599 0 8.298 1.4 11.098 4.203zm-98.48 85.476c-2.799-2.802-4.199-6.906-4.199-12.31v-21.92h10.798v20.218c0 2.902.6 5.104 1.899 6.606 1.3 1.401 3.2 2.202 5.599 2.202 2.7 0 4.899-.801 6.499-2.502 1.6-1.702 2.399-4.204 2.399-7.507V61.355h10.798v37.734h-10.298v-4.304c-1.399 1.601-3.199 2.802-5.299 3.603-2.099.9-4.399 1.301-6.998 1.301-4.599 0-8.298-1.301-11.198-4.104zM141.57 35.832a10.971 10.971 0 0 1-10.997-11.01c0-6.105 4.898-11.01 10.997-11.01 4.099 0 7.699 2.302 9.598 5.705l8.198-4.504c-3.399-6.305-10.097-10.509-17.796-10.509-11.197 0-20.296 9.108-20.296 20.318s9.099 20.318 20.296 20.318a20.314 20.314 0 0 0 17.796-10.51l-8.198-4.503c-1.799 3.403-5.399 5.705-9.598 5.705zm129.173 28.726c2.699 2.702 3.999 6.706 3.999 12.11v21.62h-10.598V78.27c0-2.903-.599-5.005-1.799-6.506-1.2-1.401-2.9-2.102-5.099-2.102-2.5 0-4.399.8-5.899 2.402-1.4 1.602-2.199 4.004-2.199 7.107v19.017H238.55V78.17c0-5.705-2.3-8.608-6.899-8.608-2.399 0-4.399.8-5.799 2.402-1.399 1.602-2.199 4.004-2.199 7.107v19.017h-10.598V61.055h10.098v4.203c1.4-1.501 2.999-2.702 4.999-3.503 2-.8 4.099-1.2 6.499-1.2 2.599 0 4.899.5 6.998 1.5 2.1 1.001 3.699 2.503 4.999 4.404a14.61 14.61 0 0 1 5.699-4.404c2.299-1 4.799-1.601 7.498-1.601 4.599 0 8.199 1.401 10.898 4.104zM141.57 90.38a10.971 10.971 0 0 1-10.997-11.01c0-6.106 4.898-11.01 10.997-11.01 4.099 0 7.699 2.302 9.598 5.705l8.198-4.504c-3.399-6.305-10.097-10.51-17.796-10.51-11.197 0-20.296 9.109-20.296 20.319s9.099 20.318 20.296 20.318a20.314 20.314 0 0 0 17.796-10.51l-8.198-4.503c-1.799 3.403-5.399 5.705-9.598 5.705zm162.566-31.428c-4.099 0-7.898 1.2-10.998 3.303v-1.802h-9.298V112h9.298V96.486a20.017 20.017 0 0 0 10.998 3.303c11.198 0 20.296-9.108 20.296-20.318s-9.098-20.518-20.296-20.518zm0 31.428a10.972 10.972 0 0 1-10.998-11.01c0-6.106 4.899-11.01 10.998-11.01a10.972 10.972 0 0 1 10.998 11.01c-.1 6.005-4.999 11.01-10.998 11.01zm96.68-28.125h-8.399v-8.308h-9.798v8.308h-6.198v9.008h6.198v28.425h9.798V71.264h8.399v-9.008zm44.49 12.811c-1.999-9.108-9.998-15.914-19.696-15.914-11.097 0-20.195 9.008-20.195 20.218 0 11.11 8.998 20.218 20.195 20.218 7.799 0 14.797-4.204 18.297-10.11l-8.499-4.003c-1.999 2.803-5.698 4.805-9.698 4.805-4.899 0-9.098-3.303-10.397-7.807h30.393c.1-1.001.2-2.002.2-3.003a29.26 29.26 0 0 0-.6-4.404zm-29.594 0c1.7-3.803 5.499-6.506 9.898-6.506s8.299 2.703 9.898 6.506h-19.796zm51.99-12.31c2.099-.902 4.599-1.302 7.298-1.302v9.609c-1.2-.1-1.9-.1-2.3-.1-2.999 0-5.298 1-6.998 2.702-1.7 1.701-2.5 4.204-2.5 7.507v16.714h-10.397V61.955h9.998v4.805c1.099-1.802 2.799-3.103 4.899-4.004z"/>
	</g>
	<defs>
		<clipPath id="a">
			<path fill="#fff" d="M0 0h475v112H0z"/>
		</clipPath>
	</defs>
</svg>
