<svg xmlns="http://www.w3.org/2000/svg" width="200" height="128">
	<path d="M32.758 75.24a8.386 8.386 0 0 1 2.933 1.929l-1.466 1.866a7.392 7.392 0 0 0-5.334-2.062 6.436 6.436 0 0 0-3.271.827 5.8 5.8 0 0 0-2.248 2.32 7.6 7.6 0 0 0 0 6.826 5.993 5.993 0 0 0 2.248 2.338 6.3 6.3 0 0 0 3.271.889 7.993 7.993 0 0 0 3.156-.6 6.224 6.224 0 0 0 2.364-1.715L36 89.444a8.326 8.326 0 0 1-3.047 2.256 9.968 9.968 0 0 1-4.088.808 9.126 9.126 0 0 1-4.6-1.119 8 8 0 0 1-3.128-3.174A9.513 9.513 0 0 1 20 83.48a9.385 9.385 0 0 1 1.149-4.68 8.092 8.092 0 0 1 3.191-3.16 9.4 9.4 0 0 1 4.623-1.129 10.07 10.07 0 0 1 3.795.729zm18.355.436a8.107 8.107 0 0 1 3.209 3.173 10.037 10.037 0 0 1-.018 9.315 8.224 8.224 0 0 1-3.191 3.209 10.074 10.074 0 0 1-9.333 0 8.146 8.146 0 0 1-3.209-3.191 9.417 9.417 0 0 1-1.164-4.7 9.306 9.306 0 0 1 1.146-4.649 8.053 8.053 0 0 1 3.209-3.164 10.21 10.21 0 0 1 9.351.009zm-8 2.106a5.849 5.849 0 0 0-2.275 2.338 7.023 7.023 0 0 0-.791 3.36 7.111 7.111 0 0 0 .808 3.431 5.9 5.9 0 0 0 2.258 2.4 6.835 6.835 0 0 0 6.6 0A5.893 5.893 0 0 0 52 86.955a7.11 7.11 0 0 0 .817-3.475A7.034 7.034 0 0 0 52 80.111a5.857 5.857 0 0 0-2.285-2.329 6.878 6.878 0 0 0-6.602 0zm30.061-1.662a6.97 6.97 0 0 1 1.778 5.075v10.987h-2.667V81.906a4.939 4.939 0 0 0-1.333-3.679A5.027 5.027 0 0 0 67.29 76.9a5.769 5.769 0 0 0-4.178 1.591 6.482 6.482 0 0 0-1.777 4.116v9.573h-2.667V74.405h2.667v3.91q1.83-3.963 6.9-4.008a6.621 6.621 0 0 1 4.939 1.813zM90.845 75a8.4 8.4 0 0 1 2.933 1.938L92.329 78.8A7.391 7.391 0 0 0 87 76.742a6.431 6.431 0 0 0-3.271.827 5.8 5.8 0 0 0-2.213 2.355 7.6 7.6 0 0 0 0 6.827 5.984 5.984 0 0 0 2.248 2.337 6.288 6.288 0 0 0 3.271.889 7.988 7.988 0 0 0 3.191-.684 6.212 6.212 0 0 0 2.365-1.716l1.52 1.636a8.322 8.322 0 0 1-3.093 2.266 9.96 9.96 0 0 1-4.089.809 9.114 9.114 0 0 1-4.569-1.129 8.005 8.005 0 0 1-3.129-3.173A9.535 9.535 0 0 1 78.1 83.3a9.382 9.382 0 0 1 1.147-4.675 8.082 8.082 0 0 1 3.191-3.147 9.4 9.4 0 0 1 4.622-1.129 10.073 10.073 0 0 1 3.785.651zm18.106.48a8.1 8.1 0 0 1 3.208 3.173 9.266 9.266 0 0 1 1.156 4.64 9.364 9.364 0 0 1-1.156 4.684 8.215 8.215 0 0 1-3.208 3.191 10.062 10.062 0 0 1-9.333 0 8.146 8.146 0 0 1-3.174-3.244A9.42 9.42 0 0 1 95.3 83.24a9.3 9.3 0 0 1 1.146-4.631 8.059 8.059 0 0 1 3.174-3.129 10.192 10.192 0 0 1 9.331 0zm-8 2.107a5.85 5.85 0 0 0-2.24 2.337 7.043 7.043 0 0 0-.809 3.4 7.124 7.124 0 0 0 .809 3.431 5.9 5.9 0 0 0 2.275 2.355 6.837 6.837 0 0 0 6.6 0 5.9 5.9 0 0 0 2.275-2.355 7.112 7.112 0 0 0 .809-3.431 7.033 7.033 0 0 0-.809-3.414 5.846 5.846 0 0 0-2.284-2.328 6.881 6.881 0 0 0-6.6-.045zm31.483 14.6h-2.666v-4.032q-1.716 4.062-6.765 4.124a6.421 6.421 0 0 1-4.879-1.857 7.038 7.038 0 0 1-1.778-5.076V74.378h2.666v10.266a4.98 4.98 0 0 0 1.325 3.68 4.876 4.876 0 0 0 3.617 1.324 5.474 5.474 0 0 0 4.3-1.84 6.908 6.908 0 0 0 1.555-4.675v-8.755h2.667v17.777zm8.889-16.835a7.263 7.263 0 0 1 3.877-1.072v2.667a6.14 6.14 0 0 0-4.444 1.546 6.392 6.392 0 0 0-1.929 4.249v9.44h-2.667V74.405h2.667v3.919a6.752 6.752 0 0 1 2.496-2.977zm16.035-.649a8.505 8.505 0 0 1 2.586 1.2l-1 2.1a9.012 9.012 0 0 0-2.329-1.066 8.663 8.663 0 0 0-2.507-.391 4.878 4.878 0 0 0-2.551.586 1.939 1.939 0 0 0-.968 1.778 1.836 1.836 0 0 0 .542 1.351 4.2 4.2 0 0 0 1.333.889 18.765 18.765 0 0 0 2.213.738 21.564 21.564 0 0 1 3.031 1.093 5.506 5.506 0 0 1 1.991 1.573 4.157 4.157 0 0 1 .827 2.667 4.282 4.282 0 0 1-1.858 3.8 8.046 8.046 0 0 1-4.648 1.28 10.949 10.949 0 0 1-3.751-.657 8.9 8.9 0 0 1-3.076-1.832l1.022-2a8.329 8.329 0 0 0 2.72 1.653 8.888 8.888 0 0 0 3.182.613 5.15 5.15 0 0 0 2.747-.658 2.151 2.151 0 0 0 1.067-1.946 2.071 2.071 0 0 0-1.04-1.92 13.709 13.709 0 0 0-3.156-1.227 25.5 25.5 0 0 1-2.96-1.084 5.174 5.174 0 0 1-1.884-1.529 4.027 4.027 0 0 1-.8-2.595 4.122 4.122 0 0 1 1.778-3.636 7.632 7.632 0 0 1 4.444-1.209 11.278 11.278 0 0 1 3.045.426zm20.71 2.293q2.133 2.667 1.911 7.315h-14.524A6.222 6.222 0 0 0 171.917 90a7.923 7.923 0 0 0 3.049-.578 7.325 7.325 0 0 0 2.462-1.653l1.449 1.555a8.73 8.73 0 0 1-3.129 2.16 10.281 10.281 0 0 1-4.035.774 9.281 9.281 0 0 1-4.622-1.129A7.9 7.9 0 0 1 164 87.977a9.654 9.654 0 0 1-1.111-4.684A9.492 9.492 0 0 1 164 78.609a8 8 0 0 1 3.138-3.129 9.3 9.3 0 0 1 4.6-1.129 7.491 7.491 0 0 1 6.33 2.64zm-2.187 1.084a5.911 5.911 0 0 0-4.2-1.5 6.1 6.1 0 0 0-4.231 1.52 6.225 6.225 0 0 0-1.991 4.062h12.16a5.734 5.734 0 0 0-1.778-4.08zm-74.1-29.023a2.1 2.1 0 1 1-1.916 2.264 2.1 2.1 0 0 1 1.911-2.269zm2.793 4.153a4.447 4.447 0 0 1-1.645 1.147 19.046 19.046 0 0 0 2.2 5.173 8 8 0 0 1-2.774.889h-1.226A8.383 8.383 0 0 1 98.7 60a8.092 8.092 0 0 1-1.075-.426 8.749 8.749 0 0 1-.889-.507 8.128 8.128 0 0 1-.72-.516c-.214-.16-.382-.32-.525-.444-.275-.267-.426-.427-.426-.427s.124.178.364.48c.125.142.276.329.462.525a8.46 8.46 0 0 0 .667.631 9.1 9.1 0 0 0 .889.649 8.743 8.743 0 0 0 1.066.6 9.332 9.332 0 0 0 1.227.489 9.524 9.524 0 0 0 1.342.32 6.51 6.51 0 0 1 .7.089h.676a9.227 9.227 0 0 0 3.609-.676 13.637 13.637 0 0 0 .889 1.094l-.365.222h.009l-.107.053-.231.116-.124.062h-.062l-.267.115-.284.125h-.072l-.151.062a11.026 11.026 0 0 1-4.328.729h-.845a3.757 3.757 0 0 1-.818-.125 11.266 11.266 0 0 1-3.146-1.066c-.24-.116-.471-.249-.693-.382s-.436-.276-.64-.409a11.65 11.65 0 0 1-1.1-.889 10.959 10.959 0 0 1-.888-.836c-.249-.257-.436-.506-.6-.7s-.267-.364-.356-.48l-.124-.169.107.187c.071.116.16.293.3.516a9.206 9.206 0 0 0 .524.764 11.071 11.071 0 0 0 .774.889 11.777 11.777 0 0 0 1.04 1 6.772 6.772 0 0 0 .622.489c.222.151.444.32.675.471a12.176 12.176 0 0 0 1.529.836 12.494 12.494 0 0 0 1.7.631c.284.1.6.151.889.231l.426.08h.454a12.423 12.423 0 0 0 1.777.107 12.56 12.56 0 0 0 3.156-.445h.346l.294-.1.275-.088.3-.116.24-.089h.24l.382-.187.48-.231a13.373 13.373 0 0 0 1 .889s1.653 1.7 2.56 1-.133-2.72-.133-2.72a19.125 19.125 0 0 0-7.152-9.218zm-5.769-2.8a19.059 19.059 0 0 0-5.52-.773 8 8 0 0 1 .729-2.942l.062-.124.08-.143.151-.293c.107-.169.2-.347.32-.516a8.382 8.382 0 0 1 1.636-1.839 7.961 7.961 0 0 1 .889-.685 8.844 8.844 0 0 1 .888-.507 8.177 8.177 0 0 1 .818-.337 6.681 6.681 0 0 1 .658-.205l.587-.142-.605.053a3.422 3.422 0 0 0-.693.116 8.533 8.533 0 0 0-.889.231 8.938 8.938 0 0 0-1.013.391 8.618 8.618 0 0 0-1.076.587 9.173 9.173 0 0 0-1.066.782 9.32 9.32 0 0 0-.978.969 6.82 6.82 0 0 0-.445.551l-.186.267-.1.133-.1.16a9.347 9.347 0 0 0-1.36 3.529q-.684.062-1.36.177v-1.591l.045-.3v-.24a11.024 11.024 0 0 1 1.671-4.053l.311-.178.133-.178.258-.346c.178-.2.338-.427.533-.631a11.3 11.3 0 0 1 2.569-2.1c.231-.142.462-.267.693-.382s.463-.222.685-.32a11.454 11.454 0 0 1 1.306-.489 10.914 10.914 0 0 1 1.156-.276c.347-.071.658-.1.889-.133s.453 0 .595-.044h-1.485a11.01 11.01 0 0 0-1.2.16 11.89 11.89 0 0 0-1.4.346c-.24.08-.5.16-.747.267s-.507.2-.765.329a12.081 12.081 0 0 0-1.519.889 12.327 12.327 0 0 0-1.432 1.1c-.231.2-.444.427-.675.64l-.311.275-.142.16-.16.187a12.322 12.322 0 0 0-1.023 1.431 12.5 12.5 0 0 0-1.3 2.916l-.045.16v.186l-.071.3-.071.285-.062.32-.054.258v.275l-.044.427-.08.755c-.435.116-.889.249-1.307.4 0 0-2.311.542-2.177 1.68s2.4 1.289 2.4 1.289a19.117 19.117 0 0 0 11.536-1.254 4.444 4.444 0 0 1-.142-1.965zm16.31-1.235a12.28 12.28 0 0 0-.284-1.778c-.062-.293-.16-.6-.24-.889l-.142-.417-.071-.2-.089-.222a12.342 12.342 0 0 0-.774-1.6 12.546 12.546 0 0 0-1.955-2.56l-.116-.115-.053-.054-.08-.08-.222-.213-.249-.222-.249-.2-.2-.169-.1-.08-.071-.044h-.045l-.391-.276-.471-.32q.178-.72.311-1.457c.125-.738.649-2.285-.418-2.72s-2.293 1.475-2.293 1.475a19.123 19.123 0 0 0-4.533 10.8 4.439 4.439 0 0 1 1.778.889 19.058 19.058 0 0 0 3.289-4.338 7.991 7.991 0 0 1 2.177 2.018l.08.106.089.134.187.275c.1.178.213.338.3.525a8.356 8.356 0 0 1 .836 2.32 8.189 8.189 0 0 1 .151 1.146 8.592 8.592 0 0 1 0 1.04 8.275 8.275 0 0 1-.1.889 3.168 3.168 0 0 1-.133.676c-.1.373-.16.586-.16.586s.088-.2.24-.56c.062-.177.151-.4.231-.657a8.491 8.491 0 0 0 .222-.889 9.079 9.079 0 0 0 .142-1.076 8.649 8.649 0 0 0 0-1.226 9.126 9.126 0 0 0-.178-1.307 9.233 9.233 0 0 0-.329-1.333c-.071-.223-.177-.436-.266-.658l-.142-.293-.072-.152-.088-.168a9.462 9.462 0 0 0-.738-1.138 9.626 9.626 0 0 0-1.68-1.707q.293-.648.533-1.324h.071l.374.2h-.009l.106.071.214.143.115.071h.062l.232.177.248.187.063.053.124.107a11.027 11.027 0 0 1 2.862 3.538l.089.169.089.2.187.4c.1.258.213.5.293.774a11.266 11.266 0 0 1 .613 3.262v1.546a11.468 11.468 0 0 1-.213 1.378 11.1 11.1 0 0 1-.311 1.147c-.1.337-.222.622-.32.888s-.187.418-.24.543l-.089.2.107-.178c.071-.115.177-.293.3-.515a9.3 9.3 0 0 0 .409-.836 11.1 11.1 0 0 0 .435-1.129 11.77 11.77 0 0 0 .365-1.4c.044-.249.1-.516.124-.782s.062-.542.08-.827a12.191 12.191 0 0 0-.019-1.829z" fill="#009fdf"/>
</svg>
