<svg xmlns="http://www.w3.org/2000/svg" width="200" height="128">
	<path d="M66.2 65.685h1.488a5.712 5.712 0 0 1-5.881 4.469 6.16 6.16 0 1 1 0-12.308 5.7 5.7 0 0 1 5.885 4.454H66.2a4.249 4.249 0 0 0-4.392-3.16 4.863 4.863 0 1 0 0 9.724 4.279 4.279 0 0 0 4.392-3.179M83.077 64a6.154 6.154 0 1 1-6.154-6.154A6.13 6.13 0 0 1 83.077 64m-1.391 0a4.764 4.764 0 1 0-4.763 4.86A4.777 4.777 0 0 0 81.686 64m16.006-6.154v12.308h-1.138l-7.5-9.7v9.7h-1.362V57.846h1.1l7.534 9.829v-9.829zm6.816 1.322v4.524h6.269v1.321h-6.269v5.141h-1.431V57.846h8.461v1.322zm20.107 9.664v1.322h-8.461V57.846h1.472v10.986zm13.077-4.067a5.385 5.385 0 1 1-10.769 0v-6.919h1.462v6.919a3.926 3.926 0 1 0 7.846 0v-6.919h1.461zm6.79-5.6v4.217h6.346v1.321h-6.346v4.127h7.056v1.321h-8.461V57.846h8.461v1.322zm20.9-1.322v12.311h-1.139l-7.5-9.7v9.7h-1.361V57.846h1.1l7.534 9.829v-9.829zM180 59.168h-4.328v10.986h-1.361V59.168H170v-1.322h10zM38.75 64.75c.673-.036 1.346-.058 2.019-.107v-.517c-.673-.049-1.346-.071-2.019-.108l-2.019-.062a150.431 150.431 0 0 0-3.556-.054c0-1.184-.007-2.37-.039-3.556l-.057-2.019c-.034-.673-.054-1.346-.1-2.019h-.571c-.048.673-.067 1.346-.1 2.019l-.056 2.019a92.89 92.89 0 0 0-.027 1.669c-.22-.511-.439-1.023-.666-1.531l-.824-1.844c-.29-.608-.566-1.223-.867-1.827l-.527.219c.214.64.454 1.27.679 1.9l.721 1.888c.2.519.4 1.035.612 1.552q-.6-.585-1.2-1.161l-1.468-1.387c-.5-.452-.99-.914-1.5-1.356l-.4.4c.442.51.9 1 1.355 1.5l1.388 1.467c.383.4.772.8 1.161 1.2-.517-.207-1.033-.414-1.553-.612l-1.887-.721c-.635-.225-1.265-.465-1.905-.679l-.218.527c.6.3 1.218.577 1.827.867l1.844.824a94.2 94.2 0 0 0 1.53.665c-.556.006-1.112.013-1.669.028L26.635 64c-.673.034-1.347.054-2.02.1v.571c.673.048 1.347.067 2.02.1l2.019.056c1.186.032 2.371.037 3.557.04.007 1.184.017 2.37.053 3.555l.063 2.019c.036.673.058 1.346.107 2.02h.517c.049-.674.071-1.347.107-2.02l.063-2.019c.017-.57.027-1.14.035-1.71.225.524.452 1.047.686 1.567l.831 1.841c.291.607.568 1.221.872 1.825l.477-.2c-.212-.64-.449-1.27-.674-1.906l-.715-1.889c-.2-.534-.411-1.064-.621-1.594.408.4.817.794 1.233 1.185l1.472 1.384c.5.45.992.911 1.5 1.352l.366-.366c-.442-.511-.9-1-1.352-1.5l-1.384-1.472q-.587-.621-1.184-1.233c.529.211 1.059.42 1.592.622l1.89.715c.636.224 1.266.461 1.906.674l.2-.479c-.6-.3-1.217-.581-1.826-.871l-1.84-.831c-.52-.234-1.043-.46-1.566-.686a97.62 97.62 0 0 0 1.709-.035zm-5.673 12.327A13.077 13.077 0 1 1 46.154 64a13.091 13.091 0 0 1-13.077 13.077m0-24.931A11.854 11.854 0 1 0 44.931 64a11.867 11.867 0 0 0-11.854-11.854" fill="#0074a1" fill-rule="evenodd"/>
</svg>
