<svg xmlns="http://www.w3.org/2000/svg" width="200" height="128">
	<path fill="#0074a3" d="M97.82 19a33.39 33.39 0 1 0 33 33.81 33.29 33.29 0 0 0-33-33.81zM79.7 58.9a4 4 0 0 1-4-3.94 4 4 0 0 1 4-4 4 4 0 0 1 0 7.9zm12.78-2.62a3.84 3.84 0 0 1-3.62 3.78 3.76 3.76 0 0 1-4.16-3.44 45.17 45.17 0 0 1 0-5.7 3.83 3.83 0 0 1 4-3.41 3.92 3.92 0 0 1 3.73 3.77v2.56c0 .85.07 1.63.05 2.44zm8.87 1.88a3.92 3.92 0 0 1-7.72.93 6 6 0 0 1-.16-1.4V45.56a4 4 0 0 1 3.13-4.28 3.85 3.85 0 0 1 4.74 3.59v6.74c.01 2.19.03 4.39.01 6.55zm8.86-2.08a3.81 3.81 0 0 1-2.65 3.64 3.92 3.92 0 0 1-4.33-1.27 3.59 3.59 0 0 1-.84-2.43v-9.9a3.89 3.89 0 0 1 3.24-3.88 3.93 3.93 0 0 1 4.49 2.93 3.27 3.27 0 0 1 .09.82c.01 3.37.02 6.73 0 10.09zm5 2.69a3.89 3.89 0 0 1-4-3.91 3.92 3.92 0 1 1 7.83 0 3.86 3.86 0 0 1-3.82 3.91zm9.39 42.69 1.54-1c-.94-1.79-3.5-2.7-5.81-2.1a5.37 5.37 0 0 0 .32 10.45c2.12.45 4.67-.51 5.4-2.08l-1.46-1c-1.78 1.61-3.8 1.77-5.15.45a3.77 3.77 0 0 1-.17-5c1.29-1.5 3.24-1.4 5.33.28zm-79.08-1.37a3.37 3.37 0 0 1 3.06 1.4l1.6-1a5.23 5.23 0 0 0-5.93-2.06 5.38 5.38 0 0 0 .37 10.4c2.16.48 4.68-.45 5.47-2l-1.48-1.06c-1.66 1.61-3.7 1.8-5.11.5a3.78 3.78 0 0 1-.26-5 3.2 3.2 0 0 1 2.28-1.18zm110-2c-.4 0-.51.16-.5.54v3.67c-2-1.17-3.61-1-4.73.3a4.13 4.13 0 0 0 0 5.25c1.16 1.32 2.76 1.41 4.63.26l.16.66h.92c.86 0 .86 0 .86-.88v-8.53c-.02-1.36.25-1.26-1.34-1.27zm-2.38 9.19a2 2 0 0 1-1.91-2.08 2 2 0 0 1 2-2.07 2.08 2.08 0 0 1-.05 4.15zm-17.74-5.85a3.75 3.75 0 0 0-3.84 3.74 3.86 3.86 0 0 0 7.71.15 3.73 3.73 0 0 0-3.87-3.89zm0 5.85a2 2 0 0 1-2-2.06 2 2 0 1 1 4 0 2 2 0 0 1-1.97 2.06zm-80.17-5.85a3.77 3.77 0 0 0-3.84 3.75 3.87 3.87 0 0 0 7.73.06 3.75 3.75 0 0 0-3.89-3.81zm.05 5.85a2.06 2.06 0 0 1-2-2.11 2 2 0 1 1 2 2.11zm36.26-5.79c-2.19.25-3.53 2.19-3 4.77.45 2 2.39 3.07 4.6 2.59a3.55 3.55 0 0 0 1.93-1l-1-1.08c-2.06 1-3.55.62-3.72-1h4.54c.18 0 .51-.21.52-.34a3.43 3.43 0 0 0-3.87-3.94zm-1.1 3.08a1.56 1.56 0 1 1 3.11 0zm13.46-.81a2.54 2.54 0 0 0-3.19-2.24 9.28 9.28 0 0 0-1.69.73l-.14-.53h-1.6v7H99a4 4 0 0 0 0-.44v-3.66a1.51 1.51 0 0 1 1.59-1.49 1.42 1.42 0 0 1 1.44 1.49v4.12H104V108c-.06-1.42 0-2.84-.1-4.24zm-36.34.18a2.58 2.58 0 0 0-3.31-2.4 7.57 7.57 0 0 0-1.6.73l-.13-.55h-1.61v7a8.93 8.93 0 0 1 1 0c.61.08.78-.17.76-.75v-3.47a1.49 1.49 0 0 1 1.52-1.43 1.42 1.42 0 0 1 1.5 1.37 11 11 0 0 1 0 1.15v3.07h1.91v-.68c-.01-1.31.07-2.68-.04-4.04zm18.03-2.29c-.56-.06-.7.18-.68.7v3.46a1.42 1.42 0 0 1-1.52 1.47 1.44 1.44 0 0 1-1.52-1.48v-4.11H80c0 1.55-.07 3 0 4.49a2.68 2.68 0 0 0 1.88 2.51 4.13 4.13 0 0 0 3.18-.12 2.25 2.25 0 0 0 1.49-1.87c.09-1.65 0-3.31 0-5a8.91 8.91 0 0 1-.96-.05zm-11.01-3.34a3.35 3.35 0 0 0-3-.1 2.33 2.33 0 0 0-1.25 2.23c0 1.14 0 1.14-1.18 1.24-.06 0-.11 0-.17.07v1.47a3.83 3.83 0 0 0 .56 0c.61-.09.82.14.8.77v4.7a7.64 7.64 0 0 1 1 0c.58.07.79-.13.77-.73v-3.86c0-.29 0-.58.06-1h2.16v-1.58h-1.7a.64.64 0 0 1-.48-.34c-.32-1.26.39-1.93 1.62-1.57l.45.15c.17-.42.35-.79.47-1.17a.46.46 0 0 0-.11-.28zm71.54 3.37a1.25 1.25 0 0 0-.22.08v3.79a1.55 1.55 0 0 1-1.56 1.73c-1 0-1.55-.63-1.57-1.72v-2.7c0-1.29 0-1.27-1.31-1.21-.37 0-.47.18-.47.51v4a2.46 2.46 0 0 0 1.83 2.44 5.8 5.8 0 0 0 2.45.16 2.68 2.68 0 0 0 2.35-2.78v-3c.05-1.44.05-1.44-1.5-1.3zm-35.56 5.37c-1.37.53-2.07.07-2.09-1.38v-1.8c0-.6.13-.65.62-.63h2v-1.59h-1c-1.56 0-1.56 0-1.59-1.53v-.25c0-.06-.22-.36-.36-.38-1.31-.19-1.38-.12-1.38 1.16v.06c0 .92 0 .91-.89.94-.16 0-.32 0-.46.06v1.53a5.39 5.39 0 0 0 .57 0c.61-.09.83.15.79.78s0 1.45 0 2.18a2.29 2.29 0 0 0 1.38 2.5 3.64 3.64 0 0 0 3.55-.51l-.66-1.33zm-33.2-8.96h-.45c-.86 0-.86 0-.86.84v8.34c0 1.66 0 1.66 1.78 1.45a2.5 2.5 0 0 0 0-.35v-9.76c.05-.39-.08-.55-.47-.52zm51.4-.01c-.56 0-.74.14-.73.72v9.97h.81c.94 0 1 0 1-.91v-8.74c-.04-1.04-.05-1.01-1.08-1.04z"/>
</svg>
