<svg xmlns="http://www.w3.org/2000/svg" width="200" height="128">
    <path d="M84.413 58.362c0-4.6 2.675-7.274 8.93-7.274a28.453 28.453 0 0 1 6.821.83l-.529 4.107a36.974 36.974 0 0 0-6.141-.641c-3.279 0-4.333 1.131-4.333 3.806v9.646c0 2.676 1.054 3.806 4.333 3.806A36.966 36.966 0 0 0 99.635 72l.529 4.107a28.453 28.453 0 0 1-6.821.829c-6.255 0-8.93-2.676-8.93-7.273zM110.336 76.938c-6.293 0-7.988-3.467-7.988-7.235v-4.635c0-3.767 1.7-7.235 7.988-7.235s7.988 3.468 7.988 7.235V69.7c0 3.771-1.696 7.238-7.988 7.238zm0-15.185c-2.45 0-3.391 1.092-3.391 3.165v4.936c0 2.072.941 3.165 3.391 3.165s3.391-1.093 3.391-3.165v-4.936c0-2.073-.942-3.165-3.391-3.165zM132.3 76.561V63.75c0-.98-.414-1.47-1.469-1.47a12.692 12.692 0 0 0-4.786 1.545v12.736h-4.6v-18.35h3.5l.452 1.544a18.4 18.4 0 0 1 7.349-1.922c3.051 0 4.144 2.148 4.144 5.427v13.3zM146.355 76.938a21.628 21.628 0 0 1-6.331-1.055l.641-3.5a20.554 20.554 0 0 0 5.464.791c2.035 0 2.336-.452 2.336-1.847 0-1.13-.226-1.695-3.2-2.411-4.484-1.093-5.012-2.223-5.012-5.766 0-3.692 1.621-5.313 6.859-5.313a24.181 24.181 0 0 1 5.5.641l-.452 3.655a32.28 32.28 0 0 0-5.049-.527c-2 0-2.337.452-2.337 1.583 0 1.469.113 1.582 2.6 2.223 5.125 1.356 5.615 2.034 5.615 5.8-.002 3.54-1.095 5.726-6.634 5.726zM160.6 58.211v12.811c0 .98.415 1.469 1.47 1.469a12.689 12.689 0 0 0 4.785-1.544V58.211h4.6v18.35h-3.5l-.452-1.545a18.392 18.392 0 0 1-7.348 1.922c-3.052 0-4.145-2.148-4.145-5.426v-13.3zM175.4 76.561V50.712l4.6-.641v26.49z"/>
    <g>
        <path d="M43.461 69.024a5.08 5.08 0 1 1 5.07-5.09 5.068 5.068 0 0 1-5.07 5.09" fill="#8c1c59" fill-rule="evenodd"/>
        <path d="M53.348 66.287a2.343 2.343 0 1 1 2.342-2.343 2.337 2.337 0 0 1-2.342 2.343M61.92 68.5a2.255 2.255 0 1 1 .046-.185c-.023.058-.023.115-.046.185M60.261 62.46A2.347 2.347 0 1 1 62 59.641a2.452 2.452 0 0 1 .024.917 2.258 2.258 0 0 1-1.763 1.9M68.594 68.235a2.343 2.343 0 1 1-1.9-2.713 2.355 2.355 0 0 1 1.949 2.5.592.592 0 0 0-.047.209M66.69 62.357a2.339 2.339 0 1 1 1.925-2.69 2.593 2.593 0 0 1 .023.6 2.326 2.326 0 0 1-1.948 2.087M65.054 76.349a2.372 2.372 0 1 1 .29-.961 2.122 2.122 0 0 1-.29.961M64.209 54.821a2.35 2.35 0 1 1 .893-3.2 2.193 2.193 0 0 1 .289 1.357 2.35 2.35 0 0 1-1.182 1.844" fill="#c62a71" fill-rule="evenodd"/>
        <path d="M43.548 87.551a23.549 23.549 0 1 1 14.3-42.26l-2.878 3.754a18.818 18.818 0 1 0 0 29.912l2.874 3.758a23.343 23.343 0 0 1-14.296 4.836z" fill="#c62a71"/>
    </g>
    <path d="M87.907 46.617v-2.531H85.59v2.531h-1.183v-6.082h1.183v2.55h2.317v-2.55h1.183v6.082zm5.518 0h-.939l-.084-.3a2.578 2.578 0 0 1-1.361.387c-.835 0-1.191-.549-1.191-1.306 0-.892.4-1.234 1.332-1.234h1.1v-.46c0-.486-.141-.658-.873-.658a6.558 6.558 0 0 0-1.266.136L90 42.347a6.2 6.2 0 0 1 1.567-.208c1.436 0 1.858.487 1.858 1.586zm-1.145-1.658h-.845c-.375 0-.478.1-.478.433 0 .306.1.441.46.441a1.858 1.858 0 0 0 .863-.225zm3.543 1.748a5.6 5.6 0 0 1-1.577-.252l.16-.838a5.318 5.318 0 0 0 1.361.189c.506 0 .581-.108.581-.441 0-.27-.056-.406-.8-.577-1.117-.261-1.248-.531-1.248-1.378 0-.883.4-1.271 1.707-1.271a6.193 6.193 0 0 1 1.37.154l-.112.873a8.379 8.379 0 0 0-1.258-.126c-.5 0-.581.108-.581.379 0 .351.028.378.647.531 1.276.325 1.4.487 1.4 1.388.001.847-.273 1.369-1.65 1.369zm5.24-.09v-3.063c0-.234-.1-.352-.365-.352a3.258 3.258 0 0 0-1.192.37v3.045h-1.145v-6.168l1.145.171v1.943a4.17 4.17 0 0 1 1.67-.424c.76 0 1.032.514 1.032 1.3v3.18zm2.107-5.009v-1.073h1.145v1.073zm0 5.009v-4.388h1.145v4.388zm2.059-4.352c0-1.1.666-1.738 2.224-1.738a7.357 7.357 0 0 1 1.7.2l-.131.982a9.6 9.6 0 0 0-1.53-.153c-.816 0-1.079.27-1.079.91v2.304c0 .64.263.91 1.079.91a9.6 9.6 0 0 0 1.53-.153l.131.982a7.357 7.357 0 0 1-1.7.2c-1.558 0-2.224-.639-2.224-1.739zm6.451 4.442c-1.567 0-1.989-.829-1.989-1.73v-1.108c0-.9.422-1.73 1.989-1.73s1.99.829 1.99 1.73v1.108c0 .901-.422 1.73-1.99 1.73zm0-3.631c-.61 0-.844.262-.844.757v1.18c0 .5.234.757.844.757s.845-.261.845-.757v-1.18c0-.495-.235-.757-.845-.757zm5.213.072a9.149 9.149 0 0 0-1.21.64v2.829h-1.145v-4.388h.966l.075.487a5.229 5.229 0 0 1 1.2-.577zm4.576 2.01a1.354 1.354 0 0 1-1.51 1.549 6.561 6.561 0 0 1-1.22-.126v1.794l-1.145.17v-6.316h.91l.113.37a2.471 2.471 0 0 1 1.445-.46c.919 0 1.407.523 1.407 1.523zm-2.73.495a5.279 5.279 0 0 0 1.013.117c.413 0 .573-.189.573-.585v-1.55c0-.36-.141-.559-.563-.559a1.656 1.656 0 0 0-1.023.4z"/>
</svg>
