<svg xmlns="http://www.w3.org/2000/svg" viewBox="0 0 210.76 47.07">
	<defs>
		<style>
			.cls-1{fill:#3c00e2}.cls-2{fill:#17ffb4}
		</style>
	</defs>
	<g id="Layer_2" data-name="Layer 2">
		<g id="Layer_1-2" data-name="Layer 1">
			<path class="cls-1" d="M69.41 27.3c-1 4-3.76 6.66-7.86 6.66A8.38 8.38 0 0 1 55 31.08q-2.53-2.86-2.54-8.33c0-3.63.85-6.41 2.54-8.32a8.38 8.38 0 0 1 6.51-2.88c4.1 0 6.86 2.63 7.86 6.66l-2.6.79c-1-3.26-2.54-4.82-5.26-4.82-3.88 0-6.2 2.78-6.2 8.57s2.32 8.58 6.2 8.58c2.72 0 4.26-1.56 5.26-4.82Z"/>
			<path class="cls-1" d="M71.8 25.82a8.41 8.41 0 0 1 2.13-5.76 7.86 7.86 0 0 1 11.27 0 8.41 8.41 0 0 1 2.13 5.76 8.37 8.37 0 0 1-2.13 5.76 7.86 7.86 0 0 1-11.27 0 8.37 8.37 0 0 1-2.13-5.76Zm2.69 0a6.25 6.25 0 0 0 1.38 4.07 4.88 4.88 0 0 0 7.39 0 6.25 6.25 0 0 0 1.38-4.07 6.28 6.28 0 0 0-1.38-4.07 4.88 4.88 0 0 0-7.39 0 6.28 6.28 0 0 0-1.38 4.07Z"/>
			<path class="cls-1" d="M104.59 33.71H102V23.29c0-2.16-1-3.23-2.91-3.23a3.92 3.92 0 0 0-3.29 2 9.17 9.17 0 0 0-1.34 5.29v6.35h-2.67V17.93h2.63v2.91a6.47 6.47 0 0 1 5.35-3.16c3.23 0 4.82 1.91 4.82 5Z"/>
			<path class="cls-1" d="M108.19 20.31v-2.38h4.2V13.2l2.61-1.65v6.38h7.7v2.38H115v8.08c0 2.13.91 3.19 2.72 3.19a5.29 5.29 0 0 0 3.89-1.87l1 2.22a6.65 6.65 0 0 1-4.86 2c-3.47 0-5.35-1.84-5.35-5.48v-8.14Z"/>
			<path class="cls-1" d="M139.67 33.71h-2.13l-.38-2.22a6.86 6.86 0 0 1-5.57 2.51 4.53 4.53 0 0 1-4.89-4.79c0-3.41 2.67-5.16 7.14-5.16H137v-.69c0-2.29-1.51-3.26-3.64-3.26a3.83 3.83 0 0 0-3.72 2.69l-2.32-.62a6 6 0 0 1 6-4.45c3.89 0 6.27 1.91 6.27 6.08ZM132 31.58a5.55 5.55 0 0 0 3.44-1.19 4.3 4.3 0 0 0 1.6-3.63v-.5h-3.45c-2.66 0-4.19 1.13-4.19 2.91a2.32 2.32 0 0 0 2.6 2.41Z"/>
			<path class="cls-1" d="M144.61 20.25v-2.32h7.45V31.4h5.82v2.31H144V31.4h5.45V20.25Zm5.95-8.7a2.15 2.15 0 0 1 2.16 2.19 2.1 2.1 0 0 1-2.16 2.13 2.16 2.16 0 1 1 0-4.32Z"/>
			<path class="cls-1" d="M174.67 33.71H172V23.29c0-2.16-1-3.23-2.91-3.23a3.91 3.91 0 0 0-3.29 2 9.09 9.09 0 0 0-1.35 5.29v6.35h-2.63V17.93h2.63v2.91a6.49 6.49 0 0 1 5.36-3.16c3.22 0 4.82 1.91 4.82 5Z"/>
			<path class="cls-1" d="M191.85 33.71h-13.34v-2.38h5.29V14.18h-5.29V11.8h13.34v2.38h-5.29v17.15h5.29Z"/>
			<path class="cls-1" d="m208.73 30 2 2-1.91 2-1.82-1.91a7.48 7.48 0 0 1-5.16 1.91 7.64 7.64 0 0 1-6.14-2.88c-1.6-1.94-2.38-4.72-2.38-8.33s.78-6.38 2.38-8.29a7.92 7.92 0 0 1 12.27 0c1.6 1.91 2.38 4.69 2.38 8.29a14.25 14.25 0 0 1-1.62 7.21Zm-5.89-2.07 1.91-2 1.94 2a14.55 14.55 0 0 0 .81-5.14c0-2.94-.5-5.1-1.53-6.48a5.14 5.14 0 0 0-8.27 0c-1 1.38-1.53 3.54-1.53 6.48 0 5.89 2.19 8.58 5.67 8.58a4.83 4.83 0 0 0 3.25-1.12Z"/>
			<path class="cls-2" d="M21 26a2.82 2.82 0 1 0-2.82-2.82A2.81 2.81 0 0 0 21 26Z"/>
			<path class="cls-2" d="M39.25 16.07a2.82 2.82 0 1 0-2.82-2.81 2.81 2.81 0 0 0 2.82 2.81Z"/>
			<path class="cls-2" d="M39.25 20.64a2.82 2.82 0 1 0 2.82 2.82 2.83 2.83 0 0 0-2.82-2.82Z"/>
			<path class="cls-2" d="M39.25 30.85a2.82 2.82 0 0 0-2.81 2.72l-5.27 3.27a2.76 2.76 0 0 0-1.34-.35A2.81 2.81 0 0 0 27 39.3s0 .05 0 .07L22.67 42a2.78 2.78 0 0 0-3.28 0l-4.34-2.59v-.09a2.81 2.81 0 0 0-2.82-2.81 2.74 2.74 0 0 0-1.41.39l-5.2-3.11v-.1a2.79 2.79 0 0 0-1.26-2.34V25.8a2.8 2.8 0 0 0 0-4.68V15.6a2.82 2.82 0 0 0 1.2-1.78L11 10.51a2.8 2.8 0 0 0 4-2.47l4.58-2.79a2.81 2.81 0 0 0 1.42.39 2.77 2.77 0 0 0 1.21-.29L27 8.16a2.81 2.81 0 1 0 2.8-3 2.91 2.91 0 0 0-1.22.28l-4.77-2.8a2.81 2.81 0 0 0-5.58-.23l-4.89 3a2.85 2.85 0 0 0-1.13-.23A2.81 2.81 0 0 0 9.44 7.8l-5.08 3.1a2.82 2.82 0 0 0-3.11 4.7v5.52a2.82 2.82 0 0 0 0 4.68v5.53a2.82 2.82 0 0 0 1.57 5.16 2.76 2.76 0 0 0 1-.18l5.69 3.4a2.79 2.79 0 0 0 3.75 2.23l5.11 3a2.81 2.81 0 0 0 5.43 0l5.08-3a2.78 2.78 0 0 0 3.78-2.3l5.48-3.4a2.8 2.8 0 0 0 4-2.56 2.82 2.82 0 0 0-2.89-2.83Z"/>
			<path class="cls-2" d="M9.08 28.52a2.82 2.82 0 0 0 2.82 2.82 3 3 0 0 0 1.1-.21l5.28 3.05a2.81 2.81 0 0 0 5.55-.06l5.4-3a2.77 2.77 0 0 0 1 .18A2.82 2.82 0 0 0 33 28.52a2.76 2.76 0 0 0-1-2.13l-.19-6.13a2.81 2.81 0 0 0-2-4.82 2.7 2.7 0 0 0-.94.17L23.82 13a2.8 2.8 0 0 0-5.58.05l-4.88 2.67a2.77 2.77 0 0 0-1.12-.23 2.81 2.81 0 0 0-1.91 4.88v5.86a2.84 2.84 0 0 0-1.25 2.29Zm6-10.21 4.69-2.56a2.84 2.84 0 0 0 1.3.32 2.75 2.75 0 0 0 1.33-.35l4.6 2.44v.09a2.82 2.82 0 0 0 1.68 2.58l.16 5.22a2.81 2.81 0 0 0-1.5 2.47s0 .06 0 .08l-4.9 2.69A2.85 2.85 0 0 0 21 30.9a2.74 2.74 0 0 0-1.47.42l-4.85-2.81a2.83 2.83 0 0 0-1.26-2.33v-5.4a2.8 2.8 0 0 0 1.63-2.47Z"/>
		</g>
	</g>
</svg>
