<svg xmlns="http://www.w3.org/2000/svg" width="200" height="128">
    <path d="M76.889 87.105a8.616 8.616 0 0 1-1.7-.475 6.138 6.138 0 0 1-1.43-.882.24.24 0 0 1-.088-.328l.016-.023c.171-.322.335-.65.489-.976.085-.185.16-.169.3-.05a4.948 4.948 0 0 0 2.481 1.173 2.962 2.962 0 0 0 1.6-.139 1 1 0 0 0 .321-1.726 3.038 3.038 0 0 0-1.213-.59 15.349 15.349 0 0 1-2.177-.753 2.366 2.366 0 0 1-1.134-3.162 2.614 2.614 0 0 1 1.93-1.471 5.927 5.927 0 0 1 4.42.687c.15.084.188.173.107.333a14.05 14.05 0 0 0-.453.963c-.089.214-.189.222-.379.115a5.078 5.078 0 0 0-2.733-.74 1.978 1.978 0 0 0-.662.139.922.922 0 0 0-.237 1.65 3.19 3.19 0 0 0 .951.471c.641.226 1.308.379 1.935.647a2.663 2.663 0 0 1 1.624 1.462 2.58 2.58 0 0 1-1.626 3.387c-.379.139-.779.188-1.164.3zm42.548 0c-.217-.054-.435-.107-.651-.163a3.488 3.488 0 0 1-2.712-3.329c-.046-1.924-.015-3.85-.025-5.775 0-.192.079-.23.248-.225.346.008.7.018 1.035 0 .258-.016.336.058.335.326-.013 1.746 0 3.494-.008 5.241a2.908 2.908 0 0 0 .122.845 2.185 2.185 0 0 0 1.832 1.6 2.937 2.937 0 0 0 1.488-.092 2.221 2.221 0 0 0 1.544-2.275v-5.24c0-.4 0-.4.4-.4.316 0 .631.008.947 0 .187 0 .261.048.261.248 0 1.886.021 3.772-.015 5.656a3.549 3.549 0 0 1-3.217 3.536c-.059.007-.12 0-.162.054zm-14.222 0c-.278-.072-.547-.139-.818-.22a4.746 4.746 0 0 1 .469-9.207 5.242 5.242 0 0 1 4.491 1.132c.169.139.232.239.063.426-.223.25-.433.513-.631.784-.113.153-.18.146-.315.018a3.762 3.762 0 0 0-2-1 3.311 3.311 0 1 0-1.012 6.545 3.247 3.247 0 0 0 .607.037 3.758 3.758 0 0 0 2.37-.945c.161-.139.253-.129.382.024a7.741 7.741 0 0 0 .6.658c.174.164.128.269-.026.4a5.443 5.443 0 0 1-2.648 1.291c-.057.011-.12 0-.158.061zm34.169-.06h-1.7c-.139 0-.181-.088-.238-.181-.5-.819-.994-1.636-1.483-2.46a.37.37 0 0 0-.377-.206q-1.065.018-2.132 0c-.226 0-.279.068-.279.287.013.76 0 1.521.01 2.28 0 .223-.06.293-.279.279-.354-.018-.71-.017-1.064 0-.215.01-.265-.073-.264-.279.01-.918 0-1.835 0-2.754 0-2.025 0-4.042-.007-6.072 0-.279.084-.346.35-.343 1.245.012 2.489 0 3.732 0a4.505 4.505 0 0 1 1.789.358 2.963 2.963 0 0 1 1.758 3.206 3.327 3.327 0 0 1-.486 1.565 2.7 2.7 0 0 1-1.165 1.017c-.241.11-.246.206-.1.411.578.837 1.14 1.684 1.707 2.527.062.113.125.211.228.365zm-6.2-6.15v1.657c0 .139.023.224.191.22.895-.022 1.794.05 2.688-.057a1.729 1.729 0 0 0 1.629-1.749 1.671 1.671 0 0 0-1.576-1.861 25.192 25.192 0 0 0-2.748-.061c-.174-.007-.185.092-.184.224-.002.542-.004 1.085-.004 1.632zm-45.27 1.426v-4.414c0-.239.069-.3.3-.3q3.081.012 6.161 0c.227 0 .319.053.3.294a5.062 5.062 0 0 0 0 .8c.021.265-.054.352-.336.349-1.491-.014-2.982 0-4.473-.014-.292 0-.364.086-.354.366.02.611.016 1.224 0 1.836-.007.243.06.322.31.319 1.324-.011 2.648 0 3.97-.011.278 0 .372.074.348.35a5.555 5.555 0 0 0 0 .836c.017.233-.058.3-.3.3-1.333-.011-2.667 0-4-.011-.249 0-.346.048-.336.322.021.651.017 1.3 0 1.951 0 .243.078.3.3.3 1.56-.009 3.12 0 4.681-.01.267 0 .373.064.351.344a7.341 7.341 0 0 0 0 .89c0 .172-.042.242-.23.241q-3.231-.009-6.459 0c-.234 0-.245-.108-.244-.287q.015-2.229.011-4.451zm83.494-.15c.815-1.418 1.6-2.773 2.369-4.142.167-.3.34-.467.705-.418a6.682 6.682 0 0 0 .917 0c.19 0 .258.034.148.233-1.065 1.925-2.123 3.854-3.189 5.778a1.048 1.048 0 0 0-.139.533v2.606c0 .21-.042.3-.279.29a10.509 10.509 0 0 0-1.065 0c-.209.008-.269-.061-.267-.268.011-.829 0-1.658.008-2.488a1.192 1.192 0 0 0-.163-.616q-1.584-2.843-3.162-5.692c-.034-.059-.065-.122-.1-.181-.081-.139-.053-.195.111-.193.418 0 .836.011 1.243 0 .2 0 .25.139.322.256q1.041 1.773 2.081 3.55c.152.234.291.468.46.752zm-12.453.883v3.7c0 .236-.066.31-.3.3a8.441 8.441 0 0 0-1.006 0c-.261.017-.335-.07-.335-.332.01-2.259 0-4.52 0-6.78 0-.208-.014-.418 0-.622.021-.23-.075-.279-.288-.279-.8.011-1.6 0-2.4.01-.238 0-.311-.068-.3-.3a9.67 9.67 0 0 0 0-.917c0-.17.062-.22.225-.219h7.149c.166 0 .227.057.223.223-.01.317-.016.633 0 .948.01.213-.07.267-.279.265-.8-.01-1.6 0-2.4-.009-.245 0-.317.064-.316.313.027 1.23.027 2.465.027 3.699zm-12.6-.717v-4.411c0-.242.06-.332.312-.318.354.021.711.014 1.066 0 .186 0 .261.045.26.247V86.8c0 .189-.052.26-.251.252a13.19 13.19 0 0 0-1.125 0c-.216.01-.261-.074-.259-.279 0-1.473-.004-2.956-.004-4.436z" fill="#959698"/>
    <path d="M180 53.148a1 1 0 0 1-1.034.487c-1.482-.024-2.963 0-4.443-.015-.261 0-.325.058-.325.321q.015 7.836.007 15.67c0 .654-.243.894-.892.895h-3.851c-.771 0-.995-.22-.995-.976V53.979c0-.279-.063-.359-.351-.357-1.521.017-3.041.007-4.562.007-.644 0-.867-.223-.867-.875v-3.406c0-.57.218-.789.786-.791h15.671a.845.845 0 0 1 .852.453zM74.262 60.814a.584.584 0 0 0 .029-.318V49.357c0-.583.216-.8.806-.8h3.971c.614 0 .818.2.818.817v20.378c0 .58-.175.754-.763.755-1.421 0-2.844-.023-4.266.013a1.1 1.1 0 0 1-1.08-.611q-1.371-2.283-2.755-4.56-2.38-3.939-4.768-7.88c-.035-.056-.071-.109-.152-.233 0 .176-.017.279-.017.379v12.028a2.869 2.869 0 0 1-.022.382.47.47 0 0 1-.437.449 2.753 2.753 0 0 1-.352.028h-3.94c-.606 0-.8-.194-.8-.8V49.356c0-.613.187-.8.786-.8 1.522 0 3.043.01 4.563 0a1.114 1.114 0 0 1 1.047.582q3.56 5.715 7.135 11.429c.053.077.084.188.197.247zm28.944-1.254v-10.2c0-.629.179-.807.811-.807h9.508a7.2 7.2 0 0 1 7.138 7.952 6.96 6.96 0 0 1-3.356 5.218c-.2.14-.228.218-.115.428q1.977 3.693 3.937 7.387a1.074 1.074 0 0 1 .139.389.445.445 0 0 1-.334.533l-.045.008a1.814 1.814 0 0 1-.382.032c-1.51 0-3.021-.014-4.532.009a1.091 1.091 0 0 1-1.157-.7c-.712-1.453-1.5-2.866-2.262-4.294-.371-.7-.746-1.394-1.105-2.091a.366.366 0 0 0-.383-.238q-.918.023-1.836 0c-.231 0-.3.057-.294.292.01 2.073 0 4.147 0 6.221 0 .61-.181.791-.8.793H104c-.613 0-.793-.183-.793-.8V59.56zm5.735-3.763v2.458c0 .128-.025.256.182.251 1.094-.029 2.19.05 3.284-.052a2.462 2.462 0 0 0 2.28-1.951 2.721 2.721 0 0 0-2.458-3.364c-1.016-.025-2.032-.025-3.047-.048-.2 0-.248.055-.245.247.014.808.008 1.622.008 2.446zm15.973 14.71h-1.984a1.723 1.723 0 0 1-.3-.015c-.418-.068-.538-.268-.385-.663q.812-2.112 1.63-4.223l6.35-16.446a.9.9 0 0 1 .864-.6h3.7a.841.841 0 0 1 .8.588c.6 1.355 1.1 2.747 1.637 4.126q3.18 8.172 6.342 16.352a2.093 2.093 0 0 1 .1.307.4.4 0 0 1-.256.509.425.425 0 0 1-.051.014 1.448 1.448 0 0 1-.439.053h-4.029c-.594 0-.765-.119-.976-.668-.337-.884-.676-1.767-1-2.656a.306.306 0 0 0-.342-.234q-3.662.008-7.318 0a.319.319 0 0 0-.358.252c-.322.881-.658 1.754-.991 2.63-.208.549-.392.677-.976.677zm8.011-14.935a.5.5 0 0 0-.04.071c-.712 2.12-1.42 4.24-2.139 6.356-.074.214.028.2.17.2h3.994c.209 0 .279-.024.2-.258-.69-2.034-1.366-4.073-2.051-6.108-.028-.087-.028-.197-.134-.261zm20-7.5a9.721 9.721 0 0 1 6.609 2.648c.787.708.787.988.074 1.753-.68.725-1.352 1.454-2.049 2.174-.439.462-.705.473-1.194.059a8.96 8.96 0 0 0-1.91-1.337 3.8 3.8 0 0 0-3.044-.161 1.273 1.273 0 0 0-.928 1.382 1.307 1.307 0 0 0 .558.965 4.819 4.819 0 0 0 1.364.7c1.438.516 2.9.976 4.3 1.584a9.467 9.467 0 0 1 2.276 1.368 5.466 5.466 0 0 1 1.952 4.994 6.689 6.689 0 0 1-4.844 5.944 10.378 10.378 0 0 1-9.554-1.2 11.985 11.985 0 0 1-2.455-2.167c-.354-.4-.347-.648.034-1.019q1.235-1.193 2.485-2.369c.485-.456.713-.459 1.227-.021a13.111 13.111 0 0 0 2.351 1.738 4.659 4.659 0 0 0 3.345.483 1.818 1.818 0 0 0 1.522-1.852 1.2 1.2 0 0 0-.348-.882 4.343 4.343 0 0 0-1.7-1.044c-1.209-.452-2.44-.85-3.6-1.422a11.1 11.1 0 0 1-3.047-2.114 5.8 5.8 0 0 1 1.78-9.278 11.031 11.031 0 0 1 4.798-.928zM88.679 61.833q0-3.939.007-7.879c0-.279-.083-.334-.343-.333-1.54.012-3.08 0-4.62 0-.59 0-.82-.231-.821-.836v-3.5c0-.513.228-.745.738-.745h15.787c.549 0 .789.246.79.8v3.406c0 .6-.271.863-.869.863H94.7c-.238 0-.287.07-.287.3q.008 7.833 0 15.669c0 .69-.232.922-.924.922h-3.9c-.652 0-.9-.244-.9-.883zM45.408 67.88v-1.629a2.1 2.1 0 0 1 .06-.558.987.987 0 0 1 .992-.814 6.928 6.928 0 0 0 2.787-.745 4.676 4.676 0 0 0 2.636-4.286 5.512 5.512 0 0 0-2.059-4.786 4.791 4.791 0 0 0-2.95-1 4.151 4.151 0 0 1-.473-.024 1.023 1.023 0 0 1-.985-1.115q-.009-1.7 0-3.407a1.1 1.1 0 0 1 1.254-1.226 11.071 11.071 0 0 1 7.871 2.942 10.769 10.769 0 0 1 3.5 6.871A11.2 11.2 0 0 1 48.7 70.634a10.528 10.528 0 0 1-2.006.14c-.882-.017-1.282-.419-1.282-1.292z" fill="#231f20"/>
    <path d="M20 58.187a11.485 11.485 0 0 0 .29-1.342 11.086 11.086 0 0 1 9.11-8.392 12.509 12.509 0 0 1 1.952-.153h5.509c.924 0 1.337.331 1.366 1.254.036 1.172.06 2.348-.021 3.521a.956.956 0 0 1-.872.963 3.917 3.917 0 0 1-.648.054c-1.906 0-3.812-.043-5.715.021a4.517 4.517 0 0 0-4.233 3.012 5.65 5.65 0 0 0 .083 5.031 4.513 4.513 0 0 0 3.1 2.581 8.05 8.05 0 0 0 1.646.152H36.9c.852 0 1.3.36 1.323 1.2.032 1.232.064 2.468-.022 3.7a.98.98 0 0 1-1.085.976c-1.8.007-3.594-.021-5.391.009a11.69 11.69 0 0 1-4.419-.648 11.43 11.43 0 0 1-6.029-5.3 10.817 10.817 0 0 1-1.214-4.024c-.009-.064.016-.139-.063-.182z" fill="#4bc1b1"/>
    <path d="M42.518 40.884V77.2c0 .265-.058.379-.341.355a6.281 6.281 0 0 0-.8 0c-.2.01-.3-.049-.279-.265a1.77 1.77 0 0 0 0-.206V41.268c0-.128-.008-.256-.012-.384z" fill="#959698"/>
</svg>
