<svg xmlns="http://www.w3.org/2000/svg" height="158.773" width="523.907" xml:space="preserve">
	<path style="fill:#4552ac;fill-opacity:1;fill-rule:nonzero;stroke:none" d="m802.988 104.379-495.953-.098v.098C137.445 104.379 0 241.848 0 411.426c0 113.32 62.016 211.023 153.328 264.254-6.941 20.922-11.617 42.992-11.617 66.324 0 117.336 95.187 212.566 212.566 212.566 22.442 0 43.598-4.437 63.922-10.871 67.5 145.591 213.836 247.061 384.789 247.061V104.379" transform="matrix(.13333 0 0 -.13333 0 158.773)"/>
	<path style="fill:#47b6d3;fill-opacity:1;fill-rule:nonzero;stroke:none" d="M988.578 1040.47H839.281v149.31h149.297v-149.31" transform="matrix(.13333 0 0 -.13333 0 158.773)"/>
	<path style="fill:#5bc6a2;fill-opacity:1;fill-rule:nonzero;stroke:none" d="M1175.21 1040.47H1025.9v149.31h149.31v-149.31" transform="matrix(.13333 0 0 -.13333 0 158.773)"/>
	<path style="fill:#47b6d3;fill-opacity:1;fill-rule:nonzero;stroke:none" d="M988.578 853.871H839.281v149.289h149.297V853.871" transform="matrix(.13333 0 0 -.13333 0 158.773)"/>
	<path style="fill:#5bc6a2;fill-opacity:1;fill-rule:nonzero;stroke:none" d="M1175.21 853.871H1025.9v149.289h149.31V853.871" transform="matrix(.13333 0 0 -.13333 0 158.773)"/>
	<path style="fill:#63c55a;fill-opacity:1;fill-rule:nonzero;stroke:none" d="M1361.82 853.871h-149.3v149.289h149.3V853.871" transform="matrix(.13333 0 0 -.13333 0 158.773)"/>
	<path style="fill:#47b6d3;fill-opacity:1;fill-rule:nonzero;stroke:none" d="M988.578 667.25H839.281v149.289h149.297V667.25" transform="matrix(.13333 0 0 -.13333 0 158.773)"/>
	<path style="fill:#5bc6a2;fill-opacity:1;fill-rule:nonzero;stroke:none" d="M1175.21 667.25H1025.9v149.289h149.31V667.25" transform="matrix(.13333 0 0 -.13333 0 158.773)"/>
	<path style="fill:#63c55a;fill-opacity:1;fill-rule:nonzero;stroke:none" d="M1361.82 667.25h-149.3v149.289h149.3V667.25" transform="matrix(.13333 0 0 -.13333 0 158.773)"/>
	<path style="fill:#47b6d3;fill-opacity:1;fill-rule:nonzero;stroke:none" d="M988.578 480.637H839.281v149.285h149.297V480.637" transform="matrix(.13333 0 0 -.13333 0 158.773)"/>
	<path style="fill:#5bc6a2;fill-opacity:1;fill-rule:nonzero;stroke:none" d="M1175.21 480.637H1025.9v149.285h149.31V480.637" transform="matrix(.13333 0 0 -.13333 0 158.773)"/>
	<path style="fill:#63c55a;fill-opacity:1;fill-rule:nonzero;stroke:none" d="M1361.82 480.637h-149.3v149.285h149.3V480.637" transform="matrix(.13333 0 0 -.13333 0 158.773)"/>
	<path style="fill:#99d426;fill-opacity:1;fill-rule:nonzero;stroke:none" d="M1548.44 480.637h-149.3v149.285h149.3V480.637" transform="matrix(.13333 0 0 -.13333 0 158.773)"/>
	<path style="fill:#47b6d3;fill-opacity:1;fill-rule:nonzero;stroke:none" d="M988.578 294.004H839.281v149.289h149.297V294.004" transform="matrix(.13333 0 0 -.13333 0 158.773)"/>
	<path style="fill:#5bc6a2;fill-opacity:1;fill-rule:nonzero;stroke:none" d="M1175.21 294.004H1025.9v149.289h149.31V294.004" transform="matrix(.13333 0 0 -.13333 0 158.773)"/>
	<path style="fill:#63c55a;fill-opacity:1;fill-rule:nonzero;stroke:none" d="M1361.82 294.004h-149.3v149.289h149.3V294.004" transform="matrix(.13333 0 0 -.13333 0 158.773)"/>
	<path style="fill:#99d426;fill-opacity:1;fill-rule:nonzero;stroke:none" d="M1548.44 294.004h-149.3v149.289h149.3V294.004" transform="matrix(.13333 0 0 -.13333 0 158.773)"/>
	<path style="fill:#47b6d3;fill-opacity:1;fill-rule:nonzero;stroke:none" d="M988.578 107.391H839.281V256.68h149.297V107.391" transform="matrix(.13333 0 0 -.13333 0 158.773)"/>
	<path style="fill:#5bc6a2;fill-opacity:1;fill-rule:nonzero;stroke:none" d="M1175.21 107.391H1025.9V256.68h149.31V107.391" transform="matrix(.13333 0 0 -.13333 0 158.773)"/>
	<path style="fill:#63c55a;fill-opacity:1;fill-rule:nonzero;stroke:none" d="M1361.82 107.391h-149.3V256.68h149.3V107.391" transform="matrix(.13333 0 0 -.13333 0 158.773)"/>
	<path style="fill:#100f0d;fill-opacity:1;fill-rule:nonzero;stroke:none" d="M1751.24 757.094c0 114.094 71.31 180.801 166.08 180.801 35.88 0 64.87-6.899 88.78-20.243l-8.74-22.082c-21.62 9.66-48.3 15.184-80.04 15.184-77.75 0-133.42-52.449-133.42-151.816 0-105.813 53.83-147.219 121-147.219 36.34 0 61.18 8.281 87.4 25.761l11.51-22.082c-28.07-19.324-60.27-30.824-102.59-30.824-89.72 0-149.98 53.364-149.98 172.52" transform="matrix(.13333 0 0 -.13333 0 158.773)"/>
	<path style="fill:#100f0d;fill-opacity:1;fill-rule:nonzero;stroke:none" d="M2234.26 710.172c0 70.844-31.75 101.668-76.84 101.668-45.54 0-76.82-30.824-76.82-101.668 0-70.391 31.28-101.211 76.82-101.211 45.09 0 76.84 30.82 76.84 101.211zm30.82 0c0-82.813-41.87-125.598-107.66-125.598-65.78 0-107.64 42.785-107.64 125.598 0 83.266 41.86 125.59 107.64 125.59 65.79 0 107.66-42.324 107.66-125.59" transform="matrix(.13333 0 0 -.13333 0 158.773)"/>
	<path style="fill:#100f0d;fill-opacity:1;fill-rule:nonzero;stroke:none" d="M2513.47 735.473V591.016h-29.45v155.039c0 47.843-18.39 65.785-60.26 65.785-22.54 0-42.32-7.82-62.57-23.918V591.016h-29.44v237.847l29.44 4.141V811.84c20.7 15.183 46.47 24.387 73.61 24.387 44.62 0 73.61-17.028 77.75-64.411.92-10.582.92-20.703.92-36.343" transform="matrix(.13333 0 0 -.13333 0 158.773)"/>
	<path style="fill:#100f0d;fill-opacity:1;fill-rule:nonzero;stroke:none" d="M2707.58 596.074c-12.88-6.441-27.61-11.5-47.39-11.5-37.26 0-52.9 21.621-54.75 48.309-.92 12.422-.92 23.461-.92 40.023v133.875h-34.96v23.004h34.96v59.348l29.44 5.055v-64.403h70.85l-3.68-23.004h-67.17v-145.84c0-39.562 10.59-51.523 38.19-51.523 9.67 0 18.41 1.379 29.44 5.98l5.99-19.324" transform="matrix(.13333 0 0 -.13333 0 158.773)"/>
	<path style="fill:#100f0d;fill-opacity:1;fill-rule:nonzero;stroke:none" d="M2826.71 608.496c19.77 0 41.86 6.442 63.94 21.625v72.227c-12.88 2.3-28.06 3.683-48.31 3.683-40.02 0-64.86-13.804-64.86-46.929 0-33.582 17.02-50.606 49.23-50.606zm70.38-21.16-5.52 23.461c-26.68-18.399-50.6-26.223-74.99-26.223-39.56 0-69.46 18.406-69.46 72.227 0 48.304 38.18 72.691 97.07 72.691 16.56 0 33.58-2.301 46.46-5.062v30.367c0 35.883-16.1 57.043-58.42 57.043-17.94 0-39.1-4.598-58.89-15.641l-8.74 20.242c23.47 13.344 48.3 19.786 74.07 19.786 47.38 0 78.21-23.469 80.97-67.168.46-10.582.46-21.164.46-36.809v-86.945c0-20.246.92-30.828 5.97-54.289l-28.98-3.68" transform="matrix(.13333 0 0 -.13333 0 158.773)"/>
	<path style="fill:#100f0d;fill-opacity:1;fill-rule:nonzero;stroke:none" d="m3002.87 828.863 29.44 4.141V591.016h-29.44zm-.46 88.789c7.37 2.297 22.08 2.297 29.45 0v-38.183c-7.37-2.301-22.08-2.301-29.45 0v38.183" transform="matrix(.13333 0 0 -.13333 0 158.773)"/>
	<path style="fill:#100f0d;fill-opacity:1;fill-rule:nonzero;stroke:none" d="M3299.12 735.473V591.016h-29.44v155.039c0 47.843-18.4 65.785-60.27 65.785-22.53 0-42.32-7.82-62.56-23.918V591.016h-29.45v237.847l29.45 4.141V811.84c20.7 15.183 46.46 24.387 73.61 24.387 44.62 0 73.6-17.028 77.74-64.411.92-10.582.92-20.703.92-36.343" transform="matrix(.13333 0 0 -.13333 0 158.773)"/>
	<path style="fill:#100f0d;fill-opacity:1;fill-rule:nonzero;stroke:none" d="M3388.81 727.652h125.59c-1.38 64.411-17.49 84.188-57.05 84.188-41.4 0-65.79-23-68.54-84.188zm139.85-104.894 6.91-21.621c-26.23-12.422-51.07-16.563-76.37-16.563-69.47 0-100.29 37.266-100.29 122.375 0 92.012 39.56 129.278 99.82 129.278 53.37 0 79.59-30.829 83.27-91.555.92-15.18.92-25.301.92-40.024h-155.03c1.84-72.226 27.14-95.23 73.15-95.23 25.76 0 46.92 4.141 67.62 13.34" transform="matrix(.13333 0 0 -.13333 0 158.773)"/>
	<path style="fill:#100f0d;fill-opacity:1;fill-rule:nonzero;stroke:none" d="m3612.35 827.48 29.45 4.141V802.18c11.5 24.843 29.9 34.047 48.31 34.047 11.96 0 18.85-2.766 24.84-6.907l-3.22-24.84c-7.36 2.301-13.8 3.68-24.39 3.68-21.16 0-36.34-11.5-45.54-32.66V591.016h-29.45V827.48" transform="matrix(.13333 0 0 -.13333 0 158.773)"/>
	<path style="fill:#100f0d;fill-opacity:1;fill-rule:nonzero;stroke:none" d="m1741.35 147.602 13.04 57.593c31.5-13.496 59.4-17.996 84.6-17.996 36.9 0 53.1 16.649 53.1 35.098 0 19.793-11.7 31.941-57.15 51.297-47.24 20.246-80.99 41.844-80.99 95.39 0 55.801 49.94 100.801 121.94 100.801 31.5 0 64.35-6.75 88.19-19.347l-13.04-55.348c-21.6 7.195-43.65 11.695-67.5 11.695-23.4 0-46.8-11.695-46.8-30.144 0-17.996 10.8-32.403 50.4-47.703 54.45-21.145 87.74-46.797 87.74-95.391 0-68.848-59.84-109.348-140.84-109.348-30.15 0-67.5 8.09-92.69 23.403" transform="matrix(.13333 0 0 -.13333 0 158.773)"/>
	<path style="fill:#100f0d;fill-opacity:1;fill-rule:nonzero;stroke:none" d="M2171.54 247.488c0 44.106-13.95 63.899-45 63.899-31.04 0-45-19.793-45-63.899 0-44.09 13.96-63.898 45-63.898 31.05 0 45 19.808 45 63.898zm81 0c0-81.886-48.6-125.09-126-125.09s-125.99 43.204-125.99 125.09c0 81.907 48.59 125.102 125.99 125.102 77.4 0 126-43.195 126-125.102" transform="matrix(.13333 0 0 -.13333 0 158.773)"/>
	<path style="fill:#100f0d;fill-opacity:1;fill-rule:nonzero;stroke:none" d="m2290.8 465.73 81 4.504V130.5h-81v335.23" transform="matrix(.13333 0 0 -.13333 0 158.773)"/>
	<path style="fill:#100f0d;fill-opacity:1;fill-rule:nonzero;stroke:none" d="M2649.88 368.535V130.5h-80.99v19.34c-21.6-15.289-45.45-23.84-67.95-23.84-52.65 0-78.3 27.898-81.9 73.348-.91 10.347-.91 25.64-.91 40.945v123.75l81.01 4.492V235.793c0-34.648 10.34-48.594 35.55-48.594 11.7 0 23.4 4.949 34.2 13.946v162.898l80.99 4.492" transform="matrix(.13333 0 0 -.13333 0 158.773)"/>
	<path style="fill:#100f0d;fill-opacity:1;fill-rule:nonzero;stroke:none" d="m2861.83 188.102 6.3-49.063c-19.35-8.988-46.8-15.289-76.95-15.289-44.1 0-64.79 20.691-67.95 52.199-1.79 16.649-2.24 28.797-2.24 59.395v72.449h-34.2v58.496h34.2v47.246l80.99 22.949v-70.195h67.5l-8.1-58.496h-59.4v-76.504c0-35.098 7.65-46.348 34.2-46.348 9 0 15.74.911 25.65 3.161" transform="matrix(.13333 0 0 -.13333 0 158.773)"/>
	<path style="fill:#100f0d;fill-opacity:1;fill-rule:nonzero;stroke:none" d="m2902.78 364.043 81 4.492V130.5h-81zm0 106.641c18.9 3.156 62.09 3.156 81 0v-69.297c-18.91-3.157-62.1-3.157-81 0v69.297" transform="matrix(.13333 0 0 -.13333 0 158.773)"/>
	<path style="fill:#100f0d;fill-opacity:1;fill-rule:nonzero;stroke:none" d="M3193.02 247.488c0 44.106-13.96 63.899-45 63.899-31.05 0-45-19.793-45-63.899 0-44.09 13.95-63.898 45-63.898 31.04 0 45 19.808 45 63.898zm80.99 0c0-81.886-48.6-125.09-125.99-125.09-77.4 0-126 43.204-126 125.09 0 81.907 48.6 125.102 126 125.102 77.39 0 125.99-43.195 125.99-125.102" transform="matrix(.13333 0 0 -.13333 0 158.773)"/>
	<path style="fill:#100f0d;fill-opacity:1;fill-rule:nonzero;stroke:none" d="M3544.01 258.293V130.5h-80.99v132.293c0 34.648-9.01 48.594-36.46 48.594-11.25 0-22.95-4.492-33.29-13.047V130.5h-80.99v233.543l80.99 4.492V350.09c21.59 13.953 45.45 22.5 67.94 22.5 52.66 0 77.85-27.902 81.91-73.352.89-10.351.89-25.644.89-40.945" transform="matrix(.13333 0 0 -.13333 0 158.773)"/>
	<path style="fill:#100f0d;fill-opacity:1;fill-rule:nonzero;stroke:none" d="m3579.12 143.539 10.8 53.102c22.05-10.789 41.4-15.743 66.6-15.743 16.65 0 22.5 5.852 22.5 15.743 0 9.902-9 18.007-31.95 28.347-36.44 16.653-58.94 34.2-58.94 76.059 0 48.594 45.89 71.543 91.79 71.543 29.7 0 50.85-5.852 68.4-15.754l-7.21-50.852c-16.65 6.758-33.75 9.907-53.99 9.907-14.41 0-22.05-6.301-22.05-14.844 0-10.356 13.95-18.012 35.99-27.902 41.41-17.997 55.81-40.047 55.81-75.594 0-51.75-43.2-73.352-97.65-73.352-30.6 0-60.29 7.199-80.1 19.34" transform="matrix(.13333 0 0 -.13333 0 158.773)"/>
</svg>
