<svg xmlns="http://www.w3.org/2000/svg" width="200" height="128">
	<path fill="#cecece" d="m86.64 61.41 51.58-29.77-21.59-12.47-51.58 29.78 21.59 12.46z"/>
	<path fill="#777" d="m86.64 86.34 51.58-29.78V31.64L86.64 61.41v24.93z"/>
	<path fill="#bababa" d="m65.05 73.88 21.59 12.46V61.41L65.05 48.95v24.93zm26.32 7.03 1.49-.86V61.08l-1.49.87v18.96zm5.19-2.99 1.49-.86V58.09l-1.49.86v18.97zm5.18-2.99 1.49-.87V55.09l-1.49.87v18.97zm5.19-3 1.49-.86V52.1l-1.49.86v18.97zm5.18-2.99 1.5-.86V49.11l-1.5.86v18.97zm5.19-3 1.49-.86V46.11l-1.49.87v18.96zm5.18-2.99 1.5-.86V43.12l-1.5.86v18.97zm5.19-2.99 1.49-.87V40.13l-1.49.86v18.97zm5.18-3 1.5-.86V37.13l-1.5.86v18.97z"/>
	<path d="M65 104.61a4.25 4.25 0 0 1-1.44 3.07 5.05 5.05 0 0 1-3.42 1.12 4.56 4.56 0 0 1-3.66-1.56 6.43 6.43 0 0 1-1.33-4.3v-.74a7.22 7.22 0 0 1 .61-3.07 4.58 4.58 0 0 1 1.76-2 5.48 5.48 0 0 1 6 .41 4.65 4.65 0 0 1 1.48 3.11h-2.45A2.54 2.54 0 0 0 61.9 99a2.45 2.45 0 0 0-1.71-.53 2.1 2.1 0 0 0-1.86.9 4.88 4.88 0 0 0-.64 2.76v.87a5.4 5.4 0 0 0 .59 2.86 2.1 2.1 0 0 0 1.88.91 2.46 2.46 0 0 0 1.72-.53 2.36 2.36 0 0 0 .65-1.63zm12.26-1.75a7.29 7.29 0 0 1-.63 3.13 4.77 4.77 0 0 1-1.8 2.08 5 5 0 0 1-2.7.73 5.05 5.05 0 0 1-2.68-.72 4.79 4.79 0 0 1-1.82-2.08 7.15 7.15 0 0 1-.66-3.08v-.6a7.4 7.4 0 0 1 .64-3.14 4.81 4.81 0 0 1 1.82-2.08 5.3 5.3 0 0 1 5.37 0 4.75 4.75 0 0 1 1.82 2.08 7.25 7.25 0 0 1 .64 3.14zm-2.52-.54a5.12 5.12 0 0 0-.68-2.89 2.21 2.21 0 0 0-1.94-1 2.24 2.24 0 0 0-1.94 1 5.09 5.09 0 0 0-.69 2.86v.58a5.2 5.2 0 0 0 .68 2.88 2.22 2.22 0 0 0 2 1 2.19 2.19 0 0 0 1.93-1 5 5 0 0 0 .68-2.86zm14.84 6.31h-2.49l-4.85-7.95v7.95h-2.49V96.55h2.49l4.86 8v-8h2.48zm11.95-10.06h-3.7v10.06h-2.49V98.57h-3.65v-2h9.84zm7.93 7.57h-4.37l-.83 2.49h-2.64l4.5-12.08h2.3l4.58 12.08h-2.7zm-3.69-2h3l-1.52-4.53zm11.63 4.49h-2.49V96.55h2.49zm12.82 0h-2.49l-4.85-7.95v7.95h-2.49V96.55h2.49l4.86 8v-8h2.48zm10.13-5.23h-4.79v3.23h5.62v2h-8.11V96.55h8.09v2h-5.6v2.88h4.79zm7.44.81h-2v4.42h-2.49V96.55h4.49a5.09 5.09 0 0 1 3.3 1 3.29 3.29 0 0 1 1.16 2.7 3.75 3.75 0 0 1-.53 2.06 3.7 3.7 0 0 1-1.63 1.32l2.62 4.94v.11h-2.67zm-2-2h2a2.11 2.11 0 0 0 1.45-.47 1.73 1.73 0 0 0 .51-1.32 1.86 1.86 0 0 0-.48-1.35 2.05 2.05 0 0 0-1.49-.48h-2z"/>
</svg>
