<svg xmlns="http://www.w3.org/2000/svg" width="200" height="128">
    <path fill="#cecece" d="M86.64 61.41l51.58-29.77-21.59-12.47-51.58 29.78 21.59 12.46z"/>
    <path fill="#777" d="M86.64 86.34l51.58-29.78V31.64L86.64 61.41v24.93z"/>
    <path fill="#bababa" d="M65.05 73.88l21.59 12.46V61.41L65.05 48.95v24.93zM91.37 80.91l1.49-.86V61.08l-1.49.87v18.96zM96.56 77.92l1.49-.86V58.09l-1.49.86v18.97zM101.74 74.93l1.49-.87V55.09l-1.49.87v18.97zM106.93 71.93l1.49-.86V52.1l-1.49.86v18.97zM112.11 68.94l1.5-.86V49.11l-1.5.86v18.97zM117.3 65.94l1.49-.86V46.11l-1.49.87v18.96zM122.48 62.95l1.5-.86V43.12l-1.5.86v18.97zM127.67 59.96l1.49-.87V40.13l-1.49.86v18.97zM132.85 56.96l1.5-.86V37.13l-1.5.86v18.97z"/>
    <path d="M65 104.61a4.25 4.25 0 01-1.44 3.07 5.05 5.05 0 01-3.42 1.12 4.56 4.56 0 01-3.66-1.56 6.43 6.43 0 01-1.33-4.3v-.74a7.22 7.22 0 01.61-3.07 4.58 4.58 0 011.76-2 5.48 5.48 0 016 .41 4.65 4.65 0 011.48 3.11h-2.45A2.54 2.54 0 0061.9 99a2.45 2.45 0 00-1.71-.53 2.1 2.1 0 00-1.86.9 4.88 4.88 0 00-.64 2.76v.87a5.4 5.4 0 00.59 2.86 2.1 2.1 0 001.88.91 2.46 2.46 0 001.72-.53 2.36 2.36 0 00.65-1.63zM77.26 102.86a7.29 7.29 0 01-.63 3.13 4.77 4.77 0 01-1.8 2.08 5 5 0 01-2.7.73 5.05 5.05 0 01-2.68-.72 4.79 4.79 0 01-1.82-2.08 7.15 7.15 0 01-.66-3.08v-.6a7.4 7.4 0 01.64-3.14 4.81 4.81 0 011.82-2.08 5.3 5.3 0 015.37 0 4.75 4.75 0 011.82 2.08 7.25 7.25 0 01.64 3.14zm-2.52-.54a5.12 5.12 0 00-.68-2.89 2.21 2.21 0 00-1.94-1 2.24 2.24 0 00-1.94 1 5.09 5.09 0 00-.69 2.86v.58a5.2 5.2 0 00.68 2.88 2.22 2.22 0 002 1 2.19 2.19 0 001.93-1 5 5 0 00.68-2.86zM89.58 108.63h-2.49l-4.85-7.95v7.95h-2.49V96.55h2.49l4.86 8v-8h2.48zM101.53 98.57h-3.7v10.06h-2.49V98.57h-3.65v-2h9.84zM109.46 106.14h-4.37l-.83 2.49h-2.64l4.5-12.08h2.3l4.58 12.08h-2.7zm-3.69-2h3l-1.52-4.53zM117.4 108.63h-2.49V96.55h2.49zM130.22 108.63h-2.49l-4.85-7.95v7.95h-2.49V96.55h2.49l4.86 8v-8h2.48zM140.35 103.4h-4.79v3.23h5.62v2h-8.11V96.55h8.09v2h-5.6v2.88h4.79zM147.79 104.21h-2v4.42h-2.49V96.55h4.49a5.09 5.09 0 013.3 1 3.29 3.29 0 011.16 2.7 3.75 3.75 0 01-.53 2.06 3.7 3.7 0 01-1.63 1.32l2.62 4.94v.11h-2.67zm-2-2h2a2.11 2.11 0 001.45-.47 1.73 1.73 0 00.51-1.32 1.86 1.86 0 00-.48-1.35 2.05 2.05 0 00-1.49-.48h-2z"/>
</svg>
