<svg xmlns="http://www.w3.org/2000/svg" width="200" height="128">
	<path d="M20.382 59.626a13.667 13.667 0 0 1 7.065-9.017 10.364 10.364 0 0 1 10.1.35 11.974 11.974 0 0 1 3.941 3.257c.992 1.3 2.2 2.421 3.112 3.781a13.231 13.231 0 0 1-1.11 15.776 13.5 13.5 0 0 1-7.89 4.694 18.122 18.122 0 0 1-2.01.073A10.873 10.873 0 0 1 27.3 76a36.581 36.581 0 0 1-4-4.424 12.25 12.25 0 0 1-3.261-7.49 18.1 18.1 0 0 1-.008-2.116 13.714 13.714 0 0 1 .351-2.344zm5.582 14.005c-.061-.066-.1-.218-.221-.062l.22.063a.749.749 0 0 0 .146.555 10.816 10.816 0 0 0 7.356 3.834 10.373 10.373 0 0 0 6.928-2.121 12.832 12.832 0 0 0 4.994-15.246 9.525 9.525 0 0 0-8.043-6.585 10.512 10.512 0 0 0-9.137 3.153A8.624 8.624 0 0 0 27 67.558a3.054 3.054 0 0 0 1.3 1.162c.428.2.624.065.515-.36a6.652 6.652 0 0 1 0-2.581 8.709 8.709 0 0 1 6.121-7.126A4.76 4.76 0 0 1 40.507 61c1.67 3.564.913 8.464-2.239 10.955-3.268 2.584-6.712 3.633-10.738 2.283-.53-.178-1.045-.404-1.566-.607zM41 54.549a2.022 2.022 0 0 0-.142-.283 10.236 10.236 0 0 0-3.212-2.682A10.3 10.3 0 0 0 24.9 52.961a13.218 13.218 0 0 0-3.97 13.31 10.327 10.327 0 0 0 18.252 4 8.618 8.618 0 0 0 .474-9.661 3.042 3.042 0 0 0-1.775-1.3 9.409 9.409 0 0 1-5.318 9.746c-2.589 1.217-5.124.551-6.349-1.77a8.818 8.818 0 0 1-.811-5.826c.912-4.949 5.665-7.756 9.868-7.982A12.961 12.961 0 0 1 41 54.549zm-3.545 6.51c.045-2.078-.1-2.208-1.829-1.991a3.923 3.923 0 0 0-.659.12 8.2 8.2 0 0 0-5.759 7.712c-.027 2.385.643 2.862 2.836 1.822 3.345-1.584 5.256-4.211 5.411-7.663z" fill="#0a78af"/>
	<path d="M41 54.549a12.961 12.961 0 0 0-5.73-1.07c-4.2.226-8.956 3.033-9.868 7.982a8.818 8.818 0 0 0 .811 5.826c1.225 2.321 3.76 2.987 6.349 1.77a9.409 9.409 0 0 0 5.318-9.746 3.042 3.042 0 0 1 1.775 1.3 8.618 8.618 0 0 1-.474 9.661 10.327 10.327 0 0 1-18.252-4 13.218 13.218 0 0 1 3.97-13.31 10.3 10.3 0 0 1 12.747-1.377 10.236 10.236 0 0 1 3.212 2.682 2.022 2.022 0 0 1 .142.282z" fill="#36d1f9"/>
	<path d="M25.964 73.631c.521.2 1.036.429 1.566.607 4.026 1.35 7.473.3 10.738-2.279 3.152-2.491 3.909-7.391 2.239-10.959a4.76 4.76 0 0 0-5.564-2.351 8.709 8.709 0 0 0-6.121 7.126 6.652 6.652 0 0 0 0 2.581c.109.425-.087.564-.515.36A3.054 3.054 0 0 1 27 67.558a8.624 8.624 0 0 1 1.211-10.333 10.512 10.512 0 0 1 9.137-3.153 9.525 9.525 0 0 1 8.043 6.585A12.832 12.832 0 0 1 40.393 75.9a10.373 10.373 0 0 1-6.928 2.118 10.816 10.816 0 0 1-7.356-3.834.749.749 0 0 1-.146-.555z" fill="#0084c3"/>
	<path d="m25.963 73.632-.22-.063c.124-.156.16 0 .221.062z" fill="#0084c3"/>
	<path d="M115.776 63.712c0 2.927 0 5.853.007 8.78 0 .284-.048.386-.361.378-.906-.024-1.814-.014-2.72-.005a.459.459 0 0 1-.435-.211q-4.095-5.749-8.2-11.493c-.322-.452-.595-.938-.9-1.406-.057-.089-.094-.252-.226-.212s-.069.2-.069.3v12.581c0 .513.049.429-.419.432-.855 0-1.711-.015-2.565.01-.316.009-.364-.1-.363-.382.01-2.823.006-5.647.006-8.47v-9.058c0-.47-.043-.4.418-.4h2.69a.434.434 0 0 1 .407.2q4.062 5.677 8.13 11.351c.347.485.635 1.011.955 1.515.056.088.084.248.228.21s.078-.193.078-.292q.006-6.306 0-12.613c0-.287.052-.389.364-.381.886.024 1.772.019 2.658 0 .259-.005.323.066.322.323-.008 2.949-.005 5.896-.005 8.843zm25.347.022a9.545 9.545 0 1 1 9.534 9.533 9.567 9.567 0 0 1-9.534-9.533zm3.513-.184a7.078 7.078 0 0 0 1 3.825 5.767 5.767 0 0 0 9.5.784 6.988 6.988 0 0 0-.366-9.221 5.646 5.646 0 0 0-8.175-.023 6.681 6.681 0 0 0-1.959 4.635zm-69.403.163a9.549 9.549 0 1 1 9.546 9.554 9.573 9.573 0 0 1-9.546-9.554zm9.183 6.587a5.905 5.905 0 0 0 4.015-1.332 6.927 6.927 0 0 0 .261-10.216 5.641 5.641 0 0 0-7.8-.02 6.954 6.954 0 0 0-1.492 7.979 5.827 5.827 0 0 0 5.016 3.589zM179.3 54.555l-1.588 2.239q-2.172 3.06-4.349 6.116a.374.374 0 0 0 0 .525q3.255 4.564 6.493 9.14c.053.074.1.153.149.229-.065.1-.155.055-.229.055-1.174 0-2.349 0-3.523.007a.43.43 0 0 1-.405-.2c-1.5-2.162-3.125-4.244-4.492-6.5-.18-.3-.228-.3-.41.006-1.366 2.259-2.985 4.343-4.5 6.5a.351.351 0 0 1-.314.2c-1.267-.008-2.534 0-3.8 0-.044-.146.073-.214.132-.3q3.212-4.537 6.438-9.064a.472.472 0 0 0-.007-.661q-2.834-3.972-5.641-7.963a.676.676 0 0 1-.173-.321h.707c1.009 0 2.019.005 3.028-.005a.454.454 0 0 1 .429.223c1.256 1.809 2.586 3.567 3.709 5.467.162.275.231.274.393 0 1.131-1.906 2.462-3.676 3.731-5.489a.355.355 0 0 1 .315-.2c1.274-.001 2.55-.004 3.907-.004zM64.2 73.267a9.53 9.53 0 1 1 7.358-15.61c.15.184.135.262-.047.4-.738.561-1.47 1.13-2.188 1.715-.192.157-.261.11-.392-.066a5.756 5.756 0 0 0-9.92.756 6.643 6.643 0 0 0 .566 7.473 5.693 5.693 0 0 0 9.3-.072c.191-.258.3-.264.537-.079a81.473 81.473 0 0 0 2.161 1.6c.173.124.17.2.041.355a9.566 9.566 0 0 1-5.7 3.375 13.247 13.247 0 0 1-1.716.153zm74.024-18.712c-.266.737-.518 1.441-.773 2.144L134 66.208q-1.158 3.189-2.312 6.379a.349.349 0 0 1-.389.281 186.406 186.406 0 0 0-3.739 0 .3.3 0 0 1-.349-.239q-2.737-7.767-5.493-15.527c-.274-.775-.542-1.552-.826-2.324-.07-.192-.02-.225.163-.224q1.561.009 3.121 0c.17 0 .224.072.275.218q1.1 3.144 2.211 6.284 1.027 2.924 2.051 5.85c.216.621.405 1.252.609 1.877.024.073.015.186.12.192.127.006.126-.122.151-.2.647-2.05 1.418-4.056 2.146-6.077q1.419-3.948 2.857-7.888c.043-.117.062-.255.255-.254 1.111.003 2.222-.001 3.373-.001z"/>
</svg>
