<svg xmlns="http://www.w3.org/2000/svg" width="200" height="128">
	<path fill="#6f7273" d="M84.61 70.52a6 6 0 1 1 6-6 6 6 0 0 1-6 6m0-16.13a10.07 10.07 0 1 0 7.19 3 10.07 10.07 0 0 0-7.19-3m29.71.28h-2.7a.69.69 0 0 0-.67.64v8.92a.68.68 0 0 1-.67.69.69.69 0 0 1-.47-.18l-1-.9-9.49-8.94a.68.68 0 0 0-1.16.47V73.7a.68.68 0 0 0 .67.68h2.72a.69.69 0 0 0 .67-.64V64.6a.69.69 0 0 1 .67-.68.65.65 0 0 1 .49.21l5.82 5.67 4.41 4.34a.84.84 0 0 0 1.19-.08.81.81 0 0 0 .21-.55V55.34a.67.67 0 0 0-.67-.67m21.53 0h-3a.66.66 0 0 0-.6.39l-1.87 4.13-2.47 5.46a.67.67 0 0 1-1.24 0l-2.47-5.48c-1-2.14-1.86-4.11-1.87-4.13a.68.68 0 0 0-.61-.39h-3a.67.67 0 0 0-.67.68.66.66 0 0 0 .06.27l1.65 3.57L126.66 74a.67.67 0 0 0 .9.33.64.64 0 0 0 .32-.33l6.93-14.84 1.65-3.57a.68.68 0 0 0-.34-.9.86.86 0 0 0-.27-.05m28.56 0h-3a.66.66 0 0 0-.6.39l-1.87 4.13-2.47 5.46a.68.68 0 0 1-.89.35.7.7 0 0 1-.35-.35l-2.48-5.48-1.86-4.14a.7.7 0 0 0-.61-.4h-3a.69.69 0 0 0-.68.69.66.66 0 0 0 .06.27l1.65 3.57L155.2 74a.68.68 0 0 0 .9.33.66.66 0 0 0 .33-.33l6.93-14.84 1.64-3.58a.69.69 0 0 0-.34-.9 1.27 1.27 0 0 0-.28-.06m-21.47 19.69a.67.67 0 0 0 .66-.67V55.28a.66.66 0 0 0-.66-.67h-2.74a.67.67 0 0 0-.67.67v18.36a.67.67 0 0 0 .67.67h2.74m29.37-6.43h-3a.68.68 0 0 1-.67-.68.71.71 0 0 1 .06-.28l1.5-3.29a.68.68 0 0 1 .9-.33.7.7 0 0 1 .33.33l1.53 3.28a.68.68 0 0 1-.32.9.73.73 0 0 1-.3.06m7.69 5.46-.59-1.28L171.43 55a.68.68 0 0 0-.91-.32.71.71 0 0 0-.32.32l-7.95 17.07-.62 1.32a.66.66 0 0 0 .29.9.72.72 0 0 0 .32.08h2.55c.51 0 .63-.14.81-.55l.79-1.75.14-.3a.66.66 0 0 1 .61-.4h7.28a.69.69 0 0 1 .61.39l.14.31.83 1.73c.18.41.31.55.81.55h2.55a.68.68 0 0 0 .68-.68.6.6 0 0 0-.07-.3m-119.16-9a6.2 6.2 0 0 1 1.64-4.25 5.62 5.62 0 0 1 4.12-1.79 5.94 5.94 0 0 1 3.71 1.3.69.69 0 0 0 .91-.07l1.68-1.75a.67.67 0 0 0 0-.94 9.2 9.2 0 0 0-6.37-2.31 9.94 9.94 0 0 0-10 9.85v.17a9.93 9.93 0 0 0 10 9.84 9.15 9.15 0 0 0 6.37-2.31.67.67 0 0 0 .1-.94l-1.68-1.74a.69.69 0 0 0-.91-.07 5.93 5.93 0 0 1-3.71 1.29 5.53 5.53 0 0 1-4.12-1.79 6.18 6.18 0 0 1-1.64-4.24z"/>
	<path fill="#6f7273" d="M38.48 60.86a.86.86 0 0 1 .31-1.17l4.34-2.5a.45.45 0 0 0 .17-.62.49.49 0 0 0-.17-.18l-8.61-5a.92.92 0 0 0-.91 0l-8.62 5a.46.46 0 0 0-.16.63.44.44 0 0 0 .16.17l4.34 2.5a.86.86 0 0 1 .32 1.17.86.86 0 0 1-1.18.31l-6.25-3.6a.91.91 0 0 1-.33-1.24.9.9 0 0 1 .33-.34l11.39-6.57a.92.92 0 0 1 .91 0L45.91 56a.91.91 0 0 1 .33 1.24.9.9 0 0 1-.33.34l-6.25 3.6a.85.85 0 0 1-1.17-.31z"/>
	<path fill="#85c300" d="m43.3 69.73-7.89-4.55a.91.91 0 0 1-.45-.79v-9.12a.9.9 0 0 1 .91-.9.89.89 0 0 1 .45.12l2.88 1.66a.86.86 0 0 1 .32 1.18.85.85 0 0 1-1.17.31l-1-.56a.45.45 0 0 0-.62.16.46.46 0 0 0-.06.23v5.91a.93.93 0 0 0 .45.79L43 67.52V65.6a.86.86 0 0 1 .86-.86.87.87 0 0 1 .86.86v3.33a.9.9 0 0 1-1.37.8z"/>
	<path fill="#6f7273" d="M35 79.61v-7.22a.86.86 0 0 1 .86-.85.86.86 0 0 1 .86.86v5a.45.45 0 0 0 .45.45.46.46 0 0 0 .23-.06l8.62-5a.94.94 0 0 0 .46-.79V62a.46.46 0 0 0-.69-.4l-4.38 2.6a.85.85 0 0 1-1.17-.3.86.86 0 0 1 .31-1.18l6.25-3.61a.9.9 0 0 1 1.24.34.87.87 0 0 1 .12.45V73a.88.88 0 0 1-.45.79l-11.39 6.6a.91.91 0 0 1-1.24-.33.89.89 0 0 1-.08-.45z"/>
	<path fill="#85c300" d="M23.47 69v-3.38a.87.87 0 0 1 .87-.87.87.87 0 0 1 .85.87v1.92L31 64.18a.9.9 0 0 0 .45-.79v-5.92A.44.44 0 0 0 31 57a.41.41 0 0 0-.24.06l-1 .56a.86.86 0 0 1-1.18-.31.87.87 0 0 1 .32-1.18l2.88-1.66a.91.91 0 0 1 1.25.3.9.9 0 0 1 .14.48v9.15a.94.94 0 0 1-.46.79l-7.89 4.55a.91.91 0 0 1-1.25-.3 1 1 0 0 1-.14-.49z"/>
	<path fill="#6f7273" d="m31.82 80.39-11.37-6.57A.9.9 0 0 1 20 73V59.89a.91.91 0 0 1 .91-.91.89.89 0 0 1 .45.12l6.23 3.61a.86.86 0 0 1 .32 1.18.86.86 0 0 1-1.18.31l-4.34-2.51a.46.46 0 0 0-.68.4v10a.91.91 0 0 0 .45.79l8.62 5a.45.45 0 0 0 .62-.16.46.46 0 0 0 .06-.23v-5a.86.86 0 0 1 .86-.86.85.85 0 0 1 .88.84v7.22a.93.93 0 0 1-.91.92.9.9 0 0 1-.48-.14z"/>
	<path fill="#85c300" d="M38.36 74.2a.86.86 0 0 1 .31-1.2l1-.57a.45.45 0 0 0 .16-.62.41.41 0 0 0-.16-.16l-5.13-3a.92.92 0 0 0-.91 0l-5.13 3a.45.45 0 0 0-.18.61.42.42 0 0 0 .18.17l1 .57a.85.85 0 0 1 .31 1.17.86.86 0 0 1-1.18.31l-2.88-1.67a.91.91 0 0 1-.33-1.24.87.87 0 0 1 .33-.33l7.9-4.56a.92.92 0 0 1 .91 0l7.89 4.56a.9.9 0 0 1 0 1.57l-2.89 1.67a.85.85 0 0 1-1.17-.31z"/>
</svg>
