<svg xmlns="http://www.w3.org/2000/svg" viewBox="-19.84 -19.84 1031.68 488.68">
	<path fill="#ee252c" d="M252.123 293.167c-18.552 0-35.471-7.153-47.641-20.142-11.996-12.801-18.603-30.383-18.603-49.504 0-19.123 6.607-36.705 18.603-49.507 12.17-12.99 29.09-20.145 47.641-20.145 19.428 0 36.688 6.992 51.352 20.794l17.226-18.798c-13.234-12.862-35.47-27.306-68.578-27.306-24.354 0-46.861 8.492-63.973 23.998L164.913 261.33c4.539 11.004 11.088 21.034 19.485 29.567 17.5 17.79 41.552 27.586 67.725 27.586 33.11 0 55.345-14.445 68.578-27.31l-17.226-18.793c-14.66 13.797-31.923 20.788-51.352 20.788"/>
	<path fill="#a6a9a7" d="M218.599 75.69c0 6.988-5.666 12.651-12.653 12.651-6.988 0-12.652-5.663-12.652-12.651 0-6.99 5.664-12.653 12.652-12.653 6.987 0 12.653 5.664 12.653 12.653m-52.475 237.246c0 6.986-5.665 12.653-12.653 12.653s-12.652-5.667-12.652-12.653c0-6.99 5.664-12.655 12.652-12.655 6.988 0 12.653 5.666 12.653 12.655m133.285 123.678c0 6.988-5.664 12.653-12.652 12.653-6.988 0-12.653-5.665-12.653-12.653 0-6.99 5.665-12.653 12.653-12.653s12.652 5.664 12.652 12.653m104.95-368.772c0 6.986-5.665 12.653-12.653 12.653s-12.651-5.667-12.651-12.653c0-6.99 5.663-12.653 12.651-12.653 6.988 0 12.653 5.664 12.653 12.653M166.124 12.66c0 6.986-5.665 12.653-12.653 12.653s-12.652-5.667-12.652-12.653c0-6.99 5.664-12.653 12.652-12.653 6.988 0 12.653 5.663 12.653 12.653M25.304 156.118c0 6.988-5.664 12.653-12.652 12.653C5.664 168.771 0 163.106 0 156.118s5.664-12.653 12.652-12.653c6.988 0 12.653 5.666 12.653 12.653m52.602 224.956c0 6.987-5.664 12.652-12.652 12.652-6.988 0-12.652-5.665-12.652-12.652 0-6.989 5.664-12.653 12.652-12.653 6.988 0 12.652 5.664 12.652 12.653"/>
	<path fill="#a6a9a7" d="M205.126 76.372 152.65 13.343l1.641-1.365 52.475 63.028-1.641 1.366"/>
	<path fill="#a6a9a7" d="m13.415 156.866-1.524-1.494L152.71 11.912l1.523 1.497L13.415 156.866"/>
	<path fill="#a6a9a7" d="M152.676 313.65 11.858 156.831l1.59-1.426 140.817 156.816-1.589 1.427"/>
	<path fill="#a6a9a7" d="m65.907 381.92-1.306-1.691 88.218-68.137 1.305 1.688-88.217 68.14m-1.69-13.243-52.6-212.301 2.074-.514L66.29 368.164l-2.073.513"/>
	<path fill="#a6a9a7" d="m154.513 313.165-2.085-.46L204.903 75.46l2.085.46-52.475 237.246"/>
	<path fill="#a6a9a7" d="M286.03 437.396 152.744 313.718l1.453-1.565L287.483 435.83l-1.453 1.566"/>
	<path fill="#a6a9a7" d="M286.497 437.65 64.995 382.11l.519-2.07 221.501 55.539-.518 2.072M205.99 76.755l-.09-2.133 185.76-7.847.09 2.134-185.76 7.846"/>
	<path fill="#a6a9a7" d="M391.465 68.883 153.23 13.702l.481-2.083 238.236 55.183-.483 2.081m-378.396 88.22-.832-1.967 189.986-80.429.832 1.967-189.986 80.428"/>
	<path fill="#ee252c" d="M445.509 293.167c-39.042 0-67.377-29.29-67.377-69.646 0-40.358 28.335-69.652 67.377-69.652 38.822 0 67 29.294 67 69.652 0 40.356-28.178 69.646-67 69.646zm0-164.608c-54.568 0-95.718 40.824-95.718 94.962 0 54.136 41.15 94.961 95.718 94.961 26.363 0 50.604-9.8 68.253-27.592 17.466-17.61 27.087-41.535 27.087-67.37 0-25.836-9.62-49.762-27.087-67.37-17.65-17.791-41.888-27.591-68.253-27.591m223.278 28.34c5.624 0 10.819.51 15.493 1.522v-27.99c-3.345-.484-6.957-.736-10.574-.736-20.73 0-37.603 7.817-50.15 23.234l-4.74 5.824v-27.165H591.61v183.865h27.204V188.9l.228-.514c8.85-20.012 26.98-31.488 49.744-31.488m67.353 48.86.83-3.318c7.49-29.966 31.23-49.328 60.486-49.328 32.103-.402 55.744 19.045 60.161 49.593l.442 3.052zm126.841-50.682c-15.79-17.348-37.792-26.517-63.632-26.517-51.765 0-92.313 41.712-92.313 94.962 0 25.844 9.538 49.772 26.858 67.375 17.5 17.79 41.552 27.586 67.725 27.586 28.076 0 54.3-10.194 72.38-28.048l-17.251-18.819c-9.504 8.836-27.914 21.552-55.13 21.552-35.14 0-62.994-25.846-66.23-61.459l-.265-2.911h153.821c-.985-30.672-9.937-56.118-25.963-73.721m129.392-20.956c0 23.442-19.004 42.446-42.447 42.446s-42.447-19.004-42.447-42.446c0-23.443 19.004-42.447 42.447-42.447s42.447 19.004 42.447 42.447"/>
	<path fill="#fff" d="M922.778 142.783c-.27.389-.47.837-.598 1.341h13.547a2142.471 2142.471 0 0 1-.677 3.12h-16.16v-2.032c.015-.373.052-.736.107-1.088.185-1.168.59-2.21 1.216-3.116.95-1.373 2.033-1.888 3.676-2.665.764-.363 1.717-.814 2.932-1.476 2.674-1.456 3.792-2.09 4.573-3.179.812-1.128 1.225-2.569 1.228-4.282v-.016a5.314 5.314 0 0 0-5.308-5.29 5.313 5.313 0 0 0-4.96 3.427l-2.917-1.104c1.205-3.177 4.283-5.441 7.877-5.441 2.01 0 3.859.707 5.308 1.886a8.41 8.41 0 0 1 3.117 6.452c.002.022.002.043.002.064v.022c-.004 2.38-.614 4.432-1.815 6.1-1.228 1.711-2.879 2.61-5.613 4.1a58.04 58.04 0 0 1-3.088 1.554c-1.532.727-1.99.965-2.447 1.623"/>
	<path fill="#fff" d="M946.468 125.631a122299.041 122299.041 0 0 0-7.827 9.872h7.827zm6.588 9.873-.677 3.119h-2.792v8.636h-3.119v-8.638H935.24v-3.118c3.74-4.719 7.484-9.439 11.225-14.16h3.119l-.007.012h.01v14.15h3.47m27.906-14.154c-1.04 2.393-2.08 4.784-3.118 7.176l-8.14 18.73h-3.119l9.904-22.787h-9.165c-.227-1.039-.452-2.08-.677-3.119h14.315m-18.786.036c-2.516 5.79-8.825 20.08-11.341 25.869h3.118c2.516-5.788 8.826-20.078 11.342-25.869h-3.119"/>
</svg>
