<svg xmlns="http://www.w3.org/2000/svg" xmlns:xlink="http://www.w3.org/1999/xlink" width="200" height="128">
	<defs>
		<linearGradient id="a" x1="1414.324" y1="-3755.869" x2="1454.25" y2="-3755.869" gradientTransform="rotate(-45 5343.08 -167.75)" gradientUnits="userSpaceOnUse">
			<stop offset="0" stop-color="#623392"/>
			<stop offset=".589" stop-color="#432c7d"/>
			<stop offset="1" stop-color="#2b266d"/>
		</linearGradient>
		<linearGradient id="c" x1="1414.324" y1="-3750.447" x2="1454.25" y2="-3750.447" xlink:href="#a"/>
		<linearGradient id="b" x1="1414.324" y1="-3758.027" x2="1454.25" y2="-3758.027" gradientTransform="rotate(-45 5343.08 -167.75)" gradientUnits="userSpaceOnUse">
			<stop offset="0" stop-color="#754f9f"/>
			<stop offset=".205" stop-color="#6d4b9a"/>
			<stop offset=".517" stop-color="#583f8b"/>
			<stop offset=".896" stop-color="#362c74"/>
			<stop offset="1" stop-color="#2b266d"/>
		</linearGradient>
		<linearGradient id="d" x1="1414.324" y1="-3739.056" x2="1454.25" y2="-3739.056" xlink:href="#b"/>
		<linearGradient id="e" x1="1414.324" y1="-3748.466" x2="1454.25" y2="-3748.466" xlink:href="#a"/>
		<linearGradient id="f" x1="1410.539" y1="-3748.466" x2="1458.489" y2="-3748.466" xlink:href="#b"/>
		<linearGradient id="g" x1="1410.539" y1="-3743.563" x2="1458.489" y2="-3743.563" xlink:href="#a"/>
		<linearGradient id="h" x1="1410.539" y1="-3746.302" x2="1458.489" y2="-3746.302" xlink:href="#a"/>
		<linearGradient id="i" x1="1410.539" y1="-3753.237" x2="1458.489" y2="-3753.237" xlink:href="#a"/>
	</defs>
	<path d="M94.462 58.778a8.23 8.23 0 0 1 5.836 2.234.3.3 0 0 1 .025.432l-.385.408c-.144.145-.264.121-.408-.023a7.539 7.539 0 1 0-5.068 13.162 7.611 7.611 0 0 0 5.068-2.018.3.3 0 0 1 .384-.048l.409.409a.276.276 0 0 1 0 .408 8.3 8.3 0 0 1-5.861 2.33 8.647 8.647 0 1 1 0-17.294zm12.875 7.206A5.049 5.049 0 1 1 102.509 71a4.933 4.933 0 0 1 4.828-5.016zm0 9.1a4.055 4.055 0 1 0-3.8-4.083 3.9 3.9 0 0 0 3.8 4.086zm7.763-8.548a.318.318 0 0 1 .313-.312h.288a.286.286 0 0 1 .288.264l.1.985a3.685 3.685 0 0 1 3-1.489 3.987 3.987 0 0 1 1.49.288c.216.072.336.24.264.432l-.193.481c-.071.168-.216.192-.384.12a3.054 3.054 0 0 0-1.248-.288 3.376 3.376 0 0 0-2.859 1.657v6.846a.279.279 0 0 1-.312.312h-.48a.279.279 0 0 1-.265-.312zm11.742-.552a4.227 4.227 0 0 1 4.348 4.4c0 .385 0 .937-.361.937h-7.662a3.793 3.793 0 0 0 3.747 3.8 5.128 5.128 0 0 0 2.834-.888c.216-.145.312-.169.433 0l.24.336c.072.1.048.24-.1.384a5.814 5.814 0 0 1-3.483 1.129c-2.93 0-4.732-2.258-4.732-5.068a4.708 4.708 0 0 1 4.736-5.03zm3.291 4.467a3.233 3.233 0 0 0-3.291-3.507 3.575 3.575 0 0 0-3.651 3.507z" fill="#434343"/>
	<path d="M134.361 59.331a.314.314 0 0 1 .288-.313h5.092a8.407 8.407 0 1 1 0 16.814h-5.092a.314.314 0 0 1-.288-.312zm5.188 15.469a7.374 7.374 0 1 0 0-14.748h-4.059V74.8zm12.539-15.71a.33.33 0 0 1 .36-.312h.409l11.529 15.012h.024V59.331a.318.318 0 0 1 .312-.313h.481a.318.318 0 0 1 .312.313V75.76c0 .216-.192.312-.384.312h-.313c-.023 0-.216-.072-11.625-15.156h-.024v14.6a.318.318 0 0 1-.312.312h-.457a.318.318 0 0 1-.312-.312zM169.6 73.6l.216-.288c.168-.192.336-.265.528-.1a6.991 6.991 0 0 0 4.444 1.849c2.186 0 4.035-1.465 4.035-3.218 0-2.138-1.753-3.1-4.66-4.084-2.786-.985-4.635-1.969-4.635-4.732 0-1.8 1.441-4.251 5.188-4.251A7.885 7.885 0 0 1 178.847 60a.344.344 0 0 1 .1.5 2.257 2.257 0 0 0-.192.313.345.345 0 0 1-.528.12 7.048 7.048 0 0 0-3.531-1.129c-2.955 0-4.06 1.825-4.06 3.194 0 2.042 1.562 2.931 3.988 3.723 3.291 1.13 5.38 2.282 5.38 5.069 0 2.4-2.474 4.275-5.236 4.275a7.816 7.816 0 0 1-5.092-1.97c-.148-.113-.269-.233-.076-.495z" fill="#999"/>
	<path d="M35.616 65.176a5.4 5.4 0 0 0-.959 1.3 5.4 5.4 0 0 1 .959-1.3z" fill="url(#a)"/>
	<path d="M51.828 53.7a2.862 2.862 0 0 1 2.031.84l1.666 1.666-1.666-1.666a2.862 2.862 0 0 0-2.031-.84z" fill="url(#c)"/>
	<path d="M35.609 55.708a4.733 4.733 0 0 1 6.692 0l1.392 1.392 4.329-4.329a5.388 5.388 0 0 1 7.611 0l1.667 1.664 4.165-4.165-9.072-9.07a6.739 6.739 0 0 0-9.5 0L24.161 59.929a6.741 6.741 0 0 0-.993 8.22l.058-.058z" fill="url(#b)"/>
	<path d="M60.061 72.007a4.734 4.734 0 0 1-6.694 0l-1.649-1.65-5.46 5.461a5.389 5.389 0 0 1-7.611 0l-1.407-1.407-4.05 4.05 8.34 8.339a6.739 6.739 0 0 0 9.5 0l18.73-18.729a6.743 6.743 0 0 0 1.482-7.247l-.608.607z" fill="url(#d)"/>
	<path d="M44.484 74.044a2.856 2.856 0 0 1-.95.63 2.877 2.877 0 0 1-3.114-.63l-1.407-1.407-1.624-1.624a2.874 2.874 0 0 1 0-4.063l8.076-8.076 4.33-4.33a2.857 2.857 0 0 1 1.483-.788 2.977 2.977 0 0 1 .549-.053 2.862 2.862 0 0 1 2.031.84l1.666 1.666 1.776-1.774-1.667-1.665a5.388 5.388 0 0 0-7.611 0l-4.329 4.33-8.077 8.076a5.4 5.4 0 0 0-.959 1.3 5.154 5.154 0 0 0-.221.478 5.406 5.406 0 0 0 .221 4.529 5.337 5.337 0 0 0 .959 1.3l1.624 1.624 1.407 1.407a5.389 5.389 0 0 0 7.611 0l5.46-5.461-1.774-1.773z" fill="#fff"/>
	<path d="m70.636 61.431.608-.607a6.625 6.625 0 0 0-.9-1.577c.131.724.23 1.453.292 2.184z" fill="#2b266d"/>
	<path d="m23.226 68.091-.058.058c.038.063.071.127.111.189-.017-.083-.037-.164-.053-.247z" fill="#5a2d81"/>
	<path d="m49.894 61.84 5.631-5.631-1.666-1.666a2.862 2.862 0 0 0-2.031-.84 2.977 2.977 0 0 0-.549.053 2.857 2.857 0 0 0-1.483.788l-4.33 4.33.309.309a4.732 4.732 0 0 1 0 6.692l-6.762 6.762 1.407 1.407a2.874 2.874 0 0 0 4.064 0l5.46-5.46-.05-.051a4.733 4.733 0 0 1 0-6.693z" fill="url(#e)"/>
	<path d="m49.894 61.84 5.631-5.631-1.666-1.666a2.862 2.862 0 0 0-2.031-.84 2.977 2.977 0 0 0-.549.053 2.857 2.857 0 0 0-1.483.788l-4.33 4.33.309.309a4.732 4.732 0 0 1 0 6.692l-6.762 6.762 1.407 1.407a2.874 2.874 0 0 0 4.064 0l5.46-5.46-.05-.051a4.733 4.733 0 0 1 0-6.693z" fill="url(#f)"/>
	<path d="M44.484 74.044a2.856 2.856 0 0 1-.95.63 2.856 2.856 0 0 0 .95-.63z" fill="#fff"/>
	<path d="M44.484 74.044a2.856 2.856 0 0 1-.95.63 2.856 2.856 0 0 0 .95-.63z" fill="url(#g)"/>
	<path d="m39.013 72.637 1.407 1.407a2.862 2.862 0 0 0 2.032.841 2.862 2.862 0 0 1-2.032-.841z" fill="#fff"/>
	<path d="m39.013 72.637 1.407 1.407a2.862 2.862 0 0 0 2.032.841 2.862 2.862 0 0 1-2.032-.841z" fill="url(#h)"/>
	<path d="M49.8 54.544a2.857 2.857 0 0 1 1.483-.788 2.857 2.857 0 0 0-1.483.788z" fill="#fff"/>
	<path d="M49.8 54.544a2.857 2.857 0 0 1 1.483-.788 2.857 2.857 0 0 0-1.483.788z" fill="url(#i)"/>
	<path d="M24.161 69.432a6.692 6.692 0 0 1-.882-1.094c-.04-.062-.073-.126-.111-.189l-1.782 1.782a4.732 4.732 0 0 0 0 6.692l3.475 3.477a4.734 4.734 0 0 0 6.692 0l1.108-1.109.4-.4.133-.132z" fill="#2b266d"/>
	<path d="M35.616 72.787a5.337 5.337 0 0 1-.959-1.3 5.406 5.406 0 0 1-.221-4.529 5.154 5.154 0 0 1 .221-.478 5.4 5.4 0 0 1 .959-1.3l8.077-8.08-1.393-1.392a4.733 4.733 0 0 0-6.692 0L23.226 68.091c.016.083.036.164.053.247a6.692 6.692 0 0 0 .882 1.094l9.029 9.029 4.05-4.05z" fill="#5a2d81"/>
	<path d="M34.436 66.956a5.406 5.406 0 0 0 .221 4.529 5.406 5.406 0 0 1-.221-4.529zm4.577 5.681 6.762-6.762a4.732 4.732 0 0 0 0-6.692l-.309-.309-8.076 8.076a2.856 2.856 0 0 0-.63.95 2.877 2.877 0 0 0 .629 3.113z" fill="#5a2d81"/>
	<path d="M37.389 71.013a2.862 2.862 0 0 1-.84-2.031 2.862 2.862 0 0 0 .84 2.031l1.624 1.624zm.001-4.063a2.856 2.856 0 0 0-.63.95 2.856 2.856 0 0 1 .63-.95z" fill="#5a2d81"/>
	<path d="m55.525 56.209-5.631 5.631a4.733 4.733 0 0 0 0 6.693l.05.051 6.946-6.946a2.857 2.857 0 0 0 .788-1.483 2.892 2.892 0 0 0 .052-.549 2.856 2.856 0 0 0-.84-2.032z" fill="#2b266d"/>
	<path d="M56.89 61.638a2.857 2.857 0 0 0 .788-1.483 2.857 2.857 0 0 1-.788 1.483z" fill="#2b266d"/>
	<path d="M56.89 57.574a2.856 2.856 0 0 1 .84 2.032 2.856 2.856 0 0 0-.84-2.032l-1.365-1.365zm1.773 5.838a5.361 5.361 0 0 0 1.181-1.779 5.351 5.351 0 0 1-1.181 1.779z" fill="#623392"/>
	<path d="M59.844 61.633c.065-.162.123-.327.172-.494a5.384 5.384 0 0 0-1.352-5.339L57.3 54.435l-1.774 1.774 1.365 1.365a2.856 2.856 0 0 1 .84 2.032 2.892 2.892 0 0 1-.052.549 2.857 2.857 0 0 1-.788 1.483l-6.946 6.946 1.774 1.773 6.945-6.945a5.351 5.351 0 0 0 1.18-1.779zm14.438-10.541-3.474-3.474a4.733 4.733 0 0 0-6.35-.309q-.177.145-.342.31l-2.243 2.242-.4.4-.013.013 8.3 8.3a6.763 6.763 0 0 1 .584.679 6.625 6.625 0 0 1 .9 1.577l3.038-3.039a4.732 4.732 0 0 0 0-6.699z" fill="#623392"/>
	<path d="M58.664 55.8a5.384 5.384 0 0 1 1.352 5.338 5.447 5.447 0 0 1-.172.494 5.361 5.361 0 0 1-1.181 1.779l-6.945 6.945 1.649 1.65a4.734 4.734 0 0 0 6.694 0l10.575-10.575a24.04 24.04 0 0 0-.29-2.184 6.763 6.763 0 0 0-.584-.679l-8.3-8.3-4.162 4.167z" fill="#2b266d"/>
	<path d="M58.664 55.8a5.384 5.384 0 0 1 1.352 5.338 5.384 5.384 0 0 0-1.352-5.338L57.3 54.435z" fill="#2b266d"/>
</svg>
