<svg width="131" height="41" fill="none" xmlns="http://www.w3.org/2000/svg">
	<path d="M67.237 15.56v2.096c0 .364-.41.57-.707.357-1.019-.728-2.193-1.1-3.509-1.1-1.278 0-2.339.409-3.182 1.224-.844.816-1.251 1.85-1.251 3.074 0 1.224.408 2.257 1.25 3.074.844.816 1.905 1.224 3.183 1.224 1.331 0 2.505-.368 3.507-1.09a.445.445 0 0 1 .71.357v2.089c0 .14-.064.274-.175.357-1.116.834-2.527 1.251-4.232 1.251-2.122 0-3.89-.68-5.331-2.067-1.442-1.387-2.15-3.1-2.15-5.195s.708-3.808 2.15-5.196c1.441-1.387 3.21-2.067 5.331-2.067 1.68 0 3.089.417 4.228 1.252.114.084.178.22.178.36Z" fill="#25074D"/>
	<path d="M68.588 21.238c0-2.04.735-3.78 2.176-5.168 1.442-1.387 3.21-2.094 5.304-2.094 2.095 0 3.863.707 5.305 2.094 1.441 1.387 2.176 3.128 2.176 5.168s-.735 3.781-2.177 5.168c-1.441 1.388-3.21 2.095-5.304 2.095-2.094 0-3.862-.707-5.304-2.095-1.441-1.387-2.176-3.128-2.176-5.168Zm10.5 3.074c.816-.844 1.224-1.85 1.224-3.074 0-1.224-.409-2.23-1.224-3.046-.817-.844-1.823-1.251-3.02-1.251-1.224 0-2.23.408-3.046 1.25-.79.817-1.197 1.823-1.197 3.047 0 1.224.408 2.23 1.197 3.074.816.816 1.822 1.224 3.046 1.224 1.197 0 2.203-.408 3.02-1.224Z" fill="#25074D"/>
	<path d="M103.211 21.238c0-2.149.653-3.89 1.986-5.195 1.332-1.333 3.046-1.986 5.113-1.986 1.986 0 3.591.653 4.815 1.986 1.251 1.306 1.877 2.938 1.877 4.869 0 .256-.011.51-.026.753a.444.444 0 0 1-.444.417h-10.084c.109 2.176 1.714 3.563 4.135 3.563 1.749 0 3.156-.343 4.235-1.042a.443.443 0 0 1 .688.37v1.9c0 .15-.074.293-.201.375-1.3.835-2.919 1.253-4.859 1.253-2.148 0-3.917-.652-5.249-1.93-1.333-1.307-1.986-3.047-1.986-5.196v-.137Zm10.472-1.468c0-.79-.326-1.497-.979-2.068-.652-.57-1.441-.87-2.393-.87-1.007 0-1.877.3-2.611.87-.735.571-1.116 1.251-1.17 2.068h7.153Z" fill="#25074D"/>
	<path d="m117.128 27.388 4.689-6.53-4.215-5.766a.445.445 0 0 1 .359-.708h2.433c.142 0 .276.068.36.183l2.859 3.924 2.831-3.922a.446.446 0 0 1 .361-.185h2.457c.365 0 .575.415.359.709l-4.213 5.737 4.692 6.559c.21.294 0 .704-.363.704h-2.415a.445.445 0 0 1-.361-.185l-3.349-4.657-3.348 4.657a.446.446 0 0 1-.362.185h-2.413a.445.445 0 0 1-.361-.705Z" fill="#25074D"/>
	<path d="M85.769 28.093a.445.445 0 0 1-.446-.445v-9.792a3.472 3.472 0 0 1 3.473-3.472h3.442c.246 0 .445.2.445.445v2.075c0 .246-.199.445-.445.445h-2.454c-.68 0-1.23.552-1.227 1.232l.003.699v8.368c0 .246-.2.445-.445.445H85.77Z" fill="#25074D"/>
	<path d="M99.08 17.349h2.543c.246 0 .445-.2.445-.445v-2.075a.445.445 0 0 0-.445-.445h-2.544v-4.67a.445.445 0 0 0-.56-.43l-2.347.63a.445.445 0 0 0-.33.43v4.046h-1.325c-.246 0-.445.2-.445.445v2.075c0 .246.2.445.445.445h1.326v7.266a3.472 3.472 0 0 0 3.472 3.472h2.308c.246 0 .445-.2.445-.445v-2.075a.445.445 0 0 0-.445-.445h-1.319c-.68 0-1.23-.552-1.227-1.232l.002-.699V17.35Z" fill="#25074D"/>
	<path d="m27.95 6.232 3.083-3.084a.89.89 0 0 0 0-1.259l-.962-.962a.89.89 0 0 0-1.259 0L25.73 4.011a7.798 7.798 0 0 1-5.552 2.295c-2.1 0-4.072-.815-5.552-2.295L11.54.927a.89.89 0 0 0-1.259 0l-.961.962a.89.89 0 0 0 0 1.26l3.083 3.083a10.917 10.917 0 0 0 7.772 3.215c2.94 0 5.7-1.142 7.774-3.215Zm3.083 33.212a.89.89 0 0 0 0-1.259l-3.083-3.083a10.918 10.918 0 0 0-7.773-3.215 10.92 10.92 0 0 0-7.772 3.215L9.32 38.185a.89.89 0 0 0 0 1.26l.962.96a.89.89 0 0 0 1.259 0l3.083-3.083a7.798 7.798 0 0 1 5.552-2.295c2.1 0 4.073.815 5.553 2.295l3.083 3.084a.89.89 0 0 0 1.26 0l.96-.962Zm3.58-11.005 3.083 3.084a.89.89 0 0 0 1.259 0l.961-.962a.89.89 0 0 0 0-1.26l-3.083-3.083a7.798 7.798 0 0 1-2.295-5.552c0-2.1.815-4.072 2.295-5.552l3.083-3.083a.89.89 0 0 0 0-1.26l-.961-.961a.89.89 0 0 0-1.26 0l-3.083 3.083a10.918 10.918 0 0 0-3.215 7.773c0 2.94 1.142 5.7 3.215 7.773ZM1.508 40.297l-.705-.705-.257-.256a.88.88 0 0 1-.21-.345.887.887 0 0 1 .21-.914L2.1 36.522l5.402-5.402.46-.46.001-.001c5.508-5.51 5.509-14.474 0-19.985l-1.01-1.01-.248-.248-6.16-6.159a.89.89 0 0 1 0-1.259l.962-.962a.89.89 0 0 1 1.259 0L8.281 6.55l.428.428 1.014 1.015.46.46a14.04 14.04 0 0 0 9.993 4.139 14.04 14.04 0 0 0 9.994-4.14l7.416-7.416a.89.89 0 0 1 1.26 0l.96.962a.89.89 0 0 1 0 1.259l-7.415 7.416-.002.002a14.04 14.04 0 0 0-4.138 9.991 14.04 14.04 0 0 0 4.14 9.994l3.708 3.708 3.708 3.708a.89.89 0 0 1 0 1.259l-.962.962a.89.89 0 0 1-1.259 0L30.17 32.88l-.002-.002c-5.51-5.507-14.473-5.508-19.983 0l-.002.002-1.04 1.041-.217.217-6.16 6.159a.889.889 0 0 1-1.257 0Zm13.147-15.2a.889.889 0 0 0 1.09 1.09c2.9-.764 5.961-.764 8.862 0a.889.889 0 0 0 1.089-1.09 17.315 17.315 0 0 1 0-8.86.89.89 0 0 0-1.09-1.09 17.32 17.32 0 0 1-4.43.577c-1.49 0-2.98-.193-4.43-.577a.889.889 0 0 0-1.09 1.09c.764 2.9.764 5.96 0 8.86ZM1.4 31.524a.89.89 0 0 0 1.259 0l3.083-3.084a10.918 10.918 0 0 0 3.215-7.773c0-2.938-1.141-5.699-3.215-7.772L2.66 9.811a.89.89 0 0 0-1.26 0l-.96.961a.89.89 0 0 0 0 1.26l3.083 3.083a7.798 7.798 0 0 1 2.295 5.552c0 2.1-.815 4.072-2.295 5.552L.438 29.302a.89.89 0 0 0 0 1.26l.962.96Z" fill="#25074D"/>
</svg>
