<svg xmlns="http://www.w3.org/2000/svg" width="200" height="128">
	<path fill="#25074d" d="M102.53 59v2.58a.55.55 0 0 1-.87.44 7.22 7.22 0 0 0-4.32-1.35 5.39 5.39 0 0 0-3.91 1.5 5.42 5.42 0 0 0 0 7.57 5.39 5.39 0 0 0 3.91 1.5 7.22 7.22 0 0 0 4.32-1.34.55.55 0 0 1 .87.44v2.57a.55.55 0 0 1-.21.44 8.45 8.45 0 0 1-5.21 1.54 9 9 0 0 1-6.56-2.54 9 9 0 0 1 0-12.79A9 9 0 0 1 97.11 57a8.53 8.53 0 0 1 5.2 1.54.54.54 0 0 1 .22.46zm1.66 7a8.54 8.54 0 0 1 2.68-6.36 9.55 9.55 0 0 1 13.06 0 8.89 8.89 0 0 1 0 12.72 9.55 9.55 0 0 1-13.06 0 8.54 8.54 0 0 1-2.68-6.36zm12.93 3.78a5.2 5.2 0 0 0 1.5-3.78 5.07 5.07 0 0 0-1.5-3.75 5.3 5.3 0 0 0-7.47 0 5.17 5.17 0 0 0-1.47 3.75 5.3 5.3 0 0 0 1.47 3.78 5.37 5.37 0 0 0 7.47 0zM146.8 66a8.38 8.38 0 0 1 8.74-8.84 7.66 7.66 0 0 1 5.93 2.44 8.36 8.36 0 0 1 2.31 6v.92a.56.56 0 0 1-.55.52h-12.44c.13 2.68 2.11 4.38 5.09 4.38a9.44 9.44 0 0 0 5.21-1.28.55.55 0 0 1 .85.45v2.31a.53.53 0 0 1-.25.46 10.83 10.83 0 0 1-6 1.55 9 9 0 0 1-6.46-2.38 8.56 8.56 0 0 1-2.45-6.39zm12.89-1.81a3.29 3.29 0 0 0-1.2-2.54 4.28 4.28 0 0 0-3-1.07 5 5 0 0 0-3.21 1.07 3.39 3.39 0 0 0-1.44 2.54zm4.24 9.35 5.77-8-5.18-7.1a.54.54 0 0 1 .44-.87h3a.54.54 0 0 1 .44.23l3.52 4.83 3.49-4.83a.55.55 0 0 1 .44-.23h3a.55.55 0 0 1 .44.88l-5.19 7.06 5.78 8.07a.54.54 0 0 1-.45.86h-3a.56.56 0 0 1-.45-.22l-4.12-5.73-4.12 5.73a.54.54 0 0 1-.44.22h-3a.54.54 0 0 1-.37-.9zm-38.59.86a.55.55 0 0 1-.55-.54v-12a4.28 4.28 0 0 1 4.27-4.28h4.24a.55.55 0 0 1 .55.55v2.55a.55.55 0 0 1-.55.55h-3a1.51 1.51 0 0 0-1.51 1.52v11.11a.54.54 0 0 1-.54.54zm16.38-13.22h3.13a.55.55 0 0 0 .55-.55v-2.55a.55.55 0 0 0-.55-.55h-3.13v-5.74a.54.54 0 0 0-.69-.53l-2.89.77a.55.55 0 0 0-.4.53v5h-1.64a.55.55 0 0 0-.54.55v2.55a.55.55 0 0 0 .54.55h1.64v8.94a4.28 4.28 0 0 0 4.26 4.26h2.84a.55.55 0 0 0 .55-.55V71.3a.55.55 0 0 0-.55-.54h-1.62a1.5 1.5 0 0 1-1.51-1.52v-8.06zM54.18 47.5 58 43.71a1.09 1.09 0 0 0 0-1.55L56.79 41a1.09 1.09 0 0 0-1.55 0l-3.79 3.8a9.69 9.69 0 0 1-13.67 0L34 41a1.09 1.09 0 0 0-1.55 0l-1.19 1.19a1.09 1.09 0 0 0 0 1.55l3.8 3.79a13.53 13.53 0 0 0 19.13 0zM58 88.38a1.09 1.09 0 0 0 0-1.55L54.18 83a13.53 13.53 0 0 0-19.13 0l-3.8 3.8a1.11 1.11 0 0 0 0 1.55l1.19 1.18a1.09 1.09 0 0 0 1.55 0l3.79-3.8a9.69 9.69 0 0 1 13.67 0l3.79 3.8a1.09 1.09 0 0 0 1.55 0zm4.41-13.55 3.79 3.8a1.11 1.11 0 0 0 1.55 0l1.19-1.19a1.09 1.09 0 0 0 0-1.55l-3.8-3.79a9.69 9.69 0 0 1 0-13.67l3.8-3.79a1.09 1.09 0 0 0 0-1.55l-1.22-1.19a1.11 1.11 0 0 0-1.55 0l-3.79 3.8a13.53 13.53 0 0 0 0 19.13zM21.64 89.42l-.87-.86-.32-.32a1.07 1.07 0 0 1-.25-.42 1.11 1.11 0 0 1 .25-1.13l1.92-1.91c2.28-2.29 5.39-5.39 6.65-6.65l.56-.57a17.41 17.41 0 0 0 0-24.59l-1.24-1.25-.31-.3-7.58-7.58a1.11 1.11 0 0 1 0-1.55l1.19-1.18A1.07 1.07 0 0 1 23 41a.79.79 0 0 1 .18.14L30 47.89l.53.53 1.25 1.25.56.56a17.38 17.38 0 0 0 24.6 0L66 41.11a1.09 1.09 0 0 1 1.55 0l1.18 1.18a1.09 1.09 0 0 1 0 1.55L59.65 53a17.38 17.38 0 0 0 0 24.59l4.56 4.57 4.56 4.56a.75.75 0 0 1 .14.17 1.09 1.09 0 0 1-.14 1.38l-1.18 1.18a1.09 1.09 0 0 1-1.55 0l-9.13-9.15a17.42 17.42 0 0 0-24.59 0L31 81.58l-.26.26-7.58 7.58a1.09 1.09 0 0 1-1.52 0zm16.18-18.7a1.09 1.09 0 0 0 1.34 1.34 21.46 21.46 0 0 1 10.91 0 1.09 1.09 0 0 0 1.34-1.34 21.31 21.31 0 0 1 0-10.91 1.1 1.1 0 0 0-1.35-1.34 21.27 21.27 0 0 1-10.9 0 1.09 1.09 0 0 0-1.34 1.34 21.46 21.46 0 0 1 0 10.91zM21.5 78.63a1.11 1.11 0 0 0 1.55 0l3.8-3.8a13.53 13.53 0 0 0 0-19.13l-3.8-3.8a1.11 1.11 0 0 0-1.55 0l-1.18 1.19a1.09 1.09 0 0 0 0 1.55l3.8 3.79a9.69 9.69 0 0 1 0 13.67l-3.8 3.79a1.09 1.09 0 0 0 0 1.55z"/>
</svg>
