<svg xmlns="http://www.w3.org/2000/svg" width="200" height="128">
    <path d="M91.722 56.2c-4.3 0-6.316 2.921-6.316 7.414 0 4.34 2.017 7.346 6.316 7.346s6.3-3.006 6.3-7.346c0-4.493-2.017-7.414-6.3-7.414m0 12.812c-2.783 0-3.715-2.227-3.715-5.426 0-3.463.932-5.411 3.715-5.411 2.74 0 3.714 1.948 3.714 5.411 0 3.2-.932 5.426-3.714 5.426M113.381 56.364h-2.574v11.323a5.748 5.748 0 0 1-1.113.668 6.769 6.769 0 0 1-2.865.654c-2.059 0-2.7-1.266-2.7-4.493v-8.152h-2.56v8.249c0 4.354 1.433 6.343 4.66 6.343a7.313 7.313 0 0 0 3.645-.946 6.438 6.438 0 0 0 1.294-.945l.347 1.794 1.864-.153V56.364zM117.039 63.666c0 5.453 3.089 7.33 6.149 7.289a11.552 11.552 0 0 0 2.907-.375 7.791 7.791 0 0 0 1.127-.39l.222-1.85a11.408 11.408 0 0 1-1.182.334 13.734 13.734 0 0 1-2.768.334c-2.491.039-3.819-1.642-3.826-5.384-.007-3.881 1.336-5.467 3.826-5.467a12.454 12.454 0 0 1 2.754.348 11.406 11.406 0 0 1 1.183.348l-.209-1.878a7.7 7.7 0 0 0-1.141-.39 11.167 11.167 0 0 0-2.963-.389c-3 0-6.079 1.725-6.079 7.47M130.77 70.956h2.573V59.9c.668-.222 2.42-1.488 4.145-1.488 1.67 0 2.574.946 2.574 4.729v7.818h2.574v-8.016c0-4.673-1.253-6.5-4.494-6.5a7.169 7.169 0 0 0-4.8 1.642v-7.119l-2.574.251v19.739zM159.384 52.594c-1.748-1.342-3.992-1.628-6.358-1.628H147.3v19.99h6.357c6.956 0 8.611-4.117 8.611-10.4 0-4.354-1.15-6.628-2.88-7.957m-6.607 16.359h-2.811V52.983h3.784c4.6 0 5.9 2.5 5.9 7.679-.007 6.413-1.446 8.291-6.871 8.291M177.746 60.871a5.361 5.361 0 0 0-2.253-.654 3.987 3.987 0 0 0 3.561-4.006c0-3.784-1.878-5.245-7.053-5.245h-5.5v19.99h6.552c4.633 0 6.942-1.781 6.942-5.773a4.5 4.5 0 0 0-2.254-4.312m-8.722-7.888h2.629c3.492 0 4.9.585 4.9 3.116-.007 2.184-1.1 3.381-4.285 3.381h-3.241v-6.5zm3.367 15.97h-3.367v-7.707h3.325c3.562 0 5.175.835 5.175 3.909 0 3.214-1.739 3.8-5.133 3.8M76.962 70.956a17.232 17.232 0 0 0 3.993-.459 11.647 11.647 0 0 0 1.544-.473l.236-2.17c-.487.181-1.017.34-1.586.5a14.81 14.81 0 0 1-3.881.5c-3.7.02-5.5-2.379-5.522-8.374-.021-6.177 2.2-8.108 5.787-8.138a15.886 15.886 0 0 1 3.672.431 13.244 13.244 0 0 1 1.53.459l-.222-2.156a13.9 13.9 0 0 0-1.5-.4 17.538 17.538 0 0 0-3.769-.418c-4.744 0-8.259 2.532-8.25 10.252 0 3.993.891 6.663 2.323 8.277a7.128 7.128 0 0 0 5.648 2.17" fill="#444"/>
    <path d="M150.777 76.105a3.053 3.053 0 0 0-2.184 1l-.277-1-1.021.079v8.174h1.464v-6.323a3.85 3.85 0 0 1 .594-.364 3.41 3.41 0 0 1 1.487-.372 1.8 1.8 0 0 1 .491.056l.111.055.174-1.131a2 2 0 0 0-.261-.087 2.378 2.378 0 0 0-.578-.087M159.252 78.922a2.8 2.8 0 0 0-3.015-2.817c-2.01.011-3.537 1.273-3.537 4.288 0 2.73 1.29 4.107 3.846 4.107a6.864 6.864 0 0 0 1.59-.19 5.064 5.064 0 0 0 .633-.19l.15-1.06a7.905 7.905 0 0 1-.688.166 8.706 8.706 0 0 1-1.583.166c-1.464.017-2.437-.68-2.437-2.674v-.285h4.914a4.938 4.938 0 0 0 .079-.633 8.442 8.442 0 0 0 .048-.878m-1.266.427a1.951 1.951 0 0 0-.008.2h-3.743a2.67 2.67 0 0 1 .7-1.86 1.869 1.869 0 0 1 1.337-.5c.973 0 1.687.57 1.725 1.915a1.753 1.753 0 0 1-.008.246M161.27 84.5h1.456V73.129l-1.456.143V84.5zM171.32 83.5c-.135-.056-.175-.253-.175-.632v-3.203c0-2.563-.609-3.5-3.172-3.5a6.793 6.793 0 0 0-1.86.253 5.187 5.187 0 0 0-.689.245l-.158 1.1a6.81 6.81 0 0 1 .815-.245 7.7 7.7 0 0 1 1.781-.237c1.353 0 1.828.26 1.828 1.946v.894l-.435-.063a7.421 7.421 0 0 0-1-.056c-1.836 0-3.625.428-3.625 2.319a2.214 2.214 0 0 0 2.414 2.319 4.07 4.07 0 0 0 2.168-.53 2.129 2.129 0 0 0 .594-.539 1.25 1.25 0 0 0 .277.68 1.175 1.175 0 0 0 .918.389 2.462 2.462 0 0 0 .633-.072l.253-.071.1-.966a2.2 2.2 0 0 1-.665-.031m-1.631-.617a3.439 3.439 0 0 1-.617.348 3.855 3.855 0 0 1-1.606.341c-.957 0-1.5-.38-1.5-1.2 0-1.385 1.59-1.491 2.524-1.464l.815.024.388.024v1.922zM172.942 84.5h1.622l1.907-3.181 1.891 3.181H180l-2.722-4.059L180 76.342h-1.551l-1.978 3.276-1.994-3.276h-1.535l2.706 4.099-2.706 4.059z" fill="#777"/>
    <path d="M54.17 61.757a2.355 2.355 0 0 1-2.628 2.627H30.514a2.627 2.627 0 1 1 0-5.254h21.028a2.355 2.355 0 0 1 2.628 2.627M51.542 65.7H30.514a2.627 2.627 0 1 0 0 5.254h21.028a2.627 2.627 0 1 0 0-5.254m6.571-14.455a2.355 2.355 0 0 0-2.628 2.627v14.456a2.356 2.356 0 0 0 2.628 2.627c2.566-.09 3.943-2.653 3.943-7.881V56.5c0-3.486-1.377-5.194-3.943-5.254m-34.17 0C21.377 51.306 20 53.014 20 56.5v6.571c0 5.228 1.377 7.791 3.943 7.881a2.355 2.355 0 0 0 2.628-2.627V53.871a2.355 2.355 0 0 0-2.628-2.627m34.17-1.316c0-4.357-2.3-6.492-6.571-6.567H30.514c-4.275.075-6.571 2.21-6.571 6.567 2.565.045 3.943 1.326 3.943 3.94s1.377 3.9 3.943 3.941h18.4c2.565-.045 3.942-1.327 3.942-3.941s1.378-3.9 3.943-3.94z" fill="#e42528"/>
</svg>
