<svg xmlns="http://www.w3.org/2000/svg" width="200" height="128">
    <path d="M75.241 72.507c-5.643 0-8.479-4.059-8.479-8.563 0-4.476 2.947-8.507 8.535-8.507a8.789 8.789 0 0 1 4.976 1.307l-1.612 2.641a5.932 5.932 0 0 0-3.42-.945c-3.03 0-4.642 2.418-4.642 5.421 0 3.086 1.556 5.644 4.7 5.644A5.732 5.732 0 0 0 79 68.254l1.473 2.53a8.344 8.344 0 0 1-5.227 1.723zm11.983-10.119c-1.807 0-2.391 1.529-2.391 3.753s.723 3.809 2.53 3.809c1.835 0 2.446-1.5 2.446-3.726-.027-2.224-.75-3.836-2.585-3.836zm.055 10.119c-4.225 0-6.06-3.169-6.06-6.283s1.835-6.367 6.06-6.367 6.145 3.143 6.145 6.256c-.028 3.086-1.891 6.394-6.145 6.394zm11.455-12.344v7.729c0 1.2.417 1.779 1.557 1.779a3.541 3.541 0 0 0 2.391-1.445v-8.063h3.391v8.508a16.447 16.447 0 0 0 .334 3.53h-3.364a8.148 8.148 0 0 1-.25-1.612 4.8 4.8 0 0 1-3.892 1.89c-2.669 0-3.614-1.695-3.614-3.92v-8.423h3.447v.027zm15.707 12.344c-3.892 0-6.283-2.53-6.283-6.311 0-4.059 2.7-6.338 6.395-6.338a6.787 6.787 0 0 1 3.7.945l-1.084 2.335a4.482 4.482 0 0 0-2.5-.7c-1.891 0-2.891 1.474-2.891 3.67s.945 3.781 2.975 3.781a4.546 4.546 0 0 0 2.557-.723l1.029 2.28a6.529 6.529 0 0 1-3.893 1.056zm13.011-.278v-7.756c0-1.2-.417-1.78-1.556-1.78a3.511 3.511 0 0 0-2.419 1.446V72.2h-3.392V54.409h3.392v7.172a4.927 4.927 0 0 1 3.753-1.723c2.669 0 3.614 1.7 3.614 3.92V72.2h-3.392v.028zm9.564-2.641a4.438 4.438 0 0 0 1.613.25c1.751 0 2.835-1.279 2.835-3.753 0-2.224-.75-3.559-2.474-3.559a2.776 2.776 0 0 0-1.974.89zm0-15.152v6.673a4.288 4.288 0 0 1 2.947-1.251c3 0 5.116 2.057 5.116 6.227 0 4.143-2.781 6.423-6.45 6.423a11.88 11.88 0 0 1-5.032-.974V54.409h3.419v.027zm16.153 12.483h-.417c-1.863 0-3.169.556-3.169 1.918 0 .862.695 1.223 1.445 1.223a2.923 2.923 0 0 0 2.141-1v-2.141zm.361 5.31a6.123 6.123 0 0 1-.194-1.279 4.388 4.388 0 0 1-3.365 1.585 3.322 3.322 0 0 1-3.641-3.392c0-3.141 3.225-4.281 6.422-4.281h.417v-.667c0-1-.417-1.613-1.918-1.613a5.172 5.172 0 0 0-3.058 1.112l-1.474-2.057a7.165 7.165 0 0 1 4.921-1.752c3.336 0 4.921 1.279 4.921 4.5v4.226a17.252 17.252 0 0 0 .333 3.614zm9.147.278a7.647 7.647 0 0 1-4.309-1.14l1.14-2.367a5.506 5.506 0 0 0 2.974 1c1.251 0 1.946-.362 1.946-1.029 0-.778-1.362-1-3.086-1.835-1.668-.806-2.641-1.723-2.641-3.558 0-2.28 1.807-3.726 4.56-3.726a7.79 7.79 0 0 1 3.892.946l-1.168 2.307a5.166 5.166 0 0 0-2.557-.751c-1.14 0-1.641.39-1.641 1.029 0 .779 1.112.973 2.5 1.529 1.891.779 3.253 1.668 3.253 3.67-.055 2.586-1.89 3.92-4.865 3.92zm13.984-7.784c-.028-1.335-.556-2.419-2-2.419-1.335 0-2.114.862-2.336 2.419zm-1.279 5.282a6.13 6.13 0 0 0 3.142-.834l1.084 2.169a8.224 8.224 0 0 1-4.532 1.167c-4.059 0-6.366-2.53-6.366-6.394a5.878 5.878 0 0 1 6-6.255c3.809 0 5.644 2.641 5.227 7.145h-7.59c.139 1.807 1.084 3 3.03 3z"/>
    <path d="M38.405 45.6A18.405 18.405 0 1 0 56.809 64a18.409 18.409 0 0 0-18.404-18.4zm12.427 21.63a2.223 2.223 0 0 1-1.891 2.307 75.879 75.879 0 0 1-10.536.612 75.884 75.884 0 0 1-10.537-.612 2.223 2.223 0 0 1-1.891-2.307v-7.178a2.386 2.386 0 0 1 1.891-2.307 24.568 24.568 0 0 1 3.308-.223.8.8 0 0 1 .806.862v5.032l6.45-.139 6.45.139v-5.032a.805.805 0 0 1 .807-.862 24.58 24.58 0 0 1 3.311.223 2.358 2.358 0 0 1 1.89 2.307c-.055 2.363-.055 4.782-.055 7.173z" fill="#ed2226"/>
</svg>
