<svg xmlns="http://www.w3.org/2000/svg" viewBox="1.74 144.74 533.52 196.52">
	<clipPath id="a">
		<path d="M0 0h960v540H0V0z"/>
	</clipPath>
	<g clip-path="url(#a)">
		<path fill="#fff" fill-rule="evenodd" d="M0 0h960v540H0z"/>
		<path fill="none" d="M-8.772 142.913h801.544v318.174H-8.772z"/>
		<path fill="#4185f1" d="M84.79 332.05q-22.218 0-38.655-8.124-16.422-8.125-25.188-23.047-8.766-14.938-8.766-34.719 0-27.437 10.36-48.718t28.078-32.938q17.734-11.672 39.39-11.672 20.157 0 30.61 10.36 10.453 10.359 10.453 27.343 0 11.39-4.016 18.297-4.015 6.906-11.468 6.906-5.235 0-8.219-2.421-2.984-2.438-2.984-7.11 0-1.672.75-6.156 1.109-5.594 1.109-8.953 0-16.985-18.094-16.985-12.328 0-23.531 8.032-11.188 8.015-18.094 23.609-6.906 15.578-6.906 37.047 0 22.39 12.5 34.625 12.5 12.219 36.953 12.219 12.14 0 24.547-3.079 12.422-3.078 27.531-9.421 2.797-1.125 4.672-1.125 2.984 0 4.469 2.25 1.5 2.234 1.5 5.78 0 11.391-12.313 16.798-13.25 5.781-27.53 8.5-14.282 2.703-27.157 2.703zm145.774-58.234q2.422 0 3.719 2.422 1.312 2.422 1.312 6.157 0 8.968-5.406 10.64-11.203 3.922-24.64 4.485-3.547 15.671-14 25.109-10.454 9.422-23.704 9.422-11.203 0-19.14-5.406-7.922-5.422-12.032-14.375-4.109-8.97-4.109-19.422 0-14.188 5.406-25.282 5.422-11.109 14.938-17.359 9.531-6.265 21.094-6.265 14.187 0 22.859 9.812 8.687 9.797 10.187 24.156 8.766-.547 20.907-3.734 1.484-.36 2.61-.36zm-61.219 38.438q5.97 0 10.344-4.844 4.39-4.86 5.89-14-5.78-3.922-8.874-10.265-3.078-6.344-3.078-13.438 0-2.984.562-5.984h-.937q-7.454 0-12.407 7.187-4.953 7.188-4.953 20.266 0 10.265 4.016 15.672 4.015 5.406 9.437 5.406zm69.245 19.797q-8.406 0-13.735-7.75-5.312-7.75-5.312-19.313 0-14 1.86-25.672 1.874-11.671 6.171-24.734 1.875-5.594 5.235-8.015 3.359-2.438 10.625-2.438 4.109 0 5.687 1.313 1.594 1.296 1.594 3.921 0 1.485-2.047 10.078-1.86 6.907-2.984 12.5-3.735 19.594-3.735 26.141 0 3.906.922 5.5.938 1.594 3 1.594 2.797 0 7-5.594 4.203-5.61 8.953-17 4.766-11.39 9.25-28 1.485-5.594 4.563-8.015 3.078-2.438 9.25-2.438 4.28 0 5.953 1.031 1.687 1.032 1.687 3.828 0 4.657-4.656 25.563-5.234 23.89-5.234 29.5 0 3.547 1.484 5.516 1.5 1.953 3.938 1.953 3.734 0 8.859-4.579 5.14-4.578 13.719-14.843 2.234-2.61 5.047-2.61 2.421 0 3.812 2.25 1.406 2.235 1.406 6.157 0 7.453-3.547 11.562-8.03 9.89-17.265 16.25-9.235 6.344-21 6.344-8.953 0-13.156-6.906-4.204-6.907-4.204-19.422-3.171 12.703-9.515 19.515-6.344 6.813-13.625 6.813zm137.938-42.563q2.422 0 3.813 2.25 1.406 2.235 1.406 6.157 0 7.453-3.547 11.562-8.016 9.89-17.453 16.25-9.422 6.344-21.36 6.344-16.437 0-24.375-14.938-7.921-14.937-7.921-38.64 0-22.766 5.875-51.875 5.89-29.125 17.359-50.031 11.484-20.907 27.344-20.907 8.968 0 14.093 8.313 5.141 8.297 5.141 23.781 0 22.219-12.328 51.531-12.313 29.297-33.406 58.047 1.312 7.656 4.297 10.922 2.984 3.266 7.843 3.266 7.641 0 13.422-4.391 5.797-4.39 14.75-15.031 2.25-2.61 5.047-2.61zM353.575 174.13q-4.297 0-9.719 15.5-5.406 15.484-9.515 38.453-4.11 22.953-4.485 44.047 13.266-21.844 21.094-43.766 7.844-21.937 7.844-40.046 0-14.188-5.219-14.188zm96.303 115.36q2.438 0 3.828 2.25 1.406 2.234 1.406 6.156 0 7.453-3.546 11.562-6.907 8.406-19.516 15.5-12.594 7.094-26.969 7.094-19.594 0-30.422-10.64-10.828-10.641-10.828-29.126 0-12.875 5.406-23.984 5.422-11.11 15.032-17.64 9.625-6.532 21.75-6.532 10.828 0 17.359 6.438 6.531 6.437 6.531 17.453 0 12.89-9.25 22.125-9.234 9.234-31.25 14.656 4.657 8.578 17.735 8.578 8.39 0 19.125-5.875 10.734-5.875 18.578-15.406 2.234-2.61 5.031-2.61zm-47.031-27.063q-6.906 0-11.672 8.031-4.75 8.016-4.75 19.406v.375q11-2.609 17.344-7.828 6.359-5.234 6.359-12.14 0-3.547-1.969-5.688-1.953-2.156-5.312-2.156zm112.559 7.281q4.094 0 6.984 2.89 2.906 2.891 2.906 7.188 0 2.422-1.125 5.219-2.984 6.906-8.406 11.578-5.406 4.672-11.937 4.672-5.235 0-8.875-3.734-3.625-3.735-3.625-10.079 0-3.546.36-7.656.374-2.984.374-4.11 0-1.5-.656-2.234-.64-.75-1.578-.75-2.61 0-7.094 6.25t-8.969 16.516q-4.469 10.266-7.265 21.656-2.063 8.953-4.672 11.953-2.61 2.985-8.578 2.985-7.094 0-10-7.469-2.891-7.469-2.891-23.89 0-24.266 6.906-46.11 1.688-5.406 5.516-7.922 3.828-2.531 10.734-2.531 3.735 0 5.219.938 1.5.937 1.5 3.546 0 2.985-2.813 13.438-1.859 7.469-2.984 13.078-1.11 5.594-1.86 13.797 6.157-16.047 13.813-26.125 7.656-10.078 14.922-14.375 7.281-4.297 13.266-4.297 5.406 0 8.297 3.078 2.89 3.078 2.89 9.063 0 3.546-2.047 13.437h1.688z"/>
	</g>
</svg>
