<svg id="Layer_1" data-name="Layer 1" xmlns="http://www.w3.org/2000/svg" viewBox="0 0 887.5 717.6">
	<defs>
		<style>
			.cls-1{fill:#f7a403}.cls-2{fill:#543f38}
		</style>
	</defs>
	<g id="FJmztX.tif">
		<path class="cls-1" d="M334.365 439.133a140.095 140.095 0 0 0 8.218 43.549 101.764 101.764 0 0 0 22.053 34.815c1.665 1.757 4.836 3.833 3.202 6.279-1.598 2.392-4.336-.384-6.572-.898-11.944-2.743-22.795-8.397-33.727-13.534a220.312 220.312 0 0 1-33.63-19.586c-12.128-8.592-23.229-18.435-34.662-27.895-12.636-10.456-22.413-23.203-32.638-35.578a121.91 121.91 0 0 1-18.324-29.787c-2.642-6.2-7.367-11.347-9.794-17.783-3.568-9.46-9.001-18.299-11.256-28.137-2.66-11.603-6.416-22.923-8.316-34.74-1.675-10.418-3.66-20.787-3.919-31.34-.23-9.418.008-18.856.296-28.278.304-9.985-.716-19.98.655-29.966 1.594-11.61 4.498-22.916 7.019-34.327a187.847 187.847 0 0 1 10.548-32.493 233.276 233.276 0 0 1 14.66-29.005c4.315-7.217 8.217-14.714 12.98-21.62a281.06 281.06 0 0 1 17.267-22.335c7.581-8.921 15.324-17.763 24.093-25.555 15.683-13.935 32.138-26.865 50.5-37.186 5.063-2.846 9.776-6.323 15.288-8.357 1.75-.647 3.516-1.652 5.256-.283 1.813 1.428 1.697 3.491 1.33 5.53-2.453 13.581-6.113 26.882-9.38 40.274-.568 2.326-1.345 4.562-.761 7.014a2.983 2.983 0 0 1-.175 2.102c-4.135 6.211-3.24 13.736-5.33 20.52-2.67 8.667-3.134 18.006-5.715 26.71-3.741 12.62-4.931 25.756-8.598 38.342-3.342 11.468-5.332 23.238-8.089 34.836-1.3 5.474 1.861 9.978 5.812 13.057 4.743 3.697 9.806 7.028 14.514 10.808 7.935 6.371 15.815 12.81 23.754 19.177 9.428 7.561 18.922 15.042 28.335 22.622 7.756 6.246 15.366 12.675 23.173 18.856 6.553 5.187 13.175 10.306 19.992 15.138 6.727 4.768 11.679 9.87 10.557 19.256a64.497 64.497 0 0 0 5.62 34.687c8.315 18.376 21.514 30.842 41.087 37 11.82 3.718 21.374 11.055 29.098 21.337 9.997 13.307 12.568 28.174 10.953 43.769-1.87 18.055-11.023 32.326-26.131 42.769-16.596 11.47-34.873 11.601-53.348 7.481-11.013-2.456-19.626-9.538-26.829-18.485-11.394-14.153-16.513-29.788-14.02-47.957 1.468-10.697 6.84-19.676 11.57-28.98 2.406-4.733 4.568-9.406 4.318-15-.525-11.711-6.927-19.75-16.846-24.193-7.988-3.578-19.613-3.475-27.927 6.023-11.833 13.521-20.187 28.624-22.607 47.029-.969 7.366-3.1 14.673-3.375 22.23-.026.712-.12 1.422-.179 2.088Z"/>
		<path class="cls-2" d="M724.6 230.205c2.473 14.074 1.305 32.392 1.11 50.646-.15 13.934-2.21 27.726-5.048 41.426a242.478 242.478 0 0 1-9.103 31.958 270.086 270.086 0 0 1-13.27 31.458 280.234 280.234 0 0 1-83.83 100.232 253.442 253.442 0 0 1-47.318 27.902c-12.126 5.353-24.156 10.84-36.84 14.734-2.633.808-6.03 2.316-7.803-.734-1.912-3.286 1.535-5.142 3.57-6.9a101.22 101.22 0 0 0 31.877-49.706c4.437-15.656 6.586-31.735 3.446-48.188-1.576-8.257-2.38-16.657-5.74-24.46-5.665-13.155-12.6-25.445-22.398-36.154-13.22-14.45-29.244-24.281-47.38-31.096-5.839-2.194-10.282-5.624-10.084-12.75a26.881 26.881 0 0 0-.7-5.519c-2.01-10.916 3.195-17.86 11.738-23.98 10.415-7.458 20.048-16.005 30.044-24.051q17.134-13.793 34.316-27.526c10.798-8.617 21.566-17.274 32.501-25.714 3.935-3.038 7.667-6.32 11.81-9.133 5.747-3.903 7.058-10.826 4.127-19.34a115.165 115.165 0 0 1-4.093-17.863c-.992-5.671-3.55-11.145-4.35-16.907-2.099-15.114-7.044-29.593-9.383-44.687-1.889-12.193-5.793-24.064-8.57-36.132-3.725-16.184-7.276-32.41-10.791-48.641-1.127-5.205 1.505-7.61 6.501-5.612 8.217 3.285 15.689 8.08 23.207 12.695q9.62 5.905 18.84 12.454c5.912 4.21 11.764 8.558 17.254 13.296a312.122 312.122 0 0 1 29.175 28.583 278.143 278.143 0 0 1 47.027 74.004 260.233 260.233 0 0 1 15.008 44.796c2.075 8.782 4.407 17.652 5.15 30.909Z"/>
		<path class="cls-2" d="M648.923 711.523c-8.437 0-16.874-.032-25.31.016-3.38.019-5.619-1.717-7.354-4.371-7.402-11.316-14.21-23.02-22.392-33.829a31.092 31.092 0 0 1-4.346-7.83c-1.384-3.734-4.742-5.185-7.444-7.384-1.556-1.267-2.72-.444-3.711 1.248-3.129 5.344-2.028 13.888 3.12 17.43 5.183 3.565 7.189 7.96 6.709 14.113a143.66 143.66 0 0 0-.019 14.997c.104 3.878-2.095 5.558-5.47 5.59-13.296.123-26.596.142-39.892-.019-3.641-.044-5.704-2.221-5.643-6.114.084-5.282.285-10.577.031-15.847a12.386 12.386 0 0 1 6.918-12.303c3.228-1.761 4.383-4.393 4.415-7.686.109-11.008.181-22.017.084-33.024-.034-3.757-1.467-7.01-5.256-8.6-3.482-1.462-5.717-4.104-5.96-7.741-.472-7.085-1.201-14.21.418-21.282a5.066 5.066 0 0 1 5.478-4.364c17.152-.01 34.306-.074 51.457.061 5.643.045 7.101 5.446 9.484 8.95 7.452 10.958 14.28 22.34 21.371 33.544 1.902 3.005 3.874 5.965 5.822 8.94a8.054 8.054 0 0 0 4.481 3.757c3.35.96 4.873-.114 4.934-3.635.042-2.43-.208-4.883.043-7.287.545-5.22-.857-9.203-5.94-11.574-3.782-1.765-4.378-5.528-4.53-9.114-.235-5.568-.224-11.158-.02-16.728.194-5.34 2.082-7.152 7.495-7.188q18.017-.121 36.035.095c4.836.06 6.036 1.429 6.093 6.25.072 6.147.05 12.295.033 18.443-.01 3.535-1.326 6.539-4.493 8.21-3.873 2.043-4.891 5.552-4.964 9.313-.211 10.862-.213 21.73-.13 32.595a9.915 9.915 0 0 0 5.662 9.343c3.445 1.75 4.569 4.846 4.915 8.454.612 6.376-1.012 12.7-.06 19.142.613 4.14-2.594 5.473-6.326 5.467q-12.87-.022-25.738-.005Z"/>
		<path class="cls-2" d="M286.903 594.613c13.017 0 26.035-.096 39.05.03 10.58.102 20.692 2.928 30.17 7.23 8.041 3.65 13.413 10.063 13.713 19.618a135.797 135.797 0 0 1-.22 18c-.483 4.77-2.454 8.985-6.198 11.754-3.514 2.599-6.758 5.635-10.85 7.504-3.524 1.61-4.14 5.77-1.14 9.94a122.895 122.895 0 0 0 11.628 14.213c6.298 6.448 9.512 13.773 8.637 22.805-.357 3.693-2.231 5.825-6.046 5.834q-20.17.046-40.34-.011a7.635 7.635 0 0 1-7.476-4.796c-2.45-5.767-5.907-11.085-7.569-17.203-1.009-3.716-3.498-6.499-6.136-9.142-.868-.87-1.608-2.375-3.061-1.912-1.797.572-1.897 2.367-1.892 3.953.013 4.862.091 9.725.168 14.587.04 2.571.21 5.142.181 7.712-.062 5.594-1.056 6.67-6.865 6.724-11.872.108-23.746.052-35.62.07-4.005.005-8.011.086-12.016.027-5.085-.076-6.03-1.104-5.977-6.081.062-5.865.408-11.75.037-17.588-.33-5.19 1.478-8.994 5.879-11.342 3.168-1.69 3.885-4.08 3.855-7.358-.102-11.299-.07-22.6.032-33.9.028-3.169-.835-5.534-3.943-6.833-4.686-1.958-6.31-5.434-5.924-10.544.451-5.974.09-12.008.148-18.015.049-5.007.687-5.629 5.714-5.636q21.03-.03 42.06-.007Zm11.296 37.216h.08c0 2.002-.034 4.004.006 6.005.14 6.967 3.774 9.85 10.609 8.441 10.993-2.265 15.551-12.339 10.503-22.588-3.115-6.325-8.695-7.806-15.993-6.592-3.813.634-5.086 3.499-5.202 10.873-.02 1.287-.003 2.574-.003 3.861Z"/>
		<path class="cls-2" d="M496.397 711.56c-5.578 0-11.156-.022-16.733.008-3.834.02-5.98-1.676-6.937-5.539-.75-3.029-.338-6.236-1.944-9.156-1.773-3.223-4.182-4.953-7.84-4.951-6.437.003-12.878-.134-19.31.05-7.116.205-9.967 3.315-10.094 10.503-.139 7.858-1.548 9.14-9.341 9.071-10.44-.092-20.882-.046-31.323-.048-5.736 0-6.498-.686-6.533-6.284-.051-8.01.031-16.02-.087-24.028-.067-4.5 1.319-8.001 5.43-10.31 4.804-2.699 7.138-6.965 8.112-12.405 1.837-10.253 6.645-19.624 9.24-29.702 2.48-9.632 6.198-18.94 8.379-28.67.839-3.745 2.451-5.712 6.573-5.693 19.022.085 38.045-.02 57.067-.02 3.898 0 6.065 1.702 7.16 5.815q6.684 25.126 15.462 49.626c1.43 4.012 2.13 8.28 3.416 12.352a14.223 14.223 0 0 0 5.598 7.619c3.498 2.474 6.069 5.715 5.88 10.714-.323 8.561-.13 17.146-.023 25.719.048 3.823-1.535 5.435-5.419 5.305-5.572-.188-11.155-.048-16.733-.048Zm-43.372-45.46a41.582 41.582 0 0 0 4.61-.25c5.901-.892 7.707-3.601 6.268-9.362-1.1-4.399-3.43-8.418-4.071-12.962-.536-3.793-.824-7.63-2.39-11.211-.66-1.51-.606-3.542-2.93-3.677a5.74 5.74 0 0 0-5.21 2.421 9.793 9.793 0 0 0-1.979 4.217c-.807 6.967-3.268 13.47-5.177 20.139-1.984 6.93.507 10.09 7.788 10.53.855.05 1.712.086 3.091.155Z"/>
		<path class="cls-2" d="M757.67 594.514c15.304 0 30.61.089 45.911-.07 3.355-.034 4.556.95 4.515 4.356-.122 10.292.022 20.586.06 30.88.026 6.865-2.832 8.746-9.512 7.085-6.423-1.597-11.777-5.573-18.091-7.373-3.995-1.139-7.96-.792-11.892-.45-3.097.268-4.702 5.648-3.7 11.136.69 3.778 3.536 6.111 6.874 5.377 2.64-.581 5.218-1.452 7.806-2.253 5.839-1.807 9.637.869 9.72 6.897.013 1-.051 2.001-.08 3.002-.29 9.807-2.846 11.574-12.49 8.623a14.033 14.033 0 0 1-3.219-1.122c-3.195-1.946-5.322-.58-7.23 2.009-1.82 2.466-2.248 10.165-.461 12.733 2.232 3.209 5.388 2.749 8.84 2.472a37.159 37.159 0 0 0 17.217-5.771c2.939-1.853 6.409-2.33 9.739-2.922 3.936-.701 6.28 1.392 6.323 5.455.115 10.722.012 21.446.21 32.166.074 4.01-2.08 4.844-5.377 4.833q-14.587-.05-29.175-.027c-20.45 0-40.901-.054-61.351.044-6.912.034-9.818-1.46-8.858-8.763.647-4.92.275-9.997.101-14.994-.154-4.413 1.232-7.947 5.225-9.966 4.477-2.264 5.666-5.837 5.565-10.582-.214-10.007-.1-20.022-.015-30.033.036-4.193-1.068-7.477-5.235-9.386-3.887-1.782-5.572-5.188-5.61-9.376-.05-5.713-.096-11.428.022-17.14.11-5.374 1.449-6.887 6.973-6.938 15.73-.146 31.464-.051 47.196-.051Z"/>
		<path class="cls-2" d="M167.236 593.721c13.134-.579 25.108-.562 36.537 4.059 2.372.96 4.761 1.88 7.128 2.854 3.777 1.556 4.612 4.862 4.684 8.41.14 6.86.057 13.724.144 20.586.05 3.851-2.063 6.11-5.557 6.379-8.807.679-17.624 1.471-25.044-5.34-6.288-5.772-23.365-4.238-28.927 2.047-7.732 8.738-10.82 21.045-5.404 31.398 4.118 7.872 11.747 11.454 20.41 12.136a73.11 73.11 0 0 0 31.455-4.522c3.063-1.138 6.218-.645 9.33-.655 2.907-.01 3.481 2.544 3.545 4.544.232 7.282.408 14.593.008 21.86-.238 4.338-3.095 6.637-7.536 8.073-18.865 6.098-38.29 6.724-57.552 4.634-13.836-1.5-27.216-6.59-37.131-17.297-7.034-7.595-11.21-16.855-13.935-26.953-4.079-15.112-1.322-29.486 4.622-43.167 3.738-8.605 10.562-15.297 18.949-20.219 14.141-8.297 29.385-10.379 44.274-8.827Z"/>
		<path class="cls-2" d="M478.924 21.677c7.862-4.677 16.58-3.189 25.045-3.423 4.843-.134 9.692-.07 14.539-.052 9.012.033 12.274 4.399 9.888 13.19-1.96.168-3.404 1.305-4.872 2.48q-19.34 15.483-38.713 30.924C471.684 75.3 458.603 85.86 445.46 96.344c-15.032 11.99-30.136 23.89-45.163 35.886-16.687 13.321-33.385 26.631-49.934 40.123-3.784 3.085-8.928 4.77-10.878 9.895-2.904-1.615-3.86-5.329-2.424-9.122 4.052-10.693 5.268-22.068 7.853-33.113 1.271-5.432 2.311-10.874 5.6-15.54 1.644-.087 2.373-1.469 3.265-2.49 7.34-8.416 16.63-14.66 25.127-21.68 8.61-7.115 17.836-13.67 26.463-20.774C417.52 69.526 429.937 59.86 442.193 50c12.04-9.686 23.56-20.088 36.73-28.323Z"/>
		<path class="cls-1" d="M339.485 182.248c1.95-5.125 7.094-6.81 10.878-9.895 16.549-13.492 33.247-26.802 49.934-40.123 15.027-11.996 30.13-23.896 45.163-35.886 13.143-10.483 26.224-21.044 39.35-31.548q19.344-15.479 38.714-30.924c1.468-1.175 2.911-2.312 4.872-2.48 3.791 11.81 5.5 24.067 7.766 36.204.181.969.537 1.904.813 2.857a15.873 15.873 0 0 0-8.943 3.84c-7.532 6.768-15.558 12.912-23.467 19.205-8.802 7.003-17.78 13.79-26.449 20.953-5.19 4.288-11.25 7.244-16.435 11.503q-16.5 13.55-33.124 26.948c-9.428 7.574-19.039 14.921-28.446 22.52-12.073 9.755-24.024 19.662-36.027 29.503-6.391-4.897-12.808-9.76-19.161-14.706a17.233 17.233 0 0 1-5.438-7.971Z"/>
		<path class="cls-2" d="M364.084 204.925c12.003-9.841 23.954-19.748 36.027-29.502 9.407-7.6 19.018-14.947 28.446-22.52q16.646-13.371 33.124-26.95c5.186-4.258 11.245-7.214 16.435-11.502 8.67-7.163 17.647-13.95 26.449-20.953 7.909-6.293 15.935-12.437 23.467-19.205a15.873 15.873 0 0 1 8.943-3.84c3.035 4.664 3.912 10.037 4.439 15.359a44.298 44.298 0 0 0 3.148 12.712 13.511 13.511 0 0 1 .687 9.502c-1.455-.12-2.325.845-3.32 1.68-7.101 5.951-14.124 12.003-21.378 17.762-12.266 9.737-24.775 19.168-37.013 28.94-12.359 9.868-24.434 20.09-36.776 29.98-16.128 12.925-32.397 25.673-48.603 38.5-1.341 1.062-2.746 2.074-3.383 3.771-6.187-1.849-11.008-6.067-15.874-9.903-5.28-4.163-11.386-7.625-14.818-13.831Z"/>
		<path class="cls-1" d="M394.776 228.66c.637-1.698 2.042-2.71 3.383-3.771 16.206-12.828 32.475-25.576 48.603-38.5 12.342-9.89 24.417-20.113 36.776-29.981 12.238-9.772 24.747-19.203 37.013-28.94 7.254-5.76 14.277-11.81 21.378-17.762.995-.835 1.865-1.8 3.32-1.68 1.695 9.93 6.203 19.175 7.058 29.33a52.412 52.412 0 0 1 .377 6.346c-2.283 3.056-5.838 4.526-8.676 6.91q-12.257 10.295-24.905 20.122-13.642 10.658-27.135 21.503c-7.768 6.232-15.575 12.447-23.284 18.768-13.562 11.12-27.303 22.021-41.039 32.926-2.903 2.305-4.689 4.915-4.179 8.74-9.303-8.315-20.484-14.386-28.69-24.012Z"/>
		<path class="cls-2" d="M423.466 252.67c-.51-3.824 1.276-6.434 4.18-8.739 13.735-10.905 27.476-21.807 41.038-32.926 7.71-6.32 15.516-12.536 23.285-18.768q13.492-10.824 27.134-21.503 12.614-9.857 24.905-20.122c2.838-2.384 6.394-3.854 8.677-6.91 4.943 3.674 4.447 9.555 5.752 14.63 1.37 5.334 1.564 10.907 3.647 16.147 2.126 5.348-.076 11.113-4.905 14.687-8.93 6.61-17.35 13.845-25.87 20.969-8.072 6.75-16.661 12.878-24.9 19.435-13.93 11.085-27.663 22.42-41.7 33.365-3.805 2.966-6.966 6.69-11.333 9.042-3.255 1.753-6.3 1.56-8.826-.432-6.998-5.521-13.708-11.408-20.517-17.168-.182-.155-.188-.519-.276-.783.071-.057.142-.116.212-.175l-.36-.39Z"/>
		<path class="cls-1" d="M478.924 21.677c-13.17 8.235-24.691 18.637-36.731 28.323-12.256 9.86-24.674 19.526-36.824 29.53-8.627 7.103-17.853 13.658-26.463 20.772-8.497 7.021-17.787 13.265-25.127 21.68-.892 1.022-1.621 2.404-3.265 2.491.837-8.884 1.92-17.654 4.579-26.286a108.144 108.144 0 0 0 5.132-25.934 13.85 13.85 0 0 0 7.733-3.264c14.725-11.86 29.509-23.647 44.2-35.548 5.267-4.267 11.37-7.698 14.693-14.019 7.572 1.772 15.262.774 22.89.814 8.94.047 17.867.27 26.79.746a10.782 10.782 0 0 1 2.393.695Z"/>
		<path class="cls-2" d="M426.85 19.422c-3.321 6.32-9.425 9.752-14.692 14.02-14.691 11.9-29.475 23.688-44.2 35.547a13.85 13.85 0 0 1-7.733 3.264c-1.629-4.656.818-8.884 2.025-12.963a301.614 301.614 0 0 0 6.854-30.557c1.195-6.419 3.603-11.137 11.83-10.679 13.68.762 27.435.18 41.158.197 1.657.002 3.493-.509 4.759 1.171Z"/>
		<path class="cls-1" d="m423.609 253.028.36.391c-.07.06-.14.118-.212.175a.45.45 0 0 1-.148-.566Z"/>
	</g>
</svg>
