<svg version="1.1" id="Layer_1" xmlns="http://www.w3.org/2000/svg" x="0" y="0" viewBox="0 0 813 141.1" style="enable-background:new 0 0 813 141.1" xml:space="preserve">
	<style>
		.st0{fill:#4a8fe1}.st1{fill:#fefefe}.st2{fill:#716f73}.st3{fill:#4d8951}.st4{fill:#a6d3ea}.st5{fill:#3a3868}.st6{fill:#717073}.st7{fill:#1b995a}.st8{fill:#717b83}.st9{fill:#2ba3a4}.st10{fill:#717074}.st11{fill:#717173}.st12{fill:#707b83}.st13{fill:#67a3d1}.st14{fill:#2b5b68}.st15{fill:#b9dcf3}.st16{fill:#2a4b38}.st17{fill:#83939f}.st18{fill:#9dcce8}.st19{fill:#85939c}.st20{fill:#82929c}.st21{fill:#40a6d5}.st22{fill:#2b4b39}.st23{fill:#28493a}.st24{fill:#2ea3a7}.st25{fill:#f8fcfc}.st26{fill:#568f52}.st27{fill:#94c453}.st28{fill:#206289}.st29{fill:#f1fbfd}.st30{fill:#f6fdfe}.st31{fill:#f8fcfb}.st32{fill:#fafdfb}.st33{fill:#f4fcfd}.st34{fill:#65ac62}.st35{fill:#f8faf3}.st36{fill:#5ead5a}.st37{fill:#f6fcfa}.st38{fill:#85c5b8}.st39{fill:#3ca0d5}.st40{fill:#727a80}.st41{fill:#f6fcfd}.st42{fill:#fefefa}.st43{fill:#459ed2}.st44{fill:#5dae5b}.st45{fill:#5e7f47}.st46{fill:#fcfcfc}.st47{fill:#c1dbed}.st48{fill:#fbfdf8}.st49{fill:#ebf5f7}.st50{fill:#294949}.st51{fill:#8fc8e5}.st52{fill:#f7fcfc}.st53{fill:#fcfefa}.st54{fill:#4e8a56}.st55{fill:#64bde8}.st56{fill:#fefdfa}.st57{fill:#fbfdfc}.st58{fill:#449dd5}.st59{fill:#f6fbf7}.st60{fill:#279a5b}.st61{fill:#30493d}.st62{fill:#f5fbf9}.st63{fill:#35583b}.st64{fill:#323c62}.st65{fill:#f8fbf9}.st66{fill:#e7eff2}.st67{fill:#8dc1b6}.st68{fill:#fafcfa}.st69{fill:#f1fbf9}.st70{fill:#f7fefe}.st71{fill:#fdfefa}.st72{fill:#31a1a1}.st73{fill:#f9fefd}.st74{fill:#fafafc}.st75{fill:#fdfcf8}.st76{fill:#2d5c60}.st77{fill:#fdfcf9}.st78{fill:#f9fdfb}.st79{fill:#fbfbfb}.st80{fill:#518b58}.st81{fill:#5a82af}.st82{fill:#fdfef8}.st83{fill:#244c40}.st84{fill:#266495}.st85{fill:#42a0d3}.st86{fill:#5b80a9}.st87{fill:#2e5b63}.st88{fill:#fdfbf9}.st89{fill:#f8fdfb}.st90{fill:#fdfdf7}.st91{fill:#f3f9fb}.st92{fill:#309f96}.st93{fill:#93c367}.st94{fill:#3b3c68}.st95{fill:#e0f1f9}.st96{fill:#e4f6f9}.st97{fill:#fefef9}.st98{fill:#224c38}.st99{fill:#498ab2}.st100{fill:#fdfdf9}.st101{fill:#f9fefe}.st102{fill:#f6fcf2}.st103{fill:#fefcf9}.st104{fill:#eefcfe}.st105{fill:#fdfdf8}.st106{fill:#fbfdfa}.st107{fill:#275962}.st108{fill:#fdfef9}.st109{fill:#f2f8f2}.st110{fill:#f8fbfb}.st111{fill:#8a8a8a}.st112{fill:#f7fefd}.st113{fill:#eff8fb}.st114{fill:#fafcfb}.st115{fill:#e5f3f8}.st116{fill:#ecf7fa}.st117{fill:#fdfdf6}.st118{fill:#f5fdfd}.st119{fill:#7799bf}.st120{fill:#5c8055}.st121{fill:#6eaecc}.st122{fill:#fefef7}.st123{fill:#3282b5}.st124{fill:#f3fcf5}.st125{fill:#f4fafb}.st126{fill:#fef8fa}.st127{fill:#f5fcf9}.st128{fill:#3c9392}.st129{fill:#ebf6f6}.st130{fill:#98bfd6}.st131{fill:#fefdf7}.st132{fill:#658796}.st133{fill:#eef7f6}.st134{fill:#fafbf5}.st135{fill:#f8fcf9}.st136{fill:#fdfdf4}.st137{fill:#fdfbf8}.st138{fill:#fdfdf5}.st139{fill:#eff9fd}.st140{fill:#fdfef6}.st141{fill:#37586d}.st142{fill:#fdfef5}.st143{fill:#fdfbf6}.st144{fill:#324a49}.st145{fill:#f8f8f9}.st146{fill:#cdf5cd}.st147{fill:#fefdf3}.st148{fill:#ecfbfe}.st149{fill:#858585}.st150{fill:#c5c5c5}.st151{fill:#6c6c6c}.st152{fill:#498b4f}.st153{fill:#478a4d}.st154{fill:#4a884d}.st155{fill:#429169}.st156{fill:#3ca29d}.st157{fill:#518654}.st158{fill:#51855f}.st159{fill:#289fa0}.st160{fill:#448e49}.st161{fill:#458b55}.st162{fill:#568356}.st163{fill:#89c9ed}.st164{fill:#246081}.st165{fill:#206186}.st166{fill:#8ec8e9}.st167{fill:#2b5d7d}.st168{fill:#215f80}.st169{fill:#a0d4ef}.st170{fill:#a4d3f2}.st171{fill:#245e84}.st172{fill:#69bada}.st173{fill:#9ac9d1}.st174{fill:#9ac7dd}.st175{fill:#3b396c}.st176{fill:#3a376d}.st177{fill:#3d366c}.st178{fill:#6a9bc9}.st179{fill:#57b156}.st180{fill:#2a9762}.st181{fill:#139c59}.st182{fill:#169a5e}.st183{fill:#139c5d}.st184{fill:#129652}.st185{fill:#61839b}.st186{fill:#637f92}.st187{fill:#289193}.st188{fill:#288f8d}.st189{fill:#34a3a8}.st190{fill:#23a7a5}.st191{fill:#36a2a8}.st192{fill:#32a1a0}.st193{fill:#23a7a2}.st194{fill:#249a96}.st195{fill:#fcfcfd}.st196{fill:#fdfdfd}.st197{fill:#6b7b8c}.st198{fill:#4c84b0}.st199{fill:#4f81ba}.st200{fill:#5280b6}.st201{fill:#6ca1ce}.st202{fill:#6ca0cf}.st203{fill:#7aa4cc}.st204{fill:#71a3d5}.st205{fill:#6aa3c9}.st206{fill:#6ea5d6}.st207{fill:#6c97b9}.st208{fill:#4f6684}.st209{fill:#2d5d62}.st210{fill:#275c5e}.st211{fill:#2b5859}.st212{fill:#285c5e}.st213{fill:#9fcce5}.st214{fill:#bcdbef}.st215{fill:#b5ddf9}.st216{fill:#234d37}.st217{fill:#2e483a}.st218{fill:#8294a2}.st219{fill:#256286}.st220{fill:#8095a3}.st221{fill:#3fa6da}.st222{fill:#62beec}.st223{fill:#40a7d6}.st224{fill:#43a3df}.st225{fill:#274c3b}.st226{fill:#4c9fc8}.st227{fill:#234d32}.st228{fill:#2c473d}.st229{fill:#27572d}.st230{fill:#2d473f}.st231{fill:#22a69e}.st232{fill:#22a1a1}.st233{fill:#378e8d}.st234{fill:#268c8a}.st235{fill:#40817e}.st236{fill:#528e4d}.st237{fill:#94c15c}.st238{fill:#518d4f}.st239{fill:#4b954a}.st240{fill:#95c350}.st241{fill:#93c451}.st242{fill:#90c147}.st243{fill:#90b254}.st244{fill:#1a6292}.st245{fill:#2f82b5}.st246{fill:#3fa7da}.st247{fill:#43a5d7}.st248{fill:#51add8}.st249{fill:#57b0e2}.st250{fill:#4c95b8}.st251{fill:#7bc2eb}.st252{fill:#7bc2e8}.st253{fill:#439dce}.st254{fill:#1a66a0}.st255{fill:#429fd0}.st256{fill:#22669e}.st257{fill:#42a1d2}.st258{fill:#42a6d7}.st259{fill:#4ea6cd}.st260{fill:#90b15f}.st261{fill:#5eaf59}.st262{fill:#1568a3}.st263{fill:#44a4d8}.st264{fill:#2d5f86}.st265{fill:#82c6b7}.st266{fill:#93c6b3}.st267{fill:#81c7bd}.st268{fill:#8cc3bb}.st269{fill:#3ea0d1}.st270{fill:#429ed2}.st271{fill:#449dd7}.st272{fill:#3aa1da}.st273{fill:#3d9fd7}.st274{fill:#439dd3}.st275{fill:#69a46e}.st276{fill:#74b273}.st277{fill:#58ab52}.st278{fill:#325946}.st279{fill:#214a49}.st280{fill:#244b3f}.st281{fill:#3181b4}.st282{fill:#1da3a4}.st283{fill:#346e9f}.st284{fill:#869197}.st285{fill:#53b0ea}.st286{fill:#5181c0}.st287{fill:#1767a6}.st288{fill:#3f9fd5}.st289{fill:#399291}.st290{fill:#27a2a7}.st291{fill:#81969c}.st292{fill:#46a4d7}.st293{fill:#c7dcb8}.st294{fill:#b5b5b5}.st295{fill:#4f9a83}.st296{fill:#63bde8}.st297{fill:#95c3e7}.st298{fill:#1d618b}.st299{fill:#1d6286}.st300{fill:#3181b5}.st301{fill:#249190}.st302{fill:#2c9096}.st303{fill:#23918e}.st304{fill:#2e939a}.st305{fill:#469dd6}.st306{fill:#40a0d2}.st307{fill:#4b82c0}.st308{fill:#809398}.st309{fill:#69bce2}.st310{fill:#5bbfeb}.st311{fill:#5dbef5}.st312{fill:#42a6d8}.st313{fill:#39a4dc}.st314{fill:#94c356}.st315{fill:#95c446}.st316{fill:#2b83b5}.st317{fill:#2a83b8}.st318{fill:#3ea7de}.st319{fill:#37a8df}.st320{fill:#7cc9f7}.st321{fill:#1568a7}.st322{fill:#3ea7dd}.st323{fill:#3aa9da}.st324{fill:#55b0e2}.st325{fill:#5faf60}.st326{fill:#16639a}.st327{fill:#16689e}.st328{fill:#419fce}.st329{fill:#216186}.st330{fill:#21607d}.st331{fill:#3ba7dd}.st332{fill:#6e408a}.st333{fill:#3a3a3c}.st334{fill:none}.st335{fill:#44546a}.st336{fill:#e67c0c}.st337{fill:#922a50}.st338{fill:#e67c0d}.st339{fill:#4471cd}.st340{fill:#922b50}.st341{fill:#45556b}.st342{fill:#922b51}.st343{fill:#4571cd}.st344{fill:#46556b}.st345{fill:#45556a}.st346{fill:#f0b272}.st347{fill:#1d94d2}.st348{fill:#3c3f3f}.st349{fill:#080809}.st350{fill:#048dc9}.st351{fill:#7496a2}.st352{fill:#9daac1}.st353{fill:#868689}.st354{fill:#052c50}.st355{fill:#101214}.st356{fill:#191c1e}.st357{fill:#242c35}.st358{fill:#343c42}.st359{fill:#343b44}.st360{fill:#3d4a5b}.st361{fill:#73aafe}.st362{fill:#4ccafe}.st363{fill:#cfe1fd}.st364{fill:#87dcfe}.st365{fill:#0090cc}.st366{fill:#008fcc}.st367{fill:none;stroke:#407dcc;stroke-width:0;stroke-linecap:round;stroke-linejoin:round}.st368{fill:#407dcc}.st369{fill:#15191e}.st370{fill:#10191f}.st371{fill:#12161b}.st372{fill:#0e181e}.st373{fill:#121d24}.st374{fill:#3f7bc7}.st375{fill:#222932}.st376{fill:#22404e}.st377{fill:#202831}.st378{fill:#010101}.st379{fill:#161a1f}.st380{fill:#323c47}.st381{fill:#303b48}.st382{fill:#14181b}.st383{fill:#353f4a}.st384{fill:#194691}.st385{fill:#164c96}.st386{fill:#184893}.st387{fill:#174a94}.st388{fill:#184792}.st389{fill:#184892}.st390{fill:#0090cd}.st391{fill:#018cca}.st392{fill:#fdbb87}.st393{fill:#fe9545}.st394{fill:#fe8b00}.st395{fill:#dc5900}.st396{fill:#de6d45}.st397{fill:#292925}.st398{fill:#63a1bf}.st399{fill:#61a1bf}.st400{fill:#8dc53f}.st401{fill:#8ec642}.st402{fill:#61853a}.st403{fill:#424243}.st404{fill:#8ec641}.st405{fill:#8dc640}.st406{fill:#414142}.st407{fill:#94c94c}.st408{fill:#4c4c4d}.st409{fill:#62863c}.st410{fill:#8dc540}.st411{fill:#577138}.st412{fill:#a2b24f}.st413{fill:#dcdf72}.st414{fill:#5e3108}.st415{fill:#074354}.st416{fill:#04c594}.st417{fill:#95aeb6}.st418{fill:#4b4b4b}.st419{fill:#5c5b5b}.st420{fill:#ababab}.st421{fill:#474646}.st422{fill:#454444}.st423{fill:#8c8c8c}.st424{fill:#292828}.st425{fill:#818181}.st426{fill:#c1c1c1}.st427{fill:#aaa}.st428{fill:#a1a0a0}.st429{fill:#7a7879}.st430{fill:#c9c9c9}.st431{fill:#787878}.st432{fill:#474747}.st433{fill:#939393}.st434{fill:#9d9d9d}.st435{fill:#323131}.st436{fill:#646464}.st437{fill:#5f5f5f}.st438{fill:#454545}.st439{fill:#565555}.st440{fill:#504f4f}.st441{fill:#464646}.st442{fill:#807f7f}.st443{fill:#515050}.st444{fill:#444242}.st445{fill:#a8a8a8}.st446{fill:#b6b6b6}.st447{fill:#545454}.st448{fill:#6e6e6e}.st449{fill:#9c9c9c}.st450{fill:#a9a9a9}.st451{fill:#949494}.st452{fill:#353434}.st453{fill:#727272}.st454{fill:#585858}.st455{fill:#585757}.st456{fill:#7e7d7d}.st457{fill:#4c4b4b}.st458{fill:#3a3a3a}.st459{fill:#989898}.st460{fill:#484848}.st461{fill:#817f80}.st462{fill:#7a7a7a}.st463{fill:#5b5a5b}.st464{fill:#adadad}.st465{fill:#737373}.st466{fill:#2e2d2d}.st467{fill:#757575}.st468{fill:#5a5959}.st469{fill:#717171}.st470{fill:#595859}.st471{fill:#989797}.st472{fill:#393939}.st473{fill:#818080}.st474{fill:#929292}.st475{fill:#3f3f3f}.st476{fill:#bebebe}.st477{fill:#494949}.st478{fill:#494848}.st479{fill:#696868}.st480{fill:#828181}.st481{fill:#c8c8c8}.st482{fill:#616060}.st483{fill:#615f60}.st484{fill:#686767}.st485{fill:#7f7e7e}.st486{fill:#b3b3b3}.st487{fill:#a09f9f}.st488{fill:#4d4c4c}.st489{fill:#e2e2e2}.st490{fill:#d8d8d8}.st491{fill:#3e3e3e}.st492{fill:#a4a4a4}.st493{fill:#8b898a}.st494{fill:#4c4c4c}.st495{fill:#a3a3a3}.st496{fill:#333232}.st497{fill:#6c6b6b}.st498{fill:#7b7a7a}.st499{fill:silver}.st500{fill:#313131}.st501{fill:#7c7b7b}.st502{fill:#393838}.st503{fill:#414141}.st504{fill:#676666}.st505{fill:#6f6e6e}.st506{fill:#414040}.st507{fill:#7f7f7f}.st508{fill:#4d4d4d}.st509{fill:#6a6969}.st510{fill:#6b6a6a}.st511{fill:#7e7e7e}.st512{fill:#787777}.st513{fill:#777}.st514{fill:#d5d5d5}.st515{fill:#a1a1a1}.st516{fill:#848384}.st517{fill:#595959}.st518{fill:#575757}.st519{fill:#acacac}.st520{fill:#8a8889}.st521{fill:#cfcfcf}.st522{fill:#cacaca}.st523{fill:#8d8d8d}.st524{fill:none;stroke:#a3a3a3;stroke-width:0;stroke-linecap:round;stroke-linejoin:round}.st525{fill:#4d4c4d}.st526{fill:#9f9f9f}.st527{fill:#8b8a8a}.st528{fill:#bbb}.st529{fill:#5b5a5a}.st530{fill:#c2c2c2}.st531{fill:#a6a6a6}.st532{fill:#b4b4b4}.st533{fill:#c6c6c6}.st534{fill:#a3a2a2}.st535{fill:#b7b7b7}.st536{fill:#828081}.st537{fill:#afafaf}.st538{fill:#d1d1d1}.st539{fill:#d3d3d3}.st540{fill:#cecece}.st541{fill:#bababa}.st542{fill:#a4a3a3}.st543{fill:#e0e0e0}.st544{fill:#d7d7d7}.st545{fill:#b1b1b1}.st546{fill:#a7a7a7}.st547{fill:#d2d2d2}.st548{fill:#151f34}.st549{filter:url(#Adobe_OpacityMaskFilter)}.st550{fill:#fff}.st551{mask:url(#b_1_);fill:#151f34}.st552{fill:#348540}.st553{fill:#7dbc42}
	</style>
	<g id="TdI2jd.tif">
		<path d="M143.3 5v39.9c0 3.5.1 3.6 3.5 3.6h36.3c4.1 0 4.7.6 4.7 4.6v35.8c0 4.2 0 4.2-4.1 4.2h-79.2c-4.1 0-4.1 0-4.1 4.1V136H55.8V96.8c0-3.6-.1-3.7-3.7-3.7H12.3V48.5c27.7 0 55.5 0 83.2.1 2.3 0 3.3-.8 3.2-3.2 0-13.5.1-26.9 0-40.4h44.6z" style="fill:#55d4f5"/>
		<path d="M802.6 93.1c-1.6 1.6-2.9 3.5-4.4 5.2-3.6 4.2-8.3 6.1-13.6 6.3-4.6.2-9.2.1-13.7 0-5.5-.1-10.2-2-13.7-6.4-1.7-2.2-4.2-3.7-4.9-6.7-.3-1.2-.5-2.3-.5-3.5V52.3c0-3.6 2-6.2 4-8.9 2.9-4.1 7.5-4.8 11.5-6.9.5-.2 1.1-.2 1.6-.2 6 0 12.1-.4 18.1.1 3.6.3 7 2.2 9.7 4.8 2 1.8 3.6 4 5.9 5.6v46.3zm-36.2-22.8v14c0 3.9 2 5.8 5.8 5.8h11c2.9-.1 6.6-3.9 6.6-6.7V58.9c0-4.6-3.5-8.1-8.1-8.1h-9.1c-4.5 0-6.1 1.7-6.2 6.3v13.2z"/>
		<path d="M334.7 70.6V42c0-4.2 0-4.2 4.3-4.2 9.4 0 18.7.3 28.1-.1 5.9-.3 9.8 2.5 13.3 6.5 2.3 2.7 3.3 5.7 3.1 9.3-.2 3-.3 6.1 0 9.1.5 5-2.1 8.3-5.3 11.4-1.2 1.2-2.3 2.8-4.3 3.3-1.3.3-1.2 1.6-.4 2.4 4.5 4.7 6.6 11.1 11 16 1.6 1.8 2.3 4.5 3.9 6.5.7.9-.3 1.4-1 1.4-4.8 0-9.5.1-14.3 0-1.4 0-2-1.3-2.6-2.2-3.2-4.9-6.1-10-9.3-14.9-1.3-2-2.6-3.8-3.8-5.8-1.5-2.4-4-2.5-6.6-2.2-1.8.2-1.5 1.6-1.5 2.7v18.7c0 3.7-.1 3.8-3.9 3.8-2.5 0-5-.1-7.4 0-2.6.2-3.3-1-3.3-3.4V70.6zm22.6-5.3h6.5c3-.1 5-2.2 5.1-5.2 0-1.8.1-3.7 0-5.5-.1-2.7-1.3-3.8-3.9-3.8h-9.6c-7 .1-6.1-1-6.1 6.1 0 2.6-1.1 5.9.5 7.7 1.8 2 5.2.4 7.5.7z"/>
		<path d="M573.5 70.8c0-9.8.1-19.6 0-29.4 0-2.5.6-3.6 3.3-3.6 12.3.1 24.6.1 36.9 0 2.4 0 3.3.7 3.2 3.1-.2 2.2-.2 4.4 0 6.6.2 2.7-1 3.4-3.5 3.4-7.3-.1-14.7.1-22-.1-2.6-.1-3.5.8-3.3 3.3.2 1.7.2 3.5 0 5.2-.2 2.6.7 3.6 3.4 3.5 6.9-.2 13.8-.1 20.6 0 3.9 0 4.5.6 4.5 4.4 0 2.3-.1 4.6 0 6.9.1 2.4-.9 3.2-3.2 3.2-7.3-.1-14.7.1-22-.1-2.4 0-3.4.6-3.4 3.2.1 8.2 0 8.2 8.3 8.2 5.8 0 11.6.1 17.3 0 2.2 0 3.2.8 3.2 3-.1 3.2-.1 6.4 0 9.6 0 1.8-.7 2.4-2.5 2.4-12.7 0-25.5-.1-38.2 0-2.4 0-2.6-1.4-2.6-3.2V70.8z"/>
		<path d="M464.6 103.7h-3.3c-3.8 0-5.3-1.2-6.1-4.9-.3-1.6-.6-3.3-1.3-4.7-.8-1.5-1.9-2.7-4-2.7-5 .1-10.1 0-15.1 0-3.8 0-4.3.3-5 3.9-.5 2.3-2 4.2-2.5 6.5-.3 1.3-1.3 1.9-2.7 1.8-3.8-.1-7.5 0-11.3-.1-1.4 0-2.7.1-1.4-2.3 1.4-2.7 1.5-6 2.7-8.8 1.9-4.3 2.6-9 5-13.1.7-1.2.8-2.6 1.2-3.9 1.2-4.7 3-9.3 4.5-13.9 1.3-4 2.7-8 4.4-11.8 1.5-3.2 2.1-6.8 3.5-10.1.5-1.1.9-1.8 2.1-1.8h13.2c1.1 0 1.8.5 2.2 1.7.5 1.7 1.3 3.4 1.7 5.2 1.8 7.2 4.8 13.9 7.1 20.9 2.2 6.7 4.1 13.5 6.7 19.9 2.1 5.1 2.8 10.6 5.6 15.4 1.1 1.9.2 2.7-1.8 2.8h-5.4zm-23.3-44.2c-.1 4.1-2.4 7.2-3.4 10.7-.5 1.6-.6 3.3-1.9 4.8-1 1.1.2 1.9 1.6 1.9 2.7 0 5.3.1 8 0 1.8-.1 2.5-1.4 1.6-3-2.6-4.4-2.9-9.7-5.9-14.4z"/>
		<path d="M252.3 70.3c0-4.3.2-8.6-.1-12.9-.2-3.1 1-5.9 1.2-8.9.1-1.6 1.7-2.3 2.6-3.4 4.5-5.3 9.7-9.2 17.2-8.8 2.7.1 5.3.1 8 0 7.1-.2 12.4 3.1 17 8.3 2.3 2.6 3.1 5.9 5 8.6.9 1.2.4 2.8-1.5 3.1-3.1.4-6 1-8.8 2.6-2 1.1-3.7 0-5.4-3.5-1.6-3.3-3.8-4.9-7.4-4.6-2.1.2-4.2 0-6.3 0-3.6 0-5.6 1.9-5.6 5.5v28.6c0 3.2 2.1 5.2 5.3 5.2 2.4 0 4.8-.2 7.1 0 2.9.3 4.6-1.1 6-3.3 3.1-5 3.8-5.2 9.5-3.5 1.8.5 3.7 1 5.6 1.3 1.8.3 2.2 1.6 1.6 2.8-2.3 5-5 9.8-9.5 13.2-3.5 2.6-7.4 4.1-11.8 4-3.4-.1-6.8 0-10.2 0-6.8-.1-11.8-3.5-15.8-8.7-2.9-3.8-3.8-8.1-3.8-12.7.1-4.3.1-8.6.1-12.9z"/>
		<path d="M524.9 77.2c0 7.8-.1 15.6 0 23.4 0 2.4-.8 3.3-3.2 3.1-2.6-.2-5.3-.2-8 0-2.6.1-3.5-.9-3.5-3.5.1-14.7.1-29.3 0-44 0-6.1.6-5.3-5.5-5.4-2.9 0-5.9-.1-8.8 0-1.9 0-2.9-.6-2.8-2.7.1-2.6.1-5.1 0-7.7-.1-1.8.6-2.6 2.5-2.6h44.8c2.1 0 3 .8 2.9 3-.1 2.3-.1 4.6 0 6.9.1 2.5-1 3.2-3.3 3.2-4.1-.1-8.3.1-12.4-.1-2.3-.1-3 .8-2.9 3 .3 7.8.2 15.6.2 23.4z"/>
		<path d="M718 70.5c0 9.9-.1 19.8 0 29.7 0 2.6-.8 3.7-3.5 3.5-2.9-.2-5.9-.1-8.8 0-2.1.1-3-.8-2.9-2.9.1-4.3 0-8.6 0-12.9 0-15.5.1-31-.1-46.5 0-2.7.7-3.8 3.6-3.6 2.8.2 5.7.1 8.5 0 2.4-.1 3.2.9 3.1 3.3 0 9.8.1 19.6.1 29.4z"/>
		<path d="M651.7 95v-6c0-1.7.8-2.5 2.5-2.5h11.5c2 0 3.1 1 3.1 3v11.8c0 1.6-.8 2.4-2.4 2.4H654c-1.7 0-2.5-.9-2.4-2.6.2-2 .1-4 .1-6.1z"/>
	</g>
</svg>
