<svg xmlns="http://www.w3.org/2000/svg" width="200" height="128">
    <path fill="#838383" d="M179.92 62.77a2.4 2.4 0 00-1.26-1.77 9.54 9.54 0 00-1.64-.62c-.87-.26-1.78-.43-2.64-.72a1.42 1.42 0 01-1-1.54 1.56 1.56 0 011.13-1.5 4.3 4.3 0 012-.15 1.87 1.87 0 011.9 1.75.33.33 0 00.36.34h.38c.37 0 .46-.09.44-.46a2.35 2.35 0 00-1.39-2.1 5.24 5.24 0 00-4.65-.13 2.4 2.4 0 00-1.49 2.27 2.36 2.36 0 001.35 2.32 10.3 10.3 0 001.72.6c.85.25 1.73.41 2.56.72s1.05 1.12 1 2a1.56 1.56 0 01-1.13 1.47 4.42 4.42 0 01-2.76.09 2.09 2.09 0 01-1.58-1.79c-.11-.65-.11-.66-.76-.64-.41 0-.52.13-.48.53a3.16 3.16 0 001.75 2.56 5.86 5.86 0 003.45.44 3.26 3.26 0 002.14-1 3.37 3.37 0 00.68-1.49v-.85c0-.1-.06-.22-.08-.33zM156.74 56c-.06-.11-.17-.26-.27-.27-.58 0-.75 0-.81.58a8.55 8.55 0 01-.14.86h-.1l-.21-.24a5.41 5.41 0 00-.55-.62 4.33 4.33 0 00-6.45 1.26 7.42 7.42 0 00-.43 5.82c.72 2.41 2.59 3.32 4.93 3a3.5 3.5 0 002.58-1.39 6.8 6.8 0 01-.33 2.77 2.65 2.65 0 01-2.53 2 6.3 6.3 0 01-1.67-.19 1.78 1.78 0 01-1.3-1.32c-.2-.62-.2-.62-.84-.6-.39 0-.49.13-.41.52a2.86 2.86 0 001.39 2 5.08 5.08 0 002.81.6 3.89 3.89 0 003.89-2.86 10.6 10.6 0 00.45-3.45v-8.11a.79.79 0 00-.01-.36zm-1.82 7.53a3.24 3.24 0 01-6.11-.47 7.44 7.44 0 01.08-4.43 3.27 3.27 0 015.43-1.22 4.48 4.48 0 011 2.68v.9a6.11 6.11 0 01-.4 2.56zm-65.33-3.96a4.7 4.7 0 00-1.27-2.82 4.52 4.52 0 00-3.63-1.29 4.3 4.3 0 00-4.11 3 8.18 8.18 0 00-.22 3.84 5.11 5.11 0 001.33 2.91 5.06 5.06 0 006.36.44 3.51 3.51 0 001.28-2.09.42.42 0 00-.1-.35.88.88 0 00-1.13.33 4.94 4.94 0 01-.65 1.06 3.4 3.4 0 01-4.51 0 4.22 4.22 0 01-1.28-2.6c0-.41 0-.53.45-.53h7.11c.32 0 .47-.12.45-.45s-.02-1.02-.08-1.45zm-1.68.76h-5.86c-.44 0-.53-.09-.49-.54a3.4 3.4 0 016.79.07c.03.4-.05.47-.44.47zM166 55.46a4.27 4.27 0 00-4.06 3 8 8 0 00-.18 4.27 4.76 4.76 0 006.91 3.45 3.67 3.67 0 002-2.45c0-.21.08-.42-.2-.5a.8.8 0 00-1.08.51 2.63 2.63 0 01-1.89 1.68c-2.69.59-4.29-1.26-4.49-3.48 0-.39.05-.47.45-.47h7.1c.23 0 .42 0 .43-.32a5.85 5.85 0 00-.92-3.8 4.4 4.4 0 00-4.07-1.89zm3 4.87h-5.62c-.45 0-.52-.09-.47-.54a3.39 3.39 0 016.76-.22c.03.76.03.76-.73.76zm-58.75 3.12c0-1.53 0-3.05-.07-4.57a3.38 3.38 0 00-2.65-3.29 6 6 0 00-1.79-.09 3.54 3.54 0 00-2.64 1.5 2.41 2.41 0 01-.21.24l-.12-.05V52c0-.18-.11-.47-.24-.51a1.61 1.61 0 00-.87 0c-.1 0-.18.37-.18.56v13.7a.8.8 0 000 .31.53.53 0 00.21.29.65.65 0 001-.64v-5.9a3.11 3.11 0 013-3.3 2.58 2.58 0 013.07 2.25 6.52 6.52 0 01.1 1.17v4.89a11.62 11.62 0 000 1.18c0 .13.13.34.23.35a2.33 2.33 0 00.79 0 .42.42 0 00.36-.47c0-.83.02-1.63.01-2.43zm31.01-7.91a4.44 4.44 0 00-4.19 2.78 7.1 7.1 0 00-.48 3.73 4.73 4.73 0 004.52 4.55 4.58 4.58 0 004.56-2.52 7 7 0 00.66-3c0-.34-.05-.69-.09-1a4.7 4.7 0 00-4.98-4.54zm3 8.49a3.34 3.34 0 01-5.62.08 6.1 6.1 0 01.05-6.19 3.37 3.37 0 015.44 0 6.12 6.12 0 01.13 6.1zM128 55.59a4.59 4.59 0 00-5.14 2.93 7.38 7.38 0 00-.4 3.33c.21 2.47 1.67 4.64 4.64 4.75a4.47 4.47 0 004.41-2.43 6.57 6.57 0 00.71-3.08c-.05-.45-.06-.9-.13-1.34a4.61 4.61 0 00-4.09-4.16zm2.16 8.41a3.06 3.06 0 01-3 1.62 3.26 3.26 0 01-2.91-2 6.23 6.23 0 01-.54-2.54 6 6 0 01.7-2.88 3.33 3.33 0 015.73-.07 5.62 5.62 0 01.02 5.87zm-9.1-5.16a3.43 3.43 0 00-2-3 4.48 4.48 0 00-2.5-.33A3.64 3.64 0 00114 57a2.09 2.09 0 01-.2.22h-.11c0-.33-.1-.65-.14-1s-.17-.49-.68-.47-.38.25-.38.52v9.57c0 .48.06.53.59.53s.6-.07.6-.52v-4.68a14.22 14.22 0 01.07-1.73 3.12 3.12 0 013.51-3 2.51 2.51 0 011.85.81 3.15 3.15 0 01.73 2.18v6.38c0 .42.09.51.51.52h.28c.43 0 .51-.09.51-.54v-3c-.02-1.31.02-2.64-.08-3.95zm-21.94 3.9a.41.41 0 00-.45.37 3.43 3.43 0 01-.27.78 3 3 0 01-2.75 1.61 3.41 3.41 0 01-3.45-2.17 6.42 6.42 0 01-.42-2.33c0-.42 0-.85.12-1.27a3.43 3.43 0 013.1-3.24 3 3 0 013.47 2.14c.19.59.19.59.81.59h.21c.28 0 .4-.11.35-.41a3.6 3.6 0 00-1.8-2.69 5.33 5.33 0 00-3.18-.65A4.16 4.16 0 0091.13 58a7.32 7.32 0 000 6.11 3.91 3.91 0 002.57 2.22 5.73 5.73 0 003.38 0 3.84 3.84 0 002.7-2.69c.22-.85.15-.92-.66-.9zM82.46 52c0-.49-.07-.57-.59-.57H71.68a1.86 1.86 0 00-.41 0 .46.46 0 00-.28.16.55.55 0 00.48.86h4c.52 0 .56 0 .56.55v12.82a.56.56 0 00.17.41.65.65 0 001-.6V53.08c0-.55 0-.59.59-.59h4.13c.39 0 .54-.15.54-.49zm52.54-.45c-.29-.29-.66-.18-1-.14s-.24.32-.24.53v13.91c0 .4.09.49.49.5h.35c.34 0 .47-.15.47-.5v-14a.54.54 0 00-.07-.3zm24.25 4.18c-.37 0-.47.11-.47.48v9.63c0 .44.07.5.5.51h.24c.43 0 .53-.11.53-.54v-9.32c0-.78-.05-.79-.8-.76zm.58-3.4a2.55 2.55 0 00-.78 0c-.11 0-.24.22-.26.35a3.62 3.62 0 000 .93.49.49 0 00.31.32c.82.13 1 0 1-.81a3 3 0 000-.52c-.1-.1-.18-.26-.27-.27z"/>
    <path fill="#057db7" d="M59.93 63.64c0-.46 0-.46-.45-.46h-5.31c-.55 0-.55 0-.55-.54v-11c0-.47 0-.47-.48-.47h-2.57c-.47 0-.47 0-.47.48v4.72a.91.91 0 01-.36.79C48 58.57 46.26 60 44.52 61.4l-2.21 1.79c-.1.07-.31.15-.37.1-.55-.45-1.07-.92-1.63-1.4l8.07-6.34c-.76-.61-1.46-1.17-2.14-1.76a.35.35 0 00-.53 0l-2.94 2.31q-2.28 1.78-4.55 3.58a.4.4 0 01-.64 0c-.36-.34-.74-.66-1.11-1a4 4 0 01-.28-.29l8-6.09c-.73-.61-1.43-1.16-2.1-1.74a.4.4 0 00-.59 0l-7.83 6-.37.28c-.06-.19-.11-.32-.15-.45A7.44 7.44 0 0026 51.18h-5.54c-.46 0-.46 0-.46.45v14.12c0 .48 0 .48.47.48h4.47c.75 0 1.51 0 2.25-.08a7.18 7.18 0 006-5.21c0-.1.07-.2.12-.33l.23.16q4 3.06 8 6.13a.37.37 0 00.56 0c2.08-1.62 4.18-3.23 6.28-4.85l1.86-1.42h.1v5.12c0 .3.08.43.41.43h8.8c.28 0 .39-.09.38-.38-.01-.68 0-1.42 0-2.16zm-31.73-1a3.58 3.58 0 01-2.18.76h-2.36c-.3 0-.4-.1-.4-.4V54.65c0-.34.11-.44.44-.43h1.9a4.11 4.11 0 014 2.66 4.85 4.85 0 01-1.4 5.75zm42.18.53h-5.13c-.52 0-.53 0-.53-.53v-11c0-.34-.09-.46-.45-.45h-2.6c-.36 0-.44.11-.44.45v14.22c0 .25 0 .4.36.4h8.87c.26 0 .37-.09.36-.36v-2.26c.03-.37-.09-.47-.44-.47zm41.92 12.39a.58.58 0 00.41-.25.9.9 0 00.15-.53.75.75 0 00-.35-.7 2.14 2.14 0 00-1.12-.22h-1.13v3.64h1.36a1.57 1.57 0 001-.28.94.94 0 00.36-.78 1 1 0 00-.15-.56.8.8 0 00-.53-.32zm-1.3-1.1h.4a1 1 0 01.49.09.32.32 0 01.15.3.36.36 0 01-.14.32.77.77 0 01-.45.1H111zm1 2.25a.76.76 0 01-.47.12H111v-1h.48c.43 0 .64.15.64.45a.46.46 0 01-.12.43zm3.42-.71a1.38 1.38 0 01-.14.71.53.53 0 01-.47.21.41.41 0 01-.34-.15.79.79 0 01-.1-.45v-1.64h-.76v1.82a1 1 0 00.25.75 1 1 0 00.74.27 1.19 1.19 0 00.51-.11.77.77 0 00.34-.3l.1.36h.59v-2.79h-.76zm1.93-2.41c-.27 0-.41.13-.41.37s.14.38.41.38a.44.44 0 00.31-.1.38.38 0 00.11-.28c0-.24-.14-.37-.42-.37zm-.38 1.09h.76v2.78h-.76zm1.56-1.09h.76v3.87h-.76zm2.47 3.24a.3.3 0 01-.09-.24v-1.34h.78v-.57h-.78v-.59h-.49l-.22.59-.41.25v.32h.36v1.34a1 1 0 00.21.7.87.87 0 00.66.23 1.78 1.78 0 00.7-.13v-.57a1.65 1.65 0 01-.48.09.32.32 0 01-.24-.08zm4.17-2.2a.9.9 0 00-.79.41v-1.45h-.75v3.88h.58l.12-.31a.93.93 0 00.77.36 1 1 0 00.79-.38 1.75 1.75 0 00.28-1.07A1.83 1.83 0 00126 75a.93.93 0 00-.83-.37zm.14 2.06a.42.42 0 01-.37.21.47.47 0 01-.42-.19 1.18 1.18 0 01-.14-.65V76a1 1 0 01.14-.57.49.49 0 01.41-.17.44.44 0 01.38.2 1.16 1.16 0 01.14.62 1.23 1.23 0 01-.14.61zm2.69-.44a1.87 1.87 0 00-.11.48 1.64 1.64 0 00-.09-.48l-.52-1.57h-.84l1.11 2.77-.05.13a.79.79 0 01-.23.38.55.55 0 01-.35.12 1.39 1.39 0 01-.3 0v.6a1.58 1.58 0 00.38 0 1.15 1.15 0 00.71-.22 1.34 1.34 0 00.46-.65l1.18-3.14h-.82zm4.63-1.83a1.18 1.18 0 01.41.07 3 3 0 01.41.17l.25-.63a2.48 2.48 0 00-1.07-.26 1.74 1.74 0 00-.9.23 1.48 1.48 0 00-.6.66 2.33 2.33 0 00-.2 1 2 2 0 00.42 1.38 1.49 1.49 0 001.21.49 2.66 2.66 0 001-.19v-.65a2.79 2.79 0 01-.93.19c-.6 0-.91-.4-.91-1.21a1.55 1.55 0 01.24-.92.77.77 0 01.67-.33zm2.72.35a1.16 1.16 0 00-.35.38l-.12-.47h-.57v2.79h.69v-1.42a.69.69 0 01.2-.52.79.79 0 01.57-.19h.22l.06-.71h-.26a.92.92 0 00-.44.14zm2.34-.14a1.28 1.28 0 00-1 .38 1.58 1.58 0 00-.35 1.08 1.39 1.39 0 00.38 1 1.45 1.45 0 001.05.38 2.9 2.9 0 00.56 0 1.5 1.5 0 00.42-.15v-.59a2.44 2.44 0 01-.47.17 2.26 2.26 0 01-.47 0 .67.67 0 01-.5-.18.74.74 0 01-.2-.51h1.8v-.37a1.25 1.25 0 00-.33-.92 1.2 1.2 0 00-.89-.29zm-.53 1.13a.73.73 0 01.16-.44.56.56 0 01.76 0 .67.67 0 01.15.44zm4.04.24a2.17 2.17 0 00-.47-.25 2.94 2.94 0 01-.48-.22.22.22 0 01-.11-.18c0-.12.11-.18.34-.18a1.19 1.19 0 01.37.06l.39.15.23-.55a2.26 2.26 0 00-1-.22 1.42 1.42 0 00-.81.2.66.66 0 00-.29.58.8.8 0 00.07.36.54.54 0 00.22.26 2 2 0 00.47.25l.36.17a.87.87 0 01.19.13.2.2 0 01.05.14c0 .16-.14.24-.41.24a1.73 1.73 0 01-.47-.07 2.7 2.7 0 01-.48-.16v.62a1.42 1.42 0 00.4.12 2.62 2.62 0 00.52 0 1.46 1.46 0 00.89-.23.75.75 0 00.3-.65.68.68 0 00-.3-.62zm1.8.83a.3.3 0 01-.09-.24v-1.34h.78v-.57h-.78v-.59h-.48l-.22.59-.42.25v.32h.36v1.34a1 1 0 00.21.7.87.87 0 00.67.23 1.77 1.77 0 00.69-.13v-.57a1.54 1.54 0 01-.48.09.35.35 0 01-.24-.08zm3.83-3h-1.14v3.64h1a2.08 2.08 0 001.51-.47 1.8 1.8 0 00.51-1.38 1.71 1.71 0 00-.49-1.31 1.9 1.9 0 00-1.39-.48zm0 3h-.33v-2.37h.41c.69 0 1 .39 1 1.17s-.37 1.2-1.12 1.2zm4.58-1.96a1.35 1.35 0 00-.86-.25 2.26 2.26 0 00-1.07.26l.25.51a1.87 1.87 0 01.79-.2.37.37 0 01.43.42v.12h-.48a1.77 1.77 0 00-.94.23.73.73 0 00-.31.65.91.91 0 00.23.66.89.89 0 00.63.23 1.28 1.28 0 00.53-.1 1.08 1.08 0 00.4-.33l.14.38h.53v-1.84a.92.92 0 00-.27-.74zm-.41 1.54a.52.52 0 01-.16.4.57.57 0 01-.42.15c-.25 0-.37-.11-.37-.32a.36.36 0 01.16-.33.84.84 0 01.5-.12h.29zm2.42.42a.3.3 0 01-.09-.24v-1.34h.78v-.57h-.78v-.59h-.49l-.22.59-.42.25v.32h.37v1.34a1 1 0 00.21.7.85.85 0 00.66.23 1.78 1.78 0 00.7-.13v-.57a1.65 1.65 0 01-.48.09.32.32 0 01-.24-.08zm3.28-1.96a1.35 1.35 0 00-.86-.25 2.26 2.26 0 00-1.07.26l.26.51a1.87 1.87 0 01.78-.2.37.37 0 01.43.42v.12h-.48a1.71 1.71 0 00-.93.23.73.73 0 00-.31.65.87.87 0 00.23.66.85.85 0 00.63.23 1.35 1.35 0 00.53-.1 1.14 1.14 0 00.39-.33l.15.38h.55v-1.84a.89.89 0 00-.3-.74zm-.46 1.54a.55.55 0 01-.15.4.61.61 0 01-.43.15c-.24 0-.37-.11-.37-.32a.37.37 0 01.17-.33.8.8 0 01.49-.12h.29zm4.18-1.05a3.51 3.51 0 01-.48-.25.78.78 0 01-.16-.15.34.34 0 010-.18.35.35 0 01.11-.26.49.49 0 01.34-.1 1.69 1.69 0 01.38 0 4.16 4.16 0 01.48.17l.25-.6a5 5 0 00-.54-.19 2.42 2.42 0 00-.54-.07 1.39 1.39 0 00-.91.28.94.94 0 00-.33.76 1.06 1.06 0 00.1.45 1.09 1.09 0 00.27.33 2 2 0 00.5.3l.47.25a.73.73 0 01.18.16.35.35 0 01-.08.48.63.63 0 01-.39.1 1.67 1.67 0 01-.47-.07 3.81 3.81 0 01-.62-.23v.72a2.4 2.4 0 001 .22 1.56 1.56 0 001-.29.93.93 0 00.35-.77 1 1 0 00-.19-.61 2 2 0 00-.72-.45zm2.67.89a1.87 1.87 0 00-.11.48 1.64 1.64 0 00-.09-.48l-.52-1.57h-.83l1.1 2.77v.13a.89.89 0 01-.24.38.55.55 0 01-.35.12 1.39 1.39 0 01-.3 0v.6a1.67 1.67 0 00.39 0 1.14 1.14 0 00.7-.22 1.34 1.34 0 00.46-.65l1.18-3.14h-.82zm3.37-.25a2.06 2.06 0 00-.48-.25 3.14 3.14 0 01-.47-.22.22.22 0 01-.11-.18c0-.12.11-.18.34-.18a1.19 1.19 0 01.37.06l.39.15.23-.55a2.29 2.29 0 00-1-.22 1.46 1.46 0 00-.82.2.67.67 0 00-.28.58 1 1 0 00.06.36.68.68 0 00.22.26 2.17 2.17 0 00.47.25l.36.17a.67.67 0 01.19.13.17.17 0 01.06.14q0 .24-.42.24a1.66 1.66 0 01-.46-.07 2.7 2.7 0 01-.48-.16v.62a1.33 1.33 0 00.4.12 2.54 2.54 0 00.52 0 1.48 1.48 0 00.89-.23.75.75 0 00.3-.65.8.8 0 00-.08-.36.67.67 0 00-.2-.21zm1.82.83a.3.3 0 01-.09-.24v-1.34h.81v-.57h-.78v-.59h-.48l-.22.59-.42.25v.32h.36v1.34a1 1 0 00.21.7.87.87 0 00.66.23 1.78 1.78 0 00.7-.13v-.57a1.59 1.59 0 01-.48.09.32.32 0 01-.27-.08zm2.43-2.2a1.28 1.28 0 00-1 .38 1.58 1.58 0 00-.35 1.08 1.39 1.39 0 00.38 1 1.45 1.45 0 001 .38 2.9 2.9 0 00.56 0 1.5 1.5 0 00.42-.15v-.59a2.44 2.44 0 01-.47.17 2.34 2.34 0 01-.47 0 .65.65 0 01-.5-.18.74.74 0 01-.2-.51H172v-.37a1.25 1.25 0 00-.33-.92 1.21 1.21 0 00-.96-.29zm-.53 1.13a.73.73 0 01.16-.44.56.56 0 01.76 0 .72.72 0 01.15.44zm5.67-1.13a1.15 1.15 0 00-.5.11.8.8 0 00-.33.3H175a.88.88 0 00-.85-.41 1.06 1.06 0 00-.48.11.74.74 0 00-.33.3l-.1-.36h-.58v2.79h.76v-1.31a1.39 1.39 0 01.13-.71.46.46 0 01.42-.21.36.36 0 01.32.15.79.79 0 01.1.45v1.63h.76v-1.4a1.13 1.13 0 01.14-.63.45.45 0 01.41-.2.36.36 0 01.32.15.79.79 0 01.1.45v1.63h.76v-1.82a1.07 1.07 0 00-.24-.78 1 1 0 00-.79-.24zm3.6 1.65a.67.67 0 00-.22-.26 2.06 2.06 0 00-.48-.25 3.14 3.14 0 01-.47-.22.22.22 0 01-.11-.18c0-.12.11-.18.34-.18a1.19 1.19 0 01.37.06l.39.15.23-.55a2.29 2.29 0 00-1-.22 1.46 1.46 0 00-.82.2.67.67 0 00-.28.58 1 1 0 00.06.36.68.68 0 00.22.26 2.17 2.17 0 00.47.25l.36.17a.67.67 0 01.19.13.17.17 0 01.06.14q0 .24-.42.24a1.66 1.66 0 01-.46-.07 2.7 2.7 0 01-.48-.16v.62a1.33 1.33 0 00.4.12 2.54 2.54 0 00.52 0 1.48 1.48 0 00.89-.23.75.75 0 00.3-.65.8.8 0 00-.06-.31z"/>
</svg>
