<svg xmlns="http://www.w3.org/2000/svg" width="200" height="128">
    <path d="M99.39 75.443a11.315 11.315 0 0 1-8.018-3.149 10.94 10.94 0 0 1-3.36-8.313 10.747 10.747 0 0 1 3.488-8.312 12.213 12.213 0 0 1 8.566-3.235 11.591 11.591 0 0 1 8.521 3.484l-2.77 3.4a8.914 8.914 0 0 0-5.839-2.518 7.386 7.386 0 0 0-5.122 1.975 6.471 6.471 0 0 0-2.142 5.039 7.314 7.314 0 0 0 7.391 7.348 8.206 8.206 0 0 0 5.919-2.855l2.77 3.023a12.852 12.852 0 0 1-9.4 4.114zm25.994-18.263a6.243 6.243 0 0 0-5.249 2.267 9.668 9.668 0 0 0-1.761 6.087v9.573h-4.7V52.771h4.7v4.494a9.8 9.8 0 0 1 3.064-3.443 7.532 7.532 0 0 1 4.155-1.385l.044 4.743zm9.635 17.927h-4.7V52.771h4.7zm-4.408-26.784a2.94 2.94 0 1 1 2.1.882 2.865 2.865 0 0 1-2.1-.882z" fill="#294172"/>
    <path d="M139.352 64.78v-4.408h13.937v4.408z" fill="#3c6eb4"/>
    <path d="M163.169 69.228a6.88 6.88 0 0 0 5.079 2.017 6.741 6.741 0 0 0 5.037-2.016 7.23 7.23 0 0 0 2.017-5.285 7.1 7.1 0 0 0-2.016-5.249 6.678 6.678 0 0 0-5.037-2.055 6.818 6.818 0 0 0-5.081 2.055 7.184 7.184 0 0 0-1.973 5.249 7.336 7.336 0 0 0 1.97 5.289zm13.476 2.9a12.286 12.286 0 0 1-16.793 0 11.136 11.136 0 0 1-3.358-8.186 11.013 11.013 0 0 1 3.354-8.145 12.179 12.179 0 0 1 16.795 0A11.008 11.008 0 0 1 180 63.94a11.137 11.137 0 0 1-3.359 8.186z" fill="#294172"/>
    <path d="M47.528 90.211L25.974 79.9l-5.383-23.3L35.43 37.863l23.888-.074L74.266 56.44l-5.245 23.33z" fill="#fff"/>
    <path d="M47.528 90.8a.587.587 0 0 1-.255-.058l-21.554-10.31a.59.59 0 0 1-.321-.4l-5.383-23.3a.592.592 0 0 1 .113-.5L34.967 37.5a.587.587 0 0 1 .461-.224l23.888-.076a.592.592 0 0 1 .461.221l14.95 18.649a.593.593 0 0 1 .115.5L69.6 79.9a.59.59 0 0 1-.319.4L47.786 90.742a.581.581 0 0 1-.258.058zM26.486 79.489l21.04 10.066 20.981-10.192 5.12-22.776-14.592-18.206-23.319.072-14.485 18.294z" fill="#3c6eb4"/>
    <path d="M42.454 78.694l-.743-.919 5.322-4.3.743.918zm13.924-1.734l-1.178-.039.228-6.839 1.182.039zm-16.832-6.234l-6.74-1.206.209-1.164 6.739 1.206zm23.977-5.3l-5.233-4.412.761-.9 5.233 4.406zM35.83 60.891l-3.219-6.037 1.043-.556 3.219 6.037zm17-7.8l-.252-1.154 6.685-1.459.252 1.155zm-9.808-.415l-1.079-.483 2.794-6.245 1.079.483z" fill="#3c6eb4"/>
    <path d="M38.14 42.588l-1.054.536 4.285 8.434-5.408-1.158-.246 1.156 6.343 1.352 1.892 3.722.4-.508h.664zm18.854.056L52.75 51.1l-2.281-5.037-1.078.488 2.677 5.908-1.834 3.652h.241l.663.83 6.91-13.766zM61.377 54.3l-3.049 5.72-4.083.788.061.075-.266 1.166L69.329 59.1l-.223-1.161-9.292 1.792 2.6-4.88zm-35.454 3.64L25.7 59.1l9.339 1.8-4.291 3.614.762.905 5.022-4.227 4.273.824-.255-1.089.112-.14zM53 66.7l-.033.149-1.026.5 11.812 10.228.774-.9-7.151-6.192 5.443-.972-.206-1.164-6.386 1.151zm-11.082.1l-11.412 9.882.774.893 7.192-6.225.19 5.607 1.18-.038-.22-6.562 3.407-2.948-1.1-.522zm4.9 2.412v15.462h1.18v-9.46l4.3 3.478.743-.918L48 73.694v-4.433l-.541.262z" fill="#294172"/>
    <path d="M47.454 70.265a.742.742 0 0 1-.318-.072l-5.523-2.639a.742.742 0 0 1-.4-.5l-1.383-5.963a.74.74 0 0 1 .141-.627l3.807-4.8a.741.741 0 0 1 .576-.28l6.12-.019a.738.738 0 0 1 .576.277l3.83 4.774a.74.74 0 0 1 .145.625l-1.346 5.971a.74.74 0 0 1-.4.5l-5.507 2.671a.745.745 0 0 1-.318.082zm-4.883-3.891l4.881 2.333 4.867-2.361 1.189-5.278-3.385-4.219-5.409.017-3.365 4.234z" fill="#294172"/>
</svg>
