<svg xmlns="http://www.w3.org/2000/svg" width="200" height="128">
    <path d="M99.788 20.657a4.087 4.087 0 0 0-1.558.394L76.979 31.205a4.041 4.041 0 0 0-2.2 2.734l-5.241 22.809a4 4 0 0 0 .551 3.09q.108.166.231.321l14.71 18.289a4.077 4.077 0 0 0 3.177 1.516h23.588a4.08 4.08 0 0 0 3.178-1.514l14.7-18.292a4 4 0 0 0 .786-3.41l-5.251-22.809a4.036 4.036 0 0 0-2.2-2.734l-21.25-10.154a4.1 4.1 0 0 0-1.97-.394z" fill="#326ce5"/>
    <path d="M99.776 19.006a4.3 4.3 0 0 0-1.641.418L75.7 30.141a4.258 4.258 0 0 0-2.321 2.886l-5.535 24.078a4.225 4.225 0 0 0 .582 3.264 4.007 4.007 0 0 0 .244.337L84.2 80.014a4.306 4.306 0 0 0 3.354 1.6l24.9-.006a4.3 4.3 0 0 0 3.353-1.6L131.328 60.7a4.229 4.229 0 0 0 .829-3.6l-5.542-24.08a4.258 4.258 0 0 0-2.321-2.884l-22.436-10.715a4.322 4.322 0 0 0-2.082-.415zm.011 1.652a4.1 4.1 0 0 1 1.971.394L123.012 31.2a4.034 4.034 0 0 1 2.2 2.734l5.251 22.808a4 4 0 0 1-.785 3.411l-14.7 18.292a4.078 4.078 0 0 1-3.178 1.515l-23.589.005a4.076 4.076 0 0 1-3.177-1.517L70.32 60.16q-.123-.154-.231-.321a4.006 4.006 0 0 1-.552-3.09L74.78 33.94a4.038 4.038 0 0 1 2.2-2.734l21.25-10.154a4.082 4.082 0 0 1 1.557-.394z" fill="#fff"/>
    <path d="M100 28.419a1.349 1.349 0 0 0-1.272 1.414v.035c0 .106-.006.234 0 .326A10.654 10.654 0 0 0 98.9 31.4a11.92 11.92 0 0 1 .142 2.308 1.386 1.386 0 0 1-.414.658l-.029.538a16.562 16.562 0 0 0-2.3.353 16.365 16.365 0 0 0-8.311 4.748c-.141-.1-.386-.272-.459-.326a1 1 0 0 1-.756-.073 11.87 11.87 0 0 1-1.715-1.549 10.611 10.611 0 0 0-.837-.889c-.078-.067-.2-.157-.283-.226a1.509 1.509 0 0 0-.886-.334 1.224 1.224 0 0 0-1.013.448 1.349 1.349 0 0 0 .312 1.876l.019.013c.084.068.187.155.264.212a10.4 10.4 0 0 0 1.054.617 11.914 11.914 0 0 1 1.892 1.329 1.419 1.419 0 0 1 .255.734l.408.364a16.463 16.463 0 0 0-2.595 11.475l-.533.155a1.777 1.777 0 0 1-.546.552 11.889 11.889 0 0 1-2.281.375 10.666 10.666 0 0 0-1.22.1c-.1.018-.233.054-.34.079h-.011l-.019.006a1.276 1.276 0 1 0 .566 2.478h.019l.024-.008c.105-.023.237-.049.329-.074a10.484 10.484 0 0 0 1.141-.437A11.954 11.954 0 0 1 83 56.25a1.4 1.4 0 0 1 .731.259l.555-.1a16.559 16.559 0 0 0 7.335 9.16l-.231.554a1.254 1.254 0 0 1 .113.719 12.327 12.327 0 0 1-1.151 2.07 10.634 10.634 0 0 0-.682 1.016c-.05.095-.115.242-.163.343a1.277 1.277 0 1 0 2.3 1.09c.048-.1.117-.23.158-.323a10.751 10.751 0 0 0 .367-1.166 8.863 8.863 0 0 1 .984-2.285 1.024 1.024 0 0 1 .549-.267l.288-.522a16.475 16.475 0 0 0 11.738.03c.081.143.232.419.272.489a1.006 1.006 0 0 1 .65.394 11.934 11.934 0 0 1 .872 2.139 10.565 10.565 0 0 0 .37 1.166c.041.094.109.226.157.326a1.278 1.278 0 1 0 2.3-1.087c-.049-.1-.116-.247-.166-.343a10.771 10.771 0 0 0-.682-1.013 11.9 11.9 0 0 1-1.128-2.02.992.992 0 0 1 .1-.75 4.082 4.082 0 0 1-.212-.514 16.549 16.549 0 0 0 7.332-9.224c.165.026.451.076.544.095a1 1 0 0 1 .7-.266 11.954 11.954 0 0 1 2.218.653 10.488 10.488 0 0 0 1.141.44c.092.025.224.048.329.071l.025.008h.019a1.277 1.277 0 1 0 .565-2.479c-.109-.025-.264-.067-.37-.087a10.648 10.648 0 0 0-1.22-.1 11.864 11.864 0 0 1-2.28-.375 1.425 1.425 0 0 1-.549-.552l-.514-.149a16.518 16.518 0 0 0-2.65-11.448c.132-.12.381-.34.451-.405a1 1 0 0 1 .24-.72 11.837 11.837 0 0 1 1.891-1.329 10.829 10.829 0 0 0 1.057-.617c.082-.061.194-.157.28-.226a1.278 1.278 0 1 0-1.584-1.989l-.283.225a10.827 10.827 0 0 0-.84.889 11.854 11.854 0 0 1-1.715 1.552 1.409 1.409 0 0 1-.772.084l-.483.345a16.674 16.674 0 0 0-10.559-5.1c-.012-.17-.026-.476-.03-.568a1.006 1.006 0 0 1-.416-.636 11.935 11.935 0 0 1 .149-2.307 10.654 10.654 0 0 0 .174-1.209v-.361A1.348 1.348 0 0 0 100 28.419zm-1.592 9.866l-.378 6.673-.03.013a1.122 1.122 0 0 1-1.781.859l-.01.005-5.472-3.878a13.114 13.114 0 0 1 6.311-3.438 13.468 13.468 0 0 1 1.358-.234zm3.188 0a13.211 13.211 0 0 1 7.621 3.675l-5.436 3.854-.019-.008a1.123 1.123 0 0 1-1.538-.207 1.109 1.109 0 0 1-.245-.65h-.006zm-12.84 6.164l5 4.468-.006.028a1.121 1.121 0 0 1-.44 1.927v.021l-6.4 1.849a13.105 13.105 0 0 1 1.859-8.293zm22.453 0a13.339 13.339 0 0 1 1.916 8.268l-6.436-1.854v-.027a1.122 1.122 0 0 1-.441-1.927v-.014l4.968-4.446zm-12.235 4.814h2.046l1.272 1.59-.456 1.984-1.836.883-1.842-.886-.458-1.984zm6.561 5.441a1.062 1.062 0 0 1 .258.019l.011-.014 6.623 1.12a13.119 13.119 0 0 1-5.3 6.662l-2.572-6.211.009-.011a1.124 1.124 0 0 1 .973-1.565zm-11.125.027a1.123 1.123 0 0 1 1.077.872 1.111 1.111 0 0 1-.063.691l.019.024-2.543 6.148a13.168 13.168 0 0 1-5.286-6.615l6.566-1.115.011.014a1.182 1.182 0 0 1 .22-.019zm5.548 2.693a1.134 1.134 0 0 1 1.027.59h.024l3.237 5.849c-.42.141-.852.261-1.293.362a13.158 13.158 0 0 1-7.178-.37L99 58.017a1.126 1.126 0 0 1 .958-.593z" fill="#fff"/>
    <path d="M86.664 98.887c0-4.109 2.716-6.491 5.845-6.491A5.22 5.22 0 0 1 96.232 94l-1.475 1.8a3.111 3.111 0 0 0-2.186-.986c-1.7 0-3.038 1.5-3.038 3.98 0 2.545 1.184 4.023 2.994 4.023a3.262 3.262 0 0 0 2.422-1.157l1.476 1.758a5.1 5.1 0 0 1-4 1.816c-3.139-.001-5.761-2.176-5.761-6.347zm11.643-6.263h4.46c2.626 0 4.778.912 4.778 3.855 0 2.846-2.152 4.071-4.778 4.071h-1.661v4.456h-2.8zm4.232 5.7c1.472 0 2.263-.631 2.263-1.849s-.791-1.632-2.263-1.632h-1.433v3.481zm-.285 1.484l1.936-1.791 3.952 6.985h-3.132zm7.7-7.188h2.8v12.382h-2.8z"/>
</svg>
