<svg xmlns="http://www.w3.org/2000/svg" xmlns:xlink="http://www.w3.org/1999/xlink" viewBox="0 0 800 800" style="enable-background:new 0 0 800 800" xml:space="preserve">
	<defs>
		<path id="a" d="M110.43 723.13c-25.56 0-46.24-20.82-46.24-46.38 0-25.43 20.68-46.24 46.24-46.24 13.31 0 26.09 5.8 34.78 15.81 2.77 3.29 2.5 8.04-.66 10.8-3.16 2.9-8.04 2.5-10.8-.66-5.93-6.72-14.36-10.54-23.32-10.54-17 0-30.96 13.83-30.96 30.83 0 17.13 13.96 30.96 30.96 30.96 8.96 0 17.39-3.82 23.32-10.54 2.77-3.16 7.64-3.56 10.8-.66 3.16 2.77 3.43 7.51.66 10.8-8.7 10.03-21.48 15.82-34.78 15.82"/>
	</defs>
	<use xlink:href="#a" style="overflow:visible;fill-rule:evenodd;clip-rule:evenodd;fill:#183d54"/>
	<clipPath id="b">
		<use xlink:href="#a" style="overflow:visible"/>
	</clipPath>
	<path style="clip-path:url(#b);fill:#183d54" d="M57.12 623.45h97.05v106.74H57.12z"/>
	<defs>
		<path id="c" d="M196.72 659.76c0 4.22-3.43 7.64-7.77 7.64-8.43 0-14.76 6.85-14.76 16.21v31.88a7.64 7.64 0 1 1-15.28 0v-57.31a7.64 7.64 0 0 1 7.64-7.64c3.56 0 6.45 2.37 7.38 5.66 4.48-2.64 9.62-4.08 15.02-4.08 4.34 0 7.77 3.43 7.77 7.64"/>
	</defs>
	<use xlink:href="#c" style="overflow:visible;fill-rule:evenodd;clip-rule:evenodd;fill:#183d54"/>
	<clipPath id="d">
		<use xlink:href="#c" style="overflow:visible"/>
	</clipPath>
	<path style="clip-path:url(#d);fill:#183d54" d="M151.85 643.48h51.93v86.71h-51.93z"/>
	<defs>
		<path id="e" d="M235.58 723.53c-20.03 0-36.23-16.34-36.23-36.23 0-20.03 16.2-36.36 36.23-36.36 20.03 0 36.36 16.34 36.36 36.36.01 19.89-16.33 36.23-36.36 36.23m0-57.31c-11.59 0-20.95 9.49-20.95 21.08 0 11.46 9.35 20.95 20.95 20.95 11.59 0 20.95-9.49 20.95-20.95 0-11.6-9.35-21.08-20.95-21.08"/>
	</defs>
	<use xlink:href="#e" style="overflow:visible;fill-rule:evenodd;clip-rule:evenodd;fill:#183d54"/>
	<clipPath id="f">
		<use xlink:href="#e" style="overflow:visible"/>
	</clipPath>
	<path style="clip-path:url(#f);fill:#183d54" d="M192.29 643.88H279v86.71h-86.71z"/>
	<defs>
		<path id="g" d="M284.59 709.83c-1.85-3.82-.13-8.43 3.69-10.15 3.95-1.84 8.43-.13 10.15 3.69 1.05 2.11 3.95 4.48 9.09 4.48 7.11 0 9.62-4.35 9.62-7.25 0-3.95-1.05-5.14-11.33-7.77-4.61-1.05-9.36-2.24-13.44-4.87-5.53-3.69-8.56-9.22-8.56-16.07 0-5.4 2.37-10.8 6.45-14.76 4.35-4.22 10.41-6.59 17.26-6.59 9.75 0 18.05 4.74 21.61 12.51 1.85 3.82.13 8.3-3.69 10.14-3.82 1.84-8.43.13-10.14-3.69-.79-1.71-3.29-3.69-7.77-3.69-6.06 0-8.3 3.82-8.3 6.06 0 2.64.53 3.69 10.28 6.19 8.56 2.11 22.92 5.66 22.92 22.53 0 5.66-2.37 11.33-6.59 15.55-3.29 3.16-9.09 6.98-18.31 6.98-10.42.01-19.25-5.12-22.94-13.29"/>
	</defs>
	<use xlink:href="#g" style="overflow:visible;fill-rule:evenodd;clip-rule:evenodd;fill:#183d54"/>
	<clipPath id="h">
		<use xlink:href="#g" style="overflow:visible"/>
	</clipPath>
	<path style="clip-path:url(#h);fill:#183d54" d="M276.74 643.48h62.74v86.71h-62.74z"/>
	<defs>
		<path id="i" d="M345.06 709.83c-1.84-3.82-.13-8.43 3.69-10.15 3.95-1.84 8.43-.13 10.15 3.69 1.05 2.11 3.95 4.48 9.09 4.48 7.12 0 9.62-4.35 9.62-7.25 0-3.95-1.05-5.14-11.33-7.77-4.61-1.05-9.36-2.24-13.44-4.87-5.53-3.69-8.56-9.22-8.56-16.07 0-5.4 2.37-10.8 6.46-14.76 4.35-4.22 10.41-6.59 17.26-6.59 9.75 0 18.05 4.74 21.61 12.51 1.85 3.82.13 8.3-3.69 10.14-3.82 1.84-8.43.13-10.15-3.69-.79-1.71-3.29-3.69-7.77-3.69-6.06 0-8.3 3.82-8.3 6.06 0 2.64.53 3.69 10.28 6.19 8.56 2.11 22.92 5.66 22.92 22.53 0 5.66-2.37 11.33-6.59 15.55-3.29 3.16-9.09 6.98-18.31 6.98-10.42.01-19.25-5.12-22.94-13.29"/>
	</defs>
	<use xlink:href="#i" style="overflow:visible;fill-rule:evenodd;clip-rule:evenodd;fill:#183d54"/>
	<clipPath id="j">
		<use xlink:href="#i" style="overflow:visible"/>
	</clipPath>
	<path style="clip-path:url(#j);fill:#183d54" d="M337.21 643.48h62.74v86.71h-62.74z"/>
	<defs>
		<path id="k" d="M473.78 686.77c0 9.75-3.29 18.71-9.49 25.43-6.45 6.98-15.28 10.93-25.03 10.93-6.98 0-13.57-2.11-19.1-5.8v31.09c0 4.22-3.56 7.64-7.77 7.64a7.64 7.64 0 0 1-7.64-7.64v-90.25a7.64 7.64 0 0 1 7.64-7.64c3.56 0 6.72 2.5 7.51 5.93a34.622 34.622 0 0 1 19.37-5.93c9.75 0 18.58 3.82 25.03 10.8 6.19 6.73 9.48 15.82 9.48 25.44m-15.28 0c0-12.12-8.04-20.95-19.24-20.95-11.07 0-19.1 8.83-19.1 20.95s8.04 20.95 19.1 20.95c11.2 0 19.24-8.83 19.24-20.95"/>
	</defs>
	<use xlink:href="#k" style="overflow:visible;fill-rule:evenodd;clip-rule:evenodd;fill:#183d54"/>
	<clipPath id="l">
		<use xlink:href="#k" style="overflow:visible"/>
	</clipPath>
	<path style="clip-path:url(#l);fill:#183d54" d="M397.68 643.48h83.15v119.65h-83.15z"/>
	<defs>
		<path id="m" d="M493.94 723.13c-4.22 0-7.64-3.43-7.64-7.64v-77.2c0-4.22 3.43-7.64 7.64-7.64 4.22 0 7.77 3.42 7.77 7.64v77.2c0 4.22-3.56 7.64-7.77 7.64"/>
	</defs>
	<use xlink:href="#m" style="overflow:visible;fill-rule:evenodd;clip-rule:evenodd;fill:#183d54"/>
	<clipPath id="n">
		<use xlink:href="#m" style="overflow:visible"/>
	</clipPath>
	<path style="clip-path:url(#n);fill:#183d54" d="M479.23 623.59h29.54V730.2h-29.54z"/>
	<defs>
		<path id="o" d="M583.26 658.18v57.31c0 4.22-3.43 7.64-7.64 7.64-3.69 0-6.72-2.5-7.51-5.93-5.53 3.82-12.25 5.93-19.37 5.93-9.75 0-18.58-3.82-25.03-10.93-6.06-6.59-9.48-15.68-9.48-25.3 0-9.75 3.42-18.84 9.48-25.43 6.46-7.11 15.28-10.93 25.03-10.93 7.11 0 13.83 2.11 19.37 5.93.79-3.43 3.82-5.93 7.51-5.93 4.21 0 7.64 3.43 7.64 7.64m-15.28 28.72c0-12.25-8.17-21.08-19.23-21.08-11.2 0-19.24 8.83-19.24 21.08 0 12.12 8.04 20.95 19.24 20.95 11.06 0 19.23-8.83 19.23-20.95"/>
	</defs>
	<use xlink:href="#o" style="overflow:visible;fill-rule:evenodd;clip-rule:evenodd;fill:#183d54"/>
	<clipPath id="p">
		<use xlink:href="#o" style="overflow:visible"/>
	</clipPath>
	<path style="clip-path:url(#p);fill:#183d54" d="M507.16 643.48h83.16v86.71h-83.16z"/>
	<defs>
		<path id="q" d="M656.64 682.03v33.46c0 4.22-3.43 7.64-7.77 7.64a7.64 7.64 0 0 1-7.64-7.64v-33.46c0-7.77-4.35-16.21-14.1-16.21-8.83 0-15.41 6.98-15.41 16.21v33.47a7.64 7.64 0 1 1-15.28 0v-57.31c0-4.22 3.43-7.64 7.64-7.64 3.16 0 5.8 1.84 6.98 4.48 4.61-2.9 10.14-4.48 16.07-4.48 16.73-.01 29.51 13.56 29.51 31.48"/>
	</defs>
	<use xlink:href="#q" style="overflow:visible;fill-rule:evenodd;clip-rule:evenodd;fill:#183d54"/>
	<clipPath id="r">
		<use xlink:href="#q" style="overflow:visible"/>
	</clipPath>
	<path style="clip-path:url(#r);fill:#183d54" d="M589.37 643.48h74.33v86.71h-74.33z"/>
	<defs>
		<path id="s" d="M703.02 723.79c-9.75 0-18.58-4.22-25.03-11.33-6.19-6.59-9.48-15.68-9.48-25.3 0-20.82 14.62-36.36 33.86-36.36 19.37 0 33.46 15.28 33.46 36.36 0 4.22-3.42 7.64-7.77 7.64h-43.08c2.64 8.04 9.49 13.7 18.05 13.7 5.16 0 9.54-1.09 12.67-4.09.95-.91 1.78-2 2.48-3.28 2.24-3.69 6.98-4.74 10.54-2.64 3.69 2.24 4.74 6.98 2.63 10.54-5.94 10.68-16.21 14.76-28.33 14.76m-18.19-44.4h34.65c-2.64-9.09-9.88-13.31-17.13-13.31-7.11.01-14.75 4.22-17.52 13.31"/>
	</defs>
	<use xlink:href="#s" style="overflow:visible;fill-rule:evenodd;clip-rule:evenodd;fill:#183d54"/>
	<clipPath id="t">
		<use xlink:href="#s" style="overflow:visible"/>
	</clipPath>
	<path style="clip-path:url(#t);fill:#183d54" d="M661.44 643.74h81.44v87.11h-81.44z"/>
	<defs>
		<path id="u" d="M398.4 211.65c-18.25 0-33.05 14.8-33.05 33.05v310.98c0 18.25 14.8 33.04 33.05 33.04 18.25 0 33.05-14.79 33.05-33.04V244.7c0-18.25-14.8-33.05-33.05-33.05"/>
	</defs>
	<clipPath id="v">
		<use xlink:href="#u" style="overflow:visible"/>
	</clipPath>
	<path style="clip-path:url(#v);fill:#f7d186" d="M342.07 188.37h112.65V612H342.07z"/>
	<defs>
		<path id="w" d="M268.29 158.47c-.09 2.03-.14 4.07-.14 6.13 0 2.25.05 4.49.17 6.71-.05 1.1-.17 2.18-.17 3.29v216.38c0 41.38 33.86 75.24 75.24 75.24h113.23c41.38 0 75.24-33.86 75.24-75.24V174.61c0-1.26-.13-2.48-.2-3.72.1-2.09.16-4.18.16-6.29 0-2.06-.05-4.1-.14-6.13-3.2-69.97-60.94-125.7-131.7-125.7-70.76 0-128.5 55.73-131.69 125.7z"/>
	</defs>
	<clipPath id="x">
		<use xlink:href="#w" style="overflow:visible"/>
	</clipPath>
	<g style="clip-path:url(#x);enable-background:new">
		<defs>
			<path id="y" d="M182.56 61.31h428.35v428.35H182.56z"/>
		</defs>
		<clipPath id="z">
			<use xlink:href="#y" style="overflow:visible"/>
		</clipPath>
		<g style="clip-path:url(#z)">
			<defs>
				<path id="A" transform="rotate(-45.001 399.039 277.85)" d="M167.81 208.76h462.46v138.17H167.81z"/>
			</defs>
			<clipPath id="B">
				<use xlink:href="#A" style="overflow:visible"/>
			</clipPath>
			<g style="clip-path:url(#B)">
				<defs>
					<path id="C" d="M266.37 28.72h270.04v437.66H266.37z"/>
				</defs>
				<clipPath id="D">
					<use xlink:href="#C" style="overflow:visible"/>
				</clipPath>
				<path style="clip-path:url(#D);fill:#ffcd3c" d="M163.71 42.46h470.43v470.43H163.71z"/>
			</g>
		</g>
	</g>
	<defs>
		<path id="E" d="M268.29 158.47c-.09 2.03-.14 4.07-.14 6.13 0 2.25.05 4.49.17 6.71-.05 1.1-.17 2.18-.17 3.29v216.38c0 41.38 33.86 75.24 75.24 75.24h113.23c41.38 0 75.24-33.86 75.24-75.24V174.61c0-1.26-.13-2.48-.2-3.72.1-2.09.16-4.18.16-6.29 0-2.06-.05-4.1-.14-6.13-3.2-69.97-60.94-125.7-131.7-125.7-70.76 0-128.5 55.73-131.69 125.7z"/>
	</defs>
	<clipPath id="F">
		<use xlink:href="#E" style="overflow:visible"/>
	</clipPath>
	<g style="clip-path:url(#F);enable-background:new">
		<defs>
			<path id="G" d="M66.16-55.09h451.63v451.63H66.16z"/>
		</defs>
		<clipPath id="H">
			<use xlink:href="#G" style="overflow:visible"/>
		</clipPath>
		<g style="clip-path:url(#H)">
			<defs>
				<path id="I" transform="rotate(-45.001 289.928 168.68)" d="M58.7 83.46h462.46V253.9H58.7z"/>
			</defs>
			<clipPath id="J">
				<use xlink:href="#I" style="overflow:visible"/>
			</clipPath>
			<g style="clip-path:url(#J)">
				<defs>
					<path id="K" d="M266.37 28.72h270.04v437.66H266.37z"/>
				</defs>
				<clipPath id="L">
					<use xlink:href="#K" style="overflow:visible"/>
				</clipPath>
				<path style="clip-path:url(#L);fill:#f3807b" d="M42.88-78.37h494.09v494.09H42.88z"/>
			</g>
		</g>
	</g>
	<defs>
		<path id="M" d="M268.29 158.47c-.09 2.03-.14 4.07-.14 6.13 0 2.25.05 4.49.17 6.71-.05 1.1-.17 2.18-.17 3.29v216.38c0 41.38 33.86 75.24 75.24 75.24h113.23c41.38 0 75.24-33.86 75.24-75.24V174.61c0-1.26-.13-2.48-.2-3.72.1-2.09.16-4.18.16-6.29 0-2.06-.05-4.1-.14-6.13-3.2-69.97-60.94-125.7-131.7-125.7-70.76 0-128.5 55.73-131.69 125.7z"/>
	</defs>
	<clipPath id="N">
		<use xlink:href="#M" style="overflow:visible"/>
	</clipPath>
	<g style="clip-path:url(#N);enable-background:new">
		<defs>
			<path id="O" d="M280.34 159.08h428.35v428.35H280.34z"/>
		</defs>
		<clipPath id="P">
			<use xlink:href="#O" style="overflow:visible"/>
		</clipPath>
		<g style="clip-path:url(#P)">
			<defs>
				<path id="Q" transform="rotate(-45.001 496.092 374.85)" d="M264.86 306.36h462.46v136.97H264.86z"/>
			</defs>
			<clipPath id="R">
				<use xlink:href="#Q" style="overflow:visible"/>
			</clipPath>
			<g style="clip-path:url(#R)">
				<defs>
					<path id="S" d="M266.37 28.72h270.04v437.66H266.37z"/>
				</defs>
				<clipPath id="T">
					<use xlink:href="#S" style="overflow:visible"/>
				</clipPath>
				<path style="clip-path:url(#T);fill:#35d0ba" d="M260.88 139.63h470.43v470.43H260.88z"/>
			</g>
		</g>
	</g>
	<defs>
		<path id="U" d="m373.82 466.23 57.63 58.57v-58.57z"/>
	</defs>
	<clipPath id="V">
		<use xlink:href="#U" style="overflow:visible"/>
	</clipPath>
	<path style="clip-path:url(#V);fill:#d8ae64" d="M351.02 442.84h103.91V547.2H351.02z"/>
</svg>
