<svg width="269" height="173" fill="none" xmlns="http://www.w3.org/2000/svg">
	<g clip-path="url(#a)">
		<path d="M81.23 119.34c-.5-.021-1 .056-1.47.227-.47.172-.901.435-1.27.773a3.717 3.717 0 0 0-1.1 2.78V142a6.999 6.999 0 0 1-1.26 4.1 9.003 9.003 0 0 1-3.41 2.9 10.756 10.756 0 0 1-4.91 1.09c-1.8.041-3.586-.332-5.22-1.09a8.361 8.361 0 0 1-3.59-3.44 11.917 11.917 0 0 1-1.35-6v-16.39a3.878 3.878 0 0 0-4.659-3.824A3.876 3.876 0 0 0 51 120.43a3.763 3.763 0 0 0-1 2.74v16.43a19.66 19.66 0 0 0 2.16 9.56A14.568 14.568 0 0 0 58 155.1a17.558 17.558 0 0 0 8.45 2 16.721 16.721 0 0 0 8.19-2c.98-.534 1.9-1.175 2.74-1.91a3.908 3.908 0 0 0 4.692 3.522A3.91 3.91 0 0 0 84 155.69a3.821 3.821 0 0 0 1.07-2.69v-29.83a3.64 3.64 0 0 0-3.84-3.83Z" fill="#171B49"/>
		<path d="M119.11 121.6a17.214 17.214 0 0 0-9.17-2.37 18.78 18.78 0 0 0-9.57 2.43 17.332 17.332 0 0 0-6.53 6.71 20.11 20.11 0 0 0-2.36 9.86c-.05 3.424.82 6.798 2.52 9.77a17.778 17.778 0 0 0 6.9 6.7 20.85 20.85 0 0 0 16.62 1.3 18.781 18.781 0 0 0 5.77-3 2.781 2.781 0 0 0 1.24-2.43 3.64 3.64 0 0 0-1.36-2.51 3.37 3.37 0 0 0-2.33-.81 4.292 4.292 0 0 0-2.41.86 13.237 13.237 0 0 1-3.39 1.71 12.384 12.384 0 0 1-4.1.74c-2.28.045-4.532-.51-6.53-1.61a11.86 11.86 0 0 1-4.45-4.39 11.594 11.594 0 0 1-1.34-3.56h24.87a3.465 3.465 0 0 0 2.51-1 3.251 3.251 0 0 0 1-2.41 21.523 21.523 0 0 0-2-9.51 15.506 15.506 0 0 0-5.89-6.48Zm-19.4 10.24a10.363 10.363 0 0 1 4-4.39 11.73 11.73 0 0 1 6.28-1.61 9.67 9.67 0 0 1 5.44 1.47 9.791 9.791 0 0 1 3.45 4 13.136 13.136 0 0 1 1.08 3.49H98.71a13.006 13.006 0 0 1 1-2.96Z" fill="#171B49"/>
		<path d="M179.19 120.89a14.004 14.004 0 0 0-7-1.73 16.13 16.13 0 0 0-7.92 1.93 13.842 13.842 0 0 0-3.76 3 11.475 11.475 0 0 0-3.59-3.21 14.004 14.004 0 0 0-7-1.73 13.76 13.76 0 0 0-7.24 1.94c-.63.381-1.226.816-1.78 1.3a3.418 3.418 0 0 0-1-1.77 3.74 3.74 0 0 0-2.77-1.06 3.81 3.81 0 0 0-2.74 1.05 3.713 3.713 0 0 0-1.1 2.78v29.72a3.726 3.726 0 0 0 2.355 3.57 3.73 3.73 0 0 0 1.485.26 3.713 3.713 0 0 0 2.78-1.1 3.786 3.786 0 0 0 1.06-2.73v-18.82a8.2 8.2 0 0 1 2.15-5.85 7.179 7.179 0 0 1 5.42-2.27 7.008 7.008 0 0 1 5.11 1.92c1.29 1.26 1.94 3.26 1.94 5.93v19.1a3.726 3.726 0 0 0 2.355 3.57 3.73 3.73 0 0 0 1.485.26 3.713 3.713 0 0 0 2.78-1.1 3.786 3.786 0 0 0 1.06-2.73v-18.83a8.27 8.27 0 0 1 2.12-5.85 7.632 7.632 0 0 1 10.49-.35c1.29 1.26 1.94 3.26 1.94 5.93v19.1a3.902 3.902 0 0 0 6.62 2.73 3.786 3.786 0 0 0 1.06-2.73V134a17.859 17.859 0 0 0-1.68-8 11.838 11.838 0 0 0-4.63-5.11Z" fill="#171B49"/>
		<path d="M221.14 121.57a17.318 17.318 0 0 0-16.42-.83 17.837 17.837 0 0 0-5 3.69v-16.89a3.912 3.912 0 0 0-4.594-3.774 3.918 3.918 0 0 0-1.986.994 3.713 3.713 0 0 0-1.1 2.78V138a19.888 19.888 0 0 0 2.53 9.69 18.31 18.31 0 0 0 16.27 9.3 18.405 18.405 0 0 0 16.36-9.3 19.001 19.001 0 0 0 2.5-9.7 20.163 20.163 0 0 0-2.29-9.65 17.84 17.84 0 0 0-6.27-6.77Zm-4.46 27a11.634 11.634 0 0 1-11.67 0 11.24 11.24 0 0 1-4.09-4.34 13.065 13.065 0 0 1-1.48-6.21 12.77 12.77 0 0 1 1.48-6.2 11.283 11.283 0 0 1 4.09-4.28 11.634 11.634 0 0 1 11.67 0 11.65 11.65 0 0 1 4.08 4.28 12.516 12.516 0 0 1 1.52 6.2 12.71 12.71 0 0 1-1.52 6.2 11.475 11.475 0 0 1-4.08 4.32v.03Z" fill="#171B49"/>
		<path d="M268 121.64a3.67 3.67 0 0 0-2.16-1.94 3.33 3.33 0 0 0-4.77 1.82l-10.36 23.41-11.82-23.48a3.689 3.689 0 0 0-6.7.11 3.144 3.144 0 0 0 .18 2.81l14.91 28.31-6.57 14.84a3.6 3.6 0 0 0-.29 2.8 3.7 3.7 0 0 0 2.11 2 4.65 4.65 0 0 0 1.78.43 3.141 3.141 0 0 0 3-2.32l20.43-45.94a3.64 3.64 0 0 0 .26-2.85Z" fill="#171B49"/>
		<path d="M40.24 144.59a4.05 4.05 0 0 0-2.75.87 23.998 23.998 0 0 1-5.57 3.09 17.268 17.268 0 0 1-13.06-.38 18.128 18.128 0 0 1-5.78-4.17 19.525 19.525 0 0 1-3.89-6.17 21.14 21.14 0 0 1 0-15.08 19.424 19.424 0 0 1 3.89-6.17 18.728 18.728 0 0 1 5.78-4.17 16.562 16.562 0 0 1 7-1.51 16.998 16.998 0 0 1 6.56 1.1 18.646 18.646 0 0 1 4.86 3.12 4 4 0 0 0 5.36-.13 3.338 3.338 0 0 0 1.09-2.53 4.885 4.885 0 0 0-.12-1.15 2.933 2.933 0 0 0-.49-1.07 3.953 3.953 0 0 0-.93-.94 25.758 25.758 0 0 0-7.47-4.42 26.38 26.38 0 0 0-8.87-1.35 24.994 24.994 0 0 0-10.19 2.08 25.918 25.918 0 0 0-8.2 5.73A26.75 26.75 0 0 0 2 119.83a27.629 27.629 0 0 0-2 10.47 28 28 0 0 0 2 10.55 26.604 26.604 0 0 0 5.49 8.53 25.206 25.206 0 0 0 18.39 7.74 25.63 25.63 0 0 0 8.67-1.47 27.138 27.138 0 0 0 7.73-4.35c.387-.389.7-.847.92-1.35.206-.48.311-.997.31-1.52a3.717 3.717 0 0 0-1-2.69 3.55 3.55 0 0 0-2.27-1.15Z" fill="#171B49"/>
		<path d="m170.08 49.33-5.3-23.22a6.165 6.165 0 0 1-4.57-3l-1.73-3a6.105 6.105 0 0 1-.74-2.19l-7.92-3.81-13.7-6.5a7.14 7.14 0 0 0-5.12.29l-.24.11-23.26 11.2a7.144 7.144 0 0 0-3.88 4.86l-5.73 25.26a6.622 6.622 0 0 0-.18 1.54.09.09 0 0 1 0 .05 7.1 7.1 0 0 0 1.56 4.44l16.15 20.26c.15.18.31.36.48.53a7.138 7.138 0 0 0 4.42 2.13H147.65a7.138 7.138 0 0 0 4.42-2.13c.16-.17.32-.35.47-.53l16.15-20.26a7.089 7.089 0 0 0 1.57-4.33.138.138 0 0 1 0-.07.106.106 0 0 1 0-.05 7.304 7.304 0 0 0-.18-1.58Z" fill="#3BD9CD"/>
		<path d="m172.31 16.1-1.73-3a1.854 1.854 0 0 0-1.6-.93h-3.46a1.841 1.841 0 0 0-1.59.93l-1.74 3a1.885 1.885 0 0 0 0 1.85l1.73 3a1.84 1.84 0 0 0 1.59.93H169a1.866 1.866 0 0 0 1.6-.92l1.73-3a1.858 1.858 0 0 0-.02-1.86Z" fill="#171B49"/>
		<path d="M159.65 12.49a1.058 1.058 0 0 0-.49-1.41L152.85 8a1.062 1.062 0 1 0-.93 1.91l6.31 3.09a1.07 1.07 0 0 0 1.42-.51Z" fill="#171B49"/>
		<path d="M130.23 60.62c2.57-2.19 3-6.13 3-10v-2.5h-17.67c-1.86.12-2 .52-2 7.3 0 1.69.29 4 1.67 5.43.5.484 1.106.843 1.77 1.05.284.091.575.161.87.21 5.92 1.02 9.98.53 12.36-1.49Z" fill="#fff"/>
		<path d="M149.78 40.52c-.75-7.5-1.68-16.84-3-24.33-2.11-11.72-4.14-12.32-4.52-12.32-3.55 0-6.74 19.64-6.85 42.08h15c-.25-1.64-.41-3.49-.63-5.43Z" fill="#3BD9CD"/>
		<path d="M136 65.08a1.997 1.997 0 0 0-1.69-.87s-1.77.08-1.77 1.28c0 .46.23 1.47 1.77 3.19 1.37-1.54 2-2.88 1.69-3.6Z" fill="#fff"/>
		<path d="M126.49 18c-1-.54-2.14-.38-3.48.49-4.78 3.1-11.19 11-11.63 14.29a.997.997 0 0 0 0 .52c.25.21 2.65 0 7.79-2.3a1.81 1.81 0 0 1 1.52.26 1.208 1.208 0 0 1 .19 1.18c-1.07 4.16-2 9.81-2.57 13.49h14.9c-.1-3.33-1.07-24.93-6.72-27.93Z" fill="#3BD9CD"/>
		<path d="M137 62.23a9.235 9.235 0 0 1-2.72-4 9.373 9.373 0 0 1-2.71 4c-2.89 2.45-7.51 3.1-14.13 2 .81 3.73 3 6.37 6 7.45a10.179 10.179 0 0 0 9.33-1.49c-1.56-1.75-2.35-3.31-2.35-4.66 0-2.34 2.27-3.39 3.88-3.39a3.942 3.942 0 0 1 3.7 2.12c.68 1.59 0 3.58-2.11 5.89a10.182 10.182 0 0 0 9.33 1.49c3.09-1.08 5.22-3.72 6-7.45h-.06c-6.63 1.14-11.24.49-14.16-1.96Z" fill="#3BD9CD"/>
		<path d="M153 48.1h-17.63v2.51c0 3.92.45 7.85 3 10 2.38 2 6.44 2.51 12.4 1.49a4.8 4.8 0 0 0 .79-.19h.07a4.433 4.433 0 0 0 1.65-1.05.19.19 0 0 1 .17-.1A8.17 8.17 0 0 0 155 55.4c0-6.79-.07-7.2-2-7.3Z" fill="#fff"/>
		<path d="M142.7 57.47a2.393 2.393 0 0 0 2.215-1.468 2.386 2.386 0 0 0-.511-2.608 2.39 2.39 0 1 0-1.704 4.076Z" fill="#171B49"/>
		<path d="M125.94 57.47a2.39 2.39 0 1 0 0-4.78 2.39 2.39 0 0 0 0 4.78Z" fill="#171B49"/>
		<path d="M152.47 46c-.18-1.7-.38-3.63-.58-5.67-1.28-12.8-2.53-23.83-4.43-30.78-.27-1-.55-1.87-.84-2.68-1.19-3.25-2.61-5.09-4.39-5.09a3.616 3.616 0 0 0-2.83 1.61 9.405 9.405 0 0 0-1.08 1.75c-1.5 3-2.66 8.18-3.55 15.61-.35 3-.65 6.25-.89 9.74-1.39-8-3.53-12.79-6.39-14.32-1.72-.91-3.61-.72-5.63.59-5.36 3.47-12.06 11.88-12.58 15.79a2.667 2.667 0 0 0 .55 2.21c1.12 1.24 3.93.89 8.58-1.07-1 4.34-1.82 9.48-2.22 12.31-4.72.23-4.72 2.23-4.72 9.42 0 3.85 1.26 6.61 3.66 8 1 6.94 5.19 9.4 7.63 10.26 1.254.435 2.573.655 3.9.65 2.778.015 5.477-.92 7.65-2.65a12.18 12.18 0 0 0 7.69 2.61 11.84 11.84 0 0 0 3.91-.65c2.43-.86 6.65-3.32 7.63-10.26 2.39-1.37 3.66-4.13 3.66-8-.04-7.17-.04-9.16-4.73-9.38ZM140.2 6c.27-.64.653-1.226 1.13-1.73.237-.249.557-.402.9-.43.19 0 .75.15 1.52 1.6.465.903.846 1.847 1.14 2.82.79 2.59 1.412 5.23 1.86 7.9 1.35 7.49 2.28 16.83 3 24.33.2 1.94.38 3.79.56 5.43h-15c.16-18 2.24-34.21 4.89-39.92Zm-19.3 26.46a1.176 1.176 0 0 0-.19-1.18 1.812 1.812 0 0 0-1.52-.26c-5.13 2.35-7.54 2.51-7.79 2.3a.997.997 0 0 1 0-.52c.44-3.31 6.85-11.19 11.63-14.29 1.34-.87 2.48-1 3.48-.49 5.65 3 6.62 24.58 6.74 27.93h-14.9c.51-3.68 1.48-9.33 2.55-13.49Zm-5.64 28.37c-1.38-1.43-1.68-3.74-1.68-5.43 0-6.78.12-7.19 2-7.3h17.7v2.5c0 3.92-.46 7.86-3 10-2.38 2-6.44 2.51-12.4 1.49a6.104 6.104 0 0 1-.87-.21 4.441 4.441 0 0 1-1.75-1.05Zm17.29 4.66c0-1.2 1.75-1.28 1.77-1.28a1.999 1.999 0 0 1 1.69.87c.3.72-.33 2.06-1.69 3.6-1.54-1.68-1.77-2.68-1.77-3.19Zm12.62 6.15a10.179 10.179 0 0 1-9.33-1.49c2.08-2.31 2.79-4.3 2.11-5.89a3.941 3.941 0 0 0-3.63-2.16c-1.61 0-3.88 1-3.88 3.39 0 1.35.79 2.91 2.35 4.66a10.182 10.182 0 0 1-9.33 1.49c-3.09-1.08-5.22-3.72-6-7.45 6.62 1.13 11.24.48 14.13-2a9.373 9.373 0 0 0 2.71-4 9.235 9.235 0 0 0 2.72 4c2.89 2.45 7.5 3.09 14.12 2h.06c-.81 3.73-2.94 6.37-6.03 7.45Zm8.33-11a.19.19 0 0 0-.17.1 4.433 4.433 0 0 1-1.65 1.05h-.07a4.8 4.8 0 0 1-.79.19c-6 1-10 .53-12.4-1.49-2.58-2.19-3-6.12-3-10v-2.51H153c1.92.1 2 .51 2 7.3a8.17 8.17 0 0 1-1.5 5.41v-.05Z" fill="#171B49"/>
		<path d="m176.84 49.42-5.29-22.88a1.088 1.088 0 0 0-.47-.66.999.999 0 0 0-.8-.13.999.999 0 0 0-.79 1.26l5.29 22.88a7.514 7.514 0 0 1-1.46 6.39L154.8 79.52a7.564 7.564 0 0 1-5.91 2.84h-29.72a7.56 7.56 0 0 1-5.91-2.84L94.74 56.28a7.49 7.49 0 0 1-1.46-6.39l6.61-29A7.484 7.484 0 0 1 104 15.8l26.75-12.89a14.585 14.585 0 0 1 2.52-.75 8.72 8.72 0 0 1 1.54 0 1.084 1.084 0 0 0 1.026-.625 1.096 1.096 0 0 0 .034-.827 1.07 1.07 0 0 0-.56-.609A1.082 1.082 0 0 0 134.9 0a9.39 9.39 0 0 0-4.33.67 6.542 6.542 0 0 0-.61.26L117.45 7l-14.39 6.93a9.641 9.641 0 0 0-5.23 6.57l-6.61 29a9.62 9.62 0 0 0 1.86 8.18l18.53 23.23a9.594 9.594 0 0 0 7.56 3.65h29.72a9.618 9.618 0 0 0 7.56-3.65L175 57.6a9.58 9.58 0 0 0 1.84-8.18Z" fill="#171B49"/>
	</g>
	<defs>
		<clipPath id="a">
			<path fill="#fff" d="M0 0h268.2v172.74H0z"/>
		</clipPath>
	</defs>
</svg>
