<svg xmlns="http://www.w3.org/2000/svg" viewBox="-8.62 -8.62 448.24 303.99">
	<g clip-path="url(#a)">
		<path fill="#436DB4" d="M0 258.784v-9.362c0-9.332 2.319-16.362 6.957-21.089 4.638-4.728 11.198-7.091 19.68-7.091 7.629 0 13.64 1.792 18.033 5.376 4.393 3.585 6.59 8.59 6.59 15.018v.463h-8.33v-.372c0-4.139-1.418-7.322-4.255-9.547-2.838-2.225-6.881-3.337-12.13-3.337-6.163 0-10.74 1.7-13.73 5.098-2.99 3.399-4.485 8.713-4.485 15.945v8.991c0 6.983 1.51 12.143 4.53 15.48 3.022 3.337 7.614 5.006 13.777 5.006 5.249 0 9.276-1.112 12.083-3.337 2.807-2.225 4.211-5.439 4.21-9.64v-.371h8.239v.463c0 6.427-2.212 11.448-6.636 15.063-4.425 3.615-10.451 5.423-18.079 5.423-8.422 0-14.936-2.364-19.543-7.091C2.304 275.145 0 268.116 0 258.784zm61.237 8.528v-28.643h7.782v27.809c0 8.837 4.088 13.256 12.265 13.255 4.211 0 7.308-1.096 9.291-3.29 1.984-2.194 2.975-5.516 2.975-9.965v-27.809h7.781v28.643c0 6.242-1.724 11.046-5.172 14.414-3.448 3.369-8.437 5.053-14.967 5.052-6.468 0-11.411-1.684-14.829-5.052-3.417-3.368-5.125-8.172-5.126-14.414zm58.492-28.643v6.674a14.744 14.744 0 0 1 6.225-5.515 20.206 20.206 0 0 1 8.696-1.808 23.803 23.803 0 0 1 3.753.278v7.509a17.723 17.723 0 0 0-5.126-.742 13.182 13.182 0 0 0-9.749 3.707c-2.471 2.473-3.707 5.81-3.707 10.012v27.346h-7.781v-47.461h7.689zm33.778-16.407v8.527h-7.781v-8.527h7.781zm0 16.407v47.461h-7.781v-47.461h7.781zm17.849 26.048c0 10.258 4.73 15.388 14.188 15.387 3.6 0 6.392-.849 8.376-2.548a8.393 8.393 0 0 0 3.066-6.443v-.278h7.69v.371a14.916 14.916 0 0 1-2.426 8.018 16.04 16.04 0 0 1-6.683 5.655 23.376 23.376 0 0 1-10.206 2.085c-6.835 0-12.174-1.931-16.019-5.793-3.844-3.863-5.766-9.502-5.767-16.918v-3.8c0-7.293 1.831-12.901 5.492-16.825 3.662-3.924 8.758-5.886 15.287-5.886 6.408 0 11.442 1.808 15.104 5.423 3.661 3.615 5.492 8.822 5.492 15.619v5.562h-33.594v.371zm0-6.304h25.814v-.834c0-4.326-1.114-7.555-3.342-9.687-2.226-2.131-5.384-3.197-9.474-3.198-3.966 0-7.063 1.128-9.291 3.384-2.227 2.255-3.463 5.7-3.707 10.335z"/>
		<path fill="#26BECD" d="M226.369 235.054v3.615h11.717v5.932h-11.717v41.529h-7.78v-41.529h-6.591v-5.932h6.591v-3.337c0-4.264 1.19-7.524 3.57-9.78 2.38-2.255 5.828-3.383 10.344-3.383h5.583v5.84h-4.302c-2.563 0-4.44.571-5.63 1.715-1.189 1.143-1.784 2.919-1.785 5.33zm25.175 29.663c0 10.258 4.729 15.388 14.188 15.387 3.6 0 6.392-.849 8.376-2.548a8.405 8.405 0 0 0 3.066-6.443v-.278h7.689v.371a14.923 14.923 0 0 1-2.425 8.018 16.04 16.04 0 0 1-6.683 5.655 23.382 23.382 0 0 1-10.206 2.085c-6.835 0-12.175-1.931-16.02-5.793-3.843-3.863-5.766-9.502-5.766-16.918v-3.8c0-7.293 1.831-12.901 5.492-16.825 3.662-3.924 8.758-5.886 15.287-5.886 6.407 0 11.442 1.808 15.104 5.423 3.661 3.615 5.491 8.822 5.492 15.619v5.562h-33.594v.371zm0-6.304h25.814v-.834c0-4.326-1.114-7.555-3.342-9.687-2.227-2.131-5.385-3.197-9.474-3.198-3.967 0-7.064 1.128-9.291 3.384-2.228 2.255-3.463 5.7-3.707 10.335zm50.711-19.744v6.396a15.725 15.725 0 0 1 6.316-5.191 20.444 20.444 0 0 1 8.605-1.762c5.553 0 9.855 1.607 12.906 4.821 3.052 3.213 4.578 7.663 4.577 13.348v29.849h-7.781v-28.829c0-4.017-.992-7.045-2.975-9.084-1.983-2.039-4.867-3.059-8.65-3.059a12.694 12.694 0 0 0-9.383 3.523c-2.349 2.347-3.523 5.56-3.523 9.639v27.81h-7.782v-47.461h7.69zm40.734 33.278v-.278h7.414v.185a7.035 7.035 0 0 0 3.113 6.026c2.075 1.483 5.279 2.225 9.611 2.224 3.906 0 6.973-.648 9.2-1.946a6.188 6.188 0 0 0 3.341-5.655 5.178 5.178 0 0 0-2.426-4.635c-1.617-1.05-4.195-1.76-7.734-2.132l-6.683-.834c-5.187-.618-9.001-1.962-11.442-4.032-2.441-2.07-3.661-4.99-3.661-8.76a12.099 12.099 0 0 1 1.253-5.818 12.116 12.116 0 0 1 3.873-4.518c3.417-2.503 8.054-3.754 13.913-3.754 6.102 0 10.893 1.267 14.372 3.8a12.073 12.073 0 0 1 5.218 10.29v.37h-7.415v-.277a6.44 6.44 0 0 0-3.159-5.794c-2.105-1.329-5.08-1.993-8.924-1.993-3.906 0-6.835.618-8.787 1.854a5.9 5.9 0 0 0-2.93 5.284 5.204 5.204 0 0 0 2.105 4.496c1.404 1.019 3.814 1.715 7.232 2.086l7.139.926c5.249.619 9.14 1.978 11.672 4.078 2.533 2.102 3.798 5.069 3.798 8.9a12.455 12.455 0 0 1-5.446 10.799c-3.631 2.564-8.589 3.847-14.875 3.847-6.224 0-11.075-1.313-14.554-3.94a12.804 12.804 0 0 1-3.953-4.75 12.803 12.803 0 0 1-1.265-6.049zm54.465-7.23c0 10.258 4.729 15.388 14.188 15.387 3.6 0 6.392-.849 8.376-2.548a8.405 8.405 0 0 0 3.066-6.443v-.278h7.689v.371a14.915 14.915 0 0 1-2.425 8.018 16.04 16.04 0 0 1-6.683 5.655 23.38 23.38 0 0 1-10.206 2.085c-6.835 0-12.175-1.931-16.02-5.793-3.843-3.863-5.765-9.502-5.766-16.918v-3.8c0-7.293 1.831-12.901 5.492-16.825 3.662-3.924 8.758-5.886 15.287-5.886 6.407 0 11.442 1.808 15.104 5.423 3.661 3.615 5.492 8.822 5.492 15.619v5.562h-33.594v.371zm0-6.304h25.814v-.834c0-4.326-1.114-7.555-3.342-9.687-2.227-2.131-5.385-3.197-9.474-3.198-3.967 0-7.064 1.128-9.291 3.384-2.227 2.255-3.463 5.7-3.707 10.335zM209.393 119.585l-28.929 13.294h-15.429l45.862-77.395V15.845l-69.998 33.277v53.85c0 32.18 28.381 67.169 69.998 87.882v-71.111l-1.504-.158z"/>
		<path fill="#436DB4" d="M220.151 0v73.617l15.127 6.57c4.181-.898 6.963-2.498 10.748-9.992a13.592 13.592 0 0 1 .745 14.448c-.178.318-.295.49-.295.49s16.221-5.087 12.663-25.936c12.091 11.196 11.13 28.81 6.654 39.343-.356.831-1.629 3.234-1.629 3.234l-.054.12-.006-.011c-.402.904-.88 1.771-1.43 2.592-.341.533-.735 1.11-1.168 1.716-9.452 12.212-22.059 16.467-29.688 15.749l-11.667-1.225v63.373c41.617-20.713 69.998-55.701 69.998-87.882v-53.85L220.151 0z"/>
		<path fill="#436DB4" d="M232.961 94.222a4.36 4.36 0 1 0-8.324-2.595 4.36 4.36 0 0 0 8.324 2.595z"/>
	</g>
	<defs>
		<clipPath id="a">
			<path fill="#fff" d="M0 0h431.048v286.97H0z"/>
		</clipPath>
	</defs>
</svg>
