<svg width="1200" height="400" fill="none" xmlns="http://www.w3.org/2000/svg">
	<path d="M426.57 250.641a53.855 53.855 0 0 1-21.438-19.798 53.571 53.571 0 0 1-7.922-28.031 53.572 53.572 0 0 1 7.922-28.032 53.852 53.852 0 0 1 21.438-19.797 66.17 66.17 0 0 1 30.717-7.023 59.89 59.89 0 0 1 29.419 7.023 42.071 42.071 0 0 1 18.552 20.119L481.14 187.96c-5.565-9.769-13.578-14.654-24.038-14.654a27.294 27.294 0 0 0-10.868 1.888 27.192 27.192 0 0 0-9.221 6.033 29.18 29.18 0 0 0-6.201 9.986 29.109 29.109 0 0 0-1.75 11.612 28.915 28.915 0 0 0 1.743 11.602 29.02 29.02 0 0 0 6.208 9.969 27.195 27.195 0 0 0 9.221 6.034 27.293 27.293 0 0 0 10.868 1.887 26.107 26.107 0 0 0 14.182-3.805 25.96 25.96 0 0 0 9.856-10.849l24.065 13.202a42.82 42.82 0 0 1-18.499 19.67 59.068 59.068 0 0 1-29.525 7.129 66.19 66.19 0 0 1-30.611-7.023Z" fill="#000"/>
	<path d="M627.167 149.543 578.932 262.6c-4.912 12.322-10.973 20.973-18.181 25.954a44.745 44.745 0 0 1-26.159 7.525 55.206 55.206 0 0 1-16.485-2.64 36.558 36.558 0 0 1-13.251-7.155l11.343-21.967a26.793 26.793 0 0 0 8.163 4.963 26.572 26.572 0 0 0 9.249 1.769 16.53 16.53 0 0 0 10.337-3.062 26.41 26.41 0 0 0 7.156-10.192l.397-1.003-46.248-107.249h32.016l29.922 72.212 30.213-72.291 29.763.079Z" fill="#000"/>
	<path d="M657.553 250.643a53.852 53.852 0 0 1-21.438-19.797 53.577 53.577 0 0 1-7.922-28.032 53.575 53.575 0 0 1 7.922-28.032 53.852 53.852 0 0 1 21.438-19.797 66.17 66.17 0 0 1 30.717-7.023 59.887 59.887 0 0 1 29.525 7.023 41.88 41.88 0 0 1 18.366 20.119l-24.038 12.858c-5.566-9.769-13.587-14.653-24.065-14.653a27.285 27.285 0 0 0-10.854 1.892 27.216 27.216 0 0 0-9.209 6.029 29.127 29.127 0 0 0-7.951 21.597 28.95 28.95 0 0 0 1.743 11.602 29.026 29.026 0 0 0 6.208 9.969 27.186 27.186 0 0 0 9.246 6.044 27.27 27.27 0 0 0 10.897 1.877c5 .12 9.93-1.199 14.197-3.798a25.96 25.96 0 0 0 9.868-10.855l24.038 13.201a42.618 42.618 0 0 1-18.367 19.802 59.064 59.064 0 0 1-29.524 7.129 66.175 66.175 0 0 1-30.797-7.155Z" fill="#000"/>
	<path d="M772.935 250.642a52.569 52.569 0 0 1-20.964-19.512 53.555 53.555 0 0 1-7.553-28.304 53.63 53.63 0 0 1 7.553-28.331 52.56 52.56 0 0 1 20.964-19.511 64.54 64.54 0 0 1 30.32-7.023 63.791 63.791 0 0 1 30.214 7.023 52.6 52.6 0 0 1 20.857 19.511 53.622 53.622 0 0 1 7.554 28.331 53.546 53.546 0 0 1-7.554 28.304 52.61 52.61 0 0 1-20.857 19.512 63.815 63.815 0 0 1-30.214 7.023 64.564 64.564 0 0 1-30.32-7.023Zm49.906-26.403a29.8 29.8 0 0 0 7.633-21.466 29.876 29.876 0 0 0-7.633-21.492 25.822 25.822 0 0 0-8.942-6.049 25.91 25.91 0 0 0-10.644-1.872 26.234 26.234 0 0 0-10.69 1.878 26.131 26.131 0 0 0-9.002 6.043 29.617 29.617 0 0 0-6.029 9.974 29.534 29.534 0 0 0-1.71 11.518 29.506 29.506 0 0 0 1.667 11.587 29.566 29.566 0 0 0 6.046 10.037 26.127 26.127 0 0 0 9.001 6.043 26.22 26.22 0 0 0 10.69 1.878c3.628.12 7.24-.523 10.602-1.888a25.828 25.828 0 0 0 8.905-6.033l.106-.158Z" fill="#000"/>
	<path d="M990.976 109.145v146.933h-29.604V243.8c-7.686 9.241-18.817 13.862-33.394 13.862a55.623 55.623 0 0 1-27.324-6.733 48.19 48.19 0 0 1-19.056-19.195 58.386 58.386 0 0 1-6.971-29.043 58.389 58.389 0 0 1 6.971-28.779 48.082 48.082 0 0 1 19.188-19.221 55.63 55.63 0 0 1 27.325-6.733c13.64 0 24.303 4.295 31.989 12.884v-51.697h30.876Zm-38.164 115.249a29.58 29.58 0 0 0 6.042-9.957 29.489 29.489 0 0 0 1.723-11.508 29.568 29.568 0 0 0-1.724-11.52 29.653 29.653 0 0 0-6.041-9.972 27.857 27.857 0 0 0-19.573-8.027 27.853 27.853 0 0 0-19.572 8.027 29.639 29.639 0 0 0-6.042 9.972 29.568 29.568 0 0 0-1.724 11.52 29.489 29.489 0 0 0 1.723 11.508 29.567 29.567 0 0 0 6.043 9.957 27.853 27.853 0 0 0 19.572 8.027 27.857 27.857 0 0 0 19.573-8.027Z" fill="#000"/>
	<path d="M1123.37 211.536h-80.89c1.29 6.343 5 11.944 10.34 15.63a34.32 34.32 0 0 0 20.27 5.73c5.05.087 10.07-.745 14.82-2.456a36.158 36.158 0 0 0 12-7.921l16.51 17.822c-10.07 11.565-24.73 17.338-43.99 17.321a70.286 70.286 0 0 1-32.02-7.024 51.78 51.78 0 0 1-21.46-19.511 53.506 53.506 0 0 1-7.56-28.304 54.165 54.165 0 0 1 7.48-28.225 52.108 52.108 0 0 1 20.46-19.617 60.374 60.374 0 0 1 29.15-7.024 59.776 59.776 0 0 1 28.41 6.733 49.39 49.39 0 0 1 19.98 19.301 57.37 57.37 0 0 1 7.11 29.281c0 .343-.21 3.115-.61 8.264Zm-72.54-34.324a25.266 25.266 0 0 0-8.75 16.238h52.66a25.446 25.446 0 0 0-8.74-16.133 26.142 26.142 0 0 0-17.49-6.046 26.715 26.715 0 0 0-17.68 5.994v-.053Z" fill="#000"/>
	<path fill-rule="evenodd" clip-rule="evenodd" d="m290.958 130.057-95.085-54.76a17.263 17.263 0 0 0-17.21 0l-19.458 11.09 112.228 64.762v96.833l-28.051 16.146-84.177-48.417v-15.525a20.845 20.845 0 0 0 6.175-10.737 20.8 20.8 0 0 0-1.013-12.334 20.89 20.89 0 0 0-7.847-9.593 21.006 21.006 0 0 0-11.92-3.481 20.997 20.997 0 0 0-11.803 3.856 20.873 20.873 0 0 0-7.537 9.837 20.798 20.798 0 0 0-.62 12.359 20.856 20.856 0 0 0 6.514 10.537v31.228l112.25 64.562 47.554-27.346a17.18 17.18 0 0 0 6.303-6.269 17.103 17.103 0 0 0 2.313-8.569V144.894a17.096 17.096 0 0 0-2.313-8.568 17.165 17.165 0 0 0-6.303-6.269Z" fill="#000"/>
	<path fill-rule="evenodd" clip-rule="evenodd" d="M243.398 198.103v-30.828l-112.273-64.563-47.531 27.324a17.203 17.203 0 0 0-6.293 6.285A17.114 17.114 0 0 0 75 144.896v109.342a17.076 17.076 0 0 0 2.3 8.567 17.163 17.163 0 0 0 6.294 6.271l95.063 54.626a17.256 17.256 0 0 0 17.209 0l19.391-11.089-112.183-64.629v-96.833l28.051-16.146 84.132 48.416v14.971a20.83 20.83 0 0 0-6.217 10.692 20.772 20.772 0 0 0 .95 12.321 20.866 20.866 0 0 0 7.785 9.621 20.99 20.99 0 0 0 23.692-.244 20.857 20.857 0 0 0 7.584-9.778 20.767 20.767 0 0 0 .695-12.338 20.835 20.835 0 0 0-6.437-10.563h.089Z" fill="#000"/>
</svg>
