<svg xmlns="http://www.w3.org/2000/svg" width="200" height="128">
	<path d="M20 94.41c1-5.25 2-10.5 3-15.74q2.59-13.67 5.22-27.3c.24-1.23.46-2.47.68-3.7.85-4.83 5.56-6.48 9-5.74a7.6 7.6 0 0 1 5.39 4.13 3.22 3.22 0 0 0 .43-.53c2-4.05 7.84-5 11.36-2.43a6 6 0 0 1 2.74 5.21c-.16 5.61-.23 11.23-.59 16.82-.28 4.36-2.62 7.78-5.9 10.56A24.79 24.79 0 0 1 48 78.05q-13 7.73-26 15.39a16 16 0 0 0-1.36 1zm16.4-50.77a4.65 4.65 0 0 0-4.95 4c-.18 2.08 1.6 4.07 4.07 4.43a5.69 5.69 0 0 0 2.17-.16 4.29 4.29 0 0 0 3.47-4.1 4.53 4.53 0 0 0-3.77-4.07 7.88 7.88 0 0 0-.99-.1zm14 0a4.61 4.61 0 0 0-4.81 3.65c-.3 2.29 1.23 4.18 3.82 4.73a2 2 0 0 0 .31.08c2.64.3 5.83-1.51 5.43-4.75a4.6 4.6 0 0 0-4.72-3.71z" fill="#014dae"/>
	<path d="m179.67 75.82-.76 3.46a32.87 32.87 0 0 1-3.58 0 5.19 5.19 0 0 1-4.5-4.07 11 11 0 0 1-.29-2.49V42.53h6.11v27.19c0 .89.05 1.78.13 2.67.14 1.63.6 2 2.27 2.14h.63zM102 46.16l-.72 5.89-2.52-.87a16.35 16.35 0 0 0-7.62-.86 9 9 0 0 0-7.59 5.41 14.72 14.72 0 0 0 .08 12.51c1.65 3.61 4.8 5.12 8.65 5.31a17.39 17.39 0 0 0 6.81-1.08l2.19-.81c.24 2 .47 3.92.71 5.89a20.17 20.17 0 0 1-10.47 2c-6.05-.44-10.94-2.94-13.94-8.39a19.29 19.29 0 0 1-2.11-11.27 17.17 17.17 0 0 1 3.61-9.41 16.41 16.41 0 0 1 11.18-6.13 19.94 19.94 0 0 1 9.65.92c.67.25 1.32.57 2.09.89zm1.09 8.56a4.1 4.1 0 0 1 .7-.13h5.95c2 5.12 4.08 10.19 6.22 15.53 2.16-5.31 4.2-10.34 6.28-15.44H129c-5 12.07-10.13 23.94-15.16 35.91h-6c.13-.42.21-.8.36-1.15 1.45-3.6 2.87-7.2 4.38-10.77a3.21 3.21 0 0 0-.09-2.82c-3-6.63-6-13.27-8.93-19.92-.17-.38-.3-.77-.47-1.21zm55.43 8.55c-.12-2.65-1.16-3.69-3.57-3.83a12.73 12.73 0 0 0-5.68 1.07c-.48.19-1 .4-1.65.69l-.62-4.79a15.74 15.74 0 0 1 5.48-1.92 13.79 13.79 0 0 1 6.87.15 6.7 6.7 0 0 1 4.78 4.78 19 19 0 0 1 .63 4.18c.09 2.57 0 5.14 0 7.71a11.24 11.24 0 0 0 .06 1.42c.16 1.25.43 1.49 1.7 1.6h1.13c-.17 1.71-.33 3.29-.48 4.84-3.67.62-5.55 0-7.78-2.45a10.6 10.6 0 0 1-8 2.62 6.54 6.54 0 0 1-6.07-4.47 7.09 7.09 0 0 1 1.95-7.87 15 15 0 0 1 7.29-3.13c1.28-.27 2.59-.41 3.96-.6zm.2 4.31a10.34 10.34 0 0 0-5.94 1.66 3.42 3.42 0 0 0-.89.89 2.79 2.79 0 0 0 2 4.53 5.6 5.6 0 0 0 4.27-1.26 1.41 1.41 0 0 0 .53-.88c.06-1.61.03-3.23.03-4.94zm-21.16 11.33h-6.05V54.64h5.6l.25 2.18c2.11-1.63 4.22-3.17 7.28-2.62l-.41 5.8a8.29 8.29 0 0 0-1.61-.08 14.7 14.7 0 0 0-3.19.66 2.86 2.86 0 0 0-1.9 3.07c.1 4.51 0 9 0 13.54z" fill="#061748"/>
	<path d="M26.59 36.19H60.2c.1.17.2.25.2.34.24 3.61 0 3.9-3.61 3.91-2.63 0-5.27 0-7.9.08-2.24.07-4.22.77-5.44 3-1.46-2.56-3.8-3.09-6.38-3.1h-7.74c-2.33 0-2.75-.43-2.74-2.75z" fill="#014dae"/>
</svg>
