<svg xmlns="http://www.w3.org/2000/svg" viewBox="-10.61 -10.61 452.72 551.72">
	<defs>
		<style>
			.cls-1{fill:#31006f}
		</style>
	</defs>
	<g id="Layer_2" data-name="Layer 2">
		<g id="Layer_1-2" data-name="Layer 1">
			<path d="M280.11 256.86a23.36 23.36 0 0 0-23.35 23.36v46.7a23.36 23.36 0 0 0 36.47 19.32l-21.83-21.82 16.51-16.51 15.55 15.55v-43.24a23.35 23.35 0 0 0-23.35-23.36zM151.78 81.73h-23.35v93.4h23.35a23.35 23.35 0 0 0 23.36-23.35v-46.7a23.35 23.35 0 0 0-23.36-23.35z" class="cls-1"/>
			<path d="M0 0v432h432V0zm198.49 256.86h-35v93.41h35v23.35h-93.41v-23.35h35v-93.41h-35v-23.35h93.41zm0-105.08a46.71 46.71 0 0 1-46.71 46.71h-46.7V58.38h46.7a46.7 46.7 0 0 1 46.71 46.7zm35 5.84a40.86 40.86 0 0 1 40.87-40.86h11.67a17.52 17.52 0 1 0 0-35h-52.52V58.38h52.54a40.87 40.87 0 1 1 0 81.73h-11.67a17.51 17.51 0 0 0-17.51 17.51v17.51h69.95v23.36h-93.41zm94 222.9-17.61-17.62a46.7 46.7 0 0 1-76.47-36v-46.7a46.71 46.71 0 1 1 93.41 0v46.7a46.69 46.69 0 0 1-3.12 16.77L344 364z" class="cls-1"/>
		</g>
	</g>
	<path d="M68.728 503.815H52.724V452.97h15.914c7.245 0 12.503 2.27 15.76 6.809 3.257 4.54 4.886 10.913 4.886 19.107 0 2.141-.218 4.45-.667 6.95-.782 4.18-2.064 7.604-3.834 10.272-2.231 3.334-5.078 5.59-8.566 6.77-1.95.629-4.45.937-7.489.937zM43.71 445.263v66.22h26.736c11.362 0 19.364-5.014 24.031-15.055 2.642-5.68 3.963-12.04 3.963-19.068 0-9.105-2.244-16.58-6.72-22.403-5.014-6.463-12.08-9.694-21.184-9.694zm65.194 18.158v48.062h8.245V463.42zm0-18.158v9.194h8.245v-9.194zm25.326 51.075h-7.797c.218 4.81 1.808 8.849 4.81 12.106 2.987 3.257 8.078 4.885 15.259 4.885 6.668 0 11.63-1.564 14.9-4.68 3.258-3.129 4.886-6.848 4.886-11.144 0-4.45-1.577-7.706-4.731-9.784-1.988-1.32-5.886-2.68-11.721-4.103l-5.36-1.295c-2.347-.578-4.13-1.244-5.322-1.988-2.077-1.27-3.116-2.95-3.116-5.053 0-1.923.795-3.475 2.372-4.642 1.578-1.167 3.899-1.756 6.963-1.756 4.591 0 7.823 1.064 9.695 3.193 1.141 1.513 1.782 3.18 1.936 5.014h7.669c.051-3.13-.924-6.04-2.937-8.746-3.219-4.27-8.463-6.412-15.734-6.412-5.566 0-9.99 1.424-13.272 4.245-3.296 2.821-4.937 6.527-4.937 11.092 0 3.873 1.744 6.912 5.232 9.105 1.949 1.256 4.988 2.398 9.104 3.424l6.438 1.628c3.462.872 5.77 1.629 6.95 2.296 1.834 1.077 2.744 2.654 2.744 4.731 0 2.732-1.141 4.758-3.424 6.066-2.282 1.308-4.924 1.962-7.938 1.962-5.04 0-8.591-1.308-10.63-3.924-1.116-1.436-1.795-3.514-2.039-6.22zm12.003-34.302zm59.167 39.24c-2.514 3.167-5.655 4.757-9.451 4.757-5.591 0-9.438-2.5-11.541-7.489-1.103-2.616-1.667-5.783-1.667-9.515 0-4.63.564-8.438 1.667-11.451 2.077-5.617 5.924-8.425 11.541-8.425 5.591 0 9.438 2.654 11.541 7.976 1.116 2.77 1.667 6.078 1.667 9.925 0 6.31-1.244 11.054-3.757 14.222zm-30.456-37.855v67.31h8.117v-24.66c1.77 2.193 3.386 3.745 4.822 4.643 2.462 1.602 5.514 2.398 9.156 2.398 4.63 0 8.681-1.437 12.17-4.284 5.5-4.513 8.245-12.028 8.245-22.543 0-7.784-1.91-13.772-5.72-17.966-3.82-4.193-8.463-6.283-13.938-6.283-3.694 0-6.912.898-9.644 2.693-1.923 1.205-3.693 2.91-5.321 5.104v-6.412zm60.77 40.765c-1.705-1.359-2.564-3.205-2.564-5.552 0-3.09 1.244-5.347 3.744-6.758 1.462-.846 3.68-1.462 6.617-1.847l4.924-.64c1.5-.18 3.026-.475 4.59-.898 1.565-.424 2.848-.95 3.835-1.578v6.54c0 4.989-2.257 8.58-6.758 10.772-2.68 1.32-5.45 1.988-8.297 1.988-2.346 0-4.372-.68-6.09-2.027zm17.094-21.953-12.939 1.616c-4.54.577-8.207 2.09-11.002 4.552-2.796 2.462-4.194 5.937-4.194 10.412 0 4.091 1.424 7.49 4.258 10.22 2.847 2.72 6.501 4.079 10.977 4.079 3.731 0 7.142-.796 10.233-2.398 3.103-1.59 5.475-3.463 7.13-5.63.269 1.924.73 3.411 1.397 4.463 1.257 1.987 3.283 2.975 6.079 2.975 1.14 0 2.051-.052 2.705-.141.667-.09 1.629-.308 2.886-.667v-6.002c-.513.09-.988.154-1.437.206-.461.038-.859.064-1.218.064-1.116 0-1.846-.257-2.193-.77-.346-.5-.513-1.18-.513-2.026v-27.814c0-4.565-1.756-7.937-5.283-10.092-3.54-2.167-8.156-3.244-13.836-3.244-4.899 0-9.208 1.154-12.914 3.488-3.718 2.334-5.642 6.463-5.796 12.426h7.579c.295-2.5.949-4.373 1.936-5.643 1.77-2.282 4.783-3.423 9.015-3.423 3.668 0 6.489.628 8.45 1.872 1.976 1.244 2.963 3.244 2.963 6.014 0 1.36-.192 2.385-.551 3.116-.629 1.32-1.873 2.103-3.732 2.347zm-6.72-20.197zm33.803-12.31v13.477h-6.527v6.63h6.527v31.955c0 3.104.68 5.617 2.039 7.553 1.346 1.937 3.924 2.911 7.707 2.911 1.167 0 2.257-.064 3.27-.18 1-.127 1.975-.32 2.898-.59v-6.398c-.59.064-1.116.103-1.577.115-.45.013-.872.013-1.257.013-1.475 0-2.526-.154-3.155-.487-1.141-.577-1.718-1.706-1.718-3.385v-31.507h7.707v-6.63h-7.707v-13.478zm55.936 16.042c-3.411-2.642-7.848-3.963-13.285-3.963-6.374 0-11.618 2.36-15.735 7.079-4.116 4.719-6.168 11.31-6.168 19.786 0 6.912 1.872 12.682 5.63 17.286 3.757 4.616 8.797 6.925 15.106 6.925 5.616 0 10.233-1.475 13.836-4.437 3.603-2.962 5.86-7.643 6.758-14.042h-7.886c-.744 3.578-2.103 6.386-4.078 8.45-1.962 2.053-4.63 3.091-8.002 3.091-4.386 0-7.604-1.654-9.643-4.962-2.052-3.309-3.065-7.374-3.065-12.221 0-4.809.718-8.848 2.154-12.118 2.232-5.053 5.925-7.579 11.093-7.579 3.795 0 6.54.988 8.258 2.95 1.705 1.974 2.808 4.45 3.283 7.424h7.886c-.68-6.463-2.731-11.015-6.142-13.67zm-14.542-3.732zm28.801-17.004v66.45h8.117v-25.607c0-6.425 1.373-10.798 4.104-13.119 2.731-2.308 5.783-3.462 9.156-3.462 4.052 0 6.822 1.32 8.297 3.962.897 1.655 1.346 4.258 1.346 7.797v30.43h8.335v-30.969c0-4.744-.667-8.463-2.026-11.13-2.488-4.899-7.245-7.348-14.247-7.348-3.898 0-7.168.846-9.784 2.565-1.526.987-3.257 2.705-5.18 5.142v-24.71z"/>
</svg>
