<svg xmlns="http://www.w3.org/2000/svg" id="Layer_1" data-name="Layer 1" viewBox="0 0 400 245">
	<defs>
		<style>
			.cls-1{fill:#85437f}.cls-2{fill:#782471}.cls-3{fill:#8f568a}
		</style>
	</defs>
	<path class="cls-1" d="m4 143.285 31.124 17.971v-15.469l-17.728-10.234v-20.471l-4.758-2.749L4 107.347v35.938z"/>
	<path class="cls-2" d="m65.769 112.333-4.758 2.749v20.47l-17.728 10.235v15.468l31.124-17.97v-35.938l-8.638 4.986z"/>
	<path class="cls-3" d="m39.203 82.312-31.124 17.97 8.638 4.986 4.758 2.748 17.728-10.237 17.728 10.237v-.001l4.759-2.748 8.637-4.986-31.124-17.969z"/>
	<path class="cls-2" d="M39.203 122.96v17.023l14.742-8.512v-17.023l-14.742 8.512z"/>
	<path class="cls-1" d="m24.461 131.474 14.742 8.51V122.96l-14.742-8.51Zm14.742-8.514Z"/>
	<path class="cls-3" d="m39.203 105.938-14.742 8.513 14.742 8.509 14.742-8.512-14.742-8.51z"/>
	<path d="M366.848 122.508c0-8.344 3.171-11.24 10.688-11.24 6.14 0 10.484 2.207 10.484 9.103v.275c0 .828-.277 1.862-1.656 1.862Zm26.273 21.034v-4.69h-17.86c-7.38 0-8.413-5.723-8.413-11.654h21.79c4.139 0 5.45-2.207 5.45-6.413 0-11.035-6.896-14.207-16.62-14.207-12.345 0-16.621 5.38-16.621 18.827 0 11.035 2.276 18.137 13.173 18.137Zm-36.419 0v-4.69h-2.413c-5.585 0-7.793-1.723-7.793-7.378V111.68h10.206v-4.69h-10.205V95.27h-5.793v11.723h-5.38v4.689h5.38v20.138c0 7.379 2.55 11.723 11.656 11.723Zm-32.75-17.585v11.034a1.725 1.725 0 0 1-1.929 1.862H308.85c-3.585 0-4.55-2.552-4.55-6.483 0-3.931.965-6.414 4.55-6.414Zm-22.962-18.965v4.689h17.791c3.655 0 5.172 2.14 5.172 5.242v4.344h-16.206c-6.69 0-9.516 3.862-9.516 11.103 0 7.586 2.827 11.172 9.516 11.172h16.276c4.275 0 5.724-1.793 5.724-5.517v-21.033c0-6-3.035-10-9.517-10Zm-23.922 36.55h5.791v-21.93c0-6.689 2.346-9.931 8.69-9.931h2.965v-4.69h-3.998c-9.036 0-13.448 4.139-13.448 13.172Zm-14.6-4.69h-10.827c-8.758 0-10.206-4.62-10.206-13.585 0-8.62 1.448-13.586 10.206-13.586h8.207c1.861 0 2.62.897 2.62 2.483Zm-.07 4.69c-.55 5.104-4.344 7.173-9.24 7.173h-15.241v4.69h15.24c11.448 0 15.103-5.312 15.103-15.379v-26.69c0-5.517-3.517-6.344-9.24-6.344h-8.483c-12.068 0-15.171 6.896-15.171 18.275 0 11.724 3.103 18.275 15.171 18.275Zm-40.418-17.585v11.034a1.725 1.725 0 0 1-1.93 1.862h-13.172c-3.586 0-4.552-2.552-4.552-6.483 0-3.931.966-6.414 4.552-6.414Zm-22.964-18.965v4.689h17.792c3.655 0 5.172 2.14 5.172 5.242v4.344h-16.206c-6.689 0-9.516 3.862-9.516 11.103 0 7.586 2.827 11.172 9.516 11.172h16.275c4.277 0 5.725-1.793 5.725-5.517v-21.033c0-6-3.035-10-9.517-10Zm-7.688 36.55v-4.69h-2.414c-5.587 0-7.793-1.723-7.793-7.378V111.68h10.207v-4.69h-10.207V95.27h-5.793v11.723h-5.379v4.689h5.38v20.138c0 7.379 2.551 11.723 11.654 11.723Zm-32.75-17.585v11.034a1.725 1.725 0 0 1-1.931 1.862h-13.172c-3.586 0-4.552-2.552-4.552-6.483 0-3.931.966-6.414 4.552-6.414Zm-22.965-18.965v4.689h17.792c3.656 0 5.172 2.14 5.172 5.242v4.344h-16.206c-6.688 0-9.516 3.862-9.516 11.103 0 7.586 2.828 11.172 9.516 11.172h16.276c4.276 0 5.724-1.793 5.724-5.517v-21.033c0-6-3.035-10-9.517-10Zm-15.66 4.76v24.48c0 1.862-.483 2.62-2.414 2.62h-7.448c-8.758 0-10.207-4.62-10.207-13.585 0-8.62 1.449-13.516 10.207-13.516Zm.207 31.79c4.206 0 5.585-2.137 5.585-5.723v-42.55h-5.792v11.723h-10.966c-12.068 0-15.17 6.896-15.17 18.275 0 11.724 3.102 18.275 15.17 18.275Z" style="fill:#571459"/>
</svg>
