<svg xmlns="http://www.w3.org/2000/svg" viewBox="14.97 -0.53 391.56 178.56" style="isolation:isolate">
	<defs>
		<clipPath id="a">
			<path d="M0 0h423.73v207.98H0z"/>
		</clipPath>
	</defs>
	<g clip-path="url(#a)">
		<path fill="none" d="M22.69-12.26h377.733v231.362H22.69V-12.26z"/>
		<path fill="#F36925" d="M63.863 156.102h9.327l-4.396-12.745-4.931 12.745zm11.379 5.715H61.663l-2.733 7.277c-.343.536-.929 1.074-1.514 1.074H53.85c-1.124 0-1.709-.734-1.366-1.564l12.451-31.546c.342-.537.978-1.075 1.514-1.075h4.787c.438 0 1.221.39 1.367.732l11.72 31.939c.343.83-.389 1.514-1.368 1.514h-3.662c-.44 0-1.221-.392-1.367-.734l-2.686-7.617m11.337-20.316c-.783 0-1.417-.488-1.417-1.124v-3.271c0-.634.634-1.123 1.417-1.123h24.367c.831 0 1.32.489 1.32 1.123v3.272c0 .635-.489 1.124-1.32 1.124h-9.082v27.542c0 .635-.588 1.124-1.319 1.124H96.93c-.783 0-1.417-.489-1.417-1.124v-27.543h-8.936m38.143 14.601h9.328l-4.395-12.745-4.933 12.745zm11.379 5.715h-13.577l-2.733 7.277c-.344.536-.929 1.074-1.515 1.074h-3.565c-1.124 0-1.71-.734-1.367-1.564l12.452-31.546c.342-.537.977-1.075 1.515-1.075h4.786c.439 0 1.221.39 1.366.732l11.72 31.939c.343.83-.389 1.514-1.366 1.514h-3.662c-.44 0-1.222-.392-1.369-.734l-2.685-7.617z"/>
		<path fill="#4F839C" d="M200.668 170.705c-3.32 0-6.201-.684-8.154-2.15l.977-3.564c1.904.977 4.248 1.954 7.567 1.954 4.201 0 7.571-2.198 7.523-5.862-.05-3.32-2.638-5.078-7.276-7.031-5.275-1.807-8.645-4.542-8.745-9.327-.144-5.324 4.201-9.279 10.698-9.279 4.004 0 6.738 1.563 7.47 1.954l-1.463 3.418c-2.053-1.465-4.347-1.709-6.35-1.613-3.369.148-6.544 2.149-6.446 5.275.049 2.344 1.856 4.346 5.666 5.91 4.736 2.002 10.156 4.638 10.303 10.646.098 5.616-3.857 9.669-11.77 9.669m24.959 0c-3.32 0-6.202-.684-8.155-2.15l.976-3.564c1.905.977 4.249 1.954 7.57 1.954 4.2 0 7.57-2.198 7.521-5.862-.048-3.32-2.638-5.078-7.276-7.031-5.275-1.807-8.645-4.542-8.742-9.327-.146-5.324 4.199-9.279 10.695-9.279 4.004 0 6.738 1.563 7.471 1.954l-1.465 3.418c-2.052-1.465-4.346-1.709-6.349-1.613-3.37.148-6.543 2.149-6.446 5.275.049 2.344 1.857 4.346 5.666 5.91 4.736 2.002 10.157 4.638 10.302 10.646.099 5.616-3.856 9.669-11.768 9.669m39.902-4.347v3.81h-22.367v-34.185h21.927v3.907h-18.02v9.083h17.043v3.615h-17.043v13.77h18.46m10.553 3.81h-3.907v-34.185h3.907l19.045 15.823v-15.823h3.956v34.185h-3.956V156.69l-19.045-15.53v29.008zm27.254-30.669v-3.516h26.028v3.516H318.23v30.669h-3.808v-30.669h-11.087m30.722-3.565h3.955v34.234h-3.955v-34.234m19.145 19.778h11.866l-5.713-16.262-6.153 16.262zm-5.47 14.456h-4.346l13.429-34.185h5.128l12.55 34.185h-4.297l-3.809-10.695h-14.602l-4.053 10.695m51.379 0h-19.973v-34.136h3.908v30.376h16.066v3.761M186.161 139.89h-21.928v-3.907h21.928v3.907z"/>
		<path fill="#F36925" d="M33.435 135.983h-.8v5.811h.8c7.177 0 9.765 5.373 9.765 11.233s-3.564 11.182-9.765 11.329h-.8v5.812h.897c11.183-.392 16.165-8.253 16.165-17.141 0-10.159-6.692-17.044-16.262-17.044m-4.707 0h-4.622c-.781 0-1.416.489-1.416 1.123v31.938c0 .635.635 1.123 1.416 1.123h4.622v-34.184z"/>
		<path fill="#4F839C" d="M186.161 170.168h-21.928v-3.907h21.928v3.907zm-3.935-15.139h-17.992v-3.907h17.993v3.907m62.372-92.389a2.553 2.553 0 0 1-2.21-3.828 2.552 2.552 0 1 1 2.21 3.828zm-3.497-13.626a2.552 2.552 0 1 1 5.103 0 2.552 2.552 0 0 1-5.103 0zm-28.949 17.502a5.094 5.094 0 1 1 0-10.189 5.094 5.094 0 0 1 0 10.189zm-18.458 4.285a2.55 2.55 0 1 1 .001-5.101 2.55 2.55 0 0 1-.001 5.101zm-7.382-6.65a4.06 4.06 0 1 1 0-8.12 4.06 4.06 0 0 1 0 8.119v.001zm-9.13-18.996a2.553 2.553 0 1 1 .001-5.105 2.553 2.553 0 0 1-.001 5.105zm59.842-27.578a3.792 3.792 0 0 1-2.622 1.056 3.813 3.813 0 0 1-3.813-3.812c0-.59.144-1.14.382-1.638a39.37 39.37 0 0 0-20.081-5.479c-1.11 0-2.204.057-3.291.147.01.094.028.184.028.28a2.547 2.547 0 1 1-5.056.457 39.425 39.425 0 0 0-17.904 9.067 4.308 4.308 0 0 1 1.246 3.034 4.328 4.328 0 0 1-4.328 4.328 4.29 4.29 0 0 1-2.71-.981 39.375 39.375 0 0 0-7.546 23.23c0 12.231 5.553 23.163 14.271 30.419a4.395 4.395 0 0 1 3.536-1.794 4.419 4.419 0 0 1 4.419 4.417 4.386 4.386 0 0 1-.614 2.21 39.32 39.32 0 0 0 6.434 2.601 2.544 2.544 0 0 1 2.454-1.894 2.554 2.554 0 0 1 2.501 3.051c2.134.356 4.325.551 6.56.551.096 0 .191-.007.286-.007-.004-.059-.019-.115-.019-.175a3.547 3.547 0 0 1 3.547-3.546 3.534 3.534 0 0 1 3.494 3.042 39.252 39.252 0 0 0 9.934-3.262 3.694 3.694 0 0 1-.269-1.37 3.699 3.699 0 0 1 3.699-3.698c1.078.002 2.1.478 2.795 1.301 9.76-7.205 16.095-18.783 16.095-31.846 0-11.83-5.199-22.438-13.429-29.689"/>
		<path fill="none" stroke="#FFF" stroke-miterlimit="10" stroke-width="1.722" d="m212.153 61.421 22.249-45.97m-22.249 45.97-7.077-53.289m7.077 53.289-30.568-40.732m30.568 40.732-34.971-18.818m34.971 18.818-25.84-1.333m25.84 1.333-18.458 6.827m18.458-6.827-23.017 18.887m23.017-18.887-10.324 24.356m10.324-24.356 2.55 25.223m-2.55-25.888 19.409 20.753m-19.409-20.088 32.446-1.333m-32.446 1.333 31.5-12.407" vector-effect="non-scaling-stroke"/>
		<path fill="#F36925" d="M236.071 14.821a1.67 1.67 0 1 1-3.341 0 1.67 1.67 0 0 1 3.341-.001m-29.878-6.689a1.118 1.118 0 1 1-2.235 0 1.117 1.117 0 1 1 2.236 0m-22.712 12.557a1.895 1.895 0 0 1-3.791 0 1.896 1.896 0 0 1 3.79 0m-5.183 21.915a1.117 1.117 0 1 1-2.234.065 1.117 1.117 0 0 1 2.234-.065zm9.794 17.485a1.779 1.779 0 1 1-3.558 0 1.779 1.779 0 0 1 3.558 0zm6.722 8.161a1.12 1.12 0 0 1-1.677.967 1.12 1.12 0 0 1-.558-.968 1.117 1.117 0 0 1 2.234 0m-3.742 12.06a1.934 1.934 0 1 1-3.869.001 1.934 1.934 0 0 1 3.869-.001zm11.875 5.469a1.115 1.115 0 0 1-1.676.967 1.117 1.117 0 1 1 1.676-.968m13.311.869a1.556 1.556 0 0 1-2.331 1.344 1.553 1.553 0 1 1 2.331-1.345m16.925-5.135a1.62 1.62 0 1 1-3.239 0 1.62 1.62 0 0 1 3.239 0zm12.534-21.421a1.117 1.117 0 1 1-2.234 0 1.117 1.117 0 0 1 2.234 0zm-.946-11.074a1.117 1.117 0 1 1-2.234 0 1.117 1.117 0 0 1 2.234 0zm-29.937 12.407a2.68 2.68 0 1 1-5.36 0 2.68 2.68 0 0 1 5.36 0"/>
	</g>
</svg>
