<svg xmlns="http://www.w3.org/2000/svg" viewBox="-3.84 85.16 407.42 74.42">
	<path fill="#3a3a42" d="M52.637 100.235a22.153 22.153 0 0 0-9.165-5.382 43.625 43.625 0 0 0-13.1-1.751H4v58.796h26.372a43.625 43.625 0 0 0 13.1-1.75 22.153 22.153 0 0 0 9.165-5.383 22.153 22.153 0 0 0 5.382-9.165 43.619 43.619 0 0 0 1.751-13.1 43.619 43.619 0 0 0-1.75-13.1 22.153 22.153 0 0 0-5.383-9.165zm-8.95 30.393a11.424 11.424 0 0 1-2.874 5.296 11.421 11.421 0 0 1-5.296 2.875 32.482 32.482 0 0 1-8.128.864h-8.863v-34.326h8.863a32.482 32.482 0 0 1 8.128.864 11.421 11.421 0 0 1 5.296 2.875 11.424 11.424 0 0 1 2.875 5.296 32.478 32.478 0 0 1 .864 8.128 32.478 32.478 0 0 1-.864 8.128zm62.083-17.596a13.399 13.399 0 0 0-5.62-3.264 27.602 27.602 0 0 0-8.128-1.06H68.633v10.636h22.654a4.787 4.787 0 0 1 3.437 1.007 4.692 4.692 0 0 1 1.016 3.407v.515H79.441q-6.702 0-10.268 3.566-3.566 3.567-3.566 10.268 0 6.658 3.566 10.225t10.268 3.566h30.652v-25.161a27.379 27.379 0 0 0-1.059-8.106 13.41 13.41 0 0 0-3.264-5.599zm-9.857 28.404H83.505a3.41 3.41 0 0 1-2.486-.865 3.286 3.286 0 0 1-.886-2.464 3.347 3.347 0 0 1 .886-2.507 3.41 3.41 0 0 1 2.486-.865h12.408zm40.898-1.036a4.2 4.2 0 0 1-.865-3.02v-18.036h13.273v-10.635h-13.273V97.166h-14.353v11.543h-6.01v10.635h6.01v18.781a24.025 24.025 0 0 0 .735 6.39 8.91 8.91 0 0 0 6.658 6.65 24.175 24.175 0 0 0 6.398.733h14.008v-10.635h-9.555a4.222 4.222 0 0 1-3.026-.863zm57.546-27.368a13.399 13.399 0 0 0-5.62-3.264 27.602 27.602 0 0 0-8.128-1.06h-23.39v10.636h22.655a4.787 4.787 0 0 1 3.437 1.007 4.692 4.692 0 0 1 1.016 3.407v.515h-16.299q-6.702 0-10.268 3.566-3.566 3.567-3.566 10.268 0 6.658 3.566 10.225t10.268 3.566h30.652v-25.161a27.379 27.379 0 0 0-1.06-8.106 13.41 13.41 0 0 0-3.263-5.599zm-9.857 28.404h-12.408a3.409 3.409 0 0 1-2.486-.865 3.286 3.286 0 0 1-.886-2.464 3.347 3.347 0 0 1 .886-2.507 3.41 3.41 0 0 1 2.486-.865H184.5zm52.27-25.162h-10.98a5.484 5.484 0 1 1 0-10.937h26.372V93.102h-29.485q-8.907 0-13.25 4.366-4.346 4.367-4.346 13.273t4.345 13.337q4.345 4.431 13.251 4.431h11.197q5.577 0 5.577 5.577t-5.577 5.577h-27.193v12.235h30.09q8.82 0 13.359-4.502 4.54-4.5 4.54-13.331 0-8.83-4.54-13.311-4.54-4.48-13.36-4.48zm43.925 24.126a4.2 4.2 0 0 1-.864-3.02v-18.036h13.272v-10.635h-13.272V97.166h-14.354v11.543h-6.009v10.635h6.01v18.781a24.025 24.025 0 0 0 .734 6.39 8.91 8.91 0 0 0 6.658 6.65 24.175 24.175 0 0 0 6.399.733h14.007v-10.635h-9.554a4.222 4.222 0 0 1-3.027-.863zm57.546-27.368a13.399 13.399 0 0 0-5.62-3.264 27.602 27.602 0 0 0-8.128-1.06h-23.389v10.636h22.654a4.787 4.787 0 0 1 3.437 1.007 4.692 4.692 0 0 1 1.016 3.407v.515h-16.299q-6.702 0-10.267 3.566-3.567 3.567-3.567 10.268 0 6.658 3.567 10.225t10.267 3.566h30.652v-25.161a27.379 27.379 0 0 0-1.059-8.106 13.41 13.41 0 0 0-3.264-5.599zm-9.857 28.404h-12.408a3.41 3.41 0 0 1-2.486-.865 3.286 3.286 0 0 1-.886-2.464 3.347 3.347 0 0 1 .886-2.507 3.41 3.41 0 0 1 2.486-.865h12.408zm50.623-11.327 15.909-21.4h-15.391l-8.776 12.537-8.733-12.537h-15.953l15.953 21.4-16.817 21.789h16.082l9.036-12.926 9.036 12.926h16.471l-16.817-21.789z"/>
</svg>
