<svg xmlns="http://www.w3.org/2000/svg" width="200" height="128">
	<path d="M89.35 61V40.38h6.35a9.69 9.69 0 0 1 4.86 1.22 8.54 8.54 0 0 1 3.35 3.49 10.73 10.73 0 0 1 1.2 5.13v1a10.76 10.76 0 0 1-1.18 5.11 8.5 8.5 0 0 1-3.33 3.47 9.65 9.65 0 0 1-4.86 1.2zm4.25-17.18v13.76h2.05A4.6 4.6 0 0 0 99.46 56a7.35 7.35 0 0 0 1.35-4.66V50.2a7.52 7.52 0 0 0-1.3-4.76 4.6 4.6 0 0 0-3.81-1.62zM116.81 61a4.27 4.27 0 0 1-.41-1.37 4.94 4.94 0 0 1-3.87 1.66A5.44 5.44 0 0 1 108.8 60a4.16 4.16 0 0 1-1.48-3.28 4.33 4.33 0 0 1 1.81-3.72 8.89 8.89 0 0 1 5.22-1.32h1.88v-.87a2.48 2.48 0 0 0-.55-1.7 2.11 2.11 0 0 0-1.72-.64 2.43 2.43 0 0 0-1.62.5 1.69 1.69 0 0 0-.59 1.36h-4.09a4.18 4.18 0 0 1 .82-2.47 5.46 5.46 0 0 1 2.33-1.86 8.44 8.44 0 0 1 3.37-.64 6.68 6.68 0 0 1 4.49 1.42 5 5 0 0 1 1.66 4v6.64a7.39 7.39 0 0 0 .61 3.3V61zm-3.39-2.84a3.54 3.54 0 0 0 1.68-.41 2.63 2.63 0 0 0 1.13-1.08V54h-1.53c-2 0-3.14.71-3.27 2.12v.24a1.63 1.63 0 0 0 .54 1.26 2.09 2.09 0 0 0 1.45.53zm14.96-16.25v3.76H131v3h-2.62v7.64a1.88 1.88 0 0 0 .32 1.22 1.64 1.64 0 0 0 1.25.37 7.09 7.09 0 0 0 1.2-.1v3.1a8.26 8.26 0 0 1-2.47.37c-2.87 0-4.34-1.45-4.39-4.35v-8.24h-2.24v-3h2.24v-3.77zM142.16 61a4.27 4.27 0 0 1-.41-1.37 5 5 0 0 1-3.87 1.66 5.42 5.42 0 0 1-3.73-1.29 4.16 4.16 0 0 1-1.48-3.28 4.34 4.34 0 0 1 1.8-3.74 8.93 8.93 0 0 1 5.22-1.32h1.89v-.87a2.53 2.53 0 0 0-.55-1.7 2.13 2.13 0 0 0-1.72-.64 2.43 2.43 0 0 0-1.62.5 1.69 1.69 0 0 0-.59 1.36H133a4.12 4.12 0 0 1 .82-2.47 5.49 5.49 0 0 1 2.33-1.84 8.47 8.47 0 0 1 3.37-.64 6.69 6.69 0 0 1 4.5 1.42 5 5 0 0 1 1.66 4v6.64a7.25 7.25 0 0 0 .61 3.3V61zm-3.39-2.84a3.5 3.5 0 0 0 1.67-.41 2.65 2.65 0 0 0 1.14-1.08V54h-1.53c-2.05 0-3.14.71-3.28 2.12v.24a1.63 1.63 0 0 0 .54 1.26 2.09 2.09 0 0 0 1.46.53zM97 81.45h-3.4V89h-4.25V68.38H97a8.64 8.64 0 0 1 5.65 1.62 5.61 5.61 0 0 1 2 4.6 6.35 6.35 0 0 1-.91 3.52 6.23 6.23 0 0 1-2.74 2.25l4.46 8.43v.2h-4.56zM93.6 78H97a3.5 3.5 0 0 0 2.48-.82 2.92 2.92 0 0 0 .87-2.24 3.11 3.11 0 0 0-.83-2.3 3.45 3.45 0 0 0-2.52-.82h-3.4zm23.17 9.44a5.13 5.13 0 0 1-4.19 1.84 4.81 4.81 0 0 1-3.76-1.42 6 6 0 0 1-1.33-4.15v-10h4.09v9.91c0 1.6.73 2.4 2.18 2.4a2.94 2.94 0 0 0 2.86-1.45v-10.9h4.11V89h-3.85zm10.81-13.77.13 1.77a5.39 5.39 0 0 1 4.41-2 4.45 4.45 0 0 1 3.62 1.43A6.7 6.7 0 0 1 137 79.1V89h-4.09v-9.8a2.64 2.64 0 0 0-.57-1.89 2.51 2.51 0 0 0-1.88-.59 2.81 2.81 0 0 0-2.59 1.47V89h-4.1V73.67zm16.25 0 .12 1.77a5.39 5.39 0 0 1 4.41-2 4.45 4.45 0 0 1 3.64 1.38 6.64 6.64 0 0 1 1.22 4.28V89h-4.09v-9.8a2.64 2.64 0 0 0-.57-1.89 2.49 2.49 0 0 0-1.88-.59 2.81 2.81 0 0 0-2.59 1.47V89H140V73.67zm19.52 15.61a7.51 7.51 0 0 1-5.48-2.07 7.35 7.35 0 0 1-2.12-5.51v-.39a9.32 9.32 0 0 1 .89-4.13 6.56 6.56 0 0 1 2.53-2.8 7 7 0 0 1 3.73-1 6.35 6.35 0 0 1 4.95 2 8.07 8.07 0 0 1 1.8 5.62v1.68h-9.75a3.75 3.75 0 0 0 1.2 2.4 3.56 3.56 0 0 0 2.52.91 4.43 4.43 0 0 0 3.7-1.71l2 2.25a6.18 6.18 0 0 1-2.49 2 8.14 8.14 0 0 1-3.48.75zm-.46-12.59a2.59 2.59 0 0 0-2 .82 4.31 4.31 0 0 0-1 2.37h5.69v-.33a3 3 0 0 0-.73-2.11 2.65 2.65 0 0 0-1.96-.75zm17.7.82a12.16 12.16 0 0 0-1.48-.11c-1.54 0-2.56.52-3 1.57V89H172V73.67h3.86l.14 1.83a3.78 3.78 0 0 1 3.41-2.11 4.33 4.33 0 0 1 1.27.18z"/>
	<path d="M60.61 49.45a5.6 5.6 0 1 1 4-1.64 5.59 5.59 0 0 1-4 1.64zm-5-1.39a124.85 124.85 0 0 0-13.93-2.6c-1.31 0-12.38 4-12.38 4a2.48 2.48 0 0 0-1 3.74 2.49 2.49 0 0 0 1.9 1c.25 0 10.46-3.52 11.52-3.49a35.65 35.65 0 0 1 5.42 1.69L20.85 85.82a3.34 3.34 0 0 0-.85 2.49 3.29 3.29 0 0 0 6 1.57l9.17-11.51.08-.09 6.89-8 6 5.18s-8.24 6.62-8.36 6.73a3.29 3.29 0 0 0-.09 4.81 3.25 3.25 0 0 0 2.4.94 3.29 3.29 0 0 0 2.35-1.07l10.71-8.66a3.29 3.29 0 0 0 .47-4.87l-6.54-7.47 8.83-8.07 9.17 6a3 3 0 0 0 1.38.42 2.53 2.53 0 0 0 2.48-2.48S72 49.08 72 49a2.48 2.48 0 0 0-5 0l-.65 8.51s-9.37-8.82-10.81-9.4z" fill="#89653a"/>
</svg>
