<svg version="1.1" id="Layer_1" xmlns="http://www.w3.org/2000/svg" x="0" y="0" viewBox="0 0 627.1 163.2" style="enable-background:new 0 0 627.1 163.2" xml:space="preserve">
	<style>
		.st1{fill:#497b32}.st2{fill:#a1b351}.st3{fill:#769a50}.st4{fill:#92a959}.st5{fill:#d4d4d4}.st6{fill:#2a6733}.st7{fill:#9dad33}.st8{fill:#a9b432}.st9{fill:#6f9233}.st10{fill:#9eb04d}.st11{fill:#3e7334}.st12{fill:#397033}.st13{fill:#9dad36}.st14{fill:#568232}.st15{fill:#898c8c}.st16{fill:#5d8632}.st17{fill:#a2b28d}.st18{fill:#aabc6c}.st19{fill:#829a34}.st20{fill:#cbd8b4}.st21{fill:#b5c689}.st22{fill:#bfcf9f}.st23{fill:#d4d5d2}.st24{fill:#aabb72}.st25{fill:#558232}.st26{fill:#bccc98}.st27{fill:#9c9f9e}.st28{fill:#94a855}.st29{fill:#a5b862}.st30{fill:#a6b962}.st31{fill:#b2c483}.st32{fill:#cccecb}.st33{fill:#a3b559}.st34{fill:#77933b}.st35{fill:#d4dec4}.st36{fill:#c4d2a8}.st37{fill:#b7c891}.st38{fill:none;stroke:#b7c891;stroke-width:0;stroke-linecap:round;stroke-linejoin:round}.st39{fill:#c1c2c3}.st40{fill:#8a9f54}.st41{fill:#d0ddc0}.st42{fill:#7e9855}.st43{fill:#b3c586}.st44{fill:#96ac5f}.st45{fill:#b0c27f}.st46{fill:#8fa449}.st47{fill:#bece9e}.st48{fill:#d6d9d0}.st49{fill:#404040}.st50{fill:#414141}.st51{fill:#424242}.st52{fill:#326798}.st53{fill:#ebebeb}.st54{fill:#020202}.st55{fill:#ececec}.st56{fill:#010101}.st57{fill:#030303}.st58{fill:#040404}.st59{fill:#bdbdbd}.st60{fill:#e8e8e8}.st61{fill:#cdcdce}.st62{fill:#cfcfcf}
	</style>
	<path d="M607.5 112.2z" style="fill:none"/>
	<path d="M128.3 40.8C118.2 34.9 108.2 29 98 23.3c-7.5-4.2-14.6-9.3-22.8-12.4H70c-1.5.3-3 .4-4.3 1.2-2.4 1.5-4.9 2.8-7.3 4.2C45 24.1 31.5 31.8 18 39.6c-4.3 2.5-7.7 5.6-8.7 10.7v62.4c.5 4.3 2.8 7.4 6.3 9.8 1.2.8 2.4 1.5 3.6 2.2 13.2 7.5 26.3 15.2 39.4 22.7 3.4 1.9 6.5 4.4 10.4 5.2h6.9c2.5-.9 4.8-2.2 7.1-3.5 15.2-8.8 30.4-17.5 45.6-26.3 4.7-2.7 7.4-6.9 7.4-12.4.1-19 .1-38 0-57-.1-5.6-2.8-9.8-7.7-12.6zm-7.5 71.6c-10.4 6.1-20.7 12.2-31 18.3-3.2 1.9-6.4 3.8-9.6 5.6-3.5 2.1-6.2.7-6.3-3.4-.2-5.6 0-11.2 0-16.8V82h.1V37.6c0-1.8-.1-3.7-.1-5.5 0-4.5 2.3-6.1 6.4-4.1 3.4 1.7 6.5 3.6 9.8 5.5 9.4 5.4 18.6 11 28.1 16.2 4.4 2.4 5.9 5.9 5.9 10.5v44.6c0 .5-.1 1.1 0 1.6.4 2.8-.9 4.6-3.3 6z" style="fill:#0077bd"/>
	<path d="M195.8 44.9c-7.1-.2-14.2.1-21.2-.1-4.2-.1-6.3 2.3-6.2 6.2.1 10.3 0 20.6 0 30.9v31.2c0 4.3 1.8 6.1 6 6.1h5.5c6.7-.1 13.4.4 20-.5 8.6-1.2 16.1-4.6 22-11 9.6-10.5 11.9-22.9 8.4-36.4-3.9-15.5-17.9-26-34.5-26.4zm-1.2 65c-5.1.1-10.2 0-15.3 0-1.2 0-1.3-.4-1.3-1.4V55.6c0-1.3.3-1.6 1.6-1.6 5.7.2 11.4-.3 17.1.2 14.6 1.3 24.2 11.2 25.3 25.7 1.2 16.9-10.5 29.7-27.4 30z"/>
	<path d="M513.1 89.6c6.1-7.6 6.4-16.5 4.6-25.4-2.3-11.3-12.2-18.8-23.8-18.9-9.3 0-18.6-.2-27.9.2-3.3.1-5.4 2-5.4 5.4v63.5c0 1.5.4 2.9 1.6 4 1.5 1.4 3.3 1.7 5.1 1 1.6-.7 2.6-1.5 2.5-4-.1-5.1 0-10.1-.1-15.2 0-1.2.3-1.4 1.5-1.4h21.9c1 0 1.7.3 2.3 1.1 4 5.6 8 11.2 12.1 16.8 2 2.8 5.2 3.3 7.5 1.4 2.4-2 2.4-4.7.2-7.4-3.8-4.5-7.6-9.1-11.5-13.7 4.7-2.6 7.1-4.6 9.4-7.4zm-4.5-10.9c-1.4 6.4-7.2 11.4-13.7 11.5-8 .2-16.1 0-24.1.1-1.1 0-1-.6-1-1.3V56.1c0-1.2.3-1.4 1.5-1.4H494c8.6 0 15.1 6.7 15.1 15.3-.2 2.8.1 5.8-.5 8.7z"/>
	<path d="M435.5 109.5h-37.9c-1.2 0-1.4-.3-1.4-1.4.1-6.7.1-13.4 0-20.1 0-1.3.3-1.7 1.7-1.7 10.9.1 21.8 0 32.7.1 1.5 0 2.8-.4 3.8-1.5 1.3-1.5 1.6-3.2.8-5-.8-1.9-2.3-2.9-4.5-2.9h-32.8c-1.2 0-1.6-.2-1.6-1.6.1-6.4.1-12.7 0-19.1 0-1.6.3-2 1.9-2 12.3.1 24.6 0 36.9.1 2.1 0 3.6-.7 4.5-2.6 1.7-3.4-.7-7-4.7-7H392c-3.8 0-5.8 2.1-5.8 5.9v62.9c0 3.1 2 5.4 4.9 5.4h45.1c1.1 0 2.1-.4 3-1.1 1.5-1.4 2-3.5 1.3-5.4-1-1.9-2.7-3-5-3z"/>
	<path d="M596.4 100.5c-7.7-17.3-15.5-34.6-23.2-52-.9-1.9-1.9-3.5-4.1-4.1-3.6-.9-6.3.5-7.9 4.2-8.2 18.5-16.5 37-24.7 55.6-1.2 2.7-2.4 5.3-3.6 8-1.4 3.5.5 6.8 4 6.8 2 0 3.4-.9 4.3-3.1 2.2-5 4.4-10 6.6-15.1.4-1 .9-1.4 2-1.4 11.5.1 23 .1 34.4 0 1.2 0 1.7.4 2.1 1.4 2.1 4.9 4.3 9.7 6.4 14.6.8 1.8 1.9 3.2 4 3.4 3.8.5 6.3-3.1 4.7-6.9-1.5-3.7-3.3-7.5-5-11.4zm-44.1-10.1c4.9-11.2 9.8-22.4 14.8-33.8 5 11.4 9.9 22.5 14.8 33.8h-29.6z"/>
	<path d="M299.2 88.5c-6-13.2-12-26.4-17.9-39.6-1.2-2.6-3-4.1-5.9-4.1-3 0-4.8 1.5-6 4.2-7.5 16.6-15 33.1-22.4 49.6-2 4.5-4.1 9-6.1 13.5-1.6 3.7.7 7.2 4.5 6.8 1.9-.2 3.1-1.4 3.9-3.1 2.2-5 4.4-9.9 6.6-14.9.4-.9.8-1.3 1.9-1.3h35.1c.9 0 1.4.2 1.7 1.1.8 2.1 1.8 4.1 2.7 6.1l4.2 9.3c.9 1.9 2.5 3 4.7 2.8 1.9-.2 3.2-1.2 3.9-3 .6-1.5.2-3-.4-4.4-3.5-7.6-7-15.3-10.5-23zm-38.9 2.1c5-11.2 9.9-22.3 14.9-33.6 5 11.3 9.9 22.3 14.9 33.6h-29.8z"/>
	<path d="M364.5 44.8h-48c-2.9 0-5 2-4.9 4.7 0 2.7 2 4.4 4.9 4.4h17.6c1.2 0 1.6.3 1.6 1.6-.1 9.7 0 19.5 0 29.2v29.6c0 2.5 1.7 4.4 4.1 4.7 2.4.3 4.6-1 5.3-3.4.3-.9.2-1.8.2-2.8V55.7c0-1.5.5-1.8 1.9-1.8 5.8.1 11.5 0 17.3 0 3 0 4.9-1.7 5-4.4 0-2.7-2.1-4.7-5-4.7z"/>
	<path d="M609.9 116.6c.5 0 .5-.5.6-1 .1-1 .6-.7 1.1-.3.3.3.6.6.9 1 .2.3.5.6.9.3.3-.3.2-.6 0-.8-.6-.6-.4-.9 0-1.6.7-1 .1-2.1-1.2-2.4-2.4-.5-2.8-.2-2.8 2.4v1.3c0 .4-.2 1.1.5 1.1zm1.4-4c.5.1 1.1-.1 1.1.6.1.7-.5.9-1.1.8-.4 0-.9.1-.9-.7 0-.6.3-.8.9-.7z" style="fill:#080808"/>
	<circle cx="611.4" cy="114.4" r="4.8" style="fill:none;stroke:#000;stroke-miterlimit:10"/>
</svg>
