<svg xmlns="http://www.w3.org/2000/svg" width="824.969" height="573.172" viewBox="0 0 618.727 429.879">
	<g data-name="4c">
		<clipPath id="a">
			<path transform="matrix(1 0 0 -1 0 429.879)" d="M0 429.879h618.727V0H0Z"/>
		</clipPath>
		<g clip-path="url(#a)">
			<path d="m523.297 185.54-9.775 30.832-11.387-30.832h-11.006l16.033 43.93c.658 1.702.953 2.657.953 2.841 0 4.745-3.517 8.256-8.255 8.256-1.237 0-2.944-.097-5.124-.19v8.44c2.657.196 4.653.286 6.07.286 6.452 0 10.253-3.125 12.716-10.336l18.209-53.227Zm-39.78 38.613c-5.878 0-7.591-1.708-7.591-7.589v-22.86h9.4v-8.164h-9.4v-12.99l-8.625.848-1.05 12.142h-6.446v8.164h5.885v24.281c0 6.358.664 9.013 3.127 11.575 2.183 2.273 6.166 3.795 9.966 3.795 1.703 0 4.262-.379 7.399-1.044v-8.25c-.951.092-1.803.092-2.664.092m-42.295-13.563c0-9.299 4.93-15.089 12.806-15.089h.567v-11.283c-.567-.094-1.05-.094-1.424-.094-1.805 0-3.7.57-5.402 1.606-3.801 2.372-5.787 5.408-7.4 11.007V185.54h-9.587v46.771h10.44Zm-52.272-7.21c.948-7.4 4.647-11.386 10.717-11.386 6.076 0 10.055 4.368 10.44 11.385Zm11.184 21.536c-7.106 0-11.184-4.937-11.184-13.568v-1.139h32.153v-1.324c0-14.995-8.16-24.292-21.151-24.292-13.187 0-22.01 9.866-22.01 24.473 0 14.806 8.444 24.194 21.635 24.194 10.332 0 17.635-5.12 20.676-14.512l-9.488-1.42c-2.276 5.497-5.22 7.588-10.631 7.588m-31.875-24.76c0-11.005-4.733-16.51-14.322-16.51-6.73 0-11.006 3.035-13.844 10.058v-24.666h-10.535v63.273h10.535v-24.284c0-9.769 3.79-15.27 10.43-15.27 4.652 0 7.205 3.127 7.205 8.914v30.64h10.53Zm-73.784 30.732h11.199c4.173 0 6.922 1.895 6.922 4.746 0 4.074-4.08 6.16-12.33 6.16-9.58 0-15.56-3.027-15.56-7.96 0-1.523.477-2.475 2.18-4.084 3.512.95 4.93 1.138 7.589 1.138m12.613-31.683c0 4.647-3.221 7.498-8.531 7.498-5.312 0-8.636-3.04-8.636-7.69 0-4.739 3.515-7.875 8.823-7.875 5.123 0 8.063 2.66 8.344 7.497Zm11.485-22.578c-6.167 0-9.585 2.655-11.291 8.913-3.982-.755-5.693-.947-9.006-.947-11.953 0-19.357 5.41-19.357 14.135 0 4.651 1.805 7.59 6.545 10.724-5.313 2.75-7.497 5.498-7.497 9.768 0 2.94 1.046 4.746 4.363 7.687-5.118 2.75-6.821 5.028-6.821 9.485 0 8.445 7.586 12.711 22.673 12.711 15.08 0 24.375-5.879 24.375-15.365 0-7.589-6.167-12.808-15.275-12.808H293.34c-3.892 0-6.36-1.804-6.36-4.744 0-2.087.854-3.13 3.229-4.459 4.173 1.044 5.977 1.237 8.822 1.237 11.096 0 18.885-5.886 18.885-14.428 0-3.884-1.525-6.542-5.51-10.054 1.706-3.127 2.946-3.788 6.834-3.788h3.22v-8.067Zm-51.248 8.913H256.8v22.487c0 4.645-.383 7.306-1.338 9.677-1.604 3.796-5.5 6.543-9.193 6.543-4.275 0-6.552-2.843-6.552-8.253V185.54h-10.81v32.731c0 9.394 5.123 14.99 13.754 14.99 3.892 0 7.208-1.134 9.862-3.412 2.47-1.999 3.514-3.606 5.032-7.69v10.152h9.77Zm-60.791 27.231c0 7.591-4.835 12.52-12.144 12.52-5.121 0-8.253-2.658-8.253-7.02 0-3.222 1.9-5.976 5.12-7.304 3.804-1.612 9.016-2.463 14.712-2.463h.565Zm10.346 10.054v-21.058c0-8.35-.86-10.72-4.843-13.853-2.938-2.277-7.302-3.32-13.943-3.32-6.836 0-11.103 1.043-15.086 3.604-4.176 2.752-5.407 4.743-6.267 9.776l9.019 1.325c1.138-5.12 4.459-7.305 10.907-7.305 6.639 0 9.867 2.465 9.867 7.305v3.511c-1.234 0-2.18-.095-2.847-.095-18.594 0-28.458 5.594-28.458 16.125 0 8.536 6.357 14.42 15.56 14.42 4.363 0 8.443-1.325 11.29-3.79 1.989-1.709 2.846-3.039 4.455-6.645.383 4.462.573 5.975 1.707 9.486h10.055c-.945-3.51-1.416-6.446-1.416-9.486m-88.947-44.779h10.916c9.867 0 16.786 9.205 16.786 22.3 0 13.753-7.114 22.667-18.121 22.667h-9.581Zm9.114 54.265c18.968 0 31.112-12.332 31.112-31.778 0-18.502-11.857-31.495-28.552-31.495h-23.34v63.273Z" fill="#52893e"/>
			<path d="M511.951 297.907c4.891 0 8.316-2.598 8.316-6.96v-.067c0-3.86-2.564-5.62-7.486-6.82-4.463-1.07-5.527-1.864-5.527-3.66v-.07c0-1.532 1.398-2.763 3.79-2.763 2.137 0 4.231.832 6.325 2.387l2.2-3.09c-2.358-1.894-5.059-2.93-8.454-2.93-4.627 0-7.957 2.766-7.957 6.762v.063c0 4.3 2.8 5.761 7.754 6.96 4.338.993 5.26 1.895 5.26 3.567v.06c0 1.764-1.59 2.928-4.135 2.928-2.883 0-5.119-1.094-7.348-3.027l-2.463 2.933c2.797 2.497 6.163 3.727 9.725 3.727m-35.945-.332h4.035V280.99l12.846 16.586h3.431V274.27h-4.025v16.114l-12.487-16.114h-3.8Zm-18.627-3.359c-4.633 0-7.926-3.766-7.926-8.293v-.067c0-4.527 3.227-8.234 7.853-8.234 4.627 0 7.926 3.773 7.926 8.301v.074c0 4.52-3.232 8.22-7.853 8.22m-.073 3.756c7.157 0 12.225-5.492 12.225-12.05v-.067c0-6.562-4.992-11.988-12.152-11.988-7.156 0-12.225 5.488-12.225 12.055v.074c0 6.547 4.998 11.976 12.152 11.976m-22.75-.398h4.087V274.27h-4.088Zm-17.05 0h4.125V278.06h7.388v-3.789h-18.906v3.79h7.393Zm-22.64.363c6.09 0 10.023-3.492 10.023-10.453V274.27h-4.096v13.418c0 4.297-2.24 6.492-5.867 6.492-3.66 0-5.889-2.332-5.889-6.664V274.27h-4.096v13.418c0 6.758 3.862 10.25 9.924 10.25m-30.857-.363h16.343v-3.734h-12.253v-19.57h-4.09Zm-18.633-3.359c-4.637 0-7.938-3.766-7.938-8.293v-.067c0-4.527 3.244-8.234 7.866-8.234 4.632 0 7.925 3.773 7.925 8.301v.074c0 4.52-3.222 8.22-7.853 8.22m-.072 3.756c7.162 0 12.224-5.492 12.224-12.05v-.067c0-6.562-4.998-11.988-12.152-11.988-7.166 0-12.225 5.488-12.225 12.055v.074c0 6.547 4.998 11.976 12.153 11.976m-25.407-.066c4.89 0 8.32-2.598 8.32-6.96v-.067c0-3.86-2.56-5.62-7.488-6.82-4.455-1.07-5.524-1.864-5.524-3.66v-.07c0-1.532 1.4-2.763 3.796-2.763 2.131 0 4.226.832 6.327 2.387l2.204-3.09c-2.377-1.894-5.07-2.93-8.46-2.93-4.632 0-7.962 2.766-7.962 6.762v.063c0 4.3 2.798 5.761 7.76 6.96 4.322.993 5.254 1.895 5.254 3.567v.06c0 1.764-1.59 2.928-4.127 2.928-2.892 0-5.12-1.094-7.35-3.027l-2.468 2.933c2.796 2.497 6.162 3.727 9.718 3.727m-33.967 0c4.895 0 8.323-2.598 8.323-6.96v-.067c0-3.86-2.559-5.62-7.488-6.82-4.458-1.07-5.523-1.864-5.523-3.66v-.07c0-1.532 1.394-2.763 3.793-2.763 2.126 0 4.227.832 6.33 2.387l2.19-3.09c-2.363-1.894-5.056-2.93-8.454-2.93-4.627 0-7.959 2.766-7.959 6.762v.063c0 4.3 2.803 5.761 7.764 6.96 4.32.993 5.258 1.895 5.258 3.567v.06c0 1.764-1.597 2.928-4.133 2.928-2.898 0-5.13-1.094-7.353-3.027l-2.462 2.933c2.797 2.497 6.154 3.727 9.714 3.727m-22.67 0c4.898 0 8.323-2.598 8.323-6.96v-.067c0-3.86-2.568-5.62-7.492-6.82-4.462-1.07-5.532-1.864-5.532-3.66v-.07c0-1.532 1.402-2.763 3.801-2.763 2.134 0 4.222.832 6.322 2.387l2.202-3.09c-2.364-1.894-5.06-2.93-8.457-2.93-4.632 0-7.954 2.766-7.954 6.762v.063c0 4.3 2.794 5.761 7.755 6.96 4.326.993 5.258 1.895 5.258 3.567v.06c0 1.764-1.596 2.928-4.122 2.928-2.904 0-5.137-1.094-7.363-3.027l-2.466 2.933c2.795 2.497 6.16 3.727 9.725 3.727m-32.068-.332h17.446v-3.66h-13.343v-6.262h11.68v-3.656h-11.68v-6.07h13.18v-3.657h-17.283Zm-27.95 0h4.023V280.99l12.857 16.586h3.426V274.27h-4.024v16.114l-12.486-16.114h-3.796Zm-11.792 0h4.1V274.27h-4.1Zm-14.82.332c4.894 0 8.326-2.598 8.326-6.96v-.067c0-3.86-2.569-5.62-7.493-6.82-4.467-1.07-5.53-1.864-5.53-3.66v-.07c0-1.532 1.395-2.763 3.794-2.763 2.136 0 4.232.832 6.328 2.387l2.2-3.09c-2.363-1.894-5.062-2.93-8.459-2.93-4.629 0-7.956 2.766-7.956 6.762v.063c0 4.3 2.797 5.761 7.76 6.96 4.324.993 5.253 1.895 5.253 3.567v.06c0 1.764-1.59 2.928-4.128 2.928-2.898 0-5.123-1.094-7.355-3.027l-2.46 2.933c2.795 2.497 6.154 3.727 9.72 3.727m-25.204.031c6.09 0 10.018-3.492 10.018-10.453V274.27h-4.095v13.418c0 4.297-2.237 6.492-5.86 6.492-3.666 0-5.896-2.332-5.896-6.664V274.27H141.5v13.418c0 6.758 3.86 10.25 9.925 10.25m-31.128-3.996v-6.39h6.492c3.225 0 4.79 1.16 4.79 3.136v.06c0 2.104-1.694 3.194-4.489 3.194Zm0-9.85v-6.197h5.891c2.627 0 4.095 1.133 4.095 2.961v.071c0 2.128-1.767 3.164-4.396 3.164Zm-4.029 13.483h10.787c5.191 0 8.625-2.227 8.625-6.39v-.067c0-3.168-1.9-4.738-4.632-5.66 1.733-.903 3.33-2.403 3.33-5.199v-.063c0-1.57-.532-2.836-1.564-3.859-1.33-1.34-3.428-2.067-6.096-2.067h-10.45Z" fill="#85aa40"/>
		</g>
	</g>
</svg>
