<svg xmlns="http://www.w3.org/2000/svg" viewBox="0 0 500 300" style="width:100%;height:100%;transform:translate3d(0,0,0)">
	<defs>
		<clipPath id="a">
			<path d="M0 0h500v300H0z"/>
		</clipPath>
		<clipPath id="b">
			<path d="M0 0h1080v1080H0z"/>
		</clipPath>
	</defs>
	<g clip-path="url(#a)">
		<g clip-path="url(#b)" transform="translate(-290 -390)" style="display:block">
			<path fill="currentColor" d="M-3.352-48.749h-27.986c-8.293 0-15.04 6.746-15.04 15.04V33.71c0 8.294 6.747 15.039 15.04 15.039h28.752c13.176 0 25.521-5.173 34.761-14.569 9.236-9.393 14.203-21.827 13.983-35.013-.44-26.422-22.651-47.916-49.51-47.916zm-5.759 74.744h-7.966v-51.989h7.966c17.17 0 25.976 11.637 25.976 25.993 0 14.357-8.972 25.996-25.976 25.996z" transform="matrix(1.01063 0 0 1.01063 382.278 539.63)" style="display:block"/>
			<path fill="currentColor" d="M31.449-41.025C23.047-47.16 12.855-50.27 1.158-50.27c-13.769 0-23.184 2.388-29.847 4.468-15.349 4.793-9.983 27.744 7.905 23.594 15.383-3.558 35.8-5.551 35.8 11.747l.002 1.135c-4.859-1.387-15.024-3.65-26.761-2.549C-32.273-9.942-45.54 1.848-45.54 18.163c0 19.504 13.348 32.107 34.005 32.107 14.812 0 23.305-6.362 27.515-10.391a14.761 14.761 0 0 0 3.385 5.239 14.746 14.746 0 0 0 10.493 4.349h.54c8.184 0 14.842-6.659 14.842-14.842v-42.25c0-.29.006-.626.011-1.001.079-6.047.289-22.114-13.802-32.399zM14.945 11.504c0 20.477-30.573 21.653-30.645 6.843-.062-12.803 13.782-14.529 30.645-9.605v2.762z" transform="translate(479.731 538.964) scale(1.01063)" style="display:block"/>
			<path stroke-linecap="round" stroke-linejoin="round" stroke="#3C3C3C" stroke-width="28" d="M-46.75-36.25S-24.25 16-14 36.5c11.811-23.812 26.235-55.899 32.985-72.146" fill="none" transform="matrix(1 0 0 1 589.322 540)" style="display:block"/>
			<path fill="currentColor" d="M18.276-40.314.001 10.294l-18.276-50.608a15.078 15.078 0 0 0-14.181-9.956c-11.002 0-18.299 11.401-13.693 21.392l32.447 70.377a15.088 15.088 0 0 0 27.405 0l32.448-70.377c4.605-9.991-2.693-21.392-13.694-21.392a15.077 15.077 0 0 0-14.181 9.956z" transform="translate(575.628 538.964) scale(1.01063)" style="display:block"/>
			<path fill="currentColor" d="M2.982 26.035c-8.307 0-19.183-5.942-20.538-15.755h48.535c4.401 0 8.732-1.622 11.768-4.807 3.027-3.175 4.541-7.334 4.258-11.686a22.73 22.73 0 0 0-.096-.998C43.59-31.761 23.443-50.27.054-50.27c-26.111 0-47.342 22.543-47.342 50.259 0 27.727 21.231 50.281 47.342 50.281 15.141 0 26.296-4.643 33.971-9.724 7.009-4.639 7.087-14.904.194-19.713-4.191-2.924-9.752-2.81-13.897.178-4.982 3.591-9.764 5.024-17.34 5.024zM-.391-26.74c15.507 0 18.304 14.422 18.304 18.315h-35.491c0-9.684 8.068-18.315 17.187-18.315z" transform="translate(669.094 538.968) scale(1.01063)" style="display:block"/>
			<g style="display:block">
				<path fill="currentColor" d="M728.29 491.282c-1.97-1.968-4.395-2.938-7.218-2.938-2.854 0-5.248.97-7.218 2.938-1.968 1.967-2.938 4.364-2.938 7.218s.97 5.25 2.938 7.218c1.97 1.968 4.364 2.938 7.218 2.938 2.823 0 5.248-.97 7.218-2.938 1.968-1.967 2.938-4.364 2.938-7.218s-.97-5.25-2.938-7.218zm-.97 13.436c-1.741 1.74-3.823 2.597-6.248 2.597-2.425 0-4.507-.858-6.218-2.597-1.742-1.711-2.597-3.793-2.597-6.218s.855-4.507 2.597-6.218c1.711-1.74 3.793-2.597 6.218-2.597s4.507.858 6.218 2.597c1.742 1.711 2.597 3.793 2.597 6.218s-.855 4.507-2.566 6.218zM722.5 499.3c.683-.142 1.282-.488 1.798-1 .54-.513.797-1.255.797-2.253 0-1.056-.37-1.884-1.084-2.483-.714-.599-1.57-.911-2.595-.911l-4.052-.03v11.755h1.825v-4.88h1.455l2.826 4.88h2.196L722.5 499.3zm-3.31-1.313v-3.824h1.568c1.628 0 2.455.628 2.455 1.912 0 1.285-.827 1.912-2.455 1.912h-1.569z"/>
			</g>
		</g>
	</g>
</svg>
