<svg xmlns="http://www.w3.org/2000/svg" viewBox="37.34 90.09 411.58 118.08" style="width:100%;height:100%;transform:translate3d(0,0,0)">
	<defs>
		<clipPath id="a">
			<path d="M0 0h500v300H0z"/>
		</clipPath>
		<clipPath id="b">
			<path d="M0 0h1080v1080H0z"/>
		</clipPath>
	</defs>
	<g clip-path="url(#a)">
		<g clip-path="url(#b)" display="block" transform="translate(-290 -390)">
			<path fill="currentColor" d="M378.89 490.363h-28.283c-8.381 0-15.2 6.818-15.2 15.2v68.135c0 8.383 6.819 15.2 15.2 15.2h29.058c13.316 0 25.792-5.229 35.13-14.725 9.334-9.493 14.354-22.059 14.132-35.385-.445-26.703-22.892-48.425-50.037-48.425zm-5.82 75.538h-8.05V513.36h8.05c17.353 0 26.252 11.76 26.252 26.269 0 14.51-9.067 26.272-26.252 26.272z" display="block"/>
			<path fill="currentColor" d="M511.514 497.503c-8.491-6.2-18.791-9.343-30.613-9.343-13.915 0-23.43 2.413-30.164 4.515-15.512 4.844-10.09 28.039 7.99 23.845 15.546-3.596 36.18-5.61 36.18 11.872l.002 1.147c-4.911-1.402-15.184-3.689-27.046-2.576-20.748 1.953-34.156 13.869-34.156 30.357 0 19.711 13.49 32.448 34.366 32.448 14.97 0 23.553-6.43 27.808-10.501a14.918 14.918 0 0 0 3.42 5.295 14.903 14.903 0 0 0 10.605 4.395h.546c8.271 0 15-6.73 15-15v-42.7c0-.292.006-.632.011-1.01.08-6.112.292-22.35-13.949-32.744zm-16.68 53.087c0 20.695-30.897 21.883-30.97 6.916-.063-12.94 13.929-14.683 30.97-9.707v2.791z" display="block"/>
			<path fill="none" stroke="#3C3C3C" stroke-linecap="round" stroke-linejoin="round" stroke-width="28" d="M542.572 503.75s22.5 52.25 32.75 72.75c11.811-23.812 26.235-55.899 32.985-72.146" display="block"/>
			<path fill="currentColor" d="m594.098 498.221-18.469 51.146-18.47-51.146a15.238 15.238 0 0 0-14.332-10.061c-11.119 0-18.494 11.522-13.839 21.619l32.792 71.125a15.249 15.249 0 0 0 27.697 0l32.793-71.125c4.654-10.097-2.722-21.62-13.84-21.62a15.24 15.24 0 0 0-14.332 10.062z" display="block"/>
			<path fill="currentColor" d="M672.108 565.28c-8.396 0-19.387-6.005-20.757-15.923h49.051c4.448 0 8.825-1.639 11.893-4.858 3.06-3.209 4.59-7.412 4.304-11.81a22.972 22.972 0 0 0-.097-1.009c-3.355-24.81-23.716-43.516-47.353-43.516-26.389 0-47.846 22.782-47.846 50.793 0 28.022 21.457 50.815 47.846 50.815 15.302 0 26.575-4.692 34.332-9.827 7.083-4.688 7.162-15.062.196-19.923-4.236-2.955-9.856-2.84-14.045.18-5.035 3.63-9.868 5.078-17.524 5.078zm-3.41-53.336c15.673 0 18.5 14.575 18.5 18.51h-35.869c0-9.787 8.154-18.51 17.37-18.51z" display="block"/>
			<path fill="currentColor" d="M728.29 491.282c-1.97-1.968-4.395-2.938-7.218-2.938-2.854 0-5.248.97-7.218 2.938-1.968 1.967-2.938 4.364-2.938 7.218s.97 5.25 2.938 7.218c1.97 1.968 4.364 2.938 7.218 2.938 2.823 0 5.248-.97 7.218-2.938 1.968-1.967 2.938-4.364 2.938-7.218s-.97-5.25-2.938-7.218zm-.97 13.436c-1.741 1.74-3.823 2.597-6.248 2.597-2.425 0-4.507-.858-6.218-2.597-1.742-1.711-2.597-3.793-2.597-6.218s.855-4.507 2.597-6.218c1.711-1.74 3.793-2.597 6.218-2.597s4.507.858 6.218 2.597c1.742 1.711 2.597 3.793 2.597 6.218s-.855 4.507-2.567 6.218zm-4.82-5.418c.683-.142 1.282-.488 1.798-1 .54-.513.797-1.255.797-2.253 0-1.056-.37-1.884-1.084-2.483-.714-.599-1.57-.911-2.595-.911l-4.052-.03v11.755h1.825v-4.88h1.455l2.826 4.88h2.196L722.5 499.3zm-3.31-1.313v-3.824h1.568c1.628 0 2.455.628 2.455 1.912 0 1.285-.827 1.912-2.455 1.912h-1.569z" display="block"/>
		</g>
	</g>
</svg>
