<svg xmlns="http://www.w3.org/2000/svg" viewBox="-2.02 -1.89 98.41 69.91">
	<path fill="#e30613" d="M85.193 0H9.508C4.307 0 0 4.113 0 9.43v47.263a9.516 9.516 0 0 0 9.508 9.53h75.685c5.108 0 9.414-4.213 9.414-9.53V9.43c0-5.317-4.306-9.43-9.414-9.43"/>
	<path fill="#fff" d="M87.697 56.693c0 1.506-.998 2.713-2.504 2.713H9.508c-1.5 0-2.6-1.207-2.6-2.713V9.43c0-1.506 1.1-2.71 2.6-2.71h75.685c1.506 0 2.504 1.204 2.504 2.71"/>
	<path fill="#e30613" d="M67.575 54.788H50.759V11.435h17.617c8.31 0 12.816 3.412 12.816 11.542 0 4.216-3.508 7.225-7.306 9.13 5.304 1.5 8.91 4.722 8.91 10.132 0 8.832-7.413 12.549-15.221 12.549m-6.508-26.192h3.608c3.402 0 5.906-1.503 5.906-5.22 0-4.113-3.209-5.22-6.607-5.22h-2.907zm10.711 13.44c0-4.412-2.8-5.416-6.903-5.416h-3.808v11.142h3.708c3.708 0 7.003-1.207 7.003-5.726M28.934 54.788H13.015V11.435h15.919c11.213 0 17.216 7.026 17.216 21.474 0 12.545-4.004 21.773-17.216 21.879m6.91-20.978c0-8.728-.908-15.552-10.312-15.552h-2.108v29.504h3.704c5.507 0 8.716-4.416 8.716-13.952"/>
</svg>
