<svg xmlns="http://www.w3.org/2000/svg" viewBox="-4.6 -4.6 239.2 63.7">
	<g fill="none">
		<g opacity=".5">
			<path fill="#27B4EE" d="m23.739 17.633-8.483 4.884v9.768l8.483 4.883 8.47-4.883v-9.768l-8.47-4.884z"/>
			<path fill="#1493E8" d="M23.739 17.633v19.535l8.47-4.883v-9.768l-8.47-4.884z"/>
			<path fill="#0878CA" d="m23.739 17.633-8.483 4.884 8.483 4.884 8.47-4.884-8.47-4.884z"/>
			<path fill="#27B4EE" d="M38.33 8.465v27.349l-14.591 8.413-14.603-8.413V18.988l14.603-8.413 8.47 4.884V4.936L23.739.052 0 13.726v27.349L23.739 54.75l23.727-13.675V13.726z"/>
			<path fill="#1493E8" d="M38.33 8.465v27.349l-14.591 8.413V54.75l23.727-13.675V13.726z"/>
			<path fill="#0878CA" d="M47.466 13.726 38.33 8.465v10.523zm-38.33 5.262 14.603-8.413 8.47 4.884V4.936L23.739.052 0 13.726z"/>
		</g>
		<path fill="#27B4EE" d="m23.74 19.131 7.177 4.129v8.27l-7.178 4.128-7.177-4.129v-8.256l7.177-4.129m0-1.497-8.483 4.883v9.703l8.483 4.883 8.484-4.883v-9.768l-8.483-4.884v.066z"/>
		<path fill="#1493E8" d="M30.891 23.26v8.27l-5.873 3.385v-8.23l5.22-3.048.653-.39m-7.138-5.627 5.82 4.884-5.82 3.425v11.226l8.47-4.922v-9.768l-8.483-4.884.013.04z"/>
		<path fill="#0878CA" d="m23.74 19.131 5.872 3.386-5.873 3.386-5.872-3.386 5.872-3.386m0-1.498-8.483 4.884 8.483 4.884 8.484-4.884-8.484-4.884z"/>
		<path fill="#27B4EE" d="m23.74 1.55 7.177 4.128v7.515l-6.525-3.751-.653-.378-.652.378-14.604 8.465-.652.378v18.284l.652.378 14.604 8.413.652.378.653-.378 14.604-8.413.652-.378V10.72l6.526 3.763V40.32L23.74 53.252 1.305 40.32V14.482L23.74 1.55m0-1.498L0 13.727v27.348L23.74 54.75l23.739-13.675V13.726l-9.136-5.209v27.349L23.74 44.227 9.136 35.814V18.988l14.603-8.413 8.484 4.884V4.884L23.74 0v.052z"/>
		<path fill="#1493E8" d="m39.648 10.718 6.526 3.764V40.32l-21.13 12.177v-7.528l13.952-8.035.652-.378V10.718m-1.305-2.253v27.349L23.74 44.227V54.75l23.74-13.675V13.726l-9.136-5.209v-.052z"/>
		<path fill="#0878CA" d="m39.648 10.718 5.22 3.009-5.22 3.008v-6.017m-1.305-2.253v10.523l9.136-5.21-9.136-5.209v-.104zM23.74 1.55l7.178 4.128v7.515l-6.525-3.751-.652-.378-.653.378L9.136 17.49 2.61 13.727 23.74 1.55m0-1.498L0 13.727l9.136 5.209 14.604-8.361 8.483 4.884V4.884L23.74 0v.052z"/>
		<path d="M67.068 16.774h4.438v24.523h-4.438v-1.915a8.706 8.706 0 0 1-2.61 1.771 7.309 7.309 0 0 1-2.832.547 7.838 7.838 0 0 1-5.925-2.604 9.248 9.248 0 0 1-2.506-6.603 9.469 9.469 0 0 1 2.415-6.707 7.72 7.72 0 0 1 5.886-2.605 7.492 7.492 0 0 1 2.988.6 8.196 8.196 0 0 1 2.61 1.797l-.026-8.804zm-4.672 10.419a4.494 4.494 0 0 0-3.42 1.458 5.203 5.203 0 0 0-1.304 3.725 5.28 5.28 0 0 0 1.383 3.764 4.494 4.494 0 0 0 3.406 1.471 4.586 4.586 0 0 0 3.367-1.406 5.307 5.307 0 0 0 1.384-3.803 5.203 5.203 0 0 0-1.384-3.738 4.638 4.638 0 0 0-3.432-1.432v-.04zm31.322 6.511H79.454a4.738 4.738 0 0 0 1.644 2.996 5.228 5.228 0 0 0 3.42 1.107 5.932 5.932 0 0 0 4.293-1.72l3.746 1.759a8.83 8.83 0 0 1-3.354 2.93 10.46 10.46 0 0 1-4.634.95 9.146 9.146 0 0 1-6.786-2.604 8.911 8.911 0 0 1-2.61-6.512 9.21 9.21 0 0 1 2.61-6.707 8.78 8.78 0 0 1 6.525-2.67 9.146 9.146 0 0 1 6.8 2.67 9.638 9.638 0 0 1 2.61 7.059v.742zm-4.398-3.49a4.455 4.455 0 0 0-1.736-2.396 5.045 5.045 0 0 0-3.001-.925 5.32 5.32 0 0 0-3.263 1.042 5.796 5.796 0 0 0-1.632 2.292l9.632-.013zm25.723 3.49H100.78a4.737 4.737 0 0 0 1.592 2.996 5.228 5.228 0 0 0 3.42 1.107 5.932 5.932 0 0 0 4.345-1.72l3.746 1.759a8.83 8.83 0 0 1-3.354 2.93 10.46 10.46 0 0 1-4.633.95 9.146 9.146 0 0 1-6.787-2.604 8.91 8.91 0 0 1-2.61-6.512 9.21 9.21 0 0 1 2.61-6.707 8.78 8.78 0 0 1 6.526-2.67 9.146 9.146 0 0 1 6.8 2.67 9.638 9.638 0 0 1 2.61 7.059v.742zm-4.437-3.49a4.454 4.454 0 0 0-1.71-2.396 5.045 5.045 0 0 0-3.001-.925 5.32 5.32 0 0 0-3.263 1.042A5.796 5.796 0 0 0 101 30.227l9.605-.013zm12.437-6.616v1.954a8.366 8.366 0 0 1 2.61-1.798 7.505 7.505 0 0 1 2.99-.599 7.733 7.733 0 0 1 5.885 2.605 9.469 9.469 0 0 1 2.428 6.707 9.248 9.248 0 0 1-2.506 6.603 7.838 7.838 0 0 1-5.938 2.604 7.374 7.374 0 0 1-2.845-.547 8.667 8.667 0 0 1-2.61-1.77v8.321h-4.412v-24.08h4.398zm4.673 3.634a4.638 4.638 0 0 0-3.485 1.432 5.203 5.203 0 0 0-1.383 3.738 5.294 5.294 0 0 0 1.383 3.803 4.599 4.599 0 0 0 3.485 1.458 4.52 4.52 0 0 0 3.367-1.484 5.268 5.268 0 0 0 1.396-3.764 5.203 5.203 0 0 0-1.305-3.725 4.533 4.533 0 0 0-3.458-1.458zm10.806-3.634h1.579c0-2.318.039-3.685.117-4.102a3.384 3.384 0 0 1 1.227-2.318 4.601 4.601 0 0 1 2.963-.847 9.257 9.257 0 0 1 3.119.638v3.36a6.002 6.002 0 0 0-1.58-.273 1.66 1.66 0 0 0-1.135.325 1.404 1.404 0 0 0-.26 1.003v2.201h2.818v3.75h-2.819v13.962h-4.437V27.349h-1.592v-3.75zm29.103 10.106h-14.212a4.738 4.738 0 0 0 1.644 2.996 5.228 5.228 0 0 0 3.42 1.107 5.932 5.932 0 0 0 4.293-1.72l3.746 1.759a8.83 8.83 0 0 1-3.354 2.93 10.46 10.46 0 0 1-4.633.95 9.146 9.146 0 0 1-6.787-2.604 8.911 8.911 0 0 1-2.61-6.512 9.21 9.21 0 0 1 2.61-6.707 8.78 8.78 0 0 1 6.526-2.67 9.146 9.146 0 0 1 6.747 2.58 9.638 9.638 0 0 1 2.61 7.058v.833zm-4.437-3.49a4.454 4.454 0 0 0-1.736-2.396 5.045 5.045 0 0 0-3.002-.925 5.32 5.32 0 0 0-3.262 1.042 5.796 5.796 0 0 0-1.632 2.292l9.632-.013zm8.091-6.616h4.438v1.81a10.652 10.652 0 0 1 2.74-1.77 6.642 6.642 0 0 1 2.506-.496 6.088 6.088 0 0 1 4.463 1.837 6.295 6.295 0 0 1 1.54 4.597v11.72h-4.398v-7.813a19.494 19.494 0 0 0-.287-4.194 2.877 2.877 0 0 0-.992-1.576 2.77 2.77 0 0 0-1.748-.546 3.28 3.28 0 0 0-2.31.898 4.802 4.802 0 0 0-1.306 2.488 20.079 20.079 0 0 0-.195 3.581v7.163h-4.438l-.013-17.699zm37.313 3.569-3.694 2.031a6.29 6.29 0 0 0-2.036-1.51 6.21 6.21 0 0 0-2.388-.417 5.566 5.566 0 0 0-4.033 1.484 5.047 5.047 0 0 0-1.54 3.803 4.878 4.878 0 0 0 1.436 3.673 5.384 5.384 0 0 0 3.915 1.42 5.67 5.67 0 0 0 4.646-2.032l3.498 2.396a10.807 10.807 0 0 1-15.348.938 9.104 9.104 0 0 1 2.232-14.586 10.72 10.72 0 0 1 5.142-1.238 10.46 10.46 0 0 1 4.737 1.042 8.986 8.986 0 0 1 3.433 2.996zm21.677 6.537h-14.212A4.738 4.738 0 0 0 217.7 36.7a5.228 5.228 0 0 0 3.42 1.107 5.932 5.932 0 0 0 4.28-1.72l3.746 1.759a8.83 8.83 0 0 1-3.354 2.93 10.46 10.46 0 0 1-4.633.95 9.146 9.146 0 0 1-6.787-2.604 8.911 8.911 0 0 1-2.61-6.512 9.21 9.21 0 0 1 2.61-6.707 8.78 8.78 0 0 1 6.526-2.67 9.146 9.146 0 0 1 6.76 2.58 9.638 9.638 0 0 1 2.61 7.058v.833zm-4.437-3.49a4.454 4.454 0 0 0-1.736-2.396 5.045 5.045 0 0 0-3.002-.925 5.32 5.32 0 0 0-3.262 1.042 5.796 5.796 0 0 0-1.632 2.292l9.632-.013z" fill="#101010"/>
	</g>
</svg>
