<svg xmlns="http://www.w3.org/2000/svg" width="200" height="128">
	<path d="M61.154 36.939a17.333 17.333 0 0 1 12.541-5.384A17.508 17.508 0 0 1 88.951 40.6a21.066 21.066 0 0 1 8.623-1.834 21.508 21.508 0 1 1-4.2 42.6 15.582 15.582 0 0 1-20.42 6.413 17.782 17.782 0 0 1-33.055-.8 16.424 16.424 0 0 1-3.393.353A16.712 16.712 0 0 1 28.254 56.2a19.206 19.206 0 0 1 32.9-19.261z" fill="#00a1e0"/>
	<path d="M34.324 65.286c-.063.162.022.2.042.225a6.28 6.28 0 0 0 .565.341 6.031 6.031 0 0 0 2.956.69c2.029 0 3.29-1.078 3.29-2.815v-.034c0-1.606-1.423-2.19-2.756-2.611l-.174-.056c-1.006-.327-1.874-.609-1.874-1.271v-.034c0-.568.508-.984 1.294-.984a5.844 5.844 0 0 1 2.577.659s.2.127.269-.063l.412-1.111a.188.188 0 0 0-.1-.228 5.751 5.751 0 0 0-2.907-.78h-.2c-1.857 0-3.154 1.123-3.154 2.73v.034c0 1.693 1.43 2.244 2.77 2.627l.215.066c.976.3 1.819.559 1.819 1.245v.034c0 .629-.548 1.1-1.43 1.1a4.79 4.79 0 0 1-2.613-.752c-.143-.083-.224-.143-.334-.21a.162.162 0 0 0-.267.091zm29.698 0c-.062.162.022.2.042.225a6.265 6.265 0 0 0 .564.341 6.037 6.037 0 0 0 2.957.69c2.029 0 3.289-1.078 3.289-2.815v-.034c0-1.606-1.422-2.19-2.755-2.611l-.174-.056c-1.006-.327-1.874-.609-1.874-1.271v-.034c0-.568.508-.984 1.294-.984a5.844 5.844 0 0 1 2.577.659s.2.127.269-.063l.412-1.111a.188.188 0 0 0-.1-.228 5.747 5.747 0 0 0-2.906-.78h-.2c-1.856 0-3.153 1.123-3.153 2.73v.034c0 1.693 1.43 2.244 2.77 2.627l.215.066c.976.3 1.819.559 1.819 1.245v.034c0 .629-.548 1.1-1.43 1.1a4.788 4.788 0 0 1-2.613-.752c-.143-.083-.226-.141-.334-.21a.172.172 0 0 0-.267.091zm21.967-5.222a4.068 4.068 0 0 0-.77-1.471 3.726 3.726 0 0 0-1.3-.989 4.71 4.71 0 0 0-3.631 0 3.713 3.713 0 0 0-1.3.99 4.074 4.074 0 0 0-.771 1.47 6.772 6.772 0 0 0 0 3.639 4.088 4.088 0 0 0 .771 1.471 3.636 3.636 0 0 0 1.3.981 4.815 4.815 0 0 0 3.629 0 3.657 3.657 0 0 0 1.3-.981 4.077 4.077 0 0 0 .77-1.471 6.772 6.772 0 0 0 0-3.639M84.3 61.883a4.179 4.179 0 0 1-.543 2.3 1.82 1.82 0 0 1-1.649.8 1.8 1.8 0 0 1-1.641-.8 5.2 5.2 0 0 1 0-4.6 1.809 1.809 0 0 1 1.642-.8 1.827 1.827 0 0 1 1.649.8 4.123 4.123 0 0 1 .543 2.292" fill="#fff"/>
	<path d="M99.894 64.727a.161.161 0 0 0-.216-.1 3.918 3.918 0 0 1-.787.225 6.077 6.077 0 0 1-.928.067 2.582 2.582 0 0 1-1.937-.726 3.243 3.243 0 0 1-.728-2.315 3.6 3.6 0 0 1 .65-2.23 2.214 2.214 0 0 1 1.879-.827 5.676 5.676 0 0 1 1.791.256s.132.058.2-.117c.149-.411.259-.7.417-1.156a.153.153 0 0 0-.106-.2A6.656 6.656 0 0 0 99 57.317a8.511 8.511 0 0 0-1.27-.085 4.612 4.612 0 0 0-1.888.363 3.905 3.905 0 0 0-1.363.987 4.171 4.171 0 0 0-.824 1.472 5.823 5.823 0 0 0-.276 1.823 4.876 4.876 0 0 0 1.126 3.37 4.285 4.285 0 0 0 3.343 1.258 6.874 6.874 0 0 0 2.4-.428.154.154 0 0 0 .069-.2zm8.664-4.982a3.563 3.563 0 0 0-.734-1.342 3.333 3.333 0 0 0-1.088-.83 4.188 4.188 0 0 0-1.642-.333 4.489 4.489 0 0 0-1.892.368 3.781 3.781 0 0 0-1.32 1.007 4.155 4.155 0 0 0-.776 1.489 6.443 6.443 0 0 0-.251 1.829 6.178 6.178 0 0 0 .259 1.83 3.677 3.677 0 0 0 2.273 2.412 5.73 5.73 0 0 0 2.08.336 5.981 5.981 0 0 0 2.887-.573c.064-.036.123-.1.049-.274l-.376-1.049a.165.165 0 0 0-.215-.1 5.531 5.531 0 0 1-2.354.424 2.345 2.345 0 0 1-2.627-2.581h5.731a.168.168 0 0 0 .167-.149 6.132 6.132 0 0 0-.171-2.464zm-5.7 1.2a3.332 3.332 0 0 1 .463-1.353 1.826 1.826 0 0 1 1.639-.831 1.778 1.778 0 0 1 1.606.832 2.818 2.818 0 0 1 .38 1.352zm-40.207-1.2a3.577 3.577 0 0 0-.733-1.342 3.336 3.336 0 0 0-1.089-.83 4.186 4.186 0 0 0-1.641-.333 4.493 4.493 0 0 0-1.893.368 3.79 3.79 0 0 0-1.32 1.007A4.155 4.155 0 0 0 55.2 60.1a6.443 6.443 0 0 0-.251 1.829 6.145 6.145 0 0 0 .26 1.83 3.673 3.673 0 0 0 2.272 2.412 5.73 5.73 0 0 0 2.08.336 5.986 5.986 0 0 0 2.888-.573c.063-.036.123-.1.048-.274l-.375-1.049a.166.166 0 0 0-.216-.1 5.529 5.529 0 0 1-2.353.424 2.346 2.346 0 0 1-2.628-2.581h5.731a.168.168 0 0 0 .167-.149 6.111 6.111 0 0 0-.172-2.46zm-5.7 1.2a3.347 3.347 0 0 1 .463-1.353 1.827 1.827 0 0 1 1.639-.831 1.781 1.781 0 0 1 1.607.832 2.829 2.829 0 0 1 .379 1.352z" fill="#fff" fill-rule="evenodd"/>
	<path d="M46.841 60.668a12.777 12.777 0 0 0-.9-.026 5.429 5.429 0 0 0-1.411.181 3.719 3.719 0 0 0-1.2.555 2.683 2.683 0 0 0-1.13 2.267 2.982 2.982 0 0 0 .263 1.308 2.38 2.38 0 0 0 .747.9 3.168 3.168 0 0 0 1.168.506 6.908 6.908 0 0 0 1.517.154 10.465 10.465 0 0 0 1.742-.145c.562-.1 1.252-.236 1.443-.28s.4-.1.4-.1a.18.18 0 0 0 .131-.187v-5.243a3.211 3.211 0 0 0-.911-2.53 3.9 3.9 0 0 0-2.633-.792 9.454 9.454 0 0 0-1.536.141 5.542 5.542 0 0 0-1.767.646.178.178 0 0 0-.051.228l.406 1.09a.144.144 0 0 0 .188.093.753.753 0 0 0 .094-.047 5.825 5.825 0 0 1 2.5-.581 2.316 2.316 0 0 1 1.417.37c.313.24.472.6.472 1.366v.242a18.057 18.057 0 0 0-.949-.116zM44.56 64.7a1.1 1.1 0 0 1-.33-.34 1.37 1.37 0 0 1-.172-.746 1.255 1.255 0 0 1 .512-1.114 2.573 2.573 0 0 1 1.662-.414 11.576 11.576 0 0 1 1.556.132v2.606a11.574 11.574 0 0 1-1.549.206 2.583 2.583 0 0 1-1.679-.33z" fill="#fff"/>
	<path d="M93.073 57.715a.157.157 0 0 0-.085-.207 5.2 5.2 0 0 0-.961-.163 2.837 2.837 0 0 0-1.478.238 2.585 2.585 0 0 0-.969.715v-.7a.166.166 0 0 0-.165-.174h-1.469a.167.167 0 0 0-.165.174v8.55a.174.174 0 0 0 .174.174h1.507a.173.173 0 0 0 .173-.174v-4.27a5.034 5.034 0 0 1 .19-1.505 2.154 2.154 0 0 1 .5-.843 1.739 1.739 0 0 1 .708-.425A2.754 2.754 0 0 1 91.8 59a3.238 3.238 0 0 1 .629.077c.111.012.173-.055.21-.155.102-.266.381-1.051.434-1.207zm-14.135-3.963a4.787 4.787 0 0 0-.567-.134 4.43 4.43 0 0 0-.779-.06 3.283 3.283 0 0 0-2.427.871 4.732 4.732 0 0 0-1.152 2.6l-.07.388h-1.3a.192.192 0 0 0-.192.167l-.214 1.192c-.014.114.035.185.188.184h1.266L72.4 66.134a8.987 8.987 0 0 1-.343 1.413 2.9 2.9 0 0 1-.4.815 1.066 1.066 0 0 1-.525.405 2.11 2.11 0 0 1-.674.1 2.632 2.632 0 0 1-.46-.05 1.366 1.366 0 0 1-.309-.1.158.158 0 0 0-.207.093c-.048.121-.385 1.05-.426 1.165a.17.17 0 0 0 .089.228 4.1 4.1 0 0 0 .524.153 3.411 3.411 0 0 0 .839.08 4.183 4.183 0 0 0 1.407-.218 2.63 2.63 0 0 0 1.06-.739 3.817 3.817 0 0 0 .744-1.282 10.946 10.946 0 0 0 .5-1.926l1.291-7.307h1.888a.194.194 0 0 0 .193-.167l.213-1.192c.015-.113-.034-.185-.187-.184h-1.825a7.937 7.937 0 0 1 .3-1.293 1.676 1.676 0 0 1 .4-.612 1.2 1.2 0 0 1 .48-.3 2 2 0 0 1 .615-.089 2.381 2.381 0 0 1 .471.048c.178.037.247.058.294.072.186.056.211 0 .248-.089l.439-1.2a.154.154 0 0 0-.101-.206zM53.33 66.149a.166.166 0 0 1-.164.174h-1.52a.167.167 0 0 1-.165-.174V53.916a.166.166 0 0 1 .165-.173h1.52a.165.165 0 0 1 .164.173z" fill="#fff" fill-rule="evenodd"/>
	<g fill="#728089">
		<path d="M135.451 47.209v6.434a7.058 7.058 0 0 0-3.53-.935 7.144 7.144 0 1 0 7.144 7.143v-14.3zm-1.739 15.785a3.578 3.578 0 0 1-1.791.476 3.618 3.618 0 1 1 2.827-1.359 4.508 4.508 0 0 0 1.335 1.4 3.085 3.085 0 0 1-2.371-.517z"/>
		<path d="M153.216 59.851a7.15 7.15 0 1 0-.825 3.328l-3.824-.708a3.614 3.614 0 0 1-5.836-1.238h10.352a7.294 7.294 0 0 0 .133-1.382zM142.8 58.323a3.616 3.616 0 0 1 6.554 0zm35.195 8.672H173.1l-4.644-5.084-.742-.811v5.895h-3.613V47.209l3.613-1.662V57.29l4.057-4.588 4.123.792-5.031 5.693 7.132 7.808z"/>
		<path d="M164.247 63.113c0 1.822-1.431 3.281-3.543 3.882a8.269 8.269 0 0 1-2.271.3 9.25 9.25 0 0 1-6.269-2.248l2.556-2.437a4.531 4.531 0 0 0 2.905 1.586c2.647.352 2.674-1.475 2.007-2.062a6.555 6.555 0 0 0-2.766-.961c-3.247-.753-4.29-2.395-4.024-4.677s2.4-4.017 5.813-4.017a8.685 8.685 0 0 1 5.448 2.016l-2.654 2.343a3.453 3.453 0 0 0-2.39-1.305c-1.936 0-2.082 1.146-2.082 1.146s-.306 1.3 2.4 1.769c3.261.562 4.87 2.13 4.87 4.665zm13.025-9.525h1.165v.34h-.391v1.034h-.383v-1.034h-.391v-.34zm1.334 0h.5l.194.836.194-.836h.5v1.374h-.313v-1.048l-.243 1.048h-.283l-.242-1.048v1.048h-.313z"/>
	</g>
</svg>
