<svg xmlns="http://www.w3.org/2000/svg" style="isolation:isolate" viewBox="0 0 980.427 736.293" width="1307.236" height="981.724">
	<defs>
		<clipPath id="a">
			<path d="M0 0h980.427v736.293H0z"/>
		</clipPath>
	</defs>
	<g clip-path="url(#a)">
		<clipPath id="b">
			<path d="m690.897 210.923 48.44 48.44-246.605 246.606-113.835-113.834 48.66-48.662 65.395 65.395 197.945-197.945Z" fill="#FFF"/>
		</clipPath>
		<g clip-path="url(#b)">
			<linearGradient id="c" x1=".845" y1="1.028" x2=".16" y2=".347" gradientTransform="matrix(360.44 0 0 -295.047 378.897 505.969)" gradientUnits="userSpaceOnUse">
				<stop offset="0%" style="stop-color:#68c864"/>
				<stop offset="100%" style="stop-color:#7ecd43"/>
			</linearGradient>
			<path d="m690.897 210.923 48.44 48.44-246.605 246.606-113.835-113.834 48.66-48.662 65.395 65.395 197.945-197.945" fill="url(#c)"/>
		</g>
		<clipPath id="d">
			<path d="M492.952 12.977 246.787 259.143l101.945 101.945 47.56-47.56-54.165-54.165 150.934-149.175 116.808 117.028 48.662-48.66L492.952 12.977Z" fill="#FFF"/>
		</clipPath>
		<g clip-path="url(#d)">
			<linearGradient id="e" x1=".496" y1=".983" x2=".502" y2=".223" gradientTransform="matrix(411.744 0 0 -348.111 246.787 361.088)" gradientUnits="userSpaceOnUse">
				<stop offset="0%" style="stop-color:#80ade1"/>
				<stop offset="100%" style="stop-color:#628dd1"/>
			</linearGradient>
			<path d="M492.952 12.977 246.787 259.143l101.945 101.945 47.56-47.56-54.165-54.165 150.934-149.175 116.808 117.028 48.662-48.66L492.952 12.977" fill="url(#e)"/>
		</g>
		<clipPath id="f">
			<path d="m409.723 258.263 84.99 84.99 83.946-83.945-85.046-84.936-83.89 83.891Z" fill="#FFF"/>
		</clipPath>
		<g clip-path="url(#f)">
			<linearGradient id="g" x1=".488" y1="1.923" x2=".504" y2=".07" gradientTransform="matrix(168.936 0 0 -168.881 409.723 343.253)" gradientUnits="userSpaceOnUse">
				<stop offset="0%" style="stop-color:#80ade1"/>
				<stop offset="100%" style="stop-color:#628dd1"/>
			</linearGradient>
			<path d="m409.723 258.263 84.99 84.99 83.946-83.945-85.046-84.936-83.89 83.891" fill="url(#g)"/>
		</g>
		<path d="M59.486 683.753h-12.63v-63.617h12.787c13.098 0 19.023 5.457 22.453 10.603 4.21 6.549 5.613 14.812 5.613 21.361 0 16.374-6.237 31.653-28.223 31.653Zm-3.898-89.5H17.387v115.385h40.385c43.815 0 59.407-26.509 59.407-58.005 0-12.63-2.651-24.948-10.602-35.864-14.969-21.516-38.046-21.516-50.989-21.516Z" fill="#4C4D4E"/>
		<path d="M154.749 656.777c1.092-5.144 6.238-14.812 19.647-14.812 13.409 0 18.556 9.668 19.647 14.812h-39.294Zm19.491-36.641c-26.351 0-45.373 22.296-45.373 46.465 0 25.727 21.049 45.842 45.841 45.842 8.888 0 17.464-2.651 24.636-7.795 7.329-4.991 13.409-12.474 17.619-22.143h-26.506c-3.588 4.523-7.797 8.108-15.749 8.108-10.136 0-18.711-6.08-20.271-16.372h64.864c.314-2.026.626-3.429.626-6.861 0-26.349-19.336-47.244-45.687-47.244" fill="#4C4D4E"/>
		<path d="M268.104 677.048h-.313l-16.527-53.951h-26.819l31.028 86.541h24.792l31.186-86.541h-26.82l-16.527 53.951Z" fill="#4C4D4E"/>
		<path d="M372.88 643.369c-20.739-9.356-23.857-10.76-23.857-17.619 0-5.458 4.989-9.043 10.136-9.043 9.042 0 9.978 7.328 10.602 11.225h29.158c-.312-6.549-.78-14.344-7.64-22.765-7.484-8.887-19.803-13.098-31.186-13.098-19.334 0-40.384 12.318-40.384 33.993 0 21.673 20.115 29.781 28.223 33.055 17.775 7.484 22.609 9.357 22.609 16.995 0 5.303-4.21 11.072-11.226 11.072-3.743 0-12.007-2.34-12.007-15.749h-29.313v3.742c0 14.812 8.262 36.643 41.63 36.643 30.562 0 40.228-18.556 40.228-35.395 0-13.41-5.456-23.389-26.973-33.056" fill="#4C4D4E"/>
		<path d="M456.137 688.431c-15.59 0-21.516-13.722-21.516-21.83 0-9.824 6.548-22.297 21.362-22.297 14.656 0 21.829 11.539 21.829 21.985 0 8.42-5.459 22.142-21.675 22.142Zm21.675-56.132h-.312c-3.119-5.303-11.071-12.163-25.259-12.163-23.077 0-43.504 17.776-43.504 46.153 0 24.792 16.06 46.31 43.504 46.31 10.134 0 20.892-3.898 25.259-12.318h.312v9.357h25.883v-86.541h-25.883v9.202" fill="#4C4D4E"/>
		<path d="M623.284 620.136c-13.253 0-22.141 7.017-27.443 15.436-6.86-12.785-17.308-15.436-24.948-15.436-16.216 0-21.828 8.575-23.856 12.163h-.312v-9.202h-24.168v86.541h25.883v-45.999c0-5.146 0-19.179 14.657-19.179 12.942 0 12.942 13.411 12.942 18.086v47.092h25.884v-47.247c0-4.834 0-17.931 14.345-17.931 13.252 0 13.252 12.163 13.252 19.179v45.999h25.885v-47.247c0-19.179-1.248-24.948-9.356-33.523-7.017-7.328-16.684-8.732-22.765-8.732" fill="#4C4D4E"/>
		<path d="M724.785 670.655c0 13.721-7.328 17.62-14.813 17.62-13.877 0-13.877-11.383-13.877-17.307v-47.871h-25.884v51.768c0 11.85.936 18.087 7.797 26.664 7.64 9.667 20.115 10.914 25.415 10.914 6.549 0 17.152-.935 22.453-12.007h.312v9.202h24.481v-86.541h-25.884v47.558" fill="#4C4D4E"/>
		<path d="M793.852 632.299h-.312v-9.202h-24.324v86.541H795.1V662.08c0-13.097 8.419-15.593 20.425-15.905v-26.039c-14.968 0-19.49 7.952-21.673 12.163" fill="#4C4D4E"/>
		<path d="M869.315 688.431c-15.591 0-21.518-13.722-21.518-21.83 0-9.824 6.55-22.297 21.363-22.297 14.656 0 21.829 11.539 21.829 21.985 0 8.42-5.458 22.142-21.674 22.142Zm21.674-56.132h-.312c-3.118-5.303-11.07-12.163-25.26-12.163-23.076 0-43.504 17.776-43.504 46.153 0 24.792 16.062 46.31 43.504 46.31 10.135 0 20.894-3.898 25.26-12.318h.312v9.357h25.883v-86.541h-25.883v9.202" fill="#4C4D4E"/>
		<path d="M935.735 709.636h25.881v-86.537h-25.881v86.537Z" fill="#4C4D4E"/>
		<path d="M948.676 614.271c7.935 0 14.368-6.434 14.368-14.37 0-7.934-6.433-14.368-14.368-14.368-7.936 0-14.369 6.434-14.369 14.368 0 7.936 6.433 14.37 14.369 14.37Z" fill="#4C4D4E"/>
	</g>
</svg>
