<svg xmlns="http://www.w3.org/2000/svg" xml:space="preserve" width="1600" height="1300">
	<defs>
		<linearGradient x1="0" y1="0" x2="1" y2="0" gradientUnits="userSpaceOnUse" gradientTransform="scale(712.07452) rotate(90 .548 1.557)" spreadMethod="pad" id="c">
			<stop style="stop-opacity:1;stop-color:#ffe53b" offset="0"/>
			<stop style="stop-opacity:1;stop-color:#ffe53b" offset=".001"/>
			<stop style="stop-opacity:1;stop-color:#ff2525" offset="1"/>
		</linearGradient>
		<linearGradient x1="0" y1="0" x2="1" y2="0" gradientUnits="userSpaceOnUse" gradientTransform="matrix(-402.90054 415.90439 358.93066 371.93451 1558.48 848.384)" spreadMethod="pad" id="e">
			<stop style="stop-opacity:1;stop-color:#ffe53b" offset="0"/>
			<stop style="stop-opacity:1;stop-color:#ffe53b" offset=".001"/>
			<stop style="stop-opacity:1;stop-color:#ff2525" offset="1"/>
		</linearGradient>
		<linearGradient x1="0" y1="0" x2="1" y2="0" gradientUnits="userSpaceOnUse" gradientTransform="matrix(-535.54626 10.20799 -10.20799 507.4162 1515.568 934.355)" spreadMethod="pad" id="g">
			<stop style="stop-opacity:1;stop-color:#ffe53b" offset="0"/>
			<stop style="stop-opacity:1;stop-color:#ffe53b" offset=".001"/>
			<stop style="stop-opacity:1;stop-color:#ff2525" offset="1"/>
		</linearGradient>
		<linearGradient x1="0" y1="0" x2="1" y2="0" gradientUnits="userSpaceOnUse" gradientTransform="matrix(402.90054 415.90439 -358.93066 371.93451 1439.779 848.384)" spreadMethod="pad" id="i">
			<stop style="stop-opacity:1;stop-color:#ffe53b" offset="0"/>
			<stop style="stop-opacity:1;stop-color:#ffe53b" offset=".001"/>
			<stop style="stop-opacity:1;stop-color:#ff2525" offset="1"/>
		</linearGradient>
		<linearGradient x1="0" y1="0" x2="1" y2="0" gradientUnits="userSpaceOnUse" gradientTransform="matrix(535.54626 10.20799 10.20799 507.4162 1482.691 934.355)" spreadMethod="pad" id="k">
			<stop style="stop-opacity:1;stop-color:#ffe53b" offset="0"/>
			<stop style="stop-opacity:1;stop-color:#ffe53b" offset=".001"/>
			<stop style="stop-opacity:1;stop-color:#ff2525" offset="1"/>
		</linearGradient>
		<linearGradient x1="0" y1="0" x2="1" y2="0" gradientUnits="userSpaceOnUse" gradientTransform="scale(186.31201) rotate(-90 4.683 -.728)" spreadMethod="pad" id="m">
			<stop style="stop-opacity:1;stop-color:#ffe53b" offset="0"/>
			<stop style="stop-opacity:1;stop-color:#ffe53b" offset=".001"/>
			<stop style="stop-opacity:1;stop-color:#ff2525" offset="1"/>
		</linearGradient>
		<linearGradient x1="0" y1="0" x2="1" y2="0" gradientUnits="userSpaceOnUse" gradientTransform="scale(186.31201) rotate(-90 4.95 -.995)" spreadMethod="pad" id="n">
			<stop style="stop-opacity:1;stop-color:#ffe53b" offset="0"/>
			<stop style="stop-opacity:1;stop-color:#ffe53b" offset=".001"/>
			<stop style="stop-opacity:1;stop-color:#ff2525" offset="1"/>
		</linearGradient>
		<linearGradient x1="0" y1="0" x2="1" y2="0" gradientUnits="userSpaceOnUse" gradientTransform="matrix(0 -186.31201 -186.31201 0 1192.22 736.936)" spreadMethod="pad" id="o">
			<stop style="stop-opacity:1;stop-color:#ffe53b" offset="0"/>
			<stop style="stop-opacity:1;stop-color:#ffe53b" offset=".001"/>
			<stop style="stop-opacity:1;stop-color:#ff2525" offset="1"/>
		</linearGradient>
		<linearGradient x1="0" y1="0" x2="1" y2="0" gradientUnits="userSpaceOnUse" gradientTransform="scale(186.31201) rotate(-90 5.416 -1.46)" spreadMethod="pad" id="p">
			<stop style="stop-opacity:1;stop-color:#ffe53b" offset="0"/>
			<stop style="stop-opacity:1;stop-color:#ffe53b" offset=".001"/>
			<stop style="stop-opacity:1;stop-color:#ff2525" offset="1"/>
		</linearGradient>
		<linearGradient x1="0" y1="0" x2="1" y2="0" gradientUnits="userSpaceOnUse" gradientTransform="matrix(0 -186.31201 -186.31201 0 1384.788 736.936)" spreadMethod="pad" id="q">
			<stop style="stop-opacity:1;stop-color:#ffe53b" offset="0"/>
			<stop style="stop-opacity:1;stop-color:#ffe53b" offset=".001"/>
			<stop style="stop-opacity:1;stop-color:#ff2525" offset="1"/>
		</linearGradient>
		<linearGradient x1="0" y1="0" x2="1" y2="0" gradientUnits="userSpaceOnUse" gradientTransform="matrix(0 -186.31201 -186.31201 0 1493.05 736.936)" spreadMethod="pad" id="r">
			<stop style="stop-opacity:1;stop-color:#ffe53b" offset="0"/>
			<stop style="stop-opacity:1;stop-color:#ffe53b" offset=".001"/>
			<stop style="stop-opacity:1;stop-color:#ff2525" offset="1"/>
		</linearGradient>
		<linearGradient x1="0" y1="0" x2="1" y2="0" gradientUnits="userSpaceOnUse" gradientTransform="matrix(0 -186.31201 -186.31201 0 1585.302 736.936)" spreadMethod="pad" id="s">
			<stop style="stop-opacity:1;stop-color:#ffe53b" offset="0"/>
			<stop style="stop-opacity:1;stop-color:#ffe53b" offset=".001"/>
			<stop style="stop-opacity:1;stop-color:#ff2525" offset="1"/>
		</linearGradient>
		<linearGradient x1="0" y1="0" x2="1" y2="0" gradientUnits="userSpaceOnUse" gradientTransform="scale(186.31201) rotate(-90 6.435 -2.48)" spreadMethod="pad" id="t">
			<stop style="stop-opacity:1;stop-color:#ffe53b" offset="0"/>
			<stop style="stop-opacity:1;stop-color:#ffe53b" offset=".001"/>
			<stop style="stop-opacity:1;stop-color:#ff2525" offset="1"/>
		</linearGradient>
		<linearGradient x1="0" y1="0" x2="1" y2="0" gradientUnits="userSpaceOnUse" gradientTransform="scale(186.31201) rotate(-90 6.625 -2.67)" spreadMethod="pad" id="u">
			<stop style="stop-opacity:1;stop-color:#ffe53b" offset="0"/>
			<stop style="stop-opacity:1;stop-color:#ffe53b" offset=".001"/>
			<stop style="stop-opacity:1;stop-color:#ff2525" offset="1"/>
		</linearGradient>
		<linearGradient x1="0" y1="0" x2="1" y2="0" gradientUnits="userSpaceOnUse" gradientTransform="matrix(0 -186.31201 -186.31201 0 1801.75 736.936)" spreadMethod="pad" id="v">
			<stop style="stop-opacity:1;stop-color:#ffe53b" offset="0"/>
			<stop style="stop-opacity:1;stop-color:#ffe53b" offset=".001"/>
			<stop style="stop-opacity:1;stop-color:#ff2525" offset="1"/>
		</linearGradient>
		<linearGradient x1="0" y1="0" x2="1" y2="0" gradientUnits="userSpaceOnUse" gradientTransform="scale(186.31201) rotate(-90 6.926 -2.97)" spreadMethod="pad" id="w">
			<stop style="stop-opacity:1;stop-color:#ffe53b" offset="0"/>
			<stop style="stop-opacity:1;stop-color:#ffe53b" offset=".001"/>
			<stop style="stop-opacity:1;stop-color:#ff2525" offset="1"/>
		</linearGradient>
		<linearGradient x1="0" y1="0" x2="1" y2="0" gradientUnits="userSpaceOnUse" gradientTransform="matrix(0 -186.31201 -186.31201 0 1909.673 736.936)" spreadMethod="pad" id="x">
			<stop style="stop-opacity:1;stop-color:#ffe53b" offset="0"/>
			<stop style="stop-opacity:1;stop-color:#ffe53b" offset=".001"/>
			<stop style="stop-opacity:1;stop-color:#ff2525" offset="1"/>
		</linearGradient>
		<linearGradient x1="0" y1="0" x2="1" y2="0" gradientUnits="userSpaceOnUse" gradientTransform="matrix(0 -186.31201 -186.31201 0 1998.2 736.936)" spreadMethod="pad" id="y">
			<stop style="stop-opacity:1;stop-color:#ffe53b" offset="0"/>
			<stop style="stop-opacity:1;stop-color:#ffe53b" offset=".001"/>
			<stop style="stop-opacity:1;stop-color:#ff2525" offset="1"/>
		</linearGradient>
		<linearGradient x1="0" y1="0" x2="1" y2="0" gradientUnits="userSpaceOnUse" gradientTransform="matrix(0 -75.56686 -75.56686 0 1537.55 996.087)" spreadMethod="pad" id="A">
			<stop style="stop-opacity:1;stop-color:#ffe53b" offset="0"/>
			<stop style="stop-opacity:1;stop-color:#ffe53b" offset=".001"/>
			<stop style="stop-opacity:1;stop-color:#ff2525" offset="1"/>
		</linearGradient>
		<linearGradient x1="0" y1="0" x2="1" y2="0" gradientUnits="userSpaceOnUse" gradientTransform="matrix(0 -75.56686 -75.56686 0 1465.18 996.087)" spreadMethod="pad" id="B">
			<stop style="stop-opacity:1;stop-color:#ffe53b" offset="0"/>
			<stop style="stop-opacity:1;stop-color:#ffe53b" offset=".001"/>
			<stop style="stop-opacity:1;stop-color:#ff2525" offset="1"/>
		</linearGradient>
		<linearGradient x1="0" y1="0" x2="1" y2="0" gradientUnits="userSpaceOnUse" gradientTransform="matrix(0 -75.56686 -75.56686 0 1501.246 996.087)" spreadMethod="pad" id="C">
			<stop style="stop-opacity:1;stop-color:#ffe53b" offset="0"/>
			<stop style="stop-opacity:1;stop-color:#ffe53b" offset=".001"/>
			<stop style="stop-opacity:1;stop-color:#ff2525" offset="1"/>
		</linearGradient>
		<linearGradient x1="0" y1="0" x2="1" y2="0" gradientUnits="userSpaceOnUse" gradientTransform="matrix(0 -75.56686 -75.56686 0 1501.435 996.087)" spreadMethod="pad" id="D">
			<stop style="stop-opacity:1;stop-color:#ffe53b" offset="0"/>
			<stop style="stop-opacity:1;stop-color:#ffe53b" offset=".001"/>
			<stop style="stop-opacity:1;stop-color:#ff2525" offset="1"/>
		</linearGradient>
		<linearGradient x1="0" y1="0" x2="1" y2="0" gradientUnits="userSpaceOnUse" gradientTransform="scale(88.5638 -88.5638) rotate(83.541 14.224 4.366)" spreadMethod="pad" id="F">
			<stop style="stop-opacity:1;stop-color:#ffe53b" offset="0"/>
			<stop style="stop-opacity:1;stop-color:#ffe53b" offset=".001"/>
			<stop style="stop-opacity:1;stop-color:#ff2525" offset="1"/>
		</linearGradient>
		<linearGradient x1="0" y1="0" x2="1" y2="0" gradientUnits="userSpaceOnUse" gradientTransform="matrix(0 -102.39294 -102.39294 0 1422.923 1160.111)" spreadMethod="pad" id="G">
			<stop style="stop-opacity:1;stop-color:#ffe53b" offset="0"/>
			<stop style="stop-opacity:1;stop-color:#ffe53b" offset=".001"/>
			<stop style="stop-opacity:1;stop-color:#ff2525" offset="1"/>
		</linearGradient>
		<linearGradient x1="0" y1="0" x2="1" y2="0" gradientUnits="userSpaceOnUse" gradientTransform="matrix(0 -102.39294 -102.39294 0 1582.868 1160.111)" spreadMethod="pad" id="H">
			<stop style="stop-opacity:1;stop-color:#ffe53b" offset="0"/>
			<stop style="stop-opacity:1;stop-color:#ffe53b" offset=".001"/>
			<stop style="stop-opacity:1;stop-color:#ff2525" offset="1"/>
		</linearGradient>
		<clipPath clipPathUnits="userSpaceOnUse" id="a">
			<path d="M0 2000h3000V0H0Z"/>
		</clipPath>
		<clipPath clipPathUnits="userSpaceOnUse" id="b">
			<path d="M1382.29 1436.82h233.38V860.504h-233.38z"/>
		</clipPath>
		<clipPath clipPathUnits="userSpaceOnUse" id="d">
			<path d="M1171.14 1291.55h333.64V860.671h-333.64z"/>
		</clipPath>
		<clipPath clipPathUnits="userSpaceOnUse" id="f">
			<path d="M1013.7 1066.63h485.72V811.945H1013.7Z"/>
		</clipPath>
		<clipPath clipPathUnits="userSpaceOnUse" id="h">
			<path d="M1493.48 1291.55h333.64V860.671h-333.64z"/>
		</clipPath>
		<clipPath clipPathUnits="userSpaceOnUse" id="j">
			<path d="M1498.84 1066.63h485.72V811.945h-485.72z"/>
		</clipPath>
		<clipPath clipPathUnits="userSpaceOnUse" id="l">
			<path d="M959.442 715.778H2038.82V563.754H959.442Z"/>
		</clipPath>
		<clipPath clipPathUnits="userSpaceOnUse" id="z">
			<path d="M1437.74 996.426h127.22v-74.33h-127.22z"/>
		</clipPath>
		<clipPath clipPathUnits="userSpaceOnUse" id="E">
			<path d="M1409.45 932h180.51V828.39h-180.51z"/>
		</clipPath>
	</defs>
	<g clip-path="url(#a)" transform="matrix(1.33333 0 0 -1.33333 -1195.172 1979.6)">
		<g clip-path="url(#b)">
			<path d="M1615.65 1144.677c1.595 176.81-104.249 280.406-116.662 292.124v.016l-.01-.01-.01.01v-.016c-12.414-11.718-118.258-115.314-116.663-292.124 1.552-172.004 103.504-271.739 116.663-284.156v-.017c0 .003.01.006.01.009 0-.003.01-.006.01-.009v.017c13.158 12.417 115.111 112.152 116.662 284.156" style="fill:url(#c);stroke:none"/>
		</g>
		<g clip-path="url(#d)">
			<path d="M1433.589 1142.958c-97.475 133.142-240.131 147.246-256.62 148.577 0 0-.01.01-.01.012v-.011l-.012.001c0-.01.01-.01.01-.013-3.401-16.191-30.333-156.988 69.698-288.221 97.312-127.666 234.694-141.212 252.17-142.619 0-.005.01-.009.01-.013v.012l.012-.001c0 .004-.01.007-.01.011 3.606 17.16 29.579 152.742-65.248 282.265" style="fill:url(#e);stroke:none"/>
		</g>
		<g clip-path="url(#f)">
			<path d="M1295.94 1049.221c-148.522 49.893-268.514-22.434-282.222-31.035h-.014v-.011s-.01 0-.01-.01h.014c6.043-15.013 60.671-144.028 210.178-190.888 145.443-45.586 260.98 24.097 275.508 33.215l.014-.004v.011c0 .002.01.004.01.006s-.01.003-.014.005c-6.402 15.912-58.977 140.171-203.463 188.708" style="fill:url(#g);stroke:none"/>
		</g>
		<g clip-path="url(#h)">
			<path d="M1564.67 1142.958c97.476 133.142 240.13 147.246 256.62 148.577 0 0 .01.01.01.012v-.011l.011.001c0-.01-.01-.01-.01-.013 3.4-16.191 30.333-156.988-69.699-288.221-97.312-127.666-234.694-141.212-252.17-142.619 0-.005-.01-.009-.01-.013v.012l-.012-.001c0 .004.01.007.01.011-3.606 17.16-29.578 152.742 65.249 282.265" style="fill:url(#i);stroke:none"/>
		</g>
		<g clip-path="url(#j)">
			<path d="M1702.318 1049.221c148.523 49.893 268.514-22.434 282.223-31.035h.015c-.001 0 0-.01-.01-.011 0 0 .01 0 .011-.01h-.015c-6.043-15.013-60.671-144.028-210.178-190.888-145.443-45.586-260.98 24.097-275.508 33.215-.01-.001-.01-.003-.014-.004.001.003 0 .007.01.011 0 .002-.01.004-.011.006.01.002.01.003.014.005 6.403 15.912 58.978 140.171 203.463 188.708" style="fill:url(#k);stroke:none"/>
		</g>
		<g clip-path="url(#l)">
			<path d="M1004.474 693.771h-21.84V619.62h18.792c23.363 0 31.489 12.527 31.489 36.736 0 23.024-7.111 37.415-28.441 37.415m52.48-37.415c0-28.272-12.189-49.263-34.366-55.189-5.756-1.523-13.882-2.37-24.379-2.37h-38.767v102.761c0 7.957 3.893 12.188 11.85 12.358h33.182c36.567 0 52.48-20.823 52.48-57.56" style="fill:url(#m);stroke:none"/>
			<path d="M1090.644 653.31h33.689c-1.354 11.849-6.94 17.944-16.59 17.944-9.65 0-15.406-6.095-17.099-17.944m17.099-56.544c-27.087.846-40.63 16.59-40.63 47.063 0 30.472 13.713 45.708 40.969 45.878 28.44 0 41.814-17.437 40.122-52.48h-57.898c.846-13.713 6.771-20.655 17.776-20.655 5.248 0 10.157 2.201 14.559 6.433 2.031 2.201 4.57 3.218 7.618 3.218h16.591c-4.91-18.961-17.099-29.457-39.107-29.457" style="fill:url(#n);stroke:none"/>
			<path d="m1235.728 688.353-31.658-89.556h-23.87l-31.489 89.556h24.886l18.115-62.808 15.575 54.851c1.692 5.249 5.417 7.957 11.004 7.957z" style="fill:url(#o);stroke:none"/>
			<path d="M1283.298 615.05c9.48 0 14.221 2.708 14.221 8.464 0 4.57-7.788 8.295-23.194 11.004-19.807 3.555-29.964 12.358-30.134 26.409 0 19.3 15.237 28.442 35.721 28.78 11.512 0 20.653-2.539 27.425-7.618 6.603-5.248 10.158-12.527 10.666-21.839h-14.22c-5.249.17-8.635 2.031-9.989 5.587-1.523 3.893-6.094 6.095-13.543 6.095-8.804 0-13.205-2.37-13.205-6.942 0-4.57 5.756-8.126 17.437-10.326 15.236-3.048 25.225-6.941 30.134-11.512 4.233-4.402 6.264-9.82 6.264-15.914 0-22.009-17.268-30.134-40.969-30.134-12.528 0-22.008 2.709-28.102 7.957-6.772 5.079-10.158 12.867-10.158 23.193h23.024c.508-9.819 7.618-13.204 18.622-13.204" style="fill:url(#p);stroke:none"/>
			<path d="M1353.214 656.356c0-22.516 9.989-39.445 31.489-39.445 21.501 0 31.657 16.252 31.657 39.445 0 22.686-10.156 38.937-31.657 38.937-21.5 0-31.489-16.591-31.489-38.937m-23.531 0c0 35.213 20.823 59.422 55.02 59.422 34.366 0 55.189-24.548 55.189-59.422 0-35.382-20.145-59.252-55.189-59.252-35.043 0-55.02 24.04-55.02 59.252" style="fill:url(#q);stroke:none"/>
			<path d="M1492.881 617.249c12.189 0 18.453 8.634 18.961 25.903 0 18.115-6.434 27.086-19.3 27.086s-18.96-8.971-18.792-27.086c.678-17.269 6.942-25.903 19.131-25.903m-19.131-42.322c0-7.449-3.724-11.173-11.173-11.173h-11.342v85.661c1.185 26.749 15.067 39.954 41.984 39.954 27.764 0 41.646-15.068 41.646-45.202 0-30.473-11.85-46.217-35.72-47.063-11.174 0-19.639 4.571-25.395 13.882z" style="fill:url(#r);stroke:none"/>
			<path d="M1568.217 653.31h33.689c-1.354 11.849-6.941 17.944-16.591 17.944-9.649 0-15.405-6.095-17.098-17.944m17.098-56.544c-27.086.846-40.629 16.59-40.629 47.063 0 30.472 13.712 45.708 40.968 45.878 28.442 0 41.815-17.437 40.122-52.48h-57.897c.846-13.713 6.77-20.655 17.775-20.655 5.248 0 10.158 2.201 14.559 6.433 2.032 2.201 4.571 3.218 7.618 3.218h16.591c-4.909-18.961-17.099-29.457-39.107-29.457" style="fill:url(#s);stroke:none"/>
			<path d="M1636.271 645.014c.678 28.949 16.083 43.339 46.048 43.339h3.217V664.99h-7.619c-12.527 0-18.791-6.601-18.791-19.637v-46.556h-22.855z" style="fill:url(#t);stroke:none"/>
			<path d="M1747.666 635.533v8.296c-5.247-2.201-11.342-4.063-17.944-5.418-8.973-1.692-13.544-5.926-13.544-12.528.508-7.11 4.232-10.495 11.343-10.495 12.528 0 20.145 7.449 20.145 20.145m-28.44 29.457h-22.516c2.708 16.59 14.39 24.717 35.043 24.717 24.717 0 37.244-8.127 37.752-24.717v-30.472c0-24.717-14.898-35.721-39.107-37.414-21.5-1.693-36.397 8.295-36.397 28.102.508 21.501 16.082 27.257 38.768 29.458 9.65 1.185 14.559 4.063 14.559 8.972-.509 5.079-5.248 7.618-14.559 7.618-7.956 0-12.359-2.032-13.543-6.264" style="fill:url(#u);stroke:none"/>
			<path d="M1808.608 672.27h-2.369v-49.603c0-3.725 2.2-5.756 6.602-5.756h6.941v-17.098c-7.28-.677-15.236-.677-23.701.168-8.465.847-12.527 6.095-12.358 16.083v97.852h11.681c5.925 0 10.835-5.418 10.835-11.343v-14.22h13.543v-4.91c0-6.433-4.909-11.173-11.174-11.173" style="fill:url(#v);stroke:none"/>
			<path d="M1844.328 688.353c7.279 0 10.834-3.555 10.834-10.835v-78.721h-22.516v89.556zm0 25.563c7.448 0 11.003-3.725 10.834-11.004v-6.602h-22.516v17.606z" style="fill:url(#w);stroke:none"/>
			<path d="m1953.182 688.353-31.658-89.556h-23.87l-31.489 89.556h24.887l18.114-62.808 15.574 54.851c1.694 5.249 5.418 7.957 11.004 7.957z" style="fill:url(#x);stroke:none"/>
			<path d="M1981.115 653.31h33.69c-1.355 11.849-6.942 17.944-16.591 17.944-9.65 0-15.405-6.095-17.099-17.944m17.099-56.544c-27.087.846-40.63 16.59-40.63 47.063 0 30.472 13.713 45.708 40.969 45.878 28.441 0 41.815-17.437 40.122-52.48h-57.898c.846-13.713 6.772-20.655 17.776-20.655 5.248 0 10.157 2.201 14.559 6.433 2.032 2.201 4.571 3.218 7.617 3.218h16.591c-4.909-18.961-17.098-29.457-39.106-29.457" style="fill:url(#y);stroke:none"/>
		</g>
		<path d="M0 0a365.113 365.113 0 0 1-64.433-76.397 364.873 364.873 0 0 1-37.488-79.041h-25.597a364.873 364.873 0 0 1-37.488 79.041A365.113 365.113 0 0 1-229.439 0c-8.845-29.347-31.708-118.944 6.793-221.216 30.125-80.021 82.634-127.471 107.926-147.583 25.293 20.112 77.802 67.562 107.927 147.583C31.708-118.944 8.845-29.347 0 0" style="fill:#fff;fill-opacity:1;fill-rule:nonzero;stroke:none" transform="translate(1614.259 1197.87)"/>
		<g clip-path="url(#z)">
			<path d="M1562.607 990.57c1.632-3.263 2.068-6.717 2.269-10.145.687-11.698-2.716-22.164-9.872-31.428-4.311-5.581-10.327-8.425-16.854-10.329-10.375-3.028-19.289-8.443-26.944-16.016-.189-.187-.452-.301-.844-.556-.569 1.132.09 2.022.378 2.903 3.813 11.676 11.191 20.603 21.184 27.544 3.582 2.488 7.462 4.364 11.335 6.335 7.374 3.753 11.903 10.22 15.298 17.562 1.677 3.629 2.745 7.419 3.15 11.41.088.856-.078 1.884.9 2.72" style="fill:url(#A);stroke:none"/>
			<path d="M1440.532 990.537c.603-3.02.78-6 1.602-8.866 2.483-8.65 7.474-15.577 14.364-21.214.861-.705 1.923-1.211 2.96-1.647 9.422-3.971 17.313-10.058 23.901-17.768 4.638-5.427 7.121-12.04 9.259-18.86-3.478 2.995-6.854 5.953-10.657 8.379-5.434 3.467-11.046 6.5-17.36 8.117-14.616 3.745-21.8 14.346-25.523 28.023-1.903 6.992-1.633 14.029-.061 21.047.218.973.272 2.069 1.515 2.789" style="fill:url(#B);stroke:none"/>
			<path d="M1520.708 991.805c1.919-7.928-2.627-17.036-10.105-21.156-7.214-3.972-16.355-2.81-22.364 2.843-5.342 5.026-8.418 13.833-6.13 18.5 2.959-9.872 8.986-16.331 19.405-16.3 10.333.032 16.144 6.605 19.194 16.113" style="fill:url(#C);stroke:none"/>
			<path d="M1508.822 988.585c-.034-4.206-3.483-7.896-7.324-7.834-3.99.062-7.42 3.787-7.451 8.09-.03 4.144 3.345 7.56 7.492 7.585 3.874.022 7.317-3.685 7.283-7.841" style="fill:url(#D);stroke:none"/>
		</g>
		<path d="m0 0 33.783-12.283v-16.796l-34.851 11.01A1353.114 1353.114 0 0 0 0 0" style="fill:#000;fill-opacity:1;fill-rule:nonzero;stroke:none" transform="translate(1371.258 1126.28)"/>
		<path d="m0 0 35.053-10.954v-8.032L.008-9.493Z" style="fill:#000;fill-opacity:1;fill-rule:nonzero;stroke:none" transform="translate(1369.988 1103.773)"/>
		<path d="m0 0-33.782-12.283v-16.796l34.85 11.01A1353.114 1353.114 0 0 1 0 0" style="fill:#000;fill-opacity:1;fill-rule:nonzero;stroke:none" transform="translate(1627.96 1126.28)"/>
		<path d="m0 0-35.052-10.954v-8.032L-.008-9.493z" style="fill:#000;fill-opacity:1;fill-rule:nonzero;stroke:none" transform="translate(1629.23 1103.773)"/>
		<g clip-path="url(#E)">
			<path d="M1587.971 929.605c-11.02-12.77-25.72-21.875-39.797-31.275-14.942-9.977-29.942-21.059-38.747-36.72-2.17-3.86-4.662-8.488-9.067-8.951-5.26-.553-8.708 5.109-11.394 9.665-8.964 15.211-23.671 26.047-38.343 35.865-2.84 1.901-5.693 3.782-8.534 5.68a388.964 388.964 0 0 0-8.516 5.828 190.597 190.597 0 0 0-8.247 6.144 124.638 124.638 0 0 0-7.769 6.657 92.416 92.416 0 0 0-7.084 7.366c-.344.402-.674.816-1.022 1.214.323-.743.882-1.465 1.311-2.162a385.687 385.687 0 0 1 9.819-15.154 394.97 394.97 0 0 1 31.745-40.629 392.06 392.06 0 0 1 14.134-15.036 395.369 395.369 0 0 1 14.9-14.279 397.515 397.515 0 0 1 7.724-6.841 387.252 387.252 0 0 1 10.308-8.586c35.899 28.926 66.7 64.163 90.566 103.609a80.313 80.313 0 0 0-1.987-2.395" style="fill:url(#F);stroke:none"/>
		</g>
		<path d="M0 0s33.592-9.493 37.243-21.178c0 0-2.921 24.829-8.763 31.402 0 0-16.065-.731-28.48-10.224" style="fill:#000;fill-opacity:1;fill-rule:nonzero;stroke:none" transform="translate(1446.346 1028.918)"/>
		<path d="M0 0s-33.592-9.493-37.243-21.178c0 0 2.921 24.829 8.763 31.402 0 0 16.065-.731 28.48-10.224" style="fill:#000;fill-opacity:1;fill-rule:nonzero;stroke:none" transform="translate(1552.964 1028.918)"/>
		<path d="M0 0s-10.954 33.592-16.796 35.783c0 0 16.066 3.651 33.592 0C16.796 35.783.73 13.875 0 0" style="fill:#000;fill-opacity:1;fill-rule:nonzero;stroke:none" transform="translate(1500.385 1006.28)"/>
		<path d="M0 0c0-6.654-4.577-12.049-10.224-12.049-5.646 0-10.224 5.395-10.224 12.049 0 6.655 4.578 12.05 10.224 12.05C-4.577 12.05 0 6.655 0 0" style="fill:#000;fill-opacity:1;fill-rule:nonzero;stroke:none" transform="translate(1510.198 840.516)"/>
		<path d="M0 0c2.88-.7 13.634-2.952 25.19 2.799 12.213 6.078 16.84 16.87 17.896 19.548l-1.103.045C14.555 23.511 0 0 0 0" style="fill:#000;fill-opacity:1;fill-rule:nonzero;stroke:none" transform="translate(1518.23 938.08)"/>
		<path d="M0 0c-2.879-.7-13.634-2.952-25.19 2.799-12.213 6.078-16.839 16.87-17.895 19.548l1.102.045C-14.554 23.511 0 0 0 0" style="fill:#000;fill-opacity:1;fill-rule:nonzero;stroke:none" transform="translate(1484.639 938.08)"/>
	</g>
	<path d="M1396.1 1050.761c14.596 16.264 34.227 27.915 56.444 32.493a225.15 225.15 0 0 1-10.062 17.661 226.52 226.52 0 0 1-39.981 47.404c-4.302-14.278-13.95-51.542-6.401-97.558" style="fill:url(#G);stroke:none" transform="matrix(1.33333 0 0 -1.33333 -1195.172 1979.6)"/>
	<path d="M1563.309 1100.915a225.493 225.493 0 0 1-10.063-17.661c22.218-4.578 41.848-16.229 56.444-32.493 7.551 46.016-2.098 83.28-6.401 97.558a226.49 226.49 0 0 1-39.98-47.404" style="fill:url(#H);stroke:none" transform="matrix(1.33333 0 0 -1.33333 -1195.172 1979.6)"/>
</svg>
