<svg xmlns="http://www.w3.org/2000/svg" viewBox="1.34 -0.41 229.57 281.32">
	<path fill="#231f20" d="M87.274 233.451a48.94 48.94 0 0 1 3.074-17.868 41.803 41.803 0 0 1 8.145-13.381 35.365 35.365 0 0 1 11.552-8.394 32.591 32.591 0 0 1 13.464-2.908 33.89 33.89 0 0 1 13.714 2.659 26.783 26.783 0 0 1 10.14 7.646 35.152 35.152 0 0 1 6.231 11.968 52.789 52.789 0 0 1 2.162 15.625 46.695 46.695 0 0 1-.498 7.478h-54.521q.832 13.133 8.061 20.778 7.233 7.65 18.867 7.647a31.759 31.759 0 0 0 10.72-1.745 47.51 47.51 0 0 0 9.392-4.57l4.82 8.974a68.68 68.68 0 0 1-11.802 5.818 40.998 40.998 0 0 1-14.792 2.492 39.577 39.577 0 0 1-15.21-2.907 36 36 0 0 1-12.3-8.311 38.444 38.444 0 0 1-8.228-13.215 49.472 49.472 0 0 1-2.99-17.786zm56.513-6.149q0-12.466-5.234-19.033-5.236-6.566-14.71-6.565a19.923 19.923 0 0 0-8.227 1.745 22.822 22.822 0 0 0-7.065 4.988 26.517 26.517 0 0 0-5.235 7.977 36.827 36.827 0 0 0-2.744 10.89h43.215zm38.728 4.155-24.434-38.564h14.793l10.803 17.786q1.827 3.328 3.823 6.733 1.997 3.409 4.156 6.73h.664q1.827-3.321 3.657-6.73 1.829-3.407 3.658-6.733l9.807-17.786h14.294l-24.433 40.059 26.261 40.724h-14.792l-11.802-18.784q-2.163-3.651-4.322-7.314-2.163-3.652-4.487-7.146h-.664q-2.163 3.49-4.156 7.063-1.995 3.577-3.989 7.397l-10.971 18.784h-14.295zm-98.432 33.029a10.985 10.985 0 0 1-2.876.32c-1.652 0-3.18-1.197-3.572-4.184V155.33H63.837v31.083l.592 12.256v1.482a54.244 54.244 0 0 0-10.397-6.759 27.594 27.594 0 0 0-12.136-2.492 30.698 30.698 0 0 0-13.298 2.99 34.266 34.266 0 0 0-11.137 8.478 41.996 41.996 0 0 0-7.73 13.38 50.91 50.91 0 0 0-2.908 17.703q0 20.283 9.06 31.25 9.058 10.971 24.35 10.97a27.478 27.478 0 0 0 13.382-3.407 51.152 51.152 0 0 0 11.054-8.062h.25c1.325 7.448 5.462 11.47 13.412 11.47a17.64 17.64 0 0 0 7.51-1.278zm-20.245-11.42a38.235 38.235 0 0 1-9.972 8.394 21.752 21.752 0 0 1-10.638 2.741q-10.641 0-16.457-8.145-5.82-8.142-5.818-22.77a40.86 40.86 0 0 1 1.83-12.633 31.556 31.556 0 0 1 4.985-9.724 22.813 22.813 0 0 1 7.397-6.316 19.068 19.068 0 0 1 9.06-2.244 25.816 25.816 0 0 1 9.724 1.912 34.448 34.448 0 0 1 9.889 6.565z"/>
	<path fill="#449fd8" d="M158.93 68.408a33.212 33.212 0 0 0 18.685-24.425A67.164 67.164 0 0 0 134.871 6.82a50.688 50.688 0 0 1 8.926 31.86 43.004 43.004 0 0 1 15.133 29.728zm-80.506-17.18a33.197 33.197 0 0 0-28.812 10.617 67.167 67.167 0 0 0 16.723 54.787 51.273 51.273 0 0 1 9.005-32.273 42.989 42.989 0 0 1 3.084-33.13zm7.566 50.6a33.24 33.24 0 0 0 4.801 31.918 67.309 67.309 0 0 0 50.937-.046 50.705 50.705 0 0 1-26.214-19.417 42.825 42.825 0 0 1-29.524-12.456zm39.691-72.136A33.217 33.217 0 0 0 105.607 5a67.404 67.404 0 0 0-46.31 30.53 51.125 51.125 0 0 1 32.332.842 42.549 42.549 0 0 1 34.052-6.68zm30.013 58.334a42.713 42.713 0 0 1-20.666 21.895 33.442 33.442 0 0 0 30.123 7.69 67.375 67.375 0 0 0 18.322-46.147 50.964 50.964 0 0 1-27.779 16.562z"/>
	<circle cx="116.341" cy="71.464" r="21.054" fill="#f04d5c"/>
</svg>
