<svg xmlns="http://www.w3.org/2000/svg" viewBox="-6.44 84.56 412.62 72.12">
	<path fill="#93d500" d="M94.02 134.266H74.122l6.383-33.556h19.624c8.748 0 14.876 2.044 18.212 6.076 2.35 2.838 3.165 6.586 2.356 10.837-1.531 8.047-9.344 16.643-26.679 16.643zm-7.515-9.075h8.465c8.527 0 13.16-2.564 14.163-7.836a5.465 5.465 0 0 0-.84-4.74c-1.529-1.847-4.936-2.783-10.128-2.783h-8.738zm45.718 9.075h-10.655l6.383-33.556h10.655zm51.68 0h-12.32l-2.477-7.183h-17.97l-5.255 7.183h-12.164l24.647-33.6h13.678zm-27.314-15.068h10.076l-2.973-9.41h-.431zm80.61 15.068h-10.563l3.84-20.187-16.309 20.187h-5.576l-8.59-20.395-3.88 20.395h-10.519l6.384-33.556h14.336l7.985 18.869 15.119-18.869h14.157zm51.828 0h-12.32l-2.477-7.183h-17.97l-5.255 7.183H238.84l24.647-33.6h13.678zm-27.314-15.068h10.076l-2.973-9.41h-.431zm71.325 15.068h-11.424l-16.234-21.244-4.042 21.244h-10.61l6.383-33.556h12.844l15.116 19.913 3.788-19.913h10.562zm29.55 0h-10.702l4.649-24.434h-15.69l1.734-9.122h42.128l-1.735 9.122h-15.736zm29.48 0h-10.656l6.383-33.556h10.656zM35.322 148.953 1.687 107.26l11.847-14.684h28.877l11.495 14.077-18.76 23.178-5.544-6.873 12.95-16.042-4.286-5.502h-20.77l-4.717 5.846 22.544 27.944 22.545-27.945L46.11 92.577h11.003l11.847 14.684z"/>
</svg>
