<?xml version="1.0" encoding="utf-8"?>
<!-- Generator: Adobe Illustrator 22.0.1, SVG Export Plug-In . SVG Version: 6.00 Build 0)  -->
<svg version="1.1" id="Layer_1" xmlns="http://www.w3.org/2000/svg" xmlns:xlink="http://www.w3.org/1999/xlink" x="0px" y="0px"
	 viewBox="0 0 227.2 170" style="enable-background:new 0 0 227.2 170;" xml:space="preserve">
<style type="text/css">
	.st0{fill:#252F3E;}
	.st1{fill:#FF9900;}
	.st2{fill:#EA4335;}
	.st3{fill:#4285F4;}
	.st4{fill:#34A853;}
	.st5{fill:#FBBC05;}
	.st6{fill:#0080FF;}
	.st7{fill:#B80017;}
</style>
<g>
	<path class="st6" d="M113.6,91.7v22c37.2,0,66.2-36,54-75c-5.3-17-18.9-30.6-35.9-35.9c-39-12.2-75,16.8-75,54h22c0,0,0,0,0,0
		c0-23.4,23.1-41.4,47.7-32.5c9.1,3.3,16.4,10.6,19.7,19.7C155.1,68.5,137,91.7,113.6,91.7l0.1-21.9c0,0,0,0,0,0H91.7c0,0,0,0,0,0
		v21.9H113.6z M91.7,108.6H74.9l0,0V91.7h16.9L91.7,108.6C91.7,108.6,91.7,108.6,91.7,108.6z M74.9,91.7H60.7c0,0,0,0,0,0V77.6
		c0,0,0,0,0,0h14.1c0,0,0,0,0,0V91.7z"/>
	<path class="st6" d="M19.6,136c-2.9-2-6.4-3-10.6-3H0v28.7h9.1c4.2,0,7.7-1.1,10.6-3.2c1.6-1.1,2.8-2.7,3.7-4.6
		c0.9-1.9,1.3-4.2,1.3-6.8c0-2.5-0.4-4.8-1.3-6.7C22.4,138.6,21.2,137,19.6,136z M5.3,137.9h2.8c3.2,0,5.8,0.6,7.7,1.9
		c2.2,1.3,3.3,3.8,3.3,7.5c0,3.7-1.1,6.4-3.3,7.8h0c-1.9,1.3-4.5,1.9-7.7,1.9H5.3V137.9z M28.3,161.7h5.1v-20.2h-5.1V161.7z
		 M30.9,132.6c-0.9,0-1.6,0.3-2.2,0.9c-0.6,0.6-0.9,1.3-0.9,2.2c0,0.9,0.3,1.6,0.9,2.2c0.6,0.6,1.4,0.9,2.2,0.9s1.6-0.3,2.2-0.9
		c0.6-0.6,0.9-1.4,0.9-2.2c0-0.9-0.3-1.6-0.9-2.2C32.5,132.9,31.8,132.6,30.9,132.6z M51.9,143.2c-1.5-1.4-3.3-2.2-5.1-2.2
		c-2.8,0-5.1,1-6.9,2.9c-1.8,1.9-2.7,4.3-2.7,7.3c0,2.9,0.9,5.3,2.7,7.3c1.8,1.9,4.2,2.9,7,2.9c2,0,3.7-0.5,5-1.6v0.5
		c0,1.7-0.5,3-1.3,3.9c-0.9,0.9-2.1,1.4-3.7,1.4c-2.4,0-3.8-0.9-5.6-3.3l-3.5,3.3l0.1,0.1c0.7,1.1,1.9,2.1,3.4,3.1
		c1.5,1,3.4,1.5,5.7,1.5c3,0,5.5-0.9,7.3-2.8c1.8-1.8,2.7-4.3,2.7-7.4v-18.4h-5V143.2z M50.6,155.1c-0.9,1-2,1.5-3.5,1.5
		c-1.5,0-2.6-0.5-3.5-1.5c-0.9-1-1.3-2.3-1.3-4c0-1.6,0.4-3,1.3-4c0.9-1,2-1.5,3.5-1.5c1.5,0,2.6,0.5,3.5,1.5c0.9,1,1.3,2.4,1.3,4
		C51.9,152.8,51.4,154.1,50.6,155.1z M61.3,161.7h5.1v-20.2h-5.1V161.7z M63.9,132.6c-0.9,0-1.6,0.3-2.2,0.9
		c-0.6,0.6-0.9,1.3-0.9,2.2c0,0.9,0.3,1.6,0.9,2.2c0.6,0.6,1.4,0.9,2.2,0.9c0.9,0,1.6-0.3,2.2-0.9c0.6-0.6,0.9-1.4,0.9-2.2
		c0-0.9-0.3-1.6-0.9-2.2C65.5,132.9,64.7,132.6,63.9,132.6z M77.5,136h-5v5.5h-2.9v4.6h2.9v8.4c0,2.6,0.5,4.5,1.6,5.6
		c1,1.1,2.9,1.6,5.5,1.6c0.8,0,1.7,0,2.5-0.1l0.2,0V157l-1.7,0.1c-1.2,0-2-0.2-2.4-0.6c-0.4-0.4-0.6-1.3-0.6-2.7v-7.7h4.7v-4.6h-4.7
		V136z M99.8,143L99.8,143c-1.5-1.3-3.7-2-6.3-2c-1.7,0-3.3,0.4-4.7,1.1c-1.3,0.7-2.6,1.8-3.5,3.2l0.1,0.1l3.3,3.1
		c1.3-2.1,2.8-2.9,4.8-2.9c1.1,0,1.9,0.3,2.6,0.8c0.7,0.6,1,1.3,1,2.2v1c-1.3-0.4-2.5-0.6-3.7-0.6c-2.5,0-4.6,0.6-6.1,1.8
		c-1.6,1.2-2.3,2.9-2.3,5.1c0,1.9,0.7,3.4,2,4.6c1.3,1.1,3,1.7,4.9,1.7c1.9,0,3.8-0.8,5.4-2.1v1.7h5v-13
		C102.1,146.3,101.3,144.3,99.8,143z M90.7,154c0.6-0.4,1.4-0.6,2.4-0.6c1.2,0,2.5,0.2,3.9,0.7v2c-1.1,1-2.6,1.6-4.4,1.6
		c-0.9,0-1.6-0.2-2-0.6c-0.5-0.4-0.7-0.9-0.7-1.5C89.9,154.9,90.1,154.4,90.7,154z M106.2,161.7h5.1V133h-5.1V161.7z M129.7,162.2
		c-8.2,0-14.8-6.6-14.8-14.8c0-8.2,6.6-14.8,14.8-14.8c8.2,0,14.8,6.6,14.8,14.8C144.5,155.5,137.9,162.2,129.7,162.2z M129.7,137.8
		c-5.3,0-9.6,4.3-9.6,9.6c0,5.3,4.3,9.6,9.6,9.6c5.3,0,9.6-4.3,9.6-9.6C139.3,142.1,135,137.8,129.7,137.8z M162.7,154.5
		c-0.9,1-1.8,1.9-2.6,2.4v0c-0.7,0.5-1.6,0.7-2.6,0.7c-1.5,0-2.7-0.5-3.7-1.7c-1-1.1-1.5-2.6-1.5-4.3c0-1.7,0.5-3.2,1.5-4.3
		c1-1.1,2.2-1.7,3.7-1.7c1.6,0,3.4,1,4.9,2.8l3.4-3.2c-2.2-2.9-5-4.2-8.3-4.2c-2.8,0-5.2,1-7.2,3c-2,2-3,4.5-3,7.5c0,3,1,5.6,3,7.6
		c2,2,4.4,3,7.2,3c3.7,0,6.7-1.6,8.7-4.5L162.7,154.5z M183.6,144.3c-0.7-1-1.7-1.8-2.9-2.4c-1.2-0.6-2.6-0.9-4.2-0.9
		c-2.8,0-5.2,1-6.9,3.1c-1.7,2.1-2.6,4.6-2.6,7.6c0,3.1,0.9,5.6,2.8,7.5c1.8,1.9,4.3,2.9,7.4,2.9c3.4,0,6.3-1.4,8.4-4.1l0.1-0.1
		l-3.3-3.2c-0.3,0.4-0.7,0.8-1.1,1.2c-0.5,0.5-1,0.8-1.5,1.1c-0.8,0.4-1.6,0.6-2.6,0.6c-1.4,0-2.6-0.4-3.5-1.2
		c-0.8-0.8-1.3-1.8-1.5-3.1h13.5l0-1.9c0-1.3-0.2-2.6-0.5-3.8C184.9,146.4,184.3,145.3,183.6,144.3z M172.5,149.1
		c0.2-1,0.7-1.8,1.3-2.4c0.7-0.7,1.6-1,2.7-1c1.2,0,2.2,0.4,2.8,1c0.6,0.6,0.9,1.4,1,2.4H172.5z M203.2,143L203.2,143
		c-1.5-1.3-3.7-2-6.3-2c-1.7,0-3.3,0.4-4.7,1.1c-1.3,0.7-2.6,1.8-3.5,3.2l0.1,0.1l3.3,3.1c1.3-2.1,2.8-2.9,4.8-2.9
		c1.1,0,1.9,0.3,2.6,0.8c0.7,0.6,1,1.3,1,2.2v1c-1.3-0.4-2.5-0.6-3.7-0.6c-2.5,0-4.6,0.6-6.1,1.8c-1.6,1.2-2.3,2.9-2.3,5.1
		c0,1.9,0.7,3.4,2,4.6c1.3,1.1,3,1.7,4.9,1.7c1.9,0,3.8-0.8,5.4-2.1v1.7h5v-13C205.5,146.3,204.7,144.3,203.2,143z M194.1,154
		c0.6-0.4,1.4-0.6,2.4-0.6c1.2,0,2.5,0.2,3.9,0.7v2c-1.1,1-2.6,1.6-4.4,1.6c-0.9,0-1.6-0.2-2-0.6c-0.5-0.4-0.7-0.9-0.7-1.5
		C193.3,154.9,193.6,154.4,194.1,154z M225.1,143.4c-1.4-1.6-3.4-2.4-5.9-2.4c-2,0-3.7,0.6-4.9,1.7v-1.3h-5v20.2h5.1v-11.2
		c0-1.5,0.4-2.8,1.1-3.6c0.7-0.9,1.7-1.3,3-1.3c1.2,0,2,0.4,2.7,1.2c0.6,0.8,1,1.8,1,3.2v11.7h5.1V150
		C227.2,147.2,226.5,145,225.1,143.4z"/>
</g>
</svg>
