<svg xmlns="http://www.w3.org/2000/svg" width="200" height="128">
	<path d="M39.13 82.852A18.852 18.852 0 1 0 20.278 64 18.852 18.852 0 0 0 39.13 82.852z" fill="#2993fc"/>
	<path d="M29.147 54.294c-.065-.4-.268-1.811.236-1.929.3-.07.638.165.894.287q.636.3 1.273.594 2.417 1.113 4.876 2.127c2.882 1.191 5.8 2.288 8.745 3.319a15.738 15.738 0 0 1 3.123 1.169 1.912 1.912 0 0 1 .649 2.505c-.615 1.151-1.284 2.277-1.925 3.414l-2.079 3.686h3.1l-5.3 7.02-.758 1 1.31-5.459h-2.545l.836-3.68c-1.311.42-2.788 1.216-4.159.667a8.41 8.41 0 0 1-2.754-2c-.308-.312-1-1.2-.356-1.422a7.1 7.1 0 0 1 1.072-.153c.861-.1 1.722-.223 2.582-.335l2.5-.324h-4.18c-.848 0-2.008.06-2.584 0-.8-.083-1.538-1.345-1.925-1.97a12.8 12.8 0 0 1-.919-1.81c-.193-.463-.442-1.359.4-1.231.359.054.734.175 1.091.252l4.407.959 3.5.761-4.541-1.5-2.763-.914a5.863 5.863 0 0 1-2.132-.935c-1.089-.992-1.452-2.731-1.674-4.098z" fill="#fff"/>
	<g fill="#2993fc">
		<path d="M74.6 53.136h-8.63v21.728h8.63c2.236 0 8.627-1.278 8.627-10.864S76.834 53.136 74.6 53.136zm.488 18.533h-5.92V56.331h5.92c1.748 0 5.263 1.278 5.263 7.669s-3.517 7.669-5.265 7.669zM86.26 58.888h2.876v15.976H86.26z"/>
		<circle cx="87.698" cy="54.414" r="1.917"/>
		<path d="M99.2 58.888a7.116 7.116 0 0 0-3.834 1.343v-1.343h-3.2v15.976h3.2v-11.5s.639-1.917 3.834-1.917S102.4 64 102.4 64v10.864h3.2v-11.5s-.647-4.476-6.4-4.476zm42.179-5.752h-15.977v2.556h6.391v19.172h3.195V55.692h6.391v-2.556zm10.864 5.752v2.127a7.318 7.318 0 0 0-5.113-2.127c-4.235 0-7.668 3.719-7.668 8.307S142.9 75.5 147.13 75.5a7.314 7.314 0 0 0 5.113-2.128v1.489h2.557V58.888zm-5.113 14.059c-2.823 0-5.112-2.575-5.112-5.752s2.289-5.751 5.112-5.751 5.113 2.575 5.113 5.751-2.289 5.752-5.113 5.752zm11.503-21.089h3.195v23.006h-3.195zm21.089 7.03h-3.834l-7.349 7.988V51.858h-2.876v23.006h2.876V70.71l2.556-2.876 5.432 7.03h3.195l-6.582-8.976 6.582-7zm-59.432 0v1.457a6.723 6.723 0 0 0-4.793-2.1c-4.059 0-7.349 3.863-7.349 8.628s3.29 8.627 7.349 8.627a6.722 6.722 0 0 0 4.793-2.1v2.735a4.869 4.869 0 0 1-5.112 3.834c-3.2 0-4.474-1.6-4.474-1.6l-1.917 2.236s1.278 2.237 6.391 2.237 8.307-3.515 8.307-6.71V58.888zm-3.711 13.353-.07.011a4.8 4.8 0 0 1-.692.056 5.442 5.442 0 0 1 0-10.864 4.943 4.943 0 0 1 .692.055l.07.012a5.483 5.483 0 0 1 0 10.73z"/>
	</g>
</svg>
