<svg xmlns="http://www.w3.org/2000/svg" width="200" height="128">
    <path fill="#000" d="M74.8 71V57.78h4.86c3.64 0 6.41 1.81 6.41 6.44 0 4.87-2.84 6.73-6.62 6.73zm4.36-2.57c2.35 0 3.74-1 3.74-4s-1.39-4.05-3.56-4.05h-1.5v8zM91.83 57.78V71h-3V57.78zM105.83 71h-3.54l-3.13-4.63h-.76V71h-3V57.78h4.74c3.11 0 4.79 1.43 4.79 4.29 0 2-.85 3.45-2.51 4zm-7.43-7h1.41a1.86 1.86 0 100-3.71H98.4zM116.71 71h-8.83V57.78h8.83v2.64h-5.79V63H116v2.53h-5.1v2.75h5.79zM130.52 68.2c-1.18 2-2.73 3-5.65 3-3.58 0-6-2.48-6-6.87s2.41-6.84 6.44-6.84a5.41 5.41 0 015.36 3.33l-2.93 1.43a2.48 2.48 0 00-2.54-2.07c-2 0-3.2 1.58-3.2 4.22s1.07 4.11 3.24 4.11a2.88 2.88 0 002.76-1.85zM134.92 71V60.42h-3.6v-2.64h10.26v2.64h-3.66V71zM142.36 64.38c0-4.43 2.35-6.87 6.24-6.87s6.26 2.44 6.26 6.87-2.37 6.84-6.26 6.84-6.24-2.44-6.24-6.84zm3.15 0c0 2.59 1 4.18 3.09 4.18s3.11-1.59 3.11-4.18-1-4.2-3.11-4.2-3.09 1.62-3.09 4.24zM168 71h-3.53l-3.13-4.63h-.76V71h-3V57.78h4.74c3.11 0 4.78 1.43 4.78 4.29 0 2-.84 3.45-2.5 4zm-7.38-7H162a1.86 1.86 0 100-3.71h-1.43zM173.25 60.91a11.65 11.65 0 011 2.86h.09a10.13 10.13 0 011-2.84l1.52-3.15H180l-4.2 8.79V71h-3v-4.43l-4.5-8.79h3.45z"/>
    <path fill="#5effa8" d="M41.26 71.04v-6.08H29.11l-.02 18.21h12.17v-6.1h15.17v15.18H41.26V86.2h-15.2l.02-22.76V52.82H20V37.64h15.18v15.18h-6.07v9.11h12.15v-6.08h15.17v15.19H41.26z"/>
</svg>
