<svg xmlns="http://www.w3.org/2000/svg" width="200" height="128">
    <path d="M100.2 70.93V57.78h4.85c3.63 0 6.4 1.81 6.4 6.43 0 4.87-2.83 6.72-6.61 6.72zm4.35-2.57c2.35 0 3.73-1 3.73-4s-1.38-4-3.55-4h-1.49v8zM117.21 57.78v13.15h-3V57.78zM122.27 66.75a2.46 2.46 0 002.46 2.13c1 0 1.74-.41 1.74-1.3s-.47-1.25-2.19-1.79c-3-1-4.26-2.09-4.26-4.35 0-3 2.32-3.95 4.62-3.95 2.7 0 4.71.92 5 3.42l-3 .76A1.78 1.78 0 00124.7 60c-.84 0-1.51.38-1.51 1.23s.71 1.27 2.25 1.74c2.77.87 4.18 1.81 4.18 4.33 0 2.86-2.33 3.91-5.12 3.91-2.59 0-4.33-.85-5-3.22zM139.68 70.93l-3.55-5.36h-.78v5.36h-3V57.78h3v5.16h.8l3.26-5.16h3.48l-4.15 6.36 4.55 6.79z"/>
    <path fill="#8bff5b" d="M51.81 66.24v14.88l28.77-16.63V49.63zm8.35 4.4l-3 1.73v-3.48l3-1.76zm15.11-8.78L64.67 68v-3.51l10.6-6.11zM51.81 84.62v14.85l28.77-16.61V68zM60.16 89l-3 1.73v-3.47l3-1.77zm15.11-8.79l-10.6 6.14v-3.5l10.6-6.11zM50.29 63.62L21.52 47.01l28.77-16.62 28.78 16.62-28.78 16.61zM20 49.63v14.86l28.78 16.63V66.24zM20 68v14.86l28.78 16.61V84.62z"/>
</svg>
