<svg xmlns="http://www.w3.org/2000/svg" viewBox="4.81 10.81 553.38 633.88">
	<defs>
		<style>
			.cls-1{fill:#416ba9}
		</style>
	</defs>
	<path d="M17.486 567.56c0-3.664 2.217-4.918 4.916-4.918h14.267c18.701 0 28.245 9.062 28.245 33.644 0 22.268-7.52 35.57-27.956 35.57H22.402c-2.7 0-4.916-1.253-4.916-4.915zm20.34 49.74c7.615 0 10.603-6.94 10.603-20.725 0-15.135-3.855-19.376-10.7-19.376H33.97V617.3zm34.61-49.74c0-3.664 2.217-4.918 4.916-4.918h6.363c2.698 0 4.916 1.254 4.916 4.917v59.382c0 3.662-2.218 4.916-4.916 4.916h-6.363c-2.7 0-4.916-1.254-4.916-4.916zm27.282 45.499 5.784-1.06c4.338-.772 4.53 1.156 5.784 3.856a6.71 6.71 0 0 0 6.555 3.952c3.567 0 6.266-1.831 6.266-5.591 0-12.82-27.667-11.086-27.667-34.318 0-10.797 7.809-18.123 20.437-18.123 11.086 0 16.966 4.82 20.05 12.918.965 2.313 1.447 4.723-2.988 5.59l-5.205 1.06c-3.953.772-4.338-1.06-6.073-3.662a6.397 6.397 0 0 0-5.495-3.085c-3.181 0-5.205 1.832-5.205 4.723 0 12.243 27.57 10.605 27.57 33.74 0 12.532-8.773 19.665-22.365 19.665-11.471 0-17.93-4.434-20.822-14.074-.771-2.41-1.157-4.724 3.374-5.591zm55.144-36.438h-8.097c-3.664 0-4.917-2.218-4.917-4.917v-4.145c0-2.7 1.253-4.917 4.917-4.917h32.293c3.663 0 4.916 2.218 4.916 4.917v4.145c0 2.7-1.253 4.917-4.916 4.917h-8.098v50.32c0 3.662-2.217 4.916-4.916 4.916h-6.266c-2.699 0-4.916-1.254-4.916-4.916zm34.898-9.062c0-3.663 2.217-4.917 4.916-4.917h16.292c15.134 0 23.04 5.688 23.04 20.052 0 8.387-3.279 13.688-8.291 16.773l9.35 27.762c1.35 4.05-.964 4.628-3.374 4.628h-8.675c-2.892 0-4.531-1.928-5.303-4.723l-6.169-21.209h-5.688v21.016c0 3.662-2.216 4.916-4.916 4.916h-6.266c-2.699 0-4.916-1.254-4.916-4.916zm20.147 25.353c4.145 0 7.616-1.64 7.616-8.58 0-7.615-3.374-8.194-7.23-8.194h-4.435v16.774zm32.007-25.353c0-3.663 2.217-4.917 4.916-4.917h6.363c2.699 0 4.916 1.254 4.916 4.917v59.382c0 3.662-2.217 4.916-4.916 4.916h-6.363c-2.699 0-4.916-1.254-4.916-4.916zm25.836 0c0-3.663 2.217-4.917 4.916-4.917h14.942c16.773 0 24.1 5.495 24.1 18.317 0 6.94-3.085 11.953-8.965 14.555v.193c6.747 2.314 10.41 7.134 10.41 15.81 0 16.58-11.374 20.34-25.448 20.34h-15.039c-2.699 0-4.916-1.254-4.916-4.916zm20.726 22.558c4.338 0 6.844-2.121 6.844-7.327 0-4.917-2.796-6.362-6.844-6.362h-4.917v13.689zm.386 27.954c5.88 0 7.904-2.409 7.904-7.808 0-5.88-3.181-7.807-7.808-7.807h-5.399v15.615zm31.236-50.512c0-3.663 2.217-4.917 4.916-4.917h6.362c2.7 0 4.917 1.254 4.917 4.917v43.282c0 5.785 2.313 8.387 6.748 8.387 4.434 0 7.133-2.602 7.133-8.387V567.56c0-3.663 2.218-4.917 4.917-4.917h6.169c2.7 0 4.917 1.254 4.917 4.917v41.066c0 15.809-7.134 24.003-23.426 24.003-16.098 0-22.653-8.194-22.653-24.003zm64.494 9.062h-8.097c-3.663 0-4.917-2.218-4.917-4.917v-4.145c0-2.7 1.254-4.917 4.917-4.917h32.293c3.664 0 4.917 2.218 4.917 4.917v4.145c0 2.7-1.253 4.917-4.917 4.917h-8.097v50.32c0 3.662-2.217 4.916-4.917 4.916h-6.266c-2.699 0-4.916-1.254-4.916-4.916zm34.899-9.062c0-3.663 2.217-4.917 4.916-4.917h6.362c2.7 0 4.916 1.254 4.916 4.917v59.382c0 3.662-2.217 4.916-4.916 4.916h-6.362c-2.7 0-4.916-1.254-4.916-4.916zm23.714 29.788c0-21.305 5.591-35.572 24.485-35.572s24.485 14.267 24.485 35.572c0 22.074-6.843 35.377-24.485 35.377s-24.485-13.303-24.485-35.377zm32.487 0c0-16.293-2.121-22.27-8.002-22.27-5.88 0-8 5.977-8 22.27 0 17.062 2.41 22.17 8 22.17 5.688 0 8.002-5.108 8.002-22.17zm24.007-29.788c0-3.663 2.216-4.917 4.916-4.917h6.94a7.567 7.567 0 0 1 6.845 4.435l13.207 29.884h.192v-29.402c0-3.663 2.217-4.917 4.917-4.917h4.627c2.699 0 4.916 1.254 4.916 4.917v59.382c0 3.662-2.217 4.916-4.916 4.916h-5.688c-2.988 0-4.723-1.832-5.977-4.435l-15.52-33.836h-.193v33.355c0 3.662-2.217 4.916-4.916 4.916h-4.434c-2.7 0-4.916-1.254-4.916-4.916z" class="cls-1"/>
	<path fill="#74c3d5" d="M461.282 365.264c14.626-14.996 31.51-27.886 43.9-45.3 23.606-33.177 21.589-53.986-9.085-79.896-5.547-4.686-8.182-7.962-5.187-15.25 2.577-6.27 3.766-13.218 4.832-19.982 5.903-37.446-11-60.7-48.648-63.332-13.137-.919-16.45-5.431-19.218-16.935-9.304-38.677-34.59-53.672-74.137-44.585-10.184 2.34-17.057 2.252-24.859-6.78-30.175-34.933-59.58-35.226-91.952-.348-9.643 10.39-15.623 11.84-28.628 5.406-32.903-16.277-59.839-3.1-69.784 35.477-4.685 18.172-11.369 26.349-30.245 30.158-31.33 6.323-44.79 33.576-35.575 69.531 3.762 14.682 4.682 23.437-10.29 33.264-22.75 14.932-25.22 35.337-11.096 59.4a163.069 163.069 0 0 0 18.461 24.686c6.403 7.28 13.946 13.558 19.805 21.482-24.325-14.212-46.46-30.973-61.716-54.96-17.05-26.809-13.406-48.15 13.332-65.262 13.647-8.734 14.875-15.924 10.658-30.935-12.727-45.31 5.12-71.293 52.094-78.34 9.122-1.369 13.243-4.371 14.933-13.092a120.374 120.374 0 0 1 6.92-23.664c14.47-34.413 41.093-45.358 75.139-29.247 12.995 6.15 20.164 5.779 30.68-5.3 36.594-38.552 69.623-37.503 104.473 2.496 7.034 8.074 13.327 7.588 21.518 5.549 49.265-12.265 82.342 9.667 86.803 52.023.856 8.124 4.892 12.492 13.599 11.068a9.08 9.08 0 0 1 2.06.011c48.428 3.328 67.905 29.373 55.653 76.285-3.687 14.117-5.266 23.357 9.831 33.392 24.025 15.97 26.436 40.908 10.89 67.222-12.924 21.878-44.104 49.985-75.161 65.758zm-239.07 46.896c-43.334 8.71-88.628 7.984-130.78 28.385 94.594 34.576 265.864 39.325 381.287.879-20.802-13.039-43.252-15.468-64.968-19.529-21.465-4.014-43.21-6.537-65.228-9.773 2.321-9.09 5.72-13.261 14.682-11.535 34.975 6.738 70.606 10.439 104.3 22.964 8.182 3.041 18.891 4.409 19.865 15.156 1.096 12.104-6.107 24.097-16.8 25.674-30.25 4.46-56.385 26.362-84.913 26.506-28.47.144-52.83-.53-79.492 14.175-20.181 11.13-46.332 2.832-64.163-15.454-6.838-7.013-11.138-6.38-19.021-2.859-23.913 10.679-47.246 8.513-67.316-8.799-7.103-6.126-13.276-7.629-22.062-6.689a44.089 44.089 0 0 1-27.747-5.86c-10.038-6.018-17.805-13.964-16.958-26.213.77-11.139 11.496-12.35 19.557-15.405 33.628-12.743 69.187-16.829 104.268-23.146 9.034-1.626 12.431 2.746 15.489 11.523z" id="F1L4Xu"/>
	<path d="M157.918 278.286h63.752v63.752h-63.752zm83.09 0h63.752v63.752h-63.752zm-83.09 83.089h63.752v63.752h-63.752z" class="cls-1"/>
	<path d="m353.893 184.942 45.08-45.08 45.08 45.08-45.08 45.08z" class="cls-1"/>
	<path d="M239.799 221.785v.604L296.3 250.79l28.704-56.803-56.803-28.703-28.402 56.501z" class="cls-1"/>
	<path d="m330.55 310.832 28.746-56.906 56.905 28.747-28.746 56.905z" class="cls-1"/>
	<path d="M157.918 195.196h63.752v63.752h-63.752zm83.09 166.179h63.752v63.752h-63.752zm83.392 0h63.752v63.752H324.4z" class="cls-1"/>
</svg>
