<svg xmlns="http://www.w3.org/2000/svg" width="200" height="128">
    <path d="M97.22 70.92V57.78h4.84c3.64 0 6.41 1.81 6.41 6.43 0 4.86-2.84 6.71-6.61 6.71zm4.35-2.57c2.35 0 3.73-1 3.73-4s-1.38-4-3.55-4h-1.49v8zM118.69 64.14a12.17 12.17 0 011.09 1.76h.09s-.07-1.11-.07-2.79v-5.33h3v13.14h-2.77l-4.64-6.25a12.49 12.49 0 01-1.25-1.94h-.09a25.42 25.42 0 01.14 3v5.22h-3V57.78h2.86zM127.91 66.75a2.44 2.44 0 002.45 2.12c1 0 1.74-.4 1.74-1.3s-.47-1.25-2.19-1.78c-3-1-4.26-2.1-4.26-4.35 0-3 2.32-3.95 4.62-3.95 2.7 0 4.71.92 5 3.41l-3 .76a1.78 1.78 0 00-1.93-1.66c-.85 0-1.52.38-1.52 1.23s.71 1.27 2.25 1.74c2.77.87 4.18 1.8 4.18 4.32 0 2.86-2.32 3.91-5.11 3.91-2.59 0-4.33-.85-5-3.21z"/>
    <path fill="#58b9ff" d="M30.61 83.88H20v-3.03h7.58v-7.58h3.03v10.61zM30.61 65.69H20v-3.03h7.58v-7.6h3.03v10.63z"/>
    <path fill="#58b9ff" d="M79.11 94.49H27.58v-3.03h48.5V38.39H30.61v9.11H20v-3.03h7.58v-9.11h51.53v59.13z"/>
    <path fill="#58b9ff" d="M68.5 53.45v30.43H56.37l.01-10.63h-6.05l-.03 10.63H38.2V53.42l15.14-8.73 15.16 8.76z"/>
</svg>
