<?xml version="1.0" encoding="utf-8"?>
<!-- Generator: Adobe Illustrator 22.0.1, SVG Export Plug-In . SVG Version: 6.00 Build 0)  -->
<svg version="1.1" id="design" xmlns="http://www.w3.org/2000/svg" xmlns:xlink="http://www.w3.org/1999/xlink" x="0px" y="0px"
	 viewBox="0 0 103.8 170" style="enable-background:new 0 0 103.8 170;" xml:space="preserve">
<style type="text/css">
	.st0{fill:#1A1918;}
	.st1{fill:#FFFFFF;}
	.st2{fill:#435363;}
	.st3{fill:#F38B00;}
	.st4{fill:#364548;}
	.st5{fill:#22A0C8;}
	.st6{fill:#37B1D9;}
	.st7{fill:#1B81A5;}
	.st8{fill:#1D91B4;}
	.st9{fill:#23A3C2;}
	.st10{fill:#34BBDE;}
	.st11{fill:#D3ECEC;}
	.st12{fill:#BDD9D7;}
	.st13{fill:#E24329;}
	.st14{fill:#FC6D26;}
	.st15{fill:#FCA326;}
	.st16{fill:#D33833;}
	.st17{fill:#EF3D3A;}
	.st18{fill:#231F20;}
	.st19{fill:#F0D6B7;}
	.st20{fill:#335061;}
	.st21{fill:#6D6B6D;}
	.st22{fill:#DCD9D8;}
	.st23{fill:#F7E4CD;}
	.st24{fill:#49728B;}
	.st25{stroke:#D33833;stroke-width:0.816;}
	.st26{fill:#81B0C4;}
	.st27{fill:#1D1919;}
	.st28{fill:#326DE6;}
</style>
<g>
	<path class="st16" d="M102.1,68.9c0,28.3-22.5,51.3-50.2,51.3S1.7,97.3,1.7,68.9s22.5-51.3,50.2-51.3S102.1,40.6,102.1,68.9"/>
	<path class="st17" d="M3.7,81.6c0,0-3.6-53.5,45.7-55.1L46,20.8l-26.8,9l-7.7,8.8L4.9,51.4L1.1,66.3l1.1,10"/>
	<path class="st18" d="M17.5,33.9c-8.8,9-14.3,21.5-14.3,35.2l0,0c0,13.8,5.5,26.2,14.3,35.2l0,0c8.8,9,20.9,14.6,34.4,14.6l0,0
		c13.4,0,25.5-5.5,34.4-14.6l0,0c8.8-9,14.3-21.5,14.3-35.2l0,0c0-13.8-5.5-26.2-14.3-35.2l0,0c-8.8-9-20.9-14.6-34.4-14.6l0,0
		C38.5,19.3,26.3,24.9,17.5,33.9L17.5,33.9L17.5,33.9z M15.3,106.5C5.9,96.9,0.1,83.7,0.1,69.1l0,0c0-14.6,5.8-27.8,15.1-37.4l0,0
		c9.4-9.6,22.3-15.5,36.6-15.5l0,0c14.3,0,27.2,6,36.6,15.5l0,0c9.4,9.6,15.1,22.8,15.1,37.4l0,0c0,14.6-5.8,27.8-15.1,37.4l0,0
		c-9.4,9.6-22.3,15.5-36.6,15.5l0,0C37.6,122,24.6,116.1,15.3,106.5L15.3,106.5L15.3,106.5z"/>
	<path class="st19" d="M73,69.2l-7.7,1.1L55,71.5l-6.7,0.2l-6.5-0.2l-5-1.5l-4.4-4.8L29,55.4l-0.8-2.1l-4.6-1.5L21,47.3L19.1,41
		l2.1-5.5l5-1.7l4,1.9l1.9,4.2l2.3-0.4l0.8-1l-0.8-4.4l-0.2-5.5l1.1-7.7l0-4.4l3.5-5.6l6.1-4.4L55.6,2l11.9,1.7l10.3,7.4l4.8,7.7
		l3.1,5.5l0.8,13.8L84.1,50l-4.2,10.5l-4,5.6"/>
	<path class="st20" d="M66.5,102.3l-27.3,1.1v4.6l2.3,16.1l-1.1,1.3l-19.1-6.5l-1.3-2.3L18,94.9l-4.5-13l-1-3.1l15.3-10.5l4.8-1.9
		l4.2,5.2l3.6,3.2l4.2,1.3l1.9,0.6l2.3,10l1.7,2.1l4.4-1.5l-3.1,6l16.6,7.9L66.5,102.3"/>
	<path class="st21" d="M21.2,35.6l5-1.7l4,1.9l1.9,4.2l2.3-0.4l0.6-2.3l-1.1-4.4l1.1-10.5l-1-5.7l3.4-4l7.4-5.9l-2.1-2.9L32.2,9
		l-4.4,3.4l-2.5,5.3l-3.8,5.2L20.4,29L21.2,35.6"/>
	<path class="st22" d="M29,17.6c0,0,2.9-7.1,14.3-10.5s0.6-2.5,0.6-2.5L31.5,9.4l-4.8,4.8l-2.1,3.8L29,17.6"/>
	<path class="st22" d="M23.3,34.2c0,0-4-13.4,11.3-15.3L34,16.6l-10.5,2.5l-3.1,10l0.8,6.5L23.3,34.2"/>
	<path class="st23" d="M29.4,52l2.5-2.4c0,0,1.1,0.1,1.3,1.5c0.2,1.3,0.8,13.4,9,19.9c0.8,0.6-6.1-1-6.1-1L30,60.4"/>
	<path class="st23" d="M64.6,48.3c0,0,0.4-5.8,2-5.3c1.6,0.4,1.6,2,1.6,2S64.4,47.5,64.6,48.3"/>
	<path class="st23" d="M80.4,27.1c0,0-3.2,0.6-3.4,3.4c-0.3,2.8,3.4,0.6,4,0.4"/>
	<path class="st23" d="M57.3,27.3c0,0-4.2,0.6-4.2,3.2s4.8,2.5,6.1,1.3"/>
	<path class="st23" d="M31.3,39.8c0,0-7.2-4.4-8-0.2s-2.5,7.2,1.1,11.7L22,50.5l-2.3-5.9l-0.8-5.7l4.4-4.6l5,0.4l2.9,2.3L31.3,39.8"
		/>
	<path class="st23" d="M34.8,27.7c0,0,3.2-16.8,19.7-20.1C68,4.9,75.1,8.2,77.8,11.3c0,0-12.1-14.3-23.5-10
		C42.8,5.7,34.4,13.7,34.6,18.9C34.9,27.7,34.8,27.7,34.8,27.7"/>
	<path class="st23" d="M79.1,13.2c0,0-5.5-0.2-5.7,4.8c0,0,0,0.8,0.4,1.5c0,0,4.4-5,7.1-2.3"/>
	<path class="st23" d="M54.9,20c0,0-1-7.6-7.4-3.2c-4.2,2.9-3.8,6.9-3.1,7.7c0.8,0.8,0.6,2.3,1.1,1.3c0.6-1.1,0.4-4.5,2.5-5.5
		C50,19.3,53.5,18.2,54.9,20"/>
	<path class="st24" d="M36.9,71.7l-18,8c0,0,7.4,29.6,3.6,38.8l-2.7-1l-0.2-11.3l-5-21.4L12.6,79l18.7-12.6L36.9,71.7"/>
	<path class="st24" d="M38.7,88.1l2.6,3.1v11.5h-3c0,0-0.4-8-0.4-9c0-1,0.4-4.4,0.4-4.4"/>
	<path class="st24" d="M38.8,104.4l-8.6,0.4l2.5,1.7l6.1,1"/>
	<path class="st20" d="M68.2,102.5l7.1-0.2l1.7,17.6l-7.2,1L68.2,102.5"/>
	<path class="st20" d="M70.1,102.5l10.7-0.6c0,0,4.4-11.1,4.4-11.7c0-0.6,3.8-16.1,3.8-16.1l-8.6-9l-1.7-1.5l-4.6,4.6V86L70.1,102.5
		"/>
	<path class="st24" d="M74.9,101.1l-6.7,1.3l1,5.3c2.5,1.1,6.7-1.9,6.7-1.9"/>
	<path class="st24" d="M75.1,67.7l13.4,10l0.4-4.6l-10.1-9.4L75.1,67.7"/>
	<path class="st1" d="M45.4,140.1l-4-16.1l-2-11.9l-0.3-8.8l17.9-1h11.1l-1,20.1L69,138l-0.2,2.9L54.2,142L45.4,140.1"/>
	<path class="st22" d="M65.8,102.3c0,0-1,19.9,1.9,34c0,0-5.7,3.6-14.1,4.6l16.1-0.6l1.9-1.1l-2.3-31.3l-0.6-6.7"/>
	<path class="st1" d="M77.3,118.3l7.4-2.1l14.1-0.8l2.1-6.5l-3.8-11.3l-4.4-0.6L86.7,99l-5.8,2.9l-3.1-0.6l-2.4,1"/>
	<path class="st22" d="M77.2,114.5c0,0,5-2.3,5.7-2.1l-2.1-10.5l2.5-1c0,0,1.7,10,1.7,11.1c0,0,10.7,0.6,11.7,0.6c0,0,2.3-4.4,1.7-9
		l2.1,6.1l0.2,3.4l-3.1,4.6l-3.4,0.8l-5.7-0.2l-1.9-2.5l-6.7,1l-2.1,0.8"/>
	<path class="st1" d="M69.7,100.9l-4.2-10.7l-4.4-6.3c0,0,1-2.7,2.3-2.7h4.4l4.2,1.5l-0.4,7.1L69.7,100.9"/>
	<path class="st22" d="M70.5,97.3c0,0-5.3-10.3-5.3-11.9c0,0,1-2.3,2.3-1.7c1.3,0.6,4.2,2.1,4.2,2.1v-3.6l-6.5-1.3l-4.4,0.6L68.2,99
		l1.5,0.2"/>
	<path class="st1" d="M47.1,72.1l-5.3-0.6l-5-1.5v1.7l2.4,2.7l7.7,3.4"/>
	<path class="st22" d="M38.6,72.6c0,0,5.9,2.5,7.9,1.9l0.2,2.3l-5.3-1.1l-3.2-2.3L38.6,72.6"/>
	<path class="st16" d="M77.3,81.9c-3.2-0.1-6.2-0.5-8.7-1.2c0.2-1.1-0.2-2.1,0.1-2.8c0.7-0.5,1.9-0.5,3-0.6
		c-0.9-0.4-2.3-0.6-3.3-0.4c0-0.7-0.4-1.2-0.6-1.7c1.8-0.6,6.1-4.9,8.5-3.5c1.2,0.7,1.7,4.5,1.7,6.4C78.2,79.5,77.9,81.1,77.3,81.9"
		/>
	<path class="st25" d="M77.3,81.9c-3.2-0.1-6.2-0.5-8.7-1.2c0.2-1.1-0.2-2.1,0.1-2.8c0.7-0.5,1.9-0.5,3-0.6
		c-0.9-0.4-2.3-0.6-3.3-0.4c0-0.7-0.4-1.2-0.6-1.7c1.8-0.6,6.1-4.9,8.5-3.5c1.2,0.7,1.7,4.5,1.7,6.4C78.2,79.5,77.9,81.1,77.3,81.9
		L77.3,81.9z"/>
	<path class="st16" d="M61.8,76.6c0,0.2,0,0.5,0,0.7c-1,0.6-2.6,0.6-3.8,1.2c1.6,0.1,2.9,0.5,4,1c0,0.6,0,1.3-0.1,1.9
		c-1.9,1.3-3.6,3.2-5.7,4.4c-1.1,0.6-4.7,2-5.7,1.7c-0.6-0.2-0.7-0.9-0.9-1.7c-0.5-1.5-1.7-4-1.9-6.4c-0.1-3-0.4-7.9,2.8-7.3
		c2.6,0.5,5.6,1.7,7.6,2.8C59.3,75.6,60,76.4,61.8,76.6"/>
	<path class="st25" d="M61.8,76.6c0,0.2,0,0.5,0,0.7c-1,0.6-2.6,0.6-3.8,1.2c1.6,0.1,2.9,0.5,4,1c0,0.6,0,1.3-0.1,1.9
		c-1.9,1.3-3.6,3.2-5.7,4.4c-1.1,0.6-4.7,2-5.7,1.7c-0.6-0.2-0.7-0.9-0.9-1.7c-0.5-1.5-1.7-4-1.9-6.4c-0.1-3-0.4-7.9,2.8-7.3
		c2.6,0.5,5.6,1.7,7.6,2.8C59.3,75.6,60,76.4,61.8,76.6L61.8,76.6z"/>
	<path class="st16" d="M63.6,80.1c-0.3-1.6-0.6-2.1-0.5-3.5C67.5,73.8,68.3,81.6,63.6,80.1"/>
	<path class="st25" d="M63.6,80.1c-0.3-1.6-0.6-2.1-0.5-3.5C67.5,73.8,68.3,81.6,63.6,80.1L63.6,80.1z"/>
	<path class="st17" d="M69.9,81.4c0,0-1.3-1.9-0.4-2.5c1-0.6,1.9,0,2.5-1c0.6-1,0-1.5,0.2-2.7s1.1-1.3,2.1-1.5c1-0.2,3.6-0.6,4,0.4
		l-1.1-3.4l-2.3-0.8l-7.2,4.2l-0.4,2.1v4.2"/>
	<path class="st17" d="M49.8,87.7c-0.2-3-0.5-6-0.7-8.9c-0.4-4.5,1.1-3.7,4.9-3.7c0.6,0,3.6,0.7,3.8,1.1c1.1,2.1-1.7,1.7,1.2,3.3
		c2.5,1.3,6.9-0.8,5.9-3.8C64.4,75,62,75.5,61.2,75c-1.5-0.8-3-1.5-4.5-2.3c-1.9-1-6.3-2.4-8.3-1.1c-5.1,3.5,0.3,12.2,2.1,15.9"/>
	<path class="st18" d="M54.9,20c-5.2-1.2-7.8,2.2-9.4,5.7c-1.4-0.3-0.9-2.3-0.5-3.2c0.9-2.6,4.7-6,7.8-5.5
		C54.1,17.1,55.8,18.3,54.9,20"/>
	<path class="st18" d="M80.2,25.9h0.2c1.2,2.4,2.2,5,3.7,7.2c-1,2.3-7.5,4.4-7.4,0.2c1.4-0.6,3.8-0.1,5.1-0.9
		C81.1,30.5,80.1,28.8,80.2,25.9"/>
	<path class="st18" d="M57.5,26c1.1,2.1,1.5,4.2,3.1,5.7c0.7,0.7,2.1,1.5,1.4,3.5c-0.2,0.4-1.3,1.5-2,1.7c-2.5,0.7-8.3,0.2-6.3-3
		c2.1,0.1,4.8,1.3,6.4-0.2C58.8,31.9,56.7,28.2,57.5,26"/>
	<path class="st18" d="M79.3,46.8c-3.7,2.4-7.9,5-14,4.4c-1.3-1.1-1.8-3.7-0.5-5.3c0.6,1.1,0.2,3.2,2.1,3.6c3.5,0.6,7.5-2.1,10-3.1
		c1.5-2.6-0.1-3.6-1.5-5.3c-2.9-3.4-6.7-7.7-6.6-12.9c1.2-0.9,1.3,1.3,1.4,1.7c1.5,3.5,5.3,8,8,11c0.7,0.7,1.8,1.5,1.9,1.9
		C80.4,44.2,79.2,45.9,79.3,46.8"/>
	<path class="st18" d="M30,44.3c-1.2-0.7-1.5-3.6-2.8-3.7c-2-0.1-1.6,3.8-1.6,6.1c-1.3-1.2-1.6-5-0.6-7c-1.1-0.6-1.6,0.6-2.3,1
		C23.5,34.9,31.3,38.1,30,44.3"/>
	<path class="st18" d="M81.7,49.3c-1.7,3.3-4.2,7-9.3,7.1c-0.1-1.1-0.2-2.7,0-3.4C76.3,52.6,78.7,50.6,81.7,49.3"/>
	<path class="st18" d="M57.2,51.4c3.2,1.7,9.2,1.9,13.7,1.8c0.2,1,0.2,2.2,0.2,3.4C65.4,56.8,58.7,55.4,57.2,51.4"/>
	<path class="st18" d="M56.6,54.6c2.3,5.7,10,5,16.5,4.9c-0.3,0.7-0.9,1.6-1.7,1.9c-2.1,0.9-7.9,1.5-10.8,0c-1.8-1-3-3.2-4-4.5
		C56.2,56.2,53.7,54.6,56.6,54.6"/>
	<path class="st26" d="M79,85.8c-2.6,4.5-5.2,9.2-8.3,13.2c1.3-3.8,1.9-10.3,2.1-15.3C75.5,82.4,77.9,84,79,85.8"/>
	<path class="st18" d="M93.2,102.1c-3,0.6-5,3.5-7.9,3.3C86.9,103.1,89.7,102.2,93.2,102.1"/>
	<path class="st18" d="M94.5,106.7c-2.4,0.2-5.3,0.6-7.7,0.4C88,105.4,92.5,106,94.5,106.7"/>
	<path class="st18" d="M95.4,110.7c-2.7,0-6.1,0-8.7-0.2C88.3,108.8,93.6,109.9,95.4,110.7"/>
	<path class="st22" d="M73.9,121.6c0.4,3.4,1.7,6.8,1.6,10.6c-1.5,0.5-2.3,0.9-4.4,0.9c-0.1-3.2-0.6-8-0.4-11.1
		C71.7,122.2,73.1,121.4,73.9,121.6"/>
	<path class="st19" d="M69.6,71.4c-1.4,0.9-2.5,2-3.8,3c-2.9,0.2-4.5-0.2-6.6-1.9c0-0.1,0.2-0.1,0.2-0.2
		C62.5,73.7,66.4,71.7,69.6,71.4"/>
	<path class="st26" d="M53.3,92.6c0.9-3.7,4.2-5.6,7.2-7.7c3.1,4,5,9.1,7.1,14C62.7,97.5,57.6,95.1,53.3,92.6"/>
	<path class="st18" d="M70.7,122.1c-0.1,3,0.3,7.9,0.4,11.1c2,0,2.9-0.4,4.4-0.9c0.2-3.7-1.2-7.2-1.6-10.6
		C73.1,121.4,71.7,122.2,70.7,122.1L70.7,122.1z M39.4,104.9c1.3,12.2,3.2,22.4,6.8,33.2c7.8,2.4,17.2,2.6,24.1,0.4
		c-1.3-6.1-0.7-13.5-1.5-20c-0.6-4.9-0.3-9.8-1.1-14.8C59.4,102.1,47.6,103.4,39.4,104.9L39.4,104.9z M69.8,103.9
		c-0.1,5.2,0.2,10.4,0.6,15.6c2-0.3,3.4-0.5,5.2-0.9c-0.6-5-0.5-10.7-1.8-15.2C72.5,103.5,71.2,103.4,69.8,103.9L69.8,103.9z
		 M80,103c-1-0.2-2.1,0-3,0c0.4,4.3,1.5,8.9,1.8,13.4c1.4,0,2.2-0.6,3.4-0.9C82.3,111.7,81.9,106.3,80,103L80,103L80,103z
		 M95.4,117.1c3-0.7,4.9-4.4,4-8.1c-0.6-2.5-1.5-7.3-2.6-8.9c-0.8-1.2-2.9-2.8-4.7-1.7c-2.8,1.8-7.7,2.3-9.7,4.5
		c1,3.4,1.3,8,1.7,12.3c3.5,0.2,7.7-1,10.6,0.3c-2,0.6-4.6,0.6-6.4,1.6C89.9,117.8,93.2,117.7,95.4,117.1L95.4,117.1L95.4,117.1z
		 M67.6,99c-2.1-4.9-4-10-7.1-14c-3,2-6.4,4-7.2,7.7C57.6,95.1,62.7,97.5,67.6,99L67.6,99z M72.8,83.7C72.6,88.6,72,95.1,70.7,99
		c3.1-4,5.7-8.6,8.3-13.2C77.9,84,75.5,82.4,72.8,83.7L72.8,83.7z M66.9,81.6c-1.2-0.1-2.2,1.4-3.7,0.7c-0.4,0.4-0.7,0.8-1.1,1.2
		c3.4,4.1,5,10,7.6,14.8c1.4-4.7,1.3-9.7,1.6-14.8C69.4,83.7,68.3,81.8,66.9,81.6L66.9,81.6z M63.2,76.6c-0.1,1.4,0.2,1.9,0.5,3.5
		C68.3,81.6,67.5,73.8,63.2,76.6L63.2,76.6z M58,74.9c-2-1.1-5-2.3-7.6-2.8c-3.2-0.6-2.9,4.4-2.8,7.3c0.1,2.3,1.3,4.8,1.9,6.4
		c0.2,0.7,0.3,1.5,0.9,1.7c1.1,0.2,4.7-1.2,5.7-1.7c2.2-1.2,3.9-3.1,5.7-4.4c0-0.6,0-1.3,0.1-1.9c-1.1-0.6-2.4-0.9-4-1
		c1.1-0.6,2.8-0.6,3.8-1.2c0-0.2,0-0.5,0-0.7C60,76.4,59.3,75.6,58,74.9L58,74.9z M39,71.5c-1.7,1.7,4.7,4,6.6,4.1
		c0-1.1,0.6-2.1,0.5-2.8C43.7,72.4,40.6,72.6,39,71.5L39,71.5z M59.4,72.3c0,0.2-0.2,0.1-0.2,0.2c2.1,1.7,3.7,2,6.6,1.9
		c1.3-0.9,2.5-2.1,3.8-3C66.4,71.7,62.5,73.7,59.4,72.3L59.4,72.3z M78.1,77.9c-0.1-1.9-0.6-5.7-1.7-6.4c-2.4-1.4-6.7,2.9-8.5,3.5
		c0.2,0.6,0.5,1,0.6,1.7c1.1-0.3,2.4-0.1,3.3,0.4c-1.1,0.1-2.3,0.1-3,0.6c-0.2,0.8,0.1,1.8-0.1,2.8c2.6,0.7,5.5,1.1,8.7,1.2
		C77.9,81.1,78.2,79.5,78.1,77.9L78.1,77.9z M36.2,73.1c-0.5-0.4-4-4.9-4.5-4.7c-6.4,2.5-12.3,6.8-17.6,11c5.1,10.9,7.1,24.2,7.5,37
		c5.8,2.7,10.9,6.6,18.8,7c-0.9-6.4-1.7-12.2-2.3-18.3c-2-0.9-4.8,0-6.7-0.2c0-2.2,2.8-1,3.1-2.5c0.2-1.1-1.6-1.2-1-3
		c1.5,0.5,2.2,1.7,3.8,2.1c1.4-3.1,0-8.5,0.2-11.1c0-0.5,0.2-2.7,1.3-2.3c1,0.3,0,5.9,0,8.3c0.1,2.3-0.3,4.4,0.6,5.8
		c7.6-1.1,15.3-1.7,23.6-1.9c-1.8-0.8-4-1.5-6.3-2.8c-1.3-0.7-5.3-2.2-5.7-3.4c-0.6-1.9,1.5-3,1.9-4.6c-3.8,2.1-4.6-2-5.5-4.9
		c-0.8-2.6-1.3-4.6-1.5-6.1C42.6,76.7,39,75.2,36.2,73.1L36.2,73.1L36.2,73.1z M74.7,68.9c5.3-2.6,6.3,9.6,4.2,13.5
		c0.3,1.2,1.4,1.6,1.9,2.7c-3,5.3-6.2,10.2-9.3,15.5c2.2-1.4,5.5-0.2,8.1-1.3c1-0.4,1.7-2.6,2.4-4.4c2-4.9,4.1-11,5.1-15.6
		c0.2-1.1,0.8-3.4,0.6-4.3c-0.2-1.7-2.5-3-3.7-4c-2.1-1.9-3.5-3.6-5.7-5.4C77.4,66.9,75.5,67.8,74.7,68.9L74.7,68.9L74.7,68.9z
		 M24.1,21.9c-2.5,2.8-2,8-1.7,11.7C27,30.7,33,33.9,33,38.7c2.2,0,0.8-2.7,0.4-4.5c-1.3-5.6,2.2-11.7,0.2-16.8
		C29.6,17.7,26.4,19.3,24.1,21.9L24.1,21.9L24.1,21.9z M42.1,5.8c-5.7,1.6-13,5.8-15.4,10.9c1.8-0.3,3.1-1.2,4.9-1.3
		c0.7,0,1.6,0.3,2.3,0.1c1.5-0.4,2.9-3.9,4-5.2c1.1-1.3,2.5-1.8,3.4-3C42.1,7.1,43,7.1,43,6.2C42.8,5.9,42.5,5.7,42.1,5.8L42.1,5.8z
		 M71.9,7.3c-6-3.4-16-5.9-22.3-2.7c-5.1,2.6-12,6.8-14.3,12.1c2.2,5.1-0.6,9.8-0.9,15.1c-0.1,2.8,1.3,5.2,1.4,8.2
		c-0.8,1.3-3,1.4-4.6,1.3c-0.5-2.7-1.5-5.7-4.2-6c-3.9-0.4-6.8,2.8-6.9,6.2c-0.2,4,3,10.5,7.7,10.1c1.8-0.2,2.2-1.9,4.2-1.9
		c1.1,2.1-1.6,2.8-1.9,4.3c-0.1,0.4,0.2,1.9,0.4,2.6c0.9,3.4,2.7,7.9,4.5,10.6c2.3,3.4,6.9,3.8,11.9,4.2c0.9-1.9,4.1-1.7,6.2-1.3
		c-2.6-1-4.9-3.4-6.8-5.6c-2.2-2.5-4.5-5.1-4.6-8.3c4.3,5.9,7.7,11,15.4,13.6c5.8,1.9,12.6-0.9,17.1-4c1.9-1.3,3-3.4,4.3-5.3
		c4.9-7.1,7.2-17.2,6.8-27.1c-0.2-4-0.2-8.1-1.6-10.8c-1.4-2.8-6.2-5.4-9.1-2.8C74,16.7,76.9,15,80.2,16
		C77.9,12.9,75.3,9.2,71.9,7.3L71.9,7.3L71.9,7.3z M83,98.8c4.7-2.3,13.3-6.2,16.2,0c1.1,2.3,2.3,6.2,2.9,8.5
		c0.8,3.3-0.9,10.4-4.3,11.5c-3,1-6.6,0.9-10.2,0.2c-0.4-0.4-0.9-1-1.3-1.6c-2.6-0.1-5.1,0.1-7.1,1.2c0.2,1.9-1.1,2.2-2.3,2.6
		c-0.9,3.6,1.8,8.3,1.2,11.5c-0.4,2.3-3.3,2.7-5.4,3.1c-0.1,1.3,0.1,2.4,0.2,3.5c-0.5,1.8-2.6,2.8-4.7,3c-6.8,0.8-17,1.2-23.5-1.2
		c-1.8-4.5-3.2-9.8-4.7-14.9c-6.3,0.7-11.5-2.7-16.3-5c-1.7-0.8-4-1.2-4.6-2.6c-0.6-1.3-0.4-3.8-0.5-6.1c-0.4-6-0.7-11.7-2.3-17.8
		c-0.7-2.8-1.9-5.1-2.8-7.8c-0.8-2.4-2.2-5.5-2.6-7.9c-0.5-3.6,2.9-3.8,5-5.4c3.4-2.4,6-3.8,9.6-6c1.1-0.6,4.3-2.3,4.7-3
		c0.7-1.5-1.3-3.6-1.8-4.8c-0.9-1.9-1.3-3.4-1.4-5.3c-3-0.5-5.4-2.3-6.8-4.3c-2.3-3.4-3.9-9.7-1.9-14.4c0.2-0.4,0.9-1.1,1.1-1.7
		c0.2-1.1-0.4-2.6-0.5-3.8c-0.2-6.2,1.1-11.5,5.2-13.4c1.7-6.8,7.8-9,13.5-12.3c2.1-1.3,4.5-2.1,6.9-3C53.3-1.3,66.7-0.7,74,4.8
		c3.1,2.3,8,7.2,9.7,10.8c4.7,9.4,4.3,25,1.1,36.4c-0.4,1.5-1.1,3.8-1.9,5.6c-0.6,1.3-2.5,3.8-2.3,5c0.2,1.2,4.4,4.3,5.3,5.1
		c1.6,1.5,4.6,3.6,4.9,5.5c0.3,2.1-0.9,4.9-1.5,6.9C87.2,86.8,85.2,92.9,83,98.8L83,98.8z"/>
	<path class="st23" d="M52,52.8c0.2-0.3,1.6-0.9,3.6,0.1c0,0-2.3,0.4-2.1,4.2l-1-0.2C52.6,57,51.5,53.5,52,52.8"/>
	<path class="st27" d="M68.8,85.7c0,0.6-0.5,1.1-1.1,1.1c-0.6,0-1.1-0.5-1.1-1.1s0.5-1.1,1.1-1.1C68.3,84.7,68.8,85.2,68.8,85.7"/>
	<path class="st27" d="M69.8,90.6c0,0.6-0.5,1.1-1.1,1.1s-1.1-0.5-1.1-1.1s0.5-1.1,1.1-1.1C69.4,89.6,69.8,90,69.8,90.6"/>
	<g transform="translate(0.992248, 367.131783)">
		<path class="st18" d="M13.7-214.6c-0.3,0-0.6,0.1-0.9,0.1c-0.2,0-0.5,0.1-0.8,0.2c-0.4,0.1-0.6,0.2-0.6,0.5
			c-0.1,0.2-0.2,0.5-0.2,0.8v9.9c0,0.9-0.2,1.7-0.6,2.5c-0.4,0.8-0.9,1.4-1.5,1.9c-0.6,0.5-1.4,0.9-2.2,1.1
			c-0.8,0.2-1.7,0.4-2.6,0.4c-1.6,0-2.8-0.4-3.8-1.1c-1-0.8-1.5-1.8-1.5-3.1c0-0.8,0.2-1.4,0.6-1.9c0.4-0.5,1.1-0.8,1.8-0.8
			c0.7,0,1.3,0.2,1.7,0.6s0.6,1,0.6,1.6c0,0.5-0.2,1.1-0.6,1.5c-0.4,0.4-0.8,0.9-1.3,1.3v0.2c0.1,0.2,0.2,0.3,0.5,0.4
			s0.5,0.2,0.8,0.2c1,0,1.8-0.4,2.4-1.1s0.9-1.8,0.9-3.3v-10.1c0-0.3,0-0.6-0.1-0.8c-0.1-0.2-0.3-0.4-0.7-0.5
			c-0.2-0.1-0.6-0.2-0.9-0.3c-0.4-0.1-0.6-0.1-0.9-0.2v-1h9.6v1H13.7z"/>
		<path class="st18" d="M28.7-200.6c-0.3,0.5-0.6,0.9-1.1,1.4c-0.4,0.4-0.9,0.8-1.4,1.1c-0.6,0.3-1.1,0.6-1.7,0.7s-1.3,0.2-2,0.2
			c-1.3,0-2.3-0.2-3.2-0.5c-0.9-0.4-1.7-0.8-2.2-1.4c-0.6-0.6-1-1.3-1.3-2.1c-0.3-0.8-0.4-1.7-0.4-2.6c0-0.9,0.2-1.7,0.5-2.5
			c0.3-0.8,0.8-1.5,1.3-2.1c0.6-0.6,1.3-1.1,2.2-1.5c0.9-0.4,1.9-0.6,2.9-0.6c1.2,0,2.1,0.2,2.9,0.4c0.8,0.3,1.4,0.7,1.9,1.2
			c0.5,0.5,0.8,1.1,1.1,1.7c0.2,0.6,0.3,1.3,0.3,2.1v0.8h-8.5c0,1.7,0.3,3,1,3.9c0.6,0.9,1.7,1.3,3.2,1.3c0.8,0,1.5-0.2,2.1-0.6
			c0.6-0.4,1.2-1,1.6-1.7L28.7-200.6L28.7-200.6z M23.9-205.5c0-0.5,0-1-0.1-1.5c0-0.5-0.1-1-0.3-1.3c-0.2-0.4-0.3-0.7-0.6-0.9
			c-0.2-0.2-0.6-0.3-0.9-0.3c-0.6,0-1.2,0.3-1.5,1c-0.4,0.6-0.6,1.7-0.6,3.1L23.9-205.5L23.9-205.5z"/>
		<path class="st18" d="M46.5-197.6h-7.6v-0.9c0.2,0,0.4,0,0.6-0.1c0.2,0,0.4-0.1,0.5-0.1c0.2-0.1,0.3-0.2,0.4-0.4
			c0.1-0.2,0.1-0.4,0.1-0.8v-5.9c0-0.9-0.2-1.5-0.5-1.9s-0.8-0.6-1.4-0.6c-0.3,0-0.6,0-0.9,0.2c-0.3,0.1-0.6,0.2-0.9,0.4
			c-0.2,0.2-0.4,0.3-0.6,0.5c-0.2,0.2-0.3,0.3-0.4,0.5v6.8c0,0.3,0,0.5,0.1,0.7c0.1,0.2,0.2,0.4,0.4,0.4c0.1,0.1,0.3,0.2,0.5,0.2
			c0.2,0,0.4,0.1,0.6,0.1v0.9h-7.7v-0.9c0.2,0,0.4,0,0.6-0.1c0.2,0,0.4-0.1,0.6-0.1c0.3-0.1,0.4-0.2,0.6-0.4
			c0.1-0.2,0.2-0.4,0.2-0.8v-7.4c0-0.2-0.1-0.5-0.2-0.8c-0.1-0.2-0.3-0.4-0.5-0.6c-0.2-0.1-0.3-0.2-0.6-0.2
			c-0.2-0.1-0.5-0.1-0.8-0.1v-0.9l6-0.3l0.2,0.2v1.8h0c0.2-0.2,0.5-0.4,0.9-0.8c0.3-0.3,0.6-0.5,0.9-0.7c0.3-0.2,0.7-0.4,1.2-0.5
			c0.5-0.2,1.1-0.2,1.6-0.2c1.4,0,2.4,0.4,3.1,1.2s1,1.8,1,3.1v6.2c0,0.3,0,0.6,0.1,0.7c0.1,0.2,0.3,0.3,0.5,0.4
			c0.1,0,0.3,0.1,0.5,0.2c0.2,0,0.4,0.1,0.7,0.1L46.5-197.6L46.5-197.6z"/>
		<path class="st18" d="M64-197.6h-6c-0.7-1.3-1.4-2.4-2-3.3c-0.6-0.9-1.2-1.7-1.7-2.5l-0.7,0.6v2.8c0,0.3,0,0.6,0.1,0.7
			c0.1,0.2,0.2,0.3,0.5,0.4c0.2,0.1,0.3,0.1,0.5,0.2c0.2,0,0.4,0.1,0.6,0.1v0.9h-7.9v-0.9c0.2,0,0.4,0,0.6-0.1
			c0.2,0,0.4-0.1,0.6-0.1c0.3-0.1,0.4-0.2,0.6-0.4c0.1-0.2,0.2-0.4,0.2-0.8v-14.1c0-0.3-0.1-0.6-0.2-0.9c-0.1-0.3-0.3-0.5-0.5-0.7
			c-0.2-0.1-0.4-0.2-0.7-0.2c-0.3-0.1-0.6-0.1-0.9-0.1v-0.9l6.3-0.3l0.2,0.2v13c0.6-0.6,1.3-1.2,2.1-1.9s1.4-1.3,1.9-1.8
			c0.3-0.3,0.4-0.5,0.4-0.6c0-0.2,0-0.2,0-0.3c0-0.2-0.1-0.3-0.4-0.4s-0.6-0.2-1.2-0.3v-0.9h6.4v0.9c-0.9,0.2-1.5,0.4-1.9,0.6
			c-0.4,0.2-0.9,0.5-1.5,0.8c-0.4,0.2-0.7,0.5-1,0.7c-0.3,0.2-0.7,0.6-1.1,0.9c0.8,1.2,1.6,2.3,2.3,3.3c0.7,1,1.4,2.1,2.2,3.2
			c0.2,0.4,0.6,0.6,1,0.8c0.4,0.1,0.8,0.2,1.2,0.2v1H64z"/>
		<path class="st18" d="M72-197.6h-8v-0.9c0.2,0,0.4,0,0.6-0.1s0.4-0.1,0.5-0.1c0.3-0.1,0.4-0.2,0.6-0.4c0.1-0.2,0.2-0.4,0.2-0.8
			v-7.4c0-0.3-0.1-0.6-0.2-0.8c-0.1-0.2-0.3-0.4-0.5-0.5c-0.2-0.1-0.4-0.2-0.7-0.3c-0.3-0.1-0.6-0.2-0.9-0.2v-0.9l6.2-0.3l0.2,0.2
			v10c0,0.3,0.1,0.5,0.2,0.8c0.1,0.2,0.3,0.4,0.5,0.4c0.2,0.1,0.4,0.2,0.6,0.2s0.4,0.1,0.6,0.1L72-197.6L72-197.6z M70.2-214.9
			c0,0.6-0.2,1.2-0.7,1.6c-0.5,0.4-1.1,0.7-1.7,0.7c-0.7,0-1.3-0.2-1.8-0.7c-0.5-0.4-0.7-1-0.7-1.6c0-0.6,0.2-1.2,0.7-1.7
			c0.5-0.4,1.1-0.7,1.8-0.7s1.3,0.2,1.7,0.7C70-216.1,70.2-215.5,70.2-214.9L70.2-214.9z"/>
		<path class="st18" d="M89.9-197.6h-7.6v-0.9c0.2,0,0.4,0,0.6-0.1c0.2,0,0.4-0.1,0.5-0.1c0.2-0.1,0.3-0.2,0.4-0.4
			c0.1-0.2,0.1-0.4,0.1-0.8v-5.9c0-0.9-0.2-1.5-0.5-1.9c-0.3-0.4-0.8-0.6-1.4-0.6c-0.3,0-0.6,0-0.9,0.2c-0.3,0.1-0.6,0.2-0.9,0.4
			c-0.2,0.2-0.4,0.3-0.6,0.5c-0.2,0.2-0.3,0.3-0.4,0.5v6.8c0,0.3,0,0.5,0.1,0.7c0.1,0.2,0.2,0.4,0.4,0.4c0.1,0.1,0.3,0.2,0.5,0.2
			c0.2,0,0.4,0.1,0.6,0.1v0.9h-7.7v-0.9c0.2,0,0.4,0,0.6-0.1c0.2,0,0.4-0.1,0.6-0.1c0.3-0.1,0.4-0.2,0.6-0.4
			c0.1-0.2,0.2-0.4,0.2-0.8v-7.4c0-0.2-0.1-0.5-0.2-0.8c-0.1-0.2-0.3-0.4-0.5-0.6c-0.2-0.1-0.3-0.2-0.6-0.2
			c-0.2-0.1-0.5-0.1-0.8-0.1v-0.9l6-0.3l0.2,0.2v1.8h0c0.2-0.2,0.5-0.4,0.9-0.8c0.3-0.3,0.6-0.5,0.9-0.7c0.3-0.2,0.7-0.4,1.2-0.5
			c0.5-0.2,1.1-0.2,1.6-0.2c1.4,0,2.4,0.4,3.1,1.2c0.7,0.8,1,1.8,1,3.1v6.2c0,0.3,0,0.6,0.1,0.7c0.1,0.2,0.3,0.3,0.5,0.4
			c0.1,0,0.3,0.1,0.5,0.2c0.2,0,0.4,0.1,0.7,0.1L89.9-197.6L89.9-197.6z"/>
		<path class="st18" d="M96.9-197.2c-0.8,0-1.6-0.1-2.4-0.4c-0.8-0.2-1.4-0.5-1.8-0.8l-0.4,0.9h-1l-0.2-4.7h0.9
			c0.1,0.4,0.3,0.8,0.6,1.3c0.3,0.5,0.6,0.9,1,1.3c0.4,0.4,0.9,0.7,1.4,1c0.5,0.2,1.1,0.4,1.6,0.4c0.8,0,1.3-0.2,1.7-0.4
			c0.4-0.3,0.6-0.8,0.6-1.4c0-0.3-0.1-0.6-0.2-0.9c-0.2-0.2-0.4-0.4-0.7-0.6c-0.3-0.2-0.7-0.3-1.1-0.4c-0.4-0.1-0.9-0.2-1.5-0.4
			c-0.6-0.2-1.1-0.3-1.5-0.5c-0.4-0.2-0.9-0.4-1.3-0.8c-0.4-0.3-0.7-0.7-0.9-1.2c-0.2-0.4-0.3-1-0.3-1.7c0-1.2,0.5-2.1,1.5-2.9
			c1-0.7,2.3-1.1,3.9-1.1c0.8,0,1.5,0.1,2.1,0.2c0.6,0.2,1.2,0.3,1.6,0.5l0.3-0.7h1l0.2,4.3h-0.9c-0.3-0.9-0.8-1.6-1.5-2.3
			c-0.7-0.6-1.5-1-2.3-1c-0.6,0-1.2,0.1-1.5,0.4c-0.4,0.3-0.6,0.6-0.6,1.1c0,0.6,0.3,1.1,0.8,1.4c0.5,0.3,1.3,0.6,2.3,0.8
			c1.5,0.4,2.6,0.9,3.3,1.6c0.7,0.7,1.1,1.5,1.1,2.6c0,1.4-0.5,2.5-1.6,3.2C100.1-197.6,98.6-197.2,96.9-197.2L96.9-197.2z"/>
	</g>
</g>
</svg>
