<svg xmlns="http://www.w3.org/2000/svg" width="200" height="128">
	<g fill="#099cec">
		<path d="M24.583 57.898h6.038v5.489h-6.038zm7.135 0h6.038v5.489h-6.038zm7.136 0h6.038v5.489h-6.038zm7.135 0h6.038v5.489h-6.038zm7.136 0h6.038v5.489h-6.038zm-21.407-6.586h6.038v5.489h-6.038zm7.136 0h6.038v5.489h-6.038zm7.135 0h6.038v5.489h-6.038zm0-6.587h6.038v5.489h-6.038z"/>
		<path d="M77.145 59.593c-1.239-.834-4.495-1.19-6.862-.553a8.168 8.168 0 0 0-3.567-6.078l-.824-.553-.549.829a9.465 9.465 0 0 0-1.372 5.8 6.909 6.909 0 0 0 1.372 3.592 9.015 9.015 0 0 1-5.214 1.381H20.885c-.7 4.144.5 19.892 18.661 19.892 13.485 0 24.566-6.064 29.64-18.787 1.669.028 6.076.3 8.233-3.868.052-.07.549-1.1.549-1.1z" fill-rule="evenodd"/>
	</g>
	<path d="M35.384 76.423a34.062 34.062 0 0 1-10.307 1.733c3.359 2.8 9.344 8.087 19.211 5.069a15.325 15.325 0 0 1-8.904-6.802z" fill="#fff" fill-rule="evenodd"/>
	<path d="M34.884 75.456a14.866 14.866 0 0 1-11.179 1.407l.783 1.317a15.978 15.978 0 0 0 10.931-1.757c-.192-.318-.37-.635-.535-.967z" fill="#026fb6" fill-rule="evenodd"/>
	<ellipse cx="39.061" cy="72.819" rx="1.908" ry="1.921" fill="#fff"/>
	<path d="M39.348 72.279a.544.544 0 0 1 .214-.427 1.064 1.064 0 0 0-.5-.126 1.1 1.1 0 1 0 1.091 1.1c0-.021-.006-.042-.007-.063a.534.534 0 0 1-.253.071.551.551 0 0 1-.545-.555z" fill="#4d5c64"/>
	<path d="M76.987 59.5c-1.235-.829-4.612-1.217-6.868-.561l-.5.71C62.261 74.867 53.056 81.3 40.48 81.589c-13.715-.038-17.147-7.269-18.113-17.129h-2.2c-.282 4.144.776 19.384 19.081 19.384 13.5 0 24.617-6.05 29.749-18.759 1.674.028 6.339.028 8.4-4.144l.417-.884z" fill-rule="evenodd" opacity=".04"/>
	<g fill="#066da5">
		<path d="M25.681 58.996h.549v3.293h-.549zm1.646 0h.549v3.293h-.549zm1.647 0h.549v3.293h-.549zm3.842 0h.549v3.293h-.549zm1.647 0h.549v3.293h-.549zm1.646 0h.549v3.293h-.549zm3.843 0h.549v3.293h-.549zm1.646 0h.549v3.293h-.549zm1.647 0h.549v3.293h-.549zm3.842 0h.549v3.293h-.549zm1.647 0h.549v3.293h-.549zm1.646 0h.549v3.293h-.549zm3.842 0h.549v3.293h-.549zm1.647 0h.549v3.293h-.549zm1.647 0h.549v3.293h-.549zm-23.053-6.587h.549v3.293h-.549zm1.646 0h.549v3.293h-.549zm3.843 0h.549v3.293h-.549zm1.646 0h.549v3.293h-.549zm1.647 0h.549v3.293h-.549zm3.842 0h.549v3.293h-.549zm1.647 0h.549v3.293h-.549zm1.646 0h.549v3.293h-.549zm-1.646-6.586h.549v3.293h-.549zm-1.647 0h.549v3.293h-.549zm3.293 0h.549v3.293h-.549zm-17.564 6.586h.549v3.293h-.549z"/>
		<path d="m78 60.859.186-.384.084-.175.208-.433-1.219-.819c-1.319-.887-4.325-1.222-6.681-.771a8.924 8.924 0 0 0-3.733-5.849l-1.3-.87-.854 1.289A10 10 0 0 0 63.233 59a7.791 7.791 0 0 0 1.133 3.4 9.191 9.191 0 0 1-4.106.969V56.8h-7.135V43.627h-8.233v6.587H30.621V56.8h-7.136v6.575h-3.256l-.077.461a17.427 17.427 0 0 0 .065 5.028 19.909 19.909 0 0 0 2.255 6.836c3.044 5.465 8.575 8.675 16.883 8.675 14.136 0 24.964-6.527 30.005-18.78a11.141 11.141 0 0 0 4.213-.547A7.21 7.21 0 0 0 77.7 61.44c.057-.088.135-.24.3-.581zM53.125 57.9h6.037v5.478h-6.037zm-7.136-13.175h6.038v5.489h-6.038zm0 6.587h6.038V56.8h-6.038zm0 6.586h6.038v5.478h-6.038zm-7.135-6.586h6.038V56.8h-6.038zm0 6.586h6.038v5.478h-6.038zm-7.136-6.586h6.038V56.8h-6.038zm0 6.586h6.038v5.477h-6.038zm-7.135 0h6.038v5.477h-6.038zm52.424 2.489c-.068.138-.125.255-.17.343-.024.047-.043.085-.1.18A6.117 6.117 0 0 1 73.211 64a10.349 10.349 0 0 1-3.923.483L69 64.481l-.378-.007-.14.353c-4.8 12.041-15.287 18.441-29.13 18.441-7.913 0-13.077-3-15.926-8.11a18.829 18.829 0 0 1-2.126-6.453 17.514 17.514 0 0 1-.132-4.224H60.26v-.011a9.4 9.4 0 0 0 5.227-1.49l.45-.349-.362-.441a6.32 6.32 0 0 1-1.249-3.3 8.888 8.888 0 0 1 1.283-5.439l.244-.367.35.235a7.609 7.609 0 0 1 3.341 5.659l.037.68.653-.176c2.137-.576 5.267-.295 6.415.478l.424.285z"/>
	</g>
	<path d="M95.938 55.426a1.484 1.484 0 0 0-1.1.439 1.512 1.512 0 0 0-.435 1.109V64.4a8.213 8.213 0 0 0-11.012.61 8.394 8.394 0 0 0 0 11.789 8.2 8.2 0 0 0 11.675 0 8.009 8.009 0 0 0 2.418-5.895v-13.93a1.486 1.486 0 0 0-.45-1.109 1.514 1.514 0 0 0-1.096-.439zM94 72.923a5.375 5.375 0 0 1-1.1 1.66 5.254 5.254 0 0 1-1.644 1.131 5.135 5.135 0 0 1-4.054 0 5.208 5.208 0 0 1-1.642-1.124 5.33 5.33 0 0 1-1.1-1.659 5.263 5.263 0 0 1 0-4.049 5.347 5.347 0 0 1 1.1-1.66A5.205 5.205 0 0 1 87.2 66.1a5.135 5.135 0 0 1 4.054 0 5.221 5.221 0 0 1 1.644 1.131A5.358 5.358 0 0 1 94 68.889a5.213 5.213 0 0 1 0 4.034zm69.416-7.911a8.2 8.2 0 0 0-11.676 0 8.394 8.394 0 0 0 0 11.789 8.2 8.2 0 0 0 11.233.416 1.552 1.552 0 0 0 .443-1.116 1.511 1.511 0 0 0-.435-1.109 1.481 1.481 0 0 0-1.1-.439 1.6 1.6 0 0 0-1.017.387 4.869 4.869 0 0 1-1.5.893 5.133 5.133 0 0 1-1.784.3 5.068 5.068 0 0 1-1.644-.268 5.285 5.285 0 0 1-1.445-.752 5.18 5.18 0 0 1-1.142-1.161 5.08 5.08 0 0 1-.737-1.5h11.675a1.513 1.513 0 0 0 1.1-.439 1.487 1.487 0 0 0 .449-1.109 8.4 8.4 0 0 0-.6-3.207 8.094 8.094 0 0 0-1.821-2.685zm-10.806 4.346a4.845 4.845 0 0 1 .722-1.5 5.151 5.151 0 0 1 1.15-1.161 5.364 5.364 0 0 1 1.459-.751 5.092 5.092 0 0 1 1.637-.268 5.022 5.022 0 0 1 1.629.268 5.282 5.282 0 0 1 1.445.751 5.363 5.363 0 0 1 1.149 1.161 4.992 4.992 0 0 1 .745 1.5zm26.978-5.745a2.9 2.9 0 0 0-1.039-.633 6.062 6.062 0 0 0-1.371-.32 11.846 11.846 0 0 0-1.393-.089 7.993 7.993 0 0 0-2.772.476 8.421 8.421 0 0 0-2.4 1.37v-.3a1.5 1.5 0 0 0-.449-1.094 1.469 1.469 0 0 0-1.084-.454 1.543 1.543 0 0 0-1.548 1.548v13.577a1.543 1.543 0 0 0 1.548 1.548 1.473 1.473 0 0 0 1.084-.454 1.5 1.5 0 0 0 .449-1.094v-6.788a5.141 5.141 0 0 1 .406-2.039 5.276 5.276 0 0 1 1.105-1.66 5.212 5.212 0 0 1 1.644-1.116 5.017 5.017 0 0 1 2.02-.409 5.379 5.379 0 0 1 2.019.372 1.64 1.64 0 0 0 .649.164 1.54 1.54 0 0 0 .6-.119 1.468 1.468 0 0 0 .486-.335 1.726 1.726 0 0 0 .332-.5 1.5 1.5 0 0 0 .125-.61 1.39 1.39 0 0 0-.412-1.041zm-57.525 3.594a5.3 5.3 0 0 1 1.651-1.116 5.017 5.017 0 0 1 2.02-.409 4.839 4.839 0 0 1 1.8.327 5.649 5.649 0 0 1 1.578.968 1.553 1.553 0 0 0 1 .357 1.466 1.466 0 0 0 1.1-.447 1.607 1.607 0 0 0-.095-2.292 7.821 7.821 0 0 0-5.381-2.024 7.919 7.919 0 0 0-5.838 2.441 8.394 8.394 0 0 0 0 11.789 8.183 8.183 0 0 0 11.219.416 1.577 1.577 0 0 0 .486-1.146 1.512 1.512 0 0 0-.435-1.109 1.484 1.484 0 0 0-1.1-.439 1.639 1.639 0 0 0-.973.328 5.326 5.326 0 0 1-1.563.96 4.94 4.94 0 0 1-1.8.32 5.017 5.017 0 0 1-2.02-.41 5.284 5.284 0 0 1-1.651-1.116 5.248 5.248 0 0 1 0-7.4zm25.593-3.088a1.468 1.468 0 0 0-.125-.6 1.756 1.756 0 0 0-.332-.5 1.447 1.447 0 0 0-.487-.335 1.532 1.532 0 0 0-.6-.119 1.488 1.488 0 0 0-.826.238l-8.815 5.79V56.989a1.517 1.517 0 0 0-.45-1.109 1.473 1.473 0 0 0-1.084-.454 1.49 1.49 0 0 0-1.1.454 1.516 1.516 0 0 0-.449 1.109v20.69a1.521 1.521 0 0 0 .449 1.1 1.474 1.474 0 0 0 1.1.462 1.458 1.458 0 0 0 1.084-.462 1.522 1.522 0 0 0 .45-1.1v-5.374l1.8-1.19 6.811 7.725a1.419 1.419 0 0 0 1.032.4 1.532 1.532 0 0 0 .6-.119 1.462 1.462 0 0 0 .487-.335 1.747 1.747 0 0 0 .332-.5 1.46 1.46 0 0 0 .125-.595 1.583 1.583 0 0 0-.428-1.087l-6.339-7.2 6.177-4.049a1.391 1.391 0 0 0 .587-1.236zm-34.321.893a8.2 8.2 0 0 0-11.675 0 8.394 8.394 0 0 0 0 11.789 8.2 8.2 0 0 0 11.675 0 8.009 8.009 0 0 0 2.418-5.895 8.644 8.644 0 0 0-.612-3.2 8.186 8.186 0 0 0-1.807-2.694zm-1.069 7.911a5.375 5.375 0 0 1-1.105 1.66 5.254 5.254 0 0 1-1.644 1.131 5.135 5.135 0 0 1-4.054 0 5.2 5.2 0 0 1-1.636-1.124 5.33 5.33 0 0 1-1.1-1.659 5.263 5.263 0 0 1 0-4.049 5.347 5.347 0 0 1 1.1-1.66 5.194 5.194 0 0 1 1.636-1.123 5.135 5.135 0 0 1 4.054 0 5.221 5.221 0 0 1 1.644 1.131 5.358 5.358 0 0 1 1.105 1.659 5.213 5.213 0 0 1 0 4.034z" fill="#066da5"/>
</svg>
