<svg xmlns="http://www.w3.org/2000/svg" height="222.4" width="433.28" xml:space="preserve">
	<path style="fill:#65a6df;fill-opacity:1;fill-rule:nonzero;stroke:none" d="M2537.11 1661.52h-60.35s-81.76 1.17-97.58-2.27c-55.9-12.15-105.98-76.36-105.98-132.81 0-30.98 8.83-100.43 105.98-131.29.35-.22 97.58 0 97.58 0h60.35v266.37m-870.47-1365.7c-127.73 21.871-234.1 86.559-309.37 188.168-61.29 82.723-90.67 174.012-90.67 281.832 0 218.121 134.3 393.55 350.43 457.73 43.87 13.01 145.63 18.09 198.36 9.84 177.23-27.57 325.78-157.61 379.14-331.831 27.42-96.801 28.09-180.422 0-271.25-50.27-163.559-176.21-284.489-339.8-326.368-52.43-13.402-136.21-17.019-188.09-8.121Zm140.55 256.711c53.04 18.051 101.4 56.801 126.68 101.457 28.79 50.899 36.87 125.543 19.33 178.785-46.79 142.258-217.42 200.507-340.15 116.129-55.75-38.281-89.34-99.453-93.91-170.863-6.64-103.621 56.8-194.648 157.93-226.719 30.35-9.609 100.23-8.968 130.12 1.211zm541.01-250.609c-14.37 6.68-33.67 20.726-42.85 31.156-34.1 38.883-32.81 87.313-32.81 434.414 0 338.598-.9 385.858 28.44 424.338 7.54 9.84 24.76 24.41 38.28 32.38 21.44 12.58 30.12 14.5 66.79 14.5 37.86 0 44.81-1.64 67.78-15.85 34.1-21.11 53.87-51.42 60.19-92.47 3.09-19.97 3.6-33.64 3.6-386.531 0-323.711.62-371.898-33.09-411.898-34.49-40.91-104.22-54.313-156.33-30.039zm356.76-5.133c-30.35 10.82-59.45 33.492-71.68 59.852-11.05 23.937-8.87 76.05-9.57 314.843v990.776h129.18s372.31 3.44 388.13 0c55.86-12.15 105.93-76.33 105.93-132.81 0-30.98-20.62-73.21-45.93-94.06-38.13-31.45-47.19-34.89-157.62-37.86h-160V667.57c0-244.679 2.5-297.332-8.52-318.32-10.15-19.371-35.08-40.039-58.98-49.012-27.66-12.59-80.78-14.226-110.94-3.449" transform="matrix(.13333 0 0 -.13333 0 222.4)"/>
	<path style="fill:#65a6df;fill-opacity:1;fill-rule:nonzero;stroke:none" d="M93.2 297.301c-13.669 4.961-34.098 19.371-50 35.269C-2.93 378.711 0 335.891.04 968.082c.08 602.338-.662 586.248 29.14 627.808 19.34 27 54.61 49.61 88.672 56.88 34.878 7.42 414.847 7.81 492.617.52 294.73-27.67 535.621-232.55 607.301-516.58 84.38-334.413-104.06-685.429-432.969-806.401-95.192-35-222.262-37.887-456.52-39.731-84.371 1.293-183.941-5.59-235.082 6.723m495.082 262.187c157.028 13 278.867 90.313 342.969 217.614 63.828 126.679 59.41 305.468-10.66 432.068-28.402 51.33-96.762 117.44-150 144.97-77.781 40.31-99.379 46.91-262.231 46.71l-242.968 2.31V557.738c5.16-5.168 253.672-4 322.89 1.75" transform="matrix(.13333 0 0 -.13333 0 222.4)"/>
	<path style="fill:#65a6df;fill-opacity:1;fill-rule:nonzero;stroke:none" d="M23.629 25.23c0-7.808 6.25-13.91 14.223-13.91 7.808 0 13.906 6.102 13.906 13.91v134.532c0 7.808-6.098 13.91-13.906 13.91-7.973 0-14.223-6.102-14.223-13.91V25.231" transform="matrix(.13333 0 0 -.13333 0 222.4)"/>
	<path style="fill:#65a6df;fill-opacity:1;fill-rule:nonzero;stroke:none" d="M178.32 25.07c0-7.648 6.09-13.75 13.91-13.75 7.5 0 13.75 6.102 13.75 13.75v101.571l82.34-106.72c3.91-5 7.969-8.433 14.688-8.433h1.094c7.808 0 13.75 6.243 13.75 13.903v134.531c0 7.648-6.25 13.75-14.063 13.75-7.5 0-13.59-6.102-13.59-13.75V61.641l-80.16 103.597c-3.91 4.832-7.809 8.274-14.531 8.274h-2.969c-8.129 0-14.219-6.41-14.219-14.223V25.07" transform="matrix(.13333 0 0 -.13333 0 222.4)"/>
	<path style="fill:#65a6df;fill-opacity:1;fill-rule:nonzero;stroke:none" d="M481.68 25.23c0-7.808 6.41-13.91 14.062-13.91 7.809 0 14.219 6.102 14.219 13.91v121.258h39.059c7.191 0 12.82 5.934 12.82 12.973 0 7.18-5.629 13.109-12.82 13.109H442.77c-7.34 0-13.122-5.929-13.122-13.109 0-7.039 5.782-12.973 13.122-12.973h38.91V25.231" transform="matrix(.13333 0 0 -.13333 0 222.4)"/>
	<path style="fill:#65a6df;fill-opacity:1;fill-rule:nonzero;stroke:none" d="M688.281 12.422H782.5c6.879 0 12.5 5.469 12.5 12.648 0 6.72-5.621 12.5-12.5 12.5h-80.312v42.97h68.75c6.875 0 12.652 5.472 12.652 12.35 0 7.18-5.777 12.821-12.652 12.821h-68.75v41.711h79.062c6.871 0 12.66 5.469 12.66 12.5 0 6.867-5.789 12.648-12.66 12.648h-92.969c-8.121 0-14.222-6.25-14.222-14.218V26.641c0-7.97 6.101-14.22 14.222-14.22" transform="matrix(.13333 0 0 -.13333 0 222.4)"/>
	<path style="fill:#65a6df;fill-opacity:1;fill-rule:nonzero;stroke:none" d="M910.742 25.23c0-7.808 6.098-13.91 14.219-13.91 7.66 0 13.906 6.102 13.906 13.91v42.98h35.473l38.9-49.538c3.13-4.383 7.19-7.352 13.6-7.352 6.87 0 13.59 5.168 13.59 12.97 0 4.382-1.88 7.35-4.53 10.78l-30.78 38.602c21.56 6.719 36.4 22.18 36.4 47.816v.473c0 14.051-4.84 25.93-13.28 34.527-10.31 10.153-26.09 16.082-46.092 16.082h-57.187c-8.121 0-14.219-6.25-14.219-14.218V25.231m28.125 67.98v53.75h40.934c20.789 0 33.129-9.391 33.129-26.57v-.469c0-16.25-12.81-26.711-32.969-26.711h-41.094" transform="matrix(.13333 0 0 -.13333 0 222.4)"/>
	<path style="fill:#65a6df;fill-opacity:1;fill-rule:nonzero;stroke:none" d="M1159.49 25.07c0-7.648 6.1-13.75 13.91-13.75 7.5 0 13.75 6.102 13.75 13.75v101.571l82.34-106.72c3.91-5 7.97-8.433 14.69-8.433h1.09c7.82 0 13.75 6.243 13.75 13.903v134.531c0 7.648-6.25 13.75-14.06 13.75-7.5 0-13.59-6.102-13.59-13.75V61.641l-80.16 103.597c-3.91 4.832-7.81 8.274-14.53 8.274h-2.97c-8.12 0-14.22-6.41-14.22-14.223V25.07" transform="matrix(.13333 0 0 -.13333 0 222.4)"/>
	<path style="fill:#65a6df;fill-opacity:1;fill-rule:nonzero;stroke:none" d="M1412.38 24.29c0-7.33 5.78-12.97 13.13-12.97 5.94 0 10.78 3.14 12.97 8.918l13.59 30.774h77.81l12.97-29.84c2.5-5.934 7.03-9.852 13.75-9.852 7.5 0 13.28 5.942 13.28 13.442 0 1.879-.47 3.91-1.72 5.949l-59.37 132.641c-3.28 7.187-8.75 11.41-16.72 11.41h-1.41c-7.96 0-13.75-4.223-16.87-11.41l-59.53-132.641c-1.1-2.36-1.88-4.39-1.88-6.422m50.47 51.723 28.13 64.699 28.12-64.7h-56.25" transform="matrix(.13333 0 0 -.13333 0 222.4)"/>
	<path style="fill:#65a6df;fill-opacity:1;fill-rule:nonzero;stroke:none" d="M1704.45 25.23c0-7.808 6.41-13.91 14.07-13.91 7.81 0 14.21 6.102 14.21 13.91v121.258h39.07c7.18 0 12.81 5.934 12.81 12.973 0 7.18-5.63 13.109-12.81 13.109h-106.25c-7.35 0-13.13-5.929-13.13-13.109 0-7.039 5.78-12.973 13.13-12.973h38.9V25.231" transform="matrix(.13333 0 0 -.13333 0 222.4)"/>
	<path style="fill:#65a6df;fill-opacity:1;fill-rule:nonzero;stroke:none" d="M1898.4 25.23c0-7.808 6.25-13.91 14.22-13.91 7.81 0 13.9 6.102 13.9 13.91v134.532c0 7.808-6.09 13.91-13.9 13.91-7.97 0-14.22-6.102-14.22-13.91V25.231" transform="matrix(.13333 0 0 -.13333 0 222.4)"/>
	<path style="fill:#65a6df;fill-opacity:1;fill-rule:nonzero;stroke:none" d="M2129.49 9.602c49.06 0 83.91 37.82 83.91 82.82v.469c0 45.148-34.38 82.347-83.44 82.347-49.22 0-84.06-37.668-84.06-82.816v-.461c0-45 34.37-82.36 83.59-82.36m.47 26.11c-31.87 0-54.53 25.61-54.53 56.71v.47c0 31.097 22.19 56.57 54.06 56.57 31.72 0 54.38-25.789 54.38-57.04v-.46c0-31.11-22.19-56.25-53.91-56.25" transform="matrix(.13333 0 0 -.13333 0 222.4)"/>
	<path style="fill:#65a6df;fill-opacity:1;fill-rule:nonzero;stroke:none" d="M2330.9 25.07c0-7.648 6.09-13.75 13.9-13.75 7.5 0 13.75 6.102 13.75 13.75v101.571l82.35-106.72c3.9-5 7.97-8.433 14.69-8.433h1.09c7.81 0 13.75 6.243 13.75 13.903v134.531c0 7.648-6.25 13.75-14.06 13.75-7.5 0-13.6-6.102-13.6-13.75V61.641l-80.15 103.597c-3.91 4.832-7.82 8.274-14.53 8.274h-2.97c-8.13 0-14.22-6.41-14.22-14.223V25.07" transform="matrix(.13333 0 0 -.13333 0 222.4)"/>
	<path style="fill:#65a6df;fill-opacity:1;fill-rule:nonzero;stroke:none" d="M2583.75 24.29c0-7.33 5.78-12.97 13.13-12.97 5.93 0 10.78 3.14 12.96 8.918l13.6 30.774h77.81l12.97-29.84c2.5-5.934 7.03-9.852 13.75-9.852 7.5 0 13.28 5.942 13.28 13.442 0 1.879-.47 3.91-1.72 5.949l-59.37 132.641c-3.28 7.187-8.75 11.41-16.72 11.41h-1.41c-7.97 0-13.75-4.223-16.87-11.41l-59.53-132.641c-1.1-2.36-1.88-4.39-1.88-6.422m50.47 51.723 28.12 64.699 28.13-64.7h-56.25" transform="matrix(.13333 0 0 -.13333 0 222.4)"/>
	<path style="fill:#65a6df;fill-opacity:1;fill-rule:nonzero;stroke:none" d="M2854.77 26.64c0-7.968 6.09-14.218 14.21-14.218h86.41c7.03 0 12.81 5.789 12.81 12.808 0 7.032-5.78 12.81-12.81 12.81h-72.5v121.722c0 7.808-6.25 13.91-13.91 13.91-8.12 0-14.21-6.102-14.21-13.91V26.641" transform="matrix(.13333 0 0 -.13333 0 222.4)"/>
</svg>
