<svg version="1.1" id="图层_1" xmlns="http://www.w3.org/2000/svg" x="0" y="0" viewBox="0 0 259.65 230.53" style="enable-background:new 0 0 259.65 230.53" xml:space="preserve">
	<style>
		.st0{fill:#85cdf0}.st1{fill:#0097e0}.st2{fill:#282828}
	</style>
	<path class="st0" d="M163.4 108.9h-60.11c-8.15 0-14.83 7.1-14.83 15.77 0 3.28.95 6.33 2.58 8.86 1.17-.29 2.32-.7 3.44-1.23l.1-.05.1-.04c3.83-1.54 8.32-5.03 11-7.11.66-.51 1.23-.95 1.67-1.28.43-.32.9-.7 1.4-1.1 2.32-1.88 5.51-4.44 9.98-5.05.88-.12 1.75-.18 2.59-.18 3.97 0 7.37 1.31 9.74 3.69.7-.39 1.43-.82 2.11-1.21 1.04-.6 2.02-1.17 2.88-1.64.9-.48 1.94-.74 3.01-.74 2.52 0 4.77 1.35 5.89 3.52.73 1.42 1.58 4.45-.96 8.68-.49.81-1.01 1.72-1.56 2.68-1.31 2.3-2.84 4.97-4.89 7.96h25.85c8.15 0 14.83-7.1 14.83-15.77 0-8.66-6.67-15.76-14.82-15.76z"/>
	<path class="st1" d="M68.7 87.35h3.79c2.17 0 3.79-1.73 3.79-4.03 0-2.3-1.62-4.03-3.79-4.03H68.7c-8.12 0-14.62-6.91-14.62-15.56 0-8.45 6.21-15.24 14.08-15.54v8.63L78.99 45.3 68.16 33.2v6.93c-11.68.31-21.66 10.56-21.66 23.61-.01 13.24 9.74 23.61 22.2 23.61z"/>
	<path class="st1" d="M196.42 80.44h-3.79c-2.17 0-3.79 1.73-3.79 4.03 0 2.3 1.62 4.03 3.79 4.03h3.79c8.12 0 14.62 6.91 14.62 15.56 0 8.45-6.21 15.24-14.08 15.54v-8.63l-10.83 11.52 10.83 12.1v-6.93c11.68-.31 21.66-10.56 21.66-23.61.01-13.24-9.74-23.61-22.2-23.61z"/>
	<path class="st0" d="M163.4 67.46h-60.11c-8.15 0-14.83 7.1-14.83 15.77S95.13 99 103.29 99h60.11c8.15 0 14.83-7.1 14.83-15.77s-6.68-15.77-14.83-15.77z"/>
	<path class="st0" d="M163.4 26.02h-60.11c-8.15 0-14.83 7.1-14.83 15.77s6.67 15.77 14.83 15.77h60.11c8.15 0 14.83-7.1 14.83-15.77-.01-8.67-6.68-15.77-14.83-15.77z"/>
	<path class="st1" d="M122.84 162.79c.9 5.4-1.59 3.92-3.5 2.6-1.22-.86-4.54-2.84-6.76-4.14 2.98-1.63 5.76-3.58 8.01-5.31 1.03 2.15 1.87 4.47 2.25 6.85zm-4.4-32.22c-.44 0-.8.38-.8.85s.36.85.8.85.8-.38.8-.85-.36-.85-.8-.85zm22.51-2.85c-3.26 5.39-6.87 13.45-17.88 23.63-2.52 2.29-7.38 6.04-12.47 8.64-1.75.91-3.87 1.69-6.19 2.25 1.38-2.47 2.34-4.98 2.71-7.39l-1.18-.2c-2.69 9.36-9.31 17.18-17.64 20.08-4.93 1.72-3.98-1.38-3.06-3.79.7-1.79 2.67-9.72 3.61-13.6l-1.49-.39s-.14.7-.41 1.78c-.2.87-.47 1.98-.75 3.19-4.76-1.45-9.32-4.12-12.99-8.47-5.25-6.26-7.59-12.7-8.49-23.63-.25-2.94-3.06-5.59-6.31-9.42-3.78-4.47-3.74-11.05-1.62-11.52 1.71-.36 9.57 3.66 12.54 5.68 2.99-2.57 7.85-6.33 9.3-5.17 1.09.88 1.48 4.92-1.45 11.05-5.97 12.5 2.26 16.23 4.16 16.73 3.61.95 8.84 1.4 14.62-1.35 5.25-2.12 11.16-7.15 13.46-8.84 2.57-1.91 5.42-4.9 9.76-5.48 5.01-.67 9.06.98 10.85 4.51 2.22-1 5.46-3.06 7.66-4.23 2.05-1.1 6.49.57 3.26 5.94zm-20.98 4.42c0-1.26-.96-2.28-2.14-2.28s-2.15 1.02-2.15 2.28.96 2.28 2.15 2.28 2.14-1.01 2.14-2.28z"/>
	<path class="st2" d="M55.4 185.46h5.64c1.91 0 3.4.7 4.45 2.09.94 1.26 1.41 2.87 1.41 4.83 0 1.52-.28 2.89-.83 4.11-.98 2.17-2.66 3.25-5.05 3.25H55.4v-14.28zm5.26 12.63c.63 0 1.15-.07 1.56-.2.73-.25 1.32-.74 1.78-1.46.37-.58.64-1.32.8-2.22.09-.54.14-1.04.14-1.5 0-1.77-.34-3.14-1.02-4.12-.68-.98-1.77-1.47-3.28-1.47h-3.31v10.97h3.33z"/>
	<path class="st2" d="M76.74 190.37c.91.89 1.36 2.21 1.36 3.94 0 1.68-.4 3.06-1.2 4.16-.8 1.09-2.04 1.64-3.73 1.64-1.41 0-2.52-.48-3.35-1.45-.83-.97-1.24-2.27-1.24-3.9 0-1.75.44-3.14 1.31-4.18.87-1.04 2.04-1.55 3.51-1.55 1.31 0 2.43.45 3.34 1.34zm-1.08 6.92c.42-.88.63-1.85.63-2.93 0-.97-.15-1.76-.46-2.37-.48-.96-1.31-1.44-2.49-1.44-1.04 0-1.8.41-2.28 1.22-.47.82-.71 1.8-.71 2.95 0 1.11.24 2.03.71 2.77.47.74 1.23 1.11 2.26 1.11 1.14.01 1.92-.43 2.34-1.31z"/>
	<path class="st2" d="M80.27 185.46H82v14.29h-1.73v-14.29z"/>
	<path class="st2" d="M84.45 189.38h1.69v1.38c.35-.47.73-.84 1.14-1.1.58-.39 1.27-.58 2.06-.58 1.17 0 2.16.45 2.98 1.36.82.9 1.22 2.2 1.22 3.88 0 2.27-.59 3.89-1.76 4.86-.75.62-1.61.92-2.6.92-.78 0-1.43-.17-1.96-.52-.31-.19-.65-.53-1.03-1v5.32h-1.73v-14.52zm6.5 8.17c.54-.68.8-1.71.8-3.07 0-.83-.12-1.54-.36-2.14-.45-1.15-1.27-1.72-2.47-1.72-1.2 0-2.02.61-2.47 1.82-.24.65-.36 1.47-.36 2.47 0 .8.12 1.49.36 2.05.45 1.08 1.27 1.61 2.47 1.61.82 0 1.49-.34 2.03-1.02z"/>
	<path class="st2" d="M95.53 185.41h1.73v5.33c.41-.52.78-.89 1.1-1.11.56-.37 1.25-.55 2.08-.55 1.49 0 2.5.53 3.03 1.59.29.58.43 1.38.43 2.4v6.68h-1.78v-6.56c0-.77-.1-1.33-.29-1.68-.31-.57-.9-.86-1.77-.86-.72 0-1.37.25-1.95.75-.58.5-.87 1.44-.87 2.83v5.52h-1.73v-14.34z"/>
	<path class="st2" d="M106.47 185.46h1.76v1.98h-1.76v-1.98zm0 3.92h1.76v10.37h-1.76v-10.37z"/>
	<path class="st2" d="M110.84 189.33h1.64v1.48c.49-.61 1-1.05 1.55-1.31.54-.27 1.15-.4 1.82-.4 1.46 0 2.45.52 2.96 1.55.28.56.42 1.37.42 2.42v6.68h-1.76v-6.56c0-.64-.09-1.15-.28-1.54-.31-.65-.86-.97-1.67-.97-.41 0-.75.04-1.01.13-.47.14-.89.43-1.25.86-.29.34-.48.7-.56 1.07-.09.37-.13.89-.13 1.57v5.46h-1.73v-10.44z"/>
	<path class="st2" d="M123.26 195.14c.04.81.22 1.47.55 1.97.61.95 1.69 1.42 3.23 1.42.69 0 1.32-.1 1.89-.31 1.1-.4 1.65-1.12 1.65-2.16 0-.78-.23-1.33-.7-1.66-.47-.32-1.21-.61-2.21-.85l-1.85-.44c-1.21-.29-2.07-.6-2.57-.94-.87-.6-1.3-1.49-1.3-2.67 0-1.28.43-2.34 1.28-3.16.85-.82 2.06-1.23 3.63-1.23 1.44 0 2.66.36 3.67 1.08 1.01.72 1.51 1.88 1.51 3.47h-1.8c-.09-.76-.29-1.35-.59-1.76-.56-.75-1.51-1.12-2.85-1.12-1.08 0-1.86.24-2.33.72s-.71 1.04-.71 1.67c0 .7.28 1.21.84 1.54.37.21 1.19.47 2.48.78l1.92.46c.92.22 1.64.52 2.14.9.87.67 1.3 1.64 1.3 2.91 0 1.58-.55 2.71-1.66 3.39-1.11.68-2.4 1.02-3.86 1.02-1.71 0-3.05-.45-4.02-1.36-.97-.9-1.44-2.12-1.42-3.67h1.78z"/>
	<path class="st2" d="M141.69 189.89c.73.57 1.16 1.55 1.31 2.95h-1.68c-.1-.64-.34-1.18-.7-1.6-.36-.42-.95-.64-1.76-.64-1.1 0-1.89.54-2.36 1.63-.31.71-.46 1.58-.46 2.61 0 1.04.22 1.92.65 2.63.44.71 1.12 1.07 2.06 1.07.72 0 1.29-.22 1.7-.66.42-.44.71-1.05.87-1.82H143c-.19 1.38-.67 2.39-1.44 3.03-.77.64-1.75.96-2.95.96-1.34 0-2.42-.5-3.22-1.49-.8-1-1.2-2.24-1.2-3.73 0-1.83.44-3.25 1.32-4.27.88-1.02 1.99-1.53 3.35-1.53 1.16 0 2.11.29 2.83.86z"/>
	<path class="st2" d="M144.73 185.41h1.73v5.33c.41-.52.78-.89 1.1-1.11.56-.37 1.25-.55 2.08-.55 1.49 0 2.5.53 3.03 1.59.29.58.43 1.38.43 2.4v6.68h-1.78v-6.56c0-.77-.1-1.33-.29-1.68-.31-.57-.9-.86-1.77-.86-.72 0-1.37.25-1.95.75-.58.5-.87 1.44-.87 2.83v5.52h-1.73v-14.34z"/>
	<path class="st2" d="M162.02 189.62c.68.35 1.2.8 1.56 1.35.34.52.57 1.14.69 1.84.1.48.15 1.24.15 2.3h-7.48c.03 1.06.28 1.91.73 2.55.46.64 1.17.96 2.12.96.9 0 1.61-.3 2.14-.91.3-.35.51-.76.63-1.22h1.7c-.04.38-.19.81-.45 1.28-.25.47-.54.85-.85 1.15-.52.52-1.17.87-1.93 1.05-.41.1-.88.16-1.4.16-1.27 0-2.35-.47-3.24-1.42-.88-.94-1.33-2.26-1.33-3.96 0-1.67.45-3.03 1.34-4.08.89-1.04 2.06-1.57 3.49-1.57.75 0 1.45.17 2.13.52zm.62 4.09c-.07-.76-.23-1.37-.49-1.82-.47-.84-1.25-1.26-2.35-1.26-.79 0-1.45.29-1.98.87-.53.58-.82 1.32-.85 2.21h5.67z"/>
	<path class="st2" d="M172.26 189.65c.31.19.65.53 1.04 1.02v-5.26h1.66v14.34h-1.56v-1.45c-.4.64-.88 1.11-1.43 1.39-.55.29-1.18.43-1.88.43-1.14 0-2.13-.49-2.97-1.46-.84-.98-1.25-2.27-1.25-3.9 0-1.52.38-2.83 1.14-3.94.76-1.11 1.85-1.67 3.27-1.67.79 0 1.45.17 1.98.5zm-3.86 7.81c.47.75 1.21 1.13 2.24 1.13.8 0 1.45-.35 1.96-1.05.51-.7.77-1.7.77-3 0-1.32-.26-2.29-.79-2.92-.53-.63-1.18-.95-1.96-.95-.87 0-1.57.34-2.11 1.01-.54.67-.81 1.67-.81 2.98 0 1.12.24 2.05.7 2.8z"/>
	<path class="st2" d="M179.28 189.33v6.91c0 .53.08.97.24 1.3.3.62.86.93 1.67.93 1.17 0 1.97-.54 2.39-1.63.23-.58.35-1.38.35-2.4v-5.12h1.73v10.42h-1.63l.02-1.54c-.22.4-.49.73-.82 1-.65.54-1.43.82-2.36.82-1.44 0-2.42-.5-2.94-1.49-.28-.53-.42-1.24-.42-2.13v-7.08h1.77z"/>
	<path class="st2" d="M188.54 185.46h1.73v14.29h-1.73v-14.29z"/>
	<path class="st2" d="M199.21 189.62c.68.35 1.2.8 1.56 1.35.34.52.57 1.14.69 1.84.1.48.15 1.24.15 2.3h-7.48c.03 1.06.28 1.91.73 2.55.46.64 1.17.96 2.12.96.9 0 1.61-.3 2.14-.91.3-.35.51-.76.63-1.22h1.7c-.04.38-.19.81-.45 1.28-.25.47-.54.85-.85 1.15-.52.52-1.17.87-1.93 1.05-.41.1-.88.16-1.4.16-1.27 0-2.35-.47-3.24-1.42s-1.33-2.26-1.33-3.96c0-1.67.45-3.03 1.34-4.08.89-1.04 2.06-1.57 3.49-1.57.75 0 1.45.17 2.13.52zm.62 4.09c-.07-.76-.23-1.37-.49-1.82-.47-.84-1.25-1.26-2.35-1.26-.79 0-1.45.29-1.98.87-.53.58-.82 1.32-.85 2.21h5.67z"/>
	<path class="st2" d="M203.84 189.33h1.64v1.8c.13-.35.46-.78.99-1.28s1.13-.75 1.82-.75c.03 0 .09 0 .16.01.08.01.21.02.39.04V191c-.1-.02-.2-.03-.28-.04-.09-.01-.18-.01-.28-.01-.87 0-1.54.28-2.01.85-.47.57-.7 1.22-.7 1.96v5.99h-1.73v-10.42z"/>
</svg>
