<svg xmlns="http://www.w3.org/2000/svg" width="200" height="128">
	<path d="M25.75 93.8a5.68 5.68 0 0 1-4.07-1.59 5.39 5.39 0 0 1 0-7.82 5.6 5.6 0 0 1 4.07-1.64 5.67 5.67 0 0 1 4.11 1.64 5.3 5.3 0 0 1 0 7.82 5.76 5.76 0 0 1-4.11 1.59M89.6 34.2h-9.15V72a54.44 54.44 0 0 0 .4 7.91h-.16c-.32-.66-1-1.86-2.15-3.61L52.1 34.2H41v58.7h9.19V54.42a62.34 62.34 0 0 0-.32-8.06h.24a19.24 19.24 0 0 0 1.71 3.39l27.4 43.15H89.6zm44.72 50.47h-22.64V67.32h19.68v-8.23h-19.68V42.47H133V34.2h-30.82v58.7h32.14zM180 34.2h-42.37v8.27H154V92.9h9.51V42.47H180z" fill="#5b27d9"/>
</svg>
