<svg version="1.1" id="layer" xmlns="http://www.w3.org/2000/svg" x="0" y="0" viewBox="0 0 500 612.2" style="enable-background:new 0 0 500 612.2" xml:space="preserve">
	<style>
		.st0{fill:#1e375a}
	</style>
	<switch>
		<g>
			<circle class="st0" cx="287.8" cy="186.7" r="68"/>
			<path class="st0" d="M225.3 95c17.8-12.2 39.3-19.3 62.5-19.3 61.2 0 111 49.8 111 111 0 22.5-6.8 43.5-18.3 61l73 71.8c13.5-28.9 21.1-61.1 21.1-95.1C474.5 100.5 374 0 250 0c-35.3 0-68.6 8.2-98.3 22.6L225.3 95z"/>
			<path class="st0" d="M350.3 278.3c-17.8 12.2-39.3 19.3-62.5 19.3-61.2 0-111-49.8-111-111 0-22.5 6.8-43.5 18.3-61L114 45.8c-53.8 41-88.5 105.7-88.5 178.6 0 124 100.5 224.5 224.5 224.5 74.1 0 139.9-36 180.7-91.4l-80.4-79.2z"/>
			<path class="st0" d="M77.7 562.2c0 15.8-4.4 27.8-13.1 36.2-8.8 8.3-21.4 12.5-37.8 12.5H0v-95.5h29.5c15.2 0 27 4.1 35.5 12.3s12.7 19.6 12.7 34.5zm-16.5.5c0-22.9-10.7-34.3-32.1-34.3H15.6v69.3h11.1c23 0 34.5-11.7 34.5-35z"/>
			<path class="st0" d="M133.2 537.3c3.1 0 5.6.2 7.6.7l-1.5 14.3c-2.2-.5-4.4-.8-6.8-.8-6.1 0-11.1 2-14.9 6-3.8 4-5.7 9.2-5.7 15.6v37.8H96.6v-72.2h12l2 12.7h.8c2.4-4.3 5.5-7.7 9.4-10.3 3.8-2.5 8-3.8 12.4-3.8z"/>
			<path class="st0" d="M218.3 574.6c0 11.8-3 21-9.1 27.6s-14.5 9.9-25.3 9.9c-6.8 0-12.7-1.5-17.9-4.6s-9.2-7.4-12-13.1-4.2-12.3-4.2-19.9c0-11.7 3-20.9 9-27.4 6-6.6 14.5-9.9 25.4-9.9 10.5 0 18.7 3.4 24.8 10.1 6.3 6.8 9.3 15.9 9.3 27.3zm-52.6 0c0 16.7 6.2 25 18.5 25 12.2 0 18.3-8.3 18.3-25 0-16.5-6.1-24.8-18.4-24.8-6.4 0-11.1 2.1-14 6.4-2.9 4.3-4.4 10.4-4.4 18.4z"/>
			<path class="st0" d="M299.5 610.8h-15.4v-44.4c0-5.6-1.1-9.7-3.4-12.5-2.2-2.7-5.8-4.1-10.7-4.1-6.5 0-11.2 1.9-14.2 5.7s-4.5 10.3-4.5 19.3v36H236v-72.2h12l2.2 9.5h.8c2.2-3.4 5.3-6.1 9.3-8 4-1.9 8.4-2.8 13.3-2.8 17.3 0 26 8.8 26 26.5v47z"/>
			<path class="st0" d="M352.4 612.2c-11.2 0-20-3.3-26.4-9.8-6.3-6.6-9.5-15.6-9.5-27.1 0-11.8 2.9-21.1 8.8-27.8 5.9-6.8 14-10.1 24.2-10.1 9.5 0 17.1 2.9 22.6 8.7 5.5 5.8 8.3 13.8 8.3 23.9v8.3h-48.1c.2 7 2.1 12.4 5.7 16.2s8.6 5.7 15.1 5.7c4.3 0 8.2-.4 11.9-1.2 3.7-.8 7.6-2.1 11.9-4v12.5c-3.7 1.8-7.5 3-11.4 3.8s-8.1.9-13.1.9zm-2.8-63.3c-4.9 0-8.8 1.5-11.7 4.6-2.9 3.1-4.7 7.6-5.3 13.5h32.8c-.1-6-1.5-10.5-4.3-13.6-2.8-2.9-6.6-4.5-11.5-4.5z"/>
			<path class="st0" d="M440.2 527.4c-9 0-16 3.2-21.2 9.5-5.1 6.4-7.7 15.1-7.7 26.3 0 11.7 2.5 20.6 7.4 26.6s12.1 9 21.5 9c4.1 0 8-.4 11.8-1.2 3.8-.8 7.7-1.8 11.8-3.1v13.4c-7.5 2.8-16 4.2-25.5 4.2-14 0-24.7-4.2-32.2-12.7-7.5-8.5-11.2-20.6-11.2-36.4 0-9.9 1.8-18.6 5.5-26.1 3.6-7.4 8.9-13.2 15.8-17.1 6.9-4 15-5.9 24.2-5.9 9.8 0 18.8 2 27 6.1l-5.6 13c-3.2-1.5-6.6-2.9-10.2-4-3.6-1.1-7.4-1.6-11.4-1.6z"/>
			<path class="st0" d="M484.4 610.8v-95.5H500v95.5h-15.6z"/>
		</g>
	</switch>
</svg>
