<svg data-name="图层 1" xmlns="http://www.w3.org/2000/svg" viewBox="0 0 321.39 78.54">
	<defs>
		<linearGradient id="a" x1="4.06" y1="39.27" x2="316.39" y2="39.27" gradientUnits="userSpaceOnUse">
			<stop offset="0" stop-color="#8953ff"/>
			<stop offset="1" stop-color="#00e0e3"/>
		</linearGradient>
	</defs>
	<path d="M68.46 50.38c0 14.06 11.39 22.11 25.45 22.11s25.45-8.05 25.45-22.11V7.25h-50.9Zm21.24-28h8.6V31h-8.6Zm0 22.25h8.6v8.6h-8.6ZM33.24 7.25H4.06v64h29.18c10.95 0 19.3-7.18 23.29-17.15a45.12 45.12 0 0 0 2.38-14.87 45.12 45.12 0 0 0-2.38-14.83C52.84 14.62 44.19 7.25 33.24 7.25Zm.43 14.63h-3.33a3.44 3.44 0 0 0-3.44 3.44v27.91a3.44 3.44 0 0 0 3.44 3.44h3.33v4.63h-8.3a6.87 6.87 0 0 1-6.87-6.87V24.12a6.87 6.87 0 0 1 6.87-6.87h8.3ZM285.51 6.06c-17.05 0-30.88 10.28-30.88 33.21s13.83 33.21 30.88 33.21 30.88-10.28 30.88-33.21-13.83-33.21-30.88-33.21Zm7.59 48.36a6.87 6.87 0 0 1-6.87 6.87h-8.3v-4.62h3.33a3.44 3.44 0 0 0 3.44-3.44V25.31a3.44 3.44 0 0 0-3.44-3.44h-3.33v-4.62h8.3a6.87 6.87 0 0 1 6.87 6.87Zm-53.4-17.56a17.39 17.39 0 0 0-12.39-29.61H195.1v64h32.21a19.44 19.44 0 0 0 12.38-34.44Zm-28.07 24.43h-6.08l18.68-44h6.08ZM177 36.85a17.39 17.39 0 0 0-12.35-29.6h-32.22v64h32.21A19.44 19.44 0 0 0 177 36.85Zm-28 24.44h-6.08l18.68-44h6.08Z" style="fill:url(#a)"/>
</svg>
