<svg xmlns="http://www.w3.org/2000/svg" width="200" height="128">
    <defs>
        <linearGradient id="a" x1="173.861" y1="115.868" x2="174.18" y2="115.663" gradientTransform="matrix(134.6 0 0 -179.664 -23380.001 20873.142)" gradientUnits="userSpaceOnUse">
            <stop offset="0"/>
            <stop offset="1" stop-color="#e6e7e8"/>
        </linearGradient>
        <linearGradient id="b" x1="174.189" y1="115.685" x2="174.42" y2="115.547" gradientTransform="matrix(202.7 0 0 -137.8 -35278.499 15976.8)" gradientUnits="userSpaceOnUse">
            <stop offset="0" stop-color="#939598"/>
            <stop offset="1"/>
        </linearGradient>
        <linearGradient id="c" x1="174.389" y1="115.785" x2="174.494" y2="115.687" gradientTransform="matrix(237 0 0 -236.7 -41280.9 27468.2)" gradientUnits="userSpaceOnUse">
            <stop offset="0" stop-color="#fefad8"/>
            <stop offset="1" stop-color="#fcee21"/>
        </linearGradient>
    </defs>
    <path d="M96.956 45.5q2.7.243 4.031.243.9 0 4.564-.121 3.692-.122 4.031-.122 10.562 0 15.078 4.031 4.539 4.007 4.54 12.043a18.17 18.17 0 0 1-4.9 13.062 16.438 16.438 0 0 1-12.479 5.147q-.972 0-5.706-.121t-5.1-.121q-1.335 0-4.055.242.414-5.826.413-13.766v-6.73q-.004-7.963-.417-13.787zm7.916 3.084q-.147 8.28-.146 10.586 0 7.236.146 17.627 2.063.171 4.249.17a11.147 11.147 0 0 0 8.983-3.836q3.278-3.861 3.278-11.485 0-6.141-3.108-9.736a10.248 10.248 0 0 0-8.182-3.593 45.764 45.764 0 0 0-5.22.263zM131.281 55.6q2.476.243 3.739.243 1.311 0 3.666-.243 2.307 6.07 5.924 15.66 4.347-11.315 5.536-15.66a15.547 15.547 0 0 0 1.943.243 9.715 9.715 0 0 0 2.111-.243q-3.52 8.474-9.76 23.381-3.084 7.454-5.439 14.01a14.553 14.553 0 0 0-2.137-.243 15.131 15.131 0 0 0-2.039.243q2.841-5.779 6.337-13.209-3.107-8.305-9.881-24.182zM157.347 79.779q.412-4.369.413-12.479 0-7.672-.413-11.7a31.526 31.526 0 0 0 3.472.243 29.566 29.566 0 0 0 3.715-.243q-.195 2.938-.195 4.152 3.182-4.662 7.722-4.662 7.72 0 7.72 9.542 0 .825-.1 4.152-.1 3.3-.1 3.787a65.343 65.343 0 0 0 .419 7.208q-1.992-.193-3.69-.242-1.263 0-3.812.242.411-4.975.412-10.513V66.45q0-6.993-4.1-6.993a3.567 3.567 0 0 0-3.326 1.87q-1.046 1.845-1.044 6.458 0 5.925.412 11.994-2.476-.243-3.763-.242-.999 0-3.742.242z"/>
    <g>
        <path d="M41.98 86.532a31.182 31.182 0 0 0 11.039-2.527 31.412 31.412 0 0 1-20.7-41.531 15.125 15.125 0 0 0-7.58 4.931 31.418 31.418 0 0 0-.05 33.092c2.65 3.631 11.677 6.28 17.295 6.035z" fill="url(#a)"/>
        <path d="M71.589 66.441a28.4 28.4 0 0 0 2.8-12.29c0-6.06-2.576-13.591-6.55-16.829a31.359 31.359 0 0 0-43.175 10.2 31.367 31.367 0 0 1 46.925 18.919z" fill="url(#b)"/>
        <path d="M67.836 37.3a28.757 28.757 0 0 1 4.784 16.434A31.424 31.424 0 0 1 41.2 85.158a31.016 31.016 0 0 1-16.51-4.685 31.42 31.42 0 0 0 58.14-16.534C82.8 52.654 76.766 42.351 67.836 37.3z" fill="url(#c)"/>
    </g>
</svg>
