<svg id="Layer_1" data-name="Layer 1" xmlns="http://www.w3.org/2000/svg" viewBox="0 0 755 425">
	<defs>
		<style>
			.cls-1{fill:#0b162a}
		</style>
	</defs>
	<path class="cls-1" d="M9.045 173.584c0-28.025.058-56.05-.077-84.074-.015-3.298.566-4.393 4.179-4.354 21.404.235 42.826-.312 64.214.342 20.228.618 39.662 5.077 56.713 16.774 19.785 13.572 30.963 32.49 33.862 56.237 1.924 15.755 1.503 31.452-4.265 46.43-10.707 27.802-31.662 44.201-59.764 52.216a130.168 130.168 0 0 1-36.503 4.623c-17.71-.078-35.423-.137-53.131.07-3.994.047-5.385-.695-5.347-5.116.236-27.714.12-55.432.12-83.148Zm31.398-.48c0 19.094-.022 38.187.043 57.28.005 1.519-1.153 3.924 2.19 3.847 15.058-.347 30.2 1.068 45.123-2.12 17.475-3.733 31.861-11.96 40.678-28.176 6.344-11.667 6.952-24.31 6.421-37.207-1.1-26.772-17.18-46.038-43.345-51.93-15.666-3.529-31.55-2.422-47.38-2.741-3-.06-3.826.731-3.803 3.77.145 19.091.073 38.185.073 57.278Z"/>
	<path class="cls-1" d="M242.662 229.53c6.2-18.216 12.021-35.346 17.858-52.47 3.615-10.604 7.388-21.157 10.79-31.828.909-2.854 2.358-3.357 4.968-3.309 7.543.138 15.098.258 22.632-.034 4.152-.16 4.486.936 3.062 4.563-14.688 37.425-29.21 74.916-43.825 112.37-4.686 12.006-9.29 24.051-14.338 35.906-5.077 11.923-12.904 21.269-26.086 24.812-9.387 2.524-18.848 2.294-28.377.88-2.35-.35-3.056-1.245-2.804-3.547.739-6.73 1.353-13.473 1.925-20.218.163-1.916.666-2.937 2.826-2.182a14.312 14.312 0 0 0 3.15.649c14.303 1.57 19.318-1.26 25.14-14.545 2.584-5.9 6.19-11.82 6.806-17.984.622-6.215-4.044-11.92-6.533-17.777q-20.888-49.154-42.04-98.194c-1.509-3.498-1.79-4.945 2.881-4.745 7.993.342 16.017.285 24.015.005 3.374-.118 4.759 1.082 5.914 4.14 10.034 26.556 20.247 53.044 30.412 79.55.381.995.807 1.972 1.624 3.959Z"/>
	<path class="cls-1" d="M452.655 161.357c15.474-24.09 43.629-30.06 64.39-14.39 11.86 8.95 16.593 21.737 16.9 35.88.548 25.233.155 50.486.282 75.73.014 2.752-.974 3.277-3.447 3.231-7.542-.138-15.092-.202-22.629.024-3.068.092-3.823-.844-3.804-3.84.13-20.318.063-40.637.07-60.956.002-6.174-.24-12.38-2.147-18.256-2.514-7.745-7.229-13.665-15.895-14.875-10.572-1.476-19.512 1.561-25.87 10.52-5.111 7.2-6.44 15.491-6.45 24.084-.02 19.55-.13 39.1.096 58.647.046 3.984-1.155 4.855-4.89 4.692-7.07-.31-14.164-.214-21.241-.029-2.88.076-3.945-.546-3.935-3.729q.176-56.108.018-112.216c-.007-2.872.52-4.085 3.732-3.978 7.228.241 14.47.159 21.704.03 2.4-.043 3.244.685 3.165 3.136-.163 5.058-.049 10.125-.049 16.295Z"/>
	<path class="cls-1" d="M609.784 261.758c14.468-18.96 28.273-37.061 42.092-55.153 6.488-8.495 6.483-8.474-.17-17.13q-16.746-21.782-33.438-43.606c-.785-1.027-2.081-1.845-1.846-3.889 11.043 0 22.074.028 33.105-.023 2.194-.01 2.77 1.76 3.681 3.06 7.863 11.203 15.658 22.453 23.784 34.135 6.373-8.855 13.232-17.023 18.513-26.109 5.184-8.917 11.603-12.69 21.91-11.237 6.343.894 12.915.166 19.469.166.606 2.115-1.22 3.028-2.132 4.231-12.267 16.197-24.535 32.394-37.004 48.435-2.112 2.718-2.029 4.352.05 7.022 14.376 18.46 28.563 37.065 42.8 55.631.915 1.192 1.75 2.444 3.193 4.467-7.408 0-14.205-.812-20.728.18-11.539 1.753-18.665-2.61-24.501-12.497-6.367-10.786-14.377-20.604-22.015-31.329-2.502 3.454-4.736 6.52-6.952 9.6-7.46 10.366-14.969 20.698-22.321 31.14a6.025 6.025 0 0 1-5.647 2.972c-10.278-.161-20.56-.066-31.843-.066Z"/>
	<path class="cls-1" d="M352.983 265.244c-17.109-.45-33.234-4.833-46.672-16.898-2.312-2.076-2.823-3.307-.145-5.573 4.697-3.974 9.13-8.277 13.498-12.619 2.275-2.262 3.512-2.998 6.326-.045 8.817 9.249 19.87 13.125 32.663 11.391 8.329-1.129 13.325-5.624 13.967-12.334.576-6.024-1.809-9.905-7.87-12.599-7.77-3.452-16.103-5.065-24.247-7.28a73.644 73.644 0 0 1-14.58-5.614c-21.934-11.341-19.411-42.23-2.774-54.57 13.48-9.997 28.804-11.8 44.804-9.709 11.93 1.56 22.99 5.462 31.797 14.292 2.16 2.166 2.62 3.5-.09 5.667-4.807 3.841-9.423 7.95-13.85 12.224-2.224 2.148-3.252 1.653-5.306-.331-9.744-9.414-21.151-12.838-34.294-8.256-5.9 2.057-8.288 5.438-8.307 10.829-.018 5.251 2.167 8.119 7.985 10.529 6.99 2.895 14.39 4.377 21.658 6.316a87.273 87.273 0 0 1 17.995 6.948c24.658 12.865 19.829 48.336-.187 59.785-9.973 5.705-20.758 7.32-32.371 7.847Z"/>
	<path class="cls-1" d="M595.526 202.24c0 18.31-.078 36.622.07 54.931.027 3.395-.51 4.887-4.421 4.69-7.215-.36-14.464-.224-21.693-.043-2.87.072-3.957-.53-3.947-3.725q.176-56.316.008-112.634c-.008-2.967.971-3.603 3.702-3.544 7.537.164 15.087.239 22.618-.027 3.321-.117 3.725 1.252 3.711 4.035-.092 18.772-.048 37.544-.048 56.317Z"/>
	<path d="M580.576 83.485c10.95.074 19.24 7.92 19.147 18.12-.092 10.111-8.659 17.913-19.533 17.789-10.558-.121-18.7-8.072-18.61-18.175.09-10.07 8.375-17.806 18.996-17.734Z" style="fill:#f63b25"/>
</svg>
