<svg xmlns="http://www.w3.org/2000/svg" viewBox="335.83 328.08 450.58 162.33">
	<defs>
		<clipPath id="aH" clipPathUnits="userSpaceOnUse">
			<path d="M317.792 286.689a37.171 37.171 0 0 1-4.156-.786c-18.45-8.196-29.006-29.588-41.846-29.238a12.72 12.72 0 0 0-3.748.672 24.8 24.8 0 0 1 .368-.544c0-.003.007-.003.007-.003.291-.415.588-.824.893-1.226.048-.069.097-.132.146-.197.256-.336.519-.676.782-1.008.104-.132.208-.26.312-.389.214-.262.429-.526.651-.782.159-.197.325-.387.491-.582.166-.19.333-.381.499-.567.228-.253.457-.506.685-.755a52.355 52.355 0 0 1 1.213-1.268 41.635 41.635 0 0 1 1.233-1.219l.062-.062a54.761 54.761 0 0 1 10.278-7.674.589.589 0 0 1 .09-.055c.409-.236.824-.464 1.24-.693.097-.049.194-.1.284-.152.353-.188.706-.367 1.059-.548.181-.09.354-.173.527-.263a43.519 43.519 0 0 1 1.635-.765c.2-.09.394-.18.595-.264.36-.159.727-.311 1.095-.464.104-.041.207-.086.318-.131.471-.187.935-.371 1.413-.548 0 0 .021-.006.027-.006a54.66 54.66 0 0 1 9.884-2.625c1.6-.263 3.193-.457 4.779-.581l.464-.036c.291-.02.582-.034.873-.047.332-.018.658-.036.99-.049.139-.007.277-.007.422-.011.465-.01.935-.023 1.407-.023h.124c1.122.005 2.237.041 3.345.106 0 0 .014.004.021.004.548.034 1.088.076 1.628.125.048.007.104.014.152.014.485.047.963.1 1.448.159.118.013.242.034.36.049.402.047.797.106 1.191.166.208.034.416.069.631.1.297.052.595.1.893.155l.907.173c.194.039.381.076.575.118.402.083.803.173 1.198.271.091.017.18.041.27.059a54.596 54.596 0 0 1 22.6 11.538c.028.021.055.048.083.069.353.306.7.609 1.046.925.097.091.201.183.298.273.27.246.54.499.803.752.173.155.339.322.506.485.187.187.381.377.574.571.077.083.16.163.236.246-4.433 18.087-17.238 38.685-33.861 36.531"/>
		</clipPath>
		<clipPath id="Q" clipPathUnits="userSpaceOnUse">
			<path d="m349.236 247.831.298.273-.298-.273"/>
		</clipPath>
		<clipPath id="bh" clipPathUnits="userSpaceOnUse">
			<path d="M259.197 297.202c-.784-4.689-.941-9.062-.536-13.588.458-2.953 1.606-4.487 1.841-4.804 2.061-2.787 4.547-4.694 8.275-5.425 13.567-2.653 28.344 18.303 50.338 20.957 15.38 1.856 25.132-8.274 30.974-18.405 5.4-9.365 7.458-18.731 7.531-18.625a54.2 54.2 0 0 1 8.875 21.918c-.006.014-.006.035-.006.049l-.022-.129c-2.998 10.518-26.803 22.696-43.473 19.465-16.665-3.227-22.669-9.519-37.186-10.416-19.095-1.181-26.083 10.887-25.98 12.204a54.379 54.379 0 0 1-.631-3.201"/>
		</clipPath>
		<clipPath id="H" clipPathUnits="userSpaceOnUse">
			<path d="M351.418 249.912c.075.08.159.159.242.236 0 0 0 .007-.008.01-.075-.083-.159-.163-.234-.246"/>
		</clipPath>
		<clipPath id="bf" clipPathUnits="userSpaceOnUse">
			<path d="M332.485 320.027c-12.238-4.352-28.289-18.786-39.211-18.136-7.813.471-19.442 7.422-24.512 18.219l-.041-.066v-.045c.007.008.007.015.015.022 1.606-6.445 5.877-21.765 22.869-23.53 10.496-.387 19.515 5.676 28.295 11.738 12.612 8.708 24.734 17.415 40.04 7.014 0 0-3.957 5.124-11.866 6.457a25.363 25.363 0 0 1-4.5.396c-3.328 0-7.01-.62-11.089-2.069"/>
		</clipPath>
		<clipPath id="T" clipPathUnits="userSpaceOnUse">
			<path d="M350.337 248.856c.173.155.339.322.505.484-.166-.162-.332-.329-.505-.484"/>
		</clipPath>
		<clipPath id="bc" clipPathUnits="userSpaceOnUse">
			<path d="M309.681 327.116c13.922 5.853 34.741 2.047 39.59 1.489a54.691 54.691 0 0 1-27.538 13.284c-16.124 2.695-31.645-1.987-43.371-11.552 13.132-6.306 23.271-5.894 31.319-3.221"/>
		</clipPath>
		<clipPath id="V" clipPathUnits="userSpaceOnUse">
			<path d="M0 595.28h841.89V0H0z"/>
		</clipPath>
		<clipPath id="a" clipPathUnits="userSpaceOnUse">
			<path d="M350.843 249.912h.575v-.571h-.575z"/>
		</clipPath>
		<clipPath id="b" clipPathUnits="userSpaceOnUse">
			<path d="M350.843 249.912h.574v-.571h-.574z"/>
		</clipPath>
		<clipPath id="c" clipPathUnits="userSpaceOnUse">
			<path d="m351.417 249.912-.574-.571c.187.19.381.378.574.571"/>
		</clipPath>
		<clipPath id="bb" clipPathUnits="userSpaceOnUse">
			<path d="M278.362 342.643h70.908v-17.368h-70.908z"/>
		</clipPath>
		<clipPath id="W" clipPathUnits="userSpaceOnUse">
			<path d="M350.843 249.912h.575v-.571h-.575z"/>
		</clipPath>
		<clipPath id="C" clipPathUnits="userSpaceOnUse">
			<path d="M351.417 249.912c-.193-.194-.387-.384-.574-.571.187.19.381.377.574.571"/>
		</clipPath>
		<clipPath id="m" clipPathUnits="userSpaceOnUse">
			<path d="M309.681 327.117c13.922 5.852 34.735 2.029 39.583 1.471a54.315 54.315 0 0 1-27.531 13.302c-16.124 2.694-31.756-1.974-43.482-11.539 13.132-6.306 23.382-5.908 31.43-3.234"/>
		</clipPath>
		<clipPath id="l" clipPathUnits="userSpaceOnUse">
			<path d="M278.251 344.584h71.013v-20.539h-71.013z"/>
		</clipPath>
		<clipPath id="k" clipPathUnits="userSpaceOnUse">
			<path d="M278.251 342.645h71.013V325.28h-71.013z"/>
		</clipPath>
		<clipPath id="aY" clipPathUnits="userSpaceOnUse">
			<path d="M309.681 327.116c13.922 5.853 34.707 2.051 39.555 1.493-7.254 6.604-16.844 11.493-27.503 13.28-16.124 2.695-31.645-1.987-43.371-11.552 13.132-6.306 23.271-5.894 31.319-3.221"/>
		</clipPath>
		<clipPath id="aX" clipPathUnits="userSpaceOnUse">
			<path d="M278.362 342.643h70.875v-17.368h-70.875z"/>
		</clipPath>
		<clipPath id="M" clipPathUnits="userSpaceOnUse">
			<path d="M349.534 248.856h.803v-.752h-.803z"/>
		</clipPath>
		<clipPath id="Z" clipPathUnits="userSpaceOnUse">
			<path d="M350.337 248.856a40.777 40.777 0 0 0-.803-.752c.27.25.54.499.803.752"/>
		</clipPath>
		<clipPath id="f" clipPathUnits="userSpaceOnUse">
			<path d="M325.507 246.837h22.6v-11.539h-22.6z"/>
		</clipPath>
		<clipPath id="g" clipPathUnits="userSpaceOnUse">
			<path d="M325.507 246.837h22.6v-11.538h-22.6z"/>
		</clipPath>
		<clipPath id="h" clipPathUnits="userSpaceOnUse">
			<path d="M348.107 246.837a54.596 54.596 0 0 0-22.6-11.538 54.232 54.232 0 0 1 22.6 11.538"/>
		</clipPath>
		<clipPath id="s" clipPathUnits="userSpaceOnUse">
			<path d="M309.681 327.117c13.922 5.852 34.735 2.029 39.583 1.471a54.315 54.315 0 0 1-27.531 13.302c-16.124 2.694-31.756-1.974-43.482-11.539 13.132-6.306 23.382-5.908 31.43-3.234"/>
		</clipPath>
		<clipPath id="ac" clipPathUnits="userSpaceOnUse">
			<path d="M325.507 246.837h22.6v-11.539h-22.6z"/>
		</clipPath>
		<clipPath id="ad" clipPathUnits="userSpaceOnUse">
			<path d="M348.107 246.837a54.596 54.596 0 0 0-22.6-11.538 54.22 54.22 0 0 1 22.6 11.538"/>
		</clipPath>
		<clipPath id="d" clipPathUnits="userSpaceOnUse">
			<path d="M278.251 344.584h71.013v-20.539h-71.013z"/>
		</clipPath>
		<clipPath id="ag" clipPathUnits="userSpaceOnUse">
			<path d="M317.792 286.69c-21.97-2.854-37.082-25.47-50.65-22.815a12.746 12.746 0 0 0-3.601 1.288c7.335-15.646 21.969-27.548 40.288-30.617 18.209-3.046 35.808 3.349 47.831 15.602-4.217 17.214-16.019 36.697-31.47 36.697-.79 0-1.59-.051-2.398-.155"/>
		</clipPath>
		<clipPath id="r" clipPathUnits="userSpaceOnUse">
			<path d="M278.251 342.645h71.013V325.28h-71.013z"/>
		</clipPath>
		<clipPath id="t" clipPathUnits="userSpaceOnUse">
			<path d="M348.107 246.837c.027.021.055.048.083.069-.028-.021-.056-.048-.083-.069"/>
		</clipPath>
		<clipPath id="aW" clipPathUnits="userSpaceOnUse">
			<path d="M0 595.28h841.89V0H0z"/>
		</clipPath>
		<clipPath id="aj" clipPathUnits="userSpaceOnUse">
			<path d="m349.236 247.831.298.273-.298-.273"/>
		</clipPath>
		<clipPath id="aU" clipPathUnits="userSpaceOnUse">
			<path d="M278.362 330.337c1.551-11.031 6.15-19.527 12.918-21.605 10.104-3.1 29.704 13.848 41.943 18.198 5.651 2.007 11.206 2.23 16.047 1.675-7.423 6.66-16.843 11.519-27.489 13.302a54.655 54.655 0 0 1-9.021.752c-12.814 0-24.892-4.548-34.398-12.322"/>
		</clipPath>
		<clipPath id="al" clipPathUnits="userSpaceOnUse">
			<path d="M267.142 263.875a12.746 12.746 0 0 0-3.601 1.288 54.484 54.484 0 0 1 4.501-7.826 12.687 12.687 0 0 1 3.747-.672c12.841-.35 23.397 21.042 41.848 29.238-19.754-4.876-33.8-24.511-46.495-22.028"/>
		</clipPath>
		<clipPath id="p" clipPathUnits="userSpaceOnUse">
			<path d="M-32768 32767h65535v-65535h-65535z"/>
		</clipPath>
		<clipPath id="an" clipPathUnits="userSpaceOnUse">
			<path d="M351.418 249.912c.075.08.159.159.242.236 0 0 0 .007-.008.01-.075-.083-.159-.163-.234-.246"/>
		</clipPath>
		<clipPath id="aR" clipPathUnits="userSpaceOnUse">
			<path d="M285.766 288.206c14.517.897 20.529 7.189 37.192 10.417 16.658 3.227 40.476-8.948 43.468-19.466 2.196 13.11-.242 25.458-6.487 36.086-.059.101-.935 1.014-1.074 1.093-24.933 14.042-41.319-17.855-66.741-18.44-17.433-.153-21.824 15.687-23.43 22.132a54.403 54.403 0 0 1-7.328-14.092l-.125-.377a55.692 55.692 0 0 1-.692-2.199c-.063-.239-.132-.481-.195-.72-.138-.495-.262-.998-.387-1.496a21.886 21.886 0 0 1-.18-.735c-.104-1.316 6.884-13.384 25.979-12.203"/>
		</clipPath>
		<clipPath id="ao" clipPathUnits="userSpaceOnUse">
			<path d="M350.337 248.856c.173.155.339.322.505.484-.166-.162-.332-.329-.505-.484"/>
		</clipPath>
		<clipPath id="aP" clipPathUnits="userSpaceOnUse">
			<path d="M259.785 320.028h107.433v-40.871H259.785z"/>
		</clipPath>
		<clipPath id="aq" clipPathUnits="userSpaceOnUse">
			<path d="M0 595.28h841.89V0H0z"/>
		</clipPath>
		<clipPath id="i" clipPathUnits="userSpaceOnUse">
			<path d="M350.843 249.912h.575v-.571h-.575z"/>
		</clipPath>
		<clipPath id="v" clipPathUnits="userSpaceOnUse">
			<path d="M350.843 249.912h.574v-.571h-.574z"/>
		</clipPath>
		<clipPath id="w" clipPathUnits="userSpaceOnUse">
			<path d="m351.417 249.912-.574-.571c.187.19.381.378.574.571"/>
		</clipPath>
		<clipPath id="ar" clipPathUnits="userSpaceOnUse">
			<path d="M350.843 249.912h.575v-.571h-.575z"/>
		</clipPath>
		<clipPath id="as" clipPathUnits="userSpaceOnUse">
			<path d="M351.417 249.912c-.193-.194-.387-.384-.574-.571.187.19.381.377.574.571"/>
		</clipPath>
		<clipPath id="L" clipPathUnits="userSpaceOnUse">
			<path d="M285.766 288.206c14.517.898 20.529 7.19 37.192 10.417 16.658 3.228 40.476-8.948 43.468-19.466 2.217 13.237-.561 26.15-6.933 36.837-25.376 14.177-41.805-17.51-67.369-18.098-17.433-.152-21.824 15.687-23.43 22.132a54.397 54.397 0 0 1-7.328-14.091l-.125-.377a55.74 55.74 0 0 1-.692-2.2c-.063-.238-.132-.481-.195-.72-.138-.495-.262-.997-.387-1.496a21.829 21.829 0 0 1-.18-.734c-.104-1.316 6.884-13.385 25.979-12.204"/>
		</clipPath>
		<clipPath id="K" clipPathUnits="userSpaceOnUse">
			<path d="M259.683 330.171h108.96v-51.014h-108.96z"/>
		</clipPath>
		<clipPath id="J" clipPathUnits="userSpaceOnUse">
			<path d="M259.785 320.028H367.18v-40.871H259.785z"/>
		</clipPath>
		<clipPath id="aO" clipPathUnits="userSpaceOnUse">
			<path d="M0 595.28h841.89V0H0z"/>
		</clipPath>
		<clipPath id="aM" clipPathUnits="userSpaceOnUse">
			<path d="M292.124 297.895c-17.432-.152-21.823 15.687-23.43 22.132a54.368 54.368 0 0 1-7.329-14.091l-.124-.377a54.071 54.071 0 0 1-.692-2.199c-.063-.239-.132-.481-.194-.72-.139-.496-.263-.998-.388-1.496a28.157 28.157 0 0 1-.18-.735c-.105-1.316 6.884-13.384 25.979-12.203 14.517.897 20.529 7.189 37.193 10.417 16.657 3.227 40.475-8.948 43.467-19.466 2.2 13.144-.31 25.606-6.588 36.25-.044.075-.679.704-.722.729-4.747 2.771-9.166 3.902-13.373 3.903-18.422.002-32.843-21.665-53.619-22.144"/>
		</clipPath>
		<clipPath id="aK" clipPathUnits="userSpaceOnUse">
			<path d="M317.799 286.69c-21.977-2.851-37.089-25.468-50.657-22.815a12.902 12.902 0 0 0-3.601 1.288c15.458-10.174 33.556 15.335 55.532 18.186 6.101.791 12.155-.822 17.605-4.421-4.749 4.816-10.328 7.918-16.481 7.918-.79 0-1.59-.051-2.398-.156"/>
		</clipPath>
		<clipPath id="O" clipPathUnits="userSpaceOnUse">
			<path d="M348.107 246.837c.027.021.055.048.083.069-.028-.021-.056-.048-.083-.069"/>
		</clipPath>
		<clipPath id="av" clipPathUnits="userSpaceOnUse">
			<path d="M349.534 248.856h.803v-.752h-.803z"/>
		</clipPath>
		<clipPath id="aw" clipPathUnits="userSpaceOnUse">
			<path d="M350.337 248.856a40.777 40.777 0 0 0-.803-.752c.27.25.54.499.803.752"/>
		</clipPath>
		<clipPath id="aG" clipPathUnits="userSpaceOnUse">
			<path d="M268.043 286.845h83.61v-53.046h-83.61z"/>
		</clipPath>
		<clipPath id="E" clipPathUnits="userSpaceOnUse">
			<path d="M325.507 246.837h22.6v-11.539h-22.6z"/>
		</clipPath>
		<clipPath id="F" clipPathUnits="userSpaceOnUse">
			<path d="M325.507 246.837h22.6v-11.538h-22.6z"/>
		</clipPath>
		<clipPath id="G" clipPathUnits="userSpaceOnUse">
			<path d="M348.107 246.837a54.596 54.596 0 0 0-22.6-11.538 54.232 54.232 0 0 1 22.6 11.538"/>
		</clipPath>
		<clipPath id="az" clipPathUnits="userSpaceOnUse">
			<path d="M325.507 246.837h22.6v-11.539h-22.6z"/>
		</clipPath>
		<clipPath id="aA" clipPathUnits="userSpaceOnUse">
			<path d="M348.107 246.837a54.596 54.596 0 0 0-22.6-11.538 54.22 54.22 0 0 1 22.6 11.538"/>
		</clipPath>
		<clipPath id="B" clipPathUnits="userSpaceOnUse">
			<path d="M317.792 286.688a37.171 37.171 0 0 1-4.156-.786c-18.45-8.196-29.006-29.588-41.846-29.238a12.72 12.72 0 0 0-3.748.672c.118-.18.243-.363.368-.544 0-.003.007-.003.007-.003.291-.415.588-.824.893-1.226.048-.069.097-.131.146-.197.256-.336.519-.676.782-1.008.104-.131.208-.259.312-.388.214-.263.429-.527.651-.783.159-.197.325-.387.491-.582.166-.19.333-.38.499-.567.228-.253.457-.506.685-.755a52.294 52.294 0 0 1 1.213-1.267c.062-.07.124-.136.194-.202.339-.342.686-.685 1.039-1.018l.062-.062a54.713 54.713 0 0 1 10.278-7.673.598.598 0 0 1 .09-.056c.409-.235.824-.464 1.24-.693.097-.048.194-.1.284-.152.353-.187.706-.367 1.059-.548.181-.09.354-.173.527-.262a43.519 43.519 0 0 1 1.635-.766c.2-.09.394-.18.595-.264.36-.159.727-.31 1.095-.464.104-.041.207-.085.318-.13a55.81 55.81 0 0 1 1.413-.548s.021-.007.027-.007a54.66 54.66 0 0 1 9.884-2.625c1.6-.263 3.193-.457 4.779-.581.152-.011.311-.025.464-.035.291-.021.582-.034.873-.048.332-.018.658-.035.99-.049.139-.007.277-.007.422-.011.465-.01.935-.023 1.407-.023h.124c1.122.006 2.237.041 3.345.106 0 0 .014.004.021.004.548.034 1.088.076 1.628.125.048.007.104.014.152.014.485.048.963.1 1.448.159.118.014.242.034.36.049.402.048.797.106 1.191.166.208.034.416.069.631.1.297.052.595.1.893.156.298.055.602.114.907.173.194.039.381.076.575.118.402.083.803.173 1.198.27.091.017.18.041.27.059a54.596 54.596 0 0 1 22.6 11.538c.028.021.055.049.083.069.353.306.7.61 1.046.925.097.091.201.184.298.274.27.246.54.499.803.751.173.156.339.323.506.485l.574.571c.077.083.16.163.236.246-4.433 18.087-17.238 38.686-33.861 36.531"/>
		</clipPath>
		<clipPath id="aD" clipPathUnits="userSpaceOnUse">
			<path d="M317.792 286.69a37.34 37.34 0 0 1-4.155-.787c-18.451-8.196-29.007-29.588-41.848-29.238a12.687 12.687 0 0 0-3.747.672 27.5 27.5 0 0 1 .368-.545c0-.002.007-.002.007-.002.291-.415.588-.825.893-1.226.048-.069.097-.131.146-.197.256-.336.519-.676.782-1.008.104-.132.207-.259.312-.389.214-.263.429-.525.651-.782.159-.197.325-.388.491-.581a57.74 57.74 0 0 1 1.531-1.694c.284-.301.575-.602.866-.897a43.468 43.468 0 0 1 1.296-1.281 54.678 54.678 0 0 1 10.277-7.674.551.551 0 0 1 .091-.055c.407-.236.823-.464 1.239-.693.097-.049.194-.1.283-.153.354-.187.707-.367 1.061-.547.18-.09.353-.173.526-.263.277-.135.561-.27.838-.402.264-.124.534-.246.797-.363.2-.09.394-.18.595-.264.36-.159.728-.311 1.095-.464.103-.041.207-.086.317-.131.472-.187.936-.371 1.414-.547 0 0 .021-.007.027-.007a54.662 54.662 0 0 1 9.884-2.626 56.651 56.651 0 0 1 4.779-.58c.152-.011.312-.025.465-.035.289-.021.581-.035.872-.049.332-.017.658-.035.99-.049.138-.006.278-.006.423-.01.464-.01.935-.024 1.405-.024h.126c1.121.007 2.236.042 3.344.107 0 0 .014.004.022.004.547.034 1.087.076 1.627.125.048.006.104.014.152.014.485.047.963.1 1.448.159.118.013.242.034.36.049.401.047.796.106 1.192.166.207.034.414.069.63.1.297.052.594.1.893.156.298.055.602.114.907.172.194.039.381.077.575.118.402.083.803.173 1.198.271.09.016.18.041.271.059a54.598 54.598 0 0 1 22.599 11.538c.027.021.055.048.083.069.353.306.699.609 1.046.925l.298.273c.27.246.54.499.803.752.173.155.339.322.505.484l.576.572c.075.083.159.163.234.246-4.216 17.207-16.011 36.687-31.462 36.687-.79 0-1.59-.051-2.398-.155"/>
		</clipPath>
		<clipPath id="A" clipPathUnits="userSpaceOnUse">
			<path d="M268.042 288.843h83.611v-55.044h-83.611z"/>
		</clipPath>
		<clipPath id="aF" clipPathUnits="userSpaceOnUse">
			<path d="M0 595.28h841.89V0H0z"/>
		</clipPath>
		<clipPath id="z" clipPathUnits="userSpaceOnUse">
			<path d="M268.043 286.845h83.61v-53.046h-83.61z"/>
		</clipPath>
		<clipPath id="bj" clipPathUnits="userSpaceOnUse">
			<path d="M0 595.28h841.89V0H0z"/>
		</clipPath>
		<linearGradient id="aV" x1="0" x2="1" y1="0" y2="0" gradientTransform="scale(88.0971 -88.0971) rotate(-3.165 -64.998 -58.646)" gradientUnits="userSpaceOnUse" spreadMethod="pad">
			<stop offset="0" stop-color="#30a8e1"/>
			<stop offset="1" stop-color="#172a88"/>
		</linearGradient>
		<linearGradient id="aE" x1="0" x2="1" y1="0" y2="0" gradientTransform="scale(131.33282 -131.33282) rotate(-3.856 -28.051 -31.473)" gradientUnits="userSpaceOnUse" spreadMethod="pad">
			<stop offset="0" stop-color="#30a8e1"/>
			<stop offset="1" stop-color="#172a88"/>
		</linearGradient>
		<linearGradient id="I" x1="0" x2="1" y1="0" y2="0" gradientTransform="scale(23.0496 -23.0496) rotate(-83.868 1.655 -13.173)" gradientUnits="userSpaceOnUse" spreadMethod="pad">
			<stop offset="0" stop-color="#fff"/>
			<stop offset="1" stop-color="#231916"/>
		</linearGradient>
		<linearGradient id="D" x1="0" x2="1" y1="0" y2="0" gradientTransform="scale(23.0503 -23.0503) rotate(-83.868 .975 -12.562)" gradientUnits="userSpaceOnUse" spreadMethod="pad">
			<stop offset="0" stop-color="#fff"/>
			<stop offset="1" stop-color="#231916"/>
		</linearGradient>
		<linearGradient id="R" x1="0" x2="1" y1="0" y2="0" gradientTransform="scale(130.78917 -130.78917) rotate(-3.856 -26.523 -31.697)" gradientUnits="userSpaceOnUse" spreadMethod="pad">
			<stop offset="0" stop-color="#30a8e1"/>
			<stop offset="1" stop-color="#172a88"/>
		</linearGradient>
		<linearGradient id="ay" x1="0" x2="1" y1="0" y2="0" gradientTransform="scale(23.09369 -23.09369) rotate(-83.868 1.948 -13.412)" gradientUnits="userSpaceOnUse" spreadMethod="pad">
			<stop offset="0" stop-color="#fff"/>
			<stop offset="1" stop-color="#fff"/>
		</linearGradient>
		<linearGradient id="bg" x1="0" x2="1" y1="0" y2="0" gradientTransform="scale(-111.30096 111.30096) rotate(9.497 -17.956 -18.252)" gradientUnits="userSpaceOnUse" spreadMethod="pad">
			<stop offset="0" stop-color="#30a8e1"/>
			<stop offset="1" stop-color="#172a88"/>
		</linearGradient>
		<linearGradient id="aJ" x1="0" x2="1" y1="0" y2="0" gradientTransform="scale(23.0503 -23.0503) rotate(-83.868 .975 -12.562)" gradientUnits="userSpaceOnUse" spreadMethod="pad">
			<stop offset="0" stop-color="#fff"/>
			<stop offset="1" stop-color="#fff"/>
		</linearGradient>
		<linearGradient id="aL" x1="0" x2="1" y1="0" y2="0" gradientTransform="scale(-75.25959 75.25959) rotate(-.06 3489.5 4196.554)" gradientUnits="userSpaceOnUse" spreadMethod="pad">
			<stop offset="0" stop-color="#30a8e1"/>
			<stop offset="1" stop-color="#172a88"/>
		</linearGradient>
		<linearGradient id="aN" x1="0" x2="1" y1="0" y2="0" gradientTransform="scale(108.79641 -108.79641) rotate(9.497 18.508 13.05)" gradientUnits="userSpaceOnUse" spreadMethod="pad">
			<stop offset="0" stop-color="#30a8e1"/>
			<stop offset="1" stop-color="#172a88"/>
		</linearGradient>
		<linearGradient id="P" x1="0" x2="1" y1="0" y2="0" gradientTransform="scale(135.55518 -135.55518) rotate(-3.856 -25.47 -30.277)" gradientUnits="userSpaceOnUse" spreadMethod="pad">
			<stop offset="0" stop-color="#30a8e1"/>
			<stop offset="1" stop-color="#172a88"/>
		</linearGradient>
		<linearGradient id="S" x1="0" x2="1" y1="0" y2="0" gradientTransform="scale(131.28125 -131.28125) rotate(-3.856 -26.64 -31.538)" gradientUnits="userSpaceOnUse" spreadMethod="pad">
			<stop offset="0" stop-color="#30a8e1"/>
			<stop offset="1" stop-color="#172a88"/>
		</linearGradient>
		<linearGradient id="x" x1="0" x2="1" y1="0" y2="0" gradientTransform="scale(23.08075 -23.08075) rotate(-83.868 1.923 -13.396)" gradientUnits="userSpaceOnUse" spreadMethod="pad">
			<stop offset="0" stop-color="#fff"/>
			<stop offset="1" stop-color="#231916"/>
		</linearGradient>
		<linearGradient id="au" x1="0" x2="1" y1="0" y2="0" gradientTransform="scale(23.05188 -23.05188) rotate(-83.868 1.977 -13.46)" gradientUnits="userSpaceOnUse" spreadMethod="pad">
			<stop offset="0" stop-color="#fff"/>
			<stop offset="1" stop-color="#fff"/>
		</linearGradient>
		<linearGradient id="be" x1="0" x2="1" y1="0" y2="0" gradientTransform="scale(4.7626 -4.7626) rotate(62.016 92.493 16.898)" gradientUnits="userSpaceOnUse" spreadMethod="pad">
			<stop offset="0" stop-color="#fff"/>
			<stop offset="1" stop-color="#fff"/>
		</linearGradient>
		<linearGradient id="y" x1="0" x2="1" y1="0" y2="0" gradientTransform="scale(23.05188 -23.05188) rotate(-83.868 1.977 -13.46)" gradientUnits="userSpaceOnUse" spreadMethod="pad">
			<stop offset="0" stop-color="#fff"/>
			<stop offset="1" stop-color="#231916"/>
		</linearGradient>
		<linearGradient id="N" x1="0" x2="1" y1="0" y2="0" gradientTransform="scale(108.68448 -108.68448) rotate(9.497 18.52 13.062)" gradientUnits="userSpaceOnUse" spreadMethod="pad">
			<stop offset="0" stop-color="#fff"/>
			<stop offset="1" stop-color="#231916"/>
		</linearGradient>
		<linearGradient id="U" x1="0" x2="1" y1="0" y2="0" gradientTransform="scale(132.7643 -132.7643) rotate(-3.856 -26.241 -31.087)" gradientUnits="userSpaceOnUse" spreadMethod="pad">
			<stop offset="0" stop-color="#30a8e1"/>
			<stop offset="1" stop-color="#172a88"/>
		</linearGradient>
		<linearGradient id="ap" x1="0" x2="1" y1="0" y2="0" gradientTransform="scale(132.7643 -132.7643) rotate(-3.856 -26.241 -31.087)" gradientUnits="userSpaceOnUse" spreadMethod="pad">
			<stop offset="0" stop-color="#30a8e1"/>
			<stop offset="1" stop-color="#172a88"/>
		</linearGradient>
		<linearGradient id="n" x1="0" x2="1" y1="0" y2="0" gradientTransform="scale(131.28125 -131.28125) rotate(-3.856 -26.64 -31.538)" gradientUnits="userSpaceOnUse" spreadMethod="pad">
			<stop offset="0" stop-color="#30a8e1"/>
			<stop offset="1" stop-color="#172a88"/>
		</linearGradient>
		<linearGradient id="am" x1="0" x2="1" y1="0" y2="0" gradientTransform="matrix(131.05722 8.834 8.834 -131.05722 268.8 269.647)" gradientUnits="userSpaceOnUse" spreadMethod="pad">
			<stop offset="0" stop-color="#30a8e1"/>
			<stop offset="1" stop-color="#172a88"/>
		</linearGradient>
		<linearGradient id="q" x1="0" x2="1" y1="0" y2="0" gradientTransform="scale(108.68448 -108.68448) rotate(9.497 18.525 13.063)" gradientUnits="userSpaceOnUse" spreadMethod="pad">
			<stop offset="0" stop-color="#fff"/>
			<stop offset="1" stop-color="#fff" stop-opacity="0"/>
		</linearGradient>
		<linearGradient id="e" x1="0" x2="1" y1="0" y2="0" gradientTransform="scale(23.05188 -23.05188) rotate(-83.868 1.977 -13.46)" gradientUnits="userSpaceOnUse" spreadMethod="pad">
			<stop offset="0" stop-color="#fff"/>
			<stop offset="1" stop-color="#231916"/>
		</linearGradient>
		<linearGradient id="aT" x1="0" x2="1" y1="0" y2="0" gradientTransform="scale(108.68448 -108.68448) rotate(9.497 18.525 13.063)" gradientUnits="userSpaceOnUse" spreadMethod="pad">
			<stop offset="0" stop-color="#fff"/>
			<stop offset="1" stop-color="#fff"/>
		</linearGradient>
		<linearGradient id="aC" x1="0" x2="1" y1="0" y2="0" gradientTransform="scale(23.0496 -23.0496) rotate(-83.868 1.655 -13.173)" gradientUnits="userSpaceOnUse" spreadMethod="pad">
			<stop offset="0" stop-color="#fff"/>
			<stop offset="1" stop-color="#fff"/>
		</linearGradient>
		<linearGradient id="bi" x1="0" x2="1" y1="0" y2="0" gradientTransform="scale(136.97368 -136.97368) rotate(9.497 13.805 10.288)" gradientUnits="userSpaceOnUse" spreadMethod="pad">
			<stop offset="0" stop-color="#30a8e1"/>
			<stop offset="1" stop-color="#172a88"/>
		</linearGradient>
		<linearGradient id="ai" x1="0" x2="1" y1="0" y2="0" gradientTransform="scale(135.55518 -135.55518) rotate(-3.856 -25.47 -30.277)" gradientUnits="userSpaceOnUse" spreadMethod="pad">
			<stop offset="0" stop-color="#30a8e1"/>
			<stop offset="1" stop-color="#172a88"/>
		</linearGradient>
		<linearGradient id="ah" x1="0" x2="1" y1="0" y2="0" gradientTransform="scale(131.34614 -131.34614) rotate(-3.856 -28.048 -31.47)" gradientUnits="userSpaceOnUse" spreadMethod="pad">
			<stop offset="0" stop-color="#30a8e1"/>
			<stop offset="1" stop-color="#172a88"/>
		</linearGradient>
		<linearGradient id="af" x1="0" x2="1" y1="0" y2="0" gradientTransform="scale(23.0496 -23.0496) rotate(-83.868 1.655 -13.173)" gradientUnits="userSpaceOnUse" spreadMethod="pad">
			<stop offset="0" stop-color="#fff"/>
			<stop offset="1" stop-color="#fff"/>
		</linearGradient>
		<linearGradient id="o" x1="0" x2="1" y1="0" y2="0" gradientTransform="scale(4.77153 -4.77153) rotate(62.016 92.317 16.851)" gradientUnits="userSpaceOnUse" spreadMethod="pad">
			<stop offset="0" stop-color="#fff"/>
			<stop offset="1" stop-color="#231916"/>
		</linearGradient>
		<linearGradient id="j" x1="0" x2="1" y1="0" y2="0" gradientTransform="scale(23.0496 -23.0496) rotate(-83.868 1.655 -13.173)" gradientUnits="userSpaceOnUse" spreadMethod="pad">
			<stop offset="0" stop-color="#fff"/>
			<stop offset="1" stop-color="#231916"/>
		</linearGradient>
		<linearGradient id="ab" x1="0" x2="1" y1="0" y2="0" gradientTransform="scale(23.09369 -23.09369) rotate(-83.868 1.948 -13.412)" gradientUnits="userSpaceOnUse" spreadMethod="pad">
			<stop offset="0" stop-color="#fff"/>
			<stop offset="1" stop-color="#fff"/>
		</linearGradient>
		<linearGradient id="u" x1="0" x2="1" y1="0" y2="0" gradientTransform="scale(40.82637 -40.82637) rotate(39.549 15.46 5.558)" gradientUnits="userSpaceOnUse" spreadMethod="pad">
			<stop offset="0" stop-color="#fff"/>
			<stop offset="1" stop-color="#231916"/>
		</linearGradient>
		<linearGradient id="Y" x1="0" x2="1" y1="0" y2="0" gradientTransform="scale(23.05188 -23.05188) rotate(-83.868 1.977 -13.46)" gradientUnits="userSpaceOnUse" spreadMethod="pad">
			<stop offset="0" stop-color="#fff"/>
			<stop offset="1" stop-color="#fff"/>
		</linearGradient>
		<linearGradient id="ba" x1="0" x2="1" y1="0" y2="0" gradientTransform="scale(40.7324 -40.7324) rotate(39.549 15.496 5.575)" gradientUnits="userSpaceOnUse" spreadMethod="pad">
			<stop offset="0" stop-color="#fff"/>
			<stop offset="1" stop-color="#fff"/>
		</linearGradient>
		<linearGradient id="ak" x1="0" x2="1" y1="0" y2="0" gradientTransform="scale(130.78917 -130.78917) rotate(-3.856 -26.523 -31.697)" gradientUnits="userSpaceOnUse" spreadMethod="pad">
			<stop offset="0" stop-color="#30a8e1"/>
			<stop offset="1" stop-color="#172a88"/>
		</linearGradient>
		<mask id="aa" width="1" height="1" x="0" y="0" maskUnits="userSpaceOnUse"/>
		<mask id="X" width="1" height="1" x="0" y="0" maskUnits="userSpaceOnUse">
			<g clip-path="url(#a)">
				<g clip-path="url(#b)">
					<g clip-path="url(#c)" mask="url(#d)" opacity=".2">
						<path fill="url(#e)" d="m351.417 249.912-.574-.571c.187.19.381.378.574.571"/>
					</g>
				</g>
			</g>
		</mask>
		<mask id="ae" width="1" height="1" x="0" y="0" maskUnits="userSpaceOnUse">
			<g clip-path="url(#f)">
				<g clip-path="url(#g)">
					<g clip-path="url(#h)" mask="url(#i)" opacity=".2">
						<path fill="url(#j)" d="M348.107 246.837a54.596 54.596 0 0 0-22.6-11.538 54.232 54.232 0 0 1 22.6 11.538"/>
					</g>
				</g>
			</g>
		</mask>
		<mask id="bd" width="1" height="1" x="0" y="0" maskUnits="userSpaceOnUse">
			<g clip-path="url(#k)">
				<g clip-path="url(#l)">
					<g clip-path="url(#m)" mask="url(#n)" opacity=".2">
						<path fill="url(#o)" d="M309.681 327.117c13.922 5.852 34.735 2.029 39.583 1.471a54.315 54.315 0 0 1-27.531 13.302c-16.124 2.694-31.756-1.974-43.482-11.539 13.132-6.306 23.382-5.908 31.43-3.234"/>
					</g>
				</g>
			</g>
		</mask>
		<mask id="aS" width="1" height="1" x="0" y="0" maskUnits="userSpaceOnUse">
			<g clip-path="url(#p)">
				<path fill="url(#q)" d="M-32768 32767h65535v-65535h-65535z"/>
			</g>
		</mask>
		<mask id="aZ" width="1" height="1" x="0" y="0" maskUnits="userSpaceOnUse">
			<g clip-path="url(#r)">
				<g clip-path="url(#d)">
					<g clip-path="url(#s)" mask="url(#t)" opacity=".3">
						<path fill="url(#u)" d="M309.681 327.117c13.922 5.852 34.735 2.029 39.583 1.471a54.315 54.315 0 0 1-27.531 13.302c-16.124 2.694-31.756-1.974-43.482-11.539 13.132-6.306 23.382-5.908 31.43-3.234"/>
					</g>
				</g>
			</g>
		</mask>
		<mask id="at" width="1" height="1" x="0" y="0" maskUnits="userSpaceOnUse">
			<g clip-path="url(#i)">
				<g clip-path="url(#v)">
					<g clip-path="url(#w)" mask="url(#x)" opacity=".2">
						<path fill="url(#y)" d="m351.417 249.912-.574-.571c.187.19.381.378.574.571"/>
					</g>
				</g>
			</g>
		</mask>
		<mask id="ax" width="1" height="1" x="0" y="0" maskUnits="userSpaceOnUse"/>
		<mask id="aI" width="1" height="1" x="0" y="0" maskUnits="userSpaceOnUse">
			<g clip-path="url(#z)">
				<g clip-path="url(#A)">
					<g clip-path="url(#B)" mask="url(#C)" opacity=".2">
						<path fill="url(#D)" d="M317.792 286.688a37.171 37.171 0 0 1-4.156-.786c-18.45-8.196-29.006-29.588-41.846-29.238a12.72 12.72 0 0 0-3.748.672c.118-.18.243-.363.368-.544 0-.003.007-.003.007-.003.291-.415.588-.824.893-1.226.048-.069.097-.131.146-.197.256-.336.519-.676.782-1.008.104-.131.208-.259.312-.388.214-.263.429-.527.651-.783.159-.197.325-.387.491-.582.166-.19.333-.38.499-.567.228-.253.457-.506.685-.755a52.294 52.294 0 0 1 1.213-1.267c.062-.07.124-.136.194-.202.339-.342.686-.685 1.039-1.018l.062-.062a54.713 54.713 0 0 1 10.278-7.673.598.598 0 0 1 .09-.056c.409-.235.824-.464 1.24-.693.097-.048.194-.1.284-.152.353-.187.706-.367 1.059-.548.181-.09.354-.173.527-.262a43.519 43.519 0 0 1 1.635-.766c.2-.09.394-.18.595-.264.36-.159.727-.31 1.095-.464.104-.041.207-.085.318-.13a55.81 55.81 0 0 1 1.413-.548s.021-.007.027-.007a54.66 54.66 0 0 1 9.884-2.625c1.6-.263 3.193-.457 4.779-.581.152-.011.311-.025.464-.035.291-.021.582-.034.873-.048.332-.018.658-.035.99-.049.139-.007.277-.007.422-.011.465-.01.935-.023 1.407-.023h.124c1.122.006 2.237.041 3.345.106 0 0 .014.004.021.004.548.034 1.088.076 1.628.125.048.007.104.014.152.014.485.048.963.1 1.448.159.118.014.242.034.36.049.402.048.797.106 1.191.166.208.034.416.069.631.1.297.052.595.1.893.156.298.055.602.114.907.173.194.039.381.076.575.118.402.083.803.173 1.198.27.091.017.18.041.27.059a54.596 54.596 0 0 1 22.6 11.538c.028.021.055.049.083.069.353.306.7.61 1.046.925.097.091.201.184.298.274.27.246.54.499.803.751.173.156.339.323.506.485l.574.571c.077.083.16.163.236.246-4.433 18.087-17.238 38.686-33.861 36.531"/>
					</g>
				</g>
			</g>
		</mask>
		<mask id="aB" width="1" height="1" x="0" y="0" maskUnits="userSpaceOnUse">
			<g clip-path="url(#E)">
				<g clip-path="url(#F)">
					<g clip-path="url(#G)" mask="url(#H)" opacity=".2">
						<path fill="url(#I)" d="M348.107 246.837a54.596 54.596 0 0 0-22.6-11.538 54.232 54.232 0 0 1 22.6 11.538"/>
					</g>
				</g>
			</g>
		</mask>
		<mask id="aQ" width="1" height="1" x="0" y="0" maskUnits="userSpaceOnUse">
			<g clip-path="url(#J)">
				<g clip-path="url(#K)">
					<g clip-path="url(#L)" mask="url(#M)" opacity=".25">
						<path fill="url(#N)" d="M285.766 288.206c14.517.898 20.529 7.19 37.192 10.417 16.658 3.228 40.476-8.948 43.468-19.466 2.217 13.237-.561 26.15-6.933 36.837-25.376 14.177-41.805-17.51-67.369-18.098-17.433-.152-21.824 15.687-23.43 22.132a54.397 54.397 0 0 1-7.328-14.091l-.125-.377a55.74 55.74 0 0 1-.692-2.2c-.063-.238-.132-.481-.195-.72-.138-.495-.262-.997-.387-1.496a21.829 21.829 0 0 1-.18-.734c-.104-1.316 6.884-13.385 25.979-12.204"/>
					</g>
				</g>
			</g>
		</mask>
	</defs>
	<g clip-path="url(#O)" transform="matrix(1.33333 0 0 -1.33333 0 793.707)">
		<path fill="url(#P)" d="M348.107 246.837c.027.021.055.048.083.069-.028-.021-.056-.048-.083-.069"/>
	</g>
	<g clip-path="url(#Q)" transform="matrix(1.33333 0 0 -1.33333 0 793.707)">
		<path fill="url(#R)" d="m349.236 247.831.298.273-.298-.273"/>
	</g>
	<g clip-path="url(#H)" transform="matrix(1.33333 0 0 -1.33333 0 793.707)">
		<path fill="url(#S)" d="M351.418 249.912c.075.08.159.159.242.236 0 0 0 .007-.008.01-.075-.083-.159-.163-.234-.246"/>
	</g>
	<g clip-path="url(#T)" transform="matrix(1.33333 0 0 -1.33333 0 793.707)">
		<path fill="url(#U)" d="M350.337 248.856c.173.155.339.322.505.484-.166-.162-.332-.329-.505-.484"/>
	</g>
	<g clip-path="url(#V)" transform="matrix(1.33333 0 0 -1.33333 0 793.707)">
		<g clip-path="url(#W)">
			<g clip-path="url(#C)" mask="url(#X)" opacity=".2">
				<path fill="url(#Y)" d="M351.417 249.912c-.193-.194-.387-.384-.574-.571.187.19.381.377.574.571"/>
			</g>
		</g>
		<g clip-path="url(#M)">
			<g clip-path="url(#Z)" mask="url(#aa)" opacity=".2">
				<path fill="url(#ab)" d="M350.337 248.856a40.777 40.777 0 0 0-.803-.752c.27.25.54.499.803.752"/>
			</g>
		</g>
		<g clip-path="url(#ac)">
			<g clip-path="url(#ad)" mask="url(#ae)" opacity=".2">
				<path fill="url(#af)" d="M348.107 246.837a54.596 54.596 0 0 0-22.6-11.538 54.22 54.22 0 0 1 22.6 11.538"/>
			</g>
		</g>
	</g>
	<g clip-path="url(#ag)" transform="matrix(1.33333 0 0 -1.33333 0 793.707)">
		<path fill="url(#ah)" d="M317.792 286.69c-21.97-2.854-37.082-25.47-50.65-22.815a12.746 12.746 0 0 0-3.601 1.288c7.335-15.646 21.969-27.548 40.288-30.617 18.209-3.046 35.808 3.349 47.831 15.602-4.217 17.214-16.019 36.697-31.47 36.697-.79 0-1.59-.051-2.398-.155"/>
	</g>
	<g clip-path="url(#t)" transform="matrix(1.33333 0 0 -1.33333 0 793.707)">
		<path fill="url(#ai)" d="M348.107 246.837c.027.021.055.048.083.069-.028-.021-.056-.048-.083-.069"/>
	</g>
	<g clip-path="url(#aj)" transform="matrix(1.33333 0 0 -1.33333 0 793.707)">
		<path fill="url(#ak)" d="m349.236 247.831.298.273-.298-.273"/>
	</g>
	<g clip-path="url(#al)" transform="matrix(1.33333 0 0 -1.33333 0 793.707)">
		<path fill="url(#am)" d="M267.142 263.875a12.746 12.746 0 0 0-3.601 1.288 54.484 54.484 0 0 1 4.501-7.826 12.687 12.687 0 0 1 3.747-.672c12.841-.35 23.397 21.042 41.848 29.238-19.754-4.876-33.8-24.511-46.495-22.028"/>
	</g>
	<g clip-path="url(#an)" transform="matrix(1.33333 0 0 -1.33333 0 793.707)">
		<path fill="url(#n)" d="M351.418 249.912c.075.08.159.159.242.236 0 0 0 .007-.008.01-.075-.083-.159-.163-.234-.246"/>
	</g>
	<g clip-path="url(#ao)" transform="matrix(1.33333 0 0 -1.33333 0 793.707)">
		<path fill="url(#ap)" d="M350.337 248.856c.173.155.339.322.505.484-.166-.162-.332-.329-.505-.484"/>
	</g>
	<g clip-path="url(#aq)" transform="matrix(1.33333 0 0 -1.33333 0 793.707)">
		<g clip-path="url(#ar)">
			<g clip-path="url(#as)" mask="url(#at)" opacity=".2">
				<path fill="url(#au)" d="M351.417 249.912c-.193-.194-.387-.384-.574-.571.187.19.381.377.574.571"/>
			</g>
		</g>
		<g clip-path="url(#av)">
			<g clip-path="url(#aw)" mask="url(#ax)" opacity=".2">
				<path fill="url(#ay)" d="M350.337 248.856a40.777 40.777 0 0 0-.803-.752c.27.25.54.499.803.752"/>
			</g>
		</g>
		<g clip-path="url(#az)">
			<g clip-path="url(#aA)" mask="url(#aB)" opacity=".2">
				<path fill="url(#aC)" d="M348.107 246.837a54.596 54.596 0 0 0-22.6-11.538 54.22 54.22 0 0 1 22.6 11.538"/>
			</g>
		</g>
	</g>
	<g clip-path="url(#aD)" transform="matrix(1.33333 0 0 -1.33333 0 793.707)">
		<path fill="url(#aE)" d="M317.792 286.69a37.34 37.34 0 0 1-4.155-.787c-18.451-8.196-29.007-29.588-41.848-29.238a12.687 12.687 0 0 0-3.747.672 27.5 27.5 0 0 1 .368-.545c0-.002.007-.002.007-.002.291-.415.588-.825.893-1.226.048-.069.097-.131.146-.197.256-.336.519-.676.782-1.008.104-.132.207-.259.312-.389.214-.263.429-.525.651-.782.159-.197.325-.388.491-.581a57.74 57.74 0 0 1 1.531-1.694c.284-.301.575-.602.866-.897a43.468 43.468 0 0 1 1.296-1.281 54.678 54.678 0 0 1 10.277-7.674.551.551 0 0 1 .091-.055c.407-.236.823-.464 1.239-.693.097-.049.194-.1.283-.153.354-.187.707-.367 1.061-.547.18-.09.353-.173.526-.263.277-.135.561-.27.838-.402.264-.124.534-.246.797-.363.2-.09.394-.18.595-.264.36-.159.728-.311 1.095-.464.103-.041.207-.086.317-.131.472-.187.936-.371 1.414-.547 0 0 .021-.007.027-.007a54.662 54.662 0 0 1 9.884-2.626 56.651 56.651 0 0 1 4.779-.58c.152-.011.312-.025.465-.035.289-.021.581-.035.872-.049.332-.017.658-.035.99-.049.138-.006.278-.006.423-.01.464-.01.935-.024 1.405-.024h.126c1.121.007 2.236.042 3.344.107 0 0 .014.004.022.004.547.034 1.087.076 1.627.125.048.006.104.014.152.014.485.047.963.1 1.448.159.118.013.242.034.36.049.401.047.796.106 1.192.166.207.034.414.069.63.1.297.052.594.1.893.156.298.055.602.114.907.172.194.039.381.077.575.118.402.083.803.173 1.198.271.09.016.18.041.271.059a54.598 54.598 0 0 1 22.599 11.538c.027.021.055.048.083.069.353.306.699.609 1.046.925l.298.273c.27.246.54.499.803.752.173.155.339.322.505.484l.576.572c.075.083.159.163.234.246-4.216 17.207-16.011 36.687-31.462 36.687-.79 0-1.59-.051-2.398-.155"/>
	</g>
	<g clip-path="url(#aF)" transform="matrix(1.33333 0 0 -1.33333 0 793.707)">
		<g clip-path="url(#aG)">
			<g clip-path="url(#aH)" mask="url(#aI)" opacity=".2">
				<path fill="url(#aJ)" d="M317.792 286.689a37.171 37.171 0 0 1-4.156-.786c-18.45-8.196-29.006-29.588-41.846-29.238a12.72 12.72 0 0 0-3.748.672 24.8 24.8 0 0 1 .368-.544c0-.003.007-.003.007-.003.291-.415.588-.824.893-1.226.048-.069.097-.132.146-.197.256-.336.519-.676.782-1.008.104-.132.208-.26.312-.389.214-.262.429-.526.651-.782.159-.197.325-.387.491-.582.166-.19.333-.381.499-.567.228-.253.457-.506.685-.755a52.355 52.355 0 0 1 1.213-1.268 41.635 41.635 0 0 1 1.233-1.219l.062-.062a54.761 54.761 0 0 1 10.278-7.674.589.589 0 0 1 .09-.055c.409-.236.824-.464 1.24-.693.097-.049.194-.1.284-.152.353-.188.706-.367 1.059-.548.181-.09.354-.173.527-.263a43.519 43.519 0 0 1 1.635-.765c.2-.09.394-.18.595-.264.36-.159.727-.311 1.095-.464.104-.041.207-.086.318-.131.471-.187.935-.371 1.413-.548 0 0 .021-.006.027-.006a54.66 54.66 0 0 1 9.884-2.625c1.6-.263 3.193-.457 4.779-.581l.464-.036c.291-.02.582-.034.873-.047.332-.018.658-.036.99-.049.139-.007.277-.007.422-.011.465-.01.935-.023 1.407-.023h.124c1.122.005 2.237.041 3.345.106 0 0 .014.004.021.004.548.034 1.088.076 1.628.125.048.007.104.014.152.014.485.047.963.1 1.448.159.118.013.242.034.36.049.402.047.797.106 1.191.166.208.034.416.069.631.1.297.052.595.1.893.155l.907.173c.194.039.381.076.575.118.402.083.803.173 1.198.271.091.017.18.041.27.059a54.596 54.596 0 0 1 22.6 11.538c.028.021.055.048.083.069.353.306.7.609 1.046.925.097.091.201.183.298.273.27.246.54.499.803.752.173.155.339.322.506.485.187.187.381.377.574.571.077.083.16.163.236.246-4.433 18.087-17.238 38.685-33.861 36.531"/>
			</g>
		</g>
	</g>
	<g clip-path="url(#aK)" transform="matrix(1.33333 0 0 -1.33333 0 793.707)">
		<path fill="url(#aL)" d="M317.799 286.69c-21.977-2.851-37.089-25.468-50.657-22.815a12.902 12.902 0 0 0-3.601 1.288c15.458-10.174 33.556 15.335 55.532 18.186 6.101.791 12.155-.822 17.605-4.421-4.749 4.816-10.328 7.918-16.481 7.918-.79 0-1.59-.051-2.398-.156"/>
	</g>
	<g clip-path="url(#aM)" transform="matrix(1.33333 0 0 -1.33333 0 793.707)">
		<path fill="url(#aN)" d="M292.124 297.895c-17.432-.152-21.823 15.687-23.43 22.132a54.368 54.368 0 0 1-7.329-14.091l-.124-.377a54.071 54.071 0 0 1-.692-2.199c-.063-.239-.132-.481-.194-.72-.139-.496-.263-.998-.388-1.496a28.157 28.157 0 0 1-.18-.735c-.105-1.316 6.884-13.384 25.979-12.203 14.517.897 20.529 7.189 37.193 10.417 16.657 3.227 40.475-8.948 43.467-19.466 2.2 13.144-.31 25.606-6.588 36.25-.044.075-.679.704-.722.729-4.747 2.771-9.166 3.902-13.373 3.903-18.422.002-32.843-21.665-53.619-22.144"/>
	</g>
	<g clip-path="url(#aO)" transform="matrix(1.33333 0 0 -1.33333 0 793.707)">
		<g clip-path="url(#aP)" mask="url(#aQ)">
			<g clip-path="url(#aR)" mask="url(#aS)" opacity=".25">
				<path fill="url(#aT)" d="M285.766 288.206c14.517.897 20.529 7.189 37.192 10.417 16.658 3.227 40.476-8.948 43.468-19.466 2.196 13.11-.242 25.458-6.487 36.086-.059.101-.935 1.014-1.074 1.093-24.933 14.042-41.319-17.855-66.741-18.44-17.433-.153-21.824 15.687-23.43 22.132a54.403 54.403 0 0 1-7.328-14.092l-.125-.377a55.692 55.692 0 0 1-.692-2.199c-.063-.239-.132-.481-.195-.72-.138-.495-.262-.998-.387-1.496a21.886 21.886 0 0 1-.18-.735c-.104-1.316 6.884-13.384 25.979-12.203"/>
			</g>
		</g>
	</g>
	<g clip-path="url(#aU)" transform="matrix(1.33333 0 0 -1.33333 0 793.707)">
		<path fill="url(#aV)" d="M278.362 330.337c1.551-11.031 6.15-19.527 12.918-21.605 10.104-3.1 29.704 13.848 41.943 18.198 5.651 2.007 11.206 2.23 16.047 1.675-7.423 6.66-16.843 11.519-27.489 13.302a54.655 54.655 0 0 1-9.021.752c-12.814 0-24.892-4.548-34.398-12.322"/>
	</g>
	<g clip-path="url(#aW)" transform="matrix(1.33333 0 0 -1.33333 0 793.707)">
		<g clip-path="url(#aX)">
			<g clip-path="url(#aY)" mask="url(#aZ)" opacity=".3">
				<path fill="url(#ba)" d="M309.681 327.116c13.922 5.853 34.707 2.051 39.555 1.493-7.254 6.604-16.844 11.493-27.503 13.28-16.124 2.695-31.645-1.987-43.371-11.552 13.132-6.306 23.271-5.894 31.319-3.221"/>
			</g>
		</g>
		<g clip-path="url(#bb)">
			<g clip-path="url(#bc)" mask="url(#bd)" opacity=".2">
				<path fill="url(#be)" d="M309.681 327.116c13.922 5.853 34.741 2.047 39.59 1.489a54.691 54.691 0 0 1-27.538 13.284c-16.124 2.695-31.645-1.987-43.371-11.552 13.132-6.306 23.271-5.894 31.319-3.221"/>
			</g>
		</g>
	</g>
	<g clip-path="url(#bf)" transform="matrix(1.33333 0 0 -1.33333 0 793.707)">
		<path fill="url(#bg)" d="M332.485 320.027c-12.238-4.352-28.289-18.786-39.211-18.136-7.813.471-19.442 7.422-24.512 18.219l-.041-.066v-.045c.007.008.007.015.015.022 1.606-6.445 5.877-21.765 22.869-23.53 10.496-.387 19.515 5.676 28.295 11.738 12.612 8.708 24.734 17.415 40.04 7.014 0 0-3.957 5.124-11.866 6.457a25.363 25.363 0 0 1-4.5.396c-3.328 0-7.01-.62-11.089-2.069"/>
	</g>
	<g clip-path="url(#bh)" transform="matrix(1.33333 0 0 -1.33333 0 793.707)">
		<path fill="url(#bi)" d="M259.197 297.202c-.784-4.689-.941-9.062-.536-13.588.458-2.953 1.606-4.487 1.841-4.804 2.061-2.787 4.547-4.694 8.275-5.425 13.567-2.653 28.344 18.303 50.338 20.957 15.38 1.856 25.132-8.274 30.974-18.405 5.4-9.365 7.458-18.731 7.531-18.625a54.2 54.2 0 0 1 8.875 21.918c-.006.014-.006.035-.006.049l-.022-.129c-2.998 10.518-26.803 22.696-43.473 19.465-16.665-3.227-22.669-9.519-37.186-10.416-19.095-1.181-26.083 10.887-25.98 12.204a54.379 54.379 0 0 1-.631-3.201"/>
	</g>
	<g fill="#231916" clip-path="url(#bj)" transform="matrix(1.33333 0 0 -1.33333 0 793.707)">
		<path d="M418.931 251.256c1.017.099 1.831.364 2.442.795.611.431.917.946.917 1.547 0 .339-.113.618-.339.837-.226.218-.52.329-.88.329-.607 0-1.119-.283-1.536-.849-.417-.564-.625-1.271-.625-2.119a6.082 6.082 0 0 1 .021-.54m.063-.806c.106-.918.403-1.614.891-2.087.487-.473 1.151-.71 1.992-.71.614 0 1.142.099 1.584.297.441.198.867.534 1.277 1.006.07.085.158.198.265.34.155.219.278.328.371.328a.255.255 0 0 0 .195-.085.278.278 0 0 0 .08-.201c0-.148-.143-.445-.429-.89a14.867 14.867 0 0 0-1.128-1.494c-.29-.346-.605-.563-.944-.652-.339-.088-.873-.132-1.6-.132-1.399 0-2.474.372-3.226 1.118-.753.745-1.129 1.806-1.129 3.184 0 1.448.427 2.677 1.282 3.687.855 1.01 1.879 1.516 3.073 1.516.812 0 1.465-.222 1.955-.663.491-.442.737-1.029.737-1.764 0-.424-.461-.883-1.383-1.378-.922-.494-2.209-.968-3.863-1.42m18.636-4.323c-2.648 0-4.71.662-6.183 1.987-1.472 1.325-2.209 3.173-2.209 5.547 0 2.706.905 4.843 2.712 6.411 1.809 1.568 4.296 2.352 7.46 2.352 1.724 0 3.342-.205 4.854-.614 1.512-.41 2.267-.752 2.267-1.028 0-.092-.113-.349-.338-.774a61.23 61.23 0 0 1-.223-.413 7.716 7.716 0 0 1-.223-.498c-.141-.324-.264-.488-.371-.488a.435.435 0 0 0-.26.075.226.226 0 0 0-.1.191c0 .014.021.091.063.232.043.142.064.273.064.393 0 .607-.444 1.084-1.329 1.43-.887.346-2.115.519-3.683.519-2.593 0-4.684-.692-6.272-2.076-1.59-1.385-2.385-3.193-2.385-5.426 0-2.02.671-3.643 2.013-4.869 1.342-1.225 3.129-1.838 5.362-1.838 1.186 0 2.396.171 3.63.514 1.232.343 2.519.863 3.861 1.562.227.127.474.28.742.457.269.176.431.264.487.264.05 0 .085-.021.107-.063a.572.572 0 0 0 .031-.223v-.17a.572.572 0 0 0-.048-.275c-.031-.057-.125-.137-.28-.243-1.378-.898-2.946-1.611-4.705-2.141-1.759-.529-3.44-.795-5.044-.795m14.57 4.196v5.786c0 .339-.006.727-.017 1.165-.01.439-.015.717-.015.837a30.006 30.006 0 0 1-.149 3.063c0 .17.149.282.446.338.176.036.328.068.455.096.431.092.853.204 1.266.339.413.134.631.201.652.201.064 0 .12-.031.17-.095a.37.37 0 0 0 .074-.233c0-.05-.144-.166-.43-.35-.286-.183-.468-.406-.545-.668-.113-.367-.192-1.17-.238-2.41-.047-1.24-.069-3.678-.069-7.316v-1.23c0-1.01.037-1.644.111-1.902.074-.258.225-.387.45-.387.184 0 .387.037.61.112l.336.111c.072 0 .128-.035.177-.106a.412.412 0 0 0 .074-.244c0-.141-.218-.279-.656-.413a7.677 7.677 0 0 1-.753-.255 6.876 6.876 0 0 1-1.256-.677c-.406-.276-.637-.413-.693-.413-.1 0-.186.037-.26.111a.355.355 0 0 0-.111.26.99.99 0 0 0 .02.116c.234.925.351 2.313.351 4.164m10.995 4.291c-.805 0-1.42-.27-1.844-.81-.424-.541-.635-1.327-.635-2.358 0-1.186.312-2.177.938-2.972.625-.795 1.39-1.192 2.294-1.192.756 0 1.368.269 1.838.806.47.536.705 1.243.705 2.119 0 1.293-.31 2.35-.928 3.174-.618.822-1.407 1.233-2.368 1.233m.604 1.061c1.321 0 2.363-.411 3.126-1.23.763-.819 1.145-1.942 1.145-3.369 0-1.399-.46-2.566-1.378-3.503-.919-.936-2.062-1.403-3.434-1.403-1.285 0-2.29.391-3.014 1.175-.724.785-1.086 1.869-1.086 3.253 0 1.527.428 2.753 1.282 3.683.855.929 1.975 1.394 3.359 1.394m15.119-7.895c-.501-.247-1.127-.565-1.875-.953-.884-.467-1.413-.7-1.59-.7-1.016 0-1.761.325-2.23.975-.47.65-.704 1.685-.704 3.105 0 .345.013.92.042 1.721.028.802.042 1.429.042 1.881 0 .099-.014.249-.042.45a3.456 3.456 0 0 0-.042.461c0 .057.123.124.37.202a17.704 17.704 0 0 1 1.446.545c.321.138.497.208.525.208a.423.423 0 0 0 .254-.07.216.216 0 0 0 .096-.185c0-.085-.076-.205-.229-.361a2.084 2.084 0 0 1-.333-.424c-.169-.289-.292-.673-.366-1.154-.074-.48-.111-1.208-.111-2.183 0-1.349.164-2.294.493-2.834.328-.54.888-.811 1.68-.811.289 0 .665.066 1.128.201.463.134.963.325 1.5.572v4.652c0 .827-.167 1.325-.498 1.494-.065.028-.096.057-.096.085 0 .226.085.36.254.402.05.008.096.018.138.033.311.112.643.257.996.434.353.176.558.265.615.265.092 0 .197-.057.317-.17.12-.112.181-.208.181-.286 0-.007-.008-.039-.022-.095a7.113 7.113 0 0 1-.201-1.346 48.712 48.712 0 0 1-.063-1.933 143.86 143.86 0 0 1-.022-2.665c0-.756.025-1.481.075-2.173.006-.106.01-.169.01-.191 0-.162-.244-.376-.731-.641s-.791-.397-.911-.397c-.042 0-.073.03-.09.09-.018.06-.027.16-.027.302v.318c0 .155.001.331.005.53.004.198.009.413.016.646m13.328 5.88a9.884 9.884 0 0 1-1.436.419 6.56 6.56 0 0 1-1.319.143c-.919 0-1.559-.21-1.923-.631-.364-.42-.546-1.163-.546-2.231 0-1.108.25-1.965.752-2.569.502-.604 1.212-.905 2.13-.905.509 0 .964.092 1.367.28.403.187.658.426.763.715.049.156.09.561.122 1.218.031.658.062 1.844.09 3.561m-.17-5.669c-.12-.099-.278-.24-.476-.424-.933-.841-1.713-1.261-2.342-1.261-1.258 0-2.185.316-2.782.949-.596.632-.895 1.616-.895 2.951 0 1.681.443 3.013 1.33 3.994.887.982 2.085 1.474 3.598 1.474.212 0 .509-.033.894-.096.385-.064.666-.103.843-.116 0 .564.007 1.172.021 1.822v.328c0 1.23-.049 2.36-.148 3.391a3.377 3.377 0 0 0-.021.255c0 .162.169.271.508.328.092.014.169.028.234.042.387.078.811.198 1.271.36.459.163.72.244.784.244a.275.275 0 0 0 .202-.085.275.275 0 0 0 .085-.201c0-.092-.146-.214-.435-.365a1.108 1.108 0 0 1-.572-.673c-.114-.396-.201-1.538-.266-3.429-.063-1.888-.095-4.363-.095-7.422v-1.282c0-.607.023-.998.069-1.171.046-.173.136-.259.27-.259.191 0 .42.041.689.122.268.081.431.122.487.122a.25.25 0 0 0 .186-.085.286.286 0 0 0 .08-.201c0-.164-.205-.304-.616-.424-.24-.072-.437-.135-.592-.192a11.994 11.994 0 0 1-1.363-.555l-.623-.303a.453.453 0 0 0-.293.112c-.091.073-.137.15-.137.228 0 .028.006.081.021.158.07.332.106.664.106.997 0 .014-.004.049-.011.106-.007.19-.011.377-.011.561m15.183 12.632c-.07-2.155-.124-4.177-.159-6.066-.035-1.89-.053-3.52-.053-4.891 0-.868.064-1.407.191-1.615.127-.209.381-.314.763-.314.127 0 .298.019.514.054.215.035.361.053.439.053.057 0 .092-.011.107-.032.013-.021.02-.088.02-.202 0-.232-.183-.378-.551-.434a8.002 8.002 0 0 1-1.048-.201 11.333 11.333 0 0 1-2.13-.785 1.213 1.213 0 0 0-.244-.105c-.099 0-.169.017-.212.053-.042.035-.064.091-.064.17 0 .035.037.177.112.428.074.251.122.483.143.695.07.55.121 1.504.153 2.861.032 1.355.048 3.122.048 5.298v.974c0 1.484-.023 2.469-.069 2.956-.046.488-.125.791-.238.913-.114.119-.344.208-.695.264-.349.057-.863.085-1.541.085-.798 0-1.463-.039-1.992-.117-.53-.077-.965-.197-1.304-.36a1.943 1.943 0 0 1-.603-.471c-.184-.209-.308-.314-.371-.314a.189.189 0 0 0-.164.085.43.43 0 0 0-.059.245l.011.148c.007.091.011.187.011.286 0 .197-.007.431-.022.699-.014.268-.021.438-.021.508v.351c0 .134.028.221.085.264.056.042.152.064.286.064.05 0 .219-.004.509-.011 1.885-.05 3.829-.074 5.828-.074 2.578 0 5.199.017 7.862.054.536.006.861.009.975.009.127 0 .212-.013.254-.042.042-.028.064-.088.064-.18 0-.445-.181-.675-.541-.689h-.085a65.525 65.525 0 0 1-3.168-.222 46.813 46.813 0 0 1-3.041-.392m8.305-9.367c1.017.099 1.831.364 2.442.795.611.431.916.946.916 1.547 0 .339-.113.618-.338.837-.227.218-.52.329-.88.329-.608 0-1.119-.283-1.536-.849-.417-.564-.625-1.271-.625-2.119a6.438 6.438 0 0 1 .021-.54m.063-.806c.106-.918.403-1.614.89-2.087.487-.473 1.151-.71 1.992-.71.615 0 1.143.099 1.584.297.442.198.867.534 1.278 1.006.07.085.158.198.264.34.156.219.28.328.371.328a.256.256 0 0 0 .196-.085.283.283 0 0 0 .08-.201c0-.148-.144-.445-.43-.89a14.57 14.57 0 0 0-1.128-1.494c-.29-.346-.604-.563-.943-.652-.339-.088-.872-.132-1.6-.132-1.399 0-2.474.372-3.226 1.118-.753.745-1.129 1.806-1.129 3.184 0 1.448.427 2.677 1.282 3.687.854 1.01 1.879 1.516 3.073 1.516.812 0 1.464-.222 1.955-.663.49-.442.737-1.029.737-1.764 0-.424-.461-.883-1.383-1.378-.922-.494-2.21-.968-3.863-1.42m14.038-4.206c-1.42 0-2.486.35-3.199 1.049-.714.699-1.071 1.745-1.071 3.137 0 1.518.431 2.772 1.292 3.76.863.99 1.957 1.485 3.286 1.485.614 0 1.241-.103 1.88-.308.64-.205.959-.375.959-.509 0-.148-.095-.45-.286-.906-.19-.455-.317-.684-.382-.684-.048 0-.205.072-.465.213-1.025.565-1.918.848-2.681.848-.707 0-1.252-.235-1.638-.705-.384-.47-.577-1.139-.577-2.008 0-1.158.29-2.084.869-2.776.579-.693 1.367-1.038 2.364-1.038.543 0 1.012.075 1.409.227.395.152.741.387 1.038.705.141.141.277.331.408.572.13.24.249.36.355.36a.315.315 0 0 0 .217-.079.251.251 0 0 0 .09-.197c0-.105-.117-.356-.349-.751-.234-.396-.524-.82-.87-1.272-.346-.445-.701-.744-1.064-.895-.364-.152-.893-.228-1.585-.228m9.715 7.956c.841.537 1.544.917 2.108 1.14.566.222 1.085.334 1.558.334.869 0 1.521-.338 1.955-1.013.435-.674.652-1.69.652-3.046 0-.382-.016-.887-.047-1.516a115.6 115.6 0 0 0-.144-2.267c.382.177.648.292.801.345.151.052.28.079.386.079.036 0 .058-.005.069-.016.011-.011.019-.048.026-.111v-.138c0-.198-.166-.35-.498-.456-.345-.112-.66-.226-.942-.339-.432-.19-.854-.409-1.267-.656a42.762 42.762 0 0 0-.627-.371.362.362 0 0 0-.253.1c-.074.068-.111.136-.111.206a.496.496 0 0 0 .106.149c.586.629.879 1.717.879 3.264 0 1.702-.181 2.864-.545 3.486-.364.621-.987.932-1.87.932-.353 0-.701-.061-1.044-.185a2.894 2.894 0 0 1-.917-.535.798.798 0 0 1-.206-.387c-.046-.173-.069-.475-.069-.906v-5.16c0-.212-.12-.371-.36-.477a2.403 2.403 0 0 1-.075-.032 8.498 8.498 0 0 0-.704-.291 1.354 1.354 0 0 0-.355-.09c-.042 0-.07.026-.085.079a1.268 1.268 0 0 0-.021.281v12.461c0 .134-.004.282-.01.446a9.124 9.124 0 0 0-.011.274c0 .453-.037.742-.111.869-.075.128-.217.192-.429.192-.135 0-.29-.008-.467-.022a5.01 5.01 0 0 0-.339-.021c-.085 0-.139.01-.164.032-.025.021-.037.067-.037.137 0 .198.205.339.614.424l.509.117c.649.163 1.272.353 1.865.572.149.056.23.085.243.085.064 0 .127-.039.192-.116a.402.402 0 0 0 .095-.255c0-.014-.007-.06-.021-.138-.22-1.073-.329-2.547-.329-4.419z"/>
		<path fill-rule="evenodd" d="M427.509 324.139h.54c.895 0 1.613-.089 2.153-.274h1.073c.717-.532 3.055-1.165 7.007-1.883 0-.536.266-.988.806-1.346v-.807l-1.612-.54v-.27l.265-.807-.54-.54v-.266l1.614-1.621c-.356-.177-1.339-.355-2.96-.536h-.267c0-.899-3.322-1.972-9.966-3.23-.717-.362-1.887-.991-3.5-1.887-1.08 0-3.056-.717-5.926-2.153-.895-1.08-2.694-1.975-5.387-2.693v.266c3.41 1.617 6.37 3.322 8.886 5.121v.266c-5.564-.895-9.604-1.347-12.12-1.347l-2.959-.536c-1.798 0-3.322 1.706-4.58 5.116v.271c.177.177 2.693.899 7.539 2.152 9.516 3.77 14.991 5.657 16.426 5.657zm2.959-14.813s-.178-.27-.54-.806l.274-.275h-.274v-.266c0 .541-.266.806-.807.806h-1.072c-2.879-3.056-4.854-4.579-5.927-4.579-12.934-4.488-20.288-6.734-22.086-6.734v.274l2.693 2.694v.266c-2.693-2.33-4.669-3.5-5.927-3.5l-1.887.266-.532-.266-1.081.266c-.363 0-.54-.447-.54-1.346l-1.612-1.072v-.275c1.08-3.951 1.612-6.459 1.612-7.54 0-1.258.718-2.063 2.153-2.419l2.427.267c.895 0 4.129 1.076 9.701 3.233 0 1.072.177 1.612.532 1.612l.267-1.345-9.153-6.46c-1.613-.181-2.427-.633-2.427-1.347-1.25 0-2.331-.718-3.226-2.156-.717 0-1.08-.271-1.08-.811-.718-.354-1.081-.895-1.081-1.613v-1.347c-.532 0-.806-.089-.806-.269v-.536l.274-1.081c-.363-1.077-.54-2.423-.54-4.04v-.266c0-1.621 1.887-2.964 5.652-4.04l4.846.266c2.162 0 6.919.992 14.281 2.963.178 1.077.532 1.617 1.073 1.617.363 0 2.338 1.528 5.927 4.581.895 0 1.347.176 1.347.536v.269h-1.621c-.177 0-.444.629-.807 1.887.363.541 1.258 1.259 2.694 2.153h-.266l-3.234-1.08c-.54 0-.806.089-.806.274v.266c.717 0 1.258.271 1.612.811v.27l-.265.266c.895.362 1.346.806 1.346 1.347.54 0 .807.177.807.54 2.87 1.072 4.579 1.975 5.12 2.693h-.274c-8.258-3.056-14.362-4.58-18.313-4.58l1.621 2.427.266-.27c.54 0 4.305 2.241 11.313 6.73 5.209 4.128 8.798 6.732 10.774 7.813l.805-.274 2.154.54.54-.266c1.79.714 3.233 1.072 4.306 1.072 1.08 0 1.621.992 1.621 2.968-.541 1.435-1.258 2.693-2.162 3.766-2.684.54-4.572 1.435-5.652 2.693l-.807-.536c0 .358-.362 1.076-1.08 2.157h.275v.536h-1.081v-.536c-.718 0-1.169.265-1.347.806m3.233-20.739 1.081-1.614.533.266-.533.807c1.613-.536 3.403-2.065 5.378-4.576 1.977-2.69 3.5-7.27 4.58-13.737v-.806c-1.434-1.976-2.603-2.959-3.499-2.959 0-1.081-.983-1.888-2.959-2.427-.718 1.257-2.073 2.785-4.04 4.579 0 .719-.629 1.436-1.887 2.153v2.154l-.274.81-2.153.27-1.072-.27c0 .722-.993 1.076-2.968 1.076h-.807v.271c5.565.722 8.347 2.963 8.347 6.732.54.9.814 1.795.814 2.695v1.076c0 1.076-.452 2.246-1.346 3.5h.532zm37.623 35.011h.813c2.332-2.693 3.678-6.193 4.041-10.507v-3.499l.541.27v-.536l5.652 4.306h.266v-.266l-3.5-4.04h.541c6.459 3.052 12.385 6.104 17.772 9.152v.274l-1.347.266c-1.612 0-4.217-.718-7.805-2.153 2.507 1.798 3.765 2.871 3.765 3.234v.266c-2.87.54-4.305.992-4.305 1.346 2.693 2.339 5.023 3.593 6.999 3.774l.54-.274h.266l1.347.274c4.669-1.435 7.096-2.874 7.273-4.314l1.887-.536.266.27h.274c2.508-.54 3.766-1.077 3.766-1.617l-.266-3.229.54-1.887-3.773-1.081-1.074.275-8.353-4.04-4.58-2.428c-2.686-1.258-4.129-2.241-4.307-2.959h.541c.895 0 1.79.536 2.693 1.613 4.67-.537 7.089-1.165 7.274-1.883v-.811c-.726 0-1.081-.354-1.081-1.076 0-.359.267-.536.807-.536l.274-.541c-9.338-2.516-13.918-5.297-13.741-8.345v-.275h.274c5.024 1.799 8.346 3.323 9.959 4.58 4.315-.177 6.467-.717 6.467-1.612v-.274l-1.081-.536v-1.078h1.355v-.805c-7.547-3.235-12.749-5.298-15.627-6.198-1.258-1.971-1.79-4.216-1.613-6.728 3.766 3.047 8.435 5.918 14.007 8.611.718 1.621 1.878 2.516 3.499 2.694h1.887c3.049-1.258 4.573-2.153 4.573-2.694v-.536l-7.266-11.849.266-.266c.178-1.799-.451-2.782-1.887-2.968-4.305-.354-7.991.275-11.039 1.887v.27l.266.27c4.307.178 7.008 2.242 8.08 6.193.363 0 .895.991 1.621 2.964h-.541c-8.257-3.593-12.305-7.004-12.119-10.237-1.613-2.508-2.968-3.766-4.04-3.766 0 .536-.629.806-1.887.806l-1.613 3.77c2.33 6.104 4.129 10.06 5.387 11.85-.363 2.153-1.081 3.862-2.154 5.116 0 .36 1.25 1.883 3.767 4.576l-1.887 5.927h-.266l-5.121-2.423c-2.694-.181-4.128 1.528-4.306 5.116l-.54.27h-.807l-4.313-7.003.54-3.5.54-6.467 2.959 4.847h.541v-.532c-1.976-3.235-3.589-7.54-4.847-12.926l-3.766-11.855c-.903-.358-1.797-1.165-2.693-2.419-1.798 1.254-3.322 1.972-4.58 2.154l-.274 3.229-.533 2.694-.274 1.346c2.694 2.698 5.032 8.261 7 16.696l.273 2.423h-.273l-1.072-.27v.811l-.807-.541c-.903.182-1.347.899-1.347 2.157l-.54-.274h-.54v.814h-.266l-2.154-1.346-.274.266v.266l1.081 9.16c.895.178 3.766 4.04 8.612 11.58 1.444 1.435 2.065 2.782 1.887 4.04l-.532.806c0 .722 1.339 1.529 4.032 2.427m87.074 2.694c-.902-.178-1.354-.629-1.354-1.347-3.048-1.975-5.113-3.681-6.193-5.116v-.27l7.008 1.886.539-.274-1.08-8.886h-1.347c0 1.081-.895 1.798-2.693 2.157l2.693-7.274c-5.031-3.946-8.797-6.011-11.313-6.196l-1.347 1.08-.807-.806v-.54c.178-2.517 3.412-4.399 9.702-5.653.177-2.516-4.226-7.451-13.201-14.813v-.54l.54-.266h.267l.54.266.266.273 1.346-1.349 2.694.81.806-.81 2.162.54 2.418-.271h.807l2.161.541c1.073 0 3.137 5.475 6.193 16.425 2.871.178 5.83 2.153 8.886 5.923l-.541 1.076.807 1.081v.537l-.54 1.616c0 .359-1.879 1.887-5.652 4.58-.356 3.948 1.257 8.435 4.853 13.467v.536c-.184 1.076-3.056 1.617-8.62 1.617m-29.626-10.773c-1.443 0-2.604-6.822-3.508-20.466.186-2.875 1.621-7.362 4.315-13.467v-.54c-3.588-1.257-5.564-2.511-5.927-3.765l-1.612-6.738c.532-3.592 2.33-5.293 5.386-5.116h.54l2.419.81 12.926.266 19.659-4.036c9.878 1.254 14.725 2.508 14.548 3.77v.266l-.541.537c2.879.903 4.218 1.979 4.04 3.233v.54l-.54.271c0 .717.992 1.165 2.967 1.342v.811l-11.587.81-7.54-.81-1.072-.536v.265l-1.887-.54-15.079 1.887c-4.847.54-7.37 1.976-7.54 4.311-5.927 7.72-8.983 12.389-9.16 14.001l2.693 11.044a41.24 41.24 0 0 1-2.968 12.116zm34.198-24.506c.718-.899 4.048-3.056 9.967-6.468 2.693-2.152 4.04-4.128 4.04-5.921-.354-1.795-1.347-2.787-2.959-2.964h-.54c-2.153-.178-4.58 1.886-7.274 6.197-.717 0-1.435.447-2.153 1.343l1.073 1.345c-.71 2.335-1.702 4.4-2.959 6.194l.54.274z"/>
	</g>
</svg>
