<svg xmlns="http://www.w3.org/2000/svg" viewBox="33.59 29.09 233.31 242.06">
	<defs>
		<clipPath id="b">
			<path fill="none" d="M0 0h226v169H0z" data-name="矩形 1056" transform="translate(38 32)"/>
		</clipPath>
		<clipPath id="a">
			<path d="M0 0h300v300H0z"/>
		</clipPath>
	</defs>
	<g clip-path="url(#a)" data-name="easemesh – 4">
		<g data-name="蒙版组 1">
			<g data-name="组 1225" clip-path="url(#b)">
				<path fill="#39d1ff" d="M134.936 50.232c-4.742-6.493-6.807-12.884-5.639-16.322 4.461 1.072 10.504 5.786 15.247 12.28s6.809 12.883 5.64 16.321c-4.46-1.07-10.506-5.785-15.248-12.279z" data-name="路径 1450"/>
				<path fill="#39d1ff" d="M165.009 50.2c4.742-6.493 6.806-12.883 5.638-16.321-4.46 1.07-10.504 5.786-15.247 12.28s-6.808 12.883-5.64 16.32c4.462-1.071 10.507-5.785 15.249-12.279z" data-name="路径 1449"/>
				<path fill="#8b9ff4" d="M154.904 89.267c-38.171-32.03-81.171-47.08-109.061-40.748-1.393 28.566 20.896 68.3 59.067 100.329s81.172 47.081 109.063 40.75c1.392-28.567-20.896-68.3-59.069-100.331z" data-name="路径 1448"/>
				<path fill="#8b9ff4" d="M145.094 89.268c38.171-32.03 81.172-47.08 109.062-40.747 1.392 28.566-20.897 68.298-59.068 100.328s-81.172 47.081-109.062 40.75c-1.393-28.566 20.896-68.3 59.068-100.33z" data-name="路径 1447"/>
				<path fill="#2f54eb" d="M104.911 148.849q-3.009-2.525-5.887-5.113c10.15-18.449 25.891-37.536 46.07-54.468q2.439-2.047 4.905-4 2.463 1.954 4.905 4c20.179 16.932 35.921 36.019 46.07 54.469q-2.876 2.585-5.887 5.112a209.947 209.947 0 0 1-45.089 29.188 209.941 209.941 0 0 1-45.087-29.188z" data-name="路径 1446"/>
			</g>
		</g>
		<path fill="#2f54eb" d="M38.252 266v-42h21.336l-.672 6.552H46.484v10.024h8.848l-.056 7.056h-8.792v11.816h13.552L59.364 266zm31.7.728a5.789 5.789 0 0 1-3.64-1.26 8.191 8.191 0 0 1-2.52-3.416 12.515 12.515 0 0 1-.9-4.844q0-6.1 4.172-8.6a21.149 21.149 0 0 1 9.716-2.828 18.7 18.7 0 0 0-.392-4.48 1.793 1.793 0 0 0-1.9-1.456 2.208 2.208 0 0 0-1.96 1.008 5.678 5.678 0 0 0-.84 2.576l-7.672-1.344q.56-4.312 3.528-6.16a12.865 12.865 0 0 1 6.944-1.848q5.1 0 7.644 2.688a9.758 9.758 0 0 1 2.548 7v16.3a20.6 20.6 0 0 0 .84 5.6l-7.672.672-.9-3.864a8.5 8.5 0 0 1-2.968 3.028 7.484 7.484 0 0 1-4.032 1.228zm3.64-5.6a2.727 2.727 0 0 0 1.6-.448 11.126 11.126 0 0 0 1.6-1.456v-8.736A6.444 6.444 0 0 0 72.3 252a6.024 6.024 0 0 0-1.68 4.7 5.948 5.948 0 0 0 .756 3.276 2.482 2.482 0 0 0 2.212 1.152zm26.988 5.6a12.368 12.368 0 0 1-7.5-2.1 9.579 9.579 0 0 1-3.7-5.852l6.1-2.016a4.878 4.878 0 0 0 .84 1.9 4.286 4.286 0 0 0 3.752 1.848 6.157 6.157 0 0 0 2.692-.608 2.009 2.009 0 0 0 1.288-1.9q0-1.736-2.408-2.688l-6.608-2.688A8.554 8.554 0 0 1 91 249.256a10.16 10.16 0 0 1-1.4-5.488 9.043 9.043 0 0 1 1.484-5.208 9.589 9.589 0 0 1 3.92-3.332 12.128 12.128 0 0 1 5.236-1.148 11.213 11.213 0 0 1 6.5 2.044 9.84 9.84 0 0 1 3.976 5.576l-6.5 2.016a6.856 6.856 0 0 0-.784-1.9 3.643 3.643 0 0 0-3.132-1.916 4.377 4.377 0 0 0-2.408.644 2.09 2.09 0 0 0-1.008 1.876q0 1.456 2.744 2.688l5.6 2.3a12.671 12.671 0 0 1 4.648 3.528 8.967 8.967 0 0 1 1.68 5.712 9.461 9.461 0 0 1-1.568 5.516 9.838 9.838 0 0 1-4.088 3.416 12.685 12.685 0 0 1-5.32 1.148zm25.872 0a9.671 9.671 0 0 1-8.568-4.452q-2.968-4.452-2.968-11.844 0-7.5 3.024-11.928a9.985 9.985 0 0 1 8.792-4.424 9.449 9.449 0 0 1 8.4 4.424q2.912 4.424 2.912 11.928a.986.986 0 0 1-.168.644q-.168.2-.168.252h-14.952a21.836 21.836 0 0 0 .952 6.636q.952 3 2.912 3 2.184 0 3.248-2.52t1.12-2.632l5.936 2.24a13.36 13.36 0 0 1-3.752 6.348 9.648 9.648 0 0 1-6.72 2.328zm3.864-19.936a13.012 13.012 0 0 0-.9-5.32 2.943 2.943 0 0 0-2.8-1.96 2.567 2.567 0 0 0-1.848.952 7.036 7.036 0 0 0-1.452 2.636 11.63 11.63 0 0 0-.56 3.7zm41.104 19.544v-31.528L163.58 266h-5.04l-8.456-31.3v30.964l-6.776.336v-41.608l12.04-.336 6.944 25.984 6.664-25.032 10.976-.672v41.328zm25.872.392a9.671 9.671 0 0 1-8.568-4.452q-2.968-4.452-2.968-11.844 0-7.5 3.024-11.928a9.985 9.985 0 0 1 8.792-4.424 9.449 9.449 0 0 1 8.4 4.424q2.912 4.424 2.912 11.928a.986.986 0 0 1-.168.644q-.168.2-.168.252H193.6a21.836 21.836 0 0 0 .952 6.636q.952 3 2.912 3 2.184 0 3.248-2.52t1.12-2.632l5.936 2.24a13.36 13.36 0 0 1-3.756 6.348 9.648 9.648 0 0 1-6.72 2.328zm3.864-19.936a13.012 13.012 0 0 0-.9-5.32 2.943 2.943 0 0 0-2.8-1.96 2.567 2.567 0 0 0-1.848.952 7.036 7.036 0 0 0-1.452 2.636 11.631 11.631 0 0 0-.56 3.7zm21.896 19.936a12.368 12.368 0 0 1-7.5-2.1 9.579 9.579 0 0 1-3.7-5.852l6.1-2.016a4.878 4.878 0 0 0 .84 1.9 4.286 4.286 0 0 0 3.752 1.848 6.157 6.157 0 0 0 2.692-.608 2.009 2.009 0 0 0 1.288-1.9q0-1.736-2.408-2.688l-6.608-2.688a8.554 8.554 0 0 1-4.032-3.36 10.16 10.16 0 0 1-1.4-5.488 9.043 9.043 0 0 1 1.484-5.216 9.589 9.589 0 0 1 3.92-3.332 12.128 12.128 0 0 1 5.236-1.148 11.213 11.213 0 0 1 6.5 2.044 9.84 9.84 0 0 1 3.972 5.576l-6.5 2.016a6.856 6.856 0 0 0-.784-1.9 3.643 3.643 0 0 0-3.136-1.9 4.377 4.377 0 0 0-2.408.644 2.09 2.09 0 0 0-1.008 1.876q0 1.456 2.744 2.688l5.6 2.3a12.671 12.671 0 0 1 4.648 3.528 8.967 8.967 0 0 1 1.68 5.712 9.461 9.461 0 0 1-1.564 5.5 9.838 9.838 0 0 1-4.088 3.416 12.685 12.685 0 0 1-5.32 1.148zm15.848-41.72 7.84-1.008v14.5q4.816-4.424 9.016-4.424a6.124 6.124 0 0 1 4.844 2.156 8.521 8.521 0 0 1 1.876 5.8v23.632l-7.84.672v-21.448a5.127 5.127 0 0 0-.756-3.08 2.368 2.368 0 0 0-1.988-1.008 5.191 5.191 0 0 0-2.128.5 33.619 33.619 0 0 0-3.024 1.624v22.74l-7.84.672z"/>
	</g>
</svg>
