<svg xmlns="http://www.w3.org/2000/svg" viewBox="30.53 22.53 238.68 258.18">
	<defs>
		<clipPath id="a">
			<path d="M0 0h300v300H0z"/>
		</clipPath>
	</defs>
	<g clip-path="url(#a)" data-name="easegress – 7">
		<path fill="#2f54eb" d="M103.05 179.99c-7.772-11.092-12.437-21.965-12.333-27.777 5.498 1.886 14.127 9.982 21.898 21.073s12.436 21.964 12.333 27.777c-5.5-1.887-14.126-9.983-21.898-21.074z" data-name="路径 1454" opacity=".82"/>
		<path fill="#2f54eb" d="M156.675 93.912c26.024-22.291 58.567-31.1 82.146-24.335 5.516 22.24-6.448 51.56-32.472 73.853s-58.568 31.098-82.146 24.335c-5.516-22.239 6.449-51.56 32.472-73.853z" data-name="路径 1455" opacity=".533"/>
		<path fill="#39d1ff" d="M172.676 159.307c19.775 4.565 34.876 16.328 39.176 29.021-9.429 9.524-28.158 13.477-47.933 8.911s-34.88-16.329-39.18-29.022c9.425-9.525 28.158-13.477 47.937-8.91z" data-name="路径 1452" opacity=".449"/>
		<path fill="#2f54eb" d="M102.368 92.518c6.98-31.864 28.561-56.889 53.057-64.802 19.65 14.204 29.292 43.68 22.311 75.543s-28.557 56.89-53.055 64.803c-19.65-14.205-29.293-43.68-22.313-75.544z" data-name="路径 1456" opacity=".85"/>
		<path fill="#4466ed" d="M102.368 92.518c6.98-31.864 28.561-56.889 53.057-64.802 19.65 14.204 29.292 43.68 22.311 75.543s-28.557 56.89-53.055 64.803c-19.65-14.205-29.293-43.68-22.313-75.544z" data-name="路径 1457"/>
		<path fill="#8da3ff" d="M156.675 93.912c26.024-22.291 58.567-31.1 82.146-24.335 5.516 22.24-6.448 51.56-32.472 73.853s-58.568 31.098-82.146 24.335c-5.516-22.239 6.449-51.56 32.472-73.853z" data-name="路径 1458"/>
		<path fill="#2f54eb" d="M124.115 167.406c-5.3-22.195 6.677-51.32 32.561-73.494a118.689 118.689 0 0 1 23.33-15.649 100.393 100.393 0 0 1-2.235 23.071c-6.969 32.712-28.541 58.409-53.033 66.542q-.314-.233-.623-.47z" data-name="路径 1459" opacity=".999"/>
		<path fill="#39d1ff" d="M172.676 159.307c19.775 4.565 34.876 16.328 39.176 29.021-9.429 9.524-28.158 13.477-47.933 8.911s-34.88-16.329-39.18-29.022c9.425-9.525 28.158-13.477 47.937-8.91z" data-name="路径 1453" opacity=".449"/>
		<path fill="#2f54eb" d="M35.508 266v-42h21.336l-.672 6.552H43.74v10.024h8.848l-.056 7.056H43.74v11.816h13.548L56.62 266zm31.7.728a5.79 5.79 0 0 1-3.64-1.26 8.191 8.191 0 0 1-2.52-3.416 12.515 12.515 0 0 1-.9-4.844q0-6.1 4.172-8.6a21.149 21.149 0 0 1 9.716-2.828 18.7 18.7 0 0 0-.392-4.48 1.793 1.793 0 0 0-1.9-1.456 2.208 2.208 0 0 0-1.96 1.008 5.678 5.678 0 0 0-.84 2.576l-7.676-1.34q.56-4.312 3.528-6.16a12.865 12.865 0 0 1 6.944-1.848q5.1 0 7.644 2.688a9.758 9.758 0 0 1 2.548 7v16.3a20.6 20.6 0 0 0 .84 5.6l-7.672.668-.9-3.864a8.5 8.5 0 0 1-2.964 3.028 7.484 7.484 0 0 1-4.032 1.228zm3.64-5.6a2.727 2.727 0 0 0 1.6-.448 11.126 11.126 0 0 0 1.6-1.456v-8.736A6.444 6.444 0 0 0 69.556 252a6.024 6.024 0 0 0-1.68 4.7 5.948 5.948 0 0 0 .756 3.276 2.482 2.482 0 0 0 2.212 1.152zm26.988 5.6a12.368 12.368 0 0 1-7.5-2.1 9.579 9.579 0 0 1-3.7-5.852l6.1-2.016a4.878 4.878 0 0 0 .84 1.9 4.286 4.286 0 0 0 3.752 1.848 6.157 6.157 0 0 0 2.692-.608 2.009 2.009 0 0 0 1.288-1.9q0-1.736-2.408-2.688l-6.612-2.696a8.554 8.554 0 0 1-4.032-3.36 10.16 10.16 0 0 1-1.4-5.488 9.043 9.043 0 0 1 1.484-5.208 9.589 9.589 0 0 1 3.92-3.332 12.128 12.128 0 0 1 5.236-1.148 11.213 11.213 0 0 1 6.5 2.044 9.84 9.84 0 0 1 3.976 5.576l-6.5 2.016a6.856 6.856 0 0 0-.784-1.9 3.643 3.643 0 0 0-3.136-1.9 4.377 4.377 0 0 0-2.408.644 2.09 2.09 0 0 0-1.008 1.876q0 1.456 2.744 2.688l5.6 2.3a12.671 12.671 0 0 1 4.648 3.528 8.967 8.967 0 0 1 1.68 5.712 9.461 9.461 0 0 1-1.568 5.516 9.838 9.838 0 0 1-4.084 3.4 12.685 12.685 0 0 1-5.32 1.148zm25.872 0a9.671 9.671 0 0 1-8.568-4.452q-2.968-4.452-2.968-11.844 0-7.5 3.024-11.928a9.985 9.985 0 0 1 8.792-4.424 9.449 9.449 0 0 1 8.4 4.424q2.912 4.424 2.912 11.928a.986.986 0 0 1-.168.644q-.168.2-.168.252h-14.952a21.836 21.836 0 0 0 .952 6.636q.952 3 2.912 3 2.184 0 3.248-2.52t1.12-2.632l5.936 2.24a13.36 13.36 0 0 1-3.752 6.348 9.648 9.648 0 0 1-6.72 2.328zm3.864-19.936a13.012 13.012 0 0 0-.9-5.32 2.943 2.943 0 0 0-2.8-1.96 2.567 2.567 0 0 0-1.848.952 7.036 7.036 0 0 0-1.452 2.636 11.63 11.63 0 0 0-.56 3.7zm23.184 29.008q-6.272 0-9.744-1.764t-3.472-4.844a4.786 4.786 0 0 1 1.568-3.612 11.565 11.565 0 0 1 3.98-2.38 8.2 8.2 0 0 1-3.2-1.568 3.49 3.49 0 0 1-1.064-2.744 5.914 5.914 0 0 1 1.512-3.948 11.879 11.879 0 0 1 3.98-2.94q-5.04-2.912-5.04-8.12a8.489 8.489 0 0 1 1.708-5.348 10.555 10.555 0 0 1 4.424-3.332 14.766 14.766 0 0 1 5.684-1.12 13.49 13.49 0 0 1 7.84 2.352 21.2 21.2 0 0 1 3.388-2.52 8.316 8.316 0 0 1 4.284-1.008v5.208a12.506 12.506 0 0 0-4.984.784 24.8 24.8 0 0 1 .924 2.744 8.988 8.988 0 0 1 .252 2.184 9.537 9.537 0 0 1-2.576 6.636q-2.576 2.828-8.4 2.828l-2.072-.056a11.419 11.419 0 0 0-1.232-.056 3.162 3.162 0 0 0-1.4.98 2.375 2.375 0 0 0-.672 1.6 1.833 1.833 0 0 0 .56 1.344 2.361 2.361 0 0 0 1.4.672l8.96 1.008q7.784.9 7.784 7.56 0 5.208-4 7.336a22.089 22.089 0 0 1-10.392 2.124zm.224-26.992a3.123 3.123 0 0 0 2.688-1.316 6.275 6.275 0 0 0 .952-3.724 5.744 5.744 0 0 0-1.008-3.7 3.182 3.182 0 0 0-2.576-1.232 3.2 3.2 0 0 0-2.744 1.4 5.787 5.787 0 0 0-1.008 3.472 7.4 7.4 0 0 0 .84 3.5 2.964 2.964 0 0 0 2.856 1.6zm.112 21.28q6.384 0 6.384-3.472a1.781 1.781 0 0 0-.5-1.4 3.267 3.267 0 0 0-1.6-.644q-1.092-.2-3.556-.364l-4.648-.392a3.813 3.813 0 0 0-1.736 1.2 2.933 2.933 0 0 0-.728 1.936 2.529 2.529 0 0 0 1.6 2.324 10.945 10.945 0 0 0 4.78.812zm18.76-34.944 7.84-.672v5.1a13.392 13.392 0 0 1 4.172-3.892 12.274 12.274 0 0 1 6.356-1.484v7.672a26.59 26.59 0 0 0-5.292.7 11.3 11.3 0 0 0-5.24 2.432v20.664l-7.84.672zm32.648 31.584a9.671 9.671 0 0 1-8.568-4.452q-2.968-4.452-2.968-11.844 0-7.5 3.024-11.928a9.985 9.985 0 0 1 8.792-4.424 9.449 9.449 0 0 1 8.4 4.424q2.912 4.424 2.912 11.928a.986.986 0 0 1-.168.644q-.168.2-.168.252h-14.952a21.836 21.836 0 0 0 .952 6.636q.952 3 2.912 3 2.184 0 3.248-2.52t1.12-2.632l5.936 2.24a13.36 13.36 0 0 1-3.752 6.348 9.648 9.648 0 0 1-6.72 2.328zm3.864-19.936a13.012 13.012 0 0 0-.9-5.32 2.944 2.944 0 0 0-2.8-1.96 2.567 2.567 0 0 0-1.848.952 7.036 7.036 0 0 0-1.456 2.632 11.63 11.63 0 0 0-.56 3.7zm21.896 19.936a12.368 12.368 0 0 1-7.5-2.1 9.579 9.579 0 0 1-3.7-5.852l6.1-2.016a4.878 4.878 0 0 0 .84 1.9 4.286 4.286 0 0 0 3.752 1.848 6.157 6.157 0 0 0 2.688-.616 2.009 2.009 0 0 0 1.288-1.9q0-1.736-2.408-2.688l-6.608-2.688a8.554 8.554 0 0 1-4.032-3.36 10.16 10.16 0 0 1-1.4-5.488 9.043 9.043 0 0 1 1.484-5.208 9.589 9.589 0 0 1 3.92-3.332 12.128 12.128 0 0 1 5.236-1.148 11.213 11.213 0 0 1 6.5 2.044 9.84 9.84 0 0 1 3.976 5.572l-6.5 2.016a6.856 6.856 0 0 0-.784-1.9 3.643 3.643 0 0 0-3.136-1.9 4.377 4.377 0 0 0-2.408.644 2.09 2.09 0 0 0-1.008 1.876q0 1.456 2.744 2.688l5.6 2.3a12.671 12.671 0 0 1 4.648 3.528 8.967 8.967 0 0 1 1.68 5.712 9.461 9.461 0 0 1-1.568 5.516 9.838 9.838 0 0 1-4.084 3.404 12.685 12.685 0 0 1-5.32 1.148zm25.256 0a12.368 12.368 0 0 1-7.5-2.1 9.579 9.579 0 0 1-3.7-5.852l6.1-2.016a4.878 4.878 0 0 0 .84 1.9 4.286 4.286 0 0 0 3.752 1.848 6.157 6.157 0 0 0 2.688-.616 2.009 2.009 0 0 0 1.288-1.9q0-1.736-2.408-2.688l-6.608-2.688a8.554 8.554 0 0 1-4.032-3.36 10.16 10.16 0 0 1-1.4-5.488 9.043 9.043 0 0 1 1.484-5.208 9.589 9.589 0 0 1 3.92-3.332 12.128 12.128 0 0 1 5.236-1.148 11.213 11.213 0 0 1 6.5 2.044 9.84 9.84 0 0 1 3.976 5.572l-6.5 2.016a6.856 6.856 0 0 0-.784-1.9 3.643 3.643 0 0 0-3.136-1.9 4.377 4.377 0 0 0-2.408.644 2.09 2.09 0 0 0-1.008 1.876q0 1.456 2.744 2.688l5.6 2.3a12.671 12.671 0 0 1 4.648 3.528 8.967 8.967 0 0 1 1.68 5.712 9.461 9.461 0 0 1-1.568 5.516 9.838 9.838 0 0 1-4.084 3.404 12.685 12.685 0 0 1-5.32 1.148z" data-name="路径 1469"/>
	</g>
</svg>
