<svg xmlns="http://www.w3.org/2000/svg" height="1440" width="1712" xml:space="preserve">
	<defs>
		<clipPath id="a" clipPathUnits="userSpaceOnUse">
			<path d="M0 1080h1284V0H0Z"/>
		</clipPath>
	</defs>
	<g clip-path="url(#a)" transform="matrix(1.33333 0 0 -1.33333 0 1440)">
		<path style="fill:#000;fill-opacity:1;fill-rule:nonzero;stroke:none" d="M443.593 558.674h94.472v17.327h-94.472zm0 32.178h94.472v16.708h-94.472zm129.125-63.12s-.412-5.156-.824-7.837c-4.126-45.38-8.458-63.532-14.852-70.132-4.332-4.332-8.87-5.982-15.058-6.395-5.569-.618-15.264-.618-25.371 0-.413 4.744-2.269 11.757-5.157 16.296 9.488-1.032 18.358-1.032 22.071-1.032 3.507 0 5.363.413 7.426 2.475 4.125 3.713 7.838 17.74 10.932 49.917h-21.658c-10.933-28.464-28.466-53.011-47.649-69.1-3.094 3.301-10.932 9.283-15.057 11.965 18.151 13.201 33.209 33.621 42.904 57.135h-23.309c-15.264-26.196-38.366-48.679-61.675-63.53-3.094 3.713-10.107 10.519-14.439 13.819 21.246 11.552 41.048 29.085 54.456 49.711H441.53c-10.519-10.313-21.864-19.182-32.59-26.196-3.095 3.713-10.314 10.521-14.646 13.614 19.39 10.727 38.367 26.61 51.155 44.762h-20.627v80.032H557.66v-80.032h-89.727c-3.507-5.364-7.22-10.314-11.139-15.472z"/>
		<path style="fill:#000;fill-opacity:1;fill-rule:nonzero;stroke:none" d="M734.234 531.445h25.785v14.646h-25.785zm0 29.703h25.785v12.583h-25.785zm0-44.553v-14.852h45.998v-15.264h-45.998v-23.927c5.775-.825 11.963-1.032 18.564-1.032 5.57 0 31.56 0 39.191.207-2.268-4.125-4.743-12.17-5.568-16.708h-34.86c-29.909 0-51.98 5.569-67.038 27.227-5.156-12.376-11.963-22.689-20.42-30.94-2.888 3.094-10.108 8.87-14.027 11.344 15.47 13.615 23.515 35.273 27.021 61.057l17.739-2.27c-1.031-7.013-2.268-13.614-3.919-19.801 5.982-12.789 14.646-20.421 25.372-24.752v49.711h-40.223v14.85h40.223v14.646h-51.98v15.057h51.98v12.583h-40.223v14.852h40.223v11.55h-48.886v15.471h48.886v16.915h17.945v-16.915h52.393v-15.471h-52.393v-11.55h43.73v-27.435h14.025v-15.057h-14.025v-29.496zm-90.552 5.362V464.82c0-9.488-2.063-14.644-7.426-17.532-5.776-2.888-14.233-3.507-26.609-3.507-.619 4.743-3.094 12.582-5.569 17.532 8.044-.206 16.089-.206 18.358-.206 2.681.206 3.506.826 3.506 3.713v51.569l-21.658-6.808-4.951 18.565c7.426 1.856 16.502 4.332 26.609 7.219v39.398h-23.721v17.739h23.721v39.81h17.74v-39.81h20.627v-17.739h-20.627v-34.242c6.394 2.064 12.994 3.919 19.389 5.983l2.888-17.533z"/>
		<path style="fill:#9382e3;fill-opacity:1;fill-rule:nonzero;stroke:none" d="M990.223 602.197H889.975v18.151h100.248zm4.949-56.312h-29.29v-79.62c0-10.727-2.475-15.883-10.314-18.771-7.839-2.682-20.214-2.888-38.366-2.888-1.031 5.157-3.919 12.996-6.6 18.358 12.995-.412 26.815-.412 30.527-.412 3.92.206 5.157 1.031 5.157 4.125v79.208h-64.975v18.151h113.861Zm-122.731 79.208c-14.232-18.565-35.684-39.192-54.661-52.393-2.476 4.331-7.839 11.757-11.345 15.264 17.327 11.345 37.128 29.703 47.236 44.555zm7.632-43.523c-6.393-10.727-14.026-21.453-22.483-31.766V442.131h-19.183v86.427c-6.807-7.013-13.82-13.202-20.627-18.564-2.681 4.125-9.695 12.376-13.614 16.089 21.245 15.057 43.73 38.985 57.55 62.293z"/>
		<path style="fill:#9382e3;fill-opacity:1;fill-rule:nonzero;stroke:none" d="M1178.966 597.659H1039.94v19.596h139.026zm-74.67-57.344c-12.789-23.72-28.466-46.41-43.729-64.975l93.853 6.807c-7.633 11.758-15.883 23.309-23.103 33.415l17.533 9.283c17.12-22.896 37.335-52.393 47.442-71.369l-18.563-11.139c-2.889 6.187-7.22 13.614-12.171 21.659-108.292-9.077-121.287-9.695-130.776-13.408-1.237 4.331-4.537 15.264-7.426 21.452 5.158 1.237 9.695 6.395 16.09 14.439 5.776 6.601 21.452 29.083 34.034 53.836h-60.231v19.597h182.963v-19.597z"/>
		<path style="fill:#000;fill-opacity:1;fill-rule:nonzero;stroke:none" d="M0 0h-66.743v115.89H0V95.755h-42.17V70.31h39.237V50.177H-42.17V20.293H0Z" transform="translate(480.99 299.222)"/>
		<path style="fill:#000;fill-opacity:1;fill-rule:nonzero;stroke:none" d="m0 0-9.354-.317c-7.028-.211-12.26-1.481-15.695-3.804-3.435-2.326-5.152-5.867-5.152-10.623 0-6.817 3.91-10.226 11.731-10.226 5.601 0 10.08 1.613 13.436 4.836C-1.678-16.911 0-12.631 0-7.292Zm7.134-41.061L2.457-29.012h-.634c-4.07-5.127-8.258-8.679-12.564-10.662-4.307-1.981-9.922-2.972-16.844-2.972-8.509 0-15.207 2.43-20.094 7.293-4.889 4.861-7.333 11.784-7.333 20.768 0 9.405 3.29 16.342 9.869 20.807 6.58 4.466 16.5 6.936 29.765 7.412L0 14.11v3.883c0 8.984-4.597 13.476-13.792 13.476-7.083 0-15.406-2.141-24.97-6.42l-8.006 16.329c10.199 5.337 21.508 8.006 33.926 8.006 11.891 0 21.007-2.59 27.348-7.769 6.341-5.178 9.512-13.053 9.512-23.622v-59.054z" transform="translate(552.41 340.282)"/>
		<path style="fill:#000;fill-opacity:1;fill-rule:nonzero;stroke:none" d="M0 0c0-9.089-3.159-16.012-9.472-20.768-6.316-4.755-15.762-7.133-28.339-7.133-6.448 0-11.943.435-16.487 1.307-4.546.872-8.799 2.154-12.762 3.845v19.976c4.491-2.116 9.551-3.885 15.179-5.312 5.628-1.427 10.583-2.141 14.863-2.141 8.771 0 13.158 2.538 13.158 7.611 0 1.901-.582 3.448-1.744 4.636-1.163 1.19-3.17 2.537-6.023 4.043-2.854 1.506-6.659 3.263-11.415 5.271-6.817 2.853-11.824 5.496-15.021 7.927-3.198 2.429-5.523 5.217-6.976 8.363-1.454 3.144-2.18 7.016-2.18 11.612 0 7.874 3.052 13.964 9.156 18.272 6.104 4.306 14.756 6.46 25.959 6.46 10.675 0 21.059-2.326 31.152-6.976l-7.292-17.438c-4.439 1.902-8.588 3.46-12.445 4.676A39.067 39.067 0 0 1-32.5 46.055c-7.134 0-10.701-1.93-10.701-5.786 0-2.167 1.149-4.043 3.449-5.628 2.298-1.586 7.332-3.938 15.1-7.056 6.922-2.801 11.995-5.417 15.219-7.847 3.223-2.431 5.601-5.232 7.134-8.403C-.767 8.165 0 4.387 0 0" transform="translate(663.146 325.538)"/>
		<path style="fill:#000;fill-opacity:1;fill-rule:nonzero;stroke:none" d="M0 0h26.476l16.725-49.858c1.426-4.335 2.403-9.461 2.933-15.379h.475c.581 5.442 1.717 10.569 3.409 15.379L66.426 0h25.921L54.853-99.956c-3.436-9.247-8.337-16.171-14.704-20.768-6.369-4.598-13.807-6.896-22.314-6.896a56.06 56.06 0 0 0-12.286 1.348v19.181c2.906-.685 6.076-1.03 9.512-1.03 4.28 0 8.018 1.308 11.216 3.924 3.197 2.616 5.694 6.567 7.491 11.85l1.426 4.361z" transform="translate(669.33 387.843)"/>
		<path style="fill:#000;fill-opacity:1;fill-rule:nonzero;stroke:none" d="M0 0c0-10.463-3.764-18.707-11.295-24.732-7.53-6.024-18.008-9.036-31.431-9.036-12.365 0-23.304 2.325-32.816 6.976v22.829c7.82-3.488 14.439-5.945 19.857-7.373 5.416-1.427 10.371-2.14 14.863-2.14 5.389 0 9.524 1.031 12.404 3.092 2.881 2.062 4.321 5.125 4.321 9.195 0 2.271-.634 4.293-1.902 6.064-1.269 1.77-3.131 3.475-5.589 5.112-2.457 1.638-7.465 4.253-15.02 7.848-7.082 3.33-12.394 6.526-15.934 9.592-3.541 3.064-6.368 6.631-8.481 10.7-2.115 4.069-3.171 8.825-3.171 14.269 0 10.251 3.475 18.311 10.424 24.176 6.948 5.866 16.552 8.799 28.814 8.799 6.023 0 11.77-.714 17.24-2.141 5.47-1.426 11.189-3.435 17.161-6.023L-8.48 58.103c-6.184 2.537-11.296 4.306-15.339 5.311-4.043 1.003-8.02 1.506-11.93 1.506-4.65 0-8.219-1.084-10.7-3.25-2.486-2.167-3.727-4.994-3.727-8.482 0-2.167.502-4.056 1.507-5.667 1.002-1.613 2.602-3.171 4.795-4.677 2.191-1.506 7.384-4.215 15.575-8.125 10.832-5.18 18.259-10.372 22.275-15.575C-2.009 13.938 0 7.557 0 0" transform="translate(844.668 331.404)"/>
		<path style="fill:#000;fill-opacity:1;fill-rule:nonzero;stroke:none" d="M0 0c4.228 0 9.301.924 15.22 2.774v-17.993c-6.025-2.696-13.424-4.043-22.195-4.043-9.671 0-16.713 2.444-21.126 7.332-4.412 4.887-6.618 12.22-6.618 21.996v42.726h-11.573v10.226l13.317 8.085 6.976 18.707h15.456V70.944h24.812V52.792h-24.812V10.066c0-3.435.964-5.972 2.895-7.609C-5.72.818-3.17 0 0 0" transform="translate(901.106 316.898)"/>
		<path style="fill:#000;fill-opacity:1;fill-rule:nonzero;stroke:none" d="m0 0-9.354-.317c-7.028-.211-12.259-1.481-15.694-3.804-3.436-2.326-5.153-5.867-5.153-10.623 0-6.817 3.911-10.226 11.731-10.226 5.601 0 10.081 1.613 13.437 4.836C-1.678-16.911 0-12.631 0-7.292Zm7.135-41.061L2.457-29.012h-.634c-4.069-5.127-8.258-8.679-12.562-10.662-4.309-1.981-9.923-2.972-16.846-2.972-8.508 0-15.206 2.43-20.094 7.293-4.888 4.861-7.333 11.784-7.333 20.768 0 9.405 3.29 16.342 9.869 20.807 6.58 4.466 16.5 6.936 29.765 7.412L0 14.11v3.883c0 8.984-4.597 13.476-13.793 13.476-7.081 0-15.404-2.141-24.968-6.42l-8.007 16.329c10.199 5.337 21.509 8.006 33.927 8.006 11.891 0 21.006-2.59 27.348-7.769 6.341-5.178 9.512-13.053 9.512-23.622v-59.054z" transform="translate(983.386 340.282)"/>
		<path style="fill:#000;fill-opacity:1;fill-rule:nonzero;stroke:none" d="M0 0c-27.585 0-41.377 15.14-41.377 45.419 0 15.061 3.752 26.568 11.256 34.521 7.503 7.954 18.258 11.93 32.262 11.93 10.251 0 19.447-2.009 27.585-6.023l-7.134-18.708c-3.805 1.533-7.347 2.787-10.623 3.765-3.277.978-6.553 1.467-9.828 1.467-12.578 0-18.866-8.932-18.866-26.793 0-17.333 6.288-26 18.866-26 4.649 0 8.958.621 12.92 1.863 3.963 1.242 7.926 3.184 11.89 5.827V6.579c-3.912-2.485-7.861-4.201-11.85-5.152C11.11.476 6.076 0 0 0" transform="translate(1068.281 297.637)"/>
		<path style="fill:#000;fill-opacity:1;fill-rule:nonzero;stroke:none" d="m0 0 10.543 13.477 24.811 26.95h27.268L27.427 1.982l37.335-50.176H36.86L11.336-12.286.952-20.609v-27.585h-24.178v123.34H.952V20.135L-.317 0Z" transform="translate(1138.987 347.416)"/>
		<path style="fill:#675b9e;fill-opacity:1;fill-rule:nonzero;stroke:none" d="M0 0a45.856 45.856 0 0 1 2.029.786l99.897 48.572.15 38.642-137.204-66.603s-7.538-3.845-1.924-10.689L-8.364-.444s1.287-1.011 4.899-.59c.594.131 1.209.299 1.802.48C-1.074-.374-.506-.181 0 0" transform="translate(236.098 729.497)"/>
		<path style="fill:#675b9e;fill-opacity:1;fill-rule:nonzero;stroke:none" d="m0 0-1.55.592c-.6.203-.996.31-.996.31s-23.978 8.992-26.796 10.305l-1.19.455c-6.743 2.092-9.854-1.838-9.854-1.838l.005-37.995S-7.536-12.247-.929-9.38l2.22 1.076C7.619-4.268 3.219-1.375 0 0" transform="translate(430.1 739.84)"/>
		<path style="fill:#202121;fill-opacity:1;fill-rule:nonzero;stroke:none" d="m0 0-.02.009a8.619 8.619 0 0 1-.305.119c-.11.041-.242.089-.39.139l-.077.026a16.32 16.32 0 0 1-.59.183c-.069.02-.346.039-.419.058-3.676.799-8.657.314-8.657-7.646v-35.07s.207-4.112 2.247-7.164c.119-.157.336-.309.454-.449.798-.945 1.584-1.724 1.842-1.91.037-.023.095-.286.132-.286H-5.765l1.695.676 57.989 30.177L4.455-1.766.085-.062S.047-.02 0 0" transform="translate(159.078 606.035)"/>
		<path style="fill:#202121;fill-opacity:1;fill-rule:nonzero;stroke:none" d="M0 0c-.153-.305-.077-34.914-.077-34.914s-.076-7.845 5.768-9.229L65.526-13.61 11.92 6.741 7.285 8.498C4.207 8.93.6 7.712 0 0" transform="translate(149.107 472.176)"/>
		<path style="fill:#9382e3;fill-opacity:1;fill-rule:nonzero;stroke:none" d="m0 0-141.209 54.062c-3.138 1.002-8.454 2.381-10.715 2.381-.159 0-.231-.009-.231-.009-.868-.152-4.193-1.454-7.095-2.788L-301.873-15.7l-.107-.052-.111-.047c-.87-.373-5.384-2.243-8.789-2.47a8.672 8.672 0 0 0-.57-.018c-3.504 0-9.031 2.324-11.394 3.395l-23.165 8.946-.6.231-.522.376c-.428.308-4.182 3.146-4.437 8.002-.126 2.396.591 6.027 4.72 9.714l.52.464.626.304 135.655 65.912c.247.212.503.467.715.71-2.966 1.245-25.26 9.796-39.985 15.416-2.273.892-4.553 1.335-6.821 1.335-4.288 0-7.127-1.566-7.154-1.581l-.177-.105-.185-.09-190.319-92.405c-.753-.601-1.874-1.818-1.883-2.745-.007-.649.66-1.834 2.511-3.295l137.462-52.658.367-.141.189-.11c.32-.151 2.836-1.267 6.811-1.267 3.533 0 7.205.858 10.915 2.55l3.509 1.601.008-.01c16.137 7.603 88.019 42.47 137.217 66.398 3.383 1.993 7.018 3.045 10.528 3.045 2.649 0 4.401-.589 4.875-.769l33.229-12.692.232-.088.221-.111c.75-.376 4.531-2.463 5.221-6.717.318-1.959.056-4.935-2.998-7.989l-.596-.597-.76-.368-141.893-68.762 38.685-14.758c3.807-1.2 8.571-2.505 10.178-2.707 1.79.498 7.63 2.924 12.35 5.048L.748-2.666c.562.504.776.846.848.986C1.413-1.215.6-.429 0 0" transform="translate(542.187 741.482)"/>
		<path style="fill:#323333;fill-opacity:1;fill-rule:nonzero;stroke:none" d="m0 0-.451.296c-2.733 1.795-7.146 6.699-6.565 13.786-.005 1.442-.031 9.347-.045 17.265-.007 4.382-.011 8.768-.005 12.067.004 2.422.007 4.067.058 5.233-.322 4.413.633 7.857 2.841 10.24 1.321 1.427 3.725 3.129 7.672 3.129 3.058 0 5.74-1.035 6.527-1.37L142.136 9.955c.48-.16 1.905-.55 3.125-.55.252 0 .432.017.553.035.186.303.403.869.525 1.369l-.152 56.263-.002.443.053.291c.073.651-.015 1.641-.246 2.061-.203.234-.848.573-1.007.626l-.1.034-.098.037-218.035 83.512c-.383.096-1.574.369-2.835.369-1.11 0-1.569-.212-1.67-.267-.846-1.188-1.081-4.236-1.025-6.009l.142-.08v-.099l-.811-295.942v-.122l.145-.122c-.179-3.709.261-8.093.843-9.262 1.162-1.607 4.87-3.467 7.012-4.229l.083-.022.083-.029 213.826-82.559.32-.122.152-.086c.344-.157 1.323-.507 2.31-.507.144 0 .282.007.414.021.113.61.238 1.437.216 1.978l.054.113v.113l.234 54.141a7.83 7.83 0 0 1-4.502 6.902L4.409-128.982c-4.637 1.531-12.764 6.868-11.644 16.599.018 2.405.049 21.669.069 34.579 0 10.092 6.119 13.676 11.36 13.676.91 0 1.571-.109 1.813-.155l.426-.082.406-.153 134.743-51.065.435-.166.273-.167c.443-.233 1.769-.782 3.102-.782.274 0 .536.024.783.071.049.299.071.696.046 1l-.052.339.007.24-.165 56.451v.116c0 .703.069 2.817-1.673 3.241l-.714.038-.38.251L.502-.193Z" transform="translate(151.022 549.988)"/>
	</g>
</svg>
