<svg xmlns="http://www.w3.org/2000/svg" width="778.329" height="568.251" viewBox="0 0 205.933 150.35">
	<path style="fill:#525c86" class="st1" transform="matrix(1.99676 0 0 1.99676 44.199 -5.99)" d="M51.2 44.5V27.3l-24 13.8-24-13.8v17.2l24 13.9z"/>
	<path style="fill:#fdb940" class="st2" transform="matrix(1.99676 0 0 1.99676 44.199 -5.99)" d="m27.2 20.3 9.1 5.2 14.9-8.6L27.2 3l-24 13.9v17.2z"/>
	<path style="fill:#000" d="M182.6 17.963c-1.425.087-2.85.437-4.2 1.037-1.4.7-2.6 1.6-3.6 2.8-1 1.2-1.7 2.5-2.2 4-1 3.1-1 6.5 0 9.6.5 1.5 1.2 2.8 2.2 4 1 1.2 2.2 2.1 3.6 2.8 1.6.7 3.3 1 5 1 1.3 0 2.7-.2 3.9-.7 1.2-.5 2.2-1.1 3.1-2 .9-.9 1.6-2 2.1-3.1.6-1.3 1-2.7 1.1-4.1h-2.3c-.1 1.1-.4 2.1-.8 3.1-.4.9-.9 1.8-1.6 2.5-.7.7-1.5 1.3-2.4 1.7-1 .4-2 .6-3.1.6-1.5.1-2.9-.3-4.2-.9-1.1-.5-2-1.4-2.8-2.4-.7-1.1-1.3-2.3-1.6-3.5-.7-2.5-.7-5.2 0-7.8.3-1.2.8-2.4 1.6-3.4.7-1 1.7-1.8 2.8-2.4 1.3-.6 2.8-.9 4.2-.9.8 0 1.7.1 2.5.4.8.2 1.5.6 2.2 1.1.7.5 1.2 1.2 1.7 1.9.5.8.8 1.7 1 2.6h2.3c-.1-1.2-.5-2.4-1.1-3.4-.5-1-1.3-1.8-2.2-2.5-.9-.7-1.9-1.2-3-1.5a11.12 11.12 0 0 0-4.2-.537zM65.7 18.4v24.4h17v-2H68v-9.6h13.6v-2H68v-8.8h14.5v-2zm35.6 0v24.4h2.2V18.4zm5.7 0v3.5h2.1v-3.5zm88.8 0v24.4h2.2V32.5c0-.8.1-1.6.4-2.4.2-.7.6-1.3 1.1-1.9.5-.6 1-1 1.7-1.3.7-.4 1.5-.5 2.3-.5.8 0 1.5.1 2.2.4.6.2 1 .6 1.4 1.1.3.5.6 1.1.7 1.7.1.7.2 1.4.2 2.1v11h2.2V31.4c0-.9-.1-1.9-.3-2.8-.2-.8-.6-1.5-1.1-2.1-.5-.7-1.2-1.1-2-1.4-1-.4-2-.5-3.1-.5-1.3 0-2.5.3-3.5 1-1 .6-1.8 1.5-2.2 2.6h-.1v-9.8zm40.2.5c-.1 0-.1.1-.1.2V25.3c.1.1.1.1.1 0H237.2v-4.6l1.6 4.5c0 .1.1.1.2.1h.6c.1 0 .2 0 .2-.1l1.7-4.6v4.6h1.1V19c0-.1 0-.1-.1-.1H241c-.1 0-.2.1-.2.2l-1.5 4c0 .1-.1.1-.1 0l-1.5-4.1c-.1 0-.1-.1-.1-.1h-.1Zm-6.1.1c-.1 0-.1 0-.1.1l.1.7c0 .1 0 .1.1.1h1.8c.1 0 .1 0 .1.1v5.4c0 .1 0 .1.1.1h1c.1 0 .1-.1.1-.2V20c0-.1 0-.1.1-.1h1.7c.1 0 .1 0 .1-.1v-.7c0-.1-.1-.1-.2-.1ZM137 24.3c-.7 0-1.5.1-2.3.3-.7.2-1.4.5-2.1.9-.6.3-1.1.9-1.5 1.5-.4.7-.6 1.5-.6 2.3 0 .7.1 1.3.4 1.9.2.5.6.9 1 1.3s.9.7 1.5.9c.7.2 1.3.4 2 .6l2.8.7c.5.1.9.2 1.4.4.4.1.8.3 1.2.6.4.2.7.5.9.9.2.4.3.8.3 1.3s-.2 1-.5 1.5c-.3.4-.7.8-1.2 1-.4.3-1 .5-1.5.6-.5.1-1.1.2-1.6.2-1.3.1-2.6-.3-3.6-1.1s-1.6-2-1.6-3.3h-2.2c0 1.8.8 3.5 2.2 4.7 1.5 1.1 3.2 1.6 5 1.5.8 0 1.7-.1 2.5-.3.8-.2 1.6-.5 2.3-.9.7-.4 1.3-.9 1.7-1.6.5-.7.7-1.5.7-2.4.1-.7-.1-1.4-.4-2-.2-.5-.6-1-1.1-1.4-.5-.4-1-.7-1.6-.9-.6-.2-1.2-.4-1.8-.5l-2.9-.6c-.4-.1-.8-.3-1.2-.4l-1.2-.6c-.4-.2-.7-.5-.9-.8-.3-.3-.4-.8-.4-1.2 0-.5.1-1 .4-1.4.3-.3.6-.7 1-.9.4-.2.8-.4 1.3-.5.5 0 1-.1 1.5-.1s1.1.1 1.7.2c.6.1 1.1.4 1.5.7.4.3.8.7 1 1.2.3.6.4 1.1.2 1.4h2.2c0-.9-.2-1.7-.6-2.5-.3-.7-.8-1.3-1.4-1.8-.6-.5-1.3-.9-2-1.1-.8-.2-1.7-.3-2.5-.3zm-44.8.2c-1.3 0-2.5.3-3.6.8-1 .5-1.9 1.2-2.6 2-.7.9-1.3 1.9-1.6 3-.7 2.3-.7 4.9 0 7.2.3 1.1.9 2.1 1.6 3 .7.8 1.6 1.5 2.6 2 1.2.5 2.4.7 3.6.7 1.8 0 3.6-.6 4.9-1.8 1.4-1.3 2.2-3.1 2.4-5h-2.2c0 .7-.2 1.4-.5 2-.3.6-.6 1.1-1.1 1.6-.5.4-1 .8-1.6 1-.6.3-1.3.4-1.9.4-.9.1-1.9-.2-2.7-.6-.7-.4-1.4-1-1.9-1.7-.6-.7-1-1.5-1.2-2.4-.5-1.8-.5-3.7 0-5.5.3-.9.7-1.7 1.2-2.4s1.1-1.3 1.9-1.7c.8-.4 1.8-.6 2.7-.6 1.2-.1 2.4.3 3.3 1.1.8.9 1.4 1.9 1.6 2.9h2.2c-.1-1.7-.9-3.4-2.3-4.5-1.4-1-3.1-1.6-4.8-1.5Zm61.2 0c-1.2 0-2.5.2-3.6.8-1 .5-1.8 1.2-2.5 2.1-.6.9-1.1 1.9-1.4 3-.3 1.1-.5 2.2-.5 3.4 0 1.2.2 2.4.5 3.6.3 1.1.7 2.1 1.4 3 .7.9 1.5 1.5 2.5 2 1.1.5 2.4.7 3.6.7 1.9.2 3.7-.4 5.2-1.6 1.3-1.2 2.2-2.8 2.5-4.6h-2.2c-.2 1.3-.9 2.4-1.8 3.3-1 .8-2.4 1.3-3.7 1.2-.9.1-1.8-.1-2.6-.6-.7-.4-1.3-.9-1.8-1.6-.5-.6-.8-1.4-1-2.2-.2-.8-.3-1.6-.4-2.6h13.5c.1-1.2 0-2.4-.3-3.6-.2-1.2-.7-2.2-1.3-3.2-1.4-2-3.7-3.2-6.1-3.1Zm67.1.1c-1.2 0-2.5.2-3.6.8-1 .5-1.8 1.2-2.5 2.1-.6.9-1.1 1.9-1.4 3-.3 1.1-.5 2.2-.5 3.4 0 1.2.2 2.4.5 3.6.3 1.1.7 2.1 1.4 3 .7.9 1.5 1.5 2.5 2 1.1.5 2.4.7 3.6.7 1.9.1 3.7-.5 5.1-1.7 1.3-1.2 2.2-2.8 2.5-4.6h-2.2c-.2 1.3-.9 2.4-1.8 3.3-1 .8-2.4 1.3-3.7 1.2-.9.1-1.8-.1-2.6-.6-.7-.4-1.3-.9-1.8-1.6-.5-.6-.8-1.4-1-2.2-.2-.8-.3-1.6-.4-2.5h13.6c.1-1.2 0-2.4-.3-3.6-.2-1.2-.7-2.2-1.3-3.2-1.4-2-3.7-3.2-6.1-3.1zm-99.7.1c-1.3 0-2.6.3-3.8 1-1.1.7-1.9 1.7-2.4 2.9h-.1v-3.4h-2.1v24.1h2.1v-9.8h.1c.2.6.6 1.2 1 1.7.5.5 1 .9 1.5 1.2.6.3 1.2.5 1.8.7 1.8.4 3.7.3 5.4-.5 1-.5 1.8-1.2 2.5-2 .7-.9 1.2-1.9 1.5-3 .6-2.3.6-4.8 0-7.1-.3-1.1-.8-2.1-1.5-3-.7-.8-1.5-1.5-2.5-2-1.1-.6-2.3-.8-3.5-.8zm-13.8.5v17.6h2.1V25.2Zm13.9 1.3c.9 0 1.8.2 2.6.7.7.4 1.3 1 1.8 1.7s.8 1.5 1 2.4c.4 1.8.4 3.7 0 5.4-.2.8-.5 1.7-1 2.4s-1.1 1.3-1.8 1.7c-.8.5-1.7.7-2.6.7-1 0-2-.2-2.9-.7-.7-.4-1.4-1-1.9-1.7s-.9-1.5-1.1-2.4c-.2-.9-.3-1.8-.3-2.7 0-1 .1-2 .3-2.9.2-.9.5-1.7 1-2.4s1.1-1.2 1.9-1.6c.9-.4 2-.6 3-.6zm32.6 0c.8 0 1.6.1 2.3.5.6.3 1.2.8 1.7 1.4.5.6.9 1.3 1.1 2 .3.8.5 1.6.5 2.3h-11.4c.1-.8.3-1.5.6-2.3.2-.7.6-1.4 1.1-2 .4-.6 1-1.1 1.7-1.4.8-.3 1.6-.5 2.4-.5zm67.1 0c.8 0 1.6.1 2.3.5.6.3 1.2.8 1.7 1.4.5.6.9 1.3 1.1 2 .2.8.4 1.6.5 2.3h-11.4c.1-.8.3-1.5.6-2.3.2-.7.6-1.4 1.1-2 .4-.6 1-1.1 1.7-1.4.8-.3 1.6-.5 2.4-.5z" transform="matrix(1.16412 0 0 1.16412 -76.482 92.958)"/>
</svg>
