<svg xmlns="http://www.w3.org/2000/svg" viewBox="-4.12 -4.12 213.98 158.48">
	<path fill="#525c86" d="M146.433 82.866V48.522L98.511 76.077 50.589 48.522v34.344L98.51 110.62z" class="st1"/>
	<path fill="#fdb940" d="m98.51 34.544 18.171 10.383 29.752-17.172L98.511 0 50.589 27.755V62.1z" class="st2"/>
	<path d="M136.086 113.869a14.194 14.194 0 0 0-4.889 1.207c-1.63.815-3.026 1.864-4.19 3.26-1.164 1.398-1.98 2.911-2.562 4.657a18.316 18.316 0 0 0 0 11.175c.582 1.746 1.398 3.26 2.562 4.657 1.164 1.397 2.56 2.443 4.19 3.258 1.863.815 3.842 1.164 5.821 1.164 1.513 0 3.144-.232 4.54-.814 1.398-.582 2.561-1.28 3.609-2.328 1.048-1.048 1.862-2.328 2.444-3.608.699-1.514 1.164-3.143 1.28-4.773h-2.676c-.116 1.28-.466 2.444-.932 3.608-.466 1.048-1.047 2.096-1.862 2.91-.815.816-1.747 1.513-2.795 1.979a9.484 9.484 0 0 1-3.608.698c-1.746.116-3.377-.348-4.89-1.046-1.281-.582-2.327-1.63-3.259-2.794-.815-1.28-1.513-2.678-1.862-4.075-.815-2.91-.815-6.054 0-9.08.35-1.398.93-2.795 1.862-3.96.815-1.163 1.978-2.093 3.258-2.791 1.514-.699 3.261-1.049 4.891-1.049.931 0 1.98.117 2.91.467.932.232 1.746.698 2.56 1.28.815.582 1.399 1.397 1.98 2.212.583.931.932 1.978 1.165 3.026h2.676a9.34 9.34 0 0 0-1.28-3.958c-.582-1.164-1.512-2.096-2.56-2.91a9.859 9.859 0 0 0-3.492-1.747 12.945 12.945 0 0 0-4.891-.625zM0 114.379v28.404h19.79v-2.328H2.678v-11.177H18.51v-2.329H2.678v-10.242h16.88v-2.329zm41.444 0v28.404h2.56v-28.405zm6.635 0v4.074h2.444v-4.075zm103.375 0v28.404h2.56v-11.991c0-.931.117-1.863.466-2.794.233-.815.698-1.514 1.28-2.213.582-.698 1.163-1.162 1.978-1.512.815-.465 1.747-.582 2.678-.582.932 0 1.746.117 2.56.466.7.233 1.165.698 1.63 1.28.35.582.7 1.28.817 1.978.116.815.232 1.63.232 2.445v12.805h2.56v-13.153a15.52 15.52 0 0 0-.348-3.26c-.233-.932-.698-1.746-1.28-2.445-.582-.815-1.397-1.28-2.328-1.63-1.164-.466-2.33-.582-3.61-.582-1.514 0-2.911.35-4.075 1.164-1.164.698-2.095 1.746-2.56 3.026h-.116v-11.407zm46.796.581c-.116 0-.116.116-.116.232v7.22c.117.116.116.116.116 0h1.396v-5.358l1.865 5.239c0 .116.115.118.232.118h.698c.116 0 .234-.002.234-.118l1.978-5.355v5.355h1.28v-7.217c0-.116 0-.116-.116-.116h-1.746a.249.249 0 0 0-.232.232l-1.746 4.657c0 .116-.118.116-.118 0l-1.747-4.773c-.116 0-.116-.116-.116-.116h-.116zm-7.1.116c-.117 0-.116 0-.116.116l.116.816c0 .117 0 .116.116.116h2.096c.116 0 .116 0 .116.116v6.287c0 .117 0 .116.116.116h1.164c.116 0 .116-.115.116-.232v-6.17c0-.117 0-.117.116-.117h1.98c.117 0 .116 0 .116-.116v-.816c0-.116-.115-.116-.232-.116zm-108.148 6.171c-.814 0-1.747.115-2.678.348a11.05 11.05 0 0 0-2.444 1.048c-.699.35-1.28 1.048-1.746 1.746a5.41 5.41 0 0 0-.698 2.679c0 .815.117 1.511.466 2.21.233.582.698 1.048 1.164 1.514.466.466 1.048.815 1.746 1.048.815.233 1.513.465 2.328.698l3.258.814a8.582 8.582 0 0 1 1.63.466c.466.117.933.349 1.399.698.466.233.813.583 1.046 1.048.233.466.35.933.35 1.515 0 .582-.233 1.164-.582 1.746-.35.465-.814.931-1.396 1.164-.466.35-1.164.582-1.746.698-.582.116-1.283.232-1.865.232a6.003 6.003 0 0 1-4.19-1.28 4.91 4.91 0 0 1-1.862-3.84h-2.56c0 2.095.93 4.073 2.56 5.47 1.746 1.28 3.725 1.863 5.82 1.746.932 0 1.98-.117 2.91-.35.932-.233 1.864-.58 2.68-1.046.814-.466 1.512-1.05 1.977-1.864.582-.815.814-1.745.814-2.792.117-.815-.114-1.63-.464-2.329-.232-.582-.7-1.164-1.282-1.63-.582-.465-1.164-.815-1.862-1.048-.699-.233-1.396-.466-2.094-.582l-3.377-.698c-.465-.116-.932-.35-1.398-.466l-1.396-.698a2.752 2.752 0 0 1-1.048-.932c-.35-.35-.466-.93-.466-1.396 0-.582.117-1.165.466-1.63.35-.35.698-.816 1.164-1.049.466-.233.932-.465 1.514-.582.582 0 1.164-.116 1.746-.116s1.28.116 1.979.232c.698.117 1.28.467 1.746.816.465.35.931.814 1.164 1.396.35.699.467 1.281.234 1.63h2.56a6.31 6.31 0 0 0-.698-2.91c-.349-.815-.932-1.514-1.63-2.096s-1.513-1.047-2.328-1.28a12.43 12.43 0 0 0-2.91-.348zm-52.153.232c-1.513 0-2.91.35-4.19.932a10.013 10.013 0 0 0-3.027 2.328c-.815 1.048-1.513 2.212-1.862 3.493a14.671 14.671 0 0 0 0 8.38c.35 1.281 1.047 2.445 1.862 3.493a10.013 10.013 0 0 0 3.027 2.328c1.397.582 2.793.814 4.19.814 2.095 0 4.191-.697 5.705-2.094 1.63-1.513 2.561-3.609 2.794-5.82h-2.56c0 .814-.233 1.63-.582 2.328-.35.698-.7 1.28-1.283 1.862-.582.465-1.163.931-1.862 1.164-.698.35-1.514.466-2.212.466-1.048.116-2.211-.232-3.142-.698a7.15 7.15 0 0 1-2.213-1.98 6.345 6.345 0 0 1-1.396-2.795 11.956 11.956 0 0 1 0-6.402 10.45 10.45 0 0 1 1.396-2.792c.583-.815 1.281-1.515 2.213-1.98.931-.466 2.094-.699 3.142-.699a5.158 5.158 0 0 1 3.842 1.28c.932 1.048 1.63 2.213 1.863 3.377h2.562c-.116-1.98-1.049-3.958-2.678-5.239-1.63-1.164-3.61-1.862-5.59-1.746zm71.245 0c-1.396 0-2.91.234-4.19.932-1.164.582-2.095 1.397-2.91 2.444-.699 1.048-1.281 2.212-1.63 3.493-.35 1.28-.583 2.561-.583 3.958 0 1.397.233 2.794.583 4.19.349 1.281.815 2.445 1.63 3.493s1.746 1.746 2.91 2.328c1.28.582 2.794.814 4.19.814 2.212.233 4.307-.465 6.053-1.862a9.381 9.381 0 0 0 2.91-5.355h-2.56c-.233 1.514-1.048 2.793-2.096 3.84-1.164.932-2.793 1.515-4.307 1.399a4.681 4.681 0 0 1-3.026-.698c-.815-.466-1.514-1.05-2.096-1.864-.582-.699-.931-1.63-1.164-2.56-.233-.932-.35-1.863-.466-3.027h15.715a12.792 12.792 0 0 0-.348-4.19c-.232-1.397-.815-2.563-1.514-3.727-1.63-2.328-4.307-3.724-7.1-3.608zm78.112.116c-1.396 0-2.91.234-4.19.932-1.164.582-2.095 1.397-2.91 2.444-.699 1.048-1.281 2.212-1.63 3.493-.35 1.28-.583 2.561-.583 3.958 0 1.397.233 2.794.583 4.19.349 1.281.815 2.445 1.63 3.493s1.746 1.746 2.91 2.328c1.28.582 2.794.814 4.19.814 2.212.116 4.307-.581 5.937-1.978a9.381 9.381 0 0 0 2.91-5.355h-2.56c-.233 1.514-1.048 2.793-2.096 3.84-1.164.932-2.793 1.515-4.306 1.399a4.681 4.681 0 0 1-3.027-.698c-.815-.466-1.514-1.05-2.096-1.864-.582-.699-.931-1.63-1.164-2.56-.233-.932-.35-1.863-.466-2.91h15.831a12.792 12.792 0 0 0-.348-4.191c-.232-1.397-.815-2.563-1.514-3.727-1.63-2.328-4.307-3.725-7.1-3.608zm-116.061.116c-1.514 0-3.028.35-4.425 1.164-1.28.815-2.212 1.98-2.794 3.376h-.116v-3.958h-2.444v28.057h2.444v-11.41h.116c.233.7.698 1.397 1.164 1.979.582.582 1.164 1.049 1.746 1.398.698.35 1.398.581 2.096.814 2.096.466 4.308.35 6.287-.582 1.164-.582 2.095-1.397 2.91-2.328a9.859 9.859 0 0 0 1.746-3.493 16.561 16.561 0 0 0 0-8.264 9.86 9.86 0 0 0-1.746-3.493c-.815-.931-1.746-1.746-2.91-2.328-1.28-.698-2.677-.932-4.074-.932zm-16.066.582v20.49h2.444v-20.49zm16.182 1.514c1.047 0 2.095.232 3.026.814.815.466 1.514 1.166 2.096 1.98.582.815.931 1.747 1.164 2.795.466 2.095.466 4.305 0 6.284-.233.932-.582 1.98-1.164 2.795s-1.281 1.514-2.096 1.98c-.931.582-1.979.814-3.026.814-1.165 0-2.33-.232-3.377-.814a7.15 7.15 0 0 1-2.212-1.98c-.582-.815-1.047-1.747-1.28-2.795a14.443 14.443 0 0 1-.35-3.142c0-1.164.117-2.329.35-3.376.233-1.048.582-1.98 1.164-2.795s1.28-1.396 2.212-1.862c1.048-.465 2.328-.698 3.493-.698zm37.95 0c.93 0 1.863.117 2.678.582.698.35 1.396.932 1.978 1.63s1.047 1.514 1.28 2.329c.35.931.582 1.86.582 2.676H95.458c.116-.931.35-1.745.7-2.676.233-.815.698-1.63 1.28-2.329a4.546 4.546 0 0 1 1.978-1.63c.931-.349 1.863-.582 2.794-.582zm78.111 0c.932 0 1.864.117 2.679.582.698.35 1.396.932 1.978 1.63s1.047 1.514 1.28 2.329c.233.931.466 1.86.582 2.676h-13.27c.117-.931.35-1.745.699-2.676.233-.815.698-1.63 1.28-2.329a4.546 4.546 0 0 1 1.978-1.63c.931-.349 1.863-.582 2.794-.582z"/>
</svg>
