<svg xmlns="http://www.w3.org/2000/svg" viewBox="6.89 -3.11 265.46 105.96">
	<g fill="none" fill-rule="evenodd">
		<path d="M248.57 65.243c5.879 0 8.198-1.98 8.198-5.94 0-3.63-2.629-6.105-8.43-6.105h-13.074v12.045h13.306zm-13.306-30.69v10.064h13.46c4.641 0 6.266-2.31 6.266-4.95 0-2.804-2.087-5.115-7.038-5.115h-12.688zm-9.59 40.097c-.466 0-.928-.497-.928-.992v-47.52c0-.498.462-.992.927-.992h23.748c10.52 0 16.09 5.94 16.09 13.613 0 3.96-1.471 7.095-4.024 9.324v.164c3.636 2.477 5.802 6.435 5.802 11.55 0 9.489-6.497 14.853-17.636 14.853h-23.98zm-42.857-40.098v30.69h10.132c9.824 0 15.007-5.94 15.007-15.344 0-9.406-6.343-15.346-15.16-15.346h-9.98zm-9.591 40.097c-.465 0-.93-.494-.93-.989V26.137c0-.495.465-.992.93-.992h19.57c14.696 0 25.681 9.655 25.681 24.753 0 14.932-9.284 24.751-25.528 24.751h-19.723zm-37.362-20.626v11.22h27.23c.462 0 1.08.66 1.08 1.155v7.096c0 .494-.618 1.155-1.08 1.155h-36.821c-.465 0-.93-.494-.93-.991V26.137c0-.495.465-.992.93-.992h36.355c.465 0 1.083.661 1.083 1.156v7.095c0 .495-.618 1.156-1.083 1.156h-26.764v10.065h24.442c.465 0 1.083.66 1.083 1.155v7.096c0 .494-.618 1.155-1.083 1.155h-24.442z" fill="#000"/>
		<g transform="translate(12 2)">
			<circle cx="48" cy="48" r="48" fill="#FF3E00"/>
			<path fill="#FFF" d="M78 38.562c0-4.624-3.87-7.991-8.643-7.518l-7.26.72c-.765.075-1.385.737-1.385 1.48v26.545c0 .74.62 1.28 1.385 1.204l7.26-.72C74.13 59.801 78 55.67 78 51.043c0-2.48-1.114-4.597-2.883-5.955C76.886 43.38 78 41.041 78 38.562m-44.097-6.799-7.258-.719C21.87 30.571 18 33.936 18 38.561c0 2.48 1.114 4.818 2.883 6.527C19.114 46.446 18 48.563 18 51.043c0 4.625 3.87 8.758 8.645 9.23l7.258.72c.765.076 1.385-.464 1.385-1.205V33.243c0-.741-.62-1.404-1.385-1.48M47.998 39H40.74c-.765 0-1.385.594-1.385 1.328v19.908c0 .776.557 1.554 1.362 1.554h7.281c-.076 1.449-2.15 2.543-7.011 3.06l-.551.048c-.329.033-1.081 0-1.081 1.362v.361c0 .734.6 1.379 1.366 1.379h7.257c4.774 0 8.665-3.762 8.665-8.342V47.293c0-4.58-3.87-8.293-8.646-8.293"/>
		</g>
	</g>
</svg>
