<svg id="Layer_1" data-name="Layer 1" xmlns="http://www.w3.org/2000/svg" viewBox="0 0 500 350">
	<defs>
		<style>
			.cls-1{fill:#00d963}.cls-2{fill:#767171}
		</style>
	</defs>
	<path class="cls-1" d="M120.447 338.944c1.647-3.385 3.728-6.52 5.622-9.762q4.685-8.017 9.406-16.013c2.602-4.404 5.245-8.783 7.846-13.187 3.149-5.33 6.266-10.679 9.409-16.012 2.57-4.36 5.162-8.706 7.737-13.064q4.765-8.064 9.517-16.135 3.863-6.535 7.741-13.06 4.765-8.065 9.515-16.138c2.575-4.357 5.17-8.702 7.744-13.059 3.176-5.376 6.331-10.766 9.513-16.14 4.03-6.81 8.09-13.603 12.116-20.415 3.15-5.33 6.263-10.681 9.406-16.014 2.57-4.36 5.165-8.705 7.74-13.062q4.765-8.064 9.515-16.137c2.574-4.357 5.17-8.702 7.743-13.059 3.177-5.376 6.332-10.766 9.513-16.14 4.031-6.81 8.091-13.602 12.116-20.416 3.121-5.282 6.194-10.594 9.315-15.876 2.056-3.478 4.184-6.913 6.229-10.397.577-.984.846-.897 1.388.034q7.918 13.611 15.906 27.182c5.258 8.903 10.656 17.724 15.85 26.663 5.788 9.962 11.692 19.854 17.528 29.786 5.537 9.423 11.034 18.868 16.635 28.254 5.903 9.893 11.72 19.837 17.55 29.774 5.339 9.1 10.622 18.233 15.972 27.326 4.914 8.353 9.909 16.658 14.826 25.01 5.025 8.536 9.98 17.114 15.003 25.652 4.15 7.053 8.378 14.06 12.526 21.113 5.021 8.538 9.979 17.114 14.996 25.655 3.399 5.785 6.853 11.538 10.282 17.305-.072.102.167.346-.166.335-.441-.014-.884-.003-1.325-.003Zm234.743-62.351-66.541-113.04-66.793 113.04Z"/>
	<path class="cls-2" d="M14.015 54.128h252.323c-.706 2.308-2.122 4.091-3.234 6.012-3.475 5.998-7.035 11.946-10.565 17.912q-5.997 10.136-11.998 20.27c-3.167 5.362-6.353 10.713-9.46 16.11a3.42 3.42 0 0 1-3.39 2.084q-106.838-.094-213.676-.053Z"/>
	<path class="cls-2" d="M14.015 161.887h188.917c-3.616 6.161-7.135 12.177-10.674 18.181q-5.28 8.956-10.594 17.892-5.645 9.496-11.312 18.978c-1.217 2.048-2.44 4.096-3.548 6.203a1.848 1.848 0 0 1-1.941 1.099c-4.2-.042-8.4-.018-12.599-.018H14.015Z"/>
	<path class="cls-2" d="M14.015 274.951h121.939a64.982 64.982 0 0 1-4.216 7.425c-3.122 5.386-6.293 10.745-9.462 16.104-4.023 6.804-8.073 13.591-12.095 20.396q-4.71 7.969-9.363 15.97c-.78 1.348-1.88 2.526-2.254 4.098q-41.611 0-83.223.032c-1.135.001-1.36-.223-1.358-1.359q.066-31.333.032-62.666Z"/>
	<path class="cls-2" d="M90.275 11.024c1.884.568 3.854.772 5.709 1.508a18.772 18.772 0 0 1 6.492 4.54c.481.492.394.807-.058 1.214a232.996 232.996 0 0 0-3.995 3.67c-.58.547-.751-.092-1.007-.322a13.988 13.988 0 0 0-9.867-3.962 11.67 11.67 0 0 0-10.976 10.944c-.23 6.554 6.105 12.352 12.719 11.643 3.324-.357 5.973-1.429 7.632-4.436a2.92 2.92 0 0 0 .22-.432 2.136 2.136 0 0 0 .006-.494c-2.643 0-5.27-.04-7.896.02-.978.023-1.404-.194-1.323-1.267a31.448 31.448 0 0 0 .008-3.81c-.04-.873.142-1.274 1.152-1.264 4.972.048 9.944.032 14.916.011.76-.003 1.178.068 1.213 1.035.272 7.53-5.104 15.744-13.416 16.924-5.352.76-10.363.135-14.762-3.064a17.102 17.102 0 0 1-7.02-11.708A17.386 17.386 0 0 1 73.24 18.24a16.496 16.496 0 0 1 11.723-6.884c.27-.033.56.007.67-.333Z"/>
	<path class="cls-2" d="M14.015 12.02c5.798 0 11.596.04 17.393-.033 1.267-.016 1.634.345 1.53 1.57a25.74 25.74 0 0 0-.004 3.806c.063 1.001-.23 1.337-1.278 1.313-3.09-.071-6.184.01-9.275-.045-1.01-.018-1.431.166-1.435 1.327-.014 4.33-.062 4.33 4.21 4.33 2.209 0 4.418.03 6.626-.016.832-.018 1.192.188 1.15 1.096a48.709 48.709 0 0 0 0 4.471c.042.911-.323 1.105-1.152 1.095-3.147-.039-6.296.028-9.442-.04-1.077-.023-1.439.278-1.384 1.375a50.978 50.978 0 0 1 0 5.299c-.067 1.237.216 1.728 1.593 1.676 3.033-.116 6.074.01 9.11-.061 1.048-.025 1.363.31 1.27 1.312-.164 1.738.727 4.013-.377 5.07-.879.84-3.139.263-4.786.269-4.583.015-9.166.005-13.749.005Z"/>
	<path class="cls-1" d="M147.971 28.963c0-5.194.029-10.388-.024-15.58-.01-1.06.245-1.413 1.356-1.386 3.202.076 6.41-.041 9.612.04 8.207.208 13.716 4.104 15.609 12.865a18.865 18.865 0 0 1-2.73 15.307 12.37 12.37 0 0 1-10.326 5.608c-4.031.081-8.067-.033-12.098.048-1.21.025-1.438-.37-1.425-1.488.06-5.138.026-10.276.026-15.414Zm6.622-.109c0 3.147-.015 6.294.019 9.44.004.415-.35 1.18.428 1.207 3.093.107 6.224.157 9.048-1.356 2.613-1.402 3.628-3.954 3.979-6.689.508-3.964-.038-7.772-3.195-10.617-2.537-2.287-5.85-2.25-9.023-2.539-1.04-.095-1.302.265-1.28 1.28.067 3.09.024 6.183.024 9.274Z"/>
	<path class="cls-2" d="M38.55 28.86c0-5.136.038-10.272-.027-15.408-.015-1.172.314-1.487 1.472-1.46 3.367.077 6.743-.106 10.104.062 3.848.193 7.569 1.101 10.414 3.913a15.756 15.756 0 0 1 4.812 9.9c.37 4.337.412 8.743-1.91 12.762-2.568 4.445-6.322 6.992-11.465 7.18-4.026.147-8.063-.016-12.093.059-1.167.021-1.333-.427-1.325-1.434.041-5.19.019-10.382.019-15.574Zm6.632-.098c0 3.149.05 6.299-.027 9.445-.027 1.126.37 1.32 1.404 1.372a29.284 29.284 0 0 0 5.066-.438 6.926 6.926 0 0 0 5.45-3.397 12.06 12.06 0 0 0 1.552-4.547c.49-3.71-.121-7.216-2.81-9.987-2.51-2.586-5.966-2.559-9.254-2.9-1.052-.109-1.437.21-1.408 1.338.079 3.036.027 6.076.027 9.114Z"/>
	<path class="cls-1" d="M275.63 45.834c-2.143 0-4.174-.008-6.206.004-.642.004-.926-.246-1.13-.9-.463-1.484-1.098-2.914-1.629-4.377a1.713 1.713 0 0 0-1.873-1.39c-3.754.086-7.511.06-11.266.01a1.284 1.284 0 0 0-1.436.968c-.553 1.57-1.138 3.128-1.686 4.699a1.243 1.243 0 0 1-1.4 1.011c-1.984-.078-3.973-.025-6.167-.025 1.102-2.882 2.163-5.666 3.231-8.448 2.887-7.516 5.807-15.02 8.652-22.552 1.05-2.78.97-2.81 3.891-2.81 4.001 0 4.092-.036 5.51 3.598 3.71 9.499 7.335 19.031 10.988 28.553.189.492.319 1.008.522 1.659ZM259.323 21.65l-4.226 10.871h8.487Z"/>
	<path class="cls-1" d="M180.796 28.902c0-5.134.03-10.269-.024-15.402-.012-1.087.165-1.524 1.401-1.508 5.41.073 10.82.056 16.23.01.982-.008 1.381.192 1.307 1.262a36.051 36.051 0 0 0-.005 4.303c.046.901-.287 1.108-1.132 1.096-3.256-.043-6.514.018-9.77-.038-1.016-.017-1.541.165-1.4 1.327.171 1.403-.604 3.286.33 4.1.796.694 2.623.225 3.994.235 2.263.017 4.528.051 6.79-.017.957-.029 1.24.276 1.188 1.21a25.134 25.134 0 0 0 .01 3.97c.138 1.343-.434 1.516-1.587 1.49-3.145-.075-6.294.015-9.44-.05-1.007-.02-1.341.233-1.295 1.277.087 1.984.07 3.975.005 5.96-.028.893.275 1.115 1.128 1.103 3.201-.045 6.405.031 9.605-.044 1.158-.027 1.738.156 1.576 1.493-.202 1.675.707 3.94-.372 4.894-.94.832-3.148.252-4.796.257-4.14.013-8.281-.038-12.42.032-1.122.019-1.356-.346-1.346-1.393.05-5.188.023-10.378.023-15.567Z"/>
	<path class="cls-2" d="M110.832 28.85c0-5.137.039-10.275-.03-15.412-.015-1.194.354-1.458 1.488-1.445q7.871.089 15.744.003c1.07-.01 1.472.264 1.386 1.37a23.385 23.385 0 0 0 0 3.644c.098 1.238-.213 1.73-1.591 1.676-2.979-.116-5.967.024-8.947-.065-1.197-.035-1.454.356-1.447 1.488.024 4.178-.018 4.178 4.195 4.178 2.155 0 4.31.044 6.463-.02.97-.028 1.402.18 1.33 1.262a37.51 37.51 0 0 0-.006 4.306c.043.908-.315 1.11-1.15 1.099-3.148-.04-6.298.029-9.445-.04-1.082-.024-1.435.285-1.383 1.378.087 1.82.09 3.648 0 5.467-.056 1.125.226 1.534 1.434 1.498 3.036-.09 6.078.03 9.113-.059 1.205-.035 1.513.367 1.434 1.496-.115 1.644.542 3.847-.29 4.801-.956 1.097-3.212.325-4.9.348-3.92.051-7.844-.031-11.765.043-1.247.024-1.693-.24-1.67-1.603.09-5.136.037-10.275.037-15.412Z"/>
	<path class="cls-1" d="M228.54 32.16c0-4.089-.038-8.178.027-12.266.017-1.053-.309-1.413-1.304-1.25a1.434 1.434 0 0 1-.331 0c-1.414-.101-3.762.558-4.06-.253-.644-1.754-.276-3.888-.274-5.867 0-.7.616-.49 1.004-.491 5.636-.013 11.273 0 16.909-.02.692-.003.989.168.966.92q-.073 2.401 0 4.807c.023.755-.28.99-.97.908a2.64 2.64 0 0 0-.496 0c-1.469.106-3.479-.65-4.26.314-.738.912-.25 2.842-.252 4.324-.01 7.018-.04 14.036.029 21.053.012 1.27-.341 1.622-1.562 1.52a25.226 25.226 0 0 0-3.974-.002c-1.138.086-1.505-.232-1.482-1.43.08-4.087.031-8.177.03-12.266Z"/>
	<path class="cls-1" d="M205 28.82c0-5.08.033-10.159-.025-15.237-.013-1.15.143-1.743 1.487-1.58 1.787.214 4.202-.762 5.216.38.887.998.269 3.357.271 5.115.011 6.846.04 13.692-.027 20.537-.012 1.244.302 1.602 1.545 1.54 2.147-.11 4.308.038 6.456-.06 1.143-.05 1.397.37 1.334 1.404-.08 1.32-.051 2.65-.007 3.974.023.707-.192.96-.93.955a909.176 909.176 0 0 0-14.41.006c-1.115.012-.908-.668-.908-1.3q-.005-7.867-.002-15.734Z"/>
</svg>
