<svg xmlns="http://www.w3.org/2000/svg" viewBox="2.86 -1.14 202.28 75.78">
	<path fill="#fefefe" d="M6.753 36.953V2.884h194.579v68.138H6.752z"/>
	<path fill="#cdcdcd" d="M199.974 70.303a2.15 2.15 0 0 1-.065-.335l-.026-.22-87.675-.043-87.674-.044-.859-.237c-.988-.273-2.25-.847-3.06-1.39-.765-.516-2.18-1.917-2.712-2.686-.96-1.387-1.613-3.174-1.726-4.713-.048-.66-.076-.765-.196-.717l-.58.223c-.658.25-1.606 1.01-2.128 1.705-.865 1.153-1.193 2.495-1.147 4.698l.027 1.273.307.044c.293.042.308.06.308.395v.351l-2.81.025c-1.546.013-2.899.003-3.008-.024-.156-.038-.197-.11-.197-.345 0-.249.041-.311.255-.386l.255-.089.04-2.356c.035-2.049.065-2.454.231-3.103.227-.887.996-2.529 1.537-3.281.45-.627 2.026-2.188 2.599-2.575 1.159-.783 3.282-1.606 4.144-1.607h.324l.03-4.808.03-4.807.234-.859c.283-1.038.864-2.292 1.465-3.161.534-.773 1.949-2.176 2.71-2.688.796-.535 2.044-1.111 3.005-1.387l.834-.239 5.86-.03c3.224-.016 5.862-.06 5.862-.098 0-.038-.1-.362-.222-.72-.598-1.759-1.92-2.937-3.901-3.474-.29-.08-1.195-.163-2.243-.209-1.275-.055-1.96-.127-2.503-.26-.877-.217-2.518-.982-3.281-1.53-.627-.45-2.188-2.026-2.575-2.599-.483-.715-1.17-2.188-1.402-3.011-.212-.746-.232-.975-.27-2.97l-.04-2.16-.936-.051c-1.662-.092-3.436-.693-4.853-1.646-.765-.515-2.181-1.916-2.713-2.685-.594-.86-1.176-2.1-1.457-3.107-.216-.77-.237-1.007-.287-3.117L9.43 6.967l-.307-.044c-.292-.041-.308-.06-.308-.39 0-.433.095-.467 1.334-.479.492-.005.919-.047.948-.095.03-.047-.028-.347-.126-.667-.1-.32-.18-.636-.18-.703 0-.433 3.203-1.29 5.88-1.573 1.658-.175 5.985-.175 7.774-.001 2.42.236 4.673.736 7.174 1.594 4.132 1.417 7.432 3.222 10.755 5.883 1.036.83 3.63 3.353 4.635 4.51 4.067 4.677 6.905 10.74 7.945 16.97.396 2.374.481 3.373.481 5.684 0 2.31-.085 3.31-.48 5.683-.737 4.408-2.44 8.917-4.81 12.725-.81 1.302-2.249 3.25-3.153 4.27-.69.776-2.275 2.258-2.775 2.592l-.335.225-2.957-2.954-2.958-2.954-.659.444c-.962.65-2.612 1.452-3.538 1.722l-.808.235-5.949.03-5.949.029v.294c0 .407.314 1.394.645 2.025.159.304.556.81.94 1.196.724.729 1.485 1.164 2.545 1.457.543.15 4.33.157 87.628.157h87.06l.044-.308c.042-.292.06-.307.395-.307h.351v6.147l-.33.027c-.214.017-.343-.013-.369-.088zM32.487 54.536c1.739-.587 2.806-1.643 3.44-3.402.373-1.036.417-1.632.417-5.663v-3.785l-5.379.028c-5.358.028-5.38.03-5.992.233-1.004.333-1.62.708-2.338 1.42-.497.495-.75.833-.983 1.319-.624 1.297-.618 1.24-.653 5.948l-.032 4.24 5.34-.026 5.339-.027zm8.612-1.67c1.91-2.606 3.44-5.82 4.292-9.02.278-1.046.611-2.867.611-3.342v-.295l-.988.478c-1.062.515-2.259.875-3.228.97l-.604.06-.032 4.796c-.03 4.61-.039 4.826-.225 5.543-.107.41-.253.895-.325 1.077-.25.64-.112.565.499-.268zm.838-16.307c1.59-.508 2.757-1.56 3.383-3.051.322-.765.326-1.117.025-2.223-.671-2.463-1.78-5-3.166-7.24-.874-1.412-2.8-3.858-3.23-4.103-.147-.084-1.82-.109-7.292-.11h-7.102l.043 1.514c.04 1.396.064 1.58.317 2.355.397 1.212 1.002 2.052 1.991 2.762 1.07.768 1.953.998 4.213 1.096 1.275.056 1.96.127 2.503.26.877.217 2.518.982 3.281 1.53.627.45 2.188 2.026 2.575 2.6.802 1.186 1.502 3.015 1.656 4.324.032.277.072.505.088.505s.338-.099.715-.219zM20.068 14.491c.054-.281.298-.94.542-1.466.245-.524.422-.99.395-1.036-.03-.047-.402-.058-.895-.025l-1.591.102c-.41.025-1.274.123-1.919.218-.644.094-1.188.171-1.207.171-.139 0 .028.315.364.689.802.892 1.921 1.506 3.155 1.73 1.07.194 1.045.203 1.156-.383zm12.01.435c.129-.21-4.246-1.945-4.898-1.943-.195 0-.398.105-.694.359-.42.36-1.206 1.377-1.206 1.561 0 .12 6.724.142 6.798.023zm135.8 48.547c-4.881-.404-8.698-3.002-10.916-7.43-.853-1.704-1.374-3.45-1.741-5.831-.17-1.097-.197-1.637-.201-3.907-.006-2.846.07-3.638.536-5.62 1.05-4.456 3.566-7.922 6.921-9.534 1.854-.89 3.35-1.222 5.818-1.288 2.591-.069 4.4.197 6.21.913 2.924 1.158 5.123 3.387 6.308 6.397.77 1.953 1.05 3.781 1.061 6.936l.009 2.283-10.823.023-10.822.022v.785c0 2.173.615 4.81 1.587 6.81 1.404 2.889 3.316 4.584 5.745 5.094 1.312.276 3.56.15 5.049-.282 1.96-.568 4.106-2.074 5.66-3.973.278-.341.566-.62.64-.62.073 0 .879.601 1.79 1.336 1.176.948 1.656 1.387 1.656 1.514-.002.248-1.327 1.741-2.306 2.6-.994.87-2.629 1.98-3.6 2.441-.761.362-1.773.706-2.737.93-1.467.34-4.264.532-5.845.4zm8.886-21.12c-.067-1.57-.507-3.247-1.245-4.741-.636-1.287-1.262-2.07-2.1-2.628-2.286-1.52-6.443-1.596-8.868-.162-1.817 1.074-3.442 3.546-3.996 6.083-.175.795-.321 1.94-.261 2.038.024.038 3.745.06 8.27.047l8.226-.022zm17.104 20.98a4.41 4.41 0 0 1-2.239-1.218c-.63-.641-.915-1.147-1.246-2.202l-.247-.789V15.748l2.36-.023c1.668-.017 2.396.006 2.481.076.101.084.12 3.337.12 20.632 0 14.583.028 20.666.097 20.997.297 1.432 1.281 1.913 3.653 1.784l1.071-.059.133.468c.073.257.239.895.368 1.418.2.81.217.967.113 1.066-.174.166-1.733.733-2.675.972-1.579.401-2.916.487-3.989.254zm-123.766-.499c-.023-.06-.032-10.68-.02-23.598l.023-23.488 12.547-.022c9.2-.017 12.579.004 12.666.076.162.135.175 4.026.014 4.187-.08.08-2.424.105-10.01.105h-9.906l.023 7.881.022 7.88 7.898.023c6.184.018 7.913.046 7.967.132.038.06.07.939.07 1.953s-.032 1.893-.07 1.953c-.054.086-1.783.114-7.967.132l-7.898.022-.022 9.242-.022 9.242h10.35c8.676 0 10.367.02 10.451.12.07.085.094.733.077 2.174l-.024 2.052-13.063.022c-10.405.018-13.073 0-13.106-.088zm33.737.053c-.033-.033-.06-7.342-.06-16.243 0-15.909.003-16.184.17-16.273.259-.139 4.496-.122 4.687.019.14.102.148 1.157.126 16.31l-.022 16.2-2.42.023c-1.332.013-2.448-.003-2.481-.036zm15.361-.14c-.029-.11-.053-6.49-.054-14.18l-.001-13.981-2.13-.024-2.129-.023-.023-2.058c-.019-1.587.001-2.073.087-2.128.062-.039 1.03-.071 2.153-.072h2.042l.002-.989c0-.543.04-1.68.087-2.527.213-3.854 1.136-6.373 3.065-8.368 1.174-1.214 2.328-1.95 3.87-2.464 2.772-.927 6.244-.85 9.132.203.948.345 1.317.569 1.317.797 0 .232-1.891 4.011-2.03 4.058-.06.02-.559-.193-1.11-.473-.553-.28-1.326-.617-1.72-.749-.649-.217-.834-.24-1.988-.239-1.418.001-2.12.135-3.018.576-1.44.707-2.068 1.768-2.336 3.94-.107.874-.29 6.037-.217 6.154.028.046 1.588.08 3.671.08 2.851 0 3.656.025 3.78.115.15.11.148.196-.068 2.075-.124 1.078-.25 1.984-.28 2.014-.03.03-1.641.074-3.581.099l-3.527.043-.022 14.16-.023 14.158h-4.896l-.053-.198zm19.054 0c-.029-.11-.053-6.49-.054-14.18l-.001-13.981-2.13-.024-2.129-.023-.023-2.058c-.019-1.587.001-2.073.087-2.128.062-.039 1.03-.071 2.153-.072h2.042l.002-.989c0-.543.04-1.68.087-2.527.213-3.854 1.136-6.373 3.065-8.368 1.174-1.214 2.328-1.95 3.87-2.464 2.772-.927 6.244-.85 9.132.203.948.345 1.317.569 1.317.797 0 .232-1.891 4.011-2.03 4.058-.06.02-.559-.193-1.11-.473-.553-.28-1.326-.617-1.72-.749-.649-.217-.834-.24-1.988-.239-1.418.001-2.12.135-3.018.576-1.44.707-2.068 1.768-2.336 3.94-.107.874-.29 6.037-.217 6.154.028.046 1.588.08 3.671.08 2.851 0 3.656.025 3.78.115.15.11.148.196-.068 2.075-.124 1.078-.25 1.984-.28 2.014-.03.03-1.641.074-3.581.099l-3.527.043-.022 14.16-.023 14.158h-4.896l-.053-.198zM61.94 38.59c-1.163-.385-2.066-1.17-2.578-2.242-.317-.663-.32-.679-.32-1.81 0-1.132.003-1.148.32-1.81a4.143 4.143 0 0 1 1.975-1.986c.364-.173.647-.362.647-.434 0-.392-.678-3.258-1.1-4.652l-.217-.715-1.032-.031c-.973-.03-1.07-.05-1.7-.35a4.15 4.15 0 0 1-1.998-1.998c-.316-.663-.319-.678-.319-1.81 0-1.132.003-1.147.32-1.81a4.19 4.19 0 0 1 .812-1.162c.27-.27.492-.553.492-.626 0-.176-1.056-1.907-2.054-3.365-.898-1.313-.777-1.252-1.765-.894-.449.163-.67.187-1.493.16-.896-.03-1.014-.054-1.634-.35a4.147 4.147 0 0 1-1.998-1.997c-.316-.663-.32-.678-.32-1.81 0-1.131.004-1.147.32-1.81a4.154 4.154 0 0 1 1.998-1.997c.662-.317.678-.32 1.81-.32 1.131 0 1.147.003 1.81.32a4.154 4.154 0 0 1 1.997 1.997c.317.663.32.678.32 1.817v1.148l-.374.754-.373.753.71.996c.39.548 1.111 1.673 1.602 2.5l.893 1.504 1.098.033c1.05.03 1.127.046 1.766.351a4.154 4.154 0 0 1 1.998 1.998c.316.663.319.678.319 1.81 0 1.134-.002 1.146-.323 1.818-.237.497-.478.827-.903 1.242l-.58.566.316 1.121c.345 1.222.681 2.659.882 3.767.07.388.147.789.17.89.032.15.127.196.496.24 1.195.141 2.466 1.114 3.047 2.331.317.663.32.679.32 1.81 0 1.132-.003 1.148-.32 1.81a4.15 4.15 0 0 1-1.998 1.998c-.635.303-.719.32-1.678.34-.655.013-1.133-.02-1.36-.095zm2.064-2.002c.79-.342 1.431-1.26 1.431-2.05 0-.478-.32-1.182-.712-1.564-.403-.392-1.09-.704-1.554-.704s-1.15.312-1.553.704c-.391.381-.712 1.085-.713 1.564-.002.686.576 1.618 1.213 1.954.74.39 1.158.411 1.888.096zm-3.425-13.786c.79-.342 1.432-1.26 1.432-2.05 0-.478-.321-1.182-.713-1.564-.403-.392-1.09-.704-1.553-.704-.463 0-1.15.312-1.553.704-.391.381-.713 1.085-.714 1.564-.002.687.577 1.618 1.213 1.954.74.39 1.159.412 1.888.096zm-7.64-11.854c.791-.342 1.433-1.26 1.433-2.05 0-.806-.638-1.703-1.476-2.073-.556-.246-1.024-.246-1.58 0-.838.37-1.475 1.265-1.477 2.073-.002.687.577 1.618 1.213 1.954.74.39 1.159.412 1.888.096zm52.377 11.839c-.821-.323-1.604-1.094-1.845-1.82-.21-.632-.154-1.742.116-2.293.672-1.37 2.128-2.034 3.552-1.62.67.195 1.37.838 1.749 1.609.249.505.283.661.283 1.288-.001.88-.26 1.513-.865 2.119-.606.606-1.162.833-2.024.826-.386-.004-.82-.053-.966-.11z"/>
	<path fill="#e3b2b0" d="M200.032 70.302c-.058-.058-.105-.216-.105-.35v-.246l-87.609-.023-87.609-.022-.918-.244a10.936 10.936 0 0 1-3.172-1.448c-.772-.526-2.285-2.043-2.78-2.786-.917-1.379-1.547-3.165-1.66-4.708l-.056-.758-.229.114c-.126.062-.497.242-.825.399-.7.335-1.583 1.112-2.032 1.79-.722 1.087-1.008 2.316-1.013 4.353-.003 1.475.026 1.576.454 1.576.222 0 .246.03.246.307v.308H6.753v-.308c0-.265.028-.307.209-.307.114 0 .249-.05.299-.11.054-.066.106-1.034.13-2.436.035-2.02.065-2.426.231-3.074.234-.908.896-2.32 1.495-3.187.527-.762 1.857-2.084 2.597-2.581 1.288-.866 3.395-1.676 4.135-1.59l.29.034.03-4.79.032-4.788.24-.919c.267-1.02.809-2.237 1.376-3.087.505-.759 2.012-2.281 2.766-2.795a10.275 10.275 0 0 1 3.104-1.437l1.022-.28h5.773c4.059 0 5.774-.028 5.774-.094 0-.21-.44-1.368-.666-1.754-.547-.934-1.608-1.85-2.588-2.237-.929-.366-1.434-.449-3.2-.526-2.09-.09-2.834-.247-4.138-.87-1.205-.575-1.86-1.032-2.821-1.97-1.317-1.283-2.26-2.847-2.723-4.517-.226-.815-.237-.943-.238-2.969l-.002-2.117-.922-.052c-1.77-.1-3.54-.704-5.013-1.708-.771-.526-2.285-2.043-2.779-2.786a10.61 10.61 0 0 1-1.357-2.972c-.261-.946-.272-1.055-.311-3.196l-.04-2.218H9.22c-.13 0-.284-.047-.342-.105-.14-.14-.135-.464.01-.583.09-.075 4.152-.147 5.959-.105.181.004.273.264.199.562-.045.18-.117.227-.377.249l-.32.026.001 1.669c.002 1.49.024 1.739.204 2.327.223.723.677 1.614 1.09 2.135.834 1.055 2.705 1.9 4.211 1.903.256 0 .316-.028.276-.133-.084-.217.129-.9.59-1.891.237-.512.432-.992.432-1.067 0-.205-.4-.246-1.506-.155-.548.046-1.222.083-1.498.084l-.5.002-.173-.593c-.095-.326-.608-2.134-1.14-4.017a273.945 273.945 0 0 0-1.02-3.563c-.079-.205.28-.332 1.256-.443.467-.054.944-.142 1.06-.197.292-.138 5.64-.14 5.813-.001.067.053.439.125.825.159 2.005.173 5.19.881 7.392 1.642 4.037 1.394 7.342 3.21 10.625 5.84 1.04.832 3.546 3.27 4.548 4.422 4.499 5.175 7.299 11.606 8.181 18.79.22 1.783.22 5.768 0 7.551-.77 6.268-2.984 11.94-6.533 16.732-.704.952-1.459 1.796-1.605 1.796-.12 0-6.056-6.062-6.056-6.185 0-.072.33-.616.732-1.21 2.022-2.98 3.29-5.758 4.139-9.07.296-1.154.652-3.33.56-3.422-.028-.028-.504.187-1.058.478-1.098.577-2.657 1.053-3.548 1.084-.402.014-.488.046-.521.193-.022.096-.053 2.27-.07 4.829-.027 4.39-.04 4.696-.215 5.4-.268 1.076-.942 2.688-1.36 3.249-.582.784-1.818 2.007-2.48 2.457-.934.633-2.325 1.298-3.275 1.564l-.85.237H20.966l.055.44c.065.52.348 1.44.595 1.931.725 1.449 2.31 2.571 4.023 2.85.386.062 27.772.09 87.424.091h86.863v-.245c0-.292.142-.457.395-.457.387 0 .395.062.395 3.118s-.008 3.117-.395 3.117a.47.47 0 0 1-.29-.106zM32.392 54.658c.96-.32 1.55-.658 2.204-1.263.86-.796 1.526-2.14 1.738-3.507.11-.708.136-8.005.03-8.15-.042-.057-1.926-.071-5.508-.04l-5.444.047-.62.227c-.827.304-1.13.466-1.731.928-1 .767-1.772 2.108-1.991 3.457-.054.33-.092 2.231-.092 4.601v4.04l5.334-.046 5.334-.046.746-.248zm9.492-18.044c.929-.314 1.222-.464 1.86-.954 1.088-.835 1.931-2.383 1.926-3.536-.004-.927-1.04-3.89-2.095-5.995-1.025-2.043-2.665-4.427-4.105-5.969l-.308-.329H24.446l.056 1.515c.048 1.31.088 1.615.294 2.26.646 2.026 1.956 3.256 4.08 3.832.29.08 1.195.163 2.243.209 1.278.056 1.96.127 2.503.26.898.223 2.309.882 3.187 1.489.762.526 2.084 1.856 2.581 2.596.878 1.307 1.51 2.946 1.654 4.299.034.316.07.574.079.574.01 0 .352-.113.761-.251zm-9.316-21.686c0-.166-2.651-1.324-4.242-1.853-1.18-.392-1.318-.36-2.167.514-.363.374-.75.844-.86 1.046l-.2.367h3.734c2.054 0 3.735-.034 3.735-.074zM167.49 63.38c-2.276-.262-4.229-.958-6.022-2.147-.951-.63-2.824-2.533-3.502-3.558-1.357-2.051-2.194-4.356-2.663-7.332-.17-1.074-.194-1.584-.197-4.04-.005-3.132.07-3.855.612-5.978.714-2.798 1.985-5.135 3.773-6.938 2.103-2.122 4.606-3.19 8.135-3.468 3.362-.266 6.544.44 8.903 1.978 2.755 1.796 4.517 4.802 5.086 8.674.294 1.999.357 5.626.1 5.797-.052.036-4.932.065-10.844.066l-10.748.001.055 1.12c.192 3.935 1.655 7.622 3.867 9.746 1.095 1.05 2.173 1.616 3.651 1.915 1.383.279 3.709.096 5.274-.414 1.815-.592 3.931-2.128 5.364-3.895.254-.313.52-.57.591-.57.222 0 3.35 2.573 3.351 2.756.002.205-1.058 1.464-1.833 2.177-2.555 2.35-4.88 3.493-8.087 3.977-1.11.167-3.902.243-4.866.133zm9.37-20.435c.02-.036.003-.421-.037-.856-.263-2.888-1.49-5.71-3.002-6.906-2.364-1.869-6.98-1.97-9.626-.21-1.825 1.213-3.355 3.82-3.826 6.52-.072.413-.13.923-.13 1.134v.384h8.292c4.56 0 8.309-.03 8.328-.066zm16.901 20.3c-1.622-.393-2.769-1.555-3.333-3.376l-.204-.658-.023-21.711-.023-21.712 2.394.023 2.394.024.044 20.766c.048 22.656.012 21.14.518 21.852.438.614 1.717.92 3.446.826.767-.042.854-.031.931.118.143.28.659 2.482.61 2.608-.052.137-1.37.655-2.384.938-1.554.433-3.325.556-4.37.303zm-123.553-.36c-.033-.033-.059-10.642-.059-23.577V15.791l12.578.023 12.579.022v4.127l-9.967.044-9.966.044-.022 7.924-.022 7.925h7.885c6.016 0 7.91.025 7.99.105.15.15.15 3.767 0 3.916-.08.08-1.974.105-7.99.105H75.33l.022 9.286.022 9.286 10.406.043 10.405.044.023 2.058c.018 1.587-.002 2.073-.088 2.128-.133.084-25.827.099-25.911.014zm33.768-.015c-.087-.055-.105-3.366-.088-16.264l.023-16.195h4.741l.022 16.195c.018 12.898 0 16.209-.088 16.264-.06.039-1.097.07-2.305.07-1.207 0-2.244-.031-2.305-.07zm15.362-.032c-.081-.082-.105-3.36-.105-14.225v-14.12h-2.09c-1.508 0-2.12-.029-2.195-.105-.075-.075-.106-.634-.106-1.958 0-1.324.03-1.883.106-1.958.076-.076.684-.105 2.183-.105h2.077l.051-2.261c.083-3.637.443-5.409 1.524-7.503.993-1.924 2.757-3.547 4.759-4.38 2.603-1.084 6.314-1.151 9.318-.17 1.088.356 1.67.663 1.67.882 0 .195-1.813 3.872-1.953 3.96-.049.032-.638-.211-1.31-.54-1.607-.784-2.168-.924-3.63-.906-2.292.029-3.936.81-4.644 2.208-.57 1.124-.737 2.376-.815 6.098l-.055 2.612h3.748c3.32 0 3.754.015 3.8.137.072.186-.325 3.741-.433 3.88-.066.084-.89.11-3.587.11h-3.501v14.119c0 10.865-.024 14.144-.105 14.225-.077.076-.722.105-2.354.105-1.63 0-2.276-.029-2.353-.105zm19.054 0c-.081-.082-.105-3.36-.105-14.225v-14.12h-2.09c-1.508 0-2.12-.029-2.195-.105-.076-.075-.106-.634-.106-1.958 0-1.324.03-1.883.106-1.958.076-.076.684-.105 2.183-.105h2.077l.051-2.261c.083-3.637.443-5.409 1.524-7.503.993-1.924 2.757-3.547 4.759-4.38 2.603-1.084 6.314-1.151 9.318-.17 1.088.356 1.67.663 1.67.882 0 .195-1.813 3.872-1.953 3.96-.049.032-.638-.211-1.31-.54-1.607-.784-2.168-.924-3.63-.906-2.292.029-3.936.81-4.644 2.208-.57 1.124-.737 2.376-.815 6.098l-.055 2.612h3.748c3.32 0 3.754.015 3.8.137.072.186-.325 3.741-.433 3.88-.066.084-.89.11-3.587.11h-3.501v14.119c0 10.865-.024 14.144-.105 14.225-.077.076-.722.105-2.354.105-1.63 0-2.276-.029-2.353-.105zM62.071 38.584a4.3 4.3 0 0 1-1.851-1.097c-2.057-2.057-1.45-5.484 1.195-6.74l.672-.318-.06-.404c-.153-1.033-1.07-4.647-1.27-5.004-.06-.107-.223-.13-.808-.11-1.27.045-2.291-.347-3.153-1.209-.813-.813-1.22-1.798-1.22-2.949 0-1.154.391-2.099 1.231-2.968.287-.297.522-.59.522-.652 0-.16-1.54-2.665-2.28-3.708-.344-.485-.685-.882-.757-.882-.073 0-.259.066-.414.145-.46.239-1.12.38-1.773.38-1.151 0-2.136-.408-2.949-1.22a4.145 4.145 0 0 1 0-5.897 4.145 4.145 0 0 1 5.897 0c.813.812 1.22 1.797 1.22 2.948 0 .777-.16 1.384-.56 2.11l-.314.57.841 1.207a50.833 50.833 0 0 1 1.63 2.533l.79 1.328.772-.044c1.324-.075 2.369.31 3.26 1.2.813.814 1.22 1.799 1.22 2.95 0 1.209-.413 2.158-1.327 3.046l-.605.588.315 1.117c.343 1.219.68 2.656.88 3.763.071.388.146.785.167.883.03.14.158.199.619.286a4.19 4.19 0 0 1 2.155 1.154c2.278 2.277 1.226 6.165-1.894 7-.54.144-1.621.141-2.151-.006zm1.81-1.906a2.454 2.454 0 0 0 1.427-1.426c.103-.275.187-.596.187-.713 0-.422-.37-1.21-.744-1.583-.374-.374-1.161-.744-1.583-.744s-1.209.37-1.582.744c-.374.374-.744 1.161-.744 1.583 0 .421.37 1.209.744 1.583.38.379 1.12.73 1.557.739.131.002.463-.08.738-.183zm-3.424-13.785a2.453 2.453 0 0 0 1.427-1.427c.103-.275.187-.596.187-.713 0-.421-.37-1.209-.744-1.583-.374-.374-1.162-.744-1.583-.744-.421 0-1.21.37-1.583.744-.374.374-.744 1.162-.744 1.583 0 .422.37 1.209.744 1.583.38.38 1.12.73 1.558.74.13.002.463-.08.738-.183zm-7.64-11.854a2.453 2.453 0 0 0 1.428-1.427c.102-.275.187-.596.187-.713 0-.421-.37-1.209-.744-1.583-.374-.374-1.162-.744-1.583-.744s-1.21.37-1.583.744c-.374.374-.744 1.162-.744 1.583 0 .422.37 1.21.744 1.583.38.38 1.12.731 1.558.74.13.002.463-.08.738-.183zm52.714 11.75c-.797-.224-1.598-.927-1.954-1.713-.281-.622-.264-1.656.04-2.299.523-1.108 1.315-1.668 2.456-1.737.908-.054 1.463.134 2.06.7.66.622.956 1.313.957 2.225.001.62-.033.774-.289 1.292-.6 1.222-2.02 1.886-3.27 1.533z"/>
	<path fill="#b4b3b3" d="M200.062 70.216a2.149 2.149 0 0 1-.065-.335l-.026-.22-87.675-.044-87.675-.044-.858-.237c-.988-.272-2.25-.846-3.06-1.39-.765-.515-2.18-1.917-2.713-2.686a11.32 11.32 0 0 1-1.467-3.15l-.243-.878V45.339l.237-.859c.288-1.043.87-2.297 1.468-3.161.534-.773 1.949-2.176 2.71-2.688.796-.535 2.044-1.111 3.004-1.387l.835-.24 5.774-.029 5.775-.03.08.202c.191.474.086-.447-.12-1.05-.624-1.837-1.96-3.037-3.998-3.59-.29-.079-1.195-.163-2.243-.209-2.09-.09-2.834-.247-4.138-.87-1.205-.575-1.86-1.032-2.821-1.97-1.318-1.284-2.261-2.85-2.723-4.517-.224-.813-.235-.947-.238-2.959l-.002-2.107h4.566l.055 1.493c.047 1.288.088 1.594.294 2.239.649 2.026 1.957 3.255 4.08 3.831.292.08 1.196.163 2.244.209 2.09.09 2.834.247 4.138.87 1.205.576 1.86 1.033 2.821 1.97 1.746 1.702 2.717 3.675 3.009 6.115.073.614.077 2.662.014 7.77-.08 6.532-.096 6.981-.265 7.684-.256 1.06-.932 2.681-1.354 3.249-.583.783-1.819 2.007-2.482 2.457-.933.633-2.324 1.298-3.274 1.563l-.85.238H21.02v-4.566l5.313-.045 5.312-.045.746-.249c.96-.32 1.55-.658 2.204-1.263.86-.796 1.526-2.14 1.738-3.507.113-.734.126-4.512.031-9.203l-.065-3.249-.044 2.064-.044 2.063-5.356.046c-5.308.046-5.362.048-5.971.25-1.003.333-1.62.708-2.338 1.42-.498.496-.75.833-.984 1.322-.657 1.364-.63.983-.63 8.728v6.937l.206.658c.318 1.02.692 1.646 1.423 2.382.724.729 1.485 1.164 2.545 1.457.543.15 4.333.157 87.716.157h87.148l.044-.308c.039-.273.073-.307.307-.307h.263v5.97l-.242.029c-.142.016-.258-.02-.28-.088zm-193.31-1.96c0-.265.03-.307.21-.307.114 0 .249-.05.299-.11.054-.066.106-1.034.13-2.436.035-2.02.065-2.426.231-3.074.234-.908.896-2.32 1.495-3.187.527-.762 1.857-2.084 2.597-2.581 1.273-.856 3.358-1.663 4.108-1.59l.282.026v4.735l-.22.106-.815.391c-.7.336-1.583 1.113-2.032 1.79-.722 1.088-1.008 2.317-1.013 4.354-.003 1.475.026 1.576.454 1.576.222 0 .246.03.246.307v.308H6.753zm160.738-4.875c-2.276-.262-4.229-.958-6.022-2.147-.951-.63-2.824-2.533-3.502-3.558-1.357-2.051-2.194-4.356-2.663-7.332-.17-1.074-.194-1.584-.197-4.04-.005-3.132.07-3.855.612-5.978.714-2.798 1.985-5.135 3.773-6.938 2.103-2.122 4.606-3.19 8.135-3.468 3.362-.266 6.544.44 8.903 1.978 2.755 1.796 4.517 4.802 5.086 8.674.294 1.999.357 5.626.1 5.797-.052.036-4.932.065-10.844.066l-10.748.001.055 1.12c.192 3.935 1.655 7.622 3.867 9.746 1.095 1.05 2.173 1.616 3.651 1.915 1.383.279 3.709.096 5.274-.414 1.815-.592 3.931-2.128 5.364-3.895.254-.313.52-.57.591-.57.222 0 3.35 2.573 3.351 2.756.002.205-1.058 1.464-1.833 2.177-2.555 2.35-4.88 3.493-8.087 3.977-1.11.167-3.902.243-4.866.133zm9.37-20.435c.02-.036.003-.421-.037-.856-.263-2.888-1.49-5.71-3.002-6.906-2.364-1.869-6.98-1.97-9.626-.21-1.825 1.213-3.355 3.82-3.826 6.52-.072.413-.13.923-.13 1.134v.384h8.292c4.56 0 8.309-.03 8.328-.066zm16.901 20.3c-1.622-.393-2.769-1.555-3.333-3.376l-.204-.658-.023-21.711-.023-21.712 2.394.023 2.394.024.044 20.766c.048 22.656.012 21.14.518 21.852.438.614 1.717.92 3.446.826.767-.042.854-.031.931.118.143.28.659 2.482.61 2.608-.052.137-1.37.655-2.384.938-1.554.433-3.325.556-4.37.303zm-123.553-.36c-.033-.033-.059-10.642-.059-23.577V15.791l12.578.023 12.579.022v4.127l-9.967.044-9.966.044-.022 7.924-.022 7.925h7.885c6.016 0 7.91.025 7.99.105.15.15.15 3.767 0 3.916-.08.08-1.974.105-7.99.105H75.33l.022 9.286.022 9.286 10.406.043 10.405.044.023 2.058c.018 1.587-.002 2.073-.088 2.128-.133.084-25.827.099-25.911.014zm33.768-.015c-.087-.055-.105-3.366-.088-16.264l.023-16.195h4.741l.022 16.195c.018 12.898 0 16.209-.088 16.264-.06.039-1.097.07-2.305.07-1.207 0-2.244-.031-2.305-.07zm15.362-.032c-.081-.081-.105-3.36-.105-14.225v-14.12h-2.09c-1.508 0-2.12-.029-2.195-.105-.075-.075-.106-.634-.106-1.958 0-1.324.03-1.883.106-1.958.076-.076.684-.105 2.183-.105h2.077l.051-2.261c.083-3.637.443-5.409 1.524-7.503.993-1.924 2.757-3.547 4.759-4.38 2.603-1.084 6.314-1.151 9.318-.17 1.088.356 1.67.663 1.67.882 0 .195-1.813 3.872-1.953 3.96-.049.032-.638-.211-1.31-.54-1.607-.784-2.168-.924-3.63-.906-2.292.029-3.936.81-4.644 2.208-.57 1.124-.737 2.376-.815 6.098l-.055 2.612h3.748c3.32 0 3.754.015 3.8.137.072.186-.325 3.741-.433 3.88-.066.084-.89.11-3.587.11h-3.501v14.119c0 10.865-.024 14.144-.105 14.225-.077.076-.722.105-2.354.105-1.63 0-2.276-.029-2.353-.105zm19.054 0c-.081-.081-.105-3.36-.105-14.225v-14.12h-2.09c-1.508 0-2.12-.029-2.195-.105-.076-.075-.106-.634-.106-1.958 0-1.324.03-1.883.106-1.958.076-.076.684-.105 2.183-.105h2.077l.051-2.261c.083-3.637.443-5.409 1.524-7.503.993-1.924 2.757-3.547 4.759-4.38 2.603-1.084 6.314-1.151 9.318-.17 1.088.356 1.67.663 1.67.882 0 .195-1.813 3.872-1.953 3.96-.049.032-.638-.211-1.31-.54-1.607-.784-2.168-.924-3.63-.906-2.292.029-3.936.81-4.644 2.208-.57 1.124-.737 2.376-.815 6.098l-.055 2.612h3.748c3.32 0 3.754.015 3.8.137.072.186-.325 3.741-.433 3.88-.066.084-.89.11-3.587.11h-3.501v14.119c0 10.865-.024 14.144-.105 14.225-.077.076-.722.105-2.354.105-1.63 0-2.276-.029-2.353-.105zm-94.57-5.907c-1.65-1.665-3-3.086-3-3.158 0-.072.33-.616.732-1.21 2.023-2.981 3.293-5.765 4.138-9.07.32-1.248.632-3.189.549-3.406-.043-.112-.254-.035-1.178.43-1.187.599-2.394.974-3.275 1.02l-.483.025-.024-2.293c-.018-1.77.002-2.312.088-2.376.061-.045.348-.154.638-.24a5.355 5.355 0 0 0 3.472-3.236c.253-.655.273-.779.22-1.337-.07-.716-.878-3.212-1.494-4.61-.837-1.902-1.9-3.731-3.063-5.27-.79-1.045-1.769-2.195-1.98-2.326-.09-.057-3.885-.104-10.677-.133l-10.537-.044-.858-.237c-1.042-.286-2.296-.868-3.162-1.466-.773-.535-2.176-1.95-2.688-2.71-.542-.807-1.114-2.053-1.38-3.005-.216-.771-.238-1.008-.287-3.117L9.519 6.88l-.308-.044c-.273-.04-.307-.074-.307-.308v-.263l2.766-.063c1.521-.034 2.825-.07 2.898-.08.424-.055.586.14.476.574-.047.188-.108.227-.35.227-.16 0-.313.034-.338.076-.026.04-.052.821-.06 1.734-.012 1.63-.008 1.672.249 2.406.415 1.185.696 1.66 1.385 2.34.452.445.825.719 1.284.94 1.354.65.93.618 8.527.65 5.769.023 6.827.009 6.827-.094 0-.209-2.436-1.3-4.242-1.9-.628-.209-.942-.27-1.162-.23-.397.075-1.248.864-1.722 1.596l-.362.56h-2.45c-2.108 0-2.455-.018-2.5-.133-.083-.217.13-.9.59-1.891.238-.512.433-.992.433-1.067 0-.205-.4-.246-1.506-.155-.548.046-1.222.083-1.498.084l-.5.002-.173-.593c-.095-.326-.608-2.134-1.14-4.017a273.945 273.945 0 0 0-1.02-3.563c-.079-.205.28-.332 1.255-.443.468-.054.945-.142 1.061-.197.292-.138 5.64-.14 5.812-.002.068.054.44.126.826.16 2.005.173 5.19.881 7.392 1.642 4.037 1.394 7.342 3.21 10.625 5.84 1.04.832 3.546 3.27 4.547 4.422 4.5 5.175 7.3 11.606 8.182 18.79.22 1.783.22 5.768 0 7.551-.77 6.268-2.984 11.94-6.533 16.732-.704.952-1.459 1.796-1.605 1.796-.03 0-1.405-1.362-3.056-3.027zm18.205-18.43c-1.164-.384-2.066-1.169-2.578-2.241-.313-.654-.32-.692-.32-1.722 0-1.031.007-1.069.32-1.723a4.14 4.14 0 0 1 1.985-1.99l.656-.311-.057-.429c-.127-.953-.95-4.247-1.246-4.987l-.123-.307h-.987c-.954 0-1.01-.01-1.655-.32a4.154 4.154 0 0 1-1.998-1.997c-.312-.654-.32-.691-.32-1.722 0-1.032.007-1.068.322-1.727.226-.473.481-.83.857-1.2.403-.398.52-.566.474-.688-.208-.56-2.758-4.481-3.02-4.643-.052-.032-.338.055-.636.193-.501.231-.623.25-1.596.25-1.03 0-1.069-.007-1.723-.32a4.154 4.154 0 0 1-1.997-1.997c-.312-.654-.32-.691-.32-1.722s.008-1.068.32-1.722a4.154 4.154 0 0 1 1.997-1.998c.654-.312.692-.319 1.723-.319 1.03 0 1.068.007 1.722.32a4.154 4.154 0 0 1 1.998 1.997c.312.655.319.69.319 1.729v1.06l-.373.753c-.206.414-.374.778-.374.807 0 .03.359.566.797 1.192a53.16 53.16 0 0 1 1.646 2.551l.85 1.415 1.054.015c1.016.014 1.077.026 1.722.334a4.154 4.154 0 0 1 1.998 1.998c.312.654.319.691.319 1.722 0 1.033-.006 1.067-.323 1.73-.238.5-.477.827-.91 1.25l-.588.573.358 1.297c.388 1.407.72 2.848.896 3.887.15.889.18.932.677.998 1.166.155 2.424 1.133 2.995 2.328.312.654.32.692.32 1.723 0 1.03-.008 1.068-.32 1.722a4.143 4.143 0 0 1-1.997 1.996c-.62.295-.736.32-1.59.34-.587.014-1.05-.02-1.274-.094zm2.06-1.82a2.513 2.513 0 0 0 1.243-1.256c.816-1.861-1.193-3.877-3.04-3.05-1.225.548-1.796 1.9-1.285 3.04.22.493.627.956 1.022 1.164.759.4 1.319.428 2.06.102zm-3.425-13.786a2.513 2.513 0 0 0 1.243-1.256c.817-1.86-1.192-3.877-3.04-3.05-1.225.548-1.796 1.9-1.284 3.041.22.492.627.956 1.021 1.164.76.4 1.32.428 2.06.101zm-7.639-11.854a2.513 2.513 0 0 0 1.243-1.255c.816-1.862-1.192-3.878-3.04-3.051-1.225.548-1.796 1.9-1.285 3.041.221.493.628.956 1.022 1.164.76.4 1.32.428 2.06.101zm52.508 11.748c-.797-.225-1.598-.928-1.954-1.714-.281-.622-.264-1.656.04-2.299.523-1.108 1.315-1.668 2.456-1.737.908-.054 1.463.134 2.06.7.66.622.956 1.313.957 2.225.001.62-.033.774-.289 1.292-.6 1.222-2.02 1.886-3.27 1.533z"/>
	<path fill="#cd6e6a" d="M200.062 70.216a2.149 2.149 0 0 1-.065-.335l-.026-.22-87.675-.044-87.675-.044-.858-.237c-.988-.272-2.25-.846-3.06-1.39-.765-.515-2.18-1.917-2.713-2.686a11.32 11.32 0 0 1-1.467-3.15l-.243-.878V45.339l.237-.859c.288-1.043.87-2.297 1.468-3.161.534-.773 1.949-2.176 2.71-2.688.796-.535 2.044-1.111 3.004-1.387l.835-.24 5.773-.029 5.774-.03.09.234c.052.14.078 1.062.064 2.309l-.023 2.075-5.356.046c-5.308.046-5.362.048-5.971.25-1.003.333-1.62.708-2.338 1.42-.498.496-.75.833-.984 1.322-.657 1.364-.63.983-.63 8.728v6.937l.206.658c.318 1.02.692 1.646 1.423 2.382.725.729 1.485 1.164 2.545 1.457.544.15 4.333.157 87.716.157h87.148l.044-.308c.039-.273.073-.307.307-.307h.263v5.97l-.242.029c-.142.016-.258-.02-.28-.088zm-193.31-1.96c0-.292.015-.307.308-.307h.307l.003-1.34c.004-1.857.132-3.43.35-4.294.227-.896.89-2.311 1.486-3.174.525-.76 1.767-1.994 2.508-2.492 1.243-.837 3.374-1.67 4.064-1.591l.238.027.024 2.306.023 2.307-.243.098c-1.033.417-1.418.667-2.138 1.386-.843.842-1.194 1.456-1.488 2.606-.143.561-.173.973-.173 2.413v1.737l.277.027c.34.034.51.26.344.46-.101.121-.475.139-3.002.139H6.753zm160.994-4.924-.922-.13c-3.883-.552-7.187-2.81-9.268-6.332-1.791-3.031-2.672-7.49-2.406-12.182.218-3.833 1.11-6.757 2.87-9.398 2.233-3.354 5.518-5.088 10.084-5.324 3.953-.204 7.505.93 9.829 3.136 2.142 2.035 3.374 4.835 3.724 8.461.133 1.386.205 4.005.12 4.39l-.078.352-10.796.044-10.796.043-.027.564c-.066 1.412.457 4.287 1.068 5.87 1.71 4.428 4.401 6.602 8.178 6.604 2.344.002 4.318-.579 6.18-1.817.769-.512 2.442-2.065 2.996-2.782.17-.219.36-.4.426-.4.113-.004 2.46 1.832 3.06 2.394l.282.262-.282.397c-.469.66-2.172 2.303-3.097 2.988-2.758 2.04-5.147 2.79-9.126 2.864-.966.018-1.874.017-2.02-.004zm9.176-20.794c0-.78-.293-2.415-.61-3.405-.302-.94-.977-2.32-1.454-2.97-1.119-1.524-2.868-2.329-5.444-2.504-1.586-.108-3.115.178-4.488.839-.703.338-1.038.568-1.604 1.1-1.143 1.076-2.077 2.6-2.63 4.297-.28.86-.541 2.222-.541 2.825v.38h16.77zm16.826 20.624c-1.618-.41-2.812-1.663-3.26-3.423-.299-1.172-.314-2.383-.289-23.18l.025-20.635 2.348-.024 2.347-.023.024 20.746c.02 19.093.034 20.779.169 21.166.425 1.224 1.205 1.58 3.394 1.547 1.01-.014 1.28.007 1.333.105.035.067.197.668.36 1.334.253 1.044.276 1.223.165 1.293-.262.162-1.91.719-2.764.933-1.124.282-3.056.362-3.852.16zm-123.5-.425c-.073-.087-.094-6.247-.077-23.466l.022-23.347 12.534-.023 12.535-.022v4.04H85.35c-8.245 0-9.928.02-10.01.12-.072.086-.093 2.253-.077 8.011l.023 7.893 7.946.044 7.947.044v3.864l-7.947.044-7.946.044v18.702l10.428.023 10.429.022-.024 2.041-.023 2.041-12.875.022c-10.759.02-12.89.003-12.973-.097zm33.766.062c-.033-.033-.06-7.324-.06-16.203V30.453l2.305.023 2.305.023v32.313l-2.245.024c-1.234.012-2.272-.004-2.305-.037zm15.348-.051c-.023-.061-.052-6.453-.064-14.204l-.021-14.093-2.152-.044-2.15-.044v-3.864l2.15-.043 2.152-.044.055-2.283c.058-2.42.188-3.567.567-5.027.979-3.767 3.434-6.291 7.064-7.262 2.303-.617 5.353-.51 7.837.272.76.24 1.559.606 1.657.76.052.08-1.652 3.623-1.873 3.896-.061.076-.41-.056-1.31-.496-1.584-.773-2.183-.927-3.548-.913-2.33.025-4.024.812-4.773 2.217-.613 1.15-.82 2.74-.836 6.421l-.011 2.415 3.754.023 3.753.022-.006.373c-.004.204-.093 1.083-.198 1.952l-.19 1.581-3.557.044-3.556.044-.044 14.18-.044 14.181-2.307.024c-1.798.018-2.316-.001-2.35-.088zm19.054 0c-.023-.061-.052-6.453-.064-14.204l-.021-14.093-2.152-.044-2.15-.044v-3.864l2.15-.043 2.152-.044.055-2.283c.058-2.42.188-3.567.567-5.027.979-3.767 3.434-6.291 7.064-7.262 2.303-.617 5.353-.51 7.837.272.76.24 1.559.606 1.657.76.052.08-1.652 3.623-1.873 3.896-.061.076-.41-.056-1.31-.496-1.584-.773-2.183-.927-3.548-.913-2.33.025-4.024.812-4.773 2.217-.613 1.15-.82 2.74-.836 6.421l-.011 2.415 3.754.023 3.753.022-.006.373c-.004.204-.093 1.083-.198 1.952l-.19 1.581-3.557.044-3.556.044-.044 14.18-.044 14.181-2.307.024c-1.798.018-2.316-.001-2.35-.088zM21.17 59.502c-.158-.158-.15-4.315.009-4.447.079-.065 1.784-.103 5.466-.122l5.351-.027.684-.249c1.805-.656 3.083-2.109 3.578-4.066.172-.679.177-.922.152-7.28l-.026-6.577-.25-.685c-.326-.895-.799-1.59-1.564-2.298-1.152-1.066-2.18-1.388-4.9-1.531-2.01-.107-2.692-.256-4.007-.882-1.187-.564-1.856-1.027-2.777-1.923-1.262-1.228-2.229-2.836-2.661-4.429-.334-1.226-.533-4.713-.285-4.962.154-.154 4.315-.15 4.442.005.05.06.107.788.129 1.646.035 1.397.06 1.599.28 2.22.315.889.787 1.585 1.558 2.3 1.152 1.066 2.18 1.387 4.9 1.53 2.01.107 2.692.257 4.007.882 1.187.564 1.856 1.027 2.777 1.923 1.262 1.228 2.229 2.836 2.661 4.43.327 1.202.384 2.472.384 8.623.001 5.92-.055 7.28-.347 8.507-.215.901-.804 2.284-1.286 3.016-.475.722-1.979 2.244-2.662 2.694-1.635 1.078-3.102 1.586-4.963 1.72-1.771.126-10.52.112-10.65-.018zm20.154-17.948c-.036-.035-.064-1.08-.064-2.322 0-1.704.027-2.277.11-2.339.06-.045.346-.153.636-.24 1.59-.476 2.84-1.636 3.485-3.236l.29-.722v-4.171c0-3.8-.014-4.218-.16-4.698-.463-1.508-1.485-2.737-2.811-3.379-1.374-.665-.767-.633-13.492-.697l-11.37-.057-.86-.234c-1.038-.283-2.292-.864-3.16-1.464-.774-.535-2.177-1.95-2.689-2.71-.542-.807-1.114-2.053-1.38-3.005-.216-.771-.238-1.008-.287-3.117L9.519 6.88l-.308-.044c-.273-.04-.307-.074-.307-.308v-.263l3.007-.023 3.008-.023v.308c0 .281-.022.309-.253.309-.45 0-.475.108-.428 1.91.036 1.389.073 1.742.24 2.26.658 2.046 1.898 3.277 3.91 3.881.495.15 1.204.159 12.072.159h11.547l.751.191c2.121.542 3.45 1.306 4.968 2.858 1.336 1.366 2.06 2.573 2.531 4.224.372 1.3.398 1.688.398 5.996.001 4.538-.036 4.996-.528 6.462-.547 1.635-1.26 2.726-2.664 4.082-.927.895-1.052.984-2.253 1.587-.866.436-1.537.706-2.105.85-.97.245-1.69.349-1.78.258zm20.702-3.051c-1.164-.385-2.066-1.17-2.578-2.242-.313-.654-.32-.692-.32-1.722 0-1.032.007-1.068.322-1.728a4.094 4.094 0 0 1 2.049-2.013l.67-.299-.056-.395c-.144-1.007-1.163-5.1-1.306-5.243-.016-.016-.499-.038-1.073-.049-1-.02-1.073-.033-1.713-.34a4.154 4.154 0 0 1-1.998-1.997c-.312-.654-.32-.691-.32-1.722 0-1.032.007-1.068.322-1.727.226-.473.481-.83.857-1.2.294-.29.534-.599.533-.687-.002-.344-2.743-4.543-3.04-4.656-.07-.027-.372.065-.672.203-.505.233-.624.252-1.6.252-1.03 0-1.068-.007-1.722-.32a4.154 4.154 0 0 1-1.997-1.997c-.312-.654-.32-.691-.32-1.722s.008-1.068.32-1.722a4.154 4.154 0 0 1 1.997-1.998c.654-.312.692-.319 1.723-.319 1.03 0 1.068.007 1.722.32a4.154 4.154 0 0 1 1.998 1.997c.313.655.319.69.319 1.736v1.068l-.412.809-.412.81.705 1c.388.55 1.126 1.696 1.641 2.547l.936 1.547 1.098.01c1.072.01 1.113.017 1.766.33a4.154 4.154 0 0 1 1.998 1.997c.312.654.319.691.319 1.722 0 1.033-.006 1.067-.324 1.732-.245.514-.475.825-.946 1.282l-.621.603.398 1.44a54 54 0 0 1 .713 2.977c.172.844.328 1.56.346 1.59.019.03.24.078.491.108 1.196.141 2.467 1.113 3.048 2.331.312.654.32.692.32 1.723 0 1.03-.008 1.068-.32 1.722a4.143 4.143 0 0 1-1.997 1.996c-.62.295-.736.32-1.59.34-.587.014-1.05-.02-1.274-.094zm2.06-1.821a2.513 2.513 0 0 0 1.243-1.256c.816-1.861-1.193-3.877-3.04-3.05-1.225.548-1.796 1.9-1.285 3.04.22.493.627.956 1.022 1.164.759.4 1.319.428 2.06.102zm-3.425-13.786a2.513 2.513 0 0 0 1.243-1.256c.817-1.86-1.192-3.877-3.04-3.05-1.225.548-1.796 1.9-1.284 3.041.22.492.627.956 1.021 1.164.76.4 1.32.428 2.06.1zm-7.639-11.854a2.513 2.513 0 0 0 1.243-1.255c.816-1.862-1.192-3.878-3.04-3.051-1.225.548-1.796 1.9-1.285 3.041.221.493.628.956 1.022 1.164.76.4 1.32.428 2.06.101zm52.453 11.654a3.097 3.097 0 0 1-1.813-1.625c-.265-.588-.261-1.655.008-2.243.319-.693.753-1.153 1.38-1.462.535-.263.611-.277 1.344-.242.9.044 1.368.259 1.894.872.557.652.71 1.076.712 1.967 0 .691-.03.847-.239 1.245-.49.935-1.34 1.506-2.336 1.57-.359.023-.725-.008-.95-.082zM20.222 14.79c-.025-.067-.002-.294.054-.505.153-.583 1.041-2.424 1.456-3.016.468-.67 1.758-1.923 2.475-2.405.807-.543 2.053-1.115 3.005-1.38.749-.208 1.027-.236 2.722-.274 1.038-.023 1.935-.08 1.992-.128.058-.046.117-.19.132-.32.022-.196.07-.235.29-.235h.264V12.5h-.264c-.214 0-.269-.04-.293-.22-.062-.448-.125-.464-1.549-.415-1.028.035-1.454.088-1.933.24-1.421.452-2.368 1.126-3.18 2.261l-.392.549h-2.366c-1.943 0-2.374-.022-2.413-.123z"/>
	<path fill="#5d5d5d" d="M200.164 70.176c-.034-.033-.062-.193-.062-.354v-.292l-87.652-.022-87.653-.022-.922-.246c-.964-.256-2.412-.897-3.133-1.386-.597-.404-2.17-1.956-2.617-2.583-.597-.836-1.175-2.085-1.478-3.194l-.28-1.02V45.601l.246-.965c.277-1.093.918-2.513 1.501-3.325.45-.628 2.026-2.189 2.6-2.576.751-.508 2.042-1.092 3.017-1.367l.978-.275 5.642-.03 5.642-.031.09.233c.052.14.079 1.032.065 2.222l-.024 1.987-5.4.047-5.4.048-.678.245c-1.747.632-2.976 1.887-3.543 3.618l-.257.784V60.44l.25.732c.593 1.725 1.838 2.97 3.582 3.578l.734.256 87.34.023 87.34.022.027-.33c.022-.262.063-.33.203-.33.172 0 .176.06.176 2.897 0 2.545-.017 2.9-.136 2.923-.075.014-.164-.002-.198-.036zM6.753 68.256c0-.292.014-.307.307-.307h.307l.003-1.34c.004-1.857.132-3.43.35-4.294.227-.897.89-2.311 1.486-3.174.525-.76 1.767-1.994 2.508-2.492 1.243-.837 3.374-1.67 4.064-1.591l.238.027.024 2.306.023 2.307-.243.098c-1.033.417-1.418.667-2.138 1.386-.843.842-1.194 1.456-1.488 2.606-.143.561-.173.973-.173 2.413v1.737l.277.027c.34.034.51.26.344.46-.101.121-.475.139-3.002.139H6.753zm160.993-4.924-.922-.13c-3.883-.552-7.187-2.81-9.268-6.332-1.791-3.031-2.672-7.49-2.406-12.182.218-3.833 1.11-6.757 2.87-9.398 2.233-3.354 5.518-5.088 10.084-5.324 3.953-.204 7.505.93 9.829 3.136 2.142 2.035 3.374 4.835 3.724 8.461.133 1.386.205 4.005.12 4.39l-.078.352-10.796.044-10.796.043-.027.564c-.066 1.412.457 4.287 1.068 5.87 1.71 4.428 4.401 6.602 8.178 6.604 2.344.002 4.318-.579 6.18-1.817.769-.512 2.442-2.065 2.996-2.782.17-.219.36-.4.426-.4.113-.004 2.46 1.832 3.06 2.394l.282.262-.282.397c-.469.66-2.172 2.303-3.097 2.988-2.758 2.04-5.147 2.79-9.126 2.864-.966.018-1.874.017-2.02-.004zm9.176-20.794c0-.78-.293-2.415-.61-3.405-.302-.94-.977-2.32-1.454-2.97-1.119-1.524-2.868-2.329-5.444-2.504-1.586-.108-3.115.178-4.488.839-.703.338-1.038.568-1.604 1.1-1.143 1.076-2.077 2.6-2.63 4.297-.28.86-.541 2.222-.541 2.825v.38h16.77zm16.826 20.624c-1.618-.41-2.812-1.663-3.26-3.423-.299-1.172-.314-2.383-.289-23.18l.025-20.635 2.348-.024 2.347-.023.024 20.746c.02 19.093.034 20.779.169 21.166.425 1.224 1.205 1.58 3.394 1.547 1.01-.014 1.28.007 1.333.105.035.067.197.668.36 1.334.253 1.044.276 1.223.165 1.293-.262.162-1.91.719-2.764.933-1.124.282-3.056.362-3.852.16zm-123.5-.425c-.073-.087-.094-6.247-.077-23.466l.022-23.347 12.534-.023 12.535-.022v4.04H85.35c-8.245 0-9.928.02-10.01.12-.072.086-.093 2.253-.077 8.011l.023 7.893 7.946.044 7.947.044v3.864l-7.947.044-7.946.044v18.702l10.428.023 10.429.022-.024 2.041-.023 2.041-12.875.022c-10.759.02-12.89.003-12.973-.097zm33.766.062c-.033-.033-.06-7.324-.06-16.203V30.453l2.305.023 2.305.023v32.313l-2.245.024c-1.234.012-2.272-.004-2.305-.037zm15.348-.051c-.023-.061-.052-6.453-.064-14.204l-.021-14.093-2.152-.044-2.15-.044v-3.864l2.15-.043 2.152-.044.055-2.283c.058-2.42.188-3.567.567-5.027.979-3.767 3.434-6.291 7.064-7.262 2.303-.617 5.353-.51 7.837.272.76.24 1.559.606 1.657.76.052.08-1.652 3.623-1.873 3.896-.061.076-.41-.056-1.31-.496-1.584-.773-2.183-.927-3.548-.913-2.33.025-4.024.812-4.773 2.217-.613 1.15-.82 2.74-.836 6.421l-.011 2.415 3.754.023 3.753.022-.006.373c-.004.204-.093 1.083-.198 1.952l-.19 1.581-3.557.044-3.556.044-.044 14.18-.044 14.181-2.307.024c-1.798.018-2.316-.001-2.35-.088zm19.054 0c-.023-.061-.052-6.453-.064-14.204l-.021-14.093-2.152-.044-2.15-.044v-3.864l2.15-.043 2.152-.044.055-2.283c.058-2.42.188-3.567.567-5.027.979-3.767 3.434-6.291 7.064-7.262 2.303-.617 5.353-.51 7.837.272.76.24 1.559.606 1.657.76.052.08-1.652 3.623-1.873 3.896-.061.076-.41-.056-1.31-.496-1.584-.773-2.183-.927-3.548-.913-2.33.025-4.024.812-4.773 2.217-.613 1.15-.82 2.74-.836 6.421l-.011 2.415 3.754.023 3.753.022-.006.373c-.004.204-.093 1.083-.198 1.952l-.19 1.581-3.557.044-3.556.044-.044 14.18-.044 14.181-2.307.024c-1.798.018-2.316-.001-2.35-.088zM21.17 59.502c-.158-.158-.15-4.315.009-4.447.079-.065 1.784-.103 5.466-.122l5.351-.027.684-.249c1.805-.656 3.083-2.109 3.578-4.066.172-.679.177-.922.152-7.28l-.026-6.577-.25-.685c-.326-.895-.799-1.59-1.564-2.298-1.152-1.066-2.18-1.388-4.9-1.531-2.01-.107-2.692-.256-4.007-.882-1.187-.564-1.856-1.027-2.777-1.923-1.262-1.228-2.229-2.836-2.661-4.429-.334-1.226-.533-4.713-.285-4.962.154-.154 4.315-.15 4.442.005.05.06.107.788.129 1.646.035 1.397.06 1.599.28 2.22.315.889.787 1.585 1.558 2.3 1.152 1.066 2.18 1.387 4.9 1.53 2.01.107 2.692.257 4.007.882 1.187.564 1.856 1.027 2.777 1.923 1.262 1.228 2.229 2.836 2.661 4.43.327 1.202.384 2.472.384 8.623.001 5.92-.055 7.28-.347 8.507-.215.901-.804 2.284-1.286 3.016-.475.722-1.979 2.244-2.662 2.694-1.635 1.078-3.102 1.586-4.963 1.72-1.771.126-10.52.112-10.65-.018zm20.215-18.099c-.022-.059-.03-1.073-.017-2.255l.023-2.147.772-.277c2.123-.762 3.457-2.402 3.75-4.61.067-.495.09-1.95.068-4.256-.03-3.375-.04-3.528-.234-4.12-.335-1.018-.702-1.616-1.46-2.38-.537-.541-.865-.788-1.362-1.027-1.401-.674-.374-.622-13.256-.676l-11.546-.05-.922-.242c-1.058-.278-2.497-.935-3.28-1.498-.628-.45-2.19-2.026-2.577-2.6-.513-.76-1.093-2.046-1.36-3.017-.258-.935-.272-1.076-.324-3.217l-.055-2.24-.307-.043c-.234-.034-.307-.086-.307-.22 0-.172.058-.175 2.897-.175s2.898.003 2.898.175c0 .134-.073.186-.307.22l-.308.044.003 1.844c.003 2.08.062 2.399.662 3.556.663 1.276 1.732 2.185 3.157 2.682l.744.26 11.723.045 11.722.045.858.236c1.041.285 2.296.867 3.163 1.466.771.534 2.086 1.86 2.598 2.622.553.822 1.118 2.06 1.392 3.049l.242.878v4.873l-.002 4.873-.236.859c-.27.987-.844 2.249-1.39 3.06-.516.767-1.85 2.117-2.547 2.576-1.01.665-2.156 1.187-3.189 1.45-1.263.321-1.633.373-1.686.237zm20.773-2.995c-1.752-.488-2.984-2.086-2.984-3.87 0-1.565.937-2.99 2.396-3.647.479-.216.662-.342.635-.435a43.563 43.563 0 0 1-.271-1.274 41.086 41.086 0 0 0-.963-3.807l-.22-.698-.69.047c-1.204.083-2.299-.32-3.133-1.155-1.6-1.599-1.566-4.097.076-5.703.484-.474.522-.537.442-.747-.142-.376-1.603-2.7-2.39-3.805l-.734-1.028-.319.14c-1.024.45-1.922.574-2.746.38-3.089-.729-4.193-4.499-1.969-6.722 2.188-2.188 5.885-1.167 6.691 1.85.257.96.105 1.991-.44 2.982l-.312.568.74 1.034c.405.57 1.18 1.773 1.721 2.676l.983 1.641.72-.05c1.236-.088 2.323.308 3.167 1.152 1.625 1.625 1.567 4.106-.133 5.757l-.588.571.166.527c.306.971.922 3.502 1.125 4.615l.2 1.102.562.106c3.152.598 4.356 4.476 2.093 6.74-.99.989-2.531 1.414-3.825 1.053zm1.813-1.555c.922-.345 1.699-1.403 1.699-2.314 0-.912-.777-1.97-1.699-2.315-.633-.237-.974-.237-1.607 0-.923.345-1.7 1.403-1.7 2.315 0 .895.776 1.964 1.675 2.31.615.236 1.01.237 1.632.004zm-3.424-13.786c.922-.345 1.698-1.403 1.698-2.314s-.776-1.97-1.698-2.314c-.633-.237-.975-.237-1.608 0-.922.345-1.699 1.403-1.699 2.314 0 .896.775 1.965 1.674 2.31.615.236 1.01.237 1.633.004zm-7.64-11.854c.923-.345 1.7-1.403 1.7-2.314s-.777-1.97-1.7-2.314c-.633-.237-.974-.237-1.607 0-.922.345-1.699 1.403-1.699 2.314 0 .896.775 1.965 1.674 2.31.615.236 1.01.237 1.632.004zm52.568 11.483a3.097 3.097 0 0 1-1.813-1.625c-.265-.588-.261-1.655.008-2.243.319-.693.753-1.153 1.38-1.462.535-.263.611-.277 1.344-.242.9.044 1.368.259 1.894.872.557.652.71 1.076.712 1.967 0 .691-.03.847-.239 1.245-.49.935-1.34 1.506-2.336 1.57-.359.023-.725-.008-.95-.082zM20.222 14.79c-.025-.067-.002-.294.054-.505.153-.583 1.041-2.424 1.456-3.016.468-.67 1.758-1.923 2.475-2.405.807-.543 2.053-1.115 3.005-1.38.749-.208 1.027-.236 2.722-.274 1.038-.023 1.935-.08 1.992-.128.058-.046.117-.19.132-.32.022-.196.07-.235.29-.235h.264V12.5h-.264c-.214 0-.269-.04-.293-.22-.062-.448-.125-.464-1.549-.415-1.028.035-1.454.088-1.933.24-1.421.452-2.368 1.126-3.18 2.261l-.392.549h-2.366c-1.943 0-2.374-.022-2.413-.123z"/>
	<path fill="#ac0d05" d="M200.164 70.176c-.034-.033-.062-.193-.062-.354v-.292l-87.652-.022-87.653-.022-.922-.246c-.964-.256-2.412-.897-3.133-1.386-.597-.404-2.17-1.956-2.617-2.583-.597-.836-1.175-2.085-1.478-3.194l-.28-1.02V45.601l.246-.965c.277-1.093.918-2.513 1.501-3.325.45-.628 2.026-2.189 2.6-2.576.751-.508 2.042-1.092 3.017-1.367l.978-.275 5.642-.03 5.642-.031.09.233c.052.14.079 1.032.065 2.222l-.024 1.987-5.4.047-5.4.048-.678.245c-1.747.632-2.976 1.887-3.543 3.618l-.257.784V60.44l.25.732c.593 1.725 1.838 2.97 3.582 3.578l.734.256 87.34.023 87.34.022.027-.33c.022-.262.063-.33.203-.33.172 0 .176.06.176 2.897 0 2.545-.017 2.9-.136 2.923-.075.014-.164-.002-.198-.036zM6.753 68.271c0-.203.025-.22.29-.176.185.03.323.004.386-.072.064-.077.11-.925.135-2.445.036-2.163.055-2.387.268-3.185a9.843 9.843 0 0 1 2.674-4.555c.902-.877 1.57-1.344 2.681-1.878.833-.4 2.44-.88 2.661-.796.103.04.124.42.123 2.18 0 1.172-.03 2.173-.066 2.224-.035.05-.253.163-.483.25-1.079.404-2.391 1.63-2.917 2.724-.513 1.067-.59 1.486-.637 3.498-.046 1.99-.027 2.085.427 2.085.166 0 .253.045.253.131 0 .115-.365.132-2.759.132-1.517 0-2.82.024-2.897.053-.105.04-.14-.002-.14-.17zm160.861-5.068c-3.457-.378-6.219-1.769-8.4-4.228-1.946-2.196-3.167-5.043-3.728-8.693-.26-1.698-.325-5.192-.127-6.919.653-5.698 3.236-10.028 7.115-11.93 1.974-.968 3.805-1.346 6.501-1.342 4.08.006 7.036 1.131 9.316 3.546 1.362 1.443 2.233 3.07 2.785 5.204.412 1.591.527 2.698.536 5.137l.007 2.239-10.8.044-10.8.044-.028.658c-.088 2.056.555 4.975 1.564 7.091 1.423 2.986 3.473 4.81 5.99 5.326 1.43.294 3.683.146 5.322-.351 1.942-.589 4.198-2.225 5.788-4.2.206-.255.306-.32.391-.254 1.296 1.015 3.018 2.444 3.037 2.52.038.159-1.316 1.656-2.2 2.43-2.949 2.584-5.72 3.603-10.118 3.722-.772.02-1.74 0-2.15-.044zm9.417-20.674c-.098-2.68-1.198-5.605-2.658-7.066-1.033-1.034-2.418-1.642-4.213-1.85-2.792-.325-5.28.36-6.956 1.915-.943.876-2.015 2.604-2.56 4.127-.363 1.019-.66 2.733-.592 3.423.009.088 1.743.106 8.506.088l8.495-.022zM193.9 63.076c-1.662-.361-2.772-1.499-3.344-3.425-.147-.498-.157-1.708-.18-22.105l-.023-21.578h4.481v20.498c0 14.843.027 20.627.099 20.964.159.749.47 1.274.925 1.563.585.37 1.207.481 2.64.467l1.25-.012.085.321c.183.698.533 2.112.533 2.153 0 .069-1.286.545-2.151.797-1.62.47-3.195.6-4.315.357zM70.383 62.71c-.032-.032-.058-10.563-.058-23.4V15.967h24.849v3.863h-9.912c-8.245 0-9.928.02-10.01.12-.072.086-.093 2.276-.077 8.1l.023 7.98 7.946.044 7.947.044.024 1.822.023 1.822h-7.843c-6.137 0-7.877.024-7.993.11-.14.102-.148.75-.127 9.505l.023 9.395 10.429.022 10.428.023-.023 1.953-.024 1.953-12.783.023c-7.03.012-12.81-.005-12.842-.037zm33.7-.05c-.023-.061-.032-7.303-.02-16.092l.023-15.98h4.39v32.136l-2.175.024c-1.693.018-2.185-.001-2.218-.088zm15.367 0c-.023-.061-.052-6.453-.064-14.204l-.022-14.093-2.15-.044-2.152-.044v-3.688l2.151-.044 2.151-.044.058-2.195c.032-1.207.122-2.661.201-3.231.386-2.78 1.283-4.86 2.768-6.416 1.479-1.549 3.036-2.396 5.289-2.877 1.206-.258 3.806-.283 5.075-.05 1.54.284 3.6.98 3.6 1.217 0 .095-1.832 3.762-1.88 3.762-.018 0-.554-.253-1.19-.563-1.544-.751-2.105-.888-3.603-.878-1.89.013-3.205.45-4.16 1.382-1.174 1.146-1.485 2.644-1.497 7.215l-.007 2.634 3.713.023c2.857.018 3.722.048 3.752.132.021.06-.05.9-.158 1.865l-.197 1.756-3.555.044-3.555.044-.044 14.18-.044 14.181-2.219.024c-1.728.018-2.228-.001-2.261-.088zm19.054 0c-.023-.061-.052-6.453-.064-14.204l-.022-14.093-2.15-.044-2.152-.044v-3.688l2.151-.044 2.151-.044.058-2.195c.032-1.207.122-2.661.201-3.231.386-2.78 1.283-4.86 2.768-6.416 1.479-1.549 3.036-2.396 5.289-2.877 1.206-.258 3.805-.283 5.075-.05 1.54.284 3.6.98 3.6 1.217 0 .095-1.832 3.762-1.88 3.762-.018 0-.554-.253-1.19-.563-1.544-.751-2.105-.888-3.603-.878-1.89.013-3.205.45-4.16 1.382-1.174 1.146-1.485 2.644-1.497 7.215l-.007 2.634 3.713.023c2.857.018 3.722.048 3.752.132.021.06-.05.9-.158 1.865l-.197 1.756-3.555.044-3.555.044-.044 14.18-.044 14.181-2.219.024c-1.728.018-2.228-.001-2.261-.088zm-117.31-3.336c-.024-.064-.034-1.024-.02-2.133l.023-2.018 5.312-.046c5.262-.046 5.318-.048 5.927-.25 1.016-.337 1.618-.707 2.377-1.46.562-.557.784-.857 1.073-1.449.708-1.45.677-1.07.677-8.43v-6.54l-.206-.66c-.33-1.056-.686-1.64-1.507-2.467-.58-.585-.898-.827-1.406-1.071-1.035-.498-1.524-.593-3.466-.675-2.058-.087-2.969-.28-4.294-.908-1.116-.528-1.8-1.006-2.71-1.89a9.873 9.873 0 0 1-2.672-4.535c-.227-.83-.24-.984-.243-2.81l-.004-1.931h4.215l.056 1.492c.086 2.284.448 3.225 1.744 4.531.58.585.899.827 1.407 1.071 1.035.498 1.524.593 3.466.676 2.058.087 2.969.28 4.294.907 1.116.529 1.8 1.006 2.709 1.89a9.918 9.918 0 0 1 2.677 4.535l.243.878v15.015l-.245.966c-.278 1.092-.919 2.512-1.502 3.325-.496.69-1.783 1.94-2.493 2.417-.795.535-2.043 1.111-3.004 1.387l-.835.239-5.774.03c-4.72.024-5.783.009-5.819-.086zm20.192-17.921c-.022-.059-.03-1.073-.017-2.255l.023-2.147.772-.277c2.123-.762 3.457-2.402 3.75-4.61.067-.495.09-1.95.068-4.256-.03-3.375-.04-3.528-.234-4.12-.335-1.018-.702-1.616-1.46-2.38-.537-.541-.865-.788-1.363-1.027-1.4-.674-.373-.622-13.255-.676l-11.546-.05-.922-.242c-1.058-.278-2.497-.935-3.28-1.498-.628-.45-2.19-2.026-2.577-2.6-.513-.76-1.093-2.046-1.36-3.017-.258-.935-.272-1.076-.324-3.217l-.055-2.24-.307-.043c-.234-.034-.307-.086-.307-.22 0-.172.058-.175 2.897-.175s2.898.003 2.898.175c0 .134-.073.186-.307.22l-.308.044.003 1.844c.003 2.08.062 2.399.662 3.556.663 1.276 1.732 2.185 3.157 2.682l.744.26 11.723.045 11.722.045.858.236c1.041.285 2.296.867 3.162 1.466.772.534 2.087 1.86 2.6 2.622.552.822 1.117 2.06 1.39 3.049l.243.878v4.873l-.002 4.873-.236.859c-.27.987-.844 2.249-1.39 3.06-.516.767-1.85 2.117-2.547 2.576-1.01.665-2.156 1.187-3.189 1.45-1.263.321-1.633.373-1.686.237zm20.773-2.995c-1.752-.488-2.984-2.086-2.984-3.87 0-1.58.9-2.945 2.413-3.653.41-.193.746-.365.746-.384 0-.398-.913-4.196-1.255-5.217l-.194-.58-.764.032c-1.305.054-2.355-.33-3.192-1.167-1.612-1.612-1.568-4.07.102-5.733.31-.307.562-.608.562-.669 0-.239-2.078-3.494-3.032-4.75-.128-.17-.136-.17-.59.029-1.773.773-3.438.513-4.682-.731a3.964 3.964 0 0 1 0-5.631c2.188-2.188 5.885-1.167 6.691 1.85.258.961.105 1.991-.443 2.988-.173.315-.315.612-.315.658 0 .047.365.61.812 1.252a48.791 48.791 0 0 1 1.646 2.587l.835 1.42.798-.053c.52-.034.965-.013 1.273.06 1.84.433 3.151 2.06 3.151 3.907 0 1.138-.437 2.096-1.362 2.985l-.64.615.306 1.054c.347 1.194.836 3.277 1 4.258.06.363.153.701.206.753.053.052.351.144.662.204 3.145.614 4.335 4.473 2.075 6.732-.99.99-2.532 1.415-3.825 1.054zm1.813-1.555c.922-.345 1.699-1.403 1.699-2.314 0-.912-.777-1.97-1.699-2.315-.633-.237-.974-.237-1.607 0-.923.345-1.7 1.403-1.7 2.315 0 .895.776 1.964 1.675 2.31.615.236 1.01.237 1.632.004zm-3.424-13.786c.922-.345 1.698-1.403 1.698-2.314s-.776-1.97-1.698-2.314c-.633-.237-.975-.237-1.608 0-.922.345-1.699 1.403-1.699 2.314 0 .896.775 1.965 1.674 2.31.615.236 1.01.237 1.633.004zm-7.64-11.854c.923-.345 1.7-1.403 1.7-2.314s-.777-1.97-1.7-2.314c-.633-.237-.974-.237-1.607 0-.922.345-1.699 1.403-1.699 2.314 0 .896.775 1.965 1.674 2.31.615.236 1.01.237 1.632.004zm52.833 11.424c-.526-.104-.987-.366-1.41-.801-.82-.846-1.001-2.025-.476-3.093.538-1.092 1.438-1.612 2.64-1.526.71.05 1.167.274 1.66.81.539.583.742 1.095.752 1.892.017 1.34-.74 2.343-2.022 2.677-.557.145-.61.147-1.144.041zm-85.41-7.88c-.07-.112.352-1.278.745-2.064.508-1.015.988-1.653 1.934-2.572 1.294-1.256 2.531-1.987 4.153-2.45.827-.237 2.447-.392 4.11-.395l.856-.001v-.253c0-.308.183-.495.336-.342.147.147.147 5.52 0 5.668-.153.152-.336-.035-.336-.342v-.253l-1.12-.013c-1.49-.017-1.626-.006-2.388.198-1.332.356-2.477 1.163-3.312 2.333l-.396.555h-2.27c-1.248 0-2.29-.031-2.313-.07z"/>
	<path fill="#262626" d="M6.753 68.271c0-.203.025-.22.29-.176.185.03.323.004.386-.072.064-.077.11-.925.135-2.445.036-2.163.055-2.387.268-3.185a9.843 9.843 0 0 1 2.674-4.555c.902-.877 1.57-1.344 2.681-1.878.833-.4 2.44-.88 2.661-.796.103.04.124.42.123 2.18 0 1.172-.03 2.173-.066 2.224-.035.05-.253.163-.483.25-1.079.404-2.391 1.63-2.917 2.724-.513 1.067-.59 1.486-.637 3.498-.046 1.99-.027 2.085.427 2.085.166 0 .253.045.253.131 0 .115-.365.132-2.759.132-1.517 0-2.82.024-2.897.053-.105.04-.14-.002-.14-.17zm160.861-5.068c-3.457-.378-6.219-1.769-8.4-4.228-1.946-2.196-3.167-5.043-3.728-8.693-.26-1.698-.325-5.192-.127-6.919.653-5.698 3.236-10.028 7.115-11.93 1.974-.968 3.805-1.346 6.501-1.342 4.08.006 7.036 1.131 9.316 3.546 1.362 1.443 2.233 3.07 2.785 5.204.412 1.591.527 2.698.536 5.137l.007 2.239-10.8.044-10.8.044-.028.658c-.088 2.056.555 4.975 1.564 7.091 1.423 2.986 3.473 4.81 5.99 5.326 1.43.294 3.683.146 5.322-.351 1.942-.589 4.198-2.225 5.788-4.2.206-.255.306-.32.391-.254 1.296 1.015 3.018 2.444 3.037 2.52.038.159-1.316 1.656-2.2 2.43-2.949 2.584-5.72 3.603-10.118 3.722-.772.02-1.74 0-2.15-.044zm9.417-20.674c-.098-2.68-1.198-5.605-2.658-7.066-1.033-1.034-2.418-1.642-4.213-1.85-2.792-.325-5.28.36-6.956 1.915-.943.876-2.015 2.604-2.56 4.127-.363 1.019-.66 2.733-.592 3.423.009.088 1.743.106 8.506.088l8.495-.022zM193.9 63.076c-1.662-.361-2.772-1.499-3.344-3.425-.147-.498-.157-1.708-.18-22.105l-.023-21.578h4.481v20.498c0 14.843.027 20.627.099 20.964.159.749.47 1.274.925 1.563.585.37 1.207.481 2.64.467l1.25-.012.085.321c.183.698.533 2.112.533 2.153 0 .069-1.286.545-2.151.797-1.62.47-3.195.6-4.315.357zM70.383 62.71c-.032-.032-.058-10.563-.058-23.4V15.967h24.849v3.863h-9.912c-8.245 0-9.928.02-10.01.12-.072.086-.093 2.276-.077 8.1l.023 7.98 7.946.044 7.947.044.024 1.822.023 1.822h-7.843c-6.137 0-7.877.024-7.993.11-.14.102-.148.75-.127 9.505l.023 9.395 10.429.022 10.428.023-.023 1.953-.024 1.953-12.783.023c-7.03.012-12.81-.005-12.842-.037zm33.7-.05c-.023-.061-.032-7.303-.02-16.092l.023-15.98h4.39v32.136l-2.175.024c-1.693.018-2.185-.001-2.218-.088zm15.367 0c-.023-.061-.052-6.453-.064-14.204l-.022-14.093-2.15-.044-2.152-.044v-3.688l2.151-.044 2.151-.044.058-2.195c.032-1.207.122-2.661.201-3.231.386-2.78 1.283-4.86 2.768-6.416 1.479-1.549 3.036-2.396 5.289-2.877 1.206-.258 3.806-.283 5.075-.05 1.54.284 3.6.98 3.6 1.217 0 .095-1.832 3.762-1.88 3.762-.018 0-.554-.253-1.19-.563-1.544-.751-2.105-.888-3.603-.878-1.89.013-3.205.45-4.16 1.382-1.174 1.146-1.485 2.644-1.497 7.215l-.007 2.634 3.713.023c2.857.018 3.722.048 3.752.132.021.06-.05.9-.158 1.865l-.197 1.756-3.555.044-3.555.044-.044 14.18-.044 14.181-2.219.024c-1.728.018-2.228-.001-2.261-.088zm19.054 0c-.023-.061-.052-6.453-.064-14.204l-.022-14.093-2.15-.044-2.152-.044v-3.688l2.151-.044 2.151-.044.058-2.195c.032-1.207.122-2.661.201-3.231.386-2.78 1.283-4.86 2.768-6.416 1.479-1.549 3.036-2.396 5.289-2.877 1.206-.258 3.805-.283 5.075-.05 1.54.284 3.6.98 3.6 1.217 0 .095-1.832 3.762-1.88 3.762-.018 0-.554-.253-1.19-.563-1.544-.751-2.105-.888-3.603-.878-1.89.013-3.205.45-4.16 1.382-1.174 1.146-1.485 2.644-1.497 7.215l-.007 2.634 3.713.023c2.857.018 3.722.048 3.752.132.021.06-.05.9-.158 1.865l-.197 1.756-3.555.044-3.555.044-.044 14.18-.044 14.181-2.219.024c-1.728.018-2.228-.001-2.261-.088zm-117.31-3.336c-.024-.064-.034-1.024-.02-2.133l.023-2.018 5.312-.046c5.262-.046 5.318-.048 5.927-.25 1.016-.337 1.618-.707 2.377-1.46.562-.557.784-.857 1.073-1.449.708-1.45.677-1.07.677-8.43v-6.54l-.206-.66c-.33-1.056-.686-1.64-1.507-2.467-.58-.585-.898-.827-1.406-1.071-1.035-.498-1.524-.593-3.466-.675-2.058-.087-2.969-.28-4.294-.908-1.116-.528-1.8-1.006-2.71-1.89a9.873 9.873 0 0 1-2.672-4.535c-.227-.83-.24-.984-.243-2.81l-.004-1.931h4.215l.056 1.492c.086 2.284.448 3.225 1.744 4.531.58.585.899.827 1.407 1.071 1.035.498 1.524.593 3.466.676 2.058.087 2.969.28 4.294.907 1.116.529 1.8 1.006 2.709 1.89a9.918 9.918 0 0 1 2.677 4.535l.243.878v15.015l-.245.966c-.278 1.092-.919 2.512-1.502 3.325-.496.69-1.783 1.94-2.493 2.417-.795.535-2.043 1.111-3.004 1.387l-.835.239-5.774.03c-4.72.024-5.783.009-5.819-.086zm41.049-29.307a49.359 49.359 0 0 0-.932-3.944c-.21-.744-.373-1.362-.36-1.374.112-.103.727-.29.778-.238.167.17.977 3.362 1.301 5.13l.156.85-.424.029-.425.03zm43.498-7.38c-.526-.104-.987-.366-1.41-.801-.82-.846-1.001-2.025-.476-3.093.538-1.092 1.438-1.612 2.64-1.526.71.05 1.167.274 1.66.81.539.583.742 1.095.752 1.892.017 1.34-.74 2.343-2.022 2.677-.557.145-.61.147-1.144.041zm-48.922-6.829a42.05 42.05 0 0 0-1.559-2.416c-.407-.572-.74-1.069-.74-1.105 0-.036.156-.192.348-.346l.348-.28.683.97c.654.927 2.57 4.016 2.571 4.145 0 .047-.775.44-.823.415a100.97 100.97 0 0 1-.828-1.382zM20.33 14.757c-.069-.11.353-1.277.746-2.063.508-1.015.988-1.653 1.934-2.572 1.294-1.256 2.531-1.987 4.153-2.45.827-.237 2.447-.392 4.11-.395l.856-.001v-.253c0-.308.183-.495.336-.342.147.147.147 5.52 0 5.668-.153.152-.336-.035-.336-.342v-.253l-1.12-.013c-1.49-.017-1.626-.006-2.388.198-1.332.356-2.477 1.163-3.312 2.333l-.396.555h-2.27c-1.248 0-2.29-.031-2.313-.07z"/>
</svg>
