<svg xmlns="http://www.w3.org/2000/svg" width="200" height="128">
	<defs>
		<linearGradient id="a" x1="-316.03" y1="-120.03" x2="-209.97" y2="-13.97" gradientTransform="rotate(-90 -25 -165)" gradientUnits="userSpaceOnUse">
			<stop offset="0" stop-color="#c8511b"/>
			<stop offset="1" stop-color="#f90"/>
		</linearGradient>
	</defs>
	<path d="m78.85 90.74-1-2.95h-4.59l-1 2.95h-1.67l4.1-11.09h1.76l4.09 11.09zm-5.17-4.18h3.73l-1.87-5.44zm18.58 4.18v-5.51a1.83 1.83 0 0 0-.26-1.18 1.13 1.13 0 0 0-1-.39 4.49 4.49 0 0 0-2.35.72 1.94 1.94 0 0 1 0 .24v6.12h-1.58v-5.51a1.9 1.9 0 0 0-.3-1.18 1.13 1.13 0 0 0-1-.39 4.35 4.35 0 0 0-2.34.71v6.37h-1.54v-8.12h1.33l.16.82a5.32 5.32 0 0 1 3-1.06 2 2 0 0 1 2 1.14 5.43 5.43 0 0 1 3.17-1.14 2.23 2.23 0 0 1 1.7.63 2.49 2.49 0 0 1 .59 1.77v6zm8.68 0-.12-.84a4.2 4.2 0 0 1-1.28.77 3.76 3.76 0 0 1-1.38.27 2.54 2.54 0 0 1-1.82-.64 2.31 2.31 0 0 1-.68-1.74 2.28 2.28 0 0 1 .84-1.86 3.34 3.34 0 0 1 2.24-.7 8.38 8.38 0 0 1 2 .27v-1a1.59 1.59 0 0 0-.39-1.22 2 2 0 0 0-1.35-.4 8.71 8.71 0 0 0-2.81.49V83a5.17 5.17 0 0 1 1.41-.47 8.55 8.55 0 0 1 1.68-.17 3.29 3.29 0 0 1 2.24.64 2.42 2.42 0 0 1 .72 1.92v5.8zm-2.4-1a3.75 3.75 0 0 0 2.21-.81V87.3a6.86 6.86 0 0 0-1.69-.21c-1.21 0-1.81.46-1.81 1.39a1.27 1.27 0 0 0 .33.94 1.37 1.37 0 0 0 .96.32zm5.46 1v-1.22l4.66-5.65h-4.5v-1.25h6.26v1.2l-4.72 5.67h4.76v1.25zm11.52.24a3.63 3.63 0 0 1-2.85-1.14 5.4 5.4 0 0 1 0-6.32 4.13 4.13 0 0 1 5.7 0 5.4 5.4 0 0 1 0 6.32 3.63 3.63 0 0 1-2.85 1.16zm0-1.28c1.5 0 2.26-1 2.26-3s-.76-3-2.26-3-2.26 1-2.26 3 .74 3 2.26 3zm11.31 1v-5.39a1.9 1.9 0 0 0-.34-1.25 1.37 1.37 0 0 0-1.08-.4 4.45 4.45 0 0 0-2.48.82v6.26h-1.59v-8.12h1.33l.16.9a5.27 5.27 0 0 1 3.2-1.14 2.41 2.41 0 0 1 1.78.62 2.46 2.46 0 0 1 .61 1.78v6zm-40.23 16V95.65h7.3v1.85H89v2.63h4V102h-4v2.9h4.9v1.86zm9.25 0V95.65h2.4v4.75l4-4.75H105l-4.51 5.15 4.89 5.94h-2.86l-4.24-5.27v5.27zm12.91-4.85a4.7 4.7 0 0 1-2.05-1.29 3 3 0 0 1-.62-1.93 2.93 2.93 0 0 1 1.11-2.4 4.6 4.6 0 0 1 3-.89 8.66 8.66 0 0 1 3.08.57v1.83a9.85 9.85 0 0 0-2.88-.48c-1.26 0-1.89.4-1.89 1.21a.94.94 0 0 0 .33.74 4.2 4.2 0 0 0 1.22.61l1.18.43a5.07 5.07 0 0 1 2.12 1.27 2.77 2.77 0 0 1 .64 1.9 3.18 3.18 0 0 1-1.19 2.6 5.07 5.07 0 0 1-3.25 1 10 10 0 0 1-1.79-.17 6.3 6.3 0 0 1-1.53-.46v-1.82a11.94 11.94 0 0 0 1.71.38 10.29 10.29 0 0 0 1.65.15 2.57 2.57 0 0 0 1.45-.35 1.11 1.11 0 0 0 .51-1 1 1 0 0 0-.31-.78 3.85 3.85 0 0 0-1.25-.64z" fill="#333"/>
	<path d="M73 19h54v54H73z" fill="url(#a)"/>
	<path d="M100 65.4h-.4l-16.5-9.6a.84.84 0 0 1-.4-.7v-19a.75.75 0 0 1 .4-.7l15.1-8.8a.85.85 0 0 1 .7 0 .84.84 0 0 1 .4.7v8.3a.55.55 0 0 1-.4.6l-7.5 4.4v10l8.6 5 7.6-4.3a.85.85 0 0 1 .7 0l7.2 4.1c.4.2.4.6.3 1-.1.1-.1.2-.3.3l-15.1 8.7c-.1.1-.2.1-.4 0zM84.2 54.8l15.8 9.1 13.7-7.9-5.8-3.3-7.5 4.3a1.1 1.1 0 0 1-.8 0l-9.3-5.4a.82.82 0 0 1-.4-.6V40.2a.75.75 0 0 1 .4-.7l7.5-4.4v-6.6l-13.6 7.9zm32.4-.6a.76.76 0 0 1-.4-.1L109 50a.84.84 0 0 1-.4-.7v-8.7l-7.5-4.3a.84.84 0 0 1-.4-.7v-8.2a.75.75 0 0 1 .4-.7.85.85 0 0 1 .7 0l15.1 8.7a.84.84 0 0 1 .4.7v17.5c0 .4-.3.6-.7.6zm-6.5-5.2 5.7 3.3V36.4l-13.6-7.8v6.6l7.5 4.3a.84.84 0 0 1 .4.7zm-13.7 2V40.2h1.4v4.9l4.7-4.9h1.9l-4.9 5.3 5.3 5.5h-1.9l-5.1-5v5z" fill="#fff"/>
</svg>
