<svg xmlns="http://www.w3.org/2000/svg" width="200" height="128">
	<path d="M47.84 55.05a14 14 0 00-23.24 2.74h18.21a5.56 5.56 0 003.58-1.29 11.68 11.68 0 001.45-1.45" fill="#fec514"/>
	<path d="M23.14 64a13.93 13.93 0 00.48 3.62h17.12a3.62 3.62 0 100-7.24H23.62a13.93 13.93 0 00-.48 3.62" fill="#343741"/>
	<path d="M47.84 73a14 14 0 01-23.24-2.79h18.21a5.56 5.56 0 013.58 1.29 11.68 11.68 0 011.45 1.5" fill="#00bfb3"/>
	<path d="M68.11 71.45v-2.54h-7v-3.57h5.31V62.8h-5.34v-3.51h7v-2.54h-9.74v14.7zm5 0v-14.7h-2.64v14.7zm5.52.29a3.45 3.45 0 002.84-1.28h.09v1H84v-6.35c0-2.56-1.47-4-4.1-4-2.26 0-3.88 1.05-4.46 2.88l2.61.21a1.7 1.7 0 011.68-1 1.55 1.55 0 011.68 1.72v.74a4.94 4.94 0 00-2-.38c-2.63 0-4.23 1.24-4.23 3.31a3.17 3.17 0 003.42 3.15zm.75-2c-1 0-1.58-.51-1.58-1.29s.69-1.28 1.89-1.28a3.12 3.12 0 011.78.44v.66c-.03.73-1 1.42-2.12 1.42zm10.51 2.07c2.43 0 4.07-1.32 4.07-3.36 0-4-5.29-2.3-5.29-4.28 0-.56.46-1 1.27-1a1.46 1.46 0 011.53 1.1l2.43-.53c-.42-1.53-2-2.56-4-2.56-2.26 0-3.79 1.28-3.79 3.19 0 4 5.29 2.33 5.29 4.28 0 .74-.52 1.22-1.41 1.22A1.86 1.86 0 0188 68.53l-2.37.47a4.06 4.06 0 004.23 2.76zm10.06-.1a4.93 4.93 0 001.71-.27l-.27-2.1a2.22 2.22 0 01-.92.19c-1 0-1.47-.42-1.47-1.77v-4h2.55v-2.32H99v-3.17l-2.61.52v2.65h-1.7v2.24h1.7v4.45c-.03 2.65 1.46 3.53 3.53 3.53zm5.73-12.37v-2.59H103v2.54zm0 12.16v-10H103v10zm6.93.31a4.33 4.33 0 004.39-3.28l-2.45-.63a2.06 2.06 0 01-2.1 1.55c-1.55 0-2.42-1.26-2.42-3s.87-3 2.42-3a2.08 2.08 0 012.18 1.55l2.53-.35c-.56-2.29-2.18-3.51-4.73-3.51a5 5 0 00-5 5.31 5 5 0 005.15 5.31zm9.75 0c2.42 0 4.06-1.32 4.06-3.36 0-4-5.29-2.3-5.29-4.28 0-.56.46-1 1.27-1a1.46 1.46 0 011.53 1.1l2.43-.53c-.42-1.53-2-2.56-4-2.56-2.27 0-3.8 1.28-3.8 3.19 0 4 5.29 2.33 5.29 4.28 0 .74-.52 1.22-1.41 1.22a1.86 1.86 0 01-1.89-1.28l-2.41.46c.49 1.71 2.05 2.71 4.19 2.71zm10.47 0a4.44 4.44 0 004.31-2.81l-2.14-.66a2.29 2.29 0 01-2.14 1.26 2.65 2.65 0 01-2.61-2.41h7.32v-.63c0-3.45-2.18-5.44-5-5.44a5.33 5.33 0 00.25 10.64zm2-6.38h-4.58a2.33 2.33 0 012.36-2.22 2.13 2.13 0 012.2 2.17zm7.59 6.36a3.47 3.47 0 002.85-1.28h.08v1h2.47v-6.4c0-2.56-1.48-4-4.11-4-2.26 0-3.88 1.05-4.46 2.88l2.61.21a1.7 1.7 0 011.68-1 1.55 1.55 0 011.68 1.72v.74a4.94 4.94 0 00-2-.38c-2.63 0-4.23 1.24-4.23 3.31a3.17 3.17 0 003.41 3.15zm.75-2c-1 0-1.58-.51-1.58-1.29s.69-1.28 1.89-1.28a3.15 3.15 0 011.79.44v.66c-.02.68-1 1.37-2.12 1.37zm9.48 1.76V67c0-2.35 1.08-3.13 2.51-3.13a2.07 2.07 0 01.73.12v-2.58a1.72 1.72 0 00-.75-.14 2.85 2.85 0 00-2.64 1.78v-1.61H150v10zm9.17.31a4.33 4.33 0 004.46-3.23l-2.45-.63a2.06 2.06 0 01-2.1 1.55c-1.55 0-2.42-1.26-2.42-3s.87-3 2.42-3a2.08 2.08 0 012.12 1.45l2.53-.35c-.56-2.29-2.18-3.51-4.73-3.51a5 5 0 00-5 5.31 5 5 0 005.15 5.31zm8.71-.31V65.7a2.1 2.1 0 012.07-2.25c1.06 0 1.66.69 1.66 2.08v5.92h2.62v-6.4c0-2.46-1.33-3.93-3.47-3.93a3.62 3.62 0 00-2.88 1.43v-5.8h-2.63v14.7z" fill="#343741"/>
</svg>
