<svg xmlns="http://www.w3.org/2000/svg" viewBox="-23.74 -23.74 1234.48 329.48">
	<path fill="#384A51" d="M551.725 231.47h26.354l.442-193.867-26.353 8.018-.443 185.849zM745.781 80.011v26.051c-12.117-18.478-31.503-29.988-57.251-29.988-42.106 0-76.638 34.835-76.638 79.667 0 44.831 34.532 79.667 76.638 79.667 25.748 0 45.134-11.511 57.251-29.989v26.051h26.354V80.011h-26.354zm-53.919 129.952c-30.292 0-53.616-23.325-53.616-54.222 0-30.898 23.324-54.222 53.616-54.222 30.594 0 53.919 23.324 53.919 54.222 0 30.897-23.325 54.222-53.919 54.222zm144.713-89.058c0-13.631 13.329-20.295 26.96-20.295 13.328 0 26.656 5.755 32.412 19.386l22.113-12.419c-9.694-19.69-29.686-31.504-54.525-31.504-30.595 0-53.617 18.478-53.617 45.135 0 54.828 84.817 36.35 84.817 68.762 0 14.843-13.934 20.599-29.989 20.599-18.78 0-32.715-9.088-37.561-23.628l-22.719 13.026c8.785 20.901 29.989 35.441 60.28 35.441 32.413 0 56.646-17.266 56.646-45.438 0-55.736-84.817-36.653-84.817-69.065zm183.095-15.449V80.011h-40.287V37.603l-26.354 7.876v142.068c0 37.865 21.204 49.981 66.641 43.923v-23.628c-26.959 1.212-40.287 2.727-40.287-20.295v-82.091h40.287zM1187.4 231.47l-57.85-78.153 54.52-73.306h-30.9l-39.07 52.708-39.08-52.708h-31.2l54.83 73.609-58.16 77.85h30.9l42.71-57.251 42.41 57.251h30.89z"/>
	<path fill="#384A51" fill-rule="evenodd" d="M386.526 164.514h132.106v-13.057c0-44.131-35.776-79.907-79.907-79.907-44.132 0-79.908 35.776-79.908 79.907 0 44.132 35.776 79.908 79.908 79.908h52.227v-26.114h-52.227c-25.207 0-46.364-17.337-52.199-40.737zm52.199-66.85c-25.207 0-46.364 17.336-52.199 40.736h104.397c-5.834-23.4-26.992-40.737-52.198-40.737z" clip-rule="evenodd"/>
	<mask id="b" width="207" height="284" x="0" y="0" maskUnits="userSpaceOnUse">
		<path fill="url(#a)" fill-rule="evenodd" d="M0 90.482C0 40.51 40.51 0 90.482 0h90.481c13.992 0 25.335 11.343 25.335 25.335S194.955 50.67 180.963 50.67H90.482c-21.988 0-39.812 17.824-39.812 39.812v102.063c0 21.988 17.824 39.812 39.812 39.812h90.481c13.992 0 25.335 11.343 25.335 25.335s-11.343 25.335-25.335 25.335H90.482C40.51 283.027 0 242.517 0 192.545V90.482z" clip-rule="evenodd"/>
	</mask>
	<g mask="url(#b)">
		<path fill="#FFDBA6" fill-rule="evenodd" d="M0 90.482C0 40.51 40.51 0 90.482 0h90.481c13.992 0 25.335 11.343 25.335 25.335S194.955 50.67 180.963 50.67H90.482c-21.988 0-39.812 17.824-39.812 39.812v102.063c0 21.988 17.824 39.812 39.812 39.812h90.481c13.992 0 25.335 11.343 25.335 25.335s-11.343 25.335-25.335 25.335H90.482C40.51 283.027 0 242.517 0 192.545V90.482z" clip-rule="evenodd"/>
		<g filter="url(#c)">
			<ellipse cx="150.053" cy="259.888" fill="#FFB924" rx="103.646" ry="54.143" transform="rotate(-19.184 150.053 259.888)"/>
		</g>
		<g filter="url(#d)">
			<ellipse cx="154.126" cy="61.815" fill="#FF9A24" rx="103.646" ry="54.143" transform="rotate(-10.042 154.126 61.815)"/>
		</g>
		<g filter="url(#e)">
			<ellipse cx="-18.656" cy="72.377" fill="#FFCF86" rx="167.742" ry="54.143" transform="rotate(-32.487 -18.656 72.377)"/>
		</g>
		<g filter="url(#f)" opacity=".7">
			<ellipse cx="37.906" cy="158.469" fill="#FFC803" rx="141.813" ry="87.681" transform="rotate(40.161 37.906 158.469)"/>
		</g>
		<g filter="url(#g)" opacity=".4">
			<ellipse cx="55.166" cy="276.487" fill="#FF7676" rx="156.854" ry="54.143" transform="rotate(29.183 55.166 276.487)"/>
		</g>
		<g filter="url(#h)" opacity=".6">
			<ellipse cx="184.609" cy="79.877" fill="#FFC803" rx="46.338" ry="87.681" transform="rotate(40.161 184.609 79.877)"/>
		</g>
		<g filter="url(#i)" opacity=".6">
			<ellipse cx="177.417" cy="271.903" fill="#FFE588" rx="36.738" ry="65.155" transform="rotate(64.01 177.417 271.903)"/>
		</g>
		<path fill="#fff" fill-opacity=".1" fill-rule="evenodd" d="M24.75 99.427c0-41.242 33.719-74.677 75.312-74.677h121.721c11.646 0 21.087 9.362 21.087 20.91s-9.441 20.91-21.087 20.91H100.062c-18.3 0-33.137 14.71-33.137 32.857v84.236c0 18.147 14.836 32.858 33.137 32.858h121.721c11.646 0 21.087 9.361 21.087 20.909 0 11.548-9.441 20.91-21.087 20.91H100.062c-41.593 0-75.312-33.434-75.312-74.677V99.427z" clip-rule="evenodd"/>
	</g>
	<mask id="k" width="188" height="73" x="88" y="105" maskUnits="userSpaceOnUse">
		<path fill="url(#j)" d="M88.177 141.777c0-19.777 16.032-35.81 35.809-35.81h1.693a45 45 0 0 1 32.211 13.576l7.088 7.265a24.508 24.508 0 0 0 35.086 0l7.41-7.596a43.907 43.907 0 0 1 31.427-13.245h.777c19.778 0 35.81 16.033 35.81 35.81s-16.032 35.809-35.81 35.809h-.571a43.657 43.657 0 0 1-31.614-13.548l-7.518-7.895a24.106 24.106 0 0 0-34.908 0l-7.195 7.556a44.75 44.75 0 0 1-32.405 13.887h-1.481c-19.777 0-35.81-16.032-35.81-35.809z"/>
	</mask>
	<g mask="url(#k)">
		<path fill="url(#l)" d="M88.177 141.777c0-19.777 16.032-35.81 35.809-35.81h1.693a45 45 0 0 1 32.211 13.576l7.088 7.265a24.508 24.508 0 0 0 35.086 0l7.41-7.596a43.907 43.907 0 0 1 31.427-13.245h.777c19.778 0 35.81 16.033 35.81 35.81s-16.032 35.809-35.81 35.809h-.571a43.657 43.657 0 0 1-31.614-13.548l-7.518-7.895a24.106 24.106 0 0 0-34.908 0l-7.195 7.556a44.75 44.75 0 0 1-32.405 13.887h-1.481c-19.777 0-35.81-16.032-35.81-35.809z"/>
		<g filter="url(#m)">
			<path fill="url(#n)" fill-opacity=".6" d="M88.177 141.777c0-19.777 16.032-35.81 35.809-35.81h1.693a45 45 0 0 1 32.211 13.576l7.088 7.265a24.508 24.508 0 0 0 35.086 0l7.41-7.596a43.907 43.907 0 0 1 31.427-13.245h.777c19.778 0 35.81 16.033 35.81 35.81s-16.032 35.809-35.81 35.809h-.571a43.657 43.657 0 0 1-31.614-13.548l-7.518-7.895a24.106 24.106 0 0 0-34.908 0l-7.195 7.556a44.75 44.75 0 0 1-32.405 13.887h-1.481c-19.777 0-35.81-16.032-35.81-35.809z"/>
		</g>
	</g>
	<defs>
		<filter id="c" width="299.363" height="238.39" x=".371" y="140.693" color-interpolation-filters="sRGB" filterUnits="userSpaceOnUse">
			<feFlood flood-opacity="0" result="BackgroundImageFix"/>
			<feBlend in="SourceGraphic" in2="BackgroundImageFix" result="shape"/>
			<feGaussianBlur result="effect1_foregroundBlur" stdDeviation="17"/>
		</filter>
		<filter id="d" width="410.997" height="330.773" x="-51.373" y="-103.571" color-interpolation-filters="sRGB" filterUnits="userSpaceOnUse">
			<feFlood flood-opacity="0" result="BackgroundImageFix"/>
			<feBlend in="SourceGraphic" in2="BackgroundImageFix" result="shape"/>
			<feGaussianBlur result="effect1_foregroundBlur" stdDeviation="47"/>
		</filter>
		<filter id="e" width="469.147" height="399.531" x="-253.229" y="-127.389" color-interpolation-filters="sRGB" filterUnits="userSpaceOnUse">
			<feFlood flood-opacity="0" result="BackgroundImageFix"/>
			<feBlend in="SourceGraphic" in2="BackgroundImageFix" result="shape"/>
			<feGaussianBlur result="effect1_foregroundBlur" stdDeviation="32"/>
		</filter>
		<filter id="f" width="457.853" height="444.939" x="-191.021" y="-64" color-interpolation-filters="sRGB" filterUnits="userSpaceOnUse">
			<feFlood flood-opacity="0" result="BackgroundImageFix"/>
			<feBlend in="SourceGraphic" in2="BackgroundImageFix" result="shape"/>
			<feGaussianBlur result="effect1_foregroundBlur" stdDeviation="32"/>
		</filter>
		<filter id="g" width="454.688" height="375.504" x="-172.178" y="88.735" color-interpolation-filters="sRGB" filterUnits="userSpaceOnUse">
			<feFlood flood-opacity="0" result="BackgroundImageFix"/>
			<feBlend in="SourceGraphic" in2="BackgroundImageFix" result="shape"/>
			<feGaussianBlur result="effect1_foregroundBlur" stdDeviation="32"/>
		</filter>
		<filter id="h" width="251.925" height="261.788" x="58.647" y="-51.017" color-interpolation-filters="sRGB" filterUnits="userSpaceOnUse">
			<feFlood flood-opacity="0" result="BackgroundImageFix"/>
			<feBlend in="SourceGraphic" in2="BackgroundImageFix" result="shape"/>
			<feGaussianBlur result="effect1_foregroundBlur" stdDeviation="17"/>
		</filter>
		<filter id="i" width="217.33" height="191.149" x="68.752" y="176.328" color-interpolation-filters="sRGB" filterUnits="userSpaceOnUse">
			<feFlood flood-opacity="0" result="BackgroundImageFix"/>
			<feBlend in="SourceGraphic" in2="BackgroundImageFix" result="shape"/>
			<feGaussianBlur result="effect1_foregroundBlur" stdDeviation="17"/>
		</filter>
		<filter id="m" width="292.504" height="176.812" x="35.58" y="53.371" color-interpolation-filters="sRGB" filterUnits="userSpaceOnUse">
			<feFlood flood-opacity="0" result="BackgroundImageFix"/>
			<feBlend in="SourceGraphic" in2="BackgroundImageFix" result="shape"/>
			<feGaussianBlur result="effect1_foregroundBlur" stdDeviation="26.298"/>
		</filter>
		<linearGradient id="a" x1="-26.298" x2="195.689" y1="140.772" y2="140.772" gradientUnits="userSpaceOnUse">
			<stop stop-color="#FFAB2E" offset="0%"/>
			<stop offset="1" stop-color="#FFE600"/>
		</linearGradient>
		<linearGradient id="j" x1="88.322" x2="239.15" y1="55.152" y2="258.576" gradientUnits="userSpaceOnUse">
			<stop stop-color="#2EFFCD" offset="0%"/>
			<stop offset="1" stop-color="#54ADFF"/>
		</linearGradient>
		<linearGradient id="l" x1="88.322" x2="239.15" y1="55.152" y2="258.576" gradientUnits="userSpaceOnUse">
			<stop stop-color="#2EFFCD" offset="0%"/>
			<stop offset="1" stop-color="#54ADFF"/>
		</linearGradient>
		<linearGradient id="n" x1="88.322" x2="239.15" y1="55.152" y2="258.576" gradientUnits="userSpaceOnUse">
			<stop stop-color="#2EFFCD" offset="0%"/>
			<stop offset="1" stop-color="#54ADFF"/>
		</linearGradient>
	</defs>
</svg>
