<svg xmlns="http://www.w3.org/2000/svg" viewBox="0 0 140.13 78.88">
	<defs>
		<style>
			.cls-5{fill:#343741}
		</style>
	</defs>
	<g id="Layer_2" data-name="Layer 2">
		<g id="Layer_1-2" data-name="Layer 1">
			<path d="M93.14 12.59v-9A3.54 3.54 0 0 0 89.6 0H51.37a3.54 3.54 0 0 0-3.54 3.54v9Z" style="fill:#f04e98"/>
			<path d="M47.83 28.53h45.31V16.78H47.83Z" style="fill:#00bfb3"/>
			<path d="M72.61 32.73v12.58h17a3.54 3.54 0 0 0 3.54-3.54v-9Z" style="fill:#fec514"/>
			<path d="M68.36 32.73H47.83v9a3.54 3.54 0 0 0 3.54 3.54h17Z" style="fill:#07c"/>
			<path class="cls-5" d="M39.26 71.14c-1.28-.26-2.37-.49-2.37-1.47 0-.68.56-1.21 1.54-1.21a1.77 1.77 0 0 1 1.87 1.32l3-.63c-.5-1.85-2.42-3.09-4.9-3.09-2.75 0-4.62 1.54-4.62 3.84 0 2.88 2.24 3.34 4.08 3.71 1.28.26 2.36.48 2.36 1.44s-.63 1.47-1.72 1.47A2.26 2.26 0 0 1 36.15 75l-2.93.56c.66 2.12 2.55 3.34 5.15 3.34 3 0 4.95-1.59 4.95-4 0-2.9-2.23-3.38-4.06-3.76Z"/>
			<path class="cls-5" d="M51.25 76.12c-1.19 0-1.79-.51-1.79-2.12v-4.86h3.1v-2.7h-3.1v-3.82l-3.18.63v3.19H44.2v2.71h2.07v5.35c0 3.19 1.82 4.25 4.34 4.25a5.76 5.76 0 0 0 2.07-.33l-.33-2.53a2.6 2.6 0 0 1-1.1.23Z"/>
			<path class="cls-5" d="M54.4 66.44h3.18V78.5H54.4z"/>
			<path class="cls-5" d="M0 78.5h11.89v-3.06H3.33v-4.3h6.46v-3.06H3.33v-4.23h8.56V60.8H0v17.7z"/>
			<path class="cls-5" d="M54.4 60.8h3.18v3.06H54.4z"/>
			<path class="cls-5" d="M14.77 60.8h3.18v17.7h-3.18z"/>
			<path class="cls-5" d="m134.86 71.87 4.84-5.43h-3.76l-4.26 5.03V60.8h-3.18v17.7h3.18v-5.64l4.39 5.64h4.06l-5.27-6.63z"/>
			<path class="cls-5" d="M121 68.86a2.52 2.52 0 0 1 2.6 1.85l3.08-.43c-.68-2.76-2.65-4.22-5.76-4.22-3.36 0-6.06 2.45-6.06 6.4 0 3.77 2.5 6.42 6.23 6.42A5.27 5.27 0 0 0 126.5 75l-3-.76a2.5 2.5 0 0 1-2.5 1.86c-1.89 0-3-1.52-3-3.62s1.08-3.62 3-3.62Z"/>
			<path class="cls-5" d="M107.84 66.06c-2.75 0-4.72 1.26-5.43 3.46l3.18.25a2.07 2.07 0 0 1 2-1.19 1.88 1.88 0 0 1 2 2.07v.89a6.12 6.12 0 0 0-2.47-.46c-3.21 0-5.15 1.49-5.15 4 0 2.2 1.74 3.77 4.22 3.77a4.25 4.25 0 0 0 3.46-1.54h.1v1.19h3v-7.64c.09-3.08-1.75-4.8-4.91-4.8Zm1.9 8.55c0 .94-1.19 1.77-2.55 1.77-1.21 0-1.92-.61-1.92-1.54s.83-1.54 2.3-1.54a3.83 3.83 0 0 1 2.17.53Z"/>
			<path class="cls-5" d="M85.74 68c-1.86-.48-3.49-.91-3.49-2.55 0-1.34 1-2.1 2.55-2.1a2.85 2.85 0 0 1 3 2.43l3.23-.58c-.48-2.86-2.8-4.78-6.16-4.78-3.53 0-6 2.17-6 5.31 0 3.87 2.86 4.63 5.34 5.29 1.88.5 3.53.94 3.53 2.63C87.72 75 86.59 76 84.85 76a3.27 3.27 0 0 1-3.43-2.4l-3.23.68c.53 2.88 3.28 4.63 6.54 4.63 3.84 0 6.39-2.25 6.39-5.61-.01-3.91-2.9-4.66-5.38-5.3Z"/>
			<path class="cls-5" d="M65.91 68.86a2.51 2.51 0 0 1 2.6 1.85l3.08-.43c-.68-2.76-2.65-4.22-5.76-4.22-3.36 0-6.06 2.45-6.06 6.4 0 3.77 2.5 6.42 6.24 6.42A5.27 5.27 0 0 0 71.44 75l-3-.76a2.5 2.5 0 0 1-2.55 1.87c-1.89 0-3-1.52-3-3.62s1.11-3.63 3.02-3.63Z"/>
			<path class="cls-5" d="M99.31 76.12c-1.19 0-1.79-.51-1.79-2.12v-4.86h3.1v-2.7h-3.1v-3.82l-3.18.63v3.19h-2.07v2.71h2.07v5.35c0 3.19 1.82 4.25 4.34 4.25a5.75 5.75 0 0 0 2.07-.33l-.33-2.53a2.61 2.61 0 0 1-1.11.23Z"/>
			<path class="cls-5" d="M26.23 66.06c-2.75 0-4.72 1.26-5.43 3.46l3.18.25a2.07 2.07 0 0 1 2-1.19 1.88 1.88 0 0 1 2 2.07v.89a6.12 6.12 0 0 0-2.47-.46c-3.21 0-5.15 1.49-5.15 4 0 2.2 1.74 3.77 4.22 3.77a4.24 4.24 0 0 0 3.46-1.54h.1v1.19h3v-7.64c.09-3.08-1.71-4.8-4.91-4.8Zm1.9 8.55c0 .94-1.19 1.77-2.55 1.77-1.21 0-1.92-.61-1.92-1.54s.83-1.54 2.3-1.54a3.83 3.83 0 0 1 2.17.53Z"/>
		</g>
	</g>
</svg>
