<svg xmlns="http://www.w3.org/2000/svg" viewBox="0 0 140.13 78.88"><defs><style>.cls-1{fill:#f04e98;}.cls-2{fill:#00bfb3;}.cls-3{fill:#fec514;}.cls-4{fill:#07c;}.cls-5{fill:#343741;}</style></defs><title>elk-stack-logo</title><g id="Layer_2" data-name="Layer 2"><g id="Layer_1-2" data-name="Layer 1"><path class="cls-1" d="M93.14,12.59v-9A3.54,3.54,0,0,0,89.6,0H51.37a3.54,3.54,0,0,0-3.54,3.54v9Z"/><path class="cls-2" d="M47.83,28.53H93.14V16.78H47.83Z"/><path class="cls-3" d="M72.61,32.73V45.31h17a3.54,3.54,0,0,0,3.54-3.54v-9Z"/><path class="cls-4" d="M68.36,32.73H47.83v9a3.54,3.54,0,0,0,3.54,3.54h17Z"/><path class="cls-5" d="M39.26,71.14c-1.28-.26-2.37-.49-2.37-1.47,0-.68.56-1.21,1.54-1.21a1.77,1.77,0,0,1,1.87,1.32l3-.63c-.5-1.85-2.42-3.09-4.9-3.09-2.75,0-4.62,1.54-4.62,3.84,0,2.88,2.24,3.34,4.08,3.71,1.28.26,2.36.48,2.36,1.44s-.63,1.47-1.72,1.47A2.26,2.26,0,0,1,36.15,75l-2.93.56c.66,2.12,2.55,3.34,5.15,3.34,3,0,4.95-1.59,4.95-4C43.32,72,41.09,71.52,39.26,71.14Z"/><path class="cls-5" d="M51.25,76.12c-1.19,0-1.79-.51-1.79-2.12V69.14h3.1V66.44h-3.1V62.62l-3.18.63v3.19H44.2v2.71h2.07V74.5c0,3.19,1.82,4.25,4.34,4.25a5.76,5.76,0,0,0,2.07-.33l-.33-2.53A2.6,2.6,0,0,1,51.25,76.12Z"/><rect class="cls-5" x="54.4" y="66.44" width="3.18" height="12.06"/><polygon class="cls-5" points="0 78.5 11.89 78.5 11.89 75.44 3.33 75.44 3.33 71.14 9.79 71.14 9.79 68.08 3.33 68.08 3.33 63.85 11.89 63.85 11.89 60.8 0 60.8 0 78.5"/><rect class="cls-5" x="54.4" y="60.8" width="3.18" height="3.06"/><rect class="cls-5" x="14.77" y="60.8" width="3.18" height="17.7"/><polygon class="cls-5" points="134.86 71.87 139.7 66.44 135.94 66.44 131.68 71.47 131.68 60.8 128.5 60.8 128.5 78.5 131.68 78.5 131.68 72.86 136.07 78.5 140.13 78.5 134.86 71.87"/><path class="cls-5" d="M121,68.86a2.52,2.52,0,0,1,2.6,1.85l3.08-.43c-.68-2.76-2.65-4.22-5.76-4.22-3.36,0-6.06,2.45-6.06,6.4,0,3.77,2.5,6.42,6.23,6.42A5.27,5.27,0,0,0,126.5,75l-3-.76A2.5,2.5,0,0,1,121,76.1c-1.89,0-3-1.52-3-3.62S119.08,68.86,121,68.86Z"/><path class="cls-5" d="M107.84,66.06c-2.75,0-4.72,1.26-5.43,3.46l3.18.25a2.07,2.07,0,0,1,2-1.19,1.88,1.88,0,0,1,2,2.07v.89a6.12,6.12,0,0,0-2.47-.46c-3.21,0-5.15,1.49-5.15,4,0,2.2,1.74,3.77,4.22,3.77a4.25,4.25,0,0,0,3.46-1.54h.1V78.5h3V70.86C112.84,67.78,111,66.06,107.84,66.06Zm1.9,8.55c0,.94-1.19,1.77-2.55,1.77-1.21,0-1.92-.61-1.92-1.54s.83-1.54,2.3-1.54a3.83,3.83,0,0,1,2.17.53Z"/><path class="cls-5" d="M85.74,68c-1.86-.48-3.49-.91-3.49-2.55,0-1.34,1-2.1,2.55-2.1a2.85,2.85,0,0,1,3,2.43l3.23-.58c-.48-2.86-2.8-4.78-6.16-4.78-3.53,0-6,2.17-6,5.31,0,3.87,2.86,4.63,5.34,5.29,1.88.5,3.53.94,3.53,2.63C87.72,75,86.59,76,84.85,76a3.27,3.27,0,0,1-3.43-2.4l-3.23.68c.53,2.88,3.28,4.63,6.54,4.63,3.84,0,6.39-2.25,6.39-5.61C91.11,69.39,88.22,68.64,85.74,68Z"/><path class="cls-5" d="M65.91,68.86a2.51,2.51,0,0,1,2.6,1.85l3.08-.43c-.68-2.76-2.65-4.22-5.76-4.22-3.36,0-6.06,2.45-6.06,6.4,0,3.77,2.5,6.42,6.24,6.42A5.27,5.27,0,0,0,71.44,75l-3-.76a2.5,2.5,0,0,1-2.55,1.87c-1.89,0-3-1.52-3-3.62S64,68.86,65.91,68.86Z"/><path class="cls-5" d="M99.31,76.12c-1.19,0-1.79-.51-1.79-2.12V69.14h3.1V66.44h-3.1V62.62l-3.18.63v3.19H92.27v2.71h2.07V74.5c0,3.19,1.82,4.25,4.34,4.25a5.75,5.75,0,0,0,2.07-.33l-.33-2.53A2.61,2.61,0,0,1,99.31,76.12Z"/><path class="cls-5" d="M26.23,66.06c-2.75,0-4.72,1.26-5.43,3.46l3.18.25a2.07,2.07,0,0,1,2-1.19,1.88,1.88,0,0,1,2,2.07v.89a6.12,6.12,0,0,0-2.47-.46c-3.21,0-5.15,1.49-5.15,4,0,2.2,1.74,3.77,4.22,3.77a4.24,4.24,0,0,0,3.46-1.54h.1V78.5h3V70.86C31.23,67.78,29.43,66.06,26.23,66.06Zm1.9,8.55c0,.94-1.19,1.77-2.55,1.77-1.21,0-1.92-.61-1.92-1.54s.83-1.54,2.3-1.54a3.83,3.83,0,0,1,2.17.53Z"/></g></g></svg>