<svg xmlns="http://www.w3.org/2000/svg" viewBox="109.59 0.59 169.32 242.32">
	<g fill-rule="evenodd">
		<path fill="#115b8b" d="M192.411 6.616c-4.318 2.128-2.94 8.685 1.824 8.685 3.648 0 5.794-4.524 3.426-7.221-1.708-1.946-3.347-2.402-5.25-1.464m26.288 3.926c-6.06 2.456-4.552 11.115 1.936 11.121 6.615.006 7.852-9.107 1.522-11.218-1.724-.575-1.806-.573-3.458.097m-52.326 2.534c-3.05 1.326-2.02 6.079 1.315 6.068 1.59-.005 1.762-.087 2.688-1.294 2.016-2.624-.913-6.117-4.003-4.774m74.84 11.43c-6.373 1.947-6.098 11.681.376 13.312a6.961 6.961 0 0 0 7.9-10.198 7.321 7.321 0 0 0-8.276-3.115m-29.736 10.65a1.748 1.748 0 0 0 .022 2.933c2.015 1.586 4.142-.999 2.32-2.82-.887-.887-1.33-.908-2.342-.113m14.331 9.686a2.681 2.681 0 0 0-.312 3.69 2.917 2.917 0 0 0 5.137-2.445c-.41-2.055-3.276-2.794-4.825-1.245m29.412 1.628c-6.908 3.724-6.301 12.824 1.019 15.29 7.98 2.688 14.254-7.673 8.24-13.61-2.41-2.38-6.564-3.134-9.259-1.68m-19.403 12.46a3.8 3.8 0 0 0 .88 6.523c3.098 1.397 6.23-2.078 4.642-5.15-1.065-2.058-3.935-2.772-5.522-1.374m-13.46 9.189c-.295.768.118 1.403.846 1.3.488-.07.667-.293.667-.835 0-.874-1.214-1.246-1.513-.465m38.859 3.133c-11.501 3.61-7.253 20.645 4.568 18.319 9.648-1.898 10.151-15.47.68-18.289-2.49-.74-2.976-.744-5.248-.03m-20.03 4.357c-4.169 1.122-5.448 5.23-2.513 8.073 3.789 3.673 10.056-1.662 6.927-5.895-1.113-1.505-3.161-2.516-4.414-2.178m-16.872 3.631a1.364 1.364 0 0 0-.05 2.175 1.5 1.5 0 0 0 2.224-.052 1.52 1.52 0 1 0-2.174-2.123m-2.619 11.174a1.848 1.848 0 0 0-.099 3.027c1.106 1.106 1.992 1.134 3.072.1 1.954-1.872-.904-4.878-2.973-3.127m15.13 2.728a5.971 5.971 0 0 0-4.223 5.126c0 6.441 8.854 7.825 10.698 1.672 1.12-3.74-2.667-7.715-6.476-6.798m19.014 3.089c-7.789 1.912-10.527 12.227-4.815 18.137 3.953 4.09 11.672 3.965 15.463-.252a10.81 10.81 0 0 0-10.648-17.886m-85.842 1.62a5.02 5.02 0 0 0 3.707 9.247c4.271-.96 5.184-6.611 1.476-9.135a5.668 5.668 0 0 0-5.183-.112m44.761 2.045a2.902 2.902 0 0 0-1.06 3.495 2.955 2.955 0 0 0 4.72.738c2.371-2.373-.779-6.017-3.66-4.233m-34.189 5.078a4.597 4.597 0 0 0-1.998 5.92 4.48 4.48 0 1 0 1.998-5.92m23.876 1.11a3.365 3.365 0 0 0 3.303 5.861 3.634 3.634 0 0 0 1.766-3.276c0-2.33-3.008-3.864-5.07-2.585m-12.382 2.053c-2.579 2.17-2.168 5.4.86 6.766 1.587.715 3.127.291 4.462-1.228 2.985-3.401-1.864-8.448-5.322-5.538m33.852-.473c-2.57.794-4.927 4.453-4.404 6.837 1.7 7.741 12.573 7.01 12.573-.846a6.381 6.381 0 0 0-8.169-5.99m-15.384 9.411c-3.693 1.277-5.673 4.609-4.848 8.16 2.165 9.331 15.67 6.574 13.886-2.835a6.946 6.946 0 0 0-9.038-5.325m30.36.616c-12.085 2.759-12.697 19.88-.832 23.317 12.19 3.531 20.884-11.825 11.534-20.37a12.475 12.475 0 0 0-10.701-2.947m-47.51 1.944a12.381 12.381 0 0 1-1.372.29c-4.317.718-7.18 7.304-4.88 11.228 4.756 8.117 16.724 4.026 14.989-5.124-.744-3.92-5.67-7.526-8.736-6.394m-16.04 65.282c-1.298.523-1.29.339-1.207 26.318.087 27.626-.055 25.912 2.08 25.175l1.255-.434.075-25.277c.085-28.216.21-26.754-2.202-25.782m75.819.428-.726.727v24.857c0 28.345-.185 26.49 2.525 25.358l1.026-.429v-25.264c0-19.256-.084-25.35-.354-25.62a1.817 1.817 0 0 0-2.471.371m-110.935.828c-.468.344-.498 2.113-.427 25.086l.077 24.717 13.616.078c15.229.086 14.357.21 14.357-2.024 0-1.492.366-1.449-12.486-1.454-9.74-.003-11.212-.063-11.618-.47-.793-.792-.692-18.928.107-19.356.36-.192 3.988-.307 9.744-.307 10.558 0 10.108.074 10.108-1.649 0-1.908.032-1.903-10.295-1.903-8.488 0-9.185-.039-9.64-.54-.88-.974-.727-17.612.168-18.24.566-.395 2.14-.46 11.225-.46 5.81 0 10.776-.081 11.034-.18 1.041-.4.447-2.922-.79-3.354-1.376-.48-24.522-.429-25.18.056m92.669 4.084-1.405.875v3.782c0 4.58-.226 5.097-2.225 5.097-3.054 0-3.617 3.044-.592 3.2 2.997.152 2.817-.6 2.817 11.8 0 14.248.72 17.972 3.882 20.065 3.17 2.097 9.124 2.257 9.625.257.438-1.74-.058-2.267-1.947-2.07-4.157.435-6.504-1.006-7.427-4.56-.81-3.123-.89-24.218-.093-24.882.34-.283 1.74-.45 4.641-.554l4.154-.148.225-.842c.545-2.044.127-2.266-4.255-2.266-5.467 0-5.187.288-5.306-5.464-.111-5.325-.185-5.478-2.094-4.29m-32.486 9.128c-15.963 2.675-21.34 23.574-8.655 33.643 12.677 10.065 31.49 1.086 31.443-15.007-.035-11.795-10.846-20.637-22.788-18.636m9.113 4.178c10.158 3.922 13.343 16.817 6.125 24.793a15.583 15.583 0 1 1-6.125-24.793"/>
		<path fill="#23b6d5" d="M142.158 19.431c-6.49 1.397-10.76 9.507-8.367 15.898 4.966 13.264 24.282 9.46 23.558-4.639-.402-7.809-7.335-12.948-15.19-11.259m49.585 6.092a8.216 8.216 0 0 0-4.654 11.265 8.038 8.038 0 0 0 13.382 1.818c5.502-6.29-.684-15.563-8.728-13.083m-18.818 4.841a7.288 7.288 0 1 0 8.571 11.461c5.427-5.908-1.299-14.902-8.571-11.461m-13.29 10.378a6.416 6.416 0 0 0-4.47 9.127c2.625 5.155 9.65 4.684 11.941-.8 1.745-4.176-2.946-9.404-7.471-8.327m-32.939 2.967c-9.71 3.494-10.147 16.748-.68 20.595 9.759 3.965 18.945-6.993 13.375-15.952a11.009 11.009 0 0 0-12.695-4.643m65.405 2.385c-4.157 2.536-.792 9.044 3.739 7.231a3.995 3.995 0 0 0 1.064-6.929 4.106 4.106 0 0 0-4.803-.302m12.527 1.324a4.636 4.636 0 1 0 3.268.112 3.202 3.202 0 0 0-3.268-.112m-23.72 1.307a3.394 3.394 0 0 0-1.885 3.177 3.549 3.549 0 0 0 6.099 2.353c2.853-2.854-.78-7.623-4.214-5.53m33.488 5.026c-4.194 1.942-4.54 7.057-.631 9.347 4.286 2.512 9.556-2.231 7.32-6.59-1.436-2.801-4.165-3.926-6.689-2.757m-43.899 2.485a2.924 2.924 0 0 0-.682 3.699 2.884 2.884 0 0 0 5.36-.378c.94-2.852-2.694-5.432-4.678-3.321m-22.458 1.153c-5.048 2.793-3.214 10.364 2.51 10.364 7.309 0 7.829-10.527.54-10.943a4.605 4.605 0 0 0-3.05.58m16.856 9.04c-1.58.287-2.202 2.024-1.272 3.55a2.24 2.24 0 0 0 4.052-.043c1.005-2.106-.443-3.932-2.78-3.507m-42.557 4.795c-9.8 2.799-9.18 17.06.811 18.657 12.354 1.974 15.984-15.62 3.871-18.76-2.15-.557-2.388-.552-4.682.103m22.88 4.864a4.667 4.667 0 0 0-2.819 5.142c.495 4.39 6.716 5.498 8.746 1.56 2.052-3.982-1.925-8.477-5.928-6.702m17.23 2.938c-1.633.822-.84 3.171 1.072 3.171a1.654 1.654 0 0 0 1-2.96c-.686-.686-1.053-.724-2.072-.21m2.344 12.666c-.69.691-.146 1.753.9 1.753a1.113 1.113 0 0 0 .623-2.062c-.766-.41-.812-.4-1.523.31m-15.951 3.61a4.43 4.43 0 0 0-2.081 3.47c0 4.678 7.02 5.232 7.885.623.55-2.934-3.061-5.481-5.804-4.092m-21.066 3.432c-3.866.818-6.695 5.506-5.889 9.758 1.344 7.086 11.278 9.176 15.152 3.186 4.306-6.658-1.385-14.61-9.263-12.944m31.804 12.472c-1.888.76-2.198 3.452-.569 4.945 1.436 1.316 2.571 1.306 3.912-.034a2.999 2.999 0 0 0-3.343-4.911m15.071 11.41c-1.483 1.04-.323 3.683 1.615 3.683a2.696 2.696 0 0 0 2.167-2.072c0-1.596-2.365-2.603-3.782-1.611m-32.448.604a7.125 7.125 0 0 0 1.206 13.32c5.72 1.662 11.043-4.673 8.38-9.972a7.232 7.232 0 0 0-9.586-3.348m23.638 16.212c-5.767 2.686-4.11 11.159 2.192 11.218 6.738.064 8.283-9.275 1.894-11.453a4.15 4.15 0 0 0-4.086.235m53.404 2.462a3.365 3.365 0 1 0 3.29-.056 3.279 3.279 0 0 0-3.29.056m-26.198 3.672c-2.827.82-4.029 4.568-2.285 7.125a4.464 4.464 0 0 0 4.834 1.763 4.57 4.57 0 0 0 .154-8.884 3.458 3.458 0 0 0-2.703-.004"/>
		<path fill="#9dc3d6" d="M141.912 19.042c-7.132 1.724-11.376 10.64-8.252 17.336 3.367 7.213 12.304 9.918 18.507 5.6a12.718 12.718 0 0 0-10.255-22.936m8.6 1.193a12.223 12.223 0 0 1-2.938 23.039c-10.633 2.332-18.573-10.193-12.142-19.155a12.477 12.477 0 0 1 15.08-3.884m92.38 3.267a3.237 3.237 0 0 0 1.183-.006c.284-.074-.017-.132-.67-.129-.65.003-.881.064-.514.135m-51.266 1.534a8.684 8.684 0 0 0-2.343 15.086 8.527 8.527 0 0 0 12.525-2.456c4.178-6.762-2.68-15.27-10.182-12.63m5.454.503a8.07 8.07 0 0 1 5.43 7.67c0 5.762-6.012 9.898-11.083 7.625a8.156 8.156 0 0 1 5.653-15.295m-22.495 3.647a7.809 7.809 0 1 0 6.285 13.842c6.292-5.134 1.619-15.426-6.285-13.842m4.413 1.074c3.675 1.65 5.573 6.286 3.907 9.547-2.886 5.648-10.26 5.93-13.248.506-3.322-6.029 3.043-12.88 9.34-10.053m56.64.877c.004.65.065.883.135.515a3.22 3.22 0 0 0-.006-1.185c-.073-.282-.132.019-.128.67m15.392 0c.003.65.064.883.135.515a3.237 3.237 0 0 0-.006-1.185c-.074-.282-.132.019-.129.67m-39.074 3.016a2.437 2.437 0 0 0 1.036 0c.285-.074.052-.136-.517-.136s-.804.062-.519.136m-1.948 1.474a2.487 2.487 0 0 0 .024 1.976c.123.076.222-.383.222-1.018s-.01-1.156-.024-1.156a1.418 1.418 0 0 0-.223.198m32.885 3.267a3.238 3.238 0 0 0 1.184-.005c.284-.075-.017-.133-.67-.129-.65.003-.881.064-.514.134m-85.115 2.05a6.91 6.91 0 0 0-3.472 8.278c2.043 5.351 8.71 6.476 12.096 2.04 4.408-5.772-2.2-13.678-8.624-10.318m6.383.628c2.61 1.508 3.988 5.01 2.948 7.497-2.291 5.483-9.316 5.954-11.94.8-2.875-5.646 3.46-11.492 8.992-8.297m-35.9 1.258a11.515 11.515 0 0 0-8.407 16.443c4.468 8.726 16.588 8.327 20.752-.683 3.697-7.997-3.485-17.165-12.345-15.76m5.253.925c11.698 3.976 9.057 21.203-3.26 21.263-12.538.06-15.392-17.05-3.555-21.31a10.435 10.435 0 0 1 6.815.047m59.129 1.479a5.592 5.592 0 0 0-1.434.943c-4.195 3.916 1.19 10.372 5.84 7.002 4.31-3.12.54-9.918-4.406-7.945m65.343-.124a4.223 4.223 0 0 0 1.332 0c.367-.07.067-.128-.665-.128-.733 0-1.033.058-.667.128m-61.08 1.286a3.995 3.995 0 0 1-1.063 6.93 4.077 4.077 0 1 1 1.064-6.93m6.573.981a5.142 5.142 0 0 0-2 6.698 5.102 5.102 0 1 0 2-6.698m48.79.262-.87.962.962-.869a7.391 7.391 0 0 0 .962-.962c0-.229-.244-.028-1.054.87m-44.37-.11a4.636 4.636 0 1 1-3.269-.112 3.202 3.202 0 0 1 3.268.112m-27.96 1.38a3.803 3.803 0 0 0 2.584 6.78c1.973-.007 3.066-.602 3.637-1.98 1.753-4.23-2.887-7.812-6.22-4.8m4.107-.315c3.515 1.818 2.44 6.667-1.478 6.667a2.57 2.57 0 0 1-2.545-1.058c-2.671-2.83.594-7.382 4.023-5.609m43.303 1.838a2.437 2.437 0 0 0 1.036 0c.285-.074.051-.135-.519-.135s-.802.061-.517.135m-13.839 3.177a5.73 5.73 0 0 0-1.94 8.1c3.316 4.556 10.351 2.544 10.417-2.98a5.69 5.69 0 0 0-8.477-5.12m4.52.038c4.24 1.772 4.796 6.938 1.004 9.343-5.044 3.199-10.683-3.486-6.615-7.841a4.918 4.918 0 0 1 5.61-1.502m-47.45 1.84c-3.08 2.188-1.114 7.322 2.468 6.442 4.212-1.036 3.722-6.676-.579-6.664a5.694 5.694 0 0 0-1.89.222m3.77.884c1.985 2.119.887 5.106-1.876 5.106-1.587 0-1.986-.233-2.655-1.543-1.531-3.002 2.264-5.986 4.532-3.563m-25.367-.004c-4.705 1.19-5.778 7.649-1.804 10.864 2.39 1.935 7.077 1.007 8.724-1.725a6.216 6.216 0 0 0-6.92-9.14m5.02 1.382a5.508 5.508 0 0 1-3.451 10.004c-5.724 0-7.558-7.571-2.51-10.364a5.893 5.893 0 0 1 5.962.36m97.544 1.749a7.395 7.395 0 0 0 .962.962l.962.87-.87-.963c-.81-.896-1.054-1.097-1.054-.869m-17.988 2.572c0 .57.062.803.136.518a2.437 2.437 0 0 0 0-1.037c-.074-.284-.136-.05-.136.519m-69.903 4.614a2.067 2.067 0 0 0-.911 1.982 2.936 2.936 0 0 0 5.812.602c.637-2.535-2.804-4.349-4.901-2.584m3.764.379a2.487 2.487 0 0 1-2.464 4.06 3.594 3.594 0 0 1-1.914-2.576c-.004-1.849 3.22-2.942 4.378-1.484m-45.682 3.845a10.019 10.019 0 0 0-4.258 16.452c4.337 4.94 13.33 3.78 16.354-2.11 4.166-8.111-3.55-17.26-12.096-14.342m5.284.214c12.113 3.14 8.483 20.734-3.87 18.76-9.992-1.596-10.612-15.858-.812-18.657 2.294-.655 2.532-.66 4.682-.103m17.698 4.642a5.295 5.295 0 0 0 .226 9.568 5.172 5.172 0 0 0 6.882-6.736c-1.316-3.036-4.34-4.24-7.108-2.832m4.529.593a4.658 4.658 0 0 1-2.192 8.8 4.351 4.351 0 0 1-4.656-3.926c-.458-4.072 3.42-6.833 6.848-4.874m12.476 2.567a2.989 2.989 0 0 0-.1 3.17 2.19 2.19 0 0 0 3.785-1.626 2.15 2.15 0 0 0-3.685-1.544m2.796.314a1.654 1.654 0 0 1-1 2.96c-1.911 0-2.705-2.349-1.072-3.17 1.019-.514 1.386-.476 2.072.21m89.183 1.036c.002.814.06 1.112.128.662a5.302 5.302 0 0 0-.004-1.48c-.07-.364-.126.004-.124.818m-6.824.148c0 .57.06.803.135.518a2.433 2.433 0 0 0 0-1.036c-.074-.284-.135-.052-.135.518m-24.638 8.7a2.51 2.51 0 0 0 1.016.234c.558.065.95.013.87-.116-.143-.231-1.886-.34-1.886-.118m-57.425 1.747c-1.862.942-.306 3.7 1.598 2.834a1.523 1.523 0 0 0 .01-2.876c-.894-.407-.71-.412-1.608.042m1.5.516a1.113 1.113 0 0 1-.625 2.062c-1.045 0-1.59-1.062-.9-1.753.712-.71.758-.719 1.524-.31m59.548.879c0 .57.06.802.135.517a2.434 2.434 0 0 0 0-1.035c-.075-.285-.135-.052-.135.518m11.553.212a5.273 5.273 0 0 0 1.48-.004c.364-.07-.004-.126-.818-.124s-1.112.06-.662.128m-88.451 2.26a4.374 4.374 0 1 0 5.51 1.851 4.515 4.515 0 0 0-5.51-1.851m3.732.693a4.43 4.43 0 0 1 1.948 3.97 3.972 3.972 0 0 1-7.21 1.474c-2.257-3.35 1.764-7.51 5.262-5.444m105.287-.292a4.223 4.223 0 0 0 1.332 0c.366-.071.067-.13-.665-.13-.733 0-1.033.059-.667.13m-7.488 3.416-1.17 1.259 1.258-1.17c1.17-1.089 1.394-1.346 1.17-1.346a13.25 13.25 0 0 0-1.258 1.257m15.999-.073a8.255 8.255 0 0 0 1.304 1.184 5.146 5.146 0 0 0-1.008-1.184 8.295 8.295 0 0 0-1.304-1.184 5.145 5.145 0 0 0 1.008 1.184m-34.713 0c0 .57.062.802.136.518a2.437 2.437 0 0 0 0-1.037c-.074-.285-.136-.051-.136.519m-103.846-.176c-7.377 1.79-9.137 11.788-2.792 15.86a8.545 8.545 0 0 0 9.772.154c8.423-5.426 2.776-18.383-6.98-16.014m6.301 1.261a8.365 8.365 0 0 1-2.374 15.48c-8.848 1.837-13.951-9.792-6.604-15.048a8.858 8.858 0 0 1 8.978-.432m43.969 2.466c0 .57.06.804.134.519a2.412 2.412 0 0 0 0-1.036c-.074-.285-.134-.052-.134.517m27.534 2.869a2.434 2.434 0 0 0 1.035 0c.285-.075.052-.136-.518-.136s-.802.061-.517.136m-38.26.48a7.447 7.447 0 0 0 .962.963l.962.869-.869-.962c-.81-.897-1.055-1.098-1.055-.87m48.841.204c-1.024.216-1.026.218-.147.252a2.8 2.8 0 0 0 1.332-.252c.492-.319.329-.319-1.185 0m10.879 1.393a4.223 4.223 0 0 0 1.332 0c.366-.07.066-.129-.667-.129-.732 0-1.031.058-.665.129m-67.9 3.895c-2.203 1.38-2.592 3.831-.877 5.546a3.486 3.486 0 0 0 5.702-3.807 3.391 3.391 0 0 0-4.825-1.739m3.105.461a2.937 2.937 0 0 1 .517 4.789c-1.34 1.34-2.476 1.35-3.912.034a2.957 2.957 0 0 1 3.395-4.823m46.29.475c-.532.484-.857.88-.722.88a3.592 3.592 0 0 0 1.096-.888c1.088-1.136.878-1.13-.375.008m49.143 6.42a6.576 6.576 0 0 0 1.627 0c.448-.068.082-.123-.813-.123s-1.263.055-.814.123m-83.177 3.7c-1.473.711-1.448 3.497.038 4.404a2.255 2.255 0 0 0 3.12-.202c2.492-2.098-.172-5.642-3.158-4.202m-32.784.871c-7.119 3.686-4.61 14.458 3.367 14.458 8.079 0 10.621-10.683 3.445-14.474a9.236 9.236 0 0 0-6.812.016m35.83.088c1.908 1.907-.792 4.489-2.933 2.804a1.807 1.807 0 0 1-.78-1.611c0-1.853 2.31-2.595 3.713-1.194m-29.53.304c3.209 1.686 4.327 3.518 4.16 6.814a7.064 7.064 0 0 1-13.44 2.775c-3-5.923 3.491-12.631 9.28-9.59m37.429 4.596c0 .57.061.802.136.517a2.437 2.437 0 0 0 0-1.036c-.075-.285-.136-.051-.136.519m45.013 1.48c0 .895.056 1.26.123.813a6.508 6.508 0 0 0 0-1.628c-.067-.447-.123-.081-.123.814m-43.305 3.645a7.447 7.447 0 0 0 .962.962l.962.87-.87-.962c-.81-.897-1.054-1.099-1.054-.87m-21.904 6.112c-4.441 2.372-4.935 7.637-1.018 10.847 4.708 3.857 11.79-1.158 9.838-6.967-1.218-3.625-5.65-5.575-8.82-3.88m4.517.181c6.39 2.178 4.844 11.516-1.894 11.453-6.303-.06-7.959-8.532-2.192-11.218a4.15 4.15 0 0 1 4.086-.235m48.858 2.46a3.634 3.634 0 0 0-.801 5.644c2.837 3.373 8.433-.222 6.418-4.123-1.202-2.328-3.604-2.978-5.617-1.52m3.75.18a3.069 3.069 0 0 1 1.78 3.023 3.361 3.361 0 1 1-1.78-3.023m-30.07 3.512a5.05 5.05 0 0 0 .299 9.414c4.655 1.83 8.992-3.835 5.883-7.682-1.822-2.255-3.865-2.827-6.183-1.732m3.286.22a4.557 4.557 0 0 1 1.832 7.913 4.673 4.673 0 1 1-3.312-8.21 7.834 7.834 0 0 1 1.48.296m-47.267 39.857c3.633.048 9.494.047 13.024 0 3.53-.047.557-.085-6.606-.085-7.164 0-10.052.039-6.418.085m108.238 25.087c0 13.839.036 19.456.08 12.485.045-6.972.045-18.295 0-25.161-.044-6.866-.08-1.162-.08 12.676m-81.402.296c0 13.676.036 19.227.08 12.337.045-6.891.045-18.08 0-24.865s-.08-1.147-.08 12.528m76.37 0c0 13.676.036 19.227.08 12.337.045-6.891.045-18.08 0-24.865s-.08-1.147-.08 12.528m-110.707.444c0 13.431.036 18.926.08 12.21s.045-17.704 0-24.42-.08-1.22-.08 12.21m5.088-20.523c-.792.792-.103 17.563.722 17.563.169 0 .094-.213-.167-.473-.416-.417-.464-1.495-.391-8.881.045-4.623.072-8.406.058-8.406a1.417 1.417 0 0 0-.222.197m58.782 8.01a12.8 12.8 0 0 0 2.22 0c.61-.063.111-.115-1.11-.115s-1.72.052-1.11.115m24.681.61c-.08.13.345.19.944.132 1.831-.173 2.047-.294.59-.33a3.103 3.103 0 0 0-1.534.199m11.148-.014c1.106.057 2.838.057 3.849-.001 1.01-.058.106-.105-2.01-.104s-2.944.048-1.839.105m6.03.372a8.257 8.257 0 0 1 .424 1.924l.185 1.48.041-1.35a3.136 3.136 0 0 0-.424-1.923c-.256-.316-.358-.375-.227-.13m-41.998 3.472a14.799 14.799 0 0 0 2.368-.002c.606-.063.037-.114-1.266-.114-1.302.002-1.798.054-1.102.116m-13.27 1.19-1.02 1.11 1.11-1.02c1.033-.95 1.246-1.201 1.02-1.201a10.097 10.097 0 0 0-1.11 1.11m38.053-.342c1.386.223 3.337.251 3.21.046a5.068 5.068 0 0 0-1.97-.181c-1.007.022-1.566.083-1.24.135m10.878.044c1.1.057 2.898.057 3.996 0 1.099-.057.2-.104-1.998-.104s-3.097.047-1.998.104m-88.045 8.882c2.33.05 6.06.05 8.29 0 2.228-.05.322-.092-4.237-.092-4.559.001-6.382.042-4.053.092m-6.258.272c-.516.516-.211 18.071.321 18.489.461.362.476.353.14-.079-.293-.374-.36-2.536-.297-9.546.046-4.984.072-9.061.058-9.061a1.417 1.417 0 0 0-.222.197m44.865 3.355c0 .57.06.802.135.518a2.437 2.437 0 0 0 0-1.037c-.075-.285-.135-.051-.135.519m-5.013 1.48c0 .895.056 1.261.124.814a6.51 6.51 0 0 0 0-1.629c-.068-.447-.124-.08-.124.815m34.92 0c0 .733.06 1.032.13.666a4.226 4.226 0 0 0 0-1.333c-.07-.366-.13-.066-.13.667m-29.907 1.776c0 .57.06.802.135.517a2.433 2.433 0 0 0 0-1.035c-.075-.285-.135-.052-.135.518m42.068 4.44c0 1.384.05 1.95.112 1.258a16.832 16.832 0 0 0 0-2.517c-.062-.691-.112-.125-.112 1.259m4.717.74c.001.814.06 1.112.127.661a5.273 5.273 0 0 0-.004-1.48c-.07-.363-.125.004-.123.819m-17.707 7.03-1.767 1.85 1.85-1.767c1.018-.971 1.85-1.804 1.85-1.85 0-.218-.291.048-1.933 1.767m-67.406.148c3.134.047 8.262.047 11.396 0 3.134-.048.57-.087-5.698-.087-6.268 0-8.832.039-5.698.087m95.161 2.442c0 .57.06.803.136.518a2.437 2.437 0 0 0 0-1.036c-.075-.285-.136-.051-.136.518m-98.989 2.294c3.797.047 9.924.047 13.617 0 3.692-.047.586-.085-6.903-.085s-10.51.038-6.714.085m93.966.582a5.273 5.273 0 0 0 1.48-.003c.364-.07-.004-.127-.818-.125s-1.111.06-.662.128"/>
		<path fill="#7c94b1" d="M191.716 6.676a4.807 4.807 0 1 0 6.189 1.049c-1.86-2.119-3.945-2.472-6.19-1.049m4.153-.123c4.376 2.263 3.167 8.748-1.633 8.748a4.559 4.559 0 0 1-4.412-5.245c.43-2.867 3.657-4.738 6.045-3.503m22.44 3.694a6.014 6.014 0 0 0-3.763 5.812c0 6.111 7.809 8.27 11.26 3.113 3.165-4.727-2.371-11.317-7.497-8.925m3.849.198c6.33 2.11 5.093 11.224-1.522 11.218-6.488-.006-7.995-8.665-1.936-11.121 1.652-.67 1.734-.672 3.458-.097m-56.24 2.422a3.921 3.921 0 0 0-1.679 3.976 3.68 3.68 0 0 0 6.172 1.555c2.685-3.058-1.054-7.663-4.493-5.531m3.234.253a3.336 3.336 0 0 1 .263 5.802 4.03 4.03 0 0 1-3.865-.55 3.22 3.22 0 0 1 3.602-5.252m72.967 10.794c-4.136.79-6.965 5.095-5.854 8.909 2.43 8.349 14.472 6.989 14.467-1.634a7.252 7.252 0 0 0-8.613-7.275m5.18 1.368c5.317 3.321 3.442 11.907-2.768 12.683-4.52.565-7.932-2.372-7.932-6.828a6.91 6.91 0 0 1 10.7-5.855M210.94 35.14c-.724.725-.857 1.05-.695 1.702.573 2.307 3.247 2.966 4.256 1.049 1.349-2.562-1.528-4.783-3.56-2.75m2.878.126c1.822 1.823-.305 4.407-2.32 2.821a1.748 1.748 0 0 1-.022-2.933c1.011-.795 1.455-.774 2.342.112m12.715 8.609a2.961 2.961 0 0 0-1.924 2.916c0 3.715 5.081 4.655 6.236 1.155a3.196 3.196 0 0 0-4.313-4.071m3.383.857c2.085 1.888-.307 5.778-2.98 4.846a2.81 2.81 0 0 1 1.104-5.49 4.102 4.102 0 0 1 1.876.644m26.927.765c-6.5 1.098-9.046 10.043-4.175 14.667a8.735 8.735 0 0 0 9.683 1.553 8.635 8.635 0 0 0-5.508-16.22m5.296 1.005c9.023 4.61 3.66 18.477-5.9 15.256-8.95-3.015-7.053-15.898 2.347-15.956a6.462 6.462 0 0 1 3.553.7m-26.745 12.385a4.115 4.115 0 0 0-.039 6.18c3.173 2.897 7.812-.418 6.433-4.598a4.044 4.044 0 0 0-6.394-1.582m4.641-.05a3.698 3.698 0 0 1-.754 6.644c-3.968 1.515-6.717-3.687-3.464-6.554a3.676 3.676 0 0 1 4.218-.091m-17.96 8.877c-.505.56-.515.68-.11 1.404.797 1.42 2.349 1.08 2.349-.513 0-1.494-1.245-1.99-2.239-.891m1.795.868c0 .874-1.214 1.246-1.513.465-.295-.768.118-1.403.846-1.3.488.07.667.293.667.835m37 2.385a9.847 9.847 0 1 0 12.397 12.288c2.457-7.463-4.872-14.728-12.397-12.288m5.593.313c9.472 2.82 8.97 16.39-.68 18.289-11.82 2.326-16.068-14.709-4.567-18.319 2.272-.714 2.759-.71 5.247.03m-26.458 4.272c-5.202 2.324-3.907 9.606 1.708 9.606 6.337 0 6.788-9.027.496-9.905a4.134 4.134 0 0 0-2.204.299m4.173.825a4.539 4.539 0 0 1-2.773 8.419c-4.672-.328-5.957-6.844-1.702-8.633 1.92-.807 2.994-.756 4.475.214m-20.16 2.565a1.93 1.93 0 1 0 3.255 1.303 1.89 1.89 0 0 0-3.256-1.303m2.303.165a1.573 1.573 0 0 1-.918 2.795 1.523 1.523 0 0 1-1.088-2.664c.712-.712 1.137-.74 2.006-.131m-4.377 10.716c-2.018 1.006-1.863 3.542.285 4.652 2.354 1.218 4.589-1.999 2.752-3.961-1.077-1.15-1.791-1.313-3.037-.691m2.788.982c.98 1.164.966 1.748-.063 2.734-1.5 1.437-4.233.133-3.776-1.802a2.133 2.133 0 0 1 3.84-.932m10.978 2.357c-3.961 2.156-4.71 6.747-1.579 9.669a5.823 5.823 0 0 0 9.705-4.352c-.006-4.134-4.68-7.192-8.126-5.317m4.933.61c4.21 2.13 3.53 8.572-1.042 9.88a5.387 5.387 0 0 1-4.778-9.487 4.962 4.962 0 0 1 5.82-.393m14.749 2.168c-5.195 1.435-8.745 7.282-7.739 12.745 2.073 11.247 18.394 12.232 21.661 1.306a11.209 11.209 0 0 0-13.922-14.051m5.686.203c9.84 2.065 11.395 16.07 2.25 20.265-7.46 3.422-15.187-1.56-15.185-9.79.002-7.29 5.787-11.974 12.935-10.475m-90.798 1.1a5.446 5.446 0 0 0-1.81 8.663c3.944 3.932 9.925.952 9.295-4.632a5.4 5.4 0 0 0-7.485-4.031m4.9.717c3.707 2.524 2.794 8.175-1.477 9.135a5.02 5.02 0 0 1-3.707-9.247 5.668 5.668 0 0 1 5.183.112m39.115 1.858a3.114 3.114 0 0 0 3.361 5.202 2.909 2.909 0 0 0 1.628-1.364 3.23 3.23 0 0 0-4.989-3.838m3.51.042c3.279 1.936.448 6.472-2.962 4.748a2.778 2.778 0 0 1-.084-4.715 2.67 2.67 0 0 1 3.046-.033m-35.672 4.165c-5.282.943-5.936 8.374-.842 9.571 4.577 1.077 7.828-3.369 5.377-7.355a5.324 5.324 0 0 0-4.535-2.216m2.579.924a4.878 4.878 0 0 1 2.405 4.063 4.452 4.452 0 0 1-7.225 3.464c-4.203-3.537-.352-9.553 4.82-7.527m20.2.458c-3.943 1.717-3.033 7.132 1.199 7.132 1.554 0 1.745-.078 2.686-1.106 2.697-2.943-.298-7.588-3.885-6.026m3.545 1.173a3.123 3.123 0 0 1 .608 4.045 3.347 3.347 0 1 1-.608-4.045m-15.987.753c-3.196 1.376-3.212 6.067-.026 7.784 4.103 2.21 8.21-3.167 5.136-6.724a5.04 5.04 0 0 0-5.11-1.06m33.177.026a6.82 6.82 0 0 0-3.859 9.156c3.277 6.465 12.892 4.21 12.535-2.94a6.56 6.56 0 0 0-8.676-6.216m-28.663.987a3.96 3.96 0 0 1-1.703 6.752c-2.93.877-5.982-2.628-4.605-5.29 1.355-2.622 4.298-3.304 6.308-1.462m34.305.103a6.443 6.443 0 0 1 2.175 8.084c-1.537 3.571-6.786 4.56-9.792 1.844-5.721-5.167 1.082-14.034 7.617-9.928m-21.101 8.28a8.647 8.647 0 0 0-4.599 4.43c-2.687 7.495 6.437 13.588 12.191 8.142 5.784-5.473-.105-15.224-7.592-12.573m4.718.396a6.81 6.81 0 0 1 4.662 5.274c1.784 9.409-11.721 12.166-13.886 2.836a7.042 7.042 0 0 1 9.224-8.11m25.542.265a12.446 12.446 0 0 0-2.265 23.333c8.989 4.353 19.107-3.375 17.51-13.373a12.64 12.64 0 0 0-15.245-9.96m7.863 1.024a12.144 12.144 0 0 1 3.595 19.616c-8.71 8.64-23.177.177-20.065-11.737a12.198 12.198 0 0 1 16.47-7.879m-56.334 1.089c-2.688.678-5.49 3.74-5.712 6.245-.106 1.19-.097 1.21.113.26 2.277-10.312 17.747-7.085 15.708 3.277-1.734 8.82-13.97 8.121-15.914-.908l-.287-1.333.156 1.628c.7 7.289 10.722 9.894 15.01 3.902a8.443 8.443 0 0 0-9.074-13.071m-15.023 65.024c-1.2.429-1.185.103-1.185 26.433 0 19.315.085 25.425.356 25.696.49.49 1.869.444 2.916-.096l.873-.452v-25.538c0-19.468-.084-25.623-.356-25.893a3.441 3.441 0 0 0-2.604-.15m76.37 0c-1.2.429-1.185.103-1.185 26.433 0 19.315.085 25.425.356 25.696 1.005 1.005 3.666-.005 3.937-1.496.434-2.386.013-50.26-.445-50.549a4.253 4.253 0 0 0-2.664-.084m-74.036.493c.244.294.314 7.25.258 25.678l-.075 25.277-1.254.434c-1.01.35-1.327.36-1.629.059-.501-.503-.707-49.766-.211-50.693.55-1.027 2.307-1.482 2.911-.755m76.346-.047c.27.27.354 6.365.354 25.62v25.264l-1.026.43c-2.71 1.131-2.525 2.986-2.525-25.359V186.07l.726-.727a1.817 1.817 0 0 1 2.47-.371m-113.681.852c-.6.35-.827 50.072-.231 50.44.478.296 27.623.186 27.923-.113a4.673 4.673 0 0 0 .208-3.43c-.318-.384-1.978-.448-11.804-.451-6.68-.004-11.62-.121-11.878-.285-.562-.356-.839-17.642-.298-18.652.309-.578.602-.595 9.652-.595 10.659 0 10.478.035 10.478-2.073 0-2.105.165-2.072-10.304-2.072-8.155 0-9.204-.053-9.566-.488-.625-.752-.758-16.584-.147-17.42.415-.57.864-.598 11.599-.74 12.687-.168 12.074-.033 11.382-2.503-.28-1.002-.591-1.47-1.104-1.666-1.003-.38-25.25-.336-25.91.048m25.456.291c1.237.431 1.831 2.954.79 3.354-.258.099-5.223.18-11.034.18-9.085 0-10.659.065-11.225.46-.895.628-1.048 17.266-.167 18.24.454.501 1.15.54 9.64.54 10.326 0 10.294-.005 10.294 1.903 0 1.723.45 1.65-10.108 1.65-5.756 0-9.384.113-9.744.306-.8.428-.9 18.564-.107 19.357.406.406 1.877.466 11.618.47 12.852.004 12.486-.039 12.486 1.453 0 2.233.872 2.11-14.357 2.024l-13.616-.078-.077-24.717c-.071-22.974-.041-24.742.427-25.086.658-.485 23.804-.536 25.18-.056m67.448 3.668c-1.627 1-1.65 1.075-1.655 5.261-.005 4.018-.44 5.052-1.893 4.494-1.369-.525-3.421 1.696-3.025 3.273.199.792.916 1.037 3.057 1.042 1.982.005 1.825-1.026 1.951 12.88.113 12.523.212 13.383 1.895 16.49 2.618 4.834 12.995 5.564 12.235.862l-.173-1.071-3.176-.162c-6.302-.324-6.73-1.474-6.732-18.057 0-7.56.093-10.32.355-10.583.24-.24 1.612-.355 4.236-.355 4.658 0 5.03-.164 5.03-2.22 0-2.047-.383-2.22-4.92-2.22-4.953 0-4.7.283-4.7-5.29 0-5.4-.2-5.748-2.485-4.344m2.135 4.762c.119 5.752-.16 5.464 5.306 5.464 4.382 0 4.8.222 4.255 2.266l-.225.842-4.154.148c-2.9.103-4.3.271-4.641.554-.797.664-.718 21.76.093 24.881.923 3.555 3.27 4.996 7.427 4.561 1.89-.197 2.385.33 1.947 2.07-.501 2-6.456 1.84-9.625-.258-3.162-2.092-3.882-5.816-3.882-20.064 0-12.4.18-11.648-2.817-11.8-3.025-.156-2.462-3.2.592-3.2 2 0 2.225-.516 2.225-5.097v-3.782l1.405-.875c1.91-1.188 1.983-1.036 2.094 4.29m-34.876 4.541c-14.43 2.424-20.775 20.095-11.346 31.602 2.615 3.191 8.883 6.69 11.79 6.582.607-.022.701-.076.296-.17-11.908-2.766-18.184-12.29-15.582-23.65 3.52-15.364 25.019-19.494 34.292-6.587 8.373 11.654 2.094 26.85-12.494 30.237-.481.112-.453.143.149.168 5.841.24 13.8-6.875 15.665-14.004 3.686-14.09-8.131-26.637-22.77-24.178m1.332 3.57a15.72 15.72 0 0 0-12.936 13.092 15.562 15.562 0 0 0 27.138 12.606c9.673-10.688.178-27.87-14.202-25.697m7.302.978c10.798 3.484 13.89 17.595 5.607 25.59-8.742 8.437-23.783 3.241-25.49-8.805a15.283 15.283 0 0 1 19.883-16.785"/>
		<path fill="#849cb4" d="m191.712 6.437-.7.61.889-.52c1.169-.684 1.186-.698.822-.698a2.528 2.528 0 0 0-1.011.608m4.333-.265a11.613 11.613 0 0 1 1.493 1.101c.502.432.408.283-.21-.335a4.18 4.18 0 0 0-1.493-1.101c-.21.005-.116.156.21.335m22.053 3.948c-.408.233-.607.424-.445.424a3.269 3.269 0 0 0 1.037-.424c.406-.232.606-.423.443-.423a3.278 3.278 0 0 0-1.035.423m3.848-.231c.244.09.81.35 1.257.576.448.226.814.344.814.262a4.508 4.508 0 0 0-2.13-1.027c-.26.016-.24.078.059.189m-32.789.972c0 .57.062.802.136.517a2.437 2.437 0 0 0 0-1.036c-.074-.285-.136-.051-.136.519m26.998.665-.87.962.962-.87a7.34 7.34 0 0 0 .962-.961c0-.228-.244-.028-1.054.87m8.746.076c1.18 1.42 1.279 1.511.956.882a4.795 4.795 0 0 0-.998-1.182c-.67-.566-.668-.555.042.3m-57.643.646a2.437 2.437 0 0 0 1.037 0c.284-.075.05-.136-.519-.136s-.803.061-.518.136m3.056 1.303c.477.585.926 1.014.999.953.074-.061-.317-.54-.866-1.064l-1-.953.867 1.064m28.101-.33a4.438 4.438 0 0 1-1.404 1.503c-.662.48-1.096.871-.964.871.779 0 3.113-2.459 2.713-2.859-.08-.08-.235.139-.345.486m-34.064 1.032a1.753 1.753 0 0 0-.377.997c.057.147.319-.183.583-.73.565-1.174.47-1.298-.206-.267m62.42 1.638c0 .895.055 1.261.123.814a6.508 6.508 0 0 0 0-1.628c-.068-.448-.124-.082-.124.814m-12.436.148c.002.814.06 1.112.128.661a5.302 5.302 0 0 0-.004-1.48c-.07-.364-.126.004-.124.819m-42.937-.148c0 .57.06.802.135.518a2.413 2.413 0 0 0 0-1.037c-.074-.285-.135-.051-.135.519m22.058-.088a4.223 4.223 0 0 0 1.332 0c.366-.07.067-.128-.666-.128-.733 0-1.032.058-.666.128m-28.278 2.91c.443.465.858.787.923.714s-.297-.454-.805-.847l-.923-.715.805.847m49.368-.536a2.52 2.52 0 0 0 .61 1.012l.61.699-.52-.888c-.685-1.169-.7-1.187-.7-.823m-47.435 1.475a4.222 4.222 0 0 0 1.332 0c.366-.07.067-.128-.666-.128-.732 0-1.032.058-.666.128m72.259 5.137-.699.61.888-.52c1.169-.685 1.186-.7.823-.7a2.52 2.52 0 0 0-1.012.61m9.643 1.56a5.558 5.558 0 0 0 .962 1.087c.205 0-1.076-1.732-1.456-1.966-.184-.114.038.281.494.879m-12.553 7.805a2.306 2.306 0 0 0 .657 1.05c.366.383.518.49.337.239s-.476-.726-.657-1.051c-.18-.326-.332-.433-.337-.238m-21.617 2.477a3.492 3.492 0 0 1-.313 1.259c-.302.624-.297.626.148.072.425-.531.652-1.942.313-1.942-.082 0-.148.275-.148.611m24.527.851a2.52 2.52 0 0 0 1.011.61c.364 0 .347-.015-.822-.7l-.888-.52.699.61m3.228 1.12a7.897 7.897 0 0 0 1.776-.002c.445-.068.01-.122-.967-.12-.977.002-1.34.057-.809.123m-18.209 8.221c.003.651.064.883.135.515a3.22 3.22 0 0 0-.006-1.184c-.074-.283-.132.018-.129.67m38.85-.258c.164.142.83.725 1.48 1.294l1.184 1.035-.888-.987a7.254 7.254 0 0 0-1.48-1.295c-.325-.168-.459-.19-.295-.047m-10.82 1.22-1.02 1.109 1.109-1.02c1.033-.95 1.246-1.2 1.02-1.2a10.084 10.084 0 0 0-1.11 1.11m-2.563 6.143c.002.813.06 1.111.128.662a5.306 5.306 0 0 0-.004-1.481c-.07-.364-.126.005-.124.819m17.464 0c.003.813.06 1.111.128.662a5.277 5.277 0 0 0-.004-1.481c-.07-.364-.126.005-.124.819m-30.055 3.908a4.222 4.222 0 0 0 1.332 0c.366-.07.067-.128-.666-.128-.733 0-1.032.058-.666.128m-2.164 1.05-.87.962 1.034-.888c.57-.489 1.09-.921 1.16-.962.069-.041-.006-.074-.166-.074a3.444 3.444 0 0 0-1.158.962m6.048 5.746a6.315 6.315 0 0 1-1.294 1.034c-.488.299-.72.544-.514.545.372 0 2.755-2.048 2.4-2.064-.102-.003-.368.214-.592.485m-19.083 2.838c-.558.66-.558.662.028.186a4.725 4.725 0 0 1 1.037-.642c.377-.14.372-.167-.029-.187a1.694 1.694 0 0 0-1.036.643m1.879-.075a2.082 2.082 0 0 1 0 2.37c-.315.352-.293.356.148.023a1.668 1.668 0 0 0 0-2.416c-.44-.333-.463-.33-.148.023m34.263 4.615-.888.762 1.035-.667c1.33-.858 1.333-.861 1.012-.86a3.675 3.675 0 0 0-1.16.765m14.25 3.526c.684 1.169.699 1.186.699.823a2.52 2.52 0 0 0-.61-1.012l-.61-.699.52.888m-32.915.016c-.565.453-.564.457.018.188.325-.15.792-.346 1.036-.437.384-.142.38-.168-.017-.188a1.931 1.931 0 0 0-1.037.437m14.958.74a1.557 1.557 0 0 0-.228.901c.053.161.25-.113.437-.609.39-1.03.273-1.192-.21-.291m-30.01 2.012c-.085.14.173.19.575.114a2.594 2.594 0 0 1 1.545.356l.815.496-.7-.61c-.71-.619-1.95-.817-2.234-.356m49.343 1.967c.003.814.06 1.112.128.662a5.273 5.273 0 0 0-.004-1.48c-.07-.364-.126.004-.124.818m-37.306 0c.003.651.063.883.134.514a3.234 3.234 0 0 0-.006-1.183c-.074-.283-.132.018-.128.67m-12.684 1.553a1.701 1.701 0 0 0 1.036.643c.401-.02.406-.048.029-.187a4.695 4.695 0 0 1-1.036-.643c-.587-.475-.588-.474-.029.187m2.976-.201a2.063 2.063 0 0 1-.832.573c-.434.175-.486.263-.163.276a1.662 1.662 0 0 0 1.008-.574c.294-.326.456-.592.36-.592s-.265.142-.373.317m46.397 1.667c-.438 1.427-.226 1.639.237.236a2.725 2.725 0 0 0 .227-1.204c-.07-.07-.28.366-.464.968m-27.588.088c-.347.488-.566.888-.484.888a3.38 3.38 0 0 0 .78-.888c.348-.488.566-.888.485-.888a3.375 3.375 0 0 0-.78.888m-4.515 1.985a4.223 4.223 0 0 0 1.332 0c.367-.07.067-.128-.666-.128-.733 0-1.032.058-.666.128m28.237 3.053c-1.755 1.153-1.94 1.42-.395.569a7.908 7.908 0 0 0 1.59-1.083c.434-.523.287-.46-1.195.514m-44.418 1.953c.393.508.775.87.847.806.073-.065-.249-.48-.714-.924l-.847-.805.714.923m-4.457 2.677c-.01.416 1.672 1.877 2.16 1.876.192-.001-.073-.259-.588-.573a4.312 4.312 0 0 1-1.25-1.109c-.172-.295-.316-.383-.322-.194m4.457.806-.714.923.847-.805c.465-.443.787-.859.714-.923-.072-.065-.454.297-.847.805m31.423 1.612c-.205.13.46.187 1.48.126 2.686-.159 3.026-.298.817-.333a7.437 7.437 0 0 0-2.297.207m-12.897.79a9.551 9.551 0 0 1 .242 2.415c.002 1.002.101 1.668.22 1.48a5.756 5.756 0 0 0-.248-3.747c-.25-.407-.346-.473-.214-.148m7.042 2.59-1.469 1.555 1.554-1.47c1.445-1.364 1.69-1.638 1.47-1.638a20.676 20.676 0 0 0-1.555 1.554m-82.276-.373c-.466.486-.79.932-.721.99.07.057.505-.34.97-.885 1.046-1.23.891-1.296-.249-.105m8.133-.144c1.179 1.42 1.278 1.512.956.884a4.8 4.8 0 0 0-.998-1.182c-.669-.566-.667-.556.042.298m37.824 1.365-.967.921.985-.774a3.052 3.052 0 0 1 4.373.233c.554.553 1.006.9 1.006.77 0-1.79-3.863-2.613-5.397-1.15m53.716.77a5.551 5.551 0 0 0 1.075 1.388 7.053 7.053 0 0 0-1.596-2.495c-.245-.203-.01.296.521 1.108m-35.578-.125a5.327 5.327 0 0 0 1.662 2.574l.842.74-.779-.888a11.127 11.127 0 0 1-1.246-1.774c-.257-.489-.472-.782-.48-.652m-54.392 1.836c.002.814.06 1.111.128.662a5.271 5.271 0 0 0-.004-1.48c-.07-.365-.126.004-.124.818m35.164 1.053a1.927 1.927 0 0 0 .437 1.036c.453.566.456.566.188-.017-.15-.326-.347-.792-.437-1.037-.143-.383-.168-.38-.188.018m24.99 1.167-1.185.212 1.036.037a3.24 3.24 0 0 0 1.48-.25c.484-.312.416-.312-1.332 0m-23.402.724a1.929 1.929 0 0 0 1.036.438c.399-.021.401-.046.017-.189a18.38 18.38 0 0 1-1.036-.436c-.582-.268-.583-.265-.017.187m-10.879.83c-.534.53-.633.67-.217.314a6.503 6.503 0 0 1 1.493-.944c.524-.208.588-.3.218-.312a3.124 3.124 0 0 0-1.494.943m66.193.666c.002.976.058 1.34.123.809a7.896 7.896 0 0 0-.003-1.776c-.067-.445-.121-.01-.12.967m-93.797-.37-.869.962.962-.87a7.446 7.446 0 0 0 .962-.961c0-.23-.244-.028-1.055.869m70.982.518c0 .57.06.802.136.517a2.434 2.434 0 0 0 0-1.035c-.076-.285-.136-.052-.136.518m-53.276.203a2.41 2.41 0 0 0 1.036 0c.285-.074.052-.134-.518-.134s-.803.06-.518.134m3.474 1.131c1.178 1.42 1.277 1.511.955.882a4.808 4.808 0 0 0-.998-1.182c-.669-.566-.667-.555.043.3m33.749-.353a5.605 5.605 0 0 0 1.086.961c.598.457.993.678.88.493-.235-.379-1.966-1.66-1.966-1.454m-28.97 1.317a2.406 2.406 0 0 0 .923 2.234c.544.549.646.609.235.138a4.608 4.608 0 0 1-.922-2.234l-.196-1.4-.04 1.262m7.732-.078c.003.651.063.882.135.514a3.233 3.233 0 0 0-.006-1.183c-.075-.284-.132.017-.13.67m-11.237 2.367c.002.814.06 1.112.127.662a5.307 5.307 0 0 0-.003-1.48c-.07-.364-.127.004-.124.818m10.149.12-.867 1.064 1-.952c.55-.524.939-1.004.866-1.065-.073-.061-.523.368-1 .953m25.676 2.248c.001.977.057 1.341.122.809a7.896 7.896 0 0 0-.003-1.776c-.067-.445-.121-.01-.12.967m-13.633 0c.004.65.064.883.134.515a3.238 3.238 0 0 0-.005-1.185c-.074-.282-.132.019-.129.67m-22.973.053a6.29 6.29 0 0 1-1.48 1.302c-.512.312-.758.567-.548.568.445 0 2.94-2.254 2.724-2.463-.08-.078-.394.188-.696.593m-6.11 1.113c0 .366 1.834 1.05 2.723 1.017.945-.035.938-.044-.207-.238a7.31 7.31 0 0 1-1.85-.566c-.367-.2-.666-.296-.666-.213m60.09.891a2.554 2.554 0 0 0 .887.607c.489.253.889.393.889.311a2.55 2.55 0 0 0-.889-.607c-.488-.253-.888-.393-.888-.31m12.284.598c-.65.401-1.091.734-.979.74a8.61 8.61 0 0 0 2.312-1.353c0-.193-.092-.15-1.333.613m-42.475.368a7.21 7.21 0 0 0 2.481 2.784c.344.17.178-.057-.37-.503a8.314 8.314 0 0 1-1.552-1.726c-.307-.503-.559-.753-.56-.555m20.935.298a11.058 11.058 0 0 0 2.072.002c.615-.064.185-.117-.955-.119s-1.642.052-1.117.117m-24.5 1.71c.713.814 1.359 1.547 1.435 1.628s-.002-.118-.174-.444a8.83 8.83 0 0 0-1.436-1.627c-1.069-.985-1.06-.963.174.443m-11.25.074-1.021 1.11 1.11-1.02c1.033-.949 1.246-1.2 1.02-1.2a10.159 10.159 0 0 0-1.11 1.11m50.553-.897a11.055 11.055 0 0 0 2.072.004c.614-.065.184-.118-.956-.12-1.139 0-1.642.051-1.116.116m-63.632 1.18a3.237 3.237 0 0 0 1.184-.005c.283-.075-.018-.132-.669-.13-.652.004-.883.065-.515.136m58.384 1.418a6.434 6.434 0 0 0 1.153 1.037c.081 0-.304-.467-.857-1.037a6.434 6.434 0 0 0-1.152-1.036c-.081 0 .304.466.856 1.036m-17.927.222-.87.962.963-.869a7.392 7.392 0 0 0 .962-.962c0-.229-.245-.028-1.055.87m-6.863-.167a2.437 2.437 0 0 0 1.036 0c.285-.074.051-.135-.519-.135s-.802.06-.517.135m-26.728 1.498a8.337 8.337 0 0 0 1.12 1.259c.208 0-1.06-1.666-1.6-2.099-.285-.23-.07.149.48.84m-13.601 1.007a4.566 4.566 0 0 0-.872 1.702c.012.281.137.177.311-.258a9.208 9.208 0 0 1 1.032-1.702c.407-.534.669-.97.58-.97a5.667 5.667 0 0 0-1.051 1.228m17.839.547c0 .733.057 1.033.128.667a4.228 4.228 0 0 0 0-1.333c-.07-.366-.128-.066-.128.666m15.386.148c.004.652.064.883.134.515a3.238 3.238 0 0 0-.005-1.184c-.074-.283-.132.018-.129.67m-17.464 3.847c.003.652.064.883.135.515a3.254 3.254 0 0 0-.006-1.184c-.075-.283-.133.018-.129.669m9.18 3.913a5.3 5.3 0 0 0 1.48-.005c.363-.07-.005-.125-.819-.123s-1.112.06-.661.128m-23.76 2.008a6.471 6.471 0 0 0 1.153 1.036c.082 0-.304-.467-.857-1.036a6.47 6.47 0 0 0-1.152-1.037c-.08 0 .305.467.857 1.037m65.736 2.57c-.524.843-.773 1.383-.552 1.2a9.099 9.099 0 0 0 1.628-2.734 9.103 9.103 0 0 0-1.076 1.533m-20.807.686a10.35 10.35 0 0 0 1.584 1.777c1.256 1.17.855.663-1.762-2.22-.074-.082.006.118.178.443m17.676 2.709c-.891.796-.958.907-.27.446.819-.547 1.848-1.544 1.565-1.515a11.974 11.974 0 0 0-1.295 1.069m-14.101.678a2.528 2.528 0 0 0 1.01.61c.365 0 .348-.015-.821-.7l-.888-.52.699.61m19.178 44.323a1.884 1.884 0 0 1 .49.984c.13.637.145.62.104-.125-.026-.489-.24-.918-.49-.985q-.446-.12-.104.126m-3.734.668q-.307.573-.307 25.88c0 27.979-.12 26.287 1.872 26.193l.94-.045-.888-.13a3.172 3.172 0 0 1-1.258-.436c-.484-.4-.546-50.56-.064-51.462.169-.315.24-.572.159-.572s-.286.257-.454.572m-72.095 25.328c0 14.001.036 19.686.08 12.633.044-7.054.044-18.51 0-25.457-.044-6.948-.08-1.177-.08 12.824m-4.44.445c0 13.92.036 19.613.08 12.653.044-6.96.044-18.348 0-25.308-.044-6.96-.08-1.265-.08 12.655m-34.337.147c0 13.676.036 19.227.08 12.336.045-6.89.045-18.08 0-24.864-.044-6.785-.08-1.147-.08 12.528m27.83-21.983-.295.671-10.952.153-10.952.154 10.832.068c11.469.073 12.227-.017 11.767-1.399-.058-.175-.238-.016-.4.353m67.605.153c.574.478.63.861.707 4.958l.084 4.44.066-4.493c.066-4.559-.121-5.423-1.173-5.423-.169 0-.027.233.316.518m-91.007 9.842c0 4.477.042 6.308.092 4.07.05-2.238.05-5.902 0-8.14-.05-2.239-.092-.407-.092 4.07m87.298-4.292c-.001 1.465.05 2.102.111 1.415a19.183 19.183 0 0 0 .002-2.664c-.061-.778-.112-.216-.113 1.25m-3.587 4.785a1.801 1.801 0 0 0-.682.79c-.264.546-.252.571.077.175a4.295 4.295 0 0 1 .98-.805c.588-.338.336-.447-.375-.16m17.417 3.118a1.144 1.144 0 0 1-.541.805c-.285.166-.368.305-.184.31a1.123 1.123 0 0 0 .902-1.239c-.098-.245-.161-.2-.177.124m-55.386 1.938-1.618 1.702 1.702-1.618c1.58-1.503 1.837-1.786 1.618-1.786-.046 0-.812.766-1.702 1.702m28.427-.37a6.471 6.471 0 0 0 1.152 1.037c.08 0-.304-.467-.857-1.037a6.47 6.47 0 0 0-1.151-1.036c-.082 0 .304.466.856 1.036m17.792-.039c-.24.29-.312 3.428-.254 11.026l.082 10.622.07-10.716c.065-9.849.112-10.74.588-11.017.285-.166.368-.306.184-.31a1.06 1.06 0 0 0-.67.395m-25.192.202c1.026.697 1.611.9.887.307a2.838 2.838 0 0 0-1.035-.607c-.163 0-.097.134.148.3m20.554 9.31c0 4.558.041 6.382.092 4.052.05-2.33.05-6.06-.001-8.288-.05-2.229-.091-.323-.091 4.235m-16.423-6.29c1.227 1.307 1.493 1.542 1.493 1.32a16.572 16.572 0 0 0-1.407-1.406l-1.406-1.32 1.32 1.407m-70.724.111c-.026.926.825 1.007 9.794.924l8.993-.083-9.088-.07c-8.298-.063-9.113-.113-9.388-.587-.167-.285-.306-.367-.311-.184m77.544 1.59a4.18 4.18 0 0 0 .752 1.185c.082 0-.123-.534-.455-1.185a4.18 4.18 0 0 0-.752-1.184c-.082 0 .124.533.455 1.184m-57.373 1.54c-.036.973-.207 1.481-.57 1.693-.285.166-.368.305-.184.31.657.018 1.033-.847.92-2.115l-.114-1.28-.052 1.392m53.547.976a3.269 3.269 0 0 0 .423 1.037c.232.406.422.606.422.443a3.26 3.26 0 0 0-.422-1.035c-.233-.408-.423-.608-.423-.445m5.357 1.332c.015.77.481 2.033.491 1.332a3.465 3.465 0 0 0-.245-1.184c-.156-.362-.252-.42-.246-.148m-79.25 9.325c0 4.884.041 6.924.091 4.532.05-2.392.05-6.387 0-8.88-.05-2.493-.09-.537-.09 4.348m40.496-6.512c.003.65.065.882.135.514a3.237 3.237 0 0 0-.006-1.184c-.074-.283-.132.018-.129.67m34.627.148c0 .57.06.802.135.517a2.413 2.413 0 0 0 0-1.036c-.074-.285-.135-.051-.135.519m4.771 2.072c0 1.384.05 1.95.114 1.258a17.03 17.03 0 0 0 0-2.516c-.063-.693-.114-.126-.114 1.258m-34.958.147c.004.652.065.883.135.515a3.22 3.22 0 0 0-.006-1.184c-.074-.283-.132.018-.129.67m30.187 1.923c0 .57.06.804.135.519a2.413 2.413 0 0 0 0-1.036c-.074-.285-.135-.052-.135.517m-34.633.297c0 .57.061.802.136.518a2.433 2.433 0 0 0 0-1.036c-.075-.285-.136-.052-.136.518m5.281 2.811a3.255 3.255 0 0 0 .423 1.037c.233.406.423.606.423.444a3.255 3.255 0 0 0-.423-1.036c-.233-.407-.423-.607-.423-.445m2.939 4.977a7.34 7.34 0 0 0 .962.962l.962.87-.87-.962c-.81-.897-1.054-1.098-1.054-.87m2.356 2.114a6.02 6.02 0 0 0 1.62 1.075c.662.316.954.405.65.2-2.225-1.496-2.653-1.736-2.27-1.275m23.827.828-1.17 1.258 1.257-1.17a13.148 13.148 0 0 0 1.259-1.258c0-.224-.258 0-1.346 1.17m17.922-.573a7.424 7.424 0 0 0 .962.962l.962.869-.87-.962c-.81-.897-1.054-1.098-1.054-.87m-68.776 1.98a3.308 3.308 0 0 1 .478 1.184l.135.74.041-.778a1.565 1.565 0 0 0-.478-1.184c-.45-.354-.473-.348-.176.038m74.696.279 2.812.165.183 1.036c.182 1.028.184 1.029.222.134.061-1.42-.369-1.62-3.35-1.558l-2.68.057 2.813.166m-39.59.529a12.948 12.948 0 0 0 2.22 0c.61-.065.11-.117-1.111-.117-1.22 0-1.72.052-1.11.117m42.575 2.21a1.593 1.593 0 0 1-.681.961c-.363.254-.517.46-.343.46.503 0 1.372-1.11 1.202-1.536q-.155-.388-.178.114m8.88.007c-.013.28-.39.708-.838.95-.447.244-.662.447-.476.454.594.021 1.677-1.051 1.504-1.49-.126-.32-.173-.298-.19.086m-107.104 1.046c3.378.047 8.906.047 12.284 0 3.378-.048.615-.087-6.142-.087-6.757 0-9.52.04-6.142.087m26.824.148a1.6 1.6 0 0 0 1.332.474l.926-.045-.887-.13a3.448 3.448 0 0 1-1.332-.473c-.387-.3-.392-.277-.039.174m35.263.074c-.57.22-.836.403-.592.408a4.222 4.222 0 0 0 1.332-.397c1.144-.523.611-.531-.74-.011m-7.326.663c1.099.058 2.897.058 3.996 0 1.1-.056.2-.103-1.998-.103-2.197 0-3.097.047-1.998.103"/>
		<path fill="#c8dde7" d="M219.952 9.297a5.273 5.273 0 0 0 1.48-.004c.364-.07-.004-.127-.818-.124s-1.112.06-.662.128m-31.38 1.415c.003.652.063.883.134.515a3.237 3.237 0 0 0-.006-1.184c-.074-.283-.132.018-.129.67m-25.16 5.328c.003.65.064.882.135.514a3.254 3.254 0 0 0-.006-1.184c-.075-.283-.133.019-.129.67m-21.697 2.638c-3.176.93-7.958 4.74-7.975 6.355a3.939 3.939 0 0 1-.567 1.332c-.859 1.407-1.27 4.723-.869 7.001a13.125 13.125 0 0 0 22.4 7.113c9.323-9.624-.167-25.552-12.989-21.8m6.76.368c9.153 2.267 12.678 14.092 6.194 20.773-4.532 4.668-11.329 5.571-16.283 2.163-11.832-8.14-3.809-26.378 10.09-22.936m44.314 5.034c-4.71 1.278-7.252 4.477-7.252 9.127 0 9.799 12.814 12.644 17.189 3.817 3.069-6.192-3.463-14.7-9.937-12.944m4.223.902c4.151 1.31 6.936 6.086 5.87 10.068-1.689 6.298-8.51 8.841-13.6 5.07-7.702-5.706-1.414-18.02 7.73-15.138m-23.168 3.899a8.534 8.534 0 0 0-5.689 10.246c3.117 9.984 17.605 6.55 15.916-3.771a8.372 8.372 0 0 0-10.227-6.475m5.854 1.146a7.763 7.763 0 1 1-10.52 10.398 7.748 7.748 0 0 1 10.52-10.398m-20.802 9.937c-6.632 2.224-7.258 10.51-1.04 13.786a7.715 7.715 0 0 0 8.335-1.495c5.02-5.497-.388-14.607-7.295-12.29m5.708 1.336a6.801 6.801 0 0 1 1.796 9.96c-5.344 7-16.097-.6-11.228-7.935a6.692 6.692 0 0 1 9.432-2.025m-37.233 1.13c-9.23 2.492-12.325 13.751-5.575 20.28 9.139 8.84 23.96-1.167 19.34-13.056-1.956-5.031-8.726-8.585-13.765-7.224m7.499 1.35c7.238 3.282 8.927 12.404 3.393 18.32-5.299 5.666-14.81 4.203-18.411-2.83-4.892-9.553 5.186-19.948 15.018-15.49m57.623 1.088c-3.421 1.583-4.287 5.673-1.727 8.16a4.921 4.921 0 0 0 6.854.283c4.313-3.692-.01-10.812-5.127-8.443m3.99.549a4.592 4.592 0 0 1 .565 7.76c-4.652 3.368-10.036-3.087-5.841-7.003a4.664 4.664 0 0 1 5.276-.757m7.932.943a5.717 5.717 0 0 0-1.877 9.73c1.958 1.72 4.149 1.872 6.605.46l1.258-.724v5.289l1.343 1.493a6.14 6.14 0 0 0 10.532-5.63c-.958-4.03-6.306-5.888-9.632-3.35-1.45 1.108-1.733.887-1.076-.84.279-.733.06-2.056-.632-3.834-.733-1.881-4.311-3.305-6.52-2.594m4.45 1.197c1.808 1.309 2.276 2.193 2.276 4.297a5.07 5.07 0 0 1-9.664 2.218c-2.427-4.527 3.238-9.522 7.388-6.515m-27.516-.04a4.36 4.36 0 0 0-3.095 5.13c.623 4.154 6.726 4.998 8.358 1.155a4.5 4.5 0 0 0-5.263-6.285m3.45.936c2.211 1.366 2.322 5.287.188 6.706-1.253.835-3.943.726-4.947-.201-3.72-3.433.468-9.158 4.76-6.505m39.513.386a7.34 7.34 0 0 0 .962.962l.962.87-.87-.963c-.81-.897-1.054-1.097-1.054-.87m43.598 5.089c.002.813.06 1.111.127.662a5.305 5.305 0 0 0-.004-1.481c-.07-.364-.126.005-.123.819m-48.75-.258c5.005 3.396 3.105 10.472-2.81 10.468a5.606 5.606 0 0 1-2.843-10.53 5.508 5.508 0 0 1 5.652.062m-48.277 1.33a3.739 3.739 0 0 0-1.632 5.8c2.218 2.98 7.108 1.494 7.108-2.16 0-2.89-2.523-4.567-5.476-3.64m4.017 1.169a3.43 3.43 0 0 1-3.692 5.612c-2.588-.854-2.967-4.636-.631-6.295.897-.637 3.469-.23 4.323.683m-26.003-.185a6.564 6.564 0 0 0-2.932 10.782 6.297 6.297 0 0 0 6.93 1.657c7.614-3.182 3.84-14.928-3.999-12.44m3.583.482a6.205 6.205 0 0 1 4.175 6.995c-1.257 7.068-11.832 6.134-11.814-1.044.012-4.553 3.339-7.145 7.639-5.95m87.818 1.254a7.395 7.395 0 0 0 .962.962l.962.87-.87-.963c-.81-.896-1.054-1.097-1.054-.87m-76.439 8.259a3.184 3.184 0 0 0-1.564 3.467c.811 3.694 6.665 3.164 6.665-.602a3.253 3.253 0 0 0-5.1-2.865m3.297.368a2.904 2.904 0 0 1 1.4 2.92 2.936 2.936 0 0 1-5.813-.602c0-2.186 2.316-3.403 4.413-2.318m-43.93 3.613c-9.627 2.063-12.172 13.892-4.154 19.304 9.49 6.404 20.957-5.12 14.597-14.67-2.166-3.254-6.959-5.38-10.443-4.634m4.57.883a10.009 10.009 0 0 1 4.559 16.4c-3.858 4.27-11.18 4.327-14.877.116a10.075 10.075 0 0 1 10.318-16.516m16.743 4.447a5.733 5.733 0 0 0-.252 10.213c3.253 1.81 6.818.321 8.26-3.452 1.635-4.284-3.881-8.942-8.008-6.761m4.224.262c5.474 2.286 4.15 10.197-1.708 10.197a5.273 5.273 0 0 1-2.337-9.986 4.162 4.162 0 0 1 4.045-.212m13.2 2.552a2.844 2.844 0 0 0-.565 4.256 2.888 2.888 0 0 0 3.706.142 2.734 2.734 0 0 0-3.14-4.397m2.902.735a2.733 2.733 0 0 1-.084 3.391 2.143 2.143 0 0 1-3.578-1.645 2.204 2.204 0 0 1 3.662-1.746m76.393 7.114a2.437 2.437 0 0 0 1.036 0c.285-.074.052-.135-.518-.135s-.803.061-.518.135m-76.77 4.616c-1.912 1.284-1.175 3.603 1.145 3.603 2.33 0 3.13-2.5 1.179-3.69-1.19-.726-1.11-.729-2.324.087m1.935.257a1.523 1.523 0 0 1-.01 2.876c-1.905.866-3.461-1.892-1.598-2.834.897-.454.713-.45 1.608-.042m-17.593 3.494c-2.093 1.116-2.8 2.192-2.807 4.266-.015 5.167 6.027 7.035 8.856 2.739 2.518-3.825-2.063-9.13-6.05-7.005m4.29.779a4.477 4.477 0 0 1 1.173 6.236 4.392 4.392 0 0 1-7.843-1.476c-1.056-3.753 3.378-6.917 6.67-4.76m104.573-.255a7.889 7.889 0 0 0 1.776-.003c.445-.067.01-.122-.968-.12-.976.002-1.34.057-.808.123m-35.082.582a2.433 2.433 0 0 0 1.036 0c.284-.075.052-.136-.518-.136s-.803.061-.518.136m-94.056 2.195c-.49.155-1.348.43-1.91.61-8.033 2.579-7.576 14.855.655 17.589 7.929 2.634 15.218-6.567 10.829-13.668-2.042-3.304-6.616-5.468-9.574-4.53m3.551.648c9.368 2.274 9.082 15.355-.38 17.362a9.11 9.11 0 0 1-10.166-6.378 8.818 8.818 0 0 1 10.546-10.984m80.44 3.908c.005.651.065.882.136.515a3.22 3.22 0 0 0-.006-1.184c-.074-.284-.132.017-.13.669m29.807.962-1.02 1.11 1.11-1.02c1.033-.95 1.246-1.2 1.02-1.2a10.127 10.127 0 0 0-1.11 1.11m-60.295.278a2.434 2.434 0 0 0 1.035 0c.285-.074.053-.136-.517-.136s-.803.062-.518.136m-4.061 1.21c-.271.707.227.928.777.345.458-.486.455-.53-.055-.663a.578.578 0 0 0-.722.318m27.597-.02a3.237 3.237 0 0 0 1.184-.007c.283-.074-.018-.132-.67-.128-.651.003-.883.063-.514.134m-28.419 1.559c-.4.467-.409.579-.053.715.24.092.422-.015.422-.248a.584.584 0 0 1 .355-.528c.228-.077.247-.186.053-.306-.166-.103-.516.062-.777.367m16.723.212a2.434 2.434 0 0 0 1.036 0c.285-.075.052-.135-.518-.135s-.803.06-.518.135m-16.862 2.608c.002.814.06 1.112.128.662a5.278 5.278 0 0 0-.004-1.48c-.07-.364-.126.004-.124.818m10.942 0c.003.651.064.883.135.514a3.233 3.233 0 0 0-.006-1.183c-.074-.284-.132.017-.129.67m-28.751 1.38c-3.541 1.754-2.713 7.15 1.158 7.544 4.68.478 6.276-5.444 2.05-7.6-1.438-.733-1.62-.73-3.208.057m3.72.7a3.959 3.959 0 0 1 1.177 1.541 3.486 3.486 0 0 1-5.702 3.807c-2.999-2.998.965-7.682 4.525-5.349m36.28.287c.003.651.063.883.135.514a3.237 3.237 0 0 0-.007-1.184c-.074-.282-.131.019-.128.67m-13.03 1.636c-.532.484-.856.88-.722.88a3.584 3.584 0 0 0 1.096-.888c1.089-1.136.879-1.13-.374.008m48.846.732c.004.65.065.883.135.515a3.22 3.22 0 0 0-.006-1.185c-.073-.282-.132.019-.129.67m15.318 1.48a6.448 6.448 0 0 0 1.153 1.036c.08 0-.304-.467-.857-1.036a6.472 6.472 0 0 0-1.152-1.036c-.082 0 .304.467.856 1.036m16.265.074-1.02 1.11 1.11-1.02c1.033-.95 1.246-1.2 1.02-1.2a10.009 10.009 0 0 0-1.11 1.11m-23.887 1.174a6.503 6.503 0 0 0 1.628 0c.448-.068.082-.123-.813-.123-.897 0-1.263.055-.815.123m-48.986 2.07a3.237 3.237 0 0 0 1.185-.007c.282-.074-.019-.131-.67-.128-.652.003-.883.063-.515.135m-19.31 3.039a3.163 3.163 0 0 0 .843 5.618c3.264 1.078 5.453-3.536 2.598-5.477a2.709 2.709 0 0 0-3.442-.141m-31.284.27c-5.923 1.244-7.885 9.23-3.368 13.71a8.129 8.129 0 0 0 11.953-1.052c4.503-6.254-.93-14.266-8.585-12.658m34.364.17a2.466 2.466 0 0 1 .295 4.13c-2.17 1.825-4.865-.105-4.086-2.927.416-1.505 2.146-2.054 3.791-1.203m-28.835.782c7.176 3.791 4.633 14.474-3.445 14.474-7.977 0-10.486-10.772-3.367-14.458a9.236 9.236 0 0 1 6.812-.016m72.142 1.154c0 .569.06.802.135.517a2.413 2.413 0 0 0 0-1.036c-.074-.285-.135-.051-.135.519m-17.458 3.699c.003.652.064.883.134.515a3.239 3.239 0 0 0-.005-1.184c-.075-.283-.133.018-.129.669m-18.063.149c0 .57.06.802.136.517a2.437 2.437 0 0 0 0-1.036c-.075-.285-.136-.051-.136.519m45.013 1.48c0 .895.056 1.26.124.814a6.508 6.508 0 0 0 0-1.629c-.068-.447-.124-.081-.124.814m-29.856 4.81-.87.962.963-.869a7.339 7.339 0 0 0 .962-.962c0-.228-.244-.028-1.055.87m-34.232 4.049a6.967 6.967 0 0 0 .032 13.295c4.963 1.688 10.132-3.524 8.467-8.537-1.173-3.53-5.243-5.81-8.499-4.758m4.79 1.052a6.314 6.314 0 0 1 1.417 10.357 6.387 6.387 0 0 1-9.975-1.881 6.321 6.321 0 0 1 8.557-8.476m46.989 2.5c-1.218 1.135-1.246 1.206-1.246 3.088 0 5.549 7.833 6.062 8.363.549a4.195 4.195 0 0 0-7.117-3.638m4.852-.194a3.872 3.872 0 0 1 .933 5.916 3.963 3.963 0 0 1-6.758-2.014c-.582-3.106 3.212-5.648 5.825-3.902m-30.815 3.504c-3.347 2.01-4.165 5.835-1.838 8.6a5.57 5.57 0 0 0 9.83-3.6c0-4.133-4.621-7.024-7.992-5m4.853.509c2.648 1.532 3.566 4.617 2.076 6.974a5.124 5.124 0 0 1-8.556.632c-3.362-4.157 1.856-10.282 6.48-7.606m-48.42 39.642c3.633.047 9.494.047 13.024 0 3.53-.048.557-.087-6.606-.086-7.164 0-10.052.038-6.418.086m108.534 25.235c0 13.92.036 19.613.08 12.653.044-6.959.044-18.348 0-25.308-.044-6.96-.08-1.265-.08 12.655m-82.063.592c-.035 14.082.034 25.758.154 25.946.196.308.19-25.821-.011-44.3-.043-3.987-.107 4.27-.143 18.354m5.693-.444c0 13.838.036 19.455.08 12.484.045-6.972.045-18.295 0-25.161-.044-6.866-.08-1.162-.08 12.677m70.745.444c0 13.756.037 19.384.082 12.506.043-6.878.043-18.134 0-25.013-.045-6.878-.082-1.25-.082 12.507m-110.706.148c0 13.675.036 19.226.08 12.336.044-6.89.044-18.08 0-24.865s-.08-1.147-.08 12.529m95.913-22.727a3.365 3.365 0 0 1 1.036.484c.386.294.391.27.037-.18a1.39 1.39 0 0 0-1.035-.484c-.598.033-.6.042-.038.18m1.451 5.41c0 2.524.045 3.556.101 2.294a63.642 63.642 0 0 0 0-4.588c-.056-1.261-.1-.229-.1 2.294m-5.335.74c0 1.954.048 2.714.107 1.69a36.114 36.114 0 0 0-.002-3.551c-.058-.93-.106-.092-.105 1.86m-12.25 9.77a14.881 14.881 0 0 0 1.756 1.628 10.505 10.505 0 0 0-1.46-1.629 14.88 14.88 0 0 0-1.755-1.628 10.455 10.455 0 0 0 1.46 1.628m17.597 10.509c0 5.616.04 7.914.089 5.106.048-2.808.048-7.404 0-10.213-.05-2.807-.09-.51-.09 5.107m-5.326 1.184c0 6.105.04 8.603.087 5.55a425.65 425.65 0 0 0 0-11.1c-.047-3.053-.087-.555-.087 5.55m-37.302-8.215-.87.962.963-.869c.897-.81 1.098-1.055.87-1.055a7.445 7.445 0 0 0-.963.962m-48.712-.295c.373.475 1.14.512 9.473.448l9.065-.07-9.003-.083c-6.585-.06-9.13-.18-9.473-.448-.414-.323-.42-.305-.062.153m5.605 5.771c2.33.05 6.06.05 8.29 0 2.228-.05.322-.091-4.237-.091s-6.382.041-4.053.091m33.313 4.81c0 1.385.05 1.95.114 1.26a17.03 17.03 0 0 0 0-2.517c-.063-.692-.114-.126-.114 1.258m5.62 0c0 1.22.053 1.72.116 1.11a12.788 12.788 0 0 0 0-2.22c-.063-.61-.115-.111-.115 1.11m34.897 0c0 .57.061.802.136.518a2.434 2.434 0 0 0 0-1.036c-.075-.285-.136-.052-.136.518m-34.85 14.208a12.38 12.38 0 0 0 1.607 1.48 8.562 8.562 0 0 0-1.31-1.48 12.44 12.44 0 0 0-1.606-1.48 8.517 8.517 0 0 0 1.31 1.48m28.998.074-1.47 1.554 1.555-1.468a20.681 20.681 0 0 0 1.554-1.554c0-.222-.275.024-1.64 1.468m-15.159.434a6.504 6.504 0 0 0 1.628 0c.448-.067.081-.123-.814-.123s-1.262.056-.814.123m42.932 1.712c.002.814.06 1.112.128.662a5.306 5.306 0 0 0-.004-1.48c-.07-.364-.127.005-.124.818"/>
		<path fill="#bcc4d4" d="M191.11 6.345c-1.098.904-1.701 1.586-1.716 1.935-.005.128.421-.257.948-.857a6.704 6.704 0 0 1 1.85-1.478c.497-.218.673-.394.397-.401a3.4 3.4 0 0 0-1.48.8m6.301.33a6.047 6.047 0 0 1 1.446 1.815c.207.501.436.85.509.779.367-.368-1.383-2.671-2.432-3.201-.326-.166-.111.108.477.606m19.745 3.567a7.5 7.5 0 0 0-1.589 1.237c-.128.209.228.027.792-.403a11.972 11.972 0 0 1 2.048-1.227c.563-.244.817-.448.563-.455a5.634 5.634 0 0 0-1.814.848m5.086-.648c.245.09.711.287 1.037.437.583.268.583.265.017-.189a1.93 1.93 0 0 0-1.036-.436c-.398.02-.4.046-.018.188M199.42 10.86a11.717 11.717 0 0 1-.383 1.924c-.12.325 0 .219.263-.237a3.626 3.626 0 0 0 .383-1.924l-.097-1.095-.166 1.332m25.254.047a9.1 9.1 0 0 1 1.55 2.024c.412.733.75 1.192.751 1.02a8.276 8.276 0 0 0-2.418-3.393c-.598-.299-.583-.254.117.35m-58.847 1.4c-1.093.666-2.194 2-2.194 2.657 0 .26.247.014.548-.548a4.371 4.371 0 0 1 3.526-2.395l1.402-.196-1.183-.038a4.174 4.174 0 0 0-2.099.52m3.578-.074c1.508 1.337 2.063 1.727 1.482 1.04a4.809 4.809 0 0 0-1.182-.998c-.328-.168-.463-.187-.3-.042m45.269.54a1.75 1.75 0 0 0-.377.997c.056.146.318-.182.582-.73.566-1.173.47-1.297-.205-.267m-43.118 2.798a3.294 3.294 0 0 1-.683 2.764c-.47.711-.606 1.073-.314.833 1.169-.96 1.792-3.622 1.103-4.709-.146-.23-.19.234-.106 1.112m25.913-.695-.831.762.962-.67a5.446 5.446 0 0 0 .962-.761c0-.234-.327-.033-1.093.669m29.602 1.163c.001.976.056 1.34.122.808a7.897 7.897 0 0 0-.003-1.776c-.067-.445-.12-.009-.12.968m-13.04 0c.003.65.063.882.134.514a3.253 3.253 0 0 0-.006-1.184c-.074-.283-.132.019-.129.67m2.19 4.81a4.936 4.936 0 0 0 1.64 1.249c.214-.006.121-.156-.204-.335a12.652 12.652 0 0 1-1.641-1.25c-.707-.622-.64-.513.205.336m-49.107-.901a4.222 4.222 0 0 0 1.331 0c.367-.071.067-.129-.666-.129-.732 0-1.032.058-.665.129m58.21.425a7.835 7.835 0 0 1-1.451 1.183c-.489.301-.716.549-.507.55.37.001 3.053-2.345 2.699-2.36a2.189 2.189 0 0 0-.74.627m-6.189 2.027c.566.245 2.748.414 2.492.193a8.44 8.44 0 0 0-1.603-.278c-.952-.11-1.27-.08-.889.085m25.754 1.187a3.248 3.248 0 0 0 1.035.254c.28 0 .225-.094-.148-.254a3.252 3.252 0 0 0-1.036-.255c-.28 0-.225.095.149.255m-6.315 1.383c-1.276 1.07-2.892 3.274-2.608 3.558.082.082.426-.396.766-1.061a9.18 9.18 0 0 1 2.119-2.397c.826-.653 1.39-1.185 1.254-1.181a6.908 6.908 0 0 0-1.531 1.081m9.868.284a18.848 18.848 0 0 1 1.576 1.737c.803 1.039.513.38-.36-.82a5.928 5.928 0 0 0-1.351-1.291c-.66-.414-.642-.366.135.374m-12.865 7.268c-.016.61.547 2.148.722 1.973a3.146 3.146 0 0 0-.291-1.299c-.23-.646-.424-.948-.43-.674m-23.67 1.235a5.495 5.495 0 0 0 1.16.295c.728.133.904.104.592-.1-.402-.264-2.045-.447-1.752-.195m26.397 3.224a6.726 6.726 0 0 0 1.786 1.406c.187 0 .011-.22-.39-.488a22.303 22.303 0 0 1-1.786-1.406c-.58-.505-.403-.285.39.488m-23.166-.262a3.704 3.704 0 0 1-.62 1.85l-.621.854.769-.83c.676-.731 1.139-2.87.62-2.87-.08 0-.148.449-.148.996m32.066 1.115a11.277 11.277 0 0 1-2.812.988c-1.03.223-1.53.416-1.112.43a9.717 9.717 0 0 0 4.464-1.45c.877-.73.671-.718-.54.032m-34.952 1.646a2.437 2.437 0 0 0 1.037 0c.285-.076.051-.136-.519-.136s-.802.06-.518.136m13.65 4.087a3.917 3.917 0 0 0-1.407 1.256c-.165.471-.146.475.194.04 1.086-1.39 3.16-2.053 4.455-1.428.625.302.627.297.072-.147-.82-.657-1.904-.566-3.315.28m4.742 1.159a3.501 3.501 0 0 1-1.088 5.217c-.522.317-.8.578-.618.579 2.516.008 3.56-4.757 1.43-6.525-.276-.229-.15.1.276.729m23.642 1.094a3.564 3.564 0 0 0-.962.76c0 .078.433-.118.962-.437a11.61 11.61 0 0 1 1.407-.74c.394-.144.394-.164 0-.18a3.605 3.605 0 0 0-1.407.597m7.326-.417a11.608 11.608 0 0 1 1.407.74c.529.32.962.513.962.432a5.62 5.62 0 0 0-2.403-1.358c-.313.018-.306.062.034.186m-37.508 1.42c.003.813.06 1.111.128.66a5.3 5.3 0 0 0-.004-1.479c-.07-.364-.126.004-.124.818m40.682.519a18.893 18.893 0 0 1 1.384 1.816c.424.634.77 1.012.77.841a13.273 13.273 0 0 0-2.573-3.324c-.107 0 .082.3.42.667m-39.6 2.071a3.361 3.361 0 0 0 1.481 1.087c.398-.02.4-.045.016-.184a7.379 7.379 0 0 1-1.48-1.087l-1.036-.925 1.02 1.11m24.436 2.589a2.19 2.19 0 0 0-.067 1.068c.076.076.223-.288.326-.808.247-1.234.008-1.474-.259-.26m-.12 2.96a6.547 6.547 0 0 0 .72 2.608 5.252 5.252 0 0 0-.292-1.582c-.221-.808-.414-1.27-.427-1.026m17.961.445a25.227 25.227 0 0 1-.36 1.48c-.096.325.035.143.29-.405a3.239 3.239 0 0 0 .36-1.48c-.058-.28-.181-.109-.29.405m-30.348 2.136a6.576 6.576 0 0 0 1.628 0c.448-.068.082-.124-.814-.124-.896 0-1.262.056-.814.124m3.73 1.196a4.532 4.532 0 0 0 1.208 1.032c.167-.107-1.809-2.145-2.08-2.145-.114 0 .279.501.872 1.113m25.423-.149-.523.96.596-.698c.508-.595.78-1.23.522-1.224a5.353 5.353 0 0 0-.595.962m-31.53.003c-1.257 1.339-1.884 3.682-1.245 4.657.209.318.24.179.112-.49a5.237 5.237 0 0 1 1.268-3.957c.87-1.034.776-1.18-.134-.21m17.398 1.81a6.188 6.188 0 0 0 1.629 1.252c.504.239.644.259.324.046-.31-.206-1.043-.77-1.628-1.252l-1.065-.877.74.831m-9.916 1.664c0 .945.098 1.566.217 1.377a4.47 4.47 0 0 0 0-2.755c-.12-.188-.217.432-.217 1.378m21.164-.577-.74.593.815-.351c.447-.194.814-.464.814-.6 0-.339-.041-.322-.889.358m-7.992 1.02a3.287 3.287 0 0 0 1.333.421c.325 0 .059-.195-.592-.429-1.484-.535-1.686-.531-.74.009m2.737.648a2.413 2.413 0 0 0 1.037 0c.285-.075.052-.135-.518-.135s-.804.06-.519.135m-16.596 1.595a4.803 4.803 0 0 1-1.32 1.17c-.525.319-.785.58-.58.582.462.001 2.645-1.963 2.426-2.182-.087-.087-.323.107-.526.43m-6.362.791a3.495 3.495 0 0 0 1.346.953c.206-.005.108-.156-.218-.336a10.878 10.878 0 0 1-1.346-.953c-.414-.344-.316-.193.218.336M221.67 67.29a2.803 2.803 0 0 0-.613 1.257c0 .264.234.013.518-.557.664-1.329 2.114-1.605 2.857-.543.26.371.473.532.473.358 0-1.307-2.32-1.677-3.235-.515m15.893-.57a3.237 3.237 0 0 0 1.184-.007c.282-.074-.019-.132-.67-.129s-.883.065-.514.135m25.6 3.25a2.437 2.437 0 0 0 1.037 0c.285-.073.052-.134-.518-.134s-.804.06-.519.135m-2.663.397c-.943.379-.83.604.147.294 1.67-.527 1.72-.552 1.11-.557a4.016 4.016 0 0 0-1.257.263m6.13.146a4.635 4.635 0 0 0 1.421.31c.151-.15-1.723-.764-2.267-.741-.26.01.12.205.846.43m-9.774 2.236-1.61 1.503 1.701-1.41c1.563-1.296 1.864-1.595 1.61-1.595a21.84 21.84 0 0 0-1.701 1.502m12.878-.849a17.616 17.616 0 0 1 1.566 1.402c.47.488.63.556.498.211a5.144 5.144 0 0 0-1.566-1.402c-.754-.489-.977-.585-.498-.21m-15.07 3.368c-.276.42-.451.816-.388.879.062.062.346-.283.632-.766.638-1.08.448-1.169-.244-.113m-13.843-.255a7.89 7.89 0 0 0 1.775-.004c.445-.067.01-.12-.967-.119-.977.002-1.34.057-.808.123m-2.34.682a5.945 5.945 0 0 0-1.274 1.397l-.495.814.714-.84a8.987 8.987 0 0 1 1.57-1.403c.471-.311.724-.562.561-.558a3.22 3.22 0 0 0-1.076.59m5.516-.414 1.48 1.294 1.183 1.035-.888-.988a7.275 7.275 0 0 0-1.479-1.294c-.325-.168-.458-.19-.296-.047m-20.384 3.258c-1.328 1.326-.591 4.28 1.056 4.242.211-.005.117-.154-.208-.333a2.27 2.27 0 0 1-.422-3.924c.501-.421.785-.766.633-.766a2.977 2.977 0 0 0-1.06.78m2.79-.345a2.637 2.637 0 0 1 1.31 2.633c-.156.576-.142.584.165.093.591-.946-.785-3.194-1.928-3.15-.167.008.037.198.453.424m47.725 2.081c.002.814.06 1.112.128.662a5.3 5.3 0 0 0-.005-1.48c-.07-.364-.126.004-.123.818m-37.893.148c0 .732.057 1.033.128.666a4.178 4.178 0 0 0 0-1.332c-.07-.366-.128-.067-.128.666m9.708 3.036a7.676 7.676 0 0 1-1.627 1.44c-.5.304-.735.555-.523.555.442.001 3.237-2.55 3.014-2.75-.08-.072-.468.267-.864.754m27.668-.128a10.057 10.057 0 0 1-1.073 2.315c-.775 1.265-.79 1.331-.131.55.8-.948 1.829-3.31 1.56-3.58-.09-.09-.25.232-.356.715m-36.617-.091a4.443 4.443 0 0 0 1.824 1.753c.244.12.126-.04-.263-.358a10.48 10.48 0 0 1-1.278-1.284c-.434-.536-.502-.564-.283-.111m16.92.46c0 .649 2.088 3.66 3.108 4.482a12.69 12.69 0 0 0 3.292 2.005c.143-.003-.395-.391-1.197-.863a10.998 10.998 0 0 1-4.395-4.493c-.445-.861-.808-1.37-.808-1.13m-14.208 1.741a2.159 2.159 0 0 0 1.012.306c.757.005.52-.164-.568-.407-.649-.145-.768-.118-.444.101m30.785 2.714c-1.032.905-1.032.906-.083.274a5.533 5.533 0 0 0 1.127-.916c.286-.462.049-.316-1.044.642m-47.361.771a5.771 5.771 0 0 1 1.776.87l1.035.734-1.024-.91a2.924 2.924 0 0 0-1.777-.868l-.75.04.74.134m-2.177.807a2.286 2.286 0 0 0-.764 1.11c.012.211.154.11.317-.225a3.37 3.37 0 0 1 1.09-1.103c.436-.27.647-.495.467-.5a2.741 2.741 0 0 0-1.11.718m47.022-.113c-.489.312-.782.569-.652.57a5.483 5.483 0 0 0 1.984-1.042c0-.258-.435-.104-1.332.472m-4.806 1.08a5.273 5.273 0 0 0 1.48-.004c.363-.07-.004-.126-.818-.124-.815.002-1.112.06-.662.128m-37.185.972c.235 1.276.403 1.517.397.567a2.54 2.54 0 0 0-.296-1.16c-.204-.312-.234-.137-.1.593m9.412 1.052c-.566.453-.566.456.017.188.326-.15.792-.347 1.036-.437.384-.143.381-.168-.018-.188a1.929 1.929 0 0 0-1.035.437m4.753-.05a7.342 7.342 0 0 1 4.016 4.62c.151.499.233.568.25.212.081-1.676-3.152-5.27-4.705-5.23-.247.005-.05.185.439.399m-19.971.567a6.146 6.146 0 0 0 2.169 1.982c.148 0-.115-.297-.585-.66a9.022 9.022 0 0 1-1.214-1.11c-.198-.248-.365-.343-.37-.212m4.461 1.266c-.554.394-.86.716-.682.716a3.114 3.114 0 0 0 1.153-.73c1.046-.921.837-.915-.47.014m28.164 1.934c-1.336.855-1.212 1.052.147.234 1.377-.827 1.42-.862 1.086-.855a4.615 4.615 0 0 0-1.233.62m-82.034-.06c-.253.16.145.205 1.035.118 2.005-.194 2.285-.337.706-.36a4.503 4.503 0 0 0-1.741.241m3.246.138a6.938 6.938 0 0 0 2.048.94 5.511 5.511 0 0 0-1.96-1.05c-.116 0-.156.049-.088.11m-4.909.73a6.09 6.09 0 0 0-1.332 1.106c-.294.374-.132.315.479-.174a21.63 21.63 0 0 1 1.48-1.089c.307-.194.49-.36.41-.369a4.512 4.512 0 0 0-1.037.527m80.996 1.372a8.091 8.091 0 0 0-1.222 1.53c0 .112.044.148.098.08.053-.068.67-.756 1.37-1.53a6.814 6.814 0 0 0 1.124-1.405 9.254 9.254 0 0 0-1.37 1.325m16.584-.282a23.341 23.341 0 0 1 1.85 2.328c.423.633.77 1.011.77.84a15.297 15.297 0 0 0-2.993-3.76c-.39-.321-.222-.055.373.592m-90.327-.59a4.172 4.172 0 0 0 .74 1.08c.407.484.74.789.74.678a4.15 4.15 0 0 0-.74-1.082c-.407-.483-.74-.788-.74-.677m37.502 1.734a3.239 3.239 0 0 0-1.08 1.554c.01.413.103.352.37-.245a4.814 4.814 0 0 1 2.28-2.096c.385-.146.383-.172-.016-.192a3.698 3.698 0 0 0-1.554.979m3.79-.536a12.062 12.062 0 0 1 1.349.812c.253.192.059-.017-.433-.464a3.089 3.089 0 0 0-1.348-.813c-.25.001-.056.21.432.465m-51.042 1.561a4.376 4.376 0 0 0-.236 1.86l.123.997.047-1.13a4.986 4.986 0 0 1 .367-1.727c.176-.33.26-.658.188-.73-.072-.073-.293.256-.489.73m76.862.9a9.171 9.171 0 0 1-1.554 1.775c-.577.507-.924.922-.771.922a13.266 13.266 0 0 0 2.998-3.288c0-.434-.142-.31-.673.59m-65.232 1.523a7.263 7.263 0 0 0-.24 1.723c.172.184.765-2.353.669-2.855-.052-.268-.245.241-.43 1.132m54.653-.656a8.263 8.263 0 0 0 3.393 2.42c.171-.002-.287-.341-1.02-.752a9.096 9.096 0 0 1-2.025-1.55c-.602-.7-.648-.715-.348-.118m-52.258 1.7c-.565.452-.565.455.018.187.325-.15.792-.346 1.036-.437.383-.142.38-.168-.018-.188a1.931 1.931 0 0 0-1.036.437m66.365.49a12.485 12.485 0 0 0-.141 2.454c.04 1.733.046 1.719.247-.593.218-2.5.192-2.973-.106-1.86m-6.79-.174a7.317 7.317 0 0 1-1.898.427l-1.714.24 1.712-.08a4.738 4.738 0 0 0 2.058-.427c.19-.19.274-.345.186-.345a.627.627 0 0 0-.344.185m-61.408.682c-1.095 1.207-1.274 1.519-1.41 2.457l-.142.968.3-.946a6.562 6.562 0 0 1 1.291-1.997c.546-.58.878-1.054.736-1.054a1.78 1.78 0 0 0-.775.572m6.735-.479a7.338 7.338 0 0 0 .962.962l.962.87-.87-.963c-.81-.896-1.054-1.097-1.054-.869m18.072.976a5.781 5.781 0 0 0-1.23 1.405c-.173.35.052.187.499-.362a5.671 5.671 0 0 1 1.726-1.395c.502-.218.69-.402.418-.409a3.115 3.115 0 0 0-1.413.761m66.683 1.152c.001 1.14.055 1.57.119.955a11.057 11.057 0 0 0-.003-2.072c-.065-.525-.118-.023-.116 1.117m-93.027-1.067a5.36 5.36 0 0 1-1.425 1.357c-.603.41-.998.745-.876.745.796 0 3.156-2.186 2.773-2.57-.08-.079-.292.131-.472.468m-9.193.736c.772.867 2.32 1.81 2.566 1.563.078-.078-.142-.233-.49-.344a7.087 7.087 0 0 1-1.726-1.126c-1.023-.867-1.044-.873-.35-.093m24.569.492c-.324.22-.205.247.444.102 1.088-.243 1.324-.412.568-.407a2.158 2.158 0 0 0-1.012.305m2.097-.203a4.629 4.629 0 0 0 1.01.305c.65.145.77.118.445-.102-.4-.27-1.752-.46-1.455-.203m32.61.098a2.437 2.437 0 0 0 1.036 0c.285-.075.051-.136-.519-.136s-.802.061-.517.136m-30.34.632a6.771 6.771 0 0 1 1.11 1.237c.407.551.739.9.739.776a5.547 5.547 0 0 0-1.885-2.253c-.22.003-.208.086.036.24m34.443.435c1.432.969 1.743 1.148 1.743 1.006a9.648 9.648 0 0 0-2.5-1.685c-.136 0 .204.305.757.679m-8.568.756a5.253 5.253 0 0 0-1.227 1.405c.004.147.237-.018.518-.367a13.428 13.428 0 0 1 1.4-1.397c.488-.419.81-.766.715-.771a7.478 7.478 0 0 0-1.406 1.13m-20.981.49c.002.813.06 1.11.127.66a5.278 5.278 0 0 0-.003-1.48c-.07-.363-.127.005-.124.82m-30.056-.828a4.222 4.222 0 0 0 1.332 0c.367-.07.067-.129-.666-.129-.733 0-1.032.059-.666.129m75.302.975a3.248 3.248 0 0 0 .254 1.036c.16.373.255.428.255.148a3.272 3.272 0 0 0-.255-1.036c-.16-.373-.254-.428-.254-.148m-13.302 1.164c.369.64.721 1.114.782 1.052a6.391 6.391 0 0 0-1.32-2.216 3.355 3.355 0 0 0 .538 1.164m-34.904 1.056c.002.814.06 1.112.127.662a5.278 5.278 0 0 0-.004-1.48c-.07-.364-.125.004-.123.818m22.179-.435a2.328 2.328 0 0 0-.358.949c.002.206.204-.012.45-.484.513-.984.445-1.326-.092-.465m-18.662.287c1.04 1.691 3.889 2.661 5.263 1.792.28-.177.003-.214-.796-.107a3.844 3.844 0 0 1-3.882-1.334c-.682-.716-.883-.837-.585-.351m45.24-.082a2.518 2.518 0 0 0 .609 1.01l.61.7-.52-.888c-.685-1.17-.7-1.186-.7-.822m20.939 1.342-.523.96.596-.7c.508-.594.78-1.228.523-1.222a5.388 5.388 0 0 0-.596.962m-82.379.294-.87.962.963-.87a7.396 7.396 0 0 0 .962-.962c0-.229-.244-.027-1.055.87m-7.01.444a2.324 2.324 0 0 0 1.05.657c.195-.005.088-.157-.237-.338s-.799-.476-1.051-.657c-.252-.18-.145-.028.239.338m41.301.518c.002.814.06 1.112.128.662a5.302 5.302 0 0 0-.004-1.48c-.07-.364-.126.004-.124.818m-30.868-.88c-.005 1.34 2.9 3.41 4.705 3.355l1.362-.043-1.48-.181a5.507 5.507 0 0 1-4.025-2.514c-.308-.507-.561-.784-.562-.617m8.88.364a3.971 3.971 0 0 1-.805 1.307c-.66.81-.681.88-.12.396.798-.687 1.342-1.608 1.096-1.853-.094-.095-.172-.027-.172.15m50.321-.04a7.895 7.895 0 0 0 1.554 1.751l1.554 1.469-1.48-1.622c-.814-.892-1.513-1.68-1.554-1.751s-.074-.003-.074.153m17.76 1.74a6.76 6.76 0 0 0-1.159 1.332 10.237 10.237 0 0 0 1.456-1.332 6.724 6.724 0 0 0 1.16-1.332 10.228 10.228 0 0 0-1.457 1.332m-54.535.95a3.237 3.237 0 0 0 1.184-.006c.283-.075-.019-.133-.67-.13-.65.004-.883.064-.514.136m-2.594.53c-.966.553-.628.559.632.012.548-.238.797-.434.552-.434a3.163 3.163 0 0 0-1.184.422m6.117.274a11.643 11.643 0 0 1 2.76 1.943c.678.678 1.092.97.92.65-.616-1.152-3.774-3.316-4.827-3.308-.21.002.307.323 1.147.715m18.66-.267a9.561 9.561 0 0 1-.944 1.695 3.438 3.438 0 0 0-.622 1.11 8.787 8.787 0 0 0 1.867-3.06c-.06-.181-.195-.066-.3.255m8.31.358a14.787 14.787 0 0 0 2.367-.001c.606-.064.036-.115-1.266-.115-1.303.002-1.798.054-1.102.116m-35.455 1.288-1.332 1.207 1.406-1.096c1.233-.96 1.598-1.322 1.332-1.32-.04.001-.673.545-1.406 1.21m15.225.53c.741.838 2.514 1.933 2.749 1.698.1-.1.036-.182-.141-.182a6.92 6.92 0 0 1-1.752-1.08c-.786-.595-1.17-.79-.856-.435m13.044.683a14.235 14.235 0 0 0-1.911 1.845c-.403.505.06.195 1.036-.694.97-.884 1.89-1.716 2.044-1.85.74-.643-.122-.127-1.17.7m16.02.23a13.664 13.664 0 0 1 2.125 2.146c1.42 2.03 1.604 2.227 1.093 1.174-.511-1.055-3.843-4.495-4.353-4.495-.17 0 .341.528 1.136 1.175m6.55-.966a4.222 4.222 0 0 0 1.332 0c.367-.07.067-.128-.665-.128-.733 0-1.033.057-.667.128m-66.38.52c-1.14.522-.942.526.889.018.896-.249 1.188-.413.74-.418a4.694 4.694 0 0 0-1.628.4m4.44.005a6.493 6.493 0 0 0 1.569.31c.164-.16-1.796-.748-2.427-.728-.342.01.044.2.858.418m-7.437 1.856c-.815.774-1.073 1.062-.574.642s1.291-1.053 1.76-1.406.73-.642.575-.642a7.886 7.886 0 0 0-1.76 1.406m10.616-.48a8.9 8.9 0 0 1 2.443 2.577c.57.912 1.037 1.541 1.037 1.398 0-1.106-3.607-4.912-4.641-4.897-.134.001.39.416 1.161.922m5.729.786a5.592 5.592 0 0 0-.397 2.742l.111 1.614.054-1.716a7.627 7.627 0 0 1 .521-2.618c.256-.496.41-.957.343-1.024-.069-.068-.353.383-.632 1.002m23.652-.528c-.806.205-.82.227-.148.24a3.85 3.85 0 0 0 1.332-.24c.73-.313.048-.313-1.184 0m3.394 2.532a2.903 2.903 0 0 0-.537 1.164c.062.062.414-.411.783-1.051.835-1.452.637-1.542-.246-.113m-1.285 2.956a3.318 3.318 0 0 0-.155 1.123c.02.406.12.26.273-.393.26-1.1.189-1.531-.118-.73m25.418 3.428c0 1.47.086 2.364.192 1.985a11.344 11.344 0 0 0 .01-4.154c-.11-.278-.2.698-.202 2.17m-53.243-.591a2.425 2.425 0 0 0-.067 1.067c.067.067.214-.297.326-.809a2.19 2.19 0 0 0 .068-1.067c-.076-.075-.222.288-.327.809m15.799.036c-.436.595-.508.802-.188.543.485-.394 1.22-1.505.995-1.505a5.233 5.233 0 0 0-.807.962m-10.52 1.472a3.934 3.934 0 0 0 1.162.815c.144.004-.122-.283-.592-.638-1.311-.99-1.566-1.07-.57-.177m8.479.108c-.553.393-.86.714-.683.714a3.103 3.103 0 0 0 1.154-.73c1.046-.92.836-.913-.471.016m-4.914 1.405a3.967 3.967 0 0 0 1.858-.017c1.013-.247.953-.268-.757-.252-1.434.013-1.685.075-1.101.27m-11.412 1.899-1.02 1.11 1.11-1.02a10.004 10.004 0 0 0 1.109-1.11c0-.227-.25-.014-1.2 1.02m30.825-.435a5.133 5.133 0 0 0 1.204 2.454c.316.19.328.15.059-.187a8.354 8.354 0 0 1-.79-1.463c-.247-.57-.46-.932-.473-.804m23.726 1.705a13.834 13.834 0 0 1-4.414 4.992c-.76.504-1.237.916-1.06.916 1.346 0 6.663-6.003 6.244-7.051-.055-.138-.4.377-.77 1.143m-65.783-.49a6.391 6.391 0 0 0 2.215 1.32c.062-.062-.41-.414-1.051-.782a3.325 3.325 0 0 0-1.164-.537m8.885.79c-.567.316-.834.572-.592.568a2.734 2.734 0 0 0 1.18-.585c.929-.727.736-.722-.588.016m-5.259.78a2.41 2.41 0 0 0 1.036 0c.285-.075.052-.135-.518-.135s-.803.06-.518.134m2.072 0a2.413 2.413 0 0 0 1.036 0c.285-.074.052-.134-.518-.134s-.803.06-.518.134m38.38 1.227a3.81 3.81 0 0 0 .808.962c.319.26.248.053-.188-.543-.778-1.061-1.07-1.259-.62-.42m6.373 4.32a2.094 2.094 0 0 0 1.185.442c.489-.021.453-.073-.182-.265a9.343 9.343 0 0 1-1.183-.44c-.217-.111-.135.008.18.263m3.057.681a7.895 7.895 0 0 0 1.776-.003c.445-.067.01-.122-.967-.12-.976.002-1.34.057-.809.123m-64.316 41.447c2.07.21 1.92-1.74 2 25.939l.072 25.198.078-25.135c.087-28.295.25-26.27-2.118-26.173l-1.213.05 1.18.12m76.515.047c1.02.137 1.412.349 1.698.918.255.506.374.583.377.243.008-.883-.848-1.43-2.163-1.383l-1.237.045 1.325.177m-79.331.934a1.56 1.56 0 0 0-.229.901c.054.161.25-.113.438-.609.389-1.03.272-1.192-.21-.292m76.439-.253a1.43 1.43 0 0 0-.321.962c.033.594.037.594.18.015a2.92 2.92 0 0 1 .445-.962c.383-.472.164-.483-.304-.015m-83.765.847a2.654 2.654 0 0 1 .805.805c.163.28.3.352.305.16a1.768 1.768 0 0 0-1.27-1.27c-.192.005-.12.142.16.305m1.463 3.127c-.081 1.586-.021 1.578-11.766 1.665l-10.926.082 10.97.07c12.194.078 12.112.09 11.893-1.72l-.124-1.022-.047.926m66.702.028c1.262.31 1.332.574 1.337 5.076a28.992 28.992 0 0 0 .222 4.673 20.426 20.426 0 0 0 .122-4.435c-.102-5.067-.233-5.55-1.496-5.493-.616.026-.654.064-.185.179m-90.006 10.146c0 3.989.042 5.62.093 3.627.05-1.995.05-5.258 0-7.253-.051-1.994-.093-.362-.093 3.626m86.306-.51c0 .357-.356.506-1.406.589l-1.406.11 1.415.054c1.344.05 2.147-.48 1.582-1.045-.102-.102-.185.03-.185.293m-27.159.121a2.437 2.437 0 0 0 1.036 0c.285-.074.052-.135-.518-.135s-.803.061-.518.135m-2.96.296a2.437 2.437 0 0 0 1.036 0c.285-.074.052-.135-.518-.135s-.803.06-.518.135m5.92 0a2.433 2.433 0 0 0 1.036 0c.285-.074.052-.135-.518-.135s-.802.06-.518.135m34.066.372c3.6.144 4.145.233 4.514.739.23.316.42.423.42.239 0-.963-1.274-1.259-5.173-1.2l-3.856.058 4.095.164m-44.056.47c-.74.358-.765.398-.148.247.839-.204 1.782-.685 1.332-.678a4.713 4.713 0 0 0-1.184.432m14.356-.011a3.268 3.268 0 0 0 1.037.423c.162 0-.037-.19-.445-.423a3.279 3.279 0 0 0-1.035-.423c-.163 0 .037.19.443.423m16.352-.247a1.796 1.796 0 0 0-.683.79c-.265.55-.252.577.09.198.221-.245.588-.61.816-.815.436-.388.393-.42-.223-.173m-32.928 1.31q-.737.603-.148.299c.965-.499 1.5-.909 1.184-.906a2.814 2.814 0 0 0-1.036.607m51.278 1.157c0 .57.061.803.135.518a2.433 2.433 0 0 0 0-1.035c-.074-.285-.135-.053-.135.517m-53.794.335a17.555 17.555 0 0 0-3.761 3.661c-.331.489.047.188.84-.669a26.03 26.03 0 0 1 3.048-2.738c.884-.65 1.484-1.172 1.332-1.16a6.387 6.387 0 0 0-1.459.906m23.68-.442c3.135 3.015 4.896 4.537 3.257 2.816a25.543 25.543 0 0 0-2.664-2.483c-.489-.34-.755-.49-.592-.333m-15.245 2.058c-.57.234-.703.34-.296.236a37.722 37.722 0 0 1 3.848-.398l3.108-.208-2.812-.027a11.626 11.626 0 0 0-3.848.397m7.252.121a3.252 3.252 0 0 0 1.036.254c.28 0 .225-.093-.148-.254a3.273 3.273 0 0 0-1.035-.254c-.28 0-.226.094.147.254m28.597.702c-.24.288-.313 3.12-.254 9.842l.083 9.437.07-9.487c.05-6.903.166-9.584.424-9.842.195-.196.279-.356.185-.356a1.153 1.153 0 0 0-.508.406m-23.712 1.244c0 .209.308.48 1.85 1.63 1.304.974.938.446-.518-.747-.733-.6-1.332-.998-1.332-.883m-68.078 1.067c-.012 1.373.37 1.427 9.953 1.427 6.092 0 9.236.108 9.673.333.544.28.586.268.262-.074-.304-.322-2.346-.437-9.76-.555l-9.375-.147-.374-.74c-.257-.507-.376-.584-.38-.244m76.081-.332a5.349 5.349 0 0 0 .73 1.167c.407.552.74.878.738.724-.001-.3-1.45-2.166-1.468-1.891m-55.96 4.336c-.08 1.01-.036 1.728.095 1.596a4.325 4.325 0 0 0 .144-1.836l-.095-1.596-.144 1.836m26.464-.05c-.27.411-.438.802-.372.868s.344-.271.618-.75c.612-1.064.43-1.152-.246-.119m-6.442 1.778a2.845 2.845 0 0 0-.16.975c.014.272.143.1.287-.38.279-.934.18-1.396-.127-.595m-39.95.63c-.378.379-.227 18.006.16 18.392.265.266 3.173.338 11.618.287l11.262-.07-11.396-.153-11.397-.153-.078-9.008c-.061-7.01.005-9.06.297-9.246.218-.138.24-.24.053-.242a.821.821 0 0 0-.518.193m39.548 2.17c0 .733.058 1.033.129.666a4.223 4.223 0 0 0 0-1.332c-.07-.366-.129-.066-.129.667m39.99 2.664c0 1.71.05 2.408.109 1.554a26.969 26.969 0 0 0 0-3.108c-.06-.855-.109-.156-.109 1.554m-5.363-1.629c.003.652.064.883.135.515a3.237 3.237 0 0 0-.006-1.184c-.074-.283-.132.018-.129.67m0 3.552c.003.65.064.883.135.514a3.237 3.237 0 0 0-.006-1.184c-.074-.282-.132.019-.129.67m-34.627.74c0 .732.058 1.032.129.666a4.223 4.223 0 0 0 0-1.332c-.07-.367-.129-.067-.129.665m39.625 1.382a5.997 5.997 0 0 1-.21 1.184c-.162.514-.153.515.167.016a1.877 1.877 0 0 0 .21-1.184c-.127-.657-.127-.657-.167-.016m-34.06.099c0 .427.835 2.12.856 1.736a6.012 6.012 0 0 0-.422-1.185c-.237-.547-.432-.795-.433-.551m46.536 3.996c.002.814.06 1.112.128.662a5.302 5.302 0 0 0-.004-1.48c-.07-.364-.127.004-.124.818m-14.584 1.554c-.33.61-.814 1.443-1.079 1.85l-.48.74.64-.74c.692-.802 1.906-2.96 1.666-2.96a3.876 3.876 0 0 0-.747 1.11m9.535-.222c0 .57.062.803.136.518a2.437 2.437 0 0 0 0-1.036c-.074-.285-.136-.052-.136.518m-17.384 1.685c-1.06.99-1.3 1.293-.592.756 1.116-.851 2.767-2.457 2.493-2.428a22.82 22.82 0 0 0-1.901 1.672m-27.37-1.225c.011.297 1.465 2.17 1.467 1.891a5.773 5.773 0 0 0-.738-1.167c-.407-.552-.736-.877-.73-.724m6.822.502c.069.04.524.407 1.012.814l.888.74-.718-.814a2.617 2.617 0 0 0-1.01-.814c-.162 0-.239.033-.171.074m38.165.986a2.149 2.149 0 0 0 .304 1.012c.22.324.247.204.102-.444-.243-1.089-.413-1.325-.406-.568m5.333.297a4.713 4.713 0 0 0 1.622 1.886c.324.237.122-.094-.448-.737s-1.07-1.225-1.11-1.294-.07-.005-.064.145m-47.52 1.855a28.903 28.903 0 0 0 2.665 2.487c1.37 1.059 1.111.788-1.924-2.01-1.798-1.657-1.938-1.748-.74-.477m29.146.562-1.617 1.702 1.702-1.618c1.58-1.503 1.837-1.786 1.617-1.786-.046 0-.812.766-1.702 1.702m-21.073-.813c1.257.766 1.668.765.51-.001a3.832 3.832 0 0 0-1.183-.59c-.163 0 .14.266.673.591m13.24-.001c-1.158.766-.746.767.51.001.534-.325.836-.59.673-.59a3.839 3.839 0 0 0-1.183.589m-42.413.906a2.655 2.655 0 0 1 .805.805c.163.28.3.352.305.16a1.768 1.768 0 0 0-1.27-1.27c-.192.005-.12.142.16.305m72.98.197a7.896 7.896 0 0 0 1.777-.004c.444-.067.009-.121-.968-.119-.977.002-1.34.057-.808.123m4.139.09a1.086 1.086 0 0 1 .689.796c.014.326.081.382.175.147.202-.501-.44-1.253-1.05-1.23-.325.013-.266.106.186.287m-42.626.403a10.515 10.515 0 0 0 3.108 0c1.392-.237 1.23-.264-1.554-.264-2.783 0-2.946.027-1.554.264m11.777 2.131a8.087 8.087 0 0 0-1.814 1.305 19.32 19.32 0 0 0 3.886-2.385c.235-.381.253-.39-2.072 1.08m19.387-.347a10.377 10.377 0 0 0 3.379 2.24c.171-.002-.287-.345-1.02-.761a15.443 15.443 0 0 1-2.063-1.403c-.579-.51-.641-.526-.296-.076m-55.468 1.147c-.481 1.914-4.245 1.963-4.712.061-.136-.551-.148-.547-.18.053-.074 1.377 1.949 2.044 3.924 1.293.795-.302 1.482-1.303 1.29-1.878-.063-.193-.209.018-.322.471m-39.264-.176c0 .396.815 1.446.987 1.273.08-.081-.108-.462-.42-.846s-.567-.577-.567-.427m106.883.127c-.034.685-.77 1.21-2.037 1.458l-1.095.212.946.034c1.099.04 2.637-1.101 2.376-1.763-.132-.334-.172-.32-.19.06m3.865.32q-.08 1.611 2.67 1.346c1.507-.145 2.63-.87 2.598-1.677-.012-.305-.113-.235-.288.198-.683 1.702-4.49 1.757-4.803.07-.136-.735-.138-.735-.177.064m-53.322.478a5.441 5.441 0 0 0 1.184.472c.514.138.604.114.296-.076a5.416 5.416 0 0 0-1.184-.472c-.514-.138-.605-.114-.296.076m14.356.209c-.74.356-.765.397-.148.246.84-.205 1.782-.685 1.332-.678a4.704 4.704 0 0 0-1.184.432m-63.695.359c3.715.047 9.709.047 13.32 0 3.611-.047.572-.086-6.754-.086-7.327 0-10.28.04-6.566.086m90.928.067c.566.25 2.453.42 2.195.196a7.309 7.309 0 0 0-1.455-.283q-1.334-.176-.74.087m-35.299.52a21.528 21.528 0 0 0 2.812 0c.774-.06.141-.11-1.406-.11s-2.18.05-1.406.11"/>
		<path fill="#dcdce4" d="M193.167 5.453a14.788 14.788 0 0 0 2.367-.001c.607-.064.037-.115-1.265-.114-1.303.001-1.798.052-1.102.115m-2.63.756a5.84 5.84 0 0 0 1.904 10.16c5.432 1.804 9.95-4.679 6.342-9.1a6.987 6.987 0 0 0-1.702-1.656c-.244-.063-.035.26.464.717 5.243 4.797-.123 12.717-6.202 9.154a5.487 5.487 0 0 1-.414-9.179c.535-.421.839-.763.676-.759a3.055 3.055 0 0 0-1.069.663m27.001 3.365c-1.489.786-3.582 2.867-3.234 3.215.085.085.509-.357.942-.983 3.613-5.212 12.028-2.323 12.028 4.13a6.646 6.646 0 0 1-11.616 4.618c-.774-.795-1.407-1.321-1.407-1.17a6.674 6.674 0 0 0 1.405 1.583c3.24 3.013 7.424 2.839 10.283-.43 4.974-5.685-1.757-14.47-8.4-10.963M164.93 12.41a4.919 4.919 0 0 0-1.858 3.695c.025.632.09.535.277-.417a4.465 4.465 0 0 1 4.467-3.94 4.188 4.188 0 0 1 2.757 7.374c-1.094.96-1.03 1.244.1.451 3.499-2.45 1.475-8.12-2.898-8.12a3.197 3.197 0 0 0-2.845.957m48.74 2.244a4.444 4.444 0 0 0 .094 2.902c.243.795.453 1.22.464.946a4.278 4.278 0 0 0-.291-1.318 3.677 3.677 0 0 1 .034-2.255 4.179 4.179 0 0 0 .197-1.584c-.082-.082-.306.507-.498 1.309m-50.335 2.786c0 1.552 3.546 3.54 5.276 2.956.692-.232.624-.263-.54-.242a4.049 4.049 0 0 1-3.937-1.964c-.44-.678-.799-1.015-.799-.75m77.406 5.818c-1.44.704-1.252.781.444.183 3.31-1.168 6.933.258 9.146 3.6.505.762.918 1.25.918 1.084 0-3.23-7.117-6.525-10.508-4.867m-2.794 1.682c-1.29 1.165-2.684 3.338-2.68 4.178.002.296.342-.188.755-1.075a10.848 10.848 0 0 1 2.137-2.886c.761-.7 1.288-1.273 1.17-1.273a6.286 6.286 0 0 0-1.382 1.056m-62.402 3.589a2.437 2.437 0 0 0 1.037 0c.284-.074.052-.136-.518-.136s-.804.062-.519.136m75.852 2.608c0 1.353.098 2.306.218 2.118a7.057 7.057 0 0 0 .217-2.118 7.057 7.057 0 0 0-.217-2.118c-.12-.188-.218.765-.218 2.118m-16.344 0c.003.814.06 1.112.128.662a5.273 5.273 0 0 0-.004-1.48c-.07-.364-.126.004-.124.818m.235 2.116c-.026.73 1.786 3.556 2.717 4.235 3.637 2.655 6.899 2.792 10.316.433 1.11-.766 2.928-3.06 2.928-3.691 0-.2-.473.354-1.05 1.232-3.816 5.792-11.982 4.7-14.541-1.943-.283-.734-.352-.784-.37-.266m-23.334.308a2.437 2.437 0 0 0 1.036 0c.285-.074.052-.136-.517-.136s-.804.062-.519.136m-1.962 1.108c-2.196 2.879 1.723 7.002 4.58 4.821 1.886-1.44 1.493-5.837-.522-5.837-.344 0-.27.16.266.582 2.427 1.909 1.304 5.338-1.746 5.338a2.838 2.838 0 0 1-2.139-4.874c.505-.575.788-1.046.627-1.046-.16 0-.64.457-1.066 1.016m-80.328 7.476a2.437 2.437 0 0 0 1.037 0c.285-.074.051-.135-.519-.135s-.802.061-.518.135m96.72.605c-.887.342-2.367 1.64-2.367 2.078 0 .294.214.177.618-.337a3.95 3.95 0 0 1 6.933 1.119c1.476 3.864-3.76 6.989-6.571 3.922-.54-.588-.98-.945-.98-.794 0 .557 1.95 2.086 2.886 2.263 2.156.408 3.79-.506 4.924-2.755 1.47-2.914-2.288-6.708-5.442-5.496m30.65 1.687c-1.116.345-1.052.362 1.398.34 2.325-.021 2.478-.057 1.615-.371a3.578 3.578 0 0 0-3.014.031m-2.732.982c-.31.285-.418.423-.239.308a8.11 8.11 0 0 1 1.05-.499c.458-.183.546-.296.24-.308a1.838 1.838 0 0 0-1.05.499m7.784-.143c.345.2 1.144.655 1.776 1.01a10.184 10.184 0 0 1 4.045 5.868c.13.529.149.52.18-.085.068-1.36-2.926-5.984-3.876-5.984a2.913 2.913 0 0 1-1.042-.592 2.665 2.665 0 0 0-1.23-.587c-.363.003-.327.092.147.37m-38.282 1.55c.002.813.06 1.111.128.66a5.272 5.272 0 0 0-.004-1.479c-.07-.364-.126.004-.124.818m27.889.483c-4.472 4.95-3.325 11.796 2.542 15.166a5.436 5.436 0 0 0 2.22.75l.862-.031-.889-.217a9.34 9.34 0 0 1-4.249-15.75c.628-.627 1.023-1.14.88-1.14a5.259 5.259 0 0 0-1.366 1.222m-51.29 4.401c0 .57.062.803.136.518a2.434 2.434 0 0 0 0-1.035c-.074-.285-.135-.052-.135.517m15.398.796a2.41 2.41 0 0 0 1.035 0c.285-.074.052-.135-.517-.135s-.803.06-.518.135m-55.354 2.073a2.437 2.437 0 0 0 1.036 0c.285-.075.052-.136-.518-.136s-.803.06-.518.136m107.02 2.06a4.274 4.274 0 0 0-.373 1.544c.206.206 1.068-2.043.968-2.523-.05-.238-.317.203-.595.98m-31.88.773a5.765 5.765 0 0 0-2.588 5.923c.24.952 2.487 3.47 3.098 3.47.29 0 .041-.302-.617-.75-4.248-2.887-2.219-8.993 2.88-8.669a4.717 4.717 0 0 1 2.425 8.572c-.644.466-.977.848-.74.848.627 0 2.22-1.75 2.751-3.025 1.708-4.096-3.197-8.431-7.208-6.37m-25.405 1.107c0 .732.058 1.032.128.665a4.223 4.223 0 0 0 0-1.332c-.07-.366-.128-.066-.128.667m55.888.998a10.515 10.515 0 0 1-4.957 3.412c-1.098.258-1.105.267-.218.296 1.601.052 6.692-3.857 5.967-4.582-.086-.085-.442.308-.792.874m-127.769 3.22-.87.962.963-.87c.897-.81 1.098-1.054.869-1.054a7.338 7.338 0 0 0-.962.962m119.68.726a4.222 4.222 0 0 0 1.331 0c.367-.07.067-.127-.665-.127-.733 0-1.033.057-.667.127m-36.287 3.202a2.375 2.375 0 0 0 1.44 4.286c2.816 0 3.042-4.208.262-4.886-.576-.14-1.001.01-1.702.6m3.128.9a1.817 1.817 0 0 1 .088 1.889 1.944 1.944 0 0 1-3.668-.215c-.742-2.586 2.437-4.073 3.58-1.675m12.591-.545a5.273 5.273 0 0 0 1.48-.004c.364-.07-.004-.126-.818-.123s-1.112.06-.662.127m25.9 2.661a3.237 3.237 0 0 0 1.184-.006c.283-.074-.018-.131-.67-.128s-.882.063-.514.134m-4.101.908a92.544 92.544 0 0 0-2.255 1.381c-1.066.686-3.46 4.134-3.245 4.671.115.286.159.278.176-.034.115-2.034 4.502-5.872 7.571-6.625.487-.12.46-.15-.147-.173a5.286 5.286 0 0 0-2.1.78m7.931-.27c6.58 2.274 9.338 10.117 5.513 15.677-6.462 9.39-20.19 4.358-19.239-7.052.138-1.65.117-1.776-.149-.888a13.257 13.257 0 0 0 .463 6.235 18.098 18.098 0 0 0 1.741 2.995c1.746 2.65 7.051 4.527 10.41 3.683 2.288-.574 4.999-2.012 5.729-3.038.278-.39.805-1.074 1.171-1.518 1.434-1.74 1.698-2.697 1.697-6.137-.003-3.495-.157-3.975-2.156-6.742-1.182-1.634-4.63-3.777-6.044-3.757-.4.006-.049.227.864.542m-28.216 4.61c-1.581.688-3.368 3.571-3.368 5.432 0 1.916 2.56 5.395 3.966 5.39.18 0-.08-.248-.574-.55a5.523 5.523 0 0 1-1.014-9.043c1.272-1.149 1.721-1.307 4.134-1.448 1.622-.096 1.621-.097-.296-.14a8.622 8.622 0 0 0-2.848.36m6.05.752a5.8 5.8 0 0 1 0 9.188c-1.272.92-1.216 1.257.063.381a6.173 6.173 0 0 0-.924-10.45c-.197 0 .19.396.86.881m-21.184 2.06c-.528.33-.962.748-.962.928 0 .18.41-.018.911-.44 1.337-1.125 2.8-.871 4.039.7.897 1.14.136 3.229-1.397 3.83-.652.256-.667.293-.13.31a2.501 2.501 0 0 0 1.406-.812c2.366-2.469-.95-6.341-3.867-4.517m-1.213 2.623c-.049 1.394.917 2.742 1.94 2.706.389-.014.333-.098-.206-.314-.919-.366-1.285-.966-1.512-2.48l-.177-1.184-.045 1.272m17.61 5.753a5.124 5.124 0 0 0 2.972-.004c.192-.123-.429-.222-1.381-.222s-1.667.101-1.59.226m-123.626 1.208a7.504 7.504 0 0 0 .962.962l.962.87-.87-.963c-.81-.896-1.054-1.098-1.054-.869m104.615 1.65a4.706 4.706 0 0 0-1.9 3.195c0 .91 2.01 3.349 2.76 3.35.135 0-.183-.36-.706-.8-1.402-1.18-1.877-2.488-1.354-3.738a3.258 3.258 0 0 1 6.023-.395c.275.491.362.527.37.154.037-1.723-3.365-2.88-5.193-1.767m-96.845 2.31a2.413 2.413 0 0 0 1.036 0c.285-.074.052-.135-.518-.135s-.803.06-.518.135m102.038.906a3.322 3.322 0 0 1-1.638 2.754c-.527.348-.686.573-.405.575.827.003 2.09-1.63 2.264-2.926.09-.67.08-1.217-.023-1.217s-.192.367-.198.814m11.188-.308a3.22 3.22 0 0 0 1.185-.007c.282-.073-.019-.131-.67-.128-.65.004-.883.064-.515.135m-3.356 1.048a5.293 5.293 0 0 0-1.557 1.406c-.074.245.225.088.666-.348a9.448 9.448 0 0 1 2.042-1.406c.682-.337 1.022-.613.756-.613a6.005 6.005 0 0 0-1.907.961m6.54-.338a6.823 6.823 0 0 1 3.709 4.515l.221.93.03-.888c.055-1.687-3.111-5.175-4.7-5.18-.242 0 .09.28.74.623m-93.858 3.003-.869.962.962-.87c.896-.81 1.098-1.054.87-1.054a7.34 7.34 0 0 0-.963.962m107.765-.37c-1.578.73-.973.74.889.013.813-.318 1.213-.574.887-.57a6.086 6.086 0 0 0-1.776.557m7.494.154a11.91 11.91 0 0 1 6.961 5.533c.265.534.484.752.487.481.028-2.066-6.296-6.806-9.004-6.747-.335.007.365.337 1.556.733m-30.246.27a2.955 2.955 0 0 0-.484 1.255c0 .285.264-.001.587-.635.676-1.325.612-1.711-.103-.62m-62.781 1.13c-3.004 1.977-4.01 5.555-2.356 8.377.777 1.327 2.277 2.797 2.854 2.797.174 0-.136-.304-.689-.676-4.908-3.295-2.338-11.168 3.644-11.164a6.159 6.159 0 0 1 4.491 2.028c.741.682.81.701.522.146-1.253-2.426-5.834-3.242-8.466-1.508m82.284.156c-5.409 4.097-6.61 11.023-2.851 16.434 1.028 1.48 2.653 3.168 3.05 3.168.156 0-.133-.35-.643-.78a14.693 14.693 0 0 1-2.05-2.442c-3.814-5.642-2.61-12.123 3.048-16.403.797-.603 1.33-1.095 1.184-1.094a8.249 8.249 0 0 0-1.738 1.117m-20.135 2.101c.122 1.506.882 3.249 1.255 2.876.094-.094-.046-.414-.314-.708a5.66 5.66 0 0 1-.778-2.148l-.292-1.612.129 1.592m-16.719-.629c-3.83 1.924-2.526 8.066 1.712 8.066.998 0 3.61-1.307 3.61-1.806 0-.149-.552.13-1.228.62-3.945 2.857-8.449-2.485-4.91-5.826a3.543 3.543 0 0 1 5.218-.079c.507.463.92.739.92.614 0-1.476-3.479-2.515-5.322-1.589m-36.71.768a8.744 8.744 0 0 0 .478 1.062 4.68 4.68 0 0 1 .345 2.561c-.154 1.86.086 1.98 1.989 1.01.747-.38.954-.588.58-.582a2.353 2.353 0 0 0-1.155.444c-.916.693-1.054.534-1.054-1.208a6.807 6.807 0 0 0-.45-2.516c-.39-.752-.734-1.114-.734-.77m66.643.577a7.615 7.615 0 0 1-1.924 3.463l-.93 1.037 1.137-1.037c1.363-1.243 2.053-2.472 1.882-3.35-.092-.478-.135-.508-.165-.113m-24.515 2.576c0 1.058.054 1.491.12.962a9.39 9.39 0 0 0 0-1.924c-.066-.53-.12-.097-.12.962m49.635-.184a10.685 10.685 0 0 0 .444 1.174 12.659 12.659 0 0 1-.004 6.613 2.555 2.555 0 0 0-.313 1.206c.89.891 1.42-6.093.609-8.033-.38-.908-.736-1.374-.736-.96m-37.001.37c0 1.132 3.14 2.774 5.304 2.774 1.627 0 3.88-.684 3.5-1.063-.073-.073-.518.07-.99.316-1.98 1.033-4.909.428-6.852-1.417-.53-.501-.962-.776-.962-.61m-48.706.917a6.45 6.45 0 0 1 1.332.59l.752.443-.698-.624a2.28 2.28 0 0 0-1.332-.59c-.585.032-.59.046-.054.181m2.887 1.805a5.868 5.868 0 0 1-.138 7.682l-.93 1.102 1.053-.98c2.363-2.198 2.17-7-.343-8.497-.245-.146-.083.166.358.693m16.257.2c-1.372 1.24-2.052 3.18-1.574 4.491.274.754.307.673.328-.822a4.394 4.394 0 0 1 2.397-4.187c.592-.297.81-.518.513-.518a4.1 4.1 0 0 0-1.664 1.035m4.845-.617c4.121 1.831 3.403 7.493-1.094 8.615a4.561 4.561 0 0 1-3.988-1.6c-.54-.588-.983-.928-.984-.755-.003.37 1.287 1.588 2.43 2.296 3.386 2.098 8.151-2.697 6.294-6.335-.645-1.263-2.171-2.615-2.954-2.616-.443 0-.369.1.296.395m-87.401 1.95c0 .57.06.802.135.518a2.434 2.434 0 0 0 0-1.036c-.074-.285-.135-.052-.135.518m71.679-.322c-1.229.558-2.78 2.243-2.775 3.014.001.229.33-.133.733-.803 3.2-5.34 11.367-.891 8.716 4.748-1.897 4.036-7.301 3.79-9.21-.421-.161-.356-.205-.362-.221-.028-.125 2.49 5.046 4.55 7.567 3.012 5.745-3.503 1.302-12.298-4.81-9.522m33.42.002a7.67 7.67 0 0 0 .856 14.87 6.29 6.29 0 0 0 4.3-.545c.503-.414.5-.426-.061-.229-7.992 2.812-13.923-6.919-7.545-12.378 7.192-6.156 16.308 4.21 9.6 10.918-1.371 1.372-1.45 1.597-.298.842 6.947-4.552 1.04-16.169-6.853-13.478m-50.526 1.155a5.248 5.248 0 0 1-4.172.548c-.667-.181-.805-.157-.554.1.711.723 2.573.675 4.52-.116a6.014 6.014 0 0 1 2.14-.604c.142.088.258-.048.258-.301 0-.608-.441-.533-2.192.373m1.896 3.06c0 .607 2 3.212 2.456 3.2.214-.006.165-.155-.125-.376a9.872 9.872 0 0 1-1.406-1.825c-.509-.802-.925-1.251-.925-.999m92.265 1.452a10.119 10.119 0 0 1-1.906 2.588c-1.854 1.979-2.034 2.546-.229.723 1.452-1.466 2.611-3.207 2.452-3.683-.07-.21-.213-.043-.317.372m-88.564 2.186a5.072 5.072 0 0 0 3.995-.01c.911-.373.929-.399.149-.211a10.616 10.616 0 0 1-4.144 0l-.889-.211.889.432m31.307 1.263a5.273 5.273 0 0 0 1.48-.004c.363-.07-.005-.126-.819-.124s-1.112.06-.661.128m-3.66.955c-4.062 2.69-5.302 6.957-3.218 11.079a8.443 8.443 0 0 0 1.767 2.513 12.293 12.293 0 0 1 1.277.966c1.448 1.31 6.483 1.851 7.452.8.214-.233.09-.267-.44-.118-9.915 2.776-15.033-10.86-5.773-15.383.939-.458 1.255-.724.865-.725a5.18 5.18 0 0 0-1.93.868m7.577-.163a9.744 9.744 0 0 1 4.966 6.248c.138.562.147.56.18-.038.127-2.327-3.909-6.927-6.069-6.915-.306.001.109.318.923.705m24.717.039-1.036.44 1.184-.218a18.584 18.584 0 0 1 5.624-.001c.996.192 1.09.171.592-.13-.914-.554-5.133-.615-6.364-.091m11.997.699c2.412 2.305 10.189 2.263 12.19-.066l.53-.617-.844.533c-3.227 2.037-10.993 1.97-11.684-.1a.49.49 0 0 0-.439-.308c-.185 0-.075.25.247.558m-14.761.217c-.463.25-.777.52-.698.598a2.73 2.73 0 0 0 1.28-.467c.625-.336.94-.605.698-.598a3.942 3.942 0 0 0-1.28.467m11.558.497c6.565 3.386 9.271 12.298 5.534 18.23-.487.774-.487.774.104.182.592-.592 1.631-3.694 1.982-5.92.753-4.772-5.228-13.61-9.103-13.454-.195.008.472.44 1.483.962m-57.803.752c-2.8 1.042-6.049 4.202-6.048 5.883 0 .29.296-.07.656-.803 5.076-10.3 20.226-3.707 16.667 7.253-.106.325.045.192.334-.297 3.455-5.816-4.939-14.52-11.609-12.036m43.51.361a13.525 13.525 0 0 0 .11 21.153 7.65 7.65 0 0 0 2.117 1.326c.235 0-.164-.382-.888-.85a13.1 13.1 0 0 1-1.292-21.184c.912-.742 1.531-1.35 1.376-1.35a5.213 5.213 0 0 0-1.422.905m-14.294 6.249a4.97 4.97 0 0 1-.232 1.036c-.148.419-.109.466.173.206a1.256 1.256 0 0 0 .232-1.036c-.073-.385-.15-.477-.173-.206m-35.69 1.504a9.645 9.645 0 0 0 .066 2.59c.182.795.24.435.254-1.554.02-2.96-.074-3.266-.32-1.036m34.572 1.307a9.273 9.273 0 0 1-2.116 2.385c-1.914 1.548-1.602 1.698.357.173 1.264-.986 2.79-3.195 2.446-3.54-.075-.075-.385.367-.687.982m-34.116 2.912c-.086 3.168 6.018 6.484 10.593 5.753 2.292-.366 2.354-.397 4.19-2.11.577-.539.71-.71.296-.381a9.335 9.335 0 0 1-14.904-3.41c-.113-.313-.164-.27-.175.148m16.402 1.545-.52.822.685-.657c.377-.362.61-.732.52-.823-.09-.092-.4.204-.685.658m51.712 5.25a19.077 19.077 0 0 1-4.06 3.422c-.468.2-.49.257-.1.272.857.033 5.314-3.895 4.895-4.314-.077-.076-.407.202-.735.62m-14.864 4.304a2.757 2.757 0 0 0 1.48.56c.656-.018.633-.052-.208-.295a2.6 2.6 0 0 1-1.127-.565.677.677 0 0 0-.532-.285c-.194.004-.02.268.387.585m9.353-.37a4.695 4.695 0 0 1-1.16.57c-.518.191-.714.358-.436.37.648.03 2.012-.59 2.012-.913 0-.308-.132-.315-.416-.027m-5.85 1.245a8.138 8.138 0 0 0 2.369-.003c.803-.156.47-.21-1.284-.208-1.939.002-2.135.04-1.085.211M193.9 155.812a2.434 2.434 0 0 0 1.036 0c.285-.075.052-.135-.518-.135s-.803.06-.518.135m-18.013 28.044c-1.339.582-1.293-.366-1.298 27.328-.005 29.325-.277 26.714 2.795 26.714 1.938 0 2.943-.409 3.385-1.378.691-1.518.44-51.793-.263-52.495-.71-.71-3.171-.8-4.62-.17m76.498-.086c-1.43.523-1.429.506-1.429 27.533v25.412l.624.624c1.44 1.44 5.669.415 5.552-1.347-.036-.557-.05-.552-.168.054-.259 1.344-3.666 2.186-5.12 1.267-.745-.471-.663-52.159.085-52.906.904-.906 4.364-.755 4.857.211.339.663.378.676.382.133.009-1.261-2.572-1.79-4.783-.98m-72.137.448c.425.512.806 49.028.403 51.255-.36 1.986-3.877 3.09-5.303 1.664-.556-.556-.723-50.62-.174-52.065.503-1.323 4.172-1.94 5.074-.854m-39.508 1.236c-.449.495-.49 2.705-.49 25.701v25.16l.685.643c.683.642.715.644 14.793.644h14.107l.47-.908a2.212 2.212 0 0 0 .327-1.258c-.08-.192-.153-.117-.166.168-.078 1.714.032 1.702-14.95 1.702H141.77l-.614-.78c-.61-.775-.613-.94-.613-25.47v-24.69l.726-.726c.421-.422.565-.727.342-.727a1.592 1.592 0 0 0-.874.541m27.57-.231c.722.29 1.358 1.525 1.685 3.27.39 2.083.617 2.044-11.799 2.044-8.177 0-11.112.092-11.375.355-.532.533-.504 16.026.03 16.47.253.209 3.57.348 9.644.405 10.652.1 10.099-.06 10.099 2.919 0 1.788-.252 2.201-1.48 2.427l-.74.136.793.04c1.716.088 2.51-3.362 1.158-5.033l-.566-.699-9.425-.148-9.424-.148-.08-7.971c-.06-6.18.006-8.026.297-8.21.206-.131 5.24-.24 11.187-.243 13.182-.005 12.833.108 11.674-3.793q-.645-2.173-1.968-2.112c-.214.01-.084.14.29.29m65.97 3.851c-.952.682-1.667 1.417-1.655 1.702.018.437.048.432.235-.043a9.365 9.365 0 0 1 3.912-2.563c1.094 0 1.304.828 1.456 5.742l.148 4.766 4.243.148c4.886.17 5.081.276 5.081 2.74 0 2.566-.038 2.588-4.574 2.588a33.293 33.293 0 0 0-4.43.18c-.5.192-.7 21.25-.229 23.92.113.636.205-4.425.205-11.25v-12.405l4.13-.084c5.034-.1 5.195-.188 5.195-2.866 0-2.894-.083-2.944-5.082-3.119l-4.243-.148-.148-4.766c-.197-6.346-.81-7.001-4.244-4.542m-31.408 9.12c-.48.104.912.188 3.09.188 2.18 0 3.572-.084 3.092-.187a25.659 25.659 0 0 0-6.182 0m-3.865.62c-.326.137-.977.4-1.447.582-.47.184-.79.399-.712.477a2.783 2.783 0 0 0 1.3-.352 14.02 14.02 0 0 1 2.19-.71c1.008-.207 1.013-.214.15-.229a4.459 4.459 0 0 0-1.481.233m12.677-.023c4.794 1.03 11.34 6.797 13.076 11.52.221.601.411.922.423.714.195-3.556-8.904-11.974-13.366-12.367l-1.266-.11 1.133.243m16.932.403c-.942.82-1.698 4.127-1.083 4.742.387.389 5.11.813 4.878.438a6.077 6.077 0 0 0-2.156-.222c-2.408 0-2.845-.34-2.557-1.995.464-2.668 1.073-3.251 3.574-3.421l1.48-.101-1.685-.054c-1.372-.043-1.829.071-2.451.613m-34.727 2.4c-2.926 1.97-5.878 5.423-6.873 8.043-.636 1.671-.239 1.293.78-.744a21.971 21.971 0 0 1 6.368-7.164c1.319-.855 1.64-1.129 1.32-1.129a14.904 14.904 0 0 0-1.595.994m8.211 2.43a11.332 11.332 0 0 0-4.767 2.42c-.317.395-.216.378.491-.083 2.653-1.732 2.855-1.81 5.743-2.205 2.442-.335 6.383-.027 7.826.61a15.954 15.954 0 0 1 2.859 1.719 13.968 13.968 0 0 0 1.146 1.014 19.297 19.297 0 0 1 2.294 2.489c1.405 1.808 1.797 1.917.5.139-3.934-5.398-9.813-7.627-16.092-6.103m-7.362 4.786a12.739 12.739 0 0 0-1.799 2.28c0 .338-.01.349 2.189-2.276 2.156-2.572 1.93-2.575-.39-.004m-8.635 3.219a9.612 9.612 0 0 0-.44 2.335l-.1 1.48.285-1.574a10.152 10.152 0 0 1 .603-2.171c.176-.329.246-.671.156-.76-.09-.091-.317.22-.504.69m6.298.457a26.022 26.022 0 0 1-.51 1.583c-.152.402-.126.497.08.295a5.328 5.328 0 0 0 .871-2.711c-.086-.086-.284.29-.441.833m32.803-.784a2.725 2.725 0 0 0 .303.752 12.041 12.041 0 0 1 .554 2.72c.219 1.883.255 1.974.288.728.042-1.54-.467-3.965-.886-4.225-.142-.088-.26-.076-.26.025m-6.072.854c.262 1.212.988 2.792 1.017 2.21a5.829 5.829 0 0 0-.588-1.775c-.452-.952-.564-1.066-.429-.435m-72.665 9.593c0 6.467.095 8.916.355 9.177.263.264 3.254.355 11.627.355 12.738 0 12.807.01 12.488 1.97-.096.592-.048.933.116.831.488-.302.307-2.091-.263-2.607-.484-.438-1.751-.49-11.978-.49-11.115 0-11.445-.016-11.752-.59-.207-.388-.287-3.467-.232-9.028a80.724 80.724 0 0 0-.14-8.439c-.121 0-.221 3.97-.221 8.821m45.062-6.453c0 .57.06.804.135.519a2.437 2.437 0 0 0 0-1.036c-.075-.285-.135-.053-.135.517m28.75 2.369c0 1.546.05 2.179.111 1.406a21.54 21.54 0 0 0 0-2.813c-.06-.773-.111-.14-.111 1.407m-34.967 0c0 .57.061.802.136.517a2.434 2.434 0 0 0 0-1.035c-.075-.285-.136-.052-.136.518m40.781 2.375a11.605 11.605 0 0 1-.592 3.172c-.764 2.173-.748 2.667.03.964.579-1.265 1.163-5.624.753-5.624a3.082 3.082 0 0 0-.19 1.488m-34.565-.007c0 .57.06.802.135.518a2.433 2.433 0 0 0 0-1.036c-.075-.285-.135-.052-.135.518m-5.853 1.525c.096 1.446 1.003 4.046 1.036 2.97a2.636 2.636 0 0 0-.323-1.016 9.087 9.087 0 0 1-.58-2.127l-.245-1.5.112 1.673m33.663.964a13.11 13.11 0 0 1-4.89 6.729c-.79.628-1.336 1.142-1.216 1.142a22.122 22.122 0 0 0 3.244-2.51c1.687-1.697 3.843-5.841 3.623-6.963-.048-.244-.39.477-.76 1.602m-27.54-1.01a6.054 6.054 0 0 0 .548 1.629c.301.65.548.984.548.74a6.082 6.082 0 0 0-.548-1.629c-.302-.65-.548-.984-.548-.74m1.14 3.084c0 .885 4.837 5.797 5.708 5.797.156 0-.486-.598-1.427-1.329a18.384 18.384 0 0 1-2.877-2.886c-1.38-1.84-1.404-1.868-1.404-1.582m-6.215.707c-.007 2.358 5.776 8.656 9.767 10.637 5.36 2.66 13.614 2.662 18.907.005 2.445-1.229 6.186-4.3 6.895-5.662.18-.347-.244.015-.945.802a23.164 23.164 0 0 1-5.32 4.22c-5.277 3.019-14.84 3.02-20.13.002a20.55 20.55 0 0 1-8.357-8.762c-.449-.896-.816-1.454-.817-1.242m37.911.52a11.702 11.702 0 0 1-1.06 2.034c-.57.946-.84 1.558-.6 1.36.636-.529 1.97-3.017 1.816-3.39-.09-.217-.14-.22-.156-.005m8.103 2.35c.347 5.719 3.789 9.053 9.565 9.266 5.44.2 6.286-.262 6.286-3.451 0-2.097-.585-2.452-3.849-2.336l-2.812.099 2.876.062c3.367.072 3.654.309 3.412 2.823-.22 2.295-.728 2.566-4.816 2.566-6.562 0-9.427-2.53-10.524-9.29l-.246-1.514.108 1.776m6.674 1.925a3.584 3.584 0 0 0 1.87 1.479 6.091 6.091 0 0 0-1.052-1.184q-2.115-2.115-.818-.295m-40.257.436a5.492 5.492 0 0 0 1.983 1.042c.13 0-.199-.267-.732-.592-.99-.604-1.25-.698-1.25-.45m12.136.45c-.57.313-.837.573-.593.579a3.357 3.357 0 0 0 1.332-.578c1.13-.748.625-.748-.74 0m-8.405.945a24.054 24.054 0 0 0 6.154 0c.677-.12-.596-.205-3.077-.205-2.48 0-3.753.085-3.077.205"/>
	</g>
</svg>
