<svg xmlns="http://www.w3.org/2000/svg" width="200" height="128">
    <path fill="#808285" d="M27.82 76.52a.13.13 0 01-.1 0 13.36 13.36 0 01-5.56-4.81A13.25 13.25 0 0120.78 60a13.46 13.46 0 012.13-3.85 13.28 13.28 0 017.33-4.62.19.19 0 01.26.16c0 .13 0 .26-.16.26a12.94 12.94 0 00-7.08 4.46 12.68 12.68 0 00-2.06 3.72 12.89 12.89 0 001.32 11.34 12.7 12.7 0 005.36 4.65c.13.07.17.2.1.29s-.06.11-.16.11zM36.38 77.36a.22.22 0 01-.22-.16.19.19 0 01.16-.26 13 13 0 007-4.49 13.62 13.62 0 002.07-3.68 13.18 13.18 0 00.74-4.3 12.9 12.9 0 00-7.3-11.6.22.22 0 11.19-.39 13.59 13.59 0 015.46 4.82 13.09 13.09 0 012.1 7.17 13.24 13.24 0 01-.77 4.46 12.35 12.35 0 01-2.14 3.81 13.55 13.55 0 01-7.27 4.66l-.02-.04z"/>
    <path fill="#f2bc24" d="M30.73 83.34h-.1a.23.23 0 01-.16-.29l2-6.72a.23.23 0 01.45.13l-2 6.72a.34.34 0 01-.19.16zM29.82 86.44h-.09a.24.24 0 01-.17-.29l.44-1.26a.23.23 0 01.29-.16.22.22 0 01.16.29L30 86.28a.21.21 0 01-.18.16zM33.18 75.07h-.09a.24.24 0 01-.17-.29l.29-1a.25.25 0 01.3-.17.25.25 0 01.16.29l-.33 1a.15.15 0 01-.16.17zM33.21 80.53h-.09a.22.22 0 01-.16-.29l2.81-9.5a.23.23 0 11.45.13l-2.81 9.5a.23.23 0 01-.2.16zM33.67 53.68h-.1a.23.23 0 01-.16-.29l3.17-10.76a.23.23 0 01.45.13l-3.17 10.76a.2.2 0 01-.19.16zM33.25 49.54h-.1a.23.23 0 01-.16-.29l.39-1.25a.23.23 0 01.45.13l-.36 1.26a.23.23 0 01-.22.15zM30.66 58.3h-.09a.24.24 0 01-.17-.3l1.91-6.46a.22.22 0 01.29-.16.23.23 0 01.16.29l-1.9 6.46a.18.18 0 01-.2.17z"/>
    <path fill="#6ed6d3" d="M34.47 60.4a3.86 3.86 0 012.11 1.49A7.51 7.51 0 0135.9 60a5.87 5.87 0 01-.13-.87 5.61 5.61 0 00-.84-.32 3.79 3.79 0 00-.88-.16l-.58.67a7.09 7.09 0 01-1.55 1.26 3.66 3.66 0 012.55-.18z"/>
    <path fill="#6ed6d3" d="M43.46 66.86a21.69 21.69 0 01-5-5A5.72 5.72 0 0138.9 65c.26.29.52.55.81.84l.06.07a.11.11 0 00-.09 0l-1.17.29a16 16 0 00-3 1.16 2.91 2.91 0 01-.42.23A8.06 8.06 0 0033.38 69c-.2.19-.36.42-.55.64A19 19 0 0031.24 72a19.25 19.25 0 00-.16-2.81c0-.29-.09-.55-.13-.81a7 7 0 00-.77-2.07c-.07-.13-.16-.26-.23-.39a3.82 3.82 0 011.23-4.84 16.87 16.87 0 01-2.88 1.1l-.19.58a4.84 4.84 0 00-.13.64 5.17 5.17 0 00.52 3.27 4.71 4.71 0 01.32.58 5.56 5.56 0 01.55 1.48c.74 3.72-.29 10-.78 12.54v.07s0 .06.07.09.07 0 .07-.06c.9-2.46 3.26-8.37 5.84-11.15a7.56 7.56 0 011.23-1c.2-.13.39-.23.62-.36a20.82 20.82 0 017-1.74.08.08 0 00.07-.07c0-.15 0-.19-.03-.19z"/>
    <path fill="#f26c4a" d="M32.37 67.86a3.93 3.93 0 01-2.22-1.64 7.35 7.35 0 01.77 2.06 5.69 5.69 0 01.13.81 7 7 0 00.84.33 5.12 5.12 0 00.9.16c.2-.23.36-.46.55-.65a7.77 7.77 0 011.72-1.36 3.61 3.61 0 01-2.69.29z"/>
    <path fill="#f26c4a" d="M38.48 61.89c-.19-.29-.35-.62-.52-.91a7.34 7.34 0 01-.45-1.29c-.77-3.72.26-10 .75-12.57s0-.1-.07-.1-.1 0-.1.07c-.9 2.45-3.29 8.37-5.84 11.15a5.2 5.2 0 01-1.07.87 9.84 9.84 0 01-.91.52 21.89 21.89 0 01-6.85 1.68.06.06 0 00-.06.06.14.14 0 000 .1 21.34 21.34 0 015.08 5.13 5.61 5.61 0 01-.44-3.26c-.26-.29-.55-.55-.84-.84l-.16-.06a.1.1 0 00.1 0c.39-.09.78-.19 1.13-.29A14.8 14.8 0 0031.15 61a7.34 7.34 0 01.71-.42 7.34 7.34 0 001.55-1.26 6.66 6.66 0 00.58-.67 21 21 0 001.58-2.3v.75c0 .71.07 1.38.13 2 0 .29.1.58.13.87a7.93 7.93 0 00.68 1.88 4.92 4.92 0 01.42.71 3.85 3.85 0 01-1.42 4.78 14.57 14.57 0 013-1.16c.07-.2.17-.39.23-.62a3.44 3.44 0 00.13-.61 5.34 5.34 0 00-.39-3.06z"/>
    <path d="M75.06 71.45H63.78v-5.94h8.43a.43.43 0 00.42-.42V63a.43.43 0 00-.42-.42h-8.43v-5.86h11.15a.44.44 0 00.42-.42v-2.13a.43.43 0 00-.42-.42H63.68a2.87 2.87 0 00-3 3v17.03c0 .45.22.68.64.68h13.77a.43.43 0 00.42-.42V71.9c-.07-.26-.23-.45-.45-.45zM96 59.88a6 6 0 00-5.07 2.43 5.84 5.84 0 00-5-2.43 6.1 6.1 0 00-4.11 1.49v-.81a.43.43 0 00-.42-.42h-2.1a.44.44 0 00-.42.42V74a.43.43 0 00.42.42h2.14a.43.43 0 00.42-.42v-7.56a3.56 3.56 0 013.71-3.71c2.15 0 3.43 1.27 3.43 3.65v5.56a.43.43 0 00.42.42h2.1a.43.43 0 00.42-.42v-5.5a3.56 3.56 0 013.72-3.71c2.23 0 3.45 1.29 3.45 3.65V74a.43.43 0 00.42.42h2.1A.42.42 0 00102 74v-8.3c0-3.49-2.39-5.82-6-5.82zM112.79 59.88a6.55 6.55 0 00-4.49 1.62v-4.75c0-2-1.19-3-2.55-3a.43.43 0 00-.42.42V74a.44.44 0 00.42.42h2.13a.43.43 0 00.42-.42v-1a6.54 6.54 0 004.49 1.61 7.41 7.41 0 000-14.8zm4.14 7.4a4.38 4.38 0 11-4.39-4.58 4.35 4.35 0 014.39 4.58zM131.79 60.72a.63.63 0 00-.51-.58 6.18 6.18 0 00-1.85-.19 5 5 0 00-3.58 1.39v-.75a.44.44 0 00-.42-.42h-2.1a.43.43 0 00-.42.42V74a.43.43 0 00.42.42h2.1a.44.44 0 00.42-.42v-7.49c0-2.26 1.29-3.78 3.2-3.78a9 9 0 012 .19c.26.07.48.13.55-.16 0 0 .19-1.71.19-2.04zM147.59 60.17h-2.1a.44.44 0 00-.42.42v.94a6.5 6.5 0 00-4.49-1.61 7.08 7.08 0 00-7.11 7.4 7.11 7.11 0 007.11 7.39 6.46 6.46 0 004.49-1.61v.9a.44.44 0 00.42.42h2.1A.43.43 0 00148 74V60.59a.45.45 0 00-.41-.42zm-6.78 11.7a4.59 4.59 0 114.36-4.59 4.31 4.31 0 01-4.36 4.59zM162.23 70.45a.34.34 0 00-.29-.13.33.33 0 00-.29.13 5 5 0 01-3.43 1.45 4.59 4.59 0 010-9.17 4.71 4.71 0 013.4 1.45.43.43 0 00.29.13.48.48 0 00.29-.13l1.35-1.42a.36.36 0 000-.55 6.89 6.89 0 00-5.29-2.21 7.4 7.4 0 000 14.8 6.91 6.91 0 005.29-2.27.42.42 0 000-.54zM173.28 59.88c-4.1 0-7.08 3.11-7.08 7.4a7 7 0 007.21 7.4 7.87 7.87 0 005.81-2.23.39.39 0 000-.55l-1.13-1.45a.35.35 0 00-.29-.16.6.6 0 00-.33.09 5.82 5.82 0 01-4 1.59 4.11 4.11 0 01-4.27-3.56h10.28a.45.45 0 00.42-.35 7.58 7.58 0 000-.84c.1-4.22-2.74-7.34-6.62-7.34zm-4 6.05a3.91 3.91 0 013.94-3.3 3.74 3.74 0 013.71 3.3z"/>
</svg>
