<svg xmlns="http://www.w3.org/2000/svg" viewBox="-29.98 -29.98 1558.96 476.96">
	<mask id="a" width="418" height="418" x="0" y="0" maskUnits="userSpaceOnUse">
		<path fill="#fff" d="M208.933 417.933c115.39 0 208.933-93.542 208.933-208.933C417.866 93.61 324.323.067 208.933.067 93.543.067 0 93.61 0 209c0 115.391 93.542 208.933 208.933 208.933z"/>
	</mask>
	<g mask="url(#a)">
		<path fill="#fff" d="M417.865 209C417.865 97.184 320.748.067 208.932.067 97.117.067 0 97.185 0 209c0 111.816 97.117 208.933 208.933 208.933 111.815 0 208.932-97.118 208.932-208.933z"/>
		<path fill="#272733" d="M209.101 87.194c-77.088 0-152.178 45.653-152.178 136.96 0 55.536 28.18 75.798 28.18 112.271 0 36.472-4.873 32.413-4.873 32.413s45.467 45.129 128.871 45.129c83.405 0 127.698-45.129 127.698-45.129s-8.546 4.059-8.546-28.361c0-36.472 33.027-64.84 33.027-116.323 0-91.307-75.091-136.96-152.179-136.96z"/>
		<path fill="#fff" d="m240.923 244.907-29.052 58.104v-71.938c13.834 0 29.052 13.834 29.052 13.834zm-59.49 0s16.601-13.834 30.435-13.834v71.939l-30.435-58.105zm108.092-13.525c-23.068 13.024-65.08-17.29-65.08-17.29 11.685-11.507 70.955-69.211 83.525-47.162 12.882 22.568 4.622 51.427-18.445 64.452zm-157.167-1.154c-22.868-13.353-30.699-42.326-17.489-64.709 12.906-21.877 71.299 36.72 82.826 48.389 0 0-42.469 29.687-65.337 16.32z"/>
		<circle cx="263.031" cy="202.496" r="15.692" fill="#272733"/>
		<circle cx="160.968" cy="202.496" r="15.692" fill="#272733"/>
		<path fill="#272733" d="M276.892 100.442c13.232-9.267 21.573-22.104 19.368-39.938-21.365-3.94-47.334 18.88-63.639 32.443-3.008-.153-8.02-.434-11.067-.447 22.117-24.615 43.028-54.05 19.368-54.305-17.821-.19-32.249 23.558-44.27 47.18 10.402-27.179 16.25-56.664-13.834-51.552-29.817 5.06-14.33 38.383-5.534 64.095l99.608 2.524z"/>
		<path fill="#272733" fill-rule="evenodd" d="M208.73 14.438c-107.342 0-194.36 87.018-194.36 194.36 0 107.341 87.018 194.359 194.36 194.359 107.341 0 194.359-87.018 194.359-194.359 0-107.342-87.018-194.36-194.359-194.36zM-1.84 208.799c0-116.294 94.276-210.57 210.57-210.57s210.569 94.276 210.569 210.57-94.275 210.569-210.569 210.569c-116.294 0-210.57-94.275-210.57-210.569z" clip-rule="evenodd"/>
	</g>
	<path fill="#272733" d="M507.021 167.938h82.201v-23.141h-53.707v-24.234h49.505V97.365h-49.505V73.188h53.707v-23.14h-82.201v117.89zm122.74-117.89v117.89h27.745V95.12h.979l28.322 72.07h17.729l28.322-71.667h.978v72.415h27.746V50.048h-35.287l-29.933 72.99h-1.381l-29.934-72.99h-35.286zm200.782 0h-28.494v117.89h28.494V50.048zM934.848 85.39h27.286c-.231-22.047-17.788-36.956-45.188-36.956-26.94 0-46.339 14.68-46.166 36.611-.058 17.902 12.491 27.976 32.869 32.639l12.318 2.878c12.952 2.993 18.766 6.505 18.881 13.125-.115 7.195-6.85 12.203-18.305 12.203-12.606 0-20.896-5.871-21.529-17.211h-27.285c.345 27.573 19.514 40.755 49.159 40.755 29.358 0 46.742-13.297 46.858-35.69-.116-18.823-12.837-30.336-36.093-35.46l-10.131-2.302c-10.707-2.302-17.5-5.871-17.27-12.894.058-6.447 5.584-11.11 16.636-11.11 11.11 0 17.212 5.008 17.96 13.412zm129.702 0h27.29c-.23-22.047-17.79-36.956-45.19-36.956-26.94 0-46.34 14.68-46.16 36.611-.06 17.902 12.49 27.976 32.86 32.639l12.32 2.878c12.95 2.993 18.77 6.505 18.88 13.125-.11 7.195-6.85 12.203-18.3 12.203-12.61 0-20.9-5.871-21.53-17.211h-27.286c.346 27.573 19.516 40.755 49.156 40.755 29.36 0 46.75-13.297 46.86-35.69-.11-18.823-12.84-30.336-36.09-35.46l-10.13-2.302c-10.71-2.302-17.5-5.871-17.27-12.894.06-6.447 5.58-11.11 16.63-11.11 11.11 0 17.22 5.008 17.96 13.412zm87.85 82.547 7.77-24.752h40.69l7.78 24.752h30.62l-39.78-117.89h-37.93l-39.78 117.89h30.63zm14.56-46.396 13.07-41.792h.92l13.12 41.792h-27.11zm107.69 46.396h28.49v-40.352h14.62l21.53 40.352h31.09l-24.47-44.9c12.95-5.871 20.44-17.442 20.44-33.732 0-24.235-16.52-39.259-43-39.259h-48.7v117.891zm28.49-62.802v-32.12h14.05c12.78 0 19.63 5.353 19.63 16.29s-6.85 15.83-19.63 15.83h-14.05zm82.31-55.089 43.11 78.517v39.374h28.32v-39.374L1500 50.047h-31.83l-24.93 49.333h-1.03l-24.93-49.333h-31.83zM532.91 195.785h-25.792v170.942h25.792V195.785zm175.532 0h-25.541V321.32h-1.586l-86.973-125.535H570.47v170.942h25.792V241.358h1.586l86.89 125.369h23.704V195.785zm153.31 54.003h26.459c-5.759-33.303-34.222-56.34-71.114-56.34-44.238 0-76.54 33.303-76.54 87.891 0 54.087 31.384 87.725 77.708 87.725 41.484 0 71.115-27.211 71.115-70.363v-19.448h-67.192v21.284h42.235c-.584 27.544-18.78 44.989-46.158 44.989-30.132 0-52.084-22.787-52.084-64.354 0-41.4 22.119-64.186 51.082-64.186 22.704 0 38.062 12.52 44.489 32.802zm60.368 116.939h25.791v-64.688h36.726l34.723 64.688h29.38l-37.89-69.195c20.95-7.762 31.38-25.207 31.38-48.161 0-31.467-19.53-53.586-59.179-53.586H922.12v170.942zm25.791-86.89v-61.933h32.386c25.453 0 35.973 12.103 35.973 31.467 0 19.281-10.52 30.466-35.639 30.466h-32.72zm125.699 86.89h108.18v-22.203h-82.38V292.19h75.78v-22.119h-75.78v-52.084h81.38v-22.202h-107.18v170.942zm234.86-126.036h24.87c-.75-27.378-24.95-47.243-59.67-47.243-34.31 0-60.6 19.615-60.6 49.079 0 23.788 17.02 37.727 44.49 45.156l20.19 5.509c18.28 4.841 32.39 10.851 32.39 26.042 0 16.693-15.94 27.711-37.89 27.711-19.87 0-36.4-8.848-37.9-27.461h-25.87c1.67 30.967 25.62 50.081 63.93 50.081 40.15 0 63.27-21.118 63.27-50.081 0-30.8-27.46-42.735-49.16-48.077l-16.69-4.341c-13.36-3.422-31.14-9.682-31.05-26.042 0-14.523 13.27-25.29 34.3-25.29 19.62 0 33.55 9.181 35.39 24.957zm151.27 0h24.87c-.75-27.378-24.96-47.243-59.68-47.243-34.31 0-60.6 19.615-60.6 49.079 0 23.788 17.03 37.727 44.49 45.156l20.2 5.509c18.28 4.841 32.38 10.851 32.38 26.042 0 16.693-15.94 27.711-37.89 27.711-19.86 0-36.39-8.848-37.89-27.461h-25.88c1.67 30.967 25.63 50.081 63.94 50.081 40.15 0 63.27-21.118 63.27-50.081 0-30.8-27.46-42.735-49.17-48.077l-16.69-4.341c-13.35-3.422-31.13-9.682-31.05-26.042 0-14.523 13.27-25.29 34.31-25.29 19.61 0 33.55 9.181 35.39 24.957z"/>
</svg>
