<svg xmlns="http://www.w3.org/2000/svg" viewBox="0 0 186 58">
	<g fill="none" fill-rule="evenodd">
		<path fill="#000" d="M0 0v25h18v-3.571H3.462v-7.143h10.903v-3.571H3.462V3.57H18V0z"/>
		<path fill="#000" d="M36.539 0v17.536L25.15.75 24.63 0H22v25h3.461V7.465L36.85 24.25l.52.75H40V0z"/>
		<path fill="#000" d="M56.635 0h-8.1l-.52.679-3.635 4.714-.38.5v13.215l.38.5 3.635 4.714.52.678h8.93l.52-.678 3.634-4.714.381-.5v-8.394h-9v3.572h5.538v3.607l-2.734 3.536h-5.608l-2.735-3.536V7.107l2.735-3.536h5.608l3.115 4.037 2.7-2.215L57.985.679 57.465 0z"/>
		<path fill="#000" d="M66 0v3.571h3.185V21.43H66V25h10v-3.571h-3.112V3.57H76V0z"/>
		<path fill="#000" d="M94.539 0v17.536L83.15.75 82.63 0H80v25h3.461V7.465L94.85 24.25l.52.75H98V0z"/>
		<path fill="#000" d="M104 0v25H122v-3.571h-14.539v-7.143h10.904v-3.571h-10.904V3.57H122V0z"/>
		<path fill="#000" d="M126 0v25h18v-3.571h-14.539v-7.143h10.904v-3.571h-10.904V3.57H144V0z"/>
		<path d="M148 0V25h3.578V14.286h8.542l2.908 4.142V25h3.578V17.286l-.322-.465-3.03-4.321 3.03-4.32.716-1.037-.716-1.036L162.528.75 161.99 0H148Zm3.578 3.572h8.552l2.505 3.57-2.505 3.572h-8.552V3.572Z" fill="#000"/>
		<path d="M48.369 33H36V58h13.267l.518-.786 3.525-5.357.656-1-.656-1-2.881-4.379 2.88-4.335.691-1-.69-1-3.525-5.358-.518-.785h-.898Zm-8.914 3.572h8.015l2.315 3.57-2.35 3.572h-7.98v-7.142Zm0 10.713h8.015l2.35 3.572-2.35 3.571h-8.015v-7.143Z" fill="#1D71B8"/>
		<path fill="#1D71B8" d="M75.27 33H59v25h18v-3.571H62.461v-7.143h10.904v-3.572H62.461V36.57H77V33z"/>
		<path fill="#1D71B8" d="M97.27 33H81v3.571h7.27V58h3.46V36.571H99V33z"/>
		<path fill="#1D71B8" d="M120.269 33H104v3.571h7.27V58h3.46V36.571H122V33z"/>
		<path fill="#1D71B8" d="M142.269 33H126v25h18v-3.571h-14.539v-7.143h10.903v-3.572h-10.903V36.57H144V33z"/>
		<path d="M161.06 33H148V58h3.578V47.286h8.542l2.908 4.143V58h3.578v-7.714l-.322-.465-3.03-4.321 3.03-4.321.716-1.036-.716-1.036-3.756-5.357-.537-.75h-.93Zm-9.482 3.572h8.552l2.504 3.57-2.504 3.572h-8.552v-7.142Z" fill="#1D71B8"/>
		<path fill="#0071BC" d="m177 34.954 4.487 5.696-4.423 5.664L180.273 48 186 40.647 180.044 33z"/>
	</g>
</svg>
