<svg xmlns="http://www.w3.org/2000/svg" viewBox="-3.72 -3.72 193.18 65.18">
	<g fill="none" fill-rule="evenodd">
		<path fill="#000" d="M0 0v25h18v-3.571H3.462v-7.143h10.903v-3.571H3.462V3.571H18V0zm36.539 0v17.536L25.15.75 24.631 0H22v25h3.461V7.464L36.85 24.25l.519.75H40V0zm20.096 0h-8.101l-.519.679-3.635 4.714-.38.5v13.215l.38.5 3.635 4.714.519.678h8.932l.519-.678 3.634-4.714.381-.5v-8.394h-9v3.572h5.538v3.607l-2.734 3.536h-5.608l-2.735-3.536V7.107l2.735-3.536h5.608l3.115 4.037 2.7-2.215L57.985.679 57.466 0zM66 0v3.571h3.185v17.858H66V25h10v-3.571h-3.111V3.571H76V0zm28.539 0v17.536L83.15.75 82.631 0H80v25h3.461V7.464L94.85 24.25l.519.75H98V0zM104 0v25h18v-3.571h-14.539v-7.143h10.904v-3.571h-10.904V3.571H122V0zm22 0v25h18v-3.571h-14.539v-7.143h10.904v-3.571h-10.904V3.571H144V0zm22 0v25h3.578V14.286h8.542l2.908 4.142V25h3.578v-7.714l-.322-.465-3.03-4.321 3.03-4.32.716-1.037-.716-1.036L162.528.75 161.99 0H148zm3.578 3.572h8.552l2.505 3.57-2.505 3.572h-8.552V3.572z"/>
		<path fill="#1D71B8" d="M48.369 33H36v25h13.267l.518-.786 3.525-5.357.656-1-.656-1-2.881-4.379 2.88-4.335.691-1-.69-1-3.525-5.358-.518-.785h-.898zm-8.914 3.572h8.015l2.315 3.57-2.35 3.572h-7.98v-7.142zm0 10.713h8.015l2.35 3.572-2.35 3.571h-8.015v-7.143zM75.269 33H59v25h18v-3.571H62.461v-7.143h10.904v-3.572H62.461v-7.143H77V33zm22 0H81v3.571h7.269V58h3.462V36.571H99V33zm23 0H104v3.571h7.269V58h3.461V36.571H122V33zm22 0H126v25h18v-3.571h-14.539v-7.143h10.904v-3.572h-10.904v-7.143H144V33zm18.792 0H148v25h3.578V47.286h8.542l2.908 4.143V58h3.578v-7.714l-.322-.465-3.03-4.321 3.03-4.321.716-1.036-.716-1.036-3.756-5.357-.537-.75h-.93zm-9.483 3.572h8.552l2.504 3.57-2.504 3.572h-8.552v-7.142z"/>
		<path fill="#0071BC" d="m177 34.954 4.487 5.696-4.423 5.664L180.273 48 186 40.647 180.044 33z"/>
	</g>
</svg>
