<svg xmlns="http://www.w3.org/2000/svg" width="200" height="128">
    <g fill="#490c66">
        <path d="M100.994 66.633a3.944 3.944 0 0 0 .448 1.876 4.673 4.673 0 0 0 1.179 1.445 5.446 5.446 0 0 0 1.694.929 6.053 6.053 0 0 0 1.992.333 4.459 4.459 0 0 0 2.425-.648 7.812 7.812 0 0 0 1.893-1.71l2.258 1.727a8.313 8.313 0 0 1-6.974 3.221 8.68 8.68 0 0 1-3.371-.631 7.3 7.3 0 0 1-2.557-1.744 7.719 7.719 0 0 1-1.611-2.623 9.277 9.277 0 0 1-.564-3.271 8.593 8.593 0 0 1 .614-3.271 8.12 8.12 0 0 1 1.694-2.624 7.734 7.734 0 0 1 2.574-1.744 8.287 8.287 0 0 1 3.254-.63 7.777 7.777 0 0 1 3.537.73 7 7 0 0 1 2.375 1.91 7.562 7.562 0 0 1 1.345 2.656 11.1 11.1 0 0 1 .415 3.006v1.063zm9.431-2.391a6.313 6.313 0 0 0-.315-1.827 4.018 4.018 0 0 0-.847-1.444 3.913 3.913 0 0 0-1.411-.964 5.177 5.177 0 0 0-1.976-.348 4.79 4.79 0 0 0-2.009.415 4.9 4.9 0 0 0-1.545 1.079 5 5 0 0 0-.98 1.478 4.073 4.073 0 0 0-.348 1.611zM116.2 57.666h2.989v2.424h.066a4.4 4.4 0 0 1 1.96-2.042 6.484 6.484 0 0 1 3.221-.78 6.841 6.841 0 0 1 2.175.348 4.94 4.94 0 0 1 1.827 1.079 5.217 5.217 0 0 1 1.245 1.877 7.176 7.176 0 0 1 .465 2.707v10.129h-2.989v-9.3a5.254 5.254 0 0 0-.3-1.876 3.429 3.429 0 0 0-.8-1.262 3 3 0 0 0-1.145-.7 4.228 4.228 0 0 0-1.345-.216 4.89 4.89 0 0 0-1.728.3 3.6 3.6 0 0 0-1.394.946 4.46 4.46 0 0 0-.93 1.644 7.47 7.47 0 0 0-.332 2.358v8.1H116.2zM131.115 57.666h3.454l4.716 12.055 4.515-12.055h3.188l-6.176 15.742h-3.288zM147.189 65.537a8.016 8.016 0 0 1 .648-3.222 8.4 8.4 0 0 1 15.443 0 8.032 8.032 0 0 1 .647 3.222A8.182 8.182 0 0 1 161.5 71.4a8.456 8.456 0 0 1-2.657 1.76 8.678 8.678 0 0 1-6.576 0 8.456 8.456 0 0 1-2.657-1.76 8.193 8.193 0 0 1-2.424-5.862zm3.188 0a6.45 6.45 0 0 0 .366 2.208 4.961 4.961 0 0 0 1.029 1.727A4.751 4.751 0 0 0 153.4 70.6a5.821 5.821 0 0 0 4.317 0 4.766 4.766 0 0 0 1.627-1.129 4.994 4.994 0 0 0 1.03-1.727 6.861 6.861 0 0 0 0-4.416 5.008 5.008 0 0 0-1.03-1.728 4.808 4.808 0 0 0-1.627-1.129 5.821 5.821 0 0 0-4.317 0 4.793 4.793 0 0 0-1.628 1.129 4.975 4.975 0 0 0-1.029 1.728 6.45 6.45 0 0 0-.366 2.209zM164.159 57.666h3.454l4.661 12.288h.067l4.471-12.288H180L172.528 76.8q-.4 1.029-.827 1.877a5.632 5.632 0 0 1-1.025 1.444 4.165 4.165 0 0 1-1.439.93 5.667 5.667 0 0 1-2.067.332 11.092 11.092 0 0 1-1.34-.083 4.844 4.844 0 0 1-1.306-.349l.364-2.723a4.667 4.667 0 0 0 1.781.365 3.32 3.32 0 0 0 1.172-.182 2.322 2.322 0 0 0 .825-.532 3.129 3.129 0 0 0 .577-.813q.231-.467.462-1.063l.968-2.491z"/>
    </g>
    <path fill="#b319ab" d="M37.278 63.113l.099 4.174 4.395 2.725-.098-4.177-4.396-2.722zM48.006 80.46l-.1-4.087-3.851-2.387c-.057-.036-.108-.078-.164-.115l.1 4.1zM34.282 85.964l-10.049-6.227-.244-10.45 4.926-2.124-.1-4.174-7.863 3.39A1.535 1.535 0 0 0 20 67.844l.3 12.536a2.083 2.083 0 0 0 1.029 1.668l12.052 7.469a2.226 2.226 0 0 0 1.809.262c.061-.019.116-.041.171-.063l7.395-3.188-4.016-2.486z"/>
    <path d="M66.752 62.874a2.425 2.425 0 0 0-1.2-1.944l-14.631-9.068-.452.2.1 4.388 11.586 7.178.277 11.74 4.431 2.746.241-.1z" fill="#e03eae"/>
    <path d="M49.229 83.482l-13.593-8.424-.336-14.141 6.2-2.668-.115-4.87-9.616 4.145a1.793 1.793 0 0 0-1.112 1.709l.392 16.577a2.4 2.4 0 0 0 1.2 1.94l15.933 9.877a2.593 2.593 0 0 0 2.112.306 1.681 1.681 0 0 0 .2-.075L59.9 83.8l-4.68-2.9z" fill="#d162cd"/>
    <path d="M87.469 51.263L67.04 38.6a2.959 2.959 0 0 0-2.421-.347 2.279 2.279 0 0 0-.222.082l-19.926 8.594a2.038 2.038 0 0 0-1.272 1.95l.5 21.252a2.767 2.767 0 0 0 1.372 2.219L65.5 85.009a2.958 2.958 0 0 0 2.413.35c.076-.024.154-.053.229-.085l19.928-8.589a2.045 2.045 0 0 0 1.27-1.955l-.5-21.248a2.769 2.769 0 0 0-1.371-2.219zm-20.762 29.01l-17.755-11-.437-18.473 17.319-7.46 17.753 11 .436 18.467z" fill="#e03eae"/>
</svg>
