<svg xmlns="http://www.w3.org/2000/svg" height="126.373" width="261.493" xml:space="preserve">
	<path style="fill:#ee2722;fill-opacity:1;fill-rule:nonzero;stroke:none" d="M1349.2 824.512V586.68l-54.27-18.996v275.757l-163.05 56.911V510.809l-54.31-18.93v427.492l-81.453 28.406-81.492-28.406V491.879l-54.32 18.93v389.543L697.34 843.441V567.684l-54.297 18.996v237.832l-54.383-18.989V548.07l163-56.879v313.7l54.352 18.961V472.23l162.949-56.91v465.442l27.156 9.48 27.153-9.48V415.32l163.01 56.91v351.622l54.28-18.961v-313.7l162.98 56.879v257.453l-54.34 18.989" transform="matrix(.13333 0 0 -.13333 0 126.373)"/>
	<path style="fill:#231f20;fill-opacity:1;fill-rule:nonzero;stroke:none" d="M29.219 105.926h96.695v26.289H29.219v56.672h144.199v26.191H0V15.019h178.5V40.82H29.219v65.106" transform="matrix(.13333 0 0 -.13333 0 126.373)"/>
	<path style="fill:#231f20;fill-opacity:1;fill-rule:nonzero;stroke:none" d="M792.047 94.715c0-35.742-23.672-59.363-58.793-59.363-34.121 0-55.434 23.925-55.434 59.363v119.828h-28.929V93.367c0-54.52 39.371-84.246 84.136-84.246 66.153 0 87.68 45.156 87.68 84.246v121.176h-28.66V94.715" transform="matrix(.13333 0 0 -.13333 0 126.373)"/>
	<path style="fill:#231f20;fill-opacity:1;fill-rule:nonzero;stroke:none" d="M981.777 15.05h28.693v200.028h-28.693V15.051" transform="matrix(.13333 0 0 -.13333 0 126.373)"/>
	<path style="fill:#231f20;fill-opacity:1;fill-rule:nonzero;stroke:none" d="m1353.3 58.32-141.96 156.731h-28.38V15.02h28.71v158.046l142.2-158.047h28.02v200.032h-28.59V58.321" transform="matrix(.13333 0 0 -.13333 0 126.373)"/>
	<path style="fill:#231f20;fill-opacity:1;fill-rule:nonzero;stroke:none" d="M1556.06 15.05h28.67v200.028h-28.67V15.051" transform="matrix(.13333 0 0 -.13333 0 126.373)"/>
	<path style="fill:#231f20;fill-opacity:1;fill-rule:nonzero;stroke:none" d="m1863.89 123.574 83.32 91.719h-35.41l-66.11-71.895-64.33 71.895h-37.47l80.35-91.777-100.48-108.438h36.66l82.43 89.024 78.58-89.024h39.78l-97.32 108.496" transform="matrix(.13333 0 0 -.13333 0 126.373)"/>
	<path style="fill:#231f20;fill-opacity:1;fill-rule:nonzero;stroke:none" d="M396.762 223.152c-59.614-.39-105.547-45.484-105.547-108.437v-.77c0-62.539 47.07-106.582 106.223-106.191 15.218.117 33.164 4.09 46.679 11.035L460.398 0l33.375.066-28.531 32.715c23.356 17.825 38.086 47.16 38.086 83.43v.781c0 62.168-47.219 106.61-106.566 106.16m76.718-107.984c0-28.266-9.164-46.652-25.847-62.355l-15.524 17.98-33.316.055 27.277-31.305c-6.672-3.203-18.675-5.805-28.023-5.871-42.836-.266-76.887 34.305-76.887 81.289l-.027.715c0 47.847 31.91 81.668 74.984 81.883 43.067.351 77.363-34.036 77.363-81.582v-.809" transform="matrix(.13333 0 0 -.13333 0 126.373)"/>
	<path style="fill:#ee2722;fill-opacity:1;fill-rule:nonzero;stroke:none" d="M1507.58 566.102c27.27 0 48.92 22.523 48.92 49.226v.297c0 26.703-21.38 48.953-48.92 48.953-27.3 0-48.95-22.519-48.95-49.25v-.269c0-26.711 21.37-48.957 48.95-48.957m0 5.351c-24.73 0-43.31 19.68-43.31 43.606v.269c0 23.922 18.82 43.871 43.31 43.871 24.73 0 43.3-19.679 43.3-43.574v-.297c0-23.898-18.84-43.875-43.3-43.875m-20.25 19.41h12.38v16.032h7.87l10.97-16.032h14.89l-12.91 18.274c6.76 2.269 11.24 7.597 11.24 15.761 0 11.512-8.73 16.895-20.57 16.895h-23.87zm12.38 26.141v14.082h10.68c5.32 0 8.74-2.539 8.74-7.027 0-4.246-3.09-7.055-8.74-7.055h-10.68" transform="matrix(.13333 0 0 -.13333 0 126.373)"/>
</svg>
