<svg xmlns="http://www.w3.org/2000/svg" viewBox="-11.25 -11.25 585 116">
	<path fill="#2E4E6B" d="M82.33 70.5c.584-1 .926-2.123 1-3.28V26.78A7.41 7.41 0 0 0 80 21.01L45 .79a7.43 7.43 0 0 0-6.67 0l-35 20.22A7.41 7.41 0 0 0 0 26.78v40.44a7.63 7.63 0 0 0 .75 2.85s.66 1 1.38.27l30.25-29.51a1 1 0 0 1 1.43 0L50.7 57.31a1 1 0 0 0 1.44 0l7-7.05a1 1 0 0 1 1.44 0l20.73 20.31a.649.649 0 0 0 1.02-.07ZM59.2 35.93 51.81 43a1 1 0 0 1-1.42 0L33.61 26.47a1.002 1.002 0 0 0-1.43 0L9.37 48.76a1 1 0 0 1-1.73-.73V29.31a3.76 3.76 0 0 1 .48-1.64c.29-.503.694-.93 1.18-1.25L39.93 8.73a3.67 3.67 0 0 1 3.33 0l30.67 17.69c.485.32.89.747 1.18 1.25a3.77 3.77 0 0 1 .49 1.64v18.82a1 1 0 0 1-1.74.73L60.62 35.94a1.001 1.001 0 0 0-1.42-.01Z"/>
	<path fill="#268C8C" d="M32.32 46.55 5.46 72.75a1 1 0 0 0 .2 1.62l8 4.64a1 1 0 0 0 1.23-.16l17.28-17a1.002 1.002 0 0 1 1.43 0l23.7 23.34a1 1 0 0 0 1.23.16l18.92-10.93a.999.999 0 0 0 .21-1.61L60.54 56a1 1 0 0 0-1.44 0l-7 7.05a1 1 0 0 1-1.44 0L33.72 46.53a1 1 0 0 0-1.4.02Z"/>
	<path fill="#2E4E6B" d="m32.2 67.59-13.19 13a1 1 0 0 0 .2 1.61l19.08 11a7.43 7.43 0 0 0 6.67 0l8.1-4.68a1 1 0 0 0 .2-1.61L33.64 67.58a.998.998 0 0 0-1.44.01zM109.63 75a2.32 2.32 0 0 1-2.32-2.32V21.32a2.32 2.32 0 0 1 2.32-2.32h40.24a2.32 2.32 0 0 1 2.33 2.32v6.81a2.324 2.324 0 0 1-2.33 2.32H122.8a1 1 0 0 0-1 1v9.79h21.13a2.32 2.32 0 0 1 2.32 2.32v6.82a2.32 2.32 0 0 1-2.32 2.32h-21.16v9.79a.998.998 0 0 0 1 1h27a2.32 2.32 0 0 1 2.32 2.32v6.81a2.32 2.32 0 0 1-2.32 2.32l-40.14.06zm152.52-2.33-17.22-52.08a2.311 2.311 0 0 0-2.2-1.59h-17.05a2.303 2.303 0 0 0-2.19 1.59L206.3 72.67a1.766 1.766 0 0 0 .238 1.6 1.754 1.754 0 0 0 1.442.73h11.12a2.738 2.738 0 0 0 2.64-2l2.71-9H244l2.71 9a2.741 2.741 0 0 0 2.64 2h11.12a1.77 1.77 0 0 0 1.68-2.33zm-34.52-19.15 6-19.84h1.21l6 19.84h-13.21z"/>
	<path fill="#2E4E6B" d="m208.56 75-11.42-21 .48-.23a16.368 16.368 0 0 0 6.77-5.87 18.287 18.287 0 0 0 2.63-10.05 19.296 19.296 0 0 0-2.57-10.15 16.826 16.826 0 0 0-7.19-6.46A24.799 24.799 0 0 0 186.37 19h-26.6a2.32 2.32 0 0 0-2.32 2.31v51.38a2.32 2.32 0 0 0 2.32 2.31h9.83a2.32 2.32 0 0 0 2.32-2.31V56.18h11l9.06 17a3.382 3.382 0 0 0 3 1.79l13.58.03Zm-17.81-32.92a6.389 6.389 0 0 1-3.22 2.38 14.75 14.75 0 0 1-4.84.71h-10.76V32.08a1.724 1.724 0 0 1 .503-1.23 1.729 1.729 0 0 1 1.227-.51h9c1.65-.036 3.293.225 4.85.77a6.62 6.62 0 0 1 3.22 2.48 7.527 7.527 0 0 1 1.13 4.28 7.191 7.191 0 0 1-1.11 4.21Z"/>
	<path fill="#696559" d="M296.68 74.26a26.577 26.577 0 0 1-10.9-2 16.727 16.727 0 0 1-6.76-5.15 12.003 12.003 0 0 1-2.5-6.76 1.494 1.494 0 0 1 .49-1.09 1.577 1.577 0 0 1 1.15-.48h3.77a1.832 1.832 0 0 1 1.35.45c.279.278.482.622.59 1a8.23 8.23 0 0 0 1.83 3.55 10.818 10.818 0 0 0 4.11 2.91 17.187 17.187 0 0 0 6.83 1.16c4.28 0 7.43-.76 9.45-2.28a7.244 7.244 0 0 0 3-6.08 5.703 5.703 0 0 0-1.61-4.22 14.126 14.126 0 0 0-4.89-2.88c-2.19-.84-5-1.76-8.51-2.76a49.334 49.334 0 0 1-9-3.43 13.57 13.57 0 0 1-5.34-4.63 12.873 12.873 0 0 1-1.76-7c-.038-2.57.72-5.087 2.17-7.21a14.84 14.84 0 0 1 6.23-5 23.74 23.74 0 0 1 9.9-1.86 24.29 24.29 0 0 1 8.1 1.23 17.424 17.424 0 0 1 5.79 3.28 14.995 14.995 0 0 1 3.5 4.41 10.89 10.89 0 0 1 1.26 4.58 1.618 1.618 0 0 1-.37 1 1.421 1.421 0 0 1-1.19.48h-4a2.37 2.37 0 0 1-1.08-.29 2.001 2.001 0 0 1-.86-1.12 7.574 7.574 0 0 0-3.44-5.16 13.282 13.282 0 0 0-7.76-2.09 14.87 14.87 0 0 0-7.88 1.87 7.087 7.087 0 0 0-2.91 4.662 7.067 7.067 0 0 0 1.3 5.339 11.543 11.543 0 0 0 4.48 2.95 78.742 78.742 0 0 0 8 2.69 58.84 58.84 0 0 1 9.79 3.47 13.74 13.74 0 0 1 5.63 4.56 12.247 12.247 0 0 1 1.83 7 13.09 13.09 0 0 1-2.46 8 15.351 15.351 0 0 1-6.91 5.08 28.478 28.478 0 0 1-10.42 1.82zm41.5 0a19 19 0 0 1-9.48-2.17 14.609 14.609 0 0 1-5.83-6 20.746 20.746 0 0 1-2.24-8.77c-.05-.85-.07-1.93-.07-3.25s0-2.38.07-3.17c.081-3.075.86-6.09 2.28-8.82a15 15 0 0 1 5.86-6 21.578 21.578 0 0 1 18.82 0 15 15 0 0 1 5.86 6 20.262 20.262 0 0 1 2.28 8.82c.05.79.07 1.85.07 3.17 0 1.32 0 2.4-.07 3.25a20.746 20.746 0 0 1-2.24 8.77 14.609 14.609 0 0 1-5.83 6 19 19 0 0 1-9.48 2.17zm0-5.75a9.658 9.658 0 0 0 7.39-2.95c1.84-2 2.84-4.84 3-8.63.05-.74.07-1.69.07-2.83 0-1.14 0-2.09-.07-2.84-.147-3.78-1.147-6.656-3-8.63a9.651 9.651 0 0 0-7.39-2.94 9.777 9.777 0 0 0-7.43 2.94c-1.873 2-2.857 4.877-2.95 8.63-.05.75-.07 1.69-.07 2.84s0 2.09.07 2.83c.1 3.79 1.08 6.66 2.95 8.63a9.79 9.79 0 0 0 7.43 2.95zm69.52-.64a1.703 1.703 0 0 0-1.24-.48h-4.53c-2 0-3.46-.68-4.26-2a10.876 10.876 0 0 1-1.19-5.52V40.66h9.26a1.66 1.66 0 0 0 1.71-1.72V36.4a1.676 1.676 0 0 0-.48-1.23 1.702 1.702 0 0 0-1.23-.49h-9.26V22.21a1.661 1.661 0 0 0-1.72-1.71h-3.53a1.661 1.661 0 0 0-1.72 1.71v12.47h-17.78v-3.36a9.139 9.139 0 0 1 1.27-5.26c.84-1.22 2.433-1.83 4.78-1.83h4.33a1.533 1.533 0 0 0 1.19-.49c.305-.335.467-.776.45-1.23V20a1.758 1.758 0 0 0-.45-1.23 1.56 1.56 0 0 0-1.19-.48h-4.48a15.448 15.448 0 0 0-7.51 1.56 9.35 9.35 0 0 0-4.07 4.45 16.475 16.475 0 0 0-1.27 6.68v3.73h-6.34a1.711 1.711 0 0 0-1.24.49 1.676 1.676 0 0 0-.48 1.23v2.54a1.658 1.658 0 0 0 1.72 1.72h6.34v31.13a1.68 1.68 0 0 0 1.72 1.72h3.51a1.63 1.63 0 0 0 1.23-.49 1.67 1.67 0 0 0 .49-1.23V40.66h17.78v19.71a18.464 18.464 0 0 0 1.2 7 9.178 9.178 0 0 0 3.81 4.55 12.8 12.8 0 0 0 6.79 1.61h5.15a1.66 1.66 0 0 0 1.72-1.72V69.1a1.69 1.69 0 0 0-.48-1.23zm15.91 5.64a2.09 2.09 0 0 1-1.49-.49 3.85 3.85 0 0 1-.9-1.38L410.62 37a1.99 1.99 0 0 1-.15-.75 1.442 1.442 0 0 1 .49-1.12 1.54 1.54 0 0 1 1.08-.45h3.29a1.685 1.685 0 0 1 1.26.45c.252.232.456.51.6.82l8.29 28.15 8.89-27.85c.126-.379.342-.722.63-1a1.886 1.886 0 0 1 1.46-.53h2.53a1.999 1.999 0 0 1 1.5.53c.303.26.513.611.6 1l8.84 27.85 8.33-28.1a1.785 1.785 0 0 1 1.79-1.27h3.29a1.529 1.529 0 0 1 1.12.45 1.545 1.545 0 0 1 .44 1.12 1.99 1.99 0 0 1-.15.75l-10.6 34.64a2.602 2.602 0 0 1-.78 1.38 2.37 2.37 0 0 1-1.61.49h-2.91a2.5 2.5 0 0 1-1.6-.49 2.347 2.347 0 0 1-.86-1.38l-8.66-26.73-8.67 26.73a2.858 2.858 0 0 1-.89 1.38 2.51 2.51 0 0 1-1.64.49l-2.92-.05zm55.77.75a15.21 15.21 0 0 1-6.79-1.5 12.993 12.993 0 0 1-4.93-4 9.425 9.425 0 0 1-1.87-5.75 9.66 9.66 0 0 1 4.18-8.21 23.937 23.937 0 0 1 10.9-4L492 49.23V47a7.532 7.532 0 0 0-2.05-5.6c-1.373-1.333-3.603-2-6.69-2a9.698 9.698 0 0 0-5.41 1.34 7.182 7.182 0 0 0-2.87 3.43 1.59 1.59 0 0 1-1.57 1.12h-3.36a1.52 1.52 0 0 1-1.23-.48 1.713 1.713 0 0 1-.42-1.16 6.356 6.356 0 0 1 .86-2.76 11.376 11.376 0 0 1 2.65-3.21 15.207 15.207 0 0 1 4.6-2.65 18.998 18.998 0 0 1 6.83-1.08 21.51 21.51 0 0 1 7.54 1.15c1.828.64 3.48 1.702 4.82 3.1a12 12 0 0 1 2.53 4.41 16.17 16.17 0 0 1 .79 5V71.8a1.671 1.671 0 0 1-1.055 1.6 1.682 1.682 0 0 1-.665.12h-3.43a1.618 1.618 0 0 1-1.27-.49 1.732 1.732 0 0 1-.45-1.23v-3.21a13.775 13.775 0 0 1-2.61 2.65 14.01 14.01 0 0 1-4.11 2.17c-1.956.616-4 .903-6.05.85zm1.57-5.6a12.07 12.07 0 0 0 5.6-1.31 9.29 9.29 0 0 0 4-4.07 14.799 14.799 0 0 0 1.46-6.94v-2.09l-8.66 1.26a19.998 19.998 0 0 0-8 2.51 5.18 5.18 0 0 0-2.69 4.44 5.003 5.003 0 0 0 1.23 3.47 7.345 7.345 0 0 0 3.14 2.07c1.253.442 2.572.665 3.9.66h.02zm26.44 4.85a1.662 1.662 0 0 1-1.71-1.72V36.47c-.01-.466.162-.918.48-1.26a1.631 1.631 0 0 1 1.23-.53h3.44a1.73 1.73 0 0 1 1.27.53 1.707 1.707 0 0 1 .52 1.26v3.29a9.558 9.558 0 0 1 4.11-3.76 14.31 14.31 0 0 1 6.27-1.27h3a1.574 1.574 0 0 1 1.19.49c.305.336.467.777.45 1.23v3.06a1.618 1.618 0 0 1-.45 1.2 1.646 1.646 0 0 1-1.19.44h-4.48a8.497 8.497 0 0 0-6.35 2.36 8.68 8.68 0 0 0-2.31 6.38v22a1.604 1.604 0 0 1-.53 1.23 1.77 1.77 0 0 1-1.27.49l-3.67-.1zm38.13.75c-5.133 0-9.217-1.583-12.25-4.75-3.033-3.166-4.7-7.483-5-12.95-.05-.65-.07-1.48-.07-2.5s0-1.85.07-2.5a21.76 21.76 0 0 1 2.47-9.3 15.438 15.438 0 0 1 5.93-6.16 17.479 17.479 0 0 1 8.85-2.16c3.335-.117 6.636.711 9.52 2.39a15.179 15.179 0 0 1 5.86 6.79 24.622 24.622 0 0 1 2 10.3v1.27a1.651 1.651 0 0 1-.49 1.27 1.73 1.73 0 0 1-1.23.45h-25.82v.67a15.618 15.618 0 0 0 1.35 5.72 10.668 10.668 0 0 0 3.43 4.29 8.902 8.902 0 0 0 5.38 1.64c1.535.05 3.062-.23 4.48-.82a11.734 11.734 0 0 0 2.91-1.83c.546-.46 1.045-.972 1.49-1.53.252-.45.592-.843 1-1.16a2.93 2.93 0 0 1 1.19-.18h3.59c.447-.021.886.125 1.23.41a1.252 1.252 0 0 1 .41 1.15 5.839 5.839 0 0 1-1.19 2.73 14.413 14.413 0 0 1-3.21 3.17 17.934 17.934 0 0 1-5.08 2.58 21.51 21.51 0 0 1-6.82 1.01zm-10.16-23h20.46V51a13.888 13.888 0 0 0-1.23-6 9.885 9.885 0 0 0-3.55-4.14 9.769 9.769 0 0 0-5.52-1.53 9.372 9.372 0 0 0-9 5.67 14.185 14.185 0 0 0-1.2 6l.04.26z"/>
</svg>
