<svg xmlns="http://www.w3.org/2000/svg" width="200" height="128">
	<g fill="#419eda">
		<path d="M42.861 65.585A3.257 3.257 0 1 1 39.6 62.33a3.258 3.258 0 0 1 3.261 3.255zm4.21 0a3.258 3.258 0 1 0 3.258-3.255 3.256 3.256 0 0 0-3.258 3.255z"/>
		<path d="M69.241 69.119a8.87 8.87 0 0 1-.72.027 9.4 9.4 0 0 1-4.134-.962 38.477 38.477 0 0 0 .557-7.314 37.756 37.756 0 0 0-4.734-5.609 9.408 9.408 0 0 1 3.336-3.573l.612-.379-.478-.54a24.914 24.914 0 0 0-8.7-6.348l-.662-.288-.169.7a9.372 9.372 0 0 1-2.36 4.285 37.881 37.881 0 0 0-6.82-2.81 37.7 37.7 0 0 0-6.809 2.805 9.347 9.347 0 0 1-2.351-4.275l-.171-.7-.66.286a25.163 25.163 0 0 0-8.7 6.347l-.478.539.612.379a9.392 9.392 0 0 1 3.327 3.554 38.211 38.211 0 0 0-4.725 5.588 38.425 38.425 0 0 0 .542 7.362 9.366 9.366 0 0 1-4.109.954c-.253 0-.491-.008-.721-.027L20 69.062l.067.717a24.776 24.776 0 0 0 3.348 10.247l.364.62.547-.465a9.36 9.36 0 0 1 4.437-2.081 38 38 0 0 0 3.8 6.184 38.426 38.426 0 0 0 7.2 1.769 9.357 9.357 0 0 1-.6 4.909l-.274.665.7.156a25.053 25.053 0 0 0 5.39.6l5.39-.6.7-.156-.273-.665a9.344 9.344 0 0 1-.6-4.915 38.45 38.45 0 0 0 7.166-1.763 37.94 37.94 0 0 0 3.8-6.19 9.4 9.4 0 0 1 4.459 2.079l.547.464.365-.616a24.7 24.7 0 0 0 3.344-10.246l.067-.716zm-16.562 8.758a29.089 29.089 0 0 1-15.432 0 29.534 29.534 0 0 1-4.7-14.593 29.4 29.4 0 0 1 5.594-5.325 29.836 29.836 0 0 1 6.822-3.711 29.915 29.915 0 0 1 6.808 3.7 29.6 29.6 0 0 1 5.618 5.361 29.769 29.769 0 0 1-4.713 14.567z"/>
	</g>
	<path d="M89.761 49.736c8.181 0 12.8 5.872 12.8 15.043a19.212 19.212 0 0 1-.2 2.968h-21.64c.4 6.929 4.554 11.284 10.689 11.284a14.487 14.487 0 0 0 7.983-2.508l1.913 3.563a19.1 19.1 0 0 1-10.556 3.3c-8.577 0-15.373-6.268-15.373-16.759s7.059-16.891 14.384-16.891zm8.05 14.449c0-6.532-2.9-10.16-7.918-10.16-4.487 0-8.578 3.694-9.237 10.16zm10.889-9.237h-4.751v-4.09l5.014-.33.661-8.973h4.551v8.973h8.644v4.421h-8.644v17.814c0 3.959 1.255 6.2 4.949 6.2a11.62 11.62 0 0 0 3.629-.859L123.8 82.2a19.808 19.808 0 0 1-5.938 1.188c-6.861 0-9.171-4.354-9.171-10.689V54.948zm31.8-5.212a13.217 13.217 0 0 1 9.367 3.827l-2.7 3.5c-1.913-1.648-3.893-2.836-6.466-2.836-5.805 0-10.029 5.013-10.029 12.4 0 7.324 4.025 12.273 9.9 12.273a11.436 11.436 0 0 0 7.522-3.233l2.441 3.563a15.88 15.88 0 0 1-10.435 4.155c-8.509 0-15.042-6.136-15.042-16.759.002-10.754 7.193-16.89 15.442-16.89zm25.335 0c3.694 0 6.135 1.385 8.973 3.7l-.265-5.476V35.617h5.476v46.976h-4.485l-.463-3.761h-.2c-2.508 2.442-5.938 4.553-9.7 4.553-8.049 0-13.261-6.07-13.261-16.759.003-10.426 6.601-16.89 13.925-16.89zm.527 29.1c2.969 0 5.543-1.451 8.182-4.419V57.653c-2.706-2.441-5.146-3.365-7.786-3.365-5.146 0-9.236 4.948-9.236 12.273 0 7.653 3.232 12.271 8.84 12.271z"/>
</svg>
