<svg xmlns="http://www.w3.org/2000/svg" width="200" height="128">
	<path d="M28.571 50.019a17.585 17.585 0 0 1 2.176-1.086 17.013 17.013 0 0 1 4.936-1.233l1.835 2.092-.837 2.152a14.626 14.626 0 0 0-4.668 1.8 6.201 6.201 0 0 0-.316.2l-.31-2.832-2.816-1.09zm-.8.5 2.913 1.128.3 2.778a11.927 11.927 0 0 0-3.684 4.449 13.02 13.02 0 0 0-.224.483l-2.032-2.486-3.341.706a16.91 16.91 0 0 1 3.355-4.819 17.4 17.4 0 0 1 2.711-2.238zm19.165 19.625a10.149 10.149 0 0 0 .776-1.61l3.154 3.822 5.291-1.142a20.383 20.383 0 0 1-1.076 2.454 18.36 18.36 0 0 1-4.3 5.468 17.123 17.123 0 0 1-6.134 3.433l-.136.043-3.922-3.32 1.028-4.52.077-.032a10.935 10.935 0 0 0 5.247-4.6zm6.625-17.863q.485.672.913 1.392a20.637 20.637 0 0 1 1.968 16.7l-5.284 1.137-3.168-3.839a9.471 9.471 0 0 0 .1-4.408 9.338 9.338 0 0 0-2.37-4.643l5.71-.677 2.132-5.661zm-32.224 6.15 3.413-.721 2.01 2.457a11.109 11.109 0 0 0-.463 5.5 12.829 12.829 0 0 0 .356 1.578l-3.6-.823-2.589 3.062a18.648 18.648 0 0 1 .848-10.984zm5.6 9.663a12.172 12.172 0 0 0 2.287 3.77 11.018 11.018 0 0 0 2.545 2.146l-3.577 2.049.193 4.666a17.492 17.492 0 0 1-3.252-2.633 17.8 17.8 0 0 1-3.815-5.871 18.453 18.453 0 0 1-.623-1.831l2.64-3.119 3.6.823zm5.612 6.347a11.194 11.194 0 0 0 2.469.877 10.527 10.527 0 0 0 5.74-.229l-1.018 4.488 3.884 3.287a20.473 20.473 0 0 1-5.956.654 18.8 18.8 0 0 1-6.812-1.506 18.119 18.119 0 0 1-1.691-.826l-.193-4.7 3.577-2.048zm20.465-22.878-2.136 5.675-5.875.7a10.382 10.382 0 0 0-.534-.433 12.694 12.694 0 0 0-6.511-2.56 11.94 11.94 0 0 0-1.607-.049l2.049-5.261-4.422-5.035a34.387 34.387 0 0 1 3.98-.112 22.706 22.706 0 0 1 5.65.858 18.515 18.515 0 0 1 9.406 6.221z" fill="#5ab552"/>
	<path d="M72.542 65.836h-4.185l-1.046 5.293h4.807L71.5 74.27h-8.318l3.649-19.078H74.8l-.622 3.114H69.8l-.933 4.529h4.27l-.594 3zM75.7 74.27l-.593-19.078h3.931l-.255 9.653c-.056 1.726-.17 3.934-.283 5.406h.057c.4-1.472 1.046-3.708 1.641-5.406l3.42-9.653h3.9L79.546 74.27zm18.257-8.434h-4.186l-1.047 5.293h4.807l-.622 3.141H84.6l3.649-19.078h7.974l-.623 3.114h-4.387l-.934 4.529h4.27l-.594 3zm.776 8.434 3.649-19.078h3.218l1.471 7.586c.48 2.519.791 4.331.932 5.917h.057c.255-2.095.594-5.379 1.187-8.549l.934-4.954h3.054l-3.644 19.078h-3.025l-1.528-7.1a39.165 39.165 0 0 1-.961-6.341h-.057c-.254 1.925-.678 5.067-1.3 8.378l-.961 5.067zm17.837-15.738h-3.308l.651-3.34h10.152l-.651 3.34H116.1l-3 15.738h-3.535l3-15.738zm9.614 12.115a5.447 5.447 0 0 0 2.63.651 2.423 2.423 0 0 0 2.743-2.434c0-1.274-.707-2.01-1.895-3.2a6.289 6.289 0 0 1-2.262-4.614 5.831 5.831 0 0 1 6.221-6.03 5.608 5.608 0 0 1 2.857.595l-.962 3.057a4.047 4.047 0 0 0-2.064-.51 2.378 2.378 0 0 0-2.545 2.435c0 .905.368 1.613 1.894 2.972a6.253 6.253 0 0 1 2.291 4.585 5.888 5.888 0 0 1-6.25 6.285 7.377 7.377 0 0 1-3.563-.708l.905-3.085zM135.9 58.532h-3.309l.651-3.34h10.151l-.65 3.34h-3.309l-3 15.738H132.9l3-15.738zm11.568.142c-1.754 1.783-2.744 7.1-2.744 9.935 0 1.076.142 2.774 1.612 2.774a1.616 1.616 0 0 0 1.159-.566c1.9-1.868 2.715-8.01 2.715-10.077 0-1.217-.169-2.661-1.47-2.661a1.784 1.784 0 0 0-1.272.595zm6.39 2.349c0 4.048-1.328 9.143-3.845 11.662A5.71 5.71 0 0 1 145.8 74.5c-4.129 0-4.722-4.133-4.722-6.227 0-3.878 1.329-8.974 3.959-11.55a5.833 5.833 0 0 1 4.186-1.754c4.127 0 4.636 3.793 4.636 6.057zm4.914 2.859h.821c1.78 0 2.968-1.9 2.968-3.906 0-1.019-.424-2.095-1.753-2.095a4.237 4.237 0 0 0-.933.085zm-1.838-8.435a23.487 23.487 0 0 1 3.79-.34 5.9 5.9 0 0 1 4.213 1.3 4.379 4.379 0 0 1 1.244 3.142 5.988 5.988 0 0 1-3.874 5.775v.056c1.047.482 1.5 1.586 1.555 3.708a38.18 38.18 0 0 0 .311 5.18h-3.562c-.085-.538-.142-2.462-.142-4.557 0-2.321-.481-3.086-1.669-3.086h-.593l-1.414 7.643h-3.45l3.591-18.824zm17.826 10.389h-4.185l-1.046 5.293h4.807l-.622 3.141H165.4l3.649-19.078h7.973l-.622 3.114h-4.382l-.934 4.529h4.27l-.594 3zm3.911 6.48a.69.69 0 0 0-.246-.035h-.1v.472h.164a.39.39 0 0 0 .232-.06.22.22 0 0 0 .084-.193.187.187 0 0 0-.131-.185zm-.775 1.3V72h.787a.786.786 0 0 1 .32.084.408.408 0 0 1 .216.388.354.354 0 0 1-.114.3.533.533 0 0 1-.281.109.549.549 0 0 1 .23.094.439.439 0 0 1 .143.364v.146a.359.359 0 0 0 0 .047.211.211 0 0 0 .012.048l.015.046h-.405a1.25 1.25 0 0 1-.027-.225.78.78 0 0 0-.027-.2.2.2 0 0 0-.119-.119.485.485 0 0 0-.146-.026l-.093-.006h-.089v.575zm-.219-1.665a1.218 1.218 0 0 0 .006 1.715 1.2 1.2 0 0 0 1.707 0 1.191 1.191 0 0 0 .353-.863 1.176 1.176 0 0 0-.351-.849 1.188 1.188 0 0 0-1.715 0zm1.886 1.9a1.461 1.461 0 0 1-2.489-1.052 1.4 1.4 0 0 1 .457-1.068 1.433 1.433 0 0 1 1.007-.4 1.47 1.47 0 0 1 1.025 2.518z" fill="#435261"/>
</svg>
