<svg xmlns="http://www.w3.org/2000/svg" width="200" height="128">
    <defs>
        <linearGradient id="a" x1="22.387" y1="95.785" x2="85.958" y2="32.215" gradientUnits="userSpaceOnUse">
            <stop offset="0" stop-color="#839bc0"/>
            <stop offset=".091" stop-color="#93aacb"/>
            <stop offset=".238" stop-color="#a7bcd7"/>
            <stop offset=".407" stop-color="#b5c9e0"/>
            <stop offset=".618" stop-color="#bdd1e5"/>
            <stop offset="1" stop-color="#bfd3e7"/>
        </linearGradient>
        <linearGradient id="b" x1="46.079" y1="70.276" x2="56.555" y2="88.42" gradientUnits="userSpaceOnUse">
            <stop offset="0" stop-color="#d50e00"/>
            <stop offset=".121" stop-color="#b80900"/>
            <stop offset=".261" stop-color="#9d0400"/>
            <stop offset=".385" stop-color="#8d0100"/>
            <stop offset=".481" stop-color="#870000"/>
            <stop offset=".603" stop-color="#940200"/>
            <stop offset=".828" stop-color="#b60900"/>
            <stop offset="1" stop-color="#d50e00"/>
        </linearGradient>
        <linearGradient id="c" x1="55.274" y1="84.072" x2="47.351" y2="74.63" gradientUnits="userSpaceOnUse">
            <stop offset="0" stop-color="#fff"/>
            <stop offset=".012" stop-color="#fdfdfd"/>
            <stop offset=".192" stop-color="#e2e2e2"/>
            <stop offset=".352" stop-color="#d2d2d2"/>
            <stop offset=".475" stop-color="#ccc"/>
            <stop offset=".649" stop-color="#d9d9d9"/>
            <stop offset=".97" stop-color="#fbfbfb"/>
            <stop offset="1" stop-color="#fff"/>
        </linearGradient>
        <linearGradient id="d" x1="54.118" y1="43.054" x2="61.902" y2="64.441" gradientUnits="userSpaceOnUse">
            <stop offset="0" stop-color="#f9f000"/>
            <stop offset=".144" stop-color="#f7ec00"/>
            <stop offset=".288" stop-color="#f3e000"/>
            <stop offset=".432" stop-color="#ebcc00"/>
            <stop offset=".519" stop-color="#e5bc00"/>
        </linearGradient>
    </defs>
    <rect x="25.843" y="28.172" width="56.659" height="71.657" rx="1" fill="url(#a)"/>
    <path fill="#9db5d0" d="M25.843 47.752h56.659v.833H25.843zM25.843 57.751h56.659v.833H25.843zM25.843 67.75h56.659v.833H25.843zM25.843 77.748h56.659v.833H25.843zM25.843 87.747h56.659v.833H25.843z"/>
    <rect x="25.843" y="28.172" width="56.659" height="71.657" rx="1" fill="none"/>
    <g>
        <path d="M61.764 79.358a10.257 10.257 0 0 1-1.391 5.248 10.425 10.425 0 0 1-3.808 3.808 10.2 10.2 0 0 1-5.248 1.416 10.329 10.329 0 0 1-5.273-1.416 10 10 0 0 1-3.784-3.808 11.131 11.131 0 0 1-1.415-5.248 9.273 9.273 0 0 1 1.415-5.248 11.6 11.6 0 0 1 3.784-3.81 9.842 9.842 0 0 1 5.273-1.415 9.718 9.718 0 0 1 5.248 1.415 12.154 12.154 0 0 1 3.808 3.809 8.653 8.653 0 0 1 1.391 5.249z" fill-rule="evenodd" fill="url(#b)"/>
        <path d="M51.316 90.246a10.785 10.785 0 0 1-5.481-1.472A10.458 10.458 0 0 1 41.9 84.81a11.608 11.608 0 0 1-1.469-5.442 9.721 9.721 0 0 1 1.479-5.479 12.054 12.054 0 0 1 3.919-3.942 10.281 10.281 0 0 1 5.49-1.478 10.158 10.158 0 0 1 5.468 1.479 12.6 12.6 0 0 1 3.939 3.936 9.1 9.1 0 0 1 1.458 5.484 10.689 10.689 0 0 1-1.449 5.447 10.878 10.878 0 0 1-3.957 3.959 10.658 10.658 0 0 1-5.462 1.472zm0-20.944a9.474 9.474 0 0 0-5.054 1.354 11.241 11.241 0 0 0-3.649 3.674 8.9 8.9 0 0 0-1.352 5.017 10.773 10.773 0 0 0 1.362 5.053 9.646 9.646 0 0 0 3.629 3.652 9.971 9.971 0 0 0 5.064 1.359 9.839 9.839 0 0 0 5.039-1.359 10.069 10.069 0 0 0 3.658-3.652 9.9 9.9 0 0 0 1.335-5.039v-.021a8.291 8.291 0 0 0-1.325-5 11.821 11.821 0 0 0-3.678-3.681 9.353 9.353 0 0 0-5.029-1.359z" fill="#fff"/>
        <path d="M56.492 82.433a.883.883 0 0 0-.245-.61l-2.465-2.465 2.465-2.466a.91.91 0 0 0 .245-.634.83.83 0 0 0-.245-.611L55 74.427a.827.827 0 0 0-1.221 0l-2.465 2.465-2.466-2.465a.868.868 0 0 0-.635-.269.791.791 0 0 0-.61.269l-1.22 1.22a.843.843 0 0 0-.269.611.923.923 0 0 0 .269.634l2.465 2.466-2.465 2.465a.843.843 0 0 0-.269.61.924.924 0 0 0 .269.635l1.22 1.221a.79.79 0 0 0 .61.268.867.867 0 0 0 .635-.268l2.466-2.466 2.465 2.466a.829.829 0 0 0 1.221 0l1.244-1.221a.911.911 0 0 0 .248-.635z" fill-rule="evenodd" fill="url(#c)"/>
    </g>
    <g>
        <path d="M61.648 41.74l9.482 17.412a1.439 1.439 0 0 1-.022 1.551 1.357 1.357 0 0 1-.576.576 1.852 1.852 0 0 1-.775.221H50.749a1.5 1.5 0 0 1-.775-.221 1.545 1.545 0 0 1-.574-.579 1.437 1.437 0 0 1-.022-1.551l9.5-17.412a1.492 1.492 0 0 1 .576-.6 1.543 1.543 0 0 1 1.595 0 1.649 1.649 0 0 1 .599.603z" fill-rule="evenodd" fill="url(#d)"/>
        <path d="M50.749 61.917a1.931 1.931 0 0 1-.987-.279 1.965 1.965 0 0 1-.727-.73 1.851 1.851 0 0 1-.021-1.963l9.5-17.4a1.915 1.915 0 0 1 .73-.759 1.969 1.969 0 0 1 2.018 0 2.094 2.094 0 0 1 .747.746l.007.013L71.5 58.953a1.858 1.858 0 0 1-.029 1.964 1.77 1.77 0 0 1-.739.73 2.3 2.3 0 0 1-.949.269zm9.5-20.581a1.129 1.129 0 0 0-.585.164 1.071 1.071 0 0 0-.42.435l-9.503 17.417a1.031 1.031 0 0 0 .013 1.136 1.146 1.146 0 0 0 .431.432 1.1 1.1 0 0 0 .564.164h19.007a1.462 1.462 0 0 0 .583-.173.955.955 0 0 0 .4-.4 1.039 1.039 0 0 0 .028-1.147l-9.481-17.418a1.226 1.226 0 0 0-.448-.445 1.121 1.121 0 0 0-.586-.165z" fill="#fff"/>
        <path d="M61.826 57.912v-2.349a.39.39 0 0 0-.111-.288.366.366 0 0 0-.266-.11h-2.392a.365.365 0 0 0-.266.11.39.39 0 0 0-.111.288v2.349a.39.39 0 0 0 .111.288.464.464 0 0 0 .266.133h2.392a.338.338 0 0 0 .266-.133.442.442 0 0 0 .111-.288zM61.8 53.3l.221-5.694a.272.272 0 0 0-.111-.221.474.474 0 0 0-.31-.133h-2.7a.545.545 0 0 0-.31.133.318.318 0 0 0-.11.266l.2 5.649a.245.245 0 0 0 .133.2.4.4 0 0 0 .288.067h2.282a.69.69 0 0 0 .31-.067.177.177 0 0 0 .107-.2z" fill="#333" fill-rule="evenodd"/>
    </g>
    <path d="M81.625 29.049l.044 69.9L26.72 99l-.044-69.946h54.949m.044-1.71H26.676a1.671 1.671 0 0 0-1.666 1.666V99a1.671 1.671 0 0 0 1.666 1.667h54.993A1.671 1.671 0 0 0 83.335 99V29.005a1.671 1.671 0 0 0-1.666-1.666z" fill="#6577a0"/>
    <path d="M26.01 27.338h6.5v73.323h-6.5a1 1 0 0 1-1-1V28.338a1 1 0 0 1 1-1z" fill="#6577a0"/>
    <g fill="#b3b3b3">
        <path d="M25.563 36.797999999999995c-2.582 0-4.812 1.353-5.411 3.507-.755 2.718 1.371 5.681 4.749 6.62a7.759 7.759 0 0 0 2.072.286 6.352 6.352 0 0 0 3.662-1.088.492.492 0 0 0 .062-.751l-.7-.7a.481.481 0 0 0-.6-.065 4.464 4.464 0 0 1-2.42.648 5.781 5.781 0 0 1-1.549-.215 5.629 5.629 0 0 1-.634-.216 5.086 5.086 0 0 1-2.226-1.683 2.786 2.786 0 0 1-.53-2.316 3.269 3.269 0 0 1 3.09-2.06.482.482 0 0 0 .439-.484z"/>
        <path d="M25.563 45.129999999999995c-2.582 0-4.812 1.353-5.411 3.507-.755 2.718 1.371 5.681 4.749 6.62a7.761 7.761 0 0 0 2.072.287 6.353 6.353 0 0 0 3.662-1.089.492.492 0 0 0 .065-.755L30 53a.481.481 0 0 0-.6-.065 4.465 4.465 0 0 1-2.42.649 5.941 5.941 0 0 1-2.183-.431 5.1 5.1 0 0 1-2.226-1.684 2.785 2.785 0 0 1-.53-2.316 3.268 3.268 0 0 1 3.09-2.059.483.483 0 0 0 .439-.484z"/>
        <path d="M25.563 53.461999999999996c-2.582 0-4.812 1.353-5.411 3.508-.755 2.717 1.371 5.681 4.749 6.619a7.72 7.72 0 0 0 2.072.287 6.353 6.353 0 0 0 3.662-1.089.492.492 0 0 0 .062-.751l-.7-.7a.481.481 0 0 0-.6-.065 4.465 4.465 0 0 1-2.42.649 5.941 5.941 0 0 1-2.183-.431 5.088 5.088 0 0 1-2.226-1.684 2.784 2.784 0 0 1-.53-2.316 3.268 3.268 0 0 1 3.09-2.059.483.483 0 0 0 .439-.484z"/>
        <path d="M25.563 61.794c-2.582 0-4.812 1.353-5.411 3.508-.755 2.717 1.371 5.681 4.749 6.619a7.72 7.72 0 0 0 2.072.287 6.352 6.352 0 0 0 3.662-1.088.493.493 0 0 0 .062-.751l-.7-.7a.48.48 0 0 0-.6-.066 4.465 4.465 0 0 1-2.42.649 5.822 5.822 0 0 1-1.549-.215 6.06 6.06 0 0 1-.634-.216 5.088 5.088 0 0 1-2.226-1.684 2.783 2.783 0 0 1-.53-2.315 3.267 3.267 0 0 1 3.09-2.06.483.483 0 0 0 .439-.484z"/>
        <path d="M25.563 70.12599999999999c-2.582 0-4.812 1.353-5.411 3.508-.755 2.717 1.371 5.681 4.749 6.62a7.759 7.759 0 0 0 2.072.286 6.352 6.352 0 0 0 3.662-1.088.493.493 0 0 0 .065-.752L30 78a.48.48 0 0 0-.6-.066 4.465 4.465 0 0 1-2.42.649 5.877 5.877 0 0 1-2.183-.431 5.088 5.088 0 0 1-2.226-1.684 2.783 2.783 0 0 1-.53-2.315 3.267 3.267 0 0 1 3.09-2.06.483.483 0 0 0 .439-.484z"/>
        <path d="M25.563 78.459c-2.582 0-4.812 1.352-5.411 3.507-.755 2.717 1.371 5.681 4.749 6.62a7.759 7.759 0 0 0 2.072.286 6.352 6.352 0 0 0 3.662-1.088.492.492 0 0 0 .062-.751l-.7-.7a.481.481 0 0 0-.6-.065 4.473 4.473 0 0 1-2.42.648 5.877 5.877 0 0 1-2.183-.431 5.094 5.094 0 0 1-2.226-1.683 2.786 2.786 0 0 1-.53-2.316 3.267 3.267 0 0 1 3.09-2.06.482.482 0 0 0 .439-.484z"/>
        <path d="M25.563 86.791c-2.582 0-4.812 1.353-5.411 3.507-.755 2.718 1.371 5.681 4.749 6.62a7.759 7.759 0 0 0 2.072.286 6.352 6.352 0 0 0 3.662-1.088.492.492 0 0 0 .062-.751l-.7-.7a.481.481 0 0 0-.6-.065 4.464 4.464 0 0 1-2.42.648 5.781 5.781 0 0 1-1.549-.215 5.629 5.629 0 0 1-.634-.216 5.086 5.086 0 0 1-2.226-1.683 2.786 2.786 0 0 1-.53-2.316 3.269 3.269 0 0 1 3.09-2.06.482.482 0 0 0 .439-.484zM29.993 36.343a.481.481 0 0 0-.6-.065 4.473 4.473 0 0 1-2.42.648 5.877 5.877 0 0 1-2.183-.431 5.088 5.088 0 0 1-2.226-1.684 2.783 2.783 0 0 1-.53-2.315 3.226 3.226 0 0 1 2.976-2.044V28.5a5.183 5.183 0 0 0-4.858 3.471c-.755 2.717 1.371 5.681 4.749 6.62a7.759 7.759 0 0 0 2.072.286 6.352 6.352 0 0 0 3.662-1.088.492.492 0 0 0 .062-.751z"/>
    </g>
    <g fill="#777">
        <path d="M113.525 43.053h-1.617V33.74q0-1.1.136-2.7h-.039a8.745 8.745 0 0 1-.416 1.345l-4.744 10.668h-.793l-4.734-10.591a8.35 8.35 0 0 1-.417-1.422h-.038q.077.831.077 2.72v9.293h-1.568V29.171h2.149l4.26 9.68a12.3 12.3 0 0 1 .638 1.665h.058q.417-1.143.668-1.7l4.346-9.642h2.034zM117.775 30.623a1 1 0 0 1-.726-.29.982.982 0 0 1-.3-.736 1.018 1.018 0 0 1 1.027-1.036 1.027 1.027 0 0 1 .741.3 1.034 1.034 0 0 1 0 1.467 1.02 1.02 0 0 1-.742.295zm.775 12.43h-1.589V33.14h1.589zM128.519 42.6a5.155 5.155 0 0 1-2.709.687 4.488 4.488 0 0 1-3.423-1.38 5 5 0 0 1-1.3-3.576 5.5 5.5 0 0 1 1.4-3.936 4.914 4.914 0 0 1 3.747-1.486 5.231 5.231 0 0 1 2.3.484v1.627a4.038 4.038 0 0 0-2.363-.775 3.194 3.194 0 0 0-2.493 1.09 4.134 4.134 0 0 0-.973 2.86 3.931 3.931 0 0 0 .915 2.749 3.152 3.152 0 0 0 2.455 1.007 3.977 3.977 0 0 0 2.438-.861zM136.09 34.746a1.948 1.948 0 0 0-1.2-.319 2.024 2.024 0 0 0-1.7.959 4.43 4.43 0 0 0-.682 2.614v5.054h-1.588V33.14h1.588v2.042h.039a3.446 3.446 0 0 1 1.036-1.63 2.361 2.361 0 0 1 1.558-.587 2.6 2.6 0 0 1 .949.136zM141.7 43.285a4.6 4.6 0 0 1-3.509-1.389 5.148 5.148 0 0 1-1.312-3.684 5.366 5.366 0 0 1 1.365-3.9 4.91 4.91 0 0 1 3.689-1.4 4.446 4.446 0 0 1 3.46 1.366 5.411 5.411 0 0 1 1.245 3.785 5.324 5.324 0 0 1-1.342 3.8 4.7 4.7 0 0 1-3.596 1.422zm.117-9.042a3.021 3.021 0 0 0-2.421 1.041 4.272 4.272 0 0 0-.891 2.87 4.045 4.045 0 0 0 .9 2.778 3.06 3.06 0 0 0 2.412 1.017 2.9 2.9 0 0 0 2.365-1 4.324 4.324 0 0 0 .829-2.836 4.4 4.4 0 0 0-.829-2.866 2.884 2.884 0 0 0-2.37-1.004zM148.569 42.694v-1.7a4.688 4.688 0 0 0 2.855.959q2.09 0 2.091-1.394a1.217 1.217 0 0 0-.179-.673 1.811 1.811 0 0 0-.484-.489 3.724 3.724 0 0 0-.716-.382q-.412-.169-.886-.353a11.306 11.306 0 0 1-1.157-.528 3.524 3.524 0 0 1-.833-.6 2.222 2.222 0 0 1-.5-.76 2.686 2.686 0 0 1-.169-1 2.368 2.368 0 0 1 .319-1.234 2.827 2.827 0 0 1 .852-.9 3.957 3.957 0 0 1 1.215-.546 5.377 5.377 0 0 1 1.409-.185 5.686 5.686 0 0 1 2.3.446v1.606a4.493 4.493 0 0 0-2.517-.716 2.973 2.973 0 0 0-.8.1 1.964 1.964 0 0 0-.615.286 1.314 1.314 0 0 0-.4.44 1.146 1.146 0 0 0-.141.566 1.34 1.34 0 0 0 .141.649 1.42 1.42 0 0 0 .41.464 3.2 3.2 0 0 0 .659.369c.258.109.552.229.88.357a12.525 12.525 0 0 1 1.182.518 4.068 4.068 0 0 1 .891.6 2.363 2.363 0 0 1 .566.769 2.49 2.49 0 0 1 .2 1.036 2.443 2.443 0 0 1-.325 1.278 2.789 2.789 0 0 1-.866.9 4 4 0 0 1-1.249.532 6.174 6.174 0 0 1-1.481.174 5.613 5.613 0 0 1-2.652-.589zM161.723 43.285a4.6 4.6 0 0 1-3.509-1.389 5.148 5.148 0 0 1-1.311-3.684 5.365 5.365 0 0 1 1.364-3.9 4.912 4.912 0 0 1 3.689-1.4 4.448 4.448 0 0 1 3.461 1.366 5.415 5.415 0 0 1 1.244 3.785 5.324 5.324 0 0 1-1.342 3.8 4.7 4.7 0 0 1-3.596 1.422zm.116-9.042a3.022 3.022 0 0 0-2.42 1.041 4.272 4.272 0 0 0-.891 2.87 4.036 4.036 0 0 0 .9 2.778 3.057 3.057 0 0 0 2.41 1.017 2.9 2.9 0 0 0 2.367-1 4.324 4.324 0 0 0 .828-2.836 4.4 4.4 0 0 0-.828-2.866 2.888 2.888 0 0 0-2.366-1.004zM173.737 29.771a2.116 2.116 0 0 0-1.055-.261q-1.665 0-1.665 2.1v1.53h2.323v1.355h-2.323v8.558h-1.578v-8.558h-1.694V33.14h1.694v-1.607a3.34 3.34 0 0 1 .9-2.464 3.039 3.039 0 0 1 2.246-.9 3.115 3.115 0 0 1 1.152.174zM180 42.956a3.061 3.061 0 0 1-1.481.309q-2.6 0-2.6-2.9v-5.87h-1.7V33.14h1.7v-2.421l1.587-.513v2.934H180v1.355h-2.5v5.586a2.311 2.311 0 0 0 .338 1.422 1.351 1.351 0 0 0 1.124.427A1.671 1.671 0 0 0 180 41.6z"/>
    </g>
    <g fill="#222">
        <path d="M109.23 71.99h-9.362V54.326h8.968V56.2h-6.9v5.876h6.382v1.86h-6.382v6.184h7.293zM122.276 59.376l-5.027 12.614h-1.982l-4.781-12.614h2.214l3.2 9.165a8.192 8.192 0 0 1 .443 1.761h.049a8.289 8.289 0 0 1 .395-1.711l3.35-9.215zM134.434 66.188h-8.906a4.71 4.71 0 0 0 1.133 3.252 3.9 3.9 0 0 0 2.981 1.146 6.2 6.2 0 0 0 3.917-1.4v1.9a7.322 7.322 0 0 1-4.4 1.206 5.332 5.332 0 0 1-4.2-1.718 7.033 7.033 0 0 1-1.527-4.835 6.892 6.892 0 0 1 1.67-4.8 5.348 5.348 0 0 1 4.144-1.853 4.746 4.746 0 0 1 3.832 1.6 6.678 6.678 0 0 1 1.355 4.447zm-2.07-1.712a4.106 4.106 0 0 0-.844-2.723 2.877 2.877 0 0 0-2.31-.973 3.263 3.263 0 0 0-2.426 1.022 4.646 4.646 0 0 0-1.232 2.674zM147.96 71.99h-2.022V64.8q0-4.016-2.932-4.016a3.178 3.178 0 0 0-2.506 1.14 4.229 4.229 0 0 0-.992 2.876v7.19h-2.02V59.376h2.02v2.094h.051a4.549 4.549 0 0 1 4.138-2.389 3.861 3.861 0 0 1 3.167 1.336 5.955 5.955 0 0 1 1.1 3.861zM157.617 71.867a3.9 3.9 0 0 1-1.886.394q-3.314 0-3.313-3.7V61.1h-2.168v-1.724h2.168V56.3l2.02-.652v3.732h3.179v1.72h-3.179v7.107a2.942 2.942 0 0 0 .432 1.811 1.716 1.716 0 0 0 1.428.542 2.129 2.129 0 0 0 1.319-.418zM113 76.944l-6.541 17.664h-2.279l-6.406-17.664h2.3l4.89 14.006a8.235 8.235 0 0 1 .358 1.564h.049a7.716 7.716 0 0 1 .407-1.589l4.989-13.981zM116.3 78.791a1.275 1.275 0 0 1-.924-.369 1.244 1.244 0 0 1-.382-.936 1.293 1.293 0 0 1 1.306-1.318 1.306 1.306 0 0 1 .942.375 1.317 1.317 0 0 1 0 1.867 1.3 1.3 0 0 1-.942.381zm.986 15.817h-2.021V81.994h2.021zM131.514 88.806h-8.906a4.71 4.71 0 0 0 1.133 3.252 3.9 3.9 0 0 0 2.981 1.146 6.2 6.2 0 0 0 3.917-1.4v1.9a7.32 7.32 0 0 1-4.4 1.207 5.333 5.333 0 0 1-4.2-1.718 7.036 7.036 0 0 1-1.528-4.836 6.9 6.9 0 0 1 1.67-4.8 5.35 5.35 0 0 1 4.145-1.853 4.746 4.746 0 0 1 3.831 1.6 6.674 6.674 0 0 1 1.355 4.447zm-2.07-1.712a4.109 4.109 0 0 0-.843-2.722 2.875 2.875 0 0 0-2.31-.973 3.263 3.263 0 0 0-2.427 1.022 4.649 4.649 0 0 0-1.232 2.673zM150.46 81.994l-3.783 12.614h-2.092l-2.6-9.029a5.937 5.937 0 0 1-.2-1.17h-.05a5.518 5.518 0 0 1-.257 1.145l-2.821 9.054h-2.02l-3.817-12.614h2.119l2.612 9.486a5.741 5.741 0 0 1 .171 1.132h.1a5.336 5.336 0 0 1 .22-1.157l2.908-9.461h1.85l2.613 9.51a7.243 7.243 0 0 1 .185 1.134h.1a5.229 5.229 0 0 1 .202-1.138l2.562-9.51zM162.814 88.806h-8.905a4.714 4.714 0 0 0 1.132 3.252 3.908 3.908 0 0 0 2.982 1.146 6.2 6.2 0 0 0 3.917-1.4v1.9a7.32 7.32 0 0 1-4.4 1.207 5.332 5.332 0 0 1-4.2-1.718 7.032 7.032 0 0 1-1.528-4.836 6.9 6.9 0 0 1 1.669-4.8 5.354 5.354 0 0 1 4.146-1.853 4.746 4.746 0 0 1 3.831 1.6 6.679 6.679 0 0 1 1.354 4.447zm-2.069-1.712a4.109 4.109 0 0 0-.843-2.722 2.875 2.875 0 0 0-2.31-.973 3.261 3.261 0 0 0-2.427 1.022 4.643 4.643 0 0 0-1.232 2.673zM172.449 84.039a2.474 2.474 0 0 0-1.528-.406 2.576 2.576 0 0 0-2.162 1.22 5.633 5.633 0 0 0-.868 3.325v6.43h-2.02V81.994h2.02v2.6h.049a4.407 4.407 0 0 1 1.318-2.075 3 3 0 0 1 1.983-.746 3.306 3.306 0 0 1 1.208.173z"/>
    </g>
</svg>
