<svg xmlns="http://www.w3.org/2000/svg" xml:space="preserve" width="1122.52" height="793.707">
	<defs>
		<clipPath clipPathUnits="userSpaceOnUse" id="f">
			<path d="M0 595.28h841.89V0H0Z"/>
		</clipPath>
		<clipPath clipPathUnits="userSpaceOnUse" id="g">
			<path d="M455.114 280.806h53.983v-34.065h-53.983z"/>
		</clipPath>
		<clipPath clipPathUnits="userSpaceOnUse" id="h">
			<path d="M495.334 280.806c-6.019-17.242-20.98-30.8-40.221-34.065 0 0 43.484 2.514 53.985 28.955l-9.848 3.656z"/>
		</clipPath>
		<clipPath clipPathUnits="userSpaceOnUse" id="k">
			<path d="M410.369 343.536h72.108v-91.502h-72.108z"/>
		</clipPath>
		<clipPath clipPathUnits="userSpaceOnUse" id="l">
			<path d="m470.58 343.536-60.21-82.872a51.833 51.833 0 0 1 11.895-8.63l60.212 82.874a51.918 51.918 0 0 1-11.897 8.628"/>
		</clipPath>
		<clipPath clipPathUnits="userSpaceOnUse" id="o">
			<path d="M613.779 358.805h31.546v-47.561h-31.546z"/>
		</clipPath>
		<clipPath clipPathUnits="userSpaceOnUse" id="p">
			<path d="M635.758 358.805c-9.068-4.487-16.683-11.499-21.979-20.141 4.89-8.008 7.767-17.369 7.767-27.421 0 15.727 9.896 29.16 23.778 34.481z"/>
		</clipPath>
		<clipPath clipPathUnits="userSpaceOnUse" id="s">
			<path d="M206.198 280.806h53.983v-34.065h-53.983z"/>
		</clipPath>
		<clipPath clipPathUnits="userSpaceOnUse" id="t">
			<path d="M246.418 280.806c-6.018-17.242-20.98-30.8-40.22-34.065 0 0 43.483 2.514 53.983 28.955l-9.847 3.656z"/>
		</clipPath>
		<clipPath clipPathUnits="userSpaceOnUse" id="w">
			<path d="M161.454 343.536h72.107v-91.502h-72.107z"/>
		</clipPath>
		<clipPath clipPathUnits="userSpaceOnUse" id="x">
			<path d="m221.664 343.536-60.21-82.872a51.833 51.833 0 0 1 11.895-8.63l60.212 82.874a51.918 51.918 0 0 1-11.897 8.628"/>
		</clipPath>
		<linearGradient x1="0" y1="0" x2="1" y2="0" gradientUnits="userSpaceOnUse" gradientTransform="matrix(53.98368 0 0 -53.98368 455.114 263.773)" spreadMethod="pad" id="a">
			<stop style="stop-opacity:0;stop-color:#fff" offset="0"/>
			<stop style="stop-opacity:1;stop-color:#fff" offset="1"/>
		</linearGradient>
		<linearGradient x1="0" y1="0" x2="1" y2="0" gradientUnits="userSpaceOnUse" gradientTransform="matrix(53.98368 0 0 -53.98368 455.114 263.773)" spreadMethod="pad" id="j">
			<stop style="stop-opacity:1;stop-color:#1d1d1b" offset="0"/>
			<stop style="stop-opacity:1;stop-color:#1d1d1b" offset="1"/>
		</linearGradient>
		<linearGradient x1="0" y1="0" x2="1" y2="0" gradientUnits="userSpaceOnUse" gradientTransform="scale(-35.0935 35.0935) rotate(-55.189 1.608 16.127)" spreadMethod="pad" id="b">
			<stop style="stop-opacity:0;stop-color:#fff" offset="0"/>
			<stop style="stop-opacity:1;stop-color:#fff" offset="1"/>
		</linearGradient>
		<linearGradient x1="0" y1="0" x2="1" y2="0" gradientUnits="userSpaceOnUse" gradientTransform="scale(-35.0935 35.0935) rotate(-55.189 1.608 16.127)" spreadMethod="pad" id="n">
			<stop style="stop-opacity:1;stop-color:#1d1d1b" offset="0"/>
			<stop style="stop-opacity:1;stop-color:#1d1d1b" offset="1"/>
		</linearGradient>
		<linearGradient x1="0" y1="0" x2="1" y2="0" gradientUnits="userSpaceOnUse" gradientTransform="scale(-19.72735 19.72735) rotate(-45.699 4.491 46.699)" spreadMethod="pad" id="c">
			<stop style="stop-opacity:0;stop-color:#fff" offset="0"/>
			<stop style="stop-opacity:1;stop-color:#fff" offset="1"/>
		</linearGradient>
		<linearGradient x1="0" y1="0" x2="1" y2="0" gradientUnits="userSpaceOnUse" gradientTransform="scale(-19.72735 19.72735) rotate(-45.699 4.491 46.699)" spreadMethod="pad" id="r">
			<stop style="stop-opacity:1;stop-color:#1d1d1b" offset="0"/>
			<stop style="stop-opacity:1;stop-color:#1d1d1b" offset="1"/>
		</linearGradient>
		<linearGradient x1="0" y1="0" x2="1" y2="0" gradientUnits="userSpaceOnUse" gradientTransform="matrix(53.98368 0 0 -53.98368 206.198 263.773)" spreadMethod="pad" id="d">
			<stop style="stop-opacity:0;stop-color:#fff" offset="0"/>
			<stop style="stop-opacity:1;stop-color:#fff" offset="1"/>
		</linearGradient>
		<linearGradient x1="0" y1="0" x2="1" y2="0" gradientUnits="userSpaceOnUse" gradientTransform="matrix(53.98368 0 0 -53.98368 206.198 263.773)" spreadMethod="pad" id="v">
			<stop style="stop-opacity:1;stop-color:#1d1d1b" offset="0"/>
			<stop style="stop-opacity:1;stop-color:#1d1d1b" offset="1"/>
		</linearGradient>
		<linearGradient x1="0" y1="0" x2="1" y2="0" gradientUnits="userSpaceOnUse" gradientTransform="scale(-35.0935 35.0935) rotate(-55.189 5.155 9.342)" spreadMethod="pad" id="e">
			<stop style="stop-opacity:0;stop-color:#fff" offset="0"/>
			<stop style="stop-opacity:1;stop-color:#fff" offset="1"/>
		</linearGradient>
		<linearGradient x1="0" y1="0" x2="1" y2="0" gradientUnits="userSpaceOnUse" gradientTransform="scale(-35.0935 35.0935) rotate(-55.189 5.155 9.342)" spreadMethod="pad" id="z">
			<stop style="stop-opacity:1;stop-color:#1d1d1b" offset="0"/>
			<stop style="stop-opacity:1;stop-color:#1d1d1b" offset="1"/>
		</linearGradient>
		<mask maskUnits="userSpaceOnUse" x="0" y="0" width="1" height="1" id="i">
			<path d="M-32768 32767h65535v-65535h-65535Z" style="fill:url(#a);stroke:none"/>
		</mask>
		<mask maskUnits="userSpaceOnUse" x="0" y="0" width="1" height="1" id="m">
			<path d="M-32768 32767h65535v-65535h-65535Z" style="fill:url(#b);stroke:none"/>
		</mask>
		<mask maskUnits="userSpaceOnUse" x="0" y="0" width="1" height="1" id="q">
			<path d="M-32768 32767h65535v-65535h-65535Z" style="fill:url(#c);stroke:none"/>
		</mask>
		<mask maskUnits="userSpaceOnUse" x="0" y="0" width="1" height="1" id="u">
			<path d="M-32768 32767h65535v-65535h-65535Z" style="fill:url(#d);stroke:none"/>
		</mask>
		<mask maskUnits="userSpaceOnUse" x="0" y="0" width="1" height="1" id="y">
			<path d="M-32768 32767h65535v-65535h-65535Z" style="fill:url(#e);stroke:none"/>
		</mask>
	</defs>
	<g clip-path="url(#f)" transform="matrix(1.33333 0 0 -1.33333 0 793.707)">
		<path d="M0 0c15.336 21.108 43.636 27.211 66.045 15.343L5.817-67.553C-12.395-49.91-15.336-21.108 0 0m90.776-47.397a51.676 51.676 0 0 0-7.025-13.452C68.416-81.958 40.116-88.061 17.707-76.192L77.935 6.705l.001-.001 8.707 11.984a66.925 66.925 0 0 1-5.703 4.655C51.246 44.918 9.683 38.335-11.892 8.64-33.466-21.055-26.883-62.617 2.812-84.192c29.694-21.574 71.257-14.992 92.831 14.703a66.392 66.392 0 0 1 8.907 16.973z" style="fill:#888;fill-opacity:1;fill-rule:nonzero;stroke:none" transform="translate(404.547 328.213)"/>
		<g clip-path="url(#g)" opacity=".4">
			<g mask="url(#i)" clip-path="url(#h)">
				<path d="M495.334 280.806c-6.019-17.242-20.98-30.8-40.221-34.065 0 0 43.484 2.514 53.985 28.955l-9.848 3.656z" style="fill:url(#j);stroke:none"/>
			</g>
		</g>
		<g clip-path="url(#k)" opacity=".4">
			<g mask="url(#m)" clip-path="url(#l)">
				<path d="m470.58 343.536-60.21-82.872a51.833 51.833 0 0 1 11.895-8.63l60.212 82.874a51.918 51.918 0 0 1-11.897 8.628" style="fill:url(#n);stroke:none"/>
			</g>
		</g>
		<path d="M0 0c15.336 21.108 43.637 27.211 66.045 15.343L5.817-67.553C-12.395-49.91-15.336-21.108 0 0m90.776-47.397a51.702 51.702 0 0 0-7.024-13.452C68.416-81.958 40.116-88.061 17.707-76.192L77.935 6.705l.001-.001 8.707 11.984a66.925 66.925 0 0 1-5.703 4.655C51.246 44.918 9.683 38.335-11.892 8.64-33.466-21.055-26.883-62.617 2.812-84.192c29.694-21.574 71.257-14.992 92.832 14.703a66.455 66.455 0 0 1 8.907 16.973z" style="fill:#888;fill-opacity:1;fill-rule:nonzero;stroke:none" transform="translate(155.631 328.213)"/>
		<path d="M0 0h-15.997v76.416c0 20.372-16.579 36.95-36.957 36.95-20.372 0-36.95-16.578-36.95-36.95V0h-15.998v76.416c0 29.195 23.753 52.948 52.948 52.948C-23.752 129.364 0 105.611 0 76.416Z" style="fill:#888;fill-opacity:1;fill-rule:nonzero;stroke:none" transform="translate(621.546 234.828)"/>
		<path d="M0 0h-15.686a.156.156 0 0 0-.156.155v74.816c0 19.742-14.859 37.074-34.562 38.32-21.455 1.355-39.345-15.713-39.345-36.875V.155A.154.154 0 0 0-89.904 0h-15.687a.154.154 0 0 0-.155.155v74.574c0 28.56 21.896 53.241 50.425 54.575C-24.98 130.724.156 106.45.156 76.416V.155A.155.155 0 0 0 0 0" style="fill:#888;fill-opacity:1;fill-rule:nonzero;stroke:none" transform="translate(711.295 234.828)"/>
		<g clip-path="url(#o)" opacity=".4">
			<g mask="url(#q)" clip-path="url(#p)">
				<path d="M635.758 358.805c-9.068-4.487-16.683-11.499-21.979-20.141 4.89-8.008 7.767-17.369 7.767-27.421 0 15.727 9.896 29.16 23.778 34.481z" style="fill:url(#r);stroke:none"/>
			</g>
		</g>
		<path d="m0 0-15.833 21.793h-41.679l36.673-50.476z" style="fill:#ff470e;fill-opacity:1;fill-rule:nonzero;stroke:none" transform="translate(311.361 339)"/>
		<path d="m0 0-20.839-28.683 45.685-62.88h41.678z" style="fill:#e84b1f;fill-opacity:1;fill-rule:nonzero;stroke:none" transform="translate(320.444 326.498)"/>
		<path d="m0 0 24.882-34.247H66.56L20.839 28.682Z" style="fill:#ffe100;fill-opacity:1;fill-rule:nonzero;stroke:none" transform="translate(320.409 269.181)"/>
		<path d="m0 0 20.839 28.682 6.445-8.859z" style="fill:#f9be00;fill-opacity:1;fill-rule:nonzero;stroke:none" transform="translate(320.409 269.181)"/>
		<path d="m0 0-91.44-125.858h41.677L41.678 0Z" style="fill:#3e81f6;fill-opacity:1;fill-rule:nonzero;stroke:none" transform="translate(345.29 360.792)"/>
		<g clip-path="url(#s)" opacity=".4">
			<g mask="url(#u)" clip-path="url(#t)">
				<path d="M246.418 280.806c-6.018-17.242-20.98-30.8-40.22-34.065 0 0 43.483 2.514 53.983 28.955l-9.847 3.656z" style="fill:url(#v);stroke:none"/>
			</g>
		</g>
		<g clip-path="url(#w)" opacity=".4">
			<g mask="url(#y)" clip-path="url(#x)">
				<path d="m221.664 343.536-60.21-82.872a51.833 51.833 0 0 1 11.895-8.63l60.212 82.874a51.918 51.918 0 0 1-11.897 8.628" style="fill:url(#z);stroke:none"/>
			</g>
		</g>
	</g>
</svg>
