<svg xmlns="http://www.w3.org/2000/svg" viewBox="159.02 292.52 804.96 207.96">
	<defs>
		<clipPath id="f" clipPathUnits="userSpaceOnUse">
			<path d="M0 595.28h841.89V0H0z"/>
		</clipPath>
		<clipPath id="g" clipPathUnits="userSpaceOnUse">
			<path d="M455.114 280.806h53.983v-34.065h-53.983z"/>
		</clipPath>
		<clipPath id="i" clipPathUnits="userSpaceOnUse">
			<path d="M495.334 280.806c-6.019-17.242-20.98-30.8-40.221-34.065 0 0 43.484 2.514 53.985 28.955l-9.848 3.656z"/>
		</clipPath>
		<clipPath id="k" clipPathUnits="userSpaceOnUse">
			<path d="M410.369 343.536h72.108v-91.502h-72.108z"/>
		</clipPath>
		<clipPath id="m" clipPathUnits="userSpaceOnUse">
			<path d="m470.58 343.536-60.21-82.872a51.833 51.833 0 0 1 11.895-8.63l60.212 82.874a51.918 51.918 0 0 1-11.897 8.628"/>
		</clipPath>
		<clipPath id="o" clipPathUnits="userSpaceOnUse">
			<path d="M613.779 358.805h31.546v-47.561h-31.546z"/>
		</clipPath>
		<clipPath id="q" clipPathUnits="userSpaceOnUse">
			<path d="M635.758 358.805c-9.068-4.487-16.683-11.499-21.979-20.141 4.89-8.008 7.767-17.369 7.767-27.421 0 15.727 9.896 29.16 23.778 34.481z"/>
		</clipPath>
		<clipPath id="s" clipPathUnits="userSpaceOnUse">
			<path d="M206.198 280.806h53.983v-34.065h-53.983z"/>
		</clipPath>
		<clipPath id="u" clipPathUnits="userSpaceOnUse">
			<path d="M246.418 280.806c-6.018-17.242-20.98-30.8-40.22-34.065 0 0 43.483 2.514 53.983 28.955l-9.847 3.656z"/>
		</clipPath>
		<clipPath id="w" clipPathUnits="userSpaceOnUse">
			<path d="M161.454 343.536h72.107v-91.502h-72.107z"/>
		</clipPath>
		<clipPath id="y" clipPathUnits="userSpaceOnUse">
			<path d="m221.664 343.536-60.21-82.872a51.833 51.833 0 0 1 11.895-8.63l60.212 82.874a51.918 51.918 0 0 1-11.897 8.628"/>
		</clipPath>
		<linearGradient id="a" x1="0" x2="1" y1="0" y2="0" gradientTransform="matrix(53.98368 0 0 -53.98368 455.114 263.773)" gradientUnits="userSpaceOnUse" spreadMethod="pad">
			<stop offset="0" stop-color="#fff" stop-opacity="0"/>
			<stop offset="1" stop-color="#fff"/>
		</linearGradient>
		<linearGradient id="j" x1="0" x2="1" y1="0" y2="0" gradientTransform="matrix(53.98368 0 0 -53.98368 455.114 263.773)" gradientUnits="userSpaceOnUse" spreadMethod="pad">
			<stop offset="0" stop-color="#1d1d1b"/>
			<stop offset="1" stop-color="#1d1d1b"/>
		</linearGradient>
		<linearGradient id="b" x1="0" x2="1" y1="0" y2="0" gradientTransform="scale(-35.0935 35.0935) rotate(-55.189 1.608 16.127)" gradientUnits="userSpaceOnUse" spreadMethod="pad">
			<stop offset="0" stop-color="#fff" stop-opacity="0"/>
			<stop offset="1" stop-color="#fff"/>
		</linearGradient>
		<linearGradient id="n" x1="0" x2="1" y1="0" y2="0" gradientTransform="scale(-35.0935 35.0935) rotate(-55.189 1.608 16.127)" gradientUnits="userSpaceOnUse" spreadMethod="pad">
			<stop offset="0" stop-color="#1d1d1b"/>
			<stop offset="1" stop-color="#1d1d1b"/>
		</linearGradient>
		<linearGradient id="c" x1="0" x2="1" y1="0" y2="0" gradientTransform="scale(-19.72735 19.72735) rotate(-45.699 4.491 46.699)" gradientUnits="userSpaceOnUse" spreadMethod="pad">
			<stop offset="0" stop-color="#fff" stop-opacity="0"/>
			<stop offset="1" stop-color="#fff"/>
		</linearGradient>
		<linearGradient id="r" x1="0" x2="1" y1="0" y2="0" gradientTransform="scale(-19.72735 19.72735) rotate(-45.699 4.491 46.699)" gradientUnits="userSpaceOnUse" spreadMethod="pad">
			<stop offset="0" stop-color="#1d1d1b"/>
			<stop offset="1" stop-color="#1d1d1b"/>
		</linearGradient>
		<linearGradient id="d" x1="0" x2="1" y1="0" y2="0" gradientTransform="matrix(53.98368 0 0 -53.98368 206.198 263.773)" gradientUnits="userSpaceOnUse" spreadMethod="pad">
			<stop offset="0" stop-color="#fff" stop-opacity="0"/>
			<stop offset="1" stop-color="#fff"/>
		</linearGradient>
		<linearGradient id="v" x1="0" x2="1" y1="0" y2="0" gradientTransform="matrix(53.98368 0 0 -53.98368 206.198 263.773)" gradientUnits="userSpaceOnUse" spreadMethod="pad">
			<stop offset="0" stop-color="#1d1d1b"/>
			<stop offset="1" stop-color="#1d1d1b"/>
		</linearGradient>
		<linearGradient id="e" x1="0" x2="1" y1="0" y2="0" gradientTransform="scale(-35.0935 35.0935) rotate(-55.189 5.155 9.342)" gradientUnits="userSpaceOnUse" spreadMethod="pad">
			<stop offset="0" stop-color="#fff" stop-opacity="0"/>
			<stop offset="1" stop-color="#fff"/>
		</linearGradient>
		<linearGradient id="z" x1="0" x2="1" y1="0" y2="0" gradientTransform="scale(-35.0935 35.0935) rotate(-55.189 5.155 9.342)" gradientUnits="userSpaceOnUse" spreadMethod="pad">
			<stop offset="0" stop-color="#1d1d1b"/>
			<stop offset="1" stop-color="#1d1d1b"/>
		</linearGradient>
		<mask id="h" width="1" height="1" x="0" y="0" maskUnits="userSpaceOnUse">
			<path fill="url(#a)" d="M-32768 32767h65535v-65535h-65535z"/>
		</mask>
		<mask id="l" width="1" height="1" x="0" y="0" maskUnits="userSpaceOnUse">
			<path fill="url(#b)" d="M-32768 32767h65535v-65535h-65535z"/>
		</mask>
		<mask id="p" width="1" height="1" x="0" y="0" maskUnits="userSpaceOnUse">
			<path fill="url(#c)" d="M-32768 32767h65535v-65535h-65535z"/>
		</mask>
		<mask id="t" width="1" height="1" x="0" y="0" maskUnits="userSpaceOnUse">
			<path fill="url(#d)" d="M-32768 32767h65535v-65535h-65535z"/>
		</mask>
		<mask id="x" width="1" height="1" x="0" y="0" maskUnits="userSpaceOnUse">
			<path fill="url(#e)" d="M-32768 32767h65535v-65535h-65535z"/>
		</mask>
	</defs>
	<g clip-path="url(#f)" transform="matrix(1.33333 0 0 -1.33333 0 793.707)">
		<path fill="#888" d="M404.547 328.213c15.336 21.108 43.636 27.211 66.045 15.343l-60.228-82.896c-18.212 17.643-21.153 46.445-5.817 67.553m90.776-47.397a51.676 51.676 0 0 0-7.025-13.452c-15.335-21.109-43.635-27.212-66.044-15.343l60.228 82.897.001-.001 8.707 11.984a66.925 66.925 0 0 1-5.703 4.655c-29.694 21.575-71.257 14.992-92.832-14.703-21.574-29.695-14.991-71.257 14.704-92.832 29.694-21.574 71.257-14.992 92.831 14.703a66.392 66.392 0 0 1 8.907 16.973z"/>
		<g clip-path="url(#g)">
			<g mask="url(#h)" clip-path="url(#i)" opacity=".4">
				<path fill="url(#j)" d="M495.334 280.806c-6.019-17.242-20.98-30.8-40.221-34.065 0 0 43.484 2.514 53.985 28.955l-9.848 3.656z"/>
			</g>
		</g>
		<g clip-path="url(#k)">
			<g mask="url(#l)" clip-path="url(#m)" opacity=".4">
				<path fill="url(#n)" d="m470.58 343.536-60.21-82.872a51.833 51.833 0 0 1 11.895-8.63l60.212 82.874a51.918 51.918 0 0 1-11.897 8.628"/>
			</g>
		</g>
		<path fill="#888" d="M155.631 328.213c15.336 21.108 43.637 27.211 66.045 15.343l-60.228-82.896c-18.212 17.643-21.153 46.445-5.817 67.553m90.776-47.397a51.702 51.702 0 0 0-7.024-13.452c-15.336-21.109-43.636-27.212-66.045-15.343l60.228 82.897.001-.001 8.707 11.984a66.925 66.925 0 0 1-5.703 4.655c-29.694 21.575-71.257 14.992-92.832-14.703-21.574-29.695-14.991-71.257 14.704-92.832 29.694-21.574 71.257-14.992 92.832 14.703a66.455 66.455 0 0 1 8.907 16.973z"/>
		<path fill="#888" d="M621.546 234.828h-15.997v76.416c0 20.372-16.579 36.95-36.957 36.95-20.372 0-36.95-16.578-36.95-36.95v-76.416h-15.998v76.416c0 29.195 23.753 52.948 52.948 52.948 29.202 0 52.954-23.753 52.954-52.948z"/>
		<path fill="#888" d="M711.295 234.828h-15.686a.156.156 0 0 0-.156.155v74.816c0 19.742-14.859 37.074-34.562 38.32-21.455 1.355-39.345-15.713-39.345-36.875v-76.261a.154.154 0 0 0-.155-.155h-15.687a.154.154 0 0 0-.155.155v74.574c0 28.56 21.896 53.241 50.425 54.575 30.341 1.42 55.477-22.854 55.477-52.888v-76.261a.155.155 0 0 0-.156-.155"/>
		<g clip-path="url(#o)">
			<g mask="url(#p)" clip-path="url(#q)" opacity=".4">
				<path fill="url(#r)" d="M635.758 358.805c-9.068-4.487-16.683-11.499-21.979-20.141 4.89-8.008 7.767-17.369 7.767-27.421 0 15.727 9.896 29.16 23.778 34.481z"/>
			</g>
		</g>
		<path fill="#ff470e" d="m311.361 339-15.833 21.793h-41.679l36.673-50.476z"/>
		<path fill="#e84b1f" d="m320.444 326.498-20.839-28.683 45.685-62.88h41.678z"/>
		<path fill="#ffe100" d="m320.409 269.181 24.882-34.247h41.678l-45.721 62.929z"/>
		<path fill="#f9be00" d="m320.409 269.181 20.839 28.682 6.445-8.859z"/>
		<path fill="#3e81f6" d="m345.29 360.792-91.44-125.858h41.677l91.441 125.858z"/>
		<g clip-path="url(#s)">
			<g mask="url(#t)" clip-path="url(#u)" opacity=".4">
				<path fill="url(#v)" d="M246.418 280.806c-6.018-17.242-20.98-30.8-40.22-34.065 0 0 43.483 2.514 53.983 28.955l-9.847 3.656z"/>
			</g>
		</g>
		<g clip-path="url(#w)">
			<g mask="url(#x)" clip-path="url(#y)" opacity=".4">
				<path fill="url(#z)" d="m221.664 343.536-60.21-82.872a51.833 51.833 0 0 1 11.895-8.63l60.212 82.874a51.918 51.918 0 0 1-11.897 8.628"/>
			</g>
		</g>
	</g>
</svg>
