<svg xmlns="http://www.w3.org/2000/svg" viewBox="5.78 32.78 388.18 171.18">
	<defs>
		<linearGradient id="a" x1="123.95" x2="277.724" y1="78.919" y2="78.919" gradientUnits="userSpaceOnUse">
			<stop offset="0" stop-color="#a914ad"/>
			<stop offset="1" stop-color="#17d0e8"/>
		</linearGradient>
	</defs>
	<path fill="url(#a)" d="M186.12 40.354v77.129h-43.815a18.337 18.337 0 1 1 10.024-33.696 38.61 38.61 0 0 1 33.791-43.433zm60.396 24.769A25.632 25.632 0 0 0 229.3 75.402a38.693 38.693 0 0 0-33.76-34.995V86.9h50.976zm9.419.063v21.715h21.789a26.8 26.8 0 0 0-21.789-21.715zm-60.395 52.297h21.216V96.32H195.54zm30.635 0 25.335-.001c13.179 0 23.972-8.802 26.202-21.162h-51.537z"/>
	<path fill="#231f20" d="M32.786 156.393c-11.388 0-19.37 9.229-19.37 20.035 0 10.974 7.982 20.119 19.455 20.119a21.681 21.681 0 0 0 14.297-5.238 1.616 1.616 0 0 0 .166-2.494l-3.24-4.322c-.582-.831-1.582-.749-2.495 0a12.735 12.735 0 0 1-8.231 2.827 9.228 9.228 0 0 1-9.56-8.896h24.607a1.949 1.949 0 0 0 1.829-1.746 24.771 24.771 0 0 0 .168-2.493c0-10.393-7.65-17.792-17.626-17.792zm-8.397 15.213c.5-3.823 3.494-6.65 8.147-6.65 4.241 0 7.235 2.91 7.4 6.65zm92.273-15.213c-10.807 0-19.62 9.144-19.62 19.953 0 10.974 8.813 20.2 19.62 20.2 10.891 0 19.704-9.226 19.704-20.2a19.96 19.96 0 0 0-19.704-19.953zm0 30.677c-5.569 0-9.975-4.823-9.975-10.724a10.028 10.028 0 1 1 20.035 0c0 5.901-4.488 10.724-10.06 10.724zm-24.104 5.736c.913 1.247.497 2.826-1.081 2.826h-7.982a2.977 2.977 0 0 1-2.66-1.58l-7.065-10.558h-.166l-7.485 11.39a2.196 2.196 0 0 1-1.578.748h-8.647c-1.663 0-2.079-1.58-1.247-2.826l12.222-16.71-11.722-16.045a1.673 1.673 0 0 1 1.331-2.827h7.563a3.298 3.298 0 0 1 3.16 1.33l6.403 10.06h.166l6.565-10.06a3.02 3.02 0 0 1 2.91-1.33h8.147c1.663 0 2.079 1.58 1.082 2.827L80.67 175.93zm54.28-26.27h-3.74a1.83 1.83 0 0 1-1.747-1.83v-5.652a1.728 1.728 0 0 1 1.747-1.83h3.74v-10.64a1.903 1.903 0 0 1 1.829-1.829h6.816a1.774 1.774 0 0 1 1.747 1.828v10.641h8.978a1.793 1.793 0 0 1 1.828 1.83v5.652a1.902 1.902 0 0 1-1.828 1.83h-8.978v17.291c0 2.577 1.247 3.16 3.16 3.16a25.343 25.343 0 0 0 5.818-1.247 1.481 1.481 0 0 1 2.163.997l1.081 5.072a1.876 1.876 0 0 1-1.081 2.244 30.342 30.342 0 0 1-10.807 2.494c-8.563 0-10.725-5.737-10.725-12.387zm42.48 4.822a28.194 28.194 0 0 1 7.398 1.08c.165-4.905-1.247-7.232-5.32-7.232a48.015 48.015 0 0 0-10.806 1.413c-1.247.415-1.997-.499-2.162-1.663l-.832-4.324a1.75 1.75 0 0 1 1.247-2.326 48.503 48.503 0 0 1 13.135-1.913c11.973 0 14.467 6.235 14.467 16.71v20.701a1.845 1.845 0 0 1-1.832 1.828h-2.825c-.666 0-1.163-.25-1.663-1.33l-1.08-2.578a16.81 16.81 0 0 1-12.055 4.823c-7.647 0-12.969-4.905-12.969-13.135 0-6.818 5.569-12.054 15.298-12.054zm.247 17.457c3.41 0 6.404-2.66 6.9-4.074v-5.651a15.294 15.294 0 0 0-5.65-1.165c-4.406 0-6.819 2.079-6.819 5.487 0 3.242 1.998 5.403 5.57 5.403zm27.183-29.76a1.845 1.845 0 0 1 1.828-1.83h3.16a1.474 1.474 0 0 1 1.581 1.163l1.413 3.576a15.504 15.504 0 0 1 12.388-5.57c12.22 0 15.379 8.23 15.379 17.54v19.87a1.903 1.903 0 0 1-1.829 1.828h-6.734a1.845 1.845 0 0 1-1.828-1.828v-19.87c0-4.987-1.997-8.064-6.65-8.064a8.461 8.461 0 0 0-8.317 5.986v21.948c0 1.413-.581 1.829-2.41 1.829h-6.153a1.903 1.903 0 0 1-1.828-1.829zm44.474-15.048a6.476 6.476 0 0 1 6.566-6.568 6.548 6.548 0 0 1 6.653 6.568 6.617 6.617 0 0 1-6.653 6.65 6.545 6.545 0 0 1-6.566-6.65zm1.497 15.047a1.843 1.843 0 0 1 1.828-1.83h6.735a1.845 1.845 0 0 1 1.828 1.83v34.75a1.903 1.903 0 0 1-1.828 1.828h-6.735a1.9 1.9 0 0 1-1.828-1.828zm20.613 0a1.793 1.793 0 0 1 1.828-1.83h6.735a1.793 1.793 0 0 1 1.828 1.83v20.367c0 5.072 1.747 7.649 6.485 7.649 4.24 0 6.235-3.824 6.82-7.15v-20.866c0-1.497.496-1.83 2.077-1.83h6.485a1.793 1.793 0 0 1 1.828 1.83v34.75a1.845 1.845 0 0 1-1.828 1.828h-2.994a1.97 1.97 0 0 1-1.828-1.412l-1.081-3.242c-1.994 2.078-5.985 5.569-11.888 5.569-11.889 0-14.467-7.4-14.467-17.126zm44.724 0a1.843 1.843 0 0 1 1.828-1.83h2.994a1.487 1.487 0 0 1 1.578 1.082l1.413 3.658a14.6 14.6 0 0 1 11.722-5.57c5.57 0 8.313 1.994 11.473 5.818a16.398 16.398 0 0 1 12.388-5.819c12.304 0 15.213 7.815 15.213 17.792v19.62a1.864 1.864 0 0 1-1.912 1.827h-6.65a1.845 1.845 0 0 1-1.829-1.828v-19.87c0-4.987-1.831-8.064-6.65-8.064-5.572 0-7.15 3.99-7.15 3.99s.165 1.914.165 3.659v20.285a1.903 1.903 0 0 1-1.828 1.828h-6.82a1.793 1.793 0 0 1-1.828-1.828v-19.87c0-4.987-1.412-8.064-6.319-8.064-4.737 0-6.481 3.325-7.397 5.986v21.948a1.903 1.903 0 0 1-1.828 1.828h-6.735a1.9 1.9 0 0 1-1.828-1.828z"/>
</svg>
