<svg xmlns="http://www.w3.org/2000/svg" width="200" height="128">
	<g fill="#444">
		<path d="M44.888 76.965v1.041H20V40.83h24.68v1.041H21.041v16.246h22.233v1.041H21.041v17.807z"/>
		<path d="m66.183 51.243-9.789 12.914L67.12 78.006h-1.3l-10.1-13.068-10.052 13.068h-1.249l10.674-13.849-9.737-12.914h1.354l9.007 12.133 9.216-12.133zM69.2 87.17V51.243h1.041v7.5h.1a11.861 11.861 0 0 1 1.51-3.255A11.442 11.442 0 0 1 74.2 52.91a10.091 10.091 0 0 1 3.1-1.692 11.554 11.554 0 0 1 3.775-.6 10.62 10.62 0 0 1 4.764 1.041 10.428 10.428 0 0 1 3.593 2.916A13.341 13.341 0 0 1 91.7 59a19.854 19.854 0 0 1 .027 10.934 14.2 14.2 0 0 1-2.187 4.478 10.172 10.172 0 0 1-8.461 4.165 10.88 10.88 0 0 1-7.029-2.212 10.694 10.694 0 0 1-3.7-5.858h-.1V87.17zm16.586-10.751a10.061 10.061 0 0 0 3.2-3.021 13.325 13.325 0 0 0 1.849-4.165 18.6 18.6 0 0 0 .6-4.66 18.116 18.116 0 0 0-.651-4.92 13.231 13.231 0 0 0-1.926-4.114A9.24 9.24 0 0 0 85.63 52.7a9.535 9.535 0 0 0-4.556-1.042 9.886 9.886 0 0 0-4.582 1.042 10.111 10.111 0 0 0-3.41 2.811 12.8 12.8 0 0 0-2.109 4.114 16.524 16.524 0 0 0-.729 4.946q0 6.3 2.968 9.659a9.98 9.98 0 0 0 7.862 3.358 9.008 9.008 0 0 0 4.712-1.169zm11.376 1.587V51.243H98.2v6.614h.1a10.313 10.313 0 0 1 1.145-2.838 7.971 7.971 0 0 1 2.083-2.317 10.184 10.184 0 0 1 3.1-1.562 12.9 12.9 0 0 1 4.191-.521v1.041a10.04 10.04 0 0 0-4.764.755 9.037 9.037 0 0 0-3.306 2.5 10.494 10.494 0 0 0-1.927 3.671 14.8 14.8 0 0 0-.624 4.27v15.15zm13.615-8.148a11.813 11.813 0 0 0 1.848 4.035 8.764 8.764 0 0 0 3.229 2.708 10.739 10.739 0 0 0 4.842.989 10.9 10.9 0 0 0 7-2.213 10.013 10.013 0 0 0 3.462-6.638h1.042a10.669 10.669 0 0 1-3.7 7.263 11.711 11.711 0 0 1-7.706 2.577 11.988 11.988 0 0 1-5.337-.989 9.4 9.4 0 0 1-3.619-2.942 12.987 12.987 0 0 1-2.082-4.477 21.744 21.744 0 0 1-.677-5.546 16.626 16.626 0 0 1 .989-5.936 13.845 13.845 0 0 1 2.6-4.4 10.949 10.949 0 0 1 8.122-3.671 11.385 11.385 0 0 1 5.389 1.2 10.623 10.623 0 0 1 3.7 3.176 13.245 13.245 0 0 1 2.082 4.531 18.556 18.556 0 0 1 .547 5.31h-22.382a21.684 21.684 0 0 0 .651 5.023zM130.8 59.132a11.608 11.608 0 0 0-2-3.879 9.466 9.466 0 0 0-3.306-2.63 10.368 10.368 0 0 0-4.582-.963 10.069 10.069 0 0 0-4.087.833 9.683 9.683 0 0 0-3.332 2.421 12.542 12.542 0 0 0-2.317 3.828 16.106 16.106 0 0 0-1.042 5.05h21.348a15.858 15.858 0 0 0-.682-4.66zm22.7-3.41a6.043 6.043 0 0 0-1.77-2.317 7.322 7.322 0 0 0-2.734-1.328 13.835 13.835 0 0 0-3.514-.417 10.651 10.651 0 0 0-4.426.755 6.654 6.654 0 0 0-2.4 1.718 4.675 4.675 0 0 0-.99 1.9 7.154 7.154 0 0 0-.208 1.3 4.971 4.971 0 0 0 .807 3.046 5.169 5.169 0 0 0 2.161 1.64 23.1 23.1 0 0 0 3.046.989q1.641.417 3.827.989 1.561.417 3.1.86a10.506 10.506 0 0 1 2.76 1.223 6.344 6.344 0 0 1 1.978 1.979 5.785 5.785 0 0 1 .755 3.124 6.468 6.468 0 0 1-.859 3.436 7.073 7.073 0 0 1-2.239 2.291 9.6 9.6 0 0 1-3.124 1.276 15.831 15.831 0 0 1-3.463.39q-5.362 0-8.1-2.343t-2.733-7.393h1.041q0 4.53 2.525 6.638t7.263 2.109a13.933 13.933 0 0 0 2.994-.338 9.147 9.147 0 0 0 2.786-1.094 6.5 6.5 0 0 0 2.057-1.953 5.1 5.1 0 0 0 .807-2.915 4.714 4.714 0 0 0-.807-2.864 6.365 6.365 0 0 0-2.083-1.8 12.219 12.219 0 0 0-2.942-1.12q-1.667-.415-3.384-.832-1.927-.47-3.384-.886a18.623 18.623 0 0 1-2.6-.937 5.134 5.134 0 0 1-2.447-2.031 6.739 6.739 0 0 1-.781-3.488 6.3 6.3 0 0 1 .468-2.292 5.829 5.829 0 0 1 1.562-2.186 8.458 8.458 0 0 1 2.812-1.615 12.442 12.442 0 0 1 4.218-.624 11.225 11.225 0 0 1 7.081 2.031q2.6 2.03 2.6 6.508h-1.041a8.436 8.436 0 0 0-.619-3.429zm24.105 0a6.033 6.033 0 0 0-1.77-2.317 7.329 7.329 0 0 0-2.734-1.328 13.835 13.835 0 0 0-3.514-.417 10.651 10.651 0 0 0-4.426.755 6.654 6.654 0 0 0-2.4 1.718 4.675 4.675 0 0 0-.99 1.9 7.154 7.154 0 0 0-.208 1.3 4.971 4.971 0 0 0 .807 3.046 5.169 5.169 0 0 0 2.161 1.64 23.1 23.1 0 0 0 3.046.989q1.641.417 3.827.989 1.561.417 3.1.86a10.506 10.506 0 0 1 2.76 1.223 6.344 6.344 0 0 1 1.978 1.979 5.785 5.785 0 0 1 .758 3.127 6.468 6.468 0 0 1-.859 3.436 7.073 7.073 0 0 1-2.239 2.291 9.6 9.6 0 0 1-3.124 1.276 15.831 15.831 0 0 1-3.463.39q-5.362 0-8.1-2.343t-2.733-7.393h1.041q0 4.53 2.525 6.638t7.263 2.109a13.933 13.933 0 0 0 2.994-.338 9.147 9.147 0 0 0 2.786-1.094 6.5 6.5 0 0 0 2.057-1.953 5.1 5.1 0 0 0 .807-2.915 4.714 4.714 0 0 0-.807-2.864 6.365 6.365 0 0 0-2.083-1.8 12.235 12.235 0 0 0-2.942-1.12q-1.667-.415-3.384-.832-1.928-.47-3.384-.886a18.623 18.623 0 0 1-2.6-.937 5.134 5.134 0 0 1-2.447-2.031 6.739 6.739 0 0 1-.781-3.488 6.3 6.3 0 0 1 .473-2.288 5.829 5.829 0 0 1 1.562-2.186 8.458 8.458 0 0 1 2.812-1.615 12.442 12.442 0 0 1 4.218-.624 11.22 11.22 0 0 1 7.08 2.031q2.6 2.03 2.6 6.508h-1.042a8.436 8.436 0 0 0-.625-3.436z"/>
	</g>
</svg>
