<?xml version="1.0" standalone="no"?>
<!DOCTYPE svg PUBLIC "-//W3C//DTD SVG 20010904//EN"
 "http://www.w3.org/TR/2001/REC-SVG-20010904/DTD/svg10.dtd">
<svg version="1.0" xmlns="http://www.w3.org/2000/svg"
 width="200.000000pt" height="200.000000pt" viewBox="0 0 200.000000 200.000000"
 preserveAspectRatio="xMidYMid meet">
<metadata>
Created by potrace 1.16, written by Peter Selinger 2001-2019
</metadata>
<g transform="translate(0.000000,200.000000) scale(0.100000,-0.100000)"
fill="#000000" stroke="none">
<path d="M0 1000 l0 -1000 1000 0 1000 0 0 1000 0 1000 -1000 0 -1000 0 0
-1000z m1065 830 c20 -38 19 -52 -5 -83 -17 -21 -20 -40 -20 -119 l0 -94 70
-23 c89 -28 158 -83 204 -161 56 -96 67 -217 18 -208 -12 2 -20 21 -28 63 -19
108 -85 198 -174 238 -63 28 -178 28 -241 0 -92 -41 -159 -132 -174 -235 -8
-55 -27 -77 -50 -58 -20 17 -19 55 6 130 39 118 127 204 244 235 l65 18 0 97
c0 84 -3 99 -20 115 -24 22 -26 72 -3 97 10 11 30 18 54 18 32 0 41 -5 54 -30z
m54 -408 c40 -29 62 -66 68 -110 4 -33 2 -43 -11 -48 -23 -9 -43 11 -50 51 -7
37 -32 59 -79 71 -31 7 -43 25 -33 50 8 21 69 13 105 -14z m376 -712 l0 -405
-177 -3 c-143 -2 -178 -5 -178 -16 0 -10 -14 -6 -50 13 -27 14 -50 28 -50 31
0 3 23 17 50 31 37 20 50 23 50 13 0 -11 29 -14 150 -14 l150 0 -2 353 -3 352
-432 3 -433 2 0 -355 0 -355 203 -2 202 -3 0 -25 0 -25 -219 -3 c-153 -2 -223
1 -232 9 -11 9 -14 83 -14 404 0 215 3 395 7 398 3 4 225 6 492 5 l486 -3 0
-405z m-997 27 c2 -139 1 -158 -14 -164 -27 -10 -44 25 -44 89 0 52 -2 58 -20
58 -32 0 -74 -25 -89 -53 -12 -23 -11 -28 22 -61 37 -36 56 -91 39 -108 -15
-15 -46 -5 -50 17 -13 70 -115 74 -124 5 -4 -29 -44 -41 -54 -16 -15 38 39
126 77 126 11 0 19 7 19 16 0 26 38 81 72 105 17 13 46 22 69 23 l39 1 0 43
c0 52 15 84 38 80 15 -3 17 -22 20 -161z m1056 157 c12 -5 16 -21 16 -70 0
-60 1 -63 19 -52 44 27 148 -43 164 -112 4 -14 20 -33 37 -42 32 -18 64 -77
58 -106 -5 -26 -52 -22 -56 4 -5 32 -36 56 -69 52 -21 -2 -33 -12 -46 -40 -30
-61 -79 -46 -63 18 7 27 51 77 74 85 11 4 11 10 2 30 -14 30 -42 49 -87 60
l-33 7 0 -74 c0 -79 -13 -100 -45 -74 -20 16 -22 289 -3 308 14 14 12 14 32 6z
m-176 -66 c8 -8 12 -49 12 -120 0 -96 -2 -108 -19 -118 -21 -11 -697 -15 -725
-4 -13 5 -16 26 -16 123 0 65 3 121 7 124 3 4 169 7 368 7 267 0 364 -3 373
-12z"/>
<path d="M677 793 c-4 -3 -7 -42 -7 -85 l0 -78 340 0 341 0 -3 83 -3 82 -331
3 c-182 1 -333 -1 -337 -5z m553 -44 c0 -16 5 -19 19 -14 24 7 39 -13 16 -21
-12 -5 -14 -14 -10 -35 7 -32 -5 -38 -25 -14 -12 14 -15 14 -30 0 -25 -22 -32
-18 -25 14 4 21 2 30 -10 35 -22 8 -7 29 16 23 13 -4 19 0 19 12 0 10 3 21 6
24 11 11 24 -3 24 -24z m-410 2 c0 -14 5 -18 20 -14 23 6 26 -9 5 -27 -11 -9
-12 -17 -5 -30 6 -10 10 -21 10 -24 0 -13 -24 -5 -36 12 -13 16 -15 16 -28 0
-14 -19 -36 -24 -36 -9 0 6 5 13 10 16 15 10 12 35 -5 35 -8 0 -15 7 -15 16 0
12 6 15 25 10 20 -5 25 -3 25 14 0 11 7 20 15 20 8 0 15 -9 15 -19z m130 -1
c0 -17 5 -19 25 -14 28 7 34 -10 9 -24 -13 -7 -14 -13 -5 -30 15 -28 -7 -42
-26 -16 -13 18 -15 18 -27 2 -7 -10 -18 -18 -25 -18 -14 0 -14 23 1 38 9 9 7
13 -5 18 -26 9 -22 38 4 31 15 -4 23 0 26 14 7 25 23 25 23 -1z m140 -1 c0
-15 4 -19 19 -14 26 8 36 -11 14 -24 -15 -8 -16 -13 -6 -30 17 -27 -3 -40 -23
-15 -13 18 -15 18 -28 2 -7 -10 -18 -18 -25 -18 -14 0 -14 23 1 38 9 9 7 13
-5 18 -25 9 -22 38 3 31 15 -4 20 0 20 14 0 10 7 19 15 19 8 0 15 -9 15 -21z"/>
</g>
</svg>
