<svg version="1.0" xmlns="http://www.w3.org/2000/svg" width="266.667" height="266.667" viewBox="0 0 200 200">
	<path d="M0 100v100h200V0H0v100zm106.5-83c2 3.8 1.9 5.2-.5 8.3-1.7 2.1-2 4-2 11.9v9.4l7 2.3c8.9 2.8 15.8 8.3 20.4 16.1 5.6 9.6 6.7 21.7 1.8 20.8-1.2-.2-2-2.1-2.8-6.3-1.9-10.8-8.5-19.8-17.4-23.8-6.3-2.8-17.8-2.8-24.1 0-9.2 4.1-15.9 13.2-17.4 23.5-.8 5.5-2.7 7.7-5 5.8-2-1.7-1.9-5.5.6-13C71 60.2 79.8 51.6 91.5 48.5l6.5-1.8V37c0-8.4-.3-9.9-2-11.5-2.4-2.2-2.6-7.2-.3-9.7 1-1.1 3-1.8 5.4-1.8 3.2 0 4.1.5 5.4 3zm5.4 40.8c4 2.9 6.2 6.6 6.8 11 .4 3.3.2 4.3-1.1 4.8-2.3.9-4.3-1.1-5-5.1-.7-3.7-3.2-5.9-7.9-7.1-3.1-.7-4.3-2.5-3.3-5 .8-2.1 6.9-1.3 10.5 1.4zm37.6 71.2v40.5l-17.7.3c-14.3.2-17.8.5-17.8 1.6 0 1-1.4.6-5-1.3-2.7-1.4-5-2.8-5-3.1 0-.3 2.3-1.7 5-3.1 3.7-2 5-2.3 5-1.3 0 1.1 2.9 1.4 15 1.4h15l-.2-35.3-.3-35.2-43.2-.3L57 93v71l20.3.2 20.2.3v5l-21.9.3c-15.3.2-22.3-.1-23.2-.9-1.1-.9-1.4-8.3-1.4-40.4 0-21.5.3-39.5.7-39.8.3-.4 22.5-.6 49.2-.5l48.6.3V129zm-99.7-2.7c.2 13.9.1 15.8-1.4 16.4-2.7 1-4.4-2.5-4.4-8.9 0-5.2-.2-5.8-2-5.8-3.2 0-7.4 2.5-8.9 5.3-1.2 2.3-1.1 2.8 2.2 6.1 3.7 3.6 5.6 9.1 3.9 10.8-1.5 1.5-4.6.5-5-1.7-1.3-7-11.5-7.4-12.4-.5-.4 2.9-4.4 4.1-5.4 1.6-1.5-3.8 3.9-12.6 7.7-12.6 1.1 0 1.9-.7 1.9-1.6 0-2.6 3.8-8.1 7.2-10.5 1.7-1.3 4.6-2.2 6.9-2.3l3.9-.1v-4.3c0-5.2 1.5-8.4 3.8-8 1.5.3 1.7 2.2 2 16.1zm105.6-15.7c1.2.5 1.6 2.1 1.6 7 0 6 .1 6.3 1.9 5.2 4.4-2.7 14.8 4.3 16.4 11.2.4 1.4 2 3.3 3.7 4.2 3.2 1.8 6.4 7.7 5.8 10.6-.5 2.6-5.2 2.2-5.6-.4-.5-3.2-3.6-5.6-6.9-5.2-2.1.2-3.3 1.2-4.6 4-3 6.1-7.9 4.6-6.3-1.8.7-2.7 5.1-7.7 7.4-8.5 1.1-.4 1.1-1 .2-3-1.4-3-4.2-4.9-8.7-6l-3.3-.7v7.4c0 7.9-1.3 10-4.5 7.4-2-1.6-2.2-28.9-.3-30.8 1.4-1.4 1.2-1.4 3.2-.6zm-17.6 6.6c.8.8 1.2 4.9 1.2 12 0 9.6-.2 10.8-1.9 11.8-2.1 1.1-69.7 1.5-72.5.4-1.3-.5-1.6-2.6-1.6-12.3 0-6.5.3-12.1.7-12.4.3-.4 16.9-.7 36.8-.7 26.7 0 36.4.3 37.3 1.2z"/>
	<path d="M67.7 120.7c-.4.3-.7 4.2-.7 8.5v7.8h68.1l-.3-8.3-.3-8.2-33.1-.3c-18.2-.1-33.3.1-33.7.5zm55.3 4.4c0 1.6.5 1.9 1.9 1.4 2.4-.7 3.9 1.3 1.6 2.1-1.2.5-1.4 1.4-1 3.5.7 3.2-.5 3.8-2.5 1.4-1.2-1.4-1.5-1.4-3 0-2.5 2.2-3.2 1.8-2.5-1.4.4-2.1.2-3-1-3.5-2.2-.8-.7-2.9 1.6-2.3 1.3.4 1.9 0 1.9-1.2 0-1 .3-2.1.6-2.4 1.1-1.1 2.4.3 2.4 2.4zm-41-.2c0 1.4.5 1.8 2 1.4 2.3-.6 2.6.9.5 2.7-1.1.9-1.2 1.7-.5 3 .6 1 1 2.1 1 2.4 0 1.3-2.4.5-3.6-1.2-1.3-1.6-1.5-1.6-2.8 0-1.4 1.9-3.6 2.4-3.6.9 0-.6.5-1.3 1-1.6 1.5-1 1.2-3.5-.5-3.5-.8 0-1.5-.7-1.5-1.6 0-1.2.6-1.5 2.5-1 2 .5 2.5.3 2.5-1.4 0-1.1.7-2 1.5-2s1.5.9 1.5 1.9zm13 .1c0 1.7.5 1.9 2.5 1.4 2.8-.7 3.4 1 .9 2.4-1.3.7-1.4 1.3-.5 3 1.5 2.8-.7 4.2-2.6 1.6-1.3-1.8-1.5-1.8-2.7-.2-.7 1-1.8 1.8-2.5 1.8-1.4 0-1.4-2.3.1-3.8.9-.9.7-1.3-.5-1.8-2.6-.9-2.2-3.8.4-3.1 1.5.4 2.3 0 2.6-1.4.7-2.5 2.3-2.5 2.3.1zm14 .1c0 1.5.4 1.9 1.9 1.4 2.6-.8 3.6 1.1 1.4 2.4-1.5.8-1.6 1.3-.6 3 1.7 2.7-.3 4-2.3 1.5-1.3-1.8-1.5-1.8-2.8-.2-.7 1-1.8 1.8-2.5 1.8-1.4 0-1.4-2.3.1-3.8.9-.9.7-1.3-.5-1.8-2.5-.9-2.2-3.8.3-3.1 1.5.4 2 0 2-1.4 0-1 .7-1.9 1.5-1.9s1.5.9 1.5 2.1z"/>
</svg>
