<svg xmlns="http://www.w3.org/2000/svg" width="200" height="128">
	<path d="M53.869 102.512c.278-.3.532-.608.835-.912.279-.329.558-.633.836-.937.279-.329.532-.607.76-.886s.456-.532.633-.734h3.242c-.659.734-1.292 1.468-1.9 2.152a49.4 49.4 0 0 1-2.026 2.1 12.818 12.818 0 0 1 1.14 1.19c.38.456.76.912 1.139 1.419.355.481.71.987 1.013 1.468a15.421 15.421 0 0 1 .76 1.343h-3.115c-.2-.33-.43-.659-.684-1.039s-.531-.759-.785-1.165a12.636 12.636 0 0 0-.911-1.114 6.047 6.047 0 0 0-.912-.886v4.229h-2.735V94.864l2.735-.431v8.079m15.906 5.825a17.672 17.672 0 0 1-4.1.532 5.63 5.63 0 0 1-2.051-.33 3.33 3.33 0 0 1-1.291-.911 3.782 3.782 0 0 1-.684-1.444 7.314 7.314 0 0 1-.2-1.823v-5.344H64.2v5.04a3.864 3.864 0 0 0 .355 1.9 1.452 1.452 0 0 0 1.291.608 5.566 5.566 0 0 0 .633-.025 3.783 3.783 0 0 0 .583-.076v-7.447H69.8v9.32m8.76-4.559c0-1.772-.658-2.633-1.95-2.633a3.139 3.139 0 0 0-.835.1 2.153 2.153 0 0 0-.659.278v4.964c.127.025.3.051.507.076a5.787 5.787 0 0 0 .683.025 1.933 1.933 0 0 0 1.7-.759 3.625 3.625 0 0 0 .557-2.052m2.786.1a6.019 6.019 0 0 1-.354 2.1 4.286 4.286 0 0 1-.963 1.595 4.586 4.586 0 0 1-1.57 1.038 6.039 6.039 0 0 1-2.127.355c-.329 0-.684-.025-1.038-.051s-.71-.076-1.064-.1c-.329-.051-.659-.1-.988-.177a3.255 3.255 0 0 1-.836-.254V94.864l2.736-.431v4.812a6.122 6.122 0 0 1 .962-.3 5.04 5.04 0 0 1 1.064-.1 4.133 4.133 0 0 1 1.823.38 3.685 3.685 0 0 1 1.317 1.013 4.33 4.33 0 0 1 .81 1.595 7.741 7.741 0 0 1 .228 2.052m1.643.045a6.082 6.082 0 0 1 .38-2.228 4.8 4.8 0 0 1 1.038-1.621 3.992 3.992 0 0 1 1.469-.962 4.525 4.525 0 0 1 1.722-.33 4.252 4.252 0 0 1 3.242 1.267 5.228 5.228 0 0 1 1.19 3.7 4.169 4.169 0 0 1-.025.532 3.784 3.784 0 0 0-.025.506h-6.2a1.774 1.774 0 0 0 .785 1.317 3.269 3.269 0 0 0 1.874.507 9.585 9.585 0 0 0 1.469-.127 6.517 6.517 0 0 0 1.19-.354l.38 2.228a4.025 4.025 0 0 1-.582.228 4.908 4.908 0 0 1-.836.177c-.3.051-.608.1-.962.152-.33.026-.684.051-1.039.051a5.83 5.83 0 0 1-2.279-.38 4.09 4.09 0 0 1-2.532-2.634 9.434 9.434 0 0 1-.254-2.026m6.407-1.038a2.171 2.171 0 0 0-.126-.684 1.6 1.6 0 0 0-.3-.582 1.763 1.763 0 0 0-2.1-.431 1.746 1.746 0 0 0-.557.405 1.836 1.836 0 0 0-.355.608 3.362 3.362 0 0 0-.152.684h3.6m10.571-1.447c-.253-.05-.532-.126-.861-.177a5.037 5.037 0 0 0-1.063-.1 5.638 5.638 0 0 0-.634.051 3.817 3.817 0 0 0-.531.1v7.369H94.16v-9.167a13.2 13.2 0 0 1 1.723-.481 8.276 8.276 0 0 1 2.228-.228c.177 0 .355.025.532.025a2.848 2.848 0 0 1 .633.076c.2.025.405.051.633.1a2.119 2.119 0 0 1 .532.152l-.456 2.279m1.925-2.101a20.63 20.63 0 0 1 1.8-.379 14.093 14.093 0 0 1 2.305-.178 5.586 5.586 0 0 1 2.026.33 2.89 2.89 0 0 1 1.291.886 3.59 3.59 0 0 1 .684 1.393 7.117 7.117 0 0 1 .2 1.8v5.445h-2.735v-5.093a3.755 3.755 0 0 0-.354-1.874 1.432 1.432 0 0 0-1.292-.557 5.37 5.37 0 0 0-.633.026 3.876 3.876 0 0 0-.582.05v7.446h-2.735l.025-9.3m10.383 4.589a6.082 6.082 0 0 1 .38-2.228 4.79 4.79 0 0 1 1.038-1.621 3.992 3.992 0 0 1 1.469-.962 4.525 4.525 0 0 1 1.722-.33 4.252 4.252 0 0 1 3.242 1.267 5.228 5.228 0 0 1 1.19 3.7 4.169 4.169 0 0 1-.025.532c0 .2-.026.354-.026.506h-6.2a1.771 1.771 0 0 0 .785 1.317 3.267 3.267 0 0 0 1.874.507 9.585 9.585 0 0 0 1.469-.127 6.517 6.517 0 0 0 1.19-.354l.38 2.228a3.993 3.993 0 0 1-.583.228 4.877 4.877 0 0 1-.835.177c-.3.051-.608.1-.963.152-.329.026-.683.051-1.038.051a5.83 5.83 0 0 1-2.279-.38 4.089 4.089 0 0 1-2.533-2.634 7.076 7.076 0 0 1-.253-2.026m6.407-1.038a2.171 2.171 0 0 0-.126-.684 1.388 1.388 0 0 0-.3-.608 1.728 1.728 0 0 0-.532-.43 1.829 1.829 0 0 0-1.57 0 1.746 1.746 0 0 0-.557.405 1.826 1.826 0 0 0-.355.608 3.3 3.3 0 0 0-.152.684l3.6.025m4.648-6.284 2.735-.43v2.836h3.292v2.283H126.1v3.394a2.536 2.536 0 0 0 .3 1.368 1.343 1.343 0 0 0 1.241.506 4.978 4.978 0 0 0 .886-.076 4.819 4.819 0 0 0 .861-.228l.38 2.127a8.077 8.077 0 0 1-1.114.355 7.316 7.316 0 0 1-1.494.152 4.589 4.589 0 0 1-1.849-.3 2.982 2.982 0 0 1-1.165-.836 3.532 3.532 0 0 1-.633-1.317 6.412 6.412 0 0 1-.152-1.7v-8.13m7.419 7.315a6.082 6.082 0 0 1 .38-2.228 4.8 4.8 0 0 1 1.038-1.621 3.992 3.992 0 0 1 1.469-.962 4.525 4.525 0 0 1 1.722-.33 4.252 4.252 0 0 1 3.242 1.267 5.228 5.228 0 0 1 1.19 3.7 4.169 4.169 0 0 1-.025.532c0 .2-.025.354-.025.506h-6.2a1.851 1.851 0 0 0 .785 1.317 3.269 3.269 0 0 0 1.874.507 9.585 9.585 0 0 0 1.469-.127 6.517 6.517 0 0 0 1.19-.354l.38 2.228a4.025 4.025 0 0 1-.582.228 4.908 4.908 0 0 1-.836.177c-.3.051-.608.1-.963.152-.329.026-.683.051-1.038.051a5.83 5.83 0 0 1-2.279-.38 4.089 4.089 0 0 1-2.533-2.634 9.431 9.431 0 0 1-.253-2.026m6.433-1.038a2.173 2.173 0 0 0-.127-.684 1.608 1.608 0 0 0-.836-1.038 1.829 1.829 0 0 0-1.57 0 1.757 1.757 0 0 0-.557.405 1.807 1.807 0 0 0-.354.608 3.3 3.3 0 0 0-.152.684l3.6.025m7.512 3.821a2.527 2.527 0 0 0 1.064-.152.565.565 0 0 0 .3-.557.642.642 0 0 0-.405-.557 5.454 5.454 0 0 0-1.241-.557 10.027 10.027 0 0 1-1.165-.507 3.433 3.433 0 0 1-.887-.608 2.4 2.4 0 0 1-.557-.861 3.182 3.182 0 0 1-.2-1.19 2.626 2.626 0 0 1 1.013-2.153 4.364 4.364 0 0 1 2.76-.785 9.638 9.638 0 0 1 1.7.152 8.051 8.051 0 0 1 1.291.33l-.481 2.127c-.354-.127-.684-.2-1.038-.3a5.1 5.1 0 0 0-1.241-.1c-.861 0-1.292.228-1.292.709a1.3 1.3 0 0 0 .051.3.727.727 0 0 0 .228.253 4.818 4.818 0 0 0 .43.253 4.335 4.335 0 0 0 .735.3 11.171 11.171 0 0 1 1.494.658 2.788 2.788 0 0 1 .912.71 2.112 2.112 0 0 1 .481.835 3.87 3.87 0 0 1 .152 1.064 2.432 2.432 0 0 1-1.089 2.178 5.386 5.386 0 0 1-3.039.734 7.638 7.638 0 0 1-2.153-.228c-.405-.1-.785-.228-1.165-.354l.456-2.229a9.279 9.279 0 0 0 1.418.431 13.11 13.11 0 0 0 1.469.1" fill="#326de5"/>
	<path d="M99.788 20.655a4.094 4.094 0 0 0-1.555.393l-21.22 10.139a4.035 4.035 0 0 0-2.2 2.731l-5.23 22.775a3.993 3.993 0 0 0 .55 3.085q.108.167.231.321L85.052 78.36a4.069 4.069 0 0 0 3.172 1.515l23.554-.006a4.071 4.071 0 0 0 3.173-1.511l14.682-18.265a4 4 0 0 0 .784-3.406l-5.243-22.775a4.031 4.031 0 0 0-2.2-2.73l-21.218-10.134a4.085 4.085 0 0 0-1.968-.393z" fill="#326ce5"/>
	<path d="M99.777 19.006a4.279 4.279 0 0 0-1.639.418l-22.4 10.7a4.256 4.256 0 0 0-2.317 2.883l-5.53 24.042a4.221 4.221 0 0 0 .581 3.259c.076.116.157.229.244.337l15.505 19.279a4.3 4.3 0 0 0 3.349 1.6h24.864a4.3 4.3 0 0 0 3.349-1.6l15.5-19.282a4.221 4.221 0 0 0 .828-3.594L126.577 33a4.255 4.255 0 0 0-2.318-2.879l-22.4-10.7a4.31 4.31 0 0 0-2.082-.415zm.011 1.65a4.083 4.083 0 0 1 1.967.393l21.223 10.134a4.03 4.03 0 0 1 2.2 2.73l5.243 22.775a4 4 0 0 1-.785 3.406L114.95 78.359a4.069 4.069 0 0 1-3.172 1.511l-23.554.006a4.073 4.073 0 0 1-3.173-1.515L70.364 60.1a3.884 3.884 0 0 1-.231-.32 4 4 0 0 1-.551-3.085l5.235-22.776a4.032 4.032 0 0 1 2.2-2.73l21.22-10.139a4.085 4.085 0 0 1 1.551-.394z" fill="#fff"/>
	<path d="M100 28.405a1.347 1.347 0 0 0-1.271 1.412v.035c0 .106-.006.233 0 .326a10.651 10.651 0 0 0 .174 1.207 11.872 11.872 0 0 1 .141 2.3 1.388 1.388 0 0 1-.412.657l-.03.537a16.657 16.657 0 0 0-2.3.353 16.344 16.344 0 0 0-8.3 4.741c-.14-.095-.386-.271-.459-.325a1.009 1.009 0 0 1-.754-.073 11.9 11.9 0 0 1-1.713-1.547 10.434 10.434 0 0 0-.836-.888c-.077-.066-.195-.157-.282-.225a1.506 1.506 0 0 0-.885-.334 1.224 1.224 0 0 0-1.012.448 1.346 1.346 0 0 0 .312 1.872l.019.014c.084.068.186.155.263.212a10.682 10.682 0 0 0 1.053.616 11.812 11.812 0 0 1 1.892 1.331 1.413 1.413 0 0 1 .255.733l.407.363a16.437 16.437 0 0 0-2.591 11.458l-.532.155a1.763 1.763 0 0 1-.546.551 11.836 11.836 0 0 1-2.277.374 10.632 10.632 0 0 0-1.218.1c-.1.019-.233.054-.339.079h-.011l-.019.005a1.275 1.275 0 1 0 .564 2.475h.019l.025-.008c.105-.023.236-.048.328-.073a10.467 10.467 0 0 0 1.14-.437 11.881 11.881 0 0 1 2.215-.649 1.392 1.392 0 0 1 .73.258l.554-.095a16.529 16.529 0 0 0 7.325 9.137l-.231.554a1.259 1.259 0 0 1 .113.718 12.365 12.365 0 0 1-1.15 2.066 10.933 10.933 0 0 0-.681 1.015c-.05.1-.114.242-.163.342a1.276 1.276 0 1 0 2.294 1.089c.049-.1.117-.229.158-.323a10.429 10.429 0 0 0 .366-1.164 8.9 8.9 0 0 1 .983-2.282 1.03 1.03 0 0 1 .548-.266l.287-.521a16.455 16.455 0 0 0 11.722.03c.081.143.231.419.271.488a1 1 0 0 1 .649.394 11.814 11.814 0 0 1 .871 2.135 10.757 10.757 0 0 0 .369 1.165c.041.094.109.226.157.325a1.276 1.276 0 1 0 2.3-1.085c-.048-.1-.115-.247-.165-.342a10.576 10.576 0 0 0-.681-1.013 11.9 11.9 0 0 1-1.127-2.016 1 1 0 0 1 .1-.749 4.38 4.38 0 0 1-.212-.513 16.525 16.525 0 0 0 7.323-9.211c.164.026.45.077.542.095a1 1 0 0 1 .711-.263 11.911 11.911 0 0 1 2.215.651 10.47 10.47 0 0 0 1.14.44c.092.024.223.047.328.07.009 0 .016.007.025.009h.019a1.275 1.275 0 1 0 .564-2.475c-.109-.025-.263-.067-.369-.087a10.642 10.642 0 0 0-1.219-.1 11.844 11.844 0 0 1-2.277-.375 1.42 1.42 0 0 1-.548-.551l-.513-.149a16.5 16.5 0 0 0-2.648-11.428c.132-.12.38-.34.451-.4a1 1 0 0 1 .239-.72 11.909 11.909 0 0 1 1.888-1.327 10.413 10.413 0 0 0 1.056-.616c.082-.06.194-.156.28-.225a1.277 1.277 0 1 0-1.583-1.987c-.086.069-.2.159-.282.226a10.609 10.609 0 0 0-.838.887 11.936 11.936 0 0 1-1.713 1.55 1.415 1.415 0 0 1-.771.084l-.483.345a16.638 16.638 0 0 0-10.544-5.098c-.011-.17-.026-.476-.03-.568a1 1 0 0 1-.415-.635 11.9 11.9 0 0 1 .144-2.3 10.432 10.432 0 0 0 .173-1.207v-.361A1.347 1.347 0 0 0 100 28.405zm-1.591 9.852-.377 6.662-.032.014a1.12 1.12 0 0 1-1.778.858l-.011.005-5.463-3.873a13.085 13.085 0 0 1 6.3-3.433 13.405 13.405 0 0 1 1.36-.233zm3.184 0a13.191 13.191 0 0 1 7.609 3.669l-5.427 3.848-.019-.008a1.121 1.121 0 0 1-1.781-.855h-.005zm-12.822 6.155 4.988 4.462v.027a1.119 1.119 0 0 1-.44 1.924v.022l-6.394 1.845a13.08 13.08 0 0 1 1.856-8.28zm22.42 0a13.327 13.327 0 0 1 1.909 8.258l-6.427-1.851-.005-.027a1.121 1.121 0 0 1-.44-1.924v-.013l4.961-4.44zm-12.216 4.8h2.044l1.27 1.588-.456 1.981-1.833.888-1.841-.885L97.7 50.8zm6.552 5.433a1.172 1.172 0 0 1 .258.019l.01-.013 6.614 1.118a13.1 13.1 0 0 1-5.3 6.652l-2.567-6.2.008-.011a1.126 1.126 0 0 1 .972-1.564zm-11.108.028a1.119 1.119 0 0 1 1.074.871 1.1 1.1 0 0 1-.062.689l.019.025-2.54 6.142a13.15 13.15 0 0 1-5.279-6.6l6.557-1.113.011.014a1.1 1.1 0 0 1 .22-.019zm5.539 2.689a1.128 1.128 0 0 1 1.026.589h.024l3.232 5.84a13.281 13.281 0 0 1-8.459-.008l3.224-5.829h.006a1.119 1.119 0 0 1 .947-.586z" fill="#fff"/>
</svg>
