<svg xmlns="http://www.w3.org/2000/svg" width="200" height="128">
    <g fill="#4d4d4d">
        <path d="M81.336 77.587h-5.268V52.334h14.474v4.387h-9.206v6.513H89.9V67.6h-8.564zM107.332 77.587l-1.019-2.625h-.138a7.789 7.789 0 0 1-2.738 2.323 8.847 8.847 0 0 1-3.671.648 5.933 5.933 0 0 1-4.378-1.589 6.1 6.1 0 0 1-1.6-4.526 5.1 5.1 0 0 1 2.15-4.534q2.151-1.46 6.486-1.615l3.351-.1v-.846q0-2.937-3-2.936a13.69 13.69 0 0 0-5.441 1.4l-1.745-3.559a15.7 15.7 0 0 1 7.393-1.744 9.206 9.206 0 0 1 5.959 1.693 6.254 6.254 0 0 1 2.073 5.147v12.863zm-1.555-8.947l-2.038.069a6.521 6.521 0 0 0-3.42.829 2.6 2.6 0 0 0-1.119 2.315q0 2.228 2.557 2.228a4.049 4.049 0 0 0 2.928-1.054 3.7 3.7 0 0 0 1.1-2.8zM127.179 57.913a6.245 6.245 0 0 1 5.354 2.669 12.244 12.244 0 0 1 1.935 7.315q0 4.785-1.995 7.41a6.966 6.966 0 0 1-10.77.156h-.363l-.881 2.124h-4.024V50.71h5.265v6.253q0 1.193-.207 3.817h.207a6.1 6.1 0 0 1 5.479-2.867zm-1.693 4.215a3.326 3.326 0 0 0-2.85 1.2 6.894 6.894 0 0 0-.933 3.965v.57a8.134 8.134 0 0 0 .924 4.456 3.3 3.3 0 0 0 2.928 1.348 2.937 2.937 0 0 0 2.582-1.5 8.078 8.078 0 0 0 .959-4.344 7.669 7.669 0 0 0-.967-4.275 3.033 3.033 0 0 0-2.643-1.42zM149.6 57.913a8.465 8.465 0 0 1 1.779.156l-.4 4.94a6.04 6.04 0 0 0-1.555-.173 5.583 5.583 0 0 0-3.929 1.3 4.681 4.681 0 0 0-1.408 3.627v9.828h-5.268V58.276h3.99l.777 3.247h.259a7.262 7.262 0 0 1 2.427-2.616 5.985 5.985 0 0 1 3.328-.994zM154.66 53.284q0-2.574 2.868-2.574t2.867 2.574a2.509 2.509 0 0 1-.717 1.909 3.012 3.012 0 0 1-2.15.682q-2.868 0-2.868-2.591zm5.493 24.3h-5.268V58.276h5.268zM173.522 77.933q-9.017 0-9.016-9.9 0-4.921 2.453-7.522t7.03-2.6A13.406 13.406 0 0 1 180 59.226l-1.555 4.074q-1.243-.5-2.314-.821a7.461 7.461 0 0 0-2.142-.32q-4.112 0-4.111 5.839 0 5.666 4.111 5.666a9.356 9.356 0 0 0 2.815-.407 10.12 10.12 0 0 0 2.591-1.269V76.5a8.467 8.467 0 0 1-2.582 1.123 14.547 14.547 0 0 1-3.291.31z"/>
    </g>
    <path d="M64.228 60.649a1.463 1.463 0 0 1-1.128 1.512 28.093 28.093 0 0 0-4.55 1.743 42.216 42.216 0 0 0-5.25 3.046q-2.812 1.891-5.418 4.057a.347.347 0 0 1-.463.042 25.771 25.771 0 0 1-3.384-2.47c-.218-.177-.589-.33-.579-.576.009-.2.345-.4.545-.586a50.81 50.81 0 0 1 9.161-6.791 31.506 31.506 0 0 1 6.416-2.992 11.64 11.64 0 0 1 2.254-.485 1.573 1.573 0 0 1 1.768.951 7.786 7.786 0 0 1 .628 2.549zM23.023 70.83a29.624 29.624 0 0 0 7.886-4.077c3.414-2.358 6.523-5.1 9.7-7.753.135-.113.125-.173 0-.268-.291-.218-.572-.449-.864-.665A14.738 14.738 0 0 0 36.4 56.09a.641.641 0 0 0-.738.127c-1.722 1.425-3.408 2.893-5.18 4.258a35.1 35.1 0 0 1-8.929 5.19 3.94 3.94 0 0 0-1.069.582 1.11 1.11 0 0 0-.473 1.036 6.1 6.1 0 0 0 1.316 3.186 1.419 1.419 0 0 0 1.084.479 1.858 1.858 0 0 0 .612-.118zm11.342 9.278a42.536 42.536 0 0 0 6.081-3.442c.249-.161.153-.232-.016-.361-1.284-.985-2.573-1.963-3.8-3.022a.274.274 0 0 0-.37-.048c-.918.5-1.871.925-2.824 1.353-.853.383-1.7.775-2.54 1.188a1.419 1.419 0 0 0-.837 1.42 5 5 0 0 0 1.153 2.963 1.533 1.533 0 0 0 1.241.572 8.252 8.252 0 0 0 1.912-.623zm13.64-26.144a.333.333 0 0 0 .384.058q.864-.324 1.74-.615a29.635 29.635 0 0 0 2.971-1.093 1.649 1.649 0 0 0 1.065-1.531 4.9 4.9 0 0 0-.812-2.875 1.456 1.456 0 0 0-1.656-.661 27.266 27.266 0 0 0-6.462 2.526c-.524.276-1.037.573-1.6.884a52.726 52.726 0 0 1 4.37 3.307z" fill="#4b83ba"/>
    <path d="M30.018 50.338a4.005 4.005 0 0 1 1.242-2.722 1.275 1.275 0 0 1 1.255-.3 29.251 29.251 0 0 1 9.227 3.816 57.039 57.039 0 0 1 7.546 5.716c.912.8 1.8 1.621 2.71 2.42.206.18.189.249-.043.377a23 23 0 0 0-3.72 2.619.341.341 0 0 1-.524.005c-2.19-1.685-4.352-3.408-6.606-5.007a32.038 32.038 0 0 0-9.222-4.632 2.4 2.4 0 0 1-1.81-1.825 3.976 3.976 0 0 1-.055-.467zm23.109 25.5c-.238-.085-.479-.165-.711-.264a37.91 37.91 0 0 1-7.287-4.253c-2.865-2.059-5.541-4.352-8.195-6.672-.437-.383-.437-.383-.852.008-.073.068-.148.133-.222.2a40.211 40.211 0 0 1-3.29 2.6c-.12.086-.309.136-.067.345 2.369 2.042 4.736 4.086 7.19 6.027a48.871 48.871 0 0 0 7.85 5.287 24.907 24.907 0 0 0 3.667 1.572 1.528 1.528 0 0 0 2-.756 7.6 7.6 0 0 0 .781-2.685c.009-.909-.174-1.164-.864-1.409zm2.019-8.023a48.413 48.413 0 0 0 4.576 2.424 7.973 7.973 0 0 0 2.062.679.975.975 0 0 0 .98-.34 9.432 9.432 0 0 0 1.3-2.175 1.7 1.7 0 0 0-.773-2.367 16.644 16.644 0 0 0-2.791-1.261.348.348 0 0 0-.283.013 27.879 27.879 0 0 0-5.268 2.891c.09.064.141.104.197.136zM21.4 62.222c.9.327 1.844.5 2.77.734a.484.484 0 0 0 .4-.053 25.7 25.7 0 0 0 4.471-3.257c.148-.132.137-.193-.038-.267-.385-.162-.763-.341-1.149-.5a28.2 28.2 0 0 0-5.081-1.721 1.58 1.58 0 0 0-1.865.6 5.247 5.247 0 0 0-.785 2.656 1.641 1.641 0 0 0 1.277 1.808z" fill="#f9cc59"/>
</svg>
