<svg xmlns="http://www.w3.org/2000/svg" width="200" height="128">
	<path fill="#ff6c00" d="M26.98 77.09h-1.61l-4.15 4.55v-4.55H20v8.84h1.22v-2.67l1.26-1.34 3 4.01h1.55l-3.73-4.9 3.68-3.94zm5.61 2.84h-1.17v3.62A1.36 1.36 0 0 1 30 85.09c-1 0-1.36-.73-1.36-1.55v-3.61h-1.18v3.78a2.22 2.22 0 0 0 2.25 2.41 2 2 0 0 0 1.77-.91 6.06 6.06 0 0 0 .05.72h1.12c0-.21-.06-.63-.06-1.11zm5.14-.17a2.19 2.19 0 0 0-2 1V76.9h-1.14v9h1.16v-.87a2.14 2.14 0 0 0 2 1c1.78 0 2.79-1.41 2.79-3.2s-.98-3.07-2.81-3.07zm-.21 5.29c-1 0-1.78-.85-1.78-2.15s.75-2.11 1.78-2.11 1.77.81 1.77 2.11-.7 2.15-1.77 2.15zm6.85-5.31a3.2 3.2 0 0 0 .15 6.38 2.73 2.73 0 0 0 2.7-1.9l-1-.35a1.64 1.64 0 0 1-1.69 1.22 1.79 1.79 0 0 1-1.81-1.83h4.52a2.73 2.73 0 0 0 0-.37c.02-1.89-1.02-3.15-2.87-3.15zm-1.62 2.57a1.62 1.62 0 0 1 1.64-1.53A1.5 1.5 0 0 1 46 82.31zM49.9 81v-1h-1.15v6h1.18v-3c0-1.33.66-1.85 1.64-1.85a3.12 3.12 0 0 1 .52 0v-1.28a2.61 2.61 0 0 0-.39 0A1.89 1.89 0 0 0 49.9 81zm6.43-1.24a2.05 2.05 0 0 0-1.85 1v-.86h-1.15v6h1.18v-3.44c0-.91.47-1.64 1.39-1.64s1.4.67 1.4 1.51v3.6h1.17v-3.8a2.1 2.1 0 0 0-2.14-2.37zm6.4-.02a3.2 3.2 0 0 0 .15 6.38 2.73 2.73 0 0 0 2.7-1.9l-1-.35a1.63 1.63 0 0 1-1.68 1.22 1.79 1.79 0 0 1-1.81-1.83h4.52a3.12 3.12 0 0 0 0-.37c0-1.89-1.03-3.15-2.88-3.15zm-1.62 2.57a1.61 1.61 0 0 1 1.63-1.53 1.51 1.51 0 0 1 1.65 1.53zM68.68 78h-1.07v1a.84.84 0 0 1-.92.92h-.33V81h1.15v3.3a1.56 1.56 0 0 0 1.67 1.7 2.42 2.42 0 0 0 .8-.12v-1a2.81 2.81 0 0 1-.46 0c-.61 0-.84-.28-.84-.83V81H70v-1.07h-1.3zm5.18 1.74a3.2 3.2 0 0 0 .14 6.38 2.73 2.73 0 0 0 2.7-1.9l-1-.35a1.64 1.64 0 0 1-1.7 1.22 1.79 1.79 0 0 1-1.81-1.83h4.52a3.12 3.12 0 0 0 0-.37c.03-1.89-1-3.15-2.85-3.15zm-1.62 2.57a1.61 1.61 0 0 1 1.63-1.53 1.5 1.5 0 0 1 1.65 1.53zm8.42.17-1-.22c-.46-.1-.69-.36-.69-.72a.91.91 0 0 1 1-.8 1.17 1.17 0 0 1 1.25 1l1-.39A2.15 2.15 0 0 0 80 79.74a2 2 0 0 0-2.13 1.9 1.71 1.71 0 0 0 1.5 1.69l1 .22c.5.11.77.4.77.77s-.36.8-1 .8a1.28 1.28 0 0 1-1.4-1.12l-1.06.37a2.27 2.27 0 0 0 2.45 1.75 2 2 0 0 0 2.19-1.86 1.82 1.82 0 0 0-1.66-1.78zM90.55 81l-1.33-.29a1.28 1.28 0 0 1-1.13-1.29A1.56 1.56 0 0 1 89.8 78a1.8 1.8 0 0 1 1.87 1.51l1.1-.39a2.79 2.79 0 0 0-3-2.19 2.82 2.82 0 0 0-2.92 2.63A2.45 2.45 0 0 0 89 82l1.26.28a1.43 1.43 0 0 1 1.34 1.32c0 .77-.6 1.41-1.83 1.41a2 2 0 0 1-2.12-1.9l-1.17.38a3.07 3.07 0 0 0 3.31 2.63 2.79 2.79 0 0 0 3-2.62 2.54 2.54 0 0 0-2.24-2.5zm6.11-1.26a3.2 3.2 0 0 0 .15 6.38 2.73 2.73 0 0 0 2.7-1.9l-1-.35a1.64 1.64 0 0 1-1.69 1.22A1.79 1.79 0 0 1 95 83.26h4.52a3.12 3.12 0 0 0 0-.37c.02-1.89-1.01-3.15-2.86-3.15zM95 82.31a1.61 1.61 0 0 1 1.63-1.53 1.51 1.51 0 0 1 1.65 1.53zm8.58 2.69a1.89 1.89 0 0 1-1.84-2.11 1.87 1.87 0 0 1 1.82-2.1 1.57 1.57 0 0 1 1.61 1.27l1.06-.45a2.61 2.61 0 0 0-2.67-1.91 3.19 3.19 0 0 0 0 6.38 2.74 2.74 0 0 0 2.7-1.87l-1-.45a1.64 1.64 0 0 1-1.68 1.24zm9.08-5.07h-1.17v3.62a1.37 1.37 0 0 1-1.43 1.54c-1 0-1.36-.73-1.36-1.55v-3.61h-1.17v3.78a2.22 2.22 0 0 0 2.25 2.41 2 2 0 0 0 1.77-.91 6.06 6.06 0 0 0 0 .72h1.12c0-.21-.06-.63-.06-1.11zm3.15 1.07v-1h-1.15v6h1.17v-3c0-1.33.66-1.85 1.65-1.85a3 3 0 0 1 .51 0v-1.28a2.32 2.32 0 0 0-.39 0 1.87 1.87 0 0 0-1.79 1.13zm4-4.19a.85.85 0 1 0 .85.85.84.84 0 0 0-.85-.85zm-.57 3.12h1.16v6h-1.16zM124 78h-1.08v1a.84.84 0 0 1-.92.92h-.32V81h1.14v3.3a1.56 1.56 0 0 0 1.65 1.7 2.35 2.35 0 0 0 .79-.12v-1a2.81 2.81 0 0 1-.46 0c-.61 0-.83-.28-.83-.83V81h1.29v-1.07H124zm5.23 6.07-1.87-4.14h-1.35l2.59 5.34-1.5 3.17h1.28l3.91-8.51h-1.26l-1.8 4.14zm9.95-6.98-3.52 8.84H137l.94-2.47h3.92l1 2.47h1.32l-3.52-8.84zm-.84 5.24 1.51-4 1.54 4zm6.89-5.43h1.17v9.04h-1.17zm5.56 2.84a3.2 3.2 0 0 0 .15 6.38 2.73 2.73 0 0 0 2.69-1.9l-1-.35a1.63 1.63 0 0 1-1.68 1.22 1.78 1.78 0 0 1-1.81-1.83h4.51a1.7 1.7 0 0 0 0-.37c.02-1.89-1.02-3.15-2.86-3.15zm-1.63 2.57a1.62 1.62 0 0 1 1.64-1.53 1.51 1.51 0 0 1 1.65 1.53zm7.15-1.31v-1h-1.14v6h1.17v-3c0-1.33.66-1.85 1.65-1.85a3.08 3.08 0 0 1 .51 0v-1.28a2.46 2.46 0 0 0-.39 0 1.89 1.89 0 0 0-1.8 1.13zm5.32-3h-1.07v1a.84.84 0 0 1-.93.92h-.32V81h1.15v3.3a1.56 1.56 0 0 0 1.67 1.7 2.42 2.42 0 0 0 .8-.12v-1a2.81 2.81 0 0 1-.46 0c-.62 0-.84-.28-.84-.83V81h1.3v-1.07h-1.3zm3.43-1.19a.85.85 0 1 0 .85.85.84.84 0 0 0-.85-.85zm-.57 3.12h1.16v6h-1.16zm6.15-.17a2.05 2.05 0 0 0-1.85 1v-.86h-1.15v6h1.18v-3.44c0-.91.47-1.64 1.4-1.64s1.39.67 1.39 1.51v3.6h1.18v-3.8a2.1 2.1 0 0 0-2.15-2.37zm8.2.17v.84a1.89 1.89 0 0 0-1.85-1 2.92 2.92 0 0 0 0 5.83 2 2 0 0 0 1.84-1v.86c0 1.3-.58 2-1.84 2a1.59 1.59 0 0 1-1.63-1.46l-1.14.26a2.63 2.63 0 0 0 2.78 2.23 2.74 2.74 0 0 0 3-3v-5.56zm-1.67 4.73a1.93 1.93 0 1 1 1.71-1.92 1.72 1.72 0 0 1-1.71 1.92z"/>
	<path d="M94.38 53.87h.91a.89.89 0 0 0 .89-.89v-6.11h-1.8zm5.37-.87v-2.71a1.7 1.7 0 0 1 .57-1.31 2.21 2.21 0 0 1 1.39-.41V46.8a2.55 2.55 0 0 0-1.35.33 1.74 1.74 0 0 0-.7.84l-.17-1.1H98v7h.91a.88.88 0 0 0 .84-.87zm-4.48-7.12a1.13 1.13 0 0 0 .78-.31 1 1 0 0 0 .32-.75 1 1 0 0 0-.34-.77 1.17 1.17 0 0 0-.78-.3 1.13 1.13 0 0 0-.74.31 1.06 1.06 0 0 0-.32.79 1 1 0 0 0 .31.72 1.12 1.12 0 0 0 .77.31zM119.75 53v-2.81a2 2 0 0 1 .35-1.26 1.09 1.09 0 0 1 .88-.44.88.88 0 0 1 .74.32 1.52 1.52 0 0 1 .25.93v4.13h.88a.92.92 0 0 0 .92-.92v-3.62a2.91 2.91 0 0 0-.58-1.92 2.05 2.05 0 0 0-1.66-.69 2.14 2.14 0 0 0-1.16.3 2 2 0 0 0-.74.79l-.14-.93H118v7h.88a.92.92 0 0 0 .87-.88zm-13.89.87a.94.94 0 0 0 .88-.63l1.14-3.48 1.27 4.11h1.2a.92.92 0 0 0 .88-.66l1.91-6.34h-1.92l-1.07 4.21-.13.75-.15-.75-1.19-4.21h-1.59l-1.19 4.21-.16.75-.12-.75-1.06-4.21h-1.91l2.09 7zm9.28-7.99a1.09 1.09 0 0 0 .77-.31 1 1 0 0 0 0-1.48 1.1 1.1 0 0 0-1.53 0 1 1 0 0 0-.33.76 1 1 0 0 0 .32.75 1.09 1.09 0 0 0 .77.28zm-.89 7.99h.91a.9.9 0 0 0 .89-.89v-6.11h-1.8zM61 50.68h6.67a2 2 0 0 0 2-2v-1.83H61zm69.43-3.05a2.28 2.28 0 0 0-.85-.66 3 3 0 0 0-1.25-.25 2.94 2.94 0 0 0-2.33 1.05 3.82 3.82 0 0 0-.93 2.59 4.28 4.28 0 0 0 .41 1.86 3.43 3.43 0 0 0 1.16 1.32 3 3 0 0 0 1.67.48 2.51 2.51 0 0 0 2.23-1.09v.18a.87.87 0 0 0 .87.75h.78V43.79h-1.8zm0 2.77a2 2 0 0 1-.53 1.42 1.75 1.75 0 0 1-1.24.52 1.64 1.64 0 0 1-1.26-.55 2.23 2.23 0 0 1 0-2.84 1.64 1.64 0 0 1 1.26-.55 1.72 1.72 0 0 1 1.5.88 2.12 2.12 0 0 1 .27 1zm8.1-.05a3.32 3.32 0 0 0-1.76-.73 2.49 2.49 0 0 1-1-.29.58.58 0 0 1-.26-.51.63.63 0 0 1 .2-.5.84.84 0 0 1 .57-.19.72.72 0 0 1 .8.8h1.79a2.16 2.16 0 0 0-.75-1.61 2.72 2.72 0 0 0-1.82-.61 2.61 2.61 0 0 0-1.91.66 2.16 2.16 0 0 0-.68 1.62 1.82 1.82 0 0 0 .55 1.37 3.36 3.36 0 0 0 1.7.7 2.4 2.4 0 0 1 1 .34.61.61 0 0 1 .26.53.56.56 0 0 1-.24.49 1 1 0 0 1-.64.18 1.13 1.13 0 0 1-.73-.22 1.17 1.17 0 0 1-.15-.16.91.91 0 0 0-.77-.47h-1.11a2.17 2.17 0 0 0 .74 1.67 3 3 0 0 0 2 .61 4.06 4.06 0 0 0 1-.13 3 3 0 0 0 .86-.41 1.85 1.85 0 0 0 .59-.71 2.41 2.41 0 0 0 .22-1 1.9 1.9 0 0 0-.46-1.43zM88.94 54a2.15 2.15 0 0 0 2-1.1v.16a.89.89 0 0 0 .88.78h.76v-4.6a2.38 2.38 0 0 0-.75-1.9 2.91 2.91 0 0 0-2-.64 2.8 2.8 0 0 0-2 .68 2.47 2.47 0 0 0-.83 1.8h1.74a.76.76 0 0 1 .3-.61 1.19 1.19 0 0 1 .75-.23 1 1 0 0 1 .73.26 1.06 1.06 0 0 1 .25.73v.25L89 49.9a4.32 4.32 0 0 0-.86.21 2.65 2.65 0 0 0-.68.37 1.45 1.45 0 0 0-.46.58 2 2 0 0 0-.16.83 2 2 0 0 0 2.1 2.11zm-.13-2.68a1.37 1.37 0 0 1 .58-.25l1.4-.29V51a1.44 1.44 0 0 1-.25.85 1.36 1.36 0 0 1-1.12.59.93.93 0 0 1-.6-.16.54.54 0 0 1-.21-.45.56.56 0 0 1 .2-.5zM74.53 43.3v-1.87H61v3.84h11.56a2 2 0 0 0 1.97-1.97zm7.83 9.7v-3.08h1.47a1.2 1.2 0 0 0 1.2-1.2v-.57h-2.67V46h3a1.09 1.09 0 0 0 1.09-1.09v-.71h-5.98v9.67h1a.89.89 0 0 0 .89-.87zM61 56.1h1.86a2 2 0 0 0 2-2v-1.83H61zm9.11 9.89h59.79v.79H70.11z"/>
</svg>
