<svg xmlns="http://www.w3.org/2000/svg" viewBox="25.48 25.98 521.04 115.54">
	<g fill="#0a2c4c">
		<path d="M522.245 87.62c-.068-5.555-3.212-11.576-9.569-11.576-6.49 0-9.77 5.888-10.17 11.576zM528 91.635h-25.762c.203 3.412.803 6.69 3.078 9.368 2.344 2.81 4.617 3.411 8.298 3.411 4.215 0 8.296-3.144 8.764-7.293h5.152c-1.27 7.563-7.293 11.376-14.853 11.376-11.375 0-16.059-7.562-16.059-18 0-3.747.736-7.695 2.611-10.973 2.676-4.75 8.095-7.496 13.583-7.496 3.212 0 7.025 1.072 9.498 3.078 2.746 2.277 4.286 5.287 4.952 8.634.538 2.541.738 4.349.738 6.958zm-55.444 12.913c8.028 0 10.573-6.623 10.774-13.449-1.673-.267-3.68-.267-5.356-.267-5.286 0-11.506.2-11.506 7.16 0 3.813 2.14 6.556 6.088 6.556zm10.774-3.411c-2.342 5.218-5.754 7.36-11.444 7.36-4.95 0-9.569-2.142-10.84-7.36-.4-1.674-.334-2.744-.334-3.28 0-7.828 6.357-10.839 13.316-10.839 1.272 0 2.542-.066 3.813-.066h5.49V83.74c-.202-2.477-.47-3.948-2.343-5.822-1.274-1.272-3.412-1.874-5.155-1.874-2.943 0-4.952.335-6.959 2.81-.936 1.136-1.204 2.743-1.337 4.15h-5.618c.266-5.019 2.742-8.633 7.557-10.24 1.941-.667 3.882-.736 5.956-.736 3.681 0 6.625.67 9.568 3.013 2.812 2.209 3.348 5.285 3.348 8.699v20.073h5.553v4.214h-10.57zm-84.92 6.926v-4.425h6.906v-39.15h-6.905v-4.425h17.096l12.402 41.028 12.804-41.028h16.894v4.424h-6.84v39.151h6.84v4.425H438.97v-4.425h6.166v-39.15h-.47l-14.278 43.575h-5.232L410.88 64.487h-.47v39.151h6.234v4.425zM372.39 87.62c-.069-5.555-3.247-11.576-9.666-11.576-6.559 0-9.87 5.888-10.277 11.576zm5.814 4.015h-26.028c.203 3.412.81 6.69 3.11 9.368 2.366 2.81 4.665 3.411 8.382 3.411 4.257 0 8.383-3.144 8.856-7.293h5.205c-1.284 7.563-7.368 11.376-15.005 11.376-11.496 0-16.23-7.562-16.23-18 0-3.747.746-7.695 2.64-10.973 2.703-4.75 8.18-7.496 13.725-7.496 3.242 0 7.096 1.072 9.598 3.078 2.772 2.277 4.327 5.287 5.003 8.634.54 2.541.744 4.349.744 6.958zM338.09 60.06v5.63h-6.236v-5.63zm4.926 47.967h-16.46v-4.214h5.618V77.047h-5.55V73.1h10.971v30.713h5.421zM296.25 79.39c1.807-5.086 5.019-7.362 10.573-7.362 5.286 0 8.9 2.276 10.572 7.362.267 1.538.267 2.943.267 4.483v19.94h5.487v4.214h-16.392v-4.214h5.486V85.747c0-4.752-1.07-9.502-6.89-9.502-2.075 0-3.014.066-4.754 1.204-1.472.938-2.208 2.009-2.944 3.412-1.405 2.744-1.405 5.957-1.405 8.966v13.986h5.488v4.214H285.01v-4.214h5.821V77.047h-5.689V73.1h11.108zm-41.876 0c1.807-5.086 5.019-7.362 10.573-7.362 5.284 0 8.898 2.276 10.57 7.362.269 1.538.269 2.943.269 4.483v19.94h5.487v4.214h-16.395v-4.214h5.488V85.747c0-4.752-1.072-9.502-6.89-9.502-2.077 0-3.013.066-4.751 1.204-1.474.938-2.208 2.009-2.946 3.412-1.405 2.744-1.405 5.957-1.405 8.966v13.986h5.487v4.214h-16.728v-4.214h5.821V77.047h-5.688V73.1h11.108zm-36.285 25.158c8.028 0 10.572-6.623 10.772-13.449-1.672-.267-3.679-.267-5.35-.267-5.286 0-11.512.2-11.512 7.16 0 3.813 2.142 6.556 6.09 6.556zm10.772-3.411c-2.343 5.218-5.752 7.36-11.442 7.36-4.952 0-9.568-2.142-10.837-7.36-.403-1.674-.336-2.744-.336-3.28 0-7.828 6.357-10.839 13.315-10.839 1.272 0 2.542-.066 3.813-.066h5.487V83.74c-.2-2.477-.468-3.948-2.343-5.822-1.27-1.272-3.41-1.874-5.15-1.874-2.946 0-4.951.335-6.96 2.81-.935 1.136-1.203 2.743-1.337 4.15h-5.62c.267-5.019 2.743-8.633 7.562-10.24 1.94-.667 3.878-.736 5.953-.736 3.681 0 6.624.67 9.568 3.013 2.81 2.209 3.347 5.285 3.347 8.699v20.073h5.554v4.214h-10.574zM168 108.063v-4.425h6.769v-39.15h-6.77v-4.425h36.87V74.61h-5.095V64.487h-19.172V82.32h9.586V75.28h4.692v18.704h-4.692v-7.24h-9.586v16.893h7.978v4.425H168"/>
		<path d="M95.395 72.259v11.022l8.348 1.505V73.762l-8.348-1.503zm2.931 3.509 2.484.446v5.062l-2.484-.446v-5.062m-49.07 11.285 7.857-17.97 9.725-3.335V56.2h5.518v7.643l25.757-8.883c-8.095 18.727-27.159 31.67-48.856 32.092zm46.159 4.84 5.395.976v11.24a55.924 55.924 0 0 0-5.395-4.813zm5.37-40.957L75.287 59.73v-6.462H63.905v10.385l-8.963 3.074-8.752 20.016c.08.327.96 5.303.96 5.303a53.002 53.002 0 0 1 13.691-1.798c19.457 0 36.494 10.522 45.746 26.167l2.505-1.557a56.34 56.34 0 0 0-5.35-7.511V90.418l-11.26-2.035v8.76c-7.888-5.41-17.218-8.875-27.31-9.646 15.61-4.72 28.507-15.77 35.15-30.256l13.147 30.267 3.523.656zM84 36c-26.468 0-48 21.534-48 48 0 26.468 21.532 48 48 48s48-21.532 48-48c0-26.466-21.533-48-48-48zm0 3.814c24.365 0 44.186 19.822 44.186 44.186 0 24.365-19.82 44.188-44.186 44.188-24.365 0-44.186-19.823-44.186-44.188S59.635 39.814 84 39.814"/>
		<path d="M530.859 63.665h.417c.595 0 .967-.023 1.11-.069a.66.66 0 0 0 .34-.24.662.662 0 0 0 .003-.77.67.67 0 0 0-.346-.237c-.15-.047-.52-.072-1.107-.072h-.417zm-1.032 2.887v-5.08h1.032c.965 0 1.506.003 1.624.011.341.03.606.098.797.203.19.107.348.27.473.488.128.219.192.462.192.729 0 .366-.121.68-.36.94-.238.26-.576.421-1.008.484.154.059.274.122.355.191.084.069.2.199.344.39.037.05.163.257.375.62l.6 1.024h-1.275l-.425-.825c-.287-.553-.524-.902-.712-1.046-.188-.144-.424-.216-.712-.216h-.268v2.087zm2.168-6.412c-.658 0-1.29.165-1.894.494a3.586 3.586 0 0 0-1.428 1.418 3.874 3.874 0 0 0-.522 1.938c0 .671.17 1.31.509 1.919.34.608.815 1.083 1.423 1.425a3.853 3.853 0 0 0 1.912.512c.67 0 1.309-.171 1.916-.512a3.657 3.657 0 0 0 1.421-1.425 3.852 3.852 0 0 0 .513-1.92c0-.674-.173-1.32-.522-1.937a3.576 3.576 0 0 0-1.431-1.418 3.934 3.934 0 0 0-1.897-.494zm-.007-.938c.82 0 1.608.206 2.364.616.753.41 1.345 1 1.777 1.766s.647 1.569.647 2.406c0 .833-.21 1.628-.635 2.384a4.51 4.51 0 0 1-1.768 1.769 4.824 4.824 0 0 1-2.385.634 4.822 4.822 0 0 1-2.384-.634 4.51 4.51 0 0 1-1.768-1.769 4.818 4.818 0 0 1-.635-2.384c0-.837.215-1.64.647-2.406a4.442 4.442 0 0 1 1.779-1.766 4.882 4.882 0 0 1 2.361-.616"/>
	</g>
</svg>
