<svg xmlns="http://www.w3.org/2000/svg" width="200" height="128">
	<g fill="#e82c2a">
		<path d="M128.891 44.377v41.75h12.532v-6.375h-4.145v-41.73h-8.4zM20 79.752h4.263V59.606H20v-5.542l4.263-.7v-5.616c0-6.791 1.477-9.736 10.143-9.736a36.274 36.274 0 0 1 6.028.625l-1.15 6.831a15.734 15.734 0 0 0-2.8-.248c-3.054 0-3.827.307-3.827 3.282v4.868H39v6.236h-6.339v20.136h4.213v6.375H20v-6.365zm104.618-2.022a16.46 16.46 0 0 1-3.292.267c-3.45.09-3.153-1.051-3.153-4.312V59.606h6.574V53.37h-6.584V38.022h-8.4V75.43c0 7.346 1.814 10.7 9.716 10.7a35.36 35.36 0 0 0 6.385-.892zm52.16 2.052a3.168 3.168 0 1 1-3.183 3.173 3.167 3.167 0 0 1 3.183-3.173m0 5.84a2.653 2.653 0 1 0 0-5.305 2.653 2.653 0 0 0 0 5.305m.585-1.111-.645-.942h-.446v.942h-.714V81.4h1.3c.773 0 1.249.387 1.249 1.081a.938.938 0 0 1-.654.971l.773 1.071h-.862zm-1.081-1.566h.565c.327 0 .545-.129.545-.466s-.218-.456-.525-.456h-.585zM99.286 59.6v-1.12a35.841 35.841 0 0 0-6.434-.466c-3.907 0-4.383 2.072-4.383 3.192 0 1.587.546 2.449 4.779 3.371 6.187 1.388 12.4 2.836 12.4 10.51 0 7.277-3.747 11.034-11.629 11.034A58.945 58.945 0 0 1 79.725 84v-6.27h6.355v1.11a37.583 37.583 0 0 0 7.1.476c4.164 0 4.838-2.241 4.838-3.43 0-1.656-1.2-2.449-5.106-3.242-7.356-1.26-13.206-3.768-13.206-11.253 0-7.079 4.729-9.855 12.621-9.855a50.986 50.986 0 0 1 13.305 1.824v6.226h-6.346zm-38.637 5.509-.634-.635-3.242 2.826a1.53 1.53 0 0 0-.526-.09 1.626 1.626 0 1 0 1.587 1.626 1.893 1.893 0 0 0-.07-.485z"/>
		<path d="M73.508 77.73 73.5 51.6h-8.4v2.449a17.191 17.191 0 0 0-5.711-2.161h.05v-2.9h1.021v-2.132H52v2.132h1.021v2.9h.06a17.261 17.261 0 1 0 12.04 31.761l1.517 2.468h8.873v-8.4h-2zm-16.765-.01v-.992h-1v.982a8.883 8.883 0 0 1-8.348-8.4h1v-1H47.4a8.877 8.877 0 0 1 8.338-8.328v.991h1v-.991a8.891 8.891 0 0 1 8.368 8.08v.288H64.1v1h1.011v.278a8.884 8.884 0 0 1-8.368 8.09zm105.936-24.35H180v6.236h-4.144l-10.619 26.135c-3.043 7.336-8.04 14.247-15.655 14.247a29.271 29.271 0 0 1-6.1-.625l.763-7.624a21.654 21.654 0 0 0 3.322.347c3.529 0 7.515-2.191 8.764-6l-10.764-26.48h-4.144V53.37h17.33v6.236h-4.134l6.1 15 6.1-15h-4.135z"/>
	</g>
</svg>
