<svg xmlns="http://www.w3.org/2000/svg" viewBox="-6.08 -6.08 315.9 57.15">
	<g fill="#100f0d">
		<path d="M277.721 20.844c0-5.194 5.292-7.27 5.292-7.27l20.98 31.464H288.98c0-7.736-3.512-11.676-6.613-15.155-2.451-2.752-4.647-5.215-4.647-9.04"/>
		<path d="M277.278 30.011c-1.698-2.5-3.31-4.873-3.31-7.49 0-6.927 7.818-10.793 7.818-10.793L273.966.004l-11.26 18.765-3.754-7.506-22.514 33.775h43.16c3.5-6.46.472-10.918-2.32-15.027M103.207.005H60.048l3.753 7.506h15.012V45.04h7.506V7.511h16.888V.005m50.665 0h-7.506l-15.012 20.641L116.342.006h-7.506v45.033h7.506V13.141l15.012 20.64 15.012-20.64v31.898h7.506V.005"/>
		<path fill-rule="evenodd" d="m180.143 15.017-7.506 15.011h15.012zm-15.011 30.022h-7.507L180.143.005l22.519 45.034h-7.507l-3.753-7.505h-22.518l-3.752 7.505"/>
		<path d="m22.518 26.274 3.753-7.505H7.506V7.511h26.271L37.53.005H0V45.04h7.506V26.274h15.012"/>
		<path fill-rule="evenodd" d="M213.92 22.522h11.258c4.14 0 7.507-3.366 7.507-7.505s-3.367-7.506-7.507-7.506H213.92zM225.178.005c8.29 0 15.013 6.722 15.013 15.012s-6.722 15.011-15.013 15.011H213.92V45.04h-7.506V.005h18.764M48.788 15.017l-7.505 15.011h15.012zm-15.01 30.022H26.27L48.788.005 71.307 45.04H63.8l-3.753-7.505H37.53l-3.753 7.505"/>
	</g>
</svg>
