<svg xmlns="http://www.w3.org/2000/svg" width="200" height="128">
    <path fill="#62b3f2" d="M42.83 21.19v34.6h9.05V30.24h25.55v-9.05h-34.6zM148.23 38.76v25.55h-25.55v9.05h34.6v-34.6h-9.05z"/>
    <path fill="#eaa544" d="M59.86 39.29h17.57v17.57H59.86z"/>
    <path fill="#2253b0" d="M91.27 39.29h17.57v17.57H91.27z"/>
    <path fill="#3d8a49" d="M122.68 39.29h17.57v17.57h-17.57z"/>
    <path fill="#3c3d3e" d="M68.9 89.3c.15-.19.3-.39.46-.57a3.72 3.72 0 012.22-1.23 4.53 4.53 0 012.28.23 4 4 0 012.24 2.07 8.14 8.14 0 01.8 3.13 28.36 28.36 0 01-.11 3.36 6.15 6.15 0 01-1.32 3.1 3.94 3.94 0 01-3.55 1.41 3.82 3.82 0 01-2.74-1.43 2.11 2.11 0 00-.23-.25v6.73c0 .34 0 .37-.39.37h-2.3c-.42 0-.43 0-.43-.41V88.1c0-.37 0-.39.4-.39H68c.36 0 .44.07.52.44s.17.76.26 1.13zm4.81 4.81a6.5 6.5 0 00-.58-3.17 1.61 1.61 0 00-1.4-1 6.09 6.09 0 00-.74 0 1.81 1.81 0 00-1.43.91 4.65 4.65 0 00-.52 2 9.66 9.66 0 00.07 2.89 7.32 7.32 0 00.3 1.31 1.86 1.86 0 001.26 1.21 2.12 2.12 0 001.82-.26 2.42 2.42 0 001-1.63 14.24 14.24 0 00.22-2.26zM86.11 89.11l.1-.14a3.52 3.52 0 011.6-1.22 4.47 4.47 0 011.94-.3A3.72 3.72 0 0192.83 89a3.66 3.66 0 01.68 2q0 4.53.07 9.06c0 .41 0 .45-.44.45h-2.3c-.4 0-.43 0-.43-.43v-7.54a3.53 3.53 0 00-.41-1.71 1.58 1.58 0 00-1.68-.83 2 2 0 00-1.4.72 4 4 0 00-.48 1 6.88 6.88 0 00-.26 2v6.44c0 .42-.05.48-.47.48h-2.3c-.39 0-.46-.07-.46-.45V83.02a.29.29 0 01.33-.31h2.56c.22 0 .33.1.33.31v4.5a12.72 12.72 0 01-.17 1.27 2.81 2.81 0 000 .29zM20.05 83.68h5a10 10 0 012.18.29 4.23 4.23 0 012.89 2.18 6 6 0 01.56 1.85 6.1 6.1 0 01-.12 2.45 4.51 4.51 0 01-2.16 3.09 6.32 6.32 0 01-1.71.66 14.2 14.2 0 01-3.05.22c-.27 0-.33.1-.33.34v5.36c0 .39 0 .44-.42.44h-2.83a2.57 2.57 0 01-.06-.4V84.08a3.12 3.12 0 01.05-.4zm4.36 2.57h-.83c-.27 0-.27 0-.27.25v5.1c0 .18.06.25.24.24a8 8 0 002.17-.2 2.19 2.19 0 001.53-1.48 3.77 3.77 0 00-.16-2.78 1.83 1.83 0 00-1-.89 4 4 0 00-1.68-.24zM127.43 98.46v-1.22c0-.24.08-.29.29-.18a10 10 0 002.35.84 7 7 0 002.33.2 2.14 2.14 0 001.85-1.17 2.19 2.19 0 00.14-1.43 2.28 2.28 0 00-1.24-1.5c-.61-.37-1.26-.67-1.88-1a8.28 8.28 0 01-2.78-2 4 4 0 01-.89-2.41v-.94a3.68 3.68 0 01.65-2 4.3 4.3 0 012.73-1.9 9.94 9.94 0 012.15-.3 11.42 11.42 0 012.16.28c.54.11 1.07.29 1.61.45a3.44 3.44 0 01.53.21.3.3 0 01.14.42c-.25.63-.49 1.26-.73 1.9-.11.28-.25.35-.5.24a8 8 0 00-3.32-.81 2.14 2.14 0 00-1.77.75 1.79 1.79 0 00-.38 1.21 2.15 2.15 0 001.32 2c.79.43 1.61.79 2.4 1.21a6.54 6.54 0 012.56 2.16 4.15 4.15 0 01.48 1.24 4.28 4.28 0 01.14 1.18 4.74 4.74 0 01-1.3 3.35 4.87 4.87 0 01-1.69 1.11 7.78 7.78 0 01-3.47.5 13.81 13.81 0 01-1.93-.28c-.54-.11-1.06-.29-1.59-.45a.44.44 0 01-.37-.47v-1.14zM166.43 94.05c-.08.72-.1 1.41-.24 2.07a6.34 6.34 0 01-1.32 2.9 4.58 4.58 0 01-1.94 1.4 6.44 6.44 0 01-3.26.31 5.68 5.68 0 01-1.63-.48 4.8 4.8 0 01-1.66-1.38 7 7 0 01-1-2 8.93 8.93 0 01-.35-3.7 9.43 9.43 0 01.24-1.69 5.27 5.27 0 012.29-3.31 4.35 4.35 0 012-.66c.36 0 .73-.11 1.09-.1a8.64 8.64 0 011.62.17 5 5 0 012.4 1.38 4.71 4.71 0 011.09 1.64 10.82 10.82 0 01.46 1.78c.1.62.14 1.15.21 1.67zm-3.33.27a7.47 7.47 0 00-.4-3 2.19 2.19 0 00-.7-1 2.15 2.15 0 00-1.66-.37 2.35 2.35 0 00-.87.29 2.14 2.14 0 00-1 1.46 10 10 0 00-.21 1.22 8.3 8.3 0 00.4 4.16 2.07 2.07 0 002.66 1.2 2.15 2.15 0 001.51-1.81 12.62 12.62 0 00.27-2.15zM48.35 94c.08-.71.11-1.42.25-2.11a5.86 5.86 0 011.81-3.3 4.42 4.42 0 011.64-.88 6.85 6.85 0 012.42-.3 5.18 5.18 0 014.17 2.18 5.37 5.37 0 01.94 2.26 16.34 16.34 0 01.23 2.15 11 11 0 01-.21 2.14A9 9 0 0159 98a4.65 4.65 0 01-2 2.14 6.09 6.09 0 01-3.39.67 5 5 0 01-3.4-1.51 4.64 4.64 0 01-1-1.6 9.53 9.53 0 01-.52-1.5c-.22-.71-.26-1.44-.34-2.2zm3.26.21c.1.71.17 1.37.29 2a2.93 2.93 0 00.27.87A1.93 1.93 0 0054 98.35a2.22 2.22 0 001.36-.35 2.92 2.92 0 001.07-2.1 13.18 13.18 0 00.13-2.35 6 6 0 00-.47-2.42 2.2 2.2 0 00-4.17.63c-.18.84-.21 1.68-.31 2.49zM106.46 94.91h-3.44c-.24 0-.32.07-.29.3a3.83 3.83 0 001.13 2.62 2.76 2.76 0 001.76.6 6.58 6.58 0 002.84-.46l.81-.34c.23-.11.34 0 .34.22v1.77a.43.43 0 01-.28.43c-.44.17-.89.3-1.33.44a7.87 7.87 0 01-2.93.31A5.32 5.32 0 01101 99a6.1 6.1 0 01-1.09-2.1 10.2 10.2 0 01-.29-4.22 6.6 6.6 0 01.93-2.91 4.6 4.6 0 012.06-1.84 7.13 7.13 0 011.93-.45 5.47 5.47 0 011.94.15 4 4 0 012.12 1.15 5 5 0 011.12 1.66 5.78 5.78 0 01.46 2.06v2c0 .36-.06.41-.43.41-1.03.01-2.16 0-3.29 0zm-1.41-2.14H107c.26 0 .35-.08.29-.32-.11-.47-.21-1-.35-1.41A1.94 1.94 0 00104 90a2.54 2.54 0 00-1.12 1.9c0 .15 0 .31-.07.46-.08.32 0 .39.28.39zM119.6 93.75v3.3a1.21 1.21 0 001.29 1.27 13 13 0 001.52-.26c.2 0 .24 0 .24.17v1.88c0 .13-.26.29-.43.35a6.38 6.38 0 01-2.56.34 3.17 3.17 0 01-2.48-1.11 4.12 4.12 0 01-.52-1 5.93 5.93 0 01-.25-2.18v-6c0-.36 0-.38-.37-.38h-.81a.29.29 0 01-.34-.31v-1a.45.45 0 01.23-.32c.45-.23.91-.42 1.37-.63.06 0 .15-.07.16-.13.15-.49.27-1 .41-1.48s.23-.73.37-1.09a.38.38 0 01.27-.17h1.53c.27 0 .37.11.37.39v2.08c0 .27.09.35.36.35h2.19c.26 0 .36.09.35.35v1.64c0 .34 0 .39-.38.39h-2.19c-.24 0-.32.06-.32.31v3.36zM143.91 94.14v-3.71c0-.26-.07-.37-.34-.35s-.61 0-.92 0-.28-.09-.28-.26a10.84 10.84 0 010-1.14c0-.11.13-.24.23-.3.44-.22.89-.41 1.32-.61a.3.3 0 00.16-.17c.21-.69.4-1.39.61-2.08a2.08 2.08 0 01.19-.49.31.31 0 01.24-.13h1.67c.07 0 .17.12.21.21a.74.74 0 010 .3v1.92c0 .36 0 .37.38.37h2.14c.33 0 .35 0 .35.37v1.61c0 .37 0 .39-.39.39h-2.19c-.22 0-.29.07-.29.28v6.61a1.25 1.25 0 001.4 1.35 13.84 13.84 0 001.41-.24c.19 0 .25 0 .25.17v1.86c0 .13-.24.29-.4.34a6.36 6.36 0 01-2.59.35 3.14 3.14 0 01-2.49-1.14 4.49 4.49 0 01-.52-1.08 5.75 5.75 0 01-.18-2.19v-2.25zM175.34 89.77c1-1.82 2.46-2.78 4.66-2.12l-.09.83c0 .28-.06.55-.1.83l-.14 1a.22.22 0 01-.29.2 7.81 7.81 0 00-1-.1A2.63 2.63 0 00176 92a4.31 4.31 0 00-.39 2.12v5.94c0 .44-.05.49-.49.49h-2.3c-.37 0-.43-.07-.43-.44V88.17c0-.4.06-.46.47-.46h1.72a.34.34 0 01.4.31c.1.49.19 1 .28 1.47a2.21 2.21 0 010 .25zM39.47 89.8c.31-.41.56-.77.84-1.11a3.3 3.3 0 013-1.24 3.86 3.86 0 01.49.1c.42.07.47.14.4.56s-.1.84-.16 1.26-.09.6-.13.9-.12.25-.31.22a5.88 5.88 0 00-.93-.1A2.62 2.62 0 0040.16 92a4.33 4.33 0 00-.39 2.09v5.94c0 .46-.05.51-.51.51H37c-.39 0-.45-.07-.45-.45v-11.9c0-.42.06-.48.48-.48h1.72a.33.33 0 01.39.3c.1.49.19 1 .28 1.46.01.09.03.18.05.33z"/>
</svg>
