<svg xmlns="http://www.w3.org/2000/svg" width="200" height="128">
    <rect x="20" y="25.695" width="76.611" height="76.611" rx="14.365" fill="#ed823a"/>
    <circle cx="39.153" cy="83.153" r="9.576" fill="#fff"/>
    <path d="M29.576 64a28.728 28.728 0 0 1 28.729 28.729h9.577a38.306 38.306 0 0 0-38.306-38.3z" fill="#fff"/>
    <path d="M29.576 44.847a47.882 47.882 0 0 1 47.882 47.882h9.576a57.458 57.458 0 0 0-57.458-57.458z" fill="#fff"/>
    <g fill="#4d4d4d">
        <path d="M116.862 66.645v12.533h-3.818V48.843h8.362q5.643 0 8.351 2.147t2.708 6.464q0 6.038-6.08 8.133l8.321 13.591h-4.462L122.9 66.645zm0-3.236h4.544q3.693 0 5.394-1.453a5.361 5.361 0 0 0 1.7-4.315 4.935 4.935 0 0 0-1.722-4.182q-1.724-1.317-5.582-1.317h-4.336zM156.678 71.065a7.552 7.552 0 0 1-2.863 6.245q-2.863 2.283-7.967 2.283a19.537 19.537 0 0 1-8.341-1.432v-3.652a21.94 21.94 0 0 0 4.222 1.307 21.036 21.036 0 0 0 4.285.478 8.4 8.4 0 0 0 5.125-1.308 4.258 4.258 0 0 0 1.722-3.589 4.554 4.554 0 0 0-.623-2.49 5.969 5.969 0 0 0-2.085-1.826 29.169 29.169 0 0 0-4.43-1.929 14.4 14.4 0 0 1-6.017-3.621 7.933 7.933 0 0 1-1.8-5.384 6.8 6.8 0 0 1 2.666-5.644 11.043 11.043 0 0 1 7.024-2.1 20.326 20.326 0 0 1 8.361 1.7l-1.182 3.279a19.051 19.051 0 0 0-7.262-1.619 6.828 6.828 0 0 0-4.223 1.162 3.863 3.863 0 0 0-1.525 3.258 4.746 4.746 0 0 0 .592 2.48 5.522 5.522 0 0 0 1.908 1.794 24.776 24.776 0 0 0 4.14 1.847 22.7 22.7 0 0 1 5.042 2.417 7.627 7.627 0 0 1 2.448 2.7 7.829 7.829 0 0 1 .783 3.644zM180 71.065a7.552 7.552 0 0 1-2.863 6.245q-2.863 2.283-7.968 2.283a19.54 19.54 0 0 1-8.341-1.432v-3.652a21.972 21.972 0 0 0 4.223 1.307 21.027 21.027 0 0 0 4.284.478 8.4 8.4 0 0 0 5.125-1.308 4.258 4.258 0 0 0 1.722-3.589 4.554 4.554 0 0 0-.622-2.49 5.969 5.969 0 0 0-2.085-1.826 29.215 29.215 0 0 0-4.43-1.929 14.406 14.406 0 0 1-6.018-3.621 7.933 7.933 0 0 1-1.8-5.384 6.8 6.8 0 0 1 2.666-5.644 11.04 11.04 0 0 1 7.023-2.1 20.331 20.331 0 0 1 8.362 1.7l-1.183 3.279a19.043 19.043 0 0 0-7.262-1.619 6.824 6.824 0 0 0-4.222 1.162 3.86 3.86 0 0 0-1.525 3.258 4.755 4.755 0 0 0 .591 2.48 5.517 5.517 0 0 0 1.909 1.794 24.757 24.757 0 0 0 4.139 1.847 22.656 22.656 0 0 1 5.042 2.417 7.62 7.62 0 0 1 2.449 2.7 7.842 7.842 0 0 1 .784 3.644z"/>
    </g>
</svg>
