<svg xmlns="http://www.w3.org/2000/svg" width="200" height="128">
    <path d="M126.968 71.885v1.9h-3.4V53.252h3.7v8.167a14.492 14.492 0 0 1 1.146-1.128 4.931 4.931 0 0 1 3.711-.9 6.514 6.514 0 0 1 5.634 5.135 8.866 8.866 0 0 1-.506 5.977 6.117 6.117 0 0 1-4.222 3.561 5.874 5.874 0 0 1-4.546-.67 3.373 3.373 0 0 1-1.229-1.214c-.063-.111-.137-.216-.207-.323zm7.344-5.081c-.039-.364-.051-.733-.121-1.091a3.449 3.449 0 0 0-3.238-3.09 3.18 3.18 0 0 0-3.041 1.4 5.09 5.09 0 0 0-.5 4.545 3.23 3.23 0 0 0 2.616 2.379 3.33 3.33 0 0 0 3.512-1.445 4.863 4.863 0 0 0 .772-2.702zm-57.241 6.975h3.86v-8.311h7.253v-3.576h-7.246v-5.108h9.692v-3.541H77.071zm33.634-5.917a3.759 3.759 0 0 0 3.077 3.3 3.37 3.37 0 0 0 3-.876c.193-.191.332-.437.512-.645.06-.069.183-.154.252-.136.965.259 1.926.534 2.941.82-.157.3-.283.585-.444.848a5.894 5.894 0 0 1-4.119 2.9 7.963 7.963 0 0 1-5.215-.673 6.7 6.7 0 0 1-2.942-2.936 8 8 0 0 1-.376-6.5 6.454 6.454 0 0 1 3.679-4.013 7.064 7.064 0 0 1 7.235.785 6.474 6.474 0 0 1 2.557 4.313c.133.8.131 1.623.2 2.434.023.272-.057.365-.352.364-3.188-.012-6.377-.008-9.566-.007-.144.003-.283.015-.439.022zm6.463-2.553a2.963 2.963 0 0 0-3.117-3.106 3.046 3.046 0 0 0-2.524 1.142 3.968 3.968 0 0 0-.746 1.589c-.094.39-.1.393.306.394h5.729c.108-.001.217-.012.352-.019zm36.132 5.017a6.022 6.022 0 0 1-3.589 3.48 7.786 7.786 0 0 1-6.265-.451 6.707 6.707 0 0 1-3.271-3.811 8.189 8.189 0 0 1 .018-5.544 6.736 6.736 0 0 1 3.094-3.735 7.1 7.1 0 0 1 5.092-.75 6.5 6.5 0 0 1 4.923 4.152 9.429 9.429 0 0 1 .577 3.6c0 .579 0 .579-.582.579h-9.379c-.129 0-.257.014-.408.022a3.981 3.981 0 0 0 .738 1.856 3.7 3.7 0 0 0 4.545 1.15 2.945 2.945 0 0 0 1.283-1.189.3.3 0 0 1 .416-.152c.919.267 1.843.521 2.808.793zm-6.521-5h2.942c.125 0 .3.038.273-.179a3.189 3.189 0 0 0-.712-1.911 3.154 3.154 0 0 0-2.459-1.031 3.081 3.081 0 0 0-2.016.676 3.829 3.829 0 0 0-1.228 2.132c-.062.257.01.321.259.318.979-.009 1.962-.003 2.94-.003zm18.148 8.474v-1.4a1.184 1.184 0 0 0-.209.162 3.994 3.994 0 0 1-2.19 1.373 5.932 5.932 0 0 1-4.019-.159 4.293 4.293 0 0 1-2.607-4.536 4.476 4.476 0 0 1 3.631-3.775 9.745 9.745 0 0 1 4.073-.1c.377.066.742.2 1.156.315a5.1 5.1 0 0 0-.231-2.133 1.925 1.925 0 0 0-1.436-1.165 2.776 2.776 0 0 0-2.721.684.565.565 0 0 0-.153.189c-.127.407-.427.4-.774.37-.9-.084-1.791-.146-2.687-.219-.139-.011-.278-.034-.448-.055a4.881 4.881 0 0 1 .906-1.745 5.626 5.626 0 0 1 3.283-2 8.225 8.225 0 0 1 4.852.209 4.347 4.347 0 0 1 2.8 3.09 8.772 8.772 0 0 1 .276 2.141c.031 2.8.01 5.609.019 8.414 0 .263-.065.349-.341.345-1.038-.014-2.079-.005-3.18-.005zm-2.611-6.146a3.638 3.638 0 0 0-1.852.491 1.625 1.625 0 0 0-.141 2.775 2.566 2.566 0 0 0 1.391.4 3.508 3.508 0 0 0 2.377-.72 2.029 2.029 0 0 0 .735-1.814c-.006-.376-.049-.437-.461-.672a4.418 4.418 0 0 0-2.049-.459zm9.862-4.744c.309-.009.4.083.4.4a352.068 352.068 0 0 0 0 5.629 10.468 10.468 0 0 0 .137 1.762 3.576 3.576 0 0 0 2.014 2.786 7.3 7.3 0 0 0 5.084.3.356.356 0 0 0 .187-.287c-.017-.355-.072-.709-.119-1.063-.073-.542-.151-1.084-.232-1.664a3.066 3.066 0 0 1-1.774.224 1.591 1.591 0 0 1-1.441-1.183 4.474 4.474 0 0 1-.148-1.085c-.015-1.846 0-3.692-.014-5.538 0-.214.057-.28.275-.278 1 .011 2 .005 3 0 .108 0 .216-.01.318-.015v-3.12h-3.611v-4.39a1.3 1.3 0 0 0-.21 0c-1.1.221-2.2.448-3.3.664-.19.037-.177.157-.177.294v3.06c0 .118-.017.237-.028.383h-.361c-.592 0-1.185-.007-1.777.007-.088 0-.249.106-.25.164-.015.967-.011 1.934-.011 2.953.713.005 1.376.02 2.038-.002zm-67.865-9.663h-3.676v20.539h3.676zM93.559 73.781h3.652V59.794h-3.652zm0-20.527v3.512h3.677v-3.512z"/>
    <path d="M26.78 68.314v-1.849h17.257v1.849zm0-5.547v-1.849h9.861v1.849zm0 11.094v-1.849h17.257v1.849z" fill="#00bfb2"/>
    <path d="M41.379 46.743H22.773A2.773 2.773 0 0 0 20 49.516v28.968a2.773 2.773 0 0 0 2.773 2.773h25.27a2.772 2.772 0 0 0 2.773-2.773V56.793zm.809 3.562L48.1 56.6h-5.912zm5.855 29.1h-25.27a.924.924 0 0 1-.924-.924V49.516a.924.924 0 0 1 .924-.924h17.566v9.861h8.628v20.031a.924.924 0 0 1-.924.924z" fill="#535966"/>
</svg>
