<svg width="381" height="151" fill="none" xmlns="http://www.w3.org/2000/svg">
	<path d="M118.932 56.343a4.129 4.129 0 0 0-.24-.58 2.055 2.055 0 0 0-.154-.214 2.312 2.312 0 0 0-.24-.29l-.211-.175-.201-.155-.106-.048a.236.236 0 0 0-.086-.058L89.665 40.69a16.073 16.073 0 0 0-14.35 0l-28 14.122-.086.058-.106.049-.182.164c-.067.058-.154.116-.211.174-.088.09-.168.188-.24.29-.059.066-.11.137-.154.214-.068.116-.123.24-.163.368 0 .077-.067.135-.086.212a2.65 2.65 0 0 0-.087.668v23.743a19.605 19.605 0 0 0 2.878 10.317 19.381 19.381 0 0 0 7.854 7.221L81.42 110.74c.093.043.19.078.288.106l.182.068c.198.049.401.078.605.087a3.25 3.25 0 0 0 .605-.087l.182-.068c.099-.027.195-.062.288-.106l24.688-12.448a19.395 19.395 0 0 0 7.858-7.22 19.62 19.62 0 0 0 2.883-10.318V56.981a2.452 2.452 0 0 0-.067-.639ZM77.465 45.028a11.23 11.23 0 0 1 10.06 0l23.728 11.953-20.417 10.28-3.33 1.674a11.211 11.211 0 0 1-10.05 0l-3.331-1.675-15.858-8.004 1.642.155c1.917.145 3.842.145 5.76 0 1.919-.165 3.839-.349 5.758-.465 3.84-.193 7.68-.432 11.519-.716 3.84-.33 7.679-.59 11.519-.968a.249.249 0 0 0 .21-.223.243.243 0 0 0-.21-.26c-3.84-.388-7.68-.679-11.519-.969-3.84-.29-7.68-.561-11.519-.755-1.92-.106-3.84-.3-5.759-.464a38.127 38.127 0 0 0-5.76 0c-.546 0-1.103.106-1.64.154l19.197-9.717ZM50.78 80.753V60.911l21.214 10.724a14.607 14.607 0 0 1 5.896 5.422 14.774 14.774 0 0 1 2.176 7.742v16.406c-.45-.968-.96-1.888-1.43-2.817a32.863 32.863 0 0 0-2.899-4.413c-1.113-1.375-2.236-2.74-3.32-4.153a377.954 377.954 0 0 0-6.413-8.41c-2.227-2.769-4.377-5.566-6.652-8.296a.25.25 0 0 0-.297-.067.251.251 0 0 0-.096.338c1.622 3.156 3.35 6.243 5.03 9.389 1.68 3.146 3.455 6.175 5.24 9.234.893 1.529 1.7 3.107 2.534 4.694a31.404 31.404 0 0 0 2.88 4.433c.365.474.758.968 1.152 1.394l-16.913-8.556a14.567 14.567 0 0 1-5.934-5.438 14.735 14.735 0 0 1-2.168-7.784Zm55.328 13.222-21.204 10.734v-19.91a14.747 14.747 0 0 1 2.181-7.768 14.576 14.576 0 0 1 5.93-5.425l10.309-5.217 6.652-3.358a54.046 54.046 0 0 0-1.324 1.616 33.64 33.64 0 0 0-2.986 4.52c-.854 1.597-1.689 3.204-2.601 4.772a569.647 569.647 0 0 0-5.366 9.427c-1.708 3.195-3.484 6.35-5.173 9.563a.253.253 0 0 0 .067.339.239.239 0 0 0 .336-.068c2.303-2.787 4.511-5.652 6.719-8.479a493.214 493.214 0 0 0 6.575-8.614c1.075-1.452 2.227-2.846 3.321-4.259a32.119 32.119 0 0 0 3.005-4.5c.556-.968 1.065-2.004 1.564-3.069v16.455a14.75 14.75 0 0 1-2.125 7.775 14.59 14.59 0 0 1-5.88 5.466Z" fill="#49A57F"/>
	<path d="M136.37 98.144h11.246V68.572h9.163V58.159h-9.163V55.66c0-3.748 2.083-5.83 5.415-5.83 1.249 0 2.332.166 3.248.416.5.166.917.333 1.333.416V40.25c-.666-.166-1.416-.333-2.166-.583a22.565 22.565 0 0 0-5.331-.666c-8.33 0-13.745 5.331-13.745 14.994v4.165h-6.247v10.413h6.247v29.572Z" fill="#1B1F1D"/>
	<path d="M160.954 98.144H172.2V57.326h-11.246v40.818Zm-.833-52.48c0 3.332 2.832 6.248 6.414 6.248s6.498-2.916 6.498-6.248c0-3.332-2.833-6.248-6.415-6.248s-6.497 2.916-6.497 6.248Z" fill="#1B1F1D"/>
	<path d="M176.752 98.144h11.246V76.485c0-5.414 3.748-9.163 8.746-9.163 4.665 0 7.497 2.916 7.497 7.914v22.908h11.246V73.57c0-10.413-6.664-17.077-14.994-17.077-3.999 0-6.998 1.666-8.997 3.332a19.507 19.507 0 0 0-3.082 3.332h-.416v-5.83h-11.246v40.817Z" fill="#1B1F1D"/>
	<path d="M240.454 88.564c-5.831 0-10.412-4.581-10.412-10.829s4.581-10.83 10.412-10.83 10.413 4.582 10.413 10.83-4.582 10.83-10.413 10.83Zm-21.658-10.829c0 11.662 9.58 21.242 21.658 21.242 12.079 0 21.659-9.58 21.659-21.242s-9.58-21.242-21.659-21.242c-12.078 0-21.658 9.58-21.658 21.242Z" fill="#1B1F1D"/>
	<path d="M265.015 81.9c0 10.413 6.664 17.077 14.994 17.077 3.916 0 6.998-1.666 8.997-3.332 1.166-1 2.166-2.083 3.082-3.332h.417v5.83h11.245V57.327h-11.245v21.658c0 5.415-3.749 9.164-8.747 9.164-4.665 0-7.497-2.916-7.497-7.914V57.326h-11.246V81.9Z" fill="#1B1F1D"/>
	<path d="M314.557 83.983c0 9.662 5.414 14.994 13.744 14.994 2.083 0 3.999-.25 5.332-.583.749-.25 1.499-.417 2.165-.667V87.315c-.416.166-.833.333-1.332.416-.917.25-2 .417-3.249.417-3.332 0-5.415-2.083-5.415-5.831V68.572h9.163V58.159h-9.163V45.664h-9.996v7.497c0 3.332-1.499 4.998-4.581 4.998h-3.749v10.413h7.081v15.41Z" fill="#1B1F1D"/>
</svg>
