<svg xmlns="http://www.w3.org/2000/svg" viewBox="-1.68 -2.05 165.36 165.11">
	<g fill="none" fill-rule="evenodd">
		<path fill="#1A1A1A" fill-rule="nonzero" d="M10.193 149v-23.352h5.488v-3.696h-5.488v-2.072c0-3.472 1.512-5.32 4.312-5.32 1.008 0 1.736.224 2.408.616l1.064-3.192c-1.12-.616-2.52-.896-4.144-.896-4.648 0-7.84 3.192-7.84 8.792v2.072h-4.48v3.696h4.48V149h4.2zm14.728 0v-37.352h-4.2V149h4.2zm-14.728 0v-23.352h5.488v-3.696h-5.488v-2.072c0-3.472 1.512-5.32 4.312-5.32 1.008 0 1.736.224 2.408.616l1.064-3.192c-1.12-.616-2.52-.896-4.144-.896-4.648 0-7.84 3.192-7.84 8.792v2.072h-4.48v3.696h4.48V149h4.2zm14.728 0v-37.352h-4.2V149h4.2zm14.066.672c3.64 0 6.776-1.288 8.96-3.752V149h4.2v-18.592c0-6.552-4.704-9.128-10.472-9.128-4.424 0-7.896 1.456-10.808 4.48l1.96 2.912c2.408-2.632 5.04-3.752 8.288-3.752 3.92 0 6.832 2.072 6.832 5.656v4.872c-2.184-2.464-5.264-3.64-8.96-3.64-4.592 0-9.408 2.8-9.408 8.904 0 5.88 4.872 8.96 9.408 8.96zm1.568-3.024c-3.976 0-6.72-2.464-6.72-5.936 0-3.416 2.744-5.88 6.72-5.88 2.912 0 5.768 1.12 7.392 3.304v5.152c-1.624 2.24-4.48 3.36-7.392 3.36zm28.627 13.328c6.608 0 12.936-2.8 12.936-11.368v-26.656h-4.2v4.088c-2.184-2.968-5.488-4.76-9.128-4.76-7.112 0-12.04 5.376-12.04 14.056 0 8.736 4.984 14 12.04 14 3.808 0 7.112-2.072 9.128-4.816v4.088c0 5.712-4.256 7.896-8.736 7.896-3.864 0-6.552-1.008-8.792-3.64l-2.128 3.024c3.248 3.192 6.384 4.088 10.92 4.088zm.672-14.392c-5.488 0-8.736-4.312-8.736-10.248 0-5.992 3.248-10.304 8.736-10.304 3.304 0 6.552 2.016 8.064 4.312v11.872c-1.512 2.352-4.76 4.368-8.064 4.368zm29.242 14.392c6.608 0 12.936-2.8 12.936-11.368v-26.656h-4.2v4.088c-2.184-2.968-5.488-4.76-9.128-4.76-7.112 0-12.04 5.376-12.04 14.056 0 8.736 4.984 14 12.04 14 3.808 0 7.112-2.072 9.128-4.816v4.088c0 5.712-4.256 7.896-8.736 7.896-3.864 0-6.552-1.008-8.792-3.64l-2.128 3.024c3.248 3.192 6.384 4.088 10.92 4.088zm.672-14.392c-5.488 0-8.736-4.312-8.736-10.248 0-5.992 3.248-10.304 8.736-10.304 3.304 0 6.552 2.016 8.064 4.312v11.872c-1.512 2.352-4.76 4.368-8.064 4.368zm30.642 4.088c4.368 0 8.008-1.512 10.752-4.2l-2.016-2.744c-2.184 2.24-5.264 3.472-8.4 3.472-5.824 0-9.352-4.256-9.688-9.352h21.84v-1.064c0-8.12-4.816-14.504-12.992-14.504-7.728 0-13.328 6.328-13.328 14.168 0 8.456 5.768 14.224 13.832 14.224zm8.344-15.96h-17.752c.224-4.088 3.08-8.96 8.848-8.96 6.16 0 8.848 4.984 8.904 8.96zM151.59 149v-19.152c1.232-2.184 4.76-4.312 7.392-4.312.616 0 1.12.056 1.624.112v-4.312c-3.696 0-6.832 2.128-9.016 4.928v-4.312h-4.2V149h4.2z"/>
		<g fill="#7BB09F">
			<path d="M79.973 1.2V1.434l.001.128v.547l.001.233.001 1.173v.35l.001 1.612v.452l.001 2.529v.554l.001 3.624v.647l.001 5.517v.723l.001 8.176v.748l.001 22.753a2.853 2.853 0 0 1-1.601-.488L45.668 28.73a3.01 3.01 0 0 1-.368-.291L27.438 40.2a2.899 2.899 0 0 1 0-4.964l31.805-20.689 19.138-12.86a2.85 2.85 0 0 1 1.592-.487zm.009 53a2.984 2.984 0 0 1 1.649.488l33.53 21.94L131.669 66.2c1.726 1.167 1.726 3.796 0 4.964l-32.244 20.94a.061.061 0 0 1-.06.007l-17.734 11.601a2.986 2.986 0 0 1-1.592.488v-.362l-.001-.78v-.258l-.001-.587-.026-23.013-.002-1.5-.023-20.07-.001-.764-.001-.984-.001-.773V54.9l-.001-.701z"/>
			<path d="M83.483 3.078c-.773-.394-2.172-1.806-3.524-1.763-1.171 0-1.63.494-3.524 1.763C79.07 4.231 88.827 7.67 91.557 8.44c-4.342-2.935-7.034-4.723-8.074-5.362zm-10.465 2.28-3.003 1.96c2.86 1.95 5.597 3.467 8.21 4.553 5.31 2.207 12.06 3.629 13.599 4.01 8.738 2.164 16.992 4.207 23.628 10.873.338.338.654.683.968 1.028.68-1.306.339-3.03-1.022-3.918l-13.131-8.575c-3.188-1.056-6.435-1.864-9.645-2.658-3.027-.75-8.144-2.082-11.006-3-1.909-.614-4.774-2.038-8.598-4.273zm.114 9.236c-2.174-.999-4.553-2.527-7.138-4.585l-2.833 1.92c2.92 2.444 5.407 4.166 7.464 5.167 3.086 1.502 14.858 4.719 15.587 4.899 8.743 2.157 16.725 3.761 23.366 10.41.01.011 2.8-1.674 2.62-1.853-7.298-7.306-16.386-9.627-25.187-11.799-1.005-.248-10.62-2.66-13.88-4.159zm10.543 13.592c6.967 1.772 13.518 3.89 19.067 8.758l2.928-1.875c-6.34-5.871-13.463-8.707-21.484-10.207-7.19-1.346-11.91-3.013-17.279-5.116-3.58-1.402-6.399-2.944-8.458-4.626l-2.945 1.886c3.392 2.648 6.448 4.535 9.17 5.66 3.592 1.487 9.926 3.326 19 5.52zm-35.086-6.552c.102.103.194.21.3.312 7.441 7.305 16.341 9.412 25.317 11.583 7.773 1.88 14.837 3.44 21.093 8.272l2.985-1.946C91.236 34.03 83.17 32.26 75.02 30.289c-8.826-2.136-16.784-4.022-23.521-10.512l-2.91 1.857zm-3.324 2.338c-1.306 1.357-1.153 3.696.486 4.8l9.917 6.685c4.39 1.884 7.757 2.8 12.27 3.954 7.048 1.8 13.715 3.285 19.547 7.471l2.841-1.942c-6.631-5.169-14.103-6.988-21.586-8.9-8.778-2.244-15.847-4.1-22.516-11.015a29.821 29.821 0 0 1-.959-1.053zm32.3 26.193c.729.398.978.844 2.015 1.035.75 0 1.579-.04 2.255-.466l1.657-1.041c-5.323-3.444-10.847-5.434-16.745-6.887l10.818 7.359z"/>
			<path d="M83.483 56.078c-.773-.394-2.172-1.806-3.524-1.763-1.171 0-1.63.494-3.524 1.763 2.635 1.153 12.392 4.592 15.122 5.362-4.342-2.935-7.034-4.723-8.074-5.362zm-10.465 2.28-3.003 1.96c2.86 1.95 5.597 3.467 8.21 4.553 5.31 2.207 12.06 3.629 13.599 4.01 8.738 2.164 16.992 4.207 23.628 10.873.338.338.654.683.968 1.028.68-1.306.339-3.03-1.022-3.918l-13.131-8.575c-3.188-1.056-6.435-1.864-9.645-2.658-3.027-.75-8.144-2.082-11.006-3.001-1.909-.613-4.774-2.037-8.598-4.272zm.114 9.236c-2.174-.999-4.553-2.527-7.138-4.585l-2.833 1.92c2.92 2.444 5.407 4.166 7.464 5.167 3.086 1.502 14.858 4.719 15.587 4.899 8.743 2.157 16.725 3.761 23.366 10.41.01.011 2.8-1.674 2.62-1.853-7.298-7.306-16.386-9.627-25.187-11.799-1.005-.248-10.62-2.66-13.88-4.159zm10.543 13.592c6.967 1.772 13.518 3.89 19.067 8.758l2.928-1.875c-6.34-5.871-13.463-8.707-21.484-10.207-7.19-1.346-11.91-3.013-17.279-5.116-3.58-1.402-6.399-2.944-8.458-4.626l-2.945 1.886c3.392 2.648 6.448 4.535 9.17 5.66 3.592 1.487 9.926 3.326 19 5.52zm-35.086-6.552c.102.103.194.21.3.312 7.441 7.305 16.341 9.412 25.317 11.583 7.773 1.88 14.837 3.44 21.093 8.272l2.985-1.946C91.236 87.03 83.17 85.26 75.02 83.289c-8.826-2.136-16.784-4.022-23.521-10.512l-2.91 1.857zm-3.324 2.338c-1.306 1.357-1.153 3.696.486 4.8l9.917 6.685c4.39 1.884 7.757 2.8 12.27 3.954 7.048 1.8 13.715 3.285 19.547 7.471l2.841-1.942c-6.631-5.169-14.103-6.988-21.586-8.9-8.778-2.244-15.847-4.1-22.516-11.015a29.821 29.821 0 0 1-.959-1.053zm32.3 26.193c.729.398.978.844 2.015 1.035.75 0 1.579-.04 2.255-.466l1.657-1.041c-5.323-3.444-10.847-5.434-16.745-6.887l10.818 7.359z"/>
		</g>
	</g>
</svg>
