<svg xmlns="http://www.w3.org/2000/svg" viewBox="2.63 2.76 90.61 62.36">
	<defs>
		<style>
			.cls-1{fill:none}.cls-2{fill:#326ce5}
		</style>
	</defs>
	<path d="m52.391 24.501-9.446 5.476-.46 3.888 10.307-5.973-.401-3.391z" class="cls-1"/>
	<path d="M37.808 5.929 27.663 23.5l10.145 17.572h20.29L68.241 23.5 58.097 5.93zM62.68 17.938l3.211 5.563-8.97 15.766h-.79a3.135 3.135 0 0 1-1.347-1.383l.005-.005a1.279 1.279 0 0 1-.228-.46 1.942 1.942 0 0 1 .311-1.897 1.165 1.165 0 0 1 1.365-.193 1.542 1.542 0 0 0-1.75-1.024v-.004l-.017.005a1.571 1.571 0 0 0-.596.24 7.387 7.387 0 0 0-1.812 2.176 13.136 13.136 0 0 1-2.574 2.545h-.551a14.362 14.362 0 0 0 2.205-1.915 1.753 1.753 0 0 1-.314-.631 2.667 2.667 0 0 1 .428-2.606 1.599 1.599 0 0 1 1.875-.266 2.12 2.12 0 0 0-2.405-1.407v-.005l-.024.007a2.163 2.163 0 0 0-.818.329c-.808.478-1.349 1.364-2.488 2.99a17.208 17.208 0 0 1-3.535 3.504h-.564a14.695 14.695 0 0 0 2.23-1.929 2.336 2.336 0 0 1-.108-.278 2.31 2.31 0 0 1 .37-2.257 1.384 1.384 0 0 1 1.626-.23 1.876 1.876 0 0 0-1.765-1.252 1.897 1.897 0 0 0-.32.033l.001-.005-.02.006a1.87 1.87 0 0 0-.71.286 8.783 8.783 0 0 0-2.155 2.59 15.818 15.818 0 0 1-2.736 3.036h-.728L30.013 23.5l3.192-5.528 10.625-2.463v-.456l-7.932-1.746 3.084-5.343h17.94l3.111 5.388-7.78 1.712v.456z" class="cls-1"/>
	<path d="m43.275 27.176 6.366-3.676H43.71l-.435 3.676zm8.006-13.168H52L48.105 10.9l-3.898 3.108h.721v4.673h-2.46a7.8 7.8 0 0 1 1.293 3.967h8.687a7.8 7.8 0 0 1 1.292-3.967h-2.46zm-3.505 3.001h-2.462v-3.024h2.462zm3.101 0h-2.614v-3.024h2.614zM88.11 55.591a2.23 2.23 0 0 0-1.024.23 2.59 2.59 0 0 0-.785.613 2.868 2.868 0 0 0-.525.893 3.633 3.633 0 0 0-.22 1.064h4.847a3.365 3.365 0 0 0-.623-2.063 2.016 2.016 0 0 0-1.67-.737zm-32.47.016a2.405 2.405 0 0 0-2 .942 4.697 4.697 0 0 0 0 5.051 2.605 2.605 0 0 0 3.997 0 4.697 4.697 0 0 0 0-5.051 2.4 2.4 0 0 0-1.998-.942zm-5.067-24.32v.491s2.113-.383 3.03 1.063l-.365-3.092zm-30.072 28.3a4.837 4.837 0 0 0-.647.041 1.702 1.702 0 0 0-.531.155.907.907 0 0 0-.361.312.866.866 0 0 0-.131.49.836.836 0 0 0 .385.795 2.129 2.129 0 0 0 1.056.221l.688-.016.524-.05v-1.85a4.338 4.338 0 0 0-.443-.065z" class="cls-1"/>
	<path d="M49.684 59.48a3.45 3.45 0 0 0-.795-.49l-.941-.4-.843-.359a3.268 3.268 0 0 1-.622-.351 1.302 1.302 0 0 1-.385-.435 1.244 1.244 0 0 1-.13-.59 1.09 1.09 0 0 1 .146-.583 1.23 1.23 0 0 1 .393-.394 1.8 1.8 0 0 1 .565-.23 3.003 3.003 0 0 1 .68-.074 4.358 4.358 0 0 1 1.367.164 6.495 6.495 0 0 1 .663.262l.246-.95a4.476 4.476 0 0 0-.794-.262 5.833 5.833 0 0 0-1.433-.147 3.27 3.27 0 0 0-2.137.639 2.058 2.058 0 0 0-.778 1.67 1.964 1.964 0 0 0 .196.917 2.061 2.061 0 0 0 .524.647 3.68 3.68 0 0 0 .753.474l.9.402.992.425a3.086 3.086 0 0 1 .647.378 1.15 1.15 0 0 1 .352.441 1.475 1.475 0 0 1 .106.59 1.057 1.057 0 0 1-.598 1.024 3.347 3.347 0 0 1-1.514.303 5.428 5.428 0 0 1-.892-.066 4.71 4.71 0 0 1-.663-.156 4.425 4.425 0 0 1-.443-.164 1.867 1.867 0 0 1-.212-.106l-.279.966.787.286a5.906 5.906 0 0 0 1.703.189 4.098 4.098 0 0 0 2.349-.59 1.97 1.97 0 0 0 .86-1.735 2.131 2.131 0 0 0-.213-1.007 2.274 2.274 0 0 0-.557-.688zM13.96 61.01a1.014 1.014 0 0 1-.189-.441 3.18 3.18 0 0 1-.049-.59v-9.382l-2.44.393v9.48a5.065 5.065 0 0 0 .14 1.236 1.977 1.977 0 0 0 .523.934 2.556 2.556 0 0 0 1.049.598 6.125 6.125 0 0 0 1.727.23l.344-2.015a2.202 2.202 0 0 1-.704-.147 1.01 1.01 0 0 1-.401-.295zm-7.042-7.384a1.301 1.301 0 0 1 .246-.508 1.147 1.147 0 0 1 .475-.335 1.994 1.994 0 0 1 .745-.123 4.247 4.247 0 0 1 .647.049 2.344 2.344 0 0 1 .581.164l.426-1.916a5.386 5.386 0 0 0-.762-.246 4.746 4.746 0 0 0-1.138-.114 3.692 3.692 0 0 0-2.792.982 3.673 3.673 0 0 0-.941 2.653v9.071h2.44v-6.582h3.012v-2.03H6.844v-.427a2.617 2.617 0 0 1 .074-.638zm51.496 2.235a3.617 3.617 0 0 0-1.22-.9 3.94 3.94 0 0 0-3.11 0 3.589 3.589 0 0 0-1.22.9 4.15 4.15 0 0 0-.802 1.4 5.902 5.902 0 0 0 0 3.635 4.043 4.043 0 0 0 .802 1.392 3.65 3.65 0 0 0 1.22.893 3.948 3.948 0 0 0 3.11 0 3.66 3.66 0 0 0 1.22-.893 4.06 4.06 0 0 0 .802-1.392 5.893 5.893 0 0 0 0-3.635 4.14 4.14 0 0 0-.802-1.4zm-.777 5.74a2.605 2.605 0 0 1-3.996 0 4.697 4.697 0 0 1 0-5.052 2.59 2.59 0 0 1 3.996 0 4.697 4.697 0 0 1 0 5.051zM32.48 55.59a2.74 2.74 0 0 0-1.154-.81 5.039 5.039 0 0 0-1.827-.287 13.23 13.23 0 0 0-2.063.156 13.6 13.6 0 0 0-1.605.335v8.318h2.44v-6.648l.524-.057.557-.025a1.27 1.27 0 0 1 1.163.492 3.288 3.288 0 0 1 .311 1.67v4.568h2.44V58.44a6.62 6.62 0 0 0-.18-1.605 3.15 3.15 0 0 0-.606-1.244zm-9.45-.18a2.799 2.799 0 0 0-1.154-.704 5.647 5.647 0 0 0-1.801-.246l-.843.04-.795.1-.696.13-.532.139.31 1.965a5.316 5.316 0 0 1 1.049-.253 8.35 8.35 0 0 1 1.228-.09 1.822 1.822 0 0 1 1.31.376 1.35 1.35 0 0 1 .377.999v.229a3.855 3.855 0 0 0-.598-.107l-.843-.04a6.515 6.515 0 0 0-1.36.139 3.654 3.654 0 0 0-1.162.45 2.344 2.344 0 0 0-.81.835 2.508 2.508 0 0 0-.303 1.278 3.022 3.022 0 0 0 .261 1.326 2.211 2.211 0 0 0 .754.876 3.29 3.29 0 0 0 1.17.483 7.147 7.147 0 0 0 1.515.147 14.069 14.069 0 0 0 2.26-.155l1.458-.271V57.98a5.473 5.473 0 0 0-.18-1.456 2.59 2.59 0 0 0-.615-1.115zm-1.547 6.124-.524.05-.688.015a2.129 2.129 0 0 1-1.056-.221.836.836 0 0 1-.385-.794.866.866 0 0 1 .131-.491.907.907 0 0 1 .36-.312 1.702 1.702 0 0 1 .532-.155 4.837 4.837 0 0 1 .647-.041l.54.033a4.338 4.338 0 0 1 .443.066zm20.466-.741-1.016-1.271a11.184 11.184 0 0 0-1.015-1.059l1.81-1.87 1.695-1.904h-2.902l-.548.651-.68.79-.744.839-.743.813v-7.186l-2.44.393v12.313h2.44v-3.775a6.602 6.602 0 0 1 .826.804l.792.994.711 1.033.596.944h2.806l-.688-1.197zm25.206 1.477a3.584 3.584 0 0 1-.704.148 9.09 9.09 0 0 1-1.31.082 3.3 3.3 0 0 1-1.138-.172 1.664 1.664 0 0 1-.762-.557 2.474 2.474 0 0 1-.426-1.007 7.567 7.567 0 0 1-.13-1.523v-4.405H61.62v4.749a6.84 6.84 0 0 0 .172 1.588 3.183 3.183 0 0 0 .565 1.228 2.573 2.573 0 0 0 1.032.786 3.994 3.994 0 0 0 1.588.279 10.01 10.01 0 0 0 1.965-.164l1.277-.294v-8.172h-1.064zm6.817-7.597a7.007 7.007 0 0 0-1.752.188 7.87 7.87 0 0 0-1.13.369v8.072h1.064v-7.417a3.047 3.047 0 0 1 .549-.164 5.022 5.022 0 0 1 1.105-.098 6.064 6.064 0 0 1 1.056.073 2.384 2.384 0 0 1 .533.14l.213-.918a2.988 2.988 0 0 0-.647-.164 5.815 5.815 0 0 0-.99-.081zm16.602.982a3.194 3.194 0 0 0-2.481-1.015 3.594 3.594 0 0 0-1.367.27 3.287 3.287 0 0 0-1.18.827 4.28 4.28 0 0 0-.835 1.384 5.363 5.363 0 0 0-.319 1.94 6.509 6.509 0 0 0 .23 1.776 3.636 3.636 0 0 0 .736 1.401 3.39 3.39 0 0 0 1.294.917 4.943 4.943 0 0 0 1.9.327 5.432 5.432 0 0 0 1.481-.18 4.424 4.424 0 0 0 .86-.311l-.197-.917-.736.278a4.639 4.639 0 0 1-1.376.164 2.871 2.871 0 0 1-2.293-.835 3.748 3.748 0 0 1-.77-2.39h5.946l.023-.247.009-.262a4.525 4.525 0 0 0-.925-3.127zm-5.02 2.735a3.633 3.633 0 0 1 .221-1.064 2.868 2.868 0 0 1 .525-.893 2.59 2.59 0 0 1 .785-.614 2.23 2.23 0 0 1 1.024-.229 2.016 2.016 0 0 1 1.67.737 3.365 3.365 0 0 1 .623 2.063zm-3.403 3.97a3.682 3.682 0 0 1-1.154.155 3.545 3.545 0 0 1-1.417-.253 2.48 2.48 0 0 1-.95-.704 2.787 2.787 0 0 1-.532-1.08 5.494 5.494 0 0 1-.164-1.385 4.03 4.03 0 0 1 .73-2.578 2.578 2.578 0 0 1 2.136-.91 4.888 4.888 0 0 1 1.097.1 3.438 3.438 0 0 1 .738.261l.278-.917a3.226 3.226 0 0 0-.926-.295 6.863 6.863 0 0 0-1.285-.114 3.965 3.965 0 0 0-1.62.32 3.43 3.43 0 0 0-1.23.908 4.101 4.101 0 0 0-.777 1.408 6.263 6.263 0 0 0-.008 3.61 3.992 3.992 0 0 0 .761 1.392 3.268 3.268 0 0 0 1.253.893 4.517 4.517 0 0 0 1.736.311 5.451 5.451 0 0 0 1.317-.156 4.025 4.025 0 0 0 .926-.319l-.23-.917a4.644 4.644 0 0 1-.679.27zM45.314 13.985h2.462v3.024h-2.462zm2.949 0h2.614v3.024h-2.614z" class="cls-2"/>
	<path d="m60.033 13.352-3.11-5.388h-17.94l-3.085 5.343 7.932 1.746v.456l-10.625 2.463-3.192 5.528 8.97 15.767h.728a15.818 15.818 0 0 0 2.736-3.036 8.783 8.783 0 0 1 2.156-2.59 1.87 1.87 0 0 1 .709-.286l.02-.006v.005a1.897 1.897 0 0 1 .319-.033 1.876 1.876 0 0 1 1.765 1.252 1.384 1.384 0 0 0-1.625.23 2.31 2.31 0 0 0-.371 2.257 2.336 2.336 0 0 0 .108.278 14.695 14.695 0 0 1-2.23 1.929h.564a17.208 17.208 0 0 0 3.535-3.503c1.14-1.627 1.68-2.513 2.488-2.991a2.163 2.163 0 0 1 .818-.329l.025-.007-.002.005a2.12 2.12 0 0 1 2.406 1.407 1.599 1.599 0 0 0-1.875.266 2.667 2.667 0 0 0-.428 2.606 1.753 1.753 0 0 0 .314.63 14.362 14.362 0 0 1-2.205 1.916h.551a13.136 13.136 0 0 0 2.574-2.545 7.387 7.387 0 0 1 1.812-2.176 1.571 1.571 0 0 1 .596-.24l.017-.005v.004a1.542 1.542 0 0 1 1.75 1.024 1.165 1.165 0 0 0-1.365.193 1.942 1.942 0 0 0-.311 1.898 1.279 1.279 0 0 0 .228.459l-.005.005a3.135 3.135 0 0 0 1.348 1.383h.79l8.97-15.766-3.212-5.563-10.429-2.418v-.456zM42.485 33.865l.46-3.888L52.39 24.5l.401 3.391zm.79-6.69.435-3.675h5.931zm7.298 4.603v-.49l2.665-1.539.365 3.092c-.917-1.446-3.03-1.063-3.03-1.063zm3.167-13.097a7.8 7.8 0 0 0-1.292 3.967h-8.687a7.8 7.8 0 0 0-1.292-3.967h2.46v-4.673h-.722l3.898-3.108L52 14.008h-.72v4.673z" class="cls-2"/>
	<path d="m36.983 4.5-10.97 19 10.97 19h21.94l10.969-19-10.97-19zm21.114 36.572h-20.29L27.664 23.5 37.808 5.93h20.29L68.241 23.5z" class="cls-2"/>
</svg>
