<svg width="371" height="84" fill="none" xmlns="http://www.w3.org/2000/svg">
	<path d="M43.696 53.57H32.385V30.864h11.311c6.23 0 11.312 5.1 11.312 11.352 0 6.252-5.082 11.352-11.312 11.352Z" fill="#0064FF"/>
	<path d="m22.712 32.18-6.065-6.087L.58 42.217 16.647 58.34l6.065-6.252-3.115-2.961v-13.82l3.115-3.126Z" fill="#00003C"/>
	<path d="M67.467 26.093 61.4 32.181l2.951 3.126v13.82l-2.95 2.961 6.065 6.252 16.066-16.123-16.066-16.124Z" fill="#00003C"/>
	<path d="m25.991 16.715 6.066 6.088 3.114-3.126h13.771l2.95 3.126 6.23-6.088L42.057.592 25.99 16.715Z" fill="#00003C"/>
	<path d="m55.008 64.592-3.115-2.961-2.951 2.961h-13.77l-3.115-2.961-2.951 2.961-3.115 3.126 16.066 16.124 16.065-16.124-3.114-3.126Z" fill="#00003C"/>
	<path d="M106.155 7.008v1.317h-2.951v1.81h2.295v1.151h-2.295v2.797h-1.64V7.008h4.591Z" fill="#00003C"/>
	<path d="M109.925 7.008v5.759h2.786v1.316h-4.426V7.008h1.64Z" fill="#00003C"/>
	<path d="m119.269 7.008 2.295 7.075h-1.639l-.492-1.645h-2.623l-.492 1.645h-1.475l2.295-7.075h2.131Zm-.328 4.278-.983-3.126-.984 3.126h1.967Z" fill="#00003C"/>
	<path d="m125.663 7.008 2.622 4.607V7.008h1.476v7.075h-1.639l-2.951-5.1v5.1h-1.476V7.008h1.968Z" fill="#00003C"/>
	<path d="M131.892 8.16V7.008h5.409v1.317h-1.967v5.758h-1.639V8.16h-1.803Z" fill="#00003C"/>
	<path d="M117.793 35.142c0 5.265-3.934 9.214-9.344 9.214h-6.886V26.093h6.886c5.41 0 9.344 3.784 9.344 9.05Zm-4.098 0c0-3.29-2.132-5.43-5.41-5.43h-2.787v11.024h2.951c3.114 0 5.246-2.303 5.246-5.594Z" fill="#0064FF"/>
	<path d="M134.515 38.433h-10.656c.328 1.974 1.64 2.961 3.443 2.961 1.311 0 2.459-.658 2.951-1.645h4.098c-.984 3.126-3.77 5.1-7.049 5.1-4.262 0-7.377-3.29-7.377-7.568s3.115-7.568 7.377-7.568c4.426 0 7.377 3.29 7.377 7.404-.164.493-.164.987-.164 1.316ZM123.859 35.8h6.885c-.491-1.81-1.803-2.632-3.442-2.632-1.803 0-2.951.987-3.443 2.632Z" fill="#0064FF"/>
	<path d="M143.858 44.85c-4.262 0-7.541-3.291-7.541-7.569 0-4.277 3.279-7.403 7.541-7.403 3.607 0 6.558 2.303 7.213 5.758h-3.77c-.656-1.48-1.967-2.139-3.443-2.139-2.131 0-3.606 1.645-3.606 3.949 0 2.303 1.639 3.948 3.606 3.948 1.476 0 2.787-.822 3.443-2.303h3.934a7.581 7.581 0 0 1-7.377 5.758Z" fill="#0064FF"/>
	<path d="m162.219 44.52-4.59-6.745v6.745h-3.771V25.106h3.771v11.517l4.262-6.252h4.426l-4.754 6.746 5.246 7.403h-4.59Z" fill="#0064FF"/>
	<path d="M181.891 35.8v8.72h-3.77v-8.062c0-2.138-.82-3.125-2.459-3.125-1.968 0-3.115 1.316-3.115 3.784v7.403h-3.771V25.106h3.771v6.417c1.147-.987 2.623-1.645 4.262-1.645 3.115 0 5.082 2.303 5.082 5.922Z" fill="#0064FF"/>
	<path d="M184.351 37.281c0-4.278 3.278-7.568 7.705-7.568 4.426 0 7.704 3.126 7.704 7.568 0 4.278-3.278 7.568-7.704 7.568-4.427 0-7.705-3.29-7.705-7.568Zm11.475 0c0-2.303-1.639-3.948-3.77-3.948-2.132 0-3.771 1.645-3.771 3.948s1.639 3.949 3.771 3.949c2.131 0 3.77-1.645 3.77-3.949Z" fill="#0064FF"/>
	<path d="M202.22 38.433v-8.227h3.77v7.733c0 1.974 1.148 3.29 2.787 3.29 1.803 0 2.787-1.151 2.787-3.29v-7.733h3.77v8.227c0 3.784-2.622 6.416-6.721 6.416-3.77 0-6.393-2.632-6.393-6.416Z" fill="#0064FF"/>
	<path d="M224.023 44.85c-3.607 0-5.902-1.975-5.902-5.101h3.771c0 1.316.983 1.974 2.295 1.974.983 0 1.967-.493 1.967-1.48 0-.988-1.312-1.317-2.787-1.481-2.295-.33-5.082-.987-5.082-4.278 0-2.632 2.295-4.607 5.738-4.607 3.442 0 5.737 1.975 5.737 4.772h-3.606c0-1.152-.82-1.645-2.131-1.645-1.148 0-1.967.493-1.967 1.316 0 .987 1.147 1.151 2.622 1.48 2.296.494 5.246.988 5.246 4.443 0 2.797-2.459 4.606-5.901 4.606Z" fill="#0064FF"/>
	<path d="M246.318 38.433h-10.656c.328 1.974 1.639 2.961 3.443 2.961 1.311 0 2.459-.658 2.95-1.645h4.099c-.984 3.126-3.771 5.1-7.049 5.1-4.263 0-7.377-3.29-7.377-7.568s3.114-7.568 7.377-7.568c4.426 0 7.377 3.29 7.377 7.404 0 .493 0 .987-.164 1.316ZM235.826 35.8h6.885c-.492-1.81-1.803-2.632-3.442-2.632-1.804 0-3.115.987-3.443 2.632Z" fill="#0064FF"/>
	<path d="m112.055 76.11-6.557-9.05v9.05h-3.935V57.681h3.935v8.556l6.065-8.556h4.591l-6.23 8.72 6.885 9.543h-4.754v.164Z" fill="#00003C"/>
	<path d="M117.465 70.022v-8.227h3.77v7.733c0 1.974 1.148 3.29 2.787 3.29 1.804 0 2.787-1.151 2.787-3.29v-7.733h3.771v8.227c0 3.784-2.623 6.416-6.722 6.416-3.77 0-6.393-2.632-6.393-6.416Z" fill="#00003C"/>
	<path d="M149.268 68.87c0 4.278-3.114 7.568-7.377 7.568-1.803 0-3.278-.658-4.426-1.645l-.492 1.152h-2.786v-19.25h3.77v5.923c1.148-.823 2.459-1.152 3.934-1.152 4.263 0 7.377 3.126 7.377 7.404Zm-3.934 0c0-2.303-1.639-3.949-3.934-3.949s-3.935 1.646-3.935 3.95c0 2.138 1.64 3.948 3.935 3.948s3.934-1.646 3.934-3.949Z" fill="#00003C"/>
	<path d="M165.826 70.022H155.17c.328 1.974 1.639 2.961 3.442 2.961 1.312 0 2.459-.658 2.951-1.645h4.099c-.984 3.126-3.771 5.1-7.05 5.1-4.262 0-7.377-3.29-7.377-7.568s3.115-7.568 7.377-7.568c4.427 0 7.377 3.29 7.377 7.404-.163.493-.163.987-.163 1.316Zm-10.656-2.633h6.885c-.492-1.81-1.803-2.632-3.443-2.632-1.803 0-2.95.987-3.442 2.632Z" fill="#00003C"/>
	<path d="M176.973 61.795v3.62h-1.639c-2.132 0-2.951.987-2.951 3.29v7.404h-3.771V61.96h2.459l.656 1.81c.984-1.316 2.295-1.81 4.098-1.81h1.148v-.165Z" fill="#00003C"/>
	<path d="M192.219 67.39v8.555h-3.77v-7.898c0-2.138-.82-3.126-2.459-3.126-1.967 0-3.115 1.481-3.115 3.784v7.404h-3.771V61.96h2.623l.82 1.81c1.148-1.316 2.787-2.138 4.754-2.138 2.951-.165 4.918 2.139 4.918 5.758Z" fill="#00003C"/>
	<path d="M209.433 70.022h-10.656c.328 1.974 1.64 2.961 3.443 2.961 1.311 0 2.459-.658 2.951-1.645h4.098c-.984 3.126-3.771 5.1-7.049 5.1-4.262 0-7.377-3.29-7.377-7.568s3.115-7.568 7.377-7.568c4.426 0 7.377 3.29 7.377 7.404-.164.493-.164.987-.164 1.316Zm-10.656-2.633h6.885c-.491-1.81-1.803-2.632-3.442-2.632-1.803 0-2.951.987-3.443 2.632Z" fill="#00003C"/>
	<path d="M220.744 72.654v3.455h-2.787c-3.115 0-5.082-1.974-5.082-5.1V64.92h-2.459V64.1l5.574-5.923h.656v3.784h3.934v3.126h-3.771v5.594c0 1.316.82 2.139 2.132 2.139h1.803v-.165Z" fill="#00003C"/>
	<path d="M236.974 70.022h-10.656c.328 1.974 1.64 2.961 3.443 2.961 1.311 0 2.459-.658 2.951-1.645h4.098c-.984 3.126-3.77 5.1-7.049 5.1-4.262 0-7.377-3.29-7.377-7.568s3.115-7.568 7.377-7.568c4.426 0 7.377 3.29 7.377 7.404-.164.493-.164.987-.164 1.316Zm-10.656-2.633h6.885c-.491-1.81-1.803-2.632-3.442-2.632-1.803 0-2.951.987-3.443 2.632Z" fill="#00003C"/>
	<path d="M244.678 76.438c-3.607 0-5.902-1.974-5.902-5.1h3.771c0 1.316.983 1.974 2.295 1.974.984 0 1.967-.493 1.967-1.48 0-.988-1.147-1.317-2.787-1.481-2.295-.33-5.082-.987-5.082-4.278 0-2.632 2.295-4.607 5.738-4.607 3.443 0 5.738 1.975 5.738 4.772h-3.607c0-1.152-.82-1.646-2.131-1.646-1.148 0-1.967.494-1.967 1.317 0 .987 1.147 1.151 2.623 1.48 2.295.494 5.246.987 5.246 4.443.164 2.796-2.295 4.606-5.902 4.606Z" fill="#00003C"/>
	<path d="M273.53 63.934c0 3.62-2.786 6.417-6.557 6.417h-3.115v5.758h-3.934V57.682h7.049c3.771 0 6.557 2.633 6.557 6.252Zm-3.934 0c0-1.48-.984-2.632-2.623-2.632h-2.951v5.265h2.951c1.475 0 2.623-1.152 2.623-2.633Z" fill="#00003C"/>
	<path d="M275.826 56.695h3.771V76.11h-3.771V56.695Z" fill="#00003C"/>
	<path d="M297.63 61.795v14.15h-2.951l-.328-1.316c-1.148.987-2.787 1.645-4.59 1.645-4.262 0-7.377-3.29-7.377-7.568s3.115-7.569 7.377-7.569c1.803 0 3.442.658 4.59 1.81l.492-1.316 2.787.164Zm-3.771 7.075c0-2.303-1.639-3.949-3.934-3.949s-3.935 1.646-3.935 3.95c0 2.303 1.64 3.948 3.935 3.948s3.934-1.645 3.934-3.949Z" fill="#00003C"/>
	<path d="M319.76 65.25h-3.606v10.86h-3.771V65.25h-6.393v5.265c0 1.317.82 2.14 2.131 2.14h1.476v3.454h-2.459c-3.115 0-5.082-1.974-5.082-5.1V65.25h-2.623v-.823l5.573-6.252h.656v3.949h6.557v-1.481c0-2.797 1.476-4.442 4.427-4.442h2.787v2.961h-2.132c-.983 0-1.475.494-1.475 1.48v1.317h3.607v3.29h.327Z" fill="#00003C"/>
	<path d="M320.908 68.87c0-4.278 3.279-7.568 7.705-7.568s7.705 3.126 7.705 7.568c0 4.278-3.279 7.568-7.705 7.568s-7.705-3.29-7.705-7.568Zm11.476 0c0-2.303-1.64-3.949-3.771-3.949-2.131 0-3.77 1.646-3.77 3.95 0 2.302 1.639 3.948 3.77 3.948 2.131 0 3.771-1.646 3.771-3.949Z" fill="#00003C"/>
	<path d="M347.465 61.795v3.62h-1.639c-2.131 0-2.951.987-2.951 3.29v7.404h-3.771V61.96h2.46l.655 1.81c.984-1.316 2.295-1.81 4.099-1.81h1.147v-.165Z" fill="#00003C"/>
	<path d="M370.58 67.06v8.885h-3.77v-8.227c0-1.974-.82-2.961-2.131-2.961-1.64 0-2.787 1.316-2.787 3.455v7.733h-3.771v-8.227c0-1.974-.656-2.961-2.131-2.961-1.803 0-2.787 1.316-2.787 3.455v7.733h-3.77v-14.15h2.623l.655 1.81c.984-1.316 2.623-2.139 4.263-2.139 1.803 0 3.278.823 4.098 2.304.984-1.317 2.623-2.304 4.426-2.304 2.951 0 5.082 2.304 5.082 5.594Z" fill="#00003C"/>
</svg>
