<svg xmlns="http://www.w3.org/2000/svg" xmlns:xlink="http://www.w3.org/1999/xlink" width="200" height="128">
	<defs>
		<linearGradient id="a" x1="43978.147" y1="58.062" x2="43996.245" y2="142.512" gradientTransform="matrix(-1 0 0 1 44064.809 -50.956)" gradientUnits="userSpaceOnUse">
			<stop offset=".384" stop-color="#faa100"/>
			<stop offset=".658" stop-color="#bf73f2"/>
			<stop offset=".665" stop-color="#c370e6"/>
			<stop offset=".685" stop-color="#cc68c7"/>
			<stop offset=".708" stop-color="#d461ab"/>
			<stop offset=".734" stop-color="#db5b95"/>
			<stop offset=".764" stop-color="#e05784"/>
			<stop offset=".802" stop-color="#e35479"/>
			<stop offset=".854" stop-color="#e55272"/>
			<stop offset="1" stop-color="#e65270"/>
		</linearGradient>
		<linearGradient id="e" x1="43967.933" y1="56.934" x2="43987.21" y2="146.89" xlink:href="#a"/>
		<linearGradient id="c" x1="43964.772" y1="62.641" x2="43965.919" y2="116.006" gradientTransform="matrix(-1 0 0 1 44064.809 -50.956)" gradientUnits="userSpaceOnUse">
			<stop offset="0" stop-color="#faa7b5"/>
			<stop offset=".384" stop-color="#faa100"/>
			<stop offset=".732" stop-color="#bf73f2"/>
		</linearGradient>
		<linearGradient id="b" x1="43979.007" y1="68.124" x2="43966.124" y2="90.319" gradientTransform="matrix(-1 0 0 1 44064.809 -50.956)" gradientUnits="userSpaceOnUse">
			<stop offset="0" stop-color="#f6e8a0"/>
			<stop offset="1" stop-color="#e65271"/>
		</linearGradient>
		<linearGradient id="f" x1="43976.743" y1="81.462" x2="43965.63" y2="100.601" xlink:href="#b"/>
		<linearGradient id="g" x1="43951.913" y1="67.318" x2="43953.194" y2="89.676" xlink:href="#b"/>
		<linearGradient id="h" x1="43953.119" y1="89.649" x2="43960.504" y2="56.928" gradientTransform="matrix(-1 0 0 1 44064.809 -50.956)" gradientUnits="userSpaceOnUse">
			<stop offset="0" stop-color="#e65271"/>
			<stop offset=".384" stop-color="#faa100"/>
		</linearGradient>
		<linearGradient id="i" x1="43978.746" y1="73.273" x2="43951.409" y2="96.559" xlink:href="#b"/>
		<linearGradient id="j" x1="43954.08" y1="89.551" x2="43980.649" y2="96.777" xlink:href="#c"/>
		<linearGradient id="k" x1="43883.351" y1="58.491" x2="44008.155" y2="125.408" xlink:href="#c"/>
		<linearGradient id="n" x1="43934.657" y1="116.136" x2="43941.659" y2="131.917" gradientTransform="matrix(-1 0 0 1 44064.809 -50.956)" gradientUnits="userSpaceOnUse">
			<stop offset=".004" stop-color="#faa7b5"/>
			<stop offset=".384" stop-color="#faa100"/>
		</linearGradient>
		<linearGradient id="o" x1="43981.275" y1="70.575" x2="43987.014" y2="114.184" xlink:href="#c"/>
		<linearGradient id="p" x1="43986.062" y1="69.943" x2="43991.801" y2="113.555" xlink:href="#c"/>
		<linearGradient id="q" x1="43994.493" y1="88.541" x2="43991.915" y2="118.888" xlink:href="#c"/>
		<linearGradient id="r" x1="43948.595" y1="62.989" x2="43949.742" y2="116.355" xlink:href="#c"/>
		<linearGradient id="s" x1="43937.788" y1="103.812" x2="43940.629" y2="108.499" xlink:href="#c"/>
		<radialGradient id="d" cx="87628.131" cy="-11488.935" r="9.455" gradientTransform="matrix(-.458 -.139 -.268 .883 37163.747 22347.192)" gradientUnits="userSpaceOnUse">
			<stop offset=".009" stop-color="#fff"/>
			<stop offset="1" stop-color="#fff" stop-opacity="0"/>
		</radialGradient>
		<radialGradient id="l" cx="78098.529" cy="-34853.818" r="14.781" gradientTransform="matrix(-.479 0 0 .479 37458.242 16720.733)" xlink:href="#d"/>
		<radialGradient id="m" cx="78098.534" cy="-34853.82" r="14.781" gradientTransform="matrix(-.479 0 0 .479 37458.242 16720.733)" xlink:href="#d"/>
		<clipPath id="t">
			<path fill="none" d="M124.441 54.206h.767v.895h-.767z"/>
		</clipPath>
		<symbol id="u" data-name="New Symbol 2" viewBox="0 0 6 7">
			<path d="M3 7a1 1 0 0 1-.53-.152L.47 5.6A1 1 0 0 1 0 4.75v-2.5a1 1 0 0 1 .47-.85l2-1.25a1 1 0 0 1 1.06 0l2 1.25a1 1 0 0 1 .47.85v2.5a1 1 0 0 1-.47.848l-2 1.25A1 1 0 0 1 3 7z" fill="#fff"/>
		</symbol>
	</defs>
	<path d="M108.971 83.185c-.86-.011-1.718-.013-2.577-.013H91.043a20.763 20.763 0 0 1-5.125-.646 22.072 22.072 0 0 1-14.311-11.21 21.545 21.545 0 0 1-2.54-9.2 22.208 22.208 0 0 1 .226-4.519c.027-.18.06-.361.093-.542l.073-.414.124.122a.384.384 0 0 1 .1.184c.062.2.12.406.178.609.121.422.247.86.394 1.279a29.758 29.758 0 0 0 5.02 8.838 1.142 1.142 0 0 1 .2.359 13.959 13.959 0 0 0 4.021 6.16 17.7 17.7 0 0 0 6.558 3.669 19.718 19.718 0 0 1-4.454-2.63 14.467 14.467 0 0 1-4.693-6.287 1.178 1.178 0 0 1-.045-.87 3.579 3.579 0 0 0 .1-.344c.02-.08.04-.16.065-.239a8.647 8.647 0 0 1 2.3-3.889 9.2 9.2 0 0 1 3.825-2.07 28.961 28.961 0 0 1 4.537-.826l.644-.082c.839-.11 1.69-.24 2.512-.367l.5-.076c.184-.028.367-.068.557-.11l.462-.1-.121.206a.219.219 0 0 1-.031.048 12.712 12.712 0 0 0-1.942 2.885.411.411 0 0 1-.225.2l-.331.109a8.9 8.9 0 0 1-1.079.309c-.395.079-.8.136-1.192.191-.314.044-.628.088-.94.145a5.164 5.164 0 0 0-2.478 1.04c.134-.032.274-.053.41-.072a3.134 3.134 0 0 0 .565-.117 9.964 9.964 0 0 1 3.346-.493h.177c.236 0 .471.013.71.025l.462.019-.035.113a14.319 14.319 0 0 0 .076 9 15.671 15.671 0 0 1-.234-5.554 11.751 11.751 0 0 1 3.532-6.906 17.1 17.1 0 0 1 5.046-3.263 31.266 31.266 0 0 1 5.46-1.71l.335-.082c1.264-.3 2.571-.618 3.837-.99a12.19 12.19 0 0 0 4.905-2.723 5.476 5.476 0 0 0 .616-.636 11.366 11.366 0 0 1 4.614-3.641.351.351 0 0 0 .148-.14 6.094 6.094 0 0 1 2.172-2.177 1.153 1.153 0 0 1 .574-.167 1.165 1.165 0 0 1 .707.268 2.367 2.367 0 0 1 .239.209 3.817 3.817 0 0 1 .77 1.182.123.123 0 0 0 .119.087c.221.029.448.059.674.1a8.267 8.267 0 0 1 6.716 7.422c.012.1.02.206.029.309a3.19 3.19 0 0 0 .112.722 6.054 6.054 0 0 0 .364.84c.059.12.12.243.175.366.048.1.1.209.148.314.117.247.237.5.337.758a1.868 1.868 0 0 1 .054 1.213c-.051.177-.158.2-.218.2a.279.279 0 0 1-.142-.046c-.1-.066-.2-.138-.291-.213-.045-.037-.091-.071-.137-.105s-.1-.078-.15-.119a2.643 2.643 0 0 0-.354-.252.3.3 0 0 0-.137-.038.245.245 0 0 0-.134.041l.174.156c.311.276.622.552.927.832a.349.349 0 0 1 .1.255 2.156 2.156 0 0 1-.6 1.424 1.909 1.909 0 0 1-1.385.65 1.831 1.831 0 0 1-.326-.03.362.362 0 0 1-.224.353 6.265 6.265 0 0 1-3.041.823h-.16a4.3 4.3 0 0 0-2.142.624 3.17 3.17 0 0 1-.711.3 9.136 9.136 0 0 1-1.916.268 6 6 0 0 0 .813.052c.184 0 .373-.007.577-.02l.118-.013a2.85 2.85 0 0 1 .258-.015.748.748 0 0 1 .284.046 20.44 20.44 0 0 1 1.546.734.507.507 0 0 0 .229.069.316.316 0 0 0 .107-.02l.143-.053c.268-.1.543-.206.808-.323a4.124 4.124 0 0 1 1.7-.41 3.229 3.229 0 0 1 .428.03 2.962 2.962 0 0 1 1.179.37.854.854 0 0 1 .466.677.176.176 0 0 0 .044.056c.047.042.1.083.144.124s.1.083.149.128a1.191 1.191 0 0 1 .393 1.032c-.012.115-.037.385-.268.385a.627.627 0 0 1-.266-.083.668.668 0 0 0-.131-.056c.113.068.222.138.329.211a.856.856 0 0 1 .368.789 1.7 1.7 0 0 1-1.654 1.485 1.416 1.416 0 0 1-.286-.031 1.035 1.035 0 0 1-.729-.472.081.081 0 0 0-.031-.024l-.14.006a2.6 2.6 0 0 0-.494.05l-.047.01a3.642 3.642 0 0 1-.829.124 1.679 1.679 0 0 1-.323-.03 6.236 6.236 0 0 1-.38-.086l-.093-.022a4.09 4.09 0 0 1-.7 1.331 5.925 5.925 0 0 1-2.928 1.969 9.272 9.272 0 0 1-2.9.448 11.8 11.8 0 0 1-1.668-.122 5.6 5.6 0 0 1-4.677-3.642 8.256 8.256 0 0 1-.333-1.084 17.107 17.107 0 0 0-.143-.526 11.261 11.261 0 0 0-1.029-2.453 7.244 7.244 0 0 0-2.924-2.94 6.594 6.594 0 0 0-3.105-.758 8.129 8.129 0 0 0-1.439.133c-.1.017-.2.039-.3.061.348.015.678.035 1.012.067a9.515 9.515 0 0 1 4.183 1.411 6.746 6.746 0 0 1 3.138 4.033 14.541 14.541 0 0 0 1.039 2.733 6.741 6.741 0 0 0 1.054 1.618 5.586 5.586 0 0 0 2.7 1.528c.321.091.64.189.957.291a.583.583 0 0 1 .374.374 2.584 2.584 0 0 1 .135 1.442 4.274 4.274 0 0 1-1.025 2 7.363 7.363 0 0 1-1.5 1.222 7.955 7.955 0 0 0-.736.556.753.753 0 0 0-.281.609c.016.375.044.389.115.389a1.143 1.143 0 0 0 .3-.07 2.5 2.5 0 0 0 .217-.085l.437-.189c.249-.107.5-.215.749-.319a4.163 4.163 0 0 1 1.6-.344 3.5 3.5 0 0 1 .821.1 2.438 2.438 0 0 1 1.886 1.707.753.753 0 0 1-.035.622.46.46 0 0 1-.344.211.487.487 0 0 1-.31-.2.314.314 0 0 1-.067-.177c0-.019-.007-.04-.012-.057a1.182 1.182 0 0 0-.384-.672 2.132 2.132 0 0 1 .438 1.418.9.9 0 0 1-.935.871h-.066a.331.331 0 0 1-.346-.3 3.513 3.513 0 0 1-.015-.369v-.35a3.149 3.149 0 0 0-.017-.405.662.662 0 0 0-.5-.566.216.216 0 0 0-.062-.015.558.558 0 0 1 .219.22 2.62 2.62 0 0 1 .25.579 1.009 1.009 0 0 1-.369 1.178 1.588 1.588 0 0 1-.657.206 1.782 1.782 0 0 1-.262.017 4.149 4.149 0 0 1-.948-.149l-.157-.038a3.619 3.619 0 0 0-.794-.1 3.657 3.657 0 0 0-.644.08l-.1.018a24.87 24.87 0 0 1-4.424.431z" fill="#e65270"/>
	<path d="M122.078 64.394a5.586 5.586 0 0 1-6.407 1.21c-3.693-1.488-2.346-5.584-2.346-5.584a5.983 5.983 0 0 0 2.565 3.5 11.7 11.7 0 0 0 6.188.874zm-11.698 1.213a3.086 3.086 0 0 1 .685 1.709 8.386 8.386 0 0 0 1.459 3.3 6.292 6.292 0 0 0 2.809 2.1c1 .386 2.3.272 2.105 1.768l-.336 1.26a6.036 6.036 0 0 1-5.955-3.721c-.859-2.236.153-4.939-2.451-8.72.204.252 1.417 2.031 1.684 2.304z" fill="#430a1d" opacity=".2" style="isolation:isolate"/>
	<path d="M109.363 64.5c.039.159.074.32.111.481a.569.569 0 0 1-.111-.481z" fill="#2b2b2b" opacity=".2"/>
	<path d="M79.437 74.268c-9.689-.958-10.829-10.6-10.829-10.6a25.913 25.913 0 0 1 .7-8.856c.789 7.978 7.189 13.5 7.189 13.5s1.408 4.546 2.94 5.956z" fill="url(#a)"/>
	<path d="M77.021 70.6s-2.032.193-4.743-3.1c2.613 4.743 6 4.839 6 4.839z" fill="#2b2b2b" opacity=".2" style="isolation:isolate"/>
	<path d="M82.257 76.132c-.508-8.919 4.728-4.78 7.431-9.51a15.356 15.356 0 0 1 3.04-6.756s-16.214-3.04-16.469 8.783c.565 2.56 3.046 5.036 4.6 6.375-.3-.685-4.175-11.336 8.716-10.468-4.45-.379-10.873 4.27-7.812 11.233.308.224.494.343.494.343z" fill="url(#e)"/>
	<path d="M86.64 63.27c-3.351 1.26-9.043 1.254-7.423 9.806-.26.2-1.555-1.814-1.232-1.619-1.485-7.645 5.203-7.203 8.655-8.187z" fill="#fff" opacity=".2" style="isolation:isolate"/>
	<path d="M90.884 60.207c3.259-1.289.613 2.366.15 2.951-1.07 1.353-3.777.913-5.22 1.365-.829.259-4.154.746-5.256 3.9a9.6 9.6 0 0 0 .369 6.45c-.258.2-1.973-1.682-1.649-1.489-2.75-12.294 10.227-7.884 11.606-13.177z" fill="#8b4fba" opacity=".6" style="isolation:isolate"/>
	<path d="M123.287 55.189a2.088 2.088 0 0 1 .431-.74 1.273 1.273 0 0 1 .129.046 2.388 2.388 0 0 1 1.22-.179 2.486 2.486 0 0 1 .817.024c.336.13.3.484.437.751.264.5 1.075.506 1.078 1.213a4.72 4.72 0 0 1 0 1.108c-.064.242-.334.168-.567.168-.7 0-1.408.02-2.114.02l-.977-.728c-.26.083-.464-.463-.5-.649a2.158 2.158 0 0 1 .046-1.034z" fill="#f9e0e7"/>
	<path d="M126.545 56.157a1.125 1.125 0 0 0 .369-.352c.053-.081.039-.133.152-.129.3.008.3.41.286.618-.018.266-.125.51-.164.771-.1-.024-.15-.145-.26-.176a1.035 1.035 0 0 0-.3-.009c-.132 0-.316.094-.435.043z" fill="#fff"/>
	<path d="m87.929 43.086.07-.082a8.192 8.192 0 0 0 2.347-4.436 4.388 4.388 0 0 0-.569-3.062.453.453 0 0 0-.042-.053c-.1.314-.192.622-.3.926a6.825 6.825 0 0 1-1.085 2.09c-.2.246-8.654 4.928-7.783 15.3 0 .064.016.125.025.2.156-.146.293-.3.45-.42a5.382 5.382 0 0 1 1.89-.91c1.24-.346 2.488-.663 3.739-.969a35.255 35.255 0 0 0 4.224-1.2 10.466 10.466 0 0 0 2.185-1.157 11.944 11.944 0 0 0 2.677-2.513 4.5 4.5 0 0 0 .852-1.664 4.085 4.085 0 0 1-.131 1.905 4.726 4.726 0 0 1-.969 1.682 1.617 1.617 0 0 0 .313-.1 8.941 8.941 0 0 0 3.071-2.7 4.947 4.947 0 0 0 .9-2.583.368.368 0 0 1 .011-.047 5.24 5.24 0 0 1-1.1 4.558c.464-.164.884-.328 1.313-.456a1.342 1.342 0 0 0 .786-.626 14.8 14.8 0 0 0 1.963-4.371 7.182 7.182 0 0 0 .039-3.665 6.068 6.068 0 0 0-2.352-3.294 10.944 10.944 0 0 0-2.575-1.382c-.055-.021-.111-.041-.165-.065-.009 0-.014-.013-.048-.052.317.087.6.161.881.245a11.814 11.814 0 0 1 3.676 1.708 5.565 5.565 0 0 1 2.13 2.818 6.03 6.03 0 0 1 .066 3.215 12.768 12.768 0 0 1-1.976 4.288 4.32 4.32 0 0 0-.08.124.155.155 0 0 0-.009.04.886.886 0 0 0 .093-.038 14.62 14.62 0 0 0 4.84-3.809 12.954 12.954 0 0 0 2.657-5.364 7.575 7.575 0 0 0-1.692-6.758 12.5 12.5 0 0 0-3.734-2.976 17.335 17.335 0 0 0-5.834-1.945 10.469 10.469 0 0 0-3.514.021 5 5 0 0 0-1.773.7c.091-.077.176-.158.271-.227a5.149 5.149 0 0 1 2.153-.895 12.239 12.239 0 0 1 3.867-.105 17.326 17.326 0 0 1 5.715 1.682c.177.089.352.18.547.28 0-.164-.01-.307 0-.449a.345.345 0 0 1 .3-.364.23.23 0 0 1 .292.2c.027.137.034.277.053.414a1.468 1.468 0 0 0 .405.808.393.393 0 0 0 .073.062c.012.01.029.009.075.018v-.319c0-.209-.012-.419-.007-.628 0-.052.038-.135.073-.145a.2.2 0 0 1 .169.051 1.15 1.15 0 0 1 .207.353c.082.272.12.557.2.827a1.677 1.677 0 0 0 .256.493c.122.159.246.124.292-.071s.059-.371.087-.556a1.177 1.177 0 0 1 .031-.19.774.774 0 0 1 .081-.142c.042.039.1.067.122.116a1.073 1.073 0 0 1 .09.338c.014.252-.01.505.008.756a.975.975 0 0 0 .12.391c.072.129.189.114.228-.03.058-.206.087-.419.128-.63l.094-.458a.637.637 0 0 1 .225.458c.043.411.064.824.1 1.236a1.72 1.72 0 0 0 .317.844c.331.48.624.988.921 1.492.152.258.293.281.436.016.161-.3.281-.625.418-.94.06-.138.109-.279.172-.415a1.579 1.579 0 0 1 .124-.191.4.4 0 0 1 .17.424c-.046.23-.131.453-.191.68-.064.248-.132.5-.171.748a.617.617 0 0 0 .077.322c.066.143.17.161.281.049s.2-.251.313-.366a1.285 1.285 0 0 1 .225-.159c.043.093.129.19.122.279a2.025 2.025 0 0 1-.131.558c-.142.359-.331.7-.452 1.065a3.87 3.87 0 0 0-.133.834.247.247 0 0 0 .1.21.273.273 0 0 0 .219-.091c.231-.253.448-.521.674-.781a1.723 1.723 0 0 1 .194-.167l.066.033a2.008 2.008 0 0 1-.069.442 4.134 4.134 0 0 1-.333.657c-.2.329-.44.637-.65.961a6.046 6.046 0 0 0-.808 1.951c-.117.5-.281.991-.426 1.484a.724.724 0 0 0-.041.188c.126-.2.25-.408.381-.609a3.6 3.6 0 0 1 1.015-1.089 3.4 3.4 0 0 1 .682-.354A34.408 34.408 0 0 0 116.8 36.1a7.135 7.135 0 0 0 .954-.595 1.013 1.013 0 0 0 .411-1.137l-.243-.993c-.2.316-.374.622-.574.908a1.918 1.918 0 0 1-.815.692 1.172 1.172 0 0 1 .059-.113 7.167 7.167 0 0 0 1.044-2.357.708.708 0 0 0-.018-.284 8.456 8.456 0 0 1-.028-1.834 1.9 1.9 0 0 0-.01-.369.207.207 0 0 0-.1-.146c-.032-.015-.117.029-.145.068a2.916 2.916 0 0 0-.331.514c-.32.743-.626 1.492-.931 2.24a9.606 9.606 0 0 1-1.462 2.62 3.438 3.438 0 0 1-1.044.874 1.641 1.641 0 0 1-.251.1 3.335 3.335 0 0 0 .81-2.351c.038-1.095.016-2.192.028-3.288a12.12 12.12 0 0 1 .462-3.5.231.231 0 0 0-.034-.157c-.1-.194-.226-.376-.308-.577-.173-.421-.319-.854-.489-1.278-.1-.249-.133-.267-.4-.248a.68.68 0 0 1-.611-.349c-.117-.154-.165-.15-.245.031-.087.2-.155.4-.249.594-.033.066-.116.109-.175.162-.046-.067-.122-.133-.13-.205-.024-.235-.018-.471-.035-.706a1.258 1.258 0 0 0-.063-.345.216.216 0 0 0-.155-.112c-.04 0-.111.066-.128.119-.058.167-.092.341-.145.509-.042.136-.1.15-.184.04a7.288 7.288 0 0 0-2.211-1.874c-.248-.148-.491-.3-.737-.454-.017.006-.034.012-.05.016l.095.817-.066.034a1.716 1.716 0 0 1-.232-.2c-.163-.193-.311-.4-.476-.59a2.228 2.228 0 0 0-1.135-.749c.126.429.245.835.363 1.243-.018.009-.039.017-.057.025a1.615 1.615 0 0 1-.123-.153c-.1-.156-.19-.311-.279-.471a2.239 2.239 0 0 0-1.724-1.188 21.156 21.156 0 0 0-1.569-.16 2.969 2.969 0 0 1-1.105-.252 7.758 7.758 0 0 0-.768-.274.434.434 0 0 0-.151.007.492.492 0 0 0 .014.165c.122.239.255.472.377.711a2.379 2.379 0 0 1 .11.272l-.035.039a1.813 1.813 0 0 1-.232-.08c-.338-.164-.681-.318-1.008-.5a2.5 2.5 0 0 0-1.061-.234 8.858 8.858 0 0 0-3.333.311 4.865 4.865 0 0 0-1.815.967c.068-.007.139-.007.2-.019a8.532 8.532 0 0 1 1.994-.24 2.735 2.735 0 0 1 1.316.322c.065.037.106.115.158.172a.683.683 0 0 1-.274.082c-.21-.025-.415-.1-.628-.12a5.518 5.518 0 0 0-1.967.272 13.45 13.45 0 0 0-4.274 2.089c-.32.227-.651.438-.983.649a5.139 5.139 0 0 0-1.581 1.584 1.237 1.237 0 0 0-.124.243.407.407 0 0 0 .2.548 2.177 2.177 0 0 0 .512.186 5.665 5.665 0 0 1 4.326 4.856 16.608 16.608 0 0 1 .181 2.684 8.51 8.51 0 0 1-2.227 5.415 11.453 11.453 0 0 1-2.857 2.259c-.015.007-.038.016-.1.049z" fill="url(#c)"/>
	<path d="M117.734 29.341c-.988 7.716-4.412 5.97-6.652 10.278-.123-.163-.406 1.154.159-1.291s2.185-1.343 3.717-4.143c1.942-3.538 1.554-3.855 2.776-4.844z" fill="#8b4fba" opacity=".2" style="isolation:isolate"/>
	<path d="M107.5 29.487c-.367 2.208-3.49 2.109-6.161 1.172-2.9-1.019-8.936-1.346-9.421-.131-.243.279-.729-.866-.729-.866s4.581-5 12.251.277c-.312-.486 2.756-1.907 2.756-1.907s.927-.281 1.304 1.455z" fill="#fff" opacity=".3" style="isolation:isolate"/>
	<path d="M91.613 50.691c.167.413 1.523.135 1.651-.51-2-2.267 3.267-6.433-1.592-11.87 3.179 8.389-3.591 8.73-.059 12.38z" fill="#8b4fba" opacity=".2" style="isolation:isolate"/>
	<path d="M91.613 50.691c.167.413.137.295.263-.35-2-2.268 3.33-5.574-.2-12.03 3.175 8.389-3.595 8.73-.063 12.38z" fill="#8b4fba" opacity=".6" style="isolation:isolate"/>
	<path d="M98.905 49.036c9.617-10.12-2.541-8.424-6.5-15.293.007-.118.015-.233.015-.354a5.856 5.856 0 0 0-.634-2.651c3.709 5.5 13.11.65 11.284 11.9-.17.573-1.476 6.271-4.165 6.398z" fill="url(#b)"/>
	<path d="M98.905 49.036c-3.959 1.943-7.421 2-7.257 1.424 7.866-5.338 1.516-10.839.036-16.02.1-.419.733-.574.733-1.049 0-.051-.006-.1-.007-.15a1.718 1.718 0 0 0 .645.954c3.657 3.688 15.279 4.921 5.85 14.841z" fill="url(#f)"/>
	<path d="M97.665 48.885c6.089-9.095-5.279-10.823-5.2-13.707-.905 5.931 9.992 8.47-.247 15.569-.16.576 1.487.082 5.447-1.862z" fill="#e65271"/>
	<path d="M114.681 33.086c.484.808-.053 1.761-.616 2.654-.52.825-1.776.555-2.628 2.544l.073-1.549c.944-1.645-.652-3.909-1.1-5.439-.756-2.606-1.579-5.011-.576-7.655.067-.178.125-.372.194-.555a6.179 6.179 0 0 1 1.308 1.3c.284.372.185-.961.559-.681.275.2-.014 1.146.249 1.364.293.248.47-1.187.682-.869.5.746.782.272.993.5.192.2.639 1.766.82 1.978s.345.417.512.63a14.632 14.632 0 0 1-.688 3.443 2.177 2.177 0 0 0 .218 2.335z" fill="url(#g)"/>
	<path d="M101.145 21.2a.214.214 0 0 0 .07.015c.266-.005-.719-1.243-.436-1.243.478 0 1.152.494 1.619.53a8.482 8.482 0 0 1 2.885.453c.837.384 1.209 1.576 1.4 1.626s-.456-1.377-.271-1.314a2.38 2.38 0 0 1 .77.433c.827 1.183 1.1 7.046-.118 6.894-1.274-.159 2.01.45 2.024.4a7.153 7.153 0 0 0-1.238-6.55 1.148 1.148 0 0 0 .385.386c.261.1-.163-1 .076-.854.758.464 1.3.791 1.738 1.12.013.019.017.065.039.056.326-.136 2.334-.608.806 6.608 2.321-4.7.5-6.541.682-6.349.824.89.993 3.063 1.1 4.351a8.072 8.072 0 0 1-1.645 4.875c-.7.641-.681-.153-.941-.765a10.712 10.712 0 0 0-1.924-2.647 22.932 22.932 0 0 0-1.756-1.619 25.21 25.21 0 0 1-1.537-2.1c-.508-.589-1.132-1.059-1.614-1.675-.542-.689-.9-1.477-1.5-2.111a5.06 5.06 0 0 0-.614-.52z" fill="#e65271"/>
	<path d="M105.6 20.545c1.418 0 2.31.675 3.483 1.325.973.541 2.169.546 2.99 1.291a5.139 5.139 0 0 1 1.77 3.424 17.892 17.892 0 0 1-.05 5.4 7.827 7.827 0 0 1-1.393 3.195l-.759-.483c-1.5-3.866-6.009-5.452-7.717-9.251a9.982 9.982 0 0 1-.7-3.793c-.024-1.279 1.339-1.104 2.376-1.108z" fill="url(#h)"/>
	<path d="M91.478 30.205a5.892 5.892 0 0 0-3.666-2.567c-.39-.087-1.09-.33-.4-1.164a7.207 7.207 0 0 1 2.378-2.024c2.3-1.71 1.35-1.884 2.694-2.04.525-.061.386-.106.653 0s-.2-.075-.374-.186c-1.5-.992-1.39.987-.747.56a14.8 14.8 0 0 1 7.584-2.313c.18.031 1.425.75 1.616.747.267 0-.717-1.242-.434-1.242.476 0 1.152.493 1.619.529a4.87 4.87 0 0 1 3.885 4.973 14.012 14.012 0 0 1-.086 2.552c-1.074 5.192-11.926-2.094-14.722 2.175z" fill="#f6e8a0"/>
	<path d="M104.469 27.005c-.5-.628-3.772-1.761-3.772-1.761s-5.428-1.87-10.434 3.457c2.558-2.031 7.055-1.179 10.307-.8.429.05-.929-.383-.573-.515 1.207-.447 2.326.806 3.53.564a1.02 1.02 0 0 0 .942-.945z" fill="#fff"/>
	<path d="M100.305 26.125a9.325 9.325 0 0 0-4.37.267c.181-.271.475-.9 1.951-1.113a12.662 12.662 0 0 1 1.377 0 3.257 3.257 0 0 1 1.6.424 4.087 4.087 0 0 0 1.5.314s3.056.23 2.044 1.266-2.487-1.336-5.725-.577a2.081 2.081 0 0 1 1.623-.581z" fill="#f6e8a0"/>
	<path d="M97.284 21.829c-1.26-.834-3.463-.118-3.748-.122-.007-.029.011-.062.062-.094 1.92-1.484 4.762-1.352 6-1.139a.173.173 0 0 1 .037.01l.023.009c.268.1 1.145.6 1.464.705 1.868 1.059 4.818 3.294 5.078 6.835a11.881 11.881 0 0 1-2.41-1.379c-.2-.151-4.661-4.816-16.475.789a.44.44 0 0 1-.141-.6c2.668-4.287 7.539-5.519 15.3-1.459a8.16 8.16 0 0 0-5.19-3.555z" fill="#f8d285"/>
	<path d="M104.836 45.924c4.375-4.475 6.158-7.818 4.04-11.418-3.43-5.835-13.994.252-18.588-5.635a10.711 10.711 0 0 0 2.523 2.2c3.4 2.224 9.815 1.509 11.857 3.229 2.632 2.211 3.3 6.673.168 11.624z" fill="url(#i)"/>
	<path d="M90.58 36.571A16.91 16.91 0 0 1 91.154 39c-.921 3.4-4.916 5.072-4.916 5.072s-4.473 1.8-5.184 10.029c-.816.586-.7-.663-.677-1.219.507-10.79 9.485-9.582 10.203-16.311z" fill="url(#j)"/>
	<path d="M105.8 54.4a1.472 1.472 0 0 0-.222-.1c-.391-.109-.786-.21-1.179-.322-.124-.035-.242-.092-.364-.138v-.078a2.586 2.586 0 0 1 .422-.072c.564-.006 1.128 0 1.692 0a8.008 8.008 0 0 0 2.366-.234 5.663 5.663 0 0 0 1.085-.478 17.082 17.082 0 0 0 7.742-8.832 15.991 15.991 0 0 0 .745-2.429c.012-.046.016-.093.03-.173-.06.037-.1.055-.135.078a19.071 19.071 0 0 1-7.3 3.057 18.372 18.372 0 0 1-2.867.3.325.325 0 0 0-.211.079 17.9 17.9 0 0 1-4.977 3.457 18.19 18.19 0 0 1-4.6 1.466c-2.038.4-4.082.772-6.121 1.164a56.119 56.119 0 0 0-7.416 1.835 18.936 18.936 0 0 0-4.384 2.035 8.147 8.147 0 0 0-2.58 2.53c-.226.374-.387.787-.582 1.181a.756.756 0 0 1-.128.2 5.516 5.516 0 0 0-1.675 4.791 9.536 9.536 0 0 0 1.359 3.826c.084.139.154.284.22.407.033-.3.06-.638.107-.972a6.213 6.213 0 0 1 3.253-4.762 12.292 12.292 0 0 1 3.457-1.291c1.324-.292 2.661-.538 4-.78a39.141 39.141 0 0 0 4.829-1.035c.306-.1.61-.208.911-.322a4.4 4.4 0 0 0 1.088-.584 15.731 15.731 0 0 1 3.633-1.958l.1-.042a.147.147 0 0 1 .007-.026h-.058c-1.444 0-2.891.008-4.334 0a28.137 28.137 0 0 0-3.862.2 22.926 22.926 0 0 0-5.163 1.331 36.191 36.191 0 0 0-5.65 2.8.472.472 0 0 1-.163.069c.034-.028.065-.058.1-.083a26.416 26.416 0 0 1 6.411-3.695 19.7 19.7 0 0 1 5.023-1.219 25.847 25.847 0 0 1 4.571-.035q1.977.144 3.955.283a1 1 0 0 0 .348-.04 26.386 26.386 0 0 1 3.985-.822c.8-.112 1.58-.3 2.369-.46a.887.887 0 0 0 .155-.06z" fill="url(#k)"/>
	<path d="M81.526 58.848c5.165-6.169 18.564-2.935 24.274-4.444a11.547 11.547 0 0 1-6.556 1.718s-12.338-1.363-17.718 2.726z" fill="#fff" opacity=".2" style="isolation:isolate"/>
	<path d="M121.014 35.437a3.382 3.382 0 0 0-.422.076 10.261 10.261 0 0 0-1.387.464 6 6 0 0 0-1.158.777c-.7.567-1.364 1.17-2.052 1.744a5.456 5.456 0 0 1-1.873 1.108 5.392 5.392 0 0 1-.708.149A5.321 5.321 0 0 0 115.4 37.6a.5.5 0 0 0-.075.012A24.1 24.1 0 0 0 111.264 40a2.533 2.533 0 0 0-.79.944c-.3.632-.686 1.227-1.034 1.836l-.074.127c.3-.065.571-.107.834-.174a15.035 15.035 0 0 0 3.151-1.285 40.975 40.975 0 0 0 4.546-2.779.513.513 0 0 1 .147-.077.411.411 0 0 1-.039.054 18.436 18.436 0 0 1-5.947 4.092 10.8 10.8 0 0 1-3.059.792.2.2 0 0 0-.113.045c-.236.286-.466.574-.727.9.647-.139 1.255-.26 1.859-.4a26.194 26.194 0 0 0 4.932-1.611 11.51 11.51 0 0 0 3.223-2.045 9.992 9.992 0 0 0 2.682-4.188 6.891 6.891 0 0 0 .159-.794z" fill="#e65271"/>
	<path d="M91.76 51.139c.5-.168 1.073-.377 1.683-.611 7.186-2.24 9.562-4.109 9.562-4.109l7.219-5.345a2.206 2.206 0 0 0 2.707-.278c-1.04 1.249-4.234 2.221-4.234 2.221a2.914 2.914 0 0 1-1.188 1.746c2.841-.965 7.615-.688 10.927-3.671-2.505 7.084-8.726 1.684-14.738 6.09-.693.417-9.862 2.76-5.306 2.6s7.559 2.95 11.365 1.93c-3.572 1.3-6.73-.78-11.706-1.129a4.251 4.251 0 0 1 2.286 1.164 9.422 9.422 0 0 0-6.173-1.052 22.02 22.02 0 0 0-2.404.444z" fill="#8b4fba" opacity=".6" style="isolation:isolate"/>
	<path d="M109 53.325c-5.236 2.08-23.743-3.945-32.053 5.4 0 0-.622-.279 2.687-3.988 13.01-6.218 22.694-.337 29.366-1.412z" fill="#2b2b2b" opacity=".2" style="isolation:isolate"/>
	<path d="M117.1 45.039c1.549-.872.29 1.258-1.258 2.516-6.1 4.259-8.858-.587-14.906 1.745 9.25-5.1 10.157 1.256 16.164-4.261z" opacity=".7" fill="url(#d)" style="isolation:isolate"/>
	<path d="M116.621 46.248c1.55-.871.765.05-.783 1.309-6.1 4.259-8.858-.588-14.906 1.745 5.954-3.314 9.688 2.463 15.689-3.054z" fill="#8b4fba" opacity=".2" style="isolation:isolate"/>
	<path d="M86.511 43.964C83.69 46.546 85.9 52.2 85.9 52.2l-2.008.43s-2.024-5.466 2.619-8.666z" opacity=".7" fill="url(#l)" style="isolation:isolate"/>
	<path d="M91.381 39.632c2.126 3.784-3.513 8.99-.485 10.833-.048.248-1.732 1.093-1.653.848-3.737-5.734 2.426-7.1 1.617-10.687-4.321 5.9-4.368 7.063-2.268 10.8-.026.021-.256.322-.486.15-3.284-2.465-4.206-5.232 3.275-11.944z" opacity=".7" fill="url(#m)" style="isolation:isolate"/>
	<path d="M98.329 47.323c.135 1.772 1.373-1.107 1.56-3.094.162-7.437-7.378-5.638-7.723-11.654-.733 6.844 7.425 6.693 6.163 14.748z" fill="#8b4fba" opacity=".2" style="isolation:isolate"/>
	<path d="M105.64 44.373c.133 1.772 3.692-2.789 3.88-4.776-1.194-12.759-14.327-5-17.76-9.7 2.84 5.15 21.192-2.014 13.88 14.476z" fill="#fff" opacity=".3" style="isolation:isolate"/>
	<path d="M129.668 69.217c-.193.169-.351.323-.525.457a2.818 2.818 0 0 1-.451.278 1.214 1.214 0 0 1-1.158 0 3.21 3.21 0 0 0-1.916-.272.476.476 0 0 0-.407.291 5.653 5.653 0 0 1-3.151 2.8.353.353 0 0 0-.261.31 3.259 3.259 0 0 0 0 1.294 2.587 2.587 0 0 0 1.179 1.571 6.345 6.345 0 0 0 1.984.811 10.5 10.5 0 0 0 2.561.346 4.5 4.5 0 0 0 1.3-.18 2.4 2.4 0 0 0 1.749-1.879 16.144 16.144 0 0 0 .335-1.883 4.958 4.958 0 0 0-1.2-3.868.829.829 0 0 1-.039-.076z" fill="url(#n)"/>
	<path d="M126.925 69.324c.071.435.889.554 1.269.541a2.089 2.089 0 0 0 1.534-.918 1.6 1.6 0 0 0 .172-.247 2.492 2.492 0 0 1 1.063 2.253c-.206 1.469-2.014 2.427-4.038 2.142a4.051 4.051 0 0 1-3.033-1.861c.37-.473.515-1.074 1-1.483a3.316 3.316 0 0 1 2.033-.427z" fill="#f6e8a0" opacity=".3" style="isolation:isolate"/>
	<path d="M77.723 55.517a1.267 1.267 0 0 0 1.014.165 21.159 21.159 0 0 1-.42-4.8 12.7 12.7 0 0 1 1.155-5.15 4.088 4.088 0 0 1 .349-.6.859.859 0 0 1-.026.094 10.389 10.389 0 0 0-.679 3.3 19.044 19.044 0 0 0 .49 5.229c.009.042.021.082.039.143.25-.167.493-.328.73-.5.028-.021.029-.1.023-.147a14.053 14.053 0 0 1 0-3.136 17.708 17.708 0 0 1 1.056-4.336 23.721 23.721 0 0 1 2.937-5.479c.029-.039.057-.078.084-.118a.236.236 0 0 0 .013-.053c-.176.063-.341.119-.507.179a26.154 26.154 0 0 0-3.262 1.413 2.314 2.314 0 0 0-.464.315 8.663 8.663 0 0 0-2.75 4.9c-.058.286-.1.578-.18.865.018-.319.027-.64.054-.959a17.85 17.85 0 0 1 .929-4.448 1.973 1.973 0 0 0-.016-1.038 1.2 1.2 0 0 0-.143-.307 1.447 1.447 0 0 0-.242.24 8.5 8.5 0 0 0-.914 2.158 24.422 24.422 0 0 0-.71 3.531 23.543 23.543 0 0 0-.249 3.355 10.206 10.206 0 0 0 .471 3.351 4.558 4.558 0 0 0 .771 1.422 5.9 5.9 0 0 0 .417.42z" fill="url(#o)"/>
	<path d="M82.878 40.17s-2.826.4-4.018 2.342a15.348 15.348 0 0 0-1.535 5.288s-.61 4.983 1.412 7.885c-1.281-10.646 4.141-15.515 4.141-15.515z" fill="#2b2b2b" opacity=".2" style="isolation:isolate"/>
	<path d="M77.723 55.517h-.03a3.239 3.239 0 0 1-1.411-1.112 5.841 5.841 0 0 1-1-2.418 13.865 13.865 0 0 1-.173-3.916c.064-.748.173-1.494.264-2.238 0-.027 0-.053.006-.107-.045.04-.078.062-.1.089a21.779 21.779 0 0 0-4.851 7.75.449.449 0 0 0 0 .259 24.708 24.708 0 0 0 2.681 5.73c.475.759 1 1.487 1.5 2.229.04.059.086.111.158.2.018-.373.217-.675.063-1.04a3.347 3.347 0 0 1-.3-1.472.95.95 0 0 1 .189-.546 2.421 2.421 0 0 0 .527 1.024.515.515 0 0 0 .048-.451 4.974 4.974 0 0 1-.306-1.879 2.946 2.946 0 0 1 .111-.593 3.959 3.959 0 0 0 .811 1.274.511.511 0 0 0 .049-.071 11.1 11.1 0 0 1 1.721-2.558.407.407 0 0 0 .043-.154z" fill="url(#p)"/>
	<path d="M75.536 58.009s-3.178-6.221-1.691-11.562c.185-.147-.3.23-.873.892-.088.1-1.154 7.154 1.01 10.264-2.908-3.449-1.531-9.612-1.654-9.432a5.519 5.519 0 0 0-.648 1.251 11.746 11.746 0 0 0 3.652 11.156z" fill="#2b2b2b" opacity=".2" style="isolation:isolate"/>
	<path d="M124.176 80.4c-.131.2-.283.4-.4.621a.807.807 0 0 0-.06.656.462.462 0 0 0 .569.347 5.96 5.96 0 0 1 .7-.079c.25-.008.267.026.3.268a.636.636 0 0 0 .039.189.654.654 0 0 0 .511.483.629.629 0 0 0 .607-.324.98.98 0 0 0-.682-1.55 4.691 4.691 0 0 0-.72.013c-.046 0-.093.01-.138.014l-.035-.042a.951.951 0 0 1 .2-.224.912.912 0 0 1 .57-.113 5.035 5.035 0 0 0 3.627-.781 4.575 4.575 0 0 0 1.405-1.655l.009-.014c.043-.119.131-.265.013-.356a.43.43 0 0 0-.329 0c-.483.159-.953.36-1.443.494a6.848 6.848 0 0 1-2.193.162 9.71 9.71 0 0 1-2.913-.564 8.439 8.439 0 0 1-2.827-1.723 2.325 2.325 0 0 0-.3-.247c-.179-.12-.3-.061-.309.157a1.856 1.856 0 0 0 .045.463 4.862 4.862 0 0 0 2.662 3.331c.353.196.741.329 1.092.474z" fill="#e65270"/>
	<path d="M69.472 51.8a20.4 20.4 0 0 0 5.44 14.44c-.052-.376-.121-.753-.153-1.128a56.29 56.29 0 0 1-.118-1.93.606.606 0 0 0-.113-.339 41.218 41.218 0 0 1-3.683-6.3 15.6 15.6 0 0 1-1.194-3.51c-.076-.397-.119-.798-.179-1.233z" fill="url(#q)"/>
	<path d="M114.811 33.574a11.407 11.407 0 0 0 1.594-3.561 2.766 2.766 0 0 0 .015-.675 9.582 9.582 0 0 1 .465-3.682.981.981 0 0 0 .077-.326.448.448 0 0 0-.108-.264c-.076-.09-.18-.058-.278 0a2 2 0 0 0-.723.741 5.97 5.97 0 0 0-.707 1.975 24.242 24.242 0 0 0-.361 5.725.531.531 0 0 0 .026.067z" fill="url(#r)"/>
	<path d="M115.2 26.249a4.466 4.466 0 0 1 .817-.981l.449-.287a9.533 9.533 0 0 0-.613 3.551c0 1.034.318 1.994.369 3.022a3.034 3.034 0 0 1-.769 1.963c-.2.311-.469.982-.9.985a4.541 4.541 0 0 1-.172-1.629c-.006-.627-.106-1.239-.082-1.873a25.8 25.8 0 0 1 .901-4.751z" fill="#8b4fba" opacity=".4" style="isolation:isolate"/>
	<path d="m130.677 75.8-.028.022a2.729 2.729 0 0 1-2.408 1.532 9.788 9.788 0 0 1-4.978-.9 3.016 3.016 0 0 1-1.555-1.435 7.707 7.707 0 0 1-.309-.95.851.851 0 0 0-.782.707.767.767 0 0 0 .095.365 3.3 3.3 0 0 0 .95 1.1 8.318 8.318 0 0 0 3.326 1.587 8.96 8.96 0 0 0 4.786-.08 6.189 6.189 0 0 0 1.079-.49.665.665 0 0 0 .366-.712.89.89 0 0 0-.542-.746z" fill="#e65270"/>
	<path d="m130.677 75.8-.028.022a2.729 2.729 0 0 1-2.408 1.532 9.788 9.788 0 0 1-4.978-.9 3.016 3.016 0 0 1-1.555-1.435 7.707 7.707 0 0 1-.309-.95.851.851 0 0 0-.782.707.767.767 0 0 0 .095.365 3.3 3.3 0 0 0 .95 1.1 8.318 8.318 0 0 0 3.326 1.587 8.96 8.96 0 0 0 4.786-.08 6.189 6.189 0 0 0 1.079-.49.665.665 0 0 0 .366-.712.89.89 0 0 0-.542-.746z" fill="#2b2b2b" opacity=".4" style="isolation:isolate"/>
	<path d="M113.257 59.847a3.829 3.829 0 0 0 .386 1.76 4.777 4.777 0 0 0 2.553 2.318 6.769 6.769 0 0 0 3.056.5.415.415 0 0 0 .072-.02 9.477 9.477 0 0 1-2.09-.563 7.048 7.048 0 0 1-2.953-2.087 5.634 5.634 0 0 1-.958-1.739c-.023-.055-.043-.116-.066-.169zm8.618-8.887a2.308 2.308 0 0 0 .653-3.254 4.871 4.871 0 0 1-.653 3.254zm1.874 6.393a2.83 2.83 0 0 0 1.92.569c.279-.007.556-.053.834-.066a1.8 1.8 0 0 1 .457.035c.281.064.406.021.5-.249a4.23 4.23 0 0 0 .246-1.9 3.178 3.178 0 0 0-.224-.915 2.183 2.183 0 0 0-3.04-.98 2.71 2.71 0 0 0-.4.275c-.132.107-.251.232-.389.36.062.071.113.139.17.2a.492.492 0 0 1 .141.474 1.038 1.038 0 0 0 .589 1.218 6.466 6.466 0 0 0 1.068.436 4.407 4.407 0 0 0 .58.15.182.182 0 0 0 .133-.049 1.578 1.578 0 0 0 .632-.764 1.442 1.442 0 0 1-.006.749 1.092 1.092 0 0 0 .062.609.09.09 0 0 0-.016.019q-.053-.025-.1-.054a2.978 2.978 0 0 0-1.227-.358 3.346 3.346 0 0 1-1.5-.494 1.876 1.876 0 0 1-.867-1.538c0-.02 0-.039-.012-.093a1.717 1.717 0 0 0 .449 2.366z" fill="#0d0d0d"/>
	<path d="M124.468 55.282a1.083 1.083 0 1 0 1.082-1.082 1.083 1.083 0 0 0-1.082 1.082z" fill="url(#s)"/>
	<g clip-path="url(#t)">
		<use width="6" height="7" transform="matrix(-.128 0 0 .128 125.208 54.206)" xlink:href="#u"/>
	</g>
	<path d="M129.311 73.535a.439.439 0 0 0 .6-.143 2.98 2.98 0 0 0-.032-2.775.438.438 0 0 0-.778.4 2.109 2.109 0 0 1 .064 1.916.444.444 0 0 0 .146.602z" fill="#fff"/>
	<path d="M82.279 76.064c-.274-7.832 4.555-5.284 6.7-8.591a2.4 2.4 0 0 0 .357-.616c-2.407 1.328-9.165.443-7.057 9.207z" fill="#430a1d" opacity=".2" style="isolation:isolate"/>
	<path d="M78.6 60.8c6.631-5.709 19.722-5.086 20.68-5-5.491 3.916-21.965.235-22.568 12.156A6.415 6.415 0 0 1 78.6 60.8z" fill="#2b2b2b" opacity=".2" style="isolation:isolate"/>
	<path d="M89.2 67.168v2.953c0 1.222-1.536.556-2.129-1.122a4.33 4.33 0 0 0 2.129-1.831z" fill="#430a1d" opacity=".2" style="isolation:isolate"/>
	<path d="M88.38 67.748a3.232 3.232 0 0 0-.207-3.728c.63-.033 1.843-1.216 2.132-1.611a4.2 4.2 0 0 0 .516-2.246 11.858 11.858 0 0 0 2.341-.783 8.991 8.991 0 0 0-2.053 2.291 17.976 17.976 0 0 0-.943 2.5 18.235 18.235 0 0 0-.523 2.048 7.18 7.18 0 0 0-.346 1.727s-.114 4.558.8 6.809a5.606 5.606 0 0 1-2.953-2.548c-.358-.619-1.029-2.156-.2-3.136a3.155 3.155 0 0 0 1.436-1.323z" fill="#430a1d" opacity=".2" style="isolation:isolate"/>
	<path d="M72.167 73.67a23.165 23.165 0 0 0 13.939 9.23 25.428 25.428 0 0 0 5.872.562c4.842-.021 9.684-.009 14.527-.009q4.886 0 9.771-.009a6.909 6.909 0 0 0 2.289-.31 2.558 2.558 0 0 0 1.6-1.419 2.608 2.608 0 0 0-.9-3.059 3.619 3.619 0 0 0-2.38-.63c-.231.011-.461.047-.69.07a.5.5 0 0 1-.159.007 1.608 1.608 0 0 1-.216-.08.782.782 0 0 1 .124-.176 5.4 5.4 0 0 0 1.787-2.808 3.61 3.61 0 0 0 .1-1.246c0-.033 0-.066-.007-.1-.008-.217.067-.285.281-.3.633-.029 1.265-.054 1.9-.1.3-.024.6-.1.94-.119-.04.052-.069.129-.122.153a1.812 1.812 0 0 0-1 1.141 5.429 5.429 0 0 0-.3 1.883 4.483 4.483 0 0 0 1.112 2.741 6.486 6.486 0 0 0 2.159 1.654c.107.052.135.1.1.218a1.612 1.612 0 0 0 .02 1.036.835.835 0 0 0 .4.467 1.59 1.59 0 0 0 1.414.078c.013.068.025.145.041.211.138.522.474.729.982 1.034h.355c.014 0 .028-.038.042-.04a1.467 1.467 0 0 0 1.166-1.75c-.027-.2-.085-.4-.124-.576.406-.106.824-.189 1.222-.329a5.274 5.274 0 0 0 3.57-3.775 1.887 1.887 0 0 0-.51-2 .259.259 0 0 1-.031-.186c.115-.715.291-1.425.337-2.145a5.694 5.694 0 0 0-1.613-4.453.215.215 0 0 1-.056-.225c.078-.383.168-.765.215-1.152a2.411 2.411 0 0 0-.722-1.992.53.53 0 0 1-.119-.166 1.592 1.592 0 0 0-.844-.929 4.01 4.01 0 0 0-2.525-.341 6.191 6.191 0 0 0-1.615.583.534.534 0 0 1-.649-.023c-.036-.031-.093-.038-.127-.068-.058-.055-.156-.132-.145-.178a.3.3 0 0 1 .172-.181 3.393 3.393 0 0 1 1.257-.245 8.447 8.447 0 0 0 .981-.048 7.279 7.279 0 0 0 2.873-1.03.552.552 0 0 1 .193-.076 2.746 2.746 0 0 0 2.277-2.227.907.907 0 0 1 .077-.34 2.614 2.614 0 0 0 .246-2.379c-.179-.52-.427-1.019-.623-1.533a3.261 3.261 0 0 1-.239-.848 13.261 13.261 0 0 0-.4-2.411 8.218 8.218 0 0 0-7.321-6.231.32.32 0 0 1-.3-.218 3.171 3.171 0 0 0-1.918-1.794.913.913 0 0 0-.691 0 5.772 5.772 0 0 0-.919.49 6.784 6.784 0 0 0-1.812 1.946c-.038.057-.08.132-.137.151a.321.321 0 0 1-.248-.007c-.044-.031-.055-.154-.037-.226a.785.785 0 0 1 .136-.234 15.068 15.068 0 0 0 2.484-6.144.424.424 0 0 1 .115-.2c.317-.322.643-.633.957-.958a3.857 3.857 0 0 0 .974-1.841 3.488 3.488 0 0 0 .075-.556c0-.057-.051-.117-.079-.175-.061.035-.139.056-.176.106-.086.117-.146.251-.225.372-.052.08-.121.148-.182.225a.112.112 0 0 1 0-.094 10.9 10.9 0 0 0 .684-2.659 7.672 7.672 0 0 0 .06-.771c0-.187-.119-.3-.244-.255a.588.588 0 0 0-.176.134 8.017 8.017 0 0 1-1.7 1.213c-.013-.018-.023-.026-.024-.036-.016-.09-.033-.179-.046-.269a20.685 20.685 0 0 0-.764-3.109 5.123 5.123 0 0 1-.25-2.4 1.828 1.828 0 0 1 .671-1.244.848.848 0 0 0 .089-.1.525.525 0 0 0-.112-.056 1.255 1.255 0 0 0-1.556.634c-.039.077-.09.146-.159.262a1.915 1.915 0 0 1-.175-.359 5.407 5.407 0 0 1-.1-1.65 5.592 5.592 0 0 1 .6-1.924 3.3 3.3 0 0 0 .2-.491.38.38 0 0 0-.4-.524 1.431 1.431 0 0 0-.471.083 3.256 3.256 0 0 0-1.778 1.555l-.1.193a2.775 2.775 0 0 1-.751-1.012 5.8 5.8 0 0 0-.353-.758c-.093-.175-.164-.172-.278-.012-.031.043-.058.09-.092.132-.089.106-.157.106-.225-.014a2.091 2.091 0 0 1-.15-.335 3.108 3.108 0 0 0-1-1.379c-.031-.024-.067-.042-.14-.087.027.174.049.31.066.446l.053.425a.258.258 0 0 1-.063-.009 2.616 2.616 0 0 1-.134-.09 17.872 17.872 0 0 0-6.087-2.7 6.2 6.2 0 0 1-1.976-.6.362.362 0 0 0-.045-.02.249.249 0 0 0-.3.072.371.371 0 0 1-.249.083c-.269-.006-.537-.066-.8-.088a4.642 4.642 0 0 1-.735-.135c-.405-.1-.8-.5-1.2-.5h-.29c-.093 0-.2.267-.278.36-.132.165-.294.358-.5.371a22.424 22.424 0 0 0-4.055.616 16.191 16.191 0 0 0-5.643 2.513 10.354 10.354 0 0 0-3.078 3.317 8.383 8.383 0 0 0-.4.859.983.983 0 0 0-.038.7.357.357 0 0 0 .407.269 3.842 3.842 0 0 1 2.93.864 5.291 5.291 0 0 1 1.9 2.447 3.721 3.721 0 0 1-.791 4.008c-.105.12-.225.228-.353.357-.049-.181-.089-.346-.136-.51a5.414 5.414 0 0 0-1.149-2.19c-.334-.367-.873-.576-.377-.557.458.016-.165.008-.222 0 .571.392.132.625.216 1.289a4.259 4.259 0 0 1-1.236 3.648.6.6 0 0 1-.235.132c-1.036.367-2.079.716-3.11 1.1a31.552 31.552 0 0 0-5.3 2.521l-.072.039a.463.463 0 0 1-.218-.428c.009-.229.046-.458.073-.686 0-.028.012-.053.014-.08.054-.4-.1-.535-.474-.354a1.547 1.547 0 0 0-.492.4 6.591 6.591 0 0 0-.949 1.729c-.135.322-.241.655-.378.976a.851.851 0 0 1-.225.318 25.614 25.614 0 0 0-3.966 4.109 22.831 22.831 0 0 0-2.511 4.212c-.017.039-.037.077-.056.116a.259.259 0 0 1-.037.032 14.628 14.628 0 0 1-.137-3.936c-.105.392-.222.781-.312 1.176a16.165 16.165 0 0 0-.379 4.834.751.751 0 0 1-.04.252 22.2 22.2 0 0 0 3.186 19.862zm-1.322-17.129a41.122 41.122 0 0 0 3.683 6.305.612.612 0 0 1 .113.34c.031.644.065 1.287.118 1.929.032.378.1.754.153 1.128a20.4 20.4 0 0 1-5.44-14.443c.062.43.1.832.179 1.226a15.609 15.609 0 0 0 1.194 3.515zm13.643-16.412a.2.2 0 0 1-.014.052c-.026.04-.055.079-.083.119a23.68 23.68 0 0 0-2.938 5.475 17.787 17.787 0 0 0-1.053 4.336 14.122 14.122 0 0 0 0 3.137c.006.049.006.126-.023.147-.237.169-.481.33-.73.5-.016-.06-.029-.1-.039-.143a19.006 19.006 0 0 1-.49-5.229 10.456 10.456 0 0 1 .679-3.3.659.659 0 0 0 .026-.094 4.2 4.2 0 0 0-.349.6 12.722 12.722 0 0 0-1.155 5.15 21.17 21.17 0 0 0 .421 4.805 1.271 1.271 0 0 1-1.015-.166c-.013.053-.012.12-.042.156a11.139 11.139 0 0 0-1.721 2.557.776.776 0 0 1-.049.071 3.992 3.992 0 0 1-.808-1.266 2.933 2.933 0 0 0-.111.593 4.971 4.971 0 0 0 .306 1.879.515.515 0 0 1-.048.451 2.415 2.415 0 0 1-.527-1.024.952.952 0 0 0-.189.546 3.347 3.347 0 0 0 .3 1.472c.154.364-.044.667-.063 1.041-.072-.095-.119-.147-.158-.206-.5-.742-1.027-1.469-1.5-2.229a24.708 24.708 0 0 1-2.681-5.73.449.449 0 0 1 0-.259 21.765 21.765 0 0 1 4.851-7.75c.026-.027.059-.049.1-.089 0 .054 0 .08-.006.107-.091.746-.2 1.491-.264 2.238a13.79 13.79 0 0 0 .173 3.916 5.862 5.862 0 0 0 1 2.418 3.237 3.237 0 0 0 1.412 1.112 5.709 5.709 0 0 1-.418-.42 4.542 4.542 0 0 1-.771-1.423 10.166 10.166 0 0 1-.471-3.35 23.128 23.128 0 0 1 .25-3.356 24.49 24.49 0 0 1 .71-3.53 8.465 8.465 0 0 1 .914-2.158 1.533 1.533 0 0 1 .242-.241 1.348 1.348 0 0 1 .143.307 1.957 1.957 0 0 1 .015 1.039 17.8 17.8 0 0 0-.928 4.448c-.028.319-.036.64-.054.959.08-.288.121-.579.181-.865a8.646 8.646 0 0 1 2.75-4.9 2.347 2.347 0 0 1 .462-.316 26.463 26.463 0 0 1 3.263-1.412c.158-.057.322-.114.5-.175zm32.476-14.8a.959.959 0 0 1-.078.326 9.551 9.551 0 0 0-.465 3.683 2.868 2.868 0 0 1-.014.675 11.443 11.443 0 0 1-1.595 3.561.6.6 0 0 1-.025-.067 24.409 24.409 0 0 1 .361-5.725 6.015 6.015 0 0 1 .707-1.975 2.017 2.017 0 0 1 .724-.741c.1-.055.2-.088.278 0a.472.472 0 0 1 .107.264zm.793 10.183a7.028 7.028 0 0 1-.954.594 35.112 35.112 0 0 1-3.642 1.462 3.342 3.342 0 0 0-.682.353 3.587 3.587 0 0 0-1.015 1.091c-.131.2-.254.405-.381.608a.825.825 0 0 1 .041-.189c.145-.494.309-.983.426-1.484a6.057 6.057 0 0 1 .808-1.95c.21-.324.445-.633.65-.962a4.043 4.043 0 0 0 .333-.656 2.008 2.008 0 0 0 .069-.443c-.022-.011-.043-.022-.066-.032a1.715 1.715 0 0 0-.194.166c-.225.259-.442.526-.674.781a.27.27 0 0 1-.219.091.246.246 0 0 1-.1-.21 3.87 3.87 0 0 1 .133-.834c.12-.364.31-.7.452-1.066a2.017 2.017 0 0 0 .131-.558c.007-.089-.079-.185-.122-.278a1.3 1.3 0 0 0-.225.159c-.111.116-.2.252-.313.366s-.216.093-.281-.049a.611.611 0 0 1-.077-.321c.039-.253.107-.5.171-.75.06-.226.145-.45.191-.678a.394.394 0 0 0-.17-.424 1.359 1.359 0 0 0-.124.189c-.063.137-.114.279-.172.415-.137.314-.257.639-.418.94-.143.265-.283.242-.436-.016-.3-.5-.59-1.01-.921-1.491a1.723 1.723 0 0 1-.317-.844c-.037-.411-.057-.825-.1-1.237a.644.644 0 0 0-.225-.457c-.036.173-.066.316-.094.459-.041.209-.07.423-.128.628-.039.145-.156.16-.228.031a.964.964 0 0 1-.12-.391c-.017-.251.006-.5-.008-.757a1.08 1.08 0 0 0-.09-.338c-.018-.046-.08-.077-.122-.116a.809.809 0 0 0-.081.142 1.2 1.2 0 0 0-.031.19c-.028.186-.043.376-.087.557s-.17.229-.292.07a1.661 1.661 0 0 1-.256-.492c-.086-.271-.122-.554-.2-.828a1.2 1.2 0 0 0-.207-.353.193.193 0 0 0-.169-.05c-.036.009-.072.093-.073.145-.005.208 0 .418.007.627v.319a.377.377 0 0 1-.075-.016.441.441 0 0 1-.073-.063 1.472 1.472 0 0 1-.405-.808c-.019-.139-.026-.279-.053-.415a.23.23 0 0 0-.292-.2c-.172.02-.281.145-.3.364-.012.143 0 .285 0 .449-.2-.1-.37-.193-.547-.28a17.326 17.326 0 0 0-5.715-1.682 12.21 12.21 0 0 0-3.867.105 5.162 5.162 0 0 0-2.153.895c-.094.069-.18.151-.271.227a5 5 0 0 1 1.773-.7 10.522 10.522 0 0 1 3.514-.022 17.3 17.3 0 0 1 5.834 1.947 12.5 12.5 0 0 1 3.734 2.975c.078.093.151.19.225.285-2.12-1.012-4.515.893-6.91.047 3.282 1.693 5.226-.487 7.077.923.471.359.555 1.284-.521 1.129-1.027-.147 1.547.362 2.009 3.037a8.585 8.585 0 0 1-.188 1.336 12.918 12.918 0 0 1-2.657 5.364 14.639 14.639 0 0 1-4.839 3.809.369.369 0 0 0-.094.028.185.185 0 0 1 .009-.04l.079-.122a12.71 12.71 0 0 0 1.976-4.288 6.011 6.011 0 0 0-.066-3.215 5.554 5.554 0 0 0-2.13-2.818 11.816 11.816 0 0 0-3.676-1.709c-.279-.083-.564-.157-.881-.244.036.038.04.049.049.052.053.023.109.044.164.065a10.911 10.911 0 0 1 2.575 1.383 6.043 6.043 0 0 1 2.352 3.293 7.2 7.2 0 0 1-.038 3.664 14.773 14.773 0 0 1-1.963 4.371 1.342 1.342 0 0 1-.787.625c-.428.128-.848.292-1.312.456a5.239 5.239 0 0 0 1.1-4.557.313.313 0 0 0-.011.048 4.949 4.949 0 0 1-.9 2.582 8.951 8.951 0 0 1-3.071 2.7 1.691 1.691 0 0 1-.313.1 4.663 4.663 0 0 0 .969-1.683 4.1 4.1 0 0 0 .13-1.906 4.5 4.5 0 0 1-.852 1.666 11.915 11.915 0 0 1-2.676 2.511 10.434 10.434 0 0 1-2.188 1.157 34.745 34.745 0 0 1-4.225 1.2c-1.249.306-2.5.623-3.739.97a5.347 5.347 0 0 0-1.89.91 5.56 5.56 0 0 1-.3-1.643c-.082-7.4 5.809-11.36 7.6-13.432a6.249 6.249 0 0 0 1.085-2.09c.107-.3.2-.611.3-.925a.557.557 0 0 1 .041.053 4.412 4.412 0 0 1 .57 3.062A8.2 8.2 0 0 1 88 43c-.014.013-.025.031-.069.081.063-.032.085-.04.106-.054a11.471 11.471 0 0 0 2.857-2.259 8.5 8.5 0 0 0 2.226-5.416 16.483 16.483 0 0 0-.18-2.683 5.662 5.662 0 0 0-4.327-4.856 2.254 2.254 0 0 1-.51-.186.407.407 0 0 1-.2-.549 1.232 1.232 0 0 1 .123-.243 5.167 5.167 0 0 1 1.583-1.584c.331-.21.661-.42.981-.648a13.424 13.424 0 0 1 4.275-2.089 5.586 5.586 0 0 1 1.968-.273c.211.019.417.1.627.122a.753.753 0 0 0 .275-.078.746.746 0 0 0-.157-.172 2.761 2.761 0 0 0-1.316-.322 8.508 8.508 0 0 0-2 .24 1.938 1.938 0 0 1-.2.019 4.848 4.848 0 0 1 1.814-.967 8.816 8.816 0 0 1 3.333-.311 2.47 2.47 0 0 1 1.061.234c.326.184.67.339 1.008.5a1.978 1.978 0 0 0 .232.079l.035-.038a2.308 2.308 0 0 0-.11-.272c-.121-.239-.254-.472-.377-.711a.47.47 0 0 1-.015-.166.464.464 0 0 1 .152-.006 7.148 7.148 0 0 1 .771.278 2.963 2.963 0 0 0 1.1.251c.524.037 1.049.086 1.57.161a2.243 2.243 0 0 1 1.724 1.187c.089.16.182.316.278.472a1.633 1.633 0 0 0 .123.152c.018-.008.039-.015.057-.025l-.363-1.242a2.209 2.209 0 0 1 1.134.749c.166.192.313.4.477.589a2.094 2.094 0 0 0 .231.2c.022-.012.044-.021.066-.034l-.095-.817a.432.432 0 0 1 .051-.016c.246.15.49.3.736.454a7.316 7.316 0 0 1 2.212 1.874c.081.111.141.095.184-.039.052-.169.087-.343.144-.51.017-.051.088-.12.129-.118a.216.216 0 0 1 .154.112 1.238 1.238 0 0 1 .063.345c.016.235.01.471.035.7.008.072.085.139.13.206.06-.054.144-.1.174-.163.094-.193.164-.4.251-.593s.127-.185.244-.031a.681.681 0 0 0 .612.349c.267-.021.3 0 .4.248.169.424.314.856.488 1.277.083.2.209.384.309.577a.246.246 0 0 1 .034.157 12.087 12.087 0 0 0-.464 3.5c-.011 1.1.012 2.193-.026 3.288a3.337 3.337 0 0 1-.811 2.351 1.632 1.632 0 0 0 .252-.1 3.431 3.431 0 0 0 1.043-.874 9.659 9.659 0 0 0 1.462-2.62c.3-.749.611-1.5.931-2.239a3.037 3.037 0 0 1 .33-.515c.029-.039.113-.084.146-.068a.214.214 0 0 1 .1.147 1.97 1.97 0 0 1 .011.368 8.519 8.519 0 0 0 .027 1.834.711.711 0 0 1 .019.284 7.133 7.133 0 0 1-1.045 2.358c-.015.022-.026.049-.058.112a1.937 1.937 0 0 0 .815-.692c.2-.287.375-.591.573-.908l.244.993a1.022 1.022 0 0 1-.41 1.152zm.416 4.906a11.539 11.539 0 0 1-3.223 2.045 26.125 26.125 0 0 1-4.932 1.612c-.6.14-1.212.261-1.859.4.26-.322.49-.611.727-.9a.183.183 0 0 1 .113-.045 10.822 10.822 0 0 0 3.059-.793 18.458 18.458 0 0 0 5.947-4.092.336.336 0 0 0 .039-.054.525.525 0 0 0-.147.077 41.321 41.321 0 0 1-4.546 2.78 15.086 15.086 0 0 1-3.151 1.284c-.262.067-.529.112-.834.174l.074-.127c.348-.609.731-1.2 1.034-1.835a2.528 2.528 0 0 1 .79-.945 24.126 24.126 0 0 1 4.061-2.39c.014 0 .029 0 .075-.012a5.33 5.33 0 0 1-1.986 2.155 5.562 5.562 0 0 0 .708-.15A5.422 5.422 0 0 0 116 38.5c.688-.574 1.354-1.178 2.052-1.744a6.091 6.091 0 0 1 1.158-.777 9.942 9.942 0 0 1 1.387-.463 3.22 3.22 0 0 1 .422-.077 6.954 6.954 0 0 1-.159.794 9.988 9.988 0 0 1-2.687 4.186zM109.6 52.983a5.66 5.66 0 0 1-1.085.477 8 8 0 0 1-2.365.235c-.564 0-1.129-.008-1.692 0a2.55 2.55 0 0 0-.422.072v.078c.122.046.24.1.364.138.393.112.788.213 1.179.322a1.568 1.568 0 0 1 .222.1l-.008.045a.978.978 0 0 1-.155.061c-.789.157-1.573.348-2.369.461a26.286 26.286 0 0 0-3.985.821 1 1 0 0 1-.348.042q-1.977-.138-3.954-.283a25.668 25.668 0 0 0-4.572.035 19.547 19.547 0 0 0-5.022 1.219 26.393 26.393 0 0 0-6.419 3.684c-.034.025-.066.056-.1.083a.471.471 0 0 0 .163-.068 36.186 36.186 0 0 1 5.649-2.8 23 23 0 0 1 5.164-1.331 27.981 27.981 0 0 1 3.861-.2c1.444.008 2.891 0 4.334 0 .019 0 .038 0 .059.005l-.009.021-.1.042a15.713 15.713 0 0 0-3.636 1.958 4.391 4.391 0 0 1-1.087.584c-.3.114-.6.225-.911.321a38.738 38.738 0 0 1-4.829 1.035c-1.337.241-2.672.489-4 .781a12.29 12.29 0 0 0-3.456 1.291 6.215 6.215 0 0 0-3.253 4.762c-.047.334-.073.672-.107.971-.065-.12-.135-.267-.219-.406a9.521 9.521 0 0 1-1.352-3.827 5.515 5.515 0 0 1 1.674-4.791.728.728 0 0 0 .129-.2c.194-.394.355-.808.581-1.181a8.14 8.14 0 0 1 2.581-2.53 18.914 18.914 0 0 1 4.384-2.035 55.963 55.963 0 0 1 7.416-1.835c2.04-.391 4.083-.768 6.122-1.164a18.081 18.081 0 0 0 4.6-1.465 17.875 17.875 0 0 0 4.976-3.458.332.332 0 0 1 .212-.078 18.241 18.241 0 0 0 2.866-.3 19.082 19.082 0 0 0 7.3-3.056c.037-.024.075-.041.135-.078-.013.079-.019.127-.03.173a16.058 16.058 0 0 1-.745 2.428 17.081 17.081 0 0 1-7.741 8.841zm21.312 20.175a16.335 16.335 0 0 1-.335 1.884 2.394 2.394 0 0 1-1.749 1.878 4.494 4.494 0 0 1-1.3.181 10.547 10.547 0 0 1-2.561-.346 6.3 6.3 0 0 1-1.984-.812 2.589 2.589 0 0 1-1.179-1.57 3.264 3.264 0 0 1 0-1.3.35.35 0 0 1 .261-.309 5.646 5.646 0 0 0 3.151-2.8.476.476 0 0 1 .407-.292 3.2 3.2 0 0 1 1.916.273 1.216 1.216 0 0 0 1.158 0 2.753 2.753 0 0 0 .451-.279c.174-.133.332-.287.525-.456a.689.689 0 0 0 .044.074 4.963 4.963 0 0 1 1.197 3.874zm-10.236 2.828a2.245 2.245 0 0 1 .3.247 8.453 8.453 0 0 0 2.827 1.722 9.685 9.685 0 0 0 2.913.564 6.877 6.877 0 0 0 2.193-.162c.49-.133.96-.335 1.443-.494a.431.431 0 0 1 .329 0c.118.091.03.236-.013.356l-.009.014a4.575 4.575 0 0 1-1.405 1.655 5.035 5.035 0 0 1-3.627.781.686.686 0 0 0-.766.337l.035.042c.045 0 .092-.013.138-.014a4.567 4.567 0 0 1 .72-.013.98.98 0 0 1 .682 1.55.63.63 0 0 1-.607.324.654.654 0 0 1-.511-.483.706.706 0 0 1-.039-.189c-.029-.242-.046-.276-.3-.268a5.984 5.984 0 0 0-.7.079.462.462 0 0 1-.569-.346.806.806 0 0 1 .06-.656c.12-.22.273-.421.4-.622-.352-.147-.739-.28-1.1-.467a4.852 4.852 0 0 1-2.662-3.331 1.718 1.718 0 0 1-.046-.463c.015-.225.138-.283.316-.163zm.719-1.923a8.061 8.061 0 0 0 .309.95 3.022 3.022 0 0 0 1.556 1.435 9.778 9.778 0 0 0 4.978.9 2.728 2.728 0 0 0 2.408-1.532l.027-.021a.892.892 0 0 1 .544.745.668.668 0 0 1-.367.711 6.044 6.044 0 0 1-1.079.49 8.964 8.964 0 0 1-4.787.081 8.3 8.3 0 0 1-3.325-1.588 3.279 3.279 0 0 1-.95-1.1.783.783 0 0 1-.1-.365.854.854 0 0 1 .791-.706zM71.085 66a16.991 16.991 0 0 1-1.957-4.976 22.328 22.328 0 0 1 .255-3.4c.04-.262.092-.522.137-.784a.311.311 0 0 1 .079.146c.19.631.355 1.271.572 1.893a30.032 30.032 0 0 0 5.035 8.865 1.072 1.072 0 0 1 .184.332 14.034 14.034 0 0 0 2 3.934 6.879 6.879 0 0 1-3.375-2.067c1.609 3.1 5.421 4.333 5.421 4.333a17.9 17.9 0 0 0 7.323 3.9c.221.061.444.109.667.162a.436.436 0 0 0-.158-.088 19.681 19.681 0 0 1-5.607-3.08A14.3 14.3 0 0 1 77 68.918a1.087 1.087 0 0 1-.045-.806c.071-.191.108-.394.167-.589a8.581 8.581 0 0 1 2.278-3.849 9.11 9.11 0 0 1 3.788-2.051 33.715 33.715 0 0 1 5.165-.9c1.006-.131 2.007-.29 3.01-.443.27-.04.536-.107.823-.166a.681.681 0 0 1-.039.064 12.812 12.812 0 0 0-1.955 2.9.313.313 0 0 1-.172.152 13.562 13.562 0 0 1-1.4.415c-.7.14-1.427.2-2.132.333-3.78.75-4.945 2.776-4.928 2.758A7.6 7.6 0 0 1 85.032 65a10.207 10.207 0 0 1 3.491-.488c.348.005.694.025 1.052.039a14.279 14.279 0 0 0 .518 10.2.75.75 0 0 0-.028-.183 16.2 16.2 0 0 1-.471-6.526 11.6 11.6 0 0 1 3.5-6.853 17.027 17.027 0 0 1 5.02-3.246 31.4 31.4 0 0 1 5.444-1.707c1.4-.336 2.8-.666 4.176-1.072a12.255 12.255 0 0 0 4.94-2.743 5.4 5.4 0 0 0 .626-.649 11.382 11.382 0 0 1 4.462-3.56 3.888 3.888 0 0 1 .622-1.2 7.46 7.46 0 0 1 1.569-1.509 1.5 1.5 0 0 1 .594-.234c.225-.047.36.062.438.28a1.365 1.365 0 0 1 .046.186 1.249 1.249 0 0 1 .357.2 2.46 2.46 0 0 1 .23.2 3.735 3.735 0 0 1 .751 1.155.212.212 0 0 0 .191.141c.223.029.447.06.667.1a8.147 8.147 0 0 1 6.642 7.341 5.489 5.489 0 0 0 .144 1.049 11.239 11.239 0 0 0 .544 1.216c.163.355.342.7.484 1.068a1.771 1.771 0 0 1 .05 1.155c-.04.134-.118.17-.223.1-.147-.093-.28-.21-.421-.315a4.772 4.772 0 0 0-.516-.375.348.348 0 0 0-.456.089c.031.023.057.042.08.063.369.329.739.654 1.1.989a.26.26 0 0 1 .071.182 2.063 2.063 0 0 1-.574 1.364 1.753 1.753 0 0 1-1.728.575c-.017.259-.036.3-.184.383a6.171 6.171 0 0 1-3.1.811 4.4 4.4 0 0 0-2.249.636 3.082 3.082 0 0 1-.69.294 9.961 9.961 0 0 1-2.315.279c-.064 0-.126 0-.191.008a.213.213 0 0 0 .12.068 6.192 6.192 0 0 0 1.891.121 1.449 1.449 0 0 1 .617.013c.526.213 1.035.469 1.54.729a.481.481 0 0 0 .411.055c.321-.12.643-.239.956-.379a3.776 3.776 0 0 1 2.08-.372 2.894 2.894 0 0 1 1.143.357.758.758 0 0 1 .424.608.211.211 0 0 0 .073.116c.094.087.2.166.293.252a1.1 1.1 0 0 1 .364.957c-.03.318-.124.37-.4.23a.356.356 0 0 0-.412-.016c.177.113.351.215.516.329a.769.769 0 0 1 .329.712 1.589 1.589 0 0 1-1.829 1.366.943.943 0 0 1-.671-.429.152.152 0 0 0-.114-.068 4 4 0 0 0-.649.058 2.82 2.82 0 0 1-1.161.1c-.182-.035-.362-.085-.551-.128a4.011 4.011 0 0 1-.715 1.384 5.875 5.875 0 0 1-2.886 1.938 9.85 9.85 0 0 1-4.526.321 5.52 5.52 0 0 1-4.606-3.585 16.505 16.505 0 0 1-.473-1.6 11.441 11.441 0 0 0-1.037-2.474 7.374 7.374 0 0 0-2.961-2.975 6.969 6.969 0 0 0-4.6-.635c-.3.054-.6.132-.939.207.585.035 1.124.047 1.657.1a9.406 9.406 0 0 1 4.143 1.4 6.673 6.673 0 0 1 3.1 3.98 14.419 14.419 0 0 0 1.045 2.749 6.74 6.74 0 0 0 1.069 1.64 5.737 5.737 0 0 0 2.739 1.554c.32.089.638.188.954.29a.5.5 0 0 1 .316.32 2.469 2.469 0 0 1 .13 1.391 4.185 4.185 0 0 1-1 1.953 7.265 7.265 0 0 1-1.484 1.206 7.757 7.757 0 0 0-.744.562.837.837 0 0 0-.314.682c.022.485.051.562.534.4.075-.025.15-.055.225-.087.395-.17.787-.343 1.184-.509a3.745 3.745 0 0 1 2.363-.241 2.35 2.35 0 0 1 1.819 1.646.667.667 0 0 1-.026.547.376.376 0 0 1-.262.166c-.082 0-.179-.091-.246-.164-.041-.046-.04-.131-.059-.2a1.172 1.172 0 0 0-.587-.825 1.314 1.314 0 0 0-.208-.062 2.146 2.146 0 0 1 .669 1.654.811.811 0 0 1-.9.781.243.243 0 0 1-.261-.215c-.019-.17-.012-.342-.015-.513a5.16 5.16 0 0 0-.019-.61.754.754 0 0 0-.561-.641.558.558 0 0 0-.439.049.648.648 0 0 1 .488.286 2.5 2.5 0 0 1 .242.558.921.921 0 0 1-.331 1.078 1.492 1.492 0 0 1-.619.192 3.653 3.653 0 0 1-1.335-.167 3.68 3.68 0 0 0-.808-.1 4.416 4.416 0 0 0-.764.1 24.419 24.419 0 0 1-4.647.141c-1.693-.021-3.386-.011-5.079-.012H94.8c-1.252 0-2.5.012-3.755 0a20.557 20.557 0 0 1-5.1-.643 21.51 21.51 0 0 1-14.259-10.874 21.143 21.143 0 0 1-2.45-8.126C69.2 62.808 71.1 66.344 71.085 66z" fill="#0d0d0d"/>
	<path d="M120.8 51.006a2.36 2.36 0 0 1 .049-2.693c.445-.812 1.628-.09 1.468-1a3.988 3.988 0 0 0-1.046-1.842c-.188-.223-.293-.442-.571-.386a1.808 1.808 0 0 0-.7.327 9.309 9.309 0 0 0-1.936 1.861c-.981 1.309-.576 2.1.572 3.147a4.054 4.054 0 0 0 2.164.586z" fill="#e65270"/>
	<path d="M119.738 46.689a6.821 6.821 0 0 1 1.183-.914c.244-.161-.484 1.823-.7 2.352a4.263 4.263 0 0 0-.035 2.677 3.282 3.282 0 0 1-1.391-1.945 3.471 3.471 0 0 1 .943-2.17z" fill="#2b2b2b" opacity=".2" style="isolation:isolate"/>
	<path d="M120.581 50.9a2.359 2.359 0 0 1 .051-2.693 3.758 3.758 0 0 0 .49-2.538 1.92 1.92 0 0 0-.07-.3c-.1-.273-.262-.407-.54-.349a1.885 1.885 0 0 0-.731.289 9.3 9.3 0 0 0-1.935 1.861 1.764 1.764 0 0 0-.1 2.45.567.567 0 0 0 .474.251c.272.051.328-.328.241-.481a2.634 2.634 0 0 1-.355-.985 2.735 2.735 0 0 1 .79-1.938 5.6 5.6 0 0 1 1.908-1.389 4.934 4.934 0 0 1-.358 2.2c-.237.656-.958 1.851-.776 2.631a2.491 2.491 0 0 0 .522.9c.268.179.389.091.389.091z" fill="#0d0d0d"/>
	<path d="M88.173 64.02a.372.372 0 0 1-.2-.033.45.45 0 0 1 .2.033z" fill="#8b4fba" opacity=".2"/>
	<path d="M121.034 73.55a10.9 10.9 0 0 1 2.117-2.013c.753-.708 1.332-1.562 2.081-2.256a12.532 12.532 0 0 0 1.852.054c.431 1.064 2.523.051 2.715-.635l.277.416c.6 1.188-1.56 1.268-2.792 1.144-.864-.086-4.6.895-4.474 5.708-.419.645-1.41.015-1.411.856 0 .861.014 2.379.757 2.927-.213.751-.953-.043-1.156-.344a8.748 8.748 0 0 1-1.257-2.663c-.25-1.363.609-2.158 1.291-3.194z" fill="#430a1d" opacity=".2" style="isolation:isolate"/>
	<path d="M76.3 92.727h10.5v2.528h-7.6v4.459h7.171v2.436H79.2V109h-2.9V92.727zm13.078-1.1h2.758V109h-2.757zm5.769 2.6a1.589 1.589 0 0 1 .494-1.161 1.7 1.7 0 0 1 1.253-.494 1.824 1.824 0 0 1 1.275.471 1.611 1.611 0 0 1 0 2.367 1.818 1.818 0 0 1-1.275.471 1.7 1.7 0 0 1-1.253-.494 1.582 1.582 0 0 1-.493-1.166zm.391 3.746H98.3V109h-2.761zm6.113 0h2.62v1.77h.047a3.565 3.565 0 0 1 1.275-1.459 3.664 3.664 0 0 1 2.149-.632 4.152 4.152 0 0 1 1.851.379 3.654 3.654 0 0 1 1.264 1 4.048 4.048 0 0 1 .724 1.424 6.013 6.013 0 0 1 .23 1.655V109h-2.758v-6.114a7.809 7.809 0 0 0-.069-1.011 2.742 2.742 0 0 0-.3-.954 1.986 1.986 0 0 0-.632-.7 1.856 1.856 0 0 0-1.069-.276 2.362 2.362 0 0 0-1.149.265 2.444 2.444 0 0 0-.793.677 3 3 0 0 0-.471.954 3.819 3.819 0 0 0-.16 1.092V109h-2.759V97.967zm13.423-6.343h2.758v10.98h.069l4.183-4.643h3.539l-4.78 4.988 5.08 6.045h-3.654l-4.367-5.655h-.069V109h-2.758V91.624z"/>
</svg>
