<svg xmlns="http://www.w3.org/2000/svg" width="200" height="128">
	<path fill="#333" d="M46.219 52.554h4.929v26.058h-4.929zm55.99 7.073-5.546 18.986h-5.532l-3.959-12.686-3.959 12.686h-5.532l-5.546-18.986h5.012l3.677 12.702 4.215-12.702h4.266l4.215 12.702 3.677-12.702h5.012zm13.444-7.073v8.305a6.52 6.52 0 0 0-4.767-1.6c-5.488 0-9.389 4.156-9.436 9.762v.131c0 5.459 3.56 9.94 8.946 9.94a7.889 7.889 0 0 0 5.257-1.783v1.308h4.991V52.554zm0 19.929a5.082 5.082 0 0 1-4.208 2.219c-3.544 0-4.861-3.139-4.861-5.62 0-1.944 1.317-5.364 4.861-5.364a5.32 5.32 0 0 1 4.208 2.137zm6.161-3.325a9.94 9.94 0 0 1 19.879 0 9.94 9.94 0 0 1-19.879 0zm14.812 0c0-3.133-1.917-5.462-4.872-5.462s-4.873 2.329-4.873 5.462 1.917 5.461 4.873 5.461 4.872-2.328 4.872-5.461zm-83.694 0a9.6 9.6 0 0 1 9.939-9.9 9.9 9.9 0 1 1 0 19.805 9.51 9.51 0 0 1-9.939-9.905zm14.812 0c0-3.133-1.917-5.462-4.873-5.462S58 66.025 58 69.158s1.917 5.461 4.872 5.461 4.872-2.328 4.872-5.461zm75.445-.075c0-5.621 4.086-9.828 10.471-9.828a8.917 8.917 0 0 1 6.964 3.433l-3.176 2.972a4.7 4.7 0 0 0-3.788-1.972 5.281 5.281 0 0 0-5.384 5.395c0 2 .917 5.626 5.384 5.626a4.682 4.682 0 0 0 3.788-2.068l3.176 3.062a8.323 8.323 0 0 1-6.924 3.357c-6.527 0-10.511-3.847-10.511-9.977zm25.627 2.335-2.244 2.311v4.884h-4.965V52.554h4.965v15.605l7.361-8.532h6.016l-7.632 8.687L180 78.613h-6.21zm-67.366-2.27v-.066a.726.726 0 0 0 0 .066zm0-.131v.065-.065z"/>
	<path d="M31.84 70.236v8.527a15.143 15.143 0 0 1-10.91-9.534 68.718 68.718 0 0 0 10.91 1.007z" fill="#0997e0"/>
	<path d="M31.84 63.9v6.334a68.718 68.718 0 0 1-10.91-1.007 14.75 14.75 0 0 1-.629-2.214C24.533 64.366 31.84 63.9 31.84 63.9z" fill="#48d2f8"/>
	<path d="M31.84 58.323V63.9s-7.307.464-11.539 3.113A15.21 15.21 0 0 1 20 64a15.054 15.054 0 0 1 1.949-7.43 47.909 47.909 0 0 0 9.891 1.753z" fill="#ffe256"/>
	<path d="M38.92 49.36c-4.891.01-7.08 3.773-7.08 7.5v1.461a47.909 47.909 0 0 1-9.891-1.753A15.141 15.141 0 0 1 38.92 49.36z" fill="#ee6e2a"/>
	<path d="M37.925 58.347h4.505v4.746h-4.505v15.768q-.511.1-1.035.158a15.389 15.389 0 0 1-1.768.1 14.752 14.752 0 0 1-1.757-.1q-.432-.048-.853-.123V56.862c0-2.812 1.512-6.83 6.428-6.83a7.445 7.445 0 0 1 5.829 2.629L42.4 55.59a3.227 3.227 0 0 0-2.41-.805 2.009 2.009 0 0 0-2.064 2.166z" fill="#333"/>
</svg>
