<svg xmlns="http://www.w3.org/2000/svg" width="200" height="128">
	<defs>
		<linearGradient id="a" x1="21.454" y1="55.135" x2="41.833" y2="55.135" gradientUnits="userSpaceOnUse">
			<stop offset="0" stop-color="#266ab2"/>
			<stop offset=".015" stop-color="#256bb2"/>
			<stop offset="1" stop-color="#008aab"/>
		</linearGradient>
		<linearGradient id="b" x1="24.839" y1="69.689" x2="54.408" y2="75.436" gradientUnits="userSpaceOnUse">
			<stop offset="0" stop-color="#8fc652"/>
			<stop offset=".069" stop-color="#84c359"/>
			<stop offset=".711" stop-color="#26a99b"/>
			<stop offset=".999" stop-color="#009eb5"/>
		</linearGradient>
		<linearGradient id="c" x1="39.787" y1="61.886" x2="62.72" y2="61.886" gradientUnits="userSpaceOnUse">
			<stop offset="0" stop-color="#00afbc"/>
			<stop offset="1" stop-color="#00b3b6"/>
		</linearGradient>
		<linearGradient id="d" x1="48.255" y1="55.764" x2="78.524" y2="52.048" gradientUnits="userSpaceOnUse">
			<stop offset="0" stop-color="#4e5ba8"/>
			<stop offset=".582" stop-color="#1f95d4"/>
			<stop offset="1" stop-color="#00bbf0"/>
		</linearGradient>
	</defs>
	<path d="M72.793 69.9c0-1.495 1.081-2.112 2.486-2.041h1.931v-2.3l-1.921-.02A4.334 4.334 0 0 0 70.63 69.9v1.436h-1.577v2.082h1.577v12.771h2.156V73.413h3.282v-2.082h-3.282V69.9zm69.037 10.79c.006 1.365.542 3.154 2.927 3.221h.92v2.278l-1.162-.011a4.971 4.971 0 0 1-4.848-4.853v-8.731l-2.2.293v-2.226h2.2v-5.336h2.156v5.336h3.277v2.226h-3.281s0 5.562.011 7.803z" fill="#171c1d"/>
	<path d="M175.683 80.69c.006 1.365.542 3.154 2.927 3.221h.92v2.278l-1.162-.011a4.971 4.971 0 0 1-4.848-4.853v-8.731l-2.2.293v-2.226h2.2v-5.336h2.156v5.336h3.282v2.226h-3.282s-.004 5.562.007 7.803z" fill="#00b297"/>
	<path fill="#171c1d" d="M81.424 65.624h2.265v20.565h-2.265z"/>
	<path fill="#00b297" d="M165.087 70.646h2.265v15.543h-2.265z"/>
	<path d="M101.418 79.647v-9.115h-2.266v9.291a3.914 3.914 0 0 1-4.052 4.192 3.985 3.985 0 0 1-4.087-4.192l.01-9.291h-2.261l-.008 9.059a6.338 6.338 0 0 0 6.608 6.6 6.223 6.223 0 0 0 6.056-6.544zm20.682-2.574v9.117h2.266V76.9a3.913 3.913 0 0 1 4.048-4.191A3.984 3.984 0 0 1 132.5 76.9l-.01 9.292h2.265l.008-9.06a6.337 6.337 0 0 0-6.608-6.6 6.222 6.222 0 0 0-6.055 6.541z" fill="#171c1d"/>
	<path d="M154.958 70.571h.001-.001zm.001 15.618h-.001.001zm6.422-7.809v-1.212a6.182 6.182 0 0 0-6.425-6.6A6.587 6.587 0 0 0 151.14 72v-6.6h-2.265s-.068 11.751-.068 15.542c0 2.583 2.5 4.989 6.152 5.245 4.639-.061 6.422-3.316 6.425-6.6l-.003-1.207zm-6.164 5.635c-3.149-.212-4.092-1.762-4.048-4.192v-2.887c.027-2.1.9-4.043 4.048-4.191a3.8 3.8 0 0 1 3.9 3.971l.005 1.664s.007 1.247-.005 1.663a3.892 3.892 0 0 1-3.9 3.972z" fill="#00b297"/>
	<path d="M112.879 70.61c-4.569-.056-6.641 2.732-6.914 5.269-.057.53-.032 3.2-.03 4.353a6.231 6.231 0 0 0 6.027 5.956l4.825-.014v-2.261c-.974 0-3.589-.009-4.815 0a4.194 4.194 0 0 1-3.77-4.559h8.669s.7 0 .984-.013a1.967 1.967 0 0 0 1.455-1.927 6.624 6.624 0 0 0-6.431-6.804zm-4.69 6.479c-.03-2.645 1.927-4.161 4.582-4.161a4.139 4.139 0 0 1 4.312 4.111zM62.786 54.532l-.066.1" fill="#171c1d"/>
	<path d="M41.74 58.154a19.959 19.959 0 0 1-5.233-1.617c-5.981-2.737-12.126-7.412-15.053-12.606.989 1.907 8.687 16.322 18.333 22.408a12.737 12.737 0 0 0 1.953-8.185z" fill="url(#a)"/>
	<path d="M39.787 66.339a16.1 16.1 0 0 1-2.269 2.974s-6.631 7.924-14.555 10.026c0 0 10.141 3.589 22.075-3.153a30.616 30.616 0 0 0 11.267-10.508c-5.575 4.796-11.329 3.935-16.518.661z" fill="url(#b)"/>
	<path d="M36.507 56.537a19.959 19.959 0 0 0 5.233 1.617 11.01 11.01 0 0 0-1.149-3.6C37.512 48.583 31.226 44.4 28.4 42.736c-.042-.018-.086-.037-.127-.053.041.016.085.035.127.053-.885-.52-1.434-.794-1.434-.794s-8.773-5.58-6.348.283a15.889 15.889 0 0 0 .836 1.706l-.108-.21.108.21c2.927 5.194 9.072 9.869 15.053 12.606z" fill="#1e75bb"/>
	<path d="M40.591 54.718a11.01 11.01 0 0 1 1.149 3.6 11.621 11.621 0 0 0 5.643-.283 5.113 5.113 0 0 0 .617-.317C47.527 57.3 33.94 45.205 28.4 42.9c2.826 1.657 9.112 5.845 12.191 11.818z" fill="#00bae5"/>
	<path d="M48.009 57.649 48 57.637a5.113 5.113 0 0 1-.613.315 11.621 11.621 0 0 1-5.643.283 12.739 12.739 0 0 1-1.953 8.185c5.189 3.274 10.943 4.135 16.518-.661 2.391-3.7 3.976-7.5 6.415-11.1-.619.744-1.371 1.7-2.279 2.932-5.078 6.878-12.436.058-12.436.058zm8.3 8.029.053-.045z" fill="url(#c)"/>
	<path d="M76.957 48.633a27.847 27.847 0 0 0-7.924.687 11.035 11.035 0 0 1-6.044-.02 11.453 11.453 0 0 0-3.68-.647s-3.638-.485-6.347 3.881A15.044 15.044 0 0 1 48 57.718l.013.012s7.358 6.82 12.432-.061a64.2 64.2 0 0 1 2.279-2.932 10.829 10.829 0 0 1 2.512-2.546s3.113-2.446 11.664-2.972l.465-.02s.825-.526-.408-.566zm-16.516 3.942a1.011 1.011 0 1 1 1.011-1.011 1.011 1.011 0 0 1-1.011 1.011z" fill="url(#d)"/>
</svg>
