<svg version="1.1" id="Layer_1" xmlns="http://www.w3.org/2000/svg" x="0" y="0" viewBox="0 0 500 172.9" style="enable-background:new 0 0 500 172.9" xml:space="preserve">
	<style>
		.st0{fill:#191d1e}
	</style>
	<switch>
		<g>
			<path class="st0" d="M332.2 109c-13.2 0-23.9 10.7-23.9 23.9v7.1c0 13.2 10.7 23.9 23.9 23.9h15.2v-8.7h-15.2c-8.1 0-14.8-6.4-15.2-14.4h31.2c4.3 0 7.9-3.6 7.9-7.9 0-13.1-10.7-23.9-23.9-23.9zM317 132.1c.4-8 7.1-14.4 15.2-14.4s14.8 6.4 15.2 14.4H317z"/>
			<path class="st0" d="M191 97.1c-3.4 3.5-5.2 8.1-5.2 12.9v1.2h-5v8.7h5v44h8.7v-44h11.7v-8.7h-11.7V110c0-5.3 4.3-9.8 9.4-9.8h6.4v-8.7h-6.4c-4.9.1-9.5 2.1-12.9 5.6z"/>
			<path class="st0" d="M223.9 91.5h8.7v72.4h-8.7z"/>
			<path class="st0" d="M285.3 141.6c0 7.5-6.1 13.7-13.7 13.7s-13.7-6.1-13.7-13.7V109h-8.7v32.6c0 12.3 10 22.3 22.3 22.3s22.3-10 22.3-22.3V109h-8.7v32.6z"/>
			<path class="st0" d="M387.2 109c-12.3 0-22.3 10-22.3 22.3V164h8.7v-32.6c0-7.5 6.1-13.7 13.7-13.7s13.7 6.1 13.7 13.7V164h8.7v-32.6c-.2-12.4-10.2-22.4-22.5-22.4z"/>
			<path class="st0" d="M434.6 145.5v-27.8h11.8V109h-11.8V91.5H426V109h-7.7v8.7h7.7v27.8c0 10 8.1 18.1 18.1 18.1h3.8v-8.7H444c-5.1 0-9.4-4.2-9.4-9.4z"/>
			<path class="st0" d="M491.3 91.5v22.2c-3.8-2.9-8.5-4.7-13.7-4.7-12.3 0-22.3 10-22.3 22.3v10.3c0 12.3 10 22.3 22.3 22.3s22.3-10 22.3-22.3V91.5h-8.6zm0 44.7v5.4c0 7.5-6.1 13.7-13.7 13.7-7.5 0-13.7-6.1-13.7-13.7v-10.3c0-7.5 6.1-13.7 13.7-13.7 7.5 0 13.7 6.1 13.7 13.7v4.9z"/>
			<linearGradient id="SVGID_1_" gradientUnits="userSpaceOnUse" x1=".02" y1="-499.569" x2="209.997" y2="-499.569" gradientTransform="translate(0 586)">
				<stop offset="0" style="stop-color:#2a59a2"/>
				<stop offset="1" style="stop-color:#2a59a2"/>
			</linearGradient>
			<path d="M208.9 73.7h-3.7c-6.8-.1-19.9.7-31.7 11-28.3 24.7-34.8 61.1-83.2 80.7-40.5 16.3-90.3.8-90.3.8s44.4-3.1 50.3-37.2c4.6-26.7-19.5-45.7-34.6-69.7C.2 34.7-3.7 14.3 3.7 5.5c21-25 78.9 42.6 107.7 51.7 28.1 8.9 47.1-11.8 70.4-8.7 7.4 1 11.1 4.2 13.5 8.3.8 1.4 2.8 6.1 4.6 7.8 1.8 1.7 4.1 3 6.2 4.3 2.7 1.6 5.5 4.8 2.8 4.8z" style="fill:url(#SVGID_1_)"/>
			<linearGradient id="SVGID_2_" gradientUnits="userSpaceOnUse" x1="-8.479" y1="-535.689" x2="213.631" y2="-535.689" gradientTransform="translate(0 586)">
				<stop offset="0" style="stop-color:#91d3f2"/>
				<stop offset=".266" style="stop-color:#6fb2de"/>
				<stop offset=".521" style="stop-color:#5598ce"/>
				<stop offset=".673" style="stop-color:#4b8fc8"/>
			</linearGradient>
			<path d="M75.8 34.6c-7-5.3-14.1-10.9-21.2-16-1.6-1.1-3.2-2.3-4.8-3.4C31 2.2 13.4-6 3.7 5.5-3.7 14.3.2 34.7 15.6 59.2c.2.2.3.5.5.8 8 12.5 31.3 41.8 86.5 40.6 3.6-3.9 9.1-11.2 16.3-19.2-11.6-18.9-29-35.3-43.1-46.8z" style="fill:url(#SVGID_2_)"/>
			<linearGradient id="SVGID_3_" gradientUnits="userSpaceOnUse" x1=".02" y1="-450.315" x2="211.545" y2="-450.315" gradientTransform="translate(0 586)">
				<stop offset="0" style="stop-color:#2c9ec7"/>
				<stop offset=".404" style="stop-color:#2c63a5"/>
				<stop offset="1" style="stop-color:#395da1"/>
			</linearGradient>
			<path d="M131.5 123c.2-8.4-1.3-16.6-4.2-24.5-7.2 1.1-15.4 1.8-24.7 2-6.8 7.2-22.2 26.5-47.7 44C20.9 167.7 0 166.2 0 166.2s49.8 15.5 90.1-.9c14.5-5.9 25.2-13.2 33.9-21.3 1.5-1.3 7.1-8.5 7.5-21z" style="fill:url(#SVGID_3_)"/>
			<linearGradient id="SVGID_4_" gradientUnits="userSpaceOnUse" x1=".014" y1="-495.017" x2="211.539" y2="-495.017" gradientTransform="translate(0 586)">
				<stop offset="0" style="stop-color:#4faac4"/>
				<stop offset=".002" style="stop-color:#2f75b1"/>
				<stop offset="1" style="stop-color:#356eac"/>
			</linearGradient>
			<path d="M118.9 81.4c-7.1 8-12.7 15.3-16.3 19.2 9.3-.2 17.5-.9 24.7-2-.9-2.4-1.8-4.7-2.9-7-1.6-3.6-3.5-6.9-5.5-10.2z" style="fill:url(#SVGID_4_)"/>
			<linearGradient id="SVGID_5_" gradientUnits="userSpaceOnUse" x1="75.85" y1="-528.011" x2="212.766" y2="-528.011" gradientTransform="translate(0 586)">
				<stop offset="0" style="stop-color:#4faac4"/>
				<stop offset=".002" style="stop-color:#2f81b6"/>
				<stop offset="1" style="stop-color:#3b5ea9"/>
			</linearGradient>
			<path d="M160.3 51.1c-14.9 4.6-29.8 12.1-48.9 6.1-9.5-3-22.1-12.4-35.5-22.6 14.1 11.6 31.5 28 43.1 46.8 10.4-11.8 24.5-25 41.3-30.3z" style="fill:url(#SVGID_5_)"/>
			<linearGradient id="SVGID_6_" gradientUnits="userSpaceOnUse" x1="75.835" y1="-475.201" x2="212.75" y2="-475.201" gradientTransform="translate(0 586)">
				<stop offset="0" style="stop-color:#4faac4"/>
				<stop offset=".002" style="stop-color:#1e3773"/>
				<stop offset="1" style="stop-color:#203370"/>
			</linearGradient>
			<path d="M127.3 98.5c2.9 8 4.4 16.2 4.2 24.5-.3 12.5-6 19.6-7.4 21 20.4-19 29.5-42.1 49.3-59.4 3.7-3.2 7.5-5.5 11.2-7.1-13 5.5-27.1 16.4-57.3 21z" style="fill:url(#SVGID_6_)"/>
			<linearGradient id="SVGID_7_" gradientUnits="userSpaceOnUse" x1="164.45" y1="-463.683" x2="164.45" y2="-539.335" gradientTransform="translate(0 586)">
				<stop offset="0" style="stop-color:#4faac4"/>
				<stop offset=".002" style="stop-color:#2c5a9a"/>
				<stop offset="1" style="stop-color:#374580"/>
			</linearGradient>
			<path d="M208.9 73.7c2.7 0 0-3.1-2.8-4.8-2.2-1.3-4.5-2.6-6.2-4.3-1.8-1.8-3.8-6.5-4.6-7.8-2.4-4.1-6-7.4-13.5-8.3-7.5-1-14.5.5-21.5 2.6-16.7 5.3-30.8 18.5-41.4 30.3 2 3.3 3.9 6.7 5.5 10.1 1.1 2.3 2.1 4.7 2.9 7 30.1-4.6 44.3-15.5 57.3-21 8.2-3.6 15.9-3.9 20.5-3.9 1 .1 2.7.1 3.8.1z" style="fill:url(#SVGID_7_)"/>
			<linearGradient id="SVGID_8_" gradientUnits="userSpaceOnUse" x1="-22.82" y1="-472.905" x2="132.987" y2="-472.905" gradientTransform="translate(0 586)">
				<stop offset=".112" style="stop-color:#38b1da"/>
				<stop offset="1" style="stop-color:#326fb5"/>
			</linearGradient>
			<path d="M54.9 144.5c25.5-17.4 41-36.7 47.7-44-55.2 1.3-78.4-28-86.5-40.5 15.1 23.7 38.7 42.6 34.2 69C44.4 163.1 0 166.2 0 166.2s20.9 1.5 54.9-21.7z" style="fill:url(#SVGID_8_)"/>
			<circle cx="180.2" cy="61.2" r="4.4" style="fill:#fff"/>
		</g>
	</switch>
</svg>
