<svg xmlns="http://www.w3.org/2000/svg" width="200" height="128">
	<path fill="#fff" d="M129.84 96.27a5.27 5.27 0 0 0-3.67-.48 9.71 9.71 0 0 0-4.66 2.8 1.94 1.94 0 0 1-.34.21c-.07-.12-.14-.24-.2-.36a1.55 1.55 0 0 1-.07-.23 3 3 0 0 0-1.88-2.1 5.52 5.52 0 0 0-2.57-.43A7.42 7.42 0 0 0 114 96a3.13 3.13 0 0 0-1.79 1.2c-.91 1.28-1.91 2.49-2.87 3.74a3.5 3.5 0 0 0-.71 1.43 1.53 1.53 0 0 0 .77 1.86 4.16 4.16 0 0 0 3.76.17 4.86 4.86 0 0 0 2.14-2c.18-.29.34-.6.52-.89a.24.24 0 0 1 .19-.11.27.27 0 0 1 .14.17 3.55 3.55 0 0 1 .08.47 3 3 0 0 0 2.78 2.56 7.21 7.21 0 0 0 1.8-.07 5 5 0 0 0 3.71-2.67 2.72 2.72 0 0 1 .34-.42 1.75 1.75 0 0 1 .25.49 3.48 3.48 0 0 0 3.49 2.72 2.72 2.72 0 0 0 2.08-.81 1.39 1.39 0 0 0 .39-1.16 4.94 4.94 0 0 1 .24-2.38l.51-1.33a1.19 1.19 0 0 0-.13-1.18 4.81 4.81 0 0 0-1.85-1.52zm-53.68-.89a2.32 2.32 0 0 0-1.58-.73h-3.66v-.08c-2 .09-4.07.15-6.1.28a5.37 5.37 0 0 0-3.08.82 9.28 9.28 0 0 0-2.44 2 7.25 7.25 0 0 0-1.3 5.22 2.93 2.93 0 0 0 1.82 2.46 6.84 6.84 0 0 0 1.85.38 10.64 10.64 0 0 0 4.11-.6 3.34 3.34 0 0 0 1.7-1 7.29 7.29 0 0 0 .77-1.21 2.37 2.37 0 0 1 2.11-1.49c.8 0 1.61-.06 2.42-.11q.61 0 1.23-.12a.54.54 0 0 0 .46-.46c.12-.57.24-1.15.38-1.71a.77.77 0 0 0-.25-.85 1 1 0 0 1-.19-.32 1.42 1.42 0 0 1 .34-.15.83.83 0 0 0 .71-.53c.21-.44.46-.85.7-1.26a.4.4 0 0 0 0-.54zm-4.76 2.54h-1.9a.44.44 0 0 1-.48-.54c0-.2.14-.32.33-.27.79.19 1.58.41 2.37.62v.07a1.3 1.3 0 0 1-.32.12zm17.25 4a.85.85 0 0 0-.7-.84 3.11 3.11 0 0 0-2 .1.69.69 0 0 1-.49 0 4.38 4.38 0 0 1-.86-.56 1.27 1.27 0 0 1-.44-1.46 6.59 6.59 0 0 1 .4-.85 1.31 1.31 0 0 0 0-1.46 2.76 2.76 0 0 0-2.13-1.17 9.21 9.21 0 0 0-3.66.7 2.22 2.22 0 0 0-1.39 1.27 18.13 18.13 0 0 0-.72 2.27c-.19.89-.31 1.79-.41 2.69a1.09 1.09 0 0 0 .26.77 2.61 2.61 0 0 0 .94.68 8.34 8.34 0 0 0 2.07.5c1.48.11 3 .11 4.45.16h1.85a6.59 6.59 0 0 0 3-.63c.32-.16.36-.26.27-.59a6.42 6.42 0 0 1-.44-1.58zM107.09 96a4.22 4.22 0 0 0-2.1-.27 5.19 5.19 0 0 0-2.84 1 2.67 2.67 0 0 0-1.1 1.72c-.07.42-.14.85-.24 1.28a2.26 2.26 0 0 1-.93 1.59 3.13 3.13 0 0 1-1.32.47 1.18 1.18 0 0 1-1.38-1.16 6.36 6.36 0 0 1 .3-2.12 2.2 2.2 0 0 0-1-2.35 3.42 3.42 0 0 0-2.29-.45 3.77 3.77 0 0 0-2.24.83 3.48 3.48 0 0 1-.59.5 2.1 2.1 0 0 0-1.09 2 27.85 27.85 0 0 0 .48 3.26 2.15 2.15 0 0 0 1.54 1.7 11.34 11.34 0 0 0 2.16.44c1.6.15 3.21.23 4.65.32 1.14-.07 2.1-.08 3.05-.2a5.51 5.51 0 0 0 4.13-2.54 21.69 21.69 0 0 0 1.19-2.17 6.67 6.67 0 0 0 .68-1.67 1.61 1.61 0 0 0-1.06-2.18zm40.18 1.47a2 2 0 0 0-1.6-.88h-5.63a12.75 12.75 0 0 0-3.59.37 8.92 8.92 0 0 0-1.17.54 6.33 6.33 0 0 0-2.38 4 2.57 2.57 0 0 0 2.12 3.13 23.61 23.61 0 0 0 2.65.3 31.18 31.18 0 0 0 5-.18 4.82 4.82 0 0 0 2.18-.88 3.89 3.89 0 0 0 .38-.43.66.66 0 0 0 .09-.71.48.48 0 0 0-.54-.24l-3.8.23c-.36 0-.56-.11-.56-.36s.21-.31.57-.3h2.94a.9.9 0 0 0 .76-.3 5.9 5.9 0 0 0 .55-.79.85.85 0 0 0-.09-1.09 4.53 4.53 0 0 0-.9-.35 13.15 13.15 0 0 0-2.07-.18c-1 0-.83-.25-.64-.91a.48.48 0 0 1 .54-.38l1.15.07c.64 0 1.28.14 1.92.14a11.89 11.89 0 0 0 1.88-.21.38.38 0 0 0 .24-.59z"/>
	<path fill="#94ceef" d="M104.9 88.76c-.1 0-.22-.05-.29 0a1.65 1.65 0 0 0-.42.33l-1.07 1.12c-.26.26-.39.29-.68.08l-2.57-1.87-.41-.31a.87.87 0 0 0-.91-.08c-.53.23-1.09.41-1.65.59a.57.57 0 0 1-.4-.06l-3.81-2.39a.38.38 0 0 1-.11-.11l-.33-.16a.52.52 0 0 0-.66.09c-.4.4-.8.81-1.2 1.2s-.2.65-.11 1 .32.84.46 1.28-.09.52-.44.43-.79-.17-1.17-.29a1.58 1.58 0 0 1-.5-.32 3.94 3.94 0 0 1-.36-.45 2 2 0 0 1-.51-1.68 4.87 4.87 0 0 0-.17-1.77 18.88 18.88 0 0 1-.46-4.74v-1c0-.31-.13-.65-.58-.65h-.9c-.3 0-.52-.12-.52-.53v-1.09c0-.36-.14-.51-.46-.54a13.24 13.24 0 0 0-1.78-.06c-.74 0-1 .3-1.09 1s-.29 1.4-.48 2.09a.64.64 0 0 1-.41.41c-.63.12-1.28.18-1.92.26a4 4 0 0 1-1.71-.54 3.82 3.82 0 0 1-.64-.32l-.24-.12-1.9-.75c-.35-.14-.71-.28-1-.45-.15-.08-.25-.25-.38-.38a1.22 1.22 0 0 1 .64-1.49 10.16 10.16 0 0 0 3-1.92 3.57 3.57 0 0 0 .91-1.45 2.74 2.74 0 0 1 1.29-1.49c.39-.21.76-.48 1.15-.71.21-.13.45-.23.67-.34.28-.35.26-.45-.12-.7l-.29-.17c-.41-.18-.83-.34-1.24-.54-.2-.09-.33-.06-.4.14-.13.36-.44.48-.75.64a13.44 13.44 0 0 0-1.5.93 1 1 0 0 0-.26.47c-.12.38-.23.78-.34 1.18s-.14.75-.23 1.12-.29.48-.68.52a4 4 0 0 1-2-.55.64.64 0 0 1-.28-.48 7.26 7.26 0 0 1 .08-1.32.69.69 0 0 1 .29-.46c.55-.31 1.11-.56 1.67-.84.9-.45 1.82-.88 2.7-1.35a4 4 0 0 1 1.89-.45c.78 0 1.57 0 2.36.05H83c.37 0 .47-.17.31-.5s-.25-.39-.36-.6c-.55-1-1.11-2.06-1.65-3.09a2.16 2.16 0 0 0-.74-.82c-.64-.44-1.27-.9-1.9-1.36l-3.46-2.53A.62.62 0 0 1 75 59c.16-.36.3-.73.49-1.07a2 2 0 0 0-.1-2.39c-.62-.9-.57-.93-.28-2s.52-1.86.74-2.8a.85.85 0 0 0-.13-.64c-.34-.48-.74-.91-1.12-1.36s-.68-.83-1-1.26c-.17-.22-.33-.26-.52-.06a1.44 1.44 0 0 0-.18.25l-1.26 2.62a.79.79 0 0 1-.75.5h-3.32c-.38 0-.5-.16-.4-.52s.25-.87.37-1.31l.82-3a.69.69 0 0 0-.24-.76l-.33-.26-2-1.53-2.1-1.58c-.09-.06-.24 0-.36-.07a1.11 1.11 0 0 0 0 .36c.17.52.38 1 .55 1.57a1.69 1.69 0 0 1 0 .45 1.78 1.78 0 0 1-.47-.08c-.36-.16-.7-.36-1-.54s-.83-.4-1.25-.59a1.2 1.2 0 0 0-.33-.06.94.94 0 0 0 0 .37c.17.45.37.89.54 1.34a.67.67 0 0 0 .66.48c.64 0 1.29.05 1.93.05a1.39 1.39 0 0 1 1.17.75.44.44 0 0 1 0 .34c-.31 1.15-.65 2.29-1 3.44a18 18 0 0 0-.43 1.76c-.21 1.22-.4 2.45-.57 3.68a1.8 1.8 0 0 1-.49 1 5.13 5.13 0 0 0-1.21 2.26c-.28 1.11-.48 2.23-.71 3.35 0 .21-.11.39-.34.39a3 3 0 0 1-1.72-.33c-.43-.28-.87-.56-1.28-.86-.77-.54-1.52-1.1-2.28-1.64-.47-.34-.95-.68-1.44-1a.36.36 0 0 0-.32 0c-.05 0-.06.2 0 .29.21.76.43 1.51.64 2.27a3.58 3.58 0 0 0 1.32 2.37c.06 0 .1.13.15.19a.69.69 0 0 0 .18.16.45.45 0 0 0 .3 0s.06-.18 0-.26-.11-.39-.14-.59.14-.46.43-.38l2.27.65a1.14 1.14 0 0 1 .81.62c.12.25.28.49.41.74a.73.73 0 0 0 .63.45l.45.05a.51.51 0 0 1 .5.33c.18.45.37.89.52 1.35s0 .7-.43.91-1 .46-1.44.7c-.3.16-.33.28-.08.5s.74.53 1.08.82a4.48 4.48 0 0 1 .77.8 7.65 7.65 0 0 1 .54 1.07 8.76 8.76 0 0 0 .39.82 4.14 4.14 0 0 0 .73 1c.73.62 1.53 1.15 2.28 1.74a1 1 0 0 1 .41.57c.13.75.19 1.52.28 2.28.06.34.1.68.18 1a.73.73 0 0 1-.21.74c-.28.29-.58.57-.85.86a1.12 1.12 0 0 1-1.51.31c-.78-.4-.78-.34-.77-1.22a4.34 4.34 0 0 1 .7-2.41 1.38 1.38 0 0 0-.1-1.87q-.7-.67-1.44-1.32a.64.64 0 0 0-.88-.09 2.59 2.59 0 0 1-1.51.36l-1-.07a.76.76 0 0 1-.66-.37c-.56-1-1.14-2-1.69-2.93-.75-1.3-1.48-2.61-2.22-3.92-.2-.37-.39-.76-.6-1.12a.46.46 0 0 0-.23-.15.26.26 0 0 0-.11.15 6.6 6.6 0 0 0 .1 1.41c.2.73.52 1.44.76 2.16a53.84 53.84 0 0 0 1.77 4.63c.17.37 0 .58-.36.56-.57 0-1.14-.1-1.71-.14a.77.77 0 0 1-.66-.42 6 6 0 0 0-.42-.69 4.69 4.69 0 0 1-.7-2.47 1 1 0 0 0-.32-.73c-.33-.29-.66-.58-1-.86a1.71 1.71 0 0 1-.53-.71c-.57-1.44-1.16-2.88-1.75-4.31a.36.36 0 0 0-.55-.21 16.82 16.82 0 0 0-1.44.93.4.4 0 0 0 0 .36 4.39 4.39 0 0 0 .44.68c.48.65 1 1.28 1.47 1.93.23.3.46.61.68.92s.18.52-.08.62l-.83.29-3.6 1c-.33.09-.38.25-.13.48s.82.66 1.21 1a3.28 3.28 0 0 1 .38.5 3.93 3.93 0 0 1-.67.19h-.63c-.21 0-.17.1-.26.16a.89.89 0 0 0 .21.22c.26.15.54.27.81.42l2.4 1.33a.74.74 0 0 0 .88-.09c.48-.39 1-.77 1.46-1.17.27-.21.4-.21.62 0s.4.5.61.75a.34.34 0 0 1 0 .53c-.25.23-.49.48-.73.72s-.32.64.06.94.74.63 1.13.9a2.15 2.15 0 0 0 .83.41c.83.15 1.68.23 2.52.33a2.4 2.4 0 0 1 1.85.8 3.92 3.92 0 0 0 .58.57c.43.39.88.76 1.32 1.15.77.68 1.52 1.38 2.3 2.05a.75.75 0 0 0 1 0 3 3 0 0 1 .64-.33.39.39 0 0 1 .55.27c.25.68.49 1.36.75 2a12.65 12.65 0 0 0 .55 1.18c.08.16.19.36.44.24s.79-.42 1.19-.61 1-.47 1.55-.66a1 1 0 0 0 .55-1.27l-.45-1c-.39-.88-.78-1.77-1.18-2.65-.17-.38-.08-.56.35-.59s.67 0 1 0a.87.87 0 0 1 .82.41c.25.38.5.76.74 1.14s.44.5.83.25a41.2 41.2 0 0 0 1.88-1.27c.21-.15.38-.2.57 0 .36.32.7.66 1.07 1a8.16 8.16 0 0 1 2 3.07 2.43 2.43 0 0 1 .12 1c0 .56 0 1.12-.09 1.68a.4.4 0 0 0 .35.45c.46.13.9.3 1.36.42a1.23 1.23 0 0 1 .85.78 16.09 16.09 0 0 0 1.88 2.89.36.36 0 0 0 .5.15 5.89 5.89 0 0 0 1-.62c.48-.4.92-.85 1.36-1.29a1 1 0 0 1 .94-.28l1.55.3a9.31 9.31 0 0 1 1.58.37c.88.36 1.72.8 2.57 1.21a.41.41 0 0 1 .22.62 1.77 1.77 0 0 1-.21.32 3 3 0 0 1-.9 1.61c-.29.26-.56.55-.84.83a.35.35 0 0 0 0 .51c.17.25.33.51.51.75a.43.43 0 0 0 .68.11c1-.77 1.89-1.54 2.82-2.33a1.2 1.2 0 0 0 .43-1.35 11.14 11.14 0 0 1-.28-1.42.94.94 0 0 1 0-.5 6.06 6.06 0 0 1 .6-1.05.82.82 0 0 1 .59-.29 14.64 14.64 0 0 1 1.62.08l.82.08a.88.88 0 0 1 .81.52 2.82 2.82 0 0 0 .47.66.62.62 0 0 1 .1.73c-.25.56-.49 1.11-.74 1.66a1.34 1.34 0 0 0 .53 1.68 4 4 0 0 1 1.79 2.31.82.82 0 0 0 .2.26 1.18 1.18 0 0 0 .08-.31 1.76 1.76 0 0 0-.43-1c-.29-.36-.55-.75-.82-1.13a.9.9 0 0 1-.12-.8c.08-.26.13-.53.2-.8a.49.49 0 0 1 .48-.42c.29 0 .58-.06.88-.07a6.26 6.26 0 0 0 2.52-1 10.56 10.56 0 0 0 1.08-.71 2.26 2.26 0 0 1 .23-.31l1.21-1.27a.88.88 0 0 0 .09-.24zM83 87.18c-.19.51-.4 1-.6 1.5a1.42 1.42 0 0 1-.17.35.27.27 0 0 1-.48 0 3.35 3.35 0 0 1-.66-.81 4.1 4.1 0 0 1-.19-1.12 2.51 2.51 0 0 1 0-.39c-.16-1.17.62-1.73 1.46-2.25.24-.16.43-.06.49.23.12.57.26 1.14.33 1.72a1.66 1.66 0 0 1-.18.77zM156.1 77c0-.31-.17-.34-.43-.18s-.35.1-.49-.17-.3-.52-.45-.78-.2-.3-.3-.46l-1-1.58a.29.29 0 0 0-.47-.09c-.17.13-.32.27-.49.41l-2.08 1.74a5.87 5.87 0 0 1-.72.6.77.77 0 0 1-.51.09c-.88-.26-1.75-.53-2.62-.83a2.54 2.54 0 0 0-1.19-.13c-.8.12-1.59.25-2.39.34a1.92 1.92 0 0 0-1.53.65.85.85 0 0 1-1.18.26 6.89 6.89 0 0 1-2.48-1.41c-.15-.17-.33-.32-.48-.49a.9.9 0 0 0-1.07-.28c-.54.18-1.08.38-1.62.58a.62.62 0 0 1-.77-.12.49.49 0 0 0-.64-.1c-.82.38-1.64.77-2.47 1.14h-.41c0-.12 0-.28.1-.36.82-.9 1.65-1.78 2.47-2.67a.64.64 0 0 1 .73-.19c.4.14.79.27 1.19.38s.95.37 1.45 0l1.65-1.06c.41-.26.54-.24.82.16l1.28 1.77a.49.49 0 0 0 .76.13c.78-.55 1.57-1.09 2.35-1.65a.88.88 0 0 1 .86-.12 10.45 10.45 0 0 0 1.39.49 1.2 1.2 0 0 0 .84 0c1.19-.67 2.34-1.39 3.5-2.1.67-.41 1.33-.81 2-1.23a2.43 2.43 0 0 0 .54-.47.46.46 0 0 1 .54-.21c.66.17 1.33.33 2 .51a.58.58 0 0 0 .77-.39 17.55 17.55 0 0 0 .15-1.78.29.29 0 0 0-.15-.22.33.33 0 0 0-.24.13c-.11.14-.18.31-.29.46-.2.32-.37.34-.62.08s-.56-.67-.85-1a1.52 1.52 0 0 0-.5-.42c-.61-.19-1.22-.35-1.84-.49a.46.46 0 0 0-.57.34c-.09.51-.18 1-.26 1.55a1.82 1.82 0 0 1-.66 1.43c-.52.33-1.06.62-1.61.9a.59.59 0 0 1-.49-.09 3.13 3.13 0 0 1-.52-.51 14.42 14.42 0 0 0-1.19-1.28 1.34 1.34 0 0 0-1.55-.32c-.74.37-1.47.75-2.2 1.14a1.41 1.41 0 0 1-1.1.15c-.35-.09-.71-.16-1.06-.26-.1 0-.22-.11-.24-.19a.32.32 0 0 1 .13-.27 4.23 4.23 0 0 1 1.74-1.14l.47-.14c.44-.14.88-.27 1.32-.43a6 6 0 0 0 2-1.67.38.38 0 0 0 0-.57c-.18-.18-.35-.3-.6-.12-.45.31-.91.61-1.35.92a31.57 31.57 0 0 0-3.26 2.33c-.72.64-1.4 1.33-2.07 2a4.89 4.89 0 0 1-2.45 1.69l-.23.13c-.65.26-1.3.54-2 .78a.46.46 0 0 1-.41-.1 1.88 1.88 0 0 1-.62-1.26v-2a2.71 2.71 0 0 1 .06-.38 1.54 1.54 0 0 1 .21-.29c.43-.39.86-.79 1.3-1.17s.31-.45 0-.65-.61-.29-.88-.47a2.41 2.41 0 0 1-.72-.62c-.36-.53-.65-1.11-1-1.67a1 1 0 0 1-.1-.87c.27-.81.53-1.63.78-2.45a3.75 3.75 0 0 0 .15-.55.54.54 0 0 0-.54-.7l-.9-.11c-.43-.06-.62.14-.56.57s.12.9.14 1.36a1.22 1.22 0 0 1-.12.6c-.28.49-.59 1-.91 1.43a1.23 1.23 0 0 0-.07 1.33l1.41 2.26a8.08 8.08 0 0 1 .68 2.31 2.71 2.71 0 0 1-.5 2.44c-.42.58-.78 1.2-1.22 1.76a1.91 1.91 0 0 0-.33 2.11c.24.54.42 1.11.61 1.67a1 1 0 0 1-.21.9c-.44.59-.85 1.19-1.26 1.78a.62.62 0 0 0 0 .71c.25.45.47.91.7 1.37a.35.35 0 0 0 .58.13 4.68 4.68 0 0 0 .88-.78 7.53 7.53 0 0 1 3-1.93c.79-.35 1.58-.69 2.37-1 .39-.15.48 0 .44.38a9.94 9.94 0 0 0-.11 1.33 8 8 0 0 1-.75 2.87c0 .11-.09.21-.11.32-.16.74-.43.71-1 .77s-1.29.09-1.93.13a4.65 4.65 0 0 0-.75.08 1.42 1.42 0 0 1-1.48-.62 1.7 1.7 0 0 0-1.46-.68h-2.21a2.83 2.83 0 0 0-1.15.4c-1.15.72-2.28 1.49-3.41 2.24l-1.6 1a.84.84 0 0 1-.78.12c-.75-.25-1.51-.49-2.26-.75a.91.91 0 0 0-.89.09l-1.57 1.08a1.25 1.25 0 0 1-1 .26.6.6 0 0 0-.76.52 2.75 2.75 0 0 0 0 .95 10 10 0 0 0 .3 1.17c.09.34.26.39.52.15a4.28 4.28 0 0 0 .4-.45.53.53 0 0 1 .71-.13 2.76 2.76 0 0 0 .47.2 3.14 3.14 0 0 1 1.46 1 10 10 0 0 0 1.21 1.22 4.3 4.3 0 0 1 1.1 1.75 1.84 1.84 0 0 0 .83.91 15.44 15.44 0 0 1 1.4 1c.28.23.44.26.81 0a.52.52 0 0 0 .23-.7 1.34 1.34 0 0 1-.09-1.17 2.52 2.52 0 0 1 .45-.62 8.41 8.41 0 0 1 1-.83 4.15 4.15 0 0 1 .83-.45c.26-.1.39 0 .41.27a6.49 6.49 0 0 1 0 .76v.48a.63.63 0 0 0 .63.61 9.09 9.09 0 0 0 1.17-.12.4.4 0 0 0 .24-.28 1.81 1.81 0 0 0-.11-.65c-.14-.36-.36-.7-.5-1.06a.73.73 0 0 1 0-.56 1.53 1.53 0 0 0 .21-.92v-.67c0-.22.09-.34.32-.34h1a1.64 1.64 0 0 0 1.06-.45 2.61 2.61 0 0 1 .27-.19l1.32-1 .34-.26c.33-.27.52-.27.8 0s.76.9 1.13 1.35a2 2 0 0 1 .31.4 2.18 2.18 0 0 1 .18.65v.9a.92.92 0 0 1-.51 1.09c-.69.43-1.39.87-2.06 1.33a6.55 6.55 0 0 0-.85.73c-.21.21-.17.33.08.49.71.46 1.42.92 2.12 1.39.18.12.32.29.48.42s.44.25.67 0c.59-.72 1.17-1.44 1.72-2.19a1.24 1.24 0 0 0 .12-.75c-.05-.78-.13-1.57-.22-2.35a1.83 1.83 0 0 1 .37-1.3c.15-.2.32-.25.51-.08.35.32.7.64 1 1l2.29 2.3a.46.46 0 0 0 .61 0c.6-.37 1.2-.74 1.79-1.13a.51.51 0 0 0 .24-.72 1.93 1.93 0 0 0-.77-1 4.9 4.9 0 0 1-.57-.45 2.86 2.86 0 0 0-1.35-.69 1 1 0 0 1-.88-.61.7.7 0 0 1 .25-.91.44.44 0 0 1 .4 0c.57.4 1.11.83 1.67 1.25l.64.46c.51.35 1 .69 1.53 1.07a3.52 3.52 0 0 1 .54.61c.15.18.28.2.4 0 .25-.46.5-.94.73-1.42a.72.72 0 0 0-.09-.77c-.69-1-1.38-1.91-2.06-2.87a1.07 1.07 0 0 1-.1-.36c.13 0 .27-.09.38 0a11.27 11.27 0 0 1 1.3.5 2.44 2.44 0 0 0 2 .15 2.07 2.07 0 0 1 2 .47c.2.13.38.28.58.39a.84.84 0 0 1 .34.88c0 .49-.1 1-.15 1.47v.44h.09A3.67 3.67 0 0 0 149 89c.2-.3.36-.63.58-.92s.52-.35.8 0c1.11 1.33 2.23 2.66 3.33 4a.5.5 0 0 1 .13.39c0 .09-.22.16-.35.17l-3 .25a1.88 1.88 0 0 0-1 .4 4.38 4.38 0 0 1-.58.37.32.32 0 0 1-.5-.16c-.11-.22-.24-.43-.33-.65a.85.85 0 0 1-.07-.41c.1-.51.22-1 .32-1.54 0-.14.07-.38 0-.44a.77.77 0 0 0-.5-.09.53.53 0 0 0-.33.2 2.41 2.41 0 0 0-.56 1.71 17.53 17.53 0 0 0 .38 1.86.93.93 0 0 1 0 .33.85.85 0 0 1-.34-.11L145 92.53s-.1-.11-.16-.13a1.13 1.13 0 0 0-.26 0v.22c.21.52.43 1 .63 1.57a.56.56 0 0 0 .65.41 2.83 2.83 0 0 1 2.19.9 1.28 1.28 0 0 0 1.54.1c.84-.37 1.67-.74 2.52-1.09s1.91-.75 2.87-1.13c.33-.12.41-.26.25-.5s-.43-.58-.64-.87c-.33-.45-.64-.9-1-1.35-.23-.28-.47-.55-.69-.84l-1.26-1.77a5.39 5.39 0 0 1-1.24-1.68 1.1 1.1 0 0 0-.75-.69c-.83-.22-1.65-.44-2.49-.63a6.34 6.34 0 0 0-1.23-.13 1.35 1.35 0 0 1-1.07-.53c-.11-.14-.24-.26-.36-.4l-.74-1.33v-.12a3.38 3.38 0 0 1 0-1.7c0-.34.22-.45.57-.4l.36.07c1.15.27 2.29.55 3.45.81.92.2.91.19 1.24-.72a.75.75 0 0 1 .34-.38 13.11 13.11 0 0 1 1.46-.48 1.88 1.88 0 0 0 1.14-.84c.27-.45.56-.88.85-1.31s.36-.31.65-.14a5.08 5.08 0 0 1 .43.27c.46.34 1.12.32 1.5.85.12.17.33.05.34-.15a9.89 9.89 0 0 0 .01-1.42zm-14.6 7.31c-.09.28-.18.55-.28.83s-.26.4-.6.36-.74 0-1.11-.1a.93.93 0 0 1-.46-.21c-.05 0 .06-.29.15-.41.25-.33.55-.62.78-1a1.3 1.3 0 0 0 .2-.61.44.44 0 0 0-.2-.35c-.08 0-.28 0-.35.13-.58.71-1.17 1.41-1.71 2.15a1.33 1.33 0 0 1-1.12.7c-.26 0-.52 0-.78.05a.29.29 0 0 1-.34-.36c0-.45 0-.9.11-1.35a1.38 1.38 0 0 1 .19-.56c.51-.78 1-1.55 1.55-2.31a1.91 1.91 0 0 1 .44-.41l1.63-1.21a.61.61 0 0 1 .78 0c.27.18.54.35.79.55a.67.67 0 0 1 .23.37c.12.93.23 1.86.35 2.89zm13.11 19.21h-.18a11 11 0 0 1-1.93-.67 14.92 14.92 0 0 1-1.85-1.45.48.48 0 0 1 0-.78l.49-.35c.42-.31.84-.62 1.25-.95.08-.06.11-.2.16-.3a1.14 1.14 0 0 0-.34-.15c-.46 0-.92 0-1.39-.07a.84.84 0 0 1-.77-.44 1.36 1.36 0 0 0-.31-.37c-.21-.19-.36-.12-.42.16a3.25 3.25 0 0 1-.12.52 2.6 2.6 0 0 1-1.2 1.21c-.12.07-.19.23-.28.35l.39.23h.12a.71.71 0 0 1 .75.61c.08.26.14.53.24.78.2.52.43 1 1.08 1.14a4.2 4.2 0 0 1 1 .45.58.58 0 0 1 .36.6 4.49 4.49 0 0 0 .07.9.6.6 0 0 0 .28.41c.51.16 1 .26 1.5.37.3 0 .43-.06.64-.37s.46-.76.73-1.11.25-.61-.27-.72zm-7.97 2.58c-.51-.63-.51-.62-1.22-.27h-.06c-.2.1-.27.23-.13.46.4.59.77 1.21 1.17 1.8a1.85 1.85 0 0 0 .41.34c.31-.08.53-.12.76-.19.4-.12.48-.36.23-.7s-.8-.96-1.16-1.44zm-34.56-15.02c-.06-.08-.11-.17-.16-.25a6.24 6.24 0 0 0-.72-1 4.85 4.85 0 0 0-1-.58.6.6 0 0 0-.82.11.75.75 0 0 1-.93.24.82.82 0 0 0-1 .27 11.88 11.88 0 0 1-2.45 2.29c-.24.14-.48.27-.71.42a1.11 1.11 0 0 0-.51.85c0 .34.12.46.46.4a2.43 2.43 0 0 1 .47-.08 11.69 11.69 0 0 1 2.71.15c.3.06.41-.05.41-.36a2.45 2.45 0 0 0 0-.27 1.87 1.87 0 0 1 1.08-2c.38-.19.6-.06.64.36a1.48 1.48 0 0 0 0 .3 2.06 2.06 0 0 0 .27.78 5.48 5.48 0 0 0 1 .78.47.47 0 0 0 .63-.09l.92-.77a.48.48 0 0 0 .16-.71z"/>
	<path fill="#3a73be" d="M156.73 78.76c0-1.28-.08-2.57 0-3.85a1.85 1.85 0 0 0-.73-1.61l-.18-.16a1.37 1.37 0 0 0-.13-.2c-.71-.88-1.43-1.75-2.13-2.63a1.76 1.76 0 0 1-.17-.42 1.19 1.19 0 0 1 .45-.06c.44.08.87.18 1.3.3s.7 0 .78-.48.13-1.09.25-1.62a7.35 7.35 0 0 0 .07-2 .33.33 0 0 0-.12-.25.35.35 0 0 0-.26.09 1.55 1.55 0 0 0-.24.27l-.81.94a.3.3 0 0 1-.53 0c-.19-.21-.35-.44-.55-.64a1.79 1.79 0 0 0-.59-.45c-.79-.23-1.58-.42-2.38-.61a.45.45 0 0 0-.61.41c-.14.76-.28 1.52-.4 2.29a1.16 1.16 0 0 1-.69 1c-.32.15-.63.31-.94.48a.41.41 0 0 1-.55-.09c-.22-.24-.44-.49-.65-.75a3.57 3.57 0 0 0-1.2-1.12 6.32 6.32 0 0 0-.82-.32.63.63 0 0 0-.45 0c-.72.35-1.41.74-2.12 1.1-.38.2-.74.51-1.21.3a1.69 1.69 0 0 1-.37-.29c.11-.11.21-.27.35-.32.68-.24 1.38-.44 2.06-.7a4 4 0 0 0 1.16-.56 19.75 19.75 0 0 0 1.49-1.41c.49-.48.49-.58 0-1.06l-.1-.08c-.11-.09-.24-.17-.34-.27s-.39-.27-.64-.1c-1.12.77-2.24 1.53-3.34 2.33a.8.8 0 0 1-.95.1l-1.08-.66c-.42-.26-.47-.46-.4-.94.18-1.2.4-2.39.49-3.6.11-1.49.13-3 .13-4.5 0-1.07-.08-2.13-.17-3.2 0-.62-.15-1.24-.25-1.86a24.61 24.61 0 0 0-.48-2.7c-.42-1.55-.92-3.07-1.41-4.6a33.61 33.61 0 0 0-2.72-5.83 27.78 27.78 0 0 0-2.19-3.43c-.93-1.24-2-2.42-3-3.59a21.31 21.31 0 0 0-1.83-1.85c-.77-.7-1.58-1.35-2.38-2a16.52 16.52 0 0 0-2.15-1.64 42.59 42.59 0 0 0-3.67-2.22c-.86-.41-1.66-.93-2.53-1.29-1.34-.53-2.71-1-4.08-1.44a29.66 29.66 0 0 0-4.72-1.19l-1.32-.13a11.38 11.38 0 0 0-1.3-.1c-.93 0-1.84-.14-2.76-.21a20.53 20.53 0 0 0-2.6 0c-.63 0-1.26.15-1.89.16a13.47 13.47 0 0 0-2.46.21 4.58 4.58 0 0 1-.64 0l-1.69.31h-.19c-1.24.34-2.51.61-3.73 1-1.44.51-2.85 1.11-4.26 1.71a18.52 18.52 0 0 0-2.3 1.27 49.37 49.37 0 0 0-4.72 3.12c-1.25 1-2.39 2-3.56 3.1a18.1 18.1 0 0 0-1.41 1.49c-.59.66-1.16 1.34-1.73 2a27.49 27.49 0 0 0-2.39 3.38c-.49.84-1 1.67-1.48 2.53s-.92 1.91-1.37 2.87c-.17.36-.34.4-.65.17-.82-.61-1.65-1.22-2.49-1.81-.2-.13-.46-.37-.67-.16s0 .46.06.67c.17.51.39 1 .57 1.49a.39.39 0 0 1 0 .3.28.28 0 0 1-.27 0c-.4-.18-.81-.36-1.2-.57s-1-.55-1.52-.81a.34.34 0 0 0-.28 0s-.05.16 0 .23c.1.3.21.59.33.88.28.7.59 1.39.87 2.09.17.44.29.55.77.56h2.12a.65.65 0 0 1 .68.75 5.15 5.15 0 0 1-.18.85c-.28 1-.62 2-.84 3-.29 1.4-.47 2.82-.74 4.23a2.4 2.4 0 0 1-.48 1.37 5.52 5.52 0 0 0-1.33 2.54c-.24 1-.41 1.92-.62 2.87-.05.2-.1.45-.36.41a2.83 2.83 0 0 1-1-.25 16.14 16.14 0 0 1-1.58-1.06c-1.43-1-2.85-2-4.28-3.06a2.16 2.16 0 0 0-.36-.22c-.23-.11-.35 0-.32.24a.85.85 0 0 0 0 .17l1.5 5a1 1 0 0 0 .19.33c.8.78 1.59 1.55 2.4 2.31a.31.31 0 0 0 .26.07.38.38 0 0 0 .09-.29c-.1-.47-.21-.94-.34-1.41-.08-.29 0-.43.29-.37s.86.21 1.3.29a1.24 1.24 0 0 1 1 .78c.09.21.23.41.34.61a.87.87 0 0 0 .89.53c.37 0 .54.12.68.48a2.67 2.67 0 0 0 .25.51c.25.4.2.56-.23.77l-1.08.53c-.33.16-.65.33-1 .52s-.24.29 0 .45l.5.39c.91.7 2 1.27 2.35 2.48a.28.28 0 0 0 .07.09h.07l.3.55c.11.27.19.54-.06.79l-.54.38a13.11 13.11 0 0 1 1.16.71 6.35 6.35 0 0 1 .87.85c.16.18.27.41.43.59a.82.82 0 0 1 .18.76 4 4 0 0 1-.54 1.49 1.69 1.69 0 0 0-.3.93c0 .44-.11.88-.17 1.31 0 .14 0 .37.09.4.46.19.93.34 1.4.49 0 0 .11 0 .16-.07l.71-.64c.19-.2.37-.4.56-.59a.7.7 0 0 0 .22-.65v-1.06c-.09-.76-.15-1.53-.28-2.28a1 1 0 0 0-.41-.57c-.75-.59-1.55-1.12-2.28-1.74a4.14 4.14 0 0 1-.73-1 8.76 8.76 0 0 1-.39-.82 7.65 7.65 0 0 0-.54-1.07 4.48 4.48 0 0 0-.77-.8c-.34-.29-.73-.53-1.08-.82s-.22-.34.08-.5c.47-.24 1-.47 1.44-.7s.59-.44.43-.91-.34-.9-.52-1.35a.51.51 0 0 0-.5-.33l-.45-.05a.73.73 0 0 1-.63-.45c-.13-.25-.29-.49-.41-.74a1.14 1.14 0 0 0-.81-.62l-2.27-.65c-.29-.08-.49.08-.43.38s.11.39.14.59 0 .24 0 .26a.45.45 0 0 1-.3 0 .69.69 0 0 1-.18-.16c0-.06-.09-.15-.15-.19a3.58 3.58 0 0 1-1.32-2.37c-.21-.76-.43-1.51-.64-2.27v-.29a.36.36 0 0 1 .32 0c.49.32 1 .66 1.44 1 .76.54 1.51 1.1 2.28 1.64.41.3.85.58 1.28.86a3 3 0 0 0 1.72.33c.23 0 .3-.18.34-.39.23-1.12.43-2.24.71-3.35a5.13 5.13 0 0 1 1.21-2.26 1.8 1.8 0 0 0 .49-1c.17-1.23.36-2.46.57-3.68a18 18 0 0 1 .43-1.76c.31-1.15.65-2.29 1-3.44a.44.44 0 0 0 0-.34 1.39 1.39 0 0 0-1.17-.75c-.64 0-1.29-.05-1.93-.05a.67.67 0 0 1-.66-.48c-.17-.45-.37-.89-.54-1.34a.94.94 0 0 1 0-.37 1.2 1.2 0 0 1 .33.06c.42.19.84.38 1.25.59s.69.38 1 .54a1.78 1.78 0 0 0 .47.08 1.69 1.69 0 0 0 0-.45c-.17-.53-.38-1-.55-1.57a1.11 1.11 0 0 1 0-.36c.12 0 .27 0 .36.07l2.1 1.58 2 1.53.33.26a.69.69 0 0 1 .24.76l-.82 3c-.12.44-.26.87-.37 1.31s0 .52.4.52h3.27a.79.79 0 0 0 .75-.5l1.26-2.62a1.44 1.44 0 0 1 .18-.25c.19-.2.35-.16.52.06.33.43.67.84 1 1.26s.78.88 1.12 1.36a.85.85 0 0 1 .13.64c-.22.94-.49 1.87-.74 2.8s-.34 1.09.28 2a2 2 0 0 1 .1 2.39c-.19.34-.33.71-.49 1.07a.62.62 0 0 0 .25.89l3.46 2.53c.63.46 1.26.92 1.9 1.36a2.16 2.16 0 0 1 .74.82c.54 1 1.1 2.06 1.65 3.09.11.21.26.39.36.6s.06.5-.31.5h-1.5c-.79 0-1.58-.05-2.36-.05a4 4 0 0 0-1.89.45c-.88.47-1.8.9-2.7 1.35l.86-.35-.86.35c-.56.28-1.12.53-1.67.84a.69.69 0 0 0-.29.46 7.26 7.26 0 0 0-.08 1.32.64.64 0 0 0 .28.48 4 4 0 0 0 2 .55c.39 0 .58-.14.68-.52s.15-.75.23-1.12.22-.8.34-1.18a1 1 0 0 1 .26-.47A13.44 13.44 0 0 1 77.9 70c.31-.16.62-.28.75-.64.07-.2.2-.23.4-.14.41.2.83.36 1.24.54l.29.17c.38.25.4.35.12.7h.13l.18-.07a.68.68 0 0 0 .16-.37.68.68 0 0 1-.16.37l-.18.07h-.13c-.22.11-.46.21-.67.34-.39.23-.76.5-1.15.71a2.74 2.74 0 0 0-1.29 1.49 3.57 3.57 0 0 1-.91 1.45 10.16 10.16 0 0 1-3 1.92 1.22 1.22 0 0 0-.61 1.46c.13.13.23.3.38.38.34.17.7.31 1 .45l1.9.75.24.12a3.82 3.82 0 0 0 .64.32 4 4 0 0 0 1.71.52c.64-.08 1.29-.14 1.92-.26a.64.64 0 0 0 .41-.41c.19-.69.34-1.39.48-2.09s.35-1 1.09-1a13.24 13.24 0 0 1 1.78.06c.32 0 .45.21.46.54s0 .73 0 1.09.11.52.52.53.6 0 .9 0 .57.22.58.63 0 .69 0 1a18.88 18.88 0 0 0 .46 4.74 4.87 4.87 0 0 1 .17 1.77 2 2 0 0 0 .51 1.68 3.94 3.94 0 0 0 .36.45 1.58 1.58 0 0 0 .5.32c.38.12.78.2 1.17.29s.55-.09.44-.43-.31-.86-.46-1.28v.12a1.19 1.19 0 0 1 .21-1.51l-.1-.06-.47.12v-.07l-.5.11a1 1 0 0 1-1.2-.94c-.12-.81-.31-1.62-.45-2.43a8.87 8.87 0 0 1-.14-1.14v-3.33c0-.45-.14-.6-.59-.61a7.31 7.31 0 0 0-.81 0c-.39 0-.62-.16-.56-.55a9.59 9.59 0 0 0 0-2.78 5.11 5.11 0 0 1 .1-1l-.12.06c0-.18-.31-.2-.37-.34a11.72 11.72 0 0 0-2-3A3.88 3.88 0 0 0 82 70c-.41-.2-.82-.37-1.23-.56 0 0-.11-.09-.11-.13a.21.21 0 0 1 .12-.15 1.69 1.69 0 0 1 .5-.08l2.72.09a.32.32 0 0 0 .24-.08.34.34 0 0 0 0-.24c-.43-.8-.87-1.59-1.29-2.39s-.66-1.33-1-2a3.39 3.39 0 0 0-1.11-1.3l-1-.63-.3-.2-2.77-2.14a8.62 8.62 0 0 0-1-.61.41.41 0 0 1-.24-.55c0-.16.15-.31.21-.46a7.62 7.62 0 0 0 .74-1.94.82.82 0 0 0-.05-.38 7.82 7.82 0 0 0-.72-1.22 1.4 1.4 0 0 1-.13-1.48c.21-.64.49-1.26.64-1.92a4.82 4.82 0 0 0 .09-1.47 1.33 1.33 0 0 0-.37-.6c-.7-.8-1.4-1.59-2.11-2.37a.38.38 0 0 1-.09-.47 1.69 1.69 0 0 0 .1-.34.56.56 0 0 1-.18 0c-.46-.06-.62 0-.79.48s-.51.93-.76 1.41-.43.91-.66 1.36a.93.93 0 0 1-.92.56h-2c-.4 0-.55-.17-.46-.55.11-.54.26-1.06.39-1.59 0-.17.09-.35.13-.52L67.93 49l.48-1.39c.2-.63.41-1.25.59-1.88a.62.62 0 0 0-.31-.7c-.17-.12-.35-.24-.51-.37a.4.4 0 0 1-.13-.54c.45-1 .9-1.91 1.36-2.87a16.64 16.64 0 0 1 .94-1.83 47.83 47.83 0 0 1 3.25-4.65c.91-1.1 1.9-2.12 2.89-3.13A28.42 28.42 0 0 1 80.9 28c.88-.6 1.76-1.21 2.68-1.76s1.65-.88 2.5-1.29 1.44-.68 2.18-1c.93-.35 1.86-.67 2.81-.95s1.93-.51 2.93-.74c.57-.13 1.16-.17 1.74-.27a34.62 34.62 0 0 1 5.92-.5c.84 0 1.67.06 2.51.12s1.56.15 2.34.24c.56.07 1.12.14 1.68.25.78.16 1.57.35 2.35.55.57.14 1.14.31 1.72.47.68.24 1.37.46 2 .75 1.13.48 2.27 1 3.37 1.54a19 19 0 0 1 2.86 1.59c1.09.82 2.24 1.57 3.33 2.4a21.24 21.24 0 0 1 3.08 2.76c.26.29.59.53.85.82.43.48.82 1 1.25 1.47a27.65 27.65 0 0 1 3.07 4.23 30.29 30.29 0 0 1 2.93 5.9c.38 1.11.81 2.2 1.13 3.33s.53 2.36.77 3.54a31.76 31.76 0 0 1 .49 5.42c0 1-.08 1.93-.09 2.89a28.74 28.74 0 0 1-.91 6.19c-.14.63-.3.72-.94.64a.22.22 0 0 1-.14 0c-.74-.38-1.51-.72-2.21-1.17a5 5 0 0 1-1.24-1.72 1.06 1.06 0 0 1-.11-1c.34-1.05.69-2.09 1.06-3.12.18-.53.07-.76-.48-.86l-2.24-.37c-.48-.08-.66.09-.58.57s.17 1.06.25 1.59a1.5 1.5 0 0 1-.31 1.25c-.22.27-.39.31-.65.07a7 7 0 0 1-.66-.67 1.35 1.35 0 0 1-.27-.5c-.19-.56-.36-1.13-.52-1.7a1.12 1.12 0 0 0-.61-.7 15.9 15.9 0 0 1-1.44-.84 1.25 1.25 0 0 1-.48-.59c-.18-.67-.3-1.35-.43-2a.75.75 0 0 0-.57-.62 5.07 5.07 0 0 1-.65-.24l-1.7-.72.62.31c.6.29 1.22.56 1.82.88a.77.77 0 0 1 .34.45c.14.59.24 1.18.34 1.78a1.36 1.36 0 0 0 .73 1c.52.31 1.05.61 1.54 1a1.26 1.26 0 0 1 .42.59 16.27 16.27 0 0 0 .57 1.75 6.45 6.45 0 0 0 1 1.14h.05c.16.14.43.29.22.53s-.4 0-.55-.12c-.34-.31-.66-.64-1-1a.87.87 0 0 1-.18-.31 11.2 11.2 0 0 1-.39-1.37 1.67 1.67 0 0 0-.92-1.2c-.47-.28-1-.54-1.42-.85a1.07 1.07 0 0 1-.36-.56c-.17-.59-.28-1.19-.42-1.79s-.26-.56-.76-.46-1 .19-1.57.27a.69.69 0 0 1-.67-.31c-.91-1-1.83-2.07-2.77-3.09a1.11 1.11 0 0 0-.57-.29c-.81-.17-1.63-.3-2.44-.44a.62.62 0 0 0-.78.35 7.39 7.39 0 0 1-.62.85 1.22 1.22 0 0 1-.51.36c-.56.2-1.13.37-1.7.55a.67.67 0 0 1-.75-.13s-.11-.07-.14-.12a1.91 1.91 0 0 0-1.82-.63.81.81 0 0 0-.52.29c-.36.4-.68.85-1 1.27-.08.06-.17.16-.25.16l-1.45-.15-1-1.28-.12-.17a1.67 1.67 0 0 0-1.11-.17c-.27.07-.24.19-.28.34h-.06l-.07.42-.06.24c-.15.35-.32.6-.47.93s-.2.41-.31.64l-.24.2-.68.71v.07l.39-.33.67-.55a1.34 1.34 0 0 0 .51-.73c.12-.5.28-1 .41-1.49a.37.37 0 0 1 .38-.3 1 1 0 0 1 1.11.51 2.6 2.6 0 0 0 .55.72 1.62 1.62 0 0 0 .66.42 3.62 3.62 0 0 0 1.09.07.77.77 0 0 0 .46-.24c.33-.39.61-.82.94-1.21a.71.71 0 0 1 .44-.25 2.08 2.08 0 0 1 1.9.67.69.69 0 0 0 .85.19c.56-.2 1.13-.38 1.7-.54a1.2 1.2 0 0 0 .75-.61c.15-.27.34-.52.51-.78a.53.53 0 0 1 .59-.2c.81.14 1.61.27 2.41.44a1.09 1.09 0 0 1 .57.3c.94 1 1.86 2 2.76 3a.87.87 0 0 0 .85.35l1.51-.26c.38-.07.5 0 .59.36.13.59.28 1.17.4 1.76a1.11 1.11 0 0 0 .59.76c.61.37 1.2.77 1.78 1.19a1.17 1.17 0 0 1 .31.53c.16.49.28 1 .44 1.48a1.43 1.43 0 0 0 .3.48c.29.33.6.65.91 1a.52.52 0 0 1 .1.64 1 1 0 0 0 .06 1c.44.73.89 1.46 1.34 2.19a5.49 5.49 0 0 1 .63 1.16 17.69 17.69 0 0 1 .34 2.06 1.44 1.44 0 0 1-.27 1c-.47.72-1 1.44-1.43 2.17a6.49 6.49 0 0 0-.55 1 1.15 1.15 0 0 0-.05.73 10.86 10.86 0 0 0 .58 1.69 1.33 1.33 0 0 1-.18 1.61 14.23 14.23 0 0 0-1 1.33c-.27.37-.46.75-.15 1.19.24.44.52.86.72 1.32s0 .5-.35.5h-1.76a3.9 3.9 0 0 0-1 .23c-.47.19-.53.18-.8-.25-.17-.25-.35-.49-.53-.73a.56.56 0 0 1 .2-.91c.94-.59 1.87-1.18 2.82-1.76.3-.18.62-.32.94-.49a.46.46 0 0 0 .28-.54c-.42.28-.8.55-1.2.79s-.88.46-1.3.72-1.09.72-1.63 1.08l-.41.26c-.28.18-.35.37-.18.66a3.87 3.87 0 0 0 .39.54c.06.08.14.14.2.22.42.58.37.87-.21 1.25l-3.76 2.49a.88.88 0 0 1-.83.11c-.78-.27-1.57-.5-2.36-.76a.75.75 0 0 0-.71.1c-.51.35-1 .69-1.52 1a1.39 1.39 0 0 1-.92.31h-2a2.19 2.19 0 0 0-.59.17h.12l-.79.85-.66.6-.33.44c-.11.16-.1.26.12.36a16.07 16.07 0 0 1 1.61.8 1.34 1.34 0 0 1 .4.57 5.88 5.88 0 0 1 .26.74 10.5 10.5 0 0 1 .58 1 .5.5 0 0 1-.19.62c-.33.27-.65.56-1 .86s-.55.36-.93 0a5.47 5.47 0 0 0-.67-.52 1.08 1.08 0 0 1-.51-.78 6.17 6.17 0 0 0-.11-.62c-.06-.27-.22-.34-.44-.18a3.48 3.48 0 0 0-.69.58 1.3 1.3 0 0 0-.24.62 1.9 1.9 0 0 0 0 .63 2.75 2.75 0 0 0 .23.6c0 .09.12.16.16.25s0 .27-.2.23l-.31-.09a14.48 14.48 0 0 0-1.84-.33 20.24 20.24 0 0 0-2 .1c-.36 0-.44-.08-.38-.43a2.23 2.23 0 0 1 1.41-1.72 6.45 6.45 0 0 0 2-1.69c.24-.23.48-.46.7-.71s.18-.43-.17-.54-.93-.27-1.39-.41l-.66-.2q-.37-.11-.27.24a.35.35 0 0 1-.24.5l-.24.18-1 1-.37.37h-.06a10.56 10.56 0 0 1-1.08.71 6.26 6.26 0 0 1-2.52 1c-.3 0-.59 0-.88.07a.49.49 0 0 0-.48.42c-.07.27-.12.54-.2.8a.9.9 0 0 0 .12.8c.27.38.53.77.82 1.13a1.76 1.76 0 0 1 .43 1 1.18 1.18 0 0 1-.08.31.82.82 0 0 1-.2-.26 4 4 0 0 0-1.79-2.31 1.34 1.34 0 0 1-.53-1.68c.25-.55.49-1.1.74-1.66a.62.62 0 0 0-.1-.73 2.82 2.82 0 0 1-.55-.63.88.88 0 0 0-.81-.52l-.8-.08a14.64 14.64 0 0 0-1.62-.08.82.82 0 0 0-.59.29 6.06 6.06 0 0 0-.6 1.05.94.94 0 0 0 0 .5 11.14 11.14 0 0 0 .28 1.42 1.2 1.2 0 0 1-.43 1.35c-.93.79-1.87 1.56-2.82 2.33a.43.43 0 0 1-.68-.11c-.18-.24-.34-.5-.51-.75a.35.35 0 0 1 0-.51c.28-.28.55-.57.84-.83a3 3 0 0 0 .9-1.61l.12-.36a.33.33 0 0 0-.2-.45 18.75 18.75 0 0 0-2.42-1.1 30.07 30.07 0 0 0-3.39-.73.83.83 0 0 0-.6.2 23.05 23.05 0 0 1-2.35 1.94c-.38.24-.6.2-.85-.18s-.67-1-1-1.51-.67-1.08-1-1.62c-.08-.12-.17-.29-.29-.33-.59-.22-1.18-.42-1.78-.58-.24-.06-.37-.14-.36-.38 0-.41 0-.81.08-1.21a3.16 3.16 0 0 0-.41-2.38 2.8 2.8 0 0 1-.15-.3 3.87 3.87 0 0 0-1.14-1.64 11.9 11.9 0 0 1-1.06-1.07c-.33-.33-.47-.34-.8-.11-.68.46-1.36.9-2 1.34-.29.19-.46.12-.64-.18-.29-.48-.57-1-.89-1.41a.83.83 0 0 0-.48-.33 5.16 5.16 0 0 0-1.11 0c-.3 0-.36.2-.23.47s.13.28.19.42c.5 1.13 1 2.26 1.49 3.4a.4.4 0 0 1 0 .34 5.73 5.73 0 0 1-.45.75c-.33.43-.36.54-.06 1s.69.95 1 1.42a1.8 1.8 0 0 0 1 .72c.43.13.85.32 1.27.49s.45.33.26.68c-.08.16-.19.3-.29.46s-.16.47.12.67.55.34.83.49c.54.27 1.1.5 1.63.79a.85.85 0 0 1 .24.93c-.1.31-.36.26-.6.27-2.92 0-5.84 0-8.75.07-.71 0-1.42.18-2.13.25A4.09 4.09 0 0 0 61 94a9.81 9.81 0 0 0-2 1.54c-.34.36-.7.7-1.05 1a2.87 2.87 0 0 0-.77 1.27c-.24.89-.49 1.77-.75 2.65a4.86 4.86 0 0 0 0 2.85 6 6 0 0 0 1.62 3l.31.24.83.25a8.66 8.66 0 0 0 1.67.51 9 9 0 0 0 3.65-.15c1-.29 2-.53 3-.79.25-.16.51-.3.74-.48a5.17 5.17 0 0 0 1.72-2.22.83.83 0 0 1 .75-.57l1.39-.07c.52 0 1 0 1.57-.09s.64 0 .8.47a3.89 3.89 0 0 0 2.25 2.23 9.69 9.69 0 0 0 4.08.77h5.81a6.55 6.55 0 0 0 3.53-1.21.45.45 0 0 1 .53 0 8.13 8.13 0 0 0 2.47.89 32.12 32.12 0 0 0 5.62.53h2.39a8.41 8.41 0 0 0 3.56-.86 18 18 0 0 0 1.78-1.09c.46-.29.64-.3.91.1a3.55 3.55 0 0 0 1.79 1.34 5.59 5.59 0 0 0 5.94-.85c.38-.32.62-.3 1 0a5.15 5.15 0 0 0 3.81 1.24 7.83 7.83 0 0 0 4.21-1.44.56.56 0 0 1 .88.09 4.49 4.49 0 0 0 1.67 1v.09a5.72 5.72 0 0 0 2.84.24 4.44 4.44 0 0 0 2.31-1.17.44.44 0 0 1 .67 0 6 6 0 0 0 3 1.26 26.52 26.52 0 0 0 5.49.15 13 13 0 0 0 3.11-.44c.39-.12.55 0 .77.34.43.7.87 1.38 1.31 2.07a.53.53 0 0 0 .57.27c.61-.15 1.21-.29 1.81-.46.32-.09.37-.33.16-.59-.53-.64-1.07-1.28-1.6-1.93a.74.74 0 0 1-.11-.94c.15-.23.27-.48.4-.71l.2-.3c.38-.56.37-.55 0-1.07a2.22 2.22 0 0 1-.42-1.54.54.54 0 0 1 .21-.37.89.89 0 0 1 1.29.54c.09.32.19.64.29 1a1 1 0 0 0 .67.68c.31.11.62.24.93.37a.85.85 0 0 1 .58 1 1.22 1.22 0 0 0 0 .33c0 .68.13.77.8.91a8.94 8.94 0 0 1 1.51.43.54.54 0 0 0 .71-.16c.07-.09.15-.17.21-.26l1.07-1.54a4 4 0 0 0 .34-.5c.17-.33.07-.5-.29-.6s-.88-.22-1.31-.35a5.44 5.44 0 0 1-1.34-.46 11.09 11.09 0 0 1-1.44-1.14.31.31 0 0 1 0-.53c.3-.25.6-.48.9-.72.53-.44 1.06-.87 1.58-1.32a.39.39 0 0 0 .11-.31c0-.07-.18-.15-.28-.15h-2.54a.79.79 0 0 1-.66-.29l-1-1.17c-.29-.32-.24-.58.16-.74l.54-.19 3-1.28c.88-.36 1.77-.69 2.64-1.05a.37.37 0 0 0 .15-.63q-.28-.34-.54-.69l-1.52-2c-.24-.35-.47-.71-.73-1-.66-.86-1.34-1.72-2-2.57a.84.84 0 0 1-.11-.94c.57-1 1.14-2.08 1.73-3.11.23-.4.15-.64-.31-.71-.76-.1-1.52-.2-2.28-.28-.46 0-.61-.27-.41-.69a.86.86 0 0 1 .45-.39 12.58 12.58 0 0 1 1.48-.44 1.21 1.21 0 0 0 .74-.5c.27-.41.53-.83.77-1.26s.4-.46.78-.25c.71.4 1.42.8 2.12 1.22.38.22.58.13.6-.3a2.44 2.44 0 0 0-.09-.25zM73.13 78a1.1 1.1 0 0 1 0-.18 1.1 1.1 0 0 0 0 .18l.06.07zm7.5-8.36h-.17l-.72-.25-.56-.39.56.29.72.25zm1.77-3.45.15.29-.15-.29-.55-1.05zm-9-19.08.24.24-.24-.24zM114.88 24l-.93-.42.93.42 2.12 1zm-40.1 73.7a1.42 1.42 0 0 0-.34.15 1 1 0 0 0 .19.32.77.77 0 0 1 .25.85c-.14.56-.26 1.14-.38 1.71a.54.54 0 0 1-.46.46q-.62.07-1.23.12c-.81 0-1.62.08-2.42.11a2.37 2.37 0 0 0-2.11 1.49 7.29 7.29 0 0 1-.77 1.21 3.34 3.34 0 0 1-1.7 1 10.64 10.64 0 0 1-4.11.6 6.84 6.84 0 0 1-1.85-.38 2.93 2.93 0 0 1-1.85-2.45 7.25 7.25 0 0 1 1.26-5.17 9.28 9.28 0 0 1 2.44-2 5.37 5.37 0 0 1 3.08-.82c2-.13 4.07-.19 6.1-.28v.08h3.66a2.32 2.32 0 0 1 1.58.73.4.4 0 0 1 0 .53c-.24.41-.49.82-.7 1.26a.83.83 0 0 1-.64.48zm14 6.37a6.59 6.59 0 0 1-3 .63h-1.85c-1.48 0-3 0-4.45-.16a8.34 8.34 0 0 1-2.07-.5 2.61 2.61 0 0 1-.94-.68 1.09 1.09 0 0 1-.26-.77c.1-.9.22-1.8.41-2.69a18.13 18.13 0 0 1 .72-2.27 2.22 2.22 0 0 1 1.39-1.27 9.21 9.21 0 0 1 3.66-.7 2.76 2.76 0 0 1 2.13 1.17 1.31 1.31 0 0 1 0 1.46 6.59 6.59 0 0 0-.4.85 1.27 1.27 0 0 0 .44 1.46 4.38 4.38 0 0 0 .86.56.69.69 0 0 0 .49 0 3.11 3.11 0 0 1 2-.1.85.85 0 0 1 .7.84c.08.52.22 1 .35 1.56.13.35.09.45-.23.61zm58.67.21zm-39.12-6.14a11.21 11.21 0 0 1-.77 2 16.37 16.37 0 0 1-1.18 2.08 6 6 0 0 1-4.41 2.55c-.89.1-1.79.12-2.76.19-1.51-.1-3.09-.18-4.67-.32a11.53 11.53 0 0 1-2-.44 5.74 5.74 0 0 1-1.14-.56 1.26 1.26 0 0 1-.64-.84c-.21-1.21-.47-2.42-.59-3.64a2.21 2.21 0 0 1 1-2.06.69.69 0 0 0 .18-.16 4.42 4.42 0 0 1 4.15-1.27 2.53 2.53 0 0 1 2.21 2.56c0 .28-.14.56-.18.85a11.39 11.39 0 0 0-.17 1.73 1 1 0 0 0 1.11.92 2.3 2.3 0 0 0 2.27-2.07c.08-.4.13-.8.24-1.19a3.55 3.55 0 0 1 2.4-2.5 6.7 6.7 0 0 1 3.32-.26 1.91 1.91 0 0 1 1.58 2.43zm23.51.87-.51 1.33a4.94 4.94 0 0 0-.24 2.38 1.39 1.39 0 0 1-.39 1.16 2.72 2.72 0 0 1-2.08.81 3.48 3.48 0 0 1-3.49-2.72 1.75 1.75 0 0 0-.25-.49 2.72 2.72 0 0 0-.34.42 5 5 0 0 1-3.71 2.67 7.21 7.21 0 0 1-1.8.07 3 3 0 0 1-2.78-2.56 3.55 3.55 0 0 0-.08-.47.27.27 0 0 0-.14-.17.24.24 0 0 0-.19.11c-.18.29-.34.6-.52.89a4.86 4.86 0 0 1-2.14 2 4.16 4.16 0 0 1-3.76-.17 1.53 1.53 0 0 1-.77-1.86 3.5 3.5 0 0 1 .71-1.43c1-1.25 2-2.46 2.87-3.74A3.13 3.13 0 0 1 114 96a7.42 7.42 0 0 1 2.48-.31 5.52 5.52 0 0 1 2.57.43 3 3 0 0 1 1.88 2.1 1.55 1.55 0 0 0 .07.23c.06.12.13.24.2.36a1.94 1.94 0 0 0 .34-.21 9.71 9.71 0 0 1 4.66-2.8 5.27 5.27 0 0 1 3.67.48 4.81 4.81 0 0 1 1.82 1.56 1.19 1.19 0 0 1 .1 1.16zm16 8.56c.25.34.17.58-.23.7-.23.07-.45.11-.76.19a1.85 1.85 0 0 1-.41-.34c-.4-.59-.77-1.21-1.17-1.8-.14-.23-.07-.36.13-.46h.06c.71-.35.71-.36 1.22.27s.73.95 1.12 1.44zm-.75-9.47a11.89 11.89 0 0 1-1.88.21c-.64 0-1.28-.1-1.92-.14l-1.15-.07a.48.48 0 0 0-.54.38c-.19.66-.38.92.64.91a13.15 13.15 0 0 1 2.07.18 4.53 4.53 0 0 1 .9.35.85.85 0 0 1 .09 1.09 5.9 5.9 0 0 1-.55.79.9.9 0 0 1-.76.3h-2.94c-.36 0-.56.09-.57.3s.2.38.56.36l3.8-.23a.48.48 0 0 1 .54.24.66.66 0 0 1-.09.71 3.89 3.89 0 0 1-.38.43 2.16 2.16 0 0 1-.38.25 5.85 5.85 0 0 1-2.7.71c-1.17.07-2.35.14-3.53.12a24 24 0 0 1-2.92-.26 2.94 2.94 0 0 1-2.09-1.2 2.24 2.24 0 0 1-.41-1.69 7.71 7.71 0 0 1 1-2.66 4.28 4.28 0 0 1 1.41-1.63c.33-.21.69-.37 1-.55h.13a12.75 12.75 0 0 1 3.59-.37h5.63a2 2 0 0 1 1.6.88.38.38 0 0 1-.19.59zm-1.89-9.63c-.49-.69-1-1.37-1.47-2.06a1 1 0 0 1-.1-.35 1.53 1.53 0 0 1 .37 0 3.42 3.42 0 0 1 .43.21 1.18 1.18 0 0 0 1 0 4.55 4.55 0 0 1 .82-.24 1.12 1.12 0 0 1 .92.16c.31.23.64.43.93.68a1.22 1.22 0 0 1 .26.38c-.13.76-.24 1.46-.37 2.17a.4.4 0 0 1-.44.34.57.57 0 0 0-.6.41c-.17.4-.31.81-.48 1.21a1.6 1.6 0 0 0 0 1.18.88.88 0 0 1 0 .36 1.25 1.25 0 0 1-.31-.12l-1.78-1.45a.42.42 0 0 1-.12-.55c.32-.63.63-1.26 1-1.87a.43.43 0 0 0-.1-.46zm4.92 9.86a.84.84 0 0 0 .77.44c.47 0 .93 0 1.39.07a1.14 1.14 0 0 1 .34.15c-.05.1-.08.24-.16.3-.41.33-.83.64-1.25.95l-.49.35a.48.48 0 0 0 0 .78 14.92 14.92 0 0 0 1.85 1.45 11 11 0 0 0 1.93.67h.18c.52.11.58.32.26.73s-.49.74-.73 1.11-.34.39-.64.37c-.46-.11-1-.21-1.5-.37a.6.6 0 0 1-.28-.41 4.49 4.49 0 0 1-.07-.9.58.58 0 0 0-.36-.6 4.2 4.2 0 0 0-1-.45c-.65-.14-.88-.62-1.08-1.14-.1-.25-.16-.52-.24-.78a.71.71 0 0 0-.75-.61h-.12l-.39-.23c.09-.12.16-.28.28-.35a2.6 2.6 0 0 0 1.23-1.24 3.25 3.25 0 0 0 .12-.52c.06-.28.21-.35.42-.16a1.36 1.36 0 0 1 .25.39zm-.8-1.49.35.43-.35-.43c-.06 0-.13-.08-.18-.13s.08.08.14.13zm6.81-18.42c0 .2-.22.32-.34.15-.38-.53-1-.51-1.5-.85a5.08 5.08 0 0 0-.43-.27c-.29-.17-.46-.14-.65.14s-.58.86-.85 1.31a1.88 1.88 0 0 1-1.14.84 13.11 13.11 0 0 0-1.46.48.75.75 0 0 0-.34.38c-.33.91-.32.92-1.24.72-1.16-.26-2.3-.54-3.45-.81l-.36-.07c-.35 0-.54.06-.57.4a3.38 3.38 0 0 0 0 1.7v-.25.37l.47.8.21.29.06.12a2 2 0 0 0 .8.67 2 2 0 0 1-.8-.67V84c.12.14.25.26.36.4a1.35 1.35 0 0 0 1.07.53 6.34 6.34 0 0 1 1.23.13c.84.19 1.66.41 2.49.63a1.1 1.1 0 0 1 .75.69 5.39 5.39 0 0 0 1.24 1.68l1.32 1.76c.22.29.46.56.69.84.32.45.63.9 1 1.35.21.29.43.57.64.87s.08.38-.25.5c-1 .38-1.92.74-2.87 1.13s-1.68.72-2.52 1.09a1.28 1.28 0 0 1-1.54-.1 1.21 1.21 0 0 0 .35.33 1.21 1.21 0 0 1-.35-.33 2.83 2.83 0 0 0-2.19-.9.56.56 0 0 1-.65-.41c-.2-.53-.42-1-.63-1.57v-.22a1.13 1.13 0 0 1 .26 0c.06 0 .11.09.16.13l1.91 1.78a.85.85 0 0 0 .34.11.93.93 0 0 0 0-.33 17.53 17.53 0 0 1-.38-1.86 2.41 2.41 0 0 1 .56-1.71.53.53 0 0 1 .33-.2.77.77 0 0 1 .5.09c.07.06 0 .3 0 .44-.1.52-.22 1-.32 1.54a.85.85 0 0 0 .07.41c.09.22.22.43.33.65a.32.32 0 0 0 .5.16 4.38 4.38 0 0 0 .58-.37 1.88 1.88 0 0 1 1-.4l3-.25c.13 0 .32-.08.35-.17a.5.5 0 0 0-.13-.39c-1.1-1.33-2.22-2.66-3.33-4-.28-.34-.54-.35-.8 0s-.38.62-.58.92a3.67 3.67 0 0 1-.27.38h-.09v-.44c.05-.49.12-1 .15-1.47a.84.84 0 0 0-.34-.88c-.2-.11-.38-.26-.58-.39a2.07 2.07 0 0 0-2-.47 2.44 2.44 0 0 1-2-.15 11.27 11.27 0 0 0-1.3-.5h-.38a1.07 1.07 0 0 0 .1.36c.68 1 1.37 1.91 2.06 2.87a.72.72 0 0 1 .09.77c-.23.48-.48 1-.73 1.42-.12.21-.25.19-.4 0a3.52 3.52 0 0 0-.54-.61c-.5-.38-1-.72-1.53-1.07l-.64-.46c-.56-.42-1.1-.85-1.67-1.25a.44.44 0 0 0-.4 0 .7.7 0 0 0-.25.91 1 1 0 0 0 .88.61 2.86 2.86 0 0 1 1.35.69 4.9 4.9 0 0 0 .57.45 1.93 1.93 0 0 1 .77 1 .51.51 0 0 1-.24.72c-.59.39-1.19.76-1.79 1.13a.46.46 0 0 1-.61 0L137 90.29c-.34-.33-.69-.65-1-1-.19-.17-.36-.12-.51.08a1.83 1.83 0 0 0-.37 1.3c.09.78.17 1.57.22 2.35a1.24 1.24 0 0 1-.12.75c-.55.75-1.13 1.47-1.72 2.19-.23.28-.39.27-.67 0s-.3-.3-.48-.42c-.7-.47-1.41-.93-2.12-1.39-.25-.16-.29-.28-.08-.49a6.55 6.55 0 0 1 .85-.73c.67-.46 1.37-.9 2.06-1.33a.92.92 0 0 0 .51-1.09v-.9a2.18 2.18 0 0 0-.18-.65 2 2 0 0 0-.31-.4c-.37-.45-.74-.91-1.13-1.35s-.47-.32-.8 0l-.34.26-1.32 1a2.61 2.61 0 0 0-.27.19 1.64 1.64 0 0 1-1.06.45h-1c-.23 0-.33.1-.32.34s0 .44 0 .67a1.53 1.53 0 0 1-.21.92.73.73 0 0 0 0 .56c.14.36.36.7.5 1.06a1.81 1.81 0 0 1 .11.65.4.4 0 0 1-.24.28 9.09 9.09 0 0 1-1.17.12.63.63 0 0 1-.63-.61v-.48a6.49 6.49 0 0 0 0-.76c0-.27-.15-.37-.41-.27a4.15 4.15 0 0 0-.83.45 8.41 8.41 0 0 0-1 .83 2.52 2.52 0 0 0-.45.62 1.34 1.34 0 0 0 .09 1.17.52.52 0 0 1-.23.7c-.37.23-.53.2-.81 0a15.44 15.44 0 0 0-1.4-1 1.84 1.84 0 0 1-.83-.91 4.3 4.3 0 0 0-1.1-1.75 10 10 0 0 1-1.21-1.22 3.14 3.14 0 0 0-1.46-1 2.76 2.76 0 0 1-.47-.2.53.53 0 0 0-.71.13 4.28 4.28 0 0 1-.4.45c-.26.24-.43.19-.52-.15a10 10 0 0 1-.3-1.17 2.75 2.75 0 0 1 0-.95.6.6 0 0 1 .76-.52 1.25 1.25 0 0 0 1-.26l1.57-1.08a.91.91 0 0 1 .89-.09c.75.26 1.51.5 2.26.75a.84.84 0 0 0 .78-.12l1.6-1c1.13-.75 2.26-1.52 3.41-2.24a2.83 2.83 0 0 1 1.15-.4c.73-.06 1.47 0 2.21 0a1.7 1.7 0 0 1 1.46.68 1.42 1.42 0 0 0 1.48.62 4.65 4.65 0 0 1 .75-.08c.64 0 1.29-.07 1.93-.13s.84 0 1-.77c0-.11.08-.21.11-.32a8 8 0 0 0 .75-2.87 9.94 9.94 0 0 1 .11-1.33c0-.42-.05-.53-.44-.38-.79.31-1.58.65-2.37 1a7.53 7.53 0 0 0-3 1.93 4.68 4.68 0 0 1-.88.78.35.35 0 0 1-.58-.13c-.23-.46-.45-.92-.7-1.37a.62.62 0 0 1 0-.71c.41-.59.82-1.19 1.26-1.78a1 1 0 0 0 .21-.9c-.19-.56-.37-1.13-.61-1.67a1.91 1.91 0 0 1 .33-2.11c.44-.56.8-1.18 1.22-1.76a2.71 2.71 0 0 0 .5-2.44 8.08 8.08 0 0 0-.68-2.31l-1.41-2.26a1.23 1.23 0 0 1 .07-1.33c.32-.46.63-.94.91-1.43a1.22 1.22 0 0 0 .12-.6c0-.46-.09-.91-.14-1.36s.13-.63.56-.57l.9.11a.54.54 0 0 1 .54.7 3.75 3.75 0 0 1-.15.55c-.25.82-.51 1.64-.78 2.45a1 1 0 0 0 .1.87c.33.56.62 1.14 1 1.67a2.41 2.41 0 0 0 .64.62c.27.18.59.3.88.47s.34.39 0 .65-.87.78-1.3 1.17a1.54 1.54 0 0 0-.21.29c0 .09-.06.3-.06.38v2.08a2 2 0 0 0 .28.76c.47.63.49.67 1.53.24.4-.16 1.41-.63 1.41-.61A4.89 4.89 0 0 0 138 69.7c.67-.7 1.35-1.39 2.07-2a31.57 31.57 0 0 1 3.26-2.33c.44-.31.9-.61 1.35-.92.25-.18.42-.06.6.12a.38.38 0 0 1 0 .57 6 6 0 0 1-2 1.67c-.44.16-.88.29-1.32.43l-.47.14a4.23 4.23 0 0 0-1.74 1.14.32.32 0 0 0-.13.27c0 .08.14.16.24.19.35.1.71.17 1.06.26a1.41 1.41 0 0 0 1.1-.15c.73-.39 1.46-.77 2.2-1.14a1.34 1.34 0 0 1 1.55.32 14.42 14.42 0 0 1 1.23 1.25 3.13 3.13 0 0 0 .52.51.59.59 0 0 0 .49.09c.55-.28 1.09-.57 1.61-.9a1.82 1.82 0 0 0 .66-1.43c.08-.52.17-1 .26-1.55a.46.46 0 0 1 .57-.34c.62.14 1.23.3 1.84.49a1.52 1.52 0 0 1 .5.42c.29.32.55.67.85 1s.42.24.62-.08c.11-.15.18-.32.29-.46a.33.33 0 0 1 .24-.13.29.29 0 0 1 .15.22 17.55 17.55 0 0 1-.15 1.78.58.58 0 0 1-.77.39c-.66-.18-1.33-.34-2-.51a.46.46 0 0 0-.54.21 2.43 2.43 0 0 1-.54.47c-.65.42-1.31.82-2 1.23-1.16.71-2.31 1.43-3.5 2.1a1.2 1.2 0 0 1-.84 0 10.45 10.45 0 0 1-1.39-.49.88.88 0 0 0-.86.12c-.78.56-1.57 1.1-2.35 1.65a.49.49 0 0 1-.76-.13l-1.23-1.79c-.28-.4-.41-.42-.82-.16l-1.65 1.06c-.5.32-1 .08-1.45 0s-.79-.24-1.19-.38a.64.64 0 0 0-.73.19c-.82.89-1.65 1.77-2.47 2.67-.07.08-.07.24-.1.36.14 0 .3.1.41 0 .83-.37 1.65-.76 2.47-1.14a.49.49 0 0 1 .64.1.62.62 0 0 0 .77.12c.54-.2 1.08-.4 1.62-.58a.9.9 0 0 1 1.07.28c.15.17.33.32.48.49a6.89 6.89 0 0 0 2.48 1.41.85.85 0 0 0 1.18-.26 1.92 1.92 0 0 1 1.53-.65c.8-.09 1.59-.22 2.39-.34a2.54 2.54 0 0 1 1.19.13c.87.3 1.74.57 2.62.83a.77.77 0 0 0 .51-.09 5.87 5.87 0 0 0 .72-.6l2.08-1.74c.17-.14.32-.28.49-.41a.29.29 0 0 1 .47.09l1 1.58c.1.16.21.3.3.46s.31.51.45.78.24.31.49.17.41-.13.43.18a9.89 9.89 0 0 1 .04 1.48zm-24.5 8.83h.06l.67.72-.67-.72h-.22.22zm-.06 5.1c-.12.1-.24.21-.36.3l-.69.55.69-.55c.08-.09.2-.2.32-.3zm4.38-18.68h-.09zm-.66-.18h-.2z"/>
	<path fill="#3a73be" d="M80.9 87.13a4.1 4.1 0 0 0 .19 1.12 3.35 3.35 0 0 0 .66.81.27.27 0 0 0 .48 0 1.42 1.42 0 0 0 .17-.35c.2-.5.41-1 .6-1.5a1.66 1.66 0 0 0 .17-.74c-.07-.58-.21-1.15-.33-1.72-.06-.29-.25-.39-.49-.23-.84.52-1.62 1.08-1.46 2.25a2.51 2.51 0 0 0 .01.36zm60.27-6.94c-.25-.2-.52-.37-.79-.55a.61.61 0 0 0-.78 0l-1.6 1.24a1.91 1.91 0 0 0-.44.41c-.53.76-1 1.53-1.55 2.31a1.38 1.38 0 0 0-.19.56c-.06.45-.08.9-.11 1.35a.29.29 0 0 0 .34.36c.26 0 .52-.05.78-.05a1.33 1.33 0 0 0 1.12-.7c.54-.74 1.13-1.44 1.71-2.15.07-.09.27-.18.35-.13a.44.44 0 0 1 .2.35 1.3 1.3 0 0 1-.2.61c-.23.34-.53.63-.78 1-.09.12-.2.37-.15.41a.93.93 0 0 0 .46.21c.37.05.74.06 1.11.1s.48 0 .6-.36.19-.55.28-.83l.25-.84c-.12-1-.23-2-.35-2.89a.67.67 0 0 0-.26-.41zM69.35 97.15c-.19-.05-.3.07-.33.27a.44.44 0 0 0 .48.54h1.9a1.3 1.3 0 0 0 .34-.08v-.07c-.81-.25-1.6-.47-2.39-.66z"/>
	<path fill="#c69542" d="M124.87 65.46h-1.45a.47.47 0 0 1-.29-.12c-.3-.25-.18-.56-.09-.86.33-1.2.65-2.4 1-3.59a.67.67 0 0 0-.17-.69 2.38 2.38 0 0 0-.33-.31c-.89-.62-1.78-1.23-2.68-1.83a.44.44 0 0 0-.4 0c-.81.59-1.61 1.21-2.41 1.82-.4.29-.66.24-1-.13a1.65 1.65 0 0 0-.7-.55 2.81 2.81 0 0 0-1.19 0c-.52.11-.79 0-.87-.55-.11-.71-.22-1.43-.32-2.15 0-.31-.24-.41-.51-.24a3.53 3.53 0 0 1-.5.28c-.87.34-1.75.65-2.63 1a.93.93 0 0 1-1-.17c-.22-.18-.47-.32-.69-.49s-.36-.11-.45.1-.28.65-.42 1a2.13 2.13 0 0 1-.23.56c-.45.6-.6.91-1.44.38a6.31 6.31 0 0 1-.58-.44c-.27-.22-.49-.15-.58.19s-.13.47-.19.7a1.31 1.31 0 0 1-2.07.75c-.3-.21-.61-.4-.92-.59-.57-.35-1.16-.68-1.73-1-.29-.19-.45-.21-.67.07a5.84 5.84 0 0 0-.53.77c-.38.64-.75 1.29-1.12 1.93l-.48.77-.3.61c-.14.53-.29 1.06-.42 1.6-.06.26-.19.4-.45.39a3.88 3.88 0 0 1-.48 0l-.89-.14a2.84 2.84 0 0 0-1.39 0l-1.23.47-.39.13c-.21.08-.33.24-.18.42a2.16 2.16 0 0 1 .32.75 9.64 9.64 0 0 0 .44 1c.09.21.17.43.26.64l.3.49a.93.93 0 0 1-.28 1.06 4.13 4.13 0 0 0-.34.39c-.31.41-.23.64.24.86a10.54 10.54 0 0 1 1.18.67.4.4 0 0 1 .12.62.76.76 0 0 1-.77.33 1.29 1.29 0 0 0-1.26.66c-.43.63-.9 1.24-1.35 1.86a4.48 4.48 0 0 0-.35.6.28.28 0 0 0 .16.42 9.6 9.6 0 0 0 1 .27 1.29 1.29 0 0 1 .87.44c.36.47.72.94 1.07 1.43.11.16.18.36.3.52a1.35 1.35 0 0 0 1 .41q.76.14.27.72c-.34.39-.71.77-1 1.17s-.18.51.16.68.73.3 1.09.45c.11.1.25.17.3.29a.63.63 0 0 1 0 .46 13.07 13.07 0 0 1-.7 1.12c-.23.37-.17.51.25.6a5.38 5.38 0 0 1 1 .22 1.4 1.4 0 0 0 1.22-.13c.68-.3 1.39-.65 2.15-.16a.34.34 0 0 0 .14 0l.12.1c.42.31.41.39.33.89a15.63 15.63 0 0 0-.12 1.68 1.77 1.77 0 0 0 0 .23 3.71 3.71 0 0 0-.82 0c-.47.13-.93.33-1.39.5a1.06 1.06 0 0 1-1-.08l-4.23-2.51a.54.54 0 0 0-.7 0c-.32.34-.6.72-.9 1.08l-.67.48v.07l.47-.12.1.06a1.19 1.19 0 0 0-.21 1.51v-.12c-.09-.34-.2-.68.11-1s.8-.8 1.2-1.2a.52.52 0 0 1 .66-.09l.33.16a.38.38 0 0 0 .11.11l3.81 2.39a.57.57 0 0 0 .4.06c.56-.18 1.12-.36 1.65-.59a.87.87 0 0 1 .91.08l.41.31 2.57 1.87c.29.21.42.18.68-.08l1.07-1.12a1.65 1.65 0 0 1 .42-.33h.29a.88.88 0 0 1-.09.26l-1.34 1.26a2.26 2.26 0 0 0-.23.31h.06l.37-.37 1-1 .24-.18a.35.35 0 0 0 .24-.5q-.11-.35.27-.24l.66.2c.46.14.93.26 1.39.41s.4.27.17.54-.46.48-.7.71a6.45 6.45 0 0 1-2 1.69 2.23 2.23 0 0 0-1.47 1.72c-.06.35 0 .46.38.43a20.24 20.24 0 0 1 2-.1 14.48 14.48 0 0 1 1.84.33l.31.09c.19 0 .25-.07.2-.23s-.12-.16-.16-.25a2.75 2.75 0 0 1-.23-.6 1.9 1.9 0 0 1 0-.63 1.3 1.3 0 0 1 .24-.62 3.48 3.48 0 0 1 .69-.58c.22-.16.38-.09.44.18a6.17 6.17 0 0 1 .11.62 1.08 1.08 0 0 0 .51.78 5.47 5.47 0 0 1 .67.52c.38.32.56.31.93 0s.63-.59 1-.86a.5.5 0 0 0 .19-.62 10.5 10.5 0 0 0-.58-1l.39.82a.48.48 0 0 1-.16.71l-.92.77a.47.47 0 0 1-.63.09 5.48 5.48 0 0 1-1-.78 2.06 2.06 0 0 1-.27-.78 1.48 1.48 0 0 1 0-.3c0-.42-.26-.55-.64-.36a1.87 1.87 0 0 0-1.08 2 2.45 2.45 0 0 1 0 .27c0 .31-.11.42-.41.36a11.69 11.69 0 0 0-2.71-.15 2.43 2.43 0 0 0-.47.08c-.34.06-.49-.06-.46-.4a1.11 1.11 0 0 1 .51-.85c.23-.15.47-.28.71-.42a11.88 11.88 0 0 0 2.56-2.24.82.82 0 0 1 1-.27.75.75 0 0 0 .93-.24.6.6 0 0 1 .82-.11 4.85 4.85 0 0 1 1 .58 6.24 6.24 0 0 1 .72 1c0 .08.1.17.16.25a5.88 5.88 0 0 0-.26-.74 1.34 1.34 0 0 0-.4-.57 16.07 16.07 0 0 0-1.61-.8c-.22-.1-.23-.2-.12-.36l.33-.44.66-.6.79-.85h-.12a.07.07 0 0 0-.06 0c-.45.47-.89 1-1.34 1.43-.22.22-.45.43-.66.66a1 1 0 0 1-1 .22c-1-.28-2-.58-3.07-.91-.61-.19-.72-.19-1.15.29l-1 1.14a.51.51 0 0 1-.73 0l-1.4-.95-.08-.07-.46-.39.46.39c-.58-.52-.62-1.3-.86-2a1.54 1.54 0 0 1 0-.63c.07-.38.16-.76.24-1.15a.37.37 0 0 0-.25-.43 14.69 14.69 0 0 0-1.39-.66 1.26 1.26 0 0 0-.72 0c-.48.13-.93.34-1.39.51h-.06a1.85 1.85 0 0 1-1.25-.45.48.48 0 0 1 0-.4c.18-.33.4-.64.58-1a.36.36 0 0 0-.19-.53l-1.18-.62c-.27-.14-.32-.3-.13-.55s.24-.28.35-.42c.31-.37.62-.73.92-1.11.16-.19.1-.38-.16-.47s-.69-.22-1-.3a1.32 1.32 0 0 1-.84-.54c-.45-.63-.91-1.25-1.38-1.87a1.23 1.23 0 0 0-1-.44c-.15 0-.36.1-.4-.12a.8.8 0 0 1 .09-.53c.28-.42.6-.81.9-1.21.15-.19.28-.4.42-.59a1 1 0 0 1 1-.44 1 1 0 0 0 1-.39c.55-.68.53-.82-.2-1.31-.28-.19-.58-.36-.87-.55s-.41-.42-.11-.76c.63-.76.61-.83.12-1.67s-.77-1.27-1.07-2a.51.51 0 0 1 .45-.76 1.09 1.09 0 0 0 .3-.07l1-.35L96 65c.44.07.59 0 .72-.42s.18-.86.34-1.26A20.82 20.82 0 0 1 99.49 59a.38.38 0 0 1 .6-.12c.84.54 1.69 1.06 2.54 1.59a1.45 1.45 0 0 0 1 .22 1.5 1.5 0 0 0 1.48-1.36c.08-.45.34-.51.73-.24a2.08 2.08 0 0 0 1.31.5 1.46 1.46 0 0 1-.15.35 7.7 7.7 0 0 1-1 1.13 13 13 0 0 1-1.53 1 1.22 1.22 0 0 0-.76 1.11v.87c0 .29-.13.43-.46.31a2.32 2.32 0 0 0-.36-.16 5.43 5.43 0 0 0-1-.25.59.59 0 0 0-.7.55c-.09.44-.16.89-.21 1.34s-.19.64-.68.64H99c-.35 0-.56.22-.49.51s.22.75.34 1.13c0 .08 0 .17.07.26l.61 1.83a.88.88 0 0 1-.23.87c-.13.14-.29.26-.42.39a1.66 1.66 0 0 0-.68 1.17v5.79a.82.82 0 0 0 .39.74l2.65 1.7a.6.6 0 0 0 .76 0 1.73 1.73 0 0 1 1-.34c.26 0 .43.09.42.35 0 .74-.07 1.47-.15 2.2 0 .41 0 .62.4.81l.84.68a.68.68 0 0 0 .8 0c.22-.13.47-.22.69-.37a.82.82 0 0 1 .8-.07c.42.16.86.3 1.29.44a3 3 0 0 0 .4.2c.48.16 1 .29 1.44.47a1.77 1.77 0 0 0 1.18 0l1.37-.48a.79.79 0 0 0 .64-.9c0-.33 0-.67.06-1a.5.5 0 0 1 .47-.45 2.94 2.94 0 0 0 .59-.12c.57-.23.67-.2 1.12.22s.86.8 1.3 1.18a.72.72 0 0 0 .87.08c.14-.08.3-.14.43-.23a1 1 0 0 0 .58-.77c.08-.62.14-1.24.21-1.86l.06-.42a2 2 0 0 0 .1-.35 1.27 1.27 0 0 1 1-1c.87-.23 1.73-.49 2.58-.76.5-.15.58-.35.44-.87s-.27-1-.36-1.53c-.22-1.25-.4-2.51-.64-3.76a1.43 1.43 0 0 1 .23-1.17c.48-.67 1-1.36 1.43-2.06a.53.53 0 0 0 0-.43 2.27 2.27 0 0 0-.4-.49c-.75-.77-1.52-1.53-2.26-2.31a3.29 3.29 0 0 0-1.75-1.22c-.17 0-.34-.12-.51-.17-.43-.15-.51-.27-.5-.7v-.7a1 1 0 0 0-.35-.8c-.38-.37-.77-.72-1.14-1.09a.66.66 0 0 0-.74-.2 3.39 3.39 0 0 0-.83.35 1.26 1.26 0 0 1-1.56 0 2.07 2.07 0 0 0-.34-.15 1.68 1.68 0 0 0-1.72 0 9 9 0 0 1-1.18.46c-.31.1-.43 0-.44-.34a1.62 1.62 0 0 1 0-.22.75.75 0 0 0-.58-.86l-1.84-.61c-.09 0-.22-.12-.23-.18a.37.37 0 0 1 .16-.26 1.58 1.58 0 0 0 .63-.79l.21-.6a.42.42 0 0 1 .72-.22c.13.11.23.23.35.34a.74.74 0 0 0 .78.2c.55-.18 1.09-.36 1.62-.59a12 12 0 0 0 1.13-.58c.44-.25.71-.17.84.31a8.9 8.9 0 0 1 .19 1.15v.7a.54.54 0 0 0 .71.53l.24-.06c.73 0 1.48-.23 2 .59.41.65.64.64 1.25.17l2.16-1.65c.18-.15.37-.29.62-.13a13.23 13.23 0 0 1 2.62 1.89.57.57 0 0 1 .15.61c-.18.54-.34 1.09-.49 1.65-.21.76-.37 1.55-.63 2.3-.17.45 0 .66.47.66.6 0 1.2.08 1.81.11h.34v-.1a1.71 1.71 0 0 0-.23-.1zM97.24 88l-.3.12h-.2.2l.3-.12.76-.2zm2-3.58.32.17-.32-.17zM95 82l-.15-.07zm12.9-21.76 1.11.28a.8.8 0 0 1 .52.83 2.51 2.51 0 0 0 0 .27c0 .48.22.65.67.49a12.14 12.14 0 0 0 1.18-.48 2.24 2.24 0 0 1 2.3.12l.35.17a.8.8 0 0 0 .75 0 6.48 6.48 0 0 1 1.07-.5.8.8 0 0 1 .65.06 7.39 7.39 0 0 1 1.25 1.25c.18.24.13.65.17 1V64c0 .44.06.57.48.71l.23.06a3.41 3.41 0 0 1 1.88 1.07c.79.93 1.66 1.78 2.51 2.66a.5.5 0 0 1 0 .71c-.35.51-.7 1-1.06 1.51a1.83 1.83 0 0 0-.38 1.5c.31 1.67.58 3.36.87 5 .11.67.12.67-.52.88l-2.6.83a.86.86 0 0 0-.67.79c-.14.93-.3 1.87-.46 2.8a1.1 1.1 0 0 1-.48.74.73.73 0 0 1-1 0l-1.24-1.11a1 1 0 0 0-1.16-.26c-.33.13-.69.15-1 .25s-.49.29-.5.7v1a.52.52 0 0 1-.38.57 9 9 0 0 1-1.56.46 4 4 0 0 1-1.36-.19c-.59-.16-1.15-.37-1.72-.56-.36-.14-.7-.3-1.06-.42a.82.82 0 0 0-.49 0 7 7 0 0 0-.7.4.76.76 0 0 1-.69.25.76.76 0 0 0 .69-.25c-.3.13-.59.27-.92 0s-.93-.59-.84-1.27a5 5 0 0 0 0-.67v.17V82c.08-.49.16-1 .23-1.46a.31.31 0 0 0-.35-.39 6.82 6.82 0 0 0-1.57.2 1.08 1.08 0 0 1-1-.08l-2-1.33a.94.94 0 0 1-.38-.88c0-1.81 0-3.61.07-5.42a1.44 1.44 0 0 1 .35-.71 10.44 10.44 0 0 1 .73-.76.89.89 0 0 0 .22-1c-.21-.56-.4-1.12-.59-1.69l-.11-.21.11.21c-.09-.32-.2-.63-.27-1s.1-.63.56-.59a7.37 7.37 0 0 0 1 0 .48.48 0 0 0 .48-.42c.12-.54.25-1.08.37-1.62s.38-.67.87-.44.74.36 1.11.54a.38.38 0 0 0 .61-.35v-1.36a.92.92 0 0 1 .53-.91 11.88 11.88 0 0 0 1.48-.93 5.29 5.29 0 0 0 .9-.93.71.71 0 0 1 .76-.23z"/>
	<path fill="#c69542" d="M106.29 65.26c-.6.47-1.15 1-1.73 1.51a.76.76 0 0 0-.29.7c.06.65.13 1.3.18 2s0 .76-.67.52c-.26-.08-.52-.13-.71.09-.5.62-1 1.25-1.48 1.88a.39.39 0 0 0 0 .5 9.87 9.87 0 0 1 .64 1 2.31 2.31 0 0 1 .3.75c.16.78.26 1.58.42 2.36a1 1 0 0 0 .3.54c.38.38.79.74 1.2 1.1l1 .83c.2.18.36.12.51-.07l.21-.3a.92.92 0 0 1 .89-.45h.94a.9.9 0 0 1 .75.32c.46.51.93 1 1.39 1.51a.8.8 0 0 0 .69.3H112a.77.77 0 0 0 .78-.47c.23-.42.48-.84.72-1.26a.66.66 0 0 1 .69-.39.84.84 0 0 0 1-.57.71.71 0 0 1 .71-.48h.72a.57.57 0 0 0 .62-.53c.06-.41.11-.82.18-1.23a24.06 24.06 0 0 1 .91-4.68c.32-.85.09-.87-.61-1a.68.68 0 0 1-.58-.63c-.07-.45-.14-.89-.2-1.34s-.14-.43-.47-.43h-1.39a1.12 1.12 0 0 1-.9-.37c-.43-.46-.87-.92-1.27-1.41a1.13 1.13 0 0 0-1-.46h-4.81a1.53 1.53 0 0 0-.81.16zm2.43 1.34a1 1 0 0 1 .83-.35H112a.46.46 0 0 1 .31.09 12.92 12.92 0 0 1 1.88 1.75 8.63 8.63 0 0 0 1.18 1.07c.34.3.69.57 1 .88s.1.46-.06.62a2.28 2.28 0 0 0-.56 1.7 15.8 15.8 0 0 1-.13 2.17 2.61 2.61 0 0 1-.39.83 5.6 5.6 0 0 1-.54.88 1.06 1.06 0 0 1-.59.35c-.84.14-1.7.23-2.54.34s-1.41.23-2.12.26a16.22 16.22 0 0 1-1.84-.11.43.43 0 0 1-.42-.37c-.06-.21-.08-.43-.14-.65a12.72 12.72 0 0 0-.47-1.84 4.54 4.54 0 0 0-.8-1.24 1.41 1.41 0 0 1-.37-1.1v-.49c0-.39 0-.78-.07-1.17s.28-.82.62-1.11c.61-.53 1.25-1 1.86-1.59a9.46 9.46 0 0 0 .91-.92z"/>
	<path d="M116.39 70c-.33-.31-.68-.58-1-.88a8.63 8.63 0 0 1-1.18-1.07 12.92 12.92 0 0 0-1.88-1.75.46.46 0 0 0-.31-.09h-2.45a1 1 0 0 0-.83.35 9.46 9.46 0 0 1-.87.92c-.61.55-1.25 1.06-1.86 1.59-.34.29-.68.58-.62 1.11s0 .78.07 1.17v.49a1.41 1.41 0 0 0 .37 1.1 4.54 4.54 0 0 1 .8 1.24 12.72 12.72 0 0 1 .47 1.84c.06.22.08.44.14.65a.43.43 0 0 0 .42.37 16.22 16.22 0 0 0 1.84.11c.71 0 1.41-.17 2.12-.26s1.7-.2 2.54-.34a1.06 1.06 0 0 0 .59-.35 5.6 5.6 0 0 0 .54-.88 2.61 2.61 0 0 0 .39-.83 15.8 15.8 0 0 0 .13-2.17 2.28 2.28 0 0 1 .56-1.7c.12-.12.24-.37.02-.62zm-.35.75a1.52 1.52 0 0 0-.51 1.18c0 .12-.11.23-.17.35a1.22 1.22 0 0 1-.23-.29c-.17-.56-.34-1.12-.48-1.68a2.07 2.07 0 0 0-.63-1l-1.12-1.06a1.15 1.15 0 0 0-.87-.36h-1.67a.7.7 0 0 0-.62.3l-1.35 1.9c-.51.73-1 1.46-1.55 2.17a.62.62 0 0 0-.06.77l1 1.59c.13.19.27.38.38.58a.8.8 0 0 0 .79.45h.85v.07l2.82-.35.9-.09a1 1 0 0 0 .81-.51c.26-.44.49-.9.75-1.34a.91.91 0 0 1 .28-.23 1.89 1.89 0 0 1 .09.34v.45a3 3 0 0 1-.73 2 1 1 0 0 1-.74.41c-.89.08-1.78.19-2.67.29a1.79 1.79 0 0 0-.53.12 2.87 2.87 0 0 1-1.89.17l-1-.14a.57.57 0 0 1-.53-.49c-.13-.62-.28-1.22-.4-1.84a2.27 2.27 0 0 0-.57-1.08 4.41 4.41 0 0 1-.64-.8 2 2 0 0 1-.23-.83v-1.54a1.5 1.5 0 0 1 .75-1.24 15.12 15.12 0 0 0 2.28-2c.08-.1.17-.18.24-.27a1.06 1.06 0 0 1 .79-.39h2.43a.78.78 0 0 1 .47.21c.33.3.63.63 1 .94L116 70c.34.34.35.49 0 .79zm-3.5.13c-.08.52-.16 1-.21 1.55-.06.75-.25 1-1 1-.22 0-.43.09-.65.12a1.11 1.11 0 0 1-.36 0 1.3 1.3 0 0 1-.84-1.55c.16-.41.36-.8.54-1.21a.66.66 0 0 1 .7-.42h1.48c.29.14.38.28.34.55z" fill="#f1ac53"/>
	<path d="m109.8 75.71 2.82-.35.9-.09a1 1 0 0 0 .81-.51c.26-.44.49-.9.75-1.34a.91.91 0 0 1 .28-.23 1.89 1.89 0 0 1 .09.34v.45a3 3 0 0 1-.73 2 1 1 0 0 1-.74.41c-.89.08-1.78.19-2.67.29a1.79 1.79 0 0 0-.53.12 2.87 2.87 0 0 1-1.89.17l-1-.14a.57.57 0 0 1-.53-.49c-.13-.62-.28-1.22-.4-1.84a2.27 2.27 0 0 0-.57-1.08 4.41 4.41 0 0 1-.64-.8 2 2 0 0 1-.23-.83v-1.54a1.5 1.5 0 0 1 .75-1.24 15.12 15.12 0 0 0 2.28-2c.08-.1.17-.18.24-.27a1.06 1.06 0 0 1 .79-.39h2.43a.78.78 0 0 1 .47.21c.33.3.63.63 1 .94L116 70c.31.3.32.45 0 .75a1.52 1.52 0 0 0-.51 1.18c0 .12-.11.23-.17.35a1.22 1.22 0 0 1-.23-.29c-.17-.56-.34-1.12-.48-1.68a2.07 2.07 0 0 0-.63-1l-1.12-1.06a1.15 1.15 0 0 0-.87-.36h-1.67a.7.7 0 0 0-.62.3l-1.35 1.9c-.51.73-1 1.46-1.55 2.17a.62.62 0 0 0-.06.77l1 1.59c.13.19.27.38.38.58a.8.8 0 0 0 .79.45h.85z" fill="#f1f1f1"/>
	<path fill="#fff0be" d="M99.25 84.42zm31.55-14.87a18.27 18.27 0 0 0-.33-1.94 8.19 8.19 0 0 0-.51-1.19c-.45-.73-.9-1.46-1.34-2.19a1 1 0 0 1-.06-1 .52.52 0 0 0-.1-.64c-.31-.31-.62-.63-.91-1a1.43 1.43 0 0 1-.3-.48c-.16-.49-.28-1-.44-1.48a1.17 1.17 0 0 0-.31-.53c-.58-.42-1.17-.82-1.78-1.19a1.11 1.11 0 0 1-.59-.76c-.12-.59-.27-1.17-.4-1.76-.09-.37-.21-.43-.59-.36l-1.51.26a.87.87 0 0 1-.85-.35c-.9-1-1.82-2-2.76-3a1.09 1.09 0 0 0-.57-.3c-.8-.17-1.6-.3-2.41-.44a.53.53 0 0 0-.59.2c-.17.26-.36.51-.51.78a1.2 1.2 0 0 1-.75.61c-.57.16-1.14.34-1.7.54a.69.69 0 0 1-.85-.19 2.08 2.08 0 0 0-1.9-.67.71.71 0 0 0-.44.25c-.33.39-.61.82-.94 1.21a.77.77 0 0 1-.46.24 3.62 3.62 0 0 1-1.09-.07 1.62 1.62 0 0 1-.66-.42 2.6 2.6 0 0 1-.55-.72 1 1 0 0 0-1.11-.51.37.37 0 0 0-.38.3c-.13.5-.29 1-.41 1.49a1.34 1.34 0 0 1-.51.73l-.67.55-.39.33a2.23 2.23 0 0 1-.6.16h-3.09a1.14 1.14 0 0 0-1 .52A22 22 0 0 1 95 58.28a6.23 6.23 0 0 0-1.19 2.15c-.37.92-.73 1.83-1.11 2.75a.61.61 0 0 1-.74.42.93.93 0 0 0-.9.37c-.63.81-1.31 1.58-1.94 2.39a.7.7 0 0 0-.08.55c.17.52.42 1 .6 1.52a.56.56 0 0 1 0 .46c-.49.61-1 1.2-1.5 1.78a1.49 1.49 0 0 1-.14.12l-.12.18c-.22.36-.44.72-.67 1.07s-.58.89-.88 1.33a1 1 0 0 1-.15.14l-.31.43-.06.17a5.11 5.11 0 0 0-.1 1 9.59 9.59 0 0 1 0 2.78c-.06.39.17.59.56.55a7.31 7.31 0 0 1 .81 0c.45 0 .59.16.59.61v3.33a8.87 8.87 0 0 0 .14 1.14c.14.81.33 1.62.45 2.43a1 1 0 0 0 1.2.94l.5-.11.67-.48c.3-.36.58-.74.9-1.08a.54.54 0 0 1 .7 0l4.19 2.54a1.06 1.06 0 0 0 1 .08c.46-.17.92-.37 1.39-.5a3.71 3.71 0 0 1 .82 0 1.77 1.77 0 0 1 0-.23 15.63 15.63 0 0 1 .12-1.68c.08-.5.09-.58-.33-.89l-.12-.1a.34.34 0 0 1-.14 0c-.76-.49-1.47-.14-2.15.16a1.4 1.4 0 0 1-1.18.07 5.38 5.38 0 0 0-1-.22c-.42-.09-.48-.23-.25-.6a13.07 13.07 0 0 0 .7-1.12.63.63 0 0 0 0-.46c-.05-.12-.19-.19-.3-.29-.36-.15-.73-.29-1.09-.45s-.4-.39-.16-.68.7-.78 1-1.17.24-.63-.27-.72a1.35 1.35 0 0 1-1-.41c-.12-.16-.19-.36-.3-.52-.35-.49-.71-1-1.07-1.43a1.29 1.29 0 0 0-.87-.44 9.6 9.6 0 0 1-1-.27.28.28 0 0 1-.16-.42 4.48 4.48 0 0 1 .35-.6c.45-.62.92-1.23 1.35-1.86A1.29 1.29 0 0 1 93 72.3a.76.76 0 0 0 .77-.33.4.4 0 0 0-.12-.62 10.54 10.54 0 0 0-1.18-.67c-.47-.22-.55-.45-.24-.86a4.13 4.13 0 0 1 .34-.39.93.93 0 0 0 .28-1.06l-.3-.49c-.42-.81-.86-1.62-1.25-2.45a.52.52 0 0 1 .1-.43 1 1 0 0 1 .46-.28c.51-.15 1-.28 1.54-.4a6 6 0 0 1 2.19.11c.55.06.71 0 .86-.52 0-.16.07-.32.12-.47a11 11 0 0 1 .43-1.27c.29-.59.63-1.17 1-1.74s.86-1.33 1.32-2c.22-.31.48-.32.81-.1.92.58 1.84 1.16 2.77 1.73a1.59 1.59 0 0 0 1.48-.21.76.76 0 0 0 .14-.3c.08-.31.15-.62.24-.93.16-.5.52-.58.92-.24a6.63 6.63 0 0 0 .83.55.39.39 0 0 0 .52-.07 2.36 2.36 0 0 0 .72-1.06 7.42 7.42 0 0 1 .42-1c.13-.28.32-.32.58-.11s.37.31.54.47a1 1 0 0 0 1 .27c.72-.29 1.43-.57 2.13-.88.35-.15.67-.36 1-.5s.55 0 .61.39c.1.74.21 1.47.33 2.21.06.38.21.46.59.43a10.27 10.27 0 0 1 1.24 0 .76.76 0 0 1 .4.18 5.62 5.62 0 0 1 .44.41c.39.38.52.39 1 .07.68-.52 1.36-1.05 2-1.56.42-.3.58-.53 1.08 0a.27.27 0 0 0 .1.06A17.76 17.76 0 0 1 124 60.1a.59.59 0 0 1 .28.68c-.24.76-.49 1.53-.72 2.3-.16.51-.33 1-.46 1.54-.1.36.08.51.46.53.79 0 1.57.11 2.35.18a.48.48 0 0 1 .47.53v1.74c0 .39.19.64.52.63s.88 0 1.32 0c.23 0 .47.09.47.33a2.59 2.59 0 0 1-.72 1.9l-1.26 1.22a.37.37 0 0 0 0 .62c.12.11.25.19.37.3a7.25 7.25 0 0 1 .91.84c.27.34.4.38.67 0 .51-.72 1-1.44 1.52-2.19a2.49 2.49 0 0 0 .62-1.7zm-2.9 10.81c-.35-.31-.38-.47-.15-.86.1-.16.21-.32.3-.49s.07-.23.14-.43a2.87 2.87 0 0 0-.42.14c-.49.26-1 .51-1.45.8-.63.39-1.26.8-1.87 1.22-.29.21-.31.38-.1.67s.41.52.63.78.34.17.56.07a2.14 2.14 0 0 1 .74-.2h1.78c.42 0 .5-.15.33-.53s-.33-.78-.49-1.17z"/>
	<path d="M137.39 56.87a31.76 31.76 0 0 0-.49-5.42c-.24-1.18-.45-2.38-.77-3.54s-.75-2.22-1.13-3.33a30.29 30.29 0 0 0-2.93-5.93 27.65 27.65 0 0 0-3.07-4.23c-.43-.47-.82-1-1.25-1.47-.26-.29-.59-.53-.85-.82a21.24 21.24 0 0 0-3.08-2.76c-1.09-.83-2.24-1.58-3.33-2.4a19 19 0 0 0-2.87-1.56c-1.1-.57-2.24-1.06-3.37-1.54-.67-.29-1.36-.51-2-.75s-1.15-.33-1.72-.47c-.78-.2-1.57-.39-2.35-.55-.56-.11-1.12-.18-1.68-.25-.78-.09-1.56-.18-2.34-.24s-1.67-.13-2.51-.12a34.62 34.62 0 0 0-5.92.5c-.58.1-1.17.14-1.74.27-1 .23-1.93.49-2.88.78s-1.88.6-2.81.95c-.74.28-1.47.61-2.18 1s-1.7.81-2.5 1.29S81.78 27.4 80.9 28a28.42 28.42 0 0 0-4.41 3.62c-1 1-2 2-2.89 3.13a47.83 47.83 0 0 0-3.25 4.65 16.64 16.64 0 0 0-.94 1.83c-.46 1-.91 1.92-1.36 2.87a.4.4 0 0 0 .13.54c.16.13.34.25.51.37a.62.62 0 0 1 .31.7c-.18.63-.39 1.25-.59 1.88 0 .17-.08.35-.13.52-.13.53-.28 1-.39 1.59-.09.38.06.55.46.55h2a.93.93 0 0 0 .92-.56c.23-.45.43-.91.66-1.36s.51-.94.76-1.41.33-.54.79-.48a.56.56 0 0 0 .18 0v-2.28a1.19 1.19 0 0 1 .26-.61 4.33 4.33 0 0 1 .58-.55l.11-.07.19-.13a4 4 0 0 1 .28-.3c.55-.5 1.1-1 1.67-1.49.8-.67 1.6-1.34 2.42-2a1.47 1.47 0 0 1 .6-.26c1.29-.21 2.6-.34 3.88-.62a11.6 11.6 0 0 1 3.48.11c1.58.13 3.17.29 4.74.54A7.48 7.48 0 0 1 94.39 40l2.11 1c1 .48 1.9 1 2.84 1.47a1.09 1.09 0 0 0 .79.09c.58-.14 1.16-.24 1.75-.36.33-.07.51.12.63.39.27.6.55 1.19.81 1.79a1.1 1.1 0 0 0 .59.61l6.52 3.05 4 1.85c.53.24 1 .55 1.56.74a9.43 9.43 0 0 0 1.6.31 1.22 1.22 0 0 1 .85.47 3.45 3.45 0 0 0 1.56 1.1c.49.22 1 .47 1.46.71l1.7.72a5.07 5.07 0 0 0 .65.24.75.75 0 0 1 .57.62c.13.69.25 1.37.43 2a1.25 1.25 0 0 0 .48.59 15.9 15.9 0 0 0 1.44.84 1.12 1.12 0 0 1 .61.7c.16.57.33 1.14.52 1.7a1.35 1.35 0 0 0 .27.5 7 7 0 0 0 .66.67c.26.24.43.2.65-.07a1.5 1.5 0 0 0 .31-1.25c-.08-.53-.16-1.06-.25-1.59s.1-.65.58-.57l2.24.37c.55.1.66.33.48.86-.37 1-.72 2.07-1.06 3.12a1.06 1.06 0 0 0 .11 1 5 5 0 0 0 1.24 1.72c.7.45 1.47.79 2.21 1.17a.22.22 0 0 0 .14 0c.64.08.8 0 .94-.64a28.74 28.74 0 0 0 .91-6.19c.02-.93.13-1.9.1-2.86z" fill="#bdcead"/>
	<path d="M128.87 62.06h-.05a6.45 6.45 0 0 1-1-1.14 16.27 16.27 0 0 1-.57-1.75 1.26 1.26 0 0 0-.42-.59c-.49-.35-1-.65-1.54-1a1.36 1.36 0 0 1-.73-1c-.1-.6-.2-1.19-.34-1.78a.77.77 0 0 0-.34-.45c-.6-.32-1.22-.59-1.82-.88l-.62-.31c-.49-.24-1-.49-1.46-.71a3.45 3.45 0 0 1-1.57-1.08 1.22 1.22 0 0 0-.85-.47 9.43 9.43 0 0 1-1.6-.31c-.54-.19-1-.5-1.56-.74l-4-1.85-6.49-3a1.1 1.1 0 0 1-.59-.61c-.26-.6-.54-1.19-.81-1.79-.12-.27-.3-.46-.63-.39-.59.12-1.17.22-1.75.36a1.09 1.09 0 0 1-.79-.09c-.94-.49-1.89-1-2.84-1.47L94.39 40l-1.1-.54 1.1.54A7.48 7.48 0 0 0 92 38.77c-1.57-.25-3.16-.41-4.74-.54a11.6 11.6 0 0 0-3.48-.11c-1.28.28-2.59.41-3.88.62a1.47 1.47 0 0 0-.6.26c-.82.66-1.62 1.33-2.42 2-.57.49-1.12 1-1.67 1.49a4 4 0 0 0-.28.3l-.19.13a2.67 2.67 0 0 1-.38.44 1.17 1.17 0 0 0-.53 1v1.85a1.14 1.14 0 0 1-.06.45.39.39 0 0 0 .14.5 1.75 1.75 0 0 1 .24.23c.57.65 1.15 1.3 1.7 2 .37.43.75.84.5 1.51-.07.16.08.48.22.64A16.14 16.14 0 0 1 78.39 54a9.26 9.26 0 0 0 .92 1.24 1.68 1.68 0 0 0 .64.43A8.18 8.18 0 0 0 81 56a.58.58 0 0 1 .48.55 4.71 4.71 0 0 1 0 .75.75.75 0 0 0 .42.8c.72.41 1.46.78 2.19 1.17a4.24 4.24 0 0 1 .92.62c.71.8 1.36 1.66 2 2.49.41.51.84 1 1.27 1.49l.58.88a.57.57 0 0 1 0 .7c-.2.3-.43.59-.62.89a.48.48 0 0 0-.09.36 8.48 8.48 0 0 0 .37 1 1.39 1.39 0 0 1-.34 1.85 12.49 12.49 0 0 0-1.75 2.22c-.33.6-.71 1.17-1 1.76-.07.12 0 .3 0 .46h.35l.31-.43c.46-.75.93-1.5 1.4-2.24a1.7 1.7 0 0 1 .3-.3l.12-.18a1.49 1.49 0 0 0 .14-.12c.5-.58 1-1.17 1.5-1.78a.56.56 0 0 0 0-.46c-.18-.51-.43-1-.6-1.52a.7.7 0 0 1 .08-.55c.63-.81 1.31-1.58 1.94-2.39a.93.93 0 0 1 .9-.37.61.61 0 0 0 .74-.42c.38-.92.74-1.83 1.11-2.75a6.23 6.23 0 0 1 1.28-2.2 22 22 0 0 0 1.43-1.76 1.14 1.14 0 0 1 1-.52h3.09a2.23 2.23 0 0 0 .6-.16v-.07l.68-.71.24-.2.78-1.57.06-.24.07-.42h.05a.37.37 0 0 1 .42-.36h.65a1 1 0 0 1 .32.19l.12.17 1 1.28a6.9 6.9 0 0 0 .78.09c.31 0 .61-.06.92-.1.33-.42.65-.87 1-1.27a.81.81 0 0 1 .52-.29 1.91 1.91 0 0 1 1.82.63s.09.07.14.12a.67.67 0 0 0 .75.13c.57-.18 1.14-.35 1.7-.55a1.22 1.22 0 0 0 .51-.36 7.39 7.39 0 0 0 .62-.85.62.62 0 0 1 .78-.35c.81.14 1.63.27 2.44.44a1.11 1.11 0 0 1 .57.29c.94 1 1.86 2 2.77 3.09a.69.69 0 0 0 .67.31c.52-.08 1-.16 1.57-.27s.65 0 .76.46.25 1.2.42 1.79a1.07 1.07 0 0 0 .36.56c.45.31.95.57 1.42.85a1.67 1.67 0 0 1 .92 1.2 11.2 11.2 0 0 0 .39 1.37.87.87 0 0 0 .18.31c.32.34.64.67 1 1 .15.14.37.33.55.12s-.07-.43-.2-.57zm-45.2-23.81zm6.48 26.6h-.13.13zm7.53-8.95h.37zm.24-.62a5.51 5.51 0 0 1-.81 0 .87.87 0 0 0-.84.5 9.64 9.64 0 0 1-1.56 1.92 8.11 8.11 0 0 0-1.48 2.7c-.25.64-.58 1.24-.89 1.85-.1.19-.24.22-.41 0-.67-.76-1.35-1.5-2-2.25s-1.57-1.79-2.34-2.69a1.07 1.07 0 0 0-.89-.43h-1.42a.79.79 0 0 1-.81-.51c-.21-.4-.43-.8-.65-1.19a1.92 1.92 0 0 0-.59-.61 1.92 1.92 0 0 1 .59.61 1.23 1.23 0 0 0-1.12-1c-.57-.08-1.12-.24-1.69-.36a1.11 1.11 0 0 1-.84-.74c-.23-.61-.5-1.21-.76-1.81A4.06 4.06 0 0 0 78.2 50l-1.91-1.68c-.51-.44-1-.89-1.54-1.31a1.12 1.12 0 0 1-.46-1v-1.48a1.11 1.11 0 0 1 .4-.88c.63-.52 1.28-1 1.9-1.58.25-.22.45-.51.7-.74s.65-.56 1-.82 1-.7 1.45-1a1.12 1.12 0 0 1 .5-.18 13.49 13.49 0 0 1 1.89-.21 2.14 2.14 0 0 1 .94.42c.3.19.56.46.86.67a2.25 2.25 0 0 1 .81 1.06c.39.94.82 1.86 1.25 2.78a1.17 1.17 0 0 0 .22.29c.3.54.59 1.1.93 1.62a1 1 0 0 0 .53.3c.61.19 1.24.31 1.82.55a4 4 0 0 1 1 .69c1.31 1.15 2.62 2.3 3.9 3.48a15.69 15.69 0 0 1 1.39 1.55 16.44 16.44 0 0 0 2.24 2.33c.08.06.11.21.16.32a2.08 2.08 0 0 1-.26.1zm16-4.29c-.15.2-.28.4-.41.6a1.72 1.72 0 0 1-1.08.72 9.07 9.07 0 0 0-.93.26.71.71 0 0 1-.76-.26 1.66 1.66 0 0 0-1.45-.43 1.69 1.69 0 0 1-.45 0 1 1 0 0 0-1.11.49c-.16.22-.3.45-.46.67a1.06 1.06 0 0 1-1.83 0c-.16-.23-.31-.47-.46-.71a1 1 0 0 0-.87-.47c-.52 0-.61-.14-.69-.66 0-.13-.05-.26-.08-.39-.11-.57-.2-.65-.78-.65h-3.33a1.19 1.19 0 0 1-1.14-.62c-.8-1.25-1.64-2.47-2.46-3.71a1.12 1.12 0 0 0-.92-.47c-1.07-.12-2.14-.2-3.18-.4a8.54 8.54 0 0 1-1.77-.69c-.76-.33-1.5-.7-2.25-1s-.64-.26-.64-.92V42c.19-.75-.23-1.17-.78-1.58s-1-.9-1.54-1.36a.36.36 0 0 1-.1-.26.33.33 0 0 1 .25-.12l.84.06 4.21.42c.64.06 1.29.08 1.92.2a4.64 4.64 0 0 1 1.24.46c.94.47 1.85 1 2.78 1.47.46.23 1 .41 1.4.64s.72.42 1.08.61a10 10 0 0 0 1.14.56 1.75 1.75 0 0 0 .79.08c.47 0 .94-.16 1.4-.24s.5 0 .67.37a15.86 15.86 0 0 0 .75 1.62 1.24 1.24 0 0 0 .56.5c.92.44 1.86.82 2.78 1.26.68.32 1.33.71 2 1 .34.18.7.31 1 .46l2.55 1.16 1.39.67a4.13 4.13 0 0 1 .58.33c.35.26.36.41.15.69z" fill="#422910"/>
	<path fill="#ffd784" d="M129.23 72.81c.47-.73 1-1.45 1.43-2.17a1.44 1.44 0 0 0 .27-1 17.69 17.69 0 0 0-.34-2.06 5.49 5.49 0 0 0-.63-1.16 8.19 8.19 0 0 1 .51 1.19 18.27 18.27 0 0 1 .33 1.94 2.49 2.49 0 0 1-.57 1.68c-.47.75-1 1.47-1.52 2.19-.27.36-.4.32-.67 0a7.25 7.25 0 0 0-.91-.84c-.12-.11-.25-.19-.37-.3a.37.37 0 0 1 0-.62l1.24-1.24a2.59 2.59 0 0 0 .72-1.9c0-.24-.24-.34-.47-.33h-1.32c-.44 0-.53-.24-.52-.63v-1.74a.48.48 0 0 0-.47-.53c-.78-.07-1.56-.14-2.35-.18-.38 0-.56-.17-.46-.53.13-.52.3-1 .46-1.54.23-.77.48-1.54.72-2.3a.59.59 0 0 0-.28-.68 17.76 17.76 0 0 0-2.73-1.9.27.27 0 0 1-.1-.06c-.5-.52-.66-.29-1.08 0-.69.51-1.37 1-2 1.56-.43.32-.56.31-1-.07a5.62 5.62 0 0 0-.44-.41.76.76 0 0 0-.4-.18 10.27 10.27 0 0 0-1.24 0c-.38 0-.53 0-.59-.43-.12-.74-.23-1.47-.33-2.21-.06-.41-.22-.55-.61-.39s-.68.35-1 .5c-.7.31-1.41.59-2.13.88a1 1 0 0 1-1-.27c-.17-.16-.36-.32-.54-.47s-.45-.17-.58.11a7.42 7.42 0 0 0-.42 1 2.36 2.36 0 0 1-.72 1.06.39.39 0 0 1-.52.07 6.63 6.63 0 0 1-.83-.55c-.4-.34-.76-.26-.92.24-.09.31-.16.62-.24.93a.76.76 0 0 1-.14.3 1.59 1.59 0 0 1-1.48.21c-.93-.57-1.85-1.15-2.77-1.73-.33-.22-.59-.21-.81.1-.46.66-.9 1.32-1.32 2s-.69 1.15-1 1.74a11 11 0 0 0-.43 1.26c0 .15-.07.31-.12.47-.15.53-.31.58-.86.52a6 6 0 0 0-2.19-.11c-.52.12-1 .25-1.54.4a1 1 0 0 0-.46.28.52.52 0 0 0-.13.44c.39.83.83 1.64 1.25 2.45-.09-.21-.17-.43-.26-.64a9.64 9.64 0 0 1-.44-1 2.16 2.16 0 0 0-.32-.75c-.15-.18 0-.34.18-.42l.39-.13 1.24-.53a2.73 2.73 0 0 1 1.39 0l.89.14a3.88 3.88 0 0 0 .48 0c.26 0 .39-.13.45-.39.13-.54.28-1.07.42-1.6l.3-.61.48-.77c.37-.64.74-1.29 1.12-1.93a5.84 5.84 0 0 1 .53-.77c.22-.28.38-.26.67-.07.57.36 1.16.69 1.73 1 .31.19.62.38.92.59a1.31 1.31 0 0 0 2.07-.75c.06-.23.13-.46.19-.7s.31-.41.58-.19a6.31 6.31 0 0 0 .58.44c.84.53 1 .22 1.44-.38a2.13 2.13 0 0 0 .23-.56c.14-.32.27-.65.42-1s.23-.28.45-.1.47.31.69.49a.93.93 0 0 0 1 .17c.88-.33 1.76-.64 2.63-1a3.53 3.53 0 0 0 .5-.28c.27-.17.46-.07.51.24.1.72.21 1.44.32 2.15.08.53.35.66.87.55a2.81 2.81 0 0 1 1.19 0 1.65 1.65 0 0 1 .7.55c.33.37.59.42 1 .13.8-.61 1.6-1.23 2.41-1.82a.44.44 0 0 1 .4 0c.9.6 1.79 1.21 2.68 1.83a2.38 2.38 0 0 1 .33.31.67.67 0 0 1 .17.69c-.33 1.19-.65 2.39-1 3.59-.09.3-.21.61.09.86a.47.47 0 0 0 .29.12h1.45a1.71 1.71 0 0 1 .3.09v.1h-.34c-.61 0-1.21-.1-1.81-.11-.44 0-.64-.21-.47-.66.26-.75.42-1.54.63-2.3.15-.56.31-1.11.49-1.65a.57.57 0 0 0-.15-.61 13.23 13.23 0 0 0-2.62-1.89c-.25-.16-.44 0-.62.13l-2.16 1.65c-.61.47-.84.48-1.25-.17-.51-.82-1.26-.62-2-.59l-.24.06a.54.54 0 0 1-.71-.53v-.7a8.9 8.9 0 0 0-.19-1.15c-.13-.48-.4-.56-.84-.31a12 12 0 0 1-1.13.58c-.53.23-1.07.41-1.62.59a.74.74 0 0 1-.78-.2c-.12-.11-.22-.23-.35-.34a.42.42 0 0 0-.72.22l-.21.6a1.58 1.58 0 0 1-.63.79.37.37 0 0 0-.16.26c0 .06.14.15.23.18l1.84.61a.75.75 0 0 1 .58.86 1.62 1.62 0 0 0 0 .22c0 .32.13.44.44.34a9 9 0 0 0 1.18-.46 1.68 1.68 0 0 1 1.72 0 2.07 2.07 0 0 1 .34.15 1.26 1.26 0 0 0 1.56 0 3.39 3.39 0 0 1 .83-.35.66.66 0 0 1 .74.2c.37.37.76.72 1.14 1.09a1 1 0 0 1 .35.8v.7c0 .43.07.55.5.7.17.05.34.13.51.17a3.29 3.29 0 0 1 1.65 1.44c.74.78 1.51 1.54 2.26 2.31a2.27 2.27 0 0 1 .4.49.53.53 0 0 1 0 .43c-.47.7-1 1.39-1.43 2.06a1.43 1.43 0 0 0-.23 1.17c.24 1.25.42 2.51.64 3.76.09.51.22 1 .36 1.53s.06.72-.44.87c-.85.27-1.71.53-2.58.76a1.27 1.27 0 0 0-1 1 2 2 0 0 1-.1.35l-.06.42c-.07.62-.13 1.24-.21 1.86a1 1 0 0 1-.58.77c-.13.09-.29.15-.43.23a.72.72 0 0 1-.87-.08c-.44-.38-.88-.77-1.3-1.18s-.55-.45-1.12-.22a2.94 2.94 0 0 1-.59.12.5.5 0 0 0-.47.45c0 .32-.05.66-.06 1a.79.79 0 0 1-.64.9l-1.37.48a1.77 1.77 0 0 1-1.18 0c-.47-.18-1-.31-1.44-.47a3 3 0 0 1-.4-.2c-.43-.14-.87-.28-1.29-.44a.82.82 0 0 0-.8.07c-.22.15-.47.24-.69.37a.68.68 0 0 1-.8 0l-.84-.68c-.38-.19-.44-.4-.4-.81.08-.73.11-1.46.15-2.2 0-.26-.16-.36-.42-.35a1.73 1.73 0 0 0-1 .34.6.6 0 0 1-.76 0l-2.65-1.7a.82.82 0 0 1-.39-.74v-5.79a1.66 1.66 0 0 1 .68-1.17c.13-.13.29-.25.42-.39a.88.88 0 0 0 .23-.87l-.6-1.83c0-.09 0-.18-.07-.26-.12-.38-.25-.75-.34-1.13s.14-.5.49-.51h1.18c.49 0 .62-.14.68-.64s.12-.9.21-1.34a.59.59 0 0 1 .7-.55 5.43 5.43 0 0 1 1 .25 2.32 2.32 0 0 1 .36.16c.33.12.45 0 .46-.31s0-.58 0-.87a1.22 1.22 0 0 1 .76-1.11 13 13 0 0 0 1.53-1 7.7 7.7 0 0 0 1-1.13 1.46 1.46 0 0 0 .15-.35 2.08 2.08 0 0 1-1.31-.5c-.39-.27-.65-.21-.73.24a1.5 1.5 0 0 1-1.48 1.36 1.45 1.45 0 0 1-1-.22c-.85-.53-1.7-1.05-2.54-1.59a.38.38 0 0 0-.6.12 20.82 20.82 0 0 0-2.43 4.31c-.16.4-.21.84-.34 1.26s-.28.49-.72.42l-2.27-.31-1 .35a1.09 1.09 0 0 1-.3.07.51.51 0 0 0-.45.76c.34.73.68 1.47 1.09 2.16s.51.91-.12 1.67c-.3.34-.28.51.11.76s.59.36.87.55c.73.49.75.63.2 1.31a1 1 0 0 1-1 .39 1 1 0 0 0-1 .44c-.14.19-.27.4-.42.59-.3.4-.62.79-.9 1.21a.8.8 0 0 0-.09.53c0 .22.25.12.4.12a1.23 1.23 0 0 1 1 .44c.47.62.93 1.24 1.38 1.87a1.32 1.32 0 0 0 .84.54c.35.08.7.19 1 .3s.32.28.16.47c-.3.38-.61.74-.92 1.11-.11.14-.24.27-.35.42s-.14.41.13.55l1.18.62a.36.36 0 0 1 .19.53c-.18.33-.4.64-.58 1a.48.48 0 0 0 0 .4 1.85 1.85 0 0 0 1.25.45h.06c.46-.17.91-.38 1.39-.51a1.26 1.26 0 0 1 .72 0 14.69 14.69 0 0 1 1.39.66.37.37 0 0 1 .25.43c-.08.39-.17.77-.24 1.15a1.54 1.54 0 0 0 0 .63c.25.71.29 1.52.94 2l1.4.95a.51.51 0 0 0 .73 0l1-1.14c.43-.48.54-.48 1.15-.29 1 .33 2 .63 3.07.91a1 1 0 0 0 1-.22c.21-.23.44-.44.66-.66.45-.48.89-1 1.34-1.43a.07.07 0 0 1 .06 0 2.19 2.19 0 0 1 .59-.17h2a1.39 1.39 0 0 0 .92-.31c.5-.36 1-.7 1.52-1a.75.75 0 0 1 .71-.1c.79.26 1.58.49 2.36.76a.88.88 0 0 0 .83-.11l3.76-2.49c.58-.38.63-.67.21-1.25-.06-.08-.14-.14-.2-.22a3.87 3.87 0 0 1-.39-.54c-.17-.29-.1-.48.18-.66l.41-.26c.54-.36 1.08-.74 1.63-1.08s.87-.47 1.3-.72.78-.51 1.2-.79a.46.46 0 0 1-.28.54c-.32.17-.64.31-.94.49-1 .58-1.88 1.17-2.82 1.76a.56.56 0 0 0-.2.91c.18.24.36.48.53.73.27.43.33.44.8.25a3.9 3.9 0 0 1 1-.23h1.76c.4 0 .52-.13.35-.5s-.48-.88-.72-1.32c.16.39.32.78.49 1.16s.09.52-.33.53h-1.78a2.14 2.14 0 0 0-.74.2c-.22.1-.4.12-.56-.07s-.44-.51-.63-.78-.19-.46.1-.67c.61-.42 1.24-.83 1.87-1.22.47-.29 1-.54 1.45-.8a2.87 2.87 0 0 1 .42-.14c-.07.2-.09.32-.14.43s-.2.33-.3.49c-.23.39-.2.55.15.86-.31-.44-.12-.82.15-1.19a14.23 14.23 0 0 1 1-1.33 1.33 1.33 0 0 0 .18-1.61 10.86 10.86 0 0 1-.58-1.69 1.15 1.15 0 0 1 .05-.73 6.49 6.49 0 0 1 .64-1.1z"/>
	<path fill="#ffd784" d="m109 60.52-1.11-.28a.71.71 0 0 0-.84.3 5.29 5.29 0 0 1-.9.93 11.88 11.88 0 0 1-1.48.93.92.92 0 0 0-.53.91v1.36a.38.38 0 0 1-.61.35c-.37-.18-.73-.37-1.11-.54s-.74-.1-.87.44-.25 1.08-.37 1.62a.48.48 0 0 1-.48.42 7.37 7.37 0 0 1-1 0c-.46 0-.66.15-.56.59s.18.64.27 1c.19.57.38 1.13.59 1.69a.89.89 0 0 1-.22 1 10.44 10.44 0 0 0-.73.76 1.44 1.44 0 0 0-.35.71c0 1.81-.07 3.61-.07 5.42a.94.94 0 0 0 .38.88l2 1.33a1.08 1.08 0 0 0 1 .08 6.82 6.82 0 0 1 1.57-.2.31.31 0 0 1 .35.39c-.07.49-.15 1-.23 1.46v.17a5 5 0 0 1 0 .67c-.09.68.41.93.84 1.27s.62.13.92 0a7 7 0 0 1 .7-.4.82.82 0 0 1 .49 0c.36.12.7.28 1.06.42.57.19 1.13.4 1.72.56a4 4 0 0 0 1.36.19 9 9 0 0 0 1.56-.46.52.52 0 0 0 .38-.57v-1c0-.41.12-.58.5-.7s.7-.12 1-.25a1 1 0 0 1 1.16.26l1.24 1.11a.73.73 0 0 0 1 0 1.1 1.1 0 0 0 .48-.74c.16-.93.32-1.87.46-2.8a.86.86 0 0 1 .67-.79l2.6-.83c.64-.21.63-.21.52-.88-.29-1.68-.56-3.37-.87-5a1.83 1.83 0 0 1 .38-1.5c.36-.49.71-1 1.06-1.51a.5.5 0 0 0 0-.71c-.85-.88-1.72-1.73-2.51-2.66a3.41 3.41 0 0 0-1.88-1.07l-.23-.06c-.42-.14-.51-.27-.48-.71v-.27c0-.34 0-.75-.17-1a7.39 7.39 0 0 0-1.25-1.25.8.8 0 0 0-.65-.06 6.48 6.48 0 0 0-1.07.5.8.8 0 0 1-.75 0l-.35-.17a2.24 2.24 0 0 0-2.3-.12 12.14 12.14 0 0 1-1.18.48c-.45.16-.68 0-.67-.49a2.51 2.51 0 0 1 0-.27.8.8 0 0 0-.44-.91zm.54 4.45h2.39a1.13 1.13 0 0 1 1 .46c.4.49.84.95 1.27 1.41a1.12 1.12 0 0 0 .9.37h1.39c.33 0 .42.11.47.43s.13.89.2 1.34a.68.68 0 0 0 .58.63c.7.16.93.18.61 1a24.06 24.06 0 0 0-.91 4.68c-.07.41-.12.82-.18 1.23a.57.57 0 0 1-.62.53h-.72a.71.71 0 0 0-.71.48.84.84 0 0 1-1 .57.66.66 0 0 0-.69.39c-.24.42-.49.84-.72 1.26a.77.77 0 0 1-.78.47h-1.21a.8.8 0 0 1-.69-.3c-.46-.5-.93-1-1.39-1.51a.9.9 0 0 0-.75-.32h-.94a.92.92 0 0 0-.89.45l-.21.3c-.15.19-.31.25-.51.07l-1-.83c-.41-.36-.82-.72-1.2-1.1a1 1 0 0 1-.3-.54c-.16-.78-.26-1.58-.42-2.36a2.31 2.31 0 0 0-.3-.75 9.87 9.87 0 0 0-.64-1 .39.39 0 0 1 0-.5c.49-.63 1-1.26 1.48-1.88.19-.22.45-.17.71-.09.72.24.73.24.67-.52s-.12-1.3-.18-2a.76.76 0 0 1 .29-.7c.58-.5 1.13-1 1.73-1.51a1.53 1.53 0 0 1 .84-.28c.82.09 1.63.15 2.44.15zm-14.83-7.22a10.46 10.46 0 0 0 1.5-1.81l-4.27-5.16a15.27 15.27 0 0 1-2.83.38c0-.19-.61-2.52-.61-2.52l-3-.74-1.42-3.07-5.35-4.62-.42.31c-.35.26-.68.53-1 .82a1.59 1.59 0 0 0-.13.13l5.12 4.65 1 2.58 3 1.48.39 2.09 2.83 1.27L93.89 59a5.32 5.32 0 0 1 .82-1.25z"/>
	<path fill="#a56329" d="M88.4 63.88c-.43-.49-.86-1-1.27-1.49-.69-.83-1.34-1.69-2-2.49a4.24 4.24 0 0 0-.92-.62c-.73-.39-1.47-.76-2.19-1.17a.75.75 0 0 1-.42-.8 4.71 4.71 0 0 0 0-.75.58.58 0 0 0-.6-.56 8.18 8.18 0 0 1-1-.35 1.68 1.68 0 0 1-.64-.43 9.26 9.26 0 0 1-.97-1.22 16.14 16.14 0 0 0-1.85-2.42c-.14-.16-.29-.48-.22-.64.25-.67-.13-1.08-.5-1.51-.55-.67-1.13-1.32-1.7-2a1.75 1.75 0 0 0-.24-.23.39.39 0 0 1-.14-.5 1.14 1.14 0 0 0 .06-.45V44.4a1.17 1.17 0 0 1 .53-1 2.67 2.67 0 0 0 .38-.44l-.11.07a4.33 4.33 0 0 0-.58.55 1.19 1.19 0 0 0-.26.61v2.28a1.69 1.69 0 0 1-.1.34.38.38 0 0 0 .09.47c.71.78 1.41 1.57 2.11 2.37a1.33 1.33 0 0 1 .37.6 4.82 4.82 0 0 1-.09 1.47c-.15.66-.43 1.28-.64 1.92a1.4 1.4 0 0 0 .13 1.48 7.82 7.82 0 0 1 .72 1.22.82.82 0 0 1 .05.38 7.62 7.62 0 0 1-.74 1.94c-.06.15-.16.3-.21.46a.41.41 0 0 0 .24.55 8.62 8.62 0 0 1 1 .61l2.77 2.14.3.2 1 .63a3.39 3.39 0 0 1 1.11 1.3c.37.64.68 1.32 1 2s.86 1.59 1.29 2.39a.34.34 0 0 1 0 .24.32.32 0 0 1-.24.08l-2.72-.09a1.69 1.69 0 0 0-.5.08.21.21 0 0 0-.12.15s.06.1.11.13c.41.19.82.36 1.23.56a3.88 3.88 0 0 1 1.37.77 11.72 11.72 0 0 1 2 3c.06.14.24.23.37.34l.12-.06.06-.17h-.34v-.46c.34-.59.72-1.16 1-1.76a12.49 12.49 0 0 1 1.75-2.22 1.39 1.39 0 0 0 .34-1.85 8.48 8.48 0 0 1-.37-1 .48.48 0 0 1 .09-.36c.19-.3.42-.59.62-.89a.57.57 0 0 0 0-.7zm25.45-13.52a4.13 4.13 0 0 0-.58-.33l-1.39-.67-2.55-1.16c-.35-.15-.71-.28-1-.46-.68-.33-1.33-.72-2-1-.92-.44-1.86-.82-2.78-1.26a1.24 1.24 0 0 1-.56-.5 15.86 15.86 0 0 1-.75-1.62c-.17-.39-.25-.45-.67-.37s-.93.19-1.4.24a1.75 1.75 0 0 1-.79-.08 10 10 0 0 1-1.14-.56c-.36-.19-.71-.42-1.08-.61s-.94-.41-1.4-.64c-.93-.48-1.84-1-2.78-1.47a4.64 4.64 0 0 0-1.24-.46c-.63-.12-1.28-.14-1.92-.2l-4.21-.42-.84-.06a.33.33 0 0 0-.25.12.36.36 0 0 0 .1.26c.51.46 1 1 1.54 1.36s1 .83.78 1.58v.28c0 .66 0 .65.64.92s1.49.71 2.25 1a8.54 8.54 0 0 0 1.77.69c1 .2 2.11.28 3.18.4a1.12 1.12 0 0 1 .92.47c.82 1.24 1.66 2.46 2.46 3.71a1.19 1.19 0 0 0 1.14.62h3.33c.58 0 .67.08.78.65 0 .13.05.26.08.39.08.52.17.61.69.66a1 1 0 0 1 .87.47c.15.24.3.48.46.71a1.06 1.06 0 0 0 1.83 0c.16-.22.3-.45.46-.67a1 1 0 0 1 1.11-.49 1.69 1.69 0 0 0 .45 0 1.66 1.66 0 0 1 1.45.43.71.71 0 0 0 .76.26 9.07 9.07 0 0 1 .93-.26 1.72 1.72 0 0 0 1.08-.72c.13-.2.26-.4.41-.6s.14-.4-.14-.61zm-1.63 20.13h-1.48a.66.66 0 0 0-.7.42c-.18.41-.38.8-.54 1.21a1.3 1.3 0 0 0 .84 1.55 1.11 1.11 0 0 0 .36 0c.22 0 .43-.09.65-.12.73-.1.92-.3 1-1 0-.52.13-1 .21-1.55.02-.35-.07-.49-.34-.51z"/>
	<path fill="#a56329" d="m86.65 52.27-.39-2.09-3-1.48-1-2.58-5.12-4.65a8.22 8.22 0 0 1-.57.61c-.62.54-1.27 1.06-1.9 1.58a1.11 1.11 0 0 0-.4.88v1.48a1.12 1.12 0 0 0 .46 1c.53.42 1 .87 1.54 1.31L78.2 50a4.06 4.06 0 0 1 1.19 1.35c.26.6.53 1.2.76 1.81a1.11 1.11 0 0 0 .84.74c.57.12 1.12.28 1.69.36a1.23 1.23 0 0 1 1.12 1c.22.39.44.79.65 1.19a.79.79 0 0 0 .81.51h1.42a1.07 1.07 0 0 1 .89.43c.77.9 1.55 1.8 2.34 2.69s1.35 1.49 2 2.25c.17.18.31.15.41 0 .31-.61.64-1.21.89-1.85a13.37 13.37 0 0 1 .66-1.5l-4.41-5.41zm11.43 2.57a16.44 16.44 0 0 1-2.24-2.33A15.69 15.69 0 0 0 94.45 51c-1.28-1.18-2.59-2.33-3.9-3.48a4 4 0 0 0-1-.69c-.58-.24-1.21-.36-1.82-.55a1 1 0 0 1-.53-.3c-.34-.52-.63-1.08-.93-1.62A1.17 1.17 0 0 1 86 44c-.43-.92-.86-1.84-1.25-2.78a2.25 2.25 0 0 0-.81-1.06c-.3-.21-.56-.48-.86-.67a2.14 2.14 0 0 0-.94-.42 13.49 13.49 0 0 0-1.89.21 1.12 1.12 0 0 0-.5.18c-.35.23-.69.47-1 .72l5.35 4.62 1.42 3.07 3 .74s.61 2.33.61 2.52a15.27 15.27 0 0 0 2.83-.38l4.27 5.16.06-.11a.87.87 0 0 1 .84-.5 5.51 5.51 0 0 0 .81 0 2.08 2.08 0 0 0 .32-.12c-.07-.13-.1-.28-.18-.34z"/>
</svg>
