<?xml version="1.0" encoding="utf-8"?>
<!-- Generator: Adobe Illustrator 21.1.0, SVG Export Plug-In . SVG Version: 6.00 Build 0)  -->
<svg version="1.1" id="Layer_1" xmlns="http://www.w3.org/2000/svg" xmlns:xlink="http://www.w3.org/1999/xlink" x="0px" y="0px"
	 viewBox="0 0 300 300" style="enable-background:new 0 0 300 300;" xml:space="preserve">
<style type="text/css">
	.st0{fill:#1C1C1C;}
	.st1{fill:#FFFFFF;}
</style>
<g>
	<rect y="0" class="st0" width="300" height="300"/>
	<path class="st1" d="M65.1,139.1h-9.1v31.6H48v-31.6h-6.1v-3.8l6.2-2.5v-2.5c-0.3-3.6,0.8-7.1,3.1-9.9c2.6-2.3,6.1-3.5,9.6-3.2
		c2.8,0,5.6,0.5,8.3,1.4l-2.1,6.1c-1.8-0.6-3.7-0.9-5.7-0.9c-1.5-0.1-3,0.5-4,1.7c-0.9,1.5-1.4,3.3-1.3,5v2.5h9.2L65.1,139.1z"/>
	<path class="st1" d="M93.9,170.7L79.8,129l0,0c0.4,6.2,0.6,12,0.6,17.3v24.2h-7.1V121h11.5l14.2,39.6l0,0L113,121h11.5v49.6h-7.9
		V146c0-2.5,0-5.7,0-9.7c0-4,0-6.4,0-7.1l0,0l-14.9,41.6L93.9,170.7z"/>
	<path class="st1" d="M136.8,120.9h14.8c5.1-0.4,10.3,0.6,14.9,3c3.1,2.1,4.9,5.7,4.6,9.5c0.1,2.5-0.7,5-2.3,7.1
		c-1.6,2-3.9,3.3-6.4,3.6l0,0c2.9,0.4,5.7,1.7,7.7,3.9c1.7,2.2,2.6,5,2.5,7.9c0.2,4-1.6,7.9-4.7,10.5c-3.8,2.7-8.4,4.1-13,3.8h-18.1
		V120.9z M144.9,141.6h7.9c2.6,0.2,5.2-0.4,7.4-1.6c1.5-1.4,2.3-3.4,2.1-5.5c0.2-2-0.8-4-2.5-5.1c-2.5-1.2-5.3-1.8-8.1-1.6h-7.1
		L144.9,141.6z M144.9,148.2v15.8h8.6c2.7,0.2,5.4-0.5,7.7-2c1.8-1.5,2.8-3.8,2.6-6.2c0.1-2.2-0.9-4.4-2.7-5.7
		c-2.4-1.4-5.3-2-8.1-1.8L144.9,148.2z"/>
	<path class="st1" d="M200,170.7h-8.1v-42.5h-14.7v-7.1h37.4v7.1H200V170.7z"/>
</g>
</svg>
