<svg id="Layer_1" data-name="Layer 1" xmlns="http://www.w3.org/2000/svg" viewBox="0 0 424 553">
	<defs>
		<style>
			.cls-1{fill:#5f2d24}.cls-2{fill:none}.cls-3{fill:#7e4b44}.cls-4{fill:#f7d8a7}.cls-5{fill:#a46e5c}
		</style>
	</defs>
	<path class="cls-1" d="M8.75 537.275a4.63 4.63 0 0 1-1.207-3.346v-68.906a4.2 4.2 0 0 1 1.262-3.182 4.639 4.639 0 0 1 3.346-1.207h39.94a4.437 4.437 0 0 1 3.072.987 3.646 3.646 0 0 1 1.097 2.853 3.503 3.503 0 0 1-1.097 2.743 4.432 4.432 0 0 1-3.073.988H16.43v26.662h33.466a4.427 4.427 0 0 1 3.073.989 3.644 3.644 0 0 1 1.097 2.853 3.504 3.504 0 0 1-1.097 2.742 4.437 4.437 0 0 1-3.073.988H16.43v31.49a4.767 4.767 0 0 1-1.152 3.346 4.169 4.169 0 0 1-3.236 1.263 4.344 4.344 0 0 1-3.292-1.263Z"/>
	<path class="cls-1" d="M102.508 534.04a31.684 31.684 0 0 1-12.234-13.716q-4.279-8.888-4.279-20.958 0-12.18 4.224-21.122a30.946 30.946 0 0 1 12.18-13.716 35.888 35.888 0 0 1 18.817-4.772 35.892 35.892 0 0 1 18.818 4.772 30.966 30.966 0 0 1 12.18 13.716q4.222 8.945 4.224 21.012 0 12.072-4.28 21.012a31.633 31.633 0 0 1-12.234 13.772 35.346 35.346 0 0 1-18.708 4.827 35.339 35.339 0 0 1-18.708-4.827Zm37.855-11.137q6.856-8.285 6.858-23.647 0-15.36-6.803-23.59-6.805-8.23-19.202-8.229-12.29 0-19.146 8.284-6.859 8.285-6.858 23.535 0 15.253 6.858 23.59 6.856 8.341 19.146 8.34 12.288 0 19.147-8.283Z"/>
	<path class="cls-1" d="M255.518 461.347a4.928 4.928 0 0 1 1.097 3.347v69.235a4.763 4.763 0 0 1-1.153 3.346 4.167 4.167 0 0 1-3.236 1.263 4.57 4.57 0 0 1-3.621-1.866l-45.535-60.897v58.154a4.765 4.765 0 0 1-1.152 3.346 4.03 4.03 0 0 1-3.127 1.263 3.858 3.858 0 0 1-3.073-1.263 4.913 4.913 0 0 1-1.097-3.346v-69.235a4.775 4.775 0 0 1 1.152-3.347 4.164 4.164 0 0 1 3.237-1.261 4.676 4.676 0 0 1 3.73 1.864l45.426 60.897v-58.153a4.773 4.773 0 0 1 1.153-3.347 4.028 4.028 0 0 1 3.126-1.261 3.858 3.858 0 0 1 3.073 1.26Z"/>
	<path class="cls-1" d="M298.859 537.275a4.63 4.63 0 0 1-1.207-3.346v-69.235a4.639 4.639 0 0 1 1.207-3.347 4.927 4.927 0 0 1 6.584 0 4.647 4.647 0 0 1 1.207 3.347v69.235a4.638 4.638 0 0 1-1.207 3.346 4.922 4.922 0 0 1-6.584 0Z"/>
	<path class="cls-1" d="M361.346 534.04a31.682 31.682 0 0 1-12.234-13.716q-4.28-8.888-4.28-20.958 0-12.18 4.225-21.122a30.954 30.954 0 0 1 12.179-13.716 39.485 39.485 0 0 1 37.636 0 30.966 30.966 0 0 1 12.179 13.716q4.222 8.945 4.224 21.012 0 12.072-4.28 21.012a31.638 31.638 0 0 1-12.233 13.772 38.662 38.662 0 0 1-37.416 0Zm37.854-11.137q6.857-8.285 6.859-23.647 0-15.36-6.804-23.59-6.803-8.23-19.2-8.229-12.291 0-19.148 8.284-6.858 8.285-6.857 23.535 0 15.253 6.857 23.59 6.857 8.341 19.147 8.34 12.286 0 19.146-8.283Z"/>
	<path class="cls-2" d="m282.58 182.066-.425-1.306c-.37.602-.26 1.047.425 1.306Z"/>
	<path class="cls-2" d="m281.346 178.099.088.288-.088-.288.25-.5-.43-.268c.004.012.028.396.028.396Z"/>
	<path class="cls-2" d="m280.328 173.396.008.036-.008-.036-5.735 1.997 5.735-1.997Z"/>
	<path class="cls-2" d="M154.812 353.215c6.444 10.09 14.536 18.613 25.815 24.04l9.968 4.93q-4.984-2.465-9.965-4.932c-11.281-5.426-19.374-13.948-25.818-24.038Z"/>
	<path class="cls-2" d="m147.038 257.173-.08.42.37-1.94a8.305 8.305 0 0 1-1.426-4.501 8.306 8.306 0 0 0 1.425 4.502l-.289 1.52Z"/>
	<path class="cls-2" d="m131.68 265.225.021.153-.016.222.016-.222Z"/>
	<path class="cls-2" d="M200.782 16.662c-1.602 6.643-3.213 13.28-4.745 19.938 1.532-6.658 3.143-13.295 4.745-19.938Z"/>
	<path class="cls-2" d="m146.94 257.691.019-.098.08-.42Z"/>
	<path class="cls-2" d="M274.593 175.393c-3.318-9.571-5.89-19.361-8.65-29.102 2.76 9.74 5.331 19.53 8.65 29.102a11.413 11.413 0 0 0 .767 4.797 11.407 11.407 0 0 1-.767-4.797Z"/>
	<path class="cls-2" d="m184.822 376.36-.775.251.788.545-.013-.797Z"/>
	<path class="cls-2" d="M146.882 260.87a366.09 366.09 0 0 0 4.276 43.04 366.046 366.046 0 0 1-4.276-43.04 18.451 18.451 0 0 1 7.497-1.405 18.454 18.454 0 0 0-7.497 1.405Z"/>
	<path class="cls-3" d="M172.284 190.874c-.54 14.112-1.34 28.214-2.04 42.32a23.143 23.143 0 0 1 5.316-1.395c.6-.088 1.202-.159 1.805-.216.69-.065 1.382-.112 2.074-.147 2.423-.122 4.855-.099 7.244-.193 18.95-.752 37.927-.802 56.886-1.387 5.11-.158 7.418 1.313 7.566 6.771.919 34.038 1.475 68.08-4.763 101.73-2.209 11.915-4.662 23.953-11.95 34.297-3.241 4.602-6.885 8.414-11.898 10.64a22.845 22.845 0 0 1-2.235.855l3.052.248c23.878-5.687 35.468-23.237 42.718-44.703 7.416-21.96 9.452-44.79 10.087-67.792q.193-6.996.21-13.98.004-3.782-.056-7.56a290.778 290.778 0 0 0-5.205-52.596 6.12 6.12 0 0 0-3.841 1.571 7.173 7.173 0 0 0-.74.795c-.04.05-.084.098-.124.15a10.296 10.296 0 0 0-.637.936c-.054.09-.109.18-.162.271q-.293.508-.558 1.043c-.398.801-.76 1.634-1.142 2.438-1.474 3.1-2.681 6.326-4.077 9.464-1.447 3.255-4.204 4.134-7.445 3.67-3.597-.514-2.425-3.614-2.628-5.678q-3.861-39.243-11.459-77.93C233 107.742 226.77 81.14 219.865 54.754c-3.39-12.96-5.928-26.263-11.261-38.695-2.813-1.972-5.583-.744-8.358.11a.5.5 0 0 1 .535.464l.001.029c-1.602 6.643-3.212 13.28-4.744 19.938q-.766 3.329-1.503 6.666-.98 4.45-1.887 8.92c-5.258 26.01-10.213 52.06-13.8 78.357-1.043 7.638-1.947 15.295-2.995 22.932"/>
	<path class="cls-1" d="M222.524 383.294c5.013-2.226 8.657-6.038 11.899-10.64 7.287-10.344 9.74-22.382 11.949-34.297 6.238-33.65 5.682-67.692 4.763-101.73-.148-5.458-2.456-6.93-7.566-6.771-18.959.585-37.936.635-56.886 1.387-2.389.094-4.82.07-7.244.193a47.97 47.97 0 0 0-2.074.147c-.603.057-1.206.128-1.805.216a23.141 23.141 0 0 0-5.317 1.396c.087 3.733.443 7.469.662 11.204.073 1.244.13 2.49.157 3.734q.02.858.018 1.717a41.134 41.134 0 0 1-1.123 9.975c2.966 5.807 2.1 12.175 2.495 18.31 1.527 23.707 4.742 47.063 10.794 70.138 3.8 14.489 10.797 26.29 21.975 35.9a1.178 1.178 0 0 0 1.185.026l1.715.264.472.014a.333.333 0 0 1 .55-.012 27.17 27.17 0 0 0 11.145-.316 22.838 22.838 0 0 0 2.236-.855Z"/>
	<path class="cls-2" d="M179.44 231.436c-.693.035-1.385.082-2.075.147"/>
	<path class="cls-1" d="M175.56 231.8a23.143 23.143 0 0 0-5.317 1.394 23.141 23.141 0 0 1 5.316-1.395Z"/>
	<path class="cls-2" d="M177.365 231.583c-.603.057-1.206.128-1.806.216"/>
	<path class="cls-1" d="M220.288 384.149a22.845 22.845 0 0 0 2.236-.855 22.838 22.838 0 0 1-2.236.855Z"/>
	<path class="cls-4" d="M320.609 229.474c-.679-1.357-1.507-2.697-.48-4.247.422-3.605-2.105-6.57-2.35-9.915-1.355-18.42-9.472-34.9-14.601-52.236-3.604-12.183-11.685-22.328-15.362-34.423-3.46-11.382-12.477-19.932-15.735-31.39a4.116 4.116 0 0 0-1.083-1.572c-6.15-6.334-8.86-14.823-13.62-22.055-3.432-5.211-6.672-10.912-10.29-15.794-8.42-11.363-15.38-23.725-24.286-34.744-2.398-2.967-4.312-5.13-8.278-4.174-.895 3.389 1.801 5.563 2.91 8.23 12.935 31.12 25.316 62.45 35.434 94.616a687.041 687.041 0 0 1 18.094 72.155 23.258 23.258 0 0 1 .133 3.84l.002-.001a290.907 290.907 0 0 1 5.203 52.598q.061 3.778.055 7.56-.008 6.984-.21 13.98c-.634 23.002-2.67 45.832-10.086 67.792-7.25 21.466-18.84 39.016-42.718 44.703 7.873.808 15.088-2.43 22.62-3.712 13.642-2.324 24.811-9.537 35.62-17.74 4.764-3.616 7.82-8.943 13.069-11.914-.776-3.244 2.06-3.303 3.81-4.32 10.022-18.885 19.271-37.993 20.62-59.911.54-8.762 1.853-17.477 2.814-26.213-.414-2.044-2.403-3.825-1.028-6.167l.181-3.175m-30.908 38.163c-2.86 22.735-6.308 45.614-19.678 65.353-7.881 11.636-17.86 20.589-31.345 25.307 25.695-15.117 34.83-39.903 40.009-67.26 4.814-25.428 5.665-51.027 4.38-76.75-.318-6.342-.888-12.655-1.652-18.944-1.273-10.481-3.081-20.896-5.143-31.27l-.109-1.82a31.838 31.838 0 0 0-1.014-3.176q-.115-.329-.227-.658a11.413 11.413 0 0 1-.767-4.797c-3.319-9.572-5.89-19.361-8.65-29.103a431.26 431.26 0 0 0-2.857-9.715q-.853-2.765-1.768-5.514c-8.232-24.634-17.803-48.707-28.12-72.519-4.85-11.193-9.227-22.591-14.231-33.74a788.29 788.29 0 0 1 43.363 92.962c4.387 11.38 8.63 22.81 12.253 34.443q1.877 6.03 3.494 12.143.484 1.821.942 3.65.338 1.346.67 2.694.33 1.348.64 2.702l.007.036q.414 1.948.83 3.894v.005l.43.268-.25.5.088.288.721 2.372.425 1.307c8.911 35.332 12.11 71.182 7.56 107.342Z"/>
	<path class="cls-4" d="M276.3 250.362a290.907 290.907 0 0 0-5.203-52.598h-.002v.002a290.779 290.779 0 0 1 5.205 52.596Z"/>
	<path class="cls-4" d="M276.3 250.362q.061 3.778.055 7.56.005-3.782-.055-7.56Z"/>
	<path class="cls-4" d="M154.812 353.215q-.644-1.01-1.267-2.039-1.424-2.352-2.746-4.802c-11.03-20.373-15.206-42.66-17.975-65.312a134.9 134.9 0 0 1-.378-3.493c-.336-3.499-.565-7.01-.872-10.512l.11-1.457.017-.222-.021-.153-.316-2.25.114-1.648-.562-12.104c-1.731-20.647.992-40.976 4.702-61.183 8.365-45.563 23.689-88.942 41.73-131.448 1.916-4.514 3.69-9.089 5.599-13.606 1.056-2.498 2.215-2.228 3.282 0 .018-.01.027-.021.045-.03.008.013.011.024.018.037.242-.193.473-.391.688-.597l.03-.03a10.202 10.202 0 0 0 1.178-1.354 11.898 11.898 0 0 0 .931-1.517 16.357 16.357 0 0 0 .724-1.617c.214-.552.405-1.114.585-1.683a57.794 57.794 0 0 1 1.946-5.939c2.17-4.926 2.776-10.811 8.408-13.594a.501.501 0 0 0-.508-.495l-.029.002c-1.634-.773-2.8.27-4.136.953-8.188 4.189-12.526 11.903-16.7 19.346-5.18 9.24-10.638 18.38-16.21 27.304a391.67 391.67 0 0 0-22.458 41.398c-10.028 21.427-19.647 43.125-26.653 65.911-5.265 17.126-9.527 34.33-11.828 52.078-2.23 17.202-1.392 34.433.484 51.487 1.36 12.377 4.347 24.607 7.881 36.716a120.28 120.28 0 0 0 21.235 41.123c10.495 13.307 24.8 21.92 40.885 27.07 5.658 1.812 11.428 5.091 17.85 2.63l-9.968-4.93c-11.279-5.427-19.371-13.95-25.815-24.04Z"/>
	<path class="cls-4" d="M200.782 16.662a.5.5 0 0 0-.507-.495l-.03.001a.501.501 0 0 1 .536.465Z"/>
	<path class="cls-5" d="M238.282 134.496q7.626 38.627 11.46 77.93c.202 2.064-.97 5.164 2.627 5.678 3.24.464 5.998-.415 7.445-3.67 1.396-3.138 2.603-6.364 4.077-9.464.382-.804.744-1.637 1.142-2.438q.265-.534.558-1.043c.053-.091.107-.181.162-.271a10.294 10.294 0 0 1 .637-.937c.04-.051.084-.099.125-.15a7.173 7.173 0 0 1 .739-.794 6.126 6.126 0 0 1 3.841-1.573 23.258 23.258 0 0 0-.133-3.839 687.04 687.04 0 0 0-18.094-72.155c-10.118-32.166-22.5-63.497-35.435-94.617-1.108-2.666-3.804-4.84-2.909-8.229-1.604-1.72-3.4-3.04-5.92-2.865 5.333 12.431 7.87 25.734 11.261 38.695 6.903 26.385 13.135 52.988 18.417 79.742Z"/>
	<path class="cls-2" d="M266.515 200.132c-.041.05-.085.098-.125.15"/>
	<path class="cls-5" d="M271.095 197.766v-.002a6.126 6.126 0 0 0-3.841 1.573 6.12 6.12 0 0 1 3.841-1.571Z"/>
	<path class="cls-2" d="M265.753 201.218c-.055.09-.109.18-.162.271"/>
	<path class="cls-3" d="M183.246 348.273c-6.052-23.075-9.267-46.43-10.794-70.138-.395-6.135.471-12.503-2.495-18.31a35.546 35.546 0 0 1-10.117-.026c-1.462-.138-2.923-.27-4.38-.317q-.541-.017-1.081-.017a18.451 18.451 0 0 0-7.497 1.405 366.047 366.047 0 0 0 4.276 43.04q.514 3.034 1.105 6.053 1.055 5.368 2.383 10.682a173.21 173.21 0 0 0 8.755 26.166c4.275 9.966 10.04 18.904 18.141 26.226 1.074.97 2.292 1.856 2.355 3.492l.046.01.104.072.775-.252.013.797-.788-.545-.138.045c0-.045-.01-.083-.012-.127l-2.629-.585-.638 1.308q4.98 2.47 9.965 4.934c5.06-.697 9.485 3.285 14.626 1.987-11.178-9.61-18.174-21.411-21.975-35.9Z"/>
	<path class="cls-3" d="m183.944 376.54-.035.116.138-.045-.103-.072-.047-.01Z"/>
	<path class="cls-5" d="M175.853 153.475c1.048-7.637 1.952-15.294 2.994-22.932 3.588-26.298 8.543-52.348 13.8-78.358q.905-4.47 1.888-8.92.735-3.337 1.502-6.665c1.532-6.658 3.143-13.295 4.745-19.938-5.632 2.783-6.237 8.668-8.408 13.594a57.793 57.793 0 0 0-1.946 5.94c-.18.568-.37 1.13-.585 1.682a16.355 16.355 0 0 1-.724 1.617 11.893 11.893 0 0 1-.931 1.517 10.199 10.199 0 0 1-1.178 1.353l-.03.031c-.215.206-.446.404-.688.597.498.875.304 1.457-.7 1.698a4.141 4.141 0 0 1 .678 1.297c.361 1.274-.285 2.341-1.643 3.264q-.306 1.646-.675 3.274-.368 1.628-.791 3.24-.566 2.165-1.212 4.307c-2.351 7.858-5.346 15.523-7.7 23.38-7.636 25.485-13.782 51.311-19.769 77.23-6.536 28.3-8.023 56.868-8.454 85.642-.006.39-.021.783-.04 1.178s-.042.792-.062 1.19c-.019.397-.035.796-.042 1.194q-.004.298-.001.596c.002.224.01.447.021.669a8.305 8.305 0 0 0 1.425 4.502l-.368 1.939-.03.154-.072.385.025 2.738a18.453 18.453 0 0 1 7.497-1.405q.54 0 1.08.017c1.458.046 2.92.179 4.381.317a35.546 35.546 0 0 0 10.117.026 41.134 41.134 0 0 0 1.123-9.975q.003-.859-.017-1.717c-.028-1.245-.085-2.49-.158-3.734-.219-3.735-.575-7.471-.662-11.204.7-14.107 1.5-28.209 2.041-42.321"/>
	<path class="cls-5" d="m146.93 257.747.029-.154-.019.098Z"/>
	<path class="cls-5" d="M170.905 244.399c-.219-3.735-.575-7.471-.662-11.204.087 3.733.443 7.469.662 11.204Z"/>
	<path class="cls-2" d="M170.905 244.399c.073 1.245.13 2.49.157 3.734"/>
	<path class="cls-2" d="M186.292 42.993c.242-.193.473-.391.688-.597"/>
	<path class="cls-5" d="M187.01 42.365a10.199 10.199 0 0 0 1.178-1.353 10.203 10.203 0 0 1-1.179 1.353Z"/>
	<path class="cls-5" d="M188.188 41.012a11.893 11.893 0 0 0 .93-1.517 11.898 11.898 0 0 1-.93 1.517Z"/>
	<path class="cls-5" d="M159.84 259.8c-1.462-.14-2.923-.272-4.38-.318 1.457.046 2.918.179 4.38.317Z"/>
	<path class="cls-3" d="m282.155 180.76-.72-2.373-.089-.288-.152-.372s-.024-.384-.028-.396l-.002-.002-.828-3.897-.008-.036-5.735 1.997a11.407 11.407 0 0 0 .767 4.797q.111.33.227.658a31.838 31.838 0 0 1 1.014 3.176l.11 1.82c2.061 10.374 3.87 20.79 5.142 31.27.763 6.29 1.334 12.602 1.651 18.944 1.286 25.724.435 51.322-4.38 76.75-5.178 27.357-14.313 52.143-40.008 67.26 13.484-4.718 23.464-13.671 31.345-25.307 13.37-19.739 16.817-42.618 19.678-65.353 4.55-36.16 1.352-72.01-7.56-107.342-.684-.26-.795-.704-.424-1.306Z"/>
	<path class="cls-3" d="m276.601 184.024.109 1.82c2.062 10.374 3.87 20.789 5.143 31.27-1.273-10.481-3.081-20.896-5.143-31.27l-.109-1.82Z"/>
	<path class="cls-3" d="m282.155 180.76-.72-2.373.72 2.373Z"/>
	<path class="cls-3" d="M281.166 177.331v-.005q-.417-1.944-.83-3.894l.828 3.897Z"/>
	<path class="cls-5" d="M280.328 173.396q-.307-1.355-.64-2.702-.329-1.348-.669-2.693-.458-1.83-.942-3.65-1.625-6.111-3.494-12.143c-3.622-11.633-7.866-23.065-12.253-34.444a788.289 788.289 0 0 0-43.363-92.962c5.004 11.149 9.38 22.547 14.23 33.74 10.318 23.812 19.889 47.885 28.12 72.52q.919 2.747 1.77 5.514a431.26 431.26 0 0 1 2.856 9.715c2.76 9.74 5.332 19.53 8.65 29.102l5.735-1.997Z"/>
	<path class="cls-2" d="M274.583 152.208q1.877 6.03 3.494 12.142"/>
	<path class="cls-5" d="M280.328 173.396q-.307-1.355-.64-2.702.33 1.348.64 2.702Z"/>
	<path class="cls-2" d="M279.689 170.694q-.33-1.348-.67-2.693"/>
	<path class="cls-5" d="M139.821 214.063q.445-5.347 1.027-10.68.468-4.268 1.033-8.525 1.135-8.515 2.707-16.986c5.646-30.204 13.94-59.719 23.753-88.806 3.98-11.795 8.418-23.439 12.791-35.098.673-1.793.58-4.45 3.441-4.758-1.552-1.896-.49-3.258.953-4.543a1.232 1.232 0 0 1 .596-1.638q.053-.024.107-.044c-1.067-2.227-2.226-2.498-3.282.001-1.91 4.517-3.683 9.092-5.6 13.606-18.04 42.506-33.364 85.885-41.73 131.447-3.71 20.207-6.432 40.537-4.701 61.184l7.275-2.979c.248-10.754.742-21.486 1.63-32.18Z"/>
	<path class="cls-3" d="M158.418 348.335q-1.25-2.386-2.373-4.837-.563-1.225-1.097-2.465a129.254 129.254 0 0 1-3.644-9.527 231.721 231.721 0 0 1-7.184-27.627 253.431 253.431 0 0 1-3.902-26.61q-.328-3.347-.598-6.7c-.544-6.705-.94-13.427-1.305-20.15l.097-1.555-.22-2.62-7.276 2.979.562 12.104-.113 1.648.315 2.25.021.153-.016.222-.11 1.456c.306 3.502.535 7.014.871 10.513.112 1.166.235 2.33.378 3.493 2.769 22.653 6.946 44.939 17.975 65.312q1.325 2.447 2.746 4.802.623 1.03 1.267 2.039c6.444 10.09 14.537 18.612 25.818 24.037q.322-.656.638-1.308a82.68 82.68 0 0 1-22.85-27.61Z"/>
	<path class="cls-3" d="m131.478 261.327-.114 1.648.316 2.25-.315-2.25.113-1.648Z"/>
	<path class="cls-3" d="m131.685 265.6-.111 1.457c.307 3.502.536 7.013.872 10.512-.336-3.499-.565-7.01-.872-10.513l.11-1.456Z"/>
	<path class="cls-2" d="M180.63 377.252q.322-.656.638-1.308"/>
	<path class="cls-2" d="m138.191 246.244-7.275 2.979"/>
	<path class="cls-2" d="m146.959 257.592.08-.419"/>
	<path class="cls-2" d="m146.93 257.747.029-.154"/>
	<path class="cls-4" d="m146.856 258.132.059-.308.025-.133.098-.517.289-1.52a8.306 8.306 0 0 1-1.425-4.502 15.834 15.834 0 0 1-.021-.669q-.004-.298.001-.596c.007-.398.023-.797.042-1.195.02-.398.042-.795.061-1.19.02-.394.035-.787.041-1.177.43-28.774 1.917-57.342 8.454-85.641 5.987-25.92 12.132-51.746 19.768-77.23 2.355-7.858 5.35-15.523 7.701-23.381q.642-2.143 1.212-4.308.42-1.612.79-3.24.369-1.627.676-3.273l-.014.01-.04-.052c-2.86.309-2.768 2.965-3.44 4.758-4.374 11.66-8.812 23.303-12.792 35.098-9.813 29.087-18.107 58.602-23.753 88.806q-1.584 8.47-2.707 16.986-.567 4.257-1.033 8.524-.585 5.334-1.027 10.681c-.888 10.695-1.382 21.427-1.63 32.18v.001l.221 2.62-.097 1.556c.365 6.722.76 13.444 1.305 20.15q.272 3.352.598 6.698a253.431 253.431 0 0 0 3.902 26.61 231.721 231.721 0 0 0 7.184 27.628 129.247 129.247 0 0 0 3.644 9.527q.534 1.24 1.097 2.465 1.125 2.45 2.373 4.837a82.678 82.678 0 0 0 22.85 27.61l2.629.584c-.063-1.636-1.281-2.522-2.355-3.492-8.101-7.322-13.866-16.26-18.141-26.226a173.208 173.208 0 0 1-8.755-26.166q-1.335-5.313-2.383-10.682-.593-3.019-1.105-6.053a366.09 366.09 0 0 1-4.276-43.04l-.026-2.738Z"/>
	<path class="cls-4" d="M183.897 376.529c.002.044.012.082.012.127l.034-.117Z"/>
	<path class="cls-4" d="m183.897 376.529-2.629-.585 2.629.585Z"/>
	<path class="cls-4" d="m146.856 258.132.026 2.738-.025-2.738.058-.308Z"/>
	<path class="cls-4" d="m146.915 257.824-.058.308.073-.385.01-.056Z"/>
	<path class="cls-4" d="M138.192 246.244c.248-10.754.74-21.486 1.63-32.18-.89 10.694-1.383 21.426-1.63 32.18Z"/>
	<path class="cls-2" d="M139.821 214.063q.445-5.347 1.027-10.68"/>
	<path class="cls-4" d="m138.315 250.42.097-1.556-.22-2.62.22 2.62-.097 1.556Z"/>
	<path class="cls-2" d="M151.304 331.506a129.245 129.245 0 0 0 3.644 9.527"/>
	<path class="cls-4" d="M158.418 348.335a82.68 82.68 0 0 0 22.85 27.61 82.678 82.678 0 0 1-22.85-27.61Z"/>
	<path class="cls-4" d="M156.045 343.498q1.125 2.45 2.373 4.837-1.25-2.386-2.373-4.837Z"/>
	<path class="cls-2" d="M156.045 343.498q-.563-1.225-1.097-2.465"/>
	<path class="cls-4" d="M139.62 270.57c-.544-6.706-.94-13.428-1.305-20.15l.097-1.556-.097 1.556c.365 6.722.76 13.444 1.305 20.15Z"/>
	<path class="cls-2" d="M140.218 277.268q-.328-3.346-.598-6.699"/>
	<path class="cls-4" d="M185.535 44.707c-.006-.014-.004-.026-.009-.04-1.442 1.285-2.505 2.647-.953 4.543.023-.002.042-.007.064-.01l-.01.052c1.357-.923 2.004-1.99 1.643-3.264a4.141 4.141 0 0 0-.678-1.297c-.02.005-.036.012-.057.016Z"/>
	<path class="cls-4" d="M186.27 45.988a4.141 4.141 0 0 0-.678-1.297 4.141 4.141 0 0 1 .678 1.297Z"/>
	<path class="cls-4" d="m184.638 49.2-.006.014Z"/>
	<path class="cls-4" d="m184.632 49.214-.019.048.014-.01.01-.051Z"/>
	<path class="cls-4" d="M184.638 49.2c-.023.003-.042.008-.064.01.014.018.025.035.04.052l.018-.048Z"/>
	<path class="cls-2" d="m184.613 49.262.02-.048"/>
	<path class="cls-4" d="m185.526 44.667.032-.029c.013.018.02.035.034.053 1.004-.24 1.198-.823.7-1.698-.014.011-.026.024-.041.035l-.022-.043a1.232 1.232 0 0 0-.747 1.575q.02.055.044.107Z"/>
	<path class="cls-4" d="m186.263 42.993-.012.035c.015-.011.027-.024.041-.035l-.04.035Z"/>
	<path class="cls-4" d="M186.251 43.028c.015-.011.027-.024.041-.035-.007-.013-.01-.024-.018-.036l-.011.036Z"/>
	<path class="cls-4" d="m186.263 42.993.011-.036c-.018.008-.027.02-.045.028l.022.043Z"/>
	<path class="cls-4" d="M185.558 44.638c.013.018.02.035.034.053-.014-.018-.02-.035-.034-.053Z"/>
	<path class="cls-4" d="M185.535 44.707c.02-.004.036-.011.057-.016-.014-.018-.02-.035-.034-.053l-.012.035Z"/>
	<path class="cls-4" d="m185.546 44.673.012-.035-.032.03c.005.013.003.025.009.04Z"/>
	<path class="cls-4" d="m185.558 44.638-.012.035Z"/>
</svg>
