<svg xmlns="http://www.w3.org/2000/svg" width="234mm" height="82mm" viewBox="0 0 234 82">
	<path style="font-style:normal;font-variant:normal;font-weight:500;font-stretch:normal;font-size:medium;line-height:1.25;font-family:CorporativeSansRd;-inkscape-font-specification:'CorporativeSansRd Medium';letter-spacing:0;word-spacing:0;fill:#3a3a3a;fill-opacity:1;stroke:none;stroke-width:1.47003639" d="M341.216-107.183c9.893 0 15.639-4.32 15.639-11.323 0-15.76-23.517-8.872-23.517-20.488 0-3.268 3.199-6.012 8.53-6.012 5.213 0 6.93 2.16 8.115 3.677.889 1.168 1.837 1.693 3.08 1.693 1.304 0 2.548-1.05 2.548-2.568 0-.642-.237-1.401-.711-2.276-2.192-3.853-7.405-5.429-12.795-5.429-9.478 0-14.69 4.786-14.69 11.265 0 15.935 23.575 9.281 23.575 20.313 0 3.327-3.376 5.953-10.01 5.953-5.806 0-9.064-1.75-10.604-2.16a3.77 3.77 0 0 0-1.126-.174c-1.48 0-2.547.934-2.547 2.568 0 1.342.711 2.043 1.896 2.568 3.199 1.751 8.47 2.393 12.617 2.393z" transform="translate(-227.863 160.301)"/>
	<path style="font-style:normal;font-variant:normal;font-weight:500;font-stretch:normal;font-size:medium;line-height:1.25;font-family:CorporativeSansRd;-inkscape-font-specification:'CorporativeSansRd Medium';letter-spacing:0;word-spacing:0;fill:#3a3a3a;fill-opacity:1;stroke:none;stroke-width:1.47003639" d="M375.231-107.183c9.893 0 15.639-4.32 15.639-11.323 0-15.76-23.517-8.872-23.517-20.488 0-3.268 3.199-6.012 8.53-6.012 5.213 0 6.93 2.16 8.115 3.677.889 1.168 1.837 1.693 3.08 1.693 1.304 0 2.548-1.05 2.548-2.568 0-.642-.237-1.401-.71-2.276-2.193-3.853-7.406-5.429-12.796-5.429-9.478 0-14.69 4.786-14.69 11.265 0 15.935 23.575 9.281 23.575 20.313 0 3.327-3.376 5.953-10.01 5.953-5.806 0-9.064-1.75-10.604-2.16a3.77 3.77 0 0 0-1.126-.174c-1.48 0-2.547.934-2.547 2.568 0 1.342.711 2.043 1.896 2.568 3.199 1.751 8.47 2.393 12.617 2.393z" transform="translate(-227.863 160.301)"/>
	<path style="font-style:normal;font-variant:normal;font-weight:500;font-stretch:normal;font-size:medium;line-height:1.25;font-family:CorporativeSansRd;-inkscape-font-specification:'CorporativeSansRd Medium';letter-spacing:0;word-spacing:0;fill:#0299da;fill-opacity:1;stroke:none;stroke-width:1.42976654" d="M182.125 1.68c-2.48 0-4.484 2.007-4.484 4.369v36.373c0 2.362 2.003 4.371 4.484 4.371 2.51 0 4.541-2.01 4.541-4.371V6.049c0-2.362-2.031-4.37-4.541-4.37z" transform="matrix(1 0 0 .96674 -5.402 8.337)"/>
	<path style="font-style:normal;font-variant:normal;font-weight:500;font-stretch:normal;font-size:medium;line-height:1.25;font-family:CorporativeSansRd;-inkscape-font-specification:'CorporativeSansRd Medium';letter-spacing:0;word-spacing:0;fill:#0299da;fill-opacity:1;stroke:none;stroke-width:1.45248139" d="M201.38 2.428c-1.318 0-2.501.393-3.323 1.222-.822.83-1.21 2.017-1.21 3.342v34.319c0 1.316.29 2.456.993 3.298.703.843 1.794 1.264 2.963 1.264h9.426c7.078 0 12.8-2.086 16.734-5.9 3.933-3.815 6.016-9.31 6.016-15.881 0-6.481-2.021-11.947-5.934-15.756-3.913-3.81-9.653-5.908-16.873-5.908zm3.317 7.377h5.59c5.096 0 8.721 1.465 11.113 3.933 2.393 2.468 3.614 6.019 3.614 10.412 0 4.485-1.223 8.03-3.612 10.475-2.388 2.444-6.013 3.871-11.115 3.871h-5.59z" transform="matrix(1.02225 0 0 1.00386 -10.311 7.5)"/>
	<path transform="matrix(.26458 0 0 .26458 9.655 -94.226)" d="M208.969 363c-62.425 0-113.283 50.859-113.283 113.283 0 62.425 50.858 113.283 113.283 113.283 20.26 0 39.3-5.362 55.781-14.734 3.853-1.95 8.862-3.8 12.863-1.021 3.775 2.622 12.868 7.672 12.09 16.81-.552 6.77 1.785 13.759 7.645 18.496l46.216 43.695c8.962 8.75 23.339 8.446 31.926-.671 8.587-9.118 8.054-23.515-1.183-31.971l-46.217-43.703c-4.346-4.223-9.038-7.573-14.98-6.418-10.934 2.125-14.63-2.958-21.143-10.598-1.35-1.583-1.004-3.95 2.88-9.402 17.072-19.84 27.41-45.626 27.41-73.766C322.258 413.86 271.394 363 208.97 363Zm0 23.748c49.588 0 89.535 39.947 89.535 89.535 0 49.589-39.947 89.528-89.535 89.528-49.589 0-89.528-39.94-89.528-89.528 0-49.588 39.94-89.535 89.528-89.535z" style="color:#000;font-style:normal;font-variant:normal;font-weight:400;font-stretch:normal;font-size:medium;line-height:normal;font-family:sans-serif;font-variant-ligatures:normal;font-variant-position:normal;font-variant-caps:normal;font-variant-numeric:normal;font-variant-alternates:normal;font-feature-settings:normal;text-indent:0;text-align:start;text-decoration:none;text-decoration-line:none;text-decoration-style:solid;text-decoration-color:#000;letter-spacing:normal;word-spacing:normal;text-transform:none;writing-mode:lr-tb;direction:ltr;text-orientation:mixed;dominant-baseline:auto;baseline-shift:baseline;text-anchor:start;white-space:normal;shape-padding:0;clip-rule:nonzero;display:inline;overflow:visible;visibility:visible;opacity:1;isolation:auto;mix-blend-mode:normal;color-interpolation:sRGB;color-interpolation-filters:linearRGB;solid-color:#000;solid-opacity:1;vector-effect:none;fill:#3a3a3a;fill-opacity:1;fill-rule:nonzero;stroke:none;stroke-width:44.83908844;stroke-linecap:round;stroke-linejoin:miter;stroke-miterlimit:4;stroke-dasharray:none;stroke-dashoffset:0;stroke-opacity:1;color-rendering:auto;image-rendering:auto;shape-rendering:auto;text-rendering:auto;enable-background:accumulate"/>
	<path d="M289.354-149.69a3.281 3.281 0 0 0-.553.065c-8.91 1.683-15.868 8.86-17.228 17.876a3.281 3.281 0 1 0 6.488.979c.944-6.257 5.78-11.241 11.957-12.408a3.281 3.281 0 0 0-.664-6.512z" style="color:#000;font-style:normal;font-variant:normal;font-weight:400;font-stretch:normal;font-size:medium;line-height:normal;font-family:sans-serif;font-variant-ligatures:normal;font-variant-position:normal;font-variant-caps:normal;font-variant-numeric:normal;font-variant-alternates:normal;font-feature-settings:normal;text-indent:0;text-align:start;text-decoration:none;text-decoration-line:none;text-decoration-style:solid;text-decoration-color:#000;letter-spacing:normal;word-spacing:normal;text-transform:none;writing-mode:lr-tb;direction:ltr;text-orientation:mixed;dominant-baseline:auto;baseline-shift:baseline;text-anchor:start;white-space:normal;shape-padding:0;clip-rule:nonzero;display:inline;overflow:visible;visibility:visible;opacity:1;isolation:auto;mix-blend-mode:normal;color-interpolation:sRGB;color-interpolation-filters:linearRGB;solid-color:#000;solid-opacity:1;vector-effect:none;fill:#27a0f2;fill-opacity:1;fill-rule:nonzero;stroke:none;stroke-width:6.5619998;stroke-linecap:round;stroke-linejoin:miter;stroke-miterlimit:4;stroke-dasharray:none;stroke-dashoffset:0;stroke-opacity:1;color-rendering:auto;image-rendering:auto;shape-rendering:auto;text-rendering:auto;enable-background:accumulate" transform="translate(-227.863 160.312)"/>
	<path style="font-style:normal;font-variant:normal;font-weight:400;font-stretch:normal;font-size:medium;line-height:1.25;font-family:CorporativeSansRd;-inkscape-font-specification:CorporativeSansRd;letter-spacing:0;word-spacing:0;fill:#3a3a3a;fill-opacity:1;stroke:none;stroke-width:1.48392892" d="M257.53-144.83c1.369 0 2.56-.948 2.56-2.546 0-1.538-1.191-2.544-2.56-2.544h-19.886c-2.322 0-3.632 1.302-3.632 3.61v36.275c0 1.539 1.25 2.84 2.977 2.84 1.786 0 3.036-1.301 3.036-2.84v-16.096h15.48c1.37 0 2.5-.947 2.5-2.485 0-1.48-1.13-2.486-2.5-2.486h-15.48v-13.729z" transform="translate(-227.863 160.312)"/>
</svg>
