<svg width="148" height="32" fill="none" xmlns="http://www.w3.org/2000/svg">
	<path d="M17.077 19.128H6.242v11.656a.756.756 0 0 1-.756.756H.756A.756.756 0 0 1 0 30.784V1.277A.756.756 0 0 1 .756.539h19.557a.756.756 0 0 1 .757.756v4.251a.756.756 0 0 1-.757.756H6.243v7.082h10.834a.756.756 0 0 1 .756.756v4.25a.756.756 0 0 1-.756.738Z" fill="#0E1826"/>
	<path d="M41.777.002c2.077-.03 4.141.33 6.086 1.06a13.01 13.01 0 0 1 4.407 2.702 14.826 14.826 0 0 1 2.766 3.808c.712 1.34 1.24 2.77 1.568 4.251a19.95 19.95 0 0 1 .443 4.159c-.001 1.419-.15 2.834-.443 4.223a16.727 16.727 0 0 1-1.568 4.269 14.807 14.807 0 0 1-2.766 3.808 12.724 12.724 0 0 1-4.407 2.674 16.947 16.947 0 0 1-6.086 1.042 17.078 17.078 0 0 1-6.132-1.042 12.716 12.716 0 0 1-4.407-2.674 15.211 15.211 0 0 1-2.831-3.808 16.261 16.261 0 0 1-1.595-4.27 20.442 20.442 0 0 1-.443-4.222c.001-1.398.15-2.792.443-4.159a16.33 16.33 0 0 1 1.595-4.25c.741-1.41 1.7-2.696 2.84-3.809a13.001 13.001 0 0 1 4.407-2.702 16.745 16.745 0 0 1 6.123-1.06Zm0 26.206a8.741 8.741 0 0 0 3.882-.849 7.32 7.32 0 0 0 2.61-2.01 10.353 10.353 0 0 0 1.52-2.71A13.95 13.95 0 0 0 50.547 18c.112-.674.17-1.355.175-2.038a13.017 13.017 0 0 0-.175-2.038 13.521 13.521 0 0 0-.756-2.61 10.464 10.464 0 0 0-1.485-2.664 7.137 7.137 0 0 0-2.646-1.992 8.944 8.944 0 0 0-3.882-.774 9.22 9.22 0 0 0-3.983.82 7.091 7.091 0 0 0-2.628 1.946 10.954 10.954 0 0 0-1.494 2.683 11.681 11.681 0 0 0-.756 2.61 13.458 13.458 0 0 0 0 4.075c.151.9.405 1.778.756 2.62.369.967.875 1.877 1.503 2.7a7.266 7.266 0 0 0 2.637 2.01 8.99 8.99 0 0 0 3.965.822v.037Z" fill="#0E1826"/>
	<path d="M69.234 8.763c.012.472.156.932.415 1.327.364.468.835.841 1.374 1.088.645.339 1.192.597 1.641.775a46.82 46.82 0 0 0 2.26.793l2.166.756c.412.148 1.097.421 2.056.82.739.288 1.449.643 2.121 1.061.455.308 1.024.735 1.706 1.282a5.848 5.848 0 0 1 1.484 1.66c.37.648.661 1.338.867 2.056.223.844.305 1.72.24 2.59a8.511 8.511 0 0 1-3.366 6.372 12.255 12.255 0 0 1-7.939 2.527 24.547 24.547 0 0 1-11.332-2.766.673.673 0 0 1-.35-.443.775.775 0 0 1 0-.572l2.037-3.854a.757.757 0 0 1 .424-.396.71.71 0 0 1 .572 0 20.083 20.083 0 0 0 8.299 2.213 6.573 6.573 0 0 0 3.402-.803 3.023 3.023 0 0 0 1.559-2.139 2.462 2.462 0 0 0-1.06-2.545c-1.189-.799-2.5-1.397-3.883-1.77a38.845 38.845 0 0 1-6.371-2.342c-3.074-1.654-4.61-4.113-4.61-7.377a8.3 8.3 0 0 1 2.766-6.593A10.64 10.64 0 0 1 72.968.05c3.687.087 7.315.945 10.65 2.517a.683.683 0 0 1 .35 1.015l-1.64 3.854a.758.758 0 0 1-1.015.442 21.845 21.845 0 0 0-7.874-1.991c-2.711 0-4.113.959-4.205 2.877Z" fill="#0E1826"/>
	<path d="M97.652 8.763c.02.475.174.935.442 1.328.364.467.836.84 1.374 1.088.646.338 1.193.596 1.642.774.448.178 1.201.443 2.259.793l2.167.756c.412.148 1.097.421 2.056.82.738.287 1.448.642 2.121 1.061.455.308 1.023.735 1.706 1.282a5.85 5.85 0 0 1 1.484 1.66c.344.652.61 1.342.793 2.056a7.83 7.83 0 0 1 .24 2.591 8.517 8.517 0 0 1-3.366 6.372 12.253 12.253 0 0 1-7.92 2.526 24.546 24.546 0 0 1-11.333-2.766.673.673 0 0 1-.35-.443.775.775 0 0 1 0-.571l2.038-3.855a.754.754 0 0 1 .442-.378.71.71 0 0 1 .572 0 20.082 20.082 0 0 0 8.299 2.213 6.578 6.578 0 0 0 3.384-.793 3.024 3.024 0 0 0 1.567-2.167 2.47 2.47 0 0 0-1.06-2.545 13.063 13.063 0 0 0-3.864-1.77 38.855 38.855 0 0 1-6.371-2.342c-3.074-1.654-4.61-4.113-4.61-7.377a8.298 8.298 0 0 1 2.765-6.593A10.631 10.631 0 0 1 101.386.05c3.696.083 7.334.94 10.678 2.517a.678.678 0 0 1 .422.422.683.683 0 0 1-.072.593l-1.641 3.854a.758.758 0 0 1-.712.505.756.756 0 0 1-.302-.062 21.847 21.847 0 0 0-7.902-1.992c-2.718 0-4.12.959-4.205 2.877Z" fill="#0E1826"/>
	<path d="m133.549.55 13.628 30.244a.58.58 0 0 1 0 .498.435.435 0 0 1-.406.249h-5.532a.978.978 0 0 1-1.042-.71l-2.674-6.547h-9.691l-2.647 6.51a1.032 1.032 0 0 1-1.051.71h-5.615a.432.432 0 0 1-.406-.25.607.607 0 0 1-.046-.506L131.612.54a1.164 1.164 0 0 1 .922-.396 1.125 1.125 0 0 1 1.015.406Zm-.923 11.811-2.766 6.953h5.533l-2.767-6.953Z" fill="#0E1826"/>
</svg>
