<svg xmlns="http://www.w3.org/2000/svg" viewBox="6.3 9.3 487.4 582.4">
	<defs>
		<style>
			.cls-1{fill:#f9a51b}.cls-3{fill:#ed413d}.cls-4{fill:#01acac}
		</style>
	</defs>
	<path d="M17.867 387.807a1.646 1.646 0 0 0 .69-1.127 6.129 6.129 0 0 0 .098-.9c.041-.755.068-1.51.104-2.265a21.192 21.192 0 0 1 .321-3.382 5.378 5.378 0 0 0 .078-.676c.157-1.96.52-3.889.848-5.825a99.806 99.806 0 0 1 4.71-17.24 132.21 132.21 0 0 1 8.29-18.366 137.757 137.757 0 0 1 12.444-18.921 153.998 153.998 0 0 1 13.262-14.895c3.448-3.4 7.054-6.623 10.786-9.707a180.175 180.175 0 0 1 17.392-12.691 206.401 206.401 0 0 1 25.644-13.998q6.284-2.88 12.72-5.397 8.869-3.46 17.992-6.17c6.348-1.882 9.353-2.642 14.885-3.939 2.498-.585 5.014-1.1 7.533-1.597 2.074-.409 4.17-.704 6.23-1.181 1.435-.11 2.82-.55 4.26-.624 1.47-.37 3-.36 4.477-.696a6.36 6.36 0 0 1 .899-.117 18.858 18.858 0 0 0 2.472-.317 11.841 11.841 0 0 1 1.351-.15 12.653 12.653 0 0 0 1.354-.13 18.423 18.423 0 0 1 3.606-.344 6.641 6.641 0 0 0 1.127-.114 25.444 25.444 0 0 1 3.611-.329 51.22 51.22 0 0 0 2.941-.21 60.69 60.69 0 0 1 3.396-.209c2.115-.084 4.231-.151 6.347-.213.907-.027 1.815-.014 2.722-.038.452-.012.904-.065 1.359-.1a1.309 1.309 0 0 1-.64.17 5.247 5.247 0 0 0-1.112.186 7.692 7.692 0 0 1-1.994.368 9.286 9.286 0 0 0-1.343.18 12.601 12.601 0 0 1-2.243.262 17.01 17.01 0 0 0-2.029.144 20.433 20.433 0 0 1-3.379.255c-1.357.023-2.715.02-4.072.039-.3.003-.598.041-.896.073a.213.213 0 1 0 .073.402c1.38.385 2.817.505 4.195.896a37.981 37.981 0 0 1 5.054 1.19c2.614.726 5.182 1.606 7.721 2.56.985.371 1.929.853 2.887 1.295a.655.655 0 0 1 .379.517 1.161 1.161 0 0 1-.43.102 8.558 8.558 0 0 1-1.325-.304 60.186 60.186 0 0 0-6.15-1.547c-1.65-.191-3.27-.612-4.943-.643a10.528 10.528 0 0 1-1.357-.107 37.122 37.122 0 0 0-6.343-.182c-.377.009-.754.058-1.13.098-.45.047-.9.124-1.352.152a25.718 25.718 0 0 0-4.274.509c-1.14.063-2.218.463-3.343.613-4.476 1.09-8.936 2.242-13.33 3.634a178.643 178.643 0 0 0-30.443 12.848 175.611 175.611 0 0 0-23.989 15.475c-3.241 2.485-6.41 5.062-9.443 7.8-.786.71-1.579 1.41-2.368 2.117a.468.468 0 0 0-.164.39c.009.173.105.251.3.242.075-.003.151.011.226.006.678-.048 1.364-.055 2.034-.158a24.95 24.95 0 0 1 3.166-.234q3.971-.098 7.943 0a22.227 22.227 0 0 1 3.391.256 2.791 2.791 0 0 0 .45.053 53.336 53.336 0 0 1 5.637.593c1.199.145 2.397.326 3.58.567 2.294.467 4.58.965 6.85 1.55a94.796 94.796 0 0 1 35.423 17.713 95.663 95.663 0 0 1 29.776 41.24 104.193 104.193 0 0 1 4.22 14.804c.139 1.279.516 2.518.625 3.802.39 1.776.425 3.6.724 5.39a16.8 16.8 0 0 1 .135 1.809c.094 1.66.17 3.321.27 4.982a38.912 38.912 0 0 1-.055 5.665c-.09 1.054-.12 2.114-.175 3.17a23.45 23.45 0 0 1-.335 3.61 5.324 5.324 0 0 0-.076.676 33.954 33.954 0 0 1-.4 3.147c-.179 1.041-.326 2.088-.51 3.13-.485 2.757-1.134 5.473-1.874 8.17a94.635 94.635 0 0 1-18.404 35.326 95.9 95.9 0 0 1-10.433 10.721 94.4 94.4 0 0 1-16.462 11.621 96.56 96.56 0 0 1-17.865 7.714c-3.027.96-6.098 1.747-9.196 2.43-1.695.374-3.406.714-5.128.921a46.502 46.502 0 0 1-5.405.62 3.821 3.821 0 0 0-.678.06 25.959 25.959 0 0 1-4.522.32q-3.63.027-7.262.002a27.9 27.9 0 0 1-4.523-.312 15.292 15.292 0 0 0-1.583-.124 12.794 12.794 0 0 1-2.25-.271 5.045 5.045 0 0 0-.67-.11 79.031 79.031 0 0 1-10.896-2.089 95.282 95.282 0 0 1-66.951-62.956 109.155 109.155 0 0 1-2.87-10.955c-.13-1.28-.525-2.516-.62-3.802-.401-1.775-.431-3.6-.722-5.39a23.751 23.751 0 0 1-.166-2.488c-.059-1.057-.12-2.114-.16-3.172a1.607 1.607 0 0 0-.725-1.336zm156.806 2.773a68.768 68.768 0 0 0-.584-8.834c-.34-2.09-.714-4.168-1.228-6.22a62.019 62.019 0 0 0-13.805-25.973 59.243 59.243 0 0 0-12.784-10.794 62.166 62.166 0 0 0-17.63-7.57 41.175 41.175 0 0 0-4.207-.908 35.232 35.232 0 0 0-4.718-.625c-.451-.006-.9-.102-1.352-.145-.677-.065-1.354-.164-2.032-.171-1.891-.022-3.782-.008-5.673 0a7.038 7.038 0 0 0-1.132.063c-1.864.313-3.773.273-5.62.72a52.182 52.182 0 0 0-7.507 1.688 59.891 59.891 0 0 0-10.704 4.31 60.543 60.543 0 0 0-22.021 19.17 60.118 60.118 0 0 0-7.232 13.821 57.493 57.493 0 0 0-3.279 13.394c-.077.675-.238 1.343-.284 2.02-.165 2.413-.269 4.831-.202 7.252a42.095 42.095 0 0 0 .522 6.775 42.966 42.966 0 0 0 1.156 6.234 61.533 61.533 0 0 0 14.424 26.888 59.74 59.74 0 0 0 6.794 6.339 60.773 60.773 0 0 0 11.704 7.32 61.902 61.902 0 0 0 10.836 3.967c1.541.405 3.992.901 5.537 1.18a32.354 32.354 0 0 0 3.82.491c.376.023.748.105 1.124.15.45.052.9.127 1.353.136a55.093 55.093 0 0 0 9.963-.283 2.19 2.19 0 0 1 .226-.022 29.563 29.563 0 0 0 3.369-.439 58.132 58.132 0 0 0 7.713-1.796 61.262 61.262 0 0 0 31.276-21.807 60.002 60.002 0 0 0 8.248-15.064 57.548 57.548 0 0 0 3.387-13.6c.035-.3.11-.595.149-.895.066-.524.145-1.05.171-1.576.089-1.813.157-3.626.222-5.196z" class="cls-1"/>
	<path fill="#214395" d="M482.26 129.443a12.161 12.161 0 0 1-.286 3.151 99.642 99.642 0 0 1-4.946 18.342 134.373 134.373 0 0 1-17.507 32.904 151.759 151.759 0 0 1-20.333 22.816 181.278 181.278 0 0 1-30.981 22.812 219.656 219.656 0 0 1-34.353 16.302 231.534 231.534 0 0 1-25.295 7.872q-5.937 1.483-11.934 2.691-4.331.881-8.692 1.589c-2.609.424-5.217.88-7.854 1.113-1.78.372-3.609.374-5.397.695-.444.08-.903.08-1.354.124-1.43.137-2.857.296-4.289.41-1.356.11-2.716.149-4.07.309-.824.098-1.659.12-2.49.16-2.038.098-4.077.206-6.118.275s-4.081.095-6.122.137c-.53.01-1.059.012-1.588.01a7.602 7.602 0 0 0-2.01.298c-3.064.822-6.102 1.73-9.135 2.657a3.047 3.047 0 0 1-.88.178c.391-.225.77-.475 1.176-.67a18.456 18.456 0 0 1 2.268-1.017c1.577-.512 3.154-1.023 4.717-1.573.715-.252 1.483-.269 2.184-.577a3.925 3.925 0 0 1 .89-.145 6.052 6.052 0 0 0 .882-.184 4.717 4.717 0 0 1 1.324-.273 11.02 11.02 0 0 0 1.54-.348c.592-.106 1.198-.13 1.798-.194a.765.765 0 0 0 .219-.054 6.103 6.103 0 0 1 2.228-.312 5.156 5.156 0 0 0 1.567-.19 5.339 5.339 0 0 1 1.787-.232q3.396-.033 6.792-.061c1.207-.009 2.415-.002 3.623-.005.398 0 .55-.06.488-.18a.384.384 0 0 0-.373-.197 3.132 3.132 0 0 1-.894-.11 7.024 7.024 0 0 0-2.214-.401 1.428 1.428 0 0 1-.447-.062 21.995 21.995 0 0 0-2.43-.5c-.584-.147-1.185-.24-1.755-.42-.65-.206-1.323-.298-1.972-.487-.435-.126-.863-.256-1.31-.345-.513-.103-1.01-.29-1.513-.444-.26-.08-.283-.201-.1-.498.98.085 1.958.166 2.936.258.527.049 1.051.14 1.579.17a61.39 61.39 0 0 0 7.938-.01 54.915 54.915 0 0 0 4.955-.582c3.509-.586 6.942-1.49 10.372-2.413a169.544 169.544 0 0 0 23.718-8.33 176.346 176.346 0 0 0 36.883-21.632q6.04-4.622 11.669-9.735a2.078 2.078 0 0 0 .58-.685.353.353 0 0 0-.023-.222c-.018-.055-.068-.137-.108-.14a3.136 3.136 0 0 0-.674 0 25.654 25.654 0 0 1-2.938.253q-5.898.257-11.797.002a23.764 23.764 0 0 1-2.938-.256 8.879 8.879 0 0 0-.675-.081 91.075 91.075 0 0 1-21.433-4.684 93.842 93.842 0 0 1-27.395-14.83 95.72 95.72 0 0 1-33.937-52.287 71.068 71.068 0 0 1-1.561-7.773c-.36-1.551-.393-3.15-.685-4.71a1.813 1.813 0 0 1-.029-.226c-.148-2.49-.474-4.969-.504-7.466-.022-1.815-.025-3.63.007-5.444.019-1.057.12-2.112.189-3.168.03-.453.076-.904.105-1.357.093-1.433.192-2.863.416-4.287.176-1.118.3-2.245.479-3.365a88.61 88.61 0 0 1 2.833-12.36 94.667 94.667 0 0 1 42.253-54.171 95.48 95.48 0 0 1 22.598-9.829 81.868 81.868 0 0 1 8.823-2.073c1.934-.357 3.877-.634 5.822-.916 2.551-.37 5.126-.412 7.682-.682a78.135 78.135 0 0 1 9.977.167c.602.062 1.207.09 1.811.125a32.918 32.918 0 0 1 3.384.34c1.193.195 2.413.205 3.591.512a89.039 89.039 0 0 1 15.615 3.815A93.922 93.922 0 0 1 447 42.093a95.83 95.83 0 0 1 33.754 52.915c.55 2.277.99 4.58 1.364 6.891a23.128 23.128 0 0 1 .143 2.485 6.892 6.892 0 0 0 .026 1.797 1.163 1.163 0 0 0 .424.767v19.964a1.14 1.14 0 0 0-.424.755 6.833 6.833 0 0 0-.029 1.776zm-94.383 48.363a47.576 47.576 0 0 0 7.696-.444 49.62 49.62 0 0 0 8.45-1.625 61.167 61.167 0 0 0 14.607-6.076 60.664 60.664 0 0 0 28.559-37.368 50.374 50.374 0 0 0 1.569-8.458c.02-.226.043-.452.084-.675a21.26 21.26 0 0 0 .274-3.16q.122-3.288-.002-6.576a21.79 21.79 0 0 0-.254-2.935 9.984 9.984 0 0 1-.134-1.125c-.084-1.44-.464-2.833-.64-4.258a63.967 63.967 0 0 0-3.07-10.42 60.595 60.595 0 0 0-26.972-31.046 58.935 58.935 0 0 0-12.07-5.147 56.81 56.81 0 0 0-13.116-2.463q-.679-.04-1.356-.115a24.352 24.352 0 0 0-2.945-.137c-1.059.012-2.124-.021-3.174.085a52.106 52.106 0 0 0-6.089.623 51.5 51.5 0 0 0-8.401 1.85A60.882 60.882 0 0 0 340.63 78.56a58.996 58.996 0 0 0-9.107 15.604 59.69 59.69 0 0 0-4.156 17.572c-.028.377-.05.755-.1 1.13a27.755 27.755 0 0 0-.177 3.168c-.034 2.043.105 4.076.267 6.113a56.478 56.478 0 0 0 1.147 7.615 60.988 60.988 0 0 0 49.224 47.148c1.195.205 2.396.332 3.59.514a34.633 34.633 0 0 0 4.294.34c.831.022 1.663.03 2.265.041z"/>
	<path d="M121.368 20.739c.075.214.17.396.442.412a20.606 20.606 0 0 1 3.377.373 1.87 1.87 0 0 0 .225.031 31.393 31.393 0 0 1 3.144.42c.959.197 1.934.328 2.9.503 2.455.446 4.872 1.042 7.28 1.686a112.177 112.177 0 0 1 10.756 3.526 135.338 135.338 0 0 1 33.044 18.202 150.834 150.834 0 0 1 18.831 16.666 174.514 174.514 0 0 1 18.59 23.126 199.467 199.467 0 0 1 11.052 18.471 227.829 227.829 0 0 1 15.186 36.087q2.73 8.407 4.821 16.995c.751 3.08 1.449 6.174 2.067 9.286.382 1.926.729 3.858 1.124 5.782.243 1.183.411 2.381.603 3.574.262 1.64.511 3.283.774 4.924.178 1.12.185 2.262.46 3.368.118 2.038.615 4.035.648 6.082a5.169 5.169 0 0 0 .081.903 31.12 31.12 0 0 1 .39 4.06c.014.226.016.454.05.677a56.835 56.835 0 0 1 .41 5.879c.029.604.042 1.21.1 1.81.286 2.94.266 5.888.264 8.836a6.614 6.614 0 0 1-.067.675 2.516 2.516 0 0 1-.278-.605 15.427 15.427 0 0 0-.244-1.783 9.841 9.841 0 0 1-.321-2.225 6.502 6.502 0 0 0-.181-1.565 6.442 6.442 0 0 1-.229-1.785q-.057-2.594-.108-5.19a8.918 8.918 0 0 0-.136-1.796 1.636 1.636 0 0 1-.039-.669 17.373 17.373 0 0 0 .176-3.596.885.885 0 0 0-.057-.218c-.053.037-.14.064-.156.113a11.11 11.11 0 0 0-.65 3.056 2.315 2.315 0 0 1-.126.663 10.46 10.46 0 0 0-.311 1.544c-.099.592-.317 1.167-.379 1.76-.102.98-.5 1.89-.615 2.863-.402 1.369-.784 2.744-1.212 4.105a108.585 108.585 0 0 1-1.434 4.274c-.382 1.059-.839 2.09-1.267 3.133a1.51 1.51 0 0 1-.219.391 2.285 2.285 0 0 1-.34.283 1.523 1.523 0 0 1-.061-.442 7.728 7.728 0 0 1 .239-1.107 47.767 47.767 0 0 0 1.536-6.617 44.4 44.4 0 0 0 .65-5.855c.067-2.269.099-4.535-.007-6.803a22.875 22.875 0 0 0-.371-3.833 54.208 54.208 0 0 0-1.557-8.001 174.539 174.539 0 0 0-7.616-23.476 177.784 177.784 0 0 0-18.57-34.458 176.364 176.364 0 0 0-14.69-18.438 3.604 3.604 0 0 0-.51-.447c-.039-.03-.148.013-.214.046a.255.255 0 0 0-.132.136 1.605 1.605 0 0 0-.055.444c.118 2.038.272 4.074.359 6.113a55.415 55.415 0 0 1-.057 6.574c-.086 1.13-.134 2.264-.197 3.396a22.44 22.44 0 0 1-.305 3.158c-.044.222-.061.45-.086.675a94.508 94.508 0 0 1-33.981 62.337 96.154 96.154 0 0 1-36.893 18.745 61.557 61.557 0 0 1-7.538 1.578c-1.465.398-2.995.399-4.475.72a10.597 10.597 0 0 1-1.354.126c-.528.045-1.062.05-1.582.141a27.454 27.454 0 0 1-3.842.3q-5.106.169-10.211-.016a22.59 22.59 0 0 1-3.389-.284 2.846 2.846 0 0 0-.45-.057c-1.744-.043-3.453-.402-5.179-.603-1.05-.123-2.075-.418-3.13-.516-1.687-.416-3.416-.647-5.08-1.156a88.419 88.419 0 0 1-14.402-4.742 93.77 93.77 0 0 1-27.657-17.889 95.028 95.028 0 0 1-22.141-30.97 92.635 92.635 0 0 1-5.884-17.594c-.531-2.36-1.038-4.721-1.345-7.122-.403-1.776-.444-3.599-.696-5.395-.157-1.12-.152-2.262-.203-3.395a27.085 27.085 0 0 0-.337-3.609 9.106 9.106 0 0 1 .048-3.604 11.3 11.3 0 0 0 .231-2.024q.051-1.36.116-2.72a20.396 20.396 0 0 1 .272-2.934c.043-.222.064-.449.085-.674a88.06 88.06 0 0 1 3.384-16.861 94.327 94.327 0 0 1 19.143-34.93 95.215 95.215 0 0 1 33.047-24.569 97.213 97.213 0 0 1 16.026-5.579c2.197-.56 4.426-.973 6.646-1.428 1.506-.133 2.973-.56 4.491-.613a26.423 26.423 0 0 1 4.055-.432c.269-.011.374-.194.462-.403zm53.331 94.717a74.215 74.215 0 0 0-.57-8.016 65.981 65.981 0 0 0-1.666-7.979A61.268 61.268 0 0 0 142.89 62.33a62.255 62.255 0 0 0-14.535-5.645c-1.463-.373-2.943-.7-4.434-.927a37.631 37.631 0 0 0-5.176-.618 6.594 6.594 0 0 1-.904-.078 25.728 25.728 0 0 0-3.847-.217 38.424 38.424 0 0 0-4.756.223 39.184 39.184 0 0 0-4.728.539 40.403 40.403 0 0 0-4.67.891 57.878 57.878 0 0 0-10.727 3.58 60.709 60.709 0 0 0-33.56 37.27 63.988 63.988 0 0 0-2.165 9.026 40.458 40.458 0 0 0-.507 4.048 66.959 66.959 0 0 0 .305 13.578 62.11 62.11 0 0 0 1.164 6.234 59.901 59.901 0 0 0 3.975 11.315 60.944 60.944 0 0 0 19.896 24.005 61.128 61.128 0 0 0 18.49 8.92 52.393 52.393 0 0 0 9.987 1.984 8.767 8.767 0 0 1 .897.131 14.904 14.904 0 0 0 2.257.21c2.572.096 5.143.101 7.714 0a10.106 10.106 0 0 0 1.358-.084c1.712-.302 3.454-.368 5.165-.713 2.168-.436 4.938-.99 6.84-1.574a61.674 61.674 0 0 0 27.13-16.655 60.032 60.032 0 0 0 11.91-18.346 63.633 63.633 0 0 0 3.443-11.014 53.946 53.946 0 0 0 .988-6.266c.205-2.106.285-4.224.3-6.69z" class="cls-3"/>
	<path d="M252.588 288.88a2.605 2.605 0 0 1-.135 1.116c-.301 1.013-.61 2.025-.918 3.036a57.499 57.499 0 0 0-1.595 7.531c-.061.373-.078.752-.11 1.129-.045.527-.057 1.059-.131 1.581a39.788 39.788 0 0 0-.248 6.112 20.876 20.876 0 0 0 .192 2.94c.057.373.088.75.111 1.128a44.206 44.206 0 0 0 1.177 7.377 176.581 176.581 0 0 0 23.86 56.018 170.707 170.707 0 0 0 15.623 20.57 29.272 29.272 0 0 0 2.458 2.66.432.432 0 0 0 .2.073c.203.039.294-.046.288-.242-.004-.15.019-.302.01-.45-.031-.453-.046-.91-.113-1.356a27 27 0 0 1-.266-3.844q-.029-3.741-.002-7.483a25.983 25.983 0 0 1 .26-3.844 7.143 7.143 0 0 0 .082-.903c.052-1.894.425-3.753.63-5.63.13-1.195 1.11-6.099 1.407-7.343a98.551 98.551 0 0 1 5.852-17.367 92.854 92.854 0 0 1 11.364-19.034 95.877 95.877 0 0 1 55.173-34.985A58.051 58.051 0 0 1 374 296.54c1.853-.405 3.755-.425 5.622-.725a14.451 14.451 0 0 1 1.584-.106c1.813-.088 3.625-.19 5.44-.25a51.984 51.984 0 0 1 3.175.013c1.209.035 2.417.11 3.626.167 1.586.073 3.168.155 4.746.378 1.346.19 2.7.324 4.048.511a81.158 81.158 0 0 1 8.008 1.557 95.66 95.66 0 0 1 23.218 8.9 93.286 93.286 0 0 1 15.717 10.71 95.073 95.073 0 0 1 27.375 38.091 92.094 92.094 0 0 1 4.423 14.504c.417 1.921.725 3.86 1.108 5.785a10.644 10.644 0 0 1 .137 1.352c.046.679.065 1.36.113 2.038a3.758 3.758 0 0 0 .271 1.323 2.727 2.727 0 0 1 .1 1.12v17.695a1.87 1.87 0 0 1-.043.673 3.78 3.78 0 0 0-.316 1.306c-.02.226-.046.452-.05.678a37.19 37.19 0 0 1-.833 6.28 95.206 95.206 0 0 1-20.378 42.942 95.813 95.813 0 0 1-52.533 31.921 55.963 55.963 0 0 1-6.242 1.134c-1.7.401-3.455.388-5.167.697a11.997 11.997 0 0 1-1.357.107c-1.509.097-3.017.213-4.528.28a60.72 60.72 0 0 1-7.028-.042c-.755-.054-1.51-.105-2.264-.147a34.924 34.924 0 0 1-4.741-.423 42.34 42.34 0 0 1-4.942-.663 93.226 93.226 0 0 1-10.382-2.362 131.752 131.752 0 0 1-31.056-13.617 142.177 142.177 0 0 1-18.77-13.478 154.95 154.95 0 0 1-12.202-11.514 171.192 171.192 0 0 1-14.077-16.886 199.2 199.2 0 0 1-18.269-30.492 231.333 231.333 0 0 1-12.213-30.472 241.02 241.02 0 0 1-5.341-19.436 234.021 234.021 0 0 1-2.03-9.758c-.416-2.228-.771-4.465-1.18-6.694-.258-1.41-.373-2.846-.62-4.26-.3-1.713-.395-3.452-.709-5.163-.068-.37-.089-.75-.12-1.127-.083-.979-.164-1.957-.327-2.929-.075-.445-.092-.901-.125-1.354a30.726 30.726 0 0 0-.31-3.158 3.293 3.293 0 0 1-.05-.45c-.118-3.097-.5-6.177-.574-9.277-.07-2.947-.17-5.894-.251-8.84a2.972 2.972 0 0 1 .144-1.34 6.956 6.956 0 0 1 .603 2.627 1.287 1.287 0 0 0 .066.446 9.368 9.368 0 0 1 .377 2.682 3.9 3.9 0 0 0 .089.9 11.863 11.863 0 0 1 .337 3.369c.038 2.87.052 5.74.078 8.61.005.528.022 1.056.034 1.584.061-.03.163-.048.178-.094a9.755 9.755 0 0 0 .641-2.832 2.433 2.433 0 0 1 .095-.671c.356-1.157.43-2.373.761-3.535.187-.652.305-1.322.476-1.978.455-1.751.848-3.52 1.418-5.238.57-1.718 1.18-3.424 1.776-5.133a21.631 21.631 0 0 1 1.508-3.29 1.485 1.485 0 0 1 .323-.306zm135.526 162.666a94.194 94.194 0 0 0 6.524-.31c1.096-.09 4.66-.671 5.82-.926a62.908 62.908 0 0 0 13.302-4.445 60.812 60.812 0 0 0 33.455-40.35 51.307 51.307 0 0 0 1.548-8.92c.017-.226.035-.453.074-.676a21.217 21.217 0 0 0 .248-3.39 48.87 48.87 0 0 0-.325-8.146 43.827 43.827 0 0 0-1.134-7.155 60.926 60.926 0 0 0-40.95-44.753 65.845 65.845 0 0 0-9.027-2.173 39.256 39.256 0 0 0-4.049-.51 62.873 62.873 0 0 0-13.805.333 28.554 28.554 0 0 0-4.024.667 59.28 59.28 0 0 0-10.189 3.06 61.093 61.093 0 0 0-23.204 16.232 60.328 60.328 0 0 0-12.645 22.569 62.56 62.56 0 0 0-1.94 8.38c-.317 1.943-.513 3.896-.678 5.85a59.362 59.362 0 0 0-.06 6.574c.048 1.816.377 3.607.501 5.417.363 2.006.693 4.015 1.179 6a60.967 60.967 0 0 0 13.59 26.075 59.854 59.854 0 0 0 21.488 15.58 63.607 63.607 0 0 0 14.54 4.255c1.191.205 2.392.377 3.596.477 2.035.17 4.075.26 6.165.285zM97.308 580.643c-.092-.111-.167-.293-.28-.321a53.273 53.273 0 0 0-2.209-.496 25.02 25.02 0 0 1-16.284-11.685 28.996 28.996 0 0 1-3.541-9.257 42.602 42.602 0 0 1-.577-5.173 35.148 35.148 0 0 1 1.09-9.866 26.524 26.524 0 0 1 7.268-12.339 24.92 24.92 0 0 1 11.397-6.236 28.118 28.118 0 0 1 8.543-.796 26.386 26.386 0 0 1 12.633 3.91 25.052 25.052 0 0 1 7.958 7.932 28.58 28.58 0 0 1 4.026 10.736 40.585 40.585 0 0 1 .332 8.133 28.752 28.752 0 0 1-5.254 14.745 25.03 25.03 0 0 1-13.876 9.625c-.653.184-1.327.295-1.993.428q-1.665.333-3.333.648a2.757 2.757 0 0 1-.452.012zm-17.26-28.326a26.298 26.298 0 0 0 .407 5.299 22.401 22.401 0 0 0 4.35 10.08 19.315 19.315 0 0 0 11.256 7.105 22.799 22.799 0 0 0 5.4.504 20.926 20.926 0 0 0 4.716-.525 19.332 19.332 0 0 0 11.623-7.715 22.419 22.419 0 0 0 4.084-10.899c.064-.6.109-1.203.182-1.803a12.92 12.92 0 0 0 .084-2.487 38.782 38.782 0 0 0-.708-5.836 22.858 22.858 0 0 0-2.998-7.287 19.399 19.399 0 0 0-10.945-8.309 13.404 13.404 0 0 0-2.644-.613c-.902-.09-1.802-.203-2.705-.28a9.313 9.313 0 0 0-1.583-.04 29.903 29.903 0 0 0-5.151.72 19.468 19.468 0 0 0-8.792 4.92 21.711 21.711 0 0 0-6.089 11.655 22.49 22.49 0 0 0-.488 5.511zm89.892 28.326a.494.494 0 0 0-.401-.455c-.664-.145-1.33-.287-1.99-.45a17.444 17.444 0 0 1-8.383-4.717 16.357 16.357 0 0 1-2.796-3.83 19.607 19.607 0 0 1-1.814-4.87 33.302 33.302 0 0 1-.885-6.955c-.013-.831-.015-1.662-.016-2.493q-.001-14.621.003-29.242a9.816 9.816 0 0 1 .073-2.032.808.808 0 0 1 .463-.439c.075-.01.148-.037.223-.041a35.669 35.669 0 0 1 4.077.003.768.768 0 0 1 .59.59c.01.226.025.452.027.678.004.605.003 1.21.003 1.814 0 9.596.014 19.192-.012 28.788a45.379 45.379 0 0 0 .403 6.1 16.829 16.829 0 0 0 1.544 5.191 11.743 11.743 0 0 0 6.33 5.88 13.689 13.689 0 0 0 4.847 1.055c.831.02 1.663.018 2.494.003a13.526 13.526 0 0 0 4.426-.876 11.703 11.703 0 0 0 6.722-6.062 13.477 13.477 0 0 0 .889-2.324 22.924 22.924 0 0 0 .906-5.576q.047-1.925.047-3.852.006-14.281.004-28.562c0-.754.027-1.509.047-2.263a.676.676 0 0 1 .606-.567 27.897 27.897 0 0 1 4.297.009.696.696 0 0 1 .432.471c.02.375.06.75.06 1.126q.009 4.42.004 8.84l-.002 21.762c0 1.057-.02 2.115-.035 3.173a28.033 28.033 0 0 1-.97 6.482 18.178 18.178 0 0 1-1.055 2.987 16.802 16.802 0 0 1-10.27 9.305 11.004 11.004 0 0 1-1.74.5c-.52.09-1.029.245-1.542.373-.247.062-.251.07-.342.476zm312.772-51.272c-.3.037-.598.1-.898.107-.68.018-1.362.01-2.042.01l-17.928.002c-.68 0-1.36.026-2.04.045a.698.698 0 0 0-.618.552c-.021.3-.058.6-.059.9q-.005 8.847-.002 17.693a3.182 3.182 0 0 0 .112 1.12.66.66 0 0 0 .318.304 1.06 1.06 0 0 0 .443.084c.68.012 1.361.015 2.042.016l16.112.003c.604 0 1.208.037 1.811.06a.664.664 0 0 1 .456.44 17.165 17.165 0 0 1 .015 3.168.737.737 0 0 1-.415.48c-.225.023-.45.064-.675.067-.68.011-1.362.01-2.042.01l-15.432.002c-.68 0-1.36.021-2.04.04a.766.766 0 0 0-.689.75c-.007.226-.015.453-.015.68q-.001 8.959.001 17.918c0 .302.03.604.048.905a.697.697 0 0 0 .412.486 2.154 2.154 0 0 0 .22.053c.301.02.603.043.904.043q10.44.003 20.878.002a3.532 3.532 0 0 0 1.123-.113v4.537a9.117 9.117 0 0 1-2.035.103q-6.24.007-12.48.003-6.24 0-12.48-.004c-.527 0-1.055-.045-1.582-.07a.718.718 0 0 1-.454-.444c-.014-.15-.045-.3-.047-.45q-.013-.907-.012-1.815 0-24.608.003-49.215a11.26 11.26 0 0 1 .08-2.258.822.822 0 0 1 .468-.436c.225-.023.45-.06.676-.064.681-.012 1.362-.013 2.042-.013l23.145-.001c.68 0 1.361-.02 2.042-.019a1.493 1.493 0 0 0 .634-.218z" class="cls-4"/>
	<path fill="#747474" d="M482.712 106.948a1.163 1.163 0 0 1-.424-.768 6.892 6.892 0 0 1-.026-1.796.42.42 0 0 0 .45-.159zm-.453 22.495a6.833 6.833 0 0 1 .03-1.776 1.14 1.14 0 0 1 .423-.755v2.722a.44.44 0 0 0-.453-.191zM252.59 288.881a1.485 1.485 0 0 0-.324.307 21.631 21.631 0 0 0-1.508 3.289c-.597 1.71-1.205 3.415-1.776 5.133-.57 1.718-.963 3.487-1.418 5.238-.17.656-.29 1.326-.476 1.978-.332 1.162-.405 2.378-.761 3.535a2.433 2.433 0 0 0-.095.671 9.755 9.755 0 0 1-.641 2.832c-.015.046-.117.063-.178.094-.012-.528-.029-1.056-.034-1.584-.026-2.87-.04-5.74-.078-8.61a11.863 11.863 0 0 0-.337-3.37 3.9 3.9 0 0 1-.09-.899 9.368 9.368 0 0 0-.376-2.682 1.287 1.287 0 0 1-.066-.446 6.956 6.956 0 0 0-.603-2.626 3.82 3.82 0 0 1-.151-.657 15.994 15.994 0 0 0-.645-3.32 57.536 57.536 0 0 0-2.295-6.849 49.301 49.301 0 0 0-8.165-13.477 48.596 48.596 0 0 0-10.712-9.319 24.727 24.727 0 0 0-2.19-1.173c-.67-.34-1.357-.652-2.036-.977a1.358 1.358 0 0 0-.242-.362 7.985 7.985 0 0 0-2.341-1.183 1.991 1.991 0 0 0-.649.009l.015.043a.655.655 0 0 0-.379-.517c-.958-.442-1.902-.924-2.887-1.295-2.539-.954-5.107-1.834-7.721-2.56a37.981 37.981 0 0 0-5.054-1.19c-1.378-.39-2.815-.51-4.195-.896a.213.213 0 1 1-.073-.402c.298-.032.597-.07.896-.073 1.357-.018 2.715-.016 4.072-.039a20.433 20.433 0 0 0 3.38-.255 17.01 17.01 0 0 1 2.028-.144 12.601 12.601 0 0 0 2.243-.263 9.286 9.286 0 0 1 1.343-.179 7.692 7.692 0 0 0 1.995-.368 5.247 5.247 0 0 1 1.11-.186 1.309 1.309 0 0 0 .641-.17 63.031 63.031 0 0 0 11.027-3.295 48.78 48.78 0 0 0 19.077-13.753 53.984 53.984 0 0 0 5.652-8.176 19.995 19.995 0 0 0 1.338-3.11 2.03 2.03 0 0 1 .398-.798.953.953 0 0 0 .515-.996l-.029.035a2.274 2.274 0 0 0 .34-.283 1.51 1.51 0 0 0 .219-.391c.428-1.042.885-2.074 1.267-3.133.51-1.413.982-2.841 1.434-4.274.428-1.36.81-2.736 1.212-4.105.115-.973.513-1.883.615-2.863.062-.593.28-1.168.379-1.76a10.46 10.46 0 0 1 .31-1.544 2.315 2.315 0 0 0 .126-.663 11.11 11.11 0 0 1 .651-3.056c.015-.049.103-.076.156-.113a.885.885 0 0 1 .057.218 17.373 17.373 0 0 1-.176 3.596 1.636 1.636 0 0 0 .04.67 8.918 8.918 0 0 1 .135 1.796q.051 2.595.108 5.19a6.442 6.442 0 0 0 .229 1.784 6.502 6.502 0 0 1 .181 1.565 9.841 9.841 0 0 0 .321 2.225 15.427 15.427 0 0 1 .244 1.783 2.516 2.516 0 0 0 .278.605 17.53 17.53 0 0 0 .214 1.795c.276 1.252.568 2.503.926 3.734a57.34 57.34 0 0 0 4.154 10.51 48.302 48.302 0 0 0 14.319 16.71 58.016 58.016 0 0 0 12.02 6.744q.521.22 1.046.432a18.263 18.263 0 0 0 5.456 1.418 1.871 1.871 0 0 1 1.046.373c-.182.296-.16.418.1.498.503.154 1 .34 1.514.444.446.09.874.22 1.309.345.65.189 1.321.28 1.973.487.569.18 1.17.273 1.755.42a21.995 21.995 0 0 1 2.429.5 1.428 1.428 0 0 0 .447.061 7.024 7.024 0 0 1 2.214.401 3.132 3.132 0 0 0 .894.11.384.384 0 0 1 .373.197c.062.121-.09.18-.488.181-1.208.003-2.415-.004-3.623.005q-3.396.024-6.792.06a5.339 5.339 0 0 0-1.787.232 5.156 5.156 0 0 1-1.567.19 6.103 6.103 0 0 0-2.228.313.765.765 0 0 1-.219.054c-.6.063-1.206.088-1.798.194a11.02 11.02 0 0 1-1.54.348 4.717 4.717 0 0 0-1.324.273 6.052 6.052 0 0 1-.883.184 3.925 3.925 0 0 0-.889.145c-.7.308-1.469.325-2.184.577-1.563.55-3.14 1.06-4.717 1.573a18.456 18.456 0 0 0-2.268 1.016c-.406.196-.785.446-1.177.671a1.904 1.904 0 0 1-.393.22 12.612 12.612 0 0 0-2.673 1.205 47.818 47.818 0 0 0-13.988 11.665 56.022 56.022 0 0 0-3.339 4.561 25.79 25.79 0 0 0-2.759 5.178 1.953 1.953 0 0 1-.455.77 1.407 1.407 0 0 0-.456 1.04z"/>
	<path d="m425.487 552.511-.002 24.496c0 .755-.021 1.51-.036 2.266a.655.655 0 0 1-.611.55c-.529.022-1.057.049-1.586.051-.908.004-1.815 0-2.723-.02a1.107 1.107 0 0 1-.947-.523c-.996-1.516-2.001-3.026-2.996-4.544l-24.995-38.117c-.331-.505-.687-.994-1.036-1.486a.268.268 0 0 0-.392-.051.257.257 0 0 0-.1.171 8.925 8.925 0 0 0-.069.9c-.006 1.966-.004 3.932-.004 5.897v34.703c0 .68.003 1.361-.01 2.041-.012.643-.156 1.01-.9 1.015-1.36.01-2.722.068-4.081-.037a.687.687 0 0 1-.577-.598c-.01-.15-.031-.301-.033-.452-.006-.453-.006-.907-.006-1.36q0-24.837.003-49.673a12.475 12.475 0 0 1 .062-2.036.806.806 0 0 1 .433-.472 2.048 2.048 0 0 1 .224-.038c1.436-.005 2.872-.015 4.308-.002a.93.93 0 0 1 .777.4c.26.371.526.738.775 1.117q2.49 3.79 4.974 7.585 7.638 11.67 15.272 23.341 3.6 5.503 7.204 11.005a3.705 3.705 0 0 0 .84 1.06.41.41 0 0 0 .417.009.289.289 0 0 0 .127-.158 1.46 1.46 0 0 0 .113-.43q.028-1.134.027-2.268l.004-39.012a12.242 12.242 0 0 1 .075-2.262c.023-.125.173-.235.283-.331a.364.364 0 0 1 .218-.047c1.36-.01 2.721-.024 4.082-.02.595.001.853.255.868.793.007.227.015.453.016.68.003.605.002 1.21.002 1.814v24.043zm-102.903.185-.002 24.712a9.064 9.064 0 0 1-.096 2.032c-.028.122-.196.222-.315.31a.4.4 0 0 1-.22.04c-1.436.012-2.871.026-4.307.03a1.126 1.126 0 0 1-.939-.544 25.608 25.608 0 0 1-.508-.75q-1.803-2.747-3.604-5.497-11.805-18.01-23.613-36.017a14.138 14.138 0 0 0-1.288-1.857.298.298 0 0 0-.398-.072.343.343 0 0 0-.194.357c.004.453-.012.906-.013 1.36v16.55q0 12.015-.003 24.03a9.338 9.338 0 0 1-.084 2.032c-.028.124-.186.228-.3.321a.406.406 0 0 1-.22.05 34.747 34.747 0 0 1-4.3 0 .665.665 0 0 1-.557-.602c-.007-.226-.032-.452-.035-.678-.006-.453-.004-.907-.004-1.36l.002-49.196c0-.68.018-1.36.033-2.039a.717.717 0 0 1 .73-.689c.832-.013 1.663-.023 2.495-.023.604.001 1.209.01 1.812.038a.937.937 0 0 1 .754.435c.38.564.76 1.127 1.133 1.696q13.287 20.29 26.578 40.578a10.391 10.391 0 0 0 1.437 2.023.269.269 0 0 0 .19.042c.073-.007.187-.028.206-.075a1.213 1.213 0 0 0 .098-.427c.012-.756.014-1.511.014-2.267l.002-39.22c0-.755.033-1.51.053-2.265a.716.716 0 0 1 .434-.467c.075-.01.146-.054.22-.056a36.82 36.82 0 0 1 4.302.033.709.709 0 0 1 .438.459c.02.225.057.45.06.675.01.605.009 1.21.009 1.814v24.484zm-101.602-.351.002-25.18a6.335 6.335 0 0 1 .086-1.579.748.748 0 0 1 .472-.436c.15-.02.298-.058.448-.063.378-.012.756-.015 1.134-.015 4.766 0 9.532.009 14.298-.004a37.388 37.388 0 0 1 4.754.286 19.124 19.124 0 0 1 5.662 1.56 13.619 13.619 0 0 1 7.387 8.18 16.183 16.183 0 0 1 .932 5.111c.014.832.026 1.666-.028 2.494a16.748 16.748 0 0 1-1.102 5.074 13.134 13.134 0 0 1-6.227 6.939 18.48 18.48 0 0 1-5.791 1.898 4.312 4.312 0 0 0-1.102.248c-.158.07-.33.404-.257.556a4.904 4.904 0 0 0 .3.6q2.268 3.394 4.548 6.78l8.99 13.36c.253.376.48.768.716 1.154.088.143-.138.495-.32.496-1.664.003-3.327.01-4.99.006a.944.944 0 0 1-.77-.412 26.154 26.154 0 0 1-.774-1.117q-6.105-9.286-12.207-18.574a118.39 118.39 0 0 0-1.528-2.251.926.926 0 0 0-.781-.388 220.533 220.533 0 0 0-3.857-.023c-1.285.006-2.57.034-3.855.055a.702.702 0 0 0-.46.44c-.017.149-.062.297-.065.446a93.48 93.48 0 0 0-.016 1.814l-.003 17.694c0 .604-.036 1.208-.056 1.812-.004.125-.33.43-.467.446a31.251 31.251 0 0 1-4.52.017.741.741 0 0 1-.47-.439 3.79 3.79 0 0 1-.067-.445 95.185 95.185 0 0 1-.015-1.814q-.002-12.363-.001-24.726zm5.598-11.09.001 9.281c0 .528.006 1.056.025 1.584a.915.915 0 0 0 .117.432c.075.121.21.27.332.285a11.527 11.527 0 0 0 1.354.076c2.944.006 5.889-.023 8.833.013a23.862 23.862 0 0 0 4.724-.455 12.142 12.142 0 0 0 3.619-1.256 8.94 8.94 0 0 0 4.31-5.035 16.015 16.015 0 0 0 .75-4.217 15.52 15.52 0 0 0-.276-3.376 10.566 10.566 0 0 0-.943-3.009 8.98 8.98 0 0 0-3.843-4.024 11.119 11.119 0 0 0-3.167-1.188 21.194 21.194 0 0 0-4.488-.533c-3.321.023-6.643.005-9.965.007-.226 0-.452.022-.678.031a.756.756 0 0 0-.683.745q-.019.905-.02 1.81-.004 4.415-.002 8.829zM21.287 552.527l.001-24.48c0-.755.019-1.51.037-2.265a.75.75 0 0 1 .753-.687c.605-.013 1.21-.022 1.814-.022q5.443-.003 10.886-.001l13.833.002c.604 0 1.208.025 1.812.045a.747.747 0 0 1 .607.571 18.34 18.34 0 0 1-.068 3.384.362.362 0 0 1-.288.307 3.866 3.866 0 0 1-.667.104c-.907.024-1.814.04-2.72.041q-8.732.005-17.463.004c-.755 0-1.51.025-2.264.048a.738.738 0 0 0-.66.764c-.007.15-.023.3-.027.452-.006.226-.007.453-.007.68q0 8.5.003 17c0 .452.036.904.06 1.356a.659.659 0 0 0 .432.462c.528.028 1.055.072 1.582.073q5.33.01 10.659.004c2.192 0 4.384-.003 6.577.004.376.001.752.042 1.129.067a.765.765 0 0 1 .443.463 13.924 13.924 0 0 1-.034 3.379.593.593 0 0 1-.289.318.932.932 0 0 1-.43.104c-.68.016-1.361.02-2.041.02q-8.051.003-16.102.003a6.377 6.377 0 0 0-1.579.09.609.609 0 0 0-.31.313 1.042 1.042 0 0 0-.081.442q-.02 1.02-.019 2.04l-.002 19.267c0 .755-.021 1.51-.037 2.265a.703.703 0 0 1-.543.626c-.15.016-.298.057-.447.058-1.209.004-2.418.014-3.627-.005-.616-.01-.903-.196-.914-1.002-.004-.227-.008-.454-.008-.68q-.002-.794-.001-1.587v-24.027zm329.43-.246v-24.463c0-.68.013-1.359.02-2.038a.726.726 0 0 1 .536-.638c.075-.007.149-.043.222-.043 1.36 0 2.718 0 4.076.01a.781.781 0 0 1 .719.734c.007.15.018.301.02.452.004.302.004.604.004.906l-.002 50.512c0 .527-.05 1.054-.049 1.58 0 .229-.393.54-.63.548a41.935 41.935 0 0 1-4.299-.022.686.686 0 0 1-.585-.585c-.01-.226-.028-.452-.03-.678-.004-.604-.003-1.208-.003-1.812V552.28z" class="cls-4"/>
	<path d="M214.402 254.433a1.991 1.991 0 0 1 .649-.009 7.985 7.985 0 0 1 2.341 1.183 1.358 1.358 0 0 1 .242.362 25.367 25.367 0 0 1-3.063-1.17.397.397 0 0 1-.169-.366z" class="cls-1"/>
	<path d="M249.823 215.811a.953.953 0 0 1-.515.996c.034-.202.058-.407.105-.607a.492.492 0 0 1 .41-.389z" class="cls-3"/>
	<path d="M252.562 288.928a1.407 1.407 0 0 1 .456-1.04c-.024.2-.034.405-.077.603a.607.607 0 0 1-.379.437z" class="cls-4"/>
</svg>
