<svg xmlns="http://www.w3.org/2000/svg" viewBox="-4.76 -4.76 247.26 100.01">
	<path d="m0 65.484 8.545-.96V2.791L0 1.928.192.008l13.345.191L51.075.007l.48 17.282h-1.728L43.97 2.792l-26.786-.096V32.17l15.265-.192 3.937-11.232h1.824l-.48 12.385.48 12.96h-1.824L32.45 34.761l-15.265-.191v29.953l9.985.96-.192 1.92-13.633-.19-13.153.19L0 65.483M91.105 55.02c0 4.128.48 6.337 1.247 8.737l5.185-.288.192 1.824-12 2.4-2.113-8.448-15.265 9.504c-5.472-.096-8.64-1.152-10.464-3.552-1.824-2.4-2.209-6.049-2.209-11.137V26.217l-6.912.672-.288-2.112 12.384-2.4 2.496-.192v32.546c0 5.76 2.209 8.065 6.529 8.065 3.264 0 6.432-1.92 10.177-4.417l3.36-2.015V26.217l-6.337.672-.192-2.112 11.809-2.4 2.4-.192V55.02m28.797-30.818c-5.376 0-8.448 4.224-8.448 11.33 0 5.183 2.016 13.248 10.273 13.248 5.28 0 8.448-4.032 8.448-10.657 0-5.472-2.016-13.92-10.273-13.92zm-11.617 53.476c0 5.184 4.993 8.832 12.002 8.736 9.216 0 16.705-5.664 16.705-12.385 0-3.743-2.497-5.664-8.93-5.664H113.47c-4.704 4.609-5.185 7.2-5.185 9.313zm27.554-49.828 5.377-6.624h4.704v7.584h-6.624l-2.21 1.248a11.344 11.344 0 0 1 1.057 4.801c0 7.873-5.28 13.729-17.952 16.993-1.633 0-3.264-.192-4.609-.576l-4.992 5.376c0 3.265 1.92 4.897 4.8 4.897h17.185c7.872 0 11.33 4.032 11.33 9.216 0 8.065-9.602 15.745-23.522 19.969-13.25 0-19.49-4.128-19.49-13.056V76.14l10.56-8.352c-6.623-2.112-7.68-5.28-7.68-9.505v-.768l9.409-6.816c-5.76-2.017-9.697-6.624-9.697-12.48 0-7.97 5.281-13.634 17.954-16.994 6.048 0 11.712 2.496 14.4 6.624m93.02 11.329c0-8.64-1.632-14.689-9.793-14.689-6.817 0-10.56 6.24-11.233 15.17zm-21.122 2.688c0 12.769 6.625 20.545 17.185 20.545 3.937 0 8.353-1.824 12.097-4.224l.865 2.016c-4.993 3.745-10.082 6.337-16.034 8.545-11.136 0-21.6-7.777-21.6-22.658 0-15.072 9.503-22.465 20.928-24.961 11.905 0 16.321 7.488 16.321 17.665v3.072h-29.762m-11.324 21.602-5.183.288c-.768-2.4-1.248-4.609-1.248-8.737V22.185l-2.4.192-11.81 2.4.193 2.112 6.337-.672v30.147l-3.361 2.015c-3.744 2.496-6.912 4.417-10.176 4.417-4.321 0-6.53-2.304-6.53-8.065V22.185l-2.495.192-10.244 1.985.316 2.316 4.744-.461v27.842c0 5.088.384 8.737 2.208 11.137 1.824 2.4 4.992 3.456 10.465 3.552l15.265-9.504 2.112 8.448 12-2.4-.193-1.824" fill="#231f20"/>
</svg>
