<svg xmlns="http://www.w3.org/2000/svg" viewBox="8.06 1.56 178.62 144.12">
	<defs>
		<style>
			.cls-3{fill-rule:evenodd}.cls-3,.cls-4{fill:#0076b6}
		</style>
	</defs>
	<path fill="#231f20" d="M45.968 117.753a1.82 1.82 0 0 1-1.434.554H26.162A14.516 14.516 0 0 1 11.6 103.744v-.857a14.511 14.511 0 0 1 14.562-14.559h18.372a1.976 1.976 0 0 1 1.39.492 1.853 1.853 0 0 1 .536 1.434v2.186a1.992 1.992 0 0 1-.492 1.37 1.816 1.816 0 0 1-1.434.556H29.93q-5.354 0-6.424.774a9.54 9.54 0 0 0-4.925 4.678 8.51 8.51 0 0 0-.813 3.52q0 3.82 3.595 6.954 2.358 1.977 7.067 1.975h8.18q3.04 0 3.427-1.113a5.728 5.728 0 0 0 .428-2.698v-7.838a1.97 1.97 0 0 1 .47-1.347 1.785 1.785 0 0 1 1.414-.538h2.185a2.06 2.06 0 0 1 1.37.47 1.76 1.76 0 0 1 .556 1.415v15.774a1.973 1.973 0 0 1-.492 1.361zm38.22-29.425q2.103 0 2.998 2.398 6.168 12.42 9.337 18.865 3.17 6.445 3.383 7.002a1.395 1.395 0 0 1 .086.429v.214c-.114.712-.598 1.071-1.457 1.071h-3.168q-2.054 0-3.212-3.128-3.597-7.28-5.653-11.392-2.054-4.11-2.655-5.224-.729-.902-1.199-.901h-.384q-1.16 0-2.87 4.111l-7.536 15.205a2.805 2.805 0 0 1-2.357 1.329h-3.128a1.435 1.435 0 0 1-1.412-.772l-.043-.299v-.214a14.62 14.62 0 0 1 1.672-3.812q4.922-10.064 7.836-15.911 2.91-5.844 3.854-7.686a2.699 2.699 0 0 1 2.44-1.285zm-70.69 41.365v10.176h-1.06v-10.176zm7.29 2.9a2.033 2.033 0 0 1 2.272 2.326v4.95h-1.018v-4.78a1.295 1.295 0 0 0-1.45-1.48h-3.456v6.26h-1.019v-7.277zm7.472-3v.854h-.699a.874.874 0 0 0-.975 1.002v1.143h1.617v.906h-1.617v6.37H25.58v-8.446a1.592 1.592 0 0 1 1.77-1.828zm6.607 3a2.032 2.032 0 0 1 2.271 2.326v2.62a2.034 2.034 0 0 1-2.271 2.33h-2.468a2.033 2.033 0 0 1-2.272-2.33v-2.62a2.032 2.032 0 0 1 2.272-2.327zm-3.722 4.781a1.299 1.299 0 0 0 1.45 1.49h2.076a1.3 1.3 0 0 0 1.45-1.49v-2.285a1.294 1.294 0 0 0-1.45-1.48h-2.077a1.294 1.294 0 0 0-1.449 1.48zm12.767-4.767v1.002h-1.785q-1.435 0-1.435 1.49v4.77h-1.018v-4.935a2.033 2.033 0 0 1 2.272-2.327zm10.579-.015q2.244 0 2.245 2.327v4.95h-1.017v-4.78q0-1.493-1.424-1.493h-2.41v6.273h-.977v-6.273H47.06v6.273h-1.002v-7.277zm9.157 0a2.033 2.033 0 0 1 2.272 2.327v2.62a2.034 2.034 0 0 1-2.272 2.33h-2.565a1.707 1.707 0 0 1-1.937-1.925v-.57q0-1.617 1.84-1.617h3.359v.821h-3.094q-1.129 0-1.13.961v.335a.997.997 0 0 0 1.145 1.115h2.215q1.421 0 1.422-1.477v-2.495q0-1.435-1.382-1.435H59.37v-.99zm6.565-2.37v2.37h1.575v.906h-1.575v6.37h-1.017v-6.37H67.83v-.906h1.366v-2.37zm4.753-.628v1.616H73.95v-1.616zm0 3.066v7.209H73.95v-7.209zm7.262-.068a2.033 2.033 0 0 1 2.272 2.327v2.62a2.034 2.034 0 0 1-2.272 2.33H79.76a2.034 2.034 0 0 1-2.272-2.33v-2.62a2.033 2.033 0 0 1 2.272-2.327zm-3.722 4.782a1.3 1.3 0 0 0 1.45 1.49h2.077a1.299 1.299 0 0 0 1.449-1.49v-2.285a1.294 1.294 0 0 0-1.45-1.48h-2.076a1.295 1.295 0 0 0-1.45 1.48zm13.2-4.782a2.033 2.033 0 0 1 2.272 2.327v4.95H92.96v-4.78a1.295 1.295 0 0 0-1.45-1.48h-3.457v6.26h-1.018v-7.277zm15.639-2.9v1.046h-3.023v9.13h-1.062v-9.13h-3.065v-1.045zm6.106 2.9a1.712 1.712 0 0 1 1.951 1.922v.585q0 1.606-1.84 1.605h-3.374v-.823h3.094q1.13 0 1.13-.962v-.334a.998.998 0 0 0-1.143-1.115h-2.202a1.288 1.288 0 0 0-1.436 1.477v2.495a1.25 1.25 0 0 0 1.393 1.436h4.14v.99H110.9a2.035 2.035 0 0 1-2.274-2.329v-2.62a2.034 2.034 0 0 1 2.274-2.327zm9.839 0v1.016h-3.052a1.295 1.295 0 0 0-1.45 1.48v2.286a1.3 1.3 0 0 0 1.45 1.49h3.052v1.005h-3.246a2.034 2.034 0 0 1-2.274-2.33v-2.62a2.033 2.033 0 0 1 2.274-2.327zm3.429-2.998v2.998h3.65a2.033 2.033 0 0 1 2.273 2.327v4.95h-1.017v-4.78a1.295 1.295 0 0 0-1.45-1.48h-3.456v6.26h-1.017v-10.275zm13.171 2.998a2.034 2.034 0 0 1 2.274 2.327v4.95h-1.018v-4.78a1.296 1.296 0 0 0-1.45-1.48h-3.457v6.26h-1.019v-7.277zm9.493 0a2.034 2.034 0 0 1 2.273 2.327v2.62a2.035 2.035 0 0 1-2.273 2.33h-2.468a2.034 2.034 0 0 1-2.272-2.33v-2.62a2.033 2.033 0 0 1 2.272-2.327zm-3.722 4.782a1.3 1.3 0 0 0 1.45 1.49h2.078a1.298 1.298 0 0 0 1.447-1.49v-2.285a1.293 1.293 0 0 0-1.447-1.48h-2.077a1.295 1.295 0 0 0-1.451 1.48zm9.548-7.78v10.275h-1.019v-10.275zm7.262 2.998a2.032 2.032 0 0 1 2.27 2.327v2.62a2.033 2.033 0 0 1-2.27 2.33h-2.466a2.035 2.035 0 0 1-2.274-2.33v-2.62a2.034 2.034 0 0 1 2.274-2.327zm-3.722 4.782a1.3 1.3 0 0 0 1.449 1.49h2.079a1.3 1.3 0 0 0 1.449-1.49v-2.285a1.295 1.295 0 0 0-1.45-1.48h-2.078a1.295 1.295 0 0 0-1.449 1.48zm13.103-4.782a2.033 2.033 0 0 1 2.272 2.327v4.95q0 2.466-2.272 2.467h-3.332v-.99h3.136q1.451 0 1.45-1.59v-4.667a1.294 1.294 0 0 0-1.45-1.48h-2.007a1.294 1.294 0 0 0-1.449 1.48v1.99q0 1.394 1.45 1.396h2.898v.946h-3.093q-2.274 0-2.274-2.187v-2.315a2.034 2.034 0 0 1 2.274-2.327zm5.7 0v4.488a1.252 1.252 0 0 0 1.436 1.395h3.471v-5.883h1.016v7.277q0 2.466-2.27 2.467h-3.332v-.99h3.135q1.449 0 1.451-1.59v-.335h-3.652q-2.271 0-2.273-2.187v-4.642zm-11.097-44.264a3.13 3.13 0 0 1 3 2.398q6.165 12.42 9.334 18.865 3.172 6.445 3.385 7.002a1.42 1.42 0 0 1 .085.429v.214c-.115.712-.599 1.071-1.457 1.071h-3.169q-2.052 0-3.21-3.128-3.598-7.28-5.654-11.392-2.057-4.11-2.655-5.224-.728-.902-1.2-.901h-.384q-1.158 0-2.87 4.111l-7.536 15.205a2.806 2.806 0 0 1-2.357 1.329h-3.125a1.436 1.436 0 0 1-1.414-.772l-.044-.299v-.214a14.76 14.76 0 0 1 1.67-3.812q4.926-10.064 7.838-15.911 2.91-5.844 3.855-7.686a2.696 2.696 0 0 1 2.44-1.285z"/>
	<path fill="#32a4d5" fill-rule="evenodd" d="M86.04 54.334C84.47 50.462 75.09 27.35 91.872 5c-9.73.625-12.976 10.759-14.046 16.252-2.177 11.172-.308 22.15 8.214 33.081z"/>
	<path d="M72.375 14.67c-2.345 3.075-7.73 7.79-4.969 16.966 1.843 6.12 6.06 17.603 19.138 24.953 0 0-18.051-16.051-14.169-41.92z" class="cls-3"/>
	<path d="M97.207 70.958a33.286 33.286 0 0 1 12.84 3.56 33.69 33.69 0 0 1 10.254 8.036 37.01 37.01 0 0 0-19.994-5.824c-.123 0-4.63.02-5.824-.097a33.772 33.772 0 0 1-22.589-11.856 61.898 61.898 0 0 0 23.523 6.103z" class="cls-4"/>
	<path fill="#32a4d5" d="M95.217 67.56a56.014 56.014 0 0 1-9.501-2.49 56.93 56.93 0 0 1-6.862-2.95l-.039-.02a29.249 29.249 0 0 1-14.34-24.962 33.668 33.668 0 0 0 25.19 23.516 47.632 47.632 0 0 0 4.261 5.526c.422.466.85.933 1.29 1.38z"/>
	<path d="M131.792 97.329a24.49 24.49 0 0 1-12.374 21.291 36.83 36.83 0 0 0-1.018-43.134 24.508 24.508 0 0 1 13.392 21.843z" class="cls-4"/>
	<path d="M118.4 75.486a67.535 67.535 0 0 0-15.39-6.038 43.577 43.577 0 0 1-8.223-8.055A36.756 36.756 0 0 1 118.4 75.486z" class="cls-3"/>
</svg>
