<svg xmlns="http://www.w3.org/2000/svg" xmlns:xlink="http://www.w3.org/1999/xlink" viewBox="11.27 2.64 102.09 116.09">
	<defs>
		<linearGradient id="c" x1="33.067" x2="51.887" y1="20.379" y2="46.118" gradientTransform="scale(1.0372 .96413)" gradientUnits="userSpaceOnUse">
			<stop offset="0%" stop-color="#FFF"/>
			<stop offset="100%" stop-color="#439246"/>
		</linearGradient>
		<linearGradient id="d" x1="42.708" x2="67.108" y1="27.083" y2="69.228" gradientTransform="scale(1.02871 .9721)" gradientUnits="userSpaceOnUse">
			<stop offset="0%" stop-color="#FFF"/>
			<stop offset="100%" stop-color="#439246"/>
		</linearGradient>
		<linearGradient id="e" x1="29.211" x2="52.951" y1="34.494" y2="67.229" gradientTransform="scale(1.09097 .91662)" gradientUnits="userSpaceOnUse">
			<stop offset="0%" stop-color="#FFF"/>
			<stop offset="100%" stop-color="#439246"/>
		</linearGradient>
		<linearGradient id="f" x1="44.275" x2="74.364" y1="47.919" y2="97.153" gradientTransform="scale(1.0896 .91777)" gradientUnits="userSpaceOnUse">
			<stop offset="0%" stop-color="#FFF"/>
			<stop offset="100%" stop-color="#439246"/>
		</linearGradient>
		<path id="a" d="M41.886.995c.997-.48 2.617-.478 3.61 0l31.32 15.083c.996.48 2.005 1.748 2.25 2.822l7.736 33.891c.246 1.079-.117 2.657-.804 3.519L64.324 83.489c-.69.864-2.15 1.565-3.251 1.565H26.309c-1.106 0-2.564-.704-3.251-1.565L1.383 56.309c-.69-.864-1.048-2.444-.803-3.518L8.316 18.9c.246-1.079 1.257-2.344 2.25-2.822z"/>
	</defs>
	<g fill="none" fill-rule="evenodd">
		<g transform="translate(18.671 4.26)">
			<mask id="b" fill="#fff">
				<use width="100%" height="100%" xlink:href="#a"/>
			</mask>
			<use width="100%" height="100%" fill="#009f76" xlink:href="#a"/>
			<path fill="#000" d="m-17.648 54.522 48.472-29.443L63.473 58.5 24.732 92.669z" mask="url(#b)" opacity=".29"/>
		</g>
		<path fill="url(#c)" d="M56.85 39.26c-.43 1.184-1.241 2.322-2.176 2.934L46.6 47.48c-1.386.907-3.625.912-5.017 0l-8.074-5.286C32.123 41.287 31 39.206 31 37.546V26.415c0-.725.213-1.53.57-2.283z" transform="matrix(-1 0 0 1 105.522 4.26)"/>
		<path fill="url(#d)" d="M56.077 25.141c.354.75.566 1.55.566 2.27v11.132c0 1.66-1.117 3.736-2.51 4.648l-8.073 5.286c-1.385.907-3.625.912-5.017 0l-8.074-5.286c-.677-.444-1.292-1.167-1.743-1.985z" transform="matrix(-1 0 0 1 105.314 4.26)"/>
		<path fill="url(#e)" d="M65.07 57.185c-.471 1.016-1.233 1.939-2.091 2.434l-15.604 9.009c-1.43.826-3.752.825-5.18 0L26.59 59.619c-1.43-.826-2.59-2.837-2.59-4.487V37.115c0-.766.25-1.609.66-2.375z" transform="translate(17.671 4.26)"/>
		<path fill="url(#f)" d="M65.019 34.955c.345.707.55 1.465.55 2.16v18.017c0 1.652-1.162 3.662-2.59 4.487l-15.604 9.009c-1.43.826-3.752.825-5.18 0L26.59 59.619c-.666-.385-1.274-1.027-1.733-1.77z" transform="translate(17.671 4.26)"/>
	</g>
	<path d="M60.504 98.992v4.922c0 .852.008 1.363.023 1.535h-.023a3.231 3.231 0 0 0-1.465-1.476c-.64-.328-1.367-.493-2.18-.493-1.156 0-2.136.274-2.941.82-.797.548-1.395 1.317-1.793 2.31-.398.992-.598 2.156-.598 3.492 0 2.023.426 3.617 1.278 4.78.86 1.165 2.136 1.747 3.832 1.747.86 0 1.625-.176 2.297-.527.671-.36 1.195-.895 1.57-1.606h.047c0 .383.012.762.035 1.137.023.375.05.629.082.762h2.016a46.995 46.995 0 0 1-.07-2.613v-14.79zm-39.188.645c-1.578 0-2.953.343-4.125 1.031-1.171.687-2.074 1.668-2.707 2.941-.632 1.266-.949 2.75-.949 4.454 0 1.656.305 3.132.914 4.43.61 1.296 1.485 2.312 2.625 3.046 1.149.727 2.496 1.09 4.043 1.09 1.156 0 2.176-.234 3.059-.703a6.237 6.237 0 0 0 2.18-1.899v2.368h1.968v-8.79H21.75v2.075h4.266v.07c-.008.89-.192 1.7-.551 2.426a4.168 4.168 0 0 1-1.63 1.746c-.726.43-1.624.644-2.694.644-1.055 0-1.985-.273-2.79-.82-.804-.555-1.43-1.324-1.874-2.309-.438-.984-.657-2.109-.657-3.375 0-1.273.22-2.386.657-3.34.445-.96 1.074-1.702 1.886-2.226.82-.523 1.782-.785 2.883-.785 1.04 0 1.93.191 2.672.574.75.383 1.418.95 2.004 1.7l1.758-1.395c-.813-.977-1.727-1.711-2.742-2.203-1.016-.5-2.223-.75-3.622-.75zm15.082 3.843c-1.101 0-2.074.22-2.918.657a6.41 6.41 0 0 0-2.074 1.652l1.324 1.371c.649-.703 1.247-1.195 1.793-1.476a3.938 3.938 0 0 1 1.829-.422c.828 0 1.464.25 1.91.75.453.492.68 1.175.68 2.05v.75l-2.52.047c-1.57.032-2.883.356-3.938.973-1.054.61-1.582 1.621-1.582 3.035 0 1.172.336 2.094 1.008 2.766.68.664 1.664.996 2.953.996 1 0 1.809-.176 2.426-.527.625-.36 1.176-.887 1.652-1.582h.047c0 .68.032 1.304.094 1.875h2.04a34.317 34.317 0 0 1-.095-2.684v-5.86c0-.851-.18-1.605-.539-2.261a3.824 3.824 0 0 0-1.582-1.547c-.695-.375-1.531-.563-2.508-.563zm12.938 0c-.625 0-1.184.196-1.676.586-.492.391-.894.98-1.207 1.77h-.047c0-.25-.011-.578-.035-.984-.016-.415-.035-.79-.059-1.125H44.32c.047.687.07 1.671.07 2.953v9.715h2.122v-6.598c0-1.313.218-2.348.656-3.106.437-.765 1.121-1.148 2.05-1.148.391 0 .727.043 1.009.129l.164-2.074c-.274-.078-.625-.118-1.055-.118zm21.398 0c-1.046 0-1.988.254-2.824.762-.836.5-1.496 1.242-1.98 2.227-.477.976-.715 2.156-.715 3.539 0 1.32.223 2.48.668 3.48.453.992 1.113 1.766 1.98 2.32.875.547 1.93.82 3.164.82a6.09 6.09 0 0 0 1.98-.304c.602-.203 1.098-.433 1.49-.691.39-.258.784-.555 1.183-.89l-1.149-1.513c-.39.344-.75.625-1.078.844-.32.219-.683.399-1.09.54a4.21 4.21 0 0 1-1.336.199c-.789 0-1.453-.208-1.992-.622a3.872 3.872 0 0 1-1.207-1.593 5.348 5.348 0 0 1-.387-1.993h8.602c.031-.406.047-.742.047-1.007 0-1.04-.176-2.02-.527-2.942a5.007 5.007 0 0 0-1.723-2.273c-.797-.602-1.832-.903-3.106-.903zm14.239 0c-1.04 0-1.871.204-2.496.61-.618.398-1.141.996-1.57 1.793h-.048c0-.29-.011-.668-.035-1.137a14.84 14.84 0 0 0-.058-1.02h-1.993c.016.102.032.454.047 1.055.016.602.024 1.145.024 1.63v9.984h2.12v-7.348c0-.781.134-1.445.4-1.992.273-.555.656-.977 1.148-1.266.492-.289 1.07-.434 1.734-.434.93 0 1.598.258 2.004.774.406.508.61 1.25.61 2.226v8.04h2.12v-8.45c0-1.39-.332-2.48-.996-3.27-.656-.796-1.66-1.195-3.011-1.195zm12.105 0c-1.047 0-1.988.254-2.824.762-.836.5-1.496 1.242-1.98 2.227-.477.976-.715 2.156-.715 3.539 0 1.32.222 2.48.668 3.48.453.992 1.113 1.766 1.98 2.32.875.547 1.93.82 3.164.82a6.09 6.09 0 0 0 1.98-.304c.602-.203 1.098-.433 1.489-.691.39-.258.785-.555 1.183-.89l-1.148-1.513c-.39.344-.75.625-1.078.844-.32.219-.684.399-1.09.54a4.21 4.21 0 0 1-1.336.199c-.789 0-1.453-.208-1.992-.622a3.872 3.872 0 0 1-1.207-1.593 5.348 5.348 0 0 1-.387-1.993h8.602c.031-.406.047-.742.047-1.007 0-1.04-.176-2.02-.528-2.942a5.007 5.007 0 0 0-1.722-2.273c-.797-.602-1.832-.903-3.106-.903zm13.055 0c-.625 0-1.184.196-1.676.586-.492.391-.895.98-1.207 1.77h-.047c0-.25-.012-.578-.035-.984-.016-.415-.035-.79-.059-1.125h-1.992c.047.687.07 1.671.07 2.953v9.715h2.121v-6.598c0-1.313.22-2.348.657-3.106.437-.765 1.12-1.148 2.05-1.148.391 0 .727.043 1.008.129l.164-2.074c-.273-.078-.625-.118-1.054-.118zm-53.016 1.805c1.024 0 1.844.363 2.461 1.09.617.727.926 1.898.926 3.516 0 1.703-.32 2.941-.961 3.714-.633.774-1.496 1.16-2.59 1.16-1.11 0-1.926-.413-2.45-1.242-.515-.828-.773-1.992-.773-3.492 0-3.164 1.13-4.746 3.387-4.746zm13.617 0c.961 0 1.707.293 2.239.88.53.577.847 1.468.949 2.67h-6.445c.039-.812.218-1.483.539-2.015.328-.53.73-.918 1.207-1.16.484-.25.988-.375 1.511-.375zm26.344 0c.961 0 1.707.293 2.238.88.532.577.848 1.468.95 2.67H93.82c.04-.812.22-1.483.54-2.015.327-.53.73-.918 1.206-1.16.485-.25.989-.375 1.512-.375zm-58.137 5.18v1.207c0 .547-.14 1.066-.421 1.558-.282.485-.696.88-1.243 1.184-.539.297-1.183.445-1.933.445-.703 0-1.258-.175-1.664-.527-.399-.36-.598-.84-.598-1.441 0-.86.352-1.461 1.055-1.805.71-.352 1.648-.543 2.812-.574z"/>
	<path fill="none" d="M3 0h115v115H3z"/>
</svg>
