<svg xmlns="http://www.w3.org/2000/svg" width="200" height="128">
	<path d="M34.562 51.788a2.666 2.666 0 0 1 .292 1.8c-.008.526.142.858.72.94a1.945 1.945 0 0 1 .777.311c.7.469 1.2.265 1.724-.335.854-.985.845-.911 1.811.064.869.876 1.744 1.746 2.535 2.538a1.073 1.073 0 0 1-.512.835c-.931.64-.8 1.355-.408 2.291a1.543 1.543 0 0 0 1.749 1.15c1.041-.055 1.094.055 1.117 1 .029 1.131-.006 2.263.012 3.394.01.639-.257.949-.906.919-.282-.014-.567.011-.849-.006a.829.829 0 0 0-.9.613 6.083 6.083 0 0 1-.323.777 1.252 1.252 0 0 0 .346 1.868 5 5 0 0 1 .709.748L38.83 74c-.208.28-.419-.054-.594-.3-.6-.854-1.26-.748-2.161-.436a1.545 1.545 0 0 0-1.241 1.818c.058 1.04-.054 1.094-1.006 1.117-1.131.027-2.263-.008-3.4.009-.64.01-.92-.264-.922-.911 0-.5.243-1.157-.15-1.463a8.986 8.986 0 0 0-1.948-.928.554.554 0 0 0-.615.167c-.29.269-.578.543-.843.836-.325.359-.618.423-.987.046-1.022-1.043-2.061-2.069-3.051-3.059.1-.24.117-.384.193-.433 1.292-.842 1.318-1.869.592-3.129-.224-.389-.37-.658-.833-.644a9.608 9.608 0 0 1-.679 0c-1.137-.058-1.158-.064-1.179-1.144s.011-2.15-.011-3.224c-.012-.613.2-1.067.855-.952 1.35.239 1.823-.49 2.232-1.611.236-.65.229-1.027-.266-1.461a10.887 10.887 0 0 1-.827-.882l3.484-3.6a1.559 1.559 0 0 1 .351.205c1.333 1.259 1.778 1.311 3.3.421a.846.846 0 0 0 .39-.855 2.982 2.982 0 0 1 .281-1.8zm4.086 13.258c.97-.943.97-1.1 0-2.05a6.241 6.241 0 0 0-4.112-5.018 5.73 5.73 0 0 1-1.627-.788c-.729-.586-.839-.516-1.751.368A6.476 6.476 0 0 0 25.721 63c-.97.939-.97 1.106 0 2.044a6.468 6.468 0 0 0 5.437 5.442c.915.881 1.021.949 1.751.366a5.791 5.791 0 0 1 1.625-.785 6.23 6.23 0 0 0 4.114-5.021z" fill="#404040"/>
	<path d="M180 74.216h-.341l.041-10.9a2.151 2.151 0 0 0 .3.033z" fill="#9b9b9b"/>
	<path d="M118.094 58.9h4.238c.323 0 .535.139.537.493v1.4c1.488-1.415 2.933-2.35 4.9-2.274a5.06 5.06 0 0 1 4.405 2.709l1.34-1.268a5.625 5.625 0 0 1 5.688-1.187 4.759 4.759 0 0 1 3.422 4.733c.092 2.828.049 5.66.063 8.49 0 .51-.028 1.021 0 1.528.039.616-.262.767-.816.753-1.075-.028-2.153-.046-3.226 0-.711.032-.844-.284-.837-.907.028-2.6.022-5.208.016-7.812a5.456 5.456 0 0 0-.167-1.673 2.1 2.1 0 0 0-3.666-.954 4.716 4.716 0 0 0-1.208 3.418c-.019 2.037-.01 4.075-.013 6.113 0 .4-.008.793 0 1.189s-.146.644-.59.612c-.112-.008-.226 0-.339 0q-1.947-.042-3.894-.087a12.712 12.712 0 0 1-.189-3.843c-.055-1.7-.02-3.4-.027-5.095 0-.282-.015-.566-.036-.848-.1-1.326-.472-1.917-1.318-2.083a2.507 2.507 0 0 0-2.874 1.263 5.316 5.316 0 0 0-.626 2.6c.013 2.378-.024 4.755.011 7.133.01.72-.191 1.044-.946.969-1.33-.131-2.685.229-4-.192a20.758 20.758 0 0 1-.1-3.7c-.023-3.51-.01-7.02 0-10.529a1.087 1.087 0 0 1 .252-.951zm-57.648 7.49h-2.9c-.15-.16-.221-.2-.221-.241 0-1.008-.428-2.27.16-2.952.612-.711 1.906-.219 2.9-.25 1.469-.044 2.941 0 4.411-.016.486 0 .722.146.72.669a960.155 960.155 0 0 0 0 8.654.865.865 0 0 1-.648.876 18.263 18.263 0 0 1-5.691 1.443 17.652 17.652 0 0 1-6.384-.419 9.516 9.516 0 0 1-6.542-6.725 12.147 12.147 0 0 1 .019-6.829 9.417 9.417 0 0 1 8.23-7.027 17.162 17.162 0 0 1 9.162.859c1.105.455 1.127.422 1.14 1.5.01.848 0 1.7-.007 2.545a2.67 2.67 0 0 1-.122.469c-.859-.349-1.692-.737-2.558-1.031a10.86 10.86 0 0 0-6.63-.377 5.282 5.282 0 0 0-3.771 3.762 8.941 8.941 0 0 0 .123 5.792 5.325 5.325 0 0 0 4.93 3.719 9.852 9.852 0 0 0 2.868-.116c.519-.13.884-.357.831-1.044-.077-1.008-.02-2.025-.02-3.261zm41.024 7.877c-1.465 0-2.708.011-3.952 0-1-.011-1-.025-1.072-.989-.017-.221-.029-.443-.042-.661-.46-.077-.594.3-.815.5-1.967 1.824-4.249 1.828-6.642 1.161a4.725 4.725 0 0 1-3.1-4.721A4.468 4.468 0 0 1 89 65.067a11.546 11.546 0 0 1 3.63-.669c.962-.006 1.923 0 2.884-.014.889-.017 1.2-.5.773-1.265a2.3 2.3 0 0 0-1.587-1.144 11.765 11.765 0 0 0-6.455.576c-.3.1-.6.229-1.033.4 0-.891-.006-1.676 0-2.46.013-1.3.027-1.3 1.243-1.534a30.681 30.681 0 0 1 7.251-.359 4.685 4.685 0 0 1 .835.113c3.083.722 4.733 2.45 4.893 5.618.166 3.255.036 6.527.036 9.938zm-7.115-6.874a5.279 5.279 0 0 0-2.5.371 1.8 1.8 0 0 0-.964 1.822 1.711 1.711 0 0 0 1.051 1.593 3.328 3.328 0 0 0 4.391-1.988c.44-1.377.137-1.789-1.317-1.8zm-10.98 2.365a2.44 2.44 0 0 1 .193 1.342c.02 2.488.026 2.537-2.411 3.069a16.739 16.739 0 0 1-8.045.059 7.1 7.1 0 0 1-5.3-7.01 9.523 9.523 0 0 1 1.04-5.058 7.208 7.208 0 0 1 5.171-3.473 10.158 10.158 0 0 1 5.2.229 7.042 7.042 0 0 1 4.984 6.027 11.962 11.962 0 0 1 .243 2.183c-.025.648-.289.919-.931.905-.962-.02-1.925-.005-2.887-.005-2.265 0-4.53-.01-6.8.006-.955.007-1.091.232-.747 1.108a3.7 3.7 0 0 0 3.6 2.316 12.84 12.84 0 0 0 5.408-1.139c.429-.159.83-.359 1.282-.559zm-7.362-4.781c.849 0 1.7.011 2.548-.005.544-.01.8-.182.63-.841a2.993 2.993 0 0 0-2.845-2.422 3.428 3.428 0 0 0-3.359 2.576c-.079.364 0 .687.479.689.849.003 1.698.001 2.547.003zm70.405-2.12a23.133 23.133 0 0 0-.021-2.5 1.008 1.008 0 0 1 .937-1.281 21.227 21.227 0 0 1 9.222-.146 4.969 4.969 0 0 1 4.043 4.635c.147 3.333.074 6.675.107 10.013.005.507-.21.7-.7.691a91.754 91.754 0 0 0-3.4 0c-.579.014-.826-.2-.781-.782.029-.382.006-.769.006-1.236a2.685 2.685 0 0 0-.5.361c-1.623 2.008-3.829 2.289-6.15 1.933a4.783 4.783 0 0 1-4.065-5.518c.262-2.479 1.887-3.889 4.463-4.349a33.574 33.574 0 0 1 4.892-.313c.449-.015 1.146.325 1.305-.354a1.528 1.528 0 0 0-.766-1.589 5.122 5.122 0 0 0-2.745-.7 12.93 12.93 0 0 0-4.63.791c-.358.134-.663.434-1.217.344zm7.489 4.536v.032a16.842 16.842 0 0 0-1.7.01 2.08 2.08 0 0 0-2.109 2.171 2.164 2.164 0 0 0 2.418 1.856 3.384 3.384 0 0 0 3-2.111c.655-1.634.449-1.952-1.275-1.958zm25.793-4.084q-.019 5.453-.041 10.905c-1.243.018-2.485.052-3.727.049-1.012 0-1.033-.022-1.039-1-.016-2.544 0-5.089-.02-7.633a6.72 6.72 0 0 0-.126-1.509 2.4 2.4 0 0 0-3.962-1.337 4.8 4.8 0 0 0-1.588 3.936c-.058 2.147-.027 4.3-.015 6.445.006 1.012.065 1.138-1.127 1.111-.961-.021-1.924-.042-2.883.007-.69.035-.86-.243-.853-.888.028-2.714.011-5.428.012-8.142 0-1.865.017-3.731-.008-5.6-.008-.592.22-.785.791-.769 1.073.03 2.15.046 3.222-.005.694-.033.908.247.848.888-.032.334-.006.674-.006 1.03.614-.063.843-.567 1.205-.878a6.1 6.1 0 0 1 5.727-1.2c2.277.571 3.355 2.305 3.59 4.59zm-69.726-2.131c.614-.646.944-1.032 1.313-1.376a5.758 5.758 0 0 1 4.759-1.223c.372.033.415.306.414.608v3.718a10.851 10.851 0 0 0-2.726-.446c-2.257.231-3.538 1.2-3.715 3.981-.132 2.086-.036 4.186-.045 6.279-.007 1.717.179 1.538-1.53 1.548-.962.005-1.924 0-2.886 0-.412 0-.624-.181-.611-.6.007-.226 0-.453 0-.679 0-4.3.007-8.6 0-12.9 0-1.227 0-1.2 1.223-1.189.962.008 1.926.046 2.885-.011.766-.046 1.014.258.932.977-.045.321-.013.659-.013 1.313zm-83.526 3.544a.842.842 0 0 0 .009-1.4 5.149 5.149 0 0 1 5.013-5.009.849.849 0 0 0 1.288.173c.47-.347.932-.2 1.408-.2a7.553 7.553 0 0 1 3.355 3.106 2.646 2.646 0 0 1 .372 1.92.876.876 0 0 0 0 1.428c.123 2.048-1.154 3.259-2.609 4.363-.349.264-.84.288-1.122.666a1.988 1.988 0 0 1-1.407-.206.853.853 0 0 0-1.29.174 5.155 5.155 0 0 1-5.017-5.015zm5.812 2.056a2.758 2.758 0 0 0-.107-5.514 2.758 2.758 0 1 0 .107 5.514z" fill="#404040"/>
</svg>
