<svg xmlns="http://www.w3.org/2000/svg" width="474.219" height="162.461" overflow="visible" xml:space="preserve">
	<switch>
		<g>
			<path fill="#066FAF" d="M429.688 44.531 474.219 0H45.114L0 45.114v117.347h429.688V44.531zM162.461 82.813V57.382l12.716 12.716-12.716 12.715z"/>
			<path fill="#FFFFA3" d="M20 142.461V53.398L53.398 20h89.063v33.398h-77.93L53.398 64.531v44.531h55.664V97.93H97.93L64.531 64.531h77.93v77.93H20z"/>
			<g fill="#FFFFA3">
				<path d="m153.363 20 33.398 33.398h89.063v-.27l.013.013V20H153.363z"/>
				<path d="M131.098 142.461h144.727v-33.398h-66.797L220.16 97.93h55.664V64.531h-66.797l-77.929 77.93z"/>
				<path d="M420.82 20H287.227v33.398h55.664l-11.133 11.133h-44.531v77.93h122.461v-77.93H376.29L420.82 20zm-44.531 89.063h-55.664V97.93h55.664v11.133z"/>
			</g>
		</g>
	</switch>
</svg>
