<svg xmlns="http://www.w3.org/2000/svg" width="200" height="128">
	<path d="M50.817 60.885H37.371a.629.629 0 0 0-.628.629v6.573a.629.629 0 0 0 .628.629h5.245v8.167a15.856 15.856 0 0 1-4.433.4c-3.842 0-9.208-1.4-9.208-13.2s5.588-13.355 10.834-13.355a21.248 21.248 0 0 1 7.742 1.185.633.633 0 0 0 .753-.617l1.5-6.352a.584.584 0 0 0-.24-.49c-.506-.361-3.59-2.087-11.381-2.087C29.207 42.365 20 46.184 20 64.541s10.541 21.094 19.424 21.094a21.87 21.87 0 0 0 11.817-3.143.541.541 0 0 0 .2-.477v-20.5a.629.629 0 0 0-.624-.63zm69.29-16.32a.626.626 0 0 0-.624-.632h-7.57a.629.629 0 0 0-.627.632v14.63h-11.8v-14.63a.627.627 0 0 0-.625-.632h-7.57a.628.628 0 0 0-.625.632v39.614a.63.63 0 0 0 .625.634h7.57a.629.629 0 0 0 .625-.634V67.235h11.8l-.021 16.944a.631.631 0 0 0 .627.634h7.589a.628.628 0 0 0 .624-.634zM65.1 49.763a4.881 4.881 0 1 0-4.88 4.937 4.9 4.9 0 0 0 4.88-4.937zm-.539 26.06V57.537a.629.629 0 0 0-.626-.631h-7.547a.722.722 0 0 0-.656.7v26.2c0 .77.48 1 1.1 1h6.8c.746 0 .929-.366.929-1.011zm84.317-18.858h-7.512a.63.63 0 0 0-.625.634v19.424a8.49 8.49 0 0 1-4.617 1.4c-2.709 0-3.428-1.229-3.428-3.881V57.6a.63.63 0 0 0-.625-.634h-7.624a.631.631 0 0 0-.626.634v18.22c0 7.878 4.391 9.806 10.431 9.806a17.6 17.6 0 0 0 8.95-2.738 15.908 15.908 0 0 0 .277 1.614.662.662 0 0 0 .552.343l4.851-.022a.631.631 0 0 0 .626-.632V57.599a.63.63 0 0 0-.63-.634zm20.533-.89a14.123 14.123 0 0 0-7.169 1.9v-13.41a.627.627 0 0 0-.625-.632h-7.591a.628.628 0 0 0-.626.632v39.614a.63.63 0 0 0 .627.634h5.267a.625.625 0 0 0 .549-.337 12.3 12.3 0 0 0 .32-1.826s3.1 2.942 8.981 2.942c6.9 0 10.856-3.5 10.856-15.71s-6.319-13.807-10.589-13.807zM166.448 78.4a9 9 0 0 1-4.373-1.262v-12.55a10.023 10.023 0 0 1 3.883-1.26c2.705-.242 5.312.575 5.312 7.029 0 6.805-1.177 8.148-4.822 8.043zM86.319 56.9H80.64l-.008-7.5c0-.284-.147-.426-.475-.426h-7.739c-.3 0-.462.132-.462.421v7.753s-3.878.936-4.14 1.012a.629.629 0 0 0-.454.6v4.871a.628.628 0 0 0 .626.633h3.968v11.725c0 8.7 6.106 9.56 10.227 9.56a17.287 17.287 0 0 0 4.506-.742.586.586 0 0 0 .356-.568l.006-5.359a.639.639 0 0 0-.627-.633c-.331 0-1.178.135-2.05.135-2.789 0-3.734-1.3-3.734-2.976V64.268h5.679a.628.628 0 0 0 .626-.633v-6.1a.628.628 0 0 0-.626-.635z" fill="#0f0d0e"/>
</svg>
