<svg xmlns="http://www.w3.org/2000/svg" width="200" height="128">
	<path fill="#181616" d="M100 19a46.14 46.14 0 0 0-14.59 89.92c2.31.43 3.16-1 3.16-2.22s0-4.73-.07-8.59C75.67 100.9 73 92.67 73 92.67c-2.1-5.34-5.12-6.75-5.12-6.75-4.19-2.87.31-2.81.31-2.81 4.63.33 7.07 4.76 7.07 4.76 4.12 7 10.8 5 13.43 3.83a9.85 9.85 0 0 1 2.93-6.17c-10.25-1.16-21-5.12-21-22.8a17.89 17.89 0 0 1 4.75-12.39c-.48-1.16-2.06-5.85.45-12.21 0 0 3.87-1.24 12.69 4.73a43.85 43.85 0 0 1 23.11 0c8.81-6 12.67-4.73 12.67-4.73 2.52 6.36.94 11 .46 12.21a17.84 17.84 0 0 1 4.75 12.39c0 17.72-10.8 21.62-21.07 22.76 1.65 1.44 3.13 4.24 3.13 8.55 0 6.17-.06 11.14-.06 12.66 0 1.23.83 2.67 3.17 2.21A46.14 46.14 0 0 0 100 19z" fill-rule="evenodd"/>
	<path fill="#181616" d="M71.34 85.25a.59.59 0 0 1-.79.14c-.34-.15-.53-.47-.42-.7s.46-.3.8-.14.52.47.41.7zm1.87 2.08a.72.72 0 0 1-.95-.21c-.3-.32-.36-.76-.13-1s.64-.11.94.21.37.75.14 1zM75 90c-.28.19-.74 0-1-.4s-.28-.9 0-1.1.74 0 1 .39A.82.82 0 0 1 75 90zm2.52 2.55a.87.87 0 0 1-1.19-.17.89.89 0 0 1-.26-1.18c.25-.28.8-.2 1.19.18s.53.9.26 1.17zm3.48 1.5c-.11.36-.63.52-1.15.37s-.86-.58-.76-1 .63-.53 1.16-.37.86.58.75 1zm3.73.27c0 .38-.43.7-1 .7s-1-.29-1-.67.43-.69 1-.7 1 .29 1 .67zm3.51-.6c.07.37-.31.76-.86.86s-1-.13-1.1-.5.33-.76.86-.86 1 .13 1.1.5zm0 0"/>
</svg>
