<svg id="Layer_1" data-name="Layer 1" xmlns="http://www.w3.org/2000/svg" viewBox="0 0 792 612">
	<defs>
		<style>
			.cls-1{fill:#e44e2f}.cls-2{fill:#fbac2a}.cls-3{fill:#f4782f}.cls-4{fill:#969ca6}
		</style>
	</defs>
	<path id="path50" class="cls-1" d="m184.48 446.473 62.198-191.322H122.371l62.108 191.322Z"/>
	<path id="path66" class="cls-2" d="m35.25 255.151-18.94 58.126a12.884 12.884 0 0 0 4.66 14.395l163.51 118.801L35.25 255.151Z"/>
	<path id="path74" class="cls-1" d="M35.25 255.151h87.12L84.878 139.927a6.467 6.467 0 0 0-12.27 0L35.25 255.151Z"/>
	<path id="path82" class="cls-2" d="m333.798 255.151 18.873 58.126a12.884 12.884 0 0 1-4.66 14.395L184.478 446.473 333.8 255.151Z"/>
	<path id="path86" class="cls-1" d="M333.798 255.151h-87.12l37.425-115.224a6.467 6.467 0 0 1 12.27 0l37.425 115.224Z"/>
	<path class="cls-3" d="m184.479 446.473 62.199-191.322h87.12L184.479 446.473z"/>
	<path class="cls-3" d="M184.479 446.473 35.25 255.151h87.121l62.108 191.322z"/>
	<path class="cls-4" d="M414.902 251.037v-17.228h20.817V200.79h17.227v33.019h18.663v17.228h-18.663v16.51a188.875 188.875 0 0 1 24.406 19.38l-8.614 15.792a80.231 80.231 0 0 1-7.896-7.179 84.495 84.495 0 0 0-7.896-7.177v83.266H435.72V289.08q-9.337 24.41-19.381 40.915a189.92 189.92 0 0 0-5.742-24.406 187.052 187.052 0 0 0 23.687-54.553Zm83.984 120.592q-6.46-11.49-11.486-16.51 24.396-11.474 40.198-25.842a154.807 154.807 0 0 1-24.406-44.504q-3.599 47.376-33.018 83.985c-.965-1.436-2.871-4.072-5.742-7.897q-4.308-5.03-6.461-7.896 31.577-32.3 30.148-105.518l.718-20.816H474.48v-17.227h91.163v18.663l-15.792 29.43h28.711v19.38q-11.49 33.025-26.558 52.4a170.348 170.348 0 0 0 34.455 22.252q-5.03 8.615-10.768 17.946-21.534-14.368-35.172-26.559a314.735 314.735 0 0 1-41.633 28.713Zm48.093-144.998h-40.915v20.099q11.473 43.792 33.019 68.909a131.913 131.913 0 0 0 20.099-40.197h-27.995v-17.945Z"/>
	<path class="cls-4" d="M599.81 271.853a7.567 7.567 0 0 1-1.436-2.871q-5.754-9.32-7.895-12.921a231.018 231.018 0 0 0 20.098-16.51 125.786 125.786 0 0 0-17.227-26.558l13.638-10.05a123.084 123.084 0 0 1 15.791 22.97 160.382 160.382 0 0 0 15.075-19.38l13.638 10.766q-10.06 13.645-20.816 25.842 10.766 33.025 10.766 89.726 1.432 35.884-25.84 35.89h-17.228c0-1.435-.247-4.307-.718-8.613a81.143 81.143 0 0 0-1.435-9.332q7.89.707 15.074.717 13.626 1.431 12.92-18.662 0-15.782-.718-29.43a149.86 149.86 0 0 1-22.97 23.688 112.483 112.483 0 0 0-8.613-16.51 133.69 133.69 0 0 0 29.43-32.302 44.167 44.167 0 0 1-1.436-6.46 93.331 93.331 0 0 0-2.87-14.356q-8.614 7.907-17.228 14.356Zm86.854 94.034-9.331-14.358q4.307-4.306 6.46-12.92 7.167-22.24 7.179-78.959v-30.865a77.831 77.831 0 0 0-8.615.717 38.605 38.605 0 0 0-8.613.718v48.811q0 36.608-4.306 54.553-3.601 17.952-15.792 37.326a50.802 50.802 0 0 0-5.744-6.46 96.486 96.486 0 0 1-6.46-7.895 82.018 82.018 0 0 0 12.921-30.867q2.86-15.074 2.871-47.375v-63.885q59.573-4.306 94.034-10.05l7.177 17.228-17.945 2.154q0 51.682 5.025 76.805 5.013 25.842 21.535 50.247l-10.05 18.663q-19.38-28.701-25.841-58.143-7.184-28.7-7.179-85.419a77.922 77.922 0 0 0-8.613.718 34.436 34.436 0 0 0-7.896.718v30.866q0 35.178-2.872 53.117v2.154q-1.445 9.337-6.46 27.994a11.712 11.712 0 0 0-.717 3.59l17.945-7.178-9.332-30.148 11.485-3.59q2.861 9.337 8.615 28.713 6.46 20.104 9.33 29.43l-13.637 5.025q-2.155-6.461-4.308-15.074-8.613 2.86-18.663 7.178a37.011 37.011 0 0 0-5.024 2.153 23.347 23.347 0 0 0-7.179 4.308Z"/>
	<path class="cls-4" d="M481.045 421.586c0-19.461 12.93-30.747 28.588-30.747a25.427 25.427 0 0 1 18.51 7.612l-6.99 8.506c-2.913-2.679-6.046-4.669-11.075-4.669-9.03 0-15.443 7.092-15.443 18.853 0 12.056 5.46 19.064 16.504 19.064a10.576 10.576 0 0 0 6.21-1.746v-10.128h-9.717v-10.824h21.495v27.043c-4.045 3.96-11.17 7.104-19.355 7.104-16.158 0-28.727-10.311-28.727-30.068Z"/>
	<path class="cls-4" d="M543.486 391.918h13.262v58.656h-13.262Z"/>
	<path class="cls-4" d="M584.303 403.04h-16.145v-11.122h45.551v11.122h-16.145v47.534h-13.261Z"/>
	<path class="cls-4" d="M625.117 391.918h13.26v47.535h23.154v11.121h-36.414Z"/>
	<path class="cls-4" d="M684.361 391.918h15.868l18.42 58.656h-14.034l-7.674-29.706c-1.63-5.865-3.197-12.8-4.763-18.92h-.36c-1.419 6.194-2.986 13.055-4.615 18.92l-7.706 29.706H665.94Zm-6.276 34.378h28.223v10.307h-28.223Z"/>
	<path class="cls-4" d="M726.547 391.918h20.076c12.176 0 21.633 3.346 21.633 14.548 0 5.262-2.944 10.863-7.729 12.663v.36c5.992 1.557 10.619 5.971 10.619 13.806 0 11.933-10.091 17.28-22.85 17.28h-21.75Zm19.463 23.493c6.433 0 9.281-2.72 9.281-6.985 0-4.519-3.006-6.276-9.186-6.276h-6.297v13.261Zm1.207 24.932c7.228 0 10.964-2.572 10.964-7.905 0-5.145-3.672-7.24-10.964-7.24h-7.41v15.145Z"/>
</svg>
