<svg xmlns="http://www.w3.org/2000/svg" width="200" height="128">
    <path d="M132.544 51.214h-3.428l.015 25.554h13.886v-3.161H132.56zM156.232 72.285a5.854 5.854 0 0 1-4.246 1.793c-2.611 0-3.664-1.29-3.664-2.973 0-2.531 1.761-3.742 5.5-3.742a16.506 16.506 0 0 1 2.422.188v4.734zM152.678 56.8a11.354 11.354 0 0 0-7.3 2.626l1.211 2.107a10.5 10.5 0 0 1 5.583-1.635c2.815 0 4.057 1.447 4.057 3.869V65a15.746 15.746 0 0 0-2.375-.189c-6.007 0-9.058 2.107-9.058 6.511 0 3.947 2.422 5.928 6.086 5.928 2.469 0 4.844-1.132 5.661-2.972l.629 2.5h2.428V63.7c-.015-4.136-1.808-6.9-6.919-6.9zM170.659 74.194a7.993 7.993 0 0 1-3.271-.55v-11.81a6.758 6.758 0 0 1 4.45-1.683c3.318 0 4.592 2.343 4.592 6.133 0 5.378-2.06 7.91-5.771 7.91m1.447-17.394a6.28 6.28 0 0 0-4.718 2.092v-3.305l-.016-4.372h-3.35l.016 24.926a17.316 17.316 0 0 0 6.479 1.085c6.4 0 9.483-4.089 9.483-11.15-.016-5.582-2.862-9.278-7.894-9.278M95.217 53.986a9.642 9.642 0 0 1 6.275 2.029l1.478-2.563a11.414 11.414 0 0 0-7.6-2.7c-7.3 0-12.407 4.45-12.407 13.43 0 9.4 5.519 13.068 11.825 13.068a20.1 20.1 0 0 0 7.612-1.478l-.079-10.049v-3.166h-9.359v3.161h5.976l.078 7.627a9.327 9.327 0 0 1-3.978.708c-5.064 0-8.461-3.193-8.461-9.908-.016-6.841 3.491-10.159 8.634-10.159M119.361 51.211h-3.35l.016 4.293v14.829c0 4.136 1.793 6.9 6.9 6.9a10.951 10.951 0 0 0 2.06-.189v-3a9.893 9.893 0 0 1-1.557.11c-2.815 0-4.057-1.447-4.057-3.869V60.064h5.614v-2.8h-5.61l-.015-6.054zM107.493 76.768h3.349v-19.5h-3.349zM107.493 54.579h3.349V51.23h-3.349z" fill="#8c929d"/>
    <path d="M72.99 67.509l-2.974-9.14-5.884-18.129a1.018 1.018 0 0 0-1.93 0l-5.881 18.118H36.767L30.882 40.24a1.017 1.017 0 0 0-1.929 0l-5.874 18.118-2.979 9.151a2.026 2.026 0 0 0 .733 2.263l25.709 18.682 25.706-18.682a2.028 2.028 0 0 0 .742-2.263" fill="#fc6d26"/>
    <path d="M46.549 88.437l9.772-30.08H36.773z" fill="#e24329"/>
    <path d="M46.542 88.439l-9.775-30.082H23.085z" fill="#fc6d26"/>
    <path d="M23.074 58.368L20.1 67.507a2.027 2.027 0 0 0 .733 2.263l25.705 18.684z" fill="#fca326"/>
    <path d="M23.078 58.368h13.7l-5.9-18.118a1.018 1.018 0 0 0-1.93 0z" fill="#e24329"/>
    <path d="M46.549 88.439l9.772-30.082h13.7z" fill="#fc6d26"/>
    <path d="M70.013 58.368l2.977 9.139a2.025 2.025 0 0 1-.733 2.263L46.55 88.437l23.463-30.069z" fill="#fca326"/>
    <path d="M70.021 58.368h-13.7l5.884-18.118a1.018 1.018 0 0 1 1.93 0l5.884 18.118z" fill="#e24329"/>
</svg>
