<svg xmlns="http://www.w3.org/2000/svg" viewBox="-6.01 -6.01 312.52 220.77">
	<g clip-path="url(#a)">
		<path fill="#7CA629" d="M0 193.876c0 9.177 7.184 15.121 15.939 15.121 5.432 0 9.697-2.185 12.75-5.507v-11.143H14.412v5.331h7.992v3.54c-1.302 1.136-3.727 2.229-6.465 2.229-5.433 0-9.384-4.064-9.384-9.571 0-5.506 3.951-9.57 9.384-9.57 3.142 0 5.702 1.617 7.093 3.671l5.298-2.797c-2.29-3.452-6.196-6.38-12.391-6.38C7.184 178.8 0 184.656 0 193.876zm36.905 14.553h19.037v-5.463H43.28v-23.685h-6.376v29.148zm47.623 0h6.959l-11.539-29.148h-7.991l-11.584 29.148h7.004l1.886-5.026h13.38l1.885 5.026zm-8.576-23.773 4.94 13.372h-9.923l4.983-13.372zm19.128 19.665c2.783 2.753 6.914 4.632 12.661 4.632 8.081 0 11.987-4.02 11.987-9.352 0-6.467-6.285-7.91-11.224-9.002-3.457-.787-5.971-1.398-5.971-3.365 0-1.748 1.526-2.972 4.4-2.972 2.918 0 6.15 1.006 8.575 3.191l3.547-4.545c-2.963-2.666-6.914-4.064-11.673-4.064-7.049 0-11.36 3.933-11.36 8.783 0 6.512 6.286 7.823 11.18 8.915 3.457.787 6.061 1.53 6.061 3.715 0 1.66-1.706 3.277-5.208 3.277-4.131 0-7.408-1.792-9.518-3.933l-3.457 4.72zm52.748 4.108h6.151v-29.148h-6.375v18.878l-13.873-18.878h-6.555v29.148h6.375v-19.578l14.277 19.578zm13.774-14.553c0 8.784 6.6 15.077 15.624 15.077 9.069 0 15.669-6.293 15.669-15.077 0-8.783-6.6-15.076-15.669-15.076-9.024 0-15.624 6.293-15.624 15.076zm24.738 0c0 5.419-3.591 9.571-9.114 9.571-5.522 0-9.069-4.152-9.069-9.571 0-5.462 3.547-9.57 9.069-9.57 5.523 0 9.114 4.108 9.114 9.57zm12.169 10.445c2.784 2.753 6.915 4.632 12.661 4.632 8.082 0 11.988-4.02 11.988-9.352 0-6.467-6.286-7.91-11.224-9.002-3.457-.787-5.972-1.398-5.972-3.365 0-1.748 1.527-2.972 4.4-2.972 2.919 0 6.151 1.006 8.576 3.191l3.547-4.545c-2.964-2.666-6.915-4.064-11.674-4.064-7.049 0-11.359 3.933-11.359 8.783 0 6.512 6.286 7.823 11.18 8.915 3.457.787 6.061 1.53 6.061 3.715 0 1.66-1.706 3.277-5.208 3.277-4.131 0-7.408-1.792-9.519-3.933l-3.457 4.72zm38.704 4.108h6.42v-23.686h8.71v-5.462h-23.885v5.462h8.755v23.686zm22.366 0h6.375v-29.148h-6.375v29.148zm28.429.524c6.824 0 10.596-3.54 12.751-7.167l-5.478-2.578c-1.257 2.403-3.951 4.239-7.273 4.239-5.208 0-9.159-4.064-9.159-9.571 0-5.506 3.951-9.57 9.159-9.57 3.322 0 6.016 1.879 7.273 4.239l5.478-2.622c-2.111-3.627-5.927-7.123-12.751-7.123-8.755 0-15.714 6.118-15.714 15.076 0 8.959 6.959 15.077 15.714 15.077z"/>
		<path fill="#607A2B" d="m200.102 13.204-.21-.21-4.82 5.869.209.21c31.438 24.73 36.887 70.21 12.156 101.646-24.73 31.438-70.21 36.887-101.647 12.156l-.209-.209-4.611 5.658.209.21c34.581 27.246 84.881 21.377 112.127-13.413 27.245-34.79 21.377-84.671-13.204-111.917z"/>
		<path fill="#607A2B" d="M163.006 54.702c-1.257-.838-2.724-1.467-4.191-2.096l18.653-50.51c4.61 1.677 9.012 3.564 13.203 6.079l-27.665 46.527zm-39.611 38.353-40.868 25.15c2.725 4.401 5.659 8.383 9.222 12.365l35.419-32.904c-1.467-1.467-2.725-2.934-3.773-4.61zm-4.401-21.167L72.048 64.97C71.21 69.582 71 74.193 71 78.804l47.575-1.467c0-1.887 0-3.563.419-5.45zm45.27-67.067c-8.174-1.467-16.348-1.676-24.312-.419l5.659 40.24c3.563-.42 7.126-.42 10.689.42l7.964-40.24zm52.395 67.067-43.174 2.934c0 1.676-.209 3.563-.628 5.449l42.964 6.916c.838-5.24 1.257-10.27.838-15.3zm-80.27 22.006-27.455 35.209c3.563 2.934 7.755 5.449 11.946 7.336l19.492-40.24c-1.468-.629-2.725-1.257-3.983-2.305zm-7.335-41.498-26.617-31.018c-4.191 3.773-8.173 7.755-11.317 12.366l33.323 23.892c1.258-1.886 2.934-3.563 4.611-5.24zm45.27 43.803c-1.886 2.096-3.982 4.192-6.497 5.868l20.329 29.132c5.03-3.563 9.641-7.754 13.623-12.575l-27.455-22.425z"/>
		<path fill="#96D11F" d="M178.515 136.438c-5.868 2.724-12.155 4.61-18.862 5.449l-6.078-44.641c2.096-.21 4.192-.838 6.078-1.677l18.862 40.869zm-3.143-80.899 27.036-22.216c-2.934-3.562-6.288-6.916-10.06-9.85L170.761 50.72c1.677 1.467 3.353 2.934 4.611 4.82zm4.82 7.964c.629 1.677 1.258 3.354 1.467 5.03l34.372-7.754c-1.468-6.707-4.192-13.204-7.545-19.072l-30.18 17.605c.629 1.467 1.257 2.934 1.886 4.191zm.21 23.054c-.629 1.886-1.677 3.773-2.725 5.45l30.18 18.443a84.254 84.254 0 0 0 5.659-11.527l-33.114-12.366zm-38.354 19.072-10.06 34.162c.21 0 .21 0 .419.21 4.821 1.257 9.432 2.095 14.252 2.515l2.305-35.42c-2.305-.419-4.61-.838-6.916-1.467zm-20.539-18.653c-.838-1.886-1.257-3.772-1.676-5.658l-40.45 7.335c.839 5.868 2.725 11.527 5.03 16.976l37.934-16.976c-.209-.629-.628-1.257-.838-1.677zm17.815-41.078 1.886-.628L126.33 0c-6.917 2.305-13.414 5.45-19.282 9.64l26.407 39.612c1.677-1.258 3.773-2.515 5.869-3.354zm-10.27 18.444L86.299 42.336c-2.095 4.191-3.982 8.592-5.24 13.413v.419l46.738 13.204c.209-1.887.628-3.563 1.257-5.03z"/>
	</g>
	<defs>
		<clipPath id="a">
			<path fill="#fff" d="M0 0h301v209H0z"/>
		</clipPath>
	</defs>
</svg>
