<svg xmlns="http://www.w3.org/2000/svg" viewBox="0.13 160.13 487.24 111.74">
	<path fill="#153c67" d="M459.048 219.21a9.023 9.023 0 0 1 2.514-1.646 12.363 12.363 0 0 1 5.019-.982c1.74-.035 3.465.314 5.056 1.02a10.104 10.104 0 0 1 3.737 2.851 12.547 12.547 0 0 1 2.271 4.308c.531 1.722.774 3.522.72 5.325-.143 8.758-.28 17.514-.412 26.267l-14.326 1.226v-24.774a2.682 2.682 0 0 0-.811-1.971 2.939 2.939 0 0 0-2.169-.814 3.309 3.309 0 0 0-2.205.777 2.644 2.644 0 0 0-.934 2.14v15.96c0 5.954 1.465 8.867-3.822 8.41l-5.765-.494c-3.217-.28-4.674-2.702-4.72-6.328-.131-15.017-.254-28.567-.385-43.33-.055-5.785 4.936-5.328 11.018-5.32 4.674 0 4.057 3.308 3.945 7.936l-.16 6.539c-.094 3.526-.337 4.525 1.449 2.889m-42.743 24.296c1.291.229 2.603.34 3.914.329h1.937c.625-.02 1.251-.086 1.868-.198a3.64 3.64 0 0 0 1.383-.559c.38-.272.591-.72.56-1.189a1.564 1.564 0 0 0-1.017-1.474 18.641 18.641 0 0 0-2.506-.937c-.934-.308-2.065-.671-3.251-1.083a10.843 10.843 0 0 1-3.253-1.868 9.808 9.808 0 0 1-2.494-3.254 11.967 11.967 0 0 1-1.02-5.325c.003-1.465.291-2.916.851-4.271a10.399 10.399 0 0 1 2.803-3.813 14.31 14.31 0 0 1 4.925-2.803 22.276 22.276 0 0 1 7.298-1.045c1.095 0 2.197 0 3.289.128 1.094.132 2.131.206 3.122.357.991.149 1.868.309 2.728.466 1.926.346 3.197 3.739 2.477 5.962-.934 2.954-.72 5.851-3.597 5.374a20.315 20.315 0 0 0-3.411-.26h-1.254c-.574.017-1.145.082-1.708.194a4.469 4.469 0 0 0-1.514.551c-.4.2-.654.609-.654 1.057a1.693 1.693 0 0 0 1.045 1.58c.837.397 1.709.726 2.597.98 1.028.311 2.16.685 3.394 1.122a12.112 12.112 0 0 1 3.382 1.869 9.738 9.738 0 0 1 2.597 3.262 11.573 11.573 0 0 1 1.048 5.317 10.65 10.65 0 0 1-1.542 5.924 11.538 11.538 0 0 1-4.074 3.737 18.73 18.73 0 0 1-5.822 2.008c-2.254.4-4.542.597-6.83.592-1.817 0-3.628-.112-5.431-.329-2.748-.346-4.531-1.271-5.234-2.877-.411-.937-.194-2.336-.26-3.422-.299-3.194.729-6.588 3.634-6.065Zm-86.31-33.184 7.476 9.813c2.645-3.597 4.159-5.67 6.805-9.261 1.477-2.017 2.119-3.129 4.67-3.214l8.291-.26c3.485-.114 3.476 1.868 4.485 5.296 4.485 14.952 7.887 26.345 12.289 41.117.935 3.077-.654 4.065-3.916 4.262l-11.727.712c-3.011.177-3.588.194-4.628-2.897l-5.605-16.681c-2.242 3.914-3.365 6.017-5.608 9.905-.448.765-6.476 1.868-7.607.391-3.802-4.925-4.411-6.11-7.279-10.081-1.214 5.522-2.131 9.653-3.345 15.175-.532 2.402-2.177 3.234-4.757 3.214-5.27 0-7.941.085-13.166.131-3.494 0-3.663-1.354-2.749-4.542 4.188-14.595 7.785-27.165 11.962-41.76.934-3.168 2.319-3.159 5.393-3.217l5.399-.091c2.151-.029 2.291.308 3.6 2.028Zm79.76 41.614a21.988 21.988 0 0 1-6.139 3.197 34.327 34.327 0 0 1-9.945 1.317 21.59 21.59 0 0 1-8.41-1.588 21.065 21.065 0 0 1-6.596-4.291c-8.953-8.588-6.028-23.671.129-29.827a18.725 18.725 0 0 1 6.467-4.226 21.238 21.238 0 0 1 7.879-1.456 20.039 20.039 0 0 1 11.727 3.448 16.319 16.319 0 0 1 5.839 6.147c1.448 2.637-.083 4.674-2.465 6.542-5.954 4.477-10.279 7.291-16.187 11.767.615.303 1.28.486 1.963.54.743.083 1.488.126 2.234.131a11.536 11.536 0 0 0 5.242-1.111c.84-.443 1.646-.951 2.403-1.522 2.036-1.506 2.436.419 3.933 2.876l2.449 4.037c1.065 1.805 1.214 2.917-.543 4.056Zm-12.15-23.279a4.882 4.882 0 0 0-2.054-1.56 7.491 7.491 0 0 0-2.542-.403 5.37 5.37 0 0 0-2.469.572 6.381 6.381 0 0 0-1.925 1.559 7.243 7.243 0 0 0-1.251 2.197 7.477 7.477 0 0 0-.44 2.505 6.18 6.18 0 0 0 .168 1.729c.123.357.272.708.44 1.045Z" class="cls-45"/>
	<path fill="#6aaad0" d="M179.519 220.564a9.702 9.702 0 0 0-4.487-1.02 13.723 13.723 0 0 0-5.045 1.049 16.371 16.371 0 0 0-4.785 2.951 15.335 15.335 0 0 0-3.568 4.673 13.357 13.357 0 0 0-1.412 6.225 10.031 10.031 0 0 0 1.017 5.139 6.55 6.55 0 0 0 2.748 2.803 7.237 7.237 0 0 0 3.737.757c7.365-.354 15.429-7.756 6.431-6.045-4.374.831-7.254 1.12-6.728-2.9.523-4.016.568-6.37 6.979-7.176l14.701-1.868c7.476-.934 9.344.823 8.53 7.036a22.756 22.756 0 0 1-2.617 7.373 48.731 48.731 0 0 1-3.502 5.991 46.575 46.575 0 0 1-3.048 4.036 46.05 46.05 0 0 1-1.346 1.506 23.667 23.667 0 0 1-5.736 4.131 30.667 30.667 0 0 1-7.233 2.679c-2.62.62-5.308.897-7.999.823a24.902 24.902 0 0 1-7.859-1.44 21.58 21.58 0 0 1-6.916-4.102 20.068 20.068 0 0 1-5.14-7.139 28.093 28.093 0 0 1-2.633-9.821 30.439 30.439 0 0 1 4.353-18.055 34.854 34.854 0 0 1 5.896-7.307 36.201 36.201 0 0 1 7.699-5.531 32.858 32.858 0 0 1 8.982-3.28c.083 0 .56-.057 1.411-.168 1.243-.1 2.494-.1 3.737 0 1.842.117 3.665.428 5.439.934a30.186 30.186 0 0 1 6.542 2.748c8.887 4.86 6.036 7.073 3.345 10.736a35.207 35.207 0 0 1-3.317 3.945c-1.954 1.868-4.673 2.128-8.187.326m24.979-16.747 3.243-.251c5.887-.468 6.739 0 6.673 5.971-.151 13.821-.271 23.988-.42 37.8 0 4.485 0 8.41-3.962 8.764l-4.525.395c-6.214.531-5.382-.935-5.437-7.019-.122-14.147-.205-24.148-.328-38.315-.057-6.13-1.177-6.885 4.756-7.362m25.782 35.529a5.67 5.67 0 0 0 3.543 3.334 7.733 7.733 0 0 0 5.505-.522 7.96 7.96 0 0 0 4.156-3.569c.766-1.505.8-3.279.094-4.813a5.757 5.757 0 0 0-3.531-3.308 7.478 7.478 0 0 0-5.439.485 7.931 7.931 0 0 0-4.233 3.608 5.502 5.502 0 0 0-.095 4.785m40.426 0a5.69 5.69 0 0 0 3.542 3.334 7.733 7.733 0 0 0 5.505-.522 7.958 7.958 0 0 0 4.157-3.569 5.55 5.55 0 0 0 .103-4.813 5.8 5.8 0 0 0-3.54-3.308 7.477 7.477 0 0 0-5.439.485 7.923 7.923 0 0 0-4.225 3.608 5.462 5.462 0 0 0-.103 4.785zm27.522-5.607a20.294 20.294 0 0 1-.423 8.41 18.931 18.931 0 0 1-3.474 6.879 19.308 19.308 0 0 1-5.962 4.962 23.031 23.031 0 0 1-7.962 2.523 24.275 24.275 0 0 1-8.41-.263 19.526 19.526 0 0 1-7.15-3.046 18.796 18.796 0 0 1-7.476-11.121v.112a19.056 19.056 0 0 1-3.466 6.879 19.53 19.53 0 0 1-5.962 4.916 23.026 23.026 0 0 1-7.961 2.523c-2.8.4-5.645.311-8.41-.263a19.504 19.504 0 0 1-7.142-3.046 18.523 18.523 0 0 1-5.242-5.607 20.067 20.067 0 0 1-2.691-7.962 20.465 20.465 0 0 1 .431-8.41 18.879 18.879 0 0 1 9.439-11.858 22.846 22.846 0 0 1 7.961-2.523c2.777-.4 5.605-.311 8.353.26a19.359 19.359 0 0 1 7.102 3.048 18.207 18.207 0 0 1 5.242 5.662 19.948 19.948 0 0 1 2.28 5.608l.049-.169a18.882 18.882 0 0 1 9.438-11.858 22.98 22.98 0 0 1 7.962-2.525 24.196 24.196 0 0 1 8.353.263 19.318 19.318 0 0 1 7.11 3.045 18.447 18.447 0 0 1 5.242 5.665 21.107 21.107 0 0 1 2.769 7.933z" class="cls-46"/>
	<path fill="#6aaad0" fill-rule="evenodd" d="M288.244 214.516a17.43 17.43 0 0 0-6.345 4.551l2.871 2.18c.766-.794 6.268-.506 5.456-1.14-1.637-1.271-.608-2.385.869-3 2.802-1.628 3.645 5.765 10.701 3.634 4.728-1.42 6.831-5.83 5.391-9.97-1.44-4.139-6.431-6.282-11.122-4.776a6.175 6.175 0 0 0-4.399 5.607c-.206 2.543-.46 1.655-3.422 2.889" class="cls-47"/>
	<path fill="#fff" fill-rule="evenodd" d="M302.196 208.463a2.953 2.953 0 0 0-2.942 2.951c0 2.962 5.867 3.114 5.867-.429 0-1.625-1.299-2.522-2.925-2.522" class="cls-48"/>
	<path fill="#6aaad0" fill-rule="evenodd" d="M46.747 188.849a21.565 21.565 0 0 1 7.851 5.605l-3.506 2.719c-.934-.98-7.764-.617-6.756-1.4 2.02-1.579.757-2.954-1.074-3.739-3.439-2.02-4.505 7.13-13.252 4.494-5.848-1.757-8.411-7.222-6.662-12.344 1.748-5.12 7.916-7.765 13.726-5.897a7.644 7.644 0 0 1 5.44 6.971c.262 3.151.571 2.048 4.233 3.571m52.658 38.108c-1.262-2.925 9.402-10.278 15.887-16.149 6.484-5.867 10.438-3.951 12.298-1.682 1.86 2.271 1.028 7.73-4.982 11.841-6.008 4.111-21.923 8.904-23.183 5.99" class="cls-47"/>
	<path fill-rule="evenodd" d="M70.295 259.587c23 0 41.651.663 41.651 1.497 0 .831-18.688 1.494-41.651 1.494-22.959 0-41.631-.674-41.631-1.494 0-.823 18.643-1.497 41.651-1.497" class="cls-49"/>
	<path fill="#6aaad0" fill-rule="evenodd" d="M54.832 261.364c8.193 0 9.744-5.345 15.166-5.394 5.419-.045 7.773 5.394 15.681 5.394 12.784 0 21.1-27.448 21.1-42.474 0-19.24-16.318-32.192-36.447-32.192-20.128 0-36.443 12.952-36.443 32.192 0 22.782 9.727 42.474 20.951 42.474" class="cls-47"/>
	<path fill="#fff" fill-rule="evenodd" d="M112.206 217.05c-.391-1.262 2.654-2.234 5.777-5.028 3.122-2.793 5.27-3.019 5.673-1.756.4 1.262-1.151 3.328-4.131 4.99-2.982 1.663-6.924 3.057-7.319 1.794m-76.914-37.651a3.953 3.953 0 0 1 3.951 3.962c0 3.982-7.888 4.188-7.888-.577 0-2.188 1.749-3.385 3.937-3.385" class="cls-48"/>
	<path fill="#6aaad0" fill-rule="evenodd" d="M41.748 220.824c-1.457-2.802-13.924.72-22.548 2-8.627 1.282-9.693 5.542-9.113 8.413.58 2.868 5.308 5.699 12.307 3.662 7.002-2.037 20.802-11.215 19.354-14.092" class="cls-47"/>
	<path fill="#fff" fill-rule="evenodd" d="M15.583 230.851a1.763 1.763 0 0 0-1.72-1.411 1.261 1.261 0 0 0-1.456 1.283 1.748 1.748 0 0 0 1.716 1.419 1.263 1.263 0 0 0 1.46-1.291m15.064-3.448c0-1.345-2.28 1.974-9.97 2.711-2.748.263-4.085 0-4.308 1.251-.103.526.054 1.872 3.885 1.477 3.831-.391 10.447-3.942 10.43-5.439Z" class="cls-48"/>
	<path fill="#153c67" fill-rule="evenodd" d="M125.636 186.24a4.393 4.393 0 0 1 1.728.346l5.542-5.905a2.65 2.65 0 0 1-.148-.468c-.432-2.114 1.591-3.903 3.636-3.217 2.049.689 2.583 3.331.966 4.759a2.759 2.759 0 0 1-2.734.552l-5.394 5.747c.432.583.712 1.263.815 1.98l7.616 1.131c1.437-3.499 6.125-4.133 8.438-1.139 2.312 2.996.515 7.37-3.233 7.876a4.914 4.914 0 0 1-5.551-4.4l-7.57-1.122a4.402 4.402 0 0 1-1.26 1.699l2.625 5.888c2.157.051 3.451 2.42 2.328 4.262-1.122 1.843-3.819 1.78-4.853-.114a2.786 2.786 0 0 1-.343-1.297 2.87 2.87 0 0 1 .7-1.868l-2.625-5.879a4.418 4.418 0 0 1-3.037-.646l-4.102 4.365c2.039 3.188-.137 7.388-3.917 7.559a4.911 4.911 0 0 1-5.016-3.819c-.792-3.709 2.731-6.882 6.336-5.711.303.1.597.228.877.383l4.234-4.514a4.31 4.31 0 0 1-.44-1.505l-8.599-1.28c-1.186 1.802-3.877 1.648-4.845-.28-.971-1.931.511-4.185 2.668-4.06a2.806 2.806 0 0 1 2.523 2.003l8.644 1.283c.28-.595.688-1.12 1.197-1.534l-2.905-6.494c-3.76.64-6.802-3.028-5.477-6.605 1.323-3.573 6.022-4.373 8.456-1.439a4.955 4.955 0 0 1-.822 7.11l2.908 6.493c.208-.028.422-.045.634-.045" class="cls-50"/>
	<path fill="#fff" fill-rule="evenodd" d="M119.908 171.877c.606.123 1.037.543.934.934-.103.394-.645.626-1.251.506-.608-.123-1.037-.543-.934-.935.103-.394.643-.625 1.251-.505m23.268 17.026c.609.123 1.037.543.934.934-.103.394-.634.626-1.242.506-.609-.123-1.046-.543-.934-.934.111-.395.634-.626 1.251-.506m-27.996 8.907c.608.12 1.037.54.934.934-.103.392-.634.635-1.243.515-.608-.123-1.045-.552-.934-.935.112-.385.634-.628 1.251-.505M125.99 187.4c.617.129 1.049.552.937.934-.114.383-.637.626-1.245.503-.606-.12-1.046-.54-.935-.934.115-.391.637-.626 1.243-.514" class="cls-48"/>
	<path fill="#153c67" d="M137.568 203.341a.283.283 0 0 1 .218-.337.279.279 0 0 1 .334.217 3.384 3.384 0 0 1-.112 2.025 2.85 2.85 0 0 1-1.299 1.423.283.283 0 0 1-.269-.497 2.321 2.321 0 0 0 1.046-1.14c.202-.54.231-1.131.082-1.691m-1.231-.851a.271.271 0 0 1 .177-.346.28.28 0 0 1 .355.18 3.586 3.586 0 0 1-.223 2.448 2.869 2.869 0 0 1-1.629 1.606.278.278 0 0 1-.354-.178.298.298 0 0 1 .177-.354 2.29 2.29 0 0 0 1.291-1.308 3.048 3.048 0 0 0 .206-2.048zm-24.316-32.033a.366.366 0 0 0 .131-.486.355.355 0 0 0-.497-.131 4.267 4.267 0 0 0-1.811 1.868 3.63 3.63 0 0 0-.252 2.431c.04.195.235.317.429.272a.378.378 0 0 0 .271-.432 2.811 2.811 0 0 1 .186-1.951 3.65 3.65 0 0 1 1.543-1.525m1.868.46a.364.364 0 0 0 .177-.477.352.352 0 0 0-.466-.178 4.542 4.542 0 0 0-2.131 2.28 3.731 3.731 0 0 0-.148 2.905.357.357 0 0 0 .477.189.35.35 0 0 0 .177-.469 2.962 2.962 0 0 1 .149-2.328 3.863 3.863 0 0 1 1.736-1.971z" class="cls-45"/>
	<path fill="#153c67" fill-rule="evenodd" d="M17.452 213.545c5.036 0 8.181 5.451 5.664 9.813-2.516 4.359-8.813 4.359-11.329 0a6.54 6.54 0 0 1 5.665-9.813" class="cls-50"/>
	<path fill="#fff" fill-rule="evenodd" d="M18.994 215.219c.934.194 1.654.869 1.523 1.503-.132.637-1.02 1-1.991.805-.972-.197-1.654-.868-1.523-1.505.131-.634 1.02-1 1.991-.803" class="cls-48"/>
	<path fill="#73b7db" fill-rule="evenodd" d="M72.101 187.792c17.809-.02 32.258 14.412 32.258 32.221 0 32.406-64.236 34.052-64.236-4.674 0-17.754 14.22-27.539 32.015-27.539" class="cls-51"/>
	<path fill="#153c67" fill-rule="evenodd" d="M70.567 224.004c5.467 0 7.476-1.926 9.85.194 2.374 2.122-2.131 9.113-9.896 9.113-7.765 0-12.15-6.925-9.896-9.113 2.251-2.186 4.477-.194 9.942-.194" class="cls-50"/>
	<path fill="#6aaad0" fill-rule="evenodd" d="M75.755 230.928a10.125 10.125 0 0 1-10.616-.077c.12-1.662 3.082-2.551 5.308-1.457 2.325-1.094 5.259-.16 5.308 1.534" class="cls-47"/>
	<path fill="#fff" fill-rule="evenodd" d="M70.567 224.629c3.579 0 5.542-.777 7.167-.765v.082a2.176 2.176 0 0 1-2.094 2.252 1.921 1.921 0 0 1-1.025-.289 7.562 7.562 0 0 0-5.962 1.251 2.338 2.338 0 0 1-2.114-1.288 2 2 0 0 1-1.092.326 2.178 2.178 0 0 1-2.094-2.252.413.413 0 0 1 0-.111c1.617 0 3.626.794 7.205.794" class="cls-48"/>
	<path fill="#eff6f7" fill-rule="evenodd" d="M99.611 207.397c.811-.042 1.537.5 1.728 1.289a1.234 1.234 0 0 1-.811 1.72 1.71 1.71 0 0 1-1.777-1.28 1.243 1.243 0 0 1 .823-1.72m-28.539-9.887c-6.29 1.291-8.253-4.785-.291-6.708 9.973-2.402 24.128 4.091 28.373 13.081 1.128 2.383-.637 3.271-2.563.934-5.279-6.707-14.923-9.484-25.482-7.316Z" class="cls-52"/>
	<path fill="#153c67" fill-rule="evenodd" d="M91.518 212.022c4.416-.005 7.185 4.771 4.982 8.599-2.2 3.828-7.722 3.837-9.936.017a5.727 5.727 0 0 1-.774-2.876 5.728 5.728 0 0 1 5.728-5.74" class="cls-50"/>
	<path fill="#eff6f7" fill-rule="evenodd" d="M94.078 213.862c1.231 0 1.999 1.334 1.385 2.4-.614 1.063-2.154 1.063-2.768 0a1.598 1.598 0 0 1 1.383-2.4" class="cls-52"/>
	<path fill="#153c67" fill-rule="evenodd" d="M53.438 212.022c4.416-.005 7.184 4.771 4.982 8.599-2.2 3.828-7.722 3.837-9.936.017a5.727 5.727 0 0 1-.774-2.876 5.728 5.728 0 0 1 5.728-5.74" class="cls-50"/>
	<path fill="#eff6f7" fill-rule="evenodd" d="M56.037 213.862c1.229 0 1.997 1.334 1.383 2.4-.614 1.063-2.154 1.063-2.768 0a1.6 1.6 0 0 1 1.385-2.4" class="cls-52"/>
</svg>
