<svg xmlns="http://www.w3.org/2000/svg" width="200" height="128">
	<path fill="#c00" d="m40.95 50.53 6.33 6.64v-6.33l-6.33-6.64v6.33zM62.3 58.5l6.33 6.64v-6.33l-6.33-6.65v6.34zm0-21.92v2.62l4.59 4.81v3.21l1.74-1.88v-2.12l-6.33-6.64z"/>
	<path fill="#a30000" d="M47.28 50.84h13.28v6.33H47.28zm21.35 7.97h13.28v6.33H68.63zm0-15.59v2.12h13.28v-2.12H68.63z"/>
	<path fill="#820000" d="m81.91 65.14 6.33-6.83v-6.33l-6.33 6.83v6.33zm0-21.92v2.12l1.98 2.08 4.35-4.7v-6.33l-6.33 6.83zM60.56 57.17l1.74-1.87v-3.14l4.59-4.94v-3.21l-6.33 6.83v6.33z"/>
	<path fill="#bababa" d="M26.24 71.23h13.28v2.66H26.24zm63.78 7.14h13.28v2.66H90.02zm-21.3 7.39H82v2.66H68.72zm-21.2-7.39H60.8v2.66H47.52zm42.5-15.12h13.28v1.65H90.02z"/>
	<path fill="#969696" d="m103.31 81.04 6.33-6.83v-2.66l-6.33 6.82v2.67zM82 88.42l6.33-6.83v-2.66L82 85.76v2.66zm-21.2-7.38 6.33-6.83v-2.66l-6.33 6.82v2.67zm-21.28-7.15 1.67-1.79v-.37l4.66-5.03v-2.3l-6.33 6.83v2.66zm63.79-10.64v1.66l.47.49 5.86-6.31v-2.67l-6.33 6.83z"/>
	<path fill="#eaebeb" d="m81.91 43.22 6.33-6.83-6.33-6.64H68.63l-6.33 6.83 6.33 6.64h13.28zm-21.35 7.62 6.33-6.83-6.33-6.64H47.28l-6.33 6.83 6.33 6.64h13.28zm8.07-5.5-6.33 6.82 6.33 6.65h13.28l6.33-6.83-6.33-6.64H68.63zM39.52 57.76H26.24l-6.33 6.83 6.33 6.64h13.28l6.33-6.83-6.33-6.64zm21.28 7.15H47.52l-6.33 6.82 6.33 6.64H60.8l6.33-6.82-6.33-6.64zm7.92 7.38-6.33 6.82 6.33 6.65H82l6.33-6.83L82 72.29H68.72z"/>
	<path fill="#eaebeb" d="M88.24 51.98v6.33l-1.44 1.56 3.23 3.38h13.28l6.33-6.83-6.33-6.64H90.03l-1.92 2.06.13.14zm1.79 12.93-6.34 6.82 6.34 6.64h13.28l6.33-6.82-6.33-6.64H90.03z"/>
	<path class="cls-7" d="m83.69 74.41 6.34 6.65v-2.67l-6.34-6.64v2.66zm-63.78-7.15 6.33 6.65v-2.67l-6.33-6.65v2.67zM62.39 81.8l6.33 6.65v-2.67l-6.33-6.64v2.66zm-21.2-7.39 6.33 6.65v-2.67l-6.33-6.64v2.66zM86.8 59.87l-1.25 1.35 4 4.2.48-.51v-1.65l-3.23-3.39z"/>
	<path opacity=".5" d="M82 88.42H68.72l-1.76-1.84-4.66 5.03 6.33 6.64h13.28l6.33-6.83-4.57-4.8-1.67 1.8zm21.31-7.38H90.03l-1.27-1.33-.43.46v1.42l-3.69 3.99 5.66 5.93h13.28l6.33-6.82-5.06-5.31-1.54 1.66zm-40.92.74v-2.46l-1.59 1.72H47.52l-1.63-1.71-4.7 5.07 6.33 6.64H60.8l5.14-5.54-3.55-3.72zm-21.2-7.39v-2.14l-.07-.07-1.6 1.71v-2.66l.34-.37-.34.37v2.66H26.24l-1.27-1.33-4.74 5.11 6.33 6.64h13.28l5.32-5.74-3.97-4.18zm3.84-9.1.82-.89v1.76l.26.26 1.41-1.51H60.8l6.33 6.64V74l1.59-1.71H82l1.69 1.77v-2.33l5.86-6.31-4-4.2-3.64 3.92H68.63L62.3 58.5v-2.49l-.34-.35-1.4 1.51v-2.98 2.98H47.28l-2.14-2.24-4.1 4.42 4.81 5.05-.82.89zm63.62 5.22 1.26-1.36-4.87-5.11-1.26 1.36 4.87 5.11zM88.66 47.85l-2.62-2.75-2.15 2.32 2.63 2.74 2.14-2.31z"/>
	<path d="M129.25 65.16a6 6 0 0 1-.43 2.29 5.46 5.46 0 0 1-1.21 1.83 5.72 5.72 0 0 1-1.81 1.22 5.57 5.57 0 0 1-2.24.45 6 6 0 0 1-5.56-3.68 5.86 5.86 0 0 1-.48-2.36 6 6 0 0 1 .47-2.36 5.93 5.93 0 0 1 1.28-1.92 6 6 0 0 1 4.29-1.76 6.55 6.55 0 0 1 2.57.51 6 6 0 0 1 2 1.41l-.87.89a4.56 4.56 0 0 0-1.67-1.2 5.34 5.34 0 0 0-2.08-.43 4.72 4.72 0 0 0-3.37 1.4 4.93 4.93 0 0 0-1 1.54 5.3 5.3 0 0 0 0 3.84 4.93 4.93 0 0 0 1 1.54 4.66 4.66 0 0 0 3.37 1.39 4.59 4.59 0 0 0 1.67-.3 4.18 4.18 0 0 0 1.36-.83 4.37 4.37 0 0 0 1.46-2.85h-4.21v-1.14h5.51zm3-6.39v12H131V59.05zm3.3 3.61v5.06a2.41 2.41 0 0 0 .63 1.75 2.28 2.28 0 0 0 1.71.66 2.66 2.66 0 0 0 1.35-.35 2.53 2.53 0 0 0 1-1v-6.12h1.24v8.39h-1.28v-1a3.08 3.08 0 0 1-1.15.85 3.69 3.69 0 0 1-1.48.29 3.12 3.12 0 0 1-3.25-3.25v-5.28zm7.15 7.23.75-.8a4.15 4.15 0 0 0 1.28.83 3.87 3.87 0 0 0 1.45.29 2.94 2.94 0 0 0 1.64-.42 1.26 1.26 0 0 0 .63-1.08 1 1 0 0 0-.37-.85 2.41 2.41 0 0 0-1.18-.43l-1.46-.2a3.48 3.48 0 0 1-1.87-.74 2 2 0 0 1-.61-1.52 2.16 2.16 0 0 1 .89-1.75 3.56 3.56 0 0 1 2.26-.69 5.4 5.4 0 0 1 3.3 1.1l-.65.84a6.13 6.13 0 0 0-1.37-.7 3.92 3.92 0 0 0-1.35-.24 2.31 2.31 0 0 0-1.39.39 1.16 1.16 0 0 0-.55 1 1 1 0 0 0 .37.83 2.45 2.45 0 0 0 1.19.41l1.45.2a3.36 3.36 0 0 1 1.89.75 2 2 0 0 1 .63 1.53 2.14 2.14 0 0 1-.26 1 2.68 2.68 0 0 1-.72.82 3.64 3.64 0 0 1-1.08.54 4.48 4.48 0 0 1-1.34.19 5.71 5.71 0 0 1-1.95-.34 4.61 4.61 0 0 1-1.58-.96zm9.19-.72v-5.45h-1.81v-1.06h1.81v-2.12l1.22-.32v2.44h2.53v1.06h-2.53v5.14a1.31 1.31 0 0 0 .3 1 1.41 1.41 0 0 0 1 .29 4 4 0 0 0 .63 0 3.16 3.16 0 0 0 .59-.17v1a3 3 0 0 1-.71.17 6.76 6.76 0 0 1-.76 0 2.43 2.43 0 0 1-1.68-.52 1.92 1.92 0 0 1-.59-1.46zm11.87.99a5.05 5.05 0 0 1-3.13 1 4.37 4.37 0 0 1-3.08-1.26 4.36 4.36 0 0 1-.91-1.38 4.42 4.42 0 0 1-.33-1.71 4.28 4.28 0 0 1 .32-1.69 4.46 4.46 0 0 1 .88-1.38 4.12 4.12 0 0 1 1.32-.92 4 4 0 0 1 1.61-.33 3.78 3.78 0 0 1 1.57.33 3.94 3.94 0 0 1 1.25.92 4.56 4.56 0 0 1 .84 1.38 4.66 4.66 0 0 1 .31 1.69V67h-6.88a3.18 3.18 0 0 0 1 2.06 3 3 0 0 0 2.13.82 4.26 4.26 0 0 0 1.27-.2 2.82 2.82 0 0 0 1-.57zm-3.35-6.54a2.69 2.69 0 0 0-1.89.73 3.08 3.08 0 0 0-1 1.89h5.61a3.21 3.21 0 0 0-.95-1.86 2.5 2.5 0 0 0-1.77-.76zm5.72 7.43v-8.39h1.24v1.19a2.77 2.77 0 0 1 1-1 2.62 2.62 0 0 1 1.37-.36h.42a2.22 2.22 0 0 1 .37.09v1.14l-.43-.11a3.27 3.27 0 0 0-.44 0 2.15 2.15 0 0 0-1.35.45 2.69 2.69 0 0 0-.91 1.28v5.74zm-49.13 14 .85-.89a6.52 6.52 0 0 0 1.94 1.45 4.88 4.88 0 0 0 2.16.49 3.73 3.73 0 0 0 2.26-.65 2 2 0 0 0 .89-1.66 1.66 1.66 0 0 0-.63-1.39 4.77 4.77 0 0 0-2.06-.72l-1.7-.27a4.79 4.79 0 0 1-2.49-1 2.51 2.51 0 0 1-.8-2 2.89 2.89 0 0 1 1.13-2.36 4.68 4.68 0 0 1 3-.9 7.8 7.8 0 0 1 4.63 1.55l-.74 1a7.74 7.74 0 0 0-1.94-1.09 5.61 5.61 0 0 0-2-.37 3.3 3.3 0 0 0-2 .58 1.76 1.76 0 0 0-.78 1.48 1.53 1.53 0 0 0 .55 1.26A4 4 0 0 0 121 80l1.67.27a5.55 5.55 0 0 1 2.79 1.09 2.65 2.65 0 0 1 .88 2.12 3.12 3.12 0 0 1-1.25 2.52 4.32 4.32 0 0 1-1.42.72 5.84 5.84 0 0 1-1.82.26 6.53 6.53 0 0 1-2.67-.56 6.44 6.44 0 0 1-2.18-1.65zm11.57.13v-5.46h-1.81v-1h1.81v-2.18l1.22-.32v2.45h2.53v1h-2.53v5.14a1.33 1.33 0 0 0 .3 1 1.41 1.41 0 0 0 1 .29 3.8 3.8 0 0 0 .62 0 3.93 3.93 0 0 0 .6-.17v1.09a3.52 3.52 0 0 1-.71.17 6.76 6.76 0 0 1-.76.05 2.48 2.48 0 0 1-1.68-.52 1.92 1.92 0 0 1-.59-1.54zm4.43-2.33a4.4 4.4 0 0 1 .33-1.7 4.3 4.3 0 0 1 .91-1.39 4.37 4.37 0 0 1 1.37-.93 4.21 4.21 0 0 1 4.69.93 4.32 4.32 0 0 1 .92 1.39 4.4 4.4 0 0 1 .33 1.7 4.52 4.52 0 0 1-.33 1.73 4.43 4.43 0 0 1-.92 1.39 4.31 4.31 0 0 1-4.69.92 4.34 4.34 0 0 1-1.37-.92 4.41 4.41 0 0 1-.91-1.39 4.52 4.52 0 0 1-.33-1.73zm4.28 3.27a3 3 0 0 0 1.2-.25 2.94 2.94 0 0 0 1-.7 3.14 3.14 0 0 0 .64-1 3.35 3.35 0 0 0 .24-1.28 3.43 3.43 0 0 0-.24-1.28 3.2 3.2 0 0 0-.64-1 3 3 0 0 0-3.37-.68 3 3 0 0 0-1 .68 3.36 3.36 0 0 0-.89 2.31 3.55 3.55 0 0 0 .23 1.28 3.16 3.16 0 0 0 .65 1 2.88 2.88 0 0 0 1 .7 3.07 3.07 0 0 0 1.17.22zm5.98.94v-8.39h1.24v1.19a2.72 2.72 0 0 1 1-1 2.66 2.66 0 0 1 1.38-.36 2.77 2.77 0 0 1 .42 0l.36.09v1.14a3.39 3.39 0 0 0-.43-.11 2.18 2.18 0 0 0-.44 0 2.21 2.21 0 0 0-1.35.44 2.87 2.87 0 0 0-.94 1.22v5.75zm8.01.15a3.43 3.43 0 0 1-2.24-.71 2.37 2.37 0 0 1 0-3.69 4 4 0 0 1 2.45-.69 5.64 5.64 0 0 1 1.3.15 5.52 5.52 0 0 1 1.16.42V81.3a1.92 1.92 0 0 0-.57-1.51 2.41 2.41 0 0 0-1.66-.51 4.53 4.53 0 0 0-1.25.17 8.89 8.89 0 0 0-1.38.56l-.46-1a9.09 9.09 0 0 1 1.67-.64 6.26 6.26 0 0 1 1.54-.2 3.61 3.61 0 0 1 2.45.75 2.72 2.72 0 0 1 .86 2.16v5.65H154V86a4 4 0 0 1-1.25.72 4.34 4.34 0 0 1-1.48.21zm-1.91-2.57a1.38 1.38 0 0 0 .59 1.15 2.48 2.48 0 0 0 1.53.45 3.81 3.81 0 0 0 1.38-.24A3.22 3.22 0 0 0 154 85v-1.59a4 4 0 0 0-1.11-.51 5 5 0 0 0-1.32-.16 2.66 2.66 0 0 0-1.6.44 1.42 1.42 0 0 0-.61 1.18zm11.7 2.48a4.06 4.06 0 0 1-1.63-.33 4.28 4.28 0 0 1-1.33-.92 4.14 4.14 0 0 1-.9-1.36 4.3 4.3 0 0 1 2.24-5.66 4.12 4.12 0 0 1 1.65-.33 3.74 3.74 0 0 1 1.4.26 4.47 4.47 0 0 1 1.25.72v-.83H165V87a3.18 3.18 0 0 1-.94 2.47 3.82 3.82 0 0 1-2.68.86 6.72 6.72 0 0 1-1.72-.23 6 6 0 0 1-1.56-.64l.54-1a7.46 7.46 0 0 0 1.4.58 4.8 4.8 0 0 0 1.29.19 2.57 2.57 0 0 0 1.81-.57 2.15 2.15 0 0 0 .62-1.68v-1.11a4.33 4.33 0 0 1-1.25.72 4 4 0 0 1-1.45.25zm-3-4.3a3.48 3.48 0 0 0 .23 1.26 3 3 0 0 0 .65 1 2.83 2.83 0 0 0 1 .68 2.87 2.87 0 0 0 1.2.25 3.51 3.51 0 0 0 1.47-.3 2.71 2.71 0 0 0 1.09-.85v-4.1a2.78 2.78 0 0 0-1.09-.84 3.61 3.61 0 0 0-1.47-.3 2.88 2.88 0 0 0-1.21.25 2.76 2.76 0 0 0-1 .67 3.18 3.18 0 0 0-.65 1 3.52 3.52 0 0 0-.18 1.28zm16.07 3.35a5.58 5.58 0 0 1-1.46.78 5.22 5.22 0 0 1-1.67.26 4.41 4.41 0 0 1-1.7-.34 4.18 4.18 0 0 1-1.37-.92 4.36 4.36 0 0 1-.91-1.38 4.43 4.43 0 0 1-.33-1.72 4.35 4.35 0 0 1 .32-1.69 4.53 4.53 0 0 1 .88-1.37 4 4 0 0 1 2.93-1.26 3.78 3.78 0 0 1 2.82 1.26 4.63 4.63 0 0 1 .84 1.37 4.74 4.74 0 0 1 .31 1.69V83h-6.88a3.21 3.21 0 0 0 1 2.06 3 3 0 0 0 2.12.82 4.28 4.28 0 0 0 1.28-.2 3 3 0 0 0 1-.57zm-3.34-6.55a2.69 2.69 0 0 0-1.89.74 3.08 3.08 0 0 0-1 1.89h5.61a3.21 3.21 0 0 0-1-1.87 2.54 2.54 0 0 0-1.72-.76zm-52.91-25.05V41.91h6.05a5 5 0 0 1 1.72.28A4.06 4.06 0 0 1 127 43a3.66 3.66 0 0 1 .88 1.21 3.78 3.78 0 0 1 .32 1.56 3.51 3.51 0 0 1-.66 2.09 4 4 0 0 1-1.76 1.36l2.74 5.09h-2.87l-2.42-4.74h-2.8v4.74zm5.82-10.17h-3.26v3.33h3.26a2.06 2.06 0 0 0 1.39-.46 1.66 1.66 0 0 0 0-2.41 2 2 0 0 0-1.39-.46zm13.41 9.02a5.53 5.53 0 0 1-3.73 1.33 5.1 5.1 0 0 1-2-.37 5 5 0 0 1-1.57-1 4.71 4.71 0 0 1-1-1.51 4.76 4.76 0 0 1-.38-1.89 4.82 4.82 0 0 1 .36-1.86 5 5 0 0 1 1-1.53 4.7 4.7 0 0 1 1.52-1 4.64 4.64 0 0 1 1.86-.37 4.27 4.27 0 0 1 1.82.38 4.56 4.56 0 0 1 1.45 1 4.85 4.85 0 0 1 .95 1.57 5.47 5.47 0 0 1 .35 2v.64h-6.87a2.68 2.68 0 0 0 2.62 1.93 3.24 3.24 0 0 0 1.13-.2 2.52 2.52 0 0 0 .91-.55zm-4-6.22a2.13 2.13 0 0 0-1.43.5 2.61 2.61 0 0 0-.83 1.35h4.51a2.77 2.77 0 0 0-.84-1.33 2.1 2.1 0 0 0-1.41-.52zm12.7 7.37v-.76a3.73 3.73 0 0 1-1.22.67 4.66 4.66 0 0 1-1.4.22 4.75 4.75 0 0 1-1.83-.37 4.84 4.84 0 0 1-1.49-1 4.58 4.58 0 0 1-1-1.51 4.77 4.77 0 0 1-.36-1.85 4.64 4.64 0 0 1 .37-1.86 4.76 4.76 0 0 1 1-1.51 4.68 4.68 0 0 1 1.51-1 4.83 4.83 0 0 1 1.87-.36 4.51 4.51 0 0 1 1.31.19 4.33 4.33 0 0 1 1.2.54v-3.78l2.42-.53v12.91zm-4.92-4.61a2.57 2.57 0 0 0 .78 1.89 2.6 2.6 0 0 0 1.91.78 3.25 3.25 0 0 0 1.23-.23 2.83 2.83 0 0 0 1-.66v-3.59a2.78 2.78 0 0 0-1-.64 3.32 3.32 0 0 0-1.23-.23 2.63 2.63 0 0 0-2.69 2.68zm10.81 4.61V41.91h2.57v5H160v-5h2.56v12.38H160v-5.06h-5.7v5.06zm15.3.16a3.64 3.64 0 0 1-2.43-.79 2.54 2.54 0 0 1-.94-2 2.41 2.41 0 0 1 1-2 4.59 4.59 0 0 1 2.78-.74 8.47 8.47 0 0 1 1.13.08 7.3 7.3 0 0 1 1.12.27v-.65a1.47 1.47 0 0 0-.5-1.21 2.24 2.24 0 0 0-1.45-.4 4.91 4.91 0 0 0-1.26.18 11.41 11.41 0 0 0-1.55.58l-.9-1.88a11.25 11.25 0 0 1 2.1-.74 8.26 8.26 0 0 1 2-.25 4.31 4.31 0 0 1 2.89.89 3.16 3.16 0 0 1 1 2.52v6h-2.39v-.63a4.38 4.38 0 0 1-1.23.6 5 5 0 0 1-1.37.17zm-1-2.88a1 1 0 0 0 .46.84 2.14 2.14 0 0 0 1.22.31 3.92 3.92 0 0 0 1.11-.15 3.6 3.6 0 0 0 .93-.44v-1.38a4.91 4.91 0 0 0-.93-.25 6.69 6.69 0 0 0-1-.08 2.32 2.32 0 0 0-1.3.31 1 1 0 0 0-.49.84zm8.45.12v-4.58h-1.89v-2h1.89v-2.39l2.43-.55v2.91h2.62v2h-2.62v4.12a1.24 1.24 0 0 0 .28.92 1.49 1.49 0 0 0 1 .26 4.31 4.31 0 0 0 .64 0 3.69 3.69 0 0 0 .65-.17v2a6 6 0 0 1-.93.2 5.84 5.84 0 0 1-.94.08 3.45 3.45 0 0 1-2.33-.69 2.62 2.62 0 0 1-.8-2.11z"/>
</svg>
