<svg xmlns="http://www.w3.org/2000/svg" viewBox="-13.55 -13.55 704.6 248.1">
	<path fill="#213a8f" d="M110.264 98.403v42.4h43.999c-2.133 23.865-20.133 35.998-43.466 35.998-35.466 0-54.665-32.665-54.665-64.931 0-31.6 18.4-65.465 53.865-65.465 21.733 0 37.333 13.2 44.8 32.932l51.198-21.466C188.129 19.205 155.063.006 112.397.006 45.599.006 0 44.27 0 111.603 0 176.8 45.332 221.067 110.53 221.067c34.666 0 65.199-12.4 85.465-40.666 18.4-25.866 20.666-51.732 21.2-81.998h-106.93zM385.59 6.006l-44.799 111.596L298.393 6.006h-53.466L209.461 214.8h54l17.465-120.263h.534L329.325 214.8h21.6l50.132-120.263h.666l15.2 120.263h54.265L439.59 6.006zm217.728 98.13 58.932-98.13h-60.132L570.786 55.87 537.053 6.006h-65.865l69.465 97.997L471.188 214.8h65.865l37.6-62.798 44.532 62.798h58.798l-74.665-110.663"/>
</svg>
