<svg xmlns="http://www.w3.org/2000/svg" width="200" height="128">
	<path d="M101.635 79.235c-.139-.105-.244-7.1-.244-15.478V48.522H139.3l-.069 15.408-.101 15.37-18.643.105c-10.226.038-18.748-.031-18.852-.17zm20.974-13.5V59.3h10.434v-3.474H107.3V59.3h10.435v12.87h4.87z" fill="#375c92"/>
	<path d="M142.435 64V48.522H180v30.956h-37.565zm24.1 8.139c4.7-.73 6.4-2.3 6.052-5.635-.313-3.374-2.33-4.208-11.13-4.626-5.844-.243-6.852-.487-6.852-1.495 0-1.113 2.295-1.531 7.13-1.322a32.55 32.55 0 0 1 8.974 1.461c.522.208.591 0 .591-1.67 0-1.878-.034-1.948-1.113-2.295a32.682 32.682 0 0 0-9.461-1.079c-5.287 0-7.93.592-9.391 2.052-.974.974-1.078 1.287-1.078 3.2s.1 2.192 1.078 3.1c1.461 1.287 3.548 1.7 10.47 2.087a42.592 42.592 0 0 1 6.017.522c.557.348.417 1.5-.243 1.843-2.366 1.218-12.9.487-17.322-1.182-.418-.174-.522.139-.522 1.739v1.913l1.878.556a40.232 40.232 0 0 0 14.926.831z" fill="#8dc53e"/>
	<path d="m40.7 83.652-4.522-4.174H20V48.522h37.565v30.956H45.426l-.1 4.174-.105 4.174zM30.5 65.7l.105-6.434 6.856 6.434 6.852 6.47H51.3V55.826h-4.517l-.07 6.261-.1 6.226-6.683-6.226-6.643-6.261h-7.374v16.348h4.522z" fill="#27aae0"/>
	<path d="M155.722 72.139a28.529 28.529 0 0 1-4.105-.835l-1.878-.556v-1.913c0-1.6.1-1.913.522-1.739 4.417 1.669 14.956 2.4 17.322 1.182.66-.348.8-1.5.243-1.843a42.592 42.592 0 0 0-6.017-.522c-6.922-.383-9.009-.8-10.47-2.087-.974-.9-1.078-1.183-1.078-3.1s.1-2.226 1.078-3.2c1.461-1.46 4.1-2.052 9.391-2.052a32.682 32.682 0 0 1 9.461 1.079c1.079.347 1.113.417 1.113 2.295 0 1.67-.069 1.878-.591 1.67a32.55 32.55 0 0 0-8.974-1.461c-4.835-.209-7.13.209-7.13 1.322 0 1.008 1.008 1.252 6.852 1.495 8.8.418 10.817 1.252 11.13 4.626.348 3.339-1.356 4.905-6.052 5.635a44.95 44.95 0 0 1-10.817.004zM25.913 64v-8.174h7.374l6.643 6.261 6.679 6.226.1-6.226.07-6.261H51.3v16.348h-6.987L37.461 65.7l-6.852-6.43-.109 6.43-.069 6.47h-4.518zm91.826 1.739V59.3H107.3v-3.474h25.739V59.3h-10.43v12.87h-4.87z" fill="#fefefe"/>
	<path d="m79.351 58.821 4.674 6.618h-9.347zm19.259-10.3-.07 15.409-.1 15.374-18.644.105c-10.226.034-18.747-.035-18.852-.174-.139-.105-.243-7.1-.243-15.478V48.522H98.61zm-4.56 23.7-11.837-16.76H76.49L64.652 72.222h5.235l2.257-3.195h14.415l2.257 3.195z" fill="#34a474"/>
	<path d="M82.213 55.461H76.49L64.652 72.222h5.235l2.257-3.195h14.415l2.257 3.195h5.234zm-7.535 9.978 4.673-6.618 4.674 6.618z" fill="#fff"/>
</svg>
