<svg xmlns="http://www.w3.org/2000/svg" width="200" height="128">
    <path d="M101.635 75.655c-.139-.1-.244-7.1-.244-15.478V44.942H139.3l-.069 15.409-.105 15.374-18.643.1c-10.222.039-18.744-.031-18.848-.17zm20.974-13.5v-6.43h10.434v-3.479H107.3v3.479h10.435v12.869h4.87z" fill="#375c92"/>
    <path d="M142.435 60.42V44.942H180V75.9h-37.565zm24.1 8.139c4.7-.73 6.4-2.3 6.052-5.634-.313-3.374-2.33-4.209-11.13-4.626-5.844-.244-6.852-.487-6.852-1.5 0-1.113 2.295-1.531 7.13-1.322a32.588 32.588 0 0 1 8.974 1.461c.522.209.591 0 .591-1.67 0-1.878-.034-1.947-1.113-2.3a32.687 32.687 0 0 0-9.457-1.068c-5.287 0-7.93.591-9.391 2.052-.974.974-1.078 1.287-1.078 3.2s.1 2.191 1.078 3.095c1.461 1.287 3.548 1.7 10.47 2.087a42.592 42.592 0 0 1 6.017.522c.557.348.417 1.5-.243 1.844-2.366 1.217-12.9.486-17.322-1.183-.418-.174-.522.139-.522 1.739v1.913l1.878.557a40.253 40.253 0 0 0 14.922.833z" fill="#8dc53e"/>
    <path d="M40.7 80.072L36.174 75.9H20V44.942h37.565V75.9H45.426l-.1 4.173-.105 4.174zM30.5 62.125l.105-6.435 6.852 6.435 6.852 6.469H51.3V52.246h-4.517l-.07 6.261-.1 6.226-6.683-6.226-6.643-6.261h-7.374v16.348h4.522z" fill="#27aae0"/>
    <path d="M155.722 68.559a28.53 28.53 0 0 1-4.105-.834l-1.878-.557v-1.913c0-1.6.1-1.913.522-1.739 4.417 1.669 14.956 2.4 17.322 1.183.66-.348.8-1.5.243-1.844a42.592 42.592 0 0 0-6.017-.522c-6.922-.382-9.009-.8-10.47-2.087-.974-.9-1.078-1.182-1.078-3.095s.1-2.226 1.078-3.2c1.461-1.461 4.1-2.052 9.391-2.052a32.687 32.687 0 0 1 9.461 1.078c1.079.348 1.113.417 1.113 2.3 0 1.67-.069 1.879-.591 1.67a32.588 32.588 0 0 0-8.974-1.461c-4.835-.209-7.13.209-7.13 1.322 0 1.009 1.008 1.252 6.852 1.5 8.8.417 10.817 1.252 11.13 4.626.348 3.339-1.356 4.9-6.052 5.634a44.9 44.9 0 0 1-10.817-.009zM25.913 60.42v-8.174h7.374l6.643 6.261 6.679 6.226.1-6.226.07-6.261H51.3v16.348h-6.987l-6.852-6.469-6.852-6.435-.109 6.435-.069 6.469h-4.518zM117.739 62.159v-6.434H107.3v-3.479h25.739v3.479h-10.43v12.869h-4.87z" fill="#fefefe"/>
    <path d="M79.351 55.241l4.674 6.618h-9.347zm19.259-10.3l-.07 15.409-.1 15.374-18.644.1c-10.226.035-18.747-.035-18.852-.174-.139-.1-.243-7.1-.243-15.478v-15.23H98.61zm-4.56 23.7L82.213 51.882H76.49l-11.838 16.76h5.235l2.257-3.195h14.415l2.257 3.195z" fill="#34a474"/>
    <path d="M82.213 51.882H76.49l-11.838 16.76h5.235l2.257-3.195h14.415l2.257 3.195h5.234zm-7.535 9.977l4.673-6.618 4.674 6.618z" fill="#fff"/>
    <path d="M93.637 87.2a3.263 3.263 0 0 0 .99.713 2.727 2.727 0 0 0 1.182.27 1.857 1.857 0 0 0 1.212-.354 1.142 1.142 0 0 0 .432-.929 1.181 1.181 0 0 0-.1-.511 1.11 1.11 0 0 0-.276-.359 1.99 1.99 0 0 0-.414-.271c-.161-.08-.332-.164-.516-.252l-1.128-.492a5.192 5.192 0 0 1-.564-.288 2.266 2.266 0 0 1-.516-.407 1.957 1.957 0 0 1-.372-.571 1.882 1.882 0 0 1-.144-.761 1.858 1.858 0 0 1 .186-.828 2.012 2.012 0 0 1 .516-.666 2.4 2.4 0 0 1 .78-.439 3.032 3.032 0 0 1 .99-.155 3.166 3.166 0 0 1 1.308.269 3.3 3.3 0 0 1 1.02.7l-.54.648a2.847 2.847 0 0 0-.8-.546 2.378 2.378 0 0 0-.99-.2 1.708 1.708 0 0 0-1.062.3 1 1 0 0 0-.4.846.965.965 0 0 0 .113.486 1.206 1.206 0 0 0 .307.348 2.428 2.428 0 0 0 .42.265c.151.076.308.145.468.21l1.116.479a4.893 4.893 0 0 1 .636.33 2.326 2.326 0 0 1 .516.432 1.88 1.88 0 0 1 .342.576 2.138 2.138 0 0 1 .126.763 2.093 2.093 0 0 1-.186.876 2.116 2.116 0 0 1-.534.714 2.517 2.517 0 0 1-.84.479 3.343 3.343 0 0 1-1.116.174 3.782 3.782 0 0 1-2.76-1.163zm11.376-5.317h-2.376v-.84h5.76v.84h-2.376v7.032h-1.008zm12.719 7.032l-1.9-3.324h-1.427v3.324h-1v-7.873h2.46a5.015 5.015 0 0 1 1.109.115 2.358 2.358 0 0 1 .876.378 1.794 1.794 0 0 1 .571.683 2.364 2.364 0 0 1 .2 1.032 2.167 2.167 0 0 1-.48 1.476 2.451 2.451 0 0 1-1.283.757l1.991 3.431zm-3.323-4.139h1.32a2.291 2.291 0 0 0 1.416-.378 1.356 1.356 0 0 0 .492-1.147 1.19 1.19 0 0 0-.492-1.091 2.659 2.659 0 0 0-1.416-.313h-1.32zm9.576-3.733h4.536v.84h-3.54v2.473h2.988v.851h-2.988v2.857h3.66v.851h-4.656zm13.524 5.472h-2.868l-.756 2.4h-1.02l2.664-7.872h1.128l2.664 7.872h-1.069zm-.252-.8l-.372-1.2c-.144-.439-.281-.878-.408-1.313s-.256-.882-.384-1.338h-.049c-.119.456-.244.9-.371 1.338s-.264.874-.408 1.313l-.372 1.2zm6.78-4.668h1.175l1.524 4.224.576 1.608h.048l.553-1.608 1.511-4.224h1.176v7.872h-.949v-4.337c0-.351.015-.74.042-1.164s.058-.811.091-1.164h-.049l-.635 1.752-1.513 4.116h-.564l-1.523-4.116-.624-1.752h-.047c.024.353.051.741.084 1.164s.047.813.047 1.164v4.332h-.923zm12.323 0h1v7.872h-1zm6.756 0h1.032l2.844 4.945.852 1.632h.048q-.036-.6-.078-1.243t-.042-1.265v-4.074h.948v7.872h-1.032l-2.856-4.956-.852-1.62h-.048q.048.6.09 1.218t.042 1.242v4.116h-.948zm10.908 3.937a5.04 5.04 0 0 1 .27-1.7A3.7 3.7 0 0 1 175.05 82a3.308 3.308 0 0 1 1.146-.811 3.675 3.675 0 0 1 1.452-.281 2.755 2.755 0 0 1 1.362.3 3.882 3.882 0 0 1 .894.666l-.564.636a2.749 2.749 0 0 0-.69-.521 2.063 2.063 0 0 0-.99-.21 2.543 2.543 0 0 0-1.08.221 2.282 2.282 0 0 0-.816.636 3.033 3.033 0 0 0-.522 1 4.372 4.372 0 0 0-.186 1.32 4.747 4.747 0 0 0 .174 1.338 2.957 2.957 0 0 0 .5 1.014 2.226 2.226 0 0 0 .816.648 2.6 2.6 0 0 0 1.122.228 2.507 2.507 0 0 0 .8-.126 1.712 1.712 0 0 0 .618-.342v-2.054h-1.666v-.828H180v3.313a2.941 2.941 0 0 1-1.014.653 3.723 3.723 0 0 1-1.422.258 3.625 3.625 0 0 1-1.428-.275 3.15 3.15 0 0 1-1.116-.8 3.74 3.74 0 0 1-.732-1.284 5.242 5.242 0 0 1-.264-1.72z" fill="#666"/>
</svg>
