<svg xmlns="http://www.w3.org/2000/svg" viewBox="-9.7 -9.7 504.4 118.9">
	<path fill="#111" d="M96.488 4.583c-11.62-7.26-26.92-5.53-40.564 3.043C42.322-.948 27.014-2.678 15.408 4.583c-18.36 11.474-20.593 41.024-4.981 66.005 11.507 18.417 29.502 29.208 45.52 29.01 16.02.198 34.015-10.593 45.522-29.01 15.593-24.981 13.38-54.531-4.98-66.005zm-77.62 60.73a59.839 59.839 0 0 1-7.204-16.493A47.161 47.161 0 0 1 10.1 33.27c.696-9.232 4.455-16.422 10.578-20.246 6.123-3.825 14.218-4.057 22.839-.635a42.974 42.974 0 0 1 3.843 1.772 70.545 70.545 0 0 0-12.379 14.882c-9.479 15.166-12.37 32.042-9.062 45.497a61.237 61.237 0 0 1-7.052-9.227zm81.369-16.498a59.981 59.981 0 0 1-7.204 16.493 61.791 61.791 0 0 1-7.052 9.246c2.957-12.061.948-26.838-6.303-40.696a1.83 1.83 0 0 0-2.621-.711L54.45 47.27a1.848 1.848 0 0 0-.587 2.55l3.317 5.303a1.844 1.844 0 0 0 2.545.588l14.654-9.156c.474 1.421.948 2.843 1.303 4.265a47.147 47.147 0 0 1 1.57 15.53c-.698 9.228-4.456 16.418-10.579 20.247a20.673 20.673 0 0 1-10.479 3.033h-.469a20.65 20.65 0 0 1-10.479-3.033c-6.128-3.83-9.886-11.019-10.583-20.246a47.275 47.275 0 0 1 1.564-15.55A61.54 61.54 0 0 1 55.1 20.597a47.256 47.256 0 0 1 13.27-8.218c8.597-3.422 16.706-3.194 22.834.635 6.128 3.83 9.881 11.014 10.578 20.247a47.28 47.28 0 0 1-1.545 15.554zm116.692-11.028c-11.886 0-21.493 9.28-21.493 21.085 0 11.725 9.607 20.853 21.493 20.853 11.967 0 21.573-9.114 21.573-20.853 0-11.8-9.592-21.08-21.573-21.08v-.005zm0 30.914c-5.479 0-9.65-4.43-9.65-9.91s4.171-9.976 9.65-9.976c5.56 0 9.73 4.512 9.73 9.99 0 5.48-4.17 9.915-9.73 9.915v-.019zm48.374-47.109h-21.872a1.755 1.755 0 0 0-1.275.515 1.754 1.754 0 0 0-.511 1.277v53.322a1.772 1.772 0 0 0 .478 1.34 1.773 1.773 0 0 0 1.308.556h21.872c17.503 0 29.664-11.64 29.664-28.574 0-17.037-12.161-28.436-29.664-28.436zm.517 45.75h-11.967V32.824h11.967c9.687 0 16.365 7.246 16.365 17.18 0 9.768-6.678 17.336-16.365 17.336zm72.682-28.408h-8.222a1.853 1.853 0 0 0-1.707 1.791v2.44c-1.872-3.094-6.104-5.374-11.374-5.374-10.256 0-19.863 8.057-19.863 20.925 0 12.796 9.522 21 19.782 21 5.29 0 9.607-2.275 11.48-5.37v2.521a1.72 1.72 0 0 0 1.705 1.711h8.223a1.673 1.673 0 0 0 1.711-1.71V40.724a1.74 1.74 0 0 0-1.735-1.791zM319.374 68.79c-5.445 0-9.535-4.184-9.535-9.99s4.09-9.986 9.535-9.986c5.446 0 9.536 4.176 9.536 9.981s-4.085 9.99-9.536 9.99v.005zm65.285-47.199h-8.223a1.735 1.735 0 0 0-1.787 1.711v19.702c-1.895-2.934-6.19-5.214-11.559-5.214-10.18 0-19.62 8.057-19.62 20.925 0 12.796 9.52 21 19.781 21 5.29 0 9.28-2.275 11.479-5.37v2.521a1.716 1.716 0 0 0 1.706 1.711h8.223a1.668 1.668 0 0 0 1.71-1.71V23.312a1.668 1.668 0 0 0-1.71-1.72zm-19.129 47.3c-5.422 0-9.479-4.228-9.479-10.095 0-5.867 4.071-10.095 9.479-10.095s9.478 4.228 9.478 10.095c0 5.868-4.052 10.095-9.478 10.095zm65.275-47.299h-8.209a1.74 1.74 0 0 0-1.791 1.711v19.702c-1.872-2.934-6.19-5.214-11.56-5.214-10.18 0-19.62 8.057-19.62 20.925 0 12.796 9.526 21 19.782 21 5.293 0 9.28-2.275 11.478-5.37v2.521a1.72 1.72 0 0 0 1.711 1.711h8.209a1.663 1.663 0 0 0 1.706-1.71V23.312a1.663 1.663 0 0 0-1.706-1.72zm-19.128 47.299c-5.427 0-9.479-4.228-9.479-10.095 0-5.867 4.071-10.095 9.479-10.095s9.478 4.228 9.478 10.095c0 5.868-4.042 10.095-9.464 10.095h-.014zm64.151-27.185-12.27 42.08c-2.37 7.489-7.654 11.968-15.877 11.968-3.739 0-7.142-.763-9.81-2.29-1.554-.886-2.844-1.696-2.844-2.995 0-.805.261-1.223.735-1.976l2.436-3.65c.687-1.018 1.194-1.35 1.934-1.35a2.81 2.81 0 0 1 1.62.564c1.531.99 2.953 1.843 5.119 1.843 2.53 0 4.464-.81 5.507-3.824l1.052-3.493h-4.967c-1.222 0-1.895-.73-2.199-1.711l-10.98-35.166c-.408-1.384-.034-2.768 2-2.768h8.649c1.057 0 1.796.36 2.26 1.872l8.11 28.318 7.582-28.318c.242-.976.896-1.872 2.2-1.872h8.203c1.616-.004 2.104 1.133 1.54 2.768zM192.337 54.223V76.7a1.83 1.83 0 0 1-.536 1.323 1.83 1.83 0 0 1-1.322.535h-6.787a1.825 1.825 0 0 1-1.858-1.858v-5.9c-4.308 5.44-11.8 8.867-20.275 8.867-15.914 0-28.35-11.971-28.35-29.014 0-17.71 13.426-29.92 30.388-29.92 12.521 0 22.531 5.384 26.976 16.214a2.47 2.47 0 0 1 .204.905c0 .512-.336.9-1.422 1.275l-7.924 3.052a2.033 2.033 0 0 1-1.497.024 2.294 2.294 0 0 1-.948-1.086c-2.844-5.407-7.905-9.08-15.697-9.08-10.104 0-17.341 7.89-17.341 18.123 0 9.92 6.161 18.076 17.63 18.076 6.033 0 10.844-2.844 13.086-5.967h-7.157a1.83 1.83 0 0 1-1.858-1.858v-6.109a1.83 1.83 0 0 1 1.858-1.857h20.972a1.768 1.768 0 0 1 1.312.488 1.769 1.769 0 0 1 .546 1.289zM476.052 30.61v-.545a.156.156 0 0 1 .038-.104.152.152 0 0 1 .1-.038h3.464a.137.137 0 0 1 .1.038.156.156 0 0 1 .037.104v.545a.152.152 0 0 1-.037.1.137.137 0 0 1-.1.038h-1.265v3.417a.147.147 0 0 1-.143.142h-.654a.128.128 0 0 1-.094-.043.137.137 0 0 1-.043-.1V30.75h-1.265a.128.128 0 0 1-.138-.138zm6.057-.564.948 2.195.948-2.195a.194.194 0 0 1 .076-.094.256.256 0 0 1 .128-.029h1.1a.128.128 0 0 1 .136.133v4.114a.128.128 0 0 1-.132.137h-.616a.137.137 0 0 1-.1-.038.123.123 0 0 1-.038-.1v-3.104l-1.019 2.256a.246.246 0 0 1-.076.11.232.232 0 0 1-.128.028h-.502a.227.227 0 0 1-.123-.029.213.213 0 0 1-.076-.109l-1.014-2.256v3.105a.152.152 0 0 1-.038.1.152.152 0 0 1-.095.037h-.63a.123.123 0 0 1-.09-.038.123.123 0 0 1-.038-.1v-4.113a.128.128 0 0 1 .137-.133h1.067a.251.251 0 0 1 .123.029.194.194 0 0 1 .052.094z"/>
</svg>
