<svg xmlns="http://www.w3.org/2000/svg" width="200" height="128">
	<path d="M152.043 84.156a35.694 35.694 0 0 0 18.7-9.971c7.245-7.323 10.283-15.892 8.959-26.409A24.252 24.252 0 0 0 168.714 30.4c-6.778-4.6-14.256-5.375-22.2-3.973-9.27 1.636-16.126 5.531-21.812 13.01a33.071 33.071 0 0 0-5.38 10.127H94.24a2.1 2.1 0 0 0-1.947 1.246c-1.091 2.026-2.961 6.077-3.973 8.492-.546 1.324-.156 2.337 1.48 2.337h15.035c-.779 1.09-1.4 2.025-2.1 2.882a14.378 14.378 0 0 1-13.243 5.142 12.214 12.214 0 0 1-10.521-12.227 16.566 16.566 0 0 1 7.946-14.8c4.441-2.883 9.193-3.584 14.1-1.169a10.442 10.442 0 0 1 3.661 2.96c1.013 1.169 1.09 1.091 2.259.78 4.83-1.247 8.18-2.182 13.087-3.428.935-.234 1.247-.623.78-1.325a24.425 24.425 0 0 0-9.037-10.984c-6.31-4.284-13.321-5.141-20.644-3.817a34.568 34.568 0 0 0-21.811 13.476c-5.142 6.7-7.635 14.334-6.622 22.825a24.47 24.47 0 0 0 9.893 17.294c6.233 4.674 13.322 6.155 20.956 5.142 9.27-1.247 16.593-5.843 22.2-13.243a32.893 32.893 0 0 0 3.286-5.308A24.466 24.466 0 0 0 126.8 78c5.453 4.674 11.919 6.7 19.008 6.855 2.028-.231 4.132-.309 6.235-.699zm-17.45-30.148c1.714-7.322 6.388-11.919 13.633-13.555a12.834 12.834 0 0 1 15.892 10.361 22.633 22.633 0 0 1 .233 2.571c-.389 6.7-3.739 11.685-9.893 14.879a14.282 14.282 0 0 1-12.7.468 12.83 12.83 0 0 1-7.165-14.724zm-76.11-6.076L57.86 49.8a.681.681 0 0 1-.7.467l-36.847.078c-.312 0-.39-.156-.234-.39l1.636-2.1a1.115 1.115 0 0 1 .857-.389h35.522a.358.358 0 0 1 .389.466zm3.9-7.167-1.324 2.026a1.189 1.189 0 0 1-.779.467l-28.2-.078c-.312 0-.39-.156-.234-.389l1.636-2.1a1.115 1.115 0 0 1 .857-.389h27.806c.311-.002.389.229.233.463zm-5.536 14.412-.155 1.87a.586.586 0 0 1-.546.545l-16.982-.078c-.312 0-.39-.234-.234-.467l1.091-1.947a1.031 1.031 0 0 1 .779-.467h15.58c.312-.001.467.232.467.544zm112.367 39.932a4.179 4.179 0 0 0-3.012 1.029 4.392 4.392 0 0 0 0 5.753 4.923 4.923 0 0 0 6.024 0 4.389 4.389 0 0 0 0-5.753 4.177 4.177 0 0 0-3.012-1.029zm.8 5.324a1.01 1.01 0 0 1-1.608 0 4.456 4.456 0 0 1 0-2.838 1.011 1.011 0 0 1 1.608 0 4.437 4.437 0 0 1 0 2.838zm-6.346-5.324a1.445 1.445 0 0 1 .8.18l-.285 2.509a1.013 1.013 0 0 0-.391-.165 2.435 2.435 0 0 0-.556-.061 1.666 1.666 0 0 0-1.141.383 1.411 1.411 0 0 0-.436 1.119v3.7h-3.034v-7.51h2.719l.09 1.757a2.963 2.963 0 0 1 .826-1.412 2.043 2.043 0 0 1 1.412-.5zm-27.007-2.254h4.139v9.914h-2.7V98.8l.059-3.2h-.029l-2.179 7.165h-2.471l-2.148-7.165h-.045l.061 3.2v3.965h-2.705v-9.91h4.327l1.337 4.7.5 1.968h.029l.5-1.968zm20.623 7.751.195 1.773a3.06 3.06 0 0 1-.976.39 5.066 5.066 0 0 1-1.2.151 3.554 3.554 0 0 1-2.253-.6 2.354 2.354 0 0 1-.751-1.953v-3.02h-1.217v-2.088h1.218v-1.637l3.034-.841v2.478h2.057v2.088h-2.057v2.539a1.017 1.017 0 0 0 .232.751.994.994 0 0 0 .714.225 1.945 1.945 0 0 0 1.008-.256zm-10.86-5.5a4.116 4.116 0 0 0-2.982 1.022 3.816 3.816 0 0 0-1.058 2.884 3.772 3.772 0 0 0 1.081 2.891 4.4 4.4 0 0 0 3.124 1.014 4.73 4.73 0 0 0 2.336-.533 2.5 2.5 0 0 0 1.239-1.555l-2.448-.706a1.027 1.027 0 0 1-1.127.721 1.375 1.375 0 0 1-.886-.255 1.34 1.34 0 0 1-.405-.887h4.941a4.077 4.077 0 0 0 .075-.871 3.671 3.671 0 0 0-1.007-2.727 3.919 3.919 0 0 0-2.879-.995zm-1.124 3.278a1.638 1.638 0 0 1 .367-.932 1.03 1.03 0 0 1 .774-.285.869.869 0 0 1 .713.3 1.775 1.775 0 0 1 .323.917z" fill="#00add8"/>
</svg>
