<svg xmlns="http://www.w3.org/2000/svg" width="200" height="128">
    <path d="M32.075 52.211c-.312 0-.39-.155-.234-.389l1.636-2.1a1.118 1.118 0 0 1 .857-.389h27.811c.311 0 .389.234.233.467l-1.324 2.026a1.185 1.185 0 0 1-.779.467zM20.312 59.378c-.312 0-.39-.156-.234-.389l1.636-2.1a1.118 1.118 0 0 1 .857-.389h35.523a.358.358 0 0 1 .389.467l-.623 1.87a.68.68 0 0 1-.7.467zM39.164 66.545c-.312 0-.39-.234-.234-.467l1.091-1.948a1.033 1.033 0 0 1 .779-.467h15.58c.312 0 .467.234.467.545l-.155 1.87a.586.586 0 0 1-.546.545z" fill="#00add8"/>
    <g fill="#00add8">
        <path d="M120.025 50.809c-4.907 1.247-8.257 2.181-13.087 3.428-1.169.311-1.246.389-2.259-.779a10.428 10.428 0 0 0-3.662-2.961c-4.907-2.414-9.659-1.713-14.1 1.169a16.568 16.568 0 0 0-7.946 14.8A12.214 12.214 0 0 0 89.488 78.7a14.378 14.378 0 0 0 13.243-5.142c.7-.857 1.325-1.791 2.1-2.882H89.8c-1.636 0-2.026-1.013-1.48-2.337 1.012-2.415 2.882-6.466 3.973-8.491A2.1 2.1 0 0 1 94.24 58.6h28.36c-.156 2.1-.156 4.207-.467 6.31a33.22 33.22 0 0 1-6.388 15.269c-5.609 7.4-12.932 12-22.2 13.243-7.634 1.013-14.723-.467-20.956-5.141a24.474 24.474 0 0 1-9.899-17.295c-1.013-8.492 1.48-16.126 6.622-22.826a34.572 34.572 0 0 1 21.812-13.477c7.323-1.324 14.334-.467 20.644 3.818a24.406 24.406 0 0 1 9.032 10.984c.472.701.16 1.09-.775 1.324z"/>
        <path d="M145.811 93.889c-7.089-.156-13.555-2.182-19.008-6.856A24.427 24.427 0 0 1 118.39 72c-1.4-8.8 1.012-16.593 6.31-23.526 5.686-7.478 12.542-11.374 21.812-13.009 7.946-1.4 15.424-.624 22.2 3.972a24.252 24.252 0 0 1 10.988 17.37c1.324 10.517-1.714 19.086-8.959 26.409a35.694 35.694 0 0 1-18.7 9.971c-2.101.39-4.205.468-6.23.702zm18.54-31.473a22.636 22.636 0 0 0-.233-2.57 12.833 12.833 0 0 0-15.892-10.361c-7.245 1.636-11.919 6.232-13.633 13.555a12.829 12.829 0 0 0 7.167 14.723 14.281 14.281 0 0 0 12.7-.467c6.152-3.196 9.502-8.18 9.891-14.88z"/>
    </g>
</svg>
