<svg xmlns="http://www.w3.org/2000/svg" width="200" height="128"><defs><style>.cls-1{fill:#4285f4;}.cls-2{fill:#407add;}.cls-3{fill:#fff;}.cls-4{fill:#767676;}</style></defs><path class="cls-1" d="M126.36,43.51l-11.1-19.3a4.91,4.91,0,0,0-4.16-2.48H88.9a4.91,4.91,0,0,0-4.16,2.48L73.64,43.45a4.89,4.89,0,0,0,0,4.83l11.1,19.4a5,5,0,0,0,4.16,2.57h22.19a4.93,4.93,0,0,0,4.17-2.55l11.1-19.3A5,5,0,0,0,126.36,43.51Z"/><path class="cls-1" d="M111.15,38.71h-.89l-2.46-2.47-18.5,4.7,2.4,2-2.4,2.23,2.26,2-2.27,2.23,2.53,2L89.29,53.6l16.62,16.67h5.18a4.94,4.94,0,0,0,4.17-2.56l9-15.58h0Z"/><path class="cls-2" d="M106.44,36.24,92.72,38.49l.65,1.19L90,41.79l1.18,2H88.65v9.88l17.26,16.56h5.18a4.94,4.94,0,0,0,4.17-2.56l8.31-14.46Z"/><path class="cls-3" d="M107.28,38.49H92.72l.85-2.25h12.87ZM110,41.8H90l.84-2.12h18.33Zm-5.48,2.05-.75,1.39H96.22l-.74-1.39H88.65v9.86h22.7V43.85Z"/><path class="cls-4" d="M81.09,89.59a6.7,6.7,0,0,1-3.33-.89,6.46,6.46,0,0,1-2.45-8.91,6.54,6.54,0,0,1,2.45-2.42,6.61,6.61,0,0,1,3.33-.9,6.32,6.32,0,0,1,4.49,1.81l-1.26,1.27a4.56,4.56,0,0,0-3.23-1.28,4.51,4.51,0,0,0-3.35,1.39,4.87,4.87,0,0,0,0,6.75,4.82,4.82,0,0,0,6.23.46,3.78,3.78,0,0,0,1.41-2.64H81.09V82.44h6a6.13,6.13,0,0,1,.1,1.12,5.76,5.76,0,0,1-1.73,4.37A6.11,6.11,0,0,1,81.09,89.59Zm15.25-4.22a4.18,4.18,0,1,1-1.24-3A4,4,0,0,1,96.34,85.37Zm-6.63,0a2.55,2.55,0,0,0,.69,1.82,2.3,2.3,0,0,0,3.38,0,2.56,2.56,0,0,0,.7-1.82,2.48,2.48,0,0,0-.69-1.82,2.31,2.31,0,0,0-3.39,0A2.48,2.48,0,0,0,89.71,85.37Zm15.87,0a4.17,4.17,0,1,1-1.23-3A4,4,0,0,1,105.58,85.37Zm-6.62,0a2.55,2.55,0,0,0,.69,1.82,2.23,2.23,0,0,0,1.69.74,2.19,2.19,0,0,0,1.68-.74,2.57,2.57,0,0,0,.71-1.82,2.48,2.48,0,0,0-.69-1.82,2.31,2.31,0,0,0-3.39,0A2.48,2.48,0,0,0,99,85.37Zm11.47,8a4.18,4.18,0,0,1-2.28-.7,4,4,0,0,1-.85-.78,4.38,4.38,0,0,1-.61-1l1.61-.67a2.71,2.71,0,0,0,.85,1.09,2.15,2.15,0,0,0,1.28.41c1.51,0,2.26-.88,2.26-2.65v-.44h-.07a2.72,2.72,0,0,1-2.22,1,3.91,3.91,0,0,1-2.85-1.23,4.13,4.13,0,0,1-1.2-3,4.18,4.18,0,0,1,1.2-3,3.85,3.85,0,0,1,2.85-1.24,2.74,2.74,0,0,1,2.22.94h.07V81.4h1.76V89a4.6,4.6,0,0,1-1.07,3.25A3.84,3.84,0,0,1,110.43,93.39Zm-2.22-8a2.56,2.56,0,0,0,.67,1.8,2.22,2.22,0,0,0,1.68.74,2.09,2.09,0,0,0,1.6-.72,2.87,2.87,0,0,0,0-3.66,2,2,0,0,0-1.6-.74,2.2,2.2,0,0,0-1.66.75A2.57,2.57,0,0,0,108.21,85.39Zm7.52-8.47h1.85V89.34h-1.85Zm6.94,12.67a4,4,0,0,1-3-1.21,4.13,4.13,0,0,1-1.2-3,4.25,4.25,0,0,1,1.14-3,3.76,3.76,0,0,1,2.84-1.2,3.53,3.53,0,0,1,2.21.74,4.24,4.24,0,0,1,.83.86,4.67,4.67,0,0,1,.58,1.08l.19.48-5.65,2.34a2.17,2.17,0,0,0,2,1.28,2.39,2.39,0,0,0,2.08-1.17l1.44,1A4,4,0,0,1,122.67,89.59Zm-.14-6.81a2.16,2.16,0,0,0-1.57.7,2.31,2.31,0,0,0-.64,1.76l3.78-1.57a1.32,1.32,0,0,0-.6-.64A1.85,1.85,0,0,0,122.53,82.78ZM57.42,106a5.67,5.67,0,0,1-4-9.6,5.33,5.33,0,0,1,4-1.63,5,5,0,0,1,3.94,1.76l-1,1a3.65,3.65,0,0,0-2.95-1.39,4.06,4.06,0,0,0-3,1.2,4.64,4.64,0,0,0,0,6.18,4.06,4.06,0,0,0,3,1.2,4.2,4.2,0,0,0,3.25-1.58l1,1a5.15,5.15,0,0,1-1.88,1.41A5.62,5.62,0,0,1,57.42,106Zm6.87-11v10.74H62.91V95Zm1.18,7.06a3.92,3.92,0,0,1,1.07-2.81,3.65,3.65,0,0,1,2.71-1.1,3.61,3.61,0,0,1,2.7,1.1A3.89,3.89,0,0,1,73,102.06,3.84,3.84,0,0,1,72,104.87a3.58,3.58,0,0,1-2.7,1.11,3.62,3.62,0,0,1-2.71-1.11A3.92,3.92,0,0,1,65.47,102.06Zm1.38,0a2.69,2.69,0,0,0,.69,1.92A2.35,2.35,0,0,0,71,104a2.69,2.69,0,0,0,.69-1.92,2.66,2.66,0,0,0-.69-1.9,2.32,2.32,0,0,0-3.42,0A2.66,2.66,0,0,0,66.85,102.06Zm13.82,3.68H79.35v-1h-.06a2.5,2.5,0,0,1-1,.9A2.8,2.8,0,0,1,77,106a2.71,2.71,0,0,1-2.08-.78,3.09,3.09,0,0,1-.72-2.2V98.39h1.38v4.53a1.62,1.62,0,0,0,1.81,1.8,1.74,1.74,0,0,0,1.38-.67,2.44,2.44,0,0,0,.56-1.6V98.39h1.38Zm4.68.24a3.22,3.22,0,0,1-2.48-1.15,4.27,4.27,0,0,1,0-5.54,3.24,3.24,0,0,1,2.48-1.14,3.12,3.12,0,0,1,1.47.34,2.57,2.57,0,0,1,1,.92h.06l-.06-1V95h1.38v10.74H87.91v-1h-.06a2.55,2.55,0,0,1-1,.91A3.13,3.13,0,0,1,85.35,106Zm.22-1.26a2.13,2.13,0,0,0,1.67-.74,3.06,3.06,0,0,0,0-3.82,2.22,2.22,0,0,0-3.33,0,3,3,0,0,0,0,3.81A2.14,2.14,0,0,0,85.57,104.72Zm10.26-3.59v4.61H94.45V95h6.27v1.32H95.83v3.52h4.41v1.29Zm7.84-5.28a1,1,0,1,1-.28-.69A.94.94,0,0,1,103.67,95.85Zm-.28,2.54v7.35H102V98.39ZM106.57,95v10.74h-1.38V95Zm4.91,11a3.5,3.5,0,0,1-2.67-1.11,3.91,3.91,0,0,1-1.06-2.81,4,4,0,0,1,1-2.8A3.69,3.69,0,0,1,114,99.2a4.28,4.28,0,0,1,1,3l0,.15h-5.77a2.39,2.39,0,0,0,.71,1.74,2.33,2.33,0,0,0,1.66.66,2.28,2.28,0,0,0,2.06-1.32l1.23.6a3.61,3.61,0,0,1-1.37,1.45A3.79,3.79,0,0,1,111.48,106Zm-2.21-4.8h4.21a1.8,1.8,0,0,0-.62-1.27,2.15,2.15,0,0,0-1.51-.5,2,2,0,0,0-1.34.48A2.32,2.32,0,0,0,109.27,101.18Zm12.64,2.52a2,2,0,0,1-.84,1.62,3.64,3.64,0,0,1-4.06.08,3.25,3.25,0,0,1-1.2-1.52l1.23-.53a2.29,2.29,0,0,0,.79,1,1.93,1.93,0,0,0,1.13.37,2,2,0,0,0,1.1-.29.79.79,0,0,0,.44-.67c0-.47-.36-.82-1.08-1l-1.26-.31c-1.43-.36-2.14-1-2.14-2.07a1.92,1.92,0,0,1,.82-1.62,3.43,3.43,0,0,1,2.09-.6,3.38,3.38,0,0,1,1.76.46,2.51,2.51,0,0,1,1.1,1.25l-1.23.51a1.5,1.5,0,0,0-.68-.73,2.08,2.08,0,0,0-1.06-.26,1.74,1.74,0,0,0-1,.27.77.77,0,0,0-.43.66c0,.42.39.72,1.18.9l1.11.28C121.18,101.85,121.91,102.58,121.91,103.7Zm4,2.16a2.09,2.09,0,0,1-1.49-.56,2,2,0,0,1-.61-1.55v-4.1h-1.29V98.39h1.29V96.14h1.38v2.25H127v1.26h-1.8v3.66a1.32,1.32,0,0,0,.28,1,.92.92,0,0,0,.65.27,1.65,1.65,0,0,0,.32,0l.29-.1.44,1.23A3.7,3.7,0,0,1,126,105.86Zm1.9-3.8a3.92,3.92,0,0,1,1.07-2.81,3.65,3.65,0,0,1,2.72-1.1,3.59,3.59,0,0,1,2.69,1.1,3.85,3.85,0,0,1,1.09,2.81,3.81,3.81,0,0,1-1.09,2.81,3.56,3.56,0,0,1-2.69,1.11,3.63,3.63,0,0,1-2.72-1.11A3.92,3.92,0,0,1,127.85,102.06Zm1.38,0a2.65,2.65,0,0,0,.7,1.92,2.24,2.24,0,0,0,1.71.74,2.29,2.29,0,0,0,1.71-.74,2.74,2.74,0,0,0,.69-1.92,2.7,2.7,0,0,0-.69-1.9,2.28,2.28,0,0,0-1.71-.75,2.24,2.24,0,0,0-1.71.75A2.62,2.62,0,0,0,129.23,102.06Zm8.67,3.68h-1.38V98.39h1.32v1.19h.06a2,2,0,0,1,.87-1,2.33,2.33,0,0,1,1.28-.41,2.59,2.59,0,0,1,1,.18l-.42,1.33a2.26,2.26,0,0,0-.81-.11,1.78,1.78,0,0,0-1.36.64,2.11,2.11,0,0,0-.58,1.47Zm6.92.24a3.52,3.52,0,0,1-2.67-1.11,4,4,0,0,1-1.05-2.81,4,4,0,0,1,1-2.8,3.68,3.68,0,0,1,5.21-.06,4.23,4.23,0,0,1,1,3l0,.15h-5.77a2.39,2.39,0,0,0,.72,1.74,2.33,2.33,0,0,0,3.72-.66l1.23.6a3.68,3.68,0,0,1-1.37,1.45A3.82,3.82,0,0,1,144.82,106Zm-2.21-4.8h4.22a1.84,1.84,0,0,0-.62-1.27,2.17,2.17,0,0,0-1.51-.5,2,2,0,0,0-1.34.48A2.27,2.27,0,0,0,142.61,101.18Z"/></svg>