<svg xmlns="http://www.w3.org/2000/svg" width="200" height="128">
    <path d="M126.35 43.51l-11.09-19.29a4.86 4.86 0 00-4.16-2.48H88.9a4.86 4.86 0 00-4.16 2.48l-11.1 19.24a4.89 4.89 0 000 4.83l11.1 19.4a5 5 0 004.16 2.57h22.19a5 5 0 004.17-2.55l11.09-19.3a4.93 4.93 0 000-4.9z" fill="#4285f4"/>
    <path d="M104.22 35.39l-1.6 2.46L98.73 34l-.93 3.77-2 1.94 4.13 4.13.06 3.85-3.61 1-4-.73-3.75 3.48 2 2-.78.16 16.68 16.66h4.5a5 5 0 004.17-2.56l7.8-13.51z" style="isolation:isolate" opacity=".07"/>
    <path fill="#fff" d="M108.22 49.63l3.08 1.78.25-3.27-3.71-2.14-2.4 1.56-3.81-2.2v-4.38l2.59-1.32v-4.28l-2.96-1.42v3.56l-1.26.72-1.27-.72v-3.56l-2.95 1.42v4.28l2.56 1.31v4.39l-3.8 2.19-2.43-1.58-3.71 2.14.24 3.27 3.09-1.78 1.25.74.02 1.45-3.09 1.79 2.71 1.84 3.7-2.14-.14-2.87 3.8-2.19 3.8 2.19-.15 2.89 3.7 2.14 2.71-1.84-3.09-1.78.02-1.46 1.25-.73z"/>
    <path d="M81.09 89.59a6.7 6.7 0 01-3.33-.89 6.46 6.46 0 01-2.45-8.91 6.54 6.54 0 012.45-2.42 6.61 6.61 0 013.33-.9 6.32 6.32 0 014.49 1.81l-1.26 1.27a4.56 4.56 0 00-3.23-1.28 4.51 4.51 0 00-3.35 1.39 4.87 4.87 0 000 6.75 4.82 4.82 0 006.23.46 3.78 3.78 0 001.41-2.64h-4.29v-1.79h6a6.13 6.13 0 01.1 1.12 5.76 5.76 0 01-1.73 4.37 6.11 6.11 0 01-4.37 1.66zm15.25-4.22a4.18 4.18 0 11-1.24-3 4 4 0 011.24 3zm-6.63 0a2.55 2.55 0 00.69 1.82 2.3 2.3 0 003.38 0 2.56 2.56 0 00.7-1.82 2.48 2.48 0 00-.69-1.82 2.31 2.31 0 00-3.39 0 2.48 2.48 0 00-.69 1.82zm15.87 0a4.17 4.17 0 11-1.23-3 4 4 0 011.23 3zm-6.62 0a2.55 2.55 0 00.69 1.82 2.23 2.23 0 001.69.74 2.19 2.19 0 001.68-.74 2.57 2.57 0 00.71-1.82 2.48 2.48 0 00-.69-1.82 2.31 2.31 0 00-3.39 0 2.48 2.48 0 00-.65 1.82zm11.47 8a4.18 4.18 0 01-2.28-.7 4 4 0 01-.85-.78 4.38 4.38 0 01-.61-1l1.61-.67a2.71 2.71 0 00.85 1.09 2.15 2.15 0 001.28.41c1.51 0 2.26-.88 2.26-2.65v-.44h-.07a2.72 2.72 0 01-2.22 1 3.91 3.91 0 01-2.85-1.23 4.13 4.13 0 01-1.2-3 4.18 4.18 0 011.2-3 3.85 3.85 0 012.85-1.24 2.74 2.74 0 012.22.94h.07v-.7h1.76V89a4.6 4.6 0 01-1.07 3.25 3.84 3.84 0 01-2.95 1.14zm-2.22-8a2.56 2.56 0 00.67 1.8 2.22 2.22 0 001.68.74 2.09 2.09 0 001.6-.72 2.87 2.87 0 000-3.66 2 2 0 00-1.6-.74 2.2 2.2 0 00-1.66.75 2.57 2.57 0 00-.69 1.85zm7.52-8.47h1.85v12.44h-1.85zm6.94 12.67a4 4 0 01-3-1.21 4.13 4.13 0 01-1.2-3 4.25 4.25 0 011.14-3 3.76 3.76 0 012.84-1.2 3.53 3.53 0 012.21.74 4.24 4.24 0 01.83.86 4.67 4.67 0 01.58 1.08l.19.48-5.65 2.34a2.17 2.17 0 002 1.28 2.39 2.39 0 002.08-1.17l1.44 1a4 4 0 01-3.46 1.82zm-.14-6.81a2.16 2.16 0 00-1.57.7 2.31 2.31 0 00-.64 1.76l3.78-1.57a1.32 1.32 0 00-.6-.64 1.85 1.85 0 00-.97-.23zM58.18 106a5.67 5.67 0 01-4-9.6 5.33 5.33 0 014-1.63 5 5 0 014 1.76l-1 1a3.67 3.67 0 00-3-1.39 4 4 0 00-3 1.2 4.61 4.61 0 000 6.18 4 4 0 003 1.2 4.22 4.22 0 003.26-1.58l1 1a5.12 5.12 0 01-1.87 1.41 5.67 5.67 0 01-2.39.45zm6.87-11v10.74h-1.38V95zm1.19 7.06a3.91 3.91 0 011.06-2.81 3.67 3.67 0 012.7-1.1 3.61 3.61 0 012.7 1.1 3.89 3.89 0 011.08 2.81 3.84 3.84 0 01-1.08 2.81A3.58 3.58 0 0170 106a3.64 3.64 0 01-2.72-1.11 3.91 3.91 0 01-1.04-2.83zm1.38 0a2.69 2.69 0 00.69 1.92 2.35 2.35 0 003.42 0 2.69 2.69 0 00.69-1.92 2.66 2.66 0 00-.69-1.9 2.32 2.32 0 00-3.42 0 2.66 2.66 0 00-.69 1.9zm13.81 3.68h-1.32v-1h-.06a2.43 2.43 0 01-1 .9 2.73 2.73 0 01-1.35.36 2.7 2.7 0 01-2.08-.78 3 3 0 01-.73-2.2v-4.63h1.41v4.53a1.63 1.63 0 001.82 1.8 1.74 1.74 0 001.38-.67 2.43 2.43 0 00.55-1.6v-4.06h1.38zm4.68.24a3.2 3.2 0 01-2.47-1.15 4.27 4.27 0 010-5.54 3.29 3.29 0 014-.8 2.64 2.64 0 011 .92h.06l-.06-1V95H90v10.74h-1.32v-1h-.06a2.62 2.62 0 01-1 .91 3.2 3.2 0 01-1.51.35zm.23-1.26A2.11 2.11 0 0088 104a3 3 0 000-3.82 2.11 2.11 0 00-1.66-.75 2.16 2.16 0 00-1.67.75 3 3 0 000 3.81 2.16 2.16 0 001.67.73zm15.06-1.85a2.81 2.81 0 01-1 2.27 4 4 0 01-2.55.84 3.76 3.76 0 01-2.35-.78 4 4 0 01-1.41-2.13l1.32-.54a3.4 3.4 0 00.37.87 2.79 2.79 0 00.56.66 2.68 2.68 0 00.72.44 2.26 2.26 0 00.82.16 2.42 2.42 0 001.55-.49 1.6 1.6 0 00.6-1.3 1.55 1.55 0 00-.5-1.15 4.71 4.71 0 00-1.74-.9c-.86-.31-1.39-.52-1.6-.63a2.76 2.76 0 01-1.71-2.57 2.6 2.6 0 01.94-2 3.47 3.47 0 012.36-.85 3.63 3.63 0 012.13.64 2.94 2.94 0 011.2 1.54l-1.29.54a1.92 1.92 0 00-.72-1 2.32 2.32 0 00-2.66.06 1.3 1.3 0 00-.55 1.09 1.26 1.26 0 00.43 1 7.54 7.54 0 002.09 1 5.29 5.29 0 012.33 1.36 2.91 2.91 0 01.66 1.87zm5.25 3.11a3.17 3.17 0 01-1.48-.35 2.55 2.55 0 01-1-.91h-.06l.06 1V109h-1.38V98.39h1.32v1h.06a2.57 2.57 0 011-.92 3.28 3.28 0 013.94.8 4 4 0 011 2.77 4 4 0 01-1 2.77 3.13 3.13 0 01-2.46 1.19zm-.23-1.26a2.16 2.16 0 001.67-.75 3 3 0 000-3.81 2.25 2.25 0 00-3.35 0 2.76 2.76 0 00-.66 1.9 2.8 2.8 0 00.66 1.92 2.19 2.19 0 001.68.74zm7.77-6.57a3.45 3.45 0 012.42.81 2.92 2.92 0 01.88 2.25v4.53h-1.32v-1h-.06a2.63 2.63 0 01-2.28 1.26 2.91 2.91 0 01-2-.73 2.25 2.25 0 01-.82-1.79 2.21 2.21 0 01.86-1.82 3.67 3.67 0 012.31-.67 4.05 4.05 0 012 .45v-.32a1.56 1.56 0 00-.57-1.22 1.92 1.92 0 00-1.33-.5 2.11 2.11 0 00-1.83 1l-1.22-.77a3.38 3.38 0 012.96-1.48zm-1.78 5.34a1.11 1.11 0 00.45.9 1.78 1.78 0 001.08.36 2.21 2.21 0 001.55-.65 2 2 0 00.68-1.52 2.9 2.9 0 00-1.8-.5 2.32 2.32 0 00-1.4.4 1.2 1.2 0 00-.56 1.01zm6.64-5.1h1.32v1h.06a2.45 2.45 0 011-.91 2.87 2.87 0 011.36-.35 2.67 2.67 0 012.07.77 3.06 3.06 0 01.73 2.2v4.62h-1.38v-4.53a1.61 1.61 0 00-1.81-1.8 1.73 1.73 0 00-1.38.66 2.44 2.44 0 00-.56 1.6v4.07h-1.38zm8.13 0h1.32v1h.06a2.45 2.45 0 011-.91 2.87 2.87 0 011.36-.35 2.67 2.67 0 012.07.77 3.06 3.06 0 01.73 2.2v4.62h-1.38v-4.53a1.61 1.61 0 00-1.81-1.8 1.73 1.73 0 00-1.38.66 2.44 2.44 0 00-.56 1.6v4.07h-1.38zm11.43 7.61a3.52 3.52 0 01-2.67-1.11 4 4 0 01-1.05-2.81 4 4 0 011-2.8 3.68 3.68 0 015.21-.06 4.23 4.23 0 011 3v.15h-5.8a2.39 2.39 0 00.72 1.74 2.33 2.33 0 003.72-.66l1.23.6a3.68 3.68 0 01-1.37 1.45 3.82 3.82 0 01-1.99.5zm-2.2-4.8h4.21a1.84 1.84 0 00-.62-1.27 2.17 2.17 0 00-1.51-.5 2 2 0 00-1.34.48 2.26 2.26 0 00-.74 1.27zm8.32 4.56h-1.38v-7.37h1.32v1.19h.06a2 2 0 01.86-1 2.38 2.38 0 011.29-.41 2.62 2.62 0 011 .18l-.42 1.33a2.26 2.26 0 00-.81-.11 1.76 1.76 0 00-1.36.64 2.07 2.07 0 00-.58 1.47z" fill="#767676"/>
</svg>
