<svg xmlns="http://www.w3.org/2000/svg" viewBox="0 0 323.32 267.77"><defs><style>.cls-1{fill:#fff;}.cls-2{fill:#4285f4;}.cls-3{opacity:0.07;isolation:isolate;}</style></defs><title>google-cloud-build-logo</title><g id="Layer_2" data-name="Layer 2"><g id="Layer_1-2" data-name="Layer 1"><path d="M215.15,98.86,191.31,57.28,167.47,98.86l23.84,41.58Zm-103.36,3.41,23.73,41.46H183.2l-23.73-41.46Zm47.33-6.81L183.32,54H135.64L111.79,95.45Z"/><path id="art" class="cls-1" d="M209.14,73.2,166.95,48.85a4.91,4.91,0,0,0-4.82,0L119.94,73.2a4.86,4.86,0,0,0-2.41,4.22v48.7a4.81,4.81,0,0,0,2.41,4.1l42.19,24.35a4.91,4.91,0,0,0,4.82,0l42.19-24.35a4.86,4.86,0,0,0,2.41-4.22V77.41A4.76,4.76,0,0,0,209.14,73.2Zm-5.67,48.21L188.77,113V90.55L167.07,103v25.19L186.48,117l14.71,8.44-36.4,21.09-36.4-21.09L143.08,117l19.41,11.21V103.09l-21.7-12.42V113l-14.71,8.44V79.34l36.4-21.09v17L143.08,86.45l21.7,12.42,21.7-12.42L167.07,75.24v-17l36.4,21.09Z"/><g id="gcb"><g id="google-cloud-build-2"><g id="Group"><path id="Shape" class="cls-2" d="M271.86,91.61,225.3,10.39A20.27,20.27,0,0,0,207.89,0h-93a20.37,20.37,0,0,0-17.4,10.39L50.92,91.5a20.22,20.22,0,0,0,0,20.31l46.56,81.7a21.09,21.09,0,0,0,17.4,10.86h93a20.71,20.71,0,0,0,17.4-10.74l46.56-81.22A21.11,21.11,0,0,0,271.86,91.61Z"/><path id="Shape-2" class="cls-3" d="M262.45,128.68,205.9,71.9,161.45,57.26,117.12,72l26.69,26.8v1.77l-9.64-9.68-20.81,39.31,73.73,74h21a20.71,20.71,0,0,0,17.4-10.74Z"/><g id="Shape-3"><path class="cls-1" d="M161.45,124.91l19.64-11.33V90.79L174.5,87l-19.64,34.12ZM141.93,90.79v22.79l6.59,3.78,19.64-34-6.7-3.89Z"/><path class="cls-1" d="M157.69,131.64l-23.52-13.58V90.79l-20.93-12v51.47L157.69,156ZM137.93,84.18l23.52-13.69L185,84.18,205.9,72,161.45,46.28,117.12,72Zm50.92,6.61v27.27l-23.52,13.58V156l44.45-25.74V78.75Z"/></g></g></g></g><path d="M5.87,228.71a17.4,17.4,0,0,1,13-5.22q10.56,0,15.44,7a15.26,15.26,0,0,1,2.9,7.89H28.37a12,12,0,0,0-2.16-4.59,9.59,9.59,0,0,0-14.45,1.13,19,19,0,0,0-2.73,11q0,7.11,2.88,10.66a9,9,0,0,0,7.31,3.54,8.28,8.28,0,0,0,6.93-3,13.34,13.34,0,0,0,2.19-4.91h8.78a19.05,19.05,0,0,1-5.8,11.24,16.89,16.89,0,0,1-12,4.33,18,18,0,0,1-14.19-5.85Q0,256,0,245.77q0-11.07,5.87-17.07Zm46.08,37.87H43.77V224.29h8.18ZM86,262.74q-4,4.89-12,4.89t-12-4.89a19.4,19.4,0,0,1,0-23.49q4-5,12-5t12,5A19.4,19.4,0,0,1,86,262.74Zm-6.54-4.52a14.6,14.6,0,0,0,0-14.48,7.27,7.27,0,0,0-11,0,14.5,14.5,0,0,0,0,14.48,7.24,7.24,0,0,0,11,0ZM104,235.3v18.85a9.92,9.92,0,0,0,.63,4,4.34,4.34,0,0,0,4.37,2.38,5.71,5.71,0,0,0,5.71-3.38,12.33,12.33,0,0,0,.8-4.85v-17h8.29v31.27H115.8v-4.42q-.11.14-.57.86a5.73,5.73,0,0,1-1.09,1.26,11.34,11.34,0,0,1-3.71,2.35,12.58,12.58,0,0,1-4.19.63q-6.92,0-9.33-5a19.16,19.16,0,0,1-1.34-8.12V235.3Zm44.32.5a9.92,9.92,0,0,1,3.59,3.46V224.34h8.29v42.23h-7.95v-4.33a11.53,11.53,0,0,1-4,4,11.19,11.19,0,0,1-5.57,1.26,11.62,11.62,0,0,1-9.22-4.43,17,17,0,0,1-3.74-11.37,19.57,19.57,0,0,1,3.69-12.59,12,12,0,0,1,9.85-4.59,10.08,10.08,0,0,1,5,1.25Zm2,22.28a11.41,11.41,0,0,0,1.81-6.68q0-5.74-2.9-8.2a6.23,6.23,0,0,0-4.13-1.49,5.74,5.74,0,0,0-5.26,2.71,14.62,14.62,0,0,0,0,13.65,5.77,5.77,0,0,0,5.18,2.6,6,6,0,0,0,5.28-2.58Zm65.82-29.29a10.76,10.76,0,0,1,1.94,6.45,9.41,9.41,0,0,1-2,6.22,10.1,10.1,0,0,1-3.22,2.41,9.42,9.42,0,0,1,4.88,3.73,11.19,11.19,0,0,1,1.65,6.2,12.36,12.36,0,0,1-1.88,6.74,11.65,11.65,0,0,1-7.77,5.45,29.26,29.26,0,0,1-6,.57H184.71V224.29h20.44q7.73.11,11,4.5Zm-23,2.84V241h10.28a8.49,8.49,0,0,0,4.47-1,4,4,0,0,0,1.72-3.72,3.79,3.79,0,0,0-2.27-3.9,15.93,15.93,0,0,0-5-.66Zm0,16.32v11.27h10.27a10,10,0,0,0,4.28-.75,5.32,5.32,0,0,0,2.78-5.28,4.54,4.54,0,0,0-2.69-4.53,10.72,10.72,0,0,0-4.23-.72Zm41.34-12.65v18.85a9.89,9.89,0,0,0,.63,4,4.34,4.34,0,0,0,4.37,2.38,5.7,5.7,0,0,0,5.71-3.38,12.31,12.31,0,0,0,.8-4.85v-17h8.29v31.27h-7.95v-4.42q-.11.14-.57.86a5.71,5.71,0,0,1-1.09,1.26,11.35,11.35,0,0,1-3.71,2.35,12.58,12.58,0,0,1-4.19.63q-6.92,0-9.32-5a19.13,19.13,0,0,1-1.35-8.12V235.3Zm36.15-3.73h-8.29V224h8.29Zm-8.29,3.73h8.29v31.27h-8.29Zm24.56,31.27h-8.18V224.29h8.18Zm24.55-30.77a9.92,9.92,0,0,1,3.59,3.46V224.34h8.29v42.23h-7.95v-4.33a11.53,11.53,0,0,1-4,4,11.19,11.19,0,0,1-5.57,1.26,11.62,11.62,0,0,1-9.22-4.43,17,17,0,0,1-3.74-11.37,19.57,19.57,0,0,1,3.69-12.59,12,12,0,0,1,9.85-4.59,10.08,10.08,0,0,1,5,1.25Zm2,22.28a11.41,11.41,0,0,0,1.81-6.68q0-5.74-2.9-8.2a6.23,6.23,0,0,0-4.13-1.49,5.74,5.74,0,0,0-5.26,2.71,14.62,14.62,0,0,0,0,13.65,5.77,5.77,0,0,0,5.18,2.6,6,6,0,0,0,5.28-2.58Z"/></g></g></svg>