<svg xmlns="http://www.w3.org/2000/svg" width="200" height="128"><defs><style>.cls-1{fill:#4285f4;}.cls-2{opacity:0.07;isolation:isolate;}.cls-3{fill:#fff;}.cls-4{fill:#767676;}</style></defs><path class="cls-1" d="M126.35,43.51,115.26,24.22a4.86,4.86,0,0,0-4.16-2.48H88.9a4.86,4.86,0,0,0-4.16,2.48L73.64,43.46a4.89,4.89,0,0,0,0,4.83l11.1,19.4a5,5,0,0,0,4.16,2.57h22.19a5,5,0,0,0,4.17-2.55l11.09-19.3A4.93,4.93,0,0,0,126.35,43.51Z"/><path class="cls-2" d="M109.06,40.32,93.8,41.72l-3,3,2.53,2.53L90.87,51.6l18.64,18.65h1.58a5,5,0,0,0,4.17-2.56L123,54.25Z"/><g id="art"><path class="cls-3" d="M108.73,40.2H91.25a.51.51,0,0,0-.53.5h0v3.62a.51.51,0,0,0,.51.51h17.5a.51.51,0,0,0,.51-.51V40.71a.51.51,0,0,0-.51-.51M106,43.58a1.05,1.05,0,1,1,1-1,1,1,0,0,1-1,1h0"/><path class="cls-3" d="M108.73,47.15H91.25a.51.51,0,0,0-.53.5V51.3a.52.52,0,0,0,.51.51h17.5a.52.52,0,0,0,.51-.51V47.66a.51.51,0,0,0-.51-.51M106,50.52a1,1,0,1,1,1-1,1,1,0,0,1-1,1h0"/></g><path class="cls-4" d="M81.09,89.59a6.7,6.7,0,0,1-3.33-.89,6.46,6.46,0,0,1-2.45-8.91,6.54,6.54,0,0,1,2.45-2.42,6.61,6.61,0,0,1,3.33-.9,6.32,6.32,0,0,1,4.49,1.81l-1.26,1.27a4.56,4.56,0,0,0-3.23-1.28,4.51,4.51,0,0,0-3.35,1.39,4.87,4.87,0,0,0,0,6.75,4.82,4.82,0,0,0,6.23.46,3.78,3.78,0,0,0,1.41-2.64H81.09V82.44h6a6.13,6.13,0,0,1,.1,1.12,5.76,5.76,0,0,1-1.73,4.37A6.11,6.11,0,0,1,81.09,89.59Zm15.25-4.22a4.18,4.18,0,1,1-1.24-3A4,4,0,0,1,96.34,85.37Zm-6.63,0a2.55,2.55,0,0,0,.69,1.82,2.3,2.3,0,0,0,3.38,0,2.56,2.56,0,0,0,.7-1.82,2.48,2.48,0,0,0-.69-1.82,2.31,2.31,0,0,0-3.39,0A2.48,2.48,0,0,0,89.71,85.37Zm15.87,0a4.17,4.17,0,1,1-1.23-3A4,4,0,0,1,105.58,85.37Zm-6.62,0a2.55,2.55,0,0,0,.69,1.82,2.23,2.23,0,0,0,1.69.74,2.19,2.19,0,0,0,1.68-.74,2.57,2.57,0,0,0,.71-1.82,2.48,2.48,0,0,0-.69-1.82,2.31,2.31,0,0,0-3.39,0A2.48,2.48,0,0,0,99,85.37Zm11.47,8a4.18,4.18,0,0,1-2.28-.7,4,4,0,0,1-.85-.78,4.38,4.38,0,0,1-.61-1l1.61-.67a2.71,2.71,0,0,0,.85,1.09,2.15,2.15,0,0,0,1.28.41c1.51,0,2.26-.88,2.26-2.65v-.44h-.07a2.72,2.72,0,0,1-2.22,1,3.91,3.91,0,0,1-2.85-1.23,4.13,4.13,0,0,1-1.2-3,4.18,4.18,0,0,1,1.2-3,3.85,3.85,0,0,1,2.85-1.24,2.74,2.74,0,0,1,2.22.94h.07V81.4h1.76V89a4.6,4.6,0,0,1-1.07,3.25A3.84,3.84,0,0,1,110.43,93.39Zm-2.22-8a2.56,2.56,0,0,0,.67,1.8,2.22,2.22,0,0,0,1.68.74,2.09,2.09,0,0,0,1.6-.72,2.87,2.87,0,0,0,0-3.66,2,2,0,0,0-1.6-.74,2.2,2.2,0,0,0-1.66.75A2.57,2.57,0,0,0,108.21,85.39Zm7.52-8.47h1.85V89.34h-1.85Zm6.94,12.67a4,4,0,0,1-3-1.21,4.13,4.13,0,0,1-1.2-3,4.25,4.25,0,0,1,1.14-3,3.76,3.76,0,0,1,2.84-1.2,3.53,3.53,0,0,1,2.21.74,4.24,4.24,0,0,1,.83.86,4.67,4.67,0,0,1,.58,1.08l.19.48-5.65,2.34a2.17,2.17,0,0,0,2,1.28,2.39,2.39,0,0,0,2.08-1.17l1.44,1A4,4,0,0,1,122.67,89.59Zm-.14-6.81a2.16,2.16,0,0,0-1.57.7,2.31,2.31,0,0,0-.64,1.76l3.78-1.57a1.32,1.32,0,0,0-.6-.64A1.85,1.85,0,0,0,122.53,82.78ZM60,106a5.67,5.67,0,0,1-4-9.6,5.33,5.33,0,0,1,4-1.63,5,5,0,0,1,3.95,1.76l-1,1A3.65,3.65,0,0,0,60,96.08a4.06,4.06,0,0,0-3,1.2,4.64,4.64,0,0,0,0,6.18,4.06,4.06,0,0,0,3,1.2,4.23,4.23,0,0,0,3.26-1.58l1,1a5.15,5.15,0,0,1-1.88,1.41A5.62,5.62,0,0,1,60,106Zm6.87-11v10.74H65.44V95ZM68,102.06a3.91,3.91,0,0,1,1.06-2.81,3.67,3.67,0,0,1,2.72-1.1,3.61,3.61,0,0,1,2.7,1.1,3.89,3.89,0,0,1,1.08,2.81,3.84,3.84,0,0,1-1.08,2.81,3.58,3.58,0,0,1-2.7,1.11,3.64,3.64,0,0,1-2.72-1.11A3.91,3.91,0,0,1,68,102.06Zm1.38,0a2.69,2.69,0,0,0,.69,1.92,2.35,2.35,0,0,0,3.42,0,2.69,2.69,0,0,0,.69-1.92,2.66,2.66,0,0,0-.69-1.9,2.32,2.32,0,0,0-3.42,0A2.66,2.66,0,0,0,69.39,102.06Zm13.81,3.68H81.88v-1h-.06a2.43,2.43,0,0,1-1,.9,2.76,2.76,0,0,1-1.35.36,2.7,2.7,0,0,1-2.08-.78,3,3,0,0,1-.73-2.2V98.39h1.38v4.53a1.63,1.63,0,0,0,1.82,1.8,1.74,1.74,0,0,0,1.38-.67,2.48,2.48,0,0,0,.55-1.6V98.39H83.2Zm4.68.24a3.2,3.2,0,0,1-2.47-1.15,4.27,4.27,0,0,1,0-5.54,3.29,3.29,0,0,1,4-.8,2.64,2.64,0,0,1,1,.92h.06l-.06-1V95h1.38v10.74H90.45v-1h-.06a2.62,2.62,0,0,1-1,.91A3.2,3.2,0,0,1,87.88,106Zm.23-1.26a2.11,2.11,0,0,0,1.66-.74,3,3,0,0,0,0-3.82,2.11,2.11,0,0,0-1.66-.75,2.16,2.16,0,0,0-1.67.75,3,3,0,0,0,0,3.81A2.16,2.16,0,0,0,88.11,104.72Zm15.06-1.85a2.81,2.81,0,0,1-1,2.27,4,4,0,0,1-2.55.84,3.74,3.74,0,0,1-2.35-.78,4,4,0,0,1-1.42-2.13l1.33-.54a3.4,3.4,0,0,0,.37.87,2.79,2.79,0,0,0,.56.66,2.53,2.53,0,0,0,.72.44,2.22,2.22,0,0,0,.82.16,2.44,2.44,0,0,0,1.55-.49,1.62,1.62,0,0,0,.59-1.3,1.54,1.54,0,0,0-.49-1.15,4.71,4.71,0,0,0-1.74-.9,16.11,16.11,0,0,1-1.6-.63,2.75,2.75,0,0,1-1.71-2.57,2.6,2.6,0,0,1,.94-2,3.46,3.46,0,0,1,2.35-.85,3.66,3.66,0,0,1,2.14.64,3,3,0,0,1,1.19,1.54l-1.29.54a1.85,1.85,0,0,0-.71-1,2.32,2.32,0,0,0-2.66.06,1.3,1.3,0,0,0-.55,1.09,1.26,1.26,0,0,0,.43,1,7.39,7.39,0,0,0,2.09,1,5.29,5.29,0,0,1,2.33,1.36A2.91,2.91,0,0,1,103.17,102.87Zm4,3a2.1,2.1,0,0,1-1.49-.56,2.08,2.08,0,0,1-.61-1.55v-4.1h-1.29V98.39H105V96.14h1.38v2.25h1.81v1.26H106.4v3.66a1.31,1.31,0,0,0,.29,1,.92.92,0,0,0,.64.27,1.86,1.86,0,0,0,.33,0l.29-.1.43,1.23A3.7,3.7,0,0,1,107.12,105.86Zm1.91-3.8a3.91,3.91,0,0,1,1.06-2.81,3.67,3.67,0,0,1,2.72-1.1,3.61,3.61,0,0,1,2.7,1.1,3.89,3.89,0,0,1,1.08,2.81,3.84,3.84,0,0,1-1.08,2.81,3.58,3.58,0,0,1-2.7,1.11,3.64,3.64,0,0,1-2.72-1.11A3.91,3.91,0,0,1,109,102.06Zm1.38,0a2.69,2.69,0,0,0,.69,1.92,2.35,2.35,0,0,0,3.42,0,2.69,2.69,0,0,0,.69-1.92,2.66,2.66,0,0,0-.69-1.9,2.32,2.32,0,0,0-3.42,0A2.66,2.66,0,0,0,110.41,102.06Zm8.67,3.68H117.7V98.39H119v1.19h.06a2,2,0,0,1,.86-1,2.36,2.36,0,0,1,1.29-.41,2.57,2.57,0,0,1,1,.18l-.42,1.33a2.26,2.26,0,0,0-.81-.11,1.74,1.74,0,0,0-1.35.64,2.07,2.07,0,0,0-.58,1.47Zm6.55-7.59a3.45,3.45,0,0,1,2.42.81,2.93,2.93,0,0,1,.89,2.25v4.53h-1.33v-1h-.06a2.63,2.63,0,0,1-2.28,1.26,2.93,2.93,0,0,1-2-.73,2.28,2.28,0,0,1-.82-1.79,2.19,2.19,0,0,1,.87-1.82,3.62,3.62,0,0,1,2.3-.67,4.05,4.05,0,0,1,2,.45v-.32a1.56,1.56,0,0,0-.57-1.22,1.92,1.92,0,0,0-1.33-.5,2.11,2.11,0,0,0-1.83,1l-1.21-.77A3.35,3.35,0,0,1,125.63,98.15Zm-1.78,5.34a1.09,1.09,0,0,0,.46.9,1.73,1.73,0,0,0,1.07.36,2.19,2.19,0,0,0,1.55-.65,2,2,0,0,0,.68-1.52,2.9,2.9,0,0,0-1.8-.5,2.34,2.34,0,0,0-1.4.4A1.22,1.22,0,0,0,123.85,103.49Zm9.83,5.73a4.33,4.33,0,0,1-1.16-.16,3.8,3.8,0,0,1-1-.44,3.33,3.33,0,0,1-.76-.68,2.85,2.85,0,0,1-.48-.87l1.3-.54a2.1,2.1,0,0,0,.79,1,2.17,2.17,0,0,0,1.29.39,2.27,2.27,0,0,0,1.75-.68,2.62,2.62,0,0,0,.63-1.86v-.7H136a2.72,2.72,0,0,1-1.06.92,3.18,3.18,0,0,1-1.44.34,3.26,3.26,0,0,1-2.48-1.13,4.07,4.07,0,0,1-1-2.79,4,4,0,0,1,1-2.77,3.24,3.24,0,0,1,2.48-1.14,3.17,3.17,0,0,1,1.44.33,2.74,2.74,0,0,1,1.06.93h.06v-1h1.32v7a3.8,3.8,0,0,1-1,2.78A3.68,3.68,0,0,1,133.68,109.22Zm0-4.5a2.13,2.13,0,0,0,1.67-.74,3.06,3.06,0,0,0,0-3.82,2.22,2.22,0,0,0-3.33,0,3,3,0,0,0,0,3.81A2.13,2.13,0,0,0,133.72,104.72Zm8.57,1.26a3.5,3.5,0,0,1-2.67-1.11,4,4,0,0,1-1.06-2.81,4,4,0,0,1,1-2.8,3.69,3.69,0,0,1,5.22-.06,4.28,4.28,0,0,1,1,3l0,.15H140a2.39,2.39,0,0,0,.71,1.74,2.33,2.33,0,0,0,1.66.66,2.3,2.3,0,0,0,2.07-1.32l1.23.6a3.71,3.71,0,0,1-1.38,1.45A3.79,3.79,0,0,1,142.29,106Zm-2.21-4.8h4.21a1.8,1.8,0,0,0-.62-1.27,2.14,2.14,0,0,0-1.5-.5,2,2,0,0,0-1.35.48A2.32,2.32,0,0,0,140.08,101.18Z"/></svg>