<svg xmlns="http://www.w3.org/2000/svg" width="200" height="128"><defs><style>.cls-1{fill:#4285f4;}.cls-2{opacity:0.07;isolation:isolate;}.cls-3{fill:#fff;}.cls-4{fill:#767676;}</style></defs><path class="cls-1" d="M126.35,43.51,115.26,24.22a4.86,4.86,0,0,0-4.16-2.48H88.9a4.86,4.86,0,0,0-4.16,2.48L73.64,43.46a4.89,4.89,0,0,0,0,4.83l11.1,19.4a5,5,0,0,0,4.16,2.57h22.19a5,5,0,0,0,4.17-2.55l11.09-19.3A4.93,4.93,0,0,0,126.35,43.51Z"/><path class="cls-2" d="M104.22,36.29l-4.4-.76-4,4.43,2.46,2.46-1.69,2L93.92,41.8l-5.1,2.93,1.47,5.48,20,20h.76a5,5,0,0,0,4.17-2.56l7.43-12.93Z"/><path class="cls-3" d="M106.25,46,100,52.24,93.75,46,100,39.75ZM100,50l4-4-4-4.05L96,46Z"/><polygon class="cls-3" points="106.02 50.2 109.71 50.2 113.92 45.99 109.71 41.79 106.02 41.79 110.23 45.99 106.02 50.2"/><polygon class="cls-3" points="95.79 52.02 95.79 55.71 100 59.91 104.2 55.71 104.2 52.02 100 56.22 95.79 52.02"/><polygon class="cls-3" points="100 32.07 95.79 36.28 95.79 39.97 100 35.76 104.2 39.97 104.2 36.28 100 32.07"/><polygon class="cls-3" points="93.97 41.79 90.28 41.79 86.08 45.99 90.28 50.2 93.97 50.2 89.77 45.99 93.97 41.79"/><path class="cls-4" d="M81.09,89.59a6.7,6.7,0,0,1-3.33-.89,6.46,6.46,0,0,1-2.45-8.91,6.54,6.54,0,0,1,2.45-2.42,6.61,6.61,0,0,1,3.33-.9,6.32,6.32,0,0,1,4.49,1.81l-1.26,1.27a4.56,4.56,0,0,0-3.23-1.28,4.51,4.51,0,0,0-3.35,1.39,4.87,4.87,0,0,0,0,6.75,4.82,4.82,0,0,0,6.23.46,3.78,3.78,0,0,0,1.41-2.64H81.09V82.44h6a6.13,6.13,0,0,1,.1,1.12,5.76,5.76,0,0,1-1.73,4.37A6.11,6.11,0,0,1,81.09,89.59Zm15.25-4.22a4.18,4.18,0,1,1-1.24-3A4,4,0,0,1,96.34,85.37Zm-6.63,0a2.55,2.55,0,0,0,.69,1.82,2.3,2.3,0,0,0,3.38,0,2.56,2.56,0,0,0,.7-1.82,2.48,2.48,0,0,0-.69-1.82,2.31,2.31,0,0,0-3.39,0A2.48,2.48,0,0,0,89.71,85.37Zm15.87,0a4.17,4.17,0,1,1-1.23-3A4,4,0,0,1,105.58,85.37Zm-6.62,0a2.55,2.55,0,0,0,.69,1.82,2.23,2.23,0,0,0,1.69.74,2.19,2.19,0,0,0,1.68-.74,2.57,2.57,0,0,0,.71-1.82,2.48,2.48,0,0,0-.69-1.82,2.31,2.31,0,0,0-3.39,0A2.48,2.48,0,0,0,99,85.37Zm11.47,8a4.18,4.18,0,0,1-2.28-.7,4,4,0,0,1-.85-.78,4.38,4.38,0,0,1-.61-1l1.61-.67a2.71,2.71,0,0,0,.85,1.09,2.15,2.15,0,0,0,1.28.41c1.51,0,2.26-.88,2.26-2.65v-.44h-.07a2.72,2.72,0,0,1-2.22,1,3.91,3.91,0,0,1-2.85-1.23,4.13,4.13,0,0,1-1.2-3,4.18,4.18,0,0,1,1.2-3,3.85,3.85,0,0,1,2.85-1.24,2.74,2.74,0,0,1,2.22.94h.07V81.4h1.76V89a4.6,4.6,0,0,1-1.07,3.25A3.84,3.84,0,0,1,110.43,93.39Zm-2.22-8a2.56,2.56,0,0,0,.67,1.8,2.22,2.22,0,0,0,1.68.74,2.09,2.09,0,0,0,1.6-.72,2.87,2.87,0,0,0,0-3.66,2,2,0,0,0-1.6-.74,2.2,2.2,0,0,0-1.66.75A2.57,2.57,0,0,0,108.21,85.39Zm7.52-8.47h1.85V89.34h-1.85Zm6.94,12.67a4,4,0,0,1-3-1.21,4.13,4.13,0,0,1-1.2-3,4.25,4.25,0,0,1,1.14-3,3.76,3.76,0,0,1,2.84-1.2,3.53,3.53,0,0,1,2.21.74,4.24,4.24,0,0,1,.83.86,4.67,4.67,0,0,1,.58,1.08l.19.48-5.65,2.34a2.17,2.17,0,0,0,2,1.28,2.39,2.39,0,0,0,2.08-1.17l1.44,1A4,4,0,0,1,122.67,89.59Zm-.14-6.81a2.16,2.16,0,0,0-1.57.7,2.31,2.31,0,0,0-.64,1.76l3.78-1.57a1.32,1.32,0,0,0-.6-.64A1.85,1.85,0,0,0,122.53,82.78ZM70.89,106a5.67,5.67,0,0,1-4-9.6,5.33,5.33,0,0,1,4-1.63,5,5,0,0,1,4,1.76l-1,1a3.67,3.67,0,0,0-3-1.39,4,4,0,0,0-3,1.2,4.61,4.61,0,0,0,0,6.18,4,4,0,0,0,3,1.2,4.22,4.22,0,0,0,3.26-1.58l1,1a5.12,5.12,0,0,1-1.87,1.41A5.67,5.67,0,0,1,70.89,106Zm6.87-11v10.74H76.38V95ZM79,102.06A3.91,3.91,0,0,1,80,99.25a3.67,3.67,0,0,1,2.72-1.1,3.61,3.61,0,0,1,2.7,1.1,3.89,3.89,0,0,1,1.08,2.81,3.84,3.84,0,0,1-1.08,2.81,3.58,3.58,0,0,1-2.7,1.11A3.64,3.64,0,0,1,80,104.87,3.91,3.91,0,0,1,79,102.06Zm1.38,0A2.69,2.69,0,0,0,81,104a2.35,2.35,0,0,0,3.42,0,2.69,2.69,0,0,0,.69-1.92,2.66,2.66,0,0,0-.69-1.9,2.32,2.32,0,0,0-3.42,0A2.66,2.66,0,0,0,80.33,102.06Zm13.81,3.68H92.82v-1h-.06a2.47,2.47,0,0,1-1,.9,2.8,2.8,0,0,1-1.36.36,2.71,2.71,0,0,1-2.08-.78,3.09,3.09,0,0,1-.73-2.2V98.39H89v4.53a1.63,1.63,0,0,0,1.82,1.8,1.74,1.74,0,0,0,1.38-.67,2.43,2.43,0,0,0,.55-1.6V98.39h1.38Zm4.68.24a3.2,3.2,0,0,1-2.47-1.15,4.27,4.27,0,0,1,0-5.54,3.22,3.22,0,0,1,2.47-1.14,3.16,3.16,0,0,1,1.48.34,2.57,2.57,0,0,1,1,.92h.06l-.06-1V95h1.38v10.74h-1.32v-1h-.06a2.55,2.55,0,0,1-1,.91A3.17,3.17,0,0,1,98.82,106Zm.23-1.26a2.11,2.11,0,0,0,1.66-.74,3,3,0,0,0,0-3.82,2.11,2.11,0,0,0-1.66-.75,2.16,2.16,0,0,0-1.67.75,3,3,0,0,0,0,3.81A2.16,2.16,0,0,0,99.05,104.72Zm9.06,1h-1.53l4-10.74h1.56l4,10.74h-1.53l-1-2.91h-4.51Zm3.27-9-1.76,4.85h3.57l-1.75-4.85Zm7.5,4.7v4.35H117.5V95h3.66a3.31,3.31,0,0,1,2.37.93,3.1,3.1,0,0,1,0,4.54,3.31,3.31,0,0,1-2.37.92Zm0-5.07v3.75h2.31a1.91,1.91,0,0,0,1.92-1.88,1.93,1.93,0,0,0-1.92-1.87Zm8.46,9.42H126V95h1.38Zm7.54-2a2,2,0,0,1-.84,1.62,3.64,3.64,0,0,1-4.06.08,3.25,3.25,0,0,1-1.2-1.52l1.23-.53a2.29,2.29,0,0,0,.79,1,1.93,1.93,0,0,0,1.13.37,2,2,0,0,0,1.1-.29.79.79,0,0,0,.44-.67c0-.47-.36-.82-1.08-1l-1.26-.31c-1.43-.36-2.14-1-2.14-2.07a1.92,1.92,0,0,1,.82-1.62,3.43,3.43,0,0,1,2.09-.6,3.38,3.38,0,0,1,1.76.46,2.51,2.51,0,0,1,1.1,1.25l-1.23.51a1.5,1.5,0,0,0-.68-.73,2.08,2.08,0,0,0-1.06-.26,1.74,1.74,0,0,0-1,.27.77.77,0,0,0-.43.66c0,.42.39.72,1.18.9l1.11.28C134.15,101.85,134.88,102.58,134.88,103.7Z"/></svg>