<svg xmlns="http://www.w3.org/2000/svg" width="200" height="128"><defs><style>.cls-1{fill:#4285f4;}.cls-2{opacity:0.07;isolation:isolate;}.cls-3{fill:#fff;}.cls-4{fill:#767676;}</style></defs><path class="cls-1" d="M126.37,43.51l-11.1-19.28a4.89,4.89,0,0,0-4.17-2.49H88.9a4.94,4.94,0,0,0-4.17,2.49L73.63,43.47a4.91,4.91,0,0,0,0,4.81l11.1,19.4a5,5,0,0,0,4.17,2.58h22.2a4.87,4.87,0,0,0,4.17-2.58l11.1-19.28A5.06,5.06,0,0,0,126.37,43.51Z"/><path class="cls-2" d="M111.43,37.1h-1.22V41l-3.92-3.88h-1.14V41l-3.88-3.88h-1.1V41L96.25,37.1H95.11V41L91.18,37.1H88.57V54.9l15.65,15.36h6.88a4.86,4.86,0,0,0,4.17-2.58l9.79-17Z"/><rect class="cls-3" x="93.71" y="37.1" width="2.49" height="17.8"/><rect class="cls-3" x="103.8" y="37.1" width="2.49" height="17.8"/><rect class="cls-3" x="98.73" y="37.1" width="2.49" height="17.8"/><rect class="cls-3" x="88.57" y="37.1" width="2.62" height="17.8"/><rect class="cls-3" x="108.82" y="37.1" width="2.62" height="17.8"/><path class="cls-4" d="M81.09,89.59a6.7,6.7,0,0,1-3.33-.89,6.46,6.46,0,0,1-2.45-8.91,6.54,6.54,0,0,1,2.45-2.42,6.61,6.61,0,0,1,3.33-.9,6.32,6.32,0,0,1,4.49,1.81l-1.26,1.27a4.56,4.56,0,0,0-3.23-1.28,4.51,4.51,0,0,0-3.35,1.39,4.87,4.87,0,0,0,0,6.75,4.82,4.82,0,0,0,6.23.46,3.78,3.78,0,0,0,1.41-2.64H81.09V82.44h6a6.13,6.13,0,0,1,.1,1.12,5.76,5.76,0,0,1-1.73,4.37A6.11,6.11,0,0,1,81.09,89.59Zm15.25-4.22a4.18,4.18,0,1,1-1.24-3A4,4,0,0,1,96.34,85.37Zm-6.63,0a2.55,2.55,0,0,0,.69,1.82,2.3,2.3,0,0,0,3.38,0,2.56,2.56,0,0,0,.7-1.82,2.48,2.48,0,0,0-.69-1.82,2.31,2.31,0,0,0-3.39,0A2.48,2.48,0,0,0,89.71,85.37Zm15.87,0a4.17,4.17,0,1,1-1.23-3A4,4,0,0,1,105.58,85.37Zm-6.62,0a2.55,2.55,0,0,0,.69,1.82,2.23,2.23,0,0,0,1.69.74,2.19,2.19,0,0,0,1.68-.74,2.57,2.57,0,0,0,.71-1.82,2.48,2.48,0,0,0-.69-1.82,2.31,2.31,0,0,0-3.39,0A2.48,2.48,0,0,0,99,85.37Zm11.47,8a4.18,4.18,0,0,1-2.28-.7,4,4,0,0,1-.85-.78,4.38,4.38,0,0,1-.61-1l1.61-.67a2.71,2.71,0,0,0,.85,1.09,2.15,2.15,0,0,0,1.28.41c1.51,0,2.26-.88,2.26-2.65v-.44h-.07a2.72,2.72,0,0,1-2.22,1,3.91,3.91,0,0,1-2.85-1.23,4.13,4.13,0,0,1-1.2-3,4.18,4.18,0,0,1,1.2-3,3.85,3.85,0,0,1,2.85-1.24,2.74,2.74,0,0,1,2.22.94h.07V81.4h1.76V89a4.6,4.6,0,0,1-1.07,3.25A3.84,3.84,0,0,1,110.43,93.39Zm-2.22-8a2.56,2.56,0,0,0,.67,1.8,2.22,2.22,0,0,0,1.68.74,2.09,2.09,0,0,0,1.6-.72,2.87,2.87,0,0,0,0-3.66,2,2,0,0,0-1.6-.74,2.2,2.2,0,0,0-1.66.75A2.57,2.57,0,0,0,108.21,85.39Zm7.52-8.47h1.85V89.34h-1.85Zm6.94,12.67a4,4,0,0,1-3-1.21,4.13,4.13,0,0,1-1.2-3,4.25,4.25,0,0,1,1.14-3,3.76,3.76,0,0,1,2.84-1.2,3.53,3.53,0,0,1,2.21.74,4.24,4.24,0,0,1,.83.86,4.67,4.67,0,0,1,.58,1.08l.19.48-5.65,2.34a2.17,2.17,0,0,0,2,1.28,2.39,2.39,0,0,0,2.08-1.17l1.44,1A4,4,0,0,1,122.67,89.59Zm-.14-6.81a2.16,2.16,0,0,0-1.57.7,2.31,2.31,0,0,0-.64,1.76l3.78-1.57a1.32,1.32,0,0,0-.6-.64A1.85,1.85,0,0,0,122.53,82.78ZM67.74,106a5.67,5.67,0,0,1-4-9.6,5.33,5.33,0,0,1,4-1.63,5,5,0,0,1,4,1.76l-1,1a3.67,3.67,0,0,0-3-1.39,4,4,0,0,0-3,1.2,4.61,4.61,0,0,0,0,6.18,4,4,0,0,0,3,1.2A4.22,4.22,0,0,0,71,103.08l1,1a5.12,5.12,0,0,1-1.87,1.41A5.67,5.67,0,0,1,67.74,106Zm6.87-11v10.74H73.23V95Zm1.19,7.06a3.91,3.91,0,0,1,1.06-2.81,3.67,3.67,0,0,1,2.72-1.1,3.61,3.61,0,0,1,2.7,1.1,3.89,3.89,0,0,1,1.08,2.81,3.84,3.84,0,0,1-1.08,2.81,3.58,3.58,0,0,1-2.7,1.11,3.64,3.64,0,0,1-2.72-1.11A3.91,3.91,0,0,1,75.8,102.06Zm1.38,0a2.69,2.69,0,0,0,.69,1.92,2.35,2.35,0,0,0,3.42,0,2.69,2.69,0,0,0,.69-1.92,2.66,2.66,0,0,0-.69-1.9,2.32,2.32,0,0,0-3.42,0A2.66,2.66,0,0,0,77.18,102.06ZM91,105.74H89.67v-1h-.06a2.47,2.47,0,0,1-1,.9,2.8,2.8,0,0,1-1.36.36,2.71,2.71,0,0,1-2.08-.78,3.09,3.09,0,0,1-.73-2.2V98.39h1.38v4.53a1.63,1.63,0,0,0,1.82,1.8,1.74,1.74,0,0,0,1.38-.67,2.43,2.43,0,0,0,.55-1.6V98.39H91Zm4.68.24a3.2,3.2,0,0,1-2.47-1.15,4.27,4.27,0,0,1,0-5.54,3.22,3.22,0,0,1,2.47-1.14,3.16,3.16,0,0,1,1.48.34,2.57,2.57,0,0,1,1,.92h.06l-.06-1V95h1.38v10.74H98.24v-1h-.06a2.55,2.55,0,0,1-1,.91A3.17,3.17,0,0,1,95.67,106Zm.23-1.26a2.11,2.11,0,0,0,1.66-.74,3,3,0,0,0,0-3.82,2.11,2.11,0,0,0-1.66-.75,2.16,2.16,0,0,0-1.67.75,3,3,0,0,0,0,3.81A2.16,2.16,0,0,0,95.9,104.72Zm11.94-8.4v9.42h-1.38V96.32h-3V95h7.38v1.32Zm5.86,1.83a3.45,3.45,0,0,1,2.42.81,2.92,2.92,0,0,1,.88,2.25v4.53h-1.32v-1h-.06a2.63,2.63,0,0,1-2.28,1.26,2.93,2.93,0,0,1-2-.73,2.28,2.28,0,0,1-.82-1.79,2.19,2.19,0,0,1,.87-1.82,3.62,3.62,0,0,1,2.3-.67,4.05,4.05,0,0,1,2,.45v-.32a1.56,1.56,0,0,0-.57-1.22,1.92,1.92,0,0,0-1.33-.5,2.11,2.11,0,0,0-1.83,1l-1.22-.77A3.38,3.38,0,0,1,113.7,98.15Zm-1.78,5.34a1.09,1.09,0,0,0,.46.9,1.73,1.73,0,0,0,1.07.36,2.19,2.19,0,0,0,1.55-.65,2,2,0,0,0,.68-1.52,2.9,2.9,0,0,0-1.8-.5,2.34,2.34,0,0,0-1.4.4A1.22,1.22,0,0,0,111.92,103.49Zm12.19.21a2,2,0,0,1-.84,1.62,3.64,3.64,0,0,1-4.06.08,3.25,3.25,0,0,1-1.2-1.52l1.23-.53a2.29,2.29,0,0,0,.79,1,1.93,1.93,0,0,0,1.13.37,2,2,0,0,0,1.1-.29.79.79,0,0,0,.44-.67c0-.47-.36-.82-1.08-1l-1.26-.31c-1.43-.36-2.14-1-2.14-2.07a1.92,1.92,0,0,1,.82-1.62,3.43,3.43,0,0,1,2.09-.6,3.38,3.38,0,0,1,1.76.46,2.51,2.51,0,0,1,1.1,1.25l-1.23.51a1.5,1.5,0,0,0-.68-.73,2.08,2.08,0,0,0-1.06-.26,1.74,1.74,0,0,0-1,.27.77.77,0,0,0-.43.66c0,.42.39.72,1.18.9l1.11.28C123.38,101.85,124.11,102.58,124.11,103.7Zm7.67,2h-1.67l-2.29-3.47-1.13,1.11v2.36h-1.38V95h1.38v6.61l3.18-3.22h1.77v.06l-2.86,2.84,3,4.39Zm6.25-2a2,2,0,0,1-.84,1.62,3.64,3.64,0,0,1-4.06.08,3.25,3.25,0,0,1-1.2-1.52l1.23-.53a2.34,2.34,0,0,0,.78,1,2.07,2.07,0,0,0,2.24.08.81.81,0,0,0,.44-.67c0-.47-.36-.82-1.08-1l-1.26-.31c-1.43-.36-2.14-1-2.14-2.07a1.92,1.92,0,0,1,.82-1.62,3.78,3.78,0,0,1,3.85-.14,2.56,2.56,0,0,1,1.1,1.25l-1.23.51a1.55,1.55,0,0,0-.68-.73,2.08,2.08,0,0,0-1.06-.26,1.74,1.74,0,0,0-1,.27.77.77,0,0,0-.43.66c0,.42.39.72,1.18.9l1.11.28C137.3,101.85,138,102.58,138,103.7Z"/></svg>