<svg xmlns="http://www.w3.org/2000/svg" viewBox="0 0 327.72 263.58">
	<defs>
		<style>
			.cls-1{fill:#3d82f3}
		</style>
	</defs>
	<g id="Layer_2" data-name="Layer 2">
		<g id="Layer_1-2" data-name="Layer 1">
			<path class="cls-1" d="M278.1 93.68c-3.12-7.56-9-12.06-17.3-13h-5c-8.38 1-14.51 5-17.65 13.12-10.3.12-20.6.49-30.9-.2q-7-11.86-14-23.71c-.95-1.6-2.1-3-.67-5.08 2.87-4.26 5.31-8.8 8.14-13.09 2.31-3.5 13-3.22 15.23.27 5.07 7.91 12.25 12.17 21.63 10.7 10-1.56 17.11-7.23 20.05-17.34a19.76 19.76 0 0 0-.08-8.12c-2.22-8.56-8.5-12.81-16.37-15.36a21.87 21.87 0 0 0-8.11 0c-8.13 1.11-13.21 6.08-16.61 13.16L201 35.2c-4 .13-6.63 2.16-8.64 5.48-3 5-6.34 9.77-9.24 14.81-1.58 2.74-3.52 3.63-6.61 3.51-6.33-.24-12.8-.85-19 .11-8.66 1.34-13.58-2.46-17.14-9.54a48.52 48.52 0 0 0-3.51-6.15c-2.62-3.73-5.51-7.23-10.36-8.21L111.11 35c-3.41-7.07-8.49-12-16.6-13.15a22.08 22.08 0 0 0-8.11 0c-8.94 2-14.79 7.07-16.49 16.34a19.33 19.33 0 0 0 0 7.13c1.98 9.68 8.15 15.34 17.45 17.24 9.08 1.86 15.93-2.55 20.83-9.83 1.68-2.5 3.36-3.07 6.13-3.4 6.22-.74 10.46 1.22 13 7a30.64 30.64 0 0 0 4.09 6.45c1.82 2.31 1.36 4.14-.12 6.46-5.14 8.07-10.07 16.28-15.07 24.44H89.43c-3.26-7.9-9.26-12.1-17.66-13h-5c-9.66.9-14.86 7.25-18.67 15.3v9.3c3.53 7.8 8.4 14.06 17.62 15.32h7.11c8-1.28 13.75-5.33 16.62-13.07h27.82c2.5 4.47 4.93 9 7.51 13.4 9 15.48 9.06 15.47-.55 30.35-.62 1-1 2.39-2.42 2.42-3.42.09-6.86.24-10.27 0-2.6-.16-3-3-4.38-4.55-5.9-6.93-13-10.39-22.22-8.24-8.61 2-14.19 7.15-16 16v7.11c1.72 9.23 7.54 14.35 16.43 16.39a27.27 27.27 0 0 0 9.15 0c7.5-1.6 12.65-6 15.6-13.05l16.43-.36c3.82-.3 6.14-2.68 8-5.75 3.08-5.15 6.28-10.23 9.19-15.48a5.93 5.93 0 0 1 6.07-3.5c8.41.21 16.84.3 25.24 0 3.83-.15 5.87 1.15 7.56 4.48a133.63 133.63 0 0 0 7.9 13.25c2.27 3.42 4.88 6.64 9.46 7.1l15.43.23c3.6 6.79 8.6 11.85 16.6 13.21a24.41 24.41 0 0 0 8.14 0c8.61-1.77 14.21-6.76 16.41-15.37a21.29 21.29 0 0 0-.05-9.14c-1.86-7.14-6.58-11.62-13.27-14.27l-2.66-.46c-7.41-2.7-18.47 1.57-23.38 9.69-1.53 2.52-3.3 2.7-5.79 3-6.52.9-10.73-1.43-13.1-7.58a25.08 25.08 0 0 0-3.72-6.15c-2-2.53-1.85-4.6-.14-7.36 5.13-8.3 9.92-16.81 14.84-25.24l29.88-.09c2.91 7.7 8.63 11.81 16.62 13a20.24 20.24 0 0 0 7.09 0c12.92-2.82 20.08-15.14 15.23-26.89Zm-70.66.32a1.55 1.55 0 0 1-.23-.39 2.63 2.63 0 0 0 .23.39Z"/>
			<path class="cls-1" d="M157.65 40a24.44 24.44 0 0 0 9.16 0c8.91-2 14.69-7.18 16.39-16.41v-6.06C182.06 6.76 171.84-.25 161.32 0c-10.1.25-19.09 8.44-20.21 17.94-1.24 10.39 5.31 19.12 16.54 22.06Z"/>
			<path class="cls-1" d="M183.18 179.73c-1.77-9.15-7.68-14.17-16.37-16.42a24.3 24.3 0 0 0-9.16 0c-13.89 2.77-21 17.16-13.75 29.52 4.65 8 12.06 11.75 21.75 10.25 9.5-1.47 15.67-7.81 17.59-17.3l-.07-6.06Z"/>
			<path d="M236.58 232.46a8.24 8.24 0 0 0-.06-.85v-.47h-4.41l-.14 2.61-.1-.07a1 1 0 0 1-.21-.17 8.56 8.56 0 0 0-6.87-3.16h-.34a10 10 0 0 0-8 4.4 12.55 12.55 0 0 0-.72 13.2 10 10 0 0 0 8.27 5.6 8.51 8.51 0 0 0 7.67-3.18.54.54 0 0 1 .22-.11c.45 4.27-.74 7.14-3.45 8.31-3.29 1.42-5.83.52-9-3.21l-.07-.08-4.55 1.91.12.15c.35.43.68.86 1 1.28a12.41 12.41 0 0 0 2 2.3 11.42 11.42 0 0 0 7.31 2.66 14.26 14.26 0 0 0 5.49-1.18c3.86-1.61 5.83-5 5.86-10s0-10.18 0-15.14q-.02-2.39-.02-4.8Zm-12.53 16.44a6.19 6.19 0 0 1-4.82-5.15 10.83 10.83 0 0 1-.13-1.22v-.23a7.78 7.78 0 0 1 2.7-6.3 6 6 0 0 1 5.38-.88 7.27 7.27 0 0 1 3.41 2.3c1.91 2.31 2 6.45.09 9a6.2 6.2 0 0 1-6.63 2.48Z"/>
			<path d="m180.09 240.77.63-.27c4.11-1.61 6.62-5.35 6.24-9.31-.46-4.75-3.63-8.1-8.08-8.53a72.87 72.87 0 0 0-8.73-.15c-1.29 0-2.63.06-4 .06h-.14v30.88h4.81V241.4h.46a5.46 5.46 0 0 0 1.1 0c1.44-.23 2.4.27 3.34 1.75 1.57 2.48 3.28 4.94 4.93 7.31l1.49 2.15c.31.45.64.88 1 .9.8 0 1.62.05 2.45.05h3l-8.81-12.68Zm-4-4H171v-9.75h2a37.32 37.32 0 0 1 4.75.08A4.7 4.7 0 0 1 182 232a5 5 0 0 1-4.64 4.79 6.24 6.24 0 0 1-.68 0Z"/>
			<path d="M28.74 252.84c-.11-.34-.21-.64-.32-.94l-.86-2.27q-4.47-11.77-8.95-23.54c-1.4-3.67-1.45-3.71-5.21-3.78h-.25a1.86 1.86 0 0 0-2 1.45c-2.57 6.83-5.15 13.76-7.73 20.46l-3 7.8c-.1.26-.18.53-.27.84l-.15.51-.06.18h4.4a1.28 1.28 0 0 0 1.35-1.06c.33-1 .69-2 1-3s.75-2.09 1.1-3.15a1.12 1.12 0 0 1 1.26-.94c4.06.05 7.41.05 10.56 0a1.32 1.32 0 0 1 1.49 1.09c.68 2.09 1.4 4.11 2.13 6a1.68 1.68 0 0 0 1.13 1c1 .08 2 .07 3.08.05H29l-.06-.19Zm-9.65-12.06H9.85l4.62-13.06Z"/>
			<path d="M205.49 231.36a10.77 10.77 0 0 0-10.47.57c-4.65 2.84-6.74 9.37-4.76 14.87a11.11 11.11 0 0 0 10.66 7.46 12.83 12.83 0 0 0 2.05-.17 10.94 10.94 0 0 0 8-5.73l.08-.13-3.71-1.77-.2-.09-.07.09c-2.28 3.12-5 4.11-8.39 3a6.42 6.42 0 0 1-4.31-6h17v-1.21a17 17 0 0 0 0-2.08 10.84 10.84 0 0 0-5.88-8.81Zm-10.81 8.28c.78-3.27 3.4-5.38 6.43-5.13a5.54 5.54 0 0 1 5.43 5.13Z"/>
			<path d="M104.32 230.78a17.74 17.74 0 0 0-5.2-.27 9.72 9.72 0 0 0-7.24 4.16l-.08.11 3.16 2.4.09-.07c3.35-2.8 6.16-3.4 8.85-1.88a4.41 4.41 0 0 1 2.24 4.91l-.19-.06-.87-.27a15.12 15.12 0 0 0-7.77-.38 7.59 7.59 0 0 0-6.2 6.11 7.33 7.33 0 0 0 3.41 7.46 8.88 8.88 0 0 0 4.56 1.25 9 9 0 0 0 6.48-2.73 5.24 5.24 0 0 1 .47-.42l.16-.13.16 2.51h4.48v-4.87c0-3.59.09-7.3-.11-10.92s-2.62-6.18-6.4-6.91Zm1.89 14.22a6.2 6.2 0 0 1-2.71 4.2 6.08 6.08 0 0 1-4.83.84 3.53 3.53 0 0 1-2.76-3.04 3.45 3.45 0 0 1 2.38-3.68 12.53 12.53 0 0 1 2-.42l1.14-.18 1.1.28 2.83.73c.74.14.97.52.85 1.27Z"/>
			<path d="M327.51 231h-3.93c-.86 0-1.29.39-1.59 1.13-1.38 3.49-2.82 7-4.21 10.44l-.93 2.29c-.11.27-.23.54-.4.9l-.2.43-.24-.52c-.18-.4-.32-.7-.44-1l-1.38-3.29c-1.25-3-2.54-6.08-3.84-9.1-.2-.47-.7-1.15-1.18-1.19A27.79 27.79 0 0 0 306 231h-1.5l.08.19.22.56c.13.32.23.58.34.83.66 1.5 1.32 3 1.95 4.51 1.53 3.58 3.11 7.27 4.89 10.8 1.59 3.14 1.57 5.62-.07 8.27a30.9 30.9 0 0 0-2.08 4.32c-.29.69-.59 1.39-.91 2.1l-.09.2h4.02c.82 0 1.29-.37 1.68-1.27 3.08-7.18 6.25-14.48 9.31-21.53l3.16-7.18c.14-.32.26-.64.4-1l.22-.57.08-.19Z"/>
			<path d="M266.35 242a17.29 17.29 0 0 0-3.58-1.51l-.57-.19c-.7-.24-1.43-.44-2.13-.63s-1.62-.44-2.41-.73-1.9-1.12-1.56-2.22a3.4 3.4 0 0 1 1.87-1.91 5.28 5.28 0 0 1 6.57 2.18l.07.1 4.05-1.87-.07-.13c-1.39-2.78-3.75-4.3-7.21-4.63-2.72-.26-6.64-.2-9.18 3.32a5.58 5.58 0 0 0 1.05 7.62 17 17 0 0 0 4.39 2.17l.25.1a24.17 24.17 0 0 0 2.55.76c.71.18 1.45.37 2.15.62a2.3 2.3 0 0 1 1.76 2.47c-.12 1.28-1.07 1.76-2.08 2.09-3.06 1-5.23.09-7.76-3.18l-.07-.09-4.17 1.81.06.13a9.07 9.07 0 0 0 7.6 5.78 20.29 20.29 0 0 0 2.44.16 9.1 9.1 0 0 0 7.55-3.33 6 6 0 0 0 1.25-4.76 6.09 6.09 0 0 0-2.82-4.13Z"/>
			<path d="M131.48 246.27a8 8 0 0 1-5.42 3.5 6.07 6.07 0 0 1-4.75-1.6 7.71 7.71 0 0 1-2.4-5.67 7.84 7.84 0 0 1 2.18-5.87 6 6 0 0 1 4.59-1.84c2 .13 3.95 1.32 5.64 3.44l.07.08 4.12-1.67v-.13c-1.72-4.64-6.5-7-12.18-5.91-5.92 1.09-9.49 6.1-9.1 12.75.33 5.72 4.59 10.35 9.9 10.79q.65.05 1.27.05c5.06 0 9.22-2.49 10.15-6.19v-.12l-4-1.7Z"/>
			<path d="M89.42 222.42a9.27 9.27 0 0 0-7.74 1.07 6.86 6.86 0 0 0-2.79 5.44v2.17h-3.95v4.24h4v18.15h4.78v-18.24h5.38V231h-5.35c-.15-1.31-.18-2.47.72-3.38 1.38-1.41 3-1 4.69-.64l.75.17h.17v-3.58c-.08-.41-.32-1.06-.66-1.15Z"/>
			<path d="M62 249.15v-.2l-.19.07-.52.2a7.1 7.1 0 0 1-.83.29 3.63 3.63 0 0 1-3.06-.36 2.12 2.12 0 0 1-.84-1.69c-.1-2.84-.08-5.64-.06-8.6v-3.53h5.2V231h-5.33v-6H51.5v6.06h-3.73v4.22h3.79v12.31a6.49 6.49 0 0 0 2.44 5.32 7.1 7.1 0 0 0 4.29 1.29 10.74 10.74 0 0 0 2.78-.38 1.49 1.49 0 0 0 .86-1.1c.07-.82.06-1.64 0-2.51.07-.35.07-.7.07-1.06Z"/>
			<path d="M284.51 249.21a7.07 7.07 0 0 1-.83.29 3.47 3.47 0 0 1-3-.36 2.8 2.8 0 0 1-1-2.28c-.05-2.67 0-5.3 0-8.08v-3.42H285V231h-5.39v-5.93h-4.86v6h-3.69v4.29h3.6l.06.14a.54.54 0 0 1 .05.14v11.13c0 2.6.68 4.54 2 5.76a7.18 7.18 0 0 0 5.1 1.66h.75c2.39-.13 2.59-.32 2.59-2.63V249H285Z"/>
			<path d="M151.64 249.14v-.2l-.59.21-.45.16a3.68 3.68 0 0 1-3.33-.08 3.54 3.54 0 0 1-1.18-3v-10.96h5.31V231h-5.33v-6h-4.88v6.05h-3.74v4.21h3.78v5.03c0 2.43 0 4.94.06 7.41a6.37 6.37 0 0 0 2.41 5.16 7.13 7.13 0 0 0 4.29 1.29 10.57 10.57 0 0 0 2.76-.38 1.37 1.37 0 0 0 .86-1c.06-.85.05-1.72 0-2.63.03-.26.03-.63.03-1Z"/>
			<path d="M301.66 230.48a7.4 7.4 0 0 0-7.48 3 5 5 0 0 1-.42.48l-.19.21v-3.13h-4.46v22.39h4.75v-11.99a5.86 5.86 0 0 1 7.84-6l.65.13.44.08h.17v-3.59a1.31 1.31 0 0 0-1.3-1.58Z"/>
			<path d="M44.63 230.51a7.43 7.43 0 0 0-7.48 2.74l-.54.7-.15.2-.18-3h-4.35v22.33h4.68v-10.25a18.26 18.26 0 0 1 .24-3.48 5.71 5.71 0 0 1 2.44-3.81 5.91 5.91 0 0 1 4.63-.64l1.82.43v-3.8a1.18 1.18 0 0 0-1.11-1.42Z"/>
			<path d="M66.45 231.09h4.63v22.36h-4.63z"/>
			<path d="M241.92 231.11h4.63v22.36h-4.63z"/>
			<path d="M244.27 221.55a3.22 3.22 0 0 0-2.26 1 3.2 3.2 0 0 0 .07 4.64 3.21 3.21 0 0 0 2.2.92h.07a3.25 3.25 0 0 0 2.25-1 3.24 3.24 0 0 0-2.32-5.5Z"/>
			<path d="M68.78 221.55a3.27 3.27 0 0 0-.1 6.53h.11a3.14 3.14 0 0 0 2.16-.89 3.24 3.24 0 0 0 .1-4.66 3.17 3.17 0 0 0-2.27-.98Z"/>
		</g>
	</g>
</svg>
