<svg xmlns="http://www.w3.org/2000/svg" width="200" height="128">
    <path d="M126.35 43.51l-11.09-19.29a4.86 4.86 0 00-4.16-2.48H88.9a4.86 4.86 0 00-4.16 2.48l-11.1 19.24a4.89 4.89 0 000 4.83l11.1 19.4a5 5 0 004.16 2.57h22.19a5 5 0 004.17-2.55l11.09-19.3a4.93 4.93 0 000-4.9z" fill="#4285f4"/>
    <path d="M109.14 39.45l-.89 1.73-1.73-1.73-8-2.74-5.11 2.74 9.15 9.16-1.5 1.1L97.37 46h-9.56l-.89 2.62 21.63 21.64h2.53a4.94 4.94 0 004.16-2.56l8.08-14z" style="isolation:isolate" opacity=".07"/>
    <path d="M109.14 48.61v3.92L102.6 46l6.54-6.53v3.92h3.94v5.23zm-18.3-5.24h-3.92v5.24h3.92v3.92L97.37 46l-6.53-6.54zm11.76 9.16v-3.92h-5.23v3.92h-3.92l6.55 6.54 6.52-6.54zm0-13.08v3.92h-5.23v-3.91h-3.92l6.55-6.54 6.52 6.54z" fill="#fff" data-name="24 router"/>
    <path d="M81.09 89.59a6.7 6.7 0 01-3.33-.89 6.46 6.46 0 01-2.45-8.91 6.54 6.54 0 012.45-2.42 6.61 6.61 0 013.33-.9 6.32 6.32 0 014.49 1.81l-1.26 1.27a4.56 4.56 0 00-3.23-1.28 4.51 4.51 0 00-3.35 1.39 4.87 4.87 0 000 6.75 4.82 4.82 0 006.23.46 3.78 3.78 0 001.41-2.64h-4.29v-1.79h6a6.13 6.13 0 01.1 1.12 5.76 5.76 0 01-1.73 4.37 6.11 6.11 0 01-4.37 1.66zm15.25-4.22a4.18 4.18 0 11-1.24-3 4 4 0 011.24 3zm-6.63 0a2.55 2.55 0 00.69 1.82 2.3 2.3 0 003.38 0 2.56 2.56 0 00.7-1.82 2.48 2.48 0 00-.69-1.82 2.31 2.31 0 00-3.39 0 2.48 2.48 0 00-.69 1.82zm15.87 0a4.17 4.17 0 11-1.23-3 4 4 0 011.23 3zm-6.62 0a2.55 2.55 0 00.69 1.82 2.23 2.23 0 001.69.74 2.19 2.19 0 001.68-.74 2.57 2.57 0 00.71-1.82 2.48 2.48 0 00-.69-1.82 2.31 2.31 0 00-3.39 0 2.48 2.48 0 00-.65 1.82zm11.47 8a4.18 4.18 0 01-2.28-.7 4 4 0 01-.85-.78 4.38 4.38 0 01-.61-1l1.61-.67a2.71 2.71 0 00.85 1.09 2.15 2.15 0 001.28.41c1.51 0 2.26-.88 2.26-2.65v-.44h-.07a2.72 2.72 0 01-2.22 1 3.91 3.91 0 01-2.85-1.23 4.13 4.13 0 01-1.2-3 4.18 4.18 0 011.2-3 3.85 3.85 0 012.85-1.24 2.74 2.74 0 012.22.94h.07v-.7h1.76V89a4.6 4.6 0 01-1.07 3.25 3.84 3.84 0 01-2.95 1.14zm-2.22-8a2.56 2.56 0 00.67 1.8 2.22 2.22 0 001.68.74 2.09 2.09 0 001.6-.72 2.87 2.87 0 000-3.66 2 2 0 00-1.6-.74 2.2 2.2 0 00-1.66.75 2.57 2.57 0 00-.69 1.85zm7.52-8.47h1.85v12.44h-1.85zm6.94 12.67a4 4 0 01-3-1.21 4.13 4.13 0 01-1.2-3 4.25 4.25 0 011.14-3 3.76 3.76 0 012.84-1.2 3.53 3.53 0 012.21.74 4.24 4.24 0 01.83.86 4.67 4.67 0 01.58 1.08l.19.48-5.65 2.34a2.17 2.17 0 002 1.28 2.39 2.39 0 002.08-1.17l1.44 1a4 4 0 01-3.46 1.82zm-.14-6.81a2.16 2.16 0 00-1.57.7 2.31 2.31 0 00-.64 1.76l3.78-1.57a1.32 1.32 0 00-.6-.64 1.85 1.85 0 00-.97-.23zM63.21 106a5.67 5.67 0 01-4-9.6 5.33 5.33 0 014-1.63 5 5 0 013.94 1.76l-1 1a3.65 3.65 0 00-2.95-1.39 4.06 4.06 0 00-3 1.2 4.64 4.64 0 000 6.18 4.06 4.06 0 003 1.2 4.2 4.2 0 003.25-1.58l1 1a5.15 5.15 0 01-1.88 1.41 5.62 5.62 0 01-2.36.45zm6.87-11v10.74H68.7V95zm1.18 7.06a3.92 3.92 0 011.07-2.81 3.65 3.65 0 012.67-1.1 3.61 3.61 0 012.7 1.1 3.89 3.89 0 011.08 2.81 3.84 3.84 0 01-1.08 2.81A3.58 3.58 0 0175 106a3.62 3.62 0 01-2.71-1.11 3.92 3.92 0 01-1.03-2.83zm1.38 0a2.69 2.69 0 00.69 1.92 2.35 2.35 0 003.42 0 2.69 2.69 0 00.69-1.92 2.66 2.66 0 00-.69-1.9 2.32 2.32 0 00-3.42 0 2.66 2.66 0 00-.69 1.9zm13.82 3.68h-1.32v-1h-.06a2.5 2.5 0 01-1 .9 2.8 2.8 0 01-1.36.36 2.71 2.71 0 01-2.08-.78A3.09 3.09 0 0180 103v-4.61h1.38v4.53a1.62 1.62 0 001.81 1.8 1.74 1.74 0 001.38-.67 2.44 2.44 0 00.56-1.6v-4.06h1.38zm4.68.24a3.22 3.22 0 01-2.48-1.15 4.27 4.27 0 010-5.54 3.24 3.24 0 012.48-1.14 3.12 3.12 0 011.47.34 2.57 2.57 0 011 .92h.06l-.06-1V95H95v10.74h-1.3v-1h-.06a2.55 2.55 0 01-1 .91 3.13 3.13 0 01-1.5.35zm.22-1.26A2.13 2.13 0 0093 104a3.06 3.06 0 000-3.82 2.22 2.22 0 00-3.33 0 3 3 0 000 3.81 2.14 2.14 0 001.69.73zm10.26 1h-1.38V95h3.66a3.34 3.34 0 012.38.92 3 3 0 011 2.27 2.93 2.93 0 01-.73 2 3.18 3.18 0 01-1.83 1.11l3 4.37v.06H106l-2.89-4.35h-1.53zm0-9.42v3.78h2.22a2 2 0 001.43-.55 1.88 1.88 0 00-1.34-3.23zm6.48 5.74a3.92 3.92 0 011.07-2.81 3.65 3.65 0 012.71-1.1 3.61 3.61 0 012.7 1.1 3.89 3.89 0 011.08 2.81 3.84 3.84 0 01-1.08 2.81 3.58 3.58 0 01-2.7 1.11 3.62 3.62 0 01-2.71-1.11 3.92 3.92 0 01-1.07-2.79zm1.38 0a2.69 2.69 0 00.69 1.92 2.35 2.35 0 003.42 0 2.69 2.69 0 00.69-1.92 2.66 2.66 0 00-.69-1.9 2.32 2.32 0 00-3.42 0 2.66 2.66 0 00-.69 1.92zm13.82 3.68H122v-1h-.06a2.5 2.5 0 01-1 .9 2.8 2.8 0 01-1.36.36 2.71 2.71 0 01-2.08-.78 3.09 3.09 0 01-.72-2.2v-4.61h1.38v4.53a1.62 1.62 0 001.81 1.8 1.74 1.74 0 001.38-.67 2.44 2.44 0 00.56-1.6v-4.06h1.38zm4.66.12a2.09 2.09 0 01-1.49-.56 2 2 0 01-.61-1.55v-4.1h-1.29v-1.24h1.29v-2.25h1.38v2.25H129v1.26h-1.8v3.66a1.32 1.32 0 00.28 1 .92.92 0 00.65.27 1.65 1.65 0 00.32 0l.3-.1.43 1.23a3.7 3.7 0 01-1.18.15zm5.63.12a3.52 3.52 0 01-2.67-1.11 4 4 0 01-1-2.81 4 4 0 011-2.8 3.68 3.68 0 015.21-.06 4.28 4.28 0 011 3v.15h-5.77a2.39 2.39 0 00.72 1.74 2.33 2.33 0 003.72-.66l1.23.6a3.64 3.64 0 01-1.38 1.45 3.76 3.76 0 01-2.06.54zm-2.21-4.8h4.22a1.81 1.81 0 00-.63-1.27 2.13 2.13 0 00-1.5-.5 2 2 0 00-1.35.48 2.32 2.32 0 00-.74 1.31zm8.33 4.56h-1.38v-7.33h1.32v1.19h.06a2 2 0 01.86-1 2.33 2.33 0 011.28-.41 2.59 2.59 0 011 .18l-.42 1.33a2.26 2.26 0 00-.81-.11 1.78 1.78 0 00-1.36.64 2.1 2.1 0 00-.57 1.47z" fill="#767676"/>
</svg>
