<svg xmlns="http://www.w3.org/2000/svg" width="200" height="128">
    <path d="M126.35 43.51l-11.09-19.29a4.86 4.86 0 00-4.16-2.48H88.9a4.86 4.86 0 00-4.16 2.48l-11.1 19.24a4.89 4.89 0 000 4.83l11.1 19.4a5 5 0 004.16 2.57h22.19a5 5 0 004.17-2.55l11.09-19.3a4.93 4.93 0 000-4.9z" fill="#4285f4"/>
    <path d="M110.81 39.43L100 34.6l-10.34 5.62-.42 12.37 17.65 17.66h4.22a4.94 4.94 0 004.16-2.56L124 52.57z" style="isolation:isolate" opacity=".07"/>
    <path d="M110.54 39.24l-10-5.77a1.16 1.16 0 00-1.14 0l-10 5.77a1.15 1.15 0 00-.57 1v11.52a1.13 1.13 0 00.57 1l10 5.77a1.11 1.11 0 001.14 0l10-5.77a1.12 1.12 0 00.57-1V40.23a1.13 1.13 0 00-.57-.99zm-1.35 11.42l-3.49-2v-5.3l-5.15 3v6l4.59-2.65 3.49 2-8.63 5-8.63-5 3.48-2 4.59 2.65v-6.05l-5.15-3v5.28l-3.48 2v-10l8.63-5v4l-4.59 2.65 5.15 3 5.14-3-4.59-2.65v-4l8.64 5z" fill="#fff"/>
    <path d="M81.09 89.59a6.7 6.7 0 01-3.33-.89 6.46 6.46 0 01-2.45-8.91 6.54 6.54 0 012.45-2.42 6.61 6.61 0 013.33-.9 6.32 6.32 0 014.49 1.81l-1.26 1.27a4.56 4.56 0 00-3.23-1.28 4.51 4.51 0 00-3.35 1.39 4.87 4.87 0 000 6.75 4.82 4.82 0 006.23.46 3.78 3.78 0 001.41-2.64h-4.29v-1.79h6a6.13 6.13 0 01.1 1.12 5.76 5.76 0 01-1.73 4.37 6.11 6.11 0 01-4.37 1.66zm15.25-4.22a4.18 4.18 0 11-1.24-3 4 4 0 011.24 3zm-6.63 0a2.55 2.55 0 00.69 1.82 2.3 2.3 0 003.38 0 2.56 2.56 0 00.7-1.82 2.48 2.48 0 00-.69-1.82 2.31 2.31 0 00-3.39 0 2.48 2.48 0 00-.69 1.82zm15.87 0a4.17 4.17 0 11-1.23-3 4 4 0 011.23 3zm-6.62 0a2.55 2.55 0 00.69 1.82 2.23 2.23 0 001.69.74 2.19 2.19 0 001.68-.74 2.57 2.57 0 00.71-1.82 2.48 2.48 0 00-.69-1.82 2.31 2.31 0 00-3.39 0 2.48 2.48 0 00-.65 1.82zm11.47 8a4.18 4.18 0 01-2.28-.7 4 4 0 01-.85-.78 4.38 4.38 0 01-.61-1l1.61-.67a2.71 2.71 0 00.85 1.09 2.15 2.15 0 001.28.41c1.51 0 2.26-.88 2.26-2.65v-.44h-.07a2.72 2.72 0 01-2.22 1 3.91 3.91 0 01-2.85-1.23 4.13 4.13 0 01-1.2-3 4.18 4.18 0 011.2-3 3.85 3.85 0 012.85-1.24 2.74 2.74 0 012.22.94h.07v-.7h1.76V89a4.6 4.6 0 01-1.07 3.25 3.84 3.84 0 01-2.95 1.14zm-2.22-8a2.56 2.56 0 00.67 1.8 2.22 2.22 0 001.68.74 2.09 2.09 0 001.6-.72 2.87 2.87 0 000-3.66 2 2 0 00-1.6-.74 2.2 2.2 0 00-1.66.75 2.57 2.57 0 00-.69 1.85zm7.52-8.47h1.85v12.44h-1.85zm6.94 12.67a4 4 0 01-3-1.21 4.13 4.13 0 01-1.2-3 4.25 4.25 0 011.14-3 3.76 3.76 0 012.84-1.2 3.53 3.53 0 012.21.74 4.24 4.24 0 01.83.86 4.67 4.67 0 01.58 1.08l.19.48-5.65 2.34a2.17 2.17 0 002 1.28 2.39 2.39 0 002.08-1.17l1.44 1a4 4 0 01-3.46 1.82zm-.14-6.81a2.16 2.16 0 00-1.57.7 2.31 2.31 0 00-.64 1.76l3.78-1.57a1.32 1.32 0 00-.6-.64 1.85 1.85 0 00-.97-.23zM50.23 106a5.67 5.67 0 01-4-9.6 5.33 5.33 0 014-1.63 5 5 0 014 1.76l-1 1a3.67 3.67 0 00-3-1.39 4 4 0 00-3 1.2 4.61 4.61 0 000 6.18 4 4 0 003 1.2 4.22 4.22 0 003.26-1.58l1 1a5.12 5.12 0 01-1.87 1.41 5.67 5.67 0 01-2.39.45zm4.92-3.92a3.92 3.92 0 011.07-2.81 3.65 3.65 0 012.71-1.1 3.61 3.61 0 012.7 1.1 3.89 3.89 0 011.08 2.81 3.84 3.84 0 01-1.08 2.81 3.58 3.58 0 01-2.7 1.11 3.62 3.62 0 01-2.71-1.11 3.92 3.92 0 01-1.07-2.83zm1.38 0a2.69 2.69 0 00.69 1.92 2.35 2.35 0 003.42 0 2.69 2.69 0 00.69-1.92 2.66 2.66 0 00-.69-1.9 2.32 2.32 0 00-3.42 0 2.66 2.66 0 00-.69 1.88zm7.29-3.67h1.32v1h.06a2.45 2.45 0 011-.91 2.87 2.87 0 011.36-.35 2.67 2.67 0 012.07.77 3.06 3.06 0 01.73 2.2v4.62H69v-4.53a1.61 1.61 0 00-1.81-1.8 1.73 1.73 0 00-1.38.66 2.44 2.44 0 00-.56 1.6v4.07h-1.43zm10.67 7.47a2.13 2.13 0 01-1.5-.56 2.07 2.07 0 01-.6-1.55v-4.1H71.1v-1.28h1.29v-2.25h1.38v2.25h1.8v1.26h-1.8v3.66a1.32 1.32 0 00.28 1 .92.92 0 00.65.27 1.75 1.75 0 00.32 0l.29-.1.44 1.23a3.7 3.7 0 01-1.26.15zm5-7.71a3.43 3.43 0 012.41.81 2.93 2.93 0 01.89 2.25v4.53h-1.28v-1h-.06a2.63 2.63 0 01-2.28 1.24 3 3 0 01-2-.73 2.27 2.27 0 01-.81-1.79 2.18 2.18 0 01.86-1.82 3.62 3.62 0 012.3-.67 4.09 4.09 0 012 .45v-.32a1.56 1.56 0 00-.57-1.22 1.94 1.94 0 00-1.34-.5 2.11 2.11 0 00-1.83 1l-1.21-.77a3.38 3.38 0 012.96-1.48zm-1.79 5.34a1.09 1.09 0 00.46.9 1.73 1.73 0 001.07.36 2.19 2.19 0 001.55-.65 2 2 0 00.69-1.52 2.9 2.9 0 00-1.8-.5 2.37 2.37 0 00-1.41.4 1.22 1.22 0 00-.52.99zm8.43-7.64a1 1 0 11-.28-.69.94.94 0 01.32.67zm-.28 2.54v7.35h-1.34v-7.37zm1.8 0H89v1h.06a2.49 2.49 0 011-.91 2.9 2.9 0 011.36-.35 2.71 2.71 0 012.08.77 3.1 3.1 0 01.73 2.2v4.62h-1.41v-4.53a1.62 1.62 0 00-1.82-1.8 1.73 1.73 0 00-1.38.66 2.43 2.43 0 00-.55 1.6v4.07h-1.38zM99.12 106a3.52 3.52 0 01-2.67-1.11 4 4 0 01-1-2.81 4 4 0 011-2.8 3.68 3.68 0 015.21-.06 4.28 4.28 0 011 3v.15h-5.85a2.39 2.39 0 00.72 1.74 2.33 2.33 0 003.72-.66l1.23.6a3.64 3.64 0 01-1.38 1.45 3.76 3.76 0 01-1.98.5zm-2.21-4.8h4.22a1.81 1.81 0 00-.63-1.27 2.13 2.13 0 00-1.5-.5 2 2 0 00-1.35.48 2.32 2.32 0 00-.74 1.27zm8.33 4.56h-1.38v-7.37h1.32v1.19h.06a2 2 0 01.86-1 2.33 2.33 0 011.28-.41 2.59 2.59 0 011 .18l-.38 1.34a2.26 2.26 0 00-.81-.11 1.78 1.78 0 00-1.36.64 2.1 2.1 0 00-.57 1.47zM119.11 95v1.32h-4.89v3.4h4.41V101h-4.41v3.41h4.89v1.32h-6.27V95zm1.47 3.39h1.32v1h.1a2.45 2.45 0 011-.91 2.84 2.84 0 011.36-.35 2.67 2.67 0 012.07.77 3.06 3.06 0 01.73 2.2v4.62h-1.38v-4.53a1.61 1.61 0 00-1.81-1.8 1.73 1.73 0 00-1.38.66 2.44 2.44 0 00-.56 1.6v4.07h-1.38zm11.31 10.83a4.26 4.26 0 01-1.15-.16 4 4 0 01-1-.44 3.5 3.5 0 01-.75-.68 2.85 2.85 0 01-.48-.87l1.3-.54a2.08 2.08 0 00.78 1 2.19 2.19 0 001.29.39 2.3 2.3 0 001.76-.68 2.62 2.62 0 00.63-1.86v-.7h-.06a2.79 2.79 0 01-1.06.92 3.26 3.26 0 01-3.92-.79 4.07 4.07 0 01-1-2.79 4 4 0 011-2.77 3.28 3.28 0 013.92-.81 2.82 2.82 0 011.06.93h.06v-1h1.32v7a3.76 3.76 0 01-1 2.78 3.65 3.65 0 01-2.7 1.07zm.05-4.5a2.11 2.11 0 001.66-.74 3 3 0 000-3.82 2.11 2.11 0 00-1.66-.75 2.16 2.16 0 00-1.67.75 3 3 0 000 3.81 2.16 2.16 0 001.67.75zm7.12-8.87a1 1 0 01-1 1 .91.91 0 01-.68-.29 1 1 0 010-1.38.9.9 0 01.68-.28 1 1 0 011 1zm-.29 2.54v7.35h-1.37v-7.35zm1.8 0h1.33v1h.1a2.49 2.49 0 011-.91 2.9 2.9 0 011.36-.35 2.71 2.71 0 012.08.77 3.1 3.1 0 01.72 2.2v4.62h-1.37v-4.53a1.63 1.63 0 00-1.82-1.8 1.73 1.73 0 00-1.38.66 2.43 2.43 0 00-.55 1.6v4.07h-1.39zM152 106a3.52 3.52 0 01-2.67-1.11 4 4 0 01-1.05-2.81 4 4 0 011-2.8 3.69 3.69 0 015.22-.06 4.28 4.28 0 011 3v.15h-5.78a2.39 2.39 0 00.72 1.74 2.33 2.33 0 003.72-.66l1.23.6a3.61 3.61 0 01-1.37 1.45 3.8 3.8 0 01-2.02.5zm-2.2-4.8h4.2a1.8 1.8 0 00-.62-1.27 2.15 2.15 0 00-1.51-.5 2 2 0 00-1.34.48 2.32 2.32 0 00-.73 1.27z" fill="#767676"/>
</svg>
