<svg xmlns="http://www.w3.org/2000/svg" width="200" height="128">
	<defs>
		<style>
			.cls-3{fill:#fff}
		</style>
	</defs>
	<path d="m126.37 43.51-11.1-19.28a4.89 4.89 0 0 0-4.17-2.49H88.9a4.94 4.94 0 0 0-4.17 2.49l-11.1 19.24a4.91 4.91 0 0 0 0 4.81l11.1 19.4a5 5 0 0 0 4.17 2.58h22.2a4.87 4.87 0 0 0 4.17-2.58l11.1-19.28a5.06 5.06 0 0 0 0-4.89Z" style="fill:#4285f4"/>
	<path d="M111.43 37.1h-1.22V41l-3.92-3.88h-1.14V41l-3.88-3.88h-1.1V41l-3.92-3.9h-1.14V41l-3.93-3.9h-2.61v17.8l15.65 15.36h6.88a4.86 4.86 0 0 0 4.17-2.58l9.79-17Z" style="opacity:.07;isolation:isolate"/>
	<path class="cls-3" d="M93.71 37.1h2.49v17.8h-2.49z"/>
	<path class="cls-3" d="M103.8 37.1h2.49v17.8h-2.49z"/>
	<path class="cls-3" d="M98.73 37.1h2.49v17.8h-2.49z"/>
	<path class="cls-3" d="M88.57 37.1h2.62v17.8h-2.62z"/>
	<path class="cls-3" d="M108.82 37.1h2.62v17.8h-2.62z"/>
	<path d="M81.09 89.59a6.7 6.7 0 0 1-3.33-.89 6.46 6.46 0 0 1-2.45-8.91 6.54 6.54 0 0 1 2.45-2.42 6.61 6.61 0 0 1 3.33-.9 6.32 6.32 0 0 1 4.49 1.81l-1.26 1.27a4.56 4.56 0 0 0-3.23-1.28 4.51 4.51 0 0 0-3.35 1.39 4.87 4.87 0 0 0 0 6.75 4.82 4.82 0 0 0 6.23.46 3.78 3.78 0 0 0 1.41-2.64h-4.29v-1.79h6a6.13 6.13 0 0 1 .1 1.12 5.76 5.76 0 0 1-1.73 4.37 6.11 6.11 0 0 1-4.37 1.66Zm15.25-4.22a4.18 4.18 0 1 1-1.24-3 4 4 0 0 1 1.24 3Zm-6.63 0a2.55 2.55 0 0 0 .69 1.82 2.3 2.3 0 0 0 3.38 0 2.56 2.56 0 0 0 .7-1.82 2.48 2.48 0 0 0-.69-1.82 2.31 2.31 0 0 0-3.39 0 2.48 2.48 0 0 0-.69 1.82Zm15.87 0a4.17 4.17 0 1 1-1.23-3 4 4 0 0 1 1.23 3Zm-6.62 0a2.55 2.55 0 0 0 .69 1.82 2.23 2.23 0 0 0 1.69.74 2.19 2.19 0 0 0 1.68-.74 2.57 2.57 0 0 0 .71-1.82 2.48 2.48 0 0 0-.69-1.82 2.31 2.31 0 0 0-3.39 0 2.48 2.48 0 0 0-.65 1.82Zm11.47 8a4.18 4.18 0 0 1-2.28-.7 4 4 0 0 1-.85-.78 4.38 4.38 0 0 1-.61-1l1.61-.67a2.71 2.71 0 0 0 .85 1.09 2.15 2.15 0 0 0 1.28.41c1.51 0 2.26-.88 2.26-2.65v-.44h-.07a2.72 2.72 0 0 1-2.22 1 3.91 3.91 0 0 1-2.85-1.23 4.13 4.13 0 0 1-1.2-3 4.18 4.18 0 0 1 1.2-3 3.85 3.85 0 0 1 2.85-1.24 2.74 2.74 0 0 1 2.22.94h.07v-.7h1.76V89a4.6 4.6 0 0 1-1.07 3.25 3.84 3.84 0 0 1-2.95 1.14Zm-2.22-8a2.56 2.56 0 0 0 .67 1.8 2.22 2.22 0 0 0 1.68.74 2.09 2.09 0 0 0 1.6-.72 2.87 2.87 0 0 0 0-3.66 2 2 0 0 0-1.6-.74 2.2 2.2 0 0 0-1.66.75 2.57 2.57 0 0 0-.69 1.85Zm7.52-8.47h1.85v12.44h-1.85Zm6.94 12.67a4 4 0 0 1-3-1.21 4.13 4.13 0 0 1-1.2-3 4.25 4.25 0 0 1 1.14-3 3.76 3.76 0 0 1 2.84-1.2 3.53 3.53 0 0 1 2.21.74 4.24 4.24 0 0 1 .83.86 4.67 4.67 0 0 1 .58 1.08l.19.48-5.65 2.34a2.17 2.17 0 0 0 2 1.28 2.39 2.39 0 0 0 2.08-1.17l1.44 1a4 4 0 0 1-3.46 1.82Zm-.14-6.81a2.16 2.16 0 0 0-1.57.7 2.31 2.31 0 0 0-.64 1.76l3.78-1.57a1.32 1.32 0 0 0-.6-.64 1.85 1.85 0 0 0-.97-.23ZM67.74 106a5.67 5.67 0 0 1-4-9.6 5.33 5.33 0 0 1 4-1.63 5 5 0 0 1 4 1.76l-1 1a3.67 3.67 0 0 0-3-1.39 4 4 0 0 0-3 1.2 4.61 4.61 0 0 0 0 6.18 4 4 0 0 0 3 1.2 4.22 4.22 0 0 0 3.26-1.64l1 1a5.12 5.12 0 0 1-1.87 1.41 5.67 5.67 0 0 1-2.39.51Zm6.87-11v10.74h-1.38V95Zm1.19 7.06a3.91 3.91 0 0 1 1.06-2.81 3.67 3.67 0 0 1 2.72-1.1 3.61 3.61 0 0 1 2.7 1.1 3.89 3.89 0 0 1 1.08 2.81 3.84 3.84 0 0 1-1.08 2.81 3.58 3.58 0 0 1-2.7 1.11 3.64 3.64 0 0 1-2.72-1.11 3.91 3.91 0 0 1-1.06-2.81Zm1.38 0a2.69 2.69 0 0 0 .69 1.92 2.35 2.35 0 0 0 3.42 0 2.69 2.69 0 0 0 .69-1.92 2.66 2.66 0 0 0-.69-1.9 2.32 2.32 0 0 0-3.42 0 2.66 2.66 0 0 0-.69 1.9ZM91 105.74h-1.33v-1h-.06a2.47 2.47 0 0 1-1 .9 2.8 2.8 0 0 1-1.36.36 2.71 2.71 0 0 1-2.08-.78 3.09 3.09 0 0 1-.73-2.2v-4.63h1.38v4.53a1.63 1.63 0 0 0 1.82 1.8 1.74 1.74 0 0 0 1.38-.67 2.43 2.43 0 0 0 .55-1.6v-4.06H91Zm4.68.24a3.2 3.2 0 0 1-2.47-1.15 4.27 4.27 0 0 1 0-5.54 3.22 3.22 0 0 1 2.47-1.14 3.16 3.16 0 0 1 1.48.34 2.57 2.57 0 0 1 1 .92h.06l-.06-1V95h1.38v10.74h-1.3v-1h-.06a2.55 2.55 0 0 1-1 .91 3.17 3.17 0 0 1-1.51.35Zm.23-1.26a2.11 2.11 0 0 0 1.66-.74 3 3 0 0 0 0-3.82 2.11 2.11 0 0 0-1.66-.75 2.16 2.16 0 0 0-1.67.75 3 3 0 0 0 0 3.81 2.16 2.16 0 0 0 1.66.75Zm11.94-8.4v9.42h-1.38v-9.42h-3V95h7.38v1.32Zm5.86 1.83a3.45 3.45 0 0 1 2.42.81 2.92 2.92 0 0 1 .88 2.25v4.53h-1.32v-1h-.06a2.63 2.63 0 0 1-2.28 1.26 2.93 2.93 0 0 1-2-.73 2.28 2.28 0 0 1-.82-1.79 2.19 2.19 0 0 1 .87-1.82 3.62 3.62 0 0 1 2.3-.67 4.05 4.05 0 0 1 2 .45v-.32a1.56 1.56 0 0 0-.57-1.22 1.92 1.92 0 0 0-1.33-.5 2.11 2.11 0 0 0-1.83 1l-1.22-.77a3.38 3.38 0 0 1 2.95-1.48Zm-1.78 5.34a1.09 1.09 0 0 0 .46.9 1.73 1.73 0 0 0 1.07.36 2.19 2.19 0 0 0 1.55-.65 2 2 0 0 0 .68-1.52 2.9 2.9 0 0 0-1.8-.5 2.34 2.34 0 0 0-1.4.4 1.22 1.22 0 0 0-.57 1.01Zm12.19.21a2 2 0 0 1-.84 1.62 3.64 3.64 0 0 1-4.06.08 3.25 3.25 0 0 1-1.2-1.52l1.23-.53a2.29 2.29 0 0 0 .79 1 1.93 1.93 0 0 0 1.13.37 2 2 0 0 0 1.1-.29.79.79 0 0 0 .44-.67c0-.47-.36-.82-1.08-1l-1.26-.31c-1.43-.36-2.14-1-2.14-2.07a1.92 1.92 0 0 1 .82-1.62 3.43 3.43 0 0 1 2.09-.6 3.38 3.38 0 0 1 1.76.46 2.51 2.51 0 0 1 1.1 1.25l-1.23.51a1.5 1.5 0 0 0-.68-.73 2.08 2.08 0 0 0-1.06-.26 1.74 1.74 0 0 0-1 .27.77.77 0 0 0-.43.66c0 .42.39.72 1.18.9l1.11.28c1.49.35 2.22 1.08 2.22 2.2Zm7.67 2h-1.67l-2.29-3.47-1.13 1.11v2.36h-1.38V95h1.38v6.61l3.18-3.22h1.77v.06l-2.86 2.84 3 4.39Zm6.25-2a2 2 0 0 1-.84 1.62 3.64 3.64 0 0 1-4.06.08 3.25 3.25 0 0 1-1.2-1.52l1.23-.53a2.34 2.34 0 0 0 .78 1 2.07 2.07 0 0 0 2.24.08.81.81 0 0 0 .44-.67c0-.47-.36-.82-1.08-1l-1.26-.31c-1.43-.36-2.14-1-2.14-2.07a1.92 1.92 0 0 1 .82-1.62 3.78 3.78 0 0 1 3.85-.14 2.56 2.56 0 0 1 1.1 1.25l-1.23.51a1.55 1.55 0 0 0-.68-.73 2.08 2.08 0 0 0-1.06-.26 1.74 1.74 0 0 0-1 .27.77.77 0 0 0-.43.66c0 .42.39.72 1.18.9l1.11.28c1.49.35 2.19 1.08 2.19 2.2Z" style="fill:#767676"/>
</svg>
