<svg xmlns="http://www.w3.org/2000/svg" width="200" height="128">
	<path d="m126.35 43.51-11.09-19.29a4.86 4.86 0 0 0-4.16-2.48H88.9a4.86 4.86 0 0 0-4.16 2.48l-11.1 19.24a4.89 4.89 0 0 0 0 4.83l11.1 19.4a5 5 0 0 0 4.16 2.57h22.19a5 5 0 0 0 4.17-2.55l11.09-19.3a4.93 4.93 0 0 0 0-4.9z" fill="#4285f4"/>
	<path d="m103.15 34.81-6.15.64L95.17 49l-5.4.12-1.27 6.79 14.35 14.34h8.24a5 5 0 0 0 4.17-2.56l7.59-13.18z" style="isolation:isolate" opacity=".07"/>
	<path d="M112.29 49.31a5.15 5.15 0 0 0-1.86-1.85l-8.22-4.75a5.05 5.05 0 1 0-7.67-4.29v9.49a5 5 0 0 0-5 0 5.06 5.06 0 1 0 5.06 8.77l8.23-4.76a5 5 0 0 0 .66 2.45 5.06 5.06 0 0 0 8.76-5.08zm-15.17 3a4.6 4.6 0 0 0-.08-.91v-8.64a5.8 5.8 0 0 0 .88.4l7.46 4.3a5.78 5.78 0 0 0-.8.57zm1.23-16.09a2.46 2.46 0 1 1 2.45 4.26 2.44 2.44 0 0 1-3.35-.9 2.47 2.47 0 0 1 .9-3.37zm-5.08 18.39a2.46 2.46 0 0 1-3.32-1 2.46 2.46 0 0 1 4.26-2.46 1.18 1.18 0 0 1 .11.19 2.45 2.45 0 0 1-1.05 3.27zm15.93-.89a2.28 2.28 0 1 1 .83-3.09 2.46 2.46 0 0 1-.83 3.09z" fill="#fff"/>
	<path d="M81.09 89.59a6.7 6.7 0 0 1-3.33-.89 6.46 6.46 0 0 1-2.45-8.91 6.54 6.54 0 0 1 2.45-2.42 6.61 6.61 0 0 1 3.33-.9 6.32 6.32 0 0 1 4.49 1.81l-1.26 1.27a4.56 4.56 0 0 0-3.23-1.28 4.51 4.51 0 0 0-3.35 1.39 4.87 4.87 0 0 0 0 6.75 4.82 4.82 0 0 0 6.23.46 3.78 3.78 0 0 0 1.41-2.64h-4.29v-1.79h6a6.13 6.13 0 0 1 .1 1.12 5.76 5.76 0 0 1-1.73 4.37 6.11 6.11 0 0 1-4.37 1.66zm15.25-4.22a4.18 4.18 0 1 1-1.24-3 4 4 0 0 1 1.24 3zm-6.63 0a2.55 2.55 0 0 0 .69 1.82 2.3 2.3 0 0 0 3.38 0 2.56 2.56 0 0 0 .7-1.82 2.48 2.48 0 0 0-.69-1.82 2.31 2.31 0 0 0-3.39 0 2.48 2.48 0 0 0-.69 1.82zm15.87 0a4.17 4.17 0 1 1-1.23-3 4 4 0 0 1 1.23 3zm-6.62 0a2.55 2.55 0 0 0 .69 1.82 2.23 2.23 0 0 0 1.69.74 2.19 2.19 0 0 0 1.68-.74 2.57 2.57 0 0 0 .71-1.82 2.48 2.48 0 0 0-.69-1.82 2.31 2.31 0 0 0-3.39 0 2.48 2.48 0 0 0-.65 1.82zm11.47 8a4.18 4.18 0 0 1-2.28-.7 4 4 0 0 1-.85-.78 4.38 4.38 0 0 1-.61-1l1.61-.67a2.71 2.71 0 0 0 .85 1.09 2.15 2.15 0 0 0 1.28.41c1.51 0 2.26-.88 2.26-2.65v-.44h-.07a2.72 2.72 0 0 1-2.22 1 3.91 3.91 0 0 1-2.85-1.23 4.13 4.13 0 0 1-1.2-3 4.18 4.18 0 0 1 1.2-3 3.85 3.85 0 0 1 2.85-1.24 2.74 2.74 0 0 1 2.22.94h.07v-.7h1.76V89a4.6 4.6 0 0 1-1.07 3.25 3.84 3.84 0 0 1-2.95 1.14zm-2.22-8a2.56 2.56 0 0 0 .67 1.8 2.22 2.22 0 0 0 1.68.74 2.09 2.09 0 0 0 1.6-.72 2.87 2.87 0 0 0 0-3.66 2 2 0 0 0-1.6-.74 2.2 2.2 0 0 0-1.66.75 2.57 2.57 0 0 0-.69 1.85zm7.52-8.47h1.85v12.44h-1.85zm6.94 12.67a4 4 0 0 1-3-1.21 4.13 4.13 0 0 1-1.2-3 4.25 4.25 0 0 1 1.14-3 3.76 3.76 0 0 1 2.84-1.2 3.53 3.53 0 0 1 2.21.74 4.24 4.24 0 0 1 .83.86 4.67 4.67 0 0 1 .58 1.08l.19.48-5.65 2.34a2.17 2.17 0 0 0 2 1.28 2.39 2.39 0 0 0 2.08-1.17l1.44 1a4 4 0 0 1-3.46 1.82zm-.14-6.81a2.16 2.16 0 0 0-1.57.7 2.31 2.31 0 0 0-.64 1.76l3.78-1.57a1.32 1.32 0 0 0-.6-.64 1.85 1.85 0 0 0-.97-.23zM54.89 106a5.67 5.67 0 0 1-4-9.6 5.33 5.33 0 0 1 4-1.63 5 5 0 0 1 3.94 1.76l-1 1a3.65 3.65 0 0 0-3-1.39 4.06 4.06 0 0 0-3 1.2 4.64 4.64 0 0 0 0 6.18 4.06 4.06 0 0 0 3 1.2 4.2 4.2 0 0 0 3.25-1.58l1 1a5.15 5.15 0 0 1-1.88 1.41 5.62 5.62 0 0 1-2.31.45zm6.87-11v10.74h-1.38V95zm1.18 7.06A3.92 3.92 0 0 1 64 99.25a3.65 3.65 0 0 1 2.71-1.1 3.61 3.61 0 0 1 2.7 1.1 3.89 3.89 0 0 1 1.08 2.81 3.84 3.84 0 0 1-1.08 2.81 3.58 3.58 0 0 1-2.7 1.11 3.62 3.62 0 0 1-2.71-1.11 3.92 3.92 0 0 1-1.06-2.81zm1.38 0A2.69 2.69 0 0 0 65 104a2.35 2.35 0 0 0 3.42 0 2.69 2.69 0 0 0 .69-1.92 2.66 2.66 0 0 0-.69-1.9 2.32 2.32 0 0 0-3.42 0 2.66 2.66 0 0 0-.68 1.88zm13.82 3.68h-1.32v-1h-.06a2.43 2.43 0 0 1-1 .9 2.77 2.77 0 0 1-1.36.36 2.68 2.68 0 0 1-2.07-.78 3 3 0 0 1-.73-2.2v-4.63H73v4.53a1.62 1.62 0 0 0 1.81 1.8 1.74 1.74 0 0 0 1.38-.67 2.44 2.44 0 0 0 .56-1.6v-4.06h1.38zm4.68.24a3.22 3.22 0 0 1-2.48-1.15 4.27 4.27 0 0 1 0-5.54 3.24 3.24 0 0 1 2.48-1.14 3.19 3.19 0 0 1 1.48.34 2.61 2.61 0 0 1 1 .92h.06l-.06-1V95h1.4v10.74h-1.32v-1h-.06a2.59 2.59 0 0 1-1 .91 3.2 3.2 0 0 1-1.5.35zm.22-1.26a2.13 2.13 0 0 0 1.67-.74 3.06 3.06 0 0 0 0-3.82 2.22 2.22 0 0 0-3.33 0 3 3 0 0 0 0 3.81 2.14 2.14 0 0 0 1.62.75zm8.88 1V95h3.29a5.34 5.34 0 0 1 4 1.48 5.82 5.82 0 0 1 0 7.78 5.38 5.38 0 0 1-4 1.48zm1.38-9.42v8.1h1.91a4.05 4.05 0 1 0 0-8.1zm11.54 1.83a3.43 3.43 0 0 1 2.41.81 2.93 2.93 0 0 1 .89 2.25v4.53h-1.32v-1h-.06a2.63 2.63 0 0 1-2.28 1.26 3 3 0 0 1-2-.73 2.27 2.27 0 0 1-.81-1.79 2.21 2.21 0 0 1 .86-1.82 3.62 3.62 0 0 1 2.3-.67 4.09 4.09 0 0 1 2 .45v-.32a1.56 1.56 0 0 0-.57-1.22 1.94 1.94 0 0 0-1.34-.5 2.11 2.11 0 0 0-1.83 1l-1.21-.77a3.38 3.38 0 0 1 2.96-1.46zm-1.79 5.34a1.12 1.12 0 0 0 .46.9 1.73 1.73 0 0 0 1.07.36 2.23 2.23 0 0 0 1.56-.65 2 2 0 0 0 .68-1.52 2.9 2.9 0 0 0-1.8-.5 2.32 2.32 0 0 0-1.4.4 1.21 1.21 0 0 0-.57 1.03zm9.41 2.37a2.13 2.13 0 0 1-1.5-.56 2.07 2.07 0 0 1-.6-1.55v-4.1h-1.29v-1.24h1.29v-2.25h1.38v2.25h1.8v1.26h-1.8v3.66a1.32 1.32 0 0 0 .28 1 .92.92 0 0 0 .65.27 1.65 1.65 0 0 0 .32 0l.29-.1.44 1.23a3.7 3.7 0 0 1-1.26.15zm5-7.71a3.43 3.43 0 0 1 2.41.81 2.93 2.93 0 0 1 .89 2.25v4.53h-1.32v-1h-.06a2.63 2.63 0 0 1-2.28 1.26 3 3 0 0 1-2-.73 2.27 2.27 0 0 1-.81-1.79 2.21 2.21 0 0 1 .86-1.82 3.64 3.64 0 0 1 2.3-.67 4.09 4.09 0 0 1 2 .45v-.32a1.56 1.56 0 0 0-.57-1.22 1.94 1.94 0 0 0-1.34-.5 2.11 2.11 0 0 0-1.83 1l-1.21-.77a3.38 3.38 0 0 1 3-1.46zm-1.79 5.34a1.12 1.12 0 0 0 .46.9 1.75 1.75 0 0 0 1.07.36 2.23 2.23 0 0 0 1.56-.65 2 2 0 0 0 .68-1.52 2.9 2.9 0 0 0-1.8-.5 2.32 2.32 0 0 0-1.4.4 1.21 1.21 0 0 0-.53 1.03zm10.51 2.53a3.13 3.13 0 0 1-1.47-.35 2.55 2.55 0 0 1-1-.91h-.06l.06 1V109h-1.41V98.39h1.32v1h.06a2.57 2.57 0 0 1 1-.92 3.12 3.12 0 0 1 1.47-.34 3.16 3.16 0 0 1 2.46 1.14 4 4 0 0 1 1 2.77 4 4 0 0 1-1 2.77 3.13 3.13 0 0 1-2.43 1.19zm-.22-1.26a2.14 2.14 0 0 0 1.66-.75 3 3 0 0 0 0-3.81 2.14 2.14 0 0 0-1.66-.75 2.17 2.17 0 0 0-1.68.75 2.76 2.76 0 0 0-.66 1.9 2.8 2.8 0 0 0 .66 1.92 2.19 2.19 0 0 0 1.72.72zm6.28 1h-1.38v-7.35h1.32v1.19h.06a2 2 0 0 1 .87-1 2.33 2.33 0 0 1 1.28-.41 2.59 2.59 0 0 1 1 .18l-.39 1.34a2.26 2.26 0 0 0-.81-.11 1.78 1.78 0 0 0-1.36.64 2.11 2.11 0 0 0-.58 1.47zm3.2-3.68a3.91 3.91 0 0 1 1.06-2.81 3.67 3.67 0 0 1 2.72-1.1 3.61 3.61 0 0 1 2.7 1.1 3.89 3.89 0 0 1 1.08 2.81 3.84 3.84 0 0 1-1.08 2.81 3.58 3.58 0 0 1-2.7 1.11 3.64 3.64 0 0 1-2.72-1.11 3.91 3.91 0 0 1-1.06-2.81zm1.38 0a2.69 2.69 0 0 0 .69 1.92 2.35 2.35 0 0 0 3.42 0 2.69 2.69 0 0 0 .69-1.92 2.66 2.66 0 0 0-.69-1.9 2.32 2.32 0 0 0-3.42 0 2.66 2.66 0 0 0-.69 1.9zm10.8 3.92a3.64 3.64 0 0 1-2.72-1.11 4 4 0 0 1-1.06-2.81 3.91 3.91 0 0 1 1.06-2.81 3.67 3.67 0 0 1 2.72-1.1 3.36 3.36 0 0 1 3.22 2.11l-1.26.53a2.07 2.07 0 0 0-2.05-1.38 2.14 2.14 0 0 0-1.64.76 3 3 0 0 0 0 3.78 2.25 2.25 0 0 0 3.77-.62l1.23.53a3.3 3.3 0 0 1-1.27 1.55 3.55 3.55 0 0 1-2 .59z" fill="#767676"/>
</svg>
