<svg xmlns="http://www.w3.org/2000/svg" width="200" height="128">
	<defs>
		<style>
			.cls-3{fill:#fff}
		</style>
	</defs>
	<path d="m126.35 43.51-11.09-19.29a4.86 4.86 0 0 0-4.16-2.48H88.9a4.86 4.86 0 0 0-4.16 2.48l-11.1 19.24a4.89 4.89 0 0 0 0 4.83l11.1 19.4a5 5 0 0 0 4.16 2.57h22.19a5 5 0 0 0 4.17-2.55l11.09-19.3a4.93 4.93 0 0 0 0-4.9Z" style="fill:#4285f4"/>
	<path d="m111.35 36.19-.52 4.16-2.83-2.83-9.87-4.05 5.5 5.52L97 35.84l-11.19 5.23 3 3-.21 11.72 14.42 14.43h8a5 5 0 0 0 4.17-2.56l10.07-17.52Z" style="opacity:.07;isolation:isolate"/>
	<g id="art">
		<path class="cls-3" d="M108.3 38.26V47a.54.54 0 0 1-.26.46l-1.42.81v-9a1.05 1.05 0 0 0-.53-.91l-7-4.08a3.8 3.8 0 0 1-1.89-3l10.61 6.12a1 1 0 0 1 .49.86Z"/>
		<path class="cls-3" d="m110.85 49.32-7.55 4.36a.51.51 0 0 1-.53 0l-1.41-.81 7.82-4.52a1.05 1.05 0 0 0 .52-.91v-8.13a3.79 3.79 0 0 1 1.69-3.15v12.23a1.05 1.05 0 0 1-.54.93Z"/>
		<path class="cls-3" d="M102.53 57.05 95 52.7a.52.52 0 0 1-.27-.46v-1.63l7.81 4.51a1 1 0 0 0 1 0l7.06-4.06a3.75 3.75 0 0 1 3.56-.13l-10.6 6.12a1 1 0 0 1-1.03 0Z"/>
		<path class="cls-3" d="M91.69 53.73V45a.54.54 0 0 1 .26-.46l1.42-.82v9a1 1 0 0 0 .53.91l7 4.07a3.85 3.85 0 0 1 1.89 3l-10.57-6.06a1 1 0 0 1-.53-.91Z"/>
		<path class="cls-3" d="m89.14 42.67 7.55-4.37a.55.55 0 0 1 .53 0l1.42.82-7.82 4.52a1 1 0 0 0-.53.91v8.13a3.78 3.78 0 0 1-1.68 3.15V43.6a1 1 0 0 1 .53-.93Z"/>
		<path class="cls-3" d="m97.47 34.93 7.53 4.36a.51.51 0 0 1 .26.45v1.64l-7.8-4.51a1 1 0 0 0-1 0l-7.07 4.06a3.8 3.8 0 0 1-3.56.13l10.57-6.13a1.08 1.08 0 0 1 1.07 0Z"/>
		<path class="cls-3" d="M100 48.23a.59.59 0 0 1-.29-.07l-5-2.88v1.26l5.28 3 5.27-3v-1.28l-5 2.89a.54.54 0 0 1-.26.08Z"/>
		<path class="cls-3" d="M100.28 50.75a.58.58 0 0 1-.57 0l-5-2.88v.92a.58.58 0 0 0 .28.49L99.72 52a.54.54 0 0 0 .55 0l4.73-2.72a.58.58 0 0 0 .28-.49v-.92Z"/>
		<path class="cls-3" d="m100 47 5.27-3.05v-.59a.56.56 0 0 0-.28-.48l-4.72-2.72a.54.54 0 0 0-.55 0L95 42.87a.56.56 0 0 0-.28.48v.59Z"/>
	</g>
	<path d="M81.09 89.59a6.7 6.7 0 0 1-3.33-.89 6.46 6.46 0 0 1-2.45-8.91 6.54 6.54 0 0 1 2.45-2.42 6.61 6.61 0 0 1 3.33-.9 6.32 6.32 0 0 1 4.49 1.81l-1.26 1.27a4.56 4.56 0 0 0-3.23-1.28 4.51 4.51 0 0 0-3.35 1.39 4.87 4.87 0 0 0 0 6.75 4.82 4.82 0 0 0 6.23.46 3.78 3.78 0 0 0 1.41-2.64h-4.29v-1.79h6a6.13 6.13 0 0 1 .1 1.12 5.76 5.76 0 0 1-1.73 4.37 6.11 6.11 0 0 1-4.37 1.66Zm15.25-4.22a4.18 4.18 0 1 1-1.24-3 4 4 0 0 1 1.24 3Zm-6.63 0a2.55 2.55 0 0 0 .69 1.82 2.3 2.3 0 0 0 3.38 0 2.56 2.56 0 0 0 .7-1.82 2.48 2.48 0 0 0-.69-1.82 2.31 2.31 0 0 0-3.39 0 2.48 2.48 0 0 0-.69 1.82Zm15.87 0a4.17 4.17 0 1 1-1.23-3 4 4 0 0 1 1.23 3Zm-6.62 0a2.55 2.55 0 0 0 .69 1.82 2.23 2.23 0 0 0 1.69.74 2.19 2.19 0 0 0 1.68-.74 2.57 2.57 0 0 0 .71-1.82 2.48 2.48 0 0 0-.69-1.82 2.31 2.31 0 0 0-3.39 0 2.48 2.48 0 0 0-.65 1.82Zm11.47 8a4.18 4.18 0 0 1-2.28-.7 4 4 0 0 1-.85-.78 4.38 4.38 0 0 1-.61-1l1.61-.67a2.71 2.71 0 0 0 .85 1.09 2.15 2.15 0 0 0 1.28.41c1.51 0 2.26-.88 2.26-2.65v-.44h-.07a2.72 2.72 0 0 1-2.22 1 3.91 3.91 0 0 1-2.85-1.23 4.13 4.13 0 0 1-1.2-3 4.18 4.18 0 0 1 1.2-3 3.85 3.85 0 0 1 2.85-1.24 2.74 2.74 0 0 1 2.22.94h.07v-.7h1.76V89a4.6 4.6 0 0 1-1.07 3.25 3.84 3.84 0 0 1-2.95 1.14Zm-2.22-8a2.56 2.56 0 0 0 .67 1.8 2.22 2.22 0 0 0 1.68.74 2.09 2.09 0 0 0 1.6-.72 2.87 2.87 0 0 0 0-3.66 2 2 0 0 0-1.6-.74 2.2 2.2 0 0 0-1.66.75 2.57 2.57 0 0 0-.69 1.85Zm7.52-8.47h1.85v12.44h-1.85Zm6.94 12.67a4 4 0 0 1-3-1.21 4.13 4.13 0 0 1-1.2-3 4.25 4.25 0 0 1 1.14-3 3.76 3.76 0 0 1 2.84-1.2 3.53 3.53 0 0 1 2.21.74 4.24 4.24 0 0 1 .83.86 4.67 4.67 0 0 1 .58 1.08l.19.48-5.65 2.34a2.17 2.17 0 0 0 2 1.28 2.39 2.39 0 0 0 2.08-1.17l1.44 1a4 4 0 0 1-3.46 1.82Zm-.14-6.81a2.16 2.16 0 0 0-1.57.7 2.31 2.31 0 0 0-.64 1.76l3.78-1.57a1.32 1.32 0 0 0-.6-.64 1.85 1.85 0 0 0-.97-.23Zm-64 23.2a5.67 5.67 0 0 1-4-9.6 5.33 5.33 0 0 1 4-1.63 5 5 0 0 1 4 1.76l-1 1a3.67 3.67 0 0 0-3-1.39 4 4 0 0 0-3 1.2 4.61 4.61 0 0 0 0 6.18 4 4 0 0 0 3 1.2 4.22 4.22 0 0 0 3.26-1.58l1 1a5.12 5.12 0 0 1-1.87 1.41 5.67 5.67 0 0 1-2.38.49Zm6.87-11v10.74H64V95Zm1.19 7.06a3.91 3.91 0 0 1 1.06-2.81 3.67 3.67 0 0 1 2.72-1.1 3.61 3.61 0 0 1 2.7 1.1 3.89 3.89 0 0 1 1.08 2.81 3.84 3.84 0 0 1-1.08 2.81 3.58 3.58 0 0 1-2.7 1.11 3.64 3.64 0 0 1-2.72-1.11 3.91 3.91 0 0 1-1.05-2.77Zm1.38 0a2.69 2.69 0 0 0 .69 1.92 2.35 2.35 0 0 0 3.42 0 2.69 2.69 0 0 0 .69-1.92 2.66 2.66 0 0 0-.69-1.9 2.32 2.32 0 0 0-3.42 0 2.66 2.66 0 0 0-.66 1.94Zm13.81 3.68h-1.31v-1h-.06a2.43 2.43 0 0 1-1 .9 2.73 2.73 0 0 1-1.35.36 2.7 2.7 0 0 1-2.06-.76 3 3 0 0 1-.73-2.2v-4.61h1.38v4.53a1.63 1.63 0 0 0 1.82 1.8 1.74 1.74 0 0 0 1.38-.67 2.43 2.43 0 0 0 .55-1.6v-4.06h1.38Zm4.68.24a3.2 3.2 0 0 1-2.46-1.11 4.27 4.27 0 0 1 0-5.54 3.29 3.29 0 0 1 4-.8 2.64 2.64 0 0 1 1 .92l-.06-1V95h1.38v10.74H89v-1a2.62 2.62 0 0 1-1 .91 3.2 3.2 0 0 1-1.53.35Zm.23-1.26a2.11 2.11 0 0 0 1.66-.74 3 3 0 0 0 0-3.82 2.11 2.11 0 0 0-1.66-.75 2.16 2.16 0 0 0-1.67.75A3 3 0 0 0 85 104a2.16 2.16 0 0 0 1.7.72Zm8.88 1V95h3.88a3.16 3.16 0 0 1 2.19.83 2.71 2.71 0 0 1 .91 2.09 2.27 2.27 0 0 1-1.45 2.24v.06a2.62 2.62 0 0 1 1.32.93 2.53 2.53 0 0 1 .5 1.53 2.86 2.86 0 0 1-1 2.19 3.26 3.26 0 0 1-2.3.87ZM97 96.32v3.28h2.5a1.67 1.67 0 0 0 1.23-.49 1.63 1.63 0 0 0 .5-1.16 1.67 1.67 0 0 0-.48-1.14 1.61 1.61 0 0 0-1.19-.49Zm0 4.57v3.53h2.77a1.79 1.79 0 0 0 1.79-1.77 1.69 1.69 0 0 0-.53-1.23 1.79 1.79 0 0 0-1.32-.53Zm9.07-5a1 1 0 1 1-.29-.69.94.94 0 0 1 .22.65Zm-.29 2.54v7.35h-1.38v-7.39Zm5 10.83a4.28 4.28 0 0 1-1.16-.16 3.8 3.8 0 0 1-1-.44 3.33 3.33 0 0 1-.76-.68 2.85 2.85 0 0 1-.48-.87l1.3-.54a2 2 0 0 0 .79 1 2.14 2.14 0 0 0 1.29.39 2.27 2.27 0 0 0 1.75-.68 2.62 2.62 0 0 0 .63-1.86v-.7h-.06a2.72 2.72 0 0 1-1.06.92 3.26 3.26 0 0 1-3.92-.79 4.07 4.07 0 0 1-1-2.79 4 4 0 0 1 1-2.77 3.28 3.28 0 0 1 3.92-.81 2.74 2.74 0 0 1 1.06.93h.06v-1h1.32v7a3.76 3.76 0 0 1-1 2.78 3.64 3.64 0 0 1-2.73 1.03Zm0-4.5a2.14 2.14 0 0 0 1.67-.74 3.06 3.06 0 0 0 0-3.82 2.23 2.23 0 0 0-3.34 0 3 3 0 0 0 0 3.81 2.16 2.16 0 0 0 1.66.71Zm8.17 1.14a2.1 2.1 0 0 1-1.49-.56 2.08 2.08 0 0 1-.61-1.55v-4.1h-1.29v-1.3h1.29v-2.25h1.38v2.25H120v1.26h-1.8v3.66a1.31 1.31 0 0 0 .29 1 .92.92 0 0 0 .64.27 1.86 1.86 0 0 0 .33 0l.29-.1.43 1.23a3.7 3.7 0 0 1-1.24.15Zm5-7.71a3.45 3.45 0 0 1 2.42.81 2.93 2.93 0 0 1 .89 2.25v4.53H126v-1h-.06a2.63 2.63 0 0 1-2.28 1.26 2.93 2.93 0 0 1-2-.73 2.28 2.28 0 0 1-.82-1.79 2.19 2.19 0 0 1 .87-1.82 3.62 3.62 0 0 1 2.3-.67 4 4 0 0 1 2 .45v-.32a1.58 1.58 0 0 0-.56-1.22 2 2 0 0 0-1.34-.5 2.11 2.11 0 0 0-1.83 1l-1.28-.86a3.36 3.36 0 0 1 3-1.43Zm-1.78 5.34a1.09 1.09 0 0 0 .46.9 1.73 1.73 0 0 0 1.07.36 2.19 2.19 0 0 0 1.55-.65 2 2 0 0 0 .68-1.52 2.87 2.87 0 0 0-1.79-.5 2.35 2.35 0 0 0-1.41.4 1.22 1.22 0 0 0-.53.97Zm10.56 2.47a3.2 3.2 0 0 1-1.48-.35 2.52 2.52 0 0 1-1-.91h-.06v1h-1.33V95h1.39v3.39l-.06 1h.06a2.54 2.54 0 0 1 1-.92 3.19 3.19 0 0 1 1.48-.34 3.16 3.16 0 0 1 2.46 1.14 4 4 0 0 1 1 2.77 4 4 0 0 1-1 2.77 3.13 3.13 0 0 1-2.46 1.19Zm-.23-1.26a2.15 2.15 0 0 0 1.67-.75 3 3 0 0 0 0-3.81 2.25 2.25 0 0 0-3.35 0 2.76 2.76 0 0 0-.65 1.9 2.79 2.79 0 0 0 .65 1.92 2.19 2.19 0 0 0 1.68.72Zm6.29-9.74v10.74h-1.38V95Zm4.9 11a3.52 3.52 0 0 1-2.67-1.11 4 4 0 0 1-1.05-2.81 4 4 0 0 1 1-2.8 3.69 3.69 0 0 1 5.22-.06 4.28 4.28 0 0 1 1 3v.15h-5.78a2.39 2.39 0 0 0 .72 1.74 2.33 2.33 0 0 0 3.72-.66l1.23.6a3.61 3.61 0 0 1-1.37 1.45 3.8 3.8 0 0 1-2.02.5Zm-2.2-4.8h4.21a1.8 1.8 0 0 0-.62-1.27 2.15 2.15 0 0 0-1.51-.5 2 2 0 0 0-1.34.48 2.32 2.32 0 0 0-.74 1.27Z" style="fill:#767676"/>
</svg>
