<svg xmlns="http://www.w3.org/2000/svg" width="200" height="128">
	<path d="M80.36 62.57 87 20a1.21 1.21 0 0 1 1.41-1 1.28 1.28 0 0 1 .89.64l6.9 12.86 2.73-5.22a1.22 1.22 0 0 1 1.65-.52 1.37 1.37 0 0 1 .52.52l18.54 35.29z" fill="#ffa000"/>
	<path d="M103.34 46 96.2 32.47l-15.84 30.1z" fill="#f57c00"/>
	<path d="m119.64 62.57-5.1-31.51a1.22 1.22 0 0 0-1.41-1 1.18 1.18 0 0 0-.67.33l-32.1 32.18 17.77 10a3.75 3.75 0 0 0 3.59 0z" fill="#ffca28"/>
	<path d="M114.57 31.09a1.22 1.22 0 0 0-1.41-1 1.18 1.18 0 0 0-.67.33l-6.38 6.39-5-9.55a1.21 1.21 0 0 0-1.65-.52 1.37 1.37 0 0 0-.52.52l-2.74 5.21-6.88-12.83a1.22 1.22 0 0 0-1.65-.49A1.28 1.28 0 0 0 87 20l-6.64 42.57.19.09 25.56-25.56 6.38-6.38a1.23 1.23 0 0 1 1.75 0 1.1 1.1 0 0 1 .33.68l5 31.2h.06zM80.42 62.51 87 20.35a1.19 1.19 0 0 1 1.41-1 1.25 1.25 0 0 1 .89.64l6.9 12.82 2.73-5.22a1.21 1.21 0 0 1 1.65-.52 1.37 1.37 0 0 1 .52.52l4.9 9.33z" fill="#fff" fill-opacity=".2"/>
	<path d="M101.72 72.23a3.7 3.7 0 0 1-3.59 0l-17.74-9.94v.28l17.77 10a3.75 3.75 0 0 0 3.59 0l17.92-10v-.28z" style="isolation:isolate" fill="#a52714" opacity=".2"/>
	<path d="M81.09 89.59a6.7 6.7 0 0 1-3.33-.89 6.46 6.46 0 0 1-2.45-8.91 6.54 6.54 0 0 1 2.45-2.42 6.61 6.61 0 0 1 3.33-.9 6.32 6.32 0 0 1 4.49 1.81l-1.26 1.27a4.56 4.56 0 0 0-3.23-1.28 4.51 4.51 0 0 0-3.35 1.39 4.87 4.87 0 0 0 0 6.75 4.82 4.82 0 0 0 6.23.46 3.78 3.78 0 0 0 1.41-2.64h-4.29v-1.79h6a6.13 6.13 0 0 1 .1 1.12 5.76 5.76 0 0 1-1.73 4.37 6.11 6.11 0 0 1-4.37 1.66zm15.25-4.22a4.18 4.18 0 1 1-1.24-3 4 4 0 0 1 1.24 3zm-6.63 0a2.55 2.55 0 0 0 .69 1.82 2.3 2.3 0 0 0 3.38 0 2.56 2.56 0 0 0 .7-1.82 2.48 2.48 0 0 0-.69-1.82 2.31 2.31 0 0 0-3.39 0 2.48 2.48 0 0 0-.69 1.82zm15.87 0a4.17 4.17 0 1 1-1.23-3 4 4 0 0 1 1.23 3zm-6.62 0a2.55 2.55 0 0 0 .69 1.82 2.23 2.23 0 0 0 1.69.74 2.19 2.19 0 0 0 1.68-.74 2.57 2.57 0 0 0 .71-1.82 2.48 2.48 0 0 0-.69-1.82 2.31 2.31 0 0 0-3.39 0 2.48 2.48 0 0 0-.65 1.82zm11.47 8a4.18 4.18 0 0 1-2.28-.7 4 4 0 0 1-.85-.78 4.38 4.38 0 0 1-.61-1l1.61-.67a2.71 2.71 0 0 0 .85 1.09 2.15 2.15 0 0 0 1.28.41c1.51 0 2.26-.88 2.26-2.65v-.44h-.07a2.72 2.72 0 0 1-2.22 1 3.91 3.91 0 0 1-2.85-1.23 4.13 4.13 0 0 1-1.2-3 4.18 4.18 0 0 1 1.2-3 3.85 3.85 0 0 1 2.85-1.24 2.74 2.74 0 0 1 2.22.94h.07v-.7h1.76V89a4.6 4.6 0 0 1-1.07 3.25 3.84 3.84 0 0 1-2.95 1.14zm-2.22-8a2.56 2.56 0 0 0 .67 1.8 2.22 2.22 0 0 0 1.68.74 2.09 2.09 0 0 0 1.6-.72 2.87 2.87 0 0 0 0-3.66 2 2 0 0 0-1.6-.74 2.2 2.2 0 0 0-1.66.75 2.57 2.57 0 0 0-.69 1.85zm7.52-8.47h1.85v12.44h-1.85zm6.94 12.67a4 4 0 0 1-3-1.21 4.13 4.13 0 0 1-1.2-3 4.25 4.25 0 0 1 1.14-3 3.76 3.76 0 0 1 2.84-1.2 3.53 3.53 0 0 1 2.21.74 4.24 4.24 0 0 1 .83.86 4.67 4.67 0 0 1 .58 1.08l.19.48-5.65 2.34a2.17 2.17 0 0 0 2 1.28 2.39 2.39 0 0 0 2.08-1.17l1.44 1a4 4 0 0 1-3.46 1.82zm-.14-6.81a2.16 2.16 0 0 0-1.57.7 2.31 2.31 0 0 0-.64 1.76l3.78-1.57a1.32 1.32 0 0 0-.6-.64 1.85 1.85 0 0 0-.97-.23zm-47.65 18.37v4.61H73.5V95h6.27v1.32h-4.89v3.52h4.41v1.29zm7.84-5.28a1 1 0 0 1-.28.69 1 1 0 1 1 0-1.38 1 1 0 0 1 .28.69zm-.28 2.54v7.35h-1.38v-7.35zm3.18 7.35h-1.39v-7.35h1.33v1.19h.06a1.92 1.92 0 0 1 .86-1 2.33 2.33 0 0 1 1.28-.41 2.59 2.59 0 0 1 1 .18l-.42 1.33a2.26 2.26 0 0 0-.81-.11 1.78 1.78 0 0 0-1.36.64 2.1 2.1 0 0 0-.57 1.47zm6.91.24a3.52 3.52 0 0 1-2.67-1.11 4 4 0 0 1-1-2.81 4 4 0 0 1 1-2.8A3.68 3.68 0 0 1 95 99.2a4.23 4.23 0 0 1 1 3v.15h-5.78a2.39 2.39 0 0 0 .72 1.74 2.33 2.33 0 0 0 3.72-.66l1.23.6a3.68 3.68 0 0 1-1.37 1.45 3.82 3.82 0 0 1-1.99.52zm-2.21-4.8h4.22a1.84 1.84 0 0 0-.62-1.27 2.17 2.17 0 0 0-1.51-.5 2 2 0 0 0-1.34.48 2.27 2.27 0 0 0-.75 1.29zm10.83 4.8a3.13 3.13 0 0 1-1.47-.35 2.55 2.55 0 0 1-1-.91h-.06v1h-1.35V95h1.38v3.39l-.06 1h.06a2.57 2.57 0 0 1 1-.92 3.12 3.12 0 0 1 1.47-.34 3.16 3.16 0 0 1 2.46 1.14 4 4 0 0 1 1 2.77 4 4 0 0 1-1 2.77 3.13 3.13 0 0 1-2.43 1.19zm-.22-1.26a2.14 2.14 0 0 0 1.66-.75 3 3 0 0 0 0-3.81 2.14 2.14 0 0 0-1.66-.75 2.17 2.17 0 0 0-1.68.75 2.76 2.76 0 0 0-.66 1.9 2.8 2.8 0 0 0 .66 1.92 2.19 2.19 0 0 0 1.68.74zm7.77-6.57a3.43 3.43 0 0 1 2.41.81 2.93 2.93 0 0 1 .89 2.25v4.53h-1.32v-1h-.06a2.63 2.63 0 0 1-2.28 1.26 2.91 2.91 0 0 1-2-.73 2.25 2.25 0 0 1-.82-1.79 2.21 2.21 0 0 1 .86-1.82 3.64 3.64 0 0 1 2.3-.67 4.09 4.09 0 0 1 2 .45v-.32a1.56 1.56 0 0 0-.57-1.22 1.94 1.94 0 0 0-1.34-.5 2.11 2.11 0 0 0-1.83 1l-1.21-.77a3.38 3.38 0 0 1 2.97-1.48zm-1.79 5.34a1.12 1.12 0 0 0 .46.9 1.75 1.75 0 0 0 1.07.36 2.23 2.23 0 0 0 1.56-.65 2 2 0 0 0 .68-1.52 2.9 2.9 0 0 0-1.8-.5 2.32 2.32 0 0 0-1.4.4 1.21 1.21 0 0 0-.57 1.01zm12.2.21a2 2 0 0 1-.84 1.62 3.65 3.65 0 0 1-4.07.08 3.25 3.25 0 0 1-1.2-1.52l1.23-.53a2.36 2.36 0 0 0 .79 1 2 2 0 0 0 1.13.37 2 2 0 0 0 1.11-.29.81.81 0 0 0 .44-.67c0-.47-.36-.82-1.08-1l-1.26-.31c-1.43-.36-2.15-1-2.15-2.07a2 2 0 0 1 .82-1.62 3.8 3.8 0 0 1 3.86-.14 2.56 2.56 0 0 1 1.1 1.25l-1.23.51a1.55 1.55 0 0 0-.68-.73 2.11 2.11 0 0 0-1.06-.26 1.79 1.79 0 0 0-1 .27.79.79 0 0 0-.43.66c0 .42.4.72 1.19.9l1.11.28c1.49.35 2.22 1.08 2.22 2.2zm4.57 2.28a3.52 3.52 0 0 1-2.67-1.11 4 4 0 0 1-1.05-2.81 4 4 0 0 1 1-2.8 3.69 3.69 0 0 1 5.22-.06 4.28 4.28 0 0 1 1 3v.15h-5.78a2.39 2.39 0 0 0 .72 1.74 2.33 2.33 0 0 0 3.72-.66l1.23.6a3.61 3.61 0 0 1-1.37 1.45 3.8 3.8 0 0 1-2.02.52zm-2.2-4.8h4.21a1.8 1.8 0 0 0-.62-1.27 2.15 2.15 0 0 0-1.51-.5 2 2 0 0 0-1.34.48 2.32 2.32 0 0 0-.74 1.29z" fill="#767676"/>
</svg>
