<svg xmlns="http://www.w3.org/2000/svg" width="200" height="128">
    <path fill="#767676" d="M47.52 86.33a5.15 5.15 0 01-1.42 3.82 5.56 5.56 0 01-4.21 1.7 6 6 0 110-12 5.92 5.92 0 012.35.48A4.73 4.73 0 0146 81.64l-1 1a3.84 3.84 0 00-3.13-1.36 4.43 4.43 0 00-4.45 4.57 4.39 4.39 0 001.32 3.31 4.57 4.57 0 006.33 0 3.64 3.64 0 001-2.32h-4.18v-1.38h5.55a5.31 5.31 0 01.08.87zM49.49 84.69a4.12 4.12 0 015.79 0 4.48 4.48 0 010 6 4.12 4.12 0 01-5.79 0 4.48 4.48 0 010-6zm1.09 5a2.43 2.43 0 001.8.77 2.4 2.4 0 001.8-.77 3.16 3.16 0 000-4.11 2.41 2.41 0 00-1.8-.78 2.44 2.44 0 00-1.8.78 3.16 3.16 0 000 4.11z"/>
    <path fill="#767676" d="M58.27 84.69a4.12 4.12 0 015.79 0 4.48 4.48 0 010 6 4.12 4.12 0 01-5.79 0 4.51 4.51 0 010-6zm1.1 5a2.49 2.49 0 003.6 0 3.16 3.16 0 000-4.11 2.47 2.47 0 00-3.6 0 3.16 3.16 0 000 4.11z"/>
    <path fill="#767676" d="M69.78 95.3a3.6 3.6 0 01-2.28-.69A4.27 4.27 0 0166.24 93l1.34-.56a2.33 2.33 0 002.2 1.5 2.51 2.51 0 001.91-.73 2.73 2.73 0 00.69-2v-.71h-.06a2.93 2.93 0 01-1.09 1 3.19 3.19 0 01-1.58.39A3.47 3.47 0 0167 90.65a4.57 4.57 0 010-6 3.47 3.47 0 012.63-1.2 3.18 3.18 0 011.58.38 3.11 3.11 0 011.09 1h.06v-1.08h1.41v7.44a3.91 3.91 0 01-1.17 3.07 4.11 4.11 0 01-2.82 1.04zm.11-4.8a2.36 2.36 0 001.77-.76 3.32 3.32 0 000-4.13 2.37 2.37 0 00-1.77-.77 2.34 2.34 0 00-1.76.78 3.22 3.22 0 000 4.11 2.33 2.33 0 001.76.77zM76.88 91.59h-1.47V80.14h1.47zM82 91.85a3.78 3.78 0 01-2.89-1.19 4.17 4.17 0 01-1.11-3 4.31 4.31 0 011.08-2.94 3.51 3.51 0 012.76-1.23 3.64 3.64 0 012.79 1.13 4.31 4.31 0 011.05 3v.27h-6.24a2.69 2.69 0 00.79 1.88 2.41 2.41 0 001.71.68 2.1 2.1 0 002.14-1.34l1.31.54a3.5 3.5 0 01-1.26 1.53 3.69 3.69 0 01-2.13.67zm2.11-5.12a2.06 2.06 0 00-.62-1.28 2.16 2.16 0 00-1.68-.61 2.12 2.12 0 00-1.42.51 2.6 2.6 0 00-.82 1.38zM103.12 80.14l-3.06 11.45h-1.5L96.1 84H96l-2.46 7.55h-1.48l-3.18-11.41h1.54l2.41 9h.07l2.48-7.47h1.37l2.48 7.47h.07l2.28-9zM103.9 84.69a4.13 4.13 0 015.8 0 4.51 4.51 0 010 6 4.13 4.13 0 01-5.8 0 4.51 4.51 0 010-6zm1.1 5a2.49 2.49 0 003.6 0 3.16 3.16 0 000-4.11 2.47 2.47 0 00-3.6 0 3.16 3.16 0 000 4.11zM113.31 91.59h-1.47v-7.84h1.41V85h.06a2 2 0 01.92-1 2.65 2.65 0 011.35-.42 2.8 2.8 0 011.11.19l-.56 1.38a2.14 2.14 0 00-.79-.11 1.92 1.92 0 00-1.41.63 2.26 2.26 0 00-.62 1.65zM119 80.14v7l3.4-3.44h1.88v.07l-3 3.05 3.2 4.66v.06h-1.78l-2.46-3.69-1.24 1.23v2.51h-1.47V80.14z"/>
    <path fill="#767676" d="M127.86 91.85a3.49 3.49 0 01-2.17-.64 3.85 3.85 0 01-1.26-1.6l1.31-.55a2.17 2.17 0 002.13 1.48 1.89 1.89 0 001.13-.31.94.94 0 00.44-.8c0-.51-.36-.86-1.07-1l-1.59-.43a3.78 3.78 0 01-1.42-.73 1.75 1.75 0 01-.67-1.45 2 2 0 01.92-1.69 3.69 3.69 0 012.18-.64 3.6 3.6 0 011.86.47 2.67 2.67 0 011.17 1.35l-1.28.53a1.74 1.74 0 00-1.8-1 2.11 2.11 0 00-1.1.27.83.83 0 00-.45.74c0 .44.35.75 1 .91l1.55.37a2.94 2.94 0 011.64.88 2.1 2.1 0 01.52 1.4 2.15 2.15 0 01-.86 1.76 3.42 3.42 0 01-2.18.68zM136.05 91.85a3.28 3.28 0 01-1.61-.39 2.62 2.62 0 01-1.06-1h-.07l.07 1.09v3.46h-1.48V83.75h1.41v1.09h.07a2.77 2.77 0 011.06-1 3.27 3.27 0 011.61-.38 3.44 3.44 0 012.62 1.2 4.54 4.54 0 010 6 3.44 3.44 0 01-2.62 1.19zm-.24-1.35a2.33 2.33 0 001.76-.77 3.26 3.26 0 000-4.11 2.4 2.4 0 00-3.53 0 3.29 3.29 0 000 4.13 2.35 2.35 0 001.77.75zM143.42 91.85a3.08 3.08 0 01-2.08-.72 2.4 2.4 0 01-.84-1.91 2.34 2.34 0 011-2 4 4 0 012.45-.73 4.18 4.18 0 012.12.48v-.23a1.74 1.74 0 00-.59-1.38 2.1 2.1 0 00-1.45-.52 2.25 2.25 0 00-1.16.3 1.59 1.59 0 00-.72.84l-1.34-.58a3 3 0 011.07-1.3 3.45 3.45 0 012.11-.6 3.6 3.6 0 012.5.88 3.13 3.13 0 011 2.48v4.73h-1.41V90.5H146a2.89 2.89 0 01-2.58 1.35zm.24-1.35a2.38 2.38 0 001.66-.68 2.07 2.07 0 00.74-1.6 2.9 2.9 0 00-1.87-.52 2.42 2.42 0 00-1.61.47 1.38 1.38 0 00-.55 1.09 1.06 1.06 0 00.5.91 2 2 0 001.13.33zM152.46 91.85a3.84 3.84 0 01-2.89-1.19 4.48 4.48 0 010-6 3.8 3.8 0 012.89-1.19 3.54 3.54 0 012.18.64 3.61 3.61 0 011.26 1.61l-1.34.56a2.2 2.2 0 00-2.19-1.47 2.29 2.29 0 00-1.72.8 3.12 3.12 0 000 4.06 2.39 2.39 0 004-.67l1.31.56a3.64 3.64 0 01-3.49 2.26zM160.53 91.85a3.78 3.78 0 01-2.89-1.19 4.17 4.17 0 01-1.11-3 4.31 4.31 0 011.08-2.94 3.51 3.51 0 012.76-1.23 3.64 3.64 0 012.79 1.13 4.31 4.31 0 011.05 3v.27H158a2.69 2.69 0 00.79 1.88 2.41 2.41 0 001.71.68 2.1 2.1 0 002.14-1.34l1.31.54a3.5 3.5 0 01-1.26 1.53 3.69 3.69 0 01-2.16.67zm2.11-5.12a2.06 2.06 0 00-.62-1.28 2.16 2.16 0 00-1.68-.61 2.12 2.12 0 00-1.42.51 2.6 2.6 0 00-.82 1.38zM57.47 108.85l4.32-11.46h1.67l4.32 11.46h-1.64L65 105.74h-4.78l-1.12 3.11zm3.25-4.48h3.81l-1.87-5.17h-.07zM70.34 108.85h-1.48V97.39h1.48zM75.6 109.1a3.78 3.78 0 01-2.89-1.18 4.21 4.21 0 01-1.11-3 4.33 4.33 0 011.08-3 3.51 3.51 0 012.76-1.23 3.61 3.61 0 012.79 1.14 4.31 4.31 0 011 3v.27h-6.16a2.67 2.67 0 00.79 1.87 2.42 2.42 0 001.71.69 2.11 2.11 0 002.14-1.34L79 107a3.43 3.43 0 01-1.26 1.53 3.69 3.69 0 01-2.14.57zm2.11-5.1a2.15 2.15 0 00-.61-1.28 2.23 2.23 0 00-1.69-.6 2.12 2.12 0 00-1.42.51 2.61 2.61 0 00-.82 1.37zM82.1 108.85h-1.48V101H82v1.28h.07a2 2 0 01.92-1.06 2.57 2.57 0 011.35-.41 2.75 2.75 0 011.1.19l-.56 1.37a2.31 2.31 0 00-.78-.11 1.94 1.94 0 00-1.42.63 2.28 2.28 0 00-.61 1.66zM90 109a2.27 2.27 0 01-2.52-2.52v-4.11h-1.4V101h1.38v-2.4h1.47v2.4h1.92v1.34h-1.92v4c0 .85.35 1.28 1 1.28a1.56 1.56 0 00.68-.13l.51 1.27A3 3 0 0190 109zM101.1 109.1a6 6 0 110-12 5.29 5.29 0 014.21 1.9l-1 1a3.87 3.87 0 00-3.19-1.46 4.33 4.33 0 00-3.16 1.27 4.92 4.92 0 000 6.62 4.36 4.36 0 003.16 1.26 4.5 4.5 0 003.52-1.66l1 1a5.56 5.56 0 01-2 1.49 6 6 0 01-2.54.58zM110.35 109.1a3.8 3.8 0 01-2.89-1.18 4.21 4.21 0 01-1.11-3 4.33 4.33 0 011.08-3 3.51 3.51 0 012.76-1.23 3.6 3.6 0 012.79 1.14 4.31 4.31 0 011 3v.27h-6.2a2.68 2.68 0 00.8 1.87 2.38 2.38 0 001.7.69 2.1 2.1 0 002.14-1.34l1.32.54a3.52 3.52 0 01-1.27 1.53 3.65 3.65 0 01-2.12.71zm2.11-5.12a2.09 2.09 0 00-.61-1.28 2.22 2.22 0 00-1.69-.6 2.13 2.13 0 00-1.42.51 2.61 2.61 0 00-.82 1.37zM116.78 101v1.09h.07a2.54 2.54 0 011-1 2.91 2.91 0 011.47-.39 2.75 2.75 0 012.22.9 3.55 3.55 0 01.77 2.4v4.8h-1.47v-4.58c0-1.45-.65-2.17-1.94-2.17a1.83 1.83 0 00-1.49.72 2.68 2.68 0 00-.57 1.69v4.34h-1.47V101zM127 109a2.52 2.52 0 01-1.88-.66 2.55 2.55 0 01-.65-1.86v-4.11h-1.37V101h1.37v-2.4H126v2.4h1.92v1.34H126v4c0 .85.36 1.28 1.06 1.28a1.48 1.48 0 00.67-.13l.51 1.27a2.93 2.93 0 01-1.24.24zM132.79 109.1a3.77 3.77 0 01-2.89-1.18 4.21 4.21 0 01-1.11-3 4.37 4.37 0 011.07-3 3.51 3.51 0 012.76-1.23 3.62 3.62 0 012.8 1.14 4.3 4.3 0 011 3v.27h-6.19a2.63 2.63 0 00.79 1.87 2.38 2.38 0 001.7.69 2.13 2.13 0 002.15-1.34l1.31.54a3.52 3.52 0 01-1.27 1.53 3.64 3.64 0 01-2.12.71zm2.11-5.1a2.16 2.16 0 00-.62-1.28 2.22 2.22 0 00-1.69-.6 2.11 2.11 0 00-1.41.51 2.63 2.63 0 00-.83 1.37zM139.28 108.85h-1.47V101h1.41v1.28h.06a2 2 0 01.92-1.06 2.63 2.63 0 011.35-.41 2.8 2.8 0 011.11.19l-.56 1.37a2.37 2.37 0 00-.79-.11 1.92 1.92 0 00-1.41.63 2.29 2.29 0 00-.62 1.66z"/>
    <path d="M84.55 46a16 16 0 01.81-5l-9.08-7a27.2 27.2 0 000 23.92L85.36 51a16 16 0 01-.81-5z" fill="#fbbc05"/>
    <path d="M76.28 34l9.08 7a15.91 15.91 0 0115.15-10.93 15.66 15.66 0 019.94 3.55l7.85-7.85a27 27 0 00-42 8.29z" fill="#ea4335"/>
    <path d="M109.48 59.6a16.64 16.64 0 01-9 2.35A15.92 15.92 0 0185.35 51l-9.08 7a26.92 26.92 0 0024.24 15 25.71 25.71 0 0017.59-6.73z" fill="#34a853"/>
    <path d="M100.51 41.09v10.43H115a12.15 12.15 0 01-5.51 8.08l8.62 6.67c5-4.61 8.18-11.47 8.18-20.27a22.29 22.29 0 00-.61-4.91z" fill="#4285f4"/>
</svg>
