<svg xmlns="http://www.w3.org/2000/svg" width="200" height="128"><defs><style>.cls-1{fill:#4285f4;}.cls-2{opacity:0.07;isolation:isolate;}.cls-3{fill:#fff;}.cls-4{fill:#767676;}</style></defs><path class="cls-1" d="M126.35,43.51,115.26,24.22a4.86,4.86,0,0,0-4.16-2.48H88.9a4.86,4.86,0,0,0-4.16,2.48L73.64,43.46a4.89,4.89,0,0,0,0,4.83l11.1,19.4a5,5,0,0,0,4.16,2.57h22.19a5,5,0,0,0,4.17-2.55l11.09-19.3A4.93,4.93,0,0,0,126.35,43.51Z"/><path class="cls-2" d="M106.6,36.91,96,40.23l-2.46,1.4L97,45.18l-4.85.29L92.3,50l-2.69,3.41,16.8,16.8h4.68a5,5,0,0,0,4.17-2.56l8.07-14Z"/><rect class="cls-3" x="99.15" y="41.35" width="1.69" height="9.18"/><path class="cls-3" d="M92,45.57h1.3v5.49H91.56V46a.4.4,0,0,1,.39-.39Z"/><path class="cls-3" d="M106.75,45.57H108a.4.4,0,0,1,.4.39h0v5.1h-1.69Z"/><path class="cls-3" d="M92,44.73h16a.42.42,0,0,1,.43.42v1.27H91.56V45.15A.42.42,0,0,1,92,44.73Z"/><rect class="cls-3" x="93.25" y="36.71" width="13.5" height="5.06" rx="0.41"/><rect class="cls-3" x="89.45" y="49.37" width="5.48" height="4.22" rx="0.41"/><rect class="cls-3" x="105.06" y="49.37" width="5.48" height="4.22" rx="0.41"/><rect class="cls-3" x="97.04" y="49.37" width="5.91" height="4.22" rx="0.43"/><path class="cls-4" d="M81.09,89.59a6.7,6.7,0,0,1-3.33-.89,6.46,6.46,0,0,1-2.45-8.91,6.54,6.54,0,0,1,2.45-2.42,6.61,6.61,0,0,1,3.33-.9,6.32,6.32,0,0,1,4.49,1.81l-1.26,1.27a4.56,4.56,0,0,0-3.23-1.28,4.51,4.51,0,0,0-3.35,1.39,4.87,4.87,0,0,0,0,6.75,4.82,4.82,0,0,0,6.23.46,3.78,3.78,0,0,0,1.41-2.64H81.09V82.44h6a6.13,6.13,0,0,1,.1,1.12,5.76,5.76,0,0,1-1.73,4.37A6.11,6.11,0,0,1,81.09,89.59Zm15.25-4.22a4.18,4.18,0,1,1-1.24-3A4,4,0,0,1,96.34,85.37Zm-6.63,0a2.55,2.55,0,0,0,.69,1.82,2.3,2.3,0,0,0,3.38,0,2.56,2.56,0,0,0,.7-1.82,2.48,2.48,0,0,0-.69-1.82,2.31,2.31,0,0,0-3.39,0A2.48,2.48,0,0,0,89.71,85.37Zm15.87,0a4.17,4.17,0,1,1-1.23-3A4,4,0,0,1,105.58,85.37Zm-6.62,0a2.55,2.55,0,0,0,.69,1.82,2.23,2.23,0,0,0,1.69.74,2.19,2.19,0,0,0,1.68-.74,2.57,2.57,0,0,0,.71-1.82,2.48,2.48,0,0,0-.69-1.82,2.31,2.31,0,0,0-3.39,0A2.48,2.48,0,0,0,99,85.37Zm11.47,8a4.18,4.18,0,0,1-2.28-.7,4,4,0,0,1-.85-.78,4.38,4.38,0,0,1-.61-1l1.61-.67a2.71,2.71,0,0,0,.85,1.09,2.15,2.15,0,0,0,1.28.41c1.51,0,2.26-.88,2.26-2.65v-.44h-.07a2.72,2.72,0,0,1-2.22,1,3.91,3.91,0,0,1-2.85-1.23,4.13,4.13,0,0,1-1.2-3,4.18,4.18,0,0,1,1.2-3,3.85,3.85,0,0,1,2.85-1.24,2.74,2.74,0,0,1,2.22.94h.07V81.4h1.76V89a4.6,4.6,0,0,1-1.07,3.25A3.84,3.84,0,0,1,110.43,93.39Zm-2.22-8a2.56,2.56,0,0,0,.67,1.8,2.22,2.22,0,0,0,1.68.74,2.09,2.09,0,0,0,1.6-.72,2.87,2.87,0,0,0,0-3.66,2,2,0,0,0-1.6-.74,2.2,2.2,0,0,0-1.66.75A2.57,2.57,0,0,0,108.21,85.39Zm7.52-8.47h1.85V89.34h-1.85Zm6.94,12.67a4,4,0,0,1-3-1.21,4.13,4.13,0,0,1-1.2-3,4.25,4.25,0,0,1,1.14-3,3.76,3.76,0,0,1,2.84-1.2,3.53,3.53,0,0,1,2.21.74,4.24,4.24,0,0,1,.83.86,4.67,4.67,0,0,1,.58,1.08l.19.48-5.65,2.34a2.17,2.17,0,0,0,2,1.28,2.39,2.39,0,0,0,2.08-1.17l1.44,1A4,4,0,0,1,122.67,89.59Zm-.14-6.81a2.16,2.16,0,0,0-1.57.7,2.31,2.31,0,0,0-.64,1.76l3.78-1.57a1.32,1.32,0,0,0-.6-.64A1.85,1.85,0,0,0,122.53,82.78ZM35.82,106a5.67,5.67,0,0,1-4-9.6,5.33,5.33,0,0,1,4-1.63,5,5,0,0,1,4,1.76l-1,1a3.67,3.67,0,0,0-3-1.39,4,4,0,0,0-3,1.2,4.61,4.61,0,0,0,0,6.18,4,4,0,0,0,3,1.2,4.22,4.22,0,0,0,3.26-1.58l1,1a5.12,5.12,0,0,1-1.87,1.41A5.67,5.67,0,0,1,35.82,106Zm6.87-11v10.74H41.31V95Zm1.19,7.06a3.91,3.91,0,0,1,1.06-2.81,3.67,3.67,0,0,1,2.72-1.1,3.61,3.61,0,0,1,2.7,1.1,3.89,3.89,0,0,1,1.08,2.81,3.84,3.84,0,0,1-1.08,2.81,3.58,3.58,0,0,1-2.7,1.11,3.64,3.64,0,0,1-2.72-1.11A3.91,3.91,0,0,1,43.88,102.06Zm1.38,0A2.69,2.69,0,0,0,46,104a2.35,2.35,0,0,0,3.42,0,2.69,2.69,0,0,0,.69-1.92,2.66,2.66,0,0,0-.69-1.9,2.32,2.32,0,0,0-3.42,0A2.66,2.66,0,0,0,45.26,102.06Zm13.81,3.68H57.75v-1h-.06a2.47,2.47,0,0,1-1,.9,2.8,2.8,0,0,1-1.36.36,2.71,2.71,0,0,1-2.08-.78,3.09,3.09,0,0,1-.73-2.2V98.39h1.38v4.53a1.63,1.63,0,0,0,1.82,1.8,1.74,1.74,0,0,0,1.38-.67,2.43,2.43,0,0,0,.55-1.6V98.39h1.38Zm4.68.24a3.2,3.2,0,0,1-2.47-1.15,4.27,4.27,0,0,1,0-5.54,3.22,3.22,0,0,1,2.47-1.14,3.16,3.16,0,0,1,1.48.34,2.57,2.57,0,0,1,1,.92h.06l-.06-1V95h1.38v10.74H66.32v-1h-.06a2.55,2.55,0,0,1-1,.91A3.17,3.17,0,0,1,63.75,106Zm.23-1.26a2.11,2.11,0,0,0,1.66-.74,3,3,0,0,0,0-3.82A2.11,2.11,0,0,0,64,99.41a2.16,2.16,0,0,0-1.67.75,3,3,0,0,0,0,3.81A2.16,2.16,0,0,0,64,104.72Zm14.91,1h-6V95h1.38v9.42h4.65Zm.78-3.68a3.91,3.91,0,0,1,1.06-2.81,3.67,3.67,0,0,1,2.72-1.1,3.61,3.61,0,0,1,2.7,1.1,3.89,3.89,0,0,1,1.08,2.81,3.84,3.84,0,0,1-1.08,2.81,3.58,3.58,0,0,1-2.7,1.11,3.64,3.64,0,0,1-2.72-1.11A3.91,3.91,0,0,1,79.67,102.06Zm1.38,0a2.69,2.69,0,0,0,.69,1.92,2.35,2.35,0,0,0,3.42,0,2.69,2.69,0,0,0,.69-1.92,2.66,2.66,0,0,0-.69-1.9,2.32,2.32,0,0,0-3.42,0A2.66,2.66,0,0,0,81.05,102.06Zm10.23-3.91a3.43,3.43,0,0,1,2.41.81,2.93,2.93,0,0,1,.89,2.25v4.53H93.26v-1H93.2A2.63,2.63,0,0,1,90.92,106a2.91,2.91,0,0,1-2-.73,2.25,2.25,0,0,1-.82-1.79,2.21,2.21,0,0,1,.86-1.82,3.64,3.64,0,0,1,2.3-.67,4.09,4.09,0,0,1,2,.45v-.32a1.56,1.56,0,0,0-.57-1.22,1.94,1.94,0,0,0-1.34-.5,2.11,2.11,0,0,0-1.83,1l-1.21-.77A3.38,3.38,0,0,1,91.28,98.15Zm-1.79,5.34a1.12,1.12,0,0,0,.46.9,1.75,1.75,0,0,0,1.07.36,2.23,2.23,0,0,0,1.56-.65,2,2,0,0,0,.68-1.52,2.9,2.9,0,0,0-1.8-.5,2.32,2.32,0,0,0-1.4.4A1.21,1.21,0,0,0,89.49,103.49ZM99.14,106a3.22,3.22,0,0,1-2.48-1.15,4.27,4.27,0,0,1,0-5.54,3.24,3.24,0,0,1,2.48-1.14,3.19,3.19,0,0,1,1.48.34,2.61,2.61,0,0,1,1,.92h.06l-.06-1V95H103v10.74H101.7v-1h-.06a2.59,2.59,0,0,1-1,.91A3.2,3.2,0,0,1,99.14,106Zm.22-1.26A2.13,2.13,0,0,0,101,104a3.06,3.06,0,0,0,0-3.82,2.22,2.22,0,0,0-3.33,0,3,3,0,0,0,0,3.81A2.14,2.14,0,0,0,99.36,104.72Zm8.88,1V95h3.89a3.16,3.16,0,0,1,2.19.83,2.71,2.71,0,0,1,.91,2.09,2.27,2.27,0,0,1-1.45,2.24v.06a2.62,2.62,0,0,1,1.32.93,2.52,2.52,0,0,1,.49,1.53,2.83,2.83,0,0,1-1,2.19,3.22,3.22,0,0,1-2.29.87Zm1.38-9.42V99.6h2.51a1.67,1.67,0,0,0,1.23-.49,1.61,1.61,0,0,0,0-2.3,1.57,1.57,0,0,0-1.18-.49Zm0,4.57v3.53h2.78a1.78,1.78,0,0,0,1.78-1.77,1.68,1.68,0,0,0-.52-1.23,1.79,1.79,0,0,0-1.32-.53Zm10.08-2.74a3.45,3.45,0,0,1,2.42.81,2.92,2.92,0,0,1,.88,2.25v4.53h-1.32v-1h-.06a2.63,2.63,0,0,1-2.28,1.26,2.91,2.91,0,0,1-2-.73,2.25,2.25,0,0,1-.82-1.79,2.21,2.21,0,0,1,.86-1.82,3.67,3.67,0,0,1,2.31-.67,4.05,4.05,0,0,1,2,.45v-.32a1.56,1.56,0,0,0-.57-1.22,1.92,1.92,0,0,0-1.33-.5,2.11,2.11,0,0,0-1.83,1l-1.22-.77A3.38,3.38,0,0,1,119.7,98.15Zm-1.78,5.34a1.09,1.09,0,0,0,.46.9,1.73,1.73,0,0,0,1.07.36,2.21,2.21,0,0,0,1.55-.65,2,2,0,0,0,.68-1.52,2.9,2.9,0,0,0-1.8-.5,2.32,2.32,0,0,0-1.4.4A1.2,1.2,0,0,0,117.92,103.49Zm8-8.49v10.74h-1.38V95Zm4.4,3.15a3.43,3.43,0,0,1,2.41.81,2.93,2.93,0,0,1,.89,2.25v4.53h-1.32v-1h-.06A2.63,2.63,0,0,1,130,106a3,3,0,0,1-2-.73,2.27,2.27,0,0,1-.81-1.79,2.21,2.21,0,0,1,.86-1.82,3.62,3.62,0,0,1,2.3-.67,4.09,4.09,0,0,1,2,.45v-.32a1.56,1.56,0,0,0-.57-1.22,1.94,1.94,0,0,0-1.34-.5,2.11,2.11,0,0,0-1.83,1l-1.21-.77A3.38,3.38,0,0,1,130.34,98.15Zm-1.79,5.34a1.12,1.12,0,0,0,.46.9,1.73,1.73,0,0,0,1.07.36,2.23,2.23,0,0,0,1.56-.65,2,2,0,0,0,.68-1.52,2.9,2.9,0,0,0-1.8-.5,2.32,2.32,0,0,0-1.4.4A1.21,1.21,0,0,0,128.55,103.49Zm6.65-5.1h1.32v1h.06a2.49,2.49,0,0,1,1-.91,2.9,2.9,0,0,1,1.36-.35,2.71,2.71,0,0,1,2.08.77,3.1,3.1,0,0,1,.73,2.2v4.62h-1.38v-4.53a1.62,1.62,0,0,0-1.82-1.8,1.73,1.73,0,0,0-1.38.66,2.43,2.43,0,0,0-.55,1.6v4.07H135.2ZM146.69,106a3.64,3.64,0,0,1-2.72-1.11,4,4,0,0,1-1.06-2.81A3.91,3.91,0,0,1,144,99.25a3.67,3.67,0,0,1,2.72-1.1,3.36,3.36,0,0,1,3.22,2.11l-1.26.53a2.07,2.07,0,0,0-2.05-1.38,2.14,2.14,0,0,0-1.64.76,3,3,0,0,0,0,3.78,2.25,2.25,0,0,0,3.77-.62l1.23.53a3.3,3.3,0,0,1-1.27,1.55A3.55,3.55,0,0,1,146.69,106Zm6.25-10.13a1,1,0,1,1-.28-.69A.94.94,0,0,1,152.94,95.85Zm-.28,2.54v7.35h-1.38V98.39Zm1.8,0h1.32v1h.06a2.49,2.49,0,0,1,1-.91,2.9,2.9,0,0,1,1.36-.35,2.71,2.71,0,0,1,2.08.77,3.1,3.1,0,0,1,.73,2.2v4.62h-1.38v-4.53a1.62,1.62,0,0,0-1.82-1.8,1.73,1.73,0,0,0-1.38.66,2.43,2.43,0,0,0-.55,1.6v4.07h-1.38Zm11.31,10.83a4.33,4.33,0,0,1-1.16-.16,3.8,3.8,0,0,1-1-.44,3.33,3.33,0,0,1-.76-.68,2.85,2.85,0,0,1-.48-.87l1.31-.54a2.08,2.08,0,0,0,.78,1,2.19,2.19,0,0,0,1.29.39,2.27,2.27,0,0,0,1.75-.68,2.62,2.62,0,0,0,.63-1.86v-.7h-.06a2.72,2.72,0,0,1-1.06.92,3.18,3.18,0,0,1-1.44.34,3.26,3.26,0,0,1-2.48-1.13,4.07,4.07,0,0,1-1-2.79,4,4,0,0,1,1-2.77,3.24,3.24,0,0,1,2.48-1.14,3.17,3.17,0,0,1,1.44.33,2.74,2.74,0,0,1,1.06.93h.06v-1h1.32v7a3.76,3.76,0,0,1-1,2.78A3.65,3.65,0,0,1,165.77,109.22Zm0-4.5a2.13,2.13,0,0,0,1.67-.74,3.06,3.06,0,0,0,0-3.82,2.22,2.22,0,0,0-3.33,0,3,3,0,0,0,0,3.81A2.14,2.14,0,0,0,165.81,104.72Z"/></svg>