<svg xmlns="http://www.w3.org/2000/svg" width="200" height="128"><defs><style>.cls-1{fill:#4285f4;}.cls-2{opacity:0.07;isolation:isolate;}.cls-3{fill:#fff;}.cls-4{fill:#767676;}</style></defs><path class="cls-1" d="M126.35,43.51,115.26,24.22a4.86,4.86,0,0,0-4.16-2.48H88.9a4.86,4.86,0,0,0-4.16,2.48L73.64,43.46a4.89,4.89,0,0,0,0,4.83l11.1,19.4a5,5,0,0,0,4.16,2.57h22.19a5,5,0,0,0,4.17-2.55l11.09-19.3A4.93,4.93,0,0,0,126.35,43.51Z"/><path class="cls-2" d="M106.9,34l-6.85,1.61-7-1.61,3.82,3.82-6.19,5.7,1.63,1.63-1.52,2,1.9,1.9-2,2.34,5.84,5.82-3.47.87,12.19,12.19h5.81a5,5,0,0,0,4.17-2.56l9.24-16.06Z"/><g id="art"><circle class="cls-3" cx="108.08" cy="46.06" r="1.51"/><circle class="cls-3" cx="91.91" cy="46.06" r="1.51"/><circle class="cls-3" cx="100" cy="43.8" r="1.51"/><circle class="cls-3" cx="100" cy="48.32" r="1.51"/><polygon class="cls-3" points="102.27 36.71 106.9 34.03 104.66 32.74 104.6 32.74 100 35.4 100 35.4 100 35.4 95.39 32.74 95.34 32.74 93.09 34.03 97.72 36.71 90.74 40.72 90.74 43.55 93.12 43.55 93.12 42.03 98.85 38.68 98.85 41.14 101.14 41.14 101.14 38.68 106.86 42.03 106.86 43.55 109.26 43.55 109.26 40.72 102.27 36.71"/><polygon class="cls-3" points="106.86 50.06 101.14 53.41 101.14 50.97 98.85 50.97 98.85 53.41 93.12 50.06 93.12 48.54 90.74 48.54 90.74 51.37 97.73 55.38 93.09 58.06 95.34 59.35 95.39 59.35 100 56.7 104.6 59.35 104.66 59.35 106.9 58.06 102.26 55.38 109.26 51.37 109.26 48.54 106.86 48.54 106.86 50.06"/></g><path class="cls-4" d="M81.09,89.59a6.7,6.7,0,0,1-3.33-.89,6.46,6.46,0,0,1-2.45-8.91,6.54,6.54,0,0,1,2.45-2.42,6.61,6.61,0,0,1,3.33-.9,6.32,6.32,0,0,1,4.49,1.81l-1.26,1.27a4.56,4.56,0,0,0-3.23-1.28,4.51,4.51,0,0,0-3.35,1.39,4.87,4.87,0,0,0,0,6.75,4.82,4.82,0,0,0,6.23.46,3.78,3.78,0,0,0,1.41-2.64H81.09V82.44h6a6.13,6.13,0,0,1,.1,1.12,5.76,5.76,0,0,1-1.73,4.37A6.11,6.11,0,0,1,81.09,89.59Zm15.25-4.22a4.18,4.18,0,1,1-1.24-3A4,4,0,0,1,96.34,85.37Zm-6.63,0a2.55,2.55,0,0,0,.69,1.82,2.3,2.3,0,0,0,3.38,0,2.56,2.56,0,0,0,.7-1.82,2.48,2.48,0,0,0-.69-1.82,2.31,2.31,0,0,0-3.39,0A2.48,2.48,0,0,0,89.71,85.37Zm15.87,0a4.17,4.17,0,1,1-1.23-3A4,4,0,0,1,105.58,85.37Zm-6.62,0a2.55,2.55,0,0,0,.69,1.82,2.23,2.23,0,0,0,1.69.74,2.19,2.19,0,0,0,1.68-.74,2.57,2.57,0,0,0,.71-1.82,2.48,2.48,0,0,0-.69-1.82,2.31,2.31,0,0,0-3.39,0A2.48,2.48,0,0,0,99,85.37Zm11.47,8a4.18,4.18,0,0,1-2.28-.7,4,4,0,0,1-.85-.78,4.38,4.38,0,0,1-.61-1l1.61-.67a2.71,2.71,0,0,0,.85,1.09,2.15,2.15,0,0,0,1.28.41c1.51,0,2.26-.88,2.26-2.65v-.44h-.07a2.72,2.72,0,0,1-2.22,1,3.91,3.91,0,0,1-2.85-1.23,4.13,4.13,0,0,1-1.2-3,4.18,4.18,0,0,1,1.2-3,3.85,3.85,0,0,1,2.85-1.24,2.74,2.74,0,0,1,2.22.94h.07V81.4h1.76V89a4.6,4.6,0,0,1-1.07,3.25A3.84,3.84,0,0,1,110.43,93.39Zm-2.22-8a2.56,2.56,0,0,0,.67,1.8,2.22,2.22,0,0,0,1.68.74,2.09,2.09,0,0,0,1.6-.72,2.87,2.87,0,0,0,0-3.66,2,2,0,0,0-1.6-.74,2.2,2.2,0,0,0-1.66.75A2.57,2.57,0,0,0,108.21,85.39Zm7.52-8.47h1.85V89.34h-1.85Zm6.94,12.67a4,4,0,0,1-3-1.21,4.13,4.13,0,0,1-1.2-3,4.25,4.25,0,0,1,1.14-3,3.76,3.76,0,0,1,2.84-1.2,3.53,3.53,0,0,1,2.21.74,4.24,4.24,0,0,1,.83.86,4.67,4.67,0,0,1,.58,1.08l.19.48-5.65,2.34a2.17,2.17,0,0,0,2,1.28,2.39,2.39,0,0,0,2.08-1.17l1.44,1A4,4,0,0,1,122.67,89.59Zm-.14-6.81a2.16,2.16,0,0,0-1.57.7,2.31,2.31,0,0,0-.64,1.76l3.78-1.57a1.32,1.32,0,0,0-.6-.64A1.85,1.85,0,0,0,122.53,82.78ZM55.79,106a5.67,5.67,0,0,1-4-9.6,5.32,5.32,0,0,1,4-1.63,5,5,0,0,1,4,1.76l-1,1a3.66,3.66,0,0,0-3-1.39,4,4,0,0,0-3,1.2,4.61,4.61,0,0,0,0,6.18,4,4,0,0,0,3,1.2,4.22,4.22,0,0,0,3.26-1.58l1,1a5.24,5.24,0,0,1-1.88,1.41A5.63,5.63,0,0,1,55.79,106Zm6.88-11v10.74H61.29V95Zm1.18,7.06a3.92,3.92,0,0,1,1.07-2.81,3.65,3.65,0,0,1,2.71-1.1,3.61,3.61,0,0,1,2.7,1.1,3.89,3.89,0,0,1,1.08,2.81,3.84,3.84,0,0,1-1.08,2.81,3.58,3.58,0,0,1-2.7,1.11,3.62,3.62,0,0,1-2.71-1.11A3.92,3.92,0,0,1,63.85,102.06Zm1.38,0a2.69,2.69,0,0,0,.69,1.92,2.35,2.35,0,0,0,3.42,0,2.69,2.69,0,0,0,.69-1.92,2.66,2.66,0,0,0-.69-1.9,2.32,2.32,0,0,0-3.42,0A2.66,2.66,0,0,0,65.23,102.06Zm13.82,3.68H77.73v-1h-.06a2.5,2.5,0,0,1-1,.9,2.8,2.8,0,0,1-1.36.36,2.71,2.71,0,0,1-2.08-.78,3.09,3.09,0,0,1-.72-2.2V98.39h1.38v4.53a1.62,1.62,0,0,0,1.81,1.8,1.74,1.74,0,0,0,1.38-.67,2.44,2.44,0,0,0,.56-1.6V98.39h1.38Zm4.68.24a3.22,3.22,0,0,1-2.48-1.15,4.27,4.27,0,0,1,0-5.54,3.24,3.24,0,0,1,2.48-1.14,3.12,3.12,0,0,1,1.47.34,2.57,2.57,0,0,1,1,.92h.06l-.06-1V95h1.38v10.74H86.29v-1h-.06a2.55,2.55,0,0,1-1,.91A3.13,3.13,0,0,1,83.73,106Zm.22-1.26a2.13,2.13,0,0,0,1.67-.74,3.06,3.06,0,0,0,0-3.82,2.22,2.22,0,0,0-3.33,0,3,3,0,0,0,0,3.81A2.14,2.14,0,0,0,84,104.72Zm8.88,1V95h3.29a5.37,5.37,0,0,1,3.95,1.48,5.82,5.82,0,0,1,0,7.78,5.41,5.41,0,0,1-3.95,1.48Zm1.38-9.42v8.1h1.91a4.05,4.05,0,1,0,0-8.1Zm11.53,1.83a3.45,3.45,0,0,1,2.42.81,2.92,2.92,0,0,1,.88,2.25v4.53h-1.32v-1h-.06a2.63,2.63,0,0,1-2.28,1.26,2.93,2.93,0,0,1-2-.73,2.28,2.28,0,0,1-.82-1.79,2.19,2.19,0,0,1,.87-1.82,3.62,3.62,0,0,1,2.3-.67,4.05,4.05,0,0,1,2,.45v-.32a1.56,1.56,0,0,0-.57-1.22,1.92,1.92,0,0,0-1.33-.5,2.11,2.11,0,0,0-1.83,1l-1.22-.77A3.38,3.38,0,0,1,105.74,98.15ZM104,103.49a1.09,1.09,0,0,0,.46.9,1.73,1.73,0,0,0,1.07.36,2.19,2.19,0,0,0,1.55-.65,2,2,0,0,0,.68-1.52,2.9,2.9,0,0,0-1.8-.5,2.34,2.34,0,0,0-1.4.4A1.22,1.22,0,0,0,104,103.49Zm9.4,2.37a2.1,2.1,0,0,1-1.49-.56,2.08,2.08,0,0,1-.61-1.55v-4.1H110V98.39h1.29V96.14h1.38v2.25h1.8v1.26h-1.8v3.66a1.31,1.31,0,0,0,.29,1,.9.9,0,0,0,.64.27,1.86,1.86,0,0,0,.33,0l.29-.1.43,1.23A3.7,3.7,0,0,1,113.36,105.86Zm5-7.71a3.45,3.45,0,0,1,2.42.81,2.93,2.93,0,0,1,.89,2.25v4.53h-1.33v-1h-.06A2.63,2.63,0,0,1,118,106a2.93,2.93,0,0,1-2-.73,2.28,2.28,0,0,1-.82-1.79,2.19,2.19,0,0,1,.87-1.82,3.62,3.62,0,0,1,2.3-.67,4.05,4.05,0,0,1,2,.45v-.32a1.56,1.56,0,0,0-.57-1.22,1.92,1.92,0,0,0-1.33-.5,2.11,2.11,0,0,0-1.83,1l-1.21-.77A3.35,3.35,0,0,1,118.4,98.15Zm-1.78,5.34a1.09,1.09,0,0,0,.46.9,1.73,1.73,0,0,0,1.07.36,2.19,2.19,0,0,0,1.55-.65,2,2,0,0,0,.68-1.52,2.9,2.9,0,0,0-1.8-.5,2.34,2.34,0,0,0-1.4.4A1.22,1.22,0,0,0,116.62,103.49Zm9.88-8.61a2.61,2.61,0,0,1,1.23.25l-.37,1.22a1.79,1.79,0,0,0-.81-.18,1,1,0,0,0-.83.35,1.31,1.31,0,0,0-.32.94v.93h1.91v1.26H125.4v6.09H124V99.65h-1.39V98.39H124V97.32a2.37,2.37,0,0,1,.69-1.77A2.47,2.47,0,0,1,126.5,94.88ZM130,95v10.74h-1.39V95Zm1.18,7.06a3.92,3.92,0,0,1,1.07-2.81,3.65,3.65,0,0,1,2.71-1.1,3.61,3.61,0,0,1,2.7,1.1,3.89,3.89,0,0,1,1.08,2.81,3.84,3.84,0,0,1-1.08,2.81A3.58,3.58,0,0,1,135,106a3.62,3.62,0,0,1-2.71-1.11A3.92,3.92,0,0,1,131.2,102.06Zm1.38,0a2.69,2.69,0,0,0,.69,1.92,2.35,2.35,0,0,0,3.42,0,2.69,2.69,0,0,0,.69-1.92,2.66,2.66,0,0,0-.69-1.9,2.32,2.32,0,0,0-3.42,0A2.66,2.66,0,0,0,132.58,102.06Zm17.7-3.67-2.37,7.35H146.5l-1.83-5.64-1.81,5.64h-1.4l-2.37-7.35h1.44l1.64,5.55h0L144,98.39h1.42l1.82,5.55h0l1.62-5.55Z"/></svg>