<svg xmlns="http://www.w3.org/2000/svg" width="200" height="128">
	<defs>
		<style>
			.cls-3{fill:#fff}
		</style>
	</defs>
	<path d="m126.35 43.51-11.09-19.29a4.86 4.86 0 0 0-4.16-2.48H88.9a4.86 4.86 0 0 0-4.16 2.48l-11.1 19.24a4.89 4.89 0 0 0 0 4.83l11.1 19.4a5 5 0 0 0 4.16 2.57h22.19a5 5 0 0 0 4.17-2.55l11.09-19.3a4.93 4.93 0 0 0 0-4.9Z" style="fill:#4285f4"/>
	<path d="m104.22 36.29-4.4-.76-4 4.43 2.46 2.46-1.69 2-2.67-2.62-5.1 2.93 1.47 5.48 20 20h.76a5 5 0 0 0 4.17-2.56l7.43-12.93Z" style="opacity:.07;isolation:isolate"/>
	<path class="cls-3" d="M106.25 46 100 52.24 93.75 46l6.25-6.25ZM100 50l4-4-4-4.05L96 46Z"/>
	<path class="cls-3" d="M106.02 50.2h3.69l4.21-4.21-4.21-4.2h-3.69l4.21 4.2-4.21 4.21z"/>
	<path class="cls-3" d="M95.79 52.02v3.69l4.21 4.2 4.2-4.2v-3.69l-4.2 4.2-4.21-4.2z"/>
	<path class="cls-3" d="m100 32.07-4.21 4.21v3.69l4.21-4.21 4.2 4.21v-3.69l-4.2-4.21z"/>
	<path class="cls-3" d="M93.97 41.79h-3.69l-4.2 4.2 4.2 4.21h3.69l-4.2-4.21 4.2-4.2z"/>
	<path d="M81.09 89.59a6.7 6.7 0 0 1-3.33-.89 6.46 6.46 0 0 1-2.45-8.91 6.54 6.54 0 0 1 2.45-2.42 6.61 6.61 0 0 1 3.33-.9 6.32 6.32 0 0 1 4.49 1.81l-1.26 1.27a4.56 4.56 0 0 0-3.23-1.28 4.51 4.51 0 0 0-3.35 1.39 4.87 4.87 0 0 0 0 6.75 4.82 4.82 0 0 0 6.23.46 3.78 3.78 0 0 0 1.41-2.64h-4.29v-1.79h6a6.13 6.13 0 0 1 .1 1.12 5.76 5.76 0 0 1-1.73 4.37 6.11 6.11 0 0 1-4.37 1.66Zm15.25-4.22a4.18 4.18 0 1 1-1.24-3 4 4 0 0 1 1.24 3Zm-6.63 0a2.55 2.55 0 0 0 .69 1.82 2.3 2.3 0 0 0 3.38 0 2.56 2.56 0 0 0 .7-1.82 2.48 2.48 0 0 0-.69-1.82 2.31 2.31 0 0 0-3.39 0 2.48 2.48 0 0 0-.69 1.82Zm15.87 0a4.17 4.17 0 1 1-1.23-3 4 4 0 0 1 1.23 3Zm-6.62 0a2.55 2.55 0 0 0 .69 1.82 2.23 2.23 0 0 0 1.69.74 2.19 2.19 0 0 0 1.68-.74 2.57 2.57 0 0 0 .71-1.82 2.48 2.48 0 0 0-.69-1.82 2.31 2.31 0 0 0-3.39 0 2.48 2.48 0 0 0-.65 1.82Zm11.47 8a4.18 4.18 0 0 1-2.28-.7 4 4 0 0 1-.85-.78 4.38 4.38 0 0 1-.61-1l1.61-.67a2.71 2.71 0 0 0 .85 1.09 2.15 2.15 0 0 0 1.28.41c1.51 0 2.26-.88 2.26-2.65v-.44h-.07a2.72 2.72 0 0 1-2.22 1 3.91 3.91 0 0 1-2.85-1.23 4.13 4.13 0 0 1-1.2-3 4.18 4.18 0 0 1 1.2-3 3.85 3.85 0 0 1 2.85-1.24 2.74 2.74 0 0 1 2.22.94h.07v-.7h1.76V89a4.6 4.6 0 0 1-1.07 3.25 3.84 3.84 0 0 1-2.95 1.14Zm-2.22-8a2.56 2.56 0 0 0 .67 1.8 2.22 2.22 0 0 0 1.68.74 2.09 2.09 0 0 0 1.6-.72 2.87 2.87 0 0 0 0-3.66 2 2 0 0 0-1.6-.74 2.2 2.2 0 0 0-1.66.75 2.57 2.57 0 0 0-.69 1.85Zm7.52-8.47h1.85v12.44h-1.85Zm6.94 12.67a4 4 0 0 1-3-1.21 4.13 4.13 0 0 1-1.2-3 4.25 4.25 0 0 1 1.14-3 3.76 3.76 0 0 1 2.84-1.2 3.53 3.53 0 0 1 2.21.74 4.24 4.24 0 0 1 .83.86 4.67 4.67 0 0 1 .58 1.08l.19.48-5.65 2.34a2.17 2.17 0 0 0 2 1.28 2.39 2.39 0 0 0 2.08-1.17l1.44 1a4 4 0 0 1-3.46 1.82Zm-.14-6.81a2.16 2.16 0 0 0-1.57.7 2.31 2.31 0 0 0-.64 1.76l3.78-1.57a1.32 1.32 0 0 0-.6-.64 1.85 1.85 0 0 0-.97-.23ZM70.89 106a5.67 5.67 0 0 1-4-9.6 5.33 5.33 0 0 1 4-1.63 5 5 0 0 1 4 1.76l-1 1a3.67 3.67 0 0 0-3-1.39 4 4 0 0 0-3 1.2 4.61 4.61 0 0 0 0 6.18 4 4 0 0 0 3 1.2 4.22 4.22 0 0 0 3.26-1.58l1 1a5.12 5.12 0 0 1-1.87 1.41 5.67 5.67 0 0 1-2.39.45Zm6.87-11v10.74h-1.38V95Zm1.24 7.06a3.91 3.91 0 0 1 1-2.81 3.67 3.67 0 0 1 2.72-1.1 3.61 3.61 0 0 1 2.7 1.1 3.89 3.89 0 0 1 1.08 2.81 3.84 3.84 0 0 1-1.08 2.81 3.58 3.58 0 0 1-2.7 1.11 3.64 3.64 0 0 1-2.72-1.11 3.91 3.91 0 0 1-1-2.81Zm1.38 0A2.69 2.69 0 0 0 81 104a2.35 2.35 0 0 0 3.42 0 2.69 2.69 0 0 0 .69-1.92 2.66 2.66 0 0 0-.69-1.9 2.32 2.32 0 0 0-3.42 0 2.66 2.66 0 0 0-.67 1.88Zm13.81 3.68h-1.37v-1h-.06a2.47 2.47 0 0 1-1 .9 2.8 2.8 0 0 1-1.36.36 2.71 2.71 0 0 1-2.08-.78 3.09 3.09 0 0 1-.73-2.2v-4.63H89v4.53a1.63 1.63 0 0 0 1.82 1.8 1.74 1.74 0 0 0 1.38-.67 2.43 2.43 0 0 0 .55-1.6v-4.06h1.38Zm4.68.24a3.2 3.2 0 0 1-2.47-1.15 4.27 4.27 0 0 1 0-5.54 3.22 3.22 0 0 1 2.47-1.14 3.16 3.16 0 0 1 1.48.34 2.57 2.57 0 0 1 1 .92h.06l-.06-1V95h1.38v10.74h-1.32v-1h-.06a2.55 2.55 0 0 1-1 .91 3.17 3.17 0 0 1-1.53.35Zm.23-1.26a2.11 2.11 0 0 0 1.66-.74 3 3 0 0 0 0-3.82 2.11 2.11 0 0 0-1.66-.75 2.16 2.16 0 0 0-1.67.75 3 3 0 0 0 0 3.81 2.16 2.16 0 0 0 1.62.75Zm9.06 1h-1.53l4-10.74h1.56l4 10.74h-1.53l-1-2.91h-4.51Zm3.27-9-1.76 4.85h3.57l-1.75-4.85Zm7.5 4.7v4.35h-1.43V95h3.66a3.31 3.31 0 0 1 2.37.93 3.1 3.1 0 0 1 0 4.54 3.31 3.31 0 0 1-2.37.92Zm0-5.07v3.75h2.31a1.91 1.91 0 0 0 1.92-1.88 1.93 1.93 0 0 0-1.92-1.87Zm8.46 9.42H126V95h1.38Zm7.54-2a2 2 0 0 1-.84 1.62 3.64 3.64 0 0 1-4.06.08 3.25 3.25 0 0 1-1.2-1.52l1.23-.53a2.29 2.29 0 0 0 .79 1 1.93 1.93 0 0 0 1.13.37 2 2 0 0 0 1.1-.29.79.79 0 0 0 .44-.67c0-.47-.36-.82-1.08-1l-1.26-.31c-1.43-.36-2.14-1-2.14-2.07a1.92 1.92 0 0 1 .82-1.62 3.43 3.43 0 0 1 2.09-.6 3.38 3.38 0 0 1 1.76.46 2.51 2.51 0 0 1 1.1 1.25l-1.23.51a1.5 1.5 0 0 0-.68-.73 2.08 2.08 0 0 0-1.06-.26 1.74 1.74 0 0 0-1 .27.77.77 0 0 0-.43.66c0 .42.39.72 1.18.9l1.11.28c1.45.28 2.18 1.01 2.18 2.13Z" style="fill:#767676"/>
</svg>
