<svg xmlns="http://www.w3.org/2000/svg" width="200" height="128"><defs><style>.cls-1{fill:#4285f4;}.cls-2{opacity:0.07;isolation:isolate;}.cls-3{fill:#fff;}.cls-4{fill:none;}.cls-5{fill:#767676;}</style></defs><g id="BASE"><path id="path3072" class="cls-1" d="M84.72,67.5,73.65,48.31a4.83,4.83,0,0,1,0-4.85L84.72,24.28a4.86,4.86,0,0,1,4.21-2.42h22.14a4.86,4.86,0,0,1,4.21,2.42l11.07,19.18a4.83,4.83,0,0,1,0,4.85L115.28,67.5a4.86,4.86,0,0,1-4.21,2.42H88.93A4.86,4.86,0,0,1,84.72,67.5Z"/></g><path class="cls-2" d="M115.72,45l-.29-.09L100.71,30.22l-3,4.42,2.53,2.53-6.44,2.35-2.54,6.4-2.47-2.47-4.43,3.91,22.78,22.78h4a5,5,0,0,0,4.17-2.55L123.66,53Z"/><g id="art"><g id="g3086"><path id="path3088" class="cls-3" d="M100,36.17a9.72,9.72,0,1,0,9.72,9.72A9.72,9.72,0,0,0,100,36.17m0,17.1a7.38,7.38,0,1,1,7.38-7.38A7.38,7.38,0,0,1,100,53.27"/><path id="path3090" class="cls-3" d="M115.25,44.74l-4.06-1.28a11.52,11.52,0,0,1,.26,2.43,12.08,12.08,0,0,1-.12,1.71h3.92a.71.71,0,0,0,.6-.66V45.4a.71.71,0,0,0-.6-.66"/><path id="path3092" class="cls-3" d="M100,34.43a11.62,11.62,0,0,1,2.37.25l-1.45-4c-.11-.36-.33-.6-.67-.6h-.6a.71.71,0,0,0-.67.6l-1.26,4a11.37,11.37,0,0,1,2.28-.23"/><path id="path3094" class="cls-3" d="M88.54,45.89a12.22,12.22,0,0,1,.26-2.43l-4,1.28a.71.71,0,0,0-.6.66v1.54a.71.71,0,0,0,.6.66h3.92a12.08,12.08,0,0,1-.13-1.71"/><path id="path3096" class="cls-3" d="M103.47,42.72l-.92.92h0a3.5,3.5,0,0,0-5,5l-.92.92a4.8,4.8,0,1,0,6.79-6.79m-1.9,4.74a2.2,2.2,0,0,1-3.14,0,2.22,2.22,0,0,1,0-3.14,2.2,2.2,0,0,1,3.14,0,2.22,2.22,0,0,1,0,3.14"/></g></g><path class="cls-4" d="M84.72,67.5,73.65,48.31a4.83,4.83,0,0,1,0-4.85L84.72,24.28a4.86,4.86,0,0,1,4.21-2.42h22.14a4.86,4.86,0,0,1,4.21,2.42l11.07,19.18a4.83,4.83,0,0,1,0,4.85L115.28,67.5a4.86,4.86,0,0,1-4.21,2.42H88.93A4.86,4.86,0,0,1,84.72,67.5Z"/><path class="cls-5" d="M81.09,89.59a6.7,6.7,0,0,1-3.33-.89,6.46,6.46,0,0,1-2.45-8.91,6.54,6.54,0,0,1,2.45-2.42,6.61,6.61,0,0,1,3.33-.9,6.32,6.32,0,0,1,4.49,1.81l-1.26,1.27a4.56,4.56,0,0,0-3.23-1.28,4.51,4.51,0,0,0-3.35,1.39,4.87,4.87,0,0,0,0,6.75,4.82,4.82,0,0,0,6.23.46,3.78,3.78,0,0,0,1.41-2.64H81.09V82.44h6a6.13,6.13,0,0,1,.1,1.12,5.76,5.76,0,0,1-1.73,4.37A6.11,6.11,0,0,1,81.09,89.59Zm15.25-4.22a4.18,4.18,0,1,1-1.24-3A4,4,0,0,1,96.34,85.37Zm-6.63,0a2.55,2.55,0,0,0,.69,1.82,2.3,2.3,0,0,0,3.38,0,2.56,2.56,0,0,0,.7-1.82,2.48,2.48,0,0,0-.69-1.82,2.31,2.31,0,0,0-3.39,0A2.48,2.48,0,0,0,89.71,85.37Zm15.87,0a4.17,4.17,0,1,1-1.23-3A4,4,0,0,1,105.58,85.37Zm-6.62,0a2.55,2.55,0,0,0,.69,1.82,2.23,2.23,0,0,0,1.69.74,2.19,2.19,0,0,0,1.68-.74,2.57,2.57,0,0,0,.71-1.82,2.48,2.48,0,0,0-.69-1.82,2.31,2.31,0,0,0-3.39,0A2.48,2.48,0,0,0,99,85.37Zm11.47,8a4.18,4.18,0,0,1-2.28-.7,4,4,0,0,1-.85-.78,4.38,4.38,0,0,1-.61-1l1.61-.67a2.71,2.71,0,0,0,.85,1.09,2.15,2.15,0,0,0,1.28.41c1.51,0,2.26-.88,2.26-2.65v-.44h-.07a2.72,2.72,0,0,1-2.22,1,3.91,3.91,0,0,1-2.85-1.23,4.13,4.13,0,0,1-1.2-3,4.18,4.18,0,0,1,1.2-3,3.85,3.85,0,0,1,2.85-1.24,2.74,2.74,0,0,1,2.22.94h.07V81.4h1.76V89a4.6,4.6,0,0,1-1.07,3.25A3.84,3.84,0,0,1,110.43,93.39Zm-2.22-8a2.56,2.56,0,0,0,.67,1.8,2.22,2.22,0,0,0,1.68.74,2.09,2.09,0,0,0,1.6-.72,2.87,2.87,0,0,0,0-3.66,2,2,0,0,0-1.6-.74,2.2,2.2,0,0,0-1.66.75A2.57,2.57,0,0,0,108.21,85.39Zm7.52-8.47h1.85V89.34h-1.85Zm6.94,12.67a4,4,0,0,1-3-1.21,4.13,4.13,0,0,1-1.2-3,4.25,4.25,0,0,1,1.14-3,3.76,3.76,0,0,1,2.84-1.2,3.53,3.53,0,0,1,2.21.74,4.24,4.24,0,0,1,.83.86,4.67,4.67,0,0,1,.58,1.08l.19.48-5.65,2.34a2.17,2.17,0,0,0,2,1.28,2.39,2.39,0,0,0,2.08-1.17l1.44,1A4,4,0,0,1,122.67,89.59Zm-.14-6.81a2.16,2.16,0,0,0-1.57.7,2.31,2.31,0,0,0-.64,1.76l3.78-1.57a1.32,1.32,0,0,0-.6-.64A1.85,1.85,0,0,0,122.53,82.78Zm-58.09,23H62.91L67,95h1.56l4,10.74H71l-1-2.91H65.49Zm3.27-9L66,101.54h3.57l-1.75-4.85ZM77.49,106a3.17,3.17,0,0,1-1.48-.35,2.55,2.55,0,0,1-1-.91h-.06l.06,1V109H73.6V98.39h1.32v1H75a2.57,2.57,0,0,1,1-.92,3.28,3.28,0,0,1,3.94.8,4,4,0,0,1,1,2.77,4,4,0,0,1-1,2.77A3.13,3.13,0,0,1,77.49,106Zm-.23-1.26a2.16,2.16,0,0,0,1.67-.75,3,3,0,0,0,0-3.81,2.25,2.25,0,0,0-3.35,0,2.76,2.76,0,0,0-.66,1.9,2.8,2.8,0,0,0,.66,1.92A2.19,2.19,0,0,0,77.26,104.72ZM85.92,106a3.17,3.17,0,0,1-1.48-.35,2.55,2.55,0,0,1-1-.91h-.06l.06,1V109H82V98.39h1.32v1h.06a2.57,2.57,0,0,1,1-.92,3.28,3.28,0,0,1,3.94.8,4,4,0,0,1,1,2.77,4,4,0,0,1-1,2.77A3.13,3.13,0,0,1,85.92,106Zm-.23-1.26a2.16,2.16,0,0,0,1.67-.75,3,3,0,0,0,0-3.81,2.25,2.25,0,0,0-3.35,0,2.76,2.76,0,0,0-.66,1.9A2.8,2.8,0,0,0,84,104,2.19,2.19,0,0,0,85.69,104.72ZM100.48,95v1.32H95.59v3.4H100V101H95.59v3.41h4.89v1.32H94.21V95ZM102,98.39h1.32v1h.06a2.45,2.45,0,0,1,1-.91,2.87,2.87,0,0,1,1.36-.35,2.67,2.67,0,0,1,2.07.77,3.06,3.06,0,0,1,.73,2.2v4.62h-1.38v-4.53a1.61,1.61,0,0,0-1.81-1.8,1.73,1.73,0,0,0-1.38.66,2.44,2.44,0,0,0-.56,1.6v4.07H102Zm11.31,10.83a4.26,4.26,0,0,1-1.15-.16,4,4,0,0,1-1-.44,3.5,3.5,0,0,1-.75-.68,2.85,2.85,0,0,1-.48-.87l1.3-.54a2.08,2.08,0,0,0,.78,1,2.19,2.19,0,0,0,1.29.39,2.3,2.3,0,0,0,1.76-.68,2.62,2.62,0,0,0,.63-1.86v-.7h-.06a2.79,2.79,0,0,1-1.06.92,3.26,3.26,0,0,1-3.92-.79,4.07,4.07,0,0,1-1-2.79,4,4,0,0,1,1-2.77,3.28,3.28,0,0,1,3.92-.81,2.82,2.82,0,0,1,1.06.93h.06v-1H117v7a3.76,3.76,0,0,1-1,2.78A3.65,3.65,0,0,1,113.26,109.22Zm0-4.5A2.11,2.11,0,0,0,115,104a3,3,0,0,0,0-3.82,2.11,2.11,0,0,0-1.66-.75,2.16,2.16,0,0,0-1.67.75,3,3,0,0,0,0,3.81A2.16,2.16,0,0,0,113.31,104.72Zm7.12-8.87a1,1,0,0,1-.28.69,1,1,0,1,1,0-1.38A1,1,0,0,1,120.43,95.85Zm-.28,2.54v7.35h-1.38V98.39Zm1.79,0h1.33v1h.06a2.49,2.49,0,0,1,1-.91,2.9,2.9,0,0,1,1.36-.35,2.71,2.71,0,0,1,2.08.77,3.1,3.1,0,0,1,.73,2.2v4.62h-1.38v-4.53a1.63,1.63,0,0,0-1.82-1.8,1.73,1.73,0,0,0-1.38.66,2.43,2.43,0,0,0-.55,1.6v4.07h-1.39ZM133.38,106a3.49,3.49,0,0,1-2.67-1.11,3.91,3.91,0,0,1-1.06-2.81,4,4,0,0,1,1-2.8,3.69,3.69,0,0,1,5.22-.06,4.28,4.28,0,0,1,1,3v.15h-5.78a2.39,2.39,0,0,0,.72,1.74,2.33,2.33,0,0,0,3.72-.66l1.23.6a3.61,3.61,0,0,1-1.37,1.45A3.79,3.79,0,0,1,133.38,106Zm-2.21-4.8h4.21a1.8,1.8,0,0,0-.62-1.27,2.15,2.15,0,0,0-1.51-.5,2,2,0,0,0-1.34.48A2.32,2.32,0,0,0,131.17,101.18Z"/></svg>