<svg xmlns="http://www.w3.org/2000/svg" width="200" height="128">
	<defs>
		<style>
			.cls-3{fill:#fff}
		</style>
	</defs>
	<path d="m126.35 43.51-11.09-19.29a4.86 4.86 0 0 0-4.16-2.48H88.9a4.86 4.86 0 0 0-4.16 2.48l-11.1 19.24a4.89 4.89 0 0 0 0 4.83l11.1 19.4a5 5 0 0 0 4.16 2.57h22.19a5 5 0 0 0 4.17-2.55l11.09-19.3a4.93 4.93 0 0 0 0-4.9Z" style="fill:#4285f4"/>
	<path d="m112.68 39.78-1.58 1.57.34 9.95-1.44 2.11-.85-.84h.78v-3.45l-3.73-3.73-2.67 1.34.07.3-9.5-9.47-4.55 2.29-.55 4.67 1.57 8.54 2.29 2.24-1 1.58 13.37 13.37h5.85a5 5 0 0 0 4.17-2.56l9.24-16.08Z" style="opacity:.07;isolation:isolate"/>
	<path class="cls-3" d="m91.81 56.78 2.23-2.23-3.34-3.35V40.79l3.34-3.35-2.23-2.23-4.47 4.47v12.63l4.47 4.47z"/>
	<circle class="cls-3" cx="95.26" cy="45.99" r="1.58"/>
	<circle class="cls-3" cx="100" cy="45.99" r="1.58"/>
	<circle class="cls-3" cx="104.73" cy="45.99" r="1.58"/>
	<path class="cls-3" d="m108.17 35.21-2.24 2.23 3.35 3.35V51.2l-3.35 3.35 2.24 2.23 4.46-4.47V39.68l-4.46-4.47z"/>
	<path d="M81.09 89.59a6.7 6.7 0 0 1-3.33-.89 6.46 6.46 0 0 1-2.45-8.91 6.54 6.54 0 0 1 2.45-2.42 6.61 6.61 0 0 1 3.33-.9 6.32 6.32 0 0 1 4.49 1.81l-1.26 1.27a4.56 4.56 0 0 0-3.23-1.28 4.51 4.51 0 0 0-3.35 1.39 4.87 4.87 0 0 0 0 6.75 4.82 4.82 0 0 0 6.23.46 3.78 3.78 0 0 0 1.41-2.64h-4.29v-1.79h6a6.13 6.13 0 0 1 .1 1.12 5.76 5.76 0 0 1-1.73 4.37 6.11 6.11 0 0 1-4.37 1.66Zm15.25-4.22a4.18 4.18 0 1 1-1.24-3 4 4 0 0 1 1.24 3Zm-6.63 0a2.55 2.55 0 0 0 .69 1.82 2.3 2.3 0 0 0 3.38 0 2.56 2.56 0 0 0 .7-1.82 2.48 2.48 0 0 0-.69-1.82 2.31 2.31 0 0 0-3.39 0 2.48 2.48 0 0 0-.69 1.82Zm15.87 0a4.17 4.17 0 1 1-1.23-3 4 4 0 0 1 1.23 3Zm-6.62 0a2.55 2.55 0 0 0 .69 1.82 2.23 2.23 0 0 0 1.69.74 2.19 2.19 0 0 0 1.68-.74 2.57 2.57 0 0 0 .71-1.82 2.48 2.48 0 0 0-.69-1.82 2.31 2.31 0 0 0-3.39 0 2.48 2.48 0 0 0-.65 1.82Zm11.47 8a4.18 4.18 0 0 1-2.28-.7 4 4 0 0 1-.85-.78 4.38 4.38 0 0 1-.61-1l1.61-.67a2.71 2.71 0 0 0 .85 1.09 2.15 2.15 0 0 0 1.28.41c1.51 0 2.26-.88 2.26-2.65v-.44h-.07a2.72 2.72 0 0 1-2.22 1 3.91 3.91 0 0 1-2.85-1.23 4.13 4.13 0 0 1-1.2-3 4.18 4.18 0 0 1 1.2-3 3.85 3.85 0 0 1 2.85-1.24 2.74 2.74 0 0 1 2.22.94h.07v-.7h1.76V89a4.6 4.6 0 0 1-1.07 3.25 3.84 3.84 0 0 1-2.95 1.14Zm-2.22-8a2.56 2.56 0 0 0 .67 1.8 2.22 2.22 0 0 0 1.68.74 2.09 2.09 0 0 0 1.6-.72 2.87 2.87 0 0 0 0-3.66 2 2 0 0 0-1.6-.74 2.2 2.2 0 0 0-1.66.75 2.57 2.57 0 0 0-.69 1.85Zm7.52-8.47h1.85v12.44h-1.85Zm6.94 12.67a4 4 0 0 1-3-1.21 4.13 4.13 0 0 1-1.2-3 4.25 4.25 0 0 1 1.14-3 3.76 3.76 0 0 1 2.84-1.2 3.53 3.53 0 0 1 2.21.74 4.24 4.24 0 0 1 .83.86 4.67 4.67 0 0 1 .58 1.08l.19.48-5.65 2.34a2.17 2.17 0 0 0 2 1.28 2.39 2.39 0 0 0 2.08-1.17l1.44 1a4 4 0 0 1-3.46 1.82Zm-.14-6.81a2.16 2.16 0 0 0-1.57.7 2.31 2.31 0 0 0-.64 1.76l3.78-1.57a1.32 1.32 0 0 0-.6-.64 1.85 1.85 0 0 0-.97-.23ZM53.45 106a5.67 5.67 0 0 1-4-9.6 5.33 5.33 0 0 1 4-1.63 5 5 0 0 1 3.94 1.76l-1 1a3.65 3.65 0 0 0-2.95-1.39 4.06 4.06 0 0 0-3 1.2 4.64 4.64 0 0 0 0 6.18 4.06 4.06 0 0 0 3 1.2 4.2 4.2 0 0 0 3.25-1.58l1 1a5.15 5.15 0 0 1-1.88 1.41 5.62 5.62 0 0 1-2.36.45Zm6.87-11v10.74h-1.38V95Zm1.18 7.06a3.92 3.92 0 0 1 1.07-2.81 3.65 3.65 0 0 1 2.71-1.1 3.61 3.61 0 0 1 2.7 1.1 3.89 3.89 0 0 1 1.08 2.81 3.84 3.84 0 0 1-1.06 2.81 3.58 3.58 0 0 1-2.7 1.11 3.62 3.62 0 0 1-2.71-1.11 3.92 3.92 0 0 1-1.09-2.81Zm1.38 0a2.69 2.69 0 0 0 .69 1.92A2.35 2.35 0 0 0 67 104a2.69 2.69 0 0 0 .69-1.92 2.66 2.66 0 0 0-.69-1.9 2.32 2.32 0 0 0-3.42 0 2.66 2.66 0 0 0-.7 1.88Zm13.82 3.68h-1.32v-1h-.06a2.43 2.43 0 0 1-1 .9A2.77 2.77 0 0 1 73 106a2.68 2.68 0 0 1-2.07-.78 3 3 0 0 1-.73-2.2v-4.63h1.38v4.53a1.62 1.62 0 0 0 1.81 1.8 1.74 1.74 0 0 0 1.38-.67 2.44 2.44 0 0 0 .56-1.6v-4.06h1.37Zm4.68.24a3.22 3.22 0 0 1-2.48-1.15 4.27 4.27 0 0 1 0-5.54 3.24 3.24 0 0 1 2.48-1.14 3.19 3.19 0 0 1 1.48.34 2.61 2.61 0 0 1 1 .92h.06l-.06-1V95h1.38v10.74h-1.3v-1h-.06a2.59 2.59 0 0 1-1 .91 3.2 3.2 0 0 1-1.5.35Zm.22-1.26a2.13 2.13 0 0 0 1.67-.74 3.06 3.06 0 0 0 0-3.82 2.22 2.22 0 0 0-3.33 0 3 3 0 0 0 0 3.81 2.14 2.14 0 0 0 1.66.75Zm10.26-3.59v4.61h-1.38V95h6.27v1.32h-4.89v3.52h4.41v1.29Zm12.36 4.61h-1.32v-1h-.06a2.47 2.47 0 0 1-1 .9 2.8 2.8 0 0 1-1.36.36 2.7 2.7 0 0 1-2.08-.78 3.09 3.09 0 0 1-.73-2.2v-4.63h1.38v4.53a1.63 1.63 0 0 0 1.82 1.8 1.74 1.74 0 0 0 1.38-.67 2.43 2.43 0 0 0 .55-1.6v-4.06h1.38Zm1.68-7.35h1.32v1h.06a2.45 2.45 0 0 1 1-.91 2.9 2.9 0 0 1 1.36-.35 2.71 2.71 0 0 1 2.08.77 3.1 3.1 0 0 1 .72 2.2v4.62H111v-4.53a1.61 1.61 0 0 0-1.81-1.8 1.73 1.73 0 0 0-1.38.66 2.44 2.44 0 0 0-.56 1.6v4.07h-1.35Zm11.49 7.61a3.62 3.62 0 0 1-2.71-1.11 4 4 0 0 1-1.07-2.81 3.92 3.92 0 0 1 1.07-2.81 3.65 3.65 0 0 1 2.71-1.1 3.36 3.36 0 0 1 3.23 2.11l-1.26.53a2.08 2.08 0 0 0-2.06-1.38 2.12 2.12 0 0 0-1.63.76 3 3 0 0 0 0 3.78 2.13 2.13 0 0 0 1.63.77 2.16 2.16 0 0 0 2.13-1.39l1.23.53a3.28 3.28 0 0 1-1.26 1.55 3.58 3.58 0 0 1-2.01.57Zm7.31-.12a2.13 2.13 0 0 1-1.5-.56 2.07 2.07 0 0 1-.6-1.55v-4.1h-1.29v-1.28h1.29v-2.25h1.4v2.25h1.8v1.26H124v3.66a1.32 1.32 0 0 0 .28 1 .92.92 0 0 0 .65.27 1.75 1.75 0 0 0 .32 0l.29-.1.44 1.23a3.7 3.7 0 0 1-1.28.15Zm4.26-10a1 1 0 1 1-.29-.69.94.94 0 0 1 .33.66Zm-.29 2.54v7.35h-1.38v-7.38Zm1.31 3.67a3.91 3.91 0 0 1 1.02-2.84 3.67 3.67 0 0 1 2.72-1.1 3.61 3.61 0 0 1 2.7 1.1 3.89 3.89 0 0 1 1.08 2.81 3.84 3.84 0 0 1-1.08 2.81 3.58 3.58 0 0 1-2.7 1.11 3.64 3.64 0 0 1-2.72-1.11 3.91 3.91 0 0 1-1-2.81Zm1.38 0a2.69 2.69 0 0 0 .69 1.92 2.35 2.35 0 0 0 3.42 0 2.69 2.69 0 0 0 .69-1.92 2.66 2.66 0 0 0-.69-1.9 2.32 2.32 0 0 0-3.42 0 2.66 2.66 0 0 0-.69 1.87Zm7.29-3.67H140v1a2.49 2.49 0 0 1 1-.91 2.9 2.9 0 0 1 1.36-.35 2.71 2.71 0 0 1 2.08.77 3.1 3.1 0 0 1 .73 2.2v4.62h-1.38v-4.53a1.62 1.62 0 0 0-1.82-1.8 1.73 1.73 0 0 0-1.38.66 2.43 2.43 0 0 0-.55 1.6v4.07h-1.38Zm13.68 5.31a2 2 0 0 1-.84 1.62 3.65 3.65 0 0 1-4.07.08 3.25 3.25 0 0 1-1.2-1.52l1.23-.53a2.29 2.29 0 0 0 .79 1 1.93 1.93 0 0 0 1.13.37 2 2 0 0 0 1.1-.29.8.8 0 0 0 .45-.67c0-.47-.36-.82-1.08-1l-1.26-.31c-1.43-.36-2.15-1-2.15-2.07a1.92 1.92 0 0 1 .82-1.62 3.43 3.43 0 0 1 2.09-.6 3.38 3.38 0 0 1 1.76.46 2.53 2.53 0 0 1 1.11 1.25l-1.23.51a1.52 1.52 0 0 0-.69-.73 2 2 0 0 0-1-.26 1.77 1.77 0 0 0-1 .27.77.77 0 0 0-.43.66c0 .42.4.72 1.19.9l1.11.28c1.44.32 2.17 1.05 2.17 2.17Z" style="fill:#767676"/>
</svg>
