<svg xmlns="http://www.w3.org/2000/svg" width="200" height="128">
	<defs>
		<style>
			.cls-3{fill:#fff}
		</style>
	</defs>
	<path d="m126.35 43.51-11.09-19.29a4.86 4.86 0 0 0-4.16-2.48H88.9a4.86 4.86 0 0 0-4.16 2.48l-11.1 19.24a4.89 4.89 0 0 0 0 4.83l11.1 19.4a5 5 0 0 0 4.16 2.57h22.19a5 5 0 0 0 4.17-2.55l11.09-19.3a4.93 4.93 0 0 0 0-4.9Z" style="fill:#4285f4"/>
	<path d="m123.17 53.93-18.26-18.26-1.31 2.84-2.85-2.85-1.32 2.82-2.81-2.81-.7 3.41-2.5.42-.52 2.22-3.24.78 2.9 2.9-2.87 1.27 2.87 2.87-2.89 1.26 19.45 19.45h2a5 5 0 0 0 4.17-2.56Z" style="opacity:.07;isolation:isolate"/>
	<path class="cls-3" d="M102.46 43.08h-4.82a.53.53 0 0 0-.51.51v4.82a.51.51 0 0 0 .51.51h4.82a.52.52 0 0 0 .49-.51v-4.82a.52.52 0 0 0-.51-.51"/>
	<path class="cls-3" d="M110.08 42.69a.44.44 0 0 0 .46-.45v-.75a.46.46 0 0 0-.46-.46h-2.35v-2.2a.51.51 0 0 0-.51-.51H105V36a.47.47 0 0 0-.46-.46h-.75a.47.47 0 0 0-.45.46v2.35h-2.49V36a.46.46 0 0 0-.46-.46h-.74a.46.46 0 0 0-.46.46v2.35h-2.44V36a.47.47 0 0 0-.46-.46h-.76a.47.47 0 0 0-.46.46v2.35h-2.19a.51.51 0 0 0-.51.5V41H90a.46.46 0 0 0-.45.46v.75a.45.45 0 0 0 .45.46h2.35v2.47H90a.46.46 0 0 0-.45.46v.76a.45.45 0 0 0 .45.47h2.35v2.47H90a.46.46 0 0 0-.45.46v.75A.46.46 0 0 0 90 51h2.35v2.19a.52.52 0 0 0 .51.51h2.19V56a.47.47 0 0 0 .46.46h.76a.47.47 0 0 0 .46-.46v-2.32h2.47V56a.46.46 0 0 0 .46.46h.74a.47.47 0 0 0 .46-.46v-2.32h2.49V56a.47.47 0 0 0 .46.46h.75A.46.46 0 0 0 105 56v-2.32h2.2a.51.51 0 0 0 .49-.51V51h2.35a.46.46 0 0 0 .46-.46v-.75a.45.45 0 0 0-.46-.46h-2.35v-2.49h2.35a.46.46 0 0 0 .46-.45v-.76a.45.45 0 0 0-.44-.48h-2.37v-2.46ZM106 52H94.09V40.05H106Z"/>
	<path d="M81.09 89.59a6.7 6.7 0 0 1-3.33-.89 6.46 6.46 0 0 1-2.45-8.91 6.54 6.54 0 0 1 2.45-2.42 6.61 6.61 0 0 1 3.33-.9 6.32 6.32 0 0 1 4.49 1.81l-1.26 1.27a4.56 4.56 0 0 0-3.23-1.28 4.51 4.51 0 0 0-3.35 1.39 4.87 4.87 0 0 0 0 6.75 4.82 4.82 0 0 0 6.23.46 3.78 3.78 0 0 0 1.41-2.64h-4.29v-1.79h6a6.13 6.13 0 0 1 .1 1.12 5.76 5.76 0 0 1-1.73 4.37 6.11 6.11 0 0 1-4.37 1.66Zm15.25-4.22a4.18 4.18 0 1 1-1.24-3 4 4 0 0 1 1.24 3Zm-6.63 0a2.55 2.55 0 0 0 .69 1.82 2.3 2.3 0 0 0 3.38 0 2.56 2.56 0 0 0 .7-1.82 2.48 2.48 0 0 0-.69-1.82 2.31 2.31 0 0 0-3.39 0 2.48 2.48 0 0 0-.69 1.82Zm15.87 0a4.17 4.17 0 1 1-1.23-3 4 4 0 0 1 1.23 3Zm-6.62 0a2.55 2.55 0 0 0 .69 1.82 2.23 2.23 0 0 0 1.69.74 2.19 2.19 0 0 0 1.68-.74 2.57 2.57 0 0 0 .71-1.82 2.48 2.48 0 0 0-.69-1.82 2.31 2.31 0 0 0-3.39 0 2.48 2.48 0 0 0-.65 1.82Zm11.47 8a4.18 4.18 0 0 1-2.28-.7 4 4 0 0 1-.85-.78 4.38 4.38 0 0 1-.61-1l1.61-.67a2.71 2.71 0 0 0 .85 1.09 2.15 2.15 0 0 0 1.28.41c1.51 0 2.26-.88 2.26-2.65v-.44h-.07a2.72 2.72 0 0 1-2.22 1 3.91 3.91 0 0 1-2.85-1.23 4.13 4.13 0 0 1-1.2-3 4.18 4.18 0 0 1 1.2-3 3.85 3.85 0 0 1 2.85-1.24 2.74 2.74 0 0 1 2.22.94h.07v-.7h1.76V89a4.6 4.6 0 0 1-1.07 3.25 3.84 3.84 0 0 1-2.95 1.14Zm-2.22-8a2.56 2.56 0 0 0 .67 1.8 2.22 2.22 0 0 0 1.68.74 2.09 2.09 0 0 0 1.6-.72 2.87 2.87 0 0 0 0-3.66 2 2 0 0 0-1.6-.74 2.2 2.2 0 0 0-1.66.75 2.57 2.57 0 0 0-.69 1.85Zm7.52-8.47h1.85v12.44h-1.85Zm6.94 12.67a4 4 0 0 1-3-1.21 4.13 4.13 0 0 1-1.2-3 4.25 4.25 0 0 1 1.14-3 3.76 3.76 0 0 1 2.84-1.2 3.53 3.53 0 0 1 2.21.74 4.24 4.24 0 0 1 .83.86 4.67 4.67 0 0 1 .58 1.08l.19.48-5.65 2.34a2.17 2.17 0 0 0 2 1.28 2.39 2.39 0 0 0 2.08-1.17l1.44 1a4 4 0 0 1-3.46 1.82Zm-.14-6.81a2.16 2.16 0 0 0-1.57.7 2.31 2.31 0 0 0-.64 1.76l3.78-1.57a1.32 1.32 0 0 0-.6-.64 1.85 1.85 0 0 0-.97-.23ZM51.59 106a5.67 5.67 0 0 1-4-9.6 5.33 5.33 0 0 1 4-1.63 5 5 0 0 1 3.94 1.76l-1 1a3.65 3.65 0 0 0-2.95-1.39 4.06 4.06 0 0 0-3 1.2 4.64 4.64 0 0 0 0 6.18 4.06 4.06 0 0 0 3 1.2 4.2 4.2 0 0 0 3.25-1.58l1 1a5.15 5.15 0 0 1-1.83 1.33 5.62 5.62 0 0 1-2.41.53Zm4.92-3.92a3.91 3.91 0 0 1 1.06-2.81 3.67 3.67 0 0 1 2.72-1.1 3.61 3.61 0 0 1 2.7 1.1 3.89 3.89 0 0 1 1.08 2.81 3.84 3.84 0 0 1-1.07 2.79 3.58 3.58 0 0 1-2.7 1.11 3.64 3.64 0 0 1-2.72-1.11 3.91 3.91 0 0 1-1.07-2.81Zm1.38 0a2.69 2.69 0 0 0 .69 1.92 2.35 2.35 0 0 0 3.42 0 2.69 2.69 0 0 0 .69-1.92 2.66 2.66 0 0 0-.69-1.9 2.32 2.32 0 0 0-3.42 0 2.66 2.66 0 0 0-.69 1.88Zm8.67 3.68h-1.38v-7.37h1.32v1h.06a2.45 2.45 0 0 1 1-.91 2.75 2.75 0 0 1 2.72 0 2.22 2.22 0 0 1 .9 1 2.86 2.86 0 0 1 2.53-1.41 2.5 2.5 0 0 1 2 .78 3.24 3.24 0 0 1 .69 2.22v4.59H75v-4.38a2.39 2.39 0 0 0-.38-1.5 1.56 1.56 0 0 0-1.26-.45 1.63 1.63 0 0 0-1.33.67 2.47 2.47 0 0 0-.54 1.59v4.07h-1.42v-4.38a2.39 2.39 0 0 0-.38-1.5 1.56 1.56 0 0 0-1.26-.45 1.63 1.63 0 0 0-1.33.67 2.47 2.47 0 0 0-.54 1.59Zm15.22.24a3.13 3.13 0 0 1-1.47-.35 2.55 2.55 0 0 1-1-.91h-.06l.06 1V109H77.9V98.39h1.32v1h.06a2.57 2.57 0 0 1 1-.92 3.12 3.12 0 0 1 1.47-.34 3.16 3.16 0 0 1 2.46 1.14 4 4 0 0 1 1 2.77 4 4 0 0 1-1 2.77 3.13 3.13 0 0 1-2.43 1.19Zm-.22-1.26a2.14 2.14 0 0 0 1.66-.75 3 3 0 0 0 0-3.81 2.14 2.14 0 0 0-1.66-.75 2.17 2.17 0 0 0-1.68.75 2.76 2.76 0 0 0-.66 1.9 2.8 2.8 0 0 0 .66 1.92 2.19 2.19 0 0 0 1.68.72Zm11.35 1h-1.32v-1h-.06a2.47 2.47 0 0 1-1 .9 2.8 2.8 0 0 1-1.36.36 2.71 2.71 0 0 1-2.08-.78 3.09 3.09 0 0 1-.73-2.2v-4.63h1.38v4.53a1.63 1.63 0 0 0 1.82 1.8 1.74 1.74 0 0 0 1.38-.67 2.43 2.43 0 0 0 .55-1.6v-4.06h1.38Zm4.67.12a2.09 2.09 0 0 1-1.49-.56 2 2 0 0 1-.61-1.55v-4.1h-1.29v-1.26h1.29v-2.25h1.38v2.25h1.8v1.26h-1.8v3.66a1.32 1.32 0 0 0 .28 1 .92.92 0 0 0 .65.27 1.65 1.65 0 0 0 .32 0l.29-.1.44 1.23a3.7 3.7 0 0 1-1.26.15Zm5.62.12a3.52 3.52 0 0 1-2.67-1.11 4 4 0 0 1-1-2.81 4 4 0 0 1 1-2.8 3.69 3.69 0 0 1 5.22-.06 4.28 4.28 0 0 1 1 3v.15h-5.78a2.39 2.39 0 0 0 .72 1.74 2.33 2.33 0 0 0 3.72-.66l1.23.6a3.61 3.61 0 0 1-1.37 1.45 3.8 3.8 0 0 1-2.07.52Zm-2.2-4.8h4.21a1.8 1.8 0 0 0-.62-1.27 2.15 2.15 0 0 0-1.51-.5 2 2 0 0 0-1.34.48 2.32 2.32 0 0 0-.74 1.29ZM117.75 95v1.32h-4.89v3.4h4.41V101h-4.41v3.41h4.89v1.32h-6.27V95Zm1.47 3.39h1.32v1h.06a2.52 2.52 0 0 1 1-.91 2.9 2.9 0 0 1 1.36-.35 2.71 2.71 0 0 1 2.08.77 3.1 3.1 0 0 1 .72 2.2v4.62h-1.38v-4.53a1.61 1.61 0 0 0-1.81-1.8 1.73 1.73 0 0 0-1.38.66 2.44 2.44 0 0 0-.56 1.6v4.07h-1.38Zm11.31 10.83a4.26 4.26 0 0 1-1.15-.16 3.8 3.8 0 0 1-1-.44 3.33 3.33 0 0 1-.76-.68 2.85 2.85 0 0 1-.48-.87l1.3-.54a2.08 2.08 0 0 0 .78 1 2.19 2.19 0 0 0 1.29.39 2.3 2.3 0 0 0 1.76-.68 2.62 2.62 0 0 0 .63-1.86v-.7h-.06a2.72 2.72 0 0 1-1.06.92 3.26 3.26 0 0 1-3.92-.79 4.07 4.07 0 0 1-1-2.79 4 4 0 0 1 1-2.77 3.28 3.28 0 0 1 3.92-.81 2.74 2.74 0 0 1 1.06.93h.06v-1h1.32v7a3.76 3.76 0 0 1-1 2.78 3.65 3.65 0 0 1-2.69 1.07Zm.05-4.5a2.11 2.11 0 0 0 1.66-.74 3 3 0 0 0 0-3.82 2.11 2.11 0 0 0-1.66-.75 2.16 2.16 0 0 0-1.67.75 3 3 0 0 0 0 3.81 2.16 2.16 0 0 0 1.67.75Zm7.12-8.87a1 1 0 1 1-.28-.69.94.94 0 0 1 .28.69Zm-.28 2.54v7.35H136v-7.35Zm1.8 0h1.32v1h.06a2.49 2.49 0 0 1 1-.91 2.9 2.9 0 0 1 1.36-.35 2.71 2.71 0 0 1 2.08.77 3.1 3.1 0 0 1 .73 2.2v4.62h-1.38v-4.53a1.62 1.62 0 0 0-1.82-1.8 1.73 1.73 0 0 0-1.38.66 2.43 2.43 0 0 0-.55 1.6v4.07h-1.38Zm11.43 7.61a3.52 3.52 0 0 1-2.67-1.11 4 4 0 0 1-1-2.81 4 4 0 0 1 1-2.8 3.68 3.68 0 0 1 5.21-.06 4.28 4.28 0 0 1 1 3v.15h-5.77a2.39 2.39 0 0 0 .72 1.74 2.33 2.33 0 0 0 3.72-.66l1.23.6a3.64 3.64 0 0 1-1.38 1.45 3.76 3.76 0 0 1-2.06.5Zm-2.21-4.8h4.22a1.81 1.81 0 0 0-.63-1.27 2.13 2.13 0 0 0-1.5-.5 2 2 0 0 0-1.34.48 2.27 2.27 0 0 0-.75 1.27Z" style="fill:#767676"/>
</svg>
