<svg xmlns="http://www.w3.org/2000/svg" width="200" height="128"><defs><style>.cls-1{fill:#4285f4;}.cls-2{opacity:0.07;isolation:isolate;}.cls-3{fill:#fff;}.cls-4{fill:#767676;}</style></defs><path class="cls-1" d="M126.35,43.51l-11.1-19.3a4.87,4.87,0,0,0-4.15-2.48H88.9a4.88,4.88,0,0,0-4.16,2.48L73.64,43.47a4.87,4.87,0,0,0,0,4.82L84.74,67.7a5,5,0,0,0,4.16,2.57h22.19a4.94,4.94,0,0,0,4.16-2.56l11.1-19.29A4.94,4.94,0,0,0,126.35,43.51Z"/><path class="cls-2" d="M110.48,38.66l-3,.13-3-3L90.17,41.15l-.68,4.05,4.18,4.15-1.22,1.87-.68,1.57.11,1.37L108,70.25h3.12a5,5,0,0,0,4.16-2.56l8.86-15.41Z"/><path class="cls-3" d="M100.61,53.12v-6.6H99.35v6.6a2.48,2.48,0,1,0,1.26,0ZM100,56.73a1.21,1.21,0,1,1,1.21-1.21A1.21,1.21,0,0,1,100,56.73Z"/><path class="cls-3" d="M107,50v-3.5h-1.27V50A2.47,2.47,0,1,0,107,50Zm-.64,3.61a1.21,1.21,0,1,1,1.21-1.21,1.21,1.21,0,0,1-1.21,1.21Z"/><path class="cls-3" d="M94.29,50.07V46.53H93V50a2.48,2.48,0,1,0,3.11,2.4A2.41,2.41,0,0,0,94.29,50.07Zm-.62,3.57a1.21,1.21,0,1,1,1.21-1.21,1.21,1.21,0,0,1-1.21,1.21Z"/><path class="cls-3" d="M107.26,37.33a4.57,4.57,0,0,0-1.47.24,6.27,6.27,0,0,0-11.39.08,4.59,4.59,0,1,0-1.68,8.86H93V43.13a1.36,1.36,0,1,1,1.26,0v3.4h11.39V43.16a1.37,1.37,0,1,1,1.85-.58,1.41,1.41,0,0,1-.58.58v3.37h.3a4.59,4.59,0,0,0,0-9.18Zm-6.65,3.87v5.32H99.35V41.2a1.36,1.36,0,1,1,1.26,0Z"/><path class="cls-4" d="M81.09,89.59a6.7,6.7,0,0,1-3.33-.89,6.46,6.46,0,0,1-2.45-8.91,6.54,6.54,0,0,1,2.45-2.42,6.61,6.61,0,0,1,3.33-.9,6.32,6.32,0,0,1,4.49,1.81l-1.26,1.27a4.56,4.56,0,0,0-3.23-1.28,4.51,4.51,0,0,0-3.35,1.39,4.87,4.87,0,0,0,0,6.75,4.82,4.82,0,0,0,6.23.46,3.78,3.78,0,0,0,1.41-2.64H81.09V82.44h6a6.13,6.13,0,0,1,.1,1.12,5.76,5.76,0,0,1-1.73,4.37A6.11,6.11,0,0,1,81.09,89.59Zm15.25-4.22a4.18,4.18,0,1,1-1.24-3A4,4,0,0,1,96.34,85.37Zm-6.63,0a2.55,2.55,0,0,0,.69,1.82,2.3,2.3,0,0,0,3.38,0,2.56,2.56,0,0,0,.7-1.82,2.48,2.48,0,0,0-.69-1.82,2.31,2.31,0,0,0-3.39,0A2.48,2.48,0,0,0,89.71,85.37Zm15.87,0a4.17,4.17,0,1,1-1.23-3A4,4,0,0,1,105.58,85.37Zm-6.62,0a2.55,2.55,0,0,0,.69,1.82,2.23,2.23,0,0,0,1.69.74,2.19,2.19,0,0,0,1.68-.74,2.57,2.57,0,0,0,.71-1.82,2.48,2.48,0,0,0-.69-1.82,2.31,2.31,0,0,0-3.39,0A2.48,2.48,0,0,0,99,85.37Zm11.47,8a4.18,4.18,0,0,1-2.28-.7,4,4,0,0,1-.85-.78,4.38,4.38,0,0,1-.61-1l1.61-.67a2.71,2.71,0,0,0,.85,1.09,2.15,2.15,0,0,0,1.28.41c1.51,0,2.26-.88,2.26-2.65v-.44h-.07a2.72,2.72,0,0,1-2.22,1,3.91,3.91,0,0,1-2.85-1.23,4.13,4.13,0,0,1-1.2-3,4.18,4.18,0,0,1,1.2-3,3.85,3.85,0,0,1,2.85-1.24,2.74,2.74,0,0,1,2.22.94h.07V81.4h1.76V89a4.6,4.6,0,0,1-1.07,3.25A3.84,3.84,0,0,1,110.43,93.39Zm-2.22-8a2.56,2.56,0,0,0,.67,1.8,2.22,2.22,0,0,0,1.68.74,2.09,2.09,0,0,0,1.6-.72,2.87,2.87,0,0,0,0-3.66,2,2,0,0,0-1.6-.74,2.2,2.2,0,0,0-1.66.75A2.57,2.57,0,0,0,108.21,85.39Zm7.52-8.47h1.85V89.34h-1.85Zm6.94,12.67a4,4,0,0,1-3-1.21,4.13,4.13,0,0,1-1.2-3,4.25,4.25,0,0,1,1.14-3,3.76,3.76,0,0,1,2.84-1.2,3.53,3.53,0,0,1,2.21.74,4.24,4.24,0,0,1,.83.86,4.67,4.67,0,0,1,.58,1.08l.19.48-5.65,2.34a2.17,2.17,0,0,0,2,1.28,2.39,2.39,0,0,0,2.08-1.17l1.44,1A4,4,0,0,1,122.67,89.59Zm-.14-6.81a2.16,2.16,0,0,0-1.57.7,2.31,2.31,0,0,0-.64,1.76l3.78-1.57a1.32,1.32,0,0,0-.6-.64A1.85,1.85,0,0,0,122.53,82.78ZM75.07,106a5.67,5.67,0,0,1-4-9.6,5.33,5.33,0,0,1,4-1.63,5,5,0,0,1,4,1.76l-1,1a3.65,3.65,0,0,0-3-1.39,4.06,4.06,0,0,0-3,1.2,4.64,4.64,0,0,0,0,6.18,4.06,4.06,0,0,0,3,1.2,4.23,4.23,0,0,0,3.26-1.58l1,1a5.2,5.2,0,0,1-1.87,1.41A5.7,5.7,0,0,1,75.07,106Zm6.87-11v10.74H80.56V95Zm1.19,7.06a3.91,3.91,0,0,1,1.06-2.81,3.67,3.67,0,0,1,2.72-1.1,3.61,3.61,0,0,1,2.7,1.1,3.89,3.89,0,0,1,1.08,2.81,3.84,3.84,0,0,1-1.08,2.81,3.58,3.58,0,0,1-2.7,1.11,3.64,3.64,0,0,1-2.72-1.11A3.91,3.91,0,0,1,83.13,102.06Zm1.38,0A2.69,2.69,0,0,0,85.2,104a2.35,2.35,0,0,0,3.42,0,2.69,2.69,0,0,0,.69-1.92,2.66,2.66,0,0,0-.69-1.9,2.32,2.32,0,0,0-3.42,0A2.66,2.66,0,0,0,84.51,102.06Zm13.81,3.68H97v-1h-.06a2.43,2.43,0,0,1-1,.9,2.76,2.76,0,0,1-1.35.36,2.7,2.7,0,0,1-2.08-.78,3,3,0,0,1-.73-2.2V98.39h1.38v4.53a1.63,1.63,0,0,0,1.82,1.8,1.74,1.74,0,0,0,1.38-.67,2.48,2.48,0,0,0,.55-1.6V98.39h1.38ZM103,106a3.2,3.2,0,0,1-2.47-1.15,4.27,4.27,0,0,1,0-5.54,3.29,3.29,0,0,1,4-.8,2.64,2.64,0,0,1,1,.92h.06l-.06-1V95h1.38v10.74h-1.32v-1h-.06a2.62,2.62,0,0,1-1,.91A3.2,3.2,0,0,1,103,106Zm.23-1.26a2.11,2.11,0,0,0,1.66-.74,3,3,0,0,0,0-3.82,2.11,2.11,0,0,0-1.66-.75,2.16,2.16,0,0,0-1.67.75,3,3,0,0,0,0,3.81A2.16,2.16,0,0,0,103.23,104.72Zm10.25,1H112.1V95h1.38Zm1.5-3.68a3.92,3.92,0,0,1,1.07-2.81,3.65,3.65,0,0,1,2.72-1.1,3.6,3.6,0,0,1,2.69,1.1,3.85,3.85,0,0,1,1.08,2.81,3.8,3.8,0,0,1-1.08,2.81,3.57,3.57,0,0,1-2.69,1.11,3.63,3.63,0,0,1-2.72-1.11A3.92,3.92,0,0,1,115,102.06Zm1.38,0a2.65,2.65,0,0,0,.7,1.92,2.23,2.23,0,0,0,1.71.74,2.29,2.29,0,0,0,1.71-.74,2.74,2.74,0,0,0,.69-1.92,2.7,2.7,0,0,0-.69-1.9,2.29,2.29,0,0,0-1.71-.75,2.23,2.23,0,0,0-1.71.75A2.62,2.62,0,0,0,116.36,102.06Zm11.35-5.74v9.42h-1.39V96.32h-3V95h7.39v1.32Z"/></svg>