<svg xmlns="http://www.w3.org/2000/svg" width="200" height="128"><defs><style>.cls-1{fill:#4285f4;}.cls-2{opacity:0.07;isolation:isolate;}.cls-3{fill:#fff;}.cls-4{fill:#767676;}</style></defs><path class="cls-1" d="M126.35,43.51,115.26,24.22a4.86,4.86,0,0,0-4.16-2.48H88.9a4.86,4.86,0,0,0-4.16,2.48L73.64,43.46a4.89,4.89,0,0,0,0,4.83l11.1,19.4a5,5,0,0,0,4.16,2.57h22.19a5,5,0,0,0,4.17-2.55l11.09-19.3A4.93,4.93,0,0,0,126.35,43.51Z"/><path class="cls-2" d="M115.26,67.69l7.39-12.86L107,39.19l-7-1.87-6.3,2.35L91.27,46l2,7.06,17.2,17.2h.67A5,5,0,0,0,115.26,67.69Z"/><g id="art"><path class="cls-3" d="M100,36.21A9.78,9.78,0,1,0,109.78,46,9.78,9.78,0,0,0,100,36.21h0m0,17.21A7.43,7.43,0,1,1,107.42,46h0A7.43,7.43,0,0,1,100,53.42"/><path class="cls-3" d="M95.36,45.61v3a5.4,5.4,0,0,0,1.85,1.89V45.61Z"/><path class="cls-3" d="M99,43v8.2a4.8,4.8,0,0,0,1.85,0V43Z"/><path class="cls-3" d="M102.85,46.88v3.61a5.3,5.3,0,0,0,1.85-2V46.88Z"/><path class="cls-3" d="M107,52l-1,1a.45.45,0,0,0,0,.64l3.84,3.85a.46.46,0,0,0,.65,0l1-1a.45.45,0,0,0,0-.64L107.68,52a.47.47,0,0,0-.64,0"/></g><path class="cls-4" d="M81.09,89.59a6.7,6.7,0,0,1-3.33-.89,6.46,6.46,0,0,1-2.45-8.91,6.54,6.54,0,0,1,2.45-2.42,6.61,6.61,0,0,1,3.33-.9,6.32,6.32,0,0,1,4.49,1.81l-1.26,1.27a4.56,4.56,0,0,0-3.23-1.28,4.51,4.51,0,0,0-3.35,1.39,4.87,4.87,0,0,0,0,6.75,4.82,4.82,0,0,0,6.23.46,3.78,3.78,0,0,0,1.41-2.64H81.09V82.44h6a6.13,6.13,0,0,1,.1,1.12,5.76,5.76,0,0,1-1.73,4.37A6.11,6.11,0,0,1,81.09,89.59Zm15.25-4.22a4.18,4.18,0,1,1-1.24-3A4,4,0,0,1,96.34,85.37Zm-6.63,0a2.55,2.55,0,0,0,.69,1.82,2.3,2.3,0,0,0,3.38,0,2.56,2.56,0,0,0,.7-1.82,2.48,2.48,0,0,0-.69-1.82,2.31,2.31,0,0,0-3.39,0A2.48,2.48,0,0,0,89.71,85.37Zm15.87,0a4.17,4.17,0,1,1-1.23-3A4,4,0,0,1,105.58,85.37Zm-6.62,0a2.55,2.55,0,0,0,.69,1.82,2.23,2.23,0,0,0,1.69.74,2.19,2.19,0,0,0,1.68-.74,2.57,2.57,0,0,0,.71-1.82,2.48,2.48,0,0,0-.69-1.82,2.31,2.31,0,0,0-3.39,0A2.48,2.48,0,0,0,99,85.37Zm11.47,8a4.18,4.18,0,0,1-2.28-.7,4,4,0,0,1-.85-.78,4.38,4.38,0,0,1-.61-1l1.61-.67a2.71,2.71,0,0,0,.85,1.09,2.15,2.15,0,0,0,1.28.41c1.51,0,2.26-.88,2.26-2.65v-.44h-.07a2.72,2.72,0,0,1-2.22,1,3.91,3.91,0,0,1-2.85-1.23,4.13,4.13,0,0,1-1.2-3,4.18,4.18,0,0,1,1.2-3,3.85,3.85,0,0,1,2.85-1.24,2.74,2.74,0,0,1,2.22.94h.07V81.4h1.76V89a4.6,4.6,0,0,1-1.07,3.25A3.84,3.84,0,0,1,110.43,93.39Zm-2.22-8a2.56,2.56,0,0,0,.67,1.8,2.22,2.22,0,0,0,1.68.74,2.09,2.09,0,0,0,1.6-.72,2.87,2.87,0,0,0,0-3.66,2,2,0,0,0-1.6-.74,2.2,2.2,0,0,0-1.66.75A2.57,2.57,0,0,0,108.21,85.39Zm7.52-8.47h1.85V89.34h-1.85Zm6.94,12.67a4,4,0,0,1-3-1.21,4.13,4.13,0,0,1-1.2-3,4.25,4.25,0,0,1,1.14-3,3.76,3.76,0,0,1,2.84-1.2,3.53,3.53,0,0,1,2.21.74,4.24,4.24,0,0,1,.83.86,4.67,4.67,0,0,1,.58,1.08l.19.48-5.65,2.34a2.17,2.17,0,0,0,2,1.28,2.39,2.39,0,0,0,2.08-1.17l1.44,1A4,4,0,0,1,122.67,89.59Zm-.14-6.81a2.16,2.16,0,0,0-1.57.7,2.31,2.31,0,0,0-.64,1.76l3.78-1.57a1.32,1.32,0,0,0-.6-.64A1.85,1.85,0,0,0,122.53,82.78ZM54.05,106a5.67,5.67,0,0,1-4-9.6,5.33,5.33,0,0,1,4-1.63A5,5,0,0,1,58,96.51l-1,1a3.65,3.65,0,0,0-3-1.39,4.06,4.06,0,0,0-3,1.2,4.64,4.64,0,0,0,0,6.18,4.06,4.06,0,0,0,3,1.2,4.2,4.2,0,0,0,3.25-1.58l1,1a5.15,5.15,0,0,1-1.88,1.41A5.62,5.62,0,0,1,54.05,106Zm6.87-11v10.74H59.54V95Zm1.18,7.06a3.92,3.92,0,0,1,1.07-2.81,3.65,3.65,0,0,1,2.71-1.1,3.61,3.61,0,0,1,2.7,1.1,3.89,3.89,0,0,1,1.08,2.81,3.84,3.84,0,0,1-1.08,2.81,3.58,3.58,0,0,1-2.7,1.11,3.62,3.62,0,0,1-2.71-1.11A3.92,3.92,0,0,1,62.1,102.06Zm1.38,0a2.69,2.69,0,0,0,.69,1.92,2.35,2.35,0,0,0,3.42,0,2.69,2.69,0,0,0,.69-1.92,2.66,2.66,0,0,0-.69-1.9,2.32,2.32,0,0,0-3.42,0A2.66,2.66,0,0,0,63.48,102.06Zm13.82,3.68H76v-1h-.06a2.43,2.43,0,0,1-1,.9,2.77,2.77,0,0,1-1.36.36,2.68,2.68,0,0,1-2.07-.78,3,3,0,0,1-.73-2.2V98.39h1.38v4.53a1.62,1.62,0,0,0,1.81,1.8,1.74,1.74,0,0,0,1.38-.67,2.44,2.44,0,0,0,.56-1.6V98.39H77.3ZM82,106a3.22,3.22,0,0,1-2.48-1.15,4.27,4.27,0,0,1,0-5.54A3.24,3.24,0,0,1,82,98.15a3.19,3.19,0,0,1,1.48.34,2.61,2.61,0,0,1,1,.92h.06l-.06-1V95h1.38v10.74H84.54v-1h-.06a2.59,2.59,0,0,1-1,.91A3.2,3.2,0,0,1,82,106Zm.22-1.26a2.13,2.13,0,0,0,1.67-.74,3.06,3.06,0,0,0,0-3.82,2.22,2.22,0,0,0-3.33,0,3,3,0,0,0,0,3.81A2.14,2.14,0,0,0,82.2,104.72Zm8.88,1V95H95a3.16,3.16,0,0,1,2.19.83,2.71,2.71,0,0,1,.91,2.09,2.27,2.27,0,0,1-1.45,2.24v.06a2.62,2.62,0,0,1,1.32.93,2.52,2.52,0,0,1,.49,1.53,2.83,2.83,0,0,1-1,2.19,3.22,3.22,0,0,1-2.29.87Zm1.38-9.42V99.6H95a1.67,1.67,0,0,0,1.23-.49,1.61,1.61,0,0,0,0-2.3A1.57,1.57,0,0,0,95,96.32Zm0,4.57v3.53h2.78A1.78,1.78,0,0,0,97,102.65a1.68,1.68,0,0,0-.52-1.23,1.79,1.79,0,0,0-1.32-.53Zm9.08-5a1,1,0,1,1-.29-.69A.94.94,0,0,1,101.54,95.85Zm-.29,2.54v7.35H99.87V98.39Zm5,10.83a4.26,4.26,0,0,1-1.15-.16,3.8,3.8,0,0,1-1-.44,3.33,3.33,0,0,1-.76-.68,2.85,2.85,0,0,1-.48-.87l1.3-.54a2.08,2.08,0,0,0,.78,1,2.19,2.19,0,0,0,1.29.39,2.3,2.3,0,0,0,1.76-.68,2.62,2.62,0,0,0,.63-1.86v-.7h-.06a2.79,2.79,0,0,1-1.06.92,3.26,3.26,0,0,1-3.92-.79,4.07,4.07,0,0,1-1-2.79,4,4,0,0,1,1-2.77,3.28,3.28,0,0,1,3.92-.81,2.82,2.82,0,0,1,1.06.93h.06v-1h1.32v7a3.76,3.76,0,0,1-1,2.78A3.65,3.65,0,0,1,106.23,109.22Zm0-4.5a2.11,2.11,0,0,0,1.66-.74,3,3,0,0,0,0-3.82,2.11,2.11,0,0,0-1.66-.75,2.16,2.16,0,0,0-1.67.75,3,3,0,0,0,0,3.81A2.16,2.16,0,0,0,106.28,104.72Zm15,1-1.08.71-.74-1.1a5.83,5.83,0,0,1-2.58.62,5.29,5.29,0,0,1-3.93-1.62,5.8,5.8,0,0,1,0-8,5.54,5.54,0,0,1,7.86,0,5.44,5.44,0,0,1,1.59,4,5.62,5.62,0,0,1-.49,2.35,5.5,5.5,0,0,1-1.38,1.9Zm-4.4-1.09a4.08,4.08,0,0,0,1.82-.42l-1.26-1.89,1.08-.74,1.24,1.88a4.13,4.13,0,0,0,1.23-3.12,4.2,4.2,0,0,0-1.18-3.08,4.16,4.16,0,0,0-5.87,0,4.63,4.63,0,0,0,0,6.15A4,4,0,0,0,116.85,104.66Zm13.37,1.08H128.9v-1h-.06a2.5,2.5,0,0,1-1,.9,2.8,2.8,0,0,1-1.36.36,2.71,2.71,0,0,1-2.08-.78,3.09,3.09,0,0,1-.72-2.2V98.39h1.38v4.53a1.62,1.62,0,0,0,1.81,1.8,1.74,1.74,0,0,0,1.38-.67,2.44,2.44,0,0,0,.56-1.6V98.39h1.38Zm4.9.24a3.52,3.52,0,0,1-2.67-1.11,4,4,0,0,1-1-2.81,4,4,0,0,1,1-2.8,3.68,3.68,0,0,1,5.21-.06,4.23,4.23,0,0,1,1,3v.15h-5.78a2.39,2.39,0,0,0,.72,1.74,2.33,2.33,0,0,0,3.72-.66l1.23.6a3.68,3.68,0,0,1-1.37,1.45A3.82,3.82,0,0,1,135.12,106Zm-2.2-4.8h4.21a1.84,1.84,0,0,0-.62-1.27,2.17,2.17,0,0,0-1.51-.5,2,2,0,0,0-1.34.48A2.32,2.32,0,0,0,132.92,101.18Zm8.32,4.56h-1.38V98.39h1.32v1.19h.06a2,2,0,0,1,.86-1,2.38,2.38,0,0,1,1.29-.41,2.59,2.59,0,0,1,1,.18L144,99.69a2.26,2.26,0,0,0-.81-.11,1.76,1.76,0,0,0-1.36.64,2.11,2.11,0,0,0-.58,1.47ZM152,98.39,147.42,109H146l1.71-3.71-3-6.88h1.5l2.19,5.28h0l2.13-5.28Z"/></svg>