<svg xmlns="http://www.w3.org/2000/svg" width="200" height="128"><defs><style>.cls-1{fill:#4285f4;}.cls-2{opacity:0.07;isolation:isolate;}.cls-3{fill:#fff;}.cls-4{fill:#767676;}</style></defs><path class="cls-1" d="M126.35,43.51,115.26,24.22a4.86,4.86,0,0,0-4.16-2.48H88.9a4.86,4.86,0,0,0-4.16,2.48L73.64,43.46a4.89,4.89,0,0,0,0,4.83l11.1,19.4a5,5,0,0,0,4.16,2.57h22.19a5,5,0,0,0,4.17-2.55l11.09-19.3A4.93,4.93,0,0,0,126.35,43.51Z"/><path class="cls-2" d="M106.82,33.76l-5.13,2.53-2.54-2.53-8.91,5.06,2,2L87.3,48.1l3,3,2.88,7.15,12,12h5.9a4.94,4.94,0,0,0,4.16-2.56l9.32-16.19Z"/><polygon class="cls-3" points="106.72 50.21 107.95 48.1 112.7 48.1 113.92 45.99 110.74 40.51 105.79 40.51 104.36 37.98 102.95 37.98 102.95 36.29 105.34 36.29 106.77 38.82 109.76 38.82 106.82 33.76 100.84 33.76 100.84 40.93 103.38 40.93 104.36 42.62 100.84 42.62 100.84 45.99 104.05 45.99 105.51 43.46 109.44 43.46 110.41 45.15 106.48 45.15 105.02 47.68 100.84 47.68 100.84 54.01 106.11 54.01 105.14 55.7 100.84 55.7 100.84 58.23 106.82 58.23 111.72 49.79 108.92 49.79 107.68 51.9 102.95 51.9 102.95 50.21 106.72 50.21"/><polygon class="cls-3" points="93.28 50.21 92.05 48.1 87.3 48.1 86.08 45.99 89.26 40.51 94.21 40.51 95.64 37.98 97.05 37.98 97.05 36.29 94.65 36.29 93.22 38.82 90.24 38.82 93.17 33.76 99.15 33.76 99.15 40.93 96.61 40.93 95.63 42.62 99.15 42.62 99.15 45.99 95.95 45.99 94.49 43.46 90.56 43.46 89.58 45.15 93.51 45.15 94.98 47.68 99.15 47.68 99.15 54.01 93.89 54.01 94.86 55.7 99.15 55.7 99.15 58.23 93.17 58.23 88.28 49.79 91.08 49.79 92.31 51.9 97.05 51.9 97.05 50.21 93.28 50.21"/><path class="cls-4" d="M81.09,89.59a6.7,6.7,0,0,1-3.33-.89,6.46,6.46,0,0,1-2.45-8.91,6.54,6.54,0,0,1,2.45-2.42,6.61,6.61,0,0,1,3.33-.9,6.32,6.32,0,0,1,4.49,1.81l-1.26,1.27a4.56,4.56,0,0,0-3.23-1.28,4.51,4.51,0,0,0-3.35,1.39,4.87,4.87,0,0,0,0,6.75,4.82,4.82,0,0,0,6.23.46,3.78,3.78,0,0,0,1.41-2.64H81.09V82.44h6a6.13,6.13,0,0,1,.1,1.12,5.76,5.76,0,0,1-1.73,4.37A6.11,6.11,0,0,1,81.09,89.59Zm15.25-4.22a4.18,4.18,0,1,1-1.24-3A4,4,0,0,1,96.34,85.37Zm-6.63,0a2.55,2.55,0,0,0,.69,1.82,2.3,2.3,0,0,0,3.38,0,2.56,2.56,0,0,0,.7-1.82,2.48,2.48,0,0,0-.69-1.82,2.31,2.31,0,0,0-3.39,0A2.48,2.48,0,0,0,89.71,85.37Zm15.87,0a4.17,4.17,0,1,1-1.23-3A4,4,0,0,1,105.58,85.37Zm-6.62,0a2.55,2.55,0,0,0,.69,1.82,2.23,2.23,0,0,0,1.69.74,2.19,2.19,0,0,0,1.68-.74,2.57,2.57,0,0,0,.71-1.82,2.48,2.48,0,0,0-.69-1.82,2.31,2.31,0,0,0-3.39,0A2.48,2.48,0,0,0,99,85.37Zm11.47,8a4.18,4.18,0,0,1-2.28-.7,4,4,0,0,1-.85-.78,4.38,4.38,0,0,1-.61-1l1.61-.67a2.71,2.71,0,0,0,.85,1.09,2.15,2.15,0,0,0,1.28.41c1.51,0,2.26-.88,2.26-2.65v-.44h-.07a2.72,2.72,0,0,1-2.22,1,3.91,3.91,0,0,1-2.85-1.23,4.13,4.13,0,0,1-1.2-3,4.18,4.18,0,0,1,1.2-3,3.85,3.85,0,0,1,2.85-1.24,2.74,2.74,0,0,1,2.22.94h.07V81.4h1.76V89a4.6,4.6,0,0,1-1.07,3.25A3.84,3.84,0,0,1,110.43,93.39Zm-2.22-8a2.56,2.56,0,0,0,.67,1.8,2.22,2.22,0,0,0,1.68.74,2.09,2.09,0,0,0,1.6-.72,2.87,2.87,0,0,0,0-3.66,2,2,0,0,0-1.6-.74,2.2,2.2,0,0,0-1.66.75A2.57,2.57,0,0,0,108.21,85.39Zm7.52-8.47h1.85V89.34h-1.85Zm6.94,12.67a4,4,0,0,1-3-1.21,4.13,4.13,0,0,1-1.2-3,4.25,4.25,0,0,1,1.14-3,3.76,3.76,0,0,1,2.84-1.2,3.53,3.53,0,0,1,2.21.74,4.24,4.24,0,0,1,.83.86,4.67,4.67,0,0,1,.58,1.08l.19.48-5.65,2.34a2.17,2.17,0,0,0,2,1.28,2.39,2.39,0,0,0,2.08-1.17l1.44,1A4,4,0,0,1,122.67,89.59Zm-.14-6.81a2.16,2.16,0,0,0-1.57.7,2.31,2.31,0,0,0-.64,1.76l3.78-1.57a1.32,1.32,0,0,0-.6-.64A1.85,1.85,0,0,0,122.53,82.78ZM27.42,106a5.67,5.67,0,0,1-4-9.6,5.33,5.33,0,0,1,4-1.63,5,5,0,0,1,3.95,1.76l-1,1a3.67,3.67,0,0,0-3-1.39,4,4,0,0,0-3,1.2,4.61,4.61,0,0,0,0,6.18,4,4,0,0,0,3,1.2,4.22,4.22,0,0,0,3.26-1.58l1,1a5.12,5.12,0,0,1-1.87,1.41A5.67,5.67,0,0,1,27.42,106Zm6.87-11v10.74H32.91V95Zm1.19,7.06a3.91,3.91,0,0,1,1.06-2.81,3.67,3.67,0,0,1,2.72-1.1,3.61,3.61,0,0,1,2.7,1.1A3.89,3.89,0,0,1,43,102.06,3.84,3.84,0,0,1,42,104.87a3.58,3.58,0,0,1-2.7,1.11,3.64,3.64,0,0,1-2.72-1.11A3.91,3.91,0,0,1,35.48,102.06Zm1.38,0a2.69,2.69,0,0,0,.69,1.92A2.35,2.35,0,0,0,41,104a2.69,2.69,0,0,0,.69-1.92,2.66,2.66,0,0,0-.69-1.9,2.32,2.32,0,0,0-3.42,0A2.66,2.66,0,0,0,36.86,102.06Zm13.81,3.68H49.35v-1h-.06a2.47,2.47,0,0,1-1,.9A2.8,2.8,0,0,1,47,106a2.71,2.71,0,0,1-2.08-.78,3.09,3.09,0,0,1-.73-2.2V98.39h1.38v4.53a1.63,1.63,0,0,0,1.82,1.8,1.74,1.74,0,0,0,1.38-.67,2.43,2.43,0,0,0,.55-1.6V98.39h1.38Zm4.68.24a3.2,3.2,0,0,1-2.47-1.15,4.27,4.27,0,0,1,0-5.54,3.22,3.22,0,0,1,2.47-1.14,3.16,3.16,0,0,1,1.48.34,2.57,2.57,0,0,1,1,.92h.06l-.06-1V95h1.38v10.74H57.92v-1h-.06a2.55,2.55,0,0,1-1,.91A3.17,3.17,0,0,1,55.35,106Zm.23-1.26a2.11,2.11,0,0,0,1.66-.74,3,3,0,0,0,0-3.82,2.11,2.11,0,0,0-1.66-.75,2.16,2.16,0,0,0-1.67.75,3,3,0,0,0,0,3.81A2.16,2.16,0,0,0,55.58,104.72Zm10.26,1H64.46V95h1.38l3.73,6.54h.06L73.37,95h1.38v10.74H73.37V99.36l.06-1.8h-.06L70,103.46H69.2l-3.36-5.9h-.06l.06,1.8Zm13.39-7.59a3.45,3.45,0,0,1,2.42.81,2.92,2.92,0,0,1,.88,2.25v4.53H81.21v-1h-.06A2.63,2.63,0,0,1,78.87,106a2.93,2.93,0,0,1-2-.73,2.28,2.28,0,0,1-.82-1.79,2.19,2.19,0,0,1,.87-1.82,3.62,3.62,0,0,1,2.3-.67,4.05,4.05,0,0,1,2,.45v-.32a1.56,1.56,0,0,0-.57-1.22,1.92,1.92,0,0,0-1.33-.5,2.11,2.11,0,0,0-1.83,1l-1.22-.77A3.38,3.38,0,0,1,79.23,98.15Zm-1.78,5.34a1.09,1.09,0,0,0,.46.9,1.73,1.73,0,0,0,1.07.36,2.19,2.19,0,0,0,1.55-.65,2,2,0,0,0,.68-1.52,2.9,2.9,0,0,0-1.8-.5,2.34,2.34,0,0,0-1.4.4A1.22,1.22,0,0,0,77.45,103.49ZM87.38,106a3.64,3.64,0,0,1-2.72-1.11,4,4,0,0,1-1.06-2.81,3.91,3.91,0,0,1,1.06-2.81,3.67,3.67,0,0,1,2.72-1.1,3.36,3.36,0,0,1,3.22,2.11l-1.26.53a2.07,2.07,0,0,0-2-1.38,2.14,2.14,0,0,0-1.64.76,3,3,0,0,0,0,3.78,2.25,2.25,0,0,0,3.77-.62l1.23.53a3.24,3.24,0,0,1-1.27,1.55A3.53,3.53,0,0,1,87.38,106Zm4.47-11h1.38v3.39l-.06,1h.06a2.45,2.45,0,0,1,1-.91,2.83,2.83,0,0,1,1.35-.35,2.7,2.7,0,0,1,2.08.77,3.06,3.06,0,0,1,.73,2.2v4.62H97v-4.35c0-1.32-.59-2-1.76-2a1.76,1.76,0,0,0-1.41.69,2.47,2.47,0,0,0-.58,1.63v4H91.85Zm9.91.85a1,1,0,1,1-.28-.69A.94.94,0,0,1,101.76,95.85Zm-.28,2.54v7.35H100.1V98.39Zm1.8,0h1.32v1h.06a2.49,2.49,0,0,1,1-.91,2.9,2.9,0,0,1,1.36-.35,2.71,2.71,0,0,1,2.08.77,3.1,3.1,0,0,1,.73,2.2v4.62h-1.38v-4.53a1.62,1.62,0,0,0-1.82-1.8,1.73,1.73,0,0,0-1.38.66,2.43,2.43,0,0,0-.55,1.6v4.07h-1.38ZM114.71,106a3.52,3.52,0,0,1-2.67-1.11,4,4,0,0,1-1.05-2.81,4,4,0,0,1,1-2.8,3.68,3.68,0,0,1,5.21-.06,4.28,4.28,0,0,1,1,3l0,.15H112.4a2.39,2.39,0,0,0,.72,1.74,2.33,2.33,0,0,0,3.72-.66l1.23.6a3.64,3.64,0,0,1-1.38,1.45A3.76,3.76,0,0,1,114.71,106Zm-2.21-4.8h4.22a1.81,1.81,0,0,0-.63-1.27,2.13,2.13,0,0,0-1.5-.5,2,2,0,0,0-1.34.48A2.27,2.27,0,0,0,112.5,101.18ZM129,105.74h-6V95h1.38v9.42H129Zm4.5.24a3.52,3.52,0,0,1-2.67-1.11,4,4,0,0,1-1-2.81,4,4,0,0,1,1-2.8A3.68,3.68,0,0,1,136,99.2a4.28,4.28,0,0,1,1,3l0,.15h-5.77a2.39,2.39,0,0,0,.72,1.74,2.33,2.33,0,0,0,3.72-.66l1.23.6a3.64,3.64,0,0,1-1.38,1.45A3.76,3.76,0,0,1,133.52,106Zm-2.21-4.8h4.22a1.81,1.81,0,0,0-.63-1.27,2.13,2.13,0,0,0-1.5-.5,2,2,0,0,0-1.35.48A2.32,2.32,0,0,0,131.31,101.18Zm9.81-3a3.45,3.45,0,0,1,2.42.81,2.92,2.92,0,0,1,.88,2.25v4.53H143.1v-1H143a2.63,2.63,0,0,1-2.28,1.26,2.91,2.91,0,0,1-2-.73,2.25,2.25,0,0,1-.82-1.79,2.21,2.21,0,0,1,.86-1.82,3.67,3.67,0,0,1,2.31-.67,4.05,4.05,0,0,1,2,.45v-.32a1.56,1.56,0,0,0-.57-1.22,1.92,1.92,0,0,0-1.33-.5,2.11,2.11,0,0,0-1.83,1l-1.22-.77A3.38,3.38,0,0,1,141.12,98.15Zm-1.78,5.34a1.11,1.11,0,0,0,.45.9,1.78,1.78,0,0,0,1.08.36,2.21,2.21,0,0,0,1.55-.65,2,2,0,0,0,.68-1.52,2.9,2.9,0,0,0-1.8-.5,2.32,2.32,0,0,0-1.4.4A1.2,1.2,0,0,0,139.34,103.49Zm8,2.25H146V98.39h1.32v1.19h.06a2,2,0,0,1,.86-1,2.38,2.38,0,0,1,1.29-.41,2.59,2.59,0,0,1,1,.18l-.42,1.33a2.26,2.26,0,0,0-.81-.11,1.76,1.76,0,0,0-1.36.64,2.07,2.07,0,0,0-.58,1.47Zm4.07-7.35h1.32v1h.06a2.49,2.49,0,0,1,1-.91,2.9,2.9,0,0,1,1.36-.35,2.71,2.71,0,0,1,2.08.77,3.1,3.1,0,0,1,.73,2.2v4.62h-1.38v-4.53a1.62,1.62,0,0,0-1.82-1.8,1.73,1.73,0,0,0-1.38.66,2.43,2.43,0,0,0-.55,1.6v4.07h-1.38Zm9.91-2.54a1,1,0,1,1-.28-.69A.94.94,0,0,1,161.34,95.85Zm-.28,2.54v7.35h-1.38V98.39Zm1.8,0h1.32v1h.06a2.49,2.49,0,0,1,1-.91,2.9,2.9,0,0,1,1.36-.35,2.71,2.71,0,0,1,2.08.77,3.1,3.1,0,0,1,.73,2.2v4.62H168v-4.53a1.62,1.62,0,0,0-1.82-1.8,1.73,1.73,0,0,0-1.38.66,2.43,2.43,0,0,0-.55,1.6v4.07h-1.38Zm11.31,10.83a4.33,4.33,0,0,1-1.16-.16,3.8,3.8,0,0,1-1-.44,3.33,3.33,0,0,1-.76-.68,2.85,2.85,0,0,1-.48-.87l1.31-.54a2.08,2.08,0,0,0,.78,1,2.19,2.19,0,0,0,1.29.39,2.27,2.27,0,0,0,1.75-.68,2.62,2.62,0,0,0,.63-1.86v-.7h-.06a2.72,2.72,0,0,1-1.06.92A3.18,3.18,0,0,1,174,106a3.26,3.26,0,0,1-2.48-1.13,4.07,4.07,0,0,1-1-2.79,4,4,0,0,1,1-2.77A3.24,3.24,0,0,1,174,98.15a3.17,3.17,0,0,1,1.44.33,2.74,2.74,0,0,1,1.06.93h.06v-1h1.32v7a3.76,3.76,0,0,1-1,2.78A3.65,3.65,0,0,1,174.17,109.22Zm0-4.5a2.13,2.13,0,0,0,1.67-.74,3.06,3.06,0,0,0,0-3.82,2.22,2.22,0,0,0-3.33,0,3,3,0,0,0,0,3.81A2.14,2.14,0,0,0,174.21,104.72Z"/></svg>