<svg xmlns="http://www.w3.org/2000/svg" width="200" height="128"><defs><style>.cls-1{fill:#4285f4;}.cls-2{opacity:0.07;isolation:isolate;}.cls-3{fill:#fff;}.cls-4{fill:#767676;}</style></defs><path class="cls-1" d="M126.35,43.51,115.26,24.22a4.86,4.86,0,0,0-4.16-2.48H88.9a4.86,4.86,0,0,0-4.16,2.48L73.64,43.46a4.89,4.89,0,0,0,0,4.83l11.1,19.4a5,5,0,0,0,4.16,2.57h22.19a5,5,0,0,0,4.17-2.55l11.09-19.3A4.93,4.93,0,0,0,126.35,43.51Z"/><path class="cls-2" d="M112.68,39.78l-1.58,1.57.34,9.95L110,53.41l-.85-.84h.78V49.12l-3.73-3.73-2.67,1.34.07.3-9.5-9.47-4.55,2.29L89,44.52l1.57,8.54,2.29,2.24-1,1.58,13.37,13.37h5.85a5,5,0,0,0,4.17-2.56l9.24-16.08Z"/><polygon class="cls-3" points="91.81 56.78 94.04 54.55 90.7 51.2 90.7 40.79 94.04 37.44 91.81 35.21 87.34 39.68 87.34 52.31 91.81 56.78"/><circle class="cls-3" cx="95.26" cy="45.99" r="1.58"/><circle class="cls-3" cx="100" cy="45.99" r="1.58"/><circle class="cls-3" cx="104.73" cy="45.99" r="1.58"/><polygon class="cls-3" points="108.17 35.21 105.93 37.44 109.28 40.79 109.28 51.2 105.93 54.55 108.17 56.78 112.63 52.31 112.63 39.68 108.17 35.21"/><path class="cls-4" d="M81.09,89.59a6.7,6.7,0,0,1-3.33-.89,6.46,6.46,0,0,1-2.45-8.91,6.54,6.54,0,0,1,2.45-2.42,6.61,6.61,0,0,1,3.33-.9,6.32,6.32,0,0,1,4.49,1.81l-1.26,1.27a4.56,4.56,0,0,0-3.23-1.28,4.51,4.51,0,0,0-3.35,1.39,4.87,4.87,0,0,0,0,6.75,4.82,4.82,0,0,0,6.23.46,3.78,3.78,0,0,0,1.41-2.64H81.09V82.44h6a6.13,6.13,0,0,1,.1,1.12,5.76,5.76,0,0,1-1.73,4.37A6.11,6.11,0,0,1,81.09,89.59Zm15.25-4.22a4.18,4.18,0,1,1-1.24-3A4,4,0,0,1,96.34,85.37Zm-6.63,0a2.55,2.55,0,0,0,.69,1.82,2.3,2.3,0,0,0,3.38,0,2.56,2.56,0,0,0,.7-1.82,2.48,2.48,0,0,0-.69-1.82,2.31,2.31,0,0,0-3.39,0A2.48,2.48,0,0,0,89.71,85.37Zm15.87,0a4.17,4.17,0,1,1-1.23-3A4,4,0,0,1,105.58,85.37Zm-6.62,0a2.55,2.55,0,0,0,.69,1.82,2.23,2.23,0,0,0,1.69.74,2.19,2.19,0,0,0,1.68-.74,2.57,2.57,0,0,0,.71-1.82,2.48,2.48,0,0,0-.69-1.82,2.31,2.31,0,0,0-3.39,0A2.48,2.48,0,0,0,99,85.37Zm11.47,8a4.18,4.18,0,0,1-2.28-.7,4,4,0,0,1-.85-.78,4.38,4.38,0,0,1-.61-1l1.61-.67a2.71,2.71,0,0,0,.85,1.09,2.15,2.15,0,0,0,1.28.41c1.51,0,2.26-.88,2.26-2.65v-.44h-.07a2.72,2.72,0,0,1-2.22,1,3.91,3.91,0,0,1-2.85-1.23,4.13,4.13,0,0,1-1.2-3,4.18,4.18,0,0,1,1.2-3,3.85,3.85,0,0,1,2.85-1.24,2.74,2.74,0,0,1,2.22.94h.07V81.4h1.76V89a4.6,4.6,0,0,1-1.07,3.25A3.84,3.84,0,0,1,110.43,93.39Zm-2.22-8a2.56,2.56,0,0,0,.67,1.8,2.22,2.22,0,0,0,1.68.74,2.09,2.09,0,0,0,1.6-.72,2.87,2.87,0,0,0,0-3.66,2,2,0,0,0-1.6-.74,2.2,2.2,0,0,0-1.66.75A2.57,2.57,0,0,0,108.21,85.39Zm7.52-8.47h1.85V89.34h-1.85Zm6.94,12.67a4,4,0,0,1-3-1.21,4.13,4.13,0,0,1-1.2-3,4.25,4.25,0,0,1,1.14-3,3.76,3.76,0,0,1,2.84-1.2,3.53,3.53,0,0,1,2.21.74,4.24,4.24,0,0,1,.83.86,4.67,4.67,0,0,1,.58,1.08l.19.48-5.65,2.34a2.17,2.17,0,0,0,2,1.28,2.39,2.39,0,0,0,2.08-1.17l1.44,1A4,4,0,0,1,122.67,89.59Zm-.14-6.81a2.16,2.16,0,0,0-1.57.7,2.31,2.31,0,0,0-.64,1.76l3.78-1.57a1.32,1.32,0,0,0-.6-.64A1.85,1.85,0,0,0,122.53,82.78ZM53.45,106a5.67,5.67,0,0,1-4-9.6,5.33,5.33,0,0,1,4-1.63,5,5,0,0,1,3.94,1.76l-1,1a3.65,3.65,0,0,0-2.95-1.39,4.06,4.06,0,0,0-3,1.2,4.64,4.64,0,0,0,0,6.18,4.06,4.06,0,0,0,3,1.2,4.2,4.2,0,0,0,3.25-1.58l1,1a5.15,5.15,0,0,1-1.88,1.41A5.62,5.62,0,0,1,53.45,106Zm6.87-11v10.74H58.94V95Zm1.18,7.06a3.92,3.92,0,0,1,1.07-2.81,3.65,3.65,0,0,1,2.71-1.1,3.61,3.61,0,0,1,2.7,1.1,3.89,3.89,0,0,1,1.08,2.81A3.84,3.84,0,0,1,68,104.87a3.58,3.58,0,0,1-2.7,1.11,3.62,3.62,0,0,1-2.71-1.11A3.92,3.92,0,0,1,61.5,102.06Zm1.38,0a2.69,2.69,0,0,0,.69,1.92A2.35,2.35,0,0,0,67,104a2.69,2.69,0,0,0,.69-1.92,2.66,2.66,0,0,0-.69-1.9,2.32,2.32,0,0,0-3.42,0A2.66,2.66,0,0,0,62.88,102.06Zm13.82,3.68H75.38v-1h-.06a2.43,2.43,0,0,1-1,.9A2.77,2.77,0,0,1,73,106a2.68,2.68,0,0,1-2.07-.78,3,3,0,0,1-.73-2.2V98.39h1.38v4.53a1.62,1.62,0,0,0,1.81,1.8,1.74,1.74,0,0,0,1.38-.67,2.44,2.44,0,0,0,.56-1.6V98.39H76.7Zm4.68.24a3.22,3.22,0,0,1-2.48-1.15,4.27,4.27,0,0,1,0-5.54,3.24,3.24,0,0,1,2.48-1.14,3.19,3.19,0,0,1,1.48.34,2.61,2.61,0,0,1,1,.92h.06l-.06-1V95h1.38v10.74H83.94v-1h-.06a2.59,2.59,0,0,1-1,.91A3.2,3.2,0,0,1,81.38,106Zm.22-1.26a2.13,2.13,0,0,0,1.67-.74,3.06,3.06,0,0,0,0-3.82,2.22,2.22,0,0,0-3.33,0,3,3,0,0,0,0,3.81A2.14,2.14,0,0,0,81.6,104.72Zm10.26-3.59v4.61H90.48V95h6.27v1.32H91.86v3.52h4.41v1.29Zm12.36,4.61H102.9v-1h-.06a2.47,2.47,0,0,1-1,.9,2.8,2.8,0,0,1-1.36.36,2.7,2.7,0,0,1-2.08-.78,3.09,3.09,0,0,1-.73-2.2V98.39h1.38v4.53a1.63,1.63,0,0,0,1.82,1.8,1.74,1.74,0,0,0,1.38-.67,2.43,2.43,0,0,0,.55-1.6V98.39h1.38Zm1.68-7.35h1.32v1h.06a2.45,2.45,0,0,1,1-.91,2.9,2.9,0,0,1,1.36-.35,2.71,2.71,0,0,1,2.08.77,3.1,3.1,0,0,1,.72,2.2v4.62H111v-4.53a1.61,1.61,0,0,0-1.81-1.8,1.73,1.73,0,0,0-1.38.66,2.44,2.44,0,0,0-.56,1.6v4.07H105.9ZM117.39,106a3.62,3.62,0,0,1-2.71-1.11,4,4,0,0,1-1.07-2.81,3.92,3.92,0,0,1,1.07-2.81,3.65,3.65,0,0,1,2.71-1.1,3.36,3.36,0,0,1,3.23,2.11l-1.26.53a2.08,2.08,0,0,0-2.06-1.38,2.12,2.12,0,0,0-1.63.76,3,3,0,0,0,0,3.78,2.13,2.13,0,0,0,1.63.77,2.16,2.16,0,0,0,2.13-1.39l1.23.53a3.28,3.28,0,0,1-1.26,1.55A3.58,3.58,0,0,1,117.39,106Zm7.31-.12a2.13,2.13,0,0,1-1.5-.56,2.07,2.07,0,0,1-.6-1.55v-4.1h-1.29V98.39h1.29V96.14H124v2.25h1.8v1.26H124v3.66a1.32,1.32,0,0,0,.28,1,.92.92,0,0,0,.65.27,1.75,1.75,0,0,0,.32,0l.29-.1.44,1.23A3.7,3.7,0,0,1,124.7,105.86Zm4.26-10a1,1,0,1,1-.29-.69A.94.94,0,0,1,129,95.85Zm-.29,2.54v7.35h-1.38V98.39Zm1.31,3.67A3.91,3.91,0,0,1,131,99.25a3.67,3.67,0,0,1,2.72-1.1,3.61,3.61,0,0,1,2.7,1.1,3.89,3.89,0,0,1,1.08,2.81,3.84,3.84,0,0,1-1.08,2.81,3.58,3.58,0,0,1-2.7,1.11,3.64,3.64,0,0,1-2.72-1.11A3.91,3.91,0,0,1,130,102.06Zm1.38,0a2.69,2.69,0,0,0,.69,1.92,2.35,2.35,0,0,0,3.42,0,2.69,2.69,0,0,0,.69-1.92,2.66,2.66,0,0,0-.69-1.9,2.32,2.32,0,0,0-3.42,0A2.66,2.66,0,0,0,131.36,102.06Zm7.29-3.67H140v1H140a2.49,2.49,0,0,1,1-.91,2.9,2.9,0,0,1,1.36-.35,2.71,2.71,0,0,1,2.08.77,3.1,3.1,0,0,1,.73,2.2v4.62h-1.38v-4.53a1.62,1.62,0,0,0-1.82-1.8,1.73,1.73,0,0,0-1.38.66,2.43,2.43,0,0,0-.55,1.6v4.07h-1.38Zm13.68,5.31a2,2,0,0,1-.84,1.62,3.65,3.65,0,0,1-4.07.08,3.25,3.25,0,0,1-1.2-1.52l1.23-.53a2.29,2.29,0,0,0,.79,1,1.93,1.93,0,0,0,1.13.37,2,2,0,0,0,1.1-.29.8.8,0,0,0,.45-.67c0-.47-.36-.82-1.08-1l-1.26-.31c-1.43-.36-2.15-1-2.15-2.07a1.92,1.92,0,0,1,.82-1.62,3.43,3.43,0,0,1,2.09-.6,3.38,3.38,0,0,1,1.76.46,2.53,2.53,0,0,1,1.11,1.25l-1.23.51a1.52,1.52,0,0,0-.69-.73,2,2,0,0,0-1-.26,1.77,1.77,0,0,0-1,.27.77.77,0,0,0-.43.66c0,.42.4.72,1.19.9l1.11.28C151.6,101.85,152.33,102.58,152.33,103.7Z"/></svg>