<svg xmlns="http://www.w3.org/2000/svg" width="200" height="128">
    <path d="M85.75 57.75L79 64.53v.07a15.15 15.15 0 009.21 3.06h11.68v-9.39H88.16a5.74 5.74 0 01-2.41-.52z" fill="#34a853"/>
    <path d="M79.81 39.78A15.23 15.23 0 0079 64.55l6.78-6.78A5.86 5.86 0 1193.51 50l6.81-6.8a15.23 15.23 0 00-9.18-5.68 15.52 15.52 0 00-3-.3 15.14 15.14 0 00-8.33 2.56z" fill="#fbbc05"/>
    <path d="M113.82 29.66v-.11a21.11 21.11 0 00-34.31 10.29l.3-.06a15.14 15.14 0 018.35-2.57 15.52 15.52 0 013 .3s.1-.06.13 0a11.71 11.71 0 0116-1.22h.11l-.08-.08z" fill="#ea4335"/>
    <path d="M120.29 39.84a21.13 21.13 0 00-6.37-10.27l-.1.09-6.49 6.5.08.08a11.67 11.67 0 014.22 9.2v1.17a5.87 5.87 0 010 11.73H99.9v9.32l.06.07h11.73a15.25 15.25 0 008.66-27.89z" fill="#4285f4"/>
    <path d="M81.09 89.59a6.7 6.7 0 01-3.33-.89 6.46 6.46 0 01-2.45-8.91 6.54 6.54 0 012.45-2.42 6.61 6.61 0 013.33-.9 6.32 6.32 0 014.49 1.81l-1.26 1.27a4.56 4.56 0 00-3.23-1.28 4.51 4.51 0 00-3.35 1.39 4.87 4.87 0 000 6.75 4.82 4.82 0 006.23.46 3.78 3.78 0 001.41-2.64h-4.29v-1.79h6a6.13 6.13 0 01.1 1.12 5.76 5.76 0 01-1.73 4.37 6.11 6.11 0 01-4.37 1.66zm15.25-4.22a4.18 4.18 0 11-1.24-3 4 4 0 011.24 3zm-6.63 0a2.55 2.55 0 00.69 1.82 2.3 2.3 0 003.38 0 2.56 2.56 0 00.7-1.82 2.48 2.48 0 00-.69-1.82 2.31 2.31 0 00-3.39 0 2.48 2.48 0 00-.69 1.82zm15.87 0a4.17 4.17 0 11-1.23-3 4 4 0 011.23 3zm-6.62 0a2.55 2.55 0 00.69 1.82 2.23 2.23 0 001.69.74 2.19 2.19 0 001.68-.74 2.57 2.57 0 00.71-1.82 2.48 2.48 0 00-.69-1.82 2.31 2.31 0 00-3.39 0 2.48 2.48 0 00-.65 1.82zm11.47 8a4.18 4.18 0 01-2.28-.7 4 4 0 01-.85-.78 4.38 4.38 0 01-.61-1l1.61-.67a2.71 2.71 0 00.85 1.09 2.15 2.15 0 001.28.41c1.51 0 2.26-.88 2.26-2.65v-.44h-.07a2.72 2.72 0 01-2.22 1 3.91 3.91 0 01-2.85-1.23 4.13 4.13 0 01-1.2-3 4.18 4.18 0 011.2-3 3.85 3.85 0 012.85-1.24 2.74 2.74 0 012.22.94h.07v-.7h1.76V89a4.6 4.6 0 01-1.07 3.25 3.84 3.84 0 01-2.95 1.14zm-2.22-8a2.56 2.56 0 00.67 1.8 2.22 2.22 0 001.68.74 2.09 2.09 0 001.6-.72 2.87 2.87 0 000-3.66 2 2 0 00-1.6-.74 2.2 2.2 0 00-1.66.75 2.57 2.57 0 00-.69 1.85zm7.52-8.47h1.85v12.44h-1.85zm6.94 12.67a4 4 0 01-3-1.21 4.13 4.13 0 01-1.2-3 4.25 4.25 0 011.14-3 3.76 3.76 0 012.84-1.2 3.53 3.53 0 012.21.74 4.24 4.24 0 01.83.86 4.67 4.67 0 01.58 1.08l.19.48-5.65 2.34a2.17 2.17 0 002 1.28 2.39 2.39 0 002.08-1.17l1.44 1a4 4 0 01-3.46 1.82zm-.14-6.81a2.16 2.16 0 00-1.57.7 2.31 2.31 0 00-.64 1.76l3.78-1.57a1.32 1.32 0 00-.6-.64 1.85 1.85 0 00-.97-.23zM57.08 106a5.67 5.67 0 01-4-9.6 5.33 5.33 0 014-1.63A5 5 0 0161 96.51l-1 1a3.65 3.65 0 00-3-1.39 4.06 4.06 0 00-3 1.2 4.64 4.64 0 000 6.18 4.06 4.06 0 003 1.2 4.2 4.2 0 003.25-1.58l1 1a5.15 5.15 0 01-1.88 1.41 5.62 5.62 0 01-2.29.47zM64 95v10.74h-1.43V95zm1.18 7.06a3.92 3.92 0 011.07-2.81 3.65 3.65 0 012.71-1.1 3.61 3.61 0 012.7 1.1 3.89 3.89 0 011.08 2.81 3.84 3.84 0 01-1.08 2.81 3.58 3.58 0 01-2.7 1.11 3.62 3.62 0 01-2.71-1.11 3.92 3.92 0 01-1.12-2.81zm1.38 0a2.69 2.69 0 00.64 1.94 2.35 2.35 0 003.42 0 2.69 2.69 0 00.69-1.92 2.66 2.66 0 00-.69-1.9 2.32 2.32 0 00-3.42 0 2.66 2.66 0 00-.69 1.88zm13.82 3.68H79v-1a2.43 2.43 0 01-1 .9 2.77 2.77 0 01-1.36.36 2.68 2.68 0 01-2.07-.78 3 3 0 01-.73-2.2v-4.63h1.36v4.53a1.62 1.62 0 001.81 1.8 1.74 1.74 0 001.38-.67 2.44 2.44 0 00.56-1.6v-4.06h1.38zM85 106a3.22 3.22 0 01-2.48-1.15 4.27 4.27 0 010-5.54A3.24 3.24 0 0185 98.15a3.19 3.19 0 011.48.34 2.61 2.61 0 011 .92h.06l-.06-1V95h1.38v10.74h-1.29v-1h-.06a2.59 2.59 0 01-1 .91A3.2 3.2 0 0185 106zm.22-1.26a2.13 2.13 0 001.68-.74 3.06 3.06 0 000-3.82 2.22 2.22 0 00-3.33 0 3 3 0 000 3.81 2.14 2.14 0 001.66.73zm10.26-3.33v4.35h-1.37V95h3.66a3.31 3.31 0 012.37.93 3.1 3.1 0 010 4.54 3.31 3.31 0 01-2.37.92zm0-5.07v3.75h2.32a1.84 1.84 0 001.37-.56 1.8 1.8 0 00.55-1.32 1.77 1.77 0 00-.55-1.3 1.81 1.81 0 00-1.37-.57zm8.3-1.32v10.74h-1.38V95zm4.39 3.15a3.45 3.45 0 012.42.81 2.92 2.92 0 01.88 2.25v4.53h-1.32v-1h-.06a2.63 2.63 0 01-2.28 1.26 2.91 2.91 0 01-2-.73 2.28 2.28 0 01-.82-1.79 2.19 2.19 0 01.87-1.82 3.62 3.62 0 012.3-.67 4.05 4.05 0 012 .45v-.32a1.56 1.56 0 00-.57-1.22 1.92 1.92 0 00-1.33-.5 2.11 2.11 0 00-1.83 1l-1.22-.77a3.38 3.38 0 012.97-1.5zm-1.78 5.34a1.09 1.09 0 00.46.9 1.73 1.73 0 001.07.36 2.21 2.21 0 001.55-.65 2 2 0 00.68-1.52 2.9 2.9 0 00-1.8-.5 2.34 2.34 0 00-1.4.4 1.22 1.22 0 00-.55.99zm9.4 2.37a2.1 2.1 0 01-1.49-.56 2.08 2.08 0 01-.61-1.55v-4.1h-1.29v-1.28h1.29v-2.25h1.38v2.25h1.8v1.26h-1.8v3.66a1.31 1.31 0 00.29 1 .9.9 0 00.64.27 1.86 1.86 0 00.33 0l.29-.1.43 1.23a3.7 3.7 0 01-1.25.15zm5.94-11a2.61 2.61 0 011.23.25l-.37 1.22a1.79 1.79 0 00-.81-.18 1 1 0 00-.83.35 1.31 1.31 0 00-.33.94v.93h1.92v1.26h-1.92v6.09h-1.38v-6.09h-1.38v-1.26h1.38v-1.07a2.37 2.37 0 01.7-1.77 2.47 2.47 0 011.8-.67zm1.26 7.18a3.92 3.92 0 011.07-2.81 3.65 3.65 0 012.71-1.1 3.61 3.61 0 012.7 1.1 3.89 3.89 0 011.08 2.81 3.84 3.84 0 01-1.08 2.81 3.58 3.58 0 01-2.7 1.11 3.62 3.62 0 01-2.71-1.11 3.92 3.92 0 01-1.06-2.81zm1.38 0a2.69 2.69 0 00.69 1.92 2.35 2.35 0 003.42 0 2.69 2.69 0 00.69-1.92 2.66 2.66 0 00-.69-1.9 2.32 2.32 0 00-3.42 0 2.66 2.66 0 00-.68 1.9zm8.67 3.68h-1.38v-7.35H133v1.19h.06a2 2 0 01.87-1 2.33 2.33 0 011.28-.41 2.59 2.59 0 011 .18l-.42 1.33a2.26 2.26 0 00-.81-.11 1.78 1.78 0 00-1.36.64 2.11 2.11 0 00-.58 1.47zm5.45 0h-1.38v-7.35h1.32v1h.06a2.45 2.45 0 011-.91 2.75 2.75 0 012.72 0 2.22 2.22 0 01.9 1 2.86 2.86 0 012.53-1.41 2.5 2.5 0 012 .78 3.24 3.24 0 01.69 2.22v4.59h-1.43v-4.38a2.39 2.39 0 00-.38-1.5 1.56 1.56 0 00-1.26-.45 1.63 1.63 0 00-1.33.67 2.47 2.47 0 00-.54 1.59v4.07H142v-4.38a2.39 2.39 0 00-.38-1.5 1.56 1.56 0 00-1.26-.45 1.63 1.63 0 00-1.33.67 2.47 2.47 0 00-.54 1.59z" fill="#767676"/>
</svg>
