<svg xmlns="http://www.w3.org/2000/svg" width="200" height="128">
	<path fill="#767676" d="M124.75 86.76a2.39 2.39 0 0 1-2.08 1.17 2.17 2.17 0 0 1-2-1.28l5.65-2.34-.19-.48a4.67 4.67 0 0 0-.58-1.08 4.24 4.24 0 0 0-.83-.86 3.53 3.53 0 0 0-2.21-.74 3.76 3.76 0 0 0-2.84 1.2 4.25 4.25 0 0 0-1.14 3 4.13 4.13 0 0 0 1.2 3 4.27 4.27 0 0 0 6.51-.66zM121 83.48a2.16 2.16 0 0 1 1.57-.7 1.85 1.85 0 0 1 1 .25 1.32 1.32 0 0 1 .6.64l-3.78 1.57a2.31 2.31 0 0 1 .61-1.76zm-19.66 6.11a4.18 4.18 0 1 0-3-1.21 4.08 4.08 0 0 0 3 1.21zm-1.69-6a2.31 2.31 0 0 1 3.39 0 2.48 2.48 0 0 1 .69 1.82 2.57 2.57 0 0 1-.71 1.82 2.19 2.19 0 0 1-1.68.74 2.23 2.23 0 0 1-1.69-.74 2.55 2.55 0 0 1-.65-1.86 2.48 2.48 0 0 1 .65-1.82zm-7.55 6a4.18 4.18 0 0 0 4.24-4.22 4 4 0 0 0-1.24-3 4.25 4.25 0 1 0-3 7.23zm-1.7-6a2.31 2.31 0 0 1 3.39 0 2.48 2.48 0 0 1 .69 1.82 2.56 2.56 0 0 1-.7 1.82 2.3 2.3 0 0 1-3.38 0 2.55 2.55 0 0 1-.69-1.82 2.48 2.48 0 0 1 .69-1.86zm-3.28-1.15h-6v1.79h4.29A3.78 3.78 0 0 1 84 86.87a4.82 4.82 0 0 1-6.23-.46 4.87 4.87 0 0 1 0-6.75 4.51 4.51 0 0 1 3.35-1.39 4.56 4.56 0 0 1 3.23 1.28l1.26-1.27a6.32 6.32 0 0 0-4.49-1.81 6.61 6.61 0 0 0-3.33.9 6.54 6.54 0 0 0-2.45 2.42 6.36 6.36 0 0 0-.91 3.21 6.47 6.47 0 0 0 3.33 5.67 6.7 6.7 0 0 0 3.33.89 6.11 6.11 0 0 0 4.4-1.66 5.76 5.76 0 0 0 1.73-4.37 6.13 6.13 0 0 0-.1-1.09zm25.57-.35h-.07a2.74 2.74 0 0 0-2.22-.94 3.85 3.85 0 0 0-2.85 1.24 4.18 4.18 0 0 0-1.2 3 4.13 4.13 0 0 0 1.2 3 3.91 3.91 0 0 0 2.85 1.23 2.72 2.72 0 0 0 2.22-1h.07v.44c0 1.77-.75 2.65-2.26 2.65a2.15 2.15 0 0 1-1.28-.41 2.71 2.71 0 0 1-.85-1.09l-1.61.67a4.38 4.38 0 0 0 .61 1 4 4 0 0 0 .85.78 4.18 4.18 0 0 0 2.28.7 3.84 3.84 0 0 0 2.95-1.15 4.6 4.6 0 0 0 1.07-3.21v-7.6h-1.76zm-.53 5.12a2.09 2.09 0 0 1-1.6.72 2.22 2.22 0 0 1-1.68-.74 2.76 2.76 0 0 1 0-3.63 2.2 2.2 0 0 1 1.66-.75 2 2 0 0 1 1.6.74 2.87 2.87 0 0 1 0 3.66zm3.57-10.29h1.86v12.42h-1.86zM47.6 95.06V95h-1.78l-4.72 5.53h-.06V95h-1.38v10.73h1.38v-3.1l1.65-1.9 3.49 5h1.7v-.05l-4.26-6.02 3.98-4.6zm5.92 7.38A2.51 2.51 0 0 1 53 104a1.7 1.7 0 0 1-1.4.69c-1.21 0-1.81-.69-1.81-2.06v-4.24h-1.4v4.5a3.34 3.34 0 0 0 .71 2.25 2.58 2.58 0 0 0 2.09.84 2.79 2.79 0 0 0 1.37-.37 2.6 2.6 0 0 0 1-.89h.06v1h1.28v-7.33h-1.38zm6.94-4.29a3.26 3.26 0 0 0-1.46.35 2.58 2.58 0 0 0-1 .91h-.1l.06-1V95h-1.38v10.74h1.32v-1h.1a2.56 2.56 0 0 0 1 .9 3.15 3.15 0 0 0 1.51.36 3.24 3.24 0 0 0 2.46-1.13 4.26 4.26 0 0 0 0-5.58 3.23 3.23 0 0 0-2.51-1.14zm1.43 5.85a2.25 2.25 0 0 1-3.31 0 3.11 3.11 0 0 1 0-3.88 2.27 2.27 0 0 1 3.31 0 3 3 0 0 1 0 3.86zm6.51-5.85a3.28 3.28 0 0 0-2.59 1.15 4 4 0 0 0-1 2.76 3.94 3.94 0 0 0 1 2.81 3.54 3.54 0 0 0 2.74 1.13 3.46 3.46 0 0 0 2-.58 3.33 3.33 0 0 0 1.21-1.42l-1.23-.51a2 2 0 0 1-2 1.26 2.25 2.25 0 0 1-1.6-.65 2.46 2.46 0 0 1-.74-1.75H72v-.26a4 4 0 0 0-1-2.85 3.36 3.36 0 0 0-2.6-1.09zm-2.13 3a2.42 2.42 0 0 1 .73-1.26 2 2 0 0 1 1.33-.48A2.06 2.06 0 0 1 70 100a2 2 0 0 1 .58 1.2zm9.23-2.55a1.87 1.87 0 0 0-.86 1h-.06v-1.21h-1.32v7.35h1.38v-4a2.17 2.17 0 0 1 .57-1.56 1.83 1.83 0 0 1 1.33-.59 2.1 2.1 0 0 1 .74.11l.52-1.29a2.6 2.6 0 0 0-1-.18 2.37 2.37 0 0 0-1.3.37zm6.91-.45a2.79 2.79 0 0 0-1.38.36 2.51 2.51 0 0 0-1 .9H80v-1h-1.3v7.35h1.38v-4.07a2.46 2.46 0 0 1 .54-1.58 1.69 1.69 0 0 1 1.4-.68c1.21 0 1.81.68 1.81 2v4.29h1.38v-4.5a3.34 3.34 0 0 0-.72-2.22 2.58 2.58 0 0 0-2.08-.85zm7.59 0a3.29 3.29 0 0 0-2.59 1.15 4.07 4.07 0 0 0-1 2.76 4 4 0 0 0 1 2.81 3.56 3.56 0 0 0 2.75 1.13 3.5 3.5 0 0 0 2-.58 3.38 3.38 0 0 0 1.21-1.42l-1.23-.51a2 2 0 0 1-2 1.26 2.27 2.27 0 0 1-1.6-.65 2.5 2.5 0 0 1-.74-1.75h5.8v-.26a4.06 4.06 0 0 0-1-2.85 3.4 3.4 0 0 0-2.6-1.09zm-2.13 3a2.48 2.48 0 0 1 .77-1.29 2 2 0 0 1 1.36-.45 2 2 0 0 1 1.58.57 1.91 1.91 0 0 1 .58 1.2zm9.96 3.45c-.66 0-1-.4-1-1.2v-3.75h1.81v-1.26h-1.81v-2.25h-1.37v2.25h-1.29v1.26h1.29v3.85a2.13 2.13 0 0 0 2.37 2.36 2.79 2.79 0 0 0 1.11-.2l-.48-1.18a1.48 1.48 0 0 1-.63.12zm5.23-6.45a3.29 3.29 0 0 0-2.59 1.15 4.07 4.07 0 0 0-1 2.76 4 4 0 0 0 1 2.81 3.56 3.56 0 0 0 2.71 1.11 3.5 3.5 0 0 0 2-.58 3.3 3.3 0 0 0 1.18-1.43l-1.23-.51a2 2 0 0 1-2 1.26 2.27 2.27 0 0 1-1.6-.65 2.5 2.5 0 0 1-.74-1.75h5.81v-.26a4.06 4.06 0 0 0-1-2.85 3.4 3.4 0 0 0-2.54-1.06zm-2.13 3a2.48 2.48 0 0 1 .77-1.29 2 2 0 0 1 1.33-.48 2 2 0 0 1 1.58.57 1.91 1.91 0 0 1 .58 1.2zm10.67.37-1.46-.34c-.65-.15-1-.44-1-.86a.78.78 0 0 1 .42-.69 1.94 1.94 0 0 1 1-.25 1.63 1.63 0 0 1 1.68 1l1.2-.49a2.47 2.47 0 0 0-1.09-1.27 3.36 3.36 0 0 0-1.74-.44 3.49 3.49 0 0 0-2 .6 1.86 1.86 0 0 0-.86 1.58 1.63 1.63 0 0 0 .63 1.36 3.61 3.61 0 0 0 1.33.69l1.49.36c.67.17 1 .49 1 1a.88.88 0 0 1-.41.75 1.84 1.84 0 0 1-1.06.29 2 2 0 0 1-2-1.38l-1.23.51a3.57 3.57 0 0 0 1.17 1.5 3.33 3.33 0 0 0 2 .6 3.24 3.24 0 0 0 2.08-.66 2 2 0 0 0 .81-1.65 2 2 0 0 0-.49-1.32 2.75 2.75 0 0 0-1.47-.89zm6.76 4.21h6.27v-1.31h-4.89v-3.41h4.41v-1.29h-4.41v-3.41h4.89V95h-6.27v10.73zm11.44-7.58a2.79 2.79 0 0 0-1.38.36 2.48 2.48 0 0 0-.94.9h-.06v-1h-1.32v7.35h1.38v-4.07a2.46 2.46 0 0 1 .54-1.58 1.67 1.67 0 0 1 1.39-.68c1.21 0 1.82.68 1.82 2v4.29h1.38v-4.5a3.34 3.34 0 0 0-.72-2.25 2.61 2.61 0 0 0-2.09-.82zm9.99 1.26h-.06a2.75 2.75 0 0 0-1-.91 3.14 3.14 0 0 0-1.48-.35 3.23 3.23 0 0 0-2.46 1.12 4.26 4.26 0 0 0 0 5.58 3.24 3.24 0 0 0 2.46 1.13 3 3 0 0 0 1.48-.36 2.73 2.73 0 0 0 1-.9h.06v.7a2.53 2.53 0 0 1-.65 1.85 2.34 2.34 0 0 1-1.79.69 2.13 2.13 0 0 1-1.28-.41 2.08 2.08 0 0 1-.78-1l-1.25.53a3.69 3.69 0 0 0 1.18 1.49 3.3 3.3 0 0 0 2.13.66 3.84 3.84 0 0 0 2.67-1 3.64 3.64 0 0 0 1.09-2.87v-7h-1.32zm-.68 4.59a2.24 2.24 0 0 1-3.3 0 3 3 0 0 1 0-3.86 2.18 2.18 0 0 1 1.65-.72 2.22 2.22 0 0 1 1.65.71 3.11 3.11 0 0 1 0 3.88zm4.49-9.12a1 1 0 1 0 .69.28.94.94 0 0 0-.69-.28zm-.69 3.51h1.38v7.35h-1.38zm6.89-.24a2.79 2.79 0 0 0-1.38.36 2.51 2.51 0 0 0-.95.9h-.06v-1h-1.32v7.35h1.38v-4.07a2.46 2.46 0 0 1 .54-1.58 1.69 1.69 0 0 1 1.4-.68c1.21 0 1.81.68 1.81 2v4.29h1.38v-4.5a3.34 3.34 0 0 0-.72-2.25 2.58 2.58 0 0 0-2.08-.82zm11.2 3.91a4 4 0 0 0-1-2.85 3.38 3.38 0 0 0-2.62-1.06 3.26 3.26 0 0 0-2.58 1.15 4 4 0 0 0-1 2.76 4 4 0 0 0 1 2.81 3.84 3.84 0 0 0 4.73.53 3.3 3.3 0 0 0 1.18-1.43l-1.23-.51a2 2 0 0 1-2 1.26 2.23 2.23 0 0 1-1.59-.65 2.47 2.47 0 0 1-.75-1.75H161zm-5.73-.88a2.43 2.43 0 0 1 .78-1.29 2 2 0 0 1 1.32-.48 2.09 2.09 0 0 1 1.63.59 2 2 0 0 1 .57 1.2z"/>
	<path d="M84.72 67.49 73.65 48.31a4.83 4.83 0 0 1 0-4.85l11.07-19.17a4.85 4.85 0 0 1 4.2-2.42h22.14a4.85 4.85 0 0 1 4.2 2.42l11.07 19.17a4.88 4.88 0 0 1 0 4.85l-11.07 19.18a4.85 4.85 0 0 1-4.2 2.42H88.92a4.85 4.85 0 0 1-4.2-2.42z" fill="#4285f4"/>
	<path d="M111 39.64c0 .21.07.42.07.62v11.3a1.29 1.29 0 0 1-.69 1.21l-8.71 5-1.12.65a1.21 1.21 0 0 1-1.33 0l-8.52-4.93-1.3-.73-.15-.11a1.14 1.14 0 0 1-.55-1V40.12a1.11 1.11 0 0 1 .58-1l4.26-2.47 5.66-3.27a1.25 1.25 0 0 1 1.35 0l9.78 5.62a3.68 3.68 0 0 1 .67.64zm-11.69-4-.33.17-8.06 4.66a.44.44 0 0 0-.25.44v9.68c.12-.06.2-.09.28-.14 1-.56 2-1.14 2.93-1.69a.49.49 0 0 0 .29-.5V43.3l.18.08 4.8 2.77a.36.36 0 0 1 .18.37v5.7l-.15-.07c-1.39-.8-2.77-1.59-4.15-2.4a.47.47 0 0 0-.57 0l-3 1.73-.18.12.2.14 8.18 4.73a.41.41 0 0 0 .45 0l7.89-4.6.52-.32-.11-.08c-1.07-.61-2.13-1.23-3.2-1.83a.43.43 0 0 0-.35 0c-1 .54-1.91 1.1-2.87 1.65l-1.52.88v-5.69a.43.43 0 0 1 .24-.42l4.41-2.54.53-.29v5.05a.4.4 0 0 0 .22.4c1 .56 2 1.14 3 1.72l.28.13v-9.74a.35.35 0 0 0-.21-.35l-8.11-4.69-.29-.14a.74.74 0 0 0 0 .18v3.61a.44.44 0 0 0 .21.31c.95.57 1.91 1.11 2.87 1.66l1.5.88-.2.14-4.7 2.72a.47.47 0 0 1-.55 0l-3.75-2.17-1.14-.67.17-.11Q96.92 41 99 39.76a.47.47 0 0 0 .28-.48v-2.46z" fill="#fefefe"/>
	<path opacity=".07" d="M88.78 52.18zM111 39.64c0 .21.07.42.07.62v11.3a1.29 1.29 0 0 1-.69 1.21l-8.71 5-1.12.65a1.21 1.21 0 0 1-1.33 0l-8.52-4.93c-.41-.24-.83-.47-1.25-.7l17.46 17.09h4.18a4.85 4.85 0 0 0 4.2-2.42l8.3-14.39z"/>
</svg>
