<svg xmlns="http://www.w3.org/2000/svg" width="200" height="128">
	<defs>
		<style>
			.cls-3{fill:#fff}
		</style>
	</defs>
	<path d="m126.36 43.52-11.1-19.3a4.88 4.88 0 0 0-4.16-2.48H88.9a4.86 4.86 0 0 0-4.16 2.48l-11.1 19.26a4.87 4.87 0 0 0 0 4.82l11.1 19.39a5 5 0 0 0 4.16 2.57h22.2a4.94 4.94 0 0 0 4.16-2.56l11.1-19.3a5 5 0 0 0 0-4.88Z" style="fill:#4285f4"/>
	<path d="m106.39 34.82-2.39 2.7-2.7-2.7-2.15 2.88-2.88-2.88-2.7 4.47-4.75 3L92 45.44l-3.16 1.89 2.76 2.76-2.76 2.3 17.87 17.87h4.41a4.94 4.94 0 0 0 4.16-2.56L124 52.46Z" style="opacity:.07;isolation:isolate"/>
	<path class="cls-3" d="M93.79 43.29a.41.41 0 0 1-.41-.41.42.42 0 0 1 .36-.42l2.55-.34a.41.41 0 0 1 .11.82l-2.55.35Z"/>
	<path class="cls-3" d="m96.923 42.906.257-.79 4.592 1.497-.257.79z"/>
	<path class="cls-3" d="M96.79 42.77a.41.41 0 0 1-.42-.41.5.5 0 0 1 0-.12l.93-3.15a.41.41 0 0 1 .51-.28.42.42 0 0 1 .28.52l-.93 3.15a.41.41 0 0 1-.37.29Z"/>
	<path class="cls-3" d="M102.47 44.32a.41.41 0 0 1-.42-.41.37.37 0 0 1 0-.15l1.86-4.7a.41.41 0 1 1 .77.3l-1.86 4.7a.4.4 0 0 1-.35.26Z"/>
	<path class="cls-3" d="m92.887 51.021 4.36-3.482.518.649-4.36 3.482z"/>
	<path class="cls-3" d="m102.252 44.494.332-.761 4.024 1.754-.331.76z"/>
	<path class="cls-3" d="m102.11 48.79.569-.605 3.58 3.375-.569.604z"/>
	<path class="cls-3" d="m96.34 42.726.814-.165.895 4.41-.813.165z"/>
	<path class="cls-3" d="m97.645 47.69 4.544-3.994.548.623-4.544 3.994z"/>
	<path class="cls-3" d="m101.857 48.395.276-4.411.828.052-.276 4.411z"/>
	<circle class="cls-3" cx="97.71" cy="47.94" r="1.51"/>
	<circle class="cls-3" cx="102.53" cy="44.11" r="1.79"/>
	<circle class="cls-3" cx="102.52" cy="48.74" r=".94"/>
	<circle class="cls-3" cx="96.63" cy="42.23" r="1.1"/>
	<path class="cls-3" d="M103.73 34.82v2.66h-2.43v-2.66h-2.61v2.66h-2.42v-2.66h-2.66v2.66a2.3 2.3 0 0 0-2.13 2.13h-2.66v2.66h2.66v2.4h-2.66v2.66h2.66v2.4h-2.66v2.66h2.66a2.3 2.3 0 0 0 2.13 2.13v2.66h2.66v-2.66h2.42v2.66h2.61v-2.66h2.43v2.66h2.66v-2.66a2.3 2.3 0 0 0 2.13-2.13h2.66v-2.66h-2.66v-2.4h2.66v-2.66h-2.66v-2.4h2.66v-2.66h-2.66a2.3 2.3 0 0 0-2.13-2.13v-2.66Zm1.71 17H94.56a.42.42 0 0 1-.42-.42V40.56a.42.42 0 0 1 .42-.42h10.88a.42.42 0 0 1 .42.42v10.88a.42.42 0 0 1-.42.42Z"/>
	<path d="M81.09 89.59a6.7 6.7 0 0 1-3.33-.89 6.46 6.46 0 0 1-2.45-8.91 6.54 6.54 0 0 1 2.45-2.42 6.61 6.61 0 0 1 3.33-.9 6.32 6.32 0 0 1 4.49 1.81l-1.26 1.27a4.56 4.56 0 0 0-3.23-1.28 4.51 4.51 0 0 0-3.35 1.39 4.87 4.87 0 0 0 0 6.75 4.82 4.82 0 0 0 6.23.46 3.78 3.78 0 0 0 1.41-2.64h-4.29v-1.79h6a6.13 6.13 0 0 1 .1 1.12 5.76 5.76 0 0 1-1.73 4.37 6.11 6.11 0 0 1-4.37 1.66Zm15.25-4.22a4.18 4.18 0 1 1-1.24-3 4 4 0 0 1 1.24 3Zm-6.63 0a2.55 2.55 0 0 0 .69 1.82 2.3 2.3 0 0 0 3.38 0 2.56 2.56 0 0 0 .7-1.82 2.48 2.48 0 0 0-.69-1.82 2.31 2.31 0 0 0-3.39 0 2.48 2.48 0 0 0-.69 1.82Zm15.87 0a4.17 4.17 0 1 1-1.23-3 4 4 0 0 1 1.23 3Zm-6.62 0a2.55 2.55 0 0 0 .69 1.82 2.23 2.23 0 0 0 1.69.74 2.19 2.19 0 0 0 1.68-.74 2.57 2.57 0 0 0 .71-1.82 2.48 2.48 0 0 0-.69-1.82 2.31 2.31 0 0 0-3.39 0 2.48 2.48 0 0 0-.65 1.82Zm11.47 8a4.18 4.18 0 0 1-2.28-.7 4 4 0 0 1-.85-.78 4.38 4.38 0 0 1-.61-1l1.61-.67a2.71 2.71 0 0 0 .85 1.09 2.15 2.15 0 0 0 1.28.41c1.51 0 2.26-.88 2.26-2.65v-.44h-.07a2.72 2.72 0 0 1-2.22 1 3.91 3.91 0 0 1-2.85-1.23 4.13 4.13 0 0 1-1.2-3 4.18 4.18 0 0 1 1.2-3 3.85 3.85 0 0 1 2.85-1.24 2.74 2.74 0 0 1 2.22.94h.07v-.7h1.76V89a4.6 4.6 0 0 1-1.07 3.25 3.84 3.84 0 0 1-2.95 1.14Zm-2.22-8a2.56 2.56 0 0 0 .67 1.8 2.22 2.22 0 0 0 1.68.74 2.09 2.09 0 0 0 1.6-.72 2.87 2.87 0 0 0 0-3.66 2 2 0 0 0-1.6-.74 2.2 2.2 0 0 0-1.66.75 2.57 2.57 0 0 0-.69 1.85Zm7.52-8.47h1.85v12.44h-1.85Zm6.94 12.67a4 4 0 0 1-3-1.21 4.13 4.13 0 0 1-1.2-3 4.25 4.25 0 0 1 1.14-3 3.76 3.76 0 0 1 2.84-1.2 3.53 3.53 0 0 1 2.21.74 4.24 4.24 0 0 1 .83.86 4.67 4.67 0 0 1 .58 1.08l.19.48-5.65 2.34a2.17 2.17 0 0 0 2 1.28 2.39 2.39 0 0 0 2.08-1.17l1.44 1a4 4 0 0 1-3.46 1.82Zm-.14-6.81a2.16 2.16 0 0 0-1.57.7 2.31 2.31 0 0 0-.64 1.76l3.78-1.57a1.32 1.32 0 0 0-.6-.64 1.85 1.85 0 0 0-.97-.23ZM72.29 106a5.67 5.67 0 0 1-4-9.6 5.32 5.32 0 0 1 4-1.63 5 5 0 0 1 3.95 1.76l-1 1a3.66 3.66 0 0 0-3-1.39 4 4 0 0 0-3 1.2 4.61 4.61 0 0 0 0 6.18 4 4 0 0 0 3 1.2 4.22 4.22 0 0 0 3.26-1.58l1 1a5.24 5.24 0 0 1-1.88 1.41 5.63 5.63 0 0 1-2.33.45Zm6.88-11v10.74h-1.38V95Zm1.18 7.06a3.92 3.92 0 0 1 1.07-2.81 3.65 3.65 0 0 1 2.71-1.1 3.61 3.61 0 0 1 2.7 1.1 3.89 3.89 0 0 1 1.08 2.81 3.84 3.84 0 0 1-1.08 2.81 3.58 3.58 0 0 1-2.7 1.11 3.62 3.62 0 0 1-2.71-1.11 3.92 3.92 0 0 1-1.07-2.81Zm1.38 0a2.69 2.69 0 0 0 .69 1.92 2.35 2.35 0 0 0 3.42 0 2.69 2.69 0 0 0 .69-1.92 2.66 2.66 0 0 0-.69-1.9 2.32 2.32 0 0 0-3.42 0 2.66 2.66 0 0 0-.69 1.9Zm13.82 3.68h-1.32v-1h-.06a2.5 2.5 0 0 1-1 .9 2.8 2.8 0 0 1-1.36.36 2.71 2.71 0 0 1-2.08-.78A3.09 3.09 0 0 1 89 103v-4.61h1.38v4.53a1.62 1.62 0 0 0 1.81 1.8 1.74 1.74 0 0 0 1.38-.67 2.44 2.44 0 0 0 .56-1.6v-4.06h1.38Zm4.68.24a3.22 3.22 0 0 1-2.48-1.15 4.27 4.27 0 0 1 0-5.54 3.24 3.24 0 0 1 2.48-1.14 3.12 3.12 0 0 1 1.47.34 2.57 2.57 0 0 1 1 .92h.06l-.06-1V95h1.38v10.74h-1.32v-1h-.06a2.55 2.55 0 0 1-1 .91 3.13 3.13 0 0 1-1.47.35Zm.22-1.26a2.13 2.13 0 0 0 1.67-.74 3.06 3.06 0 0 0 0-3.82 2.22 2.22 0 0 0-3.33 0 3 3 0 0 0 0 3.81 2.14 2.14 0 0 0 1.66.75Zm11.94-8.4v9.42H111v-9.42h-3V95h7.38v1.32Zm5.82 5.07v4.35h-1.38V95h3.66a3.31 3.31 0 0 1 2.37.93 3.1 3.1 0 0 1 0 4.54 3.31 3.31 0 0 1-2.37.92Zm0-5.07v3.75h2.31a1.84 1.84 0 0 0 1.37-.56 1.8 1.8 0 0 0 .55-1.32 1.77 1.77 0 0 0-.55-1.3 1.81 1.81 0 0 0-1.37-.57ZM129 106a3.8 3.8 0 0 1-2.88-1.17 4.27 4.27 0 0 1-1.1-3.06V95h1.38v6.81a3 3 0 0 0 .69 2.08 2.74 2.74 0 0 0 3.81 0 3 3 0 0 0 .69-2.08V95H133v6.75a4.27 4.27 0 0 1-1.08 3.08A3.76 3.76 0 0 1 129 106Z" style="fill:#767676"/>
</svg>
