<svg xmlns="http://www.w3.org/2000/svg" width="200" height="128"><defs><style>.cls-1{fill:#4285f4;}.cls-2{opacity:0.07;isolation:isolate;}.cls-3{fill:#fff;}.cls-4{fill:#767676;}</style></defs><path class="cls-1" d="M126.36,43.52l-11.1-19.3a4.88,4.88,0,0,0-4.16-2.48H88.9a4.86,4.86,0,0,0-4.16,2.48L73.64,43.48a4.87,4.87,0,0,0,0,4.82l11.1,19.39a5,5,0,0,0,4.16,2.57h22.2a4.94,4.94,0,0,0,4.16-2.56l11.1-19.3A5,5,0,0,0,126.36,43.52Z"/><path class="cls-2" d="M108.71,34.09l-1.47.7-16,4,2.1,2.09L91.29,51.54l2,2-2,4.36,12.35,12.35h7.46a4.94,4.94,0,0,0,4.16-2.56l9.88-17.18Z"/><path class="cls-3" d="M97.65,38.81H91.28V34.09h17.43V38.8H102.4v6.34H97.65Z"/><path class="cls-3" d="M91.29,40.49H96V46.8h6.36V57.91H97.65V51.54H91.29Z"/><path class="cls-3" d="M104,40.48h4.69V57.91H104Z"/><path class="cls-3" d="M96,57.91H91.29V53.22H96Z"/><path class="cls-4" d="M81.09,89.59a6.7,6.7,0,0,1-3.33-.89,6.46,6.46,0,0,1-2.45-8.91,6.54,6.54,0,0,1,2.45-2.42,6.61,6.61,0,0,1,3.33-.9,6.32,6.32,0,0,1,4.49,1.81l-1.26,1.27a4.56,4.56,0,0,0-3.23-1.28,4.51,4.51,0,0,0-3.35,1.39,4.87,4.87,0,0,0,0,6.75,4.82,4.82,0,0,0,6.23.46,3.78,3.78,0,0,0,1.41-2.64H81.09V82.44h6a6.13,6.13,0,0,1,.1,1.12,5.76,5.76,0,0,1-1.73,4.37A6.11,6.11,0,0,1,81.09,89.59Zm15.25-4.22a4.18,4.18,0,1,1-1.24-3A4,4,0,0,1,96.34,85.37Zm-6.63,0a2.55,2.55,0,0,0,.69,1.82,2.3,2.3,0,0,0,3.38,0,2.56,2.56,0,0,0,.7-1.82,2.48,2.48,0,0,0-.69-1.82,2.31,2.31,0,0,0-3.39,0A2.48,2.48,0,0,0,89.71,85.37Zm15.87,0a4.17,4.17,0,1,1-1.23-3A4,4,0,0,1,105.58,85.37Zm-6.62,0a2.55,2.55,0,0,0,.69,1.82,2.23,2.23,0,0,0,1.69.74,2.19,2.19,0,0,0,1.68-.74,2.57,2.57,0,0,0,.71-1.82,2.48,2.48,0,0,0-.69-1.82,2.31,2.31,0,0,0-3.39,0A2.48,2.48,0,0,0,99,85.37Zm11.47,8a4.18,4.18,0,0,1-2.28-.7,4,4,0,0,1-.85-.78,4.38,4.38,0,0,1-.61-1l1.61-.67a2.71,2.71,0,0,0,.85,1.09,2.15,2.15,0,0,0,1.28.41c1.51,0,2.26-.88,2.26-2.65v-.44h-.07a2.72,2.72,0,0,1-2.22,1,3.91,3.91,0,0,1-2.85-1.23,4.13,4.13,0,0,1-1.2-3,4.18,4.18,0,0,1,1.2-3,3.85,3.85,0,0,1,2.85-1.24,2.74,2.74,0,0,1,2.22.94h.07V81.4h1.76V89a4.6,4.6,0,0,1-1.07,3.25A3.84,3.84,0,0,1,110.43,93.39Zm-2.22-8a2.56,2.56,0,0,0,.67,1.8,2.22,2.22,0,0,0,1.68.74,2.09,2.09,0,0,0,1.6-.72,2.87,2.87,0,0,0,0-3.66,2,2,0,0,0-1.6-.74,2.2,2.2,0,0,0-1.66.75A2.57,2.57,0,0,0,108.21,85.39Zm7.52-8.47h1.85V89.34h-1.85Zm6.94,12.67a4,4,0,0,1-3-1.21,4.13,4.13,0,0,1-1.2-3,4.25,4.25,0,0,1,1.14-3,3.76,3.76,0,0,1,2.84-1.2,3.53,3.53,0,0,1,2.21.74,4.24,4.24,0,0,1,.83.86,4.67,4.67,0,0,1,.58,1.08l.19.48-5.65,2.34a2.17,2.17,0,0,0,2,1.28,2.39,2.39,0,0,0,2.08-1.17l1.44,1A4,4,0,0,1,122.67,89.59Zm-.14-6.81a2.16,2.16,0,0,0-1.57.7,2.31,2.31,0,0,0-.64,1.76l3.78-1.57a1.32,1.32,0,0,0-.6-.64A1.85,1.85,0,0,0,122.53,82.78ZM50.76,106a5.67,5.67,0,0,1-4-9.6,5.33,5.33,0,0,1,4-1.63,5,5,0,0,1,4,1.76l-1,1a3.67,3.67,0,0,0-3-1.39,4,4,0,0,0-3,1.2,4.61,4.61,0,0,0,0,6.18,4,4,0,0,0,3,1.2A4.22,4.22,0,0,0,54,103.08l1,1a5.12,5.12,0,0,1-1.87,1.41A5.67,5.67,0,0,1,50.76,106Zm6.87-11v10.74H56.25V95Zm1.19,7.06a3.91,3.91,0,0,1,1.06-2.81,3.67,3.67,0,0,1,2.72-1.1,3.61,3.61,0,0,1,2.7,1.1,3.89,3.89,0,0,1,1.08,2.81,3.84,3.84,0,0,1-1.08,2.81A3.58,3.58,0,0,1,62.6,106a3.64,3.64,0,0,1-2.72-1.11A3.91,3.91,0,0,1,58.82,102.06Zm1.38,0a2.69,2.69,0,0,0,.69,1.92,2.35,2.35,0,0,0,3.42,0,2.69,2.69,0,0,0,.69-1.92,2.66,2.66,0,0,0-.69-1.9,2.32,2.32,0,0,0-3.42,0A2.66,2.66,0,0,0,60.2,102.06ZM74,105.74H72.69v-1h-.06a2.47,2.47,0,0,1-1,.9,2.8,2.8,0,0,1-1.36.36,2.71,2.71,0,0,1-2.08-.78,3.09,3.09,0,0,1-.73-2.2V98.39h1.38v4.53a1.63,1.63,0,0,0,1.82,1.8,1.74,1.74,0,0,0,1.38-.67,2.43,2.43,0,0,0,.55-1.6V98.39H74Zm4.68.24a3.2,3.2,0,0,1-2.47-1.15,4.27,4.27,0,0,1,0-5.54,3.22,3.22,0,0,1,2.47-1.14,3.16,3.16,0,0,1,1.48.34,2.57,2.57,0,0,1,1,.92h.06l-.06-1V95h1.38v10.74H81.26v-1H81.2a2.55,2.55,0,0,1-1,.91A3.17,3.17,0,0,1,78.69,106Zm.23-1.26a2.11,2.11,0,0,0,1.66-.74,3,3,0,0,0,0-3.82,2.11,2.11,0,0,0-1.66-.75,2.16,2.16,0,0,0-1.67.75,3,3,0,0,0,0,3.81A2.16,2.16,0,0,0,78.92,104.72ZM92.55,106a5.67,5.67,0,0,1-4-9.6,5.33,5.33,0,0,1,4-1.63,5,5,0,0,1,4,1.76l-1,1a3.67,3.67,0,0,0-3-1.39,4,4,0,0,0-3,1.2,4.61,4.61,0,0,0,0,6.18,4,4,0,0,0,3,1.2,4.22,4.22,0,0,0,3.26-1.58l1,1a5.12,5.12,0,0,1-1.87,1.41A5.67,5.67,0,0,1,92.55,106Zm4.92-3.92a3.92,3.92,0,0,1,1.07-2.81,3.65,3.65,0,0,1,2.71-1.1,3.61,3.61,0,0,1,2.7,1.1,3.89,3.89,0,0,1,1.08,2.81,3.84,3.84,0,0,1-1.08,2.81,3.58,3.58,0,0,1-2.7,1.11,3.62,3.62,0,0,1-2.71-1.11A3.92,3.92,0,0,1,97.47,102.06Zm1.38,0a2.69,2.69,0,0,0,.69,1.92,2.35,2.35,0,0,0,3.42,0,2.69,2.69,0,0,0,.69-1.92,2.66,2.66,0,0,0-.69-1.9,2.32,2.32,0,0,0-3.42,0A2.66,2.66,0,0,0,98.85,102.06Zm8.67,3.68h-1.38V98.39h1.32v1h.06a2.52,2.52,0,0,1,1-.91,2.79,2.79,0,0,1,1.3-.35,2.66,2.66,0,0,1,1.42.37,2.22,2.22,0,0,1,.9,1,2.88,2.88,0,0,1,2.54-1.41,2.47,2.47,0,0,1,2,.78,3.24,3.24,0,0,1,.69,2.22v4.59h-1.38v-4.38a2.4,2.4,0,0,0-.37-1.5,1.56,1.56,0,0,0-1.26-.45,1.65,1.65,0,0,0-1.34.67,2.47,2.47,0,0,0-.54,1.59v4.07H111v-4.38a2.4,2.4,0,0,0-.37-1.5,1.56,1.56,0,0,0-1.26-.45,1.65,1.65,0,0,0-1.34.67,2.47,2.47,0,0,0-.54,1.59Zm15.23.24a3.2,3.2,0,0,1-1.48-.35,2.62,2.62,0,0,1-1-.91h-.06l.06,1V109h-1.38V98.39h1.32v1h.06a2.64,2.64,0,0,1,1-.92,3.19,3.19,0,0,1,1.48-.34,3.16,3.16,0,0,1,2.46,1.14,4,4,0,0,1,1,2.77,4,4,0,0,1-1,2.77A3.13,3.13,0,0,1,122.75,106Zm-.23-1.26a2.16,2.16,0,0,0,1.67-.75,3,3,0,0,0,0-3.81,2.25,2.25,0,0,0-3.35,0,2.76,2.76,0,0,0-.66,1.9,2.8,2.8,0,0,0,.66,1.92A2.19,2.19,0,0,0,122.52,104.72Zm4.56-2.66a3.92,3.92,0,0,1,1.07-2.81,3.65,3.65,0,0,1,2.71-1.1,3.61,3.61,0,0,1,2.7,1.1,3.89,3.89,0,0,1,1.08,2.81,3.84,3.84,0,0,1-1.08,2.81,3.58,3.58,0,0,1-2.7,1.11,3.62,3.62,0,0,1-2.71-1.11A3.92,3.92,0,0,1,127.08,102.06Zm1.38,0a2.69,2.69,0,0,0,.69,1.92,2.35,2.35,0,0,0,3.42,0,2.69,2.69,0,0,0,.69-1.92,2.66,2.66,0,0,0-.69-1.9,2.32,2.32,0,0,0-3.42,0A2.66,2.66,0,0,0,128.46,102.06Zm13,1.64a2,2,0,0,1-.84,1.62,3.64,3.64,0,0,1-4.06.08,3.25,3.25,0,0,1-1.2-1.52l1.23-.53a2.29,2.29,0,0,0,.79,1,1.93,1.93,0,0,0,1.13.37,2,2,0,0,0,1.1-.29.79.79,0,0,0,.44-.67c0-.47-.36-.82-1.08-1l-1.26-.31c-1.43-.36-2.14-1-2.14-2.07a1.92,1.92,0,0,1,.82-1.62,3.43,3.43,0,0,1,2.09-.6,3.38,3.38,0,0,1,1.76.46,2.51,2.51,0,0,1,1.1,1.25l-1.23.51a1.5,1.5,0,0,0-.68-.73,2.08,2.08,0,0,0-1.06-.26,1.74,1.74,0,0,0-1,.27.77.77,0,0,0-.43.66c0,.42.39.72,1.18.9l1.11.28C140.72,101.85,141.45,102.58,141.45,103.7ZM146,106a3.52,3.52,0,0,1-2.67-1.11,4,4,0,0,1-1.05-2.81,4,4,0,0,1,1-2.8,3.68,3.68,0,0,1,5.21-.06,4.23,4.23,0,0,1,1,3l0,.15h-5.77a2.39,2.39,0,0,0,.72,1.74,2.33,2.33,0,0,0,3.72-.66l1.23.6a3.68,3.68,0,0,1-1.37,1.45A3.82,3.82,0,0,1,146,106Zm-2.21-4.8H148a1.84,1.84,0,0,0-.62-1.27,2.17,2.17,0,0,0-1.51-.5,2,2,0,0,0-1.34.48A2.27,2.27,0,0,0,143.82,101.18Zm8.33,4.56h-1.38V98.39h1.32v1.19h.06a2,2,0,0,1,.86-1,2.35,2.35,0,0,1,1.28-.41,2.59,2.59,0,0,1,1,.18l-.42,1.33a2.26,2.26,0,0,0-.81-.11,1.74,1.74,0,0,0-1.35.64,2.07,2.07,0,0,0-.58,1.47Z"/></svg>