<svg xmlns="http://www.w3.org/2000/svg" width="200" height="128">
	<defs>
		<style>
			.cls-1{fill:#4285f4}
		</style>
	</defs>
	<path class="cls-1" d="m126.37 43.51-11.1-19.28a4.89 4.89 0 0 0-4.17-2.49H88.9a4.94 4.94 0 0 0-4.17 2.49l-11.1 19.24a4.91 4.91 0 0 0 0 4.81l11.1 19.4a5 5 0 0 0 4.17 2.58h22.2a4.87 4.87 0 0 0 4.17-2.58l11.1-19.28a5.06 5.06 0 0 0 0-4.89Z"/>
	<path class="cls-1" d="M111.14 38.7h-.89l-2.45-2.49-18.52 4.73 2.41 2-2.41 2.24 2.28 2-2.28 2.24 2.54 2-2.54 2.23 16.63 16.67h5.19a4.86 4.86 0 0 0 4.17-2.58l9-15.56Z"/>
	<path id="Shape" d="m123.79 52.45-14.64-13.33-17.67 1.23v4L93.55 46l2 1.48-3.88 4.26 16.87 18a12.77 12.77 0 0 0 4.64-.42 6.83 6.83 0 0 0 2.24-2.07c.91-1.38 8.37-14.8 8.37-14.8Z" style="opacity:.07;isolation:isolate"/>
	<path d="M109.32 39.29v5.06l-8.86-3.29-9 3.55v-5.06l9-3.55Zm-17.72 7.6v5l8.86-3.29 8.86 3.29v-5l-8.86-3.29Zm8.86 3.92v4.43l7-2.66-4.46-1.94Z" style="fill:#fff"/>
	<path d="M81.09 89.59a6.7 6.7 0 0 1-3.33-.89 6.46 6.46 0 0 1-2.45-8.91 6.54 6.54 0 0 1 2.45-2.42 6.61 6.61 0 0 1 3.33-.9 6.32 6.32 0 0 1 4.49 1.81l-1.26 1.27a4.56 4.56 0 0 0-3.23-1.28 4.51 4.51 0 0 0-3.35 1.39 4.87 4.87 0 0 0 0 6.75 4.82 4.82 0 0 0 6.23.46 3.78 3.78 0 0 0 1.41-2.64h-4.29v-1.79h6a6.13 6.13 0 0 1 .1 1.12 5.76 5.76 0 0 1-1.73 4.37 6.11 6.11 0 0 1-4.37 1.66Zm15.25-4.22a4.18 4.18 0 1 1-1.24-3 4 4 0 0 1 1.24 3Zm-6.63 0a2.55 2.55 0 0 0 .69 1.82 2.3 2.3 0 0 0 3.38 0 2.56 2.56 0 0 0 .7-1.82 2.48 2.48 0 0 0-.69-1.82 2.31 2.31 0 0 0-3.39 0 2.48 2.48 0 0 0-.69 1.82Zm15.87 0a4.17 4.17 0 1 1-1.23-3 4 4 0 0 1 1.23 3Zm-6.62 0a2.55 2.55 0 0 0 .69 1.82 2.23 2.23 0 0 0 1.69.74 2.19 2.19 0 0 0 1.68-.74 2.57 2.57 0 0 0 .71-1.82 2.48 2.48 0 0 0-.69-1.82 2.31 2.31 0 0 0-3.39 0 2.48 2.48 0 0 0-.65 1.82Zm11.47 8a4.18 4.18 0 0 1-2.28-.7 4 4 0 0 1-.85-.78 4.38 4.38 0 0 1-.61-1l1.61-.67a2.71 2.71 0 0 0 .85 1.09 2.15 2.15 0 0 0 1.28.41c1.51 0 2.26-.88 2.26-2.65v-.44h-.07a2.72 2.72 0 0 1-2.22 1 3.91 3.91 0 0 1-2.85-1.23 4.13 4.13 0 0 1-1.2-3 4.18 4.18 0 0 1 1.2-3 3.85 3.85 0 0 1 2.85-1.24 2.74 2.74 0 0 1 2.22.94h.07v-.7h1.76V89a4.6 4.6 0 0 1-1.07 3.25 3.84 3.84 0 0 1-2.95 1.14Zm-2.22-8a2.56 2.56 0 0 0 .67 1.8 2.22 2.22 0 0 0 1.68.74 2.09 2.09 0 0 0 1.6-.72 2.87 2.87 0 0 0 0-3.66 2 2 0 0 0-1.6-.74 2.2 2.2 0 0 0-1.66.75 2.57 2.57 0 0 0-.69 1.85Zm7.52-8.47h1.85v12.44h-1.85Zm6.94 12.67a4 4 0 0 1-3-1.21 4.13 4.13 0 0 1-1.2-3 4.25 4.25 0 0 1 1.14-3 3.76 3.76 0 0 1 2.84-1.2 3.53 3.53 0 0 1 2.21.74 4.24 4.24 0 0 1 .83.86 4.67 4.67 0 0 1 .58 1.08l.19.48-5.65 2.34a2.17 2.17 0 0 0 2 1.28 2.39 2.39 0 0 0 2.08-1.17l1.44 1a4 4 0 0 1-3.46 1.82Zm-.14-6.81a2.16 2.16 0 0 0-1.57.7 2.31 2.31 0 0 0-.64 1.76l3.78-1.57a1.32 1.32 0 0 0-.6-.64 1.85 1.85 0 0 0-.97-.23ZM56.41 106a5.67 5.67 0 0 1-4-9.6 5.33 5.33 0 0 1 4-1.63 5 5 0 0 1 4 1.76l-1 1a3.67 3.67 0 0 0-3-1.39 4 4 0 0 0-3 1.2 4.61 4.61 0 0 0 0 6.18 4 4 0 0 0 3 1.2 4.22 4.22 0 0 0 3.26-1.58l1 1a5.12 5.12 0 0 1-1.87 1.41 5.67 5.67 0 0 1-2.39.45Zm6.87-11v10.74H61.9V95Zm1.19 7.06a3.91 3.91 0 0 1 1.06-2.81 3.67 3.67 0 0 1 2.72-1.1 3.61 3.61 0 0 1 2.7 1.1 3.89 3.89 0 0 1 1.05 2.81 3.84 3.84 0 0 1-1 2.81 3.58 3.58 0 0 1-2.7 1.11 3.64 3.64 0 0 1-2.72-1.11 3.91 3.91 0 0 1-1.11-2.81Zm1.38 0a2.69 2.69 0 0 0 .69 1.92A2.35 2.35 0 0 0 70 104a2.69 2.69 0 0 0 .69-1.92 2.66 2.66 0 0 0-.69-1.9 2.32 2.32 0 0 0-3.42 0 2.66 2.66 0 0 0-.73 1.88Zm13.81 3.68h-1.32v-1h-.06a2.43 2.43 0 0 1-1 .9A2.73 2.73 0 0 1 76 106a2.7 2.7 0 0 1-2.08-.78 3 3 0 0 1-.73-2.2v-4.63h1.38v4.53a1.63 1.63 0 0 0 1.82 1.8 1.74 1.74 0 0 0 1.38-.67 2.43 2.43 0 0 0 .55-1.6v-4.06h1.38Zm4.68.24a3.2 3.2 0 0 1-2.47-1.15 4.27 4.27 0 0 1 0-5.54 3.29 3.29 0 0 1 3.95-.8 2.64 2.64 0 0 1 1 .92h.06l-.06-1V95h1.38v10.74h-1.29v-1h-.06a2.62 2.62 0 0 1-1 .91 3.2 3.2 0 0 1-1.51.35Zm.23-1.26a2.11 2.11 0 0 0 1.66-.74 3 3 0 0 0 0-3.82 2.11 2.11 0 0 0-1.66-.75 2.16 2.16 0 0 0-1.67.75 3 3 0 0 0 0 3.81 2.16 2.16 0 0 0 1.67.75Zm10.26-3.59v4.61h-1.38V95h6.27v1.32h-4.89v3.52h4.41v1.29Zm7.84-5.28a1 1 0 1 1-.29-.69.94.94 0 0 1 .29.69Zm-.29 2.54v7.35H101v-7.35Zm3.18 7.35h-1.38v-7.35h1.32v1.19h.06a2 2 0 0 1 .87-1 2.33 2.33 0 0 1 1.28-.41 2.59 2.59 0 0 1 1 .18l-.42 1.33a2.26 2.26 0 0 0-.81-.11 1.78 1.78 0 0 0-1.36.64 2.11 2.11 0 0 0-.58 1.47Zm6.92.24a3.52 3.52 0 0 1-2.67-1.11 4 4 0 0 1-1-2.81 4 4 0 0 1 1-2.8 3.68 3.68 0 0 1 5.19-.06 4.23 4.23 0 0 1 1 3v.15h-5.77a2.39 2.39 0 0 0 .72 1.74 2.33 2.33 0 0 0 3.72-.66l1.23.6a3.68 3.68 0 0 1-1.37 1.45 3.82 3.82 0 0 1-2.05.52Zm-2.21-4.8h4.22a1.84 1.84 0 0 0-.62-1.27 2.17 2.17 0 0 0-1.51-.5 2 2 0 0 0-1.34.48 2.33 2.33 0 0 0-.75 1.29Zm12.65 2.52a2 2 0 0 1-.84 1.62 3.65 3.65 0 0 1-4.07.08 3.25 3.25 0 0 1-1.2-1.52l1.23-.53a2.36 2.36 0 0 0 .79 1 2 2 0 0 0 1.13.37 2 2 0 0 0 1.11-.29.81.81 0 0 0 .44-.67c0-.47-.36-.82-1.08-1l-1.26-.31c-1.43-.36-2.15-1-2.15-2.07a2 2 0 0 1 .82-1.62 3.8 3.8 0 0 1 3.86-.14 2.56 2.56 0 0 1 1.1 1.25l-1.23.51a1.55 1.55 0 0 0-.68-.73 2.11 2.11 0 0 0-1.06-.26 1.79 1.79 0 0 0-1 .27.79.79 0 0 0-.43.66c0 .42.4.72 1.19.9l1.11.28c1.49.35 2.22 1.08 2.22 2.2Zm4 2.16a2.1 2.1 0 0 1-1.49-.56 2.08 2.08 0 0 1-.61-1.55v-4.1h-1.29v-1.26h1.29v-2.25h1.38v2.25h1.8v1.26h-1.8v3.66a1.31 1.31 0 0 0 .29 1 .9.9 0 0 0 .64.27 1.86 1.86 0 0 0 .33 0l.29-.1.43 1.23a3.7 3.7 0 0 1-1.18.15Zm1.91-3.8a3.91 3.91 0 0 1 1.06-2.81 3.67 3.67 0 0 1 2.72-1.1 3.61 3.61 0 0 1 2.7 1.1 3.89 3.89 0 0 1 1.08 2.81 3.84 3.84 0 0 1-1.08 2.81 3.58 3.58 0 0 1-2.7 1.11 3.64 3.64 0 0 1-2.72-1.11 3.91 3.91 0 0 1-1.03-2.81Zm1.38 0a2.69 2.69 0 0 0 .69 1.92 2.35 2.35 0 0 0 3.42 0 2.69 2.69 0 0 0 .69-1.92 2.66 2.66 0 0 0-.69-1.9 2.32 2.32 0 0 0-3.42 0 2.66 2.66 0 0 0-.66 1.9Zm8.67 3.68h-1.38v-7.35h1.32v1.19h.06a2 2 0 0 1 .86-1 2.35 2.35 0 0 1 1.28-.41 2.59 2.59 0 0 1 1 .18l-.42 1.33a2.26 2.26 0 0 0-.81-.11 1.74 1.74 0 0 0-1.35.64 2.07 2.07 0 0 0-.58 1.47Zm6.91.24a3.52 3.52 0 0 1-2.67-1.11 4 4 0 0 1-1.05-2.81 4 4 0 0 1 1-2.8 3.69 3.69 0 0 1 5.22-.06 4.28 4.28 0 0 1 1 3v.15h-5.78a2.39 2.39 0 0 0 .72 1.74 2.33 2.33 0 0 0 3.72-.66l1.23.6a3.61 3.61 0 0 1-1.37 1.45 3.8 3.8 0 0 1-1.99.52Zm-2.2-4.8h4.21a1.8 1.8 0 0 0-.62-1.27 2.15 2.15 0 0 0-1.51-.5 2 2 0 0 0-1.34.48 2.32 2.32 0 0 0-.71 1.29Z" style="fill:#767676"/>
</svg>
