<svg xmlns="http://www.w3.org/2000/svg" width="200" height="128"><defs><style>.cls-1{fill:#4285f4;}.cls-2{opacity:0.07;isolation:isolate;}.cls-3{fill:#fff;}.cls-4{fill:#767676;}</style></defs><path class="cls-1" d="M126.35,43.51,115.26,24.22a4.86,4.86,0,0,0-4.16-2.48H88.9a4.86,4.86,0,0,0-4.16,2.48L73.64,43.46a4.89,4.89,0,0,0,0,4.83l11.1,19.4a5,5,0,0,0,4.16,2.57h22.19a5,5,0,0,0,4.17-2.55l11.09-19.3A4.93,4.93,0,0,0,126.35,43.51Z"/><path class="cls-2" d="M111.35,36.19l-.52,4.16L108,37.52l-9.87-4.05,5.5,5.52L97,35.84,85.81,41.07l3,3-.21,11.72,14.42,14.43h8a5,5,0,0,0,4.17-2.56l10.07-17.52Z"/><g id="art"><path class="cls-3" d="M108.3,38.26V47a.54.54,0,0,1-.26.46l-1.42.81v-9a1.05,1.05,0,0,0-.53-.91l-7-4.08a3.8,3.8,0,0,1-1.89-3l10.61,6.12A1,1,0,0,1,108.3,38.26Z"/><path class="cls-3" d="M110.85,49.32l-7.55,4.36a.51.51,0,0,1-.53,0l-1.41-.81,7.82-4.52a1.05,1.05,0,0,0,.52-.91V39.31a3.79,3.79,0,0,1,1.69-3.15V48.39A1.05,1.05,0,0,1,110.85,49.32Z"/><path class="cls-3" d="M102.53,57.05,95,52.7a.52.52,0,0,1-.27-.46V50.61l7.81,4.51a1,1,0,0,0,1,0l7.06-4.06a3.75,3.75,0,0,1,3.56-.13l-10.6,6.12A1,1,0,0,1,102.53,57.05Z"/><path class="cls-3" d="M91.69,53.73V45a.54.54,0,0,1,.26-.46l1.42-.82v9a1,1,0,0,0,.53.91l7,4.07a3.85,3.85,0,0,1,1.89,3L92.22,54.64A1,1,0,0,1,91.69,53.73Z"/><path class="cls-3" d="M89.14,42.67l7.55-4.37a.55.55,0,0,1,.53,0l1.42.82-7.82,4.52a1,1,0,0,0-.53.91v8.13a3.78,3.78,0,0,1-1.68,3.15V43.6A1,1,0,0,1,89.14,42.67Z"/><path class="cls-3" d="M97.47,34.93,105,39.29a.51.51,0,0,1,.26.45v1.64l-7.8-4.51a1,1,0,0,0-1,0l-7.07,4.06a3.8,3.8,0,0,1-3.56.13L96.4,34.93A1.08,1.08,0,0,1,97.47,34.93Z"/><path class="cls-3" d="M100,48.23a.59.59,0,0,1-.29-.07l-5-2.88v1.26l5.28,3,5.27-3V45.26l-5,2.89A.54.54,0,0,1,100,48.23Z"/><path class="cls-3" d="M100.28,50.75a.58.58,0,0,1-.57,0l-5-2.88v.92a.58.58,0,0,0,.28.49L99.72,52a.54.54,0,0,0,.55,0L105,49.28a.58.58,0,0,0,.28-.49v-.92Z"/><path class="cls-3" d="M100,47l5.27-3.05v-.59a.56.56,0,0,0-.28-.48l-4.72-2.72a.54.54,0,0,0-.55,0L95,42.87a.56.56,0,0,0-.28.48v.59Z"/></g><path class="cls-4" d="M81.09,89.59a6.7,6.7,0,0,1-3.33-.89,6.46,6.46,0,0,1-2.45-8.91,6.54,6.54,0,0,1,2.45-2.42,6.61,6.61,0,0,1,3.33-.9,6.32,6.32,0,0,1,4.49,1.81l-1.26,1.27a4.56,4.56,0,0,0-3.23-1.28,4.51,4.51,0,0,0-3.35,1.39,4.87,4.87,0,0,0,0,6.75,4.82,4.82,0,0,0,6.23.46,3.78,3.78,0,0,0,1.41-2.64H81.09V82.44h6a6.13,6.13,0,0,1,.1,1.12,5.76,5.76,0,0,1-1.73,4.37A6.11,6.11,0,0,1,81.09,89.59Zm15.25-4.22a4.18,4.18,0,1,1-1.24-3A4,4,0,0,1,96.34,85.37Zm-6.63,0a2.55,2.55,0,0,0,.69,1.82,2.3,2.3,0,0,0,3.38,0,2.56,2.56,0,0,0,.7-1.82,2.48,2.48,0,0,0-.69-1.82,2.31,2.31,0,0,0-3.39,0A2.48,2.48,0,0,0,89.71,85.37Zm15.87,0a4.17,4.17,0,1,1-1.23-3A4,4,0,0,1,105.58,85.37Zm-6.62,0a2.55,2.55,0,0,0,.69,1.82,2.23,2.23,0,0,0,1.69.74,2.19,2.19,0,0,0,1.68-.74,2.57,2.57,0,0,0,.71-1.82,2.48,2.48,0,0,0-.69-1.82,2.31,2.31,0,0,0-3.39,0A2.48,2.48,0,0,0,99,85.37Zm11.47,8a4.18,4.18,0,0,1-2.28-.7,4,4,0,0,1-.85-.78,4.38,4.38,0,0,1-.61-1l1.61-.67a2.71,2.71,0,0,0,.85,1.09,2.15,2.15,0,0,0,1.28.41c1.51,0,2.26-.88,2.26-2.65v-.44h-.07a2.72,2.72,0,0,1-2.22,1,3.91,3.91,0,0,1-2.85-1.23,4.13,4.13,0,0,1-1.2-3,4.18,4.18,0,0,1,1.2-3,3.85,3.85,0,0,1,2.85-1.24,2.74,2.74,0,0,1,2.22.94h.07V81.4h1.76V89a4.6,4.6,0,0,1-1.07,3.25A3.84,3.84,0,0,1,110.43,93.39Zm-2.22-8a2.56,2.56,0,0,0,.67,1.8,2.22,2.22,0,0,0,1.68.74,2.09,2.09,0,0,0,1.6-.72,2.87,2.87,0,0,0,0-3.66,2,2,0,0,0-1.6-.74,2.2,2.2,0,0,0-1.66.75A2.57,2.57,0,0,0,108.21,85.39Zm7.52-8.47h1.85V89.34h-1.85Zm6.94,12.67a4,4,0,0,1-3-1.21,4.13,4.13,0,0,1-1.2-3,4.25,4.25,0,0,1,1.14-3,3.76,3.76,0,0,1,2.84-1.2,3.53,3.53,0,0,1,2.21.74,4.24,4.24,0,0,1,.83.86,4.67,4.67,0,0,1,.58,1.08l.19.48-5.65,2.34a2.17,2.17,0,0,0,2,1.28,2.39,2.39,0,0,0,2.08-1.17l1.44,1A4,4,0,0,1,122.67,89.59Zm-.14-6.81a2.16,2.16,0,0,0-1.57.7,2.31,2.31,0,0,0-.64,1.76l3.78-1.57a1.32,1.32,0,0,0-.6-.64A1.85,1.85,0,0,0,122.53,82.78Zm-64,23.2a5.67,5.67,0,0,1-4-9.6,5.33,5.33,0,0,1,4-1.63,5,5,0,0,1,4,1.76l-1,1a3.67,3.67,0,0,0-3-1.39,4,4,0,0,0-3,1.2,4.61,4.61,0,0,0,0,6.18,4,4,0,0,0,3,1.2,4.22,4.22,0,0,0,3.26-1.58l1,1a5.12,5.12,0,0,1-1.87,1.41A5.67,5.67,0,0,1,58.54,106Zm6.87-11v10.74H64V95Zm1.19,7.06a3.91,3.91,0,0,1,1.06-2.81,3.67,3.67,0,0,1,2.72-1.1,3.61,3.61,0,0,1,2.7,1.1,3.89,3.89,0,0,1,1.08,2.81,3.84,3.84,0,0,1-1.08,2.81,3.58,3.58,0,0,1-2.7,1.11,3.64,3.64,0,0,1-2.72-1.11A3.91,3.91,0,0,1,66.6,102.06Zm1.38,0a2.69,2.69,0,0,0,.69,1.92,2.35,2.35,0,0,0,3.42,0,2.69,2.69,0,0,0,.69-1.92,2.66,2.66,0,0,0-.69-1.9,2.32,2.32,0,0,0-3.42,0A2.66,2.66,0,0,0,68,102.06Zm13.81,3.68H80.47v-1h-.06a2.43,2.43,0,0,1-1,.9,2.73,2.73,0,0,1-1.35.36A2.7,2.7,0,0,1,76,105.2a3,3,0,0,1-.73-2.2V98.39h1.38v4.53a1.63,1.63,0,0,0,1.82,1.8,1.74,1.74,0,0,0,1.38-.67,2.43,2.43,0,0,0,.55-1.6V98.39h1.38Zm4.68.24A3.2,3.2,0,0,1,84,104.83a4.27,4.27,0,0,1,0-5.54,3.29,3.29,0,0,1,4-.8,2.64,2.64,0,0,1,1,.92H89l-.06-1V95h1.38v10.74H89v-1H89a2.62,2.62,0,0,1-1,.91A3.2,3.2,0,0,1,86.47,106Zm.23-1.26a2.11,2.11,0,0,0,1.66-.74,3,3,0,0,0,0-3.82,2.11,2.11,0,0,0-1.66-.75,2.16,2.16,0,0,0-1.67.75A3,3,0,0,0,85,104,2.16,2.16,0,0,0,86.7,104.72Zm8.88,1V95h3.88a3.16,3.16,0,0,1,2.19.83,2.71,2.71,0,0,1,.91,2.09,2.27,2.27,0,0,1-1.45,2.24v.06a2.62,2.62,0,0,1,1.32.93,2.53,2.53,0,0,1,.5,1.53,2.86,2.86,0,0,1-1,2.19,3.26,3.26,0,0,1-2.3.87ZM97,96.32V99.6h2.5a1.67,1.67,0,0,0,1.23-.49,1.63,1.63,0,0,0,.5-1.16,1.67,1.67,0,0,0-.48-1.14,1.61,1.61,0,0,0-1.19-.49Zm0,4.57v3.53h2.77a1.79,1.79,0,0,0,1.79-1.77,1.69,1.69,0,0,0-.53-1.23,1.79,1.79,0,0,0-1.32-.53Zm9.07-5a1,1,0,1,1-.29-.69A.94.94,0,0,1,106,95.85Zm-.29,2.54v7.35h-1.38V98.39Zm5,10.83a4.28,4.28,0,0,1-1.16-.16,3.8,3.8,0,0,1-1-.44,3.33,3.33,0,0,1-.76-.68,2.85,2.85,0,0,1-.48-.87l1.3-.54a2,2,0,0,0,.79,1,2.14,2.14,0,0,0,1.29.39,2.27,2.27,0,0,0,1.75-.68,2.62,2.62,0,0,0,.63-1.86v-.7h-.06a2.72,2.72,0,0,1-1.06.92,3.26,3.26,0,0,1-3.92-.79,4.07,4.07,0,0,1-1-2.79,4,4,0,0,1,1-2.77,3.28,3.28,0,0,1,3.92-.81,2.74,2.74,0,0,1,1.06.93h.06v-1h1.32v7a3.76,3.76,0,0,1-1,2.78A3.64,3.64,0,0,1,110.73,109.22Zm0-4.5a2.14,2.14,0,0,0,1.67-.74,3.06,3.06,0,0,0,0-3.82,2.23,2.23,0,0,0-3.34,0,3,3,0,0,0,0,3.81A2.16,2.16,0,0,0,110.77,104.72Zm8.17,1.14a2.1,2.1,0,0,1-1.49-.56,2.08,2.08,0,0,1-.61-1.55v-4.1h-1.29V98.39h1.29V96.14h1.38v2.25H120v1.26h-1.8v3.66a1.31,1.31,0,0,0,.29,1,.92.92,0,0,0,.64.27,1.86,1.86,0,0,0,.33,0l.29-.1.43,1.23A3.7,3.7,0,0,1,118.94,105.86Zm5-7.71a3.45,3.45,0,0,1,2.42.81,2.93,2.93,0,0,1,.89,2.25v4.53H126v-1h-.06a2.63,2.63,0,0,1-2.28,1.26,2.93,2.93,0,0,1-2-.73,2.28,2.28,0,0,1-.82-1.79,2.19,2.19,0,0,1,.87-1.82,3.62,3.62,0,0,1,2.3-.67,4,4,0,0,1,2,.45v-.32a1.58,1.58,0,0,0-.56-1.22,2,2,0,0,0-1.34-.5,2.11,2.11,0,0,0-1.83,1L121,99.58A3.36,3.36,0,0,1,124,98.15Zm-1.78,5.34a1.09,1.09,0,0,0,.46.9,1.73,1.73,0,0,0,1.07.36,2.19,2.19,0,0,0,1.55-.65,2,2,0,0,0,.68-1.52,2.87,2.87,0,0,0-1.79-.5,2.35,2.35,0,0,0-1.41.4A1.22,1.22,0,0,0,122.2,103.49ZM132.73,106a3.2,3.2,0,0,1-1.48-.35,2.52,2.52,0,0,1-1-.91h-.06v1h-1.33V95h1.39v3.39l-.06,1h.06a2.54,2.54,0,0,1,1-.92,3.19,3.19,0,0,1,1.48-.34,3.16,3.16,0,0,1,2.46,1.14,4,4,0,0,1,1,2.77,4,4,0,0,1-1,2.77A3.13,3.13,0,0,1,132.73,106Zm-.23-1.26a2.15,2.15,0,0,0,1.67-.75,3,3,0,0,0,0-3.81,2.25,2.25,0,0,0-3.35,0,2.76,2.76,0,0,0-.65,1.9,2.79,2.79,0,0,0,.65,1.92A2.19,2.19,0,0,0,132.5,104.72ZM138.79,95v10.74h-1.38V95Zm4.9,11a3.52,3.52,0,0,1-2.67-1.11,4,4,0,0,1-1.05-2.81,4,4,0,0,1,1-2.8,3.69,3.69,0,0,1,5.22-.06,4.28,4.28,0,0,1,1,3v.15h-5.78a2.39,2.39,0,0,0,.72,1.74,2.33,2.33,0,0,0,3.72-.66l1.23.6a3.61,3.61,0,0,1-1.37,1.45A3.8,3.8,0,0,1,143.69,106Zm-2.2-4.8h4.21a1.8,1.8,0,0,0-.62-1.27,2.15,2.15,0,0,0-1.51-.5,2,2,0,0,0-1.34.48A2.32,2.32,0,0,0,141.49,101.18Z"/></svg>