<svg xmlns="http://www.w3.org/2000/svg" width="200" height="128"><defs><style>.cls-1{fill:#4285f4;}.cls-2{opacity:0.07;isolation:isolate;}.cls-3{fill:#fff;}.cls-4{fill:#767676;}</style></defs><path class="cls-1" d="M126.35,43.51,115.26,24.22a4.86,4.86,0,0,0-4.16-2.48H88.9a4.86,4.86,0,0,0-4.16,2.48L73.64,43.46a4.89,4.89,0,0,0,0,4.83l11.1,19.4a5,5,0,0,0,4.16,2.57h22.19a5,5,0,0,0,4.17-2.55l11.09-19.3A4.93,4.93,0,0,0,126.35,43.51Z"/><path class="cls-2" d="M112.65,35l-7.42,3.37H98.31l-4.64-4.64L90.81,38.4h-.09l-3.38,1.69,3.23,3.22-.7,13.23,13.71,13.71h7.51a5,5,0,0,0,4.17-2.56l11-19.08Z"/><rect id="Rectangle-path" class="cls-3" x="97.04" y="35.03" width="15.61" height="4.64"/><rect id="Rectangle-path-2" class="cls-3" x="90.72" y="45.99" width="6.75" height="1.27"/><rect id="Rectangle-path-3" class="cls-3" x="97.04" y="44.31" width="15.61" height="4.64"/><rect id="Rectangle-path-4" class="cls-3" x="90.72" y="55.27" width="6.75" height="1.27"/><rect id="Rectangle-path-5" class="cls-3" x="89.87" y="40.09" width="1.27" height="16.45"/><g id="Group"><rect id="Rectangle-path-6" class="cls-3" x="87.34" y="33.76" width="6.33" height="6.33"/><rect id="Rectangle-path-7" class="cls-3" x="97.04" y="53.59" width="15.61" height="4.64"/></g><path class="cls-4" d="M81.09,89.59a6.7,6.7,0,0,1-3.33-.89,6.46,6.46,0,0,1-2.45-8.91,6.54,6.54,0,0,1,2.45-2.42,6.61,6.61,0,0,1,3.33-.9,6.32,6.32,0,0,1,4.49,1.81l-1.26,1.27a4.56,4.56,0,0,0-3.23-1.28,4.51,4.51,0,0,0-3.35,1.39,4.87,4.87,0,0,0,0,6.75,4.82,4.82,0,0,0,6.23.46,3.78,3.78,0,0,0,1.41-2.64H81.09V82.44h6a6.13,6.13,0,0,1,.1,1.12,5.76,5.76,0,0,1-1.73,4.37A6.11,6.11,0,0,1,81.09,89.59Zm15.25-4.22a4.18,4.18,0,1,1-1.24-3A4,4,0,0,1,96.34,85.37Zm-6.63,0a2.55,2.55,0,0,0,.69,1.82,2.3,2.3,0,0,0,3.38,0,2.56,2.56,0,0,0,.7-1.82,2.48,2.48,0,0,0-.69-1.82,2.31,2.31,0,0,0-3.39,0A2.48,2.48,0,0,0,89.71,85.37Zm15.87,0a4.17,4.17,0,1,1-1.23-3A4,4,0,0,1,105.58,85.37Zm-6.62,0a2.55,2.55,0,0,0,.69,1.82,2.23,2.23,0,0,0,1.69.74,2.19,2.19,0,0,0,1.68-.74,2.57,2.57,0,0,0,.71-1.82,2.48,2.48,0,0,0-.69-1.82,2.31,2.31,0,0,0-3.39,0A2.48,2.48,0,0,0,99,85.37Zm11.47,8a4.18,4.18,0,0,1-2.28-.7,4,4,0,0,1-.85-.78,4.38,4.38,0,0,1-.61-1l1.61-.67a2.71,2.71,0,0,0,.85,1.09,2.15,2.15,0,0,0,1.28.41c1.51,0,2.26-.88,2.26-2.65v-.44h-.07a2.72,2.72,0,0,1-2.22,1,3.91,3.91,0,0,1-2.85-1.23,4.13,4.13,0,0,1-1.2-3,4.18,4.18,0,0,1,1.2-3,3.85,3.85,0,0,1,2.85-1.24,2.74,2.74,0,0,1,2.22.94h.07V81.4h1.76V89a4.6,4.6,0,0,1-1.07,3.25A3.84,3.84,0,0,1,110.43,93.39Zm-2.22-8a2.56,2.56,0,0,0,.67,1.8,2.22,2.22,0,0,0,1.68.74,2.09,2.09,0,0,0,1.6-.72,2.87,2.87,0,0,0,0-3.66,2,2,0,0,0-1.6-.74,2.2,2.2,0,0,0-1.66.75A2.57,2.57,0,0,0,108.21,85.39Zm7.52-8.47h1.85V89.34h-1.85Zm6.94,12.67a4,4,0,0,1-3-1.21,4.13,4.13,0,0,1-1.2-3,4.25,4.25,0,0,1,1.14-3,3.76,3.76,0,0,1,2.84-1.2,3.53,3.53,0,0,1,2.21.74,4.24,4.24,0,0,1,.83.86,4.67,4.67,0,0,1,.58,1.08l.19.48-5.65,2.34a2.17,2.17,0,0,0,2,1.28,2.39,2.39,0,0,0,2.08-1.17l1.44,1A4,4,0,0,1,122.67,89.59Zm-.14-6.81a2.16,2.16,0,0,0-1.57.7,2.31,2.31,0,0,0-.64,1.76l3.78-1.57a1.32,1.32,0,0,0-.6-.64A1.85,1.85,0,0,0,122.53,82.78ZM42.72,102.87a2.81,2.81,0,0,1-1,2.27,4,4,0,0,1-2.55.84,3.76,3.76,0,0,1-2.35-.78,4,4,0,0,1-1.41-2.13l1.32-.54a3.4,3.4,0,0,0,.37.87,2.79,2.79,0,0,0,.56.66,2.68,2.68,0,0,0,.72.44,2.26,2.26,0,0,0,.82.16,2.42,2.42,0,0,0,1.55-.49,1.6,1.6,0,0,0,.6-1.3,1.55,1.55,0,0,0-.5-1.15,4.71,4.71,0,0,0-1.74-.9c-.86-.31-1.39-.52-1.6-.63a2.76,2.76,0,0,1-1.71-2.57,2.6,2.6,0,0,1,.94-2,3.47,3.47,0,0,1,2.36-.85,3.63,3.63,0,0,1,2.13.64,2.94,2.94,0,0,1,1.2,1.54l-1.29.54a1.92,1.92,0,0,0-.72-1,2.32,2.32,0,0,0-2.66.06,1.3,1.3,0,0,0-.55,1.09,1.26,1.26,0,0,0,.43,1,7.54,7.54,0,0,0,2.09,1A5.29,5.29,0,0,1,42,100.9,2.91,2.91,0,0,1,42.72,102.87Zm4,3a2.13,2.13,0,0,1-1.5-.56,2.07,2.07,0,0,1-.6-1.55v-4.1H43.29V98.39h1.29V96.14H46v2.25h1.8v1.26H46v3.66a1.32,1.32,0,0,0,.28,1,.92.92,0,0,0,.65.27,1.75,1.75,0,0,0,.32,0l.29-.1.44,1.23A3.7,3.7,0,0,1,46.68,105.86Zm5-7.71a3.43,3.43,0,0,1,2.41.81,2.93,2.93,0,0,1,.89,2.25v4.53H53.7v-1h-.06A2.63,2.63,0,0,1,51.36,106a3,3,0,0,1-2-.73,2.27,2.27,0,0,1-.81-1.79,2.18,2.18,0,0,1,.86-1.82,3.62,3.62,0,0,1,2.3-.67,4.09,4.09,0,0,1,2,.45v-.32a1.56,1.56,0,0,0-.57-1.22,1.94,1.94,0,0,0-1.34-.5,2.11,2.11,0,0,0-1.83,1l-1.21-.77A3.38,3.38,0,0,1,51.72,98.15Zm-1.79,5.34a1.09,1.09,0,0,0,.46.9,1.73,1.73,0,0,0,1.07.36A2.19,2.19,0,0,0,53,104.1a2,2,0,0,0,.69-1.52,2.9,2.9,0,0,0-1.8-.5,2.37,2.37,0,0,0-1.41.4A1.22,1.22,0,0,0,49.93,103.49ZM59.86,106a3.62,3.62,0,0,1-2.71-1.11,4,4,0,0,1-1.07-2.81,3.92,3.92,0,0,1,1.07-2.81,3.65,3.65,0,0,1,2.71-1.1,3.36,3.36,0,0,1,3.23,2.11l-1.26.53a2.08,2.08,0,0,0-2.06-1.38,2.12,2.12,0,0,0-1.63.76,3,3,0,0,0,0,3.78,2.13,2.13,0,0,0,1.63.77,2.16,2.16,0,0,0,2.13-1.39l1.23.53a3.24,3.24,0,0,1-1.27,1.55A3.53,3.53,0,0,1,59.86,106Zm10.94-.24H69.13l-2.29-3.47-1.13,1.11v2.36H64.33V95h1.38v6.61l3.18-3.22h1.77v.06l-2.86,2.84,3,4.39Zm3.63.24A3.22,3.22,0,0,1,72,104.83a4.27,4.27,0,0,1,0-5.54,3.24,3.24,0,0,1,2.48-1.14,3.12,3.12,0,0,1,1.47.34,2.57,2.57,0,0,1,1,.92H77l-.06-1V95h1.38v10.74H77v-1h-.06a2.55,2.55,0,0,1-1,.91A3.13,3.13,0,0,1,74.43,106Zm.22-1.26a2.13,2.13,0,0,0,1.67-.74,3.06,3.06,0,0,0,0-3.82,2.22,2.22,0,0,0-3.33,0A3,3,0,0,0,73,104,2.14,2.14,0,0,0,74.65,104.72Zm6.72,1H80V98.39h1.32v1.19h.06a2,2,0,0,1,.86-1,2.38,2.38,0,0,1,1.29-.41,2.59,2.59,0,0,1,1,.18l-.42,1.33a2.26,2.26,0,0,0-.81-.11,1.76,1.76,0,0,0-1.36.64,2.07,2.07,0,0,0-.58,1.47Zm5.85-9.89a1,1,0,0,1-.28.69,1,1,0,1,1,0-1.38A1,1,0,0,1,87.22,95.85Zm-.28,2.54v7.35H85.56V98.39Zm5.37,7.35H90.92l-3-7.35h1.5l2.16,5.69h0l2.18-5.69h1.48Zm7,.24a3.52,3.52,0,0,1-2.67-1.11,4,4,0,0,1-1-2.81,4,4,0,0,1,1-2.8,3.68,3.68,0,0,1,5.21-.06,4.23,4.23,0,0,1,1,3l0,.15H97a2.39,2.39,0,0,0,.72,1.74,2.33,2.33,0,0,0,3.72-.66l1.23.6a3.68,3.68,0,0,1-1.37,1.45A3.82,3.82,0,0,1,99.28,106Zm-2.21-4.8h4.22a1.84,1.84,0,0,0-.62-1.27,2.17,2.17,0,0,0-1.51-.5,2,2,0,0,0-1.34.48A2.27,2.27,0,0,0,97.07,101.18Zm8.33,4.56H104V98.39h1.32v1.19h.06a2,2,0,0,1,.86-1,2.35,2.35,0,0,1,1.28-.41,2.59,2.59,0,0,1,1,.18l-.42,1.33a2.26,2.26,0,0,0-.81-.11,1.74,1.74,0,0,0-1.35.64,2.07,2.07,0,0,0-.58,1.47Zm13.63,0h-6V95h1.38v9.42H119Zm.78-3.68a3.92,3.92,0,0,1,1.07-2.81,3.65,3.65,0,0,1,2.71-1.1,3.61,3.61,0,0,1,2.7,1.1,3.89,3.89,0,0,1,1.08,2.81,3.84,3.84,0,0,1-1.08,2.81,3.58,3.58,0,0,1-2.7,1.11,3.62,3.62,0,0,1-2.71-1.11A3.92,3.92,0,0,1,119.81,102.06Zm1.38,0a2.69,2.69,0,0,0,.69,1.92,2.35,2.35,0,0,0,3.42,0,2.69,2.69,0,0,0,.69-1.92,2.66,2.66,0,0,0-.69-1.9,2.32,2.32,0,0,0-3.42,0A2.66,2.66,0,0,0,121.19,102.06Zm10.7,7.16a4.33,4.33,0,0,1-1.16-.16,4,4,0,0,1-1-.44,3.55,3.55,0,0,1-.76-.68,2.85,2.85,0,0,1-.48-.87l1.31-.54a2.08,2.08,0,0,0,.78,1,2.19,2.19,0,0,0,1.29.39,2.27,2.27,0,0,0,1.75-.68,2.62,2.62,0,0,0,.63-1.86v-.7h-.06a2.76,2.76,0,0,1-1.05.92,3.28,3.28,0,0,1-3.93-.79,4.07,4.07,0,0,1-1-2.79,4,4,0,0,1,1-2.77,3.3,3.3,0,0,1,3.93-.81,2.79,2.79,0,0,1,1.05.93h.06v-1h1.32v7a3.76,3.76,0,0,1-1,2.78A3.65,3.65,0,0,1,131.89,109.22Zm0-4.5a2.13,2.13,0,0,0,1.67-.74,3.06,3.06,0,0,0,0-3.82,2.22,2.22,0,0,0-3.33,0,3,3,0,0,0,0,3.81A2.14,2.14,0,0,0,131.93,104.72Zm8.52,4.5a4.26,4.26,0,0,1-1.15-.16,3.8,3.8,0,0,1-1-.44,3.33,3.33,0,0,1-.76-.68,2.85,2.85,0,0,1-.48-.87l1.3-.54a2.08,2.08,0,0,0,.78,1,2.19,2.19,0,0,0,1.29.39,2.3,2.3,0,0,0,1.76-.68,2.62,2.62,0,0,0,.63-1.86v-.7h-.06a2.72,2.72,0,0,1-1.06.92,3.26,3.26,0,0,1-3.92-.79,4.07,4.07,0,0,1-1-2.79,4,4,0,0,1,1-2.77,3.28,3.28,0,0,1,3.92-.81,2.74,2.74,0,0,1,1.06.93h.06v-1h1.32v7a3.76,3.76,0,0,1-1,2.78A3.65,3.65,0,0,1,140.45,109.22Zm.05-4.5a2.11,2.11,0,0,0,1.66-.74,3,3,0,0,0,0-3.82,2.11,2.11,0,0,0-1.66-.75,2.16,2.16,0,0,0-1.67.75,3,3,0,0,0,0,3.81A2.16,2.16,0,0,0,140.5,104.72Zm7.12-8.87a1,1,0,1,1-.28-.69A.94.94,0,0,1,147.62,95.85Zm-.28,2.54v7.35H146V98.39Zm1.8,0h1.32v1h.06a2.45,2.45,0,0,1,1-.91,2.83,2.83,0,0,1,1.35-.35,2.7,2.7,0,0,1,2.08.77,3.06,3.06,0,0,1,.73,2.2v4.62h-1.38v-4.53a1.62,1.62,0,0,0-1.82-1.8,1.73,1.73,0,0,0-1.38.66,2.43,2.43,0,0,0-.55,1.6v4.07h-1.38Zm11.31,10.83a4.33,4.33,0,0,1-1.16-.16,4,4,0,0,1-1-.44,3.55,3.55,0,0,1-.76-.68,2.85,2.85,0,0,1-.48-.87l1.31-.54a2.08,2.08,0,0,0,.78,1,2.19,2.19,0,0,0,1.29.39,2.27,2.27,0,0,0,1.75-.68,2.62,2.62,0,0,0,.63-1.86v-.7h-.06a2.76,2.76,0,0,1-1.05.92,3.28,3.28,0,0,1-3.93-.79,4.07,4.07,0,0,1-1-2.79,4,4,0,0,1,1-2.77,3.3,3.3,0,0,1,3.93-.81,2.79,2.79,0,0,1,1.05.93h.06v-1h1.32v7a3.76,3.76,0,0,1-1,2.78A3.65,3.65,0,0,1,160.45,109.22Zm0-4.5a2.13,2.13,0,0,0,1.67-.74,3.06,3.06,0,0,0,0-3.82,2.22,2.22,0,0,0-3.33,0,3,3,0,0,0,0,3.81A2.14,2.14,0,0,0,160.49,104.72Z"/></svg>