<svg xmlns="http://www.w3.org/2000/svg" width="200" height="128">
    <path d="M95.6 84.07a5.18 5.18 0 01-1.42 3.83A5.52 5.52 0 0190 89.59a6 6 0 110-12 6.49 6.49 0 012.38.44 4.7 4.7 0 011.84 1.27l-1 1a3.69 3.69 0 00-1.37-1A4.52 4.52 0 0090 79a4.34 4.34 0 00-3.17 1.3 4.84 4.84 0 000 6.56A4.34 4.34 0 0090 88.19a4.27 4.27 0 002.85-1 3.86 3.86 0 001.31-2.64H90v-1.34h5.55a5.29 5.29 0 01.05.86zm7.01 5.52a6 6 0 01-4.26-10.24 5.72 5.72 0 014.26-1.72 5.29 5.29 0 014.21 1.87l-1.06 1a3.91 3.91 0 00-3.15-1.5 4.36 4.36 0 00-3.19 1.28 5 5 0 000 6.6 4.36 4.36 0 003.19 1.28 4.48 4.48 0 003.47-1.68l1.07 1a5.55 5.55 0 01-2 1.51 6 6 0 01-2.54.6zm7.57-4.89v4.64h-1.48V77.88h3.91a3.55 3.55 0 012.53 1 3.22 3.22 0 011 2.42 3.18 3.18 0 01-1 2.43 3.55 3.55 0 01-2.53 1zm0-5.41v4h2.46a2 2 0 002-2 2 2 0 00-2-2zM67 105.74h-1.54L69.51 95h1.56l4.05 10.74h-1.53l-1-2.91H68zm3.27-9l-1.75 4.85h3.57l-1.76-4.85zm11.95 9H80.9v-1h-.06a2.43 2.43 0 01-1 .9 2.77 2.77 0 01-1.36.36 2.68 2.68 0 01-2.07-.78 3 3 0 01-.73-2.2v-4.63h1.38v4.53a1.62 1.62 0 001.81 1.8 1.74 1.74 0 001.38-.67 2.44 2.44 0 00.56-1.6v-4.06h1.38zm4.68.26a3.22 3.22 0 01-2.48-1.15 4.27 4.27 0 010-5.54 3.24 3.24 0 012.48-1.14 3.19 3.19 0 011.48.34 2.61 2.61 0 011 .92h.06l-.06-1V95h1.38v10.74h-1.3v-1h-.06a2.59 2.59 0 01-1 .91 3.2 3.2 0 01-1.5.35zm.22-1.26a2.13 2.13 0 001.67-.74 3.06 3.06 0 000-3.82 2.22 2.22 0 00-3.33 0 3 3 0 000 3.81 2.14 2.14 0 001.66.73zm7.13-8.89a1 1 0 11-.29-.69.94.94 0 01.29.69zM94 98.39v7.35h-1.42v-7.35zm4.6 7.47a2.09 2.09 0 01-1.49-.56 2 2 0 01-.61-1.55v-4.1h-1.29v-1.26h1.29v-2.25h1.38v2.25h1.8v1.26h-1.8v3.66a1.32 1.32 0 00.28 1 .92.92 0 00.65.27 1.65 1.65 0 00.32 0l.29-.1.44 1.23a3.7 3.7 0 01-1.26.15zm11.97-.12h-6V95h1.38v9.42h4.65zm.78-3.68a3.91 3.91 0 011.06-2.81 3.67 3.67 0 012.72-1.1 3.61 3.61 0 012.7 1.1 3.89 3.89 0 011.08 2.81 3.84 3.84 0 01-1.08 2.81 3.58 3.58 0 01-2.7 1.11 3.64 3.64 0 01-2.72-1.11 3.91 3.91 0 01-1.06-2.81zm1.38 0a2.69 2.69 0 00.69 1.92 2.35 2.35 0 003.42 0 2.69 2.69 0 00.69-1.92 2.66 2.66 0 00-.69-1.9 2.32 2.32 0 00-3.42 0 2.66 2.66 0 00-.69 1.9zm10.69 7.16a4.26 4.26 0 01-1.15-.16 3.8 3.8 0 01-1-.44 3.33 3.33 0 01-.76-.68 2.85 2.85 0 01-.48-.87l1.3-.54a2.08 2.08 0 00.78 1 2.19 2.19 0 001.29.39 2.3 2.3 0 001.76-.68 2.62 2.62 0 00.63-1.86v-.7h-.06a2.79 2.79 0 01-1.06.92 3.26 3.26 0 01-3.92-.79 4.07 4.07 0 01-1-2.79 4 4 0 011-2.77 3.28 3.28 0 013.92-.81 2.82 2.82 0 011.06.93h.06v-1h1.32v7a3.76 3.76 0 01-1 2.78 3.65 3.65 0 01-2.69 1.07zm0-4.5a2.11 2.11 0 001.66-.74 3 3 0 000-3.82 2.11 2.11 0 00-1.66-.75 2.16 2.16 0 00-1.67.75 3 3 0 000 3.81 2.16 2.16 0 001.72.75zm10.94-1.02a2 2 0 01-.84 1.62 3.65 3.65 0 01-4.07.08 3.25 3.25 0 01-1.2-1.52l1.23-.53a2.29 2.29 0 00.79 1 1.93 1.93 0 001.13.37 2 2 0 001.1-.29.8.8 0 00.45-.67c0-.47-.36-.82-1.08-1l-1.26-.31c-1.43-.36-2.15-1-2.15-2.07a1.92 1.92 0 01.82-1.62 3.43 3.43 0 012.09-.6 3.38 3.38 0 011.76.46 2.53 2.53 0 011.11 1.25l-1.23.51a1.52 1.52 0 00-.69-.73 2 2 0 00-1-.26 1.77 1.77 0 00-1 .27.77.77 0 00-.43.66c0 .42.4.72 1.19.9l1.11.28c1.44.35 2.17 1.08 2.17 2.2z" fill="#767676"/>
    <path d="M85.75 57.75L79 64.53v.07a15.15 15.15 0 009.21 3.06h11.68v-9.39H88.16a5.74 5.74 0 01-2.41-.52z" fill="#34a853"/>
    <path d="M79.81 39.78A15.23 15.23 0 0079 64.55l6.78-6.78A5.86 5.86 0 1193.51 50l6.81-6.8a15.23 15.23 0 00-9.18-5.68 15.52 15.52 0 00-3-.3 15.14 15.14 0 00-8.33 2.56z" fill="#fbbc05"/>
    <path d="M113.82 29.66v-.11a21.11 21.11 0 00-34.31 10.29l.3-.06a15.14 15.14 0 018.35-2.57 15.52 15.52 0 013 .3s.1-.06.13 0a11.71 11.71 0 0116-1.22h.11l-.08-.08z" fill="#ea4335"/>
    <path d="M120.29 39.84a21.13 21.13 0 00-6.37-10.27l-.1.09-6.49 6.5.08.08a11.67 11.67 0 014.22 9.2v1.17a5.87 5.87 0 010 11.73H99.9v9.32l.06.07h11.73a15.25 15.25 0 008.66-27.89z" fill="#4285f4"/>
</svg>
