<svg xmlns="http://www.w3.org/2000/svg" viewBox="0 0 194.16 140.76"><defs><style>.cls-1{fill:#ea4335;}.cls-2{fill:#4285f4;}.cls-3{fill:#34a853;}.cls-4{fill:#fbbc05;}.cls-5{fill:#5f6368;}</style></defs><title>google-cloud-logo</title><g id="Layer_2" data-name="Layer 2"><g id="Art"><path class="cls-1" d="M112.43,25.28h3.48l9.91-9.91.49-4.21A44.56,44.56,0,0,0,53.81,32.9a5.37,5.37,0,0,1,3.48-.21l19.83-3.27s1-1.67,1.53-1.57a24.73,24.73,0,0,1,33.85-2.57Z"/><path class="cls-2" d="M139.94,32.9a44.63,44.63,0,0,0-13.46-21.7L112.57,25.11a24.74,24.74,0,0,1,9.08,19.62V47.2a12.39,12.39,0,0,1,0,24.77H96.88l-2.47,2.51V89.33l2.47,2.47h24.77A32.22,32.22,0,0,0,139.94,32.9Z"/><path class="cls-3" d="M72.07,91.65H96.84V71.82H72.07A12.33,12.33,0,0,1,67,70.7l-3.48,1.08-10,9.91-.87,3.48A32,32,0,0,0,72.07,91.65Z"/><path class="cls-4" d="M72.07,27.33A32.21,32.21,0,0,0,52.63,85.07L67,70.71A12.38,12.38,0,1,1,83.38,54.33L97.74,40A32.14,32.14,0,0,0,72.07,27.33Z"/><path class="cls-5" d="M13.53,133A13.14,13.14,0,0,1,4,129.13a13.08,13.08,0,0,1,0-18.83,13.14,13.14,0,0,1,9.53-4A12.76,12.76,0,0,1,22.66,110l-2.57,2.61a9.26,9.26,0,0,0-6.57-2.6,9.16,9.16,0,0,0-6.78,2.89,9.72,9.72,0,0,0,0,13.63,9.69,9.69,0,0,0,13.51.16,7.67,7.67,0,0,0,2-4.49H13.57v-3.69H25.82a12,12,0,0,1,.14,2.25,11.56,11.56,0,0,1-3.16,8.52A12.3,12.3,0,0,1,13.53,133ZM42,130.59a8.84,8.84,0,0,1-12.23,0,8.78,8.78,0,0,1,0-12.27,8.85,8.85,0,0,1,12.23,0,8.76,8.76,0,0,1,0,12.27Zm-9.53-2.41a4.68,4.68,0,0,0,6.61.22l.22-.22a5.55,5.55,0,0,0,0-7.46,4.75,4.75,0,0,0-6.72-.14l-.14.14a5.53,5.53,0,0,0,0,7.46h0Zm28.32,2.41a8.84,8.84,0,0,1-12.23,0,8.78,8.78,0,0,1,0-12.27,8.84,8.84,0,0,1,12.23,0,8.78,8.78,0,0,1,0,12.27Zm-9.53-2.41a4.68,4.68,0,0,0,6.61.22l.22-.22a5.55,5.55,0,0,0,0-7.46,4.75,4.75,0,0,0-6.71-.14l-.14.14a5.53,5.53,0,0,0,0,7.46h0Zm21.88,12.57a7.57,7.57,0,0,1-4.81-1.53,8.86,8.86,0,0,1-2.8-3.55l3.29-1.37a5.53,5.53,0,0,0,1.63,2.15,4.11,4.11,0,0,0,2.7.91,4.34,4.34,0,0,0,3.36-1.3,5.28,5.28,0,0,0,1.2-3.75v-1.24h-.13A5.51,5.51,0,0,1,73.1,133a7.84,7.84,0,0,1-5.77-2.51,8.7,8.7,0,0,1,0-12.14,7.82,7.82,0,0,1,5.77-2.53,6.22,6.22,0,0,1,2.66.59,5.34,5.34,0,0,1,1.88,1.37h.13v-1.37h3.58V131.8a9,9,0,0,1-2.3,6.71A8.08,8.08,0,0,1,73.17,140.75Zm.26-11.09a4.2,4.2,0,0,0,3.26-1.44,5.34,5.34,0,0,0,1.31-3.7,5.45,5.45,0,0,0-1.31-3.77,4.19,4.19,0,0,0-3.26-1.44,4.47,4.47,0,0,0-3.38,1.44,5.27,5.27,0,0,0-1.44,3.74,5.17,5.17,0,0,0,1.44,3.7A4.47,4.47,0,0,0,73.44,129.67Zm14.28-22.37v25.23H83.95V107.29ZM98,133A8.19,8.19,0,0,1,92,130.58a8.36,8.36,0,0,1-2.44-6.12,8.48,8.48,0,0,1,2.35-6.18,7.75,7.75,0,0,1,5.77-2.41,7.29,7.29,0,0,1,2.89.56,6.8,6.8,0,0,1,2.21,1.44,10,10,0,0,1,1.44,1.75,10.56,10.56,0,0,1,.85,1.69l.39,1L93.89,127a4.33,4.33,0,0,0,4.16,2.6,4.93,4.93,0,0,0,4.23-2.38l2.89,1.95a9.48,9.48,0,0,1-2.77,2.63A7.86,7.86,0,0,1,98,133Zm-4.82-8.85,7.68-3.19a2.64,2.64,0,0,0-1.2-1.31,3.91,3.91,0,0,0-2-.51,4.46,4.46,0,0,0-3.1,1.37A4.57,4.57,0,0,0,93.23,124.2Z"/><path class="cls-5" d="M125.17,133a11.89,11.89,0,0,1-12.1-11.69c0-.16,0-.32,0-.48a11.9,11.9,0,0,1,11.61-12.17h.48a10.78,10.78,0,0,1,8.56,3.81l-2.08,2a7.85,7.85,0,0,0-6.47-3,8.83,8.83,0,0,0-6.42,2.57,10,10,0,0,0,0,13.46,8.82,8.82,0,0,0,6.42,2.57,9.18,9.18,0,0,0,7.22-3.38l2.08,2.08a11.36,11.36,0,0,1-4,3A12.17,12.17,0,0,1,125.17,133Z"/><path class="cls-5" d="M140.07,132.53h-3V109.21h3Z"/><path class="cls-5" d="M145,118.49a8.36,8.36,0,0,1,11.78,0,9.11,9.11,0,0,1,0,12.13,8.36,8.36,0,0,1-11.78,0,9.11,9.11,0,0,1,0-12.13Zm2.22,10.25a5,5,0,0,0,7.12.2l.2-.2a6.44,6.44,0,0,0,0-8.37,5,5,0,0,0-7.12-.2l-.2.2a6.4,6.4,0,0,0,0,8.36Z"/><path class="cls-5" d="M175.6,132.53h-2.89v-2.21h-.09a5.57,5.57,0,0,1-2.11,2,5.88,5.88,0,0,1-3,.79,5.62,5.62,0,0,1-4.53-1.82,7.23,7.23,0,0,1-1.55-4.88v-9.82h3v9.27q0,4.46,3.94,4.46a3.67,3.67,0,0,0,3-1.44,5.44,5.44,0,0,0,1.17-3.45v-8.84h3v15.94Z"/><path class="cls-5" d="M185.75,133a7,7,0,0,1-5.34-2.44,9.29,9.29,0,0,1,0-12.1,7,7,0,0,1,5.34-2.44,6.78,6.78,0,0,1,3.26.78,5.51,5.51,0,0,1,2.17,1.95h.13l-.13-2.21v-7.38h3v23.32h-2.89v-2.21h-.13a5.51,5.51,0,0,1-2.17,1.95A6.77,6.77,0,0,1,185.75,133Zm.49-2.73a4.76,4.76,0,0,0,3.59-1.56,6.84,6.84,0,0,0,0-8.4,4.88,4.88,0,0,0-6.89-.32c-.11.1-.22.21-.32.32a6.79,6.79,0,0,0,0,8.37A4.75,4.75,0,0,0,186.24,130.32Z"/></g></g></svg>