<svg xmlns="http://www.w3.org/2000/svg" width="200" height="128">
	<defs>
		<style>
			.cls-3{fill:#fff}
		</style>
	</defs>
	<path d="m126.35 43.51-11.09-19.29a4.86 4.86 0 0 0-4.16-2.48H88.9a4.86 4.86 0 0 0-4.16 2.48l-11.1 19.24a4.89 4.89 0 0 0 0 4.83l11.1 19.4a5 5 0 0 0 4.16 2.57h22.19a5 5 0 0 0 4.17-2.55l11.09-19.3a4.93 4.93 0 0 0 0-4.9Z" style="fill:#4285f4"/>
	<path d="m106.9 34-6.85 1.61-7-1.61 3.82 3.82-6.19 5.7 1.63 1.63-1.52 2 1.9 1.9-2 2.34 5.84 5.82-3.47.87 12.19 12.19h5.81a5 5 0 0 0 4.17-2.56l9.24-16.06Z" style="opacity:.07;isolation:isolate"/>
	<g id="art">
		<circle class="cls-3" cx="108.08" cy="46.06" r="1.51"/>
		<circle class="cls-3" cx="91.91" cy="46.06" r="1.51"/>
		<circle class="cls-3" cx="100" cy="43.8" r="1.51"/>
		<circle class="cls-3" cx="100" cy="48.32" r="1.51"/>
		<path class="cls-3" d="m102.27 36.71 4.63-2.68-2.24-1.29h-.06L100 35.4l-4.61-2.66h-.05l-2.25 1.29 4.63 2.68-6.98 4.01v2.83h2.38v-1.52l5.73-3.35v2.46h2.29v-2.46l5.72 3.35v1.52h2.4v-2.83l-6.99-4.01z"/>
		<path class="cls-3" d="m106.86 50.06-5.72 3.35v-2.44h-2.29v2.44l-5.73-3.35v-1.52h-2.38v2.83l6.99 4.01-4.64 2.68 2.25 1.29h.05L100 56.7l4.6 2.65h.06l2.24-1.29-4.64-2.68 7-4.01v-2.83h-2.4v1.52z"/>
	</g>
	<path d="M81.09 89.59a6.7 6.7 0 0 1-3.33-.89 6.46 6.46 0 0 1-2.45-8.91 6.54 6.54 0 0 1 2.45-2.42 6.61 6.61 0 0 1 3.33-.9 6.32 6.32 0 0 1 4.49 1.81l-1.26 1.27a4.56 4.56 0 0 0-3.23-1.28 4.51 4.51 0 0 0-3.35 1.39 4.87 4.87 0 0 0 0 6.75 4.82 4.82 0 0 0 6.23.46 3.78 3.78 0 0 0 1.41-2.64h-4.29v-1.79h6a6.13 6.13 0 0 1 .1 1.12 5.76 5.76 0 0 1-1.73 4.37 6.11 6.11 0 0 1-4.37 1.66Zm15.25-4.22a4.18 4.18 0 1 1-1.24-3 4 4 0 0 1 1.24 3Zm-6.63 0a2.55 2.55 0 0 0 .69 1.82 2.3 2.3 0 0 0 3.38 0 2.56 2.56 0 0 0 .7-1.82 2.48 2.48 0 0 0-.69-1.82 2.31 2.31 0 0 0-3.39 0 2.48 2.48 0 0 0-.69 1.82Zm15.87 0a4.17 4.17 0 1 1-1.23-3 4 4 0 0 1 1.23 3Zm-6.62 0a2.55 2.55 0 0 0 .69 1.82 2.23 2.23 0 0 0 1.69.74 2.19 2.19 0 0 0 1.68-.74 2.57 2.57 0 0 0 .71-1.82 2.48 2.48 0 0 0-.69-1.82 2.31 2.31 0 0 0-3.39 0 2.48 2.48 0 0 0-.65 1.82Zm11.47 8a4.18 4.18 0 0 1-2.28-.7 4 4 0 0 1-.85-.78 4.38 4.38 0 0 1-.61-1l1.61-.67a2.71 2.71 0 0 0 .85 1.09 2.15 2.15 0 0 0 1.28.41c1.51 0 2.26-.88 2.26-2.65v-.44h-.07a2.72 2.72 0 0 1-2.22 1 3.91 3.91 0 0 1-2.85-1.23 4.13 4.13 0 0 1-1.2-3 4.18 4.18 0 0 1 1.2-3 3.85 3.85 0 0 1 2.85-1.24 2.74 2.74 0 0 1 2.22.94h.07v-.7h1.76V89a4.6 4.6 0 0 1-1.07 3.25 3.84 3.84 0 0 1-2.95 1.14Zm-2.22-8a2.56 2.56 0 0 0 .67 1.8 2.22 2.22 0 0 0 1.68.74 2.09 2.09 0 0 0 1.6-.72 2.87 2.87 0 0 0 0-3.66 2 2 0 0 0-1.6-.74 2.2 2.2 0 0 0-1.66.75 2.57 2.57 0 0 0-.69 1.85Zm7.52-8.47h1.85v12.44h-1.85Zm6.94 12.67a4 4 0 0 1-3-1.21 4.13 4.13 0 0 1-1.2-3 4.25 4.25 0 0 1 1.14-3 3.76 3.76 0 0 1 2.84-1.2 3.53 3.53 0 0 1 2.21.74 4.24 4.24 0 0 1 .83.86 4.67 4.67 0 0 1 .58 1.08l.19.48-5.65 2.34a2.17 2.17 0 0 0 2 1.28 2.39 2.39 0 0 0 2.08-1.17l1.44 1a4 4 0 0 1-3.46 1.82Zm-.14-6.81a2.16 2.16 0 0 0-1.57.7 2.31 2.31 0 0 0-.64 1.76l3.78-1.57a1.32 1.32 0 0 0-.6-.64 1.85 1.85 0 0 0-.97-.23ZM55.79 106a5.67 5.67 0 0 1-4-9.6 5.32 5.32 0 0 1 4-1.63 5 5 0 0 1 4 1.76l-1 1a3.66 3.66 0 0 0-3-1.39 4 4 0 0 0-3 1.2 4.61 4.61 0 0 0 0 6.18 4 4 0 0 0 3 1.2 4.22 4.22 0 0 0 3.26-1.58l1 1a5.24 5.24 0 0 1-1.88 1.41 5.63 5.63 0 0 1-2.38.45Zm6.88-11v10.74h-1.38V95Zm1.18 7.06a3.92 3.92 0 0 1 1.07-2.81 3.65 3.65 0 0 1 2.71-1.1 3.61 3.61 0 0 1 2.7 1.1 3.89 3.89 0 0 1 1.08 2.81 3.84 3.84 0 0 1-1.08 2.81 3.58 3.58 0 0 1-2.7 1.11 3.62 3.62 0 0 1-2.71-1.11 3.92 3.92 0 0 1-1.07-2.81Zm1.38 0a2.69 2.69 0 0 0 .69 1.92 2.35 2.35 0 0 0 3.42 0 2.69 2.69 0 0 0 .69-1.92 2.66 2.66 0 0 0-.69-1.9 2.32 2.32 0 0 0-3.42 0 2.66 2.66 0 0 0-.69 1.9Zm13.82 3.68h-1.32v-1h-.06a2.5 2.5 0 0 1-1 .9 2.8 2.8 0 0 1-1.36.36 2.71 2.71 0 0 1-2.08-.78 3.09 3.09 0 0 1-.72-2.2v-4.63h1.38v4.53a1.62 1.62 0 0 0 1.81 1.8 1.74 1.74 0 0 0 1.38-.67 2.44 2.44 0 0 0 .56-1.6v-4.06h1.38Zm4.68.24a3.22 3.22 0 0 1-2.48-1.15 4.27 4.27 0 0 1 0-5.54 3.24 3.24 0 0 1 2.48-1.14 3.12 3.12 0 0 1 1.47.34 2.57 2.57 0 0 1 1 .92h.06l-.06-1V95h1.38v10.74h-1.29v-1h-.06a2.55 2.55 0 0 1-1 .91 3.13 3.13 0 0 1-1.5.35Zm.22-1.26a2.13 2.13 0 0 0 1.67-.74 3.06 3.06 0 0 0 0-3.82 2.22 2.22 0 0 0-3.33 0 3 3 0 0 0 0 3.81 2.14 2.14 0 0 0 1.71.75Zm8.88 1V95h3.29a5.37 5.37 0 0 1 3.95 1.48 5.82 5.82 0 0 1 0 7.78 5.41 5.41 0 0 1-3.95 1.48Zm1.38-9.42v8.1h1.91a4.05 4.05 0 1 0 0-8.1Zm11.53 1.83a3.45 3.45 0 0 1 2.42.81 2.92 2.92 0 0 1 .88 2.25v4.53h-1.32v-1h-.06a2.63 2.63 0 0 1-2.28 1.26 2.93 2.93 0 0 1-2-.73 2.28 2.28 0 0 1-.82-1.79 2.19 2.19 0 0 1 .87-1.82 3.62 3.62 0 0 1 2.3-.67 4.05 4.05 0 0 1 2 .45v-.32a1.56 1.56 0 0 0-.57-1.22 1.92 1.92 0 0 0-1.33-.5 2.11 2.11 0 0 0-1.83 1l-1.22-.77a3.38 3.38 0 0 1 2.96-1.46Zm-1.74 5.36a1.09 1.09 0 0 0 .46.9 1.73 1.73 0 0 0 1.07.36 2.19 2.19 0 0 0 1.55-.65 2 2 0 0 0 .68-1.52 2.9 2.9 0 0 0-1.8-.5 2.34 2.34 0 0 0-1.4.4 1.22 1.22 0 0 0-.56 1.01Zm9.4 2.37a2.1 2.1 0 0 1-1.49-.56 2.08 2.08 0 0 1-.61-1.55v-4.1H110v-1.26h1.29v-2.25h1.38v2.25h1.8v1.26h-1.8v3.66a1.31 1.31 0 0 0 .29 1 .9.9 0 0 0 .64.27 1.86 1.86 0 0 0 .33 0l.29-.1.43 1.23a3.7 3.7 0 0 1-1.29.15Zm5-7.71a3.45 3.45 0 0 1 2.42.81 2.93 2.93 0 0 1 .89 2.25v4.53h-1.33v-1h-.06A2.63 2.63 0 0 1 118 106a2.93 2.93 0 0 1-2-.73 2.28 2.28 0 0 1-.82-1.79 2.19 2.19 0 0 1 .87-1.82 3.62 3.62 0 0 1 2.3-.67 4.05 4.05 0 0 1 2 .45v-.32a1.56 1.56 0 0 0-.57-1.22 1.92 1.92 0 0 0-1.33-.5 2.11 2.11 0 0 0-1.83 1l-1.21-.77a3.35 3.35 0 0 1 2.99-1.48Zm-1.78 5.34a1.09 1.09 0 0 0 .46.9 1.73 1.73 0 0 0 1.07.36 2.19 2.19 0 0 0 1.55-.65 2 2 0 0 0 .68-1.52 2.9 2.9 0 0 0-1.8-.5 2.34 2.34 0 0 0-1.4.4 1.22 1.22 0 0 0-.56 1.01Zm9.88-8.61a2.61 2.61 0 0 1 1.23.25l-.37 1.22a1.79 1.79 0 0 0-.81-.18 1 1 0 0 0-.83.35 1.31 1.31 0 0 0-.32.94v.93h1.91v1.26h-1.91v6.09H124v-6.09h-1.39v-1.26H124v-1.07a2.37 2.37 0 0 1 .69-1.77 2.47 2.47 0 0 1 1.81-.67Zm3.5.12v10.74h-1.39V95Zm1.18 7.06a3.92 3.92 0 0 1 1.07-2.81 3.65 3.65 0 0 1 2.71-1.1 3.61 3.61 0 0 1 2.7 1.1 3.89 3.89 0 0 1 1.08 2.81 3.84 3.84 0 0 1-1.08 2.81A3.58 3.58 0 0 1 135 106a3.62 3.62 0 0 1-2.71-1.11 3.92 3.92 0 0 1-1.09-2.83Zm1.38 0a2.69 2.69 0 0 0 .69 1.92 2.35 2.35 0 0 0 3.42 0 2.69 2.69 0 0 0 .69-1.92 2.66 2.66 0 0 0-.69-1.9 2.32 2.32 0 0 0-3.42 0 2.66 2.66 0 0 0-.67 1.9Zm17.7-3.67-2.37 7.35h-1.39l-1.83-5.64-1.81 5.64h-1.4l-2.37-7.35h1.44l1.64 5.55 1.83-5.55h1.42l1.82 5.55 1.62-5.55Z" style="fill:#767676"/>
</svg>
