<svg xmlns="http://www.w3.org/2000/svg" viewBox="0 0 323.32 257.32">
	<defs>
		<style>
			.cls-3{fill:#fff}
		</style>
	</defs>
	<g id="Layer_2" data-name="Layer 2">
		<g id="Layer_1-2" data-name="Layer 1">
			<path d="m272 91.28-46.43-80.85A20.5 20.5 0 0 0 208.14 0h-92.93a20.5 20.5 0 0 0-17.43 10.43L51.2 91a20.59 20.59 0 0 0 0 20.27l46.47 81.32a21 21 0 0 0 17.43 10.79h93.05a20.74 20.74 0 0 0 17.42-10.67L272 111.9a20.67 20.67 0 0 0 0-20.63Z" style="fill:#4285f4"/>
			<path d="m218.22 69-21.69-5.33-3.32 3.44 16.71 16.71.12 23-34.38-34.5h-28.09l-17.66-17.67-18.61 15.76-6.4 64 69 69h34.26a20.74 20.74 0 0 0 17.42-10.67L268 118.9Z" style="opacity:.07"/>
			<g id="art">
				<path class="cls-3" d="m147.45 88.67 14.23 8.18 14.11-8.18V72.31l-14.11-8.18-14.23 8.18ZM166.89 122l14.22 8.18 14.11-8.18v-16.38l-14.11-8.06-14.22 8.06V122Zm-38.88.47 14.23 8.18 14.11-8.18v-16.38l-14.11-8.18-14.24 8.18Z"/>
				<path class="cls-3" d="m129.79 67.09-14.11 8.18v52.87l14.11 8.18v12.45l-24.66-14.23V68.87l24.66-14.22Zm63.66 0 14.11 8.18v52.87l-14.11 8.18v12.45l24.78-14.23V68.87l-24.78-14.22Z"/>
			</g>
			<path d="M3.9 225.92a10.79 10.79 0 0 1 8-3.25c4.39 0 7.48 1.46 9.6 4.39a8.6 8.6 0 0 1 1.79 4.88h-5.56a6.24 6.24 0 0 0-1.3-2.76 5.43 5.43 0 0 0-4.43-1.63A5.24 5.24 0 0 0 7.48 230c-1.14 1.63-1.63 3.9-1.63 6.83a10.87 10.87 0 0 0 1.79 6.67 5.55 5.55 0 0 0 4.55 2.12 4.83 4.83 0 0 0 4.23-2 8 8 0 0 0 1.3-3.09h5.37a11.62 11.62 0 0 1-3.58 7 10.5 10.5 0 0 1-7.48 2.6c-3.74 0-6.67-1.14-8.78-3.58S0 240.88 0 236.65c.33-4.72 1.46-8.13 3.9-10.73Zm39.52 21.14c-1.63 2-4.07 3.09-7.48 3.09-3.25 0-5.86-1-7.48-3.09a11.35 11.35 0 0 1-2.46-7.32 11.67 11.67 0 0 1 2.44-7.32c1.63-2.11 4.07-3.09 7.48-3.09 3.25 0 5.85 1 7.48 3.09a11.35 11.35 0 0 1 2.44 7.32 11 11 0 0 1-2.42 7.32Zm-4.07-2.76a7.26 7.26 0 0 0 1.14-4.55 7.57 7.57 0 0 0-1.14-4.55 4.4 4.4 0 0 0-6.83 0 7.26 7.26 0 0 0-1.14 4.55 7.57 7.57 0 0 0 1.14 4.55 4.32 4.32 0 0 0 3.42 1.63 4.89 4.89 0 0 0 3.42-1.63Zm25.7-13.17c1.3 1 2 2.76 2 5.2v13H61.8v-11.7a7.54 7.54 0 0 0-.33-2.28 2.85 2.85 0 0 0-2.76-1.46 3.61 3.61 0 0 0-3.58 2.11 7.88 7.88 0 0 0-.49 2.93v10.41h-5V230h4.88v2.76a8.47 8.47 0 0 1 1.79-2.12 5.88 5.88 0 0 1 3.9-1.14 9.18 9.18 0 0 1 4.88 1.63Zm4.55 2.76v-3.58h2.76v-5.37h5v5.37h3.14v3.58h-3.09v10.25a2.34 2.34 0 0 0 .32 1.46 3.31 3.31 0 0 0 1.79.33h1v3.74l-2.44.16c-2.44.16-4.07-.33-4.88-1.3a4.14 4.14 0 0 1-.81-2.6v-11.88h-2.78Zm21.79 3.74a8.11 8.11 0 0 0 2-.49 1.74 1.74 0 0 0 1.14-1.46 1.79 1.79 0 0 0-.81-1.63 4.57 4.57 0 0 0-2.44-.49 3.82 3.82 0 0 0-2.6.81 3 3 0 0 0-.65 1.79h-4.92a8.75 8.75 0 0 1 1.46-4.23c1.3-1.63 3.58-2.6 7-2.6a12.76 12.76 0 0 1 5.69 1.3c1.63.81 2.44 2.44 2.44 4.72v11.22a2.1 2.1 0 0 0 .32 1.3 3.55 3.55 0 0 0 .81.65v.81H95.3a3 3 0 0 1-.3-1.13c0-.32-.16-.81-.16-1.14a7.2 7.2 0 0 1-2.44 2 7.13 7.13 0 0 1-3.74 1 6.51 6.51 0 0 1-4.39-1.46 5.39 5.39 0 0 1-1.79-4.23 5.69 5.69 0 0 1 2.76-5.2 11.76 11.76 0 0 1 4.39-1.3Zm3.09 2.44-1 .49c-.33.16-.81.16-1.3.33l-1.14.16a10.09 10.09 0 0 0-2.28.65 2.21 2.21 0 0 0-1.14 2.11 2.59 2.59 0 0 0 .65 2 3.41 3.41 0 0 0 1.79.65 5.35 5.35 0 0 0 3.09-1c1-.65 1.46-1.79 1.46-3.58v-1.79Zm14.64-12.36h-5.2V223h5.2Zm-5 2.44h5.2v19.35h-5.2Zm25.53 1c1.3 1 2 2.76 2 5.2v13h-5.2v-11.72a7.54 7.54 0 0 0-.33-2.28 2.85 2.85 0 0 0-2.76-1.46 3.61 3.61 0 0 0-3.66 2.11 7.88 7.88 0 0 0-.49 2.93v10.41h-5V230H119v2.76a8.46 8.46 0 0 1 1.79-2.12 5.88 5.88 0 0 1 3.9-1.14 8.29 8.29 0 0 1 4.88 1.63Zm19.19-.65a9.68 9.68 0 0 1 3.42 2.93 8.14 8.14 0 0 1 1.46 4.07 24.22 24.22 0 0 1 .16 3.9H139.7a4.72 4.72 0 0 0 2 4.07 5 5 0 0 0 2.76.65 4.65 4.65 0 0 0 2.76-.81 3.91 3.91 0 0 0 1-1.3h5.2a6.2 6.2 0 0 1-2 3.42c-1.79 2-4.23 2.76-7.32 2.76a10.35 10.35 0 0 1-6.83-2.44q-2.93-2.44-2.93-7.81c0-3.42.81-5.86 2.6-7.65a9.32 9.32 0 0 1 7-2.6 8.8 8.8 0 0 1 4.87.78Zm-7.48 4.39a6 6 0 0 0-1.3 2.93h8.78a3.9 3.9 0 0 0-4.23-4.07c-1.61-.02-2.61.3-3.28 1.12Zm25.86-5.2h.49v5.2h-1.46c-2.11 0-3.42.65-4.07 2a9.07 9.07 0 0 0-.65 3.42v9.27h-5v-19.43h4.88v3.42a9.51 9.51 0 0 1 2.12-2.6 5.42 5.42 0 0 1 3.74-1.14c-.16-.16 0-.16 0-.16Zm30.71-5.69a6.79 6.79 0 0 1 2.44 1.79 10.37 10.37 0 0 1 1.3 2.28 7.6 7.6 0 0 1 .49 2.76 8 8 0 0 1-1 3.74 5.51 5.51 0 0 1-3.09 2.6 4.89 4.89 0 0 1 2.6 2.12 8.48 8.48 0 0 1 .81 4.06v1.79a9.36 9.36 0 0 0 .16 2.44 2.37 2.37 0 0 0 1 1.46v.65h-6a6 6 0 0 1-.32-1.46 10.74 10.74 0 0 1-.16-2.28v-2.44a5.82 5.82 0 0 0-.81-3.42 4.7 4.7 0 0 0-3.09-.81h-5.37v10.22h-5.39v-26.18H194a9.35 9.35 0 0 1 3.9.65Zm-11.38 3.9v7h5.85a5.26 5.26 0 0 0 2.6-.49 3 3 0 0 0 1.63-2.93 3.5 3.5 0 0 0-1.46-3.25 5.26 5.26 0 0 0-2.6-.49h-6Zm33 2.6a9.68 9.68 0 0 1 3.45 2.9 8.14 8.14 0 0 1 1.46 4.07 24.22 24.22 0 0 1 .16 3.9h-14.17a4.72 4.72 0 0 0 2 4.07 5 5 0 0 0 2.76.65 4.65 4.65 0 0 0 2.76-.81 3.91 3.91 0 0 0 1-1.3h5.2a6.2 6.2 0 0 1-2 3.42c-1.79 2-4.23 2.76-7.32 2.76a10.35 10.35 0 0 1-6.83-2.44q-2.93-2.44-2.93-7.81c0-3.42.81-5.86 2.6-7.65a9.32 9.32 0 0 1 7-2.6 8.8 8.8 0 0 1 4.88.81Zm-7.48 4.39a6 6 0 0 0-1.3 2.93h8.78a3.9 3.9 0 0 0-4.23-4.07c-1.62-.02-2.59.3-3.24 1.12ZM236.8 230a5.4 5.4 0 0 1 2.93 2.76V230h4.88v18.38a10.91 10.91 0 0 1-1.3 5.69c-1.46 2.11-4.23 3.25-8.29 3.25a11 11 0 0 1-6-1.46 5.27 5.27 0 0 1-2.6-4.39h5.53a2.45 2.45 0 0 0 .65 1.3 4.07 4.07 0 0 0 2.76.65c1.79 0 3.09-.65 3.58-1.79a10.62 10.62 0 0 0 .65-3.9v-1.3a4.4 4.4 0 0 1-1.63 1.79 5.88 5.88 0 0 1-3.9 1.14 7.66 7.66 0 0 1-6-2.6c-1.63-1.79-2.28-4.07-2.28-7.16a11.82 11.82 0 0 1 2.11-7.32 7 7 0 0 1 6-2.93c1.3.32 2.11.49 2.93.65Zm1.63 14a6 6 0 0 0 1.3-4.23 6.54 6.54 0 0 0-1.14-4.23 3.78 3.78 0 0 0-3.09-1.46 3.52 3.52 0 0 0-3.58 2.44 9.14 9.14 0 0 0-.49 3.25 7.88 7.88 0 0 0 .49 2.93 3.72 3.72 0 0 0 3.74 2.44 3.26 3.26 0 0 0 2.76-1.14Zm16.1-16.26h-5.2V223h5.2Zm-5 2.44h5.2v19.32h-5.2Zm14 13.17a4.53 4.53 0 0 0 .65 2 4.76 4.76 0 0 0 3.42 1 5.43 5.43 0 0 0 2.44-.49 1.34 1.34 0 0 0 .81-1.3 1.48 1.48 0 0 0-.65-1.3 24.5 24.5 0 0 0-5.37-1.46 10.65 10.65 0 0 1-4.72-2.12 4.1 4.1 0 0 1-1.3-3.41 5.76 5.76 0 0 1 2.11-4.55 8.49 8.49 0 0 1 5.85-2 10.41 10.41 0 0 1 5.86 1.46 6.17 6.17 0 0 1 2.6 5h-5a3.09 3.09 0 0 0-.49-1.46 3.51 3.51 0 0 0-2.93-1 3.6 3.6 0 0 0-2.28.49 1.41 1.41 0 0 0-.65 1.14 1.45 1.45 0 0 0 .81 1.3 24.92 24.92 0 0 0 5.2 1.46 9.91 9.91 0 0 1 4.55 2.11 4.78 4.78 0 0 1 1.46 3.58 5.86 5.86 0 0 1-2.11 4.72c-1.46 1.14-3.58 1.79-6.67 1.79s-5.37-.65-6.67-2a6.18 6.18 0 0 1-2.12-4.88h5.2Zm14.31-9.43v-3.58h2.76v-5.37h5v5.37h3.09v3.58h-3.09v10.25a2.34 2.34 0 0 0 .33 1.46 3.31 3.31 0 0 0 1.79.33h1v3.74l-2.44.16c-2.44.16-4.07-.33-4.88-1.3a4.14 4.14 0 0 1-.81-2.6v-11.91h-2.76Zm24.72-4.23h.44v5.2h-1.46c-2.11 0-3.42.65-4.07 2a9.07 9.07 0 0 0-.65 3.42v9.27h-5v-19.43h4.88v3.42a9.51 9.51 0 0 1 2.11-2.6 5.42 5.42 0 0 1 3.74-1.14c-.16-.16 0-.16 0-.16Zm4.23 23.42h2.11a1.48 1.48 0 0 0 1.14-.49 2 2 0 0 0 .81-1.3c.16-.65.33-1 .33-1.14L304 230h5.69l4.23 14.31L318 230h5.37l-6.67 19c-1.3 3.74-2.28 6-3.09 6.83s-2.28 1.3-4.55 1.3h-2.44v-4.07Z"/>
		</g>
	</g>
</svg>
