<svg xmlns="http://www.w3.org/2000/svg" width="200" height="128">
	<defs>
		<style>
			.cls-3{fill:#fff}
		</style>
	</defs>
	<path d="m126.35 43.51-11.09-19.29a4.86 4.86 0 0 0-4.16-2.48H88.9a4.86 4.86 0 0 0-4.16 2.48l-11.1 19.24a4.89 4.89 0 0 0 0 4.83l11.1 19.4a5 5 0 0 0 4.16 2.57h22.19a5 5 0 0 0 4.17-2.55l11.09-19.3a4.93 4.93 0 0 0 0-4.9Z" style="fill:#4285f4"/>
	<path d="m108.44 38.35-8.16-2.8-8.63 6.52 5.35 5.4-5.37.53 5.06 5.06-5.13.63 16.57 16.56h3a4.94 4.94 0 0 0 4.16-2.56l8.22-14.29Z" style="opacity:.07;isolation:isolate"/>
	<path class="cls-3" d="m100 33.43-8.44 4.88v3.76l8.44 4.87 8.44-4.87v-3.76Zm5 6.7L100 43l-5-2.91 5-2.91 5 2.91Z"/>
	<path class="cls-3" d="M91.56 44.2v3.77l8.44 4.87 8.44-4.87V44.2L100 49.07l-8.44-4.87z"/>
	<path class="cls-3" d="M91.56 49.91v3.77l8.44 4.87 8.44-4.87v-3.77L100 54.78l-8.44-4.87z"/>
	<path d="M81.09 89.59a6.7 6.7 0 0 1-3.33-.89 6.46 6.46 0 0 1-2.45-8.91 6.54 6.54 0 0 1 2.45-2.42 6.61 6.61 0 0 1 3.33-.9 6.32 6.32 0 0 1 4.49 1.81l-1.26 1.27a4.56 4.56 0 0 0-3.23-1.28 4.51 4.51 0 0 0-3.35 1.39 4.87 4.87 0 0 0 0 6.75 4.82 4.82 0 0 0 6.23.46 3.78 3.78 0 0 0 1.41-2.64h-4.29v-1.79h6a6.13 6.13 0 0 1 .1 1.12 5.76 5.76 0 0 1-1.73 4.37 6.11 6.11 0 0 1-4.37 1.66Zm15.25-4.22a4.18 4.18 0 1 1-1.24-3 4 4 0 0 1 1.24 3Zm-6.63 0a2.55 2.55 0 0 0 .69 1.82 2.3 2.3 0 0 0 3.38 0 2.56 2.56 0 0 0 .7-1.82 2.48 2.48 0 0 0-.69-1.82 2.31 2.31 0 0 0-3.39 0 2.48 2.48 0 0 0-.69 1.82Zm15.87 0a4.17 4.17 0 1 1-1.23-3 4 4 0 0 1 1.23 3Zm-6.62 0a2.55 2.55 0 0 0 .69 1.82 2.23 2.23 0 0 0 1.69.74 2.19 2.19 0 0 0 1.68-.74 2.57 2.57 0 0 0 .71-1.82 2.48 2.48 0 0 0-.69-1.82 2.31 2.31 0 0 0-3.39 0 2.48 2.48 0 0 0-.65 1.82Zm11.47 8a4.18 4.18 0 0 1-2.28-.7 4 4 0 0 1-.85-.78 4.38 4.38 0 0 1-.61-1l1.61-.67a2.71 2.71 0 0 0 .85 1.09 2.15 2.15 0 0 0 1.28.41c1.51 0 2.26-.88 2.26-2.65v-.44h-.07a2.72 2.72 0 0 1-2.22 1 3.91 3.91 0 0 1-2.85-1.23 4.13 4.13 0 0 1-1.2-3 4.18 4.18 0 0 1 1.2-3 3.85 3.85 0 0 1 2.85-1.24 2.74 2.74 0 0 1 2.22.94h.07v-.7h1.76V89a4.6 4.6 0 0 1-1.07 3.25 3.84 3.84 0 0 1-2.95 1.14Zm-2.22-8a2.56 2.56 0 0 0 .67 1.8 2.22 2.22 0 0 0 1.68.74 2.09 2.09 0 0 0 1.6-.72 2.87 2.87 0 0 0 0-3.66 2 2 0 0 0-1.6-.74 2.2 2.2 0 0 0-1.66.75 2.57 2.57 0 0 0-.69 1.85Zm7.52-8.47h1.85v12.44h-1.85Zm6.94 12.67a4 4 0 0 1-3-1.21 4.13 4.13 0 0 1-1.2-3 4.25 4.25 0 0 1 1.14-3 3.76 3.76 0 0 1 2.84-1.2 3.53 3.53 0 0 1 2.21.74 4.24 4.24 0 0 1 .83.86 4.67 4.67 0 0 1 .58 1.08l.19.48-5.65 2.34a2.17 2.17 0 0 0 2 1.28 2.39 2.39 0 0 0 2.08-1.17l1.44 1a4 4 0 0 1-3.46 1.82Zm-.14-6.81a2.16 2.16 0 0 0-1.57.7 2.31 2.31 0 0 0-.64 1.76l3.78-1.57a1.32 1.32 0 0 0-.6-.64 1.85 1.85 0 0 0-.97-.23ZM71.36 106a5.67 5.67 0 0 1-4-9.6 5.33 5.33 0 0 1 4-1.63 5 5 0 0 1 3.94 1.76l-1 1a3.65 3.65 0 0 0-3-1.39 4.06 4.06 0 0 0-3 1.2 4.64 4.64 0 0 0 0 6.18 4.06 4.06 0 0 0 3 1.2 4.2 4.2 0 0 0 3.25-1.58l1 1a5.15 5.15 0 0 1-1.88 1.41 5.62 5.62 0 0 1-2.31.45Zm6.87-11v10.74h-1.38V95Zm1.18 7.06a3.92 3.92 0 0 1 1.07-2.81 3.65 3.65 0 0 1 2.71-1.1 3.61 3.61 0 0 1 2.7 1.1 3.89 3.89 0 0 1 1.11 2.81 3.84 3.84 0 0 1-1.08 2.81 3.58 3.58 0 0 1-2.7 1.11 3.62 3.62 0 0 1-2.71-1.11 3.92 3.92 0 0 1-1.1-2.81Zm1.38 0a2.69 2.69 0 0 0 .69 1.92 2.35 2.35 0 0 0 3.42 0 2.69 2.69 0 0 0 .69-1.92 2.66 2.66 0 0 0-.69-1.9 2.32 2.32 0 0 0-3.42 0 2.66 2.66 0 0 0-.69 1.9Zm13.82 3.68h-1.32v-1h-.06a2.43 2.43 0 0 1-1 .9 2.77 2.77 0 0 1-1.36.36 2.68 2.68 0 0 1-2.07-.78 3 3 0 0 1-.73-2.2v-4.63h1.38v4.53a1.62 1.62 0 0 0 1.81 1.8 1.74 1.74 0 0 0 1.38-.67 2.44 2.44 0 0 0 .56-1.6v-4.06h1.38Zm4.68.24a3.22 3.22 0 0 1-2.48-1.15 4.27 4.27 0 0 1 0-5.54 3.24 3.24 0 0 1 2.48-1.14 3.19 3.19 0 0 1 1.48.34 2.61 2.61 0 0 1 1 .92h.06l-.06-1V95h1.38v10.74h-1.32v-1h-.06a2.59 2.59 0 0 1-1 .91 3.2 3.2 0 0 1-1.48.35Zm.22-1.26a2.13 2.13 0 0 0 1.67-.74 3.06 3.06 0 0 0 0-3.82 2.22 2.22 0 0 0-3.33 0 3 3 0 0 0 0 3.81 2.14 2.14 0 0 0 1.66.75Zm15.06-1.85a2.8 2.8 0 0 1-1 2.27 4 4 0 0 1-2.57.86 3.78 3.78 0 0 1-2.36-.78 4 4 0 0 1-1.41-2.13l1.32-.54a3.42 3.42 0 0 0 .38.87 2.79 2.79 0 0 0 .56.66 2.63 2.63 0 0 0 .71.44 2.31 2.31 0 0 0 .83.16 2.39 2.39 0 0 0 1.54-.49 1.6 1.6 0 0 0 .6-1.3 1.54 1.54 0 0 0-.49-1.15 4.71 4.71 0 0 0-1.74-.9c-.86-.31-1.4-.52-1.61-.63a2.76 2.76 0 0 1-1.71-2.57 2.61 2.61 0 0 1 1-2 3.44 3.44 0 0 1 2.35-.85 3.63 3.63 0 0 1 2.13.64 2.94 2.94 0 0 1 1.2 1.54l-1.29.54a1.9 1.9 0 0 0-.71-1 2.13 2.13 0 0 0-1.3-.39 2.08 2.08 0 0 0-1.36.45 1.31 1.31 0 0 0-.56 1.09 1.27 1.27 0 0 0 .44 1 7.44 7.44 0 0 0 2.08 1 5.33 5.33 0 0 1 2.34 1.36 2.9 2.9 0 0 1 .63 1.85Zm11.06 2.88-1.08.71-.74-1.1a5.83 5.83 0 0 1-2.58.62 5.29 5.29 0 0 1-3.93-1.62 5.8 5.8 0 0 1 0-8 5.54 5.54 0 0 1 7.86 0 5.44 5.44 0 0 1 1.59 4 5.78 5.78 0 0 1-.48 2.35 5.66 5.66 0 0 1-1.39 1.9Zm-4.4-1.09a4.08 4.08 0 0 0 1.82-.42l-1.26-1.89 1.08-.74 1.24 1.88a4.13 4.13 0 0 0 1.23-3.12 4.2 4.2 0 0 0-1.18-3.08 4.16 4.16 0 0 0-5.87 0 4.63 4.63 0 0 0 0 6.15 4 4 0 0 0 2.94 1.22Zm13.19 1.08h-6V95h1.38v9.42h4.65Z" style="fill:#767676"/>
</svg>
