<svg xmlns="http://www.w3.org/2000/svg" width="200" height="128"><defs><style>.cls-1{fill:#4285f4;}.cls-2{opacity:0.07;isolation:isolate;}.cls-3{fill:#fff;}.cls-4{fill:#767676;}</style></defs><path class="cls-1" d="M126.35,43.51,115.26,24.22a4.86,4.86,0,0,0-4.16-2.48H88.9a4.86,4.86,0,0,0-4.16,2.48L73.64,43.46a4.89,4.89,0,0,0,0,4.83l11.1,19.4a5,5,0,0,0,4.16,2.57h22.19a5,5,0,0,0,4.17-2.55l11.09-19.3A4.93,4.93,0,0,0,126.35,43.51Z"/><path class="cls-2" d="M123.17,53.93,104.91,35.67l-1.31,2.84-2.85-2.85-1.32,2.82-2.81-2.81-.7,3.41-2.5.42-.52,2.22-3.24.78,2.9,2.9-2.87,1.27,2.87,2.87L89.67,50.8l19.45,19.45h2a5,5,0,0,0,4.17-2.56Z"/><path class="cls-3" d="M102.46,43.08H97.64a.53.53,0,0,0-.51.51v4.82a.51.51,0,0,0,.51.51h4.82a.52.52,0,0,0,.49-.51V43.59a.52.52,0,0,0-.51-.51"/><path class="cls-3" d="M110.08,42.69a.44.44,0,0,0,.46-.45h0v-.75a.46.46,0,0,0-.46-.46h-2.35v-2.2a.51.51,0,0,0-.51-.51H105V36a.47.47,0,0,0-.46-.46h-.75a.47.47,0,0,0-.45.46v2.35h-2.49V36a.46.46,0,0,0-.46-.46h-.74a.46.46,0,0,0-.46.46h0v2.35H96.75V36a.47.47,0,0,0-.46-.46h-.76a.47.47,0,0,0-.46.46h0v2.35H92.88a.51.51,0,0,0-.51.5V41H90a.46.46,0,0,0-.45.46h0v.75a.45.45,0,0,0,.45.46h2.35v2.47H90a.46.46,0,0,0-.45.46h0v.76a.45.45,0,0,0,.45.47h2.35v2.47H90a.46.46,0,0,0-.45.46v.75A.46.46,0,0,0,90,51h2.35v2.19a.52.52,0,0,0,.51.51h2.19V56a.47.47,0,0,0,.46.46h.76a.47.47,0,0,0,.46-.46V53.68h2.47V56a.46.46,0,0,0,.46.46h.74a.47.47,0,0,0,.46-.46V53.68h2.49V56a.47.47,0,0,0,.46.46h.75A.46.46,0,0,0,105,56V53.68h2.2a.51.51,0,0,0,.49-.51V51h2.35a.46.46,0,0,0,.46-.46h0v-.75a.45.45,0,0,0-.46-.46h-2.35V46.84h2.35a.46.46,0,0,0,.46-.45v-.76a.45.45,0,0,0-.44-.48h-2.37V42.69ZM106,52H94.09V40.05H106Z"/><path class="cls-4" d="M81.09,89.59a6.7,6.7,0,0,1-3.33-.89,6.46,6.46,0,0,1-2.45-8.91,6.54,6.54,0,0,1,2.45-2.42,6.61,6.61,0,0,1,3.33-.9,6.32,6.32,0,0,1,4.49,1.81l-1.26,1.27a4.56,4.56,0,0,0-3.23-1.28,4.51,4.51,0,0,0-3.35,1.39,4.87,4.87,0,0,0,0,6.75,4.82,4.82,0,0,0,6.23.46,3.78,3.78,0,0,0,1.41-2.64H81.09V82.44h6a6.13,6.13,0,0,1,.1,1.12,5.76,5.76,0,0,1-1.73,4.37A6.11,6.11,0,0,1,81.09,89.59Zm15.25-4.22a4.18,4.18,0,1,1-1.24-3A4,4,0,0,1,96.34,85.37Zm-6.63,0a2.55,2.55,0,0,0,.69,1.82,2.3,2.3,0,0,0,3.38,0,2.56,2.56,0,0,0,.7-1.82,2.48,2.48,0,0,0-.69-1.82,2.31,2.31,0,0,0-3.39,0A2.48,2.48,0,0,0,89.71,85.37Zm15.87,0a4.17,4.17,0,1,1-1.23-3A4,4,0,0,1,105.58,85.37Zm-6.62,0a2.55,2.55,0,0,0,.69,1.82,2.23,2.23,0,0,0,1.69.74,2.19,2.19,0,0,0,1.68-.74,2.57,2.57,0,0,0,.71-1.82,2.48,2.48,0,0,0-.69-1.82,2.31,2.31,0,0,0-3.39,0A2.48,2.48,0,0,0,99,85.37Zm11.47,8a4.18,4.18,0,0,1-2.28-.7,4,4,0,0,1-.85-.78,4.38,4.38,0,0,1-.61-1l1.61-.67a2.71,2.71,0,0,0,.85,1.09,2.15,2.15,0,0,0,1.28.41c1.51,0,2.26-.88,2.26-2.65v-.44h-.07a2.72,2.72,0,0,1-2.22,1,3.91,3.91,0,0,1-2.85-1.23,4.13,4.13,0,0,1-1.2-3,4.18,4.18,0,0,1,1.2-3,3.85,3.85,0,0,1,2.85-1.24,2.74,2.74,0,0,1,2.22.94h.07V81.4h1.76V89a4.6,4.6,0,0,1-1.07,3.25A3.84,3.84,0,0,1,110.43,93.39Zm-2.22-8a2.56,2.56,0,0,0,.67,1.8,2.22,2.22,0,0,0,1.68.74,2.09,2.09,0,0,0,1.6-.72,2.87,2.87,0,0,0,0-3.66,2,2,0,0,0-1.6-.74,2.2,2.2,0,0,0-1.66.75A2.57,2.57,0,0,0,108.21,85.39Zm7.52-8.47h1.85V89.34h-1.85Zm6.94,12.67a4,4,0,0,1-3-1.21,4.13,4.13,0,0,1-1.2-3,4.25,4.25,0,0,1,1.14-3,3.76,3.76,0,0,1,2.84-1.2,3.53,3.53,0,0,1,2.21.74,4.24,4.24,0,0,1,.83.86,4.67,4.67,0,0,1,.58,1.08l.19.48-5.65,2.34a2.17,2.17,0,0,0,2,1.28,2.39,2.39,0,0,0,2.08-1.17l1.44,1A4,4,0,0,1,122.67,89.59Zm-.14-6.81a2.16,2.16,0,0,0-1.57.7,2.31,2.31,0,0,0-.64,1.76l3.78-1.57a1.32,1.32,0,0,0-.6-.64A1.85,1.85,0,0,0,122.53,82.78ZM51.59,106a5.67,5.67,0,0,1-4-9.6,5.33,5.33,0,0,1,4-1.63,5,5,0,0,1,3.94,1.76l-1,1a3.65,3.65,0,0,0-2.95-1.39,4.06,4.06,0,0,0-3,1.2,4.64,4.64,0,0,0,0,6.18,4.06,4.06,0,0,0,3,1.2,4.2,4.2,0,0,0,3.25-1.58l1,1A5.15,5.15,0,0,1,54,105.47,5.62,5.62,0,0,1,51.59,106Zm4.92-3.92a3.91,3.91,0,0,1,1.06-2.81,3.67,3.67,0,0,1,2.72-1.1,3.61,3.61,0,0,1,2.7,1.1,3.89,3.89,0,0,1,1.08,2.81A3.84,3.84,0,0,1,63,104.87a3.58,3.58,0,0,1-2.7,1.11,3.64,3.64,0,0,1-2.72-1.11A3.91,3.91,0,0,1,56.51,102.06Zm1.38,0a2.69,2.69,0,0,0,.69,1.92A2.35,2.35,0,0,0,62,104a2.69,2.69,0,0,0,.69-1.92,2.66,2.66,0,0,0-.69-1.9,2.32,2.32,0,0,0-3.42,0A2.66,2.66,0,0,0,57.89,102.06Zm8.67,3.68H65.18V98.39H66.5v1h.06a2.45,2.45,0,0,1,1-.91,2.75,2.75,0,0,1,2.72,0,2.22,2.22,0,0,1,.9,1,2.86,2.86,0,0,1,2.53-1.41,2.5,2.5,0,0,1,2,.78,3.24,3.24,0,0,1,.69,2.22v4.59H75v-4.38a2.39,2.39,0,0,0-.38-1.5,1.56,1.56,0,0,0-1.26-.45,1.63,1.63,0,0,0-1.33.67,2.47,2.47,0,0,0-.54,1.59v4.07H70.07v-4.38a2.39,2.39,0,0,0-.38-1.5,1.56,1.56,0,0,0-1.26-.45,1.63,1.63,0,0,0-1.33.67,2.47,2.47,0,0,0-.54,1.59Zm15.22.24a3.13,3.13,0,0,1-1.47-.35,2.55,2.55,0,0,1-1-.91h-.06l.06,1V109H77.9V98.39h1.32v1h.06a2.57,2.57,0,0,1,1-.92,3.12,3.12,0,0,1,1.47-.34,3.16,3.16,0,0,1,2.46,1.14,4,4,0,0,1,1,2.77,4,4,0,0,1-1,2.77A3.13,3.13,0,0,1,81.78,106Zm-.22-1.26a2.14,2.14,0,0,0,1.66-.75,3,3,0,0,0,0-3.81,2.14,2.14,0,0,0-1.66-.75,2.17,2.17,0,0,0-1.68.75,2.76,2.76,0,0,0-.66,1.9,2.8,2.8,0,0,0,.66,1.92A2.19,2.19,0,0,0,81.56,104.72Zm11.35,1H91.59v-1h-.06a2.47,2.47,0,0,1-1,.9,2.8,2.8,0,0,1-1.36.36,2.71,2.71,0,0,1-2.08-.78,3.09,3.09,0,0,1-.73-2.2V98.39h1.38v4.53a1.63,1.63,0,0,0,1.82,1.8,1.74,1.74,0,0,0,1.38-.67,2.43,2.43,0,0,0,.55-1.6V98.39h1.38Zm4.67.12a2.09,2.09,0,0,1-1.49-.56,2,2,0,0,1-.61-1.55v-4.1H94.19V98.39h1.29V96.14h1.38v2.25h1.8v1.26h-1.8v3.66a1.32,1.32,0,0,0,.28,1,.92.92,0,0,0,.65.27,1.65,1.65,0,0,0,.32,0l.29-.1.44,1.23A3.7,3.7,0,0,1,97.58,105.86Zm5.62.12a3.52,3.52,0,0,1-2.67-1.11,4,4,0,0,1-1-2.81,4,4,0,0,1,1-2.8,3.69,3.69,0,0,1,5.22-.06,4.28,4.28,0,0,1,1,3v.15h-5.78a2.39,2.39,0,0,0,.72,1.74,2.33,2.33,0,0,0,3.72-.66l1.23.6a3.61,3.61,0,0,1-1.37,1.45A3.8,3.8,0,0,1,103.2,106Zm-2.2-4.8h4.21a1.8,1.8,0,0,0-.62-1.27,2.15,2.15,0,0,0-1.51-.5,2,2,0,0,0-1.34.48A2.32,2.32,0,0,0,101,101.18ZM117.75,95v1.32h-4.89v3.4h4.41V101h-4.41v3.41h4.89v1.32h-6.27V95Zm1.47,3.39h1.32v1h.06a2.52,2.52,0,0,1,1-.91,2.9,2.9,0,0,1,1.36-.35,2.71,2.71,0,0,1,2.08.77,3.1,3.1,0,0,1,.72,2.2v4.62h-1.38v-4.53a1.61,1.61,0,0,0-1.81-1.8,1.73,1.73,0,0,0-1.38.66,2.44,2.44,0,0,0-.56,1.6v4.07h-1.38Zm11.31,10.83a4.26,4.26,0,0,1-1.15-.16,3.8,3.8,0,0,1-1-.44,3.33,3.33,0,0,1-.76-.68,2.85,2.85,0,0,1-.48-.87l1.3-.54a2.08,2.08,0,0,0,.78,1,2.19,2.19,0,0,0,1.29.39,2.3,2.3,0,0,0,1.76-.68,2.62,2.62,0,0,0,.63-1.86v-.7h-.06a2.72,2.72,0,0,1-1.06.92,3.26,3.26,0,0,1-3.92-.79,4.07,4.07,0,0,1-1-2.79,4,4,0,0,1,1-2.77,3.28,3.28,0,0,1,3.92-.81,2.74,2.74,0,0,1,1.06.93h.06v-1h1.32v7a3.76,3.76,0,0,1-1,2.78A3.65,3.65,0,0,1,130.53,109.22Zm.05-4.5a2.11,2.11,0,0,0,1.66-.74,3,3,0,0,0,0-3.82,2.11,2.11,0,0,0-1.66-.75,2.16,2.16,0,0,0-1.67.75,3,3,0,0,0,0,3.81A2.16,2.16,0,0,0,130.58,104.72Zm7.12-8.87a1,1,0,1,1-.28-.69A.94.94,0,0,1,137.7,95.85Zm-.28,2.54v7.35H136V98.39Zm1.8,0h1.32v1h.06a2.49,2.49,0,0,1,1-.91,2.9,2.9,0,0,1,1.36-.35,2.71,2.71,0,0,1,2.08.77,3.1,3.1,0,0,1,.73,2.2v4.62h-1.38v-4.53a1.62,1.62,0,0,0-1.82-1.8,1.73,1.73,0,0,0-1.38.66,2.43,2.43,0,0,0-.55,1.6v4.07h-1.38ZM150.65,106a3.52,3.52,0,0,1-2.67-1.11,4,4,0,0,1-1-2.81,4,4,0,0,1,1-2.8,3.68,3.68,0,0,1,5.21-.06,4.28,4.28,0,0,1,1,3l0,.15h-5.77a2.39,2.39,0,0,0,.72,1.74,2.33,2.33,0,0,0,3.72-.66l1.23.6a3.64,3.64,0,0,1-1.38,1.45A3.76,3.76,0,0,1,150.65,106Zm-2.21-4.8h4.22a1.81,1.81,0,0,0-.63-1.27,2.13,2.13,0,0,0-1.5-.5,2,2,0,0,0-1.34.48A2.27,2.27,0,0,0,148.44,101.18Z"/></svg>