<svg xmlns="http://www.w3.org/2000/svg" width="200" height="128">
	<defs>
		<style>
			.cls-3{fill:#fff}
		</style>
	</defs>
	<path d="m126.35 43.51-11.09-19.29a4.86 4.86 0 0 0-4.16-2.48H88.9a4.86 4.86 0 0 0-4.16 2.48l-11.1 19.24a4.89 4.89 0 0 0 0 4.83l11.1 19.4a5 5 0 0 0 4.16 2.57h22.19a5 5 0 0 0 4.17-2.55l11.09-19.3a4.93 4.93 0 0 0 0-4.9Z" style="fill:#4285f4"/>
	<path d="m106.82 33.76-5.13 2.53-2.54-2.53-8.91 5.06 2 2-4.94 7.28 3 3 2.88 7.15 12 12h5.9a4.94 4.94 0 0 0 4.16-2.56l9.32-16.19Z" style="opacity:.07;isolation:isolate"/>
	<path class="cls-3" d="m106.72 50.21 1.23-2.11h4.75l1.22-2.11-3.18-5.48h-4.95l-1.43-2.53h-1.41v-1.69h2.39l1.43 2.53h2.99l-2.94-5.06h-5.98v7.17h2.54l.98 1.69h-3.52v3.37h3.21l1.46-2.53h3.93l.97 1.69h-3.93l-1.46 2.53h-4.18v6.33h5.27l-.97 1.69h-4.3v2.53h5.98l4.9-8.44h-2.8l-1.24 2.11h-4.73v-1.69h3.77z"/>
	<path class="cls-3" d="m93.28 50.21-1.23-2.11H87.3l-1.22-2.11 3.18-5.48h4.95l1.43-2.53h1.41v-1.69h-2.4l-1.43 2.53h-2.98l2.93-5.06h5.98v7.17h-2.54l-.98 1.69h3.52v3.37h-3.2l-1.46-2.53h-3.93l-.98 1.69h3.93l1.47 2.53h4.17v6.33h-5.26l.97 1.69h4.29v2.53h-5.98l-4.89-8.44h2.8l1.23 2.11h4.74v-1.69h-3.77z"/>
	<path d="M81.09 89.59a6.7 6.7 0 0 1-3.33-.89 6.46 6.46 0 0 1-2.45-8.91 6.54 6.54 0 0 1 2.45-2.42 6.61 6.61 0 0 1 3.33-.9 6.32 6.32 0 0 1 4.49 1.81l-1.26 1.27a4.56 4.56 0 0 0-3.23-1.28 4.51 4.51 0 0 0-3.35 1.39 4.87 4.87 0 0 0 0 6.75 4.82 4.82 0 0 0 6.23.46 3.78 3.78 0 0 0 1.41-2.64h-4.29v-1.79h6a6.13 6.13 0 0 1 .1 1.12 5.76 5.76 0 0 1-1.73 4.37 6.11 6.11 0 0 1-4.37 1.66Zm15.25-4.22a4.18 4.18 0 1 1-1.24-3 4 4 0 0 1 1.24 3Zm-6.63 0a2.55 2.55 0 0 0 .69 1.82 2.3 2.3 0 0 0 3.38 0 2.56 2.56 0 0 0 .7-1.82 2.48 2.48 0 0 0-.69-1.82 2.31 2.31 0 0 0-3.39 0 2.48 2.48 0 0 0-.69 1.82Zm15.87 0a4.17 4.17 0 1 1-1.23-3 4 4 0 0 1 1.23 3Zm-6.62 0a2.55 2.55 0 0 0 .69 1.82 2.23 2.23 0 0 0 1.69.74 2.19 2.19 0 0 0 1.68-.74 2.57 2.57 0 0 0 .71-1.82 2.48 2.48 0 0 0-.69-1.82 2.31 2.31 0 0 0-3.39 0 2.48 2.48 0 0 0-.65 1.82Zm11.47 8a4.18 4.18 0 0 1-2.28-.7 4 4 0 0 1-.85-.78 4.38 4.38 0 0 1-.61-1l1.61-.67a2.71 2.71 0 0 0 .85 1.09 2.15 2.15 0 0 0 1.28.41c1.51 0 2.26-.88 2.26-2.65v-.44h-.07a2.72 2.72 0 0 1-2.22 1 3.91 3.91 0 0 1-2.85-1.23 4.13 4.13 0 0 1-1.2-3 4.18 4.18 0 0 1 1.2-3 3.85 3.85 0 0 1 2.85-1.24 2.74 2.74 0 0 1 2.22.94h.07v-.7h1.76V89a4.6 4.6 0 0 1-1.07 3.25 3.84 3.84 0 0 1-2.95 1.14Zm-2.22-8a2.56 2.56 0 0 0 .67 1.8 2.22 2.22 0 0 0 1.68.74 2.09 2.09 0 0 0 1.6-.72 2.87 2.87 0 0 0 0-3.66 2 2 0 0 0-1.6-.74 2.2 2.2 0 0 0-1.66.75 2.57 2.57 0 0 0-.69 1.85Zm7.52-8.47h1.85v12.44h-1.85Zm6.94 12.67a4 4 0 0 1-3-1.21 4.13 4.13 0 0 1-1.2-3 4.25 4.25 0 0 1 1.14-3 3.76 3.76 0 0 1 2.84-1.2 3.53 3.53 0 0 1 2.21.74 4.24 4.24 0 0 1 .83.86 4.67 4.67 0 0 1 .58 1.08l.19.48-5.65 2.34a2.17 2.17 0 0 0 2 1.28 2.39 2.39 0 0 0 2.08-1.17l1.44 1a4 4 0 0 1-3.46 1.82Zm-.14-6.81a2.16 2.16 0 0 0-1.57.7 2.31 2.31 0 0 0-.64 1.76l3.78-1.57a1.32 1.32 0 0 0-.6-.64 1.85 1.85 0 0 0-.97-.23ZM27.42 106a5.67 5.67 0 0 1-4-9.6 5.33 5.33 0 0 1 4-1.63 5 5 0 0 1 3.95 1.76l-1 1a3.67 3.67 0 0 0-3-1.39 4 4 0 0 0-3 1.2 4.61 4.61 0 0 0 0 6.18 4 4 0 0 0 3 1.2 4.22 4.22 0 0 0 3.26-1.58l1 1a5.12 5.12 0 0 1-1.87 1.41 5.67 5.67 0 0 1-2.34.45Zm6.87-11v10.74h-1.38V95Zm1.19 7.06a3.91 3.91 0 0 1 1.06-2.81 3.67 3.67 0 0 1 2.72-1.1 3.61 3.61 0 0 1 2.7 1.1 3.89 3.89 0 0 1 1.04 2.81 3.84 3.84 0 0 1-1 2.81 3.58 3.58 0 0 1-2.7 1.11 3.64 3.64 0 0 1-2.72-1.11 3.91 3.91 0 0 1-1.1-2.81Zm1.38 0a2.69 2.69 0 0 0 .69 1.92A2.35 2.35 0 0 0 41 104a2.69 2.69 0 0 0 .69-1.92 2.66 2.66 0 0 0-.69-1.9 2.32 2.32 0 0 0-3.42 0 2.66 2.66 0 0 0-.72 1.88Zm13.81 3.68h-1.32v-1h-.06a2.47 2.47 0 0 1-1 .9A2.8 2.8 0 0 1 47 106a2.71 2.71 0 0 1-2.08-.78 3.09 3.09 0 0 1-.73-2.2v-4.63h1.38v4.53a1.63 1.63 0 0 0 1.82 1.8 1.74 1.74 0 0 0 1.38-.67 2.43 2.43 0 0 0 .55-1.6v-4.06h1.38Zm4.68.24a3.2 3.2 0 0 1-2.47-1.15 4.27 4.27 0 0 1 0-5.54 3.22 3.22 0 0 1 2.47-1.14 3.16 3.16 0 0 1 1.48.34 2.57 2.57 0 0 1 1 .92h.06l-.06-1V95h1.38v10.74h-1.29v-1h-.06a2.55 2.55 0 0 1-1 .91 3.17 3.17 0 0 1-1.51.35Zm.23-1.26a2.11 2.11 0 0 0 1.66-.74 3 3 0 0 0 0-3.82 2.11 2.11 0 0 0-1.66-.75 2.16 2.16 0 0 0-1.67.75 3 3 0 0 0 0 3.81 2.16 2.16 0 0 0 1.67.75Zm10.26 1h-1.38V95h1.38l3.73 6.54h.06L73.37 95h1.38v10.74h-1.38v-6.38l.06-1.8h-.06l-3.37 5.9h-.8l-3.36-5.9h-.06l.06 1.8Zm13.39-7.59a3.45 3.45 0 0 1 2.42.81 2.92 2.92 0 0 1 .88 2.25v4.53h-1.32v-1h-.06a2.63 2.63 0 0 1-2.28 1.28 2.93 2.93 0 0 1-2-.73 2.28 2.28 0 0 1-.82-1.79 2.19 2.19 0 0 1 .87-1.82 3.62 3.62 0 0 1 2.3-.67 4.05 4.05 0 0 1 2 .45v-.32a1.56 1.56 0 0 0-.57-1.22 1.92 1.92 0 0 0-1.33-.5 2.11 2.11 0 0 0-1.83 1l-1.22-.77a3.38 3.38 0 0 1 2.96-1.48Zm-1.78 5.34a1.09 1.09 0 0 0 .46.9 1.73 1.73 0 0 0 1.07.36 2.19 2.19 0 0 0 1.55-.65 2 2 0 0 0 .68-1.52 2.9 2.9 0 0 0-1.8-.5 2.34 2.34 0 0 0-1.4.4 1.22 1.22 0 0 0-.56 1.03Zm9.93 2.53a3.64 3.64 0 0 1-2.72-1.11 4 4 0 0 1-1.06-2.81 3.91 3.91 0 0 1 1.06-2.81 3.67 3.67 0 0 1 2.72-1.1 3.36 3.36 0 0 1 3.22 2.11l-1.26.53a2.07 2.07 0 0 0-2-1.38 2.14 2.14 0 0 0-1.64.76 3 3 0 0 0 0 3.78 2.25 2.25 0 0 0 3.77-.62l1.23.53a3.24 3.24 0 0 1-1.27 1.55 3.53 3.53 0 0 1-2.05.57Zm4.47-11h1.38v3.39l-.06 1h.06a2.45 2.45 0 0 1 1-.91 2.83 2.83 0 0 1 1.35-.35 2.7 2.7 0 0 1 2.08.77 3.06 3.06 0 0 1 .73 2.2v4.62H97v-4.35c0-1.32-.59-2-1.76-2a1.76 1.76 0 0 0-1.41.69 2.47 2.47 0 0 0-.58 1.63v4h-1.4Zm9.91.85a1 1 0 1 1-.28-.69.94.94 0 0 1 .28.69Zm-.28 2.54v7.35h-1.38v-7.35Zm1.8 0h1.32v1h.06a2.49 2.49 0 0 1 1-.91 2.9 2.9 0 0 1 1.36-.35 2.71 2.71 0 0 1 2.08.77 3.1 3.1 0 0 1 .73 2.2v4.62h-1.38v-4.53a1.62 1.62 0 0 0-1.82-1.8 1.73 1.73 0 0 0-1.38.66 2.43 2.43 0 0 0-.55 1.6v4.07h-1.38Zm11.43 7.61a3.52 3.52 0 0 1-2.67-1.11 4 4 0 0 1-1.05-2.81 4 4 0 0 1 1-2.8 3.68 3.68 0 0 1 5.21-.06 4.28 4.28 0 0 1 1 3v.15h-5.8a2.39 2.39 0 0 0 .72 1.74 2.33 2.33 0 0 0 3.72-.66l1.23.6a3.64 3.64 0 0 1-1.38 1.45 3.76 3.76 0 0 1-1.98.5Zm-2.21-4.8h4.22a1.81 1.81 0 0 0-.63-1.27 2.13 2.13 0 0 0-1.5-.5 2 2 0 0 0-1.34.48 2.27 2.27 0 0 0-.75 1.27Zm16.5 4.54h-6V95h1.38v9.42H129Zm4.5.24a3.52 3.52 0 0 1-2.67-1.11 4 4 0 0 1-1-2.81 4 4 0 0 1 1-2.8 3.68 3.68 0 0 1 5.17-.06 4.28 4.28 0 0 1 1 3v.15h-5.77a2.39 2.39 0 0 0 .72 1.74 2.33 2.33 0 0 0 3.72-.66l1.23.6a3.64 3.64 0 0 1-1.38 1.45 3.76 3.76 0 0 1-2 .52Zm-2.21-4.8h4.22a1.81 1.81 0 0 0-.63-1.27 2.13 2.13 0 0 0-1.5-.5 2 2 0 0 0-1.35.48 2.32 2.32 0 0 0-.72 1.29Zm9.81-3a3.45 3.45 0 0 1 2.42.81 2.92 2.92 0 0 1 .88 2.25v4.53h-1.3v-1h-.1a2.63 2.63 0 0 1-2.28 1.26 2.91 2.91 0 0 1-2-.73 2.25 2.25 0 0 1-.82-1.79 2.21 2.21 0 0 1 .86-1.82 3.67 3.67 0 0 1 2.31-.67 4.05 4.05 0 0 1 2 .45v-.32a1.56 1.56 0 0 0-.57-1.22 1.92 1.92 0 0 0-1.33-.5 2.11 2.11 0 0 0-1.83 1l-1.22-.77a3.38 3.38 0 0 1 3-1.51Zm-1.78 5.34a1.11 1.11 0 0 0 .45.9 1.78 1.78 0 0 0 1.08.36 2.21 2.21 0 0 0 1.55-.65 2 2 0 0 0 .68-1.52 2.9 2.9 0 0 0-1.8-.5 2.32 2.32 0 0 0-1.4.4 1.2 1.2 0 0 0-.54.98Zm8 2.25H146v-7.38h1.32v1.19h.06a2 2 0 0 1 .86-1 2.38 2.38 0 0 1 1.29-.41 2.59 2.59 0 0 1 1 .18l-.42 1.33a2.26 2.26 0 0 0-.81-.11 1.76 1.76 0 0 0-1.36.64 2.07 2.07 0 0 0-.58 1.47Zm4.07-7.35h1.32v1h.06a2.49 2.49 0 0 1 1-.91 2.9 2.9 0 0 1 1.36-.35 2.71 2.71 0 0 1 2.08.77 3.1 3.1 0 0 1 .73 2.2v4.62h-1.38v-4.53a1.62 1.62 0 0 0-1.82-1.8 1.73 1.73 0 0 0-1.38.66 2.43 2.43 0 0 0-.55 1.6v4.07h-1.38Zm9.91-2.54a1 1 0 1 1-.28-.69.94.94 0 0 1 .32.66Zm-.28 2.54v7.35h-1.38v-7.38Zm1.8 0h1.32v1h.06a2.49 2.49 0 0 1 1-.91 2.9 2.9 0 0 1 1.36-.35 2.71 2.71 0 0 1 2.08.77 3.1 3.1 0 0 1 .73 2.2v4.62H168v-4.53a1.62 1.62 0 0 0-1.82-1.8 1.73 1.73 0 0 0-1.38.66 2.43 2.43 0 0 0-.55 1.6v4.07h-1.38Zm11.31 10.83a4.33 4.33 0 0 1-1.16-.16 3.8 3.8 0 0 1-1-.44 3.33 3.33 0 0 1-.76-.68 2.85 2.85 0 0 1-.48-.87l1.31-.54a2.08 2.08 0 0 0 .78 1 2.19 2.19 0 0 0 1.29.39 2.27 2.27 0 0 0 1.75-.68 2.62 2.62 0 0 0 .63-1.86v-.7h-.06a2.72 2.72 0 0 1-1.06.92 3.18 3.18 0 0 1-1.37.37 3.26 3.26 0 0 1-2.48-1.13 4.07 4.07 0 0 1-1-2.79 4 4 0 0 1 1-2.77 3.24 3.24 0 0 1 2.48-1.16 3.17 3.17 0 0 1 1.44.33 2.74 2.74 0 0 1 1.06.93h.06v-1h1.32v7a3.76 3.76 0 0 1-1 2.78 3.65 3.65 0 0 1-2.71 1.03Zm0-4.5a2.13 2.13 0 0 0 1.67-.74 3.06 3.06 0 0 0 0-3.82 2.22 2.22 0 0 0-3.33 0 3 3 0 0 0 0 3.81 2.14 2.14 0 0 0 1.74.72Z" style="fill:#767676"/>
</svg>
