<svg xmlns="http://www.w3.org/2000/svg" width="200" height="128"><defs><style>.cls-1{fill:#4285f4;}.cls-2{opacity:0.07;isolation:isolate;}.cls-3{fill:#fff;}.cls-4{fill:#767676;}</style></defs><path class="cls-1" d="M126.35,43.51,115.26,24.22a4.86,4.86,0,0,0-4.16-2.48H88.9a4.86,4.86,0,0,0-4.16,2.48L73.64,43.46a4.89,4.89,0,0,0,0,4.83l11.1,19.4a5,5,0,0,0,4.16,2.57h22.19a5,5,0,0,0,4.17-2.55l11.09-19.3A4.93,4.93,0,0,0,126.35,43.51Z"/><path class="cls-2" d="M110.64,39.13l-2.47.54L102,33.51l-2,3.67L99,41.44l1.81,1.81L97.3,44l-4.77-4.77L89.3,42.31l6,5.95-6.33,5,17,17h5.19a5,5,0,0,0,4.17-2.56L124,52.51Z"/><path class="cls-3" d="M108,38.82a2.25,2.25,0,1,1-.82,3.07,2.24,2.24,0,0,1,.82-3.07h0"/><path class="cls-3" d="M89.8,42.69a2.24,2.24,0,1,1,3.06-.82,2.23,2.23,0,0,1-3.06.82h0"/><path class="cls-3" d="M102.24,56.48A2.25,2.25,0,1,1,100,54.23a2.24,2.24,0,0,1,2.24,2.25"/><path class="cls-3" d="M100,41.33a4.55,4.55,0,0,1,1,.12V35.51H99v5.94A4.55,4.55,0,0,1,100,41.33Z"/><path class="cls-3" d="M104.46,47.37a4.63,4.63,0,0,1-1,1.79l5.15,3,1-1.79Z"/><path class="cls-3" d="M95.54,47.37l-5.14,3,1,1.8,5.14-2.95A4.72,4.72,0,0,1,95.54,47.37Z"/><path class="cls-3" d="M103.63,46A3.63,3.63,0,1,1,100,42.37h0A3.63,3.63,0,0,1,103.63,46"/><path class="cls-3" d="M89.49,48.77a2.85,2.85,0,1,1-1,3.89h0a2.84,2.84,0,0,1,1-3.89"/><path class="cls-3" d="M107.65,53.7a2.85,2.85,0,1,1,3.9-1h0a2.84,2.84,0,0,1-3.89,1h0"/><path class="cls-3" d="M102.85,35.51A2.85,2.85,0,1,1,100,32.66a2.85,2.85,0,0,1,2.85,2.85h0"/><path class="cls-4" d="M81.09,89.59a6.7,6.7,0,0,1-3.33-.89,6.46,6.46,0,0,1-2.45-8.91,6.54,6.54,0,0,1,2.45-2.42,6.61,6.61,0,0,1,3.33-.9,6.32,6.32,0,0,1,4.49,1.81l-1.26,1.27a4.56,4.56,0,0,0-3.23-1.28,4.51,4.51,0,0,0-3.35,1.39,4.87,4.87,0,0,0,0,6.75,4.82,4.82,0,0,0,6.23.46,3.78,3.78,0,0,0,1.41-2.64H81.09V82.44h6a6.13,6.13,0,0,1,.1,1.12,5.76,5.76,0,0,1-1.73,4.37A6.11,6.11,0,0,1,81.09,89.59Zm15.25-4.22a4.18,4.18,0,1,1-1.24-3A4,4,0,0,1,96.34,85.37Zm-6.63,0a2.55,2.55,0,0,0,.69,1.82,2.3,2.3,0,0,0,3.38,0,2.56,2.56,0,0,0,.7-1.82,2.48,2.48,0,0,0-.69-1.82,2.31,2.31,0,0,0-3.39,0A2.48,2.48,0,0,0,89.71,85.37Zm15.87,0a4.17,4.17,0,1,1-1.23-3A4,4,0,0,1,105.58,85.37Zm-6.62,0a2.55,2.55,0,0,0,.69,1.82,2.23,2.23,0,0,0,1.69.74,2.19,2.19,0,0,0,1.68-.74,2.57,2.57,0,0,0,.71-1.82,2.48,2.48,0,0,0-.69-1.82,2.31,2.31,0,0,0-3.39,0A2.48,2.48,0,0,0,99,85.37Zm11.47,8a4.18,4.18,0,0,1-2.28-.7,4,4,0,0,1-.85-.78,4.38,4.38,0,0,1-.61-1l1.61-.67a2.71,2.71,0,0,0,.85,1.09,2.15,2.15,0,0,0,1.28.41c1.51,0,2.26-.88,2.26-2.65v-.44h-.07a2.72,2.72,0,0,1-2.22,1,3.91,3.91,0,0,1-2.85-1.23,4.13,4.13,0,0,1-1.2-3,4.18,4.18,0,0,1,1.2-3,3.85,3.85,0,0,1,2.85-1.24,2.74,2.74,0,0,1,2.22.94h.07V81.4h1.76V89a4.6,4.6,0,0,1-1.07,3.25A3.84,3.84,0,0,1,110.43,93.39Zm-2.22-8a2.56,2.56,0,0,0,.67,1.8,2.22,2.22,0,0,0,1.68.74,2.09,2.09,0,0,0,1.6-.72,2.87,2.87,0,0,0,0-3.66,2,2,0,0,0-1.6-.74,2.2,2.2,0,0,0-1.66.75A2.57,2.57,0,0,0,108.21,85.39Zm7.52-8.47h1.85V89.34h-1.85Zm6.94,12.67a4,4,0,0,1-3-1.21,4.13,4.13,0,0,1-1.2-3,4.25,4.25,0,0,1,1.14-3,3.76,3.76,0,0,1,2.84-1.2,3.53,3.53,0,0,1,2.21.74,4.24,4.24,0,0,1,.83.86,4.67,4.67,0,0,1,.58,1.08l.19.48-5.65,2.34a2.17,2.17,0,0,0,2,1.28,2.39,2.39,0,0,0,2.08-1.17l1.44,1A4,4,0,0,1,122.67,89.59Zm-.14-6.81a2.16,2.16,0,0,0-1.57.7,2.31,2.31,0,0,0-.64,1.76l3.78-1.57a1.32,1.32,0,0,0-.6-.64A1.85,1.85,0,0,0,122.53,82.78ZM57,106a5.67,5.67,0,0,1-4-9.6,5.33,5.33,0,0,1,4-1.63,5,5,0,0,1,4,1.76l-1,1a3.67,3.67,0,0,0-3-1.39,4,4,0,0,0-3,1.2,4.61,4.61,0,0,0,0,6.18,4,4,0,0,0,3,1.2,4.22,4.22,0,0,0,3.26-1.58l1,1a5.12,5.12,0,0,1-1.87,1.41A5.67,5.67,0,0,1,57,106Zm6.87-11v10.74H62.49V95Zm1.19,7.06a3.91,3.91,0,0,1,1.06-2.81,3.67,3.67,0,0,1,2.72-1.1,3.61,3.61,0,0,1,2.7,1.1,3.89,3.89,0,0,1,1.08,2.81,3.84,3.84,0,0,1-1.08,2.81,3.58,3.58,0,0,1-2.7,1.11,3.64,3.64,0,0,1-2.72-1.11A3.91,3.91,0,0,1,65.06,102.06Zm1.38,0a2.69,2.69,0,0,0,.69,1.92,2.35,2.35,0,0,0,3.42,0,2.69,2.69,0,0,0,.69-1.92,2.66,2.66,0,0,0-.69-1.9,2.32,2.32,0,0,0-3.42,0A2.66,2.66,0,0,0,66.44,102.06Zm13.81,3.68H78.93v-1h-.06a2.47,2.47,0,0,1-1,.9,2.8,2.8,0,0,1-1.36.36,2.71,2.71,0,0,1-2.08-.78,3.09,3.09,0,0,1-.73-2.2V98.39h1.38v4.53a1.63,1.63,0,0,0,1.82,1.8,1.74,1.74,0,0,0,1.38-.67,2.43,2.43,0,0,0,.55-1.6V98.39h1.38Zm4.68.24a3.2,3.2,0,0,1-2.47-1.15,4.27,4.27,0,0,1,0-5.54,3.22,3.22,0,0,1,2.47-1.14,3.16,3.16,0,0,1,1.48.34,2.57,2.57,0,0,1,1,.92h.06l-.06-1V95h1.38v10.74H87.5v-1h-.06a2.55,2.55,0,0,1-1,.91A3.17,3.17,0,0,1,84.93,106Zm.23-1.26a2.11,2.11,0,0,0,1.66-.74,3,3,0,0,0,0-3.82,2.11,2.11,0,0,0-1.66-.75,2.16,2.16,0,0,0-1.67.75,3,3,0,0,0,0,3.81A2.16,2.16,0,0,0,85.16,104.72Zm10.26-3.33v4.35H94V95H97.7a3.31,3.31,0,0,1,2.37.93,3.1,3.1,0,0,1,0,4.54,3.31,3.31,0,0,1-2.37.92Zm0-5.07v3.75h2.31a1.91,1.91,0,0,0,1.92-1.88,1.93,1.93,0,0,0-1.92-1.87Zm13.14,9.42h-1.32v-1h-.06a2.43,2.43,0,0,1-1,.9,2.8,2.8,0,0,1-1.36.36,2.71,2.71,0,0,1-2.08-.78,3.09,3.09,0,0,1-.72-2.2V98.39h1.38v4.53a1.62,1.62,0,0,0,1.81,1.8,1.74,1.74,0,0,0,1.38-.67,2.44,2.44,0,0,0,.56-1.6V98.39h1.38Zm5.56.24a3.13,3.13,0,0,1-1.47-.35,2.55,2.55,0,0,1-1-.91h-.06v1h-1.32V95h1.38v3.39l-.06,1h.06a2.57,2.57,0,0,1,1-.92,3.12,3.12,0,0,1,1.47-.34,3.16,3.16,0,0,1,2.46,1.14,4,4,0,0,1,1,2.77,4,4,0,0,1-1,2.77A3.13,3.13,0,0,1,114.12,106Zm-.22-1.26a2.14,2.14,0,0,0,1.66-.75,3,3,0,0,0,0-3.81,2.14,2.14,0,0,0-1.66-.75,2.17,2.17,0,0,0-1.68.75,2.76,2.76,0,0,0-.66,1.9,2.8,2.8,0,0,0,.66,1.92A2.19,2.19,0,0,0,113.9,104.72Zm10-9.72-4.46,10.74h-1.29L122.6,95Zm8.11,7.87a2.8,2.8,0,0,1-1,2.27,4,4,0,0,1-2.55.84,3.78,3.78,0,0,1-2.36-.78,4,4,0,0,1-1.41-2.13l1.32-.54a3.42,3.42,0,0,0,.38.87,2.58,2.58,0,0,0,.56.66,2.48,2.48,0,0,0,.71.44,2.31,2.31,0,0,0,.83.16,2.39,2.39,0,0,0,1.54-.49,1.6,1.6,0,0,0,.6-1.3,1.54,1.54,0,0,0-.49-1.15,4.71,4.71,0,0,0-1.74-.9c-.86-.31-1.4-.52-1.61-.63A2.76,2.76,0,0,1,125,97.62a2.61,2.61,0,0,1,.95-2,3.44,3.44,0,0,1,2.35-.85,3.63,3.63,0,0,1,2.13.64,2.94,2.94,0,0,1,1.2,1.54l-1.29.54a2,2,0,0,0-.71-1,2.15,2.15,0,0,0-1.3-.39,2.08,2.08,0,0,0-1.36.45,1.31,1.31,0,0,0-.56,1.09,1.27,1.27,0,0,0,.44,1,7.44,7.44,0,0,0,2.08,1,5.33,5.33,0,0,1,2.34,1.36A2.9,2.9,0,0,1,132,102.87Zm7.65,2.87h-1.32v-1h-.06a2.43,2.43,0,0,1-1,.9A2.73,2.73,0,0,1,136,106a2.7,2.7,0,0,1-2.08-.78,3,3,0,0,1-.73-2.2V98.39h1.38v4.53a1.63,1.63,0,0,0,1.82,1.8,1.74,1.74,0,0,0,1.38-.67,2.43,2.43,0,0,0,.55-1.6V98.39h1.38Zm5.57.24a3.17,3.17,0,0,1-1.48-.35,2.55,2.55,0,0,1-1-.91h-.06v1h-1.32V95h1.38v3.39l-.06,1h.06a2.57,2.57,0,0,1,1-.92,3.28,3.28,0,0,1,3.94.8,4,4,0,0,1,1,2.77,4,4,0,0,1-1,2.77A3.13,3.13,0,0,1,145.22,106Zm-.23-1.26a2.16,2.16,0,0,0,1.67-.75,3,3,0,0,0,0-3.81,2.25,2.25,0,0,0-3.35,0,2.76,2.76,0,0,0-.66,1.9,2.8,2.8,0,0,0,.66,1.92A2.19,2.19,0,0,0,145,104.72Z"/></svg>