<svg xmlns="http://www.w3.org/2000/svg" width="200" height="128">
    <path d="M123.32 42.32a23.32 23.32 0 10-46.64 0c0 12.21 11.14 22.09 23.32 22.09V73c14.18-7.18 23.32-18.75 23.32-30.68z" fill="#00897b"/>
    <path d="M100 19.31a23.34 23.34 0 0123.32 23.16v-.15a23.32 23.32 0 10-46.64 0v.15A23.32 23.32 0 01100 19.31z" style="isolation:isolate" opacity=".2" fill="#fff"/>
    <path d="M100 72.69V73c14.18-7.18 23.32-18.75 23.32-30.68v-.15C123.23 54 114.11 65.54 100 72.69zm0-8.59c-12.15 0-23.23-9.82-23.32-21.93v.15c0 12.21 11.14 22.09 23.32 22.09z" style="isolation:isolate" fill="#263238" opacity=".2"/>
    <path d="M123 45.74l-13-13.09a12.07 12.07 0 011.08 1.35l-7.77-3.68h-6.5l-5.34 3.22-3.07 4-.24 6.54 2.27 7 17.22 17.23c8.56-6.16 14.17-14.17 15.35-22.57z" opacity=".07"/>
    <path d="M100.06 28.51a13.51 13.51 0 015.4 1 13.14 13.14 0 014.27 2.82 13 13 0 013.8 9.23 11.4 11.4 0 01-.34 2.79 6.58 6.58 0 01-1 2.28 5 5 0 01-1.69 1.53 4.72 4.72 0 01-2.33.55 4.27 4.27 0 01-2.33-.64 4.5 4.5 0 01-1.63-1.88 5.33 5.33 0 01-4.78 2.52 6.57 6.57 0 01-2.61-.52 6.81 6.81 0 01-2.12-1.44 7 7 0 01-1.44-2.21 7.58 7.58 0 01-.52-2.82 7.66 7.66 0 01.52-2.83 7 7 0 011.44-2.21 6.35 6.35 0 012.09-1.44 6.23 6.23 0 012.48-.52 5.23 5.23 0 012.34.52 5.42 5.42 0 011.71 1.35h.22v-1.33h2.91v8.62a2.69 2.69 0 00.46 1.51 1.64 1.64 0 001.45.7 1.55 1.55 0 001.1-.4 3 3 0 00.71-1.07 5.56 5.56 0 00.36-1.47 15.48 15.48 0 00.1-1.63 10.3 10.3 0 00-.8-4 11 11 0 00-2.21-3.28 10.61 10.61 0 00-7.55-3.07 11 11 0 00-4.14.8 10.58 10.58 0 00-5.59 13.81 9.7 9.7 0 002.31 3.28 10.64 10.64 0 007.39 3 9.24 9.24 0 004.47-1.06l1.07 2.7a13.25 13.25 0 01-5.52 1.17 13.76 13.76 0 01-5.43-1 13.27 13.27 0 01-4.3-2.87 12.91 12.91 0 01-3.83-9.29 13 13 0 013.83-9.33 12.84 12.84 0 014.3-2.82 13.45 13.45 0 015.43-1.05zm-.43 17.31a4 4 0 002.67-1 3.08 3.08 0 00.83-1.22 4.28 4.28 0 00.31-1.69 4.21 4.21 0 00-.31-1.69 4.1 4.1 0 00-.83-1.23 3.95 3.95 0 00-5.34 0 3.3 3.3 0 00-.83 1.26 4.72 4.72 0 000 3.31 4 4 0 00.87 1.21 3.4 3.4 0 001.23.77 4 4 0 001.4.28z" fill="#f5f5f5"/>
    <path d="M81.09 89.59a6.7 6.7 0 01-3.33-.89 6.46 6.46 0 01-2.45-8.91 6.54 6.54 0 012.45-2.42 6.61 6.61 0 013.33-.9 6.32 6.32 0 014.49 1.81l-1.26 1.27a4.56 4.56 0 00-3.23-1.28 4.51 4.51 0 00-3.35 1.39 4.87 4.87 0 000 6.75 4.82 4.82 0 006.23.46 3.78 3.78 0 001.41-2.64h-4.29v-1.79h6a6.13 6.13 0 01.1 1.12 5.76 5.76 0 01-1.73 4.37 6.11 6.11 0 01-4.37 1.66zm15.25-4.22a4.18 4.18 0 11-1.24-3 4 4 0 011.24 3zm-6.63 0a2.55 2.55 0 00.69 1.82 2.3 2.3 0 003.38 0 2.56 2.56 0 00.7-1.82 2.48 2.48 0 00-.69-1.82 2.31 2.31 0 00-3.39 0 2.48 2.48 0 00-.69 1.82zm15.87 0a4.17 4.17 0 11-1.23-3 4 4 0 011.23 3zm-6.62 0a2.55 2.55 0 00.69 1.82 2.23 2.23 0 001.69.74 2.19 2.19 0 001.68-.74 2.57 2.57 0 00.71-1.82 2.48 2.48 0 00-.69-1.82 2.31 2.31 0 00-3.39 0 2.48 2.48 0 00-.65 1.82zm11.47 8a4.18 4.18 0 01-2.28-.7 4 4 0 01-.85-.78 4.38 4.38 0 01-.61-1l1.61-.67a2.71 2.71 0 00.85 1.09 2.15 2.15 0 001.28.41c1.51 0 2.26-.88 2.26-2.65v-.44h-.07a2.72 2.72 0 01-2.22 1 3.91 3.91 0 01-2.85-1.23 4.13 4.13 0 01-1.2-3 4.18 4.18 0 011.2-3 3.85 3.85 0 012.85-1.24 2.74 2.74 0 012.22.94h.07v-.7h1.76V89a4.6 4.6 0 01-1.07 3.25 3.84 3.84 0 01-2.95 1.14zm-2.22-8a2.56 2.56 0 00.67 1.8 2.22 2.22 0 001.68.74 2.09 2.09 0 001.6-.72 2.87 2.87 0 000-3.66 2 2 0 00-1.6-.74 2.2 2.2 0 00-1.66.75 2.57 2.57 0 00-.69 1.85zm7.52-8.47h1.85v12.44h-1.85zm6.94 12.67a4 4 0 01-3-1.21 4.13 4.13 0 01-1.2-3 4.25 4.25 0 011.14-3 3.76 3.76 0 012.84-1.2 3.53 3.53 0 012.21.74 4.24 4.24 0 01.83.86 4.67 4.67 0 01.58 1.08l.19.48-5.65 2.34a2.17 2.17 0 002 1.28 2.39 2.39 0 002.08-1.17l1.44 1a4 4 0 01-3.46 1.82zm-.14-6.81a2.16 2.16 0 00-1.57.7 2.31 2.31 0 00-.64 1.76l3.78-1.57a1.32 1.32 0 00-.6-.64 1.85 1.85 0 00-.97-.23zm-69 23h-1.35V95h1.38v4.6h5.37V95h1.38v10.74h-1.38v-4.85h-5.37zm11.27-7.61a3.43 3.43 0 012.41.81 2.93 2.93 0 01.89 2.25v4.53h-1.32v-1h-.06a2.63 2.63 0 01-2.28 1.26 3 3 0 01-2-.73 2.27 2.27 0 01-.81-1.79 2.18 2.18 0 01.86-1.82 3.62 3.62 0 012.3-.67 4.09 4.09 0 012 .45v-.32a1.56 1.56 0 00-.57-1.22 1.94 1.94 0 00-1.34-.5 2.11 2.11 0 00-1.83 1l-1.21-.77a3.38 3.38 0 012.96-1.48zm-1.8 5.34a1.09 1.09 0 00.46.9 1.73 1.73 0 001.07.36 2.19 2.19 0 001.55-.65 2 2 0 00.69-1.52 2.9 2.9 0 00-1.8-.5 2.37 2.37 0 00-1.41.4 1.22 1.22 0 00-.56 1.01zm6.65-5.1H71v1a2.49 2.49 0 011-.91 2.9 2.9 0 011.36-.35 2.71 2.71 0 012.08.77 3.1 3.1 0 01.73 2.2v4.62h-1.38v-4.53A1.62 1.62 0 0073 99.41a1.73 1.73 0 00-1.38.66 2.43 2.43 0 00-.55 1.6v4.07h-1.41zM81 109.22a4.33 4.33 0 01-1.16-.16 3.8 3.8 0 01-1-.44 3.33 3.33 0 01-.76-.68 2.85 2.85 0 01-.48-.87l1.31-.54a2.08 2.08 0 00.78 1A2.19 2.19 0 0081 108a2.27 2.27 0 001.75-.68 2.62 2.62 0 00.63-1.86v-.7h-.06a2.72 2.72 0 01-1.06.92 3.18 3.18 0 01-1.44.34 3.26 3.26 0 01-2.48-1.13 4.07 4.07 0 01-1-2.79 4 4 0 011-2.77 3.24 3.24 0 012.48-1.14 3.17 3.17 0 011.44.33 2.74 2.74 0 011.06.93h.06v-1h1.32v7a3.76 3.76 0 01-1 2.78 3.65 3.65 0 01-2.7.99zm0-4.5a2.13 2.13 0 001.67-.74 3.06 3.06 0 000-3.82 2.22 2.22 0 00-3.33 0 3 3 0 000 3.81 2.14 2.14 0 001.66.75zm4.85-2.66a3.91 3.91 0 011.06-2.81 3.67 3.67 0 012.72-1.1 3.61 3.61 0 012.7 1.1 3.89 3.89 0 011.08 2.81 3.84 3.84 0 01-1.08 2.81 3.58 3.58 0 01-2.7 1.11 3.64 3.64 0 01-2.72-1.11 3.91 3.91 0 01-1.05-2.81zm1.38 0a2.69 2.69 0 00.69 1.92 2.35 2.35 0 003.42 0 2.69 2.69 0 00.69-1.92 2.66 2.66 0 00-.69-1.9 2.32 2.32 0 00-3.42 0 2.66 2.66 0 00-.68 1.9zm13.81 3.68h-1.31v-1h-.06a2.43 2.43 0 01-1 .9 2.76 2.76 0 01-1.35.36 2.7 2.7 0 01-2.08-.78 3 3 0 01-.73-2.2v-4.63h1.38v4.53a1.63 1.63 0 001.82 1.8 1.74 1.74 0 001.38-.67 2.48 2.48 0 00.55-1.6v-4.06h1.38zm4.67.12a2.13 2.13 0 01-1.5-.56 2 2 0 01-.6-1.55v-4.1h-1.29v-1.26h1.29v-2.25H105v2.25h1.8v1.26H105v3.66a1.32 1.32 0 00.28 1 .92.92 0 00.65.27 1.75 1.75 0 00.32 0l.29-.1.44 1.23a3.7 3.7 0 01-1.26.15zm8.17-2.16a2 2 0 01-.84 1.62 3.64 3.64 0 01-4.06.08 3.25 3.25 0 01-1.2-1.52l1.23-.53a2.34 2.34 0 00.78 1 2 2 0 001.14.37 2 2 0 001.1-.29.81.81 0 00.44-.67c0-.47-.36-.82-1.08-1l-1.26-.31c-1.43-.36-2.14-1-2.14-2.07a1.94 1.94 0 01.81-1.62 3.48 3.48 0 012.1-.6 3.4 3.4 0 011.76.46 2.56 2.56 0 011.1 1.25l-1.23.51a1.55 1.55 0 00-.68-.73 2.11 2.11 0 00-1.06-.26 1.79 1.79 0 00-1 .27.78.78 0 00-.42.66c0 .42.39.72 1.18.9l1.11.28c1.5.35 2.23 1.08 2.23 2.2zm9.49 2.28a5.67 5.67 0 01-4-9.6 5.32 5.32 0 014-1.63 5 5 0 014 1.76l-1 1a3.67 3.67 0 00-3-1.39 4 4 0 00-3 1.2 4.61 4.61 0 000 6.18 4 4 0 003 1.2 4.22 4.22 0 003.26-1.58l1 1a5.24 5.24 0 01-1.88 1.41 5.67 5.67 0 01-2.37.47zm5.5-11h1.38v3.39l-.06 1h.06a2.49 2.49 0 011-.91 2.9 2.9 0 011.36-.35 2.71 2.71 0 012.08.77 3.1 3.1 0 01.73 2.2v4.62H134v-4.35c0-1.32-.59-2-1.76-2a1.79 1.79 0 00-1.42.69 2.51 2.51 0 00-.57 1.63v4h-1.38zm10.84 3.15a3.43 3.43 0 012.41.81 2.93 2.93 0 01.89 2.25v4.53h-1.31v-1h-.06a2.63 2.63 0 01-2.28 1.26 2.91 2.91 0 01-2-.73 2.25 2.25 0 01-.82-1.79 2.21 2.21 0 01.86-1.82 3.64 3.64 0 012.3-.67 4.09 4.09 0 012 .45v-.32a1.56 1.56 0 00-.57-1.22 1.94 1.94 0 00-1.34-.5 2.12 2.12 0 00-1.83 1l-1.21-.77a3.38 3.38 0 012.97-1.46zm-1.78 5.34a1.11 1.11 0 00.45.9 1.75 1.75 0 001.07.36 2.23 2.23 0 001.56-.65 2 2 0 00.68-1.52 2.9 2.9 0 00-1.8-.5 2.32 2.32 0 00-1.4.4 1.2 1.2 0 00-.55 1.03zm9.4 2.37a2.09 2.09 0 01-1.49-.56 2 2 0 01-.61-1.55v-4.1H144v-1.24h1.29v-2.25h1.38v2.25h1.8v1.26h-1.8v3.66a1.32 1.32 0 00.28 1 .92.92 0 00.65.27 1.65 1.65 0 00.32 0l.3-.1.43 1.23a3.7 3.7 0 01-1.31.15z" fill="#767676"/>
</svg>
