<svg xmlns="http://www.w3.org/2000/svg" width="200" height="128"><defs><style>.cls-1{fill:#4285f4;}.cls-2{opacity:0.07;isolation:isolate;}.cls-3{fill:#fff;}.cls-4{fill:#767676;}</style></defs><path class="cls-1" d="M126.36,43.52l-11.1-19.3a4.88,4.88,0,0,0-4.16-2.48H88.9a4.86,4.86,0,0,0-4.16,2.48L73.64,43.48a4.87,4.87,0,0,0,0,4.82l11.1,19.39a5,5,0,0,0,4.16,2.57h22.2a4.94,4.94,0,0,0,4.16-2.56l11.1-19.3A5,5,0,0,0,126.36,43.52Z"/><path class="cls-2" d="M106.39,34.82,104,37.52l-2.7-2.7L99.15,37.7l-2.88-2.88-2.7,4.47-4.75,3L92,45.44l-3.16,1.89,2.76,2.76-2.76,2.3,17.87,17.87h4.41a4.94,4.94,0,0,0,4.16-2.56L124,52.46Z"/><path class="cls-3" d="M93.79,43.29a.41.41,0,0,1-.41-.41.42.42,0,0,1,.36-.42l2.55-.34a.41.41,0,0,1,.11.82l-2.55.35Z"/><rect class="cls-3" x="98.93" y="40.85" width="0.83" height="4.83" transform="translate(27.43 124.31) rotate(-71.95)"/><path class="cls-3" d="M96.79,42.77a.41.41,0,0,1-.42-.41.5.5,0,0,1,0-.12l.93-3.15a.41.41,0,0,1,.51-.28.42.42,0,0,1,.28.52h0l-.93,3.15A.41.41,0,0,1,96.79,42.77Z"/><path class="cls-3" d="M102.47,44.32a.41.41,0,0,1-.42-.41.37.37,0,0,1,0-.15l1.86-4.7a.41.41,0,1,1,.77.3h0l-1.86,4.7A.4.4,0,0,1,102.47,44.32Z"/><rect class="cls-3" x="92.54" y="49.19" width="5.58" height="0.83" transform="translate(-10.12 70.33) rotate(-38.61)"/><rect class="cls-3" x="104.01" y="42.8" width="0.83" height="4.39" transform="translate(21.46 122.74) rotate(-66.45)"/><rect class="cls-3" x="103.77" y="47.71" width="0.83" height="4.92" transform="translate(-3.78 91.59) rotate(-46.7)"/><rect class="cls-3" x="96.78" y="42.59" width="0.83" height="4.5" transform="translate(-6.98 20.25) rotate(-11.48)"/><rect class="cls-3" x="97.17" y="45.59" width="6.05" height="0.83" transform="translate(-5.44 77.59) rotate(-41.31)"/><rect class="cls-3" x="100.19" y="45.8" width="4.42" height="0.83" transform="translate(49.89 145.53) rotate(-86.42)"/><circle class="cls-3" cx="97.71" cy="47.94" r="1.51"/><circle class="cls-3" cx="102.53" cy="44.11" r="1.79"/><circle class="cls-3" cx="102.52" cy="48.74" r="0.94"/><circle class="cls-3" cx="96.63" cy="42.23" r="1.1"/><path class="cls-3" d="M103.73,34.82v2.66H101.3V34.82H98.69v2.66H96.27V34.82H93.61v2.66a2.3,2.3,0,0,0-2.13,2.13H88.82v2.66h2.66v2.4H88.82v2.66h2.66v2.4H88.82v2.66h2.66a2.3,2.3,0,0,0,2.13,2.13v2.66h2.66V54.52h2.42v2.66h2.61V54.52h2.43v2.66h2.66V54.52a2.3,2.3,0,0,0,2.13-2.13h2.66V49.73h-2.66v-2.4h2.66V44.67h-2.66v-2.4h2.66V39.61h-2.66a2.3,2.3,0,0,0-2.13-2.13V34.82Zm1.71,17H94.56a.42.42,0,0,1-.42-.42V40.56a.42.42,0,0,1,.42-.42h10.88a.42.42,0,0,1,.42.42V51.44A.42.42,0,0,1,105.44,51.86Z"/><path class="cls-4" d="M81.09,89.59a6.7,6.7,0,0,1-3.33-.89,6.46,6.46,0,0,1-2.45-8.91,6.54,6.54,0,0,1,2.45-2.42,6.61,6.61,0,0,1,3.33-.9,6.32,6.32,0,0,1,4.49,1.81l-1.26,1.27a4.56,4.56,0,0,0-3.23-1.28,4.51,4.51,0,0,0-3.35,1.39,4.87,4.87,0,0,0,0,6.75,4.82,4.82,0,0,0,6.23.46,3.78,3.78,0,0,0,1.41-2.64H81.09V82.44h6a6.13,6.13,0,0,1,.1,1.12,5.76,5.76,0,0,1-1.73,4.37A6.11,6.11,0,0,1,81.09,89.59Zm15.25-4.22a4.18,4.18,0,1,1-1.24-3A4,4,0,0,1,96.34,85.37Zm-6.63,0a2.55,2.55,0,0,0,.69,1.82,2.3,2.3,0,0,0,3.38,0,2.56,2.56,0,0,0,.7-1.82,2.48,2.48,0,0,0-.69-1.82,2.31,2.31,0,0,0-3.39,0A2.48,2.48,0,0,0,89.71,85.37Zm15.87,0a4.17,4.17,0,1,1-1.23-3A4,4,0,0,1,105.58,85.37Zm-6.62,0a2.55,2.55,0,0,0,.69,1.82,2.23,2.23,0,0,0,1.69.74,2.19,2.19,0,0,0,1.68-.74,2.57,2.57,0,0,0,.71-1.82,2.48,2.48,0,0,0-.69-1.82,2.31,2.31,0,0,0-3.39,0A2.48,2.48,0,0,0,99,85.37Zm11.47,8a4.18,4.18,0,0,1-2.28-.7,4,4,0,0,1-.85-.78,4.38,4.38,0,0,1-.61-1l1.61-.67a2.71,2.71,0,0,0,.85,1.09,2.15,2.15,0,0,0,1.28.41c1.51,0,2.26-.88,2.26-2.65v-.44h-.07a2.72,2.72,0,0,1-2.22,1,3.91,3.91,0,0,1-2.85-1.23,4.13,4.13,0,0,1-1.2-3,4.18,4.18,0,0,1,1.2-3,3.85,3.85,0,0,1,2.85-1.24,2.74,2.74,0,0,1,2.22.94h.07V81.4h1.76V89a4.6,4.6,0,0,1-1.07,3.25A3.84,3.84,0,0,1,110.43,93.39Zm-2.22-8a2.56,2.56,0,0,0,.67,1.8,2.22,2.22,0,0,0,1.68.74,2.09,2.09,0,0,0,1.6-.72,2.87,2.87,0,0,0,0-3.66,2,2,0,0,0-1.6-.74,2.2,2.2,0,0,0-1.66.75A2.57,2.57,0,0,0,108.21,85.39Zm7.52-8.47h1.85V89.34h-1.85Zm6.94,12.67a4,4,0,0,1-3-1.21,4.13,4.13,0,0,1-1.2-3,4.25,4.25,0,0,1,1.14-3,3.76,3.76,0,0,1,2.84-1.2,3.53,3.53,0,0,1,2.21.74,4.24,4.24,0,0,1,.83.86,4.67,4.67,0,0,1,.58,1.08l.19.48-5.65,2.34a2.17,2.17,0,0,0,2,1.28,2.39,2.39,0,0,0,2.08-1.17l1.44,1A4,4,0,0,1,122.67,89.59Zm-.14-6.81a2.16,2.16,0,0,0-1.57.7,2.31,2.31,0,0,0-.64,1.76l3.78-1.57a1.32,1.32,0,0,0-.6-.64A1.85,1.85,0,0,0,122.53,82.78ZM72.29,106a5.67,5.67,0,0,1-4-9.6,5.32,5.32,0,0,1,4-1.63,5,5,0,0,1,3.95,1.76l-1,1a3.66,3.66,0,0,0-3-1.39,4,4,0,0,0-3,1.2,4.61,4.61,0,0,0,0,6.18,4,4,0,0,0,3,1.2,4.22,4.22,0,0,0,3.26-1.58l1,1a5.24,5.24,0,0,1-1.88,1.41A5.63,5.63,0,0,1,72.29,106Zm6.88-11v10.74H77.79V95Zm1.18,7.06a3.92,3.92,0,0,1,1.07-2.81,3.65,3.65,0,0,1,2.71-1.1,3.61,3.61,0,0,1,2.7,1.1,3.89,3.89,0,0,1,1.08,2.81,3.84,3.84,0,0,1-1.08,2.81,3.58,3.58,0,0,1-2.7,1.11,3.62,3.62,0,0,1-2.71-1.11A3.92,3.92,0,0,1,80.35,102.06Zm1.38,0a2.69,2.69,0,0,0,.69,1.92,2.35,2.35,0,0,0,3.42,0,2.69,2.69,0,0,0,.69-1.92,2.66,2.66,0,0,0-.69-1.9,2.32,2.32,0,0,0-3.42,0A2.66,2.66,0,0,0,81.73,102.06Zm13.82,3.68H94.23v-1h-.06a2.5,2.5,0,0,1-1,.9,2.8,2.8,0,0,1-1.36.36,2.71,2.71,0,0,1-2.08-.78A3.09,3.09,0,0,1,89,103V98.39h1.38v4.53a1.62,1.62,0,0,0,1.81,1.8,1.74,1.74,0,0,0,1.38-.67,2.44,2.44,0,0,0,.56-1.6V98.39h1.38Zm4.68.24a3.22,3.22,0,0,1-2.48-1.15,4.27,4.27,0,0,1,0-5.54,3.24,3.24,0,0,1,2.48-1.14,3.12,3.12,0,0,1,1.47.34,2.57,2.57,0,0,1,1,.92h.06l-.06-1V95h1.38v10.74h-1.32v-1h-.06a2.55,2.55,0,0,1-1,.91A3.13,3.13,0,0,1,100.23,106Zm.22-1.26a2.13,2.13,0,0,0,1.67-.74,3.06,3.06,0,0,0,0-3.82,2.22,2.22,0,0,0-3.33,0,3,3,0,0,0,0,3.81A2.14,2.14,0,0,0,100.45,104.72Zm11.94-8.4v9.42H111V96.32h-3V95h7.38v1.32Zm5.82,5.07v4.35h-1.38V95h3.66a3.31,3.31,0,0,1,2.37.93,3.1,3.1,0,0,1,0,4.54,3.31,3.31,0,0,1-2.37.92Zm0-5.07v3.75h2.31a1.84,1.84,0,0,0,1.37-.56,1.8,1.8,0,0,0,.55-1.32,1.77,1.77,0,0,0-.55-1.3,1.81,1.81,0,0,0-1.37-.57ZM129,106a3.8,3.8,0,0,1-2.88-1.17,4.27,4.27,0,0,1-1.1-3.06V95h1.38v6.81a3,3,0,0,0,.69,2.08,2.74,2.74,0,0,0,3.81,0,3,3,0,0,0,.69-2.08V95H133v6.75a4.27,4.27,0,0,1-1.08,3.08A3.76,3.76,0,0,1,129,106Z"/></svg>