<svg xmlns="http://www.w3.org/2000/svg" width="200" height="128">
    <path fill="#767676" d="M124.75 86.76a2.39 2.39 0 01-2.08 1.17 2.17 2.17 0 01-2-1.28l5.65-2.34-.19-.48a4.67 4.67 0 00-.58-1.08 4.24 4.24 0 00-.83-.86 3.53 3.53 0 00-2.21-.74 3.76 3.76 0 00-2.84 1.2 4.25 4.25 0 00-1.14 3 4.13 4.13 0 001.2 3 4.27 4.27 0 006.51-.66zM121 83.48a2.16 2.16 0 011.57-.7 1.85 1.85 0 011 .25 1.32 1.32 0 01.6.64l-3.78 1.57a2.31 2.31 0 01.61-1.76zM101.34 89.59a4.18 4.18 0 10-3-1.21 4.08 4.08 0 003 1.21zm-1.69-6a2.31 2.31 0 013.39 0 2.48 2.48 0 01.69 1.82 2.57 2.57 0 01-.71 1.82 2.19 2.19 0 01-1.68.74 2.23 2.23 0 01-1.69-.74 2.55 2.55 0 01-.65-1.86 2.48 2.48 0 01.65-1.82zM92.1 89.59a4.18 4.18 0 004.24-4.22 4 4 0 00-1.24-3 4.25 4.25 0 10-3 7.23zm-1.7-6a2.31 2.31 0 013.39 0 2.48 2.48 0 01.69 1.82 2.56 2.56 0 01-.7 1.82 2.3 2.3 0 01-3.38 0 2.55 2.55 0 01-.69-1.82 2.48 2.48 0 01.69-1.86zM87.12 82.44h-6v1.79h4.29A3.78 3.78 0 0184 86.87a4.82 4.82 0 01-6.23-.46 4.87 4.87 0 010-6.75 4.51 4.51 0 013.35-1.39 4.56 4.56 0 013.23 1.28l1.26-1.27a6.32 6.32 0 00-4.49-1.81 6.61 6.61 0 00-3.33.9 6.54 6.54 0 00-2.45 2.42 6.36 6.36 0 00-.91 3.21 6.47 6.47 0 003.33 5.67 6.7 6.7 0 003.33.89 6.11 6.11 0 004.4-1.66 5.76 5.76 0 001.73-4.37 6.13 6.13 0 00-.1-1.09zM112.69 82.09h-.07a2.74 2.74 0 00-2.22-.94 3.85 3.85 0 00-2.85 1.24 4.18 4.18 0 00-1.2 3 4.13 4.13 0 001.2 3 3.91 3.91 0 002.85 1.23 2.72 2.72 0 002.22-1h.07v.44c0 1.77-.75 2.65-2.26 2.65a2.15 2.15 0 01-1.28-.41 2.71 2.71 0 01-.85-1.09l-1.61.67a4.38 4.38 0 00.61 1 4 4 0 00.85.78 4.18 4.18 0 002.28.7 3.84 3.84 0 002.95-1.15 4.6 4.6 0 001.07-3.21v-7.6h-1.76zm-.53 5.12a2.09 2.09 0 01-1.6.72 2.22 2.22 0 01-1.68-.74 2.76 2.76 0 010-3.63 2.2 2.2 0 011.66-.75 2 2 0 011.6.74 2.87 2.87 0 010 3.66zM115.73 76.92h1.86v12.42h-1.86zM47.6 95.06V95h-1.78l-4.72 5.53h-.06V95h-1.38v10.73h1.38v-3.1l1.65-1.9 3.49 5h1.7v-.05l-4.26-6.02 3.98-4.6zM53.52 102.44A2.51 2.51 0 0153 104a1.7 1.7 0 01-1.4.69c-1.21 0-1.81-.69-1.81-2.06v-4.24h-1.4v4.5a3.34 3.34 0 00.71 2.25 2.58 2.58 0 002.09.84 2.79 2.79 0 001.37-.37 2.6 2.6 0 001-.89h.06v1h1.28v-7.33h-1.38zM60.46 98.15a3.26 3.26 0 00-1.46.35 2.58 2.58 0 00-1 .91h-.1l.06-1V95h-1.38v10.74h1.32v-1h.1a2.56 2.56 0 001 .9 3.15 3.15 0 001.51.36 3.24 3.24 0 002.46-1.13 4.26 4.26 0 000-5.58 3.23 3.23 0 00-2.51-1.14zm1.43 5.85a2.25 2.25 0 01-3.31 0 3.11 3.11 0 010-3.88 2.27 2.27 0 013.31 0 3 3 0 010 3.86zM68.4 98.15a3.28 3.28 0 00-2.59 1.15 4 4 0 00-1 2.76 3.94 3.94 0 001 2.81 3.54 3.54 0 002.74 1.13 3.46 3.46 0 002-.58 3.33 3.33 0 001.21-1.42l-1.23-.51a2 2 0 01-2 1.26 2.25 2.25 0 01-1.6-.65 2.46 2.46 0 01-.74-1.75H72v-.26a4 4 0 00-1-2.85 3.36 3.36 0 00-2.6-1.09zm-2.13 3a2.42 2.42 0 01.73-1.26 2 2 0 011.33-.48A2.06 2.06 0 0170 100a2 2 0 01.58 1.2zM75.5 98.6a1.87 1.87 0 00-.86 1h-.06v-1.21h-1.32v7.35h1.38v-4a2.17 2.17 0 01.57-1.56 1.83 1.83 0 011.33-.59 2.1 2.1 0 01.74.11l.52-1.29a2.6 2.6 0 00-1-.18 2.37 2.37 0 00-1.3.37zM82.41 98.15a2.79 2.79 0 00-1.38.36 2.51 2.51 0 00-1 .9H80v-1h-1.3v7.35h1.38v-4.07a2.46 2.46 0 01.54-1.58 1.69 1.69 0 011.4-.68c1.21 0 1.81.68 1.81 2v4.29h1.38v-4.5a3.34 3.34 0 00-.72-2.22 2.58 2.58 0 00-2.08-.85zM90 98.15a3.29 3.29 0 00-2.59 1.15 4.07 4.07 0 00-1 2.76 4 4 0 001 2.81 3.56 3.56 0 002.75 1.13 3.5 3.5 0 002-.58 3.38 3.38 0 001.21-1.42l-1.23-.51a2 2 0 01-2 1.26 2.27 2.27 0 01-1.6-.65 2.5 2.5 0 01-.74-1.75h5.8v-.26a4.06 4.06 0 00-1-2.85 3.4 3.4 0 00-2.6-1.09zm-2.13 3a2.48 2.48 0 01.77-1.29 2 2 0 011.36-.45 2 2 0 011.58.57 1.91 1.91 0 01.58 1.2zM97.83 104.6c-.66 0-1-.4-1-1.2v-3.75h1.81v-1.26h-1.81v-2.25h-1.37v2.25h-1.29v1.26h1.29v3.85a2.13 2.13 0 002.37 2.36 2.79 2.79 0 001.11-.2l-.48-1.18a1.48 1.48 0 01-.63.12zM103.06 98.15a3.29 3.29 0 00-2.59 1.15 4.07 4.07 0 00-1 2.76 4 4 0 001 2.81 3.56 3.56 0 002.71 1.11 3.5 3.5 0 002-.58 3.3 3.3 0 001.18-1.43l-1.23-.51a2 2 0 01-2 1.26 2.27 2.27 0 01-1.6-.65 2.5 2.5 0 01-.74-1.75h5.81v-.26a4.06 4.06 0 00-1-2.85 3.4 3.4 0 00-2.54-1.06zm-2.13 3a2.48 2.48 0 01.77-1.29 2 2 0 011.33-.48 2 2 0 011.58.57 1.91 1.91 0 01.58 1.2zM111.6 101.52l-1.46-.34c-.65-.15-1-.44-1-.86a.78.78 0 01.42-.69 1.94 1.94 0 011-.25 1.63 1.63 0 011.68 1l1.2-.49a2.47 2.47 0 00-1.09-1.27 3.36 3.36 0 00-1.74-.44 3.49 3.49 0 00-2 .6 1.86 1.86 0 00-.86 1.58 1.63 1.63 0 00.63 1.36 3.61 3.61 0 001.33.69l1.49.36c.67.17 1 .49 1 1a.88.88 0 01-.41.75 1.84 1.84 0 01-1.06.29 2 2 0 01-2-1.38l-1.23.51a3.57 3.57 0 001.17 1.5 3.33 3.33 0 002 .6 3.24 3.24 0 002.08-.66 2 2 0 00.81-1.65 2 2 0 00-.49-1.32 2.75 2.75 0 00-1.47-.89zM118.36 105.73h6.27v-1.31h-4.89v-3.41h4.41v-1.29h-4.41v-3.41h4.89V95h-6.27v10.73zM129.8 98.15a2.79 2.79 0 00-1.38.36 2.48 2.48 0 00-.94.9h-.06v-1h-1.32v7.35h1.38v-4.07a2.46 2.46 0 01.54-1.58 1.67 1.67 0 011.39-.68c1.21 0 1.82.68 1.82 2v4.29h1.38v-4.5a3.34 3.34 0 00-.72-2.25 2.61 2.61 0 00-2.09-.82zM139.79 99.41h-.06a2.75 2.75 0 00-1-.91 3.14 3.14 0 00-1.48-.35 3.23 3.23 0 00-2.46 1.12 4.26 4.26 0 000 5.58 3.24 3.24 0 002.46 1.13 3 3 0 001.48-.36 2.73 2.73 0 001-.9h.06v.7a2.53 2.53 0 01-.65 1.85 2.34 2.34 0 01-1.79.69 2.13 2.13 0 01-1.28-.41 2.08 2.08 0 01-.78-1l-1.25.53a3.69 3.69 0 001.18 1.49 3.3 3.3 0 002.13.66 3.84 3.84 0 002.67-1 3.64 3.64 0 001.09-2.87v-7h-1.32zm-.68 4.59a2.24 2.24 0 01-3.3 0 3 3 0 010-3.86 2.18 2.18 0 011.65-.72 2.22 2.22 0 011.65.71 3.11 3.11 0 010 3.88zM143.6 94.88a1 1 0 10.69.28.94.94 0 00-.69-.28zM142.91 98.39h1.38v7.35h-1.38zM149.8 98.15a2.79 2.79 0 00-1.38.36 2.51 2.51 0 00-.95.9h-.06v-1h-1.32v7.35h1.38v-4.07a2.46 2.46 0 01.54-1.58 1.69 1.69 0 011.4-.68c1.21 0 1.81.68 1.81 2v4.29h1.38v-4.5a3.34 3.34 0 00-.72-2.25 2.58 2.58 0 00-2.08-.82zM161 102.06a4 4 0 00-1-2.85 3.38 3.38 0 00-2.62-1.06 3.26 3.26 0 00-2.58 1.15 4 4 0 00-1 2.76 4 4 0 001 2.81 3.84 3.84 0 004.73.53 3.3 3.3 0 001.18-1.43l-1.23-.51a2 2 0 01-2 1.26 2.23 2.23 0 01-1.59-.65 2.47 2.47 0 01-.75-1.75H161zm-5.73-.88a2.43 2.43 0 01.78-1.29 2 2 0 011.32-.48 2.09 2.09 0 011.63.59 2 2 0 01.57 1.2z"/>
    <path d="M84.72 67.49L73.65 48.31a4.83 4.83 0 010-4.85l11.07-19.17a4.85 4.85 0 014.2-2.42h22.14a4.85 4.85 0 014.2 2.42l11.07 19.17a4.88 4.88 0 010 4.85l-11.07 19.18a4.85 4.85 0 01-4.2 2.42H88.92a4.85 4.85 0 01-4.2-2.42z" fill="#4285f4"/>
    <path d="M111 39.64c0 .21.07.42.07.62v11.3a1.29 1.29 0 01-.69 1.21l-8.71 5-1.12.65a1.21 1.21 0 01-1.33 0l-8.52-4.93-1.3-.73-.15-.11a1.14 1.14 0 01-.55-1V40.12a1.11 1.11 0 01.58-1l4.26-2.47 5.66-3.27a1.25 1.25 0 011.35 0l9.78 5.62a3.68 3.68 0 01.67.64zm-11.69-4l-.33.17-8.06 4.66a.44.44 0 00-.25.44v9.68c.12-.06.2-.09.28-.14 1-.56 2-1.14 2.93-1.69a.49.49 0 00.29-.5v-4.61-.35l.18.08 4.8 2.77a.36.36 0 01.18.37v5.7l-.15-.07c-1.39-.8-2.77-1.59-4.15-2.4a.47.47 0 00-.57 0l-3 1.73-.18.12.2.14 8.18 4.73a.41.41 0 00.45 0l7.89-4.6.52-.32-.11-.08c-1.07-.61-2.13-1.23-3.2-1.83a.43.43 0 00-.35 0c-1 .54-1.91 1.1-2.87 1.65l-1.52.88v-5.69a.43.43 0 01.24-.42l4.41-2.54.53-.29v5.05a.4.4 0 00.22.4c1 .56 2 1.14 3 1.72l.28.13v-9.74a.35.35 0 00-.21-.35l-8.11-4.69-.29-.14a.74.74 0 000 .18v3.61a.44.44 0 00.21.31c.95.57 1.91 1.11 2.87 1.66l1.5.88-.2.14-4.7 2.72a.47.47 0 01-.55 0l-3.75-2.17-1.14-.67.17-.11Q96.92 41 99 39.76a.47.47 0 00.28-.48v-2.46z" fill="#fefefe"/>
    <path opacity="0.07" d="M88.78 52.18zM111 39.64c0 .21.07.42.07.62v11.3a1.29 1.29 0 01-.69 1.21l-8.71 5-1.12.65a1.21 1.21 0 01-1.33 0l-8.52-4.93c-.41-.24-.83-.47-1.25-.7l17.46 17.09h4.18a4.85 4.85 0 004.2-2.42l8.3-14.39z"/>
</svg>
