<svg viewBox="0 0 3508 2481" xmlns="http://www.w3.org/2000/svg" xml:space="preserve" style="fill-rule:evenodd;clip-rule:evenodd;stroke-linejoin:round;stroke-miterlimit:1.41421">
	<g opacity=".95">
		<path d="M1067.372 1341.838a31.014 31.014 0 0 0 26.116-2.313c14.766-8.534 19.904-27.741 11.38-42.536-8.526-14.795-27.694-19.942-42.46-11.398-14.765 8.534-19.893 27.741-11.369 42.536.03.058.068.116.097.184a28.778 28.778 0 0 0 3.416 4.673 186.7 186.7 0 0 1-68.613 69.02c-88.594 51.253-203.584 20.377-254.732-68.391-51.148-88.778-20.339-204.01 68.255-255.264 88.584-51.244 203.574-20.378 254.722 68.39 2.129 3.697 6.928 4.984 10.615 2.845 3.696-2.138 4.973-6.938 2.844-10.634v-.01c-55.414-96.17-179.984-129.62-275.96-74.089-95.977 55.521-129.36 180.352-73.945 276.522 55.415 96.17 179.984 129.62 275.96 74.1a202.351 202.351 0 0 0 73.674-73.635Zm-173.8-203.962-90.182 51.138V1291.3l90.181 51.147 90.171-51.147v-102.286l-90.17-51.138Zm176.713 161.377c7.383-4.276 16.962-1.703 21.23 5.7 4.257 7.392 1.692 16.99-5.69 21.268-7.383 4.267-16.963 1.693-21.23-5.7-4.267-7.402-1.693-17 5.69-21.268Z"/>
		<path d="M1396.474 1235.314v99.75h-40.988v-24.403c-10.479 19.459-32.676 28.11-58.559 28.11-53.934 0-94.312-40.766-94.312-100.99 0-59.914 43.464-100.989 98.937-100.989 56.392 0 89.378 30.886 93.684 79.992l-45.613 1.539c-2.458-24.393-19.1-40.146-47.152-40.146-32.356 0-51.776 23.474-51.776 59.604 0 37.06 20.039 61.453 55.473 61.453 21.268 0 39.449-10.808 46.232-29.957h-46.532v-33.963h90.606Zm232.06-75.357v37.988h36.373v31.186h-36.372v57.137c0 11.737 5.554 16.672 16.033 16.672 6.783 0 13.866-1.848 22.197-5.554v29.338c-10.18 7.721-21.887 12.046-39.769 12.046-22.187 0-42.216-9.579-42.216-40.455v-69.184h-19.11v-27.17l9.86-1.549c13.565-2.467 17.571-9.57 20.958-22.235l4.625-18.22h27.422Zm1059.257 130.327c2.478 33.353 30.519 48.486 67.5 48.486 37.292 0 61.637-16.062 61.637-44.78 0-26.252-17.252-39.527-47.142-44.162l-26.512-4.635c-6.783-.929-11.099-4.325-11.099-9.879 0-7.412 6.783-12.047 17.882-12.047 16.952 0 26.503 6.793 28.66 18.84l36.673-1.239c-2.778-29.338-25.894-46.629-64.724-46.629-36.662 0-59.778 18.84-59.778 45.39 0 27.18 16.943 37.989 48.38 42.933l20.958 3.396c11.099 1.849 15.414 5.564 15.414 12.357 0 7.412-8.021 11.727-20.039 11.727-16.643 0-27.122-7.402-28.97-20.687l-38.84.929Zm-864.477-23.784c0-42.304-30.19-72.26-73.954-72.26-43.765 0-73.664 29.956-73.664 72.26 0 42.623 29.899 72.27 73.664 72.27s73.954-29.647 73.954-72.27Zm-261.65 0c0-42.304-30.2-72.26-73.964-72.26-43.765 0-73.664 29.956-73.664 72.26 0 42.623 29.9 72.27 73.664 72.27 43.765 0 73.964-29.647 73.964-72.27Zm627.472-126.002v194.566h-44.684v-24.403c-6.463 16.063-22.497 28.11-45.913 28.11-40.378 0-61.027-31.816-61.027-72.271 0-40.146 20.65-72.26 61.027-72.26 23.416 0 39.45 12.046 45.913 28.408v-82.15h44.684Zm319.91 57.447v137.12h-44.384v-137.12h44.384Zm70.267 0v21.307c7.393-15.134 24.045-25.013 44.694-25.013 36.972 0 49.31 25.632 49.31 54.97v85.855h-44.385v-75.047c0-19.768-6.473-30.576-22.806-30.576-17.882 0-26.813 14.204-26.813 35.83v69.793h-44.374v-137.119h44.374Zm-320.21 0v21.307c7.403-15.134 22.498-25.013 43.146-25.013 24.045 0 37.292 11.118 43.155 27.48 7.083-15.433 23.726-27.48 46.223-27.48 37.291 0 48.69 25.942 48.69 54.97v85.855h-44.375v-75.047c0-19.768-4.934-30.576-20.958-30.576-17.262 0-24.964 14.204-24.964 35.83v69.793h-44.684v-75.047c0-19.768-4.935-30.576-21.268-30.576-16.953 0-24.964 14.204-24.964 35.83v69.793h-44.375v-137.119h44.375Zm-301.408-57.447 78.27 194.566h-49.92l-16.642-42.003h-78.28l-16.333 42.003h-46.851l77.67-194.566h52.086ZM1720.69 1266.5c0-22.855 8.94-38.598 28.67-38.598 19.41 0 28.97 15.743 28.97 38.598 0 22.855-9.56 38.607-28.97 38.607-19.73 0-28.67-15.752-28.67-38.607Zm-261.65 0c0-22.855 8.93-38.598 28.66-38.598 19.41 0 28.97 15.743 28.97 38.598 0 22.855-9.56 38.607-28.97 38.607-19.73 0-28.66-15.752-28.66-38.607Zm685.412 1.548c0 22.236-12.637 36.13-30.818 36.13-21.268 0-31.128-15.133-31.128-37.678 0-22.236 9.86-37.369 31.128-37.369 18.181 0 30.818 13.904 30.818 35.83v3.087Zm-188.605-10.189-24.965-63.93h-1.238l-24.955 63.93h51.158Zm553.818-117.36v40.765h-45.303v-40.766h45.303Z"/>
	</g>
</svg>
