<svg width="239" height="121" fill="none" xmlns="http://www.w3.org/2000/svg">
	<path d="M151.593 89.534h-7.789v22.501h-3.895V89.534h-7.788V86h19.4v3.534h.072Z" fill="#17171C"/>
	<path d="M166.954 104.679h-14.063c.505 2.884 2.596 4.327 5.481 4.327 2.019 0 3.966-.938 4.976-2.597l2.957 1.443c-1.587 2.957-4.76 4.543-8.077 4.543-5.121 0-9.087-3.75-9.087-9.375s4.11-9.231 9.087-9.231c5.048 0 8.87 3.606 8.87 9.231-.072.577-.072 1.082-.144 1.659Zm-3.606-3.029c-.361-2.74-2.38-4.328-5.12-4.328-2.741 0-4.76 1.37-5.265 4.328h10.385Z" fill="#17171C"/>
	<path d="M197.244 101.938v10.097h-3.751v-9.881c0-2.884-1.514-4.687-3.894-4.687-2.524-.072-4.183 1.875-4.399 4.471v10.097h-3.75v-9.881c0-2.884-1.515-4.687-3.678-4.687-2.308 0-4.688 1.442-4.688 5.048v9.52h-3.678v-17.67h3.678v2.813c.793-2.019 3.101-3.245 5.553-3.245 2.524 0 4.76 1.298 5.769 3.606 1.587-3.03 4.328-3.606 6.058-3.606 4.4-.072 6.78 2.957 6.78 8.005Z" fill="#17171C"/>
	<path d="M219.095 103.164c0 5.625-3.966 9.303-8.798 9.303-2.524 0-4.976-1.081-6.13-3.101v11.179h-3.678V94.294h3.678v2.668c1.154-2.02 3.75-3.101 6.13-3.101 4.832 0 8.798 3.75 8.798 9.303Zm-3.678.072c0-3.317-2.452-5.841-5.481-5.841-2.956 0-5.625 2.308-5.625 5.841a5.706 5.706 0 0 0 5.625 5.77c3.029 0 5.481-2.452 5.481-5.77Z" fill="#17171C"/>
	<path d="M220.393 103.164c0-5.625 4.255-9.303 9.304-9.303 5.048 0 9.303 3.678 9.303 9.303 0 5.625-4.255 9.303-9.303 9.303-5.049 0-9.304-3.678-9.304-9.303Zm14.857 0c0-3.39-2.596-5.77-5.625-5.77s-5.554 2.38-5.554 5.77c0 3.462 2.525 5.842 5.554 5.842 3.101 0 5.625-2.38 5.625-5.842Z" fill="#17171C"/>
	<path d="M25.602 99.775c-.288 7.067-5.842 12.62-12.837 12.62C5.409 112.395 0 106.482 0 99.27s5.914-13.198 13.126-13.198c3.245 0 6.418 1.37 9.159 3.894l-2.092 2.597c-2.091-1.803-4.543-3.03-6.995-3.03-5.265 0-9.592 4.328-9.592 9.665 0 5.409 4.11 9.591 9.303 9.591 4.688 0 8.366-3.389 9.087-7.861H11.395v-3.1h14.351l-.144 1.947Z" fill="#17171C"/>
	<path d="M37.79 98.044h-1.947a3.878 3.878 0 0 0-3.895 3.894v10.241h-3.461V94.726h2.884v1.443c.938-.938 2.453-1.443 4.111-1.443h3.75l-1.442 3.318Z" fill="#17171C"/>
	<path d="M56.83 112.179h-2.958v-2.236c-2.307 2.236-5.913 3.318-9.591 1.731-2.74-1.226-4.76-3.678-5.265-6.635-1.01-5.625 3.317-10.673 8.87-10.673 2.308 0 4.472.937 5.986 2.452v-2.092h3.03l-.073 17.453Zm-3.535-7.5c.794-3.534-1.875-6.78-5.336-6.78a5.479 5.479 0 0 0-5.481 5.482c0 3.389 2.956 6.057 6.49 5.408 2.02-.288 3.822-1.947 4.327-4.11Z" fill="#17171C"/>
	<path d="M63.897 93.717v1.01h5.553v3.1h-5.553v14.424h-3.462V93.933c0-3.822 2.74-6.13 6.202-6.13h4.183l-1.37 3.317h-2.813c-1.514-.144-2.74 1.082-2.74 2.597Z" fill="#17171C"/>
	<path d="M87.984 112.179h-2.956v-2.236c-2.308 2.236-5.914 3.318-9.592 1.731-2.74-1.226-4.76-3.678-5.265-6.635-1.01-5.625 3.318-10.673 8.87-10.673 2.309 0 4.472.937 5.987 2.452v-2.092h3.028l-.072 17.453Zm-3.606-7.5c.794-3.534-1.875-6.78-5.336-6.78a5.479 5.479 0 0 0-5.481 5.482c0 3.389 2.956 6.057 6.49 5.408 2.092-.288 3.823-1.947 4.327-4.11Z" fill="#17171C"/>
	<path d="M106.663 101.794v10.313h-3.534v-10.313c0-2.164-1.803-3.894-3.894-3.894-2.236 0-3.967 1.73-3.967 3.894v10.313h-3.461v-17.38h2.884v1.514c1.226-1.154 2.957-1.803 4.688-1.803 4.039 0 7.284 3.317 7.284 7.356Z" fill="#17171C"/>
	<path d="M127.217 112.179h-2.957v-2.236c-2.308 2.236-5.914 3.318-9.592 1.731-2.74-1.226-4.76-3.678-5.265-6.635-1.009-5.625 3.318-10.673 8.871-10.673 2.308 0 4.471.937 5.986 2.452v-2.092h3.029l-.072 17.453Zm-3.606-7.5c.793-3.534-1.875-6.78-5.337-6.78a5.479 5.479 0 0 0-5.481 5.482c0 3.389 2.957 6.057 6.491 5.408 2.091-.288 3.822-1.947 4.327-4.11Z" fill="#17171C"/>
	<path d="M79.238 17.692h-1.542A1.71 1.71 0 0 0 76 19.385a1.71 1.71 0 0 0 1.696 1.692h1.542a1.71 1.71 0 0 0 1.696-1.692 1.71 1.71 0 0 0-1.696-1.693ZM110.232 42h-1.542a1.71 1.71 0 0 0-1.696 1.692 1.71 1.71 0 0 0 1.696 1.693h1.542a1.71 1.71 0 0 0 1.696-1.693c-.154-.923-.771-1.692-1.696-1.692Zm-1.388-16a1.71 1.71 0 0 0-1.696-1.692h-5.551A1.71 1.71 0 0 0 99.901 26a1.71 1.71 0 0 0 1.696 1.692h5.551A1.71 1.71 0 0 0 108.844 26Zm53.045-10.461L160.192 6c-.771-3.846-3.546-6-7.247-6H87.257c-2.93 0-4.935 2.462-4.472 5.385l1.85 10.154v.307c.154 1.231-.463 1.692-.925 1.846-.617.308-1.08.77-1.08 1.539a1.71 1.71 0 0 0 1.697 1.692h73.09c3.084.154 5.088-2.308 4.472-5.384Zm-22.205 38.307c-.771-3.692-2.776-5.077-5.243-5.077h-17.424a1.71 1.71 0 0 0-1.696 1.693c0 .923.616 1.538 1.542 1.692.616.154 1.079.77 1.542 2.615l1.85 9.846c.463 2.924 3.392 5.385 6.476 5.385h10.332c3.084 0 5.088-2.462 4.626-5.385l-2.005-10.769Zm-22.976-8.307h19.275c1.696-.308 1.851-1.847 1.542-3.231l-2.467-13.077c-.617-3.385-2.621-4.77-5.243-4.77h-17.27a1.71 1.71 0 0 0-1.696 1.693c0 .923.617 1.538 1.542 1.692.617.154 1.233.923 1.542 2.77l1.85 10c.154.922-.462 1.384-1.079 1.692-.617.154-1.08.769-1.08 1.538a1.71 1.71 0 0 0 1.697 1.693h1.387Z" fill="url(#a)"/>
	<defs>
		<linearGradient id="a" x1="195.047" y1="9.446" x2="95.165" y2="40.321" gradientUnits="userSpaceOnUse">
			<stop stop-color="#FFF100" offset="0%"/>
			<stop offset="1" stop-color="#F05A28"/>
		</linearGradient>
	</defs>
</svg>
