<svg version="1.1" id="Layer_1" xmlns="http://www.w3.org/2000/svg" x="0" y="0" width="237.6" height="144" style="enable-background:new 0 0 237.6 144" xml:space="preserve">
	<style>
		.st0{fill:#1a1a1a}
	</style>
	<path class="st0" d="M14.95 128.29h13.73c-1.01 5.66-5.81 9.74-11.49 9.74-6.64 0-11.85-5.38-11.85-12.25 0-6.81 5.48-12.34 12.21-12.34 3.74 0 6.94 2.09 8.97 3.85l.16.14 2.97-3.66-.14-.13c-3.59-3.35-7.72-5.13-11.96-5.13-9.48 0-17.19 7.75-17.19 17.28 0 9.64 7.39 17.19 16.82 17.19 9.04 0 16.41-7.27 16.78-16.54v-2.57H14.95v4.42z"/>
	<path class="st0" d="M40.78 121.28v-1.64h-4.16v23.05h4.93v-13.83c0-2.63 2-4.46 4.87-4.46h2.78v-4.75h-3.28c-2.08-.01-3.92.58-5.14 1.63z"/>
	<path class="st0" d="M67.89 122.22a11.222 11.222 0 0 0-7.54-2.94c-6.58 0-11.93 5.31-11.93 11.84 0 6.58 5.35 11.93 11.93 11.93 2.84 0 5.52-1.04 7.59-2.94v2.58h4.25v-23.05h-4.3v2.58zm-.59 8.9c0 3.83-3.1 6.95-6.91 6.95s-6.91-3.12-6.91-6.95c0-3.81 3.1-6.91 6.91-6.91s6.91 3.1 6.91 6.91z"/>
	<path class="st0" d="M75.73 118.71v23.98h4.89v-18.66h7.2v-4.39h-7.2v-1.07c0-1.84 1.51-3.33 3.38-3.33h3.83v-4.66H84c-4.87 0-8.27 3.34-8.27 8.13z"/>
	<path class="st0" d="M106.87 122.22a11.232 11.232 0 0 0-7.54-2.95c-6.58 0-11.93 5.31-11.93 11.84 0 6.58 5.35 11.93 11.93 11.93 2.84 0 5.52-1.04 7.59-2.94v2.58h4.25v-23.05h-4.3v2.59zm-7.5 15.85c-3.81 0-6.91-3.12-6.91-6.95 0-3.81 3.1-6.91 6.91-6.91s6.91 3.1 6.91 6.91c0 3.83-3.1 6.95-6.91 6.95z"/>
	<path class="st0" d="M124.52 119.28c-2.13 0-4.21.74-5.91 2.08v-1.72h-4.16v23.05h4.93v-13.61c0-2.69 2.21-4.87 4.92-4.87a4.87 4.87 0 0 1 4.87 4.87v13.61h4.98v-13.61c-.01-5.4-4.32-9.8-9.63-9.8z"/>
	<path class="st0" d="M155.54 122.22a11.232 11.232 0 0 0-7.54-2.95c-6.58 0-11.93 5.31-11.93 11.84 0 6.58 5.35 11.93 11.93 11.93 2.84 0 5.52-1.04 7.59-2.94v2.58h4.25v-23.05h-4.3v2.59zm-.59 8.9c0 3.83-3.1 6.95-6.91 6.95s-6.91-3.12-6.91-6.95c0-3.81 3.1-6.91 6.91-6.91s6.91 3.1 6.91 6.91z"/>
	<path class="st0" d="M178.48 134.37v-24.66h-5.07v24.66c0 5.42 2.5 8.05 7.63 8.05h1.49v-5.07h-1.4c-1.68 0-2.65-1.08-2.65-2.98z"/>
	<path class="st0" d="M196.11 118.57c-6.68 0-12.11 5.43-12.11 12.11s5.43 12.11 12.11 12.11 12.11-5.43 12.11-12.11-5.43-12.11-12.11-12.11zm7.04 12.11c0 3.88-3.16 7.04-7.04 7.04s-7.04-3.16-7.04-7.04 3.16-7.04 7.04-7.04 7.04 3.15 7.04 7.04z"/>
	<path class="st0" d="M229.01 118.94h-6.03l-7.14 7.98v-17.21h-5.07v32.71h5.07v-8.48l1.08-1.27 6.91 9.66.06.09h6.04l-9.74-13.44z"/>
	<path class="st0" d="M231.81 118.94h4.97v23.48h-4.97z"/>
	<path class="st0" d="M234.17 117.57c1.8 0 3.06-1.24 3.06-3.02 0-1.48-1.15-3.02-3.06-3.02-1.58 0-3.02 1.44-3.02 3.02 0 1.69 1.33 3.02 3.02 3.02z"/>
	<linearGradient id="SVGID_1_" gradientUnits="userSpaceOnUse" x1="542.915" y1="723.249" x2="542.915" y2="595.214" gradientTransform="rotate(-8.748 -3581.317 3299.473)">
		<stop offset="0" style="stop-color:#faed1e"/>
		<stop offset="1" style="stop-color:#f15b2b"/>
	</linearGradient>
	<path style="fill:url(#SVGID_1_)" d="m102.59 95.31-8.28 1.28 1.28 8.28 8.28-1.27z"/>
	<linearGradient id="SVGID_2_" gradientUnits="userSpaceOnUse" x1="596.576" y1="723.249" x2="596.576" y2="595.214" gradientTransform="rotate(-8.748 -3581.317 3299.473)">
		<stop offset="0" style="stop-color:#faed1e"/>
		<stop offset="1" style="stop-color:#f15b2b"/>
	</linearGradient>
	<path style="fill:url(#SVGID_2_)" d="m132.49 85.92 36.56-5.63-1.28-8.28-36.55 5.62z"/>
	<linearGradient id="SVGID_3_" gradientUnits="userSpaceOnUse" x1="569.155" y1="723.249" x2="569.155" y2="595.214" gradientTransform="rotate(-8.748 -3581.317 3299.473)">
		<stop offset="0" style="stop-color:#faed1e"/>
		<stop offset="1" style="stop-color:#f15b2b"/>
	</linearGradient>
	<path style="fill:url(#SVGID_3_)" d="m118.25 79.63 1.27 8.28 8.29-1.27-1.28-8.29z"/>
	<linearGradient id="SVGID_4_" gradientUnits="userSpaceOnUse" x1="556.035" y1="723.249" x2="556.035" y2="595.214" gradientTransform="rotate(-8.748 -3581.317 3299.473)">
		<stop offset="0" style="stop-color:#faed1e"/>
		<stop offset="1" style="stop-color:#f15b2b"/>
	</linearGradient>
	<path style="fill:url(#SVGID_4_)" d="m116.84 101.6-1.28-8.28-8.28 1.27 1.27 8.29z"/>
	<linearGradient id="SVGID_5_" gradientUnits="userSpaceOnUse" x1="542.915" y1="723.249" x2="542.915" y2="595.214" gradientTransform="rotate(-8.748 -3581.317 3299.473)">
		<stop offset="0" style="stop-color:#faed1e"/>
		<stop offset="1" style="stop-color:#f15b2b"/>
	</linearGradient>
	<path style="fill:url(#SVGID_5_)" d="m93.59 91.9 8.28-1.27-1.27-8.29-8.28 1.28z"/>
	<linearGradient id="SVGID_6_" gradientUnits="userSpaceOnUse" x1="596.576" y1="723.249" x2="596.576" y2="595.214" gradientTransform="rotate(-8.748 -3581.317 3299.473)">
		<stop offset="0" style="stop-color:#faed1e"/>
		<stop offset="1" style="stop-color:#f15b2b"/>
	</linearGradient>
	<path style="fill:url(#SVGID_6_)" d="m169.77 84.98-36.56 5.62 1.28 8.29 36.55-5.63z"/>
	<linearGradient id="SVGID_7_" gradientUnits="userSpaceOnUse" x1="569.155" y1="723.249" x2="569.155" y2="595.214" gradientTransform="rotate(-8.748 -3581.317 3299.473)">
		<stop offset="0" style="stop-color:#faed1e"/>
		<stop offset="1" style="stop-color:#f15b2b"/>
	</linearGradient>
	<path style="fill:url(#SVGID_7_)" d="m120.25 92.6 1.27 8.28 8.28-1.27-1.27-8.29z"/>
	<linearGradient id="SVGID_8_" gradientUnits="userSpaceOnUse" x1="556.035" y1="723.249" x2="556.035" y2="595.214" gradientTransform="rotate(-8.748 -3581.317 3299.473)">
		<stop offset="0" style="stop-color:#faed1e"/>
		<stop offset="1" style="stop-color:#f15b2b"/>
	</linearGradient>
	<path style="fill:url(#SVGID_8_)" d="m106.56 89.91 8.28-1.28-1.27-8.28-8.29 1.27z"/>
	<linearGradient id="SVGID_9_" gradientUnits="userSpaceOnUse" x1="540.495" y1="720.762" x2="540.495" y2="599.332" gradientTransform="rotate(-8.748 -3581.317 3299.473)">
		<stop offset="0" style="stop-color:#faed1e"/>
		<stop offset="1" style="stop-color:#f15b2b"/>
	</linearGradient>
	<path style="fill:url(#SVGID_9_)" d="m91.6 78.94 3.49-.54L84.9 12.12l-3.5.54z"/>
	<linearGradient id="SVGID_10_" gradientUnits="userSpaceOnUse" x1="545.361" y1="724.13" x2="545.361" y2="593.756" gradientTransform="rotate(-8.748 -3581.317 3299.473)">
		<stop offset="0" style="stop-color:#faed1e"/>
		<stop offset="1" style="stop-color:#f15b2b"/>
	</linearGradient>
	<path style="fill:url(#SVGID_10_)" d="m96.4 78.2 3.5-.54L88.96 6.5l-3.5.54z"/>
	<linearGradient id="SVGID_11_" gradientUnits="userSpaceOnUse" x1="553.668" y1="727.089" x2="553.668" y2="588.856" gradientTransform="rotate(-8.748 -3581.317 3299.473)">
		<stop offset="0" style="stop-color:#faed1e"/>
		<stop offset="1" style="stop-color:#f15b2b"/>
	</linearGradient>
	<path style="fill:url(#SVGID_11_)" d="m104.62 76.93 3.49-.54L96.51.95l-3.5.54z"/>
	<linearGradient id="SVGID_12_" gradientUnits="userSpaceOnUse" x1="558.534" y1="722.492" x2="558.534" y2="596.468" gradientTransform="rotate(-8.748 -3581.317 3299.473)">
		<stop offset="0" style="stop-color:#faed1e"/>
		<stop offset="1" style="stop-color:#f15b2b"/>
	</linearGradient>
	<path style="fill:url(#SVGID_12_)" d="m109.42 76.19 3.5-.54-10.58-68.78-3.5.54z"/>
	<linearGradient id="SVGID_13_" gradientUnits="userSpaceOnUse" x1="566.737" y1="717.193" x2="566.737" y2="605.243" gradientTransform="rotate(-8.748 -3581.317 3299.473)">
		<stop offset="0" style="stop-color:#faed1e"/>
		<stop offset="1" style="stop-color:#f15b2b"/>
	</linearGradient>
	<path style="fill:url(#SVGID_13_)" d="m117.53 74.95 3.5-.54-9.4-61.1-3.5.53z"/>
	<linearGradient id="SVGID_14_" gradientUnits="userSpaceOnUse" x1="571.603" y1="718.808" x2="571.603" y2="602.568" gradientTransform="rotate(-8.748 -3581.317 3299.473)">
		<stop offset="0" style="stop-color:#faed1e"/>
		<stop offset="1" style="stop-color:#f15b2b"/>
	</linearGradient>
	<path style="fill:url(#SVGID_14_)" d="m122.34 74.21 3.5-.54-9.76-63.44-3.5.53z"/>
</svg>
