<svg version="1.1" id="color" xmlns="http://www.w3.org/2000/svg" x="0" y="0" viewBox="0 0 668.3 195.1" style="enable-background:new 0 0 668.3 195.1" xml:space="preserve">
	<style>
		.st0{fill:#a6afbd}.st1{fill:#ff3633}
	</style>
	<path class="st0" d="M89.8 53.3C81 45.9 68.8 41.6 56 41.6 25.1 41.6 0 66.4 0 97c0 26.9 21.2 56 55.4 56 14.9 0 25.3-3.2 34.3-10.9-1.1 18.9-12.3 28.1-34.2 28.1-7.9 0-19.4-2.7-29.6-15.5l-2.7-3.3-20.6 16.2 3 3.4c13.8 15.3 30 22.8 49.5 22.8 40 0 60.3-20.2 60.3-60V43.9H89.8v9.4zm-31.4 76c-15.3 0-31.6-11.3-31.6-32.3 0-15.1 12-30.8 32.1-30.8 16.7 0 30.8 14.5 30.8 31.8.1 17.2-14 31.3-31.3 31.3z"/>
	<path class="st0" d="M187.4 69.4V41.6h-4.3c-11.4 0-19.8.7-27.4 8.1v-5.8H130v107.9h25.7V91.1c0-15.1 7.1-23.8 19.6-23.8 2.1 0 4.4.3 6.9.8l5.2 1.3z"/>
	<path class="st0" d="M230.5 41.6c-12.4 0-24.7 2.6-37.5 8l-4.3 1.8 11.5 22.1 3.8-1.8c9-4.4 17.1-6.4 25.6-6.4 11.6 0 25.5 2.7 25.5 15.7v1.8c-7.7-4.6-16.7-7.1-26.4-7.1-32.5 0-47.4 19.9-47.4 38.4 0 23.5 19.6 39.9 47.6 39.9 10.9 0 19.7-2.5 27.4-7.9v5.6h24.6V79.6c-.2-23.1-19.9-38-50.4-38zm1.3 88.9c-15.1 0-23.8-5.7-23.8-15.6s8.7-15.6 23.8-15.6c15.1 0 23.8 5.7 23.8 15.6s-8.7 15.6-23.8 15.6z"/>
	<path class="st0" d="m361.5 43.9-29.3 69.8-29-69.8h-28.8L317.6 146l-20.3 47.7h27.2l64.7-149.8z"/>
	<path class="st1" d="M411.9 0v118.9c0 11.7 5.8 15.7 11.5 15.7h5.4v16.7h-7.4c-16.5 0-27.5-9.4-27.5-31.1V0h18z"/>
	<path class="st1" d="M488.3 45.2c32.6 0 56.1 25.1 56.1 54.3 0 29.7-22.3 54.2-56.1 54.2s-56.1-24.5-56.1-54.2c-.1-29.2 23.4-54.3 56.1-54.3zm-37.1 54.3c0 19.9 17.1 37.4 37 37.4s37-17.5 37-37.4c0-21.5-17.1-37.6-37-37.6-19.8 0-37 16.1-37 37.6z"/>
	<path class="st1" d="M650.4 47.6h17.9V137c0 38.2-18.3 58.1-58.5 58.1-18.3 0-34.4-6.8-48.4-22.3l14.3-11.3c11 13.7 23.7 17.9 34.4 17.9 27.9 0 40.2-13.9 40.2-37V135h-.3c-9.8 11.7-19.9 17.5-40 17.5-34.8 0-53.4-29.9-53.4-54 0-30.1 24.7-53.4 54-53.4 15.3 0 30.9 6.4 39.4 18.7h.4V47.6zm-36.6 14.3c-24.3 0-38 19.3-38 36.6 0 23.9 18.7 38.2 37.4 38.2 20.5 0 37.2-16.5 37.2-37.2 0-20.9-17.1-37.6-36.6-37.6z"/>
	<path class="st0" d="M464.6 96.5c1.5 0 2.8.8 3.5 2.1h3.3l5.2-12.5c.2-.6.8-1.1 1.4-1.3 1.1-.2 2.2.4 2.4 1.5l5.5 24.2 5.6-32.6c.1-.8.7-1.4 1.5-1.6 1.1-.3 2.2.4 2.5 1.5l6 24.5 3.1-9.1c.1-.4.4-.8.8-1.1.9-.6 2.2-.4 2.8.5l2.6 3.7c.1.9.1 1.8.1 2.7 0 1.2-.1 2.4-.2 3.5-.4-.1-.7-.4-1-.7l-2.6-3.6-4 12.1c-.4 1.1-1.5 1.6-2.6 1.3-.7-.2-1.2-.8-1.3-1.4l-5.4-21.8-5.7 33.1c-.2 1.1-1.2 1.8-2.3 1.7-.9-.1-1.5-.8-1.7-1.7l-6.1-28-3.3 7.9c-.3.8-1.1 1.3-1.9 1.3h-4.7c-.7 1.2-2 2-3.5 2-2.2 0-4.1-1.8-4.1-4.1.1-2.2 1.9-4.1 4.1-4.1z"/>
</svg>
