<svg xmlns="http://www.w3.org/2000/svg" width="200" height="128">
	<path fill="#5f6368" d="m47.09 66.44-4.87 19.21h-.14l-5.29-15.94h-2.94l-5.28 15.94h-.14l-5.15-19.21H20l6.79 24.43H30l5.25-16.11h.14l5.26 16.11h3.2l6.52-24.43h-3.28zm11.58 7.16a8.26 8.26 0 0 0-6.17 2.53 9.59 9.59 0 0 0 0 12.76 8.26 8.26 0 0 0 6.17 2.53 8.15 8.15 0 0 0 6.15-2.53 9.53 9.53 0 0 0 0-12.76 8.19 8.19 0 0 0-6.15-2.53zm3.89 13.28a5.37 5.37 0 0 1-7.78 0 6.16 6.16 0 0 1-1.57-4.37 6.09 6.09 0 0 1 1.57-4.33 5.29 5.29 0 0 1 7.78 0 6.83 6.83 0 0 1 0 8.71zm12.05-12.27a4.56 4.56 0 0 0-2 2.27h-.11v-2.73h-3v16.72h3.14v-9.21A4.79 4.79 0 0 1 74 78.31a4.06 4.06 0 0 1 3-1.43 5.24 5.24 0 0 1 1.85.24l1-3a5.91 5.91 0 0 0-2.32-.41 5.4 5.4 0 0 0-2.92.9zm21.08-.32v-.14h-4.02l-7.24 7.34V66.44H81.3v24.43h3.13v-5.36l2.56-2.52 5.23 7.88H96v-.14l-6.82-9.96 6.51-6.48z"/>
	<path fill="#5f6368" d="m104.6 81.21-2.52-.65q-2.7-.61-2.7-2a1.78 1.78 0 0 1 1-1.51 4.06 4.06 0 0 1 2.2-.61 4.78 4.78 0 0 1 2.4.6 3.52 3.52 0 0 1 1.56 1.65l2.79-1.16a5.74 5.74 0 0 0-2.5-2.83A8.53 8.53 0 0 0 98 75a4.37 4.37 0 0 0-1.86 3.67c0 2.32 1.62 3.89 4.88 4.71l2.86.72c1.64.5 2.46 1.29 2.46 2.35a1.84 1.84 0 0 1-1 1.54 4.53 4.53 0 0 1-2.5.65 4.35 4.35 0 0 1-2.58-.84 5.1 5.1 0 0 1-1.79-2.33l-2.8 1.19a7.22 7.22 0 0 0 2.73 3.46 8.3 8.3 0 0 0 9.25-.18 4.54 4.54 0 0 0 1.91-3.69q.02-3.81-4.96-5.04zm15.89-7.61a7.24 7.24 0 0 0-3.36.79 5.94 5.94 0 0 0-2.34 2.08h-.14v-2.32h-3v24.09h3.14v-7.37l-.14-2.32h.14a5.86 5.86 0 0 0 2.34 2.08 7.12 7.12 0 0 0 3.36.79 7.19 7.19 0 0 0 5.6-2.6 9.65 9.65 0 0 0 0-12.62 7.19 7.19 0 0 0-5.6-2.6zm3.28 13.24a4.91 4.91 0 0 1-3.77 1.71 5 5 0 0 1-3.82-1.67 6.37 6.37 0 0 1-1.5-4.37 6.3 6.3 0 0 1 1.5-4.33 5.09 5.09 0 0 1 7.61 0 6.23 6.23 0 0 1 1.53 4.33 6.14 6.14 0 0 1-1.55 4.33zm18.76-11.38A7.77 7.77 0 0 0 137 73.6a7.7 7.7 0 0 0-6.76 3.28l2.76 1.74a4.83 4.83 0 0 1 4.17-2.22 4.44 4.44 0 0 1 3 1.14 3.58 3.58 0 0 1 1.29 2.78V81a9.28 9.28 0 0 0-4.61-1 8.2 8.2 0 0 0-5.23 1.54 5 5 0 0 0-2 4.12 5.24 5.24 0 0 0 1.86 4.1 6.77 6.77 0 0 0 4.63 1.64 6 6 0 0 0 5.19-2.87h.13v2.32h3V80.57a6.59 6.59 0 0 0-1.9-5.11zM140 87.16a5 5 0 0 1-3.53 1.46 3.81 3.81 0 0 1-2.47-.82 2.49 2.49 0 0 1-1-2 2.72 2.72 0 0 1 1.28-2.29 5.33 5.33 0 0 1 3.19-.92 6.46 6.46 0 0 1 4.09 1.16 4.62 4.62 0 0 1-1.56 3.41zm15 1.39a4.86 4.86 0 0 1-3.72-1.74 6.77 6.77 0 0 1 0-8.6 4.86 4.86 0 0 1 3.72-1.74 4.71 4.71 0 0 1 4.67 3.14l2.87-1.19a7.66 7.66 0 0 0-7.34-4.82 8.29 8.29 0 0 0-6.2 2.53 8.86 8.86 0 0 0-2.42 6.38 9 9 0 0 0 2.42 6.38 8.25 8.25 0 0 0 6.18 2.53 8.19 8.19 0 0 0 4.56-1.28 7.44 7.44 0 0 0 2.88-3.53l-2.8-1.2a4.9 4.9 0 0 1-4.82 3.14zm25-5.8a9.6 9.6 0 0 0-2.2-6.75 8.33 8.33 0 0 0-11.86.14 9.09 9.09 0 0 0-2.32 6.36 8.92 8.92 0 0 0 2.38 6.39 8 8 0 0 0 6.08 2.53 8.61 8.61 0 0 0 4.52-1.2 8.35 8.35 0 0 0 3.12-3.31l-2.8-1.36a5.29 5.29 0 0 1-8.46 1.5 5.45 5.45 0 0 1-1.64-4H180zm-12.93-2.25a5.18 5.18 0 0 1 1.69-2.94 4.53 4.53 0 0 1 3.05-1.09 5 5 0 0 1 3.43 1.14 4.25 4.25 0 0 1 1.42 2.89z"/>
	<path fill="#4285f4" d="M34.1 46.16v-3.77h12.64A12.81 12.81 0 0 1 47 44.7a12.48 12.48 0 0 1-3.28 8.84A12.62 12.62 0 0 1 34 57.42a13.83 13.83 0 1 1 0-27.66 13.17 13.17 0 0 1 9.48 3.81l-2.67 2.66A9.66 9.66 0 0 0 34 33.54a10.06 10.06 0 0 0 0 20.11 9.26 9.26 0 0 0 7-2.77 7.84 7.84 0 0 0 2.05-4.71z"/>
	<path fill="#ea4335" d="M66.22 48.51a8.94 8.94 0 1 1-8.94-8.9 8.8 8.8 0 0 1 8.94 8.9m-3.91 0a5 5 0 1 0-10.05 0 5 5 0 1 0 10.05 0"/>
	<path d="M85.71 48.51a8.94 8.94 0 1 1-8.93-8.9 8.79 8.79 0 0 1 8.93 8.9m-3.91 0a5 5 0 1 0-10 0 5 5 0 1 0 10 0" fill="#fbbc04"/>
	<path fill="#4285f4" d="M104.4 40.15v16c0 6.58-3.88 9.27-8.46 9.27a8.47 8.47 0 0 1-7.89-5.26l3.4-1.41a4.93 4.93 0 0 0 4.49 3.17c2.93 0 4.75-1.83 4.75-5.23V55.4h-.13a6.07 6.07 0 0 1-4.69 2 8.91 8.91 0 0 1 0-17.81 6.16 6.16 0 0 1 4.69 2h.13v-1.44zm-3.4 8.4c0-3.14-2.09-5.43-4.75-5.43a5.15 5.15 0 0 0-5 5.43 5.11 5.11 0 0 0 5 5.36c2.66 0 4.75-2.26 4.75-5.36"/>
	<path fill="#34a853" d="M107.12 30.79h3.91v26.09h-3.91z"/>
	<path fill="#ea4335" d="m126.14 51.45 3 2a8.85 8.85 0 0 1-7.42 4 8.72 8.72 0 0 1-8.84-8.91c0-5.29 3.82-8.9 8.4-8.9s6.88 3.68 7.62 5.67l.41 1-11.91 4.92a4.53 4.53 0 0 0 4.32 2.7 5.09 5.09 0 0 0 4.39-2.46m-9.35-3.2 8-3.31a3.45 3.45 0 0 0-3.3-1.89 4.89 4.89 0 0 0-4.66 5.2"/>
</svg>
