<svg xmlns="http://www.w3.org/2000/svg" viewBox="-2.4 -2.4 124.67 35.8">
	<path fill="#fff" d="M44.961 12.511c-.249-.617-.764-1.644-1.26-2.589V19.99h-1.754v-8.979a25.831 25.831 0 0 1-2.25 5.034c-.108.227-1.2-1.436-.95-1.891a30.939 30.939 0 0 0 3.055-7.356h-2.8c-.258 0 .489-1.768.738-1.768h2.2V2.145s1.715-1.351 1.754-.976 0 3.862 0 3.862h2.107v1.768h-2.107v.76c.558.781 2.044 3.061 2.395 3.637Zm9.947 5.529a5.744 5.744 0 0 0 .48-1.5 12.245 12.245 0 0 0 .451-3.144h-3.2v6.6h-1.8v-4.952a14.459 14.459 0 0 1-4.646 4.089 11.576 11.576 0 0 0 .486-2.642 13.06 13.06 0 0 0 3.416-3.09h-3.733c.248-1.356.495-3.472.64-5.137h3.839v-2.2h-4.52l.781-1.6h1.779a10.475 10.475 0 0 0-1.155-2.444l1.341-.8a12.588 12.588 0 0 1 1.527 2.938l-.681.308h3.034a17.226 17.226 0 0 0 1.507-2.656l1.858-.118a56.809 56.809 0 0 1-1.486 2.774h2.209v5.383h-4.4v1.969h5s-.021.452-.042.678a16.229 16.229 0 0 1-.722 5.011Zm-6.4-8.2c-.083.657-.166 1.356-.248 1.973h2.58V9.84Zm4.128-1.582h2.642v-2.2h-2.643v2.2Zm22.236 3.51V8.48h3.159V6.942h-3.159V5.36s-1.879.492-1.879.743v.839h-4.459V5.36c0-.225-1.817.515-1.817.721v.861h-2.528c-.147 0-.707 1.541-.527 1.541h3.055v3.288h8.155Zm-6.338-3.287h4.459v1.809h-4.459V8.481Zm-5.348 3.4s.072-5.688.072-7c1.4 0 15-.038 15-.038V3.078h-6.976a18.56 18.56 0 0 0-.95-2.186l-1.811.714a4.686 4.686 0 0 1 .573 1.289s-5.47.113-7.688.113c0 1.162-.1 10.26-.1 10.26-.045 2.792-.045 2.993-1.5 3.864a13.451 13.451 0 0 1-.568 2.583 8.837 8.837 0 0 0 3.727-2.94 32.355 32.355 0 0 0 .225-4.892Zm1.523 3.377a20.329 20.329 0 0 0 2.074 1.134 17.351 17.351 0 0 1 1.771.9 18.465 18.465 0 0 1-4.517.524c-.386.772-.57 1.149-1.077 2.065a36.178 36.178 0 0 0 7.638-1.541 24.67 24.67 0 0 0 6.832 1.644 8.606 8.606 0 0 1 1.115-1.644 27.542 27.542 0 0 1-5.739-1.026 9.834 9.834 0 0 0 3.984-3.9l-1.194-.615-.33.062H64.801l-.911 1.52h10.053a9.923 9.923 0 0 1-3.262 2.178c-1.11-.513-2.651-1.272-3.743-1.778q-1.127.184-2.229.48Zm22.343-1.54a28.25 28.25 0 0 0-1.61-2.712v8.979h-1.858v-8.319a22.556 22.556 0 0 1-2.939 5.083c-.008-.587-.169-2.655-.167-3.527a12.156 12.156 0 0 0 2.838-4.555h-3.035c-.2 0 .624-1.788.842-1.788h2.461V4.027c-.888.162-1.775.386-2.6.509a6.01 6.01 0 0 1 .213-1.479s4.952-1.279 6.358-1.71c0 0 .314 1.3.119 1.519 0 0-1.121.352-2.231.715v3.3h2.89v1.788h-2.89v.287c.62.637 2.374 2.733 2.766 3.267Zm9.682 1.006v5.26h-1.9v-4.931s-6.433 1.032-6.7 1.09.626-1.961 1.055-2.053 5.642-.907 5.642-.907v-10.4c0-.359 1.9-2.174 1.9-1.635V12.88l2.251-.369.289 1.788Zm-5.182-3.657a11.06 11.06 0 0 0-2.766-2.179l1.218-1.109a19.326 19.326 0 0 1 3.53 2.917Zm.86-4.857a13.389 13.389 0 0 0-2.863-2.643l1.259-1.089a14.894 14.894 0 0 1 3.013 2.856Zm14.6 3.214-1.549 1.026V6.939h2.167V5.151h-2.167V1.144l-1.878 1.4v2.631h-1.774l-.765 1.767h2.539v4.309a32.448 32.448 0 0 0-2.766 1.817l.5 1.742a18.7 18.7 0 0 1 2.269-1.712v4.714c0 .453-1.171.411-2.079.391a2.239 2.239 0 0 0-.741 1.729 13.342 13.342 0 0 0 3.892-.328c.6-.287.8-.8.8-1.788v-5.488s.992-.764 1.657-1.311Zm9.5 1.109a12.234 12.234 0 0 1-3.014 4.233 12.8 12.8 0 0 1-2.485-3.624l-1.616.728a12.108 12.108 0 0 0 2.654 4.067 5.606 5.606 0 0 1-4.094 1.3 11.062 11.062 0 0 1-1.327 2.748c2.064-.594 5.132-1.5 6.783-2.733a14.389 14.389 0 0 0 5.348 2.774A6.814 6.814 0 0 1 120 18.405a14.494 14.494 0 0 1-5.078-2.383 14.928 14.928 0 0 0 4.025-6.8l-1.238-.493-.331.062h-2.931V5.978h4.125l-.022-1.746h-4.105v-3c.021-.578-1.877.441-1.9.8s0 2.2 0 2.2h-3.33l-.509 1.746h3.839V8.79h-3.833l-.414 1.746h8.212Zm-74.858 14.73h-1.87v-.587h4.549v.587h-1.878v4.767h-.8v-4.767Zm6.532-.588v5.354h-.793v-5.351Zm3.759.072a13.024 13.024 0 0 1 1.687-.112 3.875 3.875 0 0 1 2.489.667 2.316 2.316 0 0 1 .864 1.923 2.641 2.641 0 0 1-.884 2.081 4.15 4.15 0 0 1-2.716.77c-.566 0-1.04-.024-1.441-.064v-5.266Zm.793 4.734a5.663 5.663 0 0 0 .8.04c1.7 0 2.616-.826 2.616-2.272.009-1.263-.81-2.065-2.489-2.065a5.169 5.169 0 0 0-.93.072v4.225Zm8.447-4.808v3.169c0 1.2.61 1.708 1.431 1.708.911 0 1.495-.525 1.495-1.708v-3.169h.8v3.122a2.1 2.1 0 0 1-2.323 2.319 2.016 2.016 0 0 1-2.206-2.288v-3.153h.8Zm8.848 5.354v-2.269l-1.943-3.08h.9l.864 1.477c.237.4.42.731.611 1.1h.018c.173-.35.384-.7.621-1.1l.884-1.477h.9l-2.06 3.074v2.28h-.8Zm6.733-5.354v3.169c0 1.2.61 1.708 1.431 1.708.911 0 1.495-.525 1.495-1.708v-3.169h.8v3.122a2.1 2.1 0 0 1-2.32 2.323 2.015 2.015 0 0 1-2.206-2.288v-3.153h.8Zm7.48 5.354v-5.354h.864l1.968 2.709a14.8 14.8 0 0 1 1.1 1.739l.018-.008a20.707 20.707 0 0 1-.091-2.2v-2.24h.748v5.354h-.8l-1.951-2.717a16.4 16.4 0 0 1-1.148-1.787l-.028.008c.046.675.064 1.319.064 2.208v2.288h-.747Zm8.157-.413a.506.506 0 0 1 .508-.5h.04a.5.5 0 1 1-.552.5Zm8.773.238a4.469 4.469 0 0 1-1.621.254c-1.732 0-3.035-.953-3.035-2.708 0-1.675 1.3-2.812 3.209-2.812a3.718 3.718 0 0 1 1.458.238l-.191.565a3.237 3.237 0 0 0-1.242-.223 2.138 2.138 0 0 0-2.4 2.208 2.089 2.089 0 0 0 2.361 2.153 3.579 3.579 0 0 0 1.3-.222Zm8.427-2.558a2.673 2.673 0 0 1-2.853 2.82 2.612 2.612 0 0 1-2.76-2.455 2.524 2.524 0 0 1 0-.261 2.707 2.707 0 0 1 2.6-2.814h.257a2.593 2.593 0 0 1 2.76 2.415 2.435 2.435 0 0 1 0 .3Zm-4.768.088a1.978 1.978 0 1 0 1.969-2.232 2 2 0 0 0-1.969 2.232Zm13.351.294c-.045-.747-.1-1.645-.091-2.312h-.028a28.3 28.3 0 0 1-.775 2.034l-1.085 2.6h-.6l-.993-2.55a21.8 21.8 0 0 1-.711-2.081h-.018a61.735 61.735 0 0 1-.119 2.367l-.162 2.3h-.756l.428-5.354h1.012l1.049 2.59c.255.659.465 1.247.62 1.8h.028a18.515 18.515 0 0 1 .648-1.8l1.094-2.59h1.012l.383 5.354h-.775Z"/>
	<path fill="#f4821f" d="M32.9 9.064C34.905 1.021 28.7.001 25.547.001h-1.775c-.594 0-.871.219-1.134 1-.286 1.037-.381 1.3-.651 2.593-.145.567-.436 1.643.722 1.643.737 0 1.513.015 2.556.015 1.934 0 1.621.459 1.143 2.335.017 0-1.589 6.2-1.767 6.923-.661 2.087-2.053 2.978-4.071 3.619-5.227 1.67-10.418 3.463-15.685 4.99-3.113 1.011-3.079.978-3.867 3.376-.029-.006-1.043 4.541-1.013 4.547 2.161-.548 3.71-.928 5.529-1.493 5.821-1.806 11.285-3.691 17.1-5.534a26.694 26.694 0 0 0 4.287-1.971c1.939-1.33 2.974-1.9 4.028-5.453.508-1.798.869-3.449 1.951-7.527ZM20.732.856c-.309 1.242-.589 2.42-.881 3.477-.234.851-.612.912-1.574.912-.609-.022-3.175.018-3.781 0-.7 0-.605.256-1.026 1.872a1549.26 1549.26 0 0 0-2.7 10.6c-.385 1.53-.608 1.712-1.345 1.937-1.663.522-2.878.864-4.625 1.381-1.236.372-1.417.185-1.106-1.026C4.71 16.05 6.004 10.962 7.025 6.97c.361-1.521.223-1.729-.456-1.729-.523-.012-4.079.024-4.6 0-1.014 0-1.768.054-1.452-1.237s.423-1.679.744-2.931c.238-.832.176-1.08 1.08-1.08h17.374c.79 0 1.22.02 1.022.856Z"/>
</svg>
