<svg id="Layer_1" data-name="Layer 1" xmlns="http://www.w3.org/2000/svg" viewBox="0 0 360 133.578">
	<defs>
		<style>
			.cls-1{fill:#fd2325}
		</style>
	</defs>
	<path class="cls-1" d="m95.074 78.147.135 6.574a9.604 9.604 0 0 1-4.801 8.313L57.183 112.22a9.604 9.604 0 0 1-9.605 0L14.34 93.036a9.604 9.604 0 0 1-4.802-8.318V46.345a9.604 9.604 0 0 1 4.802-8.317L47.578 18.84a9.604 9.604 0 0 1 9.605 0l35.7 20.617a1.55 1.55 0 0 1 0 2.684l-16.61 9.595L52.38 37.944 28.49 51.737v27.588L52.38 93.12l23.892-13.794v-1.949H52.364l.009-12.479a2.174 2.174 0 0 1 2.174-2.172l21.718.375c1.065 0 18.81 13.982 18.81 15.047Z"/>
	<path class="cls-1" d="M92.452 75.394c1.442 1.514.911 2.753-1.18 2.753H54.487a3.813 3.813 0 0 1-3.802-3.802V66.15a3.813 3.813 0 0 1 3.802-3.802h21.738A10.192 10.192 0 0 1 82.65 65.1Z"/>
	<path class="cls-1" d="M127.273 63.267v16.089h-12.108c-4.184 0-6.338-.528-8.328-2.112-2.763-2.154-4.266-6.095-4.266-11.336 0-5.16 1.503-9.141 4.225-11.335 1.95-1.544 4.754-2.316 8.613-2.316h11.864v4.834H116.1c-5.16 0-7.191 2.357-7.191 8.289 0 3.29.73 6.135 1.869 7.435 1.097 1.178 2.803 1.706 5.525 1.706h5.2v-6.419h-7.556v-4.835Z"/>
	<path class="cls-1" d="M137.632 68.508c0 2.56.366 3.82 1.422 4.835a7.096 7.096 0 0 0 4.753 1.666c2.56 0 4.632-.935 5.363-2.438a9.379 9.379 0 0 0 .569-4.063V52.257h5.77v15.967c0 4.184-.854 6.826-2.723 8.532-2.194 1.91-5.078 2.803-9.1 2.803-4.185 0-7.192-.894-9.142-2.763-2.031-1.91-2.681-3.9-2.681-8.166V52.257h5.769Z"/>
	<path class="cls-1" d="M160.708 52.257h5.77v27.099h-5.77Z"/>
	<path class="cls-1" d="M183.5 52.257c5.444 0 8.532 1.015 10.685 3.494 1.747 1.95 2.885 5.932 2.885 10.116a24.069 24.069 0 0 1-1.057 6.907 8.294 8.294 0 0 1-6.134 6.054 22.672 22.672 0 0 1-6.38.528h-11.497V52.257Zm-5.729 22.265h5.729c2.438 0 4.306-.61 5.24-1.666 1.22-1.382 1.992-4.145 1.992-7.03 0-3.209-.935-6.093-2.357-7.353-1.137-.975-2.478-1.381-4.875-1.381h-5.729Z"/>
	<path class="cls-1" d="M221.446 57.092h-7.516c-4.063.04-5.282.406-6.541 1.99-.813 1.138-1.016 1.829-1.178 4.388h15.235v4.835h-15.235c.446 4.713 2.397 6.217 7.963 6.217h7.272v4.834h-7.516c-5.525 0-8.329-.731-10.401-2.763-2.478-2.397-3.86-6.297-3.86-10.929 0-4.712 1.463-8.41 4.348-11.01 1.99-1.788 3.9-2.397 7.678-2.397h9.751Z"/>
	<path class="cls-1" d="M241.923 79.356h-5.77V52.257h13.245c3.941 0 6.338.447 7.923 1.463a7.078 7.078 0 0 1 3.21 6.094 9.006 9.006 0 0 1-1.951 5.972 6.962 6.962 0 0 1-3.21 1.95c3.17.853 4.713 3.291 4.916 7.517a13.606 13.606 0 0 0 .65 4.103h-6.46a6.164 6.164 0 0 1-.325-1.381c-.04-.244-.121-1.057-.243-2.478-.407-4.754-2.357-6.46-7.354-6.42h-4.631Zm8.085-15.113a4.827 4.827 0 0 0 2.843-.61 3.77 3.77 0 0 0 1.3-3.129 3.092 3.092 0 0 0-1.91-3.169 7.52 7.52 0 0 0-2.233-.244h-8.085v7.152Z"/>
	<path class="cls-1" d="M274.18 52.257h6.623l11.213 27.099h-6.745l-2.6-6.297h-10.319l-2.6 6.297h-6.785Zm-.528 15.967h7.72l-3.86-9.467Z"/>
	<path class="cls-1" d="M294.94 52.257h5.77v27.099h-5.77Z"/>
	<path class="cls-1" d="M311.72 52.257v15.195c.162 4.51.243 4.794 1.34 5.891 1.097.935 2.397 1.179 5.932 1.179h5.525v4.834h-6.135c-5.322.082-7.11-.366-9.425-2.153-2.398-2.153-2.966-4.063-3.007-9.751V52.257Z"/>
	<path class="cls-1" d="M327.483 74.522h12.35c2.073 0 3.251-.164 3.942-.61a2.756 2.756 0 0 0 1.421-2.519 3.108 3.108 0 0 0-1.665-2.844 6.31 6.31 0 0 0-3.007-.528h-4.997c-3.128 0-5.241-.529-6.622-1.666a7.896 7.896 0 0 1-2.723-6.095c0-3.371 1.788-6.337 4.47-7.353 1.3-.488 2.722-.65 6.053-.65h13.408v4.835h-12.108c-2.519 0-3.453.081-4.103.406a2.804 2.804 0 0 0-1.34 2.6 2.915 2.915 0 0 0 1.218 2.478c.731.448 1.625.61 3.738.61h4.347c3.9 0 5.972.569 7.557 2.072a8.721 8.721 0 0 1 2.194 6.135 8.19 8.19 0 0 1-3.25 6.744c-1.382.935-3.088 1.219-7.273 1.219h-13.61Z"/>
	<path class="cls-1" d="M222.951 63.47h11.536v4.748h-11.536z"/>
</svg>
