<svg xmlns="http://www.w3.org/2000/svg" width="3176.471" height="1182.353">
	<g fill="#204cea">
		<path d="M746.02 652.941a40.138 40.138 0 1 1-40.138-40.137 40.178 40.178 0 0 1 40.138 40.137Zm334.482 13.38h66.562a441.89 441.89 0 0 1-427.802 427.802v-66.562a13.38 13.38 0 0 0-26.759 0v66.562a441.89 441.89 0 0 1-427.802-427.802h66.562a13.38 13.38 0 0 0 0-26.759H264.7A441.89 441.89 0 0 1 692.503 211.76v66.562a13.38 13.38 0 0 0 26.759 0V211.76a441.89 441.89 0 0 1 427.802 427.802h-66.562a13.38 13.38 0 0 0 0 26.759ZM923.47 435.354a13.34 13.34 0 0 0-15.6-2.421l-274.37 141.9a13.433 13.433 0 0 0-5.74 5.74L485.875 854.928a13.38 13.38 0 0 0 18.021 18.022l274.37-141.9a13.433 13.433 0 0 0 5.74-5.74l141.9-274.356a13.38 13.38 0 0 0-2.409-15.6Z" xmlns="http://www.w3.org/2000/svg" data-name="Solid Pt.2"/>
		<path d="M1458.126 912.909c-36.208 0-70.053-14.168-95.241-39.356-25.975-25.975-39.356-59.82-39.356-95.24v-273.13c0-35.42 13.381-69.265 39.356-95.24 25.188-25.188 59.033-39.356 95.24-39.356h71.628c35.42 0 70.053 14.168 95.24 39.356 25.188 25.975 39.356 59.82 39.356 95.24v7.872h-87.37v-7.872c0-12.593-4.722-24.4-13.38-33.058-9.446-9.446-21.252-14.168-33.846-14.168h-71.627c-12.594 0-24.4 4.722-33.846 14.168-8.658 8.658-14.168 20.465-14.168 33.058v273.128c0 12.594 5.51 24.401 14.168 33.06 9.445 9.445 21.252 14.167 33.846 14.167h71.627c12.594 0 24.4-4.722 33.846-14.168 8.658-8.658 13.38-20.465 13.38-33.059v-92.879h-67.691v-87.37h155.061v180.25c0 35.42-14.168 69.265-39.356 95.24-25.974 25.188-59.82 39.356-95.24 39.356h-71.627zm418.743 1.574c-35.42 0-69.265-13.381-94.453-38.569s-39.356-59.033-39.356-94.453V377.672h86.583v403.789c0 12.594 4.722 24.4 14.168 33.059 8.658 8.658 20.465 14.168 33.058 14.168h70.84c12.594 0 24.401-5.51 33.06-14.168 9.445-8.659 14.167-20.465 14.167-33.06V377.673h86.583v403.789c0 35.42-14.168 69.266-39.356 94.453s-59.033 38.569-94.453 38.569h-70.84zm283.36-1.574v-542.32h87.37v542.32h-87.37zm166.082 0v-542.32h206.223c36.207 0 70.053 14.167 95.24 39.355 25.975 25.975 40.143 59.82 40.143 95.24v273.128c0 35.42-14.168 69.266-40.142 95.241-25.188 25.188-59.034 39.356-95.24 39.356H2326.31zm87.37-87.37h118.853c13.381 0 25.188-4.722 33.846-14.168 9.445-8.658 14.168-20.465 14.168-33.059V505.184c0-12.593-4.723-24.4-14.168-33.058-8.658-9.446-20.465-14.168-33.846-14.168H2413.68v367.581zm587.185 87.37v-77.924h-166.868v77.924h-87.37V505.184c0-35.42 14.169-69.265 40.143-95.24 25.188-25.188 59.034-39.356 95.241-39.356h71.627c35.42 0 69.266 14.168 95.24 39.356 25.188 25.975 39.356 59.82 39.356 95.24V912.91h-87.369zm-118.854-454.951c-12.594 0-25.188 4.722-33.846 14.168-8.658 8.658-14.168 20.465-14.168 33.058v242.431h166.868v-242.43c0-12.594-4.723-24.401-14.168-33.06-8.658-9.445-20.465-14.167-33.059-14.167h-71.627z"/>
	</g>
</svg>
