<svg xmlns="http://www.w3.org/2000/svg" viewBox="206 153.5 2938 995.5">
	<g fill="#204cea">
		<path d="M746.02 652.941a40.138 40.138 0 1 1-40.138-40.137 40.182 40.182 0 0 1 40.138 40.137zm334.482 13.38h66.557a441.894 441.894 0 0 1-427.797 427.797v-66.557a13.38 13.38 0 0 0-26.759 0v66.557A441.894 441.894 0 0 1 264.706 666.32h66.557a13.38 13.38 0 0 0 0-26.759h-66.557a441.894 441.894 0 0 1 427.797-427.797v66.557a13.38 13.38 0 0 0 26.759 0v-66.557a441.894 441.894 0 0 1 427.797 427.797h-66.557a13.38 13.38 0 0 0 0 26.759zm-157.03-230.97a13.345 13.345 0 0 0-15.607-2.422L633.511 574.835a13.426 13.426 0 0 0-5.735 5.735L485.87 854.924a13.38 13.38 0 0 0 18.03 18.03l274.354-141.906a13.426 13.426 0 0 0 5.735-5.735l141.906-274.355a13.371 13.371 0 0 0-2.423-15.606z" xmlns="http://www.w3.org/2000/svg" data-name="Solid Pt.2"/>
		<path d="M1458.126 912.908c-36.207 0-70.053-14.168-95.24-39.355-25.975-25.975-39.356-59.82-39.356-95.24V505.183c0-35.42 13.38-69.266 39.355-95.24 25.188-25.188 59.034-39.356 95.24-39.356h71.628c35.42 0 70.053 14.168 95.24 39.356 25.188 25.974 39.356 59.82 39.356 95.24v7.871h-87.37v-7.87c0-12.595-4.722-24.401-13.38-33.06-9.445-9.445-21.252-14.168-33.846-14.168h-71.627c-12.594 0-24.4 4.723-33.846 14.168-8.658 8.659-14.168 20.465-14.168 33.06v273.127c0 12.594 5.51 24.4 14.168 33.059 9.445 9.445 21.252 14.168 33.846 14.168h71.627c12.594 0 24.4-4.723 33.846-14.168 8.658-8.658 13.38-20.465 13.38-33.059v-92.88h-67.69v-87.369h155.06v180.25c0 35.42-14.168 69.265-39.355 95.24-25.975 25.187-59.82 39.355-95.24 39.355h-71.628zm418.744 1.575c-35.42 0-69.266-13.381-94.454-38.569s-39.355-59.033-39.355-94.453V377.672h86.582v403.789c0 12.593 4.723 24.4 14.168 33.058 8.658 8.659 20.465 14.168 33.059 14.168h70.84c12.594 0 24.4-5.51 33.058-14.168 9.446-8.658 14.168-20.465 14.168-33.058V377.672h86.583v403.789c0 35.42-14.168 69.266-39.356 94.453s-59.033 38.569-94.453 38.569h-70.84zm283.36-1.575v-542.32h87.37v542.32h-87.37zm166.08 0v-542.32h206.224c36.207 0 70.053 14.168 95.24 39.356 25.976 25.974 40.144 59.82 40.144 95.24v273.128c0 35.42-14.168 69.266-40.143 95.24-25.188 25.188-59.034 39.356-95.24 39.356H2326.31zm87.37-87.37h118.854c13.381 0 25.188-4.722 33.846-14.167 9.445-8.658 14.168-20.465 14.168-33.059V505.184c0-12.594-4.723-24.4-14.168-33.059-8.658-9.445-20.465-14.168-33.846-14.168H2413.68V825.54zm587.186 87.37v-77.924h-166.868v77.924h-87.37V505.184c0-35.42 14.169-69.266 40.144-95.24 25.187-25.188 59.033-39.356 95.24-39.356h71.627c35.42 0 69.266 14.168 95.241 39.356 25.188 25.974 39.356 59.82 39.356 95.24v407.724h-87.37zm-118.854-454.95c-12.594 0-25.187 4.722-33.846 14.167-8.658 8.659-14.168 20.465-14.168 33.06v242.43h166.868v-242.43c0-12.595-4.723-24.401-14.168-33.06-8.658-9.445-20.465-14.168-33.059-14.168h-71.627z"/>
	</g>
</svg>
