<svg xmlns="http://www.w3.org/2000/svg" width="3176.471" height="1182.353">
	<g fill="#204cea">
		<g transform="translate(63.677 10.736) scale(13.37928)">
			<path d="M51 48a3 3 0 1 1-3-3 3.003 3.003 0 0 1 3 3Zm25 1h4.975A33.028 33.028 0 0 1 49 80.975V76a1 1 0 0 0-2 0v4.975A33.028 33.028 0 0 1 15.025 49H20a1 1 0 0 0 0-2h-4.975A33.028 33.028 0 0 1 47 15.025V20a1 1 0 0 0 2 0v-4.975A33.028 33.028 0 0 1 80.975 47H76a1 1 0 0 0 0 2ZM64.263 31.737a.997.997 0 0 0-1.166-.181L42.59 42.162a1.004 1.004 0 0 0-.429.429L31.556 63.097a1 1 0 0 0 1.347 1.347L53.41 53.838a1.004 1.004 0 0 0 .429-.429l10.606-20.506a1 1 0 0 0-.18-1.166Z" xmlns="http://www.w3.org/2000/svg" data-name="Solid Pt.2"/>
		</g>
		<path d="M1458.126 912.909c-36.208 0-70.053-14.168-95.241-39.356-25.975-25.975-39.356-59.82-39.356-95.24V505.183c0-35.42 13.381-69.265 39.356-95.24 25.188-25.188 59.033-39.356 95.24-39.356h71.628c35.42 0 70.053 14.168 95.24 39.356 25.188 25.975 39.356 59.82 39.356 95.24v7.872h-87.37v-7.872c0-12.593-4.722-24.4-13.38-33.058-9.446-9.446-21.252-14.168-33.846-14.168h-71.627c-12.594 0-24.4 4.722-33.846 14.168-8.658 8.658-14.168 20.465-14.168 33.058v273.128c0 12.594 5.51 24.401 14.168 33.06 9.445 9.445 21.252 14.167 33.846 14.167h71.627c12.594 0 24.4-4.722 33.846-14.168 8.658-8.658 13.38-20.465 13.38-33.059v-92.879h-67.691v-87.37h155.061v180.25c0 35.42-14.168 69.265-39.356 95.24-25.974 25.188-59.82 39.356-95.24 39.356h-71.627zm418.743 1.574c-35.42 0-69.265-13.381-94.453-38.569s-39.356-59.033-39.356-94.453V377.672h86.583v403.789c0 12.594 4.722 24.4 14.168 33.059 8.658 8.658 20.465 14.168 33.058 14.168h70.84c12.594 0 24.401-5.51 33.06-14.168 9.445-8.659 14.167-20.465 14.167-33.06V377.673h86.583v403.789c0 35.42-14.168 69.266-39.356 94.453s-59.033 38.569-94.453 38.569h-70.84zm283.36-1.574v-542.32h87.37v542.32h-87.37zm166.082 0v-542.32h206.223c36.207 0 70.053 14.167 95.24 39.355 25.975 25.975 40.143 59.82 40.143 95.24v273.128c0 35.42-14.168 69.266-40.142 95.241-25.188 25.188-59.034 39.356-95.24 39.356H2326.31zm87.37-87.37h118.853c13.381 0 25.188-4.722 33.846-14.168 9.445-8.658 14.168-20.465 14.168-33.059V505.184c0-12.593-4.723-24.4-14.168-33.058-8.658-9.446-20.465-14.168-33.846-14.168H2413.68v367.581zm587.185 87.37v-77.924h-166.868v77.924h-87.37V505.184c0-35.42 14.169-69.265 40.143-95.24 25.188-25.188 59.034-39.356 95.241-39.356h71.627c35.42 0 69.266 14.168 95.24 39.356 25.188 25.975 39.356 59.82 39.356 95.24V912.91h-87.369zm-118.854-454.951c-12.594 0-25.188 4.722-33.846 14.168-8.658 8.658-14.168 20.465-14.168 33.058v242.431h166.868v-242.43c0-12.594-4.723-24.401-14.168-33.06-8.658-9.445-20.465-14.167-33.059-14.167h-71.627z"/>
	</g>
</svg>
