<svg xmlns="http://www.w3.org/2000/svg" width="200" height="128">
    <defs>
        <linearGradient id="a" x1="-476.957" y1="-135.551" x2="-511.006" y2="-133.866" gradientTransform="translate(589.991 228.708) scale(1.106)" gradientUnits="userSpaceOnUse">
            <stop offset="0" stop-color="#959595"/>
            <stop offset="1" stop-color="#ccc"/>
        </linearGradient>
    </defs>
    <g fill="#4d4d4d">
        <path d="M99.6 56.933h3.285v6.851a10.084 10.084 0 0 0 .26 2.788 2.539 2.539 0 0 0 .8 1.21 2.409 2.409 0 0 0 2.724.022 2.4 2.4 0 0 0 .842-1.254 10.992 10.992 0 0 0 .195-2.636v-6.981h3.264v6.03a15.757 15.757 0 0 1-.541 5.1 5.484 5.484 0 0 1-1.923 2.572 5.573 5.573 0 0 1-3.242.886 5.025 5.025 0 0 1-5.3-3.955 19 19 0 0 1-.389-4.711v-5.922M112.33 56.933h3.242v1.448a7.607 7.607 0 0 1 2.01-1.405 4.374 4.374 0 0 1 5.122 1.059 5.383 5.383 0 0 1 1.124 3.717v9.423h-3.22v-6.246a16.214 16.214 0 0 0-.216-3.393 2.214 2.214 0 0 0-.735-1.275 1.842 1.842 0 0 0-1.275-.454 2.294 2.294 0 0 0-1.708.735 3.825 3.825 0 0 0-.972 2.01 18.468 18.468 0 0 0-.152 2.9v5.727h-3.241l.021-14.242M127.221 51.076a1.917 1.917 0 0 1 1.47.67 2.355 2.355 0 0 1 .627 1.642 2.382 2.382 0 0 1-.605 1.643 1.873 1.873 0 0 1-1.448.67 1.929 1.929 0 0 1-1.492-.67 2.4 2.4 0 0 1-.6-1.665 2.239 2.239 0 0 1 .6-1.6 1.862 1.862 0 0 1 1.448-.691m-1.621 5.858h3.264v14.242H125.6V56.933M143.95 59.829l-2.7 1.621a4.587 4.587 0 0 0-1.513-1.211 4.326 4.326 0 0 0-1.729-.345 3.908 3.908 0 0 0-2.961 1.21 4.268 4.268 0 0 0-1.124 3.069A4.162 4.162 0 0 0 135 67.134a3.667 3.667 0 0 0 2.853 1.145 3.954 3.954 0 0 0 3.393-1.642l2.55 1.923a7.429 7.429 0 0 1-11.238.735 7.659 7.659 0 0 1-1.924-5.209 7.876 7.876 0 0 1 .951-3.8 6.754 6.754 0 0 1 2.615-2.724 7.221 7.221 0 0 1 3.783-.994 7.005 7.005 0 0 1 3.458.843 7.079 7.079 0 0 1 2.507 2.421M152.011 56.565a6.321 6.321 0 0 1 3.437 1.016 6.981 6.981 0 0 1 2.528 2.723 7.871 7.871 0 0 1 .908 3.718 8.038 8.038 0 0 1-.908 3.76 6.944 6.944 0 0 1-2.485 2.745 6.432 6.432 0 0 1-3.458.973 6.187 6.187 0 0 1-4.755-2.162 7.586 7.586 0 0 1-1.967-5.295 7.475 7.475 0 0 1 2.226-5.554 6.179 6.179 0 0 1 4.474-1.924m.044 3.372a3.2 3.2 0 0 0-2.529 1.167 4.971 4.971 0 0 0 0 5.965 3.341 3.341 0 0 0 5.057-.022 4.433 4.433 0 0 0 1.016-3 4.308 4.308 0 0 0-.994-2.961 3.258 3.258 0 0 0-2.55-1.145M160.2 56.933h2.788v1.793a3.741 3.741 0 0 1 1.21-1.6 2.677 2.677 0 0 1 1.643-.54 2.9 2.9 0 0 1 1.318.367l-1.016 3.069a2.055 2.055 0 0 0-.951-.324c-.5 0-.929.346-1.275 1.016a10.09 10.09 0 0 0-.519 4l.022.692v5.77h-3.22V56.933M168.5 56.933h3.242v1.448a7.607 7.607 0 0 1 2.01-1.405 4.374 4.374 0 0 1 5.122 1.059A5.383 5.383 0 0 1 180 61.752v9.423h-3.22v-6.246a16.214 16.214 0 0 0-.216-3.393 2.214 2.214 0 0 0-.735-1.275 1.842 1.842 0 0 0-1.275-.454 2.294 2.294 0 0 0-1.708.735 3.818 3.818 0 0 0-.972 2.01 18.468 18.468 0 0 0-.152 2.9v5.727h-3.242l.022-14.242M98.714 53.475l.2-2.745a27.031 27.031 0 0 1-3.2.216c-.3 0-.778 0-1.4-.043a8.813 8.813 0 0 0-5.944-1.837c-4.992 0-8.472 3.177-8.472 7.672a6.283 6.283 0 0 0 1.448 4.128 5.318 5.318 0 0 0 2.7 1.751l-2.767 2.312a2.947 2.947 0 0 0-.67 2.054c0 1.534.714 2.312 2.659 2.874l-3.163 2.053a3.383 3.383 0 0 0-1.015 2.659c0 3.739 3.285 6.095 8.429 6.095 6.829 0 11.433-3.912 11.433-9.618 0-3.61-1.837-5.317-5.771-5.317h-.929c-3.869.13-5.274.173-5.706.173-1.21 0-1.837-.432-1.837-1.3a1.959 1.959 0 0 1 1.124-1.664c.713.043 1.1.086 1.556.086a9.145 9.145 0 0 0 6.786-2.744 6.8 6.8 0 0 0 1.708-4.971 9.651 9.651 0 0 0-.195-2.01l3.026.173m-10.806-2.27c2.074 0 3.2 1.837 3.2 5.231 0 3.047-1.059 4.625-3.134 4.625-2.031 0-3.285-1.924-3.285-5.144.022-3.069 1.1-4.712 3.221-4.712m.778 18.7c4.754 0 5.943.692 5.943 3.437 0 2.961-2.615 5.187-6.095 5.187s-5.77-1.794-5.77-4.452a4.266 4.266 0 0 1 1.988-3.7 10.833 10.833 0 0 1 3.934-.476"/>
    </g>
    <path d="M77.469 79.453c0 1.124-12.86 2.032-28.746 2.032C32.86 81.485 20 80.577 20 79.453s12.86-2.031 28.723-2.031c15.886 0 28.746.907 28.746 2.031z" opacity=".264" fill="url(#a)" style="isolation:isolate"/>
    <path d="M44.855 80.274c-.562-.172-.562-.259-.043-1.815a4.118 4.118 0 0 0-.67-4.128 8.22 8.22 0 0 1-2.118-4.474c-.173-1.383-.217-1.491-.779-1.6a4.423 4.423 0 0 0-2.139.583c-1.816.757-2.248 1.081-2.659 2.054a1.933 1.933 0 0 0-.129 1.4c.151.714.8 1.859 1.037 1.859a3.952 3.952 0 0 1 .778.519c.6.475.649.562.476.951-.368.843-1.254 1.88-1.6 1.88a6.857 6.857 0 0 1-1.9-1.34c-1.75-1.491-1.837-1.643-2.01-4.106-.216-2.94.5-4.3 3.718-7.068l2.01-1.729.129-1.059a21.252 21.252 0 0 0-.367-5.079 2.458 2.458 0 0 0-1.389-1.789c-.627-.173-1.016.2-1.491 1.448-.519 1.362-1.016 1.837-1.924 1.837a1.747 1.747 0 0 1-1.448-.994A15.118 15.118 0 0 1 32.082 53a5.047 5.047 0 0 0 0-1.556c-.108-.259-1.081-.843-3.394-2.01a11.4 11.4 0 0 1-1.08-.627 7.875 7.875 0 0 0-1.016-.562 17.089 17.089 0 0 1-2.939-1.729 13.305 13.305 0 0 1 3.025.93 8.222 8.222 0 0 0 1.189.453c.087 0 1.167.346 2.377.757a20.535 20.535 0 0 0 2.464.756c.346 0 .389-.3.281-1.556a3.45 3.45 0 0 1 0-1.037 2.171 2.171 0 0 1 .5.238 8.562 8.562 0 0 0 3.848.67 14.768 14.768 0 0 1 4.6.691c1.167.54 2.529 2.2 4.258 5.209 1.21 2.1 2.485 2.982 4.344 2.982a39.568 39.568 0 0 0 5.446-.843 18.318 18.318 0 0 1 6.311-.216 14.348 14.348 0 0 1 4.755 2.745 7.808 7.808 0 0 1 2.507 3.069 51.831 51.831 0 0 1 3.221 7.586 13.885 13.885 0 0 0 .691 1.578c.605 1.189.584 1.254-.54 1.254a3.313 3.313 0 0 1-2.572-.865c-.756-.648-.973-1.037-2.161-4.3-.605-1.664-1.211-2.658-1.6-2.658-.259 0-.8 1.772-.8 2.658 0 .627.389 1.47 1.4 3.026a14.465 14.465 0 0 1 2.162 8.948l-.152 1.232-1.1.043c-1.729.065-1.707.086-1.707-2.378 0-2.636-.173-3.2-1.34-4.257a27.881 27.881 0 0 1-2.4-2.788 10 10 0 0 0-1.794-1.989c-.324 0-.5.886-.519 2.788-.021 1.254-.065 1.448-.432 1.837-.994 1.038-1.686 2.94-2.118 5.771-.087.627-.173.735-.584.843a7.426 7.426 0 0 1-2.4.022 20.181 20.181 0 0 1 .584-4.582 44.58 44.58 0 0 0 .454-3.156 10.408 10.408 0 0 0-.433-3.912c-.129-.194-.734-.238-3.63-.238-1.924 0-4.02-.064-4.669-.129l-1.189-.13v.519c0 .562.152 1.059 1.1 3.8.345.972.843 2.442 1.1 3.285l.475 1.513-.41 1.232a10.72 10.72 0 0 1-.735 1.815c-.324.562-.346.584-1.254.562a2.6 2.6 0 0 1-1.361-.022z" fill="#499848"/>
</svg>
