<svg xmlns="http://www.w3.org/2000/svg" viewBox="64.53 0.03 271.18 245.18">
	<path fill="none" d="M0 0h400v245H0z" pointer-events="none"/>
	<path fill="none" stroke="#06486d" stroke-miterlimit="10" stroke-width=".674" d="m200 66.7-17.276-19.492" class="a"/>
	<path fill="none" stroke="#06486d" stroke-miterlimit="10" stroke-width=".342" d="m145.586 51.734 13.58 19.586" class="b"/>
	<path fill="none" stroke="#06486d" stroke-miterlimit="10" stroke-width=".674" d="m200 66.7 17.09-19.585m3.511 41.388 20.417-17.183M220.6 88.503l20.417 17.83m-23.743 22.356L200 109.566m-17.091 19.123 17.09-19.123m-40.833-4.065 19.585-17.09M159.166 71.32l19.585 17.09M200 66.7l-40.834 4.62M200 66.7l41.018 4.62M220.6 88.503l-3.51-41.388m3.51 41.388-3.326 40.186m23.743-22.356L200 109.566m-40.834-4.065L200 109.566m-17.091 19.123L178.75 88.41m3.973-41.202L178.75 88.41" class="a"/>
	<path fill="none" stroke="#06486d" stroke-miterlimit="10" stroke-width=".342" d="m140.413 76.585 18.753-5.265m3.973-38.062 19.585 13.95m4.527-22.819-4.527 22.819m4.527-22.819 29.84 22.726m-4.435-22.726 4.434 22.726m19.678-13.857L217.09 47.115m37.23 4.62-37.23-4.62m23.928 24.205 13.303-19.586M241.018 71.32l19.03 5.265m-19.03-5.265 18.569 28.546m-46.93-75.477-29.933 22.819m58.294 24.112-4.25-38.062m4.25 73.075 18.569-6.467m-18.57 6.467 19.032-29.748m-19.031 29.748 13.395 18.107m-13.395-18.107-4.158 36.583m-19.585-14.227 19.585 14.227m-19.585-14.227 37.138-4.25m-37.138 4.25-4.527 23.096m4.527-23.096-29.932 23.096m-4.434-23.096 4.434 23.096m-4.434-23.096 29.84 23.096m-29.84-23.096-19.678 14.227m19.678-14.227-37.23-4.064m13.487-19.124-13.488 19.124m13.488-19.124 4.065 37.415m-4.065-37.415L140.32 99.59m18.846-28.27L140.32 99.59m18.846 5.912-18.753-28.916m22.726-43.327-3.973 38.062m-13.58-19.586 37.138-4.526" class="b"/>
	<path fill="none" stroke="#093d5f" stroke-miterlimit="10" stroke-width=".259" d="m163.139 33.258-14.412-6.929m14.412 6.929-1.109-15.89m25.22 7.021-25.22-7.021m25.22 7.021-10.716-13.396m10.717 13.396 4.526-15.89M163.14 33.258l13.395-22.265m36.122 13.396-20.879-15.89m20.88 15.89-4.712-16.537M187.25 24.39l20.694-16.537m4.711 16.537 10.809-13.396m13.303 22.265-13.303-22.265m13.303 22.265 1.478-15.89m-25.59 7.021 25.59-7.021m-1.478 15.89 14.781-7.668m-14.781 7.668 25.775 3.787m-8.222 14.69 8.222-14.69m-8.222 14.69-2.772-26.145m2.772 26.144 16.906-1.385m-16.906 1.385 23.188 13.119m-17.46 11.732 11.178-26.236m-11.178 26.236 17.46-11.732m-17.46 11.732 19.492 3.973m-19.954 19.308 19.954-19.308m-19.954 19.308 20.509-3.88m-20.047-19.4 20.047 19.4m-20.51 3.88 17.461 11.64m-22.634 12.934 22.634-12.934m-22.634 12.934 16.721 1.663m-11.547-26.237 11.547 26.237m-16.72-1.663 7.944 14.781m-7.945-14.781-3.048 25.96m0 0-14.505-7.484m0 0 1.201 16.26m-1.2-16.26 25.497-3.695m-25.498 3.695-13.303 22.634m-10.809-13.765 10.81 13.765m-10.81-13.765 25.313 7.39m-25.313-7.39-4.711 16.906m4.711-16.906-20.878 16.906m-4.527-16.906 4.527 16.906m-4.527-16.906 20.694 16.906m-20.694-16.906-10.716 13.765m-13.396-22.634 13.396 22.634m10.716-13.765-25.405 7.76m1.293-16.629-1.293 16.63m1.293-16.63-14.689 8.038m-2.864-26.33 2.864 26.33m14.69-8.038-25.683-3.418m8.13-14.873-8.13 14.873m8.13-14.873-16.814 1.57m16.813-1.57L122.49 111.69m17.83-12.102-17.83 12.102m17.83-12.102-20.232-3.603m20.232 3.603-11.455 26.606m11.548-49.61-20.325 19.4m20.232 3.604-20.324-19.031m20.417-3.973-17.368-11.547m17.368 11.547-20.417 3.973m20.417-3.973L128.957 50.44m16.629 1.293-16.629-1.293m16.629 1.293-22.541 13.304m22.541-13.304-7.853-13.95m7.853 13.95 3.141-25.405m14.412 6.929-25.406 4.527" class="c"/>
	<path fill="#006da7" d="m168.78 98.21.137-19.678 19.715.138-.139 19.678-19.713-.139zm21.305-21.769.138-19.677 19.713.138-.137 19.677-19.715-.139zm.092 43.075.136-19.678 19.715.139-.138 19.676-19.714-.138zm21.305-21.306.137-19.677 19.714.138-.138 19.678-19.714-.139z" class="d"/>
	<path fill="#2f77bb" d="m210.273 53.97.095-13.673 13.719.096-.096 13.672-13.72-.096zm-34.237-.094.096-13.673 13.72.096-.097 13.673-13.719-.096zm-23.724 24.188.096-13.672 13.72.096-.097 13.673-13.719-.097zm0 34.236.096-13.673 13.718.096-.096 13.673-13.719-.096zm81.775.094.096-13.673 13.719.096-.096 13.673-13.719-.096zm.094-34.235.095-13.673 13.72.096-.097 13.673-13.719-.096z" class="e"/>
	<path fill="#139ad6" d="m141.056 56.141.063-8.961 8.99.063-.064 8.96-8.989-.062zM158.64 37.72l.063-8.961 8.988.063-.062 8.962-8.99-.063zm24.096-8.837.063-8.962 8.989.063-.063 8.961-8.989-.062zm-46.89 52.19.063-8.96 8.952.062-.063 8.961-8.952-.063zm114.006-33.886 8.961-.063.062 8.99-8.96.061-.063-8.989zM232.356 28.74l8.961-.062.062 8.99-8.961.062-.062-8.989zm-24.266-8.883 8.96-.063.064 8.989-8.962.063-.062-8.99zm47.016 52.236 8.961-.062.063 8.989-8.961.062-.063-8.99z" class="f"/>
	<path fill="#2f77bb" d="m176.035 135.93.095-13.672 13.719.096-.097 13.672-13.718-.096zm34.143-.091.095-13.673 13.72.096-.097 13.673-13.719-.096z" class="e"/>
	<path fill="#139ad6" d="m249.902 128.988.063-8.961 8.989.062-.063 8.962-8.989-.063zm-17.49 18.512.062-8.96 8.989.062-.063 8.961-8.989-.063zm-24.188 8.745.061-8.96 8.99.062-.064 8.961-8.988-.063zm46.89-52.19.061-8.962 8.952.063-.063 8.961-8.951-.062zm-113.948 15.948 8.962-.062.061 8.989-8.96.062-.063-8.99zm17.497 18.446 8.961-.062.063 8.989-8.961.062-.063-8.99zm24.172 8.793 8.961-.063.063 8.989-8.961.063-.062-8.99zM135.91 95.097l8.96-.063.064 8.99-8.961.062-.063-8.989z" class="f"/>
	<path fill="#03a8d9" d="m146.266 28.632.034-4.896 4.933.034-.034 4.896-4.933-.034zm-28.654 54.422.034-4.896 4.933.035-.035 4.896-4.933-.035zm2.884-15.536.034-4.896 4.933.035-.034 4.896-4.933-.035zm53.587-54.05.035-4.897 4.933.035-.034 4.897-4.934-.036zM126.45 52.911l.034-4.896 4.933.034-.034 4.896-4.933-.034zm8.838-13.117.034-4.897 4.933.036-.034 4.896-4.933-.035zm24.359-24.958 4.896-.034.035 4.934-4.896.033-.034-4.933zm29.959-9.355 4.896-.034.034 4.933-4.896.034-.034-4.933zm79.183 47.434.034-4.896 4.933.034-.034 4.896-4.933-.034zm6.42 14.607.033-4.897 4.933.035-.034 4.896-4.933-.034zm-15.164-27.725.034-4.896 4.933.034-.034 4.897-4.933-.035zm17.582 43.168.034-4.896 4.934.034L282.56 83l-4.933-.034zm-72.1-72.567.035-4.897 4.933.034-.034 4.897-4.933-.034zm15.538 2.978.034-4.896 4.933.034-.034 4.896-4.933-.035z" class="g"/>
	<path fill="#03a8d9" d="m146.266 28.632.034-4.896 4.933.034-.034 4.896-4.933-.034zm-28.654 54.422.034-4.896 4.933.035-.035 4.896-4.933-.035zm131.548-54.42.034-4.896 4.934.035-.034 4.896-4.934-.035zM120.496 67.518l.034-4.896 4.933.035-.034 4.896-4.933-.035zm53.587-54.05.035-4.897 4.933.035-.034 4.897-4.934-.036zM126.45 52.911l.034-4.896 4.933.034-.034 4.896-4.933-.034zm8.838-13.117.034-4.897 4.933.036-.034 4.896-4.933-.035zm24.359-24.958 4.896-.034.035 4.934-4.896.033-.034-4.933zm29.959-9.355 4.896-.034.034 4.933-4.896.034-.034-4.933zm46.158 14.314.034-4.897 4.933.035-.034 4.896-4.933-.034zm41.863 63.17.034-4.896 4.934.034L282.56 83l-4.933-.034zm-72.1-72.567.035-4.897 4.933.034-.034 4.897-4.933-.034zm15.538 2.978.034-4.896 4.933.034-.034 4.896-4.933-.035zm28.092 139.456.035-4.897 4.933.035-.034 4.896-4.933-.034zm28.47-54.33.033-4.897 4.934.034-.035 4.897-4.934-.035zM146.262 152.92l.034-4.895 4.934.034-.035 4.897-4.933-.035zm128.759-38.79.034-4.896 4.933.035-.034 4.896-4.933-.034zm-53.411 54.519.049-4.897 4.933.05-.049 4.896-4.933-.05zm47.084-39.913.034-4.896 4.933.034-.034 4.897-4.933-.035zm-8.56 13.211.035-4.896 4.933.034-.034 4.896-4.934-.034zm-24.389 15.179 4.897-.034.034 4.933-4.897.033-.034-4.933zm-30.145 9.08 4.896-.035.034 4.933-4.896.034-.034-4.933zm-45.941-4.166.034-4.897 4.933.034-.034 4.897-4.933-.034zm-33.304-33.308.034-4.896 4.933.035-.034 4.896-4.933-.035zm-5.861-14.605.034-4.896 4.933.034-.034 4.896-4.933-.034zm14.791 27.817.034-4.897 4.934.035-.035 4.897-4.933-.035zM117.61 98.498l.034-4.897 4.933.035-.034 4.896-4.933-.034zm72.097 72.659.035-4.896 4.933.035-.034 4.896-4.933-.035zm-15.627-3.07.034-4.897 4.933.035-.035 4.896-4.933-.035z" class="g"/>
	<path fill="#139ad6" d="M94.498 239.364v-14.689h-17.83v14.69h-6.836V203.15h6.836v15.243h17.83V203.15h6.744v36.214z" class="f"/>
	<path fill="#006da7" d="M135.793 232.436h-18.938l-3.141 6.836h-7.39l16.259-36.214h7.483l16.26 36.214h-7.484zm-9.423-21.71-6.744 15.427h13.396z" class="d"/>
	<path fill="#093d5f" d="M168.774 228.648H158.52v10.624h-6.837v-36.214h17.091c17.738 0 17.738 25.59 0 25.59zm-10.254-6.282h10.254c8.777 0 8.684-12.841 0-12.841H158.52zm61.157 16.906h-8.13l-10.531-12.102h-6.56v12.102h-6.836v-36.214h17.276c8.5.092 13.026 5.727 13.026 12.01s-2.31 9.977-9.146 11.363l10.994 12.379zm-25.22-29.84v11.64h10.439c4.342 0 6.19-2.863 6.19-5.82s-1.94-5.82-6.19-5.82zm64.483 12.01c-.092 9.33-5.82 18.754-18.569 18.754s-18.661-9.239-18.661-18.754 6.097-19.123 18.661-19.123 18.661 9.607 18.569 19.123zm-30.486.185c.184 5.912 3.325 12.287 11.917 12.287s11.733-6.375 11.825-12.38-3.326-12.933-11.825-12.933-12.102 6.836-11.917 12.933z" class="h"/>
	<path fill="#093d5f" d="M284.53 203.058h7.483v.277l-12.287 17.645 12.657 18.107v.185h-7.668l-9.239-13.58-9.238 13.58h-7.668v-.185l12.564-18.107-12.194-17.645v-.277h7.483l9.053 13.488zm28.362 14.966 9.607-14.966h8.223v.277l-14.412 20.97v14.967h-6.837v-14.966l-13.95-20.971v-.277h8.13z" class="h"/>
</svg>
