<svg xmlns="http://www.w3.org/2000/svg" viewBox="2.85 16.1 293.54 265.29">
	<defs>
		<style>
			.a,.b{fill:none;stroke-miterlimit:10;stroke:#06486d}.a{stroke-width:.73px}.b{stroke-width:.37px}.d{fill:#006da7}.e{fill:#2f77bb}.f{fill:#139ad6}.g{fill:#03a8d9}.h{fill:#093d5f}
		</style>
	</defs>
	<path d="M149.5 88.1 130.8 67" class="a"/>
	<path d="m90.6 71.9 14.7 21.2" class="b"/>
	<path d="M149.5 88.1 168 66.9m3.8 44.8 22.1-18.6m-22.1 18.6 22.1 19.3m-25.7 24.2-18.7-20.7M131 155.2l18.5-20.7m-44.2-4.4 21.2-18.5m-21.2-18.5 21.2 18.5m23-23.5-44.2 5m44.2-5 44.4 5m-22.1 18.6L168 66.9m3.8 44.8-3.6 43.5m25.7-24.2-44.4 3.5m-44.2-4.4 44.2 4.4M131 155.2l-4.5-43.6m4.3-44.6-4.3 44.6" class="a"/>
	<path d="m85 98.8 20.3-5.7m4.3-41.2L130.8 67m4.9-24.7L130.8 67m4.9-24.7L168 66.9m-4.8-24.6 4.8 24.6m21.3-15-21.3 15m40.3 5-40.3-5m25.9 26.2 14.4-21.2m-14.4 21.2 20.6 5.7m-20.6-5.7L214 124m-50.8-81.7L130.8 67m63.1 26.1-4.6-41.2m4.6 79.1 20.1-7m-20.1 7 20.6-32.2M193.9 131l14.5 19.6M193.9 131l-4.5 39.6m-21.2-15.4 21.2 15.4m-21.2-15.4 40.2-4.6m-40.2 4.6-4.9 25m4.9-25-32.4 25m-4.8-25 4.8 25m-4.8-25 32.3 25m-32.3-25-21.3 15.4m21.3-15.4-40.3-4.4m14.6-20.7-14.6 20.7m14.6-20.7 4.4 40.5m-4.4-40.5-20.4-6.4m20.4-30.6-20.4 30.6m20.4 6.4L85 98.8m24.6-46.9-4.3 41.2M90.6 71.9l40.2-4.9" class="b"/>
	<path fill="none" stroke="#093d5f" stroke-miterlimit="10" stroke-width=".28" d="M109.6 51.9 94 44.4m15.6 7.5-1.2-17.2m27.3 7.6-27.3-7.6m27.3 7.6-11.6-14.5m11.6 14.5 4.9-17.2m-31 26.8 14.5-24.1m39.1 14.5-22.6-17.2m22.6 17.2-5.1-17.9m-22.4 17.9 22.4-17.9m5.1 17.9 11.7-14.5m14.4 24.1-14.4-24.1m14.4 24.1 1.6-17.2m-27.7 7.6 27.7-7.6m-1.6 17.2 16-8.3m-16 8.3 27.9 4.1m-8.9 15.9 8.9-15.9m-8.9 15.9-3-28.3m3 28.3 18.3-1.5m-18.3 1.5 25.1 14.2m-18.9 12.7 12.1-28.4m-12.1 28.4 18.9-12.7m-18.9 12.7 21.1 4.3M214 124l21.6-20.9M214 124l22.2-4.2m-21.7-21 21.7 21M214 124l18.9 12.6m-24.5 14 24.5-14m-24.5 14 18.1 1.8M214 124l12.5 28.4m-18.1-1.8 8.6 16m-8.6-16-3.3 28.1m0 0-15.7-8.1m0 0 1.3 17.6m-1.3-17.6 27.6-4m-27.6 4L175 195.1m-11.7-14.9 11.7 14.9m-11.7-14.9 27.4 8m-27.4-8-5.1 18.3m5.1-18.3-22.6 18.3m-4.9-18.3 4.9 18.3m-4.9-18.3 22.4 18.3m-22.4-18.3-11.6 14.9m-14.5-24.5 14.5 24.5m11.6-14.9-27.5 8.4m1.4-18-1.4 18m1.4-18-15.9 8.7m-3.1-28.5 3.1 28.5m15.9-8.7-27.8-3.7m8.8-16.1-8.8 16.1m8.8-16.1-18.2 1.7m18.2-1.7-25.1-14m19.3-13.1-19.3 13.1m19.3-13.1L63 119.8m21.9 3.9-12.4 28.8M85 98.8l-22 21m21.9 3.9-22-20.6M85 98.8 66.2 86.3M85 98.8l-22.1 4.3M85 98.8 72.6 70.5m18 1.4-18-1.4m18 1.4L66.2 86.3m24.4-14.4-8.5-15.1m8.5 15.1L94 44.4m15.6 7.5-27.5 4.9"/>
	<path d="m115.706 122.207.149-21.3 21.34.15-.15 21.3zm23.062-23.563.149-21.3 21.339.15-.149 21.299zm.099 46.626.148-21.3 21.34.15-.149 21.299zm23.062-23.062.148-21.3 21.34.15-.149 21.3z" class="d"/>
	<path d="m160.62 74.32.103-14.8 14.85.103-.104 14.8zm-37.059-.102.104-14.8 14.85.104-.104 14.8zM97.881 100.4l.104-14.799 14.85.104-.104 14.8zm-.001 37.059.104-14.8 14.85.104-.104 14.8zm88.518.102.104-14.8 14.85.104-.104 14.8zm.102-37.058.103-14.8 14.85.104-.104 14.8z" class="e"/>
	<path d="m85.697 76.67.068-9.7 9.73.068-.068 9.7zm19.033-19.94.068-9.7 9.73.069-.068 9.7zm26.083-9.566.068-9.7 9.73.068-.068 9.7zm-50.756 56.494.068-9.7 9.69.068-.068 9.7zm123.406-36.68 9.7-.068.067 9.73-9.7.067zM184.524 47.01l9.7-.067.067 9.73-9.7.068zm-26.267-9.616 9.7-.068.068 9.73-9.7.068zm50.893 56.543 9.7-.067.068 9.73-9.7.067z" class="f"/>
	<path d="m123.559 163.038.103-14.8 14.85.104-.104 14.8zm36.959-.099.103-14.8 14.85.104-.104 14.8z" class="e"/>
	<path d="m203.517 155.523.068-9.7 9.73.068-.068 9.7zm-18.933 20.039.068-9.7 9.73.068-.068 9.7zm-26.182 9.466.067-9.7 9.73.068-.068 9.7zm50.756-56.494.067-9.7 9.69.068-.068 9.7zM85.816 145.797l9.7-.067.067 9.73-9.7.067zm18.939 19.967 9.7-.067.068 9.73-9.7.067zm26.165 9.518 9.7-.068.068 9.73-9.7.068zm-50.793-56.444 9.7-.068.068 9.73-9.7.068z" class="f"/>
	<path d="m91.336 46.893.037-5.3 5.34.037-.037 5.3zm-31.017 58.909.037-5.3 5.34.038-.038 5.3zm3.122-16.817.037-5.3 5.34.038-.037 5.3zm58.006-58.507.037-5.3 5.34.038-.037 5.3zM69.886 73.175l.037-5.3 5.34.037-.037 5.3zm9.567-14.199.037-5.3 5.34.038-.037 5.3zM105.82 31.96l5.3-.036.038 5.34-5.3.036zm32.429-10.126 5.3-.037.037 5.34-5.3.037zm85.712 51.345.037-5.3 5.34.037-.037 5.3zm6.949 15.811.036-5.3 5.34.037-.037 5.3zm-16.414-30.01.037-5.3 5.34.037-.037 5.3zm19.032 46.727.037-5.3 5.34.037-.037 5.3zm-78.044-78.551.037-5.3 5.34.037-.037 5.3zm16.818 3.224.037-5.3 5.34.037-.037 5.3z" class="g"/>
	<path d="m91.336 46.893.037-5.3 5.34.037-.037 5.3zm-31.017 58.909.037-5.3 5.34.038-.038 5.3zm142.395-58.907.037-5.3 5.34.038-.037 5.3zM63.441 88.985l.037-5.3 5.34.038-.037 5.3zm58.006-58.507.037-5.3 5.34.038-.037 5.3zM69.886 73.175l.037-5.3 5.34.037-.037 5.3zm9.567-14.199.037-5.3 5.34.038-.037 5.3zM105.82 31.96l5.3-.036.038 5.34-5.3.036zm32.429-10.126 5.3-.037.037 5.34-5.3.037zm49.964 15.494.037-5.3 5.34.037-.037 5.3zm45.315 68.379.037-5.3 5.34.037-.037 5.3zm-78.044-78.551.037-5.3 5.34.037-.037 5.3zm16.818 3.224.037-5.3 5.34.037-.037 5.3zm30.408 150.954.038-5.3 5.34.037-.037 5.3zm30.817-58.81.037-5.3 5.34.037-.038 5.3zM91.333 181.43l.037-5.299 5.34.037-.037 5.3zm139.375-41.988.037-5.3 5.34.037-.037 5.3zm-57.815 59.013.053-5.3 5.34.053-.053 5.3zm50.966-43.203.037-5.3 5.34.037-.037 5.3zm-9.265 14.3.037-5.3 5.34.037-.037 5.3zm-26.4 16.43 5.3-.037.037 5.34-5.3.036zm-32.631 9.828 5.3-.037.037 5.34-5.3.037zm-49.729-4.509.037-5.3 5.34.038-.037 5.3zm-36.05-36.054.037-5.3 5.34.038-.037 5.3zm-6.344-15.809.037-5.3 5.34.037-.037 5.3zm16.011 30.11.037-5.3 5.34.038-.037 5.3zM60.318 122.52l.037-5.3 5.34.037-.037 5.3zm78.042 78.65.038-5.3 5.34.038-.037 5.3zm-16.916-3.324.037-5.3 5.34.038-.038 5.3z" class="g"/>
	<path d="M35.3 275v-15.9H16V275H8.6v-39.2H16v16.5h19.3v-16.5h7.3V275z" class="f"/>
	<path d="M80 267.5H59.5l-3.4 7.4h-8l17.6-39.2h8.1l17.6 39.2h-8.1zM69.8 244l-7.3 16.7H77z" class="d"/>
	<path d="M115.7 263.4h-11.1v11.5h-7.4v-39.2h18.5c19.2 0 19.2 27.7 0 27.7zm-11.1-6.8h11.1c9.5 0 9.4-13.9 0-13.9h-11.1zm66.2 18.3H162l-11.4-13.1h-7.1v13.1h-7.4v-39.2h18.7c9.2.1 14.1 6.2 14.1 13s-2.5 10.8-9.9 12.3l11.9 13.4zm-27.3-32.3v12.6h11.3c4.7 0 6.7-3.1 6.7-6.3s-2.1-6.3-6.7-6.3zm69.8 13c-.1 10.1-6.3 20.3-20.1 20.3s-20.2-10-20.2-20.3 6.6-20.7 20.2-20.7 20.2 10.4 20.1 20.7zm-33 .2c.2 6.4 3.6 13.3 12.9 13.3s12.7-6.9 12.8-13.4-3.6-14-12.8-14-13.1 7.4-12.9 14z" class="h"/>
	<path d="M241 235.7h8.1v.3l-13.3 19.1 13.7 19.6v.2h-8.3l-10-14.7-10 14.7h-8.3v-.2l13.6-19.6-13.2-19.1v-.3h8.1l9.8 14.6zm30.7 16.2 10.4-16.2h8.9v.3l-15.6 22.7v16.2H268v-16.2L252.9 236v-.3h8.8z" class="h"/>
</svg>
