<svg xmlns="http://www.w3.org/2000/svg" width="200" height="128">
	<path d="M60.6 55.9c1.035 0 2.071-.009 3.106.013q-.017 3.393 0 6.791c2.632-.007 5.263.008 7.894-.007q-.007-3.4 0-6.8h3.056v16.21q-1.527.011-3.056 0-.014-3.262 0-6.527c-2.631-.015-5.262 0-7.894-.008q-.018 3.256 0 6.514c-1.035.048-2.069.022-3.106.021z" fill="#5899d4"/>
	<path d="M147.827 55.906c1.155-.016 2.31 0 3.463-.008 1.349 1.977 2.647 3.991 4.018 5.951 1.333-1.983 2.658-3.971 4-5.951 1.155.006 2.309-.006 3.463.006-.384.661-.84 1.262-1.272 1.888-1.414 2.033-2.835 4.06-4.245 6.1q2.358 3.369 4.706 6.745c.334.47.663.942.961 1.437-1.179 0-2.358.016-3.537-.007-1.336-2.024-2.719-4.019-4.087-6.024-1.285 1.906-2.591 3.8-3.875 5.708-.118.136-.205.349-.42.322-1.105.02-2.213 0-3.318 0 .405-.686.878-1.315 1.329-1.971q2.158-3.106 4.314-6.214-2.111-3.048-4.226-6.092c-.436-.631-.89-1.231-1.274-1.89zm16.329 0c1.247-.012 2.494 0 3.739-.005 1.359 2.2 2.71 4.407 4.075 6.6 1.43-2.2 2.832-4.411 4.262-6.606 1.256.008 2.513-.008 3.768.008-.366.668-.821 1.266-1.249 1.9q-2.523 3.67-5.056 7.34a1.094 1.094 0 0 0-.183.733v6.2c-1.035 0-2.071.005-3.106 0 .011-1.814 0-3.626.006-5.44a9 9 0 0 0-.033-1.219 8.142 8.142 0 0 0-.706-1.136c-1.314-2.011-2.668-3.992-3.979-6-.512-.796-1.076-1.561-1.538-2.381zm-17.883 2.754a7.511 7.511 0 0 0-4.048-2.771 10.093 10.093 0 0 0-4.166-.215A7.7 7.7 0 0 0 133.584 58a8.868 8.868 0 0 0-2.253 6.066 8.63 8.63 0 0 0 1.969 5.747 7.436 7.436 0 0 0 3.9 2.354 10.539 10.539 0 0 0 4.9-.008 7.37 7.37 0 0 0 4.079-2.63 9.089 9.089 0 0 0 1.788-5.463 8.964 8.964 0 0 0-1.694-5.406zm-2.028 8.307a4.619 4.619 0 0 1-2.667 2.342 6.3 6.3 0 0 1-3.96-.036 4.6 4.6 0 0 1-2.561-2.28 6.647 6.647 0 0 1 .307-6.467 4.8 4.8 0 0 1 3.309-2.084 5.524 5.524 0 0 1 4.168.916 5.415 5.415 0 0 1 1.969 3.424 6.916 6.916 0 0 1-.565 4.185zm-31.164-8.076a5.337 5.337 0 0 0-2.829-2.594 6.7 6.7 0 0 0-2.494-.44h-6.046a9.653 9.653 0 0 0-1.577.067c-.038 5.355 0 10.783-.018 16.148 1.036.006 2.071 0 3.106 0v-4.754c1.563-.006 3.128 0 4.691 0a5.937 5.937 0 0 0 4.107-1.563 6.015 6.015 0 0 0 1.06-6.864zm-3.506 5.024a2.959 2.959 0 0 1-1.814.563c-1.511 0-3.023-.006-4.535 0 .008-1.882-.03-3.772.019-5.652 1.1-.044 2.2 0 3.3-.015a6.889 6.889 0 0 1 2.338.192 2.708 2.708 0 0 1 1.7 2.036 2.912 2.912 0 0 1-1.008 2.876zm20.071 6.979c-1.353-1.5-2.677-3.033-4.036-4.531a5.533 5.533 0 0 0 2.7-1.4 5.607 5.607 0 0 0-.346-7.653 5.958 5.958 0 0 0-3.881-1.413c-2.659-.071-5.32-.024-7.981-.03v16.208h3.111c0-1.8-.008-3.6.006-5.4h2.864c1.578 1.8 3.14 3.614 4.725 5.407 1.246-.011 2.494.014 3.74-.012a5.847 5.847 0 0 0-.902-1.176zm-10.425-7.021c-.014-1.7-.005-3.4-.006-5.1h4.719a2.6 2.6 0 0 1 2.154 1.018 2.665 2.665 0 0 1-.3 3.406 2.809 2.809 0 0 1-2.008.676q-2.28-.002-4.559 0z" fill="#2a4a6c"/>
	<path d="M88.7 55.9c-1.12.037-2.27-.074-3.381.05a13.617 13.617 0 0 0-.593 1.279q-3.321 7.423-6.654 14.844h3.354c.461-1.018.928-2.036 1.386-3.056 2.808.009 5.615-.024 8.42.017.42 1.018.9 2.012 1.329 3.027 1.13.029 2.264.012 3.395.012Q92.326 63.988 88.7 55.9zm-4.634 10.245c.9-2.136 1.844-4.254 2.77-6.377.059-.124.12-.247.182-.369q1.5 3.356 2.941 6.74c-1.965.006-3.93-.006-5.893.006z" fill="#3d6da5"/>
	<path d="M27.38 71.144h-2.116v2.116h2.116zm3.96 4.185h-2.116v2.116h2.116zm-5.119-9.759h-2.116v2.116h2.116zm10.565 11.724h-2.117v2.117h2.117zm13.006-6.15h2.116v2.116h-2.116zm-3.96 4.185h2.116v2.116h-2.116zm5.118-9.759h2.117v2.116H50.95zM40.386 77.294H42.5v2.117h-2.114zM27.38 56.856h-2.116V54.74h2.116zm3.96-4.185h-2.116v-2.116h2.116zm-5.119 9.759h-2.116v-2.116h2.116zm10.565-11.724h-2.117v-2.117h2.117zm13.006 6.15h2.116V54.74h-2.116zm-3.96-4.185h2.116v-2.116h-2.116zm5.118 9.759h2.117v-2.116H50.95zM40.386 50.706H42.5v-2.117h-2.114z" fill="#5899d4"/>
	<path d="M30.64 79.363h-1.209v1.209h1.209zm3.272 1.419H32.7v1.209h1.209zm-8.772-5.894h-1.21V76.1h1.21zm2.487 2.48h-1.209v1.209h1.209zm-6.418-12.253H20v1.209h1.209zm.656 3.533h-1.209v1.209h1.209zm1.309 3.23h-1.21v1.209h1.21zm14.213 9.61h-1.209V82.7h1.209zm9.145-2.125h1.209v1.209h-1.209zm-3.272 1.419h1.209v1.209H43.26zm8.772-5.894h1.21V76.1h-1.21zm-2.487 2.48h1.209v1.209h-1.209zm6.418-12.253h1.209v1.209h-1.209zm-.656 3.533h1.209v1.209h-1.209zM54 71.878h1.21v1.209H54zm-14.213 9.61h1.209V82.7h-1.211zM30.64 48.637h-1.209v-1.209h1.209zm3.272-1.419H32.7v-1.209h1.209zm-8.772 5.894h-1.21V51.9h1.21zm2.487-2.48h-1.209v-1.209h1.209zm-6.418 12.253H20v-1.209h1.209zm.656-3.533h-1.209v-1.209h1.209zm1.309-3.23h-1.21v-1.209h1.21zm14.213-9.61h-1.209V45.3h1.209zm9.145 2.125h1.209v-1.209h-1.209zm-3.272-1.419h1.209v-1.209H43.26zm8.772 5.894h1.21V51.9h-1.21zm-2.487-2.48h1.209v-1.209h-1.209zm6.418 12.253h1.209v-1.209h-1.209zm-.656-3.533h1.209v-1.209h-1.209zM54 56.122h1.21v-1.209H54zm-14.213-9.61h1.209V45.3h-1.211z" fill="#43a9de"/>
	<path d="M40.849 66.582v4.526h-4.526v-4.526zm-9.324-4.845v4.526h4.526v-4.526zm9.6 0v4.526h4.526v-4.526zm-4.8-4.845v4.526h4.526v-4.526z" fill="#2d6daa"/>
	<path d="M36.323 71.673h-3.174v3.174h3.174zm-5.376-5.41h-3.175v3.174h3.175zm9.9 5.41h3.174v3.174h-3.172zm5.376-5.41H49.4v3.174h-3.175zm-9.9-9.936h-3.174v-3.174h3.174zm-5.376 5.41h-3.175v-3.174h3.175zm9.9-5.41h3.174v-3.174h-3.172zm5.376 5.41H49.4v-3.174h-3.175z" fill="#4275be"/>
	<path d="m38.586 47.512 1.8 1.286v-.157l-1.705-1.216 1.198-.913h-.094v-.086l-1.199.912-1.199-.912v.086h-.094l1.198.913-1.705 1.216v.157l1.8-1.286zm-2.263 5.818v.156l2.243-1.608h.04l2.243 1.608v-.156l-2.146-1.538 1.683-1.221v-.156l-1.781 1.293h-.038l-1.781-1.293v.156l1.683 1.221-2.146 1.538zm.036 17.778-.505.565h.423l.506-.565h-.424zm-1.939-2.584 1.903.161v-.316l-1.963-.162-.002-.027-.12-1.917h-.316l.121 1.917-.036-.003-3.06-.262v.316l3.118.263.002.027.264 3.152h.317l-.264-3.152.036.003zm-3.08 7.244 1.809-1.35v-.158l-1.809 1.35v.158zm15.839-27.131h-.127l-.124 1.918h.127l.124-1.918zm-3.727-1.419h-.158l-1.029 1.371h.158l1.029-1.371zm-2.179 1.371-.623-2.077h-.131l.622 2.077h.132zm-4.62-2.077h-.131l-.623 2.077h.132l.622-2.077zm8.35 2.109-2.5.634v.13l2.608-.661.012.02 1.074 1.811h.148l-1.107-1.864.041-.01 1.253-.318v-.13l-1.361.345-.012-.02-.794-1.34h-.148l.827 1.393-.041.01zM31.525 61.878l-.578-.513v.372h-.056l.634.563v-.422zm-5.304-.776 1.551-.364v-.131l-1.551.364v.131zm.809-4.246 1.152 1.707h.152l-1.151-1.707h-.153zm3.917 9.779.578-.513V65.7l-.634.563h.056v.372zm5.33-10.308h-.423l.505.565h.424l-.506-.565zM31.34 52.39l1.809 1.35v-.158l-1.809-1.35v.158zm-4.392 11.563 1.567-2.216h-.155l-1.492 2.11-.902-1.417h-.15l.967 1.519v.102l-.967 1.519h.15l.902-1.417 1.492 2.11h.155l-1.567-2.216v-.094zm3.999-3.868 3.06-.262.036-.003-.121 1.917h.316l.12-1.917.002-.027 1.963-.162v-.316l-1.903.161-.036.003.264-3.152h-.317l-.264 3.152-.002.027-3.118.263v.316zm-2.613 9.352h-.152l-1.152 1.707h.153l1.151-1.707zm-2.113-2.408 1.551.364v-.131l-1.551-.364v.131zm15.953-13.876-.413-2.447h-.128l.413 2.447h.128zm9.182 9.277h-.15l-.902 1.417-1.492-2.11h-.155l1.567 2.216v.094l-1.567 2.216h.155l1.492-2.11.902 1.417h.15l-.967-1.519v-.102l.967-1.519zm-5.524 13.18-1.809-1.35v.158l1.809 1.35v-.158zm0-23.378-1.809 1.35v.158l1.809-1.35v-.158zm-5.443 18.876.506.565h.423l-.505-.565h-.424zM51.488 54.74l.933-1.628h-.146l-.933 1.628h.146zm-5.263 13.175-3.06.262-.036.003.121-1.917h-.316l-.12 1.917-.002.027-1.963.162v.316l1.903-.161.036-.003-.264 3.152h.317l.264-3.152.002-.027 3.118-.263v-.316zm6.842-7.32v.152l2.24-1.471v-.151l-2.24 1.47zm-1.159-4.877 2.09-.117v-.127l-2.09.117v.127zm1.159 5.977 2.896.527v-.129l-2.896-.527v.129zm.563-4.323-1.722-1.023v.147l1.703 1.012-.011.025-1.189 2.781h.138l1.172-2.742.031.018 1.555.925v-.148l-1.536-.912.01-.025.56-1.308h-.138l-.542 1.268-.031-.018zm-3.262-5.035.232 2.403h.127l-.229-2.38 1.534.273v-.128l-1.547-.276-.154-1.597h-.127l.151 1.574-2.407-.428v.129l2.42.43zm-.823-2.075-1.597.737v.14l1.597-.737v-.14zm.597 20.882-1.152-1.707h-.152l1.151 1.707h.153zm-4.495-5.022.578.513v-.372h.056l-.634-.563v.422zm1.298-13.451.276 2.588-.039-.004-3.159-.357v.126l3.212.364.002.025.262 3.15h.126l-.262-3.161.038.004 2.391.27v-.127l-2.442-.276-.003-.025-.275-2.577h-.127zm-6.132 4.221.505-.565h-.423l-.506.565h.424zm4.834 4.986v.422l.634-.563h-.056v-.372l-.578.513zm3.191-3.315h.152l1.152-1.707h-.153l-1.151 1.707zm2.113 2.408-1.551-.364v.131l1.551.364v-.131zm-7.846-1.492-.264-3.152h-.317l.264 3.152-.036-.003-1.903-.161v.316l1.963.162.002.027.12 1.917h.316l-.121-1.917.036.003 3.06.262v-.316l-3.118-.263-.002-.027zm7.846 7.419-1.551.364v.131l1.551-.364v-.131zM40.849 74.67v-.156l-2.243 1.608h-.04l-2.243-1.608v.156l2.146 1.538-1.683 1.221v.156l1.781-1.293h.038l1.781 1.293v-.156l-1.683-1.221 2.146-1.538zm-10.856 4.693h.127l.124-1.918h-.127l-.124 1.918zm10.526 2.125h.131l.623-2.077h-.132l-.622 2.077zm4.719-2.179 1.107-1.864h-.148l-1.074 1.811-.012.02-2.608-.661v.13l2.5.634.041.01-.827 1.393h.148l.794-1.34.012-.02 1.361.345v-.13l-1.253-.318-.041-.01zm-3.605-2.015h.128l.413-2.447h-.128l-.413 2.447zm.632 2.117 1.029 1.371h.158l-1.029-1.371h-.158zm-6.366 0 .623 2.077h.131l-.622-2.077h-.132zm-2.179 1.371h.158l1.029-1.371h-.158l-1.029 1.371zm-1.551-1.403 2.5-.634v-.13l-2.608.661-.012-.02-1.074-1.811h-.148l1.107 1.864-.041.01-1.253.318v.13l1.361-.345.012.02.794 1.34h.148l-.827-1.393.041-.01zm2.829-4.532.413 2.447h.128l-.413-2.447h-.128zm3.588 5.641-1.8-1.286v.157l1.705 1.216-1.198.913h.094v.086l1.199-.912 1.199.912v-.086h.094l-1.198-.913 1.705-1.216v-.157l-1.8 1.286zm14.481-13.083 2.24 1.47v-.151l-2.24-1.471v.152zm-1.159 5.004 2.09.117v-.127l-2.09-.117v.127zm1.813-1.981-1.172-2.742h-.138l1.189 2.781.011.025-1.703 1.012v.147l1.722-1.023.031-.018.542 1.268h.138l-.56-1.308-.01-.025 1.536-.912v-.148l-1.555.925-.031.018zm-.654-3.994 2.896-.527v-.129l-2.896.527v.129zm1.784-2.468 1.139-1.081h-.027v-.148l-1.217 1.155-1.679-1.602v.14h-.036l1.609 1.535v.07l-1.609 1.535h.036v.14l1.679-1.602 1.217 1.155v-.148h.027l-1.139-1.081v-.068zM50.498 75.64l.229-2.38H50.6l-.232 2.403-2.42.43v.129l2.407-.428-.151 1.574h.127l.154-1.597 1.547-.276v-.128l-1.534.273zm-2.55 1.361 1.597.737v-.14l-1.597-.737v.14zm3.394-3.741.933 1.628h.146l-.933-1.628h-.146zm-1.55-.936-2.391.27-.038.004.262-3.161h-.126l-.262 3.15-.002.025-3.212.364v.126l3.159-.357.039-.004-.276 2.588h.127l.275-2.577.003-.025 2.442-.276v-.127zm-2.864 5.121.124 1.918h.127l-.124-1.918h-.127zM31.934 48.691l-1.107 1.864h.148l1.074-1.811.012-.02 2.608.661v-.13l-2.5-.634-.041-.01.827-1.393h-.148l-.794 1.34-.012.02-1.361-.345v.13l1.253.318.041.01zm-2.71 2.308-1.597-.737v.14l1.597.737v-.14zm-2.55 1.361-.229 2.38h.127l.232-2.403 2.42-.43v-.129l-2.407.428.151-1.574h-.127l-.154 1.597-1.547.276v.128l1.534-.273zm-2.569 8.235-2.24-1.47v.151l2.24 1.471v-.152zm1.159-5.004-2.09-.117v.127l2.09.117v-.127zm-1.813 1.981 1.172 2.742h.138l-1.189-2.781-.011-.025 1.703-1.012v-.147l-1.722 1.023-.031.018-.542-1.268h-.138l.56 1.308.01.025-1.536.912v.148l1.555-.925.031-.018zm2.379-2.832-.933-1.628h-.146l.933 1.628h.146zm9.077-6.151-1.029-1.371h-.158l1.029 1.371h.158zm-7.527 7.087 2.391-.27.038-.004-.262 3.161h.126l.262-3.15.002-.025 3.212-.364v-.126l-3.159.357-.039.004.276-2.588H30.1l-.275 2.577-.003.025-2.442.276v.127zm7.746-2.523.413-2.447h-.128l-.413 2.447h.128zm-4.882-2.598-.124-1.918h-.127l.124 1.918h.127zm-.017 24.774-.276-2.588.039.004 3.159.357v-.126l-3.212-.364-.002-.025-.262-3.15h-.126l.262 3.161-.038-.004-2.391-.27v.127l2.442.276.003.025.275 2.577h.127zm-4.543-2.069-.933 1.628h.146l.933-1.628h-.146zm-.42-.978-2.09.117v.127l2.09-.117v-.127zm2.363 5.456 1.597-.737v-.14l-1.597.737v.14zm-.823-2.075-.232-2.403h-.127l.229 2.38-1.534-.273v.128l1.547.276.154 1.597h.127l-.151-1.574 2.407.428v-.129l-2.42-.43zm-2.699-8.258v-.152l-2.24 1.471v.151l2.24-1.47zm-.563 3.223 1.722 1.023v-.147l-1.703-1.012.011-.025 1.189-2.781h-.138l-1.172 2.742-.031-.018-1.555-.925v.148l1.536.912-.01.025-.56 1.308h.138l.542-1.268.031.018zm-2.36-5.513h.027v.148l1.217-1.155 1.679 1.602v-.14h.036l-1.609-1.535v-.07l1.609-1.535h-.036v-.14l-1.679 1.602-1.217-1.155v.148h-.027l1.139 1.081v.068l-1.139 1.081zm2.923 1.19-2.896-.527v.129l2.896.527v-.129zm0-4.739-2.896.527v.129l2.896-.527v-.129z" fill="#2a4a6c"/>
</svg>
