<svg xmlns="http://www.w3.org/2000/svg" viewBox="0 0 300 300">
	<defs>
		<style>
			.a,.b,.c{fill:none;stroke-miterlimit:10}.a,.b{stroke:#06486d}.a{stroke-width:.73px}.b{stroke-width:.37px}.c{stroke:#093d5f;stroke-width:.28px}.d{fill:#006da7}.e{fill:#2f77bb}.f{fill:#139ad6}.g{fill:#03a8d9}.h{fill:#093d5f}
		</style>
	</defs>
	<path class="a" d="M149.5 88.1 130.8 67"/>
	<path class="b" d="m90.6 71.9 14.7 21.2"/>
	<path class="a" d="M149.5 88.1 168 66.9"/>
	<path class="a" d="m171.8 111.7 22.1-18.6"/>
	<path class="a" d="m171.8 111.7 22.1 19.3"/>
	<path class="a" d="m168.2 155.2-18.7-20.7"/>
	<path class="a" d="m131 155.2 18.5-20.7"/>
	<path class="a" d="m105.3 130.1 21.2-18.5"/>
	<path class="a" d="m105.3 93.1 21.2 18.5"/>
	<path class="a" d="m149.5 88.1-44.2 5"/>
	<path class="a" d="m149.5 88.1 44.4 5"/>
	<path class="a" d="M171.8 111.7 168 66.9"/>
	<path class="a" d="m171.8 111.7-3.6 43.5"/>
	<path class="a" d="m193.9 131-44.4 3.5"/>
	<path class="a" d="m105.3 130.1 44.2 4.4"/>
	<path class="a" d="m131 155.2-4.5-43.6"/>
	<path class="a" d="m130.8 67-4.3 44.6"/>
	<path class="b" d="m85 98.8 20.3-5.7"/>
	<path class="b" d="M109.6 51.9 130.8 67"/>
	<path class="b" d="M135.7 42.3 130.8 67"/>
	<path class="b" d="M135.7 42.3 168 66.9"/>
	<path class="b" d="m163.2 42.3 4.8 24.6"/>
	<path class="b" d="m189.3 51.9-21.3 15"/>
	<path class="b" d="m208.3 71.9-40.3-5"/>
	<path class="b" d="m193.9 93.1 14.4-21.2"/>
	<path class="b" d="m193.9 93.1 20.6 5.7"/>
	<path class="b" d="M193.9 93.1 214 124"/>
	<path class="b" d="M163.2 42.3 130.8 67"/>
	<path class="b" d="m193.9 93.1-4.6-41.2"/>
	<path class="b" d="m193.9 131 20.1-7"/>
	<path class="b" d="m193.9 131 20.6-32.2"/>
	<path class="b" d="m193.9 131 14.5 19.6"/>
	<path class="b" d="m193.9 131-4.5 39.6"/>
	<path class="b" d="m168.2 155.2 21.2 15.4"/>
	<path class="b" d="m168.2 155.2 40.2-4.6"/>
	<path class="b" d="m168.2 155.2-4.9 25"/>
	<path class="b" d="m168.2 155.2-32.4 25"/>
	<path class="b" d="m131 155.2 4.8 25"/>
	<path class="b" d="m131 155.2 32.3 25"/>
	<path class="b" d="m131 155.2-21.3 15.4"/>
	<path class="b" d="m131 155.2-40.3-4.4"/>
	<path class="b" d="m105.3 130.1-14.6 20.7"/>
	<path class="b" d="m105.3 130.1 4.4 40.5"/>
	<path class="b" d="m105.3 130.1-20.4-6.4"/>
	<path class="b" d="m105.3 93.1-20.4 30.6"/>
	<path class="b" d="M105.3 130.1 85 98.8"/>
	<path class="b" d="m109.6 51.9-4.3 41.2"/>
	<path class="b" d="m90.6 71.9 40.2-4.9"/>
	<path class="c" d="M109.6 51.9 94 44.4"/>
	<path class="c" d="m109.6 51.9-1.2-17.2"/>
	<path class="c" d="m135.7 42.3-27.3-7.6"/>
	<path class="c" d="m135.7 42.3-11.6-14.5"/>
	<path class="c" d="m135.7 42.3 4.9-17.2"/>
	<path class="c" d="m109.6 51.9 14.5-24.1"/>
	<path class="c" d="m163.2 42.3-22.6-17.2"/>
	<path class="c" d="m163.2 42.3-5.1-17.9"/>
	<path class="c" d="m135.7 42.3 22.4-17.9"/>
	<path class="c" d="m163.2 42.3 11.7-14.5"/>
	<path class="c" d="m189.3 51.9-14.4-24.1"/>
	<path class="c" d="m189.3 51.9 1.6-17.2"/>
	<path class="c" d="m163.2 42.3 27.7-7.6"/>
	<path class="c" d="m189.3 51.9 16-8.3"/>
	<path class="c" d="m189.3 51.9 27.9 4.1"/>
	<path class="c" d="m208.3 71.9 8.9-15.9"/>
	<path class="c" d="m208.3 71.9-3-28.3"/>
	<path class="c" d="m208.3 71.9 18.3-1.5"/>
	<path class="c" d="m208.3 71.9 25.1 14.2"/>
	<path class="c" d="m214.5 98.8 12.1-28.4"/>
	<path class="c" d="m214.5 98.8 18.9-12.7"/>
	<path class="c" d="m214.5 98.8 21.1 4.3"/>
	<path class="c" d="m214 124 21.6-20.9"/>
	<path class="c" d="m214 124 22.2-4.2"/>
	<path class="c" d="m214.5 98.8 21.7 21"/>
	<path class="c" d="m214 124 18.9 12.6"/>
	<path class="c" d="m208.4 150.6 24.5-14"/>
	<path class="c" d="m208.4 150.6 18.1 1.8"/>
	<path class="c" d="m214 124 12.5 28.4"/>
	<path class="c" d="m208.4 150.6 8.6 16"/>
	<path class="c" d="m208.4 150.6-3.3 28.1"/>
	<path class="c" d="m205.1 178.7-15.7-8.1"/>
	<path class="c" d="m189.4 170.6 1.3 17.6"/>
	<path class="c" d="m189.4 170.6 27.6-4"/>
	<path class="c" d="M189.4 170.6 175 195.1"/>
	<path class="c" d="m163.3 180.2 11.7 14.9"/>
	<path class="c" d="m163.3 180.2 27.4 8"/>
	<path class="c" d="m163.3 180.2-5.1 18.3"/>
	<path class="c" d="m163.3 180.2-22.6 18.3"/>
	<path class="c" d="m135.8 180.2 4.9 18.3"/>
	<path class="c" d="m135.8 180.2 22.4 18.3"/>
	<path class="c" d="m135.8 180.2-11.6 14.9"/>
	<path class="c" d="m109.7 170.6 14.5 24.5"/>
	<path class="c" d="m135.8 180.2-27.5 8.4"/>
	<path class="c" d="m109.7 170.6-1.4 18"/>
	<path class="c" d="m109.7 170.6-15.9 8.7"/>
	<path class="c" d="m90.7 150.8 3.1 28.5"/>
	<path class="c" d="m109.7 170.6-27.8-3.7"/>
	<path class="c" d="m90.7 150.8-8.8 16.1"/>
	<path class="c" d="m90.7 150.8-18.2 1.7"/>
	<path class="c" d="m90.7 150.8-25.1-14"/>
	<path class="c" d="m84.9 123.7-19.3 13.1"/>
	<path class="c" d="M84.9 123.7 63 119.8"/>
	<path class="c" d="m84.9 123.7-12.4 28.8"/>
	<path class="c" d="m85 98.8-22 21"/>
	<path class="c" d="m84.9 123.7-22-20.6"/>
	<path class="c" d="M85 98.8 66.2 86.3"/>
	<path class="c" d="m85 98.8-22.1 4.3"/>
	<path class="c" d="M85 98.8 72.6 70.5"/>
	<path class="c" d="m90.6 71.9-18-1.4"/>
	<path class="c" d="M90.6 71.9 66.2 86.3"/>
	<path class="c" d="m90.6 71.9-8.5-15.1"/>
	<path class="c" d="M90.6 71.9 94 44.4"/>
	<path class="c" d="m109.6 51.9-27.5 4.9"/>
	<path class="d" d="m115.706 122.207.149-21.3 21.34.15-.15 21.3z"/>
	<path class="d" d="m138.768 98.644.149-21.3 21.339.15-.149 21.299z"/>
	<path class="d" d="m138.867 145.27.148-21.3 21.34.15-.149 21.299z"/>
	<path class="d" d="m161.929 122.208.148-21.3 21.34.15-.149 21.3z"/>
	<path class="e" d="m160.62 74.32.103-14.8 14.85.103-.104 14.8z"/>
	<path class="e" d="m123.561 74.218.104-14.8 14.85.104-.104 14.8z"/>
	<path class="e" d="m97.881 100.4.104-14.799 14.85.104-.104 14.8z"/>
	<path class="e" d="m97.88 137.459.104-14.8 14.85.104-.104 14.8z"/>
	<path class="e" d="m186.398 137.561.104-14.8 14.85.104-.104 14.8z"/>
	<path class="e" d="m186.5 100.503.103-14.8 14.85.104-.104 14.8z"/>
	<path class="f" d="m85.697 76.67.068-9.7 9.73.068-.068 9.7z"/>
	<path class="f" d="m104.73 56.73.068-9.7 9.73.069-.068 9.7z"/>
	<path class="f" d="m130.813 47.164.068-9.7 9.73.068-.068 9.7z"/>
	<path class="f" d="m80.057 103.658.068-9.7 9.69.068-.068 9.7z"/>
	<path class="f" d="m203.463 66.978 9.7-.068.067 9.73-9.7.067z"/>
	<path class="f" d="m184.524 47.01 9.7-.067.067 9.73-9.7.068z"/>
	<path class="f" d="m158.257 37.394 9.7-.068.068 9.73-9.7.068z"/>
	<path class="f" d="m209.15 93.937 9.7-.067.068 9.73-9.7.067z"/>
	<path class="e" d="m123.559 163.038.103-14.8 14.85.104-.104 14.8z"/>
	<path class="e" d="m160.518 162.939.103-14.8 14.85.104-.104 14.8z"/>
	<path class="f" d="m203.517 155.523.068-9.7 9.73.068-.068 9.7z"/>
	<path class="f" d="m184.584 175.562.068-9.7 9.73.068-.068 9.7z"/>
	<path class="f" d="m158.402 185.028.067-9.7 9.73.068-.068 9.7z"/>
	<path class="f" d="m209.158 128.534.067-9.7 9.69.068-.068 9.7z"/>
	<path class="f" d="m85.816 145.797 9.7-.067.067 9.73-9.7.067z"/>
	<path class="f" d="m104.755 165.764 9.7-.067.068 9.73-9.7.067z"/>
	<path class="f" d="m130.92 175.282 9.7-.068.068 9.73-9.7.068z"/>
	<path class="f" d="m80.127 118.838 9.7-.068.068 9.73-9.7.068z"/>
	<path class="g" d="m91.336 46.893.037-5.3 5.34.037-.037 5.3z"/>
	<path class="g" d="m60.319 105.802.037-5.3 5.34.038-.038 5.3z"/>
	<path class="g" d="m63.441 88.985.037-5.3 5.34.038-.037 5.3z"/>
	<path class="g" d="m121.447 30.478.037-5.3 5.34.038-.037 5.3z"/>
	<path class="g" d="m69.886 73.175.037-5.3 5.34.037-.037 5.3z"/>
	<path class="g" d="m79.453 58.976.037-5.3 5.34.038-.037 5.3z"/>
	<path class="g" d="m105.82 31.96 5.3-.036.038 5.34-5.3.036z"/>
	<path class="g" d="m138.249 21.834 5.3-.037.037 5.34-5.3.037z"/>
	<path class="g" d="m223.961 73.179.037-5.3 5.34.037-.037 5.3z"/>
	<path class="g" d="m230.91 88.99.036-5.3 5.34.037-.037 5.3z"/>
	<path class="g" d="m214.496 58.98.037-5.3 5.34.037-.037 5.3z"/>
	<path class="g" d="m233.528 105.707.037-5.3 5.34.037-.037 5.3z"/>
	<path class="g" d="m155.484 27.156.037-5.3 5.34.037-.037 5.3z"/>
	<path class="g" d="m172.302 30.38.037-5.3 5.34.037-.037 5.3z"/>
	<path class="g" d="m91.336 46.893.037-5.3 5.34.037-.037 5.3z"/>
	<path class="g" d="m60.319 105.802.037-5.3 5.34.038-.038 5.3z"/>
	<path class="g" d="m202.714 46.895.037-5.3 5.34.038-.037 5.3z"/>
	<path class="g" d="m63.441 88.985.037-5.3 5.34.038-.037 5.3z"/>
	<path class="g" d="m121.447 30.478.037-5.3 5.34.038-.037 5.3z"/>
	<path class="g" d="m69.886 73.175.037-5.3 5.34.037-.037 5.3z"/>
	<path class="g" d="m79.453 58.976.037-5.3 5.34.038-.037 5.3z"/>
	<path class="g" d="m105.82 31.96 5.3-.036.038 5.34-5.3.036z"/>
	<path class="g" d="m138.249 21.834 5.3-.037.037 5.34-5.3.037z"/>
	<path class="g" d="m188.213 37.328.037-5.3 5.34.037-.037 5.3z"/>
	<path class="g" d="m233.528 105.707.037-5.3 5.34.037-.037 5.3z"/>
	<path class="g" d="m155.484 27.156.037-5.3 5.34.037-.037 5.3z"/>
	<path class="g" d="m172.302 30.38.037-5.3 5.34.037-.037 5.3z"/>
	<path class="g" d="m202.71 181.334.038-5.3 5.34.037-.037 5.3z"/>
	<path class="g" d="m233.527 122.524.037-5.3 5.34.037-.038 5.3z"/>
	<path class="g" d="m91.333 181.43.037-5.299 5.34.037-.037 5.3z"/>
	<path class="g" d="m230.708 139.442.037-5.3 5.34.037-.037 5.3z"/>
	<path class="g" d="m172.893 198.455.053-5.3 5.34.053-.053 5.3z"/>
	<path class="g" d="m223.859 155.252.037-5.3 5.34.037-.037 5.3z"/>
	<path class="g" d="m214.594 169.552.037-5.3 5.34.037-.037 5.3z"/>
	<path class="g" d="m188.194 185.982 5.3-.037.037 5.34-5.3.036z"/>
	<path class="g" d="m155.563 195.81 5.3-.037.037 5.34-5.3.037z"/>
	<path class="g" d="m105.834 191.301.037-5.3 5.34.038-.037 5.3z"/>
	<path class="g" d="m69.784 155.247.037-5.3 5.34.038-.037 5.3z"/>
	<path class="g" d="m63.44 139.438.037-5.3 5.34.037-.037 5.3z"/>
	<path class="g" d="m79.451 169.548.037-5.3 5.34.038-.037 5.3z"/>
	<path class="g" d="m60.318 122.52.037-5.3 5.34.037-.037 5.3z"/>
	<path class="g" d="m138.36 201.17.038-5.3 5.34.038-.037 5.3z"/>
	<path class="g" d="m121.444 197.846.037-5.3 5.34.038-.038 5.3z"/>
	<path class="f" d="M35.3 275v-15.9H16V275H8.6v-39.2H16v16.5h19.3v-16.5h7.3V275Z"/>
	<path class="d" d="M80 267.5H59.5l-3.4 7.4h-8l17.6-39.2h8.1l17.6 39.2h-8.1ZM69.8 244l-7.3 16.7H77Z"/>
	<path class="h" d="M115.7 263.4h-11.1v11.5h-7.4v-39.2h18.5c19.2 0 19.2 27.7 0 27.7Zm-11.1-6.8h11.1c9.5 0 9.4-13.9 0-13.9h-11.1Z"/>
	<path class="h" d="M170.8 274.9H162l-11.4-13.1h-7.1v13.1h-7.4v-39.2h18.7c9.2.1 14.1 6.2 14.1 13s-2.5 10.8-9.9 12.3l11.9 13.4Zm-27.3-32.3v12.6h11.3c4.7 0 6.7-3.1 6.7-6.3s-2.1-6.3-6.7-6.3Z"/>
	<path class="h" d="M213.3 255.6c-.1 10.1-6.3 20.3-20.1 20.3s-20.2-10-20.2-20.3 6.6-20.7 20.2-20.7 20.2 10.4 20.1 20.7Zm-33 .2c.2 6.4 3.6 13.3 12.9 13.3s12.7-6.9 12.8-13.4-3.6-14-12.8-14-13.1 7.4-12.9 14Z"/>
	<path class="h" d="M241 235.7h8.1v.3l-13.3 19.1 13.7 19.6v.2h-8.3l-10-14.7-10 14.7h-8.3v-.2l13.6-19.6-13.2-19.1v-.3h8.1l9.8 14.6Z"/>
	<path class="h" d="m271.7 251.9 10.4-16.2h8.9v.3l-15.6 22.7v16.2H268v-16.2L252.9 236v-.3h8.8Z"/>
</svg>
