<svg xmlns="http://www.w3.org/2000/svg" width="200" height="128">
	<path d="M87.9 56.392v15.644a.979.979 0 1 1-1.958-.025v-6.942H75.93v6.967a.98.98 0 0 1-1.959-.025V56.367a.98.98 0 0 1 1.959.025v6.843h10.016v-6.843a.979.979 0 1 1 1.958 0zm19.712 15.173-7.041-15.371a1.25 1.25 0 0 0-1.215-.868h-.1a1.28 1.28 0 0 0-1.24.868L90.98 71.59a1.132 1.132 0 0 0-.124.52.889.889 0 0 0 .885.893h.007a.982.982 0 0 0 .943-.669l1.81-4.042h9.52l1.81 3.992a1.069 1.069 0 0 0 .969.716.942.942 0 0 0 .942-.942 1.328 1.328 0 0 0-.126-.493zm-12.343-5.058 3.992-8.875 3.992 8.875zm29.182-5.776v-.05a4.787 4.787 0 0 0-1.339-3.421 6.84 6.84 0 0 0-4.934-1.736h-6.495a.991.991 0 0 0-.967.992v15.495a.98.98 0 0 0 1.959.025v-5.9h4.983l4.884 6.347a1.144 1.144 0 0 0 .917.521 1.024 1.024 0 0 0 .992-.967 1.065 1.065 0 0 0-.322-.719l-4.314-5.553c2.703-.522 4.636-2.183 4.636-5.034zm-1.983.074c0 2.231-1.859 3.57-4.463 3.57h-5.33v-7.041h5.355c2.8 0 4.438 1.289 4.438 3.421zm15.7 3.1a4.188 4.188 0 0 0 2.752-4.016v-.05a3.856 3.856 0 0 0-1.116-2.777 6.373 6.373 0 0 0-4.537-1.537h-6.421a.991.991 0 0 0-.967.992v15.37a.991.991 0 0 0 .967.992h6.743c3.793 0 6.3-1.76 6.3-4.736v-.049c-.007-2.38-1.669-3.57-3.726-4.194zm-8.355-6.619h5.281c2.479 0 3.842 1.115 3.842 2.826v.049c0 2.033-1.636 3.1-3.991 3.1h-5.132zM139.9 68.02c0 1.934-1.636 3.1-4.264 3.1h-5.826V65h5.479c3.024 0 4.611 1.091 4.611 2.975zm13.216-12.793a8.793 8.793 0 0 0-8.876 8.975v.049a8.852 8.852 0 1 0 17.7-.049v-.05a8.71 8.71 0 0 0-8.826-8.925zm6.793 9.024a6.818 6.818 0 0 1-6.793 7.116 6.9 6.9 0 0 1-6.843-7.165v-.05a6.817 6.817 0 0 1 6.793-7.115 6.9 6.9 0 0 1 6.843 7.165zm19.141-3.52v-.05a4.79 4.79 0 0 0-1.338-3.421 6.843 6.843 0 0 0-4.934-1.736h-6.5a.989.989 0 0 0-.966.992v15.495a.979.979 0 1 0 1.958.025v-5.9h4.984l4.883 6.347a1.144 1.144 0 0 0 .917.521 1.024 1.024 0 0 0 .992-.967 1.065 1.065 0 0 0-.322-.719l-4.314-5.553c2.705-.522 4.638-2.183 4.638-5.034zm-1.983.074c0 2.231-1.859 3.57-4.463 3.57h-5.33v-7.041h5.355c2.8 0 4.438 1.289 4.438 3.421zM64.494 63.823c0-.249-.017-.495-.027-.742a21.715 21.715 0 0 0-.371-3.205 18.53 18.53 0 0 0-.2-.936 21.562 21.562 0 0 0-1.733-4.721c-.014-.028-.025-.057-.039-.084a21.879 21.879 0 0 0-2.323-3.611c-.125-.159-.247-.322-.377-.478a21.929 21.929 0 0 0-3.724-3.523c-.2-.147-.4-.288-.6-.428a21.769 21.769 0 1 0 8.789 22.978l.035-.135A21.76 21.76 0 0 0 64.5 64c0-.062 0-.119-.006-.177zm-4.412 3.929a17.789 17.789 0 0 1-17.356 14c-.163 0-.323-.008-.485-.012l-.186-2.278-8.6-3.789-.289 3.276a17.751 17.751 0 1 1 19.109-29.92L41.966 59.756l14.2-7.348a17.873 17.873 0 0 1 2.093 2.992l.034.066-16.048 5.154 17.78-.6a17.577 17.577 0 0 1 .407 2.777l-18.466-1.33zm-25.906-.195 7.163 3.157-.494-6.041h.938v-2.018h-.7v-4.119h.7v-1.184l-3.864-3.781v-.266a.365.365 0 0 0-.729 0v.266l-3.863 3.781v1.184h.7v4.119h-.7v2.018h1.1zm.965-9.021h4.828v4.119h-1.146V60.9a1.269 1.269 0 0 0-2.537 0v1.76h-1.145zm-1.264 12.4 7.76 3.42.12 1.468-8-3.526zm7.969 5.975.12 1.468-8.419-3.711.12-1.361zm-.418-5.11.12 1.468-7.582-3.341.121-1.362z" fill="#5407dd"/>
</svg>
