<svg xmlns="http://www.w3.org/2000/svg" width="500" height="446.977" xml:space="preserve">
	<path fill="#005D96" d="m370.453 158.985-132.369 74.833c-.128.074-.263.132-.393.199l.145.256a109.175 109.175 0 0 1-49.975 12.062c-60.56 0-109.655-49.095-109.655-109.656 0-60.562 49.095-109.656 109.655-109.656 31.212 0 59.353 13.061 79.323 33.989l-49.687 29.11a54.924 54.924 0 0 0-29.632-8.64c-30.484 0-55.197 24.713-55.197 55.197s24.713 55.195 55.197 55.195a54.947 54.947 0 0 0 22.79-4.928l.118.204c.092-.054.175-.117.267-.171l132.368-74.833c12.935-7.467 29.475-3.036 36.939 9.899 7.473 12.933 3.041 29.473-9.894 36.94z"/>
	<path fill="#005D96" d="M144.269 34.71a5.113 5.113 0 1 1 0-10.226 5.113 5.113 0 0 1 0 10.226zm-14.837 9.167a5.068 5.068 0 0 1-.99-3 5.112 5.112 0 0 1 9.81-2.012 109.517 109.517 0 0 0-8.82 5.012zm-11.836-1.202a5.113 5.113 0 1 1 0-10.225 5.113 5.113 0 0 1 0 10.225zm-12.225 14.448a5.112 5.112 0 1 1-.002-10.224 5.112 5.112 0 0 1 .002 10.224zm-9.632 20.061c-.359.08-.729.129-1.112.129a5.114 5.114 0 0 1-5.114-5.112 5.114 5.114 0 0 1 5.114-5.113c2.586 0 4.703 1.929 5.042 4.422a110.683 110.683 0 0 0-3.93 5.674zm-10.373-11.17a5.113 5.113 0 1 1 0-10.225 5.113 5.113 0 0 1 0 10.225zm-1.111-21.117a5.112 5.112 0 1 1-.001-10.225 5.112 5.112 0 0 1 .001 10.225zm-2.668 48.235a5.112 5.112 0 1 1-10.225 0 5.112 5.112 0 0 1 10.225 0zM65.361 70.459a5.112 5.112 0 1 1-.001-10.225 5.112 5.112 0 0 1 .001 10.225zm-8.89 24.45a5.113 5.113 0 1 1-.002-10.226 5.113 5.113 0 0 1 .002 10.226zm-6.669-46.678a5.113 5.113 0 1 1 0-10.225 5.113 5.113 0 0 1 0 10.225zM37.577 71.57a5.113 5.113 0 1 1 0-10.225 5.113 5.113 0 0 1 0 10.225zM19.795 42.675a5.113 5.113 0 1 1 0-10.225 5.113 5.113 0 0 1 0 10.225zm57.529 67.757c1.443 0 2.743.604 3.673 1.567a109.284 109.284 0 0 0-1.554 8.187 5.09 5.09 0 0 1-2.119.471 5.112 5.112 0 0 1-5.112-5.111 5.112 5.112 0 0 1 5.112-5.114z"/>
	<linearGradient id="a" gradientUnits="userSpaceOnUse" x1="280.629" y1="480.7" x2="586.401" y2="480.7" gradientTransform="translate(-112 -344.022)">
		<stop offset="0" style="stop-color:#a7a8a8"/>
		<stop offset=".469" style="stop-color:#fff"/>
		<stop offset="1" style="stop-color:#a7a8a8"/>
	</linearGradient>
	<path fill="url(#a)" d="m182.154 114.369 132.369-74.833c.131-.074.266-.129.395-.201l-.146-.254a109.157 109.157 0 0 1 49.978-12.06c60.561 0 109.652 49.095 109.652 109.656 0 60.561-49.094 109.658-109.652 109.658-31.212 0-59.354-13.062-79.324-33.99l49.688-29.111a54.93 54.93 0 0 0 29.634 8.64c30.484 0 55.196-24.711 55.196-55.195s-24.712-55.197-55.196-55.197a54.956 54.956 0 0 0-22.791 4.929l-.117-.205c-.092.055-.174.12-.268.173l-132.369 74.833c-12.935 7.467-29.474 3.035-36.942-9.898-7.473-12.938-3.04-29.478 9.893-36.945z"/>
	<path fill="#FFF" d="M164.45 41.987a5.112 5.112 0 1 1 0-10.224 5.112 5.112 0 0 1 0 10.224zm-26.006 15.56a5.112 5.112 0 1 1 10.225.003 5.112 5.112 0 0 1-10.225-.003zm-.193-18.683a5.113 5.113 0 0 1-4.698 7.125 5.094 5.094 0 0 1-4.122-2.112 110.18 110.18 0 0 1 8.82-5.013zM99.739 72.201a5.11 5.11 0 0 1-4 4.983 111.124 111.124 0 0 1 3.93-5.674c.032.229.07.454.07.691zm-18.742 39.798a5.091 5.091 0 0 1 1.439 3.546 5.104 5.104 0 0 1-2.993 4.641c.416-2.765.935-5.495 1.554-8.187zm25.222 7.546a5.112 5.112 0 1 1 5.112-5.112 5.111 5.111 0 0 1-5.112 5.112zm-1.339-42.882a5.112 5.112 0 1 1 0 10.226 5.112 5.112 0 0 1 0-10.226zm-3.106 17.554a5.112 5.112 0 1 1 0 10.226 5.112 5.112 0 0 1 0-10.226zm-.679 31.095a5.112 5.112 0 1 1-10.224.002 5.112 5.112 0 0 1 10.224-.002zm20.233-63.763a5.113 5.113 0 1 1 .001-10.225 5.113 5.113 0 0 1-.001 10.225zm1.334 22.004a5.112 5.112 0 1 1 0-10.224 5.112 5.112 0 0 1 0 10.224z"/>
	<g fill="none" stroke="#727171" stroke-width="8" stroke-miterlimit="10">
		<path d="M95.127 295.029v-16.722"/>
		<path d="M83.654 304.989h5.578c3.067 0 7.808 1.954 7.808 7.811s-.558 37.087-.558 40.991c0 3.902 3.626 7.809 7.25 7.809h5.02"/>
		<path d="M137.472 312.241h-14.777a8.365 8.365 0 0 1-8.366-8.366v-23.982"/>
		<path d="M136.917 289.652h-23.424"/>
		<path d="M169.262 312.241h-14.777a8.365 8.365 0 0 1-8.366-8.366v-23.982"/>
		<path d="m168.707 286.584-23.425 10.32"/>
		<path d="M122.973 325.625h34.022a8.367 8.367 0 0 1 8.366 8.366v19.519a8.366 8.366 0 0 1-8.366 8.365h-34.022a8.364 8.364 0 0 1-8.365-8.365v-19.519a8.364 8.364 0 0 1 8.365-8.366z"/>
		<path d="M189.062 284.634h76.686"/>
		<path d="M126.042 318.375v7.25"/>
		<path d="M262.402 332.877v17.287a8.366 8.366 0 0 1-8.366 8.365h-58.004l11.435-46.848"/>
		<path d="M185.993 311.404h83.101"/>
		<path d="M115.722 344.031h49.916"/>
		<path d="M319.147 308.129v55.005"/>
		<path d="M305.763 283.452v79.891"/>
		<path d="M360.836 278.219v86.448"/>
		<path d="M293.074 308.336c0 22.309-.557 41.55-4.461 54.376"/>
		<path d="m331 319.492 20.356 8.644"/>
		<path d="m331 291.049 20.356 8.642"/>
		<path d="M404.06 278.291v74.665a8.362 8.362 0 0 1-8.364 8.364h-5.438"/>
		<path d="m416.818 321.096-27.816 16.105"/>
		<path d="M372.828 344.031h-44.896"/>
		<path d="M414.726 293.07h-25.515"/>
		<path d="m322.354 281.288-33.741 3.905"/>
		<path d="M420.164 291.189h54.586"/>
		<path d="M322.913 298.509h-35.765"/>
		<path d="m425.602 322.979 46.639 39.528"/>
		<path d="M421.419 314.195h45.384c-4.183 17.359-29.488 38.48-47.685 47.894"/>
		<path d="M447.562 278.223v37.018"/>
	</g>
	<g clip-rule="evenodd" fill="none" stroke="#727171" stroke-width="5" stroke-miterlimit="10">
		<path d="M187.508 422.375v-28.81c0-2.776 3.703-2.313 4.281 0 .579 2.314 6.017 20.479 6.711 22.446s4.165 2.198 4.744-.231 5.322-20.363 5.901-22.678c.578-2.313 4.744-2.43 4.744.811v28.462"/>
		<path d="M225.574 391.661h14.347a3.702 3.702 0 0 1 3.702 3.702v20.648a3.702 3.702 0 0 1-3.702 3.702h-14.347a3.702 3.702 0 0 1-3.702-3.702v-20.648a3.701 3.701 0 0 1 3.702-3.702z"/>
		<path d="M251.144 422.26v-28.396c0-2.429 4.513-3.586 5.901-.347s7.419 19.481 8.908 23.073c1.968 4.744 8.1 3.355 8.1-.231v-27.306"/>
		<path d="M293.375 406.524v15.851"/>
		<path d="M359.093 419.599h-19.785a3.703 3.703 0 0 1-3.702-3.703V395.36a3.703 3.703 0 0 1 3.702-3.703h19.785"/>
		<path d="M385.01 419.599h-16.43a3.703 3.703 0 0 1-3.702-3.703v-26.9"/>
		<path d="M393.919 391.31h13.652a3.702 3.702 0 0 1 3.703 3.702v21.231a3.703 3.703 0 0 1-3.703 3.702h-13.652a3.702 3.702 0 0 1-3.702-3.702v-21.231a3.701 3.701 0 0 1 3.702-3.702z"/>
		<path d="M443.555 389.053v26.959a3.702 3.702 0 0 1-3.702 3.702h-17.124a3.701 3.701 0 0 1-3.702-3.702v-26.959"/>
		<path d="M450.959 419.771h17.009a3.702 3.702 0 0 0 3.702-3.702v-21a3.703 3.703 0 0 0-3.702-3.702h-17.009v28.404z"/>
		<path d="M281.227 389.284s7.521 13.885 8.793 15.735c1.272 1.852 6.132 2.546 7.867-.347 1.736-2.893 7.521-15.735 7.521-15.735"/>
		<path d="M95.95 389.362v32.704"/>
		<path d="M118.164 389.362v32.704"/>
		<path d="M95.333 404.479h22.523"/>
		<path d="M129.311 409.417h17.586"/>
		<path d="M159.625 422.144v-26.769a3.703 3.703 0 0 1 3.702-3.702h12.149a3.703 3.703 0 0 1 3.702 3.702v6.637a3.702 3.702 0 0 1-3.702 3.702h-15.62"/>
		<path d="M125.261 422.066s6.787-22.448 8.638-27.385c1.851-4.938 7.098-4.629 8.642 0 1.54 4.628 8.945 27.385 8.945 27.385"/>
		<path d="M175.476 405.482a3.703 3.703 0 0 1 3.702 3.703v12.958"/>
	</g>
</svg>
