<svg xmlns="http://www.w3.org/2000/svg" width="200" height="128">
    <path d="M52.24 59.73l-8.78-8.79a10 10 0 00-3.63-2.19 8 8 0 00-8.41 2.19l-8.8 8.79a10 10 0 00-2.19 3.63 7.89 7.89 0 002.19 8.4l8.79 8.8A10 10 0 0035 82.75a8.17 8.17 0 002.55.43 8.29 8.29 0 005.86-2.62l8.79-8.8a9.85 9.85 0 002.19-3.63 7.93 7.93 0 00-2.19-8.4zm-14.13-6.24a4.87 4.87 0 011.79 1l2.6 2.6-5.06 5.06-5.07-5.06L35 54.5a3 3 0 013.13-1zM25.18 65.07a4.83 4.83 0 011-1.8l2.6-2.6 5.06 5.07-5.06 5.07-2.62-2.62a3 3 0 01-1-3.13zM36.76 78A5 5 0 0135 77l-2.63-2.6 5.07-5.07 5.06 5.06L39.89 77a3 3 0 01-3.13 1zm12.93-11.56a4.83 4.83 0 01-1 1.8l-2.59 2.57-5.1-5.07 5.07-5.07 2.61 2.62a3 3 0 011 3.13" fill="#4aa8de"/>
    <path d="M93.92 73.49v-6.95a10.35 10.35 0 00-.54-3.78C92.3 60 89.56 59 86.36 59c-4.18 0-7.53 1.87-7.78 6.08h4.36c.11-1.73 1.33-2.66 3.42-2.66 2.56 0 3.17 1.18 3.17 2.95v1.15l-5.53.33c-3.57.25-6.34 2.31-6.34 5.87 0 3.06 2.3 5.87 6.77 5.87a6.59 6.59 0 005.69-2.81 2.93 2.93 0 003.16 2.63 4.67 4.67 0 002.23-.5V74.6a2.25 2.25 0 01-.58.07c-.72 0-1.01-.32-1.01-1.18zm-4.39-2.81c0 2.77-2 4.28-4.79 4.28a2.46 2.46 0 01-2.66-2.34 2.61 2.61 0 012.7-2.44l4.75-.36zM102.29 62.22l-.39-2.81h-3.82v18.72h4.53V68.7c0-3 1.66-5.29 4.83-5.29a5.79 5.79 0 01.72 0V59.2h-.58c-2.19-.04-4.42.86-5.29 3.02zM69.35 58.78a6.32 6.32 0 00-5.15 2.47v-9.34h-4.54v26.21h4.54v-9.94c0-2.32 1.16-5.22 3.88-5.22 2.4 0 3.12 1.34 3.12 3.52v11.65h4.54v-12.6c0-3.88-2.36-6.75-6.39-6.75zM119.81 59a6.17 6.17 0 00-5.51 2.87l-.3-2.46h-3.77v18.72h4.5V70.5a13 13 0 01.61-5 3.53 3.53 0 013.24-2.37c2.37 0 3.09 1.33 3.09 3.53v11.48h4.5v-12.5c-.02-3.89-2.36-6.64-6.36-6.64zM174.88 67c-1.83-.28-2.3-.32-4-.54-1-.14-2.16-.54-2.16-1.87a2.2 2.2 0 01.41-1.21 2.25 2.25 0 011-.77 4.58 4.58 0 011.94-.28 3.59 3.59 0 012.45.86 2.6 2.6 0 01.76 1.76h4.28a5.8 5.8 0 00-1.56-3.81 8.1 8.1 0 00-5.91-2.14 8.59 8.59 0 00-5.69 1.87 5.33 5.33 0 00-1.9 4.13 5.21 5.21 0 004.28 5c1.66.36 3.53.46 5.18.71a2 2 0 011.88 2c0 2.06-2.31 2.38-3.82 2.38a4.2 4.2 0 01-2.85-.83 3 3 0 01-.94-1.7H164a6.33 6.33 0 001.95 3.86A8.53 8.53 0 00172 78.6a9 9 0 006.41-2.16 5.72 5.72 0 001.23-1.88 5.66 5.66 0 00.39-2.22c-.03-2.96-2.19-4.83-5.15-5.34zM157.64 67c-1.84-.28-2.31-.32-4-.54-1-.14-2.15-.54-2.15-1.87a2.17 2.17 0 011.43-2 4.8 4.8 0 012-.29 3.64 3.64 0 012.44.87 2.58 2.58 0 01.76 1.76h4.28a5.78 5.78 0 00-1.65-3.85 8.05 8.05 0 00-5.87-2.2 8.55 8.55 0 00-5.68 1.87 5.24 5.24 0 00-1.44 1.89 5.3 5.3 0 00-.47 2.32 5.21 5.21 0 004.28 5c1.66.36 3.53.46 5.19.71a2 2 0 011.87 2c0 2.06-2.3 2.38-3.82 2.38a4.17 4.17 0 01-2.84-.83 3 3 0 01-.95-1.7h-4.24a6.25 6.25 0 001.95 3.86 8.51 8.51 0 006.05 2.16 8.93 8.93 0 006.4-2.16 5.5 5.5 0 001.24-1.88 5.63 5.63 0 00.39-2.22c-.06-2.9-2.22-4.77-5.17-5.28zM137 59a8.08 8.08 0 00-6 2.38 10.49 10.49 0 00-2.7 7.48 10.14 10.14 0 002.87 7.49 8.19 8.19 0 005.91 2.31 8 8 0 006.3-2.63 7.44 7.44 0 001.62-3.51h-4.31a3.42 3.42 0 01-.9 1.59A3.53 3.53 0 01137 75a4 4 0 01-2.77-1.15 4.87 4.87 0 01-1.06-1.7 4.93 4.93 0 01-.31-2h12.54v-1.26a10.5 10.5 0 00-1.62-6.51A7.9 7.9 0 00137 59zm3.94 8h-8.09a4.65 4.65 0 011-2.92 3.87 3.87 0 013.14-1.44 3.77 3.77 0 012.84 1.08 4.84 4.84 0 011.15 3.28z"/>
</svg>
