<svg xmlns="http://www.w3.org/2000/svg" viewBox="-3.36 0.64 616.72 369.22">
	<defs>
		<style>
			.cls-1{fill:#020202}.cls-2{fill:#008ed5}
		</style>
	</defs>
	<path d="M264.602 244.085a38.76 38.76 0 0 1 7.998-5.266c11.895-5.62 30.375-5.08 42.641 8.466 7.312 8.076 10.715 17.529 11.087 28.242.236 6.81-.13 13.583-2.795 19.95-5.145 12.297-13.67 21.25-26.869 24.5-11.308 2.783-22.049 1.075-31.337-6.615-.157-.13-.277-.385-.725-.254v3.755c0 3.55.026 7.101-.02 10.65-.011.828.166 1.213 1.049 1.068a6.066 6.066 0 0 1 .967-.008q166.205 0 332.41.01c.853 0 1.98-.384 2.244.937a2.222 2.222 0 0 1-1.315 2.663q-23.252 12.751-46.444 25.61c-.12.067-.242.133-.365.195-.9.454-1.93.774-2.64-.072a2.267 2.267 0 0 1 .093-2.785l6.197-9.481a73.34 73.34 0 0 0-7.474-.294q-41.27-1.088-82.54-2.154-37.469-.97-74.937-1.929-43.136-1.11-86.271-2.217c-13.273-.339-26.547-.652-39.82-1.01-.877-.024-1.187.128-1.158 1.077.072 2.35-.005 4.703.036 7.053.02 1.19-.493 1.625-1.657 1.62q-9.545-.04-19.09.004c-1.24.007-1.733-.446-1.719-1.697.042-3.872.016-7.746.016-11.619v-94.751c0-2.123.061-2.185 2.172-2.185h17.983c2.275 0 2.282.008 2.283 2.354v4.183zm-.853 33.483a26.938 26.938 0 0 0 1.444 8.915c2.754 7.578 8.099 12.246 16.084 13.365 7.398 1.038 13.53-1.726 17.987-7.67 4.53-6.04 5.544-12.908 3.733-20.18-3.084-12.386-16.073-18.785-27.444-13.448-8.279 3.886-11.407 10.993-11.804 19.018zM230.617 41.554a166.954 166.954 0 0 0-1.216 22.762c.423 20.62 4.734 40.307 14.207 58.736a131.734 131.734 0 0 0 33.913 41.543 198.766 198.766 0 0 0 43.414 26.794 2.211 2.211 0 0 1 1.509 2.552c-.086.772-.434 1.172-1.195 1.195a5.92 5.92 0 0 1-2.182-.228c-20.108-7.017-39.14-16.126-56.156-29.096-19.069-14.534-33.88-32.46-43.27-54.673a147.84 147.84 0 0 1-10.7-43.491 216.627 216.627 0 0 1-.732-26.794c.007-.27-.03-.541-.053-.956a15.305 15.305 0 0 0-7.285 4.854c-3.694 4.531-5.351 9.902-6.204 15.56-1.906 12.65.233 24.861 4.294 36.806 5.246 15.431 13.788 28.993 24.014 41.556 12.77 15.687 27.75 29.005 44.047 40.9.505.367 1.191.647 1.164 1.417-.024.697.353 1.583-.474 2.012a2.852 2.852 0 0 1-2.87-.142q-4.436-2.648-8.858-5.321c-.31-.186-.622-.368-1.038-.613-.611 5.065-3.345 8.965-6.303 12.755a63.907 63.907 0 0 0-5.437 7.639 15.852 15.852 0 0 0-1.398 13.67 5.54 5.54 0 0 1 .355 1.463c.041.661.266 1.506-.515 1.849a2.332 2.332 0 0 1-2.475-.139c-8.75-7.076-16.099-15.199-18.722-26.543-2.213-9.574-1.054-18.932 2.522-28.027.554-1.409 1.115-2.821 1.793-4.171a1.21 1.21 0 0 0-.343-1.729 184.515 184.515 0 0 1-18.36-19.15c-10.904-13.245-19.731-27.673-24.908-44.14a82.593 82.593 0 0 1-2.606-41.451c1.918-9.629 6.646-17.594 15.175-22.912 5.635-3.513 11.901-4.696 18.453-4.806 10.294-.173 19.948 2.412 29.167 6.767a98.716 98.716 0 0 1 32.02 23.577c5.676 6.373 9.648 13.85 13.382 21.453 3.154 6.42 6.173 12.902 9.648 19.165 6.794 12.248 16.604 20.919 29.814 25.73a55.873 55.873 0 0 1 10.367 4.775c8.936 5.526 13.772 13.714 15.197 23.98a61.353 61.353 0 0 1-.736 20.896c-.228 1.115-.754 1.571-1.872 1.507a28.024 28.024 0 0 1-6.268-1.547c-13.917-4.096-27.157-9.7-39.14-17.983-15.639-10.81-27.343-24.759-33.8-42.828a100.672 100.672 0 0 1-5.56-34.851 7.32 7.32 0 0 0-1.419-4.611 31.367 31.367 0 0 0-4.139-4.94 13.82 13.82 0 0 0-.44 3.385 116.592 116.592 0 0 0 3.86 42.28c6.422 22.448 19.42 40.428 37.576 54.861a174.163 174.163 0 0 0 34.039 20.781c.686.326 1.472.537 1.569 1.525.184 1.876-.187 2.36-2.09 2.218-2.044-.152-3.86-1.138-5.743-1.843-14.564-5.45-28.37-12.355-40.896-21.645-14.643-10.86-26.552-24.092-34.752-40.49a115.274 115.274 0 0 1-10.937-35.96 170.013 170.013 0 0 1-.543-39.714 2.174 2.174 0 0 0-1.468-2.582 81.597 81.597 0 0 0-8.396-3.587zm58.716 118.682.189.19a7.329 7.329 0 0 0 2.337 1.611 5.613 5.613 0 0 0-1.919-1.956l-.346-.17c-.093-.201-.214-.396-.434-.153-.201.224-.006.361.173.478zm-67.053-14.42 1.346 1.3a38.741 38.741 0 0 0 4.46 4.036l.127.102-.114-.117a50.412 50.412 0 0 0-4.018-4.398c-.356-.397-.686-.821-1.075-1.181-.348-.323-.716-.45-.738.263zm52.574 22.91a6.54 6.54 0 0 0 2.666 1.529c-.877-.47-1.3-1.485-2.28-1.814l-.413-.297c-.261-.255-.508-.527-.785-.765a155.918 155.918 0 0 1-22.552-23.483 124.396 124.396 0 0 1-23.876-54.153c-3.038-16.685-2.966-33.446-1.116-50.245a2.646 2.646 0 0 1 .575-1.341c1.194-1.63 2.76-1.606 4.423-1.074a64.346 64.346 0 0 1 10.223 4.376c2.91 1.523 3.43 2.533 3.077 5.772a153.388 153.388 0 0 0 .321 38.173c2.543 18.062 8.589 34.758 19.12 49.744a104.77 104.77 0 0 0 23.935 24.29c.262.192.572.684.907.275.338-.411-.223-.608-.45-.84-1.868-1.911-3.788-3.774-5.624-5.716a103.477 103.477 0 0 1-27.623-55.665 145.134 145.134 0 0 1-.698-38.165 3.331 3.331 0 0 1 2.031-2.708 2.69 2.69 0 0 1 2.94.578 42.31 42.31 0 0 1 8.166 9.31 4.895 4.895 0 0 1 .692 2.744 103.232 103.232 0 0 0 4.02 30.813c4.444 14.97 12.204 27.915 23.968 38.258 14.437 12.695 31.574 20.25 49.823 25.587.645.189.952.106 1.078-.658a43.611 43.611 0 0 0-1.641-22.343c-1.865-5.143-4.596-9.692-9.225-12.887a48.296 48.296 0 0 0-9.029-4.67c-5.33-2.216-10.75-4.263-15.563-7.532-8.748-5.94-15.302-13.848-20.4-23.028-3.713-6.686-6.795-13.689-10.245-20.508-4.886-9.657-10.551-18.696-19.131-25.642-10.532-8.526-21.902-15.443-35.057-19.091-7.541-2.092-15.155-3.041-22.894-.993-7.986 2.114-14.217 6.4-17.976 13.996-3.746 7.57-5.042 15.63-4.963 23.942a85.197 85.197 0 0 0 6.204 30.353c7.523 19.254 19.44 35.535 33.914 50.083.25.252.533.87.966.448.494-.48-.167-.803-.425-1.102-3.6-4.192-7.015-8.53-10.194-13.05-10.12-14.387-17.868-29.834-20.76-47.375a77.763 77.763 0 0 1 .119-28.446c1.41-6.897 4.62-12.74 10.292-17.083a16.262 16.262 0 0 1 6.843-3.076 3.515 3.515 0 0 1 3.807 1.188c.772.956.48 1.944.431 2.886a176.777 176.777 0 0 0 1.136 31.31 141.936 141.936 0 0 0 12.07 42.923 126.34 126.34 0 0 0 38.971 48.028 88.275 88.275 0 0 0 9.833 6.802zm-38.407 37.314a2.277 2.277 0 0 0 .188-1.444 17.983 17.983 0 0 1 1.908-8.105 51.835 51.835 0 0 1 6.08-8.831c3.283-4.214 6.18-8.576 6.337-14.209a1.372 1.372 0 0 0-.606-1.295 254.422 254.422 0 0 1-19.42-18.061c-.261-.267-.427-.726-1.06-.654.355 1.632-.566 2.912-1.19 4.273-2.8 6.103-4.845 12.436-5.073 19.184-.27 8.022 2.302 15.253 6.764 21.851a44.57 44.57 0 0 0 6.072 7.29zm42.35-34.806c-.241-.306-.442-.458-.765-.356zm13.94-8.657c-.045-.076-.073-.184-.138-.215-.058-.028-.157.027-.238.046.043.076.07.184.135.217.056.029.156-.028.242-.048zm.61.562-.005.06.11-.018zm-138.079 149.69c-4.527 3.772-9.286 6.51-14.849 7.503-11.738 2.095-22.487.095-31.78-7.858-10.144-8.683-14.991-19.736-15.079-33.01-.05-7.577.718-15.023 4.17-21.875 5.598-11.114 14.005-19.064 26.581-21.39 11.29-2.087 21.805-.11 30.957 7.863 0-1.814.026-3.393-.009-4.97-.024-1.103.434-1.573 1.558-1.57q9.679.036 19.358-.003c1.187-.005 1.65.456 1.639 1.631-.034 3.595-.012 7.19-.012 10.785v67.06c0 1.961-.086 2.047-2.017 2.047h-18.667c-1.678-.001-1.843-.163-1.849-1.799-.005-1.371 0-2.742 0-4.414zm.935-34.09a25.984 25.984 0 0 0-1.482-8.804c-2.808-7.463-8.189-11.93-16.053-12.994-7.733-1.045-14.078 1.784-18.511 8.206-4.225 6.121-4.993 12.947-2.942 20.046 3.635 12.584 16.972 18.534 28.13 12.49 7.686-4.163 10.474-11.193 10.858-18.944zM30.938 243.613a43.448 43.448 0 0 1 9.246-5.52c8.047-3.33 16.303-3.792 24.344-.487 10.956 4.503 16.243 13.232 16.361 24.9.187 18.302.068 36.606.097 54.91.002 1.172-.441 1.643-1.632 1.637-6.27-.03-12.541-.013-18.812-.015-1.66 0-1.833-.169-1.833-1.814l-.008-32.78a114.386 114.386 0 0 0-.821-16.418c-.515-3.513-1.477-6.9-4.46-9.183-4.918-3.764-12.397-2.734-16.816 2.262a21.275 21.275 0 0 0-5.185 12.232 138.575 138.575 0 0 0-.474 13.952q-.035 14.73.007 29.46c.005 1.825-.038 2.336-2.368 2.311-6.085-.064-12.172-.02-18.258-.023-1.608 0-1.848-.236-1.848-1.833q-.002-54.08 0-108.16c0-1.581.215-1.785 1.87-1.785q9.336-.004 18.673 0c1.74 0 1.916.17 1.916 1.88q.003 16.46.001 32.919z" class="cls-1"/>
	<path d="M379.527 142.434c.513-2.321.664-2.405 3.001-2.258 14.237.899 25.438-4.588 33.658-16.168 5.665-7.98 8.965-17.008 11.31-26.422.645-2.585 1.115-5.214 1.738-7.806.22-.92.141-1.2-.935-1.28a50.245 50.245 0 0 1-16.732-3.818c-8.479-3.74-13.747-10.356-16.702-18.973-2.481-7.238-3.452-14.755-4.025-22.338-.054-.709-.24-1.656.656-1.887a2.33 2.33 0 0 1 2.543.471c5.528 5.908 12.528 8.284 20.445 8.443 3.133.063 6.267.125 9.394.307 7.115.412 12.26 4.019 15.878 10.007.498.824.951 1.677 1.468 2.592.556-.664 1.08-1.312 1.628-1.94a17.391 17.391 0 0 1 12.984-6.036c6.356-.275 12.425 1.195 18.512 2.667a69.709 69.709 0 0 0 9.748 1.87 12.364 12.364 0 0 0 10.093-3.104 2.304 2.304 0 0 1 2.444-.387c.879.278.66 1.201.64 1.917a2.538 2.538 0 0 1-.215.929c-4.132 9.405-9.68 17.761-17.983 24.041a40.9 40.9 0 0 1-23.875 8.177 55.743 55.743 0 0 1-9.113-.224c-.96-.124-1.15.172-1.141 1.066a164.14 164.14 0 0 1-.994 19.728c-3.64 32.887-17.75 59.962-44.424 80.068a3.15 3.15 0 0 1-2.1.846 1.598 1.598 0 0 1-1.777-1.332c-.278-1.206-.621-2.4-.852-3.615-.222-1.169-.337-2.358-.589-3.54a17.114 17.114 0 0 0-.237 6.425c.522 5.034 1.451 10.016 1.582 15.101a59.19 59.19 0 0 1-4.898 24.417c-2.159 5.21-4.68 10.264-6.55 15.599-2.133 6.086-2.929 12.23-1.287 18.572.221.853.572 1.925-.36 2.535a2.571 2.571 0 0 1-2.74-.074c-10.295-5.996-18.72-13.792-23.748-24.82a57.902 57.902 0 0 1-4.76-22.097c-.434-11.164 1.142-22.133 3.094-33.073 1.738-9.735 3.797-19.418 4.783-29.279a52.113 52.113 0 0 0-1.386-19.72c-2.554-8.942-8.269-15.313-16.117-19.998-5.048-3.013-10.305-5.637-15.576-8.212a59.582 59.582 0 0 1-27.235-25.858c-3.799-7.069-7.95-13.957-11.695-21.061-7.42-14.073-18.373-24.712-31.73-33.078-10.016-6.272-20.628-11.058-32.329-13.182a37.257 37.257 0 0 0-4.507-.641c-1.478-.084-1.545-.95-1.507-2.057.038-1.123.686-1.332 1.645-1.326a141.927 141.927 0 0 1 24.737 2.227c29.857 5.455 55.92 18.78 78.887 38.36a181.327 181.327 0 0 1 45.964 58.89 158.844 158.844 0 0 1 10.968 29.482c.065.247.176.482.32.867zm110.316-78.571a35.692 35.692 0 0 1-9.792-.235c-4.343-.833-8.626-1.982-12.957-2.884-4.427-.922-8.86-2.028-13.431-.87-3.703.939-6.925 2.57-8.908 6.041a11.334 11.334 0 0 1-2.298 3.038 2.109 2.109 0 0 1-2.917.037c-1.355-1.105-1.797-2.732-2.56-4.178-1.452-2.752-2.92-5.437-5.682-7.216a20.183 20.183 0 0 0-10.556-2.925c-3.448-.114-6.9-.212-10.344-.377a25.99 25.99 0 0 1-8.172-1.664 30.203 30.203 0 0 1-6.453-3.432 8.731 8.731 0 0 0 .006 1.13c.89 5.928 2.085 11.782 4.586 17.276 2.101 4.616 4.925 8.602 9.465 11.235 4.676 2.711 9.766 4.02 14.983 5.082 2.175.443 3.847.333 4.41-2.23.044-.2.256-.369.402-.543.793-.951 1.767-1.932 3.018-1.268a3.12 3.12 0 0 1 1.893 3.193c-.27 3.062-.832 6.064-1.403 9.072-1.831 9.643-4.576 18.982-9.227 27.68a54.142 54.142 0 0 1-12.16 15.292 36.766 36.766 0 0 1-13.476 7.624 43.899 43.899 0 0 1-13.442 1.714c-.79-.005-1.182.082-1.3 1.064a11.284 11.284 0 0 1-1.229 4.596c-.578.96-1.186 2.004-2.47 2.14-1.364.145-2.852-1.196-3.2-2.803a155.84 155.84 0 0 0-11.352-33.361 175.458 175.458 0 0 0-14.294-24.877 184.126 184.126 0 0 0-17.356-21.593 169.229 169.229 0 0 0-21.116-18.91 177.214 177.214 0 0 0-27.825-17.393 157.096 157.096 0 0 0-17.725-7.643 144.737 144.737 0 0 0-19.97-5.718c.604.354.859.517 1.125.658A113.692 113.692 0 0 1 278.5 43.372a78.88 78.88 0 0 1 10.152 13.606c5.523 9.293 10.444 18.928 16.003 28.209 3.713 6.2 8.159 11.58 14.273 15.48a156.659 156.659 0 0 0 14.266 7.85c7.295 3.648 14.362 7.55 20.172 13.526 6.526 6.714 9.488 14.777 9.968 23.857a92.407 92.407 0 0 1-.713 18.026c-.778 5.43-1.743 10.824-2.688 16.224-.866 4.95-1.808 9.887-2.617 14.846-.625 3.833-1.201 7.68-1.604 11.542a75.51 75.51 0 0 0-.538 9.895 72.94 72.94 0 0 0 1.025 11.489 52.56 52.56 0 0 0 4.793 14.505 43.44 43.44 0 0 0 11.16 14.13 53.094 53.094 0 0 0 5.727 4.163 36.08 36.08 0 0 1 .22-8.578 56.122 56.122 0 0 1 4.714-14.834c2.77-6.253 5.686-12.45 7.256-19.163a41.45 41.45 0 0 0 1.418-11.826c-.293-4.974-1.005-9.926-1.602-14.88a30.772 30.772 0 0 1 4.428-20.254 5.815 5.815 0 0 1 2.729-2.58c1.448-.56 3.672 1.72 2.994 3.72a27.552 27.552 0 0 0-1.245 13.772c.11.627.185 1.08.883.487 2.515-2.134 5.097-4.196 7.516-6.434a92.847 92.847 0 0 0 8.578-9.324 100.967 100.967 0 0 0 10.909-16.352 113.718 113.718 0 0 0 10.502-28.123 147.045 147.045 0 0 0 3.644-28.827c.082-2.58.043-5.164.004-7.745a2.678 2.678 0 0 1 .73-1.82c1.34-1.703 3.168-1.132 4.728-.91a42.026 42.026 0 0 0 14.625-.503 38.833 38.833 0 0 0 21.916-12.43 55.157 55.157 0 0 0 7.017-10.253zM430.67 278.376c-.911-24.92 21.276-43.286 42.394-43.013 22.375.29 43.113 18.025 43.051 43.032-.055 22.213-17.664 43.26-44.39 42.815-21.673-.361-41.909-19.278-41.055-42.834zm22.582-.026a24.115 24.115 0 0 0 .955 6.677c2.249 7.592 7.083 12.667 14.924 14.274 7.694 1.578 14.278-.83 19.198-6.941 4.547-5.647 5.649-12.244 4.196-19.283-2.356-11.412-13.315-18.322-24.314-15.36-8.988 2.421-14.972 10.675-14.96 20.633zm98.486-34.588c4.34-3.343 8.643-6.1 13.715-7.228 10.961-2.438 20.919-.806 29.178 7.485 3.98 3.996 5.882 8.912 6.692 14.35a55.894 55.894 0 0 1 .458 8.273q-.007 25.17-.003 50.339c0 1.883-.168 2.05-2.058 2.05-6.177 0-12.355-.026-18.532.02-1.324.01-1.771-.472-1.768-1.775.027-11.986.049-23.972-.01-35.957a79.847 79.847 0 0 0-1.083-15.28c-1.165-5.846-4.853-9.32-10.506-9.537a13.08 13.08 0 0 0-11.286 5.6 22.269 22.269 0 0 0-4.44 12.547c-.738 14.004-.194 28.02-.356 42.03-.004.323 0 .646-.001.968a1.214 1.214 0 0 1-1.337 1.38q-9.958.01-19.915-.003a1.17 1.17 0 0 1-1.267-1.308c-.005-.276-.001-.553-.001-.83v-77.168c0-1.97.183-2.16 2.092-2.16l18.533.001c1.649.001 1.891.255 1.895 1.94.002 1.321 0 2.643 0 4.263z" class="cls-1"/>
	<path d="M421.279 278.302c.462 19.199-12.454 36.06-29.591 40.89-23.66 6.668-43.452-3.853-52.52-23.673-3.146-6.876-3.544-14.228-3.03-21.654.767-11.08 5.629-20.128 13.784-27.518 1.608-1.456 2.902-1.258 3.957.652a54.061 54.061 0 0 0 9.874 12.882c1.3 1.251 1.339 2.383.126 3.782-6.792 7.833-7.1 20.641-.69 28.763a19.507 19.507 0 0 0 33.005-4.178c3.672-8.221 2.998-16.222-2.228-23.67a17.162 17.162 0 0 0-7.664-5.905 2.125 2.125 0 0 1-1.5-2.287c.04-5.077 1.643-9.752 3.529-14.364.312-.764.663-1.511.995-2.267.942-2.137 1.845-2.542 4.083-1.706a43.036 43.036 0 0 1 16.072 10.412c7.958 8.208 11.803 17.925 11.798 29.84zm-211.284-34.965c3.211-3.794 6.665-6.438 11.204-7.351a20.405 20.405 0 0 1 12.31 1.076c1.778.758 2.206 1.377 1.582 3.182-1.858 5.37-3.814 10.706-5.773 16.04-.427 1.164-1.457 1.435-2.88.891-.643-.244-1.268-.532-1.897-.81-3.326-1.463-5.64.163-7.217 2.006a17.53 17.53 0 0 0-3.61 8.667 87.959 87.959 0 0 0-1.112 15.552q.03 17.285.038 34.57c.002 1.687-.19 1.867-1.926 1.868h-18.53c-1.692-.001-1.945-.244-1.945-1.89q-.003-38.857 0-77.713c0-1.554.3-1.858 1.84-1.86 5.394-.003 10.787.014 16.18-.012 1.211-.006 1.785.462 1.745 1.702-.04 1.225-.009 2.451-.009 4.082zm-80.148 85.149q52.764 0 105.53-.02c1.914-.001 2.195.383 2.13 2.083-.069 1.795-.032 3.596-.009 5.393.013.982-.423 1.386-1.404 1.408-6.298.143-12.587-.273-18.88-.377-3.2-.054-6.42.05-9.614-.212-3.99-.327-7.994-.004-11.963-.316-3.216-.252-6.427.042-9.617-.242-3.899-.348-7.812.02-11.687-.308-3.216-.271-6.424.021-9.617-.24-3.99-.328-7.995-.005-11.963-.317-3.17-.249-6.332.014-9.48-.234-4.035-.319-8.086-.018-12.101-.32-3.17-.24-6.331.015-9.48-.234-4.035-.318-8.085-.017-12.1-.32-3.17-.24-6.332.014-9.48-.233-3.943-.31-7.902-.02-11.825-.32-3.17-.243-6.33.015-9.48-.233-4.034-.319-8.085-.017-12.1-.32-3.17-.24-6.332.015-9.48-.233-4.035-.319-8.086-.013-12.101-.321-3.263-.251-6.518.039-9.756-.237-3.944-.336-7.886-.207-11.83-.243-1.154-.01-1.342-.698-1.306-1.64.035-.914-.181-1.957 1.253-1.964.323-.002.646 0 .968 0z" class="cls-1"/>
	<path d="M228.087 151.152a38.765 38.765 0 0 1-4.463-4.036c.22-.041.516.008.457-.377a50.412 50.412 0 0 1 4.018 4.398zm61.853 8.929a5.613 5.613 0 0 1 1.919 1.956 7.329 7.329 0 0 1-2.337-1.61.376.376 0 0 0 .418-.346zm-14.7 8.36c.98.329 1.403 1.344 2.28 1.814a6.54 6.54 0 0 1-2.666-1.529zm3.558 2.793-.766-.356c.323-.102.524.05.766.356zm13.94-8.657c-.086.02-.186.077-.242.048-.065-.033-.092-.141-.135-.217.08-.019.18-.074.238-.046.065.031.093.139.139.215zm.609.562.105.042-.11.017.005-.059zm-71.079-17.318.013-.004z" class="cls-2"/>
	<path d="m228.1 151.137.113.117-.126-.102zm261.743-87.274a55.157 55.157 0 0 1-7.017 10.253 38.833 38.833 0 0 1-21.916 12.43 42.026 42.026 0 0 1-14.625.503c-1.56-.222-3.388-.793-4.728.91a2.678 2.678 0 0 0-.73 1.82c.039 2.582.078 5.166-.004 7.745a147.045 147.045 0 0 1-3.644 28.827 113.718 113.718 0 0 1-10.502 28.123 100.967 100.967 0 0 1-10.91 16.352 92.847 92.847 0 0 1-8.577 9.324c-2.419 2.238-5 4.3-7.516 6.434-.698.593-.773.14-.884-.487a27.552 27.552 0 0 1 1.245-13.773c.68-1.998-1.545-4.28-2.993-3.718a5.815 5.815 0 0 0-2.729 2.58 30.772 30.772 0 0 0-4.428 20.254c.597 4.953 1.309 9.905 1.602 14.88a41.45 41.45 0 0 1-1.418 11.826c-1.57 6.712-4.485 12.909-7.256 19.162a56.122 56.122 0 0 0-4.714 14.835 36.08 36.08 0 0 0-.22 8.577 53.094 53.094 0 0 1-5.728-4.162 43.44 43.44 0 0 1-11.16-14.131 52.56 52.56 0 0 1-4.792-14.505 72.94 72.94 0 0 1-1.025-11.489 75.51 75.51 0 0 1 .538-9.895c.403-3.862.979-7.709 1.604-11.542.809-4.959 1.751-9.896 2.617-14.846.945-5.4 1.91-10.794 2.688-16.224a92.407 92.407 0 0 0 .713-18.026c-.48-9.08-3.442-17.143-9.968-23.857-5.81-5.976-12.877-9.878-20.172-13.527a156.659 156.659 0 0 1-14.266-7.85c-6.114-3.9-10.56-9.28-14.273-15.48-5.559-9.28-10.48-18.915-16.003-28.208A78.88 78.88 0 0 0 278.5 43.372a113.692 113.692 0 0 0-30.384-22.757c-.266-.14-.52-.304-1.124-.658a144.737 144.737 0 0 1 19.969 5.719 157.096 157.096 0 0 1 17.725 7.643A177.214 177.214 0 0 1 312.51 50.71a169.229 169.229 0 0 1 21.116 18.91 184.126 184.126 0 0 1 17.356 21.594 175.458 175.458 0 0 1 14.294 24.877 155.84 155.84 0 0 1 11.353 33.361c.347 1.607 1.835 2.948 3.199 2.803 1.284-.136 1.892-1.18 2.47-2.14a11.284 11.284 0 0 0 1.23-4.596c.117-.982.509-1.068 1.299-1.064a43.899 43.899 0 0 0 13.442-1.713 36.766 36.766 0 0 0 13.476-7.625 54.142 54.142 0 0 0 12.16-15.291c4.651-8.699 7.396-18.038 9.227-27.68.571-3.009 1.133-6.011 1.403-9.072a3.12 3.12 0 0 0-1.893-3.194c-1.251-.664-2.224.317-3.018 1.268-.146.174-.358.343-.402.544-.563 2.562-2.235 2.672-4.41 2.23-5.217-1.063-10.307-2.372-14.983-5.083-4.54-2.633-7.364-6.618-9.465-11.235-2.5-5.494-3.696-11.348-4.586-17.276a8.731 8.731 0 0 1-.006-1.13 30.203 30.203 0 0 0 6.453 3.432 25.99 25.99 0 0 0 8.172 1.664c3.445.165 6.896.263 10.344.377a20.183 20.183 0 0 1 10.556 2.925c2.763 1.779 4.23 4.464 5.682 7.216.763 1.446 1.205 3.073 2.56 4.178a2.109 2.109 0 0 0 2.917-.037 11.334 11.334 0 0 0 2.298-3.038c1.983-3.47 5.205-5.103 8.908-6.04 4.572-1.16 9.004-.053 13.43.87 4.332.901 8.614 2.05 12.958 2.883a35.692 35.692 0 0 0 9.792.235zm-170.44 13.376a8.718 8.718 0 0 0-8.753 8.776 8.752 8.752 0 0 0 17.505-.012 8.699 8.699 0 0 0-8.753-8.764z" class="cls-2"/>
	<path d="M325.26 86.764a5.894 5.894 0 0 1-5.162 5.125 5.992 5.992 0 0 1-4.316-10.71 5.807 5.807 0 0 1 7.094.031 3.479 3.479 0 0 0-2.397 2.05 2.966 2.966 0 0 0 .097 2.283c.728 1.63 2.37 2.075 4.683 1.221z" class="cls-1"/>
</svg>
