<svg xmlns="http://www.w3.org/2000/svg" width="200" height="128">
	<path d="M45.446 48.861H35.368v13.368h13.368V52.151a3.29 3.29 0 0 0-3.29-3.29" fill="#2d7de4"/>
	<path d="M45.446 65.771h-6.787a3.285 3.285 0 0 0-3.291 3.277v10.091h13.368V69.061a3.285 3.285 0 0 0-3.277-3.29h-.013M31.457 79.139h-8.115A3.342 3.342 0 0 1 20 75.8V52.2a3.342 3.342 0 0 1 3.342-3.342h8.115zm112.981-10.984c-2.1 0-3.122.693-3.122 2.124s.764 2.131 2.409 2.131a7.125 7.125 0 0 0 4.307-1.3V68.4a25.725 25.725 0 0 0-3.594-.246m6.716 6.884h-1.872l-.836-1.36a8.813 8.813 0 0 1-4.721 1.36c-3.672 0-5.531-1.587-5.531-4.715s2.1-4.8 6.244-4.8a26.836 26.836 0 0 1 3.594.246V64.67c0-1.535-1.218-2.279-3.718-2.279a16.316 16.316 0 0 0-4.591.718l-.337.1v-2.69l.188-.052a16.84 16.84 0 0 1 4.74-.712c4.534 0 6.84 1.625 6.84 4.838zm-79.446 0h-3.135v-9.565a3.005 3.005 0 0 0-2.83-3.011h-.169a5.914 5.914 0 0 0-3.983 1.716v10.861H58.47V54h1.606a1.515 1.515 0 0 1 1.515 1.515v5.57a7.23 7.23 0 0 1 4.333-1.328c3.841 0 5.784 1.943 5.784 5.758zm8.38-6.884c-2.1 0-3.128.693-3.128 2.124s.764 2.131 2.409 2.131a7.09 7.09 0 0 0 4.307-1.3V68.4a25.64 25.64 0 0 0-3.588-.246m6.71 6.884h-1.872l-.81-1.36a8.793 8.793 0 0 1-4.721 1.36c-3.672 0-5.531-1.587-5.531-4.715s2.1-4.8 6.25-4.8a26.913 26.913 0 0 1 3.588.246V64.67c0-1.535-1.218-2.279-3.718-2.279a16.28 16.28 0 0 0-4.617.718l-.337.1v-2.69l.188-.052a16.842 16.842 0 0 1 4.741-.712c4.533 0 6.839 1.625 6.839 4.838zm14.287 0H89.038v-2.324l.065-.071 8.562-10.252h-8.342v-2.63h12.04v2.461l-.058.071-8.458 10.253h8.238zm4.727-9.339h7.448c-.129-2.26-1.3-3.355-3.523-3.355-2.39 0-3.666 1.095-3.886 3.355m4.721 9.32c-5.22 0-7.862-2.63-7.862-7.811 0-4.954 2.37-7.467 7.046-7.467 4.353 0 6.555 2.182 6.555 6.476a15.766 15.766 0 0 1-.124 1.943l-.032.233H105.8c.1 2.688 1.736 4 5.013 4a15.91 15.91 0 0 0 4.391-.544l.337-.091v2.649l-.194.052a17.566 17.566 0 0 1-4.819.576m11.457 0h-3.122V54h1.606a1.515 1.515 0 0 1 1.516 1.515zm10.382 0c-5.4 0-8.128-2.668-8.128-7.921 0-4.883 2.733-7.357 8.128-7.357a17.834 17.834 0 0 1 3.995.428l.2.045v2.642l-.317-.071a17.832 17.832 0 0 0-4.022-.414c-3.271 0-4.864 1.547-4.864 4.727 0 3.556 1.593 5.292 4.864 5.292a18.245 18.245 0 0 0 4.022-.406l.317-.078v2.649l-.2.046a17.833 17.833 0 0 1-3.995.427m27.272 0a20.407 20.407 0 0 1-5.324-.712l-.194-.052v-2.816l.337.11a16.64 16.64 0 0 0 5.181.836c3.238 0 3.238-1.393 3.238-1.853 0-.731-.227-1.7-2.2-1.7H158.6c-3.342 0-5.039-1.554-5.039-4.618s2.157-4.475 6.405-4.475a20.271 20.271 0 0 1 5.3.713l.194.051v2.802l-.337-.11a16.731 16.731 0 0 0-5.181-.829c-3.426 0-3.426 1.392-3.426 1.845 0 1.166.648 1.71 2.06 1.71h2.1c3.536 0 5.324 1.548 5.324 4.611s-2.15 4.482-6.386 4.482m15.453 0h-2.733c-2.636 0-3.97-1.425-3.97-4.242V57.371h2.1l.557 2.39h4.048v2.63h-3.582V70.6c0 1.23.486 1.807 1.522 1.807h2.06zM180 57.928a2.616 2.616 0 0 1-.181 1.017 2.32 2.32 0 0 1-.505.758 2.146 2.146 0 0 1-.719.473 2.322 2.322 0 0 1-.868.162 2.286 2.286 0 0 1-.861-.162 2.107 2.107 0 0 1-.725-.473 2.3 2.3 0 0 1-.5-.758 2.833 2.833 0 0 1 0-2.027 2.3 2.3 0 0 1 .5-.758 2.09 2.09 0 0 1 .725-.472 2.388 2.388 0 0 1 1.729 0 2.144 2.144 0 0 1 .719.472 2.33 2.33 0 0 1 .505.758 2.626 2.626 0 0 1 .181 1.01zm-.485 0a2.394 2.394 0 0 0-.13-.8 1.85 1.85 0 0 0-.369-.648 1.726 1.726 0 0 0-.563-.4 1.991 1.991 0 0 0-1.445 0 1.6 1.6 0 0 0-.563.4 1.651 1.651 0 0 0-.369.648 2.422 2.422 0 0 0 0 1.6 1.752 1.752 0 0 0 .369.648 1.611 1.611 0 0 0 .563.4 1.991 1.991 0 0 0 1.445 0 1.729 1.729 0 0 0 .563-.4 1.969 1.969 0 0 0 .369-.648 2.409 2.409 0 0 0 .129-.8zm-1.127 1.3a5.664 5.664 0 0 0-.343-.57 5.707 5.707 0 0 0-.331-.428h-.447v1h-.472v-2.597a3.259 3.259 0 0 1 .382-.058h.362a1.5 1.5 0 0 1 .875.214.731.731 0 0 1 .3.647.746.746 0 0 1-.13.434.786.786 0 0 1-.369.279l.155.2a3.126 3.126 0 0 1 .175.266 4.106 4.106 0 0 1 .356.624zm-1.121-1.386h.253a1.252 1.252 0 0 0 .5-.084.325.325 0 0 0 .2-.344.35.35 0 0 0-.187-.337 1.017 1.017 0 0 0-.454-.1h-.311z" fill="#041a3b"/>
</svg>
