<svg xmlns="http://www.w3.org/2000/svg" viewBox="4.23 86.47 391.3 68.8">
	<path fill="#0066b2" fill-rule="evenodd" d="M11.937 146.134h40.784l8.735-20.033h40.04l-8.978 20.029h41.272l22.638-50.229H114.86l-7.483 16.924H67.459l7.552-16.924H34.609l-22.672 50.233zm235.06-33.145h38.56c-.243-8.449-8.37-14.279-24.554-16.602-31.893-4.672-66.381-2.685-90.932 10.887-19.349 10.75-20.793 26.9-1.533 34.797 16.217 6.63 50.321 7.31 74.682 3.184 15.8-2.689 27.893-7.896 34.646-15.643h-39.43c-5.133 3.927-11.832 5.865-19.577 5.971-22.148.155-25.09-6.558-21.21-14.3 4.578-9.076 14.217-14.01 28.922-14.446 11.535-.314 17.26 2.279 20.426 6.152M347.239 95.9l-17.208 38.238h58.032l-5.412 11.96h-99.74l22.482-50.198h41.846z"/>
</svg>
