<svg xmlns="http://www.w3.org/2000/svg" width="200" height="128">
    <g>
        <path d="M97.224 43.926V41H94.5v2.929h-1.32V36.9h1.369v2.946h2.721V36.9h1.278v7.027zm6.347 0h-1.088l-.1-.345a2.97 2.97 0 0 1-1.541.471c-.961 0-1.387-.661-1.387-1.532 0-1.034.462-1.423 1.541-1.423h1.269v-.535c0-.563-.163-.762-1.006-.762a7.707 7.707 0 0 0-1.46.154l-.163-.97a7.159 7.159 0 0 1 1.813-.236c1.66 0 2.149.562 2.149 1.814zm-1.3-1.914h-1.007c-.435 0-.553.118-.553.5s.118.508.535.508a2.158 2.158 0 0 0 1-.263zm4.1 2.04a6.422 6.422 0 0 1-1.814-.29l.182-.97a6.153 6.153 0 0 0 1.568.218c.59 0 .671-.127.671-.508s-.063-.471-.906-.662c-1.288-.3-1.442-.616-1.442-1.6s.462-1.469 1.977-1.469a7.231 7.231 0 0 1 1.586.182l-.127 1.006a9.666 9.666 0 0 0-1.45-.145c-.572 0-.671.127-.671.435s0 .436.743.617c1.478.372 1.614.562 1.614 1.605s-.342 1.581-1.929 1.581zm6.057-.1v-3.526c0-.272-.118-.408-.426-.408a3.747 3.747 0 0 0-1.379.408v3.5H109.3V36.8l1.323.2v2.24a4.825 4.825 0 0 1 1.932-.49c.906 0 1.2.59 1.2 1.5v3.682zm2.439-5.812V36.9h1.323v1.242zm0 5.785v-5.068h1.323v5.069zm2.375-5.024c0-1.269.771-2.013 2.566-2.013a8.554 8.554 0 0 1 1.959.227l-.154 1.134a11.053 11.053 0 0 0-1.768-.182c-.907 0-1.243.308-1.243 1.052v2.666c0 .734.3 1.051 1.243 1.051a10.938 10.938 0 0 0 1.768-.181l.154 1.134a8.5 8.5 0 0 1-1.959.226c-1.813 0-2.566-.734-2.566-2.013zm7.444 5.15c-1.813 0-2.294-.961-2.294-1.994v-1.305c0-1.043.49-2 2.294-2s2.294.961 2.294 2v1.279c.002 1.042-.487 2.021-2.292 2.021zm0-4.2c-.707 0-.979.3-.979.907v1.36c0 .571.272.907.979.907s.98-.3.98-.907v-1.411c-.009-.572-.272-.871-.98-.871zm6.021.082a10.487 10.487 0 0 0-1.4.734v3.265h-1.324v-5.075h1.117l.091.562a6.033 6.033 0 0 1 1.387-.662zm5.286 2.3a1.568 1.568 0 0 1-1.291 1.8 1.543 1.543 0 0 1-.45.009 7.534 7.534 0 0 1-1.405-.145v2.05l-1.324.2V38.9h1.052l.127.427a2.852 2.852 0 0 1 1.668-.535c1.061 0 1.623.607 1.623 1.759zm-3.155.571a6.047 6.047 0 0 0 1.169.136c.481 0 .662-.217.662-.68v-1.807c0-.417-.163-.644-.653-.644a1.914 1.914 0 0 0-1.178.462zM20.571 36.8l27.1 54.4 27.3-54.4zM50.9 47.679h3.155v3.156H50.9zm-6.283 12.694h-3.191v-3.182h3.155zm0-4.733h-3.191v-3.182h3.155zm0-4.733h-3.191v-3.182h3.155zM49.35 65.1H46.2v-3.185h3.15zm0-4.733H46.2v-3.176h3.15zm0-4.733H46.2v-3.176h3.15zm0-4.733H46.2v-3.176h3.15zm1.55 1.575h3.155v3.155H50.9zm0 7.888v-3.173h3.218v3.182zM112.9 49.583h5.7L109.945 78.6h-8.1l-8.656-29.017h5.7l7 24.155zM134.444 78.571h-4.352l-.39-1.433a11.591 11.591 0 0 1-6.347 1.868c-3.871 0-5.53-2.657-5.53-6.347 0-4.307 1.867-5.966 6.183-5.966h5.1v-2.185c0-2.349-.653-3.174-4.044-3.174a29.6 29.6 0 0 0-5.875.653l-.653-4.044a27.651 27.651 0 0 1 7.253-1c6.665 0 8.614 2.348 8.614 7.661zm-5.313-8.006h-3.917c-1.741 0-2.221.48-2.221 2.085s.48 2.131 2.131 2.131a8.359 8.359 0 0 0 4.007-1.088zM142.8 57.372V72.16c0 1.134.481 1.7 1.7 1.7a14.635 14.635 0 0 0 5.531-1.814V57.372h5.313v21.2h-4.053l-.526-1.814a21.241 21.241 0 0 1-8.487 2.222c-3.527 0-4.787-2.485-4.787-6.266V57.372zM158.164 78.571V48.713l5.313-.744v30.6zM179.317 78.181a14.734 14.734 0 0 1-4.66.825c-3.872 0-5.83-1.813-5.83-5.613V61.606h-3.183v-4.234h3.174V52.1l5.313-.743v6.011h5.44l-.326 4.225h-5.1v11.1a1.668 1.668 0 0 0 1.913 1.868 10.2 10.2 0 0 0 2.657-.435z"/>
    </g>
</svg>
