<svg xmlns="http://www.w3.org/2000/svg" width="200" height="128">
    <path d="M106.667 76.206a.444.444 0 0 1 .433-.347h7.406l.989-4.425H69.407l-1.4 6.254h-3.34l.41-1.829.158-.709.831-3.716h-6.592l-3.739 16.71h6.593l1.372-6.137h3.341l-1.374 6.137h17.4a4.087 4.087 0 0 0 2.183-.609 3.473 3.473 0 0 0 .432-.321.166.166 0 0 1 .273.161l-.172.769h6.181l1.374-6.137h5.478l.308-1.377.213-.952a.3.3 0 0 1 .294-.236.3.3 0 0 1 .3.277 2.293 2.293 0 0 0 1.9 2.232l.092.016a4.055 4.055 0 0 0 .575.04h3.63a.475.475 0 0 1 .462.577l-.212.943a.474.474 0 0 1-.462.371H98.4l-.951 4.246h11.542a3.457 3.457 0 0 0 3.374-2.7l1.085-4.846a2.386 2.386 0 0 0-2.329-2.906H106.7a.291.291 0 0 1-.283-.355zM67.848 87.62l1.414-6.32h-6.179l-.58 2.6-.157.707-.676 3.013h-3.523l3.4-15.206h3.524L63.733 78.4h6.178l1.338-5.983h3.524l-3.4 15.206zm18.712-2.908a3.324 3.324 0 0 1-.043.172 3.719 3.719 0 0 1-3.586 2.736h-9.585l3.4-15.206H86.88a1.948 1.948 0 0 1 1.9 2.372l-1.25 5.583zM99.828 77.5l-.043.188h-5.111a.3.3 0 0 1-.288-.358l.279-1.241a.3.3 0 0 1 .287-.23h5.248zm-4.989-2.35a.926.926 0 0 0-.9.724l-.312 1.4a.925.925 0 0 0 .9 1.128h4.322L98.2 81.3h-5.478l-1.414 6.32h-3.524l2.9-12.973a2.855 2.855 0 0 1 2.787-2.233h8.57l-.612 2.736zm11.478 3.25h4.3a2.034 2.034 0 0 1 1.985 2.48l-.93 4.159a3.3 3.3 0 0 1-3.224 2.584h-8.634l.674-3.015h6.928a.983.983 0 0 0 .961-.77l.3-1.337a.985.985 0 0 0-.962-1.2h-4.1a1.857 1.857 0 0 1-1.863-2.325l1.011-4.52a2.609 2.609 0 0 1 2.547-2.039h9.19l-.612 2.736h-7.172a.736.736 0 0 0-.718.575l-.4 1.776a.736.736 0 0 0 .719.896z"/>
    <path d="M86.88 72.414H76.747l-3.4 15.206h9.585a3.719 3.719 0 0 0 3.629-2.908l2.221-9.926a1.948 1.948 0 0 0-1.902-2.372zm-2.015 4.05l-1.633 7.3a1.079 1.079 0 0 1-1.052.842h-4.637l2.116-9.455h4.154a1.078 1.078 0 0 1 1.052 1.313zM74.773 72.414L71.372 87.62h-3.524l1.414-6.322h-6.179l-.58 2.6h-.001l-.157.707-.675 3.015h-3.523l3.401-15.206h3.524l-1.339 5.983h6.178l1.338-5.983h3.524zM93.624 77.269a.925.925 0 0 0 .9 1.128h4.322L98.2 81.3h-5.478l-1.414 6.32h-3.524l2.9-12.973a2.855 2.855 0 0 1 2.787-2.233h8.57l-.612 2.736h-6.59a.926.926 0 0 0-.9.724zM105.6 77.5a.736.736 0 0 0 .718.9h4.3a2.034 2.034 0 0 1 1.985 2.48l-.93 4.159a3.3 3.3 0 0 1-3.224 2.584h-8.635l.674-3.015h6.928a.983.983 0 0 0 .961-.77l.3-1.337a.985.985 0 0 0-.962-1.2h-4.1a1.857 1.857 0 0 1-1.863-2.325l1.011-4.52a2.609 2.609 0 0 1 2.547-2.039h9.19l-.612 2.736h-7.172a.736.736 0 0 0-.718.575z" fill="#ff0"/>
    <path d="M83.813 75.15h-4.154l-2.116 9.455h4.637a1.079 1.079 0 0 0 1.052-.842l1.633-7.3a1.078 1.078 0 0 0-1.052-1.313zm-1 1.248l-1.6 7.153a.442.442 0 0 1-.432.347h-2.302l1.8-8.039h2.108a.442.442 0 0 1 .431.541z"/>
    <g>
        <path d="M116.648 58.684l-1.89 8.54 1.92-8.54zm0 0l-1.89 8.54 1.92-8.54zm-46.2.16h-.01m46.21-.16l-1.89 8.54 1.92-8.54zm-8.76-3.82a4.434 4.434 0 0 0-4.07 3.35l-2.11 9.48 2.11-9.44a4.4 4.4 0 0 1 4.07-3.36h9.6l.01-.03zm8.76 3.82l-1.89 8.54 1.92-8.54zm0 0l-1.89 8.54 1.92-8.54zm0 0l-1.89 8.54 1.92-8.54zm0 0l-1.89 8.54 1.92-8.54z" fill="none"/>
        <path d="M107.888 54.864a4.434 4.434 0 0 0-4.07 3.35l-2.11 9.48 2.11-9.44a4.4 4.4 0 0 1 4.07-3.36h9.6l.01-.03zM116.648 58.684l-1.89 8.54 1.92-8.54z" fill-rule="evenodd"/>
        <path d="M179.308 55.084c-1-1.28-2.36-1.37-3.82-1.37h-31.75a5.943 5.943 0 0 0-2.89.84 4.334 4.334 0 0 0-2.73-.84h-14.54c.4-1.77.81-3.57 1.18-5.34h-9.38c-.37 1.74-.78 3.48-1.15 5.22h-8.26a6.12 6.12 0 0 0-3.2.96 4.6 4.6 0 0 0-2.74-.84h-27.24c.41-1.8.84-3.6 1.24-5.44h-9.38c-1.8 8.05-3.6 16.13-5.4 24.17H68.6c.93-4.13 1.86-8.26 2.83-12.36h3.16c.38 0 .31.22.25.5-.9 3.94-1.77 7.92-2.67 11.86h62.1a5.763 5.763 0 0 0 2.82-.71 4.493 4.493 0 0 0 2.89.8l14.38-.12c-.37 1.77-.77 3.57-1.15 5.37h9.39c.37-1.77.77-3.51 1.15-5.28 2.67 0 5.43.03 8.1.03a6.154 6.154 0 0 0 3.48-1.08 5.946 5.946 0 0 0 2.52-3.7c.59-2.67 1.18-5.37 1.77-8.04.338-1.53.78-3.27-.312-4.63zm-103.19 15.96l2.33-10.46a1.493 1.493 0 0 0 .01-.63 1.055 1.055 0 0 0-.06-.24 1.337 1.337 0 0 0-1.32-.91h-6.62l-.01.04-2.72 12.2h-4.54l4.76-21.55 4.53-.04-1.21 5.53h9.57a2.7 2.7 0 0 1 2.64 3.39l-2.83 12.67zm8.82 0a2.607 2.607 0 0 1-2.61-3.35l.74-3.26a4.432 4.432 0 0 1 4.07-3.36H97.7l.16-.71a1.391 1.391 0 0 0-1.3-1.71H84.318l.84-3.79h15.18a2.6 2.6 0 0 1 2.55 3.35l-2.86 12.83zm19.38 0c-2.85 0-2.73-2.81-2.61-3.35l2.11-9.48a4.434 4.434 0 0 1 4.07-3.35h9.61l1.2-5.37h4.51l-1.18 5.4-3.58 16.15zm30.23.16h-11.78a2.62 2.62 0 0 1-2.61-3.36l2.12-9.47a4.388 4.388 0 0 1 4.06-3.36h11.78a2.623 2.623 0 0 1 2.61 3.36l-2.12 9.47a4.411 4.411 0 0 1-4.06 3.356zm19.41 0h-11.77a2.611 2.611 0 0 1-2.61-3.36l2.11-9.47a4.4 4.4 0 0 1 4.07-3.36h11.77a2.615 2.615 0 0 1 2.61 3.36l-2.11 9.47a4.422 4.422 0 0 1-4.07 3.356zm24.66-12.86l-2.11 9.47a4.014 4.014 0 0 1-.79 1.65 3.472 3.472 0 0 1-.41.45 3.8 3.8 0 0 1-.62.52 4.663 4.663 0 0 1-.93.5 3.777 3.777 0 0 1-1.35.27h-9.58l-1.2 5.37H157.1l1.18-5.4.62-2.86 2.95-13.3 14.17-.03a2.623 2.623 0 0 1 2.598 3.36z" fill-rule="evenodd"/>
        <path d="M176.018 54.984l-14.17.03-2.95 13.3-.62 2.86-1.18 5.4h4.53l1.2-5.37h9.58a3.777 3.777 0 0 0 1.35-.27 4.663 4.663 0 0 0 .93-.5 3.8 3.8 0 0 0 .62-.52 3.472 3.472 0 0 0 .41-.45 4.014 4.014 0 0 0 .79-1.65l2.11-9.47a2.623 2.623 0 0 0-2.6-3.36zm-2.49 5.6l-1.12 5a2.355 2.355 0 0 1-2.17 1.77h-6.62l1.93-8.55h6.61a1.383 1.383 0 0 1 1.37 1.78z" fill="#6cf" fill-rule="evenodd"/>
        <path d="M172.158 58.8h-6.61l-1.93 8.55h6.62a2.355 2.355 0 0 0 2.17-1.77l1.12-5a1.383 1.383 0 0 0-1.37-1.78zm-2.39 1.93l-1.02 4.66c-.1.43-.22.65-.72.65h-2.76c.43-1.95.87-3.88 1.27-5.84h2.7c.41 0 .62.1.53.534z" fill-rule="evenodd"/>
        <path d="M157.528 55.014h-11.77a4.4 4.4 0 0 0-4.07 3.36l-2.11 9.47a2.611 2.611 0 0 0 2.61 3.36h11.77a4.422 4.422 0 0 0 4.07-3.36l2.11-9.47a2.615 2.615 0 0 0-2.61-3.36zm-2.45 5.57l-1.12 5a2.355 2.355 0 0 1-2.17 1.77h-5.81a1.379 1.379 0 0 1-1.37-1.77l1.12-5a2.353 2.353 0 0 1 2.17-1.78h5.81a1.388 1.388 0 0 1 1.37 1.78z" fill="#6cf" fill-rule="evenodd"/>
        <path d="M153.708 58.8H147.9a2.353 2.353 0 0 0-2.17 1.78l-1.12 5a1.379 1.379 0 0 0 1.37 1.77h5.81a2.355 2.355 0 0 0 2.17-1.77l1.12-5a1.388 1.388 0 0 0-1.372-1.78zm-2.39 2.12c-.34 1.52-.68 3.04-1.03 4.56-.12.53-.43.53-.9.53h-3.01c-.43 0-.43-.25-.37-.62.34-1.52.68-3.04 1.02-4.57.16-.56.38-.65.9-.65h2.95c.56.004.53.314.44.754z" fill-rule="evenodd"/>
        <path d="M138.118 55.014h-11.78a4.388 4.388 0 0 0-4.06 3.36l-2.12 9.47a2.62 2.62 0 0 0 2.61 3.36h11.78a4.411 4.411 0 0 0 4.06-3.36l2.12-9.47a2.623 2.623 0 0 0-2.61-3.36zm-2.46 5.57l-1.11 5a2.357 2.357 0 0 1-2.18 1.77h-5.81a1.377 1.377 0 0 1-1.36-1.77l1.11-5a2.394 2.394 0 0 1 2.18-1.78h5.81a1.382 1.382 0 0 1 1.36 1.78z" fill="#6cf" fill-rule="evenodd"/>
        <path d="M134.3 58.8h-5.81a2.394 2.394 0 0 0-2.18 1.78l-1.11 5a1.377 1.377 0 0 0 1.36 1.77h5.81a2.357 2.357 0 0 0 2.18-1.77l1.11-5a1.382 1.382 0 0 0-1.36-1.78zm-2.39 2.12c-.35 1.52-.69 3.04-1.03 4.56-.12.53-.43.53-.9.53h-3.01c-.44 0-.44-.25-.38-.62.35-1.52.69-3.04 1.03-4.57.12-.56.34-.65.9-.65h2.95c.558.004.53.314.438.754z" fill-rule="evenodd"/>
        <path d="M118.7 49.494l-1.2 5.37-.01.03h-9.6a4.4 4.4 0 0 0-4.07 3.36l-2.11 9.44c-.12.54-.24 3.35 2.61 3.35h14.13l3.58-16.15 1.18-5.4zm-3.94 17.73h-6.62a1.432 1.432 0 0 1-1.36-1.74v-.03l1.11-5a2.351 2.351 0 0 1 2.15-1.77h6.64zM100.338 54.864h-15.18l-.84 3.79h12.24a1.391 1.391 0 0 1 1.3 1.71l-.16.71h-10.56a4.432 4.432 0 0 0-4.07 3.36l-.74 3.26a2.607 2.607 0 0 0 2.61 3.35h15.09l2.86-12.83a2.6 2.6 0 0 0-2.55-3.35zm-4 12.36h-8.05a.882.882 0 0 1-.93-.91 1.241 1.241 0 0 1 .03-.27 1.533 1.533 0 0 1 1.43-1.18h8.05z" fill="#6cf" fill-rule="evenodd"/>
        <path d="M96.868 64.864l-.53 2.36h-8.05a.882.882 0 0 1-.93-.91 1.241 1.241 0 0 1 .03-.27 1.533 1.533 0 0 1 1.43-1.18z" fill-rule="evenodd"/>
        <path d="M83.478 58.374l-2.83 12.67h-4.53l2.33-10.46a1.493 1.493 0 0 0 .01-.63 1.055 1.055 0 0 0-.06-.24 1.337 1.337 0 0 0-1.32-.91h-6.62l-.01.04-2.72 12.2h-4.54l4.76-21.55 4.53-.04-1.21 5.53h9.57a2.7 2.7 0 0 1 2.64 3.39z" fill="#6cf" fill-rule="evenodd"/>
        <path d="M110.038 58.684a2.351 2.351 0 0 0-2.15 1.77l-1.11 5v.03a1.432 1.432 0 0 0 1.36 1.74h6.62l1.89-8.54zm1.33 7.21h-2.7c-.4 0-.62-.1-.53-.53.34-1.55.69-3.11 1.03-4.66.09-.44.21-.65.71-.65h2.77c-.44 1.946-.87 3.88-1.28 5.84z" fill-rule="evenodd"/>
    </g>
    <g>
        <path d="M25.016 61.134c-.186.5-.372 1.025-.559 1.522-.466.466-.932.9-1.366 1.367-.5.5-.622.5-.5 1.212a4.313 4.313 0 0 0 1.273 2.423c.777.776 2.392 1.863 3.541 1.335a6.262 6.262 0 0 1-.435 1.212c-.776 1.708 1.119 2.05 2.454 2.423 1.119.31 3.821 1.087 4.225-.373a3.736 3.736 0 0 0 .155-1.646 5.584 5.584 0 0 1 .746-1.3 1.654 1.654 0 0 0 .279-1.522c-.031-.124-.031-.28-.062-.435a14.8 14.8 0 0 0 3.883.031c-.4.217-.776.435-1.3.683-1.243.622-.063 2.485.466 3.324 1.118 1.709 2.112 2.889 4.007 1.864.621-.342.683-.714 1.087-1.3.217-.124 1.336-1.087 2.019-1.615.248.311.746.373 1.46.4.373.031 1.833.031 2.205.031 1.15 0 1.833-.124 1.926-1.367a1.625 1.625 0 0 0-.279-1.242c-.031-.653-.031-1.305-.062-1.957a4.608 4.608 0 0 0-.466-1.895c-.28-.621-.4-1.15-.715-1.771l.093-.745c.4.372.777.745 1.181 1.118a3.161 3.161 0 0 0 2.516 1.242A3.4 3.4 0 0 0 55.676 62c.124-.373.217-.776.342-1.149a8.744 8.744 0 0 0 5.436-.559c2.3-1.212 3.354-3.666 3.634-6.275a15.692 15.692 0 0 0-1.211-7.549c-.28-.559-1.616-1.273-2.206-.683-.435.435-.745 1.118-1.211 1.522a4.472 4.472 0 0 1-1.212.621 6.837 6.837 0 0 0-1.3-2.143 4.837 4.837 0 0 0-1.4-1.118 28.068 28.068 0 0 1-3.013-2.454c-3.107-2.547-5.778-2.485-9.63-.839a8.626 8.626 0 0 0-3.852 3.355 2.547 2.547 0 0 0-1.864.808c-.528.466-1.025.963-1.522 1.46-3.6.59-5.871 1.273-8.232 3.354a9.308 9.308 0 0 0-2.2 2.889 4.759 4.759 0 0 1-1.677 1.4c-.466.186-.466.186-.622-.248.559-.435.559-1.212.59-1.926.342.031.5.4.715.714.155-.621.217-1.615-.435-1.957.124-.279.217-.59.342-.9-.994.187-4.38 2.454-2.579 4.194a6.309 6.309 0 0 0 .373 1.149 1.588 1.588 0 0 0 2.144.684 11.571 11.571 0 0 0-.125 3.7 3.34 3.34 0 0 0 .062 1.087" fill-rule="evenodd"/>
        <path d="M25.234 61.2c-.062.218-.155.4-.218.622l-.434-.156c.062-.217.155-.4.217-.621zm-.218.622c-.124.31-.217.59-.341.9l-.435-.156c.124-.31.217-.59.342-.9zm-.341.9l-.062.093-.156-.156c0-.034.218.06.218.06zm-.031.093c-.249.248-.5.5-.746.714l-.31-.31c.248-.249.5-.5.745-.715zm-.746.714l-.652.653-.311-.311.653-.652zm-.652.653l-.155.155-.311-.342.155-.155zm-.155.155c-.28.279-.342.342-.28.839l-.466.062c-.124-.746-.031-.839.4-1.243zm-.28.839a4.613 4.613 0 0 0 .4 1.211l-.4.217a4.425 4.425 0 0 1-.466-1.366zm.435 1.211a4.2 4.2 0 0 0 .776 1.056l-.31.311a5 5 0 0 1-.87-1.181 2.346 2.346 0 0 0 .404-.189zm.776 1.087a5.6 5.6 0 0 0 1.864 1.243l-.155.435a6.181 6.181 0 0 1-2.019-1.336zm1.864 1.212a2 2 0 0 0 1.46.062l.187.4a2.286 2.286 0 0 1-1.8-.062c-.002.032.153-.403.153-.403zm1.429.093l.435-.186-.124.465-.218-.062zm.342.248c-.062.218-.124.435-.187.622l-.465-.125c.062-.217.124-.4.186-.59a2.481 2.481 0 0 1 .466.09zm-.218.653a4.782 4.782 0 0 1-.248.59l-.4-.186a4.31 4.31 0 0 0 .218-.56zm-.248.59a1.074 1.074 0 0 0 .652 1.584l-.186.4a1.447 1.447 0 0 1-.87-2.174zm.652 1.584a9.481 9.481 0 0 0 1.336.435l-.124.435a7.7 7.7 0 0 1-1.429-.466 2.571 2.571 0 0 0 .217-.407zm1.336.435a1.977 1.977 0 0 1 .311.093l-.125.435c-.124-.031-.217-.062-.31-.093zm.311.062a12.83 12.83 0 0 0 2.329.466l-.031.466a12.673 12.673 0 0 1-2.423-.5zm2.329.5c.777.062 1.46-.093 1.616-.652l.434.124c-.248.87-1.118 1.056-2.081.994zm1.616-.683a4.872 4.872 0 0 0 .155-.777l.466.031a5.784 5.784 0 0 1-.155.87zm.155-.777a3.378 3.378 0 0 0-.031-.776l.466-.031c.031.341.031.59.031.838zm-.031-.776l.031-.125.217.094zm.031-.094a7.726 7.726 0 0 1 .652-1.211l.373.248a6.205 6.205 0 0 0-.621 1.119 2.166 2.166 0 0 1-.404-.162zm.652-1.211c.031-.031.031-.062.093-.155l.373.248c0 .031-.062.093-.093.155zm.093-.155a1.327 1.327 0 0 0 .28-.622l.466.063a1.737 1.737 0 0 1-.342.807zm.28-.622a3.268 3.268 0 0 0-.031-.745l.466-.062a4.347 4.347 0 0 1 .031.87zm-.031-.745c0-.093-.031-.155-.031-.218l.466-.062a1.772 1.772 0 0 0 .031.218zm-.031-.218a1.748 1.748 0 0 1-.031-.217l.466-.062c0 .062.031.124.031.248a2.356 2.356 0 0 0-.466.025zm-.031-.217l-.031-.311.31.031-.031.218zm.278-.253a13.313 13.313 0 0 0 1.926.156v.466a14.546 14.546 0 0 1-1.988-.156zm1.895.125a12.835 12.835 0 0 0 1.9-.125l.062.466a13.672 13.672 0 0 1-1.957.125zm1.9-.093l.155.434-.124-.217zm.155.4c-.372.218-.745.4-1.211.653l-.218-.4c.466-.249.839-.435 1.181-.621l.248.372zm-1.211.653c-.031.031-.062.031-.093.062l-.218-.4c.031-.031.062-.031.093-.062zm-.093.062c-.5.248-.5.776-.311 1.3l-.435.125c-.248-.746-.217-1.491.559-1.864zm-.342 1.3a6.491 6.491 0 0 0 .87 1.678l-.373.248a8.55 8.55 0 0 1-.932-1.77zm.87 1.678a5.975 5.975 0 0 0 1.646 1.895l-.248.4a6.21 6.21 0 0 1-1.772-2.042zm1.646 1.895a1.9 1.9 0 0 0 2.05-.093l.218.4a2.381 2.381 0 0 1-2.516.094zm2.05-.093a1.706 1.706 0 0 0 .715-.777l.4.217a2.037 2.037 0 0 1-.9.963zm.715-.777a2.5 2.5 0 0 1 .279-.435l.373.249c-.093.155-.186.279-.248.4zm.279-.435l.094-.062.124.186a1.362 1.362 0 0 1-.222-.119zm.094-.093c.124-.062.714-.559 1.273-.994l.28.342c-.559.466-1.181.963-1.336 1.056zM44 70.733c.28-.249.559-.466.715-.59l.279.372c-.279.218-.5.4-.714.591.027-.031-.28-.373-.28-.373zm.715-.59l.186-.156.155.187-.186.155zm.341.031a.652.652 0 0 0 .435.217l-.093.435a1.219 1.219 0 0 1-.683-.373zm.435.217a3.39 3.39 0 0 0 .87.093l-.031.466a7.324 7.324 0 0 1-.963-.124zm.87.124c.279.031 1.18.031 1.771.031v.466c-.591 0-1.523 0-1.8-.031zm1.739 0h.435v.466H48.1v-.466zm.435.031a2.759 2.759 0 0 0 1.243-.186l.217.4a3 3 0 0 1-1.491.248l.031-.466zm1.274-.186a1.185 1.185 0 0 0 .466-.963l.466.031a1.489 1.489 0 0 1-.684 1.336zm.435-.994a1.837 1.837 0 0 0 0-.59l.435-.093a4.613 4.613 0 0 1 .031.714zm0-.59a1.514 1.514 0 0 0-.249-.528l.4-.218a2.148 2.148 0 0 1 .28.653l-.435.093zm-.249-.528l-.031-.093h.218zm-.031-.093c0-.342-.031-.653-.031-.994h.467c0 .341.031.652.031.994zm-.031-.994c0-.342-.031-.653-.031-.994h.466c0 .341.031.652.031.994zm0-.963a3.944 3.944 0 0 0-.124-.9l.435-.124a3.437 3.437 0 0 1 .124 1.025zm-.124-.932a7.679 7.679 0 0 0-.311-.9l.435-.186a7.233 7.233 0 0 1 .342.962zm-.311-.9a14.983 14.983 0 0 0-.279-.683l.435-.156c.093.218.155.435.248.684zm.156-.839l-.218.093zm-.435.156a9.759 9.759 0 0 0-.435-1.057l.4-.217a8.694 8.694 0 0 1 .466 1.118zm-.435-1.057l-.031-.155.217.031zm-.031-.155c.031-.124.031-.248.062-.342l.466.062c-.031.125-.031.28-.062.373l-.466-.093zm.062-.342c0-.093.031-.217.031-.372l.466.031c0 .093-.031.248-.031.372l-.466-.031zm.031-.372l.031-.466.342.341-.156.156zm.373-.156c.217.218.435.435.683.653l-.311.341c-.217-.217-.434-.435-.683-.652zm.683.653l.5.5-.311.341-.5-.5.311-.341zm.5.5a6.56 6.56 0 0 0 1.056.869l-.217.4a6.5 6.5 0 0 1-1.15-.963l.311-.31zm1.087.869a2.049 2.049 0 0 0 1.274.311l.031.466a2.64 2.64 0 0 1-1.522-.373zm1.243.311a3.336 3.336 0 0 0 1.677-.652l.28.372a3.5 3.5 0 0 1-1.926.715zm1.677-.621a2.692 2.692 0 0 0 1.025-1.336l.435.124a3.243 3.243 0 0 1-1.18 1.585zm1.025-1.336c.062-.186.094-.342.156-.528l.435.124c-.063.187-.094.342-.156.528zm.156-.528c.062-.217.124-.4.186-.621l.435.124c-.062.217-.124.4-.186.621zm.186-.621l.062-.187.187.031-.031.218zm.249-.156a9.141 9.141 0 0 0 2.92.125l.031.466a11.007 11.007 0 0 1-3.045-.156zm2.92.125a6.874 6.874 0 0 0 2.391-.684l.218.4a6.952 6.952 0 0 1-2.554.746zm2.391-.684a6.08 6.08 0 0 0 2.361-2.33l.4.218a6.212 6.212 0 0 1-2.547 2.516zm2.361-2.33l.187.125-.187-.125zm0 0a9.651 9.651 0 0 0 1.15-3.758l.465.031A10.422 10.422 0 0 1 64.125 58zm1.15-3.758a15.266 15.266 0 0 0-.187-4.038l.466-.063a16.155 16.155 0 0 1 .186 4.163l-.465-.062zm-.187-4.038a11.782 11.782 0 0 0-.994-3.386l.4-.218a11.063 11.063 0 0 1 1.025 3.541zm-.994-3.417a.583.583 0 0 0-.186-.218l.31-.341a1.173 1.173 0 0 1 .249.341l-.373.218zm-.186-.218a2.167 2.167 0 0 0-.777-.466l.155-.435a2.518 2.518 0 0 1 .963.591l-.341.31zm-.777-.466a1.126 1.126 0 0 0-.776-.031l-.218-.4a1.4 1.4 0 0 1 1.118 0l-.124.435zm-.776-.031c-.031.031-.094.062-.125.093l-.341-.31a1.8 1.8 0 0 1 .248-.187l.218.4zm-.125.093a6.7 6.7 0 0 0-.528.684l-.373-.249a6.678 6.678 0 0 1 .56-.745zm-.5.684a4.89 4.89 0 0 1-.714.87l-.311-.342a3.767 3.767 0 0 0 .621-.777l.4.249zm-.714.87a3.551 3.551 0 0 1-1.118.59l-.156-.435a3.063 3.063 0 0 0 .994-.528l.28.373zm-1.118.59a.538.538 0 0 1-.156.062l-.186-.435a.441.441 0 0 1 .186-.062zm-.187.062l-.217.093-.093-.217.217-.094.093.218zM59 48.026a9.022 9.022 0 0 0-.528-1.088l.372-.248a6.992 6.992 0 0 1 .591 1.18l-.435.156zm-.56-1.088a11 11 0 0 0-.714-.963l.342-.279a7.84 7.84 0 0 1 .745 1.025zm-.714-.963a3.668 3.668 0 0 0-.621-.59l.279-.372a3.341 3.341 0 0 1 .684.652l-.342.31zm-.621-.59c-.218-.155-.466-.31-.746-.5l.249-.373c.279.187.528.342.776.529l-.279.341zm-.715-.5a16.519 16.519 0 0 1-2.143-1.677l.311-.342a20.968 20.968 0 0 0 2.081 1.646zm-2.174-1.677c-.28-.249-.59-.5-.9-.777l.28-.341c.31.248.621.528.9.776l-.279.342zm-.9-.777a7.633 7.633 0 0 0-4.416-1.954l.031-.466a7.972 7.972 0 0 1 4.66 2.05l-.28.373zm-4.38-1.957a11.134 11.134 0 0 0-5 1.119l-.186-.435a11.156 11.156 0 0 1 5.218-1.15zm-5 1.119a6.673 6.673 0 0 0-2.143 1.366l-.311-.341a7.655 7.655 0 0 1 2.268-1.429zm-2.143 1.366a12.954 12.954 0 0 0-1.647 1.926l-.373-.279a12.182 12.182 0 0 1 1.709-1.988zm-1.647 1.926l-.062.093h-.093v-.217zm-.155.093a3.411 3.411 0 0 0-.839.156l-.155-.435a2.581 2.581 0 0 1 .994-.187zm-.87.156a2.606 2.606 0 0 0-.9.59l-.31-.342a4.167 4.167 0 0 1 1.025-.683zm-.87.59c-.248.217-.528.466-.776.714l-.311-.341a8.493 8.493 0 0 1 .777-.715zm-.776.683l-.156-.155.156.155zm0 .031c-.249.249-.5.5-.715.746l-.341-.311.745-.745zm-.715.715l-.124.062L36.6 47l.155.155zm-.155.062a22.116 22.116 0 0 0-4.535 1.087l-.156-.435a21.1 21.1 0 0 1 4.629-1.118c-.002.034.057.469.057.469zm-4.535 1.118a11.5 11.5 0 0 0-3.57 2.209l-.311-.342a11.907 11.907 0 0 1 3.727-2.3zm-3.57 2.209a10.136 10.136 0 0 0-1.243 1.335l-.377-.277a9.193 9.193 0 0 1 1.3-1.4zm-1.243 1.335a12.016 12.016 0 0 0-.932 1.492l-.4-.218a9.985 9.985 0 0 1 .955-1.551zm-.932 1.46l-.031.063-.155-.156zm-.031.063a10.147 10.147 0 0 1-.808.838l-.31-.341a9.553 9.553 0 0 0 .776-.808zm-.777.838a3.2 3.2 0 0 1-.962.622l-.156-.435a2.975 2.975 0 0 0 .839-.528zm-.994.622l-.093-.218zm0 0c-.279.124-.434.155-.59.093l.187-.435s.093-.031.248-.093zm-.59.093l.093-.218-.093.218zm0 0c-.186-.062-.217-.218-.31-.5l.434-.156a.616.616 0 0 1 .063.249zm-.341-.5l-.063-.156.125-.093.124.187c.027-.028-.19.065-.19.065zm.093-.249c.435-.31.466-.932.5-1.553l.466.031a2.291 2.291 0 0 1-.684 1.895 3.892 3.892 0 0 0-.286-.37zm.5-1.553v-.217l.466.031v.217zm0-.217l.031-.218h.217v.218zm.248-.218a.993.993 0 0 1 .746.559l-.373.249c-.124-.187-.217-.342-.373-.373v-.435zm.746.559c.062.094.093.156.155.249l-.373.279-.186-.279.4-.249zm.186.435l-.093.466-.311-.373.187-.155zm-.435-.093a3.7 3.7 0 0 0 .062-1.18l.435-.094a3.342 3.342 0 0 1-.062 1.367zm.062-1.18a.8.8 0 0 0-.372-.56l.217-.4a1.282 1.282 0 0 1 .621.869l-.466.094zm-.372-.56l-.187-.093.062-.186.218.093zm-.125-.279c.031-.093.094-.218.125-.342l.435.156c-.032.093-.094.217-.125.341zm.125-.342c.062-.186.124-.341.217-.559l.435.155c-.062.187-.155.373-.217.56zm.4-.714l.373-.062-.124.372-.217-.062-.032-.248zm.063.466a4.987 4.987 0 0 0-2.144 1.366l-.341-.31a5.523 5.523 0 0 1 2.391-1.491c.027-.028.09.438.09.438zm-2.113 1.366a4.9 4.9 0 0 0-.621.839l-.4-.186a3.406 3.406 0 0 1 .684-.963zm-.621.839a1.62 1.62 0 0 0-.155.839l-.466.062a1.8 1.8 0 0 1 .182-1.114zm-.155.839a1.342 1.342 0 0 0 .435.745l-.311.342a1.712 1.712 0 0 1-.559-.994zm.435.745l.062.125-.218.062zm.062.125c.062.248.124.435.155.621l-.435.124a8.425 8.425 0 0 1-.186-.652zm.186.621c.062.186.124.342.186.5l-.4.186a3.635 3.635 0 0 1-.218-.528 2.439 2.439 0 0 1 .428-.155zm.186.466a1.213 1.213 0 0 0 .715.652l-.124.435a1.563 1.563 0 0 1-.994-.9 2.337 2.337 0 0 0 .399-.184zm.715.652a1.651 1.651 0 0 0 1.149-.062l.156.435a2.364 2.364 0 0 1-1.46.093 4.084 4.084 0 0 0 .151-.463zm1.149-.062l.4-.155-.093.4-.218-.063zm.311.249a8.527 8.527 0 0 0-.186 1.584l-.466-.031a9.158 9.158 0 0 1 .217-1.678zm-.186 1.615a15.358 15.358 0 0 0 .062 2.019l-.466.031a16.323 16.323 0 0 1-.062-2.081zm.062 2.019c.031.186.031.373.062.528l-.466.062a4.369 4.369 0 0 1-.062-.559zm.062.528l.093.559-.435.093c-.031-.186-.062-.372-.093-.59zm.093.559v.131l-.217-.093"/>
        <path d="M36.7 47.373l-3.013.5-2.765 1.212-2.329 1.46-2.237 2.7-1.246 1.335-1.212.435-.31-.777.559-.807.124-1.15h.373l.4.373-.125-1.149-.466-.311v-.435l-1.087.621-.963 1.15-.217 1.025.4.839.4 1.4.808.373.839-.031.776-.466-.528 2.672.528 2.982-.528 1.366L23 64.738l.342 1.211.9 1.429 1.708 1.18.9.125.994.031-.621 2.578 2.3.932 2.857.373.994-.653.063-1.739 1.087-1.8.062-1.429 2.64.187 2.454-.218-2.456 1.455.4 1.771 1.557 2.429 1.522.652 1.212-.5.5-.994 2.516-1.926.5.4 3.945.155.777-.652.062-1.118-.249-.5-.186-3.045-1.3-2.64.218-1.18.776.4 2.226 2.092 1.087.062 1.211-.5 1.212-.9.59-1.957 3.541.217 2.144-.838 1.739-1.616 1.243-2.329.31-2.765-.248-3.2-.684-2.857-.683-.9-.932-.311-1.646 1.8-1.522.528-1.3-2.174-1.3-1.212-.714-.466-2.868-2.358-2.3-1.242-2.3-.187-2.672.466-2.329.87-1.616 1.3-1.273 1.553-1.3.373-2.39 2.272z" fill="#ff0" stroke="#1f1917" stroke-miterlimit="10" stroke-width=".216" fill-rule="evenodd"/>
        <path d="M27.967 54.176c-2.578 3.013-2.019 6.679-1.3 10.251-.373-.963-.777-1.926-1.15-2.889-.155-.87-.279-1.77-.434-2.64.031-.9.093-1.8.124-2.7.373-.87.714-1.739 1.087-2.578.528-.808 1.087-1.615 1.615-2.423.839-.714 1.678-1.4 2.548-2.112.931-.373 1.863-.777 2.764-1.15 1.087-.155 2.175-.279 3.262-.434-.994 1.149-2.019 2.3-3.013 3.448-2.392.745-3.821 1.273-5.5 3.23" fill="#ffc" fill-rule="evenodd"/>
        <path d="M40.113 44.981a19.778 19.778 0 0 0-3.913 5.126c-.807 1.46-1.739 2.889-2.578 4.318a5.281 5.281 0 0 0-.59 2.205c-.435-.5-.839-.994-1.274-1.522.187-.59.4-1.211.59-1.8.684-1.211 1.367-2.454 2.051-3.665 1.46-1.429 2.888-2.858 4.348-4.287.435-.124.9-.248 1.367-.373M49 40.664c-1.429.528-3.821.714-3.976 2.36a4.218 4.218 0 0 0 .808 3.014c-1.74-1.8-2.175-1.523-5.56-.963.5-.684.962-1.367 1.459-2.051.839-.528 1.678-1.056 2.548-1.553 1.087-.248 2.174-.5 3.261-.714a10.515 10.515 0 0 1 1.46-.093" fill="#ffc" fill-rule="evenodd"/>
        <path d="M52.942 62.967c.466.311.466.5.4.715l1.118-.466c.249-.342.5-.653.746-.994l.559-1.4c-.217-.187-.466-.342-.683-.528a113.79 113.79 0 0 0-3.045.4c-.062.218-.155.4-.217.622.031.279.031.59.062.869.093.187.187.342.28.529.155.062.31.155.466.217.093 0 .217.031.31.031M52.663 57.779c-1.522.435-1.522.56-1.957 2.082a5.728 5.728 0 0 1 1.957-2.082M62.82 46.441a1.547 1.547 0 0 0-.714.435 4.438 4.438 0 0 1-1.274 1.367 4.025 4.025 0 0 1-.932.4c-.279.093-.434 0-.652.186a1.823 1.823 0 0 0 .4.062h.9c.373-.217.745-.466 1.087-.683.217-.217.435-.466.652-.683.156-.373.342-.715.528-1.088M38.529 49.827a23.707 23.707 0 0 1-2.019 4.536 14.471 14.471 0 0 0 2.547-3.728c.249-.559.311-1.212 1.025-.963.031.559.155 1.087.187 1.646.4-2.795 1.491-3.976 4.038-5.063-.715.093-1.46.186-2.175.249l-2.05.465c-.342.5-.683.963-.994 1.46-.217.466-.373.932-.559 1.4M43.468 49.765c.559 2.609 1.336 5.095 1.677 7.7a5.131 5.131 0 0 1-.621 4.007 5.411 5.411 0 0 0-2.423.342c-3.634 1.18-5.715 2.951-8.138-.59.776.372 1.553.745 2.329 1.087.56-.125 1.119-.218 1.678-.342.994-.559 1.957-1.149 2.951-1.708.776-.156 1.522-.311 2.3-.466.248-1.025.5-2.082.745-3.107l-.559-4.1c-.031-.652-.031-1.3-.062-1.957.031-.249.093-.559.124-.87M49.712 65.825c-.311 2.112.714 3.23.279 3.821-.124.155-.279.466-.466.528-.652.279-1.522-.062-1.584.124h-2.112c-.28-.124-.559-.249-.839-.342.435-.5.87-1.025 1.3-1.522.435-.932.838-1.833 1.273-2.764.28-.932.528-1.864.808-2.8h.435c.311.994.59 1.957.9 2.951" fill="#cc0" fill-rule="evenodd"/>
        <path d="M46.171 59.674a6.659 6.659 0 0 0 .931 2.113 23.574 23.574 0 0 1-1.366 4.628 3.71 3.71 0 0 1-.87 1.3 20.6 20.6 0 0 1-2.3 2.019c-.59.466-.994.217-1.739.124-.311.559-.4.87-.963 1.181-.87.434-1.678-.5-2.361-1.057l1.491 2.33c.342.311.683.652 1.025.963.28.031.59.093.87.124.4-.248.776-.466 1.18-.714.218-.4.4-.777.621-1.181.435-.31.87-.652 1.3-.963.528-.465 1.056-.9 1.584-1.366.342-.466.684-.963.994-1.429.311-.559.591-1.118.9-1.678.4-1.18.777-2.329 1.181-3.51.031-.435.062-.87.093-1.335-.5-.218-.963-.435-1.46-.653-.342-.279-.746-.559-1.118-.9M34.584 66.446a11.618 11.618 0 0 0 4.846-.776 14.278 14.278 0 0 1 1.37-1.709 5.975 5.975 0 0 0-.746 2.392 9.097 9.097 0 0 1-.5.714l-3.7.094c-.4-.031-.808-.094-1.212-.125l-.124-.124c.031-.186.031-.342.062-.466" fill="#cc0" fill-rule="evenodd"/>
        <path d="M34.335 65.3c-.031-.373-.093-.777-.124-1.15-.279 1.678-.217 2.8-.994 4.318a5.653 5.653 0 0 1-2.112 1.616 3.631 3.631 0 0 1 .062.962c-.155 1.088-2.33.622-3.2.56 1.429.372 2.858.745 4.318 1.118.311-.124.653-.249.963-.4.093-.621.218-1.242.311-1.864.31-.559.59-1.118.9-1.677.062-.342.093-.684.155-1.025-.062-.839-.186-1.647-.28-2.454M31.912 55.823a3.153 3.153 0 0 0 .249 1.863c.466.932 1.025 1.771 1.522 2.672.062-.59.093-1.212.155-1.8-.621-.9-1.273-1.833-1.926-2.733M25.265 61.973c-.155.311-.28.59-.435.9a10.643 10.643 0 0 0 1.46 3.262 2.166 2.166 0 0 1-.528 1.025 12.413 12.413 0 0 0-1.864-.125c.715.559 1.46 1.119 2.175 1.678.341-.062.714-.124 1.056-.187l1.056-1.056c-.5-.776-1.025-1.584-1.522-2.361a66.279 66.279 0 0 0-1.4-3.137M62.82 46.007a25.2 25.2 0 0 1 .963 5.839c-.062 2.485-.559 5.623-2.857 7.145-2.579 1.677-5.623.9-8.45.155 1.15.466 2.3.963 3.448 1.429 1.088.062 2.144.093 3.231.156.745-.218 1.46-.435 2.2-.653.56-.466 1.15-.963 1.709-1.429.435-.9.87-1.8 1.3-2.733.155-1.056.31-2.082.5-3.138-.125-1.025-.249-2.05-.4-3.075-.249-1.025-.466-2.019-.715-3.044a8.732 8.732 0 0 1-.932-.652M24.271 51.909c-1.18.776-1.646 1.087-1.491 2.516.124.435.248.838.342 1.273.155.125.341.218.5.342a4.99 4.99 0 0 1 .621.217c.373-.093.745-.186 1.118-.248l.559-1.771c-.528.249-1.056.528-1.584.777h-.376c-.124-.218-.279-.4-.4-.621.156-.249.342-.5.5-.746.094-.466.187-.932.249-1.4.124.031.217.062.342.093.124.094.279.218.4.311-.032-.248-.032-.5-.063-.745l-.279-.466c-.093-.094-.187-.156-.28-.249a4.1 4.1 0 0 1-.155.715M50.581 40.788a20.373 20.373 0 0 1 3.138 2.982c.311.466.683.683 0 1.336a3.16 3.16 0 0 1 1.584-.125c1.056.125 2.05 1.616 2.112 2.7 0 .093-.279.342-1.118.559-.031.031-.466-.062-.435-.031a.633.633 0 0 0 .373.373 2.2 2.2 0 0 0 .249.932 8.173 8.173 0 0 1 1.522.155 1.337 1.337 0 0 1 .124.839c.186-.031.4-.062.59-.093-.062-.435-.093-.87-.155-1.336.186-.28.341-.59.528-.87l-.746-1.677c-.466-.466-.963-.9-1.429-1.367h-.124c-.528-.342-1.056-.653-1.615-.994L52.57 42.03c-.684-.4-1.336-.838-1.989-1.242M52.321 48.74a1.19 1.19 0 0 1-.248.342 2.322 2.322 0 0 1 .807 1.273c-.5.249-.994.5-1.46.715-.4.4-.838.807-1.242 1.18a1.712 1.712 0 0 1-.932-1.087 1.332 1.332 0 0 1-.839.062.851.851 0 0 0 .435-.124c.248-.28.528-.559.777-.808.465-.341.931-.714 1.4-1.056a7.449 7.449 0 0 0 .9-.311 1.179 1.179 0 0 0 .4-.186" fill="#cc0" fill-rule="evenodd"/>
        <path d="M53.688 50.2c-1.553.839-3.044 1.677-3.852 3.262 0-1.988 2.019-2.889 3.852-3.262M49.525 46.224a4.553 4.553 0 0 0-1.863 3.945 3.121 3.121 0 0 1 .9-3.541c.187-.093.4-.187.591-.28.124-.031.248-.093.372-.124" fill="#cc0" fill-rule="evenodd"/>
        <path d="M51.731 58.214c.248-.124.683-.31.9-.435-.249.032-.684.125-.932.187-.653.124-.746.279-.839.9-.062.31-.124.683-.155.994.124-.342.279-.746.435-1.087s.248-.373.59-.56zM39.554 41.533a4.236 4.236 0 0 1 1.615-1.522c-1.087.28-1.304.466-1.615 1.522zm-.186 1.709a6.118 6.118 0 0 1 3.479-3.386c-2.147.559-2.765.932-3.479 3.386zm-19.353 9.474a4.067 4.067 0 0 1 .932-1.988c-.901.621-.994.872-.932 1.988zm20.254 15.221l-.094-.652a4.5 4.5 0 0 1-.031-1.118l.093-1.181c-.124.4-.341.808-.466 1.181a2.447 2.447 0 0 0-.093.4 13.238 13.238 0 0 1-5.063.063c-.093-.622-.249-1.274-.342-1.74-.031.528 0 1.988 0 2.8a2.1 2.1 0 0 1-.341 1.366 13.815 13.815 0 0 0-.87 1.46 4.2 4.2 0 0 1-.093 1.4c-.249.839-2.61.187-3.231.031-.777-.217-2.361-.528-1.957-1.553a12.959 12.959 0 0 0 .746-3.137 16.834 16.834 0 0 1-2.982-7.331 9.076 9.076 0 0 1 .341-4.287 10.893 10.893 0 0 1 3.075-4.784 11.824 11.824 0 0 1 6.8-2.888c-.714.776-1.4 1.615-2.143 2.516a12.514 12.514 0 0 0-1.709 2.8c-.683 1.367-.652 1.9.249 3.076a7.789 7.789 0 0 1 1.522 2.516 5.118 5.118 0 0 0-.466 1.832 5.568 5.568 0 0 0 2.547 1.957 3.2 3.2 0 0 0 2.454-.248c1.771-.9 3.417-2.081 5.436-2.143a10.339 10.339 0 0 0 .4-6.4 31.432 31.432 0 0 1-.528-4.474 10.788 10.788 0 0 0-.155 4.567c.342 1.895.59 4.007-.342 5.684-1.833.125-3.386 1.243-5 2.082a2.828 2.828 0 0 1-2.081.186 3.935 3.935 0 0 1-1.864-1.46 3.769 3.769 0 0 1 .559-1.988c.621-1.243 1.3-2.361 2.05-3.572a32.116 32.116 0 0 0-2.516 3.168 8.2 8.2 0 0 0-1.336-2.081 1.711 1.711 0 0 1-.217-2.268 10.908 10.908 0 0 1 1.708-2.8c1.429-1.523 2.734-3.231 4.287-4.753a3.05 3.05 0 0 1 2.3-.963 37.536 37.536 0 0 0 3.044-.59c-.994.093-1.957.124-2.92.155h-.031a6.993 6.993 0 0 1 3.075-2.578c3.821-1.647 6.244-1.833 9.257.683.777.652 1.46 1.3 2.237 1.864a2.55 2.55 0 0 0-.87.217 4.367 4.367 0 0 1 1.274.063 3.267 3.267 0 0 1 .341.217 3.353 3.353 0 0 1 1.243 1.025 10.8 10.8 0 0 1 1.034 1.707 4.307 4.307 0 0 0-.5-.156.628.628 0 0 0-.342-.093.937.937 0 0 0-.652.155h-.031a4.7 4.7 0 0 1-1.119.373 1.281 1.281 0 0 0 .684 0c.031 0 .031-.031.062-.031a1.8 1.8 0 0 0-.155.435.973.973 0 0 0 .124.59.649.649 0 0 0 .124.186c-.155.063-.31.125-.435.187a7.587 7.587 0 0 1 2.05-.031c.031.217.094.466.125.683a.607.607 0 0 0-.249.031h-.031a1.338 1.338 0 0 0-1.211-.093c-1.522.342-1.181 1.212-1.864 2.485.714-.9.683-1.833 1.864-2.112a1.943 1.943 0 0 1 .652-.124 1.4 1.4 0 0 0-.746.776c-.31.932-.124 1.709-.465 2.547.434-.776.465-1.522.869-2.329a1.877 1.877 0 0 1 .994-.777h.28a5.814 5.814 0 0 1 .092 1.434 15.835 15.835 0 0 1-.373 2.33 8.175 8.175 0 0 0 .715-5c-.218-1.18.994-.994 1.708-1.553a15.641 15.641 0 0 0 1.336-1.522c.466-.466 1.211.218 1.4.653a16.4 16.4 0 0 1 .963 6.958c-.249 2.2-1.3 4.6-3.231 5.684-2.485 1.367-5.4.528-7.859-.279a7.158 7.158 0 0 1-1.367-.715 3.638 3.638 0 0 1 .031 1.74c-.279.9-.683 2.361.529 2.64a1.609 1.609 0 0 0 1.335-.248 2.431 2.431 0 0 1-1.149.031.741.741 0 0 1-.59-.528 2.256 2.256 0 0 0 .621.217 1.562 1.562 0 0 0 1.926-.839 6.8 6.8 0 0 1 .279-1.056 3.378 3.378 0 0 0 .591.156c-.125.372-.218.714-.342 1.087a2.64 2.64 0 0 1-2.423 1.677 3.333 3.333 0 0 1-2.143-1.149c-.435-.4-.87-.777-1.274-1.118a9.647 9.647 0 0 1-3.137-1.585 5.347 5.347 0 0 0 2.329 1.833 20.788 20.788 0 0 1-1.149 4.225 14.789 14.789 0 0 1-2.33 3.665c-.341.187-2.391 1.926-2.764 2.144a3.825 3.825 0 0 1-.963 1.149c-1.3.683-2.175-.652-2.889-1.771-.311-.528-1.212-1.988-.435-2.423a21.051 21.051 0 0 0 1.895-1.18c0 .217.186.4.311.621zm4.6 2.392c-.652.528-1.8 1.491-2.019 1.615-.4.591-.435.963-1.087 1.3-1.895 1.025-2.889-.155-4.008-1.864-.528-.807-1.677-2.671-.466-3.324.529-.279.9-.466 1.3-.683a14.814 14.814 0 0 1-3.883-.031c.031.155.031.311.062.435a1.654 1.654 0 0 1-.279 1.522 7.344 7.344 0 0 0-.746 1.3 3.819 3.819 0 0 1-.155 1.646c-.4 1.46-3.106.652-4.225.373-1.335-.373-3.23-.684-2.454-2.423a6.262 6.262 0 0 0 .435-1.212c-1.149.528-2.8-.59-3.541-1.335a4.515 4.515 0 0 1-1.274-2.423c-.124-.715 0-.715.5-1.212.466-.466.932-.9 1.367-1.367.187-.5.373-1.025.559-1.522a13.774 13.774 0 0 1-.155-1.118 12.375 12.375 0 0 1 .124-3.665 1.614 1.614 0 0 1-2.143-.684 6.258 6.258 0 0 1-.373-1.149c-1.8-1.74 1.584-4.038 2.578-4.194-.124.311-.248.622-.341.9.683.342.59 1.336.435 1.957-.249-.31-.373-.714-.715-.714-.062.714-.031 1.522-.59 1.926.155.434.155.434.621.248a4.5 4.5 0 0 0 1.678-1.4 10.222 10.222 0 0 1 2.2-2.889c2.365-2.099 4.633-2.782 8.236-3.342a17.1 17.1 0 0 1 1.522-1.46 2.544 2.544 0 0 1 1.864-.808 8.626 8.626 0 0 1 3.852-3.355c3.851-1.615 6.523-1.708 9.629.839a32.529 32.529 0 0 0 3.013 2.454 5.4 5.4 0 0 1 1.4 1.118 6.858 6.858 0 0 1 1.305 2.143 3.716 3.716 0 0 0 1.211-.621c.466-.4.777-1.087 1.212-1.522.59-.59 1.926.124 2.2.683a16.6 16.6 0 0 1 1.212 7.549c-.246 2.61-1.33 5.064-3.63 6.28a8.529 8.529 0 0 1-5.436.559c-.124.373-.217.776-.341 1.149a3.4 3.4 0 0 1-2.889 2.143 3.16 3.16 0 0 1-2.516-1.242c-.4-.373-.777-.746-1.181-1.118l-.093.745c.311.621.466 1.15.714 1.771a4.99 4.99 0 0 1 .466 1.895c.031.652.031 1.3.062 1.957a1.764 1.764 0 0 1 .28 1.242c-.093 1.243-.777 1.367-1.926 1.367-.373 0-1.833 0-2.205-.031-.624-.037-1.121-.097-1.369-.408zm3.883-6.865c-.218.839-.559 1.615-.839 2.516a12.381 12.381 0 0 1-2.454 3.914 2.159 2.159 0 0 0 .963.218c.373.031 1.8.031 2.174.031.808 0 1.088-.031 1.181-.963a1.27 1.27 0 0 0-.218-.932c-.031-.684-.031-1.4-.062-2.081a4.411 4.411 0 0 0-.4-1.647 10.441 10.441 0 0 1-.348-1.056zM24.457 52.1c.187-.031.28.062.435.217-.031-.341-.093-.59-.31-.714a.279.279 0 0 0-.031.155.7.7 0 0 0-.094.342zm1.119 2.392l-.376 1.02c-.031.062-.031.124-.062.186-.684.28-1.585.466-1.926-.248a7.752 7.752 0 0 1-.373-1.119c-1.118-1.149.559-2.7 1.46-3.261a5.712 5.712 0 0 0-.28.714c-.279.963.125 1.8-.745 2.516.4.839.4 1.15 1.336.777a2.531 2.531 0 0 0 .966-.59zm-.249 7.828a19.488 19.488 0 0 0 2.361 5v.031a2 2 0 0 1-.28.714c-.683.932-2.454-.434-2.982-.963A3.482 3.482 0 0 1 23.4 65.2c-.062-.466 0-.466.311-.808.435-.435.87-.87 1.3-1.336.099-.244.223-.493.316-.741zm32.989-14.356a1.38 1.38 0 0 1 .249.341l.093-.093c-.031-.093-.093-.186-.124-.28a.6.6 0 0 1-.218.032zm-8.542 3.23a1.348 1.348 0 0 1-.124-.59 3.284 3.284 0 0 1-1.088.652c.528-.466 1.243-1.553 1.74-1.9.59-.4 1.367-.31 2.05-.621a3.184 3.184 0 0 1-.839.528 1.349 1.349 0 0 1 .777.715 1.329 1.329 0 0 1 .124.435 4.04 4.04 0 0 1 1.274-.218 7.883 7.883 0 0 0-3.79 2.454 3.656 3.656 0 0 1 .466-.839 1.276 1.276 0 0 1-.59-.621zM43.5 46.286a21.047 21.047 0 0 1-2.143.683 4.584 4.584 0 0 0-1.212 2.486 2.5 2.5 0 0 1 .28-2.237 2.829 2.829 0 0 0-.5.342c-.715.621-1.647 3.013-2.019 3.883.248-1.025.963-3.635 1.739-4.38a1.532 1.532 0 0 1 1.336-.559c.839-.032 1.677-.125 2.516-.218zM59.093 48.8a2.221 2.221 0 0 0 1.491-.124 4.865 4.865 0 0 0 2.236-2.3 3.418 3.418 0 0 1-2.112 2.61 2.27 2.27 0 0 1-1.615-.187zm-11.618.124a3.5 3.5 0 0 1 2.206-2.733c-2.081.499-2.481 1.4-2.206 2.735zm-26.994 5.439a6 6 0 0 1 2.019-4.411c-1.8 1.273-2.267 1.832-2.019 4.411" fill-rule="evenodd"/>
        <path d="M50.053 51.505a.584.584 0 1 1 1.057-.5c0 .031.031.062.031.093a3.4 3.4 0 0 0-.746.745.734.734 0 0 1-.342-.341M56.546 48.989a.445.445 0 0 1 .466-.4.466.466 0 0 1 .4.466c0 .062-.031.093-.031.155a3.234 3.234 0 0 0-.683.186.589.589 0 0 1-.155-.4" fill="#ffc" fill-rule="evenodd"/>
    </g>
</svg>
