<svg width="984" height="438" fill="none" xmlns="http://www.w3.org/2000/svg">
	<rect width="984" height="437.333" rx="200" fill="#303030"/>
	<path fill-rule="evenodd" clip-rule="evenodd" d="M523.351 157.198v122.934h-20.95v-48.526h-46.735v48.526h-20.951V157.198h20.951v53.38h46.735v-53.38h20.95Zm41.805 101.114c-4.932-3.494-9.573-8.913-9.573-13.766h68.492c.589-2.873.859-5.802.805-8.735a44.592 44.592 0 0 0-12.215-31.623c-8.037-8.681-18.362-13.021-30.975-13.021-13.322 0-24.227 4.313-32.715 12.94a42.713 42.713 0 0 0-9.631 14.443 42.86 42.86 0 0 0-3.1 17.1c0 12.865 4.298 23.519 12.893 31.962 8.595 8.444 19.876 12.617 33.843 12.52 16.631 0 29.196-6.146 37.694-18.44l-15.133-9.058c-4.834 7.279-12.441 10.757-22.32 10.757a31.195 31.195 0 0 1-18.065-5.079Zm40.385-28.324h-49.958c0-6.47 4.125-12.94 8.718-16.661a26.467 26.467 0 0 1 17.212-5.58 24.931 24.931 0 0 1 15.826 5.241c4.593 3.494 8.202 12.148 8.202 17Zm32.232-72.79v122.934h20.95V157.198h-20.95Zm51.57 17.987a9.939 9.939 0 0 1-3.314 2.271 9.897 9.897 0 0 1-3.938.77 10.307 10.307 0 0 1-7.446-3.04 10.384 10.384 0 0 1-2.267-3.43 10.426 10.426 0 0 1-.762-4.044c0-2.788 1.103-5.462 3.068-7.434a10.454 10.454 0 0 1 7.407-3.08c2.778 0 5.443 1.108 7.407 3.08a10.532 10.532 0 0 1 3.068 7.434 10.24 10.24 0 0 1-3.223 7.473Zm-17.727 15.982v88.965h20.95v-88.965h-20.95Zm46.735 76.106a44.267 44.267 0 0 0 22.751 12.257 44.158 44.158 0 0 0 25.696-2.551 44.356 44.356 0 0 0 19.919-16.493 44.602 44.602 0 0 0 7.378-24.836 44.63 44.63 0 0 0-3.373-17.023 44.504 44.504 0 0 0-9.607-14.431 44.302 44.302 0 0 0-14.378-9.643 44.167 44.167 0 0 0-33.92 0 44.302 44.302 0 0 0-14.378 9.643 44.504 44.504 0 0 0-9.607 14.431 44.63 44.63 0 0 0-3.373 17.023 42.882 42.882 0 0 0 3.16 17.161 42.77 42.77 0 0 0 9.732 14.462Zm31.426-4.125a26.572 26.572 0 0 1-10.55-1.907 26.658 26.658 0 0 1-8.95-5.922 26.482 26.482 0 0 1-5.994-9.007 26.586 26.586 0 0 1-1.903-10.662 26.588 26.588 0 0 1 1.903-10.663 26.491 26.491 0 0 1 5.994-9.007 28.226 28.226 0 0 1 19.5-7.826c7.26 0 14.242 2.802 19.5 7.826a26.491 26.491 0 0 1 5.994 9.007 26.588 26.588 0 0 1 1.903 10.663 26.586 26.586 0 0 1-1.903 10.662 26.482 26.482 0 0 1-5.994 9.007 26.658 26.658 0 0 1-8.95 5.922 26.572 26.572 0 0 1-10.55 1.907Zm78.967-39.679c-3.062-1.617-4.593-3.946-4.593-6.761a7.262 7.262 0 0 1 3.561-6.6 15.701 15.701 0 0 1 8.832-2.361c7.682 0 12.995 3.235 15.938 9.705l15.439-8.638a30.956 30.956 0 0 0-12.586-12.908 36.486 36.486 0 0 0-18.743-4.739 34.688 34.688 0 0 0-22.223 7.101 22.867 22.867 0 0 0-6.651 8.329 22.966 22.966 0 0 0-2.165 10.451 21.373 21.373 0 0 0 4.658 14.04 26.887 26.887 0 0 0 11.539 7.781 244.605 244.605 0 0 0 13.392 4.221 47.408 47.408 0 0 1 11.361 4.222c3.223 1.704 4.808 3.904 4.755 6.6 0 6.319-4.808 9.479-14.424 9.479s-15.89-4.06-18.823-12.181l-15.858 9.14a30.695 30.695 0 0 0 13.07 14.558 42.016 42.016 0 0 0 21.53 5.224c9.509 0 17.373-2.313 23.594-6.939a22.26 22.26 0 0 0 7.172-8.337 22.354 22.354 0 0 0 2.32-10.766 21.081 21.081 0 0 0-4.754-14.219 24.512 24.512 0 0 0-11.362-8.087 139.118 139.118 0 0 0-13.569-4.06 64.634 64.634 0 0 1-11.362-4.206l-.048-.049Z" fill="#fff"/>
	<path fill-rule="evenodd" clip-rule="evenodd" d="M275.863 103.674a13.02 13.02 0 0 1 6.391 7.642 13.078 13.078 0 0 1-.864 9.94l-33.617 64.832a19.53 19.53 0 0 1-7.158 7.369 19.438 19.438 0 0 1-19.785 0 19.537 19.537 0 0 1-7.158-7.369l-33.73-64.832a13.08 13.08 0 0 1-.763-9.757 13.021 13.021 0 0 1 6.217-7.541 12.944 12.944 0 0 1 9.692-1.074 12.994 12.994 0 0 1 7.706 5.998l.193.34 20.612 39.614a8.068 8.068 0 0 0 4.679 3.986 8.028 8.028 0 0 0 6.119-.476 7.957 7.957 0 0 0 3.416-3.43l20.548-39.694a13.026 13.026 0 0 1 3.167-3.967 12.945 12.945 0 0 1 14.335-1.581Z" fill="#79851E"/>
	<path fill-rule="evenodd" clip-rule="evenodd" d="m197.589 201.503-64.592-33.758a12.94 12.94 0 0 0-9.869-.816 12.998 12.998 0 0 0-7.575 6.403 13.084 13.084 0 0 0-.877 9.9 13.029 13.029 0 0 0 6.331 7.644l39.467 20.607a8.076 8.076 0 0 1 3.168 2.979 8.108 8.108 0 0 1 0 8.391 8.066 8.066 0 0 1-3.168 2.978l-39.467 20.624-.339.178a13.032 13.032 0 0 0-5.976 7.734 13.085 13.085 0 0 0 1.07 9.729 13.006 13.006 0 0 0 7.513 6.24 12.949 12.949 0 0 0 9.722-.766l64.592-33.742a19.521 19.521 0 0 0 7.343-7.179 19.61 19.61 0 0 0 0-19.854 19.514 19.514 0 0 0-7.343-7.179v-.113Z" fill="#D6EA3D"/>
	<path fill-rule="evenodd" clip-rule="evenodd" d="M344.612 173.374a13.08 13.08 0 0 1 .923 9.759 13.031 13.031 0 0 1-6.112 7.646l-.338.178-39.452 20.542a8.073 8.073 0 0 0-3.167 2.979 8.108 8.108 0 0 0 0 8.391 8.063 8.063 0 0 0 3.167 2.978l39.452 20.608a13.002 13.002 0 0 1 6.453 7.641 13.079 13.079 0 0 1-.851 9.98 13.02 13.02 0 0 1-7.654 6.429 12.94 12.94 0 0 1-9.938-.919l-64.592-33.759a19.514 19.514 0 0 1-7.344-7.178 19.618 19.618 0 0 1 0-19.854 19.517 19.517 0 0 1 7.344-7.179l64.592-33.742a12.943 12.943 0 0 1 9.892-.887 13 13 0 0 1 7.625 6.387Z" fill="#79851E"/>
	<path fill-rule="evenodd" clip-rule="evenodd" d="M230.046 241.084c3.478-.003 6.893.93 9.889 2.702a19.478 19.478 0 0 1 7.145 7.376l33.617 64.831a13.078 13.078 0 0 1 .763 9.758 13.023 13.023 0 0 1-6.216 7.541 12.947 12.947 0 0 1-9.693 1.074 12.997 12.997 0 0 1-7.706-5.998l-.177-.34-20.483-39.517a8.085 8.085 0 0 0-2.967-3.18 8.04 8.04 0 0 0-11.328 3.18l-20.531 39.598a13.033 13.033 0 0 1-3.162 4.002 12.95 12.95 0 0 1-14.395 1.621 13.013 13.013 0 0 1-6.404-7.683 13.087 13.087 0 0 1 .915-9.975l33.634-64.831a19.534 19.534 0 0 1 7.162-7.432 19.437 19.437 0 0 1 9.937-2.727Z" fill="#79851E"/>
</svg>
