<svg xmlns="http://www.w3.org/2000/svg" viewBox="58.01 116.51 311.48 75.48">
	<path fill="#0b73e5" d="M103.968 155.852c.115 0 .171.11.171.326s-.056.326-.17.326c-1.323 0-2.383-.016-3.181-.049l-4.36-.065-5.097.065c-.684.033-1.607.05-2.77.05-.115 0-.171-.11-.171-.327s.056-.326.17-.326c1.391 0 2.412-.086 3.062-.26.638-.185 1.072-.527 1.3-1.028.227-.51.342-1.32.342-2.429v-12.421H74.966v12.421c0 1.076.115 1.875.342 2.397.228.521.662.875 1.3 1.06.638.174 1.659.26 3.06.26.07 0 .103.11.103.326s-.034.326-.102.326c-1.322 0-2.382-.016-3.18-.049l-4.926-.065-4.24.065c-.765.033-1.808.05-3.13.05-.068 0-.102-.11-.102-.327s.034-.326.102-.326c1.322 0 2.286-.086 2.89-.26.604-.185 1.021-.539 1.248-1.06.228-.522.342-1.32.342-2.397V127.13c0-1.076-.114-1.87-.342-2.38-.227-.5-.632-.848-1.214-1.044-.581-.207-1.516-.31-2.804-.31-.115 0-.171-.102-.171-.309 0-.217.056-.326.17-.326l3.062.049c1.732.076 3.13.114 4.19.114 1.436 0 3.1-.038 4.993-.114l3.112-.049c.068 0 .102.11.102.326 0 .207-.034.31-.102.31-1.368 0-2.372.109-3.01.326-.638.217-1.082.587-1.334 1.108-.239.522-.359 1.326-.359 2.413v10.955h18.297v-10.955c0-1.087-.114-1.891-.342-2.413-.227-.521-.661-.891-1.3-1.108-.649-.217-1.67-.326-3.06-.326-.115 0-.171-.103-.171-.31 0-.217.056-.326.17-.326l2.771.049c1.893.076 3.591.114 5.096.114 1.026 0 2.48-.038 4.36-.114l3.181-.049c.115 0 .171.11.171.326 0 .207-.056.31-.17.31-1.288 0-2.24.102-2.857.31-.627.195-1.043.542-1.248 1.043-.217.51-.325 1.304-.325 2.38v25.006c0 1.076.108 1.875.325 2.397.205.521.61.875 1.214 1.06.604.174 1.568.26 2.89.26zm13.24-3.717c0 1.076.098 1.875.292 2.397.183.521.52.875 1.009 1.06.49.174 1.282.26 2.376.26.08 0 .12.11.12.326s-.04.326-.12.326c-1.162 0-2.069-.016-2.718-.049l-3.848-.065-3.677.065c-.684.033-1.63.05-2.838.05-.069 0-.103-.11-.103-.327s.034-.326.103-.326c1.094 0 1.898-.086 2.41-.26a1.646 1.646 0 0 0 1.044-1.06c.195-.522.29-1.32.29-2.397v-16.53c0-1.075-.095-1.87-.29-2.38-.181-.5-.53-.847-1.043-1.043-.513-.207-1.317-.31-2.411-.31-.069 0-.103-.102-.103-.31 0-.216.034-.325.103-.325l2.838.049c1.505.076 2.731.114 3.677.114 1.026 0 2.332-.038 3.916-.114l2.65-.05c.08 0 .12.11.12.327 0 .207-.04.31-.12.31-1.048 0-1.83.109-2.342.326a1.8 1.8 0 0 0-1.043 1.108c-.194.522-.291 1.325-.291 2.413v16.415zm22.206 5.021c-3.02 0-5.654-.603-7.9-1.81-2.246-1.205-3.956-2.798-5.13-4.776-1.174-1.988-1.762-4.08-1.762-6.276 0-2.803.674-5.237 2.018-7.303 1.345-2.075 3.244-3.663 5.694-4.76 2.452-1.097 5.342-1.646 8.67-1.646 1.653 0 3.249.142 4.788.424 1.529.293 2.8.712 3.813 1.255.264.109.423.233.48.375.057.142.109.412.153.815l.274 5.07c0 .109-.103.174-.308.195-.205.012-.33-.037-.376-.146-2.907-4.532-6.281-6.798-10.124-6.798-2.69 0-4.798 1.027-6.327 3.08-1.527 2.043-2.291 4.956-2.291 8.738 0 3.673.867 6.647 2.599 8.917 1.744 2.271 4.104 3.407 7.08 3.407 1.516 0 2.623-.158 3.317-.472.708-.305 1.18-.88 1.42-1.728.25-.837.375-2.173.375-4.01 0-.946-.078-1.603-.239-1.973-.147-.38-.467-.636-.958-.766-.489-.12-1.339-.18-2.548-.18-.227 0-.342-.146-.342-.44 0-.109.03-.207.086-.293.058-.086.126-.13.205-.13a82.76 82.76 0 0 0 5.934.211c.913 0 2.423-.037 4.531-.114.08 0 .15.05.206.147a.44.44 0 0 1 .085.245c0 .249-.096.375-.29.375-.558-.044-.951.01-1.18.163-.228.141-.382.435-.462.88-.069.456-.103 1.26-.103 2.412 0 1.62.046 2.75.137 3.391.092.652.137 1.104.137 1.353 0 .217-.034.354-.103.408-.078.054-.267.135-.564.244-2.53 1.011-6.195 1.516-10.995 1.516zm48.768-1.304c.114 0 .17.11.17.326s-.056.326-.17.326c-1.175 0-2.082-.016-2.72-.049l-3.744-.065-3.797.065a56.21 56.21 0 0 1-2.718.05c-.115 0-.171-.11-.171-.327s.056-.326.17-.326c1.06 0 1.835-.086 2.326-.26.49-.185.833-.539 1.026-1.06.183-.522.274-1.32.274-2.397v-7.678h-13.646v7.678c0 1.076.097 1.864.29 2.364.183.51.53.864 1.044 1.06.513.195 1.294.293 2.342.293.08 0 .12.11.12.326s-.04.326-.12.326c-1.162 0-2.069-.016-2.719-.049l-3.796-.065-3.676.065c-.684.033-1.63.05-2.839.05-.068 0-.103-.11-.103-.327s.035-.326.103-.326c1.094 0 1.898-.086 2.411-.26a1.65 1.65 0 0 0 1.043-1.06c.193-.522.29-1.32.29-2.397v-16.53c0-1.075-.097-1.87-.29-2.38-.183-.5-.53-.847-1.043-1.043-.513-.207-1.277-.31-2.291-.31-.115 0-.171-.102-.171-.31 0-.216.056-.325.17-.325l2.72.049a76.67 76.67 0 0 0 3.676.114 76.63 76.63 0 0 0 3.796-.114l2.72-.05c.08 0 .12.11.12.327 0 .207-.04.31-.12.31-1.505 0-2.497.256-2.976.766-.467.5-.701 1.527-.701 3.08v7.336h13.646v-7.335c0-1.088-.09-1.891-.274-2.413-.193-.522-.535-.892-1.026-1.108-.49-.217-1.265-.326-2.325-.326-.115 0-.171-.103-.171-.31 0-.217.056-.326.17-.326l2.72.049c1.516.076 2.782.114 3.796.114.911 0 2.16-.038 3.745-.114l2.719-.05c.114 0 .17.11.17.327 0 .207-.056.31-.17.31-1.06 0-1.847.102-2.36.31-.501.195-.85.542-1.043 1.043-.183.51-.274 1.304-.274 2.38v16.53c0 1.075.09 1.874.274 2.396.193.521.535.875 1.026 1.06.49.174 1.282.26 2.377.26zm27.242-3.945c0 1.153.132 1.989.393 2.51.264.522.76.892 1.488 1.11.742.216 1.927.325 3.557.325.102 0 .154.11.154.326s-.052.326-.154.326c-1.55 0-2.758-.016-3.625-.049l-4.942-.065-4.122.065c-.762.033-1.783.05-3.06.05-.113 0-.171-.11-.171-.327s.058-.326.17-.326c1.21 0 2.087-.086 2.634-.26.547-.185.913-.539 1.094-1.06.195-.522.291-1.32.291-2.397V127.13c0-1.076-.096-1.87-.29-2.38-.182-.5-.558-.848-1.13-1.044-.569-.207-1.436-.31-2.598-.31-.113 0-.171-.102-.171-.309 0-.217.058-.326.17-.326l2.993.049c1.744.076 3.124.114 4.138.114.913 0 1.99-.054 3.232-.163a41.203 41.203 0 0 1 1.864-.114 61.295 61.295 0 0 1 2.616-.049c3.843 0 6.882.761 9.115 2.282 2.223 1.533 3.334 3.901 3.334 7.108 0 2.228-.603 4.12-1.812 5.673-1.207 1.543-2.764 2.71-4.669 3.504a15.096 15.096 0 0 1-5.865 1.19c-1.014 0-1.903-.086-2.668-.26-.068 0-.102-.093-.102-.277 0-.11.029-.217.085-.326.058-.11.12-.147.188-.115a7.534 7.534 0 0 0 1.933.229c1.734 0 3.175-.778 4.326-2.332 1.153-1.543 1.727-3.737 1.727-6.585s-.632-5.042-1.898-6.586c-1.253-1.544-3.088-2.315-5.506-2.315-1.06 0-1.779.233-2.155.7-.376.469-.564 1.387-.564 2.756v24.664zm29.782-16.252v16.252c0 .978.095 1.7.29 2.168.182.468.548.8 1.095.995.547.195 1.368.293 2.462.293h.633c2.155 0 4.114-.663 5.882-1.989 1.779-1.336 3.084-3.134 3.916-5.395.034-.077.154-.103.36-.082.215.011.324.054.324.13-.273 1.903-.41 4.456-.41 7.662 0 .294-.063.5-.188.62-.137.13-.376.195-.718.195h-22.658c-.069 0-.103-.109-.103-.326s.034-.326.103-.326c.992 0 1.71-.086 2.154-.26.455-.185.77-.539.94-1.06.172-.522.257-1.32.257-2.397v-16.53c0-1.075-.085-1.87-.256-2.38-.171-.5-.486-.847-.94-1.043-.445-.207-1.163-.31-2.155-.31-.069 0-.103-.102-.103-.31 0-.216.034-.325.103-.325l2.787.049c1.584.076 2.81.114 3.677.114.98 0 2.262-.038 3.847-.114l2.617-.05c.112 0 .17.11.17.327 0 .207-.058.31-.17.31-1.141 0-1.984.102-2.531.31-.547.195-.913.554-1.095 1.075-.195.522-.29 1.32-.29 2.397zm47.348 20.197c.195 0 .291.11.291.326s-.096.326-.29.326c-.787 0-1.977-.037-3.575-.114a102.758 102.758 0 0 0-3.505-.098c-.638 0-1.642.033-3.01.098-1.275.077-2.182.114-2.719.114-.147 0-.222-.109-.222-.326s.075-.326.222-.326c.88 0 1.495-.098 1.847-.293.366-.196.547-.494.547-.897 0-.5-.325-1.397-.974-2.69l-3.386-6.977h-6.584l-2.154 4.875c-.672 1.51-1.01 2.694-1.01 3.553 0 .87.32 1.489.958 1.859.64.38 1.642.57 3.01.57.183 0 .274.11.274.326s-.091.326-.274.326c-.535 0-1.293-.037-2.274-.114a48.14 48.14 0 0 0-2.942-.098c-.945 0-2.062.033-3.351.098a42.422 42.422 0 0 1-2.77.114c-.182 0-.274-.109-.274-.326s.092-.326.274-.326c1.174 0 2.12-.163 2.838-.489.718-.314 1.385-.924 2-1.826.628-.901 1.359-2.287 2.19-4.157l8.498-18.958a.352.352 0 0 1 .342-.212c.15 0 .264.07.342.212l9.064 18.681c.935 1.945 1.716 3.386 2.342 4.32.628.934 1.26 1.577 1.898 1.924.64.337 1.432.505 2.377.505zm-18.246-17.932-2.48 5.673h5.268l-2.788-5.673zm29.627 14.215c0 1.076.095 1.875.29 2.397.182.521.518.875 1.01 1.06.488.174 1.282.26 2.376.26.079 0 .12.11.12.326s-.041.326-.12.326c-1.163 0-2.069-.016-2.719-.049l-3.847-.065-3.677.065c-.684.033-1.631.05-2.839.05-.068 0-.102-.11-.102-.327s.034-.326.102-.326c1.095 0 1.899-.086 2.412-.26a1.65 1.65 0 0 0 1.043-1.06c.193-.522.29-1.32.29-2.397v-16.53c0-1.075-.097-1.87-.29-2.38-.183-.5-.53-.847-1.043-1.043-.513-.207-1.317-.31-2.412-.31-.068 0-.102-.102-.102-.31 0-.216.034-.325.102-.325l2.84.049a75.09 75.09 0 0 0 3.676.114c1.026 0 2.33-.038 3.916-.114l2.65-.05c.079 0 .12.11.12.327 0 .207-.041.31-.12.31-1.05 0-1.83.109-2.343.326a1.799 1.799 0 0 0-1.043 1.108c-.195.522-.29 1.325-.29 2.413v16.415zm37.098-20.898c.115 0 .171.109.171.326 0 .207-.056.31-.17.31-1.505 0-2.617.505-3.335 1.516s-1.077 2.596-1.077 4.76v18.942c0 .077-.098.13-.291.163-.183.044-.313.028-.393-.049l-19.888-21.387v13.823c0 2.13.354 3.696 1.06 4.695.696 1.01 1.779 1.516 3.25 1.516.114 0 .17.11.17.326s-.056.326-.17.326c-.902 0-1.596-.016-2.087-.049l-2.719-.065-2.719.065a39.46 39.46 0 0 1-2.274.05c-.08 0-.12-.11-.12-.327s.04-.326.12-.326c1.517 0 2.628-.505 3.334-1.516.719-1 1.078-2.564 1.078-4.695v-14.9c-1.014-1.01-1.91-1.739-2.685-2.184-.775-.456-1.522-.684-2.24-.684-.069 0-.103-.103-.103-.31 0-.217.034-.326.103-.326l3.18.049c.296 0 .714-.012 1.249-.033.525-.011 1.864-.016 4.018-.016.296 0 .548.086.753.26.217.185.547.527.992 1.028.307.435.723.94 1.248 1.516l14.005 14.9v-10.792c0-2.164-.342-3.75-1.026-4.76-.684-1.011-1.778-1.516-3.283-1.516-.08 0-.12-.103-.12-.31 0-.217.04-.326.12-.326l2.154.049a41.98 41.98 0 0 0 2.65.114c.65 0 1.58-.038 2.788-.114l2.257-.05zm8.669 3.994c0 1.01.29 1.886.872 2.624a8.158 8.158 0 0 0 2.154 1.875c.845.522 2.008 1.146 3.489 1.875 1.7.859 3.026 1.586 3.984 2.184a8.936 8.936 0 0 1 2.497 2.299c.696.934 1.043 2.049 1.043 3.341 0 1.446-.445 2.75-1.334 3.913-.877 1.173-2.091 2.103-3.642 2.787-1.55.685-3.289 1.027-5.216 1.027-1.732 0-3.425-.207-5.079-.62-1.641-.412-2.78-.875-3.42-1.385-.296-.174-.444-.55-.444-1.125l-.291-6.113c0-.141.097-.228.29-.26.184-.044.315.01.394.163 1.436 2.368 2.89 4.308 4.36 5.82 1.471 1.52 3.154 2.281 5.045 2.281 1.129 0 2.07-.326 2.822-.978.764-.652 1.145-1.625 1.145-2.918 0-1.152-.313-2.156-.94-3.015a8.792 8.792 0 0 0-2.292-2.201c-.911-.587-2.12-1.277-3.625-2.07-2.233-1.153-3.933-2.245-5.096-3.277-1.173-1.022-1.761-2.359-1.761-4.01 0-2.087.964-3.755 2.89-5.005 1.927-1.239 4.248-1.858 6.96-1.858 1.209 0 2.474.125 3.796.375 1.323.25 2.384.538 3.18.864.343.109.565.244.667.407.115.163.171.387.171.669v5.135c0 .109-.09.19-.273.244-.193.054-.325.028-.393-.081-.719-1.435-1.72-2.858-3.01-4.271-1.288-1.402-2.986-2.103-5.096-2.103-1.288 0-2.25.314-2.89.945-.638.631-.957 1.451-.957 2.462z"/>
	<path fill="#fb8b23" d="M193.804 161.522c1.14 0 2.323.103 3.55.31 1.233.2 2.203.477 2.91.83.227.08.373.177.44.29.06.113.103.31.13.59l.46 4.94c0 .073-.063.123-.19.15-.127.027-.203-.013-.23-.12-.733-1.973-1.843-3.48-3.33-4.52-1.48-1.04-3.22-1.56-5.22-1.56-2.633 0-4.697.927-6.19 2.78-1.5 1.847-2.25 4.33-2.25 7.45 0 2.327.413 4.467 1.24 6.42.82 1.947 1.96 3.49 3.42 4.63 1.453 1.14 3.08 1.71 4.88 1.71 3.42 0 6.017-2.127 7.79-6.38.027-.1.11-.137.25-.11.14.02.21.07.21.15l-.57 4.86c-.053.307-.11.503-.17.59-.067.087-.213.183-.44.29-2.207.887-4.55 1.33-7.03 1.33-3.093 0-5.663-.617-7.71-1.85-2.053-1.227-3.57-2.79-4.55-4.69-.973-1.9-1.46-3.877-1.46-5.93 0-2.38.653-4.493 1.96-6.34 1.307-1.853 3.037-3.287 5.19-4.3 2.153-1.013 4.457-1.52 6.91-1.52zm19.952 24.63c-1.8 0-3.403-.427-4.81-1.28a8.775 8.775 0 0 1-3.26-3.4c-.773-1.42-1.16-2.963-1.16-4.63 0-1.953.5-3.64 1.5-5.06a9.618 9.618 0 0 1 3.85-3.23c1.573-.733 3.183-1.1 4.83-1.1 1.8 0 3.383.437 4.75 1.31s2.423 2.007 3.17 3.4a9.2 9.2 0 0 1 1.12 4.41c0 1.7-.443 3.283-1.33 4.75s-2.097 2.64-3.63 3.52c-1.527.873-3.203 1.31-5.03 1.31zm.91-.84c1.6 0 2.887-.697 3.86-2.09.973-1.393 1.46-3.32 1.46-5.78 0-1.667-.267-3.19-.8-4.57-.527-1.387-1.287-2.483-2.28-3.29-.987-.813-2.15-1.22-3.49-1.22-1.647 0-2.913.633-3.8 1.9s-1.33 3.09-1.33 5.47c0 1.8.27 3.43.81 4.89.547 1.453 1.303 2.6 2.27 3.44.96.833 2.06 1.25 3.3 1.25zm35.23-.08c.047 0 .07.077.07.23 0 .153-.023.23-.07.23a26.1 26.1 0 0 1-1.64-.04l-2.28-.04-2.58.04c-.433.027-1.03.04-1.79.04-.047 0-.07-.077-.07-.23 0-.153.023-.23.07-.23.787 0 1.37-.07 1.75-.21.38-.133.64-.38.78-.74.14-.353.183-.91.13-1.67l-.6-12.08-6.12 14.89c-.053.107-.143.16-.27.16-.153 0-.253-.053-.3-.16l-7.22-14.09-.23 9.76c-.027 1.447.183 2.5.63 3.16.44.653 1.143.98 2.11.98.073 0 .11.077.11.23 0 .153-.037.23-.11.23-.587 0-1.043-.013-1.37-.04l-1.75-.04-1.75.04c-.353.027-.847.04-1.48.04-.053 0-.08-.077-.08-.23 0-.153.027-.23.08-.23.987 0 1.703-.327 2.15-.98.44-.66.673-1.713.7-3.16l.23-11.02c-.787-1.14-1.763-1.71-2.93-1.71-.047 0-.07-.077-.07-.23 0-.147.023-.22.07-.22l2.81.03 2.17-.03c.353 0 .643.12.87.36.233.24.55.777.95 1.61l5.74 11.17 4.98-12.19c.1-.28.263-.51.49-.69.233-.173.463-.26.69-.26l2.24.03 2.77-.03c.053 0 .08.073.08.22 0 .153-.027.23-.08.23-1.013 0-1.733.17-2.16.51-.433.347-.61 1.027-.53 2.04l.6 11.7c.053.787.13 1.357.23 1.71s.297.593.59.72.757.19 1.39.19zm8.208-2.77c0 .787.087 1.37.26 1.75.18.38.51.647.99.8.48.147 1.227.22 2.24.22.08 0 .12.077.12.23 0 .153-.04.23-.12.23a46.26 46.26 0 0 1-2.2-.04l-2.93-.04-2.35.04c-.46.027-1.08.04-1.86.04-.053 0-.08-.077-.08-.23 0-.153.027-.23.08-.23.734 0 1.277-.07 1.63-.21.354-.133.6-.38.74-.74.14-.353.21-.91.21-1.67v-11.63c0-.733-.07-1.283-.21-1.65a1.262 1.262 0 0 0-.74-.76c-.353-.14-.896-.21-1.63-.21-.053 0-.08-.077-.08-.23 0-.147.027-.22.08-.22l1.82.03c1.014.053 1.8.08 2.36.08.68 0 1.4-.037 2.16-.11.28-.027.617-.053 1.01-.08.394-.027.857-.04 1.39-.04 4.354 0 6.53 1.457 6.53 4.37 0 1.267-.31 2.33-.93 3.19a5.699 5.699 0 0 1-2.39 1.94c-.98.433-2.013.65-3.1.65-.533 0-.913-.04-1.14-.12-.073 0-.11-.073-.11-.22 0-.18.087-.27.26-.27.307.053.547.08.72.08.914 0 1.644-.37 2.19-1.11.547-.733.82-1.833.82-3.3 0-3.04-1.243-4.56-3.73-4.56-.733 0-1.253.163-1.56.49-.3.333-.45 1.043-.45 2.13v11.4zm28.424-10.37c0-1.347-.24-2.303-.72-2.87-.486-.573-1.3-.86-2.44-.86-.073 0-.11-.077-.11-.23 0-.147.037-.22.11-.22l1.56.03c.814.053 1.487.08 2.02.08.4 0 .98-.027 1.74-.08l1.52-.03c.054 0 .08.073.08.22 0 .153-.026.23-.08.23-1.013 0-1.733.287-2.16.86-.433.567-.65 1.523-.65 2.87v6.61c0 2.353-.65 4.19-1.95 5.51-1.306 1.313-3.063 1.97-5.27 1.97-1.42 0-2.723-.283-3.91-.85-1.193-.573-2.143-1.39-2.85-2.45-.713-1.067-1.07-2.333-1.07-3.8v-8.1c0-.76-.063-1.317-.19-1.67-.126-.353-.36-.6-.7-.74-.34-.14-.89-.21-1.65-.21-.08 0-.12-.077-.12-.23 0-.147.04-.22.12-.22l1.78.03c.967.053 1.754.08 2.36.08.66 0 1.497-.027 2.51-.08l1.75-.03c.047 0 .07.073.07.22 0 .153-.023.23-.07.23-.76 0-1.32.077-1.68.23-.353.153-.6.413-.74.78-.14.367-.21.93-.21 1.69v7.03c0 2.28.52 3.96 1.56 5.04 1.04 1.073 2.397 1.61 4.07 1.61 1.647 0 2.944-.513 3.89-1.54.954-1.027 1.43-2.503 1.43-4.43v-6.68zm10.028-3.5c-2.253 0-3.81 1.493-4.67 4.48-.026.08-.103.12-.23.12-.126 0-.19-.04-.19-.12.1-.78.207-1.81.32-3.09.114-1.28.17-2.25.17-2.91 0-.127.07-.19.21-.19.14 0 .21.063.21.19 0 .327.19.537.57.63.38.087.864.13 1.45.13 2.174.053 4.084.08 5.73.08l3.31-.04c.434-.027 1.017-.04 1.75-.04.96 0 1.68-.057 2.16-.17.487-.113.794-.36.92-.74.02-.08.1-.12.24-.12.14 0 .21.04.21.12 0 .153-.023.533-.07 1.14-.026.633-.066 1.423-.12 2.37a180.02 180.02 0 0 0-.11 2.64c0 .08-.076.12-.23.12-.153 0-.23-.04-.23-.12-.126-1.367-.576-2.453-1.35-3.26-.773-.813-1.73-1.22-2.87-1.22-.76 0-1.27.163-1.53.49-.266.333-.4.967-.4 1.9v11.63c0 .76.067 1.323.2 1.69.14.367.414.613.82.74.407.127 1.054.19 1.94.19.074 0 .11.077.11.23 0 .153-.036.23-.11.23-.813 0-1.46-.013-1.94-.04l-2.77-.04-2.66.04c-.48.027-1.153.04-2.02.04-.046 0-.07-.077-.07-.23 0-.153.024-.23.07-.23.887 0 1.54-.063 1.96-.19.42-.127.7-.373.84-.74s.21-.93.21-1.69v-11.7c0-.687-.04-1.18-.12-1.48-.073-.307-.236-.523-.49-.65-.253-.127-.66-.19-1.22-.19zm20.33 14.02c0 .76.064 1.323.19 1.69.127.367.367.613.72.74.36.127.92.19 1.68.19.047 0 .07.077.07.23 0 .153-.023.23-.07.23-.76 0-1.356-.013-1.79-.04l-2.51-.04-2.35.04c-.46.027-1.083.04-1.87.04-.046 0-.07-.077-.07-.23 0-.153.024-.23.07-.23.787 0 1.357-.063 1.71-.19.36-.127.604-.373.73-.74.127-.367.19-.93.19-1.69v-11.63c0-.76-.063-1.317-.19-1.67-.126-.353-.376-.6-.75-.74-.366-.14-.93-.21-1.69-.21-.046 0-.07-.077-.07-.23 0-.147.024-.22.07-.22l1.87.03c.96.053 1.744.08 2.35.08.687 0 1.537-.027 2.55-.08l1.75-.03c.047 0 .07.073.07.22 0 .153-.023.23-.07.23-.74 0-1.293.077-1.66.23a1.262 1.262 0 0 0-.74.78c-.126.367-.19.93-.19 1.69v11.55zm24.89-14.7c.08 0 .12.073.12.22 0 .153-.04.23-.12.23-.986 0-1.706.337-2.16 1.01-.46.673-.69 1.73-.69 3.17v13.57c0 .047-.063.083-.19.11-.126.027-.213.013-.26-.04l-13.11-15.16a6.008 6.008 0 0 0-.08-.07v10.14c0 1.447.224 2.5.67 3.16.44.653 1.14.98 2.1.98.054 0 .08.077.08.23 0 .153-.026.23-.08.23-.606 0-1.073-.013-1.4-.04l-1.71-.04-1.75.04c-.353.027-.846.04-1.48.04-.053 0-.08-.077-.08-.23 0-.153.027-.23.08-.23.987 0 1.7-.327 2.14-.98.447-.66.67-1.713.67-3.16v-10.98c-.633-.633-1.183-1.083-1.65-1.35-.473-.267-.936-.4-1.39-.4-.053 0-.08-.077-.08-.23 0-.147.027-.22.08-.22l2.13.03c.227 0 .51-.007.85-.02.347-.007 1.064-.01 2.15-.01.2 0 .377.063.53.19.154.127.357.38.61.76l.8 1.02 9.61 11.1v-8.44c0-1.467-.213-2.53-.64-3.19-.433-.66-1.13-.99-2.09-.99-.08 0-.12-.077-.12-.23 0-.147.04-.22.12-.22l1.4.03c.714.053 1.284.08 1.71.08.434 0 1.03-.027 1.79-.08l1.44-.03zm11.778 18.24c-2.026 0-3.793-.427-5.3-1.28-1.506-.847-2.653-1.967-3.44-3.36-.78-1.393-1.17-2.863-1.17-4.41 0-1.973.447-3.69 1.34-5.15.9-1.453 2.174-2.567 3.82-3.34 1.647-.773 3.587-1.16 5.82-1.16 1.087 0 2.13.1 3.13.3 1 .207 1.844.5 2.53.88.154.1.254.2.3.3.054.1.094.277.12.53l.23 3.58c0 .073-.07.117-.21.13-.14.013-.223-.02-.25-.1-1.593-3.24-3.846-4.86-6.76-4.86-1.953 0-3.493.733-4.62 2.2-1.126 1.473-1.69 3.54-1.69 6.2 0 1.72.284 3.247.85 4.58.574 1.327 1.39 2.357 2.45 3.09 1.067.74 2.324 1.11 3.77 1.11 1.114 0 1.924-.117 2.43-.35.507-.227.847-.643 1.02-1.25.18-.607.27-1.57.27-2.89 0-.66-.056-1.12-.17-1.38-.113-.267-.353-.447-.72-.54-.366-.087-1.006-.13-1.92-.13-.153 0-.23-.1-.23-.3 0-.08.02-.15.06-.21.034-.067.077-.1.13-.1 1.32.1 2.65.15 3.99.15.607 0 1.62-.023 3.04-.07.054 0 .097.03.13.09.04.067.06.123.06.17 0 .18-.063.27-.19.27-.433-.027-.73.01-.89.11-.166.107-.276.317-.33.63-.046.32-.07.883-.07 1.69 0 1.14.03 1.94.09 2.4.067.453.1.77.1.95 0 .147-.026.24-.08.28-.046.04-.173.097-.38.17-1.693.713-4.113 1.07-7.26 1.07z"/>
</svg>
