<svg xmlns="http://www.w3.org/2000/svg" width="200" height="128">
	<defs>
		<linearGradient id="a" x1="33.741" y1="31.928" x2="33.741" y2="49.532" gradientTransform="matrix(1 0 0 -1 0 108)" gradientUnits="userSpaceOnUse">
			<stop offset=".18" stop-color="#0052cc"/>
			<stop offset="1" stop-color="#2684ff"/>
		</linearGradient>
	</defs>
	<path d="M63.6 49.245V60.2h12.767V49.245h3.321v24.236h-3.321V63.373H63.6v10.108h-3.32V49.245zm23.026-1.292a2.071 2.071 0 0 1 2.214 2.214 2.214 2.214 0 0 1-4.427 0 2.07 2.07 0 0 1 2.213-2.214zm-1.643 7.081h3.173v18.447h-3.173zm11.16 15.202v10.439h-3.174V55.034h3.174v3.321a6.5 6.5 0 0 1 6.234-3.689c4.905 0 7.379 4.167 7.379 9.592 0 5.2-2.583 9.592-7.748 9.592a6.045 6.045 0 0 1-5.865-3.614zm5.387-12.619c-2.842 0-5.387 1.807-5.387 5.9V65c0 4.1 2.323 5.9 5.031 5.9 3.58 0 5.425-2.361 5.425-6.641-.017-4.428-1.786-6.642-5.069-6.642zM126.488 73a10.217 10.217 0 0 1-4.5.839c-6.565 0-9.642-3.983-9.642-9.643 0-5.572 3.06-9.554 9.642-9.554a9.753 9.753 0 0 1 4.39.884v2.935a9.315 9.315 0 0 0-4.168-.885c-4.8 0-6.75 3.027-6.75 6.6s1.992 6.6 6.826 6.6a11.636 11.636 0 0 0 4.192-.662zm19.285.481H142.6V63.226c0-3.8-1.329-5.68-4.351-5.68-2.935 0-4.981 1.953-4.981 5.68v10.255h-3.174V47.325h3.174V58.1a6.736 6.736 0 0 1 6.087-3.429c4.134 0 6.419 2.8 6.419 8.007zm16.963-3.32a6.5 6.5 0 0 1-6.236 3.689c-4.905 0-7.378-4.167-7.378-9.592 0-5.2 2.582-9.592 7.747-9.592a6.054 6.054 0 0 1 5.87 3.613v-3.245h3.161v18.447h-3.174zm-5.388.738c2.843 0 5.388-1.807 5.388-5.9V63.52c0-4.1-2.323-5.9-5.031-5.9-3.581 0-5.425 2.36-5.425 6.641.012 4.445 1.786 6.639 5.068 6.639zm20.661-.516a10.048 10.048 0 0 0 1.991-.26v3.061a7.65 7.65 0 0 1-2.138.293c-3.949 0-5.87-2.323-5.87-5.756v-9.735H169v-2.935h2.989v-3.928h3.1v3.911H180v2.935h-4.905v9.685a2.581 2.581 0 0 0 2.914 2.729z" fill="#253858"/>
	<path d="M42.6 69.435s.118-.079.31-.23a11.19 11.19 0 0 0 4.574-8.834c0-6.544-6.15-11.852-13.738-11.852S20 53.827 20 60.371s6.15 11.861 13.739 11.861a15.9 15.9 0 0 0 2.888-.264l.3-.055a14.252 14.252 0 0 0 7.2 2.281c.767 0 1.124-.625.638-1.258a14.13 14.13 0 0 1-2.165-3.501zm-1.68-5.181a8.867 8.867 0 0 1-7.16 3.307h-.051a8.889 8.889 0 0 1-7.16-3.307 1.286 1.286 0 0 1-.311-.659.559.559 0 0 1 .51-.6h.027a.683.683 0 0 1 .373.125 10.476 10.476 0 0 0 6.591 2.352 10.057 10.057 0 0 0 6.594-2.356.54.54 0 0 1 .361-.138.548.548 0 0 1 .549.545 1.493 1.493 0 0 1-.31.734z" fill="url(#a)"/>
</svg>
