<svg xmlns="http://www.w3.org/2000/svg" viewBox="21.88 16.88 864.24 167.74">
	<path fill="#231f20" d="M706.806 37.002v51.15h68.439c0 .182-.058-51.15 0-51.15h33.887s.12 127.786 0 127.924h-33.887v-56.293c0 .167-68.439 0-68.439 0 .06.216 0 56.327 0 56.293h-33.881s.213-127.924 0-127.924h33.881m-321.565 0v21.77h-51.8v106.154h-33.887V58.772h-51.796s.07-21.754 0-21.77c.07.016 137.483 0 137.483 0m131.71 127.924h-37.718c.056 0-11.109-27.504-11.109-27.504h-63.491s-10.896 27.535-11.09 27.504c.026.031-37.708 0-37.708 0l59.77-127.924c0 .085 41.558 0 41.558 0zM436.382 58.772l-23.567 58.16h47.167l-23.6-58.16M835.96 164.926h33.906V37.002h-33.906v127.924M72.588 37.002s-.018 51.525 0 51.15h68.394c0 .182-.02-51.15 0-51.15h33.908s.084 127.786 0 127.924h-33.908v-56.293c0 .167-68.394 0-68.394 0 .014.216-.018 56.327 0 56.293H38.695s.19-127.924 0-127.924h33.893m129.176 127.924h33.857V37.002h-33.857v127.924m313.971-35.46c-2.968-8.578-4.565-17.636-4.565-27.231 0-13.432 2.39-26.463 8.833-37.251 6.612-11.136 16.78-19.756 29.073-24.35 11.726-4.384 24.314-6.808 37.545-6.808 15.219 0 29.638 3.34 42.758 9.027 12.218 5.234 21.45 16.268 24.166 29.564.544 2.62.99 5.346 1.216 8.073h-35.556c-.14-3.383-.691-6.786-1.863-9.845-2.679-7.076-8.563-12.561-15.88-14.783a50.402 50.402 0 0 0-14.84-2.21 49.996 49.996 0 0 0-16.774 2.898c-8.671 3.036-15.45 10.073-18.486 18.75-2.966 8.427-4.666 17.507-4.666 26.935 0 7.791 1.268 15.322 3.268 22.458 2.549 9.335 9.549 16.806 18.482 20.194 5.676 2.125 11.768 3.396 18.175 3.396 5.47 0 10.713-.839 15.68-2.44 6.61-2.094 12.002-6.997 14.808-13.273 1.869-4.196 2.782-8.836 2.782-13.74h35.693c-.203 4.149-.774 8.284-1.711 12.146-3.044 12.648-11.909 23.25-23.69 28.216-13.405 5.632-28.071 8.893-43.562 8.893-11.989 0-23.53-1.896-34.363-5.29-16.529-5.226-30.84-17.119-36.523-33.33"/>
</svg>
