<svg xmlns="http://www.w3.org/2000/svg" width="200" height="128">
	<path d="M38.411 82.411A18.411 18.411 0 1 1 56.821 64a18.43 18.43 0 0 1-18.41 18.411zm0-35.261A16.85 16.85 0 1 0 55.26 64a16.872 16.872 0 0 0-16.849-16.85z" fill="#fff"/>
	<path d="M38.411 47.15A16.85 16.85 0 1 0 55.26 64a16.872 16.872 0 0 0-16.849-16.85z"/>
	<path d="M38.423 48.235a15.706 15.706 0 1 1-15.706 15.7 15.7 15.7 0 0 1 15.706-15.7z" fill="#fcc414"/>
	<path d="M35 68.993a4.64 4.64 0 0 0 .786 1.525h5.35a4.642 4.642 0 0 0 .787-1.525zm6.863-3.11a38.7 38.7 0 0 0-3.4-2.217 39 39 0 0 0-3.4 2.217 5.057 5.057 0 0 0-.274 1.835h7.34a5.036 5.036 0 0 0-.274-1.835zm-4.909 5.922a8.551 8.551 0 0 1 1.513 2.157 9.043 9.043 0 0 1 1.514-2.157zm9.346-8.317a.428.428 0 0 0-.024.595l.06.06c2.431-2.073 3.9-3.682 3.17-4.945-.8-1.12-4.183-.584-8.33 1.275a2.932 2.932 0 0 0 .31-1.347 2.466 2.466 0 0 0-.048-.512 2.958 2.958 0 0 0-.834-1.621 3.067 3.067 0 0 0-.834-.6l.012-.035.322-.692a.224.224 0 0 0-.405-.19l-.346.751a2.964 2.964 0 0 0-1.764 0l-.345-.751a.224.224 0 0 0-.405.19l.31.668.023.047a2.922 2.922 0 0 0-.834.6 3.009 3.009 0 0 0-.882 2.193 3.071 3.071 0 0 0 .3 1.251c-1.072-.477-7.03-2.943-8.222-1.263-1.084 1.525 2.252 4.206 3.146 4.969l.06-.06a.427.427 0 0 0-.024-.595 14.972 14.972 0 0 1-1.616-1.752c-.631-.87-.643-1.382-.346-1.668.954-.894 4.469.286 5.553.7a32 32 0 0 1 3.337 1.525c-5.577 3.229-9.366 7.09-8.472 8.639.56.966 2.895.846 5.886-.214l-.107-.179a.426.426 0 0 0-.489-.191c-2.073.632-3.372.93-3.825.263-.619-1.085 2.55-4.815 7.472-7.651l.369-.214c.119.071.25.143.37.214 4.921 2.836 8.091 6.566 7.471 7.651-.453.667-1.74.369-3.825-.263a.427.427 0 0 0-.489.191l-.107.179c2.991 1.06 5.327 1.18 5.887.214.894-1.549-2.9-5.41-8.473-8.639 3.921-2.073 7.46-2.991 8.759-2.336 1.195.599-.842 2.661-1.771 3.543zm-10.344-3.969A2.564 2.564 0 0 1 37.4 56.8a2.564 2.564 0 0 1-1.444 2.719zm5.017 0a2.549 2.549 0 0 1-1.442-2.719 2.566 2.566 0 0 1 1.442 2.719z"/>
	<path d="M30.82 63.869a.384.384 0 0 0-.119-.405c-.93-.87-2.967-2.932-1.8-3.527 1.3-.656 4.838.286 8.759 2.347a34.768 34.768 0 0 0-4.767 3.253 12.325 12.325 0 0 1-2.073-1.668zm15.515 6.768c-.453.668-1.74.37-3.825-.262a.426.426 0 0 0-.274.012 5.807 5.807 0 0 0 .548-3.849V66.5a2.8 2.8 0 0 0-.3-1.036c2.765 2.216 4.3 4.385 3.849 5.171zm-2.193-5.076a31.34 31.34 0 0 0-4.8-3.265c3.921-2.073 7.46-2.991 8.759-2.336 1.167.6-.882 2.658-1.8 3.528-.167.155-.119.226-.119.405a10.924 10.924 0 0 1-2.038 1.668zm-9.628-.131a2.8 2.8 0 0 0-.3 1.037v.033a5.8 5.8 0 0 0 .548 3.849.439.439 0 0 0-.274-.012c-2.073.632-3.372.93-3.825.263-.451-.773 1.086-2.942 3.851-5.17zm6.459-5.911a2.549 2.549 0 0 1-1.442-2.719 2.566 2.566 0 0 1 1.442 2.719zm-5.017 0A2.564 2.564 0 0 1 37.4 56.8a2.564 2.564 0 0 1-1.444 2.719z" fill="#fff"/>
	<path d="M81.071 53.752v19.126a.8.8 0 0 1-.822.786l-4.278-.036v-7.471a.8.8 0 0 0-.822-.787h-6.84a.81.81 0 0 0-.823.787l-.023 7.471c-4.076 0-4.255.036-4.255.036a.809.809 0 0 1-.822-.786V53.752a.8.8 0 0 1 .822-.786l4.255.023c0 7.222.023 7.377.023 7.377a.8.8 0 0 0 .823.786h6.84a.809.809 0 0 0 .822-.786l-.012-7.389c4.778 0 4.29-.011 4.29-.011a.809.809 0 0 1 .822.786zm5.255 1.609h3.063a.709.709 0 0 1 .726.7V73a.717.717 0 0 1-.726.7h-3.063a.71.71 0 0 1-.726-.7V56.064a.71.71 0 0 1 .726-.703zm25.263.929-6.149 17.16a.725.725 0 0 1-.691.476h-4.683a.744.744 0 0 1-.692-.464L93.2 56.3a.705.705 0 0 1 .691-.929h3.1a.735.735 0 0 1 .691.476l4.04 11.6a.732.732 0 0 0 1.37 0l4.028-11.607a.723.723 0 0 1 .691-.476h3.1a.7.7 0 0 1 .678.926zm15.789 14.621V73a.718.718 0 0 1-.727.7H115.4a.71.71 0 0 1-.727-.7V56.064a.717.717 0 0 1 .727-.7h11.12a.71.71 0 0 1 .727.7v2.085a.718.718 0 0 1-.727.7h-6.6a.71.71 0 0 0-.727.7s-.012-.012-.012 3.206c0 0-.095.012 6.769.012v3.42c-7.079 0-6.793.023-6.793.023 0 3.361.024 3.313.024 3.313a.718.718 0 0 0 .727.7h6.733a.694.694 0 0 1 .737.688zm27.288-17.159v19.126a.8.8 0 0 1-.822.786h-3.468a.809.809 0 0 1-.822-.786l-.048-12.155c0-.775-4.576 5.744-4.576 5.744a.835.835 0 0 1-.679.345h-1.692a.836.836 0 0 1-.679-.345s-4.54-6.566-4.54-5.78l.024 12.191a.8.8 0 0 1-.823.786h-3.467a.809.809 0 0 1-.823-.786V53.752a.8.8 0 0 1 .823-.786h4.635a.836.836 0 0 1 .679.345l4.374 6.316a.836.836 0 0 0 1.358 0l4.373-6.316a.838.838 0 0 1 .68-.345h4.635a.818.818 0 0 1 .858.786zm24.416 14.431a9.213 9.213 0 0 1-2.156 3.134.769.769 0 0 0-.036 1.084l2.824 2.991c-5.172 0-5.458.036-5.458.036a.815.815 0 0 1-.619-.274l-.93-1.049a.837.837 0 0 0-.822-.25 13.955 13.955 0 0 1-2.908.286 12.146 12.146 0 0 1-6.065-1.406 9.1 9.1 0 0 1-3.742-3.849 11.958 11.958 0 0 1-1.251-5.529 11.727 11.727 0 0 1 1.251-5.457 9.257 9.257 0 0 1 3.742-3.861 12.023 12.023 0 0 1 6.065-1.43 11.855 11.855 0 0 1 6.006 1.43 9.412 9.412 0 0 1 3.754 3.885A11.638 11.638 0 0 1 180 63.368a12.464 12.464 0 0 1-.918 4.815zm-14.442-.012a5.285 5.285 0 0 0 4.337 1.811h.06l-1.323-1.482a.791.791 0 0 1 .62-1.31h3.5a.812.812 0 0 1 .62.274c.369.405.918.75 1.2.286a12.154 12.154 0 0 0 .715-1.692 8.691 8.691 0 0 0 .429-2.8 7.981 7.981 0 0 0-.68-3.36 5.363 5.363 0 0 0-2-2.324 5.7 5.7 0 0 0-3.134-.846 5.288 5.288 0 0 0-4.325 1.835 7.224 7.224 0 0 0-1.514 4.779 7.282 7.282 0 0 0 1.49 4.826z"/>
</svg>
