<svg xmlns="http://www.w3.org/2000/svg" viewBox="-21.6 -21.6 1123.2 186.2">
	<path d="M98.293 140.142V87.005H30.17v53.137H0V3.893h30.169V57.03h68.124V3.893h30.17v136.25zm63.267 0V3.893h30.172v136.25zM322.73 3.893h33.088l-47.687 136.25h-48.272L212.172 3.892h33.089l38.734 114.06zm174.213 136.25H376.264V3.892h119.707v30.17h-89.535V57.03h88.56v29.975h-88.56v22.968h90.507zm162.341-40.68c-11.481 28.418-35.423 44.573-66.564 44.573-41.46 0-72.408-29.003-72.408-72.018S552.232 0 591.744 0c30.754 0 54.89 15.767 66.374 43.795l-28.03 11.872c-7.006-15.57-20.435-25.497-38.15-25.497-24.33 0-41.457 17.907-41.457 41.848 0 24.914 17.127 41.847 41.457 41.847 18.88 0 32.7-10.705 39.515-26.666zm289.334 40.68H841.565V3.892h30.17v106.08h76.883zm131.391 0H972.956V3.892h30.17v106.08h76.883z"/>
	<path d="M685.896 34.062h123.835c-.715-10.385-2.13-20.46-3.396-30.169H689.293c-1.266 9.71-2.682 19.784-3.397 30.17zm0 75.911c.716 10.386 2.131 20.46 3.397 30.17h117.042c1.265-9.71 2.68-19.784 3.396-30.17zm-1.082-52.943c-.131 4.95-.216 9.94-.216 14.988s.085 10.037.216 14.987h126c.13-4.95.215-9.94.215-14.987s-.084-10.037-.216-14.988z"/>
</svg>
