<svg xmlns="http://www.w3.org/2000/svg" width="200" height="128">
	<path d="M109.679 89.459v19.285h4.734V99.88l.977.019v8.845h4.788V89.459h-4.788v7.155h-.977v-7.155z" fill-rule="evenodd"/>
	<path d="M120.435 109h-5.3v-8.85l-.464-.008V109h-5.248V89.2h5.248v7.156h.464V89.2h5.3zm-4.788-.513h4.275V89.715h-4.275v7.155h-1.49v-7.155h-4.222v18.772h4.222v-8.868l1.49.028z" fill="#fdee21"/>
	<path d="M126.071 89.459h-4.612v19.285h4.612z" fill-rule="evenodd"/>
	<path d="M126.327 109H121.2V89.2h5.124zm-4.612-.513h4.1V89.715h-4.1z" fill="#fdee21"/>
	<path d="m126.826 89.459 3.642 19.285h5.5l3.643-19.285h-4.9l-1.207 8.251c-.1.316-.44.316-.5 0l-1.204-8.251z" fill-rule="evenodd"/>
	<path d="M136.179 109h-5.923l-3.74-19.8h5.507l1.234 8.448 1.235-8.447h5.426zm-5.5-.513h5.073l3.548-18.772h-4.364l-1.177 8.053-.007.02a.55.55 0 0 1-.537.415.51.51 0 0 1-.46-.444v-.011l-1.174-8.033h-4.444z" fill="#fdee21"/>
	<path d="M149.742 89.459h-9.153v19.285h9.153v-5.057l-5.09-.044v-2.168h2.425v-5.02h-2.425v-1.94h5.09z" fill-rule="evenodd"/>
	<path d="M150 109h-9.667V89.2H150v5.57h-5.09v1.43h2.425v5.533h-2.425v1.657l5.09.043zm-9.154-.513h8.641v-4.546l-5.09-.043v-2.679h2.425v-4.507H144.4v-2.453h5.09v-4.544h-8.641z" fill="#fdee21"/>
	<path d="M100.312 30.976c-.771-2.112-27.292-12.422-27.631-11.29-4.87 1.27-6.852 6.883-10.2 10.438L55.04 29.7c-3.277 4.214-5 8.52-3.825 12.995 4.2 5.69 9.075 10.532 12.114 17.68.241 3.369 14.582.354 17.656-.313-4.2 3.006-7.856 7.665-6.284 21.083 1.434 6.3 2.415 13.337 15.139 20.464a66.051 66.051 0 0 0 7.284 2.81c2.05.94 4.446 1.326 11.207-.741 3.912-1.687 8.136-2.7 11.965-4.385l-4.6.216c-6.337.138-11.229.611-12.738-1.16l-5.834-10.07 3.4-6.6c4.706.482 6.268 4.3 10.415 5.751l4.889-3.621c14.2 8.381 19.847-5.312 21.466-15.977-.172-4.339-9.4 1.361-8.836-.668.217-4.664-3.585-10.767-6.042-15.522l2.843-11c1.29-1.149-5.972-13.386-11.9-14.912-5.2-1.339-13.045 5.249-13.045 5.249z" fill="#fdee21" fill-rule="evenodd"/>
	<g fill="#c8c037" fill-rule="evenodd">
		<path d="M123.638 54.355c.051 1.182.045 2.619.159 3.515-.02.684-.532.709-.956.852l2.763 1.012c.548.923.989 1.847 1.434 2.77.517 2.27.131 2.335-.212 2.5a13.58 13.58 0 0 1-2.936-.187c.418.221.51.382.554.664a2.817 2.817 0 0 1-.806 1.919 32.945 32.945 0 0 0 3.414 1.318l1.262-2.809a28.265 28.265 0 0 0-4.676-11.557zm5.157 13.845c1.532.639 3.649.452 6.584-1.061.437-.311.843-.125.062.386-3.85 3.454-5.692 1.726-6.646.675z"/>
		<path d="M135.673 66.684A3.055 3.055 0 0 1 135.7 69a19.646 19.646 0 0 1-3.932 9.8c-7.448 11.974-14.967 4.482-20.962-.394l-2.48 6.213c-.131.545-.679.969 3.194 2.674l3.945-2.787c15.046 11.448 25.708-16.024 20.208-17.821zm-23.052 10.7c-1.015.072-4.036 1.1-4.171 1.695l1.39-2.072zm-1.974-12.697c.186 0 1.079.24.983.187-.137-.077-.015 1.251.265 1.943l-1.089 2.37c2.087-2.406 5.386-2.246 8.449-2.556l-1.462-.905a4.228 4.228 0 0 0-.186-2.237zm5.127-7.136a9.62 9.62 0 0 0-5.821 4.2c1.1-3.94 1.322-3.79 1.676-3.985 1.535-.686 2.792-.258 4.145-.213z"/>
	</g>
	<g fill="#fcf6a0" fill-rule="evenodd">
		<path d="M103.819 103.725c-2.707 2.987-8.747-.226-13.763-1.864-12.746-8.105-15.236-15.735-15.409-23.22-.655-10.722 2.637-16.952 6.8-18.427-2.756 5.313-4.041 14.85-2.763 21.942 1.031 3.945 1.052 10.6 7.654 14.162 3.233 1.82 2.357 3.236 4.543 4.941 2.4 1.868 9.075 3.644 12.936 2.466zm4.044-49.551c-4.583-6.5-11.029-8.938-18.3-9.2a32.615 32.615 0 0 0 4.37-1.424c.357-.375.241-1.035.107-1.7-7-1.827-11.413-4.085-17-6.178l15.09 3.612c10.191.387 9.315 2.9 15.733 14.891z"/>
		<path d="M112.77 51.04c-3.387-4.835-6.672-10.7-11.131-14.434a209.4 209.4 0 0 0-33.891-11.75l3.983-5.122c13.242 3.023 25.68 8.081 36.821 16.419a85.383 85.383 0 0 1 4.217 14.887zm6.83-8.54s-1.9-4.26-2.824-5.887c-2.144-2.377-3.229-6.8-7.621-8.892 1.389.375 2.34-.072 5.176 2.5l4.469 8.469z"/>
		<path d="M121.96 49.876c.438-3.69 1.269-9.61.315-11.949-2.655-3.563-5.329-7.245-8-10.663a12.116 12.116 0 0 1-1.111-1.409c3.761.975 7.686 3.59 12.979 13.913z"/>
	</g>
	<g fill-rule="evenodd">
		<path d="M106.148 50.312c-1.5-1.179-2.833-5.349-5.1-6.216-2.1-.175-2.872-.836-5.634-.273a22.237 22.237 0 0 1 3.013-1.489 5.517 5.517 0 0 1 2.087.114c.17-.081.281-.181.239-.332-2.781-1.718-8.486-1.743-12.337-2.724 4.469.15 9.415-.1 12.774.979 2.7 2.4 3.579 6.912 4.961 9.941zm8.191-20.112c.62.057 3.957 5.336 4.114 6.214.277 1.92.962 4.073 1.146 6.082-.55-1.927-1.149-3.854-1.9-5.781a11.763 11.763 0 0 0-2.31-3.427 8.294 8.294 0 0 1-1.052-3.087zm11.309 28.755h-1.428l1.578.415zm-9.742-1.426a12.9 12.9 0 0 0-4.345.116 7.1 7.1 0 0 0-.881 2.324c1.745-1.923 2.438-2.041 5.226-2.44zm19.581 9.928a6.141 6.141 0 0 1-3.241 1.957 3.215 3.215 0 0 1-3.507-1.211c1.23.352 1.426 1.281 4.723.239zm-7.159.399c-.576 1.581-1.2 3.179-1.82 4.66-1.489 1.745-.854.751-3.082 3.462a23.82 23.82 0 0 0 2.125-3.3 18.142 18.142 0 0 0 .953-2.225 3.637 3.637 0 0 0-1.963-.212c-1.981 1.168-2.339 2.405-3.506 3.608a41.115 41.115 0 0 1 2.55-4.047c.112-.158.838-.189 1.285-.282-.694-.119-1.979-.368-2.082-.357-1.292.31-2.016 1.436-2.976 2.183a19.28 19.28 0 0 1 2.232-2.929 11.107 11.107 0 0 1 3.732.6l.025.5.706.285.532-1.331zm-15.675 9.533a21.545 21.545 0 0 0-3.135-.389 2.359 2.359 0 0 0-1.222 2.143c1.8-1.769 1.732-1.774 4.357-1.757zm-2.139-12.728s2.032-.3 1.992-.106a4.711 4.711 0 0 0 .293 2.183l-1.143.932c2.393-1.2 4.911-.961 7.466-1.145 0 0-2.151-.594-2.019-.612.479-.068-.128-2.243-.293-2.29.409-.139.809-.243 1.222-.346-3.075-.8-4.854-.331-7.518 1.384z"/>
		<path d="m128.1 66.178-.452.226c-.064-1.323-1.485-1.225-2.683-1.238l-.984-.239c.3.276 1.223.255.851.852-.314.167-.458.887-.638 1.491l-.531.027c.938.366 1.809.688 2.842 1.118l.611.093 1.462-.785z"/>
	</g>
	<path d="M114.632 65.286c-.229-.452-1.38-.388-1.628-.095-.2.238-.012 1.764.246 1.506a1.977 1.977 0 0 1 1.448-.439 1.773 1.773 0 0 0-.066-.972zm11.035 2.274a1.954 1.954 0 0 0 .263-1.073c-.152-.54-1.222-.427-1.222-.427a1.64 1.64 0 0 0-.394 1.274c.045.235 1.181.31 1.352.226z" fill="#fff" fill-rule="evenodd"/>
	<path d="m79.91 93.964.676.066a31.556 31.556 0 0 0 20.157 3.317l1.5 2.358c-4.207 2.044-8.731 1.574-12.971 1.717zM74.157 78.41l2.008 8.427c5.374 3.359 14.553 7.207 22.205 6.9l-1.691-3.88c-15.972-3.392-17.323-7.68-22.521-11.444zm4.995-17.261c.981 6.53 2.291 11.481 7.969 15.628a76.015 76.015 0 0 0 11.137 7.052s-.368 1.917-.676 1.883c-12.5-1.389-21.66-11.758-22.769-16.494a22.192 22.192 0 0 1 4.339-8.069zm6.011-3.7c1.667 7.238 5.64 14.568 9.589 21.218 1.448 1.837 1.826 2.647 4.058 3.766a17.538 17.538 0 0 0 7.337.567c-.6-1.11-1.133-2.27-1.821-3.314-4.9-3.876-2.637-7.405-1.335-9.64-2.725-.689-6.337-2.153-6.834-4.078-.8-6.227-.394-8.2.407-11.4a98.569 98.569 0 0 0-11.4 2.882z" fill-rule="evenodd"/>
	<path d="M71.623 19.007a22.959 22.959 0 0 0-3.639 3.213c-2.084 2.158-3.47 4.262-5.591 5.822a5.787 5.787 0 0 1-3.112 1.043 10.037 10.037 0 0 1-2.461-.011c-1.142-.619-2.228-.216-3.288 1.051a30.177 30.177 0 0 0-3.245 6.841c-1.261 5.094 1.954 9.29 5.038 12.525 2.742 2.679 4.324 4.354 5.45 6.81.853 1.594 1.484 3.78 2.168 5.313.247.486.2.484.859.63a49.387 49.387 0 0 0 5.192.461 25.375 25.375 0 0 0 2.814-.122 31.665 31.665 0 0 0 4.338-.981 28.019 28.019 0 0 0 3.56-1.191c-.137.465-1.148.912-1.527 1.5-3.6 5.148-4.582 9.73-3.956 16.959a36.363 36.363 0 0 0 2.2 8.9 24.879 24.879 0 0 0 2.624 5.056c3.079 4.351 9.967 9.938 19.555 12.088a13.94 13.94 0 0 0 5.357-.369c4.733-1.434 14.378-4.827 14.378-4.827s-8.562.708-12.483.32a4.5 4.5 0 0 1-2.54-.808c-.106-.137-.492-.913-.243-.92a24.96 24.96 0 0 1 2.819-.549c-3.213-.345-3.167-.341-3.4-.927a36.017 36.017 0 0 0-1.5-3.236c1.412.119 4.538.294 5.6-.8a17.574 17.574 0 0 1-3.484.022 10.009 10.009 0 0 1-1.771-.5 6.505 6.505 0 0 1-1.479-.561c-.254-.648-.427-.866-.735-1.735a13.263 13.263 0 0 1-.529-3.608 8.839 8.839 0 0 0 4.236 2.994c.023-.049 2.34 1.007 4.022.464l.349-.113a3.674 3.674 0 0 1-1.523-.1c-3.422-1.455-3.937-2.728-4.49-3.36l-1.479-2.221c.449-.9.7-.93 1.3-.938a9.991 9.991 0 0 0 3.681.09c.741 1.524.941 3.057 2.627 4.166 5.616 1.667 6.836-.495 8.2-2.406 4.041 2.966 10.62 3.88 15.188.052 5.809-6.721 7.648-17.317 7.133-17.922-.726-1.231-1.677-2.5-2.495-2.325-2.913.8-3.987 2.273-6.873 1.936a7.321 7.321 0 0 0 .926-.061 9.947 9.947 0 0 0-.125-3.83c-.876-1.932-2.026-3.964-2.828-5.488-.206-.316-.813-2.716-1.83-3.665-.437-.372-1.5-1.354-1.5-1.354l-.091 1.044s.418.063.576.709a50.96 50.96 0 0 0 3.894 8.527c1.087 1.754.111 3.94.937 5.166a25.118 25.118 0 0 0 2.931.063c2.047-.441 1.96-1.343 3.729-1.479 1.191-.091 1.311 2.146 1.295 2.32a26.557 26.557 0 0 1-2.124 7.966c-2.391 4.607-5.069 8.744-8.866 9.321-4.633.81-7.04-1.216-9.552-2.5l-.96.819c-3.264 3.25-7.139 2.961-8.724-1.285a38.608 38.608 0 0 0-2.7-4.07l-4.668 3.363c-.389.8-.867 2.054-1.447 3.458a11.475 11.475 0 0 0-.72 4.045c-.6 1.02 2.073 5.154 3.761 7.669.5.742 1.428 2.039 1.459 2.119a7.375 7.375 0 0 0 1.112 1.729c3.134 4.087-3.953 3.146-5.417 2.9a23.442 23.442 0 0 1-8.366-3.279q-.231-.141-.461-.285a48.455 48.455 0 0 1-8.526-7.042C78.7 91.94 77.3 88.524 76.268 86.1c-1.552-5.82-3.778-15.912 2.253-23.56.382-.437.8-1.165 1.146-1.309a16.694 16.694 0 0 1 5.829-2.5l-.211-1.356a39.039 39.039 0 0 0-5.558 2.063c-2.262.656-4.139 1.34-7.022 2.062a10.739 10.739 0 0 1-2.758-.005c-2.074-.282-5.609-.03-5.834-.24-1.405-1.958-1.789-5.467-3.071-7.345l-.015-.019-.016-.018a24.1 24.1 0 0 0-2.475-2.673c-3.071-3.051-5.7-6-6.435-9.126a11.139 11.139 0 0 1-.408-4.61l.005-.014v-.013a15.212 15.212 0 0 1 3.981-6.715 37.03 37.03 0 0 1 5.86.393 20 20 0 0 1 3.925.931c4.083 1.52 9.476 4.02 9.476 4.02-4.048-2.223-8.576-5.111-11.435-5.694a.915.915 0 0 1-.813-.593c4.3-2.526 5.087-5.5 7.915-8.168a8.648 8.648 0 0 1 2.895-.969c10.16 1.607 16.554 5.652 21.612 8.358 2.053 1.116 3.919 1.961 5.7 2.977 1.562.514 6.277 4.074 7.656 5.993a66.826 66.826 0 0 1 3.359 9.241 23.643 23.643 0 0 0 1.256 4.41 19.577 19.577 0 0 1-.474-3.1 8.333 8.333 0 0 0 2.562.588s-2.581-1.334-2.92-2.514c-1.085-3.785-2.174-9.676-2.468-9.983a33.409 33.409 0 0 0-6.394-4.9c-.8-.462-1.233-.749-1.267-.952a25.243 25.243 0 0 1 2.26-2.161 8.822 8.822 0 0 1 2.371-1.542c4.4-1.98 6.91.762 7.507.207 0 0-.946-1.085-.526-.906.43.233 1.832.508 1.986.651a40.218 40.218 0 0 1 8.316 10.668 4.469 4.469 0 0 1 .572 3.389 24.727 24.727 0 0 1-.808 3.165 45.473 45.473 0 0 0-1.844 5.584 12.108 12.108 0 0 0 1.027 5.39 17.305 17.305 0 0 1 .023-1.829l.091-1.039a2.081 2.081 0 0 1-.047-.386c.068-.719.244-1.323.3-1.734a41.277 41.277 0 0 1 2.378-8.118c.3-.693.682-1.078.663-1.6.016-.935-.821-2.19-1.426-3.416A36.98 36.98 0 0 0 122.67 33c-2.182-3.137-4.042-5.592-7.448-7.129a17.627 17.627 0 0 0-6-.584 11.9 11.9 0 0 0-4 1.34c-1.695 1.086-3.027 2.766-4.589 3.756a42.117 42.117 0 0 1-5.435-3.2c-2.054-1.1-4.52-2.377-7.173-3.589-1.272-1.186-9.171-4.023-16.4-4.589zm44.208 64.458a23.6 23.6 0 0 1-5.105-5.144c-.386 2.076-1.787 3.554-2.869 5.008-.215.341-.371.806.69 2.288.286.395 1.321.462 2.019.426-.71-.537-1.791-1.105-1.966-1.6a4.9 4.9 0 0 0 3.454.959 1.255 1.255 0 0 0 .766-.671 3.162 3.162 0 0 1 1.2-1.513l.85 1.065z" fill-rule="evenodd"/>
	<path d="M100.294 105.032a12.638 12.638 0 0 1-1.693-.111 36.732 36.732 0 0 1-6.67-2.185 35.981 35.981 0 0 1-5.552-3.036 28.566 28.566 0 0 1-7.338-6.87 25.077 25.077 0 0 1-2.624-5.058 36.085 36.085 0 0 1-2.2-8.9 39.546 39.546 0 0 1-.152-4.977 23.066 23.066 0 0 1 .547-4.285 21.631 21.631 0 0 1 3.562-7.7 3.448 3.448 0 0 1 .811-.763c.326-.25.634-.487.712-.724a27.876 27.876 0 0 1-3.55 1.187 25.94 25.94 0 0 1-3.67.857c-.232.042-.451.083-.668.124a25.342 25.342 0 0 1-2.815.121c-.578-.049-1.186-.083-1.775-.116a23.947 23.947 0 0 1-3.419-.346c-.615-.136-.618-.143-.81-.528l-.053-.105c-.274-.614-.536-1.324-.814-2.075A26.756 26.756 0 0 0 60.77 56.3a14.535 14.535 0 0 0-2.118-3.321A47.5 47.5 0 0 0 55.32 49.5a32.621 32.621 0 0 1-2.265-2.606 17.629 17.629 0 0 1-1.883-2.961 11.223 11.223 0 0 1-1.069-3.31 9.383 9.383 0 0 1 .179-3.653 28.534 28.534 0 0 1 1.418-3.549 24.03 24.03 0 0 1 1.83-3.3 3.774 3.774 0 0 1 1.615-1.235 2.057 2.057 0 0 1 1.679.182 8.346 8.346 0 0 0 2 .042c.145-.011.294-.024.454-.032a5.754 5.754 0 0 0 3.108-1.041 22.172 22.172 0 0 0 3.589-3.586c.624-.726 1.269-1.477 2-2.236A22.607 22.607 0 0 1 71.62 19a51.151 51.151 0 0 1 10.437 2.062c2.9.885 5.3 1.9 5.968 2.528 2.878 1.313 5.472 2.677 7.173 3.588.059.034.165.107.326.217a40.672 40.672 0 0 0 5.106 2.982 16.49 16.49 0 0 0 2.208-1.81 17.854 17.854 0 0 1 2.378-1.945 11.915 11.915 0 0 1 4-1.34 17.61 17.61 0 0 1 6 .584c3.37 1.52 5.213 3.915 7.45 7.131a37.186 37.186 0 0 1 2.3 4.077c.145.3.306.595.462.886a6.1 6.1 0 0 1 .963 2.533 1.834 1.834 0 0 1-.339.971 6.519 6.519 0 0 0-.324.635l-.242.665a37.866 37.866 0 0 0-2.135 7.451c-.02.162-.059.35-.1.568a10.331 10.331 0 0 0-.192 1.167 1.915 1.915 0 0 0 .045.378c.011.009 1.073.986 1.5 1.354a8.407 8.407 0 0 1 1.576 3.022 4.718 4.718 0 0 0 .256.644c.2.385.426.8.663 1.241.708 1.314 1.51 2.8 2.165 4.248a3.494 3.494 0 0 1 .187 1.076 17.1 17.1 0 0 1-.061 2.756c0 .025-.142.034-.586.051l-.277.012a7.019 7.019 0 0 0 4.159-.915 15.78 15.78 0 0 1 2.644-1.028c.665-.143 1.507.64 2.5 2.327.262.308-.079 3.127-1.2 6.672a38.216 38.216 0 0 1-2.3 5.7 27.177 27.177 0 0 1-3.638 5.551 10.641 10.641 0 0 1-3.735 2.026 11.988 11.988 0 0 1-4.062.5 13.772 13.772 0 0 1-3.963-.777 13.208 13.208 0 0 1-3.432-1.8l-.171.242c-1.3 1.848-2.649 3.758-8.029 2.161a5.64 5.64 0 0 1-2.147-3.043c-.146-.367-.3-.746-.479-1.122a7.868 7.868 0 0 1-2.989-.011 63.103 63.103 0 0 0-.689-.079 1.289 1.289 0 0 0-.7.135 1.911 1.911 0 0 0-.591.8l1.476 2.211a6 6 0 0 1 .268.342 6.622 6.622 0 0 0 1.222 1.308 12.37 12.37 0 0 0 3 1.707 3.78 3.78 0 0 0 1.491.114l.036-.012v.008l-.005.007a.071.071 0 0 1-.026.008l-.322.1a4.527 4.527 0 0 1-2.182.05 10.883 10.883 0 0 1-1.618-.446 1.706 1.706 0 0 0-.218-.069 8.193 8.193 0 0 1-2.395-1.216A10.026 10.026 0 0 1 98.6 86.43l.026.406a11.378 11.378 0 0 0 .5 3.183 10.154 10.154 0 0 0 .446 1.076c.094.2.183.391.288.659a1.633 1.633 0 0 0 .682.292c.235.071.5.152.794.266a9.986 9.986 0 0 0 1.77.5 17.788 17.788 0 0 0 3.483-.022h.016l-.012.011a4.19 4.19 0 0 1-2.671.858 18.987 18.987 0 0 1-2.922-.054 36.291 36.291 0 0 1 1.493 3.228l.01.025c.223.558.223.558 3.387.9v.011a12.66 12.66 0 0 0-2.22.418 3.318 3.318 0 0 1-.6.13.067.067 0 0 0-.064.04c-.077.164.221.754.311.871a3.672 3.672 0 0 0 2.134.748c.133.019.27.038.4.059 3.876.383 12.4-.314 12.482-.321v.011c-.1.034-9.7 3.409-14.378 4.828a14.393 14.393 0 0 1-3.661.479zM79.714 60.4v.011c-.072.245-.386.486-.719.741a3.425 3.425 0 0 0-.808.761 21.6 21.6 0 0 0-3.561 7.7 23.035 23.035 0 0 0-.546 4.283 39.327 39.327 0 0 0 .152 4.975 36.054 36.054 0 0 0 2.2 8.9 25.128 25.128 0 0 0 2.623 5.055 28.575 28.575 0 0 0 7.335 6.867 35.924 35.924 0 0 0 5.551 3.035 36.725 36.725 0 0 0 6.659 2.182 13.969 13.969 0 0 0 5.354-.369c4.52-1.37 13.638-4.568 14.336-4.813-.32.026-2.332.185-4.728.3a62.463 62.463 0 0 1-7.712.015c-.133-.021-.271-.04-.4-.058a3.685 3.685 0 0 1-2.14-.752c-.092-.119-.392-.716-.313-.884a.079.079 0 0 1 .074-.046 3.319 3.319 0 0 0 .6-.13 12.755 12.755 0 0 1 2.165-.413c-3.114-.335-3.115-.339-3.34-.9l-.01-.025a35.265 35.265 0 0 0-1.5-3.236v-.009h.011a18.964 18.964 0 0 0 2.929.055 4.215 4.215 0 0 0 2.653-.842 17.716 17.716 0 0 1-3.47.02 9.951 9.951 0 0 1-1.772-.5 10.267 10.267 0 0 0-.793-.266 1.612 1.612 0 0 1-.688-.3 9.861 9.861 0 0 0-.289-.658 10.739 10.739 0 0 1-.446-1.077 11.4 11.4 0 0 1-.5-3.186l-.027-.424V86.4l.011.014a10.016 10.016 0 0 0 1.841 1.778 8.2 8.2 0 0 0 2.389 1.213.953.953 0 0 1 .229.069 10.878 10.878 0 0 0 1.616.446 4.518 4.518 0 0 0 2.177-.05l.262-.084a3.672 3.672 0 0 1-1.438-.122 12.414 12.414 0 0 1-3-1.709 6.661 6.661 0 0 1-1.223-1.31c-.1-.131-.182-.244-.268-.343l-1.49-2.221c.449-.894.709-.933 1.3-.942l.691.079a7.828 7.828 0 0 0 2.989.011c.184.377.335.759.482 1.127a5.628 5.628 0 0 0 2.142 3.037c5.371 1.594 6.716-.313 8.016-2.157l.174-.247v-.005h.005a13.207 13.207 0 0 0 3.434 1.8 13.71 13.71 0 0 0 3.959.776 11.964 11.964 0 0 0 4.058-.5 10.633 10.633 0 0 0 3.731-2.023 27.184 27.184 0 0 0 3.636-5.549 38.243 38.243 0 0 0 2.3-5.7 33.792 33.792 0 0 0 1.114-4.557 4.711 4.711 0 0 0 .082-2.1c-.993-1.683-1.83-2.465-2.489-2.323a15.719 15.719 0 0 0-2.624 1.022 7.01 7.01 0 0 1-4.233.909v-.011c.1-.006.226-.011.346-.016a3.744 3.744 0 0 0 .575-.042 17.184 17.184 0 0 0 .061-2.753 3.512 3.512 0 0 0-.186-1.072c-.655-1.445-1.457-2.934-2.165-4.248-.237-.44-.461-.856-.663-1.24a4.648 4.648 0 0 1-.256-.646 8.417 8.417 0 0 0-1.573-3.017c-.411-.351-1.394-1.253-1.5-1.347l-.089 1.027c.05.01.428.109.576.713a51.1 51.1 0 0 0 3.893 8.524 5.359 5.359 0 0 1 .566 2.973 3.905 3.905 0 0 0 .371 2.194 3.391 3.391 0 0 0 1.191.054c.549-.013 1.172-.029 1.734.006a5.034 5.034 0 0 0 1.923-.824 3.289 3.289 0 0 1 1.806-.654h.071a.825.825 0 0 1 .6.263 3.561 3.561 0 0 1 .628 2.065 23.786 23.786 0 0 1-.714 3.927 27.987 27.987 0 0 1-1.41 4.041c-2.335 4.5-5.025 8.741-8.872 9.325a10.377 10.377 0 0 1-4.822-.212 16.564 16.564 0 0 1-3.506-1.622 34.494 34.494 0 0 0-1.223-.67l-.957.816a8.032 8.032 0 0 1-2.709 1.846 4.526 4.526 0 0 1-2.637.265 4 4 0 0 1-1.954-1.079 6.261 6.261 0 0 1-1.43-2.325 14.993 14.993 0 0 0-1.635-2.554c-.354-.475-.72-.967-1.059-1.51L98.785 82.3c-.268.551-.578 1.317-.936 2.2-.162.4-.33.817-.51 1.252a11.5 11.5 0 0 0-.719 4.048c-.261.444.083 1.544 1.023 3.268.821 1.507 1.955 3.23 2.737 4.395.237.353.569.827.861 1.245.325.465.582.832.6.875a6.156 6.156 0 0 0 .988 1.568 1.423 1.423 0 0 1 .124.16c.75.979.969 1.745.648 2.278a1.8 1.8 0 0 1-1.147.7 7.468 7.468 0 0 1-1.794.194h-.082a19.911 19.911 0 0 1-3.048-.269 23.436 23.436 0 0 1-8.368-3.28 42.487 42.487 0 0 1-.461-.285 48.084 48.084 0 0 1-8.527-7.043 15.112 15.112 0 0 1-1.988-3.2c-.627-1.263-1.2-2.618-1.714-3.814-.07-.167-.14-.33-.208-.488-.354-1.331-.805-3.109-1.15-5.064a34.354 34.354 0 0 1-.567-6.035 22.92 22.92 0 0 1 .856-6.379 18.368 18.368 0 0 1 1.223-3.12 17.557 17.557 0 0 1 1.892-2.971c.127-.145.26-.326.388-.5a2.6 2.6 0 0 1 .761-.811 16.765 16.765 0 0 1 2.8-1.53 16.962 16.962 0 0 1 3.023-.965l-.209-1.345a39.606 39.606 0 0 0-5.551 2.061c-.793.23-1.523.458-2.3.7-1.4.439-2.854.894-4.728 1.363a10.84 10.84 0 0 1-2.76-.005 31.73 31.73 0 0 0-3.876-.147 7.545 7.545 0 0 1-1.962-.095 14.209 14.209 0 0 1-1.626-3.84 13.974 13.974 0 0 0-1.445-3.506l-.015-.018-.016-.018a20.776 20.776 0 0 0-2.139-2.343l-.336-.332a43.512 43.512 0 0 1-4.094-4.535 12.6 12.6 0 0 1-2.333-4.593c-.036-.177-.083-.357-.132-.548a10.265 10.265 0 0 1-.277-4.064l.01-.028a15.217 15.217 0 0 1 3.982-6.717 36.81 36.81 0 0 1 5.861.394l.293.047a18.655 18.655 0 0 1 3.633.883c3.665 1.365 8.443 3.546 9.331 3.954-.865-.477-1.762-.989-2.632-1.486-1.584-.9-3.223-1.839-4.708-2.586a17.03 17.03 0 0 0-3.953-1.544.923.923 0 0 1-.817-.6 14.715 14.715 0 0 0 3.186-2.491 25.743 25.743 0 0 0 2.138-2.618 22.232 22.232 0 0 1 2.59-3.058c.19-.083.36-.159.524-.232a6.962 6.962 0 0 1 2.372-.738 50.052 50.052 0 0 1 11.449 3.214 81.173 81.173 0 0 1 8.3 4.122c.649.357 1.262.693 1.862 1.014.93.506 1.822.956 2.685 1.391 1.05.53 2.042 1.03 3.017 1.586a17.924 17.924 0 0 1 3.9 2.47 20.853 20.853 0 0 1 3.761 3.524 67.3 67.3 0 0 1 3.359 9.243 25.446 25.446 0 0 0 1.234 4.357 18.154 18.154 0 0 1-.462-3.042v-.007h.006a9.679 9.679 0 0 0 2.423.595 1.1 1.1 0 0 0 .118-.006 13.177 13.177 0 0 1-1.317-.806 7.3 7.3 0 0 1-.989-.81 2.22 2.22 0 0 1-.6-.892c-.551-1.919-1.105-4.392-1.55-6.379a25.152 25.152 0 0 0-.917-3.6 18.779 18.779 0 0 0-2.713-2.383 37.144 37.144 0 0 0-3.68-2.518c-.8-.46-1.235-.749-1.269-.956l.406-.415a19.075 19.075 0 0 1 1.855-1.746c.134-.1.269-.211.4-.315a6.984 6.984 0 0 1 1.973-1.228 8.328 8.328 0 0 1 2.093-.643 6.857 6.857 0 0 1 1.762-.053 8.907 8.907 0 0 1 2.521.695c.564.228.938.379 1.125.212-.061-.07-.7-.811-.624-.917.014-.02.05-.018.108.007a7.028 7.028 0 0 0 1.139.37 3.768 3.768 0 0 1 .849.282 29.007 29.007 0 0 1 3.816 3.99 40.615 40.615 0 0 1 4.5 6.677 4.47 4.47 0 0 1 .572 3.393 24.484 24.484 0 0 1-.808 3.165 46.347 46.347 0 0 0-1.843 5.583 9.032 9.032 0 0 0 .394 3.591 15.052 15.052 0 0 0 .621 1.772c0-.294 0-.54-.006-.758a6.565 6.565 0 0 1 .03-1.044l.09-1.039a2 2 0 0 1-.047-.386 10.783 10.783 0 0 1 .192-1.168c.045-.218.084-.406.105-.567a37.876 37.876 0 0 1 2.135-7.454l.242-.665a6.447 6.447 0 0 1 .325-.637 1.825 1.825 0 0 0 .338-.965 6.115 6.115 0 0 0-.962-2.528c-.156-.29-.317-.591-.463-.886a37.031 37.031 0 0 0-2.295-4.076c-2.236-3.214-4.079-5.608-7.446-7.126a17.568 17.568 0 0 0-5.994-.584 11.906 11.906 0 0 0-4 1.339 17.744 17.744 0 0 0-2.376 1.943 16.352 16.352 0 0 1-2.213 1.813 40.544 40.544 0 0 1-5.11-2.984c-.16-.109-.266-.182-.325-.216-1.7-.911-4.295-2.275-7.172-3.588-.671-.626-3.068-1.641-5.964-2.526a51.153 51.153 0 0 0-10.436-2.062 22.564 22.564 0 0 0-3.636 3.211 49.37 49.37 0 0 0-2 2.235 22.111 22.111 0 0 1-3.59 3.588 5.778 5.778 0 0 1-3.115 1.044c-.159.008-.308.02-.453.032a8.385 8.385 0 0 1-2.008-.043 2.043 2.043 0 0 0-1.671-.181 3.753 3.753 0 0 0-1.61 1.231 24.115 24.115 0 0 0-1.828 3.3 28.425 28.425 0 0 0-1.416 3.542 9.376 9.376 0 0 0-.179 3.648 11.232 11.232 0 0 0 1.068 3.307 17.608 17.608 0 0 0 1.882 2.959 32.42 32.42 0 0 0 2.265 2.605 47.032 47.032 0 0 1 3.331 3.489A14.522 14.522 0 0 1 60.78 56.3a26.773 26.773 0 0 1 1.355 3.239c.278.751.54 1.461.813 2.074l.053.1c.19.38.193.387.8.522a23.769 23.769 0 0 0 3.416.343c.588.033 1.2.067 1.774.117a25.36 25.36 0 0 0 2.813-.122c.217-.041.436-.081.668-.123a26.065 26.065 0 0 0 3.669-.857 28.034 28.034 0 0 0 3.56-1.191zm5.576-3.031v.006l.212 1.362a16.668 16.668 0 0 0-5.828 2.495 2.575 2.575 0 0 0-.756.808c-.129.174-.262.355-.389.5a17.526 17.526 0 0 0-1.891 2.968 18.355 18.355 0 0 0-1.222 3.119 22.849 22.849 0 0 0-.855 6.375 34.231 34.231 0 0 0 .566 6.033c.345 1.955.8 3.732 1.15 5.062l.208.487c.509 1.2 1.086 2.552 1.713 3.814a15.084 15.084 0 0 0 1.986 3.2 48.138 48.138 0 0 0 8.525 7.041c.15.095.305.19.461.285a23.394 23.394 0 0 0 8.364 3.278 19.85 19.85 0 0 0 3.046.27h.082a7.441 7.441 0 0 0 1.791-.194 1.8 1.8 0 0 0 1.14-.7c.318-.528.1-1.29-.647-2.266a1.916 1.916 0 0 0-.123-.159 6.123 6.123 0 0 1-.991-1.57c-.016-.042-.285-.427-.6-.873-.293-.419-.624-.892-.861-1.246-.782-1.165-1.917-2.888-2.738-4.395a13.372 13.372 0 0 1-.926-2 1.708 1.708 0 0 1-.1-1.278 11.544 11.544 0 0 1 .72-4.047c.18-.434.348-.849.51-1.251.359-.889.669-1.656.938-2.207l4.674-3.366c.34.545.707 1.037 1.062 1.514A14.987 14.987 0 0 1 106.152 83a6.254 6.254 0 0 0 1.431 2.315 3.965 3.965 0 0 0 1.949 1.075 4.511 4.511 0 0 0 2.63-.263 8.012 8.012 0 0 0 2.7-1.84l-.844-1.058-.035.026a3.159 3.159 0 0 0-1.159 1.482 1.255 1.255 0 0 1-.77.674 4.933 4.933 0 0 1-3.443-.95c.136.344.716.731 1.277 1.105.233.156.475.317.681.473l.012.01h-.015c-.762.039-1.749-.049-2.024-.429-1.049-1.465-.917-1.937-.691-2.294.183-.245.369-.485.567-.739a9.927 9.927 0 0 0 2.3-4.267v-.014l.008.012a23.315 23.315 0 0 0 5.1 5.142h.006c.406.209.8.433 1.221.67a16.545 16.545 0 0 0 3.5 1.621 10.381 10.381 0 0 0 4.817.212c3.841-.584 6.529-4.824 8.862-9.319a27.962 27.962 0 0 0 1.41-4.039 23.654 23.654 0 0 0 .713-3.925 3.537 3.537 0 0 0-.624-2.056.814.814 0 0 0-.665-.257 3.274 3.274 0 0 0-1.8.653 5.041 5.041 0 0 1-1.927.825 20.905 20.905 0 0 0-1.734-.005c-.671.016-1.156.028-1.2-.061a3.912 3.912 0 0 1-.373-2.2 5.339 5.339 0 0 0-.564-2.966c-.217-.269-3.291-6.074-3.894-8.528-.147-.6-.521-.7-.567-.705a6.568 6.568 0 0 0-.029 1.035c0 .224.011.479.006.785h-.01a14.532 14.532 0 0 1-.633-1.8 9.5 9.5 0 0 1-.394-3.594 19.286 19.286 0 0 1 .815-2.775c.42-1.221.889-2.492 1.029-2.812a24.627 24.627 0 0 0 .807-3.163 4.462 4.462 0 0 0-.571-3.386 40.677 40.677 0 0 0-4.5-6.675 29.067 29.067 0 0 0-3.811-3.991 3.962 3.962 0 0 0-.845-.279 6.983 6.983 0 0 1-1.141-.371c-.05-.022-.083-.025-.094-.01-.061.084.432.683.627.907-.191.177-.569.025-1.141-.206a8.873 8.873 0 0 0-2.518-.694 6.788 6.788 0 0 0-1.759.053 8.3 8.3 0 0 0-2.09.641 7.007 7.007 0 0 0-1.971 1.227c-.13.1-.265.211-.4.315a19.154 19.154 0 0 0-1.853 1.745 106.4 106.4 0 0 0-.4.413c.038.2.474.489 1.264.945a37.291 37.291 0 0 1 3.681 2.519 18.862 18.862 0 0 1 2.715 2.385 25 25 0 0 1 .919 3.607c.445 1.987 1 4.46 1.55 6.379.1.335.449.9 1.584 1.7a13.33 13.33 0 0 0 1.333.814l.016.009h-.018a8.483 8.483 0 0 1-2.558-.586 19.993 19.993 0 0 0 .475 3.087h-.011a23.953 23.953 0 0 1-1.257-4.411 67.208 67.208 0 0 0-3.358-9.24 20.855 20.855 0 0 0-3.758-3.521 17.886 17.886 0 0 0-3.9-2.468c-.976-.557-1.967-1.057-3.017-1.587a95.932 95.932 0 0 1-2.686-1.391c-.6-.321-1.213-.657-1.861-1.014a81.149 81.149 0 0 0-8.3-4.122 50.076 50.076 0 0 0-11.441-3.22 6.937 6.937 0 0 0-2.367.738l-.524.231a22.271 22.271 0 0 0-2.588 3.056 25.648 25.648 0 0 1-2.139 2.618 14.761 14.761 0 0 1-3.185 2.51.916.916 0 0 0 .807.585 17.009 17.009 0 0 1 3.956 1.545c1.486.747 3.124 1.682 4.709 2.587.916.523 1.864 1.064 2.772 1.562l-.005.011c-.054-.025-5.44-2.518-9.476-4.021a18.625 18.625 0 0 0-3.631-.883l-.293-.047a36.747 36.747 0 0 0-5.857-.394 15.211 15.211 0 0 0-3.977 6.711l-.01.027a10.241 10.241 0 0 0 .277 4.059c.05.191.1.371.132.548a12.589 12.589 0 0 0 2.34 4.59A43.605 43.605 0 0 0 58.54 51.2l.335.332a20.622 20.622 0 0 1 2.141 2.344l.015.017.016.019a13.992 13.992 0 0 1 1.447 3.509 14.221 14.221 0 0 0 1.623 3.837 8.032 8.032 0 0 0 1.954.091 31.545 31.545 0 0 1 3.877.146 10.77 10.77 0 0 0 2.757.006c1.873-.469 3.324-.924 4.727-1.363.772-.242 1.5-.47 2.294-.7a26.69 26.69 0 0 1 2.759-1.144c1.212-.447 2.31-.808 2.8-.919zm25.439 20.965a9.963 9.963 0 0 1-2.3 4.258c-.2.254-.384.494-.566.738-.224.354-.355.822.69 2.282.27.373 1.242.461 2 .424-.2-.153-.44-.31-.669-.463-.571-.382-1.163-.776-1.287-1.128l-.006-.016.015.01a4.927 4.927 0 0 0 3.449.957 1.24 1.24 0 0 0 .762-.668 3.172 3.172 0 0 1 1.162-1.485l.044-.032.846 1.06.951-.812a23.354 23.354 0 0 1-5.091-5.123z"/>
</svg>
