<svg xmlns="http://www.w3.org/2000/svg" viewBox="0 0 1080.009 144.036">
	<path d="M98.294 140.143V87.005H30.169v53.137H0V3.893H30.17V57.03h68.124V3.893h30.17v136.25Z"/>
	<path d="M161.56 140.143V3.893h30.172v136.25Z"/>
	<path d="M322.73 3.893h33.088l-47.687 136.25h-48.272L212.173 3.893h33.088l38.734 114.06Z"/>
	<path d="M496.943 140.143H376.265V3.893H495.97v30.17h-89.535V57.03h88.56v29.975h-88.56v22.968h90.507Z"/>
	<path d="M659.284 99.463c-11.481 28.418-35.423 44.573-66.564 44.573-41.46 0-72.408-29.003-72.408-72.018S552.232 0 591.744 0c30.754 0 54.89 15.767 66.374 43.795l-28.03 11.872c-7.006-15.57-20.435-25.497-38.15-25.497-24.33 0-41.457 17.908-41.457 41.848 0 24.914 17.127 41.848 41.457 41.848 18.88 0 32.7-10.705 39.515-26.667Z"/>
	<path d="M948.618 140.143H841.565V3.893h30.17v106.08h76.883Z"/>
	<path d="M1080.01 140.143H972.956V3.893h30.169v106.08h76.883Z"/>
	<path d="M685.896 34.062h123.835c-.715-10.385-2.13-20.459-3.396-30.169H689.293c-1.266 9.71-2.681 19.784-3.397 30.17Z"/>
	<path d="M685.896 109.974c.716 10.385 2.131 20.459 3.397 30.169h117.042c1.265-9.71 2.68-19.784 3.396-30.17Z"/>
	<path d="M684.814 57.03c-.131 4.95-.216 9.94-.216 14.988s.085 10.037.216 14.987h126c.13-4.95.215-9.939.215-14.987s-.084-10.037-.216-14.988Z"/>
</svg>
