<?xml version="1.0" encoding="utf-8"?>
<!-- Generator: Adobe Illustrator 22.0.1, SVG Export Plug-In . SVG Version: 6.00 Build 0)  -->
<svg version="1.1" xmlns="http://www.w3.org/2000/svg" xmlns:xlink="http://www.w3.org/1999/xlink" x="0px" y="0px"
	 viewBox="0 0 189.6 170" style="enable-background:new 0 0 189.6 170;" xml:space="preserve">
<style type="text/css">
	.st0{display:none;}
	.st1{display:inline;}
	.st2{stroke:#FCEE21;}
	.st3{stroke:#FFEF00;}
	.st4{fill:#FCEE21;stroke:#000000;}
	.st5{fill:#FCF69F;}
	.st6{stroke:#000000;}
	.st7{display:inline;fill:none;stroke:#000000;}
	.st8{fill:#FCEE21;}
	.st9{fill:#C0C43D;}
	.st10{fill:none;stroke:#000000;stroke-width:3;}
	.st11{fill:#FFFFFF;}
	.st12{fill:#FFB01F;stroke:#000000;stroke-width:3;}
	.st13{fill:#FFD075;}
	.st14{fill:#E68911;}
	.st15{fill:#FF9B00;stroke:#000000;stroke-width:2;}
	.st16{fill:#F09A00;stroke:#000000;}
	.st17{fill:#D6941A;stroke:#000000;}
	.st18{fill:none;stroke:#000000;}
	.st19{fill:#FFB005;}
</style>
<g id="Layer_1" class="st0">
	<g id="O3MI8g_1_" class="st1">
		
			<image style="overflow:visible;" width="217" height="240" id="O3MI8g_2_" xlink:href="E1CC47F3.jpg"  transform="matrix(1 0 0 1 206.6735 -103.1431)">
		</image>
	</g>
</g>
<g id="Hive_Logo">
	<g id="Layer_12">
		<g>
			<path class="st2" d="M113,133.5c0-0.3,0.2-0.5,0.5-0.5h8.3c0.3,0,0.4,0.1,0.4,0.4v12.9c0,0.2,0.1,0.3,0.3,0.3h1
				c0.2,0,0.4-0.2,0.4-0.3v-12.9c0-0.2,0.1-0.4,0.4-0.4h8.3c0.3,0,0.5,0.2,0.5,0.4v36c0,0.2-0.1,0.5-0.4,0.5h-8.4
				c-0.2,0-0.4-0.3-0.4-0.5v-12.9c0-0.2-0.1-0.4-0.3-0.4h-1.1c-0.2,0-0.3,0.2-0.3,0.4v12.9c0,0.2-0.2,0.5-0.4,0.5h-8.1
				c-0.3,0-0.6-0.3-0.6-0.7V133.5z"/>
			<path class="st2" d="M135.8,170c-0.3,0-0.6-0.3-0.6-0.7v-35.7c0-0.2,0.2-0.5,0.4-0.5h8.4c0.3,0,0.6,0.2,0.6,0.5v35.8
				c0,0.3-0.2,0.6-0.6,0.6H135.8z"/>
			<path class="st2" d="M157.8,149c0,0.2,0.2,0.4,0.2,0.4c0.1,0,0.2-0.1,0.2-0.4l2.1-15.3c0.1-0.3,0.3-0.6,0.6-0.6h8.5
				c0.3,0,0.5,0.3,0.4,0.6l-6.8,35.7c0,0.3-0.3,0.6-0.6,0.6h-9.6c-0.3,0-0.5-0.3-0.6-0.6l-6.6-35.8c0-0.2,0-0.5,0.3-0.5h8.8
				c0.3,0,0.5,0.1,0.6,0.5L157.8,149z"/>
			<path class="st2" d="M170.9,133.7c0-0.3,0.3-0.6,0.6-0.6H189c0.3,0,0.5,0.2,0.5,0.5v8.9c0,0.3-0.2,0.5-0.5,0.5h-8.2
				c-0.2,0-0.3,0.1-0.3,0.3v2.8c0,0.2,0.2,0.3,0.3,0.3h3.9c0.2,0,0.3,0.1,0.3,0.3v9c0,0.2-0.2,0.4-0.4,0.4h-4
				c-0.2,0-0.3,0.1-0.3,0.4v2.9c0,0.2,0.1,0.3,0.3,0.3h8.5c0.3,0,0.5,0.2,0.5,0.5v9.2c0,0.3-0.2,0.5-0.5,0.5h-17.6
				c-0.3,0-0.5-0.3-0.5-0.6V133.7z"/>
		</g>
	</g>
	<g id="bee">
		<g id="Layer_11" class="st0">
			<g class="st1">
				<g>
					<defs>
						<rect id="SVGID_1_" x="168.4" y="-6.3" width="146.6" height="79.2"/>
					</defs>
					<use xlink:href="#SVGID_1_"  style="overflow:visible;"/>
					<clipPath id="SVGID_2_">
						<use xlink:href="#SVGID_1_"  style="overflow:visible;"/>
					</clipPath>
					<g style="clip-path:url(#SVGID_2_);">
						
							<image style="overflow:visible;" width="611" height="331" xlink:href="E1CC47F1.png"  transform="matrix(0.24 0 0 0.24 168.4225 -6.3164)">
						</image>
					</g>
				</g>
			</g>
		</g>
		<g id="Layer_49">
			<path class="st3" d="M103.9,162l29.5-9.9c0,0-29.2,3.5-32.6-1.7c0,0-7.2-10-3.9,2.2C91.9,136.9,76.7,165.7,103.9,162z"/>
		</g>
		<g id="Layer_10">
			<path d="M138.8,104.7c0,0-8.9,7.2-15.8,9c-6.8,1.8-27.3,5.9-29.2,10.2c-2,4.3-3,6.8,2.7,16.8c5.7,9.9,4.9,16.8,9.2,18.4
				c4.3,1.7-7.8,3.7-7.9,3.7c-0.1,0-22.9-16.1-23.2-19.5c-0.3-3.4,1.4-37.8,6.7-40.3c5.3-2.5,21.9-17.7,31.9-18
				C123.1,84.7,138.8,104.7,138.8,104.7"/>
		</g>
		<g id="Layer_6">
			<path d="M90.8,115.5c1.8,5.2,5.6,11.5,7.9,13.7c2.3,2.3,5.7,5,9.9,4.4c0,0-2.3,0.9-4.2,0.6c-2-0.4-7.5-1.6-9.6-3.9
				c-2-2.3-7.6-9.1-7.6-9.1l-3.4,9.5c0,0,7.9,6.3,12.6,7.7c5.3,1.6,9.3,2,10.9,0.9c0,0-1.4,1.2-3.3,1.6c-1.8,0.4-4.1,0.3-6.5,0
				c-2.4-0.3-10.4-1.4-10.4-1.4l10.3,7.2c0,0,3.8,2.1,8.7,2c0,0-3.8,1.2-5.4,1.1c-1.6,0-14.3-1.8-14.3-1.8l-8.9-16.7l7.2-18.3
				L90.8,115.5z"/>
		</g>
		<g id="Layer_5">
			<path class="st4" d="M85.2,71.4c-2.8,0-25.5,2-31.9,10.9c-4.6,6.3-11.2,19-3.8,44.3c8.2,27.9,43.9,38,50.1,35.2
				c6.2-2.8,0.6-6.7-0.1-8.3c-0.6-1.5-8.6-12.1-10.3-16.5c-1.8-4.3,3.4-19.5,5.7-20.1c2.4-0.6,6.1-0.9,8.1,1.3
				c2,2.2,7.2,4.5,7.8-4.5c0.6-9,4-19.5,4-19.5L85.2,71.4z"/>
		</g>
		<g id="Layer_22">
			<path class="st5" d="M56.3,80.1c0,0-9.8,9.3-9.8,24.7c0,11.3,3.8,24.6,7.4,31.6c2,5.2,20,22,34.7,24.4
				c12.6,2.9,12.8-1.2,12.8-1.2c-1.1,0.3-6.8,2.8-17.7-1.4c-11-4.2-21.8-14.2-25.2-23.9c-3.5-9.7-5.4-25.3-5.3-33.3
				c0.1-8.1,7-23.3,7-23.3L56.3,80.1z"/>
		</g>
		<g id="Layer_8">
			<path class="st6" d="M67.8,74.6c0,4.4,14,36.6,21.4,42.5c7.4,5.9,18.7,3.9,21.1,3c2.4-0.9-9.3-18.7-10.4-20.8
				C98.8,97,88.1,69,89,66.4c0.9-2.6-7.1-1.3-10-0.8C76.2,66,67.8,74.6,67.8,74.6z"/>
			<path d="M96,148.4c0,0-12.8,1.8-21.5-0.3c-8.7-2.1-17.2-6.6-17.2-6.6s10.9,11.1,14.8,12.9c3.9,1.8,23.6,2.1,26.6-1.9
				C101.8,148.4,96,148.4,96,148.4z"/>
			<path d="M91.3,141.2c0,0-9.5,0.4-22.4-3.9c-12.9-4.3-19.1-9.5-19.1-9.5l-3.3-15.3c0,0,12.9,12.6,22.4,15.9
				c9.4,3.3,20.4,5.9,20.4,5.9"/>
			<path d="M47.3,95.4c0,0,5.5,13,17.5,20.7c12.1,7.7,25.5,10,25.5,10l1.2-3.5c0,0-2.3-0.2-19.7-12.3C54.5,98.2,56,80.7,55.4,80.8
				c-2.3,0.4-5.9,8.1-5.9,8.1L47.3,95.4z"/>
		</g>
		<g id="Layer_4">
			<path class="st4" d="M144.7,73.3c-2.1-10.5-13.7-15.5-21.7-17c-8-1.5-30.9,0.6-34.1,7.4C85.8,70.6,86.2,83.1,87,88
				c0.8,4.9,8.8,7.1,11.6,8.5c2.9,1.3,6.6-2.7,9.9,0.9c3.2,3.6,16,11.5,18.6,11.4c2.7,0,9.2-6.6,9.2-6.6L144.7,73.3z"/>
		</g>
		<g id="Layer_3" class="st0">
			<polyline class="st7" points="140.2,125.2 108.1,117.9 100.3,119.6 			"/>
			<polyline class="st7" points="118.2,104.1 98,109.9 95.5,111.1 			"/>
		</g>
		<g id="Layer_2">
		</g>
	</g>
	<g id="other_ear">
		<g id="Layer_20">
			<path class="st8" d="M137,59.9l4.8-15l1.7-5.1c0,0-7.5-13.8-12.8-19.9c-5.3-6.2-9.5-5.8-9.5-5.8s-5.7-2.8-13.5,0.8
				c-7.8,3.6-10.8,7.6-10.8,7.6l3.3,0.9l12.5,27l11.8,13.7l13.8,3.1"/>
		</g>
		<g id="Layer_21">
			<path class="st5" d="M119.1,14.2c0,0,8,7.1,11.3,11.7c3.3,4.6,8.7,8,7.1,19.6c-1.6,11.6-0.3,15.2-0.3,15.2l5.3-21.9
				c0,0-2.8-7.2-9.7-15.9c-6.9-8.7-11.1-9.6-11.1-9.6L119.1,14.2z"/>
			<path class="st5" d="M122.6,22.6c0,0-2-3.9-4-4.9c-2-1.1-3.9-0.4-5.2-0.7c0,0,3.5,0.6,4.8,2.3c1.3,1.7,4,7.1,5.3,9.4
				c1.3,2.3,1.5,0.6,3.3,5.6c1.8,5.1,5.5,10.1,5.4,12l-2-10.1L122.6,22.6z"/>
		</g>
		<g id="Layer_19">
			<path d="M136.5,79.3l3.6-10.3c0,0-1-4.6-2.1-5.7c-1-1.1,4.4,4.5,4.4,4.5L136.5,79.3z"/>
			<path d="M138.4,68.7c0,0,0.5-11.1,1.4-14.6c1-3.5,5.1-13.6,5.1-13.6s-10-25.4-22.5-27.9c-12.5-2.5-17.6,1.2-21.2,4.9
				c-3.5,3.7-6.2,4.4-6.2,4.4l11.6,30.7c0,0,12.1,3,17.8,5.1l-5.7-4.4c0,0-8.1-9.2-10.7-13.5c-2.6-4.3-9.4-14.9-9.4-14.9l-0.6-2
				c0,0,6.6-6.8,8.5-7.3c1.9-0.5,5.4-3.4,11.8-0.9c6.4,2.4,2.4-0.6,2.4-0.6s4,0.5,5.5,2.3c1.5,1.7,16.5,15.9,15.5,25
				c-0.6,5.6-5.8,16.1-5.4,18.5C136.5,62.2,138.4,68.7,138.4,68.7z"/>
			<path d="M129.2,31.2c2.1,5.4,2.8,13.4,2.8,13.4s-3.1-12.4-5.9-15.5c-2.8-3.1-4.3-8-4.3-8s2.5,2.3,3.5,3.5
				C126.3,25.8,129.2,31.2,129.2,31.2z"/>
		</g>
		<g id="Layer_9">
			<g>
				<path class="st8" d="M119.9,62.6l-29.8,3.9L65,74.1l-22.2,8L25.6,80l-5-13L6.9,52.8c0,0-3.9-9.5-4.3-16.3s7.9-15.3,7.9-15.3
					l10.8-0.7l8.1-5L40.2,2l9.5,0.7L55.3,3l28.6,13.5l19.7,12.2l8.2,5.9L119.9,62.6z"/>
				<path class="st5" d="M51.5,31c0,0,9.3,2.8,12.8,3.8c3.5,1.1,21.2,4.5,21.2,4.5s11.4,0.7,15.3,6.9c3.9,6.2,9.4,21.6,9.4,21.6
					S103.3,56,93.3,52.5c-9.9-3.5-18.8-3-18.8-3s2.3-1.3,5.9-2.2c3.6-0.9,3.6-0.9,3.6-0.9l-0.3-3c0,0-7.8-1.9-12.1-3.6
					C67.3,37.9,51.5,31,51.5,31z"/>
				<path class="st5" d="M35.6,12.5c0,0,0.1-1,5.6,0.1c5.5,1.1,13.9,4.2,13.9,4.2s6.1,1.8,14.6,4.7c8.5,2.9,19.1,6.7,19.1,6.7
					s8.6,3.5,11.5,6.5c3,3,19.3,26.8,19.3,26.8c-3.8-21-12.7-31.8-12.7-31.8S66.5,6.6,55.8,4.1S41.5,2.8,41.5,2.8S35.6,7,35,9.4
					C34.3,11.7,35.6,12.5,35.6,12.5z"/>
				<path d="M119.9,62.6c0,0-4.2-21.3-6.2-29.1c-7.1-6.8-11.6-9.2-11.6-9.2S88,17.5,86.5,15.9c-1.5-1.6-13-6.2-14.9-7.8
					c-2-1.5-14.3-5.5-17.2-6.1C51.4,1.3,42.9-0.3,41,0.1c-1.9,0.4-4.5,4.1-6.2,5.4c-1.7,1.4-9.9,11.3-12.5,12.3
					c-2.6,1-8.6,1.5-9.4,0.9c-0.8-0.6-4.4-0.5-7.1,3.8C3.1,26.8-0.5,34.9,0.1,40c0.6,5.2,3.9,10.6,8.8,16c5,5.5,7.8,6.7,11.4,14
					c3.5,7.3,4.6,11.5,4.6,11.5s11.2,1.7,18,0.6c6.8-1.1,19.1-5.2,23.2-7.4c4.1-2.2,19.6-6,22.2-7.5c0,0-16.9,3.7-22.3,5.5
					c-5.4,1.8-18,7.6-23.8,7.6c-8-0.1-15.9-0.6-15.9-0.6s-3-10.9-6.1-14.8c-3.1-3.9-13.1-12-15-18c-1.9-6-2.9-10.9-0.5-16.3
					C7,25.2,11,22.1,11,22.1s4.2-0.2,7.6,0.2c3.4,0.4,8.7,1.4,12.4,2.6c3.7,1.2,17,7.6,17,7.6l-14.5-8.2l-9.6-3.7
					c0,0,4.3-2.5,8.2-7.3c3.9-4.8,4.2-6.5,6.8-8.2c2.6-1.7,4.1-2.1,7.1-2c3,0.2,9,1.6,12.7,3c3.7,1.3,12.5,4.5,16.1,6.6
					c3.8,2.2,7.2,3.6,11,5.8c3.8,2.1,12.5,6.4,16.5,9.3c4,2.9,6.1,4.5,8.7,8.2C113.5,39.6,119.9,62.6,119.9,62.6z"/>
				<path d="M106.9,59.7c0,0-5.7-13.9-7-16.4c-1.3-2.5-4.7-3.7-6.5-4.1c-1.8-0.5-20.5-0.5-20.5-0.5L88.6,41c0,0,2.4,0.2,4.1,0.8
					c1.6,0.5,4,2.4,4,2.4s-2-0.5-3.3-0.5c-1.3,0-3.7,1.7-4.5,1.9C87.9,45.8,86,47,86,47s4.3-1,6.7-0.2c2.4,0.9,4.1,0.1,5.9,1.7
					c1.8,1.7,3.4,3.7,3.4,3.7L106.9,59.7z"/>
			</g>
		</g>
	</g>
</g>
<g id="Layer_13">
	<g id="Layer_17">
		<path class="st8" d="M103.7,117.8l-5.8-9.1c0,0-1.7-7.1,2.7-12.1c4.4-5,4.4-5,4.4-5L119.5,73l16.1-3.2l6.6,0.1l7.8,20.7l6.7-0.5
			l6.4-1.1l1.7,2.9l-6.7,24.8l-11.7,10.1l-13.6,0.6l-8.2-4.5l-6.5,5l-6.3,0.6l-3.5-3.1L103.7,117.8z"/>
	</g>
	<g id="Layer_15">
		<path class="st9" d="M117.4,115c0,0,16.8,15.6,27.7,8.4c10.9-7.2,14.3-18,14.3-18s3.7-11.3,3.4-13.6c-0.3-2.3,3,0.9,3,0.9
			l-6.8,24.9c0,0-10,10.1-16.4,10.6c-6.4,0.5-17.8-5.2-17.8-5.2l-6.9,5.5l-5.8,0.1l3.3-5.2L117.4,115z"/>
		<path class="st9" d="M110.1,114.1c0,0,2.2-1.6,3.7-2.1c1.5-0.5,4.9-1.4,4.9-1.4l-5.5-0.3L110.1,114.1z"/>
		<path class="st9" d="M149.5,93c0.2-0.5,3.6,1.1,5.8,0.4c2.2-0.7,2.9-1.4,3.7-1.8c0.8-0.5,1.8-1,2.4-1c0.5,0,1.6,0.1,1,0.5
			c-0.6,0.4-4.5,3.1-4.5,3.1l-4.4,0.6L149.5,93z"/>
		<path class="st9" d="M113.7,81.7c0,0,2.1-3.7,3.3-4.7c1.2-1,6.7-4.1,6.7-4.1l-6.8,1.6c0,0-2.6,4.4-2.9,5.4
			C113.8,80.9,113.7,81.7,113.7,81.7z"/>
		<path class="st9" d="M140,68.7c0,0-0.6-0.2-0.4,1.3c0.2,1.5,1,3.4-0.1,4.2c-1.1,0.7-1.8,1.1-1.8,1.1s3.2-0.1,4.7,1.2
			c1.5,1.2,2.8,3.2,3.1,4.8c0.3,1.6,0.7,4.8-0.5,6.1c-1.2,1.3,2.7,4.7,2.7,4.7l2.4-1.3l-2-10.2L140,68.7z"/>
		<path class="st9" d="M140.3,86.8c0,0.9,0.5,1.4,0.5,1.4s-0.3,0.3-0.6,1.3c-0.2,1,0.3,2,0.3,2s0,0.4,1.6,0.9c1.6,0.5,3.2,1.6,2,2.4
			c-1.2,0.8,0.7,1.8,0.7,1.8l2.3-2.4l-0.7-3.5l-2.7-3.1l-3.3-1.2"/>
		<path class="st9" d="M128.4,83.6l-0.4,0.8c0,0,0.8,0.8,0.7,2.7c-0.1,1.9-0.2,2.2-0.2,2.2l2.4,0.5c0,0-5.5,0.7-8,1.2
			c-2.5,0.5-5.7,2.5-6.6,3.1c-0.9,0.6-0.6,0.4-0.6,0.4s-0.1-0.7,0.7-1.6c0.8-1,1.5-1.5,1.5-1.5l0.7-0.5c0,0-1,0.2-1.4-1.9
			c-0.4-2.1-0.3-2.2-0.3-2.2s-1.6-0.4-2-0.6c-0.4-0.2,4.4-1.3,4.4-1.3L128.4,83.6"/>
	</g>
	<g id="Layer_14">
		<path class="st10" d="M149.4,90.4c0,0-0.2-1.7,0.1-3.8c0.3-2-2.6-7.9-3.7-9.6c-1.1-1.7-4.3-8.7-4.3-8.7l-0.1-0.7"/>
		<path d="M132.2,98.6c0.8-0.3,2.4-2.2,3.3-3.4c0.9-1.2,1.8-1.6,2.8-1.6c1,0,2.7,0.1,3.5,0.4c0.9,0.3,1.7,0.2,2.1,0.9
			c0.4,0.7-1.6,0.7-1.6,0.7s-1.4-0.7-2.8-0.7c-1.4,0-2.8,0-3.6,0.8S132.2,98.6,132.2,98.6z"/>
		<path d="M145,96.1c0,0-4-1.4-5.4,0.4c-1.4,1.8-2,2.8-2.8,4.2c-0.8,1.4-2.2,3-2.2,3s3.2-3.2,3.8-4c0.6-0.7,0.9-1.3,1.9-2
			c1-0.7,1.9-0.7,2.9-0.7c1,0.1,1.6,0.4,1.6,0.4L145,96.1z"/>
		<path d="M139,107.9c0,0,3.6-4.5,4.2-6.1c0.6-1.6,2.3-6.1,2.5-7.2c0.2-1.1,1.1-2.8,1.9-3.5c0.9-0.7,1.1-0.2,2.5-0.4
			c1.4-0.2,3.6-0.7,4.3-1.1c0.7-0.3,3.1-1.8,3.6-2.1c0.5-0.3,2.7-1.3,3.1-1.2c0.5,0.2,2.3,0.4,3.2,1.4c0.9,1,1.9,2.6,2.2,3.5
			c0.3,0.8-2.5,23-10.3,30.7c-8.2,8.1-10.4,8.4-17.8,8c-7.4-0.4-11.1-3.6-13-4.4c-1.9-0.8-1.2-0.8-1.2-0.8s-0.9,1.3-2.4,2.8
			c-1.4,1.5-5.4,3.5-7.5,3.1c-2.2-0.3-5.8-0.3-7.9-3.5c-2.1-3.2-3.7-7.9-3.7-7.9l-1.2-3.1c0,0-1.1-1.1-2.4-3.5
			c-1.3-2.4-1.8-4.9-1.8-4.9s1.7,3,3.1,4.6c1.4,1.6,3.9,4,3.9,4l2.7,6c0,0,1.1,4.2,4.6,5.2c3.4,1,5.7,0.4,7.1-0.5
			c1.4-0.8,4.3-3.9,4.3-3.9l-1.6-1.6l-1.8,2.5c0,0-1.3,1.9-3.4,1.6c-2.2-0.2-3.5-1.2-4.3-1.8c-0.8-0.6-0.8-0.6-0.8-0.6
			s1.6,2.9,4.4,3.5c-1.1,0.2-4-0.6-4.8-1.6c0,0-1.3-1.4-0.5-3.1c0.7-1.7,1.6-2.9,2.2-3.6c0.5-0.7,1.2-1.2,1.7-2.1
			c0.5-0.9,1.3-3.6,1.4-3.8c0.1-0.3,0.2-0.2,0.2-0.2s1.8,3.1,3.5,4.4c1.7,1.4,6.2,5.4,7.9,6.4c1.7,1,15,9.2,25-1.5
			c10-10.7,11.2-23.1,11.2-23.1s1.2-3.6,0.8-5.5c-0.4-1.9-0.7-2.8-2.4-3.4c-1.7-0.6-2.2,0.8-4,1.6c-1.8,0.7-3.5,1.3-5.4,1.1
			c-1.9-0.2-3.3-0.2-3.8,0.8c-0.5,1.1-2.4,7.4-3.2,8.3c-0.8,1-1.7,2.3-2.2,2.8C142.3,104.7,139,107.9,139,107.9z"/>
		<path d="M155.4,95.3c3.4-0.4,4.9-2.1,5.3-2.5c0.5-0.4,1.5-1.8,1.5-1.8s-3.7,2.4-5.5,2.6c-1.8,0.3-3.7,1.5-7.2-0.7
			c-0.2-0.1,1.8,2.3,3.4,2.4C154.6,95.5,155.4,95.3,155.4,95.3z"/>
		<path d="M113.4,111c1.4-0.7,5.2-0.5,5.2-0.5s-4.6-0.8-5.5-0.7c-0.9,0.1-2.9,4.1-2.9,4.1L113.4,111z"/>
		<path d="M127.5,86.5c0.3,1.1-0.3,2.3-0.3,2.3s1,0,1.7,0.2c0.7,0.2,2.2,0.8,2.2,0.8s-5.4-0.4-7-0.1c-1.7,0.3-3.2,0.7-3.8,0.9
			c-0.7,0.2-3.1,1.3-3.1,1.3s1.6-1.3,1.9-1.4c0.3-0.1,0.3-0.3,0.3-0.3s-0.3-0.6-0.7-1.7c-0.3-1.2,0.2-2.7,0.2-2.7s-0.9,0.2-1.7,0.2
			c-0.7,0.1-2.4,0.1-2.4,0.1s2.3-0.9,3.3-1.5c1-0.6,2.5-1.3,3.3-1.5c0.8-0.2,2.8-0.3,3.8-0.1c1,0.3,4,0.6,4,0.6S128,84,127.3,84
			c-0.7,0-1,0.2-1,0.2S127.2,85.5,127.5,86.5z"/>
		<path d="M141.2,89.2c-0.3,0.8-0.2,2-0.2,2l-1.4,0c0,0,1.3,0.3,1.7,0.6c0.4,0.2,1.5,0.7,2.4,1c0.9,0.3,2.4,1.1,2.4,1.1l2-2.7
			c0,0-0.3-1.2-0.4-1.6c-0.1-0.3-0.6-1.6-1.1-1.9c-0.5-0.3-2.1-0.8-2.6-0.8c-0.5,0-1.1,0.3-1.6,0.2c-0.5-0.1-2.1-0.5-2.1-0.5l1.9,1
			C142.1,87.8,141.4,88.7,141.2,89.2z"/>
		<path class="st11" d="M141.1,91.5c0,0,0.8-0.2,1.1-0.1c0.3,0,1.2,0.3,1.2,0.3s0.5-0.8,0.4-1.3c-0.1-0.6-0.3-0.9-0.7-1.1
			c-0.4-0.2-1.1-0.1-1.3,0c-0.2,0.1-0.7,0.8-0.7,0.8L141.1,91.5z"/>
		<path d="M140.9,75.3c0,0,1.3,0,2,0.3c0.7,0.3,1.5,1,1.5,1l0.5,0.9c0,0-1.5-1.3-2.1-1.4C142.2,75.9,140.9,75.3,140.9,75.3z"/>
		<path d="M124.7,72.8c0,0-4.2,0.3-6.1,1.5c-1.9,1.2-3.6,3.3-3.6,3.3s0.7-3.8,2.5-4.5C119.2,72.4,124.7,72.8,124.7,72.8z"/>
	</g>
	<g id="Layer_16">
		<path class="st11" d="M120,87.2c0.7-0.3,2.1-0.4,2.5,0.7c0.4,1.1,0,1.2,0,1.2s-0.7,0-1.3,0.2c-0.7,0.2-1.3,0.7-1.3,0.7l-0.2,0.1
			l-0.7-2C119,88.1,119.3,87.5,120,87.2z"/>
	</g>
</g>
<g id="Layer_61">
</g>
<g id="Job_Tracker">
	<g id="rzvGmy_1_" class="st0">
		
			<image style="display:inline;overflow:visible;" width="108" height="81" id="rzvGmy_2_" xlink:href="E1CC47F7.jpg"  transform="matrix(0.3098 0 0 0.3098 411.2848 8.3491)">
		</image>
	</g>
	<g id="Layer_54">
	</g>
	<g id="Layer_13_copy">
		<g id="Layer_17_copy">
		</g>
		<g id="Layer_15_copy">
		</g>
		<g id="Layer_14_copy">
		</g>
	</g>
	<g id="eye">
	</g>
	<g id="hat" class="st0">
		<g id="Layer_25" class="st1">
		</g>
		<g id="Layer_30" class="st1">
		</g>
		<g id="Layer_26" class="st1">
		</g>
		<g id="Layer_32" class="st1">
		</g>
		<g id="Layer_27" class="st1">
		</g>
		<g id="Layer_28" class="st1">
		</g>
		<g id="Layer_29" class="st1">
		</g>
		<g id="Layer_33" class="st1">
			<g>
				<path class="st12" d="M324.5,76.1c0,0,9.4,11.1,29.6,15.2c20.2,4.1,43.6,5.5,43.6,5.5s15.1,4.6,27.2,3.9
					c12.1-0.7,16.5-3.7,21.5-6.5c5-2.8,7.8-5.7,8.4-10.4c0.6-4.7-13.1-15.7-13.1-15.7l-107.9-2c0,0-7,4.1-8.4,6.4
					C323.9,74.9,324.5,76.1,324.5,76.1z"/>
				<path class="st13" d="M326.6,74c0,0,12.6,11.4,22.8,14.1c10.1,2.7,22.3,4.8,47.8,5.7c0,0-32.4,0.2-45.6-4.2
					c-13.2-4.4-21-9.6-25.3-14.2L326.6,74z"/>
				<path class="st14" d="M387.9,93.2c0,0,29.3,0.3,40.9-5.7c11.6-6,13.9-8.2,14.9-10.6c1-2.4,1.1-4.3,0-5.4c0,0,11.7,7.7,8.6,14.2
					c-1.1,2.4-11.1,15.7-30.5,14c-9.1-1-9.6-2.5-15.6-4.1C400.2,94.1,387.9,93.2,387.9,93.2z"/>
				<path class="st13" d="M404.2,96.7c0,0,0.8-0.8,4.1-0.7c3.3,0,9.4,4.8,23.8,3.3c14.4-1.5,25.8-11.6,26.6-14.1
					c0,0-7,12.6-26.5,14.8C417.1,101,404.2,96.7,404.2,96.7z"/>
				<path class="st15" d="M329.1,72.4c0,0,9.5,10.3,35.4,13.1c24.1,2.7,34.2,5,45.8,3.5c10.7-1.4,15.9-3.6,23.3-7.9
					c7.4-4.3,6.9-2.9,6.9-2.9S445.6,7.4,375,9.4C322.5,13.4,329.1,72.4,329.1,72.4z"/>
				<path class="st13" d="M330.9,58.8c1,2.1,6.1,6,9.5,4.7c3.4-1.3-8.9-13.4,3.1-31.2c12-17.8,21.5-18.8,21.5-18.8
					c-2.6,1-14.6,2.9-24.5,16.6C333.1,40.1,330.9,58.8,330.9,58.8z"/>
				<path class="st16" d="M328.6,61.7c-1.5,0.4-0.6,10.6-0.6,10.6s11.5,18.4,52.1,19.6c45.7,1.3,51.9-5.8,61.6-13.4
					c0,0,1-11.5,0-12.6c-1.1-1.1-17.8,18.8-60.4,15.3C339.1,77.8,330,61.3,328.6,61.7z"/>
				<path class="st17" d="M413.9,85.1c0,0,0.5,2.4,4,2.4c3.5,0,8.5-1.2,12.5-3.3c3.9-2.1,7.1-4,7.1-4s-0.2-36.1-22.9-55.8
					c-22.7-19.7-42.8-13.5-52.8-12.5c0,0,34-5.8,46.4,22.3C420.6,62.2,413.9,85.1,413.9,85.1z"/>
				<path class="st18" d="M419.9,87"/>
				<path class="st19" d="M417.1,85.1c0,0-0.5,2.4,3,2.4c3.5,0,6.6-1.2,10.5-3.3c3.9-2.1,7.1-4,7.1-4s-0.2-36.1-22.9-55.8
					C392.1,4.7,372,10.9,362.1,11.9c0,0,35.9-5.8,48.4,22.3C422.9,62.2,417.1,85.1,417.1,85.1z"/>
				<path class="st13" d="M420.4,32.1c14.8,20.4,16.4,39.4,14.6,46.1c-0.4,1.5-10.4,4.2-6.5,2.8c3.9-1.4,5.3-21.3-11.3-47.7
					c-13.7-21.9-38-22.8-38-22.8S405.5,11.7,420.4,32.1z"/>
			</g>
		</g>
		<g id="Layer_31" class="st1">
		</g>
	</g>
	<g id="Layer_9_copy">
	</g>
	<g id="Layer_59">
	</g>
	<g id="Layer_50">
		<g id="Layer_52">
		</g>
		<g id="Layer_55">
		</g>
		<g id="Layer_51">
		</g>
		<g id="Layer_56">
		</g>
		<g id="Layer_57">
		</g>
		<g id="Layer_58">
		</g>
		<g id="Layer_53">
		</g>
		<g id="Layer_60">
		</g>
	</g>
	<g id="Layer_47">
	</g>
	<g id="Layer_16_copy">
	</g>
	<g id="Layer_15_copy_2">
	</g>
	<g id="Layer_14_copy_2">
	</g>
</g>
<g id="jt_small__x28_combined_x29_">
</g>
</svg>
