<svg xmlns="http://www.w3.org/2000/svg" viewBox="118.06 118.06 698.88 192.88">
	<path fill="#595c60" d="M260.172 227.596c-16.951 0-29.027-13.781-29.027-30.49 0-16.71 11.829-30.249 28.785-30.249 16.951 0 29.028 13.781 29.028 30.493 0 16.709-11.833 30.246-28.786 30.246zm0-74.52c-26.223 0-44.76 20.126-44.76 44.274 0 24.147 18.293 44.03 44.518 44.03 26.218 0 44.758-20.127 44.758-44.274 0-24.149-18.294-44.03-44.516-44.03m-72.437 36.955h-40.737v-23.036c0-14.15-15.001-12.453-15.001-12.453v85.37h15v-35.977h40.738v23.523c0 14.155 15 12.455 15 12.455v-85.371h-15v35.49m168.877 36.59h-24.88v-23.42h23.783c11.83 0 17.564 4.27 17.564 11.587 0 7.806-6.22 11.833-16.467 11.833zm11.71-47.81c0 7.925-6.466 11.706-16.101 11.706h-20.49v-22.683h21.59c9.637 0 15 4.02 15 10.977zm2.806 16.707c6.34-3.293 12.194-8.658 12.194-19.147 0-13.417-10.854-21.83-28.052-21.83h-38.295v85.37h39.515c19.029 0 31.59-8.17 31.59-23.536 0-11.708-6.95-17.442-16.952-20.857m143.702 32.077c-16.956 0-29.029-13.781-29.029-30.49 0-16.71 11.83-30.249 28.785-30.249 16.949 0 29.028 13.781 29.028 30.493 0 16.709-11.833 30.246-28.784 30.246zm0-74.52c-26.225 0-44.76 20.126-44.76 44.274 0 24.147 18.291 44.03 44.516 44.03 26.22 0 44.76-20.127 44.76-44.274 0-24.149-18.296-44.03-44.516-44.03m180.875 37.322c-16.345-3.904-20.25-6.832-20.25-13.537 0-5.736 5.123-10.246 13.905-10.246 4.677 0 9.308 1.102 13.921 3.21.27.124.543.25.815.38 1.488.61 3.113.954 4.814.954 5.068 0 9.423-2.982 11.45-7.279-6.775-5.384-14.304-8.825-23.219-10.052a55.257 55.257 0 0 0-7.537-.508c-16.95 0-29.15 10-29.15 24.881 0 15.856 10.247 21.222 28.42 25.611 15.856 3.66 19.268 6.955 19.268 13.173 0 6.586-5.853 10.857-15.122 10.857-7.042 0-13.005-1.782-18.61-5.045l-.204-.112a12.599 12.599 0 0 0-5.983-1.504c-3.876 0-7.34 1.746-9.662 4.485l-.18.212a12.647 12.647 0 0 0-1.177 1.736c6.69 5.928 14.26 9.88 22.33 11.905a53.63 53.63 0 0 0 13.118 1.616c17.93 0 30.494-9.514 30.494-25.614 0-14.27-9.396-20.734-27.44-25.123m-262.069 0c-16.343-3.904-20.246-6.832-20.246-13.54 0-5.733 5.123-10.243 13.902-10.243 4.675 0 9.305 1.102 13.92 3.21.273.124.547.25.819.38 1.484.61 3.108.954 4.816.954 5.062 0 9.422-2.982 11.446-7.279-6.773-5.384-14.305-8.828-23.22-10.052a55.271 55.271 0 0 0-7.537-.508c-16.95 0-29.146 10-29.146 24.881 0 15.856 10.245 21.222 28.416 25.611 15.854 3.66 19.267 6.955 19.267 13.173 0 6.586-5.852 10.857-15.12 10.857-7.04 0-13.004-1.782-18.611-5.045-.067-.037-.136-.073-.2-.112a12.623 12.623 0 0 0-5.986-1.504 12.636 12.636 0 0 0-9.662 4.485l-.177.212a12.555 12.555 0 0 0-1.181 1.736c6.69 5.928 14.26 9.88 22.334 11.905a53.586 53.586 0 0 0 13.117 1.616c17.927 0 30.488-9.514 30.488-25.614 0-14.27-9.389-20.734-27.439-25.123m197.575-35.856v59.029l-45.076-58.179-.076-.1a1.886 1.886 0 0 0-1.501-.75H571.57v85.37s14.758 1.7 14.758-13.055v-47.679l46.546 60.05a1.88 1.88 0 0 0 1.45.685h11.646v-72.314c0-14.755-14.759-13.057-14.759-13.057"/>
	<path fill="#30777a" d="m801.296 191.222-49.259-59.7s-11.672 5.66-7.974 14.105c4.588 9.184 17.669 28.891 17.669 51.56 0 22.666-13.081 42.374-17.67 51.556-3.697 8.443 7.975 14.104 7.975 14.104l49.259-59.696s2.684-3.277 2.684-5.964c0-2.69-2.684-5.965-2.684-5.965m-57.956 60.804v.037-.037m0 .112v.037-.037M376.753 297.44h-15.529v-27.857h15.53v2.877h-12.29v8.975h11.547v2.857h-11.547v10.252h12.29v2.896m13.584-2.268c2.159 0 3.724-.588 4.699-1.762.97-1.176 1.456-3.073 1.456-5.687v-.668c0-2.959-.492-5.07-1.478-6.334-.982-1.266-2.555-1.897-4.714-1.897-1.853 0-3.275.721-4.257 2.164-.986 1.44-1.479 3.476-1.479 6.105 0 2.668.49 4.682 1.468 6.04.977 1.359 2.415 2.039 4.305 2.039zm6.327-.534h-.172c-1.462 2.12-3.644 3.183-6.555 3.183-2.729 0-4.856-.935-6.372-2.801-1.518-1.868-2.278-4.521-2.278-7.965 0-3.443.762-6.116 2.286-8.022 1.524-1.905 3.646-2.857 6.364-2.857 2.834 0 5.007 1.028 6.517 3.087h.247l-.133-1.505-.076-1.468v-8.498h3.162v29.648h-2.572l-.418-2.802m12.67-18.082v13.548c0 1.701.387 2.972 1.163 3.81.776.84 1.986 1.258 3.638 1.258 2.187 0 3.784-.596 4.79-1.79 1.014-1.195 1.517-3.145 1.517-5.85v-10.976h3.164v20.884h-2.61l-.458-2.802h-.172c-.648 1.03-1.545 1.816-2.697 2.363-1.148.547-2.46.82-3.934.82-2.54 0-4.442-.605-5.708-1.81-1.262-1.206-1.894-3.14-1.894-5.792v-13.663h3.201m29.323 21.265c-3.024 0-5.362-.932-7.022-2.793-1.655-1.859-2.485-4.492-2.485-7.896 0-3.493.84-6.193 2.524-8.099 1.684-1.905 4.082-2.857 7.193-2.857 1.005 0 2.006.108 3.01.323 1.006.216 1.792.472 2.363.763l-.972 2.686a14.979 14.979 0 0 0-2.285-.697c-.826-.182-1.558-.275-2.192-.275-4.243 0-6.364 2.705-6.364 8.117 0 2.567.517 4.535 1.554 5.907 1.035 1.372 2.567 2.057 4.6 2.057 1.74 0 3.526-.375 5.355-1.124v2.801c-1.397.724-3.157 1.087-5.279 1.087m15.93-2.61c1.967 0 3.514-.54 4.64-1.62 1.122-1.08 1.686-2.591 1.686-4.535v-1.887l-3.164.134c-2.515.09-4.328.478-5.441 1.17-1.11.695-1.666 1.77-1.666 3.23 0 1.145.346 2.015 1.04 2.611.691.596 1.66.896 2.904.896zm7.144 2.229-.629-2.974h-.152c-1.042 1.31-2.08 2.195-3.116 2.658-1.034.465-2.328.697-3.877.697-2.07 0-3.693-.535-4.867-1.601-1.176-1.067-1.764-2.586-1.764-4.553 0-4.218 3.374-6.427 10.119-6.631l3.544-.115v-1.296c0-1.638-.352-2.849-1.059-3.628-.702-.784-1.832-1.173-3.381-1.173-1.74 0-3.71.533-5.907 1.6l-.972-2.42a14.971 14.971 0 0 1 3.384-1.314 14.567 14.567 0 0 1 3.686-.476c2.49 0 4.333.552 5.535 1.657 1.2 1.105 1.8 2.877 1.8 5.316v14.253h-2.344m15.605-2.23c.558 0 1.1-.04 1.62-.122.52-.084.934-.17 1.239-.259v2.42c-.344.165-.85.301-1.515.408-.669.11-1.268.164-1.8.164-4.04 0-6.06-2.13-6.06-6.384v-12.422h-2.991v-1.524l2.992-1.315 1.333-4.46h1.83v4.84h6.058v2.459h-6.059v12.289c0 1.257.299 2.224.896 2.896.596.673 1.415 1.01 2.457 1.01m10.195 2.23h-3.164v-20.884h3.164zm-3.43-26.542c0-.724.177-1.255.533-1.592.357-.335.8-.504 1.334-.504.508 0 .947.172 1.315.514.366.343.552.871.552 1.582 0 .71-.186 1.241-.552 1.592-.368.349-.807.522-1.315.522-.534 0-.977-.173-1.334-.522-.356-.351-.534-.882-.534-1.592m12.252 16.08c0 2.669.533 4.702 1.6 6.098 1.068 1.396 2.636 2.096 4.706 2.096 2.072 0 3.643-.694 4.715-2.088 1.075-1.388 1.612-3.424 1.612-6.105 0-2.654-.537-4.67-1.612-6.05-1.072-1.378-2.657-2.066-4.752-2.066-2.072 0-3.634.68-4.688 2.038-1.053 1.358-1.581 3.386-1.581 6.078zm15.91 0c0 3.406-.858 6.063-2.573 7.974-1.715 1.913-4.083 2.869-7.107 2.869-1.868 0-3.525-.439-4.973-1.316-1.448-.876-2.566-2.133-3.353-3.772-.787-1.638-1.181-3.557-1.181-5.754 0-3.406.852-6.056 2.553-7.956 1.701-1.897 4.064-2.847 7.088-2.847 2.921 0 5.242.97 6.965 2.915 1.72 1.944 2.581 4.573 2.581 7.888m19.834 10.46v-13.508c0-1.702-.386-2.974-1.162-3.81-.776-.84-1.987-1.258-3.639-1.258-2.186 0-3.786.59-4.801 1.77-1.016 1.182-1.525 3.131-1.525 5.851v10.956h-3.163v-20.884h2.572l.515 2.859h.152c.648-1.03 1.557-1.827 2.725-2.39 1.168-.566 2.472-.849 3.906-.849 2.515 0 4.407.607 5.678 1.818 1.272 1.214 1.905 3.154 1.905 5.822v13.624h-3.163m33.306-11.776-3.24-8.63c-.418-1.092-.852-2.435-1.294-4.022-.282 1.22-.682 2.559-1.2 4.022l-3.279 8.63zm4.477 11.776-3.467-8.86h-11.166l-3.429 8.86h-3.277l11.013-27.972h2.724l10.956 27.972h-3.354m14.596-2.268c2.159 0 3.723-.588 4.697-1.762.97-1.176 1.458-3.073 1.458-5.687v-.668c0-2.959-.494-5.07-1.48-6.334-.982-1.266-2.555-1.897-4.714-1.897-1.853 0-3.274.721-4.257 2.164-.985 1.44-1.477 3.476-1.477 6.105 0 2.668.49 4.682 1.467 6.04.977 1.359 2.414 2.039 4.306 2.039zm6.325-.534h-.17c-1.463 2.12-3.646 3.183-6.555 3.183-2.73 0-4.856-.935-6.373-2.801-1.519-1.868-2.277-4.521-2.277-7.965 0-3.443.76-6.116 2.286-8.022 1.524-1.905 3.644-2.857 6.364-2.857 2.833 0 5.005 1.028 6.516 3.087h.248l-.133-1.505-.076-1.468v-8.498h3.162v29.648h-2.572l-.42-2.802m14.272 2.802-7.927-20.884h3.392l4.496 12.385c1.016 2.896 1.615 4.777 1.792 5.64h.152c.139-.672.583-2.068 1.323-4.181.745-2.117 2.412-6.73 5.002-13.844h3.392l-7.926 20.884h-3.696m20.673-2.23c1.968 0 3.514-.54 4.64-1.62 1.122-1.08 1.685-2.59 1.685-4.534v-1.887l-3.163.134c-2.514.09-4.328.478-5.44 1.17-1.112.695-1.666 1.77-1.666 3.23 0 1.145.345 2.015 1.04 2.611.69.596 1.66.896 2.904.896zm7.145 2.23-.63-2.974h-.151c-1.043 1.31-2.08 2.195-3.116 2.658-1.035.465-2.328.697-3.878.697-2.07 0-3.693-.535-4.866-1.601-1.176-1.067-1.764-2.586-1.764-4.553 0-4.218 3.373-6.427 10.118-6.631l3.544-.115v-1.296c0-1.638-.352-2.849-1.058-3.628-.703-.784-1.832-1.173-3.382-1.173-1.74 0-3.71.533-5.906 1.6l-.972-2.42a14.971 14.971 0 0 1 3.384-1.314 14.567 14.567 0 0 1 3.685-.476c2.49 0 4.333.552 5.536 1.657 1.198 1.105 1.8 2.877 1.8 5.316v14.253h-2.344m23.15 0v-13.51c0-1.7-.387-2.973-1.163-3.81-.776-.839-1.986-1.257-3.638-1.257-2.187 0-3.787.59-4.801 1.77-1.016 1.182-1.526 3.131-1.526 5.851v10.956h-3.162v-20.884h2.572l.514 2.859h.152c.648-1.03 1.558-1.827 2.725-2.39 1.168-.566 2.472-.849 3.907-.849 2.515 0 4.407.607 5.677 1.818 1.272 1.214 1.906 3.154 1.906 5.822v13.624h-3.163m18.006.381c-3.025 0-5.362-.932-7.024-2.793-1.654-1.859-2.484-4.492-2.484-7.896 0-3.493.84-6.193 2.523-8.099 1.685-1.905 4.083-2.857 7.194-2.857 1.004 0 2.006.108 3.011.323 1.004.216 1.79.472 2.363.763l-.972 2.686c-.7-.28-1.462-.512-2.287-.697-.825-.182-1.557-.275-2.19-.275-4.244 0-6.364 2.705-6.364 8.117 0 2.567.516 4.535 1.553 5.907 1.035 1.372 2.567 2.057 4.6 2.057 1.74 0 3.525-.375 5.354-1.124v2.801c-1.396.724-3.157 1.087-5.277 1.087m18.196-18.997c-1.676 0-3.014.547-4.012 1.639-.996 1.09-1.584 2.605-1.761 4.534h10.917c0-1.994-.443-3.522-1.334-4.58-.889-1.062-2.158-1.593-3.81-1.593zm.857 18.997c-3.087 0-5.523-.94-7.308-2.82-1.784-1.881-2.676-4.492-2.676-7.832 0-3.366.83-6.04 2.486-8.02 1.66-1.982 3.883-2.973 6.68-2.973 2.615 0 4.686.86 6.21 2.58 1.525 1.723 2.286 3.993 2.286 6.813v2h-14.384c.062 2.454.682 4.312 1.858 5.583 1.173 1.272 2.828 1.905 4.963 1.905 2.248 0 4.472-.47 6.669-1.41v2.82c-1.12.482-2.176.831-3.172 1.038-.999.212-2.201.316-3.612.316m26.542-6.078c0 1.942-.724 3.442-2.172 4.495-1.448 1.054-3.481 1.583-6.097 1.583-2.768 0-4.93-.439-6.479-1.316v-2.933c1.004.508 2.08.91 3.231 1.2 1.15.292 2.257.438 3.324.438 1.652 0 2.92-.264 3.81-.792.891-.525 1.334-1.329 1.334-2.409 0-.813-.35-1.508-1.059-2.088-.703-.577-2.08-1.26-4.124-2.046-1.942-.724-3.322-1.356-4.145-1.895-.816-.541-1.427-1.155-1.83-1.84-.397-.685-.598-1.505-.598-2.459 0-1.7.692-3.045 2.077-4.03 1.386-.983 3.283-1.475 5.698-1.475 2.247 0 4.443.456 6.591 1.37l-1.124 2.574c-2.096-.864-3.996-1.296-5.697-1.296-1.5 0-2.63.233-3.392.705-.761.471-1.142 1.12-1.142 1.943 0 .559.141 1.035.43 1.43.283.394.746.767 1.38 1.123.634.358 1.854.872 3.658 1.544 2.477.9 4.151 1.81 5.022 2.724.868.915 1.304 2.064 1.304 3.45"/>
</svg>
