<svg xmlns="http://www.w3.org/2000/svg" width="200" height="128">
	<path d="M103.1 61.17V48h3v5.16h5V48h3v13.17h-3v-5.36h-5v5.36zm16.74 0V50.66h-3.59V48h10.24v2.64h-3.66v10.53zm11.45 0V50.66h-3.59V48h10.24v2.64h-3.66v10.53zm8.71 0V48h4.69c3.37 0 4.77 1.54 4.77 4.44a4.1 4.1 0 0 1-4.46 4.49h-2v4.24zm3-6.72h1.57c1.32 0 1.85-.65 1.85-1.87s-.58-2-1.85-2H143zM114 78c-1.19 2-2.73 3-5.65 3-3.57 0-6-2.47-6-6.85s2.41-6.83 6.43-6.83a5.41 5.41 0 0 1 5.36 3.33L111.16 72a2.48 2.48 0 0 0-2.54-2c-2 0-3.19 1.58-3.19 4.22s1.07 4.11 3.23 4.11a2.89 2.89 0 0 0 2.75-1.88zm2.27 2.7V67.55h3v5.15h5v-5.15h3V80.7h-3v-5.36h-5v5.36zm23.46 0h-8.82V67.55h8.82v2.63h-5.79v2.61H139v2.53h-5.09v2.74h5.79zm13.79-2.7c-1.18 2-2.72 3-5.65 3-3.57 0-6-2.47-6-6.85s2.41-6.83 6.43-6.83a5.41 5.41 0 0 1 5.36 3.33L150.71 72a2.49 2.49 0 0 0-2.55-2c-2 0-3.19 1.58-3.19 4.22s1.07 4.11 3.24 4.11a2.89 2.89 0 0 0 2.79-1.92zm9.66 2.7-3.55-5.36h-.78v5.36h-3V67.55h3v5.15h.8l3.26-5.15h3.48l-4.15 6.36 4.56 6.79z"/>
	<path fill="#5dfff5" d="M29.11 42.18v39.41h54.56V42.18zm24 28.53-8-8 2.14-2.15 5.83 5.83 12.3-12.3 2.15 2.15zM20 86.17h72.75v3.03H20z"/>
</svg>
