<svg xmlns="http://www.w3.org/2000/svg" width="200" height="128">
	<path fill="#06376d" d="M169.8 60.26h-4c-.59 0-.71.12-.71.71v4.77h-10.65a8.74 8.74 0 0 0-1.7.14 7.45 7.45 0 0 0-5.85 7.31v7.89a8.35 8.35 0 0 0 .17 1.66 7.4 7.4 0 0 0 7.16 5.81h8.93a7.34 7.34 0 0 0 7.33-7.24V60.93c.02-.54-.11-.66-.68-.67zm-4.72 15.82v5a3.72 3.72 0 0 1-.72 2.3 1.65 1.65 0 0 1-1.4.69h-8.18a2.1 2.1 0 0 1-2.29-1.8 3.74 3.74 0 0 1-.13-.94v-8.47a4 4 0 0 1 .38-1.47 1.87 1.87 0 0 1 1.91-1.2h9.89c.43 0 .54.12.54.54-.02 1.79 0 3.57 0 5.35zm-48.77-5.67a7.48 7.48 0 0 0-7-4.68c-3.38.06-6.77 0-10.15 0-.37 0-.48-.1-.47-.47v-4.3c0-.58-.14-.71-.71-.72H94c-.69 0-.8.11-.8.79v26.83c0 .59.11.7.71.7h3.89c.8 0 .85 0 .85-.86v-17c0-.54 0-.54.55-.54h10a1.8 1.8 0 0 1 1.59.82 4.1 4.1 0 0 1 .62 2.42v14.36c0 .67.08.75.74.75h4c.64 0 .73-.09.73-.72V73.14a7.31 7.31 0 0 0-.57-2.73zM86.6 73.26a20.65 20.65 0 0 0-.06-5A17.93 17.93 0 0 0 85 62.77a17.91 17.91 0 0 0-19.23-10.61l-1.28.2c0 .17 0 .27.07.38.37 1.28.73 2.56 1.1 3.85.27 1 .27 1 1.29.9a14.3 14.3 0 0 1 5.25.51 13 13 0 0 1 7.25 5.77 13.78 13.78 0 0 1 2.07 8.16 8.35 8.35 0 0 1-.52 2.7l-5.9-1.94C76.56 77.84 78 82.9 79.42 88l12.23-9.84-5.48-1.83c.15-1.04.32-2.05.43-3.07zm57.02-6.79c0-.63-.1-.72-.74-.73H139c-.77 0-.82.06-.82.84v14.19a4.37 4.37 0 0 1-.43 2.19 1.92 1.92 0 0 1-1.83 1.13h-8.35a1.66 1.66 0 0 1-1.45-.74 3.4 3.4 0 0 1-.67-2.11V66.5c0-.65-.1-.75-.74-.76h-4c-.54 0-.64.1-.64.64v14.86a6.71 6.71 0 0 0 1.02 3.76 7.13 7.13 0 0 0 6.19 3.56h9.15a7.42 7.42 0 0 0 2.47-.48 7.35 7.35 0 0 0 4.71-7v-7zm35.69-.73h-4c-.64 0-.71.09-.71.74v21.4c0 .59.09.68.68.68h4c.59 0 .7-.11.7-.71V66.44c.02-.59-.07-.69-.67-.7zm-4.15-.97h4.26c.42 0 .59-.17.6-.58v-3.34a.52.52 0 0 0-.59-.59h-4.26c-.43 0-.58.16-.58.58v3.34c0 .44.14.59.57.59z"/>
	<path fill="#064d86" d="M40.38 83.8h26.97L54.03 56.84 40.38 83.8z"/>
	<path fill="#315b87" d="m57.1 50.77-3.07 6.07L67.35 83.8H40.38l-2.45 4.84h37.88L57.1 50.77z"/>
	<path fill="#0db1f9" d="M26.29 59.62A13.15 13.15 0 0 1 29 55.49a11.91 11.91 0 0 1 4.27-3c.3-.12.42 0 .51.25.44 1.49.9 3 1.36 4.46.14.44.29.87.45 1.37.12-.14.18-.19.23-.26l2.06-2.73 4.55-6.07c.78-1 1.55-2.06 2.34-3.09.19-.26.18-.41-.15-.51l-1.34-.46L38 43.72l-6.56-2.2-1-.3a3 3 0 0 0 .05.5q.74 2.43 1.49 4.86a.41.41 0 0 1-.23.57c-1.16.63-2.33 1.24-3.44 1.94a16.87 16.87 0 0 0-4.91 4.76 18 18 0 0 0-2.42 5 20.38 20.38 0 0 0-.89 4.82 21.55 21.55 0 0 0 .3 5.61 20.11 20.11 0 0 0 1.5 4.45A22 22 0 0 0 25 78.48c.29.33.61.64.89.94a.54.54 0 0 0 .14-.07c1-1.32 2-2.63 3-4a.48.48 0 0 0-.06-.41c-.62-.91-1.29-1.78-1.86-2.71a13 13 0 0 1-1.78-5.08 14.13 14.13 0 0 1 .28-5.26 20.43 20.43 0 0 1 .68-2.27zm100.83-4.06a1.85 1.85 0 0 0-1.77-1.16h-2.59a1.74 1.74 0 0 0-.92.3 2.49 2.49 0 0 0-1 2.12v6.47c0 1.24-.19 1.09 1.16 1.11.31 0 .43-.13.42-.43v-1.59c0-.36.1-.49.47-.48h2.55a1.77 1.77 0 0 0 .79-.19 2.36 2.36 0 0 0 1.26-2.19v-2.67a3.28 3.28 0 0 0-.37-1.29zm-1.27 4.11c0 .6-.26.77-.85.77h-2.17c-.35 0-.47-.12-.46-.46v-3.17c0-.73.23-.9 1-.9H125c.61 0 .84.16.87.76.03 1 .03 2-.02 3zm-6.31-1.57c-.36-1.69-.72-3.37-1.06-5.06a.53.53 0 0 0-.62-.47h-2.29a.49.49 0 0 0-.57.43c-.22 1.13-.46 2.25-.7 3.38-.32 1.52-.65 3-1 4.56-.06.29-.08.58-.13.88.32 0 .63 0 .94.08s.6-.18.67-.56c.11-.57.26-1.14.36-1.71 0-.24.14-.34.38-.34h2.38a.51.51 0 0 1 .35.29c.15.52.25 1 .37 1.58.15.71.14.71.89.71h.17c.59 0 .61 0 .5-.57-.18-1.03-.42-2.12-.64-3.2zm-1.9-.35h-2l.53-2.53c0-.26.1-.52.14-.78s.11-.36.36-.36.48 0 .55.3c.21 1 .43 2.07.63 3.1a.34.34 0 0 1-.21.27zm37.36 3.4c0-.71 0-.71-.73-.71h-3.09a.69.69 0 0 1-.67-.83c0-.44.4-.2.61-.26a1 1 0 0 1 .25 0h3.18c.22 0 .45 0 .44-.31 0-1 0-2-.12-3a2 2 0 0 0-2-1.62H151a1.89 1.89 0 0 0-2 1.58 26.67 26.67 0 0 0-.17 3.23 4.49 4.49 0 0 0 .21 1.31 2 2 0 0 0 1.91 1.4h3.17c.88-.01.82.06.88-.79zM150.43 57c0-.94.19-1.11 1.12-1.11a7.47 7.47 0 0 1 1.16 0c.2 0 .5.19.54.34a5.7 5.7 0 0 1 .09 1.31c0 .06-.2.17-.32.18h-1.12a10.61 10.61 0 0 1-1.13 0c-.12 0-.26-.19-.32-.32a.92.92 0 0 1-.02-.4zm-18.67-2.59H129c-1.14 0-1-.18-1 1 0 .37.13.49.49.48h3a3 3 0 0 1 .42 0 .69.69 0 0 1 .5.8c0 .38-.32.28-.53.28H130a1.73 1.73 0 0 0-1.21.47 2.86 2.86 0 0 0-.58 3.23 2 2 0 0 0 2 1.23 7.3 7.3 0 0 1 1.55 0 2.21 2.21 0 0 0 2.24-2.1v-3.29a2.09 2.09 0 0 0-2.24-2.1zm-.79 6a5.73 5.73 0 0 1-.83 0 .74.74 0 0 1-.44-.24 1.49 1.49 0 0 1 0-1.39.71.71 0 0 1 .48-.25h1.87c.26 0 .39.12.38.38.02 1.69-.14 1.54-1.43 1.52zM148 56.62a2.17 2.17 0 0 0-2.29-2.22 18.31 18.31 0 0 1-2 0c-.9 0-.81.1-.83-.84 0-1.15.15-1-1-1-.44 0-.54.15-.53.56V61c0 1.08-.12 1 1 1 .55 0 .56 0 .57-.55v-4.92c0-.41.11-.58.54-.56h2c.67 0 1 .18 1 1v3.92c0 1.31-.21 1.1 1.19 1.12.28 0 .4-.11.4-.4-.05-1.71-.05-3.35-.05-4.99zm-10.76-.71h2.63c1.11 0 1.1 0 1-1.11 0-.29-.13-.4-.41-.39h-3.5a1.69 1.69 0 0 0-1.7.92 4.26 4.26 0 0 0-.46 1.57 17.62 17.62 0 0 0 0 2.41 4.68 4.68 0 0 0 .26 1.34 2 2 0 0 0 1.87 1.35c1-.05 2 0 3 0s.95.17 1-1c0-.39-.14-.52-.51-.51h-3.13c-.58 0-.82-.18-.84-.74v-3c-.01-.67.21-.84.79-.84zM29.48 83.8h10.9l13.65-26.96-5.38-10.91L29.48 83.8z"/>
</svg>
