<svg xmlns="http://www.w3.org/2000/svg" xmlns:xlink="http://www.w3.org/1999/xlink" viewBox="-19.4 -6.4 1944.8 572.8">
	<defs>
		<radialGradient id="未命名的渐变_8" cx="517.083" cy="1611.778" r="8.044" gradientTransform="matrix(-65.4707 -.00004 -.00004 65.57562 35444.213 -105477.001)" gradientUnits="userSpaceOnUse">
			<stop offset="0" stop-color="#fdb913"/>
			<stop offset="1" stop-color="#ed1c24"/>
		</radialGradient>
		<radialGradient id="未命名的渐变_8-2" cx="517.083" cy="1611.779" r="8.044" gradientTransform="matrix(-65.47097 .00004 .00004 65.57589 35502.857 -105395.14)" xlink:href="#未命名的渐变_8"/>
		<radialGradient id="未命名的渐变_8-3" cx="517.084" cy="1611.779" r="8.044" gradientTransform="matrix(-65.47138 0 0 65.5763 35516.357 -105348.083)" xlink:href="#未命名的渐变_8"/>
		<radialGradient id="未命名的渐变_8-4" cx="517.084" cy="1611.779" r="8.044" gradientTransform="matrix(-65.47258 .00004 .00004 65.5775 35428.924 -105442.783)" xlink:href="#未命名的渐变_8"/>
		<radialGradient id="未命名的渐变_8-5" cx="517.083" cy="1611.778" r="8.044" gradientTransform="matrix(-65.47044 -.00008 -.00008 65.57535 35482.636 -105369.842)" xlink:href="#未命名的渐变_8"/>
		<radialGradient id="未命名的渐变_8-6" cx="517.084" cy="1611.779" r="8.044" gradientTransform="matrix(-65.47117 .00003 .00004 65.57609 35455.581 -105407.908)" xlink:href="#未命名的渐变_8"/>
		<radialGradient id="未命名的渐变_8-7" cx="517.083" cy="1611.778" r="8.044" gradientTransform="matrix(-65.46991 0 .00001 65.57483 35482.101 -105505.565)" xlink:href="#未命名的渐变_8"/>
		<radialGradient id="未命名的渐变_8-8" cx="516.187" cy="1611.076" r="8.044" gradientTransform="matrix(-61.98642 -.00005 -.00005 62.08576 33626.628 -99789.439)" xlink:href="#未命名的渐变_8"/>
		<radialGradient id="未命名的渐变_16" cx="539.146" cy="1634.245" r="8.044" gradientTransform="matrix(65.4708 .00004 .00004 -65.57572 -33859.878 107486.99)" gradientUnits="userSpaceOnUse">
			<stop offset="0" stop-color="#0097dc"/>
			<stop offset="1" stop-color="#17479e"/>
		</radialGradient>
		<radialGradient id="未命名的渐变_16-2" cx="539.146" cy="1634.245" r="8.044" gradientTransform="matrix(65.47093 .00006 .00006 -65.57585 -33917.367 107405.097)" xlink:href="#未命名的渐变_16"/>
		<radialGradient id="未命名的渐变_16-3" cx="539.146" cy="1634.245" r="8.044" gradientTransform="matrix(65.47157 -.00014 -.00014 -65.57649 -33930.166 107358.618)" xlink:href="#未命名的渐变_16"/>
		<radialGradient id="未命名的渐变_16-4" cx="539.145" cy="1634.245" r="8.044" gradientTransform="matrix(65.47298 .00004 .00004 -65.5779 -33843.1 107453.566)" xlink:href="#未命名的渐变_16"/>
		<radialGradient id="未命名的渐变_16-5" cx="539.146" cy="1634.245" r="8.044" gradientTransform="matrix(65.47044 .00005 .00004 -65.57535 -33896.753 107379.966)" xlink:href="#未命名的渐变_16"/>
		<radialGradient id="未命名的渐变_16-6" cx="539.146" cy="1634.245" r="8.044" gradientTransform="matrix(65.47159 .00004 .00004 -65.57652 -33869.644 107418.748)" xlink:href="#未命名的渐变_16"/>
		<radialGradient id="未命名的渐变_16-7" cx="539.146" cy="1634.245" r="8.044" gradientTransform="matrix(65.46973 0 -.00001 -65.57465 -33895.381 107515.53)" xlink:href="#未命名的渐变_16"/>
		<radialGradient id="未命名的渐变_16-8" cx="539.753" cy="1634.544" r="8.044" gradientTransform="matrix(61.98646 -.00006 -.00006 -62.0858 -32056.253 101783.616)" xlink:href="#未命名的渐变_16"/>
		<clipPath id="clip-path">
			<path d="M1496.516 65.566c-31.163 1.448-55.578 21.655-54.5 45.137a34.055 34.055 0 0 0 6.234 17.834 155.163 155.163 0 0 1 104.569-9.967 33.293 33.293 0 0 0 2.075-13.048c-1.038-22.604-25.291-40.029-54.903-40.029q-1.725 0-3.475.073" class="cls-1"/>
		</clipPath>
		<clipPath id="clip-path-2">
			<path d="M1307.008 253.08c-28.525 15.597-43.32 43.543-33.022 62.44 10.296 18.896 41.758 21.582 70.291 5.985a84.418 84.418 0 0 0 20.191-15.293 154.657 154.657 0 0 1-3.08-60.308 49.013 49.013 0 0 0-17.336-2.936c-11.568 0-24.584 3.314-37.044 10.111" class="cls-1"/>
		</clipPath>
		<clipPath id="clip-path-3">
			<path d="M1181.918 313.291c-30.447 14.4-48.322 40.511-39.94 58.306 8.398 17.81 39.892 20.56 70.34 6.154 30.44-14.408 48.322-40.512 39.94-58.314-4.778-10.12-17.022-15.373-32.298-15.373-11.584 0-24.905 3.017-38.042 9.227" class="cls-1"/>
		</clipPath>
		<clipPath id="clip-path-4">
			<path d="M1382.986 34.732c-31.228 8.897-51.901 32.386-46.198 52.473 5.703 20.063 35.636 29.12 66.848 20.224 31.212-8.898 51.894-32.387 46.199-52.466-4.223-14.833-21.671-23.65-43.094-23.65a87.242 87.242 0 0 0-23.755 3.419" class="cls-1"/>
		</clipPath>
		<clipPath id="clip-path-5">
			<path d="M1223.283 218.135c-28.952 17.255-44.51 44.533-34.776 60.904 9.75 16.37 41.09 15.67 70.018-1.57 28.935-17.254 44.5-44.525 34.743-60.903-4.698-7.908-14.447-11.833-26.522-11.833-12.92 0-28.517 4.489-43.464 13.402" class="cls-1"/>
		</clipPath>
		<clipPath id="clip-path-6">
			<path d="M1304.683 122.817c-29.273 14.866-44.944 42.764-35.041 62.288 9.886 19.531 41.637 23.304 70.886 8.446 29.242-14.874 44.92-42.771 35.018-62.295-5.817-11.487-19.186-17.529-35.17-17.52-11.19 0-23.65 2.96-35.693 9.081" class="cls-1"/>
		</clipPath>
		<clipPath id="clip-path-7">
			<path d="M1558.007 136.026c-13.683 11.89-8.462 40.383 11.673 63.639 20.127 23.272 47.541 32.507 61.233 20.626 13.692-11.882 8.446-40.367-11.664-63.631-14.183-16.386-31.969-25.814-46.038-25.806-5.904 0-11.157 1.665-15.204 5.172" class="cls-1"/>
		</clipPath>
		<clipPath id="clip-path-8">
			<path d="M1411.914 167.576c-26.015 17.424-35.347 49.191-20.827 70.951 14.52 21.76 47.365 25.284 73.397 7.851 26.04-17.407 35.362-49.175 20.842-70.943-8.309-12.452-22.628-18.928-38.226-18.928a63.694 63.694 0 0 0-35.186 11.07" class="cls-1"/>
		</clipPath>
		<clipPath id="clip-path-9">
			<path d="M1514.294 422.79a154.5 154.5 0 0 1-38.54-4.85 33.078 33.078 0 0 0-2.076 13.048c1.078 23.498 27.206 41.396 58.37 39.964 31.172-1.432 55.586-21.655 54.5-45.129a33.98 33.98 0 0 0-6.226-17.842 153.879 153.879 0 0 1-66.028 14.81" class="cls-1"/>
		</clipPath>
		<clipPath id="clip-path-10">
			<path d="M1684.287 215.014a84.428 84.428 0 0 0-20.191 15.292 154.557 154.557 0 0 1 4.714 37.961 156.247 156.247 0 0 1-1.625 22.347c14.52 5.51 35.105 3.355 54.38-7.175 28.525-15.59 43.31-43.544 33.022-62.432-5.792-10.635-18.293-16.13-33.191-16.13-11.584 0-24.624 3.323-37.109 10.137" class="cls-1"/>
		</clipPath>
		<clipPath id="clip-path-11">
			<path d="M1816.254 158.776c-30.447 14.407-48.33 40.503-39.948 58.313 8.399 17.786 39.884 20.537 70.34 6.154 30.44-14.408 48.33-40.52 39.94-58.322-4.778-10.127-17.022-15.38-32.298-15.38-11.576 0-24.905 3.024-38.034 9.235" class="cls-1"/>
		</clipPath>
		<clipPath id="clip-path-12">
			<path d="M1624.928 429.09c-31.212 8.889-51.894 32.394-46.199 52.465 5.72 20.07 35.653 29.12 66.849 20.231 31.228-8.897 51.902-32.378 46.198-52.457-4.215-14.834-21.67-23.658-43.093-23.65a87.225 87.225 0 0 0-23.755 3.41" class="cls-1"/>
		</clipPath>
		<clipPath id="clip-path-13">
			<path d="M1770.04 259.064c-28.928 17.24-44.494 44.518-34.744 60.888 9.734 16.378 41.059 15.686 69.986-1.569 28.952-17.247 44.51-44.525 34.776-60.887-4.706-7.924-14.456-11.85-26.538-11.85-12.928 0-28.526 4.497-43.48 13.418" class="cls-1"/>
		</clipPath>
		<clipPath id="clip-path-14">
			<path d="M1688.044 342.967c-29.241 14.874-44.927 42.764-35.025 62.303 9.886 19.524 41.621 23.305 70.87 8.43 29.266-14.865 44.944-42.755 35.042-62.279-5.824-11.495-19.202-17.536-35.194-17.528-11.19 0-23.659 2.952-35.693 9.074" class="cls-1"/>
		</clipPath>
		<clipPath id="clip-path-15">
			<path d="M1397.66 316.227c-13.692 11.882-8.455 40.375 11.656 63.64 20.142 23.271 47.566 32.506 61.241 20.617 13.692-11.882 8.471-40.367-11.664-63.631-14.174-16.378-31.952-25.806-46.014-25.806-5.912 0-11.173 1.665-15.22 5.18" class="cls-1"/>
		</clipPath>
		<clipPath id="clip-path-16">
			<path d="M1564.08 290.14c-26.03 17.416-35.362 49.183-20.834 70.943 14.52 21.76 47.389 25.275 73.413 7.867 26.007-17.424 35.338-49.191 20.818-70.951-8.31-12.453-22.62-18.936-38.226-18.936a63.628 63.628 0 0 0-35.17 11.076" class="cls-1"/>
		</clipPath>
		<style>
			.cls-1{fill:none}.cls-2{fill:#17479e}
		</style>
	</defs>
	<path d="m960.113 209.277-13.708 15.936v-54.71h94.594v-24.18H808.332v24.18h91.89v191.279h46.183V234.287c46.697 17.762 71.522 51.814 71.522 51.814l26.426-37.76s-37.173-35.428-84.24-39.064m-254.8 34.951h99.573v-23.674H704.533c.177-19.894.643-40.455.555-48.813h78.907v-24.19H582.613v24.19h83.25c-.265 18.34-.925 34.76-2.952 48.813H561.714v23.674h95.703c-20.634 61.387-95.736 80.613-95.736 80.613s14.657 6.797 27.914 34.373c0 0 63.293-22.098 92.397-79.325.58-1.183 1.175-2.381 1.81-3.596 31.196 64.258 100.313 79.518 103.193 80.38 15.863-24.15 30.175-33.948 30.175-33.948s-80.645-12.774-111.857-78.497M357.082 362.316v-166.59c19.58-31.783 21.301-57.22 21.301-57.22h-39.015c-10.104 49.513-64.153 99.87-64.153 99.87s3.981 7.498 8.937 28.293a190.298 190.298 0 0 0 30.11-23.176v118.823zM379.62 191.75v24.254h82.51v113.739c0 10.675-8.631 10.32-8.631 10.32h-36.127a221.024 221.024 0 0 0 8.51 22.01h47.374c32.354 0 32.322-27.464 32.322-27.464V216.005h37.486V191.75h-37.486v-52.167H462.13v52.167z" class="cls-2"/>
	<path d="M401.954 235.233 384.465 249.8c29.957 21.117 31.703 56.81 31.703 56.81l31.148-20.16s-11.954-35.628-45.362-51.218m-309.35-35.917 12.09-20.457c-7.119-41.251-52.907-52.77-52.907-52.77l-20.336 33.585s44.026 7.891 61.153 39.642m-7.588 59.563 9.532-17.996C79.988 194.725 37.04 191.87 37.04 191.87l-18.695 33.634s37.149-3.588 66.672 33.376m25.97 22.177-18.3-15.357s-16.049 45.612-71.434 72.27l35.87 24.898c49.505-33.585 53.865-81.811 53.865-81.811m11.881-140.069.008 184.055c0 35.467 36.779 34.405 36.779 34.405h109.926v-23.385h-92.293c-11.133 0-10.176-9.395-10.176-9.395V166.769h102.469v-25.782zm146.711 327.28-236.785-8.47 236.785-8.471v16.941zm153.287 59.178h-26.772V468.2H340.66v59.246h-26.771V404.383h26.771v46.939h55.434v-46.939h26.772v123.062zm115.57 0h-25.058V515.66q-13.671 13.889-32.467 13.885-22.986 0-30.005-16.346-2.848-6.673-2.84-23.739v-49.915h25.058v50.277q0 11.44 3.033 16.515 4.573 7.385 15.38 7.385 14.239 0 19.371-10.9c1.641-3.387 2.47-8.729 2.47-15.992v-47.285h25.058zm50.928-114.967a12.559 12.559 0 0 1-4.175 9.404 14.16 14.16 0 0 1-10.055 3.958 14.82 14.82 0 0 1-10.168-3.79 11.68 11.68 0 0 1-4.272-9.05 13.07 13.07 0 0 1 3.99-9.934q3.982-3.777 10.635-3.773a14.063 14.063 0 0 1 10.063 3.773 12.439 12.439 0 0 1 3.982 9.412m-1.705 114.97h-25.066v-87.901h25.066zm80.013-125.178-4.4 11.44a33.556 33.556 0 0 0-9.935-1.593q-9.75 0-12.244 7.747-.941 2.461-.95 9.307v10.377h22.976v11.946h-22.975v75.954h-24.68v-75.954h-15.38v-11.946h15.38v-8.446q0-15.108 7.602-22.854 9.665-9.835 25.621-9.839a49.269 49.269 0 0 1 18.985 3.862m96.356 125.174H738.97V515.66q-13.672 13.889-32.467 13.885-22.987 0-29.998-16.346-2.848-6.673-2.847-23.739v-49.915h25.058v50.277q0 11.44 3.04 16.515 4.562 7.385 15.373 7.385 14.25 0 19.37-10.9c1.642-3.387 2.47-8.729 2.47-15.992v-47.285h25.059zm44.306-59.178 236.801-8.47-236.801-8.471v16.941z" class="cls-2"/>
	<g clip-path="url(#clip-path)">
		<path fill="url(#未命名的渐变_8)" d="M1433.306 46.513h129.421v101.006h-129.421z" transform="rotate(-21.853 1498.016 97.015)"/>
	</g>
	<g clip-path="url(#clip-path-2)">
		<path fill="url(#未命名的渐变_8-2)" d="M1249.79 227.594h128.577v124.883H1249.79z" transform="rotate(-21.853 1314.078 290.035)"/>
	</g>
	<g clip-path="url(#clip-path-3)">
		<path fill="url(#未命名的渐变_8-3)" d="M1121.764 283.585h150.706v129.052h-150.706z" transform="rotate(-21.853 1197.118 348.111)"/>
	</g>
	<g clip-path="url(#clip-path-4)">
		<path fill="url(#未命名的渐变_8-4)" d="M1319.733 11.207h147.148v125.225h-147.148z" transform="rotate(-21.853 1393.307 73.82)"/>
	</g>
	<g clip-path="url(#clip-path-5)">
		<path fill="url(#未命名的渐变_8-5)" d="M1166.362 184.866h149.076v130.409h-149.076z" transform="rotate(-21.853 1240.9 250.07)"/>
	</g>
	<g clip-path="url(#clip-path-6)">
		<path fill="url(#未命名的渐变_8-6)" d="M1246.634 93.733h151.919v134.67h-151.919z" transform="rotate(-21.853 1322.593 161.068)"/>
	</g>
	<g clip-path="url(#clip-path-7)">
		<path fill="url(#未命名的渐变_8-7)" d="M1529.069 115.823h130.791v131.372h-130.791z" transform="rotate(-21.853 1594.464 181.509)"/>
	</g>
	<g clip-path="url(#clip-path-8)">
		<path fill="url(#未命名的渐变_8-8)" d="M1360.731 137.008h154.951V283.31h-154.951z" transform="rotate(-22.492 1438.207 210.159)"/>
	</g>
	<g clip-path="url(#clip-path-9)">
		<path fill="url(#未命名的渐变_16)" d="M1465.584 389.048h129.934v102.27h-129.934z" transform="rotate(-21.853 1530.551 440.183)"/>
	</g>
	<g clip-path="url(#clip-path-10)">
		<path fill="url(#未命名的渐变_16-2)" d="M1650.734 189.4h127.502v122.203h-127.502z" transform="rotate(-21.853 1714.485 250.501)"/>
	</g>
	<g clip-path="url(#clip-path-11)">
		<path fill="url(#未命名的渐变_16-3)" d="M1756.095 129.06h150.71v129.048h-150.71z" transform="rotate(-21.853 1831.45 193.584)"/>
	</g>
	<g clip-path="url(#clip-path-12)">
		<path fill="url(#未命名的渐变_16-4)" d="M1561.684 405.564h147.145v125.218h-147.145z" transform="rotate(-21.853 1635.256 468.173)"/>
	</g>
	<g clip-path="url(#clip-path-13)">
		<path fill="url(#未命名的渐变_16-5)" d="M1713.133 225.781h149.072v130.414h-149.072z" transform="rotate(-21.853 1787.668 290.988)"/>
	</g>
	<g clip-path="url(#clip-path-14)">
		<path fill="url(#未命名的渐变_16-6)" d="M1630.01 313.89h151.929v134.68H1630.01z" transform="rotate(-21.853 1705.975 381.23)"/>
	</g>
	<g clip-path="url(#clip-path-15)">
		<path fill="url(#未命名的渐变_16-7)" d="M1368.713 296.024h130.791v131.372h-130.791z" transform="rotate(-21.853 1434.108 361.71)"/>
	</g>
	<g clip-path="url(#clip-path-16)">
		<path fill="url(#未命名的渐变_16-8)" d="M1512.884 259.563h154.947v146.294h-154.947z" transform="rotate(-22.492 1590.358 332.71)"/>
	</g>
</svg>
