<svg xmlns="http://www.w3.org/2000/svg" viewBox="-11.72 -11.72 609.44 260.94">
	<path fill="#254569" d="M152.147 122.822V.002h13.857v46.69c9.013-5.214 17.789-7.847 26.326-7.9 8.27 0 15.123 2.363 20.56 7.088 5.434 4.728 8.151 11.126 8.151 19.196v57.746h-13.858V64.688c0-8.98-5.485-13.47-16.454-13.47-7.687 0-15.928 2.966-24.725 8.9v62.704h-13.857m91.914-24.93v-56.63h13.858V98.4c0 4.607 2 8.17 6.001 10.688 4.001 2.52 8.679 3.777 14.03 3.777 5.406 0 10.095-1.258 14.07-3.777 3.975-2.517 5.962-6.081 5.962-10.688V41.262h13.86v56.63c0 8.496-3.49 15.186-10.468 20.07-6.979 4.886-14.799 7.329-23.462 7.329-8.665 0-16.473-2.418-23.425-7.249-6.952-4.83-10.426-11.55-10.426-20.15m91.436 24.93v-81.56h10.028l1.712 4.625c6.105-4.73 12.69-7.094 19.754-7.094 4.134 0 8.285.734 12.446 2.204 4.161 1.472 7.436 3.545 9.824 6.22 6.305-5.564 13.409-8.372 21.307-8.424 6.416 0 12.34 1.605 17.773 4.818 5.435 3.213 8.15 7.607 8.15 13.181v66.03h-13.859V63.11c0-7.983-4.712-11.945-14.138-11.893-5.88 0-11.044 1.809-15.492 5.428v66.176h-13.858V63.11c0-7.983-4.713-11.945-14.14-11.893-6.09 0-11.306 1.862-15.647 5.588v66.016h-13.86m127.915 0v-81.56h13.86v81.56zm0-101.792V8.605h13.86V21.03h-13.86m57.615 39.07c-5.436 5.921-8.153 13.235-8.153 21.942 0 8.709 2.717 16.023 8.153 21.943 5.436 5.922 12.66 8.881 21.675 8.881 8.908 0 16.108-2.96 21.597-8.88 5.488-5.92 8.232-13.235 8.232-21.944 0-8.707-2.744-16.021-8.232-21.942-5.489-5.921-12.689-8.881-21.597-8.881-9.015 0-16.24 2.96-21.675 8.88zm-9.796 52.686c-8.144-8.335-12.215-18.583-12.215-30.744 0-12.158 4.085-22.408 12.255-30.745 8.172-8.334 18.648-12.503 31.431-12.503 12.659 0 23.104 4.194 31.338 12.583 8.233 8.39 12.35 18.612 12.35 30.665 0 12.054-4.117 22.275-12.35 30.665-8.234 8.39-18.68 12.585-31.338 12.585-12.837 0-23.327-4.168-31.47-12.506M85.611 34.92c-5.23 0-9.487 4.252-9.487 9.482 0 5.23 4.258 9.488 9.488 9.488 5.232 0 9.488-4.257 9.488-9.488 0-5.23-4.256-9.482-9.488-9.482"/>
	<path fill="#254569" d="M85.615 67.037c-12.478 0-22.629-10.157-22.629-22.634s10.151-22.629 22.629-22.629c12.476 0 22.627 10.152 22.627 22.63S98.09 67.036 85.615 67.036zM60.322 77.996l-10.208-10.21a28.197 28.197 0 0 0 10.198-11.832 28.177 28.177 0 0 0 10.21 11.84zM35.006 67.037c-12.476 0-22.63-10.157-22.63-22.634s10.154-22.629 22.63-22.629c12.478 0 22.635 10.152 22.635 22.63S47.484 67.036 35.006 67.036zm77.497-15.665c.582-2.24.99-4.549.99-6.969 0-2.49-.432-4.858-1.048-7.156v-25.09l-2.915.324c-9.591 1.059-19.223 1.767-28.87 2.204a51.841 51.841 0 0 0-20.35-4.14 51.845 51.845 0 0 0-20.35 4.14c-9.647-.437-19.28-1.145-28.87-2.204l-2.915-.324v25.097c-.615 2.296-1.047 4.663-1.047 7.15 0 2.42.408 4.728.99 6.968C3.714 53.888.204 59.277.01 67.253c-.424 17.658 11.46 34.56 11.46 34.56 1.03-3.425 3.034-6.951 5.26-10.594a52.485 52.485 0 0 0 17.327 16.43c-.943.015-1.737.53-2.237 1.278-.51-.76-1.317-1.288-2.28-1.288h-.743c-1.553 0-2.819 1.3-2.819 2.9v9.105c0 1.6 1.266 2.9 2.82 2.9h.742c.963 0 1.77-.53 2.28-1.288.507.758 1.313 1.288 2.275 1.288h.751c.958 0 1.766-.527 2.276-1.283.507.756 1.312 1.283 2.271 1.283h.751c1.554 0 2.82-1.3 2.82-2.9v-7.86c5.436 1.928 11.257 3.03 17.345 3.03 6.089 0 11.91-1.103 17.346-3.03v7.86c0 1.6 1.266 2.9 2.82 2.9h.743c.96 0 1.767-.528 2.277-1.284.51.756 1.317 1.284 2.278 1.284h.75c.961 0 1.766-.529 2.274-1.286.508.757 1.313 1.286 2.274 1.286h.75c1.554 0 2.813-1.3 2.813-2.9v-9.106c0-1.6-1.259-2.9-2.812-2.9h-.75c-.962 0-1.767.53-2.275 1.287-.5-.747-1.294-1.261-2.236-1.276a52.478 52.478 0 0 0 17.328-16.432c2.226 3.642 4.23 7.171 5.26 10.597 0 0 11.887-16.903 11.462-34.56-.192-7.98-3.705-13.367-8.109-15.882"/>
	<path fill="#254569" d="M35.006 34.92c-5.23 0-9.482 4.253-9.482 9.483s4.252 9.488 9.482 9.488c5.23 0 9.488-4.257 9.488-9.488 0-5.23-4.259-9.482-9.488-9.482"/>
	<path fill="#ea232c" d="M268.785 164.576h9.83l-3.33-10.713c-.623-1.976-1.507-5.72-1.507-5.72h-.105s-.934 3.744-1.558 5.72zm1.094-23.505h7.8l13.103 37.18h-7.852l-2.496-7.903h-13.417l-2.444 7.904h-7.643l12.949-37.18m30.47 18.72c0-11.025 6.863-19.448 17.835-19.448 9.153 0 14.561 5.46 15.341 12.531h-7.49c-.674-3.744-3.482-6.188-7.851-6.188-6.864 0-10.14 5.72-10.14 13.104 0 7.593 3.952 13.053 10.192 13.053 4.42 0 7.541-2.653 8.01-6.552h7.383c-.208 3.276-1.612 6.448-4.108 8.788-2.548 2.392-6.136 3.952-11.285 3.952-10.452 0-17.888-8.061-17.888-19.24m43.42-3.953h.155c1.612-3.016 3.432-4.576 6.552-4.576.78 0 1.248.052 1.664.208v6.188h-.156c-4.628-.468-7.956 1.976-7.956 7.592v13h-7.073v-26.676h6.813v4.264m30.836 9.1c0-5.199-2.444-8.736-6.76-8.736-4.368 0-6.76 3.537-6.76 8.737 0 5.199 2.392 8.684 6.76 8.684 4.316 0 6.76-3.485 6.76-8.684zm-20.696 0c0-7.956 5.668-14.092 13.936-14.092s13.937 6.136 13.937 14.093c0 7.956-5.67 14.092-13.937 14.092s-13.936-6.136-13.936-14.092m29.066-13.365h7.02l3.224 12.376a164.961 164.961 0 0 1 1.196 4.992h.104s.572-2.86 1.144-5.043l3.328-12.325h6.032l3.483 12.325c.572 2.235 1.25 5.043 1.25 5.043h.102s.626-2.808 1.198-4.992l3.38-12.376h6.863l-7.957 26.677h-6.448l-3.535-13.105a316.91 316.91 0 0 1-1.195-4.627h-.104s-.676 2.496-1.25 4.627l-3.64 13.105h-6.395l-7.8-26.677m58.76 13.521c0-5.097-1.664-8.529-6.188-8.529-3.9 0-5.877 3.432-5.877 8.373 0 5.148 2.03 8.164 5.668 8.164 4.213 0 6.397-3.12 6.397-8.008zm-19.24-.156c0-8.321 4.731-14.093 11.388-14.093 3.744 0 6.084 1.716 7.54 3.952h.156v-13.728h7.072v37.18h-6.812v-3.483h-.104c-1.56 2.548-4.212 4.264-7.956 4.264-6.709 0-11.284-5.46-11.284-14.092m29.638 1.82h7.384c.52 4.472 3.068 6.24 8.373 6.24 3.847 0 7.227-1.352 7.227-4.784 0-3.64-3.536-4.368-9.204-5.668-6.656-1.51-12.741-3.276-12.741-11.025 0-7.332 5.981-11.128 14.249-11.128 8.372 0 13.781 4.108 14.353 11.596h-7.228c-.417-3.744-3.328-5.616-7.177-5.616-4.056 0-6.708 1.716-6.708 4.368 0 3.016 2.6 3.9 8.113 5.096 7.643 1.664 13.884 3.484 13.884 11.492 0 7.54-6.085 11.753-14.457 11.753-10.088 0-15.809-4.472-16.068-12.324m32.916-15.185h3.691v-8.32h6.916v8.32h4.576v4.68h-4.576V170.4c0 1.976 1.092 2.652 2.652 2.652.884 0 2.081-.052 2.081-.052v5.2s-1.611.104-4.42.104c-3.433 0-7.229-1.352-7.229-6.396v-15.653h-3.691v-4.68m25.634 4.264h.156c1.612-3.016 3.433-4.576 6.551-4.576.78 0 1.248.052 1.666.208v6.188h-.158c-4.626-.468-7.954 1.976-7.954 7.592v13h-7.073v-26.676h6.812v4.264m11.44-4.264h7.072v26.677h-7.073zm0-10.504h7.072v6.344h-7.073v-6.344m21.736 25.012-3.068 3.173v8.996h-7.02v-37.18h7.02v20.59l9.464-10.087h8.475l-9.827 10.141 11.025 16.536h-8.581l-7.488-12.17"/>
	<path fill="#ea232c" d="M566.163 162.027h11.856c-.208-3.38-2.444-5.72-5.668-5.72-3.744 0-5.564 2.236-6.188 5.72zm-7.072 2.86c0-7.904 5.355-14.04 13.156-14.04 8.581 0 13.156 6.552 13.156 16.068h-19.345c.521 4.11 2.81 6.657 6.813 6.657 2.756 0 4.368-1.248 5.148-3.276h6.969c-.99 4.732-5.201 8.736-12.065 8.736-8.84 0-13.832-6.188-13.832-14.145m-191.458 45.89c0-11.024 6.866-19.448 17.837-19.448 9.152 0 14.56 5.46 15.34 12.531h-7.488c-.676-3.743-3.485-6.188-7.852-6.188-6.863 0-10.14 5.72-10.14 13.104 0 7.593 3.951 13.054 10.191 13.054 4.421 0 7.54-2.652 8.01-6.552h7.383c-.208 3.276-1.612 6.447-4.108 8.787-2.548 2.392-6.137 3.952-11.285 3.952-10.452 0-17.888-8.06-17.888-19.24m56.003 5.149c0-5.202-2.444-8.736-6.76-8.736-4.369 0-6.76 3.534-6.76 8.736 0 5.2 2.391 8.683 6.76 8.683 4.316 0 6.76-3.483 6.76-8.683zm-20.695 0c0-7.957 5.667-14.093 13.935-14.093s13.936 6.136 13.936 14.093c0 7.955-5.668 14.09-13.936 14.09s-13.935-6.135-13.935-14.09m31.145-13.366h6.812v3.59h.158c1.454-2.445 4.056-4.317 7.747-4.317 3.38 0 6.084 1.872 7.384 4.68h.104c1.82-2.911 4.628-4.68 8.008-4.68 5.616 0 8.788 3.64 8.788 9.465v17.94h-7.072v-16.745c0-3.015-1.508-4.577-4.108-4.577-2.964 0-4.784 2.29-4.784 5.826v15.495h-7.072v-16.744c0-3.015-1.508-4.577-4.107-4.577-2.862 0-4.784 2.29-4.784 5.826v15.495h-7.074V202.56m62.608 13.573c0-5.043-1.768-8.58-6.137-8.58-4.418 0-6.186 3.797-6.186 8.58 0 4.836 2.236 8.009 6.447 8.009 3.588 0 5.876-2.964 5.876-8.009zm-19.24-13.573h6.813v3.328h.156c1.716-2.338 4.211-4.055 7.851-4.055 7.072 0 11.596 5.773 11.596 14.093 0 8.631-4.68 14.091-11.544 14.091-3.744 0-6.187-1.508-7.695-3.796h-.104v11.752h-7.074V202.56m45.709 17.266v-4.005c-1.248.729-3.172 1.145-4.94 1.56-3.694.833-5.512 1.664-5.512 4.16 0 2.496 1.664 3.38 4.16 3.38 4.056 0 6.292-2.495 6.292-5.095zm-.052 6.447h-.106c-1.35 2.028-3.276 3.588-7.85 3.588-5.461 0-9.31-2.86-9.31-8.164 0-5.876 4.785-7.747 10.712-8.58 4.422-.624 6.448-.987 6.448-3.015 0-1.924-1.506-3.172-4.47-3.172-3.328 0-4.94 1.196-5.148 3.744h-6.293c.208-4.68 3.692-8.79 11.493-8.79 8.008 0 11.231 3.588 11.231 9.83v13.571c0 2.028.312 3.224.936 3.692v.26h-6.811c-.416-.52-.676-1.768-.832-2.964m18.094-20.073h.156c1.82-2.86 4.264-4.367 7.904-4.367 5.511 0 9.203 4.16 9.203 9.984v17.42h-7.071v-16.38c0-2.86-1.664-4.888-4.628-4.888-3.12 0-5.408 2.497-5.408 6.136v15.132h-7.073V202.56h6.917v3.64m22.203 26.21h2.496c2.808 0 3.952-1.457 3.952-3.64 0-1.457-.521-3.173-2.028-7.228l-7.176-18.982h7.436l3.952 12.014c.832 2.443 1.716 5.823 1.716 5.823h.104s.728-3.38 1.56-5.823l3.745-12.014h7.123l-9.308 27.353c-2.028 5.928-4.004 8.06-9.412 8.06h-4.16v-5.564"/>
</svg>
