<svg xmlns="http://www.w3.org/2000/svg" width="200" height="128">
    <path d="M61.031 62.845h26.176V40.6l-26.176 3.471zm-2.158 0V44.294L41.44 46.707V62.83zm0 2.346H41.44v15.66l17.422 2.636zm2.158 0v18.515l26.176 3.7V65.191z" fill="#20bdf0"/>
    <g fill="#666">
        <path d="M107.408 60.942h-1.244v-7.166q0-.849.1-2.078h-.03a6.667 6.667 0 0 1-.32 1.035l-3.65 8.209h-.611l-3.643-8.149a6.429 6.429 0 0 1-.32-1.095h-.03q.06.64.06 2.093v7.151h-1.203V50.26h1.654l3.277 7.449a9.382 9.382 0 0 1 .492 1.281h.045q.319-.879.514-1.311l3.344-7.419h1.565zM110.678 51.377a.774.774 0 0 1-.559-.223.755.755 0 0 1-.231-.566.782.782 0 0 1 .79-.8.793.793 0 0 1 .57.227.8.8 0 0 1 0 1.129.783.783 0 0 1-.57.233zm.6 9.565h-1.222v-7.628h1.222zM118.946 60.592a3.965 3.965 0 0 1-2.086.529 3.456 3.456 0 0 1-2.633-1.061 3.849 3.849 0 0 1-1-2.753 4.231 4.231 0 0 1 1.08-3.028 3.781 3.781 0 0 1 2.883-1.144 4.014 4.014 0 0 1 1.773.373v1.251a3.108 3.108 0 0 0-1.817-.6 2.457 2.457 0 0 0-1.919.839 3.18 3.18 0 0 0-.748 2.2 3.022 3.022 0 0 0 .7 2.115 2.423 2.423 0 0 0 1.888.775 3.062 3.062 0 0 0 1.877-.663zM124.771 54.551a1.49 1.49 0 0 0-.923-.246 1.56 1.56 0 0 0-1.308.737 3.412 3.412 0 0 0-.525 2.012v3.888h-1.221v-7.628h1.221v1.572h.03a2.665 2.665 0 0 1 .8-1.255 1.82 1.82 0 0 1 1.2-.451 2.007 2.007 0 0 1 .73.1zM129.084 61.121a3.537 3.537 0 0 1-2.7-1.069 3.958 3.958 0 0 1-1.009-2.834 4.124 4.124 0 0 1 1.05-3 3.772 3.772 0 0 1 2.838-1.081 3.422 3.422 0 0 1 2.663 1.051 4.164 4.164 0 0 1 .957 2.912 4.1 4.1 0 0 1-1.031 2.924 3.615 3.615 0 0 1-2.768 1.097zm.09-6.958a2.325 2.325 0 0 0-1.863.8 3.289 3.289 0 0 0-.685 2.208 3.111 3.111 0 0 0 .693 2.138 2.356 2.356 0 0 0 1.855.782 2.235 2.235 0 0 0 1.826-.765 3.329 3.329 0 0 0 .637-2.183 3.386 3.386 0 0 0-.637-2.2 2.226 2.226 0 0 0-1.826-.78zM134.373 60.666v-1.311a3.615 3.615 0 0 0 2.2.738q1.608 0 1.609-1.073a.927.927 0 0 0-.138-.517 1.376 1.376 0 0 0-.373-.377 2.872 2.872 0 0 0-.551-.294q-.316-.129-.682-.272a8.989 8.989 0 0 1-.89-.405 2.715 2.715 0 0 1-.64-.462 1.724 1.724 0 0 1-.388-.585 2.073 2.073 0 0 1-.13-.768 1.821 1.821 0 0 1 .246-.949 2.175 2.175 0 0 1 .655-.693 3.054 3.054 0 0 1 .935-.421 4.165 4.165 0 0 1 1.084-.142 4.384 4.384 0 0 1 1.773.343v1.237a3.452 3.452 0 0 0-1.937-.552 2.27 2.27 0 0 0-.618.079 1.508 1.508 0 0 0-.473.219 1.018 1.018 0 0 0-.306.34.888.888 0 0 0-.108.435 1.044 1.044 0 0 0 .108.5 1.11 1.11 0 0 0 .317.358 2.453 2.453 0 0 0 .507.283q.3.126.677.275a9.753 9.753 0 0 1 .909.4 3.16 3.16 0 0 1 .686.462 1.8 1.8 0 0 1 .435.592 1.9 1.9 0 0 1 .153.8 1.873 1.873 0 0 1-.25.983 2.138 2.138 0 0 1-.666.693 3.067 3.067 0 0 1-.961.41 4.771 4.771 0 0 1-1.14.134 4.328 4.328 0 0 1-2.043-.46zM144.5 61.121a3.537 3.537 0 0 1-2.7-1.069 3.958 3.958 0 0 1-1.009-2.834 4.124 4.124 0 0 1 1.05-3 3.772 3.772 0 0 1 2.838-1.081 3.422 3.422 0 0 1 2.663 1.051 4.164 4.164 0 0 1 .957 2.912 4.1 4.1 0 0 1-1.031 2.924 3.615 3.615 0 0 1-2.768 1.097zm.09-6.958a2.325 2.325 0 0 0-1.863.8 3.289 3.289 0 0 0-.685 2.208 3.111 3.111 0 0 0 .693 2.138 2.356 2.356 0 0 0 1.855.782 2.235 2.235 0 0 0 1.821-.767 3.329 3.329 0 0 0 .637-2.183 3.386 3.386 0 0 0-.637-2.2 2.226 2.226 0 0 0-1.825-.778zM153.741 50.722a1.63 1.63 0 0 0-.812-.2q-1.282 0-1.282 1.616v1.177h1.788v1.043h-1.788v6.585h-1.214v-6.586h-1.3v-1.043h1.3v-1.236a2.57 2.57 0 0 1 .693-1.9 2.341 2.341 0 0 1 1.728-.7 2.382 2.382 0 0 1 .887.135zM158.56 60.868a2.367 2.367 0 0 1-1.14.238q-2 0-2-2.235v-4.514h-1.311v-1.043h1.311v-1.862l1.221-.395v2.257h1.922v1.043h-1.922v4.3a1.778 1.778 0 0 0 .261 1.095 1.039 1.039 0 0 0 .864.328 1.282 1.282 0 0 0 .8-.253zM104.547 76.2H103.3v-4.873h-5.531V76.2h-1.252V65.517h1.252V70.2h5.531v-4.683h1.251zM113.255 68.571l-3.508 8.849q-.939 2.368-2.637 2.369a2.775 2.775 0 0 1-.8-.1V78.6a2.273 2.273 0 0 0 .722.134 1.5 1.5 0 0 0 1.386-1.1l.611-1.445-2.98-7.613h1.356l2.063 5.87q.037.111.156.581h.045c.025-.12.075-.308.149-.567l2.168-5.884zM115.818 75.1h-.03v4.611h-1.222v-11.14h1.222v1.341h.03a2.886 2.886 0 0 1 2.637-1.52 2.792 2.792 0 0 1 2.3 1.025 4.234 4.234 0 0 1 .827 2.744 4.73 4.73 0 0 1-.931 3.066 3.1 3.1 0 0 1-2.548 1.15 2.551 2.551 0 0 1-2.285-1.277zm-.03-3.076v1.065a2.272 2.272 0 0 0 .614 1.605 2.193 2.193 0 0 0 3.3-.19 3.892 3.892 0 0 0 .63-2.361 3.074 3.074 0 0 0-.589-2 1.948 1.948 0 0 0-1.594-.722 2.164 2.164 0 0 0-1.713.741 2.724 2.724 0 0 0-.648 1.858zM129.665 72.69h-5.385a2.855 2.855 0 0 0 .685 1.967 2.366 2.366 0 0 0 1.8.692 3.746 3.746 0 0 0 2.368-.849v1.147a4.422 4.422 0 0 1-2.659.73 3.224 3.224 0 0 1-2.54-1.039 4.251 4.251 0 0 1-.924-2.924 4.171 4.171 0 0 1 1.01-2.9 3.237 3.237 0 0 1 2.506-1.121 2.87 2.87 0 0 1 2.317.968 4.04 4.04 0 0 1 .819 2.689zm-1.251-1.035a2.489 2.489 0 0 0-.51-1.647 1.741 1.741 0 0 0-1.4-.588 1.976 1.976 0 0 0-1.468.618 2.8 2.8 0 0 0-.744 1.617zM135.49 69.807a1.49 1.49 0 0 0-.923-.246 1.56 1.56 0 0 0-1.308.738 3.409 3.409 0 0 0-.525 2.011v3.89h-1.221v-7.629h1.221v1.571h.03a2.673 2.673 0 0 1 .8-1.255 1.819 1.819 0 0 1 1.2-.45 1.981 1.981 0 0 1 .73.1zM139.759 72.429h-4.067v-.961h4.067zM150.061 65.517L146.1 76.2h-1.378l-3.873-10.681h1.393l2.957 8.469a5.091 5.091 0 0 1 .216.946h.03a4.61 4.61 0 0 1 .246-.961l3.017-8.454z"/>
    </g>
</svg>
