<svg xmlns="http://www.w3.org/2000/svg" viewBox="412.01 365.01 298.22 63.22">
	<defs>
		<clipPath id="a" clipPathUnits="userSpaceOnUse">
			<path d="M0 595.28h841.89V0H0z"/>
		</clipPath>
	</defs>
	<path fill="#231916" d="M441.69 395.021h-10.005l-2.604 15.544h-11.216l6.465-38.624h11.22l-2.379 14.195h10.008l2.375-14.195h11.215l-6.456 38.624h-11.219z"/>
	<g fill="#231916" clip-path="url(#a)" transform="matrix(1.33333 0 0 -1.33333 0 793.707)">
		<path d="m346.769 288.378-3.193 21.412h7.572l.777-7.358c.071-.692.106-1.349.106-1.98 0-.635-.032-1.244-.094-1.84.264.72.525 1.391.779 2.016.254.623.494 1.169.715 1.636l3.486 7.526h7.159l-15.487-31.574h-6.623zm78.124 20.63c-.41.357-.867.662-1.432.82a4.93 4.93 0 0 1-1.688.303c-.918 0-1.789-.253-2.656-.766-.871-.506-1.738-1.278-2.605-2.248l.357 2.711h-7.051l-3.939-22.489h7.156l1.943 11.087c.254 1.59.717 2.713 1.377 3.482.664.762 1.538 1.123 2.608 1.123.459 0 .922-.101 1.383-.259a5.267 5.267 0 0 0 1.172-.609zm-64.47-30.798 5.561 31.558h6.806l-.099-1.746c.75.729 1.503 1.26 2.246 1.605a5.566 5.566 0 0 0 2.31.507c2.233 0 3.85-1.033 4.854-3.096 1.004-2.065 1.201-4.813.597-8.236-.597-3.408-1.824-6.174-3.673-8.293-1.852-2.117-3.911-3.176-6.166-3.176-.78 0-1.452.147-2.022.441-.566.291-1.06.747-1.478 1.36l-1.932-10.924zm9.861 16.207c.225-.273.471-.471.729-.6.265-.136.541-.197.842-.197.879 0 1.634.453 2.265 1.361.635.905 1.094 2.197 1.393 3.875.295 1.653.285 2.959-.027 3.92-.313.963-.872 1.443-1.686 1.443-.297 0-.607-.084-.93-.256-.316-.171-.666-.432-1.041-.789zm21.434 2.47a7.313 7.313 0 0 1-.09-.63 6.795 6.795 0 0 1-.045-.719c0-1.111.369-1.889 1.102-2.338.736-.445 1.611-.672 2.627-.672 1.556 0 3.043.199 4.449.606 1.408.406 2.699.966 3.865 1.685l-.763-5.484c-.42-.299-.928-.596-1.532-.899a13.92 13.92 0 0 0-2.021-.806 18.47 18.47 0 0 0-2.379-.584 14.513 14.513 0 0 0-2.608-.225c-1.496 0-2.857.238-4.085.715a9.055 9.055 0 0 0-3.174 2.068c-.879.901-1.567 2.004-2.063 3.305-.5 1.301-.744 2.766-.744 4.379 0 1.681.256 3.291.766 4.835a13.128 13.128 0 0 0 2.199 4.112 10.798 10.798 0 0 0 3.463 2.852c1.349.704 2.875 1.055 4.582 1.055 1.711 0 3.16-.244 4.361-.741 1.195-.494 2.174-1.2 2.922-2.112.748-.914 1.283-2.033 1.617-3.371.326-1.332.492-2.841.492-4.516a16.886 16.886 0 0 0-.177-2.515zm5.748 4.27c.035.15.047.318.047.517v.516c0 .296-.024.622-.066.967a2.728 2.728 0 0 1-.315.964 2.213 2.213 0 0 1-.652.742c-.27.194-.623.292-1.078.292-.151 0-.368-.032-.653-.089-.283-.062-.58-.225-.9-.498-.311-.27-.617-.671-.92-1.214-.299-.533-.522-1.27-.67-2.197zm97.844-11.783c-1.096-.932-2.176-1.625-3.236-2.082-1.059-.451-2.118-.682-3.184-.682-2.012 0-3.396.67-4.15 2.016-.75 1.346-.881 3.402-.395 6.164l2.668 15.115h7.235l-2.481-14.078c-.203-1.127-.191-1.924.041-2.404.227-.479.691-.719 1.398-.719.327 0 .69.066 1.096.201a9.98 9.98 0 0 1 1.346.569l2.904 16.431h7.235l-2.477-14.035c-.178-1.017-.158-1.678.061-1.98.218-.307.72-.485 1.515-.541l-2.56-6.352a13.264 13.264 0 0 0-1.512-.297c-.465-.058-.893-.09-1.289-.09-1.186 0-2.121.223-2.813.674-.693.451-1.158 1.149-1.402 2.09m-25.37 9.074c.309 1.714.773 3.111 1.449 4.1.676.983 1.403 1.504 2.235 1.504.824 0 1.396-.521 1.709-1.504.308-.989.308-2.386 0-4.1-.313-1.76-.782-3.162-1.457-4.146-.672-.986-1.397-1.506-2.276-1.506-.781 0-1.351.52-1.66 1.506-.314.984-.314 2.386 0 4.146m11.512 8.609c-1.399 2.127-3.68 3.213-6.795 3.163-3.057.05-5.705-1.036-7.883-3.163-2.178-2.074-3.578-4.923-4.201-8.609-.674-3.628-.26-6.48 1.138-8.605 1.456-2.129 3.737-3.164 6.797-3.164 3.116 0 5.758 1.035 7.938 3.164 2.123 2.125 3.529 4.977 4.203 8.605.67 3.686.258 6.535-1.197 8.609m35.788-13.897 1.865 10.556a6.02 6.02 0 0 1-.902.319 2.97 2.97 0 0 1-.635.082c-.973 0-1.791-.471-2.457-1.407-.67-.939-1.16-2.304-1.471-4.092-.328-1.836-.308-3.202.047-4.104.356-.905 1.045-1.354 2.074-1.354zm6.096-5.955h-7.041c-2.34 0-4.065.168-5.176.502-1.115.334-2.063.889-2.844 1.674-1.021 1.017-1.685 2.34-2 3.966-.316 1.622-.267 3.574.135 5.848.576 3.275 1.807 5.937 3.699 7.986 1.883 2.053 4.031 3.075 6.426 3.075.705 0 1.361-.087 1.951-.259a5.29 5.29 0 0 0 1.592-.76l1.273 7.228h7.141zm-64.803-.001h-8.289l4.867 29.247h8.289zm-10.181 2.664c-1.223-.934-2.73-1.697-4.52-2.293-1.791-.596-3.734-.896-5.832-.896-1.832 0-3.507.25-5.023.744-1.514.494-2.803 1.281-3.865 2.359-1.061 1.074-1.885 2.471-2.465 4.19-.584 1.718-.875 3.785-.875 6.202 0 1.891.299 3.832.894 5.825a18.03 18.03 0 0 0 2.688 5.456 14.776 14.776 0 0 0 4.412 4.041c1.744 1.049 3.781 1.574 6.113 1.574 1.194 0 2.43-.203 3.711-.61a10.352 10.352 0 0 0 3.539-1.952c1.073-.895 1.971-2.048 2.686-3.452.711-1.405 1.096-3.128 1.154-5.167l-7.947-1.178c.031.64.01 1.311-.063 2.01a6.213 6.213 0 0 1-.482 1.878 3.83 3.83 0 0 1-.998 1.372c-.418.364-.975.546-1.672.546-.695 0-1.279-.176-1.758-.525a4.42 4.42 0 0 1-1.193-1.333 7.943 7.943 0 0 1-.764-1.774c-.187-.64-.34-1.255-.455-1.836a29.696 29.696 0 0 1-.5-3.043 38.431 38.431 0 0 1-.238-3.13c-.057-1.664.305-2.955 1.09-3.875.781-.92 2.119-1.377 4.004-1.377 1.83 0 3.548.31 5.16.937a17.883 17.883 0 0 1 4.418 2.469z"/>
	</g>
</svg>
