<svg xmlns="http://www.w3.org/2000/svg" width="200" height="128">
	<path d="m91.65 90.74-1-2.95h-4.59l-1 2.95h-1.67l4.1-11.09h1.76l4.09 11.09zm-5.17-4.18h3.73l-1.87-5.44zm15.84 4.18-2.1-8.69-2.11 8.69h-1.82l-3.23-11.09h1.77l2.39 9.29 2.12-9h1.8l2.12 9 2.4-9.31h1.72l-3.24 11.09zm8.75-5.27a4.51 4.51 0 0 1-1.9-1.2 2.63 2.63 0 0 1-.59-1.77 3 3 0 0 1 .44-1.6 3.09 3.09 0 0 1 1.29-1.09 4.52 4.52 0 0 1 2-.4 8.39 8.39 0 0 1 3 .57v1.3a10 10 0 0 0-2.85-.5 2.68 2.68 0 0 0-1.61.43 1.4 1.4 0 0 0-.56 1.21 1.33 1.33 0 0 0 .38 1 4.07 4.07 0 0 0 1.42.76l1.46.55a4.31 4.31 0 0 1 1.86 1.16 2.61 2.61 0 0 1 .57 1.75 3 3 0 0 1-1.1 2.45 4.5 4.5 0 0 1-2.95.91 7.29 7.29 0 0 1-3.2-.66v-1.27a9.87 9.87 0 0 0 3.17.56 2.85 2.85 0 0 0 1.78-.49 1.59 1.59 0 0 0 .65-1.35 1.36 1.36 0 0 0-.37-1 3.73 3.73 0 0 0-1.28-.75zm-85.85 21.27V95.65h2.4v11.09zm11.68 0-.79-2.53h-3.79l-.75 2.53h-2.51L33 95.65h2.6l3.91 11.09zm-4.07-4.26h2.79l-1.41-4.64zM50 106.74v-7.68l-2.45 5h-2.11l-2.45-5v7.68h-2.11V95.65h2.62l3 6.3 3-6.3h2.58v11.09zm15.52 0-.78-2.53H61l-.75 2.53h-2.54l3.91-11.09h2.64l3.9 11.09zm-4.06-4.26h2.78l-1.4-4.64zm13.79 3.9a3.53 3.53 0 0 1-1 .4 5.79 5.79 0 0 1-1.26.13 3.92 3.92 0 0 1-3-1.09 5.21 5.21 0 0 1 .06-6.3 4 4 0 0 1 3-1.14 4.54 4.54 0 0 1 2.16.52v1.55a6.29 6.29 0 0 0-1.72-.27 2.18 2.18 0 0 0-1.65.56 2.6 2.6 0 0 0-.53 1.8v.23a2.56 2.56 0 0 0 .52 1.78 2.08 2.08 0 0 0 1.61.57 7 7 0 0 0 1.82-.29zm7.41 0a3.64 3.64 0 0 1-1 .4 5.86 5.86 0 0 1-1.26.13 3.91 3.91 0 0 1-3-1.09 5.21 5.21 0 0 1 .06-6.3 4 4 0 0 1 3-1.14 4.54 4.54 0 0 1 2.16.52v1.55a6.3 6.3 0 0 0-1.73-.27 2.17 2.17 0 0 0-1.64.56 2.55 2.55 0 0 0-.53 1.8v.23a2.56 2.56 0 0 0 .52 1.78 2.06 2.06 0 0 0 1.61.57 7 7 0 0 0 1.82-.29zm3.25-3.16a2 2 0 0 0 .64 1.52 2.77 2.77 0 0 0 1.8.48 9.68 9.68 0 0 0 2.5-.4v1.55a5.39 5.39 0 0 1-1.34.45 8.35 8.35 0 0 1-1.6.16 4.09 4.09 0 0 1-3.1-1.11 5.4 5.4 0 0 1 0-6.41 3.8 3.8 0 0 1 2.93-1.14 3.26 3.26 0 0 1 2.44.87 3.41 3.41 0 0 1 .86 2.49v.8c0 .3-.07.54-.11.74zm1.74-3.28a1.62 1.62 0 0 0-1.24.47 2.12 2.12 0 0 0-.52 1.37h3.14v-.28q.03-1.56-1.35-1.56zm8.64 4.54a.68.68 0 0 0-.18-.5 2.63 2.63 0 0 0-.75-.38l-1.24-.5a3.1 3.1 0 0 1-1.41-.94 2.24 2.24 0 0 1-.43-1.42 2.12 2.12 0 0 1 .9-1.74 3.74 3.74 0 0 1 2.32-.66 5.81 5.81 0 0 1 2.48.53v1.55a8 8 0 0 0-2.27-.37 2.31 2.31 0 0 0-1 .16.54.54 0 0 0-.3.51.56.56 0 0 0 .18.44 2.75 2.75 0 0 0 .78.41l1.21.5A3.33 3.33 0 0 1 98 103a2.13 2.13 0 0 1 .42 1.37 2.33 2.33 0 0 1-.9 1.91 3.63 3.63 0 0 1-2.37.73 6.37 6.37 0 0 1-2.92-.65v-1.56a9.5 9.5 0 0 0 2.9.5c.81-.02 1.19-.3 1.19-.82zm7.12 0a.68.68 0 0 0-.18-.5 2.63 2.63 0 0 0-.75-.38l-1.25-.5a3.12 3.12 0 0 1-1.4-.94 2.25 2.25 0 0 1-.44-1.42 2.12 2.12 0 0 1 .91-1.74 3.74 3.74 0 0 1 2.32-.66 5.81 5.81 0 0 1 2.48.53v1.55a8 8 0 0 0-2.27-.37 2.31 2.31 0 0 0-1 .16.54.54 0 0 0-.3.51.56.56 0 0 0 .18.44 2.75 2.75 0 0 0 .78.41l1.21.5a3.33 3.33 0 0 1 1.42.93 2.13 2.13 0 0 1 .42 1.37 2.33 2.33 0 0 1-.9 1.91 3.64 3.64 0 0 1-2.38.73 6.36 6.36 0 0 1-2.91-.65v-1.56a9.5 9.5 0 0 0 2.9.5c.81-.02 1.19-.3 1.19-.82zm14.66 2.26-.79-2.53h-3.79l-.75 2.53h-2.51l3.9-11.09h2.64l3.9 11.09zm-4.07-4.26h2.79l-1.41-4.64zm13.14 4.26v-5.36a1.36 1.36 0 0 0-.29-1 1.12 1.12 0 0 0-.88-.31 3.16 3.16 0 0 0-1.74.55v6.08h-2.34v-8.14h1.92l.22.88a4.91 4.91 0 0 1 3.08-1.12 2.14 2.14 0 0 1 2.36 2.37v6zm9.23 0-.19-.72a3.84 3.84 0 0 1-1.15.71 3.41 3.41 0 0 1-1.25.26 2.66 2.66 0 0 1-1.9-.67 2.36 2.36 0 0 1-.71-1.79 2.45 2.45 0 0 1 .38-1.35 2.6 2.6 0 0 1 1.11-.92 3.86 3.86 0 0 1 1.69-.34 7.72 7.72 0 0 1 1.7.21v-.8a1.34 1.34 0 0 0-.3-1 1.75 1.75 0 0 0-1.12-.27 9.78 9.78 0 0 0-2.9.49V99a6.19 6.19 0 0 1 1.49-.49 9.21 9.21 0 0 1 1.82-.18 3.63 3.63 0 0 1 2.41.66 2.63 2.63 0 0 1 .76 2.09v5.67zm-1.94-1.32a2.09 2.09 0 0 0 .83-.17 3.41 3.41 0 0 0 .79-.48v-1.39a7.59 7.59 0 0 0-1.26-.12c-.93 0-1.4.38-1.4 1.12a1 1 0 0 0 1 1zm9.59 1.16a3.84 3.84 0 0 1-1.44.27c-1.44 0-2.16-.81-2.16-2.42V94.9h2.33v9.34a.94.94 0 0 0 .16.63.59.59 0 0 0 .5.19 5.86 5.86 0 0 0 .61 0zm3.77.28-3.23-8.3h2.48l1.83 6.11 1.72-6.11H153l-3.46 9.28a4.19 4.19 0 0 1-1.13 1.82 2.54 2.54 0 0 1-1.7.56 4.79 4.79 0 0 1-1.55-.25v-1.59a7.76 7.76 0 0 0 .91.05 1.54 1.54 0 0 0 1-.31 2.46 2.46 0 0 0 .63-1.08zm6-.12v-1.67l4.2-4.78h-4v-1.73h6.62v1.66L156.3 105h4.34v1.73zm10.08-3.52a2 2 0 0 0 .64 1.52 2.77 2.77 0 0 0 1.8.48 9.68 9.68 0 0 0 2.5-.4v1.55a5.39 5.39 0 0 1-1.34.45 8.35 8.35 0 0 1-1.6.16 4.09 4.09 0 0 1-3.1-1.11 5.4 5.4 0 0 1 0-6.41 3.8 3.8 0 0 1 2.93-1.14 3.26 3.26 0 0 1 2.44.87 3.41 3.41 0 0 1 .86 2.49v.8c0 .3-.07.54-.11.74zm1.74-3.28a1.62 1.62 0 0 0-1.24.47 2.12 2.12 0 0 0-.52 1.37H167v-.28q0-1.56-1.4-1.56zm5.17 6.8v-8.18h1.92l.29 1.22a4.43 4.43 0 0 1 1.2-1 2.58 2.58 0 0 1 1.21-.3 4.85 4.85 0 0 1 .64 0v2.16a4.37 4.37 0 0 0-1-.1 5 5 0 0 0-1.94.37v5.78z" fill="#333"/>
	<path data-name="AWS-Acess-Insights 64 Icon Squid" d="M124.27 49.86 119.83 43l-4.54 6.91zm2.61 1.42a1 1 0 0 1-.84.51H113.5a1 1 0 0 1-.81-1.5l6.31-9.64a1 1 0 0 1 .81-.44 1 1 0 0 1 .81.45l6.2 9.64a1 1 0 0 1 0 1zm-2.77 15.93a3.86 3.86 0 1 0-3.86 3.86 3.86 3.86 0 0 0 3.86-3.86zm1.93 0a5.79 5.79 0 0 1-11.49 1H78.79a1 1 0 0 1-1-1V55.64h1.93v10.61h34.8a5.79 5.79 0 0 1 11.49 1zm-9.65-42.42a3.86 3.86 0 1 0 3.86-3.86 3.86 3.86 0 0 0-3.86 3.86zM79.75 36.36h-1.93V24.79a1 1 0 0 1 1-1h35.76a5.79 5.79 0 1 1 0 1.93H79.75zm-4.82 14.46h9.64v-9.64h-9.64zm10.61 1.93H74a1 1 0 0 1-1-1V40.21a1 1 0 0 1 1-1h11.54a1 1 0 0 1 1 1v11.58a1 1 0 0 1-1 1zM106.75 47h5.79v-2h-5.79zm-8.68 0h5.79v-2h-5.79zm-8.68 0h5.79v-2h-5.79z" fill="#232f3e" fill-rule="evenodd"/>
</svg>
