<svg xmlns="http://www.w3.org/2000/svg" xml:space="preserve" width="378.667" height="113.333">
	<path d="M143.605 679.477H8.965V6.266h134.64Zm2154.275 100.98h403.93v67.324h-403.93zm201.97-100.98c185.9 0 336.61-150.704 336.61-336.606S2685.75 6.266 2499.85 6.266s-336.6 150.703-336.6 336.605c0 185.902 150.7 336.606 336.6 336.606zm0-134.645c111.54 0 201.96-90.418 201.96-201.961 0-111.539-90.42-201.961-201.96-201.961-111.55 0-201.96 90.422-201.96 201.961 0 111.543 90.41 201.961 201.96 201.961zm-407.37-41.836c-24.52 25.777-59.16 41.836-97.54 41.836-74.37 0-134.64-60.281-134.64-134.641h-.01V6.266h-134.64v403.929c.01 148.719 120.57 269.282 269.29 269.282 63.2 0 121.31-21.789 167.26-58.243-29.06-35.214-52.73-75.046-69.72-118.238zM782.73 6.266h134.641v673.211H782.73v-67.309c-56.257 42.258-126.183 67.309-201.964 67.309-185.903 0-336.602-150.704-336.602-336.606S394.863 6.266 580.766 6.266c75.781 0 145.707 25.05 201.964 67.308zm673.64 673.211h134.65V6.266h-134.65V42.3c-39.61-22.918-85.59-36.035-134.64-36.035-148.73 0-269.28 120.558-269.29 269.281v403.93h134.64V275.551c0-74.36 60.29-134.641 134.65-134.641 74.36 0 134.63 60.281 134.63 134.641h.01zM580.766 544.832c111.539 0 201.964-90.418 201.964-201.961 0-111.539-90.425-201.961-201.964-201.961s-201.965 90.422-201.965 201.961c0 111.543 90.426 201.961 201.965 201.961" style="fill:#000;fill-opacity:1;fill-rule:evenodd;stroke:none" transform="matrix(.13333 0 0 -.13333 0 113.333)"/>
</svg>
