<svg xmlns="http://www.w3.org/2000/svg" viewBox="-6.54 -7.29 392.08 127.08">
	<path fill-rule="evenodd" d="M19.147 22.738H1.195v89.76h17.952zm287.23-13.463h53.855V.298h-53.856zm26.928 13.463c24.786 0 44.88 20.094 44.88 44.88s-20.094 44.88-44.88 44.88-44.879-20.094-44.879-44.88 20.093-44.88 44.879-44.88zm0 17.953c14.872 0 26.927 12.055 26.927 26.927s-12.055 26.927-26.927 26.927c-14.873 0-26.927-12.056-26.927-26.927 0-14.872 12.054-26.927 26.927-26.927zm-54.315 5.578a17.896 17.896 0 0 0-13.005-5.578c-9.915 0-17.951 8.037-17.951 17.951h-.002v53.856h-17.951V58.642c.001-19.829 16.076-35.904 35.904-35.904a35.758 35.758 0 0 1 22.301 7.766 58.312 58.312 0 0 0-9.296 15.765zm-174.629 66.229h17.952v-89.76h-17.952v8.975a44.68 44.68 0 0 0-26.927-8.975c-24.787 0-44.88 20.094-44.88 44.88s20.093 44.88 44.88 44.88a44.68 44.68 0 0 0 26.927-8.975zm89.817-89.76h17.953v89.76h-17.953v-4.805a35.73 35.73 0 0 1-17.952 4.805c-19.83 0-35.903-16.074-35.904-35.904V22.738h17.951v53.856c0 9.914 8.039 17.951 17.953 17.951s17.95-8.037 17.95-17.951h.002zM77.434 40.691c14.871 0 26.927 12.055 26.927 26.927S92.305 94.545 77.434 94.545 50.506 82.49 50.506 67.618s12.056-26.927 26.928-26.927"/>
</svg>
