<svg xmlns="http://www.w3.org/2000/svg" width="200" height="128">
    <linearGradient id="linear-gradient" x1="142.38" y1="46.51" x2="36.03" y2="90.72" gradientUnits="userSpaceOnUse">
        <stop offset="0" stop-color="#4493fa"/>
        <stop offset="1" stop-color="#3ed1de"/>
    </linearGradient>
    <path fill="url(#linear-gradient)" d="M20.58 90.31v-8h6.9v-36.4h-6.9V38h23.77v7.95h-7v36.41h7v8zM53.73 38H78a16.45 16.45 0 015.82 1 12.76 12.76 0 014.38 2.7 11.14 11.14 0 012.74 4.23 15.6 15.6 0 01.94 5.52 14.11 14.11 0 01-.88 5 9.67 9.67 0 01-2.1 3.41 8.53 8.53 0 01-3 2 10.49 10.49 0 01-3.49.75v.45a11.64 11.64 0 013.72.67 10.87 10.87 0 013.67 2.14 11.65 11.65 0 012.81 3.75 12.77 12.77 0 011.13 5.66 17 17 0 01-1 5.89A14.87 14.87 0 0190 86a13 13 0 01-4.27 3.19 12.47 12.47 0 01-5.4 1.16h-26.6zm9.9 21.83h12.22a5.78 5.78 0 004.2-1.46 5.46 5.46 0 001.5-4.09v-2.37a5.46 5.46 0 00-1.5-4.09 5.78 5.78 0 00-4.2-1.46H63.63zm0 22.12h13.8a6.27 6.27 0 004.42-1.46 5.51 5.51 0 001.58-4.24v-2.59a5.61 5.61 0 00-1.58-4.27 6.15 6.15 0 00-4.42-1.5h-13.8zM140.73 52.74h-.3l-4.05 8.32-10.73 19.8-10.72-19.8-4.05-8.32h-.3v37.57h-9.38V38h11.18l13.42 25.54h.3L139.38 38h10.72v52.31h-9.37zM174.55 45.46c-2 0-3.44-.45-4.31-1.35a4.72 4.72 0 01-1.31-3.45v-1.5a4.72 4.72 0 011.31-3.45c.87-.9 2.31-1.35 4.31-1.35a5.86 5.86 0 014.28 1.35 4.67 4.67 0 011.35 3.45v1.5a4.67 4.67 0 01-1.35 3.45 5.86 5.86 0 01-4.28 1.35zm-4.8 5.7h9.6v39.15h-9.6z"/>
    <path fill="url(#linear-gradient)" d="M20.58 90.31v-8h6.9v-36.4h-6.9V38h23.77v7.95h-7v36.41h7v8zM53.73 38H78a16.45 16.45 0 015.82 1 12.76 12.76 0 014.38 2.7 11.14 11.14 0 012.74 4.23 15.6 15.6 0 01.94 5.52 14.11 14.11 0 01-.88 5 9.67 9.67 0 01-2.1 3.41 8.53 8.53 0 01-3 2 10.49 10.49 0 01-3.49.75v.45a11.64 11.64 0 013.72.67 10.87 10.87 0 013.67 2.14 11.65 11.65 0 012.81 3.75 12.77 12.77 0 011.13 5.66 17 17 0 01-1 5.89A14.87 14.87 0 0190 86a13 13 0 01-4.27 3.19 12.47 12.47 0 01-5.4 1.16h-26.6zm9.9 21.83h12.22a5.78 5.78 0 004.2-1.46 5.46 5.46 0 001.5-4.09v-2.37a5.46 5.46 0 00-1.5-4.09 5.78 5.78 0 00-4.2-1.46H63.63zm0 22.12h13.8a6.27 6.27 0 004.42-1.46 5.51 5.51 0 001.58-4.24v-2.59a5.61 5.61 0 00-1.58-4.27 6.15 6.15 0 00-4.42-1.5h-13.8zM140.73 52.74h-.3l-4.05 8.32-10.73 19.8-10.72-19.8-4.05-8.32h-.3v37.57h-9.38V38h11.18l13.42 25.54h.3L139.38 38h10.72v52.31h-9.37zM174.55 45.46c-2 0-3.44-.45-4.31-1.35a4.72 4.72 0 01-1.31-3.45v-1.5a4.72 4.72 0 011.31-3.45c.87-.9 2.31-1.35 4.31-1.35a5.86 5.86 0 014.28 1.35 4.67 4.67 0 011.35 3.45v1.5a4.67 4.67 0 01-1.35 3.45 5.86 5.86 0 01-4.28 1.35zm-4.8 5.7h9.6v39.15h-9.6z"/>
</svg>
