<svg xmlns="http://www.w3.org/2000/svg" height="480" width="1017.333" xml:space="preserve">
	<defs>
		<clipPath id="a" clipPathUnits="userSpaceOnUse">
			<path d="M0 360h763V0H0Z"/>
		</clipPath>
	</defs>
	<path style="fill:#000;fill-opacity:1;fill-rule:nonzero;stroke:none" d="M0 0v3.437h4.58v27.399H0v3.438h13.086v-3.438h-4.58V3.437h4.58V0Z" transform="matrix(1.33333 0 0 -1.33333 405.94 228.365)"/>
	<g clip-path="url(#a)" transform="matrix(1.33333 0 0 -1.33333 0 480)">
		<path style="fill:#000;fill-opacity:1;fill-rule:nonzero;stroke:none" d="M0 0h9.675c3.365 0 5.422 1.866 5.422 5.303v1.67c0 3.437-2.057 5.302-5.422 5.302H0zm0 15.811h9.021c3.084 0 4.954 1.718 4.954 4.763v1.669c0 3.045-1.87 4.763-4.954 4.763H0ZM-3.926 30.64H9.488c5.374 0 8.693-3.486 8.693-8.839 0-5.106-3.131-6.923-5.282-7.267v-.294c2.337-.148 6.404-2.259 6.404-7.955 0-5.647-3.599-9.919-8.413-9.919H-3.926Z" transform="translate(328.615 192.36)"/>
		<path style="fill:#000;fill-opacity:1;fill-rule:nonzero;stroke:none" d="M0 0h5.234l9.348-18.463h.233L24.21 0h5.048v-34.274h-3.833v28.873h-.234l-2.757-5.745-7.805-14.928-7.806 14.928-2.757 5.745h-.234v-28.873H0Z" transform="translate(355.205 223)"/>
		<path style="fill:#000;fill-opacity:1;fill-rule:nonzero;stroke:none" d="M0 0c0 11.539 5.468 17.971 14.067 17.971 5.843 0 9.628-2.602 11.919-7.905L20.704 7.12c-.934 3.044-2.991 5.107-6.637 5.107-4.58 0-7.524-3.487-7.524-9.33v-5.401c0-5.893 2.944-9.232 7.524-9.232 3.693 0 5.983 2.357 7.058 5.451l5.001-3.094c-2.337-5.106-6.216-8.102-12.059-8.102C5.468-17.481 0-11.54 0 0" transform="translate(402.264 205.618)"/>
		<path style="fill:#000;fill-opacity:1;fill-rule:nonzero;stroke:none" d="M0 0c-4.066 0-5.982 2.259-5.982 6.187v30.149H0V5.008h3.225V0Z" transform="translate(439.277 188.726)"/>
		<path style="fill:#000;fill-opacity:1;fill-rule:nonzero;stroke:none" d="M0 0v4.763c0 3.83-1.963 5.941-5.095 5.941-3.084 0-5.047-2.111-5.047-5.941V0c0-3.879 1.963-5.991 5.047-5.991C-1.963-5.991 0-3.879 0 0m-16.404 2.406c0 8.2 4.345 13.356 11.309 13.356 7.011 0 11.358-5.156 11.358-13.356 0-8.249-4.347-13.454-11.358-13.454-6.964 0-11.309 5.205-11.309 13.454" transform="translate(461.801 199.185)"/>
		<path style="fill:#000;fill-opacity:1;fill-rule:nonzero;stroke:none" d="M0 0h-.234c-.841-2.553-2.804-4.861-6.824-4.861-5.001 0-7.805 3.633-7.805 10.017V21.36h5.982V5.794c0-3.535 1.263-5.45 4.113-5.45C-2.384.344 0 1.669 0 4.419V21.36h5.982V-4.272H0z" transform="translate(487.924 192.998)"/>
		<path style="fill:#000;fill-opacity:1;fill-rule:nonzero;stroke:none" d="M0 0v8.151c0 2.504-2.196 4.124-5.048 4.124-3.085 0-5.187-2.405-5.187-6.039V1.817c0-3.634 2.102-5.991 5.187-5.991C-2.196-4.174 0-2.652 0 0m0-4.518h-.233c-.889-2.897-3.506-4.861-6.731-4.861-6.123 0-9.534 4.861-9.534 13.454 0 8.544 3.411 13.356 9.534 13.356 3.225 0 5.889-1.866 6.731-4.812H0v14.927h5.982V-8.79H0Z" transform="translate(515.963 197.516)"/>
		<path style="fill:#000;fill-opacity:1;fill-rule:nonzero;stroke:none" d="M0 0c0 11.539 5.468 17.972 14.067 17.972 5.843 0 9.628-2.603 11.918-7.907L20.704 7.12c-.934 3.044-2.991 5.107-6.637 5.107-4.58 0-7.524-3.487-7.524-9.331v-5.401c0-5.891 2.944-9.23 7.524-9.23 3.693 0 5.983 2.356 7.058 5.45l5.001-3.094c-2.337-5.106-6.216-8.101-12.059-8.101C5.468-17.48 0-11.539 0 0" transform="translate(304.081 155.993)"/>
		<path style="fill:#000;fill-opacity:1;fill-rule:nonzero;stroke:none" d="M0 0v4.763c0 3.83-1.963 5.941-5.095 5.941-3.084 0-5.047-2.111-5.047-5.941V0c0-3.879 1.963-5.99 5.047-5.99C-1.963-5.99 0-3.879 0 0m-16.404 2.406c0 8.2 4.345 13.356 11.309 13.356 7.011 0 11.358-5.156 11.358-13.356 0-8.25-4.347-13.454-11.358-13.454-6.964 0-11.309 5.204-11.309 13.454" transform="translate(349.88 149.56)"/>
		<path style="fill:#000;fill-opacity:1;fill-rule:nonzero;stroke:none" d="M0 0v25.632h5.982v-4.273h.234c.981 2.75 3.038 4.862 6.823 4.862 5.001 0 7.806-3.634 7.806-10.017V0h-5.983v15.565c0 3.634-1.169 5.5-4.019 5.5-2.478 0-4.861-1.375-4.861-4.125V0Z" transform="translate(361.421 139.102)"/>
		<path style="fill:#000;fill-opacity:1;fill-rule:nonzero;stroke:none" d="M0 0v14.093h-3.6v5.009h1.871c1.776 0 2.336.883 2.336 2.651v4.37h5.375v-7.021h5.001v-5.009H5.982V-1.521h4.627V-6.53H6.31C2.196-6.53 0-4.174 0 0" transform="translate(390.208 145.632)"/>
		<path style="fill:#000;fill-opacity:1;fill-rule:nonzero;stroke:none" d="M0 0v3.388h-3.833c-3.131 0-4.673-1.129-4.673-3.143v-.834c0-2.062 1.355-3.094 3.692-3.094C-2.15-3.683 0-2.406 0 0m-14.582-.687c0 5.253 3.785 7.856 10.422 7.856H0v1.866c0 2.848-1.355 4.517-4.533 4.517-2.805 0-4.394-1.473-5.563-3.24l-3.551 3.338c1.776 2.947 4.626 4.911 9.534 4.911 6.59 0 10.095-3.29 10.095-9.133V-2.651h2.431V-7.66H5.095C2.523-7.66.935-5.893.561-3.241H.28c-.795-3.29-3.459-5.008-7.104-5.008-4.954 0-7.758 2.995-7.758 7.562" transform="translate(419.23 146.762)"/>
		<path style="fill:#000;fill-opacity:1;fill-rule:nonzero;stroke:none" d="M432.499 164.733h5.982v-25.632h-5.982zm-.514 6.874v.983c0 1.816 1.028 3.142 3.506 3.142 2.429 0 3.504-1.326 3.504-3.142v-.983c0-1.816-1.075-3.142-3.504-3.142-2.478 0-3.506 1.326-3.506 3.142"/>
		<path style="fill:#000;fill-opacity:1;fill-rule:nonzero;stroke:none" d="M0 0v25.632h5.982v-4.273h.234c.981 2.75 3.038 4.862 6.823 4.862 5.001 0 7.806-3.634 7.806-10.017V0h-5.983v15.565c0 3.634-1.169 5.5-4.019 5.5-2.478 0-4.861-1.375-4.861-4.125V0Z" transform="translate(445.397 139.102)"/>
		<path style="fill:#000;fill-opacity:1;fill-rule:nonzero;stroke:none" d="M0 0v-.393h10.002v.442c0 3.535-1.73 5.941-4.815 5.941C2.057 5.99 0 3.535 0 0m-6.216-2.651c0 8.101 4.159 13.355 11.31 13.355 7.619 0 11.124-5.892 11.124-12.914v-2.062H0v-.638c0-3.683 2.01-6.188 5.936-6.188 2.944 0 4.72 1.474 6.215 3.487l3.226-3.781c-2.01-2.897-5.563-4.713-10.096-4.713-7.197 0-11.497 5.253-11.497 13.454" transform="translate(477.455 154.618)"/>
		<path style="fill:#000;fill-opacity:1;fill-rule:nonzero;stroke:none" d="M0 0v25.632h5.982v-5.304h.234c.607 2.701 2.57 5.304 6.449 5.304h1.31V19.69h-1.871c-4.019 0-6.122-1.178-6.122-3.977V0Z" transform="translate(498.951 139.102)"/>
		<path style="fill:#000;fill-opacity:1;fill-rule:nonzero;stroke:none" d="M0 0c2.384 0 3.832 1.375 3.832 3.879v2.259c0 2.504-1.448 3.83-3.832 3.83h-7.945V0Zm-7.945-18.659h-6.17v34.273H.607c5.936 0 9.628-4.124 9.628-10.605 0-4.714-2.056-8.299-6.076-9.723l6.684-13.945h-6.87L-2.104-5.45h-5.841z" transform="translate(542.833 157.76)"/>
		<path style="fill:#000;fill-opacity:1;fill-rule:nonzero;stroke:none" d="M0 0v-.393h10.002v.442c0 3.535-1.73 5.941-4.815 5.941C2.057 5.99 0 3.535 0 0m-6.216-2.651c0 8.101 4.159 13.355 11.31 13.355 7.619 0 11.124-5.892 11.124-12.914v-2.062H0v-.638c0-3.683 2.01-6.188 5.936-6.188 2.944 0 4.72 1.474 6.215 3.487l3.226-3.781c-2.01-2.897-5.563-4.713-10.096-4.713-7.197 0-11.497 5.253-11.497 13.454" transform="translate(563.253 154.618)"/>
		<path style="fill:#000;fill-opacity:1;fill-rule:nonzero;stroke:none" d="M0 0v.835c0 2.603-1.543 3.928-4.394 3.928S-8.787 3.438-8.787.835V0c0-2.553 1.542-3.928 4.393-3.928S0-2.553 0 0m-1.355-17.432h-8.32c-.888-.687-1.262-1.62-1.262-2.651 0-1.964 1.402-3.143 5.141-3.143h2.991c3.879 0 5.609 1.032 5.609 3.192 0 1.621-1.121 2.602-4.159 2.602m-3.039-10.115c-8.225 0-11.357 2.259-11.357 6.04 0 2.848 1.636 4.469 4.347 4.91v.54c-2.01.54-3.132 2.21-3.132 4.273 0 2.651 2.15 3.976 4.487 4.517v.197c-2.944 1.424-4.44 4.075-4.44 7.463 0 5.205 3.506 8.691 10.095 8.691 1.496 0 3.039-.196 4.253-.638v.834c0 2.505 1.215 3.733 3.459 3.733h3.786V8.2H1.916v-.687C4.439 6.04 5.702 3.535 5.702.393 5.702-4.763 2.243-8.2-4.394-8.2c-1.402 0-2.664.147-3.739.442-.934-.442-1.729-1.179-1.729-2.307 0-1.278 1.028-1.915 3.178-1.915h6.543c5.983 0 8.553-2.702 8.553-7.317 0-5.352-3.458-8.25-12.806-8.25" transform="translate(598.35 156.238)"/>
		<path style="fill:#000;fill-opacity:1;fill-rule:nonzero;stroke:none" d="M610.218 164.733h5.982v-25.632h-5.982zm-.515 6.874v.983c0 1.816 1.029 3.142 3.506 3.142 2.43 0 3.505-1.326 3.505-3.142v-.983c0-1.816-1.075-3.142-3.505-3.142-2.477 0-3.506 1.326-3.506 3.142"/>
		<path style="fill:#000;fill-opacity:1;fill-rule:nonzero;stroke:none" d="m0 0 3.646 3.731C5.422 1.571 7.571.245 10.329.245c2.851 0 4.067 1.129 4.067 2.946 0 1.473-.842 2.407-2.992 2.701l-2.43.343C3.739 6.923.841 9.329.841 13.994c0 4.959 3.692 8.102 9.255 8.102 4.766 0 7.197-1.473 9.534-4.027l-3.506-3.682c-1.401 1.571-3.458 2.75-5.842 2.75-2.57 0-3.692-1.08-3.692-2.652 0-1.718.888-2.505 3.179-2.897l2.476-.344c5.328-.785 7.899-3.29 7.899-7.561 0-4.96-3.973-8.397-10.048-8.397C5.468-4.714 2.431-2.946 0 0" transform="translate(621.012 143.227)"/>
		<path style="fill:#000;fill-opacity:1;fill-rule:nonzero;stroke:none" d="M0 0v14.093h-3.6v5.009h1.871c1.776 0 2.336.883 2.336 2.651v4.37h5.375v-7.021h5.001v-5.009H5.982V-1.521h4.627V-6.53H6.31C2.196-6.53 0-4.174 0 0" transform="translate(647.37 145.632)"/>
		<path style="fill:#000;fill-opacity:1;fill-rule:nonzero;stroke:none" d="M0 0v25.632h5.982v-5.304h.234c.607 2.701 2.57 5.304 6.449 5.304h1.31V19.69h-1.871c-4.019 0-6.122-1.178-6.122-3.977V0Z" transform="translate(663.538 139.102)"/>
		<path style="fill:#000;fill-opacity:1;fill-rule:nonzero;stroke:none" d="M0 0h5.608l-9.815-30.198c-1.215-3.683-2.944-5.254-6.964-5.254h-3.599v5.008h4.394l1.121 3.585L-17.994 0h5.935l4.253-13.553 1.589-6.481h.28l1.683 6.481z" transform="translate(697.233 164.733)"/>
		<path style="fill:#0f3659;fill-opacity:1;fill-rule:nonzero;stroke:none" d="M0 0c-2.524 1.747-4.089 4.881-4.083 8.981l.124 96.424c.011 8.201 6.295 17.284 13.966 20.185l90.189 34.106c3.835 1.45 7.319 1.092 9.843-.654.002 0 21.89-15.145 21.89-15.145-2.527 1.747-6.01 2.105-9.844.655l-90.19-34.107c-7.671-2.901-13.956-11.984-13.966-20.184l-.124-96.424c-.005-4.101 1.559-7.234 4.083-8.981z" transform="translate(138.157 88.7)"/>
		<path style="fill:#9e7bff;fill-opacity:1;fill-rule:nonzero;stroke:none" d="m0 0-.036-28.016C-.047-36.217-6.331-45.3-14.002-48.201l-26.205-9.91-.054-41.658L24.91-75.124c7.671 2.901 13.955 11.984 13.966 20.184l.09 69.676z" transform="translate(196.257 209.055)"/>
		<path style="fill:#0f3659;fill-opacity:1;fill-rule:nonzero;stroke:none" d="M0 0c-2.524 1.746-6.008 2.104-9.842.654l-90.19-34.107c-7.671-2.901-13.955-11.984-13.966-20.184l-.124-96.424c-.005-4.1 1.56-7.235 4.084-8.981l-38.913 26.924c-2.524 1.746-4.088 4.88-4.083 8.98l.124 96.424c.011 8.201 6.296 17.284 13.966 20.185l90.19 34.106c3.834 1.45 7.317 1.092 9.844-.655z" transform="translate(231.172 259.522)"/>
		<path style="fill:#9e7bff;fill-opacity:1;fill-rule:nonzero;stroke:none" d="M0 0c-.005-4.101 1.56-7.234 4.083-8.981 2.525-1.747 6.01-2.106 9.845-.656l3.1 1.173.054 41.659L.034 26.748z" transform="translate(117.05 109.46)"/>
		<path style="fill:#9e7bff;fill-opacity:1;fill-rule:nonzero;stroke:none" d="m0 0-.002.001-1.21.682a9.1 9.1 0 0 1-2.651.764c-.116.016-.227.037-.344.048-.223.023-.45.03-.679.038a10.123 10.123 0 0 1-1.801-.087 11.583 11.583 0 0 1-.564-.08 13.89 13.89 0 0 1-.812-.174c-.154-.037-.306-.067-.461-.11-.436-.12-.874-.259-1.32-.427l-25.019-9.461-.024-18.226L4.079-12.296l.004 3.315C4.089-4.881 2.524-1.746 0 0" transform="translate(231.174 259.52)"/>
		<path style="fill:#9e7bff;fill-opacity:1;fill-rule:nonzero;stroke:none" d="M0 0c-.034.023-.073.041-.107.063-1.561 1.046-3.472 1.576-5.603 1.482-.3-.013-.608-.055-.915-.092-.141-.017-.277-.021-.419-.043-.189-.03-.387-.084-.579-.124A14.315 14.315 0 0 1-9.844.655l-7.972-3.015-.114-87.9c-.009-8.201-6.294-17.284-13.965-20.185l-82.218-31.092-.011-8.523c-.005-4.1 1.56-7.234 4.083-8.981l.001-.001c2.524-1.746 6.009-2.104 9.843-.654l90.19 34.107c7.671 2.901 13.955 11.984 13.966 20.184l.124 96.424C4.088-4.881 2.524-1.746 0 0" transform="translate(270.086 232.597)"/>
	</g>
</svg>
