<svg xmlns="http://www.w3.org/2000/svg" width="200" height="128">
    <g>
        <path fill="#00b100" d="M180 88.8H20V39.2h160z"/>
        <path fill="#2b2a29" d="M20 39.2h80v49.6H20z"/>
        <g fill="#fff">
            <path d="M113.96 53.1c-.01-.166.038-.25.22-.248 2.759.027 5.519-.183 8.276.015a12.116 12.116 0 0 1 5.508 1.588 7.815 7.815 0 0 1 3.311 3.969 13.93 13.93 0 0 1 .8 6.134 11.142 11.142 0 0 1-1.221 4.428 9.947 9.947 0 0 1-5.039 4.607 14.018 14.018 0 0 1-5.717 1.064q-2.91-.018-5.82-.026c-.319 0-.317 0-.313-.314.049-3.529.021-20.805-.005-21.217zm2.7 10.643v8.446c0 .313 0 .315.316.315h2.863a13.745 13.745 0 0 0 3.215-.308 8.526 8.526 0 0 0 3.237-1.482 8 8 0 0 0 3.005-5.135 11.7 11.7 0 0 0-.264-5.43 6.418 6.418 0 0 0-2.816-3.8 9.1 9.1 0 0 0-4.488-1.3c-1.574-.067-3.153-.028-4.73-.032-.337 0-.338 0-.338.334zM145.454 62.985c.489.148.943.253 1.372.421a4.708 4.708 0 0 1 3.126 3.724 6.385 6.385 0 0 1-.657 4.372 5.673 5.673 0 0 1-2.623 2.366 9.66 9.66 0 0 1-4.255.825c-1.892-.009-3.785-.047-5.678-.061-.226 0-.273-.076-.267-.287.211-7.065.121-14.131.074-21.2 0-.243.063-.3.3-.3 1.932 0 3.864-.017 5.8-.024a8.387 8.387 0 0 1 3.466.6 4.423 4.423 0 0 1 2.576 2.789 5.559 5.559 0 0 1 .2 2.246 5.313 5.313 0 0 1-1.206 3 5.087 5.087 0 0 1-1.912 1.391zm-6.273 5.393v3.832c0 .225.07.305.294.307.9.007 1.8.027 2.7.04a7.564 7.564 0 0 0 2.264-.3 3.778 3.778 0 0 0 2.355-1.729 4.43 4.43 0 0 0 .5-2.652 3.5 3.5 0 0 0-2.148-3.067 7.018 7.018 0 0 0-2.9-.548c-.915-.007-1.829 0-2.744 0-.314 0-.315 0-.316.308zm0-9.855v3.428c0 .133-.005.255.189.249a26.593 26.593 0 0 0 3.68-.11 4.006 4.006 0 0 0 2.273-1.113 3.781 3.781 0 0 0 .963-3.1 2.917 2.917 0 0 0-1.864-2.62 5.25 5.25 0 0 0-2-.406c-.969-.019-1.938 0-2.908.009-.329 0-.33.007-.331.329zM154.6 57.124l-.409-1.711c-.009-.039-.012-.078-.021-.117-.146-.618-.144-.615.362-1a8.635 8.635 0 0 1 3.85-1.7 8.048 8.048 0 0 1 4.107.265 4.778 4.778 0 0 1 3.1 3.166 7.123 7.123 0 0 1-.611 5.707 18.57 18.57 0 0 1-2.641 3.645c-2.041 2.275-4.1 4.535-6.151 6.8-.066.072-.129.149-.223.258.117.011.184.023.25.023q4.826-.06 9.65-.122a3.391 3.391 0 0 0 .377-.023c.172-.021.225.053.215.216q-.059.957-.1 1.913c-.006.129-.05.191-.183.178H153.28c-.228 0-.338-.05-.37-.291-.055-.413-.155-.821-.2-1.235a.511.511 0 0 1 .152-.339c1.016-1.121 2.053-2.222 3.056-3.355q2.334-2.635 4.63-5.307a16.573 16.573 0 0 0 2.165-3.061 5.614 5.614 0 0 0 .615-3.476 3.266 3.266 0 0 0-2.547-2.747 5.685 5.685 0 0 0-4.588 1.007c-.485.331-.912.746-1.367 1.122-.071.06-.136.11-.226.184z"/>
        </g>
        <g fill="#fff">
            <path d="M85.633 54.676h-9.327l.575-1.608h8.752v1.608zM60.769 53.068h8.66L70 54.679h-9.224v-1.611zM53.891 53.068a6.227 6.227 0 0 1 3.725 1.61h-15.7v-1.611zM29.601 53.068h10.905v1.608H29.601v-1.608zM85.633 57.693H75.237l.564-1.6h9.832v1.6zM71.067 57.695H60.768v-1.602h9.735l.564 1.602zM58.839 56.092a4.156 4.156 0 0 1 .452 1.6H41.922v-1.6zM29.601 56.092h10.905v1.601H29.601v-1.601zM74.174 60.718l.571-1.608 7.805.003v1.602l-8.376.003zM71.568 59.11l.569 1.608h-8.298V59.11h7.729zM59.428 59.109a5.231 5.231 0 0 1-.23 1.609h-4.755v-1.609zM32.641 59.117h4.687v1.601h-4.687v-1.601zM45.077 59.109h4.679v1.609h-4.679v-1.609zM68.448 62.454l.001 1.22h-4.61v-1.6h8.784l.545 1.492.527-1.492h8.853v1.6h-4.587l-.003-1.219-.424 1.219-8.662-.002-.424-1.218zM45.077 62.074h13.432a6.016 6.016 0 0 1-1.332 1.6h-12.1v-1.6zM32.641 62.073h4.687v1.601h-4.687v-1.601zM77.961 65.091h4.587v1.6h-4.587v-1.6zM68.448 65.091h-4.609v1.6h4.611v-1.6zM77.034 65.091c-.021 0-.537 1.6-.558 1.6h-6.534s-.574-1.606-.575-1.6zM45.076 65.09h12.077a7.9 7.9 0 0 1 1.44 1.6H45.077v-1.6zM37.327 66.691V65.09h-4.679v1.6l4.679.001zM77.961 68.108h4.586v1.601h-4.586v-1.601zM63.839 68.108h4.609v1.6h-4.609v-1.6zM75.4 69.717c0-.008.566-1.61.574-1.609h-5.551c-.009 0 .57 1.6.57 1.6s4.409.014 4.41.008zM45.077 69.708v-1.6h4.749v1.6zM59.26 68.108a4.638 4.638 0 0 1 .3 1.608h-5.033v-1.608zM32.648 68.108h4.679v1.6h-4.679v-1.6zM77.961 71.063h7.672v1.602h-7.672v-1.602zM60.768 71.063h7.68v1.602h-7.68v-1.602zM74.371 72.665h-2.343l-.562-1.602h3.447l-.542 1.602zM29.6 71.063v1.6h10.9c.005 0 0-1.6 0-1.6H29.6zM59.359 71.063a3.444 3.444 0 0 1-.606 1.6H41.922v-1.6zM73.309 75.686h-.215l-.548-1.605h1.325l-.562 1.605zM77.961 74.081h7.672v1.608h-7.672v-1.608zM41.919 75.686v-1.6h15.789a5.974 5.974 0 0 1-4.069 1.6H41.922M60.768 74.081h7.68v1.608h-7.68v-1.608zM40.5 74.088v1.6s-10.894.006-10.9 0v-1.6s10.892.009 10.9 0z"/>
        </g>
        <g fill="#fff">
            <path d="M88.676 73.243a1.6 1.6 0 1 0 1.6 1.6 1.6 1.6 0 0 0-1.6-1.6m0 2.99a1.39 1.39 0 1 1 1.39-1.39 1.392 1.392 0 0 1-1.39 1.39"/>
            <path d="M88.717 75.367a.511.511 0 0 1-.548-.539.522.522 0 0 1 .548-.552.55.55 0 0 1 .385.15l.2-.193a.82.82 0 0 0-.585-.243.8.8 0 0 0-.843.838.782.782 0 0 0 .843.821.841.841 0 0 0 .605-.236l-.2-.207a.59.59 0 0 1-.4.161"/>
        </g>
        <g fill="#fff">
            <path d="M169.037 73.243a1.6 1.6 0 1 0 1.6 1.6 1.6 1.6 0 0 0-1.6-1.6m0 2.99a1.39 1.39 0 1 1 1.39-1.39 1.392 1.392 0 0 1-1.39 1.39"/>
            <path d="M169.078 75.367a.51.51 0 0 1-.548-.539.522.522 0 0 1 .548-.552.546.546 0 0 1 .384.15l.2-.193a.817.817 0 0 0-.584-.243.8.8 0 0 0-.843.838.782.782 0 0 0 .843.821.841.841 0 0 0 .6-.236l-.2-.207a.586.586 0 0 1-.4.161"/>
        </g>
    </g>
</svg>
