<svg xmlns="http://www.w3.org/2000/svg" width="200" height="128">
	<defs>
		<clipPath id="a">
			<path d="M85.823 50.087h33.817a3.9 3.9 0 1 1 0 7.8H85.823a3.9 3.9 0 1 1 0-7.8z" fill="none"/>
		</clipPath>
	</defs>
	<path d="M85.927 30.6h28.615a3.9 3.9 0 1 1 0 7.8H85.927a3.9 3.9 0 0 1 0-7.8z" fill="#fff"/>
	<path d="M114.541 39.707H85.926a5.2 5.2 0 0 1 0-10.406h28.615a5.2 5.2 0 1 1 0 10.406zM85.926 31.9a2.6 2.6 0 0 0 0 5.2h28.615a2.6 2.6 0 0 0 0-5.2z" fill="#7863ec"/>
	<g clip-path="url(#a)">
		<path fill="#e9e8ff" d="M68.914 37.08h67.635v33.818H68.914z"/>
	</g>
	<path d="M83.117 46.237h33.818a3.9 3.9 0 1 1 0 7.8H83.117a3.9 3.9 0 0 1 0-7.8z" fill="#e9e8fe"/>
	<path d="M116.934 55.34H83.117a5.2 5.2 0 1 1 0-10.4h33.817a5.2 5.2 0 1 1 0 10.4zm-33.817-7.8a2.6 2.6 0 1 0 0 5.2h33.817a2.6 2.6 0 1 0 0-5.2z" fill="#7863ec"/>
	<path d="M85.953 61.819h28.615a3.9 3.9 0 1 1 0 7.8H85.953a3.9 3.9 0 0 1 0-7.8z" fill="#e9e8fe"/>
	<path d="M114.567 70.923H85.953a5.2 5.2 0 0 1 0-10.406h28.614a5.2 5.2 0 0 1 0 10.406zm-28.614-7.8a2.6 2.6 0 0 0 0 5.2h28.614a2.6 2.6 0 1 0 0-5.2z" fill="#7863ec"/>
	<path d="M118.215 81.382H81.661a10.48 10.48 0 0 1-10.4-10.49V24.828a3.208 3.208 0 0 0-3.187-3.228h-4.493V19h4.5a5.812 5.812 0 0 1 5.776 5.835V70.9a7.872 7.872 0 0 0 7.812 7.883h36.54a7.863 7.863 0 0 0 7.83-7.878V24.88a5.863 5.863 0 0 1 5.82-5.88h4.56v2.6h-4.553a3.259 3.259 0 0 0-3.226 3.272V70.9a10.468 10.468 0 0 1-10.425 10.482z" fill="#7863ec"/>
	<path d="M61.357 105.38v-1.546h2.163V91.517h-2.163v-1.546h6.181v1.546h-2.163v12.317h2.163v1.546zm9.559-15.409h6.335a3.769 3.769 0 0 1 4.106 3.974 2.992 2.992 0 0 1-2.494 3.267v.132a3.363 3.363 0 0 1 3.024 3.577c0 2.538-1.7 4.459-3.974 4.459h-7zm1.854 6.667h4.26a2.055 2.055 0 0 0 2.34-2.138v-.751a2.055 2.055 0 0 0-2.34-2.141h-4.26zm0 7.108h4.57a2.257 2.257 0 0 0 2.56-2.384v-.751a2.257 2.257 0 0 0-2.56-2.384h-4.57zM97.318 92.4h-.11l-1.3 2.582-3.686 6.711-3.665-6.711-1.3-2.56h-.111v12.958h-1.81V89.971h2.428l4.415 8.3h.089l4.437-8.3h2.428v15.409h-1.81zm23.113 0h-.111l-1.3 2.582-3.687 6.711-3.664-6.711-1.3-2.56h-.11v12.958h-1.81V89.971h2.428l4.415 8.3h.088l4.438-8.3h2.428v15.409h-1.81zm15.077 16.6h-2.273a1.7 1.7 0 0 1-1.855-1.81v-1.567c-3.554-.332-5.8-3.113-5.8-7.947 0-5.166 2.56-7.97 6.534-7.97s6.534 2.8 6.534 7.97c0 4.7-2.119 7.439-5.5 7.9v1.877h2.362zm1.148-10.044V96.4c0-3.046-1.876-5.033-4.547-5.033s-4.548 1.987-4.548 5.033v2.561c0 3.046 1.877 5.033 4.548 5.033s4.547-1.994 4.547-5.038z" fill="#7863ec"/>
</svg>
