<svg xmlns="http://www.w3.org/2000/svg" viewBox="149.51 149.51 441.48 175.23" style="isolation:isolate">
	<defs>
		<clipPath id="a">
			<path d="M0 0h712v474H0z"/>
		</clipPath>
	</defs>
	<g clip-path="url(#a)">
		<path fill="#426AB3" d="M565.85 307.79a8.41 8.41 0 0 1 8.575-8.158 8.41 8.41 0 0 1-.175 16.818 8.43 8.43 0 0 1-8.4-8.66zm14.83.55v-1.09c-.136-3.45-2.972-6.176-6.425-6.176s-6.289 2.726-6.425 6.176v1.09c.136 3.45 2.972 6.176 6.425 6.176s6.289-2.726 6.425-6.176zm-7.68 3.91h-2.14v-8.78h4a2.662 2.662 0 0 1 3 2.77 2.61 2.61 0 0 1-1.59 2.65l2 3.36h-2.35l-1.64-3H573v3zm1.6-4.62c.67 0 1-.3 1-.93v-.63c0-.63-.38-.92-1-.92H573v2.48h1.6zM158 305h77v11h-77v-11zm0-10h77v-11h-77v11zm22-21h33v-11h-33v11zm0-21h33v-11h-33v11zm0-21h33v-11h-33v11zm33-32h-33v11h33v-11zm-55-10h77v-11h-77v11zm0-21h77v-11h-77v11zm88 126h117.37a41.772 41.772 0 0 0 4.42-11H246v11zm108.18-53H268v11h95.36a42.463 42.463 0 0 0-9.18-11zM268 221v11h86.18a42.463 42.463 0 0 0 9.18-11H268zm95.37-42H246v11h121.79a41.772 41.772 0 0 0-4.42-11zM327 158h-81v11h109.33A41.84 41.84 0 0 0 327 158zm-59 53h33v-11h-33v11zm64 0h35.53a42.005 42.005 0 0 0 1.47-11h-37v11zm-64 63h33v-11h-33v11zm64-11v11h37a42.005 42.005 0 0 0-1.47-11H332zm-86 53h81a41.69 41.69 0 0 0 28.33-11H246v11zm220 0 3.82-11h-7.64l3.82 11zm-7.33-21h14.66l3.87-11h-22.4l3.87 11zm-7.38-21h29.42l3.86-11h-37.14l3.86 11zm-7.37-21h44.16l3.86-11h-51.88l3.86 11zM400 211h59.43l-3.82-11H400v11zm79.87-21H554v-11h-70.3l-3.83 11zM491 158l-3.82 11H554v-11h-63zM378 316h55v-11h-55v11zm0-21h55v-11h-55v11zm22-21h33v-11h-33v11zm0-21h33v-11h-33v11zm132-53h-55.6l-3.83 11H532v-11zm-33 32h33v-11h-62.91l-3.09 8.89-3.09-8.89H400v11h33v-10.11l3.55 10.11h58.9l3.55-10.11V232zm33 10h-33v11h33v-11zm-33 32h33v-11h-33v11zm0 21h55v-11h-55v11zm0 21h55v-11h-55v11zm-46.87-126-3.83-11H378v11h74.13zm-7.3-21L441 158h-63v11h66.83z"/>
	</g>
</svg>
