<svg xmlns="http://www.w3.org/2000/svg" style="isolation:isolate" viewBox="0 0 712 474" width="712pt" height="632">
	<defs>
		<clipPath id="a">
			<path d="M0 0h712v474H0z"/>
		</clipPath>
	</defs>
	<g clip-path="url(#a)">
		<path d="M565.85 307.79a8.41 8.41 0 0 1 8.575-8.158 8.41 8.41 0 0 1-.175 16.818 8.43 8.43 0 0 1-8.4-8.66Zm14.83.55v-1.09a6.43 6.43 0 0 0-6.425-6.176 6.43 6.43 0 0 0-6.425 6.176v1.09a6.43 6.43 0 0 0 6.425 6.176 6.43 6.43 0 0 0 6.425-6.176Zm-7.68 3.91h-2.14v-8.78h4a2.662 2.662 0 0 1 3 2.77 2.61 2.61 0 0 1-1.59 2.65l2 3.36h-2.35l-1.64-3H573v3Zm1.6-4.62c.67 0 1-.3 1-.93v-.63c0-.63-.38-.92-1-.92H573v2.48h1.6ZM158 305h77v11h-77v-11Zm0-10h77v-11h-77v11Zm22-21h33v-11h-33v11Zm0-21h33v-11h-33v11Zm0-21h33v-11h-33v11Zm33-32h-33v11h33v-11Zm-55-10h77v-11h-77v11Zm0-21h77v-11h-77v11Zm88 126h117.37a41.772 41.772 0 0 0 4.42-11H246v11Zm108.18-53H268v11h95.36a42.463 42.463 0 0 0-9.18-11ZM268 221v11h86.18a42.463 42.463 0 0 0 9.18-11H268Zm95.37-42H246v11h121.79a41.772 41.772 0 0 0-4.42-11ZM327 158h-81v11h109.33A41.84 41.84 0 0 0 327 158Zm-59 53h33v-11h-33v11Zm64 0h35.53a42.005 42.005 0 0 0 1.47-11h-37v11Zm-64 63h33v-11h-33v11Zm64-11v11h37a42.005 42.005 0 0 0-1.47-11H332Zm-86 53h81a41.69 41.69 0 0 0 28.33-11H246v11Zm220 0 3.82-11h-7.64l3.82 11Zm-7.33-21h14.66l3.87-11h-22.4l3.87 11Zm-7.38-21h29.42l3.86-11h-37.14l3.86 11Zm-7.37-21h44.16l3.86-11h-51.88l3.86 11ZM400 211h59.43l-3.82-11H400v11Zm79.87-21H554v-11h-70.3l-3.83 11ZM491 158l-3.82 11H554v-11h-63ZM378 316h55v-11h-55v11Zm0-21h55v-11h-55v11Zm22-21h33v-11h-33v11Zm0-21h33v-11h-33v11Zm132-53h-55.6l-3.83 11H532v-11Zm-33 32h33v-11h-62.91l-3.09 8.89-3.09-8.89H400v11h33v-10.11l3.55 10.11h58.9l3.55-10.11V232Zm33 10h-33v11h33v-11Zm-33 32h33v-11h-33v11Zm0 21h55v-11h-55v11Zm0 21h55v-11h-55v11Zm-46.87-126-3.83-11H378v11h74.13Zm-7.3-21L441 158h-63v11h66.83Z" fill="#426AB3"/>
	</g>
</svg>
