<svg data-name="Layer 1" xmlns="http://www.w3.org/2000/svg" xmlns:xlink="http://www.w3.org/1999/xlink" viewBox="0 0 128 128">
	<defs>
		<linearGradient id="a" x1="56" y1="50" x2="72" y2="50" gradientUnits="userSpaceOnUse">
			<stop offset=".15"/>
			<stop offset="1" stop-opacity="0"/>
		</linearGradient>
		<linearGradient id="b" x1="3231" y1="-3591" x2="3249" y2="-3591" gradientTransform="translate(-3142 3642)" gradientUnits="userSpaceOnUse">
			<stop offset=".1"/>
			<stop offset=".8" stop-opacity="0"/>
		</linearGradient>
		<linearGradient id="c" x1="56" y1="26" x2="78" y2="26" xlink:href="#a"/>
		<linearGradient id="e" x1="56" y1="72" x2="120" y2="8" gradientUnits="userSpaceOnUse">
			<stop offset=".1" stop-color="#08bdba"/>
			<stop offset=".9" stop-color="#0f62fe"/>
		</linearGradient>
		<mask id="d" x="56" y="8" width="64" height="64" maskUnits="userSpaceOnUse">
			<path d="M96 44v16H76V40h8v-4h-9.846A2.154 2.154 0 0 0 72 38.154V48H58v4h14v9.846A2.154 2.154 0 0 0 74.154 64h23.692A2.154 2.154 0 0 0 100 61.846V44Z" fill="#fff"/>
			<path fill="#fff" d="M58 24h26v4H58z"/>
			<path fill="url(#a)" d="M56 46h16v8H56z"/>
			<path transform="rotate(90 98 51)" fill="url(#b)" d="M89 47h18v8H89z"/>
			<path fill="url(#c)" d="M56 22h22v8H56z"/>
		</mask>
	</defs>
	<g mask="url(#d)">
		<path data-name="Color" fill="url(#e)" d="M56 8h64v64H56z"/>
	</g>
	<path d="M114 44H90a1.998 1.998 0 0 1-2-2V18a2 2 0 0 1 2-2h24a2 2 0 0 1 2 2v24a1.998 1.998 0 0 1-2 2m-22-4h20V20H92Z" fill="#001d6c"/>
	<path d="M8.742 102v-1.484h1.288v-6.804H8.742v-1.484h4.439v1.484h-1.303v6.804h1.303V102Z"/>
	<path d="M15.07 92.228h4.521a3.06 3.06 0 0 1 1.085.182 2.366 2.366 0 0 1 .82.504 2.09 2.09 0 0 1 .51.791 2.908 2.908 0 0 1 .175 1.03 2.666 2.666 0 0 1-.146.944 1.844 1.844 0 0 1-.392.637 1.615 1.615 0 0 1-.56.378 1.946 1.946 0 0 1-.652.14v.084a2.165 2.165 0 0 1 .694.126 2.04 2.04 0 0 1 .686.4 2.18 2.18 0 0 1 .525.7 2.378 2.378 0 0 1 .21 1.057 3.143 3.143 0 0 1-.189 1.099 2.787 2.787 0 0 1-.525.89 2.447 2.447 0 0 1-.798.594 2.344 2.344 0 0 1-1.008.216H15.07Zm1.848 4.074H19.2a1.08 1.08 0 0 0 .784-.273 1.019 1.019 0 0 0 .28-.763v-.434a1.017 1.017 0 0 0-.28-.763 1.075 1.075 0 0 0-.784-.273h-2.282Zm0 4.13h2.576a1.171 1.171 0 0 0 .826-.273 1.026 1.026 0 0 0 .294-.79v-.477a1.05 1.05 0 0 0-.294-.798 1.151 1.151 0 0 0-.826-.28h-2.576Z"/>
	<path d="M31.73 94.986h-.056l-.756 1.554-2.002 3.696-2.002-3.696-.756-1.554h-.056V102h-1.75v-9.772h2.086l2.506 4.774H29l2.478-4.774h2.002V102h-1.75Z"/>
	<path d="M42.875 102.168a4.585 4.585 0 0 1-1.744-.316 3.497 3.497 0 0 1-1.33-.944 4.268 4.268 0 0 1-.847-1.561 7.18 7.18 0 0 1-.294-2.163 7.47 7.47 0 0 1 .294-2.19 4.464 4.464 0 0 1 .847-1.61 3.603 3.603 0 0 1 1.33-.987 4.34 4.34 0 0 1 1.744-.337 3.96 3.96 0 0 1 2.184.56 3.832 3.832 0 0 1 1.384 1.694l-1.582.84a2.212 2.212 0 0 0-.685-1.057 1.965 1.965 0 0 0-1.301-.399 2.071 2.071 0 0 0-1.647.7 2.888 2.888 0 0 0-.607 1.96v1.54a2.827 2.827 0 0 0 .607 1.953 2.1 2.1 0 0 0 1.647.68 2.006 2.006 0 0 0 1.35-.449 2.582 2.582 0 0 0 .764-1.106l1.498.883a4.304 4.304 0 0 1-1.414 1.7 3.775 3.775 0 0 1-2.198.609Z"/>
	<path d="M49.748 102a1.786 1.786 0 0 1-1.358-.462 1.83 1.83 0 0 1-.434-1.302V91.64h1.792v8.918h.966V102Z"/>
	<path d="M54.97 102.168a3.556 3.556 0 0 1-1.406-.266 2.919 2.919 0 0 1-1.065-.77 3.508 3.508 0 0 1-.678-1.21 4.946 4.946 0 0 1-.239-1.59 4.886 4.886 0 0 1 .238-1.582 3.455 3.455 0 0 1 .679-1.197 2.96 2.96 0 0 1 1.064-.763 3.558 3.558 0 0 1 1.406-.266 3.611 3.611 0 0 1 1.414.266 2.951 2.951 0 0 1 1.072.763 3.455 3.455 0 0 1 .679 1.197 4.886 4.886 0 0 1 .238 1.582 4.946 4.946 0 0 1-.238 1.589 3.508 3.508 0 0 1-.68 1.21 2.911 2.911 0 0 1-1.07.77 3.61 3.61 0 0 1-1.414.267Zm0-1.442a1.458 1.458 0 0 0 1.12-.434 1.8 1.8 0 0 0 .406-1.274V97.66a1.778 1.778 0 0 0-.406-1.26 1.456 1.456 0 0 0-1.12-.435 1.437 1.437 0 0 0-1.105.435 1.778 1.778 0 0 0-.407 1.26v1.357a1.801 1.801 0 0 0 .407 1.275 1.44 1.44 0 0 0 1.105.434Z"/>
	<path d="M64.322 100.782h-.07a2.383 2.383 0 0 1-.258.525 1.902 1.902 0 0 1-.407.441 1.837 1.837 0 0 1-.588.308 2.531 2.531 0 0 1-.79.112 2.105 2.105 0 0 1-1.737-.742 3.277 3.277 0 0 1-.602-2.114v-4.62h1.792v4.438a1.927 1.927 0 0 0 .294 1.155 1.088 1.088 0 0 0 .938.399 1.998 1.998 0 0 0 .525-.07 1.337 1.337 0 0 0 .455-.216 1.217 1.217 0 0 0 .323-.365 1 1 0 0 0 .126-.51v-4.83h1.792V102h-1.792Z"/>
	<path d="M72.722 100.782h-.07a1.87 1.87 0 0 1-.742 1.008 2.181 2.181 0 0 1-1.274.378 2.475 2.475 0 0 1-2.121-.994 4.714 4.714 0 0 1-.735-2.842 4.659 4.659 0 0 1 .735-2.821 2.482 2.482 0 0 1 2.121-.987 2.213 2.213 0 0 1 1.274.37 1.84 1.84 0 0 1 .742 1.002h.07V91.64h1.792V102h-1.792Zm-1.513-.098a1.816 1.816 0 0 0 1.078-.308 1.016 1.016 0 0 0 .435-.882V97.17a1.013 1.013 0 0 0-.435-.854 1.758 1.758 0 0 0-1.078-.322 1.452 1.452 0 0 0-1.127.469 1.792 1.792 0 0 0-.427 1.253v1.26a1.764 1.764 0 0 0 .427 1.246 1.46 1.46 0 0 0 1.127.462Z"/>
	<path d="M78.826 97.828a2.785 2.785 0 0 1-1.995-.82 2.736 2.736 0 0 1-.602-.916 3.148 3.148 0 0 1 0-2.296 2.747 2.747 0 0 1 .602-.917 2.853 2.853 0 0 1 3.094-.602 2.717 2.717 0 0 1 .889.602 2.977 2.977 0 0 1 0 4.13 2.718 2.718 0 0 1-.89.602 2.783 2.783 0 0 1-1.098.217Zm0-.63a2.262 2.262 0 0 0 .819-.147 1.907 1.907 0 0 0 .665-.42 2.105 2.105 0 0 0 .448-.644 1.993 1.993 0 0 0 .168-.833v-.42a1.99 1.99 0 0 0-.168-.833 2.121 2.121 0 0 0-.448-.644 1.921 1.921 0 0 0-.666-.42 2.362 2.362 0 0 0-1.637 0 1.92 1.92 0 0 0-.665.42 2.121 2.121 0 0 0-.448.644 2.004 2.004 0 0 0-.168.833v.42a2.007 2.007 0 0 0 .168.833 2.105 2.105 0 0 0 .448.644 1.906 1.906 0 0 0 .665.42 2.264 2.264 0 0 0 .82.147Zm-.378-.784h-.799v-2.926h1.387a1.038 1.038 0 0 1 .791.276.96.96 0 0 1 .259.683 1.035 1.035 0 0 1-.148.578.927.927 0 0 1-.384.34l.63 1.05h-.869l-.489-.91h-.378Zm.448-1.512q.377 0 .377-.308v-.168q0-.308-.378-.308h-.447v.784Z"/>
	<path d="M12.942 120.168a4.58 4.58 0 0 1-1.743-.316 3.498 3.498 0 0 1-1.33-.944 4.269 4.269 0 0 1-.846-1.561 7.18 7.18 0 0 1-.294-2.163 7.47 7.47 0 0 1 .294-2.19 4.466 4.466 0 0 1 .846-1.61 3.603 3.603 0 0 1 1.33-.987 4.337 4.337 0 0 1 1.743-.337 3.955 3.955 0 0 1 2.184.56 3.841 3.841 0 0 1 1.387 1.695l-1.582.84a2.235 2.235 0 0 0-.687-1.058 1.965 1.965 0 0 0-1.302-.398 2.07 2.07 0 0 0-1.645.7 2.893 2.893 0 0 0-.609 1.96v1.54a2.832 2.832 0 0 0 .609 1.952 2.099 2.099 0 0 0 1.645.68 2.005 2.005 0 0 0 1.351-.448 2.581 2.581 0 0 0 .764-1.107l1.498.883a4.305 4.305 0 0 1-1.414 1.7 3.78 3.78 0 0 1-2.199.609Z"/>
	<path d="M20.922 120.168a3.565 3.565 0 0 1-1.407-.266 2.922 2.922 0 0 1-1.064-.77 3.506 3.506 0 0 1-.679-1.21 4.946 4.946 0 0 1-.238-1.59 4.886 4.886 0 0 1 .239-1.581 3.453 3.453 0 0 1 .678-1.198 2.963 2.963 0 0 1 1.064-.762 3.567 3.567 0 0 1 1.407-.266 3.614 3.614 0 0 1 1.414.266 2.95 2.95 0 0 1 1.071.762 3.467 3.467 0 0 1 .679 1.198 4.886 4.886 0 0 1 .238 1.582 4.946 4.946 0 0 1-.238 1.588 3.521 3.521 0 0 1-.679 1.211 2.91 2.91 0 0 1-1.071.77 3.613 3.613 0 0 1-1.414.266Zm0-1.442a1.459 1.459 0 0 0 1.12-.434 1.801 1.801 0 0 0 .406-1.274v-1.358a1.778 1.778 0 0 0-.406-1.26 1.456 1.456 0 0 0-1.12-.435 1.438 1.438 0 0 0-1.106.435 1.774 1.774 0 0 0-.406 1.26v1.357a1.796 1.796 0 0 0 .406 1.275 1.44 1.44 0 0 0 1.106.434Z"/>
	<path d="M30.441 118.782h-.069a1.87 1.87 0 0 1-.742 1.008 2.184 2.184 0 0 1-1.274.378 2.473 2.473 0 0 1-2.12-.994 4.713 4.713 0 0 1-.736-2.842 4.658 4.658 0 0 1 .735-2.821 2.48 2.48 0 0 1 2.12-.987 2.216 2.216 0 0 1 1.275.37 1.84 1.84 0 0 1 .742 1.002h.07v-4.256h1.791V120h-1.792Zm-1.511-.098a1.816 1.816 0 0 0 1.078-.308 1.016 1.016 0 0 0 .433-.882v-2.324a1.012 1.012 0 0 0-.433-.854 1.757 1.757 0 0 0-1.078-.322 1.452 1.452 0 0 0-1.127.469 1.787 1.787 0 0 0-.427 1.253v1.26a1.76 1.76 0 0 0 .427 1.246 1.46 1.46 0 0 0 1.127.462Z"/>
	<path d="M37.26 120.168a3.64 3.64 0 0 1-1.45-.274 2.995 2.995 0 0 1-1.077-.769 3.433 3.433 0 0 1-.68-1.204 5.422 5.422 0 0 1-.006-3.157 3.44 3.44 0 0 1 .665-1.197 2.933 2.933 0 0 1 1.064-.77 3.566 3.566 0 0 1 1.428-.273 3.472 3.472 0 0 1 1.484.294 2.863 2.863 0 0 1 1.037.798 3.49 3.49 0 0 1 .61 1.17 4.86 4.86 0 0 1 .2 1.42v.588h-4.857v.18a1.786 1.786 0 0 0 .448 1.272 1.732 1.732 0 0 0 1.33.48 1.98 1.98 0 0 0 1.099-.277 3.129 3.129 0 0 0 .762-.71l.966 1.082a3.002 3.002 0 0 1-1.224.99 4.26 4.26 0 0 1-1.799.357Zm-.028-6.3a1.436 1.436 0 0 0-1.134.476 1.793 1.793 0 0 0-.42 1.232v.112h2.996v-.127a1.916 1.916 0 0 0-.371-1.224 1.285 1.285 0 0 0-1.072-.469Z"/>
	<path d="M45.534 120v-9.773h6.44v1.64h-4.592v2.365h4.06v1.638h-4.06v2.492h4.592V120Z"/>
	<path d="M53.822 120v-7.308h1.792v1.218h.07a2.33 2.33 0 0 1 .707-.987 2.04 2.04 0 0 1 1.337-.399 2.106 2.106 0 0 1 1.736.741 3.28 3.28 0 0 1 .602 2.115V120h-1.792v-4.439a2.026 2.026 0 0 0-.28-1.175 1.059 1.059 0 0 0-.924-.392 1.868 1.868 0 0 0-.539.077 1.506 1.506 0 0 0-.462.224 1.164 1.164 0 0 0-.329.364.997.997 0 0 0-.126.51V120Z"/>
	<path d="M68.647 120.616a2.394 2.394 0 0 1-.203 1.015 1.72 1.72 0 0 1-.665.735 3.632 3.632 0 0 1-1.19.449 10.384 10.384 0 0 1-3.346.034 3.761 3.761 0 0 1-1.057-.336 1.403 1.403 0 0 1-.595-.54 1.445 1.445 0 0 1-.182-.727 1.292 1.292 0 0 1 .343-.959 1.69 1.69 0 0 1 .96-.441v-.154a1.192 1.192 0 0 1-.694-.442 1.268 1.268 0 0 1-.245-.777 1.063 1.063 0 0 1 .112-.498 1.17 1.17 0 0 1 .301-.372 1.885 1.885 0 0 1 .427-.26 2.523 2.523 0 0 1 .504-.16v-.057a2.193 2.193 0 0 1-1.001-.854 2.419 2.419 0 0 1-.329-1.272 2.28 2.28 0 0 1 .77-1.798 3.313 3.313 0 0 1 2.254-.678 5.202 5.202 0 0 1 .665.042 2.96 2.96 0 0 1 .61.14v-.238a.928.928 0 0 1 1.035-1.063h1.134v1.372h-1.554v.195a2.12 2.12 0 0 1 .855.84 2.467 2.467 0 0 1 .28 1.19 2.255 2.255 0 0 1-.764 1.779 3.333 3.333 0 0 1-2.26.672 4.408 4.408 0 0 1-1.12-.126 1.204 1.204 0 0 0-.365.259.555.555 0 0 0-.153.399q0 .545.952.546h1.96a2.86 2.86 0 0 1 1.953.553 1.97 1.97 0 0 1 .608 1.532Zm-1.68.21a.629.629 0 0 0-.28-.546 1.755 1.755 0 0 0-.965-.196H63.23a.892.892 0 0 0-.378.756.753.753 0 0 0 .35.658 2.214 2.214 0 0 0 1.19.238h.896a2.74 2.74 0 0 0 1.28-.224.735.735 0 0 0 .4-.686Zm-2.156-4.606q1.316 0 1.317-1.113v-.237q0-1.115-1.317-1.114t-1.316 1.114v.236q0 1.114 1.316 1.114Z"/>
	<path d="M70.58 111.628a1.087 1.087 0 0 1-.806-.252.886.886 0 0 1-.245-.644v-.28a.887.887 0 0 1 .245-.644 1.402 1.402 0 0 1 1.604 0 .873.873 0 0 1 .252.644v.28a.872.872 0 0 1-.252.644 1.095 1.095 0 0 1-.799.252Zm-.896 1.064h1.792V120h-1.792Z"/>
	<path d="M73.548 120v-7.308h1.792v1.218h.07a2.33 2.33 0 0 1 .707-.987 2.04 2.04 0 0 1 1.337-.399 2.106 2.106 0 0 1 1.735.741 3.28 3.28 0 0 1 .603 2.115V120H78v-4.439a2.026 2.026 0 0 0-.28-1.175 1.059 1.059 0 0 0-.924-.392 1.868 1.868 0 0 0-.539.077 1.506 1.506 0 0 0-.462.224 1.164 1.164 0 0 0-.329.364.997.997 0 0 0-.126.51V120Z"/>
	<path d="M84.733 120.168a3.636 3.636 0 0 1-1.449-.274 2.994 2.994 0 0 1-1.078-.769 3.432 3.432 0 0 1-.679-1.204 5.424 5.424 0 0 1-.007-3.157 3.408 3.408 0 0 1 .666-1.197 2.933 2.933 0 0 1 1.063-.77 3.565 3.565 0 0 1 1.428-.273 3.476 3.476 0 0 1 1.484.294 2.85 2.85 0 0 1 1.036.798 3.454 3.454 0 0 1 .61 1.17 4.86 4.86 0 0 1 .202 1.42v.588H83.15v.18a1.786 1.786 0 0 0 .449 1.272 1.728 1.728 0 0 0 1.329.48 1.98 1.98 0 0 0 1.1-.277 3.145 3.145 0 0 0 .762-.71l.966 1.082a3.015 3.015 0 0 1-1.224.99 4.263 4.263 0 0 1-1.8.357Zm-.028-6.3a1.436 1.436 0 0 0-1.134.476 1.793 1.793 0 0 0-.42 1.232v.112h2.996v-.127a1.917 1.917 0 0 0-.37-1.224 1.286 1.286 0 0 0-1.072-.469Z"/>
</svg>
