<svg data-name="Layer 1" xmlns="http://www.w3.org/2000/svg" xmlns:xlink="http://www.w3.org/1999/xlink" viewBox="0 0 128 128">
	<defs>
		<linearGradient id="a" x1="112.928" y1="44.928" x2="91.072" y2="7.072" gradientUnits="userSpaceOnUse">
			<stop offset=".1" stop-opacity="0"/>
			<stop offset=".5"/>
		</linearGradient>
		<linearGradient id="b" x1="658.928" y1="-5407.072" x2="637.072" y2="-5444.928" gradientTransform="translate(-574 5480)" xlink:href="#a"/>
		<linearGradient id="d" x1="56" y1="72" x2="120" y2="8" gradientUnits="userSpaceOnUse">
			<stop offset=".1" stop-color="#08bdba"/>
			<stop offset=".9" stop-color="#0f62fe"/>
		</linearGradient>
		<mask id="c" x="56" y="8" width="64" height="64" maskUnits="userSpaceOnUse">
			<g fill="#fff">
				<path d="M88.001 68.006a28.004 28.004 0 0 1-7.249-55.052l1.035 3.864A24.004 24.004 0 0 0 88 64.006Z"/>
				<path d="M112.238 53.994a27.91 27.91 0 0 1-16.99 13.052l-1.036-3.864a24.004 24.004 0 0 0-6.211-47.188l-.003-4a27.99 27.99 0 0 1 24.24 42Z"/>
			</g>
			<path fill="url(#a)" d="M86 10h32v32H86z"/>
			<path transform="rotate(180 74 54)" fill="url(#b)" d="M58 38h32v32H58z"/>
		</mask>
	</defs>
	<g mask="url(#c)">
		<path fill="url(#d)" d="M56 8h64v64H56z"/>
	</g>
	<path d="M76 66h-4v-7.64l1.607-.321C76.523 57.456 80 55.24 80 48v-2.764l-8-4v-4.472l8-4V32c0-10.935 7.85-18 20-18h4v7.64l-1.607.321C99.477 22.544 96 24.76 96 32v.764l8 4v4.472l-8 4V48c0 10.935-7.85 18-20 18Zm0-4c9.87 0 16-5.364 16-14v-5.236L99.528 39 92 35.236V32c0-9.156 4.77-12.385 8-13.52V18c-9.87 0-16 5.364-16 14v3.236L76.472 39 84 42.764V48c0 9.156-4.77 12.385-8 13.52Z" fill="#001d6c"/>
	<path d="M8.742 102v-1.484h1.288v-6.804H8.742v-1.484h4.438v1.484h-1.302v6.804h1.302V102Z"/>
	<path d="M15.07 92.228h4.522a3.063 3.063 0 0 1 1.085.182 2.37 2.37 0 0 1 .82.504 2.095 2.095 0 0 1 .51.791 2.92 2.92 0 0 1 .175 1.03 2.654 2.654 0 0 1-.147.944 1.843 1.843 0 0 1-.392.637 1.608 1.608 0 0 1-.56.378 1.948 1.948 0 0 1-.651.14v.084a2.167 2.167 0 0 1 .693.126 2.039 2.039 0 0 1 .686.4 2.188 2.188 0 0 1 .525.7 2.385 2.385 0 0 1 .21 1.057 3.143 3.143 0 0 1-.189 1.099 2.784 2.784 0 0 1-.525.89 2.449 2.449 0 0 1-.798.594 2.342 2.342 0 0 1-1.008.216H15.07Zm1.848 4.074H19.2a1.079 1.079 0 0 0 .784-.273 1.019 1.019 0 0 0 .28-.763v-.434a1.017 1.017 0 0 0-.28-.763 1.075 1.075 0 0 0-.784-.273h-2.282Zm0 4.13h2.576a1.17 1.17 0 0 0 .826-.273 1.026 1.026 0 0 0 .294-.79v-.477a1.05 1.05 0 0 0-.294-.798 1.15 1.15 0 0 0-.826-.28h-2.576Z"/>
	<path d="M31.73 94.986h-.056l-.756 1.554-2.002 3.696-2.002-3.696-.756-1.554h-.056V102h-1.75v-9.772h2.085l2.507 4.774H29l2.478-4.774h2.002V102h-1.75Z"/>
	<path d="M42.874 102.168a4.585 4.585 0 0 1-1.744-.316 3.497 3.497 0 0 1-1.33-.944 4.282 4.282 0 0 1-.846-1.561 7.196 7.196 0 0 1-.294-2.163 7.486 7.486 0 0 1 .294-2.19 4.48 4.48 0 0 1 .846-1.61 3.603 3.603 0 0 1 1.33-.987 4.34 4.34 0 0 1 1.744-.337 3.96 3.96 0 0 1 2.184.56 3.832 3.832 0 0 1 1.385 1.695l-1.582.84a2.21 2.21 0 0 0-.686-1.058 1.965 1.965 0 0 0-1.3-.398 2.071 2.071 0 0 0-1.647.7 2.888 2.888 0 0 0-.607 1.96v1.54a2.827 2.827 0 0 0 .607 1.952 2.1 2.1 0 0 0 1.646.68 2.006 2.006 0 0 0 1.35-.448 2.582 2.582 0 0 0 .764-1.107l1.498.883a4.304 4.304 0 0 1-1.414 1.7 3.775 3.775 0 0 1-2.198.609Z"/>
	<path d="M49.748 102a1.785 1.785 0 0 1-1.359-.462 1.829 1.829 0 0 1-.433-1.302V91.64h1.792v8.918h.965V102Z"/>
	<path d="M54.97 102.168a3.556 3.556 0 0 1-1.407-.266 2.919 2.919 0 0 1-1.065-.77 3.508 3.508 0 0 1-.678-1.21 4.946 4.946 0 0 1-.238-1.59 4.886 4.886 0 0 1 .238-1.582 3.455 3.455 0 0 1 .679-1.197 2.96 2.96 0 0 1 1.064-.763 3.558 3.558 0 0 1 1.406-.266 3.611 3.611 0 0 1 1.414.266 2.951 2.951 0 0 1 1.072.763 3.455 3.455 0 0 1 .678 1.197 4.886 4.886 0 0 1 .239 1.582 4.946 4.946 0 0 1-.239 1.589 3.508 3.508 0 0 1-.678 1.21 2.911 2.911 0 0 1-1.072.77 3.61 3.61 0 0 1-1.414.267Zm0-1.442a1.459 1.459 0 0 0 1.12-.434 1.801 1.801 0 0 0 .405-1.274V97.66a1.778 1.778 0 0 0-.406-1.26 1.456 1.456 0 0 0-1.12-.435 1.437 1.437 0 0 0-1.105.435 1.778 1.778 0 0 0-.406 1.26v1.357a1.801 1.801 0 0 0 .406 1.275 1.44 1.44 0 0 0 1.105.434Z"/>
	<path d="M64.322 100.782h-.07a2.383 2.383 0 0 1-.259.525 1.9 1.9 0 0 1-.406.441 1.835 1.835 0 0 1-.588.308 2.531 2.531 0 0 1-.791.112 2.106 2.106 0 0 1-1.736-.742 3.277 3.277 0 0 1-.602-2.114v-4.62h1.792v4.438a1.927 1.927 0 0 0 .294 1.155 1.088 1.088 0 0 0 .937.399 2 2 0 0 0 .526-.07 1.338 1.338 0 0 0 .455-.216 1.217 1.217 0 0 0 .322-.365 1 1 0 0 0 .126-.51v-4.83h1.793V102h-1.793Z"/>
	<path d="M72.722 100.782h-.07a1.87 1.87 0 0 1-.742 1.008 2.181 2.181 0 0 1-1.274.378 2.475 2.475 0 0 1-2.121-.994 4.714 4.714 0 0 1-.735-2.842 4.659 4.659 0 0 1 .735-2.821 2.482 2.482 0 0 1 2.121-.987 2.213 2.213 0 0 1 1.274.37 1.84 1.84 0 0 1 .742 1.002h.07V91.64h1.792V102h-1.792Zm-1.513-.098a1.816 1.816 0 0 0 1.078-.308 1.016 1.016 0 0 0 .435-.882V97.17a1.013 1.013 0 0 0-.435-.854 1.758 1.758 0 0 0-1.078-.322 1.452 1.452 0 0 0-1.127.469 1.792 1.792 0 0 0-.427 1.253v1.26a1.764 1.764 0 0 0 .427 1.246 1.46 1.46 0 0 0 1.127.462Z"/>
	<path d="M78.826 97.828a2.785 2.785 0 0 1-1.995-.82 2.736 2.736 0 0 1-.602-.916 3.148 3.148 0 0 1 0-2.296 2.747 2.747 0 0 1 .602-.917 2.853 2.853 0 0 1 3.094-.602 2.717 2.717 0 0 1 .889.602 2.977 2.977 0 0 1 0 4.13 2.718 2.718 0 0 1-.89.602 2.783 2.783 0 0 1-1.098.217Zm0-.63a2.262 2.262 0 0 0 .819-.147 1.907 1.907 0 0 0 .665-.42 2.105 2.105 0 0 0 .448-.644 1.993 1.993 0 0 0 .168-.833v-.42a1.99 1.99 0 0 0-.168-.833 2.121 2.121 0 0 0-.448-.644 1.921 1.921 0 0 0-.666-.42 2.362 2.362 0 0 0-1.637 0 1.92 1.92 0 0 0-.665.42 2.121 2.121 0 0 0-.448.644 2.004 2.004 0 0 0-.168.833v.42a2.007 2.007 0 0 0 .168.833 2.105 2.105 0 0 0 .448.644 1.906 1.906 0 0 0 .665.42 2.264 2.264 0 0 0 .82.147Zm-.378-.784h-.799v-2.926h1.387a1.038 1.038 0 0 1 .791.276.96.96 0 0 1 .259.683 1.035 1.035 0 0 1-.148.578.927.927 0 0 1-.384.34l.63 1.05h-.869l-.489-.91h-.378Zm.448-1.512q.377 0 .377-.308v-.168q0-.308-.378-.308h-.447v.784Z"/>
	<path d="M9.148 120v-9.773h6.286v1.64h-4.438v2.365h3.864v1.638h-3.864V120Z"/>
	<path d="M21.132 118.782h-.07a2.396 2.396 0 0 1-.259.525 1.9 1.9 0 0 1-.406.441 1.842 1.842 0 0 1-.588.308 2.535 2.535 0 0 1-.791.112 2.104 2.104 0 0 1-1.736-.742 3.277 3.277 0 0 1-.602-2.114v-4.62h1.792v4.438a1.927 1.927 0 0 0 .294 1.155 1.087 1.087 0 0 0 .938.399 1.998 1.998 0 0 0 .525-.07 1.338 1.338 0 0 0 .455-.216 1.222 1.222 0 0 0 .322-.365 1.001 1.001 0 0 0 .126-.51v-4.83h1.792V120h-1.792Z"/>
	<path d="M24.996 120v-7.308h1.792v1.218h.07a2.343 2.343 0 0 1 .707-.987 2.041 2.041 0 0 1 1.337-.399 2.108 2.108 0 0 1 1.736.741 3.283 3.283 0 0 1 .602 2.115V120h-1.792v-4.439a2.027 2.027 0 0 0-.28-1.175 1.059 1.059 0 0 0-.924-.392 1.862 1.862 0 0 0-.54.077 1.504 1.504 0 0 0-.461.224 1.162 1.162 0 0 0-.33.364.997.997 0 0 0-.125.51V120Z"/>
	<path d="M36.112 120.168a3.687 3.687 0 0 1-1.442-.266 2.787 2.787 0 0 1-1.057-.77 3.457 3.457 0 0 1-.651-1.21 5.244 5.244 0 0 1-.224-1.59 5.18 5.18 0 0 1 .224-1.581 3.403 3.403 0 0 1 .65-1.198 2.823 2.823 0 0 1 1.058-.763 3.689 3.689 0 0 1 1.442-.266 3.186 3.186 0 0 1 1.827.49 2.752 2.752 0 0 1 1.043 1.358l-1.47.658a1.526 1.526 0 0 0-.469-.763 1.365 1.365 0 0 0-.93-.301 1.34 1.34 0 0 0-1.128.476 1.968 1.968 0 0 0-.37 1.247v1.329a1.938 1.938 0 0 0 .37 1.239 1.35 1.35 0 0 0 1.127.469 1.4 1.4 0 0 0 .994-.328 2.263 2.263 0 0 0 .546-.82l1.372.658a2.866 2.866 0 0 1-1.106 1.449 3.24 3.24 0 0 1-1.806.483Z"/>
	<path d="M42.692 120a1.91 1.91 0 0 1-1.407-.481 1.859 1.859 0 0 1-.484-1.376v-4.01h-1.077v-1.44h.56a.668.668 0 0 0 .553-.19.915.915 0 0 0 .147-.568v-1.245h1.61v2.002h1.498v1.441h-1.498v4.424h1.386V120Z"/>
	<path d="M46.541 111.628a1.087 1.087 0 0 1-.804-.252.886.886 0 0 1-.245-.644v-.28a.887.887 0 0 1 .245-.644 1.402 1.402 0 0 1 1.603 0 .873.873 0 0 1 .252.644v.28a.872.872 0 0 1-.252.644 1.095 1.095 0 0 1-.799.252Zm-.895 1.064h1.792V120h-1.792Z"/>
	<path d="M52.407 120.168a3.556 3.556 0 0 1-1.406-.266 2.919 2.919 0 0 1-1.065-.77 3.508 3.508 0 0 1-.679-1.21 4.946 4.946 0 0 1-.238-1.59 4.886 4.886 0 0 1 .238-1.581 3.455 3.455 0 0 1 .679-1.198 2.96 2.96 0 0 1 1.065-.762 3.558 3.558 0 0 1 1.406-.266 3.611 3.611 0 0 1 1.414.266 2.951 2.951 0 0 1 1.071.762 3.455 3.455 0 0 1 .679 1.198 4.886 4.886 0 0 1 .238 1.582 4.946 4.946 0 0 1-.238 1.588 3.508 3.508 0 0 1-.679 1.211 2.911 2.911 0 0 1-1.071.77 3.61 3.61 0 0 1-1.414.266Zm0-1.442a1.459 1.459 0 0 0 1.12-.434 1.801 1.801 0 0 0 .406-1.274v-1.358a1.778 1.778 0 0 0-.406-1.26 1.456 1.456 0 0 0-1.12-.435 1.437 1.437 0 0 0-1.106.435 1.778 1.778 0 0 0-.406 1.26v1.357a1.801 1.801 0 0 0 .406 1.275 1.44 1.44 0 0 0 1.106.434Z"/>
	<path d="M57.391 120v-7.308h1.792v1.218h.07a2.33 2.33 0 0 1 .707-.987 2.04 2.04 0 0 1 1.337-.399 2.106 2.106 0 0 1 1.735.741 3.28 3.28 0 0 1 .603 2.115V120h-1.792v-4.439a2.026 2.026 0 0 0-.28-1.175 1.059 1.059 0 0 0-.924-.392 1.867 1.867 0 0 0-.539.077 1.504 1.504 0 0 0-.462.224 1.163 1.163 0 0 0-.329.364.997.997 0 0 0-.126.51V120Z"/>
	<path d="M68.018 120.168a3.916 3.916 0 0 1-1.764-.357 4.051 4.051 0 0 1-1.26-.987l1.092-1.064a3.323 3.323 0 0 0 .889.728 2.279 2.279 0 0 0 1.113.266 1.525 1.525 0 0 0 .93-.224.738.738 0 0 0 .288-.616.662.662 0 0 0-.203-.51 1.286 1.286 0 0 0-.693-.26l-.728-.098a3.464 3.464 0 0 1-1.813-.68 1.891 1.891 0 0 1-.623-1.532 2.287 2.287 0 0 1 .196-.96 2.031 2.031 0 0 1 .56-.727 2.551 2.551 0 0 1 .875-.463 3.812 3.812 0 0 1 1.14-.16 5.253 5.253 0 0 1 .946.076 3.415 3.415 0 0 1 .75.225 2.877 2.877 0 0 1 .615.364 5.895 5.895 0 0 1 .546.483l-1.05 1.05a2.78 2.78 0 0 0-.77-.56 2.158 2.158 0 0 0-.98-.224 1.348 1.348 0 0 0-.847.21.668.668 0 0 0-.26.546.694.694 0 0 0 .218.553 1.499 1.499 0 0 0 .735.272l.742.099q2.366.335 2.366 2.156a2.174 2.174 0 0 1-.217.973 2.217 2.217 0 0 1-.609.756 2.897 2.897 0 0 1-.945.49 4.116 4.116 0 0 1-1.24.175Z"/>
</svg>
