<svg xmlns="http://www.w3.org/2000/svg" width="200" height="128">
    <path d="M30.864 41.586S7.349 55.931 29.51 70.175C33.773 72.949 49.235 80.663 48.8 87.8c0 0 9.372-13.872-4.331-22.6-14.079-8.965-17.598-18.472-13.605-23.614zm-8.188 27.4S14.285 81.712 30.8 84.317c1.624.2 13.6 1.455 16.68 5.379 0 0-.271-6.766-10.015-10.759S23.759 73.93 22.676 68.99zm32.48-13.4C45.073 45.037 42.265 38.507 46.6 30.082c0 0-30.078 11.571-.372 32.108 10.623 7.342 8.864 14.853 8.864 15.123 1.654-1.725 10.146-11.165.064-21.721z" fill="#ed1c24"/>
    <path d="M94.267 83.708v-1.895a8.532 8.532 0 0 1-5.38 3.891 11.075 11.075 0 0 1-6.7-.541 12.37 12.37 0 0 1-5.717-4.94 16.862 16.862 0 0 1-2.4-9.473c0-4.6 1.049-8.323 3.181-11.165q3.146-4.263 10.15-4.263a18.2 18.2 0 0 1 9.877 2.878q4.567 2.841 4.567 10.657v15.629c0 5.176-1.522 8.729-4.533 10.59a18.541 18.541 0 0 1-9.879 2.842q-10.2 0-12.654-9.541h8.086a6.241 6.241 0 0 0 6.4 2.842 6 6 0 0 0 3.315-2.166 9.609 9.609 0 0 0 1.687-5.345zM81.613 70.953c0 5.109 1.489 7.917 4.432 8.492s5.143-.135 6.564-2.064a8.28 8.28 0 0 0 1.455-3.823 16.4 16.4 0 0 0 .067-5.143 10.427 10.427 0 0 0-1.831-4.533 4.893 4.893 0 0 0-4.229-2c-2.5 0-4.229.914-5.108 2.775a13.959 13.959 0 0 0-1.35 6.296zM128.878 85.5h-3.891a3.628 3.628 0 0 1-3.787-3.45V66.622a4.574 4.574 0 0 0-1.624-3.891 5.774 5.774 0 0 0-3.62-1.218 5.654 5.654 0 0 0-3.553 1.218 4.594 4.594 0 0 0-1.556 3.891V85.5h-7.782V68.178c0-5.041 1.32-8.39 3.925-10.082a17.382 17.382 0 0 1 8.729-2.774 16.919 16.919 0 0 1 9 2.537c2.74 1.692 4.093 5.143 4.093 10.319zm1.9-26.965h7.781V85.5h-7.781zM152.832 85.5a62.424 62.424 0 0 1-7.951-.1c-2.842-.236-4.263-2.03-4.263-5.447V51.059h3.993a3.405 3.405 0 0 1 2.537 1.116 3.6 3.6 0 0 1 1.083 2.673V55.9h4.569v1.556a3.578 3.578 0 0 1-1.116 2.707 3.7 3.7 0 0 1-2.673 1.049h-.744v16.609c0 1.252.744 1.894 2.232 1.894h2.335zm21.18-9.1h5.548a12.058 12.058 0 0 1-4.669 7.1 14.208 14.208 0 0 1-8.661 2.537c-4.229 0-7.511-1.353-9.879-4.094-2.369-2.672-3.553-6.462-3.553-11.435 0-4.737 1.15-8.425 3.451-11.1 2.368-2.741 5.65-4.094 9.879-4.094 4.433 0 7.884 1.319 10.32 3.992C178.816 62.055 180 65.878 180 70.75v1.218a2.914 2.914 0 0 1-.1.778h-19.185a7.736 7.736 0 0 0 1.658 5.109 5.217 5.217 0 0 0 4.331 1.759 6.282 6.282 0 0 0 3.214-.778 1.418 1.418 0 0 0 .609-.372l.609-.609a2.117 2.117 0 0 1 .846-.88 3.157 3.157 0 0 1 2.03-.575zm-13.3-8.661h11.334a7.109 7.109 0 0 0-1.556-4.433 5.26 5.26 0 0 0-4.09-1.556 5.326 5.326 0 0 0-3.992 1.556 6.154 6.154 0 0 0-1.693 4.433zm-96.083-22.77h3.992a3.776 3.776 0 0 1 3.756 3.789V85.5H64.6zm66.144 6.09h3.992a3.776 3.776 0 0 1 3.756 3.789v2.335h-7.782zm-46.487.406h-1.218v-.88a3.291 3.291 0 0 1-2.5 1.015 3.521 3.521 0 0 1-2.537-.981 3.759 3.759 0 0 1 .068-5.413 3.655 3.655 0 0 1 2.571-.981 3.068 3.068 0 0 1 2.43 1.048v-.879h1.22v7.071zm-1.252-3.485a2.6 2.6 0 0 0-.676-1.759 2.155 2.155 0 0 0-1.692-.711 2.532 2.532 0 0 0-1.793.745 2.158 2.158 0 0 0-.711 1.522 2.741 2.741 0 0 0 .643 1.827 2.134 2.134 0 0 0 1.726.778 2.407 2.407 0 0 0 1.725-.71 2.218 2.218 0 0 0 .778-1.692zm10.049-.2a3.892 3.892 0 0 1-1.015 2.74 3.576 3.576 0 0 1-2.707 1.117 3.051 3.051 0 0 1-2.4-.981v3.18h-1.288V44.36h1.218v.846a3.069 3.069 0 0 1 2.335-.981 3.9 3.9 0 0 1 2.605.981 3.083 3.083 0 0 1 1.252 2.571zm-1.32.169a2.35 2.35 0 0 0-.71-1.725 2.426 2.426 0 0 0-1.76-.711 2.2 2.2 0 0 0-1.759.778 2.574 2.574 0 0 0-.1 3.282 2.416 2.416 0 0 0 1.928.812 2.277 2.277 0 0 0 1.726-.71 2.375 2.375 0 0 0 .676-1.726zm9.812 3.519h-1.218v-.88a3.292 3.292 0 0 1-2.5 1.015 3.519 3.519 0 0 1-2.537-.981 3.454 3.454 0 0 1-1.12-2.676 3.492 3.492 0 0 1 1.184-2.74 3.657 3.657 0 0 1 2.572-.981 3.068 3.068 0 0 1 2.436 1.048v-.879h1.218v7.071zm-1.218-3.485a2.6 2.6 0 0 0-.677-1.759 2.155 2.155 0 0 0-1.692-.711 2.615 2.615 0 0 0-1.827.745 2.161 2.161 0 0 0-.71 1.522 2.741 2.741 0 0 0 .643 1.827 2.2 2.2 0 0 0 1.759.778 2.482 2.482 0 0 0 1.759-.71 2.306 2.306 0 0 0 .745-1.695zm9.71 1.15a5.329 5.329 0 0 1-1.421 1.827 3.4 3.4 0 0 1-2.2.677 3.742 3.742 0 0 1-2.605-1.049 3.583 3.583 0 0 1-1.185-2.706h.068l-.034.067a3.556 3.556 0 0 1 1.151-2.74 3.424 3.424 0 0 1 2.436-.981 4.246 4.246 0 0 1 2.3.676 4.129 4.129 0 0 1 1.455 1.861h-1.421a2.507 2.507 0 0 0-2.3-1.286 2.149 2.149 0 0 0-1.657.711 2.519 2.519 0 0 0-.677 1.725 2.425 2.425 0 0 0 2.436 2.47 2.522 2.522 0 0 0 1.286-.338 2.241 2.241 0 0 0 .947-.914zm7.342 2.369h-1.286v-4.06a1.983 1.983 0 0 0-.507-1.354 2.014 2.014 0 0 0-2.673-.033 1.679 1.679 0 0 0-.508 1.285v4.16h-1.285v-9.475h1.285v2.944a2.552 2.552 0 0 1 1.861-.744 3.145 3.145 0 0 1 2.132.845 3.073 3.073 0 0 1 .981 2.335zm8.356-3.045h-5.988a2.267 2.267 0 0 0 .88 1.455 2.392 2.392 0 0 0 1.421.473 2.438 2.438 0 0 0 1.353-.406 2.2 2.2 0 0 0 .913-1.082h1.32a4.271 4.271 0 0 1-1.59 2.1 3.661 3.661 0 0 1-2.03.609 3.32 3.32 0 0 1-2.436-1.015 3.758 3.758 0 0 1 2.5-6.394 3.778 3.778 0 0 1 2.5.947 3.622 3.622 0 0 1 1.184 2.91zm-1.285-1.187a2.4 2.4 0 0 0-.88-1.286 2.4 2.4 0 0 0-3.146.169 2.48 2.48 0 0 0-.643 1.117zm49.329 3.247h-1.218v3.248h-.982v-3.248h-1.218v-.778h3.418zm5.142 3.215h-.879v-3.248h-.034l-1.151 3.248h-.541l-1.15-3.248h-.034v3.248h-.846v-3.993h1.421l.914 2.369.913-2.369h1.421z"/>
</svg>
