<svg xmlns="http://www.w3.org/2000/svg" width="200" height="128">
    <path d="M40.438 62.932H20V42.494h20.438z" fill="#f1511b"/>
    <path d="M63.005 62.932H42.567V42.494h20.438v20.438z" fill="#80cc28"/>
    <path d="M40.438 85.506H20V65.068h20.438z" fill="#00adef"/>
    <path d="M63.005 85.506H42.567V65.068h20.438v20.438z" fill="#fbbc09"/>
    <g fill="#706d6e">
        <path d="M97.47 49.419h3.159V62.85H97.47zM122.231 49.186a3.237 3.237 0 0 0-2.113.757 4.268 4.268 0 0 0-1.216 1.8h-.033v-2.324h-3.16v13.43h3.16v-6.87a4.787 4.787 0 0 1 .787-2.853 2.416 2.416 0 0 1 2.043-1.079 3.7 3.7 0 0 1 .95.14 2.4 2.4 0 0 1 .737.3l.133.1V49.4l-.051-.022a3.275 3.275 0 0 0-1.237-.192zM111.817 49.284a8.793 8.793 0 0 0-1.766-.189 7.8 7.8 0 0 0-3.841.923 6.223 6.223 0 0 0-2.534 2.606 8.289 8.289 0 0 0-.871 3.86 7.116 7.116 0 0 0 .846 3.46 5.944 5.944 0 0 0 2.364 2.39 7.042 7.042 0 0 0 3.454.84 7.558 7.558 0 0 0 3.811-.892l.042-.024v-2.9l-.133.1a5.934 5.934 0 0 1-1.546.8 4.661 4.661 0 0 1-1.513.293 3.891 3.891 0 0 1-2.958-1.152 4.484 4.484 0 0 1-1.091-3.194 4.646 4.646 0 0 1 1.138-3.278 3.867 3.867 0 0 1 2.963-1.223 5.069 5.069 0 0 1 3.007 1.046l.133.1V49.8l-.043-.024a5.225 5.225 0 0 0-1.462-.492zM99.082 43.7a1.9 1.9 0 0 0-1.346.528 1.743 1.743 0 0 0-.564 1.317 1.69 1.69 0 0 0 .558 1.292 1.925 1.925 0 0 0 1.352.514 1.95 1.95 0 0 0 1.358-.513 1.686 1.686 0 0 0 .565-1.293 1.776 1.776 0 0 0-.549-1.3 1.885 1.885 0 0 0-1.374-.545zM91.199 48.428v14.421h3.225V44.108h-4.463l-5.672 13.921-5.505-13.921H74.14v18.741h3.03V48.426h.104l5.813 14.423h2.286l5.722-14.421h.104zM156.458 49.1a7.014 7.014 0 0 0-5.228 1.929 7.233 7.233 0 0 0-1.889 5.265 6.852 6.852 0 0 0 1.844 5.027 6.689 6.689 0 0 0 4.949 1.857 6.826 6.826 0 0 0 5.125-1.955A7.214 7.214 0 0 0 163.148 56a7.038 7.038 0 0 0-1.772-5.064 6.529 6.529 0 0 0-4.918-1.836zm2.513 10.342a3.207 3.207 0 0 1-2.655 1.121 3.39 3.39 0 0 1-2.721-1.143 4.854 4.854 0 0 1-.978-3.229 5.048 5.048 0 0 1 .978-3.314 3.341 3.341 0 0 1 2.695-1.161 3.287 3.287 0 0 1 2.624 1.11 4.946 4.946 0 0 1 .958 3.288 5.277 5.277 0 0 1-.901 3.323zM179.87 60.17a2.259 2.259 0 0 1-.643.281 2.467 2.467 0 0 1-.632.107 1.713 1.713 0 0 1-1.361-.5 2.666 2.666 0 0 1-.434-1.726V52h3.2v-2.581h-3.2v-4.006l-.107.033-3.006.92-.059.018v3.035h-4.743v-1.691a2.687 2.687 0 0 1 .523-1.792 1.842 1.842 0 0 1 1.465-.6 3.415 3.415 0 0 1 1.391.316l.118.053v-2.712l-.056-.02a5.411 5.411 0 0 0-1.777-.238 5.2 5.2 0 0 0-2.52.606 4.308 4.308 0 0 0-1.73 1.71 5.1 5.1 0 0 0-.613 2.509v1.859h-2.228V52h2.228v10.85h3.2V52h4.743v6.9c0 2.841 1.34 4.281 3.983 4.281a6.514 6.514 0 0 0 1.358-.151 3.711 3.711 0 0 0 .989-.314l.042-.024v-2.6zM130.841 49.1a7.012 7.012 0 0 0-5.228 1.929 7.229 7.229 0 0 0-1.889 5.265 6.847 6.847 0 0 0 1.844 5.027 6.689 6.689 0 0 0 4.949 1.857 6.826 6.826 0 0 0 5.125-1.955A7.217 7.217 0 0 0 137.53 56a7.038 7.038 0 0 0-1.772-5.064 6.528 6.528 0 0 0-4.917-1.836zm2.512 10.342a3.205 3.205 0 0 1-2.655 1.121 3.391 3.391 0 0 1-2.721-1.143 4.854 4.854 0 0 1-.977-3.234 5.048 5.048 0 0 1 .978-3.314 3.338 3.338 0 0 1 2.7-1.161 3.29 3.29 0 0 1 2.624 1.11 4.951 4.951 0 0 1 .958 3.288 5.277 5.277 0 0 1-.907 3.328zM144.514 54.969a6.888 6.888 0 0 1-1.9-.986 1.38 1.38 0 0 1-.383-1.035 1.151 1.151 0 0 1 .486-.957 2.18 2.18 0 0 1 1.361-.384 5.566 5.566 0 0 1 1.62.249 5.21 5.21 0 0 1 1.415.656l.131.089V49.68l-.05-.021a6.991 6.991 0 0 0-1.437-.4 8.8 8.8 0 0 0-1.575-.163 5.781 5.781 0 0 0-3.705 1.145 3.655 3.655 0 0 0-1.444 2.98 4.179 4.179 0 0 0 .311 1.666 3.351 3.351 0 0 0 .956 1.248 8.373 8.373 0 0 0 1.944 1.088 14.277 14.277 0 0 1 1.617.753 2.261 2.261 0 0 1 .712.584 1.318 1.318 0 0 1 .2.762c0 .9-.676 1.341-2.066 1.341a5.694 5.694 0 0 1-1.749-.32 6.552 6.552 0 0 1-1.79-.908l-.133-.095v3.079l.049.023a7.931 7.931 0 0 0 1.695.524 9.154 9.154 0 0 0 1.811.209 6.136 6.136 0 0 0 3.912-1.152 3.722 3.722 0 0 0 1.457-3.05 3.507 3.507 0 0 0-.784-2.308 6.713 6.713 0 0 0-2.661-1.696zM74.179 66.372h2.935v17.832h-2.935zM80.321 66.372h2.935v17.832h-2.935zM95.255 76.439a7.891 7.891 0 0 0-1.435-1.1 21.208 21.208 0 0 0-1.652-.906q-.816-.4-1.442-.741a6.088 6.088 0 0 1-.983-.643 2.023 2.023 0 0 1-.524-.627 1.73 1.73 0 0 1-.163-.789 1.4 1.4 0 0 1 .2-.791 1.809 1.809 0 0 1 .591-.566 2.9 2.9 0 0 1 .9-.343 5.372 5.372 0 0 1 1.1-.116 5.643 5.643 0 0 1 3.27.87l.885.613v-3.5l-.3-.158a8.112 8.112 0 0 0-3.667-.628 8.665 8.665 0 0 0-2.152.272 6.2 6.2 0 0 0-1.93.849 4.606 4.606 0 0 0-1.416 1.5 4.561 4.561 0 0 0-.2 3.941 4.517 4.517 0 0 0 .948 1.338 7.224 7.224 0 0 0 1.35 1.029q.732.44 1.578.868c.518.263 1 .513 1.451.75a7.164 7.164 0 0 1 1.088.694 2.586 2.586 0 0 1 .641.71 1.816 1.816 0 0 1-.416 2.2 4.213 4.213 0 0 1-3.2.43 8.413 8.413 0 0 1-1.089-.264 6.621 6.621 0 0 1-1.016-.412 3.642 3.642 0 0 1-.772-.519l-.937-.829V83.3l.247.168a3.861 3.861 0 0 0 .958.448 9.6 9.6 0 0 0 1.153.305c.4.081.791.141 1.175.183a9.3 9.3 0 0 0 .986.065 10.4 10.4 0 0 0 2.26-.24 5.974 5.974 0 0 0 1.976-.81 4.317 4.317 0 0 0 1.417-1.513 4.541 4.541 0 0 0 .53-2.255 4.062 4.062 0 0 0-.394-1.813 5.114 5.114 0 0 0-1.016-1.399z"/>
    </g>
</svg>
