<svg xmlns="http://www.w3.org/2000/svg" width="200" height="128">
    <path d="M98.429 19h3.134a76.286 76.286 0 0 1 31.859 7.629c-1.276 1.3-2.594 2.566-3.848 3.893q-10.965 10.971-21.934 21.943.016 13.086.006 26.175a67.921 67.921 0 0 0 14.384-14.925 61.311 61.311 0 0 0 9.961-23.061q-2.346 2.3-4.637 4.66c-2.451 2.426-4.84 4.909-7.3 7.331a163.853 163.853 0 0 1-3.343 3.379 3.01 3.01 0 0 1-3.355.518 3.025 3.025 0 0 1-.821-4.846q3.846-3.841 7.687-7.687c3.869-3.791 7.673-7.652 11.511-11.473 1.53-1.461 3-2.977 4.5-4.47.669.359 1.331.73 2 1.09a74.228 74.228 0 0 1-.142 3.946 64.846 64.846 0 0 1-7.244 25.859 70.135 70.135 0 0 1-13.1 17.639 76.145 76.145 0 0 1-16.071 12.044V66.088c-.079-3.879-.02-7.761-.038-11.641a29.457 29.457 0 0 1 .122-3.876c.206-1.158 1.3-1.991 2.052-2.828q9.843-9.86 19.7-19.711a71.948 71.948 0 0 0-47.07.011q10.3 10.307 20.612 20.611a3.823 3.823 0 0 1 1.174 1.935 16.212 16.212 0 0 1 .123 2.216q-.007 17.926 0 35.854A75.549 75.549 0 0 1 81.2 75.555a69.192 69.192 0 0 1-14.53-21.878 64.768 64.768 0 0 1-4.919-24.521c.673-.367 1.345-.74 2.019-1.1 2.5 2.48 4.961 5 7.488 7.449q7.757 7.762 15.52 15.522a6.131 6.131 0 0 1 1.24 1.444 3.085 3.085 0 0 1-.369 3.286 3.029 3.029 0 0 1-4.528.122q-2.608-2.619-5.221-5.228c-3.252-3.368-6.646-6.605-9.894-9.978a61.689 61.689 0 0 0 12.322 26.21 68.72 68.72 0 0 0 11.979 11.732q.006-13.1 0-26.206-8.672-8.663-17.339-17.336c-1.626-1.7-3.328-3.34-4.978-5.022-1.1-1.176-2.279-2.279-3.394-3.441A76.381 76.381 0 0 1 98.429 19z" fill="#f57d20"/>
    <path d="M43.47 96.085h4.105v12.723H43.47zM49.291 96.085h7.063q1.872 4.088 3.748 8.173 1.874-4.086 3.746-8.173h7.008v12.723h-3.84c.014-3.168.085-6.344.072-9.513h-.576q-2.392 4.76-4.8 9.517c-1.07 0-2.14-.007-3.21.009-1.62-3.168-3.2-6.353-4.811-9.523h-.632c.009 3.17.085 6.344.071 9.514h-3.839zM72.61 96.085h7.038c1.258 2.72 2.5 5.45 3.751 8.172q1.88-4.08 3.749-8.169h7.028v12.721h-3.843c0-1.158-.014-2.318.008-3.476.069-1.438-.01-2.876.053-4.313.021-.574.016-1.15.012-1.725h-.6c-1.59 3.174-3.2 6.344-4.793 9.514h-3.22c-1.61-3.168-3.192-6.347-4.8-9.517h-.651c.064 1.066.024 2.14.033 3.209.057 2.1.033 4.2.076 6.305H72.61zM95.854 96.085h3.881c.022 2.487-.054 4.977.057 7.461a2.552 2.552 0 0 0 .341 1.43 1.9 1.9 0 0 0 1.312.55 32.987 32.987 0 0 0 4 .1 5.489 5.489 0 0 0 2.3-.38c.578-.326.6-1.12.652-1.7.139-2.483.042-4.978.07-7.465h3.881c-.033 3.084.091 6.183-.12 9.259a3.608 3.608 0 0 1-.855 2.336 3.968 3.968 0 0 1-2.461 1.109c-1.58.2-3.192.154-4.81.21a29.8 29.8 0 0 1-5.744-.416 2.905 2.905 0 0 1-2.131-1.79 11.068 11.068 0 0 1-.372-3.246q.002-3.726-.001-7.458zM114.025 96.087c2.289.007 4.582-.023 6.871.015 2.116 3.068 4.285 6.1 6.414 9.159.148.237.288.253.553.306-.027-3.169-.062-6.288-.087-9.482h3.971v12.723h-6.745c-2.17-3.064-4.342-6.146-6.5-9.215-.149-.237-.286-.253-.554-.306-.037 2.217.056 4.43.033 6.646-.015.958.06 1.914.039 2.873h-3.991q-.007-6.358-.004-12.719zM133.464 96.085h4.1v12.723h-4.1zM156.422 99.663a4.286 4.286 0 0 0-.878-2.636 3.762 3.762 0 0 0-2.5-.99c-2.459-.214-4.958-.116-7.457-.14-1.145.029-2.3.045-3.439.187a3.3 3.3 0 0 0-2.218 1.061 4.753 4.753 0 0 0-.791 2.665 37.275 37.275 0 0 0 0 5.231 4.718 4.718 0 0 0 .789 2.673 3.325 3.325 0 0 0 2.221 1.064c1.707.215 3.55.151 5.226.218.748.017 1.493-.025 2.239-.037 1.184 0 2.37-.039 3.549-.146a3.585 3.585 0 0 0 2.451-1.063 4.716 4.716 0 0 0 .816-2.712 35.718 35.718 0 0 0-.008-5.375zm-4.011 5.032a1.505 1.505 0 0 1-1.329.842 26.8 26.8 0 0 1-3.1.1 30.918 30.918 0 0 1-3.55-.114 1.461 1.461 0 0 1-1.285-.894 7.421 7.421 0 0 1-.184-2.089 8.556 8.556 0 0 1 .253-2.409 1.42 1.42 0 0 1 1.338-.821c1.882-.134 3.781-.106 5.666-.059.646.036 1.5 0 1.961.544a4.229 4.229 0 0 1 .429 2.26 8.851 8.851 0 0 1-.199 2.645z" fill="#172447"/>
</svg>
