<svg width="693" height="114" fill="none" xmlns="http://www.w3.org/2000/svg">
	<path d="M166.449 30.412c-2.783 0-5.145-.91-7.086-2.727-1.877-1.818-2.815-4.026-2.815-6.624 0-2.727.938-4.967 2.815-6.72 1.941-1.819 4.303-2.728 7.086-2.728 2.783 0 5.112.91 6.989 2.728 1.877 1.753 2.815 3.993 2.815 6.72 0 2.598-.938 4.806-2.815 6.624-1.877 1.818-4.206 2.727-6.989 2.727Zm-8.833 58.15v-50.26h17.569v50.26h-17.569Z" fill="#020A47"/>
	<path d="M187.002 88.561v-50.26h17.279l.194 6.234c1.294-2.467 3.203-4.383 5.727-5.746 2.524-1.364 5.436-2.046 8.736-2.046 5.63 0 9.901 1.818 12.814 5.455 2.976 3.571 4.465 8.83 4.465 15.779V88.56h-17.57V61.29c0-5.91-2.233-8.864-6.698-8.864-2.394 0-4.238.844-5.533 2.532-1.229 1.624-1.844 3.962-1.844 7.013v26.591h-17.57Z" fill="#020A47"/>
	<path d="M252.816 88.561V52.425h-8.057V38.302h8.057v-4.87c0-7.728 1.876-13.702 5.63-17.923 3.818-4.22 9.189-6.33 16.113-6.33 2.007 0 3.883.162 5.631.486 1.812.26 3.332.65 4.562 1.17l-.874 14.61c-.712-.325-1.585-.553-2.621-.682a13.85 13.85 0 0 0-2.718-.293c-2.782 0-4.853.812-6.212 2.436-1.294 1.623-1.942 4.188-1.942 7.694v3.702h11.843v14.123h-11.843v36.136h-17.569Zm37.178 0V9.665h17.569v78.896h-17.569Z" fill="#020A47"/>
	<path d="M335.933 90.12c-5.501 0-9.707-1.754-12.619-5.26-2.912-3.571-4.368-8.766-4.368-15.584V38.302h17.666v27.37c0 2.987.518 5.195 1.553 6.623 1.101 1.429 2.815 2.143 5.145 2.143 2.33 0 4.109-.812 5.339-2.435 1.294-1.688 1.941-4.058 1.941-7.11V38.301h17.57v50.26h-17.278l-.195-6.234c-1.294 2.467-3.235 4.383-5.824 5.746-2.524 1.364-5.5 2.046-8.93 2.046Z" fill="#020A47"/>
	<path d="m376.122 88.561 18.249-25.909-17.278-24.35h19.608l8.154 13.636 7.96-13.636h18.637l-17.181 24.545 18.346 25.714h-19.705l-9.125-15.195-9.027 15.195h-18.638Z" fill="#020A47"/>
	<path d="M463.388 90.12c-4.465 0-8.477-1.104-12.037-3.312-3.494-2.208-6.244-5.26-8.25-9.156-2.007-3.96-3.01-8.441-3.01-13.441 0-4.805 1.068-9.156 3.204-13.052 2.2-3.961 5.144-7.078 8.833-9.35 3.689-2.339 7.766-3.507 12.231-3.507 3.689 0 7.054.909 10.095 2.727 3.106 1.818 5.598 4.383 7.475 7.695V9.665h8.251v78.896h-8.057l-.194-8.863c-1.942 3.311-4.498 5.876-7.669 7.695-3.171 1.818-6.795 2.727-10.872 2.727Zm2.136-7.403c3.365 0 6.309-.779 8.833-2.338 2.524-1.558 4.498-3.733 5.921-6.526 1.489-2.792 2.233-6.006 2.233-9.642 0-3.637-.744-6.851-2.233-9.643-1.423-2.792-3.397-4.968-5.921-6.526-2.524-1.559-5.468-2.338-8.833-2.338-3.301 0-6.245.78-8.834 2.338-2.524 1.558-4.53 3.734-6.018 6.526-1.424 2.792-2.136 6.006-2.136 9.643 0 3.636.712 6.85 2.136 9.642 1.488 2.793 3.494 4.968 6.018 6.526 2.589 1.559 5.533 2.338 8.834 2.338Z" fill="#020A47"/>
	<path d="M527.564 90.12c-4.465 0-8.477-1.104-12.036-3.312-3.495-2.208-6.245-5.26-8.251-9.156-2.006-3.96-3.009-8.441-3.009-13.441 0-4.805 1.067-9.156 3.203-13.052 2.2-3.961 5.145-7.078 8.833-9.35 3.689-2.339 7.766-3.507 12.231-3.507 3.689 0 7.054.909 10.095 2.727 3.107 1.818 5.598 4.383 7.475 7.695l.194-8.864h8.057v48.701h-8.057l-.194-8.863c-1.942 3.311-4.498 5.876-7.669 7.695-3.171 1.818-6.795 2.727-10.872 2.727Zm2.136-7.403c3.365 0 6.31-.779 8.833-2.338 2.524-1.558 4.498-3.733 5.922-6.526 1.488-2.792 2.232-6.006 2.232-9.642 0-3.637-.744-6.851-2.232-9.643-1.424-2.792-3.398-4.968-5.922-6.526-2.523-1.559-5.468-2.338-8.833-2.338-3.3 0-6.245.78-8.833 2.338-2.524 1.558-4.53 3.734-6.019 6.526-1.424 2.792-2.135 6.006-2.135 9.643 0 3.636.711 6.85 2.135 9.642 1.489 2.793 3.495 4.968 6.019 6.526 2.588 1.559 5.533 2.338 8.833 2.338Z" fill="#020A47"/>
	<path d="M591.158 90.12c-5.5 0-9.545-1.461-12.134-4.383-2.588-2.987-3.882-7.63-3.882-13.929V46.97h-11.066v-7.11h11.066V25.834h8.251V39.86h16.987v7.11h-16.987v24.156c0 4.156.711 7.176 2.135 9.059 1.489 1.818 3.851 2.727 7.086 2.727 3.107 0 6.31-.844 9.61-2.533l.971 6.916c-1.488.91-3.3 1.591-5.436 2.046-2.071.519-4.271.779-6.601.779Z" fill="#020A47"/>
	<path d="M633.83 90.12c-4.466 0-8.478-1.104-12.037-3.312-3.495-2.208-6.245-5.26-8.251-9.156-2.006-3.96-3.009-8.441-3.009-13.441 0-4.805 1.068-9.156 3.203-13.052 2.2-3.961 5.145-7.078 8.834-9.35 3.688-2.339 7.765-3.507 12.23-3.507 3.689 0 7.054.909 10.096 2.727 3.106 1.818 5.597 4.383 7.474 7.695l.194-8.864h8.057v48.701h-8.057l-.194-8.863c-1.941 3.311-4.498 5.876-7.669 7.695-3.17 1.818-6.794 2.727-10.871 2.727Zm2.135-7.403c3.365 0 6.31-.779 8.834-2.338 2.523-1.558 4.497-3.733 5.921-6.526 1.488-2.792 2.232-6.006 2.232-9.642 0-3.637-.744-6.851-2.232-9.643-1.424-2.792-3.398-4.968-5.921-6.526-2.524-1.559-5.469-2.338-8.834-2.338-3.3 0-6.245.78-8.833 2.338-2.524 1.558-4.53 3.734-6.019 6.526-1.423 2.792-2.135 6.006-2.135 9.643 0 3.636.712 6.85 2.135 9.642 1.489 2.793 3.495 4.968 6.019 6.526 2.588 1.559 5.533 2.338 8.833 2.338Z" fill="#020A47"/>
	<path fill-rule="evenodd" clip-rule="evenodd" d="m82.628 78.042 26.227-6.013a2.969 2.969 0 0 0 2.256-3.757L99.958 19.898a3.109 3.109 0 0 0-3.769-2.256l-26.215 6.013a3.099 3.099 0 0 0-2.235 3.756L78.86 75.787a3.11 3.11 0 0 0 3.768 2.256Z" fill="#020A47"/>
	<path fill-rule="evenodd" clip-rule="evenodd" d="m73.591 107.934 31.798-29.439c1.198-1.209.896-1.954-.756-1.36L82.779 82.1a5.54 5.54 0 0 0-3.919 3.606l-6.63 21.331c-.453 1.652.152 2.105 1.361.896Z" fill="#020A47"/>
	<path fill-rule="evenodd" clip-rule="evenodd" d="m15.578 98.326 47.615 14.714a3.487 3.487 0 0 0 3.92-2.245l7.979-25.542a3.151 3.151 0 0 0-2.16-3.908L25.318 66.771a3.175 3.175 0 0 0-3.92 2.16l-7.924 25.487a3.152 3.152 0 0 0 2.105 3.908Z" fill="#020A47"/>
	<path fill-rule="evenodd" clip-rule="evenodd" d="m.203 46.044 9.652 42.264c.303 1.652 1.08 1.652 1.501 0l6.63-21.332a5.98 5.98 0 0 0-1.199-5.257L1.563 45.29c-1.058-1.242-1.846-.897-1.36.755Z" fill="#020A47"/>
	<path fill-rule="evenodd" clip-rule="evenodd" d="M37.431.865.96 34.623a3.087 3.087 0 0 0-.151 4.318l18.236 19.723a3.11 3.11 0 0 0 4.373.151l36.462-33.811a3.066 3.066 0 0 0 .15-4.318L41.827.973a3.088 3.088 0 0 0-4.395-.108Z" fill="#020A47"/>
	<path fill-rule="evenodd" clip-rule="evenodd" d="M72.684 77.286c1.663.454 2.71-.442 2.268-2.159l-10.55-45.664c-.453-1.652-1.813-2.105-3.011-.907L27.034 60.467c-1.21 1.198-.907 2.548.745 3.001l44.905 13.818Z" fill="#020A47"/>
	<path fill-rule="evenodd" clip-rule="evenodd" d="M90.618 13.593 49.028.866c-1.652-.454-1.955.15-.605 1.5l15.224 16.377a5.851 5.851 0 0 0 5.172 1.457l21.853-4.955c1.609-.453 1.609-1.209-.054-1.652Z" fill="#020A47"/>
	<path d="M680.831 33.207c-2.257 0-4.303-.536-6.139-1.607a11.917 11.917 0 0 1-4.36-4.36c-1.071-1.836-1.606-3.882-1.606-6.139 0-2.256.535-4.302 1.606-6.138a11.917 11.917 0 0 1 4.36-4.36c1.836-1.071 3.882-1.607 6.139-1.607 2.295 0 4.341.536 6.139 1.606a11.925 11.925 0 0 1 4.36 4.36c1.071 1.837 1.606 3.883 1.606 6.14 0 2.256-.535 4.302-1.606 6.138a11.925 11.925 0 0 1-4.36 4.36c-1.798 1.071-3.844 1.607-6.139 1.607Zm0-2.123c1.874 0 3.538-.44 4.991-1.32a9.909 9.909 0 0 0 3.557-3.557c.88-1.53 1.32-3.232 1.32-5.106 0-1.874-.44-3.557-1.32-5.048a9.774 9.774 0 0 0-3.557-3.615c-1.453-.88-3.117-1.32-4.991-1.32-1.836 0-3.5.44-4.991 1.32a9.767 9.767 0 0 0-3.557 3.615c-.88 1.491-1.32 3.174-1.32 5.048 0 1.875.44 3.576 1.32 5.106a9.9 9.9 0 0 0 3.557 3.557c1.491.88 3.155 1.32 4.991 1.32Zm-4.073-4.475V15.02h3.901c1.453 0 2.562.325 3.327.975.803.65 1.205 1.55 1.205 2.697 0 .727-.172 1.396-.516 2.008-.345.573-.861 1.013-1.549 1.32l2.868 4.589h-2.409l-2.525-4.188h-2.237v4.188h-2.065Zm3.729-9.753h-1.664v3.729h1.606c.956 0 1.626-.153 2.008-.459.383-.306.574-.784.574-1.434 0-1.224-.842-1.836-2.524-1.836Z" fill="#020A47"/>
</svg>
