<svg id="Info_Icon_-_Default" data-name="Info Icon - Default" xmlns="http://www.w3.org/2000/svg" width="18" height="18" viewBox="0 0 18 18">
  <rect id="Canvas" width="18" height="18" fill="#ff13dc" opacity="0"/>
  <path id="Path_1" data-name="Path 1" d="M9,1a8,8,0,1,0,8,8A8,8,0,0,0,9,1ZM8.85,3.15a1.359,1.359,0,0,1,1.431,1.283q0,.065,0,.129A1.332,1.332,0,0,1,8.85,5.994,1.353,1.353,0,0,1,7.418,4.561a1.359,1.359,0,0,1,1.3-1.412Q8.785,3.146,8.85,3.15ZM11,13.5a.5.5,0,0,1-.5.5h-3a.5.5,0,0,1-.5-.5v-1a.5.5,0,0,1,.5-.5H8V9H7.5A.5.5,0,0,1,7,8.5v-1A.5.5,0,0,1,7.5,7h2a.5.5,0,0,1,.5.5V12h.5a.5.5,0,0,1,.5.5Z" fill="#747474"/>
</svg>
