<svg xmlns="http://www.w3.org/2000/svg" viewBox="-8.23 -7.73 402.22 158.47">
	<path fill="#287ac8" fill-rule="evenodd" d="M374.837 23.375c6.413 0 11.687-5.224 11.687-11.687 0-6.417-5.274-11.69-11.687-11.69-6.417 0-11.69 5.273-11.69 11.69 0 6.463 5.273 11.687 11.69 11.687zm-9.947-11.687c0-5.471 4.475-9.947 9.947-9.947 5.468 0 9.945 4.476 9.945 9.947 0 5.469-4.477 9.945-9.945 9.945-5.472 0-9.947-4.476-9.947-9.945zm5.52 5.867h2.237v-4.974h2.638l1.938 4.974h2.486l-2.286-5.32c.794-.399 2.138-.847 2.138-3.034 0-3.58-2.685-3.979-5.024-3.979h-4.128zm2.237-10.196h2.486c1.344 0 2.09.548 2.09 1.642 0 1.093-.844 1.59-1.888 1.59h-2.688V7.36"/>
	<path fill="#287ac8" d="M.003 16.922 0 16.75V2.982h13.83v100.99l.006.313v13.63H0v-13.771l.003-.172v-87.05"/>
	<path fill="none" stroke="#287ac8" stroke-miterlimit="3.864" stroke-width=".9999750000000001" d="M.003 16.922 0 16.75V2.982h13.83v100.99l.006.313v13.63H0v-13.771l.003-.172z"/>
	<path fill="#287ac8" d="M140.62 76.059c.355 20.887 13.363 37.59 29.053 37.314 15.689-.281 28.12-17.442 27.765-38.333-.358-20.887-13.367-37.592-29.057-37.311-15.69.281-28.12 17.44-27.762 38.33zm114.499-25.257c.361.796-.495-1.19-.495-1.19zm9.426 86.477c.636-1.08 1.516-2.73 2.566-4.792zm.812-93.683c.167.461.36.948.579 1.458l4.656 11.393zm-57.945 57.366c8.55 7.755 16.244 11.765 26.085 11.765 10.076.078 19.027-4.849 19.027-14.328 0-7.906-7.011-12.533-19.548-17.833-10.62-4.593-18.525-7.812-22.659-14.465.506 2.89.768 5.875.768 8.93 0 25.655-18.614 46.446-41.576 46.446-22.96 0-41.575-20.791-41.575-46.447 0-15.463 6.763-29.163 17.166-37.606h-28.134v66.548l.002.266v13.676h-12.497V104.68c.008-.229.01-.468.01-.708V37.424H93.467v-8.377h11.177c1.446-16.895 11.917-26.453 26.414-26.453 9.4 0 14.562.98 17.54 2.36v11.453c-.04.854-.043 1.375-.043 1.375a7.266 7.266 0 0 0-.438-.016c-4.524-4.175-8.989-7.279-19.413-7.268-8.302 0-13.797 6.742-11.875 18.549h46.77a37.934 37.934 0 0 1 5.911-.464c16.658 0 31.027 10.945 37.663 26.75a40.265 40.265 0 0 1-.092-2.75c0-16.49 15.972-23.505 32.562-23.471.636-.003 1.259.003 1.865.013 5.841-.094 14.161 1.812 19.238 3.146l4.612 11.325 5.235 12.851 14.073 34.312 1.653 5.51 1.836-5.51 17.8-44.038c3.28-12.125 16.278-17.372 30.63-17.343 7.137-.032 12.407.825 18.724 3.049v13.317c-7.78-5.653-13.35-8.937-22.18-8.937-7.761 0-17.09 3.432-17.09 14.849-.147 8.58 5 10.148 20.112 17.643 12.423 5.39 23.88 11.34 23.948 25.121 0 22.979-22.648 26.953-33.671 26.99-9.842 0-18.861-2.428-23.88-6.6V99.644l.807.667c8.953 8.354 16.865 12.682 27.088 12.682 10.073.078 19.025-4.85 19.025-14.328 0-7.906-7.012-12.534-19.549-17.833-11.98-5.182-19.84-8.617-23.054-17.203-4.885 11.909-27.611 67.228-32.959 79.051h-12.253l2.893-5.401 2.566-4.792.085-.156c3.07-6.047 7.545-15.531 11.513-24.609l-23.59-56.92c-.156-.35-.544-1.222-1.333-3.013-1.811-4.123-3.495-7.93-8.59-9.852-2.729-.914-5.631-1.396-9.011-1.396-7.761 0-17.685 3.433-17.685 14.85-.15 8.58 5.596 10.147 20.707 17.642 12.423 5.39 23.877 11.34 23.948 25.122 0 22.978-22.65 26.952-33.674 26.989-8.752 0-16.853-1.917-22.069-5.282v-14.9"/>
	<path fill="#287ac8" d="M255.119 50.802c.361.796-.495-1.19-.495-1.19l.495 1.19"/>
	<path fill="none" stroke="#287ac8" stroke-miterlimit="3.864" stroke-width=".9999750000000001" d="M255.119 50.802c.361.796-.495-1.19-.495-1.19zm9.426 86.477c.636-1.08 1.516-2.73 2.566-4.792z"/>
	<path fill="#287ac8" d="M265.357 43.596c.167.461.36.948.579 1.458l4.656 11.393-5.235-12.85"/>
	<path fill="none" stroke="#287ac8" stroke-miterlimit="3.864" stroke-width=".9999750000000001" d="M265.357 43.596c.167.461.36.948.579 1.458l4.656 11.393z"/>
	<path fill="none" stroke="#287ac8" stroke-linecap="round" stroke-linejoin="round" stroke-width=".9999750000000001" d="M140.62 76.059c.355 20.887 13.363 37.59 29.053 37.314 15.689-.281 28.12-17.442 27.765-38.333-.358-20.887-13.367-37.592-29.057-37.311-15.69.281-28.12 17.44-27.762 38.33z"/>
	<path fill="none" stroke="#287ac8" stroke-linecap="round" stroke-linejoin="round" stroke-width=".9999750000000001" d="M93.466 29.047v8.377h11.016v66.548c0 .24-.003.48-.01.708v13.234h12.496v-13.676l-.002-.266V37.424H145.1c-10.403 8.443-17.166 22.143-17.166 37.606 0 25.656 18.614 46.447 41.575 46.447 22.962 0 41.576-20.791 41.576-46.447 0-3.054-.262-6.039-.768-8.93 4.134 6.654 12.039 9.873 22.659 14.466 12.537 5.3 19.548 9.927 19.548 17.833 0 9.48-8.951 14.406-19.027 14.328-9.841 0-17.536-4.01-26.085-11.765v14.9c5.216 3.365 13.317 5.282 22.069 5.282 11.024-.037 33.674-4.01 33.674-26.99-.07-13.78-11.525-19.73-23.948-25.121-15.111-7.495-20.858-9.062-20.707-17.643 0-11.416 9.924-14.849 17.685-14.849 3.38 0 6.282.482 9.012 1.396 5.094 1.922 6.778 5.73 8.589 9.852.789 1.791 1.177 2.664 1.333 3.013l23.59 56.92c-3.968 9.078-8.442 18.562-11.513 24.609l-.085.156-2.566 4.792-2.893 5.401h12.253c5.348-11.823 28.074-67.142 32.96-79.05 3.213 8.585 11.072 12.02 23.053 17.202 12.537 5.3 19.55 9.927 19.55 17.833 0 9.479-8.953 14.406-19.026 14.328-10.223 0-18.135-4.328-27.088-12.682l-.807-.667v15.166c5.019 4.172 14.038 6.6 23.88 6.6 11.023-.037 33.67-4.011 33.67-26.99-.067-13.78-11.524-19.731-23.947-25.121-15.111-7.495-20.26-9.063-20.111-17.643 0-11.417 9.328-14.849 17.089-14.849 8.83 0 14.4 3.284 22.18 8.937V32.427c-6.317-2.224-11.587-3.08-18.723-3.05-14.353-.028-27.35 5.22-30.631 17.344l-17.8 44.038-1.836 5.51-1.653-5.51-14.073-34.312-5.235-12.85-4.612-11.326c-5.077-1.334-13.397-3.24-19.238-3.146-.606-.01-1.229-.016-1.865-.013-16.59-.034-32.562 6.982-32.562 23.47 0 .959.032 1.873.092 2.75-6.636-15.804-21.005-26.749-37.663-26.749-2.005 0-3.98.16-5.912.464h-46.77c-1.921-11.807 3.574-18.55 11.876-18.55 10.424-.01 14.89 3.094 19.413 7.269 0 0 .31.003.438.016 0 0 .002-.521.044-1.375V4.954c-2.979-1.38-8.14-2.36-17.541-2.36-14.497 0-24.968 9.558-26.414 26.453z"/>
	<path fill="#287ac8" d="m39.637 29.906.154 10.05-.008.677h.133a4.01 4.01 0 0 1 .583-1.042c5.078-5.443 11.481-10.851 26.7-10.851 14.562 0 23.991 12.37 24.369 20.155l.013 55.077.003.276v13.666H79.1l.002-16.421-.005-46.892c0-9.705-8.523-16.724-18.955-16.724-8.674 0-19.81 7.8-20.174 15.698v50.408l.002.374v13.568H27.484V41.48l.002-11.575h12.151"/>
	<path fill="none" stroke="#287ac8" stroke-miterlimit="3.864" stroke-width=".9999750000000001" d="m39.637 29.906.154 10.05-.008.677h.133a4.01 4.01 0 0 1 .583-1.042c5.078-5.443 11.481-10.851 26.7-10.851 14.562 0 23.991 12.37 24.369 20.155l.013 55.077.003.276v13.666H79.1l.002-16.421-.005-46.892c0-9.705-8.523-16.724-18.955-16.724-8.674 0-19.81 7.8-20.174 15.698v50.408l.002.374v13.568H27.484V41.48l.002-11.575h9.047z"/>
</svg>
