<svg id="Layer_1" data-name="Layer 1" xmlns="http://www.w3.org/2000/svg" viewBox="0 0 432 136">
	<defs>
		<style>
			.cls-1{fill:#231f20}
		</style>
	</defs>
	<path class="cls-1" d="M77.832 52.212v35.934h-8.815v-33.53c0-3.197-.575-5.555-1.74-7.077a6.345 6.345 0 0 0-5.402-2.284 12.638 12.638 0 0 0-5.896 1.603 25.721 25.721 0 0 0-6.22 4.818v36.47h-8.68V38.614h8.045v6.64a33.975 33.975 0 0 1 7.978-5.58 17.558 17.558 0 0 1 7.487-1.694q6.28 0 9.762 3.704 3.483 3.71 3.48 10.529"/>
	<path class="cls-1" d="M106.494 19.806v7.28c-2.064-.123-2.913-.223-3.651-.297a18.619 18.619 0 0 0-1.92-.112q-3.03 0-4.316 1.404-1.29 1.398-1.289 4.697v5.835h10.811v7.41H95.318v42.123h-8.723V31.56q0-6.063 3.209-9.267 3.207-3.207 9.313-3.207a26.004 26.004 0 0 1 2.842.175c1.058.124 2.203.305 4.535.545"/>
	<path class="cls-1" d="M128.605 37.752q9.67 0 15.031 6.601 5.362 6.596 5.353 18.486 0 11.937-5.353 18.559-5.358 6.622-15.031 6.617-9.676 0-15.077-6.617-5.402-6.623-5.4-18.56 0-11.889 5.4-18.485 5.4-6.606 15.077-6.601m0 7.593a9.602 9.602 0 0 0-8.569 4.435q-2.915 4.419-2.917 13.059 0 8.684 2.917 13.152a10.412 10.412 0 0 0 17.109 0q2.937-4.473 2.939-13.062 0-8.677-2.916-13.13a9.578 9.578 0 0 0-8.563-4.454"/>
	<path class="cls-1" d="M205.629 19.239h8.686v68.905h-8.686z"/>
	<path class="cls-1" d="M23.462 19.239h8.686v68.905h-8.686z"/>
	<path class="cls-1" d="M165.72 88.145v-5.392a15.593 15.593 0 0 0 4.652 3.594 16.316 16.316 0 0 0 7.278 1.584q9.13 0 14.237-6.697 5.11-6.684 5.11-18.663 0-11.392-5.264-18.062a17.149 17.149 0 0 0-14.175-6.67 14.395 14.395 0 0 0-6.618 1.539 14.978 14.978 0 0 0-5.22 4.52v-24.66h-8.685v68.907Zm19.278-12.013a9.885 9.885 0 0 1-8.705 4.52 11.067 11.067 0 0 1-5.558-1.495 17.667 17.667 0 0 1-5.014-4.519V50.995a18.217 18.217 0 0 1 4.922-4.382 10.585 10.585 0 0 1 5.335-1.447 10.132 10.132 0 0 1 8.997 4.609q3.075 4.613 3.07 13.475 0 8.36-3.047 12.882"/>
	<path class="cls-1" d="M243.104 37.752c6.44 0 11.46 2.197 15.02 6.601q5.368 6.596 5.364 18.486 0 11.937-5.363 18.559c-3.562 4.414-8.581 6.617-15.02 6.617q-9.682 0-15.072-6.617-5.397-6.623-5.397-18.56 0-11.889 5.397-18.485 5.391-6.606 15.071-6.601m0 7.593a9.6 9.6 0 0 0-8.57 4.435q-2.918 4.419-2.92 13.059 0 8.684 2.92 13.152a10.409 10.409 0 0 0 17.105 0q2.942-4.473 2.94-13.062 0-8.677-2.917-13.13a9.571 9.571 0 0 0-8.558-4.454"/>
	<path class="cls-1" d="M266.376 37.783h10.025l9.186 16.596 9.227-16.596h9.472L290.43 61.558l15.672 26.251H295.98l-10.627-19.491-10.678 19.491h-9.56l15.575-26.251-14.314-23.775z"/>
	<path d="m335.099 54.716-14.834-11.125a1.466 1.466 0 0 1-.682-1.132 1.49 1.49 0 0 1 .682-1.135s14.834-11.116 14.844-11.118a3.876 3.876 0 0 1 4.269 0s14.813 11.118 14.813 11.127a1.473 1.473 0 0 1 .684 1.126 1.491 1.491 0 0 1-.684 1.132l-14.813 11.125a3.887 3.887 0 0 1-4.28 0" style="fill:#93d500"/>
	<path d="m335.099 90.675-14.834-11.122a1.285 1.285 0 0 1 0-2.27s14.834-11.116 14.844-11.123a3.87 3.87 0 0 1 4.269 0l14.813 11.127a1.477 1.477 0 0 1 .684 1.13 1.509 1.509 0 0 1-.684 1.136l-14.813 11.122a3.887 3.887 0 0 1-4.28 0" style="fill:#54c8e8"/>
	<path d="m359.053 36.814-14.81-11.12a1.47 1.47 0 0 1-.686-1.14 1.441 1.441 0 0 1 .685-1.124c0-.005 14.81-11.124 14.81-11.124a3.872 3.872 0 0 1 4.271 0l14.844 11.12a1.291 1.291 0 0 1 0 2.269l-14.84 11.12a3.872 3.872 0 0 1-4.274 0" style="fill:#ebe717"/>
	<path d="m359.053 72.772-14.81-11.126a1.275 1.275 0 0 1 0-2.26c0-.004 14.81-11.124 14.81-11.124a3.86 3.86 0 0 1 4.27 0l14.844 11.12a1.288 1.288 0 0 1 0 2.264l-14.84 11.126a3.878 3.878 0 0 1-4.274 0" style="fill:#45c2b1"/>
	<path d="m359.053 109.359-14.81-11.125a1.459 1.459 0 0 1-.686-1.14 1.427 1.427 0 0 1 .685-1.122c0-.005 14.81-11.126 14.81-11.126a3.86 3.86 0 0 1 4.271 0l14.844 11.12a1.29 1.29 0 0 1 0 2.268l-14.84 11.125a3.881 3.881 0 0 1-4.274 0" style="fill:#0075c9"/>
	<path d="m383.022 54.716-14.834-11.125a1.467 1.467 0 0 1-.682-1.132 1.49 1.49 0 0 1 .682-1.135s14.834-11.116 14.844-11.118a3.882 3.882 0 0 1 4.272 0s14.812 11.118 14.812 11.127a1.475 1.475 0 0 1 .682 1.126 1.494 1.494 0 0 1-.682 1.132l-14.812 11.125a3.892 3.892 0 0 1-4.282 0" style="fill:#76bc21"/>
	<path d="m383.022 90.675-14.834-11.122a1.285 1.285 0 0 1 0-2.27s14.834-11.116 14.844-11.123a3.876 3.876 0 0 1 4.272 0l14.812 11.127a1.48 1.48 0 0 1 .682 1.13 1.511 1.511 0 0 1-.682 1.136l-14.812 11.122a3.892 3.892 0 0 1-4.282 0" style="fill:#00a0df"/>
	<path class="cls-1" d="M415.38 60.517a6.363 6.363 0 1 1-6.363-6.365 6.274 6.274 0 0 1 6.362 6.365m-11.734 0a5.372 5.372 0 1 0 5.372-5.455 5.323 5.323 0 0 0-5.372 5.455m3.967 3.676h-.902v-7.357h2.825c1.652 0 2.396.723 2.396 2.04a1.988 1.988 0 0 1-1.852 2.052l2.192 3.265h-1.063l-2.07-3.265h-1.526Zm1.204-4.036c1.112 0 2.202-.034 2.202-1.281 0-1.028-.852-1.27-1.741-1.27h-1.665v2.55Z"/>
</svg>
