<svg xmlns="http://www.w3.org/2000/svg" height="142.68" width="386.533" xml:space="preserve">
	<path style="fill:#287ac8;fill-opacity:1;fill-rule:evenodd;stroke:none" d="M2811.35 894.809c48.1 0 87.65 39.179 87.65 87.656 0 48.125-39.55 87.675-87.65 87.675-48.13 0-87.68-39.55-87.68-87.675 0-48.477 39.55-87.656 87.68-87.656zm-74.61 87.656c0 41.035 33.57 74.605 74.61 74.605 41.01 0 74.59-33.57 74.59-74.605 0-41.016-33.58-74.59-74.59-74.59-41.04 0-74.61 33.574-74.61 74.59zm41.4-44.004h16.78v37.305h19.79l14.53-37.305h18.65l-17.15 39.902c5.96 2.989 16.04 6.348 16.04 22.757 0 26.85-20.14 29.84-37.68 29.84h-30.96zm16.78 76.469h18.65c10.08 0 15.67-4.11 15.67-12.31 0-8.202-6.33-11.932-14.16-11.932h-20.16v24.242" transform="matrix(.13333 0 0 -.13333 0 142.68)"/>
	<path style="fill:#287ac8;fill-opacity:1;fill-rule:nonzero;stroke:none" d="M.02 943.207 0 944.496v103.264h103.73V290.316l.04-2.343V185.746H0v103.281l.02 1.289v652.891" transform="matrix(.13333 0 0 -.13333 0 142.68)"/>
	<path style="fill:none;stroke:#287ac8;stroke-width:7.5;stroke-linecap:butt;stroke-linejoin:miter;stroke-miterlimit:3.86369991;stroke-dasharray:none;stroke-opacity:1" d="M.02 943.207 0 944.496v103.264h103.73V290.316l.04-2.343V185.746H0v103.281l.02 1.289z" transform="matrix(.13333 0 0 -.13333 0 142.68)"/>
	<path style="fill:#287ac8;fill-opacity:1;fill-rule:nonzero;stroke:none" d="M1054.67 499.672c2.67-156.66 100.23-281.934 217.91-279.863 117.67 2.109 210.9 130.82 208.24 287.5-2.68 156.66-100.25 281.953-217.93 279.843-117.68-2.109-210.9-130.8-208.22-287.48zm858.77 189.433c2.71-5.976-3.71 8.926-3.71 8.926zm70.7-648.593c4.77 8.09 11.37 20.469 19.24 35.937zm6.09 702.636c1.25-3.457 2.7-7.109 4.34-10.937l34.92-85.449zm-434.6-430.253c64.12-58.165 121.83-88.243 195.64-88.243 75.57-.586 142.71 36.368 142.71 107.461 0 59.297-52.59 94.004-146.62 133.75-79.65 34.453-138.94 58.594-169.94 108.496 3.79-21.679 5.76-44.062 5.76-66.972 0-192.422-139.61-348.36-311.83-348.36-172.21 0-311.819 155.938-311.819 348.36 0 115.976 50.719 218.73 128.749 282.051H877.266V290.316l.019-1.992V185.746h-93.73v99.258c.058 1.719.078 3.516.078 5.312v499.122h-82.617v62.832h83.828c10.84 126.718 89.375 198.4 198.105 198.4 70.511 0 109.221-7.35 131.561-17.7v-85.896c-.31-6.406-.33-10.312-.33-10.312-.96.097-3.28.117-3.28.117-33.93 31.309-67.42 54.59-145.607 54.512-62.266 0-103.477-50.567-89.063-139.121h350.78a284.515 284.515 0 0 0 44.34 3.476c124.94 0 232.71-82.09 282.48-200.625-.45 6.582-.69 13.438-.69 20.625 0 123.672 119.79 176.289 244.22 176.035 4.77.02 9.44-.019 13.99-.097 43.81.703 106.21-13.594 144.29-23.594l34.59-84.942 39.26-96.386 105.55-257.344 12.4-41.328 13.77 41.328 133.5 330.293c24.61 90.937 122.09 130.293 229.74 130.078 53.52.234 93.05-6.191 140.43-22.871v-99.883c-58.36 42.403-100.13 67.031-166.36 67.031-58.21 0-128.17-25.742-128.17-111.367-1.11-64.355 37.5-76.113 150.84-132.324 93.17-40.43 179.1-85.059 179.61-188.418 0-172.344-169.86-202.148-252.54-202.422-73.81 0-141.46 18.203-179.1 49.492v113.75l6.05-5c67.15-62.656 126.49-95.117 203.17-95.117 75.55-.586 142.69 36.367 142.69 107.461 0 59.297-52.59 94.004-146.62 133.75-89.86 38.867-148.81 64.629-172.91 129.024C2264.9 503.578 2094.45 88.675 2054.34 0h-91.9l21.7 40.512 19.24 35.937.64 1.172c23.03 45.352 56.59 116.484 86.35 184.57l-176.93 426.914c-1.17 2.618-4.08 9.161-10 22.598-13.58 30.918-26.21 59.473-64.42 73.887-20.47 6.855-42.24 10.469-67.59 10.469-58.21 0-132.64-25.743-132.64-111.368-1.13-64.355 41.97-76.113 155.31-132.324 93.17-40.429 179.08-85.058 179.61-188.418 0-172.344-169.88-202.148-252.56-202.422-65.64 0-126.4 14.375-165.52 39.61v111.758" transform="matrix(.13333 0 0 -.13333 0 142.68)"/>
	<path style="fill:#287ac8;fill-opacity:1;fill-rule:nonzero;stroke:none" d="M1913.44 689.105c2.71-5.976-3.71 8.926-3.71 8.926l3.71-8.926" transform="matrix(.13333 0 0 -.13333 0 142.68)"/>
	<path style="fill:none;stroke:#287ac8;stroke-width:7.5;stroke-linecap:butt;stroke-linejoin:miter;stroke-miterlimit:3.86369991;stroke-dasharray:none;stroke-opacity:1" d="M1913.44 689.105c2.71-5.976-3.71 8.926-3.71 8.926z" transform="matrix(.13333 0 0 -.13333 0 142.68)"/>
	<path style="fill:none;stroke:#287ac8;stroke-width:7.5;stroke-linecap:butt;stroke-linejoin:miter;stroke-miterlimit:3.86369991;stroke-dasharray:none;stroke-opacity:1" d="M1984.14 40.512c4.77 8.09 11.37 20.468 19.24 35.937z" transform="matrix(.13333 0 0 -.13333 0 142.68)"/>
	<path style="fill:#287ac8;fill-opacity:1;fill-rule:nonzero;stroke:none" d="M1990.23 743.148c1.25-3.457 2.7-7.109 4.34-10.937l34.92-85.449-39.26 96.386" transform="matrix(.13333 0 0 -.13333 0 142.68)"/>
	<path style="fill:none;stroke:#287ac8;stroke-width:7.5;stroke-linecap:butt;stroke-linejoin:miter;stroke-miterlimit:3.86369991;stroke-dasharray:none;stroke-opacity:1" d="M1990.23 743.148c1.25-3.457 2.7-7.109 4.34-10.937l34.92-85.449z" transform="matrix(.13333 0 0 -.13333 0 142.68)"/>
	<path style="fill:none;stroke:#287ac8;stroke-width:7.5;stroke-linecap:round;stroke-linejoin:round;stroke-miterlimit:4;stroke-dasharray:none;stroke-opacity:1" d="M1054.67 499.672c2.67-156.66 100.23-281.934 217.91-279.863 117.67 2.109 210.9 130.82 208.24 287.5-2.68 156.66-100.25 281.953-217.93 279.843-117.68-2.109-210.9-130.8-208.22-287.48z" transform="matrix(.13333 0 0 -.13333 0 142.68)"/>
	<path style="fill:none;stroke:#287ac8;stroke-width:7.5;stroke-linecap:round;stroke-linejoin:round;stroke-miterlimit:4;stroke-dasharray:none;stroke-opacity:1" d="M701.016 852.27v-62.832h82.617V290.316c0-1.796-.02-3.593-.078-5.312v-99.258h93.73v102.578l-.019 1.992v499.122h211.014c-78.03-63.321-128.749-166.075-128.749-282.051 0-192.422 139.609-348.36 311.819-348.36 172.22 0 311.83 155.938 311.83 348.36 0 22.91-1.97 45.293-5.76 66.972 31-49.902 90.29-74.043 169.94-108.496 94.03-39.746 146.62-74.453 146.62-133.75 0-71.093-67.14-108.047-142.71-107.461-73.81 0-131.52 30.078-195.64 88.243V201.137c39.12-25.235 99.88-39.61 165.52-39.61 82.68.274 252.56 30.078 252.56 202.422-.53 103.36-86.44 147.989-179.61 188.418-113.34 56.211-156.44 67.969-155.31 132.324 0 85.625 74.43 111.368 132.64 111.368 25.35 0 47.12-3.614 67.59-10.469 38.21-14.414 50.84-42.969 64.42-73.887 5.92-13.437 8.83-19.98 10-22.598l176.93-426.914c-29.76-68.086-63.32-139.218-86.35-184.57l-.64-1.172-19.24-35.937L1962.44 0h91.9c40.11 88.676 210.56 503.578 247.2 592.895 24.1-64.395 83.05-90.157 172.91-129.024 94.03-39.746 146.62-74.453 146.62-133.75 0-71.094-67.14-108.047-142.69-107.461-76.68 0-136.02 32.461-203.17 95.117l-6.05 5v-113.75c37.64-31.289 105.29-49.492 179.1-49.492 82.68.274 252.54 30.078 252.54 202.422-.51 103.359-86.44 147.988-179.61 188.418-113.34 56.211-151.95 67.969-150.84 132.324 0 85.625 69.96 111.367 128.17 111.367 66.23 0 108-24.628 166.36-67.031v99.883c-47.38 16.68-86.91 23.105-140.43 22.871-107.65.215-205.13-39.141-229.74-130.078l-133.5-330.293-13.77-41.328-12.4 41.328-105.55 257.344-39.26 96.386-34.59 84.942c-38.08 10-100.48 24.297-144.29 23.594-4.55.078-9.22.117-13.99.097-124.43.254-244.22-52.363-244.22-176.035 0-7.187.24-14.043.69-20.625-49.77 118.535-157.54 200.625-282.48 200.625-15.04 0-29.85-1.191-44.34-3.476H876.23c-14.414 88.554 26.797 139.121 89.063 139.121 78.187.078 111.677-23.203 145.607-54.512 0 0 2.32-.02 3.28-.117 0 0 .02 3.906.33 10.312v85.896c-22.34 10.35-61.05 17.7-131.561 17.7-108.73 0-187.265-71.682-198.105-198.4z" transform="matrix(.13333 0 0 -.13333 0 142.68)"/>
	<path style="fill:#287ac8;fill-opacity:1;fill-rule:nonzero;stroke:none" d="m297.285 845.824 1.153-75.371-.059-5.078h.996a30.074 30.074 0 0 0 4.375 7.813c38.086 40.82 86.113 81.386 200.254 81.386 109.219 0 179.941-92.773 182.773-151.172l.098-413.086.02-2.07v-102.5h-93.633l.019 123.164-.039 351.699c0 72.793-63.926 125.43-142.168 125.43-65.058 0-148.574-58.496-151.308-117.734V290.238l.019-2.812V185.668h-93.652V759.008l.019 86.816H297.285" transform="matrix(.13333 0 0 -.13333 0 142.68)"/>
	<path style="fill:none;stroke:#287ac8;stroke-width:7.5;stroke-linecap:butt;stroke-linejoin:miter;stroke-miterlimit:3.86369991;stroke-dasharray:none;stroke-opacity:1" d="m297.285 845.824 1.153-75.371-.059-5.078h.996a30.074 30.074 0 0 0 4.375 7.813c38.086 40.82 86.113 81.386 200.254 81.386 109.219 0 179.941-92.773 182.773-151.172l.098-413.086.02-2.07v-102.5h-93.633l.019 123.164-.039 351.699c0 72.793-63.926 125.43-142.168 125.43-65.058 0-148.574-58.496-151.308-117.734V290.238l.019-2.812V185.668h-93.652V759.008l.019 86.816h67.852z" transform="matrix(.13333 0 0 -.13333 0 142.68)"/>
</svg>
