<svg xmlns="http://www.w3.org/2000/svg" viewBox="-4.88 74.37 410.02 96.52">
	<defs>
		<style>
			.cls-1{fill:#673499}.cls-2{fill:#bd92eb}.cls-3{fill:#9e6fcc}
		</style>
	</defs>
	<path d="M397.444 115.479a1.863 1.863 0 0 1-.59.034q-5.27.003-10.54.002c-.162 0-.324.006-.485.02a.146.146 0 0 0-.137.141c-.01.162-.014.324-.014.485v20.211c0 .67.052.602-.615.603q-2.81.003-5.621 0c-.127 0-.253.004-.379-.002-.196-.01-.235-.052-.243-.27-.006-.162-.003-.325-.003-.487v-19.994c0-.77.076-.707-.684-.708h-7.568c-.644 0-.592.046-.592-.572q-.002-2.81 0-5.62c0-.108-.003-.216.002-.324.01-.206.042-.236.264-.245.144-.006.288-.003.432-.003h7.46c.143 0 .288.003.432-.004.2-.01.242-.054.251-.268.007-.144.003-.288.003-.432v-7.944c0-.663-.042-.6.622-.6q2.811-.002 5.622 0c.144 0 .288.002.432.006a.165.165 0 0 1 .176.165c.01.161.009.323.009.485v7.944c0 .697-.056.648.634.648l10.54.001c.198 0 .395.017.593.026z" class="cls-1"/>
	<path d="M43.878 163.257c-.065-.11-.179-.096-.284-.117a5.727 5.727 0 0 1-4.6-4.81 5.477 5.477 0 0 1 .81-3.808 5.564 5.564 0 0 1 3.594-2.556 4.95 4.95 0 0 1 2.028-.084 6.615 6.615 0 0 1 1.699.491 5.459 5.459 0 0 1 1.947 1.498 5.91 5.91 0 0 1 1.222 2.55 1.5 1.5 0 0 1 .045.156 5.899 5.899 0 0 1-1.072 4.384 5.688 5.688 0 0 1-3.592 2.188.24.24 0 0 0-.175.108z" class="cls-2"/>
	<path d="M3.116 121.424c.161-.092.18-.256.208-.416a4.329 4.329 0 0 1 1.367-2.514 4.368 4.368 0 0 1 2.932-1.193 4.43 4.43 0 0 1 2.522.656 4.483 4.483 0 0 1 .72 7.098 4.488 4.488 0 0 1-5.804.32 4.287 4.287 0 0 1-1.742-2.877.588.588 0 0 0-.203-.425z" class="cls-3"/>
	<path d="M45.176 82.402c.043.1.14.094.225.115a3.617 3.617 0 0 1 .855.322 3.278 3.278 0 0 1 1.71 3.443 3.332 3.332 0 1 1-4.41-3.655 1.79 1.79 0 0 0 .647-.225zm283.04 46.566-.002 10.375a12.041 12.041 0 0 1-.294 2.895 8.661 8.661 0 0 1-5.568 6.276 10.382 10.382 0 0 1-3.749.696q-5.756-.008-11.513-.002c-.126 0-.252.003-.378-.001-.287-.009-.3-.021-.307-.314-.005-.235-.001-.469-.001-.703v-5.08c0-.144-.003-.288.002-.432.01-.237.038-.263.296-.27.144-.005.289-.002.433-.002h11.297a4.85 4.85 0 0 0 1.18-.105 2.17 2.17 0 0 0 1.711-1.807 4.769 4.769 0 0 0 .094-.966q-.005-10.565 0-21.13a5.403 5.403 0 0 0-.084-.913 2.17 2.17 0 0 0-1.934-1.894 7.343 7.343 0 0 0-1.023-.074q-5.81-.007-11.621 0c-.27 0-.54.028-.808.051a2.47 2.47 0 0 0-2.125 1.816 2.648 2.648 0 0 0-.12.798c.002.108-.001.216-.001.324v8.7a4.784 4.784 0 0 0 .092 1.074 2.214 2.214 0 0 0 1.698 1.766 3.187 3.187 0 0 0 .854.122c.198-.002.396.005.595.005h10.972c.145 0 .289-.003.433.002.282.008.296.023.305.315.004.126.002.252.002.378v5.404c0 .108.002.216 0 .324-.009.359-.02.37-.356.38h-.216c-3.892 0-7.784.021-11.676-.008a10.004 10.004 0 0 1-6.257-2.188 8.373 8.373 0 0 1-2.8-4.207 9.617 9.617 0 0 1-.437-2.873c-.006-3.206-.034-6.413.008-9.619a9.776 9.776 0 0 1 2.482-6.468 8.537 8.537 0 0 1 4.51-2.611 9.206 9.206 0 0 1 2.25-.252c4.216 0 8.432-.012 12.648.005a9.725 9.725 0 0 1 6.317 2.305 8.465 8.465 0 0 1 2.796 4.637 12.027 12.027 0 0 1 .293 2.895q.006 5.188.001 10.376zM222.687 108.75c2.325 0 4.65-.019 6.974.006a9.392 9.392 0 0 1 5.614 1.81 8.576 8.576 0 0 1 3.569 6.17 14.84 14.84 0 0 1 .081 1.672c0 3.045.013 6.09-.005 9.133a9.815 9.815 0 0 1-1.415 5.144 8.648 8.648 0 0 1-5.045 3.915 9.323 9.323 0 0 1-2.667.372c-4.198.008-8.397.037-12.595-.01a9.352 9.352 0 0 1-6.04-2.157 8.49 8.49 0 0 1-3.063-5.306 10.348 10.348 0 0 1 .672-5.823 8.636 8.636 0 0 1 5.786-5.11 9.97 9.97 0 0 1 2.782-.329q5.865-.012 11.73-.003c.476 0 .48.005.48.47q.002 2.783 0 5.566c0 .073.002.145-.002.217-.012.197-.052.237-.27.245-.161.006-.324.003-.486.003h-11.19c-.216 0-.432.005-.648.017a2.547 2.547 0 0 0-2.372 1.885 3.256 3.256 0 0 0-.052 1.865 2.642 2.642 0 0 0 1.984 1.873 3.242 3.242 0 0 0 .908.117q6.055-.006 12.11 0a3.51 3.51 0 0 0 1.013-.14 2.564 2.564 0 0 0 1.785-1.864 3.193 3.193 0 0 0 .122-.907q-.004-4.756-.002-9.512a2.73 2.73 0 0 0-.992-2.24 2.982 2.982 0 0 0-1.801-.637c-.162-.008-.325-.002-.487-.002h-13.893c-.713 0-.647.05-.647-.632q-.003-2.594 0-5.188c0-.144.002-.288.007-.432a.168.168 0 0 1 .163-.178c.162-.011.324-.01.486-.01h7.406zm-106.428 15.5.001-11.724c0-.287.015-.576.039-.862a3.315 3.315 0 0 1 3.07-2.905c.18-.008.36-.008.54-.008h15.078a12.965 12.965 0 0 1 8.464 3.038 11.069 11.069 0 0 1 3.573 5.486 13.654 13.654 0 0 1 .534 3.35c.013.288.01.576.01.864v14.804c0 .144.003.289-.002.432-.009.21-.042.241-.264.248-.18.006-.36.003-.54.003h-5.513c-.517 0-.493.01-.493-.51q0-7.537.003-15.074a6.16 6.16 0 0 0-.174-1.606 5.425 5.425 0 0 0-4.165-4.09 6.899 6.899 0 0 0-1.715-.178q-5.54-.01-11.079-.004c-.108 0-.216-.003-.324.004-.19.013-.237.065-.246.276-.006.162-.002.324-.002.487l-.001 19.936c0 .872.1.755-.732.757-1.838.005-3.675.003-5.513.001-.54 0-.55.064-.55-.568q.002-6.078 0-12.156zm129.192-7.48v-16.534c0-.162-.004-.324.003-.486.008-.2.05-.237.267-.247.072-.004.144-.002.216-.002h5.837c.464 0 .484-.019.478.473-.002.126 0 .252 0 .378v29.122c0 .791-.087.698.683.698q13.106.003 26.212.003c.809 0 .716-.114.718.715q.005 2.675.001 5.35c0 .143.004.288-.002.431-.012.267-.044.296-.325.304-.108.003-.217 0-.325 0q-15.051 0-30.102.003a3.994 3.994 0 0 1-1.634-.294 3.196 3.196 0 0 1-1.97-2.521 4.93 4.93 0 0 1-.058-.86v-16.534zm-91.836 4.028q0-7.403-.003-14.805a10.368 10.368 0 0 1 .28-2.57 8.642 8.642 0 0 1 4.82-5.901 10.612 10.612 0 0 1 4.702-1.047q4.756-.002 9.512 0h4.972c.144 0 .288.002.432.009a.165.165 0 0 1 .165.175c.007.107.005.216.005.324v5.781c0 .072.002.144 0 .216-.01.262-.03.285-.27.294-.162.005-.325.002-.487.002h-14.322a5.92 5.92 0 0 0-.968.071 2.244 2.244 0 0 0-2.01 2.192c-.033.34-.026.684-.026 1.026l-.001 29.716q0 .27-.013.54a.143.143 0 0 1-.136.14 1.79 1.79 0 0 1-.215.014H154c-.072 0-.144-.003-.216-.008a.165.165 0 0 1-.163-.177c-.006-.161-.005-.324-.005-.486v-15.506zm29.005 6.289c0-2.99-.005-5.98.002-8.969a9.803 9.803 0 0 1 .663-3.643 8.68 8.68 0 0 1 4.698-4.827 10.044 10.044 0 0 1 4.19-.9q7.35.01 14.7.003c.677 0 .614-.064.614.6q.003 2.783 0 5.565c0 .662.06.597-.62.597q-7.134.003-14.267-.001a7.901 7.901 0 0 0-1.13.078 2.225 2.225 0 0 0-1.974 1.867 4.815 4.815 0 0 0-.083 1.02v17.829c0 .162 0 .324-.007.486a.165.165 0 0 1-.164.175c-.09.006-.18.008-.27.008h-5.89c-.055 0-.109.002-.163 0-.26-.01-.288-.033-.297-.272-.006-.144-.002-.288-.002-.432v-9.184zm183.205-.231v9.455c0 .768.04.662-.67.663q-2.837.007-5.675.001c-.475 0-.48-.004-.481-.472-.003-1.225-.001-2.45-.001-3.674l-.002-14.264a8.712 8.712 0 0 0-.04-.917 2.197 2.197 0 0 0-2.06-2.07 9.11 9.11 0 0 0-1.023-.061q-5.594-.007-11.187-.003c-.719 0-.646.053-.647-.63q-.003-2.755 0-5.51c0-.126-.003-.253.002-.378.009-.183.05-.23.216-.24.125-.008.252-.006.378-.006 3.91 0 7.818-.008 11.727.003a9.854 9.854 0 0 1 6.287 2.237 8.963 8.963 0 0 1 3.121 6.305c.03.683.05 1.367.052 2.05.006 2.504.003 5.008.003 7.511zm-31.31-9.967.001-19.398c0-.794-.088-.699.679-.7q2.756-.006 5.513-.001c.144 0 .288 0 .432.008a.166.166 0 0 1 .17.168c.008.126.008.252.008.378v39.066c0 .126.002.252-.005.378a.167.167 0 0 1-.162.178 4.57 4.57 0 0 1-.323.01h-5.837c-.474 0-.477.016-.476-.474v-12.265zm-225.43 1.342-.001 18.042c0 .797.088.7-.676.702q-2.756.005-5.511 0c-.144 0-.288.001-.432-.006a.167.167 0 0 1-.173-.169 6.1 6.1 0 0 1-.008-.377V100.07c0-.108-.003-.216.002-.324.01-.184.05-.23.218-.241.09-.006.18-.004.27-.004h5.835c.47 0 .477-.016.477.473q-.002 6.4-.001 12.802zm181.886 4.598v13.672c-.006.47-.006.474-.477.474q-2.919.002-5.838 0c-.054 0-.108.002-.162 0-.248-.01-.29-.048-.3-.274-.007-.126-.003-.252-.003-.378V109.41c0-.733-.073-.658.67-.659q2.73-.004 5.46 0c.734.001.648-.08.649.676q.003 6.052 0 12.105z" class="cls-1"/>
	<path d="M170.814 115.514h-7.023c-.737-.001-.65.066-.65-.676q-.005-2.7-.002-5.401c0-.108-.001-.216.001-.324.008-.352.01-.354.369-.362.108-.003.216 0 .324 0h13.992c.144 0 .288-.003.432.003.208.008.238.038.242.265.005.342.003.685.003 1.027v4.86q0 .216-.009.432a.161.161 0 0 1-.17.167 9.848 9.848 0 0 1-.486.009h-7.023z" class="cls-1"/>
	<path fill="#ae81db" d="M25.052 133.9a5.134 5.134 0 0 1-5.133 5.123 5.128 5.128 0 1 1-.042-10.257 5.176 5.176 0 0 1 5.175 5.135zm14.485-.076a5.146 5.146 0 1 1 5.076 5.2 5.117 5.117 0 0 1-5.076-5.2zm-7.244-5.053a5.126 5.126 0 1 1-5.252 5.068 5.114 5.114 0 0 1 5.252-5.068zm24.686 0a5.126 5.126 0 1 1-5.167 5.127 5.11 5.11 0 0 1 5.167-5.127zm12.298-.127a5.047 5.047 0 0 1 5.151 5.121 5.16 5.16 0 0 1-10.318-.017 5.074 5.074 0 0 1 5.167-5.104z"/>
	<path d="M39.54 145.63a5.144 5.144 0 1 1 5.1 5.175 5.115 5.115 0 0 1-5.1-5.175zm17.464-5.082a5.127 5.127 0 1 1-5.217 5.145 5.248 5.248 0 0 1 1.532-3.63 5.141 5.141 0 0 1 3.685-1.515zm-24.705.006a5.126 5.126 0 1 1-.12 10.25 5.126 5.126 0 1 1 .12-10.25z" class="cls-2"/>
	<path d="M19.9 117.304a4.487 4.487 0 1 1-4.535 4.449 4.43 4.43 0 0 1 4.536-4.45zm37.065 0a4.487 4.487 0 1 1-4.52 4.467 4.46 4.46 0 0 1 4.52-4.467zm12.298 0a4.486 4.486 0 1 1-.018 8.972 4.486 4.486 0 1 1 .018-8.972zm16.891 4.528a4.487 4.487 0 0 1-4.557 4.444 4.437 4.437 0 0 1-4.482-4.517 4.486 4.486 0 0 1 4.636-4.473 4.548 4.548 0 0 1 4.403 4.546zm-53.921-4.528a4.486 4.486 0 1 1 .001 8.972 4.486 4.486 0 1 1-.001-8.972zm12.446 0a4.485 4.485 0 1 1 .01 8.97 4.485 4.485 0 1 1-.01-8.97z" class="cls-3"/>
	<path fill="#8d5dbe" d="M44.689 113.436a4.062 4.062 0 1 1-.01-8.125 4.062 4.062 0 1 1 .01 8.125zm24.532 0a4.052 4.052 0 0 1-4.044-4.116 4.1 4.1 0 0 1 4.11-4.012 4.064 4.064 0 1 1-.066 8.127zm-36.979 0a4.064 4.064 0 1 1-.016-8.128 4.1 4.1 0 0 1 4.085 4.037 4.054 4.054 0 0 1-4.069 4.09zm-12.35 0a4.03 4.03 0 0 1-4.098-4.065 4.092 4.092 0 1 1 4.097 4.064zm37.089 0a4.064 4.064 0 1 1 .003-8.128 4.096 4.096 0 0 1 4.075 4.047 4.041 4.041 0 0 1-4.078 4.08zM44.706 94.057a3.678 3.678 0 1 1-.07 7.356 3.678 3.678 0 1 1 .07-7.356zm12.294 0a3.678 3.678 0 1 1-3.735 3.614A3.694 3.694 0 0 1 57 94.057zm-21.09 3.69a3.696 3.696 0 0 1-7.392-.033 3.696 3.696 0 0 1 7.392.034z"/>
	<path d="M287.586 96.79h2.862c.108 0 .216.002.324.005.134.003.188.084.195.206.004.09.005.18.005.27v5.183c0 .108-.002.216-.011.324a.165.165 0 0 1-.178.159 4.373 4.373 0 0 1-.216.006h-5.995c-.072 0-.144 0-.216-.007a.17.17 0 0 1-.166-.176 5.551 5.551 0 0 1-.013-.377V97.36c0-.09-.003-.18.002-.27.014-.266.043-.299.328-.3 1.027-.003 2.053-.001 3.079-.001z" class="cls-1"/>
</svg>
