<svg xmlns="http://www.w3.org/2000/svg" viewBox="181.26 -8.74 700.98 818.48">
	<defs>
		<clipPath id="a" clipPathUnits="userSpaceOnUse">
			<path d="M0 600h800V0H0Z"/>
		</clipPath>
	</defs>
	<g clip-path="url(#a)" transform="matrix(1.33333 0 0 -1.33333 0 800)">
		<path fill="#9b59b6" fill-rule="evenodd" d="M542.455 401.547c-9.471.006-17.192-7.675-17.213-17.118-.014-9.504 7.581-17.192 17.057-17.273 9.619-.074 17.331 7.593 17.348 17.26.016 9.416-7.722 17.131-17.192 17.131m95.98 35.679c.054 9.443-7.621 17.179-17.091 17.227-9.478.053-17.199-7.548-17.301-17.017-.1-9.457 7.526-17.267 16.956-17.368 9.633-.109 17.385 7.525 17.436 17.158m-.572-105.092c-.065 9.49-7.739 17.098-17.24 17.084-9.609-.021-17.271-7.81-17.165-17.443.104-9.436 7.921-17.057 17.382-16.942 9.493.108 17.084 7.824 17.023 17.301M560.06 446.98h37.04c7.803 13.297 18.7 18.581 30.93 15.14 11.488-3.231 19.233-13.568 19.018-25.402-.207-11.496-8.278-21.616-19.491-24.495-9.6-2.466-23.205.481-30.327 15.206H314.458c-8.673-9.069-14.234-19.826-16.343-32.595h220.557c8.111 12.952 18.865 17.883 31.118 14.226 11.244-3.354 18.784-13.786 18.466-25.532-.304-11.434-8.609-21.595-19.762-24.291-9.881-2.398-23.522 1.03-30.324 15.824H297.933c1.907-13.196 7.531-24.325 16.545-33.823h281.809c8.407 13.893 18.751 19.103 31.063 15.695 11.39-3.156 19.181-13.358 19.129-25.05-.047-11.522-7.895-21.636-19.128-24.773-9.666-2.702-23.206.319-30.441 14.484H442.686c-38.961-50.961-111.531-55.548-156.489-12.809-43.416 41.267-42.933 111.48.718 151.873 45.283 41.91 117.05 36.992 155.752-13.556h92.817c-9.717 27.313-24.888 50.907-45.507 70.945-31.626 30.74-69.481 48.576-113.391 52.605-98.019 8.984-177.578-55.702-199.309-138.425-22.746-86.579 19.514-177.709 100.165-216.152 79.328-37.805 179.988-17.232 236.013 62.876h26.895C507.5 218.677 427.98 163.244 330.287 176.44c-102.51 13.845-179.658 99.802-182.213 202.82-2.595 104.653 71.161 192.03 169.349 211.431C424.282 611.798 527.67 549.214 560.06 446.98"/>
		<path d="M161.955 106.386h18.583V5.224h-18.583zm9.292 19.469q-5.42 0-9.098 3.436-3.485 3.435-3.485 8.398 0 4.963 3.485 8.398 3.677 3.627 9.098 3.627 5.42 0 8.904-3.436 3.678-3.245 3.678-8.207 0-5.154-3.678-8.78-3.484-3.436-8.904-3.436zm94.656-18.515q19.551 0 30.972-11.261 11.614-11.07 11.614-32.64V5.225h-18.583V61.34q0 14.697-7.162 22.141-7.162 7.444-20.519 7.444-15.098 0-23.809-8.78-8.71-8.589-8.71-24.813V5.224h-18.584v101.162h17.809v-15.27q5.614 7.826 15.099 12.025 9.678 4.2 21.873 4.2zm72.203 39.51h18.582V5.225h-18.582zm141.888-91.618q0-2.1-.387-5.535H396.37q1.742-13.36 11.808-21.568 10.259-8.017 25.358-8.017 18.389 0 29.616 12.216l10.26-11.834q-6.97-8.017-17.422-12.216-10.26-4.2-23.035-4.2-16.26 0-28.842 6.49-12.583 6.68-19.551 18.515-6.775 11.834-6.775 26.722 0 14.697 6.581 26.531 6.775 11.834 18.39 18.324 11.808 6.68 26.519 6.68 14.711 0 26.132-6.68 11.615-6.49 18.002-18.324 6.582-11.834 6.582-27.104zM429.278 91.88q-13.356 0-22.454-8.017-8.905-8.016-10.453-20.996h65.814q-1.548 12.789-10.646 20.805-8.905 8.208-22.261 8.208zM558.584 11.14q-4.065-3.436-10.066-5.344-6-1.718-12.388-1.718-15.486 0-24.003 8.207-8.517 8.208-8.517 23.477v55.544h-17.422v15.079h17.422v22.141h18.583v-22.141h29.423V91.307h-29.423v-54.78q0-8.208 4.065-12.598 4.258-4.39 12.001-4.39 8.517 0 14.518 4.772zm47.038-7.062q-12.582 0-24.196 3.245-11.615 3.435-18.196 8.589l7.743 14.506q6.775-4.772 16.453-7.635 9.679-2.863 19.551-2.863 24.39 0 24.39 13.743 0 4.58-3.29 7.253-3.291 2.672-8.324 3.817-4.84 1.337-13.937 2.864-12.389 1.908-20.325 4.39-7.743 2.48-13.357 8.398-5.613 5.917-5.613 16.606 0 13.743 11.614 21.95 11.614 8.398 31.165 8.398 10.26 0 20.519-2.481 10.259-2.481 16.84-6.68l-7.936-14.507q-12.582 8.017-29.617 8.017-11.808 0-18.002-3.818-6.194-3.817-6.194-10.116 0-4.962 3.484-7.826 3.484-2.863 8.517-4.199 5.227-1.336 14.518-3.054 12.389-2.1 19.938-4.58 7.743-2.291 13.163-8.017 5.42-5.726 5.42-16.033 0-13.743-12.001-21.95-11.808-8.017-32.327-8.017z" fill="#2a506f"/>
	</g>
</svg>
