<svg xmlns="http://www.w3.org/2000/svg" xml:space="preserve" width="1066.667" height="800">
	<defs>
		<clipPath clipPathUnits="userSpaceOnUse" id="a">
			<path d="M0 600h800V0H0Z"/>
		</clipPath>
	</defs>
	<g clip-path="url(#a)" transform="matrix(1.33333 0 0 -1.33333 0 800)">
		<path d="M0 0c-9.471.006-17.192-7.675-17.213-17.118-.014-9.504 7.581-17.192 17.057-17.273 9.619-.074 17.331 7.593 17.348 17.26C17.208-7.715 9.47 0 0 0m95.98 35.679c.054 9.443-7.621 17.179-17.091 17.227-9.478.053-17.199-7.548-17.301-17.017-.1-9.457 7.526-17.267 16.956-17.368 9.633-.109 17.385 7.525 17.436 17.158m-.572-105.092c-.065 9.49-7.739 17.098-17.24 17.084-9.609-.021-17.271-7.81-17.165-17.443.104-9.436 7.921-17.057 17.382-16.942 9.493.108 17.084 7.824 17.023 17.301M17.605 45.433h37.04c7.803 13.297 18.7 18.581 30.93 15.14 11.488-3.231 19.233-13.568 19.018-25.402-.207-11.496-8.278-21.616-19.491-24.495-9.6-2.466-23.205.481-30.327 15.206h-282.772c-8.673-9.069-14.234-19.826-16.343-32.595h220.557C-15.672 6.239-4.918 11.17 7.335 7.513 18.579 4.159 26.119-6.273 25.801-18.019c-.304-11.434-8.609-21.595-19.762-24.291-9.881-2.398-23.522 1.03-30.324 15.824h-220.237c1.907-13.196 7.531-24.325 16.545-33.823H53.832c8.407 13.893 18.751 19.103 31.063 15.695 11.39-3.156 19.181-13.358 19.129-25.05-.047-11.522-7.895-21.636-19.128-24.773-9.666-2.702-23.206.319-30.441 14.484H-99.769c-38.961-50.961-111.531-55.548-156.489-12.809-43.416 41.267-42.933 111.48.718 151.873 45.283 41.91 117.05 36.992 155.752-13.556h92.817c-9.717 27.313-24.888 50.907-45.507 70.945-31.626 30.74-69.481 48.576-113.391 52.605-98.019 8.984-177.578-55.702-199.309-138.425-22.746-86.579 19.514-177.709 100.165-216.152C-185.685-223.277-85.025-202.704-29-122.596h26.895c-32.85-60.274-112.37-115.707-210.063-102.511-102.51 13.845-179.658 99.802-182.213 202.82-2.595 104.653 71.161 192.03 169.349 211.431 106.859 21.107 210.247-41.477 242.637-143.711" style="fill:#9b59b6;fill-opacity:1;fill-rule:evenodd;stroke:none" transform="translate(542.455 401.547)"/>
		<g aria-label="inlets" style="font-variant:normal;font-weight:500;font-stretch:normal;font-size:193.57200623px;font-family:'Montserrat Medium';-inkscape-font-specification:Montserrat-Medium;writing-mode:lr-tb;fill:#2a506f;fill-opacity:1;fill-rule:nonzero;stroke:none">
			<path d="M17.615-102.593h18.583V0H17.615Zm9.292-19.745q-5.42 0-9.098-3.484-3.485-3.484-3.485-8.517 0-5.033 3.485-8.517 3.677-3.678 9.098-3.678 5.42 0 8.904 3.484 3.678 3.291 3.678 8.324 0 5.226-3.678 8.904-3.484 3.484-8.904 3.484z" transform="matrix(1 0 0 -.98605 144.34 5.224)"/>
			<path d="M121.563-103.561q19.551 0 30.972 11.42 11.614 11.228 11.614 33.102V0h-18.583v-56.91q0-14.905-7.162-22.455-7.162-7.549-20.519-7.549-15.098 0-23.809 8.904-8.71 8.711-8.71 25.165V0H66.781v-102.593h17.809v15.486q5.614-7.937 15.099-12.195 9.678-4.259 21.873-4.259z" transform="matrix(1 0 0 -.98605 144.34 5.224)"/>
			<path d="M193.766-143.63h18.582V0h-18.582z" transform="matrix(1 0 0 -.98605 144.34 5.224)"/>
			<path d="M335.654-50.716q0 2.13-.387 5.614H252.03q1.742 13.55 11.808 21.873 10.259 8.13 25.358 8.13 18.389 0 29.616-12.388l10.26 12.001q-6.97 8.13-17.422 12.389-10.26 4.258-23.035 4.258-16.26 0-28.842-6.581-12.583-6.775-19.551-18.777-6.775-12.001-6.775-27.1 0-14.905 6.581-26.906 6.775-12.002 18.39-18.583 11.808-6.775 26.519-6.775 14.711 0 26.132 6.775 11.615 6.581 18.002 18.583 6.582 12.001 6.582 27.487zm-50.716-37.166q-13.356 0-22.454 8.13-8.905 8.13-10.453 21.293h65.814q-1.548-12.97-10.646-21.1-8.905-8.323-22.261-8.323z" transform="matrix(1 0 0 -.98605 144.34 5.224)"/>
			<path d="M414.244-6q-4.065 3.484-10.066 5.42-6 1.741-12.388 1.741-15.486 0-24.003-8.323-8.517-8.324-8.517-23.81V-87.3h-17.422v-15.292h17.422v-22.455h18.583v22.455h29.423v15.292h-29.423v55.555q0 8.324 4.065 12.776 4.258 4.452 12.001 4.452 8.517 0 14.518-4.84z" transform="matrix(1 0 0 -.98605 144.34 5.224)"/>
			<path d="M461.282 1.161q-12.582 0-24.196-3.29-11.615-3.485-18.196-8.711l7.743-14.712q6.775 4.84 16.453 7.743 9.679 2.904 19.551 2.904 24.39 0 24.39-13.937 0-4.646-3.29-7.356-3.291-2.71-8.324-3.871-4.84-1.355-13.937-2.904-12.389-1.936-20.325-4.452-7.743-2.517-13.357-8.517-5.613-6.001-5.613-16.841 0-13.937 11.614-22.26 11.614-8.518 31.165-8.518 10.26 0 20.519 2.516 10.259 2.517 16.84 6.775l-7.936 14.712q-12.582-8.13-29.617-8.13-11.808 0-18.002 3.871-6.194 3.872-6.194 10.26 0 5.033 3.484 7.936 3.484 2.904 8.517 4.259 5.227 1.355 14.518 3.097 12.389 2.13 19.938 4.646 7.743 2.322 13.163 8.13 5.42 5.807 5.42 16.26 0 13.937-12.001 22.26-11.808 8.13-32.327 8.13z" transform="matrix(1 0 0 -.98605 144.34 5.224)"/>
		</g>
	</g>
</svg>
