<svg xmlns="http://www.w3.org/2000/svg" width="200" height="128">
    <path d="M36.7 62.65a.8.8 0 01-.16.08l-.27.13-.1.06a4.46 4.46 0 01-.8.28 8.73 8.73 0 01-2.39.21h-.41l-.57-.63a.42.42 0 00-.18-.11.47.47 0 00-.58.23l-.57 1.18v-.13c-.13-.69-.26-1.34-.37-2l-.1-.5c-.19-1-.39-2-.61-3A.64.64 0 0029 58a.68.68 0 00-.79.52l-.49 2.27c-.15.74-.3 1.5-.44 2.26-.08.39-.15.79-.22 1.18 0 .17-.06.35-.09.51l-.71-2.83v-.06a.42.42 0 00-.23-.26.44.44 0 00-.32-.06.54.54 0 00-.36.27l-.84 1.55-2.06.16a.32.32 0 00-.3.3.31.31 0 00.28.34l2.36.19a.49.49 0 00.42-.21l.35-.61 1 4.43a.62.62 0 00.49.49.68.68 0 00.46-.1.55.55 0 00.26-.38l.05-.23c.18-.69.35-1.38.47-2s.34-1.52.49-2.27c.09-.45.17-.9.26-1.35l.08.29c.28 1 .59 2.23.87 3.41a.41.41 0 00.28.34.5.5 0 00.38 0 .46.46 0 00.25-.26l.84-1.91.25.28a.42.42 0 00.34.17H34.15l.62-.07.6-.12a5.72 5.72 0 00.59-.17 5.18 5.18 0 00.65-.26l.31-.17.13-.06.18-.12h.1l.26-.16.08-.06v-.07" fill="#ff5142"/>
    <path d="M46.2 57.2h2.71v15.5H46.2zM57.79 61.35A4 4 0 0054.42 63L54 61.66h-2.15v11.06h2.66v-6.09c0-1.89 1.09-2.84 2.44-2.84s2.15.62 2.15 2.57v6.36h2.66V66c0-3.21-1.46-4.65-3.97-4.65zM68.94 66c-1.42-.25-2.22-.53-2.22-1.28 0-.58.6-1.13 1.82-1.13a1.86 1.86 0 011.89 1.61l2.32-.66a4 4 0 00-4.21-3.17c-2.68 0-4.3 1.54-4.3 3.44 0 2.32 1.93 3 4.23 3.45 1.7.27 2 .75 2 1.31 0 .8-.77 1.26-2 1.26A2.18 2.18 0 0166.28 69l-2.35.76A4.4 4.4 0 0068.54 73c2.73 0 4.46-1.52 4.46-3.49 0-2.22-1.6-3.08-4.06-3.51zM75.28 61.66h2.66v11.06h-2.66zM76.58 57A1.57 1.57 0 0075 58.58a1.56 1.56 0 001.55 1.57 1.58 1.58 0 001.61-1.58A1.6 1.6 0 0076.58 57zM88.8 63a3.86 3.86 0 00-3.35-1.63A5.32 5.32 0 0080.2 67c0 3.22 2.17 5.63 5.27 5.63A3.8 3.8 0 0088.8 71v1.35a2.67 2.67 0 01-3 2.86 2.39 2.39 0 01-2.63-1.89l-2.48.56c.55 2 2.15 3.59 5.11 3.59 3.59 0 5.66-2.07 5.66-5.17V61.66h-2.17zm-3 7.26a3.26 3.26 0 113-3.24 3 3 0 01-2.95 3.22zM100 61.35a4 4 0 00-3.28 1.52V57.2h-2.6v15.52h2.63v-6c0-1.89 1.09-2.84 2.44-2.84s2.15.6 2.15 2.59v6.3H104V66c0-3.21-1.46-4.65-4-4.65zM111.26 70.55c-.66 0-1-.36-1-1.18V64H113v-2.33h-2.81v-2.88h-2.66v2.87h-1.91V64h1.91v5.77a3 3 0 003.16 3.23 3.5 3.5 0 002.71-1l-1.11-1.88a1.54 1.54 0 01-1.03.43zM116.3 72.72h2.7v-6.25h6.15v-2.38H119v-4.45h7.03V57.2h-9.73v15.52zM129.75 57a1.57 1.57 0 00-1.55 1.58 1.56 1.56 0 001.55 1.57 1.58 1.58 0 100-3.16zM128.45 61.66h2.66v11.06h-2.66zM139.81 61.35a4 4 0 00-3.37 1.65l-.38-1.32h-2.21v11.04h2.68v-6.09c0-1.89 1.08-2.84 2.43-2.84s2.15.62 2.15 2.57v6.36h2.66V66c0-3.21-1.46-4.65-3.96-4.65zM154.72 62.9a4.21 4.21 0 00-3.44-1.55c-3.15 0-5.35 2.59-5.35 5.83a5.53 5.53 0 005.39 5.82 4.31 4.31 0 003.52-1.66l.35 1.35h2.19V57.2h-2.66zm-3.05 7.72a3.47 3.47 0 010-6.89 3.47 3.47 0 010 6.89zM165.13 61.32a5.85 5.85 0 000 11.69 4.87 4.87 0 004.94-3.19l-2.24-.69a2.74 2.74 0 01-2.7 1.69 3.06 3.06 0 01-3.06-2.76h8.27V67c.02-3.35-2-5.68-5.21-5.68zm-3 4.7a3 3 0 013-2.48A2.76 2.76 0 01168 66zM177.89 61.35a3.15 3.15 0 00-2.79 1.59l-.38-1.28h-2.19v11.06h2.66v-6c0-1.82 1-2.85 2.33-2.85a2.26 2.26 0 011.33.37l1-2.32a3.15 3.15 0 00-1.96-.57zM40.1 73.18c-.52-.51-1.07-1-1.62-1.45-1-.82-1.92-1.67-2.87-2.49a8.93 8.93 0 10-1.28 1.18c1.43 1.47 2.85 3 4.32 4.4a4.26 4.26 0 001.27 1 1.09 1.09 0 001.32-.19 1.12 1.12 0 000-1 4.31 4.31 0 00-1.14-1.45zM21 63.26a7.92 7.92 0 117.92 7.93A7.92 7.92 0 0121 63.26z" fill="#021923"/>
</svg>
