<svg xmlns="http://www.w3.org/2000/svg" viewBox="-14.73 -14.73 765.96 141.46" style="isolation:isolate">
	<defs>
		<clipPath id="a">
			<path d="M0 0h736.77v112.507H0z"/>
		</clipPath>
	</defs>
	<g clip-path="url(#a)">
		<path fill="#00BCE7" d="M0 0h24.599v20.889H0z"/>
		<path fill="#181A4B" d="M0 29.799h24.599v20.889H0zm0 29.799h24.599v20.889H0zm0 29.898h24.599v20.889H0zm104.396-52.598a21.705 21.705 0 0 0-9.3-6.999c-3.8-1.6-8.7-2.4-14.599-2.4a32.9 32.9 0 0 0-14 3.2 25.002 25.002 0 0 0-8.499 6.699v-7.799H34.399v80.896h24.599V68.197c0-7.499 1.2-12.899 3.599-16.099 2.4-3.2 6-4.5 11.3-4.5 5.3 0 7.5 1.3 9.2 4 1.7 2.7 2.699 7.3 2.699 13.399v45.498h24.699V61.097a63.094 63.094 0 0 0-1.299-13.499 25.616 25.616 0 0 0-4.8-10.7m80.096 30.399a34.044 34.044 0 0 0-8.299-4.2c-3-1-6.2-1.9-9.3-2.599l-8.899-1.9c-2.8-.6-5.3-1.3-7.5-2a16.12 16.12 0 0 1-4.9-2.6 4.9 4.9 0 0 1-.7-6.2 6.598 6.598 0 0 1 2.3-1.7 11.415 11.415 0 0 1 3.3-.8 24.999 24.999 0 0 1 3.7-.2 20.208 20.208 0 0 1 9.199 1.9c2.3 1.2 3.5 3.5 3.8 7v1.6h23.599l-.2-1.8a26.487 26.487 0 0 0-3.9-12.7 25.695 25.695 0 0 0-8.299-8.099 32.975 32.975 0 0 0-11.1-4.3 64.818 64.818 0 0 0-12.599-1.2 75.584 75.584 0 0 0-12.6 1.1 37.08 37.08 0 0 0-11.299 4.1 23.287 23.287 0 0 0-8.3 8.199c-2.1 3.4-3.2 7.9-3.2 13.1a18.797 18.797 0 0 0 2.3 9.499 20.694 20.694 0 0 0 6.1 6.4 33.609 33.609 0 0 0 8.299 4c3 .9 6.1 1.8 9.2 2.5a143.939 143.939 0 0 1 17.599 4.7c5.3 2 5.3 4.799 5.3 5.699a6 6 0 0 1-1 3.7 7.785 7.785 0 0 1-2.9 2.5 12.78 12.78 0 0 1-4 1.5 16.977 16.977 0 0 1-4.399.5 21.2 21.2 0 0 1-5.7-.7 12.098 12.098 0 0 1-4.6-2.1 10.694 10.694 0 0 1-3.2-3.5 10.11 10.11 0 0 1-1.2-5.099v-1.6h-23.599v1.7a26.2 26.2 0 0 0 12.6 22.599 37.7 37.7 0 0 0 11.999 4.799 68.204 68.204 0 0 0 13.6 1.4 66.706 66.706 0 0 0 13.299-1.4 33.602 33.602 0 0 0 11.9-4.599 25.004 25.004 0 0 0 8.499-8.9 26.497 26.497 0 0 0 3.3-13.699 19.094 19.094 0 0 0-2.3-9.9 21.299 21.299 0 0 0-6-6.7M231.591 6.3h-24.699v23.299h-12.9v17.599h12.9v44.098c0 4.1.699 7.6 2.199 10.2a14.707 14.707 0 0 0 5.9 6.2 25.304 25.304 0 0 0 8.4 2.899c3.214.447 6.454.681 9.699.7l6.5-.2a56.506 56.506 0 0 0 6.2-.6l1.4-.3V90.296l-2 .4-3 .4-3.3.2c-4.1 0-7.299-1.3-7.299-7.999V47.198h15.599V29.599h-15.599V6.3zm233.29 96.696a22.897 22.897 0 0 0 9.3 6.999 38.792 38.792 0 0 0 14.699 2.5 31.888 31.888 0 0 0 13.999-3.299 26.006 26.006 0 0 0 8.5-6.7v7.899h23.599V29.399h-24.599v42.398c0 7.5-1.2 12.9-3.6 15.999-2.4 3.1-6 4.5-11.299 4.5-5.3 0-7.5-1.3-9.2-3.9-1.7-2.6-2.8-7.399-2.8-13.499V29.399h-24.599v49.398a63.095 63.095 0 0 0 1.3 13.499 26.807 26.807 0 0 0 4.7 10.7m144.094-35.699a34.05 34.05 0 0 0-8.3-4.2c-3-1-6.099-1.9-9.199-2.599l-8.9-1.9a74.966 74.966 0 0 1-7.6-2 16.115 16.115 0 0 1-4.899-2.6 4.298 4.298 0 0 1-1.5-3.4c-.085-1 .199-1.996.8-2.8a6.598 6.598 0 0 1 2.3-1.7 11.313 11.313 0 0 1 3.399-.8 23.724 23.724 0 0 1 3.7-.2c3.142-.102 6.262.55 9.1 1.9 2.3 1.2 3.5 3.5 3.8 7v1.6h23.599v-1.8c-.5-5.1-1.8-9.4-4-12.7a25.408 25.408 0 0 0-8.2-8.099 33.496 33.496 0 0 0-11.199-4.3 63.807 63.807 0 0 0-12.5-1.2 73.7 73.7 0 0 0-12.599 1.1 37.677 37.677 0 0 0-11.4 4.1 23.292 23.292 0 0 0-8.299 8.199c-2.1 3.4-3.2 7.9-3.2 13.1a17.897 17.897 0 0 0 2.4 9.499 19.294 19.294 0 0 0 5.999 6.4 33.615 33.615 0 0 0 8.3 4c3 .9 6.1 1.8 9.3 2.5a136.739 136.739 0 0 1 17.499 4.7c5.3 2 5.3 4.799 5.3 5.699a6 6 0 0 1-1 3.7 8.294 8.294 0 0 1-2.8 2.5 13.39 13.39 0 0 1-4.1 1.5 16.99 16.99 0 0 1-4.4.5 21.002 21.002 0 0 1-5.6-.7 12.594 12.594 0 0 1-4.699-2.1 11.992 11.992 0 0 1-3.2-3.5 10.088 10.088 0 0 1-1.2-5.099v-1.6h-23.599v1.7a26.198 26.198 0 0 0 12.599 22.599 37.706 37.706 0 0 0 12 4.799 68.202 68.202 0 0 0 13.599 1.4 65.98 65.98 0 0 0 13.3-1.4 33.59 33.59 0 0 0 11.899-4.599 26.21 26.21 0 0 0 8.6-8.9 26.507 26.507 0 0 0 3.3-13.699 19.103 19.103 0 0 0-2.4-9.9 21.299 21.299 0 0 0-6-6.7M656.073 6.3h-24.699v23.299h-12.899v17.599h12.899v44.098a21.703 21.703 0 0 0 2.2 10.2 14.399 14.399 0 0 0 6 6.2 23.79 23.79 0 0 0 8.399 2.899 72.05 72.05 0 0 0 9.6.7l6.5-.2a51.975 51.975 0 0 0 6.2-.6l1.399-.3V90.296l-1.999.4-3 .4-3.3.2c-4.1 0-7.3-1.3-7.3-7.999V47.198h15.599V29.599h-15.599V6.3zM305.187 78.797c0 1.1-.1 2.7-.3 4.6a15.397 15.397 0 0 1-1.899 5.299 12.893 12.893 0 0 1-4.5 4.5c-2 1.2-5 1.8-8.9 1.8a23.192 23.192 0 0 1-4.6-.4 10.893 10.893 0 0 1-3.7-1.4 6.398 6.398 0 0 1-2.199-2.4 8.192 8.192 0 0 1-.9-4 8.684 8.684 0 0 1 .9-4.199 6.693 6.693 0 0 1 2.299-2.7 16.39 16.39 0 0 1 3.5-1.8l4.6-1.1 5-.7 5-.8a29.676 29.676 0 0 0 4.5-1.2l1.199-.4v4.9zm25.199 22.599c-.3-3.1-.5-6.4-.5-9.8V51.198c0-5.1-1.199-9.2-3.499-12.3a23.398 23.398 0 0 0-8.7-7.199 38.503 38.503 0 0 0-11.5-3.4 82.856 82.856 0 0 0-12.099-.8c-4.4-.018-8.789.417-13.1 1.3a39.776 39.776 0 0 0-11.999 4.4 27.199 27.199 0 0 0-9 8.499c-2.4 3.5-3.7 8-3.999 13.3v1.8h24.598v-1.5c.4-3.7 1.6-6.4 3.6-7.9s5.1-2.3 8.9-2.3a38.347 38.347 0 0 1 5 .3c1.337.19 2.626.631 3.8 1.3a6.409 6.409 0 0 1 2.4 2.5 10.1 10.1 0 0 1 .899 4.7 4.2 4.2 0 0 1-1.299 3.6 12.112 12.112 0 0 1-5.1 2.3 43.142 43.142 0 0 1-8 1.299c-3.1.3-6.3.8-9.6 1.3-3.299.5-6.499 1.2-9.699 2a29.017 29.017 0 0 0-8.9 4.1 21.3 21.3 0 0 0-6.5 7.4c-1.699 3.1-2.499 7-2.499 11.699a25.096 25.096 0 0 0 2.2 11 19.704 19.704 0 0 0 6.099 7.8 22.692 22.692 0 0 0 8.9 4.499 38.267 38.267 0 0 0 10.899 1.5 52.142 52.142 0 0 0 14.6-2.2 29.678 29.678 0 0 0 10.199-5.499c.08.229.147.463.2.7a28.06 28.06 0 0 0 1 3.9l.4 1.099h25.799l-1.6-2.499a16.82 16.82 0 0 1-1.9-6.6m62.998-23.799-.2 1.4c-.7 4.4-2.3 7.999-4.8 10.499-2.5 2.5-5.9 3.8-10.499 3.8a13.494 13.494 0 0 1-7.5-2 14.587 14.587 0 0 1-5-5.2 25.095 25.095 0 0 1-2.7-7.399 38.851 38.851 0 0 1-.9-8.2c.003-2.824.304-5.639.9-8.4a21.113 21.113 0 0 1 2.9-7.599 15.897 15.897 0 0 1 5.1-5.5 13.094 13.094 0 0 1 7.599-2c8.2 0 12.9 3.9 14.1 11.9l.3 1.4h23.999v-1.8a31.297 31.297 0 0 0-3.8-13.7 29.582 29.582 0 0 0-8.7-9.599 37.692 37.692 0 0 0-11.899-5.8 51.99 51.99 0 0 0-13.7-1.8 45.891 45.891 0 0 0-17.499 3.2 37.004 37.004 0 0 0-12.999 9.199 39.004 39.004 0 0 0-8.1 14 53.608 53.608 0 0 0-2.7 17.299 47.51 47.51 0 0 0 2.9 16.599 39.697 39.697 0 0 0 8.3 13 36.506 36.506 0 0 0 12.999 8.6 44.597 44.597 0 0 0 16.599 3.099c10.7 0 19.6-2.899 26.399-8.499 6.8-5.6 11.2-14 12.6-24.699l.3-1.8h-23.999zM424.483 6.3v104.095h24.599V6.3h-24.599zM736.77 28.299a43.164 43.164 0 0 0-9.2-.8 32.895 32.895 0 0 0-13.999 3.2 24.996 24.996 0 0 0-8.5 6.699v-7.799h-23.599v80.896h24.599V70.097c0-7.5 1.2-12.899 3.6-15.999 2.4-3.1 6-4.5 11.299-4.5 10.3 0 15.8 2.4 15.8 2.4V28.299z"/>
	</g>
</svg>
