<svg id="Layer_1" data-name="Layer 1" xmlns="http://www.w3.org/2000/svg" viewBox="0 0 301 300.1">
	<defs>
		<style>
			.cls-2{fill:#fcfdfe}.cls-3{fill:#0169b5}
		</style>
	</defs>
	<path d="M.491 0h300.51v300.096H.49c.009-.28.025-.56.025-.84Q.518 150.047.516.84C.516.56.5.28.491 0Zm49.334 215.765a17.038 17.038 0 0 0 2.437-.154 14.799 14.799 0 0 0 9.62-5.405 17.174 17.174 0 0 0 1.383-18.984 14.444 14.444 0 0 0-6.632-5.998 15.877 15.877 0 0 0-7.636-1.382 14.6 14.6 0 0 0-5.94 1.529c-5.623 2.92-8.343 7.692-8.701 13.915a15.964 15.964 0 0 0 .418 4.392 15.127 15.127 0 0 0 15.05 12.087Zm19.681-70.489-.147-.05v-.755c0-.79-.013-1.582.005-2.372.008-.347-.08-.512-.465-.504a82.13 82.13 0 0 1-2.831.002c-.307-.004-.408.13-.387.412.01.127.001.255.001.383v19.514c0 .179 0 .357.006.536a.256.256 0 0 0 .28.284l3.137.003c.238 0 .303-.14.302-.345 0-.179.003-.357.003-.536 0-3.214-.006-6.428.003-9.642a10.734 10.734 0 0 1 .825-4.16 5.82 5.82 0 0 1 6.325-3.829 4.435 4.435 0 0 1 3.7 2.715 7.429 7.429 0 0 1 .628 3.193q-.007 5.816-.001 11.632c0 .204.008.409 0 .612-.008.263.12.363.372.362q1.53-.007 3.06-.001c.272 0 .351-.147.345-.387-.004-.178 0-.357 0-.535 0-3.317-.005-6.633.003-9.95a9.004 9.004 0 0 1 1.252-4.662 5.585 5.585 0 0 1 5.857-2.988 4.493 4.493 0 0 1 3.854 3.045 8.038 8.038 0 0 1 .51 2.912c.012 3.878.005 7.755.005 11.633 0 .178.009.357-.001.535-.016.295.115.404.408.401q1.454-.016 2.907 0c.288.003.432-.096.413-.395-.007-.127 0-.255 0-.382v-12.168a11.13 11.13 0 0 0-.493-3.385 7.126 7.126 0 0 0-3.574-4.466 8.64 8.64 0 0 0-4.657-.805 8.06 8.06 0 0 0-6.833 4.337c-.08.144-.097.356-.332.376-.066-.135-.137-.27-.199-.41a6.875 6.875 0 0 0-3.047-3.4 8.393 8.393 0 0 0-4.784-.901 7.708 7.708 0 0 0-5.378 2.69c-.402.453-.714.968-1.072 1.451Zm102.423 2.09.001 14.693c0 .664.008.664.667.672h20.889c.153 0 .307-.012.458.002.354.033.508-.1.497-.474-.02-.714 0-1.428-.007-2.142-.005-.587-.01-.588-.583-.602-.153-.003-.306 0-.46 0h-16.603c-.204 0-.408-.008-.612-.002-.258.009-.375-.108-.365-.366.006-.152-.001-.306-.001-.459l.001-8.876c.001-.932-.117-.86.861-.86q7.766-.002 15.533 0c.204 0 .408-.01.612 0 .3.015.399-.133.396-.416a163.61 163.61 0 0 1-.002-2.526c0-.247-.089-.386-.356-.376-.178.006-.357-.002-.535-.002h-10.1c-1.938 0-3.877.003-5.815-.002-.582-.001-.593-.012-.593-.59-.004-3.06.003-6.122-.009-9.182-.001-.383.094-.58.508-.536a5.073 5.073 0 0 0 .535.003h16.604c.179 0 .358-.011.536.001.321.023.462-.1.454-.438-.017-.637 0-1.275-.005-1.913-.007-.93.12-.866-.855-.867h-20.812a3.007 3.007 0 0 1-.382-.002c-.39-.05-.493.146-.46.492.017.177.003.357.003.535v14.234Zm-113.051-11.56c-.13-.093-.261-.174-.38-.27a17.727 17.727 0 0 0-15.794-3.508 10.239 10.239 0 0 0-5.542 3.18 7.544 7.544 0 0 0-1.96 6.259 6.502 6.502 0 0 0 3.18 5.028 15.696 15.696 0 0 0 4.706 1.73c1.983.466 4.02.576 6.022.914a16.504 16.504 0 0 1 3.891 1.06 4.065 4.065 0 0 1 2.546 2.57 4.824 4.824 0 0 1-.406 3.697 6.164 6.164 0 0 1-4.105 3.06 14.995 14.995 0 0 1-12.15-1.908 22.841 22.841 0 0 1-2.893-2.218c-.596.804-1.18 1.566-1.734 2.35-.39.55-.467.416.065.905a16.695 16.695 0 0 0 7.131 3.971 21.762 21.762 0 0 0 7.556.622 13.522 13.522 0 0 0 6.715-2.275 8.442 8.442 0 0 0 3.883-7.375 6.723 6.723 0 0 0-3.912-6.319 16.839 16.839 0 0 0-3.291-1.202 47.46 47.46 0 0 0-6.46-1.064 16.703 16.703 0 0 1-4.275-1.083 4.108 4.108 0 0 1-1.8-6.387 6.12 6.12 0 0 1 2.536-1.908 11.894 11.894 0 0 1 6.435-.698 15.275 15.275 0 0 1 7.17 3.196c.25.198.506.388.787.603Zm186.076 9.624c-.328-.108-.412-.331-.54-.504a9.682 9.682 0 0 0-1.613-1.727 8.728 8.728 0 0 0-6.574-2.064 9.663 9.663 0 0 0-8.643 6.281 11.777 11.777 0 0 0-.337 7.86 9.434 9.434 0 0 0 2.85 4.625 9.6 9.6 0 0 0 8.06 2.411 9.103 9.103 0 0 0 5.19-2.545c.523-.51.97-1.088 1.468-1.624.062.068.12.103.122.139a20.225 20.225 0 0 1-.297 4.94 6.371 6.371 0 0 1-4.434 5.085 10.87 10.87 0 0 1-3.295.543c-1.48.018-2.96.013-4.44-.002-.37-.003-.559.07-.538.5.033.687.027 1.378.002 2.066-.015.411.15.523.537.51 1.884-.066 3.768.07 5.653-.094a18.482 18.482 0 0 0 3.747-.654 8.682 8.682 0 0 0 5.739-4.784 11.262 11.262 0 0 0 1.01-4.666c.024-6.43.01-12.86.01-19.289a2.519 2.519 0 0 1 .001-.306c.048-.387-.095-.552-.506-.537-.687.025-1.377.007-2.066.007-1.106 0-1.106 0-1.106 1.142v2.687Zm-27.25-.123c-.164-.076-.195-.08-.209-.098-.123-.161-.239-.328-.365-.488a8.886 8.886 0 0 0-8.968-3.484 9.724 9.724 0 0 0-7.594 6.183 12.712 12.712 0 0 0-.65 7.637 10.357 10.357 0 0 0 3.26 5.818 9.588 9.588 0 0 0 12.757-.102 14.7 14.7 0 0 0 1.685-1.916c.18.117.131.255.132.37.005.995.017 1.99-.004 2.985-.008.399.13.538.528.526.739-.024 1.479-.001 2.219-.008 1.041-.01.935.142.935-.938q.004-15.039.001-30.077c0-.153-.012-.308.002-.46.036-.366-.119-.49-.485-.48-.79.02-1.581.001-2.372.007-.93.006-.872-.124-.872.85v12.857Zm-142.63 65.967c.365.446.61.753.863 1.054a8.777 8.777 0 0 0 4.312 2.897 9.792 9.792 0 0 0 11.28-4.582 12.391 12.391 0 0 0 .726-10.962 9.618 9.618 0 0 0-15.635-3.553c-.545.51-.996 1.106-1.53 1.657a3.098 3.098 0 0 1-.067-.772c0-.867-.01-1.735.005-2.602.005-.325-.107-.456-.439-.45-.79.013-1.581-.002-2.371.005-.975.007-.87-.117-.87.839q-.004 14.307-.001 28.614c0 .179.005.357.003.536a.28.28 0 0 0 .321.325c1.02-.002 2.04-.004 3.06.001.276.002.348-.148.343-.385-.004-.178 0-.357 0-.535v-11.17Zm33.33 4.49a11.696 11.696 0 0 0 6.417-1.765 11.855 11.855 0 0 0 2.3-1.882c.47-.485.448-.5-.001-.97a44 44 0 0 1-1.198-1.283c-.254-.286-.478-.353-.741-.02a4.946 4.946 0 0 1-.375.38 8.53 8.53 0 0 1-4.041 2.354 7.417 7.417 0 0 1-6.722-1.246 8.268 8.268 0 0 1-2.934-5.363c-.054-.304.04-.5.4-.47.177.013.357 0 .535 0h15.15c.18 0 .359-.012.536.003.352.028.515-.11.518-.476a15.51 15.51 0 0 0-.357-4.324 9.74 9.74 0 0 0-11.357-7.283 10.334 10.334 0 0 0-8.216 6.436 12.42 12.42 0 0 0-.495 8.076 9.897 9.897 0 0 0 3.6 5.693 10.714 10.714 0 0 0 6.98 2.14Zm157.765-62.628q4.018 0 8.035-.002c.585-.002.579-.015.607-.596a14.763 14.763 0 0 0-.126-2.965 9.815 9.815 0 0 0-4.137-6.946 9.923 9.923 0 0 0-7.652-1.552 10.37 10.37 0 0 0-8.208 6.88 12.421 12.421 0 0 0-.081 8.39 9.417 9.417 0 0 0 6.81 6.622 12.145 12.145 0 0 0 12.347-3.311c.244-.248.338-.432.038-.757-.451-.486-.931-.943-1.38-1.43-.238-.258-.393-.285-.664.014a8.888 8.888 0 0 1-3.201 2.299 7.67 7.67 0 0 1-7.32-.372 7.866 7.866 0 0 1-3.555-5.794c-.071-.431-.008-.477.53-.478q3.978-.007 7.957-.002Zm-165.224-52.364 7.88-.001c.659-.001.676-.01.69-.524a13.965 13.965 0 0 0-.495-4.76 9.354 9.354 0 0 0-5.438-6.131 10.191 10.191 0 0 0-5.066-.741 10.315 10.315 0 0 0-9.02 6.77 12.27 12.27 0 0 0 .058 9.24 9.497 9.497 0 0 0 5.283 5.535 11.743 11.743 0 0 0 4.995.88 11.877 11.877 0 0 0 6.428-1.887 10.865 10.865 0 0 0 2.312-1.977c.173-.201.234-.36.007-.579-.347-.335-.649-.717-.992-1.057-.917-.907-.646-.874-1.543-.007a8.852 8.852 0 0 1-6.243 2.601c-3.53.057-6.804-2.528-7.421-6.944-.04-.284.071-.436.378-.418.178.01.357 0 .535 0h7.652Zm6.982 45.988c.58-.404 1.065-.777 1.583-1.095a9.254 9.254 0 0 1 5.98-1.624c3.5.39 4.75 3.331 4.693 6.017-.005.228-.113.319-.328.318-.179-.002-.357 0-.536.003-2.369.05-4.738-.085-7.107.092a12.08 12.08 0 0 0-3.784.827 6.063 6.063 0 0 0-3.337 2.994 6.343 6.343 0 0 0-.53 3.331 5.583 5.583 0 0 0 2.42 4.23 7.96 7.96 0 0 0 5.137 1.388 9.22 9.22 0 0 0 6.946-3.324c.421-.493.711-1.082 1.158-1.573.174.192.11.376.111.542.007 1.123.014 2.246-.002 3.368-.005.364.118.495.487.484.739-.023 1.48-.006 2.22-.007.89-.002.821.07.821-.83.001-3.955-.005-7.91.005-11.865a11.388 11.388 0 0 0-.311-2.721 7.52 7.52 0 0 0-5.97-6.043 12.973 12.973 0 0 0-11.005 2.773c-.258.214-.234.398-.06.646.467.666.917 1.343 1.409 2.07ZM51.23 93.09c-.016-.336-.036-.582-.037-.829a188.07 188.07 0 0 1 .001-2.602c.003-.27-.053-.43-.374-.425-.97.013-1.94.01-2.909.001-.295-.003-.418.12-.397.41.011.153.001.307.001.46v19.365c0 .178.008.357.001.535-.01.262.118.363.37.362q1.531-.007 3.062 0c.272 0 .35-.148.345-.388-.005-.178 0-.357 0-.535 0-3.164-.008-6.328.004-9.491a10.248 10.248 0 0 1 1.066-4.64 6.18 6.18 0 0 1 6.761-3.426 4.599 4.599 0 0 1 2.421 1.21 5.755 5.755 0 0 1 1.678 4.287c.028 4.005.01 8.011.01 12.017 0 .178.011.358-.002.535-.025.336.129.442.452.436.867-.014 1.735-.002 2.602-.005.666-.003.666-.007.675-.665.002-.127 0-.255 0-.383 0-4.056-.006-8.113.005-12.17a10.045 10.045 0 0 0-.37-2.79 7.169 7.169 0 0 0-4.087-4.945 8.87 8.87 0 0 0-4.315-.65 8.234 8.234 0 0 0-6.433 3.724 1.51 1.51 0 0 1-.53.603Zm76.177 104.718c-.202-.218-.121-.431-.123-.619-.01-.918-.02-1.837.002-2.755.009-.372-.122-.485-.485-.476-.84.021-1.683.003-2.525.007-.665.004-.665.008-.673.666v19.519c0 .153.012.308-.002.46-.034.36.112.497.48.49q1.415-.026 2.831 0c.38.008.503-.15.47-.5-.013-.152-.001-.306-.001-.46 0-3.163.013-6.327-.006-9.491a10.164 10.164 0 0 1 .647-3.737c.933-2.436 3.032-4.814 6.887-4.33a4.524 4.524 0 0 1 3.631 2.482 7.384 7.384 0 0 1 .773 3.464c.018 3.878.007 7.756.007 11.635 0 .178.009.357 0 .535-.017.296.118.403.409.4q1.454-.016 2.908 0c.29.003.43-.1.41-.398-.007-.127 0-.255 0-.382V202.07a10.777 10.777 0 0 0-.331-2.719 7.206 7.206 0 0 0-5.862-5.737 9.542 9.542 0 0 0-2.644-.122 8.232 8.232 0 0 0-5.143 2.237 12.168 12.168 0 0 0-1.66 2.079ZM79.003 98.365v-3.827c0-.612.01-1.224-.003-1.836-.006-.29.097-.425.396-.403.178.014.357.002.535.002 1.556 0 3.112-.01 4.668.006.387.004.55-.109.535-.518-.026-.662-.001-1.326-.009-1.99-.006-.544-.013-.557-.546-.56-1.582-.006-3.163-.002-4.744-.002-.179 0-.357-.003-.536-.003a.257.257 0 0 1-.289-.276c-.007-.179-.006-.357-.006-.536 0-1.683.003-3.367-.003-5.05-.002-.547-.013-.558-.543-.563-.867-.009-1.735-.007-2.602-.001-.62.004-.628.01-.63.631-.004 1.71.002 3.418-.002 5.127-.002.663-.008.663-.668.67-.128.002-.255.001-.383.001-.867 0-1.734.012-2.601-.005-.36-.007-.5.11-.487.483.024.739.012 1.479.007 2.219-.002.257.109.375.366.366.179-.007.357 0 .536 0 .944.001 1.887.008 2.831-.002.291-.004.423.098.401.396-.013.178-.001.357-.001.536l.001 8.724a26.708 26.708 0 0 0 .099 3.203 5.196 5.196 0 0 0 4.397 4.964 27.151 27.151 0 0 0 5.022.247c.31.006.388-.153.385-.427-.008-.715-.027-1.43.007-2.143.02-.44-.184-.508-.55-.499-.662.018-1.327.035-1.988-.002a3.622 3.622 0 0 1-2.642-.985 3.85 3.85 0 0 1-.95-2.743c-.01-1.735-.003-3.47-.003-5.204Zm69.248 52.62c0 1.862-.016 3.724.005 5.585a7.355 7.355 0 0 0 .78 3.388 4.963 4.963 0 0 0 3.42 2.471 22.626 22.626 0 0 0 5.244.302c.27.004.352-.135.35-.377-.003-.766-.01-1.53.004-2.296.005-.3-.118-.398-.406-.393-.714.011-1.43.027-2.142-.002a3.228 3.228 0 0 1-3.467-3.511c-.037-3.621-.011-7.243-.009-10.865 0-.613.009-.62.629-.621 1.606-.004 3.213.002 4.82-.004.552-.002.562-.013.57-.536.009-.663.008-1.327 0-1.99-.007-.521-.015-.532-.562-.533-1.581-.006-3.162 0-4.743-.003-.708-.001-.713-.005-.714-.7-.003-1.735-.011-3.47.006-5.204.004-.392-.11-.543-.515-.533-.867.023-1.734.004-2.601.008-.661.004-.667.008-.668.67-.004 1.734.002 3.469-.004 5.203-.002.54-.014.55-.55.554-1.046.008-2.092.01-3.137 0-.323-.004-.457.105-.448.44.017.689-.002 1.378.006 2.066.007.542.016.553.554.558.995.008 1.99-.002 2.984.004.581.003.59.01.592.58.004 1.913.002 3.826.002 5.739ZM40.016 95.107V82.87c0-.841.004-1.683-.002-2.524-.004-.589-.01-.596-.572-.6-.84-.006-1.682-.004-2.523-.001-1.025.004-.884-.076-.884.912q-.005 14.378-.002 28.756c0 .153.012.307-.002.459-.031.349.088.509.47.501 1.019-.018 2.039-.014 3.058-.001.317.004.485-.086.458-.429-.013-.177-.001-.356-.001-.535V95.107Zm75.115-.804v15.066c0 .178.015.358-.002.535-.037.38.145.478.496.47.764-.02 1.53 0 2.294-.008 1.041-.01.938.143.939-.933q.003-15.028 0-30.055c0-.179-.011-.358.002-.536.026-.34-.139-.435-.457-.43-.866.015-1.733.002-2.6.006-.662.003-.663.007-.671.666-.002.153 0 .306 0 .459Zm18.358 51.688a1.307 1.307 0 0 1-.083-.734c-.007-1.071-.012-2.143.001-3.214.004-.321-.092-.454-.432-.448a82.88 82.88 0 0 1-2.755.002c-.34-.005-.548.076-.495.468a2.307 2.307 0 0 1 .001.306v19.591c0 .153.002.306.005.46.004.174.078.3.266.301q1.607.007 3.214.002a.26.26 0 0 0 .288-.281c.005-.204.005-.408.005-.612 0-2.908.006-5.816-.002-8.725a12.977 12.977 0 0 1 .206-2.505 6.51 6.51 0 0 1 2.11-3.957 7.193 7.193 0 0 1 3.921-1.525 18.15 18.15 0 0 1 2.514-.093c.349.007.506-.077.496-.464a59.293 59.293 0 0 1-.003-2.679c.006-.329-.103-.456-.438-.44-.713.032-1.43-.003-2.139.062a7.678 7.678 0 0 0-6.305 3.999c-.096.168-.124.387-.375.486Zm-3.937-66.405a5.754 5.754 0 0 0-1.59.187 5.045 5.045 0 0 0-3.782 4.396 4.986 4.986 0 0 0 2.858 5.117 5.576 5.576 0 0 0 4.936-.014 5.089 5.089 0 0 0 1.798-7.76 5.253 5.253 0 0 0-4.22-1.926Z" style="fill:#0068b5"/>
	<path class="cls-2" d="M49.825 215.765a15.127 15.127 0 0 1-15.051-12.087 15.964 15.964 0 0 1-.419-4.392c.359-6.223 3.079-10.995 8.701-13.915a14.6 14.6 0 0 1 5.941-1.529 15.877 15.877 0 0 1 7.636 1.382 14.444 14.444 0 0 1 6.632 5.998 17.174 17.174 0 0 1-1.382 18.984 14.799 14.799 0 0 1-9.621 5.405 17.038 17.038 0 0 1-2.437.154Zm-11.5-16.082a14.873 14.873 0 0 0 .099 1.599 12.81 12.81 0 0 0 2.01 5.86c2.578 3.869 6.165 5.749 10.845 5.238a10.787 10.787 0 0 0 8.763-6.21 13.497 13.497 0 0 0 1.414-7.76 12.799 12.799 0 0 0-4.31-8.655 11.142 11.142 0 0 0-15.83 1.387 13.573 13.573 0 0 0-2.99 8.541Z"/>
	<path class="cls-2" d="M69.506 145.276c.358-.483.67-.998 1.072-1.452a7.708 7.708 0 0 1 5.378-2.689 8.393 8.393 0 0 1 4.784.902 6.875 6.875 0 0 1 3.047 3.4c.062.139.133.274.2.41.234-.02.25-.233.33-.377a8.06 8.06 0 0 1 6.834-4.337 8.64 8.64 0 0 1 4.657.805 7.126 7.126 0 0 1 3.574 4.466 11.13 11.13 0 0 1 .493 3.385q.002 6.084 0 12.168c0 .127-.007.255 0 .382.019.3-.125.398-.412.395q-1.454-.015-2.908 0c-.293.003-.424-.106-.408-.4.01-.179 0-.358 0-.536 0-3.878.008-7.755-.004-11.633a8.038 8.038 0 0 0-.51-2.912 4.493 4.493 0 0 0-3.854-3.045 5.585 5.585 0 0 0-5.857 2.988 9.004 9.004 0 0 0-1.252 4.663c-.008 3.316-.002 6.632-.002 9.949 0 .178-.005.357 0 .535.005.24-.074.388-.346.387q-1.53-.006-3.06 0c-.253.002-.38-.098-.371-.36.007-.204-.001-.409-.001-.613l.001-11.632a7.429 7.429 0 0 0-.628-3.193 4.435 4.435 0 0 0-3.7-2.715 5.82 5.82 0 0 0-6.325 3.83 10.734 10.734 0 0 0-.825 4.159c-.009 3.214-.003 6.428-.003 9.642 0 .179-.003.357-.003.536 0 .204-.064.346-.302.345q-1.568-.003-3.137-.003a.256.256 0 0 1-.28-.284 15.802 15.802 0 0 1-.006-.536v-19.514c0-.128.01-.256 0-.383-.022-.283.079-.416.386-.412a82.13 82.13 0 0 0 2.83-.002c.386-.008.474.157.466.504-.018.79-.006 1.581-.005 2.372v.755Z"/>
	<path class="cls-2" d="M171.929 147.367v-14.234c0-.178.014-.358-.003-.535-.033-.346.07-.543.46-.492a3.007 3.007 0 0 0 .382.002h20.812c.975 0 .848-.064.855.867.005.638-.012 1.276.005 1.913.009.337-.133.461-.454.438-.178-.013-.357-.001-.536-.001h-16.603a5.073 5.073 0 0 1-.536-.003c-.414-.044-.51.153-.508.536.012 3.06.005 6.121.009 9.182 0 .578.011.588.593.59 1.938.005 3.877.002 5.815.002h10.1c.178 0 .357.008.535.002.267-.01.357.13.356.376-.004.842-.006 1.684.002 2.525.003.283-.095.432-.396.417-.204-.01-.408 0-.612 0h-15.533c-.978 0-.86-.072-.86.86q-.007 4.438-.002 8.876c0 .153.007.306 0 .46-.01.257.108.374.366.365.204-.006.408.001.612.001h16.604c.153 0 .306-.003.459.001.572.014.578.015.583.602.006.714-.013 1.428.007 2.142.01.374-.142.507-.496.474-.152-.014-.306-.002-.46-.002h-20.888c-.659-.008-.667-.008-.667-.672q-.003-7.346-.001-14.692Z"/>
	<path class="cls-2" d="m58.878 135.806-2.079 2.93c-.28-.215-.537-.405-.787-.603a15.275 15.275 0 0 0-7.17-3.196 11.894 11.894 0 0 0-6.435.698 6.12 6.12 0 0 0-2.535 1.908 4.108 4.108 0 0 0 1.799 6.387 16.703 16.703 0 0 0 4.276 1.083 47.46 47.46 0 0 1 6.459 1.064 16.839 16.839 0 0 1 3.29 1.202 6.723 6.723 0 0 1 3.913 6.32 8.442 8.442 0 0 1-3.883 7.374 13.522 13.522 0 0 1-6.715 2.275 21.762 21.762 0 0 1-7.556-.622 16.695 16.695 0 0 1-7.131-3.971c-.532-.49-.454-.355-.065-.905.554-.784 1.138-1.546 1.734-2.35a22.841 22.841 0 0 0 2.894 2.218 14.995 14.995 0 0 0 12.15 1.908 6.164 6.164 0 0 0 4.104-3.06 4.824 4.824 0 0 0 .406-3.696 4.065 4.065 0 0 0-2.546-2.571 16.504 16.504 0 0 0-3.89-1.06c-2.003-.338-4.04-.448-6.023-.914a15.696 15.696 0 0 1-4.706-1.73 6.502 6.502 0 0 1-3.18-5.028 7.544 7.544 0 0 1 1.96-6.26 10.239 10.239 0 0 1 5.542-3.18 17.727 17.727 0 0 1 15.794 3.509c.119.096.25.177.38.27Z"/>
	<path class="cls-2" d="M244.954 145.43v-2.687c0-1.142 0-1.142 1.106-1.142.69 0 1.379.018 2.066-.007.411-.015.554.15.506.537a2.519 2.519 0 0 0-.001.306c0 6.43.014 12.86-.01 19.289a11.262 11.262 0 0 1-1.01 4.666 8.682 8.682 0 0 1-5.739 4.784 18.482 18.482 0 0 1-3.747.654c-1.885.164-3.77.028-5.653.093-.387.014-.552-.098-.537-.51.025-.687.031-1.378-.002-2.065-.02-.43.168-.503.539-.5 1.48.015 2.96.02 4.439.002a10.87 10.87 0 0 0 3.295-.543 6.371 6.371 0 0 0 4.434-5.085 20.225 20.225 0 0 0 .297-4.94c-.002-.036-.06-.07-.122-.14-.498.537-.945 1.115-1.468 1.625a9.103 9.103 0 0 1-5.19 2.545 9.6 9.6 0 0 1-8.06-2.411 9.434 9.434 0 0 1-2.85-4.624 11.777 11.777 0 0 1 .337-7.86 9.663 9.663 0 0 1 8.643-6.282 8.728 8.728 0 0 1 6.574 2.064 9.682 9.682 0 0 1 1.614 1.726c.127.174.21.397.54.505Zm.076 6.465a11.924 11.924 0 0 0-.095-1.371 7.568 7.568 0 0 0-8.154-6.322 6.522 6.522 0 0 0-5.584 4.04 8.981 8.981 0 0 0-.35 5.966 6.798 6.798 0 0 0 7.434 5.129 7.494 7.494 0 0 0 6.749-7.442Z"/>
	<path class="cls-2" d="M217.704 145.307V131.63c0-.973-.058-.843.872-.85.79-.005 1.582.015 2.372-.007.366-.01.521.115.485.482-.014.151-.002.306-.002.459v30.077c-.001 1.08.105.928-.936.938-.74.007-1.48-.016-2.22.008-.397.012-.535-.127-.527-.526.021-.995.009-1.99.004-2.985 0-.115.048-.253-.132-.37a14.7 14.7 0 0 1-1.685 1.916 9.588 9.588 0 0 1-12.756.102 10.357 10.357 0 0 1-3.261-5.818 12.712 12.712 0 0 1 .65-7.637 9.724 9.724 0 0 1 7.594-6.183 8.886 8.886 0 0 1 8.968 3.485c.126.159.242.326.365.487.014.018.045.022.209.098Zm-14.337 6.437a11.201 11.201 0 0 0 .444 3.502 6.793 6.793 0 0 0 10.404 3.743 8.43 8.43 0 0 0 3.081-9.866 7.364 7.364 0 0 0-7.745-4.915 6.66 6.66 0 0 0-4.327 2.348 8.427 8.427 0 0 0-1.857 5.188Z"/>
	<path class="cls-2" d="M75.074 211.274v12.086c0 .18-.004.358 0 .536.005.237-.067.387-.343.385-1.02-.005-2.04-.003-3.06-.001a.28.28 0 0 1-.321-.325c.002-.179-.003-.357-.003-.536l.001-28.614c0-.956-.105-.832.87-.84.79-.006 1.58.01 2.371-.004.332-.006.444.125.439.45-.015.867-.005 1.735-.005 2.602a3.098 3.098 0 0 0 .068.772c.533-.551.984-1.148 1.529-1.657a9.618 9.618 0 0 1 15.635 3.553 12.391 12.391 0 0 1-.725 10.962 9.792 9.792 0 0 1-11.28 4.582 8.777 8.777 0 0 1-4.313-2.897c-.252-.301-.498-.608-.863-1.054Zm-.174-6.645a8.117 8.117 0 0 0 3.805 6.925 6.904 6.904 0 0 0 9.702-2.682 9.577 9.577 0 0 0 .901-5.705 8.025 8.025 0 0 0-2.257-4.805 6.75 6.75 0 0 0-7.422-1.246 8.198 8.198 0 0 0-4.729 7.513Z"/>
	<path class="cls-2" d="M108.403 215.764a10.714 10.714 0 0 1-6.98-2.14 9.897 9.897 0 0 1-3.6-5.693 12.42 12.42 0 0 1 .495-8.076 10.334 10.334 0 0 1 8.216-6.436 9.74 9.74 0 0 1 11.357 7.283 15.51 15.51 0 0 1 .357 4.324c-.003.366-.166.504-.518.476-.177-.015-.357-.002-.535-.002h-15.15c-.18 0-.359.012-.536-.002-.36-.028-.454.167-.4.47a8.268 8.268 0 0 0 2.934 5.364 7.417 7.417 0 0 0 6.722 1.246 8.53 8.53 0 0 0 4.04-2.353 4.946 4.946 0 0 0 .376-.382c.263-.332.487-.265.74.02.389.44.794.862 1.199 1.285.449.47.47.484 0 .969a11.855 11.855 0 0 1-2.299 1.882 11.696 11.696 0 0 1-6.418 1.765Zm-7.21-12.766h12.638c.787 0 .817-.035.688-.823a9.024 9.024 0 0 0-.772-2.468 6.133 6.133 0 0 0-7.207-3.31 6.992 6.992 0 0 0-4.838 4.397 5.59 5.59 0 0 0-.51 2.204Z"/>
	<path class="cls-2" d="M266.17 153.136q-3.98 0-7.959.002c-.537.001-.6.047-.529.478a7.866 7.866 0 0 0 3.556 5.794 7.67 7.67 0 0 0 7.319.372 8.888 8.888 0 0 0 3.201-2.3c.271-.298.426-.27.664-.013.45.487.929.944 1.38 1.43.3.325.206.509-.038.757a12.145 12.145 0 0 1-12.347 3.311 9.417 9.417 0 0 1-6.81-6.621 12.421 12.421 0 0 1 .08-8.39 10.37 10.37 0 0 1 8.209-6.88 9.923 9.923 0 0 1 7.652 1.55 9.815 9.815 0 0 1 4.137 6.947 14.763 14.763 0 0 1 .126 2.965c-.028.581-.022.595-.607.596q-4.017.007-8.035.002Zm-1.747-2.502c2.09 0 4.182-.01 6.272.009.391.003.507-.138.435-.49-.097-.472-.177-.95-.305-1.414a6.289 6.289 0 0 0-9.582-3.923 7.487 7.487 0 0 0-3.45 5.18c-.127.626-.124.636.51.637q3.06.006 6.12.001Z"/>
	<path class="cls-2" d="M100.945 100.772h-7.652c-.178 0-.357.01-.535 0-.307-.017-.418.134-.378.418.617 4.416 3.891 7 7.421 6.944a8.852 8.852 0 0 0 6.243-2.601c.897-.867.626-.9 1.543.007.343.34.645.722.992 1.057.227.22.166.378-.007.58a10.865 10.865 0 0 1-2.312 1.976 11.877 11.877 0 0 1-6.428 1.887 11.743 11.743 0 0 1-4.995-.88 9.497 9.497 0 0 1-5.283-5.536 12.27 12.27 0 0 1-.058-9.24 10.315 10.315 0 0 1 9.02-6.769 10.191 10.191 0 0 1 5.066.741 9.354 9.354 0 0 1 5.438 6.13 13.965 13.965 0 0 1 .496 4.761c-.015.515-.032.523-.69.524q-3.94.005-7.881.001Zm-8.492-2.577a.533.533 0 0 0 .363.075q1.682.002 3.364.001l9.022-.001c.687-.001.695-.01.604-.69a8.57 8.57 0 0 0-.829-2.683 6.174 6.174 0 0 0-7.175-3.235 7.456 7.456 0 0 0-5.35 6.533Z"/>
	<path class="cls-2" d="M107.927 146.76c-.492-.726-.942-1.403-1.409-2.07-.174-.247-.198-.43.06-.645a12.973 12.973 0 0 1 11.004-2.773 7.52 7.52 0 0 1 5.971 6.042 11.388 11.388 0 0 1 .31 2.722c-.009 3.955-.003 7.91-.004 11.865 0 .9.069.828-.822.83-.74.001-1.48-.016-2.22.007-.368.01-.491-.12-.486-.484.016-1.122.009-2.245.002-3.368 0-.166.063-.35-.111-.542-.446.491-.737 1.08-1.158 1.573a9.22 9.22 0 0 1-6.946 3.324 7.96 7.96 0 0 1-5.138-1.388 5.583 5.583 0 0 1-2.42-4.23 6.343 6.343 0 0 1 .531-3.332 6.063 6.063 0 0 1 3.337-2.993 12.08 12.08 0 0 1 3.784-.828c2.369-.176 4.739-.041 7.107-.091.179-.004.357-.005.536-.003.215 0 .323-.09.328-.318.058-2.686-1.193-5.628-4.694-6.017a9.254 9.254 0 0 0-5.979 1.624c-.518.318-1.002.691-1.583 1.095Zm4.343 13.733a7.453 7.453 0 0 0 4.238-1.154 8.02 8.02 0 0 0 3.666-5.89c.066-.442.002-.512-.496-.514-2.09-.007-4.18-.022-6.268.004a7.41 7.41 0 0 0-3.456.795 3.519 3.519 0 0 0-.424 5.839 4.621 4.621 0 0 0 2.74.92Z"/>
	<path class="cls-2" d="M51.23 93.09a1.51 1.51 0 0 0 .53-.602 8.234 8.234 0 0 1 6.433-3.723 8.87 8.87 0 0 1 4.315.649 7.169 7.169 0 0 1 4.087 4.946 10.045 10.045 0 0 1 .37 2.79c-.011 4.056-.005 8.113-.005 12.17 0 .127.002.255 0 .382-.009.658-.01.662-.675.665-.867.003-1.735-.01-2.602.005-.323.006-.477-.1-.452-.436.013-.177.001-.357.001-.535 0-4.006.019-8.012-.009-12.017a5.755 5.755 0 0 0-1.678-4.287 4.599 4.599 0 0 0-2.42-1.21 6.18 6.18 0 0 0-6.762 3.426 10.248 10.248 0 0 0-1.066 4.64c-.012 3.163-.004 6.327-.004 9.49 0 .18-.005.358 0 .536.006.24-.073.388-.345.387q-1.53-.006-3.061.001c-.253.001-.38-.1-.37-.362.006-.178-.002-.357-.002-.535V90.105c0-.153.01-.307 0-.46-.022-.29.1-.413.396-.41.97.009 1.94.012 2.909-.001.321-.004.377.155.374.425-.008.867-.005 1.735 0 2.602 0 .247.02.493.036.83Z"/>
	<path class="cls-2" d="M127.407 197.808a12.168 12.168 0 0 1 1.66-2.079 8.232 8.232 0 0 1 5.144-2.237 9.542 9.542 0 0 1 2.643.122 7.206 7.206 0 0 1 5.862 5.737 10.777 10.777 0 0 1 .331 2.72q.003 6.123 0 12.247c0 .127-.007.255 0 .382.02.298-.12.4-.41.398q-1.454-.016-2.908 0c-.291.003-.426-.104-.41-.4.01-.178.001-.357.001-.535 0-3.879.011-7.757-.007-11.635a7.384 7.384 0 0 0-.773-3.464 4.524 4.524 0 0 0-3.631-2.482c-3.855-.484-5.954 1.894-6.887 4.33a10.164 10.164 0 0 0-.647 3.737c.019 3.164.006 6.328.006 9.492 0 .153-.012.307.002.459.032.35-.09.509-.47.5q-1.416-.029-2.832 0c-.368.007-.514-.13-.48-.49.014-.152.002-.307.002-.46v-19.519c.008-.658.008-.662.673-.666.842-.004 1.684.014 2.526-.007.362-.01.493.104.484.476a78.453 78.453 0 0 0-.002 2.755c.002.188-.078.4.123.619Z"/>
	<path class="cls-2" d="M79.003 98.365c0 1.734-.008 3.469.004 5.203a3.85 3.85 0 0 0 .949 2.744 3.622 3.622 0 0 0 2.642.985c.66.037 1.326.02 1.989.002.365-.01.57.059.549.5-.034.712-.015 1.427-.007 2.142.003.274-.075.433-.385.427a27.151 27.151 0 0 1-5.022-.247 5.196 5.196 0 0 1-4.397-4.964 26.708 26.708 0 0 1-.098-3.203q-.006-4.362-.002-8.724c0-.179-.012-.358.001-.536.023-.298-.11-.4-.4-.396-.945.01-1.888.003-2.832.003-.179 0-.357-.008-.536-.001-.257.009-.368-.11-.366-.366.005-.74.017-1.48-.007-2.22-.012-.373.128-.49.487-.482.867.017 1.734.005 2.601.005h.383c.66-.008.666-.008.668-.67.004-1.71-.002-3.419.003-5.128.001-.621.009-.627.63-.631.866-.006 1.734-.008 2.6.001.531.005.542.016.544.563.006 1.683.002 3.367.003 5.05 0 .179 0 .357.006.536a.257.257 0 0 0 .29.276c.178 0 .356.003.535.003 1.581 0 3.162-.004 4.744.003.533.002.54.015.546.56.008.662-.017 1.327.009 1.989.016.409-.148.522-.535.518-1.556-.016-3.112-.006-4.667-.006-.179 0-.358.012-.536-.002-.3-.022-.402.112-.395.403.012.612.003 1.224.002 1.836v3.827Z"/>
	<path class="cls-2" d="M148.25 150.985c0-1.913.003-3.826-.001-5.739-.001-.57-.01-.577-.592-.58-.995-.006-1.99.004-2.984-.004-.538-.005-.547-.016-.554-.558-.008-.688.01-1.377-.006-2.066-.009-.335.125-.444.448-.44 1.045.01 2.09.008 3.136 0 .537-.003.55-.013.551-.554.007-1.734 0-3.469.004-5.203.001-.662.007-.666.668-.67.867-.004 1.734.015 2.6-.008.406-.01.52.141.516.533-.017 1.734-.01 3.469-.006 5.203.001.696.006.7.714.7 1.58.003 3.162-.002 4.743.004.548.002.555.012.562.533.008.663.009 1.327 0 1.99-.008.523-.018.534-.57.536-1.607.006-3.214 0-4.82.004-.62.001-.628.008-.629.621-.002 3.622-.028 7.244.009 10.865a3.228 3.228 0 0 0 3.467 3.511c.713.029 1.428.014 2.142.002.288-.005.41.093.406.393-.013.765-.007 1.53-.004 2.296.002.242-.08.381-.35.377a22.626 22.626 0 0 1-5.244-.302 4.963 4.963 0 0 1-3.42-2.47 7.355 7.355 0 0 1-.78-3.388c-.021-1.862-.005-3.724-.005-5.586Z"/>
	<path class="cls-2" d="M40.016 95.107v14.301c0 .179-.012.358.001.535.027.343-.141.433-.458.43a97.275 97.275 0 0 0-3.059 0c-.38.008-.5-.152-.469-.501.014-.152.002-.306.002-.459l.002-28.756c0-.988-.14-.908.884-.912.84-.003 1.682-.005 2.523.001.563.004.568.011.572.6.006.842.002 1.683.002 2.524v12.237Z"/>
	<path class="cls-2" d="M115.131 94.303V79.084c.01-.659.01-.663.673-.666.866-.004 1.733.009 2.6-.005.317-.006.482.089.456.43-.013.177-.001.356-.001.535l-.001 30.055c0 1.076.102.924-.94.933-.764.007-1.529-.012-2.293.007-.351.009-.533-.09-.496-.47.017-.176.002-.356.002-.534V94.303Z"/>
	<path class="cls-2" d="M133.49 145.991c.25-.1.278-.318.374-.486a7.678 7.678 0 0 1 6.305-4c.709-.064 1.426-.03 2.139-.062.335-.015.444.112.438.441-.016.893-.022 1.786.003 2.679.01.387-.147.471-.496.464a18.15 18.15 0 0 0-2.514.093 7.193 7.193 0 0 0-3.92 1.525 6.51 6.51 0 0 0-2.11 3.957 12.977 12.977 0 0 0-.207 2.505c.008 2.909.003 5.817.002 8.725 0 .204 0 .408-.005.612a.26.26 0 0 1-.288.281q-1.607.003-3.214-.002c-.188 0-.262-.127-.266-.301a20.485 20.485 0 0 1-.004-.46v-19.591a2.307 2.307 0 0 0-.002-.306c-.053-.392.155-.473.495-.468.918.013 1.837.016 2.755-.002.34-.006.436.127.432.448a168.317 168.317 0 0 0-.001 3.214 1.307 1.307 0 0 0 .083.734Z"/>
	<path class="cls-2" d="M129.552 79.586a5.253 5.253 0 0 1 4.22 1.926 5.089 5.089 0 0 1-1.798 7.76 5.576 5.576 0 0 1-4.936.014 4.986 4.986 0 0 1-2.858-5.117 5.045 5.045 0 0 1 3.783-4.396 5.754 5.754 0 0 1 1.59-.187Zm-.214.762a4.29 4.29 0 0 0-4.228 5.633 4.528 4.528 0 0 0 5.138 3.108 4.394 4.394 0 0 0 3.022-6.952 4.513 4.513 0 0 0-3.932-1.788Z"/>
	<path class="cls-3" d="M38.325 199.683a13.573 13.573 0 0 1 2.991-8.54 11.142 11.142 0 0 1 15.83-1.388 12.799 12.799 0 0 1 4.31 8.654 13.497 13.497 0 0 1-1.414 7.762 10.787 10.787 0 0 1-8.763 6.21c-4.68.51-8.267-1.37-10.846-5.238a12.81 12.81 0 0 1-2.01-5.861 14.873 14.873 0 0 1-.098-1.599Z"/>
	<path class="cls-3" d="M245.03 151.895a7.494 7.494 0 0 1-6.749 7.442 6.798 6.798 0 0 1-7.434-5.13 8.981 8.981 0 0 1 .35-5.965 6.522 6.522 0 0 1 5.584-4.04 7.568 7.568 0 0 1 8.154 6.322 11.924 11.924 0 0 1 .095 1.371Z"/>
	<path class="cls-3" d="M203.367 151.744a8.427 8.427 0 0 1 1.857-5.188 6.66 6.66 0 0 1 4.327-2.348 7.364 7.364 0 0 1 7.745 4.915 8.43 8.43 0 0 1-3.081 9.866 6.793 6.793 0 0 1-10.404-3.743 11.201 11.201 0 0 1-.444-3.502Z"/>
	<path class="cls-3" d="M74.9 204.629a8.198 8.198 0 0 1 4.729-7.513 6.75 6.75 0 0 1 7.422 1.245 8.025 8.025 0 0 1 2.257 4.806 9.577 9.577 0 0 1-.901 5.705 6.904 6.904 0 0 1-9.702 2.682 8.117 8.117 0 0 1-3.805-6.925Z"/>
	<path class="cls-3" d="M101.193 202.998a5.59 5.59 0 0 1 .51-2.204 6.992 6.992 0 0 1 4.837-4.397 6.133 6.133 0 0 1 7.207 3.31 9.024 9.024 0 0 1 .772 2.468c.13.788.1.822-.688.823q-5.699.002-11.398 0Z"/>
	<path class="cls-3" d="m264.423 150.634-6.12-.001c-.634-.001-.637-.011-.51-.637a7.487 7.487 0 0 1 3.45-5.18 6.289 6.289 0 0 1 9.582 3.923c.128.464.208.942.305 1.415.071.351-.044.492-.435.489-2.09-.018-4.181-.009-6.272-.009Z"/>
	<path class="cls-3" d="M92.453 98.195a7.456 7.456 0 0 1 5.35-6.533 6.174 6.174 0 0 1 7.174 3.235 8.57 8.57 0 0 1 .83 2.684c.09.678.082.688-.605.689q-4.511.004-9.022.001l-3.364-.001a.533.533 0 0 1-.363-.075Z"/>
	<path class="cls-3" d="M112.27 160.493a4.621 4.621 0 0 1-2.74-.92 3.519 3.519 0 0 1 .424-5.84 7.41 7.41 0 0 1 3.456-.794c2.089-.026 4.178-.01 6.268-.004.498.002.562.072.496.514a8.02 8.02 0 0 1-3.666 5.89 7.453 7.453 0 0 1-4.238 1.154Z"/>
	<path class="cls-3" d="M129.338 80.349a4.513 4.513 0 0 1 3.932 1.788 4.394 4.394 0 0 1-3.022 6.952 4.528 4.528 0 0 1-5.138-3.108 4.29 4.29 0 0 1 4.228-5.632Zm1.006 4.87c.147-.21.338-.236.487-.332a1.462 1.462 0 0 0 .676-1.71 1.497 1.497 0 0 0-1.418-1.09c-.631-.066-1.273-.028-1.909-.046-.275-.008-.343.132-.342.376q.007 2.142-.001 4.284c-.002.292.113.4.407.4.289-.001.423-.095.414-.394-.01-.357.012-.715-.004-1.07-.014-.315.141-.387.419-.383a.56.56 0 0 1 .492.297c.225.34.491.654.69 1.008a.97.97 0 0 0 1.33.45Z"/>
	<path class="cls-2" d="m130.344 85.22 1.24 1.79a.97.97 0 0 1-1.33-.45c-.198-.355-.464-.67-.69-1.009a.56.56 0 0 0-.492-.297c-.277-.004-.432.068-.418.382.016.356-.007.714.004 1.07.009.3-.125.394-.414.394-.294.001-.409-.107-.407-.4q.01-2.141 0-4.283c0-.244.068-.384.343-.376.636.018 1.278-.02 1.909.045a1.497 1.497 0 0 1 1.418 1.09 1.462 1.462 0 0 1-.676 1.711c-.149.096-.34.121-.487.332Zm-1.684-1.574c0 .178-.004.355.002.532.004.129.025.275.183.287a2.263 2.263 0 0 0 1.478-.18.79.79 0 0 0 .066-1.247 1.25 1.25 0 0 0-.86-.232c-1.02.01-.858-.05-.869.84Z"/>
	<path class="cls-3" d="M128.66 83.646c.01-.89-.151-.83.869-.84a1.25 1.25 0 0 1 .86.232.79.79 0 0 1-.066 1.247 2.263 2.263 0 0 1-1.478.18c-.158-.012-.179-.158-.183-.287-.006-.177-.002-.354-.002-.532Z"/>
</svg>
