<svg xmlns="http://www.w3.org/2000/svg" viewBox="-32.86 -32.86 1708.72 1045.72">
	<path fill="#3f464c" d="M27.8 977.25H8.46c-4.432 0-8.054-3.333-8.054-7.382V781.544c0-4.072 3.622-7.382 8.054-7.382H27.8c4.432 0 8.066 3.31 8.066 7.382v188.324c0 4.05-3.634 7.383-8.066 7.383zm.808-235.587H8.066C3.633 741.663 0 738.33 0 734.28v-29.536c0-4.074 3.633-7.382 8.066-7.382h20.542c4.435 0 8.056 3.308 8.056 7.382v29.536c0 4.05-3.62 7.383-8.056 7.383"/>
	<path fill="#3f464c" d="M239.753 977.25h-20.959c-4.432 0-7.247-3.333-7.247-7.382V838.045c0-27.705-7.66-38.4-35.054-38.4h-28.608c-27.396 0-35.044 10.695-35.044 38.4v131.823c0 4.05-2.826 7.383-7.258 7.383H84.635c-4.432 0-7.255-3.334-7.255-7.383V838.045c0-56.87 43.11-66.477 70.505-66.477h28.608c27.394 0 70.504 9.607 70.504 66.477v131.823c0 4.05-2.81 7.383-7.244 7.383"/>
	<path fill="#3f464c" d="M382.035 977.62c-7.663 1.112-24.176 2.224-38.679 2.224-37.88 0-59.637-11.46-59.637-51.342v-190.54c0-3.682 3.634-6.275 8.068-7.015l19.732-2.939h.81c4.028 0 6.85 3.31 6.85 7.012v39.142h62.856c4.421 0 7.65 2.569 7.65 6.642v12.547c0 3.701-3.229 6.642-7.65 6.642h-62.856v128.51c0 21.411 7.65 25.114 29.813 25.114h32.638c5.636 0 8.458 1.482 8.458 5.163v12.569c0 3.308-2.01 5.53-8.053 6.27"/>
	<path fill="#3f464c" d="M545.241 859.456c0-39.51-17.324-59.463-52.773-59.463-34.653 0-53.992 21.435-53.992 59.463v1.853h106.765zm28.206 26.596h-134.97v4.42c0 42.474 21.76 62.033 58.816 62.033 23.366 0 50.367-2.59 68.896-5.16h2.014c3.228 0 6.445 1.481 6.445 5.16v12.57c0 4.793-1.608 7.383-8.055 8.471-22.961 4.074-42.3 6.298-69.3 6.298-46.327 0-94.277-20.326-94.277-91.223v-25.83c0-52.45 31.828-91.223 89.452-91.223 58.815 0 88.627 38.403 88.627 90.85v15.508c0 4.792-2.811 8.126-7.648 8.126"/>
	<path fill="#3f464c" d="M702.026 799.993c-27.408 0-40.693.74-56.004 3.703v166.172c0 3.678-2.825 7.383-7.258 7.383h-20.948c-4.027 0-7.255-3.334-7.255-7.383V790.41c0-4.074 2.823-6.643 7.255-8.495 22.962-9.236 50.761-10.348 84.21-10.348 5.23 0 8.458.372 8.458 5.532v16.99c0 4.074-.81 5.903-8.458 5.903"/>
	<path fill="#3f464c" d="M907.531 974.287c-6.041 1.482-32.637 5.926-63.653 5.926-48.352 0-114.018-21.804-114.018-113.002v-54.278c0-92.68 65.666-113.002 114.018-113.002 31.016 0 57.612 4.444 63.653 5.901 5.232 1.482 8.865 3.334 8.865 8.495v24.744c0 4.444-2.014 7.755-8.053 7.755h-.812c-14.097-1.112-41.502-2.94-62.866-2.94-33.828 0-58.41 16.618-58.41 69.047v54.278c0 51.314 24.582 69.046 58.41 69.046 21.364 0 48.769-1.85 62.866-2.939h.812c6.039 0 8.053 3.31 8.053 7.753v24.722c0 5.183-3.633 7.036-8.865 8.494"/>
	<path fill="#3f464c" d="M990.188 977.25h-37.476c-4.444 0-8.053-3.704-8.053-7.756V703.632c0-4.07 3.61-7.382 8.053-7.382h37.476c4.42 0 7.662 3.312 7.662 7.382v265.862c0 4.052-3.242 7.757-7.662 7.757"/>
	<path fill="#3f464c" d="M1166.681 858.347c0-30.278-14.907-49.858-43.098-49.858-28.218 0-43.123 19.58-43.123 49.858v29.904c0 30.274 14.905 49.857 43.123 49.857 28.191 0 43.098-19.583 43.098-49.857zm-43.098 121.866c-63.26 0-96.29-39.142-96.29-91.962v-29.904c0-52.8 33.03-91.939 96.29-91.939 63.235 0 96.287 39.139 96.287 91.939v29.904c0 52.82-33.052 91.962-96.287 91.962"/>
	<path fill="#3f464c" d="M1339.583 980.213h-2.4c-23.8 0-91.875-8.864-91.875-89.37V776.732c0-4.05 3.22-7.753 7.664-7.753h37.866c4.421 0 7.639 3.702 7.639 7.753v114.113c0 38.4 15.324 47.264 38.706 47.264h2.4c23.374 0 38.68-8.864 38.68-47.264V776.73c0-4.05 3.214-7.753 7.667-7.753h37.866c4.44 0 7.64 3.702 7.64 7.753v114.113c0 80.505-68.08 89.369-91.853 89.369"/>
	<path fill="#3f464c" d="M1590.636 808.859c-11.28-1.458-29-2.57-38.653-2.57-34.68 0-43.12 22.522-43.12 52.796v28.424c0 30.301 8.44 52.823 43.12 52.823 14.48 0 31.013-1.112 38.653-2.594zm42.307 161.747c-24.974 5.903-55.174 9.607-80.96 9.607-64.88 0-96.293-35.09-96.293-92.704v-28.424c0-57.61 31.413-92.677 96.293-92.677 9.653 0 23.746.74 38.653 2.57v-65.346c0-4.07 3.627-7.382 8.053-7.382h37.08c4.44 0 8.054 3.312 8.054 7.382V960.63c0 5.533-1.614 7.755-10.88 9.976"/>
	<path fill="#fbca3c" fill-rule="evenodd" d="M495.001 194.432c-42.843 0-77.565 34.766-77.565 77.68 0 42.868 34.722 77.635 77.565 77.635 42.892 0 77.703-34.767 77.703-77.635 0-42.914-34.81-77.68-77.703-77.68zm.07 35.644c-23.216 0-41.988 18.844-41.988 42.081 0 23.148 18.772 41.944 41.988 41.944s41.988-18.796 41.988-41.944c0-23.237-18.772-42.08-41.988-42.08"/>
	<path fill="#fbca3c" fill-rule="evenodd" d="M748.097 473.718c-42.844 0-77.565 34.814-77.565 77.727 0 42.868 34.72 77.588 77.565 77.588 42.892 0 77.704-34.72 77.704-77.588 0-42.913-34.812-77.727-77.704-77.727zm.07 35.692c-23.217 0-41.986 18.797-41.986 42.081 0 23.1 18.77 41.896 41.985 41.896 23.216 0 41.988-18.796 41.988-41.896 0-23.284-18.772-42.08-41.988-42.08"/>
	<path fill="#fbca3c" d="M803.186 597.23h501.727c48.19 0 89.55-16.203 119.643-46.85 30.347-30.925 46.614-73.928 45.76-121.056-1.666-89.855-76.76-159.572-168.83-155.915l-18.353.972.646-18.472c1.991-59.346-13.03-110.778-44.626-152.858C1190.058 37.545 1113.675.001 1029.536.001c-28.77 0-57.45 4.352-85.154 13.008-74.118 22.914-132.03 77.17-158.95 148.787l-3.54 9.166-9.538 1.529c-47.61 8.423-89.276 30.552-120.337 63.976-29.536 31.804-47.683 71.336-53.978 117.492-1.504 10.972-1.62 24.349-1.736 38.515-.21 24.674-.418 50.183-8.01 68.606-5.81 14.074-14.144 26.573-24.79 37.22-11.434 11.204-23.702 19.445-37.612 25.183-13.1 5.371-27.128 8.288-41.71 8.566l-171.911.092c-10.113 0-19.743-1.806-28.564-5.416-37.356-15.415-55.132-58.515-39.695-96.012 20.879-50.275 72.68-52.265 114.299-53.84l7.476-.324c17.197-27.681 36.432-49.348 64.926-63.745l-4.93-67.773c-40.763 14.444-72.519 38.608-94.39 71.8l-3.034 4.629-5.51-.461c-22.15-1.667-42.913 1.481-63.86 10.045-34.143 14.259-60.807 40.876-74.971 75.04-14.05 34.026-14.05 71.524.023 105.642 21.618 51.895 71.753 85.504 127.769 85.504l3.356-.093h165.544c24.302 0 47.798-4.584 69.855-13.656 21.99-9.122 41.688-22.222 58.445-38.935 20.74-21.016 35.692-45.412 44.256-72.586 7.547-23.655 7.199-41.942 6.853-61.339-.302-15.97-.602-32.59 3.124-53.422 6.504-36.666 26.455-69.486 56.155-92.308 44.88-34.535 97.005-39.58 170.31-13.935l22.385-57.034c-10.602-4.027-16.41-5.508-27.66-9.396-8.173-2.778-16.202-5.555-23.494-8.194l-10.393-3.797 10.67-18.748c35.205-58.144 99.623-94.069 168.23-94.069 8.634 0 17.336.603 25.784 1.713 95.712 13.426 167.883 96.43 167.883 193.09 0 21.016-3.426 41.896-10.207 62.126-2.963 8.841-10.81 23.332-16.828 33.285l54.787 33.606c6.736-8.607 11.968-17.635 15.022-24.534l2.545-3.89 6.923-5.138c9.839-3.239 19.535-4.765 29.559-4.765 51.524 0 93.417 41.94 93.417 93.463s-41.893 93.467-93.417 93.467H803.186v65.089"/>
</svg>
