<svg xmlns="http://www.w3.org/2000/svg" viewBox="13.55 8.55 725.4 141.4">
	<path fill="none" d="M261.134 79.008a13.068 13.068 0 0 0-4.176-3.312 13.609 13.609 0 0 0-6.264-1.296 14.412 14.412 0 0 0-6.192 1.224 12.815 12.815 0 0 0-4.32 3.24 14.504 14.504 0 0 0-2.664 4.68 30.642 30.642 0 0 0-1.368 5.4h28.368a22.271 22.271 0 0 0-.936-5.328 13.355 13.355 0 0 0-2.448-4.608zm175.102 0a13.068 13.068 0 0 0-4.176-3.312 13.61 13.61 0 0 0-6.264-1.296 14.412 14.412 0 0 0-6.192 1.224 12.815 12.815 0 0 0-4.32 3.24 14.503 14.503 0 0 0-2.664 4.68 30.642 30.642 0 0 0-1.368 5.4h28.368a22.268 22.268 0 0 0-.936-5.328 13.354 13.354 0 0 0-2.448-4.608zm264.672 0a13.068 13.068 0 0 0-4.176-3.312 13.61 13.61 0 0 0-6.264-1.296 14.412 14.412 0 0 0-6.192 1.224 12.815 12.815 0 0 0-4.32 3.24 14.503 14.503 0 0 0-2.664 4.68 30.637 30.637 0 0 0-1.368 5.4h28.368a22.268 22.268 0 0 0-.936-5.328 13.355 13.355 0 0 0-2.448-4.608z"/>
	<path fill="#326ce5" d="M196.33 117.384a40.993 40.993 0 0 1-7.128.648q-7.202 0-9.576-4.032-2.376-4.03-2.376-10.8V76.56h25.776V58.704H177.25v-22.32l-21.456 3.456v63.648a60.69 60.69 0 0 0 1.368 13.392 24.64 24.64 0 0 0 4.824 10.296 22.802 22.802 0 0 0 9.216 6.624q5.758 2.376 14.544 2.376a50.388 50.388 0 0 0 11.664-1.152 60.758 60.758 0 0 0 8.64-2.736l-3.024-16.704a36.619 36.619 0 0 1-6.696 1.8zM49.742 27.528a13.66 13.66 0 0 0-18 0 11.775 11.775 0 0 0-3.816 9.288 11.77 11.77 0 0 0 3.816 9.288 13.66 13.66 0 0 0 18 0 11.777 11.777 0 0 0 3.816-9.288 11.783 11.783 0 0 0-3.816-9.288zM30.086 58.704h21.456v75.744H30.086zm100.078 7.92a24.15 24.15 0 0 0-10.152-7.128q-6.41-2.518-16.056-2.52a116.055 116.055 0 0 0-18.144 1.368A120.029 120.029 0 0 0 71.7 61.296v73.152h21.456V75.984q2.015-.287 4.608-.504 2.592-.216 4.896-.216 7.486 0 10.224 4.32 2.734 4.32 2.736 14.688v40.176h21.456V91.68a58.271 58.271 0 0 0-1.584-14.112 27.819 27.819 0 0 0-5.328-10.944zm295.344-9.936a36.292 36.292 0 0 0-13.464 2.592 33.836 33.836 0 0 0-11.592 7.632 37.8 37.8 0 0 0-8.136 12.6 46.298 46.298 0 0 0-3.096 17.64 49.333 49.333 0 0 0 2.376 15.552 32.845 32.845 0 0 0 7.344 12.456 34.62 34.62 0 0 0 12.528 8.28 47.73 47.73 0 0 0 17.784 3.024 75.68 75.68 0 0 0 8.064-.432q4.03-.432 7.56-1.08a60.433 60.433 0 0 0 6.408-1.512 29.666 29.666 0 0 0 4.608-1.728l-2.88-17.424a43.694 43.694 0 0 1-9.288 2.664 62.02 62.02 0 0 1-11.592 1.08q-9.217 0-14.688-3.888a14.25 14.25 0 0 1-6.192-10.512h48.672q.142-1.728.288-3.96.142-2.23.144-4.104 0-19.15-9.36-29.016-9.362-9.862-25.488-9.864zm-14.256 32.256a30.642 30.642 0 0 1 1.368-5.4 14.503 14.503 0 0 1 2.664-4.68 12.815 12.815 0 0 1 4.32-3.24 14.412 14.412 0 0 1 6.192-1.224 13.61 13.61 0 0 1 6.264 1.296 13.068 13.068 0 0 1 4.176 3.312 13.354 13.354 0 0 1 2.448 4.608 22.268 22.268 0 0 1 .936 5.328zm129.598-30.24h21.456v75.744H540.85zm19.656-31.176a13.66 13.66 0 0 0-18 0 11.775 11.775 0 0 0-3.816 9.288 11.77 11.77 0 0 0 3.816 9.288 13.66 13.66 0 0 0 18 0 11.777 11.777 0 0 0 3.816-9.288 11.783 11.783 0 0 0-3.816-9.288zm-43.774 89.856a40.993 40.993 0 0 1-7.128.648q-7.202 0-9.576-4.032-2.376-4.03-2.376-10.8V76.56h25.776V58.704h-25.776v-22.32l-21.456 3.456v63.648a60.69 60.69 0 0 0 1.368 13.392 24.639 24.639 0 0 0 4.824 10.296 22.802 22.802 0 0 0 9.216 6.624q5.758 2.376 14.544 2.376a50.388 50.388 0 0 0 11.664-1.152 60.76 60.76 0 0 0 8.64-2.736l-3.024-16.704a36.62 36.62 0 0 1-6.696 1.8zM250.406 56.688a36.293 36.293 0 0 0-13.464 2.592 33.836 33.836 0 0 0-11.592 7.632 37.801 37.801 0 0 0-8.136 12.6 46.298 46.298 0 0 0-3.096 17.64 49.335 49.335 0 0 0 2.376 15.552 32.845 32.845 0 0 0 7.344 12.456 34.619 34.619 0 0 0 12.528 8.28 47.73 47.73 0 0 0 17.784 3.024 75.681 75.681 0 0 0 8.064-.432q4.03-.432 7.56-1.08a60.432 60.432 0 0 0 6.408-1.512 29.669 29.669 0 0 0 4.608-1.728l-2.88-17.424a43.695 43.695 0 0 1-9.288 2.664 62.02 62.02 0 0 1-11.592 1.08q-9.217 0-14.688-3.888a14.25 14.25 0 0 1-6.192-10.512h48.672q.141-1.728.288-3.96.142-2.23.144-4.104 0-19.15-9.36-29.016-9.362-9.862-25.488-9.864zM236.15 88.944a30.642 30.642 0 0 1 1.368-5.4 14.504 14.504 0 0 1 2.664-4.68 12.815 12.815 0 0 1 4.32-3.24 14.412 14.412 0 0 1 6.192-1.224 13.609 13.609 0 0 1 6.264 1.296 13.068 13.068 0 0 1 4.176 3.312 13.355 13.355 0 0 1 2.448 4.608 22.271 22.271 0 0 1 .936 5.328zm134.71 25.344a8.928 8.928 0 0 1-1.655-3.888 28.244 28.244 0 0 1-.432-5.184V22.704l-21.456 3.456v83.376a44.247 44.247 0 0 0 1.224 10.872 17.404 17.404 0 0 0 4.608 8.208 22.469 22.469 0 0 0 9.216 5.256 53.679 53.679 0 0 0 15.192 2.016l3.024-17.712a19.285 19.285 0 0 1-6.192-1.296 8.747 8.747 0 0 1-3.528-2.592zm-45.502 0a8.928 8.928 0 0 1-1.656-3.888 28.244 28.244 0 0 1-.432-5.184V22.704l-21.456 3.456v83.376a44.247 44.247 0 0 0 1.224 10.872 17.404 17.404 0 0 0 4.608 8.208 22.468 22.468 0 0 0 9.216 5.256 53.679 53.679 0 0 0 15.192 2.016l3.024-17.712a19.285 19.285 0 0 1-6.192-1.296 8.747 8.747 0 0 1-3.528-2.592zm390.31-47.736q-9.362-9.862-25.488-9.864a36.292 36.292 0 0 0-13.464 2.592 33.836 33.836 0 0 0-11.592 7.632 37.8 37.8 0 0 0-8.136 12.6 46.298 46.298 0 0 0-3.096 17.64 49.333 49.333 0 0 0 2.376 15.552 32.845 32.845 0 0 0 7.344 12.456 34.62 34.62 0 0 0 12.528 8.28 47.73 47.73 0 0 0 17.784 3.024 75.681 75.681 0 0 0 8.064-.432q4.03-.432 7.56-1.08a60.432 60.432 0 0 0 6.408-1.512 29.665 29.665 0 0 0 4.608-1.728l-2.88-17.424a43.694 43.694 0 0 1-9.288 2.664 62.02 62.02 0 0 1-11.592 1.08q-9.217 0-14.688-3.888a14.25 14.25 0 0 1-6.192-10.512h48.672q.142-1.728.288-3.96.142-2.23.144-4.104 0-19.15-9.36-29.016zm-39.744 22.392a30.637 30.637 0 0 1 1.368-5.4 14.503 14.503 0 0 1 2.664-4.68 12.815 12.815 0 0 1 4.32-3.24 14.412 14.412 0 0 1 6.192-1.224 13.61 13.61 0 0 1 6.264 1.296 13.068 13.068 0 0 1 4.176 3.312 13.355 13.355 0 0 1 2.448 4.608 22.268 22.268 0 0 1 .936 5.328zm-53.521-18.072q-1.951 6.554-4.048 13.248-2.096 6.696-4.264 13.032-2.167 6.338-4.045 11.52-2.025-5.184-4.124-11.52-2.1-6.335-4.194-13.032-2.1-6.696-4.05-13.248-1.955-6.55-3.4-12.168h-22.752q6.79 22.754 14.38 42.048 7.587 19.298 14.96 33.696h17.806q7.365-14.398 14.947-33.696 7.58-19.295 14.37-42.048H625.8q-1.444 5.616-3.397 12.168z"/>
</svg>
