<svg xmlns="http://www.w3.org/2000/svg" viewBox="0.55 0.43 94.77 39.02">
	<defs>
		<clipPath id="a" clipPathUnits="userSpaceOnUse">
			<path d="M0 30h72V0H0Z"/>
		</clipPath>
	</defs>
	<path fill="#00c7fd" d="M2.4 2.796h6.612v6.61H2.4Z"/>
	<g clip-path="url(#a)" transform="matrix(1.33333 0 0 -1.33333 0 40)">
		<path fill="#0068b5" d="M43.587 12.693c-.002 1.307 1.498 3.586 4.73 3.59 3.232 0 4.735-2.278 4.735-3.584zm13.975-1.636a9.592 9.592 0 0 1-.678 3.607 9.258 9.258 0 0 1-1.892 2.945 8.635 8.635 0 0 1-2.907 1.979c-1.125.473-2.38.713-3.731.713a9.087 9.087 0 0 1-3.622-.731 9.433 9.433 0 0 1-2.947-1.981 9.417 9.417 0 0 1-1.981-2.946 9.071 9.071 0 0 1-.732-3.623c0-1.28.235-2.5.697-3.624a9.066 9.066 0 0 1 1.926-2.944c.817-.829 1.82-1.495 2.981-1.981 1.161-.485 2.447-.731 3.822-.731 3.976 0 6.455 1.808 7.936 3.501l-3.382 2.575c-.713-.846-2.404-1.993-4.518-1.993-1.325 0-2.417.308-3.244.912-.828.605-1.398 1.438-1.694 2.477l-.048.165h14.014Zm-32.416 7.126c-1.302 1.406-3.142 2.118-5.467 2.118-1.121 0-2.158-.231-3.083-.686a6.644 6.644 0 0 1-2.334-1.903l-.256-.331-.002.297v2.262H9.369V2.101h4.671v9.504l.004-.66c0 .109.001.217.005.321.048 1.667.464 2.911 1.239 3.7.827.841 1.83 1.268 2.983 1.268 1.356 0 2.39-.416 3.076-1.234.671-.804 1.014-1.953 1.021-3.419v-.037l.001-.008h-.001l.001-9.435h4.742v10.127c0 2.542-.661 4.546-1.965 5.955M64.71 28.264h-4.699V2.101h4.699zM37.777 1.921v4.374c-.692.003-1.263.041-1.7.109-.484.076-.856.241-1.103.489-.247.247-.412.606-.489 1.066-.073.44-.11 1.019-.11 1.722v6.24h3.402v4.019h-3.402v6.949h-4.699V9.645c0-1.454.127-2.692.376-3.678.247-.974.668-1.77 1.252-2.366.584-.596 1.356-1.029 2.295-1.287.947-.261 2.154-.393 3.585-.393zM6.629 19.94H1.93V2.102h4.699z"/>
		<path fill="#0068b5" d="M68.59 3.821a1.887 1.887 0 0 0-.168-.007h-.267v.557h.267c.056 0 .112-.002.168-.005a.471.471 0 0 0 .152-.032.266.266 0 0 0 .11-.085.253.253 0 0 0 .043-.155.254.254 0 0 0-.043-.154.264.264 0 0 0-.11-.084.53.53 0 0 0-.152-.035m.197-.287a.562.562 0 0 1 .338.154c.089.087.134.218.134.393 0 .193-.057.342-.171.444-.113.103-.29.154-.53.154h-.768V2.692h.365v.814h.267l.496-.814h.383Zm.991-.417a1.423 1.423 0 0 0-1.319-.874 1.439 1.439 0 0 0-1.013.418 1.46 1.46 0 0 0-.418 1.013 1.437 1.437 0 0 0 .418 1.012 1.441 1.441 0 0 0 1.013.419 1.417 1.417 0 0 0 1.013-.419 1.423 1.423 0 0 0 .419-1.012c0-.197-.038-.382-.113-.557m.283 1.232a1.76 1.76 0 0 1-.926.927c-.21.092-.436.138-.676.138-.24 0-.465-.046-.676-.138a1.788 1.788 0 0 1-.925-.927 1.663 1.663 0 0 1-.138-.675c0-.241.046-.465.138-.676a1.755 1.755 0 0 1 .925-.926c.211-.092.436-.138.676-.138.24 0 .466.046.676.138a1.772 1.772 0 0 1 .926.926c.092.211.138.435.138.676 0 .24-.046.465-.138.675"/>
	</g>
</svg>
