<svg id="Layer_1" data-name="Layer 1" xmlns="http://www.w3.org/2000/svg" xmlns:xlink="http://www.w3.org/1999/xlink" viewBox="0 0 761.72 297.12">
	<defs>
		<linearGradient id="linear-gradient" x1="122.819" y1="136.533" x2="192.058" y2="136.533" gradientUnits="userSpaceOnUse">
			<stop offset="0" stop-color="#e53524"/>
			<stop offset="1" stop-color="#cd1719"/>
		</linearGradient>
		<linearGradient id="linear-gradient-2" x1="122.819" y1="136.533" x2="192.058" y2="136.533" gradientUnits="userSpaceOnUse">
			<stop offset="0" stop-color="#db3425"/>
			<stop offset="0" stop-color="#ef783d"/>
			<stop offset="1" stop-color="#9f191c"/>
		</linearGradient>
		<linearGradient id="linear-gradient-3" x1="47.462" y1="169.842" x2="116.463" y2="169.842" gradientUnits="userSpaceOnUse">
			<stop offset="0" stop-color="#1d2b53"/>
			<stop offset="1" stop-color="#171c31"/>
		</linearGradient>
		<linearGradient id="linear-gradient-4" x1="47.462" y1="169.842" x2="116.463" y2="169.842" gradientUnits="userSpaceOnUse">
			<stop offset="0" stop-color="#171c31"/>
			<stop offset="1" stop-color="#4c6e99"/>
		</linearGradient>
		<linearGradient id="linear-gradient-5" x1="53.112" y1="106.248" x2="123.032" y2="106.248" gradientUnits="userSpaceOnUse">
			<stop offset="0" stop-color="#eb3c27"/>
			<stop offset="1" stop-color="#881613"/>
		</linearGradient>
		<linearGradient id="linear-gradient-6" x1="13.017" y1="159.342" x2="47.693" y2="219.403" xlink:href="#linear-gradient-3"/>
		<linearGradient id="linear-gradient-7" x1="12.863" y1="199.125" x2="82.061" y2="199.125" gradientUnits="userSpaceOnUse">
			<stop offset="0" stop-color="#4c6e99"/>
			<stop offset="1" stop-color="#171c31"/>
		</linearGradient>
		<linearGradient id="linear-gradient-8" x1="29.939" y1="171.251" x2="29.939" y2="91.914" gradientUnits="userSpaceOnUse">
			<stop offset="0" stop-color="#19567e"/>
			<stop offset="1" stop-color="#1e222e"/>
		</linearGradient>
		<linearGradient id="linear-gradient-9" x1="13.414" y1="223.428" x2="192.085" y2="223.428" gradientUnits="userSpaceOnUse">
			<stop offset="0" stop-color="#6f6f6f"/>
			<stop offset="1" stop-color="#d1d0d1"/>
		</linearGradient>
		<linearGradient id="linear-gradient-10" x1="11.928" y1="71.699" x2="82.365" y2="71.699" gradientUnits="userSpaceOnUse">
			<stop offset="0" stop-color="#d4eefb"/>
			<stop offset=".4" stop-color="#1384ca"/>
		</linearGradient>
		<linearGradient id="linear-gradient-11" x1="212.076" y1="74.417" x2="236" y2="238.342" xlink:href="#linear-gradient-3"/>
		<linearGradient id="linear-gradient-12" x1="691.56" y1="4.438" x2="715.484" y2="168.363" xlink:href="#linear-gradient-3"/>
		<linearGradient id="linear-gradient-13" x1="409.676" y1="45.578" x2="433.601" y2="209.503" xlink:href="#linear-gradient-3"/>
		<linearGradient id="linear-gradient-14" x1="273.351" y1="65.474" x2="297.276" y2="229.399" xlink:href="#linear-gradient-3"/>
		<linearGradient id="linear-gradient-15" x1="516.914" y1="29.927" x2="540.838" y2="193.852" xlink:href="#linear-gradient-3"/>
		<linearGradient id="linear-gradient-16" x1="345.224" y1="54.984" x2="369.149" y2="218.91" xlink:href="#linear-gradient-3"/>
		<linearGradient id="linear-gradient-17" x1="617.613" y1="15.23" x2="641.537" y2="179.156" xlink:href="#linear-gradient-3"/>
		<linearGradient id="linear-gradient-18" x1="469.784" y1="36.805" x2="493.709" y2="200.731" xlink:href="#linear-gradient-3"/>
		<linearGradient id="linear-gradient-19" x1="556.385" y1="24.166" x2="580.31" y2="188.092" xlink:href="#linear-gradient-3"/>
		<linearGradient id="linear-gradient-20" x1="478.114" y1="35.59" x2="502.038" y2="199.515" xlink:href="#linear-gradient-3"/>
		<linearGradient id="linear-gradient-21" x1="564.728" y1="22.949" x2="588.652" y2="186.874" xlink:href="#linear-gradient-3"/>
		<style>
			.cls-1{fill:#413e3f}.cls-2{fill:#fefefe}
		</style>
	</defs>
	<path class="cls-1" d="M331.11 214.998c0 5.307.003 10.194-.002 15.08a5.394 5.394 0 0 1-.206 1.974 2.442 2.442 0 0 1-2.514 1.715 2.32 2.32 0 0 1-2.45-1.772 5.615 5.615 0 0 1-.22-1.543c-.014-6.81-.027-13.619 0-20.428.012-2.91 2.017-4.561 4.468-3.785a4.373 4.373 0 0 1 2.188 1.953q5.431 7.786 10.869 15.567c.228.326.343.787.967.94v-2.262c.001-4.429-.014-8.857.01-13.286.011-1.997.953-3.082 2.578-3.095 1.645-.014 2.64 1.068 2.645 3.032q.03 10.714.001 21.428c-.001 1.252-.284 2.433-1.564 2.959a3.788 3.788 0 0 1-3.918-.458 11.727 11.727 0 0 1-2.365-2.843c-3.411-4.93-6.816-9.863-10.487-15.176Z"/>
	<path class="cls-1" d="M648.117 224.705c.464-.524.28-1.02.281-1.469.017-4.664.013-9.329.012-13.993 0-1.195.2-2.309 1.396-2.909a2.573 2.573 0 0 1 3.82 2.373c.059 7.377.036 14.754.01 22.132a2.602 2.602 0 0 1-1.584 2.652 3.84 3.84 0 0 1-3.8-.41 10.684 10.684 0 0 1-2.392-2.814q-4.752-6.862-9.49-13.735c-.256-.372-.54-.726-1.042-1.4v1.716q0 6.711.004 13.423a4.778 4.778 0 0 1-.293 1.96 2.442 2.442 0 0 1-2.497 1.539 2.316 2.316 0 0 1-2.329-1.549 4.421 4.421 0 0 1-.278-1.528c-.017-6.997-.03-13.994.003-20.99a3.331 3.331 0 0 1 3.5-3.643 3.884 3.884 0 0 1 3.08 2.035q5.323 7.682 10.687 15.335c.291.416.59.826.912 1.275Z"/>
	<path class="cls-1" d="M707.077 221.27a21.007 21.007 0 0 1 6.972 8.774c.546 1.17.792 2.265-.424 3.183a3.33 3.33 0 0 1-3.857-.143 7.9 7.9 0 0 1-1.504-1.893c-1.462-2.226-2.909-4.463-4.376-6.686-1.57-2.378-3.932-2.77-6.534-2.613-.867.052-.668.636-.673 1.115-.027 2.667.037 5.336-.073 7.999a2.595 2.595 0 0 1-3.07 2.755 2.408 2.408 0 0 1-2.442-1.993 8.174 8.174 0 0 1-.192-1.838q-.02-9.716-.006-19.431c.003-3.118.856-4.004 4.01-3.946 4.33.078 8.685-.397 12.987.29a7.135 7.135 0 0 1 5.81 9.376 6.358 6.358 0 0 1-3.784 4.022c-.887.395-1.829.667-2.844 1.029Zm-6.524-10.68c-.998 0-1.997.036-2.993-.011-.69-.034-.918.23-.908.9.028 1.899.015 3.799.006 5.698-.002.479.058.83.677.81 2.607-.084 5.23.213 7.818-.314 2.034-.414 3.13-1.69 3.063-3.51a3.53 3.53 0 0 0-3.254-3.372 28.545 28.545 0 0 0-4.409-.2Z"/>
	<path class="cls-1" d="M590.073 221.255a20.93 20.93 0 0 1 7.041 8.864c.521 1.129.725 2.175-.408 3.07a3.325 3.325 0 0 1-3.741.019 5.833 5.833 0 0 1-1.393-1.612c-1.367-2.118-2.764-4.218-4.097-6.357a6.674 6.674 0 0 0-6.742-3.365c-.786.068-1.065.254-1.054 1.064.033 2.666.053 5.335-.033 8a2.605 2.605 0 0 1-3.006 2.826 2.417 2.417 0 0 1-2.523-2.07 9.145 9.145 0 0 1-.182-1.839q-.019-9.643-.006-19.287c.002-3.209.833-4.074 4.085-4.016 4.33.078 8.685-.4 12.985.301a7.135 7.135 0 0 1 5.758 9.297 6.627 6.627 0 0 1-4.256 4.298c-.741.305-1.524.51-2.428.807Zm-6.324-10.664c-1.046 0-2.093.028-3.137-.01-.65-.025-.952.151-.939.867.036 1.9.017 3.8.01 5.702-.002.462.012.853.65.834 2.656-.078 5.332.23 7.963-.335a3.321 3.321 0 0 0 2.955-3.46 3.526 3.526 0 0 0-3.233-3.394 26.805 26.805 0 0 0-4.269-.204Z"/>
	<path class="cls-1" d="M356.74 219.85c0-8.991 6.117-14.558 15.1-13.744 11.173 1.013 16.736 13.111 10.3 22.405a12.159 12.159 0 0 1-9.004 5.133 18.35 18.35 0 0 1-6.809-.337c-6.15-1.574-9.587-6.403-9.587-13.457Zm21.922.193a11.779 11.779 0 0 0-.92-5.142 7.322 7.322 0 0 0-7.288-4.49 7.067 7.067 0 0 0-7.007 4.653 12.827 12.827 0 0 0-.346 8.654 7.412 7.412 0 0 0 7.678 5.733 7.584 7.584 0 0 0 7.46-5.884 13.155 13.155 0 0 0 .423-3.524Z"/>
	<path class="cls-1" d="M468.725 219.177c1.473.067 2.952.072 4.417.217a2.322 2.322 0 0 1 2.358 2.522c.06 2.092.017 4.187.013 6.281a2.846 2.846 0 0 1-1.554 2.56c-5.719 3.278-11.735 4.161-17.937 1.683-5.124-2.048-7.908-7.339-7.556-13.36.576-9.853 7.965-13.435 16.069-12.97a13.341 13.341 0 0 1 6.86 2.144 7.485 7.485 0 0 1 3.083 3.811 2.414 2.414 0 0 1-.9 3.02 2.776 2.776 0 0 1-3.433-.204 4.197 4.197 0 0 1-.718-.88c-2.336-3.752-5.457-4.3-9.276-3.375-3.225.781-5.408 3.708-5.766 7.536a14.286 14.286 0 0 0 .57 6.064c1.208 3.5 4.21 5.448 8.212 5.362a16.754 16.754 0 0 0 6.078-1.388 1.552 1.552 0 0 0 1.08-1.715c-.037-3.122 0-3.118-3.108-3.125a13.754 13.754 0 0 1-2.845-.159c-1.038-.219-1.787-.666-1.766-1.86a1.847 1.847 0 0 1 1.841-1.976c1.418-.109 2.85-.026 4.275-.026Z"/>
	<path class="cls-1" d="M442.41 219.925c.007 6.956-3.318 11.754-9.34 13.319a17.523 17.523 0 0 1-9.721-.2c-5.203-1.61-8.299-5.919-8.695-11.981a16.94 16.94 0 0 1 .66-6.064c1.853-6.111 7.305-9.482 14.364-8.9 8.25.681 12.723 5.537 12.732 13.826Zm-21.923-.207a12.357 12.357 0 0 0 .949 5.18 7.813 7.813 0 0 0 14.07.271 12.478 12.478 0 0 0 .62-8.895 7.499 7.499 0 0 0-7.728-5.887c-3.81.028-6.541 2.265-7.532 6.127a15.834 15.834 0 0 0-.38 3.204Z"/>
	<path class="cls-1" d="M293.33 219.864c0-3.617-.043-7.234.016-10.849a2.76 2.76 0 0 1 3.89-2.75 2.836 2.836 0 0 1 1.815 2.947c.034 2.188.052 4.378-.006 6.565-.025.929.138 1.34 1.213 1.317a260.4 260.4 0 0 1 9.998-.005c.948.016 1.216-.267 1.19-1.203a105.22 105.22 0 0 1 .001-6.708c.083-2.35 1.742-3.59 3.797-2.956a2.663 2.663 0 0 1 1.916 2.84c.025 2.474.018 4.949.018 7.423.002 4.663.017 9.326-.01 13.99-.013 2.02-.868 3.102-2.448 3.268-2.027.214-3.225-.886-3.279-3.16q-.09-3.852.005-7.707c.028-1.062-.183-1.484-1.376-1.451-3.282.09-6.57.068-9.854.008-.964-.018-1.192.292-1.173 1.207.057 2.664.048 5.33.007 7.993-.027 1.741-.848 2.817-2.206 3.079a2.714 2.714 0 0 1-3.497-2.857c-.057-3.663-.016-7.328-.016-10.991Z"/>
	<path class="cls-1" d="M232.942 219.963c0-3.238-.017-6.476.004-9.714.019-2.836.863-3.695 3.65-3.704 4.955-.017 9.91-.002 14.865-.008a2.955 2.955 0 0 1 2.373.747 2.007 2.007 0 0 1-.91 3.232 7.18 7.18 0 0 1-1.976.218c-3.716.02-7.433.037-11.148-.01-.882-.012-1.161.236-1.117 1.12.072 1.424.067 2.858.002 4.283-.041.908.21 1.23 1.177 1.213 3.334-.06 6.67-.026 10.005-.02a12.116 12.116 0 0 1 1.568.078 1.96 1.96 0 0 1 .232 3.862 6.756 6.756 0 0 1-1.554.143c-3.383.012-6.766.042-10.148-.016-.958-.016-1.347.167-1.288 1.224a44.59 44.59 0 0 1-.001 5.14c-.068 1.126.352 1.326 1.375 1.31 3.763-.058 7.527-.028 11.291-.017a7.92 7.92 0 0 1 1.846.133 1.91 1.91 0 0 1 1.587 1.932 1.86 1.86 0 0 1-1.443 2.026 6.33 6.33 0 0 1-1.687.223q-7.432.024-14.865.005c-2.979-.01-3.821-.857-3.835-3.83-.015-3.19-.003-6.38-.003-9.57Z"/>
	<path class="cls-1" d="M662.235 219.881c0-3.285-.016-6.57.005-9.856.016-2.508.956-3.465 3.462-3.476q7.646-.036 15.293-.002c1.667.006 2.596.73 2.659 1.97.066 1.304-.854 2.177-2.587 2.202-3.906.056-7.814.07-11.72-.005-1.167-.022-1.465.353-1.39 1.445a30.517 30.517 0 0 1 0 3.997c-.064.99.333 1.19 1.23 1.178 3.335-.043 6.67-.02 10.005-.013a11.184 11.184 0 0 1 1.567.08 1.958 1.958 0 0 1 .227 3.86 6.323 6.323 0 0 1-1.554.143c-3.43.011-6.861.04-10.29-.016-.94-.015-1.225.25-1.186 1.189a63.74 63.74 0 0 1 0 5.283c-.039.955.28 1.21 1.212 1.198 3.763-.048 7.527-.022 11.29-.017.524 0 1.05.008 1.57.054a1.993 1.993 0 0 1 2.065 1.954 2.017 2.017 0 0 1-1.936 2.229 9.307 9.307 0 0 1-1.564.086q-7.218.009-14.436 0c-3.044-.01-3.917-.893-3.921-3.913q-.008-4.785-.001-9.57Z"/>
	<path class="cls-1" d="M732.022 233.764a14.061 14.061 0 0 1-6.263-1.154 8.547 8.547 0 0 1-4.814-5.35c-.531-1.716.057-3.072 1.416-3.573 1.432-.528 2.59.04 3.43 1.705a8.878 8.878 0 0 0 2.076 3.202c2.163 1.753 6.614 1.59 8.651-.322a3.113 3.113 0 0 0-.443-5.105 12.97 12.97 0 0 0-4.302-1.454 31.452 31.452 0 0 1-6.002-1.793c-2.718-1.231-4.495-3.166-4.457-6.35a6.573 6.573 0 0 1 4.604-6.405 15.492 15.492 0 0 1 11.701-.03 7.063 7.063 0 0 1 4.077 3.79c.738 1.723.293 3.275-1.075 3.96-1.395.7-2.529.209-3.597-1.555-1.907-3.149-4.151-4.077-7.54-3.12-1.714.484-2.87 1.562-2.857 2.8.017 1.608 1.178 2.351 2.484 2.768 1.944.62 3.938 1.084 5.913 1.607a28.949 28.949 0 0 1 4.034 1.396c5.836 2.508 5.15 9.96 1.084 12.77a13.436 13.436 0 0 1-8.12 2.213Z"/>
	<path class="cls-1" d="M564.57 233.766a2.296 2.296 0 0 1-2.263-1.47c-.657-1.422-1.298-2.855-1.86-4.316a1.396 1.396 0 0 0-1.539-1.087c-3.144.06-6.29.045-9.435.007a1.209 1.209 0 0 0-1.356.91c-.564 1.512-1.17 3.014-1.869 4.466a2.645 2.645 0 0 1-4.877-2.03c.456-1.347 1.053-2.647 1.601-3.963 2.375-5.7 4.736-11.407 7.143-17.094 1.126-2.663 2.948-3.61 5.398-2.944 1.658.45 2.39 1.758 3.002 3.195q3.686 8.654 7.383 17.303a37.262 37.262 0 0 1 1.404 3.576c.582 1.892-.631 3.44-2.733 3.447Zm-10.377-21.933c-1.4 3.662-2.698 7.052-3.991 10.444-.173.453.06.576.48.575 2.543-.007 5.086-.003 7.773-.003l-4.262-11.016Z"/>
	<path class="cls-1" d="M273.946 233.765c-10.9.219-14.165-9.04-13.311-15.996 1.45-11.818 14.304-14.142 21.197-9.465a8.861 8.861 0 0 1 3.648 4.444c.564 1.64.13 2.96-1.125 3.565-1.307.63-2.515.183-3.49-1.304-.287-.437-.54-.897-.82-1.338a7.225 7.225 0 0 0-12.578.867 13.64 13.64 0 0 0-.136 10.834c1.113 2.767 3.364 3.998 6.301 4.081a6.66 6.66 0 0 0 6.734-3.876c.271-.554.462-1.149.753-1.691a2.365 2.365 0 0 1 3.002-1.262 2.451 2.451 0 0 1 1.66 2.812c-.425 3.58-3.753 6.943-7.864 7.95a15.205 15.205 0 0 1-3.971.379Z"/>
	<path class="cls-1" d="M517.98 220.14c0-3.33-.022-6.662.006-9.993.023-2.693.927-3.618 3.628-3.592 3.662.035 7.34-.3 10.984.208 4.498.627 6.925 3.33 6.992 7.572.072 4.563-2.282 7.381-6.823 8.234a42.39 42.39 0 0 1-7.835.285c-.932.001-1.23.247-1.199 1.197.069 2.139.054 4.282.008 6.423-.04 1.853-.846 2.97-2.211 3.239-2.039.402-3.474-.746-3.52-3.01-.073-3.519-.02-7.041-.02-10.563Zm5.776-5.496c0 1.092-.012 2.185.006 3.277.006.344-.148.878.439.87 2.594-.037 5.251.398 7.715-.791a3.397 3.397 0 0 0 1.854-3.69 3.35 3.35 0 0 0-2.507-3.26 15.436 15.436 0 0 0-4.23-.462c-3.278.002-3.278-.003-3.278 3.201v.855Z"/>
	<path class="cls-1" d="M492.613 217.33c1.965-2.98 3.815-5.79 5.671-8.596a16.064 16.064 0 0 1 1.147-1.63 2.693 2.693 0 0 1 3.704-.542c1.112.8 1.353 1.983.433 3.406a99.327 99.327 0 0 1-5.64 8.224 10.793 10.793 0 0 0-2.574 8.389 23.949 23.949 0 0 1-.034 4.416 2.63 2.63 0 0 1-2.8 2.769 2.563 2.563 0 0 1-2.842-2.709 75.671 75.671 0 0 1-.048-7.13 5.618 5.618 0 0 0-1.16-3.676c-2.018-2.82-3.931-5.717-5.877-8.589a18.46 18.46 0 0 1-1.043-1.699c-.83-1.566-.61-2.718.62-3.472a2.68 2.68 0 0 1 3.764.785c1.914 2.777 3.74 5.615 5.601 8.427l1.078 1.628Z"/>
	<path class="cls-1" d="M215.307 206.54q4.286-.001 8.572.001a7.777 7.777 0 0 1 1.283.05 2.148 2.148 0 0 1 2.083 2.143 2.065 2.065 0 0 1-2.015 2.18 36.327 36.327 0 0 1-5.847.098c-1.054-.02-1.366.25-1.356 1.336.057 5.758.032 11.518.02 17.276a10.65 10.65 0 0 1-.154 1.986 2.504 2.504 0 0 1-2.747 2.159 2.557 2.557 0 0 1-2.712-2.22 11.523 11.523 0 0 1-.132-1.99c-.01-5.759-.03-11.518.017-17.276.008-1.01-.285-1.32-1.28-1.263-1.377.08-2.761.022-4.142.02-.381-.001-.764.01-1.142-.023-1.719-.151-2.628-.929-2.63-2.23-.002-1.36 1.008-2.22 2.753-2.237 3.143-.029 6.286-.008 9.43-.01Z"/>
	<path class="cls-1" d="M612.153 206.54c2.906 0 5.81-.006 8.716.005a6.486 6.486 0 0 1 1.558.124 2.05 2.05 0 0 1 1.74 2.131 2 2 0 0 1-1.801 2.066 32.426 32.426 0 0 1-6.13.147c-.989-.007-1.28.247-1.272 1.26.048 5.854.03 11.71.014 17.564a8.373 8.373 0 0 1-.21 1.976 2.493 2.493 0 0 1-2.763 1.955 2.574 2.574 0 0 1-2.642-2.143 13.34 13.34 0 0 1-.113-2.277c-.009-5.665-.036-11.33.022-16.993.011-1.095-.318-1.35-1.362-1.343a31.39 31.39 0 0 1-6.128-.153 1.933 1.933 0 0 1-1.7-1.989 2.031 2.031 0 0 1 1.52-2.148 4.901 4.901 0 0 1 1.692-.18q4.43-.008 8.86-.003Z"/>
	<path class="cls-1" d="M391.613 219.552c0-3.472-.058-6.945.02-10.415.053-2.322 1.629-3.506 3.66-2.944a2.41 2.41 0 0 1 1.88 1.927 10.286 10.286 0 0 1 .193 1.978c.014 5.802.043 11.605-.022 17.406-.012 1.157.34 1.406 1.426 1.383 3.282-.07 6.567-.02 9.85-.03a4.485 4.485 0 0 1 1.955.317 2.04 2.04 0 0 1 1.285 2.038 1.906 1.906 0 0 1-1.453 1.895 6.792 6.792 0 0 1-1.825.25q-6.567.03-13.134.006c-2.973-.011-3.83-.867-3.845-3.823-.017-3.33-.004-6.659-.004-9.988Z"/>
	<path class="cls-2" d="m28.898 101.965-6.69 3.95q-3.551 1.989-7.105 3.973c-.446.248-.918.448-1.379.67"/>
	<path class="cls-2" d="M13.444 110.801c.057-.136.067-.325.3-.264Z"/>
	<path class="cls-2" d="M700.553 210.59a28.671 28.671 0 0 1 4.409.201 3.53 3.53 0 0 1 3.254 3.371c.067 1.82-1.03 3.097-3.063 3.511-2.587.527-5.211.23-7.818.313-.62.02-.68-.33-.677-.809.01-1.9.022-3.8-.006-5.699-.01-.67.217-.933.908-.9.996.048 1.995.013 2.993.012Z"/>
	<path class="cls-2" d="M583.75 210.59a26.867 26.867 0 0 1 4.268.205 3.526 3.526 0 0 1 3.233 3.394 3.321 3.321 0 0 1-2.955 3.46c-2.631.565-5.307.257-7.963.335-.638.019-.652-.372-.65-.834.006-1.901.026-3.802-.01-5.702-.013-.716.29-.892.939-.868 1.044.039 2.091.01 3.137.01Z"/>
	<path class="cls-2" d="M378.662 220.042a13.157 13.157 0 0 1-.422 3.525 7.584 7.584 0 0 1-7.461 5.884 7.412 7.412 0 0 1-7.678-5.733 12.827 12.827 0 0 1 .345-8.654 7.067 7.067 0 0 1 7.008-4.652 7.322 7.322 0 0 1 7.288 4.489 11.778 11.778 0 0 1 .92 5.141Z"/>
	<path class="cls-2" d="M420.487 219.718a15.834 15.834 0 0 1 .379-3.204c.99-3.862 3.722-6.099 7.533-6.127a7.499 7.499 0 0 1 7.726 5.887 12.478 12.478 0 0 1-.62 8.895 7.813 7.813 0 0 1-14.07-.27 12.357 12.357 0 0 1-.948-5.18Z"/>
	<path class="cls-2" d="m554.193 211.833 4.262 11.016c-2.687 0-5.23-.004-7.773.003-.42.001-.653-.122-.48-.575 1.293-3.392 2.591-6.782 3.991-10.444Z"/>
	<path class="cls-2" d="M523.755 214.644v-.855c0-3.204 0-3.2 3.278-3.2a15.436 15.436 0 0 1 4.23.46 3.35 3.35 0 0 1 2.507 3.26 3.397 3.397 0 0 1-1.854 3.69c-2.464 1.19-5.121.755-7.715.792-.587.008-.433-.526-.439-.87-.018-1.092-.006-2.185-.007-3.277Z"/>
	<path d="M190.689 135.982q-32.205-18.58-64.415-37.152a15.66 15.66 0 0 0-3.244-1.732l.002 32.33a2.204 2.204 0 0 0 .444.483 2.207 2.207 0 0 1-.444-.483l-.103 6.64q-.018 19.194-.018 38.389c0 .496-.346 1.123.305 1.51 4.291-2.42 8.595-4.82 12.871-7.266 6.563-3.755 13.074-7.6 19.668-11.298 4.904-2.75 9.808-5.498 14.653-8.35.418-.216.846-.415 1.253-.65q6.808-3.928 13.61-7.865l6.787-3.745c-.636-.377-1-.598-1.37-.81Z" style="fill:url(#linear-gradient)"/>
	<path d="M126.03 102.152q27.491 15.844 54.971 31.705l4.971 2.868-2.15 1.186-.026.015-.026.015-2.818 1.63q-5.394 3.118-10.79 6.234c-.225.13-.46.244-.693.36l-.435.22-.075.04-.074.042c-4.761 2.804-9.676 5.56-14.428 8.225l-.169.095c-4.108 2.304-8.243 4.698-12.242 7.014q-3.72 2.154-7.449 4.296c-2.883 1.65-5.832 3.308-8.689 4.914q-.007-14.602.015-29.203l.006-5.694.01-.619.092-6.02-2.173-.034.01-.012h2.164v-21.554l-.001-5.723m-3-5.054.001 32.33a2.204 2.204 0 0 0 .444.483 2.207 2.207 0 0 1-.444-.483l-.103 6.64q-.018 19.194-.019 38.389c0 .496-.345 1.123.306 1.51 4.291-2.42 8.595-4.82 12.871-7.266 6.563-3.755 13.074-7.6 19.668-11.297 4.904-2.75 9.808-5.499 14.653-8.352.418-.215.846-.414 1.253-.649q6.808-3.928 13.61-7.865l6.787-3.745c-.636-.377-1-.598-1.37-.81q-32.204-18.581-64.414-37.153a15.66 15.66 0 0 0-3.244-1.732Z" style="fill:url(#linear-gradient-2)"/>
	<path d="M116.386 141.812v-1.506c-.23-.014-.34-.058-.406-.02q-8.154 4.667-16.302 9.347c-4.767 2.52-9.424 5.233-14.046 8.006-2.308 1.28-4.625 2.544-6.92 3.847-2.533 1.438-5.044 2.913-7.565 4.371-.418.216-.843.417-1.252.65q-11.218 6.364-22.433 12.735c1.803 1.377 3.895 2.27 5.808 3.468 2.159 1.35 4.374 2.61 6.547 3.94 2.24 1.368 4.654 2.474 6.913 3.838a8.187 8.187 0 0 1 .772.598c4.765 2.796 9.69 5.316 14.332 8.325l.114-.015.113.017c3.38-1.75 6.668-3.661 9.926-5.627l9.797-5.57c.46-.24.93-.462 1.379-.72q4.754-2.737 9.5-5.486c.796-.416 1.568-.89 2.394-1.235a2.197 2.197 0 0 0 1.405-2.428c-.067-12.178-.061-24.357-.076-36.535Zm-12.904 41.108a2.267 2.267 0 0 1 .024.489 2.268 2.268 0 0 0-.024-.49Z" style="fill:url(#linear-gradient-3)"/>
	<path d="m114.388 143.502.006 6.303c.008 9.358.016 19.034.068 28.553a2.383 2.383 0 0 1-.035.504 1.186 1.186 0 0 1-.14.067 18.85 18.85 0 0 0-1.857.933c-.23.127-.46.254-.693.376l-.038.02-.036.02-2.281 1.319q-3.607 2.085-7.217 4.165c-.275.159-.56.301-.844.445-.153.077-.307.155-.459.234l-.034.017-.033.019-9.797 5.57-.022.013-.022.014c-3.499 2.11-6.294 3.708-8.916 5.094-2.75-1.736-5.595-3.327-8.355-4.87-1.662-.93-3.379-1.89-5.042-2.863l-.096-.08a6.157 6.157 0 0 0-.781-.579c-1.153-.695-2.338-1.324-3.484-1.931-1.197-.635-2.328-1.234-3.42-1.902-.94-.574-1.886-1.136-2.833-1.697a182.311 182.311 0 0 1-3.696-2.232c-.787-.492-1.59-.93-2.365-1.353l-.608-.332 1.145-.65q9.189-5.218 18.38-10.433c.249-.142.506-.27.762-.399.14-.07.28-.14.42-.213l.042-.022.042-.024q1.146-.663 2.29-1.33c1.75-1.016 3.5-2.033 5.26-3.032 1.587-.902 3.185-1.783 4.783-2.665l2.12-1.173.03-.017.029-.017c3.774-2.264 8.77-5.213 13.952-7.953l.03-.016.03-.017 1.065-.611q6.324-3.63 12.65-7.255m1.661-3.231a.135.135 0 0 0-.069.014q-8.154 4.668-16.302 9.348c-4.767 2.52-9.424 5.233-14.046 8.006-2.308 1.28-4.625 2.544-6.92 3.847-2.533 1.438-5.044 2.913-7.565 4.371-.418.216-.843.417-1.252.65q-11.218 6.364-22.433 12.735c1.803 1.377 3.895 2.27 5.808 3.468 2.159 1.35 4.374 2.61 6.547 3.94 2.24 1.368 4.654 2.474 6.913 3.838a8.186 8.186 0 0 1 .772.598c4.765 2.796 9.69 5.316 14.332 8.325l.114-.015.113.017c3.38-1.75 6.668-3.661 9.926-5.627l9.797-5.57c.46-.24.93-.462 1.379-.72q4.754-2.737 9.5-5.486c.796-.416 1.568-.89 2.394-1.235a2.197 2.197 0 0 0 1.405-2.428c-.067-12.178-.061-24.357-.076-36.535v-1.506c-.164-.01-.267-.035-.337-.035Zm-12.543 43.138a2.268 2.268 0 0 0-.024-.49 2.269 2.269 0 0 1 .024.49Z" style="fill:url(#linear-gradient-4)"/>
	<path d="M123.03 97.098a3.436 3.436 0 0 0-.433-.346c-6.19-3.515-12.456-6.907-18.554-10.575-4.894-2.944-9.903-5.68-14.816-8.584-1.57-1.472-2.976-1.517-4.958-.309-9.783 5.961-19.692 11.717-29.556 17.546-.504.298-.998.613-1.6.984.906.525 1.644.955 2.385 1.38q10.568 6.07 21.137 12.136c.36.229.713.47 1.083.684q12.224 7.07 24.452 14.132 10.37 5.977 20.76 11.922l.102-6.64-.002-32.33Z" style="fill:url(#linear-gradient-5)"/>
	<path d="m81.948 199.396-.113.015a14.12 14.12 0 0 1-.001 0c-4.642-3.009-9.567-5.53-14.332-8.325a8.123 8.123 0 0 0-.772-.598c-2.26-1.364-4.674-2.47-6.913-3.839-2.173-1.328-4.388-2.589-6.547-3.94-1.913-1.196-4.005-2.09-5.808-3.467a2.562 2.562 0 0 1-1.264-.57q-4.492-2.54-8.975-5.093c-2.74-1.662-5.48-3.322-8.34-4.776l-16.013-9.376v1.192l-.005 77.07c0 .285-.01.572.017.855.032.346.306.274.532.271 3.902-2.257 7.797-4.525 11.706-6.77q12.59-7.23 25.19-14.44l2.901-1.535 14.267-8.09 4.82-2.864c3.242-1.923 6.63-3.595 9.763-5.703Zm-3.059-.16-.057-.007.057.008Z" style="fill:url(#linear-gradient-6)"/>
	<path d="m14.87 162.915 13.003 7.614.051.03.053.027c2.815 1.432 5.557 3.095 8.208 4.703l.025.015.025.015 2.105 1.195q3.435 1.952 6.874 3.899c.061.034.12.075.179.114a4.125 4.125 0 0 0 1.27.61 32.06 32.06 0 0 0 3.388 2.037c.758.412 1.473.802 2.158 1.231 1.253.784 2.536 1.545 3.777 2.28.932.553 1.864 1.106 2.788 1.67 1.196.732 2.435 1.389 3.633 2.024 1.148.609 2.232 1.183 3.29 1.822a3.455 3.455 0 0 1 .284.224c.095.08.19.159.288.235l.105.083.116.068c1.738 1.02 3.517 2.014 5.237 2.976 2.133 1.193 4.317 2.414 6.447 3.698-1.058.62-2.143 1.224-3.26 1.845-1.195.664-2.43 1.35-3.636 2.066l-3.404 2.022-1.383.822-14.24 8.075-.095.05-2.782 1.472-.03.016-.029.016-7.592 4.35q-8.8 5.044-17.599 10.092-4.035 2.318-8.058 4.657l-1.2.695.004-68.037v-4.71m-2-3.49v1.193l-.005 77.07c0 .285-.01.572.017.855.022.241.163.28.322.28.069 0 .142-.008.21-.009 3.902-2.257 7.797-4.525 11.706-6.77q12.59-7.23 25.19-14.44l2.901-1.535 14.267-8.09 4.82-2.864c3.242-1.923 6.63-3.595 9.763-5.703l-.113-.017-.113.015c-.179.008-.356.011-.53.011a16.278 16.278 0 0 1-.002 0c.176 0 .352-.003.53-.011-4.641-3.009-9.566-5.53-14.33-8.325a8.12 8.12 0 0 0-.773-.598c-2.26-1.364-4.674-2.47-6.913-3.839-2.173-1.328-4.388-2.589-6.547-3.94-1.913-1.197-4.005-2.09-5.808-3.467h-.01a2.593 2.593 0 0 1-1.254-.57q-4.492-2.54-8.975-5.093c-2.74-1.662-5.48-3.322-8.34-4.776l-16.013-9.377Zm66.02 39.81-.058-.007.057.008Z" style="fill:url(#linear-gradient-7)"/>
	<path d="M46.892 120.252c.113-4.858.13-9.715 0-14.573l.092-13.732c-.705-.172-1.148.368-1.659.657q-8.226 4.658-16.427 9.36l-6.69 3.952q-3.551 1.988-7.105 3.972c-.446.248-.918.448-1.379.67l.02-.021-.3.264-.3.257q-.213 5.168-.027 10.338a164.317 164.317 0 0 0-.052 11.99 3.102 3.102 0 0 0-.102.556c-.02 5.62-.007 11.239-.07 16.857-.01.922.504 1.211 1.137 1.578q15.862 9.197 31.716 18.406c.348.201.657.56 1.218.446v-1.414q.009-17.929.015-35.858c0-.473-.05-.946-.075-1.42.092-4.095.13-8.19-.012-12.285Z" style="fill:url(#linear-gradient-8)"/>
	<path d="M190.935 238.344q-18.022-4.467-36.047-8.925-18.866-4.667-37.734-9.33-13.549-3.338-27.108-6.639c-7.519-1.839-14.994-3.86-22.568-5.47l-14.267 8.09-2.901 1.535-25.19 14.44c-3.908 2.245-7.804 4.513-11.706 6.77a2.84 2.84 0 0 0 .421.062q19.952-.028 39.904-.062l36.6.008c6.002.013 12.003.036 18.005.037q41.87.006 83.74.002a3.192 3.192 0 0 0-1.149-.518ZM89.89 214.404a11.404 11.404 0 0 0-.101 1.424 11.404 11.404 0 0 1 .101-1.423Z" style="fill:url(#linear-gradient-9)"/>
	<path d="M80.584 71.071c-4.834-2.783-9.636-5.623-14.454-8.435q-10.215-5.963-20.438-11.914-7.387-4.29-14.798-8.54l-16.44-9.678c-1.456-.855-1.473-.839-1.474.886q-.012 14.497-.016 28.993c0 .519.069 1.038.105 1.557a1.01 1.01 0 0 1 .235.029 1.01 1.01 0 0 0-.235-.03 11.081 11.081 0 0 0-.11 1.125q-.009 22.383.002 44.767c0 .41-.149.86.184 1.227l.3-.257c.055-.133.07-.312.285-.265l15.168-8.571q8.21-4.687 16.427-9.361c.51-.29.954-.829 1.66-.657a.613.613 0 0 0 .408-.505q4.674-2.652 9.348-5.308 11.94-6.816 23.881-13.627c1.071-.607.918-.886-.038-1.436Z" style="fill:#0474c1;stroke-miterlimit:10;stroke-width:2px;stroke:url(#linear-gradient-10)"/>
	<path d="M221.6 79.4c.504.426 1.15.267 1.723.411 4.316 1.09 6.678 3.966 7.57 8.207a21.08 21.08 0 0 1 .352 4.29c.042 12.475.143 24.951.061 37.425q-.058 8.934-.045 17.867c.01 8.27.108 16.54.152 24.81a42.688 42.688 0 0 1-.523 6.808c-.78 4.999-4.585 8.15-9.721 8.425-6.191.331-10.328-4.54-10.841-9.775a4.745 4.745 0 0 0-.248-1.988v-48a29.032 29.032 0 0 0 .144-5.1 17.43 17.43 0 0 0-.144-4.26V92.36c.535-1.321.239-2.746.537-4.113.91-4.184 3.065-7.2 7.354-8.404.568-.16 1.218-.002 1.709-.443Z" style="fill:url(#linear-gradient-11)"/>
	<path d="m715.821 152.723-18.954.001c-1.76.001-1.953.196-1.818 1.943.484 6.29 2.56 11.867 7.547 16.005 5.82 4.827 14.762 5.373 22.017 1.51 3.718-1.982 6.732-4.85 9.818-7.633.683-.616 1.347-1.252 2.036-1.86a7.272 7.272 0 0 1 7.387-1.5c3.372 1.041 4.909 4.132 3.94 7.868a18.636 18.636 0 0 1-5.936 9.244 35.963 35.963 0 0 1-20.31 8.872 50.828 50.828 0 0 1-21.125-1.478c-12.09-3.68-19.834-11.696-23.406-23.74a50.033 50.033 0 0 1-1.521-19.818 40.967 40.967 0 0 1 6.418-18.717c5.298-7.916 12.884-12.33 22.085-14.168a46.233 46.233 0 0 1 14.774-.733c12.236 1.507 26.41 9.068 29.833 26.763a22.621 22.621 0 0 1 .008 9.981 8.128 8.128 0 0 1-6.038 6.328 31.034 31.034 0 0 1-8.04 1.15c-6.238.042-12.476.013-18.714.013Zm-3.63-10.91v-.03c2.039 0 4.078.01 6.117-.002 3.396-.02 6.795.004 10.189-.104 1.67-.054 1.879-.312 1.676-2.005-.47-3.914-1.384-7.716-3.68-11.017-3.504-5.04-8.488-7.028-14.482-6.847a15.308 15.308 0 0 0-12.876 6.888 24.328 24.328 0 0 0-3.84 10.583c-.353 2.532-.31 2.535 2.263 2.534q7.316-.002 14.633 0Z" style="fill:url(#linear-gradient-12)"/>
	<path d="M440.027 174.59c-2.327 2.25-4.365 4.604-6.823 6.552-6.566 5.205-14.055 6.969-22.28 6.095a26.2 26.2 0 0 1-11.443-3.588c-5.68-3.573-8.693-8.883-9.823-15.36a56.45 56.45 0 0 1-.744-9.908q.052-15.899.013-31.798c-.007-3.674-.251-7.373.544-10.986a8.851 8.851 0 0 1 9.192-7.201c5.45.244 9.106 3.855 9.37 8.744.254 4.673.123 9.347.151 14.022.051 8.634-.12 17.275.36 25.9a26.065 26.065 0 0 0 1.47 7.382c2.348 6.517 8.105 9.352 15.163 7.517 8.058-2.095 12.5-7.584 13.229-15.906.388-4.434.426-8.86.439-13.296q.034-11.638.073-23.275a15.01 15.01 0 0 1 .777-4.706c1.477-4.44 5.083-6.678 10.096-6.276a8.907 8.907 0 0 1 8.171 7.939 22.75 22.75 0 0 1 .262 3.461q.005 28.679.03 57.357a11.535 11.535 0 0 1-1.924 6.811 8.182 8.182 0 0 1-8.05 3.496 8.559 8.559 0 0 1-7.3-5.464 12.756 12.756 0 0 1-.95-5.03c-.012-.827-.003-1.654-.003-2.481Z" style="fill:url(#linear-gradient-13)"/>
	<path d="M301.73 159.235c0-5.798.062-11.597-.023-17.394a34.461 34.461 0 0 0-1.728-11.195c-1.565-4.39-4.727-6.677-9.362-7.159-11.928-1.24-18.65 8.548-19.175 17.124-.372 6.075-.027 12.153-.281 18.224-.217 5.196.29 10.385.073 15.579a32.309 32.309 0 0 1-.67 5.944c-1.087 4.703-4.676 7.391-9.632 7.239a9.182 9.182 0 0 1-8.81-7.876c-.686-4.485-.478-9.012-.46-13.526.04-9.794.034-19.588.173-29.38.072-5.079-.314-10.148-.151-15.224a38.505 38.505 0 0 1 .697-6.65c1.075-5.154 5.46-6.938 9.641-6.3 4.707.719 7.637 4.289 7.749 9.07.019.799.019 1.599.036 2.398.007.315-.058.72.285.855.435.172.61-.259.816-.531a29.27 29.27 0 0 1 8.35-7.654c9.634-5.693 19.572-5.9 29.519-1.044 6.928 3.382 10.372 9.441 11.677 16.86a72.687 72.687 0 0 1 .624 11.837c.088 7.795-.088 15.593-.025 23.389.038 4.836.202 9.674-.11 14.502-.238 3.704-1.79 6.748-5.258 8.415a9.437 9.437 0 0 1-9.985-1.004c-3.011-2.1-3.751-5.35-3.902-8.754-.26-5.913.015-11.83-.068-17.745Z" style="fill:url(#linear-gradient-14)"/>
	<path d="M517.745 99.83c.127-2.837-.034-6.072.313-9.303a9.173 9.173 0 0 1 9.224-8.46 9.271 9.271 0 0 1 9.39 8.438 83.18 83.18 0 0 1 .387 11.363c-.074 2.39.131 4.79.017 7.187-.041.878.465 1.136 1.298 1.144a67.211 67.211 0 0 1 8.265.183 6.753 6.753 0 0 1 5.859 8.606 5.515 5.515 0 0 1-3.88 4.052 27.406 27.406 0 0 1-9.59 1.09c-1.557-.062-1.94.223-1.937 1.798q.022 13.309.067 26.617c.01 3.837-.018 7.675.042 11.512a21.926 21.926 0 0 0 .417 3.806c.576 2.972 2.365 4.471 5.389 4.66a29.214 29.214 0 0 0 6.525-.794 18.896 18.896 0 0 1 2.488-.336c2.71-.074 4.994.792 6.274 3.345a6.752 6.752 0 0 1-.687 7.455 11.002 11.002 0 0 1-6.3 3.919 42.787 42.787 0 0 1-20.528.62c-7.032-1.557-11.145-6.236-12.293-13.334a91.532 91.532 0 0 1-.831-13.141q-.172-10.195.015-20.394c.084-4.593-.162-9.187.088-13.78.092-1.676-.337-2.024-2.017-1.993a13.9 13.9 0 0 1-3.689-.308c-3.706-.934-5.66-3.46-5.515-7.18.118-3.028 2.642-5.6 6.053-6.16a17.233 17.233 0 0 1 3.22-.248c1.617.04 1.971-.31 1.985-1.933.011-1.359-.037-2.718-.047-4.077-.009-1.32-.002-2.64-.002-4.354Z" style="fill:url(#linear-gradient-15)"/>
	<path d="m342.378 145.796.001-19.679c0-1.803-.44-2.156-2.216-2.027a8.996 8.996 0 0 1-6.54-1.775 6.57 6.57 0 0 1 .963-10.903 11.913 11.913 0 0 1 6.034-1.215c1.621.016 1.763-.14 1.767-1.788.011-4.36-.073-8.722.064-13.078a25.46 25.46 0 0 1 .614-6.416 9.017 9.017 0 0 1 9.722-6.818 9.266 9.266 0 0 1 8.475 7.808 50.76 50.76 0 0 1 .455 8.724c.005 3.2-.023 6.399.005 9.598.016 1.862.142 1.927 1.985 1.963a67.736 67.736 0 0 1 7.43.172c4.375.566 6.98 4.054 6.143 8.344a5.558 5.558 0 0 1-3.92 4.306 25.752 25.752 0 0 1-8.624 1.15c-2.807.022-2.966.168-2.967 2.992-.005 10.038-.04 20.077-.003 30.116a81.372 81.372 0 0 0 .307 9.343c.554 4.655 3.005 6.39 7.952 5.816 1.901-.221 3.777-.655 5.67-.951 3.454-.54 6.23.826 7.466 3.638a7.07 7.07 0 0 1-2.133 8.42 17.911 17.911 0 0 1-8.937 3.465 46.376 46.376 0 0 1-16.341-.155c-7.237-1.474-11.693-6.612-12.703-14.214-.816-6.134-.688-12.283-.695-18.437q-.005-4.2 0-8.4Z" style="fill:url(#linear-gradient-16)"/>
	<path d="M632.375 164.33a4.774 4.774 0 0 0 .84-1.787q8.421-22.734 16.821-45.475a26.815 26.815 0 0 1 2.131-4.548 8.56 8.56 0 0 1 15.661 6.325 45.822 45.822 0 0 1-2.3 6.8c-3.356 8.285-6.667 16.589-10.087 24.847-3.681 8.886-7.17 17.849-10.75 26.775a22.15 22.15 0 0 1-4.262 7.164c-4.752 5.042-14.646 4.331-18.233-2.87-2.174-4.366-4.011-8.874-5.788-13.409-3.45-8.806-7.19-17.497-10.609-26.312-2.824-7.284-5.98-14.433-8.486-21.857-2.077-6.154 3.456-12.499 10.532-11.373a7.1 7.1 0 0 1 5.657 4.243 145.016 145.016 0 0 1 5.325 13.969q5.693 15.756 11.293 31.547c.704 1.975 1.33 3.979 2.255 5.962Z" style="fill:url(#linear-gradient-17)"/>
	<path d="M495.744 143.001c0 8.078-.063 16.157.027 24.235a93.446 93.446 0 0 1-.321 11.732 9.383 9.383 0 0 1-9.703 8.683 9.282 9.282 0 0 1-9.265-9.01c-.33-4.513-.174-9.03-.151-13.546q.078-15.838.094-31.677c.003-2.197-.116-4.395-.092-6.592.036-3.236.104-6.473.24-9.706a9.198 9.198 0 0 1 10.715-8.526c5.03.752 8.305 4.543 8.329 9.932.036 8.158.01 16.316.01 24.475Z" style="fill:url(#linear-gradient-18)"/>
	<path d="M564.759 148.956c0-6.037.118-12.078-.038-18.111a119.479 119.479 0 0 1 .425-14c.588-6.422 5.724-8.943 10.647-8.206 5.292.792 7.985 4.211 8.208 9.566.29 6.956.239 13.91.112 20.864-.152 8.357-.054 16.713-.031 25.07.013 4.834.299 9.675-.112 14.5-.35 4.102-2.444 7.117-6.406 8.453a9.15 9.15 0 0 1-10.198-2.52c-1.92-2.037-2.327-4.659-2.544-7.322-.502-6.152.14-12.303.014-18.456-.067-3.278-.012-6.558-.012-9.838Z" style="fill:url(#linear-gradient-19)"/>
	<path d="M495.74 89.79c.031 5.596-3.926 9.524-9.604 9.533-5.773.009-9.744-3.771-9.814-9.342a9.61 9.61 0 0 1 9.852-9.582c5.652-.032 9.535 3.78 9.566 9.39Z" style="fill:url(#linear-gradient-20)"/>
	<path d="M574.68 80.4c5.601-.022 9.457 3.768 9.484 9.322.028 5.679-3.824 9.567-9.509 9.6-5.745.035-9.682-3.76-9.85-9.155a9.65 9.65 0 0 1 9.875-9.768Z" style="fill:url(#linear-gradient-21)"/>
</svg>
