<svg xmlns="http://www.w3.org/2000/svg" width="200" height="128">
	<path d="M37.67 83.56c-1.13-.07-2.26-.09-3.38-.23a25 25 0 0 1-4.58-1 35.42 35.42 0 0 1-4.11-1.63c-.46-.22-.47-.28-.33-.77.2-.69.37-1.39.55-2.08.23-.88.47-1.75.7-2.63.18-.66.35-1.32.52-2 .24-.92.49-1.83.74-2.75l.51-2c.06-.21.12-.42.16-.64a.37.37 0 0 0-.22-.41c-.65-.39-1.3-.77-1.93-1.2a14.88 14.88 0 0 1-3.07-2.7 14.7 14.7 0 0 1-1.84-2.71 12.46 12.46 0 0 1-1-2.79 14.28 14.28 0 0 1-.31-4.42c.05-.61.1-1.22.19-1.82a10.24 10.24 0 0 1 .34-1.43c.33-1.05.66-2.1 1.05-3.13.26-.66.61-1.28.92-1.92.09-.2.21-.2.33 0 1.28 1.93 2.55 3.88 3.84 5.81 1 1.44 1.92 2.87 2.88 4.3l2 3 2.59 3.95a.75.75 0 0 0 .69.33h5.56a.66.66 0 0 0 .64-.37c.88-1.42 1.78-2.84 2.66-4.25 1-1.63 2-3.25 3-4.86.72-1.21 1.47-2.34 2.23-3.51q1.34-2.1 2.65-4.2c.26-.41.26-.42.49 0a17.73 17.73 0 0 1 1.37 3.35c.17.6.35 1.19.49 1.79a13.83 13.83 0 0 1 .45 3.14c0 1 0 2-.07 2.95a10.72 10.72 0 0 1-.47 2.18 19.08 19.08 0 0 1-.91 2.24A11.31 11.31 0 0 1 51 64a18.29 18.29 0 0 1-4.39 3.44.4.4 0 0 0-.21.52c.26 1 .51 2 .76 2.94.13.51.27 1 .4 1.52.17.7.33 1.4.51 2.1l.73 2.83c.22.87.44 1.74.65 2.61.11.49.08.55-.36.75-.88.41-1.75.84-2.66 1.17-1.07.38-2.17.7-3.27 1a22 22 0 0 1-5.49.68z" fill="#02b2eb"/>
	<path class="cls-2" d="M80.8 44.66c0-.57 0-.57-.55-.57h-3.71a.41.41 0 0 0-.41.22Q74.68 46.68 73.2 49c-.57.92-1.14 1.84-1.72 2.76a1.12 1.12 0 0 1-.18.23c-.07-.11-.13-.18-.18-.27-.29-.46-.58-.94-.87-1.41l-3.81-6.05a.45.45 0 0 0-.33-.19h-4c-.24 0-.33.09-.33.33v18.35c0 .21.08.3.3.3h3.58c.22 0 .3-.1.29-.32s0-.55 0-.82V50.93l.19.25c.5.75 1 1.51 1.48 2.26q1.71 2.58 3.41 5.17c.14.21.23.21.37 0l1.76-2.68L75.77 52l.77-1.15a1.1 1.1 0 0 1 0 .18v11.65c0 .21.07.3.29.3h3.64c.18 0 .27-.08.27-.25v-.54zm41.84 16.16c.13-.15.06-.24-.07-.35-.65-.56-1.3-1.13-1.94-1.71-.19-.17-.31-.16-.49 0a4.57 4.57 0 0 1-4.88.94 3.06 3.06 0 0 1-1.84-2.22c0-.17 0-.23.21-.23h9.51c.19 0 .33 0 .34-.27a11 11 0 0 0-.19-3.08 8.54 8.54 0 0 0-.88-2.31 6.17 6.17 0 0 0-4.17-3.14 7.59 7.59 0 0 0-4 .13 6.83 6.83 0 0 0-3.56 2.59 7.53 7.53 0 0 0-1.33 3.33 8.3 8.3 0 0 0 .33 4 6.85 6.85 0 0 0 3 3.74 7.49 7.49 0 0 0 3.54 1.09 8.25 8.25 0 0 0 3.86-.62 7.41 7.41 0 0 0 2.56-1.89zm-9.28-6.48c.16-.39.26-.81.45-1.19a2.94 2.94 0 0 1 5.47.82c0 .13.06.26.1.39s0 .26-.2.26h-5.63c-.23 0-.29-.06-.19-.28zm-19.49 6.82v1.51c0 .44 0 .39.39.39h3.47c.32 0 .35 0 .35-.35V48.86c0-.28-.06-.34-.35-.34h-3.39c-.4 0-.4 0-.4.39v7.66a5.48 5.48 0 0 1-.18 1.34 2.08 2.08 0 0 1-1.5 1.52 2.85 2.85 0 0 1-1.61 0 2 2 0 0 1-1.34-1.08 4 4 0 0 1-.31-1.9v-7.64c0-.21-.07-.31-.29-.31h-3.56c-.23 0-.33.06-.33.31v8.2A10.55 10.55 0 0 0 85 59.6a5.39 5.39 0 0 0 .86 1.94 4.26 4.26 0 0 0 2.7 1.67A4.8 4.8 0 0 0 93.05 62c.29-.26.54-.55.82-.84zm21.48 9.67h-2.62c-.45 0-.45 0-.45.46v.94h-.08l-.15-.14a4.49 4.49 0 0 0-1.64-1.09 5.24 5.24 0 0 0-4.5.4 4.9 4.9 0 0 0-2.36 3.44 6.31 6.31 0 0 0 .11 3 5 5 0 0 0 4.08 3.65 4.38 4.38 0 0 0 3.58-.83c.33-.25.62-.55 1-.86v1a2.45 2.45 0 0 1-1.83 2.36 4.63 4.63 0 0 1-2.06.16 14.08 14.08 0 0 1-1.69-.35 14.13 14.13 0 0 1-1.39-.59c-.12-.06-.2-.07-.27.09-.3.69-.62 1.37-1 2.05-.09.2-.06.27.12.37a9.22 9.22 0 0 0 3.09 1 10.79 10.79 0 0 0 4.76-.24 4.6 4.6 0 0 0 2.75-2.11 6.1 6.1 0 0 0 .78-3.07v-9.3c0-.1-.07-.34-.23-.34zm-4.85 7.73a5 5 0 0 1-.85.17 2.72 2.72 0 0 1-2.61-1.4 2.68 2.68 0 0 1 1.07-3.6 3 3 0 0 1 1.76-.31 2.51 2.51 0 0 1 2.18 1.45 2.6 2.6 0 0 1-1.55 3.69zm53.98-6.82a6 6 0 0 0-3.16-1.08 6.58 6.58 0 0 0-3.91.88 6 6 0 0 0-2.94 5.13 5.37 5.37 0 0 0 .41 2.14 6 6 0 0 0 4.69 3.77 6.39 6.39 0 0 0 3.43-.28 5.89 5.89 0 0 0 3.24-2.64 6 6 0 0 0-1.74-7.92zm-2.39 7.78a6.88 6.88 0 0 1-1.3.33v-.07a3 3 0 0 1-2.88-2.29 3.58 3.58 0 0 1 .36-2.65 3 3 0 0 1 3.25-1.26 2.91 2.91 0 0 1 1.82 1.42 3.25 3.25 0 0 1-1.25 4.52zm-25.15-3.26a8.12 8.12 0 0 0-.18-2.25 4.2 4.2 0 0 0-1.32-2.21 5.29 5.29 0 0 0-3.36-1.09 8.71 8.71 0 0 0-2.78.27c-.61.18-1.22.38-1.82.58a.21.21 0 0 0-.17.3l.67 2c.08.24.21.26.43.18a7.28 7.28 0 0 1 3.61-.47 1.85 1.85 0 0 1 1.73 1.87c0 .27 0 .3-.31.22a5.69 5.69 0 0 0-.9-.24 8.2 8.2 0 0 0-3.75.16 4.06 4.06 0 0 0-1.53.89 3.2 3.2 0 0 0-1 2.14 3.41 3.41 0 0 0 1 2.86 3.79 3.79 0 0 0 2.28 1.06 4.91 4.91 0 0 0 3-.46 14 14 0 0 0 1.19-.81v.8c0 .26.06.33.3.33h2.69c.21 0 .27-.09.25-.28s0-.38 0-.56c-.04-1.73.03-3.55-.03-5.29zM132.73 80a2.93 2.93 0 0 1-2.55.09 1.38 1.38 0 0 1-.23-2.23 3.46 3.46 0 0 1 2.06-.54c.39.09 1 .21 1.55.37a.4.4 0 0 1 .22.28 1.87 1.87 0 0 1-1.05 2.03zm-33.87-8.6a5.76 5.76 0 0 0-4.28-.6 5.23 5.23 0 0 0-3.35 2.32 6.56 6.56 0 0 0 .07 7.21 5.72 5.72 0 0 0 3.25 2.16 6.67 6.67 0 0 0 3.68-.08 5.59 5.59 0 0 0 2.54-1.65c.2-.22.2-.27 0-.47-.48-.42-1-.82-1.43-1.26-.18-.17-.28-.19-.48 0a3.39 3.39 0 0 1-2.06 1 3.44 3.44 0 0 1-1.9-.26 2.63 2.63 0 0 1-1.31-1.59c-.09-.27-.07-.31.21-.31h7.43c.19 0 .32 0 .34-.27a7.82 7.82 0 0 0-.66-3.85 5.11 5.11 0 0 0-2.05-2.35zM98 75.7h-4.22c-.24 0-.33-.09-.27-.32a2.41 2.41 0 0 1 3.39-1.88 2.09 2.09 0 0 1 1.16 1.27 5 5 0 0 1 .19.63c.05.21-.04.31-.25.3zm82-.84a4.86 4.86 0 0 0-.49-2.25c-.93-1.81-2.64-2.16-4.39-1.86a3.79 3.79 0 0 0-2.12 1.32l-.3.27V71.2c0-.35 0-.39-.37-.39h-2.54c-.45 0-.45 0-.44.47a1.93 1.93 0 0 1 0 .24v10.64c0 .34.06.29.26.29h2.78c.18 0 .34 0 .34-.27v-6.7a1.83 1.83 0 0 1 1.69-1.82 1.79 1.79 0 0 1 2 1.15 5.78 5.78 0 0 1 .21 1.3v6c0 .22.08.33.31.33h2.7c.23 0 .33-.08.33-.33.03-2.41.03-4.83.03-7.25zM78.93 72.91a3.19 3.19 0 0 0-1.54-1.81 4.24 4.24 0 0 0-2-.45 3.58 3.58 0 0 0-2.36.78c-.33.27-.62.58-1 .92v-1.18c0-.37-.1-.36-.36-.36h-2.36c-.62 0-.62 0-.62.6V82c0 .3 0 .38.35.38h2.62c.34 0 .36 0 .36-.36v-6.46a1.9 1.9 0 0 1 1.48-1.86 2 2 0 0 1 2.11.76 3.63 3.63 0 0 1 .36 1.4C76 78 76 80 76 82.13c0 .23.07.32.3.32H79c.22 0 .32-.06.32-.31v-7.47a6.25 6.25 0 0 0-.39-1.76zm27.15-10.31a1.93 1.93 0 0 1 0-.24V43.59c0-.29-.06-.34-.37-.34h-3.39c-.35 0-.39 0-.39.37v19.09c0 .14 0 .35.32.35h3.37c.47 0 .47.01.46-.46zm39.74 8.21h-2.11c-.15 0-.27 0-.27-.22v-2.4c0-.2-.07-.29-.29-.29h-2.75c-.22 0-.29.08-.29.3v2.35c0 .2-.06.27-.26.26s-.57 0-.85 0-.26.09-.26.28v2.3c0 .21.08.29.28.29h.78c.26 0 .32.07.32.31v4.51a16.65 16.65 0 0 0 .15 1.86 2.47 2.47 0 0 0 1.48 2 4.09 4.09 0 0 0 1.69.31A4.39 4.39 0 0 0 146 82a.35.35 0 0 0 .17-.26v-2.19c0-.22-.1-.28-.29-.18a2.78 2.78 0 0 1-1.42.3.85.85 0 0 1-1-.9v-4.75c0-.32 0-.34.31-.34h2.11c.16 0 .31 0 .31-.23v-2.3c-.02-.32-.04-.34-.37-.34zm-59.56 2.86h2.14c.21 0 .31-.07.3-.29v-2.21c0-.33 0-.36-.37-.36h-2.11c-.2 0-.28 0-.28-.27v-2.38c0-.18 0-.27-.26-.27h-2.79c-.19 0-.27 0-.26.26v2.4c0 .2-.07.26-.27.25s-.55 0-.82 0-.29.08-.29.28v2.32c0 .18.06.27.25.27h.74c.37 0 .39 0 .39.38v3.36a16.52 16.52 0 0 0 .15 3.06 2.59 2.59 0 0 0 1.91 2 11.25 11.25 0 0 0 1.74.15 4 4 0 0 0 2-.58.43.43 0 0 0 .19-.31v-2.18c0-.21-.1-.26-.28-.17a2.71 2.71 0 0 1-1.68.29.74.74 0 0 1-.66-.57 1.89 1.89 0 0 1-.08-.53C86 77 86 75.51 86 74c0-.25 0-.33.26-.33zm39.01-3.05a7.38 7.38 0 0 0-1 .15 3.48 3.48 0 0 0-2.22 1.9l-.14.27h-.06v-1.77c0-.26-.08-.35-.34-.34h-2.57c-.41 0-.41 0-.41.42v10.89c0 .24.09.33.33.33h2.64c.34 0 .36 0 .36-.37v-4.14a5 5 0 0 1 .48-2.17 2.78 2.78 0 0 1 1.48-1.38 3.65 3.65 0 0 1 1.46-.28c.15 0 .26 0 .26-.21v-3c-.06-.2-.09-.32-.27-.3zm-59.98-2.98c0-.32 0-.35-.35-.35h-2.59c-.42 0-.42 0-.42.4v14.38c0 .34 0 .37.36.37h2.4c.72 0 .6 0 .6-.6zM152 71.13c0-.22-.06-.33-.3-.33H149c-.32 0-.36 0-.36.35v10.9c0 .33 0 .39.39.39h2.64c.26 0 .33-.09.33-.34V71.13zM130.38 54a5 5 0 1 0-5-5 5.05 5.05 0 0 0 5 5zm0-9.48a4.44 4.44 0 1 1-4.38 4.41 4.38 4.38 0 0 1 4.4-4.43zm21.47 22.14h-2.96c-.24 0-.28.08-.28.29v2.38c0 .23.08.3.31.3h2.88c.25 0 .33-.1.33-.33v-2.37c0-.18-.08-.28-.28-.27z" fill="#052e5b"/>
	<path class="cls-2" d="M128.63 51.47h.74c.17 0 .25-.07.24-.25s0-.56 0-.85c0-.58 0-.57.58-.62a.46.46 0 0 1 .46.24c.26.43.53.86.83 1.27a.62.62 0 0 0 .39.2 5.75 5.75 0 0 0 .83 0 1.13 1.13 0 0 0 .24-.08.79.79 0 0 0-.09-.23c-.32-.47-.64-.94-1-1.4-.1-.14-.08-.23.08-.32a1.8 1.8 0 0 0 .92-1.93 1.72 1.72 0 0 0-1.64-1.37h-2.51c-.34 0-.37 0-.37.35v4.72c.02.17.08.28.3.27zm1.2-4.27h.54a5.61 5.61 0 0 1 .58 0 .72.72 0 0 1 .66.66.67.67 0 0 1-.58.79 8.65 8.65 0 0 1-1.25.06c-.07 0-.18-.14-.19-.23v-1.06c-.01-.16.08-.23.24-.22z" fill="#052e5b"/>
</svg>
