<svg xmlns="http://www.w3.org/2000/svg" viewBox="4.68 -10.82 952.64 409.14">
	<defs>
		<style>
			.cls-1{fill:#010101}
		</style>
	</defs>
	<path d="M257.702 380.088c-33.566-.567-66.169-11.894-93.34-37.033-20.704-19.154-33.73-42.832-39.532-70.37-6.288-29.846-4.84-59.34 6.708-87.715 17.58-43.192 49.922-69.82 94.896-80.766 32.814-7.988 65.144-5.177 95.88 9.088 40.779 18.926 66.217 50.761 75.618 94.705 7.027 32.848 4.082 65.066-10.788 95.471-18.637 38.108-49.392 61.584-90.199 72.22-11.83 3.085-23.914 4.33-39.243 4.4zm3.79-52.528c.612-.034 1.809-.103 3.006-.165 24.356-1.267 44.835-10.836 60.413-29.612 18.762-22.614 23.923-48.913 18.338-77.33-8.686-44.19-49.19-73.06-93.706-66.897-26.747 3.704-47.134 17.516-60.54 40.886-12.497 21.783-14.543 45.227-8.725 69.416 9.02 37.505 42.213 63.638 81.215 63.702z" class="cls-1"/>
	<path d="M433.747 292.659c0-22.276-.06-44.55.014-66.826.117-35.478 12.467-65.998 37.811-90.906a120.573 120.573 0 0 1 70.038-34.296 124.717 124.717 0 0 1 138.048 93.066 115.661 115.661 0 0 1 3.681 28.97q-.03 73.676-.01 147.352c0 3.222.001 3.222-3.339 3.222-16.908 0-33.816-.035-50.724.05-1.942.01-2.322-.558-2.32-2.385q.074-73.915.04-147.831c0-31.742-24.562-60.785-55.923-66.123-37.391-6.366-71.75 16.924-79.55 53.94a73.954 73.954 0 0 0-1.327 15.276q-.023 72.114.043 144.227c.003 2.257-.45 2.926-2.836 2.91q-25.601-.178-51.204-.016c-2.006.01-2.493-.529-2.487-2.508q.103-39.06.045-78.123zm380.381-.47c0-23.635-.339-47.276.086-70.904.532-29.628 10.723-55.843 30.043-78.299 20.077-23.336 45.546-37.281 75.928-42.195a115.724 115.724 0 0 1 16.982-1.346c1.488-.02 1.873.427 1.869 1.9q-.077 26.32.005 52.642c.006 1.664-.572 1.924-2.064 1.947-31.665.476-59.775 24.489-65.305 55.663a84.712 84.712 0 0 0-1.264 14.797q-.033 71.991.056 143.982c.005 2.546-.745 2.932-3.045 2.919q-25.48-.148-50.962-.001c-2.042.011-2.46-.54-2.454-2.503q.106-39.3.047-78.601z"/>
	<path d="M86.39 240.114q0 65.141.054 130.283c.003 2.263-.451 2.924-2.834 2.907q-25.36-.177-50.723-.015c-2.005.01-2.492-.519-2.49-2.51q.078-130.764.003-261.528c0-1.864.441-2.374 2.345-2.365q25.602.12 51.204-.002c1.98-.01 2.494.442 2.491 2.465q-.098 65.382-.05 130.765z" class="cls-1"/>
	<path d="M720.758 239.881q0-65.143-.05-130.286c-.003-2.145.478-2.731 2.685-2.718q25.602.154 51.205.013c1.776-.008 2.23.388 2.228 2.207q-.077 130.888-.007 261.776c0 1.83-.393 2.426-2.35 2.416q-25.722-.125-51.446.003c-1.974.01-2.304-.609-2.302-2.403q.072-65.504.037-131.008z"/>
	<path fill="#5c3ed3" d="M23.399 42.452A34.932 34.932 0 0 1 58.117 7.47c19.575-.004 35.311 15.314 35.302 34.893a35.01 35.01 0 1 1-70.02.09z"/>
	<path fill="#01dadc" d="M783.754 42.408A35.006 35.006 0 1 1 749 7.472a35.023 35.023 0 0 1 34.755 34.936z"/>
</svg>
