<svg xmlns="http://www.w3.org/2000/svg" viewBox="95.91 154.41 550.68 350.18" style="enable-background:new 70 45 580 555">
	<style>
		.st5{fill:#0037fc}.st6{fill:#0059fc}.st9{fill:#0079fc}.st10{fill:#0000d8}
	</style>
	<path fill="#474747" d="m358.341 281.752 20.134 34.873h-40.268z"/>
	<path fill="#999" d="m378.475 246.878 20.135 34.874h-40.269zm-40.268 0 20.134 34.874h-40.269z"/>
	<path fill="#757575" d="M358.341 281.752h40.269l-20.135 34.873zm-40.269 0h40.269l-20.134 34.873z"/>
	<path fill="#c9c9c9" d="M338.207 246.878h40.268l-20.134 34.874z"/>
	<path fill="#0028fc" d="m358.341 165.137 33.664 58.307h-67.328z"/>
	<path d="m291.014 281.752 33.663 58.307H257.35z" class="st5"/>
	<path d="m392.005 340.059 33.663 58.307h-67.327z" class="st6"/>
	<path fill="#39a2fc" d="m425.668 165.137 33.664 58.307h-67.327z"/>
	<path fill="#9edbfc" d="m459.332 223.444 33.664 58.308h-67.328z"/>
	<path d="m257.35 223.444 33.664 58.308h-67.328z" class="st5"/>
	<path d="M324.677 340.059h67.328l-33.664 58.307-33.664-58.307zm67.328 0h67.327l-33.663 58.307-33.664-58.307z" class="st9"/>
	<path d="M223.686 281.752h67.328l-33.664 58.307-33.664-58.307z" class="st10"/>
	<path d="M358.341 165.137h67.328l-33.664 58.307-33.664-58.307z" class="st9"/>
	<path fill="#4dbbfc" d="M392.005 223.444h67.327l-33.663 58.308-33.664-58.308z"/>
	<path d="m392.005 340.059 33.663-58.307h67.328l-33.664 58.307z" class="st6"/>
	<path d="m358.341 398.366-33.664-58.307H257.35l33.664 58.307z" class="st10"/>
	<path d="M358.341 165.137h-67.327l-33.664 58.307 33.664 58.308z" class="st9"/>
	<path d="M141.68 490.31a40.416 40.416 0 0 1-1.669-.77l2.717-6.098s1 .433 1.473.642c4.834 2.155 10.01 3.231 15.526 3.231 9.193 0 13.792-3.02 13.792-9.063 0-1.576-.591-2.889-1.774-3.94-1.182-1.05-2.64-1.878-4.374-2.483-1.734-.603-4.203-1.326-7.408-2.167-4.255-1.104-7.698-2.168-10.324-3.192a17.993 17.993 0 0 1-6.778-4.61c-1.891-2.05-2.837-4.78-2.837-8.196 0-2.995.789-5.714 2.365-8.157 1.576-2.443 3.9-4.386 6.974-5.832 3.074-1.445 6.764-2.168 11.073-2.168 5.78 0 11.006.867 15.683 2.601 1.47.526 1.593.56 1.593.56l-2.46 5.978s-.785-.203-1.34-.39a38.525 38.525 0 0 0-12.688-2.128c-4.15 0-7.526.788-10.127 2.364-2.6 1.576-3.901 3.783-3.901 6.62 0 1.891.617 3.428 1.852 4.61 1.234 1.182 2.784 2.102 4.65 2.759 1.864.657 4.4 1.353 7.605 2.088 4.15.999 7.5 1.997 10.048 2.995s4.729 2.549 6.542 4.65c1.812 2.101 2.719 4.939 2.719 8.51 0 2.944-.841 5.584-2.522 7.921-1.682 2.339-4.047 4.165-7.093 5.477-3.048 1.313-6.569 1.97-10.561 1.97-6.673 0-12.924-1.26-18.756-3.782zm70.585.158c-4.152-2.417-7.357-5.753-9.615-10.01-2.26-4.255-3.442-9.141-3.546-14.658.104-5.517 1.287-10.403 3.546-14.659 2.258-4.255 5.463-7.59 9.615-10.008 4.15-2.416 8.984-3.626 14.501-3.626 5.516 0 10.336 1.21 14.461 3.626 4.124 2.417 7.33 5.767 9.616 10.048 2.285 4.283 3.48 9.155 3.585 14.62-.106 5.464-1.3 10.337-3.585 14.618-2.286 4.283-5.492 7.632-9.616 10.049s-8.945 3.625-14.461 3.625c-5.517 0-10.351-1.208-14.501-3.625zm25.455-5.911c3.1-1.892 5.464-4.465 7.093-7.723 1.628-3.258 2.444-6.936 2.444-11.034 0-4.098-.816-7.775-2.444-11.033-1.63-3.257-3.993-5.832-7.093-7.724-3.1-1.891-6.751-2.837-10.954-2.837-4.256 0-7.92.946-10.994 2.837-3.074 1.892-5.425 4.467-7.054 7.724-1.628 3.258-2.443 6.935-2.443 11.033s.814 7.776 2.443 11.034c1.629 3.258 3.98 5.832 7.054 7.723 3.074 1.891 6.738 2.837 10.994 2.837 4.203 0 7.854-.946 10.954-2.837zm30.285-46.656h7.685l19.579 48.626 19.517-48.626h7.765L299.446 493.7h-8.383l-23.058-55.798zm90.572 9.142-19.51 46.656h-7.701l23.66-55.798h7.166l23.672 55.798h-7.73l-19.557-46.656zm47.52 46.262V437.9h7.104l.067 48.232 29.397.026v7.146h-36.568zm56.268 0v-55.01h38.538v6.692l-31.366.007v17.417l28.53.002v6.71l-28.53-.013v17.496l31.366.012v6.687h-38.538zm62.138.394V437.9h5.122l35.702 42.367.011-42.367h7.16V493.7h-5.201l-35.628-42.151-.059 42.15h-7.107zm85.245 0-.004-48.705h-19.387v-6.698h45.946v6.698h-19.387l-.019 48.705h-7.148zM106.552 437.9h7.172v55.797h-7.172z"/>
	<path d="m361.619 472.639 2.789 4.83-2.789 4.83h-5.578l-2.788-4.83 2.789-4.831z" class="st10"/>
</svg>
