<svg xmlns="http://www.w3.org/2000/svg" width="200" height="128">
	<path d="M20 91.204h48.363l-30.227 9.068L20 91.204zm0-3.023 18.136-3.022v-33.25L20 88.181zm21.159-3.022 27.204 3.022-27.204-60.453v57.431zm64.552.302h-12.15V82.32h4.029V57.835h-4.029v-3.141h12.15v3.141h-4.029V82.32h4.029zm22.55-6.653a6.283 6.283 0 0 1-2.614 5.186 11.378 11.378 0 0 1-7.139 2.025 17.126 17.126 0 0 1-4.7-.61 20.912 20.912 0 0 1-3.585-1.332v-4.36h.207a15.568 15.568 0 0 0 4.091 2.2 12.639 12.639 0 0 0 4.319.816 8.124 8.124 0 0 0 4.008-.826 2.785 2.785 0 0 0 1.446-2.6 2.628 2.628 0 0 0-.785-2.066 7.073 7.073 0 0 0-3.016-1.2q-.828-.186-2.16-.434t-2.428-.537a8.073 8.073 0 0 1-4.305-2.37 5.874 5.874 0 0 1-1.271-3.833 6.274 6.274 0 0 1 .589-2.686 6.5 6.5 0 0 1 1.782-2.251 8.559 8.559 0 0 1 2.944-1.539 13.151 13.151 0 0 1 4-.568 17.989 17.989 0 0 1 4.185.506 15.84 15.84 0 0 1 3.523 1.229v4.154h-.207a13.906 13.906 0 0 0-3.616-1.85 12.467 12.467 0 0 0-4.174-.754 7.3 7.3 0 0 0-3.595.816 2.866 2.866 0 0 0-.579 4.577 6.941 6.941 0 0 0 2.81 1.178q1.074.247 2.408.5t2.221.454a8.237 8.237 0 0 1 4.174 2.129 5.6 5.6 0 0 1 1.467 4.046zm16.95 6.446a21.16 21.16 0 0 1-2.387.476 16.348 16.348 0 0 1-2.3.186 7.14 7.14 0 0 1-5.373-1.9q-1.839-1.9-1.839-6.1V65.645h-2.624v-3.264h2.624v-6.633h3.885v6.633h8.017v3.264h-8.017v10.518q0 1.818.083 2.841a4.617 4.617 0 0 0 .578 1.911 2.789 2.789 0 0 0 1.25 1.209 5.868 5.868 0 0 0 2.428.382 7.612 7.612 0 0 0 1.984-.279 14.028 14.028 0 0 0 1.48-.465h.207zm8.272-26.737H149.1v-4.03h4.381zm-.248 26.944h-3.885v-23.08h3.885zM180 73.931q0 5.641-2.893 8.906a10.866 10.866 0 0 1-15.528 0q-2.882-3.266-2.882-8.906t2.882-8.916a10.84 10.84 0 0 1 15.528 0Q180 68.291 180 73.931zm-4.009 0q0-4.484-1.756-6.664a6.579 6.579 0 0 0-9.784 0q-1.746 2.181-1.746 6.664 0 4.34 1.757 6.581a6.455 6.455 0 0 0 9.763.021q1.767-2.221 1.766-6.602z" fill="#466bb0"/>
</svg>
