<svg xmlns="http://www.w3.org/2000/svg" viewBox="-6.55 -6.55 328.35 340.6">
	<defs>
		<radialGradient id="a" cx="179.72" cy="17.82" r="176.19" gradientUnits="userSpaceOnUse">
			<stop offset="0" stop-color="#0089ff"/>
			<stop offset="1" stop-color="#0021ff"/>
		</radialGradient>
		<radialGradient id="b" cx="61.23" cy="145.96" r="140.36" gradientUnits="userSpaceOnUse">
			<stop offset="0" stop-color="#38d4ff"/>
			<stop offset="1" stop-color="#1c51ff"/>
		</radialGradient>
	</defs>
	<g data-name="Layer 1" style="isolation:isolate">
		<path fill="url(#a)" d="M278.43 112.9a42.74 42.74 0 0 1-42.74 42.73H79.75a42.43 42.43 0 0 1-25.9-8.75l-.09-.06a42.73 42.73 0 0 1 26-76.66 43.66 43.66 0 0 1 7.63.69v-.48A70.36 70.36 0 0 1 227.58 62a55.73 55.73 0 0 0-34.38 46 42.76 42.76 0 0 1 85.23 5Z"/>
		<path d="M222.24 155.63H82.5a51 51 0 0 1-28.65-8.75l-.09-.06a42.73 42.73 0 0 1 26-76.66 43.66 43.66 0 0 1 7.63.69v-.48a70 70 0 0 1 2-16.74c.76.1 1.52.22 2.27.36a51.21 51.21 0 0 1 39.71 34.9 95.36 95.36 0 0 0 90.87 66.74Z" opacity=".1"/>
		<path fill="#fff" d="M196.82 95.05A55.57 55.57 0 0 0 193.2 110a42.75 42.75 0 0 1 85.2 3.95v-1a42.76 42.76 0 0 0-81.61-17.85zM87.38 72.85v-.48a70.35 70.35 0 0 1 140-10.29l.27-.12a70.36 70.36 0 0 0-140.22 8.4v.48" style="mix-blend-mode:overlay" opacity=".33"/>
		<path fill="url(#b)" d="M120.49 100a79.54 79.54 0 0 0 75.81 55.67H79.75A42.74 42.74 0 1 1 120.49 100Z"/>
		<path d="M79.75 72.17A42.7 42.7 0 0 1 120.49 102a79.71 79.71 0 0 0 58.1 53.67h17.71A79.54 79.54 0 0 1 120.49 100 42.74 42.74 0 0 0 37 112.9v1a42.72 42.72 0 0 1 42.75-41.73Z" style="mix-blend-mode:overlay" fill="#fff"/>
		<path fill="#274f64" d="M0 296.13h18.16v-70.79H0Zm9.15-97.73a8.93 8.93 0 0 0-6.49 2.6A8.69 8.69 0 0 0 0 207.47v10.17h18.16v-10.17A8.69 8.69 0 0 0 15.5 201a8.76 8.76 0 0 0-6.35-2.6Zm39.77 78.49q-3.37-3-3.37-10.45v-25h12.8v-16.1h-12.8v-18H27.38v59a39.21 39.21 0 0 0 2.06 13.13 25.77 25.77 0 0 0 6.06 9.83 23.22 23.22 0 0 0 9.91 5.7 35 35 0 0 0 13.76 1v-16.5q-6.88.41-10.25-2.61Zm73-42.91a35.39 35.39 0 0 0-11.33-7.87 35.44 35.44 0 0 0-27.75 0 34.6 34.6 0 0 0-11.3 7.89 37.92 37.92 0 0 0-7.62 11.86 38.52 38.52 0 0 0-2.82 14.83 38 38 0 0 0 2.82 14.76 37.3 37.3 0 0 0 7.62 11.73A35.1 35.1 0 0 0 82.81 295a35.44 35.44 0 0 0 27.75 0 35.92 35.92 0 0 0 11.33-7.79 36.67 36.67 0 0 0 7.69-11.73 38 38 0 0 0 2.82-14.76 38.52 38.52 0 0 0-2.82-14.83 37.27 37.27 0 0 0-7.69-11.89Zm-9 35a19.57 19.57 0 0 1-3.78 6.35 16.84 16.84 0 0 1-5.57 4.1 16.16 16.16 0 0 1-6.74 1.43 16.62 16.62 0 0 1-6.81-1.43 15.93 15.93 0 0 1-5.57-4.1 20.16 20.16 0 0 1-3.8-6.33 23.26 23.26 0 0 1-1.38-8.19 24.41 24.41 0 0 1 1.38-8.33 20.73 20.73 0 0 1 3.72-6.55 16.31 16.31 0 0 1 5.57-4.23 16 16 0 0 1 6.81-1.5 15.55 15.55 0 0 1 6.74 1.5 17.26 17.26 0 0 1 5.57 4.23 20.12 20.12 0 0 1 3.78 6.55 24.46 24.46 0 0 1 1.38 8.33 23.3 23.3 0 0 1-1.37 8.19Zm86.71-34.47a34.48 34.48 0 0 0-11.49-8 39.06 39.06 0 0 0-29.45 0 34.48 34.48 0 0 0-11.49 8 36.77 36.77 0 0 0-7.5 11.81 38.17 38.17 0 0 0-2.68 14.28v67h18.17v-38.2q8 8.25 20.7 8.25a31.13 31.13 0 0 0 13.11-2.89 32.91 32.91 0 0 0 10.76-8 39.42 39.42 0 0 0 7.24-11.8 39.59 39.59 0 0 0 0-28.67 36.77 36.77 0 0 0-7.44-11.76Zm-9.43 34a19.9 19.9 0 0 1-3.94 6.37 19 19 0 0 1-5.8 4.25 16.56 16.56 0 0 1-14.09 0 18.48 18.48 0 0 1-5.8-4.31 20.74 20.74 0 0 1-3.94-6.44 21.55 21.55 0 0 1-1.45-7.95 20.65 20.65 0 0 1 1.45-7.74 20.07 20.07 0 0 1 3.94-6.3 19 19 0 0 1 5.8-4.25 16.22 16.22 0 0 1 7-1.58 16.82 16.82 0 0 1 7 1.51 18.08 18.08 0 0 1 5.8 4.18 20.12 20.12 0 0 1 3.94 6.3 21 21 0 0 1 1.45 7.88 21.94 21.94 0 0 1-1.43 8.12Zm36.06-70.15a8.93 8.93 0 0 0-6.56 2.64 8.69 8.69 0 0 0-2.66 6.46v10.17h18.17v-10.16a9 9 0 0 0-9-9.07ZM217 296.13h18.17v-70.79H217Zm95.72-49.73a35.61 35.61 0 0 0-33.65-22.71 35.8 35.8 0 0 0-26.29 10.91 35.75 35.75 0 0 0-7.5 11.8 39 39 0 0 0-2.68 14.48 38.12 38.12 0 0 0 10 26 34.08 34.08 0 0 0 10.8 7.89 31 31 0 0 0 13.21 2.88 31.65 31.65 0 0 0 12-2.27 26 26 0 0 0 9.57-6.67v7.42h17.2v-35.26a39 39 0 0 0-2.62-14.47Zm-16.93 22.22a20.08 20.08 0 0 1-3.94 6.3 19 19 0 0 1-5.8 4.25 16.21 16.21 0 0 1-7 1.57 16.82 16.82 0 0 1-7-1.51 18 18 0 0 1-5.8-4.18 20.08 20.08 0 0 1-3.94-6.3 21 21 0 0 1-1.45-7.88 21.94 21.94 0 0 1 1.45-8.08 20.75 20.75 0 0 1 3.94-6.44 17.62 17.62 0 0 1 5.8-4.25 16.82 16.82 0 0 1 7-1.51 16.22 16.22 0 0 1 7 1.58 18.49 18.49 0 0 1 5.8 4.31 20.74 20.74 0 0 1 3.94 6.44 21.56 21.56 0 0 1 1.45 7.95 20.65 20.65 0 0 1-1.42 7.74Z"/>
	</g>
</svg>
