<svg xmlns="http://www.w3.org/2000/svg" width="200" height="128">
	<path d="m114.054 103.7 1.282 2.574h-1.085L113 103.785h-1.418v2.492h-.923v-6.3h2.753a1.815 1.815 0 0 1 2.019 1.881 1.745 1.745 0 0 1-1.377 1.842zm-.638-2.834h-1.83v2.025h1.83a.948.948 0 0 0 1.068-1.008.963.963 0 0 0-1.068-1.014zm7.132 3.378h-3.113c.1.908.61 1.3 1.184 1.3a1.642 1.642 0 0 0 1.023-.378l.547.594a2.185 2.185 0 0 1-1.624.621c-1.1 0-2.036-.891-2.036-2.456 0-1.6.843-2.466 2.063-2.466 1.336 0 1.983 1.088 1.983 2.366 0 .166-.018.32-.027.419zm-2.019-1.953c-.619 0-1 .431-1.077 1.187h2.189c-.041-.647-.349-1.187-1.112-1.187zm6.028 3.986v-.45a1.791 1.791 0 0 1-1.229.549c-1.014 0-1.812-.738-1.812-2.538 0-1.619.879-2.384 1.857-2.384a1.672 1.672 0 0 1 1.185.54v-1.8l.915-.477v6.56zm.009-3.347a1.507 1.507 0 0 0-1.1-.621c-.664 0-1.023.5-1.023 1.5 0 1.188.377 1.709 1.059 1.709a1.448 1.448 0 0 0 1.067-.6zm8.657 3.347v-2.826h-2.89v2.826h-.941v-6.3h.941v2.546h2.89v-2.545h.941v6.3zm5.138 0v-.468a1.847 1.847 0 0 1-1.291.567 1.521 1.521 0 0 1-1.633-1.593c0-1.053.807-1.53 1.875-1.53a2.587 2.587 0 0 1 1.049.18v-.351c0-.513-.314-.8-.888-.8a2.372 2.372 0 0 0-1.229.3l-.359-.7a2.917 2.917 0 0 1 1.615-.423c1.05 0 1.768.513 1.768 1.584v3.239zm0-2.015a2.3 2.3 0 0 0-1.076-.208c-.592 0-.969.27-.969.7 0 .467.3.783.906.783a1.477 1.477 0 0 0 1.139-.6v-.674zm4.486 1.897a1.865 1.865 0 0 1-.907.216c-.655 0-1.059-.4-1.059-1.25V102.4h-.672v-.846h.672V100.2l.907-.486v1.836h1.166v.846h-1.166v2.564c0 .441.143.567.484.567a1.478 1.478 0 0 0 .682-.189zM99.305 77.847a4.477 4.477 0 0 0 2.613-4.011c0-4.153-3.752-5.047-7.171-4.988h-14.4V82.11c0 1.926-.669 2.593-1.861 2.593a1.825 1.825 0 0 1-2-2.035v-1.837h-4.862v.86c0 4.436 1.7 7.469 6.947 7.469 4.285 0 6.55-1.9 6.9-5.66v5.243H95c4.251 0 7.725-1.448 7.725-6.185a4.722 4.722 0 0 0-3.42-4.711zm-8.668-4.989h4c1.085 0 2.113.477 2.113 1.924a1.928 1.928 0 0 1-2.113 1.9h-4zm4.138 11.735h-4.138V80.02h4.138c1.558 0 2.781.587 2.781 2.339 0 1.646-1.14 2.234-2.781 2.234zM92.2 102.908A6.076 6.076 0 1 0 86.123 109a6.086 6.086 0 0 0 6.077-6.092zm-16.142-1.922a5.381 5.381 0 1 0-5.382 5.4 5.389 5.389 0 0 0 5.382-5.4zM63.9 91.237a4.859 4.859 0 1 0-4.856 4.878 4.862 4.862 0 0 0 4.856-4.878zm-2.256-13.569a4.338 4.338 0 1 0-4.336 4.352 4.339 4.339 0 0 0 4.336-4.352zm6.081-12.185a3.646 3.646 0 1 0-3.646 3.654 3.653 3.653 0 0 0 3.646-3.654zm10.409-5.397a3.3 3.3 0 1 0-3.3 3.31 3.3 3.3 0 0 0 3.3-3.31zm10.937-1.742a2.777 2.777 0 1 0-2.771 2.787 2.779 2.779 0 0 0 2.771-2.787z" fill="#c00"/>
	<path d="M139.957 80.106c-2.167-.472-5.479-.722-5.479-2.091 0-1 1.254-1.086 2.029-1.086a2.829 2.829 0 0 1 1.5.361 1.371 1.371 0 0 1 .608 1.252h4.363c-.167-3.759-3.475-4.68-6.637-4.68-2.634 0-6.056.822-6.529 3.73-.647-2.962-3.634-3.73-6.508-3.73-2.836 0-6.734.949-6.734 4.432 0 .061.009.114.01.174a7.339 7.339 0 0 0-7.039-4.606 7.229 7.229 0 0 0-7.231 5.24 5.815 5.815 0 0 1 1.066 3.456 7.7 7.7 0 0 1-.484 2.8 7.715 7.715 0 0 0 13.537-.447c.616 3.28 3.816 4.245 6.95 4.245 2.694 0 5.67-.885 6.61-3.395.974 2.6 3.872 3.395 6.717 3.395 3.25 0 6.919-1.28 6.919-5.155a4.1 4.1 0 0 0-3.668-3.895zm-30.414 5.433c-2.2 0-2.865-2.171-2.865-4.013s.668-4.043 2.865-4.043 2.889 2.206 2.889 4.043-.695 4.013-2.889 4.013zm13.81.554a2.948 2.948 0 0 1-1.752-.5 1.95 1.95 0 0 1-.779-1.614h-4.032a8.3 8.3 0 0 0 .366-2.454 8.626 8.626 0 0 0-.089-1.182c1.105 1.911 3.878 2.1 6.2 2.687.83.193 2.305.42 2.305 1.531.003 1.146-1.306 1.532-2.219 1.532zm13.326 0a2.949 2.949 0 0 1-1.751-.5 1.953 1.953 0 0 1-.779-1.614H130.3a4.1 4.1 0 0 0-3.668-3.874c-2.166-.472-5.334-.722-5.334-2.091 0-1 1.4-1.086 2.174-1.086a2.823 2.823 0 0 1 1.5.361 1.369 1.369 0 0 1 .608 1.252h4.19c.168 3.649 3.92 3.751 6.828 4.49.831.192 2.3.419 2.3 1.531.002 1.145-1.305 1.531-2.219 1.531zm7.371-14.739h.421l.629 1.046h.41l-.684-1.062a.621.621 0 0 0 .618-.659c0-.48-.278-.687-.844-.687h-.915V72.4h.362zm0-.312v-.748h.5c.247 0 .523.058.523.356 0 .37-.276.392-.583.392z" fill="#61615c"/>
	<path d="M146.834 71.2a2.353 2.353 0 1 1-2.352-2.361 2.354 2.354 0 0 1 2.352 2.361zm-2.352-1.941a1.939 1.939 0 1 0 1.933 1.941 1.937 1.937 0 0 0-1.933-1.945zm-44.377 37.116a1.669 1.669 0 0 1-1.184-.539v.441h-.915v-6.083l.915-.477V102a1.791 1.791 0 0 1 1.229-.549c1.014 0 1.812.738 1.812 2.538 0 1.622-.879 2.386-1.857 2.386zm-.126-4.066a1.446 1.446 0 0 0-1.067.6v1.991a1.507 1.507 0 0 0 1.1.621c.664 0 1.023-.5 1.023-1.5.003-1.19-.373-1.712-1.056-1.712zm4.781 5.632h-.977l.681-1.754-1.732-4.634h1.014l.772 2.312c.143.414.359 1.116.412 1.376.081-.278.278-.953.422-1.358l.8-2.33h.978z" fill="#61615c"/>
	<path d="m27.8 28.929 4.52 21.047h1.2l4.9-20.731h1.264l5.057 20.731h1.2L50.3 28.929h1.107l-4.551 22.122h-3.033L39.05 30.73l-4.614 20.321H31.4l-4.707-22.122zm26.071 0h1.106v1.738h-1.106zm0 6.32h1.106v15.8h-1.106zm5.151-7.269h1.106v23.071h-1.106zm16.117 23.071h-1.1v-1.327a11.768 11.768 0 0 1-5.468 1.611c-1.96 0-5.341-.284-5.341-7.964 0-5.436 1.454-8.406 6.637-8.406a30.631 30.631 0 0 1 4.172.379v-6.415h1.1zm-1.1-2.37V36.355c-.822-.094-2.94-.379-4.172-.379-4.488 0-5.531 2.687-5.531 7.49 0 6.289 2.465 6.858 4.235 6.858a12.453 12.453 0 0 0 5.463-1.643z" fill="#293644"/>
	<path d="M78.741 29.245h13.843v4.171h-9.545v6.289h7.649v4.14h-7.649v7.206h-4.3zm15.106-.316h4.235v22.122h-4.235zm8.975 6.352 2.876 11.63h.727l2.876-11.63h4.171l-5.53 22.375h-4.172l1.612-6.6h-2.844L98.65 35.281z" fill="#243446"/>
	<path d="M129.383 39.227a24.43 24.43 0 0 0-1.675-.426q-.423-.1-.851-.181a41.492 41.492 0 0 0-.854-.166c-.141-.025-.286-.051-.423-.072l-.431-.057c-.29-.038-.583-.082-.869-.107s-.574-.062-.867-.082l-.874-.064c-.585-.029-1.171-.06-1.761-.072-.293-.01-.588-.013-.883-.016s-.591-.007-.887 0c-.589 0-1.192.011-1.773.026l-.9.039-.876.068-.883.093c-.3.034-.59.075-.885.112q-.885.126-1.771.283t-1.775.341c-1.191.239-2.38.489-3.562.779-.592.145-1.181.3-1.762.471-.3.089-.6.183-.9.285.108.033.22.063.334.088.412.094.85.148 1.3.208.223.03.451.062.684.1l.337.063.146.021.154.017a9.221 9.221 0 0 0 1.289.008c.875-.046 1.759-.162 2.652-.251.446-.043.9-.083 1.354-.09.234 0 .449.006.673.008l.666.014c.445.012.887.028 1.33.05h.021c.035-.01.071-.022.106-.031l.11-.03.12-.029c.081-.021.161-.034.241-.051.159-.029.316-.052.472-.069.313-.035.622-.052.928-.062.61-.019 1.209-.007 1.806.008s1.185.032 1.773.059 1.173.111 1.759.173a10.508 10.508 0 0 0 1.753.065l.648-.035-.613.186a6.905 6.905 0 0 1-1.283.221c-.43.043-.862.069-1.294.088-.868.037-1.738.046-2.612.034-.347-.007-.7-.02-1.044-.043a15.656 15.656 0 0 0-1.697.1 6.308 6.308 0 0 0-.408.068c-.066.016-.132.028-.2.046l-.1.026-.1.031a6.4 6.4 0 0 0-.779.279c-.048.021-.094.045-.137.067.1.041.2.079.313.115.262.082.543.15.825.212a16.63 16.63 0 0 0 1.286.227c.132.016.283.033.424.048a15.976 15.976 0 0 0 1.725.072 21.703 21.703 0 0 0 1.728-.086 31.509 31.509 0 0 0 3.414-.5q.843-.171 1.672-.378l.414-.106.407-.111c.283-.072.537-.154.805-.23.534-.165 1.066-.348 1.611-.52a14.845 14.845 0 0 1 1.66-.444l.046-.07c.051-.124-.02-.253-.179-.381a2.006 2.006 0 0 0-.29-.157 7.478 7.478 0 0 0-.788-.282zm11.026 3.973c.231.156.446.314.693.472l.351.233.359.232q.72.459 1.467.886a31.484 31.484 0 0 0 3.082 1.551c.529.231 1.069.437 1.612.627a16.053 16.053 0 0 0 1.66.475c.14.03.282.065.418.088s.282.052.43.076c.279.044.576.084.861.115s.576.054.85.059c.116 0 .229 0 .333-.01a2.22 2.22 0 0 0-.109-.107 6.191 6.191 0 0 0-.65-.51l-.09-.063-.082-.054c-.054-.037-.113-.07-.17-.106a7.857 7.857 0 0 0-.366-.194c-.252-.122-.517-.233-.787-.339s-.523-.2-.789-.29a22.01 22.01 0 0 1-1.007-.289 47.888 47.888 0 0 1-2.468-.856 22.527 22.527 0 0 1-1.2-.493 6.883 6.883 0 0 1-1.146-.615l-.523-.369.6.237a10.493 10.493 0 0 0 1.683.492c.575.126 1.157.234 1.724.391s1.131.332 1.7.5 1.144.352 1.716.563c.287.106.575.219.86.351.144.066.285.137.427.215.071.041.142.079.212.124l.105.066.095.063c.031.02.061.042.091.063l.02.005c.428.119.853.244 1.278.373l.637.2c.212.068.419.128.64.2.433.151.847.33 1.257.512.82.366 1.621.755 2.438 1.075a9.109 9.109 0 0 0 1.225.4l.151.032.146.026.339.047c.234.035.46.077.682.118.445.085.878.173 1.3.213.115.012.23.019.343.021-.247-.189-.5-.373-.759-.552-.5-.346-1.009-.678-1.524-1a85.54 85.54 0 0 0-3.134-1.863q-.786-.453-1.577-.884t-1.591-.828c-.268-.128-.534-.26-.8-.385l-.809-.368-.809-.34-.839-.32c-.545-.2-1.115-.4-1.674-.584-.279-.1-.562-.187-.843-.277s-.561-.181-.843-.264c-.563-.175-1.128-.33-1.694-.488l-.849-.215c-.283-.072-.566-.129-.848-.2s-.572-.118-.859-.173l-.426-.082c-.138-.024-.283-.044-.425-.065a63.463 63.463 0 0 0-1.727-.212 23.916 23.916 0 0 0-1.723-.124 7.481 7.481 0 0 0-.849.017 2.107 2.107 0 0 0-.324.057c-.191.072-.3.171-.29.306l.021.081a14.579 14.579 0 0 1 1.436.945c.46.346.907.688 1.361 1.012z" opacity=".7" fill="#fff"/>
	<path d="M117.177 37.7a40.639 40.639 0 0 0-7.555.97 42.49 42.49 0 0 0-6.787 1.815c.715.653 2.444.656 3.438.845 1.618.306 4.3-.371 5.99-.387 1.16-.012 2.3-.011 3.438.053a4.971 4.971 0 0 0-.595.118c-.392.109-1.6.445-1.525.829.083.439 2.108.8 2.5.872 3.091.556 6.953-.091 10.11-.967a40.922 40.922 0 0 0 4.41-1.724 14.845 14.845 0 0 0-1.66.444c-.545.172-1.077.355-1.611.52-.268.076-.522.158-.805.23l-.407.111-.414.106q-.829.208-1.672.378a31.509 31.509 0 0 1-3.414.5c-.575.053-1.152.079-1.728.086a15.976 15.976 0 0 1-1.725-.072c-.141-.015-.288-.028-.424-.048s-.284-.04-.432-.064c-.279-.046-.573-.1-.854-.163s-.563-.13-.825-.212a3.756 3.756 0 0 1-.313-.115c.043-.022.089-.046.137-.067a6.4 6.4 0 0 1 .779-.279l.1-.031.1-.026c.063-.018.129-.03.2-.046.132-.026.269-.05.408-.068.278-.037.564-.059.854-.074s.56-.022.843-.026c.349.023.7.036 1.044.043.874.012 1.744 0 2.612-.034a23.29 23.29 0 0 0 1.294-.088 6.905 6.905 0 0 0 1.283-.221l.613-.186-.648.035a10.508 10.508 0 0 1-1.753-.065c-.586-.062-1.172-.143-1.759-.173s-1.178-.041-1.773-.059-1.2-.027-1.806-.008c-.306.01-.615.027-.928.062-.156.017-.313.04-.472.069-.08.017-.16.03-.241.051l-.12.029-.11.03c-.035.009-.071.021-.106.031h-.021a58.65 58.65 0 0 0-1.33-.05l-.666-.014c-.224 0-.439-.011-.673-.008-.458.007-.908.047-1.354.09-.893.089-1.777.2-2.652.251a9.221 9.221 0 0 1-1.289-.008l-.154-.017-.146-.021-.337-.063c-.233-.04-.461-.072-.684-.1-.449-.06-.887-.114-1.3-.208a4.294 4.294 0 0 1-.334-.088c.3-.1.595-.2.9-.285.581-.171 1.17-.326 1.762-.471 1.182-.29 2.371-.54 3.562-.779q.888-.181 1.775-.341t1.771-.283c.3-.037.588-.078.885-.112l.883-.093.876-.068.9-.039a69.339 69.339 0 0 1 1.773-.026h.887c.295 0 .59.006.883.016.59.012 1.176.043 1.761.072l.874.064c.293.02.578.056.867.082s.579.069.869.107l.431.057c.137.021.282.047.423.072.285.052.57.108.854.166s.569.117.851.181a24.43 24.43 0 0 1 1.675.426 7.478 7.478 0 0 1 .8.284 2.006 2.006 0 0 1 .29.157c-.866-.7-4.351-1.408-4.974-1.51a49.691 49.691 0 0 0-8.329-.465z" fill="#e1eef4" opacity=".5"/>
	<path d="M130.843 39.741a.651.651 0 0 0-.152-.2 2.132 2.132 0 0 0-.377-.271 5.908 5.908 0 0 0-.808-.386 16.693 16.693 0 0 0-1.68-.558q-.852-.24-1.719-.424a14.914 14.914 0 0 0-.441-.089l-.44-.069c-.291-.043-.578-.092-.877-.124s-.594-.075-.89-.1l-.888-.081c-.593-.042-1.187-.085-1.783-.108-.3-.016-.6-.025-.895-.034s-.6-.019-.9-.021c-.6-.011-1.191-.012-1.8-.008l-.9.021-.918.053-.909.08c-.3.033-.6.073-.907.109-.6.082-1.208.174-1.807.278s-1.2.215-1.8.333-1.2.246-1.8.376-1.2.273-1.8.422-1.2.31-1.8.489a16.953 16.953 0 0 0-1.8.634l-.571.245.452.4a2.287 2.287 0 0 0 .714.414 4.586 4.586 0 0 0 .721.2 13.893 13.893 0 0 0 1.387.193c.225.022.447.044.66.073l.329.049c.058.009.127.016.19.023l.184.015a9.106 9.106 0 0 0 1.407-.038c.915-.09 1.8-.246 2.671-.372.437-.062.872-.119 1.3-.144s.883-.031 1.32-.042h.354a1.889 1.889 0 0 0-.282.167.99.99 0 0 0-.268.275.621.621 0 0 0-.093.28.41.41 0 0 0 0 .086v.065l.007.034v.012a.523.523 0 0 0 .016.051.629.629 0 0 0 .039.086.893.893 0 0 0 .3.309 1.961 1.961 0 0 0 .258.144 4.286 4.286 0 0 0 .473.184c.308.1.61.179.911.249s.6.131.908.187c.148.026.294.052.456.074s.309.04.464.059a16.3 16.3 0 0 0 1.843.081 22.221 22.221 0 0 0 1.813-.1c.3-.029.6-.065.894-.1s.59-.088.883-.139a33.76 33.76 0 0 0 3.437-.778l.42-.118.052-.016.059-.018.1-.033.2-.066c.269-.082.551-.2.824-.3a15.317 15.317 0 0 0 1.542-.758c.492-.276.977-.555 1.454-.86a40.922 40.922 0 0 1-4.41 1.724c-3.157.876-7.019 1.523-10.11.967-.4-.072-2.421-.433-2.5-.872-.071-.384 1.133-.72 1.525-.829a4.971 4.971 0 0 1 .595-.118 51.674 51.674 0 0 0-3.438-.053c-1.689.016-4.372.693-5.99.387-.994-.189-2.723-.192-3.438-.845a42.49 42.49 0 0 1 6.787-1.815 40.639 40.639 0 0 1 7.555-.97 49.691 49.691 0 0 1 8.321.463c.623.1 4.108.81 4.974 1.51.02.013.043.025.062.039a.563.563 0 0 1 .123.12.165.165 0 0 1 .029.062.176.176 0 0 1 0 .025l-.008.045.17.053a.228.228 0 0 0 .019-.055.272.272 0 0 0 .008-.078.34.34 0 0 0-.011-.155zm33.211 10.243a17.01 17.01 0 0 0-1.5-1.167c-.513-.36-1.032-.7-1.555-1.033s-1.048-.653-1.576-.969-1.053-.625-1.586-.924-1.064-.6-1.6-.884-1.079-.566-1.627-.834c-.276-.129-.548-.262-.826-.389l-.838-.363-.854-.34-.846-.3c-.581-.2-1.141-.382-1.716-.562-.284-.093-.571-.177-.857-.263s-.572-.172-.86-.251a58.552 58.552 0 0 0-1.726-.46l-.869-.2c-.289-.067-.585-.122-.877-.183s-.581-.109-.87-.159l-.44-.074c-.153-.021-.3-.038-.447-.055q-.88-.1-1.764-.14a16.855 16.855 0 0 0-1.77 0 6.153 6.153 0 0 0-.889.111 2.12 2.12 0 0 0-.443.139.68.68 0 0 0-.21.144.352.352 0 0 0-.076.12.213.213 0 0 0-.017.076.221.221 0 0 0 0 .058h.179c0-.014 0-.042.006-.045l.011-.023a.18.18 0 0 1 .047-.049.6.6 0 0 1 .156-.075c.022-.008.048-.012.071-.018 1.044-.391 4.572.038 5.2.138a49.627 49.627 0 0 1 8.041 2.186 40.691 40.691 0 0 1 6.854 3.304 42.313 42.313 0 0 1 5.867 3.865c-.884.394-2.526-.149-3.529-.284-1.632-.22-3.964-1.709-5.562-2.257-1.1-.377-2.176-.736-3.279-1.036a4.846 4.846 0 0 1 .528.3c.336.226 1.373.925 1.185 1.267-.217.391-2.253.094-2.651.037-3.108-.448-6.57-2.281-9.288-4.108a40.871 40.871 0 0 1-3.641-3.027c.357.44.729.857 1.109 1.274a14.845 14.845 0 0 0 1.224 1.206c.226.187.456.384.686.547l.174.127.086.063.05.037.045.031.36.245q.726.489 1.478.944c.5.3 1.015.6 1.54.879.261.141.526.276.794.41s.54.258.815.38c.55.245 1.112.474 1.687.671a16.032 16.032 0 0 0 1.775.505c.153.031.3.064.459.09s.308.052.456.074c.313.045.61.08.92.109s.619.05.944.051a4.056 4.056 0 0 0 .507-.025 2 2 0 0 0 .29-.055.916.916 0 0 0 .384-.2.632.632 0 0 0 .065-.071.356.356 0 0 0 .03-.042l.008-.011.018-.03.009-.019.017-.041a.406.406 0 0 0 .027-.081.61.61 0 0 0 0-.3.972.972 0 0 0-.167-.345 1.953 1.953 0 0 0-.216-.249c.112.039.224.076.335.116.411.149.839.3 1.24.457s.793.35 1.187.547c.792.4 1.579.822 2.418 1.2a9.026 9.026 0 0 0 1.324.481l.178.044c.062.013.13.028.187.038l.329.057c.21.04.428.089.649.139.441.1.9.2 1.377.255a4.682 4.682 0 0 0 .747.036 2.293 2.293 0 0 0 .809-.166l.555-.237z" fill="#293644"/>
	<path d="M150.539 48.389c.4.057 2.434.354 2.651-.037.188-.342-.849-1.041-1.185-1.267a4.846 4.846 0 0 0-.528-.3c1.1.3 2.182.659 3.279 1.036 1.6.548 3.93 2.037 5.562 2.257 1 .135 2.645.678 3.529.284a42.313 42.313 0 0 0-5.867-3.862 40.691 40.691 0 0 0-6.863-3.3 49.627 49.627 0 0 0-8.041-2.186c-.625-.1-4.153-.529-5.2-.138a2.107 2.107 0 0 1 .324-.057 7.481 7.481 0 0 1 .849-.017c.572.017 1.147.065 1.723.124.288.028.576.061.864.1s.577.071.863.112c.142.021.287.041.425.065l.426.082c.287.055.58.106.859.173s.565.123.848.2l.849.215c.566.158 1.131.313 1.694.488.282.083.563.173.843.264s.564.179.843.277c.559.186 1.129.387 1.674.584l.839.32.809.34.809.368c.27.125.536.257.8.385q.8.4 1.591.828t1.577.884c1.054.6 2.1 1.215 3.134 1.863a45.44 45.44 0 0 1 1.524 1c.257.179.512.363.759.552-.113 0-.228-.009-.343-.021-.42-.04-.853-.128-1.3-.213-.222-.041-.448-.083-.682-.118l-.339-.047-.138-.04-.151-.032a9.109 9.109 0 0 1-1.225-.4c-.817-.32-1.618-.709-2.438-1.075-.41-.182-.824-.361-1.257-.512-.221-.077-.428-.137-.64-.2l-.637-.2c-.425-.129-.85-.254-1.278-.373l-.02-.005c-.03-.021-.06-.043-.091-.063l-.095-.063-.105-.066c-.07-.045-.141-.083-.212-.124a6.56 6.56 0 0 0-.427-.215 11.588 11.588 0 0 0-.86-.351c-.572-.211-1.145-.389-1.716-.563s-1.135-.343-1.7-.5-1.149-.265-1.724-.391a10.493 10.493 0 0 1-1.683-.492l-.6-.237.523.369a6.883 6.883 0 0 0 1.146.615c.394.177.8.338 1.2.493.812.308 1.635.591 2.468.856.332.1.667.2 1.007.289.266.092.53.188.789.29s.535.217.787.339c.126.063.248.127.366.194.057.036.116.069.17.106l.082.054.09.063a6.191 6.191 0 0 1 .65.51c.039.035.075.072.109.107-.1.008-.217.011-.333.01-.274-.005-.562-.028-.85-.059s-.582-.071-.861-.115c-.148-.024-.3-.048-.43-.076l-.418-.088a16.053 16.053 0 0 1-1.66-.475c-.543-.19-1.083-.4-1.612-.627a31.484 31.484 0 0 1-3.082-1.551q-.745-.428-1.467-.886l-.359-.232-.351-.233c-.247-.158-.462-.316-.693-.472-.454-.325-.9-.667-1.363-1a14.579 14.579 0 0 0-1.436-.945 40.871 40.871 0 0 0 3.641 3.027c2.715 1.82 6.177 3.653 9.285 4.101z" fill="#e1eef4" opacity=".5"/>
	<path d="M127.942 42.786a4.958 4.958 0 0 0 1.148 2.824c.856 1.255.4 2.887.436 4.236.053 2.1-.719 10.449 1.07 12.428h.007c2.275-.954 4.125-8.875 4.843-10.826.462-1.254.551-3.373 1.761-4.21.9-.622 2.135-1.28 2.352-2.412l-5.354-5.464s-6.26 3.357-6.263 3.424z" fill="#d4dfe5"/>
	<path d="M138.713 44.838c-.149.064-.3.131-.444.2a5.172 5.172 0 0 0 .549-.395c.2-.165-.17-.356-.315-.322-.253.058-.5.125-.751.2a2.384 2.384 0 0 0 .3-.506c.085-.2-.2-.312-.349-.287-1.565.267-2.641 1.332-4.026 2.023a14.736 14.736 0 0 1-2.113.866c-.1.027-.194.055-.29.084a4.483 4.483 0 0 1-.566.107.3.3 0 0 1-.378-.175 1.867 1.867 0 0 1 .7-.246 11.357 11.357 0 0 0 1.893-.663 7.891 7.891 0 0 0 1.535-.9 6.464 6.464 0 0 0 2.692-1.624c.158-.165-.253-.3-.35-.288a4.178 4.178 0 0 0-2.141 1.1c-.206.175-.414.336-.625.489-.408.132-.822.243-1.234.34a7.957 7.957 0 0 1-.865.146c.4-.218.8-.446 1.213-.665a13.146 13.146 0 0 0 3.278-1.851c.213-.208-.221-.353-.375-.309a21.8 21.8 0 0 0-3.342 1.364l.014-.007q1.45-.722 2.848-1.523c.232-.133-.165-.32-.338-.315.087-.044.175-.087.261-.132.292-.15-.129-.413-.327-.335a27.119 27.119 0 0 0-3.051 1.406 12.521 12.521 0 0 1-2.729 1.461 10.432 10.432 0 0 1 2.013-1.17 92.54 92.54 0 0 0 2.829-1.719c.169-.107-.015-.247-.191-.3.21-.127.42-.254.629-.383.174-.108-.041-.275-.224-.316a.288.288 0 0 0 .026-.319.365.365 0 0 0-.351-.149 1.347 1.347 0 0 0-.449.237 15.851 15.851 0 0 1-1.815 1.093c-.818.4-1.668.736-2.5 1.124-.239.07-.478.141-.718.218-.123.039-.127.112-.074.181-.056.03-.112.058-.167.089a.13.13 0 0 0-.032.178.657.657 0 0 0 .645.276c-.232.111-.464.22-.7.326-.257.116.031.355.208.356a1.688 1.688 0 0 0 .505-.079 2.242 2.242 0 0 0-.436.493c-.106.167.172.286.291.293a2.251 2.251 0 0 0 .339 0l-.207.148c-.222.168.223.4.382.312l.049-.027.166-.09-.062.055c-.2.193.175.333.322.326a5.7 5.7 0 0 0 2.451-1.02 18.84 18.84 0 0 1 2.552-1.21c-.663.367-1.387.647-2.056.985-.794.4-1.541.864-2.35 1.22a3.441 3.441 0 0 0-1.007.379c-.255.151.24.352.382.31a7.774 7.774 0 0 0 .891-.318c.455-.088.939-.112 1.368-.186.244-.043.484-.095.725-.148a11.072 11.072 0 0 1-1.091.492c-.551.213-1.473.233-1.907.676-.211.214.1.573.312.656.026.011.053.018.08.027-.079.039-.16.074-.236.117-.143.081.013.261.114.3a2.239 2.239 0 0 0 1.089.08c-.275.109-.549.219-.824.327-.23.091-.042.276.152.332-.5.3-.837.622-.527.826s.728 0 1.009-.1.579-.23.866-.353c-.037.025-.074.047-.11.072-.067.044-.078.092-.057.136-.169.095-.339.191-.507.29-.1.058-.079.13-.011.19a3.15 3.15 0 0 0-1.375.726c-.167.171.1.313.255.327a4.961 4.961 0 0 0 1.929-.246c-.094.144.163.276.286.285a3.215 3.215 0 0 0 .971-.089c-.052.026-.106.052-.157.079a5.737 5.737 0 0 1-.742.319 15.15 15.15 0 0 0-2.232.737c-.3.132.128.423.333.334a16.81 16.81 0 0 1 1.716-.595l.181-.052a15.981 15.981 0 0 0-2.1 1.263c-.241.178.233.356.381.307.114-.039.225-.082.337-.125a3.82 3.82 0 0 0-.546.595c-.131.18.239.316.357.286a9.542 9.542 0 0 0 1.488-.515 4.373 4.373 0 0 0-.957 1.115c-.075.129.044.217.172.259-.117.077-.233.157-.349.238-.238.167.252.395.428.279.225-.146.448-.3.667-.448a3.342 3.342 0 0 1 1.222-.5 2.124 2.124 0 0 1-.946.65c-.3.132.127.422.33.331.505-.223 1.154-.529 1.261-1.141.026-.155-.191-.241-.305-.243a2.843 2.843 0 0 0-.427.024 9.224 9.224 0 0 0 .75-.731c.158-.175-.29-.336-.411-.27-.517.284-.942.8-1.441 1.14a17.274 17.274 0 0 1 2.806-2.083c.224-.166-.222-.38-.377-.306-1.084.521-2.123 1.146-3.256 1.565a24.76 24.76 0 0 1 2.934-1.8c.194-.129-.074-.285-.263-.311l.25-.138.048-.026c.134-.076.058-.171-.064-.236a5.259 5.259 0 0 0 1.53-.984c.208-.214-.219-.353-.376-.307-.827.244-1.658.768-2.531.95a14.763 14.763 0 0 1 2.839-1.425c.3-.126-.131-.4-.329-.334-.841.28-1.651.657-2.474 1a9.619 9.619 0 0 1-2.3.759 20.18 20.18 0 0 1 2.559-.959 34.725 34.725 0 0 0 3.738-1.786c.2-.113-.079-.285-.244-.317.519-.283 1.037-.567 1.559-.847.3-.161-.137-.386-.327-.333-.089.024-.173.053-.261.079.435-.223.873-.438 1.32-.634.3-.137-.118-.427-.317-.342zm-6.441-1.091c-.492.263-.98.59-1.5.824a13.764 13.764 0 0 1 1.5-.824zm-.764 3.358a2.7 2.7 0 0 1-.538.144c.092-.033.186-.064.281-.093a3.89 3.89 0 0 0 .257-.051zm3.108-1.412a12.477 12.477 0 0 1 2.7-1.459 2.905 2.905 0 0 1-.612.616c-.704.25-1.397.535-2.088.843zm-3.716 2.854c.208-.121.428-.224.64-.328.554-.269 1.125-.5 1.69-.737 1.046-.442 2.038-.99 3.043-1.5.19-.072.377-.146.564-.222-.873.463-1.738.951-2.634 1.378-1.081.507-2.194.962-3.303 1.409zm4.3-1.317-.236.124-.014.005.068-.04z" fill="#dfeef6"/>
	<path d="M146.273 51.218c-.144-.142-.354-.35-.627-.61-.537-.531-1.3-1.29-2.21-2.217-.453-.466-.95-.966-1.463-1.509s-1.066-1.109-1.632-1.7l-1.741-1.839c-.6-.627-1.2-1.269-1.805-1.917-.669-.714-1.335-1.432-1.993-2.138l1.32-.728c.369-.2.731-.4 1.085-.59l1.046-.56a32.277 32.277 0 0 0 1.9-1.118 14.109 14.109 0 0 0 1.513-1.1 6.581 6.581 0 0 0 1.01-1.045 3.432 3.432 0 0 0 .466-.822 1.814 1.814 0 0 0 .077-.238l.022-.083-.028.08a1.717 1.717 0 0 1-.093.231 3.3 3.3 0 0 1-.511.773 6.59 6.59 0 0 1-1.06.953 13.722 13.722 0 0 1-1.56.979c-.594.321-1.253.636-1.958.953-.35.165-.716.323-1.082.509l-1.106.567c-.483.252-.977.511-1.473.774-.386-.413-.769-.822-1.145-1.219l-.86-.9c-.285-.3-.579-.565-.855-.834a30.53 30.53 0 0 1-1.538-1.543 13.535 13.535 0 0 1-1.154-1.435 6.551 6.551 0 0 1-.689-1.247 3.378 3.378 0 0 1-.231-.9 1.908 1.908 0 0 1-.012-.248v-.086l-.006.086a1.981 1.981 0 0 0-.006.25 3.462 3.462 0 0 0 .172.929 6.507 6.507 0 0 0 .612 1.318 13.974 13.974 0 0 0 1.069 1.538c.421.539.9 1.1 1.426 1.676l.8.872.833.913 1.013 1.126c-.854.453-1.72.914-2.589 1.37-.78.415-1.562.825-2.332 1.222l-2.251 1.166c-.729.373-1.429.74-2.1 1.072s-1.3.654-1.875.947a187.64 187.64 0 0 1-2.815 1.372c-.342.157-.61.285-.792.372l-.28.134.3-.095c.193-.062.477-.153.837-.273s.79-.286 1.287-.467 1.048-.416 1.654-.659 1.253-.534 1.935-.845 1.4-.65 2.143-1.005l.957-.476a2.748 2.748 0 0 0 .067.535 4.559 4.559 0 0 0 .5 1.227c.211.384.474.746.7 1.106a3.094 3.094 0 0 1 .371 1.2 19.965 19.965 0 0 1-.062 2.559v.07a1.27 1.27 0 0 0-.158.128.51.51 0 0 0-.14.215.294.294 0 0 0-.012.09.266.266 0 0 1 .032-.081.482.482 0 0 1 .168-.162c.032-.019.071-.037.11-.056 0 .364 0 .72-.017 1.083l-.046 1.286c-.063 1.714-.11 3.435-.039 5.159a20.393 20.393 0 0 0 .248 2.587 8.849 8.849 0 0 0 .306 1.272 3.352 3.352 0 0 0 .621 1.169l.018.022.028.007h.008l.032.009.028-.013a2.711 2.711 0 0 0 1-.85 7.91 7.91 0 0 0 .7-1.094 19.9 19.9 0 0 0 1.055-2.364c.479-1.26.885-2.544 1.272-3.832l.022-.006-.007-.044q.155-.515.308-1.031c.123-.411.245-.822.375-1.229.064-.2.137-.4.207-.608s.123-.416.175-.625l.05-.21.128.095.273.2-.254-.224-.135-.12c.079-.332.155-.664.243-.991a6.418 6.418 0 0 1 .427-1.189 2.465 2.465 0 0 1 .764-.94c.34-.235.692-.455 1.03-.7a4.541 4.541 0 0 0 .928-.853 2.226 2.226 0 0 0 .307-.522l.373.381c.585.578 1.151 1.132 1.7 1.65s1.069.992 1.552 1.433.939.826 1.347 1.163.762.631 1.064.862.538.411.7.533l.249.186zm-10.666-.577c-.051.207-.107.414-.172.614s-.145.4-.208.608c-.133.409-.257.821-.381 1.231l-.239.791a2.163 2.163 0 0 0-.093-.2 1.873 1.873 0 0 0-.225-.332 2.615 2.615 0 0 0-.334-.344 3.482 3.482 0 0 0-.433-.308 3.288 3.288 0 0 0-1.064-.392 3.925 3.925 0 0 0-1.113-.047 3.35 3.35 0 0 0-.5.086 2.862 2.862 0 0 0-.436.139 2.278 2.278 0 0 0-.346.17 1.62 1.62 0 0 0-.244.17 1.208 1.208 0 0 0-.14.129l-.046.05.011.014.062-.022c.04-.017.1-.038.173-.061A1.037 1.037 0 0 1 130 52.9c.045-.012.092-.028.146-.038.1-.022.221-.046.352-.062s.268-.032.417-.04.3-.01.466 0 .328.014.5.029.338.039.506.069.336.062.5.1a4.328 4.328 0 0 1 .473.139 2.382 2.382 0 0 1 .769.423 1.8 1.8 0 0 1 .4.492l.03.055c-.4 1.322-.821 2.639-1.315 3.925a19.764 19.764 0 0 1-1.054 2.339 7.6 7.6 0 0 1-.69 1.069 2.647 2.647 0 0 1-.871.76 3.281 3.281 0 0 1-.534-1.045 8.865 8.865 0 0 1-.294-1.242 21.621 21.621 0 0 1-.249-2.555c-.078-1.714-.04-3.43.014-5.144l.039-1.287c.011-.382.008-.775 0-1.156a3.2 3.2 0 0 1 .54-.134 9.038 9.038 0 0 1 1.209-.121c.223-.009.452-.014.685-.014l.7-.008c.115 0 .229 0 .335.007s.243.013.35.024a4.9 4.9 0 0 1 .661.1 3.831 3.831 0 0 1 .6.208 4.657 4.657 0 0 1 .514.274c.181.111.337.219.472.317-.022.082-.042.17-.064.257zm3.484-4.985a4.43 4.43 0 0 1-.9.826c-.333.242-.685.46-1.027.7a2.594 2.594 0 0 0-.811.992 6.633 6.633 0 0 0-.438 1.216c-.083.306-.155.615-.228.923a7.879 7.879 0 0 0-.419-.357 5.232 5.232 0 0 0-1.1-.678 4.237 4.237 0 0 0-.695-.255 3.338 3.338 0 0 0-.361-.085 2.927 2.927 0 0 0-.386-.044 4.552 4.552 0 0 0-.741.019 8.624 8.624 0 0 0-.7.108 8 8 0 0 0-1.215.326 3.617 3.617 0 0 0-.467.211 19.188 19.188 0 0 0 .052-2.543 3.262 3.262 0 0 0-.4-1.264c-.237-.377-.489-.72-.7-1.1a4.376 4.376 0 0 1-.484-1.184 2.511 2.511 0 0 1-.065-.578q.584-.291 1.176-.593c.772-.4 1.555-.809 2.336-1.225s1.564-.842 2.334-1.261l.371-.205.28.311.934 1.024.033.044c.095.123.194.242.29.363s.192.242.292.361l.3.348c.1.119.2.233.311.344l.317.336.331.323c.107.109.226.206.34.31.078.073.161.139.243.206l.205.217c.435.454.866.894 1.292 1.328a2.078 2.078 0 0 1-.3.536z" fill="#293644"/>
	<path d="M134.449 53.981c-.037-.123-.288-.147-.377-.09a4.04 4.04 0 0 0-.6.467.144.144 0 0 0-.031.007 17.124 17.124 0 0 0-2.822 1.974 5.272 5.272 0 0 1-.523.336 12.007 12.007 0 0 0 1.43-1.144c.668-.54 1.334-1.078 1.987-1.637.119-.1-.3-.177-.37-.146-.788.342-1.55.775-2.339 1.129a2.66 2.66 0 0 0 .888-1.126 2.492 2.492 0 0 0 .7-.2c-.068-.027-.3-.089-.519-.149.075-.148-.3-.178-.373-.137-.508.274-1.067.373-1.575.648-.158.085.233.228.345.167a2.393 2.393 0 0 1 .666-.2c-.477.421-1.033.8-1.165 1.434-.029.141.277.157.348.135a14.538 14.538 0 0 0 2.089-.92c-.9.736-1.737 1.392-2.623 2.152-.042.036 0 .095.022.114.388.308.8.08 1.168-.158.665-.429 1.263-.967 1.9-1.433-.746.784-1.544 1.51-2.331 2.253-.12.114.3.178.371.145a8.226 8.226 0 0 0 1.2-.689 17.3 17.3 0 0 1-1.679 1.756c-.118.105.279.176.334.158a10.491 10.491 0 0 0 1.267-.507 26.71 26.71 0 0 0-1.647 1.745c-.1.115.3.225.4.123.428-.458.857-.91 1.3-1.351-.245.461-.5.922-.737 1.389a4.379 4.379 0 0 0-.709.9c-.053.092.063.145.185.158l-.06.128c-.062.137.338.163.41.095A3.792 3.792 0 0 0 132 59.89a15.466 15.466 0 0 0 1.564-2.833c.05-.112-.161-.154-.293-.122a12.646 12.646 0 0 0 .5-1.347c.121.065.289.055.291-.041.009-.53.545-1.035.387-1.566zm-.494.658a.38.38 0 0 0-.2-.056c.092-.09.188-.177.288-.259a1.7 1.7 0 0 1-.088.315zm-1.777 1.579-.033.066a.081.081 0 0 0-.006.05c-.123.094-.247.187-.372.276.133-.13.275-.26.411-.392zm1-.286c.061-.084-.058-.137-.184-.152q.2-.264.427-.506a14.087 14.087 0 0 1-.925 2.368c-.446.241-.9.469-1.358.667a18.76 18.76 0 0 0 2.039-2.377z" fill="#fff"/>
	<path d="M139.763 42.043a1.784 1.784 0 0 1 .308-.092 4.632 4.632 0 0 1 .625-.089c.208-.017.415-.022.622-.027h.615c.205 0 .408.014.606.013l.608-.013c.414-.008.828-.006 1.24 0 .825.006 1.646.017 2.461-.025.2-.012.407-.027.61-.043l.3-.03.31-.04 1.239-.177q1.246-.178 2.482-.394a28.049 28.049 0 0 0 2.456-.538 15.047 15.047 0 0 0 2.36-.825 6.841 6.841 0 0 0 1.632-1.025c-.07-.009-.14-.018-.211-.024-.121-.009-.242-.02-.366-.025s-.246-.007-.37-.006-.249 0-.373.01-.25.012-.376.022a14.223 14.223 0 0 0-1.511.198c-.256.045-.5.094-.75.15s-.5.111-.747.17l-.743.174c.434-.117.867-.233 1.3-.361l.351-.1.559-.172c.244-.076.491-.151.741-.219l.284-.074c.223-.063.447-.126.671-.191.438-.129.878-.24 1.319-.346l.667-.162c.217-.053.435-.1.649-.166.432-.119.859-.258 1.281-.414s.838-.325 1.252-.508.826-.366 1.236-.564l1.234-.6c.414-.2.82-.408 1.247-.6.847-.393 1.7-.741 2.54-1.115.417-.189.828-.386 1.226-.6.2-.108.4-.222.586-.338.094-.06.189-.115.283-.179l.283-.191c.385-.268.772-.524 1.14-.789a8.205 8.205 0 0 0 .7-.572 20.207 20.207 0 0 0-1.967-.285c-.807-.073-1.62-.115-2.434-.121s-1.625.017-2.432.056-1.617.1-2.42.173c-.4.032-.8.082-1.2.123s-.795.1-1.192.151l-1.184.181c-.391.073-.786.136-1.174.216l-.578.119c-.192.039-.386.081-.582.129l-.584.138-.285.069-.289.073q-1.155.294-2.3.6a71.381 71.381 0 0 0-4.51 1.361c-.736.252-1.469.512-2.194.787-.362.138-.723.277-1.079.425s-.714.291-1.068.44-.7.3-1.051.466-.7.33-1.057.492l-1.056.48c-.351.157-.7.317-1.043.483a21.439 21.439 0 0 0-2.009 1.073 8.078 8.078 0 0 0-.92.652 3.3 3.3 0 0 0-.748.832l-.016-.007a1.457 1.457 0 0 0-.067.414c.008.184.367.329.68.506s1.892 1.263 1.892 1.263v-.1a.158.158 0 0 1 .04-.083l-.023-.021a.657.657 0 0 1 .274-.188z" fill="#e1eef4" opacity=".5"/>
	<path d="M172.914 30.778a19.242 19.242 0 0 0-2.463-.414c-.825-.088-1.652-.131-2.478-.158s-1.644-.022-2.468 0-1.633.059-2.448.113c-.406.021-.813.061-1.219.092s-.809.081-1.214.121l-1.209.153c-.4.064-.8.117-1.2.188l-.6.108q-.3.053-.595.115l-.587.123-.147.031-.153.034-.293.068c-.781.176-1.557.371-2.329.574s-1.538.418-2.3.64-1.521.456-2.273.707-1.5.514-2.235.8-1.465.588-2.182.917-1.415.693-2.094 1.057l-1.031.54c-.341.186-.683.376-1.02.572s-.669.4-1 .618-.645.445-.95.691a7.091 7.091 0 0 0-.86.8 4.342 4.342 0 0 0-.358.464 2.575 2.575 0 0 0-.256.515l.016.007.016.007a3.3 3.3 0 0 1 .748-.832 8.078 8.078 0 0 1 .92-.652 21.439 21.439 0 0 1 2.009-1.073c.344-.166.692-.326 1.043-.483l1.056-.48c.358-.162.7-.327 1.057-.492s.7-.31 1.051-.466.707-.3 1.068-.44.717-.287 1.079-.425a71.407 71.407 0 0 1 2.194-.787 71.381 71.381 0 0 1 4.51-1.361q1.146-.309 2.3-.6l.289-.073.285-.069.584-.138c.2-.048.39-.09.582-.129l.578-.119c.388-.08.783-.143 1.174-.216l1.184-.181c.4-.05.794-.106 1.192-.151s.8-.091 1.2-.123q1.2-.111 2.42-.173c.807-.039 1.621-.061 2.432-.056s1.627.048 2.434.121c.661.064 1.319.157 1.967.285a8.205 8.205 0 0 1-.7.572c-.368.265-.755.521-1.14.789l-.283.191c-.094.064-.189.119-.283.179-.19.116-.387.23-.586.338-.4.215-.809.412-1.226.6-.835.374-1.693.722-2.54 1.115-.427.2-.833.4-1.247.6l-1.234.6c-.41.2-.822.384-1.236.564s-.831.353-1.252.508-.849.3-1.281.414c-.214.062-.432.113-.649.166l-.667.162c-.441.106-.881.217-1.319.346-.224.065-.448.128-.671.191l-.284.074c-.25.068-.5.143-.741.219l-.559.172-.351.1c-.432.128-.865.244-1.3.361l1.305-.338.041-.01c-.448.12-.9.242-1.346.348l.743-.174c.248-.059.5-.113.747-.17s.5-.1.75-.15.5-.085.756-.119a12.969 12.969 0 0 1 1.131-.101c.126-.005.249-.007.373-.01s.248 0 .37.006.245.016.366.025c.071.006.141.015.211.024a6.841 6.841 0 0 1-1.632 1.025 15.047 15.047 0 0 1-2.36.825c-.809.219-1.629.392-2.456.538s-1.651.275-2.482.394l-1.239.177-.31.04-.3.03c-.2.016-.405.031-.61.043-.815.042-1.636.031-2.461.025-.412 0-.826-.005-1.24 0l-.608.013c-.2 0-.4-.009-.606-.013h-.615c-.207.005-.414.01-.622.027a4.632 4.632 0 0 0-.625.089 1.784 1.784 0 0 0-.308.092.657.657 0 0 0-.275.183l.023.021.008.007a1.155 1.155 0 0 1 .567-.1q.3 0 .6.028c.2.016.4.033.6.054l.6.058c.2.017.408.033.62.043s.416 0 .622 0c.406 0 .815.013 1.225.026.821.024 1.653.056 2.5.03.211-.006.423-.019.635-.034l.325-.03.312-.036 1.251-.164c.835-.112 1.674-.227 2.513-.384s1.681-.333 2.515-.562a14.733 14.733 0 0 0 2.46-.9 6.789 6.789 0 0 0 2.162-1.552l.311-.351-.456-.08a5.067 5.067 0 0 0-.321-.047l.2-.036c.227-.043.455-.083.681-.136.454-.1.905-.22 1.348-.359s.885-.29 1.32-.455.861-.347 1.286-.533.842-.383 1.259-.579l1.245-.591c.827-.387 1.68-.755 2.516-1.18.42-.211.838-.435 1.243-.678.2-.121.4-.248.6-.381l.295-.2.281-.209c.359-.278.74-.539 1.114-.823a8.86 8.86 0 0 0 1.078-.928l.276-.287z" fill="#293644"/>
	<path d="M131.505 39.372a3.319 3.319 0 0 0-.446-1.026 8.2 8.2 0 0 0-.669-.909 21.216 21.216 0 0 0-1.568-1.652 36.77 36.77 0 0 0-.836-.787l-.851-.789c-.288-.267-.564-.533-.847-.8s-.566-.515-.851-.774-.576-.509-.873-.755-.591-.5-.89-.744q-.9-.732-1.835-1.438a71.414 71.414 0 0 0-3.849-2.716q-.992-.654-1.995-1.3l-.251-.161-.248-.155-.512-.315c-.17-.108-.34-.209-.511-.306l-.511-.3c-.343-.2-.7-.382-1.046-.575l-1.066-.546c-.361-.172-.72-.351-1.084-.52s-.729-.338-1.1-.5q-1.108-.485-2.241-.927c-.755-.292-1.52-.569-2.292-.82s-1.557-.469-2.347-.654a20.035 20.035 0 0 0-1.963-.351 8.187 8.187 0 0 0 .492.765c.267.368.552.733.832 1.109l.209.27c.07.09.142.173.212.259.144.17.3.341.45.506.31.33.637.646.974.957.674.618 1.378 1.219 2.058 1.86.344.32.663.644.993.966l.983.954c.326.317.659.624 1 .925s.676.6 1.027.877.711.548 1.084.8c.184.127.375.244.564.363l.581.363c.385.241.767.485 1.143.745.218.151.438.3.657.45.055.035.112.068.165.1.217.142.427.291.635.441l.483.345c.1.067.195.136.294.2.369.258.743.5 1.118.753l-.65-.4c-.218-.133-.437-.264-.655-.4s-.442-.255-.665-.38-.451-.238-.679-.35-.46-.216-.692-.314c-.116-.049-.232-.1-.35-.14s-.234-.084-.351-.126-.235-.077-.353-.112-.238-.062-.355-.092c-.069-.017-.139-.029-.208-.043a6.828 6.828 0 0 0 1.226 1.487 15.01 15.01 0 0 0 1.978 1.528c.7.463 1.423.886 2.161 1.286s1.481.782 2.23 1.157l1.121.559.281.135.274.123c.188.08.376.158.566.234.76.3 1.542.546 2.327.8.392.127.785.256 1.176.394l.573.2c.187.063.383.118.578.179l.585.191c.195.07.389.14.582.222a4.715 4.715 0 0 1 .565.281 1.81 1.81 0 0 1 .263.185.649.649 0 0 1 .2.26l-.028.013a.159.159 0 0 1 .011.092l-.035.1s1.84-.532 2.194-.6.738-.093.8-.265a1.445 1.445 0 0 0 .068-.414z" fill="#e1eef4" opacity=".5"/>
	<path d="M131.46 38.8a4.269 4.269 0 0 0-.194-.553 7.017 7.017 0 0 0-.563-1.032q-.318-.494-.684-.955c-.241-.307-.489-.61-.749-.9s-.521-.581-.787-.865l-.808-.837c-.53-.561-1.074-1.117-1.654-1.665s-1.17-1.06-1.781-1.559-1.232-.992-1.869-1.461-1.284-.931-1.934-1.388-1.313-.9-1.981-1.334-1.345-.866-2.03-1.28l-.256-.157-.135-.08-.129-.076-.519-.3q-.257-.152-.528-.3l-.537-.294c-.359-.193-.722-.371-1.083-.557l-1.1-.528c-.372-.165-.74-.337-1.114-.5s-.748-.323-1.127-.472c-.758-.308-1.521-.6-2.288-.879s-1.553-.541-2.343-.777-1.59-.455-2.4-.633a19.32 19.32 0 0 0-2.467-.384L100 19l.171.36a8.857 8.857 0 0 0 .729 1.22c.266.388.545.755.8 1.133l.2.287c.068.095.144.191.215.287.147.189.3.372.451.552.309.359.635.7.966 1.035.66.667 1.353 1.286 2.016 1.914l.994.953c.334.318.667.639 1.013.948s.694.615 1.051.911.73.578 1.109.848.766.528 1.166.766c.2.121.4.232.6.345l.182.1a4.985 4.985 0 0 0-.32-.057l-.457-.068.184.431a6.8 6.8 0 0 0 1.561 2.155 14.932 14.932 0 0 0 2.049 1.631c.721.48 1.462.917 2.211 1.327s1.506.787 2.263 1.157l1.135.551.285.133.3.13c.2.082.394.161.593.232.794.292 1.592.525 2.38.761.393.117.784.235 1.17.361.2.063.377.133.592.194s.4.107.6.155l.593.136a14.754 14.754 0 0 1 1.161.3 1.159 1.159 0 0 1 .505.278h.01l.028-.013a.649.649 0 0 0-.2-.26 1.81 1.81 0 0 0-.263-.185 4.715 4.715 0 0 0-.565-.281 10.848 10.848 0 0 0-.582-.222l-.585-.191c-.195-.061-.391-.116-.578-.179l-.573-.2a47.708 47.708 0 0 0-1.176-.394c-.785-.254-1.567-.5-2.327-.8-.19-.076-.378-.154-.566-.234l-.274-.123-.281-.135-1.121-.559q-1.123-.562-2.23-1.157c-.738-.4-1.463-.823-2.161-1.286a15.01 15.01 0 0 1-1.978-1.528 6.828 6.828 0 0 1-1.226-1.487c.069.014.139.026.208.043.117.03.237.058.355.092s.236.071.353.112.235.082.351.126.234.091.35.14c.232.1.463.2.692.314s.455.228.679.35.446.249.665.38.437.263.655.4l.65.4a90.81 90.81 0 0 1-1.118-.753l-.294-.2-.483-.345c-.208-.15-.418-.3-.635-.441a2.337 2.337 0 0 0-.165-.1l-.657-.45c-.376-.26-.758-.5-1.143-.745l-.581-.363c-.189-.119-.38-.236-.564-.363-.373-.249-.733-.515-1.084-.8s-.693-.573-1.027-.877-.67-.608-1-.925l-.983-.954c-.33-.322-.649-.646-.993-.966-.68-.641-1.384-1.242-2.058-1.86a19.143 19.143 0 0 1-.974-.957 13.244 13.244 0 0 1-.45-.506c-.07-.086-.142-.169-.212-.259l-.209-.27c-.28-.376-.565-.741-.832-1.109a8.187 8.187 0 0 1-.492-.765c.657.083 1.313.2 1.963.351.79.185 1.574.4 2.347.654s1.537.528 2.292.82 1.5.6 2.241.927c.371.158.734.332 1.1.5s.723.348 1.084.52l1.066.546c.349.193.7.377 1.046.575l.511.3c.171.1.341.2.511.306l.512.315.248.155.251.161q1 .644 1.995 1.3a71.414 71.414 0 0 1 3.849 2.716q.93.707 1.835 1.438c.3.245.6.492.89.744s.584.5.873.755.567.5.851.774.559.534.847.8l.851.789c.283.259.563.521.836.787a21.216 21.216 0 0 1 1.568 1.652 8.2 8.2 0 0 1 .669.909 3.319 3.319 0 0 1 .446 1.026h.035a2.559 2.559 0 0 0-.081-.601z" fill="#293644"/>
</svg>
