<svg xmlns="http://www.w3.org/2000/svg" viewBox="2.24 -14.76 1911.52 358.52">
	<path fill="#29dcf0" d="M472.672 141.485c4.626 6.498 8.082 15.232 7.695 33.603-5.207 57.695-54.17 94.125-102.947 94.125-52.764 0-89.914-37.985-112.265-80.407-5.284-10.029-9.106-21.296-12.71-30.94-7.051 9.594-21.918 25.233-29.496 32.51a186.19 186.19 0 0 0 17.864 36.914c5.953 9.292 20.92 30.3 42.481 46.924 19.54 15.066 38.278 24.311 59.483 29.598 36.1 9 74.963 2.651 105.586-14.89 38.353-21.97 65.378-62.45 70.268-104.474-9.45-15.631-29.924-34.136-45.96-42.963zm-322.627-15.28a71.015 71.015 0 0 1 37.795 10.836c9.1-9.772 17.13-19.707 25.478-29.795A110.306 110.306 0 0 0 39.68 197.617a111.177 111.177 0 0 0 1.3 16.969 153.17 153.17 0 0 0 39.005-3.128 72.167 72.167 0 0 1-1.353-13.84 71.412 71.412 0 0 1 71.413-71.413z"/>
	<path fill="#e1251b" d="M150.045 307.982a110.342 110.342 0 0 1-95.553-55.114c15.055-.67 30.28-2.016 44.48-5.359a71.182 71.182 0 0 0 51.073 21.52s43.928 3.386 84.959-29.065c0 0 15.445 21.998 27.302 30.267 0 0-38.712 37.75-112.261 37.75zm364.294-182.81c-16.873-12.268-47.482-26.998-84.135-26.998-36.511 0-73.077 14.218-98.8 39.547-18.706 18.42-27.814 33.357-48.568 58.239a170.765 170.765 0 0 0 27.587 32.244c2.681-3.916 17.707-25.257 29.09-40.263 14.472-19.078 29.297-34.333 51.63-43.173a104.21 104.21 0 0 1 127.326 41.579 144.965 144.965 0 0 0-4.13-61.175z"/>
	<path fill="#304ffe" d="M435.747 34.867c-52.19-21.927-102.99-15.52-153.256 21.413-44.328 32.57-61.924 65.38-90.311 93.605-33.878 33.685-59.355 45.016-79.513 52.642-20.835 7.881-49.897 13.253-71.686 12.059a110.61 110.61 0 0 0 13.51 38.284c55.608-.95 94.805-22.231 120.09-37.649 22.11-13.48 55.383-47.444 72.832-69.402 28.05-35.298 64.539-69.058 97.993-79.647 46.673-14.772 92.116 5.894 114.032 35.076 35.627 9.729 43.217 17.378 56.177 28.528-4.761-20.35-27.239-72.797-79.868-94.909z"/>
	<path fill="#212121" d="M584.906 268.718v-22.401h8.877q25.143 0 25.146-26.207v-96.159h26.63v95.736q0 23.671-14.37 36.562-13.74 12.47-38.04 12.47zm87.278-2.536v-142.23h61.29q36.345 0 56.848 20.287 19.44 19.235 19.443 50.722 0 31.494-19.443 50.721-20.714 20.5-56.848 20.5zm26.84-22.825h34.45q23.457 0 36.137-13.103 12.466-12.888 12.468-35.293 0-22.398-12.468-35.294-12.682-13.102-36.137-13.103h-34.45zm280.606-11.835 16.272 16.484q-21.348 20.716-51.99 20.712-34.66 0-56.002-20.5-21.349-20.496-21.345-53.257 0-32.335 21.133-52.834 21.343-20.711 55.369-20.712 31.277 0 52.624 20.923l-16.06 16.272q-14.585-14.581-35.93-14.582-22.617 0-36.772 14.371-14.161 14.376-14.161 36.562 0 22.402 14.584 36.773 14.58 14.373 37.194 14.371a47.838 47.838 0 0 0 35.084-14.583zm30.216 34.66V113.596h24.938v152.586zm103.98 2.536q-28.324 0-45.86-16.696-17.333-16.484-17.33-41.844 0-25.568 17.33-42.058 17.538-16.69 45.86-16.694 28.318 0 45.86 16.694 17.327 16.485 17.329 42.058 0 25.359-17.33 41.844-17.543 16.698-45.86 16.696zm-37.829-58.54q0 16.275 10.988 27.261 10.78 10.78 26.84 10.778 16.06 0 27.052-10.778 11.198-10.986 11.2-27.261 0-16.273-11.2-27.264a37.238 37.238 0 0 0-27.052-10.99 36.517 36.517 0 0 0-26.84 10.99q-10.991 10.992-10.988 27.264zm157.235 58.54q-19.869 0-30.857-11.412-10.568-10.986-10.568-30.222v-73.122h24.727v67.628q0 25.573 24.304 25.572 14.156 0 23.247-8.243 9.511-8.45 9.511-22.19v-62.767h24.727v112.22h-24.727v-16.274q-16.064 18.814-40.364 18.81zm138.634 0q-25.153-.634-41.21-16.908-15.853-16.27-16.484-41.632 0-25.148 16.484-41.846 16.693-16.905 41.21-16.906 26.205 0 41.633 19.02v-56.85h24.515v152.586H1413.5v-16.485q-15.642 19.02-41.633 19.021zm4.439-21.133q17.327 0 27.685-10.991 9.718-10.352 9.72-26.416 0-16.06-9.93-26.63-10.358-10.986-27.475-10.989-17.121 0-27.264 10.99-9.511 10.357-9.508 26.629 0 16.061 9.508 26.416 10.146 10.99 27.264 10.99zm176.203 21.133q-24.091 0-38.674-10.567-15.218-10.986-15.215-30.222 0-27.47 32.755-39.73-16.481-15.219-16.06-32.125 0-16.484 12.467-25.782 12.048-8.877 31.913-8.877 19.23 0 31.068 8.666 12.254 8.875 12.256 24.304 0 12.68-9.508 22.401-8.878 9.09-25.995 16.061l33.178 31.49a64.834 64.834 0 0 0 15.219-26.206l21.556 5.071a106.771 106.771 0 0 1-21.134 35.717l29.585 27.263h-31.91l-13.739-12.47a83.008 83.008 0 0 1-47.762 15.006zm2.959-19.867a46.94 46.94 0 0 0 29.377-9.721l-40.576-38.251q-14.162 6.339-18.809 13.736a19.24 19.24 0 0 0-2.959 10.566q0 10.357 9.297 17.12 9.084 6.552 23.67 6.55zm-.634-68.684q12.888-5.493 18.597-10.144 7.61-6.339 7.61-14.583a14.101 14.101 0 0 0-6.13-12.046q-5.919-4.225-15.004-4.226-12.682 0-18.386 7.396a14.344 14.344 0 0 0-2.96 9.087q0 6.132 4.65 12.47 2.955 4.018 11.623 12.046zm132.248 86.015 61.076-142.23h30.645l61.075 142.23h-29.585l-14.795-36.35h-64.88l-14.793 36.35zm50.722-57.273h50.088l-24.516-62.979zm112.85 57.273v-142.23h26.418v142.23z"/>
</svg>
