<svg xmlns="http://www.w3.org/2000/svg" viewBox="-2.26 -2.26 117.39 49.39">
	<g clip-path="url(#a)">
		<path fill="#253646" d="M64.314 4.196c0 .584-.115 1.13-.346 1.636-.23.508-.54.95-.93 1.326-.39.377-.851.676-1.384.9a4.315 4.315 0 0 1-1.682.333c-.62 0-1.196-.111-1.729-.334a4.574 4.574 0 0 1-1.395-.899 4.203 4.203 0 0 1-.943-1.326 3.909 3.909 0 0 1-.345-1.636c0-.569.115-1.11.345-1.626.23-.514.545-.96.943-1.337a4.574 4.574 0 0 1 1.395-.899A4.436 4.436 0 0 1 59.973 0a4.31 4.31 0 0 1 1.681.334 4.258 4.258 0 0 1 2.314 2.236c.23.515.346 1.057.346 1.626zM46.829 45v-6.34l3.602.046c.875 0 1.686-.173 2.433-.518a6.316 6.316 0 0 0 1.944-1.384 6.572 6.572 0 0 0 1.3-1.994 6.043 6.043 0 0 0 .477-2.374V10.904h6.655v21.532h-.047a12.649 12.649 0 0 1-.49 3.343 12.1 12.1 0 0 1-1.323 3.008 12.74 12.74 0 0 1-2.052 2.536A13.255 13.255 0 0 1 50.145 45h-3.316zm31.487-15.446c.255.077.509.127.763.15.255.023.51.035.764.035.636 0 1.249-.085 1.837-.254a6.757 6.757 0 0 0 1.658-.726 6.13 6.13 0 0 0 2.373-2.663l4.77 4.634a12.56 12.56 0 0 1-2.086 2.236 13.192 13.192 0 0 1-2.553 1.683c-.914.461-1.876.81-2.886 1.049-1.01.238-2.047.357-3.113.357-1.797 0-3.487-.322-5.069-.968a12.844 12.844 0 0 1-4.15-2.697c-1.185-1.153-2.12-2.524-2.803-4.115-.684-1.59-1.026-3.34-1.026-5.245 0-1.952.342-3.735 1.026-5.348.683-1.614 1.618-2.99 2.802-4.127a12.726 12.726 0 0 1 4.151-2.65c1.582-.63 3.272-.946 5.07-.946a13.416 13.416 0 0 1 6.023 1.43c.914.46 1.768 1.025 2.563 1.694a12.682 12.682 0 0 1 2.1 2.247L78.316 29.554zm3.34-12.979a3.858 3.858 0 0 0-.895-.207 9.04 9.04 0 0 0-.918-.046c-.89 0-1.73.157-2.516.472a6.002 6.002 0 0 0-2.052 1.349 6.329 6.329 0 0 0-1.372 2.11c-.334.821-.5 1.747-.5 2.777a9.713 9.713 0 0 0 .154 1.671c.056.3.124.588.203.865.08.277.183.523.31.738l7.586-9.729zm18.701 19.02h-6.56V1.083h6.56v34.51zM113 4.194c0 .585-.115 1.13-.346 1.637-.23.508-.545.95-.942 1.326a4.588 4.588 0 0 1-1.395.9 4.379 4.379 0 0 1-1.706.333 4.379 4.379 0 0 1-1.706-.334 4.281 4.281 0 0 1-2.313-2.225 3.901 3.901 0 0 1-.346-1.636c0-.569.115-1.11.346-1.626.23-.514.54-.96.93-1.337A4.436 4.436 0 0 1 108.611 0c.604 0 1.173.111 1.706.334.532.223.997.523 1.395.9.397.376.712.822.942 1.336.231.515.346 1.057.346 1.626zm-1.121 31.4h-6.56v-24.69h6.56v24.69z"/>
		<path fill="#FF6968" fill-rule="evenodd" d="M37.437.649a1.978 1.978 0 0 1 1.248 1.823v23.171c0 .504-.198.988-.553 1.355l-8.144 8.418a2.078 2.078 0 0 1-2.878.086c-.82-.748-.86-2-.089-2.796l7.592-7.846V7.182L21.378 19.79v23.232a1.98 1.98 0 0 1-1.272 1.834 2.08 2.08 0 0 1-2.227-.459L.573 27.02A1.949 1.949 0 0 1 0 25.644V2.471C0 1.68.487.963 1.238.652a2.08 2.08 0 0 1 2.21.394l10.018 9.358c.811.757.837 2.01.057 2.797a2.078 2.078 0 0 1-2.879.055L4.072 7.118v17.725l13.234 13.29V18.96c0-.532.22-1.04.61-1.413L35.224 1.06a2.08 2.08 0 0 1 2.213-.41z" clip-rule="evenodd"/>
	</g>
	<defs>
		<clipPath id="a">
			<path fill="#fff" d="M0 0h113v45H0z"/>
		</clipPath>
	</defs>
</svg>
