<svg xmlns="http://www.w3.org/2000/svg" width="200" height="128">
	<path d="M55.122 63.106A17.493 17.493 0 0 1 37.83 80.794a17.693 17.693 0 0 1 0-35.376 17.494 17.494 0 0 1 17.292 17.688" fill="#d33833"/>
	<path d="M21.242 67.487S19.99 49.042 36.986 48.515L35.8 46.538l-9.222 3.1-2.635 3.03-2.306 4.414-1.317 5.135.395 3.425" fill="#ef3d3a"/>
	<path d="M25.986 51.04a17.3 17.3 0 0 0-4.912 12.132A17.3 17.3 0 0 0 25.986 75.3a16.506 16.506 0 0 0 11.843 5.019A16.506 16.506 0 0 0 49.673 75.3a17.3 17.3 0 0 0 4.912-12.131 17.3 17.3 0 0 0-4.912-12.129 16.514 16.514 0 0 0-11.844-5.019 16.514 16.514 0 0 0-11.843 5.019zm-.768 25.014A18.372 18.372 0 0 1 20 63.172a18.372 18.372 0 0 1 5.218-12.882 17.578 17.578 0 0 1 12.611-5.342 17.578 17.578 0 0 1 12.612 5.342 18.378 18.378 0 0 1 5.218 12.882 18.376 18.376 0 0 1-5.218 12.882A17.583 17.583 0 0 1 37.829 81.4a17.583 17.583 0 0 1-12.611-5.343" fill="#231f20"/>
	<path d="m45.109 63.2-2.635.4-3.558.4-2.3.066L34.371 64l-1.713-.527-1.515-1.647-1.186-3.36-.263-.724-1.581-.527-.923-1.516-.658-2.173.724-1.911 1.713-.593 1.383.659.659 1.449.791-.131.263-.33-.265-1.52-.066-1.91.395-2.635-.014-1.504 1.2-1.921 2.108-1.515 3.689-1.581 4.084.593 3.557 2.569 1.647 2.634 1.054 1.91.264 4.743-.791 4.085-1.447 3.623-1.38 1.91" fill="#f0d6b7"/>
	<path d="m42.869 74.6-9.421.4v1.581l.791 5.534-.395.461-6.588-2.24-.461-.791-.659-7.445-1.515-4.48-.329-1.054 5.27-3.623 1.647-.659 1.449 1.779 1.252 1.12 1.449.461.659.2.79 3.426.593.724 1.515-.527-1.054 2.043 5.731 2.7-.724.4" fill="#335061"/>
	<path d="m27.256 51.61 1.713-.593 1.383.659.659 1.449.791-.131L32 52.2l-.4-1.512.4-3.623-.329-1.977 1.186-1.383 2.569-2.042-.725-.988-3.623 1.778-1.515 1.186-.857 1.845-1.317 1.778-.4 2.108.263 2.24" fill="#6d6b6d"/>
	<path d="M29.957 45.418s.988-2.437 4.941-3.623.2-.857.2-.857l-4.281 1.647-1.647 1.647-.725 1.318 1.515-.132m-1.979 5.731s-1.384-4.611 3.886-5.27l-.2-.791-3.623.857-1.051 3.425.263 2.24.725-.461" fill="#dcd9d8"/>
	<path d="m30.089 57.276.862-.836a.554.554 0 0 1 .455.506c.066.461.264 4.612 3.1 6.851.259.2-2.107-.329-2.107-.329l-2.109-3.294m11.92-4.15s.154-2 .692-1.843a.74.74 0 0 1 .537.691s-1.306.845-1.229 1.152m5.468-7.312s-1.086.229-1.186 1.185 1.186.2 1.383.132m-8.168-1.251s-1.45.2-1.45 1.119 1.647.857 2.109.462m-9.618 2.701s-2.5-1.516-2.767-.066-.857 2.5.395 4.018l-.856-.263-.791-2.042-.263-1.977 1.515-1.581 1.713.132.988.79.066.989m1.185-4.151s1.12-5.8 6.786-6.917c4.664-.922 7.114.2 8.036 1.252 0 0-4.15-4.941-8.1-3.426S31.8 44.1 31.867 45.879a28.525 28.525 0 0 1 .066 3.03M47.217 43.9s-1.911-.066-1.977 1.647a1.312 1.312 0 0 0 .132.527s1.515-1.713 2.438-.791" fill="#f7e4cd"/>
	<path d="M38.851 46.255s-.328-2.629-2.57-1.1c-1.449.989-1.317 2.372-1.054 2.635s.192.8.393.43.134-1.55.859-1.879 1.912-.7 2.372-.085" fill="#f7e4cd"/>
	<path d="m32.658 64.061-6.192 2.766s2.569 10.211 1.251 13.373l-.922-.329-.066-3.887-1.712-7.378-.725-2.042 6.456-4.348 1.91 1.845m.642 5.647.878 1.072v3.953h-1.059s-.132-2.767-.132-3.1.132-1.515.132-1.515m.198 5.208-2.965.131.857.593 2.108.33" fill="#49728b"/>
	<path d="M43.462 74.667 45.9 74.6l.593 6.061-2.5.329-.527-6.324" fill="#335061"/>
	<path d="m44.12 74.667 3.69-.2s1.515-3.821 1.515-4.018 1.317-5.534 1.317-5.534l-2.964-3.1-.593-.527-1.585 1.587V69l-1.38 5.667" fill="#335061"/>
	<path d="m45.767 74.206-2.3.461.329 1.844c.856.4 2.306-.658 2.306-.658m-.269-13.176 4.612 3.423.131-1.581-3.491-3.228-1.252 1.383" fill="#49728b"/>
	<path d="m35.6 87.645-1.364-5.534-.678-4.084-.11-3.027 6.173-.329h3.841l-.349 6.917.592 5.336-.065.988-5.007.4-3.03-.659" fill="#fff"/>
	<path d="M42.605 74.6a58.283 58.283 0 0 0 .659 11.726 12.578 12.578 0 0 1-4.875 1.581l5.534-.2.659-.395-.791-10.8-.2-2.306" fill="#dcd9d8"/>
	<path d="m46.6 80.135 2.569-.725 4.875-.263.725-2.24-1.318-3.886-1.515-.2-2.108.659-2.022.987-1.074-.2-.832.333" fill="#fff"/>
	<path d="M46.558 78.817a9.684 9.684 0 0 1 1.976-.725l-.724-3.623.856-.329s.593 3.425.593 3.821c0 0 3.689.2 4.018.2a5.978 5.978 0 0 0 .593-3.1l.73 2.109.066 1.186-1.054 1.581-1.186.263-1.976-.066-.659-.856-2.306.329-.725.264" fill="#dcd9d8"/>
	<path d="m43.969 74.14-1.449-3.689-1.515-2.174s.329-.922.79-.922h1.515l1.45.527-.132 2.438-.659 3.82" fill="#fff"/>
	<path d="M44.252 72.888a30.7 30.7 0 0 1-1.844-4.088s.329-.791.79-.593 1.45.725 1.45.725v-1.248l-2.24-.461-1.515.2 2.569 6.061.527.066" fill="#dcd9d8"/>
	<path d="M36.2 64.193 34.371 64l-1.713-.527v.593l.837.923 2.635 1.185" fill="#fff"/>
	<path d="M33.251 64.391s2.042.856 2.7.659l.066.789-1.845-.394-1.12-.791.2-.263" fill="#dcd9d8"/>
	<path d="M46.6 67.579a12.446 12.446 0 0 1-3.012-.415 9.391 9.391 0 0 1 .038-.979 2.354 2.354 0 0 1 1.032-.216 1.793 1.793 0 0 0-1.146-.13 1.854 1.854 0 0 0-.19-.6c.628-.224 2.112-1.7 2.946-1.208.4.232.567 1.555.6 2.2a2.242 2.242 0 0 1-.266 1.354" fill="#d33833"/>
	<path d="M46.6 67.579a12.446 12.446 0 0 1-3.012-.415 9.391 9.391 0 0 1 .038-.979 2.354 2.354 0 0 1 1.032-.216 1.793 1.793 0 0 0-1.146-.13 1.854 1.854 0 0 0-.19-.6c.628-.224 2.112-1.7 2.946-1.208.4.232.567 1.555.6 2.2a2.242 2.242 0 0 1-.268 1.348z" fill="none" stroke="#d33833" stroke-width=".674"/>
	<path d="M41.252 65.752c0 .085-.007.17-.01.255a13.253 13.253 0 0 1-1.295.419 3.363 3.363 0 0 1 1.393.353l-.025.639a22.715 22.715 0 0 1-1.977 1.5 5.224 5.224 0 0 1-1.985.605c-.214-.05-.234-.316-.319-.566a8.1 8.1 0 0 1-.64-2.2c-.046-1.021-.15-2.732.951-2.522a9.8 9.8 0 0 1 2.607.954 2.7 2.7 0 0 0 1.3.562" fill="#d33833"/>
	<path d="M41.252 65.752c0 .085-.007.17-.01.255a13.253 13.253 0 0 1-1.295.419 3.363 3.363 0 0 1 1.393.353l-.025.639a22.715 22.715 0 0 1-1.977 1.5 5.224 5.224 0 0 1-1.985.605c-.214-.05-.234-.316-.319-.566a8.1 8.1 0 0 1-.64-2.2c-.046-1.021-.15-2.732.951-2.522a9.8 9.8 0 0 1 2.607.954 2.7 2.7 0 0 0 1.3.563z" fill="none" stroke="#d33833" stroke-width=".674"/>
	<path d="M41.887 66.97a3.805 3.805 0 0 1-.167-1.2c1.484-.989 1.762 1.7.167 1.2" fill="#d33833"/>
	<path d="M41.887 66.97a3.805 3.805 0 0 1-.167-1.2c1.48-.989 1.762 1.699.167 1.2z" fill="none" stroke="#d33833" stroke-width=".674"/>
	<path d="M44.035 67.421s-.461-.659-.132-.856.659 0 .857-.33 0-.527.065-.922.4-.461.725-.527 1.252-.2 1.383.132l-.4-1.186-.79-.263-2.5 1.449-.131.724v1.45M37.118 69.6q-.119-1.542-.256-3.082c-.14-1.533.368-1.266 1.7-1.266a3.507 3.507 0 0 1 1.325.395c.359.734-.6.571.414 1.125.856.467 2.369-.284 2.023-1.322-.194-.231-1.009-.072-1.3-.224l-1.544-.8c-.655-.34-2.168-.835-2.866-.36-1.769 1.2.111 4.208.742 5.463" fill="#ef3d3a"/>
	<path d="M38.851 46.255c-1.8-.418-2.687.751-3.231 1.964-.486-.117-.293-.778-.17-1.115.321-.884 1.616-2.06 2.674-1.9.456.069 1.072.485.727 1.052M47.6 48.3h.085a18.574 18.574 0 0 0 1.269 2.48c-.343.8-2.6 1.5-2.562.071.487-.213 1.329-.043 1.761-.315A4.881 4.881 0 0 1 47.6 48.3m-7.829.022a7.537 7.537 0 0 0 1.057 1.98c.247.24.726.533.488 1.2a1.516 1.516 0 0 1-.7.577c-.856.253-2.849.053-2.174-1.014.707.033 1.658.46 2.187-.054-.406-.649-1.13-1.934-.863-2.69m7.513 7.173a7.131 7.131 0 0 1-4.836 1.519 1.43 1.43 0 0 1-.184-1.841c.228.392.084 1.113.72 1.222 1.2.2 2.591-.733 3.453-1.061.534-.9-.046-1.231-.527-1.811-.986-1.188-2.307-2.659-2.259-4.437.4-.289.433.44.49.573a16.222 16.222 0 0 0 2.754 3.774c.232.254.614.5.656.665.123.488-.319 1.073-.267 1.4M30.3 54.623c-.4-.23-.5-1.245-.974-1.274-.678-.041-.554 1.317-.551 2.111a2.477 2.477 0 0 1-.206-2.4c-.39-.192-.565.211-.781.353.278-2.021 2.957-.938 2.512 1.206m17.8 1.717c-.6 1.141-1.448 2.4-3.208 2.435a4.384 4.384 0 0 1 0-1.151 9.257 9.257 0 0 0 3.208-1.284m-8.431.74a11.134 11.134 0 0 0 4.71.609 5.32 5.32 0 0 1 .083 1.155c-1.961.1-4.279-.388-4.793-1.764m-.213 1.101c.776 1.948 3.443 1.724 5.692 1.67a1.2 1.2 0 0 1-.58.66 5.7 5.7 0 0 1-3.709-.016 5.054 5.054 0 0 1-1.39-1.546c-.168-.216-1-.767-.013-.768" fill="#231f20"/>
	<path d="M47.185 68.924a39.6 39.6 0 0 1-2.863 4.537 21.87 21.87 0 0 0 .716-5.26 1.658 1.658 0 0 1 2.147.723" fill="#81b0c4"/>
	<path d="M52.085 74.53c-1.019.2-1.736 1.195-2.73 1.131a3.256 3.256 0 0 1 2.73-1.131m.45 1.595a14.854 14.854 0 0 1-2.65.153c.4-.609 1.936-.4 2.65-.153m.288 1.375c-.934.02-2.095 0-2.983-.073.525-.564 2.377-.209 2.983.073" fill="#231f20"/>
	<path d="M45.428 81.266a21.874 21.874 0 0 1 .54 3.646 3.818 3.818 0 0 1-1.505.325c-.048-1.091-.2-2.76-.151-3.8.34.022.842-.243 1.116-.17" fill="#dcd9d8"/>
	<path d="M43.922 63.979c-.469.306-.869.688-1.319 1.015a2.9 2.9 0 0 1-2.278-.643c.012-.046.086-.025.089-.082 1.069.477 2.428-.194 3.508-.29" fill="#f0d6b7"/>
	<path d="M38.309 71.267c.294-1.273 1.445-1.932 2.49-2.633a21.039 21.039 0 0 1 2.458 4.829 25.239 25.239 0 0 1-4.948-2.2" fill="#81b0c4"/>
	<path d="M44.312 81.436c-.044 1.041.1 2.71.151 3.8a3.818 3.818 0 0 0 1.505-.325 21.874 21.874 0 0 0-.54-3.646c-.274-.072-.776.193-1.116.171zm-10.773-5.919a54.386 54.386 0 0 0 2.329 11.434 15.151 15.151 0 0 0 8.31.151c-.436-2.1-.246-4.648-.5-6.885-.192-1.681-.094-3.373-.358-5.089-2.882-.599-6.954-.14-9.781.389zM44 75.155c-.024 1.8.081 3.578.219 5.382.691-.1 1.161-.174 1.8-.315A38.683 38.683 0 0 0 45.414 75a4.3 4.3 0 0 0-1.414.155zm3.509-.291a4.275 4.275 0 0 0-1.024 0c.148 1.468.505 3.088.631 4.63a4.307 4.307 0 0 0 1.163-.3 9.317 9.317 0 0 0-.77-4.338zm5.313 4.855a2.283 2.283 0 0 0 1.388-2.8 13.258 13.258 0 0 0-.905-3.063c-.272-.412-1.009-.95-1.6-.573-.958.613-2.645.791-3.343 1.533a24.728 24.728 0 0 1 .6 4.245c1.2.075 2.669-.329 3.664.1a13.9 13.9 0 0 0-2.2.554 4.584 4.584 0 0 0 2.387.008zm-9.565-6.256a21.039 21.039 0 0 0-2.457-4.829c-1.045.7-2.2 1.36-2.49 2.633a25.239 25.239 0 0 0 4.947 2.196zm1.781-5.263a21.87 21.87 0 0 1-.716 5.26 39.6 39.6 0 0 0 2.863-4.537 1.658 1.658 0 0 0-2.147-.723zm-2.019-.717c-.41-.044-.757.47-1.289.248-.122.135-.233.281-.357.412 1.175 1.417 1.709 3.427 2.617 5.091a22.384 22.384 0 0 0 .539-5.1c-.67.047-1.041-.6-1.51-.65zm-1.3-1.714a3.805 3.805 0 0 0 .167 1.2c1.596.5 1.314-2.188-.166-1.199zm-1.768-.58a9.8 9.8 0 0 0-2.607-.954c-1.1-.211-1 1.5-.951 2.522a8.1 8.1 0 0 0 .64 2.2c.085.25.105.516.319.566a5.224 5.224 0 0 0 1.985-.605 22.715 22.715 0 0 0 1.977-1.5q.014-.32.025-.639a3.363 3.363 0 0 0-1.393-.353 13.253 13.253 0 0 0 1.295-.419c0-.085.007-.17.01-.255a2.7 2.7 0 0 1-1.299-.562zM33.388 64c-.57.579 1.6 1.369 2.291 1.411 0-.366.208-.712.166-.974A7.27 7.27 0 0 1 33.388 64zm7.026.272c0 .057-.077.036-.089.082a2.9 2.9 0 0 0 2.278.643c.45-.327.85-.709 1.319-1.015-1.08.093-2.439.764-3.508.287zm6.449 1.956c-.031-.643-.2-1.966-.6-2.2-.834-.487-2.318.984-2.946 1.208a1.854 1.854 0 0 1 .19.6 1.793 1.793 0 0 1 1.146.13 2.354 2.354 0 0 0-1.032.216 9.391 9.391 0 0 0-.038.979 12.446 12.446 0 0 0 3.012.415 2.242 2.242 0 0 0 .268-1.351zm-14.435-1.67c-.179-.128-1.391-1.705-1.557-1.639a26.058 26.058 0 0 0-6.071 3.773 33.121 33.121 0 0 1 2.576 12.766c2 .935 3.758 2.284 6.473 2.425-.314-2.223-.6-4.206-.779-6.3-.682-.287-1.661.013-2.3-.089-.006-.769.975-.337 1.056-.854.062-.391-.539-.421-.343-1.037.5.181.761.582 1.293.732.486-1.064-.007-2.946.063-3.836.014-.167.084-.925.458-.792.331.118-.019 2.016.017 2.858a4.418 4.418 0 0 0 .22 2.013 75.042 75.042 0 0 1 8.129-.666 19.69 19.69 0 0 1-2.18-.98c-.441-.249-1.831-.766-1.958-1.185-.2-.667.533-1.023.658-1.595-1.324.723-1.582-.692-1.9-1.694a13.211 13.211 0 0 1-.515-2.109 22.864 22.864 0 0 1-3.342-1.792zM45.7 63.109c1.827-.885 2.156 3.311 1.44 4.663.111.4.491.557.647.92-1.02 1.826-2.152 3.53-3.192 5.335.774-.482 1.879-.086 2.789-.447.333-.131.574-.893.826-1.5a32.736 32.736 0 0 0 1.745-5.391 6.8 6.8 0 0 0 .227-1.483c-.079-.581-.868-1.012-1.269-1.372-.738-.663-1.2-1.247-1.974-1.868-.313.462-.983.771-1.239 1.146zM28.25 46.91c-.87.958-.688 2.753-.583 4.029a2.339 2.339 0 0 1 3.642 1.761c.751-.02.281-.938.145-1.53-.444-1.932.748-4.031.054-5.8a4.779 4.779 0 0 0-3.258 1.54zm6.228-5.558c-1.97.558-4.5 1.99-5.305 3.76.627-.091 1.062-.407 1.68-.446a4.105 4.105 0 0 0 .809.031c.535-.133.987-1.333 1.391-1.78s.867-.622 1.191-1.02c.208-.1.516-.093.527-.406-.09-.091-.185-.17-.293-.139zm10.258.525c-2.046-1.154-5.507-2.022-7.683-.937-1.756.875-4.128 2.323-4.937 4.159.755 1.77-.224 3.393-.287 5.191-.033.957.451 1.792.488 2.834-.259.426-1.049.479-1.6.45-.184-.922-.507-1.957-1.455-2.061a2.2 2.2 0 0 0-2.385 2.125c-.072 1.365 1.048 3.628 2.637 3.471.614-.06.765-.676 1.433-.669.363.723-.559.95-.654 1.467a4.2 4.2 0 0 0 .136.9A12.286 12.286 0 0 0 32 62.451c.8 1.151 2.382 1.325 4.081 1.438.3-.654 1.421-.6 2.149-.429a7.193 7.193 0 0 1-2.356-1.926 4.834 4.834 0 0 1-1.595-2.876c1.46 2.025 2.666 3.794 5.32 4.684 2.008.674 4.353-.308 5.9-1.392a6.773 6.773 0 0 0 1.477-1.819 15.419 15.419 0 0 0 2.318-9.331 10.358 10.358 0 0 0-.538-3.731c-.49-.983-2.147-1.863-3.118-.973-.18-.957.807-1.548 1.966-1.2a10.975 10.975 0 0 0-2.868-3.011zm3.81 31.535c1.6-.794 4.584-2.138 5.586 0a18.073 18.073 0 0 1 1 2.939c.271 1.149-.293 3.565-1.474 3.951a7.006 7.006 0 0 1-3.519.067 1.906 1.906 0 0 1-.428-.561 4.851 4.851 0 0 0-2.447.417c.067.664-.382.771-.8.907-.312 1.238.624 2.853.4 3.982-.16.8-1.149.928-1.875 1.078a6.128 6.128 0 0 0 .081 1.2 1.814 1.814 0 0 1-1.618 1.046c-2.324.279-5.852.405-8.088-.4-.623-1.53-1.115-3.391-1.634-5.138-2.18.233-3.944-.94-5.606-1.709-.575-.267-1.372-.414-1.587-.872a7.845 7.845 0 0 1-.174-2.1 31.933 31.933 0 0 0-.786-6.128c-.243-.942-.667-1.774-.963-2.682a19.292 19.292 0 0 1-.875-2.72c-.185-1.244.986-1.313 1.735-1.852 1.158-.834 2.066-1.294 3.32-2.047a7.52 7.52 0 0 0 1.606-1.041c.254-.515-.434-1.24-.618-1.644A4.928 4.928 0 0 1 29.3 58.3a3.492 3.492 0 0 1-2.331-1.5 5.744 5.744 0 0 1-.66-4.972c.054-.13.324-.384.364-.583a6.762 6.762 0 0 0-.162-1.328c-.072-2.137.362-3.978 1.8-4.622.584-2.326 2.673-3.1 4.642-4.255a14.568 14.568 0 0 1 2.385-1.016c3.006-1.106 7.617-.9 10.111.988a13.593 13.593 0 0 1 3.354 3.712c1.6 3.229 1.483 8.625.366 12.552a12.589 12.589 0 0 1-.672 1.936c-.212.442-.871 1.327-.791 1.718s1.5 1.482 1.807 1.776c.549.529 1.591 1.231 1.675 1.9a6.709 6.709 0 0 1-.518 2.368c-.683 2.287-1.351 4.4-2.126 6.442" fill="#231f20"/>
	<path d="M37.884 57.575c.086-.116.563-.291 1.23.03 0 0-.791.132-.725 1.45l-.329-.066s-.341-1.2-.176-1.414" fill="#f7e4cd"/>
	<path d="M43.659 68.9a.362.362 0 1 1-.362-.363.362.362 0 0 1 .362.363m.363 1.683a.363.363 0 1 1-.363-.363.363.363 0 0 1 .363.363" fill="#1d1919"/>
	<path d="M81.994 55.846q-.556.069-.945.139c-.26.046-.551.111-.876.194a.994.994 0 0 0-.729.543 2.316 2.316 0 0 0-.16.89v10.874a6.252 6.252 0 0 1-.6 2.754 6 6 0 0 1-1.661 2.1 7.676 7.676 0 0 1-2.39 1.259 9.19 9.19 0 0 1-2.821.424 6.583 6.583 0 0 1-4.189-1.251 4.127 4.127 0 0 1-1.591-3.432 3.165 3.165 0 0 1 .729-2.14 2.51 2.51 0 0 1 2.008-.848 2.62 2.62 0 0 1 1.925.709 2.367 2.367 0 0 1 .715 1.751 2.552 2.552 0 0 1-.618 1.647 9.559 9.559 0 0 1-1.411 1.4v.181a1.04 1.04 0 0 0 .544.472 1.99 1.99 0 0 0 .85.195 3.175 3.175 0 0 0 2.626-1.2 5.727 5.727 0 0 0 .955-3.616v-11.14a1.981 1.981 0 0 0-.154-.834 1.337 1.337 0 0 0-.74-.584 5.291 5.291 0 0 0-1.012-.306 15.137 15.137 0 0 0-.984-.181v-1.084h10.529zm16.48 15.313a8.474 8.474 0 0 1-1.174 1.494 7.193 7.193 0 0 1-1.563 1.2 8.61 8.61 0 0 1-1.883.8 8.042 8.042 0 0 1-2.189.271 9.742 9.742 0 0 1-3.55-.584 6.965 6.965 0 0 1-2.467-1.57 6.3 6.3 0 0 1-1.448-2.327 8.6 8.6 0 0 1-.479-2.911 7.3 7.3 0 0 1 2-5.03A7.085 7.085 0 0 1 88.1 60.9a8.139 8.139 0 0 1 3.217-.612 9.16 9.16 0 0 1 3.2.473 5.663 5.663 0 0 1 2.07 1.306 4.739 4.739 0 0 1 1.154 1.869A7.077 7.077 0 0 1 98.1 66.2v.9h-9.395a7.235 7.235 0 0 0 1.1 4.336 4.574 4.574 0 0 0 5.836.771 6.708 6.708 0 0 0 1.777-1.807zm-5.308-5.281q0-.833-.084-1.709a5.675 5.675 0 0 0-.291-1.431 2.213 2.213 0 0 0-.646-.987 1.592 1.592 0 0 0-1.036-.333A1.925 1.925 0 0 0 89.4 62.5a7.367 7.367 0 0 0-.7 3.432zm24.984 8.602h-8.35v-1.015q.264-.027.639-.069a1.761 1.761 0 0 0 .57-.139.889.889 0 0 0 .417-.445 2.288 2.288 0 0 0 .125-.861v-6.5a3.6 3.6 0 0 0-.523-2.133 1.784 1.784 0 0 0-1.539-.716 3.147 3.147 0 0 0-1.038.167 3.868 3.868 0 0 0-.941.486 3.235 3.235 0 0 0-.648.57c-.162.194-.3.366-.411.514V71.8a2.078 2.078 0 0 0 .139.813.967.967 0 0 0 .459.493 2.63 2.63 0 0 0 .555.223 4.341 4.341 0 0 0 .654.138v1.013h-8.45v-1.015c.231-.018.466-.043.7-.076a3.326 3.326 0 0 0 .6-.132 1.024 1.024 0 0 0 .612-.472 1.806 1.806 0 0 0 .166-.834v-8.087a1.787 1.787 0 0 0-.222-.848 1.984 1.984 0 0 0-.584-.681 2.281 2.281 0 0 0-.632-.278 4.483 4.483 0 0 0-.841-.153V60.89l6.629-.361.208.208v2.015h.056c.259-.232.574-.509.945-.834a9.1 9.1 0 0 1 1.028-.792 5.02 5.02 0 0 1 1.348-.57 6.512 6.512 0 0 1 1.778-.236 4.292 4.292 0 0 1 3.4 1.286 4.97 4.97 0 0 1 1.132 3.411v6.809a1.848 1.848 0 0 0 .153.82 1.081 1.081 0 0 0 .57.486 4.8 4.8 0 0 0 .549.195 4 4 0 0 0 .743.138zm19.121 0h-6.55q-1.208-2.121-2.207-3.6t-1.889-2.737l-.818.692v3.029a1.971 1.971 0 0 0 .146.82.926.926 0 0 0 .563.473 3.519 3.519 0 0 0 .583.194 4.073 4.073 0 0 0 .667.111v1.018h-8.629v-1.015q.35-.027.7-.076a3.752 3.752 0 0 0 .616-.132 1 1 0 0 0 .608-.472 1.849 1.849 0 0 0 .161-.834V56.457a2.517 2.517 0 0 0-.2-.952 1.558 1.558 0 0 0-.591-.743 2.49 2.49 0 0 0-.792-.278 6.926 6.926 0 0 0-.959-.139v-1.014l6.92-.362.209.223v14.339q1.026-.917 2.31-2.125t2.062-2a1.837 1.837 0 0 0 .507-.716 2.331 2.331 0 0 0 .048-.3q0-.251-.438-.417a6.558 6.558 0 0 0-1.321-.292V60.7h7.059v.959a14.633 14.633 0 0 0-2.116.73 12.515 12.515 0 0 0-1.588.91q-.57.375-1.1.786T130 65.105q1.36 1.971 2.511 3.652t2.414 3.556a2.105 2.105 0 0 0 1.068.875 5.21 5.21 0 0 0 1.277.277zm8.935 0h-8.782v-1.015c.24-.018.477-.041.708-.069a2.474 2.474 0 0 0 .6-.139 1.151 1.151 0 0 0 .625-.479 1.651 1.651 0 0 0 .181-.827v-8.087a1.612 1.612 0 0 0-.223-.855 1.853 1.853 0 0 0-.555-.591 2.976 2.976 0 0 0-.76-.318 4.947 4.947 0 0 0-.924-.195V60.89l6.809-.361.209.208V71.77a1.553 1.553 0 0 0 .208.827 1.26 1.26 0 0 0 .6.507 4.619 4.619 0 0 0 .611.223 4.192 4.192 0 0 0 .695.138zm-2.029-18.954a2.352 2.352 0 0 1-.813 1.8 2.882 2.882 0 0 1-3.863 0 2.406 2.406 0 0 1 0-3.606 2.868 2.868 0 0 1 3.87 0 2.38 2.38 0 0 1 .806 1.806zm21.649 18.954h-8.351v-1.015q.264-.027.639-.069a1.761 1.761 0 0 0 .57-.139.88.88 0 0 0 .417-.445 2.288 2.288 0 0 0 .125-.861v-6.5a3.6 3.6 0 0 0-.523-2.133 1.784 1.784 0 0 0-1.539-.716 3.147 3.147 0 0 0-1.038.167 3.868 3.868 0 0 0-.941.486 3.235 3.235 0 0 0-.648.57c-.162.194-.3.366-.411.514V71.8a2.1 2.1 0 0 0 .139.813.971.971 0 0 0 .459.493 2.619 2.619 0 0 0 .556.223 4.3 4.3 0 0 0 .653.138v1.013h-8.449v-1.015q.348-.027.7-.076a3.306 3.306 0 0 0 .6-.132 1.021 1.021 0 0 0 .612-.472 1.806 1.806 0 0 0 .166-.834v-8.087a1.787 1.787 0 0 0-.222-.848 1.992 1.992 0 0 0-.583-.681 2.3 2.3 0 0 0-.633-.278 4.487 4.487 0 0 0-.84-.153V60.89l6.628-.361.208.208v2.015h.056c.259-.232.574-.509.945-.834a9.1 9.1 0 0 1 1.028-.792 5.02 5.02 0 0 1 1.348-.57 6.514 6.514 0 0 1 1.779-.236 4.291 4.291 0 0 1 3.4 1.286 4.971 4.971 0 0 1 1.133 3.411v6.809a1.849 1.849 0 0 0 .152.82 1.081 1.081 0 0 0 .57.486 4.8 4.8 0 0 0 .549.195 4.02 4.02 0 0 0 .743.138zm7.726.472a8.9 8.9 0 0 1-2.633-.4 8.651 8.651 0 0 1-1.994-.84l-.417.945h-1.084l-.18-5.184h1.014a6.9 6.9 0 0 0 .695 1.411 7.777 7.777 0 0 0 1.112 1.41 6.284 6.284 0 0 0 1.493 1.056 3.9 3.9 0 0 0 1.8.431 2.991 2.991 0 0 0 1.883-.493 1.83 1.83 0 0 0 .618-1.522 1.463 1.463 0 0 0-.278-.917 2.368 2.368 0 0 0-.764-.625 7.089 7.089 0 0 0-1.188-.473q-.646-.193-1.591-.472a15.19 15.19 0 0 1-1.619-.563 5.531 5.531 0 0 1-1.4-.9 3.924 3.924 0 0 1-1.375-3.127 3.754 3.754 0 0 1 1.646-3.168 7.118 7.118 0 0 1 4.315-1.209 9.923 9.923 0 0 1 2.328.257 11.793 11.793 0 0 1 1.785.563l.292-.82h1.056l.222 4.739h-.972a5.755 5.755 0 0 0-1.668-2.495 3.767 3.767 0 0 0-2.543-1.049 2.8 2.8 0 0 0-1.681.445 1.443 1.443 0 0 0-.612 1.237 1.6 1.6 0 0 0 .9 1.528 11.977 11.977 0 0 0 2.5.889 8.184 8.184 0 0 1 3.635 1.744A3.734 3.734 0 0 1 180 70.172a4.058 4.058 0 0 1-1.786 3.53 7.963 7.963 0 0 1-4.662 1.25z" style="isolation:isolate"/>
</svg>
