<svg xmlns="http://www.w3.org/2000/svg" width="200" height="128">
	<path fill="#02af5d" d="M102.7 60a49.13 49.13 0 0 1-12.59-1.55 16 16 0 0 1-9.84-7.4 87.98 87.98 0 0 0-4.43-6.69 56.7 56.7 0 0 0-9-9.62c-2.12-1.84-4.33-3.58-6.5-5.36-.13-.11-.27-.21-.39-.33a1.59 1.59 0 0 1-.63-1.66 1.76 1.76 0 0 1 1.43-1.16 2.58 2.58 0 0 1 3 1.52A12.47 12.47 0 0 0 67 32.58a18.12 18.12 0 0 0 3.87 3.1 3.68 3.68 0 0 0 2.94.61 5.16 5.16 0 0 0 1.28-.7c.5-.32.7-.31 1 .22a45 45 0 0 0 8.51 11.58 5.37 5.37 0 0 0 1.09.8 17 17 0 0 0 5.53 2.35 12.54 12.54 0 0 0 7.11-.78 30.37 30.37 0 0 0 6-3.26l.6-.38a3 3 0 0 1 3.64.16 11.15 11.15 0 0 0 2.11 1.29 7.34 7.34 0 0 0 5.22 0c1.67-.53 3.29-1.24 4.9-1.92 1.28-.53 2.5-1.22 3.79-1.71a10.38 10.38 0 0 0 4.46-3.58c.77-1 1.5-2 2.26-3a1.74 1.74 0 0 1 2-.74 2.32 2.32 0 0 1 1.55 1.84 1.32 1.32 0 0 1-.62 1.31 3.64 3.64 0 0 1-1.11.47A8.94 8.94 0 0 0 126.5 46a45.82 45.82 0 0 0-1.54 5.6c-.38 1.5-.81 3-2.11 3.94a15.87 15.87 0 0 1-3.24 1.76 31.31 31.31 0 0 1-8.08 2c-2.33.29-4.68.44-7 .64-.72.06-1.43.06-1.83.06zm22.13 40.68c0 .51-.07.95-.07 1.38a2.28 2.28 0 0 0 1.54 2.28 8.39 8.39 0 0 0 5.22 0 2.73 2.73 0 0 0 1.7-3.6 1.73 1.73 0 0 0-1.11-1.11 16.42 16.42 0 0 0-2.68-.5c-1.87-.16-3.74-.21-5.61-.34a5.49 5.49 0 0 1-1.42-.36 3 3 0 0 1-1.6-3.31 3.16 3.16 0 0 1 2.14-2.55c.47-.21 1-.38 1.55-.62-.23-.1-.4-.19-.57-.25a5.39 5.39 0 0 1-3.77-5.18 7.06 7.06 0 0 1 1.95-5.57 8.18 8.18 0 0 1 4.69-2.2 13.74 13.74 0 0 1 6.27.52 6 6 0 0 0 5.94-1.21c.09-.08.19-.14.28-.21h.11l.27.37c.57.91 1.12 1.82 1.7 2.71.19.3.14.45-.11.68a5.32 5.32 0 0 1-4.36 1.2h-.39a1.2 1.2 0 0 0 .09.3c2.08 2.94 1 7.65-3.46 9.21a9.82 9.82 0 0 1-3.69.51 3.84 3.84 0 0 0-2.37 1.48c-.2.48.09.83.72.85 1.37 0 2.74 0 4.11.11a7.34 7.34 0 0 1 5.23 2 5.89 5.89 0 0 1 1.68 3.92 6.73 6.73 0 0 1-1.29 4.73 7.73 7.73 0 0 1-4.72 2.75 16.47 16.47 0 0 1-9.15-.44 5.82 5.82 0 0 1-3.95-4.23 4.76 4.76 0 0 1 .15-2.89c.06-.17.27-.41.41-.42 1.52-.03 3.05-.01 4.57-.01zm3.91-11.6c2.42 0 3.38-1.3 3.37-3.18 0-2.06-1.11-3.23-3.3-3.28a3 3 0 0 0-3.34 3.3 2.92 2.92 0 0 0 3.27 3.16z"/>
	<path fill="#02af5d" d="M120.15 43.25a13.81 13.81 0 0 1-1.82-.59 27.74 27.74 0 0 0-6.75-2.3c-.71-.13-1.42-.27-2.14-.35a5.21 5.21 0 0 0-3.67 1.07c-.61.43-1.21.87-1.84 1.27a2.94 2.94 0 0 1-2.9.22 23.29 23.29 0 0 0-6.23-1.74 13.22 13.22 0 0 0-9.87 2.67c-.79.58-.81.59-1.54 0a15.72 15.72 0 0 1-3.07-4 .39.39 0 0 1 0-.35c1.42-1.77 1.15-3.65.4-5.57a4.31 4.31 0 0 0-2.46-2.54 5.79 5.79 0 0 1-1.58-1 2.45 2.45 0 0 1-.06-3.46.9.9 0 0 1 1.38-.07 4.59 4.59 0 0 1 .82 1A23.86 23.86 0 0 0 83 33a7 7 0 0 0 5.42 2.13 22.57 22.57 0 0 0 4.34-.94 20.79 20.79 0 0 1 7.28-.67 13.08 13.08 0 0 0 3.12-.21 4.17 4.17 0 0 0 3.16-2.75c.39-1 .63-2.06.92-3.1.17-.63.46-1 .8-1 .54.11.61.58.68 1 .28 1.59.5 3.2.85 4.77a9.67 9.67 0 0 0 .89 2.2 4 4 0 0 0 4 2.19 6.56 6.56 0 0 0 3.54-1.06 7.35 7.35 0 0 0 .85-.72c.42-.38.68-.34.84.21s.22 1.09.36 1.63a8.16 8.16 0 0 0 .4 1.3 1.76 1.76 0 0 0 2.4 1.09 10.07 10.07 0 0 0 2.41-1.26 22.5 22.5 0 0 0 5.81-5.41 22.46 22.46 0 0 0 1.31-2.23 4.73 4.73 0 0 1 1.65-2 2.12 2.12 0 0 1 2.43 0 1.6 1.6 0 0 1 .48 2.19 4.06 4.06 0 0 1-1.83 1.64 18.1 18.1 0 0 0-5.44 4.11c-.93 1-1.8 2.11-2.72 3.15a14 14 0 0 1-5.44 3.64 5.77 5.77 0 0 1-.93.24 2.69 2.69 0 0 1-.4 0zm-46.43 7.4a4.83 4.83 0 0 0 .75 5.42A10.67 10.67 0 0 0 76 57.6a23.83 23.83 0 0 0 8.21 4 56.06 56.06 0 0 0 9.77 2 71.89 71.89 0 0 0 11.45.47 56.6 56.6 0 0 0 18.75-3.44 17.58 17.58 0 0 0 6.37-3.89 7.51 7.51 0 0 0 1.17-1.52 4.54 4.54 0 0 0-.07-5 2 2 0 0 1-.28-.59 12.45 12.45 0 0 1 1.49.93 20.2 20.2 0 0 1 2.75 2.46 4.91 4.91 0 0 1-.17 6.82 14.62 14.62 0 0 1-4.54 3.37 39.23 39.23 0 0 1-10.84 3.58c-2.82.53-5.67.9-8.52 1.24-1.77.21-3.57.24-5.36.33-1.18 0-2.37.12-3.55.07-2.85-.13-5.71-.26-8.55-.5a58.54 58.54 0 0 1-13.24-2.64A23.37 23.37 0 0 1 72.38 61a10.54 10.54 0 0 1-1.94-2.32 4.33 4.33 0 0 1-.21-4.23 9.44 9.44 0 0 1 3.49-3.8zm45.35 38.78a14 14 0 0 1-1.65 7.36 8.27 8.27 0 0 1-6 4.2c-4.56.64-8.46-1.29-10.08-5.95a14.68 14.68 0 0 1 .66-11.82 8.14 8.14 0 0 1 6.6-4.63c5.58-.69 9.31 3.13 10.2 7.7.07.4.15.8.19 1.2.01.74.06 1.51.08 1.94zm-5.83.29v-1.57a11.2 11.2 0 0 0-.67-3.62 2.93 2.93 0 0 0-5.56.18 11.09 11.09 0 0 0-.52 2.66 48.27 48.27 0 0 0 0 5 11.59 11.59 0 0 0 .6 2.91 2.93 2.93 0 0 0 3.13 1.81 2.84 2.84 0 0 0 2.41-2.18 14.9 14.9 0 0 0 .61-5.19zm-38.87-3.79V72c0-.76.11-.84.87-.69 1.9.38 3.8.8 5.71 1.12s3.84.54 5.76.79c.72.1 1.45.13 2.17.22a.43.43 0 0 1 .27.32c-.05.57-.15 1.13-.22 1.7 0 .36-.22.47-.57.46h-7.68c-.77 0-.77 0-.77.78v5.55c0 .41.11.55.54.54h6.1c.41 0 .53.13.52.52v3.71c0 .44-.11.59-.57.58h-6c-.42 0-.54.13-.54.55v11.89c0 .46-.11.62-.59.61H75c-.49 0-.6-.16-.6-.61-.02-4.73-.03-9.42-.03-14.11zM61.82 104.7c.79-.8 1.56-1.53 2.28-2.31a5.59 5.59 0 0 0 1.34-3.54c.07-1.2.1-2.4.1-3.6V72.07c0-.78 0-.78.8-.78h4.27c.4 0 .56.1.56.54v25.26a12.72 12.72 0 0 1-.72 4.73 10.26 10.26 0 0 1-5 5.25c-1.13.6-1.13.59-1.94-.37l-1.64-1.94s-.06-.08-.05-.06zm32.7-23.36a31 31 0 0 1 2.7-2.29 4.08 4.08 0 0 1 4.15-.18c-.48 1.64-1 3.24-1.45 4.9a3.51 3.51 0 0 0-2.48-.25 4.2 4.2 0 0 0-2.26 1.56 1.45 1.45 0 0 0-.18.81v14c0 .7 0 .7-.7.7h-3.92c-.73 0-.73 0-.73-.71V84.94a18.23 18.23 0 0 0-.6-4.81c0-.11 0-.23-.07-.38 1.49-.42 3-.85 4.44-1.24a.52.52 0 0 1 .43.29c.23.7.41 1.42.61 2.13a3.4 3.4 0 0 1 .06.41z"/>
	<path fill="#02af5d" d="M118.2 71.35c1.89-.46 3.79-.87 5.66-1.4a36.23 36.23 0 0 0 11.9-5.4 20.39 20.39 0 0 0 3.25-3 8.27 8.27 0 0 0 2.05-7.75c3.83 2.62 5.3 7 2.1 10.75a16.39 16.39 0 0 1-6.63 4.45 34.44 34.44 0 0 1-8.72 2.19 49.49 49.49 0 0 1-7.6.28c-.67.03-1.34-.06-2.01-.12zM66.54 60a8.73 8.73 0 0 1-3.85-3.61 4.68 4.68 0 0 1 .39-5 9.93 9.93 0 0 1 3.22-2.9 24.6 24.6 0 0 1 6.55-2.67c-1 .75-2.08 1.45-3.06 2.24a12.56 12.56 0 0 0-3.74 4.68 7.74 7.74 0 0 0 .33 7zm-11.7-40.07a3.26 3.26 0 0 1 3.39 2.92 2 2 0 0 1-.93 2 1.48 1.48 0 0 1-1.79-.16c-.73-.49-1.45-1-2.16-1.52a1.3 1.3 0 0 1-.52-1.2 2 2 0 0 1 2.01-2.04zm83.08 4.39c-.07-1.44 1.13-2.3 2.43-2.65a1.43 1.43 0 0 1 1.67.52 1.8 1.8 0 0 1 .16 1.92 2.82 2.82 0 0 1-2.69 1.74c-1.31.02-1.6-.51-1.57-1.53zm-63.85-2.66c1 0 1.48.31 1.72 1.15a1.3 1.3 0 0 1-.5 1.47 1.08 1.08 0 0 1-.78.12 7.64 7.64 0 0 1-1.32-.64 1.23 1.23 0 0 1-.51-1.38 1 1 0 0 1 1-.72c.12-.01.26 0 .39 0zm66.06 14.08a1.31 1.31 0 0 1-1.32 1.3c-.83 0-1.67-.7-1.67-1.34a1.74 1.74 0 0 1 1.52-1.62 1.68 1.68 0 0 1 1.47 1.66zM108.12 21a1 1 0 0 1 1.22.95 2 2 0 0 1-.71 2.05.93.93 0 0 1-1.37-.22 4.43 4.43 0 0 1-.34-1.75c.08-.84.39-1.03 1.2-1.03zM70.89 32.09a2.21 2.21 0 0 1-.46-.07 1.24 1.24 0 0 1 0-2.41 1.27 1.27 0 0 1 1.57.59 1.15 1.15 0 0 1 .14.27c.42 1.04.04 1.62-1.25 1.62z"/>
</svg>
