<svg version="1.1" id="Layer_1" xmlns="http://www.w3.org/2000/svg" x="0" y="0" viewBox="0 0 250 101" style="enable-background:new 0 0 250 101" xml:space="preserve">
	<style>
		.st3{fill:#253858}
	</style>
	<switch>
		<g>
			<path d="M96.8-.3H48.1c0 5.8 2.3 11.4 6.4 15.5s9.7 6.4 15.5 6.4h9v8.6c0 12.1 9.8 21.9 21.9 21.9V3.9c.1-2.3-1.8-4.2-4.1-4.2z" style="fill:#2684ff"/>
			<linearGradient id="SVGID_1_" gradientUnits="userSpaceOnUse" x1="24.925" y1="150.407" x2="24.77" y2="150.247" gradientTransform="matrix(133.6178 0 0 -132.8356 -3254.573 20003.447)">
				<stop offset=".18" style="stop-color:#0052cc"/>
				<stop offset="1" style="stop-color:#2684ff"/>
			</linearGradient>
			<path d="M72.7 23.9H24.1c0 12.1 9.8 21.9 21.9 21.9h9v8.7c0 12.1 9.8 21.9 22 21.9V28.1c-.1-2.3-2-4.2-4.3-4.2z" style="fill:url(#SVGID_1_)"/>
			<linearGradient id="SVGID_2_" gradientUnits="userSpaceOnUse" x1="25.211" y1="150.685" x2="25.032" y2="150.51" gradientTransform="matrix(133.6178 0 0 -132.8356 -3315.445 20064.674)">
				<stop offset=".18" style="stop-color:#0052cc"/>
				<stop offset="1" style="stop-color:#2684ff"/>
			</linearGradient>
			<path d="M48.6 48.1H0c0 12.1 9.8 22 22 22h9v8.6c0 12.1 9.8 21.9 21.9 21.9V52.3c0-2.3-1.9-4.2-4.3-4.2z" style="fill:url(#SVGID_2_)"/>
			<path class="st3" d="M133.5 18.7h8.9V64c0 12-5.3 20.3-17.5 20.3-3.6.1-7.3-.5-10.7-1.7v-8.7c2.9 1.1 6.1 1.7 9.2 1.7 7.5 0 10.1-4.5 10.1-11V18.7zm25.1-3.5c1.6-.1 3.2.5 4.4 1.6 1.1 1.1 1.7 2.7 1.6 4.3 0 3.3-2.7 5.9-5.9 5.9-3.3 0-5.9-2.7-5.9-5.9-.1-1.6.5-3.2 1.6-4.4 1.1-1.1 2.7-1.7 4.2-1.5zm-4.3 19h8.5v49.5h-8.5V34.2z"/>
			<path id="D" class="st3" d="M175.7 34.2h8.3v8.7c2.9-5.8 7.9-10 17.5-9.4v8.3C190.6 40.7 184 44 184 54.5v29.3h-8.3V34.2z"/>
			<path class="st3" d="M241.5 34.2v8.7c-3-6.4-8.5-9.7-15.8-9.7-13.9 0-20.8 11.8-20.8 25.8 0 14.6 6.6 25.8 19.8 25.8 7.6 0 13.6-3.3 16.7-9.9v8.9h8.5V34.2h-8.4zm0 26.8c0 11-6.8 15.9-14.5 15.9-8.8 0-13.6-5.9-13.6-17.9 0-11.5 4.9-17.8 14.6-17.8 7.3 0 13.5 4.9 13.5 15.9V61z"/>
		</g>
	</switch>
</svg>
