<svg xmlns="http://www.w3.org/2000/svg" xmlns:xlink="http://www.w3.org/1999/xlink" width="200" height="128">
	<defs>
		<linearGradient id="a" x1="57.622" y1="60.402" x2="47.91" y2="50.386" gradientTransform="matrix(1 0 0 -1 0 108)" gradientUnits="userSpaceOnUse">
			<stop offset=".18" stop-color="#0052cc"/>
			<stop offset="1" stop-color="#2684ff"/>
		</linearGradient>
		<linearGradient id="b" x1="46.972" y1="48.954" x2="35.741" y2="38.026" xlink:href="#a"/>
	</defs>
	<path d="M93.664 42.129h5.229v26.556c0 7.025-3.077 11.884-10.28 11.884a18.642 18.642 0 0 1-6.279-.99V74.5a14.8 14.8 0 0 0 5.407.984c4.417 0 5.943-2.641 5.943-6.451zm14.763-2.029a3.261 3.261 0 0 1 3.48 3.027 3.2 3.2 0 0 1 0 .459 3.486 3.486 0 0 1-6.966.3q-.006-.151 0-.3a3.261 3.261 0 0 1 3.02-3.486 3.294 3.294 0 0 1 .466 0zm-2.562 11.158h5v29.047h-5zM123.3 80.305h-4.879V51.254h4.879v5.11c1.684-3.426 4.589-5.869 10.287-5.519v4.879c-6.392-.66-10.287 1.281-10.287 7.441zm33.7-5.229c-1.855 3.829-5.341 5.81-9.818 5.81-7.725 0-11.62-6.569-11.62-15.107 0-8.193 4.067-15.106 12.2-15.106A9.536 9.536 0 0 1 157 56.364v-5.11h5v29.051h-5zm-8.484 1.162c4.477 0 8.484-2.852 8.484-9.3v-2.321c0-6.45-3.658-9.3-7.923-9.3-5.632 0-8.537 3.717-8.537 10.458.02 6.973 2.806 10.459 7.976 10.459z" fill="#253858"/>
	<path d="M67.432 36.187H44.6a10.307 10.307 0 0 0 10.307 10.306h4.2v4.061a10.3 10.3 0 0 0 10.286 10.313h.02v-22.7a1.981 1.981 0 0 0-1.981-1.98z" fill="#2684ff"/>
	<path d="M56.115 47.563H33.3A10.307 10.307 0 0 0 43.6 57.87h4.206v4.054A10.307 10.307 0 0 0 58.1 72.23V49.544a1.981 1.981 0 0 0-1.985-1.981z" fill="url(#a)"/>
	<path d="M44.832 58.939H22a10.3 10.3 0 0 0 10.293 10.307h4.213V73.3a10.306 10.306 0 0 0 10.306 10.306V60.92a1.981 1.981 0 0 0-1.98-1.981z" fill="url(#b)"/>
</svg>
