<svg xmlns="http://www.w3.org/2000/svg" xmlns:xlink="http://www.w3.org/1999/xlink" width="511.24" height="511.24">
	<defs>
		<linearGradient xlink:href="#b" id="k" gradientUnits="userSpaceOnUse" gradientTransform="rotate(-65.001 -3054.253 -6609.844)" x1="-7708.797" y1="-803.36" x2="-7633.153" y2="-714.907"/>
		<linearGradient xlink:href="#c" id="l" gradientUnits="userSpaceOnUse" gradientTransform="rotate(-65.001 -3054.253 -6609.844)" x1="-8268.639" y1="-813.123" x2="-7728.958" y2="-813.123"/>
		<linearGradient xlink:href="#d" id="m" gradientUnits="userSpaceOnUse" gradientTransform="rotate(-65.001 -3054.253 -6609.844)" x1="-8203.492" y1="-758.994" x2="-7881.895" y2="-758.994"/>
		<linearGradient xlink:href="#e" id="n" gradientUnits="userSpaceOnUse" gradientTransform="rotate(-65.001 -3054.253 -6609.844)" x1="-8238.328" y1="-818.152" x2="-7698.647" y2="-818.152"/>
		<linearGradient xlink:href="#a" id="o" gradientUnits="userSpaceOnUse" gradientTransform="rotate(-65.001 -3054.253 -6609.844)" x1="-8198.968" y1="-810.851" x2="-7915.35" y2="-810.851"/>
		<linearGradient xlink:href="#f" id="p" gradientUnits="userSpaceOnUse" gradientTransform="rotate(-65.001 -3054.253 -6609.844)" x1="-8238.328" y1="-762.297" x2="-7698.647" y2="-762.297"/>
		<linearGradient xlink:href="#g" id="q" gradientUnits="userSpaceOnUse" gradientTransform="rotate(-65.001 -3054.253 -6609.844)" x1="-8271.806" y1="-765.071" x2="-7732.125" y2="-765.071"/>
		<linearGradient xlink:href="#h" id="r" gradientUnits="userSpaceOnUse" gradientTransform="rotate(-65.001 -3054.253 -6609.844)" x1="-8238.328" y1="-745.685" x2="-7698.647" y2="-745.685"/>
		<linearGradient xlink:href="#i" id="s" gradientUnits="userSpaceOnUse" gradientTransform="rotate(-65.001 -3054.253 -6609.844)" x1="-8238.328" y1="-747.586" x2="-7698.647" y2="-747.586"/>
		<linearGradient xlink:href="#j" id="t" gradientUnits="userSpaceOnUse" gradientTransform="rotate(-65.001 -3054.253 -6609.844)" x1="-7935.143" y1="-747.967" x2="-7815.856" y2="-747.967"/>
	</defs>
	<text xml:space="preserve" style="font-size:48px;font-style:normal;font-variant:normal;font-weight:700;font-stretch:normal;line-height:125%;letter-spacing:0;word-spacing:0;fill:#000;fill-opacity:1;stroke:none;font-family:Arial;-inkscape-font-specification:Sans Bold" x="175.767" y="103.829" transform="translate(647.232 288.066)"/>
	<path d="M-645.361 64.332v2.942h-.828v-2.942h-1.042v-.705h2.881v.705h-1.011z" style="fill:#b0afb0" transform="translate(647.232 288.066)"/>
	<path d="m-640.488 64.976-.98 1.992h-.491l-.981-1.992v2.298h-.797v-3.647h1.104l.95 1.992.95-1.992h1.103v3.647h-.797v-2.298z" style="fill:#b0afb0" transform="translate(647.232 288.066)"/>
	<path style="font-size:160.72227478px;font-style:normal;font-variant:normal;font-weight:700;font-stretch:normal;line-height:125%;letter-spacing:0;word-spacing:0;fill:#d22128;fill-opacity:1;stroke:#d22128;stroke-width:3;stroke-linejoin:round;stroke-miterlimit:4;stroke-opacity:1;stroke-dasharray:none;font-family:Droid Sans;-inkscape-font-specification:Droid Sans Bold" d="M-611.922 207.08c-3.4 0-6.383-.182-8.946-.549-2.564-.314-4.735-.706-6.514-1.177v-20.247c1.936.419 3.976.785 6.121 1.099 2.093.314 4.395.47 6.906.47 2.407 0 4.63-.261 6.67-.784 2.094-.523 3.899-1.439 5.416-2.747 1.57-1.256 2.773-2.956 3.61-5.101.89-2.145 1.334-4.84 1.334-8.083V58.6h24.328v110.575c0 6.592-.968 12.269-2.904 17.03-1.883 4.76-4.551 8.685-8.004 11.771-3.401 3.14-7.482 5.441-12.243 6.906-4.76 1.465-10.019 2.198-15.774 2.198" transform="translate(647.232 288.066)"/>
	<path style="font-size:160.72227478px;font-style:normal;font-variant:normal;font-weight:700;font-stretch:normal;line-height:125%;letter-spacing:0;word-spacing:0;fill:#000;fill-opacity:1;stroke:#000;stroke-width:3;stroke-linejoin:round;stroke-miterlimit:4;stroke-opacity:1;stroke-dasharray:none;font-family:Droid Sans;-inkscape-font-specification:Droid Sans Bold" d="M-559.96 58.613v114.719h21.75v-53.375c0-1.465-.041-3.107-.094-4.938 0-1.831-.051-3.73-.156-5.719-.052-1.988-.114-3.99-.219-6.03-.052-2.041-.145-4.034-.25-5.97-.21-4.499-.467-9.155-.781-13.968h.719l25.187 90h22.344l27.156-89.844h.625a948.301 948.301 0 0 1-.531 13.719 237.033 237.033 0 0 1-.25 5.812l-.156 5.875c-.053 1.936-.104 3.774-.157 5.5v58.938h22.688V58.612h-33.125l-26.375 87.72h-.469l-24.781-87.72h-33.125zm227.781 8.312-6.906 18.5-13.156 8.032v10.125h11.437v42.28c0 5.651.671 10.359 2.031 14.126 1.413 3.714 3.344 6.688 5.75 8.937 2.407 2.198 5.267 3.767 8.563 4.657 3.296.889 6.837 1.312 10.656 1.312 3.924 0 7.548-.371 10.844-1.156 3.348-.733 6.125-1.693 8.375-2.844v-17.812a65.403 65.403 0 0 1-6.5 1.968c-2.093.524-4.333.782-6.688.782-2.72 0-4.92-.816-6.593-2.438-1.675-1.622-2.5-4.13-2.5-7.531v-42.281h21.343v-17.97h-21.343V66.926h-15.313zm-61.437 17.032c-5.965 0-11.395.97-16.313 2.906-4.865 1.936-9.057 4.816-12.562 8.687-3.453 3.82-6.158 8.62-8.094 14.375-1.936 5.755-2.906 12.466-2.906 20.157 0 7.586 1.063 14.224 3.156 19.875 2.145 5.598 5.118 10.254 8.937 13.968 3.82 3.663 8.372 6.388 13.657 8.22 5.284 1.83 11.065 2.75 17.343 2.75 3.244 0 6.217-.114 8.938-.376 2.72-.21 5.27-.57 7.625-1.094a58.522 58.522 0 0 0 6.656-1.906 52.555 52.555 0 0 0 6.375-2.812v-18.532a93.93 93.93 0 0 1-6.75 3.063 61.953 61.953 0 0 1-6.687 2.125 58.633 58.633 0 0 1-6.97 1.344c-2.353.261-4.862.375-7.53.375-3.192 0-6.052-.475-8.563-1.47-2.459-.993-4.596-2.418-6.375-4.25-1.726-1.883-3.068-4.175-4.062-6.843-.942-2.72-1.458-5.745-1.563-9.094h53.5V123.8c0-6.382-.877-12.02-2.656-16.937-1.727-4.97-4.235-9.162-7.531-12.563-3.244-3.4-7.23-5.96-11.938-7.687-4.656-1.779-9.88-2.656-15.687-2.656zm144.093 0c-5.964 0-11.394.97-16.312 2.906-4.866 1.936-9.057 4.816-12.563 8.687-3.453 3.82-6.158 8.62-8.093 14.375-1.936 5.755-2.907 12.466-2.907 20.157 0 7.586 1.064 14.224 3.157 19.875 2.145 5.598 5.118 10.254 8.937 13.968 3.82 3.663 8.372 6.388 13.656 8.22 5.285 1.83 11.066 2.75 17.344 2.75 3.244 0 6.217-.114 8.938-.376 2.72-.21 5.27-.57 7.625-1.094a58.522 58.522 0 0 0 6.656-1.906 52.555 52.555 0 0 0 6.375-2.812v-18.532a93.93 93.93 0 0 1-6.75 3.063 61.953 61.953 0 0 1-6.688 2.125 58.633 58.633 0 0 1-6.968 1.344c-2.355.261-4.863.375-7.532.375-3.191 0-6.05-.475-8.562-1.47a18.294 18.294 0 0 1-6.344-4.25c-1.726-1.883-3.1-4.175-4.094-6.843-.941-2.72-1.457-5.745-1.562-9.094h53.5V123.8c0-6.382-.878-12.02-2.656-16.937-1.727-4.97-4.236-9.162-7.532-12.563-3.243-3.4-7.229-5.96-11.937-7.687-4.656-1.779-9.88-2.656-15.688-2.656zm89.97 0c-2.93 0-5.543.361-7.845 1.093-2.25.68-4.293 1.661-6.125 2.97-1.778 1.255-3.378 2.824-4.843 4.655a44.181 44.181 0 0 0-4.094 6.094h-1.188l-3.53-13.156h-18.126v87.719h23.938v-44.657c0-4.133.506-7.612 1.5-10.437 1.046-2.878 2.481-5.18 4.312-6.906 1.884-1.78 4.124-3.06 6.688-3.844 2.616-.785 5.444-1.188 8.53-1.188.524 0 1.185.042 1.97.094.784 0 1.559.052 2.343.156.837.053 1.643.146 2.375.25.733.105 1.3.208 1.72.313V84.644c-.315-.104-.78-.166-1.407-.219a18.32 18.32 0 0 0-1.969-.25 14.364 14.364 0 0 0-2.187-.156 28.988 28.988 0 0 0-2.063-.062zm-233.907 17.03c2.511 0 4.71.465 6.594 1.407 1.883.942 3.463 2.232 4.718 3.906 1.256 1.622 2.185 3.563 2.813 5.813.628 2.25.979 4.707 1.031 7.375h-30.531c.418-6.383 2.008-11.05 4.781-14.031 2.825-2.982 6.356-4.47 10.594-4.47zm144.094 0c2.51 0 4.71.465 6.593 1.407 1.884.942 3.463 2.232 4.72 3.906 1.255 1.622 2.184 3.563 2.812 5.813.627 2.25.979 4.707 1.03 7.375h-30.53c.418-6.383 2.008-11.05 4.78-14.031 2.826-2.982 6.357-4.47 10.595-4.47z" transform="translate(647.232 288.066)"/>
	<g style="font-size:35.26461411px;font-style:normal;font-variant:normal;font-weight:700;font-stretch:normal;line-height:125%;letter-spacing:0;word-spacing:0;fill:#4d4d4d;fill-opacity:1;stroke:none;font-family:Arial;-inkscape-font-specification:Sans Bold">
		<path d="M658.028 171.062h-5.321v-20.731h-6.32v-4.443h17.943v4.443h-6.302v20.731" style="fill:#4d4d4d;font-family:Droid Sans;-inkscape-font-specification:Droid Sans Bold" transform="matrix(.66102 0 0 .66102 52.447 246.461)"/>
		<path d="m678.329 171.062-5.527-19.75h-.155c.068 1.056.126 2.078.172 3.065.023.425.04.861.051 1.309.023.448.04.89.052 1.326.023.436.035.855.035 1.257.011.401.017.763.017 1.084v11.71h-4.77v-25.175h7.266l5.442 19.251h.103l5.786-19.25h7.266v25.173h-4.976v-12.931a369.427 369.427 0 0 0 .069-2.497c.022-.436.04-.86.051-1.274.046-.964.086-1.969.12-3.013h-.137l-5.958 19.715h-4.907" style="fill:#4d4d4d;font-family:Droid Sans;-inkscape-font-specification:Droid Sans Bold" transform="matrix(.66102 0 0 .66102 52.447 246.461)"/>
	</g>
	<path style="fill:#d22128" d="m232.6 277.3 49.3-117.8h9.5l49.3 117.8h-12.4L313 240.5h-53l-15.1 36.8h-12.3zm54.1-104.2-24.2 58.2h47.8l-23.6-58.2z" transform="translate(-31.497 232.365) scale(.34856)"/>
	<path style="fill:#d22128" d="M353.3 277.3V159.5h48.8c20.2 0 34.8 18.7 34.8 37 0 19.2-13.6 37.3-33.8 37.3h-38.3v43.5h-11.5zm11.5-53.8h37.7c13.9 0 22.9-12.8 22.9-27 0-14.8-10.9-26.7-23.9-26.7h-36.7v53.7z" transform="translate(-31.497 232.365) scale(.34856)"/>
	<path style="fill:#d22128" d="m430.5 277.3 49.3-117.8h9.5l49.3 117.8H526l-15.3-36.8h-52.9l-15.1 36.8h-12.2zm54.1-104.2-24.2 58.2h47.8l-23.6-58.2z" transform="translate(-31.497 232.365) scale(.34856)"/>
	<path style="fill:#d22128" d="M594.2 158.8c20.9 0 36.2 10.6 43.5 25.7l-9.3 5.6c-7.5-15.6-22.1-20.9-34.8-20.9-28.2 0-43.6 25.2-43.6 48.9 0 26 19.1 49.6 44.1 49.6 13.3 0 28.9-6.6 36.3-21.9l9.6 5c-7.6 17.6-28.5 27.4-46.6 27.4-32.3 0-55.1-30.9-55.1-60.7 0-28.3 20.4-58.7 55.9-58.7z" transform="translate(-31.497 232.365) scale(.34856)"/>
	<path style="fill:#d22128" d="M749.1 159.5v117.8h-11.6v-55.1h-69.8v55.1h-11.4V159.5h11.4v52.4h69.8v-52.4h11.6z" transform="translate(-31.497 232.365) scale(.34856)"/>
	<path style="fill:#d22128" d="M854.8 267v10.3h-79.1V159.5h77.6v10.3h-66.2v42.5h57.7v9.8h-57.7V267h67.7z" transform="translate(-31.497 232.365) scale(.34856)"/>
	<g transform="translate(261.578 3.509) scale(.65116)">
		<linearGradient id="b" gradientUnits="userSpaceOnUse" x1="-7708.797" y1="-803.36" x2="-7633.153" y2="-714.907" gradientTransform="rotate(-65.001 -3054.253 -6609.844)">
			<stop offset="0" style="stop-color:#f69923"/>
			<stop offset=".312" style="stop-color:#f79a23"/>
			<stop offset=".838" style="stop-color:#e97826"/>
		</linearGradient>
		<path style="fill:url(#k)" d="M267.1 19.6c-8.4 5-22.4 19-39 39.3l15.3 28.9c10.7-15.4 21.7-29.2 32.7-41 .8-.9 1.3-1.4 1.3-1.4-.4.5-.9.9-1.3 1.4-3.6 3.9-14.4 16.5-30.7 41.6 15.7-.8 39.8-4 59.5-7.4 5.9-32.8-5.7-47.8-5.7-47.8s-14.8-23.9-32.1-13.6z"/>
		<path style="fill:none" d="M241.1 184.4c.1 0 .2 0 .3-.1l-2.2.2c-.1.1-.3.1-.4.2.8-.1 1.6-.2 2.3-.3z"/>
		<path style="fill:none" d="M225.5 236.1c-1.2.3-2.5.5-3.8.7 1.3-.2 2.6-.4 3.8-.7z"/>
		<path style="fill:none" d="M119.3 352.2c.2-.4.3-.9.5-1.3 3.4-8.9 6.7-17.5 10-26 3.7-9.4 7.4-18.6 11-27.5 3.8-9.3 7.6-18.4 11.3-27.1 3.9-9.2 7.7-18 11.5-26.5 3.1-6.9 6.1-13.6 9.1-20.1 1-2.2 2-4.3 3-6.4 2-4.2 3.9-8.3 5.8-12.3 1.8-3.7 3.5-7.3 5.2-10.9.6-1.2 1.2-2.4 1.7-3.5l.3-.6-1.9.2-1.5-2.9c-.1.3-.3.6-.4.9-2.7 5.3-5.4 10.7-8 16.2-1.5 3.1-3 6.3-4.6 9.5-4.2 8.8-8.3 17.6-12.3 26.6-4.1 9-8.1 18.1-12 27.1-3.9 8.9-7.6 17.8-11.3 26.7-3.7 8.9-7.3 17.7-10.8 26.5-3.7 9.2-7.3 18.3-10.7 27.3-.8 2-1.6 4.1-2.3 6.1-2.8 7.3-5.5 14.4-8.1 21.5l2.4 4.7 2.1-.2c.1-.2.2-.4.2-.6 3.1-9.5 6.5-18.6 9.8-27.4z"/>
		<path style="fill:none" d="M220.7 236.9z"/>
		<path style="fill:#be202e" d="M215.6 262.2c-2 .4-4 .7-6 1 1-.1 2.1-.3 3.1-.5 1-.1 2-.3 2.9-.5z"/>
		<path style="opacity:.35;fill:#be202e" d="M215.6 262.2c-2 .4-4 .7-6 1 1-.1 2.1-.3 3.1-.5 1-.1 2-.3 2.9-.5z"/>
		<path style="fill:#be202e" d="M220.8 236.9c-.1 0-.1 0 0 0 .3 0 .6-.1.9-.1 1.3-.2 2.6-.4 3.8-.7-1.5.3-3.1.5-4.7.8z"/>
		<path style="opacity:.35;fill:#be202e" d="M220.8 236.9c-.1 0-.1 0 0 0 .3 0 .6-.1.9-.1 1.3-.2 2.6-.4 3.8-.7-1.5.3-3.1.5-4.7.8z"/>
		<linearGradient id="c" gradientUnits="userSpaceOnUse" x1="-8268.639" y1="-813.123" x2="-7728.958" y2="-813.123" gradientTransform="rotate(-65.001 -3054.253 -6609.844)">
			<stop offset=".323" style="stop-color:#9e2064"/>
			<stop offset=".63" style="stop-color:#c92037"/>
			<stop offset=".751" style="stop-color:#cd2335"/>
			<stop offset="1" style="stop-color:#e97826"/>
		</linearGradient>
		<path style="fill:url(#l)" d="M198.2 162.4c4.7-8.7 9.4-17.2 14.1-25.5 4.9-8.6 9.9-16.9 15-25 .3-.5.6-1 .9-1.4 5-7.9 10-15.5 15.1-22.8L228 58.9c-1.1 1.4-2.3 2.8-3.5 4.3-4.4 5.5-9 11.4-13.7 17.7-5.3 7.1-10.7 14.6-16.3 22.5-5.1 7.3-10.3 15-15.5 22.9-4.4 6.8-8.8 13.7-13.2 20.8-.2.3-.3.5-.5.8l19.9 39.3c4.4-8.3 8.7-16.6 13-24.8z"/>
		<linearGradient id="d" gradientUnits="userSpaceOnUse" x1="-8203.492" y1="-758.994" x2="-7881.895" y2="-758.994" gradientTransform="rotate(-65.001 -3054.253 -6609.844)">
			<stop offset="0" style="stop-color:#282662"/>
			<stop offset=".095" style="stop-color:#662e8d"/>
			<stop offset=".788" style="stop-color:#9f2064"/>
			<stop offset=".949" style="stop-color:#cd2032"/>
		</linearGradient>
		<path style="fill:url(#m)" d="M107.5 384.1c-2.6 7.2-5.3 14.6-7.9 22.2 0 .1-.1.2-.1.3-.4 1.1-.8 2.1-1.1 3.2-1.8 5.1-3.3 9.7-6.9 20.1 5.9 2.7 10.6 9.7 15 17.7-.5-8.3-3.9-16.1-10.4-22.1 28.9 1.3 53.9-6 66.7-27.2 1.1-1.9 2.2-3.9 3.2-6-5.9 7.4-13.1 10.6-26.8 9.8h-.1.1c20.1-9 30.2-17.7 39.1-32 2.1-3.4 4.2-7.1 6.3-11.2-17.6 18.1-38 23.2-59.5 19.3L109 380c-.5 1.4-1 2.7-1.5 4.1z"/>
		<linearGradient id="e" gradientUnits="userSpaceOnUse" x1="-8238.328" y1="-818.152" x2="-7698.647" y2="-818.152" gradientTransform="rotate(-65.001 -3054.253 -6609.844)">
			<stop offset=".323" style="stop-color:#9e2064"/>
			<stop offset=".63" style="stop-color:#c92037"/>
			<stop offset=".751" style="stop-color:#cd2335"/>
			<stop offset="1" style="stop-color:#e97826"/>
		</linearGradient>
		<path style="fill:url(#n)" d="M115 348c3.5-9 7.1-18.1 10.7-27.3 3.5-8.8 7.1-17.6 10.8-26.5 3.7-8.9 7.5-17.8 11.3-26.7 3.9-9.1 7.9-18.1 12-27.1 4-8.9 8.2-17.8 12.3-26.6 1.5-3.2 3-6.3 4.6-9.5 2.6-5.4 5.3-10.8 8-16.2.1-.3.3-.6.4-.9L165.4 148c-.3.5-.6 1.1-1 1.6-4.6 7.6-9.3 15.3-13.8 23.2-4.6 8-9.1 16.1-13.5 24.4-3.7 7-7.3 14-10.9 21.1-.7 1.4-1.4 2.9-2.1 4.3-4.3 8.9-8.3 17.6-11.8 25.9-4 9.4-7.5 18.4-10.6 26.9-2 5.6-3.9 11-5.6 16.2-1.4 4.4-2.7 8.9-4 13.3-3 10.4-5.5 20.8-7.6 31.2l20 39.5c2.6-7.1 5.4-14.2 8.1-21.5.8-2 1.6-4 2.4-6.1z"/>
		<linearGradient id="a" gradientUnits="userSpaceOnUse" x1="-8198.968" y1="-810.851" x2="-7915.35" y2="-810.851" gradientTransform="rotate(-65.001 -3054.253 -6609.844)">
			<stop offset="0" style="stop-color:#282662"/>
			<stop offset=".095" style="stop-color:#662e8d"/>
			<stop offset=".788" style="stop-color:#9f2064"/>
			<stop offset=".949" style="stop-color:#cd2032"/>
		</linearGradient>
		<path style="fill:url(#o)" d="M84.2 337.5c-2.5 12.6-4.3 25.2-5.2 37.8 0 .4-.1.9-.1 1.3-6.2-10-23-19.8-22.9-19.7 12 17.4 21.1 34.6 22.4 51.5-6.4 1.3-15.2-.6-25.3-4.3 10.6 9.7 18.5 12.4 21.6 13.1-9.7.6-19.8 7.3-30 15 14.9-6.1 27-8.5 35.6-6.5-13.7 38.7-27.4 81.5-41.1 126.9 4.2-1.2 6.7-4.1 8.1-7.9 2.4-8.2 18.7-62.2 44.1-133.1.7-2 1.5-4 2.2-6.1.2-.6.4-1.1.6-1.7 2.7-7.4 5.5-15 8.4-22.8.7-1.8 1.3-3.5 2-5.3v-.1l-20-39.5c-.2.5-.3.9-.4 1.4z"/>
		<linearGradient id="f" gradientUnits="userSpaceOnUse" x1="-8238.328" y1="-762.297" x2="-7698.647" y2="-762.297" gradientTransform="rotate(-65.001 -3054.253 -6609.844)">
			<stop offset=".323" style="stop-color:#9e2064"/>
			<stop offset=".63" style="stop-color:#c92037"/>
			<stop offset=".751" style="stop-color:#cd2335"/>
			<stop offset="1" style="stop-color:#e97826"/>
		</linearGradient>
		<path style="fill:url(#p)" d="M188.4 190.6c-.6 1.2-1.1 2.3-1.7 3.5-1.7 3.6-3.5 7.2-5.2 10.9-1.9 4-3.8 8.1-5.8 12.3-1 2.1-2 4.2-3 6.4-3 6.5-6 13.2-9.1 20.1-3.8 8.5-7.6 17.3-11.5 26.5-3.7 8.7-7.5 17.8-11.3 27.1-3.6 8.9-7.3 18-11 27.5-3.3 8.4-6.6 17.1-10 26-.2.4-.3.9-.5 1.3-3.3 8.8-6.7 17.9-10.1 27.2-.1.2-.2.4-.2.6l16.1-1.8c-.3-.1-.6-.1-1-.2 19.3-2.4 44.9-16.8 61.4-34.6 7.6-8.2 14.5-17.8 20.9-29.1 4.8-8.4 9.2-17.7 13.5-28.1 3.7-9 7.3-18.8 10.7-29.4-4.4 2.3-9.5 4-15.1 5.2l-3 .6c-1 .2-2 .3-3.1.5 18-6.9 29.3-20.2 37.5-36.6-4.7 3.2-12.4 7.4-21.6 9.5-1.2.3-2.5.5-3.8.7-.3 0-.6.1-1 .1 6.2-2.6 11.5-5.5 16.1-9 1-.7 1.9-1.5 2.8-2.3 1.4-1.2 2.7-2.5 4-3.8.8-.9 1.6-1.7 2.4-2.6 1.8-2.1 3.5-4.4 5-6.9.5-.8 1-1.5 1.4-2.3.6-1.2 1.2-2.3 1.7-3.4 2.5-5 4.5-9.5 6.1-13.5.8-2 1.5-3.8 2.1-5.5.2-.7.5-1.3.7-2 .6-1.9 1.2-3.6 1.6-5.1.6-2.2 1-4 1.2-5.3-.6.5-1.3 1-2.1 1.4-5.4 3.2-14.7 6.2-22.2 7.6l14.8-1.6-14.8 1.6c-.1 0-.2 0-.3.1-.7.1-1.5.2-2.3.4.1-.1.3-.1.4-.2l-50.6 5.5c.1.4 0 .6-.1.7z"/>
		<linearGradient id="g" gradientUnits="userSpaceOnUse" x1="-8271.806" y1="-765.071" x2="-7732.125" y2="-765.071" gradientTransform="rotate(-65.001 -3054.253 -6609.844)">
			<stop offset=".323" style="stop-color:#9e2064"/>
			<stop offset=".63" style="stop-color:#c92037"/>
			<stop offset=".751" style="stop-color:#cd2335"/>
			<stop offset="1" style="stop-color:#e97826"/>
		</linearGradient>
		<path style="fill:url(#q)" d="M245.4 88.4c-4.5 6.9-9.4 14.8-14.7 23.6-.3.5-.6.9-.8 1.4-4.6 7.7-9.4 16.1-14.5 25.4-4.4 8-9 16.5-13.8 25.8-4.2 8-8.4 16.5-12.9 25.5l50.6-5.5c14.7-6.8 21.3-12.9 27.7-21.8 1.7-2.4 3.4-5 5.1-7.7 5.2-8.1 10.3-17 14.8-25.9 4.4-8.6 8.3-17.1 11.2-24.7 1.9-4.9 3.4-9.4 4.5-13.4.9-3.5 1.6-6.8 2.2-10-19.6 3.3-43.7 6.5-59.4 7.3z"/>
		<path style="fill:#be202e" d="M212.7 262.8c-1 .2-2 .3-3.1.5 1-.2 2-.4 3.1-.5z"/>
		<path style="opacity:.35;fill:#be202e" d="M212.7 262.8c-1 .2-2 .3-3.1.5 1-.2 2-.4 3.1-.5z"/>
		<linearGradient id="h" gradientUnits="userSpaceOnUse" x1="-8238.328" y1="-745.685" x2="-7698.647" y2="-745.685" gradientTransform="rotate(-65.001 -3054.253 -6609.844)">
			<stop offset=".323" style="stop-color:#9e2064"/>
			<stop offset=".63" style="stop-color:#c92037"/>
			<stop offset=".751" style="stop-color:#cd2335"/>
			<stop offset="1" style="stop-color:#e97826"/>
		</linearGradient>
		<path style="fill:url(#r)" d="M212.7 262.8c-1 .2-2 .3-3.1.5 1-.2 2-.4 3.1-.5z"/>
		<path style="fill:#be202e" d="M220.7 236.9c.3 0 .6-.1 1-.1-.3 0-.6.1-1 .1z"/>
		<path style="opacity:.35;fill:#be202e" d="M220.7 236.9c.3 0 .6-.1 1-.1-.3 0-.6.1-1 .1z"/>
		<linearGradient id="i" gradientUnits="userSpaceOnUse" x1="-8238.328" y1="-747.586" x2="-7698.647" y2="-747.586" gradientTransform="rotate(-65.001 -3054.253 -6609.844)">
			<stop offset=".323" style="stop-color:#9e2064"/>
			<stop offset=".63" style="stop-color:#c92037"/>
			<stop offset=".751" style="stop-color:#cd2335"/>
			<stop offset="1" style="stop-color:#e97826"/>
		</linearGradient>
		<path style="fill:url(#s)" d="M220.7 236.9c.3 0 .6-.1 1-.1-.3 0-.6.1-1 .1z"/>
		<path style="fill:#be202e" d="M220.8 236.9z"/>
		<path style="opacity:.35;fill:#be202e" d="M220.8 236.9z"/>
		<linearGradient id="j" gradientUnits="userSpaceOnUse" x1="-7935.143" y1="-747.967" x2="-7815.856" y2="-747.967" gradientTransform="rotate(-65.001 -3054.253 -6609.844)">
			<stop offset=".323" style="stop-color:#9e2064"/>
			<stop offset=".63" style="stop-color:#c92037"/>
			<stop offset=".751" style="stop-color:#cd2335"/>
			<stop offset="1" style="stop-color:#e97826"/>
		</linearGradient>
		<path style="fill:url(#t)" d="M220.8 236.9z"/>
	</g>
</svg>
