<svg xmlns="http://www.w3.org/2000/svg" xmlns:xlink="http://www.w3.org/1999/xlink" width="200" height="128">
    <defs>
        <linearGradient id="linear-gradient" x1="26.56" y1="86.94" x2="43.57" y2="49.08" gradientUnits="userSpaceOnUse">
            <stop offset=".32" stop-color="#9e2064"/>
            <stop offset=".63" stop-color="#c92037"/>
            <stop offset=".75" stop-color="#cd2335"/>
            <stop offset="1" stop-color="#e97826"/>
        </linearGradient>
        <linearGradient id="linear-gradient-2" x1="22.39" y1="85.07" x2="39.4" y2="47.21" xlink:href="#linear-gradient"/>
        <linearGradient id="linear-gradient-3" x1="22.09" y1="84.93" x2="39.1" y2="47.07" xlink:href="#linear-gradient"/>
    </defs>
    <path fill="#d22128" d="M62.94 52.69H56.2a.41.41 0 00-.42.41V84a5.47 5.47 0 01-.34 2 2.89 2.89 0 01-.89 1.25 3 3 0 01-1.33.67 9.86 9.86 0 01-3.59.08 19.2 19.2 0 01-1.67-.3.44.44 0 00-.35.09.4.4 0 00-.16.32v5.61a.42.42 0 00.31.4 13.64 13.64 0 001.86.34 18.81 18.81 0 002.53.15 15.47 15.47 0 004.49-.61 9.14 9.14 0 003.55-2 9 9 0 002.33-3.41 13 13 0 00.83-4.87V53.1a.41.41 0 00-.41-.41zM60.87 36.84l-4.76 11.38h1.18l1.46-3.56h5.12l1.48 3.56h1.19l-4.76-11.38zM59 43.77l2.34-5.62 2.28 5.62zM72.47 36.84h-4.71v11.38h1.11V44h3.7a3.43 3.43 0 003.26-3.61 3.54 3.54 0 00-3.36-3.55zm0 6.18h-3.6v-5.18h3.54a2.45 2.45 0 012.31 2.57A2.4 2.4 0 0172.51 43zM80 36.84l-4.79 11.38h1.18l1.46-3.56H83l1.48 3.56h1.21l-4.8-11.38zm-1.9 6.93l2.34-5.62 2.28 5.62zM91 47.29c-2.41 0-4.26-2.28-4.26-4.79 0-2.29 1.49-4.72 4.21-4.72a3.57 3.57 0 013.36 2l.9-.55A4.48 4.48 0 0091 36.77a5.49 5.49 0 00-5.4 5.67c0 2.88 2.21 5.86 5.32 5.86a5 5 0 004.5-2.64l-.92-.49a3.87 3.87 0 01-3.5 2.12zM104.86 41.9h-6.74v-5.06h-1.1v11.38h1.1V42.9h6.74v5.32h1.12V36.84h-1.12v5.06zM109.65 47.22v-4.34h5.57v-.94h-5.57v-4.1h6.39v-1h-7.49v11.38h7.64v-1h-6.54z"/>
    <path d="M99.2 52.69H90a.43.43 0 00-.4.3l-7 23.16L76.12 53a.4.4 0 00-.39-.31h-9.18a.41.41 0 00-.41.42v31.78a.41.41 0 00.41.41h6a.41.41 0 00.42-.41V70.1v-1.37-1.59c0-.59 0-1.11-.06-1.67s0-1.13-.07-1.67c0-.3 0-.61-.05-.92L78.93 85a.43.43 0 00.4.3h6.2a.41.41 0 00.39-.29l6.79-22.46v1.24c0 .41 0 1.05-.07 1.61l-.09 3.16v16.33a.41.41 0 00.42.41h6.23a.41.41 0 00.41-.41V53.11a.41.41 0 00-.41-.42zM120.58 62.71a9 9 0 00-3.45-2.23 12.53 12.53 0 00-4.5-.77 12.86 12.86 0 00-4.68.84 9.56 9.56 0 00-3.63 2.51 11.49 11.49 0 00-2.32 4.13 18 18 0 00-.83 5.72 16.26 16.26 0 00.9 5.65 11.05 11.05 0 002.58 4 10.51 10.51 0 003.93 2.44 15.05 15.05 0 004.94.79c1 0 1.78 0 2.51-.11a15.1 15.1 0 002.17-.31 17.37 17.37 0 001.89-.54 13 13 0 001.82-.81.41.41 0 00.23-.36v-5.19a.42.42 0 00-.21-.35.39.39 0 00-.39 0c-.63.31-1.25.6-1.84.83a17.12 17.12 0 01-1.8.58 15.94 15.94 0 01-1.88.36c-.61.06-1.28.1-2 .1a6.08 6.08 0 01-2.22-.37 4.9 4.9 0 01-1.61-1.08 5.21 5.21 0 01-1-1.75 7.82 7.82 0 01-.39-2h14.3a.41.41 0 00.42-.41v-3.21a14.07 14.07 0 00-.76-4.83 9.58 9.58 0 00-2.18-3.63zm-11.71 6.85a5.46 5.46 0 011.13-3.19 3.45 3.45 0 012.64-1.11 3.62 3.62 0 011.63.35 3.24 3.24 0 011.17 1 4.38 4.38 0 01.71 1.47 8.77 8.77 0 01.25 1.52zM179.72 59.92a2.24 2.24 0 00-.45-.07 5 5 0 00-.56-.07 3.52 3.52 0 00-.64-.05h-.6a7.36 7.36 0 00-2.29.33 6 6 0 00-1.82.88 7 7 0 00-1.42 1.36 12.09 12.09 0 00-.89 1.27l-.83-3.07a.43.43 0 00-.4-.31h-5a.42.42 0 00-.42.41v24.29a.41.41 0 00.42.41h6.63a.41.41 0 00.41-.41V72.51a8.35 8.35 0 01.4-2.74 4.43 4.43 0 011.06-1.77 4.59 4.59 0 011.68-1 8.08 8.08 0 012.24-.31h.55a4.59 4.59 0 01.62 0 5.51 5.51 0 01.63.07 2.72 2.72 0 01.44.08.41.41 0 00.35-.08.42.42 0 00.16-.33v-6.11a.42.42 0 00-.27-.4zM139.93 78.89a17.46 17.46 0 01-1.77.53 7 7 0 01-1.75.2 2.14 2.14 0 01-1.54-.55 2.42 2.42 0 01-.56-1.79V66h5.49a.42.42 0 00.42-.42v-5a.42.42 0 00-.42-.41h-5.49v-4.76a.41.41 0 00-.42-.41h-4.24a.42.42 0 00-.39.27l-1.86 5-3.52 2.15a.42.42 0 00-.21.36v2.8a.42.42 0 00.42.42h2.76v11.3a12.2 12.2 0 00.58 4.06 6.87 6.87 0 001.71 2.64 6 6 0 002.54 1.39 11.76 11.76 0 003.06.38 14 14 0 003.1-.33 9.84 9.84 0 002.41-.83.41.41 0 00.23-.36v-4.97a.4.4 0 00-.18-.34.38.38 0 00-.37-.05zM160.5 62.71a9 9 0 00-3.5-2.23 12.47 12.47 0 00-4.49-.77 12.86 12.86 0 00-4.68.84 9.56 9.56 0 00-3.63 2.51 11.66 11.66 0 00-2.33 4.13 18.25 18.25 0 00-.83 5.72 16.25 16.25 0 00.91 5.65 10.93 10.93 0 002.58 4A10.43 10.43 0 00148.5 85a15.05 15.05 0 004.94.79c.95 0 1.78 0 2.51-.11a15.1 15.1 0 002.17-.31 17.37 17.37 0 001.89-.54 13 13 0 001.82-.81.41.41 0 00.23-.36v-5.19a.42.42 0 00-.21-.35.41.41 0 00-.4 0c-.62.31-1.24.6-1.83.83a17.12 17.12 0 01-1.8.58 16.34 16.34 0 01-1.88.36c-.61.06-1.28.1-2 .1a6.08 6.08 0 01-2.22-.37 4.66 4.66 0 01-1.6-1.08 5.11 5.11 0 01-1.12-1.77 7.4 7.4 0 01-.39-2H163a.41.41 0 00.42-.41v-3.19a14.32 14.32 0 00-.76-4.83 9.71 9.71 0 00-2.16-3.63zm-11.71 6.85a5.39 5.39 0 011.21-3.19 3.44 3.44 0 012.63-1.11 3.64 3.64 0 011.64.35 3.29 3.29 0 011.16 1 4 4 0 01.67 1.39 7.2 7.2 0 01.25 1.52z"/>
    <path d="M49.6 38.77s-1.67-2.7-3.63-1.54a22 22 0 00-4.4 4.44l1.72 3.27A43 43 0 0147 40.3l.14-.15-.14.15a37.85 37.85 0 00-3.48 4.7c-.51.78-1.06 1.67-1.66 2.67a1.4 1.4 0 00-.1.16c-.51.87-1.06 1.83-1.64 2.87s-1 1.87-1.55 2.91-1 1.87-1.46 2.88v.07l-.19.4c-.2.4-.39.81-.59 1.23l-.66 1.39-.33.73c-.34.73-.68 1.49-1 2.27-.42 1-.86 2-1.3 3s-.84 2-1.27 3.06-.82 2-1.24 3.11-.76 1.92-1.13 2.93l-.06.15c-.38 1-.76 2-1.14 3.07v.07c-.05.15-.1.31-.16.46-.3.82-.6 1.65-.9 2.51l-.13.36c-.2.58-.37 1.1-.78 2.27a4.49 4.49 0 011.7 2 3.6 3.6 0 00-1.18-2.49c3.27.14 6.09-.68 7.54-3.07a7.3 7.3 0 00.36-.68 3.13 3.13 0 01-3 1.11 8.73 8.73 0 004.43-3.61 13.42 13.42 0 00.7-1.27 7.11 7.11 0 01-6.71 2.18h-.11a12.94 12.94 0 006.94-3.9 17.34 17.34 0 002.37-3.3 27.6 27.6 0 001.52-3.17c.42-1 .83-2.12 1.22-3.32a6.62 6.62 0 01-1.71.59h-.12l-.41.08h-.15a7.92 7.92 0 004.24-4.14 7.07 7.07 0 01-2.44 1.07 1.91 1.91 0 01-.33.06h-.21a8.4 8.4 0 001.81-1l.32-.25a6.14 6.14 0 00.45-.43c.1-.1.18-.2.27-.3a7.83 7.83 0 00.57-.78c.05-.09.1-.18.16-.27s.13-.25.19-.38c.28-.57.51-1.08.69-1.52.09-.23.17-.43.24-.63s.05-.15.08-.22.13-.4.17-.57.11-.45.14-.59l-.24.16a8.52 8.52 0 01-2.51.85h-.21A7 7 0 0046 53.41c.2-.28.39-.57.58-.87.58-.91 1.16-1.92 1.68-2.93s.93-1.93 1.27-2.79A15.69 15.69 0 0050 45.3a10.55 10.55 0 00.25-1.13c.66-3.71-.65-5.4-.65-5.4z" fill="url(#linear-gradient)"/>
    <path d="M38.19 53.37c.53-1 1.06-1.94 1.6-2.88s1.12-1.91 1.69-2.82a1.4 1.4 0 00.1-.16c.57-.89 1.14-1.75 1.71-2.57l-1.73-3.27-.39.49c-.5.62-1 1.29-1.55 2s-1.21 1.65-1.84 2.55S36.62 48.4 36 49.3s-1 1.55-1.49 2.35a.41.41 0 000 .09l2.25 4.45c.45-.96.94-1.9 1.43-2.82z" fill="url(#linear-gradient-2)"/>
    <path d="M26.43 80.64c.31-.84.62-1.69.95-2.57l.22-.6c.3-.8.6-1.61.92-2.43.08-.23.17-.45.26-.69.4-1 .8-2 1.22-3.08s.8-2 1.22-3l1.28-3c.45-1 .9-2 1.36-3.06s.92-2 1.4-3l.51-1.07q.45-.93.9-1.83a.31.31 0 000-.1l-2.25-4.44a1.74 1.74 0 01-.11.18c-.52.86-1 1.73-1.56 2.63s-1 1.82-1.52 2.75-.83 1.59-1.23 2.39l-.23.48a65.59 65.59 0 00-2.54 5.93q-.34 1-.63 1.83c-.16.51-.31 1-.45 1.51-.34 1.18-.63 2.35-.86 3.52l1.14 2.27L25.35 73v.16a35.27 35.27 0 00-.58 4.27.76.76 0 000 .15 8.76 8.76 0 00-2.6-2.22 12.6 12.6 0 012.54 5.82 5.75 5.75 0 01-2.87-.49 5.71 5.71 0 002.44 1.48 7.05 7.05 0 00-3.39 1.7 7.25 7.25 0 014-.74c-1.54 4.37-3.09 9.21-4.65 14.34a1.35 1.35 0 00.92-.89c.28-.93 2.11-7 5-15l.24-.69a1.59 1.59 0 00.03-.25z" fill="url(#linear-gradient-3)"/>
</svg>
