<svg xmlns="http://www.w3.org/2000/svg" width="200" height="128">
	<path d="M122.887 49a23.578 23.578 0 0 0-.214-3.153l5.427-7.407a30 30 0 0 0-4.94-8.533L114 30.933a22.916 22.916 0 0 0-5.333-3.106l-3.714-8.42a30 30 0 0 0-9.853 0l-3.767 8.42A22.916 22.916 0 0 0 86 30.933l-9.16-1a30.009 30.009 0 0 0-4.94 8.534l5.433 7.406a23.542 23.542 0 0 0-.22 3.127 23.962 23.962 0 0 0 .22 3.133l-5.433 7.4a30.009 30.009 0 0 0 4.94 8.534l9.087-.994a22.665 22.665 0 0 0 5.46 3.167l3.686 8.353a30.008 30.008 0 0 0 9.854 0l3.686-8.353a22.665 22.665 0 0 0 5.46-3.167l9.087.994a30.009 30.009 0 0 0 4.94-8.534l-5.433-7.4a23.962 23.962 0 0 0 .22-3.133zM100 64.013A15.013 15.013 0 1 1 115.013 49 15.012 15.012 0 0 1 100 64.013z" fill="#ffcb6b"/>
	<path d="M60.719 109a5.163 5.163 0 0 1-1.719-.245v-1.815a5.242 5.242 0 0 0 1.358.174q1.464 0 1.465-1.658V93.4h2.294v12.217a3.4 3.4 0 0 1-.874 2.529 3.452 3.452 0 0 1-2.524.854zm.968-18.466a1.269 1.269 0 0 1 .337-.948 1.308 1.308 0 0 1 .961-.332 1.164 1.164 0 0 1 1.28 1.28 1.242 1.242 0 0 1-.337.922 1.271 1.271 0 0 1-.943.337 1.3 1.3 0 0 1-.961-.337 1.242 1.242 0 0 1-.337-.922zm15.293 8.242a5.894 5.894 0 0 1-1.358 4.13 4.865 4.865 0 0 1-3.779 1.485 5.175 5.175 0 0 1-2.676-.684 4.525 4.525 0 0 1-1.788-1.962 6.714 6.714 0 0 1-.625-2.969 5.853 5.853 0 0 1 1.348-4.1A4.886 4.886 0 0 1 71.9 93.2a4.761 4.761 0 0 1 3.711 1.509 5.83 5.83 0 0 1 1.369 4.067zm-7.862 0q0 3.74 2.764 3.74 2.733 0 2.735-3.74 0-3.7-2.754-3.7a2.351 2.351 0 0 0-2.095.957 4.861 4.861 0 0 0-.65 2.743zm18.116 5.424-.323-1.417h-.117a3.238 3.238 0 0 1-1.362 1.183 4.563 4.563 0 0 1-2.017.43 3.954 3.954 0 0 1-2.93-.977 4.046 4.046 0 0 1-.966-2.958V93.4h2.314v6.66a2.9 2.9 0 0 0 .507 1.86 1.941 1.941 0 0 0 1.593.62 2.532 2.532 0 0 0 2.124-.865 4.761 4.761 0 0 0 .678-2.894V93.4h2.305v10.8zm10.556-11a5.463 5.463 0 0 1 1.143.1l-.225 2.138a4.341 4.341 0 0 0-1.016-.118 2.937 2.937 0 0 0-2.23.9 3.251 3.251 0 0 0-.856 2.335v5.645h-2.294V93.4h1.8l.3 1.905h.117a4.27 4.27 0 0 1 1.4-1.534 3.314 3.314 0 0 1 1.861-.571zm12.647 11h-2.3v-6.64a2.9 2.9 0 0 0-.5-1.865 1.935 1.935 0 0 0-1.6-.616 2.536 2.536 0 0 0-2.129.86 4.745 4.745 0 0 0-.673 2.881v5.38h-2.3V93.4h1.8l.323 1.415h.117a3.187 3.187 0 0 1 1.387-1.19 4.626 4.626 0 0 1 1.992-.421q3.887 0 3.887 3.954zm9.95 0-.458-1.5h-.078a4.449 4.449 0 0 1-1.573 1.343 4.963 4.963 0 0 1-2.031.357 3.437 3.437 0 0 1-2.486-.86 3.218 3.218 0 0 1-.893-2.432 2.85 2.85 0 0 1 1.241-2.518 7.126 7.126 0 0 1 3.778-.929l1.866-.058v-.576a2.18 2.18 0 0 0-.484-1.548 1.965 1.965 0 0 0-1.5-.513 5.238 5.238 0 0 0-1.591.243 12.119 12.119 0 0 0-1.465.577l-.742-1.64a8.012 8.012 0 0 1 1.923-.7 8.843 8.843 0 0 1 1.973-.24 4.673 4.673 0 0 1 3.111.9 3.517 3.517 0 0 1 1.049 2.821v7.273zm-3.418-1.562a2.843 2.843 0 0 0 2.007-.7 2.527 2.527 0 0 0 .758-1.958v-.938l-1.387.059a4.767 4.767 0 0 0-2.36.541 1.652 1.652 0 0 0-.736 1.481 1.442 1.442 0 0 0 .429 1.117 1.85 1.85 0 0 0 1.289.393zm10.558 1.562h-2.3V89h2.3zm6.923.191a3.762 3.762 0 0 1-3.154-1.465 8.032 8.032 0 0 1 .015-8.248 3.8 3.8 0 0 1 3.178-1.479 3.722 3.722 0 0 1 3.242 1.572h.117a13.819 13.819 0 0 1-.165-1.836V89h2.305v15.2h-1.8l-.4-1.417h-.107a3.668 3.668 0 0 1-3.231 1.608zm.616-1.856a2.5 2.5 0 0 0 2.06-.8 4.2 4.2 0 0 0 .664-2.584v-.323a4.836 4.836 0 0 0-.664-2.9 2.462 2.462 0 0 0-2.08-.86 2.111 2.111 0 0 0-1.866.982 5.04 5.04 0 0 0-.653 2.8 4.9 4.9 0 0 0 .634 2.738 2.143 2.143 0 0 0 1.905.947z" fill="#555"/>
</svg>
