<svg xmlns="http://www.w3.org/2000/svg" width="200" height="128">
	<path d="M91.59 61.1h3.12v3l.22.06c.11-.23.22-.47.31-.7a3.9 3.9 0 0 1 3.32-2.74 3 3 0 0 1 3.37 2.58l.15.84.2.06.34-.79a3.77 3.77 0 0 1 3-2.65 3.07 3.07 0 0 1 3.81 2.88c.18 2.07.11 4.16.14 6.23v2.76h-3.31v-6.76c0-1.36-.53-2.07-1.61-2.17a2.12 2.12 0 0 0-2.41 1.93c-.12 1.84-.08 3.68-.1 5.52v1.48h-3.21v-6.9c0-1.26-.56-1.92-1.6-2a2.22 2.22 0 0 0-2.39 1.6 6 6 0 0 0-.15 1.34v6h-3.2zm85.13 2.83V57H180v15.64h-3.24v-2.86h-.16c-.2.41-.39.84-.6 1.24a3.49 3.49 0 0 1-3.33 2.08 3.27 3.27 0 0 1-3.16-2.28 10.64 10.64 0 0 1 .12-8 3.2 3.2 0 0 1 3.05-2.08 3.35 3.35 0 0 1 3.25 1.91c.23.43.43.88.64 1.32zm.1 3.09h-.08a9 9 0 0 0 0-1 2.33 2.33 0 0 0-2.19-2.25 2.06 2.06 0 0 0-2.36 2 8.67 8.67 0 0 0 0 2.69 1.88 1.88 0 0 0 1.95 1.75 2.14 2.14 0 0 0 2.41-1.54 9 9 0 0 0 .27-1.67zm-64.9 9.43V61.06h2.88c.14 0 .35.36.36.56v2.28h.21c.12-.27.25-.53.37-.8a3.61 3.61 0 0 1 3.58-2.44 3.49 3.49 0 0 1 3.27 2.72 11.21 11.21 0 0 1 0 6.85 3.52 3.52 0 0 1-3.32 2.76 3.63 3.63 0 0 1-3.58-2.56 1.53 1.53 0 0 0-.52-.73v6.68zm3.23-9.6a12.94 12.94 0 0 0 .1 1.31 2.25 2.25 0 0 0 2.25 2 2 2 0 0 0 2.23-1.91 9.84 9.84 0 0 0 0-2.6 2 2 0 0 0-2.08-1.9 2.23 2.23 0 0 0-2.37 1.82 10.25 10.25 0 0 0-.13 1.28zm33.47-6.12c3.7 0 6 2.37 6 6.21s-2.26 6.11-5.89 6.12-6-2.31-6-6.17 2.21-6.15 5.89-6.16zm-2.69 6.15c.07.48.1 1 .22 1.47a2.32 2.32 0 0 0 2.42 1.9 2.24 2.24 0 0 0 2.51-1.86 9.37 9.37 0 0 0 0-3 2.22 2.22 0 0 0-2.55-1.89 2.29 2.29 0 0 0-2.41 2c-.12.5-.12.9-.19 1.38zM89.1 72.65h-3.16v-3l-.22-.06-.39.85a3.85 3.85 0 0 1-3 2.54 3.05 3.05 0 0 1-3.68-2.6 10.87 10.87 0 0 1-.15-2.06v-7.25h3.28v7.05c0 1.14.45 1.71 1.33 1.91a2.13 2.13 0 0 0 2.46-1.2 4 4 0 0 0 .27-1.47v-6.23h3.26zM167 61.12v11.52h-3.13v-2.93l-.22-.07c-.13.28-.27.56-.39.84a3.78 3.78 0 0 1-4.11 2.52 2.87 2.87 0 0 1-2.67-2.82c-.14-3 0-6 0-9.09h3.16v6.87c0 1.32.56 2 1.62 2.09a2.19 2.19 0 0 0 2.39-1.78 7.61 7.61 0 0 0 .12-1.35V61.1zM132.63 68l2.86.7a4.27 4.27 0 0 1-3.72 4.25 10 10 0 0 1-3.09 0 4.93 4.93 0 0 1-4.23-4.82 10.34 10.34 0 0 1 .18-3.09 5 5 0 0 1 4.73-4.17 10.06 10.06 0 0 1 2.39 0c2.18.32 3.47 1.8 3.78 4.32l-2.9.58c-.08-.19-.17-.37-.25-.56a2.33 2.33 0 0 0-4.48.29 8.06 8.06 0 0 0-.07 2.45 2.25 2.25 0 0 0 2.14 2.2c1.36.1 2-.37 2.53-1.8.04-.11.07-.21.13-.35zm-61.7 8.57V74c.12-.07.16-.12.21-.13 1.46-.06 1.6-.2 1.6-1.7v-11H76v10.92a7.18 7.18 0 0 1 0 1c-.41 2.78-2.17 3.98-5.07 3.48zm66.66-19.63h3.21v15.69h-3.21zm-63.17 2.58a1.77 1.77 0 0 1-.06-3.52 1.77 1.77 0 0 1 .06 3.54z"/>
	<path d="M43.53 73.11h7.2c3.6 0 7.2 0 10.79-.19 4.18-.24 6.91-5.07 5.15-8.89-1.28-2.79-3.47-4-6.79-3.83-.52 0-.76 0-.84-.62a6.69 6.69 0 0 0-7.7-5.73 1.49 1.49 0 0 1-1.59-.7 8.2 8.2 0 0 0-10.69-2 8.85 8.85 0 0 0-3.85 4.93c-.1.3-.48.72-.74.73A6.34 6.34 0 0 0 29.09 60a.83.83 0 0 1-1 .38 10 10 0 0 0-1.9-.19 6.23 6.23 0 0 0-6 5.1 6.44 6.44 0 0 0 3.2 7 8.47 8.47 0 0 0 3.94.85c5.38-.02 10.79-.03 16.2-.03z" fill="#b3e9e7"/>
	<path d="M53.66 68.58a5.94 5.94 0 0 0 1.54-4.2 5.54 5.54 0 0 0-8.86-4.22 5.38 5.38 0 0 0-2 3.07 5.82 5.82 0 0 0 1.22 5.22c-1.24.71-2.4 1.39-3.58 2a.57.57 0 0 1-.44 0c-.64-.26-1.26-.55-1.89-.82 1.63-3.31 1.49-5.31-.46-7a4.68 4.68 0 0 0-7.51 2.05 5.11 5.11 0 0 0 1 5c-1.81.73-3.54 1.42-4.33 3.38h22.43c2.74 0 5.49 0 8.22-.08-.81-2.62-3-3.49-5.34-4.4z" fill="#14a19c"/>
</svg>
