<svg version="1.0" xmlns="http://www.w3.org/2000/svg" width="682.667" height="682.667" viewBox="0 0 512 512">
	<path d="M0 256v256h512V0H0v256zm343.8-153.8-.3 25.3-65.7.3c-36.2.1-65.8.3-65.8.5-.6 3.2-7.7 84.3-7.5 84.5.2.2 6.3-.6 13.7-1.8 82.4-13.3 140 19.5 148.8 84.8 1.5 11.1.8 33.9-1.5 45.2-3 15.1-9.6 30.7-18 42.5-6.2 8.7-19.8 21.4-29.5 27.3-21.3 13.1-44 18.9-78.1 19.9-37.2 1.1-65.6-3.5-91.3-14.8l-7.6-3.4v-25.8c0-14.1.2-25.7.5-25.7s3.1 1.3 6.3 2.9c27.3 13.6 67.4 21.6 95.7 19.2 23-2 37.3-7.7 49.1-19.5 11.8-11.9 16.6-24.9 16.7-45.6.1-29.3-12.8-48.2-39-56.9-20.5-6.8-54-6.6-89.1.5l-7.4 1.5-12.6-7.5c-12.5-7.3-12.7-7.5-12.5-10.8 2.7-36.5 12.4-160.4 12.9-163.6l.5-4.2H344l-.2 25.2z"/>
</svg>
