<?xml version="1.0" standalone="no"?>
<!DOCTYPE svg PUBLIC "-//W3C//DTD SVG 20010904//EN"
 "http://www.w3.org/TR/2001/REC-SVG-20010904/DTD/svg10.dtd">
<svg version="1.0" xmlns="http://www.w3.org/2000/svg"
 width="982.000000pt" height="300.000000pt" viewBox="0 0 982.000000 300.000000"
 preserveAspectRatio="xMidYMid meet">
<metadata>
Created by potrace 1.16, written by Peter Selinger 2001-2019
</metadata>
<g transform="translate(0.000000,300.000000) scale(0.100000,-0.100000)"
fill="#000000" stroke="none">
<path d="M0 1500 l0 -1500 4910 0 4910 0 0 1500 0 1500 -4910 0 -4910 0 0
-1500z m8840 905 l0 -145 -383 0 -383 0 -23 -246 c-12 -136 -20 -248 -19 -250
2 -1 48 4 103 13 126 19 300 12 406 -16 110 -28 189 -72 269 -147 78 -74 128
-161 156 -274 23 -92 15 -297 -16 -395 -51 -165 -163 -292 -323 -369 -122 -59
-210 -78 -387 -84 -216 -7 -385 19 -517 79 l-63 28 0 150 c0 83 2 151 5 151 3
0 27 -11 53 -24 119 -60 325 -106 476 -106 165 0 280 42 359 130 60 67 81 130
82 245 0 110 -20 176 -75 237 -103 118 -307 152 -610 102 l-105 -17 -70 43
c-39 23 -71 43 -72 44 -3 3 65 895 73 954 l5 42 530 0 529 0 0 -145z m-2003
-857 c-3 -8 -6 -5 -6 6 -1 11 2 17 5 13 3 -3 4 -12 1 -19z"/>
</g>
</svg>
