<svg xmlns="http://www.w3.org/2000/svg" width="400" height="400">
	<g fill-rule="evenodd">
		<path d="M107.6 148.8v4.8h6.376c3.82 0 6.476.16 6.624.4.136.22.597.4 1.024.4.427 0 .776.18.776.4 0 .22.283.4.629.4 1.782 0 1.729-1.276 1.76 42.841.019 26.594.171 41.879.42 42.128.215.215.391 1.015.391 1.777 0 1.46 1.127 4.454 1.677 4.454.178 0 .323.54.323 1.2 0 .66.18 1.2.4 1.2.22 0 .4.45.4 1s.18 1 .4 1c.22 0 .4.36.4.8 0 .44.18.8.4.8.22 0 .4.27.4.6 0 .33.159.6.353.6.195 0 .448.36.563.8.115.44.517.8.893.8.79 0 3.391 2.69 3.391 3.507 0 .653.965 1.693 1.571 1.693.236 0 .429.18.429.4 0 .22.294.4.653.4.359 0 .944.334 1.3.743.356.408 1.052.87 1.547 1.027.495.156.9.452.9.657 0 .205.278.373.617.373.339 0 1.003.36 1.475.8.547.51 1.412.8 2.383.8.839 0 1.525.18 1.525.4 0 .22.349.4.776.4.427 0 .888.18 1.024.4.136.22.755.4 1.375.4s1.351.27 1.625.6c.274.33 1.016.6 1.649.6s1.151.18 1.151.4c0 .22.63.4 1.4.4.77 0 1.4.18 1.4.4 0 .226 1.133.4 2.6.4s2.6.174 2.6.4c0 .247 2.107.4 5.52.4 3.76 0 5.673.153 6 .48.373.373.587.373.96 0 .321-.321 2.101-.48 5.376-.48 2.833 0 5.001-.169 5.144-.4.136-.22 1.227-.4 2.424-.4 1.197 0 2.176-.18 2.176-.4 0-.22.72-.4 1.6-.4.88 0 1.6-.18 1.6-.4 0-.22.45-.4 1-.4.622 0 1-.227 1-.6s.378-.6 1-.6c.55 0 1-.18 1-.4 0-.22.54-.4 1.2-.4.66 0 1.2-.18 1.2-.4 0-.22.36-.4.8-.4.44 0 .8-.18.8-.4 0-.22.548-.4 1.218-.4.712 0 1.619-.374 2.181-.9 1.424-1.331 2.14-1.9 2.392-1.9.531 0 8.209-8.034 8.209-8.589 0-.336.18-.611.4-.611.22 0 .4-.193.4-.429 0-.235.225-.679.5-.986 1.239-1.381 1.5-1.789 1.5-2.345 0-.326.18-.704.4-.84.22-.136.4-.597.4-1.024 0-.427.18-.776.4-.776.22 0 .4-.36.4-.8 0-.44.16-.8.355-.8.34 0 .614-.982 1.116-4 .128-.77.409-1.513.624-1.651.216-.137.476-1.127.578-2.2.102-1.072.354-2.309.56-2.749.219-.469.436-14.714.523-34.4.144-32.422.306-38.056 1.083-37.576.198.123.361-.293.361-.925 0-.631.36-1.535.8-2.007.44-.472.8-1.003.8-1.18 0-.177.48-.68 1.066-1.117.586-.437 1.293-1.02 1.571-1.295.278-.275.969-.5 1.534-.5.566 0 1.029-.18 1.029-.4 0-.22.54-.4 1.2-.4.66 0 1.2-.18 1.2-.4 0-.237 1.467-.4 3.6-.4h3.6V144h-48.4v9.6h2.776c1.527 0 2.888.18 3.024.4.136.22.867.4 1.624.4.757 0 1.376.18 1.376.4 0 .22.36.4.8.4.44 0 .8.18.8.4 0 .22.315.401.7.401.385.001 1.06.54 1.5 1.199.44.659.935 1.198 1.1 1.199.165 0 .3.189.3.418 0 .229.36.803.8 1.275.44.472.8 1.095.8 1.383 0 .289.18.525.4.525.22 0 .4.63.4 1.4 0 .77.18 1.4.4 1.4.22 0 .4.799.4 1.776s.18 1.888.4 2.024c.261.161.4 10.73.4 30.4 0 19.67-.139 30.239-.4 30.4-.22.136-.4 1.306-.4 2.6s-.18 2.464-.4 2.6c-.22.136-.4.777-.4 1.424 0 .647-.18 1.176-.4 1.176-.22 0-.4.452-.4 1.005 0 .553-.165 1.318-.366 1.7a40.768 40.768 0 0 0-.982 2.116c-.338.782-1.163 1.995-1.833 2.697-.671.701-1.219 1.539-1.219 1.862 0 .647-2.37 3.166-4.159 4.42a20.655 20.655 0 0 0-2.073 1.7c-.512.495-1.3.9-1.75.9-.45 0-.818.18-.818.4 0 .22-.36.4-.8.4-.44 0-.8.18-.8.4 0 .224-1.107.4-2.52.4-1.386 0-2.691.16-2.9.357-.209.196-1.54.435-2.957.531-1.471.099-2.644.375-2.733.643-.24.72-4.675.61-5.29-.131-.328-.396-1.222-.6-2.625-.6-1.17 0-2.239-.18-2.375-.4-.136-.22-1.227-.4-2.424-.4-1.197 0-2.176-.18-2.176-.4 0-.22-.547-.4-1.216-.4-.89 0-1.635-.428-2.784-1.6-.863-.88-1.741-1.6-1.952-1.6-.604 0-3.478-2.913-4.162-4.218-.34-.65-.994-1.447-1.452-1.77-.459-.324-.834-.898-.834-1.277 0-.378-.18-.799-.4-.935-.22-.136-.4-.856-.4-1.6 0-.744-.18-1.464-.4-1.6-.22-.136-.4-.856-.4-1.6 0-.744-.18-1.464-.4-1.6-.22-.136-.4-1.227-.4-2.424 0-1.197-.18-2.176-.4-2.176-.264 0-.4-12.667-.4-37.2s.136-37.2.4-37.2c.22 0 .4-.54.4-1.2 0-.723.208-1.2.525-1.2.288 0 .911-.36 1.383-.8.793-.739 1.411-.8 8.075-.8h7.217V144h-63.2v4.8m212.8 26.043c0 .243-.256.344-.57.224-.627-.241-2.63 1.545-2.63 2.345 0 .276-.27.606-.6.733-.456.175-.6.916-.6 3.082v2.852l2.097 2.061c2.834 2.783 8.303 4.536 8.303 2.66 0-.22.431-.4.957-.4.527 0 1.061-.27 1.188-.6.126-.33.506-.6.842-.6.337 0 .613-.236.613-.525 0-.288.36-.911.8-1.383.879-.943 1.227-7.292.4-7.292-.22 0-.4-.36-.4-.8 0-.44-.18-.8-.4-.8-.22 0-.4-.27-.4-.6 0-.419-.422-.6-1.4-.6-.77 0-1.4-.18-1.4-.4 0-.235-1.4-.4-3.4-.4-2.219 0-3.4.154-3.4.443m43.6 13.333c0 1.857-.18 3.488-.4 3.624-.22.136-.4.942-.4 1.79 0 .849-.174 1.603-.387 1.677-.213.073-.431.706-.483 1.405-.053.7-.279 1.24-.503 1.2-.225-.039-.47.333-.545.828-.076.495-.305.9-.51.9-.205 0-.372.349-.372.776 0 .427-.18.888-.4 1.024-.22.136-.4.515-.4.842 0 .638-1.735 2.558-2.312 2.558-.503 0-2.088 1.766-2.088 2.326 0 .261-.27.474-.6.474-.33 0-.6.18-.6.4 0 .22-.45.4-1 .4s-1 .18-1 .4c0 .22-.529.4-1.176.4-.647 0-1.288.18-1.424.4-.136.22-.597.4-1.024.4-.689 0-.776.293-.776 2.6v2.6H358v22.376c0 14.487.141 22.464.4 22.624.22.136.4.597.4 1.024 0 .427.18.776.4.776.22 0 .406.315.413.7.018.979.947 2.1 1.742 2.1.366 0 1.476.81 2.466 1.8 1.163 1.163 2.15 1.8 2.79 1.8.544 0 .989.18.989.4 0 .249 2.267.4 6 .4s6-.151 6-.4c0-.22.54-.4 1.2-.4.8 0 1.2-.2 1.2-.6 0-.343.36-.6.84-.6.461 0 1.343-.54 1.96-1.2.617-.66 1.409-1.2 1.76-1.2.352 0 .64-.276.64-.613 0-.336.27-.716.6-.842.33-.127.6-.481.6-.788 0-.306.18-.557.4-.557.22 0 .4-.36.4-.8 0-.44.18-.8.4-.8.22 0 .4-.36.4-.8 0-.44.18-.8.4-.8.22 0 .4-.63.4-1.4 0-.77.18-1.4.4-1.4.22 0 .4-.428.4-.951 0-.523.27-1.175.6-1.449.463-.384.6-1.447.6-4.649V244.8h-2.957c-3.411 0-3.443.033-3.443 3.609 0 1.289-.18 2.455-.4 2.591-.22.136-.4.957-.4 1.824 0 .867-.18 1.576-.4 1.576-.22 0-.4.63-.4 1.4 0 .77-.18 1.4-.4 1.4-.22 0-.4.278-.4.618 0 .678-1.733 2.582-2.349 2.582-.577 0-2.846 1.354-2.848 1.7-.002.165-.813.3-1.803.3-1.333 0-1.8-.156-1.8-.6 0-.33-.283-.6-.629-.6-.345 0-.856-.225-1.134-.5-.278-.275-.985-.858-1.571-1.295-.606-.452-1.066-1.185-1.066-1.7 0-.498-.18-.905-.4-.905-.262 0-.4-7.2-.4-20.8v-20.8h18.4v-6.8H370v-23.6h-6v3.376M240 208c0 .245-1.933.4-5 .4h-5v6h2.576c1.417 0 2.688.18 2.824.4.136.22.879.4 1.652.4 1.492 0 2.548.734 2.548 1.771 0 .346.18.629.4.629.22 0 .4.799.4 1.776s.18 1.888.4 2.024c.257.159.4 6.731.4 18.405 0 18.848-.04 19.342-1.697 21.17-.387.427-.703.922-.703 1.1 0 .179-.619.325-1.376.325-.757 0-1.488.18-1.624.4-.136.22-1.317.4-2.624.4H230.8v5.2h32.4v-5.2H260c-1.867 0-3.2-.167-3.2-.4 0-.22-.27-.4-.6-.4-.808 0-1.987-1.231-2.781-2.903-1.079-2.275-.531-29.267.62-30.477.198-.209.361-.773.361-1.254s.261-1.377.58-1.992c.318-.614.488-1.265.376-1.445-.112-.181-.013-.329.22-.329s.424-.373.424-.829c0-.73.832-1.971 1.322-1.971.099 0 .944-.72 1.878-1.6.934-.88 1.947-1.6 2.249-1.6.303 0 .551-.27.551-.6 0-.369.375-.6.976-.6.537 0 1.088-.18 1.224-.4.139-.225 2.071-.4 4.424-.4 2.517 0 4.176.159 4.176.4 0 .22.36.4.8.4.44 0 .8.135.8.3.001.407 1.822 2.5 2.175 2.5.514 0 1.425 1.133 1.425 1.771 0 .346.18.629.4.629.22 0 .4.36.4.8 0 .44.18.8.4.8.22 0 .4.45.4 1s.18 1 .4 1c.898 0 .506 34.547-.4 35.2-.44.317-.8.807-.8 1.088 0 .34-.605.512-1.8.512-.99 0-1.8.18-1.8.4 0 .22-.99.4-2.2.4h-2.2v5.209l16.1-.104 16.1-.105.119-2.5.119-2.5h-3.219c-1.879 0-3.219-.166-3.219-.4 0-.22-.36-.4-.8-.4-.928 0-2.4-1.335-2.4-2.176 0-.317-.18-.688-.4-.824-.257-.159-.4-6.528-.4-17.795 0-15.065-.085-17.633-.6-18.148-.33-.33-.6-1.243-.6-2.028 0-.786-.18-1.429-.4-1.429-.22 0-.4-.45-.4-1s-.18-1-.4-1c-.22 0-.4-.287-.4-.638 0-.907-1.545-2.962-2.227-2.962-.315 0-.573-.32-.573-.712 0-.391-.36-.971-.8-1.288-.44-.317-.8-.73-.8-.917 0-.569-.926-1.288-2.4-1.864-.77-.301-1.571-.698-1.78-.883-.209-.185-.873-.336-1.476-.336s-1.208-.18-1.344-.4c-.144-.233-2.396-.4-5.4-.4-3.004 0-5.256.167-5.4.4-.136.22-.867.4-1.624.4-.757 0-1.376.18-1.376.4 0 .22-.36.4-.8.4-.44 0-.8.18-.8.4 0 .22-.253.4-.562.4-.915 0-3.838 1.707-3.838 2.241 0 .27-.54.731-1.2 1.023-.66.292-1.2.667-1.2.834 0 .166-.193.302-.429.302-.647 0-1.571 1.058-1.571 1.8 0 .629-.892 1.8-1.371 1.8-.126 0-.229-.726-.229-1.613 0-1.064-.204-1.69-.6-1.842-.447-.172-.6-.884-.6-2.788 0-1.438-.175-2.557-.4-2.557-.22 0-.4-.36-.4-.8 0-.76-.267-.8-5.4-.8-3.333 0-5.4.153-5.4.4m87.4 0c-.154.249-3.988.4-10.175.4-11.287 0-10.74-.173-10.731 3.398.009 3.57-.257 3.402 5.367 3.402 5.242 0 6.939.631 6.939 2.582 0 .34.18.618.4.618.262 0 .4 7.267.4 21s-.138 21-.4 21c-.22 0-.4.193-.4.429 0 1.356-1.99 2.005-6.9 2.252l-3.5.176V268.4h34.8v-5.2h-4c-2.4 0-4-.16-4-.4 0-.22-.294-.4-.653-.4-.754 0-2.147-1.467-2.147-2.261 0-.297-.18-.539-.4-.539-.263 0-.4-8.933-.4-26v-26h-1.976c-1.087 0-2.088.18-2.224.4" fill="#cc0404"/>
		<path d="m47.688 133.5.112 5.1 8.5.108c5.212.066 8.5.26 8.5.5 0 .216.325.392.722.392 1.157 0 3.678 2.556 3.678 3.73 0 .563.18 1.134.4 1.27.263.162.4 16.071.4 46.424 0 30.517-.136 46.176-.4 46.176-.226 0-.4 1.133-.4 2.6s-.174 2.6-.4 2.6c-.22 0-.4.54-.4 1.2 0 .66-.18 1.2-.4 1.2-.22 0-.4.373-.4.829 0 .455-.27 1.098-.6 1.428-.33.33-.6.947-.6 1.372 0 .424-.152.771-.337.771-.319 0-1.747 2.637-2.198 4.06-.115.363-1.122 1.156-2.237 1.763s-2.028 1.346-2.028 1.641c0 .295-.36.536-.8.536-.44 0-.8.18-.8.4 0 .22-.36.4-.8.4-.44 0-.8.18-.8.4 0 .22-.45.4-1 .4s-1 .136-1 .303c0 .166-.717.526-1.594.8-1.954.609-13.206.692-13.206.097 0-.22-.728-.4-1.617-.4-1.064 0-1.91-.274-2.475-.8-.472-.44-1.275-.8-1.783-.8-.509 0-.925-.18-.925-.4 0-.22-.227-.4-.504-.4s-.989-.45-1.583-1c-.593-.55-1.356-1-1.696-1-.339 0-.617-.18-.617-.4 0-.22-.373-.4-.829-.4-1.183 0-1.971-.948-1.971-2.371 0-.676-.18-1.229-.4-1.229-.22 0-.4-.54-.4-1.2 0-.66-.18-1.2-.4-1.2-.817 0-.403-2.434.582-3.418 1.021-1.021 5.018-1.485 5.018-.582 0 .244 1.867.4 4.8.4s4.8-.156 4.8-.4c0-.22.36-.4.8-.4.44 0 .8-.18.8-.4 0-.22.291-.4.647-.4.792 0 3.753-2.98 3.753-3.777 0-.317.18-.687.4-.823.22-.136.4-.597.4-1.024 0-.427.18-.776.4-.776.22 0 .4-.276.4-.613 0-.336.27-.716.6-.842.407-.157.6-.795.6-1.988 0-.966.18-1.757.4-1.757.235 0 .4-1.4.4-3.4s-.165-3.4-.4-3.4c-.22 0-.4-.636-.4-1.413 0-.886-.223-1.498-.6-1.642-.33-.127-.6-.661-.6-1.188 0-.526-.18-.957-.4-.957-.22 0-.4-.36-.4-.8 0-.44-.18-.8-.4-.8-.22 0-.4-.419-.4-.93 0-1.04-1.324-2.434-2.713-2.855-.502-.152-1.312-.668-1.8-1.147-1.43-1.402-2.985-2.268-4.073-2.268-.558 0-1.014-.18-1.014-.4 0-.22-.529-.4-1.176-.4-.647 0-1.288-.18-1.424-.4-.136-.22-1.756-.4-3.6-.4s-3.464.18-3.6.4c-.136.22-.867.4-1.624.4-.757 0-1.376.18-1.376.4 0 .22-.456.4-1.014.4-1.079 0-2.768.921-3.833 2.09-.356.39-.93.71-1.276.71-.347 0-.741.18-.877.4-.136.22-.597.4-1.024.4-.509 0-.776.275-.776.8 0 .44-.18.8-.4.8a.41.41 0 0 0-.4.418c0 .23-.405.852-.9 1.381-1.364 1.458-1.618 1.836-2.7 4.001-.55 1.1-1.135 2.06-1.3 2.133-.165.074-.3.749-.3 1.5 0 .752-.18 1.367-.4 1.367-.543 0-.543 15.464 0 15.8.22.136.4.789.4 1.452 0 .663.27 1.475.599 1.805.33.329.716 1.081.859 1.671.142.59.592 1.55 1 2.134.408.584.742 1.259.742 1.5 0 .241.27.438.6.438.358 0 .6.368.6.912 0 .501.36 1.171.8 1.488.44.317.8.816.8 1.108 0 .736 5.444 6.092 6.192 6.092.334 0 .608.18.608.4 0 .22.27.4.6.4.33 0 .6.188.6.418 0 1.149 3.064 3.182 4.795 3.182.663 0 1.205.18 1.205.4 0 .22.36.4.8.4.44 0 .8.18.8.4 0 .22.63.4 1.4.4.978 0 1.4.181 1.4.6 0 .333.356.6.8.6.44 0 .8.18.8.4 0 .22.63.4 1.4.4.77 0 1.4.18 1.4.4 0 .22.709.4 1.576.4.867 0 1.688.18 1.824.4.136.22 1.306.4 2.6.4s2.464.18 2.6.4c.15.243 3.071.4 7.424.4 4.517 0 7.176-.148 7.176-.4 0-.226 1.133-.4 2.6-.4s2.6-.174 2.6-.4c0-.22.889-.4 1.976-.4s2.088-.18 2.224-.4c.136-.22.766-.4 1.4-.4.634 0 1.264-.18 1.4-.4.136-.22.777-.4 1.424-.4.779 0 1.176-.203 1.176-.6 0-.333.356-.6.8-.6.44 0 .8-.18.8-.4 0-.22.349-.4.776-.4.427 0 .888-.18 1.024-.4.136-.22.741-.4 1.344-.4 1.196 0 3.248-.82 3.253-1.3.002-.165.245-.3.541-.3.724 0 1.862-1.303 1.862-2.131 0-.402.319-.669.8-.669.44 0 .8-.18.8-.4 0-.22.198-.4.44-.4.461 0 2.01-1.541 3.355-3.338.437-.584.953-1.062 1.146-1.062.621 0 3.059-2.932 3.059-3.678 0-.397.18-.722.4-.722.22 0 .4-.529.4-1.176 0-.647.18-1.288.4-1.424.22-.136.4-.597.4-1.024 0-.427.135-.777.3-.779.452-.003 1.7-2.357 1.7-3.206 0-.409.18-.855.4-.991.22-.136.4-.957.4-1.824 0-.867.18-1.576.4-1.576.235 0 .4-1.392.4-3.376 0-1.857.18-3.488.4-3.624.263-.162.4-15.53.4-44.8 0-29.27.137-44.638.4-44.8.22-.136.4-.597.4-1.024 0-.427.23-.776.512-.776.281 0 .771-.36 1.088-.8.317-.44.897-.8 1.288-.8.392 0 .712-.18.712-.4 0-.248 2.203-.4 5.81-.4h5.81l.39-1.026c.427-1.123.523-7.036.138-8.474l-.241-.9H47.576l.112 5.1m76.365 24.9c-.015 3.117.51 3.116.67-.001.071-1.379-.043-2.399-.268-2.399-.215 0-.395 1.08-.402 2.4M224.8 163c0 .596.172.941.4.8.22-.136.4-.496.4-.8 0-.304-.18-.664-.4-.8-.228-.141-.4.204-.4.8m102.4 11.8c0 .22.461.4 1.024.4.58 0 .916-.173.776-.4-.136-.22-.597-.4-1.024-.4-.427 0-.776.18-.776.4m37 9.6c-.155.251.729.4 2.376.4 1.483 0 2.624-.174 2.624-.4 0-.222-1.059-.4-2.376-.4-1.307 0-2.488.18-2.624.4m-33.713 1.209c-.468.75-.446.772.304.304.445-.278.809-.642.809-.809 0-.578-.609-.301-1.113.505M315.2 215.6c0 .22.45.4 1 .4s1-.18 1-.4c0-.22-.45-.4-1-.4s-1 .18-1 .4m32.4 0c0 .246 2 .4 5.2.4s5.2-.154 5.2-.4c0-.246-2-.4-5.2-.4s-5.2.154-5.2.4m22.4 0c0 .255 3.333.4 9.2.4 5.867 0 9.2-.145 9.2-.4s-3.333-.4-9.2-.4c-5.867 0-9.2.145-9.2.4m-201.6 39.235c0 .201.39.365.867.365.476 0 .741-.125.588-.278-.432-.433-1.455-.493-1.455-.087m24-.035c-.455.294-.286.389.7.394.715.003 1.3-.174 1.3-.394 0-.508-1.214-.508-2 0m22.46.242c-.729.824-.26 1.215.521.434.34-.34.619-.722.619-.847 0-.42-.594-.205-1.14.413M384 256.6c0 .33.18.6.4.6.22 0 .4-.27.4-.6 0-.33-.18-.6-.4-.6-.22 0-.4.27-.4.6m-182 8.6c0 .22.349.4.776.4.427 0 .888-.18 1.024-.4.14-.227-.196-.4-.776-.4-.563 0-1.024.18-1.024.4m159.2 0c0 .22.27.4.6.4.33 0 .6-.18.6-.4 0-.22-.27-.4-.6-.4-.33 0-.6.18-.6.4" fill="#4c9c04"/>
	</g>
</svg>
