<svg xmlns="http://www.w3.org/2000/svg" viewBox="0 0 16 16" style="enable-background:new 0 0 16 16" xml:space="preserve">
	<style>
		.st2{fill:#25a162}
	</style>
	<g id="Layer_2">
		<path d="M10.2 1.4c-.7-.2-1.4-.3-2.2-.3-3.9 0-7 3.1-7 7 0 2.7 1.5 5 3.7 6.2l.1-3.3s2 .9 3.2.5c1.2-.4 1.2-.8 1.3-1.6s-.7-1.8-1.7-1.8c-1.3 0-2.1.2-2.1.2l-.6-.5.3-4.7h5.1l-.1-1.7z" style="fill:#dc524a"/>
		<path class="st2" d="M4.7 14.3c1 .5 2.1.8 3.3.8 3.9 0 7.1-3.1 7.1-7 0-2.5-1.5-4.5-3.3-5.8-.4-.3-.9-.6-1.4-.8l.1 3.2H6.7l-.2 2.2s4.3-1 4.4 3c.1 2.8-2.6 3-3.9 3.1-1.7 0-2.6-.6-2.4-.6l.1 1.9z"/>
		<path d="M10.3 3c-.5 0-5.1.1-5.1.1l-.3 4.6.7.6s1.5-.4 2.5-.1c.9.4 1.2.9 1.2 1.8s-.5 1.3-1.2 1.5c-.6.2-1.5.1-1.8 0-.4-.1-1.5-.5-1.5-.5l-.1 1.5s.6.4 1.9.5c1.3.1 3-.1 4-1.4.9-1.2.8-4.4-2.2-4.8-1-.1-1.8.1-1.8.1l.2-2.3h3.7L10.3 3z" style="fill:#fff"/>
	</g>
</svg>
