<svg xmlns="http://www.w3.org/2000/svg" viewBox="-17.91 -17.91 931.32 302.32">
	<g fill="#231f20">
		<path d="M480.207 142.082c0 29.573-10.27 41.637-35.45 41.637-22.462 0-32.66-9.97-34.095-33.323v-3.222h-27.328v3.657c1.446 38.438 21.476 57.123 61.23 57.123 41.785 0 62.972-22.034 62.972-65.484V64.029h-27.33v78.053"/>
		<path d="M878.843 75.115c11.376 0 17.144-5.638 17.144-16.76 0-11.454-5.347-16.563-17.339-16.563-11.856 0-17.143 5.109-17.143 16.564 0 11.903 5.022 16.76 17.338 16.76"/>
		<path d="M864.598 204.086h27.328V91.099h-27.328v112.987"/>
		<path d="M810.5 93.963c-8.782-4.789-19.294-7.118-32.137-7.118-.26 0-.52.005-.776 0h-.416c-8.5 0-37.162 1.565-52.37 21.51l-1.319-17.256h-23.558v112.987h26.94V144.77c0-1.41.1-2.82.286-4.217 1.315-9.808 7.007-18.559 15.244-24.039a40.156 40.156 0 0 1 7.661-3.967c6.86-2.673 14.3-3.613 21.662-3.578 9.544.046 19.958 1.857 27.34 8.37 1.12.988 2.157 2.071 3.097 3.234a28.734 28.734 0 0 1 3.124 4.792c.405.776.776 1.569 1.116 2.376 2.65 5.653 3.939 12.621 3.939 21.302v55.043h26.748v-60.264c0-22.803-9.44-40.51-26.582-49.859"/>
		<path d="M559.444 201.215c8.781 4.79 19.293 7.117 32.135 7.117.262 0 .52-.003.776 0h.417c8.5 0 37.162-1.563 52.37-21.507l1.32 17.254h23.558V91.091h-26.943v59.317c0 1.41-.099 2.82-.285 4.218-1.315 9.808-7.006 18.558-15.243 24.037a40.195 40.195 0 0 1-7.661 3.968c-6.86 2.674-14.302 3.613-21.663 3.577-9.542-.045-19.957-1.855-27.338-8.369a26.677 26.677 0 0 1-3.098-3.233 28.614 28.614 0 0 1-3.125-4.793 32.411 32.411 0 0 1-1.115-2.375c-2.65-5.655-3.938-12.623-3.938-21.302V91.09h-26.75v60.265c0 22.802 9.44 40.509 26.583 49.859"/>
		<path d="M158.48 188.091H63.075l-47.318-82.01L0 133.33l47.319 82.012h95.458l15.704-27.252"/>
		<path d="M149.449 78.573h95.406l47.319 82.011 15.756-27.253-47.319-82.01h-95.458l-15.704 27.252"/>
		<path d="M108.8 164.64 61.124 82.014 108.441 0H76.982L29.663 82.013l47.678 82.628h31.46"/>
		<path d="m199.128 102.027 47.677 82.63-47.317 82.01h31.458l47.319-82.01-47.678-82.63h-31.46"/>
		<path d="m104.285 109.88 47.73-82.627h94.687L230.946 0h-94.688L88.53 82.629l15.755 27.252"/>
		<path d="m203.642 156.787-47.73 82.63H61.227l15.756 27.25h94.688l47.73-82.629-15.758-27.251"/>
	</g>
</svg>
