<svg version="1.0" xmlns="http://www.w3.org/2000/svg" width="1309.333" height="400" viewBox="0 0 982 300">
	<path d="M0 150v150h982V0H0v150zm884-90.5V74h-76.6l-2.3 24.6c-1.2 13.6-2 24.8-1.9 25 .2.1 4.8-.4 10.3-1.3 12.6-1.9 30-1.2 40.6 1.6 11 2.8 18.9 7.2 26.9 14.7 7.8 7.4 12.8 16.1 15.6 27.4 2.3 9.2 1.5 29.7-1.6 39.5-5.1 16.5-16.3 29.2-32.3 36.9-12.2 5.9-21 7.8-38.7 8.4-21.6.7-38.5-1.9-51.7-7.9l-6.3-2.8v-15c0-8.3.2-15.1.5-15.1s2.7 1.1 5.3 2.4c11.9 6 32.5 10.6 47.6 10.6 16.5 0 28-4.2 35.9-13 6-6.7 8.1-13 8.2-24.5 0-11-2-17.6-7.5-23.7-10.3-11.8-30.7-15.2-61-10.2l-10.5 1.7-7-4.3c-3.9-2.3-7.1-4.3-7.2-4.4-.3-.3 6.5-89.5 7.3-95.4l.5-4.2H884v14.5zm-200.3 85.7c-.3.8-.6.5-.6-.6-.1-1.1.2-1.7.5-1.3.3.3.4 1.2.1 1.9z"/>
</svg>
