<?xml version="1.0" standalone="no"?>
<!DOCTYPE svg PUBLIC "-//W3C//DTD SVG 20010904//EN"
 "http://www.w3.org/TR/2001/REC-SVG-20010904/DTD/svg10.dtd">
<svg version="1.0" xmlns="http://www.w3.org/2000/svg"
 width="512.000000pt" height="512.000000pt" viewBox="0 0 512.000000 512.000000"
 preserveAspectRatio="xMidYMid meet">
<metadata>
Created by potrace 1.16, written by Peter Selinger 2001-2019
</metadata>
<g transform="translate(0.000000,512.000000) scale(0.100000,-0.100000)"
fill="#000000" stroke="none">
<path d="M0 2560 l0 -2560 2560 0 2560 0 0 2560 0 2560 -2560 0 -2560 0 0
-2560z m3438 1538 l-3 -253 -657 -3 c-362 -1 -658 -3 -658 -5 -6 -32 -77 -843
-75 -845 2 -2 63 6 137 18 824 133 1400 -195 1488 -848 15 -111 8 -339 -15
-452 -30 -151 -96 -307 -180 -425 -62 -87 -198 -214 -295 -273 -213 -131 -440
-189 -781 -199 -372 -11 -656 35 -913 148 l-76 34 0 258 c0 141 2 257 5 257 3
0 31 -13 63 -29 273 -136 674 -216 957 -192 230 20 373 77 491 195 118 119
166 249 167 456 1 293 -128 482 -390 569 -205 68 -540 66 -891 -5 l-74 -15
-126 75 c-125 73 -127 75 -125 108 27 365 124 1604 129 1636 l5 42 910 0 909
0 -2 -252z"/>
</g>
</svg>
