<svg id="Layer_1" data-name="Layer 1" xmlns="http://www.w3.org/2000/svg" viewBox="0 0 287.364 111.362">
	<defs>
		<style>
			.cls-1{fill:#384745}
		</style>
	</defs>
	<path class="cls-1" d="M163.82 30.432h12.496v14.143c0 1.57-.224 3.89-.374 5.612h.3a42.966 42.966 0 0 1 3.142-4.715l12.347-15.04h13.47l-16.463 19.83 17.36 30.679h-14.367l-11.673-21.176-3.742 4.565v16.61H163.82Z"/>
	<path class="cls-1" d="M218.297 65.078c-1.347 4.863 1.421 7.931 5.612 7.931 4.714 0 7.109-3.741 7.109-9.054 0-5.687-2.844-7.856-6.66-7.856a9.076 9.076 0 0 0-6.21 2.395l-5.388-5.838 15.639-12.946h-18.558v-9.278h31.054v9.802l-11.972 9.877c7.632-.747 14.89 4.266 14.89 13.994 0 10.551-8.605 17.735-19.455 17.735-10.251 0-18.857-6.36-16.612-15.266Z"/>
	<path class="cls-1" d="M259.304 64.33c-.898 4.04.673 8.68 8.605 8.68 5.238 0 7.034-2.096 7.034-4.865 0-4.19-4.19-5.238-9.13-7.033-7.407-2.545-16.536-6.136-16.536-16.687 0-9.429 7.258-15.19 19.604-14.891 15.116.298 19.382 9.204 17.735 16.911l-11.449 1.048c.75-5.837-1.347-9.13-7.258-9.13-3.965 0-6.21 1.498-6.21 4.64 0 4.19 4.04 5.462 8.979 7.184 7.633 2.543 16.686 5.612 16.686 16.087 0 9.054-6.734 15.566-19.904 15.566-12.347 0-20.802-5.688-19.08-16.462Z"/>
	<path d="M121.587 0H14.393A14.435 14.435 0 0 0 0 14.392V96.97a14.435 14.435 0 0 0 14.393 14.392h107.194a14.435 14.435 0 0 0 14.392-14.392V14.392A14.435 14.435 0 0 0 121.587 0ZM57.458 80.98l-26.16 15.203a7 7 0 1 1-7.035-12.104l26.16-15.203a7 7 0 1 1 7.035 12.105ZM67.75 57.819h-.032a7 7 0 0 1-6.97-7.03l.132-30.137a7 7 0 0 1 7-6.97h.03a7 7 0 0 1 6.97 7.03l-.13 30.138a7 7 0 0 1-7 6.97Zm46.287 35.81a6.997 6.997 0 0 1-9.562 2.563L78.276 81.065a7 7 0 1 1 7-12.124l26.199 15.125a7 7 0 0 1 2.562 9.563Z" style="fill:#ffc61c"/>
</svg>
