<svg viewBox="0 0 1119 1086" xmlns="http://www.w3.org/2000/svg" xml:space="preserve" style="fill-rule:evenodd;clip-rule:evenodd;stroke-linejoin:round;stroke-miterlimit:2">
	<path style="fill:#fff" d="M377.109 528.315h493.774v468.902H377.109z"/>
	<path d="M7450 8599c-795-1239-1453-2265-1462-2281l-17-27-1123 825-1122 825-26-58c-15-32-851-1816-1858-3964C834 1770 10 9 10 6s2513-6 5585-6c4814 0 5585 2 5585 14 0 8-513 2441-1139 5408-626 2966-1141 5401-1143 5411-2 12-558-846-1448-2234ZM4297 4916l293-238 2-858 3-858 270 382c250 353 490 683 520 715 11 11 51-13 239-144 124-86 226-158 226-161 0-2-151-213-335-469s-335-470-335-476c0-9 710-1008 748-1051 14-17-3-18-340-18h-356l-318 451-319 451-3-451-2-451h-620v1722c0 1638 1 1720 18 1706 9-8 149-122 309-252Zm3188-162c134-94 222-161 218-168-3-6-134-201-290-433s-283-423-283-425 39-2 87 0c161 6 346-50 501-150 107-70 274-241 334-343 124-210 158-483 93-739-105-414-480-728-930-778-289-31-570 43-792 211-370 279-504 725-347 1150 66 175 156 331 493 846 614 937 657 999 678 991 7-3 114-76 238-162Z" style="fill:#7d64ff;fill-rule:nonzero" transform="matrix(.1 0 0 -.1 0 1086)"/>
	<path d="M6993 3175c-170-37-300-169-339-343-44-197 56-397 244-490 64-31 85-36 162-40 70-3 103 0 157 16 159 49 278 179 312 340 32 151-14 289-135 402-73 68-146 105-235 119-78 13-88 13-166-4Z" style="fill:#7d64ff;fill-rule:nonzero" transform="matrix(.1 0 0 -.1 0 1086)"/>
</svg>
