<svg xmlns="http://www.w3.org/2000/svg" width="200" height="128">
    <path d="M118.78 92.19a8.937 8.937 0 0 1-6.21 2.49h-.2l-.18.02a8.854 8.854 0 0 1-6.16-2.5 8.145 8.145 0 0 1-2.65-6.07 7.661 7.661 0 0 1 .54-2.8 19.3 19.3 0 0 1 1.13-2.44c.43-.74 1.11-1.8 1.93-3l4.77-7.31 1.86-2.75 3.94 2.75-4.95 7.35a2.626 2.626 0 0 1 .78-.11h.15a7.859 7.859 0 0 1 5.35 2.32 7.468 7.468 0 0 1 2.57 5.9 8.125 8.125 0 0 1-2.67 6.15zM116 86.17a3.446 3.446 0 0 0-1.13-2.57 3.609 3.609 0 0 0-2.62-1.13h-.03a3.69 3.69 0 0 0-3.54 2.52 3.937 3.937 0 0 0-.19 1.18 3.732 3.732 0 0 0 3.73 3.74v-.03a3.782 3.782 0 0 0 3.78-3.71zm-24.35.65l5.41 7.86h5.7l-6.37-8.86 5.64-7.84-3.74-2.6-1.66 2.19-5.06 7.15V70.35l-5.06-4.13v28.06h5.06v-7.47z" fill="#fff"/>
    <path d="M127.36 19l19.01 90H53.63L84.5 43.16l18.6 13.67zm-8.58 73.19a8.125 8.125 0 0 0 2.67-6.15 7.468 7.468 0 0 0-2.57-5.9 7.859 7.859 0 0 0-5.35-2.32h-.15a2.626 2.626 0 0 0-.78.11l4.95-7.35-3.94-2.75-1.86 2.75-4.77 7.31c-.82 1.2-1.5 2.26-1.93 3a19.3 19.3 0 0 0-1.13 2.44 7.661 7.661 0 0 0-.54 2.8 8.145 8.145 0 0 0 2.65 6.07 8.854 8.854 0 0 0 6.16 2.5l.18-.02h.2a8.937 8.937 0 0 0 6.21-2.49zm-16.02 2.49l-6.37-8.86 5.64-7.84-3.74-2.6-1.66 2.19-5.06 7.15V70.35l-5.06-4.13v28.06h5.06v-7.47l.08.01 5.41 7.86zm9.49-12.21h-.03a3.69 3.69 0 0 0-3.54 2.52 3.937 3.937 0 0 0-.19 1.18 3.732 3.732 0 0 0 3.73 3.74v-.03a3.782 3.782 0 0 0 3.78-3.71 3.446 3.446 0 0 0-1.13-2.57 3.609 3.609 0 0 0-2.62-1.13z" fill="#7d64ff"/>
</svg>
