<svg xmlns="http://www.w3.org/2000/svg" width="210mm" height="297mm" viewBox="0 0 210 297">
	<path style="fill:#01a2d8;fill-opacity:1;stroke:#54bae2;stroke-width:4.19874191;stroke-miterlimit:4;stroke-dasharray:none;stroke-opacity:1" d="M96.616 70.628c-36.992-.137-58.476 22.781-50.9 54.87-28.233 1.284-35.73 14.583-36.68 34.416 1.906 28.243 45.033 33.65 54.91 33.03 74.069.016 44.575.068 103.3.068 36.617-2.209 36.32-31.422 33.89-49.601-3.35-13.657-19.435-30.721-49.918-33.35-.94-44.492-27.687-39.78-54.602-39.433Z"/>
	<path style="fill:#dfe1e0;fill-opacity:1;stroke:#fff;stroke-width:2.82743549;stroke-linecap:round;stroke-linejoin:round;stroke-miterlimit:4;stroke-dasharray:none;stroke-opacity:1" d="M76.294 79.019h49.875v99.751H76.294z"/>
	<path style="fill:#7a7a7a;fill-opacity:1;stroke:none;stroke-width:1.99616861;stroke-linecap:round;stroke-linejoin:round;stroke-miterlimit:4;stroke-dasharray:none;stroke-opacity:1" d="M82.842 85.659h36.779v8.063H82.842z"/>
	<path style="fill:#7a7a7a;fill-opacity:1;stroke:none;stroke-width:1.99616861;stroke-linecap:round;stroke-linejoin:round;stroke-miterlimit:4;stroke-dasharray:none;stroke-opacity:1" d="M82.842 99.707h36.779v8.063H82.842z"/>
	<path style="fill:#7a7a7a;fill-opacity:1;stroke:none;stroke-width:1.99616861;stroke-linecap:round;stroke-linejoin:round;stroke-miterlimit:4;stroke-dasharray:none;stroke-opacity:1" d="M82.842 113.755h36.779v8.063H82.842z"/>
	<circle style="fill:red;fill-opacity:1;stroke:none;stroke-width:2.50228024;stroke-linecap:round;stroke-linejoin:round;stroke-miterlimit:4;stroke-dasharray:none;stroke-opacity:1" cx="101.417" cy="158.795" r="6.412"/>
	<path style="fill:#00698a;fill-opacity:1;stroke:none;stroke-width:1.19784117;stroke-linecap:round;stroke-linejoin:round;stroke-miterlimit:4;stroke-dasharray:none;stroke-opacity:1" d="M-40 137H1.323v20H-40z" transform="matrix(.96799 0 0 1.2 131.22 2.6)"/>
	<path style="fill:#f4fcff;fill-opacity:1;stroke:none;stroke-width:1.32960784;stroke-linecap:round;stroke-linejoin:round;stroke-miterlimit:4;stroke-dasharray:none;stroke-opacity:1" d="M-37.042 139.573h35.719v14.552h-35.719z" transform="matrix(.96799 0 0 1.2 131.22 2.6)"/>
	<path style="fill:#00698a;fill-opacity:1;stroke:none;stroke-width:.93541485;stroke-linecap:round;stroke-linejoin:round;stroke-miterlimit:4;stroke-dasharray:none;stroke-opacity:1" d="M-34.396 142.219h3.969v9.26h-3.969z" transform="matrix(.96799 0 0 1.2 131.22 2.6)"/>
	<path style="fill:#00698a;fill-opacity:1;stroke:none;stroke-width:.93541485;stroke-linecap:round;stroke-linejoin:round;stroke-miterlimit:4;stroke-dasharray:none;stroke-opacity:1" d="M-27.781 142.219h3.969v9.26h-3.969z" transform="matrix(.96799 0 0 1.2 131.22 2.6)"/>
	<path style="fill:#00698a;fill-opacity:1;stroke:none;stroke-width:.93541485;stroke-linecap:round;stroke-linejoin:round;stroke-miterlimit:4;stroke-dasharray:none;stroke-opacity:1" d="M-21.167 142.219h3.969v9.26h-3.969z" transform="matrix(.96799 0 0 1.2 131.22 2.6)"/>
	<path style="fill:#00698a;fill-opacity:1;stroke:none;stroke-width:.93541485;stroke-linecap:round;stroke-linejoin:round;stroke-miterlimit:4;stroke-dasharray:none;stroke-opacity:1" d="M-14.552 142.219h3.969v9.26h-3.969z" transform="matrix(.96799 0 0 1.2 131.22 2.6)"/>
	<path style="fill:#00698a;fill-opacity:1;stroke:none;stroke-width:.93541485;stroke-linecap:round;stroke-linejoin:round;stroke-miterlimit:4;stroke-dasharray:none;stroke-opacity:1" d="M-7.938 142.219h3.969v9.26h-3.969z" transform="matrix(.96799 0 0 1.2 131.22 2.6)"/>
	<path style="fill:#00698a;fill-opacity:1;stroke:none;stroke-width:1.19784117;stroke-linecap:round;stroke-linejoin:round;stroke-miterlimit:4;stroke-dasharray:none;stroke-opacity:1" d="M-40 137H1.323v20H-40z" transform="matrix(.96799 0 0 1.2 171.02 2.6)"/>
	<path style="fill:#f4fcff;fill-opacity:1;stroke:none;stroke-width:1.32960784;stroke-linecap:round;stroke-linejoin:round;stroke-miterlimit:4;stroke-dasharray:none;stroke-opacity:1" d="M-37.042 139.573h35.719v14.552h-35.719z" transform="matrix(.96799 0 0 1.2 171.02 2.6)"/>
	<path style="fill:#00698a;fill-opacity:1;stroke:none;stroke-width:.93541485;stroke-linecap:round;stroke-linejoin:round;stroke-miterlimit:4;stroke-dasharray:none;stroke-opacity:1" d="M-34.396 142.219h3.969v9.26h-3.969z" transform="matrix(.96799 0 0 1.2 171.02 2.6)"/>
	<path style="fill:#00698a;fill-opacity:1;stroke:none;stroke-width:.93541485;stroke-linecap:round;stroke-linejoin:round;stroke-miterlimit:4;stroke-dasharray:none;stroke-opacity:1" d="M-27.781 142.219h3.969v9.26h-3.969z" transform="matrix(.96799 0 0 1.2 171.02 2.6)"/>
	<path style="fill:#00698a;fill-opacity:1;stroke:none;stroke-width:.93541485;stroke-linecap:round;stroke-linejoin:round;stroke-miterlimit:4;stroke-dasharray:none;stroke-opacity:1" d="M-21.167 142.219h3.969v9.26h-3.969z" transform="matrix(.96799 0 0 1.2 171.02 2.6)"/>
	<path style="fill:#00698a;fill-opacity:1;stroke:none;stroke-width:.93541485;stroke-linecap:round;stroke-linejoin:round;stroke-miterlimit:4;stroke-dasharray:none;stroke-opacity:1" d="M-14.552 142.219h3.969v9.26h-3.969z" transform="matrix(.96799 0 0 1.2 171.02 2.6)"/>
	<path style="fill:#00698a;fill-opacity:1;stroke:none;stroke-width:.93541485;stroke-linecap:round;stroke-linejoin:round;stroke-miterlimit:4;stroke-dasharray:none;stroke-opacity:1" d="M-7.938 142.219h3.969v9.26h-3.969z" transform="matrix(.96799 0 0 1.2 171.02 2.6)"/>
	<path style="fill:#00698a;fill-opacity:1;stroke:none;stroke-width:1.19784117;stroke-linecap:round;stroke-linejoin:round;stroke-miterlimit:4;stroke-dasharray:none;stroke-opacity:1" d="M-40 137H1.323v20H-40z" transform="matrix(.96799 0 0 1.2 151.111 -21.2)"/>
	<path style="fill:#f4fcff;fill-opacity:1;stroke:none;stroke-width:1.32960784;stroke-linecap:round;stroke-linejoin:round;stroke-miterlimit:4;stroke-dasharray:none;stroke-opacity:1" d="M-37.042 139.573h35.719v14.552h-35.719z" transform="matrix(.96799 0 0 1.2 151.111 -21.2)"/>
	<path style="fill:#00698a;fill-opacity:1;stroke:none;stroke-width:.93541485;stroke-linecap:round;stroke-linejoin:round;stroke-miterlimit:4;stroke-dasharray:none;stroke-opacity:1" d="M-34.396 142.219h3.969v9.26h-3.969z" transform="matrix(.96799 0 0 1.2 151.111 -21.2)"/>
	<path style="fill:#00698a;fill-opacity:1;stroke:none;stroke-width:.93541485;stroke-linecap:round;stroke-linejoin:round;stroke-miterlimit:4;stroke-dasharray:none;stroke-opacity:1" d="M-27.781 142.219h3.969v9.26h-3.969z" transform="matrix(.96799 0 0 1.2 151.111 -21.2)"/>
	<path style="fill:#00698a;fill-opacity:1;stroke:none;stroke-width:.93541485;stroke-linecap:round;stroke-linejoin:round;stroke-miterlimit:4;stroke-dasharray:none;stroke-opacity:1" d="M-21.167 142.219h3.969v9.26h-3.969z" transform="matrix(.96799 0 0 1.2 151.111 -21.2)"/>
	<path style="fill:#00698a;fill-opacity:1;stroke:none;stroke-width:.93541485;stroke-linecap:round;stroke-linejoin:round;stroke-miterlimit:4;stroke-dasharray:none;stroke-opacity:1" d="M-14.552 142.219h3.969v9.26h-3.969z" transform="matrix(.96799 0 0 1.2 151.111 -21.2)"/>
	<path style="fill:#00698a;fill-opacity:1;stroke:none;stroke-width:.93541485;stroke-linecap:round;stroke-linejoin:round;stroke-miterlimit:4;stroke-dasharray:none;stroke-opacity:1" d="M-7.938 142.219h3.969v9.26h-3.969z" transform="matrix(.96799 0 0 1.2 151.111 -21.2)"/>
	<g aria-label="K8S-TEW" style="font-style:italic;font-variant:normal;font-weight:800;font-stretch:normal;font-size:31.74245453px;line-height:1.25;font-family:Overpass;-inkscape-font-specification:'Overpass Ultra-Bold Italic';letter-spacing:0;word-spacing:0;fill:orange;fill-opacity:1;stroke:orange;stroke-width:1.47698236;stroke-miterlimit:4;stroke-dasharray:none;stroke-opacity:1">
		<path d="M52.027 224.201h4.603l-4.984-13.903 7.936-8.316h-5.206l-9.681 10.126 1.777-10.126h-4.349l-3.904 22.22h4.349l.952-5.429 4.888-5.11z" style="font-style:italic;font-variant:normal;font-weight:800;font-stretch:normal;font-family:Overpass;-inkscape-font-specification:'Overpass Ultra-Bold Italic';fill:orange;fill-opacity:1;stroke:orange;stroke-width:1.47698236;stroke-miterlimit:4;stroke-dasharray:none;stroke-opacity:1"/>
		<path d="M66.98 224.582c5.809 0 8.76-3.682 8.76-7.427 0-2.699-1.745-4.476-3.396-4.984 2.127-.508 4.317-2.254 4.317-5.142 0-2.952-2.222-5.428-6.634-5.428-4.444 0-7.586 2.634-7.586 6.063 0 2.253 1.333 3.555 2.856 4.158-3.015.603-5.523 2.603-5.523 6.317 0 3.491 2.984 6.443 7.206 6.443zm2.349-14.284c-1.714 0-2.571-1.174-2.571-2.285 0-1.65 1.491-2.635 2.983-2.635 1.81 0 2.603 1.206 2.603 2.254 0 1.65-1.365 2.666-3.015 2.666zM67.36 220.71c-1.968 0-3.175-1.302-3.175-3.016 0-1.84 1.397-3.523 3.841-3.523 2.222 0 3.301 1.555 3.301 3.015 0 2.127-1.523 3.524-3.967 3.524z" style="font-style:italic;font-variant:normal;font-weight:800;font-stretch:normal;font-family:Overpass;-inkscape-font-specification:'Overpass Ultra-Bold Italic';fill:orange;fill-opacity:1;stroke:orange;stroke-width:1.47698236;stroke-miterlimit:4;stroke-dasharray:none;stroke-opacity:1"/>
		<path d="m90.977 208.013 3.904-1.27c-.413-2.444-2.35-5.142-6.857-5.142-4.856 0-7.745 2.793-7.745 6.412 0 7.142 9.237 5.904 9.237 9.903 0 1.62-1.46 2.54-3.428 2.54-2.349 0-3.46-1.365-4.126-3.428l-3.968 1.46c.92 3.46 3.365 6.094 7.491 6.094 5.142 0 8.57-2.825 8.57-7.078 0-7.301-9.427-6.507-9.427-9.713 0-1.207 1.111-2.222 3.11-2.222 1.874 0 2.953 1.11 3.239 2.444z" style="font-style:italic;font-variant:normal;font-weight:800;font-stretch:normal;font-family:Overpass;-inkscape-font-specification:'Overpass Ultra-Bold Italic';fill:orange;fill-opacity:1;stroke:orange;stroke-width:1.47698236;stroke-miterlimit:4;stroke-dasharray:none;stroke-opacity:1"/>
		<path d="M97.832 216.805h8l.698-3.967h-8z" style="font-style:italic;font-variant:normal;font-weight:800;font-stretch:normal;font-family:Overpass;-inkscape-font-specification:'Overpass Ultra-Bold Italic';fill:orange;fill-opacity:1;stroke:orange;stroke-width:1.47698236;stroke-miterlimit:4;stroke-dasharray:none;stroke-opacity:1"/>
		<path d="M119.755 206.108h6l.698-4.126h-16.315l-.699 4.126h6l-3.206 18.093h4.317z" style="font-style:italic;font-variant:normal;font-weight:800;font-stretch:normal;font-family:Overpass;-inkscape-font-specification:'Overpass Ultra-Bold Italic';fill:orange;fill-opacity:1;stroke:orange;stroke-width:1.47698236;stroke-miterlimit:4;stroke-dasharray:none;stroke-opacity:1"/>
		<path d="M125.635 224.201h15.204l.73-4.063h-10.855l.92-5.364h5.936l.73-4.063h-5.936l.825-4.666h10.222l.698-4.063h-14.57z" style="font-style:italic;font-variant:normal;font-weight:800;font-stretch:normal;font-family:Overpass;-inkscape-font-specification:'Overpass Ultra-Bold Italic';fill:orange;fill-opacity:1;stroke:orange;stroke-width:1.47698236;stroke-miterlimit:4;stroke-dasharray:none;stroke-opacity:1"/>
		<path d="M147.163 224.201h3.936l5.174-12.41c.508-1.175.762-1.905.889-2.35 0 .572 0 1.492.064 2.508l.952 12.252h3.936l8.475-22.22h-4.476l-4.475 12.507c-.286.762-.445 1.206-.572 1.65 0-.444 0-1.11-.031-1.682l-.794-12.474h-3.682l-5.11 12.474c-.318.794-.477 1.238-.604 1.683 0-.445.032-.889.032-1.65l-.032-12.507h-4.348z" style="font-style:italic;font-variant:normal;font-weight:800;font-stretch:normal;font-family:Overpass;-inkscape-font-specification:'Overpass Ultra-Bold Italic';fill:orange;fill-opacity:1;stroke:orange;stroke-width:1.47698236;stroke-miterlimit:4;stroke-dasharray:none;stroke-opacity:1"/>
	</g>
</svg>
