<svg width="268" height="90" fill="none" xmlns="http://www.w3.org/2000/svg">
	<path d="M90 45H72c0-14.912-12.088-27-27-27S18 30.088 18 45H0C0 20.147 20.147 0 45 0s45 20.147 45 45Z" fill="#1A5CE6"/>
	<path d="M54 45c0 24.853-20.147 45-45 45V72c14.912 0 27-12.088 27-27h18Z" fill="#1A5CE6"/>
	<path d="m142.346 48.365-4.009 3.953v7.319H130V20h8.337v22.436l12.186-11.539h9.941l-11.972 12.18 13.041 16.56h-10.102l-9.085-11.272Z" fill="#000D1A"/>
	<path d="M188.544 39.979c1.853.926 3.261 2.136 4.223 3.632.997 1.496 1.496 3.223 1.496 5.182 0 2.315-.659 4.345-1.977 6.09-1.319 1.709-3.172 3.044-5.559 4.006-2.387.926-5.148 1.389-8.284 1.389-3.135 0-5.896-.463-8.284-1.39-2.351-.96-4.186-2.296-5.505-4.005-1.282-1.745-1.924-3.775-1.924-6.09 0-1.959.481-3.686 1.443-5.182.998-1.496 2.406-2.706 4.223-3.632-1.39-.855-2.459-1.923-3.207-3.206-.748-1.317-1.122-2.813-1.122-4.487 0-2.172.605-4.06 1.817-5.662 1.211-1.603 2.904-2.831 5.077-3.686 2.173-.89 4.668-1.335 7.482-1.335 2.851 0 5.363.445 7.536 1.335 2.209.855 3.919 2.083 5.131 3.686 1.211 1.603 1.817 3.49 1.817 5.662 0 1.674-.374 3.17-1.122 4.487-.749 1.283-1.835 2.35-3.261 3.206Zm-10.101-12.02c-1.746 0-3.153.428-4.222 1.282-1.033.82-1.55 1.96-1.55 3.42 0 1.424.517 2.546 1.55 3.365 1.033.819 2.441 1.228 4.222 1.228 1.782 0 3.207-.41 4.276-1.228 1.069-.82 1.603-1.941 1.603-3.366 0-1.46-.534-2.6-1.603-3.418-1.069-.855-2.494-1.283-4.276-1.283Zm0 25.962c2.174 0 3.884-.48 5.131-1.442 1.283-.998 1.924-2.315 1.924-3.953 0-1.639-.641-2.938-1.924-3.9-1.247-.962-2.957-1.442-5.131-1.442-2.138 0-3.83.48-5.077 1.442-1.247.962-1.871 2.262-1.871 3.9 0 1.673.624 2.991 1.871 3.953 1.247.961 2.939 1.442 5.077 1.442Z" fill="#000D1A"/>
	<path d="M228.957 30.897v28.74h-7.91v-3.42a11.343 11.343 0 0 1-3.955 2.886c-1.532.64-3.189.961-4.97.961-3.777 0-6.77-1.086-8.979-3.258-2.209-2.173-3.313-5.396-3.313-9.67V30.898h8.337v15.011c0 4.63 1.942 6.945 5.826 6.945 1.995 0 3.598-.642 4.81-1.924 1.211-1.317 1.817-3.258 1.817-5.822v-14.21h8.337Z" fill="#000D1A"/>
	<path d="M253.677 30.47c2.672 0 5.095.623 7.268 1.87 2.209 1.21 3.937 2.938 5.184 5.181 1.247 2.208 1.871 4.79 1.871 7.746 0 2.956-.624 5.556-1.871 7.8a13.421 13.421 0 0 1-5.184 5.18c-2.173 1.212-4.596 1.817-7.268 1.817-3.67 0-6.556-1.157-8.658-3.472V70h-8.338V30.897h7.964v3.312c2.066-2.493 5.077-3.739 9.032-3.739Zm-1.443 22.757c2.138 0 3.883-.713 5.237-2.137 1.39-1.46 2.085-3.401 2.085-5.823 0-2.422-.695-4.345-2.085-5.77-1.354-1.46-3.099-2.19-5.237-2.19s-3.902.73-5.291 2.19c-1.354 1.425-2.031 3.348-2.031 5.77 0 2.422.677 4.363 2.031 5.823 1.389 1.424 3.153 2.136 5.291 2.136Z" fill="#000D1A"/>
</svg>
