<svg xmlns="http://www.w3.org/2000/svg" width="200" height="128">
    <path d="M83.238 45.154v22.885l7.043-7h6.71l-9.4 9.087L97.68 82.68h-6.488l-7.154-9.131-.8.8v8.331h-5V45.154z"/>
    <path d="M114.12 61.04h5.022v21.64h-5.022v-2.266a9.6 9.6 0 0 1-14.064-.355 12.061 12.061 0 0 1-2.91-8.266 11.687 11.687 0 0 1 2.91-8.109 9.381 9.381 0 0 1 7.288-3.244 9.2 9.2 0 0 1 6.776 3.11zm-11.864 10.753a7.536 7.536 0 0 0 1.666 5.066 5.458 5.458 0 0 0 4.311 1.978 5.738 5.738 0 0 0 4.488-1.911 8.224 8.224 0 0 0 0-10.043 5.657 5.657 0 0 0-4.444-1.933 5.527 5.527 0 0 0-4.31 1.955 7.207 7.207 0 0 0-1.711 4.888zM129.719 65.706V82.68H124.7V65.706h-1.78V61.04h1.78v-8.354q0-4.089 1.422-5.777a6.972 6.972 0 0 1 5.688-2.355 9.785 9.785 0 0 1 3.355.777v5.11l-.511-.266a6.276 6.276 0 0 0-2.666-.822 1.81 1.81 0 0 0-1.8.955 9.207 9.207 0 0 0-.466 3.6v7.132h5.443v4.666zM143.869 45.154v22.885l7.043-7h6.71l-9.4 9.087 10.089 12.554h-6.488l-7.154-9.131-.8.8v8.331h-5V45.154z"/>
    <path d="M174.979 61.04H180v21.64h-5.021v-2.266a9.6 9.6 0 0 1-14.065-.355A12.066 12.066 0 0 1 158 71.793a11.692 11.692 0 0 1 2.91-8.109 9.381 9.381 0 0 1 7.29-3.244 9.206 9.206 0 0 1 6.777 3.11zm-11.865 10.753a7.536 7.536 0 0 0 1.666 5.066 5.458 5.458 0 0 0 4.311 1.978 5.738 5.738 0 0 0 4.488-1.911 8.224 8.224 0 0 0 0-10.043 5.657 5.657 0 0 0-4.444-1.933 5.527 5.527 0 0 0-4.31 1.955 7.207 7.207 0 0 0-1.711 4.888z"/>
    <g>
        <path d="M87.315 51.744l2.566-6.134h.492l2.566 6.134h-.648l-.8-1.918H88.74l-.786 1.918zm2.817-5.426l-1.261 3.033h2.488zM93.6 51.744V45.61h2.54a1.911 1.911 0 0 1 1.814 1.926 1.85 1.85 0 0 1-1.762 1.944h-2v2.264zm.6-2.8h1.961a1.291 1.291 0 0 0 1.192-1.409 1.331 1.331 0 0 0-1.244-1.39H94.2v2.8zM97.621 51.744l2.566-6.134h.492l2.566 6.134h-.645l-.795-1.918h-2.759l-.786 1.918zm2.817-5.426l-1.262 3.033h2.489zM106.148 45.575a2.411 2.411 0 0 1 2.264 1.339l-.484.294a1.931 1.931 0 0 0-1.815-1.088 2.385 2.385 0 0 0-2.272 2.549 2.474 2.474 0 0 0 2.3 2.583 2.1 2.1 0 0 0 1.892-1.141l.5.259a2.678 2.678 0 0 1-2.427 1.425 3.079 3.079 0 0 1-2.869-3.162 2.961 2.961 0 0 1 2.911-3.058zM114.215 45.61v6.134h-.605v-2.868h-3.638v2.868h-.595V45.61h.595v2.73h3.638v-2.73zM119.721 51.208v.536H115.6V45.61h4.044v.536H116.2v2.211h3v.51h-3v2.342h3.524z"/>
    </g>
    <path d="M58.592 67.845a10.5 10.5 0 0 0-7.719 3.378l-4.906-2.833a13.275 13.275 0 0 0 .745-4.39 13.275 13.275 0 0 0-.745-4.39l4.906-2.833a10.529 10.529 0 1 0 7.72-17.687A10.525 10.525 0 0 0 48.47 52.524l-4.931 2.847a13.358 13.358 0 0 0-7.741-4.5v-4.758a10.531 10.531 0 0 0-2.442-20.775 10.531 10.531 0 0 0-2.442 20.775v4.758A13.377 13.377 0 0 0 20 64a13.377 13.377 0 0 0 10.914 13.129v4.758a10.531 10.531 0 0 0 2.442 20.775A10.531 10.531 0 0 0 35.8 81.887v-4.758a13.358 13.358 0 0 0 7.741-4.5l4.931 2.847A10.525 10.525 0 0 0 58.593 88.91a10.533 10.533 0 1 0 0-21.065zm0-23.328a5.1 5.1 0 1 1-5.105 5.1 5.1 5.1 0 0 1 5.106-5.1zM28.251 35.87a5.105 5.105 0 1 1 5.105 5.105 5.106 5.106 0 0 1-5.105-5.105zm10.21 56.26a5.1 5.1 0 1 1-5.1-5.1 5.106 5.106 0 0 1 5.1 5.1zM41.013 64A7.657 7.657 0 1 1 25.7 64a7.657 7.657 0 1 1 15.314 0zm17.58 19.483a5.105 5.105 0 1 1 5.1-5.105 5.1 5.1 0 0 1-5.1 5.105z"/>
</svg>
