<svg id="Layer_1" data-name="Layer 1" xmlns="http://www.w3.org/2000/svg" viewBox="0 0 314.43 69.28">
	<defs>
		<style>
			.cls-1{fill:#4d4d4d}.cls-3{fill:#68973f}.cls-4{fill:#4c4c4d}
		</style>
	</defs>
	<path class="cls-1" d="M37.39 15.36v53.43h10.45V52.88l11.98 15.91h14.62L57.88 47.2l14.59-15.71h-13.5L48.05 43.72V15.36H37.39z"/>
	<path class="cls-1" d="M104.77 142.4v4.15s-7-9.47-18.42-3.47c0 0-11.86 6.76-9.06 22.89 0 0 4.41 15.5 19.44 13.88 0 0 3.25.07 7.16-3.41v3.06H115v-37.07h-10.23ZM96.15 171c-5 0-9-4.49-9-10s4-10.06 9-10.06 8.25 4.33 8.25 9.87S101.14 171 96.15 171Z" transform="translate(-2.87 -110.68)"/>
	<path class="cls-1" d="M119.02 15.36h9.82v53.41h-9.82z"/>
	<path class="cls-1" d="M158 140.88a19.31 19.31 0 1 0 19.81 19.3 19.55 19.55 0 0 0-19.81-19.3Zm0 30.67c-5.19 0-9.36-4.77-9.36-10.61s4.22-10.66 9.36-10.66 9.41 4.78 9.41 10.66-4.18 10.61-9.41 10.61Z" transform="translate(-2.87 -110.68)"/>
	<path class="cls-1" d="M202.53 140.88a19.31 19.31 0 1 0 19.81 19.3 19.54 19.54 0 0 0-19.81-19.3Zm0 30.67c-5.19 0-9.36-4.77-9.36-10.61s4.22-10.66 9.36-10.66 9.41 4.78 9.41 10.66-4.22 10.61-9.41 10.61Z" transform="translate(-2.87 -110.68)"/>
	<path class="cls-1" d="M237.82 179.48h-10v-37.26h10v3.59c-.4-2.5 14.8-10.89 19.14 1-.07-6.19 23.05-10.8 23.05 3.91v28.78h-9.82v-24.7c-.16-6.72-10.78-6.86-10.78 0v24.68h-10.77v-25.19c.23-5.37-10.68-6.42-10.78 0v25.19Z" transform="translate(-2.87 -110.68)"/>
	<path class="cls-3" d="M30.75 31.67H15.2L0 50.3l15.2 18.63h15.55L15.2 50.3l15.55-18.63z"/>
	<path class="cls-3" d="M218.61 30.72V15.2L199.98 0l-18.63 15.2v15.52l18.63-15.52 18.63 15.52z"/>
	<path class="cls-3" d="M283.69 68.93h15.54l15.2-18.63-15.2-18.63h-15.54l15.54 18.63-15.54 18.63z"/>
	<path class="cls-4" d="M280.49 134.49h-1.66V139h-.91v-4.55h-1.64v-.75h4.21Z" transform="translate(-2.87 -110.68)"/>
	<path class="cls-4" d="m282.37 133.74 1.53 4.06 1.52-4.06h1.19V139h-.91v-1.75l.09-2.33-1.57 4.08h-.65l-1.57-4 .09 2.33V139h-.92v-5.3Z" transform="translate(-2.87 -110.68)"/>
</svg>
