<svg width="625" height="625" xmlns="http://www.w3.org/2000/svg" xmlns:xlink="http://www.w3.org/1999/xlink">
	<defs>
		<linearGradient x1="50%" y1="0%" x2="50%" y2="100%" id="a">
			<stop stop-color="#719BEA" offset="0%"/>
			<stop stop-color="#5478E0" offset="100%"/>
		</linearGradient>
		<path id="b" d="M0 78h96L48 0z"/>
	</defs>
	<g fill="none" fill-rule="evenodd">
		<path d="M486.245 120.897c-1.868-5.434-6.28-10.347-12.362-13.629L282.77 16.71l-.115-.057c-2.066-1.023-5.074-1.548-9.028-1.548-3.553 0-5.141.023-6.969.13-1.487.086-2.764.223-3.85.41L73.087 106.162l-.168.08c-5.42 2.503-9.103 6.938-10.505 12.781l-46.938 203.82c-1.026 6.236.412 12.438 4.122 17.744L151.08 501.583c4.939 4.646 11.783 7.727 18.28 8.208h211.1l.817.09c5.8.638 11.325-1.88 15.162-7.059l.21-.285 132.264-161.95c3.65-5.222 5.265-11.559 4.646-18.178l-47.313-201.512Z" transform="translate(36 52)" stroke="url(#a)" stroke-width="30"/>
		<use fill="#326DE6" fill-rule="nonzero" xlink:href="#b" transform="translate(396 290)"/>
		<path d="m194.731 366.971-23.866-41.13-7.2 7.07v34.06H145V277h18.666v29.048L190.998 277h25.199l-32.665 35.217 33.465 54.754H194.73ZM298.468 277v17.994h-62.264V277h62.264Zm-62.264 52.698v-17.995h51.598v17.995h-51.598Zm0 37.402v-17.994h61.864V367.1h-61.864Zm81.471-90.1h26.4c6.266 0 12.399 1.157 18.132 3.47 5.6 2.314 10.533 5.527 14.799 9.64 4.4 4.242 7.733 8.997 10 14.396 2.533 5.526 3.733 11.439 3.733 17.48 0 6.17-1.2 12.082-3.733 17.608-2.267 5.399-5.6 10.154-10 14.267-4.266 4.113-9.2 7.455-14.8 9.64-5.732 2.442-11.865 3.599-18.132 3.599h-18.799v-.129h-7.6V277Zm18.666 72.106h7.733c15.466 0 27.999-12.21 27.999-27.12s-12.533-26.992-27.999-26.992h-7.733v54.112ZM442.878 277h5.466l44.132 90.1H471.81l-26.666-54.754-28.932 54.754H395.28l47.598-90.1Z" fill="#326DE6"/>
		<path fill="#FFF" d="m447.004 317-5.438 37.5h17.403L429.964 407l5.439-37.5H418z"/>
		<g fill="#326DE6" fill-rule="nonzero" transform="translate(20 34)">
			<circle cx="418" cy="519" r="39"/>
			<circle cx="176" cy="519" r="39"/>
			<circle cx="287" cy="39" r="39"/>
			<circle cx="498" cy="131" r="39"/>
			<circle cx="80" cy="131" r="39"/>
			<circle cx="547" cy="350" r="39"/>
			<circle cx="39" cy="350" r="39"/>
		</g>
	</g>
</svg>
