<svg width="192" height="236" xmlns="http://www.w3.org/2000/svg" xmlns:xlink="http://www.w3.org/1999/xlink" style="background:#fff">
	<defs>
		<linearGradient x1="86.372%" y1="25.939%" x2="13.706%" y2="67.248%" id="a">
			<stop stop-color="#4285F4" offset="0%"/>
			<stop stop-color="#3F51B5" offset="100%"/>
		</linearGradient>
		<linearGradient x1="24.613%" y1="46.586%" x2="73.035%" y2="50.233%" id="d">
			<stop stop-color="#4285F4" offset="0%"/>
			<stop stop-color="#3F51B5" offset="100%"/>
		</linearGradient>
		<linearGradient x1="24.676%" y1="47.212%" x2="74.482%" y2="52.888%" id="c">
			<stop stop-color="#4285F4" offset="0%"/>
			<stop stop-color="#3F51B5" offset="100%"/>
		</linearGradient>
		<path d="M7.952 220v-15.75l7.229-6.921L30.992 220h7.967l-19.318-26.978 18.796-18.211h-8.46L7.952 196.836v-22.025H1.984V220h5.968Zm48.173 1.169c1.681 0 3.188-.164 4.521-.492 2.482-.574 4.563-1.682 6.245-3.323 1.005-.943 1.912-2.158 2.723-3.645.81-1.487 1.286-2.835 1.43-4.045h-5.445a9.644 9.644 0 0 1-2.092 3.845c-1.722 1.908-4.03 2.861-6.921 2.861-3.097 0-5.383-1.01-6.86-3.03-1.476-2.02-2.266-4.701-2.369-8.044h24.148c0-3.322-.164-5.742-.492-7.26-.369-2.215-1.107-4.153-2.215-5.814-1.148-1.743-2.82-3.163-5.014-4.26-2.194-1.097-4.46-1.646-6.798-1.646-4.635 0-8.388 1.65-11.259 4.953-2.871 3.301-4.307 7.598-4.307 12.889 0 5.373 1.426 9.551 4.276 12.535 2.85 2.984 6.327 4.476 10.429 4.476Zm9.69-20.272H47.51c.103-2.83 1.015-5.163 2.738-6.998 1.723-1.836 3.855-2.753 6.398-2.753 3.548 0 6.081 1.333 7.599 3.999.82 1.435 1.343 3.353 1.568 5.752Zm17.595 32.238V216.31c1.21 1.497 2.307 2.553 3.292 3.168 1.681 1.087 3.763 1.63 6.244 1.63 3.158 0 5.927-.974 8.306-2.922 3.753-3.076 5.63-8.203 5.63-15.38 0-5.312-1.303-9.399-3.907-12.26-2.605-2.86-5.773-4.29-9.506-4.29-2.522 0-4.717.615-6.583 1.845-1.312.82-2.522 1.98-3.63 3.476v-4.368h-5.383v45.927h5.537Zm8.798-16.857c-3.814 0-6.44-1.702-7.875-5.107-.759-1.784-1.138-3.947-1.138-6.49 0-3.159.38-5.763 1.138-7.814 1.415-3.835 4.04-5.752 7.875-5.752 3.814 0 6.44 1.815 7.875 5.445.759 1.886 1.138 4.142 1.138 6.767 0 4.307-.856 7.542-2.568 9.705-1.713 2.164-3.861 3.246-6.445 3.246ZM119.032 220v-45.189h-5.537V220h5.537Zm20.857 1.2c5.434 0 9.444-1.733 12.028-5.199 2.583-3.466 3.875-7.855 3.875-13.166 0-5.496-1.466-9.66-4.398-12.49-2.933-2.83-6.522-4.244-10.767-4.244-4.737 0-8.51 1.64-11.32 4.921-2.81 3.282-4.215 7.69-4.215 13.228 0 5.168 1.333 9.285 4 12.35 2.665 3.067 6.264 4.6 10.797 4.6Zm.523-4.768c-3.343 0-5.784-1.17-7.322-3.507-1.538-2.338-2.307-5.26-2.307-8.767 0-3.65.77-6.768 2.307-9.352 1.538-2.584 4-3.876 7.383-3.876 3.815 0 6.501 1.518 8.06 4.553.984 1.928 1.476 4.43 1.476 7.506 0 3.404-.682 6.496-2.045 9.274-1.364 2.78-3.881 4.169-7.552 4.169Zm24.886 17.072c3.2 0 5.455-.922 6.767-2.768 1.313-1.846 3.569-6.973 6.768-15.381 1.354-3.568 3.035-8.183 5.045-13.843 2.686-7.526 4.42-12.345 5.199-14.458h-6.122l-8.89 26.824-8.829-26.824h-6.275l12.182 33.9c-.288.738-.749 1.866-1.385 3.383-.635 1.518-1.005 2.359-1.107 2.523a4.682 4.682 0 0 1-1.215 1.246c-.482.338-1.236.507-2.261.507-.328 0-.708-.03-1.138-.092-.431-.062-1.128-.226-2.092-.492v5.045c.615.164 1.133.277 1.553.338.42.062 1.02.092 1.8.092Z" id="b"/>
	</defs>
	<g fill="none" fill-rule="nonzero">
		<path d="m95.072 1 8.26 4.83c3.325 1.947 10.637 6.223 18.173 10.63l1.657.968c10.311 6.028 20.528 12 21.064 12.31l.484.277.795-.462c1.75-1.029 3.813-1.664 5.955-1.849 6.993-.612 13.363 3.929 15.171 10.816.346 1.282.369 1.479.369 3.5 0 2.289-.173 3.34-.806 5.062-1.337 3.536-4.159 6.621-7.384 8.066l-.61.277-.001 29.857v.655l-.001 4.31v1.704l-.001.55v1.072l-.001.523v1.019c-.013 13.512-.051 17.407-.135 17.52-.08.104-11.485 6.725-25.343 14.733l-25.205 14.548v1.513c0 2.508-.484 4.541-1.578 6.668-2.753 5.338-8.628 8.493-14.526 7.81a14.613 14.613 0 0 1-11.381-7.984c-.98-1.941-1.406-3.674-1.521-6.1l-.08-1.56-18.881-11.048-18.88-11.046-.991.439c-7.788 3.443-16.969-.555-19.872-8.655-1.07-3.016-1.07-6.852 0-9.868 1.256-3.49 3.71-6.379 6.9-8.123l.98-.544V62.341l.001-4.101V56.1l.001-.512v-.999l.001-.486v-.946c.011-11.612.043-15.23.125-15.57l.007-.021a.02.02 0 0 1 .003-.005c.08-.081 14.25-8.285 31.483-18.246C76.537 9.355 90.684 1.162 90.74 1.104c.065-.054.946-.099 2.02-.104h2.311Zm-2.615 138.948c-1.28.107-1.92.41-2.81 1.32-1.973 2.05-1.386 5.474 1.174 6.758 1.174.571 2.685.607 3.787.072 1.511-.731 2.418-2.212 2.418-3.942 0-2.514-2.044-4.405-4.57-4.208ZM59.742 98.433c-.071-.022-2.727 1.302-5.537 2.731l-.626.319c-2.924 1.49-5.82 2.996-5.979 3.132-.173.14-.184.382-.138 1.803.069 1.837-.104 3.166-.61 4.738-.162.497-.254.993-.22 1.109.001.003.007.008.019.017l.048.034c.789.533 8.443 5.007 18.388 10.73a6844.722 6844.722 0 0 0 16.5 9.48l.315.18c1.058.606 1.653.945 1.662.948.035 0 .495-.336 1.014-.751 1.06-.832 1.935-1.376 2.891-1.78.346-.15.668-.335.714-.404.044-.066.088-3.198.092-7.078v-2.618l-.001-.855c-.007-4.315-.04-4.805-.206-5.107-.05-.101-.2-.242-.624-.528l-.189-.125c-1.143-.745-3.833-2.316-10.153-5.968l-1.091-.632-1.093-.633c-5.213-3.019-10.256-5.933-11.813-6.835-1.774-1.028-3.283-1.884-3.363-1.907Zm73.69 3.525c-.31-.116-.38-.093-1.002.462-2.58 2.242-5.449 3.328-8.847 3.328-2.246 0-3.963-.393-5.875-1.34-.403-.197-.806-.336-.899-.301-.426.162-19.387 11.093-19.445 11.209a2.946 2.946 0 0 0-.008.31v.433c.008 3.045.189 14.406.239 14.567.011.023.345.185.76.37 1.13.508 2.246 1.19 3.11 1.907.427.346.83.635.876.635.057 0 9.527-5.42 21.046-12.04 11.508-6.622 21.092-12.064 21.277-12.087.771-.116.875-.682.207-1.098-.082-.05-.24-.143-.461-.27l-.463-.264c-.99-.562-2.601-1.465-4.27-2.394l-.885-.492a786.958 786.958 0 0 0-3.722-2.056l-.406-.223c-.703-.384-1.165-.63-1.232-.656Zm-104.013 4.91c-.062 1.77.94 3.194 2.707 3.835.559.2.911.273 1.258.297.353.024.7-.004 1.263-.142 2.971-.724 4.157-4.057 2.236-6.309-2.475-2.949-7.334-1.431-7.464 2.32Zm58.327-23.71c-.014 0-.106.042-.266.121l-.223.113c-1.274.648-4.836 2.543-8.443 4.481l-.721.388c-4.324 2.326-8.497 4.597-8.64 4.73-.07.064-.13.12-.16.18l-.014.033c-.123.399 1.107 1.11 9.17 5.807 3.7 2.146 6.945 4.008 8.425 4.83l.224.125c.382.21.602.326.625.326.103.011.276-.104.368-.243l.015-.024c.122-.236.158-1.206.167-6.399v-.618l.001-.323v-.677l.001-.354v-4.878l-.001-.323-.001-.618c-.01-5.393-.048-6.231-.182-6.423-.092-.139-.253-.255-.345-.255Zm10.724 1.617c-.03 0-.051 3.11-.056 7.227l-.001.942v3.468c.007 5.762.04 6.625.173 6.574.092-.035 2.638-1.444 5.667-3.131a1337.54 1337.54 0 0 0 5.53-3.109c.023-.023-.07-.427-.196-.913a17.917 17.917 0 0 1-.334-2.253c-.116-1.225-.104-1.814.046-3.004l.046-.381-5.414-2.704c-.991-.497-1.924-.965-2.73-1.367l-.823-.411c-1.15-.573-1.889-.938-1.908-.938Zm46.292-31.841-.052.007c-.14.048-3.324 1.747-6.688 3.558l-.675.363c-3.601 1.94-7.192 3.89-7.302 3.982-.122.098-.163.62-.17 4.036l.001 2.058c.001 1.076.004 2.342.008 3.832l.035 9.776.99.705c1.97 1.375 3.03 2.496 4.136 4.333 1.198 1.987 1.74 3.929 1.785 6.344.035 1.19.081 1.698.196 1.802.08.081 2.454 1.433 5.276 2.993 2.48 1.371 4.587 2.528 5.085 2.788l.101.051c.044.004.16-.066.263-.135.138-.104.18-.93.191-10.12v-.753l.002-1.199v-1.284l.001-.447v-1.89l.001-.498V72.073l-.001-.464v-.912c-.01-10.345-.046-15.945-.113-16.023-.058-.07-.542-.347-1.072-.613-.518-.254-1.152-.635-1.405-.832-.277-.22-.519-.323-.645-.288ZM38.546 51.612a.51.51 0 0 0-.357.15c-.078.094-.137 9.768-.159 19.819l-.005 2.515-.004 3.733v4.165c.004 6.683.03 11.834.087 11.887.07.057.323.173.576.254 1.083.346 3.099 1.548 3.767 2.242.438.462.772.508 1.29.196.196-.116 3.007-1.687 6.232-3.478 3.237-1.791 5.944-3.316 6.025-3.397.093-.094.126-2.049.135-8.858l.001-.698v-1.108l.001-.386.001-2.061v-3.659c-.007-6.787-.04-12.042-.08-12.084-.24-.219-14.167-7.567-17.009-8.994l-.23-.114a2.323 2.323 0 0 0-.271-.124Zm84.637 36.507c-.855 0-2.416.69-2.992 1.324-.537.586-1.006 1.656-1.136 2.525a3.008 3.008 0 0 0-.035.44c0 1.659 1.394 3.654 2.88 4.083.893.26 2.287.224 3.03-.093 1.58-.653 2.64-2.238 2.64-3.99 0-2.405-1.933-4.289-4.387-4.289ZM65.755 65.825c-.15 0-.334.092-.392.208-.069.138-.115 3.432-.126 8.886v3.058l.001.288.001.547c.008 4.307.043 4.842.182 4.98.103.105.3.174.438.151.143-.022 1.861-.86 4.138-1.996l.634-.318c1.078-.54 2.251-1.131 3.426-1.727l.704-.358c3.865-1.965 7.532-3.867 7.57-3.967.047-.104.012-.289-.069-.404-.219-.312-16.173-9.348-16.507-9.348Zm54.257 0c-.15 0-3.71 1.952-7.914 4.344-4.193 2.392-7.833 4.45-8.064 4.565-.507.254-.725.6-.576.878.058.104 2.615 1.606 5.68 3.34l.26.147c2.95 1.666 5.398 3.007 5.488 3.007.103.011.483-.22.864-.509.864-.647 2.626-1.56 3.686-1.906.45-.139.875-.312.956-.381.184-.14.196-12.92.012-13.266-.058-.127-.23-.22-.392-.22Zm-26.748 8.389-.427.277-.437.266-.496-.243-.484-.231.093.474c.08.439.057.52-.254.832-.426.45-.415.52.046.52.461 0 .576.08.818.554.104.197.219.37.242.37.023 0 .138-.173.242-.37.242-.473.357-.554.83-.554.46 0 .46-.093.022-.52l-.082-.081c-.223-.228-.245-.336-.183-.763l.07-.531Zm17.694-20.927c-6.382-3.778-6.567-3.87-6.647-3.12-.058.532-1.233 2.196-2.27 3.236-1.013 1.017-2.488 2.057-3.674 2.6-.415.196-.76.416-.76.497v6.967c.004 3.573.03 3.943.195 4.056.288.22.45.185.691-.127.127-.162 3.998-2.253 9.343-5.05 5.38-2.807 9.146-4.853 9.18-4.968a.631.631 0 0 0 0-.358c-.007-.017-.084-.075-.224-.17l-.159-.105c-.865-.567-3.093-1.927-5.675-3.458Zm-30.424-3.293c-.107 0-2.998 1.707-5.83 3.413l-.583.353c-2.422 1.463-4.655 2.838-4.876 3.028-.368.312-.196.948.254.948.092 0 4.135 2.184 8.985 4.842 3.94 2.168 7.364 4.017 8.583 4.634l.17.085c.177.087.281.134.301.134l.096.003h.058c.444-.012.441-.407.514-5.388.047-3.305.035-5.2-.034-5.327-.07-.127-.369-.312-.668-.427-2.408-.89-5.322-3.479-6.428-5.686-.219-.439-.369-.612-.542-.612Zm18.201-35.082c-.484-.312-.806-.346-1.002-.115-.086.108-.122 2.12-.126 7.278v1.1l-.002.935v1.779c.004 3.22.032 5.569.059 5.605.023.058.438.289.91.509 1.244.589 2.166 1.26 3.375 2.426 1.475 1.433 2.765 3.409 3.26 4.992.08.254.185.543.23.636.03.057 1.854 1.178 4.604 2.831l.494.297c1.596.958 3.465 2.072 5.455 3.25a946.346 946.346 0 0 0 9.736 5.702l.23.132.369.208.135.074c.118.065.185.1.197.1.115 0 .449-.15.748-.334.311-.185 3.157-1.768 6.348-3.536 3.179-1.768 5.84-3.294 5.886-3.398.07-.115.046-.427-.069-.82-.265-.913-.265-4.137 0-4.842.104-.312.15-.589.092-.681-.057-.104-1.624-1.075-3.479-2.161-1.866-1.086-10.955-6.413-20.205-11.833-9.25-5.419-17.014-9.983-17.245-10.134Zm-10.724-.508c-.277 0-46.378 26.496-46.816 26.9-.334.312-.334.428 0 .74.138.127 4.343 2.461 9.343 5.177 5.621 3.062 9.158 4.922 9.273 4.876.103-.035.368-.173.587-.312.22-.139 4.608-2.635 9.734-5.546 4.735-2.684 8.765-5.004 9.468-5.442l.071-.046a.35.35 0 0 0 .034-.024c.173-.15.242-.347.242-.647-.012-.578.76-2.3 1.601-3.57 1.244-1.873 3.34-3.699 5.345-4.646.415-.197.864-.358 1.002-.358l.104.001h.047c.396-.01.452-.3.459-4.94v-.846l.001-.303V21.53c-.007-4.44-.042-6.77-.115-6.906a.502.502 0 0 0-.38-.22Zm3.503 25.723c-.93.316-1.944 1.22-2.416 2.137-1.487 2.954.858 6.468 4.146 6.195.471-.043 1.115-.186 1.458-.344.758-.33 1.672-1.233 2.087-2.05.429-.847.529-2.295.215-3.242-.286-.874-1.158-1.907-2.045-2.423-.858-.502-2.387-.617-3.445-.273Zm60.28-2.407c-1.943.575-3.09 2.098-3.09 4.103 0 3.213 3.276 5.255 6.126 3.788 1.333-.668 2.388-2.358 2.388-3.788 0-.89-.407-1.93-1.073-2.692-1.167-1.374-2.74-1.876-4.35-1.411Z" fill="url(#a)" transform="matrix(1 0 0 -1 0 159)"/>
		<use fill="#3F51B5" xlink:href="#b"/>
		<use stroke="url(#c)" stroke-width="3" fill="url(#d)" xlink:href="#b"/>
	</g>
</svg>
