<svg xmlns="http://www.w3.org/2000/svg" width="200" height="128">
	<path d="M20 65.47A16.52 16.52 0 1 1 36.22 82 16.46 16.46 0 0 1 20 65.47zm19.17 6.28c-.17-.21-.33-.42-.5-.62l-6.1-7.23-1.8-2.11-1-1.16a2.61 2.61 0 0 0-.19-.27c-.58-.65-1.08-1.29-1.58-1.93l-.86-1a12.39 12.39 0 0 0 15.78 18.7c-.29-.33-.57-.67-.85-1l-1.86-2.17zm-1.82-8.44a1.77 1.77 0 0 0 .16.22c1 1.21 2 2.43 3.05 3.63.56.67 1.13 1.32 1.69 2l1 1.19 1.52 1.84c.38.45.77.9 1.15 1.36a12.38 12.38 0 0 0-15.75-18.7l.11.16 1.22 1.45L32.88 58l1 1.17 1.8 2.16c.15.19.3.37.46.55.39.5.8.96 1.21 1.43zm142.36 8.01a6.42 6.42 0 0 1-4 2.66 6.66 6.66 0 0 1-5.57-.91 6.07 6.07 0 0 1-2.56-3.8 6.82 6.82 0 0 1 .72-5.15 6.51 6.51 0 0 1 8.6-2.38 5.9 5.9 0 0 1 2.93 4.26 9.74 9.74 0 0 1 .15 2.48H169.3a4.66 4.66 0 0 0 3 3.72 5.34 5.34 0 0 0 6-2zm-1.52-4.59c0-.14 0-.25-.06-.35a4.38 4.38 0 0 0-1.49-2.71 4.62 4.62 0 0 0-7 1.74c-.18.41-.29.86-.44 1.32zM143.25 61l-1.39 1.22a6.72 6.72 0 0 0-5.86-2.94 6.56 6.56 0 0 0-4.29 11.3 6.82 6.82 0 0 0 10.17-1.08l1.37 1.2a8.14 8.14 0 0 1-1.6 1.66 8.58 8.58 0 0 1-13.72-5 8 8 0 0 1 1.77-6.75 8.18 8.18 0 0 1 5.44-3 8.41 8.41 0 0 1 7.72 3zm11.82 1.08v-.86h1.74V74.1h-1.75v-.94c-.2.1-.37.2-.54.27a7.33 7.33 0 0 1-6.38.13 6.62 6.62 0 0 1-1.76-10.73 6.45 6.45 0 0 1 5.2-1.82 8.34 8.34 0 0 1 3.49 1.07zm0 5.55v-3.22a.61.61 0 0 0-.17-.36 6 6 0 0 0-4-1.28 4.82 4.82 0 0 0-4.76 5 4.7 4.7 0 0 0 2.7 4.1 5.26 5.26 0 0 0 3.27.43 5.67 5.67 0 0 0 2.7-1.09.56.56 0 0 0 .26-.5c-.02-.99-.01-2.04-.01-3.08zm6.33 6.48h-1.75V61.22h1.74v1.35l.08.07a4.18 4.18 0 0 1 .43-.5 4.48 4.48 0 0 1 5.08-.66c.51.23.51.24.37.8l-.31 1.2-.63-.3a3.46 3.46 0 0 0-2.3-.26 3.18 3.18 0 0 0-2.05 1.67 5.69 5.69 0 0 0-.66 2.8v6.37z" fill="#3eb5f0"/>
	<path d="m63.91 66.19-2.23 2.42c-.31.33-.63.66-.92 1a.8.8 0 0 0-.17.43v3.56h-.79V58.05h.78v10.52a1.19 1.19 0 0 0 .19-.17l8.8-9.6.17-.18c.61-.66.61-.66 1.59-.57l-6.83 7.5 7.05 8.07h-1.07c-.08 0-.16-.11-.23-.18q-3.08-3.52-6.16-7.06zm56.3 4.72.61.49a4.76 4.76 0 0 1-1.46 1.3 6.51 6.51 0 0 1-6.79.17 5.63 5.63 0 0 1-2.85-4.69 6 6 0 0 1 1.56-4.82 5.72 5.72 0 0 1 4.8-1.87 5.38 5.38 0 0 1 5.13 5c.07.46.07.94.11 1.44h-10.77c-.18 1.58 1.24 3.69 3 4.52a5.83 5.83 0 0 0 6.66-1.54zm.3-3.71c0-.24 0-.46-.07-.69a4.89 4.89 0 0 0-2-3.45 5.1 5.1 0 0 0-7.77 3.17c-.07.31-.1.64-.15 1zm-36.36.8H73.36a5.25 5.25 0 0 0 3 4.48A5.87 5.87 0 0 0 83 70.92l.61.48a5.25 5.25 0 0 1-2 1.59 6.61 6.61 0 0 1-5.36.32 5.69 5.69 0 0 1-3.77-5.24 6 6 0 0 1 1.72-4.87 5.75 5.75 0 0 1 4.8-1.7 5.38 5.38 0 0 1 5 4.93c.1.5.11 1 .15 1.57zm-.84-.76c-.08-2.56-1.73-5.13-5.17-4.94a4.87 4.87 0 0 0-3.63 1.81 5.23 5.23 0 0 0-1.17 3.13zm14.04 6.38h-.77V61.71h.77v1.4l.3-.26a7.08 7.08 0 0 1 6-1.13 4.52 4.52 0 0 1 3.27 4 6.86 6.86 0 0 1 .07 1v6.88h-.79v-7.11a4 4 0 0 0-2.2-3.75 5.06 5.06 0 0 0-2.87-.44 6.47 6.47 0 0 0-3.49 1.4.66.66 0 0 0-.27.55v9zm-9.41-.01h-.78V61.72h.77v2.6H88l.15-.33A4.11 4.11 0 0 1 92 61.48a4.38 4.38 0 0 1 1.75.43c.12.05.18.11.13.25s-.1.38-.16.58c-.38-.11-.74-.26-1.12-.33a3.56 3.56 0 0 0-3.89 1.81 6.21 6.21 0 0 0-.8 3.15v5.91zM124.35 57h.78v16.61h-.78zm-93.58 4.79a6.82 6.82 0 0 0 8.4 10l1 1.19a8.1 8.1 0 0 1-7.23 0 8.3 8.3 0 0 1-3.16-12.32zm11.48 7.35a6.15 6.15 0 0 0 1.09-3.43 6.78 6.78 0 0 0-4.53-6.66l-.18-.05v-1.56a8 8 0 0 1 5.26 4.24 8.12 8.12 0 0 1-.63 8.65c-.34-.4-.67-.8-1.01-1.19zm-6.58-7.79V54.7c0-.46 0-.46.46-.46h.93c.19 0 .29.07.29.28v8.79c-.41-.47-.82-.93-1.22-1.41-.13-.18-.31-.36-.46-.55zM32.88 58l1.52-.62v1.5c0 .05-.08.11-.14.14l-.38.15z"/>
</svg>
