<svg version="1.1" id="Layer_1" xmlns="http://www.w3.org/2000/svg" x="0" y="0" viewBox="0 0 500 528.4" style="enable-background:new 0 0 500 528.4" xml:space="preserve">
	<style>
		.st0{fill:#343741}.st3{fill:#fff}
	</style>
	<switch>
		<g>
			<path class="st0" d="M130.6 115.1v161L245 144.3c-34-18.6-72.9-29.2-114.4-29.2"/>
			<path d="M130.6 0v115.1c41.5 0 80.4 10.7 114.4 29.2L370.3 0H130.6z" style="fill:#f04e98"/>
			<path d="M269.5 159.4 152.1 294.7l-10.6 12.2h224c-12.3-60.6-47.4-112.9-96-147.5" style="fill:#00bfb3"/>
			<path class="st0" d="M130.7 409.1v20.2h-21.5v-20.2h21.5zM22.5 470.8v55.1H-.1V409.1h22.5v52.4L68 409.1h26.8L46 464.2l52.3 61.7H68.4l-45.9-55.1zm108.2 55.1v-79.6h-21.5v79.6h21.5zm103.8-39.7c0 25.2-16.2 42.2-37.7 42.2-9.7 0-20.8-3.8-26-13.5h-.5v11h-19.8V409.1H172v47.4c3.8-7 12.3-12.7 24.1-12.7 21.5 0 38.4 16.9 38.4 42.4zM192 510.1c-13 0-20.8-10-20.8-23.9 0-14 7.9-23.9 20.8-23.9 13 0 20.8 10.2 20.8 23.9.1 13.3-7.8 23.9-20.8 23.9zm106.3 8c-3.9 6-13.7 10.2-23.4 10.2-16.7 0-28.5-10.3-28.5-24.9 0-16.5 13.1-26.4 34.8-26.4 7 0 14 1.5 16.7 3v-5.8c0-8.7-5.1-13.7-13.8-13.7-7.3 0-12 3.5-13.8 7.8l-21.5-1.7c4.8-14.5 18.1-22.9 36.7-22.9 21.7 0 33.8 11.3 33.8 31.7v50.4H299V518h-.7zm-17.3-6.2c-8.2 0-13-4-13-10.2 0-6.2 5.6-10.2 15.5-10.2 6.3 0 12.3 1.5 14.7 3.5v5.2c0 6.2-8 11.7-17.2 11.7zm78-31.7v45.7h-21.5v-79.6h20v10h.3c4.6-7.2 13.7-12.5 24.9-12.5 17.6 0 28.5 11.5 28.5 31.2v50.9h-21.5v-47.1c0-11-5-16.5-13.7-16.5-9.3 0-17 7.2-17 17.9zm96.5 48c9.7 0 19.5-4.2 23.4-10.2h.7v7.8h20.3v-50.4c0-20.4-12.1-31.7-33.8-31.7-18.6 0-31.9 8.3-36.7 22.9l21.5 1.7c1.9-4.3 6.5-7.8 13.8-7.8 8.7 0 13.8 5 13.8 13.7v5.8c-2.7-1.5-9.7-3-16.7-3-21.7 0-34.8 9.8-34.8 26.4 0 14.5 11.8 24.8 28.5 24.8zm-6.8-26.5c0 6.2 4.8 10.2 13 10.2 9.2 0 17.2-5.5 17.2-11.7V495c-2.4-2-8.4-3.5-14.7-3.5-9.9 0-15.5 4-15.5 10.2z"/>
			<path class="st3" d="M171.2 486.2c0 14.2 8.6 23.7 20.9 23.7 12.3 0 20.8-9.4 20.8-23.7 0-14.4-8.5-23.7-20.8-23.7s-20.9 9.3-20.9 23.7z"/>
			<path class="st3" d="M268.3 501.7c0 6.2 4.7 10.2 12.7 10.2 9 0 16.9-5.5 16.9-11.7V495c-2.3-2-8.2-3.5-14.4-3.5-9.7 0-15.2 4-15.2 10.2z"/>
			<path class="st3" d="M448.7 501.7c0 6.2 4.7 10.2 12.7 10.2 9 0 16.9-5.5 16.9-11.7V495c-2.3-2-8.2-3.5-14.4-3.5-9.7 0-15.2 4-15.2 10.2z"/>
		</g>
	</switch>
</svg>
