<svg xmlns="http://www.w3.org/2000/svg" width="292" height="277" fill="none">
	<g filter="url(#a)">
		<path fill-rule="evenodd" clip-rule="evenodd" d="M43.084 203.865a5.572 5.572 0 0 0 5.085 3.295c4.068 0 6.764-4.219 5.056-7.91l-21.686-46.871a7.486 7.486 0 0 1 .02-6.331l15.535-33.012c1.738-3.693-.956-7.939-5.038-7.939a5.568 5.568 0 0 0-5.049 3.22l-14.664 31.529a4.225 4.225 0 0 1-8.056-1.782V61.31a5.514 5.514 0 1 0-11.028 0v140.336a5.514 5.514 0 0 0 11.028 0V159.81a4.33 4.33 0 0 1 8.282-1.77l20.515 45.825ZM83.37 99.043a5.73 5.73 0 0 0-5.73 5.73v96.656a5.73 5.73 0 1 0 11.46 0v-96.656a5.73 5.73 0 0 0-5.73-5.73Zm44.363 76.114c0 3.46.577 6.631 1.73 9.514 1.298 2.739 3.028 5.118 5.19 7.136a24.78 24.78 0 0 0 7.352 4.757c2.883 1.009 5.91 1.514 9.082 1.514 1.441 0 3.243-.144 5.406-.433a468.34 468.34 0 0 0 6.27-1.297c.87-.205 1.748-.418 2.636-.641 2.783-.698 5.666.804 6.609 3.514.985 2.834-.503 5.957-3.396 6.75a62.87 62.87 0 0 1-3.038.756c-2.306.577-4.829 1.081-7.568 1.514-2.595.432-4.901.648-6.919.648-4.757 0-9.226-.792-13.407-2.378a36.188 36.188 0 0 1-10.812-7.136c-3.027-3.027-5.477-6.559-7.351-10.595-1.73-4.181-2.595-8.722-2.595-13.623v-45.193c0-4.901.865-9.37 2.595-13.406 1.874-4.181 4.324-7.713 7.351-10.596 3.028-2.883 6.56-5.117 10.596-6.703 4.18-1.73 8.649-2.595 13.406-2.595 2.307 0 4.686.288 7.136.865 2.595.577 4.974 1.225 7.136 1.946 1.156.321 2.299.671 3.426 1.05 2.391.802 3.632 3.374 2.954 5.804-.766 2.741-3.668 4.274-6.416 3.533a95.232 95.232 0 0 0-1.694-.44 79.744 79.744 0 0 0-6.271-1.514c-2.162-.432-4.252-.648-6.271-.648-6.342 0-11.82 2.09-16.433 6.27-4.469 4.037-6.704 9.515-6.704 16.434v45.193Zm117.598 26.164c5.334-5.333 8-13.334 8-24.002 0-5.766-.864-10.523-2.594-14.271-1.73-3.748-4.109-6.631-7.136-8.649-2.883-2.163-6.343-3.604-10.379-4.325-4.037-.865-8.289-1.298-12.758-1.298-2.018 0-4.181-.36-6.487-1.081-2.162-.865-4.253-2.09-6.271-3.676a22.347 22.347 0 0 1-4.973-6.054c-1.298-2.307-1.946-4.974-1.946-8.001 0-7.208 1.874-12.758 5.622-16.65 3.892-4.036 8.361-6.054 13.406-6.054h1.081c.365 0 .712.018 1.04.055.444.05.889.106 1.333.162h.001l.491.062a16.2 16.2 0 0 1 1.893.369c1.297.289 2.955.793 4.973 1.514 1.136.303 2.451.705 3.945 1.207 2.536.852 5.333-.309 6.414-2.756a5.046 5.046 0 0 0-2.892-6.783l-2.061-.75a67.923 67.923 0 0 0-8.433-2.379c-2.595-.72-5.118-1.08-7.569-1.08-8.361 0-15.424 2.738-21.19 8.216-5.623 5.334-8.434 13.263-8.434 23.786 0 5.91.793 10.812 2.379 14.704 1.586 3.892 3.82 7.063 6.703 9.514 3.028 2.307 6.631 3.964 10.812 4.974 4.18.864 8.866 1.297 14.055 1.297 1.874 0 3.892.36 6.055 1.081 2.306.577 4.324 1.586 6.054 3.027 1.874 1.298 3.388 3.028 4.541 5.19 1.298 2.162 1.946 4.757 1.946 7.784 0 7.352-1.73 12.974-5.189 16.867-3.46 3.892-7.713 5.838-12.758 5.838-1.874 0-3.892-.144-6.055-.433-2.018-.432-4.108-1.081-6.27-1.946l-13.107-5.274a5.209 5.209 0 1 0-3.87 9.673l12.868 5.116c2.739 1.153 5.478 1.946 8.217 2.378 2.739.433 5.406.649 8.001.649 8.361 0 15.208-2.667 20.542-8.001Zm35.568 8.084a7.75 7.75 0 1 0 0-15.501 7.75 7.75 0 0 0 0 15.501Z" fill="#9D4DF6"/>
	</g>
	<path d="M86.15 60.487c17.41-5.373 33.006-4.709 35.582 2.018 2.878 7.51-11.363 20.26-31.105 27.837-19.742 7.577-38.858 7.62-41.75.113C46 82.945 60.24 70.195 79.982 62.618c2.071-.79 4.122-1.5 6.167-2.13Z" fill="#52B469"/>
	<path opacity=".2" d="M100.69 64.554c2.151-.1 4.266.407 5.933 1.507a7.045 7.045 0 0 1 1.73 1.646c-4.877-1.55-14.088-.274-23.778 3.693-10.853 4.444-18.877 10.846-20.08 15.585a6.417 6.417 0 0 1-.89-1.206c-.279-.516-.455-1.082-.433-1.643.404 1.241 1.008 1.336 1.008 1.336 2.609-9.546 28.945-21.191 40.272-19.46-1.007-.84-2.228-1.421-3.762-1.458Z" fill="#231F20"/>
	<path opacity=".2" d="M86.954 63.081a99.4 99.4 0 0 0-6.154 2.126C62.48 72.24 48.903 83.71 49.336 91.34a5.598 5.598 0 0 1-.456-.889c-2.878-7.51 11.363-20.26 31.105-27.837 2.071-.79 4.123-1.5 6.154-2.127 17.41-5.373 33.006-4.709 35.582 2.018.212.54.314 1.114.346 1.71-3.573-5.89-18.518-6.256-35.113-1.134Z" fill="#fff"/>
	<path d="M61.98 69.752s16.676-10.4 35.765-13.325c-1.922-4.219-17.16-28.725-31.907-33.995-14.748-5.27-23.702-1.87-26.06 8.044-2.358 9.914-1.88 8.813-1.88 8.813l1.52.908s4.024-.546 4.15-.675c.127-.13 4.757-2.437 4.757-2.437s5.084.338 8.235 5.645c3.147 5.34 5.42 27.022 5.42 27.022Z" fill="#68E182"/>
	<path d="M61.975 69.756s-.012-.087-.027-.234l-.208-10.09c5.002-4.435 19.884-10.693 29.98-12.75 3.177 4.558 5.367 8.317 6.02 9.75-19.088 2.925-35.765 13.324-35.765 13.324Z" fill="#5C5DF5"/>
	<path d="M46.508 31.982c1.87 1.254 3.457 2.914 4.822 4.687a30.199 30.199 0 0 1 3.461 5.772 1.27 1.27 0 0 0 2.31-1.046.423.423 0 0 0-.066-.116 32.063 32.063 0 0 0-4.353-5.77c-1.654-1.728-3.517-3.303-5.664-4.425a.524.524 0 0 0-.705.217c-.11.23-.039.512.195.681Z" fill="#231F20"/>
	<path d="M55.121 38.486c-1-1.083-2.102-1.908-3.29-2.617a11.64 11.64 0 0 0-1.864-.892c-.663-.234-1.358-.428-2.143-.322a.343.343 0 0 0-.287.391c.019.16.145.273.3.286h.045c.516.053 1.068.322 1.568.667.496.331.981.726 1.42 1.166.882.848 1.67 1.83 2.214 2.813.343.62 1.111.852 1.732.51a1.27 1.27 0 0 0 .51-1.732.982.982 0 0 0-.182-.246l-.023-.024Z" fill="#231F20"/>
	<path opacity=".2" d="M93.27 55.986c-3.014-6.577-11.015-23.524-35.714-26.025 0 0 1.83-2.654 8.21-3.412 0 0-10.512-10.664-21.816-1.151l1.516-3.374c4.503-2.767 11.351-2.792 20.368.433 13.69 4.885 27.819 26.388 31.294 32.791-1.267.21-2.553.456-3.859.738Z" fill="#fff"/>
	<path d="M69.935 54.387c3.598-1.777 7.8-3.513 11.957-4.947l2.913 9.437-12.098 4.491-2.772-8.981Z" fill="#9D4DF6"/>
	<path d="M85.029 94.962a101.672 101.672 0 0 0 6.509-2.25c21.744-8.347 36.051-22.01 32.563-31.103-3.488-9.094-23.253-9.682-45.015-1.346-21.745 8.346-36.051 22.01-32.564 31.103 3.143 8.17 19.438 9.482 38.507 3.596Zm1.132-34.477c17.411-5.373 33.007-4.709 35.583 2.018 2.878 7.51-11.363 20.26-31.105 27.837-19.742 7.577-38.857 7.62-41.75.114-2.878-7.511 11.363-20.261 31.105-27.838 2.071-.79 4.122-1.5 6.167-2.13Z" fill="#231F20"/>
	<path d="M64.441 29.408c1.66-.164 3.465.096 5.158.482 1.697.399 3.353 1.008 4.942 1.743 1.599.717 3.116 1.611 4.59 2.564.74.483 1.432 1.01 2.148 1.516l2.05 1.638.058.042a1.274 1.274 0 0 0 1.783-.202c.438-.544.312-.853-.227-1.277-.022-.023-.03-.536-.052-.56l-2.293-1.546c-.795-.466-1.57-.969-2.388-1.412-1.632-.874-3.279-1.697-5.03-2.322-1.738-.629-3.515-1.14-5.343-1.423-1.837-.265-3.664-.398-5.574-.065a.435.435 0 0 0-.345.5c.04.23.238.38.458.358l.065-.036Z" fill="#231F20"/>
	<path d="M64.91 29.413c2.927.17 16.28 4.252 22.11 12.259l-.955-3.095-3.98-4.023-4.23-2.766-5.06-1.737-5.726-1.29-2.313.155.153.497Z" fill="#231F20"/>
	<path opacity=".2" d="m51.692 38.17.739-.894-2.699-3.495-2.734-2.682C53.974 33.697 66.257 45.1 66.9 66.996c-3.114 1.628-4.942 2.767-4.942 2.767s-2.264-21.7-5.43-27.003c-1.427-2.42-3.262-3.806-4.837-4.591Z" fill="#231F20"/>
	<path opacity=".2" d="m39.4 40.23-1.52-.908s-.478 1.1 1.88-8.813c.066-.278.136-.542.206-.806l1.547-.477c-2.421 3.138-1.047 7.784 1.694 6.272 2.742-1.512 3.347-2.985 3.048-3.755l3.128 1.455 1.742 2.898-.62 1.569c-1.298-.477-2.225-.54-2.225-.54s-4.63 2.308-4.757 2.438c-.098.12-4.122.667-4.122.667Z" fill="#231F20"/>
	<path d="M63.216 70.417c.514-12.947-2.757-25.846-7.971-31.364-1.957-2.075-4.151-3.153-6.51-3.197-2.588-.048-4.906.924-6.922 2.878-.706.703-1.578.623-2.143.314-.253-.134-1.037-.664-.82-1.775 1.382-6.753 4.738-15.099 12.827-16.596 17.081-3.154 40.577 24.084 44.862 36.2l2.388-.842c-2.474-6.985-10.02-17.263-18.35-24.983-6.162-5.695-18.14-14.937-29.334-12.86C41.79 19.93 37.95 29.258 36.406 36.757c-.385 1.844.435 3.619 2.071 4.506 1.677.92 3.737.633 5.121-.718 1.501-1.462 3.21-2.201 5.098-2.164 1.66.033 3.243.846 4.708 2.406 4.705 4.995 7.766 17.414 7.285 29.534l2.527.097Z" fill="#231F20"/>
	<path d="M88.297 63.554c17.41-5.374 30.993-5.887 33.181-.415 2.445 6.109-15.026 5.347-34.844 12.676-19.819 7.33-33.939 21.316-36.398 15.211-2.446-6.109 12.063-18.05 31.881-25.38 2.08-.765 4.135-1.46 6.18-2.092Z" fill="#52B469"/>
	<g filter="url(#b)">
		<path d="M62.346 83.652c-.211-.887-.29-1.906.158-2.811a.407.407 0 0 1 .455-.226.4.4 0 0 1 .321.472l-.013.048c-.129.667.086 1.393.421 2.035.238.443 1.535 2.521 1.884 2.897 4.899-4.435 6.146-8.029 7.536-8.864 9.3-5.284 10.204-5.704 15.223-7.775 4.068-1.678 12.546-2.623 12.546-2.623s4.517.346 7.603.207c-.454-.646-2.029-2.892-2.717-3.356-2.214-1.532-5.247-1.99-8.03-1.312a.317.317 0 0 1-.175-.608c2.862-1.01 6.23-.913 9.036.623 1.395.763 2.744 1.876 3.409 3.408 2.857 6.629-5.588 14.996-18.31 20.247-10.313 4.25-20.687 6.417-26.298 2.3-.803-.585-1.398-1.343-1.91-2.114-.51-.815-.911-1.652-1.14-2.548Z" fill="#231F20"/>
	</g>
	<path opacity=".2" d="M109.661 65.54c-.64-1.444-1.994-2.469-3.403-3.16-2.84-1.401-6.287-1.39-9.248-.35 7.095-2.998 18.805.848 15.398 8.921-1.769 2.624-4.574 4.015-7.652 5.933 4.334-3.851 6.395-7.922 4.905-11.343Z" fill="#231F20"/>
	<path opacity=".2" d="M62.506 80.847c-.131.738-.046 1.51.13 2.204a9.447 9.447 0 0 0 1.183 2.68c.526.824 1.135 1.634 1.948 2.268 1.949 1.53 6.78 1.582 9.57 1.795-3.01.477-6.906 2.502-10.408.884-3.906-2.556-3.342-6.318-2.423-9.83Z" fill="#231F20"/>
	<g filter="url(#c)">
		<path d="M89.172 75.098a5.731 5.731 0 1 1-11.438.73 5.731 5.731 0 0 1 11.438-.73Z" fill="#9D4DF6"/>
	</g>
	<path fill="#52B469" d="m71.79 70.387 21.28-8.578 2 4.96-21.28 8.578z"/>
	<path d="m65.595 86.14-.23-1.31-.466-2.602c-.031-.17.203-.248.28-.094l.945 1.88 2.362-2.686A44.132 44.132 0 0 1 105.515 66.5l-.715-1.431c-.068-.135.084-.273.212-.194l3.464 2.135a51.894 51.894 0 0 0-40.436 16.5l-2.445 2.63Z" fill="#49965A"/>
	<path d="M3.164 268.639c.094-1.221.187-3.1.187-4.698v-21.984H6.64v11.462h.094c1.127-2.067 3.288-3.382 6.2-3.382 4.51 0 7.704 3.758 7.704 9.301 0 6.482-4.133 9.771-8.173 9.771-2.63 0-4.698-1.034-6.107-3.383h-.094l-.282 2.913H3.164Zm3.382-7.234c0 .375.094.845.188 1.221.657 2.255 2.536 3.852 4.98 3.852 3.475 0 5.542-2.819 5.542-6.952 0-3.664-1.879-6.765-5.449-6.765-2.255 0-4.322 1.503-5.073 4.04-.094.376-.188.846-.188 1.315v3.289Z" fill="#1D2F7B"/>
	<path d="m25.617 250.506 3.946 10.71c.376 1.222.845 2.631 1.127 3.758h.094c.376-1.127.752-2.442 1.127-3.758l3.57-10.71h3.477l-4.98 12.965c-2.348 6.201-3.946 9.395-6.2 11.368-1.598 1.409-3.195 1.973-4.04 2.161l-.846-2.819a9.067 9.067 0 0 0 2.913-1.597 9.9 9.9 0 0 0 2.818-3.664c.188-.376.282-.563.282-.751 0-.188-.094-.47-.188-.846L21.953 250.6h3.664v-.094Z" fill="#1D2F7B"/>
	<path d="M57.532 258.636c0-9.993 3.234-14.392 10.608-14.392 6.63 0 9.8 3.59 10.09 11.093h-5.465c-.194-4.172-1.65-6.08-4.625-6.08-3.493 0-4.916 2.588-4.916 9.379 0 6.986 1.326 9.379 4.916 9.379 3.073 0 4.463-1.714 4.69-6.145h5.53c-.323 7.568-3.622 11.158-10.252 11.158-7.342 0-10.576-4.398-10.576-14.392Zm25.647-15.75h5.369v6.986l-.485 3.428 1.132.291 1.164-1.164c1.003-1.003 2.393-1.391 4.269-1.391 4.496 0 6.662 2.361 6.662 7.083v14.262h-5.368v-12.839c0-2.587-1.132-3.752-3.493-3.752-2.555 0-3.817 1.262-3.817 3.752v12.839H83.18v-29.495Zm23.448 19.017c0-7.374 3.46-10.867 10.058-10.867 6.824 0 9.961 3.655 9.217 11.805h-13.939c.194 4.139 1.682 5.886 4.787 5.886 2.264 0 3.784-.906 4.139-2.782h4.949c-.485 4.334-3.784 6.857-9.25 6.857-6.533-.032-9.961-3.558-9.961-10.899Zm14.327-2.458c-.065-2.879-1.488-4.431-4.269-4.431-2.684 0-4.14 1.391-4.625 4.431h8.894Zm9.767 2.458c0-7.374 3.428-10.867 9.961-10.867 5.984 0 9.121 2.943 9.282 8.409h-5.207c-.226-2.685-1.584-3.881-4.075-3.881-3.072 0-4.43 1.843-4.43 6.339 0 4.495 1.358 6.339 4.43 6.339 2.523 0 3.914-1.197 4.108-4.108h5.304c-.162 5.66-3.396 8.636-9.412 8.636-6.565 0-9.961-3.526-9.961-10.867Zm32.601 1.682h-2.361v8.796h-5.369v-29.495h5.369v15.912h2.425l5.498-7.374h6.145l-7.147 9.767 7.374 11.19h-6.339l-5.595-8.796Zm51.617 3.137c0-4.14 2.749-6.339 7.535-6.339h5.466v-1.553c0-2.587-1.164-3.654-3.558-3.654-2.037 0-3.46.808-3.622 2.749h-4.851c.162-4.334 3.202-6.889 8.926-6.889 5.725 0 8.474 2.458 8.474 7.568v13.777h-4.14l-.517-2.166h-1.165l-1.164 1.164c-.97.97-2.458 1.391-4.496 1.391-4.495 0-6.888-2.135-6.888-6.048Zm8.667 2.037c2.749 0 4.302-1.423 4.302-3.945v-1.326H223.8c-2.264 0-3.428.97-3.428 2.716.032 1.553.938 2.555 3.234 2.555Zm14.877-.905h5.79V255.92h-5.11v-4.496h8.958l.518 2.167h1.196l1.165-1.164c.97-1.003 2.458-1.391 4.43-1.391h3.396v4.819h-5.304c-2.555 0-3.881 1.229-3.881 3.493v8.473h6.695v4.528h-17.853v-4.495Zm-34.476-16.818c-1.908 0-3.428.388-4.431 1.391l-1.164 1.164h-1.455c-1.067-1.714-2.976-2.555-5.725-2.555-1.908 0-3.428.388-4.43 1.391l-1.165 1.164h-1.164l-.55-2.167h-3.978v20.957h5.369v-12.839c0-2.458 1.261-3.752 3.816-3.752 2.393 0 3.493 1.165 3.493 3.752v12.839h5.369v-12.904l.032.033c0-2.458 1.294-3.72 3.816-3.72 2.394 0 3.493 1.165 3.493 3.752v12.839h5.369v-14.262c.097-4.754-2.135-7.083-6.695-7.083Z" fill="#1D2F7B"/>
	<mask id="d" style="mask-type:alpha" maskUnits="userSpaceOnUse" x="262" y="244" width="29" height="30">
		<path d="M290.262 245.829a2.696 2.696 0 0 0-1.941-.97 2.726 2.726 0 0 0-2.037.808l-11.967 12.969c-.258.259-.711.259-.937.033l-6.145-7.148-.033-.032a2.698 2.698 0 0 0-2.005-.776 2.694 2.694 0 0 0-1.94.97 2.61 2.61 0 0 0-.583 1.876c.065.679.356 1.293.841 1.778l7.083 6.081c.13.129.194.291.194.485a.638.638 0 0 1-.161.452l-7.083 6.081-.033.032a2.773 2.773 0 0 0-.808 1.941c0 .776.291 1.455.808 1.972.259.227.55.421.874.55a2.76 2.76 0 0 0 1.972-.032c.324-.13.615-.324.906-.615l6.145-7.147c.259-.259.679-.259.905-.032l6.145 7.147.033.032a2.624 2.624 0 0 0 1.876.777c.323 0 .646-.065.97-.195.323-.129.614-.291.873-.549.55-.518.841-1.197.809-1.973 0-.712-.324-1.423-.841-1.973l-7.083-6.08a.657.657 0 0 1-.194-.485.64.64 0 0 1 .161-.453l12.937-11.966c.485-.486.776-1.1.809-1.779.097-.582-.097-1.262-.55-1.779Z" fill="#231F20"/>
	</mask>
	<g mask="url(#d)">
		<path d="M264.191 261.692h32.629l-2.086-24.929-30.194 5.692-4.95 7.92 4.601 11.317Z" fill="#E0617F"/>
		<path d="m263.254 275.467 22.319-2.035-1.846-11.81h-19.222l-4.921 9.442 3.67 4.403Z" fill="url(#e)"/>
	</g>
	<defs>
		<filter id="a" x=".264" y="55.796" width="291.38" height="159.598" filterUnits="userSpaceOnUse" color-interpolation-filters="sRGB">
			<feFlood flood-opacity="0" result="BackgroundImageFix"/>
			<feColorMatrix in="SourceAlpha" values="0 0 0 0 0 0 0 0 0 0 0 0 0 0 0 0 0 0 127 0" result="hardAlpha"/>
			<feOffset dy="2.994"/>
			<feGaussianBlur stdDeviation="1.497"/>
			<feColorMatrix values="0 0 0 0 0 0 0 0 0 0 0 0 0 0 0 0 0 0 0.25 0"/>
			<feBlend in2="BackgroundImageFix" result="effect1_dropShadow_3492_6093"/>
			<feBlend in="SourceGraphic" in2="effect1_dropShadow_3492_6093" result="shape"/>
		</filter>
		<filter id="b" x="59.182" y="61.074" width="54.371" height="35.432" filterUnits="userSpaceOnUse" color-interpolation-filters="sRGB">
			<feFlood flood-opacity="0" result="BackgroundImageFix"/>
			<feColorMatrix in="SourceAlpha" values="0 0 0 0 0 0 0 0 0 0 0 0 0 0 0 0 0 0 127 0" result="hardAlpha"/>
			<feOffset dy="2.994"/>
			<feGaussianBlur stdDeviation="1.497"/>
			<feColorMatrix values="0 0 0 0 0 0 0 0 0 0 0 0 0 0 0 0 0 0 0.25 0"/>
			<feBlend in2="BackgroundImageFix" result="effect1_dropShadow_3492_6093"/>
			<feBlend in="SourceGraphic" in2="effect1_dropShadow_3492_6093" result="shape"/>
		</filter>
		<filter id="c" x="74.727" y="69.732" width="17.451" height="17.451" filterUnits="userSpaceOnUse" color-interpolation-filters="sRGB">
			<feFlood flood-opacity="0" result="BackgroundImageFix"/>
			<feColorMatrix in="SourceAlpha" values="0 0 0 0 0 0 0 0 0 0 0 0 0 0 0 0 0 0 127 0" result="hardAlpha"/>
			<feOffset dy="2.994"/>
			<feGaussianBlur stdDeviation="1.497"/>
			<feColorMatrix values="0 0 0 0 0 0 0 0 0 0 0 0 0 0 0 0 0 0 0.25 0"/>
			<feBlend in2="BackgroundImageFix" result="effect1_dropShadow_3492_6093"/>
			<feColorMatrix in="SourceAlpha" values="0 0 0 0 0 0 0 0 0 0 0 0 0 0 0 0 0 0 127 0" result="hardAlpha"/>
			<feOffset dy="2.994"/>
			<feGaussianBlur stdDeviation="1.497"/>
			<feColorMatrix values="0 0 0 0 0 0 0 0 0 0 0 0 0 0 0 0 0 0 0.25 0"/>
			<feBlend in2="effect1_dropShadow_3492_6093" result="effect2_dropShadow_3492_6093"/>
			<feColorMatrix in="SourceAlpha" values="0 0 0 0 0 0 0 0 0 0 0 0 0 0 0 0 0 0 127 0" result="hardAlpha"/>
			<feOffset dy="2.994"/>
			<feGaussianBlur stdDeviation="1.497"/>
			<feColorMatrix values="0 0 0 0 0 0 0 0 0 0 0 0 0 0 0 0 0 0 0.25 0"/>
			<feBlend in2="effect2_dropShadow_3492_6093" result="effect3_dropShadow_3492_6093"/>
			<feBlend in="SourceGraphic" in2="effect3_dropShadow_3492_6093" result="shape"/>
		</filter>
		<linearGradient id="e" x1="278.995" y1="257.962" x2="278.297" y2="284.269" gradientUnits="userSpaceOnUse">
			<stop stop-color="#797AB8" offset="0%"/>
			<stop offset="1" stop-color="#409CEF"/>
		</linearGradient>
	</defs>
</svg>
