<svg xmlns="http://www.w3.org/2000/svg" viewBox="27.12 12.37 266.76 175.76">
	<defs>
		<clipPath id="a" clipPathUnits="userSpaceOnUse">
			<path d="M0 151.534h232.515V0H0z"/>
		</clipPath>
	</defs>
	<path fill="#009154" d="M33.317 69.428h15.264V86.38l16-16.952h20.26L66.9 86.311l18.727 27.977H66.854L56.476 95.872l-7.895 7.485v10.93H33.317z"/>
	<path fill="#009154" d="M91.302 69.428h15.264v44.86H91.302z"/>
	<path fill="#009154" d="M117.623 69.428h14.23l18.518 24.777V69.428h14.403v44.86H150.37l-18.417-24.643v24.643h-14.331z"/>
	<path fill="#009154" d="M171.594 69.428h16.768l8.723 13.8 8.476-13.8h16.624l-15.342 21.725 16.778 23.135h-17.128l-9.71-14.413-9.71 14.413h-17.055l17.027-23.379z"/>
	<path fill="#373535" d="M32.287 121.198h4.893l2.12 6.373 2.695-6.373h4.525l2.784 6.361 2.13-6.361h4.858l-4.854 10.139h-4.495l-2.672-6.1-2.577 6.1h-4.519z"/>
	<path fill="#373535" d="M56.312 121.198h4.895l2.118 6.373 2.696-6.373h4.524l2.784 6.361 2.132-6.361h4.858l-4.858 10.139h-4.494l-2.67-6.1-2.58 6.1H61.2z"/>
	<path fill="#373535" d="M80.337 121.198h4.893l2.119 6.373 2.696-6.373h4.525l2.783 6.361 2.132-6.361h4.859l-4.856 10.139h-4.496l-2.67-6.1-2.58 6.1h-4.517z"/>
	<path fill="#373535" d="M103.704 127.432h5.41v3.905h-5.41z"/>
	<path fill="#373535" d="M112.18 117.33h5.159v7.195l3.772-3.327h6.225l-4.727 3.55 5.014 6.59h-5.706l-2.681-4.057-1.897 1.421v2.636h-5.159z"/>
	<path fill="#373535" d="M129.336 121.197h5.052v10.139h-5.052zm0-3.868h5.052v2.65h-5.052z"/>
	<g clip-path="url(#a)" transform="matrix(1.33333 0 0 -1.33333 0 202.045)">
		<path fill="#373535" d="M103.225 60.636h3.529v-1.245c.528.504 1.061.864 1.6 1.081.541.217 1.197.325 1.974.325 1.048 0 1.87-.24 2.461-.719.594-.478.889-1.219.889-2.22v-4.826h-3.815v4.172c0 .478-.115.814-.343 1.011-.23.199-.551.298-.966.298-.456 0-.828-.134-1.113-.399-.284-.268-.427-.747-.427-1.438v-3.644h-3.789z"/>
		<path fill="#373535" d="M115.098 60.636h4.488l1.573-2.12 1.813 2.12h4.192l-3.371-3.624 3.614-3.98h-4.435l-1.813 2.448-2.137-2.448h-4.112l3.59 3.98z"/>
		<path fill="#373535" d="M128.692 55.96h4.058v-2.929h-4.058z"/>
		<path fill="#373535" d="M135.05 60.636h3.528v-1.245c.528.504 1.061.864 1.601 1.081.539.217 1.197.325 1.973.325 1.048 0 1.87-.24 2.462-.719.592-.478.889-1.219.889-2.22v-4.826h-3.816v4.172c0 .478-.115.814-.344 1.011-.229.199-.55.298-.965.298-.457 0-.828-.134-1.113-.399-.285-.268-.426-.747-.426-1.438v-3.644h-3.789z"/>
		<path fill="#373535" d="M154.903 57.519c-.074.558-.271.956-.59 1.197-.319.241-.738.362-1.259.362-.6 0-1.081-.182-1.44-.546-.229-.227-.375-.565-.437-1.013zm3.87-1.397h-7.604c.067-.465.232-.813.494-1.04.366-.329.844-.492 1.435-.492.373 0 .727.073 1.063.216.205.091.426.252.662.483l3.735-.269c-.572-.768-1.262-1.316-2.071-1.65-.809-.334-1.969-.5-3.479-.5-1.312 0-2.345.142-3.097.425a4.291 4.291 0 0 0-1.871 1.35c-.494.615-.741 1.34-.741 2.174 0 1.185.496 2.145 1.488 2.879.991.732 2.362 1.099 4.109 1.099 1.418 0 2.537-.164 3.359-.492.82-.328 1.446-.803 1.875-1.426.429-.621.643-1.432.643-2.43z"/>
		<path fill="#373535" d="M165.057 63.537v-2.901h2.096v-2.123h-2.096v-2.689c0-.324.04-.539.121-.642.125-.163.342-.244.654-.244.28 0 .672.063 1.175.186l.28-2.018a15.82 15.82 0 0 0-2.624-.237c-.942 0-1.637.094-2.084.279-.446.186-.776.469-.991.848-.214.378-.32.993-.32 1.841v2.676h-1.398v2.123h1.398v1.4z"/>
		<path fill="#009154" d="M155.144 109.782h-.001v-3.007h.001c16.943 0 30.679-13.735 30.679-30.679s-13.736-30.678-30.679-30.678h-.001v-3.007h.001c18.604 0 33.688 15.081 33.688 33.685 0 18.605-15.084 33.686-33.688 33.686"/>
		<path fill="#009154" d="m155.165 14.188 3.594 16.344-3.563 7.537-3.691-7.471z"/>
		<path fill="#009154" d="m216.765 76.053-16.345 3.594-7.537-3.561 7.473-3.693z"/>
		<path fill="#009154" d="m155.202 138.302-3.595-16.345 3.563-7.536 3.692 7.471z"/>
	</g>
</svg>
