<svg xmlns="http://www.w3.org/2000/svg" viewBox="-1.4 -1.4 63.17 72.67">
	<path fill="#D1375C" d="M51.734 18.434H38.546L48.722-.001h7.073a2.245 2.245 0 0 1 2.085 3.079l-6.146 15.356z"/>
	<path fill="#FFB800" d="M30.212 44.636c5.566 0 10.078-3.457 10.078-7.722H20.134c0 4.265 4.512 7.722 10.078 7.722z"/>
	<path fill="#D1375C" d="M10.067 44.636c5.56 0 10.067-3.457 10.067-7.722H0c0 4.265 4.507 7.722 10.067 7.722zm40.29 0c5.56 0 10.067-3.457 10.067-7.722H40.29c0 4.265 4.507 7.722 10.067 7.722z"/>
	<path fill="#FFD600" d="M23.62 0h13.185l3.485 36.913H20.134L23.62 0z"/>
	<path fill="#EB4C63" d="M9.855 2.043A2.806 2.806 0 0 1 12.555 0H23.62l-3.485 36.913H0l9.855-34.87zm41.879 16.39H38.546l1.744 18.478h20.134l-8.69-18.477z"/>
	<path d="M0 69.74V52.297h3.494v9.602l4.58-4.426h3.986l-4.943 5.02 5.228 7.247h-3.7l-3.728-5.409-1.423 1.372v4.037H0zm14.047-14.519v-2.743h3.804v2.743h-3.804zM26.934 70c-2.295 0-3.977-.552-5.047-1.656-1.07-1.122-1.604-2.7-1.604-4.736 0-2.036.535-3.606 1.604-4.71 1.087-1.122 2.77-1.683 5.047-1.683 2.295 0 3.977.56 5.047 1.682 1.087 1.105 1.63 2.675 1.63 4.71 0 2.036-.535 3.615-1.604 4.737-1.07 1.104-2.761 1.656-5.073 1.656zm0-2.976c1.121 0 1.924-.25 2.407-.75.483-.518.725-1.407.725-2.666 0-1.26-.242-2.14-.725-2.64-.483-.518-1.285-.777-2.407-.777-1.104 0-1.898.26-2.381.777-.483.5-.725 1.38-.725 2.64s.242 2.148.725 2.665c.483.5 1.277.75 2.381.75zm13.302 2.976c-.914 0-1.786-.069-2.614-.207-.828-.12-1.492-.276-1.993-.466v-2.898c.604.241 1.286.43 2.045.569.76.12 1.458.181 2.096.181.863 0 1.467-.052 1.812-.155.362-.104.543-.337.543-.699 0-.414-.276-.716-.828-.906a96.056 96.056 0 0 0-2.407-.802c-1.121-.38-1.984-.837-2.588-1.372-.604-.535-.905-1.328-.905-2.38 0-1.174.422-2.071 1.268-2.692.862-.639 2.243-.958 4.14-.958.76 0 1.476.06 2.149.181.673.104 1.242.233 1.708.388v2.873c-.466-.224-1.001-.388-1.605-.492a8.61 8.61 0 0 0-1.682-.18c-.742 0-1.337.051-1.786.155-.431.103-.647.327-.647.672 0 .38.233.647.699.803.483.155 1.225.388 2.226.699.983.293 1.75.612 2.303.957.552.345.94.76 1.165 1.242.224.466.336 1.053.336 1.76 0 2.485-1.812 3.727-5.435 3.727zm7.86-.259V52.297h3.494v9.602l4.58-4.426h3.986l-4.943 5.02 5.228 7.247h-3.7l-3.728-5.409-1.423 1.372v4.037h-3.494zM14.053 57.422h3.804v12.345h-3.804z"/>
</svg>
