<svg xmlns="http://www.w3.org/2000/svg" id="Layer_1" data-name="Layer 1" viewBox="0 0 400 245">
	<defs>
		<style>
			.cls-1{fill:#1347ff}
		</style>
	</defs>
	<path class="cls-1" d="m147.44 107.258-5.082 5.179-5.001-5.179h-18.169l-6.056 6.328v-6.328h-9.515v46.27h10.1v-32.384l5.374-5.454h11.625l2.793 2.784v35.054h10.099v-34.197l3.637-3.641h13.362l2.793 2.784v35.054h10.083v-38.032l-8.07-8.238Z"/>
	<path class="cls-1" d="M46.628 107.257H33.265l-20.182 19.825V86.477H3v67.05h10.083v-15.715l7.988-7.185 15.945 22.9H49.42l-21.14-29.503Z"/>
	<path class="cls-1" d="m59.163 107.258-8.07 8.238v29.795l8.07 8.237h27.586l8.07-8.237v-29.795l-8.07-8.238Zm25.475 35.055-2.695 2.783H63.969l-2.68-2.783v-23.84l2.696-2.783h17.974l2.695 2.784v23.839Z"/>
	<path class="cls-1" d="m325.049 107.258-8.07 8.238v29.795l8.07 8.237h27.586l8.069-8.237v-29.795l-8.07-8.238Zm25.476 35.055-2.696 2.783h-17.973l-2.696-2.783v-23.84l2.696-2.783h17.973l2.696 2.784Z"/>
	<path class="cls-1" d="m385.743 107.258-6.721 6.894v-6.894h-9.515v46.27h10.099v-31.316l5.376-5.373h12.404v-9.58Z"/>
	<path class="cls-1" d="m189.706 107.258-8.07 8.238v29.795l8.07 8.237h59.62l8.07-8.237v-29.795l-8.07-8.238Zm57.494 35.055-2.696 2.783h-50.008l-2.696-2.783v-23.84l2.696-2.783h50.008l2.696 2.784Z"/>
	<path class="cls-1" d="m298.003 113.002-5.572-5.745h-19.223l-8.07 8.238v29.794l8.07 8.238h19.223l5.572-5.648v5.648h10.08v-67.05h-10.08Zm0 26.736-5.376 5.357h-14.611l-2.794-2.784v-23.838l2.794-2.784h14.61l5.377 5.454Z"/>
</svg>
