<svg xmlns="http://www.w3.org/2000/svg" viewBox="-4.88 78.62 410.02 82.52">
	<path fill="#1347ff" d="m147.44 107.258-5.082 5.179-5.001-5.179h-18.169l-6.056 6.328v-6.328h-9.515v46.27h10.1v-32.384l5.374-5.454h11.625l2.793 2.784v35.054h10.099v-34.197l3.637-3.641h13.362l2.793 2.784v35.054h10.083v-38.032l-8.07-8.238zm-100.812-.001H33.265l-20.182 19.825V86.477H3v67.05h10.083v-15.715l7.988-7.185 15.945 22.9H49.42l-21.14-29.503zm12.535.001-8.07 8.238v29.795l8.07 8.237h27.586l8.07-8.237v-29.795l-8.07-8.238zm25.475 35.055-2.695 2.783H63.969l-2.68-2.783v-23.84l2.696-2.783h17.974l2.695 2.784v23.839zm240.41-35.055-8.069 8.238v29.795l8.07 8.237h27.586l8.069-8.237v-29.795l-8.07-8.238zm25.477 35.055-2.696 2.783h-17.973l-2.696-2.783v-23.84l2.696-2.783h17.973l2.696 2.784zm35.218-35.055-6.721 6.894v-6.894h-9.515v46.27h10.099v-31.316l5.376-5.373h12.404v-9.58zm-196.037 0-8.07 8.238v29.795l8.07 8.237h59.62l8.07-8.237v-29.795l-8.07-8.238zm57.494 35.055-2.696 2.783h-50.008l-2.696-2.783v-23.84l2.696-2.783h50.008l2.696 2.784zm50.803-29.31-5.572-5.746h-19.223l-8.07 8.238v29.794l8.07 8.238h19.223l5.572-5.648v5.648h10.08v-67.05h-10.08zm0 26.735-5.376 5.357h-14.611l-2.794-2.784v-23.838l2.794-2.784h14.61l5.377 5.454z"/>
</svg>
