<svg xmlns="http://www.w3.org/2000/svg" width="200" height="128">
	<path d="M166.787 72.284h7.5v-11.6h-7.5zm7.456-16.154H180v21.538c0 3.562-.373 4.183-1.325 5.136-.746.787-1.947 1.16-4.018 1.16h-8.408l-2.609-2.9v-1.2h10.6v-2.94H167c-2.2 0-3.314-.415-4.225-1.326-1.2-1.242-1.7-3.935-1.7-9.029s.58-7.911 1.822-9.195c.953-.911 2.112-1.284 4.183-1.284l4.308.041 2.858 2.61V56.13zm-67.927-5.715h6.793l-9.775 12.425 10.189 14.041h-7.207l-7.745-11.017h-1.822v11.017h-6.13V50.415h6.13v10.272h1.822zm44.732 12.26v-1.906h-7.041V76.8h-5.716V56.13h5.716v2.61l2.858-2.61h1.657a5.325 5.325 0 0 1 .828-.041h2.485a4.815 4.815 0 0 1 3.645 1.16c.87.828 1.2 1.905 1.2 4.97V76.8h-5.715V62.923a.306.306 0 0 0 .083-.248zm-30.111 9.567h7.5v-11.6h-7.5zm.249 4.556c-2.071 0-3.19-.331-4.059-1.284-1.326-1.366-1.864-3.23-1.864-9.07 0-5.882.538-7.7 1.864-9.112.869-.912 1.988-1.243 4.059-1.243h6.958c2.071 0 3.189.331 4.059 1.243 1.325 1.408 1.864 3.23 1.864 9.112s-.539 7.7-1.864 9.07c-.911.953-1.988 1.284-4.059 1.284z" fill="#043558"/>
	<path fill="#169fcc" d="m37.893 82.887 1.449-1.823H50.07l5.591 6.959-.994 2.361H40.834l.331-2.361-3.272-5.136z"/>
	<path fill="#14b59a" d="m41.91 58.781 5.012-8.822h5.84L78.939 80.94l-2.03 9.444H65.685l.704-2.651L41.91 58.781z"/>
	<path fill="#1bc263" d="m47.875 47.764 2.361-4.39 7.082-5.758 12.136 9.568-1.574 1.615 2.112 2.941v3.148l-6.047 4.97-10.147-12.094h-5.923z"/>
	<path fill="#16bdcc" d="M28.739 67.852h3.272l8.533-7.29 11.307 13.42-3.189 4.887H38.224l-7.207 9.361-1.656 2.154H20V78.911l8.739-11.059z"/>
</svg>
