<svg width="193" height="75" fill="none" xmlns="http://www.w3.org/2000/svg">
	<g clip-path="url(#a)">
		<path d="m76.214 22.546-19.252 9.22a2.756 2.756 0 0 0-1.551 1.9L50.67 54.332c-.16.898.05 1.799.566 2.52l13.311 16.368c.663.658 1.597 1.085 2.466 1.137l21.338.004c.9.1 1.76-.294 2.35-1.092l13.334-16.388a3.63 3.63 0 0 0 .658-2.516L99.895 33.84c-.255-.812-.879-1.516-1.696-1.95l-19.316-9.188c-.348-.173-.777-.249-1.3-.249-.375 0-.547.003-.754.015a3.908 3.908 0 0 0-.615.078Zm1.215 12.65c3.45 0 6.144 1.36 8.013 4.054 1.83 2.639 2.736 6.224 2.736 10.748 0 4.52-.905 8.136-2.732 10.836-1.868 2.761-4.563 4.157-8.017 4.157-3.453 0-6.162-1.394-8.063-4.152-1.86-2.701-2.783-6.319-2.783-10.841 0-4.525.923-8.113 2.787-10.752 1.902-2.692 4.61-4.05 8.059-4.05Z" fill="#326DE6" stroke="#326DE6" stroke-width="1.333"/>
		<path d="M14.336 0v41.891l3.256-3.535 1.121-1.225a284.75 284.75 0 0 0 4.378-4.903l3.993-4.618 1.971-2.316c.45-.532.867-1.03 1.252-1.492h17.03a650.68 650.68 0 0 1-9.959 11.091 274.81 274.81 0 0 1-10.631 10.901c1.924 1.714 3.913 3.761 5.965 6.141 2.053 2.38 4.041 4.84 5.965 7.379a108.854 108.854 0 0 1 5.292 7.616c1.604 2.54 2.95 4.856 4.04 6.95H31.559l-1.075-1.708a285.894 285.894 0 0 0-2.437-3.766c-1.315-2-2.71-3.999-4.185-5.998-1.476-2-3.031-3.92-4.667-5.76-1.635-1.84-3.255-3.396-4.858-4.665v21.898H0V2.285L14.336 0Z" fill="#303030"/>
		<path d="m113.529 11.242 14.228-2.287v14.772h17.092v11.818h-17.092v17.63c0 2.987.525 5.37 1.575 7.148 1.051 1.78 3.167 2.669 6.35 2.669 1.528 0 3.103-.143 4.727-.429 1.623-.286 3.103-.683 4.44-1.191l2.005 11.055c-1.719.699-3.629 1.302-5.729 1.81-2.101.509-4.679.763-7.735.763-3.883 0-7.097-.524-9.644-1.573-2.546-1.048-4.583-2.51-6.111-4.383-1.528-1.875-2.594-4.146-3.199-6.815-.604-2.668-.907-5.622-.907-8.863V11.243Z" fill="#303030"/>
		<path d="M171.146 63.509c2.63 0 4.49-.253 5.581-.76 1.09-.506 1.636-1.488 1.636-2.944 0-1.14-.706-2.136-2.117-2.991-1.294-.784-3.208-1.66-5.741-2.63l-.707-.267c-2.245-.823-4.282-1.678-6.11-2.564-1.829-.886-3.384-1.947-4.667-3.181-1.283-1.235-2.278-2.707-2.983-4.416-.706-1.71-1.059-3.767-1.059-6.173 0-4.685 1.764-8.389 5.293-11.111 3.528-2.723 8.372-4.084 14.53-4.084 3.08 0 6.031.27 8.853.807 2.823.538 5.068 1.124 6.736 1.757l-2.502 11.016a53.174 53.174 0 0 0-5.437-1.52c-1.956-.442-4.153-.664-6.591-.664-4.491 0-6.736 1.235-6.736 3.704 0 .57.096 1.076.288 1.52.193.442.578.87 1.155 1.281.578.412 1.363.855 2.358 1.33a42.69 42.69 0 0 0 3.158 1.326l.643.24c3.143 1.14 5.741 2.264 7.794 3.372s3.673 2.311 4.86 3.609c1.187 1.298 2.021 2.738 2.502 4.321.481 1.583.722 3.419.722 5.508 0 4.938-1.877 8.674-5.63 11.206-3.753 2.533-9.061 3.799-15.926 3.799-4.49 0-8.227-.38-11.21-1.14l-1.223-.317c-2.333-.62-3.994-1.148-4.984-1.582l2.406-11.491a47.462 47.462 0 0 0 7.505 2.232c2.567.538 5.101.807 7.603.807Z" fill="#303030"/>
	</g>
	<defs>
		<clipPath id="a">
			<path fill="#fff" d="M0 0h193v75H0z"/>
		</clipPath>
	</defs>
</svg>
