<svg xmlns="http://www.w3.org/2000/svg" viewBox="-3.67 -5.92 308.1 91.1">
	<g fill="#121212" clip-path="url(#a)">
		<path d="m127.021 44.281 15.412-20.231h-9.461l-14.281 18.386V24.05h-8.212v41.653h8.212V46.184l14.876 19.517h9.461l-16.007-21.421zm48.336 17.732c3.035-3.035 4.582-6.783 4.582-11.187 0-4.403-1.547-8.092-4.582-11.127-3.034-3.035-6.783-4.582-11.186-4.582-4.404 0-8.152 1.547-11.187 4.582s-4.522 6.724-4.522 11.127c0 4.404 1.487 8.152 4.522 11.187s6.783 4.522 11.187 4.522c4.403 0 8.152-1.487 11.186-4.522zm-16.958-5.296c-1.488-1.547-2.261-3.51-2.261-5.89s.773-4.344 2.261-5.891c1.547-1.548 3.451-2.321 5.772-2.321 2.32 0 4.224.773 5.772 2.32 1.547 1.548 2.32 3.511 2.32 5.891s-.773 4.344-2.32 5.891c-1.548 1.547-3.452 2.321-5.772 2.321-2.321 0-4.225-.773-5.772-2.32zm44.522-.773-7.736-19.994h-8.39l12.198 28.8c-1.428 4.047-3.689 5.772-7.795 5.713v7.14c7.617.417 12.615-3.332 15.71-11.9l10.829-29.753h-8.211l-6.605 19.994zm52.176-1.964c.178-1.13.297-2.142.297-3.154 0-4.462-1.428-8.152-4.284-11.186-2.797-3.035-6.426-4.523-10.769-4.523-4.582 0-8.39 1.488-11.306 4.523-2.916 2.975-4.403 6.724-4.403 11.186 0 4.523 1.487 8.271 4.462 11.247 2.976 2.975 6.903 4.462 11.842 4.462 5.712 0 10.055-2.142 12.971-6.366l-6.188-3.57c-1.487 1.963-3.749 2.975-6.664 2.975-4.582 0-7.379-1.845-8.39-5.594h22.432zm-22.551-5.95c.892-3.809 3.689-6.01 7.795-6.01 3.51 0 6.486 1.963 7.378 6.01h-15.173zm51.475-12.913c-4.166 0-7.379 1.428-9.64 4.344V24.05h-7.676v41.653h7.676v-3.511c2.261 2.915 5.474 4.343 9.64 4.343 3.986 0 7.438-1.487 10.234-4.522 2.857-3.035 4.285-6.783 4.285-11.187 0-4.403-1.428-8.092-4.285-11.127-2.796-3.035-6.248-4.582-10.234-4.582zm-7.319 21.779c-1.547-1.607-2.321-3.63-2.321-6.07 0-2.44.774-4.462 2.321-6.01 1.547-1.606 3.51-2.38 5.891-2.38 2.38 0 4.343.774 5.89 2.38 1.607 1.548 2.381 3.57 2.381 6.01s-.774 4.463-2.381 6.07c-1.547 1.547-3.51 2.32-5.89 2.32-2.381 0-4.344-.773-5.891-2.32zM42.507 19.284l40.08 23.077V23.103L42.482 0 2.479 23.129v19.283l40.029-23.128z"/>
		<path d="m76.176 65.569 6.411-3.77V49.976l-40.105-23.13-40.003 23.13V61.85l6.411 3.719L42.482 46.13 76.176 65.57z"/>
		<path d="m42.508 73.466 10.179 5.873 16.72-9.617-26.925-15.539L15.66 69.722l16.718 9.617 10.13-5.873z"/>
	</g>
	<defs>
		<clipPath id="a">
			<path fill="#fff" d="M0 0h300v79.339H0z"/>
		</clipPath>
	</defs>
</svg>
