<svg width="1750" height="1750" xmlns="http://www.w3.org/2000/svg" xmlns:xlink="http://www.w3.org/1999/xlink">
	<defs>
		<linearGradient x1="50%" y1="0%" x2="50%" y2="100%" id="c">
			<stop stop-color="#2A69D9" offset="0%"/>
			<stop stop-color="#1A59C8" offset="100%"/>
		</linearGradient>
		<linearGradient x1="50%" y1="0%" x2="50%" y2="100%" id="e">
			<stop stop-color="#BF87ED" offset="0%"/>
			<stop stop-color="#8B4FD7" offset="100%"/>
		</linearGradient>
		<linearGradient x1="50%" y1="18.442%" x2="50%" y2="65.661%" id="g">
			<stop stop-color="#CAA1EC" offset="0%"/>
			<stop stop-color="#A372DC" offset="100%"/>
		</linearGradient>
		<linearGradient x1="50%" y1="18.442%" x2="50%" y2="65.661%" id="h">
			<stop stop-color="#CAA1EC" offset="0%"/>
			<stop stop-color="#A372DC" offset="100%"/>
		</linearGradient>
		<path d="M62.192 124.343C27.887 124.343.078 96.533.078 62.23.078 27.924 27.888.115 62.192.115s62.114 27.81 62.114 62.114c0 34.305-27.81 62.114-62.114 62.114Z" id="a"/>
		<path d="M95.73 112.522 170.505 448.5l309.724 152.995L789.971 448.5l74.302-333.923c59.184 79.721 94.196 178.46 94.196 285.377 0 264.675-214.56 479.235-479.234 479.235S0 664.63 0 399.954C0 292.117 35.618 192.6 95.73 112.522Z" id="d"/>
		<path d="M42.225 83.942C19.045 83.942.255 65.15.255 41.97.254 18.79 19.044 0 42.224 0s41.97 18.79 41.97 41.97-18.79 41.972-41.97 41.972Z" id="i"/>
		<path d="M79.135 157.968C35.6 157.968.307 122.676.307 79.14.307 35.605 35.6.313 79.135.313c43.535 0 78.828 35.292 78.828 78.827 0 43.536-35.293 78.828-78.828 78.828Z" id="k"/>
	</defs>
	<g fill="none" fill-rule="evenodd">
		<g transform="translate(396.81 322.528)">
			<g transform="translate(565.835 .353)">
				<mask id="b" fill="#fff">
					<use xlink:href="#a"/>
				</mask>
				<path fill="#FD863A" mask="url(#b)" d="M-1.08-1.043h126.544v126.544H-1.08z"/>
			</g>
			<path fill="url(#c)" fill-rule="nonzero" d="M480.23 6.24 170.504 159.236 133.16 329.674 149.505 470.5 479.5 625.38l327.594-163.875 23.034-118.168-40.157-184.102z"/>
			<mask id="f" fill="#fff">
				<use xlink:href="#d"/>
			</mask>
			<use fill="url(#e)" fill-rule="nonzero" xlink:href="#d"/>
			<g mask="url(#f)" fill-rule="nonzero" stroke-width="13">
				<path stroke="#A372DC" d="m55.291-67.426 336.857 1582.242"/>
				<path stroke="#A372DC" d="m909.589-60.315-357.694 1575.13"/>
				<path stroke="#A372DC" d="m298.181-152.524-639.34 787.607"/>
				<path stroke="#A372DC" d="m686.166-130.746 556.089 734.98"/>
				<path stroke="url(#g)" d="M1553.182 1131.34 64.184 384.331" transform="translate(-341.463 -153.087)"/>
				<path stroke="url(#h)" transform="matrix(-1 0 0 1 1298.665 -153.087)" d="M1578.305 1144.757 61.823 385.331"/>
			</g>
		</g>
		<g transform="translate(734.638 185.325)">
			<mask id="j" fill="#fff">
				<use xlink:href="#i"/>
			</mask>
			<path fill="#1FF6EF" mask="url(#j)" d="M-2.1-2.354h88.65v88.65H-2.1z"/>
		</g>
		<g transform="translate(636.732 364.987)">
			<mask id="l" fill="#fff">
				<use xlink:href="#k"/>
			</mask>
			<path fill="#43CAF8" mask="url(#l)" d="M-2.046-2.04h194.54V192.5H-2.046z"/>
		</g>
		<path d="M408.575 1512.25c1.9 0 3.5-.65 4.8-1.95 1.3-1.3 1.9-2.85 1.8-4.65 0-1.5-.55-2.95-1.65-4.35l-39.75-50.1 34.65-34.5c1.1-1.1 1.65-2.65 1.65-4.65 0-1.7-.625-3.125-1.875-4.275-1.25-1.15-2.725-1.725-4.425-1.725-2 0-3.7.8-5.1 2.4l-51.3 52.2v-47.7c0-1.9-.675-3.525-2.025-4.875-1.35-1.35-2.975-2.025-4.875-2.025s-3.5.675-4.8 2.025c-1.3 1.35-1.95 2.975-1.95 4.875v92.55c0 1.9.65 3.5 1.95 4.8 1.3 1.3 2.9 1.95 4.8 1.95s3.525-.65 4.875-1.95c1.35-1.3 2.025-2.9 2.025-4.8v-28.05l17.1-17.25 38.7 49.35c1.3 1.8 3.1 2.7 5.4 2.7Zm142.875 0c1.9 0 3.5-.65 4.8-1.95 1.3-1.3 1.95-2.9 1.95-4.8v-6.9c0-6.8-1.325-13.725-3.975-20.775-2.65-7.05-7.575-11.525-14.775-13.425 6.4-2.2 11.275-5.775 14.625-10.725 3.35-4.95 5.025-10.425 5.025-16.425 0-9.1-3.4-16.45-10.2-22.05-6.8-5.6-17-8.4-30.6-8.4h-34.95c-1.9 0-3.5.675-4.8 2.025-1.3 1.35-1.95 2.975-1.95 4.875v91.8c0 1.9.65 3.5 1.95 4.8 1.3 1.3 2.9 1.95 4.8 1.95s3.525-.65 4.875-1.95c1.35-1.3 2.025-2.9 2.025-4.8v-34.8h31.05c6.9 0 12.05 1.675 15.45 5.025 3.4 3.35 5.55 7.15 6.45 11.4.9 4.25 1.35 8.875 1.35 13.875v4.5c0 2 .625 3.625 1.875 4.875s2.925 1.875 5.025 1.875Zm-34.05-54.45h-27.15v-38.1h26.4c10.5 0 17.925 1.6 22.275 4.8 4.35 3.2 6.525 7.8 6.525 13.8 0 6.2-2.525 11-7.575 14.4-5.05 3.4-11.875 5.1-20.475 5.1Zm150.675 55.2c7.1 0 13.95-1.5 20.55-4.5 6.6-3 12-7.575 16.2-13.725 4.2-6.15 6.3-13.675 6.3-22.575v-59.25c0-1.9-.675-3.525-2.025-4.875-1.35-1.35-2.975-2.025-4.875-2.025s-3.5.675-4.8 2.025c-1.3 1.35-1.95 2.975-1.95 4.875v59.7c0 6-1.375 11.1-4.125 15.3-2.75 4.2-6.375 7.35-10.875 9.45-4.5 2.1-9.3 3.15-14.4 3.15s-9.9-1.05-14.4-3.15c-4.5-2.1-8.125-5.25-10.875-9.45-2.75-4.2-4.125-9.3-4.125-15.3v-59.7c0-1.9-.675-3.525-2.025-4.875-1.35-1.35-2.975-2.025-4.875-2.025s-3.5.675-4.8 2.025c-1.3 1.35-1.95 2.975-1.95 4.875v59.25c0 8.9 2.1 16.425 6.3 22.575 4.2 6.15 9.6 10.725 16.2 13.725s13.45 4.5 20.55 4.5Zm146.775 0c7.6 0 14.3-1.25 20.1-3.75 5.8-2.5 10.3-5.975 13.5-10.425 3.2-4.45 4.8-9.475 4.8-15.075 0-6.8-1.725-12.2-5.175-16.2-3.45-4-7.6-6.95-12.45-8.85-4.85-1.9-11.225-3.8-19.125-5.7-6.1-1.4-10.925-2.725-14.475-3.975-3.55-1.25-6.5-3-8.85-5.25-2.35-2.25-3.525-5.175-3.525-8.775 0-5.4 2.475-9.6 7.425-12.6 4.95-3 11.375-4.5 19.275-4.5 8.3 0 16.35 1.35 24.15 4.05 1 .4 1.8.6 2.4.6 1.8 0 3.25-.65 4.35-1.95 1.1-1.3 1.65-2.75 1.65-4.35 0-3-1.4-5-4.2-6-8.9-3.3-18.85-4.95-29.85-4.95-8.2 0-15.225 1.375-21.075 4.125s-10.275 6.45-13.275 11.1c-3 4.65-4.5 9.825-4.5 15.525 0 6.5 1.8 11.7 5.4 15.6 3.6 3.9 7.9 6.825 12.9 8.775 5 1.95 11.55 3.975 19.65 6.075 6.1 1.6 10.8 2.975 14.1 4.125 3.3 1.15 6.075 2.725 8.325 4.725 2.25 2 3.375 4.5 3.375 7.5 0 11.5-8.75 17.25-26.25 17.25-10.5 0-20.35-2.05-29.55-6.15-.9-.4-1.85-.6-2.85-.6-1.8 0-3.275.625-4.425 1.875s-1.725 2.725-1.725 4.425c0 1.3.4 2.525 1.2 3.675.8 1.15 1.8 1.975 3 2.475 11.1 4.8 23 7.2 35.7 7.2Zm127.275-.75c1.9 0 3.525-.65 4.875-1.95 1.35-1.3 2.025-2.9 2.025-4.8v-85.95h30.45c1.8 0 3.325-.6 4.575-1.8 1.25-1.2 1.875-2.7 1.875-4.5 0-1.8-.625-3.325-1.875-4.575s-2.775-1.875-4.575-1.875h-74.7c-1.8 0-3.3.625-4.5 1.875-1.2 1.25-1.8 2.775-1.8 4.575 0 1.8.6 3.3 1.8 4.5 1.2 1.2 2.7 1.8 4.5 1.8h30.6v85.95c0 1.9.65 3.5 1.95 4.8 1.3 1.3 2.9 1.95 4.8 1.95Zm165.375-.75c1.9 0 3.525-.65 4.875-1.95 1.35-1.3 2.025-2.9 2.025-4.8s-.675-3.525-2.025-4.875c-1.35-1.35-2.975-2.025-4.875-2.025h-49.05v-84.9c0-1.9-.675-3.525-2.025-4.875-1.35-1.35-2.975-2.025-4.875-2.025s-3.5.675-4.8 2.025c-1.3 1.35-1.95 2.975-1.95 4.875v89.1c0 2.6.925 4.825 2.775 6.675 1.85 1.85 4.075 2.775 6.675 2.775h53.25Zm132.975 0c1.8 0 3.325-.6 4.575-1.8 1.25-1.2 1.875-2.7 1.875-4.5 0-1.8-.625-3.325-1.875-4.575s-2.775-1.875-4.575-1.875h-53.25v-33.3h47.85c1.8 0 3.325-.6 4.575-1.8 1.25-1.2 1.875-2.7 1.875-4.5 0-1.8-.625-3.325-1.875-4.575s-2.775-1.875-4.575-1.875h-47.85v-33.15h53.25c1.8 0 3.325-.6 4.575-1.8 1.25-1.2 1.875-2.7 1.875-4.5 0-1.8-.625-3.325-1.875-4.575s-2.775-1.875-4.575-1.875h-60.15c-1.9 0-3.5.675-4.8 2.025-1.3 1.35-1.95 2.975-1.95 4.875v91.05c0 1.9.65 3.5 1.95 4.8 1.3 1.3 2.9 1.95 4.8 1.95h60.15Zm102.225.75c1.9 0 3.525-.65 4.875-1.95 1.35-1.3 2.025-2.9 2.025-4.8v-85.95h30.45c1.8 0 3.325-.6 4.575-1.8 1.25-1.2 1.875-2.7 1.875-4.5 0-1.8-.625-3.325-1.875-4.575s-2.775-1.875-4.575-1.875h-74.7c-1.8 0-3.3.625-4.5 1.875-1.2 1.25-1.8 2.775-1.8 4.575 0 1.8.6 3.3 1.8 4.5 1.2 1.2 2.7 1.8 4.5 1.8h30.6v85.95c0 1.9.65 3.5 1.95 4.8 1.3 1.3 2.9 1.95 4.8 1.95Z" fill="#1A59C8" fill-rule="nonzero"/>
	</g>
</svg>
