<svg width="375" height="336" xmlns="http://www.w3.org/2000/svg">
	<g fill="none" fill-rule="evenodd">
		<path fill="#00DE7D" d="M222.984 26h44v185h-44z"/>
		<path fill="#222" d="M100.417 26.211h55.854l66.713 75.944L234.69 113.8l-11.706 11.592L153.927 211h-58.21l84.302-99.701z"/>
		<path d="M83.489 310v-23.1l6.633-8.025L109.002 310h10.158l-23.657-37.805 21.94-29.734H107.24l-18.184 25.234-5.566 7.376v-32.61H75V310h8.489Zm70.009.928c6.123 0 10.962-1.647 14.519-4.94 3.556-3.294 5.334-7.677 5.334-13.151 0-5.195-1.43-9.401-4.29-12.617-2.861-3.216-7.616-5.922-14.265-8.118-4.267-1.515-7.421-3.232-9.463-5.149-2.04-1.917-3.061-4.298-3.061-7.143 0-3.464.943-6.154 2.83-8.072 1.886-1.917 4.545-2.876 7.978-2.876 3.773 0 6.664 1.145 8.674 3.433s3.016 5.52 3.016 9.695h8.535c0-3.773-.835-7.237-2.505-10.39-1.67-3.155-4.051-5.621-7.144-7.4-3.092-1.778-6.618-2.667-10.576-2.667-5.783 0-10.46 1.732-14.032 5.196-3.572 3.463-5.358 7.87-5.358 13.22 0 3.092.627 5.837 1.88 8.233 1.252 2.397 3.138 4.53 5.658 6.402 2.52 1.87 6.162 3.657 10.924 5.357 4.763 1.701 8.056 3.448 9.88 5.242 1.825 1.794 2.738 4.376 2.738 7.747 0 3.309-.944 5.922-2.83 7.839-1.886 1.917-4.7 2.876-8.442 2.876-4.02 0-7.198-1.16-9.533-3.479-2.335-2.32-3.502-5.566-3.502-9.741h-8.535c0 4.02.95 7.584 2.853 10.692 1.901 3.108 4.514 5.52 7.839 7.236 3.324 1.717 6.95 2.575 10.878 2.575Zm60.777 0c7.237 0 12.819-2.49 16.746-7.469 3.927-4.978 5.891-12.076 5.891-21.291v-12.293c-.093-9.091-2.126-16.088-6.1-20.99-3.974-4.901-9.517-7.352-16.63-7.352-7.143 0-12.71 2.56-16.699 7.677-3.989 5.118-5.983 12.192-5.983 21.222v12.71c.154 8.844 2.25 15.687 6.285 20.526 4.036 4.84 9.532 7.26 16.49 7.26Zm0-7.561c-4.762 0-8.341-1.81-10.738-5.428-2.397-3.618-3.595-8.875-3.595-15.771v-12.107c.03-6.865 1.245-12.06 3.641-15.586 2.397-3.525 5.93-5.288 10.6-5.288 4.824 0 8.403 1.74 10.738 5.219 2.335 3.479 3.502 8.79 3.502 15.933v12.664c-.092 6.896-1.283 12.014-3.571 15.354-2.289 3.34-5.814 5.01-10.577 5.01Zm64.86 7.56c6.742 0 11.96-1.917 15.656-5.751 3.695-3.835 5.729-9.37 6.1-16.607h-8.582c-.464 5.69-1.67 9.633-3.618 11.829-1.948 2.196-5.134 3.293-9.556 3.293-4.422 0-7.785-1.824-10.089-5.473-2.304-3.65-3.456-8.891-3.456-15.725v-12.386c0-6.958 1.237-12.238 3.711-15.84 2.474-3.603 6.015-5.405 10.623-5.405 3.99 0 6.958 1.175 8.906 3.526 1.948 2.35 3.108 6.277 3.48 11.782h8.58c-.309-7.267-2.25-12.857-5.82-16.769-3.573-3.912-8.621-5.868-15.146-5.868-7.082 0-12.671 2.551-16.769 7.654-4.097 5.103-6.146 12.045-6.146 20.828v12.246c0 8.813 1.994 15.794 5.984 20.943 3.989 5.15 9.37 7.724 16.142 7.724Z" fill="#222" fill-rule="nonzero"/>
	</g>
</svg>
