<svg version="1.1" id="레이어_1" xmlns="http://www.w3.org/2000/svg" xmlns:xlink="http://www.w3.org/1999/xlink" x="0" y="0" viewBox="0 0 127 42.8" style="enable-background:new 0 0 127 42.8" xml:space="preserve">
	<style>
		.st0{fill:#e60012}.st5{opacity:.5}.st8{opacity:.25}
	</style>
	<path class="st0" d="M61.7 28.6c.1.2.2.3.4.3.1 0 .2-.2.2-.4V16.8c0-1.1.1-1.9.4-2.6.3-.7.9-1 1.6-1h2.4c-.1.2-.2.4-.3.5-.1.2-.2.4-.2.7-.1.3-.2.6-.2 1s-.1.8-.1 1.4v16.6c0 .6-.2 1.1-.5 1.5-.3.4-.9.6-1.6.6h-2.4L53 19.9c-.1-.2-.2-.3-.4-.2-.1 0-.1.2-.1.4v13.7c0 1.1-.5 1.6-1.6 1.6h-2.1V15.1c0-.6.2-1.1.4-1.5.3-.4.7-.5 1.3-.5h3l8.2 15.5z"/>
	<path class="st0" d="M75.1 32.3c.5.1 1 .1 1.7.1.6 0 1.2 0 1.7-.1.3 0 .7 0 1.1-.1.4-.1.8-.1 1.2-.2.4-.1.8-.2 1.1-.3.3-.1.6-.2.8-.3.1-.1.2 0 .2.1v1.8c0 .5-.2.9-.5 1.2-.3.3-.8.6-1.4.8-.3.1-.7.2-1.2.2-.4.1-.9.1-1.4.2-.5 0-1 .1-1.6.1h-1.6c-1.8 0-3.2-.5-4.4-1.6-1.1-1-1.7-2.5-1.8-4.3 0-.8-.1-1.7-.1-2.6 0-1 0-1.9.1-2.6.1-1.6.7-3 1.8-4.1 1.1-1.1 2.9-1.6 5.2-1.6h1.1c.8 0 1.6.1 2.4.3.8.2 1.4.6 2 1 .6.4 1 1 1.3 1.6.3.7.5 1.3.5 2.1v1.3c0 1.4-.4 2.4-1.3 3.1-.9.6-2.2.9-4 .9h-5.6v.5c0 .3 0 .5.1.8.1.3.2.5.4.8.2.2.5.4.8.6.4.1.8.3 1.4.3m4.7-8.2c0-.5-.2-1-.8-1.3-.5-.3-1.2-.5-2-.5h-1c-.7 0-1.2.1-1.7.2-.4.1-.8.3-1 .5s-.5.5-.6.7c-.1.3-.2.5-.2.8v1.3H78c.5 0 1 0 1.3-.1.3-.1.5-.3.5-.7v-.9z"/>
	<path class="st0" d="m95.7 27 5.7 8.4h-4.2l-4.1-5.9c-.1-.2-.2-.2-.3 0l-3 4.7c-.3.4-.5.8-.9.9-.3.2-.7.2-1.1.2H85l5.5-8.3-4.9-6.8c-.2-.3-.3-.6-.2-.8.1-.3.3-.4.8-.4H89l3.9 5.7c.1.1.2.1.3 0l3-4.5c.2-.3.5-.6.8-.9.3-.2.8-.4 1.3-.4h3.3c-.3.2-.6.4-.8.6-.2.2-.4.4-.6.7-.2.2-.4.5-.6.8-.2.3-.4.6-.7 1l-3.2 5z"/>
	<path class="st0" d="M110.5 26.5c-.5-.1-1-.1-1.6-.1-.5 0-1.1 0-1.6-.1v7.4c0 .4-.2.8-.4 1.1-.3.3-.7.4-1.1.4h-2.2V13.7c1-.2 2.2-.4 3.5-.6 1.3-.2 2.7-.3 4-.3.9 0 1.8.1 2.6.3.8.1 1.6.4 2.3.8.7.4 1.3.9 1.7 1.5.5.6.8 1.4 1 2.3.1.5.2 1.1.2 1.8s0 1.3-.1 1.8c-.1.9-.3 1.6-.7 2.2-.3.6-.7 1.1-1.1 1.5-.4.4-.9.7-1.3.9-.4.2-.9.4-1.3.5.9 1.4 1.8 2.9 2.8 4.6 1 1.6 1.9 3.1 2.7 4.4H117c-.4 0-.7-.1-1-.3-.3-.2-.5-.4-.7-.7l-4.8-7.9zm4.7-7.9c-.1-.7-.4-1.2-1-1.6-.6-.4-1.6-.7-2.9-.7-.6 0-1.3 0-2 .1s-1.3.1-1.8.2v6.2c.8.1 1.6.2 2.4.2h2.4c.8 0 1.5-.2 2-.6.5-.4.8-.9 1-1.6.1-.4.1-.7.1-1.2-.2-.4-.2-.7-.2-1"/>
	<defs>
		<path id="SVGID_1_" d="M7.9 7c-1 0-1.8.8-1.8 1.8v26.6h4.2c1 0 1.8-.8 1.8-1.8v-7.1l3.4 4.2 2.9 3.6c.6.8 1.4 1.1 2.1 1.1h5.9l-3.8-4.7-5.5-6.8 8-9.8h-4.4c-2 0-3.3.6-4.5 2L12 21.3V7H7.9z"/>
	</defs>
	<clipPath id="SVGID_2_">
		<use xlink:href="#SVGID_1_" style="overflow:visible"/>
	</clipPath>
	<linearGradient id="SVGID_3_" gradientUnits="userSpaceOnUse" x1="-718.82" y1="334.523" x2="-718.677" y2="334.523" gradientTransform="rotate(-90 -58162.784 -159490.198) scale(302.8523)">
		<stop offset="0" style="stop-color:#444242"/>
		<stop offset="1" style="stop-color:#262a2a"/>
	</linearGradient>
	<path style="clip-path:url(#SVGID_2_);fill:url(#SVGID_3_)" d="M6.1 7h20.4v28.3H6.1z"/>
	<defs>
		<path id="SVGID_4_" d="M7.9 7.5c-.7 0-1.3.6-1.3 1.3v26h3.7c.7 0 1.3-.6 1.3-1.3v-8.4c0-.1.1-.1.1-.1h.1l4.2 5.2 3 3.6c.5.6 1.1.9 1.8.9h4.6l-.4-.3c-.3-.4-1.7-2.2-3.4-4.2-2.2-2.7-4.5-5.7-5.1-6.4.9-1.1 6.6-8.1 7.3-8.9l.3-.4h-3.5c-1.4 0-2.9.7-3.8 1.7l-5 6.2h-.1c-.1 0-.1 0-.1-.1V7.5H7.9z"/>
	</defs>
	<clipPath id="SVGID_5_">
		<use xlink:href="#SVGID_4_" style="overflow:visible"/>
	</clipPath>
	<linearGradient id="SVGID_6_" gradientUnits="userSpaceOnUse" x1="-718.813" y1="336.586" x2="-718.67" y2="336.586" gradientTransform="matrix(0 275.4247 275.4247 0 -92688.11 197980.438)">
		<stop offset="0" style="stop-color:#595757"/>
		<stop offset="1" style="stop-color:#000"/>
	</linearGradient>
	<path style="clip-path:url(#SVGID_5_);fill:url(#SVGID_6_)" d="M6.6 7.5h18.7v27.2H6.6z"/>
	<defs>
		<path id="SVGID_7_" d="M29.8 7c-1 0-1.8.8-1.8 1.8v21c0 3.2 2.2 5.5 5.5 5.5h4.6c1 0 1.8-.8 1.8-1.8v-3.2h-4.3c-.9 0-1.6-.8-1.6-1.6V7h-4.2z"/>
	</defs>
	<clipPath id="SVGID_8_">
		<use xlink:href="#SVGID_7_" style="overflow:visible"/>
	</clipPath>
	<linearGradient id="SVGID_9_" gradientUnits="userSpaceOnUse" x1="-718.825" y1="334.552" x2="-718.681" y2="334.552" gradientTransform="matrix(0 -201.285 -201.285 0 67374.21 -144652.828)">
		<stop offset="0" style="stop-color:#444242"/>
		<stop offset="1" style="stop-color:#262a2a"/>
	</linearGradient>
	<path style="clip-path:url(#SVGID_8_);fill:url(#SVGID_9_)" d="M28 7h11.9v28.3H28z"/>
	<defs>
		<path id="SVGID_10_" d="M29.8 7.5c-.7 0-1.3.6-1.3 1.3v21c0 3 2 4.9 5 4.9h4.6c.7 0 1.3-.6 1.3-1.3v-2.7h-3.8c-1.2 0-2.1-.9-2.1-2.1V7.5h-3.7z"/>
	</defs>
	<clipPath id="SVGID_11_">
		<use xlink:href="#SVGID_10_" style="overflow:visible"/>
	</clipPath>
	<linearGradient id="SVGID_12_" gradientUnits="userSpaceOnUse" x1="-718.802" y1="336.526" x2="-718.658" y2="336.526" gradientTransform="rotate(90 -98353.201 35652.576) scale(186.4187)">
		<stop offset="0" style="stop-color:#595757"/>
		<stop offset="1" style="stop-color:#000"/>
	</linearGradient>
	<path style="clip-path:url(#SVGID_11_);fill:url(#SVGID_12_)" d="M28.5 7.5h10.9v27.2H28.5z"/>
	<g class="st5">
		<defs>
			<path id="SVGID_13_" d="M6.6 16.2h.1v18.6h-.1z"/>
		</defs>
		<clipPath id="SVGID_14_">
			<use xlink:href="#SVGID_13_" style="overflow:visible"/>
		</clipPath>
		<g style="clip-path:url(#SVGID_14_)">
			<defs>
				<path id="SVGID_15_" d="M6.6 16.2h.1v18.6h-.1z"/>
			</defs>
			<clipPath id="SVGID_16_">
				<use xlink:href="#SVGID_15_" style="overflow:visible"/>
			</clipPath>
			<radialGradient id="SVGID_17_" cx="-712.816" cy="336.109" r=".153" gradientTransform="matrix(49.1081 0 0 -49.1081 35011.715 16530.666)" gradientUnits="userSpaceOnUse">
				<stop offset="0" style="stop-color:#fff"/>
				<stop offset="1" style="stop-color:#000"/>
			</radialGradient>
			<path style="clip-path:url(#SVGID_16_);fill:url(#SVGID_17_)" d="M6.6 16.2h.1v18.6h-.1z"/>
		</g>
	</g>
	<g class="st8">
		<defs>
			<path id="SVGID_18_" d="M7.1 25.2h4.5v9.6H7.1z"/>
		</defs>
		<clipPath id="SVGID_19_">
			<use xlink:href="#SVGID_18_" style="overflow:visible"/>
		</clipPath>
		<g style="clip-path:url(#SVGID_19_)">
			<defs>
				<path id="SVGID_20_" d="M7.1 34.8h3.3c.6 0 1.2-.5 1.2-1.3v-8.3h-.1v8.3c0 .7-.6 1.3-1.1 1.3H7.1z"/>
			</defs>
			<clipPath id="SVGID_21_">
				<use xlink:href="#SVGID_20_" style="overflow:visible"/>
			</clipPath>
			<radialGradient id="SVGID_22_" cx="-707.749" cy="338.768" r=".153" gradientTransform="matrix(25.3443 0 0 -25.3443 17948.555 8620.322)" gradientUnits="userSpaceOnUse">
				<stop offset="0" style="stop-color:#fff"/>
				<stop offset="1" style="stop-color:#000"/>
			</radialGradient>
			<path style="clip-path:url(#SVGID_21_);fill:url(#SVGID_22_)" d="M7.1 25.2h4.5v9.6H7.1z"/>
		</g>
	</g>
	<g class="st8">
		<defs>
			<path id="SVGID_23_" d="M28.5 7.5h5V16h-5z"/>
		</defs>
		<clipPath id="SVGID_24_">
			<use xlink:href="#SVGID_23_" style="overflow:visible"/>
		</clipPath>
		<g style="clip-path:url(#SVGID_24_)">
			<defs>
				<path id="SVGID_25_" d="M28.6 16V8.7c0-.5.6-1.1 1.1-1.1h3.7l.1-.1h-3.8c-.6 0-1.2.6-1.2 1.2l.1 7.3z"/>
			</defs>
			<clipPath id="SVGID_26_">
				<use xlink:href="#SVGID_25_" style="overflow:visible"/>
			</clipPath>
			<radialGradient id="SVGID_27_" cx="-714.092" cy="333.77" r=".153" gradientTransform="matrix(37.5931 0 0 -37.5931 26873.656 12555.3)" gradientUnits="userSpaceOnUse">
				<stop offset="0" style="stop-color:#fff"/>
				<stop offset="1" style="stop-color:#000"/>
			</radialGradient>
			<path style="clip-path:url(#SVGID_26_);fill:url(#SVGID_27_)" d="M28.5 7.5h5V16h-5z"/>
		</g>
	</g>
	<g class="st8">
		<defs>
			<path id="SVGID_28_" d="M28.5 16.1h.1V30h-.1z"/>
		</defs>
		<clipPath id="SVGID_29_">
			<use xlink:href="#SVGID_28_" style="overflow:visible"/>
		</clipPath>
		<g style="clip-path:url(#SVGID_29_)">
			<defs>
				<path id="SVGID_30_" d="M28.5 16.1h.1V30h-.1z"/>
			</defs>
			<clipPath id="SVGID_31_">
				<use xlink:href="#SVGID_30_" style="overflow:visible"/>
			</clipPath>
			<radialGradient id="SVGID_32_" cx="-713.934" cy="335.961" r=".153" gradientTransform="matrix(36.6104 0 0 -36.6104 26166.002 12322.304)" gradientUnits="userSpaceOnUse">
				<stop offset="0" style="stop-color:#fff"/>
				<stop offset="1" style="stop-color:#000"/>
			</radialGradient>
			<path style="clip-path:url(#SVGID_31_);fill:url(#SVGID_32_)" d="M28.5 16.1h.1V30h-.1z"/>
		</g>
	</g>
	<g class="st5">
		<defs>
			<path id="SVGID_33_" d="M33.4 28.4h6v2.5h-6z"/>
		</defs>
		<clipPath id="SVGID_34_">
			<use xlink:href="#SVGID_33_" style="overflow:visible"/>
		</clipPath>
		<g style="clip-path:url(#SVGID_34_)">
			<defs>
				<path id="SVGID_35_" d="M33.4 28.4c0 .3 0 .5.1.8.1.5.4.9.7 1.2.4.4.9.6 1.6.6h3.6v-.1h-3.6c-.8 0-1.4-.3-1.8-.7-.2-.3-.4-.6-.5-.9 0-.3 0-.6-.1-.9z"/>
			</defs>
			<clipPath id="SVGID_36_">
				<use xlink:href="#SVGID_35_" style="overflow:visible"/>
			</clipPath>
			<radialGradient id="SVGID_37_" cx="-710.7" cy="338.844" r=".153" gradientTransform="matrix(18.458 0 0 -18.458 13153.29 6285.192)" gradientUnits="userSpaceOnUse">
				<stop offset="0" style="stop-color:#fff"/>
				<stop offset="1" style="stop-color:#000"/>
			</radialGradient>
			<path style="clip-path:url(#SVGID_36_);fill:url(#SVGID_37_)" d="M33.4 28.4h6v2.5h-6z"/>
		</g>
	</g>
	<g class="st8">
		<defs>
			<path id="SVGID_38_" d="M28.5 30H38v4.8h-9.5z"/>
		</defs>
		<clipPath id="SVGID_39_">
			<use xlink:href="#SVGID_38_" style="overflow:visible"/>
		</clipPath>
		<g style="clip-path:url(#SVGID_39_)">
			<defs>
				<path id="SVGID_40_" d="M38 34.7h-4.6c-2.8 0-4.8-1.9-4.8-4.8h-.1c0 2.9 2 4.8 4.9 4.8H38z"/>
			</defs>
			<clipPath id="SVGID_41_">
				<use xlink:href="#SVGID_40_" style="overflow:visible"/>
			</clipPath>
			<radialGradient id="SVGID_42_" cx="-714.202" cy="337.932" r=".152" gradientTransform="matrix(33.9661 0 0 -33.9661 24291.38 11512.775)" gradientUnits="userSpaceOnUse">
				<stop offset="0" style="stop-color:#fff"/>
				<stop offset="1" style="stop-color:#000"/>
			</radialGradient>
			<path style="clip-path:url(#SVGID_41_);fill:url(#SVGID_42_)" d="M28.5 30H38v4.8h-9.5z"/>
		</g>
	</g>
	<defs>
		<path id="SVGID_43_" d="M28.5 17.7h5v3.2h-5z"/>
	</defs>
	<clipPath id="SVGID_44_">
		<use xlink:href="#SVGID_43_" style="overflow:visible"/>
	</clipPath>
	<g style="clip-path:url(#SVGID_44_)">
		<defs>
			<path id="SVGID_45_" d="M28.5 17.7h5v3.2h-5z"/>
		</defs>
		<clipPath id="SVGID_46_">
			<use xlink:href="#SVGID_45_" style="overflow:visible"/>
		</clipPath>
		<linearGradient id="SVGID_47_" gradientUnits="userSpaceOnUse" x1="-719.754" y1="309.888" x2="-719.61" y2="309.888" gradientTransform="matrix(0 -8.1484 -8.1484 0 2556.06 -5844.002)">
			<stop offset="0" style="stop-color:#231b1c;stop-opacity:0"/>
			<stop offset="1" style="stop-color:#241c1d"/>
		</linearGradient>
		<path style="clip-path:url(#SVGID_46_);fill:url(#SVGID_47_)" d="M28.5 17.7h5v3.2h-5z"/>
	</g>
	<g class="st8">
		<defs>
			<path id="SVGID_48_" d="M16.4 14.8h7.5v9.1h-7.5z"/>
		</defs>
		<clipPath id="SVGID_49_">
			<use xlink:href="#SVGID_48_" style="overflow:visible"/>
		</clipPath>
		<g style="clip-path:url(#SVGID_49_)">
			<defs>
				<path id="SVGID_50_" d="M16.4 23.9s6.6-8.2 7.4-9.1h-.1c-.2.2-7.3 9.1-7.3 9.1z"/>
			</defs>
			<clipPath id="SVGID_51_">
				<use xlink:href="#SVGID_50_" style="overflow:visible"/>
			</clipPath>
			<radialGradient id="SVGID_52_" cx="-704.67" cy="336.184" r=".153" gradientTransform="matrix(17.3021 0 0 -17.3021 12210.446 5838.442)" gradientUnits="userSpaceOnUse">
				<stop offset="0" style="stop-color:#fff"/>
				<stop offset="1" style="stop-color:#000"/>
			</radialGradient>
			<path style="clip-path:url(#SVGID_51_);fill:url(#SVGID_52_)" d="M16.4 14.8h7.5v9.1h-7.5z"/>
		</g>
	</g>
	<defs>
		<path id="SVGID_53_" d="M11.8 14.5h12.1v9.3H11.8z"/>
	</defs>
	<clipPath id="SVGID_54_">
		<use xlink:href="#SVGID_53_" style="overflow:visible"/>
	</clipPath>
	<g style="clip-path:url(#SVGID_54_)">
		<defs>
			<path id="SVGID_55_" d="M20.5 14.5c-1.3 0-2.8.7-3.7 1.7l-5 6.2 4.6 1.5s6.7-8.3 7.5-9.2c-.8-.1-3.4-.2-3.4-.2"/>
		</defs>
		<clipPath id="SVGID_56_">
			<use xlink:href="#SVGID_55_" style="overflow:visible"/>
		</clipPath>
		<linearGradient id="SVGID_57_" gradientUnits="userSpaceOnUse" x1="-719.391" y1="321.122" x2="-719.248" y2="321.122" gradientTransform="matrix(0 -19.9146 -19.9146 0 6412.917 -14305.41)">
			<stop offset="0" style="stop-color:#231b1c;stop-opacity:0"/>
			<stop offset=".534" style="stop-color:#241c1d"/>
			<stop offset="1" style="stop-color:#231b1c;stop-opacity:0"/>
		</linearGradient>
		<path style="clip-path:url(#SVGID_56_);fill:url(#SVGID_57_)" d="M11.8 14.5h12.1v9.3H11.8z"/>
	</g>
	<g class="st8">
		<defs>
			<path id="SVGID_58_" d="M19 34h5.7v.8H19z"/>
		</defs>
		<clipPath id="SVGID_59_">
			<use xlink:href="#SVGID_58_" style="overflow:visible"/>
		</clipPath>
		<g style="clip-path:url(#SVGID_59_)">
			<defs>
				<path id="SVGID_60_" d="M19 34c.4.5 1.1.8 1.7.8h4.1l-.1-.1h-4c-.5 0-1.3-.3-1.7-.7"/>
			</defs>
			<clipPath id="SVGID_61_">
				<use xlink:href="#SVGID_60_" style="overflow:visible"/>
			</clipPath>
			<radialGradient id="SVGID_62_" cx="-708.785" cy="339.171" r=".152" gradientTransform="matrix(23.0098 0 0 -23.0098 16329.317 7839.039)" gradientUnits="userSpaceOnUse">
				<stop offset="0" style="stop-color:#fff"/>
				<stop offset="1" style="stop-color:#000"/>
			</radialGradient>
			<path style="clip-path:url(#SVGID_61_);fill:url(#SVGID_62_)" d="M19 34h5.7v.8H19z"/>
		</g>
	</g>
	<g class="st8">
		<defs>
			<path id="SVGID_63_" d="M6.6 7.5h4.5v9.8H6.6z"/>
		</defs>
		<clipPath id="SVGID_64_">
			<use xlink:href="#SVGID_63_" style="overflow:visible"/>
		</clipPath>
		<g style="clip-path:url(#SVGID_64_)">
			<defs>
				<path id="SVGID_65_" d="M11.1 7.5H7.8c-.6 0-1.2.5-1.2 1.3v8.4h.1V8.9c0-.7.6-1.3 1.1-1.3l3.3-.1z"/>
			</defs>
			<clipPath id="SVGID_66_">
				<use xlink:href="#SVGID_65_" style="overflow:visible"/>
			</clipPath>
			<radialGradient id="SVGID_67_" cx="-731.563" cy="338.054" r=".153" gradientTransform="matrix(-25.5214 0 0 25.5214 -18663.494 -8619.76)" gradientUnits="userSpaceOnUse">
				<stop offset="0" style="stop-color:#fff"/>
				<stop offset="1" style="stop-color:#000"/>
			</radialGradient>
			<path style="clip-path:url(#SVGID_66_);fill:url(#SVGID_67_)" d="M6.6 7.5h4.5v9.8H6.6z"/>
		</g>
	</g>
	<defs>
		<path id="SVGID_68_" d="M37 13.7H21.2c-2.1 0-3.5.7-4.5 1.9l-3 3.7c1.1-.8 2.6-1.3 4.2-1.3H37c2.4 0 4.8-.7 4.8-2.7 0-1.9-.2-3-.2-3s-1.2 1.4-4.6 1.4"/>
	</defs>
	<clipPath id="SVGID_69_">
		<use xlink:href="#SVGID_68_" style="overflow:visible"/>
	</clipPath>
	<linearGradient id="SVGID_70_" gradientUnits="userSpaceOnUse" x1="-719.925" y1="335.909" x2="-719.781" y2="335.909" gradientTransform="scale(-201.5092 201.5092) rotate(14.668 944.635 2963.945)">
		<stop offset="0" style="stop-color:#d10e1a"/>
		<stop offset=".477" style="stop-color:#a91118"/>
		<stop offset=".591" style="stop-color:#ac1119"/>
		<stop offset=".69" style="stop-color:#b61119"/>
		<stop offset=".782" style="stop-color:#c7101a"/>
		<stop offset=".826" style="stop-color:#d10e1a"/>
		<stop offset=".927" style="stop-color:#a20f16"/>
		<stop offset=".944" style="stop-color:#9f1016"/>
		<stop offset=".957" style="stop-color:#981416"/>
		<stop offset=".968" style="stop-color:#8b1917"/>
		<stop offset=".978" style="stop-color:#791c17"/>
		<stop offset=".987" style="stop-color:#611b15"/>
		<stop offset=".996" style="stop-color:#451411"/>
		<stop offset="1" style="stop-color:#360d0d"/>
	</linearGradient>
	<path style="clip-path:url(#SVGID_69_);fill:url(#SVGID_70_)" d="m43.4 19-28 7.3-3.5-13.4 28-7.3z"/>
	<path d="M40.4 12.9s-1.1 1.2-4.4 1.2H20.7c-2.4 0-3.6 1-4.4 2l-3.5 4.3s1.7-1.6 4.1-1.6H36c2.1 0 3.5-.4 4.3-1.2.5-.6.5-1.1.5-1.2v-4l-.4.5z" style="fill:none"/>
	<g style="opacity:.7">
		<defs>
			<path id="SVGID_71_" d="M13.8 15.6h28v3.7h-28z"/>
		</defs>
		<clipPath id="SVGID_72_">
			<use xlink:href="#SVGID_71_" style="overflow:visible"/>
		</clipPath>
		<g style="clip-path:url(#SVGID_72_)">
			<defs>
				<path id="SVGID_73_" d="M41.8 15.6c0 .4-.5 2.1-4.7 2.1H18.2c-1.7 0-3.1.5-4.4 1.6 1-.8 2.3-1.6 4.4-1.6h18.9c4.7.1 4.7-2.1 4.7-2.1z"/>
			</defs>
			<clipPath id="SVGID_74_">
				<use xlink:href="#SVGID_73_" style="overflow:visible"/>
			</clipPath>
			<radialGradient id="SVGID_75_" cx="-717.668" cy="335.5" r=".153" gradientTransform="matrix(175.4654 0 0 -175.4653 125940.703 58886.934)" gradientUnits="userSpaceOnUse">
				<stop offset="0" style="stop-color:#050000"/>
				<stop offset=".236" style="stop-color:#fff"/>
				<stop offset=".758" style="stop-color:#fff"/>
				<stop offset=".785" style="stop-color:#fafafa"/>
				<stop offset=".817" style="stop-color:#e7e5e5"/>
				<stop offset=".851" style="stop-color:#c8c5c3"/>
				<stop offset=".887" style="stop-color:#9f9a98"/>
				<stop offset=".924" style="stop-color:#6f6a67"/>
				<stop offset=".962" style="stop-color:#3c3836"/>
				<stop offset="1" style="stop-color:#050000"/>
			</radialGradient>
			<path style="clip-path:url(#SVGID_74_);fill:url(#SVGID_75_)" d="M13.8 15.6h28v3.7h-28z"/>
		</g>
	</g>
</svg>
