<svg xmlns="http://www.w3.org/2000/svg" viewBox="59.75 33.75 272.74 62.74">
	<g fill-rule="evenodd">
		<path fill="#fbfbfb" d="M0 63.083v63.084h400V0H0v63.083m93.01-23.831c2.514.377 3.467.907 4.144 2.305 1.305 2.697-.947 5.94-3.862 5.561-.39-.051-1.346-.179-2.125-.285-2.874-.391-5.998.164-8.917 1.584-12.186 5.928-12.354 23.279-.285 29.412 14.255 7.244 29.309-8.096 21.984-22.401-2.014-3.933 1.105-7.697 4.838-5.837 3.164 1.577 5.589 10.504 4.622 17.015-3.215 21.654-31.039 28.347-43.783 10.533C57.357 59.99 72.096 36.11 93.01 39.252m106.22 7.549c.067.109-1.444 9.009-1.83 10.772-.104.477-.082.467.86-.372 3.133-2.793 8.092-3.549 11.604-1.769 7.934 4.021 5.017 19.759-4.37 23.581-4.202 1.712-9.091.79-10.907-2.055-.442-.693-.522-.585-.763 1.042l-.222 1.5h-3.801c-3.773 0-3.801-.003-3.801-.357 0-.196.22-1.565.489-3.041.269-1.477 1.137-6.36 1.929-10.852 2.838-16.089 3.228-18.249 3.331-18.415.125-.203 7.356-.235 7.481-.034m57.302.449c-.056.546-.805 4.859-1.202 6.917-.079.412-.305 1.687-.501 2.833a648.031 648.031 0 0 1-.839 4.741c-.264 1.461-.456 2.682-.425 2.713.049.049 2.39-2.451 7.331-7.829l1.645-1.792h9.502l-6.188 6.107c-3.404 3.359-6.188 6.172-6.188 6.252 0 .08 1.8 2.843 4 6.141s4 6.035 4 6.082c0 .047-2.124.085-4.719.085h-4.718l-.323-.627c-.845-1.638-5.167-9.365-5.24-9.369-.046-.002-.214.765-.373 1.704-.575 3.397-1.3 7.55-1.382 7.917l-.085.375h-7.696l.106-.425c.059-.234.217-1.059.352-1.833.134-.775.361-2.065.504-2.867l.407-2.292.407-2.291.517-2.917c.262-1.488.653-3.687 1.235-6.958.18-1.009.446-2.509.591-3.334l.517-2.916c.405-2.275.532-2.994.809-4.584.144-.825.304-1.707.357-1.961l.095-.462 3.778.045 3.777.045-.051.5m-118.291 1.236c.086.138-.207 1.93-1.721 10.514-.266 1.512-.469 2.767-.45 2.788.018.021 2.054-2.116 4.523-4.748a2458.22 2458.22 0 0 1 5.758-6.121 78.112 78.112 0 0 0 1.809-1.961l.541-.625h4.413c2.658 0 4.392.062 4.358.156-.065.183-1.754 1.973-5.12 5.428-2.95 3.028-7.658 7.893-8.679 8.968l-.744.783.311.541c.357.622 3.664 6.05 4.594 7.541 1.365 2.189 4.666 7.626 4.666 7.686 0 .333-9.275.029-9.488-.311-.13-.206-1.876-3.187-3.881-6.625-2.005-3.437-3.7-6.269-3.766-6.293-.067-.023-.294.952-.505 2.167-.211 1.215-.604 3.447-.873 4.959-.269 1.513-.574 3.238-.677 3.834a33.055 33.055 0 0 1-.339 1.708l-.151.625h-7.604l.395-2.208c.217-1.215.69-3.896 1.051-5.959.362-2.062.957-5.437 1.324-7.5.366-2.062.864-4.875 1.105-6.25s.579-3.287.75-4.25l.574-3.232c.144-.815.301-1.547.35-1.625.119-.193 7.357-.183 7.476.01M99.25 50.667c2.173 1.343 2.078 3.356-.283 6.028-.817.925-1.449 1.766-1.403 1.868 1.941 4.343 1.376 8.215-1.633 11.187-6.867 6.782-18.26-.168-15.353-9.366 1.447-4.581 6.952-7.672 11.119-6.243l.613.21.712-.8c1.501-1.687 3.106-3.191 3.492-3.273.783-.165 2.155.029 2.736.389m135.136 4.079c5.66 1.2 8.644 6.739 7.003 13.004l-.306 1.167L232.5 69l-8.583.083.039.907c.163 3.779 4.569 5.06 7.402 2.151l.787-.808H240.172l-.439.875c-5.338 10.63-21.871 10.145-23.269-.681-1.316-10.201 7.964-18.89 17.922-16.781m54.556.014c3.691.763 6.497 3.438 7.209 6.873.365 1.766.147 5.465-.408 6.909-.105.272-.674.291-8.677.291H278.5l.004 1.042c.013 3.786 4.564 5.217 7.441 2.339l.881-.881h3.938c4.491 0 4.144-.182 3.127 1.639-3.272 5.86-11.766 8.567-17.829 5.683-4.333-2.062-6.01-6.908-4.471-12.924 2.007-7.85 9.505-12.591 17.351-10.971m-121.11.115c-.001.064-.283 1.709-.579 3.375-.146.825-.41 2.325-.586 3.333-.485 2.774-.792 4.519-1.073 6.084-.695 3.868.472 5.666 3.675 5.666 3.83 0 4.942-1.516 6.171-8.416.997-5.597 1.726-9.806 1.726-9.959.001-.068 1.735-.125 3.856-.125h3.855l-.091.542c-.102.608-.799 4.59-1.205 6.875-.146.825-.415 2.362-.597 3.417-.183 1.054-.4 2.291-.484 2.75-.084.458-.301 1.695-.484 2.75a756.415 756.415 0 0 1-.583 3.333c-.138.779-.369 2.092-.512 2.917-.143.825-.301 1.631-.352 1.791-.084.267-.418.292-3.884.292h-3.793l.273-1.575.273-1.575-.6.543c-5.583 5.043-13.995 3.385-15.191-2.994-.208-1.109-.114-4.418.159-5.566.098-.412.411-2.1.695-3.75.285-1.65.585-3.337.668-3.75.082-.412.355-1.931.606-3.375l.456-2.625h3.801c2.091 0 3.801.019 3.8.042m140.364 1.458c.156.779.741 3.779 1.301 6.667.561 2.887 1.104 5.674 1.208 6.192l.188.941.323-.608c.178-.335 1.487-2.746 2.911-5.358l3.132-5.75c.775-1.423 1.628-2.958 1.833-3.298.16-.267.521-.288 4.263-.247l4.088.045-2.354 3.916A22683.247 22683.247 0 0 1 306.333 90l-.764 1.25-4.035.045c-2.451.027-4.034-.017-4.034-.113 0-.179.6-1.162 4.08-6.682 1.358-2.154 2.729-4.356 3.046-4.893l.577-.975-.283-1.191a4785.308 4785.308 0 0 0-4.438-18.166c-.54-2.187-.982-4.082-.982-4.212 0-.198.67-.228 4.206-.191l4.207.045.283 1.416M88.75 60.613c-2.701.713-2.402 4.797.378 5.17 1.962.263 3.538-2.011 2.622-3.783-.514-.995-1.958-1.663-3-1.387m194.935.06c-1.928.397-4.352 2.716-4.352 4.165 0 .101 1.753.162 4.664.162h4.663l.105-.418c.601-2.394-2.151-4.512-5.08-3.909m-55.801.407c-1.336.607-3.217 2.846-3.217 3.829 0 .053 2.118.076 4.708.052l4.708-.044-.027-1.023c-.074-2.743-3.197-4.167-6.172-2.814m-27.647.39c-4.627 1.6-6.32 8.961-2.57 11.171 2.531 1.492 6.657-.23 8.099-3.38 2.338-5.106-.742-9.446-5.529-7.791"/>
		<path fill="#5aa66e" d="M109.773 51.949c-.036.036-.281.104-.544.15a43.29 43.29 0 0 0-1.562.336c-.596.138-1.29.258-1.542.267-.252.008-.458.079-.458.157 0 .077-.244.141-.542.142-1.911.003-2.045.306-1.059 2.387 4.449 9.396.568 19.619-8.823 23.239-11.33 4.368-23.542-5.026-22.294-17.146.098-.952.168-1.742.156-1.756-.025-.029-2.594.476-3.855.757-.458.102-1.508.322-2.333.489l-1.5.303.014 2.571c.082 14.973 14.562 26.327 29.236 22.924 13.967-3.239 22.1-17.534 17.677-31.07-1.029-3.149-1.901-4.42-2.571-3.75M87.5 54.162c-7.168 1.522-9.742 10.355-4.519 15.506 5.914 5.83 15.612 1.732 15.584-6.585-.013-3.988-2.98-8.192-6.133-8.69-.192-.03-.686-.128-1.099-.217-.866-.187-2.982-.194-3.833-.014m195.833.569c-7.095 1.418-11.663 6.753-12.109 14.144l-.108 1.792H278.333v-1.834h8.578c8.001 0 8.587-.019 8.725-.291.675-1.333.823-6.064.242-7.743-1.603-4.636-6.896-7.197-12.545-6.068M90.841 60.876c1.286.866 1.652 2.697.769 3.853-2.12 2.781-6.265-.038-4.444-3.022.734-1.204 2.522-1.609 3.675-.831m195.516-.183c1.514.454 2.547 1.96 2.445 3.567l-.052.823-4.581.045c-5.39.052-5.089.107-4.709-.86 1.11-2.825 4.146-4.399 6.897-3.575"/>
		<path fill="#81c394" d="M85.75 39.246c-8.964 1.429-16.488 7.786-19.317 16.32-.55 1.658-1.132 4.488-1.066 5.18l.05.527 1.5-.303c.825-.166 1.875-.386 2.333-.488 2.614-.583 3.837-.773 3.898-.606.035.098.242-.453.459-1.224 2.134-7.584 9.963-12.853 17.56-11.819.779.106 1.735.234 2.125.285 4.269.555 5.905-5.724 1.925-7.392-1.569-.658-6.717-.919-9.467-.48m107.875 7.545a80.83 80.83 0 0 0 3.75 0c1.031-.029.188-.053-1.875-.053-2.062 0-2.906.024-1.875.053m57.259 0a84.48 84.48 0 0 0 3.834 0c1.026-.029.14-.053-1.968-.053s-2.948.024-1.866.053m-118.259 1.667a80.83 80.83 0 0 0 3.75 0c1.031-.029.188-.053-1.875-.053-2.062 0-2.906.024-1.875.053m18.26 0c1.266.028 3.291.028 4.5 0 1.209-.029.173-.052-2.302-.052s-3.464.024-2.198.052m-45.459 1.05c-1.407.702-2.27 2.08-2.238 3.575.009.459.051.705.093.547.083-.316.997-.628 1.844-.629.298-.001.542-.065.542-.142 0-.078.206-.149.458-.157.252-.009.946-.129 1.542-.267 1.384-.321 1.965-.441 2.569-.53.673-.099.672-.093.043-1.006-1.083-1.573-3.246-2.193-4.853-1.391m-16.465 4.446c.3.037.75.036 1-.002.251-.038.006-.068-.544-.067-.55.001-.755.032-.456.069m14.472.379c.103.385.567 1.19.567.984 0-.05-.153-.385-.339-.746-.195-.376-.292-.477-.228-.238m167.891 1.125-.574.625.625-.574c.344-.316.625-.597.625-.625 0-.127-.141-.007-.676.574m-188.5 1.167-.574.625.625-.574c.344-.316.625-.598.625-.625 0-.128-.141-.008-.676.574m-9.785 4.042c0 .32.034.452.076.291.042-.16.042-.423 0-.583-.042-.16-.076-.029-.076.292m156.836-.052c.16.042.423.042.583 0 .161-.042.029-.076-.291-.076-.321 0-.452.034-.292.076m-142.172.51c-.399.39-.405.409-.044.127.711-.554.745-.585.627-.585-.063 0-.325.206-.583.458m2.88-.351c.849.753 1.162.972.834.586-.181-.215-.481-.468-.665-.563-.184-.094-.26-.105-.169-.023m22.982 2.393c0 1.237.027 1.743.059 1.125a26.38 26.38 0 0 0 0-2.25c-.032-.619-.059-.113-.059 1.125m-48.337 0c0 .962.028 1.356.062.875a15.48 15.48 0 0 0 0-1.75c-.034-.482-.062-.088-.062.875m7.665 0c0 .87.029 1.227.063.791.034-.435.034-1.148 0-1.583-.034-.435-.063-.079-.063.792m32.996 0c0 .687.03.968.066.625a7.247 7.247 0 0 0 0-1.25c-.036-.344-.066-.063-.066.625m-19.184 0c0 .32.035.452.077.291.041-.16.041-.423 0-.583-.042-.16-.077-.029-.077.292m201.962 1.644c0 .151-1.145.188-4.735.152-2.603-.025-4.699.01-4.656.079.126.204 9.354.153 9.481-.053.06-.098.065-.223.01-.278-.055-.055-.1-.01-.1.1M65.375 66.083c.002.367.036.497.076.29.04-.207.039-.507-.003-.667-.042-.159-.074.011-.073.377m130.167 2.5c.002.367.036.497.076.29.04-.207.038-.507-.003-.667-.042-.159-.075.011-.073.377m37.048.209c-4.671.024-8.549.1-8.617.168-.068.068 3.714.103 8.405.079 5.296-.028 8.59-.107 8.692-.209.09-.09.13-.145.088-.123-.041.022-3.897.06-8.568.085m38.506 1.708c.116 3.85 1.829 6.662 4.966 8.155 6.063 2.884 14.557.177 17.829-5.683 1.017-1.821 1.364-1.639-3.127-1.639h-3.938l-.881.881c-2.852 2.852-7.117 1.584-7.451-2.214-.109-1.233-.111-1.237-.136-.292l-.025.959h-7.15l-.07-.959c-.038-.527-.046-.171-.017.792m-188.27-.792c.691.736.841.869.841.743 0-.026-.357-.383-.792-.791l-.792-.743.743.791m5.97 2.748a8.34 8.34 0 0 0 1.333-.002c.342-.035.021-.064-.712-.064-.734.001-1.013.03-.621.066m17.699 7.836-1.078 1.125 1.125-1.079c.618-.593 1.125-1.099 1.125-1.125 0-.123-.17.034-1.172 1.079m-34.162.125c.498.504.943.916.989.916.046 0-.324-.412-.822-.916-.498-.505-.943-.917-.989-.917-.045 0 .324.412.822.917m16.794 7.034c.207.04.507.039.667-.003.159-.042-.011-.074-.377-.073-.367.002-.497.036-.29.076m210.331 3.84c1.123.029 2.961.029 4.084 0 1.123-.029.204-.052-2.042-.052s-3.165.023-2.042.052"/>
		<path fill="#848484" d="m152.824 53.292-.574.625.625-.575c.582-.534.702-.675.574-.675-.027 0-.309.281-.625.625m-9 .333-.574.625.625-.574c.582-.535.702-.676.574-.676-.027 0-.309.281-.625.625m-2.5 2.667-.574.625.625-.575c.582-.534.702-.675.574-.675-.027 0-.309.281-.625.625M211.75 57c.358.367.688.667.734.667.046 0-.209-.3-.567-.667-.358-.367-.689-.667-.735-.667-.045 0 .21.3.568.667m27.333.333c.358.367.689.667.735.667.045 0-.21-.3-.568-.667-.358-.366-.688-.666-.734-.666-.046 0 .209.3.567.666m-41.161.161c-.26.272-.537.455-.614.407-.078-.048-.141-.008-.141.089 0 .314.255.189.833-.407.311-.321.527-.583.481-.583-.047 0-.298.222-.559.494m62.151.048-.49.541.542-.489c.505-.456.618-.594.49-.594-.029 0-.273.244-.542.542m-112.161.833-1.162 1.208 1.208-1.162c.665-.639 1.209-1.183 1.209-1.208 0-.122-.175.04-1.255 1.162m-9.254.75-.575.625.625-.574c.582-.535.702-.676.575-.676-.028 0-.309.281-.625.625m119.415.583-.49.542.542-.49c.298-.269.542-.512.542-.541 0-.129-.138-.016-.594.489m-43.69 4.459c0 .504.032.71.07.458a3.702 3.702 0 0 0 0-.917c-.038-.252-.07-.045-.07.459m27.334 0c0 .504.031.71.069.458a3.702 3.702 0 0 0 0-.917c-.038-.252-.069-.045-.069.459M216.383 70c0 .504.032.71.07.458a3.694 3.694 0 0 0 0-.916c-.038-.252-.07-.046-.07.458m20.775 5.625-.575.625.625-.574c.344-.316.625-.598.625-.625 0-.128-.141-.008-.675.574m-64.252 1.083-.489.542.541-.49c.505-.456.619-.593.49-.593-.029 0-.273.243-.542.541m-7.945 3.079c.3.038.75.037 1-.001.251-.038.006-.069-.544-.068-.55.001-.755.032-.456.069"/>
		<path fill="#050505" d="M191.525 48.125c-.114.71-.279 1.667-.367 2.125-.089.458-.31 1.696-.493 2.75a466.568 466.568 0 0 1-.499 2.833c-.092.504-.386 2.154-.653 3.667-.267 1.512-.792 4.475-1.167 6.583C186.822 74.651 186 79.319 186 79.407c0 .051 1.678.093 3.728.093h3.729l.177-.958c.098-.527.227-1.277.287-1.667.135-.884.21-.876.829.089 2.072 3.227 8.02 3.797 12.343 1.183 7.105-4.296 9.68-15.907 4.682-21.111-3.319-3.456-9.571-3.343-13.445.244-1.111 1.029-1.22 1.051-1.014.211.078-.316.225-1.062.328-1.658.104-.596.488-2.744.855-4.773.367-2.03.668-3.811.668-3.959 0-.238-.413-.268-3.718-.268h-3.717l-.207 1.292M249 47.004c0 .093-.222 1.424-.493 2.958-.272 1.533-.87 4.925-1.33 7.538-.46 2.612-.913 5.163-1.006 5.667-.094.504-.321 1.779-.504 2.833a520.968 520.968 0 0 1-.501 2.833 904.2 904.2 0 0 0-.666 3.75c-.574 3.263-.798 4.512-1.013 5.634-.085.439-.154.908-.154 1.041 0 .204.581.242 3.718.242h3.717l.892-5.125c.49-2.819.909-5.148.93-5.175.021-.028.922 1.547 2.002 3.5l2.24 4.05.903 1.625.627 1.125h9.306l-4.084-6.124-4.084-6.125 6.208-6.209 6.207-6.209-4.666.014-4.666.013-2.377 2.612a600.524 600.524 0 0 1-3.002 3.278c-.344.367-1.292 1.398-2.107 2.292-.816.893-1.532 1.625-1.591 1.625-.101 0 .423-3.111 2.145-12.75.361-2.017.706-3.986.767-4.375l.111-.709h-3.764c-2.452 0-3.765.06-3.765.171m-118.306 2.121c-.084.344-.316 1.6-.517 2.792a211.09 211.09 0 0 1-.522 3c-.087.458-.307 1.695-.49 2.75a466.568 466.568 0 0 1-.499 2.833c-.16.872-.461 2.576-1.667 9.417-.29 1.65-.784 4.42-1.097 6.156-.313 1.736-.569 3.217-.569 3.291 0 .075 1.68.136 3.733.136h3.733l.199-1.125c.109-.619.346-1.95.527-2.958L134 72.75l.49-2.75c.189-1.054.422-2.402.519-2.995.097-.593.204-1.107.238-1.141.034-.034.516.713 1.07 1.662l3.979 6.807 2.972 5.084 4.606.044 4.605.044-2.015-3.294L146.667 70c-.98-1.604-2.256-3.69-2.836-4.635l-1.055-1.719 1.825-1.865c1.004-1.025 2.951-3.027 4.328-4.448 1.377-1.42 3.636-3.746 5.019-5.166 1.384-1.421 2.719-2.827 2.966-3.125l.449-.542h-8.665l-1.057 1.148c-5.09 5.528-11.567 12.291-11.606 12.12-.027-.116.142-1.293.375-2.615.627-3.552 1.418-8.069 1.654-9.445l.208-1.208h-7.426l-.152.625M96.66 50.43c-.745.223-1.019.469-3.628 3.262l-.568.609 1.133.558c1.079.531 3.003 2.193 3.582 3.094.27.42 2.752-2.182 3.276-3.435.962-2.302-1.37-4.814-3.795-4.088m132.257 4.245c-7.616 1.456-12.291 7.206-12.323 15.158-.012 2.876.232 3.958 1.262 5.602 3.576 5.709 13.321 5.882 19.114.338 1.257-1.203 3.03-3.748 3.03-4.35 0-.049-1.759-.09-3.91-.09h-3.91l-.763.816c-2.833 3.029-7.566 1.609-7.58-2.274l-.004-1.042h17.154l.173-.64c2.341-8.695-3.534-15.182-12.243-13.518m-68.663.533c-.088.386-1.619 9.001-2.344 13.187-.781 4.517-.251 7.319 1.753 9.266 3.088 2.999 9.246 2.668 12.926-.695 1.017-.93 1.024-.919.661.978-.137.718-.25 1.362-.25 1.431 0 .069 1.68.125 3.733.125h3.733l.199-1.125.521-2.958 1.23-7 .584-3.334c.418-2.391.769-4.387 1.187-6.75.187-1.054.398-2.273.468-2.708l.129-.792h-3.731c-2.841 0-3.744.05-3.79.209-.033.114-.224 1.183-.425 2.375a847.278 847.278 0 0 1-1.018 5.833c-.359 2.017-.738 4.154-.843 4.75-.706 4.045-3.73 6.274-7.159 5.277-3.087-.897-3.103-1.72-.334-16.819l.298-1.625h-7.442l-.086.375m139.31-.083c.048.16.199.779.336 1.375s.857 3.558 1.6 6.583a5325.29 5325.29 0 0 1 3.74 15.31c.044.19-.617 1.404-1.725 3.166l-3.68 5.858a775.307 775.307 0 0 1-2.129 3.375l-.244.375 4.06-.006 4.061-.005 4.12-6.87a16352.74 16352.74 0 0 1 10.875-18.096c3.715-6.175 6.755-11.258 6.755-11.295 0-.037-1.818-.048-4.041-.023l-4.041.045-4.126 7.583c-3.993 7.337-4.316 7.865-4.426 7.217-.097-.575-1.727-8.987-2.294-11.838-.315-1.58-.572-2.911-.572-2.959 0-.048-1.88-.087-4.178-.087-3.9 0-4.172.02-4.091.292m-67.981 5.559c1.562.393 2.584 1.736 2.584 3.394V65h-4.75c-5.242 0-4.964.07-4.426-1.115 1.126-2.48 3.97-3.861 6.592-3.201m-27.926.579c2.933.871 3.873 4.547 2.092 8.18-2.701 5.506-10.249 4.917-10.249-.8 0-4.833 4.136-8.575 8.157-7.38"/>
		<path fill="#fbfbfb" d="M0 63.083v63.084h400V0H0v63.083m93.01-23.831c2.514.377 3.467.907 4.144 2.305 1.305 2.697-.947 5.94-3.862 5.561-.39-.051-1.346-.179-2.125-.285-2.874-.391-5.998.164-8.917 1.584-12.186 5.928-12.354 23.279-.285 29.412 14.255 7.244 29.309-8.096 21.984-22.401-2.014-3.933 1.105-7.697 4.838-5.837 3.164 1.577 5.589 10.504 4.622 17.015-3.215 21.654-31.039 28.347-43.783 10.533C57.357 59.99 72.096 36.11 93.01 39.252m106.22 7.549c.067.109-1.444 9.009-1.83 10.772-.104.477-.082.467.86-.372 3.133-2.793 8.092-3.549 11.604-1.769 7.934 4.021 5.017 19.759-4.37 23.581-4.202 1.712-9.091.79-10.907-2.055-.442-.693-.522-.585-.763 1.042l-.222 1.5h-3.801c-3.773 0-3.801-.003-3.801-.357 0-.196.22-1.565.489-3.041.269-1.477 1.137-6.36 1.929-10.852 2.838-16.089 3.228-18.249 3.331-18.415.125-.203 7.356-.235 7.481-.034m57.302.449c-.056.546-.805 4.859-1.202 6.917-.079.412-.305 1.687-.501 2.833a648.031 648.031 0 0 1-.839 4.741c-.264 1.461-.456 2.682-.425 2.713.049.049 2.39-2.451 7.331-7.829l1.645-1.792h9.502l-6.188 6.107c-3.404 3.359-6.188 6.172-6.188 6.252 0 .08 1.8 2.843 4 6.141s4 6.035 4 6.082c0 .047-2.124.085-4.719.085h-4.718l-.323-.627c-.845-1.638-5.167-9.365-5.24-9.369-.046-.002-.214.765-.373 1.704-.575 3.397-1.3 7.55-1.382 7.917l-.085.375h-7.696l.106-.425c.059-.234.217-1.059.352-1.833.134-.775.361-2.065.504-2.867l.407-2.292.407-2.291.517-2.917c.262-1.488.653-3.687 1.235-6.958.18-1.009.446-2.509.591-3.334l.517-2.916c.405-2.275.532-2.994.809-4.584.144-.825.304-1.707.357-1.961l.095-.462 3.778.045 3.777.045-.051.5m-118.291 1.236c.086.138-.207 1.93-1.721 10.514-.266 1.512-.469 2.767-.45 2.788.018.021 2.054-2.116 4.523-4.748a2458.22 2458.22 0 0 1 5.758-6.121 78.112 78.112 0 0 0 1.809-1.961l.541-.625h4.413c2.658 0 4.392.062 4.358.156-.065.183-1.754 1.973-5.12 5.428-2.95 3.028-7.658 7.893-8.679 8.968l-.744.783.311.541c.357.622 3.664 6.05 4.594 7.541 1.365 2.189 4.666 7.626 4.666 7.686 0 .333-9.275.029-9.488-.311-.13-.206-1.876-3.187-3.881-6.625-2.005-3.437-3.7-6.269-3.766-6.293-.067-.023-.294.952-.505 2.167-.211 1.215-.604 3.447-.873 4.959-.269 1.513-.574 3.238-.677 3.834a33.055 33.055 0 0 1-.339 1.708l-.151.625h-7.604l.395-2.208c.217-1.215.69-3.896 1.051-5.959.362-2.062.957-5.437 1.324-7.5.366-2.062.864-4.875 1.105-6.25s.579-3.287.75-4.25l.574-3.232c.144-.815.301-1.547.35-1.625.119-.193 7.357-.183 7.476.01M99.25 50.667c2.173 1.343 2.078 3.356-.283 6.028-.817.925-1.449 1.766-1.403 1.868 1.941 4.343 1.376 8.215-1.633 11.187-6.867 6.782-18.26-.168-15.353-9.366 1.447-4.581 6.952-7.672 11.119-6.243l.613.21.712-.8c1.501-1.687 3.106-3.191 3.492-3.273.783-.165 2.155.029 2.736.389m135.136 4.079c5.66 1.2 8.644 6.739 7.003 13.004l-.306 1.167L232.5 69l-8.583.083.039.907c.163 3.779 4.569 5.06 7.402 2.151l.787-.808H240.172l-.439.875c-5.338 10.63-21.871 10.145-23.269-.681-1.316-10.201 7.964-18.89 17.922-16.781m54.556.014c3.691.763 6.497 3.438 7.209 6.873.365 1.766.147 5.465-.408 6.909-.105.272-.674.291-8.677.291H278.5l.004 1.042c.013 3.786 4.564 5.217 7.441 2.339l.881-.881h3.938c4.491 0 4.144-.182 3.127 1.639-3.272 5.86-11.766 8.567-17.829 5.683-4.333-2.062-6.01-6.908-4.471-12.924 2.007-7.85 9.505-12.591 17.351-10.971m-121.11.115c-.001.064-.283 1.709-.579 3.375-.146.825-.41 2.325-.586 3.333-.485 2.774-.792 4.519-1.073 6.084-.695 3.868.472 5.666 3.675 5.666 3.83 0 4.942-1.516 6.171-8.416.997-5.597 1.726-9.806 1.726-9.959.001-.068 1.735-.125 3.856-.125h3.855l-.091.542c-.102.608-.799 4.59-1.205 6.875-.146.825-.415 2.362-.597 3.417-.183 1.054-.4 2.291-.484 2.75-.084.458-.301 1.695-.484 2.75a756.415 756.415 0 0 1-.583 3.333c-.138.779-.369 2.092-.512 2.917-.143.825-.301 1.631-.352 1.791-.084.267-.418.292-3.884.292h-3.793l.273-1.575.273-1.575-.6.543c-5.583 5.043-13.995 3.385-15.191-2.994-.208-1.109-.114-4.418.159-5.566.098-.412.411-2.1.695-3.75.285-1.65.585-3.337.668-3.75.082-.412.355-1.931.606-3.375l.456-2.625h3.801c2.091 0 3.801.019 3.8.042m140.364 1.458c.156.779.741 3.779 1.301 6.667.561 2.887 1.104 5.674 1.208 6.192l.188.941.323-.608c.178-.335 1.487-2.746 2.911-5.358l3.132-5.75c.775-1.423 1.628-2.958 1.833-3.298.16-.267.521-.288 4.263-.247l4.088.045-2.354 3.916A22683.247 22683.247 0 0 1 306.333 90l-.764 1.25-4.035.045c-2.451.027-4.034-.017-4.034-.113 0-.179.6-1.162 4.08-6.682 1.358-2.154 2.729-4.356 3.046-4.893l.577-.975-.283-1.191a4785.308 4785.308 0 0 0-4.438-18.166c-.54-2.187-.982-4.082-.982-4.212 0-.198.67-.228 4.206-.191l4.207.045.283 1.416M88.75 60.613c-2.701.713-2.402 4.797.378 5.17 1.962.263 3.538-2.011 2.622-3.783-.514-.995-1.958-1.663-3-1.387m194.935.06c-1.928.397-4.352 2.716-4.352 4.165 0 .101 1.753.162 4.664.162h4.663l.105-.418c.601-2.394-2.151-4.512-5.08-3.909m-55.801.407c-1.336.607-3.217 2.846-3.217 3.829 0 .053 2.118.076 4.708.052l4.708-.044-.027-1.023c-.074-2.743-3.197-4.167-6.172-2.814m-27.647.39c-4.627 1.6-6.32 8.961-2.57 11.171 2.531 1.492 6.657-.23 8.099-3.38 2.338-5.106-.742-9.446-5.529-7.791"/>
		<path fill="#5aa66e" d="M109.773 51.949c-.036.036-.281.104-.544.15a43.29 43.29 0 0 0-1.562.336c-.596.138-1.29.258-1.542.267-.252.008-.458.079-.458.157 0 .077-.244.141-.542.142-1.911.003-2.045.306-1.059 2.387 4.449 9.396.568 19.619-8.823 23.239-11.33 4.368-23.542-5.026-22.294-17.146.098-.952.168-1.742.156-1.756-.025-.029-2.594.476-3.855.757-.458.102-1.508.322-2.333.489l-1.5.303.014 2.571c.082 14.973 14.562 26.327 29.236 22.924 13.967-3.239 22.1-17.534 17.677-31.07-1.029-3.149-1.901-4.42-2.571-3.75M87.5 54.162c-7.168 1.522-9.742 10.355-4.519 15.506 5.914 5.83 15.612 1.732 15.584-6.585-.013-3.988-2.98-8.192-6.133-8.69-.192-.03-.686-.128-1.099-.217-.866-.187-2.982-.194-3.833-.014m195.833.569c-7.095 1.418-11.663 6.753-12.109 14.144l-.108 1.792H278.333v-1.834h8.578c8.001 0 8.587-.019 8.725-.291.675-1.333.823-6.064.242-7.743-1.603-4.636-6.896-7.197-12.545-6.068M90.841 60.876c1.286.866 1.652 2.697.769 3.853-2.12 2.781-6.265-.038-4.444-3.022.734-1.204 2.522-1.609 3.675-.831m195.516-.183c1.514.454 2.547 1.96 2.445 3.567l-.052.823-4.581.045c-5.39.052-5.089.107-4.709-.86 1.11-2.825 4.146-4.399 6.897-3.575"/>
		<path fill="#81c394" d="M85.75 39.246c-8.964 1.429-16.488 7.786-19.317 16.32-.55 1.658-1.132 4.488-1.066 5.18l.05.527 1.5-.303c.825-.166 1.875-.386 2.333-.488 2.614-.583 3.837-.773 3.898-.606.035.098.242-.453.459-1.224 2.134-7.584 9.963-12.853 17.56-11.819.779.106 1.735.234 2.125.285 4.269.555 5.905-5.724 1.925-7.392-1.569-.658-6.717-.919-9.467-.48m107.875 7.545a80.83 80.83 0 0 0 3.75 0c1.031-.029.188-.053-1.875-.053-2.062 0-2.906.024-1.875.053m57.259 0a84.48 84.48 0 0 0 3.834 0c1.026-.029.14-.053-1.968-.053s-2.948.024-1.866.053m-118.259 1.667a80.83 80.83 0 0 0 3.75 0c1.031-.029.188-.053-1.875-.053-2.062 0-2.906.024-1.875.053m18.26 0c1.266.028 3.291.028 4.5 0 1.209-.029.173-.052-2.302-.052s-3.464.024-2.198.052m-45.459 1.05c-1.407.702-2.27 2.08-2.238 3.575.009.459.051.705.093.547.083-.316.997-.628 1.844-.629.298-.001.542-.065.542-.142 0-.078.206-.149.458-.157.252-.009.946-.129 1.542-.267 1.384-.321 1.965-.441 2.569-.53.673-.099.672-.093.043-1.006-1.083-1.573-3.246-2.193-4.853-1.391m-16.465 4.446c.3.037.75.036 1-.002.251-.038.006-.068-.544-.067-.55.001-.755.032-.456.069m14.472.379c.103.385.567 1.19.567.984 0-.05-.153-.385-.339-.746-.195-.376-.292-.477-.228-.238m167.891 1.125-.574.625.625-.574c.344-.316.625-.597.625-.625 0-.127-.141-.007-.676.574m-188.5 1.167-.574.625.625-.574c.344-.316.625-.598.625-.625 0-.128-.141-.008-.676.574m-9.785 4.042c0 .32.034.452.076.291.042-.16.042-.423 0-.583-.042-.16-.076-.029-.076.292m156.836-.052c.16.042.423.042.583 0 .161-.042.029-.076-.291-.076-.321 0-.452.034-.292.076m-142.172.51c-.399.39-.405.409-.044.127.711-.554.745-.585.627-.585-.063 0-.325.206-.583.458m2.88-.351c.849.753 1.162.972.834.586-.181-.215-.481-.468-.665-.563-.184-.094-.26-.105-.169-.023m22.982 2.393c0 1.237.027 1.743.059 1.125a26.38 26.38 0 0 0 0-2.25c-.032-.619-.059-.113-.059 1.125m-48.337 0c0 .962.028 1.356.062.875a15.48 15.48 0 0 0 0-1.75c-.034-.482-.062-.088-.062.875m7.665 0c0 .87.029 1.227.063.791.034-.435.034-1.148 0-1.583-.034-.435-.063-.079-.063.792m32.996 0c0 .687.03.968.066.625a7.247 7.247 0 0 0 0-1.25c-.036-.344-.066-.063-.066.625m-19.184 0c0 .32.035.452.077.291.041-.16.041-.423 0-.583-.042-.16-.077-.029-.077.292m201.962 1.644c0 .151-1.145.188-4.735.152-2.603-.025-4.699.01-4.656.079.126.204 9.354.153 9.481-.053.06-.098.065-.223.01-.278-.055-.055-.1-.01-.1.1M65.375 66.083c.002.367.036.497.076.29.04-.207.039-.507-.003-.667-.042-.159-.074.011-.073.377m130.167 2.5c.002.367.036.497.076.29.04-.207.038-.507-.003-.667-.042-.159-.075.011-.073.377m37.048.209c-4.671.024-8.549.1-8.617.168-.068.068 3.714.103 8.405.079 5.296-.028 8.59-.107 8.692-.209.09-.09.13-.145.088-.123-.041.022-3.897.06-8.568.085m38.506 1.708c.116 3.85 1.829 6.662 4.966 8.155 6.063 2.884 14.557.177 17.829-5.683 1.017-1.821 1.364-1.639-3.127-1.639h-3.938l-.881.881c-2.852 2.852-7.117 1.584-7.451-2.214-.109-1.233-.111-1.237-.136-.292l-.025.959h-7.15l-.07-.959c-.038-.527-.046-.171-.017.792m-188.27-.792c.691.736.841.869.841.743 0-.026-.357-.383-.792-.791l-.792-.743.743.791m5.97 2.748a8.34 8.34 0 0 0 1.333-.002c.342-.035.021-.064-.712-.064-.734.001-1.013.03-.621.066m17.699 7.836-1.078 1.125 1.125-1.079c.618-.593 1.125-1.099 1.125-1.125 0-.123-.17.034-1.172 1.079m-34.162.125c.498.504.943.916.989.916.046 0-.324-.412-.822-.916-.498-.505-.943-.917-.989-.917-.045 0 .324.412.822.917m16.794 7.034c.207.04.507.039.667-.003.159-.042-.011-.074-.377-.073-.367.002-.497.036-.29.076m210.331 3.84c1.123.029 2.961.029 4.084 0 1.123-.029.204-.052-2.042-.052s-3.165.023-2.042.052"/>
		<path fill="#848484" d="m152.824 53.292-.574.625.625-.575c.582-.534.702-.675.574-.675-.027 0-.309.281-.625.625m-9 .333-.574.625.625-.574c.582-.535.702-.676.574-.676-.027 0-.309.281-.625.625m-2.5 2.667-.574.625.625-.575c.582-.534.702-.675.574-.675-.027 0-.309.281-.625.625M211.75 57c.358.367.688.667.734.667.046 0-.209-.3-.567-.667-.358-.367-.689-.667-.735-.667-.045 0 .21.3.568.667m27.333.333c.358.367.689.667.735.667.045 0-.21-.3-.568-.667-.358-.366-.688-.666-.734-.666-.046 0 .209.3.567.666m-41.161.161c-.26.272-.537.455-.614.407-.078-.048-.141-.008-.141.089 0 .314.255.189.833-.407.311-.321.527-.583.481-.583-.047 0-.298.222-.559.494m62.151.048-.49.541.542-.489c.505-.456.618-.594.49-.594-.029 0-.273.244-.542.542m-112.161.833-1.162 1.208 1.208-1.162c.665-.639 1.209-1.183 1.209-1.208 0-.122-.175.04-1.255 1.162m-9.254.75-.575.625.625-.574c.582-.535.702-.676.575-.676-.028 0-.309.281-.625.625m119.415.583-.49.542.542-.49c.298-.269.542-.512.542-.541 0-.129-.138-.016-.594.489m-43.69 4.459c0 .504.032.71.07.458a3.702 3.702 0 0 0 0-.917c-.038-.252-.07-.045-.07.459m27.334 0c0 .504.031.71.069.458a3.702 3.702 0 0 0 0-.917c-.038-.252-.069-.045-.069.459M216.383 70c0 .504.032.71.07.458a3.694 3.694 0 0 0 0-.916c-.038-.252-.07-.046-.07.458m20.775 5.625-.575.625.625-.574c.344-.316.625-.598.625-.625 0-.128-.141-.008-.675.574m-64.252 1.083-.489.542.541-.49c.505-.456.619-.593.49-.593-.029 0-.273.243-.542.541m-7.945 3.079c.3.038.75.037 1-.001.251-.038.006-.069-.544-.068-.55.001-.755.032-.456.069"/>
	</g>
</svg>
