<svg xmlns="http://www.w3.org/2000/svg" viewBox="-2.51 -2.76 133.88 143.26">
	<g fill-rule="evenodd">
		<path fill="#487abd" d="M28.963 24.223c-1.826-.869-1.182-.665-1.885-2.482-.96-2.482-4.774-6.663-7.393-4.663-2.706 2.065.71 5.976 4.019 7.502 1.897.876 1.82-.319 2.76 1.768l-2.922 3.43a38.942 38.942 0 0 0-2.675 3.6 46.535 46.535 0 0 0-7.493 17.77 55.442 55.442 0 0 0-.822 11.802 24.666 24.666 0 0 0 3.097-2.563c5.523-4.867 3.988-1.755 4.773-6.372a36.897 36.897 0 0 1 1.046-4.74 40.849 40.849 0 0 1 7.879-14.785 39.75 39.75 0 0 1 12.631-10.054 38.183 38.183 0 0 1 8.252-3.03c2.226-.516 7.817-1.406 10.124-1.062l1.594 24.99-25.5.392c.06 1.167 2.654 4.097 3.48 4.581l-7.646 2.576a45.566 45.566 0 0 0-6.903 3.472c.855-.078 3.804-1.23 4.86-1.531 13.724-3.913 27.544-1.4 40.873.471 11.886 1.668 22.794 4.792 34.884 1.69 1.429-.366 3.685-.88 4.769-1.738a15.951 15.951 0 0 0 3.278-3.294c-4.55 1.577-3.684 1.503-8.727 2.387-7.047 1.235-14.1.192-21.004-.78-1.547-.217-3.16-.559-4.65-.854-2.813-.558-2.322.368-3.72-2.055-5.331-9.245-9.346-16.08-13.28-26.152a41.505 41.505 0 0 1-1.41-4.177c18.587 1.82 34.853 12.613 37.686 32.175 4.95-.12 4.46-.464 7.523-.664.427-2.822-3.42-11.786-5.02-14.647a49.834 49.834 0 0 0-3.907-5.982l-3.315-4.075c-.323-.38-.946-.946-1.214-1.321.397-1.751.975-1.398 2.473-1.88 2.547-.822 7.17-4.958 4.436-7.54-2.358-2.227-6.325 1.777-7.46 4.54-.539 1.31-.444 2.09-1.946 2.508-.58-.421-1.287-1.049-1.985-1.592-10.516-8.186-25.96-9.193-26.456-9.56a2.921 2.921 0 0 1-.49-1.32c-.373-2.039 2.037-2.781 1.38-7.432-.94-6.658-8.17-3.25-5.024 4.798.57 1.46 1.204 1.299.915 2.377-.363 1.357-.299 1.63-1.81 1.71-5.813.306-14.562 3.37-19.305 5.958a76.664 76.664 0 0 0-4.536 2.669 28.024 28.024 0 0 0-4.234 3.18zm17.36 21.217c.124-.901 2.61-4.69 3.344-5.934 1.246-2.114 9.838-16.535 10.165-16.638l-.618 21.545c-1.13.014-2.153-.374-3.442-.449a21.525 21.525 0 0 0-9.45 1.476z"/>
		<path fill="#2a427f" d="M91.194 79.264c-2.154 5.673-4.258 5.56-7.094 7.454-.818.547-1.406 2.269-2.729 1.728-1.6-2.128 2.79-4.083 4.05-4.718 3.763-1.9 4.291-4.529 5.125-8.748.784-3.968 3.826-3.92 4.686-8.965l1.956-.424c.043 3.198-1.564 4.758-3.11 6.8-2.046 2.707-1.667 3.67-2.884 6.873zm-2.198 10.732a14.41 14.41 0 0 0 3.442-2.139 14.586 14.586 0 0 0 3.839-7.32c.946-4.02 2.623-4.604 4.104-7.061 1.85-3.072.922-5.53.939-9.484-.786.15-1.928.476-2.083 1.223-.513 2.47 1.744 4.61-1.434 8.566-1.734 2.158-2.353 2.403-2.99 5.456-1.988 9.51-5.152 6.811-8.797 10.471a1.752 1.752 0 0 0-.557 1.598c.153.91-.007.248.234.558 1.271.978 1.908-1.102 3.303-1.868zm-10.508-5.84a29.75 29.75 0 0 0 6.574-7.458c2.543-3.893 2.82-6.026 4.329-9.611l-5.175.146 1.102 5.785-2.733-1.398a30.526 30.526 0 0 1-4.47 6.234 22.624 22.624 0 0 1-4.736 3.908 24.03 24.03 0 0 1-6.658 3.05c-5.256 1.513-2.155-.267-6.307 2.719-.452.325-.032.077-.505.3-.859-.336-1.927-1.427-2.972-1.987-1.648-.884-4.68-.35-10.538-4.038a24.477 24.477 0 0 1-5.263-4.472l-2.128-2.731c-.625-.947-1.142-2.051-1.779-2.958-.884.205-1.815 1.071-2.763 1.409l2.15-10.924 8.184 7.786-3.56.385c.392 2.452 6.772 9.86 11.64 10.188 3.546.238 4.654-3.027 4.792-6.077.078-1.717.266-9.85-.144-10.805-1.737-.593-11.3-1.815-13.092-2.041-4.032-.51-10.305-.959-14.466-.37-.109 2.298 1.99 8.805 2.862 10.785a31.607 31.607 0 0 0 5.422 8.59c4.811 5.568 11.474 8.268 18.74 9.405 6.876 1.077 16.06-1.471 21.494-5.82zm-.024-13.858c-.238 2.349-6.19 9.239-11.234 10.127-3.57.629-4.783-2.621-5-5.476-.238-3.142-.222-7.132-.157-10.418 1.354.004 10.353 2.13 15.744 2.265-.036.671-2.007 2.029-2.862 3.106zM27.306 68.66c3.09 4.7-.266 8.878 5.726 12.648.899.566 5.452 3.393 3.528 4.864-1.12 1.072-1.225-1.025-3.9-2.703-6.5-4.075-4.27-9.477-7.236-14.16-1.407-2.22-2.654-3.716-2.567-6.955l2.11-.488c-.119 3.723.616 4.173 2.339 6.794zm-5.51 1.917c2.695 3.904 1.74 3.162 2.457 7.253.528 3.01 1.143 4.8 3.582 6.34 2.093 1.322 4.804 2.641 4.186 5.218-2.207.244-1.638-1.193-3.231-2.225-3.699-2.395-5.356-4.143-6.342-9.633-.94-5.228-1.284-3.833-3.267-7.568a8.074 8.074 0 0 1-1.015-4.378c.145-1.734.4-2.225 2.485-2.626.055 2.328-1.763 3.405 1.145 7.619zm-8.241-4.556c-.274 4.882 1.047 5.266 3.124 8.41 3.133 4.745.843 5.486 1.903 10.159 1.285 5.67 7.691 4.142 9.52 8.287.912 2.069 1.677 4.117 3.304 5.712l1.801 1.263c1.478.733 3.253.678 5.082.83 4.179.35 5.138 2.173 7.708 4.38 3.127 2.686 5.011 2.247 9.159 1.493 2.756-.501 1.957-.893 4.697-.043 3.548 1.1 6.326 2.239 9.718.064 1.71-1.096 2.325-1.841 3.38-2.572 3.21-2.222 6.58-.669 10.287-1.75 2.8-.816 4.483-3.899 5.717-6.2 2.367-4.413 8.482-2.004 10.375-7.603.692-2.045.291-3.236.569-5.364.406-3.111 3.104-5.297 4.696-7.38 2.634-3.446.936-5.885 1.152-10.304.047-.96.164-1.761.253-2.693.118-1.25.038-1.424.99-2.062a25.538 25.538 0 0 0 1.755-1.308l1.472-1.295c.032-.039.072-.1.098-.133.027-.035.067-.093.098-.14a18.375 18.375 0 0 0-2.717 1.038c-1.022.394-1.792.586-2.9.918-6.99 2.093-13.11 1.674-20.223.949-22.576-2.302-44.622-12.095-66.277.91-1.276.767-5.89 4.062-6.34 5.09.797-.115.901-.38 1.599-.656z"/>
	</g>
	<g fill="#1d5dab">
		<path d="m7.128 130.092 2.016-1.656c2.088.576 4.536 4.14 6.084 8.856h4.068c1.656 0 2.52-.612 2.52-1.872 0-.576-.288-1.152-.792-1.512-.396-.288-.756-.324-1.728-.324h-1.044c-1.62-3.852-3.816-6.696-5.94-7.776l6.12-5.112c1.512 0 2.34-.648 2.34-1.836a1.83 1.83 0 0 0-.792-1.512c-.36-.288-.756-.36-1.728-.36h-3.6c-.756 0-.972.036-1.332.144-.684.216-1.188.972-1.188 1.764 0 .756.36 1.296.972 1.584l-5.976 4.896v-4.68h1.116c.864 0 1.26-.036 1.584-.252.576-.324.936-.936.936-1.584a1.83 1.83 0 0 0-.792-1.512c-.396-.288-.756-.36-1.728-.36h-5.4c-.9 0-1.26.072-1.584.252-.576.36-.936.972-.936 1.62 0 .576.288 1.152.792 1.512.396.252.792.324 1.728.324h.396v12.888h-.396c-.9 0-1.224.036-1.584.252a1.832 1.832 0 0 0-.936 1.584c0 .612.288 1.152.792 1.512.36.252.9.36 1.728.36h5.4c1.656 0 2.52-.648 2.52-1.872 0-.576-.288-1.152-.792-1.512-.396-.252-.72-.324-1.728-.324H7.128z"/>
		<path d="M40.104 121.992H35.1c-.9 0-1.26.072-1.584.252-.576.36-.936.972-.936 1.584 0 .612.288 1.152.792 1.512.36.252.828.36 1.728.36h1.116v6.048c-1.836 1.836-2.664 2.268-4.428 2.268-2.088 0-3.024-.72-3.024-2.34v-9.684h-4.32c-.9 0-1.26.072-1.584.252-.576.36-.936.972-.936 1.584 0 .612.288 1.152.792 1.512.36.252.756.36 1.728.36h.432v6.12c0 2.052.72 3.564 2.16 4.608 1.224.864 2.736 1.296 4.392 1.296 1.944 0 3.096-.468 4.788-1.908v1.476h3.564c.756 0 1.296-.072 1.584-.252.576-.36.936-.972.936-1.62 0-.576-.288-1.152-.792-1.512-.36-.216-.648-.288-1.404-.324z"/>
		<path d="M49.608 115.584h-4.32c-.72 0-.972 0-1.332.108-.684.252-1.188.972-1.188 1.728 0 .612.288 1.152.792 1.512.36.288.756.36 1.728.36h.432v14.292h-.432c-.9 0-1.26.036-1.584.252a1.832 1.832 0 0 0-.936 1.584c0 .612.288 1.152.792 1.512.36.252.828.36 1.728.36h4.32v-1.08c1.764 1.116 3.204 1.548 5.292 1.548 5.292 0 9-3.348 9-8.136 0-2.268-.864-4.284-2.556-5.832-1.692-1.548-3.744-2.268-6.48-2.268-2.052 0-3.852.54-5.256 1.584zm5.148 9.648c1.764 0 2.88.396 3.888 1.332.864.828 1.368 1.944 1.368 3.06s-.504 2.268-1.368 3.096c-.972.9-2.16 1.332-3.816 1.332-1.692 0-2.88-.432-3.852-1.332-.864-.828-1.368-1.944-1.368-3.024 0-2.628 2.124-4.464 5.148-4.464z"/>
		<path d="M84.744 131.388v-1.476c0-4.824-3.996-8.352-9.468-8.352-5.364 0-9.432 3.564-9.432 8.208 0 4.716 3.96 8.064 9.648 8.064 2.592 0 6.3-.612 7.92-1.332.9-.36 1.332-.9 1.332-1.656 0-1.044-.792-1.872-1.836-1.872-.396 0-.792.072-1.26.18-3.24.828-4.176.972-5.832.972-2.988 0-4.788-.864-5.688-2.736zM70.2 128.076c.576-1.656 2.664-2.808 5.112-2.808s4.5 1.152 5.112 2.808z"/>
		<path fill="#25346f" d="M88.934 133.584c-1.368.036-2.196.72-2.196 1.836 0 .612.324 1.188.792 1.512.36.252.9.36 1.764.36h7.344c5.688.144 9.684-3.528 9.72-9v-1.584c0-5.508-4.14-9.792-9.432-9.72h-7.632c-.972 0-1.26.036-1.62.252-.576.36-.936.972-.936 1.584 0 .612.324 1.188.828 1.512.324.252.576.324 1.368.36zm3.888 0v-12.888h3.816c3.312-.144 5.76 2.34 5.832 5.904v1.62c0 3.42-2.232 5.508-5.796 5.364z"/>
		<path fill="#25346f" d="M117.374 120.696h1.908c.828 0 1.26-.072 1.584-.252.576-.36.936-.972.936-1.62 0-.576-.288-1.116-.792-1.476-.396-.288-.72-.36-1.728-.36h-7.704c-.972 0-1.224.036-1.584.252-.576.36-.936.936-.936 1.584 0 .612.288 1.188.792 1.512.396.288.792.36 1.728.36h1.908v12.888h-1.908c-.936 0-1.224.036-1.584.252-.576.36-.936.936-.936 1.584 0 1.26.864 1.872 2.52 1.872h17.136v-6.732c0-.9-.072-1.224-.288-1.548-.36-.576-.972-.9-1.656-.9-.648 0-1.188.252-1.584.756-.288.396-.36.72-.36 1.692v3.024h-7.452z"/>
	</g>
</svg>
