<svg width="112.919" height="109.732" viewBox="0 0 29.877 29.033" xmlns="http://www.w3.org/2000/svg">
	<path class="f" d="M46.385 29.977a1.873 1.873 0 0 0-.72.18l-9.847 4.704a1.879 1.879 0 0 0-1.016 1.27l-2.429 10.584a1.852 1.852 0 0 0 .254 1.434l.106.148 6.816 8.466a1.894 1.894 0 0 0 1.47.704h10.928a1.894 1.894 0 0 0 1.471-.698l6.816-8.467a1.857 1.857 0 0 0 .36-1.587l-2.43-10.584a1.852 1.852 0 0 0-1.02-1.264L47.3 30.162a1.942 1.942 0 0 0-.916-.185z" style="fill:#326ce5;stroke-width:.529166" transform="translate(-31.554 -29.207)"/>
	<path class="d" d="M46.38 29.21a2.006 2.006 0 0 0-.762.196l-10.393 4.99a1.963 1.963 0 0 0-1.058 1.338L31.606 46.89a1.92 1.92 0 0 0 .27 1.508 1.445 1.445 0 0 0 .11.16l7.192 8.942a2 2 0 0 0 1.556.74H52.27a1.995 1.995 0 0 0 1.55-.74l7.176-8.975a1.968 1.968 0 0 0 .386-1.667l-2.566-11.154a1.984 1.984 0 0 0-1.059-1.334l-10.393-4.963a2.006 2.006 0 0 0-.984-.196zm0 .767a1.942 1.942 0 0 1 .916.18l9.842 4.704a1.868 1.868 0 0 1 1.021 1.265l2.43 10.583a1.852 1.852 0 0 1-.36 1.588l-6.816 8.466a1.879 1.879 0 0 1-1.471.699H41.02a1.894 1.894 0 0 1-1.471-.704l-6.837-8.482a1.498 1.498 0 0 1-.106-.148 1.852 1.852 0 0 1-.254-1.435L34.78 36.11a1.879 1.879 0 0 1 1.016-1.27l9.869-4.678a1.873 1.873 0 0 1 .72-.18z" style="fill:#fff;stroke-width:.529166" transform="translate(-31.554 -29.207)"/>
	<path class="g" d="m46.47 32.178 3.313 3.43h-1.657v1.259h4.97v13.901h-4.97v1.265h1.657l-3.313 3.429-3.318-3.43h1.656v-1.264h-4.953V36.867h4.97v-1.26h-1.657z" style="fill:#fff;fill-rule:evenodd;stroke-width:.529166" transform="translate(-31.554 -29.207)"/>
	<path class="h" d="m41.178 40.216 5.292-1.497 5.34 1.497-5.34 1.487z" style="fill:#326ce5;fill-rule:evenodd;stroke-width:.529166" transform="translate(-31.554 -29.207)"/>
	<path class="h" d="M41.178 40.783v5.482l4.964 2.646.026-6.705z" style="fill:#326ce5;fill-rule:evenodd;stroke-width:.529166" transform="translate(-31.554 -29.207)"/>
	<path class="h" d="M51.81 40.783v5.482l-4.964 2.646v-6.705z" style="fill:#326ce5;fill-rule:evenodd;stroke-width:.529166" transform="translate(-31.554 -29.207)"/>
</svg>
