<svg xmlns="http://www.w3.org/2000/svg" width="200" height="128">
	<path d="M99.788 20.657a4.087 4.087 0 0 0-1.558.394L76.979 31.205a4.041 4.041 0 0 0-2.2 2.734l-5.241 22.809a4 4 0 0 0 .551 3.09q.108.166.231.321l14.71 18.289a4.077 4.077 0 0 0 3.177 1.516h23.588a4.08 4.08 0 0 0 3.178-1.514l14.7-18.292a4 4 0 0 0 .786-3.41l-5.251-22.809a4.036 4.036 0 0 0-2.2-2.734l-21.25-10.154a4.1 4.1 0 0 0-1.97-.394Z" fill="#326ce5"/>
	<path d="M99.776 19.006a4.3 4.3 0 0 0-1.641.418L75.7 30.141a4.258 4.258 0 0 0-2.321 2.886l-5.535 24.078a4.225 4.225 0 0 0 .582 3.264 4.007 4.007 0 0 0 .244.337L84.2 80.014a4.306 4.306 0 0 0 3.354 1.6l24.9-.006a4.3 4.3 0 0 0 3.353-1.6L131.328 60.7a4.229 4.229 0 0 0 .829-3.6l-5.542-24.08a4.258 4.258 0 0 0-2.321-2.884l-22.436-10.715a4.322 4.322 0 0 0-2.082-.415Zm.011 1.652a4.1 4.1 0 0 1 1.971.394L123.012 31.2a4.034 4.034 0 0 1 2.2 2.734l5.251 22.808a4 4 0 0 1-.785 3.411l-14.7 18.292a4.078 4.078 0 0 1-3.178 1.515l-23.589.005a4.076 4.076 0 0 1-3.177-1.517L70.32 60.16q-.123-.154-.231-.321a4.006 4.006 0 0 1-.552-3.09L74.78 33.94a4.038 4.038 0 0 1 2.2-2.734l21.25-10.154a4.082 4.082 0 0 1 1.557-.394Z" fill="#fff"/>
	<path d="M100 28.419a1.349 1.349 0 0 0-1.272 1.414v.035c0 .106-.006.234 0 .326A10.654 10.654 0 0 0 98.9 31.4a11.92 11.92 0 0 1 .142 2.308 1.386 1.386 0 0 1-.414.658l-.029.538a16.562 16.562 0 0 0-2.3.353 16.365 16.365 0 0 0-8.311 4.748c-.141-.1-.386-.272-.459-.326a1 1 0 0 1-.756-.073 11.87 11.87 0 0 1-1.715-1.549 10.611 10.611 0 0 0-.837-.889c-.078-.067-.2-.157-.283-.226a1.509 1.509 0 0 0-.886-.334 1.224 1.224 0 0 0-1.013.448 1.349 1.349 0 0 0 .312 1.876l.019.013c.084.068.187.155.264.212a10.4 10.4 0 0 0 1.054.617 11.914 11.914 0 0 1 1.892 1.329 1.419 1.419 0 0 1 .255.734l.408.364a16.463 16.463 0 0 0-2.595 11.475l-.533.155a1.777 1.777 0 0 1-.546.552 11.889 11.889 0 0 1-2.281.375 10.666 10.666 0 0 0-1.22.1c-.1.018-.233.054-.34.079h-.011l-.019.006a1.276 1.276 0 1 0 .566 2.478h.019l.024-.008c.105-.023.237-.049.329-.074a10.484 10.484 0 0 0 1.141-.437A11.954 11.954 0 0 1 83 56.25a1.4 1.4 0 0 1 .731.259l.555-.1a16.559 16.559 0 0 0 7.335 9.16l-.231.554a1.254 1.254 0 0 1 .113.719 12.327 12.327 0 0 1-1.151 2.07 10.634 10.634 0 0 0-.682 1.016c-.05.095-.115.242-.163.343a1.277 1.277 0 1 0 2.3 1.09c.048-.1.117-.23.158-.323a10.751 10.751 0 0 0 .367-1.166 8.863 8.863 0 0 1 .984-2.285 1.024 1.024 0 0 1 .549-.267l.288-.522a16.475 16.475 0 0 0 11.738.03c.081.143.232.419.272.489a1.006 1.006 0 0 1 .65.394 11.934 11.934 0 0 1 .872 2.139 10.565 10.565 0 0 0 .37 1.166c.041.094.109.226.157.326a1.278 1.278 0 1 0 2.3-1.087c-.049-.1-.116-.247-.166-.343a10.771 10.771 0 0 0-.682-1.013 11.9 11.9 0 0 1-1.128-2.02.992.992 0 0 1 .1-.75 4.082 4.082 0 0 1-.212-.514 16.549 16.549 0 0 0 7.332-9.224c.165.026.451.076.544.095a1 1 0 0 1 .7-.266 11.954 11.954 0 0 1 2.218.653 10.488 10.488 0 0 0 1.141.44c.092.025.224.048.329.071l.025.008h.019a1.277 1.277 0 1 0 .565-2.479c-.109-.025-.264-.067-.37-.087a10.648 10.648 0 0 0-1.22-.1 11.864 11.864 0 0 1-2.28-.375 1.425 1.425 0 0 1-.549-.552l-.514-.149a16.518 16.518 0 0 0-2.65-11.448c.132-.12.381-.34.451-.405a1 1 0 0 1 .24-.72 11.837 11.837 0 0 1 1.891-1.329 10.829 10.829 0 0 0 1.057-.617c.082-.061.194-.157.28-.226a1.278 1.278 0 1 0-1.584-1.989l-.283.225a10.827 10.827 0 0 0-.84.889 11.854 11.854 0 0 1-1.715 1.552 1.409 1.409 0 0 1-.772.084l-.483.345a16.674 16.674 0 0 0-10.559-5.1c-.012-.17-.026-.476-.03-.568a1.006 1.006 0 0 1-.416-.636 11.935 11.935 0 0 1 .149-2.307 10.654 10.654 0 0 0 .174-1.209v-.361A1.348 1.348 0 0 0 100 28.419Zm-1.592 9.866-.378 6.673-.03.013a1.122 1.122 0 0 1-1.781.859l-.01.005-5.472-3.878a13.114 13.114 0 0 1 6.311-3.438 13.468 13.468 0 0 1 1.358-.234Zm3.188 0a13.211 13.211 0 0 1 7.621 3.675l-5.436 3.854-.019-.008a1.123 1.123 0 0 1-1.538-.207 1.109 1.109 0 0 1-.245-.65h-.006Zm-12.84 6.164 5 4.468-.006.028a1.121 1.121 0 0 1-.44 1.927v.021l-6.4 1.849a13.105 13.105 0 0 1 1.859-8.293Zm22.453 0a13.339 13.339 0 0 1 1.916 8.268l-6.436-1.854v-.027a1.122 1.122 0 0 1-.441-1.927v-.014l4.968-4.446Zm-12.235 4.814h2.046l1.272 1.59-.456 1.984-1.836.883-1.842-.886-.458-1.984Zm6.561 5.441a1.062 1.062 0 0 1 .258.019l.011-.014 6.623 1.12a13.119 13.119 0 0 1-5.3 6.662l-2.572-6.211.009-.011a1.124 1.124 0 0 1 .973-1.565Zm-11.125.027a1.123 1.123 0 0 1 1.077.872 1.111 1.111 0 0 1-.063.691l.019.024-2.543 6.148a13.168 13.168 0 0 1-5.286-6.615l6.566-1.115.011.014a1.182 1.182 0 0 1 .22-.019Zm5.548 2.693a1.134 1.134 0 0 1 1.027.59h.024l3.237 5.849c-.42.141-.852.261-1.293.362a13.158 13.158 0 0 1-7.178-.37L99 58.017a1.126 1.126 0 0 1 .958-.593Z" fill="#fff"/>
	<path d="M60 92.624h3.349l3.888 12.382h-2.962l-1.62-6.271c-.344-1.238-.675-2.7-1.006-3.994h-.076c-.3 1.308-.63 2.756-.974 3.994l-1.626 6.271h-2.862Zm-1.325 7.257h5.957v2.176h-5.957Zm9.548 1.551v-5.851h2.792v5.493c0 1.357.364 1.78 1.171 1.78a1.932 1.932 0 0 0 1.675-1.036v-6.237h2.793v9.425h-2.279l-.2-1.308h-.069a3.684 3.684 0 0 1-2.959 1.535c-2.047 0-2.924-1.445-2.924-3.801Zm10.4-1.135c0-3.082 1.924-4.944 3.908-4.944a3.1 3.1 0 0 1 2.311.983l-.1-1.428V91.7h2.788v13.309h-2.278l-.2-.934h-.07a3.738 3.738 0 0 1-2.507 1.161c-2.343-.003-3.856-1.862-3.856-4.936Zm6.119 1.807v-3.87a2.287 2.287 0 0 0-1.56-.6c-.905 0-1.7.836-1.7 2.628 0 1.849.64 2.683 1.721 2.683a1.8 1.8 0 0 0 1.535-.845Zm5.036-9.362A1.625 1.625 0 1 1 91.39 94.2a1.488 1.488 0 0 1-1.616-1.458Zm.217 2.839h2.792v9.425h-2.796Zm5.621 6v-3.81h-1.291v-2.083l1.444-.107.326-2.5h2.31v2.5h2.259v2.19h-2.259v3.775c0 1.068.485 1.5 1.22 1.5a2.809 2.809 0 0 0 .9-.179l.44 2.028a6.64 6.64 0 0 1-2.094.341c-2.333-.003-3.259-1.473-3.259-3.657Zm10.932-8.955h2.8v10.034h4.887v2.348h-7.686Zm8.8 7.673a4.6 4.6 0 1 1 4.591 4.936 4.623 4.623 0 0 1-4.599-4.935Zm6.32 0c0-1.631-.575-2.691-1.729-2.691s-1.729 1.06-1.729 2.691.573 2.683 1.729 2.683 1.721-1.054 1.721-2.682Zm4.194 6.327a2.189 2.189 0 0 1 1.336-1.9v-.077a1.827 1.827 0 0 1-.861-1.6 2.3 2.3 0 0 1 1.051-1.766v-.075a3.014 3.014 0 0 1-1.265-2.445c0-2.262 1.868-3.411 3.9-3.411a4.6 4.6 0 0 1 1.46.228h3.446v2.034H133.4a2.466 2.466 0 0 1 .319 1.242c0 2.168-1.649 3.167-3.71 3.167a4.02 4.02 0 0 1-1.151-.183.807.807 0 0 0-.328.7c0 .465.38.69 1.41.69h1.528c2.311 0 3.6.708 3.6 2.4 0 1.958-2.041 3.384-5.275 3.384-2.193-.001-3.939-.714-3.939-2.39Zm6.543-.519c0-.594-.509-.73-1.437-.73h-.978a5 5 0 0 1-1.321-.121 1.188 1.188 0 0 0-.509.925c0 .715.827 1.081 2.089 1.081s2.151-.504 2.151-1.157Zm-1.1-7.341c0-1-.546-1.534-1.287-1.534s-1.287.526-1.287 1.534c0 1.032.552 1.57 1.287 1.57s1.282-.536 1.282-1.572Zm4.445 5.153 1.25-1.741a4.084 4.084 0 0 0 2.432.99c.831 0 1.19-.317 1.19-.811 0-.621-.934-.9-1.9-1.282-1.155-.447-2.494-1.214-2.494-2.771 0-1.755 1.426-2.951 3.6-2.951a5.36 5.36 0 0 1 3.321 1.194l-1.249 1.677a3.5 3.5 0 0 0-1.985-.805c-.721 0-1.077.282-1.077.753 0 .6.883.831 1.86 1.185 1.193.442 2.538 1.114 2.538 2.837 0 1.7-1.345 3.039-3.871 3.039a6.111 6.111 0 0 1-3.62-1.316Z"/>
</svg>
