<svg xmlns="http://www.w3.org/2000/svg" width="200" height="200">
	<path fill="#3B3B3B" d="M72.851 117.492c-.101-7.35-.137-14.702-.107-22.053 7.52-.066 15.04-.103 22.56-.114-.004 7.518.002 15.037.019 22.555a915.85 915.85 0 0 1-22.472-.388zm22.54-53.79c-3.804.04-7.607.131-11.41.275-3.575.136-7.15.316-10.726.542a1237.31 1237.31 0 0 0-.444 22.053c7.502-.18 15.003-.286 22.506-.316.013-7.518.037-15.036.074-22.555zM63.788 95.528c-7.52.088-15.039.2-22.558.342-.065 6.72.012 13.438.231 20.156 7.49.479 14.98.864 22.47 1.159a900.342 900.342 0 0 1-.143-21.657zm40.57 22.35c7.49-.036 14.981-.165 22.471-.387.101-7.35.137-14.702.107-22.053-7.52-.066-15.04-.103-22.56-.114.005 7.518 0 15.036-.018 22.555zm-.067-54.178c.036 7.52.06 15.037.074 22.556 7.503.03 15.002.135 22.505.315-.083-7.35-.23-14.701-.444-22.052a421.784 421.784 0 0 0-22.135-.818zM99.48 42.625c-3.573.005-7.146.083-10.718.24-.078 4.016-.147 8.031-.208 12.047 3.641-.124 7.285-.186 10.926-.19l.36-.003c3.763 0 7.525.065 11.287.193-.06-4.016-.13-8.032-.208-12.048a252.623 252.623 0 0 0-11.44-.239zm58.971 53.246c-7.52-.141-15.04-.254-22.559-.341.04 7.219-.009 14.437-.143 21.656 7.49-.295 14.981-.68 22.47-1.159.22-6.719.297-13.437.232-20.156zm-38.57-61.005c-.123-3.01-.256-6.018-.396-9.028a180.309 180.309 0 0 0-17.086-1.059c-.022-3.67-.046-7.34-.071-11.011-.95-.016-1.9-.02-2.848-.018-1.15.003-2.3.016-3.45.046-.04 3.67-.075 7.339-.109 11.008-5.476.12-10.951.491-16.427 1.114-.147 3.005-.283 6.011-.412 9.016a212.764 212.764 0 0 1 40.8-.068zm-20.1 91.982-.3-.002a598.395 598.395 0 0 1-57.75-2.824 481.24 481.24 0 0 0 1.627 22.332c18.763 9.928 37.45 14.916 56.122 14.984 18.94.07 37.867-4.925 56.843-14.984a480.236 480.236 0 0 0 1.627-22.332 598.514 598.514 0 0 1-58.168 2.826zm.06 43.627c-.121 0-.24-.005-.361-.006-16.968-.014-33.877-5.14-51.093-13.63A948.811 948.811 0 0 1 59.9 178.324c-.182.044-.364.1-.544.13-.632.033-.923.767-.587 1.492.333.724 1.21 1.273 1.77 1.098.23-.04.456-.103.683-.16 2.712-.685 5.29-2.634 7.931-5.981 5.27 7.105 10.009 11.055 14.595 11.38 4.497.328 8.436-2.849 12.197-8.557 1.16 1.77 2.335 3.31 3.535 4.603 2.784 3.004 5.698 4.652 8.849 4.586 4.6-.086 9.288-3.813 14.444-10.821 2.452 3.184 4.839 5.27 7.289 6.285 2.513 1.043 5.136.91 7.776-.285.256-.116.512-.23.766-.366.637-.34 1.132-1.197 1.036-1.8a.748.748 0 0 0-.4-.559 943.381 943.381 0 0 1 12.054-22.532c-17.228 8.531-34.364 13.7-51.453 13.637z" class="color c1"/>
	<path d="m56.885 138.645 5.17 7.57h-2.5l-4.4-6.58-1.06 1.18v5.4h-2.28v-17.1l2.28-.19v9.2q-.01.62-.01.9.37-.39 1.05-1.15.69-.76.92-1.01l3-3.28h2.58l-4.75 5.06Zm17.27-5.06v12.64h-2.09l-.21-1.62q-.3.91-1.3 1.35-1.01.43-2.46.43-.99 0-1.67-.19-.68-.2-1.13-.57-.46-.38-.71-1.05-.24-.67-.34-1.51-.1-.83-.1-2.08v-7.4h2.27v7.34q0 .25-.01.68v.6q0 .61.02.96t.12.68q.1.33.26.49.16.15.48.28.32.13.74.16.42.04 1.08.04.74 0 1.26-.11.51-.1.81-.27.3-.17.46-.45.15-.29.2-.57.04-.27.04-.69v-.45q-.01-.31-.01-.47v-8.22h2.29Zm13.93 5.6q0 .87-.01 1.45-.01.57-.05 1.25-.03.68-.1 1.11-.07.43-.19.92-.11.49-.28.79-.18.3-.42.61t-.56.49q-.32.17-.74.32-.41.15-.93.21-.52.05-1.15.05-3.02 0-3.67-1.76l-.21 1.59h-2.07v-17.48l2.27-.19v6.44q.38-.9 1.22-1.33.84-.42 2.27-.42.79 0 1.41.1.63.09 1.1.31.46.22.81.49.34.27.57.69.23.42.38.85.14.42.22 1.03.08.6.11 1.15.02.56.02 1.33Zm-2.26 3.01-.01-4.74v-.74q-.01-.25-.05-.58-.04-.34-.11-.47-.07-.14-.21-.33-.15-.19-.35-.26-.2-.07-.51-.14-.32-.08-.71-.1-.39-.01-.95-.01-1.16 0-1.81.16-.65.17-.94.56-.2.39-.2 1.77v5.8q0 .95.66 1.32.67.38 2.31.38 1.62 0 2.23-.29.65-.23.65-2.33Zm15.36-2.47q-1.38.14-1.72.16h-6.27q.01 1.67.09 3.66.06.77.66 1.02.61.25 2.36.25.65 0 1.13-.06.47-.05.76-.18.29-.13.46-.25.17-.12.25-.38.08-.26.1-.44.03-.18.05-.54.02-.36.06-.59l1.76.32q-.03.8-.12 1.36t-.31.99q-.22.42-.52.67-.3.25-.8.41-.51.16-1.12.21-.61.05-1.51.05-1.15 0-2-.13-.85-.13-1.46-.33-.6-.19-.99-.64-.39-.44-.62-.84-.22-.41-.32-1.19-.11-.78-.14-1.42-.03-.64-.03-1.77 0-1.58.04-2.47.04-.89.23-1.78.18-.89.49-1.29.31-.41.92-.75.61-.35 1.44-.44.83-.1 2.11-.1.89 0 1.53.05t1.19.21q.54.16.89.37t.62.61q.27.4.41.83.15.44.24 1.15t.11 1.44q.03.74.03 1.83Zm-7.98-1.05h5.71q-.02-1.47-.12-2.69-.04-.7-.6-.94-.56-.24-2.04-.24-1.65 0-2.09.19-.19.06-.33.2-.15.14-.24.41-.09.26-.14.49-.06.23-.09.64-.02.41-.04.64-.01.22-.01.68-.01.46-.01.62Zm16.13-9.78v1.64q-.63-.03-1.2-.03-.71 0-.86.07-.26.13-.29.77-.01.24-.01.66v.69q.01.53.01.89h2.28v1.3h-2.28v11.33h-2.27v-11.33h-1.48v-1.3h1.48q0-.63.01-1.03 0-.39.03-.88.02-.48.05-.77.04-.29.11-.62.08-.33.17-.52.1-.19.25-.4.15-.21.34-.31.19-.1.44-.2.26-.09.56-.12.31-.04.7-.04.93 0 1.96.2Zm4.81 4.69v12.63h-2.27v-12.63h2.27Zm-2.27-4.88h2.27v2h-2.27v-2Zm11.54 4.6-.09 1.92q-.44-.06-.83-.06-.81 0-1.32.16t-.77.55q-.26.4-.34.9-.09.5-.09 1.34 0 .47.04 1.38.04.91.04 1.3v5.42h-2.26v-12.63h2.06l.23 1.42q.35-.83 1.08-1.28.72-.46 1.74-.46.25 0 .51.04Zm11.77 9.41q0 1.11-.25 1.81-.24.71-.8 1.13-.55.41-1.35.57-.8.16-2.02.16-.72 0-1.15-.01-.43-.01-.99-.06-.57-.04-.9-.14-.34-.1-.72-.26-.39-.17-.61-.43-.21-.26-.41-.62-.2-.35-.28-.84-.08-.49-.08-1.11l1.79-.46q.1 1.31.24 1.65.21.48.86.6.5.11 2.09.11.95 0 1.42-.09.46-.09.62-.33.46-.38.46-2.59 0-.33-.13-.57-.14-.23-.34-.35-.19-.13-.54-.21-.36-.09-.64-.12t-.74-.07l-.74-.08q-.84-.09-1.37-.18-.53-.09-1.07-.26t-.84-.43q-.31-.25-.56-.65-.25-.4-.36-.97-.1-.56-.1-1.34 0-.83.17-1.41.17-.57.51-.95.33-.38.91-.6.58-.21 1.31-.3.72-.08 1.77-.08.66 0 1.08.01.42.02.92.09.5.06.81.17.31.12.63.33.31.2.49.51.17.3.28.74.11.44.11 1l-1.54.47q-.05-.45-.09-.7-.04-.26-.18-.48-.14-.22-.29-.31-.15-.09-.51-.16t-.73-.08q-.37-.02-1.06-.02-1.47 0-2 .3-.52.29-.52.96v1.17q0 .76.46.96.45.21 2.43.46.21.03.31.04.79.1 1.26.18.47.08.98.21.52.13.79.31t.54.46q.27.27.4.67.12.41.19.94.08.53.08 1.25Zm7.82 1.9-.04 1.61q-.97.16-1.75.16-.84 0-1.39-.18-.55-.19-.82-.59-.28-.4-.38-.89-.11-.49-.11-1.25v-8.6h-1.71v-1.29h1.71v-3.59l2.26-.18v3.77h2.32v1.29h-2.32v7.83q0 1.24.12 1.61.12.37.66.37.53 0 1.45-.07Z" fill="#fff"/>
</svg>
