<svg xmlns="http://www.w3.org/2000/svg" viewBox="-10.96 -10.96 621.92 147.42">
	<path fill="#023927" d="M127.815 105.573V26.19h14.391v43.874h2.056l18.691-20.728h18.69L155.57 76.57l27.007 29.002h-18.503l-19.812-22.31h-2.056v22.31h-14.391zm82.705.929c-4.393 0-8.224-1.022-11.588-2.974-3.271-2.045-5.888-4.74-7.664-8.366-1.869-3.532-2.71-7.622-2.71-12.27V49.336h14.299v32.44c0 4.276 1.028 7.437 3.177 9.482 2.056 2.138 5.046 3.16 8.971 3.16 4.393 0 7.85-1.487 10.28-4.369 2.43-2.881 3.645-6.971 3.645-12.177V49.337h14.391v56.237h-14.298V98.23h-2.056c-.934 1.859-2.616 3.719-5.14 5.578-2.429 1.766-6.261 2.695-11.307 2.695zm75.789.651c-5.14 0-8.971-.837-11.775-2.603-2.71-1.766-4.766-3.625-6.074-5.763h-2.056v6.786h-14.111V26.19h14.391v29.653h2.056c.841-1.395 1.963-2.603 3.365-3.812 1.401-1.208 3.27-2.23 5.607-2.974 2.336-.837 5.233-1.208 8.597-1.208 4.579 0 8.785 1.115 12.616 3.346 3.832 2.23 7.009 5.484 9.346 9.853 2.336 4.276 3.551 9.481 3.551 15.616v1.86c0 6.134-1.215 11.34-3.551 15.615-2.337 4.276-5.514 7.623-9.346 9.854-3.831 2.23-8.037 3.16-12.616 3.16zm-4.299-12.456c4.393 0 8.131-1.394 11.028-4.276 2.99-2.788 4.486-6.971 4.486-12.456V76.85c0-5.484-1.496-9.574-4.393-12.456-2.897-2.788-6.635-4.276-11.121-4.276-4.392 0-8.13 1.395-11.027 4.276-2.99 2.882-4.486 6.972-4.486 12.456v1.116c0 5.484 1.496 9.574 4.486 12.455 2.897 2.882 6.542 4.276 11.027 4.276zm63.361 12.456c-5.607 0-10.56-1.208-14.859-3.532-4.299-2.417-7.663-5.763-9.999-10.132-2.43-4.37-3.551-9.482-3.551-15.338v-1.394c0-5.856 1.214-11.061 3.551-15.337 2.336-4.369 5.7-7.715 9.906-10.132 4.298-2.417 9.158-3.532 14.859-3.532 5.513 0 10.373 1.208 14.485 3.718 4.112 2.417 7.289 5.856 9.532 10.225 2.243 4.368 3.457 9.388 3.457 15.151v4.834h-41.118c.186 3.81 1.588 6.971 4.298 9.388s6.075 3.625 10 3.625c4.018 0 7.009-.836 8.878-2.603 1.869-1.766 3.364-3.625 4.298-5.763l11.775 6.135c-1.028 1.952-2.616 4.09-4.579 6.414-2.056 2.324-4.672 4.276-8.037 5.856-3.551 1.673-7.756 2.417-12.896 2.417zM331.54 70.994h26.447c-.28-3.253-1.589-5.856-3.925-7.808s-5.327-2.975-9.065-2.975c-3.831 0-6.915 1.023-9.252 2.975-2.242 1.952-3.644 4.555-4.205 7.808zm75.79 36.159c-5.514 0-10.467-1.116-14.859-3.439-4.486-2.231-7.944-5.578-10.56-9.853-2.617-4.276-3.832-9.482-3.832-15.617v-1.58c0-6.135 1.308-11.34 3.832-15.616 2.616-4.276 6.074-7.622 10.56-9.853 4.485-2.231 9.438-3.44 14.859-3.44 5.42 0 9.999.93 13.924 2.882 3.832 1.86 7.009 4.462 9.439 7.808 2.429 3.254 3.925 6.972 4.766 11.155l-13.925 2.881c-.28-2.23-1.028-4.276-2.056-6.135s-2.523-3.253-4.485-4.276c-1.963-1.022-4.393-1.58-7.196-1.58-2.897 0-5.514.65-7.85 1.86-2.336 1.208-4.112 3.067-5.514 5.577-1.308 2.416-1.962 5.484-1.962 9.016v1.115c0 3.533.654 6.6 1.962 9.017a13.821 13.821 0 0 0 5.514 5.577c2.336 1.209 4.953 1.86 7.85 1.86 4.299 0 7.663-1.116 9.906-3.347 2.243-2.231 3.644-5.206 4.299-8.83l13.924 3.253a33.549 33.549 0 0 1-5.046 10.968c-2.43 3.254-5.514 5.856-9.439 7.808-4.018 1.859-8.691 2.789-14.111 2.789zm62.613 0c-5.608 0-10.654-1.116-15.14-3.439-4.485-2.231-8.037-5.578-10.56-9.853-2.616-4.276-3.831-9.482-3.831-15.524v-1.859c0-6.042 1.308-11.247 3.831-15.523 2.617-4.276 6.075-7.622 10.56-9.853 4.486-2.23 9.532-3.44 15.14-3.44 5.607 0 10.653 1.116 15.139 3.44 4.486 2.23 8.037 5.577 10.56 9.853 2.617 4.276 3.832 9.481 3.832 15.523v1.86c0 6.041-1.309 11.247-3.832 15.523-2.617 4.275-6.074 7.622-10.56 9.853-4.486 2.323-9.532 3.439-15.139 3.439zm0-12.642c4.392 0 8.036-1.394 10.934-4.276 2.897-2.881 4.298-6.878 4.298-12.177v-1.115c0-5.298-1.401-9.388-4.298-12.177-2.898-2.789-6.542-4.276-11.028-4.276-4.392 0-8.037 1.395-10.934 4.276-2.897 2.789-4.299 6.879-4.299 12.177v1.115c0 5.299 1.402 9.389 4.299 12.177 2.991 2.882 6.635 4.276 11.028 4.276zm59.529 12.642c-7.383 0-13.457-1.58-18.13-4.741-4.673-3.16-7.57-7.715-8.504-13.57l13.27-3.44c.561 2.602 1.402 4.74 2.71 6.228a10.392 10.392 0 0 0 4.673 3.253c1.869.65 3.925.93 6.074.93 3.364 0 5.794-.558 7.383-1.767 1.588-1.208 2.43-2.602 2.43-4.368 0-1.766-.748-3.068-2.243-3.997-1.496-.93-3.925-1.674-7.29-2.324l-3.177-.558c-3.925-.744-7.57-1.766-10.84-3.16-3.271-1.302-5.888-3.16-7.85-5.485-1.963-2.323-2.991-5.39-2.991-9.109 0-5.577 2.056-9.853 6.168-12.828 4.112-2.974 9.532-4.461 16.167-4.461 6.355 0 11.588 1.394 15.7 4.182 4.205 2.79 6.916 6.507 8.224 10.969l-13.364 4.09c-.654-2.882-1.869-4.926-3.738-6.135-1.869-1.208-4.205-1.859-6.915-1.859s-4.86.465-6.261 1.394c-1.402.93-2.15 2.231-2.15 3.904 0 1.86.748 3.16 2.243 3.997 1.495.837 3.551 1.488 6.168 1.952l3.177.558c4.299.744 8.13 1.766 11.588 2.975 3.458 1.208 6.168 3.067 8.224 5.298 2.056 2.324 2.99 5.391 2.99 9.388 0 5.856-2.149 10.411-6.448 13.664-4.299 3.44-10.093 5.02-17.288 5.02zm52.239-1.58c-3.738 0-6.728-1.116-9.064-3.44-2.337-2.323-3.458-5.39-3.458-9.202v-31.79h-14.111V49.336h14.111V31.86h14.391v17.475h15.514V61.14H583.58v29.28c0 2.231 1.028 3.44 3.178 3.44h12.336v11.805h-17.383v-.093z"/>
	<path fill="#64E892" d="M40.437 72.946C18.289 72.946 1 84.379 1 98.973 1 113.567 18.289 125 40.437 125c22.148 0 39.437-11.433 39.437-26.027 0-14.594-17.29-26.027-39.437-26.027Zm0 41.55c-13.644 0-28.877-6.414-28.877-15.523 0-9.11 15.233-15.523 28.877-15.523 3.177 0 6.448.372 9.532 1.022 4.392.651 25.139 6.972 18.503 18.126-3.27 7.158-16.26 11.898-28.035 11.898Z" style="mix-blend-mode:multiply"/>
	<path fill="#64E892" d="M63.24 1C45.95 1 36.604 30.931 36.604 59.096c0 28.165 9.346 58.096 26.634 58.096 17.289 0 26.634-29.931 26.634-58.096C89.873 30.931 80.528 1 63.239 1Zm1.775 105.409c-8.972 5.485-15.14-22.03-15.14-22.03-1.682-7.064-2.71-15.523-2.71-25.19 0-29.095 9.532-47.685 16.074-47.685 6.542 0 16.074 18.59 16.074 47.685 0 26.492-7.944 44.339-14.298 47.22Z" style="mix-blend-mode:multiply"/>
	<path fill="#64E892" d="M65.762 62.814c-15.42-19.706-36.726-28.258-48.595-19.427-3.925 2.974-6.448 7.436-7.196 13.106-1.495 11.062 3.552 25.284 13.457 38.018 11.308 14.501 25.793 22.96 37.381 22.96 4.206 0 8.037-1.116 11.215-3.44 3.924-2.974 6.448-7.436 7.195-13.106 1.496-11.154-3.55-25.376-13.457-38.11Zm2.71 39.691-.093.093c-.28.558-.654 1.023-1.122 1.58-.186.279-.467.558-.654.744l-.373.372-.28.279c-.188.186-.375.279-.468.372l-.094.092c-.186.093-.373.279-.56.372l-.561.279c-.093 0-.187.093-.28.093-.187.093-.28.093-.468.093-8.877 1.301-21.587-5.763-31.773-18.962-8.037-10.225-12.523-22.123-11.401-30.21.373-2.882 1.401-4.927 3.084-6.135 1.308-.93 3.083-1.487 5.14-1.487 7.476 0 19.157 6.413 28.876 18.962 6.448 8.273 11.588 20.729 12.336 28.35v.28c.093 1.673-.28 3.16-1.309 4.833Z" style="mix-blend-mode:multiply"/>
</svg>
