<svg xmlns="http://www.w3.org/2000/svg" height="755.905" width="831.496" xml:space="preserve">
	<defs>
		<clipPath id="a" clipPathUnits="userSpaceOnUse">
			<path d="M0 566.929h623.622V0H0Z"/>
		</clipPath>
	</defs>
	<path style="fill:#0ab1d5;fill-opacity:1;fill-rule:nonzero;stroke:none" d="m0 0-106.784-145.31L0-280.384l105.477 133.359Z" transform="matrix(1.33333 0 0 -1.33333 419.748 59.96)"/>
	<g clip-path="url(#a)" transform="matrix(1.33333 0 0 -1.33333 0 755.905)">
		<path style="fill:#464648;fill-opacity:1;fill-rule:nonzero;stroke:none" d="M0 0v71.061c0 3.629 2.86 6.6 6.6 6.6 3.74 0 6.6-2.971 6.6-6.6V32.45h2.97c1.32 0 2.42.551 3.52 1.981L33.44 52.69c1.43 1.981 3.081 3.3 5.72 3.3 3.63 0 6.271-2.969 6.271-6.599 0-1.87-.881-3.411-1.981-4.731L29.59 27.5 44.44 3.96c.88-1.319 1.32-2.75 1.32-3.96 0-3.63-2.97-6.6-6.6-6.6-2.309 0-4.4 1.54-5.5 3.411L19.8 19.25c-.88 1.431-1.98 2.091-3.52 2.091H13.2V0c0-3.63-2.86-6.6-6.6-6.6C2.86-6.6 0-3.63 0 0" transform="translate(51.891 72.061)"/>
		<path style="fill:#464648;fill-opacity:1;fill-rule:nonzero;stroke:none" d="M0 0v34.65c0 3.63 2.97 6.6 6.6 6.6 3.629 0 6.6-2.97 6.6-6.6V2.86c0-8.47 3.409-11.44 9.57-11.44 4.73 0 9.24 2.86 11.33 4.95v38.28c0 3.63 2.97 6.6 6.6 6.6 3.63 0 6.6-2.97 6.6-6.6v-50.16c0-3.3-2.53-5.83-5.72-5.83-2.97 0-5.06 2.09-5.72 4.95l-.55 2.42c-3.19-3.19-9.13-7.37-17.161-7.37C5.06-21.34 0-11.99 0 0" transform="translate(104.955 86.801)"/>
		<path style="fill:#464648;fill-opacity:1;fill-rule:nonzero;stroke:none" d="M0 0v12.65c0 8.47-2.971 12.54-10.341 12.54-4.069 0-8.029-2.2-10.559-4.839V-7.59c2.53-2.639 6.49-4.95 10.559-4.95C-2.971-12.54 0-8.47 0 0m-34.101-19.14v71.83c0 3.63 2.861 6.601 6.6 6.601 3.74 0 6.601-2.971 6.601-6.601V31.57c3.08 3.191 8.359 6.05 14.299 6.05 13.09 0 19.8-8.8 19.8-23.54V-1.319c0-14.741-6.819-23.651-20.13-23.651-6.16 0-11.88 2.97-14.96 6.491l-.66-2.201c-.769-2.53-3.08-4.29-5.72-4.29-3.299 0-5.83 2.75-5.83 5.83" transform="translate(197.508 90.431)"/>
		<path style="fill:#464648;fill-opacity:1;fill-rule:nonzero;stroke:none" d="M0 0c0 9.57-1.87 14.301-9.9 14.301-7.92 0-9.9-4.181-9.9-14.301zm-33-15.069V2.2c0 14.521 7.479 23.54 23.1 23.54 15.95 0 22.77-8.689 22.77-23.54v-7.37a5.164 5.164 0 0 0-5.17-5.17h-27.5v-5.939c0-4.62 2.86-9.13 10.89-9.13 5.72 0 8.8.88 13.09 2.97.66.33 1.54.66 2.42.66 2.97 0 5.39-2.42 5.39-5.391 0-2.309-1.429-3.96-3.52-5.17-5.17-2.97-10.23-4.51-17.93-4.51C-25.19-36.85-33-28.6-33-15.069" transform="translate(251.705 102.311)"/>
		<path style="fill:#464648;fill-opacity:1;fill-rule:nonzero;stroke:none" d="M0 0c0 3.3 2.53 5.83 5.721 5.83h19.91c3.3 0 5.83-2.53 5.83-5.83 0-3.19-2.53-5.72-5.83-5.72H5.721A5.681 5.681 0 0 0 0 0" transform="translate(271.756 99.452)"/>
		<path style="fill:#464648;fill-opacity:1;fill-rule:nonzero;stroke:none" d="M0 0v12.65c0 8.47-2.971 12.54-10.341 12.54-4.069 0-8.029-2.2-10.559-4.839V-7.59c2.53-2.639 6.49-4.95 10.559-4.95C-2.971-12.54 0-8.47 0 0m-34.101-19.14v71.83c0 3.63 2.861 6.601 6.6 6.601 3.74 0 6.601-2.971 6.601-6.601V31.57c3.08 3.191 8.359 6.05 14.299 6.05 13.09 0 19.8-8.8 19.8-23.54V-1.319c0-14.741-6.819-23.651-20.13-23.651-6.16 0-11.88 2.97-14.96 6.491l-.66-2.201c-.769-2.53-3.08-4.29-5.72-4.29-3.299 0-5.83 2.75-5.83 5.83" transform="translate(345.776 90.431)"/>
		<path style="fill:#464648;fill-opacity:1;fill-rule:nonzero;stroke:none" d="M0 0c0 9.57-1.87 14.301-9.9 14.301-7.92 0-9.9-4.181-9.9-14.301zm-33-15.069V2.2c0 14.521 7.479 23.54 23.1 23.54 15.95 0 22.77-8.689 22.77-23.54v-7.37a5.164 5.164 0 0 0-5.17-5.17h-27.5v-5.939c0-4.62 2.86-9.13 10.89-9.13 5.72 0 8.8.88 13.09 2.97.66.33 1.54.66 2.42.66 2.97 0 5.39-2.42 5.39-5.391 0-2.309-1.429-3.96-3.52-5.17-5.17-2.97-10.23-4.51-17.93-4.51C-25.19-36.85-33-28.6-33-15.069" transform="translate(399.972 102.311)"/>
		<path style="fill:#464648;fill-opacity:1;fill-rule:nonzero;stroke:none" d="M0 0v50.16c0 3.301 2.53 5.83 5.72 5.83 2.97 0 5.06-2.09 5.72-4.949l.55-2.421c3.19 3.191 9.13 7.37 17.16 7.37 13.09 0 18.15-9.349 18.15-21.34V0c0-3.63-2.97-6.6-6.6-6.6-3.63 0-6.599 2.97-6.599 6.6v31.79c0 8.471-3.411 11.44-9.571 11.44-4.73 0-9.24-2.86-11.33-4.95V0c0-3.63-2.97-6.6-6.6-6.6C2.97-6.6 0-3.63 0 0" transform="translate(421.851 72.061)"/>
		<path style="fill:#464648;fill-opacity:1;fill-rule:nonzero;stroke:none" d="M0 0v15.29c0 14.52 8.36 23.649 24.31 23.649 8.36 0 14.08-3.08 18.15-8.029 1.21-1.54 1.87-2.75 1.87-4.511 0-3.299-2.53-5.83-5.83-5.83-1.76 0-3.08.66-4.4 1.981-2.75 2.75-5.39 4.62-9.79 4.62-8.69 0-11.11-5.83-11.11-12.981V1.1c0-7.151 2.75-12.981 11.44-12.981 4.4 0 7.04 1.87 9.79 4.62 1.32 1.321 2.31 1.981 4.29 1.981 3.3 0 5.94-2.531 5.94-5.83 0-1.76-.66-2.97-1.87-4.51-4.07-4.95-9.79-8.03-18.15-8.03C8.689-23.65 0-14.521 0 0" transform="translate(478.358 89.112)"/>
		<path style="fill:#464648;fill-opacity:1;fill-rule:nonzero;stroke:none" d="M0 0v71.061c0 3.629 2.86 6.6 6.6 6.6 3.74 0 6.6-2.971 6.6-6.6v-21.34c3.41 2.969 9.02 6.269 16.17 6.269 13.09 0 18.26-9.349 18.26-21.34V0c0-3.63-2.859-6.6-6.6-6.6-3.74 0-6.6 2.97-6.6 6.6v31.79c0 8.471-3.52 11.44-9.68 11.44-4.729 0-9.46-2.86-11.55-4.95V0c0-3.63-2.86-6.6-6.6-6.6C2.86-6.6 0-3.63 0 0" transform="translate(530.54 72.061)"/>
		<path style="fill:#f1df36;fill-opacity:1;fill-rule:nonzero;stroke:none" d="M0 0h.008l131.211.031h.013c3.063 0 6.107.66 8.916 1.863L65.602 49.549-8.531 1.7C-5.83.6-2.923 0 0 0" transform="translate(249.21 192.026)"/>
		<path style="fill:#faaf42;fill-opacity:1;fill-rule:nonzero;stroke:none" d="m0 0-105.477-133.359 74.547-47.655c3.392 1.452 6.439 3.697 8.747 6.559l75.104 93.431 6.686 8.317a21.997 21.997 0 0 1 3.289 5.675c.384.965.701 1.954.95 2.962z" transform="translate(420.288 374.934)"/>
		<path style="fill:#faaf42;fill-opacity:1;fill-rule:nonzero;stroke:none" d="M0 0a22.242 22.242 0 0 1 3.054-7.245c.401-.614.83-1.209 1.285-1.783l81.823-101.735c2.396-2.975 5.588-5.289 9.138-6.736l74.133 47.849L62.648 65.424Z" transform="translate(145.379 311.225)"/>
		<path style="fill:#9ad7ec;fill-opacity:1;fill-rule:nonzero;stroke:none" d="M0 0a22.527 22.527 0 0 1-4.985-9.762l-29.149-126.8c-.65-2.826-.715-5.774-.239-8.633.073-.44.155-.878.254-1.312l62.648 65.424z" transform="translate(179.498 457.732)"/>
		<path style="fill:#9ad7ec;fill-opacity:1;fill-rule:nonzero;stroke:none" d="M0 0c.837 3.378.913 6.943.131 10.337L-29.076 137.21a22.35 22.35 0 0 1-4.566 9.236L-63.846 64.07Z" transform="translate(484.133 310.864)"/>
		<path style="fill:#fff;fill-opacity:1;fill-rule:nonzero;stroke:none" d="m0 0 40.622 41.329H14.038L-18.791 6.272v71.326H-39.47V-56.101h20.679v40.069l3.269 3.181 33.46-43.25h27.03z" transform="translate(317.75 366.449)"/>
		<path style="fill:#1280c4;fill-opacity:1;fill-rule:nonzero;stroke:none" d="m0 0 39.028 53.109-.033.001-.141-.003a22.327 22.327 0 0 1-1.001-.025c-.039-.002-.077-.01-.115-.012a22.719 22.719 0 0 1-8.546-2.181L-89.022-5.593a22.517 22.517 0 0 1-7.262-5.523l28.529-81.083L0 .03Z" transform="translate(275.782 468.849)"/>
		<path style="fill:#1280c4;fill-opacity:1;fill-rule:nonzero;stroke:none" d="m0 0-118.288 56.48a22.832 22.832 0 0 1-9.785 2.22L-22.598-88.324 7.606-5.947A22.358 22.358 0 0 1 0 0" transform="translate(442.885 463.258)"/>
	</g>
</svg>
