<svg xmlns="http://www.w3.org/2000/svg" width="200" height="128">
	<path d="M99.788 20.657a4.087 4.087 0 0 0-1.558.394L76.979 31.205a4.041 4.041 0 0 0-2.2 2.734l-5.241 22.809a4 4 0 0 0 .551 3.09q.108.166.231.321l14.71 18.289a4.077 4.077 0 0 0 3.177 1.516h23.588a4.08 4.08 0 0 0 3.178-1.514l14.7-18.292a4 4 0 0 0 .786-3.41l-5.251-22.809a4.036 4.036 0 0 0-2.2-2.734l-21.25-10.154a4.1 4.1 0 0 0-1.97-.394z" fill="#326ce5"/>
	<path d="M99.776 19.006a4.3 4.3 0 0 0-1.641.418L75.7 30.141a4.258 4.258 0 0 0-2.321 2.886l-5.535 24.078a4.225 4.225 0 0 0 .582 3.264 4.007 4.007 0 0 0 .244.337L84.2 80.014a4.306 4.306 0 0 0 3.354 1.6l24.9-.006a4.3 4.3 0 0 0 3.353-1.6L131.328 60.7a4.229 4.229 0 0 0 .829-3.6l-5.542-24.08a4.258 4.258 0 0 0-2.321-2.884l-22.436-10.715a4.322 4.322 0 0 0-2.082-.415zm.011 1.652a4.1 4.1 0 0 1 1.971.394L123.012 31.2a4.034 4.034 0 0 1 2.2 2.734l5.251 22.808a4 4 0 0 1-.785 3.411l-14.7 18.292a4.078 4.078 0 0 1-3.178 1.515l-23.589.005a4.076 4.076 0 0 1-3.177-1.517L70.32 60.16q-.123-.154-.231-.321a4.006 4.006 0 0 1-.552-3.09L74.78 33.94a4.038 4.038 0 0 1 2.2-2.734l21.25-10.154a4.082 4.082 0 0 1 1.557-.394z" fill="#fff"/>
	<path d="M100 28.419a1.349 1.349 0 0 0-1.272 1.414v.035c0 .106-.006.234 0 .326A10.654 10.654 0 0 0 98.9 31.4a11.92 11.92 0 0 1 .142 2.308 1.386 1.386 0 0 1-.414.658l-.029.538a16.562 16.562 0 0 0-2.3.353 16.365 16.365 0 0 0-8.311 4.748c-.141-.1-.386-.272-.459-.326a1 1 0 0 1-.756-.073 11.87 11.87 0 0 1-1.715-1.549 10.611 10.611 0 0 0-.837-.889c-.078-.067-.2-.157-.283-.226a1.509 1.509 0 0 0-.886-.334 1.224 1.224 0 0 0-1.013.448 1.349 1.349 0 0 0 .312 1.876l.019.013c.084.068.187.155.264.212a10.4 10.4 0 0 0 1.054.617 11.914 11.914 0 0 1 1.892 1.329 1.419 1.419 0 0 1 .255.734l.408.364a16.463 16.463 0 0 0-2.595 11.475l-.533.155a1.777 1.777 0 0 1-.546.552 11.889 11.889 0 0 1-2.281.375 10.666 10.666 0 0 0-1.22.1c-.1.018-.233.054-.34.079h-.011l-.019.006a1.276 1.276 0 1 0 .566 2.478h.019l.024-.008c.105-.023.237-.049.329-.074a10.484 10.484 0 0 0 1.141-.437A11.954 11.954 0 0 1 83 56.25a1.4 1.4 0 0 1 .731.259l.555-.1a16.559 16.559 0 0 0 7.335 9.16l-.231.554a1.254 1.254 0 0 1 .113.719 12.327 12.327 0 0 1-1.151 2.07 10.634 10.634 0 0 0-.682 1.016c-.05.095-.115.242-.163.343a1.277 1.277 0 1 0 2.3 1.09c.048-.1.117-.23.158-.323a10.751 10.751 0 0 0 .367-1.166 8.863 8.863 0 0 1 .984-2.285 1.024 1.024 0 0 1 .549-.267l.288-.522a16.475 16.475 0 0 0 11.738.03c.081.143.232.419.272.489a1.006 1.006 0 0 1 .65.394 11.934 11.934 0 0 1 .872 2.139 10.565 10.565 0 0 0 .37 1.166c.041.094.109.226.157.326a1.278 1.278 0 1 0 2.3-1.087c-.049-.1-.116-.247-.166-.343a10.771 10.771 0 0 0-.682-1.013 11.9 11.9 0 0 1-1.128-2.02.992.992 0 0 1 .1-.75 4.082 4.082 0 0 1-.212-.514 16.549 16.549 0 0 0 7.332-9.224c.165.026.451.076.544.095a1 1 0 0 1 .7-.266 11.954 11.954 0 0 1 2.218.653 10.488 10.488 0 0 0 1.141.44c.092.025.224.048.329.071l.025.008h.019a1.277 1.277 0 1 0 .565-2.479c-.109-.025-.264-.067-.37-.087a10.648 10.648 0 0 0-1.22-.1 11.864 11.864 0 0 1-2.28-.375 1.425 1.425 0 0 1-.549-.552l-.514-.149a16.518 16.518 0 0 0-2.65-11.448c.132-.12.381-.34.451-.405a1 1 0 0 1 .24-.72 11.837 11.837 0 0 1 1.891-1.329 10.829 10.829 0 0 0 1.057-.617c.082-.061.194-.157.28-.226a1.278 1.278 0 1 0-1.584-1.989l-.283.225a10.827 10.827 0 0 0-.84.889 11.854 11.854 0 0 1-1.715 1.552 1.409 1.409 0 0 1-.772.084l-.483.345a16.674 16.674 0 0 0-10.559-5.1c-.012-.17-.026-.476-.03-.568a1.006 1.006 0 0 1-.416-.636 11.935 11.935 0 0 1 .149-2.307 10.654 10.654 0 0 0 .174-1.209v-.361A1.348 1.348 0 0 0 100 28.419zm-1.592 9.866-.378 6.673-.03.013a1.122 1.122 0 0 1-1.781.859l-.01.005-5.472-3.878a13.114 13.114 0 0 1 6.311-3.438 13.468 13.468 0 0 1 1.358-.234zm3.188 0a13.211 13.211 0 0 1 7.621 3.675l-5.436 3.854-.019-.008a1.123 1.123 0 0 1-1.538-.207 1.109 1.109 0 0 1-.245-.65h-.006zm-12.84 6.164 5 4.468-.006.028a1.121 1.121 0 0 1-.44 1.927v.021l-6.4 1.849a13.105 13.105 0 0 1 1.859-8.293zm22.453 0a13.339 13.339 0 0 1 1.916 8.268l-6.436-1.854v-.027a1.122 1.122 0 0 1-.441-1.927v-.014l4.968-4.446zm-12.235 4.814h2.046l1.272 1.59-.456 1.984-1.836.883-1.842-.886-.458-1.984zm6.561 5.441a1.062 1.062 0 0 1 .258.019l.011-.014 6.623 1.12a13.119 13.119 0 0 1-5.3 6.662l-2.572-6.211.009-.011a1.124 1.124 0 0 1 .973-1.565zm-11.125.027a1.123 1.123 0 0 1 1.077.872 1.111 1.111 0 0 1-.063.691l.019.024-2.543 6.148a13.168 13.168 0 0 1-5.286-6.615l6.566-1.115.011.014a1.182 1.182 0 0 1 .22-.019zm5.548 2.693a1.134 1.134 0 0 1 1.027.59h.024l3.237 5.849c-.42.141-.852.261-1.293.362a13.158 13.158 0 0 1-7.178-.37L99 58.017a1.126 1.126 0 0 1 .958-.593z" fill="#fff"/>
	<path d="M41.166 92.624h3.054l2.009 5.5c.248.73.465 1.523.713 2.286h.076c.248-.763.458-1.556.706-2.286l1.946-5.5h3.054v12.382h-2.549v-4.544c0-1.207.226-3.009.358-4.206h-.076l-1.016 2.93-1.751 4.743h-1.553l-1.754-4.743-.988-2.93h-.076c.132 1.2.358 3 .358 4.206v4.544h-2.511zm13.7 7.673a4.631 4.631 0 0 1 4.446-4.944c2.684 0 4.014 1.952 4.014 4.524a6.345 6.345 0 0 1-.116 1.233h-5.641a2.274 2.274 0 0 0 2.445 2 3.924 3.924 0 0 0 2.038-.617l.924 1.684a6.131 6.131 0 0 1-3.344 1.061 4.593 4.593 0 0 1-4.768-4.938zm6.074-1.033c0-1.036-.451-1.783-1.565-1.783a1.871 1.871 0 0 0-1.835 1.783zm4.5 2.315v-3.808h-1.286v-2.083l1.444-.107.326-2.5h2.31v2.5h2.259v2.19h-2.259v3.775c0 1.068.485 1.5 1.22 1.5a2.809 2.809 0 0 0 .9-.179l.441 2.028a6.647 6.647 0 0 1-2.095.341c-2.333-.003-3.259-1.473-3.259-3.657zm6.9-6h2.279l.2 1.647h.069a3.186 3.186 0 0 1 2.677-1.875 2.617 2.617 0 0 1 1.125.19l-.465 2.41a3.83 3.83 0 0 0-1.017-.152 2.339 2.339 0 0 0-2.076 1.743v5.462H72.34zm7.346-2.839A1.624 1.624 0 1 1 81.3 94.2a1.487 1.487 0 0 1-1.614-1.458zm.216 2.839H82.7v9.425h-2.8zm4.7 4.716a4.746 4.746 0 0 1 4.91-4.944 4.1 4.1 0 0 1 2.754 1.014l-1.32 1.8a1.906 1.906 0 0 0-1.277-.557c-1.343 0-2.206 1.06-2.206 2.691s.9 2.683 2.112 2.683a2.826 2.826 0 0 0 1.7-.7l1.093 1.827a4.705 4.705 0 0 1-3.106 1.121c-2.634.003-4.662-1.806-4.662-4.93zm8.587 3.62 1.256-1.739a4.084 4.084 0 0 0 2.432.99c.831 0 1.19-.317 1.19-.811 0-.621-.934-.9-1.9-1.282-1.155-.447-2.494-1.214-2.494-2.771 0-1.755 1.426-2.951 3.6-2.951a5.36 5.36 0 0 1 3.321 1.194l-1.249 1.677a3.5 3.5 0 0 0-1.985-.805c-.721 0-1.077.282-1.077.753 0 .6.883.831 1.86 1.185 1.193.442 2.538 1.114 2.538 2.837 0 1.7-1.345 3.039-3.871 3.039a6.111 6.111 0 0 1-3.624-1.314zm12.482-.474 1.608-1.92a4.929 4.929 0 0 0 3.041 1.293c1.169 0 1.741-.46 1.741-1.194 0-.779-.7-1.03-1.786-1.475l-1.609-.685a3.612 3.612 0 0 1-2.5-3.375c0-2.052 1.832-3.691 4.409-3.691a5.722 5.722 0 0 1 3.983 1.623l-1.412 1.764a4.032 4.032 0 0 0-2.571-.97c-.965 0-1.579.4-1.579 1.11 0 .76.81 1.036 1.891 1.466l1.577.639a3.416 3.416 0 0 1 2.456 3.368c0 2.056-1.714 3.837-4.665 3.837a6.816 6.816 0 0 1-4.587-1.788zm10.584-3.146a4.632 4.632 0 0 1 4.446-4.944c2.684 0 4.014 1.952 4.014 4.524a6.345 6.345 0 0 1-.116 1.233h-5.638a2.273 2.273 0 0 0 2.444 2 3.924 3.924 0 0 0 2.038-.617l.924 1.684a6.131 6.131 0 0 1-3.344 1.061 4.593 4.593 0 0 1-4.771-4.936zm6.075-1.033c0-1.036-.452-1.783-1.566-1.783a1.871 1.871 0 0 0-1.835 1.783zm4.315-3.683h2.278l.2 1.647h.069a3.187 3.187 0 0 1 2.678-1.875 2.609 2.609 0 0 1 1.124.19l-.465 2.41a3.824 3.824 0 0 0-1.017-.152 2.339 2.339 0 0 0-2.076 1.743v5.462h-2.792zm6.693 0h2.806l1.226 4.449c.242.937.49 1.91.731 2.9h.076c.242-.987.49-1.96.731-2.9l1.226-4.449h2.674l-3.075 9.425h-3.219zm10.239 4.716a4.631 4.631 0 0 1 4.445-4.944c2.685 0 4.015 1.952 4.015 4.524a6.25 6.25 0 0 1-.117 1.233h-5.638a2.273 2.273 0 0 0 2.445 2 3.926 3.926 0 0 0 2.038-.617l.923 1.684a6.131 6.131 0 0 1-3.344 1.061 4.593 4.593 0 0 1-4.77-4.936zm6.074-1.033c0-1.036-.451-1.783-1.566-1.783a1.87 1.87 0 0 0-1.834 1.783zm4.315-3.683h2.278l.2 1.647h.07a3.186 3.186 0 0 1 2.677-1.875 2.609 2.609 0 0 1 1.124.19l-.464 2.41a3.837 3.837 0 0 0-1.017-.152 2.34 2.34 0 0 0-2.077 1.743v5.462h-2.792z"/>
</svg>
