<svg xmlns="http://www.w3.org/2000/svg" viewBox="-84.3 -99.3 5163.6 1193.6">
	<path fill="#333" d="M3551.54 432.823a7.836 7.836 0 0 0 7.08 4.475h99.84c5.23 0 8.99-5.021 7.52-10.039-31.42-107.428-130.67-185.907-248.28-185.907h-15.67c-142.85 0-258.65 115.801-258.65 258.648v31.352c0 142.847 115.8 258.648 258.65 258.648h15.67c117.61 0 216.86-78.48 248.28-185.907 1.47-5.018-2.29-10.039-7.52-10.039h-99.84a7.836 7.836 0 0 0-7.08 4.475c-25.17 52.978-79.15 89.579-141.67 89.579-86.58 0-156.76-70.182-156.76-156.756V500c0-86.574 70.18-156.757 156.76-156.757 62.52 0 116.5 36.601 141.67 89.58z"/>
	<path fill="#333" fill-rule="evenodd" d="M4970.89 651.516c1.79-5.097-1.99-10.435-7.39-10.435h-95.83a7.855 7.855 0 0 0-6.46 3.393c-18.36 26.676-47.37 43.634-79.76 43.634-44.85 0-83.42-32.665-95.8-78.378h288.5c4 0 7.36-3.011 7.8-6.986.87-7.997 1.32-16.128 1.32-24.366 0-116.507-90-211.621-201.82-211.621-111.83 0-201.83 95.114-201.83 211.621S4669.62 790 4781.45 790c87.15 0 161.12-57.856 189.44-138.484zm-189.44-182.867c38.14 0 71.69 23.58 88.53 58.784h-177.06c16.83-35.204 50.38-58.784 88.53-58.784z" clip-rule="evenodd"/>
	<path fill="#333" d="M3727 386a8 8 0 0 1 8-8h86a8 8 0 0 1 8 8v226.5c0 41.697 33.8 75.5 75.5 75.5s75.5-33.803 75.5-75.5V386a8 8 0 0 1 8-8h86a8 8 0 0 1 8 8v384a8 8 0 0 1-8 8h-86a8 8 0 0 1-8-8v-5.4c-25.47 16.089-55.65 25.4-88 25.4-91.13 0-165-73.873-165-165V386z"/>
	<path fill="#333" fill-rule="evenodd" d="M3072.22 651.516c1.79-5.097-2-10.435-7.4-10.435h-95.83a7.837 7.837 0 0 0-6.45 3.393c-18.37 26.676-47.37 43.634-79.77 43.634-44.85 0-83.42-32.665-95.8-78.378h288.51c4 0 7.36-3.011 7.79-6.986.88-7.997 1.32-16.128 1.32-24.366 0-116.507-90-211.621-201.82-211.621s-201.82 95.114-201.82 211.621S2770.95 790 2882.77 790c87.16 0 161.13-57.856 189.45-138.484zm-189.45-182.867c38.15 0 71.7 23.58 88.53 58.784h-177.06c16.83-35.204 50.38-58.784 88.53-58.784z" clip-rule="evenodd"/>
	<path fill="#333" d="M1342 770.243a8 8 0 0 0 8 8h85.89a8 8 0 0 0 8-8V592.206l51.48-51.481 196.9 234.656a8.01 8.01 0 0 0 6.13 2.858h112.12c6.8 0 10.5-7.937 6.13-13.143L1567.7 468.401l244.74-244.744c5.04-5.04 1.47-13.657-5.66-13.657h-121.47c-2.12 0-4.15.843-5.65 2.343l-235.77 235.766V218a8 8 0 0 0-8-8H1350a8 8 0 0 0-8 8v552.243zM1828 386a8 8 0 0 1 8-8h86a8 8 0 0 1 8 8v226.5c0 41.697 33.8 75.5 75.5 75.5s75.5-33.803 75.5-75.5V386a8 8 0 0 1 8-8h86a8 8 0 0 1 8 8v384a8 8 0 0 1-8 8h-86a8 8 0 0 1-8-8v-5.4c-25.47 16.089-55.65 25.4-88 25.4-91.13 0-165-73.873-165-165V386z"/>
	<path fill="#333" fill-rule="evenodd" d="M2254 210a8 8 0 0 0-8 8v552a8 8 0 0 0 8 8h86a8 8 0 0 0 8-8v-12.513c30.39 20.595 66.4 32.513 105 32.513 108.8 0 197-94.692 197-211.5S2561.8 367 2453 367c-38.6 0-74.61 11.918-105 32.513V218a8 8 0 0 0-8-8h-86zm94 368.5c0 60.475 44.77 109.5 100 109.5s100-49.025 100-109.5S2503.23 469 2448 469s-100 49.025-100 109.5zM4153 210a8 8 0 0 0-8 8v552a8 8 0 0 0 8 8h86a8 8 0 0 0 8-8v-12.513c30.39 20.595 66.4 32.513 105 32.513 108.8 0 197-94.692 197-211.5S4460.8 367 4352 367c-38.6 0-74.61 11.918-105 32.513V218a8 8 0 0 0-8-8h-86zm94 368.5c0 60.475 44.77 109.5 100 109.5s100-49.025 100-109.5S4402.23 469 4347 469s-100 49.025-100 109.5z" clip-rule="evenodd"/>
	<path fill="#0056ff" d="M554.586 39c10.007-17.333-2.502-39-22.517-39H346.41a100 100 0 0 0-86.602 50L28.868 450a100 100 0 0 0 0 100l230.94 400a100 100 0 0 0 86.602 50h100.866a25 25 0 0 0 21.651-12.5L612.399 739c10.007-17.333-2.502-39-22.517-39H427.239a40 40 0 0 1-34.641-20l-92.376-160a40.002 40.002 0 0 1 0-40l85.964-148.894-.186-.107L554.586 39z"/>
	<path fill="#0056ff" d="M564.401 300c-20.015 0-32.524-21.667-22.517-39L685.356 12.5A25 25 0 0 1 707.006 0H808.29a100 100 0 0 1 86.603 50l230.937 400a99.967 99.967 0 0 1 0 100L894.893 950a100 100 0 0 1-86.603 50H622.214c-20.015 0-32.524-21.667-22.517-39l150.688-261h.17l103.923-180a39.997 39.997 0 0 0 0-40l-92.376-160a40 40 0 0 0-34.641-20h-163.06z"/>
</svg>
