<svg xmlns="http://www.w3.org/2000/svg" height="816" width="816" xml:space="preserve">
	<defs>
		<clipPath id="a" clipPathUnits="userSpaceOnUse">
			<path d="M0 612h612V0H0Z"/>
		</clipPath>
	</defs>
	<path style="fill:#fff;fill-opacity:1;fill-rule:nonzero;stroke:none" d="m0 0-85.168-49.17L-170.345 0l85.177 49.179Z" transform="matrix(1.33333 0 0 -1.33333 521.559 338.423)"/>
	<path style="fill:#337e3d;fill-opacity:1;fill-rule:evenodd;stroke:none" d="m0 0-85.18-49.176v-98.35L0-98.347l85.176-49.179v98.35z" transform="matrix(1.33333 0 0 -1.33333 408.002 141.72)"/>
	<path style="fill:#8abf45;fill-opacity:1;fill-rule:evenodd;stroke:none" d="m0 0-170.348-98.35 85.171-49.176L0-98.35l85.176-49.176-.008-98.352L0-295.049l-85.18 49.171v98.352l-85.168 49.176v-196.699L0-393.393l170.345 98.344V-98.35Z" transform="matrix(1.33333 0 0 -1.33333 408.002 10.585)"/>
	<g clip-path="url(#a)" transform="matrix(1.33333 0 0 -1.33333 0 816)">
		<path style="fill:#2b2523;fill-opacity:1;fill-rule:nonzero;stroke:none" d="m0 0 29.429 32.101c.744.744 1.857 1.561 3.343 2.454 1.483.89 3.268 1.337 5.35 1.337h32.774c1.482 0 2.75-.521 3.79-1.559 1.037-1.042 1.56-2.307 1.56-3.791 0-.746-.108-1.377-.334-1.896-.22-.523-.928-1.375-2.119-2.564L34.112-18.059l46.816-52.392c.892-1.042 1.483-1.82 1.784-2.343.298-.519.448-1.15.448-1.893 0-1.49-.523-2.751-1.564-3.789-1.042-1.044-2.303-1.562-3.786-1.562H44.59c-2.231 0-4.051.336-5.462 1.003a11.14 11.14 0 0 0-3.677 2.788L0-36.342v-37.677c0-1.635-.594-3.046-1.779-4.237-1.196-1.188-2.607-1.782-4.238-1.782h-28.091c-1.636 0-3.052.594-4.235 1.782-1.19 1.191-1.786 2.602-1.786 4.237V72.232c0 1.633.596 3.044 1.786 4.236 1.183 1.187 2.599 1.783 4.235 1.783h28.091c1.631 0 3.042-.596 4.238-1.783C-.594 75.276 0 73.865 0 72.232Z" transform="translate(60.211 105.161)"/>
		<path style="fill:#2b2523;fill-opacity:1;fill-rule:nonzero;stroke:none" d="M0 0c0 1.633.591 3.043 1.786 4.235C2.969 5.424 4.38 6.018 6.017 6.018h28.09c1.637 0 3.046-.594 4.238-1.783C39.533 3.043 40.129 1.633 40.129 0v-56.406c0-6.39 1.409-11.52 4.237-15.381 2.822-3.867 7.503-5.796 14.041-5.796 6.54 0 11.18 1.929 13.936 5.796 2.749 3.861 4.124 8.991 4.124 15.381V0c0 1.633.594 3.043 1.786 4.235 1.188 1.189 2.598 1.783 4.236 1.783h28.089c1.631 0 3.044-.594 4.237-1.783C116 3.043 116.594 1.633 116.594 0v-103.89c0-1.638-.594-3.048-1.779-4.237-1.193-1.19-2.606-1.784-4.237-1.784H84.714c-1.636 0-3.047.594-4.23 1.784-1.197 1.189-1.787 2.599-1.787 4.237v5.127c-1.19-1.637-2.642-3.234-4.349-4.793-1.706-1.56-3.827-2.974-6.354-4.235-2.528-1.265-5.461-2.303-8.806-3.123-3.344-.815-7.319-1.225-11.926-1.225-14.417 0-25.901 4.086-34.446 12.262C4.268-91.705 0-78.846 0-61.31Z" transform="translate(155.183 135.034)"/>
		<path style="fill:#2b2523;fill-opacity:1;fill-rule:nonzero;stroke:none" d="M0 0c-.448 5.2-2.155 9.733-5.131 13.599-2.973 3.865-7.949 5.797-14.933 5.797-3.273 0-6.098-.522-8.473-1.562-2.381-1.04-4.346-2.417-5.91-4.124a20.274 20.274 0 0 1-3.677-5.684 24.638 24.638 0 0 1-1.785-6.465c-.298-2.23-.445-4.831-.445-7.803 0-2.977.147-5.572.445-7.805a24.599 24.599 0 0 1 1.785-6.464 20.194 20.194 0 0 1 3.677-5.685c1.564-1.709 3.529-3.085 5.91-4.125 2.375-1.041 5.2-1.56 8.473-1.56 6.984 0 11.96 1.93 14.933 5.796C-2.155-22.221-.448-17.689 0-12.484.446-8.324.446-4.163 0 0m-10.033 53.953c6.689 0 13.003-1.042 18.952-3.121 5.938-2.086 11.143-5.239 15.602-9.477 4.462-4.235 8.062-9.552 10.816-15.941 2.749-6.392 4.267-13.969 4.569-22.737.146-2.231.221-5.24.221-9.03 0-3.791-.075-6.801-.221-9.03-.302-8.772-1.82-16.351-4.569-22.741-2.754-6.391-6.354-11.704-10.816-15.938-4.459-4.237-9.664-7.356-15.602-9.365-5.949-2.005-12.263-3.009-18.952-3.009-4.905 0-9.026.411-12.37 1.227-3.349.817-6.17 1.856-8.473 3.12-2.311 1.263-4.237 2.676-5.796 4.236a63.56 63.56 0 0 0-4.349 4.793v-5.128c0-1.635-.594-3.047-1.787-4.236-1.188-1.19-2.598-1.783-4.235-1.783h-26.973c-1.636 0-3.05.593-4.237 1.783-1.189 1.189-1.785 2.601-1.785 4.236V88.063c0 1.632.596 3.042 1.785 4.235 1.187 1.188 2.601 1.782 4.237 1.782h28.091c1.631 0 3.041-.594 4.237-1.782 1.183-1.193 1.779-2.603 1.779-4.235V40.577c1.043 1.334 2.381 2.785 4.015 4.347 1.631 1.557 3.636 3.008 6.017 4.346 2.38 1.338 5.201 2.451 8.473 3.343 3.268.892 7.057 1.34 11.371 1.34" transform="translate(377.675 89.331)"/>
		<path style="fill:#2b2523;fill-opacity:1;fill-rule:nonzero;stroke:none" d="M0 0c0-1.637-.594-3.049-1.779-4.237C-2.975-5.426-4.385-6.02-6.015-6.02h-28.092c-1.635 0-3.05.594-4.236 1.783-1.19 1.188-1.786 2.6-1.786 4.237v146.249c0 1.633.596 3.044 1.786 4.237 1.186 1.187 2.601 1.782 4.236 1.782h28.092c1.63 0 3.04-.595 4.236-1.782C-.594 149.293 0 147.882 0 146.249Z" transform="translate(479.107 31.144)"/>
		<path style="fill:#2b2523;fill-opacity:1;fill-rule:nonzero;stroke:none" d="M0 0c1.631 0 3.042-.595 4.237-1.783C5.42-2.975 6.021-4.386 6.021-6.019v-22.515c0-1.64-.601-3.05-1.784-4.237C3.042-33.963 1.631-34.556 0-34.556h-20.289c-13.674 0-20.51-6.838-20.51-20.512v-54.842c0-1.636-.597-3.047-1.781-4.237-1.193-1.189-2.605-1.783-4.237-1.783h-28.089c-1.637 0-3.053.594-4.238 1.783-1.19 1.19-1.785 2.601-1.785 4.237V-6.019c0 1.633.595 3.044 1.785 4.236C-77.959-.595-76.543 0-74.906 0h25.858c1.638 0 3.047-.595 4.237-1.783 1.185-1.192 1.787-2.603 1.787-4.236v-5.127c3.414 3.267 7.537 5.942 12.368 8.025C-25.828-1.041-20.063 0-13.377 0z" transform="translate(585.896 141.053)"/>
	</g>
</svg>
