<svg xmlns="http://www.w3.org/2000/svg" viewBox="60.1 49.1 150.8 65.8">
	<path fill="#fff" d="M0 0h949v448H0z"/>
	<path d="m76.92 81.376-3.968 5.568V100h-9.6V55.328h9.6v18.688h.512l4.864-7.424L86.2 55.328h10.752l-13.376 18.88L97.592 100H86.776L76.92 81.376zm45.223 12.608h-.384c-.725 1.877-1.877 3.477-3.456 4.8-1.536 1.323-3.627 1.984-6.272 1.984-1.579 0-3.029-.256-4.352-.768a9.195 9.195 0 0 1-3.392-2.432c-.939-1.067-1.685-2.368-2.24-3.904-.512-1.536-.768-3.307-.768-5.312V66.976h9.472v20.096c0 4.267 1.856 6.4 5.568 6.4.725 0 1.429-.085 2.112-.256.725-.213 1.344-.512 1.856-.896a5.13 5.13 0 0 0 1.344-1.536c.341-.597.512-1.301.512-2.112V66.976h9.472V100h-9.472v-6.016zm34.855-31.232c-2.133 0-3.627-.427-4.48-1.28-.811-.896-1.216-1.963-1.216-3.2v-1.856c0-1.28.405-2.347 1.216-3.2.853-.853 2.347-1.28 4.48-1.28 2.133 0 3.605.427 4.416 1.28.853.853 1.28 1.92 1.28 3.2v1.856c0 1.237-.427 2.304-1.28 3.2-.811.853-2.283 1.28-4.416 1.28zM141.766 92.64h10.496V74.336h-10.496v-7.36h19.968V92.64h9.728V100h-29.696v-7.36zm36.199 19.648v-7.744h30.72v7.744h-30.72z"/>
</svg>
