<svg xmlns="http://www.w3.org/2000/svg" style="isolation:isolate" viewBox="0 0 54 52" width="72" height="52pt">
	<defs>
		<clipPath id="a">
			<path d="M0 0h54v52H0z"/>
		</clipPath>
	</defs>
	<g clip-path="url(#a)">
		<mask id="b" x="-200%" y="-200%" width="400%" height="400%">
			<rect x="-200%" y="-200%" width="400%" height="400%" style="fill:#fff"/>
			<path d="M48.082 12.12c-.295-.946-1.003-1.715-1.888-2.188L28.198 1.296C27.726 1.059 27.195 1 26.723 1c-.472 0-1.003 0-1.475.118L7.253 9.813a3.178 3.178 0 0 0-1.77 2.189l-4.426 19.46a3.737 3.737 0 0 0 .65 2.84L14.156 49.74c.708.71 1.711 1.183 2.714 1.242h19.825c1.062.118 2.065-.355 2.714-1.242l12.449-15.438c.59-.828.826-1.834.708-2.84L48.082 12.12Z"/>
		</mask>
		<path d="M48.082 12.12c-.295-.946-1.003-1.715-1.888-2.188L28.198 1.296C27.726 1.059 27.195 1 26.723 1c-.472 0-1.003 0-1.475.118L7.253 9.813a3.178 3.178 0 0 0-1.77 2.189l-4.426 19.46a3.737 3.737 0 0 0 .65 2.84L14.156 49.74c.708.71 1.711 1.183 2.714 1.242h19.825c1.062.118 2.065-.355 2.714-1.242l12.449-15.438c.59-.828.826-1.834.708-2.84L48.082 12.12Z" fill="none"/>
		<path d="M48.082 12.12c-.295-.946-1.003-1.715-1.888-2.188L28.198 1.296C27.726 1.059 27.195 1 26.723 1c-.472 0-1.003 0-1.475.118L7.253 9.813a3.178 3.178 0 0 0-1.77 2.189l-4.426 19.46a3.737 3.737 0 0 0 .65 2.84L14.156 49.74c.708.71 1.711 1.183 2.714 1.242h19.825c1.062.118 2.065-.355 2.714-1.242l12.449-15.438c.59-.828.826-1.834.708-2.84L48.082 12.12Z" fill="none" mask="url(#b)" vector-effect="non-scaling-stroke" stroke-width="2.857" stroke="#326DE6"/>
		<path d="M13.401 26.565c-.342.362-.665.701-.968 1.017v-9.029l-2.39.395v14.937h2.39v-4.742c.356.263.718.583 1.087.958s.731.774 1.086 1.195c.356.422.689.857.998 1.304.31.448.583.876.82 1.285h2.766a15.92 15.92 0 0 0-.889-1.462 30.19 30.19 0 0 0-1.146-1.581 21.993 21.993 0 0 0-1.264-1.492c-.435-.467-.85-.866-1.245-1.195.738-.751 1.472-1.521 2.203-2.311.731-.791 1.426-1.555 2.084-2.292h-2.825c-.211.25-.464.543-.761.879a91.065 91.065 0 0 1-1.946 2.134Zm14.205 7.369a22.457 22.457 0 0 0 1.798-.366V23.552h-2.39v8.357a5.027 5.027 0 0 1-.721.099 11.47 11.47 0 0 1-.919.039c-.804 0-1.367-.237-1.689-.711-.323-.474-.484-1.265-.484-2.371v-5.413H20.81v5.788c0 .699.073 1.341.217 1.927.145.586.386 1.09.722 1.511.335.422.783.751 1.343.988.56.237 1.255.356 2.084.356.883 0 1.693-.063 2.43-.188Zm10.728-8.229a7.41 7.41 0 0 0-.82-.207 5.988 5.988 0 0 0-1.215-.109 4.77 4.77 0 0 0-.839.079 5.236 5.236 0 0 0-.623.138v8.279h-2.39v-9.839a12.935 12.935 0 0 1 1.729-.484 10.73 10.73 0 0 1 2.301-.228c.158 0 .343.01.553.03.211.02.422.046.633.079.21.033.415.073.612.119.198.046.356.089.474.128l-.415 2.015Zm3.902 8.14c.468.145 1.057.224 1.769.237l.335-1.976a3.782 3.782 0 0 1-.78-.167 1.113 1.113 0 0 1-.484-.317 1.16 1.16 0 0 1-.247-.503 3.291 3.291 0 0 1-.069-.731V18.553l-2.391.395v11.894c0 .514.056.971.168 1.373.112.402.307.738.583 1.008.277.27.649.477 1.116.622Z" fill-rule="evenodd" fill="#326DE6"/>
	</g>
</svg>
