<svg xmlns="http://www.w3.org/2000/svg" width="200" height="128">
    <g fill-rule="evenodd">
        <path d="M31.745 84.269h3.248v-5.136l3.552-2.933 6.851 8.069h4.263l-8.754-9.978 7.951-6.547h-4.629l-9.234 7.706v-7.706h-3.248v16.525zM67.823 84.269h3.248v-6.614l8.134-9.911h-4.011l-5.747 7.001-5.771-7.001h-3.988l8.135 9.911v6.614zM89.691 76.133c0 3.444 2.035 8.585 9.917 8.585s9.918-5.141 9.918-8.585c0-4.542-2.584-8.837-9.918-8.837s-9.917 4.295-9.917 8.837zm9.917 5.8c-3.116 0-6.669-1.277-6.669-5.977 0-3.995 2.865-5.866 6.669-5.866s6.672 1.871 6.672 5.866c0 4.695-3.555 5.972-6.672 5.972zM127.465 84.269h3.248V70.521h7.447v-2.789h-18.142v2.789h7.447v13.748zM148.706 76.133c0 3.444 2.034 8.585 9.917 8.585s9.917-5.141 9.917-8.585c0-4.542-2.584-8.837-9.917-8.837s-9.917 4.295-9.917 8.837zm9.917 5.8c-3.117 0-6.672-1.277-6.672-5.977 0-3.995 2.866-5.866 6.672-5.866s6.671 1.871 6.671 5.866c0 4.695-3.554 5.972-6.671 5.972z"/>
        <g fill="#900">
            <path d="M38.294 108.961h1.937V94.172h8.043v-1.715H30.25v1.715h8.044v14.789zM61.014 108.961h1.937v-6.682l8.594-9.843H68.91l-6.927 8.069-6.928-8.069h-2.634l8.593 9.843v6.682zM92.823 103.7a7.313 7.313 0 0 1-6.967 3.956c-5.041 0-7.632-2.869-7.632-6.733 0-4.789 2.682-7.4 7.448-7.4 3.186 0 5.774 1.156 6.944 3.909l1.742-.81c-1.491-3.383-5.134-4.6-8.71-4.6-5.614 0-9.361 2.864-9.361 8.647 0 4.88 2.923 8.7 9.385 8.7 4.055 0 7.151-1.319 8.938-4.792zM101.6 100.373c0-3.749 2.889-6.848 7.763-6.848s7.762 3.1 7.762 6.848c0 5.111-3.675 7.287-7.762 7.287-4.14 0-7.763-2.176-7.763-7.287zm-1.937.371c0 5.967 4.849 8.631 9.7 8.631s9.7-2.664 9.7-8.631c0-5.6-3.994-8.717-9.7-8.717s-9.704 3.117-9.704 8.717zM126.228 100.373c0-3.749 2.889-6.848 7.763-6.848s7.762 3.1 7.762 6.848c0 5.111-3.675 7.287-7.762 7.287-4.136 0-7.763-2.176-7.763-7.287zm-1.937.371c0 5.967 4.849 8.631 9.7 8.631s9.7-2.664 9.7-8.631c0-5.6-3.994-8.717-9.7-8.717s-9.7 3.117-9.7 8.717zM150.021 108.961h1.926V94.172l13.347 14.789h1.937V92.457h-1.937v13.564l-12.408-13.564h-2.865v16.504z"/>
        </g>
    </g>
    <g fill="#ca7572">
        <path d="M160.892 37.027a2.862 2.862 0 0 0-3.676.34l-5.19 5.272-.115-9.194a2.863 2.863 0 0 0-2.419-2.792 2.921 2.921 0 0 0-.445-.035 2.863 2.863 0 0 0-2.712 1.953L142.9 42.812l-3.435-10.241a2.863 2.863 0 0 0-2.712-1.953 2.921 2.921 0 0 0-.445.035 2.865 2.865 0 0 0-2.419 2.793l-.113 9.175-5.176-5.254a2.863 2.863 0 0 0-4.63 3.227l4.1 8.721a3.872 3.872 0 0 0-.8 2.361v2.691a3.888 3.888 0 0 0 3.88 3.886h23.456a3.888 3.888 0 0 0 3.881-3.886v-2.691a3.869 3.869 0 0 0-.768-2.312l4.125-8.77a2.864 2.864 0 0 0-.952-3.567zm-11.843-3.546l.178 14.306h-4.976zm-12.3 0l4.8 14.306h-4.974zm-10.188 5.895l8.283 8.411h-3.7a3.8 3.8 0 0 0-.607.053zm29.062 14.443v.548a1 1 0 0 1-.019.19c0 .022-.011.043-.016.064a1.023 1.023 0 0 1-.035.111.665.665 0 0 1-.034.077 1.194 1.194 0 0 1-.042.079.933.933 0 0 1-.055.084.528.528 0 0 1-.036.044 1 1 0 0 1-.5.331.985.985 0 0 1-.278.044h-23.456a.99.99 0 0 1-.385-.077c-.019-.008-.036-.018-.055-.027a1.133 1.133 0 0 1-.109-.06c-.02-.013-.039-.028-.058-.042a1.018 1.018 0 0 1-.087-.073c-.019-.017-.035-.035-.052-.053a1 1 0 0 1-.071-.087l-.043-.061c-.014-.021-.037-.067-.054-.1a.558.558 0 0 1-.03-.066.962.962 0 0 1-.038-.122c0-.02-.012-.04-.016-.06a1.057 1.057 0 0 1-.02-.2v-2.687a1.023 1.023 0 0 1 1.018-1.026h23.456a1.023 1.023 0 0 1 1.018 1.026zm-.355-5.971a3.92 3.92 0 0 0-.663-.061h-3.634l8.281-8.411zM135.423 29.9a4.977 4.977 0 1 0-4.966-4.977 4.978 4.978 0 0 0 4.966 4.977zm0-7.091a2.114 2.114 0 1 1-2.1 2.114 2.109 2.109 0 0 1 2.1-2.117zM150.464 29.768a4.977 4.977 0 1 0-4.965-4.976 4.977 4.977 0 0 0 4.965 4.976zm0-7.091a2.115 2.115 0 1 1-2.1 2.115 2.108 2.108 0 0 1 2.1-2.115zM163.574 27.288a4.977 4.977 0 1 0 4.966 4.977 4.976 4.976 0 0 0-4.966-4.977zm0 7.091a2.115 2.115 0 1 1 2.1-2.114 2.108 2.108 0 0 1-2.1 2.114z"/>
        <path d="M127.151 32.318a4.966 4.966 0 1 0-4.964 4.976 4.976 4.976 0 0 0 4.964-4.976zm-4.964 2.114a2.114 2.114 0 1 1 2.1-2.114 2.109 2.109 0 0 1-2.1 2.114z"/>
    </g>
    <path d="M83.824 32.888c.372-4.558.372-4.558-3.57-4.558-.77 0-1.542.028-2.311-.008-1.341-.062-2.025-.594-1.952-1.543.1-1.27 1-1.486 2.054-1.469s2.119.006 3.178 0c2.761-.012 2.761-.013 2.8-2.636 0-.385-.006-.77 0-1.155.044-1.855.49-2.557 1.6-2.519.988.035 1.385.669 1.423 2.375.027 1.23 0 2.461 0 3.832h7.069l3.024-3.96c2.294 1.529 2.5 1.972 1.309 3.708-1.779 2.6-3.693 5.108-5.672 7.823.895.041 1.629.08 2.364.106.385.013.905-.154 1.13.037.611.519 1.373 1.126 1.524 1.818.083.382-.86 1.248-1.488 1.459a8.382 8.382 0 0 1-2.576.081c-4.208 0-4.209 0-7.185 3.051-.267.273-.507.571-.955 1.079a7.612 7.612 0 0 0 1.593.444c1.539.057 3.085-.035 4.621.054a3.8 3.8 0 0 1 3.924 4.057c.076 3.176.055 6.356.008 9.534a4.255 4.255 0 0 1-4.06 4.354 92.381 92.381 0 0 1-8.664-.01c-2.408-.119-3.941-1.955-4.091-4.7-.1-1.921-.041-3.851-.05-5.777v-2.887a17.883 17.883 0 0 1-2.417 1.231 1.553 1.553 0 0 1-2-.691A1.459 1.459 0 0 1 74.96 44c.929-.672 1.947-1.223 2.862-1.913 2.278-1.722 4.528-3.487 6.788-5.238l-.178-.568h-7.309a7.011 7.011 0 0 1-2.289-.077 2.374 2.374 0 0 1-1.158-1.431 1.41 1.41 0 0 1 1.061-1.789 5.909 5.909 0 0 1 1.715-.093c2.401-.007 4.802-.003 7.372-.003zM87.52 48.4c1.146 0 2.293-.018 3.438.006 1.12.023 1.782-.308 1.813-1.612.047-1.995-.222-2.8-1.509-2.857a89.776 89.776 0 0 0-7.447 0c-1.275.051-1.568.693-1.525 2.537.036 1.548.268 1.836 1.792 1.916 1.143.058 2.292.01 3.438.01zm-5.139 3.077c-.037.8-.093 1.362-.082 1.922.038 2.029.051 2.059 2.111 2.091 2.105.033 4.212.049 6.316-.005 1.653-.043 1.945-.37 2-2.053a16.383 16.383 0 0 0-.156-1.955zm4.639-23.069c.095 1.674-.256 3.071.331 4.687a13.171 13.171 0 0 0 4.367-4.687zM108.813 35.226c.63.588 1.139 1.15 1.732 1.6 4.086 3.125 4.741 7.471 4.089 12.122a5.49 5.49 0 0 1-2.126 2.927c-1.833 1.474-4.124 1.388-6.337 1.223a1.257 1.257 0 0 1-1.221-1.598 2.208 2.208 0 0 1 1.262-1.289 16.718 16.718 0 0 1 2.288-.132c2.481-.437 3.451-1.66 3.279-4.2a8.179 8.179 0 0 0-2.53-5.622c-1.463-1.38-2.87-2.821-4.279-4.212.5-2.247 1.965-3.791 3.17-5.5 1.13-1.605 2.7-3.037 2.524-5.436-2.248-.8-4.5-.155-6.983-.411V55.261a7.375 7.375 0 0 1-.162 2.277 1.665 1.665 0 0 1-1.96 1.315 1.541 1.541 0 0 1-1.259-1.684v-1.734V25.66a13.714 13.714 0 0 1 .015-1.733 2.6 2.6 0 0 1 2.838-2.556c2.216-.037 4.433-.01 6.649 0 2.925.01 5.322 3.23 4.008 5.794-.865 1.688-1.747 3.372-2.725 5-.64 1.035-1.459 1.969-2.272 3.061z" fill="#706f71"/>
    <path d="M52.87 43.221c0 4.026.026 7.67-.008 11.314a4.094 4.094 0 0 1-4.238 4.365 9.083 9.083 0 0 1-3.9-.516c-2.218-1.065-2.157-2.37-.087-3.984.178.049.406.045.526.156 1.006.942 2.051 1.873 3.539 1.15 1.417-.689.712-2.063.746-3.117.095-3.045.033-6.1.033-9.364-2.465 0-4.655.028-6.844-.006-3.119-.049-4.705-1.66-4.782-4.816-.023-.962-.043-1.926 0-2.886.138-2.835 1.718-4.429 4.507-4.443q9.234-.048 18.468 0c2.845.02 4.174 1.393 4.252 4.218q.048 1.73 0 3.463c-.078 2.8-1.69 4.428-4.439 4.46-2.476.029-4.962.006-7.773.006zm-11.514-3.369c6.54 0 12.762-.008 18.983.008a1.507 1.507 0 0 0 1.735-1.747c-.006-.575.016-1.151 0-1.726-.059-2.089-.228-2.294-2.31-2.3q-8.2-.035-16.4 0c-.638 0-1.276.113-2.012.183z" fill="#6e6d6f"/>
    <path d="M49.263 25.314c.642-2.128-.761-4.535 1.872-5.676 2.914.983 1.155 3.666 2.071 5.676h7.3c2.7 0 5.394-.006 8.091.006a3.988 3.988 0 0 1 1.7.152c.436.222.985.867.934 1.253a2.338 2.338 0 0 1-1.042 1.483 3.637 3.637 0 0 1-1.7.117q-16.759.006-33.52 0c-.481 0-.966.023-1.443-.022a1.378 1.378 0 0 1-1.388-1.515 1.4 1.4 0 0 1 1.462-1.45c1.057-.048 2.118-.023 3.177-.023 4.123-.002 8.253-.001 12.486-.001z" fill="#6d6c6e"/>
    <path d="M71.382 55.852a1.713 1.713 0 0 1-2.617 1.642 12.881 12.881 0 0 1-2.74-2.09c-2.062-2.146-4.023-4.389-6.017-6.6a2.82 2.82 0 0 1-.271-.5c-.694-1.2-.678-2.058.163-2.485a1.693 1.693 0 0 1 2.45.646 28.032 28.032 0 0 0 3.121 3.763c1.412 1.428 2.988 2.693 4.461 4.062.601.555 1.12 1.202 1.45 1.562zM44.239 47.421a2.982 2.982 0 0 1-.45 1.043c-2.615 2.926-4.855 6.223-8.216 8.422a4.581 4.581 0 0 1-1.194.773 1.692 1.692 0 0 1-2.047-.624 1.408 1.408 0 0 1 .386-2.025c1.094-.932 2.3-1.751 3.294-2.778 1.734-1.792 3.33-3.716 5.012-5.559a4.061 4.061 0 0 1 1.326-1.064c.938-.387 1.881.436 1.889 1.812z" fill="#717072"/>
</svg>
