<svg xmlns="http://www.w3.org/2000/svg" viewBox="0 0 500 390.958">
	<defs>
		<style>
			.cls-1,.cls-2{fill:#3784c5;fill-rule:evenodd}.cls-2{fill:#e87e5b}
		</style>
	</defs>
	<g id="Layer_1" data-name="Layer 1">
		<path class="cls-1" d="M444.934 341.396a22.04 22.04 0 0 0 30.698 0 22.73 22.73 0 0 0 0-31.25 22.042 22.042 0 0 0-30.698 0 22.731 22.731 0 0 0 0 31.25m15.35 20.741a35.436 35.436 0 0 1-25.858-10.509 36.72 36.72 0 0 1 0-51.715 37.15 37.15 0 0 1 51.784 0 36.368 36.368 0 0 1-25.927 62.224Zm-75.223-72.733q11.891 0 19.221 7.606 7.328 7.604 7.329 20.88v42.45h-14.935v-40.93q0-7.744-4.148-11.892-4.148-4.147-11.338-4.148-7.883 0-12.722 4.909-4.84 4.909-4.84 15.003v37.058h-14.933v-69.138h14.934v8.85q6.775-10.648 21.432-10.648Zm-68.723 13.413q5.669-12.86 21.295-12.86v16.179a22.14 22.14 0 0 0-14.935 4.078q-6.36 4.634-6.36 15.28v34.846h-14.933v-69.138h14.933Zm-83.795 17.146h40.653q-1.521-8.435-6.983-12.721a20.113 20.113 0 0 0-12.79-4.286 21.01 21.01 0 0 0-13.828 4.562 20.582 20.582 0 0 0-7.052 12.445Zm.138 12.169a18.984 18.984 0 0 0 7.605 12.1 24.454 24.454 0 0 0 14.519 4.217q11.892 0 17.838-8.574l12.306 7.19q-10.233 15.073-30.282 15.072-16.87 0-27.24-10.3-10.371-10.303-10.371-26.066 0-15.487 10.232-25.927 10.233-10.44 26.273-10.44 15.21 0 24.959 10.647 9.748 10.648 9.748 25.858a46.244 46.244 0 0 1-.553 6.223Zm-34.707-40.93h16.317l-26.965 69.138h-17.284l-26.964-69.138h16.317l19.359 52.706Zm-72.18 0h15.901l-26.549 71.35q-9.956 26.827-33.74 25.443V374.03q7.053.414 11.34-2.973 4.286-3.388 7.051-10.58l.692-1.382-29.314-67.893H87.49l20.626 50.194ZM76.706 360.34H57.762l-38.164-46.115v46.115H3.696v-96.794h15.902v43.442l36.78-43.442h18.945L36.19 310.7Z"/>
		<path class="cls-2" d="m163.07 73.193-12.3 53.888h12.657l10.319-45.207c-1.952-1.98-3.952-3.88-6.019-5.647a5.646 5.646 0 0 1-1.364-1.728 153.067 153.067 0 0 1-3.293-1.306m77.186-48.709-63.317 30.492c.808 1.13 1.58 2.25 2.308 3.327a5.647 5.647 0 0 1 1.99.942 95.014 95.014 0 0 0 6.37 4.292l52.733-25.393c.295-2.546.508-5.08.597-7.586a5.66 5.66 0 0 1 .502-2.144 149.965 149.965 0 0 1-1.183-3.93ZM325.84 54.59l-62.521-30.11a150.587 150.587 0 0 1-1.184 3.934 5.662 5.662 0 0 1 .503 2.144c.088 2.505.3 5.038.597 7.583l52.019 25.05a94.707 94.707 0 0 0 6.384-4.382 5.672 5.672 0 0 1 1.983-.96 152.327 152.327 0 0 1 2.219-3.26Zm26.97 72.492-12.473-54.655c-1.258.534-2.5 1.039-3.691 1.508a5.674 5.674 0 0 1-1.35 1.739 95.462 95.462 0 0 0-5.649 5.37l10.509 46.038Z"/>
		<path class="cls-1" d="m282.382 93.812 1.502 1.854c.697-5.928 5.614-11.615 14.948-16.715 9.729-5.315 18.815-10.03 26.22-15.606l.983 1.21q8.683-13.561 13.488-17.073c4.305-2.62 8.283-1.857 11.376 1.594 2.734 3.743 2.653 7.793-.805 11.46q-4.435 3.97-19.506 9.642l.981 1.212c-6.993 6.087-13.496 13.993-20.718 22.405-6.926 8.07-13.513 11.696-19.457 11.146l1.502 1.855-5.841 4.73-5.162-12.463-3.966-1.643Zm-71.984 13.165 1.485-1.866c-5.937.602-12.556-2.967-19.553-10.976-7.295-8.349-13.866-16.197-20.913-22.222l.97-1.221q-15.119-5.542-19.589-9.473c-3.488-3.635-3.605-7.685-.905-11.451 3.063-3.478 7.034-4.276 11.362-1.694q4.835 3.471 13.636 16.956l.971-1.22c7.456 5.51 16.582 10.147 26.357 15.377 9.378 5.017 14.345 10.663 15.093 16.584l1.486-1.868 4.49 3.572-3.833 1.588-5.205 12.57Zm33.036-23.882h2.386c-4.168-4.273-5.495-11.674-3.583-22.136 1.992-10.906 4.044-20.935 4.373-30.2h1.56q-5.076-15.283-4.782-21.227c.674-4.994 3.77-7.607 8.399-7.839 4.629.232 7.725 2.845 8.4 7.839q.291 5.943-4.783 21.227h1.56c.329 9.265 2.381 19.294 4.373 30.2 1.912 10.462.585 17.863-3.583 22.136h2.386v6.959l-8.466-3.506-8.24 3.412Z"/>
		<path class="cls-2" d="m251.674 91.641 13.307 5.513 13.31 5.51 5.51 13.311 4.602 11.106h-24.107l-1.071-2.584-1.981-4.786-4.786-1.981-4.784-1.982-4.785 1.982-4.786 1.981-1.981 4.786-1.07 2.584h-24.107l4.602-11.106 5.51-13.311 13.31-5.51 13.307-5.513z"/>
		<path class="cls-1" d="M153.643 174.284a4.73 4.73 0 1 1-9.461 0v-33.451a4.731 4.731 0 0 1 4.73-4.73H352.81a4.731 4.731 0 0 1 4.73 4.73v33.451a4.73 4.73 0 1 1-9.461 0v-28.72h-92.488v28.72a4.73 4.73 0 1 1-9.461 0v-28.72h-92.487Z"/>
		<path class="cls-2" d="M245.823 223.948a.627.627 0 0 0 .508.26h4.53l4.53-.001a.623.623 0 0 0 .49-.238l2.825-3.54 2.824-3.543a.63.63 0 0 0 .12-.527l-2.014-8.826a.618.618 0 0 0-.34-.433l-8.163-3.93a.626.626 0 0 0-.545 0l-8.162 3.93a.63.63 0 0 0-.338.426l-2.012 8.81a.628.628 0 0 0 .116.55Zm-6.402 13.08a1.425 1.425 0 0 0 1.154.588h10.287l10.287-.002a1.416 1.416 0 0 0 1.113-.537l6.415-8.042 6.413-8.045a1.437 1.437 0 0 0 .274-1.198l-4.574-20.043a1.407 1.407 0 0 0-.773-.983l-18.537-8.928a1.422 1.422 0 0 0-1.236 0l-18.537 8.928a1.42 1.42 0 0 0-.769.968l-4.567 20.007a1.423 1.423 0 0 0 .262 1.25Z"/>
		<path class="cls-2" d="M143.257 223.948a.625.625 0 0 0 .507.26h4.53l4.53-.001a.625.625 0 0 0 .49-.238l2.825-3.54 2.823-3.543a.63.63 0 0 0 .121-.527l-2.014-8.826a.62.62 0 0 0-.34-.433l-8.163-3.93a.624.624 0 0 0-.544 0l-8.162 3.93a.627.627 0 0 0-.34.426l-2.01 8.81a.624.624 0 0 0 .116.55Zm-6.402 13.08a1.425 1.425 0 0 0 1.153.588h10.286l10.288-.002a1.42 1.42 0 0 0 1.114-.537l6.414-8.042 6.412-8.045a1.429 1.429 0 0 0 .275-1.198l-4.574-20.043a1.405 1.405 0 0 0-.773-.983l-18.537-8.928a1.424 1.424 0 0 0-1.236 0l-18.538 8.928a1.425 1.425 0 0 0-.769.968l-4.566 20.007a1.418 1.418 0 0 0 .262 1.25Z"/>
		<path class="cls-2" d="M347.153 223.948a.625.625 0 0 0 .508.26h4.53l4.53-.001a.625.625 0 0 0 .49-.238l2.825-3.54 2.823-3.543a.627.627 0 0 0 .121-.527l-2.014-8.826a.618.618 0 0 0-.34-.433l-8.163-3.93a.625.625 0 0 0-.545 0l-8.162 3.93a.631.631 0 0 0-.339.426l-2.01 8.81a.628.628 0 0 0 .115.55Zm-6.402 13.08a1.425 1.425 0 0 0 1.154.588h10.286l10.288-.002a1.42 1.42 0 0 0 1.113-.537l6.414-8.042 6.413-8.045a1.429 1.429 0 0 0 .274-1.198l-4.574-20.043a1.407 1.407 0 0 0-.772-.983l-18.538-8.928a1.424 1.424 0 0 0-1.236 0l-18.537 8.928a1.424 1.424 0 0 0-.769.968l-4.566 20.007a1.418 1.418 0 0 0 .262 1.25Z"/>
	</g>
</svg>
