<svg xmlns="http://www.w3.org/2000/svg" viewBox="-37.98 -37.98 1974.96 390.96">
	<defs>
		<linearGradient id="linear-gradient" x1="-37.748" x2="33.713" y1="8.109" y2="131.883" gradientUnits="userSpaceOnUse">
			<stop offset="0" stop-color="#002"/>
			<stop offset=".088" stop-color="#28142f"/>
			<stop offset=".22" stop-color="#5d2f40"/>
			<stop offset=".354" stop-color="#8b464f"/>
			<stop offset=".487" stop-color="#b1595b"/>
			<stop offset=".618" stop-color="#ce6864"/>
			<stop offset=".748" stop-color="#e2736b"/>
			<stop offset=".877" stop-color="#ef796f"/>
			<stop offset="1" stop-color="#f37b70"/>
		</linearGradient>
		<linearGradient id="linear-gradient-2" x1="309.329" x2="241.305" y1="36.328" y2="154.149" gradientUnits="userSpaceOnUse">
			<stop offset="0" stop-color="#002"/>
			<stop offset=".026" stop-color="#00062a"/>
			<stop offset=".192" stop-color="#002857"/>
			<stop offset=".358" stop-color="#00437d"/>
			<stop offset=".522" stop-color="#00599a"/>
			<stop offset=".685" stop-color="#0069ae"/>
			<stop offset=".845" stop-color="#0072bb"/>
			<stop offset="1" stop-color="#0075bf"/>
		</linearGradient>
		<linearGradient id="linear-gradient-3" x2="287.873" y1="27.592" y2="27.592" gradientUnits="userSpaceOnUse">
			<stop offset=".3" stop-color="#69cbda"/>
			<stop offset=".409" stop-color="#67c7d8"/>
			<stop offset=".523" stop-color="#63bad3"/>
			<stop offset=".638" stop-color="#5ba6ca"/>
			<stop offset=".754" stop-color="#5189bd"/>
			<stop offset=".871" stop-color="#4364ad"/>
			<stop offset=".9" stop-color="#3f59a8"/>
		</linearGradient>
		<style>
			.cls-4{fill:#002}
		</style>
	</defs>
	<g id="Primary_Lockup_Dark_R_2" data-name="Primary Lockup (Dark R)">
		<g id="Shield">
			<path fill="url(#linear-gradient)" d="M143.936 315.616S0 284.245 0 143.548V0l57.193 55.184v88.364c0 83.658 86.743 112.043 86.743 112.043z"/>
			<path fill="url(#linear-gradient-2)" d="M143.936 315.616s143.937-31.371 143.937-172.068V0l-57.194 55.184v88.364c0 83.658-86.743 112.043-86.743 112.043z"/>
			<path fill="url(#linear-gradient-3)" d="M230.679 55.184H57.193L0 0h287.873l-57.194 55.184z"/>
		</g>
		<g id="Wordmark">
			<path d="m854.108 178.96-.1.713c-4.549 32.312-26.138 50.107-60.79 50.107-41.885 0-68.949-29.591-68.949-75.387s27.064-75.388 68.949-75.388c32.98 0 54.281 16.836 58.443 46.19l.1.712h31.826l-.102-.92c-2.247-20.273-11.175-38.627-25.14-51.682-16.071-15.021-38.593-22.961-65.127-22.961-60.168 0-100.595 41.813-100.595 104.049s40.427 104.05 100.595 104.05c38.76 0 86.235-20.577 92.483-78.565l.1-.917zm89.428 47.646v-61.063h87.874v-28.65h-87.874V83.941h97.333V55.279H912.158v199.988h130.067v-28.661h-98.689zM416.704 55.183V226.51h90.575v28.662H385.327V55.183h31.377zm854.668.096-31.418 168.393-31.695-168.393h-49.886l-31.698 168.391-31.409-168.391h-30.655l.053 8.618 36.656 191.37h50.168l31.768-169.425 31.896 169.425h50.164l36.707-191.88v-8.108h-30.651zm142.703-4.935c-61.784 0-103.295 41.813-103.295 104.049s41.511 104.05 103.295 104.05c61.776 0 103.282-41.815 103.282-104.05s-41.506-104.05-103.282-104.05zm71.638 104.049c0 45.252-28.79 75.656-71.638 75.656-44.186 0-71.637-28.99-71.637-75.656 0-46.666 27.45-75.656 71.637-75.656 42.848 0 71.638 30.404 71.638 75.656zm372.774-78.509V55.279h-23.912l-93.413 88.3v-88.3h-31.378v199.988h31.378v-70.306l23.333-21.654 72.401 91.96h21.591v-21.215l-71.604-91.618 71.604-66.55zm-217.193 96.131c27.745-6.622 43.682-27.317 43.773-56.93.114-37.23-24.079-59.531-64.715-59.656l-80.04-.246-.615 199.988 31.376.096.25-81.076 35.35.115 52.386 80.961h25.643l.06-21.215s-43.538-62.02-43.468-62.037zm-69.695-88.776 45.963.141c24.713.076 36.192 9.896 36.128 30.905-.065 21.018-11.604 30.77-36.318 30.695l-45.961-.141zM630.24 55.183h-44.574l-56.506 185.214v14.775h28.63l17.852-59.995h64.619l17.848 59.995h28.699v-14.775zm-45.98 110.559 23.58-79.935 23.79 79.934z" class="cls-4" id="Wordmark-2" data-name="Wordmark"/>
			<path d="M1889.061 256.025A10.987 10.987 0 1 1 1900 245.024a10.982 10.982 0 0 1-10.939 11.001zm0-21.039a10.036 10.036 0 1 0 10.005 10.038 10.056 10.056 0 0 0-10.005-10.038zm-4.987 3.492h6.452a3.949 3.949 0 0 1 3.835 3.99 3.763 3.763 0 0 1-2.183 3.52c-.094.033-.094.157-.064.218l2.37 5.239c.062.124-.032.185-.123.185h-1.467a.346.346 0 0 1-.313-.155l-2.15-4.957a.207.207 0 0 0-.217-.124h-4.427a.083.083 0 0 0-.093.094v4.987a.145.145 0 0 1-.155.155h-1.465a.147.147 0 0 1-.157-.155v-12.842a.147.147 0 0 1 .157-.155zm1.777 1.589a.149.149 0 0 0-.157.155v4.426a.15.15 0 0 0 .157.157h4.52a2.356 2.356 0 0 0 2.21-2.337 2.42 2.42 0 0 0-2.274-2.4z" class="cls-4" id="Registered"/>
		</g>
	</g>
</svg>
