<svg xmlns="http://www.w3.org/2000/svg" width="200" height="128">
    <path d="M113.773 31.5a.844.844 0 0 0-.657-.776H83.184a.791.791 0 0 0-.657.776v15.963a14.178 14.178 0 0 0 .876 5.155l30.41-17.056v-4.04h-.04zM98.15 65.036c3.9 0 15.623-7.105 15.623-17.573V42.05L83.542 53.235c2.945 7.025 11.4 11.8 14.608 11.8" fill="#00aeef"/>
    <path d="M20 72.315h5.257v19.923h9.851v4.668H20zm30.241 15.747a4.594 4.594 0 1 0-4.594 4.594 4.557 4.557 0 0 0 4.594-4.594m5.134-8.8v17.619h-4.937V94.7a7.264 7.264 0 0 1-5.675 2.53c-4.545 0-8.672-3.537-8.672-9.212s4.127-9.218 8.672-9.218a6.979 6.979 0 0 1 5.675 2.53v-2.136h4.937zm2.211 8.746c0-5.577 4.545-9.212 9.679-9.212a8.97 8.97 0 0 1 7.444 3.758l-3.734 2.653a4.678 4.678 0 0 0-3.734-1.768 4.444 4.444 0 0 0-4.668 4.594 4.491 4.491 0 0 0 4.668 4.618 4.821 4.821 0 0 0 3.734-1.769l3.734 2.629a8.91 8.91 0 0 1-7.444 3.758c-5.134-.049-9.679-3.684-9.679-9.261M89.5 86.465c-.147-2.088-1.916-3.316-4.127-3.316a4.123 4.123 0 0 0-4.324 3.316zm4.913 3.218H81.121c.54 2.039 2.186 3.17 4.594 3.17a6.333 6.333 0 0 0 4.618-1.941l2.9 2.9c-1.671 2.235-4.766 3.439-7.861 3.439-5.405 0-9.385-3.734-9.385-9.163a9.024 9.024 0 0 1 9.385-9.262 8.794 8.794 0 0 1 9.163 8.991 9.545 9.545 0 0 0-.123 1.867m28.62-10.416l-6.215 17.639h-4.227l-3.66-11.472-3.489 11.472h-4.225l-6.461-17.64h5.356L103.476 90l3.366-10.736h4.176L114.384 90l3.291-10.736zm13.708 8.8a4.449 4.449 0 1 0-4.447 4.594 4.4 4.4 0 0 0 4.447-4.594m-13.978 0a9.486 9.486 0 1 1 9.482 9.212 9.165 9.165 0 0 1-9.482-9.212m34.147-8.672l-1.13 4.717a4.856 4.856 0 0 0-2.531-.639c-2.53 0-4.274 2.359-4.274 7.395v6.043h-4.938v-17.62h4.913v3.759c1.007-2.948 3-4.226 5.184-4.226a5.943 5.943 0 0 1 2.776.565m13.241 17.516l-6.166-7.665v7.665H159v-25.6h4.987v13.341l4.446-5.38h6.363l-6.9 7.739 8.451 9.9zm6.584-25.279h-.909v2.58h-.393v-2.58h-.909v-.319h2.211zm2.776-.319l-.909 2.358-.958-2.358h-.492v2.9h.418v-1.18l-.049-1.13.958 2.309h.27l.909-2.359h.025l-.025 1.18v1.179H180v-2.9z" fill="#80888f"/>
</svg>
