<svg xmlns="http://www.w3.org/2000/svg" width="200" height="128">
    <path d="M89.61 59.36h-2.15a.72.72 0 00-.69.41l-3.29 5.69-3.27-5.69a.72.72 0 00-.69-.41h-2.15a.5.5 0 00-.35.14.48.48 0 00-.14.34v12a.46.46 0 00.14.34.54.54 0 00.35.13h2.4a.52.52 0 00.35-.13.43.43 0 00.15-.34v-6.73l2 3.66a.81.81 0 00.67.42h1a.73.73 0 00.66-.42l2.06-3.66v6.72a.47.47 0 00.14.33.49.49 0 00.33.14h2.42a.52.52 0 00.35-.13.42.42 0 00.14-.34v-12a.44.44 0 00-.04-.33.48.48 0 00-.39-.14zM71 59.9a.74.74 0 00-.76-.54h-3a.74.74 0 00-.76.54l-4.43 11.84a.65.65 0 000 .17.4.4 0 00.13.27.37.37 0 00.27.12h2.48a.68.68 0 00.65-.41l.68-1.79h5l.68 1.79a.67.67 0 00.65.41H75a.39.39 0 00.28-.12.44.44 0 00.1-.44zm-4 7.43l1.69-4.72 1.7 4.72zM44.68 69.65l-2.17-1.22a.68.68 0 00-1 .57v.62l-11.18-6.3-.38-.21a1 1 0 00-1.08 0l-.29.16-1.65.93-.67.37A1 1 0 0025.9 66l.38.63.38.65a1 1 0 001.38.34l.71-.41.69-.38 1.35.76v11.83a1 1 0 001 1 1.07 1.07 0 00.68-.26L34 79a1 1 0 00.37-.84v-8.61l8 4.54a1.12 1.12 0 001.44-.38l1-1a.63.63 0 00.2-.46v-2a.65.65 0 00-.33-.6z"/>
    <path d="M44.79 59.88a1.9 1.9 0 00-.65-.64l-.28-.15-5.1-2.87-.28-.16-5-2.82a1.76 1.76 0 00-.88-.28 1.8 1.8 0 00-1 .23l-.28.16-4.82 2.71-.28.16-.27.16-5 2.83a1.69 1.69 0 00-.67.61 1.64 1.64 0 00-.27.91v12.1a1.73 1.73 0 00.23.86 1.9 1.9 0 00.65.64l.28.15 5.1 2.88.28.15 1.16.72a.67.67 0 001-.56v-2.43a.64.64 0 00-.27-.52l-.07-.1-.09-.08-.37-.2-4.41-2.49V61.72l4.22-2.38.31-.17.07-.05 4.39-2.47L36.73 59a2.79 2.79 0 00.36.2l4.41 2.49V65a.66.66 0 00.34.57L44 66.82a.69.69 0 001-.58v-5.5a1.73 1.73 0 00-.21-.86zM61.08 69.39h-5.71v-9.57a.44.44 0 00-.13-.33.49.49 0 00-.34-.13h-2.67a.53.53 0 00-.33.13.45.45 0 00-.14.33v12a.47.47 0 00.14.33.49.49 0 00.33.14h8.85a.57.57 0 00.36-.13.46.46 0 00.14-.34v-2a.5.5 0 00-.14-.35.52.52 0 00-.36-.08zM102.27 65.53a3 3 0 001.07-.94 2.5 2.5 0 00.49-1.53 3.36 3.36 0 00-1.18-2.74 5.65 5.65 0 00-3.6-1h-5.88a.46.46 0 00-.34.14.48.48 0 00-.14.34v12a.44.44 0 00.15.33.45.45 0 00.33.14h6a5.63 5.63 0 003.63-1 3.55 3.55 0 001.26-2.9 3 3 0 00-.53-1.73 3.13 3.13 0 00-1.26-1.11zm-6-3.67h2.38a1.49 1.49 0 011.09.36 1.24 1.24 0 01.38.93 1.27 1.27 0 01-.39 1 1.46 1.46 0 01-1.08.37h-2.38zm3.7 7.53a1.55 1.55 0 01-1.15.41h-2.55v-2.9h2.55a1.54 1.54 0 011.14.42 1.39 1.39 0 01.42 1 1.43 1.43 0 01-.38 1.07zM179.86 59.69a.47.47 0 00-.35-.14h-10.34a.45.45 0 00-.35.14.42.42 0 00-.14.34v2.07a.42.42 0 00.14.33.48.48 0 00.35.13h3.35V72a.45.45 0 00.14.33.52.52 0 00.36.13h2.64a.48.48 0 00.35-.13.43.43 0 00.15-.33v-9.44h3.35a.51.51 0 00.35-.13.45.45 0 00.14-.33V60a.46.46 0 00-.14-.31zM116 60.67a6.64 6.64 0 00-4.38-1.31h-5a.46.46 0 00-.34.14.47.47 0 00-.13.34v12a.47.47 0 00.14.33.49.49 0 00.33.14h5.1c3.82 0 5.8-1.69 5.92-5.07v-1.4-1.42a4.78 4.78 0 00-1.64-3.75zm-2 6.53a2.52 2.52 0 01-.6 1.8 2.45 2.45 0 01-1.77.55h-1.9v-7.42h1.8a2.6 2.6 0 011.82.57 2.38 2.38 0 01.66 1.74v1.37c0 .57-.01 1.03-.01 1.39zM142.53 59.55H132.2a.48.48 0 00-.36.14.46.46 0 00-.14.34v2.07a.45.45 0 00.14.33.52.52 0 00.36.13h3.34V72a.43.43 0 00.15.33.48.48 0 00.35.13h2.64a.52.52 0 00.36-.13.45.45 0 00.14-.33v-9.44h3.35a.48.48 0 00.35-.13.42.42 0 00.14-.33V60a.42.42 0 00-.14-.34.45.45 0 00-.35-.11zM154.31 69.71h-6.17v-2.4h5.6a.5.5 0 00.35-.14.44.44 0 00.14-.34v-1.68a.46.46 0 00-.14-.35.49.49 0 00-.35-.13h-5.6v-2.35h6a.49.49 0 00.35-.13.45.45 0 00.14-.33V60a.48.48 0 00-.49-.48h-9a.42.42 0 00-.34.14.45.45 0 00-.13.34v12a.45.45 0 00.14.32.49.49 0 00.33.14h9.14a.48.48 0 00.35-.13.42.42 0 00.14-.33v-1.81a.42.42 0 00-.14-.34.45.45 0 00-.32-.14zM165.7 65.47a12.2 12.2 0 00-2.85-.79 8.52 8.52 0 01-2.13-.62.93.93 0 01-.13-1.65 2.8 2.8 0 012.42 0 1.2 1.2 0 01.59.66.73.73 0 00.64.33h2.67a.36.36 0 00.28-.12.4.4 0 00.12-.29 3 3 0 00-.7-1.65 4.88 4.88 0 00-1.88-1.4 6.85 6.85 0 00-2.9-.57 7.34 7.34 0 00-2.81.5 4.23 4.23 0 00-1.87 1.4 3.38 3.38 0 00-.65 2 3.09 3.09 0 001.14 2.58 7.85 7.85 0 003.44 1.35c.79.16 1.39.31 1.81.44a2.48 2.48 0 01.91.44.79.79 0 01.29.64.92.92 0 01-.55.84 3.39 3.39 0 01-1.58.3 3 3 0 01-1.4-.28 1.88 1.88 0 01-.77-.73 1.12 1.12 0 00-.31-.26.82.82 0 00-.38-.08h-2.53a.4.4 0 00-.29.12.35.35 0 00-.13.27 3.14 3.14 0 00.71 1.85 4.59 4.59 0 002 1.37 8.57 8.57 0 003.14.51 8.76 8.76 0 003-.48 4.63 4.63 0 002-1.39 3.33 3.33 0 00.74-2.18 3.29 3.29 0 00-.5-1.89 3.58 3.58 0 00-1.54-1.22zM127.63 59.9a.74.74 0 00-.76-.54h-3a.74.74 0 00-.76.54l-4.43 11.84a.65.65 0 000 .17.39.39 0 00.12.27.41.41 0 00.28.12h2.47a.67.67 0 00.65-.41l.68-1.79h5l.69 1.79a.65.65 0 00.64.41h2.48a.37.37 0 00.27-.12.36.36 0 00.13-.27.65.65 0 000-.17zm-3.94 7.43l1.7-4.72 1.69 4.72z"/>
</svg>
