<svg xmlns="http://www.w3.org/2000/svg" width="200" height="128">
    <g fill="#0e1932" fill-rule="evenodd">
        <path d="M38.237 80.523c8.812 0 15.981-7.412 15.981-16.523A17.069 17.069 0 0 0 54 61.427c.017.281.048.57.048.84a14.257 14.257 0 0 1-14 14.472 13.668 13.668 0 0 1-9.1-3.493 10.631 10.631 0 0 1-4.133 2.3 15.689 15.689 0 0 0 11.422 4.977zM26.054 62.267a14.258 14.258 0 0 1 14-14.473 13.607 13.607 0 0 1 1.946.158 15.449 15.449 0 0 0-3.763-.475c-8.812 0-15.982 7.412-15.982 16.523a16.887 16.887 0 0 0 1.339 6.609 16.137 16.137 0 0 1 3.6-2.618 14.8 14.8 0 0 1-1.14-5.724zm6.962 1.544a53.095 53.095 0 0 1 3-4.008 9.746 9.746 0 0 0-7.363.082 10.712 10.712 0 0 1 4.363 3.926zm22.669-14.094a10.318 10.318 0 0 1-3.421 5.166l-.112.1a1.2 1.2 0 0 1-1.554-.186 1.656 1.656 0 0 1-.676-1.186.9.9 0 0 1 .087-.388.4.4 0 0 1 .091-.123 13.884 13.884 0 0 0 2.776-3.36 17.341 17.341 0 0 0-6.667 2.015 33.615 33.615 0 0 0-8.958 7.777l-.261.307c-.089.106-.175.212-.262.318a52.511 52.511 0 0 0-3.294 4.434 41.545 41.545 0 0 0-.513.799 23.98 23.98 0 0 0-.852 1.465c.059.036.123.082.188.131a3.429 3.429 0 0 1 .345.29 3.677 3.677 0 0 1 .322.348 3.9 3.9 0 0 1 .616 1.054 4.236 4.236 0 0 1 .143.421 4.552 4.552 0 0 1 .1.455c.005.029.013.054.018.084.227-.034.595-.1 1.078-.219l.4-.1c.129-.033.263-.069.4-.108.113-.03.229-.063.349-.1a9.02 9.02 0 0 0-.169-.4c-.063-.145-.1-.228-.1-.233a.405.405 0 0 1 .208-.554q.343-.135.672-.281a24.337 24.337 0 0 0 4.642-2.7.38.38 0 0 1 .366-.056.4.4 0 0 1 .243.288 12.307 12.307 0 0 1 .234 1.527 39.673 39.673 0 0 0 1.683-.9 31.174 31.174 0 0 0 13.909-15.738 12.459 12.459 0 0 0-2.031-.347zm-13.521 13.56a1.465 1.465 0 1 1 1.417-1.464 1.441 1.441 0 0 1-1.417 1.464zm3.174-2.477a1.465 1.465 0 1 1 1.417-1.465 1.442 1.442 0 0 1-1.417 1.465zm3.04-2.449a1.466 1.466 0 1 1 1.416-1.465 1.441 1.441 0 0 1-1.416 1.466zM31.189 68.579a2.453 2.453 0 0 0-.271-.288.977.977 0 0 0-.36-.223l-.328.263c.092-.075.2-.166.328-.263l-.019-.007a4.524 4.524 0 0 0-2.941.624l-.039.02-.03.016a15.676 15.676 0 0 0-3.589 2.652l-.034.032-.026.024a37.407 37.407 0 0 0-3.88 4.4 26.405 26.405 0 0 0 6.137-.933l.033-.009.048-.014a10.366 10.366 0 0 0 4.143-2.173l.024-.022.034-.031a4.953 4.953 0 0 0 1.307-2.08 4.79 4.79 0 0 0 .112-.424c.022-.105.046-.21.062-.318-.012-.031-.026-.06-.04-.091a4.639 4.639 0 0 0-.671-1.152zm-1.168-.072zm0 0zm.4 1.169a15.372 15.372 0 0 1-.662.54 43.62 43.62 0 0 1-.858.659l-.036.026-.026.02c-.886.663-1.739 1.279-1.739 1.279a14.6 14.6 0 0 0 .721-2.1 11 11 0 0 0-3.349 2.283l-.034.032-.024.023c-.109.1-.173.165-.173.165s.052-.078.147-.211l.022-.029.029-.04a14.487 14.487 0 0 1 2.97-3.1c.094-.066.187-.123.281-.176l.029-.018c.013-.008.026-.013.039-.02a2.947 2.947 0 0 1 2.06-.3 2.539 2.539 0 0 1 .428.135 1.656 1.656 0 0 1 .365.206c.123.1.188.189.172.255a1.474 1.474 0 0 1-.362.369zm5.14.4c-.1.655-.237 1.427-.409 2.09a7.367 7.367 0 0 0 1.519-1.1c-.116-.44-.243-.845-.364-1.2l-.746.204zm-3.73-1.944a5.76 5.76 0 0 1 .764 1.32 3.281 3.281 0 0 0 .336-.213 3.093 3.093 0 0 0-.779-1.308q-.152.086-.321.195zm9.538-1.058q-.043-.54-.138-1.114a25.406 25.406 0 0 1-3.018 1.813 20.623 20.623 0 0 1-1.418.663l-.182.078a16.312 16.312 0 0 1 .303.753c.042.116.087.239.133.37a17.904 17.904 0 0 1 .369 1.215c.042.158.077.3.113.461a12.366 12.366 0 0 1 .338 2.758c0 .215-.038.429-.053.644a8.283 8.283 0 0 0 3.573-6.779c0-.06.007-.116.007-.177 0-.084 0-.171-.008-.258a4.775 4.775 0 0 0-.019-.433zM63.466 56.614h1.065v13.8h8.423v1.016h-9.488zm13.977 14.1a4.663 4.663 0 0 0 1.516-.244 4.086 4.086 0 0 0 1.26-.677 3.229 3.229 0 0 0 .861-1.048 2.893 2.893 0 0 0 .317-1.354v-1.233q-.656-.169-1.536-.328a11.4 11.4 0 0 0-2.009-.159 4.1 4.1 0 0 0-2.551.689 2.2 2.2 0 0 0-.891 1.83v.042a2.169 2.169 0 0 0 .246 1.048 2.37 2.37 0 0 0 .666.772 3.086 3.086 0 0 0 .973.487 3.868 3.868 0 0 0 1.148.17zm-.062.974a5.115 5.115 0 0 1-1.454-.211 4.124 4.124 0 0 1-1.292-.636 3.342 3.342 0 0 1-.932-1.058 2.961 2.961 0 0 1-.359-1.481v-.042a3.228 3.228 0 0 1 .338-1.5 3.183 3.183 0 0 1 .933-1.1 4.274 4.274 0 0 1 1.434-.677 6.98 6.98 0 0 1 1.865-.233 12.285 12.285 0 0 1 1.905.127 14.027 14.027 0 0 1 1.558.339v-.466a3.173 3.173 0 0 0-.912-2.476 3.637 3.637 0 0 0-2.531-.825 6.038 6.038 0 0 0-1.762.243 8.514 8.514 0 0 0-1.517.625l-.368-.91a10.6 10.6 0 0 1 1.741-.678A7.115 7.115 0 0 1 78 60.467a4.377 4.377 0 0 1 3.3 1.185 4.2 4.2 0 0 1 1.06 3.048v6.73h-.984v-1.8a5.266 5.266 0 0 1-.645.751 4.388 4.388 0 0 1-.871.656 4.912 4.912 0 0 1-2.479.646zm10.842 0a4.493 4.493 0 0 1-1.762-.328 3.736 3.736 0 0 1-1.322-.92 3.907 3.907 0 0 1-.819-1.408 5.514 5.514 0 0 1-.277-1.788v-6.6h1v6.413a3.976 3.976 0 0 0 .86 2.677 3.063 3.063 0 0 0 2.459 1.006 3.562 3.562 0 0 0 1.424-.286 3.526 3.526 0 0 0 1.158-.794 3.606 3.606 0 0 0 .768-1.217 4.254 4.254 0 0 0 .277-1.556v-6.252h1v10.794h-1v-2.011a4.977 4.977 0 0 1-1.434 1.608 3.869 3.869 0 0 1-2.332.657zm6.866-11.048h1v2.011a4.98 4.98 0 0 1 1.434-1.609 3.881 3.881 0 0 1 2.337-.656 4.493 4.493 0 0 1 1.762.328 3.739 3.739 0 0 1 1.322.921 3.907 3.907 0 0 1 .819 1.408 5.514 5.514 0 0 1 .277 1.788v6.6h-1v-6.415a3.97 3.97 0 0 0-.861-2.677 3.06 3.06 0 0 0-2.459-1.006 3.525 3.525 0 0 0-2.582 1.08 3.606 3.606 0 0 0-.768 1.217 4.251 4.251 0 0 0-.277 1.556v6.243h-1zm15.453 11.048a4.9 4.9 0 0 1-2.1-.455 5.483 5.483 0 0 1-1.691-1.217 5.641 5.641 0 0 1-1.127-1.778 5.719 5.719 0 0 1-.409-2.159v-.042a5.717 5.717 0 0 1 .409-2.158 5.927 5.927 0 0 1 1.127-1.8 5.35 5.35 0 0 1 1.691-1.238 4.9 4.9 0 0 1 2.1-.455 5.279 5.279 0 0 1 1.342.158 5.116 5.116 0 0 1 1.117.434 5.228 5.228 0 0 1 .933.635 9.173 9.173 0 0 1 .789.762l-.717.762a7.991 7.991 0 0 0-1.5-1.249 3.592 3.592 0 0 0-1.988-.528 3.876 3.876 0 0 0-1.671.36 4.109 4.109 0 0 0-1.331.984 4.709 4.709 0 0 0-.892 1.47 4.993 4.993 0 0 0-.328 1.82v.043a4.947 4.947 0 0 0 .338 1.83 4.765 4.765 0 0 0 .922 1.492 4.278 4.278 0 0 0 1.362 1 3.954 3.954 0 0 0 1.681.359 3.79 3.79 0 0 0 1.978-.518 6.166 6.166 0 0 0 1.526-1.281l.7.635a7.3 7.3 0 0 1-1.814 1.535 4.7 4.7 0 0 1-2.447.594zm5.371-15.7h1v6.667a4.983 4.983 0 0 1 1.435-1.609 3.876 3.876 0 0 1 2.336-.656 4.493 4.493 0 0 1 1.762.328 3.739 3.739 0 0 1 1.322.921 3.924 3.924 0 0 1 .82 1.408 5.541 5.541 0 0 1 .276 1.788v6.6h-1v-6.419a3.975 3.975 0 0 0-.864-2.677 3.061 3.061 0 0 0-2.46-1.006 3.525 3.525 0 0 0-2.582 1.08 3.606 3.606 0 0 0-.768 1.217 4.251 4.251 0 0 0-.277 1.556v6.243h-1v-15.45zm15.841 14.434a7.062 7.062 0 0 0 2.705-.5 5.926 5.926 0 0 0 3.35-3.366 6.641 6.641 0 0 0 .461-2.486v-.043a6.672 6.672 0 0 0-.461-2.476 6 6 0 0 0-3.35-3.407 6.933 6.933 0 0 0-2.705-.508h-3.709v12.777zm-4.774-13.8h4.774a8.239 8.239 0 0 1 3.084.561 7.237 7.237 0 0 1 2.418 1.556 6.917 6.917 0 0 1 1.568 2.339 7.562 7.562 0 0 1 .554 2.909v.042a7.626 7.626 0 0 1-.554 2.921 6.9 6.9 0 0 1-1.568 2.35 7.387 7.387 0 0 1-2.418 1.566 8.105 8.105 0 0 1-3.084.572h-4.774zm17.317 14.1a4.673 4.673 0 0 0 1.517-.244 4.1 4.1 0 0 0 1.26-.677 3.238 3.238 0 0 0 .86-1.048 2.894 2.894 0 0 0 .318-1.354v-1.241q-.656-.169-1.537-.328a11.386 11.386 0 0 0-2.008-.159 4.1 4.1 0 0 0-2.552.689 2.2 2.2 0 0 0-.891 1.83v.042a2.169 2.169 0 0 0 .246 1.048 2.37 2.37 0 0 0 .666.772 3.086 3.086 0 0 0 .973.487 3.863 3.863 0 0 0 1.148.17zm-.062.974a5.117 5.117 0 0 1-1.455-.211 4.118 4.118 0 0 1-1.291-.636 3.345 3.345 0 0 1-.933-1.058 2.961 2.961 0 0 1-.356-1.491v-.042a3.24 3.24 0 0 1 .338-1.5 3.194 3.194 0 0 1 .933-1.1 4.283 4.283 0 0 1 1.434-.677 6.985 6.985 0 0 1 1.865-.233 12.3 12.3 0 0 1 1.906.127 13.96 13.96 0 0 1 1.557.339v-.466a3.173 3.173 0 0 0-.912-2.476 3.634 3.634 0 0 0-2.53-.825 6.045 6.045 0 0 0-1.763.243 8.474 8.474 0 0 0-1.516.625l-.369-.91a10.571 10.571 0 0 1 1.742-.678 7.1 7.1 0 0 1 1.967-.253 4.379 4.379 0 0 1 3.3 1.185 4.2 4.2 0 0 1 1.065 3.048v6.73h-.984v-1.8a5.2 5.2 0 0 1-.645.751 4.388 4.388 0 0 1-.871.656 4.911 4.911 0 0 1-2.478.646zm6.865-11.061h1V63.7a6.1 6.1 0 0 1 .779-1.333 5.208 5.208 0 0 1 1.066-1.048 4.456 4.456 0 0 1 2.786-.856v1.142h-.1a4.346 4.346 0 0 0-1.722.35A4.132 4.132 0 0 0 153.467 63a5.127 5.127 0 0 0-.994 1.693 6.708 6.708 0 0 0-.368 2.318v4.423h-1zm6.477-4.656h1v11.577l6.475-6.921h1.332l-4.569 4.784 4.713 6.01h-1.271l-4.139-5.27-2.536 2.641v2.625h-1zm9.9 0h1v15.45h-1zm4.51 18.9a4.438 4.438 0 0 1-1.066-.117 6.244 6.244 0 0 1-1-.349l.348-.911a3.58 3.58 0 0 0 .8.307 4.217 4.217 0 0 0 .984.095 2.185 2.185 0 0 0 .758-.127 1.808 1.808 0 0 0 .656-.434 3.906 3.906 0 0 0 .594-.794 9.425 9.425 0 0 0 .575-1.185l-5.021-10.731h1.168l4.344 9.652 3.771-9.652H180l-4.529 11.175a6.068 6.068 0 0 1-1.527 2.381 2.964 2.964 0 0 1-1.957.69z"/>
    </g>
</svg>
