<svg xmlns="http://www.w3.org/2000/svg" xmlns:xlink="http://www.w3.org/1999/xlink" viewBox="-8.34 -4.34 433.42 103.92">
	<defs>
		<ellipse id="a" cx="42.507" cy="42.483" rx="42.507" ry="42.483"/>
		<filter id="b" width="162.5%" height="162.5%" x="-31.2%" y="-31.3%" filterUnits="objectBoundingBox">
			<feGaussianBlur in="SourceGraphic" stdDeviation="9.103"/>
		</filter>
	</defs>
	<g fill="none" fill-rule="evenodd">
		<path fill="#222F4B" fill-rule="nonzero" d="M169.88 72.58V20.553h11.693v40.902h25.922V72.58H169.88zm80.584-20.205c0 1.548-.141 3.097-.352 4.646h-28.388c1.198 4.224 4.508 7.251 10.496 7.251 4.156 0 8.946-1.62 12.045-3.731l4.367 7.533c-3.733 2.816-9.72 5.35-16.905 5.35-14.44 0-21.132-9.715-21.132-20.205 0-11.475 8.1-20.204 20.357-20.204 11.059 0 19.512 7.11 19.512 19.36zm-19.512-10.42c-4.508 0-8.03 2.676-9.298 7.181h18.173c-.986-4.365-4.226-7.18-8.875-7.18zM285.966 34h10.425v38.58h-10.425v-3.943c-2.818 2.816-6.621 4.928-11.905 4.928-11.13 0-19.018-9.011-19.018-20.486 0-11.546 8.1-20.064 19.018-20.064 5.213 0 9.087 2.182 11.905 5.068V34zm-10.003 29.498c5.847 0 10.003-4.717 10.003-10.279 0-5.49-4.156-10.137-10.003-10.137-5.846 0-9.861 4.646-9.861 10.137 0 5.632 4.085 10.279 9.861 10.279zm28.951 9.081V34h10.778v5.35c1.902-3.45 6.34-6.406 12.186-6.406 7.678 0 15.004 5.14 15.004 16.051V72.58h-11.06V51.882c0-5.703-3.028-8.8-7.536-8.8-4.931 0-8.312 3.66-8.312 9.081V72.58h-11.06zm47.196-52.025h11.693v52.025H352.11V20.554zm17.398 52.025 16.413-26.259-15.215-25.766h13.454l9.298 16.966 9.862-16.966h13.595l-16.13 25.766 15.99 26.26H403.32l-10.003-17.46-10.214 17.46h-13.595z"/>
		<g transform="translate(43.722 5.214)">
			<mask id="c" fill="#fff">
				<use xlink:href="#a"/>
			</mask>
			<use fill="#166BFF" xlink:href="#a"/>
			<path fill="#039" fill-opacity=".65" d="M-29.755 50.979 13.967 7.283l43.721 43.696-43.721 43.697z" filter="url(#b)" mask="url(#c)"/>
		</g>
		<path fill="#166BFF" d="M0 47.697 43.722 4l43.721 43.697-43.721 43.696z"/>
		<path fill="#FFF" d="M56.57 78.041c-7.926-7.694-12.848-18.446-12.848-30.344s4.922-22.65 12.848-30.345l30.873 30.345L56.57 78.04z"/>
	</g>
</svg>
