<svg version="1.1" id="Layer_1" xmlns="http://www.w3.org/2000/svg" x="0" y="0" viewBox="0 0 880 994" style="enable-background:new 0 0 880 994" xml:space="preserve">
	<style>
		.st0{fill:#7eb74a}.st1{fill:#7bb642}.st2{fill:#fff}.st3{fill:#353323}
	</style>
	<path class="st1" d="M9.6 976.3V815.7h21.3v141.7H110v19H9.6z"/>
	<path class="st1" d="M152.5 976.3V815.7h21.3v160.7h-21.3z"/>
	<path class="st1" d="M298.7 913.3v-18.9l68.1-.1V954c-10.4 8.3-21.2 14.6-32.3 18.8-11.1 4.2-22.5 6.3-34.2 6.3-15.8 0-30.1-3.4-43-10.1-12.9-6.8-22.6-16.5-29.2-29.3-6.6-12.8-9.9-27.1-9.9-42.9 0-15.6 3.3-30.2 9.8-43.8 6.5-13.6 15.9-23.6 28.2-30.2 12.3-6.6 26.4-9.9 42.4-9.9 11.6 0 22.1 1.9 31.5 5.6 9.4 3.8 16.8 9 22.1 15.7 5.3 6.7 9.4 15.5 12.2 26.3l-19.2 5.3c-2.4-8.2-5.4-14.6-9-19.3-3.6-4.7-8.7-8.4-15.3-11.2-6.6-2.8-14-4.2-22.1-4.2-9.7 0-18.1 1.5-25.2 4.4-7.1 3-12.8 6.9-17.2 11.7-4.3 4.8-7.7 10.1-10.1 15.9-4.1 9.9-6.1 20.7-6.1 32.3 0 14.3 2.5 26.3 7.4 36 4.9 9.6 12.1 16.8 21.5 21.5 9.4 4.7 19.4 7 30 7 9.2 0 18.2-1.8 27-5.3s15.4-7.3 19.9-11.3v-29.9h-47.3z"/>
	<path class="st1" d="m392 976.3 61.7-160.7h22.9l65.8 160.7h-24.2l-18.7-48.7h-67.2l-17.6 48.7H392zm46.4-65.9h54.5l-16.8-44.5c-5.1-13.5-8.9-24.6-11.4-33.3-2 10.3-4.9 20.5-8.7 30.7l-17.6 47.1z"/>
	<path class="st1" d="M613.6 976.3V834.6h-52.9v-19H688v19h-53.2v141.7h-21.2z"/>
	<path class="st1" d="M716.1 898.1c0-26.7 7.2-47.5 21.5-62.6 14.3-15.1 32.8-22.6 55.5-22.6 14.8 0 28.2 3.5 40.1 10.6 11.9 7.1 21 17 27.2 29.6 6.2 12.7 9.4 27.1 9.4 43.1 0 16.3-3.3 30.9-9.9 43.7-6.6 12.9-15.9 22.6-27.9 29.2-12.1 6.6-25.1 9.9-39 9.9-15.1 0-28.6-3.7-40.6-11-11.9-7.3-20.9-17.3-27.1-29.9-6.1-12.5-9.2-25.9-9.2-40zm21.9.3c0 19.4 5.2 34.6 15.6 45.8 10.4 11.1 23.5 16.7 39.2 16.7 16 0 29.2-5.6 39.5-16.9 10.3-11.3 15.5-27.2 15.5-47.9 0-13.1-2.2-24.5-6.6-34.3-4.4-9.8-10.9-17.3-19.4-22.7-8.5-5.4-18.1-8.1-28.7-8.1-15.1 0-28 5.2-38.9 15.5-10.7 10.5-16.2 27.7-16.2 51.9z"/>
	<path class="st1" d="m437.2 943.5 64 1"/>
	<circle class="st2" cx="176.5" cy="354.7" r="21.4"/>
	<circle class="st2" cx="557.1" cy="491.6" r="24"/>
	<circle class="st2" cx="436.4" cy="615" r="21.4"/>
	<circle class="st2" cx="557.1" cy="491.6" r="21.4"/>
	<path transform="rotate(134.999 486.079 549.413)" class="st0" d="M331.2 473.9H641v150.9H331.2z"/>
	<path transform="rotate(45.001 308.955 484.774)" class="st0" d="M63.4 409.3h491.1v150.9H63.4z"/>
	<path transform="rotate(-45.001 306.12 481.275)" class="st2" d="M300.6 312.7h11v337.1h-11z"/>
	<path transform="rotate(-134.999 493.547 550.351)" class="st2" d="M488 453.3h11v194.1h-11z"/>
	<circle class="st2" cx="555.6" cy="490.2" r="21.4"/>
	<circle class="st2" cx="434.6" cy="609.1" r="21.4"/>
	<circle class="st2" cx="179.7" cy="354.1" r="21.4"/>
	<path transform="rotate(-45.001 370.314 182.16)" class="st3" d="M215.4 106.7h309.8v150.9H215.4z"/>
	<path transform="rotate(-134.999 547.444 246.793)" class="st3" d="M301.9 171.3H793v150.9H301.9z"/>
</svg>
