<svg id="Layer_1" data-name="Layer 1" xmlns="http://www.w3.org/2000/svg" viewBox="0 0 552.7 290.06">
	<defs>
		<clipPath id="clip-path">
			<path class="cls-1" d="m438.77 27.61-3.26-7.18-12.5-4.96V5.04L369.4 22.82l-94.41-.61-121.97 29.2-67.86-5.05 68.47 20.39 50.16-7.9 43.79 7-19.19 19.5 67.94 29.7-21.92-26.13 65.45-44.43-36.55 49.22 25.59.93-43.56 60.37 101.12-79.87-18.08-.31 38.39-23.16 37.72.21 7.06-14.53-12.78-9.74z"/>
		</clipPath>
		<clipPath id="clip-path-2">
			<path class="cls-1" d="M80.15.04h376.4v159.98H80.15z"/>
		</clipPath>
		<style>
			.cls-1{fill:none}.cls-2{fill:#02053e}.cls-3{fill:#2aa6fd}.cls-5{clip-path:url(#clip-path-2)}.cls-6{fill:#fefefe}.cls-17{fill:#4e9bfe}.cls-26{fill:#478efa}.cls-40{fill:#4285f6}.cls-57{fill:#1c38b8}.cls-63{fill:#3f7ff3}.cls-90{fill:#2245c5}
		</style>
	</defs>
	<g id="Layer_2" data-name="Layer 2">
		<g id="Layer_2-2" data-name="Layer 2-2">
			<path class="cls-2" d="M20.83 158.28H0V261.7h54.52v-18.76H20.83v-84.66z"/>
			<path class="cls-2" d="M79 154.14a11.68 11.68 0 1 0 12 11.68 11.56 11.56 0 0 0-11.43-11.688q-.285-.003-.57.008Z"/>
			<path class="cls-2" d="M69 184.43h20.39v77.27H69z"/>
			<path class="cls-2" d="M165.47 192.56c-2.21-3-10-10.05-23-10.05-22 0-37.68 16.84-37.68 40.63s14.63 40.48 36.94 40.48c13.44 0 21-7.68 22.6-9.9v3.55c0 12-10.19 15.36-21.27 15.36a50.73 50.73 0 0 1-22-5.32l-6.2 15.66a62.11 62.11 0 0 0 28.36 7.1c22.76 0 41.52-9.31 41.52-38.12v-67.52h-19.27Zm-20.39 53c-11.52 0-19.79-9-19.79-22.61s8.12-22.46 19.65-22.46c12 0 19.94 9.31 19.94 22.46 0 13.78-7.98 22.65-19.8 22.65Z"/>
			<path class="cls-2" d="M244.52 182.51a23.81 23.81 0 0 0-20.39 10.93v-38.56h-20.39V261.7h20.39v-46.39c0-8.27 5.46-14.48 14-14.48 7 0 12.86 5.32 12.86 13.89v47h20.24v-44.68c.03-16.36-4.55-34.53-26.71-34.53Z"/>
			<path class="cls-2" d="M312.48 230.82v-29.84H327v-16.55h-14.52v-16.25h-20.09v16.25h-8.28v16.55h8.13v30.43c0 21 8.13 31.32 26.59 31.32a42 42 0 0 0 8.72-.73v-17.44a32.918 32.918 0 0 1-3.69.15c-7.86 0-11.38-2.36-11.38-13.89Z"/>
			<path class="cls-3" d="M363.31 195.66v-11.23h-19.95v77.27h20.39v-33.66c0-15.36 5.61-24.82 20.83-24.82v-20.71c-10.19 0-17.88 5.47-21.27 13.15Z"/>
			<path class="cls-3" d="M446.63 230.82c0 8.28-5.32 14.48-13.74 14.48-6.94 0-12.85-5.32-12.85-13.89v-47h-20.39v44.63c0 16.4 4.73 34.57 26.74 34.57 10.05 0 17.43-5.61 20.68-10.93v9H467v-77.25h-20.37Z"/>
			<path class="cls-3" d="M526 182.51c-10 0-17.43 5.61-20.68 10.93v-9h-19.98v77.27h20.38v-46.4c0-8.27 5.32-14.48 13.74-14.48 6.95 0 12.86 5.32 12.86 13.89v47h20.38v-44.68c0-16.36-4.7-34.53-26.7-34.53Z"/>
			<g class="cls-5" style="clip-path:url(#clip-path)">
				<g class="cls-5">
					<path class="cls-6" d="M284.243 160.275q-101.005 0-202.01.045c-1.798.001-2.205-.404-2.203-2.197q.084-78.083 0-156.165C80.028.321 80.352 0 81.993 0q186.434.074 372.869 0c1.64 0 1.978.319 1.965 1.959-.091 11.478-.048 22.958-.048 34.437a.522.522 0 0 1-.675 0c-2.696-3.567-6.543-5.787-10.04-8.388-2.43-1.808-4.488-3.723-5.47-6.689a7.941 7.941 0 0 0-5.801-5.499 32.683 32.683 0 0 1-3.783-1.482c-3.543-1.427-3.588-1.498-3.602-5.213-.005-1.273.016-2.547-.047-3.819-.896-3.684-2.949-4.845-6.739-3.631-8.16 2.614-16.256 5.424-24.398 8.092-2.383.88-4.884 1.39-7.246 2.332a101.145 101.145 0 0 1-7.237 2.407 41.393 41.393 0 0 0-5.732 1.898c-2.285.842-4.583 1.645-6.925 2.324a4.38 4.38 0 0 1-.76.108c-1.18.062-2.36.054-3.54.044-.686.033-1.37.014-2.057.01-.58.073-1.16-.005-1.741.033-14.127-1.064-28.273-.265-42.407-.487a24.34 24.34 0 0 1-3.093-.009c-1.28.025-2.562.046-3.843-.006-.982.02-1.964.042-2.946.014-1.116-.04-2.233.05-3.348-.014a52.322 52.322 0 0 1-3.336 0 62.833 62.833 0 0 1-3.696-.01c-1.06.007-2.121.006-3.18-.01-.259.003-.518-.004-.775-.01-.635 0-1.271-.009-1.907-.019a41.13 41.13 0 0 1-1.518.004c-.384.01-.768.01-1.152.01-.911.027-1.822.019-2.733.017-.93.034-1.86.026-2.789.007-.93.02-1.859.028-2.787-.005-.772.004-1.544.022-2.315-.018-1.561.11-3.061-.855-4.65-.258-.217.093-.44.17-.665.243a33.802 33.802 0 0 1-3.416.706c-.66.167-1.334.267-1.984.477-.652.167-1.314.293-1.96.49-.657.167-1.321.304-1.973.494a22.845 22.845 0 0 0-2.348.515c-1.216.448-2.506.587-3.75.916-.683.166-1.373.301-2.047.503-1.36.368-2.751.589-4.12.917-.671.17-1.36.264-2.02.484-.78.195-1.566.36-2.327.625-1.087.4-2.248.49-3.356.798-.658.165-1.33.268-1.978.472a22.108 22.108 0 0 0-2.29.48c-.21.082-.424.147-.64.209-1.072.364-2.21.44-3.293.755a20.271 20.271 0 0 0-1.967.505 16.153 16.153 0 0 1-2.333.618 13.82 13.82 0 0 0-2.36.424 29.232 29.232 0 0 0-3.303.876 9.2 9.2 0 0 1-2.292.655 15.191 15.191 0 0 0-1.629.353q-.811.182-1.61.412a16.091 16.091 0 0 1-1.985.278 17.424 17.424 0 0 0-2.549.667 10.994 10.994 0 0 1-1.576.55 16.65 16.65 0 0 0-1.96.416c-.768.193-1.54.37-2.305.573-.9.182-1.775.462-2.674.646a11.75 11.75 0 0 1-2.034.409 7.961 7.961 0 0 0-1.986.429c-1.078.401-2.23.485-3.33.793-.658.167-1.334.263-1.977.496-.549.173-1.096.352-1.646.525-1.463.485-3.01.555-4.496.927-.798.211-1.582.471-2.384.669-1.13.327-2.312.425-3.438.773-.914.255-1.81.57-2.745.748-1.275.337-2.544.695-3.848.908-1.293.232-2.552.61-3.828.914-1.17.261-2.326.582-3.488.882-1.315.292-2.608.671-3.921.97-2.25.334-4.401 1.113-6.641 1.497-2.763.243-5.292 1.458-8.003 1.92-3.982.452-7.923-.237-11.88-.408-11.903-1.095-23.842-1.764-35.755-2.767-6.51-.547-13.039-.929-19.555-1.45-2.848-.227-5.005 1.284-5.392 3.642-.361 2.199 1.07 4.174 3.827 5.02 11.674 3.577 23.402 6.977 35.107 10.452 7.038 2.089 14.07 4.197 21.11 6.279 3.098.943 6.221 1.806 9.3 2.812a17.864 17.864 0 0 0 5.872.462c3.343-.709 6.761-.977 10.093-1.747 2.094-.192 4.16-.578 6.225-.955 1.563-.094 3.089-.47 4.643-.62a17.357 17.357 0 0 1 3.41-.453c.998-.025 1.945-.365 2.927-.482a22.783 22.783 0 0 1 3.31-.552 12.055 12.055 0 0 1 3.341-.415 15.016 15.016 0 0 0 3.554-.714c.948-.208 1.928-.228 2.868-.488a19.745 19.745 0 0 1 2.528-.269 20.563 20.563 0 0 1 2.105-.375c.815-.037 1.596-.305 2.409-.36a6.856 6.856 0 0 1 1.692.274q.67.08 1.343.154a15.395 15.395 0 0 1 1.983.478c.224.05.443.115.661.182.998.334 2.068.157 3.074.43a10.033 10.033 0 0 0 2.773.27 9.265 9.265 0 0 1 2.07.369c.451.052.902.115 1.354.169a13.402 13.402 0 0 1 1.957.479c.214.052.424.12.632.19a7.543 7.543 0 0 0 2.258.286 5.47 5.47 0 0 1 .987.163 7.07 7.07 0 0 0 2.298.268 8.053 8.053 0 0 1 2.326.354c.214.051.425.117.634.183.208.058.412.131.616.204a9.112 9.112 0 0 0 2.206.331 4.843 4.843 0 0 1 .643.132 10.042 10.042 0 0 0 2.298.296 1.916 1.916 0 0 1 .954.39 1.326 1.326 0 0 1-.117 1.612c-.762.923-1.675 1.702-2.492 2.573a94.754 94.754 0 0 0-2.425 2.404q-.995.951-1.95 1.943-1 .962-1.957 1.964c-.82.815-1.66 1.61-2.411 2.492-2.318 3.386-1.876 5.262 1.846 7.788 1.074.537 2.265.772 3.347 1.287.49.23.975.472 1.462.708 1.145.586 2.362 1.018 3.498 1.625.605.245 1.21.488 1.8.768 1.37.71 2.871 1.122 4.229 1.86a32.393 32.393 0 0 0 3.309 1.404c.784.355 1.612.605 2.393.968a14.18 14.18 0 0 1 1.995.944 7.603 7.603 0 0 0 2.169 1.008 11.325 11.325 0 0 1 1.069.497c.343.171.685.347 1.034.507.354.15.717.278 1.081.402.65.237 1.26.561 1.899.826.188.07.37.153.554.236.748.32 1.53.554 2.27.896a16.889 16.889 0 0 1 1.983.899c.73.408 1.538.638 2.293.99a18.517 18.517 0 0 1 2.014.915c.735.415 1.556.639 2.307 1.02a12.079 12.079 0 0 0 2.338.951 15.053 15.053 0 0 1 2.898 1.375c.481.236.994.392 1.493.583 1.079.536 2.239.872 3.34 1.35a19.669 19.669 0 0 1 3.036 1.406c1.517.762 3.199 1.133 4.685 1.966 2.002 1.152 4.256 1.736 6.302 2.785a10.377 10.377 0 0 0 3.34 1.213c1.927.197 3.75-.16 4.766-1.962a4.617 4.617 0 0 0-.361-5.362 18.608 18.608 0 0 0-1.421-1.6c-1.482-1.772-2.84-3.645-4.38-5.37a37.262 37.262 0 0 0-3.336-3.865c-.541-.636-.938-1.384-1.54-1.975a33.628 33.628 0 0 1-2.317-2.793 17.726 17.726 0 0 1-1.47-1.92 14.671 14.671 0 0 0-1.404-1.495c-.357-.358-.718-.711-1.08-1.065a2.907 2.907 0 0 1-.89-1.32c.119-1.801 1.85-2.045 2.874-2.973 1.217-.708 2.254-1.672 3.434-2.433 1.397-1.004 2.959-1.756 4.307-2.833 1.606-1.127 3.263-2.178 4.863-3.313 1.627-.883 2.962-2.206 4.605-3.067 1.493-1.04 2.966-2.11 4.481-3.12 1.097-.656 2.139-1.395 3.204-2.098.976-.693 1.913-1.435 2.867-2.153a7.17 7.17 0 0 1 1.084-.733 5.021 5.021 0 0 1 2.149-.781 1.155 1.155 0 0 1 .592.29 1.22 1.22 0 0 1 .095.967c-.832 1.386-1.952 2.57-2.825 3.928-.834.958-1.541 2.014-2.328 3.009-.67.95-1.432 1.834-2.033 2.835-1.511 2.145-3.133 4.206-4.685 6.32-1.723 2.546-4.013 4.712-5.267 7.565-1.192 2.712-.265 4.706 2.53 5.78.62.065 1.24.107 1.858.2 4.785.64 9.66-.22 14.412.885.67.208 1.225.502.954 1.365-.589 1.383-1.728 2.4-2.472 3.683-.79 1.168-1.7 2.25-2.49 3.418a171.946 171.946 0 0 0-3.79 5.287c-2.427 3.334-4.787 6.716-7.221 10.045-6.994 9.372-13.684 18.962-20.517 28.45-2.536 3.52-2.058 5.68 1.567 8.428a.522.522 0 0 1-.046.626Z"/>
					<path class="cls-6" d="M456.779 38.787q0 59.738.051 119.477c.003 1.778-.433 2.055-2.106 2.053q-84.042-.076-168.085-.042a.486.486 0 0 1-.13-.407c.025-.143.054-.214.085-.215 10.356-7.551 20.269-15.671 30.3-23.64 3.266-2.51 6.533-5.02 9.719-7.633 4.08-3.087 8.064-6.296 12.021-9.54 4.394-3.254 8.623-6.719 12.923-10.094 8.439-6.748 17.058-13.269 25.39-20.151 4.031-2.867 7.869-5.989 11.671-9.14 3.523-2.918 3-6.323-1.093-8.502a2.85 2.85 0 0 1-.787-.533c-.165-1.258.91-1.527 1.662-2.004 2.723-1.73 5.547-3.295 8.26-5.04 1.773-1.05 3.503-2.17 5.31-3.162 2.143-1.1 3.832-3.051 6.382-3.39a3.977 3.977 0 0 1 .48-.027c11.638.335 23.254-.849 34.89-.509a4.97 4.97 0 0 0 5.106-3.101c2.357-4.781 4.655-9.594 7.2-14.283a.573.573 0 0 1 .75-.117Z"/>
					<path d="M456.779 38.787a1.28 1.28 0 0 1-.412.045 1.622 1.622 0 0 1-.03-2.464 2.093 2.093 0 0 0 .442.028Z" style="fill:#b0d5fe"/>
					<path d="M286.685 159.855a3.037 3.037 0 0 0-.046.42h-2.396a3.033 3.033 0 0 0-.045-.42 1.635 1.635 0 0 1 2.487 0Z" style="fill:#a7cffe"/>
					<path d="m456.336 36.368.031 2.464c-1.08 3.856-3.228 7.234-4.965 10.782-4.151 8.48-2.678 7.456-12.129 7.498q-15.654.07-31.308.12c.152-.677.726-.741 1.26-.868 4.386-.19 8.776-.022 13.164-.097 2.23-.038 2.301-.228 1.93-2.364-1.634-9.393-4.091-18.647-4.916-28.177-.399-4.61-.651-9.231 1.566-13.566 1.3-2.538 3.423-4.383 5.299-6.437.429-.469.97-.873 1.676-.416.026.395.07.79.076 1.186.08 6.008-.015 6.301 5.745 8.134a11.487 11.487 0 0 1 8.19 8.07 6.447 6.447 0 0 0 2.577 3.306c3.256 2.404 6.437 4.91 9.67 7.344a4.765 4.765 0 0 1 2.134 3.021Z" style="fill:#51a2fe"/>
					<path d="M427.944 5.307c-4.301 3.54-7.798 7.516-8.092 13.497a68.46 68.46 0 0 0 1.234 14.152 319.701 319.701 0 0 0 4.428 22.448c.336 1.438-.548 1.569-1.638 1.562-5.018-.033-10.035-.042-15.053-.06-1.827-1.653-1.552-3.928-1.552-5.99a115.09 115.09 0 0 0-.983-16.89c-.616-4.178-1.803-8.23-2.462-12.399-.322-2.037-2.097-3.34-3.398-4.814a47.2 47.2 0 0 1-3.93-5.4 2.521 2.521 0 0 1-.574-2.226c8.446-2.816 16.88-5.667 25.343-8.434 3.549-1.16 7.046 1.41 6.677 4.554Z" style="fill:#509ffe"/>
					<path d="M141.424 68.416c-7.307-2.104-14.624-4.168-21.917-6.319q-17.449-5.146-34.87-10.386c-2.843-.85-4.408-3.053-4.055-5.626.378-2.753 2.46-4.435 5.568-4.416 1.347.009 2.694.133 4.039.235q23.488 1.781 46.976 3.574c1.58.121 3.158.27 4.737.405a6.776 6.776 0 0 1-1.22 7.68c-1.946 2.255-2.002 2.28-.3 4.811a11.96 11.96 0 0 1 2.138 7.858c-.07.87-.096 1.773-1.096 2.184Z"/>
					<path d="M377.207 88.951c-3.752 3.682-8.108 6.628-12.18 9.918-4.328 3.497-8.789 6.83-13.191 10.234-1 .687-1.983.245-2.967-.047a67.553 67.553 0 0 1-7.73-3.11 4.802 4.802 0 0 0-4.356-.049 10.379 10.379 0 0 1-5.083 1.005c-2.542-.044-5.093.125-7.625-.055-2.855-.204-5.654-.743-7.733-3.016a14.238 14.238 0 0 1 2.401-3.358c5.108 1.945 9.956.03 14.723-1.283 6.205-1.71 12.01-4.728 18.408-5.9a4.048 4.048 0 0 0 2.673-2.222c4.313-7.254 8.621-14.514 11.905-22.311 1.561-3.708 2.003-7.677 2.363-11.64a183.051 183.051 0 0 0 1.077-22.35c-.148-4.715-1.33-9.285-1.557-13.973-.04-.853-.418-1.737.259-2.516l.476-.072c1.096.487 1.297 1.56 1.603 2.529.984 3.112 1.832 6.265 2.62 9.429.809 3.252.088 6.528-.434 9.713-.722 4.407-.883 8.662.752 12.907a19.8 19.8 0 0 1-.272 15.768c-1.925 4.28-1.435 8.282.95 12.223 1.028 1.7 1.589 3.644 2.464 5.433a3.38 3.38 0 0 1 .454 2.743Z" style="fill:#4b96fe"/>
					<path d="M377.207 88.951c-1.872-4.202-3.724-8.413-5.631-12.6a3.618 3.618 0 0 1-.268-2.952c.558-1.559.658-3.304 1.343-4.79 2.55-5.537 2.134-11.074.105-16.562a17.781 17.781 0 0 1-.747-10.953c2.148-8.066-.314-15.472-2.94-22.888l6.715-2.32a2.706 2.706 0 0 1 1.124 2.253c.732 5.506 2.496 10.842 2.6 16.459a17.502 17.502 0 0 0 1.354 5.051 32.59 32.59 0 0 1 1.597 14.562 7.209 7.209 0 0 0 .217 2.828 208.05 208.05 0 0 1 2.316 9.494 8.081 8.081 0 0 0 1.83 3.817 4.744 4.744 0 0 1 4.433 3.359 4.433 4.433 0 0 1-1.148 5.23 127.97 127.97 0 0 1-12.9 10.012Z" style="fill:#4c97fd"/>
					<path d="M368.594 18.278c1.3 8.377 2.413 16.775 1.905 25.281-.474 7.924-.654 15.902-2.856 23.604a53.783 53.783 0 0 1-4.835 10.845c-2.395 4.385-5 8.655-7.425 13.024a5.415 5.415 0 0 1-4.055 3.19c-5.047.794-9.71 2.82-14.465 4.583a45.57 45.57 0 0 1-14.82 3.117c-1.325.03-2.551-.168-3.3-1.45-.062-.333.582-.653.019-.996-.051-1.716 1.356-2.196 2.497-2.834 3.412-1.911 7.113-3.212 10.617-4.935 4.863-2.39 9.782-4.664 14.67-7.001a8.113 8.113 0 0 0 3.266-2.726c3.386-4.921 6.916-9.743 10.677-14.377a12.843 12.843 0 0 0 2.649-8.206 62.443 62.443 0 0 1 1.584-12.268c1.933-8.53 2.844-17.097-.021-25.652-.339-1.01-.823-2.137.058-3.177Z" style="fill:#4b94fd"/>
					<path d="M286.685 159.855h-2.487c-3.558-1.416-4.985-4.614-2.9-7.563 7.086-10.02 14.369-19.9 21.576-29.833 1.705-.216 2.223 1.374 3.066 2.235 3.303 3.372 7.296 6.034 10.152 9.86a4.124 4.124 0 0 1 1.102 1.781c-4.096 3.832-8.707 7.029-13.067 10.535-4.808 3.868-9.671 7.67-14.539 11.464a5.414 5.414 0 0 1-2.903 1.52Z" style="fill:#4f9ffe"/>
					<path d="M364.76 18.3c.651 4.46 1.958 8.788 2.543 13.276.392 3.008-.363 5.826-.798 8.651-1.205 7.806-2.82 15.545-3.208 23.466-.126 2.562-2.198 4.212-3.62 6.005a104.171 104.171 0 0 0-7.9 10.714c-2.26 3.756-5.751 5.337-9.339 7.026q-10.684 5.03-21.398 9.996a5.285 5.285 0 0 0-2.278 2.042c-5.112-.365-10.26-.034-15.349-.832-.907-2.36-.306-4.35 1.897-5.366 3.69-1.702 7.46-3.232 11.143-4.955a7.261 7.261 0 0 1 4.01-.404c8.821 1.1 15.753-3.022 22.75-7.584 6.17-4.023 9.78-10.135 14.251-15.561 1.435-1.741 1.08-4.12 1.299-6.221.489-4.69 1.139-9.316 3.146-13.645a3.73 3.73 0 0 0 .413-1.845c-.29-4.07.366-8.079.768-12.104.256-2.566-.45-5.05-.687-7.575-.162-1.72-.657-3.472.44-5.084Z" style="fill:#4a93fc"/>
					<path d="M395.924 9.187a48.565 48.565 0 0 0 7.027 9.538 7.183 7.183 0 0 1 1.751 3.478c1.989 9.534 3.732 19.08 3.209 28.891a18.297 18.297 0 0 0 .912 5.813l-.859.326-5.824 3.452a80.826 80.826 0 0 1-4.732-11.9c-2.018-6.93-2.466-14.084-2.623-21.251-.086-3.882-2.34-6.872-3.94-10.132-.593-1.21-1.358-2.343-1.912-3.58-.32-.713-.774-1.437-.21-2.242Z" style="fill:#4f9dfe"/>
					<path class="cls-17" d="M388.723 11.58c1.279 3.796 3.758 6.986 5.378 10.617a14.017 14.017 0 0 1 1.364 5.718 81.143 81.143 0 0 0 2.897 22.05c.95 3.26 2.921 6.168 3.61 9.546.078.387.113.783.168 1.174a29.462 29.462 0 0 1-5.167 3.03c-1.263.112-1.572-.974-1.976-1.74-1.893-3.594-3.97-7.084-6.174-10.484-1.83-2.823-1.034-5.817-.6-8.582a9.313 9.313 0 0 0-2.683-8.258c-2.549-2.738-3.217-5.975-3.184-9.445.03-2.985-.93-5.805-1.14-8.74-.061-.862-.382-1.736.318-2.494Z"/>
					<path d="M381.534 13.972c.855 5.367 1.539 10.754 1.945 16.176.093 1.237 1.064 2.072 1.761 3.024 1.074 1.465 2.145 2.937 3.123 4.467 1.776 2.774.175 5.729.155 8.565-.012 1.811-.043 3.392.88 4.931q3.78 6.294 7.575 12.58c-2.575 2.074-5.6 3.437-8.343 5.244-.635.418-1.472.583-1.807 1.39-1.29.113-1.737-.524-2.02-1.759-.957-4.157-2.045-8.285-3.158-12.403-.361-1.337.38-2.476.393-3.746.043-4.308-.209-8.593-1.893-12.594-1.862-4.422-1.231-9.217-2.4-13.74-.866-3.353-1.322-6.81-1.961-10.22a24.512 24.512 0 0 1 5.75-1.915Z" style="fill:#4d9afe"/>
					<path d="M311.12 75.208a11.281 11.281 0 0 1 2.24-2.982c2.2-.725 4.42-.164 6.576.114a5.07 5.07 0 0 0 4.908-1.708c2.654-3.064 5.34-6.101 7.877-9.268 1.687-2.105 2.358-4.665 3.409-7.056 3.174-7.219 5.894-14.576 7.078-22.428.49-3.25.15-6.507.31-9.756.074-1.47-.144-3.07 1.321-4.111 1.77-.041 3.537-.036 5.304-.004 1.195.78 1.18 2.103 1.12 3.214a158.325 158.325 0 0 1-1.273 16.653c-.886 5.546-3.308 10.449-5.668 15.411a13.765 13.765 0 0 0-1.292 2.82c-1.037 4.764-3.807 8.5-6.838 12.157a20.093 20.093 0 0 1-5.242 4.814 5.48 5.48 0 0 0-1.57 1.084c-2.712 3.37-6.364 3.475-10.203 3.053-1.981-.218-3.955-.494-5.955-.56-.912-.031-1.97-.15-2.101-1.447Z" style="fill:#468bf9"/>
					<path d="M301.496 98.518c-3.135-.942-4.352-4.801-1.773-8.37 1.47-2.035 3.09-3.96 4.644-5.935a5.427 5.427 0 0 0 4.787-.385 14.598 14.598 0 0 1 7.616-1.68c3.109.127 6.178-.66 9.298-.526a2.827 2.827 0 0 0 1.601-.44c5.254-3.31 10.698-6.33 15.611-10.156 1.325-1.032 2.172-2.543 3.462-3.623 4.193-3.125 6.314-7.662 8.333-12.25 1.087-2.47 2.219-4.921 3.264-7.41a20.466 20.466 0 0 0 1.936-9.474 44.662 44.662 0 0 1 .486-6.16c.165-2.522.686-5.029.077-7.57a2.256 2.256 0 0 1 .474-2.022c1.354 0 1.053 1.145 1.253 1.882.91 3.36.386 6.743.193 10.142-.44 7.794-2.839 15.069-5.034 22.49-1.73 5.85-4.725 10.893-7.314 16.24-2.26 4.669-6.6 6.724-10.604 9.245-1.612 1.014-3.428 1.708-5.065 2.695-3.906 2.358-8.212 2.916-12.637 2.813a17.955 17.955 0 0 0-8.563 1.685 35.101 35.101 0 0 1-6.285 2.276c-2.784.746-4.735 2.23-5.114 5.276a2.23 2.23 0 0 1-.646 1.257Z" style="fill:#4991fc"/>
					<path d="M311.56 17.822h3.833c.987 1.193.506 2.564.52 3.896.116 12.128-4.673 22.986-8.83 34a56.109 56.109 0 0 1-4.199 9.632 4.934 4.934 0 0 0-.414 3.013c.151 2.678.497 5.365-.025 8.043a27.407 27.407 0 0 1-4.666 3.083 4.674 4.674 0 0 1-3.027.053c-5.247-.978-10.228-.72-14.566 2.877a3.653 3.653 0 0 1-1.484.72 1.586 1.586 0 0 1-1.873-1.03c-.105-1.467 1.086-1.975 2.022-2.632a35.866 35.866 0 0 0 6.285-4.931c1.972-2.118 4.563-1.989 7.135-1.982 3.698.009 4.084-.275 3.687-3.942a8.532 8.532 0 0 1 1.754-6.245 29.662 29.662 0 0 0 4.307-8.763 46.044 46.044 0 0 1 2.263-5.79c4.085-8.816 5.537-18.247 6.619-27.77a3.338 3.338 0 0 1 .66-2.232Z" style="fill:#3972eb"/>
					<path d="M344.621 18.296a23.28 23.28 0 0 0-.459 6.852c.178 8.475-1.92 16.46-5.304 24.133-1.661 3.766-2.593 7.862-4.865 11.336-2.562 3.918-5.915 7.22-8.93 10.781a4.569 4.569 0 0 1-5.115 1.576c-2.108-.606-4.435-.054-6.589-.748a14.649 14.649 0 0 1 2.874-3.827c.2-.128.444-.356.628-.303 3.951 1.127 5.737-1.57 7.567-4.219.584-.844 1.221-1.652 1.77-2.523 4.866-6.47 7.599-13.863 9.377-21.657a63.703 63.703 0 0 1 1.884-7.624c.914-2.526.658-5.168.813-7.779.127-2.14-.24-4.446 1.36-6.292 1.663.137 3.36-.35 4.99.294Z" style="fill:#4488f8"/>
					<path d="M141.424 68.416a10.564 10.564 0 0 0-2.112-10.392c-1.263-1.562-1.641-2.846.175-4.148 2.86-2.052 2.416-5.087 2.415-7.993 4.162-.025 8.288.783 12.46.541 1.423 1.113 1.193 2.64.611 3.918-2.064 4.536-1.188 8.706.812 13.041a12.884 12.884 0 0 1 .972 8.327c-2.687.864-5.18-.066-7.682-.847-2.556-.798-5.101-1.63-7.651-2.447Z" style="fill:#000002"/>
					<path d="M347.027 67.963c-4.14 5.214-10.308 7.729-15.404 11.65-4.234 3.26-8.954 2.77-13.555 3.066-3.56.228-6.942.547-10.045 2.369a2.411 2.411 0 0 1-3.656-.835l4.734-6.228a2.891 2.891 0 0 1 2.3-.206c3.692.483 7.43.416 11.12.93a7.026 7.026 0 0 0 5.764-1.53 44.737 44.737 0 0 1 6.527-3.879 18.12 18.12 0 0 0 6.843-5.776 29.695 29.695 0 0 0 6.587-14.533c.308-2.12 1.634-3.799 2.658-5.562a29.254 29.254 0 0 0 3.626-12.956c.318-4.5 1.258-8.965.523-13.518a2.934 2.934 0 0 1 .679-2.894c1.611-.363 1.835.671 2.03 1.892a49.987 49.987 0 0 1 .048 12.37 93.465 93.465 0 0 1-4.557 23.127c-1.56 4.402-2.873 8.976-6.222 12.513Z" style="fill:#4890fb"/>
					<path d="M316.342 103.831c5.55 3.293 11.685 2.278 17.667 2.382a1.2 1.2 0 0 0 .694-.125c3.823-2.9 7.152-.55 10.59.935a24.957 24.957 0 0 0 6.543 2.08q-6.214 5.377-12.908 10.146c-4.56-2.09-9.213-3.978-13.774-6.064-3.127-1.43-6.42-2.405-9.564-3.768-.95-.412-2.315-.684-1.663-2.312l2.415-3.274Z" style="fill:#4c98fe"/>
					<path class="cls-26" d="M335.045 73.703c-2.512 2.06-5.684 3.081-8.132 5.311-1.197 1.09-3.086.463-4.636.379-3.626-.197-7.243-.577-10.859-.924a20.507 20.507 0 0 1-2.317-.484c.206-1.264 1.299-1.886 2.02-2.777 2.567 1.64 5.558.67 8.297 1.325 1.366.327 2.827-.068 4.263.277a2.884 2.884 0 0 0 2.782-1.018c1.556-1.754 3.772-2.666 5.45-4.193 4.03-3.665 7.862-7.565 9.506-12.986 1.273-4.198 3.524-7.956 5.29-11.93 1.927-4.342 2.527-8.921 3.252-13.534.595-3.78.067-7.589.712-11.353a13.75 13.75 0 0 0-.297-3.503c.733-.569 1.551-.25 2.341-.224a5.068 5.068 0 0 1 1.155 3.769c.097 9.979-.593 19.831-4.779 29.124a16.222 16.222 0 0 0-1.19 4.35c-.778 5.434-4.056 9.503-7.33 13.603a18.404 18.404 0 0 1-5.528 4.788Z"/>
					<path class="cls-17" d="M317.194 136.335c-1.444-1.022-2.258-2.67-3.541-3.777-3.735-3.223-7.145-6.778-10.779-10.099 2.267-3.445 4.639-6.814 7.237-10.02a1.205 1.205 0 0 1 1.303.334 116.314 116.314 0 0 1 15.048 14.509c.362.414.743.856.465 1.485a94.994 94.994 0 0 1-9.733 7.568Z"/>
					<path d="M302.445 76.406c-.225-4.607-1.535-9.024 1.01-13.751 2.912-5.405 4.452-11.53 6.789-17.262a70.505 70.505 0 0 0 4.268-15.03c.687-4.115.616-8.356.881-12.542a7.14 7.14 0 0 1 2.92.104c.594.169 1.362-.164 1.751.602-.127 5.779-.028 11.533-1.467 17.253-2.09 8.306-5.515 16.107-8.54 24.057-1.396 3.672-3.032 7.189-2.637 11.246a3.16 3.16 0 0 1-.606 2.26 22.032 22.032 0 0 1-4.37 3.063Z" style="fill:#3b76ee"/>
					<path d="M326.927 128.767c-4.266-4.549-8.048-9.574-13.27-13.179a37.32 37.32 0 0 1-3.546-3.149 30.28 30.28 0 0 1 3.816-5.334c.027 1.108.825 1.357 1.7 1.67 7.177 2.57 14.126 5.69 21.07 8.82.847.381 1.84.632 2.231 1.654-3.823 3.395-7.89 6.484-12.001 9.518Z" style="fill:#4d99fe"/>
					<path d="M156.757 71.71a48.68 48.68 0 0 0-3.613-13.6c-.845-2.083-.086-4.36.755-6.446.684-1.7 1.208-3.414.463-5.24a29.866 29.866 0 0 1 7.668-1.87 4.766 4.766 0 0 1 1.038 2.35c1.716 6.671 2.692 13.481 3.842 20.258a4.352 4.352 0 0 1-.077 2.793c-3.279 1.041-6.702 1.256-10.076 1.755Z" style="fill:#000007"/>
					<path d="M311.56 17.822a73.237 73.237 0 0 1-3.035 19.647c-2.815 9.322-5.804 18.626-11.317 26.82-1.298 1.929-.376 3.843-.465 5.752-.15 3.172-.045 3.163-3.229 3.188-2.909.023-5.956-.524-8.312 1.909-1.932.66-3.463 2.492-5.798 1.971-.234-1.09.58-1.597 1.27-2.082a69.86 69.86 0 0 0 7.118-6.345c.234-.217-.089.014.173-.163 5.75-3.885 8.123-10.132 10.916-15.977a96.613 96.613 0 0 0 8.723-32.761c.077-.803.154-1.609 1.067-1.959Z" style="fill:#376fe8"/>
					<path d="M319.7 18.31c-.472-.092-1.007.038-1.387-.386 14.364.133 28.733-.459 43.09.377a3.41 3.41 0 0 1 .002 4.224c1.088 6.254-.671 12.426-.556 18.666.058 3.19-1.49 6.149-2.87 8.995-2.845 5.877-4.563 12.425-9.835 16.898-.361.306-.744.587-1.117.88.058-1.283 1.04-2.107 1.579-3.15a77.192 77.192 0 0 0 7.035-21.25 120.012 120.012 0 0 0 1.894-18.318c.067-1.956-.322-3.924-.442-5.89-.061-1.002-.629-1.164-1.444-1.07a2.268 2.268 0 0 1-2.872 0l-2.401.006-5.754.004h-5.272c-.961.734-2.085.577-3.18.586-.405-.004-.811.043-1.217.01-1.205-.017-2.412.027-3.617-.012-.539 0-1.077.045-1.615.012-.817-.019-1.633.032-2.45-.006a49.29 49.29 0 0 1-3.353.012c-1.429-.034-2.912.322-4.218-.588Z" style="fill:#4991fb"/>
					<path d="m319.7 18.31 4.311-.003c.732 2.775-.352 5.462-.463 8.2a89.07 89.07 0 0 1-1.855 12.464 26.749 26.749 0 0 1-2.473 7.418c-2.687 5.24-4.254 10.947-6.955 16.182a11.381 11.381 0 0 0-1.566 6.866 2.382 2.382 0 0 1-.578 1.77 13.933 13.933 0 0 1-3.307 2.136c-1.154-6.431 1.94-11.863 4.122-17.514 3.16-8.179 6.41-16.329 8.145-24.97a5.048 5.048 0 0 0 .136-.937 78.721 78.721 0 0 1 .483-11.612Z" style="fill:#3d7af0"/>
					<path d="m361.405 22.525-.001-4.224 1.439-.001a53.93 53.93 0 0 0 .863 9.68c.475 3.238-.58 6.452-.581 9.702 0 .227-.223.465-.195.68.795 6.18-2.803 11.53-3.302 17.46a32.614 32.614 0 0 0-.276 4.267c.2 4.159-2.629 6.77-4.831 9.693-1.716 2.277-3.57 4.448-5.315 6.703-1.711 2.21-4.388 3.098-6.468 4.817-3.782 3.124-8.315 4.951-12.774 6.865-1.828.784-3.818.498-5.673.305a22.854 22.854 0 0 0-13.27 2.939 20.035 20.035 0 0 1-3.93 1.71c-2.911.797-3.903 2.72-3.678 5.522a3.24 3.24 0 0 1-1.917-.125c.105-4.29 1.105-5.646 5.056-6.993 2.78-.947 5.527-1.994 8.32-2.904a12.336 12.336 0 0 1 4.871-1.032c8.143.73 14.8-3.089 21.74-6.526 5.325-2.637 7.873-7.166 10.441-11.91a92.385 92.385 0 0 0 9.81-30.322c.758-4.98 1.644-10.17.138-15.263a8.297 8.297 0 0 0-.467-1.043Z" style="fill:#4993fc"/>
					<path d="M308.671 17.822c-.465 2.955-.96 5.906-1.391 8.866a95.818 95.818 0 0 1-6.636 23.476 70.444 70.444 0 0 1-6.949 12.987 16.387 16.387 0 0 0-1.331 2.787c-.255.576-.367 1.396-1.082 1.444-2.299.156-3.41 2.02-4.709 3.39-2.199 2.318-4.998 3.911-7.123 6.28a7.819 7.819 0 0 1-4.56 2.745c-.744-.167-1.59.239-2.257-.39-.017-1.325 1.028-1.908 1.874-2.593 1.676-1.356 3.485-2.533 5.27-3.741 3.3-1.68 5.561-4.523 7.826-7.27 3.948-4.788 7.715-9.666 9.628-15.785 1.824-5.837 4.097-11.528 5.637-17.47 1.067-4.114 1.052-8.353 1.818-12.494.143-.773.01-1.606.644-2.232Z" style="fill:#366ce6"/>
					<path d="m331.204 18.303 3.805-.008c.605 1.523-.034 2.982-.272 4.446-.982 6.04-2.055 12.065-3.05 18.102-.38 2.304-1.525 4.344-2.242 6.526-2.194 6.678-6.045 12.39-10.202 17.936-.686.914-1.2 2.145-2.681 2.077l-.692-.052c-.963-1.087-.518-2.244-.122-3.367a35.659 35.659 0 0 1 3.614-7.525c6.403-9.897 8.931-20.982 10.297-32.46.232-1.946.273-3.99 1.545-5.675Z" style="fill:#4182f4"/>
					<path d="M298.14 17.821h3.834a2.526 2.526 0 0 1 .588 1.994 77.109 77.109 0 0 1-4.342 22.593c-.697 2.112-1.558 4.18-2.128 6.325-1.724 6.484-5.842 11.585-9.608 16.895a2.876 2.876 0 0 1-.905.766 25.192 25.192 0 0 0-3.578 1.82 2.322 2.322 0 0 1-2.438.406c-.513-.657.072-1.013.432-1.365a23.93 23.93 0 0 0 3.906-5.608 2.962 2.962 0 0 1 .379-.609c5.495-5.933 7.852-13.46 10.04-20.901 1.688-5.746 3.22-11.669 2.723-17.835-.126-1.556-.222-3.223 1.097-4.48Z" style="fill:#3366e2"/>
					<path d="M166.833 69.955c-.747-4.08-1.476-8.165-2.247-12.24-.831-4.391-1.702-8.775-2.556-13.161a32.237 32.237 0 0 1 6.71-1.54c1.476 2.108 1.53 4.639 1.896 7.017.828 5.393 1.753 10.77 2.52 16.172a4.543 4.543 0 0 1-.092 2.795 17.485 17.485 0 0 1-6.23.957Z" style="fill:#00000c"/>
					<path d="M285.202 66.05c3.665-4.773 7.495-9.443 9.51-15.243 2.238-6.442 4.272-12.947 5.989-19.546a15.822 15.822 0 0 0 .725-4.425c-.107-3.035.583-6 .548-9.014h3.356a98.944 98.944 0 0 1-2.482 17.09c-1.581 6.263-4.13 12.146-6.138 18.232-1.617 4.9-5.061 8.79-8.284 12.685-2.452 2.963-4.833 6.15-8.496 7.874-.738-1.448.263-2.443.916-3.531 1.517-1.303 2.561-3.108 4.356-4.122Z" style="fill:#3469e4"/>
					<path d="M310.12 71.207c-.718-4.24.971-7.884 2.712-11.58 2.704-5.74 5.129-11.626 7.417-17.524 1.511-3.895 1.643-8.33 2.324-12.535.606-3.737.407-7.578 1.438-11.261l3.356-.002c.495.547.294 1.196.269 1.82a102.713 102.713 0 0 1-3.49 21.589c-.996 3.858-3.445 7.147-4.9 10.854q-2.221 5.656-4.846 11.146c-.81 1.694-.421 3.643-1.38 5.26a10.595 10.595 0 0 1-2.9 2.233Z" style="fill:#3e7df1"/>
					<path class="cls-40" d="M316.562 67.382c3.082-2.808 5.165-6.43 7.295-9.876a54.967 54.967 0 0 0 7.864-20.622c.956-6.218 2.182-12.395 3.288-18.59l.995.003c.766.823.506 1.775.336 2.71-.314 1.72-.718 3.424-.986 5.15a5.05 5.05 0 0 0 .31 3.494 5.185 5.185 0 0 1 .437 3.702c-.414 2.509-.451 5.055-.856 7.565a12.615 12.615 0 0 1-3.739 7.532 9.332 9.332 0 0 0-3.083 6.011c-.253 2.61-1.25 4.885-2.005 7.285a21.957 21.957 0 0 1-4.947 6.558c-1.646 1.476-3.485.16-5.238.095l.329-1.017Z"/>
					<path d="M227.248 90.43a5.048 5.048 0 0 1-1.962-8.612c2.593 1.88 5.186 1.139 8.093.564 7.725-1.526 13.157-6.137 18.33-11.63a57.156 57.156 0 0 0 6.8-9.683 11.23 11.23 0 0 1 2.136-2.847 43.464 43.464 0 0 0 7.908-15.287c2.332-7.521 2.315-15.15 1.944-22.851a2.231 2.231 0 0 1 .209-1.382c1.324-.576 1.606.421 1.62 1.273.102 6.624 1.139 13.201-.853 19.855-1.502 5.02-2.607 10.1-5.155 14.768a51.668 51.668 0 0 1-4.12 5.811 23.204 23.204 0 0 0-2.812 4.403 12.443 12.443 0 0 1-2.06 3.32 14.402 14.402 0 0 0-2.639 3.027c-2.83 3.127-6.043 5.89-8.673 9.209a7.59 7.59 0 0 1-4.074 2.356 49.564 49.564 0 0 0-8.235 3.188 9.605 9.605 0 0 0-4.38 3.545c-.417.699-.961 1.56-2.077.973Z" style="fill:#2245c4"/>
					<path d="M298.14 17.821a15.802 15.802 0 0 0-.439 3.506c.58 6.038-.788 11.868-2.341 17.545-2.295 8.387-5.112 16.662-11.117 23.352-1.211.902-2.002 2.28-3.375 2.994-.647.337-1.285 1.15-2.032.133.694-2.415 2.284-4.333 3.63-6.37a57.763 57.763 0 0 0 6.225-11.153c2.539-6.636 4.574-13.304 5.06-20.436.173-2.528.418-5.048.413-7.585a2.573 2.573 0 0 1 .622-1.986Z" style="fill:#3162df"/>
					<path d="M256.44 22.032a2.569 2.569 0 0 1 1.897-.476c1.53-.03 1.626 1.16 1.528 2.122-.573 5.62-.036 11.256-.331 16.87-.216 4.106-2.235 7.74-3.605 11.536-3.439 7.8-8.989 13.973-15.136 19.717-1.66 1.55-3.692 1.73-5.684 2.18a1.106 1.106 0 0 1-1.305-.802 9.648 9.648 0 0 1 2.393-2.388 109.31 109.31 0 0 0 10.533-9.67c1.728-1.89 2.444-4.449 3.693-6.666 3.488-6.185 5.73-12.655 5.525-19.962-.095-3.385.39-6.806-.062-10.218a2.59 2.59 0 0 1 .555-2.243Z" style="fill:#1831af"/>
					<path d="M284.242 17.822h2.875c1.253 2.155.8 4.522.517 6.729a107.1 107.1 0 0 1-6.625 26.217 18.528 18.528 0 0 1-2.821 5.208c-2.873 2.767-4.614 6.386-7.114 9.454-2.868 3.52-6.225 6.52-9.365 9.75a1.527 1.527 0 0 1-1.905.535c-.374-1.18.585-1.727 1.218-2.344a84.353 84.353 0 0 0 9.485-11.19 16.98 16.98 0 0 0 2.408-4.326c4.69-6.456 6.72-14.04 8.736-21.531a63.745 63.745 0 0 0 1.942-15.323c.02-1.091-.204-2.25.649-3.179Z" style="fill:#2a55d4"/>
					<path d="M256.44 22.032c.602 5.283.147 10.566.018 15.85a29.368 29.368 0 0 1-3.953 13.73 40.651 40.651 0 0 0-2.471 4.85 19.71 19.71 0 0 1-5.506 7.87c-2.035 1.769-3.98 3.64-5.98 5.45a3.351 3.351 0 0 1-2.35 1.009l.549-1.281c-.34-.84.263-1.336.713-1.866a15.652 15.652 0 0 1 1.768-1.594c3.366-2.92 6.35-5.941 8.006-10.388 1.928-5.179 4.946-9.934 5.772-15.558.698-4.753.298-9.507.337-14.26.009-1.1-.811-1.874-1.175-2.829a15.235 15.235 0 0 1 4.273-.983Z" style="fill:#162caa"/>
					<path d="M173.064 68.998c-.796-4.475-1.813-8.925-2.322-13.433-.478-4.224-1.567-8.333-2.001-12.552a10.624 10.624 0 0 1 3.834-.956 2.987 2.987 0 0 1 .97 1.867c1.099 7.074 3.398 13.896 4.4 20.987.161 1.136.734 2.327-.1 3.451a14.787 14.787 0 0 1-4.781.636Z" style="fill:#000010"/>
					<path d="M252.168 23.015c1.441.171 1.833 1.313 1.837 2.41.026 7.354.657 14.762-2.23 21.845-1.767 4.334-3.97 8.465-5.767 12.794-1.086 2.616-3.912 4.53-6.283 6.414a11.87 11.87 0 0 0-2.978 3.032l-.91-.193c-.596-.815-.076-1.517.256-2.213a5.517 5.517 0 0 1 1.941-2.39c5.23-3.222 6.902-8.686 9.034-13.906a57.24 57.24 0 0 0 3.692-14.017c.497-3.636-.382-7.125-.412-10.687a11.18 11.18 0 0 1-.1-2.608 2.875 2.875 0 0 1 1.92-.481Z" style="fill:#1428a6"/>
					<path d="M259.801 75.616c.922.012 1.392-.694 1.956-1.239 5.269-5.096 10.402-10.3 14.061-16.75a8.085 8.085 0 0 1 1.715-1.621c.607.84-.051 1.466-.375 2.139-1.325 2.748-2.962 5.326-4.396 8.014a53.194 53.194 0 0 1-5.604 6.479c-4.78 4.675-9.36 9.54-13.907 14.433-2.344 2.524-3.779 5.69-5.712 8.505-.68.991-1.054 2.343-2.565 2.504a7.875 7.875 0 0 1-3.345-1.432c3.447-3.784 5.612-8.504 9.059-12.3 2.303-2.535 4.768-4.922 6.947-7.574.514-.626 1.083-1.454 2.166-1.158Z" style="fill:#2c58d3"/>
					<path d="m272.261 66.05 5.272-10.044a46.26 46.26 0 0 0 4.434-9.917 117.785 117.785 0 0 0 4.861-20.454c.441-2.618.13-5.213.289-7.813h2.876a3.412 3.412 0 0 1 .592 2.935c-.754 7.895-1.838 15.67-4.769 23.185-2.08 5.335-3.915 10.71-7.255 15.425-1.716 1.598-2.562 3.826-4.043 5.591-.569.678-1.017 1.74-2.257 1.092Z" style="fill:#2c58d7"/>
					<path d="M250.249 23.496c1.07.627.61 1.747.723 2.603 1.002 7.633.72 15.128-2.433 22.342-1.462 3.343-2.657 6.803-3.944 10.22-.921 2.444-3.004 3.867-4.882 5.405-1.772 1.452-3.322 2.955-3.877 5.251a4.954 4.954 0 0 1-2.358-.408 1.808 1.808 0 0 1 .414-.606 29.956 29.956 0 0 1 6.705-8.623c1.673-1.442 1.96-3.597 2.87-5.434 2.477-4.996 3.443-10.354 4.314-15.814.658-4.124-.033-8.084-.217-12.115-.035-.776-.39-1.58.254-2.278a5.782 5.782 0 0 1 2.43-.543Z" style="fill:#1124a0"/>
					<path d="M259.801 75.616c-5.572 5.43-10.855 11.094-14.938 17.78-.79 1.294-1.372 2.953-3.234 3.252a15.039 15.039 0 0 1-4.383-1.889 3.034 3.034 0 0 1 1.533-1.453c3.663-1.517 5.62-4.671 7.919-7.63a99.602 99.602 0 0 1 11.704-12.53c3.906-3.55 7.067-7.716 10.383-11.764a5.757 5.757 0 0 1 1.283-1.396c1.167-.296 1.72-1.814 3.152-1.589-1.19 3.616-3.827 6.295-6.126 9.153-2.267 2.82-4.849 5.388-7.293 8.066Z" style="fill:#2953cf"/>
					<path d="M272.261 66.05c1.712-.44 2.17-2.065 3.052-3.27.861-1.175 1.326-2.652 2.7-3.426a1.206 1.206 0 0 1 .38.956 34.87 34.87 0 0 1-2.29 5.386c-1.347 2.548-3.744 4.2-5.481 6.418-5.646 5.337-10.816 11.131-16 16.897-2.206 2.453-3.702 5.516-5.474 8.332-.445.708-.581 1.899-1.881 1.748a3.67 3.67 0 0 1-2.293-1.01 18.377 18.377 0 0 0 2.857-4.079c3.226-5.957 8-10.656 12.646-15.445 3.99-4.112 8.177-8.036 11.784-12.507Z" style="fill:#2e5cd7"/>
					<path d="M273.22 58.397c-1.097.431-1.508 1.888-2.876 1.914a.922.922 0 0 1-.177-.75c1.522-4.348 4.24-8.122 5.732-12.53 2.843-8.398 5.323-16.796 4.828-25.795-.064-1.157-.262-2.407.64-3.414h2.875a63.57 63.57 0 0 1-1.998 18.784c-2.022 7.61-4.013 15.36-9.024 21.791Z" style="fill:#2851d1"/>
					<path d="M278.971 65.572c2.144-.51 3.175-2.766 5.272-3.348-1.321 2.284-2.56 4.633-4.793 6.218-1.702 1.866-3.552 3.588-5.33 5.377-3.248 3.266-6.405 6.62-9.657 9.882a59.454 59.454 0 0 0-10.58 14.07 9.648 9.648 0 0 1-2.268 3.318 3.282 3.282 0 0 1-2.324-1.096c1.841-4.89 4.88-9.027 8.154-13.028 3.776-4.614 8.307-8.537 12.036-13.19a97.616 97.616 0 0 0 7.156-6.987c.645-.653 1.136-1.615 2.334-1.216Z" style="fill:#3163dd"/>
					<path d="m187.43 66.927-3.354.479c-1.443-1.575-1.064-3.594-1.296-5.448-.749-6.006-2.379-11.842-3.366-17.8-.218-1.319-.669-2.667.349-3.879l3.833-.934a3.944 3.944 0 0 1 .96 2.395c1.162 7.546 2.604 15.053 3.247 22.674a3.217 3.217 0 0 1-.373 2.513Z" style="fill:#00001b"/>
					<path d="M227.248 90.43c.356-.15.887-.197 1.04-.462 2.88-4.986 8.171-5.947 12.965-7.604a10.875 10.875 0 0 0 5.443-3.579 57.823 57.823 0 0 1 7.833-7.952c.66-1.072 1.756-1.78 2.396-2.87l1.917-2.87a41.006 41.006 0 0 1 4.308-5.901 25.2 25.2 0 0 0 3.152-4.414c.313-.67.702-1.494 1.761-1.17a1.615 1.615 0 0 1 .255 1.344c-.39 2.388-1.973 4.075-3.37 5.91-4.517 5.94-8.906 11.967-14.472 17.035-3.945 3.592-7.817 7.244-12.902 9.203a24.445 24.445 0 0 0-7.005 4.753 11.154 11.154 0 0 1-3.32-1.423Z" style="fill:#2449c7"/>
					<path class="cls-57" d="M262.204 20.637a3.72 3.72 0 0 1 2.385-.518 2.523 2.523 0 0 1 .671 1.966 84.313 84.313 0 0 1-.734 17.566 50.602 50.602 0 0 1-4.93 13.832c-2.434 2.906-3.962 6.437-6.393 9.338-1.095 1.306-1.798 3.215-4.016 3.121-.46-1.046.374-1.588.879-2.264a51.932 51.932 0 0 0 9.29-18.865 15.81 15.81 0 0 0 1.196-6.506c.116-5.319.474-10.63.972-15.928a2.833 2.833 0 0 1 .68-1.742Z"/>
					<path d="m197.097 65.33-2.884.486a2.935 2.935 0 0 1-1.182-2.493c-.443-7.332-2.128-14.48-3.2-21.719-.181-1.225-.738-2.48-.004-3.717a4.437 4.437 0 0 1 2.437-.521c1.252-.637 1.817.066 2.004 1.145 1.122 6.486 2.77 12.904 2.926 19.518.057 2.423.88 4.885-.097 7.3Z" style="fill:#00002a"/>
					<path d="M197.097 65.33c-.726-6.145-.622-12.373-1.973-18.459-.63-2.833-1.013-5.722-1.47-8.592-.139-.88-.733-.904-1.39-.913a14.847 14.847 0 0 1 4.704-1.128 2.127 2.127 0 0 1 .766 1.439c1.013 5.548 2.268 11.068 2.382 16.736.051 2.549.673 5.048.508 7.608a4.811 4.811 0 0 1-.734 2.948Z" style="fill:#000030"/>
					<path d="M232.002 27.844a4.643 4.643 0 0 1 2.376-.548c.938-.083 1.058.682 1.062 1.25.038 4.73 1.764 9.378.597 14.172-1.33 5.465-1.725 11.124-3.405 16.522-.953 3.06-2.493 5.924-3.027 9.12l-2.395-.455c-.746-2.651.658-4.957 1.337-7.324 1.954-6.814 3.714-13.647 3.709-20.79-.003-2.935-.458-5.85-.737-8.772-.105-1.106-.368-2.22.483-3.175Z" style="fill:#060d7f"/>
					<path d="M187.43 66.927c-.882-7.422-1.703-14.852-3.187-22.19-.358-1.769-.438-3.593-.647-5.392a6.366 6.366 0 0 1 2.854-.57c1.358.166 1.146 1.346 1.292 2.17 1.35 7.653 2.415 15.351 3.825 22.994.17.918.418 1.933-.77 2.462Z" style="fill:#000020"/>
					<path d="M179.763 40.279c.15 5.1 1.52 10.005 2.594 14.935.88 4.042 1.034 8.146 1.72 12.192-.977.056-1.836.808-2.876.478a2.98 2.98 0 0 1-1-1.84c-1.13-7.353-3.309-14.493-4.45-21.843-.152-.982-.582-2.02.178-2.966Z" style="fill:#000018"/>
					<path class="cls-63" d="M331.204 18.303c-1.022 8.225-2.132 16.48-4.555 24.39a58.228 58.228 0 0 1-6.352 13.528c-2.108 3.393-4.38 6.845-4.427 11.11-.603.413-1.096 1.026-1.913 1.054-.926-1.378-.515-2.781.096-4.073 2.886-6.11 5.304-12.449 8.738-18.292 1.965-3.344 2.051-7.155 2.909-10.769 1.175-4.952 1.746-10.028 2.915-14.987.183-.778.242-1.599 1.127-1.962Z"/>
					<path d="M190.797 66.401a2.034 2.034 0 0 0 .344-1.557c-1.745-8.37-2.926-16.836-4.236-25.28a2.602 2.602 0 0 0-.455-.788 9.156 9.156 0 0 1 3.377-.889c1.119 6.504 2.115 13.032 3.412 19.5.562 2.805-.054 5.706.974 8.43Z" style="fill:#000025"/>
					<path d="M175.929 41.235c1.038 7.585 3.195 14.943 4.564 22.461.253 1.393.473 2.792.708 4.188l-3.356.478c-.972-7.411-3.07-14.59-4.536-21.9-.292-1.459-.492-2.936-.734-4.406a8.493 8.493 0 0 1 3.354-.82Z" style="fill:#000014"/>
					<path d="M260.759 58.876a31.877 31.877 0 0 0-4.062 6.651c-1.142 2.64-3.523 4.242-5.35 6.304-1.054 1.19-2.383 2.154-3.345 3.405-4.753 6.182-12.171 6.707-18.81 8.79-1.439.45-3.012-.73-3.906-2.208l2.412-2.346c1.634 1.899 3.468 2.019 5.716.993a25.18 25.18 0 0 1 5.417-1.807c3.461-.7 5.464-3.432 7.785-5.638 1.893-1.799 3.651-3.735 5.615-5.48a21.991 21.991 0 0 0 4.35-5.924 8.802 8.802 0 0 1 1.414-2.191 22.279 22.279 0 0 0 3.441-5.33c.652-1.262.82-3.118 2.814-3.31.726 1.557-.445 2.66-.981 3.89a22.223 22.223 0 0 1-2.51 4.2Z" style="fill:#2142bf"/>
					<path d="M229.605 68.36c-.748-3.878 1.876-6.903 2.694-10.393a159.784 159.784 0 0 0 3.38-18.346c.46-4.048-.59-8.238-1.301-12.325a2.642 2.642 0 0 1 1.977-.453c1.657-.52 1.78.916 1.82 1.75.18 3.723 1.251 7.484.565 11.146-1.21 6.465-1.69 13.135-4.169 19.288a73.673 73.673 0 0 1-4.486 9.335Z" style="fill:#081186"/>
					<path d="M259.8 45.484c-1.156 5.047-3.58 9.525-6.073 14.01-1.303 2.344-3.264 4.183-4.47 6.556-.054.1-.107.199-.158.3a19.444 19.444 0 0 0-3.611 3.993 16.743 16.743 0 0 1-10.588 6.531c-1.348.28-3.07 1.022-3.428-1.369a9.23 9.23 0 0 1 2.332-2.326 6.866 6.866 0 0 0 6.112-1.477c3.656-3.513 7.458-6.924 10.524-10.982a51.796 51.796 0 0 0 3.202-5.796c.543-.955 1.226-1.832 1.845-2.744.915-1.744 1.924-3.436 2.756-5.226.301-.649.464-1.595 1.557-1.47Z" style="fill:#1b36b3"/>
					<path d="M281.367 17.822a88.89 88.89 0 0 1-.932 16.57c-.597 3.381-2.07 6.475-2.942 9.765a59.14 59.14 0 0 1-7.149 15.675 1.274 1.274 0 0 1-.404-.635c-.129-1.97 1.272-3.57 1.327-5.499 2.823-7.573 5.6-15.158 6.787-23.206.466-3.157.132-6.336.24-9.502.039-1.092-.176-2.246.676-3.168Z" style="fill:#274ece"/>
					<path d="M247.818 24.04a51.988 51.988 0 0 1-3.763 30.686 23.82 23.82 0 0 1-5.805 8.192 18 18 0 0 0-3.254 4.922c-.272.499-.334 1.075-1.089.973-.694-1.915.627-3.29 1.337-4.806 1.205-2.575 3.787-4.087 5.171-6.538a60.52 60.52 0 0 0 5.57-21.323 25.979 25.979 0 0 0-1.553-11.242 9.796 9.796 0 0 1 3.386-.865Z" style="fill:#10209b"/>
					<path d="M223.854 67.405a5.134 5.134 0 0 1-2.36-.413c.963-4.424 2.252-8.766 3.302-13.169a23.716 23.716 0 0 0 .518-6.62c-.242-5.56-.265-11.138-1.741-16.57a.99.99 0 0 1 .282-.875l2.437-.523c1.362-.478 1.36.635 1.573 1.398a26.182 26.182 0 0 1 .755 5.908c.297 6.556 1.25 13.137-1.229 19.575-1.078 2.8-1.375 5.88-2.278 8.77a4.822 4.822 0 0 1-1.259 2.519Z" style="fill:#02056e"/>
					<path d="M278.97 17.822c-.055 5.132.417 10.306-.54 15.376a75.578 75.578 0 0 1-2.753 9.776c-1.24 3.724-2.014 7.617-3.895 11.119-.98 1.136-.726 3.111-2.523 3.694a1.15 1.15 0 0 1-.992-.4c-.37-1.058.33-1.82.794-2.605a20.21 20.21 0 0 0 3.11-10.016 15.558 15.558 0 0 1 1.112-4.143c2.967-6.293 2.752-12.978 2.625-19.674a3.675 3.675 0 0 0-1.694-3.196c1.597-.758 3.17.142 4.756.069Z" style="fill:#254ccc"/>
					<path d="M264.114 50.745c-2.07 2.42-2.72 5.673-4.777 8.097-.299.352-.648.661-.974.99-.701-.825-.252-1.576.175-2.306a6.707 6.707 0 0 0 .743-2.39c1.536-3.742 3.27-7.398 4.894-11.1a24.994 24.994 0 0 0 1.667-10.975c-.105-3.49-.032-6.985-.016-10.478a4.107 4.107 0 0 1 .68-2.943 2.593 2.593 0 0 1 1.899-.476c1.333.101 1.08 1.204 1.146 1.974.709 8.155.412 16.222-2.385 24.031-.72 2.013-1.354 4.089-3.052 5.576Z" style="fill:#1f3ebf"/>
					<path d="M223.854 67.405c1.116-4.342 2.216-8.687 3.352-13.023a31.8 31.8 0 0 0 1.076-10.258c-.288-4.506-.35-9.02-1.055-13.496-.103-.656-.06-1.3-.935-1.393l3.314-.89a3.161 3.161 0 0 1 1.119 2.77c-.038 3.659.387 7.292.53 10.94a42.517 42.517 0 0 1-2.314 15.694c-.888 2.562-1.408 5.214-2.13 7.814-.257.93-.302 2.398-2.025 1.933Z" style="fill:#030774"/>
					<path d="M224.786 67.496c1.854-.779 1.53-2.667 1.83-4.066.62-2.883 1.79-5.585 2.476-8.417a42.487 42.487 0 0 0 1.255-16.01 34.554 34.554 0 0 1-.252-4.03c-.054-2.219.149-4.453-.489-6.628a2.66 2.66 0 0 1 2.396-.5c.32 4.24.892 8.478.902 12.72.017 6.882-1.687 13.511-3.691 20.06-.736 2.406-1.34 4.853-2.003 7.28a4.18 4.18 0 0 1-2.424-.409Z" style="fill:#040979"/>
					<path d="M264.114 50.745a68.924 68.924 0 0 0 3.996-11.66c1.658-6.423.836-12.892.696-19.354-.005-.192-.262-.378-.401-.567a2.659 2.659 0 0 1 1.975-.453c.196-.225.338-.184.434.086.981 3.43.386 6.936.467 10.404a45.963 45.963 0 0 1-5.369 22.106c-1.37 2.692-2.434 5.732-5.153 7.569.514-2.068 1.772-3.796 2.628-5.708a4.682 4.682 0 0 0 .727-2.423Z" style="fill:#2042c2"/>
					<path d="M230.085 68.362c.346-4.076 3.379-7.07 4.381-10.891a112.899 112.899 0 0 0 3.683-20.116c.205-2.712-.45-5.494-.477-8.27-.007-.807-.046-1.99-1.317-2.242l3.315-.89c.686.692.51 1.614.696 2.45 1.735 7.847.238 15.421-1.818 22.968-.953 3.499-1.442 7.108-3.863 10.103-1.595 1.974-2.078 4.576-2.973 6.934a.788.788 0 0 1-1.111.023Z" style="fill:#09148b"/>
					<path d="M294.344 104.722c1.752 1.521 2.868 3.569 4.386 5.284-1.738 2.979-4.36 5.331-5.98 8.396a.6.6 0 0 1-.81.244 35.661 35.661 0 0 1-6.337-2.82c2.124-3.104 4.058-6.34 6.398-9.294.616-.777 1.159-1.73 2.343-1.81Z" style="fill:#51a1fd"/>
					<path d="M274.214 17.753c1.806-.422 2.349.513 2.339 2.12-.043 6.713.77 13.502-2.276 19.902a33.312 33.312 0 0 0-1.536 5.23c-.735 2.822-1.172 5.748-2.854 8.243-.504.747-.702 1.835-1.94 1.801v-1.435c-.586-.786-.17-1.525.157-2.229 2.829-6.106 3.912-12.7 4.922-19.232.559-3.614-.044-7.423-.013-11.145a4.853 4.853 0 0 1 .685-3.186Z" style="fill:#2448c9"/>
					<path d="M251.615 101.089a53.198 53.198 0 0 1 7.114-11.703c5.371-6.837 12.156-12.373 17.744-19.022a12.094 12.094 0 0 1 2.977-1.922c2.28.07 3.577-2.21 5.752-2.392-1.25 1.46-2.244 3.147-3.835 4.305-4.75 3.143-8.409 7.458-12.358 11.463a18.756 18.756 0 0 1-2.646 2.404 62.545 62.545 0 0 0-12.004 14.984 5.005 5.005 0 0 1-1.742 2.213c-.371.002-.776.108-1.002-.33Z" style="fill:#3367e0"/>
					<path d="m230.6 68.43.91-.123a31.751 31.751 0 0 1 4.833-9.692 10.953 10.953 0 0 0 2.098-4.237c1.006-5.14 2.762-10.149 3.245-15.359a37.933 37.933 0 0 0-1.498-13.134 3.622 3.622 0 0 1 2.327-.502c1.392-.55 1.415.556 1.574 1.36a46.993 46.993 0 0 1-1.656 24.435c-1.03 3.086-1.585 6.351-4.095 8.726-2.626 2.477-3.977 5.721-5.378 8.935a4.139 4.139 0 0 1-2.36-.408Z" style="fill:#0c1993"/>
					<path d="M266.505 19.64c.002 4.99-.088 9.983.033 14.97a26.164 26.164 0 0 1-2.976 12.526c-1.368 2.74-2.516 5.59-3.762 8.392a23.838 23.838 0 0 1-2.627 4.666c-.394.608-.772 1.461-1.813 1.02a1.57 1.57 0 0 1 .23-1.793c1.474-1.727 2.04-3.944 3.252-5.807.449-.918.91-1.832 1.345-2.757 4.61-9.797 4.652-20.247 4.402-30.738a2.63 2.63 0 0 1 1.916-.479Z" style="fill:#1d3bbc"/>
					<path d="m292.39 17.821 1.917.001c.691 4.05-.117 8.048-.51 12.045-.764 7.741-3.613 14.914-6.614 21.983-1.52 3.58-4.41 6.367-6.773 9.444a1.313 1.313 0 0 1-1.496.49c-.586-1.167.272-1.996.768-2.833a95.706 95.706 0 0 0 8.693-18.045 66.52 66.52 0 0 0 3.373-19.179c.044-1.32-.347-2.732.642-3.906Z" style="fill:#2f5edc"/>
					<path class="cls-63" d="m329.742 18.302-3.319 16.437c-.962 4.773-1.684 9.5-4.301 13.9-3.058 5.14-5.228 10.807-7.81 16.231-.549 1.15-.265 2.342-.355 3.515l-.937.59c-.572-3.729 1.42-6.748 2.788-9.928 2.597-6.044 5.704-11.916 7.747-18.138a72.51 72.51 0 0 0 3.361-20.286 14.406 14.406 0 0 1 .45-2.319l2.376-.002Z"/>
					<path d="m216.224 31.627 2.359-.89c2.124 3 1.677 6.551 2.083 9.905 1.003 8.267-1.005 16.263-2.35 24.315a2.591 2.591 0 0 1-.692 1.491l-1.916-.383a2.519 2.519 0 0 1-.465-2.252c.991-5.646 1.345-11.37 2.092-17.047.55-4.178-.706-8.207-1.068-12.31a6.304 6.304 0 0 1-.043-2.829Z" style="fill:#00015d"/>
					<path d="M270.344 59.354v.957a131.933 131.933 0 0 1-13.69 15.41 78.82 78.82 0 0 0-12.526 14.586c-1.453 2.29-4.523 3.04-6.882 4.452l-1.889-.569c-.766-1.059-.024-1.767.596-2.49a3.081 3.081 0 0 1 1.078-.926c5.388-2.173 8.736-6.625 12.271-10.873a3.425 3.425 0 0 1 1.129-.861 4.637 4.637 0 0 0 1.414-.87c4.631-4.685 9.677-8.977 13.653-14.281 1.005-1.341 2.277-2.441 3.265-3.795.36-.493.804-1.032 1.581-.74Z" style="fill:#2750cc"/>
					<path d="m288.587 85.72-3.38 2.345c-3.34.02-6.083 1.574-8.638 3.482-4.728 3.531-8.065 8.257-11.157 13.184-.42.668-.563 1.768-1.799 1.508a4.038 4.038 0 0 1-2.341-.984c.26-1.933 1.807-3.123 2.751-4.653a43.047 43.047 0 0 1 4.64-6.352c1.364-1.111 2.528-2.43 3.815-3.62 3.277-3.032 7.597-4.26 11.34-6.491 1.626-.969 3.74-.029 4.769 1.58Z" style="fill:#3e7bee"/>
					<path d="M258.842 53.614c-.245 2.933-2.688 4.905-3.355 7.653a4.756 4.756 0 0 1-1.52 3.398c-3.317 3.31-6.212 7.018-9.654 10.205a14.154 14.154 0 0 1-6.201 3.414 46.599 46.599 0 0 0-5.473 1.653c-1.897.739-3.026-.235-3.023-2.38a4.498 4.498 0 0 1 1.856-2.052c.99 1.668 2.335.941 3.742.691 4.274-.758 7.326-3.38 10.208-6.32a19.82 19.82 0 0 1 3.835-3.826c3.352-2.443 5.175-6.079 7.364-9.426.685-1.048 1.111-2.277 2.22-3.01Z" style="fill:#1d3bb8"/>
					<path d="M267.948 55.05a19.33 19.33 0 0 0 3.841-7.7 4.58 4.58 0 0 1 .952-2.345c.11 4.095-1.696 7.562-3.643 10.974-.27.474-.68.865-.67 1.462.007 1.226-.85 2.023-1.484 2.92-6.536 9.226-14.971 16.725-22.731 24.837-1.804 1.886-4.42 2.513-6.552 3.91-1.391.91-3.002 1.495-4.048 2.905a1.22 1.22 0 0 1-1.696.376 1.486 1.486 0 0 1-1.348-.536 9.64 9.64 0 0 1 5.09-4.448c11.23-4.879 18.924-13.753 26.005-23.248 2.201-2.952 4.975-5.535 6.284-9.108Z" style="fill:#254ac9"/>
					<path d="M231.917 92.39c3.91-3.943 9.803-4.975 13.507-9.293a82.926 82.926 0 0 1 7.25-7.266c6.027-5.478 10.696-12.096 15.753-18.39h.959c.658.87-.01 1.528-.445 2.117a125.293 125.293 0 0 1-18.247 19.885c-1.577 1.658-3.599 3.082-4.634 5.029-1.733 3.26-4.813 4.446-7.646 6.114-1.441.849-2.97 1.615-3.057 3.604Z" style="fill:#264dca"/>
					<path class="cls-90" d="M273.698 17.822c.211 4.504.316 9.055.2 13.513-.123 4.714-2.071 9.358-2.939 14.084-.54 2.946-2.109 5.43-3.011 8.195-1.912 2.541-3.791 5.107-5.749 7.612-1.05 1.343-2.234 2.582-3.357 3.868.41-2.75 2.466-4.54 4.017-6.565a38.722 38.722 0 0 0 7.502-17.181c.324-1.85.888-3.656 1.352-5.48 1.378-5.417-.364-10.84.031-16.26.042-.574-.365-.831-.93-.811a1.462 1.462 0 0 0-.434-.086Z"/>
					<path d="M278.971 61.746c4.015-4.292 7.48-8.87 9.64-14.476a84.24 84.24 0 0 0 5.03-18.53 51.673 51.673 0 0 0 .666-10.918l.48-.001a72.785 72.785 0 0 1-2.89 23.011c-1.23 3.934-2.856 7.746-4.307 11.611a18.985 18.985 0 0 1-2.374 3.546c-2.092 3.187-4.165 6.388-6.245 9.583-2.507 1.713-4.215 4.253-6.472 6.225-.892.779-1.757 1.589-2.634 2.384-.844-.997.081-1.642.48-2.391 1.423-2.355 3.896-3.823 5.271-6.218 1.456-.98 1.274-3.392 3.355-3.826Z" style="fill:#2f60dc"/>
					<path d="M294.344 104.722c-2.726 2.741-4.63 6.082-6.801 9.23-.508.737-.8 1.763-1.94 1.874a21.731 21.731 0 0 1-4.675-1.957c2.494-2.675 3.984-6.063 6.309-8.857 1.196-1.437 2.012-3.22 3.766-4.155a17.276 17.276 0 0 1 3.341 3.865Z" style="fill:#4e9bfc"/>
					<path d="M220.986 66.927c-.696.221-1.292-.156-1.924-.32-.595-1.58-.029-3.13.257-4.639a123.833 123.833 0 0 0 1.982-21.976c.02-2.238-.799-4.36-1.11-6.56a2.896 2.896 0 0 1 .77-2.829c.345-.678.924-.43 1.456-.366a23.073 23.073 0 0 1 2.013 8.47 96.862 96.862 0 0 1-2.47 26.705c-.146.652-.3 1.232-.974 1.515Z" style="fill:#000165"/>
					<path d="M259.8 45.484c-1.659 2.09-2.078 4.975-4.313 6.696a30.644 30.644 0 0 1 2.166-6.244 23.014 23.014 0 0 0 1.343-9.946 65.518 65.518 0 0 1 .287-11.512c.116-1.039.408-2.288-.946-2.922a11.85 11.85 0 0 1 3.867-.92c-.166 6.965-1.11 13.894-.979 20.873.028 1.492-1.102 2.594-1.425 3.975Z" style="fill:#1934b4"/>
					<path d="M229.616 77.558c.567 2.049 1.647 2.727 3.645 1.528a6.928 6.928 0 0 1 2.467-.777c4.829-.751 8.448-3.504 11.408-7.119a58.725 58.725 0 0 1 5.541-5.855c1.273-1.18 1.65-2.873 2.81-4.068 1.86-1.597 2.855-3.842 4.313-5.74.31 1.698-1.634 2.646-1.437 4.305-1.669 2.198-2.579 4.892-4.604 6.865-3.841 3.74-7.385 7.843-11.56 11.158-2.153 1.709-5.396 2.051-8.148 3.008-.595.207-1.207.369-1.791.603-2.453.983-3.357.594-4.562-1.994a5.973 5.973 0 0 1 1.918-1.914Z" style="fill:#1f3fbc"/>
					<path d="M240.188 25.885c1.318.112 1.2 1.096 1.436 2.054 2.159 8.755-.366 17.06-2.25 25.45a13.306 13.306 0 0 1-2.64 5.42c-2.23 2.87-3.46 6.341-5.224 9.498a11.924 11.924 0 0 1 2.793-7.43c2.072-2.665 2.707-5.69 3.335-8.743.812-3.947 1.843-7.845 2.679-11.787.658-3.103-.228-5.99-.325-8.962-.058-1.787-.25-3.616-.322-5.432Z" style="fill:#0b178f"/>
					<path d="M274.658 79.443c1.912-.169 2.962-2.06 4.792-2.392 2.033-.292 3.525-2.201 5.752-1.913-1.325 1.964-3.458 2.94-5.27 4.31-.995.751-2.286 1.151-2.878 2.386a2.106 2.106 0 0 1-.921 1.055c-5.838 3.33-9.514 8.76-13.446 13.914a41.084 41.084 0 0 0-3.707 5.529c-.392.736-.889 1.59-2.018 1.012l-.516-.067c-.652-.984.144-1.675.58-2.341 4.598-7.027 9.3-13.98 15.258-19.972a5.698 5.698 0 0 1 2.374-1.521Z" style="fill:#3870e7"/>
					<path d="M220.986 66.927a88.941 88.941 0 0 0 2.32-13.46c.454-4.223.555-8.494.621-12.76.057-3.616-1.835-6.87-1.51-10.47.472-.184.815-.75 1.438-.48a37.022 37.022 0 0 1 1.876 13.513c-.157 2.515.533 4.933.241 7.503a55.14 55.14 0 0 1-2.056 9.034c-.435 1.514-.4 3.11-1.043 4.552-.403.908-.28 2.088-1.378 2.633Z" style="fill:#000269"/>
					<path d="m207.56 33.605 2.876-.573c.86.89.612 2.1.913 3.151 2.106 7.37 1.468 14.817.567 22.26-.201 1.666-.231 3.334-.373 4.997-.1 1.17-.34 2.34-2.025 1.64l-.52-.066c-1.053-1.678-.798-3.634-.522-5.312.48-2.914.252-5.841.674-8.747.627-4.316-.533-8.509-1.348-12.712-.296-1.525-.966-3.051-.242-4.638Z" style="fill:#00004a"/>
					<path d="M263.613 106.239c2.52-3.214 4.453-6.83 7.11-9.971a30.58 30.58 0 0 1 12.413-8.863 1.699 1.699 0 0 1 2.071.66c-.711 1.175-2.764 1.02-2.825 2.84a50.609 50.609 0 0 0-9.723 7.852 21.331 21.331 0 0 0-4.771 6.746c-.416.94-.722 2.237-2.301 1.668Z" style="fill:#4080f0"/>
					<path d="M237.754 59.832c3.783-4.412 4.259-10.063 5.726-15.333 1.666-5.988.695-12.003.026-18.009-.073-.66-.34-1.023-.991-1.107a2.646 2.646 0 0 1 1.917-.48c1.117.157 1.298 1.028 1.457 1.91a45.9 45.9 0 0 1-1.616 21.978c-.973 3.15-1.694 6.376-3.643 9.128-.902.723-1.13 2.454-2.876 1.913Z" style="fill:#0e1d98"/>
					<path d="M199.89 64.969a126.6 126.6 0 0 0-2.768-26.594 15.366 15.366 0 0 1-.154-2.137 1.796 1.796 0 0 1 1.456-.331c1.453-.48 1.893.54 2.067 1.573 1.416 8.387 2.536 16.803 2 25.345a2.554 2.554 0 0 1-.682 1.734Z" style="fill:#000035"/>
					<path d="M209.518 65.08c1.232.11 1.37-.625 1.415-1.632.22-4.862.662-9.694 1.286-14.533.52-4.042-.677-8.122-1.456-12.13a25.293 25.293 0 0 1-.327-3.753 4.526 4.526 0 0 1 2.349-.62c1.329 2.194 1.015 4.76 1.46 7.13a37.642 37.642 0 0 1-.07 14.201c-.59 3.031-.37 6.162-.725 9.234a5.637 5.637 0 0 1-.34 2.327c-.095.095-.191.188-.288.282a8.637 8.637 0 0 1-3.304-.505Z" style="fill:#00004f"/>
					<path d="M216.224 31.627c1 2.514 1.017 5.203 1.406 7.827 1.256 8.46-.793 16.666-1.881 24.947a15.124 15.124 0 0 0-.04 1.664 6.035 6.035 0 0 1-2.887-.48l.087-.106a24.976 24.976 0 0 0 1.062-6.228 49.293 49.293 0 0 1 .876-6.587c1.35-5.567.261-11.042-.527-16.534-.2-1.403-.577-2.835.43-4.118a1.8 1.8 0 0 1 1.474-.385Z" style="fill:#000157"/>
					<path d="M278.492 82.79c1.725-1.099 3.425-2.24 5.18-3.288 3.085-1.844 6.471-.9 9.732-.871a23.287 23.287 0 0 1 4.375.858 31.88 31.88 0 0 1-4.837 3.34c-.984.31-1.861-.258-2.8-.35a12.066 12.066 0 0 0-9.365 2.607 8.19 8.19 0 0 1-3.688 2.102c-1.37-.03-2.697.83-4.098.215-.896-.98.044-1.445.638-1.783 1.632-.926 3.078-2.171 4.863-2.83Z" style="fill:#3b76ec"/>
					<path d="m270.344 71.79-.479 2.391c-5.195 6.43-11.707 11.72-16.214 18.752-1.494 2.33-2.537 4.936-4.36 7.06a3.83 3.83 0 0 1-2.024-.902l4.619-7.136c3.088-4.797 7.265-8.638 11.117-12.776a89.81 89.81 0 0 1 7.341-7.39Z" style="fill:#3060d9"/>
					<path d="M201.809 64.559c.486-9.12-.619-18.126-1.91-27.122-.134-.939-.532-1.453-1.475-1.53a2.614 2.614 0 0 1 1.917-.479c1.869-.42 2.084 1.045 2.353 2.212a67.29 67.29 0 0 1 1.508 9.874 114.813 114.813 0 0 1 .716 14.241 3.884 3.884 0 0 1-.711 2.461 4.325 4.325 0 0 1-2.398.343Z" style="fill:#000039"/>
					<path d="M220.96 30.603c-.996 1.954-.071 4.026.41 5.676 1.18 4.039.233 7.934.226 11.884-.01 5.389-1.312 10.638-1.745 15.983a11.153 11.153 0 0 1-.789 2.46l-1.438-.158c.295-4.332 1.372-8.54 2.018-12.809.389-2.57.965-5.204.583-7.905a51.466 51.466 0 0 1-.396-6.867c-.018-2.782-.85-5.418-1.246-8.13Z" style="fill:#000261"/>
					<path d="M278.971 61.746c-1.24 1.169-1.706 3.013-3.355 3.826l2.397-5.261a33.203 33.203 0 0 1 2.095-3.984 71.936 71.936 0 0 0 9.673-27.688 76.232 76.232 0 0 0 .699-9.03 2.253 2.253 0 0 1 .473-1.788h1.437c.45 14.432-3.657 27.57-11.267 39.732-.83 1.327-1.44 2.792-2.152 4.193Z" style="fill:#2e5cda"/>
					<path d="M204.207 64.216a137.254 137.254 0 0 0-2.017-25.655c-.19-1.12.145-2.919-1.849-3.133 1.032-.664 2.28-.488 3.385-.866a1.727 1.727 0 0 1 .63.98c2.03 8.833 3.3 17.727 2.08 26.81a3.356 3.356 0 0 1-.793 2.184Z" style="fill:#00003d"/>
					<path d="M214.75 32.012c-.234 3.268.504 6.464 1.061 9.62.808 4.573.039 8.946-.64 13.393-.454 2.986-.695 6.004-1.05 9.005-.086.724-.245 1.438-1.213 1.45a67.676 67.676 0 0 1 .924-13.747 42.688 42.688 0 0 0-.78-15.313c-.28-1.35-.088-2.68-.267-4.009a3.439 3.439 0 0 1 1.964-.399Z" style="fill:#000053"/>
					<path d="M266.03 83.747a84.34 84.34 0 0 0 8.438-8.565 19.002 19.002 0 0 1 6.9-4.827 7.476 7.476 0 0 0-1.438 3.348c-2.48 1.81-5.351 3.13-7.19 5.74.343 1.105-.605 1.607-1.17 2.15a91.73 91.73 0 0 0-15.966 19.85 1.815 1.815 0 0 1-1.067.902c-.395.046-.8.122-.99-.372-.357-.684.039-1.215.354-1.765a63.703 63.703 0 0 1 8.624-12.26c1.248-1.323 2.353-2.787 3.506-4.2Z" style="fill:#356ae2"/>
					<path d="M274.579 111.042a1.776 1.776 0 0 1-1.351-.536 1.965 1.965 0 0 1 .25-2.429 88.458 88.458 0 0 1 9.933-12.44 3.857 3.857 0 0 1 2.238-1.288l1.476 1.816c.62.887-.032 1.515-.508 2.096-3.358 4.095-6.697 8.206-10.223 12.161-.478.536-.977 1.096-1.815.62Z" style="fill:#4890f8"/>
					<path d="M291.94 118.646c2.074-3.028 3.768-6.353 6.79-8.64a7.026 7.026 0 0 1 2.69 3.795 5.067 5.067 0 0 1-6.467 6.179 21.307 21.307 0 0 1-3.013-1.334Z" style="fill:#54a5fe"/>
					<path d="M205.643 64.536c.272-3.72.514-7.433.517-11.172.004-5.594-1.279-10.989-2.173-16.448-.127-.778-.176-1.569-.26-2.354a1.919 1.919 0 0 1 1.916-.478 3.154 3.154 0 0 1 1.044 1.826c1.461 7.234 2.896 14.474 1.707 21.913-.368 2.303.37 4.818-1.312 6.871Z" style="fill:#000042"/>
					<path d="M207.082 64.694c.32-3.94.677-7.878.949-11.822.441-6.414-1.41-12.548-2.388-18.788l1.917-.479c.935 5.411 2.931 10.725 2.307 16.282-.347 3.092.141 6.215-.754 9.304-.527 1.817.25 3.876-.115 5.823-.694.22-1.287-.155-1.916-.32Z" style="fill:#000045"/>
					<path d="M274.579 111.042c2.474-1.299 3.65-3.85 5.486-5.763 2.4-2.501 4.464-5.324 6.646-8.03a3.796 3.796 0 0 0 .414-1.084 11.604 11.604 0 0 1 2.397 2.874c.28.741-.22 1.207-.642 1.657-3.306 3.524-6.453 7.186-9.54 10.9a2.334 2.334 0 0 1-1.351.912 9.273 9.273 0 0 1-3.41-1.466Z" style="fill:#4a94fa"/>
					<path d="M278.492 82.79c-1.44 2.07-4.124 2.484-5.751 4.305-.897 1.988-2.638 3.316-3.965 4.962a102.05 102.05 0 0 0-8.038 11.146c-.33.546-.493 1.414-1.487 1.15a4.182 4.182 0 0 1-2.289-1.009c2.322-.804 2.598-3.263 3.755-4.93a135.31 135.31 0 0 1 9.878-12.18 18.303 18.303 0 0 1 6.459-4.4 1.448 1.448 0 0 0 1.438.957Z" style="fill:#3a73e8"/>
					<path d="M277.989 112.508c3.506-4.778 7.683-8.984 11.533-13.47a3.825 3.825 0 0 1 1.481 1.82c-2.72 3.962-5.872 7.625-8.223 11.845-.39.7-.874 1.35-1.852 1.166l-2.94-1.36Z" style="fill:#4d98fb"/>
					<path d="M254.537 102.345a79.262 79.262 0 0 1 14.793-19.276c1.188-1.156 2.276-2.415 3.41-3.626.64.172 1.279-.862 1.918 0-5.887 5.59-10.676 12.063-15.203 18.752a28.131 28.131 0 0 0-3.01 5.082Z" style="fill:#376ee3"/>
					<path d="M290.953 17.821a69.039 69.039 0 0 1-12.94 42.49v-.957c4.78-7.086 7.25-15.17 9.632-23.213a69.928 69.928 0 0 0 2.348-18.32Z" style="fill:#2d5bda"/>
					<path d="M265.587 107.171c1.114-.012 1.444-.88 1.737-1.688 1.575-4.341 4.84-7.342 8.233-10.186 2.071-1.737 3.737-4.196 6.825-4.392l.96.87c-.132 1.705-1.979 1.712-2.755 2.78-3.97 3.593-8.28 6.873-10.524 11.993-.347.792-.538 2.183-2.08 1.58a4.823 4.823 0 0 1-2.396-.957Z" style="fill:#4284f3"/>
					<path d="M259.251 104.352a116.816 116.816 0 0 1 10.128-13.937 18.335 18.335 0 0 1 3.362-3.32l4.313-.478c.195.602-.24.868-.643 1.086-3.125 1.69-5.336 4.344-7.505 7.045l-7.634 10.507Z" style="fill:#3c77ea"/>
					<path d="M285.65 94.35c-4.36 3.516-7.218 8.327-10.79 12.522a7.01 7.01 0 0 0-1.632 3.634 8.158 8.158 0 0 1-2.956-1.372 2.12 2.12 0 0 1 .333-.943c3.157-6.382 8.219-11.084 13.67-15.444Z" style="fill:#468bf6"/>
					<path d="M268.906 94.748c1.712-3.713 4.743-6.108 8.148-8.131 2.59-.848 4.238-3.269 6.818-4.107 3.046-.99 6.102-1.359 9.07.319a22.204 22.204 0 0 1-4.355 2.89c-2.216-1.528-4.178-1.444-6.676-.058-4.675 2.595-9.35 5.08-13.005 9.087Z" style="fill:#3d79ee"/>
					<path d="M284.274 92.747c-.112.288-.14.674-.347.852-5.098 4.375-9.867 9.03-13.103 15.02-.745-.832-.21-1.635.063-2.437 1.737-5.114 5.736-8.429 9.522-11.912.501-1.39 2.164-1.42 2.933-2.496l.932.973Z" style="fill:#4588f5"/>
					<path d="M266.03 83.747c-1.553 3.124-4.156 5.47-6.192 8.237a98.283 98.283 0 0 0-6.292 9.989l-.929-.554a59.302 59.302 0 0 1 13.414-17.672Z" style="fill:#3569e0"/>
					<path d="M280.409 94.27c-2.296 2.815-5.153 5.145-7.111 8.257a17.04 17.04 0 0 0-2.474 6.092l-.552.515a3.474 3.474 0 0 1-2.289-1.007c1.781-.736 1.793-2.662 2.68-3.999a36.698 36.698 0 0 1 9.746-9.858Z" style="fill:#4487f4"/>
					<path d="M237.754 59.832c1.368-.025 1.779-1.482 2.876-1.913-.773 2.427-3.288 3.463-4.465 5.616a24.343 24.343 0 0 0-2.258 5.278 1.861 1.861 0 0 1-.43.096l-.517-.07c.301-3.69 2.305-6.477 4.794-9.007Z" style="fill:#0e1e96"/>
					<path class="cls-40" d="M326.418 61.746c-.141-.266-.476-.638-.396-.782 1.771-3.217 1.254-7.067 2.886-10.31a4.775 4.775 0 0 1 1.137-1.78c3.797-2.727 4.618-6.77 4.972-11.003.119-1.418.245-2.827.403-4.238.14-1.257.657-2.582-.584-3.963-.825-.918-.334-2.73-.083-4.151.424-2.406 1.264-4.742 1.251-7.223h3.346a90.735 90.735 0 0 1-3.219 21.995c-1.898 7.373-4.375 14.427-8.852 20.663a5.638 5.638 0 0 1-.86.792Z"/>
					<path class="cls-26" d="m352.777 18.286 2.872-.001c.839 7.14-.319 14.191-.988 21.26a13.248 13.248 0 0 1-1.86 5.373c-2.823 4.837-3.869 10.367-6.01 15.393-2.322 5.45-5.52 10.964-11.746 13.392 3.352-2.36 5.315-5.993 8.134-8.84 2.971-2.999 3.498-7.027 4.543-10.804 1.14-4.116 2.846-8.052 3.688-12.261 1.556-7.78 2.5-15.583 1.367-23.512Z"/>
					<path class="cls-90" d="M256.925 67.963c-.226 1.433-1.375 2.099-2.396 2.87.226-1.433 1.375-2.098 2.396-2.87Z"/>
					<path class="cls-57" d="M249.257 66.05a17.929 17.929 0 0 1-3.835 3.826 6.346 6.346 0 0 1 3.835-3.826Z"/>
					<path d="M250.694 79.443c3.045-3.683 6.92-6.577 9.956-10.242a85.63 85.63 0 0 0 8.736-11.76c1.132-.879 1.004-2.655 2.396-3.348.097 1.91-1.437 3.377-1.438 5.261a86.251 86.251 0 0 0-6.22 7.137c-3.809 4.587-8.327 8.483-12.537 12.679-.195.194-.59.186-.893.273Z" style="fill:#274fcc"/>
				</g>
			</g>
		</g>
	</g>
</svg>
