<svg xmlns="http://www.w3.org/2000/svg" width="200" height="128">
	<g fill="#ff931e">
		<path d="M20 70.9v6.17a1.089 1.089 0 0 0 1.089 1.089h30.487a1.09 1.09 0 0 0 1.089-1.089V70.9a60.771 60.771 0 0 1-16.333 2.178A60.769 60.769 0 0 1 20 70.9z"/>
		<path d="M51.576 49.845H21.089A1.089 1.089 0 0 0 20 50.934v17.784a59.027 59.027 0 0 0 16.332 2.541 59.034 59.034 0 0 0 16.333-2.541V50.934a1.09 1.09 0 0 0-1.089-1.089z"/>
		<path d="M57.413 54.9a.355.355 0 0 1 .709-.049.2.2 0 0 1 0 .049v5.318h2.26a.333.333 0 0 1 .321.319.322.322 0 0 1-.312.332h-2.628a.357.357 0 0 1-.35-.359zm4.62-.128a.41.41 0 0 1 .816 0v.113a.411.411 0 0 1-.816 0zm.063 1.759a.346.346 0 0 1 .691 0v4.029a.332.332 0 0 1-.313.35h-.029a.345.345 0 0 1-.349-.342v-4.037zm2.562 5.24a.317.317 0 0 1-.179-.288.333.333 0 0 1 .314-.3.287.287 0 0 1 .153.045 2.927 2.927 0 0 0 1.642.5 1.524 1.524 0 0 0 1.686-1.65v-.549a2.2 2.2 0 0 1-1.828.979 2.144 2.144 0 0 1-2.18-2.107v-.083a2.195 2.195 0 0 1 3.988-1.256v-.526a.345.345 0 0 1 .338-.35.35.35 0 0 1 .349.35v3.527a2.235 2.235 0 0 1-.592 1.642 2.445 2.445 0 0 1-1.768.619 3.631 3.631 0 0 1-1.923-.553zm3.634-3.445v-.018a1.628 1.628 0 0 0-1.7-1.571 1.538 1.538 0 0 0-1.611 1.563v.016a1.57 1.57 0 0 0 1.56 1.581h.047a1.637 1.637 0 0 0 1.704-1.571zm2.252-3.706a.346.346 0 0 1 .692 0v2.413a1.755 1.755 0 0 1 1.588-.905 1.694 1.694 0 0 1 1.776 1.857v2.575a.346.346 0 0 1-.692 0v-2.405a1.236 1.236 0 0 0-1.283-1.4 1.355 1.355 0 0 0-1.39 1.454v2.35a.333.333 0 0 1-.314.35H70.9a.344.344 0 0 1-.35-.34v-.01zm5.69 5.016v-2.8h-.377a.315.315 0 0 1-.306-.3.308.308 0 0 1 .306-.3h.377v-1.105a.342.342 0 0 1 .332-.349.354.354 0 0 1 .349.349v1.095h1.2a.317.317 0 0 1 .314.3.311.311 0 0 1-.314.3h-1.2v2.71a.686.686 0 0 0 .781.771 1.955 1.955 0 0 0 .423-.062.3.3 0 0 1 .3.3.286.286 0 0 1-.2.269 1.752 1.752 0 0 1-.682.125 1.177 1.177 0 0 1-1.303-1.303zm3.688-5.016a.346.346 0 0 1 .691 0v2.54a2.084 2.084 0 0 1 1.776-1.032 2.262 2.262 0 0 1 2.217 2.4v.018a2.271 2.271 0 0 1-2.217 2.413 2.092 2.092 0 0 1-1.776-.987v.584a.344.344 0 0 1-.337.35.35.35 0 0 1-.35-.35zm3.978 3.939v-.019a1.671 1.671 0 0 0-1.634-1.794 1.729 1.729 0 0 0-1.677 1.781v.032a1.725 1.725 0 0 0 1.677 1.794 1.65 1.65 0 0 0 1.634-1.794zm3.918 2.414a2.305 2.305 0 0 1-2.318-2.414v-.019a2.291 2.291 0 0 1 2.225-2.412 2.189 2.189 0 0 1 2.16 2.351.322.322 0 0 1-.322.322H86.2a1.626 1.626 0 0 0 1.634 1.571 1.9 1.9 0 0 0 1.329-.539.3.3 0 0 1 .5.215.3.3 0 0 1-.108.224 2.36 2.36 0 0 1-1.737.701zm1.373-2.683a1.528 1.528 0 0 0-1.481-1.579 1.6 1.6 0 0 0-1.51 1.579zm1.84-1.759a.346.346 0 0 1 .691 0v.5a1.756 1.756 0 0 1 1.589-.906 1.694 1.694 0 0 1 1.776 1.858v2.577a.346.346 0 0 1-.691 0v-2.405a1.236 1.236 0 0 0-1.283-1.4 1.356 1.356 0 0 0-1.391 1.454v2.35a.332.332 0 0 1-.314.35h-.027a.344.344 0 0 1-.35-.34v-4.038zm9.834 4.029a.346.346 0 0 1-.69.047.368.368 0 0 1 0-.047v-.629a2.086 2.086 0 0 1-1.775 1.032 2.262 2.262 0 0 1-2.215-2.4v-.023a2.276 2.276 0 0 1 2.215-2.412 2.093 2.093 0 0 1 1.778.987v-2.493a.333.333 0 0 1 .314-.35h.027a.345.345 0 0 1 .349.339v5.95zm-3.975-2.02v.019a1.677 1.677 0 0 0 1.634 1.794 1.732 1.732 0 0 0 1.678-1.786v-.027a1.724 1.724 0 0 0-1.662-1.785h-.016a1.629 1.629 0 0 0-1.634 1.785z"/>
		<path d="m62.7 74.774-1.962-3.689h-1.276v3.689h-2.307V64.54h3.688a7.158 7.158 0 0 1 1.53.157 3.493 3.493 0 0 1 1.248.526 2.63 2.63 0 0 1 .848.981 3.319 3.319 0 0 1 .314 1.522 3.243 3.243 0 0 1-.5 1.86 3.008 3.008 0 0 1-1.326 1.091l2.323 4.1zm-3.233-5.525h1.193a2.174 2.174 0 0 0 1.389-.385 1.371 1.371 0 0 0 .478-1.138 1.139 1.139 0 0 0-.478-1.051 2.65 2.65 0 0 0-1.389-.3h-1.198zm6.555 1.632a4.439 4.439 0 0 1 .314-1.7 4.054 4.054 0 0 1 .824-1.287 3.58 3.58 0 0 1 1.17-.808 3.435 3.435 0 0 1 1.365-.283 3.476 3.476 0 0 1 1.452.283 2.871 2.871 0 0 1 1.036.785 3.334 3.334 0 0 1 .62 1.185 5.157 5.157 0 0 1 .2 1.483 5 5 0 0 1-.031.573 4.805 4.805 0 0 1-.063.4h-4.658a1.951 1.951 0 0 0 .7 1.3 2.168 2.168 0 0 0 1.326.4 3.207 3.207 0 0 0 1.679-.518l.769 1.4a5.1 5.1 0 0 1-1.326.644 4.654 4.654 0 0 1-1.436.235 4.334 4.334 0 0 1-1.554-.275 3.565 3.565 0 0 1-1.255-.8 3.652 3.652 0 0 1-.832-1.279 4.665 4.665 0 0 1-.3-1.738zm5.023-.8a1.876 1.876 0 0 0-.3-1.1 1.144 1.144 0 0 0-1-.424 1.414 1.414 0 0 0-.965.369 1.89 1.89 0 0 0-.542 1.154zm3.108 2.527a2.179 2.179 0 0 1 1.036-1.915 7.644 7.644 0 0 1 3.343-.926 1.291 1.291 0 0 0-.314-.824 1.187 1.187 0 0 0-.91-.306 2.854 2.854 0 0 0-1.005.188 7.031 7.031 0 0 0-1.067.518l-.816-1.522a8.108 8.108 0 0 1 1.58-.738 5.364 5.364 0 0 1 1.75-.283 2.981 2.981 0 0 1 2.3.856 3.81 3.81 0 0 1 .793 2.66v4.458h-1.888l-.172-.8h-.047a4.885 4.885 0 0 1-1.06.714 2.713 2.713 0 0 1-1.216.275 2.423 2.423 0 0 1-.957-.18 2.076 2.076 0 0 1-.722-.5 2.3 2.3 0 0 1-.463-.745 2.532 2.532 0 0 1-.165-.93zm2.2-.173a.648.648 0 0 0 .243.557 1.064 1.064 0 0 0 .652.181 1.3 1.3 0 0 0 .69-.173 3.272 3.272 0 0 0 .6-.487v-1.365a4.225 4.225 0 0 0-1.711.5.95.95 0 0 0-.477.787zm6.008-1.554a4.325 4.325 0 0 1 .33-1.734 3.756 3.756 0 0 1 .887-1.279 3.839 3.839 0 0 1 1.3-.793 4.37 4.37 0 0 1 1.538-.275 3.342 3.342 0 0 1 1.3.244 2.857 2.857 0 0 1 .973.651l-1.051 1.428a1.715 1.715 0 0 0-1.083-.455 1.627 1.627 0 0 0-1.334.6 2.906 2.906 0 0 0 .008 3.233 1.549 1.549 0 0 0 1.247.6 1.694 1.694 0 0 0 .769-.172 3.711 3.711 0 0 0 .628-.393l.926 1.46a3.641 3.641 0 0 1-1.255.738 4.11 4.11 0 0 1-2.849-.04 3.517 3.517 0 0 1-1.216-.792 3.678 3.678 0 0 1-.817-1.28 4.739 4.739 0 0 1-.301-1.741zm8.099-2.087h-1.067v-1.711l1.192-.094.267-2.072h1.915v2.072h1.868v1.8h-1.868v3.123a1.358 1.358 0 0 0 .275.95.959.959 0 0 0 .73.29 1.666 1.666 0 0 0 .384-.047 2.59 2.59 0 0 0 .353-.11l.361 1.679q-.314.095-.737.189a4.594 4.594 0 0 1-.989.094 3.1 3.1 0 0 1-1.232-.22 2.146 2.146 0 0 1-.832-.612 2.474 2.474 0 0 1-.471-.949 4.746 4.746 0 0 1-.149-1.233zm6.84-2.951a1.379 1.379 0 0 1-.957-.337 1.114 1.114 0 0 1-.377-.871 1.091 1.091 0 0 1 .377-.864 1.568 1.568 0 0 1 1.922 0 1.1 1.1 0 0 1 .369.864 1.128 1.128 0 0 1-.369.871 1.374 1.374 0 0 1-.965.337zm-1.146 1.146h2.307v7.785h-2.304zm3.503 0h2.323l1 3.673q.156.581.306 1.184t.306 1.217h.062c.095-.408.191-.814.291-1.217s.2-.8.306-1.184l1.02-3.673h2.213l-2.543 7.785h-2.668zm8.46 3.892a4.42 4.42 0 0 1 .314-1.7 4.036 4.036 0 0 1 .824-1.287 3.566 3.566 0 0 1 1.169-.808 3.644 3.644 0 0 1 2.817 0 2.854 2.854 0 0 1 1.036.785 3.334 3.334 0 0 1 .62 1.185 5.157 5.157 0 0 1 .2 1.483 4.785 4.785 0 0 1-.031.573 4.415 4.415 0 0 1-.063.4h-4.661a1.946 1.946 0 0 0 .7 1.3 2.168 2.168 0 0 0 1.326.4 3.2 3.2 0 0 0 1.679-.518l.77 1.4a5.121 5.121 0 0 1-1.327.644 4.654 4.654 0 0 1-1.436.235 4.342 4.342 0 0 1-1.554-.275 3.565 3.565 0 0 1-1.255-.8 3.666 3.666 0 0 1-.832-1.279 4.665 4.665 0 0 1-.296-1.738zm5.022-.8a1.868 1.868 0 0 0-.3-1.1 1.143 1.143 0 0 0-1-.424 1.415 1.415 0 0 0-.966.369 1.89 1.89 0 0 0-.541 1.154zm7.016-5.541h3.735a7.074 7.074 0 0 1 1.562.165 3.5 3.5 0 0 1 1.271.55 2.684 2.684 0 0 1 .856 1.02 3.973 3.973 0 0 1-.008 3.115 3.011 3.011 0 0 1-.871 1.083 3.7 3.7 0 0 1-1.272.628 5.631 5.631 0 0 1-1.538.2h-1.428v3.469h-2.307zm3.594 4.929q1.883 0 1.883-1.633a1.274 1.274 0 0 0-.478-1.13 2.478 2.478 0 0 0-1.405-.329h-1.287v3.092zm5.729-5.698h2.307v8.68a.73.73 0 0 0 .133.5.384.384 0 0 0 .275.141h.133a.492.492 0 0 0 .149-.031l.283 1.711a2.508 2.508 0 0 1-.479.133 3.686 3.686 0 0 1-.683.055 2.4 2.4 0 0 1-1-.188 1.624 1.624 0 0 1-.651-.526 2.233 2.233 0 0 1-.354-.816 4.841 4.841 0 0 1-.109-1.076zm4.206 8.837a2.179 2.179 0 0 1 1.036-1.915 7.644 7.644 0 0 1 3.343-.926 1.291 1.291 0 0 0-.314-.824 1.19 1.19 0 0 0-.911-.306 2.853 2.853 0 0 0-1 .188 7.031 7.031 0 0 0-1.067.518l-.816-1.522a8.108 8.108 0 0 1 1.577-.738 5.368 5.368 0 0 1 1.75-.283 2.981 2.981 0 0 1 2.3.856 3.81 3.81 0 0 1 .793 2.66v4.458h-1.884l-.172-.8h-.047a4.885 4.885 0 0 1-1.06.714 2.713 2.713 0 0 1-1.216.275 2.431 2.431 0 0 1-.958-.18 2.1 2.1 0 0 1-.722-.5 2.319 2.319 0 0 1-.462-.745 2.532 2.532 0 0 1-.17-.93zm2.2-.173a.648.648 0 0 0 .243.557 1.066 1.066 0 0 0 .652.181 1.3 1.3 0 0 0 .69-.173 3.272 3.272 0 0 0 .6-.487v-1.365a4.225 4.225 0 0 0-1.711.5.95.95 0 0 0-.477.787zm6.777-3.641h-1.067v-1.711l1.193-.094.267-2.072h1.915v2.072h1.867v1.8h-1.867v3.123a1.358 1.358 0 0 0 .274.95.959.959 0 0 0 .73.29 1.667 1.667 0 0 0 .385-.047 2.681 2.681 0 0 0 .353-.11l.361 1.679c-.21.063-.455.126-.738.189a4.587 4.587 0 0 1-.989.094 3.1 3.1 0 0 1-1.232-.22 2.153 2.153 0 0 1-.832-.612 2.487 2.487 0 0 1-.47-.949 4.745 4.745 0 0 1-.15-1.233zm10.092-3.233a2.394 2.394 0 0 0-.8-.157.842.842 0 0 0-.659.259 1.254 1.254 0 0 0-.236.855v.471h1.4v1.8h-1.4v5.98h-2.307v-5.98h-1.036v-1.706l1.036-.083v-.423a4.442 4.442 0 0 1 .149-1.162 2.441 2.441 0 0 1 .5-.957 2.372 2.372 0 0 1 .894-.644 3.4 3.4 0 0 1 1.334-.235 3.869 3.869 0 0 1 .887.094 6.551 6.551 0 0 1 .667.189zm.347 5.32a4.524 4.524 0 0 1 .314-1.734 3.825 3.825 0 0 1 .84-1.279 3.614 3.614 0 0 1 1.217-.793 3.83 3.83 0 0 1 1.429-.275 3.77 3.77 0 0 1 1.42.275 3.641 3.641 0 0 1 1.209.793 3.808 3.808 0 0 1 .839 1.279 4.945 4.945 0 0 1 0 3.468 3.812 3.812 0 0 1-.839 1.28 3.653 3.653 0 0 1-1.209.792 3.77 3.77 0 0 1-1.42.275 3.83 3.83 0 0 1-1.428-.275 3.626 3.626 0 0 1-1.217-.792 3.83 3.83 0 0 1-.84-1.28 4.517 4.517 0 0 1-.315-1.734zm2.371 0a3.164 3.164 0 0 0 .353 1.617 1.26 1.26 0 0 0 2.142 0 3.8 3.8 0 0 0 0-3.233 1.259 1.259 0 0 0-2.142 0 3.157 3.157 0 0 0-.355 1.616zm6.794-3.892h1.883l.157 1.365h.063a3.007 3.007 0 0 1 1.02-1.177 2.218 2.218 0 0 1 1.193-.377 3.068 3.068 0 0 1 .541.04 1.668 1.668 0 0 1 .385.117l-.377 1.994a3.706 3.706 0 0 0-.408-.094 2.7 2.7 0 0 0-.44-.032 1.685 1.685 0 0 0-.918.314 2.274 2.274 0 0 0-.792 1.115v4.52h-2.307zm6.246 0h1.889l.157 1h.062a6.255 6.255 0 0 1 1.036-.839 2.731 2.731 0 0 1 2.661-.016 2.324 2.324 0 0 1 .808.965 6.875 6.875 0 0 1 1.091-.918 2.38 2.38 0 0 1 1.357-.385 2.1 2.1 0 0 1 1.845.84 3.951 3.951 0 0 1 .588 2.3v4.834h-2.307v-4.532a2.105 2.105 0 0 0-.228-1.162.841.841 0 0 0-.73-.314 2.076 2.076 0 0 0-1.334.754v5.258h-2.307v-4.536a2.116 2.116 0 0 0-.227-1.162.843.843 0 0 0-.73-.314 1.98 1.98 0 0 0-1.319.754v5.258h-2.307z"/>
	</g>
</svg>
