<svg xmlns="http://www.w3.org/2000/svg" viewBox="0 0 159 36" fill="none">
	<path d="M23.945 23.818a5.847 5.847 0 1 0 0-11.694 5.847 5.847 0 0 0 0 11.694Z" fill="#039C49"/>
	<path d="M22.269.078 3.323 10.213c-.195.117-.35.312-.39.507L.01 23.818c-.039.195.039.35.195.429L24.998 35.94a.966.966 0 0 0 .662 0l15.827-7.172a.754.754 0 0 0 .429-.546l5.847-26.235c.039-.195-.078-.429-.312-.468h-.078L22.698 0c-.156 0-.312 0-.43.078Zm2.884 34.85L2.583 24.325h8.07l18.866 2.69-4.366 7.913Zm5.341-7.796 9.278 1.325-13.332 6.081 4.054-7.406Zm-19.101-3.665 7.133-14.072L40.551 6.86 29.987 26.118l-18.594-2.65Zm29.86-17.62L19.033 8.42 22.814.936 45.931 2.3l-4.678 3.547Zm-23.311 2.69L5.818 9.94 21.49 1.56l-3.547 6.977ZM3.792 11.11l13.643-1.56-7.017 13.84H1.062l2.73-12.28Zm37.266 16.567-10.096-1.442L41.799 6.627l4.756-3.547-5.497 24.597Z" fill="#121C21"/>
	<path d="M62.733 20.817h6.432v3.04H58.99V7.72h3.742v13.098Zm8.459 3.001H74.7V12.123h-3.508v11.695ZM72.946 6.55c-1.17 0-2.144.975-2.144 2.144 0 1.17.974 2.144 2.144 2.144 1.17 0 2.144-.974 2.144-2.144 0-1.17-.975-2.144-2.144-2.144Zm12.747 5.574h3.275v10.643c0 3.898-2.3 6.315-6.043 6.315-3.43 0-5.73-1.832-5.808-4.717l3.508-.117a2.057 2.057 0 0 0 2.144 1.988h.04c1.675 0 2.611-1.091 2.611-3.04V21.44c-.507.975-1.598 1.754-3.235 1.754-3.158 0-5.614-2.338-5.614-5.69 0-3.198 2.34-5.731 5.692-5.731 1.48 0 2.923.857 3.43 1.988v-1.637Zm0 5.38a2.778 2.778 0 0 0-2.768-2.768 2.778 2.778 0 0 0-2.767 2.768 2.778 2.778 0 0 0 2.767 2.768 2.778 2.778 0 0 0 2.768-2.768Zm12.396-5.613a3.464 3.464 0 0 0-3.313 2.183V7.719h-3.509v16.138h3.509v-6.47c0-1.638.78-2.613 2.105-2.613s2.066.897 2.066 2.456v6.627h3.508v-7.212c-.039-2.845-1.754-4.716-4.366-4.755Zm10.837-2.495h-3.469v2.768h-1.949v2.767h1.949v4.522c0 2.963 1.793 4.405 4.132 4.405h1.715l-.039-2.962h-.779c-1.053 0-1.56-.546-1.56-1.599v-4.405h2.456v-2.768h-2.456V9.396Zm20.505 0h-3.469v2.768h-1.95v2.767h1.95v4.483c0 2.963 1.793 4.405 4.132 4.405h1.715l-.039-2.963h-.78c-1.091 0-1.559-.545-1.559-1.598v-4.366h2.456v-2.768h-2.456V9.396Zm29.548 8.576c0 3.586-2.3 6.081-5.613 6.081-1.364.039-2.612-.624-3.391-1.754v5.847h-3.509V12.124h3.509v1.637c.584-1.17 1.988-1.871 3.391-1.871 3.313.039 5.613 2.494 5.613 6.08Zm-3.586 0c0-1.871-1.169-3.197-2.807-3.197-1.637 0-2.845 1.326-2.845 3.197s1.169 3.196 2.845 3.196c1.677 0 2.807-1.286 2.807-3.196Zm-10.486-.117c0 .35-.039.74-.078 1.091h-8.186v.04c.039 1.403 1.169 2.533 2.572 2.494 1.17 0 1.95-.468 2.339-1.442l2.963.546c-.507 2.105-2.651 3.547-5.38 3.547-3.586 0-6.12-2.573-6.12-6.16 0-3.624 2.495-6.197 6.004-6.197 3.469.039 5.886 2.495 5.886 6.08Zm-3.47-1.053v-.156c-.078-1.286-1.13-2.26-2.416-2.183h-.039a2.346 2.346 0 0 0-2.339 2.34h4.794Zm-22.336-.233-1.56-.234c-.701-.117-1.091-.468-1.091-.975 0-.663.663-1.17 1.481-1.17.936-.038 1.754.663 1.832 1.599l3.197-.078c-.117-2.34-2.105-3.976-5.029-3.976-2.884 0-4.873 1.676-4.873 4.015 0 2.027 1.17 3.235 3.704 3.625l1.559.234c1.014.156 1.52.429 1.52 1.13 0 .702-.662 1.053-1.676 1.053-1.208 0-1.988-.624-2.066-1.598l-3.235.078c.078 2.339 2.261 3.976 5.301 3.976 3.041 0 5.068-1.598 5.068-3.937.039-1.988-1.404-3.314-4.132-3.742Z" fill="#121C21"/>
</svg>
