<svg xmlns="http://www.w3.org/2000/svg" width="200" height="128">
	<path d="m128.072 19.15.233-.15.063.042a3.744 3.744 0 0 1-.188.368q-2.123 3.274-4.25 6.546l-6.4 9.875c-1.48 2.287-2.951 4.58-4.432 6.867q-3.2 4.94-6.4 9.875-2.22 3.431-4.431 6.867-1.242 1.921-2.49 3.84c-.05.078-.111.15-.2.262-.877-.594-1.739-1.183-2.607-1.763q-2.939-1.965-5.881-3.925c-.724-.485-1.437-.988-2.163-1.471a1.53 1.53 0 0 0-.39-.131 1.607 1.607 0 0 0-.272-.311c-.866-.59-1.74-1.169-2.612-1.751.245-.243.472-.506.737-.725 1.566-1.293 3.143-2.574 4.712-3.864 1.612-1.324 3.217-2.656 4.829-3.98s3.229-2.64 4.841-3.964q2.623-2.154 5.242-4.315c1.749-1.435 3.506-2.861 5.255-4.3s3.491-2.879 5.24-4.316q2.448-2.013 4.9-4.017c1.445-1.182 2.895-2.359 4.336-3.547.566-.466 1.114-.955 1.67-1.434z" fill="#d8e1e7"/>
	<path d="M86.335 69.745h3.247v9.131h4.928v-9.127h3.09v23.8h-3.076V81.961H89.6v11.586h-3.265z" fill="#336782"/>
	<path d="m126.667 20.142.75-.41c-.556.479-1.1.968-1.67 1.434-1.441 1.188-2.891 2.365-4.336 3.547q-2.453 2.007-4.9 4.017c-1.749 1.437-3.491 2.881-5.24 4.316s-3.506 2.861-5.255 4.3-3.493 2.879-5.242 4.315c-1.612 1.324-3.23 2.64-4.841 3.964S92.714 48.277 91.1 49.6c-1.569 1.29-3.146 2.571-4.712 3.864-.265.219-.492.482-.737.725a.752.752 0 0 0-.084.174q-.539 2.744-1.069 5.489a1.563 1.563 0 0 1-.2-.311q-1.471-4.229-2.931-8.46a1.844 1.844 0 0 1 .3-.35q3.743-2.556 7.5-5.1 6.807-4.623 13.615-9.243l8.206-5.577a1.8 1.8 0 0 0 .18-.159 2.462 2.462 0 0 0 .249-.132q6-4.07 11.991-8.141c1.092-.74 2.174-1.491 3.259-2.237z" fill="#8599aa"/>
	<path d="M80.071 82.982h-2.648v-2.328h5.9a.694.694 0 0 1 .037.169 38.874 38.874 0 0 1-.516 7.636 16.924 16.924 0 0 1-.865 2.93 3.322 3.322 0 0 1-3.111 2.1 22.706 22.706 0 0 1-3.225-.067 2.949 2.949 0 0 1-1.737-.932 7.941 7.941 0 0 1-2.2-4.565 37.821 37.821 0 0 1-.328-7.565c.026-1.924.115-3.85.252-5.77a6.487 6.487 0 0 1 .964-3.056 5.6 5.6 0 0 1 4.24-2.544 4.875 4.875 0 0 1 5.07 2.1 19.761 19.761 0 0 1 1.118 2.13 4.405 4.405 0 0 1 .19.557l-2.945 1.508-.832-1.852a2.251 2.251 0 0 0-1.95-1.355 1.988 1.988 0 0 0-2.031 1.1 5.443 5.443 0 0 0-.706 2.666 826.327 826.327 0 0 0-.172 10.908 4.568 4.568 0 0 0 .889 2.68 2.2 2.2 0 0 0 2.1.839c.177-.01.351-.058.528-.07 1.309-.093 1.6-1.06 1.783-2.1a23.7 23.7 0 0 0 .241-4.986.619.619 0 0 0-.046-.133z" fill="#336782"/>
	<path d="M134.918 70.487c1.4 0 2.782-.029 4.158.013a10.885 10.885 0 0 1 1.979.281 5.487 5.487 0 0 1 2.787 1.625 3.22 3.22 0 0 1 .553.946 14.488 14.488 0 0 1 1.065 4.18 37.334 37.334 0 0 1 .291 3.791 23.117 23.117 0 0 1-1.166 8.457 5.038 5.038 0 0 1-4.448 3.528c-1.719.183-3.452.236-5.219.35zm3.121 2.453v18c.334 0 .635.013.934 0 1.893-.1 2.6-.672 3.059-2.51a19.761 19.761 0 0 0 .554-4.579c.023-1.8.02-3.61-.093-5.407a21.086 21.086 0 0 0-.575-3.624 2.2 2.2 0 0 0-1.739-1.727 17.446 17.446 0 0 0-2.14-.153z" fill="#879bac"/>
	<path d="M125.3 83.1v10.445h-3.323V69.774c.019-.011.054-.047.088-.046 1.337.035 2.676.051 4.012.121.691.037 1.378.168 2.066.26a3.975 3.975 0 0 1 3.094 2.287 9.411 9.411 0 0 1 .9 5.253 10.989 10.989 0 0 1-.331 2.134 4.205 4.205 0 0 1-3.76 3.122c-.891.128-1.794.132-2.746.195zm.1-2.679c1.933.091 2.841-.61 3.226-2.087a7.565 7.565 0 0 0 .066-3.168 2.763 2.763 0 0 0-2.172-2.283 7.085 7.085 0 0 0-1.12-.15z" fill="#889bac"/>
	<path d="M99.363 69.793a1.293 1.293 0 0 1 .325-.086q10.049 0 20.1.013c.094 0 .187.012.311.02v2.917h-3.31V93.55h-3.411V72.657h-3.688v-2.864z" fill="#879bac"/>
	<path d="M99.363 69.793h10.327v2.864h-3.278v20.887h-3.443V72.682h-3.606zM57.571 90.874h5.3v2.678h-8.627V69.467h3.327z" fill="#336782"/>
	<path d="M64.778 69.644h3.21c.092 0 .184.015.3.026v23.873h-3.67z" fill="#336783"/>
	<path d="M130.6 105.244c-.139.126-.222.192-.3.268a2.64 2.64 0 0 1-2.9.669 2.565 2.565 0 0 1-1.689-2.233 4.819 4.819 0 0 1 .462-2.744 2.692 2.692 0 0 1 4.252-.738c.036.04.08.073.161.147l.043-.836h.892v6.599a2.5 2.5 0 0 1-2.593 2.624 6.746 6.746 0 0 1-1.926-.254 1.672 1.672 0 0 1-1.179-1.864 7.2 7.2 0 0 1 .831.012c.083.009.181.149.218.25a2.036 2.036 0 0 0 3.394.439 1.85 1.85 0 0 0 .316-.86 13.764 13.764 0 0 0 .018-1.479zm-.072-2.125a3.941 3.941 0 0 0-.525-1.6 1.674 1.674 0 0 0-2.622-.286 2.7 2.7 0 0 0 0 3.725 1.632 1.632 0 0 0 1.772.4 2.413 2.413 0 0 0 1.371-2.239z" fill="#8696ac"/>
	<path d="M133.8 106.532h-1.18v-9.045h1.18v2.88a2.956 2.956 0 0 1 2.48-.471 2.36 2.36 0 0 1 1.884 2.312v4.318h-.89c-.006-.149-.019-.293-.019-.438v-3.9a1.537 1.537 0 0 0-1.121-1.568 1.714 1.714 0 0 0-2.153.776 1.554 1.554 0 0 0-.175.7c-.017 1.312-.008 2.625-.008 3.938z" fill="#8697ad"/>
	<path d="M112.422 108.81v-.86c.239 0 .455-.014.668 0a1.123 1.123 0 0 0 1.066-.624 2 2 0 0 0 .12-2.085c-.748-1.666-1.435-3.359-2.146-5.041-.056-.134-.1-.271-.183-.475a6.02 6.02 0 0 1 .9.015c.1.016.215.187.266.31.558 1.347 1.1 2.7 1.656 4.049.061.15.128.3.231.538.156-.391.289-.706.408-1.026.431-1.148.87-2.293 1.276-3.45.118-.335.268-.5.636-.446a4.9 4.9 0 0 0 .658 0 2.836 2.836 0 0 1-.072.336q-1.276 3.579-2.559 7.155a4.658 4.658 0 0 1-.339.7c-.586 1.051-1.544 1.062-2.586.904zM139.7 97.872h1.168v1.734h1.148v.986h-1.1c-.011.166-.028.309-.028.452v3.651c0 .583.1.682.686.705h.476v1.145c-.526 0-1.032.03-1.532-.009a1.081 1.081 0 0 1-.873-1.17c-.007-1.381 0-2.763-.006-4.144v-.481h-1.035v-1h1.096zm-29.706 2.828h-1.166v5.822h-1.1v-5.806h-.96v-.881h1.06a10.772 10.772 0 0 1 .113-1.095c.2-.945.506-1.2 1.466-1.285.054 0 .109-.005.163-.007.727-.019.748.006.65.663a3.633 3.633 0 0 0-1.26.516c-.238.24-.209.747-.313 1.2h1.344z" fill="#8696ac"/>
	<path d="M110.457 106.523V97.53h1.151v8.993z" fill="#8697ad"/>
	<path d="M122.7 106.529h-1.151v-9h1.151z" fill="#8697ac"/>
	<path d="M84.5 59.853q.532-2.745 1.069-5.489a.752.752 0 0 1 .084-.174c.872.582 1.746 1.161 2.612 1.751a1.607 1.607 0 0 1 .272.311q-1.877 1.69-3.753 3.382c-.084.08-.184.146-.284.219z" fill="#336682"/>
	<path d="M123.613 99.841h1.151v6.675h-1.151zm1.143-.614h-1.142v-1.7h1.142z" fill="#8697ad"/>
	<path d="M144.548 105.444v1.083h-1.087v-1.083z" fill="#8999af"/>
	<path d="M122.594 21.734q-2.884 1.371-5.761 2.757-4.154 1.994-8.3 3.988-2.861 1.372-5.724 2.74-4.227 2.028-8.452 4.06-2.787 1.336-5.577 2.668-4.208 2.017-8.415 4.041c-1.734.835-3.464 1.679-5.2 2.516-.241.116-.489.217-.818.361.235.21.405.366.579.516q1.407 1.213 2.814 2.423c.773.666 1.553 1.325 2.314 2 .455.407.881.847 1.32 1.273a1.844 1.844 0 0 1 .3-.35q3.743-2.556 7.5-5.1 6.807-4.623 13.615-9.243l8.206-5.577a1.8 1.8 0 0 0 .18-.159 2.682 2.682 0 0 0 .249-.132q6-4.07 11.991-8.141c1.089-.741 2.17-1.492 3.255-2.238l.75-.41.655-.582c-1.829.866-3.657 1.722-5.481 2.589z" fill="#d8e1e7"/>
</svg>
