<svg xmlns="http://www.w3.org/2000/svg" viewBox="395.08 337.08 1971.84 493.84">
	<path fill="none" d="M0 0h2766v1170H0z" data-name="Rectangle 31"/>
	<g data-name="Group 6">
		<path fill="#7b00f4" d="M511.731 792.864h165.96l165.966-245.876h-157.36Z" data-name="Path 25"/>
		<path fill="#b627ff" d="M453.9-432.7h165.96L503.071-260.588H659.2L567-124.128H248.6Z" data-name="Path 24" transform="translate(184.457 807.576)" style="isolation:isolate"/>
		<path d="m558.442 727.707 186.229-44.259H589.18Z" data-name="Path 26" opacity=".4"/>
	</g>
	<g data-name="Group 7" opacity=".75">
		<path d="M938.726 500.137a18.589 18.589 0 0 1 18.856-18.856 18.582 18.582 0 0 1 18.849 18.856v208.055a18.873 18.873 0 0 1-18.849 19.2 18.88 18.88 0 0 1-18.856-19.2Z" data-name="Path 12"/>
		<path d="M1003.173 504.246a22.235 22.235 0 0 1 22.28-22.28 22.235 22.235 0 0 1 22.28 22.28 22.46 22.46 0 0 1-22.28 22.287 22.46 22.46 0 0 1-22.28-22.287Zm3.423 61.016a18.587 18.587 0 0 1 18.856-18.849 18.581 18.581 0 0 1 18.849 18.849v142.934a18.874 18.874 0 0 1-18.848 19.19 18.88 18.88 0 0 1-18.856-19.195Z" data-name="Path 13"/>
		<path d="M1067.266 636.901c0-50.73 37.366-90.835 86.719-90.835a83.779 83.779 0 0 1 56.9 21.6v-2.4a18.587 18.587 0 0 1 18.856-18.849 18.58 18.58 0 0 1 18.849 18.849V702.03c0 51.414-41.129 90.834-92.543 90.834-29.134 0-52.1-12.34-65.47-27.419-3.431-4.116-5.485-8.917-5.485-12.686 0-10.624 8.225-17.818 18.51-17.818 7.54 0 11.656 4.454 16.448 8.563 9.255 8.57 20.91 14.4 36 14.4 29.82 0 52.446-22.964 54.5-51.422a84.292 84.292 0 0 1-56.561 21.256c-49.357-.002-86.723-40.107-86.723-90.837Zm143.619 2.4v-2.4c0-31.881-23.3-55.869-52.784-55.869s-52.782 23.988-52.782 55.869 23.3 55.866 52.782 55.866c28.788 0 51.418-22.616 52.784-53.466Z" data-name="Path 14"/>
		<path d="M1278.755 500.137a18.589 18.589 0 0 1 18.856-18.856 18.582 18.582 0 0 1 18.849 18.856v61.008a70.176 70.176 0 0 1 43.541-15.078c40.79 0 73.01 30.85 73.01 79.864v82.261a19.1 19.1 0 0 1-18.861 19.2 18.874 18.874 0 0 1-18.849-19.2v-83.634c0-28.8-17.479-43.529-39.421-43.529-21.595 0-39.42 14.733-39.42 43.529v83.634a18.873 18.873 0 0 1-18.849 19.2 18.88 18.88 0 0 1-18.856-19.2Z" data-name="Path 15"/>
		<path d="M1439.183 566.977a17.336 17.336 0 0 1 17.48-17.479h12.34v-25.711a18.594 18.594 0 0 1 18.856-18.856 18.587 18.587 0 0 1 18.849 18.856v25.711h40.1a17.331 17.331 0 0 1 17.479 17.479 17.551 17.551 0 0 1-17.479 17.479h-40.1v62.042c0 30.165 16.794 45.591 40.1 45.591a17.551 17.551 0 0 1 17.479 17.479 17.623 17.623 0 0 1-17.479 17.822c-44.214 0-77.81-31.189-77.81-80.9v-62.039h-12.34a17.557 17.557 0 0 1-17.475-17.474Z" data-name="Path 16"/>
		<path d="M1583.149 500.137a18.589 18.589 0 0 1 18.856-18.856 18.582 18.582 0 0 1 18.848 18.856v208.055a18.873 18.873 0 0 1-18.848 19.2 18.879 18.879 0 0 1-18.856-19.2Z" data-name="Path 17"/>
		<path d="M1658.22 705.795V565.261a18.581 18.581 0 0 1 18.846-18.849 18.581 18.581 0 0 1 18.849 18.849v95.635l90.835-108.314c3.77-4.116 7.539-6.17 13.025-6.17 9.94 0 17.825 7.194 17.825 17.133a16 16 0 0 1-4.109 11.317l-177.213 211.489c-3.769 4.108-7.885 6.17-13.024 6.17-10.286 0-18.164-7.2-18.164-17.141a17.692 17.692 0 0 1 4.108-11.309Z" data-name="Path 18"/>
		<path d="M1832.967 566.977a17.337 17.337 0 0 1 17.491-17.479h12.34v-25.711a18.587 18.587 0 0 1 18.849-18.856 18.587 18.587 0 0 1 18.849 18.856v25.711h40.105a17.331 17.331 0 0 1 17.479 17.479 17.551 17.551 0 0 1-17.479 17.479h-40.11v62.042c0 30.165 16.8 45.591 40.105 45.591a17.551 17.551 0 0 1 17.479 17.479 17.623 17.623 0 0 1-17.479 17.826c-44.214 0-77.8-31.189-77.8-80.9v-62.039h-12.338a17.558 17.558 0 0 1-17.491-17.478Z" data-name="Path 19"/>
		<path d="M1973.508 504.246a22.234 22.234 0 0 1 22.28-22.28 22.235 22.235 0 0 1 22.28 22.28 22.46 22.46 0 0 1-22.28 22.287 22.459 22.459 0 0 1-22.28-22.287Zm3.431 61.016a18.581 18.581 0 0 1 18.849-18.849 18.587 18.587 0 0 1 18.856 18.849v142.934a18.879 18.879 0 0 1-18.856 19.19 18.873 18.873 0 0 1-18.849-19.195Z" data-name="Path 20"/>
		<path d="M2037.609 636.901c0-50.73 38.728-90.835 90.834-90.835 28.789 0 52.784 12.34 65.809 27.765 3.424 4.116 5.485 8.909 5.485 13.025 0 10.286-7.885 17.479-18.51 17.479-7.539 0-11.31-3.77-16.11-7.878-8.57-8.57-20.226-15.425-36.674-15.425-29.48 0-52.791 24.68-52.791 55.869 0 30.85 23.311 55.869 52.791 55.869a49.746 49.746 0 0 0 36.328-15.425c4.8-4.108 8.917-8.571 16.456-8.571 10.625 0 18.51 7.547 18.51 18.172 0 3.77-2.061 8.57-5.485 12.34-13.025 15.764-36.674 28.449-65.809 28.449-52.106.001-90.834-40.104-90.834-90.834Z" data-name="Path 21"/>
		<path d="M2231.619 669.121c5.485 0 10.286 2.4 13.025 6.854 5.147 7.54 12.34 17.826 27.081 17.826 11.309 0 19.541-8.571 19.541-18.51 0-14.055-13.026-19.541-29.135-25.019-21.595-7.547-45.936-16.8-45.936-52.107 0-29.135 24-52.1 55.53-52.1 29.134 0 55.869 17.825 55.869 39.42 0 9.594-7.878 16.795-17.479 16.795-3.77 0-8.57-1.369-10.963-6.17-5.831-6.516-14.056-16.456-27.426-16.456-11.656 0-19.2 8.571-19.2 18.51 0 14.056 14.394 18.51 31.88 24.342 20.911 6.508 44.56 17.479 44.56 51.753 0 28.8-25.026 53.476-57.245 53.476-30.5 0-57.239-19.879-57.239-41.136a17.263 17.263 0 0 1 17.137-17.478Z" data-name="Path 22"/>
	</g>
</svg>
