<svg xmlns="http://www.w3.org/2000/svg" xmlns:xlink="http://www.w3.org/1999/xlink" width="200" height="128">
	<defs>
		<linearGradient id="a" x1="56.488" y1="54.964" x2="56.488" y2="39.212" gradientTransform="matrix(1 0 0 -1 0 108)" gradientUnits="userSpaceOnUse">
			<stop offset="0" stop-color="#2beda7"/>
			<stop offset="1" stop-color="#018afd"/>
		</linearGradient>
		<linearGradient id="b" x1="21.316" y1="54.964" x2="21.316" y2="39.212" xlink:href="#a"/>
		<linearGradient id="c" x1="56.488" y1="47.993" x2="56.488" y2="33.437" xlink:href="#a"/>
		<linearGradient id="d" x1="50.712" y1="44.645" x2="50.712" y2="30.104" xlink:href="#a"/>
		<linearGradient id="e" x1="44.937" y1="41.318" x2="44.937" y2="26.466" xlink:href="#a"/>
		<linearGradient id="f" x1="32.875" y1="41.312" x2="32.875" y2="26.458" xlink:href="#a"/>
		<linearGradient id="g" x1="27.092" y1="44.66" x2="27.092" y2="30.104" xlink:href="#a"/>
		<linearGradient id="h" x1="21.316" y1="47.993" x2="21.316" y2="33.437" xlink:href="#a"/>
	</defs>
	<path d="M65.764 71.528V56.765a1.319 1.319 0 0 1 1.324-1.293 1.3 1.3 0 0 1 1.279 1.293V70.63h6.818a1.151 1.151 0 0 1 1.172 1.111 1.183 1.183 0 0 1-1.172 1.172h-8.021a1.263 1.263 0 0 1-1.4-1.385zm15.646.198V56.75a1.319 1.319 0 0 1 1.324-1.294 1.3 1.3 0 0 1 1.278 1.294v14.976a1.3 1.3 0 0 1-2.6 0zm20.576.624-9.192-12.739v12.115a1.3 1.3 0 0 1-1.279 1.293 1.319 1.319 0 0 1-1.324-1.293v-14.55a1.719 1.719 0 0 1 1.72-1.72 1.662 1.662 0 0 1 1.37.7l9.009 12.4V56.75a1.3 1.3 0 0 1 1.279-1.294 1.32 1.32 0 0 1 1.324 1.294v14.656a1.624 1.624 0 0 1-1.613 1.613 1.463 1.463 0 0 1-1.294-.669zm22.038-.563a1.223 1.223 0 0 1-1.188 1.248 1.144 1.144 0 0 1-.913-.366l-6.59-7.244-1.659 1.765v4.536a1.294 1.294 0 0 1-2.587 0V56.75a1.313 1.313 0 0 1 1.294-1.294 1.293 1.293 0 0 1 1.293 1.294v7.473l7.625-8.386a1.173 1.173 0 0 1 .913-.4 1.205 1.205 0 0 1 1.218 1.187 1.077 1.077 0 0 1-.335.837l-6.027 6.408 6.621 7.061a1.466 1.466 0 0 1 .335.857zm5.235-.259V56.963a1.245 1.245 0 0 1 1.4-1.37h9.193a1.183 1.183 0 0 1 1.172 1.172 1.151 1.151 0 0 1-1.172 1.111h-7.991v5.068h7.808a1.151 1.151 0 0 1 1.172 1.111 1.182 1.182 0 0 1-1.172 1.172h-7.808v5.4h7.991a1.15 1.15 0 0 1 1.171 1.111 1.182 1.182 0 0 1-1.171 1.172h-9.193a1.269 1.269 0 0 1-1.4-1.382zm30.104.304a1.234 1.234 0 0 1-1.218 1.187 1.363 1.363 0 0 1-1.1-.548l-4.337-6.255h-3.653v5.51a1.3 1.3 0 0 1-1.278 1.293 1.318 1.318 0 0 1-1.324-1.293V56.963a1.245 1.245 0 0 1 1.4-1.37h5.89c3.3 0 5.555 2.131 5.555 5.327a4.766 4.766 0 0 1-3.866 4.977l3.653 5.144a1 1 0 0 1 .278.791zm-10.3-7.883h4.353a3.048 3.048 0 1 0 0-6.088h-4.353zm15.779 7.579V56.963a1.245 1.245 0 0 1 1.4-1.37h4.779c5.4 0 8.979 3.683 8.979 8.675 0 5.007-3.577 8.645-8.979 8.645h-4.779a1.263 1.263 0 0 1-1.4-1.385zm6.179-.913a6.028 6.028 0 0 0 6.3-6.362c0-3.561-2.237-6.377-6.3-6.377h-3.577v12.739z"/>
	<path fill="url(#a)" d="M55.172 53.036v14.246l2.633 1.506v-14.23l-2.633-1.522z"/>
	<path fill="url(#b)" d="m20 68.788 2.633-1.506V53.036L20 54.558v14.23z"/>
	<path d="m32.86 68.651 12.084 6.971v-3.029l-11.308-6.529-.776.441v2.146zm12.769 11.004L32.86 72.289v3.028l3.409 1.964-4.094 2.374a.414.414 0 0 0 0 .715l2.009 1.157L38.9 78.8l4.718 2.724 2.009-1.157a.414.414 0 0 0 .002-.712z" fill="#2beda7"/>
	<path d="M55.172 61.529v12.617a.422.422 0 0 0 .624.365l1.8-1.035a.444.444 0 0 0 .213-.365v-13.1z" fill="url(#c)"/>
	<path d="m50.028 77.844 1.689-.974a.6.6 0 0 0 .3-.533V63.355L49.4 64.877v12.617a.417.417 0 0 0 .628.35z" fill="url(#d)"/>
	<path d="m43.62 81.527 2.42-1.4a.442.442 0 0 0 .213-.366v-13.1l-2.618 1.519v13.347z" fill="url(#e)"/>
	<path d="m31.764 80.142 2.42 1.4V68.21l-2.617-1.522v13.1a.361.361 0 0 0 .197.354z" fill="url(#f)"/>
	<path d="m26.088 76.87 1.689.974a.422.422 0 0 0 .624-.365V64.862l-2.618-1.522v12.982a.626.626 0 0 0 .305.548z" fill="url(#g)"/>
	<path d="m20.32 73.537 1.689.974a.422.422 0 0 0 .624-.365V61.529L20 60.007v12.982a.64.64 0 0 0 .32.548z" fill="url(#h)"/>
	<path d="m57.805 54.558-2.633-1.522-4.718 2.725L47.3 53.95l4.11-2.375a.414.414 0 0 0 0-.715l-1.69-.974a.652.652 0 0 0-.624 0l-4.413 2.542-3.151-1.811 4.109-2.375a.414.414 0 0 0 0-.715l-1.689-.974a.647.647 0 0 0-.624 0l-4.41 2.547-4.418-2.562a.647.647 0 0 0-.624 0l-1.705.989a.414.414 0 0 0 0 .715l23 13.287 2.617-1.522-4.718-2.724zM28.1 49.886l-1.705.974a.414.414 0 0 0 0 .715l23 13.287 2.633-1.522-23.3-13.454a.652.652 0 0 0-.628 0zM20 54.558l4.733 2.725L20 60.022l2.633 1.507 4.718-2.724 3.15 1.811-4.718 2.739 2.618 1.507 4.733-2.724 3.135 1.811-4.718 2.739 2.633 1.507 4.718-2.724 4.718 2.724 2.633-1.507-23.62-13.652L20 54.558z" fill="#2beda7"/>
</svg>
