<svg xmlns="http://www.w3.org/2000/svg" viewBox="-16.36 -16.36 850.72 290.22">
	<path fill="#6d359d" d="M195.955.005c-12.08 0-21.846 9.794-21.846 21.888 0 12.057 9.765 21.835 21.846 21.835 12.057 0 21.849-9.778 21.849-21.835 0-12.094-9.792-21.888-21.849-21.888m-47.92 91.953 27.3-35.937a5.562 5.562 0 0 0 .29-6.303L164.03 31.113a5.563 5.563 0 0 0-4.758-2.619l-50.045.35-27.437-.022c-2.149 0-3.103 2.701-1.432 4.05l7.69 6.2a8.4 8.4 0 0 0 3.727 1.72l47.658 8.978-58.953 63.358L2.889 124.15c-2.687.381-3.835 3.628-1.983 5.613l7.578 8.126a7.776 7.776 0 0 0 5.808 2.47l74.905-1.23a15.6 15.6 0 0 0 7.856-2.274l17.948-10.929 37.878 30.063a7.387 7.387 0 0 1 2.724 4.788l7.21 53.091a5.05 5.05 0 0 0 5.004 4.37h3.857a5.05 5.05 0 0 0 5.05-5.031l.222-58.918c.01-3.04-.961-6.002-2.774-8.443L141.123 101.3l6.912-9.342"/>
	<path fill="#153b43" d="M339.38 77.8c0-10.844-8.478-17.545-19.517-17.545h-29.57v35.484h29.57c11.04 0 19.517-6.702 19.517-17.94zm-2.76 89.301-25.825-46.721h-20.502V167.1h-27.994V35.611h61.508c27.402 0 44.354 17.94 44.354 42.384 0 23.065-14.784 35.682-28.979 39.034l29.769 50.072H336.62m52.432 0V35.611h93.05v24.644h-65.055v27.599h63.674v24.64h-63.674v29.967H482.1v24.64h-93.05M581.06 77.995c0-11.04-8.477-17.74-19.516-17.74h-29.572v35.287h29.572c11.039 0 19.516-6.704 19.516-17.547zm-77.08 89.106V35.611h61.506c28.584 0 44.158 19.321 44.158 42.384 0 22.87-15.77 42.189-44.158 42.189H531.97V167.1h-27.993m122.024 0V35.611h28.191v106.85h55.592v24.64h-83.783m114.337 0v-53.817L689.872 35.61h31.937l32.527 52.636 32.527-52.636h31.74l-50.272 77.673V167.1H740.34"/>
	<path fill="#6d359d" d="M261.61 254.629v-54.782h9.61v46.322h24.146v8.46H261.61m42.217 0v-54.782h9.61v54.782h-9.61m54.616-9.2-6.815-7.719 6.734-5.585 6.817 7.72c2.381-3.367 3.696-7.72 3.696-12.567 0-11.334-7.146-19.793-18.151-19.793-11.088 0-18.15 8.459-18.15 19.793 0 11.253 7.062 19.794 18.15 19.794 2.875 0 5.42-.574 7.72-1.642zm-35.725-18.15c0-16.344 11.58-28.336 28.006-28.336 16.343 0 28.007 11.992 28.007 28.335 0 7.885-2.71 14.703-7.31 19.712l4.518 5.093-6.653 5.584-4.764-5.338c-4.024 2.135-8.705 3.285-13.798 3.285-16.427 0-28.006-11.99-28.006-28.336m65.217 5.668v-33.099h9.773V232.7c0 8.707 4.845 14.373 13.96 14.373 9.118 0 13.963-5.666 13.963-14.373v-32.852h9.774v33.1c0 13.551-7.802 22.667-23.736 22.667-15.85 0-23.734-9.116-23.734-22.668m59.135 21.683v-54.782h9.61v54.782h-9.61m60.45-27.432c0-10.513-6.57-18.89-18.727-18.89h-10.84v37.862h10.76c11.907 0 18.807-8.542 18.807-18.972zm-39.177 27.432v-54.782h20.37c17.164 0 28.662 11.335 28.662 27.35 0 16.18-11.498 27.432-28.582 27.432h-20.45"/>
</svg>
