<svg xmlns="http://www.w3.org/2000/svg" height="257.667" width="818.627" xml:space="preserve">
	<path style="fill:#6d359d;fill-opacity:1;fill-rule:nonzero;stroke:none" d="M1469.7 1932.51c-90.61 0-163.85-73.45-163.85-164.16 0-90.43 73.24-163.77 163.85-163.77 90.43 0 163.87 73.34 163.87 163.77 0 90.71-73.44 164.16-163.87 164.16" transform="matrix(.13333 0 0 -.13333 0 257.667)"/>
	<path style="fill:#6d359d;fill-opacity:1;fill-rule:nonzero;stroke:none" d="m1110.29 1242.85 204.75 269.53a41.718 41.718 0 0 1 2.18 47.28l-86.96 139.54a41.725 41.725 0 0 1-35.68 19.64l-375.346-2.62-205.789.16c-16.113 0-23.273-20.26-10.734-30.37l57.668-46.5a63.005 63.005 0 0 1 27.957-12.9l357.444-67.34-442.159-475.2-581.953-82.67c-20.156-2.857-28.762-27.205-14.875-42.095l56.836-60.946a58.322 58.322 0 0 1 43.566-18.527l561.797 9.227a116.997 116.997 0 0 1 58.926 17.05l134.609 81.973 284.093-225.48a55.401 55.401 0 0 0 20.43-35.911l54.08-398.191c2.55-18.77 18.58-32.77 37.53-32.77h28.93c20.86 0 37.8 16.872 37.88 37.731l1.66 441.891a105.579 105.579 0 0 1-20.81 63.328l-247.87 334.1 51.84 70.07" transform="matrix(.13333 0 0 -.13333 0 257.667)"/>
	<path style="fill:#153b43;fill-opacity:1;fill-rule:nonzero;stroke:none" d="M2545.41 1349.04c0 81.33-63.58 131.59-146.38 131.59h-221.78v-266.14h221.78c82.8 0 146.38 50.27 146.38 134.55zm-20.7-669.778-193.69 350.418h-153.77V679.262h-209.96v986.198h461.32c205.52 0 332.67-134.55 332.67-317.89 0-172.99-110.89-267.62-217.35-292.76l223.27-375.548h-242.49" transform="matrix(.13333 0 0 -.13333 0 257.667)"/>
	<path style="fill:#153b43;fill-opacity:1;fill-rule:nonzero;stroke:none" d="M2917.96 679.262v986.198h697.89v-184.83h-487.92v-207h477.57v-184.81h-477.57V864.07h487.92V679.262h-697.89" transform="matrix(.13333 0 0 -.13333 0 257.667)"/>
	<path style="fill:#153b43;fill-opacity:1;fill-rule:nonzero;stroke:none" d="M4358.05 1347.57c0 82.8-63.58 133.06-146.37 133.06h-221.8v-264.66h221.8c82.79 0 146.37 50.28 146.37 131.6zm-578.12-668.308v986.198h461.31c214.39 0 331.2-144.91 331.2-317.89 0-171.52-118.28-316.42-331.2-316.42h-251.36V679.262h-209.95" transform="matrix(.13333 0 0 -.13333 0 257.667)"/>
	<path style="fill:#153b43;fill-opacity:1;fill-rule:nonzero;stroke:none" d="M4695.13 679.262v986.198h211.44V864.07h416.95V679.262h-628.39" transform="matrix(.13333 0 0 -.13333 0 257.667)"/>
	<path style="fill:#153b43;fill-opacity:1;fill-rule:nonzero;stroke:none" d="M5552.68 679.262V1082.9l-378.51 582.56h239.53l243.96-394.78 243.96 394.78h238.05l-377.04-582.56V679.262h-209.95" transform="matrix(.13333 0 0 -.13333 0 257.667)"/>
	<path style="fill:#6d359d;fill-opacity:1;fill-rule:nonzero;stroke:none" d="M1962.13 22.79v410.87h72.07V86.238h181.1V22.79h-253.17" transform="matrix(.13333 0 0 -.13333 0 257.667)"/>
	<path style="fill:#6d359d;fill-opacity:1;fill-rule:nonzero;stroke:none" d="M2278.77 22.79v410.87h72.07V22.79h-72.07" transform="matrix(.13333 0 0 -.13333 0 257.667)"/>
	<path style="fill:#6d359d;fill-opacity:1;fill-rule:nonzero;stroke:none" d="m2688.4 91.781-51.12 57.899 50.51 41.89 51.13-57.898c17.86 25.25 27.72 57.898 27.72 94.25 0 85.008-53.6 148.449-136.14 148.449-83.16 0-136.13-63.441-136.13-148.449 0-84.402 52.97-148.461 136.13-148.461 21.57 0 40.66 4.308 57.9 12.32zm-267.95 136.141c0 122.578 86.85 212.519 210.05 212.519 122.58 0 210.06-89.941 210.06-212.519 0-59.141-20.33-110.274-54.82-147.84l33.88-38.203L2769.72 0l-35.73 40.04c-30.18-16.02-65.29-24.642-103.49-24.642-123.2 0-210.05 89.93-210.05 212.524" transform="matrix(.13333 0 0 -.13333 0 257.667)"/>
	<path style="fill:#6d359d;fill-opacity:1;fill-rule:nonzero;stroke:none" d="M2909.59 185.41v248.25h73.3V187.262c0-65.301 36.34-107.801 104.71-107.801 68.38 0 104.72 42.5 104.72 107.801V433.66h73.31V185.41c0-101.64-58.52-170.012-178.03-170.012-118.88 0-178.01 68.372-178.01 170.012" transform="matrix(.13333 0 0 -.13333 0 257.667)"/>
	<path style="fill:#6d359d;fill-opacity:1;fill-rule:nonzero;stroke:none" d="M3353.12 22.79v410.87h72.07V22.79h-72.07" transform="matrix(.13333 0 0 -.13333 0 257.667)"/>
	<path style="fill:#6d359d;fill-opacity:1;fill-rule:nonzero;stroke:none" d="M3806.5 228.531c0 78.848-49.28 141.68-140.45 141.68h-81.31V86.238h80.7c89.31 0 141.06 64.063 141.06 142.293zM3512.67 22.789V433.66h152.77c128.74 0 214.98-85.012 214.98-205.129 0-121.351-86.24-205.742-214.37-205.742h-153.38" transform="matrix(.13333 0 0 -.13333 0 257.667)"/>
</svg>
