<svg width="86" height="34" fill="none" xmlns="http://www.w3.org/2000/svg">
	<path d="M41.589 22.883v1.614h-6.864V9.19h2.019v13.693h4.845Z" fill="#000"/>
	<path d="M46.025 24.497H44.01V13.192h2.016v11.305Zm-1.01-13.303c-.331 0-.62-.107-.866-.321-.23-.229-.342-.529-.342-.9 0-.372.111-.665.342-.88a1.23 1.23 0 0 1 .867-.343c.332 0 .614.115.845.343.245.215.368.508.368.88 0 .371-.123.671-.368.9a1.197 1.197 0 0 1-.845.321Z" fill="#000"/>
	<path d="M50.47 13.192h2.826v1.587H50.47l-.001 5.99c0 .77.137 1.314.411 1.629.29.3.672.45 1.149.45.245 0 .476-.036.693-.108a2.47 2.47 0 0 0 .585-.257l.368 1.48c-.592.342-1.375.514-2.04.514-1.068 0-1.87-.293-2.404-.879-.52-.6-.78-1.586-.78-2.958l.001-10.47 2.018-.322v3.344Z" fill="#000"/>
	<path d="M55.719 12.96a12.769 12.769 0 0 1 1.68-.398 8.704 8.704 0 0 1 1.657-.177c.516 0 .98.066 1.393.199.427.133.803.354 1.127.664a6.048 6.048 0 0 1 1.238-.62 4.205 4.205 0 0 1 1.459-.243c.53 0 1.01.08 1.437.243a2.47 2.47 0 0 1 1.127.774c.31.37.552.87.73 1.505.176.62.264 1.393.264 2.322v7.268h-1.9v-7.113c0-1.15-.133-1.99-.398-2.522-.266-.53-.767-.796-1.503-.796a2.6 2.6 0 0 0-.862.155 3.43 3.43 0 0 0-.796.42c.118.34.206.723.265 1.15.059.428.088.907.088 1.438v7.268h-1.9v-7.113c0-1.15-.133-1.99-.398-2.522-.265-.53-.766-.796-1.503-.796-.383 0-.818.074-1.304.221v10.21h-1.901V12.96Z" fill="#000"/>
	<path d="M77.497 23.94a6.793 6.793 0 0 1-.693.214c-.26.058-.542.108-.845.15-.289.058-.585.1-.888.13a5.802 5.802 0 0 1-2.426-.15 2.737 2.737 0 0 1-1.257-.708c-.347-.343-.614-.808-.802-1.394-.188-.6-.281-1.35-.281-2.25v-6.74h1.863v6.675c0 1.1.166 1.88.498 2.337.347.443.867.664 1.56.664.231 0 .462-.007.693-.021.231-.029.47-.079.715-.15v-9.505h1.863V23.94Z" fill="#000"/>
	<path d="M82.202 22.87c.586 0 1.026-.153 1.32-.461.308-.322.463-.74.463-1.253 0-.322-.062-.593-.186-.813a2.135 2.135 0 0 0-.486-.616c-.2-.176-.432-.33-.694-.462a21.46 21.46 0 0 1-.788-.461 6.212 6.212 0 0 1-.764-.506 4.788 4.788 0 0 1-.671-.681 4.035 4.035 0 0 1-.463-.88 3.82 3.82 0 0 1-.162-1.165c0-.952.308-1.722.926-2.308.633-.586 1.482-.88 2.547-.88.447 0 .872.06 1.273.177.402.102.734.22.996.351l-.44 1.517a3.94 3.94 0 0 0-.833-.33 3.532 3.532 0 0 0-.904-.11c-.493 0-.887.14-1.18.418-.294.264-.44.652-.44 1.165 0 .294.054.55.162.77.108.205.247.395.416.571.186.162.386.315.602.462.232.146.471.286.718.418.293.16.58.337.857.527.293.19.548.418.764.682.232.249.417.55.556.9.139.338.208.748.208 1.232 0 1.011-.316 1.825-.95 2.44-.617.616-1.527.923-2.731.923a5.37 5.37 0 0 1-1.668-.241c-.494-.162-.864-.308-1.11-.44l.416-1.56c.231.116.54.248.926.395.401.146.841.22 1.32.22Z" fill="#000"/>
	<path fill-rule="evenodd" clip-rule="evenodd" d="M26.244.272H0v30.625c0 1.371 1.102 2.483 2.46 2.483h21.324c1.359 0 2.46-1.112 2.46-2.483V.272Z" fill="#858CDD"/>
	<path d="M4.037 4.31h4.038v9.286H4.037V4.31Z" fill="#5B44BA"/>
	<path d="M4.037 12.788h4.038v16.554H4.037V12.788Z" fill="#fff"/>
	<path d="M10.094 25.305h12.112v4.038H10.094v-4.038Z" fill="#fff"/>
</svg>
