<svg version="1.1" id="Layer_1" xmlns="http://www.w3.org/2000/svg" x="0" y="0" viewBox="0 0 500 412" style="enable-background:new 0 0 500 412" xml:space="preserve">
	<style>
		.st3{fill:#404040}
	</style>
	<switch>
		<g>
			<path d="M175.2 118.6c-3.2.7-6.3 1.5-9.2 2.3-1 .3-2 .5-3 .8-3.1.9-6.1 1.8-8.9 2.7-13.2 4.4-24.3 9.6-32.9 15.5C84.9 165 77.8 218 105.4 258.1c13.4 19.4 32.8 32.9 54.8 38 21.9 5.1 43.7 1.2 61.3-10.9 5-3.4 10.1-7.8 15.2-12.9-2.5-3.3-12.2-16-24.4-34.2-6.3 7.2-11.2 11.2-14.1 13.2-5.8 4-12.4 5.9-19.3 5.9-14.3 0-29.5-8.1-39.4-22.5-14.7-21.3-12.3-48.6 5.3-60.8 6-4.1 14.4-7.9 24.9-11.1 2.6-.8 5.3-1.6 8.2-2.3 1.3-.3 2.7-.7 4-1 2.8-.7 5.6-1.3 8.4-1.9 10.6-2.2 22.6-4 35.6-5.4 2.6-.3 5.3-.6 7.9-.8 1.8-.2 3.7-.3 5.5-.5 2.8-.2 5.5-.4 8.3-.6 2.9-.2 5.7-.4 8.6-.5 7.6-14.4 13.6-27.6 17.8-39.3.3-.9.6-1.8.9-2.6-9.3.2-18.5.6-27.3 1.1v-.6.6c-9.3.6-18.3 1.3-27 2.3-4.3.5-8.5 1-12.7 1.6l-.2-1.2.2 1.2c-11.7 1.4-22.8 3.4-32.7 5.7z" style="fill:#ffd042"/>
			<path d="M373.8 139.9c-8.5-5.8-19.3-11-32.3-15.3-3.8 11.9-8.9 24.7-15.3 38.3 10.2 3.2 18.4 6.9 24.2 10.9 17.7 12.2 20 39.5 5.3 60.8-9.9 14.4-25.1 22.5-39.4 22.5-6.9 0-13.6-1.9-19.3-5.9-3.1-2.1-8.1-6.2-14.7-13.8-.6-.7-1.3-1.5-1.9-2.3l.5-.4-.5.4c-2-2.5-4.2-5.2-6.3-8.1-.6-.9-1.3-1.7-1.9-2.7-7.5-10.5-15.1-23.2-22.7-37.8-.8-1.6-1.7-3.3-2.5-5-2.3-4.5-4.6-9.3-6.9-14.3l-.4-.9c-.3-.6-.6-1.3-.9-1.9-2.2.2-4.3.4-6.5.6-13.2 1.3-25.3 3-36.1 5.1 6.5 14.9 13.2 28.8 20 41.3 2.2 4.1 4.5 8.2 6.8 12.1 8.3 14.4 16.8 26.8 25.1 37 .5.6 1 1.2 1.5 1.9l-.5.4.5-.4c2.2 2.6 4.5 5.2 6.8 7.6.6.6 1.2 1.2 1.7 1.8l-.4.4.4-.4c5.2 5.3 10.4 9.8 15.5 13.3 17.6 12.1 39.4 16 61.3 10.9s41.4-18.6 54.8-38c27.5-40 20.4-93-15.9-118.1z" style="fill:#02a981"/>
			<path d="M162.9 107.6c12.1-3.2 25.7-5.9 40.4-8.1-.4-1.7-.8-3.4-1.2-5-1.1-5.4-1.7-10.2-1.7-14.4 0-21.5 21.1-38.9 47-38.9s47 17.5 47 38.9c0 2.8-.3 7.5-1.8 14.4-.4 1.8-.8 3.8-1.3 5.7-.6 2.2-1.2 4.5-2 6.9-.5 1.7-1.1 3.4-1.7 5.2-4.2 12.2-10.2 25.9-18 40.7-2 3.8-4.1 7.8-6.4 11.9-1.6 2.9-3.3 5.9-5 8.8 7.2 14.5 14.5 27.3 21.6 37.9.6 1 1.3 1.9 1.9 2.8 9.4-14.9 17.8-29.4 24.9-43.2 2-3.8 3.9-7.7 5.7-11.4 6.8-14.2 12.2-27.5 16.1-39.6 1.3-4.1 2.4-8.1 3.4-11.9 1-4.2 1.9-8.5 2.5-12.5.9-5.5 1.3-10.8 1.3-15.6C335.6 36 296 .1 247.4.1S159.2 36 159.2 80.2c0 4.8.4 10 1.3 15.6.7 3.7 1.5 7.8 2.4 11.8z" style="fill:#60798d"/>
			<path class="st3" d="M0 348.7h11.4v52.8H37v9.5H0v-62.3z"/>
			<path class="st3" d="M86.9 388.1c0 16.5-11.6 23.9-23.1 23.9-12.8 0-22.6-8.8-22.6-23.2 0-14.8 9.7-23.9 23.3-23.9 13.4.1 22.4 9.5 22.4 23.2zm-33.9.4c0 8.7 4.3 15.3 11.2 15.3 6.5 0 11-6.4 11-15.4 0-7-3.1-15.1-10.9-15.1-8.1 0-11.3 7.7-11.3 15.2z"/>
			<path class="st3" d="m121.6 411-.7-5h-.3c-2.8 3.5-7.5 6-13.3 6-9.1 0-14.1-6.6-14.1-13.4 0-11.4 10.1-17.1 26.7-17v-.7c0-3-1.2-7.9-9.2-7.9-4.4 0-9.1 1.4-12.1 3.3l-2.2-7.4c3.3-2 9.2-4 16.3-4 14.4 0 18.6 9.2 18.6 19v16.3c0 4.1.2 8 .6 10.8h-10.3zm-1.5-22c-8-.2-15.7 1.6-15.7 8.4 0 4.4 2.9 6.5 6.5 6.5 4.5 0 7.9-3 8.9-6.2.3-.8.4-1.8.4-2.5V389z"/>
			<path class="st3" d="M184.7 345.4v53c0 4.6.2 9.6.4 12.7h-10.2l-.5-7.1h-.2c-2.7 5-8.1 8.1-14.7 8.1-10.7 0-19.2-9.2-19.2-23-.1-15.1 9.3-24 20.2-24 6.2 0 10.6 2.6 12.7 5.9h.2v-25.5h11.3zm-11.3 39.3c0-.9-.1-2-.3-3-1-4.4-4.6-8-9.8-8-7.3 0-11.4 6.5-11.4 14.9 0 8.2 4.1 14.2 11.3 14.2 4.6 0 8.7-3.1 9.8-8 .3-1 .4-2.1.4-3.3v-6.8z"/>
			<path class="st3" d="M216.5 349.5c4.3-.7 10.6-1.3 17.2-1.3 9 0 15.1 1.5 19.2 5 3.4 2.9 5.4 7.2 5.4 12.5 0 8-5.5 13.5-11.3 15.6v.3c4.4 1.7 7.1 6 8.7 12 1.9 7.8 3.6 15 4.9 17.4h-11.7c-.9-1.8-2.4-6.9-4.2-14.7-1.8-8.1-4.7-10.7-11.2-10.9h-5.7V411h-11.3v-61.5zm11.3 27.6h6.7c7.7 0 12.5-4.1 12.5-10.3 0-6.8-4.8-10-12.2-10-3.6 0-5.9.3-7 .6v19.7z"/>
			<path class="st3" d="M309 397.5c0 5.4.2 9.8.4 13.5h-10l-.6-6.8h-.2c-1.9 3.2-6.4 7.9-14.4 7.9-8.2 0-15.7-4.9-15.7-19.6V366h11.4v24.5c0 7.5 2.4 12.3 8.4 12.3 4.5 0 7.5-3.2 8.7-6.1.4-1 .6-2.2.6-3.5V366H309v31.5z"/>
			<path class="st3" d="M321.3 379.4c0-5.2-.1-9.5-.4-13.4h10l.6 6.7h.3c1.9-3.5 6.8-7.8 14.3-7.8 7.9 0 16 5.1 16 19.3V411h-11.4v-25.4c0-6.5-2.4-11.4-8.6-11.4-4.5 0-7.7 3.2-8.9 6.7-.4 1-.5 2.4-.5 3.7V411h-11.5v-31.6z"/>
			<path class="st3" d="M374.2 379.4c0-5.2-.1-9.5-.4-13.4h10l.6 6.7h.3c1.9-3.5 6.8-7.8 14.3-7.8 7.9 0 16 5.1 16 19.3V411h-11.4v-25.4c0-6.5-2.4-11.4-8.6-11.4-4.5 0-7.7 3.2-8.9 6.7-.4 1-.5 2.4-.5 3.7V411h-11.5v-31.6z"/>
			<path class="st3" d="M435.1 391.7c.3 8.1 6.7 11.6 13.9 11.6 5.3 0 9.1-.7 12.5-2l1.7 7.9c-3.9 1.6-9.2 2.8-15.7 2.8-14.6 0-23.2-9-23.2-22.7 0-12.5 7.6-24.2 22-24.2 14.6 0 19.4 12 19.4 21.9 0 2.1-.2 3.8-.4 4.8h-30.2zm19.8-8c.1-4.2-1.8-11-9.3-11-7 0-10 6.4-10.4 11h19.7z"/>
			<path class="st3" d="M474.8 380.5c0-6.1-.1-10.4-.4-14.5h9.9l.4 8.6h.4c2.2-6.4 7.5-9.6 12.3-9.6 1.1 0 1.8.1 2.7.3V376c-.9-.2-1.9-.4-3.3-.4-5.5 0-9.2 3.5-10.2 8.6-.2 1-.4 2.2-.4 3.5V411h-11.4v-30.5z"/>
		</g>
	</switch>
</svg>
