<svg xmlns="http://www.w3.org/2000/svg" viewBox="-2.53 -2.41 177.19 131.69">
	<mask id="a" width="172" height="127" x="0" y="0" maskUnits="userSpaceOnUse">
		<path fill="#C4C4C4" d="M0 0h171.938v127H0z"/>
	</mask>
	<g mask="url(#a)">
		<path fill="#00BDFF" d="M24.564 85.022c-4.424-.069-10.177-.316-12.968-1.209-2.723-.893-4.9-2.13-6.535-3.709-1.565-1.648-2.655-3.606-3.267-5.873-.545-2.335-.817-4.945-.817-7.83V11.344l15.214-8.25V63.31c0 1.373.103 2.61.307 3.709.204 1.099.578 2.026 1.123 2.781.613.756 1.463 1.374 2.553 1.855 1.089.48 2.247.425 4.39.425v12.941zm94.311-82.107c2.859 0 5.48.309 7.862.927 2.383.55 2.906 1.15 2.906 1.15v12.705c-1.362-.618-3.212-1.011-4.846-1.286-1.566-.343-3.029-.515-4.391-.515-1.838 0-3.403.275-4.697.824-1.225.481-2.212 1.168-2.961 2.06-.681.894-1.191 1.958-1.532 3.195-.272 1.236-.408 2.575-.408 4.018v2.679h18.788v12.775h-18.788v43.808H95.594V25.787c0-7.006 1.94-12.57 5.82-16.69 3.948-4.122 9.768-6.182 17.461-6.182zm19.002 20.558 15.214-8.28v14.84h18.269v12.775h-18.269v19.06c0 3.228.545 5.804 1.634 7.727 1.157 1.923 3.438 2.885 6.841 2.885 1.634 0 3.302-.137 5.004-.412 1.77-.343 3.36-.787 4.79-1.337V83.21c-1.784.825-1.727.878-3.973 1.427-2.247.55-5.004.825-8.271.825-4.153 0-7.591-.55-10.314-1.649-2.722-1.168-4.901-2.747-6.535-4.74-1.633-2.06-2.791-4.532-3.471-7.417-.613-2.885-.919-6.079-.919-9.582V23.473zM.977 100.279l83.476-.011v25.746H.977v-25.735zm31.086-42.272c0-5.113 1.169-9.69 3.506-13.735 2.413-4.044 5.768-7.21 10.066-9.5 4.298-2.365 9.236-3.548 14.816-3.548 5.655 0 10.556 1.183 14.703 3.548 4.147 2.29 7.314 5.456 9.5 9.5 2.262 4.044 3.393 8.622 3.393 13.735 0 5.112-1.13 9.728-3.393 13.849-2.186 4.044-5.353 7.249-9.5 9.614-4.147 2.365-9.123 3.548-14.93 3.548-5.428 0-10.291-1.068-14.59-3.205-4.221-2.136-7.54-5.227-9.952-9.27-2.413-4.045-3.62-8.89-3.62-14.536zm15.947.114c0 3.968 1.131 7.287 3.393 9.958 2.262 2.594 5.127 3.891 8.596 3.891 3.694 0 6.635-1.297 8.821-3.891 2.187-2.67 3.28-5.99 3.28-9.958s-1.093-7.249-3.28-9.843c-2.186-2.67-5.127-4.006-8.821-4.006-3.469 0-6.334 1.335-8.596 4.006-2.262 2.594-3.393 5.875-3.393 9.843z"/>
		<path fill="#263544" d="M112.333 120.614v5.4H95.591v-25.798h5.641v20.398h11.101zm10.963 1.094c.53 0 1.036-.012 1.519-.036.482-.025.867-.061 1.157-.11v-4.123a9.88 9.88 0 0 0-.977-.146 10.683 10.683 0 0 0-1.193-.073c-.506 0-.988.036-1.446.109-.434.049-.82.159-1.157.329-.338.17-.603.401-.796.693-.193.292-.289.657-.289 1.095 0 .851.277 1.447.832 1.788.578.316 1.362.474 2.35.474zm-.434-15.909c1.591 0 2.917.182 3.977.547 1.061.365 1.905.888 2.532 1.569.65.681 1.108 1.508 1.374 2.481.265.973.397 2.056.397 3.248v12.37h-8.208c-1.229 0-2.35-.219-3.362-.438-.989-.219-1.845-.571-2.568-1.058a5.06 5.06 0 0 1-1.663-1.97c-.386-.803-.579-1.788-.579-2.956 0-1.119.217-2.068.651-2.846a5.321 5.321 0 0 1 1.808-1.861c.747-.463 1.603-.791 2.567-.986a13.52 13.52 0 0 1 3.002-.328c.699 0 1.313.036 1.844.109.554.049 1 .122 1.338.219v-.51c0-.925-.278-1.667-.832-2.226-.554-.56-1.519-.84-2.893-.84-.916 0-1.82.073-2.712.219-.892.122-1.663.304-2.314.548l-.687-4.379c.314-.097.699-.195 1.157-.292a13.58 13.58 0 0 1 1.555-.292c.555-.097 1.133-.17 1.736-.219a16.221 16.221 0 0 1 1.88-.109zm25.338 9.961c0-3.503-1.278-5.254-3.833-5.254-.554 0-1.109.073-1.663.219-.531.146-.965.328-1.302.547v10.071h2.579c1.471 0 2.351-.511 3.098-1.532.747-1.022 1.121-2.372 1.121-4.051zm5.496.146c0 1.533-.229 2.92-.687 4.16-.434 1.241-1.073 2.299-1.916 3.175-.844.876-1.881 1.557-3.11 2.043-1.23.462-2.594.73-4.161.73h-7.8l-.008-25.798h5.388v6.531a10.077 10.077 0 0 1 1.88-.62 9.57 9.57 0 0 1 2.097-.219c1.35 0 2.544.243 3.58.73a6.844 6.844 0 0 1 2.604 2.007c.699.876 1.229 1.934 1.591 3.174.361 1.217.542 2.579.542 4.087zm9.601 5.693c.988 0 1.687-.098 2.097-.292.41-.195.615-.572.615-1.131 0-.438-.266-.815-.796-1.132-.53-.34-1.338-.717-2.422-1.131a26.426 26.426 0 0 1-2.315-.985 7.13 7.13 0 0 1-1.735-1.204 5.146 5.146 0 0 1-1.121-1.715c-.265-.657-.398-1.448-.398-2.372 0-1.8.663-3.223 1.989-4.269 1.326-1.046 3.146-1.569 5.46-1.569 1.157 0 2.266.109 3.326.328 1.061.195 1.905.414 2.532.657l-.941 4.233a19.014 19.014 0 0 0-2.061-.584c-.723-.17-1.542-.256-2.458-.256-1.688 0-2.532.475-2.532 1.424 0 .218.037.413.109.583.072.171.217.341.434.511.217.146.506.316.868.511.385.17.867.365 1.446.584 1.181.438 2.157.876 2.929 1.314.771.413 1.374.875 1.808 1.386.458.487.771 1.034.94 1.642.193.608.289 1.314.289 2.117 0 1.897-.711 3.332-2.133 4.305-1.398.974-3.387 1.46-5.966 1.46-1.688 0-3.098-.146-4.231-.438-1.109-.292-1.88-.535-2.314-.73l.904-4.415c.916.365 1.856.657 2.82.876.964.194 1.917.292 2.857.292z"/>
		<path fill="#00BDFF" fill-rule="evenodd" d="m60.048 1.024-27.004 15.11v15.11l27.004-15.11 27.004 15.11v-15.11L60.048 1.024Z" clip-rule="evenodd"/>
	</g>
</svg>
