<svg width="3319" height="981" fill="none" xmlns="http://www.w3.org/2000/svg">
	<path fill-rule="evenodd" clip-rule="evenodd" d="M2800 190c-28.17 0-51 22.833-51 51s22.83 51 51 51 51-22.833 51-51-22.83-51-51-51Zm-43 157a8 8 0 0 0-8 8v395a8 8 0 0 0 8 8h86a8 8 0 0 0 8-8V355a8 8 0 0 0-8-8h-86Z" fill="#333"/>
	<path fill-rule="evenodd" clip-rule="evenodd" d="M3306.27 631.516c1.79-5.097-1.99-10.435-7.4-10.435h-95.82a7.855 7.855 0 0 0-6.46 3.393c-18.36 26.676-47.37 43.634-79.77 43.634-44.85 0-83.41-32.665-95.79-78.378h288.5c4 0 7.36-3.011 7.79-6.986.88-7.997 1.33-16.128 1.33-24.366 0-116.507-90-211.621-201.83-211.621-111.82 0-201.82 95.114-201.82 211.621S3005 770 3116.82 770c87.16 0 161.13-57.856 189.45-138.484Zm-189.45-182.867c38.15 0 71.7 23.58 88.53 58.784h-177.06c16.84-35.204 50.39-58.784 88.53-58.784Z" fill="#333"/>
	<path fill-rule="evenodd" clip-rule="evenodd" d="M979 190a8 8 0 0 0-8 8v564c0 2.209.895 4.209 2.343 5.657A7.975 7.975 0 0 0 979 770h388a8 8 0 0 0 8-8v-86a8 8 0 0 0-8-8h-294V198a8 8 0 0 0-8-8h-86Z" fill="#333"/>
	<path fill-rule="evenodd" clip-rule="evenodd" d="M2024 347c-108.8 0-197 94.692-197 211.5S1915.2 770 2024 770c38.9 0 75.17-12.106 105.72-33h.67l-1.77 31.5c0 42.596-50.94 79.167-95.8 79.167-32.39 0-61.4-16.949-79.76-43.609a7.856 7.856 0 0 0-6.46-3.391h-95.83c-5.4 0-9.18 5.335-7.39 10.429 28.32 80.581 102.29 138.404 189.44 138.404 101.61 0 198.63-77.5 198.63-188V737l-.45-.009V367c0-4.419-3.58-8-8-8h-86c-4.42 0-8 3.581-8 8v12.513C2098.61 358.918 2062.6 347 2024 347Zm5 321c55.2 0 99.95-48.968 100-109.394v-.212C2128.95 497.968 2084.2 449 2029 449c-55.23 0-100 49.025-100 109.5S1973.77 668 2029 668Z" fill="#333"/>
	<path fill-rule="evenodd" clip-rule="evenodd" d="M2477 347c-108.8 0-197 94.692-197 211.5S2368.2 770 2477 770c38.9 0 75.17-12.106 105.72-33h.67l-1.77 31.5c0 42.596-50.94 79.167-95.8 79.167-32.39 0-61.4-16.949-79.76-43.609a7.856 7.856 0 0 0-6.46-3.391h-95.83c-5.4 0-9.18 5.335-7.39 10.429 28.32 80.581 102.29 138.404 189.44 138.404 101.61 0 198.63-77.5 198.63-188V737l-.45-.009V367c0-4.419-3.58-8-8-8h-86c-4.42 0-8 3.581-8 8v12.513C2551.61 358.918 2515.6 347 2477 347Zm5 321c55.2 0 99.95-48.973 100-109.403v-.194c-.05-60.43-44.8-109.403-100-109.403-55.23 0-100 49.025-100 109.5S2426.77 668 2482 668Z" fill="#333"/>
	<path fill-rule="evenodd" clip-rule="evenodd" d="M1585 347c-111.56 0-202 94.692-202 211.5S1473.44 770 1585 770s202-94.692 202-211.5S1696.56 347 1585 347Zm-.54 102c-56.63 0-102.54 49.025-102.54 109.5S1527.83 668 1584.46 668c56.63 0 102.54-49.025 102.54-109.5S1641.09 449 1584.46 449Z" fill="#333"/>
	<path fill-rule="evenodd" clip-rule="evenodd" d="M500.392 40.072c-53.964-53.43-141.456-53.43-195.42 0L64.077 278.582a211.25 211.25 0 0 0-4.706 4.675c-.942.955-1.866 1.921-2.773 2.896C21.476 323.539 0 373.619 0 428.656c0 115.703 94.916 209.5 212 209.5 19.83 0 39.024-2.691 57.228-7.722l-21.188-20.979c-35.298-34.948-35.322-91.596-.072-126.573a139.712 139.712 0 0 0 8.049-7.37l244.375-241.956c53.963-53.429 53.963-140.055 0-193.484Z" fill="#0056FF"/>
	<path fill-rule="evenodd" clip-rule="evenodd" d="M220.075 940.24c53.964 53.429 141.456 53.429 195.42 0l235.723-233.39c42.548-38.396 69.249-93.712 69.249-155.203 0-115.948-94.934-209.942-212.041-209.942-19.944 0-39.244 2.726-57.542 7.823l21.543 21.33c35.296 34.946 35.322 91.59.077 126.568a139.513 139.513 0 0 0-8.054 7.374L220.075 746.756c-53.963 53.429-53.963 140.055 0 193.484Z" fill="#0056FF"/>
</svg>
