<svg xmlns="http://www.w3.org/2000/svg" width="200" height="128">
	<path fill="#00bfb3" d="M43.273 69.818h16v17.455h-16z"/>
	<path d="M21.455 40.727H20v29.091h18.909V58.182a17.455 17.455 0 0 0-17.454-17.455z" fill="#fec514"/>
	<path d="M20 69.818a17.455 17.455 0 0 0 17.455 17.455h1.454V69.818z" fill="#343741"/>
	<path d="M75.191 70.679h-3.2V49.461h3.2zm17.959-7.568a8.235 8.235 0 0 1-1.9 5.768 6.792 6.792 0 0 1-5.278 2.073A7.224 7.224 0 0 1 82.241 70a6.3 6.3 0 0 1-2.5-2.741 9.344 9.344 0 0 1-.872-4.145 8.171 8.171 0 0 1 1.882-5.727 6.82 6.82 0 0 1 5.3-2.06 6.647 6.647 0 0 1 5.182 2.107 8.139 8.139 0 0 1 1.917 5.677zm-10.977 0q0 5.223 3.859 5.223 3.818 0 3.818-5.223 0-5.169-3.845-5.168a3.277 3.277 0 0 0-2.925 1.336 6.8 6.8 0 0 0-.907 3.832zm27.395-7.511v1.759l-2.577.478a4.156 4.156 0 0 1 .586 1.172 4.618 4.618 0 0 1 .232 1.473 4.51 4.51 0 0 1-1.609 3.668 6.734 6.734 0 0 1-4.432 1.337 7.156 7.156 0 0 1-1.309-.11 1.806 1.806 0 0 0-1.036 1.5.834.834 0 0 0 .484.778 4.2 4.2 0 0 0 1.779.259h2.632a5.853 5.853 0 0 1 3.791 1.063 3.743 3.743 0 0 1 1.3 3.069A4.461 4.461 0 0 1 107.291 76a11.132 11.132 0 0 1-6.109 1.391 8.434 8.434 0 0 1-4.7-1.091 3.524 3.524 0 0 1-1.622-3.109 3.311 3.311 0 0 1 .879-2.339 4.714 4.714 0 0 1 2.461-1.318 2.406 2.406 0 0 1-1.056-.88 2.276 2.276 0 0 1 .061-2.707 5.509 5.509 0 0 1 1.418-1.159 4.2 4.2 0 0 1-1.9-1.643 4.837 4.837 0 0 1-.73-2.666 4.78 4.78 0 0 1 1.548-3.8 6.506 6.506 0 0 1 4.411-1.35 10.772 10.772 0 0 1 1.344.089 8.537 8.537 0 0 1 1.056.184zm-11.85 17.424a1.765 1.765 0 0 0 .934 1.6 5.132 5.132 0 0 0 2.625.559 7.928 7.928 0 0 0 3.9-.75 2.248 2.248 0 0 0 1.282-1.991 1.5 1.5 0 0 0-.7-1.4 5.645 5.645 0 0 0-2.612-.416h-2.427a3.406 3.406 0 0 0-2.188.648 2.124 2.124 0 0 0-.814 1.75zM99.1 60.479a3.038 3.038 0 0 0 .73 2.182 2.758 2.758 0 0 0 2.093.763q2.782 0 2.782-2.972a3.374 3.374 0 0 0-.689-2.271 2.614 2.614 0 0 0-2.093-.8 2.7 2.7 0 0 0-2.107.79 3.329 3.329 0 0 0-.716 2.308zm23.4 5.905a3.945 3.945 0 0 1-1.609 3.388 7.7 7.7 0 0 1-4.609 1.18 10.891 10.891 0 0 1-4.841-.914V67.27a11.889 11.889 0 0 0 4.95 1.227q2.959 0 2.959-1.786a1.418 1.418 0 0 0-.327-.955 3.885 3.885 0 0 0-1.077-.791 18.848 18.848 0 0 0-2.086-.927 9.64 9.64 0 0 1-3.525-2.018 3.734 3.734 0 0 1-.921-2.618 3.441 3.441 0 0 1 1.556-3.002 7.407 7.407 0 0 1 4.248-1.071 12.035 12.035 0 0 1 5.032 1.071l-1.036 2.413a11.212 11.212 0 0 0-4.105-1.009q-2.536 0-2.536 1.446a1.455 1.455 0 0 0 .661 1.2 14.572 14.572 0 0 0 2.884 1.35 13.2 13.2 0 0 1 2.714 1.322 3.95 3.95 0 0 1 1.254 1.385 4 4 0 0 1 .414 1.877zm9.077 1.977a7.81 7.81 0 0 0 2.346-.368v2.413a6.483 6.483 0 0 1-1.371.389 9.482 9.482 0 0 1-1.738.157q-4.555 0-4.555-4.8v-8.128H124.2v-1.418l2.209-1.172 1.091-3.191h1.977V55.6h4.3v2.427h-4.3V66.1a2.265 2.265 0 0 0 .58 1.712 2.112 2.112 0 0 0 1.52.549zm14.796 2.318-.641-2.1h-.109a6.184 6.184 0 0 1-2.2 1.875 6.939 6.939 0 0 1-2.836.5 4.8 4.8 0 0 1-3.471-1.2 4.494 4.494 0 0 1-1.247-3.4 3.986 3.986 0 0 1 1.732-3.518 9.975 9.975 0 0 1 5.277-1.3l2.6-.082v-.8a3.049 3.049 0 0 0-.675-2.161 2.753 2.753 0 0 0-2.093-.716 7.251 7.251 0 0 0-2.223.341 16.77 16.77 0 0 0-2.045.8l-1.036-2.29a11.082 11.082 0 0 1 2.686-.975 12.353 12.353 0 0 1 2.755-.335 6.527 6.527 0 0 1 4.343 1.255 4.912 4.912 0 0 1 1.466 3.941v10.165zM141.6 68.5a3.967 3.967 0 0 0 2.8-.975 3.532 3.532 0 0 0 1.057-2.734v-1.312l-1.936.082a6.618 6.618 0 0 0-3.293.757 2.3 2.3 0 0 0-1.03 2.066 2.016 2.016 0 0 0 .6 1.561 2.579 2.579 0 0 0 1.802.555zm21.668-2.116a3.945 3.945 0 0 1-1.609 3.388 7.7 7.7 0 0 1-4.609 1.18 10.888 10.888 0 0 1-4.841-.914V67.27a11.889 11.889 0 0 0 4.95 1.227q2.96 0 2.959-1.786a1.418 1.418 0 0 0-.327-.955 3.885 3.885 0 0 0-1.077-.791 18.792 18.792 0 0 0-2.087-.927 9.658 9.658 0 0 1-3.527-2.018 3.738 3.738 0 0 1-.92-2.618 3.439 3.439 0 0 1 1.561-3.007 7.407 7.407 0 0 1 4.248-1.071 12.035 12.035 0 0 1 5.032 1.078l-1.037 2.413a11.2 11.2 0 0 0-4.1-1.009q-2.536 0-2.537 1.446a1.457 1.457 0 0 0 .662 1.2 14.572 14.572 0 0 0 2.884 1.35 13.225 13.225 0 0 1 2.714 1.322 3.676 3.676 0 0 1 1.663 3.26zM180 70.679h-3.218v-9.273a4.058 4.058 0 0 0-.7-2.6 2.716 2.716 0 0 0-2.23-.859 3.541 3.541 0 0 0-2.966 1.206 6.652 6.652 0 0 0-.948 4.044v7.486h-3.2V49.461h3.2v5.386a25.133 25.133 0 0 1-.163 2.768h.2a4.453 4.453 0 0 1 1.821-1.691 5.866 5.866 0 0 1 2.72-.6q5.482 0 5.482 5.523z"/>
</svg>
