<svg version="1.1" id="Layer_1" xmlns="http://www.w3.org/2000/svg" x="0" y="0" viewBox="0 0 500 430.5" style="enable-background:new 0 0 500 430.5" xml:space="preserve">
	<style>
		.st1{fill:#343741}.st3{fill:#fff}
	</style>
	<switch>
		<g>
			<path d="M245.7 146.6h-94.8V0h8.6c47.6 0 86.2 38.6 86.2 86.2v60.4z" style="fill:#fec514"/>
			<path class="st1" d="M241.4 237.1h4.3v-90.5h-94.8c0 49.9 40.5 90.5 90.5 90.5"/>
			<path d="M267.2 237.1h81.9v-90.5h-81.9v90.5z" style="fill:#00bfb3"/>
			<path class="st1" d="M55.7 404.6V389H17.1v-74.9H0v90.5h55.7zm39.6 2c17.8 0 32.7-12.2 32.7-32.7 0-20.8-14.9-32.8-32.7-32.8-17.8 0-32.7 12-32.7 32.8 0 20.7 14.9 32.7 32.7 32.7zm-16.4-32.7c0 11.1 6.7 18.5 16.3 18.5 9.6 0 16.2-7.4 16.2-18.5 0-11.2-6.6-18.5-16.2-18.5-9.5 0-16.3 7.2-16.3 18.5zm88.5 56.6c19.4 0 30.5-11.6 30.5-32.3V343h-15.8v6.5h-.5c-3.4-4.4-8-8.4-17.6-8.4-14.3 0-27.7 11.2-27.7 30.8 0 19.4 13.2 30.8 27.9 30.8 8.4 0 14.6-3.4 17.6-8.8v8.1c0 10.2-5.4 15.6-13.9 15.6-6.6 0-12.2-3.4-13.3-7.9l-16.5 3.6c3 10.4 14.4 17.2 29.3 17.2zm-14.9-58.7c0 10.7 6.9 16.7 14.8 16.7 8.8 0 15-6.5 15-16.7 0-10.3-6.2-16.7-15-16.7-7.9 0-14.8 5.8-14.8 16.7zm83 34.8c15.2 0 25.4-8.1 25.4-20.7 0-14.6-11.4-16.9-20.9-18.9-6.6-1.3-12.2-2.5-12.2-7.5 0-3.5 2.9-6.2 7.9-6.2 4.9 0 8.8 2.7 9.6 6.7l15.2-3.2c-2.6-9.4-12.4-15.8-25.1-15.8-14.1 0-23.7 7.9-23.7 19.7 0 14.7 11.5 17.1 20.9 19 6.5 1.3 12.1 2.5 12.1 7.4 0 4.5-3.2 7.5-8.8 7.5-5.7 0-10.5-3.1-11.8-7.9l-15 2.8c3.3 10.9 13 17.1 26.4 17.1zm73.5-2.3c-2.2.9-6 1.7-10.6 1.7-13 0-22.3-5.4-22.3-21.7v-27.4h-10.6V343h10.6v-16.3l16.3-3.2V343h15.9v13.8h-15.9v24.8c0 8.3 3.1 10.9 9.2 10.9 2.5 0 4.3-.5 5.7-1.2l1.7 13zm28.3 2.2c7.4 0 14.8-3.2 17.8-7.9h.5v6.1H371v-39.1c0-15.8-9.2-24.6-25.7-24.6-14.1 0-24.2 6.5-27.9 17.7l16.3 1.3c1.4-3.4 4.9-6.1 10.5-6.1 6.6 0 10.5 3.9 10.5 10.6v4.5c-2.1-1.2-7.4-2.3-12.7-2.3-16.5 0-26.4 7.6-26.4 20.4.1 11.3 9 19.4 21.7 19.4zm-5.1-20.6c0 4.8 3.6 7.9 9.9 7.9 7 0 13.1-4.3 13.1-9.1v-4c-1.8-1.6-6.3-2.7-11.1-2.7-7.7 0-11.9 3.1-11.9 7.9zm75.5 20.7c15.2 0 25.4-8.1 25.4-20.7 0-14.6-11.4-16.9-20.9-18.9-6.6-1.3-12.2-2.5-12.2-7.5 0-3.5 2.9-6.2 7.9-6.2 4.9 0 8.8 2.7 9.6 6.7l15.2-3.2c-2.6-9.4-12.4-15.8-25.1-15.8-14.1 0-23.7 7.9-23.7 19.7 0 14.7 11.5 17.1 20.9 19 6.5 1.3 12.1 2.5 12.1 7.4 0 4.5-3.2 7.5-8.8 7.5-5.7 0-10.5-3.1-11.8-7.9l-15 2.8c3.3 10.9 13.1 17.1 26.4 17.1zm52.6-37.4v35.4H444v-90.5h16.3v35.7c3.2-4.7 10.2-8.8 18-8.8 13.3 0 21.6 9.1 21.6 24.2v39.4h-16.3v-36.5c0-8.5-3.8-12.8-10.4-12.8-7 .1-12.9 5.6-12.9 13.9z"/>
			<path class="st3" d="M78.9 374.4c0 11.1 6.7 18.5 16.3 18.5 9.6 0 16.2-7.4 16.2-18.5 0-11.2-6.6-18.5-16.2-18.5-9.5 0-16.3 7.2-16.3 18.5z"/>
			<path class="st3" d="M152.5 371.8c0 10.7 6.9 16.7 14.8 16.7 8.8 0 15-6.5 15-16.7 0-10.3-6.2-16.7-15-16.7-7.9 0-14.8 5.8-14.8 16.7z"/>
			<path class="st3" d="M331.9 385.9c0 4.8 3.6 7.9 9.9 7.9 7 0 13.1-4.3 13.1-9.1v-4c-1.8-1.6-6.3-2.7-11.1-2.7-7.6 0-11.9 3.1-11.9 7.9z"/>
		</g>
	</switch>
</svg>
