<svg xmlns="http://www.w3.org/2000/svg" height="488.293" width="578.133" xml:space="preserve">
	<path style="fill:#f4bb40;fill-opacity:1;fill-rule:evenodd;stroke:none" d="M456.898 279.602c-35.398-21-128.699-30.204-174.597-30.204-128.602 0-206.098 67-206.098 181.204V1010.8L0 1018.7v166.7h313.102V493.602c0-39.403 22.996-56.5 69-56.5h48.597l26.199-157.5" transform="matrix(.13333 0 0 -.13333 0 488.293)"/>
	<path style="fill:#f4bb40;fill-opacity:1;fill-rule:evenodd;stroke:none" d="M1888.9 770.602c24.9-24.903 31.5-56.5 31.5-87.903 0-137.898-101.1-210.097-334.8-210.097-32.8 0-88.1 3.898-89.3 3.898-13.4.102-16.3-7.699-17.2-10.699-9.2-31.199 16-35.903 80.4-47.102l184.9-27.398c153.7-23.602 191.6-95.801 191.6-186.5 0-118.102-64.3-204.7-357-204.7-102.4 0-216.6 11.797-312.4 27.598v160.102c115.5-9.199 207.2-17 314.8-17 87.9 0 121.1 2.699 121.1 35.398 1.3 26.301-29.7 34-98.4 45.403l-169.5 26.699c-110.3 19.801-143.1 82.801-140.5 143.097 1.3 36.801 19.6 72.204 51.2 94.5-69.6 36.801-101.1 97.102-101.1 182.5 0 170.704 124.8 220.5 343.9 220.5h427.6V770.602Zm-224.4 0h-77.4c-73.6 0-97.2-17-97.2-77.403 0-60.301 26.3-85.301 97.2-85.301 72.2 0 94.5 26.301 94.5 86.602-.1 36.699-6.6 60.301-17.1 76.102" transform="matrix(.13333 0 0 -.13333 0 488.293)"/>
	<path style="fill:#f4bb40;fill-opacity:1;fill-rule:evenodd;stroke:none" d="M3396.3 914.699h-191.6V710.398h79V262.301h237.7v652.398h-125.1" transform="matrix(.13333 0 0 -.13333 0 488.293)"/>
	<path style="fill:#f4bb40;fill-opacity:1;fill-rule:nonzero;stroke:none" d="M3374.1 1237.4c73.8 0 125.8-50.6 125.8-121.7 0-69.7-52-120.302-125.8-120.302-72.5 0-124.4 50.602-124.4 120.302 0 71.2 52 121.7 124.4 121.7" transform="matrix(.13333 0 0 -.13333 0 488.293)"/>
	<path style="fill:#f4bb40;fill-opacity:1;fill-rule:nonzero;stroke:none" d="M2990.7 503.602c73.8 0 125.8-50.602 125.8-121.704 0-69.699-52-120.296-125.8-120.296-72.5 0-124.4 50.597-124.4 120.296 0 71.102 52 121.704 124.4 121.704" transform="matrix(.13333 0 0 -.13333 0 488.293)"/>
	<path style="fill:#f4bb40;fill-opacity:1;fill-rule:nonzero;stroke:none" d="M826.5 450.199c-86.203 0-147.902 60.102-147.902 143 0 84.5 61.8 144.699 147.902 144.699 87.801 0 149.5-60.097 149.5-144.699 0-82.898-61.699-143-149.5-143zm-1.102 487.102c-205.597 0-352.996-143.5-352.996-345.199 0-197.801 147.399-341.301 352.996-341.301 209.402 0 356.902 143.5 356.902 341.301-.1 201.699-147.5 345.199-356.902 345.199" transform="matrix(.13333 0 0 -.13333 0 488.293)"/>
	<path style="fill:#f4bb40;fill-opacity:1;fill-rule:nonzero;stroke:none" d="M3980.2 446c-86.2 0-147.9 60.199-147.9 143 0 84.5 61.8 144.699 147.9 144.699 87.8 0 149.5-60.097 149.5-144.699 0-82.898-61.7-143-149.5-143zm-1.1 487.102c-205.6 0-353-143.5-353-345.204 0-197.796 147.4-341.398 353-341.398 209.4 0 356.9 143.5 356.9 341.398-.1 201.704-147.5 345.204-356.9 345.204" transform="matrix(.13333 0 0 -.13333 0 488.293)"/>
	<path style="fill:#f4bb40;fill-opacity:1;fill-rule:evenodd;stroke:none" d="M2699.1 267.801h-627.5v161.5l353.1 330.801h-310.4v160.097h578.2V760.102L2342 429.301 2529.7 428v80h169.4V267.801" transform="matrix(.13333 0 0 -.13333 0 488.293)"/>
	<path style="fill:#f4bb40;fill-opacity:1;fill-rule:evenodd;stroke:none" d="M2583.2 2758.55 2209 2542.5v-434.15l374.2 216.05zm-793.69 73.5L2168 2613.5l375.43 216.77L2165 3048.8ZM2168 1565.1l-867.1 500.6v424.8l409.46-236.4 454.54-265.9 500.3 288.9v577.6L2165 3143.5l-457.48-264.11-365.62 211.11 826.1 477 867.1-500.6V2065.7Zm-949.1 453.3 949.1-548 949.1 547.9v1095.9l-949.1 548-901.7-520.5c-18.2-10.5-29.5-30.1-29.5-51.1s11.3-40.5 29.5-51l860.7-496.9v-434.2l-908.1 524.3v-614.4" transform="matrix(.13333 0 0 -.13333 0 488.293)"/>
</svg>
