<svg xmlns="http://www.w3.org/2000/svg" viewBox="-11.56 -11.56 601.12 511.12">
	<g fill="#f4bb40">
		<path fill-rule="evenodd" d="M60.918 451.014c-4.72 2.8-17.16 4.027-23.279 4.027-17.146 0-27.479-8.933-27.479-24.16v-77.358L0 352.47v-22.226h41.746v92.237c0 5.254 3.066 7.533 9.2 7.533h6.48l3.492 21m190.929-65.465c3.32 3.32 4.2 7.533 4.2 11.72 0 18.386-13.48 28.012-44.639 28.012-4.373 0-11.746-.52-11.906-.52-1.787-.013-2.174 1.027-2.294 1.427-1.226 4.16 2.134 4.787 10.72 6.28l24.653 3.653c20.493 3.147 25.546 12.773 25.546 24.866 0 15.746-8.573 27.292-47.599 27.292-13.653 0-28.88-1.572-41.652-3.68v-21.346c15.4 1.227 27.626 2.267 41.972 2.267 11.72 0 16.146-.36 16.146-4.72.174-3.506-3.96-4.533-13.12-6.053l-22.599-3.56c-14.706-2.64-19.08-11.04-18.733-19.079a16.139 16.139 0 0 1 6.827-12.6c-9.28-4.906-13.48-12.946-13.48-24.332 0-22.76 16.64-29.4 45.852-29.4h57.012v19.773zm-29.92 0h-10.319c-9.813 0-12.96 2.266-12.96 10.32 0 8.04 3.507 11.373 12.96 11.373 9.626 0 12.6-3.507 12.6-11.547-.014-4.893-.88-8.04-2.28-10.146m230.9-19.213h-25.545v27.24h10.533v59.744h31.692v-86.984h-16.68"/>
		<path d="M449.869 323.31c9.84 0 16.773 6.747 16.773 16.227 0 9.293-6.933 16.04-16.773 16.04-9.667 0-16.587-6.747-16.587-16.04 0-9.493 6.934-16.227 16.587-16.227m-51.119 97.838c9.84 0 16.773 6.747 16.773 16.227 0 9.293-6.933 16.039-16.773 16.039-9.666 0-16.586-6.746-16.586-16.04 0-9.48 6.933-16.226 16.586-16.226m-288.553 7.12c-11.493 0-19.72-8.013-19.72-19.066 0-11.267 8.24-19.293 19.72-19.293 11.707 0 19.933 8.013 19.933 19.293 0 11.053-8.226 19.066-19.933 19.066zm-.147-64.945c-27.412 0-47.065 19.133-47.065 46.025 0 26.373 19.653 45.506 47.065 45.506 27.92 0 47.586-19.133 47.586-45.506-.013-26.892-19.666-46.025-47.586-46.025m420.63 65.505c-11.493 0-19.72-8.027-19.72-19.066 0-11.267 8.24-19.293 19.72-19.293 11.706 0 19.933 8.013 19.933 19.293 0 11.052-8.227 19.066-19.933 19.066zm-.147-64.945c-27.412 0-47.065 19.132-47.065 46.026 0 26.372 19.653 45.518 47.065 45.518 27.92 0 47.586-19.133 47.586-45.518-.013-26.894-19.666-46.026-47.586-46.026"/>
		<path fill-rule="evenodd" d="M359.871 452.587h-83.665v-21.533l47.08-44.105H281.9v-21.346h77.091v21.346l-46.732 44.105 25.026.174V420.56h22.586v32.026m-15.453-332.091L294.526 149.3v57.886l49.892-28.806zm-105.823-9.8 50.464 29.139 50.057-28.902-50.457-29.137zm50.464 168.922-115.61-66.745v-56.638l54.593 31.519 60.604 35.452 66.705-38.519v-77.011L288.66 69.17l-60.995 35.214-48.748-28.147L289.06 12.638l115.61 66.745v133.49zM162.516 219.18l126.543 73.065 126.544-73.052V73.077L289.059.012 168.836 69.41a7.89 7.89 0 0 0-3.933 6.813c0 2.8 1.506 5.4 3.933 6.8l114.757 66.252v57.892l-121.077-69.905v81.918"/>
	</g>
</svg>
