<svg xmlns="http://www.w3.org/2000/svg" width="200" height="128">
    <g fill="#002e42" fill-rule="evenodd">
        <path d="M85.529 74.843a11.4 11.4 0 0 1-4.252.735c-3.133 0-5.019-1.63-5.019-4.412v-14.13l-1.858-.192v-4.06h7.624v16.848c0 .96.562 1.375 1.68 1.375h1.186zM120.406 62.886a2.878 2.878 0 0 1 .768 2.142c0 3.357-2.462 5.116-8.153 5.116-.8 0-2.145-.1-2.174-.1-.327 0-.4.188-.418.262-.223.76.388.874 1.957 1.147l4.5.668c3.743.574 4.668 2.333 4.668 4.541 0 2.878-1.566 4.987-8.7 4.987a49.083 49.083 0 0 1-7.607-.672v-3.9c2.812.224 5.045.414 7.667.414 2.141 0 2.949-.065 2.949-.863.033-.639-.724-.828-2.4-1.1l-4.128-.651c-2.685-.482-3.484-2.017-3.421-3.486a2.959 2.959 0 0 1 1.246-2.3 4.569 4.569 0 0 1-2.462-4.444c0-4.157 3.039-5.371 8.376-5.371H123.5v3.613zm-5.466 0h-1.887c-1.791 0-2.366.416-2.366 1.886s.64 2.078 2.366 2.078c1.758 0 2.3-.639 2.3-2.109a3.308 3.308 0 0 0-.414-1.855zM157.115 59.376h-4.665v4.976h1.925v10.914h5.786v-15.89h-3.046zM156.576 51.517a2.947 2.947 0 1 1-3.03 2.963 2.893 2.893 0 0 1 3.03-2.963M147.239 69.389a2.947 2.947 0 1 1-3.03 2.963 2.894 2.894 0 0 1 3.03-2.963M94.531 70.69a3.506 3.506 0 1 1 3.642-3.484 3.422 3.422 0 0 1-3.642 3.484M94.5 58.826c-5.007 0-8.6 3.494-8.6 8.408 0 4.818 3.59 8.313 8.6 8.313 5.1 0 8.691-3.495 8.691-8.313 0-4.914-3.59-8.408-8.691-8.408M171.336 70.792a3.506 3.506 0 1 1 3.642-3.484 3.423 3.423 0 0 1-3.642 3.484m-.027-11.864c-5.007 0-8.6 3.494-8.6 8.408 0 4.817 3.591 8.313 8.6 8.313 5.1 0 8.691-3.5 8.691-8.313 0-4.914-3.591-8.408-8.691-8.408M140.136 75.131h-15.283v-3.933l8.601-8.056h-7.56v-3.901h14.082v3.901l-8.537 8.056 4.573.032v-1.949h4.124v5.85zM31.9 56.374l11.139-6.431 12.182 7.034v14.067l-12.183 7.035-11.61-6.794L22 65.841v10.351l21.114 12.192 21.117-12.192V51.808L43.114 39.616 23 51.231zm2 1.153l9.214 5.32 9.142-5.278-9.214-5.32zm19.327 1.787l-9.114 5.262v10.576l9.114-5.262zM43.114 90.69L20 77.345V62.382L42.116 75.15V64.576l-20.961-12.1a1.436 1.436 0 0 1 0-2.487L43.114 37.31l23.114 13.345v26.69z"/>
    </g>
</svg>
