<svg xmlns="http://www.w3.org/2000/svg" viewBox="-8.67 -8.67 450.84 216.34">
	<path fill="#254893" d="M328.849 47.979h69.833v19.563h34.977v131.551H0V67.542h34.996V47.979h69.858L216.851 0 328.85 47.98"/>
	<path fill="#fff" d="m320.271 82.96-.01 21.264 13.762.023 2.867-21.28-16.619-.008"/>
	<path fill="#fff" d="M394.976 103.936c.891 0 1.692-.07 1.692-1.147 0-.85-.788-1.011-1.512-1.011h-1.441v2.158h1.261zm-1.261 3.906h-1.048v-6.96h2.647c1.632 0 2.45.613 2.45 1.98 0 1.252-.77 1.79-1.794 1.916l1.97 3.064h-1.177l-1.833-3.016h-1.215v3.016zm1.276 1.55c2.737 0 4.879-2.135 4.879-5.042 0-2.855-2.142-5.011-4.879-5.011-2.763 0-4.915 2.156-4.915 5.011 0 2.907 2.152 5.041 4.915 5.041zm-6.125-5.042c0-3.469 2.806-6.015 6.125-6.015 3.288 0 6.097 2.546 6.097 6.015 0 3.492-2.809 6.047-6.097 6.047-3.319 0-6.125-2.555-6.125-6.047"/>
	<path fill="#fff" d="M69.18 155.428V82.959H49.358v89.732h50.491v-17.263H69.18"/>
	<path fill="#fff" d="M268.709 172.691h47.176v-17.28h-27.256v-11.263h27.256v-16.636h-27.256v-11.325h27.256V98.835h-47.176v73.856"/>
	<path fill="#fff" d="M145.146 116.187h-17.43v39.147h17.43zm19.856 47.066c0 5.21-4.217 9.438-9.424 9.438h-38.292c-5.207 0-9.423-4.229-9.423-9.438v-54.99c0-5.205 4.216-9.428 9.423-9.428h38.292c5.207 0 9.424 4.223 9.424 9.428v54.99"/>
	<path fill="#fff" d="M237.515 98.835v56.593h-11.968V98.835h-17.434v56.593h-11.96V98.835h-19.86v64.418c0 5.21 4.224 9.438 9.432 9.438h23.47c3.958 0 7.64-2.727 7.64-6.691 0 3.964 3.684 6.691 7.64 6.691h23.471c5.21 0 9.428-4.229 9.428-9.438V98.835h-19.859"/>
	<path fill="#fff" d="m385.49 144.781.01.001-.128-.251a9.69 9.69 0 0 0-.234-.467l-.119-.243c-3.145-6.299-10.176-11.565-21.503-16.087l-.393-.155c-2.253-.883-9.07-3.552-9.823-7.89-.213-1.21.28-3.118 1.632-4.274 1.43-1.458 3.623-2.2 6.504-2.2 4.614 0 9.871 1.89 12.583 3.01 5.732 2.378 10.75 4.5 10.803 4.522l.496.206v-16.115l-.164-.108c-.107-.073-10.939-6.894-21.882-8.466a45.62 45.62 0 0 0-3.697-.16c-10.07 0-17.696 3.663-22.676 10.878-4.17 5.93-4.63 15.308-1.08 22.315 4.561 7.916 11.877 11.222 18.952 14.423 2.919 1.312 5.941 2.678 8.756 4.364l.035.017c3.194 1.918 4.822 4.85 4.148 7.46-.7 2.7-3.79 4.52-7.698 4.52-.532 0-1.078-.04-1.602-.105l-.187-.028c-7.51-1.044-22.745-6.72-22.904-6.778l-.487-.182v17.676l.252.086c.14.05 14.89 4.931 27.974 4.931h.01c7.144 0 12.54-1.441 16.03-4.27.084-.065 8.08-6.492 8.432-17.432.102-3.03-.587-6.123-2.04-9.198"/>
</svg>
