<svg id="Layer_1" data-name="Layer 1" xmlns="http://www.w3.org/2000/svg" viewBox="0 0 125 35.751">
	<defs>
		<style>
			.cls-1{fill:#1e1e1c}.cls-2{fill:#3aa936}
		</style>
	</defs>
	<path class="cls-1" d="M123.935 23.994c-.66.002-1.319.002-1.978.006a.187.187 0 0 1-.136-.066l-4.612-4.262-7.102-6.563-.133-.12a.238.238 0 0 0-.02.153v10.686c0 .171 0 .171-.177.171-.418 0-.836-.003-1.254.002-.091.001-.116-.022-.116-.115q.004-6.042 0-12.084c0-.096.02-.126.122-.126q1.24.007 2.48.001a.243.243 0 0 1 .184.076q5.004 4.78 10.011 9.556l1.088 1.039.095.09a.266.266 0 0 0 .017-.15q.001-5.225-.003-10.449c0-.135.034-.166.166-.164.461.008.923.002 1.385 0v.054a.272.272 0 0 0-.019.166V23.85l.002.145Z"/>
	<path class="cls-2" d="M1.172 22.495a4.02 4.02 0 0 0 .733.013c.141-.003.175.04.168.173-.012.21-.006.422-.002.633.002.076-.023.097-.097.096-.267 0-.535.005-.802.008Z"/>
	<path class="cls-2" d="m123.935 23.994-.002-.145V11.895a.272.272 0 0 1 .019-.166v12.27l-.01.002Z"/>
	<path class="cls-2" d="M44.306 11.306h8.023a6.209 6.209 0 0 1 6.128 5.074 6.67 6.67 0 0 1-1.288 5.562 6.45 6.45 0 0 1-5.115 2.462q-3.22 0-6.44.003c-.13 0-.156-.035-.156-.16q.005-4.96 0-9.92c0-.125.024-.167.156-.162.325.01.65.008.976 0 .111-.002.138.03.137.138q-.004 4.328-.002 8.655c0 .189 0 .189.187.189h5.133a5.231 5.231 0 0 0 5.241-4.795 5.39 5.39 0 0 0-.391-2.801 4.918 4.918 0 0 0-3.938-2.957 8.244 8.244 0 0 0-1.278-.042c-5.16.024-10.319.017-15.478.018a2.328 2.328 0 0 0-.439 4.622 3.138 3.138 0 0 0 .474.03c1.548 0 3.096-.01 4.644.004a3.478 3.478 0 0 1 3.037 1.657 3.588 3.588 0 0 1-2.378 5.464 3.906 3.906 0 0 1-.695.057l-14.622.002c-.115 0-.156-.021-.155-.148q.005-6.419 0-12.838c0-.11.02-.151.142-.148.33.01.66.009.99 0 .113-.002.135.034.135.14q-.005 3.76-.003 7.52 0 2.039-.002 4.077c0 .108.025.14.137.14q6.703-.004 13.407-.003a2.329 2.329 0 0 0 .308-4.64 3.295 3.295 0 0 0-.368-.02h-4.619a3.59 3.59 0 0 1-.633-7.13 4.301 4.301 0 0 1 .656-.05h8.09Z"/>
	<path class="cls-1" d="M68.077 11.42c1.135.01 2.222-.018 3.308.02a9.306 9.306 0 0 1 2.506.381 2.984 2.984 0 0 1 2.132 2.384 11.266 11.266 0 0 1 .206 2.268 67.033 67.033 0 0 1-.024 3.535 8.109 8.109 0 0 1-.228 1.642 2.942 2.942 0 0 1-2.12 2.22 8.61 8.61 0 0 1-1.93.34c-.926.07-1.855.048-2.782.045-1.35-.003-2.701.028-4.051-.02a9.12 9.12 0 0 1-2.377-.364 3.008 3.008 0 0 1-2.189-2.442 8.703 8.703 0 0 1-.176-1.57c-.033-1.477-.048-2.955.02-4.431a6.895 6.895 0 0 1 .227-1.456 2.93 2.93 0 0 1 2.04-2.138 8.247 8.247 0 0 1 2.057-.368c1.142-.077 2.286-.03 3.381-.046Zm-.008 11.55c1.056 0 1.9.004 2.745-.002a11.624 11.624 0 0 0 2.193-.158 1.765 1.765 0 0 0 1.52-1.488 7.53 7.53 0 0 0 .144-1.256q.064-2.222 0-4.445a6.789 6.789 0 0 0-.154-1.307 1.686 1.686 0 0 0-1.197-1.36 4.251 4.251 0 0 0-.343-.09 8.973 8.973 0 0 0-1.838-.15q-2.856-.013-5.713 0a8.965 8.965 0 0 0-1.954.173 1.729 1.729 0 0 0-1.42 1.397 6.255 6.255 0 0 0-.149 1.122c-.053 1.332-.033 2.665-.023 3.997a10.206 10.206 0 0 0 .151 1.877 1.75 1.75 0 0 0 1.446 1.512 7.573 7.573 0 0 0 1.254.15c1.183.056 2.366.013 3.338.028Z"/>
	<path class="cls-1" d="M83.325 11.68c1.43 0 2.86-.007 4.289.003a10.39 10.39 0 0 1 2.499.257 4.57 4.57 0 0 1 .475.153 1.866 1.866 0 0 1 1.268 1.634 17.355 17.355 0 0 1 .04 2.648 3.74 3.74 0 0 1-.075.627 2.106 2.106 0 0 1-1.471 1.642 7.628 7.628 0 0 1-1.709.367 22.436 22.436 0 0 1-2.608.111l-6.28-.003c-.124 0-.15.033-.15.151.004 1.526 0 3.052.006 4.578 0 .133-.038.156-.16.154a39.561 39.561 0 0 0-1.267 0c-.097 0-.124-.02-.124-.122q.005-2.955 0-5.91c0-.103.024-.132.13-.132q3.773-.005 7.547-.017c.783-.002 1.566-.008 2.348-.026a5.543 5.543 0 0 0 1.2-.155 1.237 1.237 0 0 0 1.068-1.268 16.634 16.634 0 0 0 .001-2.109 1.08 1.08 0 0 0-.88-1.09 5.342 5.342 0 0 0-1.25-.174 33.67 33.67 0 0 0-1.701-.032q-4.157 0-8.313.003c-.121 0-.154-.03-.15-.15q.012-.489 0-.977c-.004-.127.02-.168.16-.168 1.703.006 3.405.004 5.107.004Z"/>
	<path class="cls-1" d="M100.1 23.999q-2.96 0-5.922.003c-.124 0-.151-.034-.149-.152a20.92 20.92 0 0 0 0-1.002c-.002-.108.027-.139.138-.139q2.242.006 4.485.003 3.68 0 7.36-.003c.115 0 .157.021.153.148-.01.338-.007.677 0 1.015.002.102-.024.13-.128.13q-2.968-.006-5.936-.003Z"/>
	<path class="cls-1" d="M100.098 12.967q-2.962 0-5.923.003c-.115 0-.15-.024-.146-.143.01-.338.008-.677 0-1.015-.002-.113.034-.136.14-.136q4.795.005 9.59.003c.761 0 1.522.002 2.283-.003.1 0 .124.025.123.124a26.07 26.07 0 0 0 0 1.041c.002.107-.03.128-.131.128q-2.968-.004-5.936-.002Z"/>
	<path class="cls-1" d="M100.092 18.353q-2.956 0-5.911.003c-.118 0-.156-.026-.152-.15.01-.333.008-.668 0-1.002-.002-.108.025-.14.137-.14.91.005 1.821.003 2.732.003q4.552 0 9.105-.004c.137 0 .166.037.162.166-.01.33-.008.66 0 .99.002.107-.022.137-.135.137q-2.969-.006-5.938-.003Z"/>
	<path class="cls-2" d="M6.249 19.13c0-.123.002-.246-.001-.369-.002-.063.021-.084.084-.084q.369.004.738 0c.059 0 .075.024.074.079-.002.246-.002.492 0 .737.001.063-.018.084-.082.083q-.362-.004-.724 0c-.069.001-.093-.021-.09-.09.004-.119 0-.238 0-.356Z"/>
	<path class="cls-2" d="M6.249 25.516c0-.123.002-.246-.001-.369-.002-.063.021-.084.084-.084q.369.004.738 0c.059 0 .075.024.074.079-.002.246-.002.491 0 .737.001.063-.018.084-.082.083q-.362-.004-.724 0c-.069.001-.093-.021-.09-.09.004-.119 0-.238 0-.356Z"/>
	<path class="cls-2" d="M11.326 12.706c.013-.117-.063-.31.029-.39.08-.071.267-.022.407-.023.123-.002.246.002.369-.002.07-.002.092.023.09.091q-.004.362 0 .725c.001.063-.022.084-.084.083q-.368-.003-.737 0c-.058 0-.077-.02-.075-.076.003-.128 0-.255 0-.408Z"/>
	<path class="cls-2" d="M7.143 12.745c0 .123-.002.246.001.369.002.056-.016.077-.074.076q-.37-.004-.738 0c-.062 0-.085-.02-.084-.083.002-.246.002-.492 0-.738 0-.056.02-.078.077-.077.246.001.492.002.738 0 .064-.002.083.023.081.084-.003.123 0 .246 0 .369Z"/>
	<path class="cls-2" d="M6.249 22.968c0-.118.004-.237-.002-.355-.005-.084.028-.104.106-.103.233.005.465.004.698 0 .063 0 .095.01.094.086-.004.241-.004.483 0 .724 0 .069-.021.091-.09.09a22.28 22.28 0 0 0-.712 0c-.077.002-.099-.026-.096-.1.005-.113.002-.228.002-.342Z"/>
	<path class="cls-2" d="M7.143 16.577c0 .119-.003.237.002.356.002.067-.018.092-.089.091a29.017 29.017 0 0 0-.725 0c-.062 0-.084-.022-.083-.085.002-.245.002-.491 0-.737-.001-.07.035-.077.09-.076.242 0 .483.002.725-.001.064 0 .084.021.082.083-.004.123-.002.246-.002.369Z"/>
	<path class="cls-2" d="M11.77 9.74c.123 0 .246.003.368 0 .063-.002.084.021.084.084-.003.241-.003.483 0 .724 0 .07-.024.091-.092.09q-.355-.004-.711 0c-.064 0-.096-.012-.095-.086.004-.246.003-.492 0-.737 0-.058.02-.077.077-.076.123.003.246.001.369.001Z"/>
	<path class="cls-2" d="M8.787 10.174c0-.114.003-.228 0-.342-.003-.065.013-.094.086-.093q.362.006.724 0c.074-.001.087.03.086.094a25.04 25.04 0 0 0 0 .71c.002.078-.028.097-.1.095q-.349-.005-.698 0c-.073.002-.102-.02-.099-.096.005-.122.001-.245.001-.368Z"/>
	<path class="cls-2" d="M10.057 10.189c0-.118.002-.237-.001-.355-.002-.063.008-.097.084-.095.241.004.483.003.724 0 .07-.001.09.025.089.092-.003.237-.004.474 0 .71.001.076-.026.099-.1.098a17.575 17.575 0 0 0-.697 0c-.086.002-.104-.032-.1-.108.004-.114 0-.228 0-.342Z"/>
	<path class="cls-2" d="M8.412 10.18c0 .123-.003.246.002.369.002.07-.024.09-.092.09a29.494 29.494 0 0 0-.71 0c-.066 0-.096-.017-.095-.089a25.42 25.42 0 0 0 0-.724c-.002-.072.028-.088.093-.087.237.003.474.004.71 0 .08-.002.097.028.094.1-.005.113-.002.227-.002.341Z"/>
	<path class="cls-2" d="M10.504 13.19c-.118 0-.237-.004-.355 0-.064.002-.095-.012-.094-.085.004-.242.004-.483 0-.724 0-.07.024-.09.092-.09.237.003.474.003.71 0 .065 0 .097.016.096.088-.003.241-.004.483 0 .724.001.072-.028.09-.093.087-.119-.004-.237 0-.356 0Z"/>
	<path class="cls-2" d="M9.238 13.19c-.123 0-.246-.004-.369 0-.063.002-.083-.021-.083-.084q.004-.361 0-.723c0-.068.02-.093.09-.092.242.003.483.003.724 0 .065 0 .083.026.083.086q-.003.368 0 .737c0 .057-.02.077-.077.076-.123-.003-.246 0-.368 0Z"/>
	<path class="cls-2" d="M8.412 12.745c0 .123-.002.246.001.369.002.057-.018.077-.076.076q-.368-.003-.737 0c-.062 0-.084-.02-.083-.083q.004-.362 0-.724c-.001-.068.022-.093.09-.092q.363.005.725 0c.065 0 .083.026.081.086-.003.123 0 .246 0 .368Z"/>
	<path class="cls-2" d="M9.682 22.96c0 .118-.002.237 0 .355.002.064-.012.096-.086.095a28.58 28.58 0 0 0-.724 0c-.061 0-.086-.02-.085-.083a33.89 33.89 0 0 0 0-.737c-.002-.067.028-.08.086-.079.242.002.483.004.724 0 .074-.002.088.03.086.094-.004.118-.001.237-.001.355Z"/>
	<path class="cls-2" d="M8.412 22.96c0 .118-.002.236.001.354.002.063-.01.098-.085.096a23.577 23.577 0 0 0-.724 0c-.073.001-.088-.031-.087-.095q.003-.355 0-.71c-.001-.066.014-.095.087-.094q.362.005.724 0c.073-.002.088.028.086.093-.004.118-.002.237-.002.355Z"/>
	<path class="cls-2" d="M9.682 19.128c0 .119-.003.237 0 .356.003.065-.014.094-.086.092q-.362-.005-.724 0c-.074.002-.086-.03-.086-.094.003-.237.004-.474 0-.71-.001-.078.029-.096.1-.095q.35.005.698 0c.073-.002.102.02.1.096-.006.118-.002.237-.002.355Z"/>
	<path class="cls-2" d="M7.967 19.575c-.118 0-.237-.002-.355 0-.063.003-.097-.01-.096-.084.004-.242.004-.483 0-.724 0-.07.027-.09.094-.09q.355.004.71 0c.066 0 .095.016.094.088-.004.24-.004.482 0 .724.001.071-.025.09-.092.087-.118-.004-.237-.001-.355-.001Z"/>
	<path class="cls-2" d="M9.682 25.514c0 .118-.003.237 0 .355.003.065-.013.095-.086.093q-.362-.005-.724 0c-.074.002-.086-.03-.086-.094.003-.236.004-.473 0-.71-.001-.078.028-.096.1-.095q.349.005.698 0c.073-.001.102.02.1.096-.006.118-.002.237-.002.355Z"/>
	<path class="cls-2" d="M7.957 25.96c-.119 0-.237-.001-.356.002-.06.001-.085-.018-.084-.082q.004-.362 0-.724c-.001-.067.019-.094.09-.093q.361.005.723 0c.065 0 .084.023.083.085a32.16 32.16 0 0 0 0 .737c.002.069-.03.078-.088.077-.122-.003-.245-.001-.368-.001Z"/>
	<path class="cls-2" d="M7.968 17.023c-.114 0-.229-.003-.342.001-.076.003-.112-.014-.11-.1.005-.237.003-.474 0-.71 0-.058.012-.09.08-.089q.368.004.737 0c.065 0 .081.024.08.085-.002.241-.003.482 0 .724.002.068-.02.093-.09.09-.118-.004-.237-.001-.355-.001Z"/>
	<path class="cls-2" d="M9.234 16.126c.119 0 .237.003.356 0 .064-.003.095.012.093.085-.004.241-.003.483 0 .724 0 .07-.026.09-.093.09q-.355-.005-.71 0c-.066 0-.095-.018-.094-.09.003-.24.004-.482 0-.723-.001-.073.028-.09.093-.087.118.004.237.001.355.001Z"/>
	<path class="cls-2" d="M19.83 12.746c0 .123-.002.246.002.368.001.058-.02.076-.076.076q-.375-.003-.75 0c-.059 0-.073-.024-.072-.078.002-.246.003-.491 0-.737-.001-.062.018-.084.082-.084q.368.004.736 0c.067 0 .08.028.08.087-.004.123-.001.246-.001.368Z"/>
	<path class="cls-2" d="M19.83 10.189c0 .118-.002.237.002.355.002.064-.012.096-.086.094q-.361-.005-.723 0c-.069.001-.09-.022-.09-.09a29.01 29.01 0 0 0 0-.723c0-.06.013-.087.08-.086q.368.005.736 0c.062 0 .085.018.083.082-.005.122-.001.245-.001.368Z"/>
	<path class="cls-2" d="M19.83 19.139c0 .118-.003.237.002.355.002.063-.02.083-.082.082q-.369-.004-.737 0c-.066.001-.08-.025-.08-.085a29.01 29.01 0 0 0 0-.723c0-.068.02-.092.09-.091q.361.005.723 0c.073-.001.088.03.086.094-.004.122-.001.245-.001.368Z"/>
	<path class="cls-2" d="M17.295 16.574c0 .12-.003.238 0 .356.003.066-.014.095-.086.094a30.239 30.239 0 0 0-.726 0c-.06 0-.086-.016-.085-.082.003-.246.004-.492 0-.738-.001-.068.028-.08.086-.079.242.002.484.003.725 0 .073-.001.09.027.087.093-.004.119-.001.238-.001.356Z"/>
	<path class="cls-2" d="M15.575 16.126c.123 0 .246.002.369 0 .061-.002.085.018.084.082a30.26 30.26 0 0 0 0 .738c0 .057-.02.078-.077.078q-.376-.003-.752 0c-.051 0-.068-.022-.068-.071.001-.25.002-.501 0-.751-.001-.058.018-.078.075-.077.123.003.246.001.369.001Z"/>
	<path class="cls-2" d="M18.563 16.57c0 .119-.004.237.001.355.003.073-.018.1-.095.1q-.355-.007-.71 0c-.078.001-.094-.028-.093-.1q.005-.354 0-.71c-.001-.066.015-.092.087-.09.24.004.482.003.723 0 .068 0 .091.021.088.09-.005.119-.001.237-.001.356Z"/>
	<path class="cls-2" d="M4.159 19.575c-.119 0-.238-.002-.356 0-.064.003-.095-.013-.094-.086q.006-.362 0-.724c0-.074.03-.088.095-.088.237.003.474.003.711 0 .067 0 .093.018.092.089a22.42 22.42 0 0 0 0 .724c.002.074-.028.088-.093.086-.118-.004-.237-.001-.355-.001Z"/>
	<path class="cls-2" d="M3.338 22.962c0 .119-.003.238 0 .356.003.067-.016.093-.087.092a30.464 30.464 0 0 0-.725 0c-.062 0-.085-.02-.084-.084q.004-.369 0-.738c0-.058.02-.077.076-.077.25.002.5.003.751 0 .064 0 .07.032.07.082-.003.123-.001.246-.001.37Z"/>
	<path class="cls-2" d="M5.874 16.571c0 .123-.003.246 0 .368.002.062-.018.086-.082.085a29.406 29.406 0 0 0-.724 0c-.07.001-.09-.025-.09-.092q.005-.362 0-.724c0-.064.023-.083.085-.083q.368.004.737 0c.058 0 .076.022.075.078-.003.122-.001.245-.001.368Z"/>
	<path class="cls-2" d="M3.711 22.97c0-.123.003-.246-.001-.37-.003-.07.023-.09.09-.09q.363.005.725 0c.063 0 .083.022.082.084q-.005.363 0 .725c0 .067-.02.092-.09.091a30.909 30.909 0 0 0-.724 0c-.062 0-.085-.022-.083-.085.004-.118.001-.237.001-.355Z"/>
	<path class="cls-2" d="M5.874 22.967c0 .11-.004.22.001.329.004.08-.013.118-.106.115a14.39 14.39 0 0 0-.684 0c-.078 0-.11-.019-.107-.103.005-.232.004-.465 0-.697 0-.072.017-.102.095-.1.237.004.474.004.71 0 .081-.002.094.032.092.1-.004.119-.001.237-.001.356Z"/>
	<path class="cls-2" d="M22.366 10.184c0 .124-.003.247.001.37.002.062-.018.085-.082.084a40.048 40.048 0 0 0-.738 0c-.057 0-.078-.02-.077-.077.002-.247.003-.493 0-.739-.001-.064.022-.083.083-.083q.37.004.739 0c.056 0 .077.019.075.076-.004.123-.001.246-.001.37Z"/>
	<path class="cls-2" d="M20.65 10.637c-.119 0-.237-.002-.355.001-.065.002-.095-.014-.094-.087.004-.24.003-.482 0-.723 0-.056.008-.09.077-.089q.375.004.75 0c.06 0 .072.025.071.079-.002.245-.002.49 0 .736.001.062-.017.086-.081.084-.123-.004-.246-.001-.368 0Z"/>
	<path class="cls-2" d="M20.69 22.512c.115.012.306-.062.387.028.07.08.02.267.021.407.001.123-.002.246.001.368.002.063-.008.097-.084.095a31.81 31.81 0 0 0-.736 0c-.055 0-.078-.019-.077-.076q.003-.375 0-.75c-.001-.06.026-.073.078-.072h.41Z"/>
	<path class="cls-2" d="M4.606 16.572c0 .123-.003.246 0 .37.003.063-.022.083-.084.082a41.358 41.358 0 0 0-.724 0c-.058 0-.089-.013-.088-.08a36.31 36.31 0 0 0 0-.738c0-.053.013-.08.072-.08q.376.002.751 0c.06-.001.075.023.073.078-.002.123 0 .246 0 .368Z"/>
	<path class="cls-2" d="M4.606 25.528c0 .114-.004.229 0 .343.004.067-.014.093-.086.091a22.882 22.882 0 0 0-.712 0c-.071.001-.1-.018-.099-.095a22.21 22.21 0 0 0 0-.711c0-.067.019-.094.09-.093.241.003.483.003.724 0 .063 0 .085.02.084.083-.004.128-.001.255-.001.382Z"/>
	<path class="cls-2" d="M17.667 10.172c0-.114.004-.228-.001-.342-.003-.067.015-.093.086-.091.241.004.482.003.723 0 .068 0 .09.02.09.09q-.007.355-.001.71c.001.072-.017.101-.095.1q-.354-.007-.71 0c-.077.001-.096-.028-.093-.1.005-.122.001-.245.001-.367Z"/>
	<path class="cls-2" d="M16.4 10.172c0-.119.002-.238-.002-.356-.001-.057.018-.077.075-.077q.37.004.739 0c.06 0 .085.018.084.083q-.005.369 0 .738c0 .07-.034.078-.09.078a40.882 40.882 0 0 0-.725 0c-.064 0-.084-.021-.083-.084.004-.127.001-.255.001-.382Z"/>
	<path class="cls-2" d="M15.132 10.185c0-.123.002-.246-.001-.37-.002-.057.018-.076.075-.076q.369.004.738 0c.061 0 .085.019.084.083a30.26 30.26 0 0 0 0 .738c0 .057-.02.078-.077.078a40.718 40.718 0 0 0-.738 0c-.065 0-.084-.023-.082-.084.003-.123 0-.246 0-.37Z"/>
	<path class="cls-2" d="M4.98 25.504c0-.119.002-.237-.001-.356-.002-.062.02-.085.083-.085q.368.004.737 0c.057 0 .076.022.075.078-.001.246-.002.491 0 .737.001.062-.017.085-.08.084q-.363-.004-.725 0c-.067 0-.093-.02-.09-.09.004-.123 0-.246 0-.368Z"/>
	<path class="cls-2" d="M13.49 12.733c0 .119-.005.237.001.355.005.084-.028.104-.106.103q-.342-.007-.684 0c-.075 0-.11-.012-.108-.1a12.46 12.46 0 0 0 0-.697c-.001-.081.025-.105.105-.103.228.004.457.005.685 0 .09-.003.113.03.108.113-.006.11-.001.22-.001.33Z"/>
	<path class="cls-2" d="M14.758 12.744c0 .123-.002.246.001.368.002.058-.02.078-.076.078q-.375-.003-.75 0c-.051 0-.07-.018-.07-.07.002-.25.002-.5 0-.75-.001-.068.03-.079.087-.079q.363.003.725 0c.062 0 .086.02.084.084-.003.123 0 .246 0 .369Z"/>
	<path class="cls-2" d="M15.132 12.744c0-.123.002-.246-.001-.369-.002-.062.018-.085.082-.084.242.003.483.002.725 0 .056 0 .09.009.09.078-.003.25-.003.501 0 .751 0 .053-.022.07-.071.07a47 47 0 0 0-.751 0c-.058 0-.077-.02-.075-.077.003-.122 0-.246 0-.369Z"/>
	<path class="cls-2" d="M16.4 12.706c.013-.117-.063-.303.028-.39.084-.082.268-.02.408-.023.123-.003.246.002.37-.002.068-.002.091.021.09.09q-.005.363 0 .726c0 .063-.021.084-.083.083a31.15 31.15 0 0 0-.726 0c-.067.001-.092-.018-.09-.089.007-.123.002-.246.002-.395Z"/>
	<path class="cls-2" d="M17.667 12.732c0-.105.006-.21-.002-.315-.006-.094.015-.132.12-.127.223.008.447.006.67 0 .088-.002.112.026.11.112-.006.232-.005.465 0 .697 0 .068-.019.092-.089.091q-.361-.005-.723 0c-.07.002-.09-.02-.087-.09.005-.122.001-.245.001-.368Z"/>
	<path class="cls-2" d="M13.864 10.186c0-.119.003-.237-.002-.356-.002-.067.017-.092.088-.091q.356.006.711 0c.072-.001.1.018.099.096-.005.237-.004.474 0 .71 0 .068-.02.094-.09.093a29.652 29.652 0 0 0-.724 0c-.063 0-.085-.02-.083-.084.003-.122 0-.245 0-.368Z"/>
	<path class="cls-2" d="M20.614 25.96c-.117-.012-.309.064-.39-.028-.07-.08-.02-.267-.021-.407-.001-.123.002-.246-.001-.368-.002-.065.013-.095.086-.094.245.003.49.002.736 0 .057 0 .076.021.075.077-.002.25-.002.5 0 .75.001.06-.025.073-.078.072-.127-.003-.254-.001-.407-.001Z"/>
	<path class="cls-2" d="M5.43 18.678c.118 0 .236.003.354-.001.069-.002.092.021.091.09-.003.241-.004.483 0 .724.002.075-.031.086-.094.085q-.355-.004-.71 0c-.067 0-.094-.018-.093-.089q.006-.362 0-.724c0-.074.033-.087.096-.086.118.003.237.001.355.001Z"/>
	<path class="cls-2" d="M7.142 14.011c0 .123-.003.246.001.368.002.068-.02.092-.09.09a27.508 27.508 0 0 0-.723 0c-.064.001-.083-.024-.082-.084q.003-.368 0-.737c0-.057.021-.075.077-.075.246.002.491.003.737 0 .064-.001.083.021.081.083-.004.118-.001.237-.001.355Z"/>
	<path class="cls-2" d="M4.163 19.96c.122 0 .245.002.368-.001.058-.002.076.018.076.075q-.004.369 0 .738c0 .061-.018.084-.083.084a37.523 37.523 0 0 0-.737 0c-.057 0-.077-.021-.077-.078.002-.245.003-.491 0-.737 0-.064.022-.084.084-.082.123.003.246 0 .369 0Z"/>
	<path class="cls-2" d="M7.142 26.794c0 .118-.002.237.001.355.002.065-.015.094-.087.093a27.123 27.123 0 0 0-.724 0c-.062 0-.085-.02-.084-.083.002-.246.002-.491 0-.737-.001-.068.031-.078.088-.077.241.002.482.003.723-.001.076-.001.086.033.084.095-.003.118 0 .236 0 .355Z"/>
	<path class="cls-2" d="M5.874 26.792c0 .118-.003.237 0 .355.002.063-.01.096-.085.095q-.361-.006-.723 0c-.074.001-.088-.03-.087-.094.002-.237.004-.474-.001-.71-.002-.08.031-.095.1-.094.233.004.466.006.698 0 .087-.003.103.03.1.106-.006.114-.002.228-.002.342Z"/>
	<path class="cls-2" d="M11.327 14.019c0-.119.003-.237-.001-.355-.002-.067.016-.093.087-.092q.355.006.71 0c.073 0 .1.018.1.095q-.008.348 0 .697c0 .077-.019.108-.103.106a17.012 17.012 0 0 0-.697 0c-.074.001-.1-.021-.097-.097.005-.118.001-.236.001-.354Z"/>
	<path class="cls-2" d="M13.49 14.02c0 .119-.003.237 0 .356.002.064-.013.095-.086.094q-.362-.006-.724 0c-.074.001-.086-.031-.085-.094.002-.237.004-.474-.001-.71-.002-.08.028-.095.099-.094.232.004.465.005.697 0 .085-.002.105.029.101.106-.006.114-.001.228-.001.342Z"/>
	<path class="cls-2" d="M13.864 14.016c0-.122.002-.245-.001-.368-.002-.058.019-.076.076-.075q.368.003.737 0c.063-.001.084.02.083.083-.002.245-.002.491 0 .737 0 .057-.021.077-.077.076a37.368 37.368 0 0 0-.738 0c-.065.002-.083-.023-.081-.084.003-.123 0-.246 0-.369Z"/>
	<path class="cls-2" d="M15.595 13.574c.118 0 .237.002.355 0 .056-.002.078.017.077.075q-.003.368 0 .737c.001.063-.02.084-.083.084q-.37-.004-.738 0c-.058 0-.076-.022-.075-.078.002-.246.002-.491 0-.737-.001-.064.019-.084.082-.082.127.004.254 0 .382 0Z"/>
	<path class="cls-2" d="M16.85 13.574c.123 0 .246.002.369 0 .056-.002.077.016.077.074q-.004.37 0 .738c0 .063-.021.084-.084.084q-.369-.004-.738 0c-.058 0-.076-.022-.075-.077a36.03 36.03 0 0 0 0-.739c-.002-.063.019-.083.082-.081.123.004.246 0 .369 0Z"/>
	<path class="cls-2" d="M18.563 14.02c0 .118-.003.237 0 .355.003.064-.01.096-.085.095a27.89 27.89 0 0 0-.725 0c-.059 0-.088-.012-.087-.08q.005-.369 0-.738c-.001-.067.025-.08.085-.08.241.003.483.004.725 0 .07 0 .09.023.088.091-.005.119-.001.238-.001.356Z"/>
	<path class="cls-2" d="M5.425 15.741c-.118 0-.237-.003-.355.002-.067.002-.093-.019-.092-.089.004-.241.003-.482 0-.724 0-.06.02-.085.083-.084.246.002.492.002.737 0 .058 0 .077.02.076.077-.001.25-.002.5 0 .75.001.063-.03.07-.08.069-.123-.002-.246 0-.369 0Z"/>
	<path class="cls-2" d="M7.142 15.294c0 .118-.002.236.001.355.002.062-.009.095-.084.094a21.965 21.965 0 0 0-.723 0c-.071 0-.09-.025-.089-.092.003-.236.004-.473 0-.71-.001-.076.025-.097.099-.096.232.004.465.005.697 0 .085-.002.104.03.1.107-.005.114 0 .228 0 .342Z"/>
	<path class="cls-2" d="M12.22 7.635c0 .118-.002.236.002.355.001.063-.013.095-.087.094q-.362-.006-.723 0c-.075.001-.086-.032-.086-.095.003-.236.004-.473 0-.71-.002-.079.028-.094.099-.092.232.003.464.005.697-.001.085-.002.104.03.1.107-.005.113-.001.228-.001.342Z"/>
	<path class="cls-2" d="M13.009 8.083c-.117-.013-.303.061-.39-.029-.081-.082-.02-.267-.023-.407-.003-.122.002-.245-.002-.368-.002-.064.012-.094.086-.093q.362.007.724 0c.072 0 .088.028.087.093-.003.237-.004.474 0 .71.002.08-.03.098-.1.095-.119-.005-.237-.001-.382-.001Z"/>
	<path class="cls-2" d="M13.864 7.63c0-.119.004-.238-.002-.356-.003-.072.024-.088.09-.087.238.003.475.004.712 0 .076-.002.097.023.096.097-.004.233-.005.465 0 .698.002.083-.027.104-.106.102a14.27 14.27 0 0 0-.685 0c-.09.003-.112-.03-.107-.112.006-.114.002-.228.002-.343Z"/>
	<path class="cls-2" d="M11.776 15.741c-.123 0-.246-.003-.368.002-.064.002-.083-.022-.082-.084q.004-.361 0-.723c0-.067.02-.092.09-.09.24.003.482.002.723 0 .065-.001.083.024.082.085q-.003.368 0 .736c0 .057-.021.076-.077.075-.123-.003-.245 0-.368 0Z"/>
	<path class="cls-2" d="M13.038 15.741c-.119 0-.237-.003-.355.002-.07.003-.09-.022-.089-.09.004-.241.003-.482 0-.724 0-.062.02-.084.083-.083.241.002.483.003.724 0 .07-.002.09.023.09.09q-.005.363 0 .724c0 .065-.023.084-.085.082-.122-.003-.245 0-.368 0Z"/>
	<path class="cls-2" d="M14.758 15.293c0 .119-.002.237.001.356.002.064-.011.095-.085.094a28.565 28.565 0 0 0-.725 0c-.057 0-.088-.009-.087-.078.004-.246.003-.491 0-.737 0-.064.023-.083.085-.082.24.002.482.003.724 0 .071-.002.09.025.088.092-.004.118 0 .237 0 .355Z"/>
	<path class="cls-2" d="M16.026 15.296c0 .123-.002.246.001.37.002.055-.017.077-.075.076-.25-.002-.5-.002-.75 0-.063.001-.071-.029-.071-.08.001-.246.002-.492 0-.737-.001-.068.028-.08.086-.08.238.003.475.004.712 0 .072 0 .103.018.099.096-.006.118-.002.237-.002.355Z"/>
	<path class="cls-2" d="M16.842 15.741c-.123 0-.246-.002-.369.001-.058.002-.075-.019-.075-.076q.004-.369 0-.738c0-.063.02-.083.083-.083.242.003.484.004.725 0 .07 0 .09.023.09.091q-.005.363 0 .725c0 .066-.024.083-.085.081-.123-.003-.246 0-.369 0Z"/>
	<path class="cls-2" d="M15.58 8.083c-.118 0-.236-.003-.355 0-.062.002-.096-.008-.095-.084a27.11 27.11 0 0 0 0-.737c0-.058.02-.076.077-.075q.368.003.737 0c.063 0 .084.02.084.083a27.55 27.55 0 0 0 0 .724c0 .07-.023.092-.091.09-.119-.004-.237-.001-.356-.001Z"/>
	<path class="cls-2" d="M23.172 11.912c-.114 0-.228-.003-.343.002-.066.002-.093-.017-.092-.088a25.1 25.1 0 0 0 0-.726c0-.06.018-.085.082-.084.247.003.493.002.74 0 .055 0 .076.016.076.074q-.004.376 0 .752c0 .062-.028.072-.08.071-.128-.002-.255 0-.383 0Z"/>
	<path class="cls-2" d="M21.924 11.912c-.11 0-.22-.005-.329.002-.093.007-.131-.014-.127-.12.009-.227.005-.455.001-.683-.001-.075.022-.097.097-.096.236.005.473.004.71 0 .065 0 .093.013.092.087a21.95 21.95 0 0 0 0 .723c0 .068-.019.092-.09.089-.117-.005-.236-.002-.354-.002Z"/>
	<path class="cls-2" d="M20.636 11.912c-.114 0-.228-.002-.342.001-.064.003-.094-.01-.093-.085.004-.245.003-.49 0-.736 0-.058.02-.076.077-.076.25.002.5.003.75 0 .061 0 .071.026.071.079-.002.245-.002.49 0 .736.001.062-.017.085-.081.083-.127-.005-.254-.002-.382-.002Z"/>
	<path class="cls-2" d="M19.83 11.47c0 .118-.003.237.002.355.003.07-.021.09-.09.089a21.873 21.873 0 0 0-.723 0c-.074.001-.086-.03-.085-.093a22.82 22.82 0 0 0 0-.71c-.002-.076.021-.097.096-.096.236.005.473.005.71 0 .08-.002.095.03.092.1-.005.118-.001.237-.001.355Z"/>
	<path class="cls-2" d="M17.667 11.458c0-.118.004-.237-.001-.355-.004-.071.023-.088.09-.087.241.003.482.002.723 0 .061 0 .086.015.085.08q-.005.369 0 .737c0 .065-.024.081-.085.08a28.425 28.425 0 0 0-.723 0c-.068.002-.094-.015-.09-.087.005-.122.001-.245.001-.368Z"/>
	<path class="cls-2" d="M17.295 11.475c0 .118-.003.237 0 .355.003.062-.017.084-.08.084a25.866 25.866 0 0 0-.737 0c-.067 0-.08-.025-.08-.085a29.69 29.69 0 0 0 0-.723c0-.066.016-.092.087-.09q.362.006.723 0c.072-.002.09.024.088.09-.004.123-.001.246-.001.369Z"/>
	<path class="cls-2" d="M16.026 11.464c0 .12-.002.238.002.357.002.064-.013.094-.087.093q-.363-.006-.725 0c-.075.001-.086-.03-.086-.093.003-.237.005-.475 0-.712-.002-.079.027-.095.098-.094.233.004.467.006.7 0 .086-.002.104.03.1.107-.006.114-.002.228-.002.342Z"/>
	<path class="cls-2" d="M13.864 11.463c0-.118.002-.237-.002-.356-.002-.065.014-.093.087-.092q.362.007.725 0c.075-.001.086.032.085.095-.002.237-.003.475 0 .712.001.067-.016.093-.088.092a26.515 26.515 0 0 0-.725 0c-.062 0-.086-.017-.084-.082.005-.123.002-.246.002-.369Z"/>
	<path class="cls-2" d="M4.144 18.298c-.114 0-.229-.003-.343.002-.067.002-.092-.018-.091-.09a28.17 28.17 0 0 0 0-.724c0-.062.018-.085.082-.084q.37.004.738 0c.058 0 .077.018.076.075q-.003.376 0 .751c.001.063-.028.072-.08.071-.127-.002-.255 0-.382 0Z"/>
	<path class="cls-2" d="M5.874 17.851c0 .119-.003.237 0 .356.003.064-.01.094-.085.093q-.362-.007-.724 0c-.075.001-.087-.03-.086-.094.002-.238.004-.475-.001-.712-.002-.08.031-.094.1-.093.234.004.467.004.7 0 .072-.001.101.017.097.095-.006.118-.001.237-.001.355Z"/>
	<path class="cls-2" d="M6.697 18.298c-.118 0-.237-.002-.355.001-.065.002-.096-.011-.095-.085.004-.242.003-.483 0-.724 0-.057.01-.09.079-.088q.369.004.738 0c.067-.001.08.026.079.085-.002.242-.003.483 0 .725.002.07-.022.09-.09.088-.119-.005-.237-.002-.356-.002Z"/>
	<path class="cls-2" d="M21.098 24.234c0 .122-.002.245.001.368.002.061-.015.084-.08.084q-.368-.005-.737 0c-.065 0-.081-.024-.08-.085q.004-.368 0-.737c0-.056.017-.077.075-.076q.375.003.75 0c.06-.001.073.023.072.077-.003.123 0 .246 0 .369Z"/>
	<path class="cls-2" d="M7.142 24.24c0 .123-.002.246 0 .369.002.056-.017.077-.075.076a33.33 33.33 0 0 0-.737 0c-.065.001-.083-.022-.082-.084q.003-.368 0-.737c0-.057.02-.077.076-.076.246.002.492.003.738 0 .065-.001.083.023.081.084-.003.122-.001.245-.001.368Z"/>
	<path class="cls-2" d="M18.112 17.403c.123 0 .246.003.369-.001.062-.002.084.018.083.082a37.84 37.84 0 0 0 0 .736c0 .053-.012.08-.073.08q-.375-.004-.75 0c-.057 0-.075-.019-.075-.076q.004-.375 0-.75c0-.06.024-.073.078-.072.123.003.246 0 .368 0Z"/>
	<path class="cls-2" d="M12.595 11.452c0-.114.003-.229 0-.343-.002-.063.009-.095.084-.094q.362.007.725 0c.073 0 .087.029.087.094a22.89 22.89 0 0 0 0 .711c.002.079-.029.095-.1.094a16.256 16.256 0 0 0-.698 0c-.088.003-.102-.031-.099-.107.005-.118.001-.237.001-.355Z"/>
	<path class="cls-2" d="M11.327 11.467c0-.123.003-.246 0-.37-.003-.063.02-.082.082-.081.242.003.483.002.725 0 .057 0 .089.01.088.078q-.005.369 0 .738c0 .063-.023.082-.085.082a25.421 25.421 0 0 0-.724 0c-.072.001-.09-.026-.087-.092.004-.118.001-.237.001-.355Z"/>
	<path class="cls-2" d="M5.874 24.25c0 .114-.003.228 0 .342.003.063-.009.095-.084.094q-.362-.007-.725 0c-.073 0-.087-.029-.086-.094.002-.237.004-.474-.001-.711-.001-.079.03-.095.1-.094.233.004.466.006.698 0 .088-.003.102.032.1.107-.006.118-.002.237-.002.355Z"/>
	<path class="cls-2" d="M4.606 24.238c0 .119-.003.237 0 .356.003.065-.013.093-.086.092q-.362-.007-.725 0c-.075.001-.086-.032-.085-.095.002-.237.003-.475 0-.712-.001-.067.017-.093.088-.092.242.004.484.003.725 0 .062 0 .086.018.084.082-.004.123-.001.246-.001.369Z"/>
	<path class="cls-2" d="M2.443 24.236c0-.119.003-.237-.001-.356-.003-.066.014-.094.087-.093q.362.006.725 0c.075-.001.085.03.085.094-.003.237-.005.475 0 .712.002.08-.028.094-.099.093a16.472 16.472 0 0 0-.699 0c-.087.003-.103-.03-.1-.107.006-.114.002-.229.002-.343Z"/>
	<path class="cls-2" d="M6.249 11.464c0-.119.002-.237-.002-.356-.002-.065.015-.094.087-.093.242.004.483.004.725 0 .06 0 .085.017.084.082q-.004.368 0 .737c.001.066-.026.08-.086.08a26.42 26.42 0 0 0-.724 0c-.075.001-.087-.031-.085-.095.003-.118 0-.237 0-.355Z"/>
	<path class="cls-2" d="M2.892 20.854c-.119 0-.238-.002-.356.001-.064.002-.096-.012-.095-.086.004-.241.003-.483 0-.724 0-.06.014-.087.08-.086q.37.004.738 0c.067-.001.08.025.08.084-.003.242-.004.483 0 .725.001.07-.024.09-.092.088-.118-.005-.237-.002-.355-.002Z"/>
	<path class="cls-2" d="M11.327 8.907c0-.118.003-.237 0-.355-.003-.066.015-.094.087-.093.241.004.482.003.723 0 .063 0 .085.022.084.084q-.003.368 0 .736c0 .056-.018.078-.075.077q-.375-.003-.75 0c-.063.001-.07-.03-.07-.081.002-.123.001-.245.001-.368Z"/>
	<path class="cls-2" d="M5.394 20.855c-.116-.014-.301.061-.39-.03-.083-.083-.02-.266-.024-.405-.003-.123.002-.246-.001-.369-.003-.065.014-.094.087-.093q.361.006.723 0c.074-.001.087.029.086.093-.003.237-.004.474 0 .71.002.078-.027.098-.099.095-.118-.005-.237-.002-.382-.002Z"/>
	<path class="cls-2" d="M7.142 20.397c0 .123-.003.245.001.368.002.068-.02.092-.09.09a27.509 27.509 0 0 0-.723 0c-.065.001-.083-.024-.082-.084q.003-.369 0-.737c0-.057.021-.075.077-.075.246.002.491.003.737 0 .064-.001.083.021.081.083-.004.118-.001.237-.001.355Z"/>
	<path class="cls-2" d="M13.49 8.909c0 .118-.003.237 0 .355.003.066-.014.094-.086.093q-.362-.006-.724 0c-.074.001-.086-.028-.086-.093.003-.236.004-.473 0-.71-.002-.077.027-.096.1-.095.232.004.464.006.696 0 .087-.002.104.032.1.108-.004.114 0 .228 0 .342Z"/>
	<path class="cls-2" d="M14.307 9.355c-.123 0-.246-.002-.369.001-.057.002-.076-.017-.075-.075q.003-.368 0-.737c-.001-.061.017-.085.081-.084.246.003.492.002.738 0 .056 0 .077.02.077.077-.002.245-.003.491 0 .737.001.063-.02.084-.083.083-.123-.004-.246-.002-.369-.002Z"/>
	<path class="cls-2" d="M19.373 20.854c-.12 0-.238-.002-.357.002-.063.002-.083-.021-.082-.084q.004-.37 0-.738c0-.059.02-.076.076-.075.246.002.493.002.739 0 .062-.001.084.018.083.082q-.005.362 0 .725c0 .069-.02.093-.09.09-.123-.005-.246-.002-.37-.002Z"/>
	<path class="cls-2" d="M3.338 21.681c0 .119-.003.237 0 .356.003.065-.012.093-.085.092q-.362-.007-.725 0c-.072 0-.087-.027-.087-.093.004-.237.005-.474 0-.711-.001-.08.03-.095.101-.094q.35.005.698 0c.072-.001.103.017.1.095-.007.118-.002.237-.002.355Z"/>
	<path class="cls-2" d="M4.606 21.682c0 .119-.004.238 0 .356.003.066-.015.092-.086.09q-.356-.005-.711 0c-.072.002-.101-.015-.1-.094.005-.236.004-.473 0-.71 0-.067.018-.094.09-.093.24.004.482.003.724 0 .062 0 .086.02.084.083-.004.123-.001.246-.001.368Z"/>
	<path class="cls-2" d="M4.98 21.69c0-.123.003-.246-.002-.368-.002-.07.023-.092.091-.09q.362.004.724 0c.065-.001.082.024.082.084q-.004.369 0 .737c0 .058-.02.076-.076.075q-.369-.003-.737 0c-.063.001-.085-.02-.083-.083.003-.118 0-.237 0-.355Z"/>
	<path class="cls-2" d="M6.249 21.68c0-.118.002-.236-.001-.354-.002-.064.012-.096.086-.095q.362.006.723 0c.075-.001.087.032.086.095a23.21 23.21 0 0 0 0 .71c.002.079-.028.094-.098.093a17.266 17.266 0 0 0-.697 0c-.086.002-.105-.03-.1-.107.005-.113 0-.227 0-.341Z"/>
	<path class="cls-2" d="M16.026 8.907c0 .119-.002.238.002.356.002.064-.012.095-.086.094a28.091 28.091 0 0 0-.725 0c-.057 0-.088-.008-.087-.078.004-.246.003-.492 0-.737 0-.064.023-.083.085-.082.241.002.483.003.724 0 .072-.002.09.025.089.092-.004.118-.002.237-.002.355Z"/>
	<path class="cls-2" d="M16.86 8.46c.114 0 .228.003.342 0 .065-.002.095.013.094.087q-.006.362 0 .725c.002.075-.03.085-.094.085a22.43 22.43 0 0 0-.712 0c-.08.002-.093-.029-.092-.099.004-.233.005-.466 0-.698-.003-.086.028-.105.106-.1.118.005.237 0 .356 0Z"/>
	<path class="cls-2" d="M21.098 21.69c0 .119-.003.237.001.356.003.063-.018.083-.081.083q-.363-.005-.726 0c-.066 0-.092-.017-.09-.088a35.14 35.14 0 0 0 0-.726c-.001-.062.019-.084.082-.084q.37.005.739 0c.057 0 .077.02.076.077-.003.127 0 .254 0 .382Z"/>
	<path class="cls-2" d="M18.116 9.355c-.119 0-.238-.002-.356.001-.063.002-.096-.007-.095-.083a20.95 20.95 0 0 0 0-.725c0-.071.024-.09.092-.089.237.004.475.005.712 0 .077-.001.096.026.095.099-.004.233-.005.466 0 .699.003.086-.028.104-.105.1-.114-.006-.229-.002-.343-.002Z"/>
	<path class="cls-2" d="M7.968 14.469c-.119 0-.238-.003-.356 0-.066.003-.096-.015-.095-.086a35.14 35.14 0 0 0 0-.726c0-.06.017-.085.082-.084.242.003.483.002.725 0 .058 0 .089.01.088.078a30.82 30.82 0 0 0 0 .738c0 .067-.029.082-.088.08-.119-.003-.238 0-.356 0Z"/>
	<path class="cls-2" d="M7.963 22.127c-.123 0-.246-.002-.37.001-.056.002-.076-.02-.076-.076q.003-.37 0-.738c0-.064.025-.083.086-.082q.363.003.726 0c.065-.001.083.024.082.085-.002.242-.003.483.001.725.001.073-.027.089-.093.086-.118-.004-.237 0-.356 0Z"/>
	<path class="cls-2" d="M8.41 20.407c0 .119-.002.237.002.356.002.066-.018.094-.09.093a25.133 25.133 0 0 0-.711 0c-.067 0-.095-.018-.094-.088q.004-.363 0-.726c-.001-.062.019-.084.083-.083.241.003.483.003.725 0 .073-.002.089.027.087.092-.004.119-.001.237-.001.356Z"/>
	<path class="cls-2" d="M10.059 8.897c0-.115.002-.23-.001-.343-.002-.065.013-.096.087-.095.241.004.483.004.725 0 .066 0 .082.028.082.087-.002.242-.002.484 0 .726.001.06-.015.086-.081.085a24.818 24.818 0 0 0-.726 0c-.07.001-.09-.024-.088-.091.005-.123.002-.246.002-.37Z"/>
	<path class="cls-2" d="M7.518 8.906c0-.12.002-.238-.001-.357-.002-.068.023-.09.092-.09q.356.005.712 0c.07 0 .092.023.09.091q-.004.363 0 .726c.002.065-.023.081-.084.08a25.918 25.918 0 0 0-.725.001c-.076.001-.087-.033-.085-.095.003-.119 0-.238 0-.356Z"/>
	<path class="cls-2" d="M10.49 15.741c-.115 0-.23-.003-.344.002-.07.003-.09-.023-.089-.09a22.13 22.13 0 0 0 0-.713c-.001-.078.028-.096.1-.095.233.004.466.005.7 0 .077-.002.097.028.096.1a20.36 20.36 0 0 0 0 .699c.003.087-.032.102-.108.099-.118-.006-.237-.002-.356-.002Z"/>
	<path class="cls-2" d="M8.41 15.305c0 .114-.002.229.002.343.001.062-.008.096-.084.095a25.578 25.578 0 0 0-.726 0c-.06 0-.086-.017-.085-.082q.004-.362 0-.725c-.001-.068.022-.092.091-.09q.356.004.713 0c.068-.002.093.02.09.09-.003.123 0 .246 0 .369Z"/>
	<path class="cls-2" d="M10.059 7.634c0-.119.003-.238-.002-.356-.002-.067.017-.093.088-.092.242.004.484.004.726 0 .065 0 .082.025.081.086a32.91 32.91 0 0 0 0 .725c.001.072-.03.088-.095.087a19.328 19.328 0 0 0-.699 0c-.085.003-.104-.03-.1-.107.004-.114 0-.229 0-.343Z"/>
	<path class="cls-2" d="M10.059 13.987c.013-.117-.063-.308.029-.39.08-.07.267-.02.407-.023.119-.001.238.005.356-.002.084-.005.104.027.102.105a19.61 19.61 0 0 0 0 .686c.001.077-.018.11-.102.108a12.908 12.908 0 0 0-.686 0c-.093.003-.112-.033-.108-.115.006-.114.002-.229.002-.37Z"/>
	<path class="cls-2" d="M8.41 26.794c0 .12-.002.238.002.356.002.068-.02.093-.09.092q-.357-.005-.713 0c-.068 0-.093-.02-.092-.09q.004-.363 0-.725c-.001-.065.022-.083.084-.082.242.002.484.003.726 0 .075-.002.086.03.085.093-.004.119-.001.238-.001.356Z"/>
	<path class="cls-2" d="M8.41 28.063c0 .123-.002.246.002.369.002.064-.021.083-.084.082q-.362-.004-.725 0c-.06 0-.087-.014-.086-.08q.004-.363 0-.725c-.001-.068.02-.093.09-.092q.357.005.713 0c.068 0 .094.02.092.09-.004.118-.001.237-.001.356Z"/>
	<path class="cls-2" d="M9.68 20.398c0 .118-.005.237.001.355.004.083-.027.105-.106.103a15.963 15.963 0 0 0-.685 0c-.084.002-.103-.03-.102-.107q.006-.342 0-.684c-.001-.076.013-.11.1-.107.232.006.465.005.698 0 .076-.001.098.024.095.098-.005.114-.001.228-.001.342Z"/>
	<path class="cls-2" d="M9.68 21.69c0 .118-.003.237 0 .355.003.063-.019.084-.082.083q-.362-.004-.724 0c-.06 0-.086-.015-.085-.08q.004-.362 0-.724c-.001-.067.018-.094.089-.093q.355.005.711 0c.068 0 .094.021.092.09-.004.123-.002.246-.002.369Z"/>
	<path class="cls-2" d="M8.79 8.905c0-.118.003-.237-.001-.355-.003-.07.023-.091.091-.09q.356.004.711 0c.071-.002.09.026.09.092q-.004.362 0 .724c0 .065-.025.081-.085.08q-.362-.003-.725 0c-.063.001-.084-.02-.082-.082.003-.123 0-.246 0-.369Z"/>
	<path class="cls-2" d="M8.41 11.467c0 .118-.002.237.002.356.002.067-.018.092-.089.09a23.725 23.725 0 0 0-.712 0c-.067.002-.093-.017-.092-.088.004-.242.003-.483 0-.725 0-.062.019-.085.083-.084q.363.004.726 0c.061 0 .086.017.084.081-.004.123-.001.247-.001.37Z"/>
	<path class="cls-2" d="M9.248 11.017c.118 0 .237.002.356 0 .057-.002.077.018.076.075q-.003.376 0 .752c0 .05-.018.07-.07.07q-.375-.003-.751 0c-.051 0-.07-.02-.07-.07.002-.25.003-.501 0-.752-.001-.07.034-.077.09-.076.122.003.246 0 .369.001Z"/>
	<path class="cls-2" d="M10.513 11.017c.115 0 .229.003.343-.001.065-.002.095.013.094.086q-.005.363 0 .726c.001.073-.03.086-.094.086a24.992 24.992 0 0 0-.7 0c-.07 0-.1-.015-.1-.093q.008-.356 0-.713c0-.08.03-.095.101-.092.119.004.238 0 .356 0Z"/>
	<path class="cls-2" d="M9.68 17.852c0 .118-.003.237 0 .356.003.066-.015.093-.087.092a23.617 23.617 0 0 0-.712 0c-.067 0-.094-.016-.093-.088.004-.242.003-.483 0-.725 0-.06.016-.086.082-.085.241.003.483.003.725 0 .075-.002.087.03.085.094-.003.118 0 .237 0 .356Z"/>
	<path class="cls-2" d="M8.41 24.238c0 .119-.002.238.002.356.002.067-.017.093-.088.092a23.658 23.658 0 0 0-.712 0c-.067 0-.094-.017-.093-.088a25.1 25.1 0 0 0 0-.726c0-.06.018-.085.083-.084.241.003.483.003.725 0 .076-.002.086.032.085.094-.004.119-.001.237-.001.356Z"/>
	<path class="cls-2" d="M9.222 24.684c-.12 0-.238-.002-.357.001-.056.002-.076-.02-.076-.076q.003-.376 0-.751c0-.05.018-.07.07-.07q.375.003.751 0c.051 0 .07.018.07.07-.001.25-.003.5 0 .75.001.07-.034.078-.09.077-.122-.002-.245 0-.368 0Z"/>
	<path class="cls-2" d="M8.41 17.852c0 .118-.002.237.002.356.002.066-.016.093-.088.092a23.96 23.96 0 0 0-.712 0c-.066 0-.094-.016-.093-.088.004-.242.003-.484 0-.725 0-.06.017-.086.082-.085.242.003.484.004.726 0 .075-.002.086.03.085.094-.004.118-.001.237-.001.356Z"/>
	<path class="cls-2" d="M9.68 15.291c0 .123-.003.246 0 .369.002.063-.02.083-.082.083q-.362-.005-.725 0c-.06 0-.085-.017-.084-.081q.004-.362 0-.725c-.001-.066.019-.093.09-.092q.355.006.71 0c.069 0 .094.022.092.09-.004.12-.002.238-.002.356Z"/>
	<path class="cls-2" d="M9.233 8.083c-.114 0-.228-.005-.342.001-.084.005-.104-.028-.103-.106.004-.232.005-.465 0-.698-.002-.077.027-.095.099-.093q.349.005.698 0c.075-.002.097.022.096.096-.004.233-.005.465 0 .698.002.081-.026.107-.105.103-.114-.006-.229-.001-.343-.001Z"/>
	<path class="cls-2" d="M9.247 13.574c.114 0 .229.003.343-.001.067-.003.092.017.09.088-.003.24-.002.482 0 .724 0 .06-.018.085-.083.085q-.362-.005-.724 0c-.063 0-.085-.022-.084-.084q.003-.369 0-.737c0-.057.02-.077.076-.076.128.003.255 0 .382 0Z"/>
	<path class="cls-2" d="M9.68 26.79c0 .118-.002.237 0 .355.002.062-.01.098-.085.097a26.332 26.332 0 0 0-.724 0c-.065 0-.083-.027-.082-.086q.003-.362 0-.725c0-.057.01-.088.078-.087.246.004.492.003.738 0 .057 0 .077.021.075.077-.003.123 0 .246 0 .369Z"/>
	<path class="cls-2" d="M9.235 28.513c-.123 0-.246-.002-.37.001-.055.001-.077-.017-.076-.075q.003-.369 0-.737c0-.062.02-.085.083-.085q.363.004.725 0c.063 0 .084.023.083.085q-.003.368 0 .737c0 .058-.02.076-.077.075-.123-.003-.245 0-.368 0Z"/>
</svg>
