<svg xmlns="http://www.w3.org/2000/svg" viewBox="0 0 305.19 156.93"><defs><style>.cls-1,.cls-6{fill:#333;}.cls-1,.cls-2,.cls-3,.cls-4,.cls-5{stroke:#fff;stroke-width:0.81px;}.cls-2{fill:#cdcdcd;}.cls-3{fill:#888;}.cls-4{fill:#dd4814;}.cls-5{fill:none;}</style></defs><title>lxc-logo</title><g id="Layer_2" data-name="Layer 2"><g id="Layer_1-2" data-name="Layer 1"><polygon class="cls-1" points="84.3 0.46 166.01 47.64 124.27 70.23 42.56 23.06 84.3 0.46"/><polygon class="cls-2" points="42.56 23.06 83.42 46.65 41.68 69.24 0.83 45.66 42.56 23.06"/><polygon class="cls-2" points="0.57 46.07 41.43 69.66 41.43 85.22 0.57 61.63 0.57 46.07"/><polygon class="cls-3" points="0.57 62.01 82.28 109.18 82.28 124.75 0.57 77.57 0.57 62.01"/><polygon class="cls-4" points="0.57 77.88 82.28 125.06 82.28 156.19 0.57 109.01 0.57 77.88"/><polygon class="cls-2" points="41.43 69.56 83.22 46.93 83.22 62.49 41.43 85.12 41.43 69.56"/><polygon class="cls-3" points="83.05 62.94 123.91 86.52 82.17 109.12 41.32 85.53 83.05 62.94"/><polygon class="cls-3" points="82.42 109.61 124.21 86.99 124.21 102.55 82.42 125.18 82.42 109.61"/><polygon class="cls-4" points="82.52 125.13 166.33 79.75 166.33 110.88 82.52 156.25 82.52 125.13"/><polygon class="cls-1" points="124.68 70.55 166.28 48.02 166.28 79.15 124.68 101.67 124.68 70.55"/><polygon class="cls-1" points="83.45 47.1 124.31 70.69 124.31 86.25 83.45 62.67 83.45 47.1"/><line class="cls-5" x1="43.01" y1="23.23" x2="43.01" y2="39.95"/><line class="cls-5" x1="83.99" y1="63.13" x2="42.47" y2="39.95"/><line class="cls-5" x1="42.47" y1="39.95" x2="0.42" y2="61.51"/><path class="cls-6" d="M228.39,102c2.61-4.12,4.9-7.89,7.36-11.54s5-7.17,7.64-10.65a2.24,2.24,0,0,0,.09-3.15c-4.38-6.35-8.64-12.78-12.93-19.18-.33-.48-.61-1-1.06-1.73a35.16,35.16,0,0,1,4.19.05A2.54,2.54,0,0,1,235.13,57c3.53,5.23,7,10.5,10.53,15.75.36.54.75,1.07,1.26,1.79.49-.67.87-1.18,1.23-1.71,3.27-4.9,6.63-9.74,9.76-14.73,1.11-1.76,2.29-2.65,4.36-2.31a14.88,14.88,0,0,0,2.1,0l-15,22.37c5.45,7.77,11.34,15.18,15.81,23.89a29.25,29.25,0,0,1-4-.06c-.5-.07-1-.73-1.34-1.23-4.17-6.26-8.31-12.53-12.63-19.06a18.82,18.82,0,0,0-1.31,1.49c-4.06,6-8.09,12-12.18,17.91a2.43,2.43,0,0,1-1.51.92A31,31,0,0,1,228.39,102Z"/><path class="cls-6" d="M303.87,96.78l1.32,3.9c-2.41.65-4.69,1.6-7,1.81a45.86,45.86,0,0,1-11,.07,17.37,17.37,0,0,1-13.31-10c-4.38-9-4.52-18.19.14-27.15A20.15,20.15,0,0,1,294.7,54.82c4.67.59,7.42,1.4,10,3l-1.33,3.57c-.84-.37-1.55-.67-2.24-1A19.39,19.39,0,0,0,288,59.19a14.74,14.74,0,0,0-10.85,9.62,28.34,28.34,0,0,0-.06,20.31c2.35,6.42,7.72,9.94,14.57,10.06A27.82,27.82,0,0,0,303.87,96.78Z"/><path class="cls-6" d="M198.08,55.84h4.15V98h21.66v3.9h-25.8Z"/></g></g></svg>