<svg xmlns="http://www.w3.org/2000/svg" viewBox="0 0 305.19 156.93">
	<defs>
		<style>
			.cls-1,.cls-6{fill:#333}.cls-1,.cls-2,.cls-3,.cls-4,.cls-5{stroke:#fff;stroke-width:.81px}.cls-2{fill:#cdcdcd}.cls-3{fill:#888}.cls-4{fill:#dd4814}.cls-5{fill:none}
		</style>
	</defs>
	<g id="Layer_2" data-name="Layer 2">
		<g id="Layer_1-2" data-name="Layer 1">
			<path class="cls-1" d="m84.3.46 81.71 47.18-41.74 22.59-81.71-47.17L84.3.46z"/>
			<path class="cls-2" d="m42.56 23.06 40.86 23.59-41.74 22.59L.83 45.66l41.73-22.6z"/>
			<path class="cls-2" d="m.57 46.07 40.86 23.59v15.56L.57 61.63V46.07z"/>
			<path class="cls-3" d="m.57 62.01 81.71 47.17v15.57L.57 77.57V62.01z"/>
			<path class="cls-4" d="m.57 77.88 81.71 47.18v31.13L.57 109.01V77.88z"/>
			<path class="cls-2" d="m41.43 69.56 41.79-22.63v15.56L41.43 85.12V69.56z"/>
			<path class="cls-3" d="m83.05 62.94 40.86 23.58-41.74 22.6-40.85-23.59 41.73-22.59z"/>
			<path class="cls-3" d="m82.42 109.61 41.79-22.62v15.56l-41.79 22.63v-15.57z"/>
			<path class="cls-4" d="m82.52 125.13 83.81-45.38v31.13l-83.81 45.37v-31.12z"/>
			<path class="cls-1" d="m124.68 70.55 41.6-22.53v31.13l-41.6 22.52V70.55z"/>
			<path class="cls-1" d="m83.45 47.1 40.86 23.59v15.56L83.45 62.67V47.1z"/>
			<path class="cls-5" d="M43.01 23.23v16.72"/>
			<path class="cls-5" d="M83.99 63.13 42.47 39.95"/>
			<path class="cls-5" d="M42.47 39.95.42 61.51"/>
			<path class="cls-6" d="M228.39 102c2.61-4.12 4.9-7.89 7.36-11.54s5-7.17 7.64-10.65a2.24 2.24 0 0 0 .09-3.15c-4.38-6.35-8.64-12.78-12.93-19.18-.33-.48-.61-1-1.06-1.73a35.16 35.16 0 0 1 4.19.05 2.54 2.54 0 0 1 1.45 1.2c3.53 5.23 7 10.5 10.53 15.75.36.54.75 1.07 1.26 1.79.49-.67.87-1.18 1.23-1.71 3.27-4.9 6.63-9.74 9.76-14.73 1.11-1.76 2.29-2.65 4.36-2.31a14.88 14.88 0 0 0 2.1 0l-15 22.37c5.45 7.77 11.34 15.18 15.81 23.89a29.25 29.25 0 0 1-4-.06c-.5-.07-1-.73-1.34-1.23-4.17-6.26-8.31-12.53-12.63-19.06a18.82 18.82 0 0 0-1.31 1.49c-4.06 6-8.09 12-12.18 17.91a2.43 2.43 0 0 1-1.51.92 31 31 0 0 1-3.82-.02Z"/>
			<path class="cls-6" d="m303.87 96.78 1.32 3.9c-2.41.65-4.69 1.6-7 1.81a45.86 45.86 0 0 1-11 .07 17.37 17.37 0 0 1-13.31-10c-4.38-9-4.52-18.19.14-27.15a20.15 20.15 0 0 1 20.68-10.59c4.67.59 7.42 1.4 10 3l-1.33 3.57c-.84-.37-1.55-.67-2.24-1a19.39 19.39 0 0 0-13.13-1.2 14.74 14.74 0 0 0-10.85 9.62 28.34 28.34 0 0 0-.06 20.31c2.35 6.42 7.72 9.94 14.57 10.06a27.82 27.82 0 0 0 12.21-2.4Z"/>
			<path class="cls-6" d="M198.08 55.84h4.15V98h21.66v3.9h-25.8Z"/>
		</g>
	</g>
</svg>
