<svg xmlns="http://www.w3.org/2000/svg" viewBox="-4.21 -4.21 218.92 81.92">
	<defs>
		<linearGradient id="a" x1="367.89" x2="367.89" y1="329.54" y2="292.8" gradientUnits="userSpaceOnUse">
			<stop offset="0" stop-color="#54c3f1"/>
			<stop offset="1" stop-color="#006cb8"/>
		</linearGradient>
	</defs>
	<path fill="#0068b7" d="M120.18 13.33a14.42 14.42 0 0 0-6-2.36 43.37 43.37 0 0 0-6.55-.49H94.02v52.47h4.93V14.89h8.36c1.51 0 2.94 0 4.31.1a9.67 9.67 0 0 1 4.11 1.19 10 10 0 0 1 4.18 3.54 10.46 10.46 0 0 1 0 10.66 9.79 9.79 0 0 1-4.18 3.56 10.75 10.75 0 0 1-4.11 1.17c-1.37.08-2.8.13-4.31.13h-5v4.34h5.31a47.63 47.63 0 0 0 6.55-.45 14.25 14.25 0 0 0 6-2.34 13.81 13.81 0 0 0 4.51-5 14.81 14.81 0 0 0 0-13.35 13.84 13.84 0 0 0-4.5-5.11Z"/>
	<path fill="#0068b7" d="M199.44 10.61H183.5v4.34h11.15v44.33h4.79V14.95h11.15v-4.34h-11.15z"/>
	<path fill="#0068b7" d="M141.79 54.87h-8.39V10.55h-4.79v48.66h25v-4.34h-5.91l10.12-14.73h16.63v19h4.86V10.61h-6.61Zm32.66-37.73v18.64H160.8l12.81-18.64Z"/>
	<path fill="url(#a)" d="M415.64 325.86a12.18 12.18 0 0 0-9.56-11.86 21.34 21.34 0 0 0-42.67.17l-.46-.09a12.19 12.19 0 1 0-24.37 0l-.4 1.12a12.14 12.14 0 0 0-5.85-1.5c-6.73 0-12 12.19-12 12.19-.12.69-.2 3.15-.2 3.68h95.5Z" transform="translate(-317.98 -260.86)"/>
	<path d="M90.19 51.46a23.47 23.47 0 0 0-30.17-20.67v-.37c0-9.64-2.92-19.18-14.6-19.18-5.55 0-11 2.53-13.73 7.59a14 14 0 0 0-12.67-7.59 12.92 12.92 0 0 0-11 6.23h-.19v-5H.02v56.24a2.16 2.16 0 0 0 2.16 2.16h95.5a2.16 2.16 0 0 0 2.16-2.16v-3.68a14.43 14.43 0 0 0-9.65-13.57Zm-56.3-17.44c0-6.92 1-15.58 9.93-15.58 8 0 8.37 7.3 8.37 13.24v3.2A23.57 23.57 0 0 0 44.7 45.2a14.35 14.35 0 0 0-10.81-6.32ZM7.8 34.6c0-6.91 1-16.16 10.12-16.16 7.5 0 8.18 8.18 8.18 13.82v8.24a14.38 14.38 0 0 0-7.54 10.78 14.6 14.6 0 0 0-4.21-.63 10.14 10.14 0 0 0-6.55 2.79Zm87.7 31.92H4.4c0-.37 0-.7.06-.93a35 35 0 0 1 3.34-5.72c1.87-2.58 4.23-4.89 6.55-4.89a10 10 0 0 1 4.81 1.23 2.17 2.17 0 0 0 3.09-1.19l.39-1.12a2.16 2.16 0 0 0 .12-.71 10.025 10.025 0 0 1 20.05 0 2.17 2.17 0 0 0 1.74 2.12l.46.09a2.18 2.18 0 0 0 2.59-2.12 19.17 19.17 0 0 1 38.33-.16 2.18 2.18 0 0 0 1.7 2.1A10.07 10.07 0 0 1 95.5 65Z"/>
	<path fill="#231815" d="M8.78 6.69V1.77L6.02 6.69h-1.7L1.58 1.77v4.92H.02V0h2.45L5.2 4.92 8.02 0h2.38v6.69zm8.39 0v-.38a1.08 1.08 0 0 1-.85.38h-3c-.84 0-1.45-.29-1.45-1.22v-.58c0-.85.74-1.11 1.47-1.11h2.94c.29 0 .76.05.87.39V3.5c0-.69-.53-1-1.15-1h-2c-.58 0-1.17.1-1.17.78h-.71v-.11c0-.94.9-1.26 1.7-1.26h2.25c1.13 0 1.79.52 1.79 1.67v3.09zm-1.06-2.32h-2.52c-.54 0-1 0-1 .68v.36c0 .61.53.68 1 .68h2.52c.61 0 1-.19 1-.86s-.42-.86-1-.86zm8.36 2.32V3.81a1.24 1.24 0 0 0-1.37-1.29h-1.81a1.29 1.29 0 0 0-1.39 1.29v2.88h-.68V1.93h.68v.77a1.37 1.37 0 0 1 1.39-.77h1.81a1.83 1.83 0 0 1 2.06 2V6.7zm7.35 0v-.38a1.06 1.06 0 0 1-.85.38h-3c-.84 0-1.45-.29-1.45-1.22v-.58c0-.85.74-1.11 1.48-1.11h2.94c.28 0 .76.05.86.39V3.5c0-.69-.52-1-1.15-1h-2c-.58 0-1.18.1-1.18.78h-.7v-.11c0-.94.89-1.26 1.7-1.26h2.25c1.12 0 1.78.52 1.78 1.67v3.09zm-1.06-2.32h-2.51c-.55 0-1 0-1 .68v.36c0 .61.52.68 1 .68h2.51c.61 0 1-.19 1-.86s-.41-.86-1-.86zm7.05 4.35h-1.9c-.79 0-1.81-.31-1.81-1.27h.74c0 .56.72.68 1.15.68h1.77c.78 0 1.38-.24 1.38-1.12v-.87c-.2.52-.86.57-1.33.57h-1.94c-1.22 0-2-.48-2-1.78v-1.1a1.7 1.7 0 0 1 1.93-1.88h2a1.51 1.51 0 0 1 1.36.52v-.52h.68v5.12c-.02 1.28-.82 1.65-2.03 1.65zm1.34-4.81a1.29 1.29 0 0 0-1.46-1.4h-1.58c-1 0-1.55.29-1.55 1.36v1c0 1 .66 1.27 1.55 1.27h1.58c.81 0 1.46-.41 1.46-1.27zm6.21 2.78h-2.34c-1.21 0-2-.5-2-1.79V3.77a1.85 1.85 0 0 1 2-1.86h2c1 0 2 .53 2 1.68v.68h-5.31v.55a1.14 1.14 0 0 0 1.31 1.32h2.25c.64 0 1.07-.25 1.07-.93h.68v.1a1.48 1.48 0 0 1-1.66 1.38zm-.28-4.18h-2.15a1.13 1.13 0 0 0-1.2 1.18h4.63a1.16 1.16 0 0 0-1.28-1.18zm13.63 4.18c0-1.6.75-4.17-1.55-4.17h-1.39c-2.38 0-1.64 2.45-1.64 4.17h-.68c0-1.52.71-4.17-1.54-4.17h-1.42c-2.33 0-1.61 2.58-1.61 4.17h-.69V1.93h.69v.73a1.52 1.52 0 0 1 1.5-.73h1.64a1.7 1.7 0 0 1 1.81.94 1.63 1.63 0 0 1 1.76-.94h1.76c1 0 2.07.55 2.07 1.69v3.07zm6.17 0h-2.31c-1.21 0-2-.5-2-1.79V3.77a1.85 1.85 0 0 1 2-1.86h2c1 0 2 .53 2 1.68v.68h-5.32v.55a1.14 1.14 0 0 0 1.31 1.27h2.24c.65 0 1.08-.25 1.08-.93h.69v.1a1.48 1.48 0 0 1-1.69 1.43zm-.28-4.18h-2.15a1.14 1.14 0 0 0-1.21 1.18h4.64a1.16 1.16 0 0 0-1.28-1.18zm8.42 4.18V3.81a1.24 1.24 0 0 0-1.37-1.29h-1.81a1.29 1.29 0 0 0-1.39 1.29v2.88h-.68V1.93h.68v.77a1.37 1.37 0 0 1 1.39-.77h1.81a1.83 1.83 0 0 1 2.06 2V6.7zm5.59 0h-1.37c-2.24 0-1.68-2.57-1.68-4.07h-.6v-.69h.6v-.92h.68v.92h3.55v.69h-3.55V5a1 1 0 0 0 1 1.09h1.31c.41 0 1-.17 1-.67h.75c-.01.89-.93 1.27-1.69 1.27zM90.79 4.7v2h-1.58V.01h4.41c2 0 2.42.72 2.42 2.6-.02 2.91-3.18 2.09-5.25 2.09zm2.87-3.1h-2.87v1.54h2.91c.64 0 .75-.21.75-.81s-.26-.73-.79-.73zm3.36 5.09V0h1.59v5.34h4.07v1.35zm13.71 0-.8-1.62h-4l-.81 1.62h-1.85L106.68 0h2.51l3.41 6.69zm-2.71-5.44h-.08l-1.31 2.49h2.65zm9.73.1v5.34h-1.59V1.35h-2.78V0h7.15v1.35zm5.05 1.23v4.11h-.69V2.58h-.58v-.69h.58c0-1.17.45-1.89 1.7-1.89h1v.7c-1.15 0-2-.26-2 1.19h2v.69zm7.12 4.11h-1.9c-1.25 0-2.06-.55-2.06-1.86v-1c0-1.3.82-1.88 2.06-1.88h1.9c1.24 0 2.05.59 2.05 1.88v1c.05 1.31-.83 1.86-2.05 1.86zm1.36-2.91c0-.9-.59-1.27-1.43-1.27h-1.76c-.89 0-1.43.32-1.43 1.28v1c0 .92.56 1.27 1.43 1.27h1.76c.86 0 1.43-.36 1.43-1.27zm7.14.01c0-.9-.6-1.28-1.44-1.28h-1.69c-.9 0-1.43.32-1.43 1.28v2.9h-.68V1.93h.68v.61a1.38 1.38 0 0 1 1.36-.63h1.8c1.24 0 2.05.59 2.05 1.88zm12.21 2.9c0-1.6.74-4.17-1.56-4.17h-1.38c-2.38 0-1.64 2.45-1.64 4.17h-.68c0-1.52.71-4.17-1.54-4.17h-1.42c-2.33 0-1.61 2.58-1.61 4.17h-.69V1.93h.69v.73a1.52 1.52 0 0 1 1.5-.73h1.62a1.7 1.7 0 0 1 1.81.94 1.63 1.63 0 0 1 1.76-.94h1.76c1 0 2.07.55 2.07 1.69v3.07zm-45.08 64.29h-.37v-4.42h.37v.58a1 1 0 0 1 .48-.48 1.66 1.66 0 0 1 .31-.12 1.1 1.1 0 0 1 .31 0 1.57 1.57 0 0 1 .65.12 1.33 1.33 0 0 1 .45.36 1.45 1.45 0 0 1 .25.53 2.69 2.69 0 0 1 .08.65 2.3 2.3 0 0 1-.09.64 1.38 1.38 0 0 1-.26.53 1.23 1.23 0 0 1-.44.37 1.32 1.32 0 0 1-.62.14 1.63 1.63 0 0 1-.65-.15 1.1 1.1 0 0 1-.48-.45zm0-2.82a1.7 1.7 0 0 0 .07.51 1.38 1.38 0 0 0 .21.42 1 1 0 0 0 .34.29.94.94 0 0 0 .45.11 1 1 0 0 0 .49-.12.92.92 0 0 0 .34-.31 1.32 1.32 0 0 0 .2-.45 2 2 0 0 0 .05-.56 1.69 1.69 0 0 0-.08-.53 1.49 1.49 0 0 0-.23-.39.85.85 0 0 0-.35-.24 1 1 0 0 0-.42-.08 1 1 0 0 0-.46.1 1 1 0 0 0-.34.29 1.17 1.17 0 0 0-.2.42 1.9 1.9 0 0 0-.07.52zm5.19 1.66a2.13 2.13 0 0 1-.57-.11 1.32 1.32 0 0 1-.46-.32 1.48 1.48 0 0 1-.32-.52 2.22 2.22 0 0 1-.11-.72 2.34 2.34 0 0 1 .09-.66 1.51 1.51 0 0 1 .27-.52 1.35 1.35 0 0 1 1.1-.49 1.45 1.45 0 0 1 .65.13 1.25 1.25 0 0 1 .46.35 1.56 1.56 0 0 1 .27.53 2.34 2.34 0 0 1 .09.66 2.07 2.07 0 0 1-.1.68 1.62 1.62 0 0 1-.3.53 1.41 1.41 0 0 1-.46.34 1.51 1.51 0 0 1-.61.12zm1.08-1.68a2.2 2.2 0 0 0-.06-.53 1.15 1.15 0 0 0-.19-.42 1 1 0 0 0-.33-.29 1.09 1.09 0 0 0-.5-.1 1.07 1.07 0 0 0-.49.11 1.06 1.06 0 0 0-.33.3 1.2 1.2 0 0 0-.19.43 2.07 2.07 0 0 0-.06.5 1.9 1.9 0 0 0 .07.54 1.36 1.36 0 0 0 .2.42.93.93 0 0 0 .34.28 1.11 1.11 0 0 0 .46.1 1 1 0 0 0 .5-.12.94.94 0 0 0 .33-.3 1.28 1.28 0 0 0 .19-.43 2 2 0 0 0 .06-.49zm4.35 1.1.84-2.68h.37l-1 3.17h-.39l-.69-2.66-.71 2.66h-.44l-1-3.17h.36l.82 2.7.74-2.7h.41zm2.58-1.01a2 2 0 0 0 .06.49 1.66 1.66 0 0 0 .2.4.88.88 0 0 0 .34.26 1 1 0 0 0 .46.11 1.06 1.06 0 0 0 .62-.19 1 1 0 0 0 .34-.54h.41a1.57 1.57 0 0 1-.18.42 1.09 1.09 0 0 1-.27.33 1.26 1.26 0 0 1-.39.23 1.69 1.69 0 0 1-.53.08 1.6 1.6 0 0 1-.65-.13 1.24 1.24 0 0 1-.45-.35 1.56 1.56 0 0 1-.27-.53 2.69 2.69 0 0 1-.08-.65 2.07 2.07 0 0 1 .1-.66 1.58 1.58 0 0 1 .28-.53 1.47 1.47 0 0 1 .46-.36 1.33 1.33 0 0 1 .61-.13 1.26 1.26 0 0 1 1 .45 2 2 0 0 1 .37 1.3zm2.06-.3a1.56 1.56 0 0 0-.06-.44 1 1 0 0 0-.19-.36.79.79 0 0 0-.31-.23 1 1 0 0 0-.44-.09 1 1 0 0 0-.43.09 1.08 1.08 0 0 0-.32.24 1.42 1.42 0 0 0-.21.36 1.5 1.5 0 0 0-.1.43zm2.11 1.8h-.37v-3.17h.37v.6a1 1 0 0 1 .4-.53 1.18 1.18 0 0 1 .63-.15v.39a1.13 1.13 0 0 0-.51.1 1 1 0 0 0-.32.28 1.32 1.32 0 0 0-.17.42 2.78 2.78 0 0 0 0 .51zm2.49-1.5a2 2 0 0 0 .06.49 1.66 1.66 0 0 0 .2.4.88.88 0 0 0 .34.26 1 1 0 0 0 .46.11 1.06 1.06 0 0 0 .62-.19 1 1 0 0 0 .34-.54h.41a1.57 1.57 0 0 1-.18.42 1.09 1.09 0 0 1-.27.33 1.26 1.26 0 0 1-.39.23 1.69 1.69 0 0 1-.53.08 1.6 1.6 0 0 1-.65-.13 1.37 1.37 0 0 1-.46-.35 1.75 1.75 0 0 1-.26-.53 2.27 2.27 0 0 1-.08-.67 2.07 2.07 0 0 1 .1-.66 1.58 1.58 0 0 1 .28-.53 1.47 1.47 0 0 1 .46-.36 1.33 1.33 0 0 1 .61-.13 1.26 1.26 0 0 1 1 .45 2 2 0 0 1 .37 1.3zm2.06-.3a1.56 1.56 0 0 0-.06-.44 1 1 0 0 0-.19-.36.79.79 0 0 0-.31-.23 1 1 0 0 0-.44-.09 1 1 0 0 0-.43.09 1.08 1.08 0 0 0-.32.24 1.17 1.17 0 0 0-.21.36 1.5 1.5 0 0 0-.1.43zm4.17-2.6h.38v4.4h-.36v-.59a1.21 1.21 0 0 1-.21.28 1 1 0 0 1-.28.2 1.57 1.57 0 0 1-.3.12 1.19 1.19 0 0 1-.32.05 1.6 1.6 0 0 1-.65-.13 1.29 1.29 0 0 1-.44-.35 1.54 1.54 0 0 1-.26-.53 2.78 2.78 0 0 1-.08-.66 2.18 2.18 0 0 1 .09-.63 1.51 1.51 0 0 1 .26-.54 1.45 1.45 0 0 1 .44-.37 1.39 1.39 0 0 1 .63-.13 1.43 1.43 0 0 1 .64.15 1.1 1.1 0 0 1 .49.44zm0 2.8a1.7 1.7 0 0 0-.08-.51 1.19 1.19 0 0 0-.21-.42 1.15 1.15 0 0 0-.33-.29 1 1 0 0 0-.45-.1 1.12 1.12 0 0 0-.5.11 1 1 0 0 0-.34.31 1.29 1.29 0 0 0-.2.46 2.39 2.39 0 0 0-.05.55 1.44 1.44 0 0 0 .09.53.94.94 0 0 0 .23.39.88.88 0 0 0 .34.24 1 1 0 0 0 .89 0 1 1 0 0 0 .33-.28 1.44 1.44 0 0 0 .21-.43 2.28 2.28 0 0 0 .07-.55zm4.62 1.6h-.37v-4.4h.37v1.74a1.1 1.1 0 0 1 .49-.44 1.43 1.43 0 0 1 .64-.15 1.39 1.39 0 0 1 .63.13 1.45 1.45 0 0 1 .44.37 1.7 1.7 0 0 1 .26.54 2.18 2.18 0 0 1 .08.63 2.78 2.78 0 0 1-.07.66 1.54 1.54 0 0 1-.26.53 1.39 1.39 0 0 1-.44.35 1.62 1.62 0 0 1-.66.13 1.18 1.18 0 0 1-.31-.05 2 2 0 0 1-.31-.12 1.05 1.05 0 0 1-.27-.2 1 1 0 0 1-.21-.28zm0-1.6a1.86 1.86 0 0 0 .07.54 1.44 1.44 0 0 0 .21.43 1 1 0 0 0 .33.28 1 1 0 0 0 .89 0 .88.88 0 0 0 .34-.24 1.06 1.06 0 0 0 .23-.39 1.44 1.44 0 0 0 .08-.53 1.94 1.94 0 0 0-.05-.55 1.27 1.27 0 0 0-.19-.46 1 1 0 0 0-.35-.31 1.07 1.07 0 0 0-.49-.11.93.93 0 0 0-.45.1 1.34 1.34 0 0 0-.34.29 1.38 1.38 0 0 0-.21.42 1.7 1.7 0 0 0-.07.54zm3.91 2.46h.31a.32.32 0 0 0 .25-.1.63.63 0 0 0 .16-.23 1.45 1.45 0 0 0 .11-.29 1.18 1.18 0 0 1 .1-.25l-1.23-3.19h.41l1 2.72 1-2.72h.4l-1.18 3.13c-.08.2-.15.38-.22.54a1.88 1.88 0 0 1-.21.4 1 1 0 0 1-.25.26.58.58 0 0 1-.33.09h-.35z"/>
	<path fill="#1a2f71" d="M175.1 69.95h.38v-2h1.29v-.35h-1.29v-1.51h1.35v-.35h-1.73v4.24Zm3.94-1.19c0 .84-.61.91-.77.91a.56.56 0 0 1-.57-.57c0-.71.61-.71 1.34-.71v.37Zm.33-.92a.9.9 0 0 0-1-1 1.65 1.65 0 0 0-.85.28l.06.37a1.29 1.29 0 0 1 .78-.32c.64 0 .64.56.64.95h-.22c-.45 0-1.5 0-1.5 1a.88.88 0 0 0 .86.9.92.92 0 0 0 .87-.49v.44h.31v-2.13Zm3.47-1a.91.91 0 0 0-.77.5.68.68 0 0 0-.71-.5.8.8 0 0 0-.72.5v-.46h-.33v3.14h.35V68.1c0-.48.28-.89.68-.89s.47.25.47.66v2.15h.35v-2c0-.44.2-.82.64-.83s.5.51.5.72V70h.35v-2.13c0-.49-.17-1-.8-1Zm1.76 3.14h.35v-3.1h-.35v3.1Zm0-3.78h.42v-.55h-.43v.49Zm1.37 3.78h.35v-4.55h-.35v4.55Zm2.8-3.1-.69 2.58-.7-2.58h-.37l.91 3.18-.16.58c-.05.2-.15.36-.32.36a.54.54 0 0 1-.25-.06v.35a.59.59 0 0 0 .23 0c.5 0 .59-.35.71-.77l1-3.68Zm-34 .61h-1.61c0-.49.28-.88.8-.88a.77.77 0 0 1 .81.88Zm8.91-13.18a9.73 9.73 0 0 0-9.72 9.73 9.93 9.93 0 0 0 .14 1.65h-.14a2.09 2.09 0 0 0-2.26 2.19 2.22 2.22 0 0 0 2.45 2.21 4.13 4.13 0 0 0 1.54-.27v-1a2.68 2.68 0 0 1-1.28.33c-.71 0-1.16-.23-1.24-.81h2.85v-.27a2 2 0 0 0-1.92-2.34 9.8 9.8 0 0 1-.09-1.33 9 9 0 1 1 2.77 6.52 9.73 9.73 0 1 0 6.87-16.61Zm-.57 11a.9.9 0 1 0-.9-.9.9.9 0 0 0 .9.9Zm1.75.51v2.63a1.52 1.52 0 0 0 1.6 1.68 1.6 1.6 0 0 0 1.54-.87v.77h1.32v-4.21h-1.45v1.78c0 .9-.31 1.32-.91 1.32-.39 0-.67-.27-.67-1.06v-2Zm-3 5a1.62 1.62 0 0 1-.31 0v.92a3.49 3.49 0 0 0 .81.07c1.13 0 1.47-.7 1.47-1.75v-4.25h-1.46v4.21c0 .4 0 .82-.48.82Zm-5-5v4.21h1.45v-1.89c0-.9.31-1.31.91-1.31.39 0 .66.26.66 1.06v2h1.46v-2.55a1.52 1.52 0 0 0-1.61-1.68 1.58 1.58 0 0 0-1.53.87v-.78Zm-8.31.12c0-.5.63-.53 1-.53a3 3 0 0 1 1.25.26l.1-1.16a4.75 4.75 0 0 0-1.46-.21c-1.13 0-2.45.37-2.45 1.73 0 2.05 2.66 1.38 2.66 2.43 0 .46-.45.55-.93.55a3.31 3.31 0 0 1-1.55-.37l-.12 1.24a5.59 5.59 0 0 0 1.67.25c1.26 0 2.48-.4 2.48-1.86 0-2-2.66-1.42-2.66-2.33"/>
</svg>
