<svg version="1.1" id="Layer_1" xmlns="http://www.w3.org/2000/svg" x="0" y="0" viewBox="0 0 298.8 216" style="enable-background:new 0 0 298.8 216" xml:space="preserve">
	<style>
		.st2{fill:#1d1d1b}.st9{fill:#fdfdfd}
	</style>
	<path d="M140.6 11.9c19.5-9.2 38.4-7.9 56 4.3 16 11.1 23.8 27.1 23.1 46.7-.8 24.5-17.1 44.3-39.9 50.6-17.4 4.8-33.9 1.8-48.3-9.5-17.8-14-24-32.8-20.1-54.8 1.6-9.1 6.1-17.2 12.1-24.3 4.4-4 8.5-8.3 13.8-11.3 1.1-.6 2.4-.7 3.3-1.7z" style="fill:#dc4814"/>
	<path d="M46.5 186.4c5.4-12.5 10.8-24.7 16.9-36.5 1.8-3.5 3.8-6.9 5.5-10.4.8-1.7 2-2.1 3.7-2.2 6.6-.1 6.6-.1 7.3 6.4 1.7 15.2 2.8 30.4 3.6 45.6.3 6.3.7 12.6 1.2 18.8.1 1.5-.2 2.1-1.8 2.2-8.3.6-8.2.6-8.6-7.7-.7-14.6-1.6-29.2-2.4-43.9 0-.8-.1-1.6-.7-2.3-1.4.2-1.7 1.4-2.2 2.4-6.4 12.6-12.2 25.5-17.8 38.5-.9 2-1.9 3.1-4.1 2.8-1.1-.1-2.2-.1-3.2 0-1.5 0-2.4-.4-3.1-2-6-13.4-11.8-26.9-18.6-39.9-.3-.7-.4-1.8-1.3-1.7-1.2.1-1 1.3-1.1 2.1-1 11.1-1.6 22.2-2 33.3-.2 5.4-.5 10.8-.6 16.2 0 1.5-.5 2.2-2.1 2.1-2.1-.1-4.1 0-6.2 0-1.7 0-2.8-.9-2.4-2.6 1.6-7.1 1-14.3 1.6-21.4 1.2-15.6 2.1-31.2 3.9-46.7.2-1.8.9-2.3 2.6-2.3 7.2-.1 7.1-.1 10.5 6.2 7 13 13 26.4 18.9 39.9.7 1.2 1.2 2.3 2.5 3.1z" style="fill:#010101"/>
	<path class="st2" d="M230.4 210.3c-5.4 0-5.4 0-7.3-5.1-1.4-3.9-2.9-7.7-4.2-11.6-.5-1.5-1.3-2-2.8-2-9.4.1-18.7.1-28.1 0-2 0-3 .8-3.6 2.7-1.6 4.7-3.3 9.3-4.9 13.9-.5 1.6-1.3 2.1-3 2.1-8.7.3-8.8.3-5.8-7.9 6.2-16.8 12.5-33.5 19.6-50 1.9-4.5 4.1-8.8 6-13.3.6-1.4 1.4-1.8 2.9-1.9 7.6-.2 7.5-.2 10.9 6.9 9.7 20.8 17.3 42.3 25.4 63.7.6 1.6.3 2.4-1.6 2.3-1.1.1-2.3.2-3.5.2z"/>
	<path class="st2" d="M155.9 210.2c-.9 0-1.8-.1-2.7 0-2.1.3-3-.8-3.6-2.6-1.5-4.5-3.2-8.9-4.6-13.3-.6-2-1.7-2.8-3.8-2.8-9.2.1-18.3.1-27.5 0-1.9 0-2.8.7-3.4 2.5-1.5 4.7-3.3 9.3-4.9 13.9-.5 1.6-1.4 2.5-3.2 2.4-2.1-.1-4.1-.1-6.2 0-1.8 0-2.2-.6-1.5-2.3 4.2-11 8.1-22.2 12.4-33.2 4.5-11.6 9.4-23.1 14.6-34.5 1-2.2 2.2-3.1 4.6-3.1 6.6.1 6.7 0 9.4 6.1 6.5 14.7 12.7 29.6 18.1 44.7 2.3 6.5 4.7 12.9 7.2 19.3.9 2.3.6 3.1-1.9 2.9h-3z"/>
	<path class="st2" d="M283.8 207.7c-6.2 3.6-13 4.6-19.9 4.3-6.4-.3-12.9-1.5-18.8-4.4-1.6-.8-1.8-1.5-1.4-2.9 0-.1.1-.2.1-.3 1.9-6.2 1.9-6.3 8-4 6.3 2.4 12.8 2.8 19.5 1.9 6-.8 9.4-3.8 10.3-8.9.9-4.6-1.9-9.8-6.8-12.3-4.6-2.4-9.5-4.2-14.4-6-3.9-1.4-7.5-3.4-10.6-6.3-7.5-7-7.1-24 4.4-29.9 1.7-.9 3.6-1.4 5.4-2.2 6.8-1.8 13.6-1.5 20.5-.1 2.8.6 5.7 1.4 7.9 2.8 2.9 2 .5 5-1 6.9-.8 1.3-1.1 2.1-2.8 1.3-6.4-2.8-13.1-4.3-20.1-2.5-4.5 1.1-8 3.5-8.6 8.5-.6 5.2 2.4 8.2 6.4 10.7 4.7 2.9 10.1 4.3 15.1 6.6 5.4 2.5 10.5 5.4 13.3 11 2.2 4.4 2.3 9.1 1.7 13.8-.7 5.5-3.7 9.3-8.2 12z"/>
	<path d="M140.6 11.9c-.4 1.4-1.9 1.3-2.8 1.9-4.2 2.6-8.1 5.5-11.5 9.1-.8.8-1.4 2-2.8 2 4.7-5.6 10-10.6 17.1-13z" style="fill:#e79775"/>
	<path d="M283.8 207.7c4.1-3 7-6.9 8.3-11.8 0 5-3.9 10.7-8.3 11.8z" style="fill:#a4a4a2"/>
	<path d="M164.7 87.4h-23.1c-3.8 0-5.4-1.2-5.6-3.8-.2-2.4.8-3.8 3.1-4.2 1.5-.3 3.1-.4 4.7-.4h41.1c1.9 0 3.7.1 5.6.4 1.8.2 3.2 1.1 3.4 3.1.2 2.1-.5 3.6-2.6 4.4-1.3.5-2.7.5-4.1.5h-22.5z" style="fill:#fefcfb"/>
	<path d="M165.2 49.3c7.9 0 15.8-.1 23.6 0 3.6 0 5 1.3 5.2 4 .1 1.8-.6 3-2.3 3.6-1.6.5-3.3.7-4.9.7h-43.4c-1.6 0-3.1-.3-4.7-.6-1.7-.4-2.6-1.5-2.6-3.4s.7-3.3 2.6-3.8c1.5-.4 3.1-.5 4.7-.5 7.2-.1 14.5 0 21.8 0z" style="fill:#fdfcfb"/>
	<path d="M164.5 72.5h-22.2c-1.3 0-2.6-.1-3.8-.5-1.6-.5-2.6-1.7-2.6-3.5 0-1.9.8-3.2 2.7-3.8 1.6-.4 3.2-.7 4.9-.7H186c1.5 0 2.9.3 4.4.4 2.4.3 3.3 1.7 3.3 4 0 2.5-1.5 3.5-3.7 3.7-7.2.7-14.4.2-21.5.3-1.3.1-2.6.1-4 .1z" style="fill:#fefcfa"/>
	<path d="M165.4 42.6h-21.8c-1.5 0-2.9-.1-4.4-.4-1.9-.3-2.9-1.4-3.1-3.4-.2-2 .6-3.2 2.4-3.9.7-.3 1.5-.6 2.3-.6 16.1 0 32.3-.1 48.4 0 3.6 0 5.3 2 4.8 4.8-.5 2.4-2.1 3.2-4.3 3.2h-24.2c-.1.2-.1.2-.1.3z" style="fill:#fefcfc"/>
	<path class="st9" d="M201.9 183.1h-10.3c-2.1 0-3.2-.4-2.3-2.9 3.5-9.4 6.9-18.8 11.1-27.9.3-.7.6-1.6 1.5-1.6s.9.9 1.2 1.5c4.2 9.5 7.7 19.3 11.5 28.9.8 1.9-.5 1.9-1.8 1.9-3.6.1-7.2.1-10.9.1z"/>
	<path class="st9" d="M124.1 156.8c.7-1.4 1.3-2.8 2.1-4.2.4-.7.3-1.9 1.5-1.8.8.1 1.1 1 1.4 1.7 1.6 3.7 3.3 7.3 4.7 11.1 2.2 5.6 4.1 11.2 6.3 16.8.9 2.2.3 2.8-1.9 2.8-7.2-.1-14.4-.2-21.5-.1-2.2 0-2.3-.7-1.6-2.4 2.3-5.9 4.4-11.9 6.7-17.9.8-2 1.3-4.1 2.3-6z"/>
</svg>
