<svg xmlns="http://www.w3.org/2000/svg" viewBox="-1.05 37.7 171.86 87.61">
	<path d="M2.556 102.078h5.737v2.7h.113a6.827 6.827 0 0 1 .787-1.125 11.954 11.954 0 0 1 1.237-1.013 3.81 3.81 0 0 1 1.687-.674 5.586 5.586 0 0 1 2.025-.225 7.385 7.385 0 0 1 3.6.787 5.614 5.614 0 0 1 2.362 2.7 7.27 7.27 0 0 1 2.474-2.7 7.385 7.385 0 0 1 3.6-.787 7.014 7.014 0 0 1 3.262.675 5.561 5.561 0 0 1 2.137 1.8 7.235 7.235 0 0 1 1.125 2.699 15.27 15.27 0 0 1 .337 3.262v11.473h-6.074v-11.36a5.229 5.229 0 0 0-.562-2.363 2.15 2.15 0 0 0-2.025-1.012 4.663 4.663 0 0 0-1.8.337 4.404 4.404 0 0 0-1.124.9 6.88 6.88 0 0 0-.563 1.35 8.682 8.682 0 0 0-.225 1.687v10.349h-6.074v-11.586a5.7 5.7 0 0 0-.225-1.462 2.571 2.571 0 0 0-.787-1.125 2.199 2.199 0 0 0-1.575-.45 3.447 3.447 0 0 0-1.912.45 2.71 2.71 0 0 0-1.125 1.125 3.661 3.661 0 0 0-.45 1.574 9.676 9.676 0 0 0-.112 1.8v9.674H2.33v-19.46zm47.13 17.097a7.242 7.242 0 0 1-2.699 2.25 9.166 9.166 0 0 1-3.487.675 9.588 9.588 0 0 1-2.587-.337 8.431 8.431 0 0 1-2.25-1.125 6.518 6.518 0 0 1-1.574-1.912 6.249 6.249 0 0 1-.563-2.588 5.48 5.48 0 0 1 .675-2.812 5.599 5.599 0 0 1 1.687-1.912 7.29 7.29 0 0 1 2.475-1.237c.9-.225 1.8-.45 2.812-.675a25.593 25.593 0 0 1 2.925-.225h2.7a3.11 3.11 0 0 0-1.126-2.587 3.927 3.927 0 0 0-2.7-.9 5.344 5.344 0 0 0-2.699.675 7.88 7.88 0 0 0-2.137 1.687l-3.262-3.262a12.663 12.663 0 0 1 3.937-2.362 12.834 12.834 0 0 1 4.612-.787 11.98 11.98 0 0 1 4.386.674 6.904 6.904 0 0 1 2.7 1.913 9.041 9.041 0 0 1 1.462 3.15 23.747 23.747 0 0 1 .45 4.274v9.898h-5.511v-2.475zm-1.462-6.186a9.713 9.713 0 0 0-1.687.112 5.254 5.254 0 0 0-1.912.338 5.152 5.152 0 0 0-1.575.787 1.888 1.888 0 0 0-.675 1.575 1.795 1.795 0 0 0 .9 1.575 3.792 3.792 0 0 0 1.912.562 8.683 8.683 0 0 0 1.688-.225 3.486 3.486 0 0 0 1.462-.675 3.19 3.19 0 0 0 1.012-1.125 3.593 3.593 0 0 0 .338-1.574v-1.35zm23.96-4.612a2.75 2.75 0 0 0-1.238-1.012 4.619 4.619 0 0 0-5.287.9 5.854 5.854 0 0 0 0 7.199 4.585 4.585 0 0 0 3.6 1.35 2.71 2.71 0 0 0 1.687-.45 11.954 11.954 0 0 0 1.237-1.013l3.937 4.162a6.679 6.679 0 0 1-3.262 2.025 14.042 14.042 0 0 1-3.6.562 13.597 13.597 0 0 1-4.274-.675 9.711 9.711 0 0 1-5.849-5.287 10.168 10.168 0 0 1-.787-4.161 9.819 9.819 0 0 1 .787-4.162 9.711 9.711 0 0 1 5.85-5.287 13.098 13.098 0 0 1 4.274-.675 14.042 14.042 0 0 1 3.6.563 6.679 6.679 0 0 1 3.261 2.024zm6.973-17.097h6.074v18.56l6.637-7.65h7.424l-7.762 8.774 7.987 10.686H91.98l-6.636-9.898h-.113v9.898h-6.074z"/>
	<path d="M118.301 118.163a9.792 9.792 0 0 1-3.6 2.812 11.003 11.003 0 0 1-4.611 1.013 13.597 13.597 0 0 1-4.274-.675 9.711 9.711 0 0 1-5.85-5.287 10.168 10.168 0 0 1-.787-4.162 9.819 9.819 0 0 1 .787-4.162 9.711 9.711 0 0 1 5.85-5.286 13.098 13.098 0 0 1 4.274-.675 10.509 10.509 0 0 1 3.824.675 7.61 7.61 0 0 1 2.925 2.024 10.17 10.17 0 0 1 1.8 3.262 12.423 12.423 0 0 1 .674 4.162v1.912h-14.06a4.7 4.7 0 0 0 1.575 2.7 4.405 4.405 0 0 0 2.924 1.012 4.278 4.278 0 0 0 2.475-.675 8.457 8.457 0 0 0 1.8-1.687zm-5.062-8.549a3.563 3.563 0 0 0-1.012-2.587 3.725 3.725 0 0 0-2.7-1.125 4.663 4.663 0 0 0-1.8.338 5.318 5.318 0 0 0-1.349.787 2.571 2.571 0 0 0-.787 1.125 2.995 2.995 0 0 0-.338 1.35h7.986zm9.674-7.536h6.074v3.15h.112a6.876 6.876 0 0 1 2.25-2.7 6.267 6.267 0 0 1 3.375-.9h1.012c.337 0 .675.113 1.012.113v5.511c-.45-.112-.9-.225-1.237-.337a5.476 5.476 0 0 0-1.35-.113 6.146 6.146 0 0 0-2.7.45 3.74 3.74 0 0 0-1.574 1.35 5.376 5.376 0 0 0-.675 2.025 19.936 19.936 0 0 0-.113 2.7v8.098h-6.074v-19.347zm33.97 16.085a9.792 9.792 0 0 1-3.6 2.812 11.003 11.003 0 0 1-4.612 1.013 13.597 13.597 0 0 1-4.274-.675 9.712 9.712 0 0 1-5.849-5.287 10.168 10.168 0 0 1-.787-4.162 9.819 9.819 0 0 1 .787-4.162 9.712 9.712 0 0 1 5.85-5.286 13.098 13.098 0 0 1 4.273-.675 10.508 10.508 0 0 1 3.825.675 7.61 7.61 0 0 1 2.924 2.024 10.17 10.17 0 0 1 1.8 3.262 12.422 12.422 0 0 1 .675 4.162v1.912h-13.948a4.7 4.7 0 0 0 1.575 2.7 4.405 4.405 0 0 0 2.924 1.012 4.278 4.278 0 0 0 2.475-.675 8.458 8.458 0 0 0 1.8-1.687zm-5.062-8.549a3.563 3.563 0 0 0-1.012-2.587 3.725 3.725 0 0 0-2.7-1.125 4.663 4.663 0 0 0-1.8.338 5.319 5.319 0 0 0-1.35.787 2.571 2.571 0 0 0-.787 1.125 2.995 2.995 0 0 0-.337 1.35h7.986zm9.673-18.334h6.075v30.37h-6.075zM95.467 61.922a5.358 5.358 0 0 0-3.262 1.012L79.832 50.561a6.922 6.922 0 0 0 1.012-3.262 6.187 6.187 0 0 0-12.373 0 5.358 5.358 0 0 0 1.013 3.262L57.11 62.934a6.922 6.922 0 0 0-3.262-1.012 6.15 6.15 0 0 0-3.262.9L38.213 50.449a6.452 6.452 0 0 0 .9-3.262A6.169 6.169 0 0 0 32.927 41a6.241 6.241 0 0 0-6.187 6.187 6.15 6.15 0 0 0 .9 3.262L15.267 62.822a6.452 6.452 0 0 0-3.262-.9 6.187 6.187 0 0 0 0 12.373 6.241 6.241 0 0 0 6.187-6.187 6.15 6.15 0 0 0-.9-3.262l12.373-12.373a6.452 6.452 0 0 0 3.262.9 6.15 6.15 0 0 0 3.262-.9l12.373 12.373a6.452 6.452 0 0 0-.9 3.262 6.187 6.187 0 1 0 12.373 0 5.358 5.358 0 0 0-1.012-3.262l12.373-12.373a6.922 6.922 0 0 0 3.262 1.013 5.358 5.358 0 0 0 3.262-1.013l12.373 12.373a6.922 6.922 0 0 0-1.012 3.262 6.187 6.187 0 0 0 12.373 0 6.241 6.241 0 0 0-6.187-6.186z"/>
</svg>
