<svg xmlns="http://www.w3.org/2000/svg" height="343.147" width="351.4" xml:space="preserve">
	<path style="fill:#4ca6e1;fill-opacity:1;fill-rule:nonzero;stroke:none" d="M125.203 78.79c0 8.25-3.015 12.71-8.578 12.71-14.137 0-23.504-26.371-23.504-39.238 0-9.371 3.336-14.133 9.215-14.133 12.863 0 22.867 27.793 22.867 40.66zm12.235-27.321c-1.27-4.13-1.75-6.988-1.75-9.059 0-2.7 1.269-4.129 3.652-4.129 3.496 0 6.992 5.399 10.644 16.051l7.621-2.383c-6.191-19.39-14.769-26.539-24.457-26.539-7.464 0-13.027 4.77-13.027 13.988 0 1.114 0 1.903.16 3.493l-1.109.468c-6.035-11.91-15.094-17.949-24.149-17.949-13.66 0-21.125 11.281-21.125 25.27 0 16.199 6.512 30.652 15.09 39.07 7.469 7.629 15.883 12.07 24.782 12.07 8.894 0 13.972-6.191 15.406-13.34l3.179 12.231h18.106l-13.023-49.242" transform="matrix(.13333 0 0 -.13333 0 343.147)"/>
	<path style="fill:#4ca6e1;fill-opacity:1;fill-rule:nonzero;stroke:none" d="M237.188 38.281c3.335 0 6.675 5.078 10.96 16.051l7.465-2.383c-6.351-19.218-15.246-26.539-24.3-26.539-8.579 0-14.141 5.57-14.141 14.781 0 15.891 10.484 31.61 10.484 42.41 0 3.649-1.586 5.239-4.289 5.239-7.304 0-20.965-12.07-33.676-60.84h-19.054l13.656 51.469c2.383 9.05 1.906 11.59-.953 11.59-3.652 0-7.781-6.828-12.387-16.668l-7.469 3.168c6.832 15.882 14.774 25.101 25.418 25.101 6.828 0 11.594-4.922 11.594-14.77 0-4.609-.957-10.331-3.34-17.628l1.114-.48c10.484 22.39 22.238 33.038 33.515 33.038 8.899 0 14.461-6.988 14.461-16.52 0-13.5-11.758-33.831-11.758-43.519 0-2.383.95-3.5 2.7-3.5" transform="matrix(.13333 0 0 -.13333 0 343.147)"/>
	<path style="fill:#4ca6e1;fill-opacity:1;fill-rule:nonzero;stroke:none" d="M316.445 63.379c0-18.43 9.051-27.32 23.985-27.32 25.894 0 36.379 38.601 36.379 59.09 0 18.433-9.215 27.32-23.989 27.32-26.047 0-36.375-38.598-36.375-59.09zm37.168 70.68c26.055 0 44.321-18.579 44.321-45.899 0-30.66-23.032-63.691-58.293-63.691-26.051 0-44.481 18.582-44.481 45.902 0 30.66 23.031 63.688 58.453 63.688" transform="matrix(.13333 0 0 -.13333 0 343.147)"/>
	<path style="fill:#4ca6e1;fill-opacity:1;fill-rule:nonzero;stroke:none" d="M435.414 49.879c0-7.79 3.336-13.188 10.324-13.188 14.133 0 22.078 26.688 22.078 39.239 0 8.902-2.859 13.5-8.734 13.5-12.711 0-23.668-25.57-23.668-39.551zM422.551 88.64c-3.66 0-6.516-4.61-11.598-15.25l-7.469 3.168c7.625 17.48 15.09 25.101 25.102 25.101 7.144 0 11.91-5.238 11.91-14.289 0-1.121-.16-2.539-.32-3.98l1.273-.47c6.035 12.54 15.723 18.899 24.465 18.899 13.34 0 20.965-10.96 20.965-25.73 0-25.578-17.633-49.238-37.172-49.238-8.418 0-15.09 4.289-18.105 10.636L425.25 13.82h14.926l-3.172-11.76h-44l3.172 11.761h10.801l16.839 62.899c2.383 8.902 1.59 11.922-1.265 11.922" transform="matrix(.13333 0 0 -.13333 0 343.147)"/>
	<path style="fill:#4ca6e1;fill-opacity:1;fill-rule:nonzero;stroke:none" d="M516.418 64.332c22.078 2.379 30.18 10.969 30.18 20.809 0 4.449-2.539 7.941-7.305 7.941-11.117 0-19.535-15.094-22.875-28.75zm-1.43-7.46c-.16-1.27-.16-2.54-.16-3.653 0-13.188 6.832-17.32 14.774-17.32 7.785 0 15.57 5.25 22.238 14.613l6.672-4.77c-8.102-11.594-17.949-20.332-34.785-20.332-16.364 0-27.797 11.442-27.797 28.922 0 24.457 21.125 47.488 46.062 47.488 13.66 0 21.285-6.832 21.285-16.52 0-14.288-14.933-26.53-48.289-28.429" transform="matrix(.13333 0 0 -.13333 0 343.147)"/>
	<path style="fill:#4ca6e1;fill-opacity:1;fill-rule:nonzero;stroke:none" d="M645.078 38.281c3.336 0 6.676 5.078 10.961 16.051l7.469-2.383c-6.356-19.218-15.25-26.539-24.305-26.539-8.578 0-14.14 5.57-14.14 14.781 0 15.891 10.484 31.61 10.484 42.41 0 3.649-1.586 5.239-4.285 5.239-7.309 0-20.969-12.07-33.68-60.84h-19.059l13.661 51.469c2.382 9.05 1.91 11.59-.954 11.59-3.652 0-7.785-6.828-12.386-16.668l-7.465 3.168c6.828 15.882 14.769 25.101 25.414 25.101 6.828 0 11.598-4.922 11.598-14.77 0-4.609-.957-10.331-3.34-17.628l1.109-.48c10.485 22.39 22.238 33.038 33.52 33.038 8.894 0 14.457-6.988 14.457-16.52 0-13.5-11.758-33.831-11.758-43.519 0-2.383.949-3.5 2.699-3.5" transform="matrix(.13333 0 0 -.13333 0 343.147)"/>
	<path style="fill:#4ca6e1;fill-opacity:1;fill-rule:nonzero;stroke:none" d="M680.02 64.172h11.281c3.015-19.063 14.133-28.43 28.113-28.43 12.551 0 19.856 7.938 19.856 16.207 0 9.2-10.485 13.492-21.766 18.742-13.184 5.868-27.637 12.868-27.637 29.7 0 17.789 16.047 33.668 37.168 33.668 11.281 0 21.766-4.598 27.008-12.067l6.508 11.598h11.914l-9.367-37.649h-11.121c-3.332 19.7-11.278 27-24.942 27-10.32 0-17.633-7.461-17.633-15.722 0-10.008 10.801-14.297 22.243-19.38 13.023-5.558 27.003-12.23 27.003-28.91 0-19.53-17.316-34.46-39.078-34.46-13.816 0-24.14 5.07-30.179 12.703l-6.989-12.23h-11.914l9.532 39.23" transform="matrix(.13333 0 0 -.13333 0 343.147)"/>
	<path style="fill:#4ca6e1;fill-opacity:1;fill-rule:nonzero;stroke:none" d="m810.742 88.79-9.531-34.778c-1.109-3.973-1.902-7.633-1.902-9.531 0-4.29 2.218-5.72 5.558-5.72 5.719 0 10.485 6.981 14.93 17.15l7.625-2.54c-7.781-22.562-20.016-27.96-28.594-27.96-10.484 0-17.949 5.25-17.949 16.05 0 4.61 1.75 11.281 2.859 15.719l8.582 31.61h-13.98l2.539 9.702h13.98l5.243 19.047 18.902 2.07-5.719-21.117h22.555l-2.539-9.703h-22.559" transform="matrix(.13333 0 0 -.13333 0 343.147)"/>
	<path style="fill:#4ca6e1;fill-opacity:1;fill-rule:nonzero;stroke:none" d="M891.113 78.79c0 8.25-3.015 12.71-8.578 12.71-14.137 0-23.508-26.371-23.508-39.238 0-9.371 3.336-14.133 9.215-14.133 12.867 0 22.871 27.793 22.871 40.66zm12.231-27.321c-1.27-4.13-1.746-6.988-1.746-9.059 0-2.7 1.269-4.129 3.652-4.129 3.496 0 6.992 5.399 10.645 16.051l7.621-2.383c-6.192-19.39-14.77-26.539-24.457-26.539-7.465 0-13.028 4.77-13.028 13.988 0 1.114 0 1.903.16 3.493l-1.113.468c-6.035-11.91-15.094-17.949-24.144-17.949-13.664 0-21.129 11.281-21.129 25.27 0 16.199 6.511 30.652 15.093 39.07 7.465 7.629 15.883 12.07 24.782 12.07 8.894 0 13.972-6.191 15.402-13.34l3.18 12.231h18.105l-13.023-49.242" transform="matrix(.13333 0 0 -.13333 0 343.147)"/>
	<path style="fill:#4ca6e1;fill-opacity:1;fill-rule:nonzero;stroke:none" d="M996.266 83.082c0-6.844-4.289-13.66-11.121-13.66-5.715 0-9.368 3.808-9.368 8.566 0 4.453 2.7 8.114 6.508 10.801-1.269 2.23-3.969 3.98-8.734 3.98-15.883 0-25.254-24.308-25.254-38.128 0-13.66 7.305-17.95 14.453-17.95 7.305 0 14.297 5.25 20.648 15.09l6.832-4.601c-6.832-11.91-16.203-21.77-31.769-21.77-17.477 0-29.227 11.922-29.227 29.23 0 24.79 21.286 47.18 43.996 47.18 13.348 0 23.036-7.46 23.036-18.738" transform="matrix(.13333 0 0 -.13333 0 343.147)"/>
	<path style="fill:#4ca6e1;fill-opacity:1;fill-rule:nonzero;stroke:none" d="M1063.61 38.281c3.5 0 6.52 5.078 10.65 16.051l7.46-2.383c-6.03-19.218-14.29-26.539-23.51-26.539-8.89 0-14.77 5.88-14.77 16.2 0 4.46 1.75 10.8 1.75 14.3 0 5.88-2.54 7.32-14.14 7.32h-.32L1021.04 27h-17.94l25.73 97.059h-13.19l3.18 12.39h31.61l-17.79-66.078h.79c8.42 0 11.92 4.758 18.91 16.36 5.24 8.578 10.48 15.089 19.85 15.089 7.62 0 11.76-4.77 11.76-11.59 0-6.671-4.29-13.351-10.81-13.351-6.35 0-9.68 5.562-7.46 12.082-2.22-.48-4.61-3.191-8.26-9.219-3.18-5.883-5.72-9.21-10.49-11.754 11.28-.957 14.94-5.879 14.94-13.347 0-4.602-1.27-9.211-1.27-12.07 0-3.173 1.27-4.29 3.01-4.29" transform="matrix(.13333 0 0 -.13333 0 343.147)"/>
	<path style="fill:#4ca6e1;fill-opacity:1;fill-rule:nonzero;stroke:none" d="M1150.49 68.781c0 31.93 23.51 65.278 58.46 65.278 13.18 0 23.03-4.758 28.43-12.86l6.51 12.391h12.23l-10.16-41.3h-11.92c-1.58 22.87-11.59 30.179-24.46 30.179-28.11 0-37.8-37.809-37.8-55.278 0-21.12 10.8-30.02 24.62-30.02 16.84 0 26.69 12.708 34.63 31.458l11.27-3.98c-7.94-22.239-22.71-40.18-48.13-40.18-29.22 0-43.68 18.582-43.68 44.312" transform="matrix(.13333 0 0 -.13333 0 343.147)"/>
	<path style="fill:#4ca6e1;fill-opacity:1;fill-rule:nonzero;stroke:none" d="M1294.72 93.082c-14.77 0-23.19-28.91-23.19-44.32 0-10.16 4.29-14.453 11.12-14.453 14.77 0 23.19 28.921 23.19 44.32 0 10.16-4.29 14.453-11.12 14.453zm30.02-21.922c0-24.781-19.85-45.75-41.93-45.75-18.27 0-30.18 12.871-30.18 30.82 0 24.782 19.85 45.59 41.93 45.59 18.27 0 30.18-12.71 30.18-30.66" transform="matrix(.13333 0 0 -.13333 0 343.147)"/>
	<path style="fill:#4ca6e1;fill-opacity:1;fill-rule:nonzero;stroke:none" d="M1427.98 40.191c0 15.891 10.49 31.61 10.49 42.41 0 3.649-1.59 5.239-4.29 5.239-6.99 0-20.81-12.07-33.52-60.84h-18.74l11.12 41.941c1.43 5.239 2.22 9.047 2.22 12.07 0 3.821-1.27 6.829-4.76 6.829-7.31 0-20.97-12.07-33.68-60.84h-19.06l13.66 51.469c2.38 9.05 1.91 11.59-.95 11.59-3.65 0-7.78-6.828-12.39-16.668l-7.46 3.168c6.83 15.882 14.77 25.101 25.41 25.101 6.83 0 11.6-4.922 11.6-14.77 0-4.609-.96-10.331-3.34-17.628l1.11-.48c10.48 22.39 22.24 33.038 33.04 33.038 8.74 0 13.34-5.879 13.34-15.41 0-4.441-1.27-9.851-3.65-17.148l1.11-.48c10.49 22.39 22.24 33.038 33.52 33.038 8.73 0 14.3-6.988 14.3-16.52 0-13.5-11.76-33.831-11.76-43.519 0-2.383.95-3.5 2.7-3.5 3.34 0 6.67 5.078 10.96 16.051l7.47-2.383c-6.36-19.218-15.25-26.539-24.31-26.539-8.58 0-14.14 5.57-14.14 14.781" transform="matrix(.13333 0 0 -.13333 0 343.147)"/>
	<path style="fill:#4ca6e1;fill-opacity:1;fill-rule:nonzero;stroke:none" d="M1567.29 40.191c0 15.891 10.48 31.61 10.48 42.41 0 3.649-1.59 5.239-4.28 5.239-7 0-20.81-12.07-33.52-60.84h-18.75l11.12 41.941c1.43 5.239 2.22 9.047 2.22 12.07 0 3.821-1.27 6.829-4.76 6.829-7.31 0-20.97-12.07-33.68-60.84h-19.06l13.66 51.469c2.39 9.05 1.91 11.59-.94 11.59-3.67 0-7.79-6.828-12.4-16.668l-7.46 3.168c6.83 15.882 14.77 25.101 25.41 25.101 6.83 0 11.59-4.922 11.59-14.77 0-4.609-.94-10.331-3.33-17.628l1.12-.48c10.48 22.39 22.23 33.038 33.03 33.038 8.73 0 13.34-5.879 13.34-15.41 0-4.441-1.27-9.851-3.65-17.148l1.11-.48c10.48 22.39 22.24 33.038 33.52 33.038 8.74 0 14.3-6.988 14.3-16.52 0-13.5-11.76-33.831-11.76-43.519 0-2.383.96-3.5 2.7-3.5 3.33 0 6.67 5.078 10.96 16.051l7.47-2.383c-6.35-19.218-15.25-26.539-24.3-26.539-8.58 0-14.14 5.57-14.14 14.781" transform="matrix(.13333 0 0 -.13333 0 343.147)"/>
	<path style="fill:#4ca6e1;fill-opacity:1;fill-rule:nonzero;stroke:none" d="M1664.98 40.34c0 3.98.95 10.012 3.49 18.12l-1.11.47c-10.48-23.032-21.61-33.52-33.04-33.52-8.73 0-14.46 6.84-14.46 16.68 0 13.351 11.28 34.469 11.28 43.531 0 2.219-.95 3.34-2.38 3.34-3.34 0-6.04-3.5-11.76-15.41l-7.46 3.168c6.51 15.722 14.93 25.101 25.89 25.101 8.42 0 13.35-5.25 13.35-14.449 0-14.781-10.49-31.621-10.49-41.781 0-4.442 1.75-6.192 4.44-6.192 7.15 0 20.34 11.75 33.36 61.313h19.07l-13.03-49.242c-1.27-4.29-1.75-6.988-1.75-9.059 0-2.7 1.44-4.129 3.65-4.129 3.67 0 7 5.399 10.65 16.051l7.62-2.383c-6.19-19.39-14.77-26.539-23.82-26.539-8.27 0-13.5 4.61-13.5 14.93" transform="matrix(.13333 0 0 -.13333 0 343.147)"/>
	<path style="fill:#4ca6e1;fill-opacity:1;fill-rule:nonzero;stroke:none" d="M1778.23 38.281c3.33 0 6.67 5.078 10.96 16.051l7.46-2.383c-6.35-19.218-15.24-26.539-24.3-26.539-8.58 0-14.14 5.57-14.14 14.781 0 15.891 10.49 31.61 10.49 42.41 0 3.649-1.59 5.239-4.29 5.239-7.31 0-20.97-12.07-33.68-60.84h-19.06l13.66 51.469c2.38 9.05 1.91 11.59-.95 11.59-3.66 0-7.78-6.828-12.39-16.668l-7.47 3.168c6.84 15.882 14.78 25.101 25.42 25.101 6.83 0 11.59-4.922 11.59-14.77 0-4.609-.94-10.331-3.33-17.628l1.12-.48c10.47 22.39 22.23 33.038 33.51 33.038 8.89 0 14.46-6.988 14.46-16.52 0-13.5-11.76-33.831-11.76-43.519 0-2.383.95-3.5 2.7-3.5" transform="matrix(.13333 0 0 -.13333 0 343.147)"/>
	<path style="fill:#4ca6e1;fill-opacity:1;fill-rule:nonzero;stroke:none" d="M1836.67 112.941c-5.56 0-9.84 3.809-9.84 10.168 0 6.512 4.92 13.973 13.34 13.973 6.03 0 10.16-3.812 10.16-10.16 0-6.363-5.23-13.981-13.66-13.981zm-7.62-70.851c0-2.692 1.12-3.809 3.18-3.809 3.01 0 6.51 4.29 11.28 16.051l7.46-2.383c-6.19-18.75-15.09-26.539-25.26-26.539-8.26 0-14.29 5.399-14.29 14.93 0 15.101 13.18 36.379 13.18 46.23 0 2.54-.95 3.489-2.38 3.489-4.45 0-8.42-6.829-12.86-16.668l-7.63 3.168c6.82 15.882 15.25 25.261 26.05 25.261 8.26 0 14.13-5.879 14.13-16.05 0-12.38-12.86-34.461-12.86-43.68" transform="matrix(.13333 0 0 -.13333 0 343.147)"/>
	<path style="fill:#4ca6e1;fill-opacity:1;fill-rule:nonzero;stroke:none" d="m1892.74 88.79-9.53-34.778c-1.11-3.973-1.91-7.633-1.91-9.531 0-4.29 2.23-5.72 5.57-5.72 5.71 0 10.47 6.981 14.93 17.15l7.62-2.54c-7.79-22.562-20.02-27.96-28.59-27.96-10.49 0-17.95 5.25-17.95 16.05 0 4.61 1.75 11.281 2.85 15.719l8.59 31.61h-13.99l2.55 9.702h13.98l5.24 19.047 18.9 2.07-5.72-21.117h22.56l-2.55-9.703h-22.55" transform="matrix(.13333 0 0 -.13333 0 343.147)"/>
	<path style="fill:#4ca6e1;fill-opacity:1;fill-rule:nonzero;stroke:none" d="M1955.33 88c0-14.61-9.22-28.91-9.22-38.121 0-3.969 1.75-5.559 5.25-5.559 8.42 0 19.69 9.532 31.77 56.391h17.79l-14.62-61.313C1979.47 10.172 1963.43 0 1943.57 0c-11.12 0-24.46 3.02-24.46 14.781 0 5.078 3.81 11.43 10.96 11.43 6.36 0 9.53-4.45 9.22-9.691-.17-2.54-1.59-5.399-3.19-6.829 1.92-.632 4.3-1.109 7.32-1.109 12.38 0 20.8 10.008 26.2 32.09l3.18 12.547-.95.472c-9.21-16.84-19.07-23.03-28.28-23.03-10.48 0-15.72 7.3-15.72 16.519 0 12.23 10.17 29.379 10.17 38.441 0 2.059-.96 3.34-2.39 3.34-3.97 0-7.78-6.52-12.08-15.57l-7.46 3.168c7 15.882 15.73 25.261 26.21 25.261 8.1 0 13.03-5.398 13.03-13.82" transform="matrix(.13333 0 0 -.13333 0 343.147)"/>
	<path style="fill:#4ca6e1;fill-opacity:1;fill-rule:nonzero;stroke:none" d="M2085.25 80.059c20.34 0 27.48 12.71 27.48 24.929 0 9.223-5.56 14.782-21.28 14.782h-6.83l-9.85-39.711zm-20.81-41.137h17.32L2079.05 27h-53.37l2.71 11.922h16.03l20.02 80.687h-16.2l3.02 11.922h43.99c28.76 0 39.72-11.761 39.72-26.691 0-15.88-10.96-36.059-50.35-36.059h-12.72l-7.46-29.86" transform="matrix(.13333 0 0 -.13333 0 343.147)"/>
	<path style="fill:#4ca6e1;fill-opacity:1;fill-rule:nonzero;stroke:none" d="M2159.75 78.469c2.38 9.05 1.9 11.59-.95 11.59-3.66 0-7.78-6.828-12.39-16.668l-7.47 3.168c6.83 15.882 14.77 25.101 25.42 25.101 6.82 0 11.59-4.922 11.59-14.77 0-4.609-.95-10.171-3.18-17.16l1.27-.468c9.21 20.969 16.84 32.558 27.96 32.558 6.67 0 11.59-4.61 11.59-12.07 0-7.941-5.07-14.3-11.43-14.3-5.56 0-9.85 3.652-9.53 10.32-4.61-1.899-16.05-15.399-27.48-58.77h-19.07l13.67 51.469" transform="matrix(.13333 0 0 -.13333 0 343.147)"/>
	<path style="fill:#4ca6e1;fill-opacity:1;fill-rule:nonzero;stroke:none" d="M2259.02 93.082c-14.77 0-23.19-28.91-23.19-44.32 0-10.16 4.29-14.453 11.12-14.453 14.77 0 23.19 28.921 23.19 44.32 0 10.16-4.29 14.453-11.12 14.453zm30.02-21.922c0-24.781-19.85-45.75-41.93-45.75-18.27 0-30.19 12.871-30.19 30.82 0 24.782 19.87 45.59 41.95 45.59 18.26 0 30.17-12.71 30.17-30.66" transform="matrix(.13333 0 0 -.13333 0 343.147)"/>
	<path style="fill:#4ca6e1;fill-opacity:1;fill-rule:nonzero;stroke:none" d="M2337.8 112.941c-5.55 0-9.84 3.809-9.84 10.168 0 6.512 5.09 13.973 13.34 13.973 6.03 0 10.16-3.812 10.16-10.16 0-6.363-5.23-13.981-13.66-13.981zm3.03-39.71-10.01-37.961C2324.15 10.012 2311.76 0 2297.14 0c-11.11 0-15.88 5.25-15.88 11.281 0 5.88 4.29 11.278 10.48 11.278 5.4 0 8.26-3.97 8.26-8.098 0-3.34-1.27-6.04-2.54-7.629 6.83-.16 9.53 3.969 15.41 26.688l10.48 40.18c.96 3.812 2.38 9.382 2.38 12.71 0 2.86-1.27 3.649-2.69 3.649-3.82 0-7.95-6.829-12.55-16.668l-7.47 3.168c6.83 15.882 15.1 25.261 26.21 25.261 8.1 0 13.82-6.191 13.82-15.09 0-3.648-.79-8.101-2.22-13.5" transform="matrix(.13333 0 0 -.13333 0 343.147)"/>
	<path style="fill:#4ca6e1;fill-opacity:1;fill-rule:nonzero;stroke:none" d="M2376.56 64.332c22.08 2.379 30.18 10.969 30.18 20.809 0 4.449-2.54 7.941-7.31 7.941-11.12 0-19.54-15.094-22.87-28.75zm-1.43-7.46c-.16-1.27-.16-2.54-.16-3.653 0-13.188 6.83-17.32 14.78-17.32 7.78 0 15.56 5.25 22.23 14.613l6.67-4.77c-8.09-11.594-17.95-20.332-34.78-20.332-16.36 0-27.81 11.442-27.81 28.922 0 24.457 21.14 47.488 46.07 47.488 13.66 0 21.29-6.832 21.29-16.52 0-14.288-14.93-26.53-48.29-28.429" transform="matrix(.13333 0 0 -.13333 0 343.147)"/>
	<path style="fill:#4ca6e1;fill-opacity:1;fill-rule:nonzero;stroke:none" d="M2499.98 83.082c0-6.844-4.3-13.66-11.12-13.66-5.73 0-9.38 3.808-9.38 8.566 0 4.453 2.71 8.114 6.52 10.801-1.27 2.23-3.97 3.98-8.73 3.98-15.89 0-25.27-24.308-25.27-38.128 0-13.66 7.32-17.95 14.46-17.95 7.31 0 14.29 5.25 20.65 15.09l6.83-4.601c-6.83-11.91-16.21-21.77-31.77-21.77-17.47 0-29.23 11.922-29.23 29.23 0 24.79 21.29 47.18 44 47.18 13.34 0 23.04-7.46 23.04-18.738" transform="matrix(.13333 0 0 -.13333 0 343.147)"/>
	<path style="fill:#4ca6e1;fill-opacity:1;fill-rule:nonzero;stroke:none" d="m2544.3 88.79-9.53-34.778c-1.12-3.973-1.92-7.633-1.92-9.531 0-4.29 2.23-5.72 5.57-5.72 5.71 0 10.48 6.981 14.93 17.15l7.62-2.54c-7.79-22.562-20.01-27.96-28.59-27.96-10.49 0-17.95 5.25-17.95 16.05 0 4.61 1.75 11.281 2.86 15.719l8.58 31.61h-13.99l2.55 9.702h13.98l5.24 19.047 18.9 2.07-5.71-21.117h22.55l-2.54-9.703h-22.55" transform="matrix(.13333 0 0 -.13333 0 343.147)"/>
	<path style="fill:#201916;fill-opacity:1;fill-rule:nonzero;stroke:none" d="M0 705.559h118.395l90.875-165.11 90.234 165.11h119.027V257.59H304.617v252.14L209.27 343.34h-1.926l-95.352 165.109V257.59H0v447.969" transform="matrix(.13333 0 0 -.13333 0 343.147)"/>
	<path style="fill:#201916;fill-opacity:1;fill-rule:nonzero;stroke:none" d="m717.422 430.371-41.598 131.188-41.594-131.188Zm-98.551 277.75h116.473L893.406 257.59H772.461l-26.238 80.64H605.43l-25.594-80.64H461.441l157.43 450.531" transform="matrix(.13333 0 0 -.13333 0 343.147)"/>
	<path style="fill:#201916;fill-opacity:1;fill-rule:nonzero;stroke:none" d="M899.84 476.461v8.949c0 134.399 92.152 227.82 215.66 227.82 64 0 110.72-19.191 154.23-54.39l-63.99-87.68c-23.68 21.129-49.28 37.121-87.68 37.121-56.95 0-100.47-49.91-100.47-124.152v-6.387c0-81.922 44.16-127.363 101.75-127.363 22.4 0 39.04 5.121 51.84 13.441v66.551h-71.03v88.961h179.18V305.59c-42.24-31.36-96.63-55.68-164.47-55.68-122.227 0-215.02 86.391-215.02 226.551" transform="matrix(.13333 0 0 -.13333 0 343.147)"/>
	<path style="fill:#201916;fill-opacity:1;fill-rule:nonzero;stroke:none" d="M1344.62 705.559h108.16l149.1-225.258v225.258h113.28V257.59h-102.4L1457.9 492.449V257.59h-113.28v447.969" transform="matrix(.13333 0 0 -.13333 0 343.147)"/>
	<path style="fill:#201916;fill-opacity:1;fill-rule:nonzero;stroke:none" d="M1783.66 434.859v270.7h115.83V433.582c0-53.762 26.24-79.363 65.92-79.363 40.31 0 65.91 24.32 65.91 77.429v273.911h116.47V436.781c0-129.91-73.59-186.871-183.02-186.871-109.44 0-181.11 57.59-181.11 184.949" transform="matrix(.13333 0 0 -.13333 0 343.147)"/>
	<path style="fill:#201916;fill-opacity:1;fill-rule:nonzero;stroke:none" d="M2216.94 705.559h118.39l90.87-165.11 90.24 165.11h119.03V257.59h-113.92v252.14l-95.35-166.39h-1.91l-95.35 165.109V257.59h-112v447.969" transform="matrix(.13333 0 0 -.13333 0 343.147)"/>
	<path style="fill:#4ca6e1;fill-opacity:1;fill-rule:nonzero;stroke:none" d="M1657.99 2277.02c-4.21 0-8.31.92-12.21 2.75-74.17 35.08-153.47 52.86-235.72 52.86h-13.45c-7.26 0-13.73 4.58-16.16 11.42-2.41 6.85-.25 14.49 5.39 19.04 21.23 17.13 41.65 37.09 61.4 56.4 46.58 45.68 94.68 92.84 157.06 108.62 2.22.59 4.66.9 7.11.9 14.98 0 27.47-11.71 28.43-26.66 4.63-64.09 19.54-126.63 44.3-185.75 3.7-8.98 2.73-19.01-2.57-26.9-5.31-7.95-14.13-12.68-23.58-12.68" transform="matrix(.13333 0 0 -.13333 0 343.147)"/>
	<path style="fill:#4ca6e1;fill-opacity:1;fill-rule:nonzero;stroke:none" d="M1541.33 1029.64c-15.84 0-28.72 12.82-28.72 28.59v44c0 113.11-92.02 205.13-205.13 205.13h-43.77c-12.4 0-23 7.58-27.02 19.31-4.04 11.79-.29 24.34 9.56 31.99 10.11 7.68 20.63 14.37 31.41 20 31.67 16.82 67.66 26.07 103.96 26.68.09 0 .73 0 .96-.01l115.69-4.55c122.43.18 225.43 96.14 229.66 214.07 2.11 60.92-19.99 118.62-62.24 162.46-37.37 38.83-87.76 62.61-141.88 66.96-14.51 1.14-25.91 12.9-26.47 27.36-.01.22-.01.44-.01.66 0 1.96-.03 3.95-.05 5.95-.03 2.19-.06 4.39-.06 6.59 0 17.13.67 34.42 2 51.47l-22.64 2.36c-1.38-18.16-2.09-36.26-2.09-53.83 0-73.21 11.38-145.13 33.81-213.75 4.77-14.31.06-28.79-12.33-37.7-3.4-2.48-10.71-6.73-20.47-6.73-7.45 0-14.72 2.55-21.02 7.38-75.25 57.19-134.22 138.04-166 227.63-3.65 10.38-.98 22.06 6.77 29.81l42.92 42.82-16.15 16.08-64.95-64.95.57-1.87c.89-2.96 1.32-5.69 1.32-8.41 0-15.73-12.81-28.53-28.54-28.53h-.57c-.36 0-.72.01-1.09.03-157.69 10.06-305.44 77.94-416.026 191.15-8.062 8.18-10.406 20.41-5.925 31.09a28.418 28.418 0 0 0 26.277 17.5h170.244v22.73H767.543c-9.402 0-18.223 4.55-23.59 12.17-23.734 34.59-44.09 71.25-60.617 109.13-7.402 17.44-5.957 36.43 3.891 52.26 10.269 16.7 29.878 27.12 51.136 27.12l671.687.12c139.68 0 271.62-54.04 371.54-152.17 99.78-97.98 156.23-228.67 158.97-367.98.01-.12.01-10.59.01-10.59 0-160.25-87.49-319.61-222.89-405.97-66.56-42.47-106.29-113.25-106.29-189.36v-1.37c.61-51.92-15.89-101.04-47.74-141.84-5.38-6.97-13.53-10.99-22.32-10.99" transform="matrix(.13333 0 0 -.13333 0 343.147)"/>
	<path style="fill:#3a66ba;fill-opacity:1;fill-rule:nonzero;stroke:none" d="M1857.98 1544.88a441.65 441.65 0 0 1-19.37 99.56c-47.5-31.01-90.33-163.78-181.71-178.06l-153.59-65.46h.03c-1.69-.04-3.37-.13-5.07-.14l-115.69 4.55c-.23.01-.87.01-.96.01-36.3-.61-72.29-9.86-103.96-26.68-10.78-5.63-21.3-12.32-31.41-20-9.85-7.65-13.6-20.2-9.56-31.99 4.02-11.73 14.62-19.31 27.02-19.31h43.77c113.11 0 205.13-92.02 205.13-205.13v-44c0-15.77 12.88-28.59 28.72-28.59 8.79 0 16.94 4.02 22.32 10.99 31.85 40.8 48.35 89.92 47.74 141.84v1.37c0 76.11 39.73 146.89 106.29 189.36 63.4 40.44 116.3 96.9 154.63 161.95l-14.33 9.73" transform="matrix(.13333 0 0 -.13333 0 343.147)"/>
	<path style="fill:#fff;fill-opacity:1;fill-rule:nonzero;stroke:none" d="M1851.58 1739.93c0 196.7-159.46 356.15-356.16 356.15h-492.09v-9.7H833.086a28.418 28.418 0 0 1-26.277-17.5c-4.481-10.68-2.137-22.91 5.925-31.09 110.586-113.21 258.336-181.09 416.026-191.15.37-.02.73-.03 1.09-.03h.57c15.73 0 28.54 12.8 28.54 28.53 0 2.72-.43 5.45-1.32 8.41l-.57 1.87 64.95 64.95 16.15-16.08-42.92-42.82c-7.75-7.75-10.42-19.43-6.77-29.81 31.78-89.59 90.75-170.44 166-227.63 6.3-4.83 13.57-7.38 21.02-7.38 9.76 0 17.07 4.25 20.47 6.73 12.39 8.91 17.1 23.39 12.33 37.7-22.43 68.62-33.81 140.54-33.81 213.75 0 17.57.71 35.67 2.09 53.83l22.64-2.36c-1.33-17.05-2-34.34-2-51.47 0-2.2.03-4.4.06-6.59.02-2 .05-3.99.05-5.95 0-.22 0-.44.01-.66.56-14.46 11.96-26.22 26.47-27.36 54.12-4.35 104.51-28.13 141.88-66.96 42.25-43.84 64.35-101.54 62.24-162.46-4.17-116.3-104.41-211.17-224.62-213.93l19.6-16c183.84 14.05 328.67 167.56 328.67 355.01" transform="matrix(.13333 0 0 -.13333 0 343.147)"/>
	<path style="fill:#c1ced2;fill-opacity:1;fill-rule:nonzero;stroke:none" d="m1516.59 1941.96-33.88-.14.13-3.82 16.38-1.7c-1.33-17.05-2-34.34-2-51.47 0-2.2.03-4.4.06-6.59.02-2 .05-3.99.05-5.95 0-.22 0-.44.01-.66.56-14.46 11.96-26.22 26.47-27.36 54.12-4.35 104.51-28.13 141.88-66.96 42.25-43.84 64.35-101.54 62.24-162.46-4.17-116.3-104.41-211.17-224.62-213.93l19.6-16c151.4 11.57 276.32 117.73 315.7 259.52-46.92 147.9-169.31 262.13-322.02 297.52" transform="matrix(.13333 0 0 -.13333 0 343.147)"/>
	<path style="fill:#201916;fill-opacity:1;fill-rule:nonzero;stroke:none" d="M1653.07 2295.28c9.46-4.45 19.26 5.01 15.27 14.7-25.3 60.41-40.8 124.93-45.6 191.26-.45 7.07-7.29 12.08-14.24 10.26-57.67-14.59-102.36-58.25-149.2-104.18-20.29-19.83-40.81-39.89-62.69-57.56h13.45c86.85 0 169.27-19.61 243.01-54.48zm270.36-516.11v10.26c-5.47 278.45-233.66 503.34-513.37 503.34l-671.697-.12c-14.59 0-28.949-6.61-36.586-19.03-6.953-11.17-7.867-24.28-2.738-36.36 16.414-37.62 36.25-73.06 58.93-106.12 2.168-3.08 5.699-4.9 9.574-4.9h241.527c6.27 0 11.4-5.13 11.4-11.4v-34.19c0-6.38-5.13-11.4-11.4-11.4H833.082c-10.144 0-15.156-12.31-8.094-19.49 105.891-108.4 249.392-176.1 404.862-186.02h.57c6.27 0 11.4 5.13 11.4 11.4 0 1.14-.23 2.28-.57 3.42l-1.59 5.24c-1.14 3.99-.12 8.32 2.84 11.29l71.47 71.46c4.45 4.45 11.63 4.45 16.07 0l24.28-24.16c4.44-4.45 4.44-11.74 0-16.19l-46.96-46.84c-3.08-3.08-4.22-7.75-2.74-11.97 30.78-86.74 87.09-164.14 160.26-219.76 9.69-7.41 18.59-2.17 21.09-.34 3.65 2.62 9.34 8.55 6.04 18.46-23.02 70.45-34.65 144.2-34.65 219.08 0 20.29.91 40.8 2.62 61.09.57 6.39 6.27 10.94 12.66 10.38l33.96-3.54c6.27-.68 10.71-6.04 10.15-12.31-1.6-18.47-2.39-37.16-2.39-55.62 0-4.22.1-8.44.1-12.54.24-5.93 4.91-10.49 10.72-10.94 58.13-4.67 111.93-29.64 152.85-72.15 45.48-47.19 69.3-109.31 67.02-174.97-4.56-127.08-115.35-230.58-247.11-230.58l-116.04 4.56c-33.62-.57-66.9-9.12-96.31-24.74-10.26-5.35-19.83-11.5-28.84-18.35-8.66-6.72-3.99-20.63 6.96-20.63h43.77c122.75 0 222.26-99.5 222.26-222.26v-44c0-10.83 13.8-15.61 20.41-7.07 29.18 37.39 44.67 83.1 44.11 131.31v1.37c0 82.07 42.73 158.21 114.21 203.8 130.61 83.32 214.96 236.97 214.96 391.53zm57.11 0v-28.5h-.91c-9.69-163.67-101.91-322.68-240.62-411.13-54.94-35.11-87.77-93.24-87.77-155.7.92-73.07-26.78-141.11-77.96-192.399a266.869 266.869 0 0 0-58.13-43.769l-25.41-14.363c-7.64-4.219-16.99 1.25-16.99 10.031v158.89c0 91.3-74.09 165.27-165.27 165.27h-159.01c-8.66 0-14.25 9.35-9.92 16.98l14.25 25.54c25.42 45.02 61.1 80.01 106.12 103.83 37.61 19.95 80.13 30.78 122.87 31.35h.8l116.49-4.56c100.3 0 185.56 78.76 188.98 175.65 1.71 50.04-16.3 97.45-51.07 133.35-27.92 28.96-63.59 47.19-102.46 53.35-7.64 1.14-14.36-5.36-13.22-12.99a638.537 638.537 0 0 1 24.16-104.3c10.03-31.11 0-66.11-26.56-84.91-13.11-9.24-28.15-13.91-43.2-13.91-15.95 0-31.8 5.13-45.25 15.39-67.93 51.52-122.75 119.91-159.23 197.19-1.94 3.64-5.7 6.04-10.03 6.04-267.399 3.42-507.903 163.22-614.477 409.19-15.5 35.91-7.977 78.08 20.972 107.03 18.578 18.69 44.684 27.92 71.012 27.92l517.363.12c62.92 0 109.42 45.6 163.45 98.37 60.07 58.81 128.12 125.49 230.13 125.49h17.1c6.38 0 11.39-5.13 11.39-11.4v-17.09c0-139.63 52.21-272.76 146.93-375.12 96.31-102.24 155.47-239.71 155.47-390.84" transform="matrix(.13333 0 0 -.13333 0 343.147)"/>
	<path style="fill:#201916;fill-opacity:1;fill-rule:nonzero;stroke:none" d="M1301.09 2181.41c18.47-27.7 27.81-60.75 26.56-94.27-1.02-29.28-10.15-57.21-26.56-81.6-3.76-5.7-11.4-7.07-16.75-2.85l-26.9 21.31c-4.56 3.53-5.7 10.03-2.63 14.82 9.81 15.27 15.28 32.48 15.96 50.38.69 21.31-4.78 41.6-16.18 59.27-3.08 4.78-1.71 11.17 2.85 14.7l27.01 21.21c5.24 4.09 13 2.73 16.64-2.97" transform="matrix(.13333 0 0 -.13333 0 343.147)"/>
	<path style="fill:#201916;fill-opacity:1;fill-rule:nonzero;stroke:none" d="M1187.11 2181.41c18.47-27.7 27.81-60.75 26.56-94.27-1.03-29.28-10.14-57.21-26.56-81.6-3.76-5.7-11.4-7.07-16.75-2.85l-26.9 21.31c-4.56 3.53-5.71 10.03-2.63 14.82 9.8 15.27 15.28 32.48 15.96 50.38.69 21.31-4.79 41.6-16.18 59.27-3.08 4.78-1.71 11.17 2.85 14.7l27.01 21.21c5.24 4.09 12.99 2.73 16.64-2.97" transform="matrix(.13333 0 0 -.13333 0 343.147)"/>
	<path style="fill:#201916;fill-opacity:1;fill-rule:nonzero;stroke:none" d="M984.336 2269c15.734 0 28.494-12.77 28.494-28.5s-12.76-28.49-28.494-28.49c-15.727 0-28.496 12.76-28.496 28.49 0 15.73 12.769 28.5 28.496 28.5" transform="matrix(.13333 0 0 -.13333 0 343.147)"/>
</svg>
