<svg xmlns="http://www.w3.org/2000/svg" width="200" height="128">
	<path fill="#444242" d="M32.55 71a3 3 0 0 0-1.38.32 2.26 2.26 0 0 0-.92.89h-.05A2.12 2.12 0 0 0 28 71a2.71 2.71 0 0 0-1.25.29 2.17 2.17 0 0 0-.86.81h-.05l-.18-1h-.87v7.12h1.08v-3.75a3.26 3.26 0 0 1 .47-2 1.76 1.76 0 0 1 1.48-.61 1.44 1.44 0 0 1 1.18.44 1.94 1.94 0 0 1 .36 1.28v4.63h1.08v-4a2.76 2.76 0 0 1 .48-1.78 1.85 1.85 0 0 1 1.49-.58 1.43 1.43 0 0 1 1.13.43 1.94 1.94 0 0 1 .36 1.28v4.63H35v-4.63a2.76 2.76 0 0 0-.6-2 2.42 2.42 0 0 0-1.85-.56zm7.31 0a5 5 0 0 0-1.26.16 5.1 5.1 0 0 0-1.15.45l.33.83a4.62 4.62 0 0 1 2-.55 1.5 1.5 0 0 1 1.15.4 1.82 1.82 0 0 1 .37 1.24v.44l-1.2.03c-2.3.07-3.45.82-3.45 2.26a2 2 0 0 0 .6 1.55 2.34 2.34 0 0 0 1.66.55 3.18 3.18 0 0 0 1.32-.24 3 3 0 0 0 1.06-.91h.05l.22 1h.8v-4.86a2.34 2.34 0 0 0-.62-1.81 2.68 2.68 0 0 0-1.88-.54zm1.42 4.38a2 2 0 0 1-.58 1.55 2.22 2.22 0 0 1-1.58.55 1.45 1.45 0 0 1-1-.31 1.12 1.12 0 0 1-.35-.89 1.2 1.2 0 0 1 .57-1.1 3.81 3.81 0 0 1 1.85-.4h1.08zm3.85-6.93a.61.61 0 0 0-.46.17.7.7 0 0 0-.18.54.73.73 0 0 0 .18.54.62.62 0 0 0 .46.18.6.6 0 0 0 .44-.18.86.86 0 0 0 0-1.08.6.6 0 0 0-.44-.17zm-.55 2.64h1.08v7.12h-1.08zm9.31 7.12v-4.65a2.6 2.6 0 0 0-.65-2 2.71 2.71 0 0 0-1.93-.56 2.92 2.92 0 0 0-1.33.29 2.17 2.17 0 0 0-.93.81l-.18-1h-.88v7.12H49v-3.75a3 3 0 0 1 .52-2 2.06 2.06 0 0 1 1.64-.61 1.65 1.65 0 0 1 1.24.43 1.89 1.89 0 0 1 .39 1.3v4.61zm3.91-8.88a1 1 0 0 1 .9-.41 3.66 3.66 0 0 1 1.06.2l.28-.86a4.7 4.7 0 0 0-1.32-.26c-1.53 0-2.29.87-2.29 2.62v.4l-1.28.39v.49h1.28v6.28h1.07v-6.25h1.82v-.84H57.5v-.46a2.18 2.18 0 0 1 .3-1.3zM64.56 72l.15-1a3.67 3.67 0 0 0-.85-.08 2.19 2.19 0 0 0-1.23.37 3.06 3.06 0 0 0-1 1.08l-.12-1.32h-.89v7.12h1.07v-3.78a2.56 2.56 0 0 1 .62-1.75 1.88 1.88 0 0 1 1.47-.7 3.89 3.89 0 0 1 .78.06zm4.16-1a5 5 0 0 0-1.26.16 5.29 5.29 0 0 0-1.15.45l.33.83a4.63 4.63 0 0 1 2-.55 1.51 1.51 0 0 1 1.15.4 1.82 1.82 0 0 1 .36 1.24v.44L69 74c-2.3.07-3.45.82-3.45 2.26a2 2 0 0 0 .6 1.55 2.36 2.36 0 0 0 1.66.55 3.18 3.18 0 0 0 1.32-.24 3 3 0 0 0 1.07-.91l.21 1h.8v-4.86a2.34 2.34 0 0 0-.61-1.81 2.7 2.7 0 0 0-1.88-.54zm1.42 4.38a2.07 2.07 0 0 1-.57 1.55 2.22 2.22 0 0 1-1.58.55 1.42 1.42 0 0 1-1-.31 1.1 1.1 0 0 1-.36-.89 1.2 1.2 0 0 1 .57-1.1 3.89 3.89 0 0 1 1.86-.4h1.07zm12.01-3.08a1.88 1.88 0 0 1 .37 1.28v4.63h1.08v-4.65a2.76 2.76 0 0 0-.6-2 2.44 2.44 0 0 0-1.82-.56 2.91 2.91 0 0 0-1.37.32 2.2 2.2 0 0 0-.92.89h-.06A2.11 2.11 0 0 0 76.65 71a2.67 2.67 0 0 0-1.24.29 2.17 2.17 0 0 0-.86.81l-.18-1h-.88v7.12h1.08v-3.75a3.33 3.33 0 0 1 .47-2 1.78 1.78 0 0 1 1.49-.61 1.42 1.42 0 0 1 1.13.43 1.88 1.88 0 0 1 .34 1.29v4.63h1.07v-4a2.76 2.76 0 0 1 .48-1.78 1.86 1.86 0 0 1 1.45-.56 1.42 1.42 0 0 1 1.15.43zm8.99 5.58v-1a5.76 5.76 0 0 1-2.28.48 2.17 2.17 0 0 1-1.69-.65 2.79 2.79 0 0 1-.63-1.9h4.9v-.68a3.36 3.36 0 0 0-.78-2.32 2.66 2.66 0 0 0-2.11-.81 2.82 2.82 0 0 0-2.28 1 4.12 4.12 0 0 0-.85 2.74 3.74 3.74 0 0 0 .91 2.67 3.28 3.28 0 0 0 2.49 1 6.16 6.16 0 0 0 1.23-.11 6 6 0 0 0 1.09-.42zm-4-5.46a1.78 1.78 0 0 1 1.37-.56 1.57 1.57 0 0 1 1.3.55 2.3 2.3 0 0 1 .48 1.59h-3.73a2.57 2.57 0 0 1 .6-1.58zm10.75 5.47a3.16 3.16 0 0 0 1.69.45 3.08 3.08 0 0 0 2.42-1 4.6 4.6 0 0 0 0-5.34 3.42 3.42 0 0 0-4.79 0 3.92 3.92 0 0 0-.87 2.71 4.46 4.46 0 0 0 .4 2 3 3 0 0 0 1.15 1.18zm.1-5.32a2.19 2.19 0 0 1 3.22 0 3.28 3.28 0 0 1 .55 2.06 3.33 3.33 0 0 1-.55 2.08 1.88 1.88 0 0 1-1.6.71 1.89 1.89 0 0 1-1.61-.7 3.41 3.41 0 0 1-.55-2.08 3.32 3.32 0 0 1 .55-2.07zm12.26 4.8a5.1 5.1 0 0 0 0-5.44 2.64 2.64 0 0 0-2.18-1 2.54 2.54 0 0 0-2.22 1.07v-3.9h-1.08v10.11h.77l.23-.92h.08a2.35 2.35 0 0 0 1 .79 3.1 3.1 0 0 0 1.27.26 2.64 2.64 0 0 0 2.13-.97zm-3.9-.58a3.53 3.53 0 0 1-.5-2.15 3.6 3.6 0 0 1 .48-2.13 1.91 1.91 0 0 1 1.6-.64 1.7 1.7 0 0 1 1.5.69 3.51 3.51 0 0 1 .49 2.07 3.68 3.68 0 0 1-.49 2.08 1.66 1.66 0 0 1-1.48.72 1.9 1.9 0 0 1-1.6-.64zm6.94-2.49a7.43 7.43 0 0 0 1.42.64 5.6 5.6 0 0 1 1.4.71.89.89 0 0 1 .37.71.91.91 0 0 1-.46.82 2.57 2.57 0 0 1-1.3.27 4.56 4.56 0 0 1-1.13-.15 5.64 5.64 0 0 1-1.11-.41v1a4.53 4.53 0 0 0 2.21.45 3.46 3.46 0 0 0 2.08-.54 1.77 1.77 0 0 0 .74-1.54 1.65 1.65 0 0 0-.44-1.17 4.78 4.78 0 0 0-1.71-.93 9.12 9.12 0 0 1-1.25-.53 1.26 1.26 0 0 1-.47-.38.79.79 0 0 1-.15-.49.74.74 0 0 1 .39-.66 2.26 2.26 0 0 1 1.16-.24 5.21 5.21 0 0 1 1.94.44l.38-.88a5.69 5.69 0 0 0-2.24-.46 3.37 3.37 0 0 0-2 .5 1.61 1.61 0 0 0-.7 1.38 1.57 1.57 0 0 0 .2.83 2.06 2.06 0 0 0 .67.63zm10.21 3.93a6 6 0 0 0 1.09-.35v-1a5.76 5.76 0 0 1-2.28.48 2.17 2.17 0 0 1-1.69-.65 2.79 2.79 0 0 1-.63-1.9h4.9v-.68a3.36 3.36 0 0 0-.78-2.32A2.66 2.66 0 0 0 122 71a2.82 2.82 0 0 0-2.28 1 4.12 4.12 0 0 0-.85 2.74 3.74 3.74 0 0 0 .91 2.67 3.28 3.28 0 0 0 2.49 1 6.16 6.16 0 0 0 1.23-.18zm-2.89-5.81a1.78 1.78 0 0 1 1.37-.56 1.57 1.57 0 0 1 1.3.55 2.3 2.3 0 0 1 .46 1.55H120a2.57 2.57 0 0 1 .61-1.54zm7.2 1.97a2.56 2.56 0 0 1 .61-1.75 1.89 1.89 0 0 1 1.48-.7 4.06 4.06 0 0 1 .78.09l.15-1A3.72 3.72 0 0 0 130 71a2.14 2.14 0 0 0-1.23.37 3.06 3.06 0 0 0-1 1.08h-.06l-.12-1.32h-.89v7.12h1.08zm7.19 3.82 2.7-7.12h-1.16c-.88 2.42-1.45 4-1.7 4.72s-.4 1.19-.45 1.42h-.06a19.35 19.35 0 0 0-.61-1.92l-1.53-4.22H131l2.7 7.12zm7.94-1.02h.06l.21 1h.8v-4.84a2.34 2.34 0 0 0-.61-1.81 2.7 2.7 0 0 0-1.9-.54 5 5 0 0 0-1.26.16 5.1 5.1 0 0 0-1.15.45l.33.83a4.62 4.62 0 0 1 2-.55 1.52 1.52 0 0 1 1.16.4 1.82 1.82 0 0 1 .42 1.21v.44h-1.21c-2.3.07-3.45.82-3.45 2.26a2 2 0 0 0 .6 1.55 2.34 2.34 0 0 0 1.66.55 3.18 3.18 0 0 0 1.32-.24 3.07 3.07 0 0 0 1.02-.87zm-3.17 0a1.12 1.12 0 0 1-.35-.89 1.2 1.2 0 0 1 .57-1.1 3.87 3.87 0 0 1 1.85-.4h1.08v.64a2.07 2.07 0 0 1-.57 1.55 2.22 2.22 0 0 1-1.58.55 1.46 1.46 0 0 1-1-.4zm9.76-6.19a2.55 2.55 0 0 0-2.23 1h-.05c0-.43.05-.93.05-1.48V68.1h-1.08v10.11h.78l.23-.92h.08a2.35 2.35 0 0 0 1 .79 3.13 3.13 0 0 0 1.27.26 2.66 2.66 0 0 0 2.18-1 4.27 4.27 0 0 0 .78-2.73 4.19 4.19 0 0 0-.78-2.71 2.63 2.63 0 0 0-2.23-.9zm1.35 5.74a1.64 1.64 0 0 1-1.47.72 1.9 1.9 0 0 1-1.61-.64 3.6 3.6 0 0 1-.5-2.15 3.52 3.52 0 0 1 .49-2.13 1.88 1.88 0 0 1 1.59-.64 1.7 1.7 0 0 1 1.5.69 3.51 3.51 0 0 1 .49 2.07 3.68 3.68 0 0 1-.49 2.05zm4.04-8.29a.6.6 0 0 0-.45.17.67.67 0 0 0-.19.54.7.7 0 0 0 .19.54.61.61 0 0 0 .45.18.64.64 0 0 0 .45-.18.9.9 0 0 0 0-1.08.63.63 0 0 0-.45-.17zm-.55 2.64h1.08v7.12h-1.08zm3.37-2.99h1.08v10.11h-1.08zm3.91.35a.64.64 0 0 0-.46.17.7.7 0 0 0-.18.54.73.73 0 0 0 .18.54.67.67 0 0 0 .91 0 .9.9 0 0 0 0-1.08.63.63 0 0 0-.45-.17zm-.55 2.64h1.08v7.12h-1.08zm5.67 6.36a1.08 1.08 0 0 1-.84-.34 1.43 1.43 0 0 1-.31-1v-4.18h2.07v-.84h-2.07v-1.65H165l-.46 1.56-1 .45v.52h1v4.23c0 1.45.69 2.18 2.07 2.18a3.49 3.49 0 0 0 .61-.06 2 2 0 0 0 .52-.14v-.82l-.42.09a4.91 4.91 0 0 1-.55 0zm6.78-6.36c-1 2.75-1.58 4.4-1.76 4.93s-.3.91-.35 1.13h-.06a15.32 15.32 0 0 0-.63-2l-1.56-4.06H168l2.87 7.16-.39 1a1.66 1.66 0 0 1-1.59 1.25 3.94 3.94 0 0 1-.8-.08v.86a4 4 0 0 0 1 .11 2.29 2.29 0 0 0 1.49-.5 4.12 4.12 0 0 0 1.06-1.71l3.06-8.1zM29.37 59.36h22.84v-4.88H36.9l.39-.55 14.29-19.88a1.39 1.39 0 0 0 .23-.71V29.3H30.33v4.9h14.25l-.3.43q-7.35 10.24-14.69 20.5a1.27 1.27 0 0 0-.21.68v2.34zM87.73 19.6h-6.46v39.76h6.46zm52.82 0h-6.46v39.76h6.46zM60.3 59.4a.5.5 0 0 0 .55-.39L75.38 20c.05-.13.08-.25.13-.41h-6q-7.42 19.89-14.87 39.8h.48c1.73 0 3.45-.01 5.18.01zm1.16 42.31a1.86 1.86 0 0 0-1.46-.18 2.13 2.13 0 0 0-1.32.74c-.89-1.19-1.91-.94-3-.27l.07-.43H54.7c-.16 0-.22.05-.26.2-.35 1.53-.71 3.06-1.07 4.59 0 .19-.09.38-.13.59h1.09c.13 0 .19 0 .22-.17.17-.74.34-1.48.53-2.22a7.67 7.67 0 0 1 .36-1.15 1.42 1.42 0 0 1 1.07-.85.65.65 0 0 1 .74.39 1.1 1.1 0 0 1 0 .67c-.14.64-.29 1.29-.43 1.94-.1.44-.21.89-.32 1.36h1.29v-.17c.21-.9.42-1.79.64-2.69a2.28 2.28 0 0 1 .56-1.09 1.45 1.45 0 0 1 .77-.41.71.71 0 0 1 .84.76c0 .13 0 .27-.06.4-.22 1-.45 2-.67 3-.05.22 0 .24.18.25h.89c.13 0 .18 0 .2-.16.2-.87.41-1.74.59-2.62a11.88 11.88 0 0 0 .18-1.46 1.06 1.06 0 0 0-.45-1.02zm76.48-.26a2 2 0 0 0-1.67.34l-.27.21.06-.47h-1.08c-.12 0-.16 0-.18.15l-1.65 7.08c0 .16 0 .21.16.21h.85c.28 0 .26-.06.3-.24.16-.79.35-1.58.53-2.36h.06c.07.08.13.17.21.25a1.73 1.73 0 0 0 .84.45 2.93 2.93 0 0 0 1.18 0 2.66 2.66 0 0 0 1.62-1.22 4 4 0 0 0 .53-2.75 1.8 1.8 0 0 0-1.49-1.65zm-.36 4a1.26 1.26 0 0 1-.93.53 1.1 1.1 0 0 1-1.26-1.08 2.63 2.63 0 0 1 .61-1.9 1.28 1.28 0 0 1 .77-.51 1.12 1.12 0 0 1 1.42 1.09v.17a3 3 0 0 1-.61 1.71zm-70.05-3.9a5.11 5.11 0 0 0-1.87 0 2 2 0 0 0-1.58 1.19c-.11.22-.07.33.17.34s.66 0 1 0a.24.24 0 0 0 .17-.12.72.72 0 0 1 .68-.55 5.7 5.7 0 0 1 .71 0 .66.66 0 0 1 .67.63c0 .28-.08.42-.36.46l-1.16.16a8.82 8.82 0 0 0-1.55.28 1.73 1.73 0 0 0-1 2.38.39.39 0 0 0 .08.14 1.63 1.63 0 0 0 .95.61 2.54 2.54 0 0 0 2-.37 1.91 1.91 0 0 1 .25-.13v.22c0 .06 0 .18.15.18h1.26a11.37 11.37 0 0 1 .37-2.54c.08-.44.17-.88.22-1.33a1.14 1.14 0 0 0-.33-1.06 1.7 1.7 0 0 0-.83-.49zm-.42 3.09a5.31 5.31 0 0 1-.2.68.37.37 0 0 1-.11.18 2.32 2.32 0 0 1-1.4.57.73.73 0 0 1-.8-.66.68.68 0 0 1 .61-.76c.56-.09 1.13-.16 1.7-.23.21-.02.24.01.2.22zm64.26-3.02a2.81 2.81 0 0 0-3.42.9 3.81 3.81 0 0 0-.66 2.64 2.07 2.07 0 0 0 1.74 1.89 4.62 4.62 0 0 0 .83 0 3.08 3.08 0 0 0 2.47-1.28l-1-.61a.2.2 0 0 0-.16 0c-.18.17-.33.38-.52.53a1.26 1.26 0 0 1-2-.71 2.92 2.92 0 0 1 0-.51c0-.12 0-.16.15-.16h3.74v-1.22a1.81 1.81 0 0 0-1.17-1.47zm-1.57 1.87h-.73c-.18 0-.24-.1-.15-.25a1.62 1.62 0 0 1 1.26-.9.9.9 0 0 1 1 .88v.28zm-35.53-1.85a2.75 2.75 0 0 0-3 .36 3.43 3.43 0 0 0-1.26 3.39 2 2 0 0 0 1.6 1.66 3.49 3.49 0 0 0 1.67-.09 2.93 2.93 0 0 0 1.84-1.81 4.4 4.4 0 0 0 .27-1.48 2 2 0 0 0-1.12-2.03zm-.11 2.09a2.93 2.93 0 0 1-.55 1.67 1.51 1.51 0 0 1-.91.59 1.19 1.19 0 0 1-1.42-1.3 2.51 2.51 0 0 1 .62-1.69 2.11 2.11 0 0 1 .66-.49 1.12 1.12 0 0 1 1.6 1 1.47 1.47 0 0 1 0 .22zm17.5-2.15A3 3 0 0 0 108 103a4 4 0 0 0-.43 2 2.08 2.08 0 0 0 .4 1.23 2 2 0 0 0 1.74.86 2.89 2.89 0 0 0 2.35-.9 3.68 3.68 0 0 0 .86-3.16 1.84 1.84 0 0 0-1.26-1.45zm-.49 3.78a1.59 1.59 0 0 1-.77.58 1.16 1.16 0 0 1-1.6-1.21 3.29 3.29 0 0 1 .33-1.3 1.82 1.82 0 0 1 .58-.71 1.25 1.25 0 0 1 1.35-.14 1.23 1.23 0 0 1 .64 1.18 3.08 3.08 0 0 1-.53 1.6zm-33.65-3.87a2.32 2.32 0 0 0-1.73.37 2.4 2.4 0 0 1-.27.16l.06-.43h-1.13c-.1 0-.13.07-.15.16-.37 1.62-.75 3.24-1.13 4.87 0 .1 0 .21-.07.33h1.13c.13 0 .18-.07.21-.19.25-1 .49-2.08.79-3.1a1.46 1.46 0 0 1 1.15-1.08c.51-.09.9.1.87.7a5.75 5.75 0 0 1-.1.93c-.17.83-.37 1.66-.55 2.48 0 .24 0 .26.2.27h.8a.29.29 0 0 0 .32-.27c.18-.82.37-1.63.55-2.45a4.86 4.86 0 0 0 .16-1.52 1.19 1.19 0 0 0-1.11-1.23zm40.87 0a2 2 0 0 0-.55 0 2.56 2.56 0 0 0-1.25.45l-.3.18.15-.55h-1c-.14 0-.18 0-.21.17l-1.17 5c0 .15 0 .2.16.2h1a.18.18 0 0 0 .13-.11c.08-.3.13-.59.21-.89.2-.76.38-1.52.61-2.28a1.48 1.48 0 0 1 1.15-1.06.69.69 0 0 1 .9.7 2 2 0 0 1 0 .49c-.18.87-.37 1.74-.56 2.61 0 .17-.08.34-.11.52h1.2a.24.24 0 0 0 .13-.15c.16-.67.32-1.33.45-2a17.4 17.4 0 0 0 .28-1.9c-.05-.7-.32-1.16-1.22-1.38zm-35.97.92a4.66 4.66 0 0 1 .65 0 1.16 1.16 0 0 1 .82.52l.14.21 1-.6a8.27 8.27 0 0 0-.56-.61 1.67 1.67 0 0 0-.95-.46 7.6 7.6 0 0 0-1.43 0 1.8 1.8 0 0 0-1.39.89 1.28 1.28 0 0 0 .55 1.9c.4.19.83.33 1.24.5a3.69 3.69 0 0 1 .62.33.39.39 0 0 1 .1.59.74.74 0 0 1-.47.32 1.77 1.77 0 0 1-1.91-.72c0-.07-.09-.13-.14-.21l-.91.62c-.1.06-.13.13 0 .23a2.67 2.67 0 0 0 1.06.94 3.88 3.88 0 0 0 1.94.22 2.1 2.1 0 0 0 1.45-.69 1.17 1.17 0 0 0 .31-.55c.2-1.06 0-1.42-.81-1.84l-.27-.13c-.3-.11-.61-.2-.9-.32a2.89 2.89 0 0 1-.53-.26.38.38 0 0 1-.13-.51.69.69 0 0 1 .52-.37zm42.5-.83a2.85 2.85 0 0 0-3 .65 3.6 3.6 0 0 0-1 2.53 2.42 2.42 0 0 0 0 .37 2 2 0 0 0 1.38 1.85 3 3 0 0 0 1.2.12 2.73 2.73 0 0 0 2.28-1.5c.06-.11 0-.17-.07-.22s-.38-.15-.56-.22c-.42-.16-.42-.16-.7.21a1.57 1.57 0 0 1-.85.6 1 1 0 0 1-1.34-.86 3.28 3.28 0 0 1 0-1 2 2 0 0 1 1.08-1.57 1 1 0 0 1 1.5.74c0 .1.06.13.16.09l.87-.3c.15 0 .18-.13.13-.28a1.94 1.94 0 0 0-1.08-1.21zm-18.79.8a1.91 1.91 0 0 0-1.49-.93h-.68a2.22 2.22 0 0 0-1.75.77 3.63 3.63 0 0 0-1 3.07 2 2 0 0 0 1.72 1.79 3.63 3.63 0 0 0 .87 0 2.68 2.68 0 0 0 2.35-1.63 4.39 4.39 0 0 0-1.13-.41s-.1 0-.12.09a1.87 1.87 0 0 1-.6.65 1.09 1.09 0 0 1-1.78-.75 2.44 2.44 0 0 1 .7-2.2 1.47 1.47 0 0 1 .62-.35 1 1 0 0 1 1.27.66v.12c0 .04.1.14.22.09l.61-.2c.34-.12.39-.22.25-.56a1.13 1.13 0 0 0-.06-.21zm37.87-.84h-.6c-.18 0-.21-.08-.17-.24.12-.46.21-.93.33-1.4.05-.16 0-.22-.16-.22h-.92c-.12 0-.17 0-.19.15-.11.5-.23 1-.34 1.51a.23.23 0 0 1-.24.21h-.5s-.12 0-.13.08c-.06.21-.11.42-.15.64s0 .16.15.17h.32c.24 0 .27 0 .22.28-.14.65-.3 1.29-.43 1.93a4.86 4.86 0 0 0-.17 1.57.73.73 0 0 0 .69.73 9.87 9.87 0 0 0 1.22.07s.1-.06.12-.11c.07-.25.12-.51.19-.76s0-.18-.14-.19a1.34 1.34 0 0 1-.35 0c-.37-.08-.49-.26-.41-.63.19-.9.39-1.8.58-2.71a.17.17 0 0 1 .2-.15h.87c.06-.25.1-.48.15-.7s-.01-.22-.14-.23zm-43.66-.08a2 2 0 0 0-1.08.49l-.47.4.21-.74h-1.09c-.14 0-.2 0-.23.18-.33 1.44-.67 2.89-1 4.33-.06.28-.13.56-.2.87h1.1c.15 0 .2 0 .24-.19.21-.88.44-1.77.65-2.66a1.8 1.8 0 0 1 1.75-1.34.23.23 0 0 0 .27-.2c.07-.26.15-.52.2-.79s-.05-.38-.35-.35z"/>
	<path fill="#8f0f0f" d="M104.86 43.54h5.88a.83.83 0 0 1 .84.46c3 5 6 10 9 15.08a.6.6 0 0 0 .58.33h7.04c-3.77-5.89-7.5-11.72-11.24-17.54.74-.38 1.45-.7 2.12-1.09a10.59 10.59 0 0 0 4.92-5.52 12.57 12.57 0 0 0 .57-5.9 9.57 9.57 0 0 0-6.48-8.45 22.14 22.14 0 0 0-7.73-1.29H98.31v39.74h6.5zm0-18.47c2.79.09 5.57-.22 8.29.43a10.36 10.36 0 0 1 1.71.56 4.84 4.84 0 0 1 3 3.85 8.36 8.36 0 0 1-.13 3.66 5.53 5.53 0 0 1-4.52 4.14 12.56 12.56 0 0 1-2.51.36h-5.85zm68.49 19.22a9.87 9.87 0 0 0-4.35-4.75c-1.47-.85-3-1.57-4.53-2.3-1.74-.82-3.54-1.54-5.25-2.41a11.19 11.19 0 0 1-2.31-1.68c-2-1.79-2.2-6.54 1.74-8a8.92 8.92 0 0 1 3.06-.53 22.87 22.87 0 0 1 8.13 1.58l1.65.64c.69-1.77 1.37-3.51 2.06-5.3l-.31-.14a28.31 28.31 0 0 0-8.77-2.27 20.54 20.54 0 0 0-7.49.56 10.86 10.86 0 0 0-6.4 4.5 10.24 10.24 0 0 0-1.47 6.32 10.24 10.24 0 0 0 3.08 7 16.17 16.17 0 0 0 4.48 3c1.89.89 3.82 1.68 5.72 2.55a15.45 15.45 0 0 1 3.51 2.11 5.07 5.07 0 0 1-1.55 8.66 11.14 11.14 0 0 1-3.87.63 27.84 27.84 0 0 1-11.33-2.51l-.53-.21v4.84c0 1.36 0 1.35 1.29 1.85a23.51 23.51 0 0 0 6.68 1.42 27.8 27.8 0 0 0 8.09-.37 13.43 13.43 0 0 0 6.2-3c3.79-3.35 3.83-8.94 2.47-12.19zM55.26 94.49a.75.75 0 0 1-.15 0c-.11 0-.16 0-.19.14-.07.34-.16.67-.24 1s-.15.64-.24 1c15.86.09 31.68 0 47.51.06.07-.31.16-.61.21-.9s.12-.26.32-.26h42.93a.66.66 0 0 0 .2 0 .17.17 0 0 0 .11-.09c.09-.31.16-.63.24-1h-90.7zm34.07 7.06h-.39c-.26 0-.32-.07-.28-.33s.13-.62.2-.93.07-.37.12-.59h-1.27c-.13.56-.25 1.09-.37 1.63 0 .13-.08.2-.22.19s-.31 0-.46 0a.22.22 0 0 0-.24.21c0 .17-.06.34-.1.51s0 .17.12.17h.44c.15 0 .2 0 .16.21-.16.68-.32 1.35-.46 2a4.76 4.76 0 0 0-.16 1.55.79.79 0 0 0 .17.41.82.82 0 0 0 .74.36h1.08c.13 0 .13-.37.17-.56.09-.35.09-.44-.3-.44a.54.54 0 0 1-.54-.69c.19-.9.4-1.79.61-2.69a.16.16 0 0 1 .13-.09h.76a.2.2 0 0 0 .16-.1 4.56 4.56 0 0 0 .13-.53c.04-.21-.02-.28-.2-.29zm-17.18 0h-.94c-.12 0-.16 0-.19.16-.28 1.27-.58 2.53-.87 3.8-.11.46-.21.92-.32 1.41h1.2a.22.22 0 0 0 .13-.15c.39-1.67.77-3.34 1.16-5 .04-.18-.02-.22-.17-.22zm.43-1.97h-1c-.1 0-.13 0-.15.13l-.21 1c0 .11 0 .17.12.17h1.14c.07-.37.14-.72.23-1.08.07-.16.03-.22-.13-.22z"/>
</svg>
