<svg xmlns="http://www.w3.org/2000/svg" xml:space="preserve" width="520" height="63.36">
	<defs>
		<clipPath clipPathUnits="userSpaceOnUse" id="a">
			<path d="M0 47.52h390V0H0Z"/>
		</clipPath>
	</defs>
	<g clip-path="url(#a)" transform="matrix(1.33333 0 0 -1.33333 0 63.36)">
		<path d="M0 0c-2.053.532-4.188-.45-5.184-2.386l-15.045-27.648-15.044 27.648C-36.27-.448-38.404.53-40.459 0c-2.054-.535-3.489-2.44-3.489-4.635v-40.159h7.142v29.666l12.53-22.77c.8-1.55 2.351-2.514 4.048-2.514 1.698 0 3.248.964 4.046 2.516L-3.65-15.128v-29.666h7.141v40.159C3.491-2.438 2.056-.533 0 0" style="fill:#6a77d7;fill-opacity:1;fill-rule:nonzero;stroke:none" transform="translate(44.086 45.016)"/>
		<path d="M0 0c-1.907 1.944-4.198 2.916-6.874 2.916h-10.45c-.984 0-1.831.367-2.537 1.101-.708.732-1.062 1.625-1.062 2.675 0 1.021.354 1.897 1.062 2.631.706.734 1.553 1.101 2.537 1.101H-.037v6.308h-17.287c-2.677 0-4.952-.988-6.828-2.963-1.907-1.945-2.86-4.303-2.86-7.077 0-2.77.953-5.146 2.86-7.121 1.876-1.946 4.151-2.916 6.828-2.916l10.45-.048c.985 0 1.83-.352 2.537-1.053.708-.734 1.061-1.625 1.061-2.675a3.65 3.65 0 0 0-1.061-2.631c-.707-.733-1.552-1.1-2.537-1.1h-18.985v-6.309h18.985c2.676 0 4.967.97 6.874 2.916 1.876 1.975 2.815 4.35 2.815 7.124C2.815-4.35 1.876-1.975 0 0" style="fill:#6a77d7;fill-opacity:1;fill-rule:nonzero;stroke:none" transform="translate(387.047 17.384)"/>
		<path d="M0 0c-1.117 0-2.089-.419-2.884-1.243-.795-.826-1.199-1.831-1.199-2.987 0-1.111.399-2.101 1.184-2.945C-2.101-8.029-1.127-8.46 0-8.46c1.126 0 2.1.431 2.896 1.285.787.844 1.186 1.834 1.186 2.945 0 1.159-.404 2.161-1.199 2.987C2.087-.419 1.118 0 0 0" style="fill:#6a77d7;fill-opacity:1;fill-rule:nonzero;stroke:none" transform="translate(130.292 47.52)"/>
		<path d="M0 0a3.375 3.375 0 0 1-3.374-3.374v-31.578h6.746v31.578A3.373 3.373 0 0 1 0 0" style="fill:#6a77d7;fill-opacity:1;fill-rule:nonzero;stroke:none" transform="translate(130.292 35.175)"/>
		<path d="M0 0h-.001c-1.441 1.446-3.19 2.554-5.198 3.293-1.975.728-4.188 1.094-6.574 1.094-2.388 0-4.6-.366-6.575-1.094-2.01-.739-3.758-1.849-5.198-3.293-1.446-1.449-2.574-3.287-3.355-5.461-.767-2.135-1.155-4.606-1.155-7.342v-17.762h6.745v17.762c0 3.503.858 6.158 2.553 7.895 1.722 1.766 4.007 2.624 6.985 2.624 2.976 0 5.262-.858 6.984-2.622 1.695-1.739 2.554-4.396 2.554-7.897v-17.762h6.746v17.762c0 2.734-.389 5.202-1.157 7.342C2.573-3.287 1.444-1.451 0 0" style="fill:#6a77d7;fill-opacity:1;fill-rule:nonzero;stroke:none" transform="translate(167.547 30.787)"/>
		<path d="M0 0c-1.862 0-3.373-1.565-3.373-3.494v-41.432h6.745v41.432C3.372-1.565 1.862 0 0 0" style="fill:#6a77d7;fill-opacity:1;fill-rule:nonzero;stroke:none" transform="translate(95.082 45.148)"/>
		<path d="M0 0c1.256 1.301 1.256 3.412 0 4.711a3.134 3.134 0 0 1-4.546 0L-16.928-8.158a5.047 5.047 0 0 1-1.41-3.528c0-1.332.5-2.586 1.407-3.525l11.454-13.972h9.084l-14.848 17.496z" style="fill:#6a77d7;fill-opacity:1;fill-rule:nonzero;stroke:none" transform="translate(118.832 29.405)"/>
		<path d="M0 0c-1.863 0-3.373-1.564-3.373-3.494v-42.141h6.745v42.141C3.372-1.564 1.862 0 0 0" style="fill:#6a77d7;fill-opacity:1;fill-rule:nonzero;stroke:none" transform="translate(330.638 45.857)"/>
		<path d="M0 0c1.256 1.301 1.256 3.412 0 4.711a3.134 3.134 0 0 1-4.546 0L-16.928-8.158a5.047 5.047 0 0 1-1.41-3.528c0-1.332.5-2.586 1.407-3.525l11.454-13.972h9.084l-14.848 17.496z" style="fill:#6a77d7;fill-opacity:1;fill-rule:nonzero;stroke:none" transform="translate(354.388 29.405)"/>
		<path d="M0 0c-1.3-1.606-3.376-2.409-6.225-2.409h-4.209c-2.85 0-4.925.803-6.226 2.409-1.301 1.604-1.951 4.244-1.951 7.925s.65 6.334 1.951 7.961c1.301 1.627 3.376 2.44 6.226 2.44h4.209c2.849 0 4.925-.813 6.225-2.44 1.3-1.627 1.952-4.28 1.952-7.961S1.3 1.604 0 0m-5.606 24.873h-5.448c-4.377 0-7.837-1.391-10.377-4.172-2.54-2.782-3.809-7.041-3.809-12.776 0-5.734 1.269-9.992 3.809-12.773 2.54-2.784 6-4.173 10.377-4.173h5.448c4.336 0 7.784 1.389 10.345 4.173C7.3-2.067 8.581 2.191 8.581 7.925c0 5.692-1.281 9.94-3.842 12.743-2.561 2.804-6.009 4.205-10.345 4.205" style="fill:#6a77d7;fill-opacity:1;fill-rule:nonzero;stroke:none" transform="translate(279.652 9.243)"/>
		<path d="M0 0c-2.54-2.781-3.81-7.041-3.81-12.776 0-5.734 1.27-9.992 3.81-12.773 2.54-2.783 5.998-4.173 10.376-4.173h14.446v6.612H10.996c-2.85 0-4.925.803-6.226 2.409-1.302 1.604-1.951 4.244-1.951 7.925 0 3.682.649 6.335 1.951 7.961 1.301 1.627 3.376 2.44 6.226 2.44h13.826v6.547H10.376C5.998 4.172 2.54 2.781 0 0" style="fill:#6a77d7;fill-opacity:1;fill-rule:nonzero;stroke:none" transform="translate(296.836 29.944)"/>
		<path d="M0 0c1.776 2.514 2.677 5.567 2.677 9.067 0 1.968-.294 3.831-.873 5.539-.596 1.755-1.526 3.295-2.764 4.58-1.234 1.279-2.818 2.292-4.709 3.016-1.856.711-4.072 1.072-6.589 1.072h-9.062v-6.929h9.124c1.51 0 2.777-.195 3.769-.581.956-.371 1.732-.87 2.307-1.483a5.59 5.59 0 0 0 1.253-2.198c.285-.92.429-1.933.429-3.016 0-1.081-.144-2.109-.43-3.054a5.821 5.821 0 0 0-1.265-2.266c-.572-.628-1.343-1.134-2.294-1.504-.992-.384-2.259-.581-3.769-.581h-3.981c-1.115 0-1.772-1.25-1.139-2.168l3.276-4.758 10.799-15.678.057-.083h8.648L-6.511-4.456C-3.677-3.604-1.488-2.106 0 0" style="fill:#6a77d7;fill-opacity:1;fill-rule:nonzero;stroke:none" transform="translate(247.627 21.247)"/>
		<path d="M0 0h-11.803c-4.379 0-7.838-1.39-10.377-4.172-2.54-2.781-3.809-7.041-3.809-12.775 0-5.733 1.269-9.994 3.809-12.774 2.539-2.783 5.998-4.172 10.377-4.172h4.49a3.306 3.306 0 1 1 0 6.612h-3.871c-2.85 0-4.925.802-6.226 2.406-1.3 1.604-1.951 4.247-1.951 7.928s.651 6.334 1.951 7.961c1.301 1.626 3.376 2.439 6.226 2.439h8.345A2.838 2.838 0 0 0 0-9.387v-24.506h6.745v27.149A6.744 6.744 0 0 1 0 0" style="fill:#6a77d7;fill-opacity:1;fill-rule:nonzero;stroke:none" transform="translate(202.982 34.115)"/>
		<path d="M0 0h-11.802c-4.379 0-7.838-1.39-10.377-4.172-2.541-2.781-3.81-7.041-3.81-12.775 0-5.733 1.269-9.994 3.81-12.774 2.539-2.783 5.998-4.172 10.377-4.172h4.49a3.306 3.306 0 1 1 0 6.612h-3.871c-2.851 0-4.926.802-6.227 2.406-1.3 1.604-1.95 4.247-1.95 7.928s.65 6.334 1.95 7.961c1.301 1.626 3.376 2.439 6.227 2.439h8.344A2.838 2.838 0 0 0 0-9.387v-24.506h6.745v27.149A6.744 6.744 0 0 1 0 0" style="fill:#6a77d7;fill-opacity:1;fill-rule:nonzero;stroke:none" transform="translate(79.224 34.115)"/>
		<path d="M0 0a3.526 3.526 0 0 1-3.526-3.526v-40.772h7.052v40.772A3.526 3.526 0 0 1 0 0" style="fill:#6a77d7;fill-opacity:1;fill-rule:nonzero;stroke:none" transform="translate(219.034 44.52)"/>
	</g>
</svg>
