<svg xmlns="http://www.w3.org/2000/svg" viewBox="-8.28 -8.28 430.56 116.31" style="isolation:isolate">
	<defs>
		<clipPath id="a">
			<path d="M0 0h414.26v100H0z"/>
		</clipPath>
	</defs>
	<g clip-path="url(#a)">
		<path fill="#4E4B4A" d="M183.46 42h7l1.09 6.06c.052.582.263 1.139.61 1.61.306.306.728.466 1.16.44h2.34v6.49h-4.2c-2.17 0-3.59-.35-4.26-1a5.486 5.486 0 0 1-1.32-2.07 34.188 34.188 0 0 1-.82-3.49l-1.6-8.04zM189 59.84h7.05L194.21 71c-.16.921-.404 1.824-.73 2.7a4.844 4.844 0 0 1-1.48 2.05 4.625 4.625 0 0 1-2.35 1 24.927 24.927 0 0 1-3.3.18h-2.66v-6.51h1.6c.6.045 1.199-.102 1.71-.42.41-.498.649-1.115.68-1.76l1.32-8.4zM183.75 25h7.09l.74 5.78c.17 1.44.8 2.17 1.89 2.17h2.25v6.37H192a15.352 15.352 0 0 1-3-.32 3.668 3.668 0 0 1-2.22-1.21 6.919 6.919 0 0 1-1.14-2 17.058 17.058 0 0 1-.67-3.16L183.75 25zm13.17 36.1h38.42v4.12l-12.92 6.26a8.278 8.278 0 0 0 2.17.28H236v5.06h-11.35a24.031 24.031 0 0 1-7.38-1l-2.22-.71a39.408 39.408 0 0 1-10.87 1.66h-8.23v-5h5.58c3.35 0 5.18 0 5.48-.09l1.38-.23L202.9 68h11.52l1.6.88 5.88-2.74h-25l.02-5.04zm0-14.86h38.16v6.37a14.302 14.302 0 0 1-.24 3 5.062 5.062 0 0 1-1.32 2.23c-.71.78-2.51 1.17-5.38 1.17h-31.22V46.24zm.63-21.44h37v12.46a15.02 15.02 0 0 1-.31 3.29 3.906 3.906 0 0 1-1.1 2.07 4.991 4.991 0 0 1-2.42 1.12c-.892.212-1.804.33-2.72.35h-30.5l.05-19.29zm9.92 29.2v-2.8h-4.12V54h4.12zm-2.63-21.86h22.47v-2.28h-22.47v2.28zm0 6.91h21.21a1.34 1.34 0 0 0 1-.28c.196-.272.288-.606.26-.94v-1.08h-22.47v2.3zM217.9 54v-2.8h-4.4V54h4.4zm10.58-2.8h-4.55V54h2.95a1.63 1.63 0 0 0 1.16-.41c.279-.258.438-.62.44-1V51.2zM295 70.62v6.32h-36.45a9.38 9.38 0 0 1-4.38-.86 6.05 6.05 0 0 1-1.85-1.26l-1.06-1.26a12.366 12.366 0 0 1-1 2 3.24 3.24 0 0 1-1.48 1.29 5.759 5.759 0 0 1-2.3.4h-3.06v-5.57h.83a1.56 1.56 0 0 0 1.35-.68c.332-.464.51-1.02.51-1.59V42.12h-2.88v-6.63h10.2v29.76c0 1.88.44 3.19 1.31 3.93a5.367 5.367 0 0 0 2.32 1.27c1.071.136 2.151.193 3.23.17H295zm-49.36-46H253v8.63h-7.37l.01-8.63zm37.67 2.12 1.77-2.35h7.06v2.35h2.26v5.66h-14.93l-1 3H294v25.3a13.712 13.712 0 0 1-.37 3.12 6.53 6.53 0 0 1-1.42 2.75 4.35 4.35 0 0 1-2.6 1.5 17.32 17.32 0 0 1-3.27.29h-29.79V35.41h13l1-3h-15v-5.69h3.2V24.6h7l2.63 2.12 14.93.02zm-18.75 14.4v3.77h21.64v-3.79l-21.64.02zm0 8.75v3.71h21.64v-3.73l-21.64.02zm0 9.2v3.55h19.58a2.48 2.48 0 0 0 1.64-.39c.35-.493.5-1.101.42-1.7v-1.48l-21.64.02zm38.6 16.64v-6.2h.72c.24 0 .43-.15.55-.47.158-.474.243-.97.25-1.47l.88-21.67h5.69l-.91 23c0 .56-.15 1.38-.33 2.49a8.64 8.64 0 0 1-.9 2.79 2.57 2.57 0 0 1-1.9 1.34 14.59 14.59 0 0 1-2.36.21l-1.69-.02zm16.49 1.52h-6.74V43h-9.58v-6.25h9.58v-3.6h-9.58V26.8h17.44a1.5 1.5 0 0 0 1.2-.36c.22-.352.319-.767.28-1.18v-1h6.89v2.4c0 2-.33 3.48-1 4.33a4.24 4.24 0 0 1-2.4 1.6c-1.251.25-2.525.361-3.8.33h-2.29v3.8h9.09V43h-9.09v34.25zm7.29-31.33.92 21.67c-.007.498.064.994.21 1.47a.61.61 0 0 0 .59.47h.63v6.2h-1.61c-2.11 0-3.47-.41-4.07-1.25a6.435 6.435 0 0 1-1.14-2.66 22.522 22.522 0 0 1-.3-2.92l-.89-23 5.66.02zm2.86-18.6h6.72l1.48 6.77c.094.642.333 1.255.7 1.79a2.559 2.559 0 0 0 1.93.53h2.15v6.14h-3.4a8.704 8.704 0 0 1-5.16-1.13 5.821 5.821 0 0 1-2.22-3.73l-2.2-10.37zm.31 18.35h6.75L338 51.1c.087.645.324 1.262.69 1.8a2.59 2.59 0 0 0 1.94.51h2.15v6.12h-3.4a8.876 8.876 0 0 1-5.16-1.1 5.797 5.797 0 0 1-2.22-3.76l-1.89-9zm.2 19.35 14.15-1.78V24.8h6.83v37.59l4-.52v6.6l-4 .63v7.81h-6.83V70l-14.18 1.57.03-6.55zm32.56-29.44v-6.43h9.83v-4.78h7.6v4.78h3.89v6.43h-3.89v3.91h3.18v7.26h-3.18v23.73c.005.879-.075 1.757-.24 2.62a5.755 5.755 0 0 1-.93 2.22 4.743 4.743 0 0 1-2.51 1.59 12.996 12.996 0 0 1-4.06.6h-8.75V71.1h6.46q2.43 0 2.43-2.91V57.53l-2.23 3.8a14.33 14.33 0 0 1-1.16 1.59c-.366.48-.834.872-1.37 1.15a3.913 3.913 0 0 1-1.67.32h-3.49v-7.58h1.69a1.39 1.39 0 0 0 1.07-.45c.37-.446.683-.936.93-1.46l6.23-12.18v-7.14h-9.83zm22.41 12.86v-6.32h10.09v-6.86h-9.69V29h9.69v-4.83h7.26V29h11.06v6.31h-11.06v6.86h11.06v6.32l-9.92 15.2 3.94 4.92a5.709 5.709 0 0 0 4.72 2.12h1.83v6.43h-4.92c-2.15 0-3.65-.32-4.48-1a13.633 13.633 0 0 1-2.35-2.28L399 69.65l-3.38 4.11a9.27 9.27 0 0 1-3.1 2.62 8.082 8.082 0 0 1-3.44.73h-5.29v-6.43H386a5.338 5.338 0 0 0 2.17-.53 4.77 4.77 0 0 0 1.81-1.33l4.43-5.69L386 50.87h8.32l4.68 5.94 5.51-8.37h-19.23zm-199.8 37.64h5.44l4.21 9.17 4.11-9.19h5.4v13.79h-3.19V89.74h-.25l-4.81 10.11h-2.76l-4.73-10.11h-.25v10.12h-3.17V86.08zm27.88-.22h4.78l6.42 14H221l-1.28-2.77h-7.82l-1.23 2.77H207l6.36-14zm-.28 8.57h5.44l-2.7-5.92-2.74 5.92zM226.75 86h5.32l6.8 10h.47V86h3.19v13.83h-5.45L230.43 90h-.49v9.81h-3.19V86zm18.43 0h11.16a4.586 4.586 0 0 1 1.82.36c.487.189.919.494 1.26.89.321.453.564.957.72 1.49.187.524.292 1.074.31 1.63v4.6a8.739 8.739 0 0 1-.27 2.26 4.428 4.428 0 0 1-.67 1.52 3.3 3.3 0 0 1-1.05.85 4.595 4.595 0 0 1-2.06.34h-11.22V86zm3.16 3.18v7.6h7c.393.02.777-.117 1.07-.38a2.27 2.27 0 0 0 .5-.64c.097-.48.127-.972.09-1.46v-3.62a2.142 2.142 0 0 0-.41-1 1.412 1.412 0 0 0-1.22-.5h-7.03zM269 85.86h4.79l6.41 14h-3.57l-1.27-2.77h-7.83l-1.23 2.77h-3.62l6.32-14zm-.27 8.57h5.43l-2.7-5.92-2.73 5.92zm13.63-3.96a6.068 6.068 0 0 1 .25-1.65c.131-.505.336-.987.61-1.43a3.453 3.453 0 0 1 1.08-1 3.745 3.745 0 0 1 2-.45h7.15a4.267 4.267 0 0 1 2.36.5 3.99 3.99 0 0 1 1.08 1.06c.265.419.461.878.58 1.36.161.654.235 1.327.22 2v3.64a17.17 17.17 0 0 1-.13 2.09 3.375 3.375 0 0 1-.53 1.61c-.24.308-.519.583-.83.82a5.514 5.514 0 0 1-1 .54 4.997 4.997 0 0 1-1.76.23h-7.12a4.415 4.415 0 0 1-1.53-.32 4.067 4.067 0 0 1-1.56-1.09 2.519 2.519 0 0 1-.73-1.73l-.19-2.32.05-3.86zm5.51-1.41c-.381.007-.76.057-1.13.15a1.447 1.447 0 0 0-.68.4 1.786 1.786 0 0 0-.38.69 3.38 3.38 0 0 0-.13 1v3c-.022.481.028.964.15 1.43.069.239.205.454.39.62.184.133.396.222.62.26.399.073.805.103 1.21.09h4.21a9.044 9.044 0 0 0 1-.08c.292-.009.578-.091.83-.24.185-.198.319-.438.39-.7a3.74 3.74 0 0 0 .2-1.28v-3.1a2.794 2.794 0 0 0-.17-1 1.778 1.778 0 0 0-.41-.67 1.887 1.887 0 0 0-.82-.41 4.109 4.109 0 0 0-1.08-.15l-4.2-.01zM364.7 86v3.1h-5.17v10.75h-3.15V89.1h-5.05V86h13.37zm2.54 0h12.67v3h-9.5v2.7h8.93v2.62h-8.93V97h9.5v2.9h-12.67V86zm26.18 4.91c0-.29-.06-.54-.1-.76a1.547 1.547 0 0 0-.32-.66 1.502 1.502 0 0 0-1.16-.34h-4a5.783 5.783 0 0 0-1.13.09c-.224.031-.439.11-.63.23a1.334 1.334 0 0 0-.38.55 2.906 2.906 0 0 0-.18 1.15v3.34a3.32 3.32 0 0 0 .19 1.34c.088.213.221.404.39.56.189.122.399.207.62.25.359.068.725.098 1.09.09h3.85c.9 0 1.43-.11 1.58-.33.139-.19.222-.415.24-.65l.06-1.08h3.4l-.09 2.7a1.912 1.912 0 0 1-.31 1 2.318 2.318 0 0 1-.81.74 5.333 5.333 0 0 1-1.32.51c-.492.135-1 .206-1.51.21h-6.2a5.738 5.738 0 0 1-1.16-.14 10.48 10.48 0 0 1-1.17-.32 3.368 3.368 0 0 1-.92-.5 3.169 3.169 0 0 1-.74-1 3.547 3.547 0 0 1-.36-1.66v-6.71a4.64 4.64 0 0 1 .08-.88c.059-.322.185-.629.37-.9.238-.322.521-.608.84-.85a3.694 3.694 0 0 1 1.35-.64c.444-.12.9-.187 1.36-.2h6.59c.415-.002.828.048 1.23.15.378.095.746.226 1.1.39.373.17.693.436.93.77.314.504.481 1.086.48 1.68l.11 1.87h-3.37zm6.11-5.02h3.19v5.35h8.35v-5.36h3.19v14h-3.19v-5.5h-8.35v5.46h-3.19V85.89zm-75.38.25v2.96h-8.7v2.93h8.23v3h-8.23v4.56h-3.11V86.14h11.81zm2.98.02h3.09v13.4h-3.09zm6.24-.08h5.19l6.64 9.8.46-.01v-9.8h3.11v13.54h-5.32l-6.49-9.6h-.48v9.58l-3.11.02V86.08z"/>
		<path fill="#0065B3" d="M41.76.26 2.09 95.02 0 100l4.13-.02 37.57-.15 20.75-49.56L41.76.26z"/>
		<path fill="#0C8ACC" d="m83.62 0 21.15 51.21L83.03 99.3 62.45 50.27 83.62 0z"/>
		<path fill="#11ACE4" d="M125.55.24 83.62 0l21.15 51.21 41.74-.63L125.55.24z"/>
		<path fill="#6ABFEC" d="m146.51 50.58-41.74.63 20.24 48.6 21.5-49.23zm3.95 7.43-18.27 41.83 12.86.06 11.37-27.25-5.96-14.64zm15.25 38.83-2.82-6.92-4.16-10.21-8.44 20.22 6.63.02 6.61.03 3.47.02-1.29-3.16z"/>
	</g>
</svg>
