<svg xmlns="http://www.w3.org/2000/svg" width="200" height="128">
    <path fill="#c8102e" d="M20 36.686h160v54.629H20z"/>
    <path d="M167.9 77.333v-.02a.485.485 0 0 0 .387-.444.533.533 0 0 0-.182-.411 1.189 1.189 0 0 0-.651-.138 3.925 3.925 0 0 0-.71.058v1.862h.431v-.748h.2c.242 0 .353.091.386.3a1.637 1.637 0 0 0 .149.444h.466a1.611 1.611 0 0 1-.138-.464.546.546 0 0 0-.338-.439zm-.515-.136h-.2v-.533a1.037 1.037 0 0 1 .242-.026c.269 0 .4.115.4.284s-.2.278-.442.278z" fill="#fff"/>
    <path d="M167.472 75.415a1.906 1.906 0 1 0 .007 0zm0 3.349a1.489 1.489 0 1 1 1.421-1.554v.078a1.427 1.427 0 0 1-1.378 1.475zM122.583 48.9h-9.389c-3.789 0-4.646 1.181-4.646 4.362v21.764L97.256 52.239c-1.347-2.5-2.639-3.751-4.625-3.729-2.142.026-3.383 1.276-4.44 3.729l-11.245 22.7-5.809-22.7c-.666-2.628-2.424-3.729-4.439-3.729s-3.552 1.039-4.475 3.729l-7.034 22.812-6.915-22.812c-.856-2.69-2.441-3.729-4.468-3.729s-3.744 1.1-4.41 3.729l-6.944 27.116h4.626l6.737-26.415 7.028 23.16a4.437 4.437 0 0 0 4.357 3.421 4.531 4.531 0 0 0 4.4-3.423l7.1-23.229 5.807 22.621c.666 2.813 2.328 4.038 4.4 4.038 1.96 0 3.367-1.481 4.39-3.423l11.36-22.956 5.265 10.53h-7.709l-2.219 4.415h12.09l4.04 8.018c1.314 2.386 2.171 3.423 4.559 3.423 2.442 0 4.413-.962 4.413-6.3l.018-19.866h9.767c5.38 0 6.381 2.774 6.381 4.978s-1.11 5.285-6.483 5.31h-7.248v4.366l6.935.013c8.5 0 11.68-4.011 11.68-9.7S130.9 48.9 122.583 48.9zM162.571 58.4c0-5.691-3.239-9.487-11.625-9.487h-13.278a2.232 2.232 0 1 0 0 4.459H151.2c5.383 0 6.484 2.824 6.484 5.028s-1.11 5.076-6.484 5.076l-14.559.051.051 15.8h4.517l-.037-11.441h9.174l8.011 11.385h5.453l-8.321-11.835c4.658-.982 7.082-4.627 7.082-9.036z" fill="#fff"/>
</svg>
