<svg xmlns="http://www.w3.org/2000/svg" width="200" height="128">
    <path d="M116.648 57.456L114.758 66l1.92-8.54zm0 0L114.758 66l1.92-8.54zm-46.2.16h-.01m46.21-.16L114.758 66l1.92-8.54zm-8.76-3.82a4.434 4.434 0 0 0-4.07 3.35l-2.11 9.48 2.11-9.44a4.4 4.4 0 0 1 4.07-3.36h9.6l.01-.03zm8.76 3.82L114.758 66l1.92-8.54zm0 0L114.758 66l1.92-8.54zm0 0L114.758 66l1.92-8.54zm0 0L114.758 66l1.92-8.54z" fill="none"/>
    <path d="M107.888 53.636a4.434 4.434 0 0 0-4.07 3.35l-2.11 9.48 2.11-9.44a4.4 4.4 0 0 1 4.07-3.36h9.6l.01-.03zM116.648 57.456L114.758 66l1.92-8.54z" fill-rule="evenodd"/>
    <path d="M179.308 53.856c-1-1.28-2.36-1.37-3.82-1.37h-31.75a5.943 5.943 0 0 0-2.89.84 4.334 4.334 0 0 0-2.73-.84h-14.54c.4-1.77.81-3.57 1.18-5.34h-9.38c-.37 1.74-.78 3.48-1.15 5.22h-8.26a6.12 6.12 0 0 0-3.2.96 4.6 4.6 0 0 0-2.74-.84h-27.24c.41-1.8.84-3.6 1.24-5.44h-9.38c-1.8 8.05-3.6 16.13-5.4 24.17H68.6c.93-4.13 1.86-8.26 2.83-12.36h3.16c.38 0 .31.22.25.5-.9 3.94-1.77 7.92-2.67 11.86h62.1a5.763 5.763 0 0 0 2.82-.71 4.493 4.493 0 0 0 2.89.8l14.38-.12c-.37 1.77-.77 3.57-1.15 5.37h9.39c.37-1.77.77-3.51 1.15-5.28 2.67 0 5.43.03 8.1.03a6.154 6.154 0 0 0 3.48-1.08 5.946 5.946 0 0 0 2.52-3.7c.59-2.67 1.18-5.37 1.77-8.04.338-1.53.78-3.27-.312-4.63zm-103.19 15.96l2.33-10.46a1.493 1.493 0 0 0 .01-.63 1.055 1.055 0 0 0-.06-.24 1.337 1.337 0 0 0-1.32-.91h-6.62l-.01.04-2.72 12.2h-4.54l4.76-21.55 4.53-.04-1.21 5.53h9.57a2.7 2.7 0 0 1 2.64 3.39l-2.83 12.67zm8.82 0a2.607 2.607 0 0 1-2.61-3.35l.74-3.26a4.432 4.432 0 0 1 4.07-3.36H97.7l.16-.71a1.391 1.391 0 0 0-1.3-1.71H84.318l.84-3.79h15.18a2.6 2.6 0 0 1 2.55 3.35l-2.86 12.83zm19.38 0c-2.85 0-2.73-2.81-2.61-3.35l2.11-9.48a4.434 4.434 0 0 1 4.07-3.35h9.61l1.2-5.37h4.51l-1.18 5.4-3.58 16.15zm30.23.16h-11.78a2.62 2.62 0 0 1-2.61-3.36l2.12-9.47a4.388 4.388 0 0 1 4.06-3.36h11.78a2.623 2.623 0 0 1 2.61 3.36l-2.12 9.47a4.411 4.411 0 0 1-4.06 3.36zm19.41 0h-11.77a2.611 2.611 0 0 1-2.61-3.36l2.11-9.47a4.4 4.4 0 0 1 4.07-3.36h11.77a2.615 2.615 0 0 1 2.61 3.36l-2.11 9.47a4.422 4.422 0 0 1-4.07 3.36zm24.66-12.86l-2.11 9.47a4.014 4.014 0 0 1-.79 1.65 3.472 3.472 0 0 1-.41.45 3.8 3.8 0 0 1-.62.52 4.663 4.663 0 0 1-.93.5 3.777 3.777 0 0 1-1.35.27h-9.58l-1.2 5.37H157.1l1.18-5.4.62-2.86 2.95-13.3 14.17-.03a2.623 2.623 0 0 1 2.598 3.36z" fill-rule="evenodd"/>
    <path d="M176.018 53.756l-14.17.03-2.95 13.3-.62 2.86-1.18 5.4h4.53l1.2-5.37h9.58a3.777 3.777 0 0 0 1.35-.27 4.663 4.663 0 0 0 .93-.5 3.8 3.8 0 0 0 .62-.52 3.472 3.472 0 0 0 .41-.45 4.014 4.014 0 0 0 .79-1.65l2.11-9.47a2.623 2.623 0 0 0-2.6-3.36zm-2.49 5.6l-1.12 5a2.355 2.355 0 0 1-2.17 1.77h-6.62l1.93-8.55h6.61a1.383 1.383 0 0 1 1.37 1.78z" fill="#6cf" fill-rule="evenodd"/>
    <path d="M172.158 57.576h-6.61l-1.93 8.55h6.62a2.355 2.355 0 0 0 2.17-1.77l1.12-5a1.383 1.383 0 0 0-1.37-1.78zm-2.39 1.93l-1.02 4.66c-.1.43-.22.65-.72.65h-2.76c.43-1.95.87-3.88 1.27-5.84h2.7c.41 0 .62.1.53.53z" fill-rule="evenodd"/>
    <path d="M157.528 53.786h-11.77a4.4 4.4 0 0 0-4.07 3.36l-2.11 9.47a2.611 2.611 0 0 0 2.61 3.36h11.77a4.422 4.422 0 0 0 4.07-3.36l2.11-9.47a2.615 2.615 0 0 0-2.61-3.36zm-2.45 5.57l-1.12 5a2.355 2.355 0 0 1-2.17 1.77h-5.81a1.379 1.379 0 0 1-1.37-1.77l1.12-5a2.353 2.353 0 0 1 2.17-1.78h5.81a1.388 1.388 0 0 1 1.37 1.78z" fill="#6cf" fill-rule="evenodd"/>
    <path d="M153.708 57.576H147.9a2.353 2.353 0 0 0-2.17 1.78l-1.12 5a1.379 1.379 0 0 0 1.37 1.77h5.81a2.355 2.355 0 0 0 2.17-1.77l1.12-5a1.388 1.388 0 0 0-1.372-1.78zm-2.39 2.12c-.34 1.52-.68 3.04-1.03 4.56-.12.53-.43.53-.9.53h-3.01c-.43 0-.43-.25-.37-.62.34-1.52.68-3.04 1.02-4.57.16-.56.38-.65.9-.65h2.95c.56 0 .53.31.44.754z" fill-rule="evenodd"/>
    <path d="M138.118 53.786h-11.78a4.388 4.388 0 0 0-4.06 3.36l-2.12 9.47a2.62 2.62 0 0 0 2.61 3.36h11.78a4.411 4.411 0 0 0 4.06-3.36l2.12-9.47a2.623 2.623 0 0 0-2.61-3.36zm-2.46 5.57l-1.11 5a2.357 2.357 0 0 1-2.18 1.77h-5.81a1.377 1.377 0 0 1-1.36-1.77l1.11-5a2.394 2.394 0 0 1 2.18-1.78h5.81a1.382 1.382 0 0 1 1.36 1.78z" fill="#6cf" fill-rule="evenodd"/>
    <path d="M134.3 57.576h-5.81a2.394 2.394 0 0 0-2.18 1.78l-1.11 5a1.377 1.377 0 0 0 1.36 1.77h5.81a2.357 2.357 0 0 0 2.18-1.77l1.11-5a1.382 1.382 0 0 0-1.36-1.78zm-2.39 2.12c-.35 1.52-.69 3.04-1.03 4.56-.12.53-.43.53-.9.53h-3.01c-.44 0-.44-.25-.38-.62.35-1.52.69-3.04 1.03-4.57.12-.56.34-.65.9-.65h2.95c.558 0 .53.31.438.754z" fill-rule="evenodd"/>
    <path d="M118.7 48.266l-1.2 5.37-.01.03h-9.6a4.4 4.4 0 0 0-4.07 3.36l-2.11 9.44c-.12.54-.24 3.35 2.61 3.35h14.13l3.58-16.15 1.18-5.4zM114.758 66h-6.62a1.432 1.432 0 0 1-1.36-1.74v-.03l1.11-5a2.351 2.351 0 0 1 2.15-1.77h6.64zM100.338 53.636h-15.18l-.84 3.79h12.24a1.391 1.391 0 0 1 1.3 1.71l-.16.71h-10.56a4.432 4.432 0 0 0-4.07 3.36l-.74 3.26a2.607 2.607 0 0 0 2.61 3.35h15.09l2.86-12.83a2.6 2.6 0 0 0-2.55-3.35zm-4 12.36h-8.05a.882.882 0 0 1-.93-.91 1.241 1.241 0 0 1 .03-.27 1.533 1.533 0 0 1 1.43-1.18h8.05z" fill="#6cf" fill-rule="evenodd"/>
    <path d="M96.868 63.636L96.338 66h-8.05a.882.882 0 0 1-.93-.91 1.241 1.241 0 0 1 .03-.27 1.533 1.533 0 0 1 1.43-1.18z" fill-rule="evenodd"/>
    <path d="M83.478 57.146l-2.83 12.67h-4.53l2.33-10.46a1.493 1.493 0 0 0 .01-.63 1.055 1.055 0 0 0-.06-.24 1.337 1.337 0 0 0-1.32-.91h-6.62l-.01.04-2.72 12.2h-4.54l4.76-21.55 4.53-.04-1.21 5.53h9.57a2.7 2.7 0 0 1 2.64 3.39z" fill="#6cf" fill-rule="evenodd"/>
    <path d="M110.038 57.456a2.351 2.351 0 0 0-2.15 1.77l-1.11 5v.03a1.432 1.432 0 0 0 1.36 1.74h6.62l1.89-8.54zm1.33 7.21h-2.7c-.4 0-.62-.1-.53-.53.34-1.55.69-3.11 1.03-4.66.09-.44.21-.65.71-.65h2.77c-.44 1.95-.87 3.88-1.28 5.84z" fill-rule="evenodd"/>
    <g>
        <path d="M25.016 59.906c-.186.5-.372 1.025-.559 1.522-.466.466-.932.9-1.366 1.367-.5.5-.622.5-.5 1.211a4.306 4.306 0 0 0 1.273 2.423c.777.777 2.392 1.864 3.541 1.336a6.23 6.23 0 0 1-.435 1.211c-.776 1.709 1.119 2.051 2.454 2.423 1.119.311 3.821 1.088 4.225-.372a3.74 3.74 0 0 0 .155-1.647 5.572 5.572 0 0 1 .746-1.3 1.656 1.656 0 0 0 .279-1.523c-.031-.124-.031-.279-.062-.434a14.8 14.8 0 0 0 3.883.031c-.4.217-.776.434-1.3.683-1.243.621-.063 2.485.466 3.324 1.118 1.708 2.112 2.889 4.007 1.864.621-.342.683-.715 1.087-1.305.217-.124 1.336-1.087 2.019-1.615.248.31.746.372 1.46.4.373.032 1.833.032 2.205.032 1.15 0 1.833-.125 1.926-1.367a1.627 1.627 0 0 0-.279-1.243c-.031-.652-.031-1.3-.062-1.957a4.616 4.616 0 0 0-.466-1.895c-.28-.621-.4-1.149-.715-1.77l.093-.746c.4.373.777.746 1.181 1.119a3.164 3.164 0 0 0 2.516 1.242 3.4 3.4 0 0 0 2.889-2.143c.124-.373.217-.777.342-1.15a8.73 8.73 0 0 0 5.436-.559c2.3-1.211 3.354-3.665 3.634-6.275a15.688 15.688 0 0 0-1.211-7.548c-.28-.559-1.616-1.274-2.206-.683-.435.435-.745 1.118-1.211 1.522a4.5 4.5 0 0 1-1.212.621 6.826 6.826 0 0 0-1.3-2.143 4.841 4.841 0 0 0-1.4-1.119 27.947 27.947 0 0 1-3.013-2.454c-3.107-2.547-5.778-2.485-9.63-.838a8.614 8.614 0 0 0-3.852 3.355 2.549 2.549 0 0 0-1.864.807c-.528.466-1.025.963-1.522 1.46-3.6.59-5.871 1.274-8.232 3.355a9.308 9.308 0 0 0-2.2 2.889 4.77 4.77 0 0 1-1.677 1.4c-.466.186-.466.186-.622-.249.559-.435.559-1.211.59-1.926.342.031.5.4.715.715.155-.622.217-1.616-.435-1.957.124-.28.217-.59.342-.9-.994.186-4.38 2.454-2.579 4.193a6.348 6.348 0 0 0 .373 1.15 1.586 1.586 0 0 0 2.144.683 11.576 11.576 0 0 0-.125 3.7 3.342 3.342 0 0 0 .062 1.087" fill-rule="evenodd"/>
        <path d="M25.234 59.968c-.062.217-.155.4-.218.621l-.434-.155c.062-.217.155-.4.217-.621zm-.218.621c-.124.311-.217.59-.341.9l-.435-.155c.124-.311.217-.59.342-.9zm-.341.9l-.062.093-.156-.155c0-.027.218.063.218.063zm-.031.093c-.249.249-.5.5-.746.715l-.31-.311c.248-.248.5-.5.745-.714zm-.744.718l-.652.652-.311-.311.653-.652zm-.652.652l-.155.155-.311-.341.155-.156zm-.155.155c-.28.28-.342.342-.28.839l-.466.062c-.124-.745-.031-.838.4-1.242zm-.28.839a4.608 4.608 0 0 0 .4 1.212l-.4.217a4.439 4.439 0 0 1-.466-1.367zm.435 1.212a4.232 4.232 0 0 0 .776 1.056l-.31.31a4.978 4.978 0 0 1-.87-1.18 2.346 2.346 0 0 0 .402-.188zm.776 1.087a5.582 5.582 0 0 0 1.864 1.242l-.155.435a6.165 6.165 0 0 1-2.019-1.336zm1.864 1.211a1.985 1.985 0 0 0 1.46.062l.187.4a2.277 2.277 0 0 1-1.8-.062c-.004.033.151-.402.151-.402zm1.429.093l.435-.186-.124.466-.218-.062zm.342.249c-.062.217-.124.435-.187.621l-.465-.124c.062-.217.124-.4.186-.59a2.481 2.481 0 0 1 .464.095zm-.218.652a4.718 4.718 0 0 1-.248.59l-.4-.186a4.3 4.3 0 0 0 .218-.559zm-.248.59a1.075 1.075 0 0 0 .652 1.585l-.186.4a1.448 1.448 0 0 1-.87-2.175zm.652 1.585a9.747 9.747 0 0 0 1.336.435l-.124.434a7.7 7.7 0 0 1-1.429-.465 2.571 2.571 0 0 0 .215-.406zm1.336.435a1.977 1.977 0 0 1 .311.093l-.125.435a3.5 3.5 0 0 1-.31-.094zm.311.062a12.83 12.83 0 0 0 2.329.466l-.031.466a12.751 12.751 0 0 1-2.423-.5zm2.329.5c.777.062 1.46-.093 1.616-.653l.434.125c-.248.869-1.118 1.056-2.081.994zm1.616-.684a4.863 4.863 0 0 0 .155-.776l.466.031a5.806 5.806 0 0 1-.155.87zm.155-.776a3.387 3.387 0 0 0-.031-.777l.466-.031c.031.342.031.59.031.839zm-.031-.777l.031-.124.217.093zm.031-.093a7.679 7.679 0 0 1 .652-1.211l.373.248a6.224 6.224 0 0 0-.621 1.118 2.161 2.161 0 0 1-.406-.16zm.652-1.211c.031-.032.031-.063.093-.156l.373.249c0 .031-.062.093-.093.155zm.093-.156a1.324 1.324 0 0 0 .28-.621l.466.062a1.74 1.74 0 0 1-.342.808zm.28-.621a3.276 3.276 0 0 0-.031-.746l.466-.062a4.351 4.351 0 0 1 .031.87zm-.031-.746c0-.093-.031-.155-.031-.217l.466-.062a1.748 1.748 0 0 0 .031.217zm-.031-.217a1.748 1.748 0 0 1-.031-.217l.466-.063c0 .063.031.125.031.249a2.356 2.356 0 0 0-.468.026zm-.031-.217l-.031-.311.31.031-.031.217zm.279-.249a13.454 13.454 0 0 0 1.926.155v.466a14.7 14.7 0 0 1-1.988-.155zm1.895.124a12.971 12.971 0 0 0 1.9-.124l.062.466a13.818 13.818 0 0 1-1.957.124zm1.9-.093l.155.435-.124-.217zm.155.4c-.372.217-.745.4-1.211.652l-.218-.4c.466-.248.839-.434 1.181-.621l.248.373zm-1.211.652c-.031.031-.062.031-.093.062l-.218-.4c.031-.032.062-.032.093-.063zm-.093.062c-.5.249-.5.777-.311 1.3l-.435.124c-.248-.745-.217-1.491.559-1.864zm-.342 1.3A6.484 6.484 0 0 0 37.97 70l-.373.249a8.534 8.534 0 0 1-.932-1.771zM37.97 70a5.964 5.964 0 0 0 1.646 1.9l-.248.4a6.205 6.205 0 0 1-1.768-2.05zm1.646 1.9a1.9 1.9 0 0 0 2.05-.093l.218.4a2.38 2.38 0 0 1-2.516.093zm2.05-.093a1.7 1.7 0 0 0 .715-.776l.4.217a2.041 2.041 0 0 1-.9.963zm.715-.776a2.462 2.462 0 0 1 .279-.435l.373.248c-.093.155-.186.28-.248.4zm.279-.435l.094-.062.124.186a1.362 1.362 0 0 1-.218-.128zm.094-.094c.124-.062.714-.559 1.273-.994l.28.342c-.559.466-1.181.963-1.336 1.056zM44 69.5c.28-.248.559-.466.715-.59l.279.373c-.279.217-.5.4-.714.59.027-.027-.28-.373-.28-.373zm.715-.59l.186-.155.155.186-.186.156zm.341.031a.649.649 0 0 0 .435.218l-.093.435a1.225 1.225 0 0 1-.683-.373zm.435.218a3.39 3.39 0 0 0 .87.093l-.031.466a7.324 7.324 0 0 1-.963-.124zm.87.124c.279.031 1.18.031 1.771.031v.466c-.591 0-1.523 0-1.8-.031zm1.739 0h.435v.466H48.1v-.466zm.435.031a2.759 2.759 0 0 0 1.243-.186l.217.4a3 3 0 0 1-1.491.248l.031-.466zm1.274-.186a1.187 1.187 0 0 0 .466-.963l.466.031a1.49 1.49 0 0 1-.684 1.336zm.435-.994a1.844 1.844 0 0 0 0-.591l.435-.093a4.627 4.627 0 0 1 .031.715zm0-.591a1.522 1.522 0 0 0-.249-.528l.4-.217a2.154 2.154 0 0 1 .28.652l-.435.093zm-.249-.528l-.031-.093h.218zm-.031-.093c0-.342-.031-.652-.031-.994h.467c0 .342.031.652.031.994zm-.031-.994c0-.342-.031-.652-.031-.994h.466c0 .342.031.652.031.994zm0-.963a3.96 3.96 0 0 0-.124-.9l.435-.124a3.441 3.441 0 0 1 .124 1.025zm-.124-.932a7.742 7.742 0 0 0-.311-.9l.435-.186a7.244 7.244 0 0 1 .342.963zm-.311-.9c-.093-.248-.186-.465-.279-.683l.435-.155c.093.217.155.435.248.683zm.156-.838l-.218.093zm-.435.155a9.747 9.747 0 0 0-.439-1.05l.4-.218a8.706 8.706 0 0 1 .47 1.118zm-.439-1.05l-.031-.155.217.031zm-.031-.155c.031-.125.031-.249.062-.342l.466.062c-.031.124-.031.28-.062.373l-.466-.093zm.062-.342c0-.093.031-.218.031-.373l.466.031c0 .093-.031.249-.031.373l-.466-.031zm.031-.373l.031-.466.342.342-.156.155zm.373-.155c.217.217.435.435.683.652l-.311.342a13.024 13.024 0 0 0-.683-.652zm.683.652l.5.5-.311.342-.5-.5.311-.342zm.5.5a6.516 6.516 0 0 0 1.056.87l-.217.4a6.539 6.539 0 0 1-1.15-.963l.311-.311zm1.087.87a2.055 2.055 0 0 0 1.274.311l.031.466a2.648 2.648 0 0 1-1.522-.373zm1.243.311a3.329 3.329 0 0 0 1.677-.653l.28.373a3.5 3.5 0 0 1-1.926.714zm1.672-.628a2.686 2.686 0 0 0 1.025-1.335l.435.124a3.245 3.245 0 0 1-1.18 1.584zm1.025-1.335c.062-.187.094-.342.156-.528l.435.124c-.063.186-.094.341-.156.528zm.156-.528c.062-.218.124-.4.186-.622l.435.125c-.062.217-.124.4-.186.621zm.186-.622l.062-.186.187.031-.031.217zm.249-.155a9.17 9.17 0 0 0 2.92.124l.031.466a11.046 11.046 0 0 1-3.045-.155zm2.92.124a6.852 6.852 0 0 0 2.391-.683l.218.4A6.951 6.951 0 0 1 59 60.03zm2.391-.683a6.08 6.08 0 0 0 2.361-2.33l.4.218a6.218 6.218 0 0 1-2.547 2.516zm2.361-2.33l.187.124-.187-.124zm0 0a9.655 9.655 0 0 0 1.15-3.759l.465.031a10.433 10.433 0 0 1-1.18 3.946zm1.15-3.759a15.266 15.266 0 0 0-.187-4.038l.466-.062a16.151 16.151 0 0 1 .186 4.163l-.465-.063zm-.187-4.038a11.792 11.792 0 0 0-.994-3.386l.4-.217a11.056 11.056 0 0 1 1.025 3.541zm-.994-3.417a.581.581 0 0 0-.186-.217l.31-.342a1.176 1.176 0 0 1 .249.342l-.373.217zm-.186-.217a2.153 2.153 0 0 0-.777-.466l.155-.435a2.516 2.516 0 0 1 .963.59l-.341.311zm-.777-.466a1.126 1.126 0 0 0-.776-.031l-.218-.4a1.4 1.4 0 0 1 1.118 0l-.124.435zm-.776-.031c-.031.031-.094.062-.125.093l-.341-.311a1.72 1.72 0 0 1 .248-.186l.218.4zm-.125.093a6.685 6.685 0 0 0-.528.683l-.373-.248a6.69 6.69 0 0 1 .56-.746zm-.5.683a4.82 4.82 0 0 1-.714.87l-.311-.342a3.761 3.761 0 0 0 .621-.776l.4.248zm-.714.87a3.531 3.531 0 0 1-1.118.59l-.156-.435a3.044 3.044 0 0 0 .995-.524l.28.373zm-1.118.59a.538.538 0 0 1-.156.062l-.186-.434a.443.443 0 0 1 .186-.063zm-.187.062l-.217.094-.093-.218.217-.093.093.217zM59 46.8a9.006 9.006 0 0 0-.528-1.087l.372-.249a7 7 0 0 1 .591 1.181L59 46.8zm-.56-1.087a10.854 10.854 0 0 0-.714-.963l.342-.28a7.849 7.849 0 0 1 .745 1.026zm-.714-.963a3.629 3.629 0 0 0-.621-.59l.279-.373a3.368 3.368 0 0 1 .684.652l-.342.311zm-.621-.59c-.218-.155-.466-.311-.746-.5l.249-.373c.279.186.528.342.776.528l-.279.342zm-.715-.5a16.439 16.439 0 0 1-2.143-1.678l.311-.341a20.968 20.968 0 0 0 2.081 1.646zm-2.174-1.678c-.28-.248-.59-.5-.9-.776l.28-.342c.31.249.621.528.9.777l-.279.341zm-.9-.776a7.626 7.626 0 0 0-4.416-1.957l.031-.466a7.96 7.96 0 0 1 4.66 2.05l-.28.373zm-4.38-1.957a11.132 11.132 0 0 0-5 1.118l-.186-.435a11.166 11.166 0 0 1 5.218-1.149zm-5 1.118a6.692 6.692 0 0 0-2.143 1.367l-.311-.342a7.675 7.675 0 0 1 2.268-1.429zm-2.143 1.367a12.9 12.9 0 0 0-1.647 1.926l-.373-.28a12.224 12.224 0 0 1 1.709-1.988zm-1.649 1.926l-.062.093h-.093v-.217zm-.155.093a3.366 3.366 0 0 0-.839.155l-.155-.435a2.58 2.58 0 0 1 .994-.186zm-.87.155a2.625 2.625 0 0 0-.9.591l-.31-.342a4.174 4.174 0 0 1 1.025-.684zm-.87.591a15.74 15.74 0 0 0-.776.714l-.311-.342a8.482 8.482 0 0 1 .777-.714zm-.776.683l-.156-.155.156.155zm0 .031c-.249.248-.5.5-.715.745l-.341-.31.745-.746zm-.715.714l-.124.063-.031-.218.155.155zm-.155.063a22.051 22.051 0 0 0-4.535 1.087l-.156-.435a21.046 21.046 0 0 1 4.629-1.118c0 .031.059.466.059.466zm-4.535 1.118a11.492 11.492 0 0 0-3.568 2.205l-.311-.341a11.889 11.889 0 0 1 3.727-2.3zM28.5 49.313a10.082 10.082 0 0 0-1.243 1.336l-.373-.28a9.187 9.187 0 0 1 1.3-1.4zm-1.243 1.336a12.077 12.077 0 0 0-.932 1.491l-.4-.217a9.994 9.994 0 0 1 .963-1.554zm-.932 1.46l-.031.062-.155-.155zm-.031.062a10.159 10.159 0 0 1-.808.839l-.31-.342a9.54 9.54 0 0 0 .776-.807zm-.777.839a3.2 3.2 0 0 1-.962.621L24.4 53.2a2.931 2.931 0 0 0 .839-.528zm-.994.621l-.093-.217zm0 0c-.279.124-.434.155-.59.093l.187-.435s.093-.031.248-.093zm-.59.093l.093-.217-.093.217zm0 0c-.186-.062-.217-.217-.31-.5l.434-.155a.61.61 0 0 1 .063.248zm-.341-.5l-.063-.155.125-.093.124.186c.027-.028-.19.065-.19.065zm.093-.248c.435-.311.466-.932.5-1.553l.466.031a2.292 2.292 0 0 1-.684 1.895 3.771 3.771 0 0 0-.286-.37zm.5-1.553v-.218l.466.031v.218zm0-.218l.031-.217h.217v.217zm.248-.217a.99.99 0 0 1 .746.559l-.379.253c-.124-.186-.217-.341-.373-.372v-.435zm.746.559c.062.093.093.155.155.248l-.373.28-.186-.28.4-.248zm.186.435l-.093.466-.311-.373.187-.155zm-.435-.093a3.71 3.71 0 0 0 .062-1.181l.435-.093a3.342 3.342 0 0 1-.062 1.367zm.062-1.181a.8.8 0 0 0-.372-.559l.217-.4a1.284 1.284 0 0 1 .621.87l-.466.093zm-.372-.559l-.187-.093.062-.187.218.094zm-.125-.28c.031-.093.094-.217.125-.341l.435.155c-.032.093-.094.218-.125.342zm.125-.341a6.63 6.63 0 0 1 .217-.559l.435.155c-.062.186-.155.373-.217.559zm.4-.715l.373-.062-.124.373-.217-.062-.032-.249zm.063.466a4.991 4.991 0 0 0-2.144 1.367l-.341-.311a5.543 5.543 0 0 1 2.391-1.491c.027-.028.09.438.09.438zm-2.113 1.367a4.865 4.865 0 0 0-.621.839l-.4-.187a3.434 3.434 0 0 1 .684-.963zm-.621.839a1.616 1.616 0 0 0-.155.838l-.466.063a1.8 1.8 0 0 1 .186-1.119zm-.155.838a1.344 1.344 0 0 0 .435.746l-.311.342a1.715 1.715 0 0 1-.559-.994zm.435.746l.062.124-.218.062zm.062.124c.062.249.124.435.155.622l-.435.124a8.46 8.46 0 0 1-.186-.653zm.186.622c.062.186.124.341.186.5l-.4.186a3.682 3.682 0 0 1-.218-.528 2.439 2.439 0 0 1 .428-.155zm.186.465a1.215 1.215 0 0 0 .715.653l-.124.435a1.565 1.565 0 0 1-.994-.9 2.344 2.344 0 0 0 .399-.185zm.715.653a1.651 1.651 0 0 0 1.149-.062l.156.435a2.364 2.364 0 0 1-1.46.093 4.084 4.084 0 0 0 .151-.463zm1.149-.062l.4-.156-.093.4-.218-.062zm.311.248a8.527 8.527 0 0 0-.186 1.584l-.466-.031A9.158 9.158 0 0 1 24.8 55zm-.186 1.615a15.368 15.368 0 0 0 .062 2.02l-.466.031a16.334 16.334 0 0 1-.062-2.082zm.062 2.02c.031.186.031.372.062.528l-.466.062a4.388 4.388 0 0 1-.062-.559zm.062.528l.093.559-.435.093a24.6 24.6 0 0 1-.093-.59zm.093.559v.124l-.217-.093"/>
        <path d="M36.7 46.145l-3.013.5-2.765 1.211-2.329 1.46-2.237 2.7-1.246 1.336-1.212.434-.31-.776.559-.808.124-1.149h.373l.4.373-.125-1.15-.466-.31v-.435l-1.087.621-.959 1.148-.217 1.025.4.839.4 1.4.808.373.839-.031.776-.466-.528 2.671.528 2.982-.528 1.367L23 63.509l.342 1.212.9 1.429 1.708 1.18.9.124.994.031-.621 2.579 2.3.931 2.857.373.994-.652.063-1.74 1.087-1.8.062-1.429 2.64.186 2.454-.217-2.454 1.46.4 1.77 1.553 2.423 1.522.653 1.212-.5.5-.994 2.515-1.928.5.4 3.945.156.777-.653.062-1.118-.249-.5-.186-3.044-1.3-2.64.218-1.181.776.4 2.229 2.095 1.087.062L54 62.08l1.212-.9.59-1.956 3.541.217 2.144-.839 1.739-1.615 1.243-2.33.31-2.764-.248-3.2-.684-2.858-.683-.9-.932-.31-1.646 1.8-1.522.529-1.3-2.175-1.3-1.211-.714-.466-2.87-2.362-2.3-1.243-2.3-.186-2.672.466-2.329.87-1.616 1.3-1.273 1.554-1.3.372-2.39 2.272z" fill="#ff0" stroke="#1f1917" stroke-miterlimit="10" stroke-width=".216" fill-rule="evenodd"/>
        <path d="M27.967 52.948c-2.578 3.013-2.019 6.678-1.3 10.251-.373-.963-.777-1.926-1.15-2.889-.155-.87-.279-1.771-.434-2.641.031-.9.093-1.8.124-2.7.373-.87.714-1.74 1.087-2.578.528-.808 1.087-1.616 1.615-2.423.839-.715 1.678-1.4 2.548-2.113.931-.372 1.863-.776 2.764-1.149 1.087-.155 2.175-.28 3.262-.435-.994 1.149-2.019 2.3-3.013 3.448-2.392.746-3.821 1.274-5.5 3.231" fill="#ffc" fill-rule="evenodd"/>
        <path d="M40.113 43.753a19.774 19.774 0 0 0-3.913 5.125c-.807 1.46-1.739 2.889-2.578 4.318a5.289 5.289 0 0 0-.59 2.206c-.435-.5-.839-.994-1.274-1.522.187-.591.4-1.212.59-1.8.684-1.212 1.367-2.454 2.051-3.666 1.46-1.428 2.888-2.857 4.348-4.286.435-.124.9-.249 1.367-.373M49 39.435c-1.429.528-3.821.715-3.976 2.361a4.216 4.216 0 0 0 .808 3.013c-1.74-1.8-2.175-1.522-5.56-.963.5-.683.962-1.367 1.459-2.05.839-.528 1.678-1.056 2.548-1.553 1.087-.249 2.174-.5 3.261-.715a10.515 10.515 0 0 1 1.46-.093" fill="#ffc" fill-rule="evenodd"/>
        <path d="M52.942 61.739c.466.31.466.5.4.714l1.118-.466c.249-.342.5-.652.746-.994l.559-1.4c-.217-.186-.466-.341-.683-.528-1.025.124-2.019.249-3.045.4-.062.217-.155.4-.217.621.031.28.031.59.062.87.093.186.187.342.28.528.155.062.31.155.466.218.093 0 .217.031.31.031M52.663 56.551c-1.522.435-1.522.559-1.957 2.081a5.717 5.717 0 0 1 1.957-2.081M62.82 45.213a1.531 1.531 0 0 0-.714.435 4.438 4.438 0 0 1-1.274 1.367 4.021 4.021 0 0 1-.932.4c-.279.094-.434 0-.652.187a1.823 1.823 0 0 0 .4.062h.9c.373-.217.745-.466 1.087-.683.217-.218.435-.466.652-.684.156-.373.342-.714.528-1.087M38.529 48.6a23.726 23.726 0 0 1-2.019 4.535 14.467 14.467 0 0 0 2.547-3.727c.249-.56.311-1.212 1.025-.963.031.559.155 1.087.187 1.646.4-2.8 1.491-3.976 4.038-5.063-.715.093-1.46.186-2.175.248l-2.05.466c-.342.5-.683.963-.994 1.46-.217.466-.373.932-.559 1.4M43.468 48.537c.559 2.609 1.336 5.094 1.677 7.7a5.133 5.133 0 0 1-.621 4.008 5.411 5.411 0 0 0-2.423.341c-3.634 1.181-5.715 2.951-8.138-.59a75.94 75.94 0 0 0 2.329 1.087c.56-.124 1.119-.217 1.678-.341.994-.56 1.957-1.15 2.951-1.709.776-.155 1.522-.311 2.3-.466.248-1.025.5-2.081.745-3.106l-.559-4.1c-.031-.653-.031-1.3-.062-1.957.031-.249.093-.56.124-.87M49.712 64.6c-.311 2.113.714 3.231.279 3.821-.124.156-.279.466-.466.528-.652.28-1.522-.062-1.584.125h-2.112a9.239 9.239 0 0 0-.839-.342c.435-.5.87-1.025 1.3-1.522.435-.932.838-1.833 1.273-2.765.28-.932.528-1.864.808-2.8h.435c.311.994.59 1.957.9 2.951" fill="#cc0" fill-rule="evenodd"/>
        <path d="M46.171 58.446a6.654 6.654 0 0 0 .931 2.112 23.584 23.584 0 0 1-1.366 4.629 3.706 3.706 0 0 1-.87 1.3 20.5 20.5 0 0 1-2.3 2.019c-.59.466-.994.218-1.739.125-.311.559-.4.869-.963 1.18-.87.435-1.678-.5-2.361-1.056l1.491 2.33c.342.31.683.652 1.025.963.28.031.59.093.87.124.4-.249.776-.466 1.18-.715.218-.4.4-.776.621-1.18.435-.311.87-.652 1.3-.963.528-.466 1.056-.9 1.584-1.367.342-.466.684-.963.994-1.429.311-.559.591-1.118.9-1.677.4-1.18.777-2.33 1.181-3.51.031-.435.062-.87.093-1.336-.5-.217-.963-.435-1.46-.652-.342-.28-.746-.559-1.118-.9M34.584 65.218a11.6 11.6 0 0 0 4.846-.777 14.348 14.348 0 0 1 1.37-1.708 5.965 5.965 0 0 0-.746 2.392 9.287 9.287 0 0 1-.5.714l-3.7.093c-.4-.031-.808-.093-1.212-.124l-.124-.124c.031-.187.031-.342.062-.466" fill="#cc0" fill-rule="evenodd"/>
        <path d="M34.335 64.068c-.031-.372-.093-.776-.124-1.149-.279 1.677-.217 2.8-.994 4.318a5.661 5.661 0 0 1-2.112 1.615 3.64 3.64 0 0 1 .062.963c-.155 1.087-2.33.621-3.2.559 1.429.373 2.858.746 4.318 1.118.311-.124.653-.248.963-.4.093-.622.218-1.243.311-1.864.31-.559.59-1.118.9-1.678.062-.341.093-.683.155-1.025-.062-.838-.186-1.646-.28-2.454M31.912 54.594a3.156 3.156 0 0 0 .249 1.864c.466.932 1.025 1.77 1.522 2.671.062-.59.093-1.211.155-1.8-.621-.9-1.273-1.833-1.926-2.734M25.265 60.745c-.155.31-.28.59-.435.9a10.633 10.633 0 0 0 1.46 3.262 2.161 2.161 0 0 1-.528 1.025 12.545 12.545 0 0 0-1.864-.124c.715.559 1.46 1.118 2.175 1.677.341-.062.714-.124 1.056-.186l1.056-1.056c-.5-.777-1.025-1.584-1.522-2.361a66.279 66.279 0 0 0-1.4-3.137M62.82 44.778a25.209 25.209 0 0 1 .963 5.84c-.062 2.485-.559 5.622-2.857 7.145-2.579 1.677-5.623.9-8.45.155 1.15.466 2.3.963 3.448 1.429 1.088.062 2.144.093 3.231.155.745-.217 1.46-.435 2.2-.652.56-.466 1.15-.963 1.709-1.429.435-.9.87-1.8 1.3-2.734.155-1.056.31-2.081.5-3.137-.125-1.025-.249-2.05-.4-3.075-.249-1.025-.466-2.019-.715-3.045a8.452 8.452 0 0 1-.932-.652M24.271 50.68c-1.18.777-1.646 1.087-1.491 2.516.124.435.248.839.342 1.274.155.124.341.217.5.342a4.99 4.99 0 0 1 .621.217c.373-.093.745-.186 1.118-.249l.559-1.77c-.528.248-1.056.528-1.584.776h-.376c-.124-.217-.279-.4-.4-.621.156-.248.342-.5.5-.745.094-.466.187-.932.249-1.4.124.031.217.062.342.093.124.093.279.217.4.311-.032-.249-.032-.5-.063-.746l-.279-.466c-.093-.093-.187-.155-.28-.248a4.091 4.091 0 0 1-.155.714M50.581 39.559a20.332 20.332 0 0 1 3.138 2.983c.311.465.683.683 0 1.335a3.17 3.17 0 0 1 1.584-.124c1.056.124 2.05 1.615 2.112 2.7 0 .093-.279.341-1.118.559-.031.031-.466-.062-.435-.031a.631.631 0 0 0 .373.372 2.19 2.19 0 0 0 .249.932 8.089 8.089 0 0 1 1.522.156 1.334 1.334 0 0 1 .124.838c.186-.031.4-.062.59-.093-.062-.435-.093-.87-.155-1.336.186-.279.341-.59.528-.869l-.746-1.678c-.466-.466-.963-.9-1.429-1.367h-.124c-.528-.341-1.056-.652-1.615-.994L52.57 40.8c-.684-.4-1.336-.839-1.989-1.243M52.321 47.512a1.186 1.186 0 0 1-.248.341 2.324 2.324 0 0 1 .807 1.274c-.5.248-.994.5-1.46.714-.4.4-.838.808-1.242 1.181a1.714 1.714 0 0 1-.932-1.087 1.332 1.332 0 0 1-.839.062.843.843 0 0 0 .435-.125c.248-.279.528-.559.777-.807.465-.342.931-.715 1.4-1.056a7.811 7.811 0 0 0 .9-.311 1.179 1.179 0 0 0 .4-.186" fill="#cc0" fill-rule="evenodd"/>
        <path d="M53.688 48.972c-1.553.838-3.044 1.677-3.852 3.261 0-1.988 2.019-2.889 3.852-3.261M49.525 45a4.55 4.55 0 0 0-1.863 3.945 3.123 3.123 0 0 1 .9-3.542c.187-.093.4-.186.591-.279.124-.031.248-.093.372-.124" fill="#cc0" fill-rule="evenodd"/>
        <path d="M51.731 56.986c.248-.124.683-.311.9-.435a9.846 9.846 0 0 0-.932.186c-.653.125-.746.28-.839.9-.062.311-.124.684-.155.994.124-.341.279-.745.435-1.087s.248-.373.59-.559zM39.554 40.305a4.229 4.229 0 0 1 1.615-1.522c-1.087.279-1.304.466-1.615 1.522zm-.186 1.708a6.116 6.116 0 0 1 3.479-3.385c-2.147.559-2.765.931-3.479 3.385zm-19.353 9.475a4.062 4.062 0 0 1 .932-1.988c-.901.621-.994.869-.932 1.988zm20.254 15.221l-.094-.653a4.5 4.5 0 0 1-.031-1.118l.093-1.18c-.124.4-.341.807-.466 1.18a2.457 2.457 0 0 0-.093.4 13.218 13.218 0 0 1-5.063.062c-.093-.621-.249-1.274-.342-1.739-.031.528 0 1.988 0 2.795a2.106 2.106 0 0 1-.341 1.367 13.711 13.711 0 0 0-.87 1.46 4.2 4.2 0 0 1-.093 1.4c-.249.839-2.61.186-3.231.031-.777-.218-2.361-.528-1.957-1.553a12.956 12.956 0 0 0 .746-3.138 16.834 16.834 0 0 1-2.982-7.331 9.072 9.072 0 0 1 .341-4.286 10.893 10.893 0 0 1 3.075-4.784 11.825 11.825 0 0 1 6.8-2.889c-.714.777-1.4 1.615-2.143 2.516a12.542 12.542 0 0 0-1.709 2.8c-.683 1.367-.652 1.9.249 3.075a7.789 7.789 0 0 1 1.522 2.516 5.118 5.118 0 0 0-.466 1.833 5.575 5.575 0 0 0 2.547 1.957 3.2 3.2 0 0 0 2.454-.249c1.771-.9 3.417-2.081 5.436-2.143a10.338 10.338 0 0 0 .4-6.4 31.418 31.418 0 0 1-.528-4.473 10.783 10.783 0 0 0-.155 4.566c.342 1.9.59 4.007-.342 5.685-1.833.124-3.386 1.242-5 2.081a2.818 2.818 0 0 1-2.081.186 3.938 3.938 0 0 1-1.864-1.459 3.775 3.775 0 0 1 .559-1.989c.621-1.242 1.3-2.36 2.05-3.572a32.008 32.008 0 0 0-2.516 3.169 8.208 8.208 0 0 0-1.336-2.082 1.709 1.709 0 0 1-.217-2.267 10.93 10.93 0 0 1 1.708-2.8c1.429-1.522 2.734-3.23 4.287-4.753a3.057 3.057 0 0 1 2.3-.963 37.11 37.11 0 0 0 3.044-.59c-.994.093-1.957.125-2.92.156h-.031a7 7 0 0 1 3.075-2.579c3.821-1.646 6.244-1.832 9.257.684.777.652 1.46 1.3 2.237 1.864a2.55 2.55 0 0 0-.87.217 4.4 4.4 0 0 1 1.274.062 3.109 3.109 0 0 1 .341.218 3.344 3.344 0 0 1 1.243 1.025 10.838 10.838 0 0 1 1.034 1.711 4.491 4.491 0 0 0-.5-.155.628.628 0 0 0-.342-.093.937.937 0 0 0-.652.155h-.031a4.749 4.749 0 0 1-1.119.373 1.281 1.281 0 0 0 .684 0c.031 0 .031-.031.062-.031a1.793 1.793 0 0 0-.155.434.976.976 0 0 0 .124.591.649.649 0 0 0 .124.186c-.155.062-.31.124-.435.186a7.587 7.587 0 0 1 2.05-.031c.031.218.094.466.125.684a.607.607 0 0 0-.249.031h-.031a1.332 1.332 0 0 0-1.211-.093c-1.522.341-1.181 1.211-1.864 2.485.714-.9.683-1.833 1.864-2.113a1.969 1.969 0 0 1 .652-.124 1.406 1.406 0 0 0-.746.777c-.31.932-.124 1.708-.465 2.547.434-.777.465-1.522.869-2.33a1.88 1.88 0 0 1 .994-.776h.28a5.809 5.809 0 0 1 .093 1.428 15.812 15.812 0 0 1-.373 2.33 8.173 8.173 0 0 0 .715-5c-.218-1.18.994-.994 1.708-1.553a15.641 15.641 0 0 0 1.336-1.522c.466-.466 1.211.217 1.4.652a16.4 16.4 0 0 1 .963 6.958c-.249 2.206-1.3 4.6-3.231 5.685-2.485 1.367-5.4.528-7.859-.28a7.154 7.154 0 0 1-1.367-.714 3.634 3.634 0 0 1 .031 1.739c-.279.9-.683 2.361.529 2.641a1.607 1.607 0 0 0 1.335-.249 2.431 2.431 0 0 1-1.149.031.74.74 0 0 1-.59-.528 2.283 2.283 0 0 0 .621.218 1.564 1.564 0 0 0 1.926-.839 6.773 6.773 0 0 1 .279-1.056 3.292 3.292 0 0 0 .591.155c-.125.373-.218.715-.342 1.087a2.641 2.641 0 0 1-2.426 1.679 3.33 3.33 0 0 1-2.143-1.15c-.435-.4-.87-.776-1.274-1.118a9.644 9.644 0 0 1-3.137-1.584 5.347 5.347 0 0 0 2.329 1.833 20.779 20.779 0 0 1-1.149 4.219 14.8 14.8 0 0 1-2.33 3.666c-.341.186-2.391 1.926-2.764 2.143a3.8 3.8 0 0 1-.963 1.149c-1.3.684-2.175-.652-2.889-1.77-.311-.528-1.212-1.988-.435-2.423a21.066 21.066 0 0 0 1.895-1.181c0 .218.186.4.311.622zm4.6 2.392c-.652.528-1.8 1.491-2.019 1.615-.4.59-.435.963-1.087 1.305-1.895 1.025-2.889-.156-4.008-1.864-.528-.808-1.677-2.672-.466-3.324.529-.28.9-.466 1.3-.683a14.814 14.814 0 0 1-3.883-.031c.031.155.031.31.062.434a1.656 1.656 0 0 1-.279 1.523 7.328 7.328 0 0 0-.746 1.3 3.825 3.825 0 0 1-.155 1.647c-.4 1.46-3.106.652-4.225.372-1.335-.372-3.23-.683-2.454-2.423a6.23 6.23 0 0 0 .435-1.211c-1.149.528-2.8-.59-3.541-1.336a4.508 4.508 0 0 1-1.274-2.423c-.124-.714 0-.714.5-1.211.466-.466.932-.9 1.367-1.367.187-.5.373-1.025.559-1.522-.062-.373-.124-.746-.155-1.118a12.38 12.38 0 0 1 .124-3.666 1.614 1.614 0 0 1-2.143-.683 6.271 6.271 0 0 1-.373-1.15c-1.8-1.739 1.584-4.038 2.578-4.193-.124.311-.248.621-.341.9.683.341.59 1.335.435 1.957-.249-.311-.373-.715-.715-.715-.062.715-.031 1.522-.59 1.926.155.435.155.435.621.249a4.509 4.509 0 0 0 1.678-1.4 10.222 10.222 0 0 1 2.2-2.889c2.361-2.112 4.629-2.8 8.232-3.355a17.1 17.1 0 0 1 1.522-1.46 2.546 2.546 0 0 1 1.864-.807 8.614 8.614 0 0 1 3.852-3.355c3.851-1.616 6.523-1.709 9.629.838a32.367 32.367 0 0 0 3.013 2.454 5.422 5.422 0 0 1 1.4 1.119 6.847 6.847 0 0 1 1.307 2.146 3.735 3.735 0 0 0 1.211-.621c.466-.4.777-1.087 1.212-1.522.59-.591 1.926.124 2.2.683a16.6 16.6 0 0 1 1.212 7.548c-.249 2.61-1.336 5.064-3.635 6.275a8.516 8.516 0 0 1-5.436.559c-.124.373-.217.777-.341 1.15a3.4 3.4 0 0 1-2.889 2.143 3.161 3.161 0 0 1-2.516-1.243c-.4-.372-.777-.745-1.181-1.118l-.093.746c.311.621.466 1.149.714 1.77a5 5 0 0 1 .466 1.895c.031.653.031 1.305.062 1.957a1.766 1.766 0 0 1 .28 1.243c-.093 1.242-.777 1.366-1.926 1.366-.373 0-1.833 0-2.205-.031-.617-.027-1.114-.089-1.362-.4zm3.883-6.865c-.218.838-.559 1.615-.839 2.516a12.392 12.392 0 0 1-2.454 3.914 2.149 2.149 0 0 0 .963.217c.373.031 1.8.031 2.174.031.808 0 1.088-.031 1.181-.963a1.27 1.27 0 0 0-.218-.932c-.031-.683-.031-1.4-.062-2.081a4.411 4.411 0 0 0-.4-1.646 10.607 10.607 0 0 1-.348-1.056zm-24.295-11.37c.187-.031.28.063.435.218-.031-.342-.093-.59-.31-.715a.284.284 0 0 0-.031.156.7.7 0 0 0-.094.341zm1.119 2.392l-.376 1.025c-.031.063-.031.125-.062.187-.684.279-1.585.466-1.926-.249a7.7 7.7 0 0 1-.373-1.118c-1.118-1.149.559-2.7 1.46-3.262a5.72 5.72 0 0 0-.28.715c-.279.963.125 1.8-.745 2.516.4.839.4 1.149 1.336.777a2.533 2.533 0 0 0 .966-.591zm-.249 7.828a19.456 19.456 0 0 0 2.361 5v.032a2 2 0 0 1-.28.714c-.683.932-2.454-.435-2.982-.963a3.481 3.481 0 0 1-1.025-1.9c-.062-.466 0-.466.311-.807.435-.435.87-.87 1.3-1.336.098-.243.222-.491.315-.74zm32.989-14.351a1.385 1.385 0 0 1 .249.342l.093-.093c-.031-.094-.093-.187-.124-.28a.613.613 0 0 1-.218.031zm-8.542 3.231a1.352 1.352 0 0 1-.124-.591 3.27 3.27 0 0 1-1.088.653c.528-.466 1.243-1.553 1.74-1.895.59-.4 1.367-.311 2.05-.621a3.236 3.236 0 0 1-.839.528 1.4 1.4 0 0 1 .9 1.149 4.065 4.065 0 0 1 1.274-.217 7.868 7.868 0 0 0-3.79 2.454 3.636 3.636 0 0 1 .466-.839 1.28 1.28 0 0 1-.59-.621zM43.5 45.058a21.3 21.3 0 0 1-2.143.683 4.584 4.584 0 0 0-1.212 2.485 2.5 2.5 0 0 1 .28-2.236 2.87 2.87 0 0 0-.5.341c-.715.622-1.647 3.013-2.019 3.883.248-1.025.963-3.634 1.739-4.38a1.532 1.532 0 0 1 1.336-.559c.839-.031 1.677-.124 2.516-.217zm15.594 2.516a2.227 2.227 0 0 0 1.491-.124 4.865 4.865 0 0 0 2.236-2.3 3.418 3.418 0 0 1-2.112 2.609c-.621.218-.994 0-1.615-.186zm-11.619.126a3.5 3.5 0 0 1 2.206-2.734c-2.081.495-2.481 1.396-2.206 2.734zm-26.994 5.434a6 6 0 0 1 2.019-4.411c-1.8 1.274-2.267 1.833-2.019 4.411" fill-rule="evenodd"/>
        <path d="M50.053 50.276a.584.584 0 0 1 1.057-.5c0 .031.031.062.031.093a3.4 3.4 0 0 0-.746.746.731.731 0 0 1-.342-.342M56.546 47.76a.446.446 0 0 1 .466-.4.467.467 0 0 1 .4.466c0 .062-.031.093-.031.156a3.234 3.234 0 0 0-.683.186.592.592 0 0 1-.155-.4" fill="#ffc" fill-rule="evenodd"/>
    </g>
    <g>
        <path d="M66.748 81.573l-.345 1.536h-2.866l.344-1.536h2.867z"/>
        <path d="M81.052 76.213h-9.828l-.13.6a.373.373 0 0 0-.167-.307 1.62 1.62 0 0 0-.792-.288h-9.278l.307-1.368a1.145 1.145 0 0 0-1.117-1.406H42.7l-2.54 11.345-.168.763h5.575l.177-.763 1.8-8.106h.968L46.7 84.784l-.167.763h5.677l.177-.763 1.8-8.106h.875l-1.815 8.106-.167.763h5.686l.112-.53a.565.565 0 0 0 .6.53h9.662l-.67 3.016-.187.809h5.529l.188-.809.67-3.016h4.244a2.01 2.01 0 0 0 1.954-1.563l1.4-6.254a1.237 1.237 0 0 0-1.216-1.517zm-22.745 8.571H55.17l2-8.953h-3.563l-2 8.953h-2.989l2-8.953h-3.656l-2 8.953h-2.895L44.43 74.2h15.422a.644.644 0 0 1 .632.791zm1.675-4.653l.139-.614H65.3l-.037.167h-4.63s-.567.075-.651.447zm9.1 4.653h-8.216a.521.521 0 0 1-.512-.633l.605-2.689a1.228 1.228 0 0 1 1.21-.968h4.821l.186-.81.037-.167.177-.81h-5.817l.391-1.731h8.041a.658.658 0 0 1 .642.8zM80.159 83.7a1.4 1.4 0 0 1-1.359 1.084h-4.728l-.177.763-.67 3.016h-2.848l.68-3.016.167-.763 1.75-7.808h7.948a.589.589 0 0 1 .577.717z"/>
        <path d="M60.484 74.994l-2.177 9.79H55.17l2-8.953h-3.563l-2 8.953h-2.989l2-8.953h-3.656l-2 8.953h-2.895L44.43 74.2h15.422a.644.644 0 0 1 .632.794zM70.005 76.976h-8.041l-.391 1.731h5.817l-.177.81-.037.167-.186.81h-4.821a1.228 1.228 0 0 0-1.21.968l-.605 2.689a.521.521 0 0 0 .512.633h8.218l1.563-7.008a.658.658 0 0 0-.642-.8zm-3.6 6.133h-2.868l.344-1.536h2.867zM80.922 76.976h-7.948l-1.75 7.808-.167.763-.68 3.016h2.848l.67-3.016.177-.763H78.8a1.4 1.4 0 0 0 1.359-1.084l1.34-6a.589.589 0 0 0-.577-.724zm-2.755 2.541l-.614 2.773-.186.819h-2.923l.177-.819.624-2.773.177-.81h2.922z" fill="#ff0"/>
        <path d="M75.422 78.707l-.177.81-.624 2.773-.177.819h2.923l.186-.819.614-2.773.177-.81zm.214 3.583h-.242l.623-2.773h.233zM149.27 82.113a2.076 2.076 0 0 0 .745-.567 1.436 1.436 0 0 0 .288-.6l.7-3.109a1.335 1.335 0 0 0-1.3-1.628h-18.972c-.67 0-.865.279-.931.419l.094-.419h-5.7l-1.359 6.077h-.372l1.359-6.077h-4.784l.624-2.774h-5.584l-.624 2.774h-4.132c-1.2 0-1.471.484-1.471.484a1.17 1.17 0 0 0-.372-.279 1.94 1.94 0 0 0-.865-.205h-7.647c-1.116 0-1.433.372-1.5.465l.372-1.666a1.289 1.289 0 0 0-1.256-1.573H85.91l-2.717 12.112h5.537l.847-3.778 1.089 3.778h5.119l-.112-.344a.682.682 0 0 0 .661.344h8.338l.838-.995a1.6 1.6 0 0 0 1.415.995h10.032l.149-.623c0 .1.037.623.763.623h9.931l.139-.614v-.028l.009.01-.009.018c.009.13.065.614.773.614h8.245l.642-.763.438-.521a1.428 1.428 0 0 0 .037.279 1.382 1.382 0 0 0 .075.242 1.169 1.169 0 0 0 1.172.763h8.4l2.755-3.257h-1.713a.029.029 0 0 0 .019-.009 2.1 2.1 0 0 0 .488-.168zm-58.883-3.992l.325-1.461h1.061l-.325 1.461zM95.2 83.09l-.651-2.261h.223c.819 0 1.024-.456 1.061-.568zm.922-4.1a1.325 1.325 0 0 1-1.294 1.033h-1.389l.242.81 1.145 3.955h-2.373l-1.694-5.858h2.42l.688-3.08h-3.741l-2 8.934h-2.849L87.641 74.2h8.851a.552.552 0 0 1 .54.67zm10.423 1.638a1.175 1.175 0 0 1-1.145.922h-4.783l-.345 1.563h5.408l-1.415 1.675h-6.656a.519.519 0 0 1-.5-.633l1.35-6.021a1.483 1.483 0 0 1 1.441-1.158h6.738a.58.58 0 0 1 .568.707zm9.884 4.16h-8.088a.641.641 0 0 1-.633-.782l1.341-5.965a1.334 1.334 0 0 1 1.312-1.061h4.849l.614-2.773h2.969zm10.814 0h-8.906l1.749-7.808h2.8l-1.378 6.133h3.053l1.377-6.133h3.053zm11.336-2.494h-5.11l.624-2.792h4.355l1.024-1.219zm-.512-3.6h-4.56l-.987 4.421h5.444l-1.414 1.675h-6.682a.574.574 0 0 1-.559-.7l1.34-5.984a1.435 1.435 0 0 1 1.406-1.126h7.464zm10.665 4.421l-1.424 1.675h-6.635a.588.588 0 0 1-.577-.716l1.368-6.133a1.216 1.216 0 0 1 1.191-.959h7.026a.6.6 0 0 1 .577.726l-.632 2.81a1.326 1.326 0 0 1-1.294 1.034h-4.821l-.344 1.563z"/>
        <path d="M97.032 74.873l-.912 4.113a1.325 1.325 0 0 1-1.294 1.033h-1.387l.242.81 1.145 3.955h-2.373l-1.694-5.854h2.42l.688-3.08h-3.741l-2 8.934h-2.849L87.641 74.2h8.851a.552.552 0 0 1 .54.673zM106.636 76.976H99.9a1.483 1.483 0 0 0-1.442 1.154l-1.35 6.021a.519.519 0 0 0 .5.633h6.654l1.415-1.675h-5.407l.345-1.563h4.785a1.175 1.175 0 0 0 1.145-.922l.661-2.941a.58.58 0 0 0-.57-.707zm-2.643 2.541l-.037.149-.177.809h-2.922l.391-1.768h2.922zM115.822 74.2l-.614 2.773h-4.849a1.334 1.334 0 0 0-1.312 1.061L107.706 84a.641.641 0 0 0 .633.782h8.088l2.364-10.582zm-1.992 8.906h-3.108l.986-4.4h3.109zM128.991 76.976l-1.75 7.808h-8.906l1.749-7.808h2.802l-1.378 6.133h3.053l1.377-6.133h3.053zM133.505 78.688l-.987 4.421h5.444l-1.414 1.675h-6.682a.574.574 0 0 1-.559-.7l1.34-5.984a1.435 1.435 0 0 1 1.406-1.126h7.464l-1.452 1.712zM149.679 76.976h-7.026a1.216 1.216 0 0 0-1.191.959l-1.368 6.133a.588.588 0 0 0 .577.716h6.635l1.424-1.675h-5.565l.344-1.563h4.821a1.326 1.326 0 0 0 1.294-1.034l.632-2.81a.6.6 0 0 0-.577-.726zm-2.764 2.524l-.037.168-.177.809h-2.95l.177-.809.037-.168.186-.81h2.949z" fill="#ff0"/>
        <path d="M101.248 78.707l-.391 1.768h2.922l.177-.809.037-.149.177-.81zM111.708 78.707l-.986 4.4h3.108l.987-4.4zm.391 3.583h-.419l.624-2.773h.419zM144.151 78.688l-.186.81-.037.168-.177.809h2.95l.177-.809.037-.168.187-.81z"/>
    </g>
</svg>
