<svg xmlns="http://www.w3.org/2000/svg" width="200" height="128">
	<path d="M53.752 55.453h1.814l3.85 10.8 1.451 4.074h.111l1.395-4.074 3.851-10.8h1.813v18.386h-1.256V61.758q0-1.143.056-2.469t.112-2.5h-.112l-1.451 4.046-3.933 10.995h-1.144l-3.962-10.992-1.447-4.046h-.112q.056 1.171.112 2.5t.056 2.469v12.078h-1.2zm28.793 12.081h-7.282l-2.176 6.3H71.8l6.473-18.386h1.287l6.472 18.386h-1.339zm-.363-1.088-1.172-3.432q-.558-1.646-1.06-3.153t-.976-3.208h-.112q-.474 1.7-.976 3.208t-1.061 3.153l-1.171 3.432zM99.7 73.839l-4.994-8.454H90.8v8.454h-1.28V55.453h5.273a10.8 10.8 0 0 1 2.483.265 5.074 5.074 0 0 1 1.9.851 3.954 3.954 0 0 1 1.214 1.507 5.222 5.222 0 0 1 .432 2.231 4.647 4.647 0 0 1-1.269 3.46A5.785 5.785 0 0 1 96.1 65.3l5.078 8.537zm-5.245-9.514a6.1 6.1 0 0 0 3.753-.99 3.567 3.567 0 0 0 1.3-3.028 3.208 3.208 0 0 0-1.308-2.915 6.874 6.874 0 0 0-3.739-.851H90.8v7.784zm19.785 3.209h-7.282l-2.177 6.3H103.5l6.473-18.386h1.283l6.473 18.386h-1.339zm-.363-1.088-1.172-3.432q-.558-1.646-1.06-3.153t-.977-3.208h-.111q-.476 1.7-.977 3.208t-1.06 3.153l-1.172 3.432zm9.623-9.877h-5.859v-1.116h13v1.116h-5.859v17.27H123.5zm10.66-1.116h1.283v8.063h9.849v-8.063h1.284v18.386h-1.284v-9.207h-9.849v9.207h-1.283zm22.822 18.721a6.827 6.827 0 0 1-3.041-.683 6.966 6.966 0 0 1-2.4-1.94 9.211 9.211 0 0 1-1.563-3.027 13.1 13.1 0 0 1-.558-3.948 12.838 12.838 0 0 1 .558-3.92 9.1 9.1 0 0 1 1.563-2.985 6.752 6.752 0 0 1 2.4-1.9 7.441 7.441 0 0 1 6.11 0 6.764 6.764 0 0 1 2.4 1.9 9.118 9.118 0 0 1 1.562 2.985 12.838 12.838 0 0 1 .558 3.92 13.1 13.1 0 0 1-.558 3.948 9.228 9.228 0 0 1-1.562 3.027 6.979 6.979 0 0 1-2.4 1.94 6.886 6.886 0 0 1-3.069.683zm0-1.172a5.371 5.371 0 0 0 2.539-.6 5.8 5.8 0 0 0 1.967-1.7 8.174 8.174 0 0 0 1.27-2.651 12.553 12.553 0 0 0 .446-3.474 12.294 12.294 0 0 0-.446-3.431 7.848 7.848 0 0 0-1.27-2.609 5.775 5.775 0 0 0-1.967-1.66 5.484 5.484 0 0 0-2.539-.586 5.518 5.518 0 0 0-4.52 2.246 8.007 8.007 0 0 0-1.255 2.609 12.257 12.257 0 0 0-.446 3.431 12.516 12.516 0 0 0 .446 3.474 8.343 8.343 0 0 0 1.255 2.651 5.633 5.633 0 0 0 1.968 1.7 5.447 5.447 0 0 0 2.552.598zm10.686-17.549h1.339l7.756 12.974 2.065 3.655h.112l-.112-2.679q-.055-1.339-.055-2.678V55.453H180v18.386h-1.339l-7.756-12.973-2.065-3.656h-.112q.055 1.34.112 2.609t.055 2.609v11.411h-1.227z" fill="#13171d"/>
	<path d="M33.532 59.5a4.472 4.472 0 0 1 2.641.862L42.9 54.25a13.508 13.508 0 0 0-22.86 8.956h9.06a4.5 4.5 0 0 1 4.432-3.706z" fill="#02fb99"/>
	<path d="m37.847 62.717 8.7-2.381A13.5 13.5 0 0 0 42.9 54.25l-6.727 6.109a4.506 4.506 0 0 1 1.674 2.358z" fill="#78ff00"/>
	<path d="M29.029 64a4.518 4.518 0 0 1 .075-.794H20.04c-.015.264-.04.526-.04.794a13.451 13.451 0 0 0 1.288 5.733l8.026-4.168A4.489 4.489 0 0 1 29.029 64z" fill="#027cf9"/>
	<path d="M37.847 62.717a4.5 4.5 0 0 1-2.609 5.449l3.478 8.334a13.485 13.485 0 0 0 7.832-16.163z" fill="#02fb99"/>
	<path d="m29.314 65.565-8.026 4.168a13.553 13.553 0 0 0 7.952 7.093l2.34-8.773a4.514 4.514 0 0 1-2.266-2.488z" fill="#03c0fe"/>
	<path d="M33.532 68.5a4.478 4.478 0 0 1-1.952-.45l-2.34 8.773a13.468 13.468 0 0 0 9.476-.327l-3.478-8.333a4.486 4.486 0 0 1-1.706.337z" fill="#027bfa"/>
</svg>
