<svg xmlns="http://www.w3.org/2000/svg" viewBox="20.77 20.9 161.46 102.08">
	<path fill="#f1511b" d="M122.545 109.738H80.546V34.265h42v75.473"/>
	<path fill="#e71b25" d="M83.214 72.002c0-15.312 7.17-28.948 18.333-37.737a47.79 47.79 0 0 0-29.663-10.262c-26.508 0-47.996 21.49-47.996 47.999C23.888 98.51 45.376 120 71.884 120a47.787 47.787 0 0 0 29.663-10.263c-11.164-8.79-18.333-22.426-18.333-37.736"/>
	<path fill="#f79410" d="M179.205 72.002c0 26.508-21.489 47.999-47.995 47.999a47.786 47.786 0 0 1-29.663-10.263c11.163-8.79 18.332-22.426 18.332-37.736 0-15.312-7.169-28.948-18.332-37.737a47.789 47.789 0 0 1 29.663-10.262c26.506 0 47.995 21.49 47.995 47.999"/>
	<path fill="#231f20" d="M177.706 101.744v-1.863h-.486l-.56 1.282-.56-1.282h-.486v1.863h.343v-1.404l.525 1.21h.356l.526-1.214v1.408zm-3.081 0V100.2h.624v-.313h-1.588v.313h.624v1.545h.34"/>
</svg>
