<svg xmlns="http://www.w3.org/2000/svg" height="144" width="203.213" xml:space="preserve">
	<path style="fill:#f1511b;fill-opacity:1;fill-rule:nonzero;stroke:none" d="M919.113 256.973h-315v566.058h315V256.973" transform="matrix(.13333 0 0 -.13333 0 144)"/>
	<path style="fill:#e71b25;fill-opacity:1;fill-rule:nonzero;stroke:none" d="M624.121 540c0 114.84 53.77 217.113 137.5 283.031C700.387 871.238 623.117 900 539.141 900c-198.809 0-359.977-161.176-359.977-360 0-198.816 161.168-360 359.977-360 83.976 0 161.246 28.762 222.48 76.973-83.73 65.918-137.5 168.195-137.5 283.027" transform="matrix(.13333 0 0 -.13333 0 144)"/>
	<path style="fill:#f79410;fill-opacity:1;fill-rule:nonzero;stroke:none" d="M1344.07 540c0-198.816-161.17-360-359.972-360-83.977 0-161.243 28.762-222.477 76.973C845.348 322.891 899.113 425.168 899.113 540c0 114.84-53.765 217.113-137.492 283.031C822.855 871.238 900.121 900 984.098 900c198.802 0 359.972-161.176 359.972-360" transform="matrix(.13333 0 0 -.13333 0 144)"/>
	<path style="fill:#231f20;fill-opacity:1;fill-rule:nonzero;stroke:none" d="M1332.83 316.926v13.972h-3.65l-4.2-9.609-4.19 9.609h-3.65v-13.972h2.57v10.535l3.94-9.082h2.67l3.94 9.109v-10.562zm-23.11 0v11.59h4.68v2.351h-11.91v-2.351h4.68v-11.59h2.55" transform="matrix(.13333 0 0 -.13333 0 144)"/>
</svg>
