<svg xmlns="http://www.w3.org/2000/svg" xml:space="preserve" width="146.667" height="111.333">
	<defs>
		<clipPath clipPathUnits="userSpaceOnUse" id="a">
			<path d="M0 83.5h110V0H0Z"/>
		</clipPath>
	</defs>
	<g clip-path="url(#a)" transform="matrix(1.33333 0 0 -1.33333 0 111.333)">
		<path d="m0 0-8.284 28.631h-22.988v-4.596h2.183c2.721 0 4.975-1.584 5.802-4.516l12.661-43.634H.907L6.56-4.746l-.08.071C2.791-4.675.978-3.319 0 0" style="fill:#ef4562;fill-opacity:1;fill-rule:nonzero;stroke:none" transform="translate(54.37 54.866)"/>
		<path d="M0 0c-2.712 0-4.896 1.805-5.723 4.596L-18.384 48.15h-17.634l15.292-52.747H2.183V0Z" style="fill:#ef4562;fill-opacity:1;fill-rule:nonzero;stroke:none" transform="translate(100.863 35.35)"/>
		<path d="M0 0v-4.612h20.373V0Z" style="fill:#ef4562;fill-opacity:1;fill-rule:nonzero;stroke:none" transform="translate(6.95 35.36)"/>
		<path d="M0 0c0-1.012.6-1.654 1.506-1.654.995 0 1.62.642 1.62 1.549 0 .933-.563 1.47-1.364 1.47-1.118 0-1.841-.784-2.651-3.063l.079 3.063h-.475L-4.983.247v-.388l1.242-.748V-8.17c0-.722-.335-.846-1.286-.907v-.678H.846v.678c-1.26.105-1.735.229-1.735 1.057v5.309C-.432-1.426.291-.536 1.488.168zm30.974-7.466c0-.704.158-1.153.677-1.153.309 0 .6.097.828.202l.124-.448c-.599-.705-1.383-1.101-2.333-1.101-1.136 0-1.868.687-2.07 1.822-.66-.872-1.734-1.778-3.249-1.778-1.654 0-2.747 1.013-2.747 2.668 0 1.752 1.26 2.5 2.809 3.055l3.126 1.136v1.743c0 1.197-.397 2.042-1.444 2.042-.977 0-1.558-.246-1.867-.678.643-.149 1.013-.66 1.013-1.302 0-.89-.616-1.471-1.568-1.471-.888 0-1.452.581-1.452 1.488 0 1.734 1.779 2.606 4.094 2.606 2.633 0 4.059-.951 4.059-3.39zm10.918-1.488-.106 2.853h.766c.448-1.795 1.505-3.143 3.081-3.143 1.109 0 1.963.519 1.963 1.655 0 1.118-.783 1.55-2.376 2.131-2.22.766-3.355 1.638-3.355 3.539 0 2.087 1.575 3.284 3.847 3.284 1.32 0 2.457-.335 3.354-.889v-2.501h-.704C48.027-.554 47.155.66 45.712.66c-1.074 0-1.673-.616-1.673-1.531 0-.924.616-1.383 2.21-1.982 2.254-.765 3.539-1.61 3.539-3.635 0-2.193-1.637-3.478-4.182-3.478-1.549 0-2.852.413-3.714 1.012m-8.954 0-.125 2.853h.767c.448-1.795 1.487-3.143 3.072-3.143 1.119 0 1.973.519 1.973 1.655 0 1.118-.767 1.55-2.404 2.131-2.193.766-3.327 1.638-3.327 3.539 0 2.087 1.566 3.284 3.846 3.284 1.321 0 2.457-.335 3.346-.889v-2.501h-.704C39.039-.554 38.185.66 36.74.66c-1.073 0-1.699-.616-1.699-1.531 0-.924.644-1.383 2.236-1.982 2.237-.765 3.557-1.61 3.557-3.635 0-2.193-1.654-3.478-4.199-3.478-1.568 0-2.853.413-3.697 1.012M28.13-7.642v3.822l-1.778-.704c-.846-.327-1.41-.802-1.41-1.964 0-1.074.502-1.823 1.594-1.823.599 0 1.013.229 1.594.669m-7.58-.528c0-.722.307-.846 1.285-.907v-.678h-5.44v.678c.95.061 1.285.185 1.285.907V2.835l-1.242.643v.431l3.654.995h.458ZM15.337 3.698l.044-3.302h-.81c-.475 2.377-1.689 3.654-3.697 3.654-2.835 0-4.138-2.826-4.138-6.348 0-3.838 1.514-6.779 4.323-6.779 1.946 0 3.266 1.224 3.97 4.218h.845l-.325-3.883c-1.197-.766-2.818-1.224-4.754-1.224-4.491 0-7.264 2.809-7.264 7.07 0 4.816 3.205 7.836 7.264 7.836 1.839 0 3.362-.449 4.542-1.242m-27.478-6.365h4.094c0 1.963-.51 3.283-1.858 3.283-1.364 0-2.086-1.382-2.236-3.283m6.665-.265v-.475h-6.726c-.079-2.879 1.391-4.613 3.416-4.613 1.409 0 2.332.617 3.081 1.69l.309-.185c-.52-2.043-2.026-3.451-4.385-3.451-2.993 0-5.001 2.21-5.001 5.38 0 3.513 2.272 5.951 5.089 5.951 2.764 0 4.217-1.822 4.217-4.297M-17.969 1.18h2.694V.247h-2.694v-6.858c0-1.242.475-1.78 1.452-1.78.556 0 1.014.186 1.524.556l.273-.353c-.66-1.03-1.7-1.778-3.205-1.778-1.673 0-2.914.889-2.914 3.205V.247h-1.286v.44c1.427.661 2.624 1.796 3.514 3.161h.642zM-30.286-8.954l-.132 2.853h.766c.457-1.795 1.488-3.143 3.081-3.143 1.119 0 1.946.519 1.946 1.655 0 1.118-.748 1.55-2.377 2.131-2.193.766-3.328 1.638-3.328 3.539 0 2.087 1.567 3.284 3.821 3.284 1.347 0 2.483-.335 3.372-.889v-2.501h-.704C-24.194-.554-25.039.66-26.509.66c-1.048 0-1.673-.616-1.673-1.531 0-.924.643-1.383 2.236-1.982 2.228-.765 3.53-1.61 3.53-3.635 0-2.193-1.628-3.478-4.172-3.478-1.576 0-2.853.413-3.698 1.012m-4.798 1.304v3.83l-1.779-.704c-.871-.353-1.426-.811-1.426-1.964 0-1.083.493-1.823 1.611-1.823.598 0 1.012.229 1.594.661m2.825.184c0-.704.168-1.153.688-1.153.308 0 .598.097.827.202l.123-.448c-.598-.705-1.381-1.101-2.333-1.101-1.144 0-1.866.687-2.068 1.822-.662-.872-1.735-1.778-3.249-1.778-1.656 0-2.748 1.013-2.748 2.668 0 1.752 1.259 2.5 2.81 3.055l3.125 1.136v1.743c0 1.197-.397 2.042-1.453 2.042-.968 0-1.549-.246-1.858-.678.643-.149 1.013-.66 1.013-1.302 0-.89-.617-1.471-1.568-1.471-.889 0-1.452.581-1.452 1.488 0 1.734 1.778 2.606 4.093 2.606 2.624 0 4.05-.951 4.05-3.39zm-14.905 8.787L-51.09-9.755h-1.057L-56.32 1.321l-1.03-8.54a3.817 3.817 0 0 1-.044-.493c0-1.03.449-1.242 1.963-1.321v-.722h-4.78v.722c1.179.061 1.575.291 1.698 1.216l1.304 10.3c.141 1.119-.396 1.444-1.761 1.532v.696h4.675c.044-.449.141-.802.308-1.26l3.372-8.989 3.126 9.016c.167.449.29.784.325 1.233h4.596v-.696c-1.329-.088-1.867-.413-1.717-1.532l1.259-10.3c.123-.969.554-1.155 1.699-1.216v-.722h-6.682v.722c1.426.079 1.919.291 1.919 1.321 0 .123-.017.335-.035.493z" style="fill:#ef4562;fill-opacity:1;fill-rule:nonzero;stroke:none" transform="translate(60.212 9.966)"/>
	</g>
</svg>
