<svg width="294" height="283" xmlns="http://www.w3.org/2000/svg">
	<g fill="none" fill-rule="evenodd">
		<path d="M37.5 269.432v-40.536L27.42 269h-6.48l-10.872-40.248v39.816L1.356 269v-53.496l15.48-.432 8.928 33.408 8.568-32.184 14.112-.864v53.136l-10.944.864Zm33.264.504c-4.8 0-8.472-1.908-11.016-5.724-2.544-3.816-3.816-8.892-3.816-15.228 0-6.432 1.296-11.544 3.888-15.336 2.592-3.792 6.36-5.688 11.304-5.688 4.704 0 8.304 1.896 10.8 5.688 2.496 3.792 3.744 8.904 3.744 15.336 0 .384-.072.66-.216.828-.144.168-.216.276-.216.324H66.012c0 3.12.408 5.964 1.224 8.532.816 2.568 2.064 3.852 3.744 3.852 1.872 0 3.264-1.08 4.176-3.24a271.33 271.33 0 0 1 1.44-3.384l7.632 2.88c-1.008 3.456-2.616 6.18-4.824 8.172-2.208 1.992-5.088 2.988-8.64 2.988Zm4.968-25.632c0-2.88-.384-5.16-1.152-6.84-.768-1.68-1.968-2.52-3.6-2.52-.816 0-1.608.408-2.376 1.224-.768.816-1.392 1.944-1.872 3.384-.48 1.44-.72 3.024-.72 4.752h9.72ZM105.54 281.6c-5.376 0-9.552-.756-12.528-2.268-2.976-1.512-4.464-3.588-4.464-6.228 0-1.824.672-3.372 2.016-4.644 1.344-1.272 3.048-2.292 5.112-3.06-1.824-.528-3.192-1.2-4.104-2.016-.912-.816-1.368-1.992-1.368-3.528 0-1.872.648-3.564 1.944-5.076 1.296-1.512 3-2.772 5.112-3.78-4.32-2.496-6.48-5.976-6.48-10.44 0-2.688.732-4.98 2.196-6.876 1.464-1.896 3.36-3.324 5.688-4.284a18.985 18.985 0 0 1 7.308-1.44c3.792 0 7.152 1.008 10.08 3.024 1.44-1.296 2.892-2.376 4.356-3.24 1.464-.864 3.3-1.296 5.508-1.296v6.696c-2.784 0-4.92.336-6.408 1.008.576 1.488.972 2.664 1.188 3.528.216.864.324 1.8.324 2.808 0 3.264-1.104 6.108-3.312 8.532-2.208 2.424-5.808 3.636-10.8 3.636l-2.664-.072a14.68 14.68 0 0 0-1.584-.072c-.624.192-1.224.612-1.8 1.26-.576.648-.864 1.332-.864 2.052 0 .672.24 1.248.72 1.728s1.08.768 1.8.864l11.52 1.296c6.672.768 10.008 4.008 10.008 9.72 0 4.464-1.716 7.608-5.148 9.432-3.432 1.824-7.884 2.736-13.356 2.736Zm.288-34.704c1.488 0 2.64-.564 3.456-1.692.816-1.128 1.224-2.724 1.224-4.788 0-2.112-.432-3.696-1.296-4.752-.864-1.056-1.968-1.584-3.312-1.584-1.488 0-2.664.6-3.528 1.8-.864 1.2-1.296 2.688-1.296 4.464 0 1.632.36 3.132 1.08 4.5.72 1.368 1.944 2.052 3.672 2.052Zm.144 27.36c5.472 0 8.208-1.488 8.208-4.464 0-.816-.216-1.416-.648-1.8-.432-.384-1.116-.66-2.052-.828-.936-.168-2.46-.324-4.572-.468l-5.976-.504c-.864.288-1.608.804-2.232 1.548-.624.744-.936 1.572-.936 2.484 0 1.296.684 2.292 2.052 2.988 1.368.696 3.42 1.044 6.156 1.044Zm30.744-4.32c-1.728 0-3.288-.54-4.68-1.62s-2.472-2.544-3.24-4.392c-.768-1.848-1.152-3.924-1.152-6.228 0-5.232 1.788-8.916 5.364-11.052 3.576-2.136 7.74-3.348 12.492-3.636 0-2.592-.168-4.512-.504-5.76-.336-1.248-1.152-1.872-2.448-1.872-1.104 0-1.944.432-2.52 1.296-.576.864-.936 1.968-1.08 3.312l-9.864-1.728c.48-3.696 1.992-6.336 4.536-7.92 2.544-1.584 5.52-2.376 8.928-2.376 4.368 0 7.644 1.152 9.828 3.456 2.184 2.304 3.276 5.304 3.276 9v20.952c0 2.256.36 4.656 1.08 7.2l-9.864.864-1.152-4.968c-.864 1.536-2.136 2.832-3.816 3.888-1.68 1.056-3.408 1.584-5.184 1.584Zm4.68-7.2c.816 0 1.5-.192 2.052-.576.552-.384 1.236-1.008 2.052-1.872v-11.232c-2.4 0-4.32.648-5.76 1.944-1.44 1.296-2.16 3.312-2.16 6.048 0 1.824.324 3.228.972 4.212.648.984 1.596 1.476 2.844 1.476ZM164.652 269v-54h27.432l-.864 8.424h-15.984v12.888h11.376l-.072 9.072h-11.304v15.192h17.424l-.864 8.424h-27.144Zm40.752.936c-1.728 0-3.288-.54-4.68-1.62s-2.472-2.544-3.24-4.392c-.768-1.848-1.152-3.924-1.152-6.228 0-5.232 1.788-8.916 5.364-11.052 3.576-2.136 7.74-3.348 12.492-3.636 0-2.592-.168-4.512-.504-5.76-.336-1.248-1.152-1.872-2.448-1.872-1.104 0-1.944.432-2.52 1.296-.576.864-.936 1.968-1.08 3.312l-9.864-1.728c.48-3.696 1.992-6.336 4.536-7.92 2.544-1.584 5.52-2.376 8.928-2.376 4.368 0 7.644 1.152 9.828 3.456 2.184 2.304 3.276 5.304 3.276 9v20.952c0 2.256.36 4.656 1.08 7.2l-9.864.864-1.152-4.968c-.864 1.536-2.136 2.832-3.816 3.888-1.68 1.056-3.408 1.584-5.184 1.584Zm4.68-7.2c.816 0 1.5-.192 2.052-.576.552-.384 1.236-1.008 2.052-1.872v-11.232c-2.4 0-4.32.648-5.76 1.944-1.44 1.296-2.16 3.312-2.16 6.048 0 1.824.324 3.228.972 4.212.648.984 1.596 1.476 2.844 1.476Zm34.704 7.2c-3.984 0-7.2-.9-9.648-2.7-2.448-1.8-4.032-4.308-4.752-7.524l7.848-2.592a6.271 6.271 0 0 0 1.08 2.448c1.104 1.584 2.712 2.376 4.824 2.376 1.2 0 2.352-.264 3.456-.792s1.656-1.344 1.656-2.448c0-1.488-1.032-2.64-3.096-3.456l-8.496-3.456c-2.256-.96-3.984-2.4-5.184-4.32-1.2-1.92-1.8-4.272-1.8-7.056 0-2.592.636-4.824 1.908-6.696 1.272-1.872 2.952-3.3 5.04-4.284s4.332-1.476 6.732-1.476c3.024 0 5.808.876 8.352 2.628 2.544 1.752 4.248 4.14 5.112 7.164l-8.352 2.592a8.814 8.814 0 0 0-1.008-2.448c-1.056-1.632-2.4-2.448-4.032-2.448-1.2 0-2.232.276-3.096.828-.864.552-1.296 1.356-1.296 2.412 0 1.248 1.176 2.4 3.528 3.456l7.2 2.952c2.544 1.2 4.536 2.712 5.976 4.536 1.44 1.824 2.16 4.272 2.16 7.344 0 2.784-.672 5.148-2.016 7.092a12.649 12.649 0 0 1-5.256 4.392 16.31 16.31 0 0 1-6.84 1.476Zm33.264 0c-4.8 0-8.472-1.908-11.016-5.724-2.544-3.816-3.816-8.892-3.816-15.228 0-6.432 1.296-11.544 3.888-15.336 2.592-3.792 6.36-5.688 11.304-5.688 4.704 0 8.304 1.896 10.8 5.688 2.496 3.792 3.744 8.904 3.744 15.336 0 .384-.072.66-.216.828-.144.168-.216.276-.216.324H273.3c0 3.12.408 5.964 1.224 8.532.816 2.568 2.064 3.852 3.744 3.852 1.872 0 3.264-1.08 4.176-3.24a271.33 271.33 0 0 1 1.44-3.384l7.632 2.88c-1.008 3.456-2.616 6.18-4.824 8.172-2.208 1.992-5.088 2.988-8.64 2.988Zm4.968-25.632c0-2.88-.384-5.16-1.152-6.84-.768-1.68-1.968-2.52-3.6-2.52-.816 0-1.608.408-2.376 1.224-.768.816-1.392 1.944-1.872 3.384-.48 1.44-.72 3.024-.72 4.752h9.72Z" stroke="#000" fill="#000"/>
		<g transform="translate(53 1)">
			<circle stroke="#979797" fill="#FFF" cx="92" cy="92" r="92"/>
			<circle stroke="#979797" fill="#000" cx="91.792" cy="91.792" r="77.05"/>
			<g stroke="#FFF">
				<path d="m44.768 60.865 42 64.65h16.623l-41.063-64.65h-17.56Z" fill="#FFF"/>
				<path d="m125.627 60.69-38.212 65.299h16.944l37.623-65.3h-16.355Z" fill="#FFF"/>
				<path d="M45.138 60.865v65.832h17.209V60.865H45.138Z" fill="#FFF"/>
				<path stroke-width="5" fill="#000" d="M47.139 43.995h13.208v13.084H47.139z"/>
				<path stroke-width="5" fill="#000" d="M47.139 130.483h13.208v13.084H47.139z"/>
				<path d="M125.281 60.865v65.832h17.209V60.865h-17.21Z" fill="#FFF"/>
				<path stroke-width="5" fill="#000" d="M127.282 43.995h13.208v13.084h-13.208z"/>
				<path stroke-width="5" fill="#000" d="M127.282 130.483h13.208v13.084h-13.208z"/>
				<path stroke-width="5" fill="#000" d="M88.776 129.697h13.07v13.084h-13.07z"/>
			</g>
		</g>
	</g>
</svg>
