<svg xmlns="http://www.w3.org/2000/svg" xmlns:xlink="http://www.w3.org/1999/xlink" width="200" height="128">
	<defs>
		<radialGradient id="a" cx="197.54" cy="122.567" r=".355" gradientTransform="matrix(9.312 0 0 -9.312 -1746.174 1213.056)" gradientUnits="userSpaceOnUse">
			<stop offset="0" stop-color="#db7c7c"/>
			<stop offset="1" stop-color="#c83737"/>
		</radialGradient>
		<radialGradient id="c" cx="197.028" cy="122.567" r=".355" gradientTransform="matrix(9.312 0 0 -9.312 -1729.102 1213.056)" xlink:href="#a"/>
		<linearGradient id="b" x1="210.108" y1="117.738" x2="209.898" y2="118.122" gradientTransform="matrix(159.283 0 0 -152.825 -33350.736 18071.072)" gradientUnits="userSpaceOnUse">
			<stop offset="0" stop-color="#268d83"/>
			<stop offset="1" stop-color="#2ea19e"/>
		</linearGradient>
	</defs>
	<path d="M74.177 20.652a253.825 253.825 0 0 0-2.13 54.812h13.962C84.68 68.4 79.915 36.111 83.879 36c2.121.342 11.832 27.4 11.832 27.4a34.711 34.711 0 0 1 8.578 0S114 36.342 116.121 36c3.964.107-.8 32.393-2.13 39.46h13.962a253.825 253.825 0 0 0-2.13-54.812H112.9c-2.461.03-11.821 16.447-12.9 16.447S89.564 20.682 87.1 20.652z" fill="url(#b)"/>
	<path d="M97.246 72.159a3.3 3.3 0 1 1-3.3-3.3 3.3 3.3 0 0 1 3.3 3.3z" fill="url(#a)"/>
	<path d="M109.362 72.159a3.3 3.3 0 1 1-3.3-3.3 3.3 3.3 0 0 1 3.3 3.3z" fill="url(#c)"/>
	<path d="M125.165 21.588a248.008 248.008 0 0 1 2.451 36.477c-.038 9.973-.61 16.452-.61 16.452h-11.752l-1.263.947h13.962a253.825 253.825 0 0 0-2.13-54.812zm-37-.344c3.668 4.08 10.011 14.908 10.885 14.908-2.325-2.974-8.038-12.463-10.885-14.908zm-5.233 13.814c-3.964.106.8 32.393 2.13 39.459H72.874l-.827.947h13.962C84.687 68.433 79.963 36.433 83.82 36c-.359-.539-.669-.912-.888-.946zm32.242 0c-2.124.337-11.831 27.391-11.831 27.391a39.632 39.632 0 0 0-4.29-.267c-1.272 0-2.368.079-3.109.148l-.233 1.07a34.711 34.711 0 0 1 8.578 0s9.634-26.876 11.8-27.391c-.233-.591-.522-.936-.917-.946z" opacity=".1" style="isolation:isolate"/>
	<path d="M74.177 20.652a253.825 253.825 0 0 0-2.13 54.812l.822-.924a254 254 0 0 1 2.254-52.94H88.05a2.016 2.016 0 0 1 1.065.592c-.847-.942-1.55-1.533-2.012-1.539zm38.72 0c-2.461.03-11.821 16.447-12.9 16.447.439.561.8.946.947.946 1.075 0 10.436-16.417 12.9-16.446h11.408l.572-.947zm-28.131 16.3C87.906 41.667 95.711 63.4 95.711 63.4l.228-1.059c-1.927-5.284-9.269-25.092-11.113-25.385h-.06zm32.3 0c2.106 5.372-1.881 32.153-3.077 38.513l1.267-.989c1.616-9.485 5.509-37.425 1.81-37.524z" fill="#fff" opacity=".3" style="isolation:isolate"/>
	<path d="M35.786 90.8h2.965v16.545h-2.482V94.112l-6.894 8.2-6.893-8.2v13.236H20V90.8h2.941l6.434 7.652zm20.126 6.207v4.917H44.837v2.437a.509.509 0 0 0 .5.5h10.57v2.482H45.342a2.981 2.981 0 0 1-2.987-2.987v-7.349a2.981 2.981 0 0 1 2.987-2.987h7.583a2.981 2.981 0 0 1 2.987 2.987zm-2.481 2.436v-2.436a.511.511 0 0 0-.506-.506h-7.583a.51.51 0 0 0-.5.506v2.436zm26.054-2.436v10.341h-2.458V97.007a.516.516 0 0 0-.527-.507h-5.264a.511.511 0 0 0-.506.506v10.341h-2.481v-10.34a.511.511 0 0 0-.506-.506h-5.285a.51.51 0 0 0-.5.506v10.341h-2.487V94.02H76.5a2.981 2.981 0 0 1 2.985 2.987zm16.978 7.859v2.482h-10.57a2.981 2.981 0 0 1-2.987-2.987v-7.354a2.981 2.981 0 0 1 2.987-2.987h10.525v2.48H85.893a.511.511 0 0 0-.5.506v7.354a.51.51 0 0 0 .5.5zm17.137-7.859v10.341h-10.567a2.982 2.982 0 0 1-2.988-2.987v-4.918h11.076v-2.436a.511.511 0 0 0-.506-.506h-10.57V94.02h10.57a2.981 2.981 0 0 1 2.985 2.987zm-2.481 4.917h-8.594v2.437a.51.51 0 0 0 .506.5h8.088zm19.209 2.942v2.482h-10.57a2.981 2.981 0 0 1-2.987-2.987v-7.354a2.98 2.98 0 0 1 2.987-2.987h10.524v2.48h-10.524a.511.511 0 0 0-.506.506v7.354a.51.51 0 0 0 .506.5zm16.841-7.859v10.341h-2.482V97.007a.511.511 0 0 0-.506-.506H136.6a.511.511 0 0 0-.505.506v10.341h-2.482V89.654h2.482v4.366h8.088a3 3 0 0 1 2.986 2.987zm16.431 0v4.917h-11.08v2.437a.51.51 0 0 0 .506.5H163.6v2.482h-10.57a2.981 2.981 0 0 1-2.987-2.987v-7.349a2.98 2.98 0 0 1 2.987-2.987h7.583a2.981 2.981 0 0 1 2.987 2.987zm-2.482 2.436v-2.436a.51.51 0 0 0-.5-.506h-7.583a.511.511 0 0 0-.506.506v2.436zM180 89.654v17.694h-10.57a2.981 2.981 0 0 1-2.987-2.987v-7.354a2.98 2.98 0 0 1 2.987-2.987h8.088v-4.366zm-2.988 15.212a.51.51 0 0 0 .506-.5v-7.359a.511.511 0 0 0-.506-.506h-7.582a.511.511 0 0 0-.506.506v7.354a.51.51 0 0 0 .506.5z" fill="#574c4a"/>
</svg>
