<svg xmlns="http://www.w3.org/2000/svg" width="200" height="128">
    <path d="M76.945 58.16a1.237 1.237 0 0 0-2.474 0v2.6a1.237 1.237 0 1 0 2.474 0zm-6.8-3.409a1.244 1.244 0 0 0-2.487 0v6.007a1.244 1.244 0 0 0 2.487 0zm-6.812-4.664a1.236 1.236 0 0 0-2.472 0v13.139a1.236 1.236 0 1 0 2.472 0zm-6.813 4.664a1.236 1.236 0 1 0-2.471 0v6.007a1.236 1.236 0 1 0 2.471 0zm-6.812 3.409a1.236 1.236 0 0 0-2.471 0v2.6a1.236 1.236 0 1 0 2.471 0zm-6.8-3.409a1.24 1.24 0 0 0-2.48 0v6.007a1.24 1.24 0 0 0 2.48 0zM36.1 50.087a1.24 1.24 0 0 0-2.48 0v13.139a1.24 1.24 0 0 0 2.48 0zm-6.81 4.664a1.24 1.24 0 0 0-2.479 0v6.007a1.24 1.24 0 0 0 2.479 0zm-6.811 3.409a1.24 1.24 0 0 0-2.479 0v2.6a1.24 1.24 0 0 0 2.479 0v-2.6zm25.593 10.771a10.688 10.688 0 0 0-2.434-.315c-2.3 0-3.687 1.243-3.687 3.093 0 1.638 1.159 2.455 2.55 2.895.154.051.381.122.533.172.619.2 1.113.484 1.113.986 0 .561-.571.924-1.813.924a9.383 9.383 0 0 1-2.358-.368V78.6a14.932 14.932 0 0 0 2.7.27c1.91 0 4.1-.835 4.1-3.32a2.976 2.976 0 0 0-2.358-2.831l-.698-.219c-.411-.13-1.145-.34-1.145-.943 0-.475.544-.811 1.545-.811a8.617 8.617 0 0 1 1.952.3v-2.115zm21.1 4.81a2.582 2.582 0 1 1-2.583-2.6 2.559 2.559 0 0 1 2.583 2.6m-2.582-5.122a5.124 5.124 0 1 0 5.229 5.122 5.079 5.079 0 0 0-5.229-5.122m-33.917.355a7.583 7.583 0 0 0-2.277-.355 5.125 5.125 0 1 0 0 10.246 7.934 7.934 0 0 0 2.277-.352v-2.656a4.393 4.393 0 0 1-2.1.525 2.642 2.642 0 1 1 0-5.281 4.33 4.33 0 0 1 2.1.529zm26.062 0a7.6 7.6 0 0 0-2.275-.355 5.125 5.125 0 1 0 0 10.246 7.972 7.972 0 0 0 2.275-.352v-2.656a4.409 4.409 0 0 1-2.1.525 2.642 2.642 0 1 1 0-5.281 4.346 4.346 0 0 1 2.1.529zM38.6 78.689h-2.5v-9.895h2.5z" fill="#88898d"/>
    <path d="M103.379 78.707l-8.126-19.114v19.114h-1.706v-21.27h2.575l8.219 19.5 7.754-19.5h2.482v21.27H112.9V59.74l-7.66 18.967zm29.142-4.2c-.776 2.808-3.258 4.637-6.7 4.637-4.372 0-7.661-2.862-7.661-8.122s3.194-8.123 7.352-8.123c4.127 0 7.29 2.658 7.29 8.509h-12.937c.156 4.369 2.759 6.379 5.986 6.379a4.8 4.8 0 0 0 4.9-3.28zM119.9 70.079h11.165c-.216-3.93-2.544-5.876-5.552-5.876-2.946 0-5.3 2.035-5.613 5.876m16.817 8.628V63.345h1.365l.249 2.955a4.645 4.645 0 0 1 4.528-3.4 6 6 0 0 1 1.675.237v1.566a6.6 6.6 0 0 0-1.768-.269c-2.358 0-4.375 2.189-4.375 5.879v8.391zm9.925-11.374c.247-2.627 2.7-4.43 6.267-4.43 3.6 0 5.985 1.919 5.985 5.051v10.754h-1.365l-.247-2.54a6.41 6.41 0 0 1-5.707 2.98c-3.134 0-5.4-1.621-5.4-4.339 0-2.63 1.675-4.225 6.2-4.934l4.84-.768v-1.33c0-2.216-1.644-3.574-4.4-3.574-2.575 0-4.221 1.267-4.438 3.13zm10.578 5.909v-2.867l-4.343.709c-3.848.621-4.964 1.773-4.964 3.607 0 2.066 1.675 3.1 4.1 3.1 2.574 0 5.211-1.86 5.211-4.549m5.967 5.465v-21.27h1.675v12.169l7.724-6.261h2.265l-8.285 6.708 9.306 8.654h-2.262l-8.748-8.124v8.124zm14.8-21.27H180v2.185h-2.017zm.153 5.908h1.674v15.363h-1.674z" fill="#3eb52d"/>
</svg>
