<svg xmlns="http://www.w3.org/2000/svg" width="200" height="128">
    <path fill="#004462" d="M113.031 65.018h7.992V63.26h-7.992v-6.103h8.961v-1.785h-10.955v17.926h11.322v-1.785h-9.328v-6.495zM134.93 63.238l-1.415-.655c-1.9-.873-2.8-1.567-2.8-3.148a2.477 2.477 0 0 1 2.776-2.488 3.546 3.546 0 0 1 3.256 1.913l.029.046 1.565-.971.045-.028-.027-.046a5.333 5.333 0 0 0-4.868-2.7c-2.793 0-4.744 1.778-4.744 4.325 0 2.6 1.516 3.812 3.962 4.922l1.415.655c2.1.941 3.322 1.843 3.322 3.672 0 1.758-1.5 2.986-3.64 2.986a4.8 4.8 0 0 1-4.539-2.75l-.026-.046-1.664.888.023.046a6.5 6.5 0 0 0 6.258 3.646c3.339 0 5.583-1.917 5.583-4.77.001-2.519-1.265-4.061-4.511-5.497zM154.4 55.163a9.172 9.172 0 1 0 9.225 9.172 8.983 8.983 0 0 0-9.225-9.172zm7.153 9.172a7.488 7.488 0 0 1-2.026 5.262 7.279 7.279 0 0 1-10.23 0 7.855 7.855 0 0 1 0-10.524 7.279 7.279 0 0 1 10.23 0 7.488 7.488 0 0 1 2.026 5.262zM175.488 63.238l-1.415-.655c-1.9-.873-2.8-1.567-2.8-3.148a2.476 2.476 0 0 1 2.776-2.488 3.543 3.543 0 0 1 3.255 1.913l.029.046 1.565-.971.045-.028-.027-.046a5.331 5.331 0 0 0-4.867-2.7c-2.794 0-4.744 1.778-4.744 4.325 0 2.6 1.515 3.812 3.961 4.922l1.416.655c2.1.941 3.322 1.843 3.322 3.672 0 1.758-1.5 2.986-3.641 2.986a4.793 4.793 0 0 1-4.538-2.75l-.026-.046-1.665.888.024.046a6.5 6.5 0 0 0 6.258 3.646c3.339 0 5.582-1.917 5.582-4.77.002-2.519-1.263-4.06-4.51-5.497z"/>
    <g fill="#004462">
        <path d="M85.635 61.138v12.16h2.053v-9.325l-2.053-2.835zM85.731 54.785l-.096-.127v3.231l9.114 12.393 7.034-9.751v12.767h2.053V54.657l-9.087 12.026-9.018-11.898z"/>
    </g>
    <g fill="#00aede">
        <path d="M56.432 56.584l-10.722-6.2V62.8l10.722-6.215M44.316 62.8V50.384l-10.73 6.2 10.73 6.216M43.623 49.192L32.9 42.957V55.39l10.72-6.2M69.256 64.011L58.518 57.8v12.407l10.738-6.2M31.507 55.39V42.957l-10.8 6.235 10.8 6.2M31.507 85.027V72.6l-10.8 6.214 10.8 6.215M57.124 55.39V42.957l-10.7 6.235 10.7 6.2M69.951 77.618V65.205L59.24 71.4l10.711 6.218M31.507 70.207V57.776l-10.8 6.235 10.8 6.2M30.816 71.4L20 65.206v12.412L30.816 71.4M69.951 62.8V50.384l-10.711 6.2L69.951 62.8M69.256 49.192l-10.738-6.235V55.39l10.738-6.2M69.256 78.811L58.518 72.6v12.427l10.738-6.216M30.816 56.584L20 50.384V62.8l10.816-6.215"/>
    </g>
    <g fill="#004462">
        <path d="M57.124 70.207V57.8l-10.7 6.216 10.7 6.2M56.432 71.4L45.71 65.206v12.412L56.432 71.4M44.316 77.618V65.205l-10.73 6.2 10.73 6.218M43.623 78.811L32.9 72.6v12.427l10.72-6.216M43.623 64.011L32.9 57.8v12.407l10.72-6.2M45.71 35.565v12.411l10.722-6.213-10.722-6.2M33.586 41.763l10.73 6.213V35.565l-10.73 6.2M56.432 86.219L45.71 80.026v12.408l10.722-6.215M44.316 92.435v-12.41l-10.73 6.194 10.73 6.216M57.124 85.027V72.6l-10.7 6.214 10.7 6.215"/>
    </g>
</svg>
