<svg xmlns="http://www.w3.org/2000/svg" viewBox="-10.63 -11.13 578.76 561.76">
	<defs>
		<style>
			.cls-1{fill:#fff}
		</style>
	</defs>
	<path d="M181.6 539.6h-.7a11.24 11.24 0 0 1-2-.2h-.1l-1.6-.2a69.447 69.447 0 0 1-40.3-19.5l-1.1-1.1-49.5-61.3L13 366.7l-.5-.7a66.88 66.88 0 0 1-7.2-13.1 64.84 64.84 0 0 1-2.6-7.8v-.1c-.2-.9-.4-1.7-.6-2.6v-.1a58.11 58.11 0 0 1-1.4-10.9v-.9a63.174 63.174 0 0 1 1-12.3l.1-.6L16.3 254 45 128a58.319 58.319 0 0 1 32-39.7L255.2 2.4l3.3-.7A91.403 91.403 0 0 1 275.8 0h3.4a59.014 59.014 0 0 1 24.5 5.3l.5.2L480 89.7l.5.2a65.885 65.885 0 0 1 18.8 14.8 60.913 60.913 0 0 1 7.4 10.1l.2.3a58.074 58.074 0 0 1 5.2 12l.3 1 44.2 190.2.2 1.4a66.275 66.275 0 0 1-11.8 46.5l-.5.7-121.3 150.2a55.743 55.743 0 0 1-29.1 19.9c-.9.3-1.9.5-2.8.8l-.3.1a66.174 66.174 0 0 1-15.4 1.8l-194-.1z" class="cls-1"/>
	<path fill="#00e0c1" d="M491.7 131.6a40.285 40.285 0 0 0-3-6.7 36.208 36.208 0 0 0-4.4-5.9 41.03 41.03 0 0 0-11.6-9.1l-179.8-86A31.843 31.843 0 0 0 279 21h-.8a60.442 60.442 0 0 0-14.7 1.2L83.8 108.8a31.693 31.693 0 0 0-17.7 21.8l-3.7 16.2 216.3 117.7.3-.2 217.2-112.7z"/>
	<path fill="#00fbdb" d="M279.1 264.4v-.3l-.4.2.4.1z"/>
	<path fill="#00eec4" d="M278.7 264.3 62.4 146.6 36.6 259.7l-14.7 64.6a47.4 47.4 0 0 0-.6 7.5v.3a35.01 35.01 0 0 0 .8 6.4c.1.6.3 1.1.4 1.6a35.326 35.326 0 0 0 1.5 4.6 40.35 40.35 0 0 0 4.3 7.9L52 381.9l51 63 49.7 61.5a43.522 43.522 0 0 0 25.1 12.2c.7 0 1.3.2 2 .2H279V264.5z"/>
	<path fill="#00d1bd" d="m536.5 324.3-40.2-173-217.2 112.8v254.7h98.8a39.556 39.556 0 0 0 9.7-1.1c.6-.2 1.2-.3 1.8-.5a30.005 30.005 0 0 0 15.6-10.8l66.1-81.8 31.3-38.7 26.9-33.3a40.18 40.18 0 0 0 7.2-28.3z"/>
	<path d="m120.7 368.9 137 75.9a4.431 4.431 0 0 0 6-1.7 4.282 4.282 0 0 0 .6-2.2v-161a15.471 15.471 0 0 0-8.2-13.7l-1.6-.9-134.7-72a2.54 2.54 0 0 0-3.5 1.1 2.663 2.663 0 0 0-.3 1.2l-.9 163.2c-.1 3.7 2.6 8.5 5.6 10.1zm161.6-265.1a27.98 27.98 0 0 0-11.7 2.5l-134.2 60.5a2.561 2.561 0 0 0-1.3 3.4 2.03 2.03 0 0 0 1.2 1.2L272 243.9a.764.764 0 0 0 .5.2l.6.3.3.1.8.3h.1a18.365 18.365 0 0 0 15.2-1l139.1-73.9a3.284 3.284 0 0 0 1.4-4.4 2.942 2.942 0 0 0-1.6-1.5l-135.1-58a29.568 29.568 0 0 0-11-2.2zm160.3 88.8c-1.1-.5-2.4-.3-4 .6l-24.5 13.5a17.017 17.017 0 0 0-7.8 9.1l-37.5 87.6-37.3-46.2c-1.6-2.3-4.2-2.4-7.8-.5l-24.5 13.5a11.479 11.479 0 0 0-4 3.9 8.681 8.681 0 0 0-1.6 4.9v166.8c0 1.6.5 2.6 1.6 3a4.753 4.753 0 0 0 4-.7l27.3-15.1a11.83 11.83 0 0 0 4-3.7 8.373 8.373 0 0 0 1.6-4.8v-105l23.2 30.1c2.2 2.1 4.7 2.4 7.6.8l11.7-6.4c3.2-1.7 5.7-4.8 7.6-9.2l23.4-55.9.2 97.1.2 8.3a2.972 2.972 0 0 0 1.7 2.9 4.594 4.594 0 0 0 3.8-.5l27.3-15.8a10.914 10.914 0 0 0 3.9-3.8 8.27 8.27 0 0 0 1.5-4.8V195.7c0-1.6-.6-2.7-1.6-3.1zm-287.2-75.3-5.3-11a4.998 4.998 0 0 0-2.3-2.6 3.713 3.713 0 0 0-3.2.3 4.86 4.86 0 0 0-2.9 3.1 7.529 7.529 0 0 0 .9 4.8l4.5 9.4-2.6 1.2-5.3-11a4.998 4.998 0 0 0-2.3-2.6 3.713 3.713 0 0 0-3.2.3 4.686 4.686 0 0 0-2.8 3.1c-.3 1.3.1 3.1 1.2 5.3l4.3 8.9-2.6 1.2-8.1-16.9 2.1-1 1.5 2.1.1-.1a6.057 6.057 0 0 1 1.1-2.9 6.723 6.723 0 0 1 2.6-2.1c2.6-1.3 4.8-1.1 6.6.4l.1-.1a6.655 6.655 0 0 1 4.1-5.5 6.546 6.546 0 0 1 5-.6c1.4.5 2.7 1.9 3.7 4l5.3 11zm15.1-6.9a8.714 8.714 0 0 1-7 .6c-2.2-.8-3.9-2.6-5.2-5.3a10.811 10.811 0 0 1-1.1-7.5 7.714 7.714 0 0 1 4.2-5 7.056 7.056 0 0 1 6-.3 8.792 8.792 0 0 1 4.5 4.6l.8 1.6-11.6 5.6a7.219 7.219 0 0 0 3.7 3.8 5.9 5.9 0 0 0 4.8-.4 17.126 17.126 0 0 0 4.9-3.7l1.1 2.3a14.463 14.463 0 0 1-2.2 2.1c-.8.5-1.8 1-2.9 1.6zm-8.1-15.1a4.623 4.623 0 0 0-2.6 2.9 6.823 6.823 0 0 0 .3 4.4l8.8-4.2a6.15 6.15 0 0 0-2.9-3.2 3.835 3.835 0 0 0-3.6.1zm23.1 5.2c.5-.2.9-.5 1.3-.7a9.686 9.686 0 0 0 .9-.7l.9 2a3.528 3.528 0 0 1-1.1.9c-.5.3-1 .6-1.4.8-3.3 1.6-5.7.6-7.4-2.8L174 90l-2.4 1.2-.6-1.2 1.9-2.2-.7-4.1 1.5-.7 1.9 3.9 4.9-2.4 1 2-4.9 2.4 4.8 10a2.63 2.63 0 0 0 4.1 1.6zm17-5.9-1.7-2.2-.1.1a7.156 7.156 0 0 1-1.5 3.4 8.364 8.364 0 0 1-2.9 2.1 6.416 6.416 0 0 1-4.6.6 5.21 5.21 0 0 1-3.2-3c-1.6-3.4.2-6.5 5.6-9.3l2.8-1.5-.5-1a4.398 4.398 0 0 0-2.3-2.5 3.805 3.805 0 0 0-3.2.4 13.474 13.474 0 0 0-4.2 3.6l-1.7-1.6a16.47 16.47 0 0 1 2.2-2.4 16.655 16.655 0 0 1 2.8-1.8 7.039 7.039 0 0 1 5.1-.8c1.4.4 2.6 1.6 3.5 3.6l5.5 11.5zm-6.7 1a5.847 5.847 0 0 0 3.1-3.1 5.098 5.098 0 0 0-.4-4.3l-.7-1.5-2.5 1.3a10.275 10.275 0 0 0-3.9 3.1 3.236 3.236 0 0 0-.1 3.3 2.89 2.89 0 0 0 1.9 1.7 3.69 3.69 0 0 0 2.6-.5zm16.4-5.7-2.6 1.2-11.5-24 2.6-1.2zm10-26a5.46 5.46 0 0 1 .5 4.1 6.956 6.956 0 0 1-2.5 3.5l.1.1a7.585 7.585 0 0 1 4.9-.2 5.999 5.999 0 0 1 3.1 3 6.382 6.382 0 0 1 .1 6c-.9 1.9-2.8 3.5-5.5 4.8a18.08 18.08 0 0 1-3.4 1.3 12.423 12.423 0 0 1-3.3.4l-1.2-2.4a16.1 16.1 0 0 0 3.7-.4A25.51 25.51 0 0 0 222 83c3.9-1.9 5.1-4.3 3.6-7.4-1.3-2.7-4.1-3.1-8.4-1l-2.2 1.1-1.1-2.2 2.3-1.1a6.776 6.776 0 0 0 3.6-3.2 4.07 4.07 0 0 0 0-4 3.225 3.225 0 0 0-2.4-2 5.577 5.577 0 0 0-3.5.5 12.995 12.995 0 0 0-2.6 1.7 15.383 15.383 0 0 0-2.3 2.9l-2.1-1.1a12.662 12.662 0 0 1 2.4-3.3 14.812 14.812 0 0 1 3.5-2.5 8.478 8.478 0 0 1 5.8-1 7.604 7.604 0 0 1 3.6 3.5zm12.4 13.3a3.103 3.103 0 0 1-.3-1.8 1.836 1.836 0 0 1 1.1-1.2 2.03 2.03 0 0 1 1.7-.1c.6.2.9.6 1.3 1.3a2.368 2.368 0 0 1 .2 1.8 2.129 2.129 0 0 1-1.1 1.2 1.603 1.603 0 0 1-1.5.1 2.001 2.001 0 0 1-1.4-1.3zm-1-24a2.102 2.102 0 0 1-.2-1.5 1.962 1.962 0 0 1 .9-.9 1.901 1.901 0 0 1 1.3-.1 1.948 1.948 0 0 1 1.1 1.1 2.102 2.102 0 0 1 .2 1.5 1.591 1.591 0 0 1-.9.9 1.95 1.95 0 0 1-1.3.1 1.973 1.973 0 0 1-1.1-1.1zm13.1 20.2-2.6 1.2-8.1-16.9 2.6-1.2zm15.9-18.1c1.3 2.8 1.7 5.2 1 7.5a8.231 8.231 0 0 1-4.6 5.1 9.09 9.09 0 0 1-4.5.9 7.154 7.154 0 0 1-4.2-1.8 11.688 11.688 0 0 1-3.2-4.2c-1.3-2.8-1.7-5.2-1-7.4a9.016 9.016 0 0 1 11.4-5.5 10.04 10.04 0 0 1 5.1 5.4zm-12.8 6.1a8.504 8.504 0 0 0 3.7 4.3 4.994 4.994 0 0 0 4.6-.1 4.934 4.934 0 0 0 3-3.5 8.865 8.865 0 0 0-1.1-5.6 8.504 8.504 0 0 0-3.7-4.3 5.228 5.228 0 0 0-4.7.2 4.934 4.934 0 0 0-3 3.5 9.345 9.345 0 0 0 1.2 5.5z" class="cls-1"/>
</svg>
