<svg xmlns="http://www.w3.org/2000/svg" viewBox="157.34 157.34 606.32 247.82">
	<path fill="#2251a6" d="m660.049 329.35 92.37-159.96h-22.273l-71.21 124.62v35.34h1.113"/>
	<path fill="#ee2547" d="m261.74 177.236-92.362 159.96h22.27l71.212-124.602v-35.358h-1.12"/>
	<path fill="#b4b5b3" d="M504.058 294.01v35.34h1.112l67.449-116.756v-35.346h-1.123l-67.438 116.761"/>
	<path fill="#ee2547" d="M349.186 294.01v35.34h1.11l67.438-116.756v-35.346h-1.116l-67.432 116.761m-72.78 30.586c0 8.325 4.27 12.601 12.6 12.601h46.624V182.001c0-8.325-4.265-12.611-12.589-12.611h-46.636v155.205m154.658 0c0 8.325 4.269 12.601 12.587 12.601h46.647V182.001c0-8.325-4.276-12.611-12.6-12.611h-46.634v155.205"/>
	<path fill="#2251a6" d="M586.157 324.595c0 8.325 4.276 12.601 12.599 12.601h46.643V182.001c0-8.325-4.276-12.611-12.607-12.611h-46.635v155.205"/>
	<path fill="#040606" d="M169.378 364.9h7.075l7.033 21.076 7.232-21.075h6.868v28.227h-5.433v-18.812l-6.423 18.812h-4.599l-6.449-18.786v18.786h-5.304V364.9m35.556 0h5.898v10.918H222V364.9h5.886v28.227H222V381.26h-11.168v11.868h-5.898V364.9m30.292 0h5.9v28.227h-5.9V364.9m20.312 0h6.55l6.83 19.968 7.042-19.968h6.338l-10.615 28.227h-5.564L255.538 364.9m31.365 0h19.257v5.015h-13.369v6.172h12.579v5.066h-12.58v6.949h14.19l-.603 5.025h-19.474V364.9m30.687 19.02c.118 1.742.677 3 1.682 3.786.995.786 2.442 1.184 4.362 1.184.913 0 1.693-.095 2.322-.296.63-.195 1.144-.458 1.544-.794.396-.32.667-.713.843-1.156.19-.449.264-.94.264-1.464 0-.734-.287-1.42-.839-2.075-.54-.646-1.554-1.118-3.045-1.408l-3.65-.662c-1.453-.276-2.74-.61-3.838-1.032-1.119-.426-2.03-.961-2.78-1.644-.773-.668-1.333-1.494-1.733-2.465-.395-.97-.59-2.143-.59-3.481 0-1.346.286-2.53.811-3.56.532-1.03 1.301-1.875 2.261-2.567.954-.697 2.096-1.206 3.458-1.564 1.334-.352 2.817-.536 4.42-.536 2.044 0 3.764.24 5.133.714 1.357.481 2.49 1.09 3.3 1.882.841.774 1.484 1.678 1.884 2.706a11.89 11.89 0 0 1 .814 3.203l-5.557.716c-.308-1.565-.864-2.682-1.692-3.372-.836-.68-2.072-1.029-3.765-1.029-1.005 0-1.833.092-2.479.263-.618.173-1.162.396-1.558.67-.394.27-.66.598-.828.968a2.87 2.87 0 0 0-.235 1.147c0 1.064.303 1.855.892 2.368.592.535 1.599.943 3.027 1.224l3.87.761c3.057.604 5.283 1.586 6.699 2.938 1.429 1.358 2.14 3.314 2.14 5.88 0 1.24-.218 2.366-.69 3.417a7.54 7.54 0 0 1-2.058 2.728c-.896.776-2.046 1.378-3.418 1.828-1.36.418-2.965.636-4.817.636-3.848 0-6.79-.826-8.837-2.464-2.026-1.648-3.121-4.135-3.27-7.45h5.953M345.278 370h-8.497v-5.1h22.914v5.1h-8.502v23.127h-5.915v-23.126m29.254 11.745-3.429-10.128-3.408 10.128zm-6.08-16.846h5.62l10.59 28.227h-6.332l-2.25-6.53h-9.863l-2.267 6.53h-6.083l10.584-28.227m24.256 19.02c.12 1.742.67 3 1.682 3.786.963.786 2.425 1.184 4.365 1.184.915 0 1.687-.095 2.319-.296.64-.195 1.137-.458 1.53-.794.4-.32.693-.713.858-1.156a4.08 4.08 0 0 0 .267-1.464c0-.734-.29-1.42-.831-2.075-.548-.646-1.564-1.118-3.045-1.408l-3.686-.662c-1.424-.276-2.717-.61-3.805-1.032-1.121-.426-2.045-.961-2.797-1.644-.756-.668-1.323-1.494-1.72-2.465-.396-.97-.59-2.143-.59-3.481 0-1.346.273-2.53.815-3.56a6.992 6.992 0 0 1 2.247-2.567c.959-.697 2.105-1.206 3.44-1.564 1.36-.352 2.82-.536 4.425-.536 2.059 0 3.79.24 5.148.714 1.367.481 2.464 1.09 3.316 1.882a7.424 7.424 0 0 1 1.886 2.706c.404 1.025.674 2.098.8 3.203l-5.56.716c-.305-1.565-.853-2.682-1.691-3.372-.831-.68-2.075-1.029-3.767-1.029-1.007 0-1.824.092-2.473.263-.648.173-1.163.396-1.554.67-.4.27-.684.598-.837.968-.15.37-.237.751-.237 1.147 0 1.064.307 1.855.898 2.368.59.535 1.611.943 3.022 1.224l3.853.761c3.059.604 5.299 1.586 6.728 2.938 1.425 1.358 2.121 3.314 2.121 5.88 0 1.24-.21 2.366-.676 3.417a7.46 7.46 0 0 1-2.056 2.728c-.912.776-2.056 1.378-3.421 1.828-1.364.418-2.97.636-4.824.636-3.85 0-6.781-.826-8.824-2.464-2.052-1.648-3.126-4.135-3.286-7.45h5.96m45.452 6.764c1.522 0 2.833-.289 3.996-.837a7.723 7.723 0 0 0 2.84-2.36c.778-1.01 1.345-2.227 1.744-3.67.4-1.44.607-3.042.607-4.798 0-1.748-.208-3.33-.607-4.773-.4-1.43-.97-2.66-1.762-3.692a7.751 7.751 0 0 0-2.84-2.365c-1.156-.567-2.456-.841-3.978-.841-1.514 0-2.843.274-4.008.84a7.75 7.75 0 0 0-2.864 2.366c-.775 1.032-1.379 2.261-1.764 3.692-.373 1.443-.564 3.025-.564 4.773 0 1.756.19 3.358.564 4.799.385 1.442.987 2.66 1.739 3.67a7.72 7.72 0 0 0 2.863 2.359c1.154.548 2.491.837 4.034.837zm0 3.15c-1.903 0-3.66-.318-5.245-.964-1.6-.648-2.987-1.595-4.115-2.846-1.15-1.25-2.05-2.802-2.685-4.653-.64-1.83-.938-3.941-.938-6.32 0-2.37.304-4.473.959-6.329.652-1.841 1.557-3.396 2.701-4.658a10.893 10.893 0 0 1 4.096-2.883c1.607-.659 3.343-.995 5.227-.995 1.949 0 3.692.323 5.289.971a11.285 11.285 0 0 1 4.092 2.844c1.125 1.253 2.012 2.805 2.65 4.62.612 1.83.94 3.941.94 6.322 0 2.366-.328 4.485-.933 6.328-.632 1.87-1.49 3.423-2.639 4.699a10.884 10.884 0 0 1-4.066 2.877c-1.592.661-3.356.987-5.333.987m19.418-28.934h17.525v3.164h-13.861v9.278h13.011v3.297h-13.011v12.488h-3.664V364.9m23.473 0h17.513v3.164H484.72v9.278h13v3.297h-13v12.488h-3.67V364.9m24.919 20.168c.305 1.971 1.086 3.407 2.344 4.29 1.26.88 3.096 1.326 5.589 1.326 1.236 0 2.276-.148 3.104-.42.812-.273 1.486-.646 2.002-1.105a4.062 4.062 0 0 0 1.05-1.619c.208-.62.33-1.266.33-1.958 0-.546-.078-1.083-.196-1.598a3.275 3.275 0 0 0-.776-1.405c-.4-.422-.921-.786-1.598-1.106-.659-.314-1.523-.555-2.576-.74l-3.559-.631c-1.401-.248-2.633-.557-3.701-.957a9.903 9.903 0 0 1-2.76-1.51 5.856 5.856 0 0 1-1.68-2.309c-.383-.928-.585-2.045-.585-3.36 0-1.283.262-2.424.804-3.394a7.304 7.304 0 0 1 2.208-2.451c.92-.65 2.013-1.141 3.264-1.453a17.25 17.25 0 0 1 4.124-.482c1.873 0 3.438.198 4.685.614 1.234.41 2.26.96 3.038 1.638.79.688 1.388 1.468 1.803 2.358.407.88.73 1.786.943 2.713l-3.402.668a11.198 11.198 0 0 0-.801-2.121c-.347-.614-.77-1.134-1.327-1.542-.522-.413-1.2-.721-1.989-.925-.787-.21-1.741-.31-2.888-.31-1.278 0-2.364.113-3.236.343-.865.248-1.57.572-2.086.975-.514.401-.896.89-1.134 1.459a5.03 5.03 0 0 0-.337 1.791c0 .675.09 1.278.263 1.791.166.513.464.961.877 1.324.401.364.93.673 1.601.95.654.26 1.456.486 2.428.67l3.97.705c2.91.552 5.077 1.475 6.44 2.759 1.37 1.28 2.03 3.157 2.03 5.634 0 1.14-.188 2.203-.625 3.195-.443.995-1.102 1.847-1.943 2.59-.86.738-1.945 1.325-3.224 1.74-1.303.423-2.805.629-4.568.629-1.664 0-3.164-.16-4.508-.498-1.364-.33-2.557-.844-3.568-1.557a8.303 8.303 0 0 1-2.418-2.748c-.586-1.11-.967-2.439-1.088-3.963h3.676M530.5 364.9h3.667v11.933h14.169V364.9h3.686v28.227h-3.686v-12.88h-14.17v12.88H530.5V364.9m40.967 25.784c1.521 0 2.83-.289 3.983-.837a7.649 7.649 0 0 0 2.848-2.36c.78-1.01 1.352-2.227 1.753-3.67.401-1.44.598-3.042.598-4.798 0-1.748-.197-3.33-.598-4.773-.401-1.43-.972-2.66-1.756-3.692a7.91 7.91 0 0 0-2.856-2.365c-1.159-.567-2.45-.841-3.972-.841-1.515 0-2.84.274-4.015.84a7.552 7.552 0 0 0-2.86 2.366c-.78 1.032-1.385 2.261-1.765 3.692-.377 1.443-.562 3.025-.562 4.773 0 1.756.185 3.358.562 4.799.38 1.442.982 2.66 1.743 3.67a7.637 7.637 0 0 0 2.864 2.359c1.142.548 2.481.837 4.033.837zm0 3.15c-1.908 0-3.664-.318-5.254-.964a11.287 11.287 0 0 1-4.12-2.846c-1.135-1.25-2.039-2.802-2.672-4.653-.64-1.83-.951-3.941-.951-6.32 0-2.37.324-4.473.972-6.329.648-1.841 1.563-3.396 2.692-4.658 1.136-1.274 2.508-2.227 4.115-2.883 1.586-.659 3.34-.995 5.218-.995 1.943 0 3.69.323 5.287.971a11.43 11.43 0 0 1 4.097 2.844c1.116 1.253 2.01 2.805 2.645 4.62.612 1.83.948 3.941.948 6.322 0 2.366-.33 4.485-.932 6.328-.639 1.87-1.5 3.423-2.647 4.699a10.942 10.942 0 0 1-4.067 2.877c-1.596.661-3.359.987-5.331.987m29.034-15.575c1.241 0 2.29-.12 3.11-.368.825-.254 1.483-.608 1.965-1.06.458-.469.808-1.02.982-1.686.187-.647.268-1.383.268-2.199 0-.792-.093-1.481-.308-2.083a3.425 3.425 0 0 0-1.101-1.563c-.505-.427-1.21-.76-2.072-.984-.876-.222-1.993-.323-3.333-.323h-5.535v10.266zm-9.614-13.36h9.237c2.096 0 3.833.235 5.17.709 1.332.478 2.407 1.088 3.177 1.84a5.942 5.942 0 0 1 1.592 2.553c.304.948.451 1.912.451 2.888 0 1.79-.379 3.317-1.144 4.577-.755 1.277-1.984 2.268-3.672 2.972l5.923 12.689h-4.066l-5.354-11.818a11.13 11.13 0 0 1-1.088.098c-.39.019-.75.023-1.081.023h-5.555v11.697h-3.59V364.9m26.124 0h18.296v3.164h-14.615v8.889h13.825v3.25h-13.825v9.767h15.383l-.607 3.157h-18.457V364.9m32.011 0h4.104l5.879 23.202 6.142-23.09h3.89l6.094 23.09 5.857-23.202h3.86l-7.805 28.227H673.2l-6.276-23.606-6.166 23.606h-3.716l-8.019-28.227m40.622 0h3.65v28.227h-3.65V364.9m11 0h3.592l14.32 22.411V364.9h3.538v28.227h-3.492l-14.456-22.302v22.302h-3.502V364.9m37.934 25.07c3.507 0 6.049-.983 7.654-2.948 1.593-1.954 2.395-4.664 2.395-8.101 0-1.715-.17-3.24-.52-4.592-.358-1.33-.912-2.47-1.662-3.408-.732-.924-1.693-1.634-2.885-2.125-1.19-.492-2.607-.732-4.234-.732h-6.203v21.906zm-9.138-25.07h9.88c2.033 0 3.875.28 5.495.854a10.671 10.671 0 0 1 4.133 2.583c1.096 1.163 1.97 2.612 2.577 4.354.607 1.731.894 3.779.894 6.127 0 2.365-.307 4.445-.96 6.25-.65 1.787-1.566 3.275-2.784 4.463-1.21 1.183-2.691 2.076-4.426 2.677-1.726.61-3.697.919-5.846.919h-8.963V364.9m4.646-43.637h2.62l5.638 13.5 5.684-13.5h2.587v15.932h-1.792v-13.064l-5.674 13.064h-1.677l-5.593-13.024v13.024h-1.793zm-10.036 1.832h-5.495v-1.832h13.023v1.832h-5.457v14.1h-2.071v-14.1"/>
</svg>
