<svg xmlns="http://www.w3.org/2000/svg" width="200" height="128">
	<path d="M46 50.93V63.2H33.58V50.93z" fill="#7eba02"/>
	<path d="M32.34 50.93v12.28H20V50.93z" fill="#f25022"/>
	<path d="M45.91 64.51v12.26H33.62V64.51z" fill="#ffb902"/>
	<path d="M32.31 76.76H20V64.5h12.31z" fill="#00a4ef"/>
	<path d="M180.23 67.54a1 1 0 0 0-.09.18 4.82 4.82 0 0 1-4 4 8.67 8.67 0 0 1-5-.5.59.59 0 0 1-.45-.66v-2c.29.17.52.32.77.45a5.17 5.17 0 0 0 4.24.45 2.61 2.61 0 0 0 1.8-2.93 2.55 2.55 0 0 0-2.16-2.2 13.22 13.22 0 0 0-3.82 0h-.28c.18-2.74.36-5.46.55-8.21h7.71v2.21H174l-.3 3.67c1 .07 1.92.06 2.84.22a4.14 4.14 0 0 1 3.62 3.78.91.91 0 0 0 .07.14z" fill="#737373"/>
	<path d="M62 67.63c.65-1.6 1.27-3.1 1.88-4.59.9-2.19 1.8-4.37 2.68-6.56a.51.51 0 0 1 .57-.38h3.29v15.5h-2.61v-12h-.09l-.18.41q-2.22 5.59-4.43 11.19c-.13.32-.29.48-.65.44s-1 .1-1.3-.1-.37-.75-.53-1.14L56.4 60c0-.13-.11-.25-.22-.5v12.1h-2.49V56.13h3.42a.55.55 0 0 1 .63.41c1.36 3.54 2.74 7.08 4.11 10.61zm74.13-4.96h-3.87v8.93h-2.69v-8.95h-1.85V60.5h1.85V59a3.81 3.81 0 0 1 4.06-4c.4 0 .8.05 1.2.09.23 0 .34.14.33.4v1.92c-.31-.08-.56-.16-.82-.21a1.6 1.6 0 0 0-2.06 1.46 15.92 15.92 0 0 0 0 1.83h3.86v-2a.56.56 0 0 1 .5-.68c.71-.17 1.4-.4 2.15-.63v3.28h2.62v2.15h-2.57v5.61a1.42 1.42 0 0 0 2 1.35l.57-.23v2c0 .09-.15.2-.25.24a5.1 5.1 0 0 1-3 .11 2.76 2.76 0 0 1-2-2.82v-5.68c-.04-.13-.03-.3-.03-.52zm32.28-4.07c-5.09-2.15-7.06 1.71-6.94 4.9a3.62 3.62 0 0 1 2.31-1.58 4.44 4.44 0 0 1 5.65 4.08 5.33 5.33 0 0 1-1.52 4.48c-2.22 2.12-7.18 2.23-8.63-2.23a11.82 11.82 0 0 1 .45-8.69 6.38 6.38 0 0 1 6.9-3.69 13 13 0 0 1 1.51.31.43.43 0 0 1 .26.31c.02.69.01 1.38.01 2.11zm-1.55 8.24h-.09v-.43a2.43 2.43 0 0 0-2-2.45 2.63 2.63 0 0 0-3 1.56 3.41 3.41 0 0 0 .79 3.56 2.45 2.45 0 0 0 3.91-.71 8.32 8.32 0 0 0 .39-1.53zM127.47 66a6.87 6.87 0 0 1-.65 3 5 5 0 0 1-3 2.62 7.21 7.21 0 0 1-4 .09 5 5 0 0 1-3.79-4.5 7.56 7.56 0 0 1 .41-3.59 5.06 5.06 0 0 1 4.25-3.26 6.79 6.79 0 0 1 3.2.19 4.88 4.88 0 0 1 3.44 4.08c.08.42.09.9.14 1.37zm-2.74.27c-.06-.61-.09-1-.16-1.46a2.7 2.7 0 0 0-2.36-2.33 2.73 2.73 0 0 0-3 1.48 4.84 4.84 0 0 0 .06 4.4 2.69 2.69 0 0 0 2.86 1.32 2.39 2.39 0 0 0 2.25-1.68 12.51 12.51 0 0 0 .35-1.73zm-18.5-.27a5.83 5.83 0 0 1-1.9 4.58 5.9 5.9 0 0 1-4.43 1.29 5.39 5.39 0 0 1-3.3-1.2 5.15 5.15 0 0 1-1.83-3.79 6.08 6.08 0 0 1 1.84-5.32 5.41 5.41 0 0 1 3.61-1.31 8.25 8.25 0 0 1 2.22.22 4.8 4.8 0 0 1 3.66 4.2c.08.44.09.88.13 1.33zm-2.75.14c0-.46-.06-.89-.14-1.31a2.7 2.7 0 0 0-2.61-2.37 2.79 2.79 0 0 0-3 2.17 5.65 5.65 0 0 0 0 3 2.66 2.66 0 0 0 2.24 2.05 2.71 2.71 0 0 0 3.38-2.18 12.82 12.82 0 0 0 .13-1.36zm50.38-2.62c.13 0 .27 0 .4.09 3 .72 3.54 3.37 2.62 5.48a4.45 4.45 0 0 1-3.07 2.48 9 9 0 0 1-5.55-.25.68.68 0 0 1-.54-.78c.05-.64 0-1.29 0-2l.44.27a5.81 5.81 0 0 0 4.46.8 2.38 2.38 0 0 0 1.43-3.8 3.19 3.19 0 0 0-2.23-1c-.81-.08-1.63-.08-2.47-.12v-2.11c.79 0 1.56-.06 2.33-.12a2.92 2.92 0 0 0 .71-.16 2.19 2.19 0 0 0-.56-4.31 4.75 4.75 0 0 0-3.07.79l-.45.27v-2.2a.33.33 0 0 1 .15-.23c1.57-.82 4.88-1.3 6.79.16a3.55 3.55 0 0 1 1.4 3.68 3.6 3.6 0 0 1-2.41 2.84l-.41.14zm-39.59-.38c-.44-.2-.82-.39-1.22-.54a3.46 3.46 0 0 0-2.11-.16 1 1 0 0 0-.83.88 1 1 0 0 0 .53 1.09c.48.27 1 .48 1.47.71s.68.31 1 .49a3 3 0 0 1 1.75 3 3.11 3.11 0 0 1-2.12 2.82 7.12 7.12 0 0 1-5.1-.09c-.09 0-.22-.16-.22-.25v-2.37c.53.25 1 .5 1.51.7a4 4 0 0 0 2.36.24.94.94 0 0 0 .86-.67 1.1 1.1 0 0 0-.42-1.23 14.34 14.34 0 0 0-1.28-.7 16.57 16.57 0 0 1-1.82-1 3.14 3.14 0 0 1-.12-4.87 5.06 5.06 0 0 1 4-1 9.9 9.9 0 0 1 1.51.32c.11 0 .27.17.27.27-.01.82-.02 1.57-.02 2.36zM86.18 68.8v2.11a.45.45 0 0 1-.21.36c-2 1-5.64 1.11-7.57-1.63-1.79-2.55-1.17-8.08 3.13-9.19a7 7 0 0 1 4.32.22.45.45 0 0 1 .35.5v2.18l-.63-.35a3.68 3.68 0 0 0-3.35-.28 3.36 3.36 0 0 0-2 3.49 5.15 5.15 0 0 0 .42 1.86 3.16 3.16 0 0 0 3.84 1.48 16.67 16.67 0 0 0 1.7-.75zm4.59 2.83h-2.39c-.3 0-.27-.19-.27-.38V60.53h2.64V62h.08l.21-.34a2.94 2.94 0 0 1 3.31-1.33.44.44 0 0 1 .27.32V63c-.33-.1-.61-.22-.91-.29A2.17 2.17 0 0 0 91 64.3a5.79 5.79 0 0 0-.22 1.7v5.16zm-15.15-.03H73V60.52h2.6zm.31-14.28a1.52 1.52 0 0 1-1.61 1.49 1.54 1.54 0 0 1-1.6-1.51 1.57 1.57 0 0 1 1.63-1.54 1.52 1.52 0 0 1 1.58 1.56z" fill="#737373"/>
</svg>
