<svg xmlns="http://www.w3.org/2000/svg" xmlns:xlink="http://www.w3.org/1999/xlink" width="200" height="128"><defs><style>.cls-1{fill:#706d6e;}.cls-2{fill:#5059c9;}.cls-3{fill:#7b83eb;}.cls-4{opacity:0.1;}.cls-4,.cls-5{isolation:isolate;}.cls-5{opacity:0.2;}.cls-6{fill:url(#linear-gradient);}.cls-7{fill:#fff;}</style><linearGradient id="linear-gradient" x1="77.8" y1="-964.95" x2="95.83" y2="-933.72" gradientTransform="translate(0 995.33)" gradientUnits="userSpaceOnUse"><stop offset="0" stop-color="#5a62c3"/><stop offset="0.5" stop-color="#4d55bd"/><stop offset="1" stop-color="#3940ab"/></linearGradient></defs><path class="cls-1" d="M80.34,87.7h-4.4v12.58H72.46V87.7H68.09V84.88H80.34Zm9.64,8H82.81c.11,1.59,1.12,2.39,3,2.39A5.84,5.84,0,0,0,89,97.28v2.45a8.33,8.33,0,0,1-4,.82A5.13,5.13,0,0,1,79.44,95,5.9,5.9,0,0,1,81,90.61,5.33,5.33,0,0,1,84.94,89a4.83,4.83,0,0,1,3.73,1.43A5.54,5.54,0,0,1,90,94.32Zm-3.14-2.09c0-1.57-.64-2.36-1.92-2.36a1.84,1.84,0,0,0-1.41.68,3,3,0,0,0-.72,1.68Zm14.31,6.62H97.94V98.7h0a3.59,3.59,0,0,1-3.28,1.85,3.43,3.43,0,0,1-2.52-.91,3.24,3.24,0,0,1-.91-2.42c0-2.13,1.26-3.37,3.79-3.7l3-.39c0-1.21-.65-1.81-1.95-1.81a6.68,6.68,0,0,0-3.74,1.17V89.94a8.22,8.22,0,0,1,1.94-.65A10.61,10.61,0,0,1,96.45,89c3.14,0,4.7,1.57,4.7,4.7ZM98,95.81v-.74l-2,.26c-1.11.14-1.66.64-1.66,1.49a1.24,1.24,0,0,0,.4,1,1.56,1.56,0,0,0,1.1.37,2,2,0,0,0,1.55-.66A2.38,2.38,0,0,0,98,95.81Zm23.35,4.47h-3.39V94c0-1.6-.58-2.4-1.76-2.4a1.61,1.61,0,0,0-1.36.72,3,3,0,0,0-.53,1.8v6.15h-3.39V93.94c0-1.55-.58-2.33-1.73-2.33a1.64,1.64,0,0,0-1.39.69,3,3,0,0,0-.53,1.87v6.11h-3.39v-11h3.39V91h0a4,4,0,0,1,1.47-1.43,4.08,4.08,0,0,1,2.08-.56,3.17,3.17,0,0,1,3.19,2,4.09,4.09,0,0,1,3.7-2q3.59,0,3.59,4.43Zm2-.29V97.24a7,7,0,0,0,1.67.75,5.4,5.4,0,0,0,1.58.25,3.29,3.29,0,0,0,1.42-.25.78.78,0,0,0,.52-.75.74.74,0,0,0-.23-.54,2.35,2.35,0,0,0-.61-.37,5.92,5.92,0,0,0-.81-.29c-.3-.09-.58-.18-.85-.29a9.06,9.06,0,0,1-1.16-.53,3.27,3.27,0,0,1-.83-.66,2.76,2.76,0,0,1-.52-.87,3.45,3.45,0,0,1-.18-1.18,3,3,0,0,1,.41-1.59,3.28,3.28,0,0,1,1.07-1.09,4.93,4.93,0,0,1,1.54-.62,8.07,8.07,0,0,1,1.8-.2,10.76,10.76,0,0,1,1.48.11,12.63,12.63,0,0,1,1.48.33v2.62a5.8,5.8,0,0,0-2.82-.75,3.06,3.06,0,0,0-.63.06,2.27,2.27,0,0,0-.52.17,1,1,0,0,0-.36.29.74.74,0,0,0-.13.41.73.73,0,0,0,.2.51,1.39,1.39,0,0,0,.5.37,4.32,4.32,0,0,0,.69.28l.76.25a10.11,10.11,0,0,1,1.23.52,4.35,4.35,0,0,1,.94.65,2.69,2.69,0,0,1,.6.89,3.07,3.07,0,0,1,.21,1.2,3.16,3.16,0,0,1-.43,1.67,3.39,3.39,0,0,1-1.13,1.13,5.07,5.07,0,0,1-1.62.63,9.14,9.14,0,0,1-1.9.2A9.89,9.89,0,0,1,123.27,100Z"/><path class="cls-2" d="M110.67,39.72h13.94A2.39,2.39,0,0,1,127,42.11h0v12.7a8.77,8.77,0,0,1-8.77,8.77h0a8.77,8.77,0,0,1-8.77-8.77h0V41a1.25,1.25,0,0,1,1.25-1.25Z"/><circle class="cls-2" cx="120.09" cy="31.56" r="5.65"/><circle class="cls-3" cx="102.51" cy="29.05" r="8.16"/><path class="cls-3" d="M113.4,39.72h-23a2.36,2.36,0,0,0-2.3,2.42V56.63a13.83,13.83,0,1,0,27.63,0V42.14A2.36,2.36,0,0,0,113.4,39.72Z"/><path class="cls-4" d="M103.14,39.72V60a2.31,2.31,0,0,1-1.43,2.12,2.19,2.19,0,0,1-.87.18H89.17c-.16-.42-.31-.83-.43-1.26a15.24,15.24,0,0,1-.67-4.45V42.13a2.36,2.36,0,0,1,2.3-2.41Z"/><path class="cls-5" d="M101.88,39.72V61.28a2.3,2.3,0,0,1-2.29,2.3H89.77c-.22-.41-.42-.83-.6-1.25a12.49,12.49,0,0,1-.43-1.26,15.24,15.24,0,0,1-.67-4.45V42.13a2.36,2.36,0,0,1,2.3-2.41Z"/><path class="cls-5" d="M101.88,39.72V58.77a2.31,2.31,0,0,1-2.29,2.3H88.74a15.24,15.24,0,0,1-.67-4.45V42.13a2.36,2.36,0,0,1,2.3-2.41Z"/><path class="cls-5" d="M100.63,39.72V58.77a2.31,2.31,0,0,1-2.3,2.3H88.74a15.24,15.24,0,0,1-.67-4.45V42.13a2.36,2.36,0,0,1,2.3-2.41Z"/><path class="cls-4" d="M103.14,33.23v4c-.21,0-.41,0-.63,0l-.63,0a5.92,5.92,0,0,1-1.25-.2A8.12,8.12,0,0,1,95,32.19a7.13,7.13,0,0,1-.41-1.26h6.27A2.31,2.31,0,0,1,103.14,33.23Z"/><path class="cls-5" d="M101.88,34.48v2.7a5.92,5.92,0,0,1-1.25-.2A8.12,8.12,0,0,1,95,32.19h4.61A2.3,2.3,0,0,1,101.88,34.48Z"/><path class="cls-5" d="M101.88,34.48v2.7a5.92,5.92,0,0,1-1.25-.2A8.12,8.12,0,0,1,95,32.19h4.61A2.3,2.3,0,0,1,101.88,34.48Z"/><path class="cls-5" d="M100.63,34.48V37A8.12,8.12,0,0,1,95,32.19h3.35A2.3,2.3,0,0,1,100.63,34.48Z"/><path class="cls-6" d="M75.3,32.19h23a2.3,2.3,0,0,1,2.3,2.3v23a2.3,2.3,0,0,1-2.3,2.3h-23a2.3,2.3,0,0,1-2.3-2.3v-23A2.3,2.3,0,0,1,75.3,32.19Z"/><path class="cls-7" d="M92.87,41h-4.6V53.48H85.34V41H80.76V38.52H92.87Z"/></svg>
