<svg width="622" height="622" xmlns="http://www.w3.org/2000/svg">
	<g fill="none" fill-rule="nonzero">
		<path d="M105.144 462v-27.168h.288l7.104 20.448h6.432l7.152-20.448h.288V462h6.192v-33.312h-9.888l-6.72 19.68h-.288l-6.528-19.68H99V462h6.144Zm41.52-33.168c0-2.928-.72-3.216-3.407-3.216-2.688 0-3.408.288-3.408 3.216 0 2.804.682 3.242 3.2 3.263l.208.001c2.688 0 3.408-.384 3.408-3.264ZM146.234 462v-25.92h-6V462h6Zm16.657.48c4.656 0 7.056-1.776 8.064-4.272l.576 3.792h5.328v-36.48h-5.952v14.256c-1.008-2.544-3.216-4.176-8.016-4.176-8.448 0-10.512 6.144-10.512 13.44 0 8.112 2.064 13.44 10.512 13.44Zm1.632-4.656c-5.094 0-5.878-3.66-5.904-8.522v-.262c0-4.656.576-8.832 5.904-8.832 5.232 0 6.624 3.6 6.624 8.832 0 5.568-1.344 8.784-6.624 8.784ZM196.058 462l5.04-18.912h.288L206.378 462h7.488l7.152-25.92h-6.192l-4.56 19.728h-.288l-5.28-19.728h-6.864l-5.184 19.728h-.288l-4.512-19.728h-6.336l7.008 25.92h7.536Zm35.281.48c4.176 0 7.344-1.536 8.64-3.792l.624 3.312h5.328v-18.096c0-5.184-2.736-8.304-11.232-8.304-1.872 0-4.224.096-6.192.432v5.136c1.872-.336 3.696-.528 5.568-.528 4.8 0 5.856 1.536 5.856 4.608v1.152h-6.96c-6.72 0-10.512 2.16-10.512 8.256 0 5.232 2.976 7.824 8.88 7.824Zm1.296-4.704c-3.024 0-4.224-1.056-4.224-3.312 0-3.072 1.584-3.792 5.376-3.792h6.144v3.408c-1.104 2.256-3.648 3.696-7.296 3.696Zm19.969 13.824c8.592 0 11.232-3.168 14.304-11.472l8.88-24.048h-6.336l-6.336 19.488h-.288l-6.768-19.488h-6.624l10.224 25.776c-.96 3.072-2.64 4.56-7.056 4.56v5.184Zm48.29-9.12c8.687 0 12.48-3.312 12.48-9.84 0-6.336-2.065-8.544-9.84-10.464-5.28-1.296-6.049-2.064-6.049-4.608 0-3.312 1.824-4.128 5.856-4.128 2.88 0 6.576.624 8.304 1.248v-5.328c-1.728-.624-4.896-1.2-8.496-1.2-7.728 0-11.808 2.784-11.808 9.552 0 5.856 2.208 7.824 9.216 9.456 5.472 1.392 6.576 2.256 6.576 5.376 0 3.408-1.824 4.512-6.432 4.512-3.504 0-7.584-.624-9.6-1.392v5.616c1.872.624 5.856 1.2 9.792 1.2Zm29.952 0c4.224 0 7.968-.816 9.504-1.728v-4.896c-1.776.864-5.328 1.776-8.448 1.776-5.184 0-7.296-1.968-7.44-6.336l16.992-1.104c.144-.912.24-2.112.24-3.408 0-6.096-1.872-11.184-10.848-11.184-7.872 0-12.432 2.928-12.432 13.44s4.56 13.44 12.432 13.44Zm-6.384-15.456c.144-4.464 1.584-6.816 6.384-6.816 4.608 0 5.28 2.736 5.28 5.952l-11.664.864ZM353.791 462v-15.408c.912-4.464 4.272-5.616 7.488-5.616h.624l.192-5.376h-.528c-3.024 0-6.24.864-7.776 5.136v-4.656h-6V462h6Zm26.4 0 9.553-25.92h-6.432l-6.576 19.728h-.288l-6.528-19.728h-6.528l9.504 25.92h7.296Zm24.193.48c4.224 0 7.968-.816 9.504-1.728v-4.896c-1.776.864-5.328 1.776-8.448 1.776-5.184 0-7.296-1.968-7.44-6.336l16.992-1.104c.144-.912.24-2.112.24-3.408 0-6.096-1.872-11.184-10.848-11.184-7.872 0-12.432 2.928-12.432 13.44s4.56 13.44 12.432 13.44ZM398 447.024c.144-4.464 1.584-6.816 6.384-6.816 4.608 0 5.28 2.736 5.28 5.952l-11.664.864ZM427.33 462v-15.408c.911-4.464 4.271-5.616 7.487-5.616h.624l.192-5.376h-.528c-3.024 0-6.24.864-7.776 5.136v-4.656h-6V462h6Zm19.824.288c1.056 0 2.016-.096 2.88-.288v-4.704a5.963 5.963 0 0 1-1.584.192c-1.68 0-2.256-.528-2.256-2.976V425.52h-6v30.432c0 4.416 1.824 6.336 6.96 6.336Zm18.433.192c4.224 0 7.968-.816 9.504-1.728v-4.896c-1.776.864-5.328 1.776-8.448 1.776-5.184 0-7.296-1.968-7.44-6.336l16.992-1.104c.144-.912.24-2.112.24-3.408 0-6.096-1.872-11.184-10.848-11.184-7.872 0-12.432 2.928-12.432 13.44s4.56 13.44 12.432 13.44Zm-6.384-15.456c.144-4.464 1.584-6.816 6.384-6.816 4.608 0 5.28 2.736 5.28 5.952l-11.664.864Zm30.097 15.264c6.528 0 10.272-2.16 10.272-7.968 0-4.848-1.728-6.528-7.488-7.92-4.032-1.008-4.848-1.296-4.848-3.36 0-2.16 1.248-2.832 4.56-2.832 2.352 0 5.04.432 6.432.96l.288-4.704c-1.296-.528-4.176-.864-6.912-.864-7.056 0-9.984 2.832-9.984 7.488 0 4.32 1.44 6.144 7.008 7.392 4.368 1.008 5.28 1.584 5.28 4.032s-1.584 3.072-4.896 3.072c-2.352 0-5.472-.432-7.728-1.152v5.04c2.064.528 5.136.816 8.016.816Zm23.328 0c6.528 0 10.272-2.16 10.272-7.968 0-4.848-1.728-6.528-7.488-7.92-4.032-1.008-4.848-1.296-4.848-3.36 0-2.16 1.248-2.832 4.56-2.832 2.352 0 5.04.432 6.432.96l.288-4.704c-1.296-.528-4.176-.864-6.912-.864-7.056 0-9.984 2.832-9.984 7.488 0 4.32 1.44 6.144 7.008 7.392 4.368 1.008 5.28 1.584 5.28 4.032s-1.584 3.072-4.896 3.072c-2.352 0-5.472-.432-7.728-1.152v5.04c2.064.528 5.136.816 8.016.816Z" fill="#526A89"/>
		<path d="M379.611 346.406h1.69c1.69.844 4.224 1.688 5.07 3.375 2.534 4.219-.846 9.281-5.07 11.813C360.179 374.25 335.679 381 311.178 381c-36.33 0-70.124-14.344-95.47-39.656C190.363 316.03 176 282.28 176 246c0-36.281 14.363-70.031 39.708-95.344 25.346-25.312 59.14-39.656 95.47-39.656 36.329 0 70.968 15.188 96.314 40.5 25.345 25.312 39.708 59.063 39.708 95.344 0 26.156-7.604 51.469-21.966 73.406-.845 1.688-3.38 3.375-5.07 3.375-1.69.844-4.224 0-5.914-.844-4.224-3.375-.844-10.125.845-11.812 12.673-19.406 19.432-41.344 19.432-64.125 0-16.031-3.38-31.219-10.138-46.406-5.914-14.344-15.208-27.844-27.036-38.813-10.983-10.969-24.5-20.25-38.863-27-15.208-5.906-30.415-9.281-46.468-9.281-16.052 0-31.26 3.375-46.467 10.125-14.362 5.906-27.88 15.187-38.863 27-10.984 10.969-20.277 24.469-27.036 38.812-6.759 15.188-10.138 30.375-10.138 46.406 0 16.032 3.38 31.22 10.138 46.407 5.914 14.344 15.208 27.844 27.036 38.812 11.828 10.969 24.5 20.25 38.863 27 15.208 6.75 30.415 10.125 46.467 10.125 25.346 0 50.692-12.656 63.365-21.094 1.69-1.687 2.534-2.53 4.224-2.53Z" fill="#526A89"/>
		<path d="M403.64 238.154a7.603 7.603 0 0 1 0 10.756l-33.732 33.732-26.847-26.846a4.817 4.817 0 0 0-6.666-.159l-.155.149-12.957 12.958c-5.649 5.648-14.807 5.648-20.455 0-5.648-5.649-5.648-14.806 0-20.455l13.29-13.29a7.232 7.232 0 0 0 .005-10.232c-2.818-2.818-7.405-2.822-10.232.006l-13.625 13.625a7.375 7.375 0 0 0-.325.346c-10.632 11.34-10.412 29.155.66 40.227 11.068 11.068 28.875 11.292 40.216.67l.01.012 6.819-6.818 20.035 20.033-42.103 42.103a7.603 7.603 0 0 1-10.756 0l-86.061-86.06a7.603 7.603 0 0 1 0-10.757l32.803-32.803 27.266 27.266a4.816 4.816 0 0 0 6.821.01l12.958-12.958c5.649-5.648 14.806-5.648 20.455 0 5.648 5.648 5.648 14.806 0 20.454l-13.29 13.29a7.232 7.232 0 0 0-.006 10.233c2.819 2.818 7.406 2.821 10.233-.006l13.625-13.625c.113-.113.221-.228.325-.346 10.632-11.34 10.412-29.155-.66-40.227-11.069-11.069-28.875-11.292-40.216-.671l-.011-.011-6.818 6.818-20.455-20.454 43.031-43.03a7.603 7.603 0 0 1 10.756 0l86.061 86.06Z" fill="#526A89"/>
		<path d="M368.069 230.603c3.052-1.284 5.7-.541 7.293 2.14.308.516.311 1.156.008 1.678a1.72 1.72 0 0 1-1.48.846 1.72 1.72 0 0 1-1.488-.833c-.688-1.16-1.47-1.381-2.983-.743-.851.358-1.176 1.352-1.404 4.746l4.22.001c.983 0 1.78.688 1.78 1.536 0 .849-.797 1.536-1.78 1.536l-4.428.002c-.176 2.209-.385 3.583-.82 5.419-1.68 7.063-3.635 9.94-6.807 9.94-1.905 0-3.488-1.331-4.906-3.714a1.654 1.654 0 0 1-.009-1.681 1.72 1.72 0 0 1 1.48-.849 1.72 1.72 0 0 1 1.489.833c.867 1.462 1.569 2.05 1.946 2.05.993 0 2.124-1.663 3.47-7.342.37-1.562.56-2.772.72-4.657h-2.808c-.982 0-1.778-.688-1.778-1.537 0-.848.796-1.536 1.778-1.536h3.021c.318-4.938.887-6.744 3.486-7.835Zm12.2 15.515c.438 0 .858.183 1.168.507a1.782 1.782 0 0 1 0 2.44l-2.325 2.431 2.325 2.431a1.78 1.78 0 0 1 .001 2.438 1.596 1.596 0 0 1-2.33.001l-2.325-2.433-2.345 2.453a1.599 1.599 0 0 1-2.312-.021 1.783 1.783 0 0 1-.02-2.42l2.343-2.454-2.325-2.432a1.78 1.78 0 0 1 0-2.436 1.595 1.595 0 0 1 2.328 0l2.326 2.431 2.323-2.429c.31-.324.73-.507 1.168-.507Z" fill="#FFF"/>
	</g>
</svg>
