<svg xmlns="http://www.w3.org/2000/svg" xml:space="preserve" width="1122.52" height="793.701">
	<defs>
		<clipPath clipPathUnits="userSpaceOnUse" id="a">
			<path d="M0 595.276h841.89V0H0Z"/>
		</clipPath>
		<clipPath clipPathUnits="userSpaceOnUse" id="b">
			<path d="m573.393 325.969-76.351-161.664 90.956 151.041 76.683 163.657z"/>
		</clipPath>
		<clipPath clipPathUnits="userSpaceOnUse" id="d">
			<path d="M0 595.276h841.89V0H0Z"/>
		</clipPath>
		<linearGradient x1="0" y1="0" x2="1" y2="0" gradientUnits="userSpaceOnUse" gradientTransform="matrix(167.63934 0 0 -167.63934 497.041 321.654)" spreadMethod="pad" id="c">
			<stop style="stop-opacity:1;stop-color:#fff" offset="0"/>
			<stop style="stop-opacity:1;stop-color:#d8292f" offset=".252"/>
			<stop style="stop-opacity:1;stop-color:#d8292f" offset=".735"/>
			<stop style="stop-opacity:1;stop-color:#fff" offset="1"/>
		</linearGradient>
	</defs>
	<path d="M0 0v130.62h-.412L-46.729 0h-12.792l-46.524 130.62h-.413V0h-11.966v139.77h21.87L-52.919 14.6h.412l43.841 125.17h21.252V0Z" style="fill:#d8292f;fill-opacity:1;fill-rule:nonzero;stroke:none" transform="matrix(1.33333 0 0 -1.33333 222.994 487.482)"/>
	<path d="M222.631 369.434h12.792v-139.77h-12.792z" style="fill:#d8292f;fill-opacity:1;fill-rule:nonzero;stroke:none" transform="matrix(1.33333 0 0 -1.33333 0 793.701)"/>
	<g clip-path="url(#a)" transform="matrix(1.33333 0 0 -1.33333 0 793.701)">
		<path d="M0 0c14.029 0 38.581 2.53 38.581 27.643 0 23.943-20.837 27.253-38.993 27.253h-27.612V0Zm42.915-74.361L8.253-10.512h-36.277v-63.849h-12.792V65.408H-2.27c37.757 0 53.851-13.044 53.851-37.57 0-19.468-11.968-30.758-30.536-35.624l36.517-66.575z" style="fill:#d8292f;fill-opacity:1;fill-rule:nonzero;stroke:none" transform="translate(319.734 304.026)"/>
		<path d="M0 0h48.101L24.247 74.556h-.393Zm66.236-56.453L51.451-10.511H-3.153l-14.785-45.942h-12.223L15.18 83.316h18.135L79.052-56.453Z" style="fill:#d8292f;fill-opacity:1;fill-rule:nonzero;stroke:none" transform="translate(422.204 286.118)"/>
		<path d="M652.984 369.434h12.792v-139.77h-12.792z" style="fill:#d8292f;fill-opacity:1;fill-rule:nonzero;stroke:none"/>
		<path d="M0 0h47.138L23.762 74.556h-.386Zm64.911-56.453L50.422-10.511H-3.092l-14.49-45.942H-29.56L14.875 83.316h17.773L77.47-56.453Z" style="fill:#d8292f;fill-opacity:1;fill-rule:nonzero;stroke:none" transform="translate(725.491 286.118)"/>
	</g>
	<g clip-path="url(#b)" transform="matrix(1.33333 0 0 -1.33333 0 793.701)">
		<path d="m573.393 325.969-76.351-161.664 90.956 151.041 76.683 163.657z" style="fill:url(#c);stroke:none"/>
	</g>
	<g clip-path="url(#d)" transform="matrix(1.33333 0 0 -1.33333 0 793.701)">
		<path d="M0 0h-14.213l-77.163 139.77h14.211z" style="fill:#d8292f;fill-opacity:1;fill-rule:nonzero;stroke:none" transform="translate(616.227 229.665)"/>
		<path d="M0 0h-28.231v-19.125h21.635v-4.205h-21.635v-22.766H.701v-4.205h-33.604V4.205H0Z" style="fill:#2d2a26;fill-opacity:1;fill-rule:nonzero;stroke:none" transform="translate(97.467 184.254)"/>
		<path d="M0 0h-28.231v-19.125h21.635v-4.205h-21.635v-22.766H.701v-4.205h-33.604V4.205H0Z" style="fill:#2d2a26;fill-opacity:1;fill-rule:nonzero;stroke:none" transform="translate(253.096 184.254)"/>
		<path d="M0 0h-28.231v-19.125h21.635v-4.205h-21.635v-22.766H.701v-4.205h-33.605V4.205H0Z" style="fill:#2d2a26;fill-opacity:1;fill-rule:nonzero;stroke:none" transform="translate(366.585 184.254)"/>
		<path d="M0 0v-45.941h12.111c9.266 0 19.7 4.828 19.7 23.749C31.811-8.41 24.102 0 10.164 0Zm36.716-22.192c0-21.647-13.081-28.032-24.605-28.032H-4.672V4.282H9.931c14.95 0 26.785-8.176 26.785-26.474" style="fill:#2d2a26;fill-opacity:1;fill-rule:nonzero;stroke:none" transform="translate(115.424 184.177)"/>
		<path d="m0 0-3.865-1.713C-6.676 5.996-11.666 9.733-18.833 9.733c-10.26 0-17.153-8.565-17.153-24.372 0-16.118 7.103-23.749 16.801-23.749 8.011 0 15.742 5.373 15.742 18.611v.862h-15.474v4.204H.843V-41.58h-3.436v10.442c-3.378-7.086-9.986-11.455-16.943-11.455-9.628 0-21.012 6.853-21.012 27.954 0 20.012 10.752 28.577 21.785 28.577C-10.963 13.938-3.725 10.123 0 0" style="fill:#2d2a26;fill-opacity:1;fill-rule:nonzero;stroke:none" transform="translate(203.608 175.534)"/>
		<path d="m0 0-3.865-1.713c-2.811 7.709-7.8 11.446-14.968 11.446-10.26 0-17.153-8.565-17.153-24.372 0-16.118 7.103-23.749 16.801-23.749 8.011 0 15.742 5.373 15.742 18.611v.862h-15.474v4.204H.843V-41.58h-3.436v10.442c-3.378-7.086-9.986-11.455-16.943-11.455-9.628 0-21.012 6.853-21.012 27.954 0 20.012 10.752 28.577 21.785 28.577C-10.963 13.938-3.725 10.123 0 0" style="fill:#2d2a26;fill-opacity:1;fill-rule:nonzero;stroke:none" transform="translate(733.678 175.534)"/>
		<path d="M0 0h-17.286v-50.301h-4.672V0h-17.286v4.205H0Z" style="fill:#2d2a26;fill-opacity:1;fill-rule:nonzero;stroke:none" transform="translate(321.201 184.254)"/>
		<path d="m0 0-4.287-1.324c-2.881 8.41-8.433 11.991-15.109 11.991-9.697 0-16.871-8.176-16.871-23.826 0-16.275 7.244-23.983 16.801-23.983 7.8 0 13.493 4.283 16.163 13.16L.914-25.54C-2.6-36.753-10.822-41.503-19.466-41.503c-9.557 0-21.363 6.853-21.363 28.344 0 20.012 10.611 28.187 21.433 28.187C-12.087 15.028-3.795 11.446 0 0" style="fill:#2d2a26;fill-opacity:1;fill-rule:nonzero;stroke:none" transform="translate(417.719 174.444)"/>
		<path d="M0 0h-4.75v26.24h-29.361V0h-4.672v54.506h4.672V30.445H-4.75v24.061H0Z" style="fill:#2d2a26;fill-opacity:1;fill-rule:nonzero;stroke:none" transform="translate(469.442 133.954)"/>
		<path d="M0 0h-6.478l-28.561 50.582V0h-4.517v54.506h7.663L-4.594 5.98v48.526H0Z" style="fill:#2d2a26;fill-opacity:1;fill-rule:nonzero;stroke:none" transform="translate(525.335 133.954)"/>
		<path d="M0 0c0-16.118 7.666-24.139 17.363-24.139 9.558 0 17.365 8.098 17.365 23.983 0 16.118-7.666 24.138-17.365 24.138C7.666 23.982 0 15.885 0 0m39.359-.156c0-20.167-11.173-28.188-21.996-28.188C7.736-28.344-4.562-21.413-4.562 0c0 20.167 11.174 28.187 21.925 28.187 9.699 0 21.996-6.93 21.996-28.343" style="fill:#2d2a26;fill-opacity:1;fill-rule:nonzero;stroke:none" transform="translate(543.656 161.285)"/>
		<path d="M0 0c0-16.118 7.666-24.139 17.363-24.139 9.558 0 17.365 8.098 17.365 23.983 0 16.118-7.666 24.138-17.365 24.138C7.666 23.982 0 15.885 0 0m39.359-.156c0-20.167-11.173-28.188-21.996-28.188C7.736-28.344-4.562-21.413-4.562 0c0 20.167 11.174 28.187 21.925 28.187 9.699 0 21.996-6.93 21.996-28.343" style="fill:#2d2a26;fill-opacity:1;fill-rule:nonzero;stroke:none" transform="translate(642.803 161.285)"/>
		<path d="M0 0h27.736v-4.282H-4.672v54.506H0Z" style="fill:#2d2a26;fill-opacity:1;fill-rule:nonzero;stroke:none" transform="translate(602.013 138.236)"/>
		<path d="M0 0v-22.425h-4.749V-.077l-19.233 32.158h5.451l16.273-27.72 15.885 27.72h5.217z" style="fill:#2d2a26;fill-opacity:1;fill-rule:nonzero;stroke:none" transform="translate(767.716 156.378)"/>
	</g>
</svg>
