<svg width="400" height="124" fill="none" xmlns="http://www.w3.org/2000/svg">
	<path d="M104 0H20C8.954 0 0 8.954 0 20v84c0 11.046 8.954 20 20 20h84c11.046 0 20-8.954 20-20V20c0-11.046-8.954-20-20-20Z" fill="#FFD02F"/>
	<path fill-rule="evenodd" clip-rule="evenodd" d="M84 20H72l10 18-22-18H48l11 22-23-22H24l12 28-12 56h12l23-60-11 60h12l22-64-10 64h12l22-70-22-14Z" fill="#050038"/>
	<path fill-rule="evenodd" clip-rule="evenodd" d="M368 28c20 0 32 14.93 32 34 0 19-12 34-32 34s-32-14.93-32-34 12-34 32-34Zm-90 4v62h-14V34l14-2Zm52-2v14l-8 1c-7 1-12 5-12 12.96V94h-14V57.96C296 40.84 306 33 322 31l8-1Zm-140 0c6 0 12.204 2.48 16 8 3.81-5.027 10-8 18-8 10 0 22 6 22 26v38h-14V56c0-7-4.36-12-11-12s-11 5-11 12v38h-14V56c0-7-4.361-12-11-12-6.758 0-11 5-11 12v38h-14V34l14-2v6c3.912-4.81 8-8 16-8Zm178 12c-12 0-18 8.956-18 20s6 20 18 20 18-9 18-20c0-11.03-6-20-18-20ZM271 6c5 0 9 3 9 9s-4 9-9 9-9-3-9-9 4-9 9-9Z" fill="#050038"/>
</svg>
