<svg xmlns="http://www.w3.org/2000/svg" viewBox="-5.48 -5.48 284.7 174.7">
	<g fill="none" fill-rule="evenodd">
		<path fill="#009BC5" d="M158.022 65.503c-.622-4.18-2.394-7.997-5.423-11.05-4.02-4.052-9.188-5.3-14.624-5.158-3.358.089-6.825.573-10.014 1.595-5.617 1.799-8.987 6.19-10.638 11.64-1.377 4.544-2.333 9.256-3.013 13.96-.665 4.593-.211 5.122-2.234 5.324-3.03.302-10.967.04-15.437-.835 4.12.007 8.213-.7 10.37-2.468-1.117-.307-8.028-1.037-14.092-5.07-5.042-3.352-8.591-9.367-9.6-12.885 2.868 3.4 5.533 4.485 5.742 4.336.415-.905.094-1.792-.698-4.072-2.072-5.962-.925-9.327 2.79-13.974 2.508-3.137 4.867-6.252 5.373-10.393.31-2.528.256-2.816-1.894-6.249 5.055.388 8.445 3.839 12.482 6.939.647-1.028 3.274-3.546 2.147-10.146-1.127-6.6.465-10.95 4.048-14.866C120.482 4.293 133.192 2.528 139.431 0c-2.554 2.612-6.046 8.274-3.982 13.698 2.064 5.423 6.606 7.03 7.32 7.36.298-.781.472-5.022-.12-7.389-.65-2.604-1.405-4.522-1.934-5.941 5.313 1.457 8.73 4.944 11.738 8.982 2.999 4.027 4.347 8.727 5.83 13.5.176-3.337.69-6.7.43-10.004-.261-3.335-1.289-6.609-1.545-10.132 1.971 1.86 3.949 3.713 5.913 5.58 4.816 4.577 9.587 9.196 13.189 14.855 3.996 6.28 5.494 12.865 2.567 20.043-.4.983-2.006 2.506-3.253 3.662 4.97-.288 11.284-2.17 15.068-4.986 1.653 5.571.694 10.681-1.941 15.575-2.255 4.187-3.842 6.632-7.811 9.23-1.026.67-5.301 4.263-4.047 4.293 2.824.068 8.605-2.585 10.574-3.25-8.221 7.48-18.146 7.34-27.832 6.314-.521-5.327-.826-10.855-1.574-15.887zm-5.153 28.562 1.686 1.82c-.04.212.688.798.648 1.01-3.94-1.535-6.214-1.535-9.262-1.086.598.426 1.267 1.822 1.422 2.893-1.422-1.5-3.275-2.467-4.544-3.341-4.575-3.153-9.325-3.32-14.04-.345-1.856 1.171-3.306 1.883-5.386 4.097.19-1.08.436-2.453.572-3.225l-4.917 1.6c1.729-1.676 2.297-2.471 2.838-3.42-.782-.81-1.932-.81-3.72.001 2.605-3.78 4.827-5.998 8.131-7.63 3.04-1.503 5.976-2.614 10.838-2.614 4.861 0 10.004 2.1 12.87 3.846 2.864 1.746 5.22 3.62 7.184 5.582-.746.187-3.232.54-4.32.812z"/>
		<path fill="#00495D" fill-rule="nonzero" d="M7.349 150.012a.818.818 0 0 0 .6-.247.817.817 0 0 0 .248-.6v-22.96c.188-1.79.86-3.202 2.014-4.239 1.154-1.036 2.626-1.554 4.416-1.554 1.931 0 3.486.636 4.664 1.908 1.177 1.271 1.766 2.99 1.766 5.157v21.688a.82.82 0 0 0 .247.6.818.818 0 0 0 .601.247h6.43a.818.818 0 0 0 .6-.247.817.817 0 0 0 .248-.6v-21.759c0-2.12.613-3.815 1.837-5.086 1.225-1.272 2.803-1.908 4.735-1.908 1.931 0 3.474.636 4.628 1.908 1.154 1.271 1.731 2.99 1.731 5.157v21.688c0 .235.083.435.248.6a.818.818 0 0 0 .6.247h6.43a.818.818 0 0 0 .601-.247.817.817 0 0 0 .247-.6V125.78c0-3.909-1.024-6.958-3.073-9.148-2.05-2.19-4.888-3.285-8.515-3.285-2.261 0-4.31.447-6.148 1.342-1.837.895-3.274 2.284-4.31 4.168-.188.188-.353.188-.495 0-.942-1.79-2.284-3.155-4.027-4.097-1.743-.942-3.769-1.413-6.077-1.413-1.885 0-3.592.318-5.123.953a9.421 9.421 0 0 0-3.851 2.932c-.095.142-.189.189-.283.142-.094-.048-.141-.142-.141-.283v-2.331c0-.236-.083-.436-.248-.6s-.365-.248-.6-.248H.848a.818.818 0 0 0-.6.247.817.817 0 0 0-.248.6v34.405c0 .235.082.435.247.6a.818.818 0 0 0 .6.247H7.35zm62.589.566c3.627 0 6.76-.954 9.398-2.862 2.638-1.907 4.499-4.533 5.582-7.876.801-2.402 1.202-5.087 1.202-8.054 0-3.108-.424-5.793-1.272-8.053-1.084-3.25-2.933-5.793-5.547-7.63-2.615-1.837-5.712-2.755-9.292-2.755-3.769 0-6.996.918-9.68 2.755-2.686 1.837-4.57 4.403-5.654 7.7-.754 2.355-1.13 5.04-1.13 8.054 0 2.825.4 5.51 1.2 8.053 1.084 3.344 2.957 5.958 5.618 7.842 2.662 1.884 5.854 2.826 9.575 2.826zm0-7.065c-1.837 0-3.404-.494-4.699-1.483-1.295-.99-2.202-2.379-2.72-4.169-.472-1.648-.707-3.626-.707-5.934 0-2.307.235-4.285.707-5.934.565-1.79 1.483-3.167 2.755-4.133 1.272-.965 2.78-1.448 4.523-1.448 1.837 0 3.391.483 4.663 1.448 1.272.966 2.167 2.344 2.685 4.133.472 1.413.707 3.391.707 5.934 0 2.402-.235 4.38-.707 5.934-.565 1.79-1.472 3.18-2.72 4.169-1.248.989-2.744 1.483-4.487 1.483zM102.213 164c5.465 0 9.881-1.26 13.25-3.78s5.052-6.723 5.052-12.61v-32.85a.817.817 0 0 0-.248-.6.818.818 0 0 0-.6-.247h-6.501a.818.818 0 0 0-.6.247.817.817 0 0 0-.248.6v1.696c0 .141-.047.236-.141.283s-.189 0-.283-.142c-2.073-2.166-4.97-3.25-8.691-3.25-3.11 0-5.818.86-8.126 2.58-2.309 1.718-3.934 4.014-4.876 6.887-.754 2.072-1.13 5.063-1.13 8.972 0 3.485.306 6.335.918 8.548.99 3.203 2.756 5.581 5.3 7.135 2.543 1.554 5.346 2.331 8.408 2.331 3.533 0 6.266-1.036 8.197-3.108.094-.094.188-.13.283-.106.094.024.141.106.141.247v.566c0 3.296-.836 5.64-2.508 7.029-1.673 1.389-4.275 2.084-7.809 2.084-1.083 0-2.308-.071-3.674-.212-.66 0-.99.259-.99.777l-.211 5.793c0 .565.259.871.777.918a43.31 43.31 0 0 0 4.31.212zm2.898-20.91c-1.743 0-3.24-.484-4.487-1.449a7.358 7.358 0 0 1-2.58-3.709c-.47-1.177-.706-3.226-.706-6.146 0-2.826.282-4.898.848-6.217.518-1.554 1.366-2.802 2.544-3.744 1.177-.942 2.614-1.413 4.31-1.413 1.79 0 3.262.471 4.416 1.413s1.92 2.19 2.297 3.744c.235.754.388 1.52.459 2.296.07.777.106 2.06.106 3.85 0 1.837-.035 3.168-.106 3.992-.07.824-.2 1.59-.389 2.296-.376 1.507-1.13 2.731-2.26 3.673-1.131.942-2.615 1.413-4.452 1.413zm36.477 7.558c2.968 0 5.664-.565 8.09-1.695 2.427-1.13 4.37-2.732 5.83-4.804.283-.424.212-.8-.212-1.13l-4.381-3.603a.678.678 0 0 0-.495-.212c-.282 0-.518.141-.706.424-1.885 2.637-4.428 3.956-7.632 3.956-4.38-.047-7.136-1.766-8.267-5.157-.283-.566-.495-1.625-.636-3.18 0-.235.118-.353.353-.353h22.117c.566 0 .848-.282.848-.847l.071-2.19c0-1.46-.094-2.779-.283-3.956-1.177-9.702-6.406-14.553-15.687-14.553-3.674 0-6.818.953-9.433 2.86-2.614 1.908-4.393 4.51-5.335 7.807-.565 1.696-.848 3.91-.848 6.64 0 4.522.542 8.054 1.625 10.597 1.178 2.967 3.05 5.275 5.618 6.924 2.567 1.648 5.688 2.472 9.363 2.472zm-8.056-21.829c-.282 0-.377-.118-.282-.353.094-1.272.282-2.308.565-3.109.471-1.554 1.284-2.767 2.438-3.638s2.602-1.307 4.345-1.307c1.885 0 3.451.471 4.7 1.413 1.248.942 2.084 2.26 2.508 3.956.188.612.33 1.507.424 2.685 0 .235-.118.353-.353.353h-14.345zm34.71 21.193a.818.818 0 0 0 .602-.247.817.817 0 0 0 .247-.6v-21.547c0-2.166.624-3.909 1.872-5.228 1.249-1.318 2.886-1.978 4.911-1.978s3.651.671 4.876 2.014c1.225 1.342 1.837 3.096 1.837 5.263v21.476c0 .235.083.435.248.6a.818.818 0 0 0 .6.247h6.501a.818.818 0 0 0 .6-.247.817.817 0 0 0 .248-.6v-23.172c0-3.909-1.142-6.994-3.427-9.254s-5.335-3.391-9.15-3.391c-3.91 0-6.831 1.271-8.763 3.815-.047.14-.118.188-.212.14-.094-.046-.141-.14-.141-.282v-2.26a.817.817 0 0 0-.247-.6.818.818 0 0 0-.601-.248h-6.5a.818.818 0 0 0-.602.247.817.817 0 0 0-.247.6v34.405c0 .235.083.435.247.6s.366.247.601.247h6.5zm35.7 0a.818.818 0 0 0 .601-.247.817.817 0 0 0 .248-.6V114.69a.817.817 0 0 0-.248-.6.818.818 0 0 0-.6-.248h-6.501a.818.818 0 0 0-.6.248.817.817 0 0 0-.248.6v34.475c0 .235.082.435.247.6a.818.818 0 0 0 .601.247h6.5zm19.307.495c3.863 0 6.76-1.248 8.692-3.744.094-.142.188-.189.282-.142.094.048.142.142.142.283v2.26c0 .236.082.436.247.601a.818.818 0 0 0 .6.247h6.43a.818.818 0 0 0 .601-.247.817.817 0 0 0 .248-.6V114.76a.817.817 0 0 0-.248-.6.818.818 0 0 0-.6-.248h-6.43a.818.818 0 0 0-.601.247.817.817 0 0 0-.247.6v21.477c0 2.213-.636 3.98-1.908 5.298-1.272 1.319-2.968 1.978-5.088 1.978-2.073 0-3.686-.66-4.84-1.978-1.154-1.319-1.731-3.085-1.731-5.298V114.76a.817.817 0 0 0-.248-.6.818.818 0 0 0-.6-.248h-6.501a.818.818 0 0 0-.6.247.817.817 0 0 0-.248.6v23.808c0 3.815 1.213 6.758 3.639 8.83 2.426 2.073 5.429 3.109 9.01 3.109zm36.265-.07c4.381 0 7.89-.954 10.529-2.862 2.638-1.907 3.957-4.533 3.957-7.877 0-2.213-.589-4.015-1.767-5.404a12.279 12.279 0 0 0-4.31-3.25c-1.696-.777-3.792-1.542-6.289-2.296l-1.554-.424c-2.591-.706-4.44-1.354-5.547-1.942-1.107-.589-1.66-1.449-1.66-2.579 0-1.224.576-2.178 1.73-2.86 1.155-.684 2.65-1.025 4.487-1.025 2.073 0 3.71.412 4.911 1.236 1.202.824 1.802 1.849 1.802 3.073 0 .236.083.436.248.6a.818.818 0 0 0 .6.248h6.006a.818.818 0 0 0 .601-.247.817.817 0 0 0 .247-.6c0-2.073-.588-3.922-1.766-5.547-1.178-1.624-2.85-2.896-5.017-3.814-2.167-.919-4.687-1.378-7.56-1.378-4.24 0-7.656.977-10.247 2.932-2.59 1.954-3.886 4.58-3.886 7.877 0 2.166.565 3.944 1.696 5.333a12.138 12.138 0 0 0 4.169 3.285c1.648.801 3.674 1.555 6.077 2.261l2.685.848c2.167.612 3.733 1.189 4.699 1.73.965.542 1.448 1.355 1.448 2.438 0 1.177-.589 2.154-1.766 2.931-1.178.778-2.709 1.166-4.593 1.166-1.979 0-3.616-.436-4.911-1.307-1.296-.871-1.943-1.895-1.943-3.073v-.141c0-.236-.083-.436-.248-.6s-.365-.248-.6-.248h-6.219a.818.818 0 0 0-.6.247.817.817 0 0 0-.248.6v.637c0 1.884.613 3.59 1.838 5.121 1.224 1.531 2.956 2.732 5.193 3.603 2.238.872 4.84 1.307 7.808 1.307z"/>
	</g>
</svg>
