<svg width="261" height="185" fill="none" xmlns="http://www.w3.org/2000/svg">
	<path d="M32.644 182.976h-2.877c-1.444 0-2.258-.824-2.258-2.258v-24.873c0-.824-1.027-1.027-1.444 0l-4.729 10.688c-.721 1.647-1.85 2.877-3.386 2.877-1.535 0-2.674-1.128-3.386-2.877l-4.729-10.688c-.518-1.027-1.444-.824-1.444 0v24.873c0 1.444-.823 2.258-2.257 2.258H3.256c-1.444 0-2.257-.824-2.257-2.258v-42.953c0-1.444.823-2.258 2.257-2.258h4.007c1.433 0 2.46 1.027 2.98 2.258l6.782 16.545c.203.508.508 1.027.925 1.027.417 0 .722-.519.925-1.027l6.783-16.545c.519-1.231 1.546-2.258 2.98-2.258h4.006c1.444 0 2.258.824 2.258 2.258v42.953c0 1.434-.824 2.258-2.258 2.258Z" fill="#151555"/>
	<path d="M63.365 184.003c-10.17 0-16.952-7.81-16.952-16.647v-16.239c0-8.837 6.783-16.647 16.952-16.647s16.951 7.81 16.951 16.647v16.239c.01 8.837-6.772 16.647-16.951 16.647Zm9.05-32.886c0-4.627-3.285-9.356-9.04-9.356-5.756 0-9.04 4.729-9.04 9.356v16.239c0 4.627 3.284 9.356 9.04 9.356 5.755 0 9.04-4.729 9.04-9.356v-16.239Z" fill="#151555"/>
	<path d="M123.484 182.976h-2.878c-1.444 0-2.258-.824-2.258-2.258v-24.873c0-.824-1.027-1.027-1.444 0l-4.728 10.688c-.722 1.647-1.851 2.877-3.386 2.877-1.536 0-2.675-1.128-3.387-2.877l-4.728-10.688c-.519-1.027-1.444-.824-1.444 0v24.873c0 1.444-.824 2.258-2.258 2.258h-2.878c-1.444 0-2.257-.824-2.257-2.258v-42.953c0-1.444.824-2.258 2.257-2.258h4.007c1.434 0 2.461 1.027 2.98 2.258l6.782 16.545c.204.508.509 1.027.926 1.027.417 0 .722-.519.925-1.027l6.783-16.545c.518-1.231 1.545-2.258 2.979-2.258h4.007c1.444 0 2.257.824 2.257 2.258v42.953c.01 1.434-.813 2.258-2.257 2.258Z" fill="#151555"/>
	<path d="M167.678 162.628h-19.219c-1.444 0-2.258.823-2.258 2.257v2.461c0 4.627 3.285 9.356 9.04 9.356 5.339 0 8.532-3.702 10.281-6.061.722-1.027 2.054-1.129 3.081-.407l2.258 1.648c1.23.925 1.027 2.359.508 3.182-2.471 4.007-7.504 8.939-16.138 8.939-10.169 0-16.951-7.81-16.951-16.647v-16.239c0-8.837 6.782-16.647 16.951-16.647s16.952 7.81 16.952 16.647v6.986c.01 2.888-1.627 4.525-4.505 4.525Zm-3.396-11.511c0-4.627-3.285-9.356-9.041-9.356-5.755 0-9.04 4.729-9.04 9.356v2.46c0 1.444.824 2.258 2.258 2.258h13.565c1.444 0 2.258-.824 2.258-2.258v-2.46Z" fill="#151555"/>
	<path d="M217.414 182.976h-3.386c-1.444 0-2.257-.824-2.257-2.258v-29.591c0-4.627-3.285-9.356-9.041-9.356-5.755 0-9.04 4.729-9.04 9.356v29.591c0 1.444-.823 2.258-2.257 2.258h-3.387c-1.444 0-2.257-.824-2.257-2.258v-42.953c0-1.444.824-2.258 2.257-2.258h2.675c.824 0 1.332.407 1.647.926.407.722 1.027.722 1.444.406 1.851-1.128 4.831-2.369 8.939-2.369 10.169 0 16.951 7.81 16.951 16.647v29.591c-.03 1.444-.844 2.268-2.288 2.268Z" fill="#151555"/>
	<path d="M258.731 142.28h-8.532c-1.444 0-2.257.823-2.257 2.257v36.171c0 1.444-.824 2.258-2.258 2.258H242.4c-1.444 0-2.258-.824-2.258-2.258v-36.171c0-1.444-.824-2.257-2.257-2.257h-8.532c-1.444 0-2.258-.824-2.258-2.258v-2.257c0-1.444.824-2.258 2.258-2.258h29.388c1.444 0 2.258.824 2.258 2.258v2.257c-.011 1.434-.834 2.258-2.268 2.258Z" fill="#151555"/>
	<path fill-rule="evenodd" clip-rule="evenodd" d="M147.615 6.835a3.65 3.65 0 0 0-1.404-4.362c-1.088-.722-1.088-3.752 3.804-1.861 12.914 4.84 22.951 16.29 25.219 30.904.559 3.508.63 6.975.284 10.341-.081.753.57 1.404 1.322 1.282l.326-.051c1.688-.265 2.959-1.688 3.071-3.397.071-1.312 2.705-2.817 3.528 2.37 2.268 13.596-2.644 27.995-14.135 37.3a39.82 39.82 0 0 1-8.836 5.42c-.702.305-.936 1.2-.458 1.79l.183.223a3.674 3.674 0 0 0 4.485.956c1.169-.58 3.782.935-.275 4.22-10.667 8.766-25.585 11.715-39.395 6.417a40.087 40.087 0 0 1-9.111-4.942c-.62-.448-1.505-.204-1.779.508l-.112.285a3.647 3.647 0 0 0 1.403 4.362c1.088.722 1.088 3.752-3.813 1.861-12.915-4.84-22.931-16.29-25.25-30.893a39.3 39.3 0 0 1-.275-10.342c.082-.763-.569-1.403-1.322-1.292l-.294.051c-1.688.265-2.96 1.688-3.071 3.397-.082 1.301-2.705 2.816-3.519-2.37-2.268-13.596 2.644-27.995 14.125-37.3a39.87 39.87 0 0 1 8.847-5.42c.702-.305.935-1.2.457-1.79l-.183-.233a3.673 3.673 0 0 0-4.484-.956c-1.17.59-3.783-.936.275-4.22 10.667-8.766 25.585-11.715 39.394-6.417a39.674 39.674 0 0 1 9.111 4.942 1.173 1.173 0 0 0 1.78-.508l.102-.275Zm-33.375 84.19c.57.243 1.231-.052 1.454-.631l.01-.03c.865-2.228.346-5.472-2.308-7.109-9.64-5.969-14.013-18.436-10.047-28.768 2.431-6.335 6.691-10.708 12.101-13.433 1.332-.671 1.973.173 1.21 1.037-2.054 2.35-3.671 5.003-4.921 8.064-6.102 14.908 1.26 32.388 15.639 38.46.194.08.377.162.57.243.427.194.854.376 1.302.55 9.802 3.752 20.592 1.759 28.432-4.119.498-.376.569-1.088.183-1.576l-.02-.02c-1.495-1.861-4.566-3.03-7.312-1.556-9.986 5.369-22.972 2.928-29.937-5.685-4.271-5.288-5.919-11.155-5.583-17.206.081-1.505 1.149-1.627 1.505-.539 1.007 2.95 2.502 5.675 4.535 8.288 9.864 12.742 28.677 15.1 41.134 5.684.234-.183.478-.366.722-.538a18 18 0 0 0 .884-.672c8.156-6.6 11.817-16.941 10.647-26.663-.071-.62-.65-1.037-1.271-.945l-.061.01c-2.359.366-4.911 2.44-5.003 5.552-.346 11.318-8.959 21.345-19.89 23.084-6.702 1.057-12.62-.438-17.694-3.763-1.251-.824-.834-1.8.295-1.576 3.05.61 6.162.671 9.447.224 15.955-2.166 27.405-17.288 25.483-32.775a17.911 17.911 0 0 1-.081-.763 17.498 17.498 0 0 0-.153-1.24c-1.637-10.373-8.766-18.721-17.785-22.565-.57-.244-1.231.05-1.455.63l-.01.03c-.864 2.228-.346 5.472 2.309 7.109 9.64 5.97 14.012 18.436 10.046 28.768-2.43 6.335-6.691 10.708-12.101 13.433-1.332.671-1.972-.173-1.21-1.037 2.054-2.35 3.671-5.003 4.922-8.064 6.101-14.908-1.261-32.388-15.64-38.46-.193-.08-.376-.162-.559-.243a24.694 24.694 0 0 0-1.302-.55c-9.803-3.752-20.602-1.759-28.442 4.13-.499.376-.57 1.087-.183 1.575l.02.031c1.495 1.86 4.566 3.03 7.311 1.556 9.986-5.37 22.972-2.929 29.948 5.684 4.271 5.288 5.918 11.156 5.583 17.206-.082 1.505-1.149 1.627-1.505.54-1.007-2.95-2.502-5.675-4.536-8.289-9.863-12.741-28.676-15.1-41.133-5.684-.234.183-.478.366-.722.539-.295.224-.6.437-.895.671-8.155 6.6-11.816 16.931-10.647 26.663.071.62.651 1.037 1.271.946l.041-.01c2.36-.367 4.912-2.44 5.003-5.553.346-11.338 8.959-21.344 19.911-23.093 6.701-1.058 12.62.437 17.694 3.762 1.251.824.834 1.8-.295 1.576-3.051-.61-6.162-.67-9.447-.223-15.955 2.166-27.405 17.287-25.483 32.774.03.254.06.509.081.763.04.417.081.824.153 1.24 1.637 10.363 8.765 18.722 17.785 22.555Z" fill="#4F46E5"/>
</svg>
