<svg width="321.5" height="69.399" viewBox="0 0 85.064 18.362" xmlns="http://www.w3.org/2000/svg">
	<g fill="#222">
		<path d="M4978.605 613.834c0-12.92 10.3-21.47 21.91-21.47s21.91 8.55 21.91 21.47c0 12.92-10.3 21.39-21.91 21.39s-21.91-8.54-21.91-21.39zm32.21 0c0-6.37-4.63-10.82-10.3-10.82-5.67 0-10.3 4.45-10.3 10.82s4.63 10.74 10.3 10.74c5.67 0 10.32-4.45 10.32-10.74z" style="fill:#2a2a2a;fill-opacity:1" transform="translate(-1296.132 -150.708) scale(.26458)"/>
		<path d="M4975.085 634.384h-12.4l-4.36-37.27-14.67 30.46h-9.51l-14.84-30.46-4.36 37.27h-12.4l7.42-61h6.21a6.434 6.434 0 0 1 5.83 3.7l16.83 36.6 16.68-36.57a6.444 6.444 0 0 1 5.85-3.72h6.36z" style="fill:#2a2a2a;fill-opacity:1" transform="translate(-1296.132 -150.708) scale(.26458)"/>
		<path d="M5068.104 611.824v22.35h-11.44v-21.73c0-6.38-3.84-9.26-7.76-9.26-4.11 0-9.17 2.19-9.17 9.6v21.39h-11.43v-40.76h4.53c.906 0 1.803.176 2.64.52a6.898 6.898 0 0 1 3.735 3.73c.347.837.525 1.734.525 2.64 1.75-5.5 8.2-7.94 12.22-7.94 10.65 0 16.24 7.24 16.15 19.46z" style="fill:#2a2a2a;fill-opacity:1" transform="translate(-1296.132 -150.708) scale(.26458)"/>
		<path d="M5114.714 573.414h3.78v60.76h-11.43v-5.06c-2.88 4.19-8.56 6.11-13.1 6.11-10.47 0-20-8.38-20-21.48s9.52-21.38 20-21.38c4.72 0 10.22 1.83 13.1 6v-17.3a7.65 7.65 0 0 1 7.65-7.65zm-8 40.33a10.752 10.752 0 0 0-10.569-10.73 10.635 10.635 0 0 0-10.561 10.73 10.583 10.583 0 0 0 2.977 7.683 10.582 10.582 0 0 0 7.588 3.212 10.58 10.58 0 0 0 7.589-3.212 10.564 10.564 0 0 0 2.976-7.683z" style="fill:#2a2a2a;fill-opacity:1" transform="translate(-1296.132 -150.708) scale(.26458)"/>
		<path d="M5124.375 613.834c0-12.92 10.3-21.47 21.9-21.47 11.6 0 21.91 8.55 21.91 21.47 0 12.92-10.3 21.39-21.91 21.39s-21.9-8.54-21.9-21.39zm32.2 0c0-6.37-4.62-10.82-10.3-10.82-5.68 0-10.3 4.45-10.3 10.82s4.63 10.74 10.3 10.74c5.67 0 10.3-4.45 10.3-10.74z" style="fill:#2a2a2a;fill-opacity:1" transform="translate(-1296.132 -150.708) scale(.26458)"/>
		<path d="M5172.666 613.834c0-12.92 10.3-21.47 21.91-21.47s21.91 8.55 21.91 21.47c0 12.92-10.3 21.39-21.91 21.39s-21.91-8.54-21.91-21.39zm32.21 0c0-6.37-4.62-10.82-10.3-10.82-5.68 0-10.3 4.45-10.3 10.82s4.63 10.74 10.3 10.74c5.67 0 10.26-4.45 10.26-10.74z" style="fill:#2a2a2a;fill-opacity:1" transform="translate(-1296.132 -150.708) scale(.26458)"/>
	</g>
</svg>
