<svg xmlns="http://www.w3.org/2000/svg" viewBox="0 0 592.785 170" xml:space="preserve">
	<linearGradient id="a" gradientUnits="userSpaceOnUse" x1="-108.31" y1="-831.543" x2="-160.345" y2="-831.899" gradientTransform="matrix(-.9771 -.323 .2901 -.8773 146.857 -680.569)">
		<stop offset=".231" style="stop-color:#9b9a75"/>
		<stop offset=".563" style="stop-color:#9c9b77"/>
		<stop offset=".683" style="stop-color:#a2a17e"/>
		<stop offset=".768" style="stop-color:#abaa89"/>
		<stop offset=".837" style="stop-color:#b8b79a"/>
		<stop offset=".896" style="stop-color:#cac8b0"/>
		<stop offset=".948" style="stop-color:#dfddcb"/>
		<stop offset=".994" style="stop-color:#f8f6eb"/>
		<stop offset="1" style="stop-color:#fbf9ef"/>
	</linearGradient>
	<path fill="url(#a)" d="m40.655 164.564-4.414-1.463s.562-22.341-7.495-23.904c-5.313-6.155.817-262.959 20.119-.878 0 0-6.606 3.318-7.857 8.948-1.251 5.639-.353 17.297-.353 17.297z"/>
	<linearGradient id="b" gradientUnits="userSpaceOnUse" x1="-100.297" y1="-740.477" x2="-175.155" y2="-870.135" gradientTransform="matrix(-.9771 -.323 .2901 -.8773 146.857 -680.569)">
		<stop offset="0" style="stop-color:#599e4c"/>
		<stop offset="1" style="stop-color:#498e41"/>
	</linearGradient>
	<path fill="url(#b)" d="M43.033 142.99s38.355-25.261 29.369-77.725C63.75 27.148 43.319 14.619 41.122 9.834 38.705 6.45 36.271.449 36.271.449l1.632 106.201s-3.375 32.428 5.13 36.34z"/>
	<linearGradient id="c" gradientUnits="userSpaceOnUse" x1="-93.439" y1="-833.683" x2="-146.5" y2="-798.042" gradientTransform="matrix(-.9771 -.323 .2901 -.8773 146.857 -680.569)">
		<stop offset="0" style="stop-color:#4fa346"/>
		<stop offset=".24" style="stop-color:#59a84f"/>
		<stop offset=".651" style="stop-color:#75b667"/>
		<stop offset="1" style="stop-color:#91c47f"/>
	</linearGradient>
	<path fill="url(#c)" d="M33.993 144.401S-1.984 119.858.085 76.552c2.072-43.306 27.483-64.6 32.432-68.461 3.2-3.411 3.332-4.726 3.579-8.09 2.243 4.817 1.87 71.956 2.107 79.803.923 30.548-1.692 58.831-4.21 64.597z"/>
	<path fill="#C1BFBE" d="M444.754 64.996c2.061 0 9.897.359 13.538.359 6.792 0 11.521-.359 24.256-.359 10.675 0 19.652 2.875 26.08 8.385 7.764 6.709 11.887 16.052 11.887 27.432 0 16.172-7.398 25.515-14.797 30.786-7.4 5.51-16.983 8.624-30.688 8.624-7.278 0-19.773-.24-30.205-.358h-.143c-.484-.96.894-4.695 1.747-4.792 2.819-.319 3.583-.428 4.893-.967 2.201-.906 2.722-2.028 2.966-5.982.363-7.426.243-16.29.243-26.354 0-7.187.12-21.202-.123-25.635-.364-3.713-1.938-4.671-5.094-5.391-1.577-.359-3.761-.719-6.792-1.078-.242-.717 1.625-3.952 2.232-4.67zm24.21 66.603c2.547 2.037 7.641 2.875 12.131 2.875 5.821 0 11.523-1.08 17.102-6.109 5.7-5.153 9.582-13.058 9.582-25.636 0-12.099-4.61-21.922-14.069-27.671-5.339-3.354-12.251-4.671-20.136-4.671-2.305 0-4.61.119-5.944.718-.364.24-1.092 1.198-1.092 1.678-.243 2.156-.243 18.566-.243 28.269 0 9.942 0 23.838.243 25.517.122 1.436.849 3.951 2.426 5.03z"/>
	<path fill="#C1BFBE" d="M530.73 64.996c1.092 0 4.321.359 12.567.359 7.764 0 14.069-.239 21.59-.239 9.339 0 22.197 3.354 22.197 17.249 0 6.827-4.851 12.338-11.158 14.974-.365.12-.365.36 0 .479 8.976 2.275 16.859 7.786 16.859 18.327 0 10.302-6.428 16.771-15.767 20.844-5.701 2.514-12.736 3.353-19.895 3.353-5.457 0-20.084-.599-28.212-.478-.851-.361.778-4.195 1.503-4.792 1.942-.12 3.44-.259 5.502-.859 2.91-.719 3.255-1.657 3.619-5.97.244-3.712.244-17.009.244-26.474 0-12.937.12-21.681 0-25.994-.123-3.355-1.336-4.433-3.641-5.032-1.818-.359-4.849-.719-7.276-1.078-.606-.597 1.261-4.19 1.868-4.669zm49.441 53.785c0-10.541-7.762-16.53-21.956-16.53-.605 0-5.095-.121-6.185.12-.364.119-.727.358-.727.598 0 7.548-.123 19.646.241 24.437.243 2.037 1.7 4.912 3.518 5.75 1.943 1.078 6.307 1.318 9.339 1.318 8.371 0 15.77-4.672 15.77-15.693zm-27.535-47.915c-.484.12-1.092 1.318-1.092 1.917-.12 4.311-.241 15.571-.241 23.357 0 .24.362.599.607.599 1.577.121 5.456.241 8.731.241 4.61 0 7.28-.6 8.734-1.319 3.882-1.915 5.7-6.109 5.7-10.66 0-10.422-7.277-14.375-18.071-14.375-.729 0-2.791 0-4.368.24z"/>
	<path fill="#494849" d="M96.797 140.171c-.202-.322-.416-1.275-.371-2.422.033-.871.207-1.425.37-1.615 2.288-.361 3.371-.605 4.656-.948 2.145-.532 2.953-1.69 3.079-4.433.352-6.461.373-18.575.244-27.095l.001-.251c.01-.914.024-2.164-1.123-3.045-1.683-1.108-3.779-2.025-6.434-2.821-1.016-.301-1.577-.834-1.547-1.459.032-.6.669-1.363 1.993-1.619 3.512-.362 12.722-2.554 16.335-4.222.214.26.552.823.487 1.721-.027.378-.061.773-.094 1.182-.103 1.204-.218 2.569-.218 3.929 0 .401.435.78.895.78a.88.88 0 0 0 .627-.265c6.887-5.39 13.047-7.314 16.218-7.314 5.21 0 9.266 2.487 12.4 7.6.183.271.43.414.706.414a.797.797 0 0 0 .657-.352c6.333-4.798 12.609-7.662 16.804-7.662 9.93 0 15.861 7.425 15.861 19.857 0 3.573-.036 8.101-.068 12.328-.03 3.708-.056 7.185-.056 9.591 0 .583.78 2.201 1.958 2.524 1.451.706 3.55 1.067 6.198 1.523l.103.017c.201.712-.221 3.484-.624 4.052-.657-.006-1.568-.053-2.702-.11-2.062-.106-4.887-.248-8.177-.248-6.598 0-10.046.13-13.338.342-.248-.823-.335-3.476-.033-4.029 1.921-.359 2.871-.602 4.024-.943 2.1-.692 2.705-1.643 2.828-4.429.048-1.982.429-19.418-.247-23.558-.622-4.29-3.86-9.312-10.941-9.312-2.625 0-6.87 1.091-10.915 4.155-.251.244-.396.717-.396 1.028l.007.08c.477 2.235.477 4.841.477 8.784 0 2.248-.014 4.632-.027 7-.027 4.807-.053 9.346.027 12.775 0 2.338 1.415 2.895 2.553 3.346.618.137 1.109.255 1.6.372a40.4 40.4 0 0 0 3.4.7c.199.461.218 1.837-.056 3.014-.153.65-.329.937-.422 1.03-3.67-.126-7.434-.235-12.866-.235-1.646 0-4.335.071-6.706.134-1.922.051-3.743.101-4.777.106-.15-.237-.36-.995-.36-2.088 0-1.016.186-1.732.378-1.952.51-.094.995-.18 1.459-.262 1.274-.227 2.374-.421 3.43-.68 1.798-.548 2.472-1.546 2.604-3.83.351-5.331.626-20.687-.13-24.534-1.285-6.171-4.803-9.299-10.453-9.299-3.313 0-7.494 1.592-10.912 4.152-.573.422-1.007 1.485-1.007 2.466 0 1.828-.006 4.006-.013 6.341-.023 7.713-.05 17.313.137 21.468.116 1.276.56 2.797 2.971 3.357.526.147 1.437.299 2.493.473.608.101 1.272.211 1.955.334.246.66.095 3.249-.325 4.055-1.054-.007-2.351-.067-3.839-.133-2.273-.1-5.099-.227-8.321-.227-3.791 0-6.431.127-8.551.227-1.423.069-2.656.129-3.886.135z"/>
	<path fill="#494849" d="M219.073 141.249c-18.224 0-24.717-13.352-24.717-25.846 0-8.727 3.573-15.552 10.623-20.281 5.011-3.076 10.993-4.846 16.397-4.846 13.907 0 23.622 9.988 23.622 24.29 0 9.724-3.882 17.398-11.224 22.195-3.52 2.158-9.631 4.488-14.701 4.488zm-1.942-45.88c-2.208 0-4.269.578-5.803 1.627-4.213 2.559-6.356 7.667-6.356 15.172 0 14.054 7.045 23.868 17.131 23.868 2.975 0 5.401-.854 7.417-2.613 3.099-2.526 4.743-7.685 4.743-14.907 0-13.845-6.886-23.147-17.132-23.147z"/>
	<path fill="#494849" d="M407.785 141.249c-18.225 0-24.718-13.351-24.718-25.844 0-8.73 3.576-15.554 10.626-20.284 5.01-3.076 10.992-4.845 16.396-4.845 13.909 0 23.623 9.989 23.623 24.289 0 9.727-3.883 17.401-11.225 22.195-3.521 2.159-9.63 4.489-14.702 4.489zm-1.941-45.88c-2.211 0-4.273.578-5.805 1.627-4.21 2.559-6.354 7.666-6.354 15.172 0 14.054 7.043 23.868 17.131 23.868 2.976 0 5.401-.854 7.417-2.614 3.099-2.525 4.743-7.682 4.743-14.904-.001-13.846-6.886-23.149-17.132-23.149z"/>
	<path fill="#494849" d="M344.861 170c-6.542 0-11.256-1.379-15.284-4.474-3.917-3.021-5.671-7.499-5.671-10.594 0-.89.211-3.19 2.146-5.388 1.141-1.294 3.781-3.715 9.88-7.906a.503.503 0 0 0 .318-.479.498.498 0 0 0-.383-.499c-5.027-1.922-6.543-5.077-7-6.789-.007-.061-.029-.16-.05-.264-.145-.672-.279-1.306.63-1.958.703-.502 1.834-1.171 3.031-1.877 1.768-1.043 3.769-2.224 4.878-3.173a.755.755 0 0 0 .205-.673.756.756 0 0 0-.407-.569c-7.439-2.497-11.185-8.017-11.185-16.423 0-5.427 2.506-10.332 6.873-13.459 2.991-2.362 10.502-5.201 15.367-5.201l.283.003c5.005.119 7.827 1.165 11.732 2.61 2.12.784 4.128 1.102 6.935 1.102 4.143 0 5.953-1.312 7.505-2.818.089.187.3.779.396 2.142.098 1.391-.282 3.451-1.346 4.922-.848 1.172-2.81 2.022-4.665 2.022-.186 0-.368-.009-.544-.027-1.908-.187-2.805-.465-2.813-.469l-.468.163c-.147.215-.052.455.069.757.029.073.059.141.069.187.244.97.676 3.801.676 4.594 0 8.815-3.482 12.66-7.245 15.503-3.59 2.707-7.788 4.334-12.518 4.833h-.004c-.097 0-.545.04-1.449.12-.582.053-1.308.118-1.415.118l-.107.014c-.822.232-2.955 1.245-2.955 3.131 0 1.569.967 3.513 5.579 3.861.934.07 1.938.14 2.985.211 6.088.424 13.692.951 17.271 2.164 4.922 1.791 7.985 6.195 7.985 11.493 0 7.911-5.631 15.349-15.062 19.894-4.575 2.149-9.219 3.196-14.242 3.196zm-.727-27.794c-2.11 0-3.645.613-4.562 1.128-4.446 2.847-6.507 5.691-6.507 8.964 0 3.088 1.2 5.541 3.778 7.722 3.122 2.643 7.332 3.928 12.87 3.928 10.892 0 15.776-5.85 15.776-11.649 0-4.035-2.028-6.74-6.198-8.269-3.215-1.175-8.584-1.824-15.157-1.824zm.727-47.315c-5.618 0-9.248 4.431-9.248 11.289 0 6.921 3.122 15.002 11.919 15.002 1.511 0 4.249-.67 5.605-2.165 2.043-1.876 3.378-5.751 3.378-9.844-.001-8.944-4.358-14.282-11.654-14.282z"/>
	<path fill="#494849" d="M315.249 135.768c-2.667-.359-4.61-.719-6.913-1.797-.364-.24-.851-1.318-.851-1.677-.243-3.714-.243-14.495-.243-21.562 0-5.75-.969-10.781-3.395-14.376-2.911-4.072-7.034-6.468-12.372-6.468-4.73 0-11.038 3.234-16.253 7.667-.121.12-.923.879-.906-.301.019-1.178.201-3.575.311-5.086.11-1.509-.794-2.221-.794-2.221-3.397 1.677-12.964 3.948-16.497 4.313-2.582.496-3.346 2.976-.487 3.832l.047.014c2.875.864 4.815 1.788 6.261 2.741 1.092.839.97 2.037.97 2.995.121 8.025.121 20.365-.243 27.073-.121 2.636-.849 3.593-2.79 4.073l.178-.06a37.763 37.763 0 0 1-4.488.838c-.607.598-.607 4.072 0 4.792 1.213 0 7.4-.361 12.493-.361 7.035 0 10.674.361 12.494.361.728-.84.97-4.075.485-4.792-2.062-.12-3.518-.359-4.974-.719-1.941-.479-2.426-1.437-2.546-3.594-.243-5.629-.243-17.608-.243-25.755 0-2.276.607-3.354 1.334-3.954 2.425-2.156 6.428-3.592 9.946-3.592 3.395 0 5.7 1.078 7.398 2.514 2.305 1.917 3.154 4.672 3.397 6.709.485 4.553.362 13.656.362 21.562 0 4.313-.362 5.391-1.94 5.87-.728.359-2.669.719-4.974.958-.726.717-.485 4.072 0 4.792 3.154 0 6.793-.361 12.129-.361 6.672 0 10.916.361 12.615.361.731-.837.973-3.952.489-4.789z"/>
</svg>
