<?xml version="1.0" encoding="utf-8"?>
<!-- Generator: Adobe Illustrator 22.0.1, SVG Export Plug-In . SVG Version: 6.00 Build 0)  -->
<svg version="1.1" id="Layer_1" xmlns="http://www.w3.org/2000/svg" xmlns:xlink="http://www.w3.org/1999/xlink" x="0px" y="0px"
	 viewBox="0 0 592.785 170" enable-background="new 0 0 592.785 170" xml:space="preserve">
<g>
	
		<linearGradient id="SVGID_1_" gradientUnits="userSpaceOnUse" x1="-108.3103" y1="-831.5434" x2="-160.3449" y2="-831.8988" gradientTransform="matrix(-0.9771 -0.323 0.2901 -0.8773 146.8565 -680.5688)">
		<stop  offset="0.2308" style="stop-color:#9B9A75"/>
		<stop  offset="0.5632" style="stop-color:#9C9B77"/>
		<stop  offset="0.6829" style="stop-color:#A2A17E"/>
		<stop  offset="0.7683" style="stop-color:#ABAA89"/>
		<stop  offset="0.8373" style="stop-color:#B8B79A"/>
		<stop  offset="0.8964" style="stop-color:#CAC8B0"/>
		<stop  offset="0.9482" style="stop-color:#DFDDCB"/>
		<stop  offset="0.9944" style="stop-color:#F8F6EB"/>
		<stop  offset="1" style="stop-color:#FBF9EF"/>
	</linearGradient>
	<path fill="url(#SVGID_1_)" d="M40.655,164.564l-4.414-1.463c0,0,0.562-22.341-7.495-23.904
		c-5.313-6.155,0.817-262.959,20.119-0.878c0,0-6.606,3.318-7.857,8.948C39.757,152.906,40.655,164.564,40.655,164.564z"/>
	
		<linearGradient id="SVGID_2_" gradientUnits="userSpaceOnUse" x1="-100.2966" y1="-740.4774" x2="-175.1546" y2="-870.1352" gradientTransform="matrix(-0.9771 -0.323 0.2901 -0.8773 146.8565 -680.5688)">
		<stop  offset="0" style="stop-color:#599E4C"/>
		<stop  offset="1" style="stop-color:#498E41"/>
	</linearGradient>
	<path fill="url(#SVGID_2_)" d="M43.033,142.99c0,0,38.355-25.261,29.369-77.725C63.75,27.148,43.319,14.619,41.122,9.834
		c-2.417-3.384-4.851-9.385-4.851-9.385l1.632,106.201C37.903,106.65,34.528,139.078,43.033,142.99z"/>
	
		<linearGradient id="SVGID_3_" gradientUnits="userSpaceOnUse" x1="-93.4394" y1="-833.6835" x2="-146.5005" y2="-798.0424" gradientTransform="matrix(-0.9771 -0.323 0.2901 -0.8773 146.8565 -680.5688)">
		<stop  offset="0" style="stop-color:#4FA346"/>
		<stop  offset="0.2402" style="stop-color:#59A84F"/>
		<stop  offset="0.6511" style="stop-color:#75B667"/>
		<stop  offset="1" style="stop-color:#91C47F"/>
	</linearGradient>
	<path fill="url(#SVGID_3_)" d="M33.993,144.401c0,0-35.977-24.543-33.908-67.849c2.072-43.306,27.483-64.6,32.432-68.461
		c3.2-3.411,3.332-4.726,3.579-8.09c2.243,4.817,1.87,71.956,2.107,79.803C39.126,110.352,36.511,138.635,33.993,144.401z"/>
	<path fill="#C1BFBE" d="M444.754,64.996c2.061,0,9.897,0.359,13.538,0.359c6.792,0,11.521-0.359,24.256-0.359
		c10.675,0,19.652,2.875,26.08,8.385c7.764,6.709,11.887,16.052,11.887,27.432c0,16.172-7.398,25.515-14.797,30.786
		c-7.4,5.51-16.983,8.624-30.688,8.624c-7.278,0-19.773-0.24-30.205-0.358h-0.143c-0.484-0.96,0.894-4.695,1.747-4.792
		c2.819-0.319,3.583-0.428,4.893-0.967c2.201-0.906,2.722-2.028,2.966-5.982c0.363-7.426,0.243-16.29,0.243-26.354
		c0-7.187,0.12-21.202-0.123-25.635c-0.364-3.713-1.938-4.671-5.094-5.391c-1.577-0.359-3.761-0.719-6.792-1.078
		C442.28,68.949,444.147,65.714,444.754,64.996z M468.964,131.599c2.547,2.037,7.641,2.875,12.131,2.875
		c5.821,0,11.523-1.08,17.102-6.109c5.7-5.153,9.582-13.058,9.582-25.636c0-12.099-4.61-21.922-14.069-27.671
		c-5.339-3.354-12.251-4.671-20.136-4.671c-2.305,0-4.61,0.119-5.944,0.718c-0.364,0.24-1.092,1.198-1.092,1.678
		c-0.243,2.156-0.243,18.566-0.243,28.269c0,9.942,0,23.838,0.243,25.517C466.66,128.005,467.387,130.52,468.964,131.599z"/>
	<path fill="#C1BFBE" d="M530.73,64.996c1.092,0,4.321,0.359,12.567,0.359c7.764,0,14.069-0.239,21.59-0.239
		c9.339,0,22.197,3.354,22.197,17.249c0,6.827-4.851,12.338-11.158,14.974c-0.365,0.12-0.365,0.36,0,0.479
		c8.976,2.275,16.859,7.786,16.859,18.327c0,10.302-6.428,16.771-15.767,20.844c-5.701,2.514-12.736,3.353-19.895,3.353
		c-5.457,0-20.084-0.599-28.212-0.478c-0.851-0.361,0.778-4.195,1.503-4.792c1.942-0.12,3.44-0.259,5.502-0.859
		c2.91-0.719,3.255-1.657,3.619-5.97c0.244-3.712,0.244-17.009,0.244-26.474c0-12.937,0.12-21.681,0-25.994
		c-0.123-3.355-1.336-4.433-3.641-5.032c-1.818-0.359-4.849-0.719-7.276-1.078C528.256,69.068,530.123,65.475,530.73,64.996z
		 M580.171,118.781c0-10.541-7.762-16.53-21.956-16.53c-0.605,0-5.095-0.121-6.185,0.12c-0.364,0.119-0.727,0.358-0.727,0.598
		c0,7.548-0.123,19.646,0.241,24.437c0.243,2.037,1.7,4.912,3.518,5.75c1.943,1.078,6.307,1.318,9.339,1.318
		C572.772,134.474,580.171,129.802,580.171,118.781z M552.636,70.866c-0.484,0.12-1.092,1.318-1.092,1.917
		c-0.12,4.311-0.241,15.571-0.241,23.357c0,0.24,0.362,0.599,0.607,0.599c1.577,0.121,5.456,0.241,8.731,0.241
		c4.61,0,7.28-0.6,8.734-1.319c3.882-1.915,5.7-6.109,5.7-10.66c0-10.422-7.277-14.375-18.071-14.375
		C556.275,70.626,554.213,70.626,552.636,70.866z"/>
	<path fill="#494849" d="M96.797,140.171c-0.202-0.322-0.416-1.275-0.371-2.422c0.033-0.871,0.207-1.425,0.37-1.615
		c2.288-0.361,3.371-0.605,4.656-0.948c2.145-0.532,2.953-1.69,3.079-4.433c0.352-6.461,0.373-18.575,0.244-27.095l0.001-0.251
		c0.01-0.914,0.024-2.164-1.123-3.045c-1.683-1.108-3.779-2.025-6.434-2.821c-1.016-0.301-1.577-0.834-1.547-1.459
		c0.032-0.6,0.669-1.363,1.993-1.619c3.512-0.362,12.722-2.554,16.335-4.222c0.214,0.26,0.552,0.823,0.487,1.721
		c-0.027,0.378-0.061,0.773-0.094,1.182c-0.103,1.204-0.218,2.569-0.218,3.929c0,0.401,0.435,0.78,0.895,0.78
		c0.234,0,0.45-0.091,0.627-0.265c6.887-5.39,13.047-7.314,16.218-7.314c5.21,0,9.266,2.487,12.4,7.6
		c0.183,0.271,0.43,0.414,0.706,0.414c0.263,0,0.511-0.135,0.657-0.352c6.333-4.798,12.609-7.662,16.804-7.662
		c9.93,0,15.861,7.425,15.861,19.857c0,3.573-0.036,8.101-0.068,12.328c-0.03,3.708-0.056,7.185-0.056,9.591
		c0,0.583,0.78,2.201,1.958,2.524c1.451,0.706,3.55,1.067,6.198,1.523l0.103,0.017c0.201,0.712-0.221,3.484-0.624,4.052
		c-0.657-0.006-1.568-0.053-2.702-0.11c-2.062-0.106-4.887-0.248-8.177-0.248c-6.598,0-10.046,0.13-13.338,0.342
		c-0.248-0.823-0.335-3.476-0.033-4.029c1.921-0.359,2.871-0.602,4.024-0.943c2.1-0.692,2.705-1.643,2.828-4.429
		c0.048-1.982,0.429-19.418-0.247-23.558c-0.622-4.29-3.86-9.312-10.941-9.312c-2.625,0-6.87,1.091-10.915,4.155
		c-0.251,0.244-0.396,0.717-0.396,1.028l0.007,0.08c0.477,2.235,0.477,4.841,0.477,8.784c0,2.248-0.014,4.632-0.027,7
		c-0.027,4.807-0.053,9.346,0.027,12.775c0,2.338,1.415,2.895,2.553,3.346c0.618,0.137,1.109,0.255,1.6,0.372
		c0.953,0.23,1.94,0.466,3.4,0.7c0.199,0.461,0.218,1.837-0.056,3.014c-0.153,0.65-0.329,0.937-0.422,1.03
		c-3.67-0.126-7.434-0.235-12.866-0.235c-1.646,0-4.335,0.071-6.706,0.134c-1.922,0.051-3.743,0.101-4.777,0.106
		c-0.15-0.237-0.36-0.995-0.36-2.088c0-1.016,0.186-1.732,0.378-1.952c0.51-0.094,0.995-0.18,1.459-0.262
		c1.274-0.227,2.374-0.421,3.43-0.68c1.798-0.548,2.472-1.546,2.604-3.83c0.351-5.331,0.626-20.687-0.13-24.534
		c-1.285-6.171-4.803-9.299-10.453-9.299c-3.313,0-7.494,1.592-10.912,4.152c-0.573,0.422-1.007,1.485-1.007,2.466
		c0,1.828-0.006,4.006-0.013,6.341c-0.023,7.713-0.05,17.313,0.137,21.468c0.116,1.276,0.56,2.797,2.971,3.357
		c0.526,0.147,1.437,0.299,2.493,0.473c0.608,0.101,1.272,0.211,1.955,0.334c0.246,0.66,0.095,3.249-0.325,4.055
		c-1.054-0.007-2.351-0.067-3.839-0.133c-2.273-0.1-5.099-0.227-8.321-0.227c-3.791,0-6.431,0.127-8.551,0.227
		C99.26,140.105,98.027,140.165,96.797,140.171L96.797,140.171z"/>
	<path fill="#494849" d="M219.073,141.249c-18.224,0-24.717-13.352-24.717-25.846c0-8.727,3.573-15.552,10.623-20.281
		c5.011-3.076,10.993-4.846,16.397-4.846c13.907,0,23.622,9.988,23.622,24.29c0,9.724-3.882,17.398-11.224,22.195
		C230.254,138.919,224.143,141.249,219.073,141.249L219.073,141.249z M217.131,95.369c-2.208,0-4.269,0.578-5.803,1.627
		c-4.213,2.559-6.356,7.667-6.356,15.172c0,14.054,7.045,23.868,17.131,23.868c2.975,0,5.401-0.854,7.417-2.613
		c3.099-2.526,4.743-7.685,4.743-14.907C234.263,104.671,227.377,95.369,217.131,95.369L217.131,95.369z"/>
	<path fill="#494849" d="M407.785,141.249c-18.225,0-24.718-13.351-24.718-25.844c0-8.73,3.576-15.554,10.626-20.284
		c5.01-3.076,10.992-4.845,16.396-4.845c13.909,0,23.623,9.989,23.623,24.289c0,9.727-3.883,17.401-11.225,22.195
		C418.966,138.919,412.857,141.249,407.785,141.249L407.785,141.249z M405.844,95.369c-2.211,0-4.273,0.578-5.805,1.627
		c-4.21,2.559-6.354,7.666-6.354,15.172c0,14.054,7.043,23.868,17.131,23.868c2.976,0,5.401-0.854,7.417-2.614
		c3.099-2.525,4.743-7.682,4.743-14.904C422.975,104.672,416.09,95.369,405.844,95.369L405.844,95.369z"/>
	<path fill="#494849" d="M344.861,170c-6.542,0-11.256-1.379-15.284-4.474c-3.917-3.021-5.671-7.499-5.671-10.594
		c0-0.89,0.211-3.19,2.146-5.388c1.141-1.294,3.781-3.715,9.88-7.906c0.186-0.07,0.318-0.255,0.318-0.479
		c0-0.249-0.162-0.452-0.383-0.499c-5.027-1.922-6.543-5.077-7-6.789c-0.007-0.061-0.029-0.16-0.05-0.264
		c-0.145-0.672-0.279-1.306,0.63-1.958c0.703-0.502,1.834-1.171,3.031-1.877c1.768-1.043,3.769-2.224,4.878-3.173
		c0.176-0.171,0.247-0.422,0.205-0.673c-0.042-0.254-0.189-0.462-0.407-0.569c-7.439-2.497-11.185-8.017-11.185-16.423
		c0-5.427,2.506-10.332,6.873-13.459c2.991-2.362,10.502-5.201,15.367-5.201l0.283,0.003c5.005,0.119,7.827,1.165,11.732,2.61
		c2.12,0.784,4.128,1.102,6.935,1.102c4.143,0,5.953-1.312,7.505-2.818c0.089,0.187,0.3,0.779,0.396,2.142
		c0.098,1.391-0.282,3.451-1.346,4.922c-0.848,1.172-2.81,2.022-4.665,2.022c-0.186,0-0.368-0.009-0.544-0.027
		c-1.908-0.187-2.805-0.465-2.813-0.469l-0.468,0.163c-0.147,0.215-0.052,0.455,0.069,0.757c0.029,0.073,0.059,0.141,0.069,0.187
		c0.244,0.97,0.676,3.801,0.676,4.594c0,8.815-3.482,12.66-7.245,15.503c-3.59,2.707-7.788,4.334-12.518,4.833h-0.004
		c-0.097,0-0.545,0.04-1.449,0.12c-0.582,0.053-1.308,0.118-1.415,0.118l-0.107,0.014c-0.822,0.232-2.955,1.245-2.955,3.131
		c0,1.569,0.967,3.513,5.579,3.861c0.934,0.07,1.938,0.14,2.985,0.211c6.088,0.424,13.692,0.951,17.271,2.164
		c4.922,1.791,7.985,6.195,7.985,11.493c0,7.911-5.631,15.349-15.062,19.894C354.528,168.953,349.884,170,344.861,170L344.861,170z
		 M344.134,142.206c-2.11,0-3.645,0.613-4.562,1.128c-4.446,2.847-6.507,5.691-6.507,8.964c0,3.088,1.2,5.541,3.778,7.722
		c3.122,2.643,7.332,3.928,12.87,3.928c10.892,0,15.776-5.85,15.776-11.649c0-4.035-2.028-6.74-6.198-8.269
		C356.076,142.855,350.707,142.206,344.134,142.206L344.134,142.206z M344.861,94.891c-5.618,0-9.248,4.431-9.248,11.289
		c0,6.921,3.122,15.002,11.919,15.002c1.511,0,4.249-0.67,5.605-2.165c2.043-1.876,3.378-5.751,3.378-9.844
		C356.514,100.229,352.157,94.891,344.861,94.891L344.861,94.891z"/>
	<g>
		<g>
			<path fill="#494849" d="M315.249,135.768c-2.667-0.359-4.61-0.719-6.913-1.797c-0.364-0.24-0.851-1.318-0.851-1.677
				c-0.243-3.714-0.243-14.495-0.243-21.562c0-5.75-0.969-10.781-3.395-14.376c-2.911-4.072-7.034-6.468-12.372-6.468
				c-4.73,0-11.038,3.234-16.253,7.667c-0.121,0.12-0.923,0.879-0.906-0.301c0.019-1.178,0.201-3.575,0.311-5.086
				c0.11-1.509-0.794-2.221-0.794-2.221c-3.397,1.677-12.964,3.948-16.497,4.313c-2.582,0.496-3.346,2.976-0.487,3.832l0,0
				c0.016,0.005,0.031,0.01,0.047,0.014c2.875,0.864,4.815,1.788,6.261,2.741c1.092,0.839,0.97,2.037,0.97,2.995
				c0.121,8.025,0.121,20.365-0.243,27.073c-0.121,2.636-0.849,3.593-2.79,4.073l0.178-0.06c-1.456,0.358-2.669,0.599-4.488,0.838
				c-0.607,0.598-0.607,4.072,0,4.792c1.213,0,7.4-0.361,12.493-0.361c7.035,0,10.674,0.361,12.494,0.361
				c0.728-0.84,0.97-4.075,0.485-4.792c-2.062-0.12-3.518-0.359-4.974-0.719c-1.941-0.479-2.426-1.437-2.546-3.594
				c-0.243-5.629-0.243-17.608-0.243-25.755c0-2.276,0.607-3.354,1.334-3.954c2.425-2.156,6.428-3.592,9.946-3.592
				c3.395,0,5.7,1.078,7.398,2.514c2.305,1.917,3.154,4.672,3.397,6.709c0.485,4.553,0.362,13.656,0.362,21.562
				c0,4.313-0.362,5.391-1.94,5.87c-0.728,0.359-2.669,0.719-4.974,0.958c-0.726,0.717-0.485,4.072,0,4.792
				c3.154,0,6.793-0.361,12.129-0.361c6.672,0,10.916,0.361,12.615,0.361C315.491,139.72,315.733,136.605,315.249,135.768z"/>
		</g>
	</g>
</g>
</svg>
