<svg xmlns="http://www.w3.org/2000/svg" width="200" height="128">
    <path d="M38.637 49.08c-2.227-9.823-6.87-12.438-8.054-14.288a21.263 21.263 0 0 1-1.293-2.534 2.579 2.579 0 0 1-.921 2.084c-1.489 1.328-7.815 6.485-8.347 17.645-.5 10.408 7.651 16.827 8.727 17.49a2.418 2.418 0 0 0 2.327-.365C35 66.417 40.37 59.231 38.64 49.08" fill="#10aa50"/>
    <path d="M29.628 63.935a21.414 21.414 0 0 1-.873 5.547s.342 2.45.582 5.048h.848a47.718 47.718 0 0 1 .926-5.44c-1.098-.539-1.443-2.896-1.483-5.155z" fill="#b8c4c2"/>
    <path d="M31.111 69.092c-1.109-.514-1.431-2.918-1.48-5.158a106.058 106.058 0 0 0 .238-11.106c-.061-1.942.019-18-.481-20.348a19.527 19.527 0 0 0 1.2 2.312c1.184 1.85 5.825 4.465 8.051 14.289 1.731 10.124-3.606 17.298-7.528 20.011z" fill="#12924f"/>
    <path d="M177.586 65.535A2.413 2.413 0 1 1 180 63.093a2.384 2.384 0 0 1-2.325 2.442h-.088m0-4.609a2.2 2.2 0 1 0 2.182 2.211v-.008a2.161 2.161 0 0 0-2.119-2.2h-.063m.582 3.721l-.624-1.342h-.5v1.342h-.365v-3.042h.9c.67 0 .948.291.948.854a.744.744 0 0 1-.6.814l.644 1.382zm-1.126-1.66h.53c.427 0 .581-.146.581-.537s-.155-.521-.637-.521h-.481zm-35.371.355a5.56 5.56 0 0 0 3.109.739 6.051 6.051 0 0 0 4.38-1.568c1.454-1.321 2.455-3.346 2.455-6.576 0-3.1-1.18-5.624-3.605-7.1a9.639 9.639 0 0 0-5.157-1.2 4.291 4.291 0 0 0-1.523.185.814.814 0 0 0-.28.436c-.062.554-.062 4.764-.062 7.252 0 2.55 0 6.11.062 6.546a1.877 1.877 0 0 0 .621 1.29m-6.2-17.093c.528 0 2.535.092 3.468.092 1.745 0 2.951-.092 6.214-.092a10.061 10.061 0 0 1 6.682 2.152 8.944 8.944 0 0 1 3.046 7.036 9.138 9.138 0 0 1-3.792 7.9 12.567 12.567 0 0 1-7.862 2.212c-1.865 0-5.066-.062-7.738-.091h-.037c-.123-.248.229-1.206.448-1.23a3.985 3.985 0 0 0 1.254-.248c.563-.233.7-.521.759-1.535.094-1.905.063-4.179.063-6.759 0-1.845.031-5.44-.032-6.576-.093-.953-.5-1.2-1.309-1.384a17.135 17.135 0 0 0-1.746-.276c-.062-.185.416-1.018.572-1.2m27.129 1.56c-.124.03-.279.339-.279.493a292.625 292.625 0 0 0-.063 5.99.2.2 0 0 0 .156.154c.4.032 1.4.063 2.237.063a5.34 5.34 0 0 0 2.239-.339 2.9 2.9 0 0 0 1.454-2.735c0-2.673-1.865-3.687-4.63-3.687a8.227 8.227 0 0 0-1.12.061m7.055 12.292c0-2.7-1.988-4.241-5.625-4.241a13.781 13.781 0 0 0-1.584.032c-.094.029-.188.091-.188.153 0 1.936-.03 5.038.063 6.269a2.073 2.073 0 0 0 .9 1.475 6.251 6.251 0 0 0 2.393.337 3.734 3.734 0 0 0 4.039-4.025m-12.666-13.8c.279 0 1.107.093 3.219.093 1.989 0 3.6-.062 5.527-.062 2.393 0 5.687.861 5.687 4.425a4.312 4.312 0 0 1-2.859 3.841c-.094.031-.094.092 0 .124 2.3.582 4.32 2 4.32 4.7 0 2.641-1.647 4.3-4.04 5.345a12.824 12.824 0 0 1-5.091.862c-1.4 0-5.144-.155-7.226-.123-.218-.093.2-1.076.384-1.229a5.758 5.758 0 0 0 1.41-.221c.746-.183.834-.425.928-1.53.062-.953.062-4.364.062-6.791 0-3.32.031-5.563 0-6.668-.032-.861-.342-1.138-.934-1.292-.465-.091-1.241-.183-1.863-.276-.156-.146.323-1.075.478-1.2M45.519 65.535a1.306 1.306 0 0 1-.1-.621.8.8 0 0 1 .094-.413 10.09 10.09 0 0 0 1.193-.244c.55-.137.758-.437.79-1.138.09-1.656.094-4.763.062-6.95v-.064a.889.889 0 0 0-.29-.781 6.24 6.24 0 0 0-1.648-.727c-.261-.079-.405-.215-.4-.375s.17-.349.509-.415a19.665 19.665 0 0 0 4.186-1.084.619.619 0 0 1 .125.437l-.024.3c-.027.31-.056.659-.056 1.008a.229.229 0 0 0 .255.2.232.232 0 0 0 .135-.067 7.735 7.735 0 0 1 4.154-1.877 3.575 3.575 0 0 1 3.177 1.951.221.221 0 0 0 .181.1.2.2 0 0 0 .168-.09 8.336 8.336 0 0 1 4.306-1.966c2.544 0 4.064 1.906 4.064 5.091 0 .917-.01 2.079-.019 3.164 0 .95-.013 1.842-.013 2.46a.848.848 0 0 0 .5.647 6.58 6.58 0 0 0 1.589.39h.026a2.325 2.325 0 0 1-.16 1.04c-.167 0-.4-.013-.691-.028a39.542 39.542 0 0 0-2.095-.064c-1.691 0-2.574.034-3.418.087a2.549 2.549 0 0 1-.009-1.032 9.365 9.365 0 0 0 1.032-.242c.538-.179.693-.422.727-1.137.012-.508.109-4.981-.064-6.042a2.7 2.7 0 0 0-2.8-2.389 4.928 4.928 0 0 0-2.8 1.066.414.414 0 0 0-.1.264v.02a11.545 11.545 0 0 1 .121 2.253v1.8c-.007 1.234-.014 2.4 0 3.277a.826.826 0 0 0 .655.858l.41.1c.244.059.5.12.873.179a1.687 1.687 0 0 1-.015.774.6.6 0 0 1-.109.265 88.7 88.7 0 0 0-3.3-.061c-.42 0-1.11.019-1.718.035-.492.013-.958.026-1.223.026a1.2 1.2 0 0 1-.092-.535.943.943 0 0 1 .1-.5l.374-.067c.327-.058.608-.109.873-.174.461-.146.633-.4.667-.984a46.1 46.1 0 0 0-.033-6.292 2.584 2.584 0 0 0-2.678-2.385 5.029 5.029 0 0 0-2.8 1.064.85.85 0 0 0-.257.632V57.9c0 1.978-.013 4.441.035 5.507a.875.875 0 0 0 .762.861c.134.038.368.077.639.121.155.028.325.054.5.086a2.2 2.2 0 0 1-.083 1.04c-.27 0-.6-.016-.983-.034-.582-.024-1.309-.058-2.133-.058-.971 0-1.648.034-2.19.058-.364.018-.679.032-1 .034m31.2-11.474a2.645 2.645 0 0 0-1.487.418c-1.079.656-1.628 1.966-1.628 3.891 0 3.6 1.8 6.122 4.389 6.122a2.764 2.764 0 0 0 1.9-.671c.793-.647 1.214-1.971 1.214-3.822 0-3.548-1.757-5.938-4.389-5.938m.5 11.768c-4.669 0-6.332-3.424-6.332-6.629a5.922 5.922 0 0 1 2.722-5.2 8.293 8.293 0 0 1 4.2-1.245 5.878 5.878 0 0 1 6.052 6.231 6.448 6.448 0 0 1-2.876 5.694 8.13 8.13 0 0 1-3.767 1.15m47.038-11.766a2.638 2.638 0 0 0-1.488.418c-1.078.656-1.628 1.966-1.628 3.891 0 3.6 1.8 6.122 4.389 6.122a2.762 2.762 0 0 0 1.9-.671c.794-.647 1.216-1.971 1.216-3.822 0-3.552-1.764-5.938-4.388-5.938m.5 11.768c-4.669 0-6.332-3.424-6.332-6.629a5.924 5.924 0 0 1 2.722-5.2 8.292 8.292 0 0 1 4.2-1.245 5.879 5.879 0 0 1 6.053 6.231 6.448 6.448 0 0 1-2.876 5.694 8.137 8.137 0 0 1-3.767 1.15m-16.211-11.888c-1.44 0-2.369 1.136-2.369 2.9s.8 3.849 3.054 3.849a2.186 2.186 0 0 0 1.436-.556 3.584 3.584 0 0 0 .865-2.525c0-2.294-1.115-3.664-2.984-3.664m-.186 12.137a2.377 2.377 0 0 0-1.164.291c-1.139.727-1.667 1.454-1.667 2.3a2.459 2.459 0 0 0 .969 1.982 4.9 4.9 0 0 0 3.3 1.006c2.79 0 4.041-1.5 4.041-2.988a2.115 2.115 0 0 0-1.587-2.12 12.4 12.4 0 0 0-3.884-.469m.187 7.128a6.032 6.032 0 0 1-3.916-1.148 3.671 3.671 0 0 1-1.455-2.719 2.123 2.123 0 0 1 .55-1.381 14.514 14.514 0 0 1 2.531-2.028.129.129 0 0 0 .082-.122.127.127 0 0 0-.1-.128 2.663 2.663 0 0 1-1.793-1.746.475.475 0 0 0-.014-.067.405.405 0 0 1 .162-.5c.18-.128.47-.3.777-.48a10.366 10.366 0 0 0 1.249-.814.2.2 0 0 0 .053-.172.2.2 0 0 0-.105-.146 4.019 4.019 0 0 1-2.866-4.218 4.2 4.2 0 0 1 1.76-3.452 8.056 8.056 0 0 1 3.938-1.333h.064a8.1 8.1 0 0 1 3 .669 4.777 4.777 0 0 0 1.776.291 2.391 2.391 0 0 0 1.923-.728 1.668 1.668 0 0 1 .1.55 2.08 2.08 0 0 1-.345 1.263 1.579 1.579 0 0 1-1.2.519 1.034 1.034 0 0 1-.145-.007 4.181 4.181 0 0 1-.72-.121l-.121.041c-.038.055-.011.118.019.2 0 .019.015.036.018.048a8.826 8.826 0 0 1 .173 1.178 4.4 4.4 0 0 1-1.856 3.977 6.347 6.347 0 0 1-3.2 1.24c-.025 0-.146.011-.371.031a11.67 11.67 0 0 1-.363.029h-.027c-.211.06-.758.32-.758.8 0 .4.249.9 1.43.991.24.017.5.036.765.053a23.454 23.454 0 0 1 4.425.556 3.056 3.056 0 0 1 2.045 2.947c0 2.036-1.442 3.937-3.859 5.1a8.374 8.374 0 0 1-3.648.82m-7.136-8.724A5.584 5.584 0 0 1 99.617 64a.814.814 0 0 1-.218-.429c-.061-.954-.061-3.718-.061-5.527a6.616 6.616 0 0 0-.873-3.687 3.739 3.739 0 0 0-3.169-1.66 7.358 7.358 0 0 0-4.163 1.968c-.032.029-.238.224-.232-.079s.051-.916.079-1.309a.664.664 0 0 0-.2-.568 18.464 18.464 0 0 1-4.225 1.105c-.662.128-.828.764-.124.983h.01a5.969 5.969 0 0 1 1.6.7.836.836 0 0 1 .249.768c.031 2.058.031 5.225-.063 6.945-.03.677-.216.921-.714 1.045l.045-.015a9.784 9.784 0 0 1-1.15.216 1.686 1.686 0 0 0 0 1.227c.311 0 1.891-.091 3.2-.091 1.8 0 2.734.091 3.2.091a1.706 1.706 0 0 0 .125-1.227 6.6 6.6 0 0 1-1.274-.187c-.5-.122-.623-.368-.652-.92-.062-1.445-.062-4.518-.062-6.607a1.225 1.225 0 0 1 .341-1.018 4.086 4.086 0 0 1 2.549-.922 2.781 2.781 0 0 1 1.891.644 2.635 2.635 0 0 1 .872 1.722c.124 1.164.094 3.5.094 5.528 0 1.1-.094 1.383-.5 1.505a4.986 4.986 0 0 1-1.274.247 1.675 1.675 0 0 0 0 1.228c.807 0 1.745-.092 3.107-.092 1.71 0 2.8.092 3.233.092a1.7 1.7 0 0 0 .124-1.228m41.169 31.035l-1.746-4.6h-6.829l-1.746 4.6h-1.6l6.219-15.256h1.208l6.07 15.25zm-5.121-13.566l-2.982 7.8h5.919zm9.785 11.383c0 .582.086 1.254.842 1.254a2.7 2.7 0 0 0 1.425-.649v1.3a2.749 2.749 0 0 1-1.706.476 1.585 1.585 0 0 1-1.642-.929 6.549 6.549 0 0 1-.145-1.685v-6.809h-2.166v-1.079h2.16v-4.385h1.232v4.385h2.267v1.079h-2.267zm3.971 2.182V80.226h1.3v15.256zm12.5 0c-1.707 0-2.506-.436-2.506-1.879a3.67 3.67 0 0 1-3.651 2.1c-2.182 0-3.239-1.34-3.239-2.809 0-2.051 1.745-2.786 5.162-3.564l1.728-.388v-.8c0-.994-.5-2.095-2.4-2.095-2.118 0-2.787.821-2.787 2.485l-1.4-.239c.259-2.095 1.663-3.369 4.04-3.369 1.792 0 3.781.54 3.781 3.11v4.509c0 1.382.043 1.922 1.31 1.922h.216v1.018zm-2.506-5.443l-.649.173c-3.491.928-5.011 1.145-5.011 2.656a1.832 1.832 0 0 0 2.074 1.708 3.772 3.772 0 0 0 3.3-1.945 4.036 4.036 0 0 0 .281-1.814zm4.953 2.506a2.8 2.8 0 0 0 2.873 2.037c1.987 0 2.634-1.1 2.634-2.009s-.518-1.491-2.224-1.859l-1.21-.259c-1.6-.345-2.678-1.058-2.678-2.57a2.8 2.8 0 0 1 .886-2.095 4.372 4.372 0 0 1 2.807-.864 4.593 4.593 0 0 1 2.528.669 2.826 2.826 0 0 1 1.12 1.657l-1.21.324c-.237-1.188-1.469-1.533-2.5-1.533-2.1 0-2.377 1.1-2.377 1.728 0 1.209 1.274 1.49 2.16 1.663l1.081.217c1.814.366 2.851 1.4 2.851 3 0 1.188-.95 3.089-3.845 3.089a4.2 4.2 0 0 1-4.148-2.763z" fill="#21313c"/>
</svg>
