<svg xmlns="http://www.w3.org/2000/svg" width="200" height="128">
	<path d="M38.636 59.686c-2.227-9.824-6.869-12.439-8.053-14.288a21.047 21.047 0 0 1-1.294-2.534 2.584 2.584 0 0 1-.919 2.085c-1.49 1.328-7.816 6.483-8.348 17.645-.5 10.408 7.651 16.825 8.727 17.489a2.393 2.393 0 0 0 2.328-.366C35 77.022 40.37 69.836 38.64 59.686" fill="#10aa50"/>
	<path d="M29.626 74.541a21.422 21.422 0 0 1-.872 5.544s.341 2.453.581 5.051h.85a47.19 47.19 0 0 1 .926-5.439c-1.099-.541-1.443-2.897-1.485-5.156z" fill="#b8c4c2"/>
	<path d="M31.11 79.7c-1.111-.514-1.433-2.918-1.482-5.158a105.528 105.528 0 0 0 .24-11.106c-.058-1.943.027-18-.479-20.35a19.506 19.506 0 0 0 1.194 2.314c1.184 1.85 5.827 4.465 8.053 14.289 1.734 10.13-3.603 17.297-7.526 20.011z" fill="#12924f"/>
	<path d="M177.586 76.146A2.413 2.413 0 1 1 180 73.7a2.383 2.383 0 0 1-2.317 2.446h-.1m0-4.608a2.2 2.2 0 1 0 2.182 2.211v-.008a2.16 2.16 0 0 0-2.117-2.2h-.065m.582 3.721-.623-1.342h-.5v1.342h-.365v-3.057h.9c.67 0 .95.29.95.853a.742.742 0 0 1-.6.813l.643 1.384zm-1.11-1.658h.528c.428 0 .591-.146.591-.535s-.156-.523-.638-.523h-.481zm-35.387.346a5.541 5.541 0 0 0 3.108.738 6.055 6.055 0 0 0 4.382-1.567c1.454-1.322 2.455-3.346 2.455-6.576 0-3.1-1.181-5.624-3.605-7.1a9.635 9.635 0 0 0-5.159-1.2 4.282 4.282 0 0 0-1.521.185.792.792 0 0 0-.281.436c-.061.553-.061 4.762-.061 7.251 0 2.551 0 6.109.061 6.546a1.883 1.883 0 0 0 .621 1.29m-6.2-17.09c.528 0 2.535.092 3.469.092 1.745 0 2.951-.092 6.214-.092a10.063 10.063 0 0 1 6.681 2.15 8.946 8.946 0 0 1 3.054 7.037 9.132 9.132 0 0 1-3.792 7.9 12.544 12.544 0 0 1-7.855 2.213c-1.864 0-5.066-.062-7.738-.092h-.055c-.125-.246.228-1.2.446-1.229a3.964 3.964 0 0 0 1.254-.249c.565-.231.7-.519.76-1.533.093-1.906.062-4.179.062-6.761 0-1.843.031-5.439-.03-6.576-.095-.951-.5-1.2-1.31-1.382a16.843 16.843 0 0 0-1.745-.276c-.061-.185.416-1.019.572-1.2m27.133 1.559c-.123.031-.279.339-.279.492a285.74 285.74 0 0 0-.063 5.991.2.2 0 0 0 .156.155c.4.03 1.4.062 2.237.062a5.308 5.308 0 0 0 2.237-.339 2.9 2.9 0 0 0 1.455-2.734c0-2.674-1.865-3.688-4.63-3.688a8.546 8.546 0 0 0-1.119.061m7.055 12.292c0-2.7-1.99-4.24-5.626-4.24a14.217 14.217 0 0 0-1.584.03c-.093.031-.186.092-.186.154 0 1.936-.032 5.039.062 6.268a2.076 2.076 0 0 0 .9 1.475 6.255 6.255 0 0 0 2.392.337 3.735 3.735 0 0 0 4.041-4.024m-12.663-13.8c.28 0 1.107.092 3.22.092 1.988 0 3.605-.062 5.527-.062 2.393 0 5.686.862 5.686 4.425a4.312 4.312 0 0 1-2.858 3.842c-.093.03-.093.091 0 .122 2.3.582 4.319 2 4.319 4.7 0 2.643-1.647 4.3-4.04 5.347a12.818 12.818 0 0 1-5.091.86c-1.4 0-5.144-.146-7.227-.122-.219-.092.2-1.077.385-1.229a5.758 5.758 0 0 0 1.41-.221c.744-.184.833-.424.926-1.531.063-.952.063-4.363.063-6.791 0-3.319.032-5.561 0-6.668-.031-.86-.342-1.137-.933-1.29-.465-.093-1.242-.185-1.863-.276-.156-.155.323-1.077.477-1.2M45.518 76.146a1.344 1.344 0 0 1-.095-.621.787.787 0 0 1 .095-.414 10.489 10.489 0 0 0 1.192-.243c.55-.137.757-.436.789-1.138.09-1.656.1-4.765.064-6.95v-.064a.886.886 0 0 0-.291-.781 6.305 6.305 0 0 0-1.648-.727c-.261-.077-.405-.214-.4-.374s.171-.349.51-.416a19.524 19.524 0 0 0 4.186-1.082.61.61 0 0 1 .124.436 3.014 3.014 0 0 1-.025.3c-.026.308-.055.659-.055 1.008a.23.23 0 0 0 .39.132 7.716 7.716 0 0 1 4.156-1.876 3.572 3.572 0 0 1 3.176 1.949.214.214 0 0 0 .181.106.207.207 0 0 0 .169-.09 8.317 8.317 0 0 1 4.305-1.965c2.543 0 4.063 1.9 4.063 5.091 0 .916-.009 2.079-.018 3.162-.007.951-.014 1.843-.014 2.46a.851.851 0 0 0 .5.647 6.4 6.4 0 0 0 1.588.391h.026a2.363 2.363 0 0 1-.16 1.04c-.169 0-.4-.014-.692-.029-.528-.026-1.253-.062-2.095-.062-1.69 0-2.573.032-3.417.087a2.557 2.557 0 0 1-.008-1.034 8.92 8.92 0 0 0 1.035-.226c.539-.177.694-.421.728-1.136.013-.507.11-4.98-.063-6.042a2.7 2.7 0 0 0-2.8-2.39 4.94 4.94 0 0 0-2.8 1.066.408.408 0 0 0-.1.264v.022a11.452 11.452 0 0 1 .122 2.253c0 .581 0 1.188-.007 1.795-.008 1.233-.014 2.4.007 3.277a.825.825 0 0 0 .654.858c.159.035.284.065.411.095.242.059.5.12.872.18a1.674 1.674 0 0 1-.014.774.63.63 0 0 1-.109.263c-.94-.032-1.9-.06-3.3-.06-.422 0-1.11.018-1.718.034-.493.013-.959.026-1.224.027a1.209 1.209 0 0 1-.093-.535.922.922 0 0 1 .1-.5l.374-.069c.325-.058.608-.107.872-.174.46-.146.633-.4.667-.982a46.123 46.123 0 0 0-.034-6.294 2.583 2.583 0 0 0-2.678-2.385 5.034 5.034 0 0 0-2.8 1.064.851.851 0 0 0-.258.633v1.628c0 1.978-.013 4.441.035 5.505a.871.871 0 0 0 .761.861c.135.04.368.078.638.123.156.026.326.053.5.085a2.2 2.2 0 0 1-.083 1.04c-.27 0-.6-.017-.985-.033a46.217 46.217 0 0 0-2.131-.058c-.971 0-1.648.032-2.19.058-.365.017-.681.032-1 .033m31.208-11.489a2.652 2.652 0 0 0-1.484.417c-1.079.656-1.629 1.967-1.629 3.893 0 3.6 1.805 6.122 4.39 6.122a2.765 2.765 0 0 0 1.894-.67c.794-.648 1.216-1.971 1.216-3.825 0-3.55-1.764-5.937-4.39-5.937m.5 11.769c-4.67 0-6.332-3.426-6.332-6.63a5.927 5.927 0 0 1 2.72-5.2 8.3 8.3 0 0 1 4.2-1.242 5.877 5.877 0 0 1 6.051 6.231 6.446 6.446 0 0 1-2.874 5.693 8.149 8.149 0 0 1-3.767 1.151m47.041-11.769a2.644 2.644 0 0 0-1.487.417c-1.079.656-1.629 1.967-1.629 3.893 0 3.6 1.805 6.122 4.39 6.122a2.765 2.765 0 0 0 1.9-.67c.794-.648 1.214-1.971 1.214-3.825 0-3.55-1.763-5.937-4.388-5.937m.5 11.769c-4.669 0-6.332-3.426-6.332-6.629a5.924 5.924 0 0 1 2.722-5.2 8.29 8.29 0 0 1 4.2-1.242 5.878 5.878 0 0 1 6.051 6.23 6.442 6.442 0 0 1-2.875 5.693 8.135 8.135 0 0 1-3.767 1.152m-16.22-11.898c-1.439 0-2.37 1.136-2.37 2.894s.8 3.849 3.055 3.849a2.192 2.192 0 0 0 1.435-.554 3.593 3.593 0 0 0 .873-2.527c0-2.294-1.117-3.662-2.986-3.662m-.186 12.137a2.353 2.353 0 0 0-1.164.291c-1.139.727-1.667 1.454-1.667 2.3a2.457 2.457 0 0 0 .967 1.98 4.9 4.9 0 0 0 3.3 1.008c2.791 0 4.042-1.5 4.042-2.988a2.118 2.118 0 0 0-1.588-2.122 12.472 12.472 0 0 0-3.884-.467m.186 7.128a6.026 6.026 0 0 1-3.914-1.148 3.668 3.668 0 0 1-1.455-2.717 2.124 2.124 0 0 1 .55-1.382 14.427 14.427 0 0 1 2.531-2.028.134.134 0 0 0 .082-.123.129.129 0 0 0-.1-.128 2.676 2.676 0 0 1-1.794-1.746.148.148 0 0 0-.013-.068.4.4 0 0 1 .163-.5c.18-.128.468-.3.777-.482a10.359 10.359 0 0 0 1.249-.813.205.205 0 0 0-.01-.29.319.319 0 0 0-.042-.03 4.018 4.018 0 0 1-2.866-4.218 4.194 4.194 0 0 1 1.76-3.452 8.036 8.036 0 0 1 3.938-1.335h.073a8.139 8.139 0 0 1 3 .669 4.758 4.758 0 0 0 1.777.282 2.394 2.394 0 0 0 1.923-.727 1.664 1.664 0 0 1 .1.55 2.069 2.069 0 0 1-.346 1.262 1.569 1.569 0 0 1-1.194.52.912.912 0 0 1-.146-.008 3.9 3.9 0 0 1-.727-.12l-.119.042c-.038.055-.013.116.017.2a.25.25 0 0 1 .018.048 8.513 8.513 0 0 1 .173 1.178 4.4 4.4 0 0 1-1.856 3.977 6.345 6.345 0 0 1-3.2 1.239c-.025 0-.146.01-.373.031-.145.013-.334.03-.362.03h-.028c-.209.058-.756.319-.756.8 0 .4.247.9 1.43.991l.765.053a23.584 23.584 0 0 1 4.423.555 3.063 3.063 0 0 1 2.047 2.948c0 2.029-1.443 3.938-3.859 5.1a8.393 8.393 0 0 1-3.65.819m-7.142-8.713a5.517 5.517 0 0 1-1.771-.461.809.809 0 0 1-.218-.436c-.063-.953-.063-3.718-.063-5.528a6.6 6.6 0 0 0-.873-3.687 3.739 3.739 0 0 0-3.169-1.66 7.355 7.355 0 0 0-4.163 1.967c-.032.03-.237.225-.233-.077s.051-.917.08-1.309a.671.671 0 0 0-.2-.57 18.48 18.48 0 0 1-4.227 1.106c-.66.128-.827.764-.122.984h.01a6 6 0 0 1 1.6.7.837.837 0 0 1 .249.768c.031 2.058.031 5.223-.062 6.944-.031.676-.219.922-.716 1.046l.046-.016a9.543 9.543 0 0 1-1.15.215 1.672 1.672 0 0 0 0 1.229c.311 0 1.891-.091 3.2-.091 1.8 0 2.733.091 3.2.091a1.71 1.71 0 0 0 .125-1.229 6.482 6.482 0 0 1-1.276-.185c-.5-.122-.621-.369-.651-.92-.061-1.446-.061-4.518-.061-6.609a1.233 1.233 0 0 1 .34-1.018 4.093 4.093 0 0 1 2.548-.921 2.78 2.78 0 0 1 1.891.645 2.632 2.632 0 0 1 .891 1.737c.123 1.163.091 3.5.091 5.527 0 1.107-.091 1.385-.5 1.507a4.988 4.988 0 0 1-1.274.246 1.677 1.677 0 0 0 0 1.229c.807 0 1.746-.092 3.107-.092 1.709 0 2.8.092 3.232.092a1.709 1.709 0 0 0 .125-1.229" fill="#21313c"/>
</svg>
