<svg xmlns="http://www.w3.org/2000/svg" width="200" height="128">
    <path fill="#373737" d="M49.8 57.05l-2.43-.77a3.41 3.41 0 00-2.68.4l-1.29.91a3.76 3.76 0 001-1.71 8.54 8.54 0 00.18-1 5.67 5.67 0 00-.15-2 5.16 5.16 0 00-.2-.67 5.63 5.63 0 00-.51-1l-.14-.21h-.06a2.54 2.54 0 00-.36-.45.93.93 0 00-.18-.16 2.26 2.26 0 00-.45-.31c-.18-.1-.5-.26-.58-.2s0 .27 0 .34a8.51 8.51 0 01.14 1.13 5.83 5.83 0 010 .59v.33a3 3 0 01-.2.78 4.83 4.83 0 01-.23.52A3.58 3.58 0 0140 55.14a3.35 3.35 0 00-.53.28 2.67 2.67 0 00-1.77-.55l-5.66.6a2.7 2.7 0 00-1.62.91 3 3 0 00-.57-.16A3.59 3.59 0 0127.89 55c-.12-.15-.23-.31-.33-.46a3.23 3.23 0 01-.36-.72c0-.07-.05-.18-.11-.31a4 4 0 01-.14-.57 6.38 6.38 0 01-.1-1.15c0-.08 0-.29-.08-.33s-.37.18-.52.31a2.79 2.79 0 00-.38.39l-.15.2a2.61 2.61 0 00-.26.53s0 .06-.05.1-.05.1-.07.16a4.62 4.62 0 00-.29 1.09q0 .34-.06.69a5.4 5.4 0 00.29 2 7.61 7.61 0 00.39.93A3.62 3.62 0 0027 59.29l-1.45-.62a3.45 3.45 0 00-2.71.17l-2.23 1.29a.88.88 0 00-.07 1.62l1.65 1.16a3.87 3.87 0 002.72.52l1.47-.36a3.16 3.16 0 001.62-.81c.12-.25 0 0-.18.59a3.34 3.34 0 00.36 2.37L30 68.35a6.1 6.1 0 01.64 2.85l-.08 1.14a2.89 2.89 0 001.16 2.35l1.81 1.21a5 5 0 002.77.68l1.58-.17a4.89 4.89 0 002.57-1.24l1.51-1.55a2.92 2.92 0 00.65-2.55L42.28 70a6 6 0 010-2.91l1.07-3.42a3.31 3.31 0 00-.14-2.39c-.32-.53-.46-.76-.31-.54a3.05 3.05 0 001.82.45h1.51a3.84 3.84 0 002.56-1.1l1.38-1.47a.89.89 0 00-.37-1.57zM137.29 66.48l-2.41-.48c-1.49-.26-2-.81-2-1.66s1-1.78 2.63-1.78a5.8 5.8 0 013.59 1.25.77.77 0 001 0l.7-.79a.6.6 0 000-.93 7.73 7.73 0 00-5.18-1.75c-3.24 0-5.6 1.75-5.6 4.2 0 2.12 1.43 3.42 3.76 3.87l2.33.44c1.66.31 2.51.82 2.51 1.89s-1 1.93-2.86 1.93a5.69 5.69 0 01-3.93-1.6c-.32-.24-.63-.44-1.06-.09l-.75.64c-.44.35-.47.88.26 1.48a8.33 8.33 0 005.36 1.78c3.73 0 5.86-2.12 5.86-4.37s-1.5-3.51-4.21-4.03zM103.5 60.48a7.18 7.18 0 107.18 7.18 7.2 7.2 0 00-7.18-7.18zm0 11.66a4.48 4.48 0 114.5-4.48 4.47 4.47 0 01-4.48 4.48zM86.82 60.48A7.18 7.18 0 1094 67.66a7.19 7.19 0 00-7.18-7.18zm0 11.66a4.48 4.48 0 114.48-4.48 4.48 4.48 0 01-4.48 4.47zM150.63 60.48a7.18 7.18 0 107.18 7.18 7.19 7.19 0 00-7.18-7.18zm0 11.66a4.48 4.48 0 114.48-4.48 4.47 4.47 0 01-4.48 4.48zM170.52 53.09l1.82-.93a.34.34 0 00.14-.45 5.85 5.85 0 00-10.88 3v5.91h-1.8a.52.52 0 00-.53.52v1.65a.53.53 0 00.53.52h1.8v10.81a.59.59 0 00.59.6h1.51a.6.6 0 00.59-.58V63.26h2.78a.52.52 0 00.52-.53v-1.65a.52.52 0 00-.52-.52h-2.78v-5.81a3.21 3.21 0 012.91-3.23 3.15 3.15 0 012.9 1.45.31.31 0 00.42.12zM179.3 71.82c-.23-.31-.56-.35-1-.08a3.14 3.14 0 01-1.52.43A1.92 1.92 0 01174.9 70v-6.73h4.22a.51.51 0 00.53-.5v-1.7a.51.51 0 00-.47-.55h-4.28v-3.95a.51.51 0 00-.47-.55h-1.78a.47.47 0 00-.55.39.43.43 0 000 .16v3.94h-2a.53.53 0 00-.49.56v1.65a.51.51 0 00.49.55h2v7.31a4 4 0 004.26 4.17 5 5 0 003.47-1.14.58.58 0 00.11-.79zM121 78.08a17.85 17.85 0 00-1.87.76c-1.4.62-3 1.34-3.85.78a1.2 1.2 0 01-.57-.93 1.72 1.72 0 01.56-1.39 13.55 13.55 0 014-2.44h.41A7.17 7.17 0 00125.15 63a5 5 0 003.58-4.81.49.49 0 00-.51-.48h-1.72a.49.49 0 00-.49.49 2.32 2.32 0 01-2.32 2.32h-4a7.18 7.18 0 00-4 13.15 14.63 14.63 0 00-2.3 1.69 4.41 4.41 0 00-1.41 3.6 3.89 3.89 0 001.8 3c2.11 1.35 4.6.23 6.42-.59a13.91 13.91 0 011.55-.62c1-.31 3-.7 4.15.4a2.54 2.54 0 01.65 2.92.48.48 0 00.16.62l1.43 1a.48.48 0 00.68-.13 5.22 5.22 0 00-1.09-6.31c-1.54-1.65-3.95-2.01-6.73-1.17zm-5.77-10.42a4.49 4.49 0 114.49 4.47 4.48 4.48 0 01-4.49-4.47zM72 60.59a5.6 5.6 0 00-5.1 2.8 4.94 4.94 0 00-4.67-2.8A5.22 5.22 0 0057.67 63v-1.5a.52.52 0 00-.52-.53h-1.76a.51.51 0 00-.52.5v12.74a.48.48 0 00.45.52h1.83a.49.49 0 00.52-.46v-7.18a3.61 3.61 0 013.76-3.94c2.36 0 3.5 1.69 3.5 3.94v7.15a.51.51 0 00.55.49h1.72a.49.49 0 00.53-.46v-7.18a3.62 3.62 0 013.73-3.94c2.42 0 3.52 1.69 3.52 3.94v7.15a.51.51 0 00.49.5h1.75a.48.48 0 00.55-.42v-7.84c.01-3.2-1.91-5.89-5.77-5.89z"/>
</svg>
