<svg xmlns="http://www.w3.org/2000/svg" viewBox="26.59 43.84 346.58 112.08">
	<defs>
		<linearGradient id="a" x1="0" x2="1" y1="0" y2="0" gradientTransform="matrix(28.4927 0 0 -28.4927 62.542 76.686)" gradientUnits="userSpaceOnUse" spreadMethod="pad">
			<stop offset="0" stop-color="#3bb05e"/>
			<stop offset=".239" stop-color="#3bb05e"/>
			<stop offset=".918" stop-color="#237d86"/>
			<stop offset="1" stop-color="#237d86"/>
		</linearGradient>
		<linearGradient id="b" x1="0" x2="1" y1="0" y2="0" gradientTransform="scale(21.32848 -21.32848) rotate(60 5.066 .637)" gradientUnits="userSpaceOnUse" spreadMethod="pad">
			<stop offset="0" stop-color="#3bb05e"/>
			<stop offset=".239" stop-color="#3bb05e"/>
			<stop offset=".918" stop-color="#237d86"/>
			<stop offset="1" stop-color="#237d86"/>
		</linearGradient>
		<linearGradient id="c" x1="0" x2="1" y1="0" y2="0" gradientTransform="matrix(13.9553 0 0 -13.9553 76.823 73.994)" gradientUnits="userSpaceOnUse" spreadMethod="pad">
			<stop offset="0" stop-color="#13576e"/>
			<stop offset=".882" stop-color="#237d86"/>
			<stop offset="1" stop-color="#237d86"/>
		</linearGradient>
		<linearGradient id="d" x1="0" x2="1" y1="0" y2="0" gradientTransform="matrix(16.39739 0 0 -16.39739 34.558 70.747)" gradientUnits="userSpaceOnUse" spreadMethod="pad">
			<stop offset="0" stop-color="#3bb05e"/>
			<stop offset=".607" stop-color="#237d86"/>
			<stop offset="1" stop-color="#237d86"/>
		</linearGradient>
		<linearGradient id="e" x1="0" x2="1" y1="0" y2="0" gradientTransform="matrix(85.8043 0 0 -85.8043 42.17 63.41)" gradientUnits="userSpaceOnUse" spreadMethod="pad">
			<stop offset="0" stop-color="#3bb05e"/>
			<stop offset=".239" stop-color="#3bb05e"/>
			<stop offset=".918" stop-color="#237d86"/>
			<stop offset="1" stop-color="#237d86"/>
		</linearGradient>
		<linearGradient id="f" x1="0" x2="1" y1="0" y2="0" gradientTransform="matrix(70.92231 0 0 -70.92231 53.566 71.335)" gradientUnits="userSpaceOnUse" spreadMethod="pad">
			<stop offset="0" stop-color="#3bb05e"/>
			<stop offset=".239" stop-color="#3bb05e"/>
			<stop offset=".918" stop-color="#237d86"/>
			<stop offset="1" stop-color="#237d86"/>
		</linearGradient>
		<linearGradient id="h" x1="0" x2="1" y1="0" y2="0" gradientTransform="matrix(24.17074 0 0 -24.17074 32.766 74.562)" gradientUnits="userSpaceOnUse" spreadMethod="pad">
			<stop offset="0" stop-color="#3bb05e"/>
			<stop offset=".212" stop-color="#3bb05e"/>
			<stop offset=".709" stop-color="#237d86"/>
			<stop offset="1" stop-color="#13576e"/>
		</linearGradient>
		<linearGradient id="i" x1="0" x2="1" y1="0" y2="0" gradientTransform="matrix(8.66117 0 0 -8.66117 110.008 80.673)" gradientUnits="userSpaceOnUse" spreadMethod="pad">
			<stop offset="0" stop-color="#13576e"/>
			<stop offset=".882" stop-color="#237d86"/>
			<stop offset="1" stop-color="#237d86"/>
		</linearGradient>
		<linearGradient id="j" x1="0" x2="1" y1="0" y2="0" gradientTransform="matrix(87.85871 0 0 -87.85871 25 88.445)" gradientUnits="userSpaceOnUse" spreadMethod="pad">
			<stop offset="0" stop-color="#3bb05e"/>
			<stop offset=".239" stop-color="#3bb05e"/>
			<stop offset=".918" stop-color="#237d86"/>
			<stop offset="1" stop-color="#237d86"/>
		</linearGradient>
		<linearGradient id="k" x1="0" x2="1" y1="0" y2="0" gradientTransform="matrix(72.6605 0 0 -72.6605 27 82.375)" gradientUnits="userSpaceOnUse" spreadMethod="pad">
			<stop offset="0" stop-color="#3bb05e"/>
			<stop offset=".239" stop-color="#3bb05e"/>
			<stop offset=".918" stop-color="#237d86"/>
			<stop offset="1" stop-color="#237d86"/>
		</linearGradient>
		<linearGradient id="l" x1="0" x2="1" y1="0" y2="0" gradientTransform="scale(-24.12917 24.12917) rotate(-45 1.83 7.481)" gradientUnits="userSpaceOnUse" spreadMethod="pad">
			<stop offset="0" stop-color="#2c758c"/>
			<stop offset=".239" stop-color="#2c758c"/>
			<stop offset=".918" stop-color="#144a62"/>
			<stop offset="1" stop-color="#144a62"/>
		</linearGradient>
		<linearGradient id="m" x1="0" x2="1" y1="0" y2="0" gradientTransform="matrix(24.1713 0 0 -24.1713 96.29 76.714)" gradientUnits="userSpaceOnUse" spreadMethod="pad">
			<stop offset="0" stop-color="#3bb05e"/>
			<stop offset=".212" stop-color="#3bb05e"/>
			<stop offset=".709" stop-color="#237d86"/>
			<stop offset="1" stop-color="#13576e"/>
		</linearGradient>
		<radialGradient id="g" cx="0" cy="0" r="1" fx="0" fy="0" gradientTransform="matrix(9.89056 0 0 -9.89056 49.132 74.205)" gradientUnits="userSpaceOnUse" spreadMethod="pad">
			<stop offset="0" stop-color="#3bb05e"/>
			<stop offset=".239" stop-color="#3bb05e"/>
			<stop offset=".918" stop-color="#237d86"/>
			<stop offset="1" stop-color="#237d86"/>
		</radialGradient>
		<clipPath id="n" clipPathUnits="userSpaceOnUse">
			<path d="M0 150h300V0H0z"/>
		</clipPath>
	</defs>
	<path fill="url(#a)" d="M62.543 76.686c0-.139.002-.277.005-.415.004-.134.011-.267.018-.4 0-.014 0-.03.002-.046.009-.124.017-.25.029-.373a14.238 14.238 0 0 1 6.522-10.774 14.186 14.186 0 0 1 7.67-2.239c1.335 0 2.627.184 3.853.529a9.653 9.653 0 0 1 5.025 8.476c0 1.493-.34 2.908-.945 4.169-.506-4.098-3.897-7.263-8.001-7.263-4.455 0-8.066 3.731-8.066 8.336 0 .372.024.738.068 1.097.498 3.914 3.629 6.975 7.495 7.222l.037.001c.093.007.188.011.283.011l.091.002.092.001h.181c6.758 0 12.411-4.706 13.877-11.018.026.132.048.267.07.401a12.469 12.469 0 0 1 .048.327c.008.064.019.132.026.199.011.082.021.168.029.25.008.067.015.132.02.199.011.092.017.188.024.282.026.338.039.68.039 1.026 0 7.868-6.379 14.246-14.246 14.246-7.87 0-14.246-6.378-14.246-14.246" transform="matrix(1.33333 0 0 -1.33333 0 200)"/>
	<path fill="url(#b)" d="M62.769 79.226c1.504-6.211 7.081-10.832 13.745-10.875-4.358.116-7.859 3.802-7.859 8.335a9.012 9.012 0 0 0 .07 1.105 9.879 9.879 0 0 0-.942 4.224 9.907 9.907 0 0 0 4.138 8.062c-4.703-1.707-8.248-5.821-9.152-10.851" transform="matrix(1.33333 0 0 -1.33333 0 200)"/>
	<path fill="url(#c)" d="M76.823 85.02c4.409-.056 7.967-3.765 7.967-8.334 0-.364-.023-.722-.068-1.073a9.616 9.616 0 0 0 .945-4.169 9.653 9.653 0 0 0-5.025-8.476 14.261 14.261 0 0 1 10.137 11.034C89.313 80.314 83.66 85.02 76.902 85.02z" transform="matrix(1.33333 0 0 -1.33333 0 200)"/>
	<path fill="url(#d)" d="M50.955 61.855a67.65 67.65 0 0 0-4.943 9.951c-5.112 2.766-7.956 5.4-8.972 7.832-5.319-4.691-2.709-10.933 13.915-17.783" transform="matrix(1.33333 0 0 -1.33333 0 200)"/>
	<path fill="url(#e)" d="M42.169 84.732c4.24-20.675 15.907-37.049 34.444-46.776 6.102 3.201 11.459 7.124 16.053 11.682-5.326-.529-10.88-.497-16.053.096 6.912 0 13.965.859 20.687 2.465 22.448 5.363 39.559 18.474 25.667 31.326 10.993-11.352-4.017-22.398-24.676-27.233-6.862-1.584-14.335-2.485-21.678-2.485-12.728 0-23.047 10.319-23.047 23.048 0 4.4 1.233 8.511 3.371 12.008-5.732-.985-10.784-2.396-14.768-4.131" transform="matrix(1.33333 0 0 -1.33333 0 200)"/>
	<path fill="url(#f)" d="M53.566 76.855c0-12.729 10.319-23.048 23.047-23.048 7.343 0 14.816.901 21.678 2.485 11.91 2.787 21.943 7.639 26.198 13.422C117.492 60.888 96.574 54.4 76.613 54.4c-12.402 0-22.455 10.054-22.455 22.455a22.35 22.35 0 0 0 3.235 11.62l-.456.388a22.945 22.945 0 0 1-3.371-12.008" transform="matrix(1.33333 0 0 -1.33333 0 200)"/>
	<path fill="url(#g)" d="M42.564 82.914c1.759-7.678 4.564-14.739 8.391-21.059-5.629 11.737-5.715 20.999 4.54 24.244.067.153.135.305.205.455-5.115-.902-9.616-2.132-13.136-3.64" transform="matrix(1.33333 0 0 -1.33333 0 200)"/>
	<path fill="url(#h)" d="M42.169 84.732c-13.207-5.757-14.662-15.097 9.785-24.472-.34.525-.673 1.057-.999 1.595-20.871 8.599-19.653 16.239-8.391 21.059 3.52 1.508 8.021 2.738 13.136 3.64.369.796.783 1.567 1.237 2.309-5.732-.985-10.784-2.396-14.768-4.131" transform="matrix(1.33333 0 0 -1.33333 0 200)"/>
	<path fill="url(#i)" d="M110.008 80.265c3.383-2.17 5.366-4.245 6.18-6.192 4.104 3.621 3.488 8.165-4.651 13.199a80.373 80.373 0 0 0-1.529-7.007" transform="matrix(1.33333 0 0 -1.33333 0 200)"/>
	<path fill="url(#j)" d="M40.37 103.363a99.189 99.189 0 0 1 .066-3.872c11.425 3.857 23.529 5.183 36.177 4.483-12.675 0-26.048-2.991-36.005-7.696-13.872-6.552-21.114-16.425-10.601-26.151-8.321 8.594-1.743 17.013 10.908 22.694 9.667 4.34 22.881 7.082 35.698 7.082 12.729 0 23.048-10.319 23.048-23.048 0-4.399-1.233-8.51-3.371-12.007 3.125.537 6.047 1.202 8.705 1.975 5.223 10.569 7.883 22.914 7.863 36.54-12.044 5.783-24.158 8.68-36.267 8.681-12.098.001-24.191-2.889-36.221-8.681" transform="matrix(1.33333 0 0 -1.33333 0 200)"/>
	<path fill="url(#k)" d="M40.915 92.821c-6.983-3.137-12.116-7.107-13.914-11.479 4.587 10.143 27.719 17.969 49.612 17.969 12.403 0 22.457-10.053 22.457-22.456 0-4.247-1.18-8.218-3.226-11.606l.446-.401a22.944 22.944 0 0 1 3.371 12.007c0 12.729-10.319 23.048-23.048 23.048-12.817 0-26.031-2.742-35.698-7.082" transform="matrix(1.33333 0 0 -1.33333 0 200)"/>
	<path fill="url(#l)" d="M97.898 67.998a23.457 23.457 0 0 0-.37-.84c3.108.546 5.992 1.216 8.564 1.995 2.507 5.598 4.329 11.66 5.445 18.119-2.318-9.774-6.674-17.115-13.639-19.274" transform="matrix(1.33333 0 0 -1.33333 0 200)"/>
	<path fill="url(#m)" d="M111.537 87.272c12.452-7.704 7.296-14.26-5.445-18.119-2.572-.779-5.456-1.449-8.564-1.995a23.24 23.24 0 0 0-1.238-2.31c3.125.537 6.047 1.202 8.705 1.975 15.572 4.534 22.041 12.842 6.757 21.759a61.65 61.65 0 0 0-.215-1.31" transform="matrix(1.33333 0 0 -1.33333 0 200)"/>
	<g fill="#123b54" clip-path="url(#n)" transform="matrix(1.33333 0 0 -1.33333 0 200)">
		<path d="M151.46 62.046h-2.091v-6.353h-.93v6.353h-2.102v.828h5.123zm4.002-.662-.031-.808h-.123a2.64 2.64 0 0 1-.528-.051 1.45 1.45 0 0 1-.487-.192 1.572 1.572 0 0 1-.413-.378 1.84 1.84 0 0 1-.301-.61v-3.651h-.888v5.586h.888v-1.013c.09.234.201.424.331.569a1.582 1.582 0 0 0 .937.506c.176.027.347.042.512.042zm6.332-.104v-5.587h-.756l-.113.808a1.316 1.316 0 0 0-.321-.456 1.506 1.506 0 0 0-.428-.274 2.119 2.119 0 0 0-.493-.14 3.208 3.208 0 0 0-.517-.041c-.366 0-.67.044-.91.134-.241.09-.433.213-.574.372-.143.16-.242.351-.3.575a2.892 2.892 0 0 0-.089.74v3.869h.89v-3.539c0-.213.014-.404.042-.574.027-.169.08-.313.16-.43a.76.76 0 0 1 .332-.269c.14-.062.321-.092.543-.092.172 0 .341.012.506.036.166.024.319.075.462.154.14.08.267.193.38.338.116.145.213.337.296.578v3.798zm3.176-5.65c-.138 0-.284.005-.439.016-.156.009-.31.023-.46.036a4.466 4.466 0 0 0-.725.124v.765a7.404 7.404 0 0 1 .766-.155 6.116 6.116 0 0 1 .848-.062c.427 0 .75.061.967.18.218.122.326.348.326.679 0 .166-.015.303-.047.409a.527.527 0 0 1-.18.269 1.24 1.24 0 0 1-.378.191 6.633 6.633 0 0 1-.647.176 4.08 4.08 0 0 0-.765.238 1.48 1.48 0 0 0-.476.321c-.118.125-.2.271-.248.445a2.246 2.246 0 0 0-.073.61c0 .455.168.821.503 1.097.333.276.836.414 1.506.414.267 0 .535-.019.799-.052a2.6 2.6 0 0 0 .606-.135l-.062-.754a3.275 3.275 0 0 1-.59.155 4.322 4.322 0 0 1-.745.061c-.392 0-.687-.055-.884-.166-.197-.109-.294-.324-.294-.64a1.1 1.1 0 0 1 .046-.352.515.515 0 0 1 .161-.233.87.87 0 0 1 .32-.165c.138-.046.316-.092.538-.14a6.83 6.83 0 0 0 .813-.243c.223-.086.404-.194.543-.32.137-.129.238-.286.298-.472.064-.187.095-.414.095-.683 0-.558-.182-.967-.544-1.226-.361-.258-.888-.388-1.578-.388m6.126.746a2.692 2.692 0 0 1 .609.062v-.755c-.109-.013-.213-.027-.309-.036a2.858 2.858 0 0 0-.321-.016 3.89 3.89 0 0 0-.782.067 1.016 1.016 0 0 0-.516.265c-.136.13-.232.31-.29.543-.059.23-.088.528-.088.894v3.135h-.828v.745h.828v1.325h.889V61.28h1.387v-.745h-1.387v-3.083c0-.221.011-.401.032-.539s.06-.246.119-.325a.437.437 0 0 1 .243-.165 1.44 1.44 0 0 1 .414-.047m5.306 2.658c0 .214-.014.42-.042.616a1.283 1.283 0 0 1-.181.518.946.946 0 0 1-.409.351c-.179.086-.42.13-.723.13-.325 0-.588-.042-.792-.125a1.082 1.082 0 0 1-.481-.362 1.49 1.49 0 0 1-.249-.579 4.252 4.252 0 0 1-.082-.766zm.879.011c0-.075-.005-.171-.016-.283-.01-.116-.021-.238-.035-.369l-3.787-.238c0-.303.031-.567.093-.791a1.28 1.28 0 0 1 .301-.554c.137-.144.32-.254.548-.325.228-.073.51-.109.848-.109.311 0 .626.034.946.103.321.07.589.156.803.258v-.816a2.434 2.434 0 0 0-.321-.125 4.36 4.36 0 0 0-.446-.109 5.964 5.964 0 0 0-1.117-.097c-.414 0-.781.046-1.101.139a1.835 1.835 0 0 0-.813.476c-.22.224-.387.52-.501.891-.115.368-.171.832-.171 1.39 0 .559.056 1.023.171 1.393.114.368.279.665.496.888.217.225.483.384.797.476.314.094.67.141 1.071.141.476 0 .86-.072 1.153-.212.293-.142.518-.325.678-.549.158-.225.265-.477.321-.755a4.26 4.26 0 0 0 .082-.823m3.663-2.699c.338 0 .617.048.838.145.221.096.396.236.527.422.131.187.223.413.275.679.052.266.077.564.077.895 0 .318-.025.608-.077.874a1.8 1.8 0 0 1-.275.683 1.29 1.29 0 0 1-.527.439c-.221.104-.5.156-.838.156-.338 0-.605-.061-.802-.181a1.222 1.222 0 0 1-.451-.487 1.993 1.993 0 0 1-.196-.692 7.381 7.381 0 0 1-.04-.792c0-.289.015-.565.046-.829.03-.261.098-.49.201-.682.104-.193.254-.346.45-.46.197-.114.46-.17.792-.17m2.576 7.21v-7.862h-.755l-.134.92a1.494 1.494 0 0 0-.611-.734c-.297-.193-.701-.29-1.211-.29-.463 0-.843.07-1.143.211-.3.143-.535.341-.709.596a2.395 2.395 0 0 0-.357.915 6.555 6.555 0 0 0-.097 1.175c0 .379.032.745.097 1.096.066.352.185.66.357.926.174.266.409.478.709.637.3.159.68.238 1.143.238.276 0 .514-.026.715-.078.199-.052.372-.124.517-.218.144-.092.265-.205.362-.336.096-.131.172-.279.228-.445v3.249zm9.724-7.966a8.945 8.945 0 0 0-1.773.182 2.096 2.096 0 0 0-.357.097v.858c.103-.04.234-.08.393-.118.159-.039.331-.074.517-.103a7.671 7.671 0 0 1 1.22-.1c.539 0 .945.091 1.222.271.275.178.414.491.414.941 0 .22-.024.405-.069.553a.775.775 0 0 1-.254.378 1.65 1.65 0 0 1-.505.269 8.68 8.68 0 0 1-.828.238c-.366.09-.676.182-.93.28a1.844 1.844 0 0 0-.621.367 1.273 1.273 0 0 0-.347.542 2.5 2.5 0 0 0-.109.796c0 .657.194 1.144.584 1.466.389.32.991.48 1.806.48a6.601 6.601 0 0 0 1.03-.078c.161-.023.309-.05.445-.082a2.04 2.04 0 0 0 .325-.099v-.848a4.894 4.894 0 0 1-.808.202 5.593 5.593 0 0 1-.983.087c-.247 0-.465-.016-.651-.046s-.341-.088-.466-.17a.733.733 0 0 1-.274-.342 1.556 1.556 0 0 1-.087-.57c0-.165.015-.308.046-.428a.62.62 0 0 1 .202-.316c.103-.09.251-.171.445-.242a6.21 6.21 0 0 1 .776-.223 8.188 8.188 0 0 0 1.019-.305c.28-.108.505-.244.677-.409.173-.165.297-.367.373-.605.076-.238.114-.533.114-.885 0-.704-.216-1.22-.648-1.547-.43-.328-1.063-.491-1.898-.491m8.361 3.444c0 .214-.015.42-.042.616a1.283 1.283 0 0 1-.181.518.946.946 0 0 1-.409.351c-.178.086-.421.13-.723.13-.325 0-.588-.042-.792-.125a1.082 1.082 0 0 1-.481-.362 1.49 1.49 0 0 1-.249-.579 4.252 4.252 0 0 1-.082-.766zm.879.011c0-.075-.005-.171-.016-.283l-.035-.369-3.787-.238c0-.303.031-.567.093-.791a1.28 1.28 0 0 1 .301-.554c.137-.144.32-.254.547-.325.229-.073.511-.109.848-.109.312 0 .627.034.947.103.321.07.589.156.802.258v-.816a2.36 2.36 0 0 0-.32-.125 4.36 4.36 0 0 0-.446-.109 5.964 5.964 0 0 0-1.117-.097c-.414 0-.781.046-1.101.139a1.83 1.83 0 0 0-.813.476c-.22.224-.387.52-.501.891-.115.368-.171.832-.171 1.39 0 .559.056 1.023.171 1.393.114.368.279.665.495.888.218.225.484.384.798.476.314.094.67.141 1.071.141.476 0 .86-.072 1.153-.212.293-.142.518-.325.678-.549.159-.225.265-.477.321-.755a4.26 4.26 0 0 0 .082-.823m3.796-3.455a3.92 3.92 0 0 0-1.101.14c-.32.092-.591.251-.813.475-.22.224-.388.521-.501.891-.114.368-.171.832-.171 1.39 0 .559.057 1.023.171 1.393.113.368.281.665.501.889.222.224.493.384.813.475.32.094.688.141 1.101.141.311 0 .592-.021.843-.063.253-.041.457-.089.616-.144v-.817a4.233 4.233 0 0 1-.661.18 4.29 4.29 0 0 1-.787.068c-.31 0-.569-.036-.777-.104a1.056 1.056 0 0 1-.505-.347c-.132-.161-.225-.379-.281-.651a5.432 5.432 0 0 1-.082-1.03c0-.407.028-.744.082-1.013.056-.269.149-.485.281-.647.129-.163.3-.277.511-.341.21-.067.47-.099.781-.099.262 0 .521.019.777.057.255.038.481.098.682.18v-.817a2.232 2.232 0 0 0-.284-.077 5.654 5.654 0 0 0-.787-.114 5.8 5.8 0 0 0-.409-.015m7.346 5.69v-5.587h-.756l-.113.808a1.316 1.316 0 0 0-.321-.456 1.497 1.497 0 0 0-.429-.274 2.097 2.097 0 0 0-.492-.14 3.208 3.208 0 0 0-.517-.041c-.366 0-.67.044-.91.134-.241.09-.433.213-.574.372-.143.16-.242.351-.3.575a2.892 2.892 0 0 0-.089.74v3.869h.89v-3.539c0-.213.013-.404.042-.574.026-.169.08-.313.159-.43a.763.763 0 0 1 .333-.269c.14-.062.321-.092.543-.092.172 0 .341.012.506.036.166.024.319.075.461.154.14.08.268.193.381.338.116.145.212.337.296.578v3.798zm4.655.104-.031-.808h-.124a2.64 2.64 0 0 1-.528-.051 1.458 1.458 0 0 1-.487-.192 1.569 1.569 0 0 1-.412-.378 1.82 1.82 0 0 1-.301-.61v-3.651h-.889v5.586h.889v-1.013c.09.234.2.424.33.569a1.571 1.571 0 0 0 .937.506c.176.027.347.042.513.042zm1.422-.104h.89v-5.587h-.89zm.456 1.025c-.2 0-.34.03-.419.092-.079.063-.12.207-.12.435 0 .234.041.38.12.439.079.059.219.088.419.088.187 0 .321-.029.403-.088.084-.059.125-.205.125-.439 0-.228-.041-.372-.125-.435-.082-.062-.216-.092-.403-.092m4.506-5.929a2.667 2.667 0 0 1 .609.062v-.755c-.109-.013-.213-.027-.309-.036a2.87 2.87 0 0 0-.321-.016 3.89 3.89 0 0 0-.782.067 1.012 1.012 0 0 0-.516.265c-.136.13-.232.31-.29.543-.06.23-.088.528-.088.894v3.135h-.828v.745h.828v1.325h.889V61.28h1.387v-.745h-1.387v-3.083c0-.221.011-.401.032-.539a.707.707 0 0 1 .118-.325.44.44 0 0 1 .244-.165c.102-.032.24-.047.414-.047m2.223-1.986c.483 0 .844.106 1.082.32.237.214.425.546.563.994l-2.235 5.577h.962l1.707-4.635h.063l1.614 4.635h.899l-2.007-5.401a9.379 9.379 0 0 0-.403-.942 2.682 2.682 0 0 0-.502-.708 1.962 1.962 0 0 0-.708-.451c-.276-.103-.621-.155-1.035-.155zm14.034 4.624c.33 0 .609.025.837.073.227.048.409.133.543.252.136.122.231.281.291.483.058.199.087.452.087.754 0 .277-.029.508-.087.699a.983.983 0 0 1-.291.461 1.22 1.22 0 0 1-.543.253 3.892 3.892 0 0 1-.837.078h-.983v-3.053zm-1.915 3.86h1.997c.504 0 .924-.046 1.262-.135.338-.09.609-.227.812-.413.203-.186.347-.424.43-.715a3.82 3.82 0 0 0 .124-1.035c0-.419-.05-.779-.15-1.075a1.638 1.638 0 0 0-.466-.724 1.942 1.942 0 0 0-.817-.409 4.803 4.803 0 0 0-1.195-.129h-1.065v-2.545h-.932zm7.354-6.539c.469 0 .87.094 1.201.284.331.191.57.45.714.781v.921h-1.645c-.228 0-.428-.014-.6-.042a.984.984 0 0 1-.425-.16.713.713 0 0 1-.247-.325 1.399 1.399 0 0 1-.084-.527c0-.312.084-.545.249-.701.165-.154.444-.231.837-.231m.58 5.049c.441 0 .805-.044 1.091-.13.287-.086.515-.205.683-.357.168-.151.286-.334.353-.548.064-.214.098-.446.098-.693v-3.963h-.756l-.134.848a1.44 1.44 0 0 0-.331-.402 2.1 2.1 0 0 0-.472-.301 2.542 2.542 0 0 0-.574-.187 3.1 3.1 0 0 0-.619-.061c-.67 0-1.158.145-1.466.434-.306.29-.46.701-.46 1.232 0 .331.054.609.161.837.107.228.256.411.45.549.193.137.426.238.699.3.271.061.574.092.904.092h1.708v.467c0 .165-.019.319-.058.46a.773.773 0 0 1-.207.361.97.97 0 0 1-.418.234 2.454 2.454 0 0 1-.694.083c-.186 0-.388-.01-.603-.032a5.458 5.458 0 0 1-.627-.093v.787a9.742 9.742 0 0 0 1.272.083m6.685 0-.031-.808h-.124a2.64 2.64 0 0 1-.528-.051 1.458 1.458 0 0 1-.487-.192 1.588 1.588 0 0 1-.413-.378 1.839 1.839 0 0 1-.3-.61v-3.651h-.889v5.586h.889v-1.013c.09.234.2.424.33.569a1.571 1.571 0 0 0 .937.506c.176.027.347.042.512.042zm3.744-5.008a2.65 2.65 0 0 1 .609.062v-.755c-.108-.013-.213-.027-.309-.036a2.858 2.858 0 0 0-.321-.016 3.88 3.88 0 0 0-.781.067 1.012 1.012 0 0 0-.516.265c-.136.13-.233.31-.291.543a3.71 3.71 0 0 0-.087.894v3.135h-.828v.745h.828v1.325h.888V61.28h1.388v-.745h-1.388v-3.083c0-.221.011-.401.033-.539a.707.707 0 0 1 .118-.325.44.44 0 0 1 .243-.165c.103-.032.241-.047.414-.047m5.042 5.008c.365 0 .669-.046.911-.136.24-.089.432-.215.574-.377a1.39 1.39 0 0 0 .299-.574c.059-.22.089-.465.089-.734v-3.869h-.901v3.538c0 .214-.013.404-.04.574a1.06 1.06 0 0 1-.161.425.77.77 0 0 1-.327.262 1.298 1.298 0 0 1-.538.094c-.179 0-.352-.012-.521-.036a1.45 1.45 0 0 1-.478-.155 1.386 1.386 0 0 1-.402-.336 1.686 1.686 0 0 1-.295-.59v-3.776h-.89v5.586h.89v-.797c.083.18.191.328.325.446.136.116.281.208.441.274.158.066.325.113.501.139.176.027.35.042.523.042m7.159-2.35c0 .214-.015.42-.042.616a1.283 1.283 0 0 1-.181.518.946.946 0 0 1-.409.351c-.178.086-.42.13-.723.13-.325 0-.587-.042-.792-.125a1.082 1.082 0 0 1-.481-.362 1.475 1.475 0 0 1-.249-.579 4.252 4.252 0 0 1-.082-.766zm.879.011c0-.075-.005-.171-.016-.283-.01-.116-.021-.238-.035-.369l-3.787-.238c0-.303.031-.567.093-.791a1.28 1.28 0 0 1 .301-.554c.137-.144.32-.254.547-.325.229-.073.511-.109.849-.109.311 0 .626.034.946.103.321.07.589.156.802.258v-.816a2.36 2.36 0 0 0-.32-.125 4.36 4.36 0 0 0-.446-.109 5.964 5.964 0 0 0-1.117-.097c-.414 0-.781.046-1.101.139a1.83 1.83 0 0 0-.813.476c-.22.224-.388.52-.502.891-.114.368-.17.832-.17 1.39 0 .559.056 1.023.17 1.393.114.368.28.665.497.888.217.225.483.384.797.476.314.094.67.141 1.071.141.476 0 .86-.072 1.153-.212.293-.142.518-.325.678-.549.158-.225.265-.477.321-.755a4.26 4.26 0 0 0 .082-.823m4.55 2.339-.031-.808h-.124a2.64 2.64 0 0 1-.528-.051 1.445 1.445 0 0 1-.486-.192 1.557 1.557 0 0 1-.413-.378 1.82 1.82 0 0 1-.301-.61v-3.651h-.889v5.586h.889v-1.013c.09.234.2.424.331.569a1.553 1.553 0 0 0 .936.506c.176.027.348.042.513.042zm-110.398 7.505h-3.103v14.585l-3.441-13.835h-4.835l-3.579 14.043V68.889h-3.103v23.416h4.107l4.986-19.562 4.865 19.562h4.103zm7.066 3.102h7.104c.819 0 1.485.666 1.485 1.485v6.925c0 .819-.666 1.486-1.485 1.486h-5.619a1.487 1.487 0 0 1-1.485-1.486zm7.104-3.103h-10.207v11.513a4.593 4.593 0 0 0 4.588 4.588h5.619a4.592 4.592 0 0 0 4.587-4.588v-6.925a4.592 4.592 0 0 0-4.587-4.588m27.382 9.329h8.59v3.153a.518.518 0 0 1-.518.517h-7.554a.519.519 0 0 1-.518-.517zm11.692-9.328h-14.795V81.37a3.62 3.62 0 0 0 3.621 3.619h7.554a3.62 3.62 0 0 0 3.62-3.619v-6.256h-11.692v-3.123h11.692zm26.254 9.328h8.589v3.153a.518.518 0 0 1-.518.517h-7.554a.518.518 0 0 1-.517-.517zm11.691-9.328h-14.794V81.37a3.62 3.62 0 0 0 3.62 3.619h7.554c2 0 3.62-1.62 3.62-3.619v-6.256H244.1v-3.123h11.691zm19.209 0h-14.794v12.433a3.672 3.672 0 0 0 3.667 3.668H275v-3.103h-11.127a.566.566 0 0 1-.565-.565v-9.33H275zm-38.198.083h-14.881v3.103h11.778v5.689a.517.517 0 0 1-.516.518h-11.262v8.77a3.647 3.647 0 0 0 3.643 3.642h10.977v-3.103h-10.977a.54.54 0 0 1-.54-.539v-5.668h8.159a3.623 3.623 0 0 0 3.619-3.62zm-46.747-.083h-3.103V84.99h3.103z"/>
		<path d="M190.055 69.834h-3.103v3.348c0 6.186 5.033 11.218 11.218 11.218h1.552v-3.103h-1.552c-4.474 0-8.115-3.64-8.115-8.115z"/>
	</g>
</svg>
