<svg xmlns="http://www.w3.org/2000/svg" viewBox="0 0 144.79 165.36">
	<defs>
		<linearGradient id="a" x1="79.27" y1="68.27" x2="116.44" y2="68.27" gradientUnits="userSpaceOnUse">
			<stop offset="0" stop-color="#0074e1" stop-opacity="0"/>
			<stop offset=".19" stop-color="#0074e1" stop-opacity=".23"/>
			<stop offset=".48" stop-color="#0074e1" stop-opacity=".56"/>
			<stop offset=".72" stop-color="#0074e1" stop-opacity=".8"/>
			<stop offset=".9" stop-color="#0074e1" stop-opacity=".94"/>
			<stop offset="1" stop-color="#0074e1"/>
		</linearGradient>
	</defs>
	<g data-name="图层 2">
		<g data-name="图层 1">
			<path d="m107.19 165.36-.02-20.75-21.23.02v-8.22h21.16l-.02-6.16-28.59.01.02 20.75 21.23-.02v8.22H78.53l.02 6.15h28.64z"/>
			<path d="M41.12 165.36h31.36v-35H41.13Zm7.43-29H65v23H48.55Z"/>
			<path d="M144.79 165.36v-34.83h-31.34v34.81h7.42v-27.56h16.49v27.58Z"/>
			<path d="m34.25 165.3-.06-35.14-6.9.05-10.17 10.01-10.16-10H0l.06 35.14 6.49-.06-.06-26.61 10.63 10.47 10.64-10.47v26.67l6.49-.06z"/>
			<path style="fill:url(#a)" d="m79.75 57.41 36.69-21.25-.49 44.13-36.68 20.08.48-42.96z"/>
			<path d="M118.6 32.59a1 1 0 0 0-1 0L77.3 55.47a2 2 0 0 0-1 1.75v45.85a1 1 0 0 0 .52.89 1 1 0 0 0 .51.14 1 1 0 0 0 .52-.14l40.27-23.18a2 2 0 0 0 1-1.74V33.49a1 1 0 0 0-.52-.9ZM111 46v29.49L84.72 90.6V60.91Z"/>
			<path d="M111.27 22 73.66.27a2 2 0 0 0-2 0L27.18 25.94a2 2 0 0 0-1 1.74V79a2 2 0 0 0 1 1.73L64 102a1 1 0 0 0 1 0 1 1 0 0 0 .51-.89v-7.63a1.6 1.6 0 0 0-.79-1.38L35.51 75.24a.76.76 0 0 1-.39-.66V32.13a.77.77 0 0 1 .39-.67l36.76-21.22a.76.76 0 0 1 .77 0l30 17.32a1.59 1.59 0 0 0 1.58 0l6.65-3.78a1 1 0 0 0 .52-.9 1 1 0 0 0-.52-.88Z"/>
		</g>
	</g>
</svg>
