<svg xmlns="http://www.w3.org/2000/svg" width="200" height="128">
	<path d="M46.802 72.374v8.373l13.401-8.373v-8.372l-13.401 8.372z"/>
	<path d="M33.401 72.374v8.373l13.401-8.373v-8.372l-13.401 8.372zm-13.401 0v8.373l13.401-8.373v-8.372L20 72.374zm40.203-25.121-13.401 8.373V64l13.401-8.374v-8.373zm-13.401 0-13.401 8.373V64l13.401-8.374v-8.373zm-13.401 0L20 55.626V64l13.401-8.374v-8.373zM88.05 64.5v7.929h-3.428v-7.662c0-1.554-.737-2.319-2.161-2.319a3.608 3.608 0 0 0-2.775 1.344v8.645h-3.42v-7.67c0-1.554-.711-2.319-2.135-2.319a3.531 3.531 0 0 0-2.793 1.423v8.566h-3.453V59.785H71.1v1.19a6.173 6.173 0 0 1 4.032-1.423 4.107 4.107 0 0 1 3.743 1.74 7.026 7.026 0 0 1 4.587-1.74c2.98-.004 4.588 1.742 4.588 4.948zm15.064-1.842a6.926 6.926 0 0 1-1.08 8.251 6.454 6.454 0 0 1-4.429 1.819 4.854 4.854 0 0 1-3.269-1.161v6.776h-3.444V59.785h3.349v.976a5.2 5.2 0 0 1 3.37-1.213 6.322 6.322 0 0 1 5.503 3.11zm-2.557 3.427a3.417 3.417 0 0 0-3.37-3.637 3.781 3.781 0 0 0-2.9 1.29v4.825a3.66 3.66 0 0 0 2.777 1.237 3.447 3.447 0 0 0 3.493-3.715zm17.952 6.352h-3.233v-1.08a4.784 4.784 0 0 1-3.479 1.371 6.239 6.239 0 0 1-5.483-3.171 6.816 6.816 0 0 1 2.372-9.2 6.269 6.269 0 0 1 3.137-.816 4.8 4.8 0 0 1 3.427 1.318v-1.082h3.267zm-3.4-3.848v-4.9a3.737 3.737 0 0 0-2.821-1.239 3.454 3.454 0 0 0-3.425 3.689 3.414 3.414 0 0 0 3.4 3.665 3.646 3.646 0 0 0 2.846-1.215zm9.569-8.804v1.16a5.143 5.143 0 0 1 4.112-1.4v3.269a3.24 3.24 0 0 0-.95-.106 3.9 3.9 0 0 0-2.926 1.45v8.276h-3.451V59.785zm14.522 0v2.847h-2.847v9.805h-3.43v-9.8h-2.658v-2.852h2.658v-4.216h3.43v4.216zm1.938-5.166h3.612V58.1h-3.612zm3.533 17.818V59.785h-3.453v12.652zm14.515-2.557a7.015 7.015 0 0 1-11.492-.351 6.63 6.63 0 0 1 2.336-9.08l.116-.067a7.066 7.066 0 0 1 3.4-.844 6.215 6.215 0 0 1 5.614 2.874l-2.636 1.634a3.427 3.427 0 0 0-2.952-1.586c-2 0-3.346 1.556-3.346 3.717s1.29 3.584 3.32 3.584a3.743 3.743 0 0 0 3.11-1.554zm5.691 2.557h-3.425V53.485h3.425zm11.863-4.149a3.986 3.986 0 0 1-3.172 1.457 3.094 3.094 0 0 1-3.32-2.819h9.725A3.714 3.714 0 0 0 180 66.4c0-4.191-2.609-6.881-6.431-6.881a6.739 6.739 0 0 0-3.505.9 6.381 6.381 0 0 0-3.189 5.721 6.606 6.606 0 0 0 1.818 4.613 7.057 7.057 0 0 0 10.465-.87zm-3.086-5.947a2.851 2.851 0 0 1 3.031 2.319h-6.3a3.152 3.152 0 0 1 3.267-2.321z"/>
</svg>
