<svg xmlns="http://www.w3.org/2000/svg" viewBox="0 0 210.3 170" style="enable-background:new 0 0 210.3 170" xml:space="preserve">
	<g transform="matrix(.569 0 0 .569 199.451 -82.735)">
		<linearGradient id="a" gradientUnits="userSpaceOnUse" x1="-20547.762" y1="-18036.363" x2="-20477.045" y2="-18078.148" gradientTransform="translate(2252.945 2470.622) scale(.1187)">
			<stop offset="0" style="stop-color:#909ca9"/>
			<stop offset="1" style="stop-color:#ededee"/>
		</linearGradient>
		<path d="m-100 240.5-40.8 13.3-35.5 15.7-9.9 2.6c-2.5 2.4-5.2 4.8-8.1 7.3-3.1 2.7-6.1 5.2-8.3 7-2.5 2-6.2 5.7-8.1 8-2.8 3.5-5 7.2-6 10.1-1.7 5.2-.9 10.4 2.4 15.3 4.2 6.2 12.6 12.5 22.3 16.7 5 2.2 13.3 5 19.6 6.6 10.5 2.7 30.7 5.5 41.8 6 2.3.1 5.3.1 5.4 0 .2-.2 2-3.5 4-7.6 6.8-14 11.8-27.1 14.5-38.3 1.6-6.8 2.9-15.8 3.7-26.5.2-3 .3-13 .1-16.4-.3-5.6-.8-10.1-1.5-14.5-.1-.6-.2-1.2-.1-1.3.1-.1.5-.2 5.5-1.7l-1-2.3zm-9.3 5.5c.4 0 1.4 9.5 1.6 15.5.1 1.3 0 2.1 0 2.1-.2 0-5.2-2.9-8.8-5.2-3.1-1.9-8.9-5.8-9.9-6.6-.3-.2-.3-.2 2.3-1.1 4.3-1.4 14.5-4.7 14.8-4.7zm-20.8 6.8c.3 0 1 .4 2.7 1.4 6.4 4 15 8.8 18.7 10.4 1.1.5 1.3.3-1.4 2.1-5.6 3.8-12.6 7.6-21.2 11.4-1.5.7-2.8 1.2-2.8 1.2-.1 0 .1-.8.4-1.7 2.1-7.7 3.2-15.5 3.3-21.7 0-3 0-3 .3-3.1-.1 0 0 0 0 0zm-4.3 1.7c.2.2.1 7.1-.2 9-.6 4.5-1.4 8.7-2.8 13.4-.3 1.1-.6 2.1-.7 2.2-.1.2-4.4-4-5.7-5.6-2.4-2.8-4.3-5.6-5.7-8.3-.7-1.4-1.8-4.1-1.7-4.2.4-.4 16.7-6.6 16.8-6.5zm-20.2 7.9c.1 0 .1 0 0 0 .2.1.4.6.6 1.1 1 2.7 3.2 6.6 5.1 9.2 2.1 2.8 4.8 5.7 7.1 7.7.7.6 1.4 1.2 1.5 1.3.2.2.2.2-4.8 2.1-5.8 2.2-12.2 4.4-19.5 6.8-1.7.6-3.5 1.1-5.2 1.7-.3.1-.2-.1.6-1.3 3.6-5.6 9.1-16.7 12.2-24.6.5-1.4 1-2.7 1.1-3 .1-.4.3-.6.7-.8.3-.1.5-.2.6-.2zm-6.1 2.6c.1.1-1.5 3.4-3 6.4-3 5.8-6.3 11.6-10.6 18.5-.7 1.2-1.4 2.3-1.5 2.4-.2.2-.2.2-.7-.8-1-2.1-1.9-4.7-2.4-7.2-.5-2.4-.4-6.6.2-9.2.4-1.9.4-1.9 1.3-2.3 3.8-2 16.5-8 16.7-7.8zm53.2 2.1v1.3c0 6.9-.7 16.3-1.8 23.2-.2 1.2-.3 2.2-.4 2.2 0 0-.9-.2-1.9-.6-4.6-1.4-9.7-3.6-14.2-6.1-3-1.6-7.3-4.3-7.2-4.4 0 0 1.3-.7 2.8-1.5 6-3.1 11.8-6.5 16.9-9.9 1.9-1.3 4.7-3.3 5.3-3.9l.5-.3zm-76.5 9.2c.1 0 .1.2-.1 1.4-.1.8-.3 2.3-.3 3.3-.2 4.5.5 7.8 2.7 12.4.6 1.3 1.1 2.3 1.1 2.3-.2.2-20.6 6.2-27.1 7.9-1.9.5-3.6 1-3.7 1-.2.1-.2 0-.2-.5.7-4.5 4.2-10.5 9-15.5 3.2-3.3 5.8-5.3 10.1-7.8 3.2-1.7 8.1-4.4 8.5-4.5-.1 0 0 0 0 0zm48.1 8.6s.8.4 1.7.9c6.6 3.8 15.8 7.4 23.6 9.2l.7.2-1 .6c-4.1 2.3-17.6 7.9-31.4 13-2 .7-4 1.5-4.4 1.6-.4.2-.7.2-.7.2s.6-1.1 1.3-2.4c3.9-7.2 7.7-16 9.7-22.1.3-.7.5-1.2.5-1.2zm-4.9 1.6s-.2.7-.5 1.4c-2.7 6.5-6.2 13.6-10.7 21.6-1.1 2-2.1 3.7-2.1 3.7s-1-.6-2.1-1.2c-6.5-4-12.3-8.9-16.1-13.7l-.6-.7 2.8-.8c10.1-2.7 18.6-5.7 27.1-9.3 1.2-.6 2.2-1 2.2-1zm30.5 10.6c0 .7-1.5 7.1-2.8 11.7-1.1 3.9-2 6.9-3.7 12.2-.7 2.3-1.4 4.3-1.4 4.3s-.2 0-.4-.1c-9.2-1.7-17.4-4-25.1-7.1-2.2-.9-5.2-2.3-5.4-2.4-.1-.1 1.8-.9 4.1-1.9 14-6.1 28.6-13.1 33.6-16.1.5-.4 1-.6 1.1-.6zm-70.4 2.4c.1.1-3.9 5.7-9.3 13.4-1.9 2.7-4.1 5.8-5 7-.8 1.2-2.1 3-2.8 4.1l-1.3 2-1.4-1.2c-1.6-1.4-4.5-4.3-5.7-5.9-2.7-3.3-4.4-6.8-5.2-10-.3-1.5-.3-2.2 0-2.3.5-.1 8.7-2.1 16.4-3.9 4.3-1 9.3-2.2 11-2.6 1.8-.2 3.3-.6 3.3-.6zm4 1.5 1 1.1c4.4 5 9 8.6 14.5 11.8 1 .6 1.7 1 1.7 1.1-.2.2-19.1 6.8-27.8 9.9-4.9 1.7-8.9 3.1-9 3.1l-.6-.4-.6-.4.9-1.3c2.9-4.2 6.5-8.8 14.5-18.4l5.4-6.5zm24.6 17.6s1.4.5 3.1 1.1c4 1.5 7.2 2.5 11.4 3.5 5.2 1.3 12.8 2.6 17.3 3 .7.1 1 .1.9.2-.2.1-4.8 1.6-8.1 2.7-5.3 1.7-21.5 6.4-34.7 10.2-2.4.7-4.5 1.3-4.7 1.3-.3.1-1.3-.2-1.3-.3 0-.1.7-1 1.6-2.1 4.4-5.3 8.9-11.2 12.5-16.8 1.1-1.5 2-2.7 2-2.8zm-5.5.2s-2.2 3.5-6 9.6c-1.6 2.6-3.5 5.5-4.1 6.5-.6 1-1.5 2.5-2.1 3.4l-.9 1.6-.5-.1c-1.1-.3-8.9-3.1-11-3.9-2.6-1-5.2-2.3-7.2-3.3-2.5-1.3-5.6-3.3-5.3-3.4.1 0 4.3-1.2 9.4-2.6 13.5-3.7 21-5.8 25.9-7.3 1-.3 1.8-.5 1.8-.5zm38.5 9c.2.3-4.8 14.2-6.7 18.6-.4 1-.6 1.2-.8 1.2-.5 0-7.8-1-12.2-1.7-7.7-1.2-20.6-3.4-23.8-4.2l-.7-.2 4.6-1c9.9-2.2 14.6-3.4 19.4-4.9 6.1-1.9 12.1-4.2 18.2-7 .9-.4 1.7-.8 2-.8z" style="fill:url(#a)"/>
		<linearGradient id="b" gradientUnits="userSpaceOnUse" x1="-20544.971" y1="-19420.445" x2="-20488.07" y2="-19420.445" gradientTransform="translate(2252.945 2470.622) scale(.1187)">
			<stop offset="0" style="stop-color:#939fab"/>
			<stop offset="1" style="stop-color:#dcdee1"/>
		</linearGradient>
		<path d="M-142.1 145.4c-.7-.1-11.6 3.9-18.7 6.7-9.5 3.9-16.9 7.6-21.5 10.8-1.7 1.2-3.8 3.3-4.2 4.2-.1.3-.2.7-.2 1l4.1 3.9 9.8 3.1 23.4 4.2 26.8 4.6.3-2.3h-.2l-3.5-.6-.7-1.3c-3.6-6.4-7.7-14.4-10-19.7-1.8-4.2-3.5-9-4.5-12.4-.5-2-.5-2.2-.9-2.2zm-.5 1.6c.1 0 .2.9.3 1.9.5 4.3 1.5 8.5 3 13 1.1 3.4 1.1 3.2-.2 2.8-3.1-.9-17.2-3.3-27.5-4.7-1.6-.2-3-.4-3-.5-.1-.1 7.4-4 10.7-5.6 4.3-1.9 15.9-6.8 16.7-6.9zm-29.7 13.8 1.2.4c6.5 2.2 23 5.4 32 6.1 1 .1 1.9.2 1.9.2s-.8.5-1.9 1c-4.4 2.2-9.2 4.9-12.5 6.9-1 .6-1.9 1.1-2 1.1-.1 0-.8-.1-1.4-.2l-1.2-.2-3.1-3c-5.4-5.3-9.7-9.3-11.3-10.9l-1.7-1.4zm-1.2 1 4.3 5.4c2.4 3 4.8 5.9 5.3 6.6.5.6 1 1.2.9 1.2-.1.1-6.3-1.1-9.6-1.9-3.4-.8-4.8-1.1-6.8-1.8l-1.7-.6v-.4c0-2.1 2.7-5.2 7.1-8.3l.5-.2zm36.9 7.4c.1 0 .3.3.6 1.1 1 2.3 4.3 8.5 5.1 9.7.2.4.7.4-3.7-.3-10.5-1.7-13.8-2.3-13.8-2.3s.3-.2.7-.5c3.2-1.8 6.5-4.1 9.4-6.5.7-.6 1.4-1.1 1.5-1.2.1 0 .2-.1.2 0z" style="fill:url(#b)"/>
		<radialGradient id="c" cx="-3269.696" cy="-10470.419" r="75.547" gradientTransform="matrix(-.114 -.01713 .03464 -.228 -136.71 -2224.62)" gradientUnits="userSpaceOnUse">
			<stop offset="0" style="stop-color:#ee352c"/>
			<stop offset="1" style="stop-color:#a91d22"/>
		</radialGradient>
		<path d="M-186.2 166.7s-.7 1.1 0 2.7c.4 1 1.6 2.2 2.9 3.4 0 0 13.7 13.4 15.4 15.3 7.6 8.8 10.9 17.4 11.2 29.3.2 7.7-1.3 14.4-4.9 22.2-6.4 14-20 29.5-40.8 46.6l3.1-1c2-1.5 4.7-3.1 11-6.5 14.5-8 30.9-15.3 50.9-22.8 28.9-10.9 76.3-23.6 103.4-27.7l2.8-.4-.4-.7c-2.5-3.8-4.2-6.2-6.2-8.7-5.9-7.3-13.1-13.3-21.9-18.2-12.1-6.8-27.7-12-47.5-15.9-3.7-.7-11.9-2.2-18.6-3.2-14.1-2.2-23.3-3.7-33.3-5.4-3.6-.6-9-1.5-12.6-2.3-1.9-.4-5.4-1.2-8.2-2.2-2.4-1.1-5.6-1.9-6.3-4.5zm8 7.7s.5.2 1.2.4c1.2.4 2.7.9 4.5 1.4 1.4.4 2.7.7 4.1 1.1 1.9.5 3.4.9 3.4.9.2.2 3.3 10.2 4.4 14 .4 1.5.7 2.7.7 2.7s-.4-.5-.8-1.2c-3.6-6.4-9.3-12.8-15.9-18-1-.7-1.6-1.3-1.6-1.3zm15.1 4.2c.2 0 .8.1 1.7.3 5.2 1.2 14.7 3 20.7 4 1 .2 1.8.3 1.8.4 0 .1-.4.3-.8.5-1 .5-5.1 3-6.5 3.9-3.4 2.3-6.5 4.8-8.7 7-.9.9-1.7 1.6-1.7 1.6s-.2-.5-.3-1.2c-1.1-4.3-3.4-10.6-5.5-15.1l-.7-1.4zm26.7 5.1c.2.1.5 1.1 1.1 3.4 1.1 4.5 1.7 9.5 1.5 14.1-.1 1.3-.1 2.5-.2 2.7l-.1.3-1.6-.5c-3.3-1-8.7-2.6-13.3-3.9-2.6-.7-4.8-1.4-4.8-1.4 0-.2 3.8-4 5.5-5.5 3.2-2.8 11.7-9.3 11.9-9.2zm2.2.3c.1-.1 12.8 2.1 18.5 3.2 4.3.8 10.5 2.1 10.9 2.3.2.1-.5.4-2.5 1.4-8.1 3.7-14.2 7-20.2 11-1.6 1-2.9 1.9-2.9 1.9s-.1-.9-.1-2c0-5.9-1.2-11.8-3.3-16.8-.3-.5-.5-1-.4-1zm32.8 6.4c.1.1-.3 2.6-.7 4.1-1.1 4.6-4.1 11.4-7.8 17.8-.6 1.1-1.2 2.1-1.3 2.1-.1 0-.9-.4-1.9-1-3.6-2.1-7.6-4.1-12.1-5.9-1.2-.5-2.3-1-2.3-1-.2-.2 9.7-6.8 15-9.9 4.2-2.5 10.9-6.3 11.1-6.2zm2.3.4c.3 0 5.9 1.5 8.8 2.4 7.2 2.2 15.6 5.2 21 7.7l2.3 1-1.6.4c-13.3 3.1-24.6 6.6-35.6 11-.9.4-1.7.7-1.8.7-.1 0 .2-.7.6-1.6 3.3-7 5.4-14.3 6-20.5.1-.6.2-1.1.3-1.1zm-55.9 12.8c.1-.1 4.4.9 6.7 1.6 3.5 1 11 3.5 11 3.7 0 0-.8.7-1.8 1.6-4 3.4-7.9 6.9-12.6 11.4-1.4 1.3-2.6 2.4-2.6 2.4-.1 0-.1-.2-.1-.4.7-5.2.6-11.8-.4-18.6-.1-.9-.2-1.6-.2-1.7zm90.1.1c.1.1-2 3.3-3.3 5.1-1.9 2.7-4.6 6.2-10.7 13.9-3.2 4.1-6.9 8.7-8.1 10.2-1.2 1.5-2.3 2.8-2.3 2.8s-.4-.6-.9-1.2c-3.5-5.2-7.6-9.7-12.5-13.8-.9-.8-1.9-1.6-2.3-1.9-.3-.2-.6-.5-.6-.5 0-.1 5.2-2.3 9.2-3.9 7-2.8 16.5-6.2 23.6-8.4 3.9-1.2 7.9-2.3 7.9-2.3zm2.4.7c.1 0 .9.3 1.8.9 7.5 4.3 14.8 9.8 20.6 15.5 1.6 1.6 5.7 5.8 5.6 5.8 0 0-1.4.1-3.1.2-13 1-29.6 3.7-45.6 7.6-1.1.2-2 .5-2.1.5-.1 0 1.1-1.2 2.7-2.7 9.4-9 13.7-14.7 18.7-24.9.7-1.6 1.3-2.9 1.4-2.9zm-68.7 7c.4.1 4.4 2 7.5 3.5 2.8 1.4 6.9 3.6 7.2 3.8 0 0-1.5.8-3.3 1.7-5.8 2.9-10.8 5.6-15.9 8.8-1.5.9-2.7 1.6-2.7 1.6-.1 0-.1-.1.7-1.6 2.8-5.1 5-11.1 6.3-17 0-.5.1-.8.2-.8zm-4 .7c.1.1-1 3.9-1.6 6-1.3 3.9-3.4 8.8-5.5 12.5-.5.9-1.2 2.1-1.6 2.8l-.8 1.2-1.7-1.7c-2-1.9-3.6-3.1-5.7-4.2-.8-.4-1.5-.8-1.5-.9 0-.2 5.3-5 9.3-8.5 2.9-2.4 9-7.3 9.1-7.2zm24.5 10.1 1.5 1c3.5 2.3 7.5 5.2 10.6 7.9 1.8 1.4 5.2 4.5 5.8 5.2l.4.4-2.5.7c-14.1 3.9-25 7.4-37.8 12.1-1.4.5-2.6 1-2.7 1-.2 0-.3.2 2.8-2.8 8.1-7.5 15.4-15.8 20.7-23.8l1.2-1.7zm-6.4 1.6c.1.1-4.2 6-6.7 9.4-3 4-8.4 10.7-12.1 15.1-1.5 1.8-2.9 3.3-2.9 3.4-.1 0-.1-.4-.1-1.1 0-3.7-1-7.7-2.6-11.1-.7-1.4-.8-1.8-.7-1.9.6-.5 9.6-5.6 15.2-8.7 3.8-2.1 9.8-5.1 9.9-5.1zm-39 9.6c.1 0 .8.4 1.6.8 2 1.1 3.7 2.3 5.3 3.6.1.1-.7.7-1.8 1.5-2.9 2.1-7.4 5.5-10 7.5-2.7 2.2-2.8 2.2-2.5 1.8 2-3.1 3.1-4.9 4.1-7.1 1-2 1.9-4.4 2.6-6.4.3-1 .6-1.7.7-1.7zm10.4 8.1c.2 0 .3.2 1.2 1.5 1.8 2.6 3.1 6.1 3.5 9l.1.6-4.2 1.6c-7.6 2.9-14.5 5.8-19.2 8-1.3.6-3.6 1.7-5.2 2.5-1.5.8-2.7 1.4-2.7 1.3 0 0 1-.7 2.1-1.6 9.2-6.7 17.2-14 23.2-21.4.5-.7 1-1.4 1.2-1.5zm-4.8 1.2c.1.1-3.4 4.1-5.8 6.5-6 6.1-11.8 10.8-19.2 15.5-.9.6-1.8 1.1-1.9 1.2-.2.1.1-.2 3.3-3.7 2-2.2 3.6-4 5.3-6.3 1.2-1.5 1.4-1.7 3.1-2.9 4.6-3.3 15.1-10.4 15.2-10.3z" style="fill:url(#c)"/>
	</g>
	<path d="M37.8 128h-1c-6.5.3-11 3.2-13.5 8.8-2.2 5.1-2 11.7 0 16.8 2.3 5 6.1 7.6 12.3 8.6 1.3.2 2.2.9 4.8 3.9l3.1 3.7h5.7l-3.8-3.8c-2.1-2.1-3.8-3.9-3.8-4.1 0-.2.8-.5 1.8-.8 3.2-1 5.9-3.4 7.7-7.2 1.5-3 1.7-4 1.9-7.8.6-11.1-5.3-18.1-15.2-18.1zm5 29.5c-2.8 1.3-6.8 1.6-9.4.6-2.7-1-5.4-3.8-6.5-7-1.3-3.5-1.1-10 .4-12.9 2.4-4.6 5.6-6.8 10.3-6.8 6.9 0 10.9 4.3 11.4 12.2.3 6.8-1.9 11.8-6.2 13.9zm98.6-19.8c-2.4 0-4.2 1-5.5 2.9l-1 1.5v-3.9h-4.1v23.6h4.1v-7.5c0-6.9.1-7.7 1-9.6 1.3-2.6 3.6-3.9 5.8-3.3l1.5.4v-4.1h-1.8zm-24.4-.2c-.8 0-1.7.1-2.5.3-5.5 1.4-8.7 6.8-8.5 12.2 0 4.6.9 6.9 3.1 9.3 4.5 3.7 8.6 4 14.1 2 .9-.4 2-.9 2-.9v-3.7l-2 1c-4.5 1.9-7.8 1.9-10.5-.3-1.7-1.7-2.5-3.8-2.8-6.2h16.7V148c0-6.6-3.9-10.7-9.6-10.5zm-6.7 10.3s.6-4 2.9-5.6c1.1-.8 2.4-1.2 3.6-1.2 1.2 0 2.5.4 3.5 1.2 2.1 1.6 2.4 5.6 2.4 5.6h-12.4zm-99.9-4.3c-4.5-2.7-6.5-4.7-6.2-7 .7-6.4 8.6-5.5 13-3.1v-4.3s-2.4-1-5.9-1.1c-5.3-.1-8.8 1.7-10.4 5.2-2.4 5.2-.3 9.2 7.3 13.6 4.3 2.5 6.1 4.6 6.1 7 0 4.8-5.8 6.5-11.9 3.5-1.2-.6-2.3-1.1-2.3-1.1-.2 1.4-.1 4.7-.1 4.7s1.9.8 4.6 1.3c6.9 1.4 13.1-1.9 13.7-7.1.6-5-1.1-7.5-7.9-11.6zm167.6-6.1c-.8 0-1.7.1-2.6.3-5.5 1.4-8.7 6.8-8.4 12.2 0 4.6.9 6.8 3.1 9.2 4.5 3.7 8.6 4 14.1 2 .9-.4 2-.9 2-.9v-3.7l-2 1c-4.5 1.9-7.8 1.9-10.5-.4-1.7-1.7-2.5-3.8-2.8-6.2h16.7v-3.2c0-6.3-3.9-10.4-9.6-10.3zm-6.7 10.3s.6-4 2.9-5.7c1.1-.8 2.4-1.2 3.6-1.2 1.2 0 2.5.4 3.5 1.2 2.1 1.6 2.4 5.6 2.4 5.6l-12.4.1zm-75.9-4.1c-4.5-2.7-6.5-4.7-6.2-7 .7-6.4 8.6-5.5 13-3.1v-4.3s-2.4-1-5.9-1.1c-5.3-.1-8.8 1.7-10.4 5.2-2.4 5.2-.2 9.2 7.3 13.6 4.3 2.5 6.1 4.6 6.1 6.9 0 4.8-5.8 6.6-11.9 3.5-1.2-.6-2.3-1.1-2.3-1.1-.2 1.4-.1 4.7-.1 4.7s1.8.7 4.6 1.3c6.9 1.4 13.2-1.9 13.7-7.1.6-4.9-1.2-7.5-7.9-11.5zm107-6c-2.4 0-4.2 1-5.5 2.9l-1 1.5v-3.9h-4.1v23.6h4.1v-7.5c0-6.9.1-7.7 1-9.6 1.3-2.6 3.6-3.9 5.8-3.3l1.5.4v-4.1h-1.8zm-140 5.9v-15h-4.2v33.2h17.6v-3.9H62.4v-14.3zm96.6 4.6-3.4 9-3.3-9-3.4-10h-4.3c2.8 7.9 5.8 15.8 8.8 23.6h4L162 150l4.7-11.9h-4.1c.1 0-1.7 4.7-3.6 10zm-87-28.7c.7 0 1.2-.2 1.7-.7.5-.5.7-1 .7-1.7s-.2-1.2-.7-1.7c-.5-.4-1-.6-1.7-.6s-1.2.2-1.7.7c-.5.5-.7 1-.7 1.7s.2 1.2.7 1.7c.5.4 1.1.6 1.7.6zm-1.4-3.8c.4-.4.9-.6 1.5-.6s1.1.2 1.5.6c.4.4.6.9.6 1.5s-.2 1.1-.6 1.5c-.4.4-.9.6-1.5.6s-1.1-.2-1.5-.6c-.4-.4-.6-.9-.6-1.5 0-.7.2-1.1.6-1.5zm1 1.7h.3c.2 0 .4.2.5.5l.3.7h.5l-.4-.8c-.2-.3-.3-.5-.5-.6.2-.1.4-.1.6-.3.1-.1.2-.3.2-.5s-.1-.4-.2-.6c-.2-.2-.5-.2-.9-.2h-.9v3h.4l.1-1.2zm0-1.4h.4c.3 0 .5.1.6.1.1.1.1.2.1.4 0 .3-.2.5-.6.5h-.5v-1zm-69 1.1c0-1 0-1.8-.1-2.3.1.5.2.9.3 1.2l4 9h.7l4-9c.1-.2.2-.6.3-1.1-.1.9-.1 1.7-.1 2.3v7.9h1.4v-11.8h-1.7l-3.7 8.2c-.1.3-.3.8-.6 1.4h.1c-.1-.3-.3-.8-.5-1.4l-3.6-8.3H1.2v11.8h1.3l.1-7.9zm13.6 0h1.2v7.3h-1.2V117zm.6-2.7c.2 0 .5-.1.6-.2.2-.2.3-.4.3-.6 0-.2-.1-.5-.3-.6-.2-.2-.4-.2-.6-.2-.2 0-.5.1-.6.2-.2.2-.3.4-.3.6 0 .3.1.5.3.6.2.1.4.2.6.2zm9.1 10.2v-1.3c-.6.5-1.3.7-2.1.7-.9 0-1.6-.3-2.1-.9-.5-.6-.8-1.3-.8-2.3 0-1 .3-1.8.8-2.4.5-.6 1.2-.9 2.1-.9.7 0 1.4.2 2 .6v-1.4c-.6-.3-1.2-.4-1.9-.4-1.3 0-2.4.4-3.2 1.3-.8.8-1.2 2-1.2 3.3 0 1.2.3 2.2 1.1 3 .8.8 1.7 1.2 2.9 1.2 1 .1 1.7-.1 2.4-.5zm3.3-3.9c0-1 .2-1.7.6-2.3.4-.5.8-.7 1.4-.7.5 0 .8.1 1 .3v-1.4c-.2-.1-.5-.1-.8-.1-.5 0-.9.2-1.3.5s-.7.8-.9 1.4v-1.7h-1.3v8.4h1.3v-4.4zm7.8 4.5c1.3 0 2.3-.4 3-1.2.8-.8 1.1-1.9 1.1-3.2 0-1.4-.3-2.4-1-3.2-.7-.8-1.7-1.2-2.9-1.2s-2.3.4-3 1.1c-.8.8-1.2 1.9-1.2 3.4 0 1.3.3 2.3 1.1 3.1.6.7 1.6 1.2 2.9 1.2zm-1.9-6.9c.5-.5 1.2-.8 2-.8.9 0 1.5.3 2 .8.5.6.7 1.4.7 2.4s-.2 1.8-.7 2.4c-.5.6-1.1.9-2 .9-.9 0-1.5-.3-2-.9-.5-.6-.8-1.3-.8-2.4 0-1 .2-1.8.8-2.4zm11.9 6.1c.5-.5.8-1 .8-1.7 0-.6-.2-1.1-.6-1.5-.3-.3-.8-.6-1.6-.9-.6-.3-1-.5-1.3-.7-.2-.2-.3-.5-.3-.9 0-.3.1-.6.4-.8.3-.2.6-.3 1.1-.3.7 0 1.3.2 1.9.6v-1.3c-.5-.3-1.1-.4-1.8-.4-.9 0-1.6.2-2.1.7-.6.5-.8 1-.8 1.7 0 .6.2 1.1.5 1.5.3.3.8.6 1.5.9.7.3 1.1.6 1.4.8.2.2.3.5.3.8 0 .8-.5 1.2-1.6 1.2-.8 0-1.5-.3-2.2-.8v1.4c.6.4 1.3.5 2.1.5 1 0 1.8-.3 2.3-.8zm6.4-8c-1.3 0-2.3.4-3 1.1-.8.8-1.2 1.9-1.2 3.4 0 1.3.3 2.3 1.1 3.1.8.8 1.7 1.2 3 1.2s2.3-.4 3-1.2c.8-.8 1.1-1.9 1.1-3.2 0-1.4-.4-2.4-1-3.2-.8-.9-1.7-1.2-3-1.2zm2.6 4.4c0 1-.2 1.8-.7 2.4-.5.6-1.1.9-2 .9-.9 0-1.5-.3-2-.9-.5-.6-.8-1.3-.8-2.4 0-1.1.3-1.9.8-2.5.5-.5 1.2-.8 2-.8s1.5.3 2 .8c.5.6.7 1.4.7 2.5zm3.7 4.2H61v-7.3h2v-1.1h-2v-1.3c0-1.2.5-1.8 1.4-1.8.3 0 .6.1.9.2v-1.2c-.2-.1-.6-.1-1-.1-.7 0-1.3.2-1.8.7-.6.5-.9 1.2-.9 2.2v1.4h-1.4v1.1h1.4l.1 7.2zm5.5-2.3c0 1.6.7 2.5 2.2 2.5.5 0 .9-.1 1.3-.3v-1.2c-.2.2-.5.3-.9.3-.5 0-.8-.1-1-.4-.2-.2-.3-.6-.3-1.2v-4.7h2.1v-1.1h-2.1V114c-.5.2-.9.3-1.3.4v2h-1.4v1.1h1.4v5.1zM209.5 138c-.5-.4-1-.6-1.7-.6s-1.2.2-1.7.7c-.5.5-.7 1-.7 1.7s.2 1.2.7 1.7c.5.4 1 .6 1.7.6s1.2-.2 1.7-.7c.5-.5.7-1 .7-1.7s-.2-1.2-.7-1.7zm-.2 3.2c-.4.4-.9.6-1.5.6s-1.1-.2-1.5-.6c-.4-.4-.6-.9-.6-1.5s.2-1.1.6-1.5c.4-.4.9-.6 1.5-.6s1.1.2 1.5.6c.4.4.6.9.6 1.5s-.1 1.1-.6 1.5zm-1.2-1.4.6-.3c.1-.1.2-.3.2-.5s-.1-.4-.2-.6c-.2-.2-.5-.2-.9-.2h-.9v3h.4V140h.3c.2 0 .4.2.5.5l.3.7h.5l-.4-.8c-.1-.3-.2-.5-.4-.6zm-.3-.2h-.5v-1h.4c.3 0 .5 0 .6.1.1.1.1.2.1.4 0 .3-.2.5-.6.5zm-75-23.5h.4v-3h1v-.4h-2.4v.4h1v3zm2.3-2.2v-.7c0 .2.1.3.1.3l1.2 2.6h.2l1.2-2.6c0-.1.1-.2.1-.3v2.9h.4v-3.4h-.5l-1 2.3c0 .1-.1.2-.2.4 0-.1-.1-.2-.2-.4l-1-2.4h-.5v3.4h.4l-.2-2.1z" style="fill:#231f1f"/>
</svg>
