<?xml version="1.0" encoding="utf-8"?>
<!-- Generator: Adobe Illustrator 22.0.1, SVG Export Plug-In . SVG Version: 6.00 Build 0)  -->
<svg version="1.1" id="design" xmlns="http://www.w3.org/2000/svg" xmlns:xlink="http://www.w3.org/1999/xlink" x="0px" y="0px"
	 viewBox="0 0 210.3 170" style="enable-background:new 0 0 210.3 170;" xml:space="preserve">
<style type="text/css">
	.st0{fill:url(#SVGID_1_);}
	.st1{fill:url(#SVGID_2_);}
	.st2{fill:url(#SVGID_3_);}
	.st3{fill:#231F1F;}
</style>
<g transform="matrix(.569 0 0 .569 199.451 -82.735)">
	
		<linearGradient id="SVGID_1_" gradientUnits="userSpaceOnUse" x1="-20547.7617" y1="-18036.3633" x2="-20477.0449" y2="-18078.1484" gradientTransform="matrix(0.1187 0 0 0.1187 2252.9453 2470.6223)">
		<stop  offset="0" style="stop-color:#909CA9"/>
		<stop  offset="1" style="stop-color:#EDEDEE"/>
	</linearGradient>
	<path class="st0" d="M-100,240.5l-40.8,13.3l-35.5,15.7l-9.9,2.6c-2.5,2.4-5.2,4.8-8.1,7.3c-3.1,2.7-6.1,5.2-8.3,7
		c-2.5,2-6.2,5.7-8.1,8c-2.8,3.5-5,7.2-6,10.1c-1.7,5.2-0.9,10.4,2.4,15.3c4.2,6.2,12.6,12.5,22.3,16.7c5,2.2,13.3,5,19.6,6.6
		c10.5,2.7,30.7,5.5,41.8,6c2.3,0.1,5.3,0.1,5.4,0c0.2-0.2,2-3.5,4-7.6c6.8-14,11.8-27.1,14.5-38.3c1.6-6.8,2.9-15.8,3.7-26.5
		c0.2-3,0.3-13,0.1-16.4c-0.3-5.6-0.8-10.1-1.5-14.5c-0.1-0.6-0.2-1.2-0.1-1.3c0.1-0.1,0.5-0.2,5.5-1.7L-100,240.5L-100,240.5
		L-100,240.5L-100,240.5z M-109.3,246c0.4,0,1.4,9.5,1.6,15.5c0.1,1.3,0,2.1,0,2.1c-0.2,0-5.2-2.9-8.8-5.2c-3.1-1.9-8.9-5.8-9.9-6.6
		c-0.3-0.2-0.3-0.2,2.3-1.1C-119.8,249.3-109.6,246-109.3,246z M-130.1,252.8c0.3,0,1,0.4,2.7,1.4c6.4,4,15,8.8,18.7,10.4
		c1.1,0.5,1.3,0.3-1.4,2.1c-5.6,3.8-12.6,7.6-21.2,11.4c-1.5,0.7-2.8,1.2-2.8,1.2c-0.1,0,0.1-0.8,0.4-1.7c2.1-7.7,3.2-15.5,3.3-21.7
		C-130.4,252.9-130.4,252.9-130.1,252.8C-130.2,252.8-130.1,252.8-130.1,252.8L-130.1,252.8z M-134.4,254.5c0.2,0.2,0.1,7.1-0.2,9
		c-0.6,4.5-1.4,8.7-2.8,13.4c-0.3,1.1-0.6,2.1-0.7,2.2c-0.1,0.2-4.4-4-5.7-5.6c-2.4-2.8-4.3-5.6-5.7-8.3c-0.7-1.4-1.8-4.1-1.7-4.2
		C-150.8,260.6-134.5,254.4-134.4,254.5L-134.4,254.5z M-154.6,262.4C-154.5,262.4-154.5,262.4-154.6,262.4c0.2,0.1,0.4,0.6,0.6,1.1
		c1,2.7,3.2,6.6,5.1,9.2c2.1,2.8,4.8,5.7,7.1,7.7c0.7,0.6,1.4,1.2,1.5,1.3c0.2,0.2,0.2,0.2-4.8,2.1c-5.8,2.2-12.2,4.4-19.5,6.8
		c-1.7,0.6-3.5,1.1-5.2,1.7c-0.3,0.1-0.2-0.1,0.6-1.3c3.6-5.6,9.1-16.7,12.2-24.6c0.5-1.4,1-2.7,1.1-3c0.1-0.4,0.3-0.6,0.7-0.8
		C-154.9,262.5-154.7,262.4-154.6,262.4L-154.6,262.4z M-160.7,265c0.1,0.1-1.5,3.4-3,6.4c-3,5.8-6.3,11.6-10.6,18.5
		c-0.7,1.2-1.4,2.3-1.5,2.4c-0.2,0.2-0.2,0.2-0.7-0.8c-1-2.1-1.9-4.7-2.4-7.2c-0.5-2.4-0.4-6.6,0.2-9.2c0.4-1.9,0.4-1.9,1.3-2.3
		C-173.6,270.8-160.9,264.8-160.7,265L-160.7,265z M-107.5,267.1v1.3c0,6.9-0.7,16.3-1.8,23.2c-0.2,1.2-0.3,2.2-0.4,2.2
		c0,0-0.9-0.2-1.9-0.6c-4.6-1.4-9.7-3.6-14.2-6.1c-3-1.6-7.3-4.3-7.2-4.4c0,0,1.3-0.7,2.8-1.5c6-3.1,11.8-6.5,16.9-9.9
		c1.9-1.3,4.7-3.3,5.3-3.9L-107.5,267.1L-107.5,267.1z M-184,276.3c0.1,0,0.1,0.2-0.1,1.4c-0.1,0.8-0.3,2.3-0.3,3.3
		c-0.2,4.5,0.5,7.8,2.7,12.4c0.6,1.3,1.1,2.3,1.1,2.3c-0.2,0.2-20.6,6.2-27.1,7.9c-1.9,0.5-3.6,1-3.7,1c-0.2,0.1-0.2,0-0.2-0.5
		c0.7-4.5,4.2-10.5,9-15.5c3.2-3.3,5.8-5.3,10.1-7.8C-189.3,279.1-184.4,276.4-184,276.3C-184.1,276.3-184,276.3-184,276.3
		L-184,276.3z M-135.9,284.9c0,0,0.8,0.4,1.7,0.9c6.6,3.8,15.8,7.4,23.6,9.2l0.7,0.2l-1,0.6c-4.1,2.3-17.6,7.9-31.4,13
		c-2,0.7-4,1.5-4.4,1.6c-0.4,0.2-0.7,0.2-0.7,0.2c0,0,0.6-1.1,1.3-2.4c3.9-7.2,7.7-16,9.7-22.1
		C-136.1,285.4-135.9,284.9-135.9,284.9L-135.9,284.9z M-140.8,286.5c0,0-0.2,0.7-0.5,1.4c-2.7,6.5-6.2,13.6-10.7,21.6
		c-1.1,2-2.1,3.7-2.1,3.7c0,0-1-0.6-2.1-1.2c-6.5-4-12.3-8.9-16.1-13.7l-0.6-0.7l2.8-0.8c10.1-2.7,18.6-5.7,27.1-9.3
		C-141.8,286.9-140.8,286.5-140.8,286.5z M-110.3,297.1C-110.3,297.1-110.3,297.1-110.3,297.1c0,0.7-1.5,7.1-2.8,11.7
		c-1.1,3.9-2,6.9-3.7,12.2c-0.7,2.3-1.4,4.3-1.4,4.3c0,0-0.2,0-0.4-0.1c-9.2-1.7-17.4-4-25.1-7.1c-2.2-0.9-5.2-2.3-5.4-2.4
		c-0.1-0.1,1.8-0.9,4.1-1.9c14-6.1,28.6-13.1,33.6-16.1C-110.9,297.3-110.4,297.1-110.3,297.1L-110.3,297.1z M-180.7,299.5
		c0.1,0.1-3.9,5.7-9.3,13.4c-1.9,2.7-4.1,5.8-5,7c-0.8,1.2-2.1,3-2.8,4.1l-1.3,2l-1.4-1.2c-1.6-1.4-4.5-4.3-5.7-5.9
		c-2.7-3.3-4.4-6.8-5.2-10c-0.3-1.5-0.3-2.2,0-2.3c0.5-0.1,8.7-2.1,16.4-3.9c4.3-1,9.3-2.2,11-2.6
		C-182.2,299.9-180.7,299.5-180.7,299.5L-180.7,299.5z M-176.7,301l1,1.1c4.4,5,9,8.6,14.5,11.8c1,0.6,1.7,1,1.7,1.1
		c-0.2,0.2-19.1,6.8-27.8,9.9c-4.9,1.7-8.9,3.1-9,3.1c0,0-0.3-0.2-0.6-0.4l-0.6-0.4l0.9-1.3c2.9-4.2,6.5-8.8,14.5-18.4L-176.7,301
		L-176.7,301z M-152.1,318.6c0,0,1.4,0.5,3.1,1.1c4,1.5,7.2,2.5,11.4,3.5c5.2,1.3,12.8,2.6,17.3,3c0.7,0.1,1,0.1,0.9,0.2
		c-0.2,0.1-4.8,1.6-8.1,2.7c-5.3,1.7-21.5,6.4-34.7,10.2c-2.4,0.7-4.5,1.3-4.7,1.3c-0.3,0.1-1.3-0.2-1.3-0.3c0-0.1,0.7-1,1.6-2.1
		c4.4-5.3,8.9-11.2,12.5-16.8C-153,319.9-152.1,318.7-152.1,318.6L-152.1,318.6z M-157.6,318.8c0,0-2.2,3.5-6,9.6
		c-1.6,2.6-3.5,5.5-4.1,6.5c-0.6,1-1.5,2.5-2.1,3.4l-0.9,1.6l-0.5-0.1c-1.1-0.3-8.9-3.1-11-3.9c-2.6-1-5.2-2.3-7.2-3.3
		c-2.5-1.3-5.6-3.3-5.3-3.4c0.1,0,4.3-1.2,9.4-2.6c13.5-3.7,21-5.8,25.9-7.3C-158.4,319-157.6,318.8-157.6,318.8L-157.6,318.8z
		 M-119.1,327.8L-119.1,327.8c0.2,0.3-4.8,14.2-6.7,18.6c-0.4,1-0.6,1.2-0.8,1.2c-0.5,0-7.8-1-12.2-1.7c-7.7-1.2-20.6-3.4-23.8-4.2
		l-0.7-0.2l4.6-1c9.9-2.2,14.6-3.4,19.4-4.9c6.1-1.9,12.1-4.2,18.2-7C-120.2,328.2-119.4,327.8-119.1,327.8L-119.1,327.8z"/>
	
		<linearGradient id="SVGID_2_" gradientUnits="userSpaceOnUse" x1="-20544.9707" y1="-19420.4453" x2="-20488.0703" y2="-19420.4453" gradientTransform="matrix(0.1187 0 0 0.1187 2252.9453 2470.6223)">
		<stop  offset="0" style="stop-color:#939FAB"/>
		<stop  offset="1" style="stop-color:#DCDEE1"/>
	</linearGradient>
	<path class="st1" d="M-142.1,145.4c-0.7-0.1-11.6,3.9-18.7,6.7c-9.5,3.9-16.9,7.6-21.5,10.8c-1.7,1.2-3.8,3.3-4.2,4.2
		c-0.1,0.3-0.2,0.7-0.2,1l4.1,3.9l9.8,3.1l23.4,4.2l26.8,4.6l0.3-2.3c-0.1,0-0.2,0-0.2,0l-3.5-0.6l-0.7-1.3
		c-3.6-6.4-7.7-14.4-10-19.7c-1.8-4.2-3.5-9-4.5-12.4C-141.7,145.6-141.7,145.4-142.1,145.4L-142.1,145.4L-142.1,145.4L-142.1,145.4
		z M-142.6,147L-142.6,147c0.1,0,0.2,0.9,0.3,1.9c0.5,4.3,1.5,8.5,3,13c1.1,3.4,1.1,3.2-0.2,2.8c-3.1-0.9-17.2-3.3-27.5-4.7
		c-1.6-0.2-3-0.4-3-0.5c-0.1-0.1,7.4-4,10.7-5.6C-155,152-143.4,147.1-142.6,147L-142.6,147z M-172.3,160.8l1.2,0.4
		c6.5,2.2,23,5.4,32,6.1c1,0.1,1.9,0.2,1.9,0.2c0,0-0.8,0.5-1.9,1c-4.4,2.2-9.2,4.9-12.5,6.9c-1,0.6-1.9,1.1-2,1.1
		c-0.1,0-0.8-0.1-1.4-0.2l-1.2-0.2l-3.1-3c-5.4-5.3-9.7-9.3-11.3-10.9L-172.3,160.8z M-173.5,161.8l4.3,5.4c2.4,3,4.8,5.9,5.3,6.6
		c0.5,0.6,1,1.2,0.9,1.2c-0.1,0.1-6.3-1.1-9.6-1.9c-3.4-0.8-4.8-1.1-6.8-1.8l-1.7-0.6v-0.4c0-2.1,2.7-5.2,7.1-8.3L-173.5,161.8
		L-173.5,161.8z M-136.6,169.2c0.1,0,0.3,0.3,0.6,1.1c1,2.3,4.3,8.5,5.1,9.7c0.2,0.4,0.7,0.4-3.7-0.3c-10.5-1.7-13.8-2.3-13.8-2.3
		c0,0,0.3-0.2,0.7-0.5c3.2-1.8,6.5-4.1,9.4-6.5c0.7-0.6,1.4-1.1,1.5-1.2C-136.7,169.2-136.6,169.1-136.6,169.2L-136.6,169.2z"/>
	
		<radialGradient id="SVGID_3_" cx="-3269.6958" cy="-10470.4189" r="75.547" gradientTransform="matrix(-0.114 -1.712736e-02 3.463960e-02 -0.228 -136.7104 -2224.6201)" gradientUnits="userSpaceOnUse">
		<stop  offset="0" style="stop-color:#EE352C"/>
		<stop  offset="1" style="stop-color:#A91D22"/>
	</radialGradient>
	<path class="st2" d="M-186.2,166.7c0,0-0.7,1.1,0,2.7c0.4,1,1.6,2.2,2.9,3.4c0,0,13.7,13.4,15.4,15.3c7.6,8.8,10.9,17.4,11.2,29.3
		c0.2,7.7-1.3,14.4-4.9,22.2c-6.4,14-20,29.5-40.8,46.6l3.1-1c2-1.5,4.7-3.1,11-6.5c14.5-8,30.9-15.3,50.9-22.8
		c28.9-10.9,76.3-23.6,103.4-27.7l2.8-0.4l-0.4-0.7c-2.5-3.8-4.2-6.2-6.2-8.7c-5.9-7.3-13.1-13.3-21.9-18.2
		c-12.1-6.8-27.7-12-47.5-15.9c-3.7-0.7-11.9-2.2-18.6-3.2c-14.1-2.2-23.3-3.7-33.3-5.4c-3.6-0.6-9-1.5-12.6-2.3
		c-1.9-0.4-5.4-1.2-8.2-2.2C-182.3,170.1-185.5,169.3-186.2,166.7L-186.2,166.7z M-178.2,174.4c0,0,0.5,0.2,1.2,0.4
		c1.2,0.4,2.7,0.9,4.5,1.4c1.4,0.4,2.7,0.7,4.1,1.1c1.9,0.5,3.4,0.9,3.4,0.9c0.2,0.2,3.3,10.2,4.4,14c0.4,1.5,0.7,2.7,0.7,2.7
		c0,0-0.4-0.5-0.8-1.2c-3.6-6.4-9.3-12.8-15.9-18C-177.6,175-178.2,174.4-178.2,174.4L-178.2,174.4z M-163.1,178.6
		c0.2,0,0.8,0.1,1.7,0.3c5.2,1.2,14.7,3,20.7,4c1,0.2,1.8,0.3,1.8,0.4c0,0.1-0.4,0.3-0.8,0.5c-1,0.5-5.1,3-6.5,3.9
		c-3.4,2.3-6.5,4.8-8.7,7c-0.9,0.9-1.7,1.6-1.7,1.6s-0.2-0.5-0.3-1.2c-1.1-4.3-3.4-10.6-5.5-15.1
		C-162.8,179.2-163.1,178.6-163.1,178.6C-163.1,178.6-163.1,178.6-163.1,178.6L-163.1,178.6z M-136.4,183.7c0.2,0.1,0.5,1.1,1.1,3.4
		c1.1,4.5,1.7,9.5,1.5,14.1c-0.1,1.3-0.1,2.5-0.2,2.7l-0.1,0.3l-1.6-0.5c-3.3-1-8.7-2.6-13.3-3.9c-2.6-0.7-4.8-1.4-4.8-1.4
		c0-0.2,3.8-4,5.5-5.5C-145.1,190.1-136.6,183.6-136.4,183.7L-136.4,183.7z M-134.2,184c0.1-0.1,12.8,2.1,18.5,3.2
		c4.3,0.8,10.5,2.1,10.9,2.3c0.2,0.1-0.5,0.4-2.5,1.4c-8.1,3.7-14.2,7-20.2,11c-1.6,1-2.9,1.9-2.9,1.9c0,0-0.1-0.9-0.1-2
		c0-5.9-1.2-11.8-3.3-16.8C-134.1,184.5-134.3,184-134.2,184z M-101.4,190.4c0.1,0.1-0.3,2.6-0.7,4.1c-1.1,4.6-4.1,11.4-7.8,17.8
		c-0.6,1.1-1.2,2.1-1.3,2.1c-0.1,0-0.9-0.4-1.9-1c-3.6-2.1-7.6-4.1-12.1-5.9c-1.2-0.5-2.3-1-2.3-1c-0.2-0.2,9.7-6.8,15-9.9
		C-108.3,194.1-101.6,190.3-101.4,190.4L-101.4,190.4z M-99.1,190.8c0.3,0,5.9,1.5,8.8,2.4c7.2,2.2,15.6,5.2,21,7.7l2.3,1l-1.6,0.4
		c-13.3,3.1-24.6,6.6-35.6,11c-0.9,0.4-1.7,0.7-1.8,0.7c-0.1,0,0.2-0.7,0.6-1.6c3.3-7,5.4-14.3,6-20.5
		C-99.3,191.3-99.2,190.8-99.1,190.8L-99.1,190.8z M-155,203.6c0.1-0.1,4.4,0.9,6.7,1.6c3.5,1,11,3.5,11,3.7c0,0-0.8,0.7-1.8,1.6
		c-4,3.4-7.9,6.9-12.6,11.4c-1.4,1.3-2.6,2.4-2.6,2.4c-0.1,0-0.1-0.2-0.1-0.4c0.7-5.2,0.6-11.8-0.4-18.6
		C-154.9,204.4-155,203.7-155,203.6z M-64.9,203.7c0.1,0.1-2,3.3-3.3,5.1c-1.9,2.7-4.6,6.2-10.7,13.9c-3.2,4.1-6.9,8.7-8.1,10.2
		c-1.2,1.5-2.3,2.8-2.3,2.8c0,0-0.4-0.6-0.9-1.2c-3.5-5.2-7.6-9.7-12.5-13.8c-0.9-0.8-1.9-1.6-2.3-1.9c-0.3-0.2-0.6-0.5-0.6-0.5
		c0-0.1,5.2-2.3,9.2-3.9c7-2.8,16.5-6.2,23.6-8.4C-68.9,204.8-64.9,203.7-64.9,203.7L-64.9,203.7z M-62.5,204.4
		c0.1,0,0.9,0.3,1.8,0.9c7.5,4.3,14.8,9.8,20.6,15.5c1.6,1.6,5.7,5.8,5.6,5.8c0,0-1.4,0.1-3.1,0.2c-13,1-29.6,3.7-45.6,7.6
		c-1.1,0.2-2,0.5-2.1,0.5c-0.1,0,1.1-1.2,2.7-2.7c9.4-9,13.7-14.7,18.7-24.9C-63.2,205.7-62.6,204.4-62.5,204.4
		C-62.5,204.4-62.5,204.4-62.5,204.4L-62.5,204.4z M-131.2,211.4c0.4,0.1,4.4,2,7.5,3.5c2.8,1.4,6.9,3.6,7.2,3.8
		c0,0-1.5,0.8-3.3,1.7c-5.8,2.9-10.8,5.6-15.9,8.8c-1.5,0.9-2.7,1.6-2.7,1.6c-0.1,0-0.1-0.1,0.7-1.6c2.8-5.1,5-11.1,6.3-17
		C-131.4,211.7-131.3,211.4-131.2,211.4L-131.2,211.4z M-135.2,212.1c0.1,0.1-1,3.9-1.6,6c-1.3,3.9-3.4,8.8-5.5,12.5
		c-0.5,0.9-1.2,2.1-1.6,2.8l-0.8,1.2l-1.7-1.7c-2-1.9-3.6-3.1-5.7-4.2c-0.8-0.4-1.5-0.8-1.5-0.9c0-0.2,5.3-5,9.3-8.5
		C-141.4,216.9-135.3,212-135.2,212.1L-135.2,212.1z M-110.7,222.2l1.5,1c3.5,2.3,7.5,5.2,10.6,7.9c1.8,1.4,5.2,4.5,5.8,5.2l0.4,0.4
		l-2.5,0.7c-14.1,3.9-25,7.4-37.8,12.1c-1.4,0.5-2.6,1-2.7,1c-0.2,0-0.3,0.2,2.8-2.8c8.1-7.5,15.4-15.8,20.7-23.8L-110.7,222.2
		L-110.7,222.2z M-117.1,223.8c0.1,0.1-4.2,6-6.7,9.4c-3,4-8.4,10.7-12.1,15.1c-1.5,1.8-2.9,3.3-2.9,3.4c-0.1,0-0.1-0.4-0.1-1.1
		c0-3.7-1-7.7-2.6-11.1c-0.7-1.4-0.8-1.8-0.7-1.9c0.6-0.5,9.6-5.6,15.2-8.7C-123.2,226.8-117.2,223.8-117.1,223.8L-117.1,223.8z
		 M-156.1,233.4c0.1,0,0.8,0.4,1.6,0.8c2,1.1,3.7,2.3,5.3,3.6c0.1,0.1-0.7,0.7-1.8,1.5c-2.9,2.1-7.4,5.5-10,7.5
		c-2.7,2.2-2.8,2.2-2.5,1.8c2-3.1,3.1-4.9,4.1-7.1c1-2,1.9-4.4,2.6-6.4C-156.5,234.1-156.2,233.4-156.1,233.4L-156.1,233.4z
		 M-145.7,241.5c0.2,0,0.3,0.2,1.2,1.5c1.8,2.6,3.1,6.1,3.5,9l0.1,0.6l-4.2,1.6c-7.6,2.9-14.5,5.8-19.2,8c-1.3,0.6-3.6,1.7-5.2,2.5
		c-1.5,0.8-2.7,1.4-2.7,1.3c0,0,1-0.7,2.1-1.6c9.2-6.7,17.2-14,23.2-21.4C-146.4,242.3-145.9,241.6-145.7,241.5L-145.7,241.5
		L-145.7,241.5z M-150.5,242.7c0.1,0.1-3.4,4.1-5.8,6.5c-6,6.1-11.8,10.8-19.2,15.5c-0.9,0.6-1.8,1.1-1.9,1.2
		c-0.2,0.1,0.1-0.2,3.3-3.7c2-2.2,3.6-4,5.3-6.3c1.2-1.5,1.4-1.7,3.1-2.9C-161.1,249.7-150.6,242.6-150.5,242.7z"/>
</g>
<path class="st3" d="M37.8,128c-0.3,0-0.6,0-1,0c-6.5,0.3-11,3.2-13.5,8.8c-2.2,5.1-2,11.7,0,16.8c2.3,5,6.1,7.6,12.3,8.6
	c1.3,0.2,2.2,0.9,4.8,3.9l3.1,3.7h5.7l-3.8-3.8c-2.1-2.1-3.8-3.9-3.8-4.1c0-0.2,0.8-0.5,1.8-0.8c3.2-1,5.9-3.4,7.7-7.2
	c1.5-3,1.7-4,1.9-7.8C53.6,135,47.7,128,37.8,128L37.8,128L37.8,128z M42.8,157.5c-2.8,1.3-6.8,1.6-9.4,0.6c-2.7-1-5.4-3.8-6.5-7
	c-1.3-3.5-1.1-10,0.4-12.9c2.4-4.6,5.6-6.8,10.3-6.8c6.9,0,10.9,4.3,11.4,12.2C49.3,150.4,47.1,155.4,42.8,157.5L42.8,157.5z
	 M141.4,137.7c-2.4,0-4.2,1-5.5,2.9l-1,1.5v-3.9h-4.1v23.6h4.1v-7.5c0-6.9,0.1-7.7,1-9.6c1.3-2.6,3.6-3.9,5.8-3.3l1.5,0.4v-4.1
	L141.4,137.7L141.4,137.7L141.4,137.7z M117,137.5c-0.8,0-1.7,0.1-2.5,0.3c-5.5,1.4-8.7,6.8-8.5,12.2c0,4.6,0.9,6.9,3.1,9.3
	c4.5,3.7,8.6,4,14.1,2c0.9-0.4,2-0.9,2-0.9v-3.7l-2,1c-4.5,1.9-7.8,1.9-10.5-0.3c-1.7-1.7-2.5-3.8-2.8-6.2h16.7v-3.2
	C126.6,141.4,122.7,137.3,117,137.5L117,137.5L117,137.5z M110.3,147.8c0,0,0.6-4,2.9-5.6c1.1-0.8,2.4-1.2,3.6-1.2
	c1.2,0,2.5,0.4,3.5,1.2c2.1,1.6,2.4,5.6,2.4,5.6L110.3,147.8L110.3,147.8L110.3,147.8L110.3,147.8z M10.4,143.5
	c-4.5-2.7-6.5-4.7-6.2-7c0.7-6.4,8.6-5.5,13-3.1l0-4.3c0,0-2.4-1-5.9-1.1c-5.3-0.1-8.8,1.7-10.4,5.2c-2.4,5.2-0.3,9.2,7.3,13.6
	c4.3,2.5,6.1,4.6,6.1,7c0,4.8-5.8,6.5-11.9,3.5c-1.2-0.6-2.3-1.1-2.3-1.1c-0.2,1.4-0.1,4.7-0.1,4.7s1.9,0.8,4.6,1.3
	c6.9,1.4,13.1-1.9,13.7-7.1C18.9,150.1,17.2,147.6,10.4,143.5L10.4,143.5L10.4,143.5z M178,137.4c-0.8,0-1.7,0.1-2.6,0.3
	c-5.5,1.4-8.7,6.8-8.4,12.2c0,4.6,0.9,6.8,3.1,9.2c4.5,3.7,8.6,4,14.1,2c0.9-0.4,2-0.9,2-0.9v-3.7l-2,1c-4.5,1.9-7.8,1.9-10.5-0.4
	c-1.7-1.7-2.5-3.8-2.8-6.2h16.7v-3.2C187.6,141.4,183.7,137.3,178,137.4L178,137.4L178,137.4z M171.3,147.7c0,0,0.6-4,2.9-5.7
	c1.1-0.8,2.4-1.2,3.6-1.2c1.2,0,2.5,0.4,3.5,1.2c2.1,1.6,2.4,5.6,2.4,5.6L171.3,147.7L171.3,147.7L171.3,147.7z M95.4,143.6
	c-4.5-2.7-6.5-4.7-6.2-7c0.7-6.4,8.6-5.5,13-3.1l0-4.3c0,0-2.4-1-5.9-1.1c-5.3-0.1-8.8,1.7-10.4,5.2c-2.4,5.2-0.2,9.2,7.3,13.6
	c4.3,2.5,6.1,4.6,6.1,6.9c0,4.8-5.8,6.6-11.9,3.5c-1.2-0.6-2.3-1.1-2.3-1.1c-0.2,1.4-0.1,4.7-0.1,4.7s1.8,0.7,4.6,1.3
	c6.9,1.4,13.2-1.9,13.7-7.1C103.9,150.2,102.1,147.6,95.4,143.6L95.4,143.6L95.4,143.6z M202.4,137.6c-2.4,0-4.2,1-5.5,2.9l-1,1.5
	v-3.9h-4.1v23.6h4.1v-7.5c0-6.9,0.1-7.7,1-9.6c1.3-2.6,3.6-3.9,5.8-3.3l1.5,0.4v-4.1L202.4,137.6L202.4,137.6z M62.4,143.5v-15h-4.2
	v33.2h17.6v-3.9H62.4L62.4,143.5L62.4,143.5z M159,148.1l-3.4,9l-3.3-9l-3.4-10h-4.3c2.8,7.9,5.8,15.8,8.8,23.6c1.3,0,2.6,0,4,0
	L162,150l4.7-11.9h-4.1C162.7,138.1,160.9,142.8,159,148.1L159,148.1L159,148.1z M72,119.4c0.7,0,1.2-0.2,1.7-0.7
	c0.5-0.5,0.7-1,0.7-1.7c0-0.7-0.2-1.2-0.7-1.7c-0.5-0.4-1-0.6-1.7-0.6c-0.7,0-1.2,0.2-1.7,0.7c-0.5,0.5-0.7,1-0.7,1.7
	c0,0.7,0.2,1.2,0.7,1.7C70.8,119.2,71.4,119.4,72,119.4L72,119.4L72,119.4z M70.6,115.6c0.4-0.4,0.9-0.6,1.5-0.6
	c0.6,0,1.1,0.2,1.5,0.6c0.4,0.4,0.6,0.9,0.6,1.5c0,0.6-0.2,1.1-0.6,1.5c-0.4,0.4-0.9,0.6-1.5,0.6c-0.6,0-1.1-0.2-1.5-0.6
	c-0.4-0.4-0.6-0.9-0.6-1.5C70,116.4,70.2,116,70.6,115.6z M71.6,117.3h0.3c0.2,0,0.4,0.2,0.5,0.5l0.3,0.7h0.5l-0.4-0.8
	c-0.2-0.3-0.3-0.5-0.5-0.6c0.2-0.1,0.4-0.1,0.6-0.3c0.1-0.1,0.2-0.3,0.2-0.5c0-0.2-0.1-0.4-0.2-0.6c-0.2-0.2-0.5-0.2-0.9-0.2h-0.9v3
	h0.4L71.6,117.3L71.6,117.3L71.6,117.3z M71.6,115.9h0.4c0.3,0,0.5,0.1,0.6,0.1c0.1,0.1,0.1,0.2,0.1,0.4c0,0.3-0.2,0.5-0.6,0.5h-0.5
	L71.6,115.9L71.6,115.9L71.6,115.9z M2.6,117c0-1,0-1.8-0.1-2.3h0c0.1,0.5,0.2,0.9,0.3,1.2l4,9h0.7l4-9c0.1-0.2,0.2-0.6,0.3-1.1h0
	c-0.1,0.9-0.1,1.7-0.1,2.3v7.9h1.4v-11.8h-1.7l-3.7,8.2c-0.1,0.3-0.3,0.8-0.6,1.4H7.2c-0.1-0.3-0.3-0.8-0.5-1.4l-3.6-8.3H1.2v11.8
	h1.3L2.6,117L2.6,117L2.6,117z M16.2,117h1.2v7.3h-1.2V117z M16.8,114.3c0.2,0,0.5-0.1,0.6-0.2c0.2-0.2,0.3-0.4,0.3-0.6
	c0-0.2-0.1-0.5-0.3-0.6c-0.2-0.2-0.4-0.2-0.6-0.2c-0.2,0-0.5,0.1-0.6,0.2c-0.2,0.2-0.3,0.4-0.3,0.6c0,0.3,0.1,0.5,0.3,0.6
	C16.4,114.2,16.6,114.3,16.8,114.3L16.8,114.3L16.8,114.3z M25.9,124.5v-1.3c-0.6,0.5-1.3,0.7-2.1,0.7c-0.9,0-1.6-0.3-2.1-0.9
	c-0.5-0.6-0.8-1.3-0.8-2.3c0-1,0.3-1.8,0.8-2.4c0.5-0.6,1.2-0.9,2.1-0.9c0.7,0,1.4,0.2,2,0.6v-1.4c-0.6-0.3-1.2-0.4-1.9-0.4
	c-1.3,0-2.4,0.4-3.2,1.3c-0.8,0.8-1.2,2-1.2,3.3c0,1.2,0.3,2.2,1.1,3c0.8,0.8,1.7,1.2,2.9,1.2C24.5,125.1,25.2,124.9,25.9,124.5
	L25.9,124.5z M29.2,120.6c0-1,0.2-1.7,0.6-2.3c0.4-0.5,0.8-0.7,1.4-0.7c0.5,0,0.8,0.1,1,0.3v-1.4c-0.2-0.1-0.5-0.1-0.8-0.1
	c-0.5,0-0.9,0.2-1.3,0.5c-0.4,0.3-0.7,0.8-0.9,1.4h0v-1.7h-1.3v8.4h1.3L29.2,120.6L29.2,120.6z M37,125.1c1.3,0,2.3-0.4,3-1.2
	c0.8-0.8,1.1-1.9,1.1-3.2c0-1.4-0.3-2.4-1-3.2c-0.7-0.8-1.7-1.2-2.9-1.2s-2.3,0.4-3,1.1c-0.8,0.8-1.2,1.9-1.2,3.4
	c0,1.3,0.3,2.3,1.1,3.1C34.7,124.6,35.7,125.1,37,125.1L37,125.1L37,125.1z M35.1,118.2c0.5-0.5,1.2-0.8,2-0.8c0.9,0,1.5,0.3,2,0.8
	c0.5,0.6,0.7,1.4,0.7,2.4c0,1-0.2,1.8-0.7,2.4c-0.5,0.6-1.1,0.9-2,0.9c-0.9,0-1.5-0.3-2-0.9c-0.5-0.6-0.8-1.3-0.8-2.4
	C34.3,119.6,34.5,118.8,35.1,118.2L35.1,118.2z M47,124.3c0.5-0.5,0.8-1,0.8-1.7c0-0.6-0.2-1.1-0.6-1.5c-0.3-0.3-0.8-0.6-1.6-0.9
	c-0.6-0.3-1-0.5-1.3-0.7c-0.2-0.2-0.3-0.5-0.3-0.9c0-0.3,0.1-0.6,0.4-0.8c0.3-0.2,0.6-0.3,1.1-0.3c0.7,0,1.3,0.2,1.9,0.6v-1.3
	c-0.5-0.3-1.1-0.4-1.8-0.4c-0.9,0-1.6,0.2-2.1,0.7c-0.6,0.5-0.8,1-0.8,1.7c0,0.6,0.2,1.1,0.5,1.5c0.3,0.3,0.8,0.6,1.5,0.9
	c0.7,0.3,1.1,0.6,1.4,0.8c0.2,0.2,0.3,0.5,0.3,0.8c0,0.8-0.5,1.2-1.6,1.2c-0.8,0-1.5-0.3-2.2-0.8v1.4c0.6,0.4,1.3,0.5,2.1,0.5
	C45.7,125.1,46.5,124.8,47,124.3L47,124.3L47,124.3z M53.4,116.3c-1.3,0-2.3,0.4-3,1.1c-0.8,0.8-1.2,1.9-1.2,3.4
	c0,1.3,0.3,2.3,1.1,3.1c0.8,0.8,1.7,1.2,3,1.2c1.3,0,2.3-0.4,3-1.2c0.8-0.8,1.1-1.9,1.1-3.2c0-1.4-0.4-2.4-1-3.2
	C55.6,116.6,54.7,116.3,53.4,116.3L53.4,116.3L53.4,116.3z M56,120.7c0,1-0.2,1.8-0.7,2.4c-0.5,0.6-1.1,0.9-2,0.9
	c-0.9,0-1.5-0.3-2-0.9c-0.5-0.6-0.8-1.3-0.8-2.4c0-1.1,0.3-1.9,0.8-2.5c0.5-0.5,1.2-0.8,2-0.8c0.8,0,1.5,0.3,2,0.8
	C55.8,118.8,56,119.6,56,120.7L56,120.7L56,120.7z M59.7,124.9H61v-7.3h2v-1.1h-2v-1.3c0-1.2,0.5-1.8,1.4-1.8c0.3,0,0.6,0.1,0.9,0.2
	v-1.2c-0.2-0.1-0.6-0.1-1-0.1c-0.7,0-1.3,0.2-1.8,0.7c-0.6,0.5-0.9,1.2-0.9,2.2v1.4h-1.4v1.1h1.4L59.7,124.9L59.7,124.9z
	 M65.2,122.6c0,1.6,0.7,2.5,2.2,2.5c0.5,0,0.9-0.1,1.3-0.3v-1.2c-0.2,0.2-0.5,0.3-0.9,0.3c-0.5,0-0.8-0.1-1-0.4
	c-0.2-0.2-0.3-0.6-0.3-1.2v-4.7h2.1v-1.1h-2.1V114c-0.5,0.2-0.9,0.3-1.3,0.4v2h-1.4v1.1h1.4L65.2,122.6L65.2,122.6z M209.5,138
	c-0.5-0.4-1-0.6-1.7-0.6c-0.7,0-1.2,0.2-1.7,0.7c-0.5,0.5-0.7,1-0.7,1.7c0,0.7,0.2,1.2,0.7,1.7c0.5,0.4,1,0.6,1.7,0.6
	c0.7,0,1.2-0.2,1.7-0.7c0.5-0.5,0.7-1,0.7-1.7C210.2,139,210,138.5,209.5,138L209.5,138z M209.3,141.2c-0.4,0.4-0.9,0.6-1.5,0.6
	c-0.6,0-1.1-0.2-1.5-0.6c-0.4-0.4-0.6-0.9-0.6-1.5c0-0.6,0.2-1.1,0.6-1.5c0.4-0.4,0.9-0.6,1.5-0.6c0.6,0,1.1,0.2,1.5,0.6
	c0.4,0.4,0.6,0.9,0.6,1.5C209.9,140.3,209.8,140.8,209.3,141.2z M208.1,139.8c0.2-0.1,0.4-0.2,0.6-0.3c0.1-0.1,0.2-0.3,0.2-0.5
	c0-0.2-0.1-0.4-0.2-0.6c-0.2-0.2-0.5-0.2-0.9-0.2h-0.9v3h0.4V140h0.3c0.2,0,0.4,0.2,0.5,0.5l0.3,0.7h0.5l-0.4-0.8
	C208.4,140.1,208.3,139.9,208.1,139.8L208.1,139.8L208.1,139.8z M207.8,139.6h-0.5v-1h0.4c0.3,0,0.5,0,0.6,0.1
	c0.1,0.1,0.1,0.2,0.1,0.4C208.4,139.4,208.2,139.6,207.8,139.6L207.8,139.6L207.8,139.6z M132.8,116.1h0.4v-3h1v-0.4h-2.4v0.4h1
	L132.8,116.1L132.8,116.1z M135.1,113.9c0-0.3,0-0.5,0-0.7c0,0.2,0.1,0.3,0.1,0.3l1.2,2.6h0.2l1.2-2.6c0-0.1,0.1-0.2,0.1-0.3
	c0,0.3,0,0.5,0,0.6v2.3h0.4v-3.4h-0.5l-1,2.3c0,0.1-0.1,0.2-0.2,0.4h0c0-0.1-0.1-0.2-0.2-0.4l-1-2.4h-0.5v3.4h0.4L135.1,113.9
	L135.1,113.9L135.1,113.9z"/>
</svg>
