<svg version="1.1" id="svg3131" xmlns="http://www.w3.org/2000/svg" x="0" y="0" viewBox="0 0 250 180.6" style="enable-background:new 0 0 250 180.6" xml:space="preserve">
	<style>
		.st7{fill:#242e72}
	</style>
	<switch>
		<g>
			<linearGradient id="SVGID_1_" gradientUnits="userSpaceOnUse" x1="11052.619" y1="-12755.274" x2="9978.763" y2="-12424.857" gradientTransform="matrix(.02835 0 0 -.02835 -120.485 -328.804)">
				<stop offset="0" style="stop-color:#4a5fcb"/>
				<stop offset="1" style="stop-color:#1c245f"/>
			</linearGradient>
			<path d="M177.6 12.2c8.8 0 15.9 7.1 15.9 15.9S186.4 44 177.6 44s-15.9-7.1-15.9-15.9 7.1-15.9 15.9-15.9z" style="fill:url(#SVGID_1_)"/>
			<linearGradient id="SVGID_2_" gradientUnits="userSpaceOnUse" x1="11349.534" y1="-14726.749" x2="9710.801" y2="-14352.055" gradientTransform="matrix(.02835 0 0 -.02835 -120.485 -328.804)">
				<stop offset="0" style="stop-color:#5468e8"/>
				<stop offset="1" style="stop-color:#2f3c90"/>
			</linearGradient>
			<path d="M194.9 53.5h-34.4c-3.4 0-6.1 2.8-6.1 6.1v33.7c0 12.7 10.4 23 23 23h.7c12.7 0 23-10.4 23-23V59.7c-.1-3.4-2.9-6.2-6.2-6.2z" style="fill:url(#SVGID_2_)"/>
			<linearGradient id="SVGID_3_" gradientUnits="userSpaceOnUse" x1="9538.75" y1="-12603.881" x2="8054.784" y2="-12147.279" gradientTransform="matrix(.02835 0 0 -.02835 -120.485 -328.804)">
				<stop offset="0" style="stop-color:#6b80f3"/>
				<stop offset="1" style="stop-color:#464fa9"/>
			</linearGradient>
			<path d="M128.9 0c12.2 0 22 9.8 22 22 0 12.1-9.8 22-22 22-12.1 0-22-9.8-22-22s9.8-22 22-22z" style="fill:url(#SVGID_3_)"/>
			<linearGradient id="SVGID_4_" gradientUnits="userSpaceOnUse" x1="10126.653" y1="-15220.984" x2="7532.758" y2="-14511.589" gradientTransform="matrix(.02835 0 0 -.02835 -120.485 -328.804)">
				<stop offset="0" style="stop-color:#8094ff"/>
				<stop offset="1" style="stop-color:#5060da"/>
			</linearGradient>
			<path d="M160.4 53.5H97.3c-3.4 0-6.2 2.8-6.2 6.2v41.6c0 20.5 16.7 37.2 37.2 37.2h1.2c20.5 0 37.2-16.7 37.2-37.2V59.7c-.1-3.4-2.9-6.2-6.3-6.2z" style="fill:url(#SVGID_4_)"/>
			<linearGradient id="SVGID_5_" gradientUnits="userSpaceOnUse" x1="8614.616" y1="-14446.739" x2="6038.777" y2="-13654.162" gradientTransform="matrix(.02835 0 0 -.02835 -120.485 -328.804)">
				<stop offset="0" style="stop-color:#3744ae"/>
				<stop offset="1" style="stop-color:#243176"/>
			</linearGradient>
			<path d="M55.1 107.7h64.2c3.3 0 6.1-2.7 6.1-6.1V37.4c0-3.3-2.7-6.1-6.1-6.1H55.1c-3.3 0-6.1 2.7-6.1 6.1v64.2c0 3.3 2.7 6.1 6.1 6.1z" style="fill:url(#SVGID_5_)"/>
			<linearGradient id="SVGID_6_" gradientUnits="userSpaceOnUse" x1="5979.178" y1="-14050.45" x2="8674.19" y2="-14050.45" gradientTransform="matrix(.02835 0 0 -.02835 -120.485 -328.804)">
				<stop offset="0" style="stop-color:#5160b4"/>
				<stop offset=".502" style="stop-color:#2e3c8f"/>
				<stop offset="1" style="stop-color:#5367e7"/>
			</linearGradient>
			<path d="M55.1 107.7h64.2c3.3 0 6.1-2.7 6.1-6.1V37.4c0-3.3-2.7-6.1-6.1-6.1h-.4c3.3 0 6 2.7 6 6v63.9c0 3.3-2.7 6-6 6H55.5c-3.3 0-6-2.7-6-6V37.3c0-3.3 2.7-6 6-6h-.4c-3.3 0-6.1 2.7-6.1 6.1v64.2c0 3.3 2.7 6.1 6.1 6.1z" style="fill:url(#SVGID_6_)"/>
			<linearGradient id="SVGID_7_" gradientUnits="userSpaceOnUse" x1="6703.17" y1="-14050.445" x2="7841.934" y2="-14050.445" gradientTransform="matrix(.02835 0 0 -.02835 -120.485 -328.804)">
				<stop offset="0" style="stop-color:#c1cfcf"/>
				<stop offset="1" style="stop-color:#fefefe"/>
			</linearGradient>
			<path style="fill:url(#SVGID_7_)" d="M69.5 49.7h32.3v6.8H89.7v32.7h-8.1V56.5H69.5z"/>
			<path class="st7" d="m9.8 180.2-6.6-18.9h-.1c.2 2.8.3 5.4.3 7.9v11H0v-22.6h5.2l6.3 18h.1l6.5-18h5.2v22.6h-3.6V169c0-1.1 0-2.6.1-4.4.1-1.8.1-2.9.1-3.3h-.1L13 180.2H9.8z"/>
			<path class="st7" d="M28.7 158.6c0-.7.2-1.2.5-1.5.4-.4.9-.5 1.5-.5s1.1.2 1.5.5c.4.4.5.9.5 1.5s-.2 1.1-.5 1.5c-.4.4-.9.5-1.5.5-.7 0-1.2-.2-1.5-.5-.4-.4-.5-.9-.5-1.5zm3.8 21.6h-3.6v-17.1h3.6v17.1z"/>
			<path class="st7" d="M44.6 180.6c-2.6 0-4.6-.8-5.9-2.3s-2-3.7-2-6.5c0-2.9.7-5.1 2.1-6.6 1.4-1.5 3.4-2.3 6.1-2.3 1.8 0 3.4.3 4.9 1l-1.1 2.9c-1.5-.6-2.8-.9-3.8-.9-3 0-4.4 2-4.4 5.9 0 1.9.4 3.4 1.1 4.3.7 1 1.8 1.4 3.2 1.4 1.6 0 3.2-.4 4.6-1.2v3.2c-.7.4-1.3.7-2.1.8s-1.6.3-2.7.3z"/>
			<path class="st7" d="M62.1 162.8c.7 0 1.3.1 1.8.2l-.4 3.4c-.5-.1-1.1-.2-1.6-.2-1.5 0-2.6.5-3.5 1.4-.9 1-1.4 2.2-1.4 3.7v9h-3.6v-17.1h2.9l.5 3h.2c.6-1 1.3-1.8 2.2-2.4.9-.7 1.9-1 2.9-1z"/>
			<path class="st7" d="M82.3 171.6c0 2.8-.7 5-2.2 6.6-1.4 1.6-3.4 2.4-6 2.4-1.6 0-3-.4-4.2-1.1-1.2-.7-2.2-1.8-2.8-3.1-.7-1.4-1-2.9-1-4.7 0-2.8.7-4.9 2.1-6.5 1.4-1.6 3.4-2.3 6-2.3 2.5 0 4.4.8 5.9 2.4 1.5 1.5 2.2 3.6 2.2 6.3zm-12.5 0c0 4 1.5 5.9 4.4 5.9 2.9 0 4.3-2 4.3-5.9 0-3.9-1.5-5.9-4.4-5.9-1.5 0-2.6.5-3.3 1.5s-1 2.6-1 4.4z"/>
			<path class="st7" d="M98 175.4c0 1.7-.6 3-1.8 3.8-1.2.9-3 1.3-5.2 1.3-2.3 0-4.1-.3-5.5-1v-3.1c2 .9 3.9 1.4 5.6 1.4 2.2 0 3.4-.7 3.4-2 0-.4-.1-.8-.4-1.1-.2-.3-.7-.6-1.2-.9s-1.4-.7-2.4-1.1c-2-.8-3.3-1.5-4-2.3-.7-.8-1-1.8-1-3 0-1.5.6-2.6 1.8-3.4 1.2-.8 2.8-1.2 4.8-1.2s3.9.4 5.7 1.2l-1.2 2.7c-1.8-.8-3.4-1.1-4.7-1.1-1.9 0-2.9.5-2.9 1.6 0 .5.3 1 .8 1.4.5.4 1.6.9 3.3 1.5 1.4.5 2.4 1 3.1 1.5s1.1 1 1.4 1.6c.2.6.4 1.3.4 2.2z"/>
			<path class="st7" d="M117.1 171.6c0 2.8-.7 5-2.2 6.6-1.4 1.6-3.4 2.4-6 2.4-1.6 0-3-.4-4.2-1.1s-2.2-1.8-2.8-3.1c-.7-1.4-1-2.9-1-4.7 0-2.8.7-4.9 2.1-6.5 1.4-1.6 3.4-2.3 6-2.3 2.5 0 4.4.8 5.9 2.4 1.5 1.5 2.2 3.6 2.2 6.3zm-12.4 0c0 4 1.5 5.9 4.4 5.9 2.9 0 4.3-2 4.3-5.9 0-3.9-1.5-5.9-4.4-5.9-1.5 0-2.6.5-3.3 1.5-.7 1.1-1 2.6-1 4.4z"/>
			<path class="st7" d="M129.9 165.9h-4.2v14.4H122v-14.4h-2.8v-1.7l2.8-1.1V162c0-2 .5-3.5 1.4-4.5 1-1 2.4-1.5 4.4-1.5 1.3 0 2.5.2 3.8.6l-1 2.8c-.9-.3-1.8-.4-2.6-.4s-1.4.3-1.8.8c-.4.5-.6 1.3-.6 2.3v1.1h4.2v2.7z"/>
			<path class="st7" d="M139.2 177.6c.9 0 1.8-.1 2.7-.4v2.7c-.4.2-.9.3-1.6.4-.6.1-1.3.2-2 .2-3.4 0-5.2-1.8-5.2-5.5v-9.2h-2.3v-1.6l2.5-1.3 1.2-3.6h2.2v3.8h4.9v2.8h-4.9v9.2c0 .9.2 1.5.7 1.9.5.4 1.1.6 1.8.6z"/>
			<path class="st7" d="M161.7 180.2H158v-19.5h-6.7v-3.2h17v3.2h-6.7v19.5z"/>
			<path class="st7" d="M179 180.6c-2.7 0-4.7-.8-6.3-2.3-1.5-1.6-2.3-3.7-2.3-6.4 0-2.8.7-5 2.1-6.6 1.4-1.6 3.3-2.4 5.7-2.4 2.3 0 4 .7 5.4 2.1 1.3 1.4 2 3.3 2 5.7v2h-11.4c.1 1.7.5 2.9 1.3 3.8s2 1.3 3.6 1.3c1 0 2-.1 2.8-.3s1.8-.5 2.8-1v3c-.9.4-1.8.7-2.7.9-.8.1-1.9.2-3 .2zm-.7-15c-1.2 0-2.1.4-2.8 1.1-.7.7-1.1 1.8-1.2 3.2h7.8c0-1.4-.4-2.5-1-3.2-.7-.8-1.6-1.1-2.8-1.1z"/>
			<path class="st7" d="m200.5 180.2-.7-2.4h-.1c-.8 1-1.7 1.8-2.5 2.1-.8.4-1.9.6-3.2.6-1.7 0-3-.5-3.9-1.4-.9-.9-1.4-2.2-1.4-3.9 0-1.8.7-3.1 2-4 1.3-.9 3.3-1.4 6-1.5l3-.1v-.9c0-1.1-.3-1.9-.8-2.5-.5-.5-1.3-.8-2.4-.8-.9 0-1.7.1-2.5.4-.8.3-1.6.6-2.3.9l-1.2-2.6c.9-.5 1.9-.9 3.1-1.1 1.1-.3 2.1-.4 3.1-.4 2.2 0 3.8.5 4.9 1.4 1.1 1 1.7 2.4 1.7 4.5V180h-2.8zm-5.4-2.4c1.3 0 2.4-.4 3.2-1.1.8-.7 1.2-1.8 1.2-3.1v-1.5l-2.2.1c-1.7.1-3 .3-3.7.9s-1.2 1.3-1.2 2.3c0 .8.2 1.4.7 1.8s1.1.6 2 .6z"/>
			<path class="st7" d="M222.6 180.2h-3.7v-10.6c0-1.3-.2-2.3-.7-2.9-.5-.6-1.3-1-2.3-1-1.4 0-2.4.5-3.1 1.4-.7.9-1 2.4-1 4.6v8.5h-3.6v-17.1h2.9l.5 2.2h.2c.5-.8 1.2-1.4 2.1-1.9s1.9-.7 3-.7c2.6 0 4.4.9 5.2 2.7h.2c.5-.8 1.2-1.5 2.1-2 .9-.5 2-.7 3.2-.7 2 0 3.5.5 4.5 1.5.9 1 1.4 2.6 1.4 4.7v11.2h-3.6v-10.6c0-1.3-.3-2.3-.8-2.9-.5-.6-1.3-1-2.3-1-1.4 0-2.4.4-3.1 1.3-.7.9-1 2.2-1 4.1v9.2z"/>
			<path class="st7" d="M250 175.4c0 1.7-.6 3-1.8 3.8-1.2.9-3 1.3-5.2 1.3-2.3 0-4.1-.3-5.5-1v-3.1c2 .9 3.9 1.4 5.6 1.4 2.2 0 3.4-.7 3.4-2 0-.4-.1-.8-.4-1.1s-.7-.6-1.2-.9-1.4-.7-2.4-1.1c-2-.8-3.3-1.5-4-2.3-.7-.8-1-1.8-1-3 0-1.5.6-2.6 1.8-3.4 1.2-.8 2.8-1.2 4.8-1.2s3.9.4 5.7 1.2l-1.2 2.7c-1.8-.8-3.4-1.1-4.7-1.1-1.9 0-2.9.5-2.9 1.6 0 .5.3 1 .8 1.4s1.6.9 3.3 1.5c1.4.5 2.4 1 3.1 1.5.6.5 1.1 1 1.4 1.6.2.6.4 1.3.4 2.2z"/>
		</g>
	</switch>
</svg>
