<svg xmlns="http://www.w3.org/2000/svg" viewBox="-2.91 -3.03 164.32 109.94" style="isolation:isolate">
	<defs>
		<clipPath id="a">
			<path d="M0 0h158.75v104H0z"/>
		</clipPath>
	</defs>
	<g clip-path="url(#a)">
		<path fill="#06E" fill-rule="evenodd" d="M46.87 83.48h3.73v-3.27h-3.73v3.27Z"/>
		<path fill="#06E" fill-rule="evenodd" d="M57.42.21c-.86.21-.91 2.1-.91 2.1l3 2.46 12 17.58v2.24c.342.958.224 2.02-.32 2.88-.92 1.27 0 2.87 0 3.83.179 1.38.449 2.746.81 4.09l-.46 4.86a45.086 45.086 0 0 0-.63 4.8c0 1.28-1.54 1.17-2.21 1.6l-4.42 2.88s-4.1 2.55-5.37 3.19a36.091 36.091 0 0 0-4.42 3.52L50 58.16l-6.62 2.56s-1.86.54-2.78.75c-.765.221-1.509.512-2.22.87l-3 1.6s-3.3.9-3.23 1.55c.08.64 1.69 1 2.07 1 .38 0 2.29-.46 3.24-.46.95 0 .7.25 1 .48a3.92 3.92 0 0 0 2.43.3 12.184 12.184 0 0 0 1.89-2.56L45 63s6-.64 6.94-1c.94-.32 5-1.27 6.63-1.91 1.58-.65 6-4.16 7.26-4.48a67.916 67.916 0 0 0 6.31-2.88s4.73-3.19 5.68-3.19c1 0 4.11.32 6 .32 1.89 0 10.1 3.51 10.1 3.51l8.52 2.88s6.31 1.92 7.58 2.24a16.987 16.987 0 0 1 3.79 2.24l1.89.32c1.27.003 2.537.107 3.79.31 1.58.32 1.58-1 1.58-1l-1.27-1.92h-3.15l-3.48-1-2.84-1.92s-4.1-2.24-5.36-2.88a39.247 39.247 0 0 0-5-1.6l-3.16-1.27-3.16-2.24-3.15-2.56s-1.9-1.28-3.16-1.92c-1.26-.64-2.21 0-2.52-1.92-.32-1.91-2.53-4.15-2.53-4.15l-1-2.24a36.885 36.885 0 0 0 1.9-5.12c.31-1.59 2.84-4.47 2.84-4.47l5.68-1.6L95.8 22l2.53-1.28 2.84-.64L105 18.2a6 6 0 0 0 1.58.63c.62.1.92-.22 1.26-.95.34-.74.57-1-.32-1.6-.88-.63-2.21 0-2.84 0-.63 0-5.68 1.28-5.68 1.28s-5.37 2.55-6.63 2.87a46.445 46.445 0 0 1-6 .32l-2.52 1-2.53 1.6.64-1.6 2.21-1.28S86 18.83 86 17.88c0-1 .43-2.42-.77-3.38a4.503 4.503 0 0 0-2.59-1.13 5.36 5.36 0 0 0-3.27 1.31c-.81.57-2.69.86-2.84 1.6-.16.73 1.26 2.87 1.26 2.87s-.31 1.92-1.58 2.24C75 21.71 74 20.11 74 20.11l-1.89-2.23-6-7.36-5.34-6.71-.91-2.69c0 .09-.4-.19-.89-.46a3.184 3.184 0 0 0-1.34-.47.672.672 0 0 0-.21 0v.02zM13.46 85.33a6.004 6.004 0 0 0-2 1.79 3.15 3.15 0 0 0-1.32-1.74 4.355 4.355 0 0 0-2.4-.6 4.335 4.335 0 0 0-2.12.55A4.865 4.865 0 0 0 3.89 87v-1.8H.37v13.56H4V90.6a2.788 2.788 0 0 1 .8-2c.254-.269.561-.483.9-.63a2.65 2.65 0 0 1 1-.18c.221 0 .441.038.65.11.208.066.392.191.53.36.166.209.285.451.35.71.098.389.142.789.13 1.19v8.57H12v-8.28c-.005-.346.07-.688.22-1 .145-.308.341-.588.58-.83.249-.27.552-.485.89-.63a2.731 2.731 0 0 1 1-.18c.221.002.441.039.65.11.207.068.39.193.53.36.163.211.282.452.35.71.089.39.129.79.12 1.19v8.57h3.63v-9.06a5.493 5.493 0 0 0-1.05-3.75 4 4 0 0 0-3.14-1.16 4.74 4.74 0 0 0-2.28.55m17.73-.13-2.95 8.91-3.16-8.91h-4.19l5.62 13-.42 1.15a2.594 2.594 0 0 1-.75 1.23 1.82 1.82 0 0 1-1.16.35c-.517 0-1.032-.07-1.53-.21l-.59 2.7c.449.153.911.263 1.38.33.444.06.892.09 1.34.09.62.02 1.237-.078 1.82-.29a3.262 3.262 0 0 0 1.26-.87c.404-.43.741-.919 1-1.45.27-.58.57-1.26.88-2l5.46-14-4.01-.03zm9.59-4.93a3.994 3.994 0 0 0-1.48.85c-.447.406-.79.914-1 1.48a5.828 5.828 0 0 0-.34 2.15v.45h-2.14V88H38v10.76h3.6V88h3.13v-2.8H41.6v-.52a1.66 1.66 0 0 1 .57-1.45c.369-.26.809-.4 1.26-.4A6.43 6.43 0 0 1 45 83l.49-2.65a7.183 7.183 0 0 0-1.49-.27 12.934 12.934 0 0 0-1.32-.08 6.14 6.14 0 0 0-1.86.27"/>
		<path fill="#06E" fill-rule="evenodd" d="M46.93 98.76h3.62V85.2h-3.62v13.56Z"/>
		<path fill="#06E" fill-rule="evenodd" d="M54.19 81.59v3.61h-2.12V88h2.12v6.34A4.9 4.9 0 0 0 55.27 98a4.458 4.458 0 0 0 3.3 1c.451-.001.902-.031 1.35-.09a7.851 7.851 0 0 0 1.46-.33l-.51-2.67a3.718 3.718 0 0 1-.74.14 6.09 6.09 0 0 1-.74 0 1.716 1.716 0 0 1-1.14-.38 1.86 1.86 0 0 1-.43-1.44V88h3.1v-2.8h-3.1v-3.61h-3.63Z"/>
		<path fill="#06E" fill-rule="evenodd" d="M68.17 85.33a5 5 0 0 0-1.9 1.74V85.2h-3.51v13.56h3.62V90.6c-.005-.38.077-.756.24-1.1.155-.321.361-.615.61-.87.278-.25.596-.453.94-.6.386-.148.797-.22 1.21-.21a2.002 2.002 0 0 1 1.45.52c.438.569.632 1.288.54 2v8.47H75v-9A5.49 5.49 0 0 0 73.88 86a4.41 4.41 0 0 0-3.42-1.21 4.998 4.998 0 0 0-2.29.55"/>
		<path fill="#06E" fill-rule="evenodd" d="M81.09 89.31c.135-.343.331-.658.58-.93.26-.274.573-.492.92-.64a3.323 3.323 0 0 1 1.27-.23 2.667 2.667 0 0 1 2.13.78c.491.616.737 1.393.69 2.18h-5.82a3.68 3.68 0 0 1 .23-1.16m.11-4a5.78 5.78 0 0 0-2.14 1.42A6.547 6.547 0 0 0 77.68 89a8.752 8.752 0 0 0-.49 3 7.598 7.598 0 0 0 1.69 5.3 6.48 6.48 0 0 0 5.06 1.88A6.598 6.598 0 0 0 88.19 98 5.337 5.337 0 0 0 90 94.53h-3.5a2.26 2.26 0 0 1-2.5 1.81 2.83 2.83 0 0 1-2.32-.92 4.002 4.002 0 0 1-.83-2.56h9.36v-1.45a7.13 7.13 0 0 0-1.56-4.84 5.888 5.888 0 0 0-4.67-1.79 7.515 7.515 0 0 0-2.74.48"/>
		<path fill="#06E" fill-rule="evenodd" d="M95.38 85.08a6.18 6.18 0 0 0-1.85.84 4.1 4.1 0 0 0-1.2 1.33 3.675 3.675 0 0 0-.42 1.75 3.43 3.43 0 0 0 1.2 2.87 7.994 7.994 0 0 0 3.66 1.34l1.86.31c.491.029.958.219 1.33.54.226.249.351.574.35.91.025.422-.192.821-.56 1.03a3.782 3.782 0 0 1-1.84.33A4.414 4.414 0 0 1 96 96a1.91 1.91 0 0 1-1-1.56h-3.38a4.79 4.79 0 0 0 .63 2.28 4.444 4.444 0 0 0 1.43 1.46 5.663 5.663 0 0 0 2 .76c.764.155 1.541.232 2.32.23a7.121 7.121 0 0 0 4.43-1.17 3.729 3.729 0 0 0 1.45-3.08 5.746 5.746 0 0 0-.22-1.69 2.888 2.888 0 0 0-.78-1.26 4.665 4.665 0 0 0-1.48-.9 11.712 11.712 0 0 0-2.4-.57l-1.7-.29a4.093 4.093 0 0 1-1.57-.51 1.068 1.068 0 0 1-.4-.94.997.997 0 0 1 .12-.45c.085-.17.217-.312.38-.41.235-.141.492-.242.76-.3a4.945 4.945 0 0 1 1.2-.12 3.082 3.082 0 0 1 1.87.45c.424.348.713.832.82 1.37l3.23-.41a6.4 6.4 0 0 0-.5-1.61 3.532 3.532 0 0 0-1-1.3 4.997 4.997 0 0 0-1.77-.87 9.36 9.36 0 0 0-2.69-.33 8.82 8.82 0 0 0-2.37.3"/>
		<path fill="#06E" fill-rule="evenodd" d="M108.86 85.08a6.06 6.06 0 0 0-1.85.84 3.887 3.887 0 0 0-1.2 1.33 3.572 3.572 0 0 0-.43 1.77 3.43 3.43 0 0 0 1.2 2.87 7.994 7.994 0 0 0 3.66 1.34l1.86.31c.494.029.964.219 1.34.54.223.25.344.575.34.91.035.427-.179.835-.55 1.05a3.833 3.833 0 0 1-1.85.33 4.418 4.418 0 0 1-1.86-.36 1.89 1.89 0 0 1-1-1.56h-3.47c.024.801.243 1.584.64 2.28a4.405 4.405 0 0 0 1.42 1.46 5.709 5.709 0 0 0 2 .76c.76.155 1.534.232 2.31.23a7.15 7.15 0 0 0 4.49-1.18 3.748 3.748 0 0 0 1.44-3.08 5.746 5.746 0 0 0-.22-1.69 2.855 2.855 0 0 0-.77-1.26 4.722 4.722 0 0 0-1.49-.9 11.608 11.608 0 0 0-2.35-.59l-1.71-.29a4.156 4.156 0 0 1-1.57-.51 1.1 1.1 0 0 1-.4-.94.997.997 0 0 1 .12-.45c.094-.167.228-.308.39-.41.232-.141.485-.243.75-.3a4.995 4.995 0 0 1 1.2-.12 3.105 3.105 0 0 1 1.88.45c.428.353.719.845.82 1.39l3.23-.41a6.4 6.4 0 0 0-.5-1.61 3.503 3.503 0 0 0-1-1.3 4.992 4.992 0 0 0-1.78-.87 9.327 9.327 0 0 0-2.68-.33 8.74 8.74 0 0 0-2.37.3"/>
		<path fill="#06E" fill-rule="evenodd" d="M125 96.1a2.58 2.58 0 0 1-1-.61 2.791 2.791 0 0 1-.71-1.29 7.966 7.966 0 0 1-.22-2.12v-.41a6.52 6.52 0 0 1 .24-1.93 3 3 0 0 1 .69-1.24 3.3 3.3 0 0 1 2.17-.76c.384.001.764.076 1.12.22.367.156.684.408.92.73.276.396.476.84.59 1.31.156.655.23 1.327.22 2a7.253 7.253 0 0 1-.23 2 3.854 3.854 0 0 1-.64 1.32c-.25.317-.573.571-.94.74-.361.152-.748.23-1.14.23a4.324 4.324 0 0 1-1.07-.19Zm-2.06-9.1v-1.8h-3.52v18.6H123v-6.44a4.5 4.5 0 0 0 1.88 1.45 5.84 5.84 0 0 0 2 .37 5.705 5.705 0 0 0 2.46-.52 5.381 5.381 0 0 0 1.85-1.47 6.456 6.456 0 0 0 1.16-2.28c.293-.942.444-1.923.45-2.91a8.845 8.845 0 0 0-1.4-5.28 5.371 5.371 0 0 0-8.46.29"/>
		<path fill="#06E" fill-rule="evenodd" d="M138.38 96a1.311 1.311 0 0 1-.46-1.07 2.529 2.529 0 0 1 .12-.8 1.4 1.4 0 0 1 .51-.64 3.259 3.259 0 0 1 1.07-.45 9.742 9.742 0 0 1 1.84-.24l1.6-.07v.7a2.83 2.83 0 0 1-.31 1.39 2.744 2.744 0 0 1-.8.92c-.67.457-1.47.685-2.28.65a2.003 2.003 0 0 1-1.29-.39m-1.5-10.25a4.26 4.26 0 0 0-1.88 3.06l3.31.31c.21-1.09 1-1.64 2.46-1.64a2.8 2.8 0 0 1 1.61.47c.51.417.77 1.066.69 1.72v.67l-1.73.08c-.855.03-1.707.117-2.55.26a8.29 8.29 0 0 0-2.27.7 4.185 4.185 0 0 0-1.62 1.38 3.84 3.84 0 0 0-.63 2.28 4.283 4.283 0 0 0 .37 1.84 3.49 3.49 0 0 0 1 1.26c.417.337.901.583 1.42.72a5.995 5.995 0 0 0 1.72.24 5.118 5.118 0 0 0 2.57-.57 7.089 7.089 0 0 0 1.8-1.49v1.72h3.41v-8.57a8.18 8.18 0 0 0-.29-2.25 4.129 4.129 0 0 0-1-1.7 4.21 4.21 0 0 0-1.75-1.08 8.088 8.088 0 0 0-2.63-.38 7.524 7.524 0 0 0-4 1"/>
		<path fill="#06E" fill-rule="evenodd" d="M149.24 98.76h3.63V80.21h-3.63v18.55Z"/>
		<path fill="#06E" d="M155.63 82.05v-1.48h.42v-.38h-1.29v.38h.42v1.48h.45Zm1.05 0v-1.23l.53 1.23h.22l.53-1.23v1.23h.42v-1.86h-.53l-.53 1.25-.52-1.25h-.55v1.86h.43Z"/>
	</g>
</svg>
