<svg xmlns="http://www.w3.org/2000/svg" viewBox="245.77 339.77 531.96 87.96">
	<g stroke-miterlimit="2" stroke-width="0">
		<path fill="#5a64a1" d="M314.145 391.857c0 3.322 2.769 6.09 6.091 6.09 3.415 0 6.183-2.768 6.183-6.09v-34.054c0-2.768-1.938-5.168-4.614-5.906-2.676-.646-5.537.554-6.83 2.953l-24.086 44.574-23.44-44.481c-1.292-2.492-4.153-3.692-6.83-3.046-2.768.738-4.614 3.138-4.614 5.906v52.419c0 3.322 2.769 6.09 6.091 6.09 3.415 0 6.183-2.768 6.183-6.09v-31.285l17.165 34.146c1.108 2.03 3.138 3.23 5.353 3.23s4.245-1.2 5.353-3.138l17.995-34.792zm12.274 18.365a6.184 6.184 0 0 0-6.183-6.183c-3.322 0-6.09 2.768-6.09 6.183 0 3.322 2.768 6.09 6.09 6.09 3.415 0 6.183-2.768 6.183-6.09z"/>
		<path fill="#535c96" d="M388.18 376.722a6.13 6.13 0 0 0-1.846-8.49 6.237 6.237 0 0 0-8.49 1.938l-4.615 7.29-14.489-22.887c-1.753-2.86-5.537-3.691-8.398-1.938a6.237 6.237 0 0 0-1.938 8.49l18.826 29.532-.092 19.565c0 3.322 2.769 6.09 6.183 6.09 3.322 0 6.091-2.768 6.091-6.09v-19.75zm4.706-25.01c-3.415 0-6.091 2.77-6.091 6.091 0 3.415 2.676 6.184 6.09 6.184 3.415 0 6.092-2.769 6.092-6.184 0-3.322-2.677-6.09-6.091-6.09z"/>
		<path fill="#4d548b" d="M421.607 384.013c0-11.998 9.69-21.688 21.687-21.688 5.815 0 10.521 1.846 14.213 3.969 3.414 1.845 6.829 1.753 8.49-.739 1.938-2.768 1.753-6.46-.83-8.582-7.014-5.722-15.69-6.922-21.873-6.922-18.734 0-33.96 15.135-33.96 33.962 0 13.658 8.12 25.378 19.84 30.823 4.707 2.123 9.414 3.138 14.12 3.138 5.722 0 7.752-2.769 7.752-5.814 0-2.861-1.845-5.076-6.275-5.537-4.522-.462-8.213-1.477-11.72-3.507-6.922-3.784-11.444-10.798-11.444-19.103zm40.514 27.87a6.184 6.184 0 0 0 6.183-6.183c0-3.322-2.769-6.091-6.183-6.091-3.322 0-6.091 2.769-6.091 6.09 0 3.415 2.769 6.184 6.09 6.184z"/>
		<path fill="#464c80" d="M524.968 416.313c3.414 0 6.09-2.769 6.09-6.091 0-3.415-2.676-6.183-6.09-6.183h-25.194v-14.212h21.41c3.414 0 6.09-2.492 6.09-5.814 0-3.415-2.676-5.907-6.09-5.907h-21.41v-14.12h6.552c3.322 0 6.09-2.768 6.09-6.183 0-3.322-2.768-6.09-6.09-6.09H493.59c-3.322 0-6.09 2.768-6.09 6.09v52.419c0 3.322 2.768 6.09 6.09 6.09zm5.814-58.51c0-3.322-2.769-6.09-6.091-6.09-3.415 0-6.183 2.768-6.183 6.09a6.184 6.184 0 0 0 6.183 6.184c3.322 0 6.09-2.769 6.09-6.184z"/>
		<path fill="#3f4574" d="M577.704 410.222c0-3.415-2.676-6.183-6.091-6.183h-6.83v-46.236c0-3.322-2.768-6.09-6.182-6.09-3.323 0-6.091 2.768-6.091 6.09v52.419c0 3.322 2.768 6.09 6.09 6.09h13.013c3.415 0 6.09-2.768 6.09-6.09zm12.274 6.09c3.415 0 6.09-2.768 6.09-6.09 0-3.415-2.675-6.183-6.09-6.183s-6.09 2.768-6.09 6.183c0 3.322 2.675 6.09 6.09 6.09z"/>
		<path fill="#383d69" d="M617.777 416.313c3.414 0 6.183-2.769 6.183-6.091v-35.715c0-3.322-2.769-6.09-6.183-6.09-3.323 0-6.091 2.768-6.091 6.09v35.715c0 3.322 2.768 6.09 6.09 6.09zm0-53.988a6.184 6.184 0 0 0 6.183-6.183c0-3.322-2.769-6.09-6.183-6.09-3.323 0-6.091 2.768-6.091 6.09 0 3.415 2.768 6.183 6.09 6.183z"/>
		<path fill="#32355e" d="M647.728 415.759c3.046 1.384 6.645.092 8.122-2.953l5.814-12.182h31.008c2.122 0 3.968-1.107 5.076-2.768 2.122-3.138.46-5.815-.554-7.937l-16.427-34.7c-1.015-2.122-3.23-3.506-5.537-3.506a6.126 6.126 0 0 0-5.537 3.506l-24.918 52.327c-1.384 3.045-.092 6.736 2.953 8.213zm27.502-43.744 8.675 18.088h-17.258zm24.825 32.024c-3.323 0-6.091 2.768-6.091 6.183 0 3.322 2.768 6.09 6.09 6.09 3.415 0 6.184-2.768 6.184-6.09a6.184 6.184 0 0 0-6.183-6.183z"/>
		<path fill="#2b2d53" d="M749.664 410.222c0-3.415-2.677-6.183-6.091-6.183h-6.83v-46.236c0-3.322-2.768-6.09-6.183-6.09-3.322 0-6.09 2.768-6.09 6.09v52.419c0 3.322 2.768 6.09 6.09 6.09h13.013c3.414 0 6.09-2.768 6.09-6.09zm12.274 6.09c3.414 0 6.09-2.768 6.09-6.09 0-3.415-2.676-6.183-6.09-6.183-3.415 0-6.091 2.768-6.091 6.183 0 3.322 2.676 6.09 6.09 6.09z"/>
	</g>
</svg>
