<?xml version="1.0" encoding="utf-8"?>
<!-- Generator: Adobe Illustrator 22.0.1, SVG Export Plug-In . SVG Version: 6.00 Build 0)  -->
<svg version="1.1" id="design" xmlns="http://www.w3.org/2000/svg" xmlns:xlink="http://www.w3.org/1999/xlink" x="0px" y="0px"
	 viewBox="0 0 327.5 170" style="enable-background:new 0 0 327.5 170;" xml:space="preserve">
<style type="text/css">
	.st0{fill:#00678F;}
	.st1{fill:#E38D1A;}
</style>
<g>
	<path class="st0" d="M0,155.1h11v-42.8l16.9,37.2c2,4.6,4.6,6.3,10,6.3s8-1.7,10-6.3l16.9-37.2v42.8h11v-42.8
		c0-4.3-1.7-6.3-5.3-7.3c-8.3-2.7-13.6-0.3-16.3,5.3l-16.6,36.9l-16.3-36.9c-2.3-5.6-8-7.6-16.3-5.3c-3.3,1-5,3-5,7.3V155.1L0,155.1
		z"/>
	<path class="st0" d="M84.4,120.2h11v23.6c0,1.3,0.3,4.3,6.3,4.3c3,0,23.6,0,23.6,0v-28.2h11c0,0,0,38.2,0,38.5
		c0,9.6-11.6,11.6-17.3,11.6H84.4v-7.3h34.2c7-0.7,6.3-4.3,6.3-5.3v-3H102c-10.6,0-17.6-5-17.6-10.3
		C84.4,143.8,84.4,120.2,84.4,120.2L84.4,120.2z"/>
	<path class="st0" d="M317.8,92.9c-6.6-0.3-12,0.7-16.3,2.3c-1.3,0.7-3.3,0.7-3.3,2c0.7,0.7,0.7,1.7,1.3,2.7c1,1.7,2.7,4,4.3,5
		c1.7,1.3,3.7,2.7,5.3,4c3.3,2,7,3.3,10,5.3c2,1.3,3.7,2.7,5.6,4c1,0.7,1.7,1.7,2.7,2.3v-0.3c-0.7-0.7-0.7-2-1.3-2.7
		c-1-1-1.7-1.7-2.7-2.3c-2.3-3.3-5.3-6-8.6-8.3c-2.7-2-8.6-4.3-9.6-7.3c0,0,0,0-0.3,0c2-0.3,4-1,5.6-1.3c3-0.7,5.3-0.7,8.3-1.3
		c1.3-0.3,2.7-0.7,4-1.3c0-0.3,0-0.7,0-0.7c-1.7-1.7-2.7-3.7-4.3-5c-4.3-3.7-9-7.3-13.6-10.3c-2.7-1.7-6-2.7-8.6-4.3
		c-1-0.7-2.7-0.7-3.3-1.7c-1.7-2-2.3-4.3-3.3-6.3c-2.3-4.6-4.6-9.6-7-14.6c-1.7-3.3-2.3-6.6-4.3-9.6c-8.6-14.3-17.9-22.6-32.2-31.2
		c-3-1.7-6.6-2.7-10.6-3.3c-2,0-4.3-0.3-6.3-0.3c-1.3-0.7-2.7-2.3-4-3c-3.7-3-15.9-9.6-19.3-1c-2.3,5.3,3.3,10.6,5.3,13.6
		c1.3,2,3.3,4,4.3,6.3c0.3,1.3,0.3,2.7,1,4.3c1.3,3.7,2.7,7.6,4.3,11c1,1.7,2,3.7,3,5.3c0.7,1,2,1.3,2,3c-1.3,1.7-1.3,4.3-2,6.3
		c-3,9.3-2,20.9,2.3,27.9c1.3,2,4.6,6.6,8.6,5c3.7-1.7,3-6.3,4-10.3c0.3-1,0-1.7,0.7-2.3v0.3c1.3,2.3,2.3,4.6,3.3,7
		c2.7,4,7,8.3,11,11.3c2,1.7,3.7,4,6,5v-0.3c0,0,0,0-0.3,0c-0.7-0.7-1.3-1-2-1.7c-1.7-1.7-3.3-3.3-4.3-5c-3.7-4.6-6.6-10-9.3-15.3
		c-1.3-2.7-2.7-5.3-3.7-8c-0.7-1-0.7-2.7-1.3-3c-1.3,2-3,3.3-4,5.6c-1.7,3.7-1.7,8-2.3,12.6c-0.3,0-0.3,0-0.3,0.3
		c-2.7-0.7-3.7-3.3-4.6-5.6c-2.7-6-3-15.3-0.7-22.3c0.7-1.7,3-7.3,2-9c-0.7-1.7-2.3-2.7-3-3.7c-1-1.7-2.3-3.7-3-5.3
		c-2-4.6-3-10-5.3-14.6c-1-2.3-2.7-4.3-4.3-6.3c-1.7-2.3-3.3-4-4.6-6.6c-0.3-1-1-2.3-0.3-3.3c0.3-0.7,0.7-1,1.3-1
		c1-1,4.3,0.3,5.3,0.7c3,1.3,5.6,2.3,8.3,4.3c1.3,1,2.3,2.3,4,3c0.7,0,1.3,0,1.7,0c2.7,0.7,5.6,0.3,8.3,1c4.3,1.3,8.3,3.7,12,5.6
		c11,7,19.9,16.6,25.9,28.6c1,2,1.3,3.7,2.3,5.6c1.7,4,4,8.3,5.6,12.3s3.3,8,6,11.3c1.3,1.7,6.3,2.7,8.6,3.7
		c1.7,0.7,4.3,1.3,5.6,2.3c3,1.7,5.6,3.7,8.3,5.6C313.5,89,317.5,91.3,317.8,92.9L317.8,92.9z"/>
	<path class="st0" d="M233.2,20.5c-1.3,0-2.3,0.3-3.3,0.3c0,0,0,0,0,0.3c0,0,0,0,0.3,0c0.7,1.3,2,2.3,2.7,3.3c0.7,1.3,1.3,2.7,2,4
		v-0.3c1-0.7,1.3-2,1.3-4c-0.3-0.7-0.3-1-1-1.7C234.8,21.5,233.8,21.2,233.2,20.5L233.2,20.5z"/>
	<path class="st1" d="M144.1,155.1h31.2c3.7,0,7.3-0.7,10-2c4.6-2.3,7-5,7-9v-8c0-3-2.7-6-7.6-8c-2.7-1-6-1.7-9.3-1.7h-13.3
		c-4.3,0-6.6-1.3-7-4.3c0-0.3,0-0.7,0-1v-5c0-0.3,0-0.7,0-1c0.7-2.3,1.7-3,5.6-3.3c0.3,0,0.7,0,1,0h30.9v-7.3h-30.6
		c-4.3,0-6.6,0.3-9,1c-6.3,2-9.3,5.3-9.3,10.6v6.3c0,5,5.6,9,14.9,10c1,0,2,0,3.3,0h11.3c0.3,0,1,0,1.3,0c3.3,0.3,5,1,6,2.3
		c0.7,0.7,1,1.3,1,2v6.3c0,0.7-0.7,1.7-1.7,2.7s-2.7,1.3-4.6,1.7c-0.3,0-0.7,0-1,0h-29.9v7.6H144.1z"/>
	<path class="st1" d="M260.1,142.4c0,7.3,5.6,11.6,16.6,12.3c1,0,2,0.3,3.3,0.3h28.2v-7.3h-28.6c-6.3,0-8.6-1.7-8.6-5.3v-37.5h-11
		V142.4L260.1,142.4z"/>
	<path class="st1" d="M199.3,142.8v-25.9c0-6.6,4.6-10.6,13.6-12c1,0,2,0,3,0h20.6c1,0,2,0,3,0c9,1.3,13.6,5.3,13.6,12v25.9
		c0,5.3-2,8.3-6.3,10l10.6,9.6h-12.6l-8.6-8l-8.6,0.7h-11.6c-2,0-4-0.3-6.3-1C202.9,152.4,199.3,148.7,199.3,142.8L199.3,142.8z
		 M211.2,142.1c0,0.3,0.3,0.7,0.3,1c0.7,3,3.3,4.6,7.6,4.6h10l-9-8.3h12.3l8,7.3c1.7-1,2.3-2,2.7-3.7c0-0.3,0-0.7,0-1v-24.6
		c0-0.3,0-0.7,0-1c-0.7-3-3.3-4.3-7.6-4.3h-16.3c-5,0-8,2-8,5.3V142.1L211.2,142.1z"/>
	<path class="st1" d="M313.2,155.1h1.7v-6h2v-1.3h-6v1.3h2.3L313.2,155.1L313.2,155.1z M325.1,155.1h1.7v-7.3h-2.3l-2,5l-2-5h-2.3
		v7.3h1.3v-5.6l0,0l2,5.6h1l2-5.6l0,0v5.6H325.1z"/>
</g>
</svg>
