<svg version="1.1" id="design" xmlns="http://www.w3.org/2000/svg" x="0" y="0" viewBox="0 0 327.5 170" style="enable-background:new 0 0 327.5 170" xml:space="preserve">
	<style>
		.st0{fill:#00678f}.st1{fill:#e38d1a}
	</style>
	<path class="st0" d="M0 155.1h11v-42.8l16.9 37.2c2 4.6 4.6 6.3 10 6.3s8-1.7 10-6.3l16.9-37.2v42.8h11v-42.8c0-4.3-1.7-6.3-5.3-7.3-8.3-2.7-13.6-.3-16.3 5.3l-16.6 36.9-16.3-36.9c-2.3-5.6-8-7.6-16.3-5.3-3.3 1-5 3-5 7.3v42.8z"/>
	<path class="st0" d="M84.4 120.2h11v23.6c0 1.3.3 4.3 6.3 4.3h23.6v-28.2h11v38.5c0 9.6-11.6 11.6-17.3 11.6H84.4v-7.3h34.2c7-.7 6.3-4.3 6.3-5.3v-3H102c-10.6 0-17.6-5-17.6-10.3v-23.9z"/>
	<path class="st0" d="M317.8 92.9c-6.6-.3-12 .7-16.3 2.3-1.3.7-3.3.7-3.3 2 .7.7.7 1.7 1.3 2.7 1 1.7 2.7 4 4.3 5 1.7 1.3 3.7 2.7 5.3 4 3.3 2 7 3.3 10 5.3 2 1.3 3.7 2.7 5.6 4 1 .7 1.7 1.7 2.7 2.3v-.3c-.7-.7-.7-2-1.3-2.7-1-1-1.7-1.7-2.7-2.3-2.3-3.3-5.3-6-8.6-8.3-2.7-2-8.6-4.3-9.6-7.3h-.3c2-.3 4-1 5.6-1.3 3-.7 5.3-.7 8.3-1.3 1.3-.3 2.7-.7 4-1.3V95c-1.7-1.7-2.7-3.7-4.3-5-4.3-3.7-9-7.3-13.6-10.3-2.7-1.7-6-2.7-8.6-4.3-1-.7-2.7-.7-3.3-1.7-1.7-2-2.3-4.3-3.3-6.3-2.3-4.6-4.6-9.6-7-14.6-1.7-3.3-2.3-6.6-4.3-9.6-8.6-14.3-17.9-22.6-32.2-31.2-3-1.7-6.6-2.7-10.6-3.3-2 0-4.3-.3-6.3-.3-1.3-.7-2.7-2.3-4-3-3.7-3-15.9-9.6-19.3-1-2.3 5.3 3.3 10.6 5.3 13.6 1.3 2 3.3 4 4.3 6.3.3 1.3.3 2.7 1 4.3 1.3 3.7 2.7 7.6 4.3 11 1 1.7 2 3.7 3 5.3.7 1 2 1.3 2 3-1.3 1.7-1.3 4.3-2 6.3-3 9.3-2 20.9 2.3 27.9 1.3 2 4.6 6.6 8.6 5 3.7-1.7 3-6.3 4-10.3.3-1 0-1.7.7-2.3v.3c1.3 2.3 2.3 4.6 3.3 7 2.7 4 7 8.3 11 11.3 2 1.7 3.7 4 6 5v-.3h-.3c-.7-.7-1.3-1-2-1.7-1.7-1.7-3.3-3.3-4.3-5-3.7-4.6-6.6-10-9.3-15.3-1.3-2.7-2.7-5.3-3.7-8-.7-1-.7-2.7-1.3-3-1.3 2-3 3.3-4 5.6-1.7 3.7-1.7 8-2.3 12.6-.3 0-.3 0-.3.3-2.7-.7-3.7-3.3-4.6-5.6-2.7-6-3-15.3-.7-22.3.7-1.7 3-7.3 2-9-.7-1.7-2.3-2.7-3-3.7-1-1.7-2.3-3.7-3-5.3-2-4.6-3-10-5.3-14.6-1-2.3-2.7-4.3-4.3-6.3-1.7-2.3-3.3-4-4.6-6.6-.3-1-1-2.3-.3-3.3.3-.7.7-1 1.3-1 1-1 4.3.3 5.3.7 3 1.3 5.6 2.3 8.3 4.3 1.3 1 2.3 2.3 4 3h1.7c2.7.7 5.6.3 8.3 1 4.3 1.3 8.3 3.7 12 5.6 11 7 19.9 16.6 25.9 28.6 1 2 1.3 3.7 2.3 5.6 1.7 4 4 8.3 5.6 12.3s3.3 8 6 11.3c1.3 1.7 6.3 2.7 8.6 3.7 1.7.7 4.3 1.3 5.6 2.3 3 1.7 5.6 3.7 8.3 5.6 1.8-.6 5.8 1.7 6.1 3.3z"/>
	<path class="st0" d="M233.2 20.5c-1.3 0-2.3.3-3.3.3v.3h.3c.7 1.3 2 2.3 2.7 3.3.7 1.3 1.3 2.7 2 4v-.3c1-.7 1.3-2 1.3-4-.3-.7-.3-1-1-1.7-.4-.9-1.4-1.2-2-1.9z"/>
	<path class="st1" d="M144.1 155.1h31.2c3.7 0 7.3-.7 10-2 4.6-2.3 7-5 7-9v-8c0-3-2.7-6-7.6-8-2.7-1-6-1.7-9.3-1.7h-13.3c-4.3 0-6.6-1.3-7-4.3v-7c.7-2.3 1.7-3 5.6-3.3h31.9v-7.3H162c-4.3 0-6.6.3-9 1-6.3 2-9.3 5.3-9.3 10.6v6.3c0 5 5.6 9 14.9 10H174.5c3.3.3 5 1 6 2.3.7.7 1 1.3 1 2v6.3c0 .7-.7 1.7-1.7 2.7s-2.7 1.3-4.6 1.7h-30.9v7.6h-.2z"/>
	<path class="st1" d="M260.1 142.4c0 7.3 5.6 11.6 16.6 12.3 1 0 2 .3 3.3.3h28.2v-7.3h-28.6c-6.3 0-8.6-1.7-8.6-5.3v-37.5h-11v37.5h.1z"/>
	<path class="st1" d="M199.3 142.8v-25.9c0-6.6 4.6-10.6 13.6-12h26.6c9 1.3 13.6 5.3 13.6 12v25.9c0 5.3-2 8.3-6.3 10l10.6 9.6h-12.6l-8.6-8-8.6.7H216c-2 0-4-.3-6.3-1-6.8-1.7-10.4-5.4-10.4-11.3zm11.9-.7c0 .3.3.7.3 1 .7 3 3.3 4.6 7.6 4.6h10l-9-8.3h12.3l8 7.3c1.7-1 2.3-2 2.7-3.7v-26.6c-.7-3-3.3-4.3-7.6-4.3h-16.3c-5 0-8 2-8 5.3v24.7z"/>
	<path class="st1" d="M313.2 155.1h1.7v-6h2v-1.3h-6v1.3h2.3v6zm11.9 0h1.7v-7.3h-2.3l-2 5-2-5h-2.3v7.3h1.3v-5.6l2 5.6h1l2-5.6v5.6h.6z"/>
</svg>
