<svg xmlns="http://www.w3.org/2000/svg" width="200" height="128">
    <path d="M166.85 89.38q-5.17-1.57-7.29-3.82A6.31 6.31 0 01158 80a9.19 9.19 0 014-6.22 13.53 13.53 0 018.19-2.46 11.87 11.87 0 015.67 1.28 7.74 7.74 0 013.45 3.5 8.13 8.13 0 01.67 4.88h-4.23a5.1 5.1 0 00-1.15-4.54 6.67 6.67 0 00-4.94-1.65 8.59 8.59 0 00-5.05 1.37 5.46 5.46 0 00-2.32 3.8 3.54 3.54 0 001.16 3.29 13.63 13.63 0 005.25 2.46 22.35 22.35 0 015.85 2.45 7.64 7.64 0 012.85 3.14 7.4 7.4 0 01.43 4.21 8.89 8.89 0 01-3.95 6.2 14.44 14.44 0 01-8.43 2.33 13.63 13.63 0 01-5.93-1.26 8.25 8.25 0 01-3.85-3.44 7.59 7.59 0 01-.79-5H159a4.74 4.74 0 001.45 4.56 8 8 0 005.46 1.68 9.27 9.27 0 005.3-1.36 5.28 5.28 0 002.3-3.7 3.76 3.76 0 00-1.09-3.62 16.07 16.07 0 00-5.57-2.52m-39.55 4.15v4.2l1.44-3.73 9.67-22.23h3.53L144.73 94l.3 3.85 1.33-4.28 8.23-21.79h4.23l-12.53 31.85h-3.85l-3.06-23.21-.13-2.43-.87 2.43-10.32 23.21h-3.83l-2.89-31.85h4.2zm-58.84 10l-27.21-.07a21.26 21.26 0 01-1.73-41.92 35.15 35.15 0 01-.22-3.7c0-17.51 13.9-31.75 31-31.75A31.23 31.23 0 01100.05 49a20.08 20.08 0 0110.53-2.95 20.72 20.72 0 0119.49 14.13l-3 1.09a17.54 17.54 0 00-16.49-12A17 17 0 00100 53l-2 1.55-.49-2.55A28.08 28.08 0 0070.3 29.37c-15.3 0-27.81 12.79-27.81 28.51a28.94 28.94 0 00.4 4.82l.29 1.72-1.69.17a18 18 0 001.39 35.76h26.08l4.33-28.65h4.21l12.37 24.67 3.72-24.65h4.18L93 103.57h-4.27L76.4 79l-3.71 24.55zm48.44 0H96l.44-2.91 12.88-12.25a32.34 32.34 0 004.06-4.52 8.58 8.58 0 001.48-3.6 5.11 5.11 0 00-.86-4.05 4.57 4.57 0 00-3.79-1.6 7.24 7.24 0 00-5 1.71 7.69 7.69 0 00-2.39 4.78h-4a11.09 11.09 0 013.89-7.09 12.09 12.09 0 018-2.72c3 0 5.19.78 6.67 2.34a7 7 0 011.65 6.2q-.72 4.7-7.69 11.2l-9.93 9.26h16z" fill="#223f94"/>
    <path d="M22.57 82.42a21 21 0 0117-20.84 35.15 35.15 0 01-.22-3.7c0-17.51 13.9-31.75 31-31.75A31.23 31.23 0 01100.05 49a20.08 20.08 0 0110.53-2.95A20.48 20.48 0 01125.83 53c-.27-.36-.54-.71-.83-1.06-3.81-4.62-8.55-7.56-14.13-7.75a20.84 20.84 0 00-9.11 1.48c-5-13.21-17.53-22.09-31.32-22.09-18.56 0-33.65 15.6-33.65 34.76v1.7A23.91 23.91 0 0020 83.15c0 11.5 6.34 17.85 17.35 19.94l4.22.48a19.12 19.12 0 01-2-.32 21.17 21.17 0 01-17-20.83z" fill="#7bc7ee"/>
</svg>
