<svg xmlns="http://www.w3.org/2000/svg" height="443.977" width="1201.333" xml:space="preserve">
	<defs>
		<clipPath id="a" clipPathUnits="userSpaceOnUse">
			<path d="M0 332.983h901V0H0Z"/>
		</clipPath>
	</defs>
	<g clip-path="url(#a)" transform="matrix(1.33333 0 0 -1.33333 0 443.977)">
		<path style="fill:#006d8e;fill-opacity:1;fill-rule:nonzero;stroke:none" d="m0 0 8.183-12.253-1.121-.777c-.805.748-1.465 1.121-1.981 1.121-.518 0-1.968-.69-4.35-2.07-4.939-2.85-9.094-4.772-12.467-5.765-3.374-.991-7.387-1.487-12.037-1.487-9.275 0-16.883 2.196-22.826 6.587-3.504 2.557-6.259 5.73-8.268 9.518-2.326 4.336-3.489 9.115-3.489 14.342 0 7.12 2.083 13.307 6.244 18.561 6.259 7.896 15.72 11.843 28.381 11.843 4.652 0 8.641-.488 11.973-1.464 3.33-.976 7.493-2.9 12.489-5.771 2.382-1.35 3.832-2.025 4.35-2.025.516 0 1.176.373 1.981 1.121l1.121-.775L0 18.432l-1.163.772c.057.457.086.843.086 1.159 0 .828-.36 1.608-1.077 2.336-.719.73-1.995 1.61-3.833 2.641-5.081 2.86-10.464 4.289-16.15 4.289-6.717 0-12.074-1.678-16.063-5.033-4.711-3.929-7.064-9.063-7.064-15.402 0-6.339 2.353-11.472 7.064-15.401 3.989-3.357 9.346-5.033 16.063-5.033 5.686 0 11.069 1.435 16.15 4.305 1.838 1.034 3.114 1.918 3.833 2.65.717.73 1.077 1.514 1.077 2.347 0 .316-.029.689-.086 1.121z" transform="translate(575.501 42.152)"/>
		<path style="fill:#006d8e;fill-opacity:1;fill-rule:nonzero;stroke:none" d="M0 0h36.133c.889 0 1.564.201 2.023.604.459.402.832 1.118 1.121 2.153h1.377v-15.202h-1.377c-.289 1.033-.662 1.752-1.121 2.152-.459.402-1.134.604-2.023.604H-15.59v1.378c1.033.285 1.752.66 2.154 1.119.401.459.602 1.133.602 2.024v49.742c0 .889-.201 1.564-.602 2.025-.402.459-1.121.832-2.154 1.119v1.379H2.756v-1.379c-1.033-.258-1.752-.625-2.152-1.099C.201 46.146 0 45.463 0 44.574Z" transform="translate(608.102 31.644)"/>
		<path style="fill:#006d8e;fill-opacity:1;fill-rule:nonzero;stroke:none" d="M0 0c-5.605 0-10.276-1.663-14.013-4.991-4.425-3.929-6.638-9.077-6.638-15.444 0-6.368 2.213-11.516 6.638-15.445 3.737-3.325 8.437-4.989 14.099-4.989 5.661 0 10.347 1.664 14.054 4.989 2.213 1.981 3.908 4.404 5.088 7.272a20.904 20.904 0 0 1 1.55 7.916c0 6.653-2.213 11.887-6.638 15.701C10.374-1.72 5.661-.059 0 0m-.044 9.991c10.257 0 18.387-2.769 24.391-8.31 6.349-5.8 9.523-13.293 9.523-22.482 0-5.627-1.52-10.882-4.565-15.762C23.355-46.096 13.604-50.86.044-50.86c-10.172 0-18.258 2.77-24.264 8.31-3.217 2.957-5.66 6.504-7.325 10.639-1.465 3.645-2.198 7.478-2.198 11.498 0 5.886 1.509 11.268 4.525 16.149C-23.444 5.067-13.72 9.819-.044 9.991" transform="translate(686.332 71.781)"/>
		<path style="fill:#006d8e;fill-opacity:1;fill-rule:nonzero;stroke:none" d="M0 0v-32.947c0-6.23-1.148-10.894-3.444-13.995-4.135-5.57-12.678-8.355-25.626-8.355-9.361 0-16.523 1.507-21.489 4.522-2.9 1.75-4.91 4.134-6.031 7.147-1.092 2.986-1.637 6.547-1.637 10.681V0c0 .889-.201 1.563-.6 2.024-.402.459-1.121.832-2.154 1.12v1.378h18.345V3.144c-1.018-.258-1.731-.625-2.141-1.099-.41-.474-.615-1.156-.615-2.045v-29.328c0-3.389.187-5.895.56-7.517.373-1.621 1.077-2.977 2.11-4.069 2.758-2.927 7.464-4.392 14.125-4.392 6.692 0 11.414 1.465 14.17 4.392 1.004 1.092 1.694 2.448 2.069 4.069.37 1.622.559 4.128.559 7.517V0c0 .889-.201 1.563-.603 2.024-.403.459-1.119.832-2.155 1.12v1.378H2.756V3.144c-1.033-.288-1.752-.661-2.152-1.12C.201 1.563 0 .889 0 0" transform="translate(789.24 76.218)"/>
		<path style="fill:#006d8e;fill-opacity:1;fill-rule:nonzero;stroke:none" d="M0 0h16.127c5.144 0 9.011.704 11.599 2.109 5.545 3.016 8.32 8.888 8.32 17.616 0 6.315-1.494 11.153-4.484 14.512a13.875 13.875 0 0 1-6.037 3.984c-2.357.79-5.49 1.186-9.398 1.186H0Zm-12.834-5.168v49.742c0 .889-.201 1.564-.602 2.025-.402.459-1.121.832-2.154 1.119v1.379h32.794c7.183 0 12.7-.821 16.55-2.456 5.516-2.383 9.595-6.317 12.239-11.8 2.096-4.307 3.146-9.346 3.146-15.116 0-10.136-3.118-17.859-9.352-23.17-2.615-2.241-5.675-3.841-9.181-4.801-3.503-.964-7.97-1.443-13.402-1.443H-15.59v1.378c1.033.285 1.752.66 2.154 1.119.401.459.602 1.133.602 2.024" transform="translate(816.973 31.644)"/>
		<path style="fill:#006d8e;fill-opacity:1;fill-rule:nonzero;stroke:none" d="m0 0-.026.026-87.085-.003v.003h-42.092v-144.795h42.092v118.682h70.202c6.506 0 11.784-5.278 11.784-11.786 0-.318-.023-.631-.047-.943v-105.953h42.089l.002 106.91C36.919-17.258 20.475-.513 0 0" transform="translate(450.184 250.401)"/>
		<path style="fill:#006d8e;fill-opacity:1;fill-rule:nonzero;stroke:none" d="m0 0-.023.026-87.089-.003v.003h-42.092v-144.795h42.092v118.682h70.202c6.508 0 11.784-5.278 11.784-11.786 0-.318-.02-.631-.046-.943v-105.953H36.92l.002 106.91C36.922-17.258 20.477-.513 0 0" transform="translate(834.437 250.401)"/>
		<path style="fill:#2d2d2d;fill-opacity:1;fill-rule:nonzero;stroke:none" d="m0 0 .024.006-92.128 43.795.014-.04c-3.347 1.638-7.093 2.585-11.07 2.585a25.11 25.11 0 0 1-11.051-2.575l-.013.027L-207.69.187l.009-.01a25.275 25.275 0 0 1-8.234-5.797l27.007-13.296 62.882 29.336 22.866 10.672 65.496-31.09-85.845-41.121 28.739-14.15 85.538 41.78v-117.017l-85.51-41.767v-27.926l96.19 46.756-.03.061c8.619 4.023 14.605 12.739 14.605 22.876v117.017C16.023-12.802 9.377-3.69 0 0" transform="translate(251.49 266.844)"/>
		<path style="fill:#006d8e;fill-opacity:1;fill-rule:nonzero;stroke:none" d="M0 0v91.76l-25.253 12.41V7.834l-69.176 130.329-22.779 10.851a25.112 25.112 0 0 1-2.477-10.851c0-.129.019-.251.019-.375h-.019V20.771l.02-.021c.153-9.829 5.923-18.273 14.234-22.309l-.01-.016 11.009-5.43v96.341s62.599-118.02 65.907-124.168c4.124-7.659 17.629-13.187 17.629-13.187A25.023 25.023 0 0 1 .003-50.511V0Z" transform="translate(148.327 105.715)"/>
		<path style="fill:#2d2d2d;fill-opacity:1;fill-rule:nonzero;stroke:none" d="M0 0c0 20.923-16.96 37.882-37.884 37.882v.003l-4.207-.003h-123.794V11.773h111.29c.241.015.476.036.717.036 6.511 0 11.787-5.278 11.787-11.786v-9.716c0-6.508-5.276-11.785-11.787-11.785-.13 0-.26.015-.39.019h-85.495v-26.109h85.885l.006-.02c6.509-.003 11.781-5.28 11.781-11.786v-9.674c0-6.509-5.276-11.785-11.787-11.785-.218 0-.432.02-.649.032h-111.358v-26.109l128.941.011.006.011c20.194.495 36.462 16.786 36.917 36.992h.011z" transform="translate(679.11 212.54)"/>
	</g>
</svg>
