<svg xmlns="http://www.w3.org/2000/svg" width="200" height="128">
    <path d="M20 80.849a4.309 4.309 0 0 1 4.515-2.038 54.214 54.214 0 0 0 12.377-.074 16.44 16.44 0 0 1 4.069-.03l6.325.522a13.9 13.9 0 0 1 1.938.272 1.374 1.374 0 0 1 1.146 1.075 1.341 1.341 0 0 1-.763 1.511 3.967 3.967 0 0 1-1.834.526l-6.8-.321a50.619 50.619 0 0 0-5.88.166 43.81 43.81 0 0 1-8.138.051c-1.5-.131-3.021-.048-4.531-.074A2.642 2.642 0 0 1 20 81.451zM50.311 54l.224 5.145a25.7 25.7 0 0 1-.1 3.324 24.685 24.685 0 0 0 0 6.942 8.839 8.839 0 0 1-.089 3 2.579 2.579 0 0 1-2.743 2.4l-.1-.009a27.444 27.444 0 0 1-4.924-.718 5.056 5.056 0 0 1-2.823-2.2 31.429 31.429 0 0 1-1.833-2.957 24.058 24.058 0 0 0-3.513-4.917 24.873 24.873 0 0 1-2.179-3.074 6.3 6.3 0 0 0-.479-.77 1.028 1.028 0 0 0-1.809.343 3.64 3.64 0 0 0-.19 1.2l-.149 6.96a3.388 3.388 0 0 1-.26 1.173 3.218 3.218 0 0 0-.07 2.9 1.162 1.162 0 0 1-.506 1.564 1.14 1.14 0 0 1-.332.111 6.915 6.915 0 0 1-5.312-.149 2.393 2.393 0 0 1-1.49-2.255l-.179-5a3.258 3.258 0 0 1 1.062-2.763 4.488 4.488 0 0 0 .845-1.061 2 2 0 0 0-.079-2.409 9.461 9.461 0 0 1-1.84-6.993l.112-4.987.011-1.212a1.506 1.506 0 0 1 1.931-1.7 10.45 10.45 0 0 0 3.7-.69 2.235 2.235 0 0 1 2.965 1.1 2.2 2.2 0 0 1 .1.269c.19.411.337.842.506 1.264a2.533 2.533 0 0 0 1.53 1.583 3.62 3.62 0 0 1 1.8 1.551l4.751 6.847a11.815 11.815 0 0 0 1.675 1.951c.679.616 1.24.424 1.351-.509a22.194 22.194 0 0 0 .2-4.372 48.98 48.98 0 0 1 .076-6.8 2.267 2.267 0 0 1 2.854-2.6l1.675.095a3.235 3.235 0 0 1 3.372 2.684 8.838 8.838 0 0 1 .3 1.939l.015 3.791zm36.194 8.187a15.246 15.246 0 0 1 .432-4.787 6.32 6.32 0 0 1 5.581-4.442 9.1 9.1 0 0 1 6.8 1.415 5.974 5.974 0 0 0 .647.394 1.386 1.386 0 0 0 1.949-.216c.024-.031.047-.062.069-.095a5.648 5.648 0 0 1 6.055-.548 3.39 3.39 0 0 1 1.137 4.068 11.013 11.013 0 0 0-.51 6.812l.477 4.668.4 5.115a7.228 7.228 0 0 1-1.6 4.763 11.867 11.867 0 0 1-3.637 3.113 2.635 2.635 0 0 1-2.585.316 7.7 7.7 0 0 0-5.746-.082 8.579 8.579 0 0 1-4.787.28 6.589 6.589 0 0 1-4.787-3.816 2.027 2.027 0 0 1 .108-2.526 2.153 2.153 0 0 1 2.53-.358l.7.3.679.337c2.116.783 4.325 1.267 6.464 1.963a3.593 3.593 0 0 0 4.355-2.615 3.807 3.807 0 0 0 .083-.461 10.108 10.108 0 0 0 .087-2.843 1.029 1.029 0 0 0-1.5-.979 10.463 10.463 0 0 0-2.191.984 6.3 6.3 0 0 1-4.223.82 5.743 5.743 0 0 1-4.581-3.771 9.474 9.474 0 0 0-1.857-3.251 2.892 2.892 0 0 1-.518-1.675c-.079-.957-.02-1.938-.02-2.883zm15.149 1.529a21.034 21.034 0 0 0-.611-2.775 4.083 4.083 0 0 0-3.859-2.872 4.261 4.261 0 0 0-3.59 3.215 1.488 1.488 0 0 0-.115.435 33.484 33.484 0 0 0 .158 3.747 3.211 3.211 0 0 0 2.526 2.872 4.13 4.13 0 0 0 4.161-1.145 5.541 5.541 0 0 0 1.334-3.478zM56.687 69v-1.216a3.761 3.761 0 0 1 1.234-3.13 3.853 3.853 0 0 1 3.25-.924 5.4 5.4 0 0 1 .749.105 3.532 3.532 0 0 0 3.012-.635 7.532 7.532 0 0 1 4.226-1.453 9.081 9.081 0 0 0 2.072-.354 2.5 2.5 0 0 0 1.836-3.041 1.589 1.589 0 0 0-1.754-1.508 9.851 9.851 0 0 0-6.977 2.393 1.585 1.585 0 0 1-1.042.5 20.665 20.665 0 0 1-4.322-.433 1.937 1.937 0 0 1-.635-3.657 10.8 10.8 0 0 1 8.175-2.48 14.5 14.5 0 0 0 4.821-.082A7.575 7.575 0 0 1 79.619 59a5.127 5.127 0 0 1-.2 2.078 6.14 6.14 0 0 0 .239 4.416 3.953 3.953 0 0 1 .107 2.2 8.737 8.737 0 0 0 .027 3.59 2.111 2.111 0 0 1-2.272 2.874c-.805.015-1.615-.015-2.42.035a2.881 2.881 0 0 1-2.489-.8 1.329 1.329 0 0 0-.932-.467 1.346 1.346 0 0 0-.984.347 2.671 2.671 0 0 1-.891.558L62.522 75.1a6.969 6.969 0 0 1-3.076-.625 3.964 3.964 0 0 1-2.76-4.088l.009-1.371zm10.28 1.932a2.558 2.558 0 0 0 .75-.064l5.395-2.3a1.223 1.223 0 0 0 .139-2.065 3.5 3.5 0 0 0-3.861-1.356 7.107 7.107 0 0 1-1.647.125 12.5 12.5 0 0 0-1.948.194 2.548 2.548 0 0 0-1.845 3.052 2.286 2.286 0 0 0 2.114 2.337 8.536 8.536 0 0 0 .9.072zm87-7.273a15.706 15.706 0 0 1-1.642 6.271 7.819 7.819 0 0 1-2.847 2.872 2.933 2.933 0 0 1-2.593.41 2.52 2.52 0 0 0-2.77.678 2.875 2.875 0 0 1-2.9.719 20.553 20.553 0 0 0-4.059-.368 4.355 4.355 0 0 1-2.769-1.014l-3.183-2.3a2.527 2.527 0 0 1-1.13-2.03 13.437 13.437 0 0 0-1.027-4.548 6.042 6.042 0 0 1 .994-5.584 1.469 1.469 0 0 1 .83-.6 4.4 4.4 0 0 0 2.82-2.366 3.374 3.374 0 0 1 4.1-2 2.165 2.165 0 0 0 .9.036 23.1 23.1 0 0 1 6.591.038 8.114 8.114 0 0 1 7.342 4.746 12.23 12.23 0 0 1 1.346 5.044zm-8.312.819a7.571 7.571 0 0 0-.957-4.52 3.831 3.831 0 0 0-6.27-.85 8.222 8.222 0 0 0-.649 9.159 4.635 4.635 0 0 0 4.771 1.511 4.261 4.261 0 0 0 3.012-3.787l.094-1.516zm23.1-11.8l5.1.593a9.756 9.756 0 0 1 2.887 1.26 3.387 3.387 0 0 1 1.173 1.339 1.436 1.436 0 0 1-1.044 2.281 6.612 6.612 0 0 1-5.966-.435 6.82 6.82 0 0 0-2.125-.758 3.041 3.041 0 0 0-2.58.582 1.455 1.455 0 0 0-.02 2.53 1.735 1.735 0 0 0 .652.376 21.043 21.043 0 0 0 5.45 1.166 5.11 5.11 0 0 1 3.148.876 27.055 27.055 0 0 0 2.394 1.279A3.632 3.632 0 0 1 180 67.293c-.12 3.413-1.437 5.6-4.8 6.177a9.4 9.4 0 0 0-3.605 1.043 2.783 2.783 0 0 1-1.17.258l-3.318.283A18.133 18.133 0 0 1 159.759 73a4.561 4.561 0 0 1-.683-.6 1.878 1.878 0 0 1 .929-3.421 14.548 14.548 0 0 1 4.2-.308 3.944 3.944 0 0 1 1.889 1.153 4.915 4.915 0 0 0 4.07 1.236 5.054 5.054 0 0 0 1.857-.593 1.7 1.7 0 0 0 .939-1.613 1.676 1.676 0 0 0-1.132-1.481c-.272-.131-.574-.19-.853-.307a25.091 25.091 0 0 1-2.751-1.223 6.444 6.444 0 0 0-4.051-.912 5.028 5.028 0 0 1-5.627-3.353 5.747 5.747 0 0 1 1.93-6.507 9.342 9.342 0 0 1 6.145-2.2 8.728 8.728 0 0 0 2.132-.209zm-45.7 9.118a10.011 10.011 0 0 0 .039 1.935l.581 7.831a2.906 2.906 0 0 1-2.562 3.214 2.864 2.864 0 0 1-.79-.019 4.673 4.673 0 0 1-4.208-6.918 6.938 6.938 0 0 0 .371-4.428l-.939-6.418a4.554 4.554 0 0 1 .138-1.647 2.318 2.318 0 0 1 2.354-1.963 17.123 17.123 0 0 1 2.873.055 2.587 2.587 0 0 1 2.548 2.812v1.819c.067.021-.253 2.495-.4 3.729zm-3.354-16.913h.453a2.633 2.633 0 0 1 2.34 4.276 1.671 1.671 0 0 1-1.481.894 18.872 18.872 0 0 1-3.013-.129 2.058 2.058 0 0 1-1.538-.746 2.112 2.112 0 0 1-.488-1.632 2.72 2.72 0 0 1 2.363-2.7c.45-.04.9 0 1.356 0v.042z"/>
</svg>
