<svg xmlns="http://www.w3.org/2000/svg" width="200" height="128">
    <path d="M43.585 41.827A23.585 23.585 0 1 0 67.17 65.412a23.584 23.584 0 0 0-23.585-23.585zm-16.9 15.849a1.886 1.886 0 1 1 1.885 1.885 1.887 1.887 0 0 1-1.885-1.885zm.32 5.176a1.886 1.886 0 1 1 1.885 1.886 1.886 1.886 0 0 1-1.885-1.886zm1.154 5.485a1.886 1.886 0 1 1 1.885 1.886 1.886 1.886 0 0 1-1.885-1.886zm4.468 6.8a1.886 1.886 0 1 1 1.885-1.885 1.887 1.887 0 0 1-1.885 1.884zm8.719-27.607a1.886 1.886 0 1 1 1.885-1.886 1.888 1.888 0 0 1-1.885 1.885zm4.959 1.737a1.886 1.886 0 1 1 1.885-1.887 1.888 1.888 0 0 1-1.885 1.886zM52.818 82a1.886 1.886 0 1 1 1.882-1.882A1.887 1.887 0 0 1 52.818 82zm3.428-4.057a1.886 1.886 0 1 1 1.886-1.885 1.886 1.886 0 0 1-1.886 1.889z" fill="#008cc1"/>
    <path d="M56.6 72.56a12.77 12.77 0 1 1 12.77-12.77A12.784 12.784 0 0 1 56.6 72.56zm0-25.14a12.37 12.37 0 1 0 12.37 12.37A12.384 12.384 0 0 0 56.6 47.42zM39.38 95.905A10.485 10.485 0 1 1 49.865 85.42 10.5 10.5 0 0 1 39.38 95.905zm0-20.569A10.085 10.085 0 1 0 49.464 85.42 10.095 10.095 0 0 0 39.38 75.336zM30.913 54.208a7.057 7.057 0 1 1 7.056-7.057 7.065 7.065 0 0 1-7.056 7.057zm0-13.712a6.656 6.656 0 1 0 6.656 6.655 6.663 6.663 0 0 0-6.656-6.651z" fill="#fff"/>
    <path d="M74.964 51.585h2.285v4.434c1.1-2.7 3.382-4.8 8.045-4.8 5.3 0 8.867 3.565 8.867 9.187v14.216h-2.286V60.864c0-4.617-2.833-7.5-7.084-7.5-4.617 0-7.542 3.565-7.542 8.867v12.391h-2.285zm23.265 11.564c0-7.176 4.891-12.112 11.244-12.112 6.262 0 10.7 5.165 10.7 11.472 0 0 0 .686-.046 1.143h-19.659c.138 5.531 3.84 9.462 9.1 9.462 4.3 0 7.268-1.829 8.639-3.566v2.7a12.075 12.075 0 0 1-8.639 3.017c-6.627 0-11.335-4.845-11.335-11.976v-.137zm19.517-1.549a8.33 8.33 0 0 0-8.273-8.41 8.829 8.829 0 0 0-8.913 8.41zm18.1-10.6a12.113 12.113 0 1 1-12.112 12.1 11.906 11.906 0 0 1 12.112-12.109zm0 22.077a9.965 9.965 0 1 0-9.827-9.964 9.675 9.675 0 0 0 9.827 9.955zm24.18-21.483h2.559L152.8 72.428h14.215v-7.542h2.385v18.558h-2.377v-8.822h-17.83zm17.186 0h2.288v26.227c0 5.165-2.971 6.217-5.85 6.217a7.108 7.108 0 0 1-1.509-.137v-2.149a11.06 11.06 0 0 0 1.737.137c2.331 0 3.337-1.142 3.337-4.068zm-.5-6.17a1.646 1.646 0 1 1 1.646 1.6 1.639 1.639 0 0 1-1.649-1.609z" fill="#101010"/>
    <path d="M30.456 57.676a1.886 1.886 0 1 1-1.886-1.886 1.887 1.887 0 0 1 1.886 1.886m.32 5.176a1.886 1.886 0 1 1-1.886-1.885 1.888 1.888 0 0 1 1.886 1.885m1.154 5.485a1.886 1.886 0 1 1-1.886-1.885 1.888 1.888 0 0 1 1.886 1.885m2.582 4.914a1.886 1.886 0 1 1-1.885-1.886 1.886 1.886 0 0 1 1.885 1.886M54.7 80.118a1.886 1.886 0 1 1-1.886-1.885 1.888 1.888 0 0 1 1.886 1.885m3.428-4.056a1.886 1.886 0 1 1-1.886-1.886 1.887 1.887 0 0 1 1.886 1.886M48.19 47.38a1.886 1.886 0 1 1-1.885-1.88 1.887 1.887 0 0 1 1.885 1.88m-4.959-1.737a1.886 1.886 0 1 1-1.885-1.885 1.888 1.888 0 0 1 1.885 1.885" fill="#fff"/>
    <path d="M37.569 47.151a6.656 6.656 0 1 1-6.656-6.651 6.664 6.664 0 0 1 6.656 6.651zM49.464 85.42A10.084 10.084 0 1 1 39.38 75.336 10.1 10.1 0 0 1 49.464 85.42zM68.97 59.79A12.37 12.37 0 1 1 56.6 47.42a12.383 12.383 0 0 1 12.37 12.37z" fill="#65b144"/>
</svg>
