<svg xmlns="http://www.w3.org/2000/svg" width="200" height="128">
    <path fill="#1f222f" d="M77.31 69a2 2 0 00-2.14-2.28 2.06 2.06 0 00-2.32 2.16v7.2a1.58 1.58 0 01-3.15 0V65.24a1.38 1.38 0 011.47-1.44c.75 0 1.12.51 1.28 1.2a4.15 4.15 0 013.21-1.39c3 0 4.81 2 4.81 5.48v7a1.48 1.48 0 01-1.59 1.53 1.47 1.47 0 01-1.57-1.53V69z"/>
    <path fill="#1f222f" d="M86.73 71.78c-1 0-2 .2-2 1.4s1.2 1.57 2.28 1.57a3.58 3.58 0 001.79-.43 3.87 3.87 0 011.9-.75A1.3 1.3 0 0192 75c0 2.16-3 2.83-4.89 2.83-2.52 0-5.53-.79-5.53-4A3.28 3.28 0 0184 70.51a3 3 0 01-2.22-3.15c0-3 2.87-3.75 5.29-3.75 1.75 0 4.85.61 4.85 2.71a1.29 1.29 0 01-1.37 1.42c-1.22 0-1.77-1.14-3.86-1.14-.78 0-1.94.41-1.94 1.51s.9 1.38 1.9 1.38h.43c.69 0 1.34.23 1.34 1.14s-.63 1.16-1.34 1.16h-.38z"/>
    <path fill="#1f222f" d="M103.85 76.05a1.49 1.49 0 01-1.58 1.55 1.48 1.48 0 01-1.57-1.55v-2.36c0-1.69-.81-1.88-1.69-1.88h-.61c-.61 0-1.1-.28-1.1-1.25s.51-1.11 1.1-1.11h.6c.88 0 1.69-.16 1.69-1.34s-1-1.6-2.22-1.6c-1.73 0-2.26.36-2.26 1.32v8.22a1.49 1.49 0 01-1.58 1.55 1.48 1.48 0 01-1.57-1.55v-9.28c0-2.4 1.71-3.16 5.25-3.16 2.67 0 5.27.78 5.27 3.91a2.92 2.92 0 01-2.2 3 3 3 0 012.43 3.18v2.36z"/>
    <path fill="#1f222f" d="M105.36 66.75c0-2.38 1.73-3.14 5.38-3.14 4.11 0 6.81 2.57 6.81 7s-2.7 7.23-6.81 7.23c-2.81 0-5.38-.55-5.38-3zm3.15 6.65c0 .86.7 1.2 2.18 1.2a3.66 3.66 0 003.68-4 3.55 3.55 0 00-3.66-3.86c-1.75 0-2.2.32-2.2 1.24v5.42z"/>
    <path fill="#1f222f" d="M117.76 76a1.6 1.6 0 111.6 1.61 1.55 1.55 0 01-1.6-1.61z"/>
    <path fill="#1f222f" d="M129.28 66c.38-1.41.67-2.22 1.79-2.22s1.55.83 1.55 1.71a18.32 18.32 0 01-1.47 5.23c-1.06 2.62-2.71 6.86-4.8 6.86s-3.77-4.22-4.81-6.86a17.56 17.56 0 01-1.46-5.23 1.51 1.51 0 011.55-1.71c1.12 0 1.48.81 1.79 2.22a23.77 23.77 0 002.91 7.61 24.66 24.66 0 002.95-7.61z"/>
    <path fill="#1f222f" d="M133.74 65.36a1.57 1.57 0 013.13 0v10.69a1.57 1.57 0 11-3.13 0z"/>
    <path fill="#1f222f" d="M143.24 77.84c-1.79 0-5-.59-5-2.79a1.41 1.41 0 011.45-1.46c1 0 2.22 1.22 3.89 1.22.89 0 2-.39 2-1.45 0-1.32-1.91-1.36-2.91-1.54-2.44-.39-4.29-1.39-4.29-4.2 0-3.11 2.7-4 5.25-4 1.63 0 4.78.43 4.78 2.59a1.39 1.39 0 01-1.4 1.55c-1 0-1.65-1.27-3.73-1.27-.85 0-1.93.35-1.93 1.37 0 1.38 2 1.4 3.21 1.6a6.2 6.2 0 012.9 1.21 3.5 3.5 0 011.08 2.7c0 3.44-2.79 4.48-5.3 4.48z"/>
    <path fill="#1f222f" d="M150 65.36a1.57 1.57 0 013.13 0v10.69a1.57 1.57 0 11-3.13 0z"/>
    <path fill="#1f222f" d="M154.62 70.6c0-4.42 2.63-7 6.63-7s6.64 2.57 6.64 7-2.63 7.24-6.64 7.24-6.63-2.79-6.63-7.24zm10.26 0a3.55 3.55 0 00-3.63-3.89c-2.17 0-3.6 1.55-3.6 3.89s1.43 3.94 3.6 3.94 3.63-1.54 3.63-3.94z"/>
    <path fill="#1f222f" d="M176.83 69a2 2 0 00-2.14-2.28 2.06 2.06 0 00-2.32 2.16v7.2a1.57 1.57 0 01-3.14 0V65.24a1.38 1.38 0 011.47-1.44c.75 0 1.12.51 1.28 1.2a4.13 4.13 0 013.2-1.39c3 0 4.82 2 4.82 5.48v7a1.49 1.49 0 01-1.59 1.53 1.47 1.47 0 01-1.57-1.53V69z"/>
    <path fill="#1f222f" d="M69.67 54.42s-11.23-.39-8.53-.8c0 0 11.63-6.88 11.36-6.75l-18.78 2.87s11.92-6.23 11.13-6.23L39.26 48a20.24 20.24 0 002.12-4.47c.44-1.81 0-2.33 0-2.33S23.2 51.33 21.17 52.39s-1.06 3.5 0 8.91c1 5.07 4.67 12.27 4.67 12.27L26 72a1.36 1.36 0 01.78.19 5.37 5.37 0 01.3 1c.08.3.16.64.26 1a7 7 0 00.37 1 3.91 3.91 0 00.49.89 6.22 6.22 0 0010.8-.9 10.89 10.89 0 00.74-2.07 7.66 7.66 0 01.32-1c.1-.17.39-.22.47-.23s.37 0 .5.23.19.57.31 1a11.15 11.15 0 00.74 2.07 6.22 6.22 0 0010.42 1.43c.14-.17.27-.35.4-.54a4.09 4.09 0 00.49-.89 5.5 5.5 0 00.35-1c.11-.36.2-.73.28-1a5 5 0 01.28-.92 1.33 1.33 0 01.88-.19v.71c2.73.09 5.31-10.86 5.31-10.86l-3 1.68c1.4-3.35 12.05-9.08 12.05-9.08zM33.36 67.66a4.93 4.93 0 11-4.93 4.92 4.93 4.93 0 014.93-4.92zm14.42 0a4.93 4.93 0 11-4.92 4.92 4.93 4.93 0 014.92-4.92zm-6.92-9.09c8.93 0 13.66 3.44 13.66 3.44l.27 2.47.34 5.52a2.81 2.81 0 01-1.71-.69 13 13 0 00-1.77-1.55l-.09-.07-.18-.14h-.05l-.1-.06a6.23 6.23 0 00-7.86.77c-.43.41-.82.86-1.2 1.28l-.26.29a.78.78 0 01-.89.31 2.84 2.84 0 00-.92 0 .8.8 0 01-.9-.31l-.2-.37c-.38-.42-.77-.87-1.2-1.27a6.25 6.25 0 00-4.42-1.83 6.11 6.11 0 00-3.48 1c-.13.09-.25.18-.38.29a12.35 12.35 0 00-1.8 1.54 2.57 2.57 0 01-1.56.67l.69-8.72s5.12-2.63 14.05-2.63z"/>
</svg>
