<svg xmlns="http://www.w3.org/2000/svg" viewBox="-9.2 -8.2 478.4 102.4">
	<defs>
		<clipPath id="a" clipPathUnits="userSpaceOnUse">
			<path d="M.602 0h3450.5v631.012H.602z"/>
		</clipPath>
	</defs>
	<path fill="#100f0d" d="M445.357 43.802v-.19c0-8.655-5.84-14.394-12.745-14.394-6.895 0-12.641 5.74-12.641 14.393v.191c0 8.661 5.746 14.405 12.64 14.405 6.906 0 12.746-5.65 12.746-14.405zM405.382 17.64h14.787v7.486c3.596-4.86 8.562-8.454 16.239-8.454 12.16 0 23.727 9.53 23.727 26.94v.191c0 17.414-11.374 26.946-23.727 26.946-7.881 0-12.747-3.598-16.239-7.781v22.366h-14.787V17.639M111.86 1.207h13.822l31.897 42.404V1.207h14.783v68.574h-12.738l-32.97-43.296v43.296H111.86V1.207m104.452 38.417c-.87-6.623-4.763-11.095-10.98-11.095-6.137 0-10.128 4.396-11.29 11.095zm-36.762 4.378v-.2c0-14.88 10.604-27.131 25.782-27.131 17.402 0 25.374 13.52 25.374 28.304 0 1.163-.086 2.532-.196 3.89h-36.278c1.47 6.709 6.13 10.217 12.748 10.217 4.963 0 8.555-1.558 12.643-5.355l8.453 7.49c-4.855 6.033-11.861 9.726-21.288 9.726-15.663 0-27.238-10.988-27.238-26.94m60.39 10.98V30.281h-6.223V17.64h6.222V4.32h14.775v13.32h12.266v12.64h-12.266v22.277c0 3.404 1.468 5.061 4.769 5.061 2.721 0 5.152-.68 7.3-1.859v11.872c-3.115 1.854-6.724 3.019-11.687 3.019-9.035 0-15.157-3.603-15.157-15.668m144.635-11.18v-.192c0-8.654-5.837-14.393-12.734-14.393-6.901 0-12.638 5.74-12.638 14.393v.191c0 8.661 5.737 14.405 12.638 14.405 6.897 0 12.734-5.65 12.734-14.405zm-39.96-26.164h14.781v7.486c3.596-4.86 8.552-8.454 16.241-8.454 12.161 0 23.727 9.53 23.727 26.94v.191c0 17.414-11.374 26.946-23.727 26.946-7.877 0-12.746-3.598-16.241-7.781v22.366h-14.78V17.639"/>
	<g fill="#100f0d" clip-path="url(#a)" transform="matrix(.13333 0 0 -.13333 0 85.333)">
		<path d="m2359.53 330.352-67.81 165.738-67.88-165.738zm-116.88 300.66h100.94l213.37-514.371h-117.04L2392.9 231.25h-202.44l-46.7-114.609h-114.47l213.36 514.371M0 630.941v-514.3h240v308.578h137.141V116.641h240v514.3H0"/>
	</g>
</svg>
