<svg xmlns="http://www.w3.org/2000/svg" height="85.333" width="461.333" xml:space="preserve">
	<defs>
		<clipPath id="a" clipPathUnits="userSpaceOnUse">
			<path d="M.602 0h3450.5v631.012H.602Z"/>
		</clipPath>
	</defs>
	<path style="fill:#100f0d;fill-opacity:1;fill-rule:nonzero;stroke:none" d="M3340.26 311.488v1.434c0 64.906-43.8 107.949-95.59 107.949-51.71 0-94.81-43.043-94.81-107.949v-1.434c0-64.957 43.1-108.039 94.81-108.039 51.79 0 95.59 42.371 95.59 108.039zm-299.82 196.231h110.91V451.57c26.97 36.45 64.21 63.41 121.79 63.41 91.21 0 177.96-71.48 177.96-202.058v-1.434c0-130.609-85.31-202.097-177.96-202.097-59.11 0-95.6 26.988-121.79 58.359V0h-110.91v507.719" transform="matrix(.13333 0 0 -.13333 0 85.333)"/>
	<path style="fill:#100f0d;fill-opacity:1;fill-rule:nonzero;stroke:none" d="M838.969 630.961h103.672l239.229-318.039v318.039h110.88v-514.32h-95.54l-247.28 324.73v-324.73H838.969v514.32" transform="matrix(.13333 0 0 -.13333 0 85.333)"/>
	<path style="fill:#100f0d;fill-opacity:1;fill-rule:nonzero;stroke:none" d="M1622.38 342.828c-6.53 49.672-35.72 83.211-82.35 83.211-46.03 0-75.96-32.969-84.68-83.211zm-275.72-32.84v1.5c0 111.602 79.53 203.492 193.37 203.492 130.52 0 190.31-101.402 190.31-212.289 0-8.722-.65-18.992-1.47-29.171h-272.09c11.02-50.321 45.97-76.629 95.61-76.629 37.22 0 64.16 11.679 94.82 40.16l63.4-56.172c-36.41-45.25-88.96-72.949-159.66-72.949-117.48 0-204.29 82.41-204.29 202.058" transform="matrix(.13333 0 0 -.13333 0 85.333)"/>
	<path style="fill:#100f0d;fill-opacity:1;fill-rule:nonzero;stroke:none" d="M1799.59 227.629v185.269h-46.67v94.821h46.67v99.883h110.81v-99.883h92v-94.821h-92V245.82c0-25.531 11.01-37.961 35.77-37.961 20.41 0 38.64 5.102 54.75 13.942v-89.039c-23.36-13.903-50.43-22.641-87.65-22.641-67.77 0-113.68 27.02-113.68 117.508" transform="matrix(.13333 0 0 -.13333 0 85.333)"/>
	<path style="fill:#100f0d;fill-opacity:1;fill-rule:nonzero;stroke:none" d="M2884.38 311.488v1.434c0 64.906-43.78 107.949-95.51 107.949-51.76 0-94.79-43.043-94.79-107.949v-1.434c0-64.957 43.03-108.039 94.79-108.039 51.73 0 95.51 42.371 95.51 108.039zm-299.71 196.231h110.86V451.57c26.97 36.45 64.14 63.41 121.81 63.41 91.21 0 177.96-71.48 177.96-202.058v-1.434c0-130.609-85.31-202.097-177.96-202.097-59.08 0-95.6 26.988-121.81 58.359V0h-110.86v507.719" transform="matrix(.13333 0 0 -.13333 0 85.333)"/>
	<g clip-path="url(#a)" transform="matrix(.13333 0 0 -.13333 0 85.333)">
		<path style="fill:#100f0d;fill-opacity:1;fill-rule:nonzero;stroke:none" d="m2359.53 330.352-67.81 165.738-67.88-165.738zm-116.88 300.66h100.94l213.37-514.371h-117.04L2392.9 231.25h-202.44l-46.7-114.609h-114.47l213.36 514.371"/>
		<path style="fill:#100f0d;fill-opacity:1;fill-rule:nonzero;stroke:none" d="M0 630.941v-514.3h240v308.578h137.141V116.641h240v514.3H0"/>
	</g>
</svg>
