<svg xmlns="http://www.w3.org/2000/svg" width="200" height="128">
    <radialGradient id="a" cx="-118.23" cy="307.32" r="1.09" gradientTransform="matrix(0 38.3 44.12 0 -13519.04 4573.28)" gradientUnits="userSpaceOnUse">
        <stop offset="0" stop-color="#20c6b7"/>
        <stop offset="1" stop-color="#4d9abf"/>
    </radialGradient>
    <path d="M78.11 58.14l.13 2.4a7.45 7.45 0 016-2.78q6.48 0 6.59 7.42V78.9h-4.62V65.45a4.24 4.24 0 00-.85-2.92 3.57 3.57 0 00-2.79-1 4.49 4.49 0 00-4.19 2.55V78.9h-4.65V58.14zm26.61 21.14a9.61 9.61 0 01-7.17-2.79 10.14 10.14 0 01-2.75-7.43v-.58a12.43 12.43 0 011.2-5.55 9.17 9.17 0 013.36-3.81 8.84 8.84 0 014.82-1.36 8.14 8.14 0 016.54 2.7q2.28 2.72 2.28 7.66V70H99.49a6.22 6.22 0 001.72 4.07 5.16 5.16 0 003.79 1.49 6.27 6.27 0 005.2-2.59l2.51 2.4a8.47 8.47 0 01-3.32 2.89 10.45 10.45 0 01-4.66 1zm-.56-17.78a3.94 3.94 0 00-3.09 1.34 7.07 7.07 0 00-1.5 3.74h8.86v-.34a5.71 5.71 0 00-1.24-3.54 3.9 3.9 0 00-3.03-1.2zm18.3-8.4v5h3.66v3.5h-3.66v11.58a2.56 2.56 0 00.47 1.72 2.18 2.18 0 001.68.53 7.39 7.39 0 001.62-.19v3.6a11.2 11.2 0 01-3.06.44q-5.36 0-5.36-5.92V61.59h-3.41v-3.45h3.41v-5zm12.16 25.8H130V49.43h4.65zm10 0H140V58.14h4.65zm-4.94-26.15a2.49 2.49 0 01.68-1.78 2.53 2.53 0 011.94-.71 2.57 2.57 0 011.95.71 2.45 2.45 0 01.69 1.78 2.42 2.42 0 01-.69 1.76 2.64 2.64 0 01-1.95.7 2.6 2.6 0 01-1.94-.7 2.45 2.45 0 01-.68-1.76zm11.65 26.15V61.59h-3.16v-3.45h3.16v-1.9a7.11 7.11 0 011.91-5.33A7.3 7.3 0 01158.6 49a10.62 10.62 0 012.6.34l-.11 3.66a8.86 8.86 0 00-1.78-.15q-3.33 0-3.33 3.43v1.84h4.21v3.45H156V78.9zm19.5-6.67L175 58.14h5l-8.23 23.91c-1.26 3.49-3.41 5.24-6.43 5.24a8.34 8.34 0 01-2.24-.35v-3.61l.88.06a4.51 4.51 0 002.65-.64 4.34 4.34 0 001.37-2.16l.67-1.78-7.28-20.67h5z" fill="#0e1e25" fill-rule="evenodd"/>
    <path d="M50.3 59.4a.09.09 0 010-.1l.84-5.16 4 4-4.12 1.75a2.18 2.18 0 00-.72-.49zm5.7-.31l4.23 4.23a5.46 5.46 0 011.47 1.83.86.86 0 01.06.23l-10.07-4.29s-.09 0-.09-.08 0-.06.09-.08zm5.59 7.64a7.94 7.94 0 01-1.36 1.56l-4.73 4.77-6.17-1.29c-.06 0-.12 0-.12-.07a1.82 1.82 0 00-.71-1.3.09.09 0 010-.1l1.16-7.12c0-.06 0-.12.07-.12a1.91 1.91 0 001.27-.77.15.15 0 01.11 0l10.53 4.45zm-7.19 7.43L46.56 82l1.34-8.25h.07a2.09 2.09 0 00.76-.56.15.15 0 01.1-.07l5.52 1.14zm-9.5 9.5l-.89.88-9.77-14.12a.09.09 0 010-.06l.09-.14.06-.06c.06-.06.05 0 .08 0L45.3 72.4a.13.13 0 01.08 0 1.91 1.91 0 001.12 1.28v.09c-.12.83-1.29 7.96-1.6 9.89zm-1.85 1.84a4.13 4.13 0 01-1.47 1.13 2.28 2.28 0 01-1.32 0c-.5-.16-.94-.6-1.82-1.48l-9.82-9.82 2.57-4a.12.12 0 01.1 0 2.75 2.75 0 001.79-.09.06.06 0 01.08 0l9.82 14.26zM27.68 74.39l-2.26-2.25 4.45-1.9s.06 0 .07.07l.15.2-2.45 3.82zm-3.25-3.25l-2.85-2.85a14 14 0 01-1.08-1.14L29.16 69c.06 0 .11 0 .11.07s-.06.08-.11.1zM20 65.69a1.91 1.91 0 01.1-.54c.16-.51.6-1 1.48-1.83l3.64-3.65q2.52 3.66 5.05 7.3s.07.09 0 .12a2.94 2.94 0 00-.43.57.13.13 0 01-.05.07h-.05l-9.77-2zm6.2-7l4.9-4.9 3.64 1.54 2.49 1.06a.16.16 0 01.08.06v.06a2.2 2.2 0 00.57 2v.12l-5 7.71v.06h-.09a2.39 2.39 0 00-.59-.08 3.81 3.81 0 00-.57.06h-.05l-.05-.06-5.33-7.62zm5.89-5.89l6.35-6.35c.88-.88 1.32-1.32 1.82-1.48a2.28 2.28 0 011.32 0c.51.16 1 .6 1.83 1.48l1.37 1.38-4.51 7-.05.05h-.09a2.3 2.3 0 00-2.1.4h-.11c-.59-.28-5.17-2.19-5.83-2.47zm13.65-4l4.17 4.2-1 6.22v.06h-.06a2.25 2.25 0 00-.6.3l-6.35-2.7s-.09 0-.09-.07a2.34 2.34 0 00-.34-1 .19.19 0 010-.16zm-4.29 9.4l5.95 2.52a.18.18 0 01.09.06v.06a1.35 1.35 0 000 .29v.17s0 .06-.08.07L34.1 67H34v-.12l5-7.6c0-.05.06-.1.11-.1h.31a2.25 2.25 0 001.85-1 .11.11 0 01.18.01zm-6.82 10L48 62.5l.2.16s.05 0 .05.06l-1.05 7.12c0 .06 0 .12-.07.12a1.87 1.87 0 00-1.49.92l-.05.06a.12.12 0 01-.08 0l-10.7-2.16s-.17-.57-.18-.57z" fill="url(#a)"/>
</svg>
