<svg xmlns="http://www.w3.org/2000/svg" viewBox="-16.72 -16.22 843.44 782.94">
	<path fill="#293b89" d="M184.169 662.998c5.086-19.99 21.231-32.65 42.579-32.65 20.988 0 37.25 12.534 42.337 32.65zm111.738 14.53c0-13.165-2.729-25.333-8.446-36.378-5.71-11.177-14.024-19.866-24.702-26.324-10.677-6.333-22.721-9.563-36.011-9.563-13.033 0-24.952 3.106-35.629 9.313-10.802 6.21-19.242 14.898-25.326 25.95-6.084 10.928-9.062 23.095-9.062 36.378 0 13.283 3.104 25.45 9.188 36.502 6.083 11.053 14.522 19.617 25.2 25.825 10.677 6.21 22.596 9.314 35.629 9.314 23.914 0 42.39-8.884 55.706-28.594l-20.591-13.721v-.015c-8.09 11.872-18.908 16.63-35.115 16.63-22.221 0-39.233-13.907-43.203-35.264h111.738c.5-4.966.624-7.573.624-10.053M395.42 632.5v-24.335h-40.472v-31.902l-25.7-.124v32.026h-22.721V632.5h22.72v63.896c0 30.043 19.492 49.168 48.789 49.168h17.384V720.73h-14.647c-16.513 0-25.825-8.812-25.825-24.957v-63.27h40.472m120.179-24.336v137.4h24.96v-137.4h-24.96m156.117 92.2c-1.49-18.618-11.551-28.055-24.834-32.4-6.46-1.988-15.022-3.979-26.2-5.835l-8.439-1.364c-1.99-.375-4.47-.999-7.324-1.616-4.969-1.248-7.324-2.612-10.928-5.217-2.113-1.615-3.478-4.344-3.478-8.44 0-9.187 8.938-16.268 26.074-16.268 14.305 0 23.509 6.145 26.598 17.103l24.171-5.833c-5.678-21.996-24.663-35.233-50.27-35.233-29.928 0-51.9 16.021-51.9 40.972 0 6.46.992 11.919 3.105 16.263 2.481 4.97 4.469 8.198 8.19 11.053 2.614 1.988 4.477 3.479 5.717 4.344 1.615.999 3.596 1.864 5.71 2.613 4.345 1.607 7.822 2.73 13.158 4.095 3.977.865 8.572 1.738 13.533 2.605 6.458 1.114 11.917 2.238 16.512 3.479 5.093 1.24 7.573 2.604 11.177 5.585 2.605 2.237 3.969 5.342 3.969 9.81 0 10.18-10.304 17.754-27.93 17.754-15.038 0-25.529-6.857-28.991-18.61l-24.921 5.646c5.857 23.672 25.989 37.673 53.163 37.673 31.908 0 54.38-16.761 54.38-43.46 0-.991-.126-2.606-.242-4.719M542.975 574.6c0 8.228-6.67 14.898-14.899 14.898-8.228 0-14.898-6.67-14.898-14.898s6.67-14.898 14.898-14.898c8.23 0 14.9 6.67 14.9 14.898m-98.795 83.331c0-16.136 9.308-24.945 25.811-24.945h23.605v-24.82h-26.34c-29.28 0-48.76 19.114-48.76 49.143v88.256l25.684-.124v-87.51m248.263 80.113c0-5.65 4.181-9.38 9.266-9.38 5.087 0 9.268 3.73 9.268 9.38 0 5.425-4.181 9.381-9.268 9.381-5.085 0-9.266-3.956-9.266-9.38m69.842-10.285v-7.006h-14.58c-9.604 0-12.204 3.616-12.204 8.024 0 5.084 4.294 8.362 11.527 8.362 6.893 0 12.884-3.164 15.257-9.38zm14.127-16.5v35.373h-13.336v-7.346c-3.39 5.2-9.945 8.138-18.986 8.138-13.788 0-22.49-7.573-22.49-18.084 0-10.057 6.78-17.969 25.09-17.969h15.595v-.903c0-8.25-4.973-13.11-15.031-13.11-6.782 0-13.788 2.26-18.308 5.99l-5.537-10.285c6.441-4.972 15.82-7.458 25.54-7.458 17.404 0 27.463 8.25 27.463 25.654m18.086-24.976h14.126v60.349H794.5zm-1.921-18.42c0-4.748 3.842-8.477 9.04-8.477 5.2 0 9.042 3.504 9.042 8.136 0 4.973-3.73 8.816-9.041 8.816-5.199 0-9.041-3.73-9.041-8.476m-689.757 83.11v-85.411c0-20.606-16.764-37.37-37.37-37.37-20.605 0-37.37 16.764-37.37 37.37v85.411H0v-85.411c0-36.148 29.303-65.452 65.451-65.452 36.148 0 65.45 29.304 65.45 65.452v85.411h-28.08"/>
	<path fill="#ec3368" d="M474.201 384.52h-37.944V269.104c0-27.843-22.653-50.496-50.497-50.496s-50.496 22.653-50.496 50.496v115.414h-37.946V269.105c0-48.845 39.598-88.443 88.442-88.443 48.845 0 88.441 39.598 88.441 88.443zM650.948 16.087c-22.917-20.992-62.048-21.492-85.46-1.05-19.21 16.771-25.884 41.997-20.006 64.646 4.675 18.006-.254 37.14-13.438 50.263-16.5 16.423-41.972 19.895-62.154 8.294a169.007 169.007 0 0 0-34.686-15.042c-59.681-18.312-121.74-1.852-164.385 37.815-10.713 9.965-26.917 11.098-38.698 2.42l-1.41-1.039c-8.429-6.209-12.694-16.415-11.778-26.844 1.264-14.397-5.278-29.108-18.631-37.537-16.725-10.558-39.031-7.157-51.854 7.9-15.262 17.925-11.923 44.686 6.699 58.404 11.627 8.565 26.343 9.932 38.823 4.91 9.905-3.987 21.126-2.86 29.72 3.471l1.048.772c11.657 8.587 15.639 24.27 9.335 37.303a169.967 169.967 0 0 0-9.803 25.24c-26.486 88.441 23.908 182.538 112.194 209.538 22.007 6.73 44.333 8.73 65.889 6.584 10.777-1.07 20.703 5.936 23.347 16.438v.002c1.63 6.48.328 13.443-3.856 18.655-4.612 5.748-6.542 13.533-4.512 21.23 3.184 12.075 15.38 19.825 27.654 17.536 13.788-2.572 22.353-16.168 18.982-29.56-1.912-7.596-7.238-13.43-13.929-16.28-6.158-2.624-10.622-8.13-12.255-14.623l-.01-.04c-2.646-10.507 2.795-21.366 12.796-25.536 44.676-18.636 81.037-56.267 96.344-106.162 14.145-46.101 7.539-93.617-14.482-132.51-11.546-20.392-8.236-45.945 8.372-62.478l.033-.033a51.78 51.78 0 0 1 50.018-13.288c21.411 5.777 45.232.293 62.08-16.478 25.848-25.732 25.212-68.003-1.987-92.92"/>
</svg>
