<svg xmlns="http://www.w3.org/2000/svg" xml:space="preserve" width="810.68" height="750.973">
	<path d="M1381.3 659.828c38.15 149.934 159.24 244.883 319.35 244.883 157.42 0 279.39-94.012 317.54-244.883zm838.06-108.976c0 98.738-20.47 190-63.35 272.839-42.82 83.829-105.18 149-185.27 197.439-80.08 47.5-170.41 71.72-270.09 71.72-97.75 0-187.14-23.29-267.22-69.85-81.02-46.57-144.32-111.738-189.95-194.629-45.63-81.961-67.97-173.211-67.97-272.84 0-99.621 23.28-190.883 68.91-273.769 45.63-82.903 108.92-147.133 189.01-193.692 80.08-46.582 169.47-69.86 267.22-69.86 179.36 0 317.94 66.63 417.81 214.462l-154.44 102.91v.109c-60.67-89.043-141.81-124.722-263.37-124.722-166.66 0-294.25 104.301-324.03 264.48h838.06c3.75 37.25 4.68 56.801 4.68 75.403" style="fill:#293b89;fill-opacity:1;fill-rule:nonzero;stroke:none" transform="matrix(.13333 0 0 -.13333 0 750.973)"/>
	<path d="M2965.72 888.559v182.521h-303.55v239.27l-192.76.93v-240.2H2299V888.559h170.41V409.332c0-225.332 146.19-368.773 365.92-368.773h130.39v186.273h-109.86c-123.85 0-193.69 66.098-193.69 187.188v474.539h303.55" style="fill:#293b89;fill-opacity:1;fill-rule:nonzero;stroke:none" transform="matrix(.13333 0 0 -.13333 0 750.973)"/>
	<path d="M3867.08 1071.08V40.559h187.2V1071.08h-187.2" style="fill:#293b89;fill-opacity:1;fill-rule:nonzero;stroke:none" transform="matrix(.13333 0 0 -.13333 0 750.973)"/>
	<path d="M5037.99 379.559c-11.18 139.64-86.64 210.421-186.26 243.011-48.45 14.91-112.67 29.84-196.5 43.762l-63.3 10.227c-14.92 2.812-33.52 7.492-54.93 12.121-37.27 9.359-54.93 19.59-81.96 39.129-15.85 12.113-26.09 32.582-26.09 63.3 0 68.911 67.04 122.02 195.56 122.02 107.29 0 176.32-46.09 199.49-128.277l181.29 43.75c-42.59 164.968-184.98 264.248-377.03 264.248-224.47 0-389.26-120.159-389.26-307.299 0-48.442 7.43-89.391 23.28-121.973 18.61-37.269 33.52-61.488 61.43-82.898 19.6-14.91 33.58-26.09 42.88-32.578 12.11-7.493 26.97-13.981 42.82-19.602 32.59-12.051 58.67-20.469 98.69-30.711 29.83-6.488 64.29-13.039 101.5-19.539 48.44-8.359 89.38-16.789 123.84-26.09 38.2-9.301 56.8-19.531 83.83-41.89 19.54-16.778 29.77-40.071 29.77-73.579 0-76.351-77.28-133.16-209.48-133.16-112.79 0-191.47 51.43-217.44 139.578l-186.91-42.347c43.93-177.543 194.92-282.551 398.73-282.551 239.32 0 407.86 125.711 407.86 325.961 0 7.43-.94 19.539-1.81 35.387" style="fill:#293b89;fill-opacity:1;fill-rule:nonzero;stroke:none" transform="matrix(.13333 0 0 -.13333 0 750.973)"/>
	<path d="M4072.42 1322.83c0-61.71-50.03-111.74-111.75-111.74-61.71 0-111.74 50.03-111.74 111.74 0 61.71 50.03 111.74 111.74 111.74 61.72 0 111.75-50.03 111.75-111.74" style="fill:#293b89;fill-opacity:1;fill-rule:nonzero;stroke:none" transform="matrix(.13333 0 0 -.13333 0 750.973)"/>
	<path d="M3331.44 697.832c0 121.027 69.81 187.09 193.59 187.09h177.04v186.158h-197.56c-219.6 0-365.71-143.361-365.71-368.58V40.559l192.64.93v656.343" style="fill:#293b89;fill-opacity:1;fill-rule:nonzero;stroke:none" transform="matrix(.13333 0 0 -.13333 0 750.973)"/>
	<path d="M5193.46 96.969c0 42.371 31.36 70.351 69.5 70.351 38.15 0 69.51-27.98 69.51-70.351 0-40.688-31.36-70.36-69.51-70.36-38.14 0-69.5 29.672-69.5 70.36" style="fill:#293b89;fill-opacity:1;fill-rule:nonzero;stroke:none" transform="matrix(.13333 0 0 -.13333 0 750.973)"/>
	<path d="M5717.29 174.102v52.546h-109.35c-72.04 0-91.54-27.117-91.54-60.179 0-38.137 32.21-62.719 86.46-62.719 51.7 0 96.63 23.73 114.43 70.352zm105.95 123.75V32.551h-100.02v55.097c-25.43-39-74.59-61.039-142.4-61.039-103.41 0-168.68 56.801-168.68 135.633 0 75.43 50.86 134.77 188.18 134.77h116.97v6.777c0 61.871-37.3 98.32-112.74 98.32-50.86 0-103.41-16.949-137.31-44.918l-41.53 77.141c48.31 37.289 118.66 55.93 191.56 55.93 130.53 0 205.97-61.871 205.97-192.41" style="fill:#293b89;fill-opacity:1;fill-rule:nonzero;stroke:none" transform="matrix(.13333 0 0 -.13333 0 750.973)"/>
	<path d="M5958.89 485.18h105.95V32.55h-105.95zm-14.41 138.16c0 35.601 28.82 63.57 67.81 63.57s67.81-26.281 67.81-61.019c0-37.301-27.97-66.121-67.81-66.121-38.99 0-67.81 27.968-67.81 63.57" style="fill:#293b89;fill-opacity:1;fill-rule:nonzero;stroke:none" transform="matrix(.13333 0 0 -.13333 0 750.973)"/>
	<path d="M771.176 0v640.602c0 154.546-125.735 280.277-280.278 280.277-154.546 0-280.285-125.731-280.285-280.277V0H0v640.602C0 911.719 219.777 1131.5 490.898 1131.5c271.114 0 490.891-219.781 490.891-490.898V0H771.176" style="fill:#293b89;fill-opacity:1;fill-rule:nonzero;stroke:none" transform="matrix(.13333 0 0 -.13333 0 750.973)"/>
	<path d="M3556.6 2748.47h-284.59v865.63c0 208.83-169.9 378.73-378.74 378.73-208.83 0-378.73-169.9-378.73-378.73v-865.63h-284.6v865.63c0 366.35 296.99 663.34 663.33 663.34 366.35 0 663.33-296.99 663.33-663.34zm1325.63 2763.31c-171.88 157.45-465.37 161.2-640.96 7.88-144.08-125.79-194.14-314.99-150.05-484.86 35.06-135.05-1.91-278.55-100.79-376.98-123.75-123.18-314.8-149.22-466.17-62.21-80.58 46.31-167.54 84.41-260.15 112.82-447.62 137.34-913.07 13.89-1232.92-283.62-80.35-74.74-201.88-83.24-290.24-18.15l-10.57 7.79c-63.22 46.57-95.21 123.12-88.34 201.34 9.48 107.98-39.59 218.31-139.74 281.53-125.44 79.19-292.74 53.68-388.91-59.25-114.472-134.44-89.43-335.15 50.24-438.04 87.21-64.24 197.58-74.49 291.18-36.82 74.29 29.9 158.45 21.45 222.91-26.04l7.86-5.79c87.43-64.4 117.29-182.03 70.01-279.78-29.06-60.09-53.74-123.28-73.52-189.31-198.65-663.32 179.31-1369.06 841.47-1571.57 165.06-50.48 332.51-65.47 494.18-49.38 80.83 8.03 155.28-44.52 175.11-123.29v-.01c12.23-48.61 2.46-100.83-28.92-139.92-34.59-43.11-49.07-101.5-33.84-159.23 23.88-90.56 115.35-148.69 207.41-131.52 103.41 19.29 167.65 121.26 142.37 221.71-14.34 56.97-54.29 100.72-104.47 122.1-46.19 19.68-79.67 60.97-91.92 109.67l-.08.3c-19.84 78.81 20.97 160.25 95.98 191.53 335.08 139.77 607.79 422.01 722.6 796.23 106.09 345.77 56.54 702.15-108.62 993.86-86.6 152.94-61.77 344.59 62.79 468.59l.25.25c98.29 97.83 241.25 135.77 375.14 99.66 160.59-43.33 339.25-2.2 465.61 123.59 193.87 192.99 189.1 510.03-14.9 696.92" style="fill:#ec3368;fill-opacity:1;fill-rule:nonzero;stroke:none" transform="matrix(.13333 0 0 -.13333 0 750.973)"/>
</svg>
