<svg xmlns="http://www.w3.org/2000/svg" viewBox="0 0 775 155" width="775" height="155"><path d="M176.1 62.2L127 10h-5.7v86.3h17.3V45.5l49.2 52.4h5.6V11.6h-17.3zm86.4-22.3c-2.7-2.7-5.9-4.9-9.4-6.3-3.9-1.6-8-2.4-12.2-2.3-4.5 0-9 .8-13.2 2.6-16.9 7.1-24.8 26.5-17.8 43.4 1.7 4.1 4.2 7.8 7.4 10.9s6.9 5.5 11 7.1c4.5 1.7 9.2 2.6 14 2.6 4.7 0 9.3-.8 13.6-2.5 4.2-1.7 8.2-4.1 11.7-7l-7.1-11.8a35.61 35.61 0 0 1-8.3 4.7c-3 1.2-6.2 1.8-9.4 1.7a21.08 21.08 0 0 1-11.7-3.2c-3.2-2.2-5.5-5.6-6.4-9.4h44.7c.3-1.1.5-2.5.8-4.2s.4-3.5.4-5.3c0-4-.7-7.9-2.1-11.6-1.4-3.5-3.4-6.7-6-9.4zm-37.7 18.3a17.19 17.19 0 0 1 5.6-9.4c2.7-2.3 6.2-3.5 9.7-3.4 3.5-.1 6.8 1.1 9.5 3.3s4.1 5.4 4.2 9.5h-29zm137.3 0l-6.2-2.6c-1.8-.7-3.5-1.5-5.1-2.6a4.07 4.07 0 0 1-.9-5.5c.3-.4.7-.8 1.1-1 1.5-.8 3.2-1.1 4.9-1.1a19.31 19.31 0 0 1 7.5 1.5c2.5 1.1 4.8 2.6 6.7 4.5l8.7-10.7c-5.8-6.4-13.4-9.6-22.9-9.6-3.1 0-6.3.4-9.3 1.3-2.7.8-5.2 2-7.5 3.7-2.1 1.6-3.7 3.6-4.9 6-1.2 2.5-1.8 5.3-1.7 8.2 0 2.3.4 4.5 1.3 6.6.8 1.9 2 3.7 3.4 5.2 1.6 1.6 3.4 3 5.4 4.1 2.4 1.3 4.8 2.5 7.3 3.5l6.8 2.8a53.69 53.69 0 0 1 4.8 2.4c1.2.7 1.9 2 1.8 3.3a4.2 4.2 0 0 1-2.4 4c-1.8.9-3.7 1.3-5.7 1.3a20.81 20.81 0 0 1-9.5-2.3c-3.1-1.7-5.9-3.8-8.4-6.3l-8.7 10.5c2.9 3.8 6.7 6.9 11 9 7.8 3.6 16.7 4.3 25 2 2.8-.8 5.5-2.1 7.9-3.9 2.2-1.7 4-3.9 5.3-6.4 1.3-2.7 2-5.7 1.9-8.7 0-5-1.5-8.9-4.6-11.7-2.9-2.6-7.3-5.2-13-7.5zm89.4-17.4c-2.7-3-6-5.4-9.8-7-3.9-1.7-8.1-2.5-12.4-2.5-4.1-.1-8.1.7-11.9 2.4-3.4 1.5-6.3 3.9-8.5 6.9v-7.8h-16v86.7h17.3V90.3c4.6 5.1 10.9 7.6 19 7.6 4.2 0 8.4-.8 12.3-2.5 3.7-1.6 7-4 9.8-7 2.8-3.1 5-6.7 6.4-10.6 1.6-4.3 2.4-8.8 2.4-13.3a34.99 34.99 0 0 0-2.3-13.2c-1.3-3.9-3.5-7.5-6.3-10.5zm-10.2 31.1c-.8 2-2 3.9-3.5 5.5a16.44 16.44 0 0 1-5.2 3.5c-2 .8-4.1 1.2-6.3 1.2-2 0-4.1-.3-6-1s-3.7-1.8-5.2-3.2c-1.6-1.6-2.9-3.4-3.7-5.5-.9-2.5-1.4-5.2-1.3-7.9-.1-2.7.4-5.4 1.4-7.9a15.33 15.33 0 0 1 3.7-5.4c1.5-1.4 3.2-2.5 5.1-3.1 1.9-.7 4-1 6-1 2.2 0 4.3.4 6.3 1.2s3.7 2 5.2 3.5a17.09 17.09 0 0 1 3.5 5.6c1.8 4.7 1.8 9.9 0 14.5h0zm78.2-33.7c-2.5-2.3-5.4-4.1-8.6-5.1-3.6-1.2-7.3-1.8-11.1-1.7-11.2 0-20.4 4.4-27.6 13.1l8.9 10.7c2.3-2.5 5-4.6 7.9-6.4a16.46 16.46 0 0 1 8.9-2.3c4 0 7 1 9 3s3 4.7 2.9 8.2v2.8H494c-7.5 0-13.3 1.6-17.7 4.9-4.3 3.3-6.5 7.8-6.5 13.6 0 2.6.5 5.2 1.5 7.6 1 2.3 2.4 4.3 4.3 6 2 1.8 4.4 3.1 6.9 4 3 1 6.1 1.5 9.2 1.5 3.8.1 7.7-.6 11.2-2.1 3.1-1.3 6-3.2 8.3-5.7v6.2H527V58.6c.1-4-.6-8.1-2-11.9-1.1-3.2-3-6.1-5.5-8.5zm-9.6 34.4c.1 3.5-1.3 6.8-3.9 9.1s-6.1 3.6-9.6 3.5c-2.3.1-4.6-.5-6.5-1.8a5.83 5.83 0 0 1-2.5-5.1c0-4.3 3-6.4 8.9-6.4h13.6v.7zm57.6-38.5c-3 1.4-5.7 3.6-7.7 6.2v-7.6h-15.9v63.6h17.3V64.6c0-5.7 1.6-9.9 4.8-12.6s7.2-4 12.2-4h4.7V32.8c-1.8-.5-3.7-.8-5.5-.8-3.5-.1-6.9.7-9.9 2.1zm86.9-1.3h-20.5L611 60V0h-17.4v96.3H611v-35l25.6 35h19.7L630.5 61zm60 7.1c-2.7-2.7-5.9-4.9-9.4-6.3-3.9-1.6-8-2.4-12.2-2.3-4.5 0-9 .8-13.1 2.6-8 3.3-14.4 9.6-17.7 17.6-1.7 4.1-2.6 8.6-2.6 13.1s.9 9 2.6 13.1c1.7 4 4.2 7.5 7.3 10.5 3.2 3.1 6.9 5.5 11 7.1 4.5 1.7 9.2 2.6 14 2.6 4.7 0 9.3-.8 13.6-2.5 4.2-1.7 8.2-4.1 11.7-7l-7.1-11.8c-2.6 1.9-5.3 3.5-8.3 4.7s-6.2 1.8-9.4 1.7a21.08 21.08 0 0 1-11.7-3.2c-3.2-2.2-5.5-5.6-6.4-9.4h44.7c.3-1.1.5-2.5.8-4.2s.5-3.5.5-5.3c0-4-.7-7.9-2.1-11.6a27.99 27.99 0 0 0-6.2-9.4zm-37.7 18.3c.8-3.7 2.8-7 5.7-9.4 2.7-2.3 6.2-3.5 9.8-3.4 3.5-.1 6.8 1.1 9.5 3.3s4.1 5.4 4.2 9.5h-29.2zM769.5 32c-3.4 0-6.7.7-9.8 2.1-3 1.4-5.7 3.6-7.7 6.2v-7.6h-15.9v63.6h17.3V64.6c0-5.7 1.6-9.9 4.8-12.6s7.2-4 12.2-4h4.6V32.8c-1.8-.6-3.7-.9-5.5-.8zm-446.2.7h-14.2V16.8h-17.3v15.9h-14.2v14.7h14.2v48.8h17.3V47.4h14.2z" fill="#1c1b29"/><path d="M28.8 6.4c-.1-1.3-1.2-2.3-2.5-2.2-1.2.1-2.1 1-2.2 2.2v53.9h0V99c0 1.3 1 2.4 2.3 2.4h.1 0c1.3 0 2.3-1.1 2.3-2.4V59.6 6.4zM14.4 4c-1.3 0-2.3 1.1-2.3 2.3v86.1c.1 1.3 1.2 2.3 2.5 2.2 1.2-.1 2.1-1 2.2-2.2v-86c0-1.3-1.1-2.4-2.4-2.4zm24.2 0c-1.3 0-2.4 1-2.4 2.3v95.1c0 1.3 1.1 2.4 2.4 2.4s2.4-1.1 2.4-2.4h0v-95C41 5.1 39.9 4 38.6 4zM2.3 4C1.1 4 0 5.1 0 6.4h0v58.5c.1 1.3 1.2 2.3 2.5 2.2 1.2-.1 2.1-1 2.2-2.2V6.4C4.7 5.1 3.6 4 2.3 4z" fill="#1665fb"/><path d="M48.4 4v98.6c17.1-4.4 29-19.8 29-37.5V4h-29zm561.8 134.4c0 1.4-.2 2.7-.7 4-.5 1.1-1.1 2.1-2 3-.8.8-1.8 1.5-2.9 1.9-1.1.5-2.4.7-3.6.7-1 0-1.9-.2-2.8-.5-.7-.3-1.4-.7-2-1.2v1.3h-5.4v-26.4h5.4v9.1c.6-.5 1.2-.8 1.9-1.1.9-.4 1.8-.5 2.8-.5 1.2 0 2.4.2 3.6.7 1.1.5 2.1 1.1 2.9 2 .9.9 1.5 1.9 2 3.1s.8 2.5.8 3.9zm-14 0c-.1 1.3.4 2.5 1.2 3.5a3.4 3.4 0 0 0 3 1.3c1.2 0 2.3-.5 3.1-1.3 1.6-2 1.6-5 0-7-.8-.9-1.9-1.4-3.1-1.3-1.1 0-2.2.5-3 1.3-.8 1-1.3 2.2-1.2 3.5zm25.5 16.5H616l3-7.3-7.2-18.5h6l4.1 11.4 4.3-11.4h5.7l-10.2 25.8zm25.3-7.3v-26.4h5.6v26.4H647zm16.7-9.2v9.2h-5.4v-18.5h5.3v1.3c.5-.5 1.2-.9 1.9-1.2.8-.3 1.6-.5 2.5-.5 2-.1 4 .7 5.5 2.1 1.5 1.7 2.2 3.8 2.1 6v10.7h-5.4v-10.3c0-.9-.2-1.8-.7-2.5s-1.4-1.1-2.4-1.1c-1.1-.1-2.1.4-2.6 1.3-.6 1.1-.9 2.3-.8 3.5zm33.6-9.2l-6.6 18.5h-5.5l-6.6-18.5h5.7l3.6 11.4 3.6-11.4h5.8zm3.1-5.3c0-.8.3-1.6.9-2.2s1.4-.9 2.2-.9a3.12 3.12 0 0 1 3.1 3.1c0 .8-.3 1.6-.9 2.2s-1.4.9-2.2.9-1.6-.3-2.2-.9-.9-1.4-.9-2.2zm.5 23.7v-18.5h5.4v18.5h-5.4zm24.2-7l3.6 3.5c-.9 1.2-2.1 2.2-3.4 2.9-2.7 1.3-5.8 1.4-8.6.3a9.13 9.13 0 0 1-5.1-5.1c-1-2.5-1-5.2 0-7.7.5-1.1 1.2-2.2 2.1-3.1s1.9-1.5 3.1-2 2.5-.7 3.9-.7c1.5-.1 3.1.3 4.4 1 1.2.7 2.3 1.6 3.3 2.7l-3.6 3.5c-.5-.6-1.1-1.1-1.7-1.5-.7-.4-1.4-.6-2.2-.6-1.2 0-2.3.4-3.2 1.3a5.04 5.04 0 0 0 0 6.7c.8.9 2 1.3 3.2 1.3.8 0 1.7-.2 2.4-.6.7-.6 1.3-1.2 1.8-1.9zm14.2 7.1c-1.8.1-3.6-.5-4.9-1.7-1.1-1.4-1.7-3.1-1.6-4.9v-7h-2.4v-4.9h2.4V124h5.4v5.2h4.1v4.9h-4.1v6.4c-.1.7.1 1.4.6 1.8.5.3 1.2.5 1.8.4h1.6v4.9l-2.9.1zm7.6-23.8c0-.8.3-1.6.9-2.2s1.4-.9 2.2-.9a3.12 3.12 0 0 1 3.1 3.1c0 .8-.3 1.6-.9 2.2s-1.4.9-2.2.9-1.6-.3-2.2-.9-.9-1.4-.9-2.2zm.4 23.7v-18.5h5.3v18.5h-5.3z" fill="#1c1b29"/></svg>