<svg xmlns="http://www.w3.org/2000/svg" width="200" height="128">
	<path d="M92.77 64.14a12.54 12.54 0 0 1 1.09 1.77H94s-.07-1.12-.07-2.79v-5.34h3v13.15h-2.78l-4.64-6.25a13.07 13.07 0 0 1-1.25-1.94h-.09a27.35 27.35 0 0 1 .13 3v5.22h-3V57.78h2.86zm16.49 6.79h-8.82V57.78h8.82v2.63h-5.79V63h5.09v2.52h-5.09v2.78h5.79zm5.02 0V60.41h-3.6v-2.63h10.25v2.63h-3.66v10.52zM134.72 65c.4 1.88.62 3.73.62 3.73h.09s.18-1.87.56-3.7l1.47-7.26h3.09l-2.88 13.15h-4.43l-1.49-6.5a24.3 24.3 0 0 1-.51-3.68h-.09a24.36 24.36 0 0 1-.56 3.71L129 70.93h-4.27l-2.9-13.15h3.21l1.55 7.22c.41 1.88.61 3.73.61 3.73h.09s.2-1.87.58-3.7l1.6-7.26h3.62zm7.11-.63c0-4.42 2.35-6.86 6.23-6.86s6.25 2.44 6.25 6.86-2.31 6.83-6.25 6.83-6.23-2.44-6.23-6.83zm3.15 0c0 2.59 1 4.18 3.08 4.18s3.1-1.59 3.1-4.18-1-4.2-3.1-4.2S145 61.8 145 64.41zm22.5 6.56H164l-3.13-4.62h-.76v4.62h-3V57.78h4.73c3.1 0 4.78 1.43 4.78 4.29 0 2-.85 3.43-2.5 3.95zM160.06 64h1.41a1.85 1.85 0 1 0 0-3.7h-1.43zm16.83 6.93-3.55-5.36h-.78v5.36h-3V57.78h3v5.16h.8l3.26-5.16h3.49L176 64.14l4.56 6.79z"/>
	<path d="M71 73.06a5.12 5.12 0 0 0-5.12 5.12A4.84 4.84 0 0 0 66 79.5l-14.34 8.28a5 5 0 0 0-2.29-1.31V69.83a5.09 5.09 0 0 0 3.76-4.92 4.31 4.31 0 0 0-.19-1.3l14.37-8.3a5.12 5.12 0 1 0-1.5-3.62A4.42 4.42 0 0 0 66 53l-14.34 8.32A5.1 5.1 0 0 0 48 59.8a5.15 5.15 0 0 0-3.61 1.49L30.05 53a4.42 4.42 0 0 0 .19-1.31 4.55 4.55 0 0 0-.19-1.33l14.36-8.29a5.11 5.11 0 1 0-1.5-3.62 4.8 4.8 0 0 0 .18 1.33l-14.35 8.29a5.12 5.12 0 1 0-4.95 8.55v16.63a5.11 5.11 0 1 0 6.45 4.93 4.91 4.91 0 0 0-.18-1.33l14.36-8.31a5 5 0 0 0 2.31 1.32v16.61a5.11 5.11 0 1 0 6.44 4.93 4.64 4.64 0 0 0-.17-1.3l14.36-8.31A5.12 5.12 0 1 0 71 73.06zm-2.91-21.37A2.86 2.86 0 1 1 71 54.54a2.82 2.82 0 0 1-1.52-.44 2.89 2.89 0 0 1-1.34-2.29zM45.18 38.45A2.85 2.85 0 1 1 48 41.31a2.77 2.77 0 0 1-1.53-.45 2.87 2.87 0 0 1-1.32-2.28zM23.79 54.21a2.89 2.89 0 0 1-1.52-2.52 2.86 2.86 0 0 1 2.85-2.85 2.81 2.81 0 0 1 1.51.44A2.86 2.86 0 0 1 28 51.57v.24a2.9 2.9 0 0 1-1.33 2.28 1.05 1.05 0 0 1-.21.12 2.77 2.77 0 0 1-1.31.33 2.82 2.82 0 0 1-1.36-.33zm4.19 24a2.85 2.85 0 0 1-5.7 0 2.89 2.89 0 0 1 1.52-2.52 2.85 2.85 0 0 1 2.66 0l.18.11a2.74 2.74 0 0 1 .95 1 2.68 2.68 0 0 1 .39 1.3zm18.54-10.87a2.82 2.82 0 0 1-1-1 2.93 2.93 0 0 1-.37-1.28v-.28a2.64 2.64 0 0 1 .39-1.29 2.74 2.74 0 0 1 1-1 2.81 2.81 0 0 1 1.46-.43 2.68 2.68 0 0 1 1.53.46 2.78 2.78 0 0 1 1.32 2.29v.1a2.88 2.88 0 0 1-1.49 2.52 2.87 2.87 0 0 1-2.65 0zM50.9 91.4a2.86 2.86 0 1 1-4.18-2.53 2.92 2.92 0 0 1 1.28-.32 2.82 2.82 0 0 1 1.33.33 1.22 1.22 0 0 1 .19.12 2.79 2.79 0 0 1 1.34 2.29zM71 81a2.74 2.74 0 0 1-1.52-.45 2.83 2.83 0 0 1-1.33-2.29v-.11A2.85 2.85 0 1 1 71 81z" fill="#ad5dff"/>
</svg>
