<svg xmlns="http://www.w3.org/2000/svg" viewBox="54.52 56.02 622.96 356.46">
	<defs>
		<clipPath id="a" clipPathUnits="userSpaceOnUse">
			<path d="M0 349.905h549.632V0H0z"/>
		</clipPath>
	</defs>
	<path fill="#005eb8" d="m320.361 118.488-23.635 40.937 37.5 64.952 47.268-.007z"/>
	<path fill="#005eb8" d="m413.054 68.138-5.936 10.324 46.387 80.348-46.387 80.384 6.268 9.772 52.03-90.156z"/>
	<path fill="#005eb8" d="m398.563 224.37 37.832-65.561-37.832-65.561h-62.681l-15.979-25.11-52.476 90.67 52.03 90.157 6.269-9.771-46.388-80.385 40.864-70.781z"/>
	<path fill="#005eb8" d="M66.804 329.595h10.608l38.19 58.665v-58.665h8.389v70.112h-10.608l-38.191-58.764v58.764h-8.388z"/>
	<path fill="#005eb8" d="M148.66 399.707v-70.112h41.1v7.4h-32.712v22.895h30v7.401h-30v25.015h32.712v7.401z"/>
	<g clip-path="url(#a)" transform="matrix(1.33333 0 0 -1.33333 0 466.54)" fill="#005eb8">
		<path d="M158.972 102.709h6.291V68.628c0-2.098.179-3.899.537-5.403.358-1.505 1.116-2.912 2.276-4.219 2.466-2.788 6.106-4.181 10.916-4.181 3.478 0 6.384.758 8.714 2.276 2.331 1.517 3.843 3.657 4.535 6.42.32 1.307.48 3.009.48 5.107v34.081h6.218c0-7.918.005-14.395.017-19.427.013-5.033.019-8.259.019-9.677 0-1.419.006-2.553.018-3.405.012-.851.019-1.56.019-2.127a53.61 53.61 0 0 0-.073-2.979c-.05-.852-.217-1.968-.5-3.349-.283-1.382-.673-2.585-1.167-3.608-.493-1.024-1.238-2.116-2.238-3.276a12.742 12.742 0 0 0-3.553-2.867c-1.368-.753-3.121-1.375-5.255-1.869-2.133-.493-4.546-.74-7.234-.74-2.886 0-5.476.303-7.771.907-2.294.604-4.095 1.326-5.403 2.165a13.926 13.926 0 0 0-3.385 3.034c-.951 1.184-1.605 2.202-1.961 3.052a17.05 17.05 0 0 0-.87 2.684c-.42 1.628-.63 3.935-.63 6.92z"/>
		<path d="M223.842 77.582h9.067c1.258 0 2.369.042 3.329.129.962.087 2.092.321 3.387.704 1.295.382 2.368.912 3.22 1.591.85.678 1.578 1.665 2.183 2.96.603 1.295.907 2.831.907 4.608 0 1.258-.161 2.392-.482 3.404-.321 1.011-.728 1.844-1.221 2.498a7.525 7.525 0 0 1-1.814 1.702c-.715.481-1.406.845-2.071 1.091a13.09 13.09 0 0 1-2.22.592c-.815.148-1.488.241-2.018.278-.53.037-1.091.055-1.683.055h-10.584zm28.384 10.694c0-1.752-.21-3.417-.63-4.995a16.606 16.606 0 0 0-1.962-4.515c-.888-1.431-2.114-2.671-3.681-3.719-1.567-1.049-3.399-1.819-5.496-2.313l14.84-22.61h-7.031l-14.247 21.907h-10.177V50.124h-6.328v52.584h19.316c.889 0 1.691-.025 2.407-.074.714-.049 1.633-.179 2.756-.388 1.122-.21 2.116-.494 2.979-.851.863-.358 1.769-.901 2.72-1.628a10.02 10.02 0 0 0 2.369-2.573c.629-.986 1.146-2.244 1.553-3.774.407-1.53.612-3.244.612-5.144"/>
		<path d="M292.375 97.75c-2.244 0-4.402-.42-6.476-1.258-2.072-.839-3.978-2.067-5.716-3.682-1.74-1.616-3.133-3.788-4.182-6.513-1.049-2.726-1.572-5.804-1.572-9.233 0-3.281.481-6.309 1.442-9.084.962-2.776 2.271-5.101 3.924-6.976a17.426 17.426 0 0 1 5.864-4.367c2.258-1.035 4.682-1.554 7.272-1.554 1.751 0 3.472.259 5.162.778 1.69.517 3.311 1.337 4.866 2.46a18.06 18.06 0 0 1 4.089 4.126c1.171 1.628 2.109 3.639 2.812 6.032.703 2.393 1.055 5.021 1.055 7.882 0 2.91-.37 5.576-1.109 7.993-.741 2.417-1.722 4.441-2.944 6.069a18.446 18.446 0 0 1-4.255 4.126c-1.616 1.123-3.281 1.937-4.996 2.443-1.715.505-3.46.758-5.236.758m.334 5.514c3.478 0 6.728-.61 9.75-1.832 3.022-1.221 5.637-2.942 7.845-5.162 2.208-2.221 3.941-4.99 5.2-8.308 1.258-3.318 1.888-6.963 1.888-10.935 0-5.378-1.069-10.158-3.202-14.339-2.134-4.182-5.094-7.414-8.88-9.695-3.789-2.283-8.075-3.423-12.86-3.423-3.158 0-6.18.56-9.067 1.683-2.887 1.122-5.489 2.757-7.808 4.904-2.318 2.146-4.17 4.952-5.55 8.418-1.382 3.466-2.073 7.37-2.073 11.713 0 4.07.63 7.795 1.887 11.174 1.258 3.38 2.984 6.224 5.182 8.531 2.196 2.306 4.81 4.094 7.845 5.365 3.033 1.271 6.315 1.906 9.843 1.906"/>
		<path d="M356.394 103.116c5.922 0 11.558-1.493 16.912-4.478l-2.479-4.7c-1.875.987-4.059 1.838-6.55 2.553a27.215 27.215 0 0 1-7.549 1.074c-2.59 0-5.088-.481-7.493-1.444a20.587 20.587 0 0 1-6.421-4.051c-1.875-1.74-3.373-3.935-4.496-6.588-1.123-2.652-1.684-5.556-1.684-8.714 0-4.17.925-7.919 2.775-11.25 1.85-3.33 4.405-5.92 7.661-7.771 3.257-1.85 6.894-2.775 10.916-2.775 4.762 0 8.635 1.43 11.619 4.292v13.434h-14.949v5.18h21.055V57.23a18.76 18.76 0 0 0-2.313-2.221c-.875-.716-2.097-1.542-3.663-2.479-1.567-.938-3.496-1.696-5.791-2.276-2.295-.579-4.774-.869-7.438-.869-3.504 0-6.729.523-9.677 1.572-2.949 1.048-5.421 2.448-7.42 4.201a25.073 25.073 0 0 0-5.07 6.124 27.46 27.46 0 0 0-3.034 7.308 31.64 31.64 0 0 0-.962 7.771c0 2.763.352 5.446 1.055 8.049a26.024 26.024 0 0 0 3.238 7.309 25.654 25.654 0 0 0 5.237 5.938c2.034 1.69 4.47 3.022 7.307 3.997 2.837.975 5.908 1.462 9.214 1.462"/>
		<path d="M391.994 102.709h6.291v-47.07h23.609v-5.514h-29.9z"/>
		<path d="M435.031 102.709h6.29V50.125h-6.29z"/>
		<path d="m476.994 96.566-8.955-25.645h17.874zm-3.294 6.143h7.143l18.687-52.584h-6.365l-5.329 15.283h-21.685l-5.328-15.283h-5.809z"/>
	</g>
</svg>
