<svg xmlns="http://www.w3.org/2000/svg" xml:space="preserve" width="732.843" height="466.54">
	<defs>
		<clipPath clipPathUnits="userSpaceOnUse" id="a">
			<path d="M0 349.905h549.632V0H0Z"/>
		</clipPath>
	</defs>
	<path d="m0 0-17.726-30.703 28.125-48.714 35.451.005z" style="fill:#005eb8;fill-opacity:1;fill-rule:nonzero;stroke:none" transform="matrix(1.33333 0 0 -1.33333 320.361 118.488)"/>
	<path d="m0 0-4.452-7.743 34.79-60.261-34.79-60.288 4.701-7.329 39.022 67.617z" style="fill:#005eb8;fill-opacity:1;fill-rule:nonzero;stroke:none" transform="matrix(1.33333 0 0 -1.33333 413.054 68.138)"/>
	<path d="m0 0 28.374 49.171L0 98.342h-47.011l-11.984 18.833-39.357-68.004 39.022-67.617 4.702 7.328-34.791 60.289 30.648 53.086z" style="fill:#005eb8;fill-opacity:1;fill-rule:nonzero;stroke:none" transform="matrix(1.33333 0 0 -1.33333 398.563 224.37)"/>
	<path d="M0 0h7.956l28.643-43.999V0h6.291v-52.584h-7.956L6.291-8.511v-44.073H0Z" style="fill:#005eb8;fill-opacity:1;fill-rule:nonzero;stroke:none" transform="matrix(1.33333 0 0 -1.33333 66.804 329.595)"/>
	<path d="M0 0v52.584h30.825v-5.55H6.291V29.863h22.5v-5.551h-22.5V5.551h24.534V0Z" style="fill:#005eb8;fill-opacity:1;fill-rule:nonzero;stroke:none" transform="matrix(1.33333 0 0 -1.33333 148.66 399.707)"/>
	<g clip-path="url(#a)" transform="matrix(1.33333 0 0 -1.33333 0 466.54)">
		<path d="M0 0h6.291v-34.081c0-2.098.179-3.899.537-5.403.358-1.505 1.116-2.912 2.276-4.219 2.466-2.788 6.106-4.181 10.916-4.181 3.478 0 6.384.758 8.714 2.276 2.331 1.517 3.843 3.657 4.535 6.42.32 1.307.48 3.009.48 5.107V0h6.218c0-7.918.005-14.395.017-19.427.013-5.033.019-8.259.019-9.677 0-1.419.006-2.553.018-3.405.012-.851.019-1.56.019-2.127a53.61 53.61 0 0 0-.073-2.979c-.05-.852-.217-1.968-.5-3.349-.283-1.382-.673-2.585-1.167-3.608-.493-1.024-1.238-2.116-2.238-3.276a12.742 12.742 0 0 0-3.553-2.867c-1.368-.753-3.121-1.375-5.255-1.869-2.133-.493-4.546-.74-7.234-.74-2.886 0-5.476.303-7.771.907-2.294.604-4.095 1.326-5.403 2.165a13.926 13.926 0 0 0-3.385 3.034c-.951 1.184-1.605 2.202-1.961 3.052a17.05 17.05 0 0 0-.87 2.684C.21-39.854 0-37.547 0-34.562z" style="fill:#005eb8;fill-opacity:1;fill-rule:nonzero;stroke:none" transform="translate(158.972 102.709)"/>
		<path d="M0 0h9.067c1.258 0 2.369.042 3.329.129.962.087 2.092.321 3.387.704 1.295.382 2.368.912 3.22 1.591.85.678 1.578 1.665 2.183 2.96.603 1.295.907 2.831.907 4.608 0 1.258-.161 2.392-.482 3.404-.321 1.011-.728 1.844-1.221 2.498a7.525 7.525 0 0 1-1.814 1.702c-.715.481-1.406.845-2.071 1.091a13.09 13.09 0 0 1-2.22.592c-.815.148-1.488.241-2.018.278-.53.037-1.091.055-1.683.055H0Zm28.384 10.694c0-1.752-.21-3.417-.63-4.995a16.606 16.606 0 0 0-1.962-4.515c-.888-1.431-2.114-2.671-3.681-3.719-1.567-1.049-3.399-1.819-5.496-2.313l14.84-22.61h-7.031L10.177-5.551H0v-21.907h-6.328v52.584h19.316c.889 0 1.691-.025 2.407-.074.714-.049 1.633-.179 2.756-.388 1.122-.21 2.116-.494 2.979-.851.863-.358 1.769-.901 2.72-1.628a10.02 10.02 0 0 0 2.369-2.573c.629-.986 1.146-2.244 1.553-3.774.407-1.53.612-3.244.612-5.144" style="fill:#005eb8;fill-opacity:1;fill-rule:nonzero;stroke:none" transform="translate(223.842 77.582)"/>
		<path d="M0 0c-2.244 0-4.402-.42-6.476-1.258-2.072-.839-3.978-2.067-5.716-3.682-1.74-1.616-3.133-3.788-4.182-6.513-1.049-2.726-1.572-5.804-1.572-9.233 0-3.281.481-6.309 1.442-9.084.962-2.776 2.271-5.101 3.924-6.976a17.426 17.426 0 0 1 5.864-4.367c2.258-1.035 4.682-1.554 7.272-1.554 1.751 0 3.472.259 5.162.778 1.69.517 3.311 1.337 4.866 2.46a18.06 18.06 0 0 1 4.089 4.126c1.171 1.628 2.109 3.639 2.812 6.032.703 2.393 1.055 5.021 1.055 7.882 0 2.91-.37 5.576-1.109 7.993-.741 2.417-1.722 4.441-2.944 6.069a18.446 18.446 0 0 1-4.255 4.126C8.616-2.078 6.951-1.264 5.236-.758 3.521-.253 1.776 0 0 0m.334 5.514c3.478 0 6.728-.61 9.75-1.832C13.106 2.461 15.721.74 17.929-1.48c2.208-2.221 3.941-4.99 5.2-8.308 1.258-3.318 1.888-6.963 1.888-10.935 0-5.378-1.069-10.158-3.202-14.339-2.134-4.182-5.094-7.414-8.88-9.695C9.146-47.04 4.86-48.18.075-48.18c-3.158 0-6.18.56-9.067 1.683-2.887 1.122-5.489 2.757-7.808 4.904-2.318 2.146-4.17 4.952-5.55 8.418-1.382 3.466-2.073 7.37-2.073 11.713 0 4.07.63 7.795 1.887 11.174 1.258 3.38 2.984 6.224 5.182 8.531 2.196 2.306 4.81 4.094 7.845 5.365C-6.476 4.879-3.194 5.514.334 5.514" style="fill:#005eb8;fill-opacity:1;fill-rule:nonzero;stroke:none" transform="translate(292.375 97.75)"/>
		<path d="M0 0c5.922 0 11.558-1.493 16.912-4.478l-2.479-4.7c-1.875.987-4.059 1.838-6.55 2.553A27.215 27.215 0 0 1 .334-5.551c-2.59 0-5.088-.481-7.493-1.444a20.587 20.587 0 0 1-6.421-4.051c-1.875-1.74-3.373-3.935-4.496-6.588-1.123-2.652-1.684-5.556-1.684-8.714 0-4.17.925-7.919 2.775-11.25 1.85-3.33 4.405-5.92 7.661-7.771 3.257-1.85 6.894-2.775 10.916-2.775 4.762 0 8.635 1.43 11.619 4.292v13.434H-1.738v5.18h21.055v-20.648a18.76 18.76 0 0 0-2.313-2.221c-.875-.716-2.097-1.542-3.663-2.479-1.567-.938-3.496-1.696-5.791-2.276-2.295-.579-4.774-.869-7.438-.869-3.504 0-6.729.523-9.677 1.572-2.949 1.048-5.421 2.448-7.42 4.201a25.073 25.073 0 0 0-5.07 6.124 27.46 27.46 0 0 0-3.034 7.308 31.64 31.64 0 0 0-.962 7.771c0 2.763.352 5.446 1.055 8.049a26.024 26.024 0 0 0 3.238 7.309 25.654 25.654 0 0 0 5.237 5.938c2.034 1.69 4.47 3.022 7.307 3.997C-6.377-.487-3.306 0 0 0" style="fill:#005eb8;fill-opacity:1;fill-rule:nonzero;stroke:none" transform="translate(356.394 103.116)"/>
		<path d="M0 0h6.291v-47.07H29.9v-5.514H0Z" style="fill:#005eb8;fill-opacity:1;fill-rule:nonzero;stroke:none" transform="translate(391.994 102.709)"/>
		<path d="M435.031 102.709h6.29V50.125h-6.29z" style="fill:#005eb8;fill-opacity:1;fill-rule:nonzero;stroke:none"/>
		<path d="m0 0-8.955-25.645H8.919Zm-3.294 6.143h7.143l18.687-52.584h-6.365l-5.329 15.283h-21.685l-5.328-15.283h-5.809z" style="fill:#005eb8;fill-opacity:1;fill-rule:nonzero;stroke:none" transform="translate(476.994 96.566)"/>
	</g>
</svg>
