<svg xmlns="http://www.w3.org/2000/svg" viewBox="0.24 69.25 403.26 91.76">
	<path fill="#404040" d="M130.035 142.21V110.89h.616c1.753-.003 3.505.002 5.258-.021.297-.003.4.078.39.356-.008.221-.002.44-.002.658q0 20.402.013 40.8c0 .427-.14.508-.523.502q-2.403-.023-4.803 0a.769.769 0 0 1-.713-.356q-5.515-7.641-11.05-15.27-5.64-7.798-11.279-15.604l-.566-.798c-.06.075-.112.112-.112.148.008 5.375.029 10.75.034 16.126.005 5.074-.008 10.145.005 15.22.002.433-.136.54-.546.534q-2.653-.023-5.308 0c-.411.006-.546-.098-.546-.535q.02-20.55.01-41.105c0-.668 0-.658.674-.655 1.72.002 3.438-.011 5.157.005a.744.744 0 0 1 .53.255q4.502 6.16 8.978 12.34 4.295 5.905 8.592 11.806 2.422 3.335 4.832 6.67c.075.105.164.199.247.294.036-.015.075-.034.112-.049m82.892-31.316c2.106 0 4.176 0 6.244-.003.986 0 .967.003 1.295.918 1.292 3.61 2.6 7.217 3.895 10.824 1.036 2.881 2.052 5.768 3.093 8.65.798 2.212 1.63 4.418 2.434 6.631.87 2.403 1.722 4.813 2.585 7.22.015.04.057.07.124.15l.89-2.429q1.654-4.553 3.305-9.107l4.089-11.24q1.642-4.506 3.297-9.003c.26-.71.512-1.425.762-2.138a.646.646 0 0 1 .736-.494c2.055.029 4.111.005 6.166-.003.083 0 .164.008.328.016-.136.4-.242.76-.38 1.11q-1.986 5.126-3.984 10.254l-3.456 8.887-5.462 14.064q-1.517 3.904-3.055 7.802a.568.568 0 0 1-.414.288c-1.953.016-3.909.008-5.864.013a.415.415 0 0 1-.473-.317c-1.225-3.207-2.471-6.403-3.706-9.607q-2.326-6.022-4.642-12.054l-4.19-10.878q-1.806-4.685-3.615-9.37a.686.686 0 0 1-.002-.184m-62.493 28.292a10.702 10.702 0 0 0 1.961 5.268 9.303 9.303 0 0 0 6.905 4.091 9.193 9.193 0 0 0 8.205-3.238c.343-.408.678-.824.98-1.26.188-.271.351-.302.661-.17 1.51.65 3.037 1.274 4.676 1.955-.422.614-.804 1.228-1.249 1.803a12.897 12.897 0 0 1-4.244 3.589 13.45 13.45 0 0 1-5.1 1.625 38.2 38.2 0 0 1-5.084.203 14.598 14.598 0 0 1-8.264-3.033 15.266 15.266 0 0 1-5.743-9.172 16 16 0 0 1 1.132-10.389 14.742 14.742 0 0 1 5.721-6.478 16.466 16.466 0 0 1 10.03-2.34 14.745 14.745 0 0 1 6.65 1.94 13.421 13.421 0 0 1 5.077 5.372 20.336 20.336 0 0 1 2.32 9.264c.023.938.028.938-.953.938q-11.597-.004-23.192-.002c-.153 0-.306.02-.489.034m8.996-4.093v-.003c2.626 0 5.253-.005 7.88.007.387.003.517-.116.452-.496-.145-.842-.216-1.703-.423-2.528a7.29 7.29 0 0 0-3.808-4.91 8.834 8.834 0 0 0-4.751-.884 7.538 7.538 0 0 0-4.52 1.779 9.52 9.52 0 0 0-3.183 6.603c-.04.403.156.436.47.436q3.94-.01 7.883-.004m99.92 4.093a10.755 10.755 0 0 0 1.96 5.268 9.308 9.308 0 0 0 6.907 4.091 9.186 9.186 0 0 0 8.203-3.238c.346-.408.679-.824.98-1.26.188-.271.354-.302.664-.17 1.51.65 3.034 1.274 4.675 1.955-.424.614-.806 1.228-1.248 1.803a12.88 12.88 0 0 1-4.247 3.589 13.437 13.437 0 0 1-5.097 1.625 38.2 38.2 0 0 1-5.084.203 14.59 14.59 0 0 1-8.265-3.033 15.266 15.266 0 0 1-5.742-9.172 15.983 15.983 0 0 1 1.131-10.389 14.742 14.742 0 0 1 5.722-6.478 16.466 16.466 0 0 1 10.03-2.34 14.765 14.765 0 0 1 6.65 1.94 13.397 13.397 0 0 1 5.074 5.372 20.305 20.305 0 0 1 2.322 9.264c.023.938.029.938-.952.938q-11.597-.004-23.192-.002c-.153 0-.306.02-.491.034m8.995-4.093v-.003c2.63 0 5.256-.005 7.883.007.387.003.517-.116.452-.496-.148-.842-.216-1.703-.426-2.528a7.287 7.287 0 0 0-3.805-4.91 8.834 8.834 0 0 0-4.752-.884 7.546 7.546 0 0 0-4.522 1.779 9.528 9.528 0 0 0-3.18 6.603c-.042.403.156.436.47.436q3.94-.01 7.88-.004m-65.641 11.32s-.435 5.336 2.556 6.228a12.05 12.05 0 0 0 4.57 0v-5.43s-2.138.484-2.138-3.19v-21.16c0-.428-.101-.59-.565-.582-1.685.026-3.37.024-5.055.003-.413-.005-.544.104-.541.538.016 4.806.008 9.61.008 14.412a15.501 15.501 0 0 1-.518 4.4 8.961 8.961 0 0 1-2.354 4.175 7.138 7.138 0 0 1-6.256 1.703 5.286 5.286 0 0 1-3.766-2.304 9.639 9.639 0 0 1-1.555-5.461c-.026-5.628-.013-11.258-.003-16.888.003-.435-.099-.585-.559-.578-1.703.029-3.406.021-5.107.003-.399-.003-.56.075-.557.527.013 6.135.005 12.27.01 18.408a17.099 17.099 0 0 0 .796 5.476 8.799 8.799 0 0 0 3.306 4.59 11.208 11.208 0 0 0 6.662 1.8 11.485 11.485 0 0 0 4.613-.941 12.665 12.665 0 0 0 4.494-3.34zm154.64 6.519c-1.21-.142-2.443-.19-3.63-.45a13.812 13.812 0 0 1-7.634-4.295 15.108 15.108 0 0 1-3.13-5.66 18.06 18.06 0 0 1-.688-7.25 16.78 16.78 0 0 1 1.318-5.26 13.51 13.51 0 0 1 4.093-5.244 15.544 15.544 0 0 1 6.013-2.785 18.366 18.366 0 0 1 6.356-.307 15.62 15.62 0 0 1 5.435 1.592 13.3 13.3 0 0 1 4.933 4.34 15.175 15.175 0 0 1 2.25 5.066 18.362 18.362 0 0 1-1.573 12.675 13.959 13.959 0 0 1-3.456 4.182 14.662 14.662 0 0 1-5.953 2.892 19.683 19.683 0 0 1-4.333.504m9.646-15.614a1.562 1.562 0 0 0-.11-.013 13.531 13.531 0 0 0-.917-5.339 8.192 8.192 0 0 0-4.172-4.535 9.823 9.823 0 0 0-5.443-.814 8.21 8.21 0 0 0-4.33 1.713 9.605 9.605 0 0 0-3.32 6.255 16.694 16.694 0 0 0 .148 6.19 9.704 9.704 0 0 0 1.885 4.142 7.952 7.952 0 0 0 4.6 2.811 11.13 11.13 0 0 0 4.686.042 7.72 7.72 0 0 0 4.018-2.093 9.16 9.16 0 0 0 2.44-4.62c.278-1.221.351-2.49.515-3.739m11.82-15.005h5.983v6.12c.115-.11.193-.154.23-.222a12.287 12.287 0 0 1 6.568-5.794 7.572 7.572 0 0 1 3.51-.53c.097.007.19.01.285.026.605.093.647.153.598.751q-.21 2.497-.416 4.994c-.01.103-.029.207-.047.356-.219-.045-.411-.102-.606-.123-3.022-.296-5.706.362-7.688 2.846a9.32 9.32 0 0 0-1.648 3.513 24.965 24.965 0 0 0-.668 6.502c0 3.653-.008 7.31.005 10.963 0 .359-.097.46-.458.458a288.272 288.272 0 0 0-5.258-.003c-.338.003-.422-.093-.419-.439.018-2.582.013-5.162.01-7.745l-.01-21.522a1.13 1.13 0 0 1 .029-.151m-72.94 25.457a11.173 11.173 0 0 1-4.686-.041 7.941 7.941 0 0 1-4.6-2.812 9.725 9.725 0 0 1-1.888-4.142 16.75 16.75 0 0 1-.146-6.19 9.605 9.605 0 0 1 3.321-6.254 8.21 8.21 0 0 1 4.33-1.714 9.082 9.082 0 0 1 5.44.814 7.741 7.741 0 0 1 3.181 3.47l5.802-1.9c-.538-2.283-3.29-4.694-5.295-5.728a15.698 15.698 0 0 0-5.435-1.595 18.513 18.513 0 0 0-6.359.31 15.552 15.552 0 0 0-6.01 2.785 13.516 13.516 0 0 0-4.095 5.243 16.847 16.847 0 0 0-1.316 5.261 18.058 18.058 0 0 0 .686 7.25 15.145 15.145 0 0 0 3.13 5.66 13.82 13.82 0 0 0 7.637 4.296c1.186.26 2.418.307 3.628.449a31.835 31.835 0 0 0 4.335-.504c4.41-.658 8.462-5.391 8.987-7.035l-5.427-1.92c-.052.857-3.667 3.99-5.22 4.297M337.943 146a11.039 11.039 0 0 1-5.03 1.368c-2.974 0-2.735-3.048-2.746-4.23-.036-5.07-.015-10.57-.015-15.636 0-.577.003-.577.592-.577 1.335-.003 2.669 0 6.25 0v-5.061c-3.636 0-5.025 0-6.416.008-.335 0-.437-.093-.434-.44.01-1.942.008-3.453.005-9.575h-6.166c.005 6.122 0 7.63.008 9.573 0 .327-.078.455-.432.442-.856-.023-1.714-.008-2.57-.006h-1.531v5.059c2.242-.003 3.1-.003 3.958-.003.57.003.57.003.57.57.002 5.243.002 10.92.005 16.163a15.18 15.18 0 0 0 .507 4.553 5.524 5.524 0 0 0 2.645 3.412 9.634 9.634 0 0 0 4.926 1.014 14.804 14.804 0 0 0 5.047-.821 4.716 4.716 0 0 0 1.784-1.04z"/>
	<path fill="#a1d635" d="M62.598 76.985H87a3.42 3.42 0 0 1 3.42 3.418v24.545a3.42 3.42 0 0 1-3.42 3.419H62.598a3.419 3.419 0 0 1-3.42-3.42V80.404a3.419 3.419 0 0 1 3.42-3.418m1.879 26.084H85.12V82.284H64.477z"/>
	<path fill="#42a342" d="M75.906 93.444H29.362a6.52 6.52 0 0 0-6.522 6.52v6.652l6.673 4.032v-10.553h46.242v46.555H29.513v-28.524l-6.673-4.006v32.66a6.521 6.521 0 0 0 6.522 6.522h46.544a6.521 6.521 0 0 0 6.522-6.522V99.964a6.52 6.52 0 0 0-6.522-6.52"/>
	<path fill="#007300" d="M43.201 85.014H12.324A4.325 4.325 0 0 0 8 89.341v31.054a4.326 4.326 0 0 0 4.324 4.326h30.877a4.326 4.326 0 0 0 4.325-4.326v-12.18l-14.98 11.731-9.706-5.826v5.125h-9.357V90.49h28.56v2.953H29.362a6.52 6.52 0 0 0-6.522 6.52v6.652l9.437 5.702 15.249-11.783V89.341a4.325 4.325 0 0 0-4.325-4.327"/>
</svg>
