<svg version="1.1" id="레이어_1" xmlns="http://www.w3.org/2000/svg" x="0" y="0" viewBox="0 0 456 274" style="enable-background:new 0 0 456 274" xml:space="preserve">
	<style>
		.st0{fill:#3f3f41}
	</style>
	<path class="st0" d="m128.2 193.7-18.1-23.3h-5.4v32.7h5.7v-23.3l18.1 23.3h5.4v-32.7h-5.7z"/>
	<path class="st0" d="M159.9 179.9c-.4-.4-1-.8-1.6-1-.6-.3-1.2-.4-1.9-.4h-11.2c-.7 0-1.3.1-1.9.4-.6.3-1.1.6-1.6 1-.4.4-.8 1-1.1 1.6-.3.6-.4 1.2-.4 1.9v14.8c0 .7.1 1.3.4 1.9.3.6.6 1.1 1.1 1.6.4.4 1 .8 1.6 1.1.6.3 1.2.4 1.9.4h16.1v-5.5h-15.5v-4h15.5v-10.2c0-.7-.1-1.3-.4-1.9-.2-.7-.5-1.2-1-1.7zm-14.1 8.2V184h10v4.1h-10z"/>
	<path class="st0" d="M189.6 178.5h-6.7l-5.6 7.5-5.6-7.5H165l8.9 12-9.3 12.6h6.7l6-8.1 6 8.1h6.7l-9.3-12.6z"/>
	<path class="st0" d="M219.5 171.9c-.5-.4-1-.8-1.6-1.1-.6-.3-1.3-.4-2-.4h-17.1c-.7 0-1.4.1-2 .4-.6.3-1.2.6-1.6 1.1-.5.5-.8 1-1.1 1.6-.3.6-.4 1.3-.4 2V198c0 .7.1 1.4.4 2 .3.6.6 1.2 1.1 1.6.5.5 1 .8 1.6 1.1.6.3 1.3.4 2 .4h17.1c.7 0 1.4-.1 2-.4.6-.3 1.2-.6 1.6-1.1.5-.5.8-1 1.1-1.6.3-.6.4-1.3.4-2v-4.6h-5.7v4.1h-16v-21.4h16v4.1h5.7v-4.7c0-.7-.1-1.4-.4-2-.3-.6-.6-1.2-1.1-1.6z"/>
	<path class="st0" d="M226.6 169.5h5.5v33.7h-5.5z"/>
	<path class="st0" d="M238.4 178.5h5.5v24.6h-5.5z"/>
	<path class="st0" d="M238.1 169.5h6v5.7h-6z"/>
	<path class="st0" d="M270.6 179.9c-.4-.4-1-.8-1.6-1-.6-.3-1.2-.4-1.9-.4h-7.8c-.6 0-1.3.1-1.8.4-.6.2-1.1.6-1.5 1l-.4.4v-1.7h-5.5v34.1h5.5v-9.5h11.5c.7 0 1.3-.1 1.9-.4.6-.3 1.1-.6 1.6-1.1.4-.4.8-1 1-1.6.3-.6.4-1.3.4-1.9v-14.8c0-.7-.1-1.3-.4-1.9-.2-.6-.5-1.1-1-1.6zm-14.9 17.7V184h10.9v13.6h-10.9z"/>
	<path class="st0" d="M298.6 179.9c-.4-.4-1-.8-1.6-1.1-.6-.3-1.2-.4-1.9-.4h-7.8c-.6 0-1.3.1-1.8.4-.6.2-1.1.6-1.5 1l-.4.4v-1.7h-5.5v34.1h5.5v-9.5h11.5c.7 0 1.3-.1 1.9-.4.6-.3 1.1-.6 1.6-1 .4-.4.8-1 1.1-1.6.3-.6.4-1.2.4-1.9v-14.8c0-.7-.1-1.3-.4-1.9-.3-.6-.6-1.1-1.1-1.6zm-15 17.7V184h10.9v13.6h-10.9z"/>
	<path class="st0" d="M325.7 179.9c-.4-.4-1-.8-1.6-1-.6-.3-1.2-.4-1.9-.4H311c-.7 0-1.3.1-1.9.4-.6.3-1.1.6-1.6 1-.4.4-.8 1-1.1 1.6-.3.6-.4 1.2-.4 1.9v14.8c0 .7.1 1.3.4 1.9.3.6.6 1.1 1 1.6.4.4 1 .8 1.6 1.1.6.3 1.2.4 1.9.4H327v-5.5h-15.5v-4H327v-10.2c0-.7-.1-1.3-.4-1.9-.1-.7-.5-1.2-.9-1.7zm-14.1 8.2V184h10v4.1h-10z"/>
	<path class="st0" d="M351.6 181.5c-.3-.6-.6-1.1-1.1-1.6-.5-.4-1-.8-1.6-1-.6-.3-1.2-.4-1.9-.4h-4.6c-.7 0-1.3.1-1.9.4-.6.2-1.1.6-1.5 1-.1.1-.2.2-.3.4v-1.7h-5.5v24.6h5.5V184h7.8v4h5.5v-4.6c0-.7-.2-1.3-.4-1.9z"/>
	<path d="M221.5 129.3c3-12.6 4.8-27.6-.8-53.5 0 0-4.7 16.8-14.4 35-3.9 7.3-8.6 14.8-14.1 21.6-2 2.5-4.1 4.8-6.3 7 0 .1-.1.1-.1.1-4.9 4.9-10.3 9.1-16.3 12.1 12.1-3 30.7-11.2 49.7-14.4.8-2.2 1.6-4.8 2.3-7.9z" style="fill:#85bb43"/>
	<path d="M236.7 88.2c-3.5-5.9-7.9-11.4-13.5-16.2 0 0 3.6 11.2 5.1 27.7.9 9.5.8 17-.8 28.9-.4 2.5-.8 5-1.3 7.6 7.9-1.2 15.7-2.1 22.9-2.6-.4-13.3-2.6-28.8-12.4-45.4z" style="fill:#3299a3"/>
	<path d="M283 147.5c23.5-85.5-58.5-78.8-58.5-78.8s6.5 4.1 13.4 13.8c7.1 9.9 14.6 21.7 16.1 44.6.1 2 .2 4.1.3 6.2 17.3-.6 28 5.7 28.7 14.2z" style="fill:#006daa"/>
</svg>
