<svg xmlns="http://www.w3.org/2000/svg" width="200" height="128">
    <path d="M100.105 19a31.364 31.364 0 0 0-30.044 22.729 20.334 20.334 0 1 0 0 17.067 31.229 31.229 0 0 0 60.017.294 20.33 20.33 0 1 0 0-17.654A31.378 31.378 0 0 0 100.105 19zm0 11.934a19.331 19.331 0 1 1-19.329 19.329 19.24 19.24 0 0 1 19.329-19.329zM51.653 41.867a8.4 8.4 0 1 1-8.4 8.4 8.309 8.309 0 0 1 8.4-8.4zm96.69 0a8.4 8.4 0 1 1-8.4 8.4 8.309 8.309 0 0 1 8.4-8.4zM66.428 95.9c3.347 0 5.219 2.382 5.219 5.956a.629.629 0 0 1-.624.624H62a4.753 4.753 0 0 0 4.822 4.992 5.283 5.283 0 0 0 3.29-1.134c.341-.227.624-.17.8.17l.17.284a.568.568 0 0 1-.17.794 7.037 7.037 0 0 1-4.141 1.361 6.318 6.318 0 0 1-6.524-6.523c.053-4.089 2.777-6.524 6.181-6.524zm3.461 5.332c-.114-2.609-1.7-3.914-3.518-3.914a4.284 4.284 0 0 0-4.311 3.914zm18.794-3.517v-4.372a.568.568 0 0 1 .624-.624h.454c.4 0 .567.227.567.624v2.95h2.553a.568.568 0 0 1 .624.624v.17c0 .4-.227.567-.624.567h-2.553v6.24c0 2.894 1.758 3.234 2.723 3.291.51.056.681.17.681.624v.34c0 .4-.171.567-.681.567-2.723 0-4.368-1.645-4.368-4.595zm12.99-1.815a6.408 6.408 0 0 1 4.142 1.418.529.529 0 0 1 .056.851l-.17.284c-.227.34-.51.34-.851.113a5.369 5.369 0 0 0-3.12-1.135 5.023 5.023 0 0 0 0 10.041 5.248 5.248 0 0 0 3.517-1.3.489.489 0 0 1 .8.17l.17.227a.636.636 0 0 1-.17.851 6.984 6.984 0 0 1-4.43 1.58 6.318 6.318 0 0 1-6.524-6.524 6.444 6.444 0 0 1 6.58-6.576zm7.545-4.028c0-.4-.227-.624.17-.624h.454c.4 0 1.021.227 1.021.624v13.558c0 1.589.738 1.759 1.305 1.815a.5.5 0 0 1 .511.568v.4a.544.544 0 0 1-.624.624c-1.021 0-2.837-.341-2.837-3.064zm11.63 4.028a6.524 6.524 0 1 1-6.581 6.467 6.453 6.453 0 0 1 6.581-6.467zm0 11.572a4.886 4.886 0 0 0 4.821-5.105 4.808 4.808 0 0 0-4.821-4.936 4.891 4.891 0 0 0-4.879 4.936 5 5 0 0 0 4.879 5.101zM149.155 95.9a4.483 4.483 0 0 1 4.084 2.5h.057a7.51 7.51 0 0 1-.057-.965v-5.624c0-.4-.17-.624.227-.624h.454c.4 0 1.021.227 1.021.624v16.168c0 .4-.17.624-.567.624h-.4c-.4 0-.624-.17-.624-.567v-.965a2.777 2.777 0 0 1 .113-.794h-.057a4.629 4.629 0 0 1-4.311 2.61c-3.347 0-5.446-2.667-5.446-6.524-.113-3.858 2.213-6.467 5.5-6.467zm.057 11.572c2.1 0 4.027-1.475 4.027-5.048 0-2.553-1.3-4.993-3.971-4.993-2.212 0-4.027 1.816-4.027 4.993.059 3.059 1.645 5.044 3.971 5.044zM45.626 108.66h.454a.568.568 0 0 0 .624-.624V95.855c0-1.929 2.1-3.306 4.481-3.306s4.482 1.377 4.482 3.306v12.181a.568.568 0 0 0 .624.624h.454c.4 0 .567-.227.567-.624V95.782c0-3.233-3.233-4.822-6.183-4.822-2.837 0-6.07 1.589-6.07 4.822v12.254c0 .397.17.624.567.624zm94.679-12.481h-.454a.568.568 0 0 0-.624.624v6.865a3.687 3.687 0 0 1-7.374 0V96.8a.568.568 0 0 0-.624-.624h-.454c-.4 0-.567.227-.567.624v7.318c0 3.234 2.382 4.822 5.332 4.822 2.95 0 5.333-1.588 5.333-4.822V96.8a.507.507 0 0 0-.568-.624zm-56.156-.093a.7.7 0 0 0-.4.267l-2.3 2.737-1.718 2.048-2.6-3.1-1.411-1.683a.568.568 0 0 0-.88-.076l-.348.291a.527.527 0 0 0-.033.842l2.3 2.737 1.9 2.269-2.788 3.323-.006.008-1.407 1.676a.568.568 0 0 0 .078.88l.348.29a.527.527 0 0 0 .835-.113l2.3-2.737 1.718-2.047 2.6 3.1.005.006 1.407 1.677a.568.568 0 0 0 .879.077l.348-.292a.527.527 0 0 0 .033-.842l-2.3-2.737-1.9-2.269L83.6 99.1l.006-.008 1.404-1.682a.568.568 0 0 0-.077-.879l-.348-.292a.543.543 0 0 0-.436-.153z" fill="#0082cf"/>
</svg>
