<svg xmlns="http://www.w3.org/2000/svg" width="200" height="128">
	<path d="M84.42 64.37a12.22 12.22 0 0 1 1.14 1.82h.09s-.07-1.15-.07-2.88v-5.53h3.14v13.61h-2.86l-4.81-6.47a12.68 12.68 0 0 1-1.29-2h-.1A27.33 27.33 0 0 1 79.8 66v5.4h-3.14V57.78h3zm7.95 7.02V57.78h8.87v2.73h-5.73v3.26h5v2.61h-5v5zm13.01-4.32a2.54 2.54 0 0 0 2.54 2.2c1 0 1.8-.42 1.8-1.34s-.48-1.3-2.26-1.85c-3.12-1-4.42-2.17-4.42-4.51 0-3.07 2.41-4.09 4.79-4.09 2.8 0 4.88 1 5.15 3.54l-3.12.78a1.84 1.84 0 0 0-2-1.73c-.88 0-1.57.39-1.57 1.27s.74 1.32 2.33 1.8C111.53 64 113 65 113 67.63c0 3-2.4 4-5.29 4-2.68 0-4.48-.88-5.18-3.33zm11.99 0a2.54 2.54 0 0 0 2.54 2.2c1 0 1.8-.42 1.8-1.34s-.48-1.3-2.26-1.85c-3.12-1-4.41-2.17-4.41-4.51 0-3.07 2.4-4.09 4.78-4.09 2.8 0 4.88 1 5.15 3.54l-3.12.78a1.84 1.84 0 0 0-2-1.73c-.88 0-1.57.39-1.57 1.27s.74 1.32 2.33 1.8C123.52 64 125 65 125 67.63c0 3-2.4 4-5.29 4-2.68 0-4.48-.88-5.18-3.33zm12.57 4.32V60.51h-3.72v-2.73h10.61v2.73H133v10.88zm15.69-2.84h-5.16l-1 2.84h-3.28l4.92-13.61H145l5 13.61h-3.38zm-4.28-2.61h3.35l-.55-1.53a25.32 25.32 0 0 1-1.06-3.88H143a32.46 32.46 0 0 1-1.11 3.86zm11.76 5.45V60.51h-3.72v-2.73H160v2.73h-3.79v10.88z"/>
	<path fill="#5effa8" d="M41.98 71.48V65.2H29.41l-.01 18.83h12.58v-6.31h15.68v15.7H41.98v-6.25H26.27l.01-23.54V52.66H20v-15.7h15.7v15.7h-6.29v9.41h12.57v-6.28h15.68v15.69H41.98z"/>
</svg>
