<svg xmlns="http://www.w3.org/2000/svg" width="200" height="128">
	<path d="M49.981 80.7a3.473 3.473 0 0 1-2.459-1.018l-20.57-20.571v18.114a3.476 3.476 0 0 1-6.952 0V50.718a3.477 3.477 0 0 1 5.934-2.458l20.571 20.573V50.718a3.476 3.476 0 1 1 6.952 0v26.507a3.478 3.478 0 0 1-3.476 3.475m16.1-33.425-.955 1.783-7.391 13.426-.955 1.7.955 1.693 7.388 12.992 1 1.781h19.334l.955-1.954 5.518-11.129 2.477-5.04H88.8l-14.121.043a3.476 3.476 0 1 0 0 6.952l8.516-.043-2.085 4.214H70.162l-5.432-9.559 5.475-9.906h11.648l2.715 5.572h7l-4.41-10.568-.958-1.956H66.078m35.214-.043a3.61 3.61 0 0 0-3.433 3.519v9.058h6.952v-9.058a3.615 3.615 0 0 0-3.519-3.519m11.143 33.535a3.477 3.477 0 0 1-3.475-3.476V50.785a3.476 3.476 0 0 1 6.952 0V68.9l20.571-20.572a3.475 3.475 0 0 1 5.933 2.458v26.506a3.476 3.476 0 0 1-6.952 0V59.178L114.893 79.75a3.476 3.476 0 0 1-2.459 1.018m55.73-16.756 10.813-10.774a3.476 3.476 0 1 0-4.906-4.925l-10.83 10.792-10.83-10.792a3.476 3.476 0 0 0-4.908 4.925l10.813 10.774-10.781 10.743a3.476 3.476 0 1 0 4.907 4.924l10.8-10.76 10.8 10.76a3.476 3.476 0 0 0 4.908-4.923l-10.786-10.744m-66.872 16.657a3.61 3.61 0 0 1-3.433-3.519V62.6h6.952v14.55a3.618 3.618 0 0 1-3.519 3.519" fill="#fff"/>
	<path d="M49.981 80.7a3.473 3.473 0 0 1-2.459-1.018l-20.57-20.571v18.114a3.476 3.476 0 0 1-6.952 0V50.718a3.477 3.477 0 0 1 5.934-2.458l20.571 20.573V50.718a3.476 3.476 0 1 1 6.952 0v26.507a3.478 3.478 0 0 1-3.476 3.475m16.1-33.425-.955 1.783-7.391 13.426-.955 1.7.955 1.693 7.388 12.992 1 1.781h19.334l.955-1.954 5.518-11.129 2.477-5.04H88.8l-14.121.043a3.476 3.476 0 1 0 0 6.952l8.516-.043-2.085 4.214H70.162l-5.432-9.559 5.475-9.906h11.648l2.715 5.572h7l-4.41-10.568-.958-1.956H66.078m35.214-.043a3.61 3.61 0 0 0-3.433 3.519v9.058h6.952v-9.058a3.615 3.615 0 0 0-3.519-3.519m11.143 33.535a3.477 3.477 0 0 1-3.475-3.476V50.785a3.476 3.476 0 0 1 6.952 0V68.9l20.571-20.572a3.475 3.475 0 0 1 5.933 2.458v26.506a3.476 3.476 0 0 1-6.952 0V59.178L114.893 79.75a3.476 3.476 0 0 1-2.459 1.018m55.73-16.756 10.813-10.774a3.476 3.476 0 1 0-4.906-4.925l-10.83 10.792-10.83-10.792a3.476 3.476 0 0 0-4.908 4.925l10.813 10.774-10.781 10.743a3.476 3.476 0 1 0 4.907 4.924l10.8-10.76 10.8 10.76a3.476 3.476 0 0 0 4.908-4.923l-10.786-10.744m-66.872 16.657a3.61 3.61 0 0 1-3.433-3.519V62.6h6.952v14.55a3.618 3.618 0 0 1-3.519 3.519" fill="#090"/>
</svg>
