<svg xmlns="http://www.w3.org/2000/svg" width="200" height="128">
	<path d="M99.788 20.657a4.087 4.087 0 0 0-1.558.394L76.979 31.205a4.041 4.041 0 0 0-2.2 2.734l-5.241 22.809a4 4 0 0 0 .551 3.09q.108.166.231.321l14.71 18.289a4.077 4.077 0 0 0 3.177 1.516h23.588a4.08 4.08 0 0 0 3.178-1.514l14.7-18.292a4 4 0 0 0 .786-3.41l-5.251-22.809a4.036 4.036 0 0 0-2.2-2.734l-21.25-10.154a4.1 4.1 0 0 0-1.97-.394z" fill="#326ce5"/>
	<path d="M99.776 19.006a4.3 4.3 0 0 0-1.641.418L75.7 30.141a4.258 4.258 0 0 0-2.321 2.886l-5.535 24.078a4.225 4.225 0 0 0 .582 3.264 4.007 4.007 0 0 0 .244.337L84.2 80.014a4.306 4.306 0 0 0 3.354 1.6l24.9-.006a4.3 4.3 0 0 0 3.353-1.6L131.328 60.7a4.229 4.229 0 0 0 .829-3.6l-5.542-24.08a4.258 4.258 0 0 0-2.321-2.884l-22.436-10.715a4.322 4.322 0 0 0-2.082-.415zm.011 1.652a4.1 4.1 0 0 1 1.971.394L123.012 31.2a4.034 4.034 0 0 1 2.2 2.734l5.251 22.808a4 4 0 0 1-.785 3.411l-14.7 18.292a4.078 4.078 0 0 1-3.178 1.515l-23.589.005a4.076 4.076 0 0 1-3.177-1.517L70.32 60.16q-.123-.154-.231-.321a4.006 4.006 0 0 1-.552-3.09L74.78 33.94a4.038 4.038 0 0 1 2.2-2.734l21.25-10.154a4.082 4.082 0 0 1 1.557-.394z" fill="#fff"/>
	<path d="M100 28.419a1.349 1.349 0 0 0-1.272 1.414v.035c0 .106-.006.234 0 .326A10.654 10.654 0 0 0 98.9 31.4a11.92 11.92 0 0 1 .142 2.308 1.386 1.386 0 0 1-.414.658l-.029.538a16.562 16.562 0 0 0-2.3.353 16.365 16.365 0 0 0-8.311 4.748c-.141-.1-.386-.272-.459-.326a1 1 0 0 1-.756-.073 11.87 11.87 0 0 1-1.715-1.549 10.611 10.611 0 0 0-.837-.889c-.078-.067-.2-.157-.283-.226a1.509 1.509 0 0 0-.886-.334 1.224 1.224 0 0 0-1.013.448 1.349 1.349 0 0 0 .312 1.876l.019.013c.084.068.187.155.264.212a10.4 10.4 0 0 0 1.054.617 11.914 11.914 0 0 1 1.892 1.329 1.419 1.419 0 0 1 .255.734l.408.364a16.463 16.463 0 0 0-2.595 11.475l-.533.155a1.777 1.777 0 0 1-.546.552 11.889 11.889 0 0 1-2.281.375 10.666 10.666 0 0 0-1.22.1c-.1.018-.233.054-.34.079h-.011l-.019.006a1.276 1.276 0 1 0 .566 2.478h.019l.024-.008c.105-.023.237-.049.329-.074a10.484 10.484 0 0 0 1.141-.437A11.954 11.954 0 0 1 83 56.25a1.4 1.4 0 0 1 .731.259l.555-.1a16.559 16.559 0 0 0 7.335 9.16l-.231.554a1.254 1.254 0 0 1 .113.719 12.327 12.327 0 0 1-1.151 2.07 10.634 10.634 0 0 0-.682 1.016c-.05.095-.115.242-.163.343a1.277 1.277 0 1 0 2.3 1.09c.048-.1.117-.23.158-.323a10.751 10.751 0 0 0 .367-1.166 8.863 8.863 0 0 1 .984-2.285 1.024 1.024 0 0 1 .549-.267l.288-.522a16.475 16.475 0 0 0 11.738.03c.081.143.232.419.272.489a1.006 1.006 0 0 1 .65.394 11.934 11.934 0 0 1 .872 2.139 10.565 10.565 0 0 0 .37 1.166c.041.094.109.226.157.326a1.278 1.278 0 1 0 2.3-1.087c-.049-.1-.116-.247-.166-.343a10.771 10.771 0 0 0-.682-1.013 11.9 11.9 0 0 1-1.128-2.02.992.992 0 0 1 .1-.75 4.082 4.082 0 0 1-.212-.514 16.549 16.549 0 0 0 7.332-9.224c.165.026.451.076.544.095a1 1 0 0 1 .7-.266 11.954 11.954 0 0 1 2.218.653 10.488 10.488 0 0 0 1.141.44c.092.025.224.048.329.071l.025.008h.019a1.277 1.277 0 1 0 .565-2.479c-.109-.025-.264-.067-.37-.087a10.648 10.648 0 0 0-1.22-.1 11.864 11.864 0 0 1-2.28-.375 1.425 1.425 0 0 1-.549-.552l-.514-.149a16.518 16.518 0 0 0-2.65-11.448c.132-.12.381-.34.451-.405a1 1 0 0 1 .24-.72 11.837 11.837 0 0 1 1.891-1.329 10.829 10.829 0 0 0 1.057-.617c.082-.061.194-.157.28-.226a1.278 1.278 0 1 0-1.584-1.989l-.283.225a10.827 10.827 0 0 0-.84.889 11.854 11.854 0 0 1-1.715 1.552 1.409 1.409 0 0 1-.772.084l-.483.345a16.674 16.674 0 0 0-10.559-5.1c-.012-.17-.026-.476-.03-.568a1.006 1.006 0 0 1-.416-.636 11.935 11.935 0 0 1 .149-2.307 10.654 10.654 0 0 0 .174-1.209v-.361A1.348 1.348 0 0 0 100 28.419zm-1.592 9.866-.378 6.673-.03.013a1.122 1.122 0 0 1-1.781.859l-.01.005-5.472-3.878a13.114 13.114 0 0 1 6.311-3.438 13.468 13.468 0 0 1 1.358-.234zm3.188 0a13.211 13.211 0 0 1 7.621 3.675l-5.436 3.854-.019-.008a1.123 1.123 0 0 1-1.538-.207 1.109 1.109 0 0 1-.245-.65h-.006zm-12.84 6.164 5 4.468-.006.028a1.121 1.121 0 0 1-.44 1.927v.021l-6.4 1.849a13.105 13.105 0 0 1 1.859-8.293zm22.453 0a13.339 13.339 0 0 1 1.916 8.268l-6.436-1.854v-.027a1.122 1.122 0 0 1-.441-1.927v-.014l4.968-4.446zm-12.235 4.814h2.046l1.272 1.59-.456 1.984-1.836.883-1.842-.886-.458-1.984zm6.561 5.441a1.062 1.062 0 0 1 .258.019l.011-.014 6.623 1.12a13.119 13.119 0 0 1-5.3 6.662l-2.572-6.211.009-.011a1.124 1.124 0 0 1 .973-1.565zm-11.125.027a1.123 1.123 0 0 1 1.077.872 1.111 1.111 0 0 1-.063.691l.019.024-2.543 6.148a13.168 13.168 0 0 1-5.286-6.615l6.566-1.115.011.014a1.182 1.182 0 0 1 .22-.019zm5.548 2.693a1.134 1.134 0 0 1 1.027.59h.024l3.237 5.849c-.42.141-.852.261-1.293.362a13.158 13.158 0 0 1-7.178-.37L99 58.017a1.126 1.126 0 0 1 .958-.593z" fill="#fff"/>
	<path d="M21.729 95.558h2.189l2.465 4.7.934 2.075h.058c-.1-1-.272-2.322-.272-3.436v-3.339h2.035v9.448h-2.189l-2.465-4.706-.935-2.064h-.058c.1 1.042.273 2.308.273 3.421v3.354h-2.035zm9.2 4.779c0-3.135 2.082-4.953 4.605-4.953a4.1 4.1 0 0 1 2.981 1.226l-1.126 1.37a2.451 2.451 0 0 0-1.784-.751c-1.454 0-2.487 1.142-2.487 3.036 0 1.942.88 3.071 2.658 3.071a1.711 1.711 0 0 0 1-.281v-1.632h-1.569V99.68h3.462v4.355a4.555 4.555 0 0 1-3.117 1.145c-2.603 0-4.627-1.661-4.627-4.843zm9.7-4.779h2.136v9.448h-2.143zm4.365 0h2.189l2.465 4.7.934 2.075h.058c-.1-1-.273-2.322-.273-3.436v-3.339H52.4v9.448h-2.193l-2.465-4.706-.935-2.064h-.058c.1 1.042.273 2.308.273 3.421v3.354h-2.035zm11.305 4.586-2.458-4.586h2.38l.822 1.787c.213.434.416.921.687 1.514h.058c.218-.593.416-1.08.605-1.514l.75-1.787h2.28l-2.458 4.686 2.613 4.762h-2.38l-.933-1.927a39.103 39.103 0 0 1-.707-1.555H57.5c-.223.58-.437 1.068-.65 1.555l-.885 1.927h-2.286zm9.458-4.586h2.136v9.448H65.75zm4.188 2.256h1.738l.153.911h.053a3.294 3.294 0 0 1 2.311-1.084c1.564 0 2.231 1.1 2.231 2.9v4.465h-2.138v-4.192c0-1.035-.278-1.359-.894-1.359a1.827 1.827 0 0 0-1.331.7v4.852h-2.13zm7.852 8.426a1.669 1.669 0 0 1 1.02-1.447v-.059a1.392 1.392 0 0 1-.657-1.22 1.75 1.75 0 0 1 .8-1.348v-.058a2.3 2.3 0 0 1-.966-1.866 2.68 2.68 0 0 1 2.974-2.6 3.5 3.5 0 0 1 1.114.173h2.63v1.552h-1.161a1.886 1.886 0 0 1 .244.948c0 1.655-1.259 2.416-2.832 2.416a3.071 3.071 0 0 1-.878-.139.615.615 0 0 0-.25.535c0 .354.29.527 1.076.527h1.166c1.764 0 2.746.54 2.746 1.828 0 1.5-1.557 2.582-4.025 2.582-1.673-.001-3.008-.544-3.008-1.824zm4.993-.395c0-.453-.389-.558-1.1-.558h-.75a3.794 3.794 0 0 1-1.008-.092.909.909 0 0 0-.389.706c0 .545.631.825 1.595.825s1.645-.383 1.645-.881zm-.838-5.6c0-.765-.416-1.169-.982-1.169s-.981.4-.981 1.169c0 .788.421 1.2.981 1.2s.975-.415.975-1.203zm4.029-2.428h1.738l.154 1.257h.053a2.428 2.428 0 0 1 2.043-1.43 2 2 0 0 1 .858.144l-.355 1.839a2.975 2.975 0 0 0-.776-.116 1.783 1.783 0 0 0-1.584 1.33v4.168h-2.138zm5.208 3.6a3.533 3.533 0 0 1 3.392-3.771c2.049 0 3.064 1.488 3.064 3.451a4.8 4.8 0 0 1-.089.941h-4.3a1.735 1.735 0 0 0 1.865 1.523 2.994 2.994 0 0 0 1.555-.471l.7 1.285a4.684 4.684 0 0 1-2.552.81 3.506 3.506 0 0 1-3.642-3.773zm4.635-.788c0-.79-.344-1.359-1.195-1.359a1.427 1.427 0 0 0-1.4 1.359zm2.658 3.552.959-1.328a3.116 3.116 0 0 0 1.855.756c.634 0 .909-.243.909-.62 0-.473-.713-.688-1.453-.978-.882-.341-1.9-.926-1.9-2.114 0-1.339 1.088-2.251 2.747-2.251a4.089 4.089 0 0 1 2.535.91l-.954 1.279a2.675 2.675 0 0 0-1.514-.613c-.551 0-.822.215-.822.574 0 .458.674.634 1.419.905.911.337 1.937.85 1.937 2.164s-1.026 2.32-2.954 2.32a4.667 4.667 0 0 1-2.771-1.009zm6.423 0 .959-1.328a3.119 3.119 0 0 0 1.855.756c.635 0 .909-.243.909-.62 0-.473-.713-.688-1.453-.978-.881-.341-1.9-.926-1.9-2.114 0-1.339 1.089-2.251 2.748-2.251a4.086 4.086 0 0 1 2.534.91l-.953 1.279a2.68 2.68 0 0 0-1.514-.613c-.551 0-.822.215-.822.574 0 .458.673.634 1.419.905.91.337 1.937.85 1.937 2.164s-1.027 2.32-2.954 2.32a4.67 4.67 0 0 1-2.77-1.009zm9.69-3.839c0-3.135 2.073-4.953 4.46-4.953a3.989 3.989 0 0 1 2.842 1.226l-1.126 1.37a2.376 2.376 0 0 0-1.668-.751c-1.3 0-2.319 1.142-2.319 3.036 0 1.942.9 3.071 2.285 3.071a2.49 2.49 0 0 0 1.848-.884l1.126 1.341a3.888 3.888 0 0 1-3.051 1.387c-2.403-.005-4.404-1.666-4.404-4.848zm8.29 1.075a3.513 3.513 0 1 1 3.5 3.768 3.527 3.527 0 0 1-3.507-3.773zm4.823 0c0-1.244-.438-2.053-1.32-2.053s-1.319.809-1.319 2.053.438 2.048 1.319 2.048 1.312-.808 1.312-2.053zm3.643-3.6h1.739l.153.911h.053a3.294 3.294 0 0 1 2.311-1.084c1.564 0 2.231 1.1 2.231 2.9v4.465H135.7v-4.192c0-1.035-.279-1.359-.894-1.359a1.827 1.827 0 0 0-1.331.7v4.852h-2.131zm8.582 4.577v-2.908h-.983V97.9l1.1-.082.249-1.91h1.763v1.91h1.724v1.672h-1.724v2.879c0 .816.37 1.143.931 1.143a2.137 2.137 0 0 0 .683-.137l.336 1.548a5.069 5.069 0 0 1-1.6.261c-1.78-.004-2.486-1.126-2.486-2.793zm5.265-4.577h1.739l.153 1.257h.053a2.43 2.43 0 0 1 2.043-1.43 2 2 0 0 1 .858.144l-.355 1.839a2.975 2.975 0 0 0-.776-.116 1.785 1.785 0 0 0-1.584 1.33v4.168h-2.131zm5.208 3.6a3.513 3.513 0 1 1 3.5 3.768 3.527 3.527 0 0 1-3.506-3.773zm4.823 0c0-1.244-.438-2.053-1.32-2.053s-1.319.809-1.319 2.053.438 2.048 1.319 2.048 1.313-.808 1.313-2.053zm3.527 1.359v-7.92h2.131v8.007c0 .457.211.6.385.6a.929.929 0 0 0 .261-.029l.247 1.566a2.727 2.727 0 0 1-1.07.178c-1.461.002-1.961-.951-1.961-2.407zm4.147 0v-7.92h2.13v8.007c0 .457.212.6.386.6a.922.922 0 0 0 .26-.029l.255 1.571a2.731 2.731 0 0 1-1.07.178c-1.464-.003-1.964-.956-1.964-2.412zm3.729-1.359a3.532 3.532 0 0 1 3.392-3.771c2.048 0 3.063 1.488 3.063 3.451a4.8 4.8 0 0 1-.089.941h-4.3a1.735 1.735 0 0 0 1.865 1.523 2.994 2.994 0 0 0 1.555-.471l.7 1.285a4.682 4.682 0 0 1-2.552.81 3.505 3.505 0 0 1-3.641-3.773zm4.634-.788c0-.79-.344-1.359-1.195-1.359a1.427 1.427 0 0 0-1.4 1.359zm3.3-2.81h1.738l.153 1.257h.054a2.427 2.427 0 0 1 2.043-1.43 2 2 0 0 1 .857.144l-.355 1.839a2.968 2.968 0 0 0-.775-.116 1.783 1.783 0 0 0-1.584 1.33v4.168h-2.131z"/>
</svg>
