<svg xmlns="http://www.w3.org/2000/svg" xml:space="preserve" width="680.315" height="151.181">
	<defs>
		<clipPath clipPathUnits="userSpaceOnUse" id="a">
			<path d="M0 113.386h510.236V0H0Z"/>
		</clipPath>
	</defs>
	<path d="M0 0h11.232l21.571-34.146V0h10.531v-50.484H32.038L10.594-16.466v-34.018H0Z" style="fill:#253c7d;fill-opacity:1;fill-rule:nonzero;stroke:none" transform="matrix(1.33333 0 0 -1.33333 29.642 43.48)"/>
	<path d="M75.521 80.776h11.232V30.292H75.521Z" style="fill:#253c7d;fill-opacity:1;fill-rule:nonzero;stroke:none" transform="matrix(1.33333 0 0 -1.33333 0 151.181)"/>
	<path d="m0 0-13.72-38.166h-11.425l19.466 50.484H5.873l19.209-50.484H13.34Z" style="fill:#253c7d;fill-opacity:1;fill-rule:nonzero;stroke:none" transform="matrix(1.33333 0 0 -1.33333 155.24 59.904)"/>
	<path d="m0 0 3-8.231h-26.87L-20.933 0Z" style="fill:#253c7d;fill-opacity:1;fill-rule:nonzero;stroke:none" transform="matrix(1.33333 0 0 -1.33333 169.027 89.008)"/>
	<path d="M0 0h2.357l4.498-7.231h.03V0h2.217v-10.778h-2.37L2.25-3.563h-.031v-7.215H0Z" style="fill:#0068b0;fill-opacity:1;fill-rule:nonzero;stroke:none" transform="matrix(1.33333 0 0 -1.33333 214.43 96.371)"/>
	<path d="M0 0h2.791L1.434 3.953h-.031Zm.226 6.61h2.428L6.687-4.168H4.225l-.816 2.401H-.619l-.846-2.401h-2.402z" style="fill:#0068b0;fill-opacity:1;fill-rule:nonzero;stroke:none" transform="matrix(1.33333 0 0 -1.33333 232.967 105.185)"/>
	<path d="M0 0h-3.23v1.991H5.6V0H2.368v-8.787H0Z" style="fill:#0068b0;fill-opacity:1;fill-rule:nonzero;stroke:none" transform="matrix(1.33333 0 0 -1.33333 244.82 99.026)"/>
	<path d="M190.451 41.107h2.371V30.328h-2.371z" style="fill:#0068b0;fill-opacity:1;fill-rule:nonzero;stroke:none" transform="matrix(1.33333 0 0 -1.33333 0 151.181)"/>
	<g clip-path="url(#a)" transform="matrix(1.33333 0 0 -1.33333 0 151.181)">
		<path d="M0 0c2.128 0 2.926 1.809 2.926 3.607 0 1.887-.798 3.697-2.926 3.697s-2.928-1.81-2.928-3.697C-2.928 1.809-2.128 0 0 0m0 9.297c3.336 0 5.298-2.49 5.298-5.69 0-3.111-1.962-5.6-5.298-5.6-3.336 0-5.299 2.489-5.299 5.6 0 3.2 1.963 5.69 5.299 5.69" style="fill:#0068b0;fill-opacity:1;fill-rule:nonzero;stroke:none" transform="translate(199.735 32.067)"/>
		<path d="M0 0h2.354l4.498-7.231h.029V0h2.221v-10.778H6.731L2.25-3.563h-.031v-7.215H0Z" style="fill:#0068b0;fill-opacity:1;fill-rule:nonzero;stroke:none" transform="translate(206.648 41.107)"/>
		<path d="M0 0h2.791L1.433 3.953h-.03Zm.226 6.61h2.427L6.687-4.168H4.226L3.41-1.767H-.619l-.845-2.401h-2.401z" style="fill:#0068b0;fill-opacity:1;fill-rule:nonzero;stroke:none" transform="translate(220.549 34.497)"/>
		<path d="M0 0h2.37v-8.783h5.253v-1.995H0Z" style="fill:#0068b0;fill-opacity:1;fill-rule:nonzero;stroke:none" transform="translate(228.17 41.107)"/>
		<path d="M241.316 41.107h2.372V30.328h-2.372z" style="fill:#0068b0;fill-opacity:1;fill-rule:nonzero;stroke:none"/>
		<path d="M0 0h2.357l4.498-7.231h.03V0h2.219v-10.778H6.733L2.254-3.563h-.032v-7.215H0Z" style="fill:#0068b0;fill-opacity:1;fill-rule:nonzero;stroke:none" transform="translate(245.767 41.107)"/>
		<path d="M0 0h7.576v-1.991H2.37v-2.491h4.514v-1.843H2.37v-4.453H0Z" style="fill:#0068b0;fill-opacity:1;fill-rule:nonzero;stroke:none" transform="translate(256.956 41.107)"/>
		<path d="M0 0c2.129 0 2.93 1.809 2.93 3.607 0 1.887-.801 3.697-2.93 3.697-2.125 0-2.929-1.81-2.929-3.697C-2.929 1.809-2.125 0 0 0m0 9.297c3.34 0 5.298-2.49 5.298-5.69 0-3.111-1.958-5.6-5.298-5.6-3.332 0-5.299 2.489-5.299 5.6 0 3.2 1.967 5.69 5.299 5.69" style="fill:#0068b0;fill-opacity:1;fill-rule:nonzero;stroke:none" transform="translate(270.734 32.067)"/>
		<path d="M0 0h2.597c1.052 0 1.628.448 1.628 1.536 0 1.043-.576 1.494-1.628 1.494H0Zm-2.373 4.873h5.811c1.931 0 3.154-1.342 3.154-2.976C6.592.631 6.081-.32 4.887-.8v-.031c1.162-.303 1.496-1.435 1.571-2.523.045-.677.031-1.946.453-2.551H4.539c-.287.682-.256 1.721-.379 2.583-.161 1.132-.602 1.629-1.794 1.629H0v-4.212h-2.373z" style="fill:#0068b0;fill-opacity:1;fill-rule:nonzero;stroke:none" transform="translate(280.02 36.234)"/>
		<path d="M0 0h3.341L5.86-7.409h.031L8.274 0h3.335v-10.778H9.39v7.64h-.029l-2.639-7.64H4.894l-2.64 7.563h-.031v-7.563H0Z" style="fill:#0068b0;fill-opacity:1;fill-rule:nonzero;stroke:none" transform="translate(288.541 41.107)"/>
		<path d="M0 0h2.792L1.437 3.953h-.033Zm.228 6.61h2.429l4.03-10.778H4.228l-.815 2.401h-4.03l-.847-2.401H-3.86Z" style="fill:#0068b0;fill-opacity:1;fill-rule:nonzero;stroke:none" transform="translate(304.95 34.497)"/>
		<path d="M0 0h-3.229v1.991H5.6V0H2.374v-8.787H0Z" style="fill:#0068b0;fill-opacity:1;fill-rule:nonzero;stroke:none" transform="translate(313.84 39.116)"/>
		<path d="M320.68 41.107h2.368V30.328h-2.368z" style="fill:#0068b0;fill-opacity:1;fill-rule:nonzero;stroke:none"/>
		<path d="M0 0c2.127 0 2.927 1.809 2.927 3.607 0 1.887-.8 3.697-2.927 3.697-2.128 0-2.931-1.81-2.931-3.697C-2.931 1.809-2.128 0 0 0m0 9.297c3.337 0 5.298-2.49 5.298-5.69 0-3.111-1.961-5.6-5.298-5.6-3.337 0-5.295 2.489-5.295 5.6 0 3.2 1.958 5.69 5.295 5.69" style="fill:#0068b0;fill-opacity:1;fill-rule:nonzero;stroke:none" transform="translate(329.962 32.067)"/>
		<path d="M0 0h2.355l4.501-7.231h.027V0h2.22v-10.778H6.734L2.249-3.563H2.22v-7.215H0Z" style="fill:#0068b0;fill-opacity:1;fill-rule:nonzero;stroke:none" transform="translate(336.873 41.107)"/>
		<path d="M0 0c0-1.435 1.116-1.995 2.385-1.995.832 0 2.101.244 2.101 1.345C4.486.511 2.87.711 1.285 1.132c-1.602.422-3.217 1.041-3.217 3.061 0 2.206 2.083 3.263 4.031 3.263 2.249 0 4.318-.98 4.318-3.472H4.12c-.074 1.3-.993 1.632-2.127 1.632-.754 0-1.631-.318-1.631-1.225 0-.828.511-.934 3.215-1.629.784-.196 3.201-.694 3.201-3.141 0-1.976-1.556-3.455-4.483-3.455-2.387 0-4.618 1.177-4.588 3.834z" style="fill:#0068b0;fill-opacity:1;fill-rule:nonzero;stroke:none" transform="translate(353.87 33.908)"/>
		<path d="M0 0c2.13 0 2.931 1.809 2.931 3.607 0 1.887-.801 3.697-2.931 3.697-2.126 0-2.925-1.81-2.925-3.697C-2.925 1.809-2.126 0 0 0m0 9.297c3.336 0 5.299-2.49 5.299-5.69 0-3.111-1.963-5.6-5.299-5.6-3.333 0-5.294 2.489-5.294 5.6 0 3.2 1.961 5.69 5.294 5.69" style="fill:#0068b0;fill-opacity:1;fill-rule:nonzero;stroke:none" transform="translate(366.88 32.067)"/>
		<path d="M0 0c-.148 1.071-1.175 1.885-2.354 1.885-2.126 0-2.927-1.81-2.927-3.697 0-1.798.801-3.607 2.927-3.607 1.45 0 2.265.996 2.447 2.413H2.39C2.145-5.691.286-7.412-2.354-7.412c-3.333 0-5.294 2.489-5.294 5.6 0 3.2 1.961 5.69 5.294 5.69C.017 3.878 2.012 2.489 2.298 0z" style="fill:#0068b0;fill-opacity:1;fill-rule:nonzero;stroke:none" transform="translate(380.976 37.486)"/>
		<path d="M384.977 41.107h2.372V30.328h-2.372z" style="fill:#0068b0;fill-opacity:1;fill-rule:nonzero;stroke:none"/>
		<path d="M0 0h8.06v-1.991H2.371v-2.311h5.22v-1.842h-5.22v-2.639h5.81v-1.995H0Z" style="fill:#0068b0;fill-opacity:1;fill-rule:nonzero;stroke:none" transform="translate(389.432 41.107)"/>
		<path d="M0 0h-3.23v1.991H5.6V0H2.37v-8.787H0Z" style="fill:#0068b0;fill-opacity:1;fill-rule:nonzero;stroke:none" transform="translate(401.596 39.116)"/>
		<path d="m0 0-3.969 6.581h2.672l2.52-4.257 2.506 4.257H6.37L2.374-.062v-4.135H0z" style="fill:#0068b0;fill-opacity:1;fill-rule:nonzero;stroke:none" transform="translate(411.225 34.526)"/>
		<path d="M0 0h2.793L1.434 3.953h-.032Zm.228 6.61h2.428L6.688-4.168H4.227L3.41-1.767H-.62l-.843-2.401h-2.401z" style="fill:#0068b0;fill-opacity:1;fill-rule:nonzero;stroke:none" transform="translate(425.414 34.497)"/>
		<path d="M0 0c-.829-1.071-1.916-1.479-2.956-1.479-3.336 0-5.301 2.49-5.301 5.601 0 3.199 1.965 5.689 5.301 5.689 2.203 0 4.284-1.36 4.54-3.802H-.679C-.949 7.2-1.841 7.818-2.956 7.818c-2.131 0-2.93-1.809-2.93-3.696 0-1.799.799-3.608 2.93-3.608 1.537 0 2.429.83 2.562 2.325h-2.382v1.764h4.527v-5.827H.241z" style="fill:#0068b0;fill-opacity:1;fill-rule:nonzero;stroke:none" transform="translate(440.824 31.553)"/>
		<path d="M0 0h8.06v-1.991H2.369v-2.311h5.222v-1.842H2.369v-2.639H8.18v-1.995H0Z" style="fill:#0068b0;fill-opacity:1;fill-rule:nonzero;stroke:none" transform="translate(444.492 41.107)"/>
		<path d="M0 0h2.354l4.502-7.231h.029V0h2.218v-10.778H6.734L2.251-3.563h-.03v-7.215H0Z" style="fill:#0068b0;fill-opacity:1;fill-rule:nonzero;stroke:none" transform="translate(454.271 41.107)"/>
		<path d="M0 0c-.153 1.071-1.177 1.885-2.358 1.885-2.127 0-2.925-1.81-2.925-3.697 0-1.798.798-3.607 2.925-3.607 1.451 0 2.266.996 2.446 2.413h2.296C2.142-5.691.282-7.412-2.358-7.412c-3.333 0-5.296 2.489-5.296 5.6 0 3.2 1.963 5.69 5.296 5.69 2.373 0 4.364-1.389 4.65-3.878z" style="fill:#0068b0;fill-opacity:1;fill-rule:nonzero;stroke:none" transform="translate(472.643 37.486)"/>
		<path d="m0 0-3.968 6.581h2.671l2.521-4.257 2.504 4.257H6.37L2.369-.062v-4.135H0z" style="fill:#0068b0;fill-opacity:1;fill-rule:nonzero;stroke:none" transform="translate(479.433 34.526)"/>
		<path d="M0 0c0 2.605 1.912 4.234 4.234 4.234C6.595 4.234 8.51 2.605 8.51 0c0-2.565-1.915-4.194-4.276-4.194C1.912-4.194 0-2.565 0 0m-4.888 0c0-4.48 4.114-7.371 9.122-7.371 5.05 0 9.204 2.891 9.204 7.371 0 4.479-4.154 7.411-9.204 7.411-5.008 0-9.122-2.932-9.122-7.411m-26.96-.489c0 2.239 1.996 3.747 4.48 3.747 2.445 0 4.439-1.508 4.439-3.747 0-2.24-1.994-3.705-4.439-3.705-2.484 0-4.48 1.465-4.48 3.705m-4.886 0c0-4.155 4.113-6.882 9.366-6.882 5.213 0 9.367 2.727 9.367 6.882 0 4.195-4.154 6.923-9.367 6.923-5.253 0-9.366-2.728-9.366-6.923m185.37-.203c0 2.116 2.077 3.542 4.479 3.542 2.364 0 4.44-1.426 4.44-3.542 0-2.119-2.076-3.502-4.44-3.502-2.402 0-4.479 1.383-4.479 3.502m-4.886 0c0-4.034 4.153-6.679 9.365-6.679 5.173 0 9.367 2.645 9.367 6.679 0 4.071-4.194 6.719-9.367 6.719-5.212 0-9.365-2.648-9.365-6.719M86.126 15.027c0 2.565 1.263 4.111 2.974 4.111 1.67 0 2.932-1.546 2.932-4.111 0-2.525-1.262-4.073-2.932-4.073-1.711 0-2.974 1.548-2.974 4.073m.407 6.922h5.131v4.847h-5.131Zm-5.293-7.004c0-4.357 3.462-7.167 7.86-7.167 4.359 0 7.86 2.81 7.86 7.167 0 4.357-3.501 7.207-7.86 7.207-4.398 0-7.86-2.85-7.86-7.207m17.267 7.412H79.694v-3.219h18.813ZM91.542 9.121h-4.886V2.117h4.886zM45.975 4.032c7.452 1.384 11.688 7.248 11.688 14.211v7.25h-4.766v-8.105c0-4.52-2.483-8.959-6.922-10.099zm19.099 3.176c-4.561.977-7.332 5.904-7.332 10.588v7.697h-4.763V18.65c0-7.125 4.52-13.478 12.095-14.7zM-70.777 4.032c7.451 1.384 11.686 6.841 11.686 13.804v4.316h-4.763v-5.171c0-4.52-2.485-8.552-6.923-9.692zm19.098 3.176c-4.561.977-7.33 5.497-7.33 10.18v5.58h-4.764v-4.725c0-7.126 4.52-13.071 12.094-14.293zm161.142-.734c7.45 1.384 11.563 6.028 11.563 12.991v2.687h-4.765V18.61c0-4.521-2.361-7.737-6.798-8.877zm18.852 3.585c-4.56.977-7.208 4.274-7.208 8.959v3.95h-4.763v-3.095c0-7.127 4.398-11.852 11.971-13.072zM6.107 25.084h-16.453v-3.216H6.107Zm-17.553-16.94C-3.991 9.529.12 14.171.12 21.134v1.223h-4.763v-2.078c0-4.519-2.363-7.736-6.803-8.877zm18.49 3.665C2.604 12.948.201 16.167.201 20.688v2.483h-4.764v-1.629c0-6.964 4.154-11.605 11.607-12.99zM139.637 7.33H166.8v3.297h-27.163zm-68.372 7.085h5.942v3.3h-5.942zm1.22 11.443h-4.888V-5.863h4.888zm-105.553-.325h-4.929v-9.976c0-.572.205-.816.816-.816h21.419v3.218h-16.899c-.244 0-.407.163-.407.407zm-11.199.325h-4.887V-5.863h4.887zm-8.552-.774h-17.022v-3.216h17.022zm11.971-16.696h27.163v3.3h-27.163zm220.719-5.7h-4.969v-8.144c0-.53.245-.815.814-.815h20.321v3.216h-15.759c-.245 0-.407.163-.407.409zm-4.032 17.51c0 2.159 1.182 3.503 2.689 3.503 1.505 0 2.687-1.344 2.687-3.503 0-2.117-1.182-3.461-2.687-3.461-1.507 0-2.689 1.344-2.689 3.461m-4.886 0c0-4.031 3.38-6.638 7.575-6.638s7.615 2.607 7.615 6.638c0 4.032-3.42 6.678-7.615 6.678s-7.575-2.646-7.575-6.678m9.651-10.344h-4.889v-5.62h4.889zm-12.012-.976h19.912v3.297h-19.912zm23.089-1.833h-7.453V3.869h7.453zm-1.221-6.027h4.886v24.84h-4.886zm-40.846 16.9c0 1.709 1.547 2.851 3.501 2.851 1.915 0 3.462-1.142 3.462-2.851 0-1.71-1.547-2.81-3.462-2.81-1.954 0-3.501 1.1-3.501 2.81m.937 5.66h5.131v3.625h-5.131zm-5.783-5.863c0-3.463 3.707-5.743 8.347-5.743 4.563 0 8.35 2.28 8.35 5.743 0 3.502-3.787 5.782-8.35 5.782-4.64 0-8.347-2.28-8.347-5.782m19.342 6.066h-21.907v-3.013h21.907ZM120.865 4.927h-4.968V-5.456c0-.53.244-.815.815-.815h19.911v3.216h-15.352c-.245 0-.406.163-.406.409zm6.352 20.157h-16.859v-3.216h16.859zm3.829-22.315h4.886v23.089h-4.886zM78.877-.163h23.295v3.297H78.877Zm26.879 26.021h-4.889V-5.863h4.889zM11.361 15.515H4.518v3.176h6.843zm-1.223 10.343h4.889V7.37h-4.889zm14.457-9.487h14.133v3.257H24.595Zm16.859-8.553c.61 0 .814.245.814.815v16.451h-4.886V11.443c0-.245-.162-.407-.407-.407H26.264c-.243 0-.407.162-.407.407v13.641h-4.886V8.633c0-.57.204-.815.814-.815zm-7.37 1.63h-4.928V.651h4.928zM18.242-1.832h26.754v3.297H18.242Zm-102.784 13.07h-4.845V4.234h4.845zm-16.004-.854h27.163v3.3h-27.163zM-81 12.99h4.929v11.566c0 .57-.204.814-.815.814h-21.135v-3.218h16.614c.245 0 .407-.161.407-.406zm.042-19.67h4.927V4.234c0 .57-.285.815-.815.815h-20.727V1.833h16.208c.244 0 .407-.165.407-.409zm-46.303 21.34c0 2.728 1.345 4.478 3.014 4.478 1.629 0 2.974-1.75 2.974-4.478 0-2.688-1.345-4.439-2.974-4.439-1.669 0-3.014 1.751-3.014 4.439m19.181-.652h5.946v3.298h-5.946zm-18.733 7.941h5.131v4.847h-5.131zm-5.333-7.371c0-4.559 3.501-7.533 7.899-7.533 4.357 0 7.901 2.974 7.901 7.533 0 4.56-3.544 7.574-7.901 7.574-4.398 0-7.899-3.014-7.899-7.574m25.288 11.28h-4.887V2.769h4.887zm-7.779-3.501h-19.221v-3.219h19.221zm-7.167-17.838h-4.968v-9.975c0-.53.245-.815.815-.815h19.913v3.216h-15.352c-.245 0-.408.163-.408.409z" style="fill:#0068b0;fill-opacity:1;fill-rule:nonzero;stroke:none" transform="translate(289.752 56.063)"/>
	</g>
</svg>
