<svg xmlns="http://www.w3.org/2000/svg" width="215pt" height="259pt" viewBox="0 0 215 259">
	<path style="stroke:none;fill-rule:nonzero;fill:#100f0d;fill-opacity:1" d="m39.836 224.637-10.211-10.543-.04-.051h-1.347v17.602h3.668v-10.48L42 231.593l.047.05H43.5v-17.601h-3.664v10.594"/>
	<path style="stroke:none;fill-rule:nonzero;fill:#100f0d;fill-opacity:1" d="M56.691 231.645h3.653V214.03H56.69v17.614"/>
	<path style="stroke:none;fill-rule:nonzero;fill:#100f0d;fill-opacity:1" d="m83.457 225.223-4.715.058 2.41-6.183Zm6.203 6.406-6.77-17.484-.038-.102h-3.563l-6.727 17.371-.09.23h3.915l1-2.648h7.367l1 2.649 3.906-.016"/>
	<path style="stroke:none;fill-rule:nonzero;fill:#100f0d;fill-opacity:1" d="M115.617 231.645h1.445v-17.602h-3.656v10.594l-10.21-10.543-.048-.051h-1.34v17.602h3.665v-10.48l10.093 10.429.051.05"/>
	<path style="stroke:none;fill-rule:nonzero;fill:#100f0d;fill-opacity:1" d="M144.227 214.043h-14.813v3.559h5.574v14.043h3.66v-14.043h5.579v-3.559"/>
	<path style="stroke:none;fill-rule:nonzero;fill:#100f0d;fill-opacity:1" d="M156.441 231.645h3.649V214.03h-3.649v17.614"/>
	<path style="stroke:none;fill-rule:nonzero;fill:#100f0d;fill-opacity:1" d="M184.68 226.527c-1.067.887-2.34 1.332-3.797 1.332-1.45 0-2.637-.457-3.52-1.367-.886-.906-1.34-2.156-1.347-3.703 0-1.45.449-2.652 1.332-3.57.882-.926 2.066-1.395 3.515-1.406 1.426 0 2.711.457 3.817 1.351l.113.094 2.441-2.758-.125-.11c-1.722-1.558-3.824-2.347-6.246-2.347-2.394 0-4.433.855-6.054 2.531-1.621 1.68-2.45 3.778-2.457 6.238 0 2.512.824 4.63 2.449 6.301 1.629 1.668 3.664 2.52 6.062 2.532 2.418 0 4.52-.79 6.246-2.344l.125-.11-2.441-2.765-.113.101"/>
	<path style="stroke:none;fill-rule:nonzero;fill:#100f0d;fill-opacity:1" d="m146.68 85.21.808-2.815a38.805 38.805 0 0 0 2.086-7.442c12.422 6.871 16.75 11.106 17.688 12.738-2.371.899-9.625.184-20.582-2.48Zm-26.047-7.87a401.526 401.526 0 0 1-14.766-5.516c-8.137-3.222-15.449-6.414-21.879-9.457a404.368 404.368 0 0 1 22.172-6.23 417.477 417.477 0 0 1 14.203-3.328c.004.02.012.043.024.066 7.918-1.691 16.601-3.324 24.539-4.422l-.008-.016c12.008-1.593 20.066-1.683 22.984-.726-1.882 1.781-7.664 5.488-19.074 10.105a41.058 41.058 0 0 0-1.05-3.3c-7.567.078-15.548 1.168-25.837 3.785.457 2.289.727 4.668.727 7.133 0 4.238-.734 8.257-2.035 11.906ZM76.926 58.906c-.746-.375-1.473-.75-2.192-1.12 1.493-6.884 4.918-12.786 9.54-16.778-2.204 5.808-2.493 12.98-2.493 16.332-1.648.52-3.27 1.043-4.855 1.566Zm-8.082-4.297c-9.653-5.398-15.446-9.75-16.785-12.054 1.71-.278 6.808-.23 21.289 3.312a40.072 40.072 0 0 0-4.504 8.742Zm21.781-17.527c2.414-.977 4.984-1.527 7.664-1.527 8.063 0 15.188 4.812 19.621 12.207-4.387.96-8.781 2.004-13.094 3.09a423.836 423.836 0 0 0-19.699 5.457c.086-5.961 1.207-15.633 5.508-19.227Zm-3.086 66.047 5.43 41.82a63.928 63.928 0 0 0-1.864-.863L76.301 94.062a41.687 41.687 0 0 0 11.238 9.067Zm3.652 1.824-.027.016c5.031 1.715 7.95 5.851 8.844 9.93.035.617.113 1.203.262 1.706.003.07.023.137.027.2h.047c.355 1.054 1.02 1.742 2.203 1.742h11.547c1.183 0 1.851-.688 2.21-1.742h.048c.007-.07.023-.153.035-.223.136-.5.215-1.066.25-1.68.89-4.078 3.82-8.218 8.847-9.933l-.027-.016c.07-.035.148-.07.223-.105l-4.746 37.593c-9.29-7.23-20.309-11.875-20.688-12.066l2.055 20.977c-.633-.653-1.278-1.336-2.04-1.946-1.14-.914-2.406-1.75-3.683-2.508l-5.453-41.976c.023.008.047.02.066.031Zm26.29 66.152c-5.91-.21-12.235-.507-17.81-.738-.218-1.293-.581-5.012-1.07-8.012l4.747-.3.218 2.222c.024.344.114 1.332.114 1.332l.011-.004.004.063 14.657-1.344c-.43 2.707-.735 5.957-.872 6.781Zm-13.922-35.59c2.183 1.075 4.171 1.93 7.64 4.423 3.465 2.492 4.418 3.417 4.418 3.425 1.453 8.434-2.87 13.653-7.035 16.305a4.707 4.707 0 0 1-.336-.516c-.066-.117-1-1.82-2.742-4.09-.008-.027-.027-.039-.031-.058l-.723-7.277-1.188-12.145ZM88.684 159.48l-1.704-13.312c2.336.547 6.114 2.297 7.465 3.125.297.187.582.371.871.566.891.598 1.75 1.243 2.512 1.953.387.364.746.727 1.106 1.094a47.051 47.051 0 0 1 3.968 4.59c.285.375.559.738.793 1.059Zm61.48-90.421c.012-.325.035-.645.035-.973 0-1.629-.133-3.227-.328-4.809 25.582-10.164 24.399-15.207 24.008-16.863-.195-.836-.754-2.027-2.285-2.957-4.246-2.57-15.88-2.148-30.153-.07-7.656-9.551-19.632-15.715-33.117-15.715-12.41 0-23.562 5.219-31.23 13.504-25.246-6.395-28.84-4.164-30.305-1.301-.426.836-.789 2.207-.105 4.008 1.629 4.297 9.668 10.097 20.601 16.125-.168.804-.3 1.617-.422 2.437-2.34.88-4.57 1.758-6.66 2.63-17.683 7.37-19.332 11.5-18.61 14.562.352 1.5 1.25 5.289 13.9 5.289 3.679 0 8.355-.324 14.296-1.114.102.239.203.489.313.723l17.062 57.953c-2.574-.988-4.34-1.37-4.34-1.37l2.52 21.984.195-.016.004.101 8.11-.507 1.94 7.527c-1.316-.059-.425-.105-.976-.133-.265-.004-1.004-.531-1.387-.808-.843-.602-.96-1.235-2.09-1.274l-8.144-.375s-.047 1.098-.055 1.457c-.144 4.176 1.766 12.227 7.016 12.875.441.059 1.04.098 1.766.156 1.773 4.692 3.132 4.758 3.75 4.782.132.008.308.011.476.008 3.297-.047 10.63-1.508 18.371-3.036 2.203-.437 11.957-2.023 13.77-3.156 2.55-1.574 4.125-6.285 4.527-6.664.95-.52 8.406-3.156 9.035-3.418.778-.332 1.008-.402.856-.824-.238-.633-.438-.379-1.399-.172-.238.05-8.332 1.64-9.172 1.879-.257-.008-.32-.008-.402-.008-.09-.008-.187-.008-.894-.035-1.121-.04-6.532-.117-9.243-.211l2.075-7.395 13.37-1.23-.054-.059.211-.02s-.688-1.37-.91-1.776c-.117-.208-1.867-3.86-5.363-8.434 0 0-1.184-1.414-2.805-3.2l15.586-52.85c-.078-.02-.153-.036-.235-.056-.96-.23-1.984-.496-3-.753l-14.996 50.851a57.894 57.894 0 0 0-1.308-1.293l5.293-41.972a41.976 41.976 0 0 0 10.047-7.833 252.963 252.963 0 0 1-8.743-2.472v-.004c-1.058-.317-2.144-.656-3.234-.996v.008a379.878 379.878 0 0 1-12.684-4.23c-4.324 4.812-10.054 7.769-16.359 7.769-3.055 0-5.973-.707-8.664-1.97l-2.148-16.519a790.6 790.6 0 0 1-3.559-1.535l2.066 15.914c-5.55-4-9.703-10.61-11.316-18.457-2.79.907-5.32 1.75-7.531 2.528.207 1.113.476 2.207.777 3.289-13.387 1.675-19.062.668-20.691-.149 2.058-2.648 12.39-7.855 29.277-13.601a313.702 313.702 0 0 0 9.281 4.402c-.054.016-.105.035-.16.05.3.134.621.27.93.403l-.02-.105a389.64 389.64 0 0 0 17.317 7.336c5.12 2.027 42.152 16.441 59.78 16.437 4.442 0 7.661-.914 8.813-3.176 1.024-2.007 3.641-7.18-22.277-21.093"/>
</svg>
