<svg xmlns="http://www.w3.org/2000/svg" viewBox="69.23 69.23 898.04 234.04">
	<path d="M899.183 248.286v-21.068l17.334 17.335c10.666-5.067 17.201-15.201 17.201-27.868 0-18.534-14.134-31.601-34.267-31.601-20.136 0-34.27 13.067-34.27 31.601 0 18.533 14.134 31.601 34.002 31.601zm13.068 13.202c-4.134.799-8.402 1.199-12.8 1.199-29.603 0-51.07-19.334-51.07-46.002 0-26.668 21.467-46.001 51.07-46.001 29.6 0 51.067 19.333 51.067 46.001 0 17.068-8.8 31.069-22.8 39.069l9.2 9.2v21.2zm-132.533-15.734h22.8v-58.137h-22.8V173.35h62.669v14.266h-22.8v58.137h22.8v14.266h-62.67zm-77.997-48.403h15.334v8.933c4.799-6.933 12.933-10.933 23.334-10.933 17.335 0 28.268 11.067 28.268 28.534v36.135h-16.401v-35.6c0-10.4-6.267-16.267-17.068-16.267-10.8 0-17.066 5.867-17.066 16.267v35.601h-16.4zm-67.33 24.534h40.401c-1.734-9.733-8.534-14.8-20.135-14.8-11.6 0-18.533 5.067-20.266 14.8zm-16.268 6.8c0-20.266 14.267-33.334 36.534-33.334 21.867 0 36.002 12.933 36.002 33.067v5.2h-56.535c1.6 10.535 9.2 16.268 21.733 16.268 9.333 0 15.334-3.065 17.2-8.668h17.202c-2.534 12.802-15.735 20.802-34.402 20.802-22.534 0-37.734-13.467-37.734-33.335zm-74.397 11.734h16c1.2 6.935 6.668 10.002 18.134 10.002 10.935 0 16.801-2.802 16.801-7.735 0-4-3.468-5.734-9.734-6.401l-17.2-2c-13.068-1.465-23.469-4.933-23.469-18 0-13.2 11.735-20.934 31.869-20.934 20.667 0 32.002 7.333 33.067 21.334h-16c-1.2-6.933-6.133-9.734-17.067-9.734-10.8 0-16 2.667-16 7.734 0 4 3.334 5.6 9.732 6.4l17.202 2c13.068 1.467 23.466 4.933 23.466 18.001 0 13.201-12.133 20.934-32.667 20.934-20.934 0-32.8-7.466-34.134-21.6zm-26.399-67.069h16.401v86.67h-16.4zm-67.598 48.535h40.403c-1.735-9.733-8.535-14.8-20.136-14.8-11.6 0-18.533 5.067-20.267 14.8zm-16.266 6.8c0-20.266 14.266-33.334 36.533-33.334 21.868 0 36.002 12.933 36.002 33.067v5.2h-56.535c1.6 10.535 9.2 16.268 21.733 16.268 9.333 0 15.335-3.065 17.201-8.668h17.201c-2.533 12.802-15.734 20.802-34.402 20.802-22.534 0-37.733-13.467-37.733-33.335zm-27.465-31.334h16.4v62.67h-16.4zm-.267-24h16.934v16.266h-16.934zm-109.33 0h15.069l61.602 61.6v-61.6h16.8v86.67h-15.068l-61.602-61.603v61.602h-16.8v-86.67"/>
	<path fill="#00f000" d="M173.34 173.35V86.68l86.668 86.67.002 86.67zm-86.67 0V86.68l86.668 86.67.002 86.67-86.67-86.67"/>
</svg>
