<svg width="310" height="50" xmlns="http://www.w3.org/2000/svg">
	<defs>
		<linearGradient x1="50%" y1="0%" x2="50%" y2="100%" id="a">
			<stop stop-color="#32C5FF" offset="0%"/>
			<stop stop-color="#3370FF" offset="100%"/>
		</linearGradient>
	</defs>
	<g fill-rule="nonzero" fill="none">
		<path d="M0 12.284 21.278 0l21.275 12.283v6.965h-5.32v-3.894L21.277 6.141 5.32 15.355l-.002 8.213h4.396l5.056-5.054 1.41 3.275 4.46-10.636 2.9 12.643 2.924-6.241 3.719 6.727.727-.712 6.321-.001.001-.066h5.32v13.348L21.276 49.136 0 36.852v-4.838h5.319v1.767l15.955 9.212 15.96-9.214-.002-5.955h-4.584l-3.482 3.414-2.39-4.321-4.621 9.87L19.45 25l-3.213 7.669-2.893-6.712-1.867 1.868H0v-15.54Z" fill="url(#a)"/>
		<path d="M63.1 39.08V21.04l8.84 18.04h9.04V12.24h-7.12v18.28l-8.48-18.28h-9.4v26.84h7.12Zm30.72-21.32v-5.52h-7.4v5.52h7.4Zm0 21.32V19.44h-7.4v19.64h7.4Zm27.92 7.84V19.4H98.62v17.08h15.76v6.72H98.42v3.72h23.32Zm-7.36-14.12h-8.4v-9.68h8.4v9.68Zm19.08 6.28V23.2h8.8v15.88h7.36V19.44h-16.16v-7.16h-7.4v26.8h7.4Zm40.92 0v-3.76h-7.52V23.16h8.68V19.4h-8.68V15h-7.4v4.4h-6.68v3.76h6.68v15.92h14.92Zm12.64-21.32v-5.52h-7.4v5.52h7.4Zm0 21.32V19.44h-7.4v19.64h7.4Zm11.28-.04V23.2h9.24v15.84h7.4v-19.6h-24v19.6h7.36Zm43.84 7.88V19.4h-23.12v17.08h15.76v6.72h-15.96v3.72h23.32Zm-7.36-14.12h-8.4v-9.68h8.4v9.68Zm35.72 6.28v-3.76h-1.28V19.44h-22.84v3.76h15.48v3.56h-15.48v12.32h24.12Zm-8.64-3.76h-8.08v-4.84h8.08v4.84Zm18.8 3.76V12.24h-7.4v26.84h7.4Zm28.56 0v-3.76h-16.6V31.4h16.6V19.44h-24v19.64h24Zm-7.36-11.36h-9.24V23.2h9.24v4.52Z" fill="#515151"/>
	</g>
</svg>
