<svg xmlns="http://www.w3.org/2000/svg" xml:space="preserve" width="1037.213" height="433.36">
	<path d="M6744.04 1388.09v158.01l130.01-130.01c80 38 129.01 114.01 129.01 209.01 0 139.01-106.01 237.02-257.01 237.02-151.02 0-257.03-98.01-257.03-237.02 0-139 106.01-237.01 255.02-237.01zm98.01-99.02c-31-5.99-63.01-8.99-96-8.99-222.03 0-383.03 145.01-383.03 345.02 0 200.02 161 345.02 383.03 345.02 222.01 0 383.01-145 383.01-345.02 0-128.01-66-233.02-171-293.02l69-69v-159.01zm-994.02 118.01h171.01v436.04h-171.01v107h470.03v-107h-171.01v-436.04h171.01v-107h-470.03zm-584.99 363.03h115.01v-67c35.99 52 97 82 175.01 82 130.01 0 212.01-83 212.01-214.01v-271.02h-123.01v267.02c0 78-47 122-128.01 122-81 0-128-44-128-122v-267.02h-123.01Zm-504.99-184.01h303.02c-13.01 73-64.01 111.01-151.02 111.01-87 0-139-38.01-152-111.01zm-122.01-51c0 152 107 250.01 274.01 250.01 164.01 0 270.02-97 270.02-248.01v-39h-424.02c12-79.01 69-122.01 163-122.01 70 0 115.01 22.99 129.01 65.01h129.01c-19-96.02-118.01-156.02-258.02-156.02-169.01 0-283.01 101.01-283.01 250.02zm-557.99-88.01h120c9-52.01 50.01-75.01 136.01-75.01 82.01 0 126.01 21.01 126.01 58.01 0 30-26.01 43.01-73.01 48.01l-129 15c-98.01 10.99-176.02 37-176.02 135 0 99.01 88.01 157.01 239.02 157.01 155.01 0 240.02-55 248.01-160.01h-120.01c-8.99 52-45.99 73.01-128 73.01-81 0-120-20-120-58.01 0-30 25-42 72.99-48l129.02-15c98.01-11 176-37 176-135.01 0-99.01-91-157.01-245.01-157.01-157.01 0-246.01 56-256.01 162.01zm-198 503.03h123.01v-650.04h-123.01zm-507-364.02h303.03c-13.01 73-64.01 111.01-151.02 111.01-87 0-139-38.01-152.01-111.01zm-122-51c0 152 107 250.01 274.01 250.01 164.01 0 270.02-97 270.02-248.01v-39h-424.02c12-79.01 69-122.01 163-122.01 70 0 115.01 22.99 129.01 65.01h129.01c-19-96.02-118.01-156.02-258.02-156.02-169.01 0-283.01 101.01-283.01 250.02zm-205.99 235.01h123.01v-470.03h-123.01zm-2 180.01h127.01v-122h-127.01zm-819.99 0h113.01l462.03-462.02v462.02h126v-650.04H2811.1l-462.03 462.03v-462.03h-126v650.04" style="fill:#000;fill-opacity:1;fill-rule:nonzero;stroke:none" transform="matrix(.13333 0 0 -.13333 0 433.36)"/>
	<path d="M1300.08 1950.12v650.04l650.03-650.04.01-650.04zm-650.041 0v650.04l650.031-650.04.01-650.04-650.041 650.04" style="fill:#00f000;fill-opacity:1;fill-rule:nonzero;stroke:none" transform="matrix(.13333 0 0 -.13333 0 433.36)"/>
</svg>
