<svg xmlns="http://www.w3.org/2000/svg" width="200" height="128">
	<path d="M40.76 59.61h-5.38v14.06c-.37-.45-.55-.65-.71-.86l-7.74-10c-2.6-3.38-2.6-3.37-6.93-3.16V85.2h5.93V71.6c.39.45.59.68.78.92l9.37 11.89c.25.32.61.75.94.77 1.39.09 2.78 0 4.23 0 0-.56.07-.94.07-1.33v-23a1.75 1.75 0 0 0 0-.69c-.14-.16-.32-.55-.56-.55zM109.9 72c2.46-2.33 3.29-5 2.31-7.9a6.29 6.29 0 0 0-6.08-4.38c-4.25-.21-8.51-.05-12.87-.05v25.47c4.66 0 9.24.21 13.78-.07a6.62 6.62 0 0 0 6.38-5.31c.68-3.3-.42-5.68-3.52-7.76zm-10.82-5.11v-1c0-.67.28-.89.91-.88h4.45c1.45 0 2.43.9 2.46 2.26a2.47 2.47 0 0 1-2.42 2.63c-.77.07-1.56 0-2.34 0-3.06.03-3.06.03-3.06-3.01zm8.68 10.86a2.47 2.47 0 0 1-2.31 2c-1 .08-2 0-2.92 0v.09c-1.08-.07-2.61.27-3.12-.3s-.22-2.12-.33-3.23.24-1.47 1.35-1.39c1.36.09 2.73 0 4.09 0a6.87 6.87 0 0 1 2.25.49 1.93 1.93 0 0 1 .99 2.34zM67 59.06a13.35 13.35 0 1 0 13.35 13.33A13.36 13.36 0 0 0 67 59.06zm0 20.65a7.31 7.31 0 1 1 7.27-7.37A7.36 7.36 0 0 1 67 79.71zm66.35-.22V59.66h-5.73v25.52h17v-5.69z"/>
	<path fill="#b1d239" d="M160.73 59.11c-.67-4.15-4.15-7.58-8-8-5.55-.53-8.95 2.49-10.29 6.21A9.39 9.39 0 0 0 148 69.3a1.57 1.57 0 0 0 1.41-.16 28.72 28.72 0 0 0 1.88-3c-.68-.18-1.13-.29-1.58-.43a5.64 5.64 0 1 1 3.86-10.58 5.59 5.59 0 0 1 2.64 7.9c-1.06 1.87-2.23 3.67-3.35 5.51-.23.38-.43.78-.65 1.17l.19.27a26.12 26.12 0 0 0 2.87-.83 9.44 9.44 0 0 0 5.46-10.04z"/>
	<path fill="#b1d239" d="M154.25 60.42a3 3 0 0 0-2.95-3.13 2.91 2.91 0 0 0-3.07 3 3 3 0 0 0 6 .15z"/>
	<path fill="#94c53d" d="M151.29 44.33a2.66 2.66 0 0 0-2.85 2.73 2.8 2.8 0 1 0 5.59 0 2.7 2.7 0 0 0-2.74-2.73zm13.99 12.9A2.6 2.6 0 0 0 162.6 60a2.85 2.85 0 0 0 2.67 2.86 2.9 2.9 0 0 0 2.67-2.86 2.61 2.61 0 0 0-2.66-2.77z"/>
	<circle cx="177.79" cy="36.37" r="1.09" fill="#0092cc"/>
	<path fill="#7ab67e" d="M165.1 44.94a2.13 2.13 0 0 0 0 4.25 2.09 2.09 0 0 0 2.06-2.1 2.11 2.11 0 0 0-2.06-2.15z"/>
	<circle fill="#7ab67e" cx="151.26" cy="36.37" r="2.12" transform="rotate(-13.28 151.266 36.372)"/>
	<circle fill="#7ab67e" cx="177.79" cy="59.95" r="2.21" transform="rotate(-9.22 177.72 59.953)"/>
	<circle fill="#3ba5a9" cx="165.04" cy="36.37" r="1.58" transform="rotate(-13.28 165.067 36.368)"/>
	<circle fill="#3ba5a9" cx="177.79" cy="47.07" r="1.76"/>
</svg>
