<svg xmlns="http://www.w3.org/2000/svg" height="195.524" width="428.607" xml:space="preserve">
	<defs>
		<clipPath id="a" clipPathUnits="userSpaceOnUse">
			<path d="M0 146.643h321.455V0H0Z"/>
		</clipPath>
	</defs>
	<g clip-path="url(#a)" transform="matrix(1.33333 0 0 -1.33333 0 195.524)">
		<path style="fill:#4c5859;fill-opacity:1;fill-rule:nonzero;stroke:none" d="M0 0c-.562 0-1.108.254-1.472.713l-19.321 24.461V1.875a1.876 1.876 0 0 0-3.75 0v28.697c0 .798.506 1.51 1.26 1.772.756.26 1.591.017 2.087-.61L-1.875 7.272v23.3a1.875 1.875 0 0 0 3.75 0V1.875A1.872 1.872 0 0 0 0 0" transform="translate(24.543 .625)"/>
		<path style="fill:#4c5859;fill-opacity:1;fill-rule:nonzero;stroke:none" d="M0 0c-6.739 0-12.222-5.876-12.222-13.098 0-7.221 5.482-13.097 12.222-13.097 6.74 0 12.222 5.876 12.222 13.097C12.222-5.876 6.739 0 0 0m0-29.945c-8.807 0-15.972 7.557-15.972 16.847C-15.972-3.808-8.807 3.75 0 3.75c8.807 0 15.972-7.558 15.972-16.848 0-9.291-7.165-16.847-15.972-16.847" transform="translate(48.918 29.946)"/>
		<path style="fill:#4c5859;fill-opacity:1;fill-rule:nonzero;stroke:none" d="M0 0c-6.739 0-12.223-5.876-12.223-13.098 0-7.221 5.483-13.097 12.223-13.097 6.74 0 12.222 5.876 12.222 13.097C12.222-5.876 6.738 0 0 0m0-29.945c-8.808 0-15.972 7.557-15.972 16.847C-15.972-3.808-8.808 3.75 0 3.75c8.807 0 15.972-7.558 15.972-16.848 0-9.291-7.165-16.847-15.972-16.847" transform="translate(177.24 29.946)"/>
		<path style="fill:#4c5859;fill-opacity:1;fill-rule:nonzero;stroke:none" d="M0 0h11.436c3.549 0 6.027 2.162 6.027 5.258s-2.479 5.258-6.027 5.258H0Zm-1.875-18.182c-1.035 0-1.875.84-1.875 1.875v28.698c0 1.036.84 1.875 1.875 1.875h13.311c5.666 0 9.777-3.789 9.777-9.008 0-5.22-4.111-9.008-9.777-9.008H0v-12.557c0-1.035-.84-1.875-1.875-1.875" transform="translate(236.675 18.806)"/>
		<path style="fill:#4c5859;fill-opacity:1;fill-rule:nonzero;stroke:none" d="M0 0c-7.341 0-13.313 6.128-13.313 13.658v17.538a1.875 1.875 0 0 0 3.75 0V13.658C-9.563 8.194-5.272 3.75 0 3.75c5.273 0 9.563 4.444 9.563 9.908v17.538a1.875 1.875 0 0 0 3.75 0V13.658C13.313 6.128 7.341 0 0 0" transform="translate(212.47)"/>
		<path style="fill:#4c5859;fill-opacity:1;fill-rule:nonzero;stroke:none" d="m0 0-.182.122c-.116.075-.311.214-.511.332-.407.26-1.076.647-1.914 1.046-.843.404-1.898.8-3.134 1.069-1.241.28-2.652.341-4.245.171-1.504-.174-3.134-.683-4.289-1.672-1.158-1.005-1.789-2.335-1.54-4.176.054-.284.126-.705.296-1.028.14-.344.361-.652.615-.956.535-.593 1.313-1.116 2.227-1.54.914-.426 1.948-.759 3.022-1.036a32.051 32.051 0 0 1 1.644-.373c.66-.149 1.145-.229 1.818-.411A22.546 22.546 0 0 0-2.49-9.697c1.208-.534 2.407-1.205 3.491-2.144 1.078-.928 2.035-2.187 2.52-3.659.115-.365.196-.742.276-1.112.038-.371.095-.75.1-1.117l-.012-.546-.009-.274-.003-.068-.019-.17-.015-.105-.061-.418-.03-.208-.068-.288c-.712-3.087-3.03-5.008-5.209-5.985-2.218-1.006-4.417-1.281-6.389-1.309-.653.01-.864.008-1.47.075-.543.048-1.012.135-1.464.223-.903.198-1.742.434-2.492.725-1.513.564-2.715 1.248-3.677 1.842a20.98 20.98 0 0 0-2.855 2.162l-.045.043a1.686 1.686 0 0 0 2.264 2.5s.196-.168.608-.466a19.476 19.476 0 0 1 1.865-1.196 17.674 17.674 0 0 1 3.098-1.429c.61-.228 1.27-.397 1.962-.54.351-.062.706-.12 1.019-.143.243-.044.912-.047 1.153-.047 1.595.017 3.331.265 4.862.969.762.346 1.461.807 2.001 1.376.133.143.273.283.375.445.122.151.228.311.312.482.198.32.326.727.402.989.429 1.796-.055 3.19-1.461 4.422-1.396 1.206-3.506 2.048-5.609 2.572-.478.139-1.171.263-1.673.38a37.4 37.4 0 0 0-1.84.418c-1.228.319-2.461.706-3.678 1.272-1.21.565-2.434 1.326-3.446 2.449-.492.57-.934 1.213-1.234 1.918-.329.702-.493 1.401-.605 2.221-.035.221-.036.345-.044.484l-.021.416-.007.205.006.132.013.264.032.526c.048.35.11.7.181 1.045.103.341.188.685.32 1.012.511 1.32 1.379 2.447 2.364 3.279 2.007 1.677 4.279 2.294 6.3 2.544 1.966.231 3.877.099 5.471-.288 1.608-.365 2.915-.951 3.936-1.484C.036 4.16.747 3.649 1.264 3.28c.463-.348.709-.535.709-.535A1.688 1.688 0 0 0 .023-.009Z" transform="translate(152.719 27.108)"/>
		<path style="fill:#4c5859;fill-opacity:1;fill-rule:nonzero;stroke:none" d="M0 0h4.779c12.001 0 14.52 6.782 14.52 12.474 0 7.578-5.699 12.473-14.52 12.473H0zm4.78-3.75h-6.654c-1.035 0-1.875.84-1.875 1.875v28.697c0 1.036.84 1.875 1.875 1.875H4.78c12.62 0 18.27-8.147 18.27-16.223C23.049 2.162 16.39-3.75 4.78-3.75" transform="translate(75.021 4.375)"/>
		<path style="fill:#4c5859;fill-opacity:1;fill-rule:nonzero;stroke:none" d="M0 0h-19.167c-1.035 0-1.875.84-1.875 1.875v28.697c0 1.036.84 1.875 1.875 1.875H0a1.875 1.875 0 0 0 0-3.75h-17.292V3.75H0A1.876 1.876 0 0 0 0 0" transform="translate(125.535 .625)"/>
		<path style="fill:#4c5859;fill-opacity:1;fill-rule:nonzero;stroke:none" d="M0 0h-14.024a1.875 1.875 0 0 0 0 3.75H0A1.876 1.876 0 0 0 0 0" transform="translate(120.393 15.04)"/>
		<path style="fill:#4c5859;fill-opacity:1;fill-rule:nonzero;stroke:none" d="M0 0h-19.168c-1.035 0-1.875.84-1.875 1.875v28.697c0 1.036.84 1.875 1.875 1.875H0a1.875 1.875 0 0 0 0-3.75h-17.293V3.75H0A1.876 1.876 0 0 0 0 0" transform="translate(319.58 .625)"/>
		<path style="fill:#4c5859;fill-opacity:1;fill-rule:nonzero;stroke:none" d="M0 0h-13.635a1.875 1.875 0 0 0 0 3.75H0A1.876 1.876 0 0 0 0 0" transform="translate(314.438 15.04)"/>
		<path style="fill:#4c5859;fill-opacity:1;fill-rule:nonzero;stroke:none" d="M0 0c-.589 0-1.169.275-1.534.794l-10.129 14.349a1.875 1.875 0 1 0 3.064 2.162L1.53 2.956A1.874 1.874 0 0 0 0 0" transform="translate(256.161 .625)"/>
		<path style="fill:#4c5859;fill-opacity:1;fill-rule:nonzero;stroke:none" d="m0 0-.578-.552a17.19 17.19 0 0 0-1.977-1.54 16.794 16.794 0 0 0-3.447-1.721 16.788 16.788 0 0 0-4.913-.935l-.346-.011-.174-.005-.254.008-.632.032c-.421.019-.844.032-1.394.126-1.065.129-2.047.376-3.054.696a16.712 16.712 0 0 0-5.729 3.266 16.976 16.976 0 0 0-4.237 5.623 16.86 16.86 0 0 0-1.582 7.097l.044.912c.018.281.015.525.052.835.097.633.166 1.301.31 1.899.279 1.192.651 2.36 1.176 3.45a16.976 16.976 0 0 0 4.237 5.623 16.744 16.744 0 0 0 5.729 3.266c2.002.669 4.035.881 5.839.846a16.257 16.257 0 0 0 8.375-2.656 17.01 17.01 0 0 0 1.951-1.517l.633-.601a1.686 1.686 0 0 0-2.244-2.514l-.086.072-.532.448c-.355.283-.888.684-1.612 1.112-.722.432-1.639.895-2.749 1.251-1.1.366-2.419.636-3.827.665-1.462.008-3.003-.142-4.568-.665a12.998 12.998 0 0 1-4.451-2.538 13.245 13.245 0 0 1-3.296-4.373c-.41-.845-.692-1.753-.913-2.676-.11-.457-.141-.879-.229-1.319-.032-.231-.033-.533-.05-.796l-.039-.722a13.109 13.109 0 0 1 1.23-5.514 13.225 13.225 0 0 1 3.296-4.373A12.956 12.956 0 0 1-15.59-.339c.779-.247 1.575-.441 2.262-.525.319-.074.764-.093 1.195-.111l.632-.032.078-.004.039-.002a.902.902 0 0 0-.077.002h.018l.135.002.271.004A13.517 13.517 0 0 1-4.445.912c.724.426 1.265.837 1.587 1.088l.587.498.014.013a1.688 1.688 0 0 0 2.379-.194A1.697 1.697 0 0 0 0 0" transform="translate(291.053 4.764)"/>
		<path style="fill:#4c5859;fill-opacity:1;fill-rule:nonzero;stroke:none" d="M0 0c-26.838 0-48.672-21.834-48.672-48.672 0-26.838 21.834-48.672 48.672-48.672 26.838 0 48.672 21.834 48.672 48.672C48.672-21.834 26.838 0 0 0m0-3.894c24.691 0 44.778-20.088 44.778-44.779 0-24.691-20.087-44.779-44.778-44.779s-44.778 20.088-44.778 44.779C-44.778-23.982-24.691-3.894 0-3.894" transform="translate(162.463 146.643)"/>
		<path style="fill:#4c5859;fill-opacity:1;fill-rule:nonzero;stroke:none" d="M0 0a1.142 1.142 0 0 0-2.284 0v44.655a1.142 1.142 0 0 0 2.284 0z" transform="translate(163.606 75.643)"/>
		<path style="fill:#4c5859;fill-opacity:1;fill-rule:nonzero;stroke:none" d="M0 0c-.601 0-1.183.276-1.563.772l-12.215 15.957V1.968a1.968 1.968 0 1 0-3.936 0v20.571a1.968 1.968 0 0 0 3.531 1.196L-1.968 7.777v14.762a1.968 1.968 0 1 0 3.936 0V1.968A1.968 1.968 0 0 0 0 0" transform="translate(147.398 85.717)"/>
		<path style="fill:#4c5859;fill-opacity:1;fill-rule:nonzero;stroke:none" d="m0 0-.522.313c-.292.17-.791.427-1.396.693-.609.271-1.368.524-2.245.707-.906.184-1.834.228-3.024.119-1.049-.096-2.209-.443-2.989-1.037-.39-.298-.675-.647-.845-1.034a2.519 2.519 0 0 1-.176-.628l-.011-.176-.006-.089-.004-.044-.002-.022-.003.093.001-.019c.014-.176.015-.482.04-.553.06-.287.204-.748.543-1.058.336-.348.872-.692 1.525-.972.65-.283 1.401-.511 2.184-.701a25.26 25.26 0 0 1 1.203-.258c.512-.11.849-.161 1.373-.294 1.917-.475 3.819-1.089 5.624-2.495.879-.706 1.715-1.704 2.149-2.937a6.063 6.063 0 0 0 .326-1.871l-.011-.456-.004-.114-.001-.057-.001-.028-.018-.151-.023-.156c-.038-.215-.041-.364-.153-.762-.702-2.588-2.704-3.976-4.41-4.671-1.757-.71-3.439-.894-4.953-.911-.505.015-.646.013-1.141.067-.431.038-.781.109-1.135.172a14.15 14.15 0 0 0-1.924.541c-1.167.42-2.096.929-2.841 1.369-1.467.907-2.22 1.626-2.22 1.626l-.081.078a1.77 1.77 0 0 0-.056 2.502c.64.669 1.685.723 2.393.152 0 0 .583-.472 1.816-1.118a13.54 13.54 0 0 1 2.251-.961c.439-.154.911-.265 1.402-.363.243-.037.508-.082.712-.094.137-.029.65-.031.811-.036 1.145.008 2.382.171 3.463.613 1.09.407 1.903 1.235 2.081 1.933.275 1.123.04 1.753-.91 2.574-.954.773-2.499 1.359-4.017 1.715-.336.093-.877.186-1.232.264-.464.091-.928.184-1.397.3-.935.228-1.879.506-2.834.919-.947.415-1.932.973-2.793 1.858-.425.443-.81.97-1.082 1.553-.289.587-.443 1.159-.54 1.877-.043.339-.032.451-.049.687l-.004.151.002.055.005.11.011.22c.01.146.015.291.034.437.087.585.231 1.167.474 1.704.472 1.085 1.241 1.964 2.063 2.587 1.68 1.241 3.427 1.662 5.01 1.83 1.46.158 3 .046 4.208-.244 1.244-.273 2.255-.715 3.045-1.113.801-.401 1.345-.787 1.753-1.067.353-.258.539-.396.539-.396A1.773 1.773 0 0 0 .036-.021Z" transform="translate(191.387 104.845)"/>
		<path style="fill:#4c5859;fill-opacity:1;fill-rule:nonzero;stroke:none" d="M0 0a5.819 5.819 0 0 0-5.812 5.812A5.818 5.818 0 0 0 0 11.624a5.818 5.818 0 0 0 5.812-5.812A5.818 5.818 0 0 0 0 0m0 12.869a7.065 7.065 0 0 1-7.057-7.057A7.065 7.065 0 0 1 0-1.245a7.065 7.065 0 0 1 7.057 7.057A7.065 7.065 0 0 1 0 12.869" transform="translate(204.078 133.774)"/>
		<path style="fill:#4c5859;fill-opacity:1;fill-rule:nonzero;stroke:none" d="M0 0h1.779c.492 0 .81.263.81.671 0 .408-.318.671-.81.671H0Zm-.607-3.805a.609.609 0 0 0-.609.608v5.148a.61.61 0 0 0 .609.608h2.386c1.156 0 2.027-.812 2.027-1.888 0-1.076-.871-1.887-2.027-1.887H0v-1.98a.608.608 0 0 0-.607-.609" transform="translate(202.978 140.209)"/>
		<path style="fill:#4c5859;fill-opacity:1;fill-rule:nonzero;stroke:none" d="M0 0a.61.61 0 0 0-.498.258l-1.817 2.573a.609.609 0 0 0 .994.702L.496.96A.61.61 0 0 0 0 0" transform="translate(206.202 136.404)"/>
	</g>
</svg>
