<svg xmlns="http://www.w3.org/2000/svg" xmlns:xlink="http://www.w3.org/1999/xlink" width="200" height="128">
	<defs>
		<linearGradient id="a" x1="86.45" y1="45.807" x2="73.805" y2="71.603" gradientUnits="userSpaceOnUse">
			<stop offset="0" stop-color="#3f873f"/>
			<stop offset=".33" stop-color="#3f8b3d"/>
			<stop offset=".637" stop-color="#3e9637"/>
			<stop offset=".934" stop-color="#3da92e"/>
			<stop offset="1" stop-color="#3dae2b"/>
		</linearGradient>
		<linearGradient id="c" x1="65.022" y1="57.463" x2="96.316" y2="57.463" gradientUnits="userSpaceOnUse">
			<stop offset=".005" stop-color="#fff"/>
			<stop offset=".192" stop-color="#e8e8e8"/>
			<stop offset=".541" stop-color="#c3c3c3"/>
			<stop offset=".823" stop-color="#ababab"/>
			<stop offset="1" stop-color="#a3a3a3"/>
		</linearGradient>
		<linearGradient id="e" x1="64.805" y1="57.44" x2="97.087" y2="57.44" gradientUnits="userSpaceOnUse">
			<stop offset="0" stop-color="#a3a3a3"/>
			<stop offset=".177" stop-color="#ababab"/>
			<stop offset=".459" stop-color="#c3c3c3"/>
			<stop offset=".808" stop-color="#e8e8e8"/>
			<stop offset=".995" stop-color="#fff"/>
		</linearGradient>
		<linearGradient id="g" x1="78.629" y1="59.307" x2="114.109" y2="33.092" gradientUnits="userSpaceOnUse">
			<stop offset=".138" stop-color="#3f873f"/>
			<stop offset=".397" stop-color="#529f44"/>
			<stop offset=".711" stop-color="#63b649"/>
			<stop offset=".908" stop-color="#6abf4b"/>
		</linearGradient>
		<linearGradient id="b" x1="64.579" y1="36.878" x2="96.94" y2="36.878" gradientUnits="userSpaceOnUse">
			<stop offset=".092" stop-color="#6abf4b"/>
			<stop offset=".289" stop-color="#63b649"/>
			<stop offset=".603" stop-color="#529f44"/>
			<stop offset=".862" stop-color="#3f873f"/>
		</linearGradient>
		<linearGradient id="h" x1="64.579" y1="57.413" x2="96.94" y2="57.413" xlink:href="#b"/>
		<linearGradient id="i" x1="64.579" y1="66.651" x2="96.94" y2="66.651" xlink:href="#b"/>
		<linearGradient id="j" x1="64.579" y1="70.827" x2="96.94" y2="70.827" xlink:href="#b"/>
		<linearGradient id="k" x1="101.654" y1="45.042" x2="81.696" y2="85.757" xlink:href="#a"/>
		<clipPath id="d">
			<path d="M81.513 39.879a1.687 1.687 0 0 0-1.686 0l-13.962 8.057a1.686 1.686 0 0 0-.843 1.461v16.126a1.687 1.687 0 0 0 .843 1.461l13.962 8.064a1.689 1.689 0 0 0 1.687 0l13.959-8.064a1.689 1.689 0 0 0 .843-1.461V49.4a1.686 1.686 0 0 0-.844-1.46z" fill="none" clip-rule="evenodd"/>
		</clipPath>
		<clipPath id="f">
			<path d="M81.606 39.792a1.689 1.689 0 0 0-1.69 0l-14 8.077a1.69 1.69 0 0 0-.845 1.464V65.5a1.692 1.692 0 0 0 .845 1.464l14 8.083a1.691 1.691 0 0 0 1.691 0L95.6 66.964a1.694 1.694 0 0 0 .845-1.464V49.333a1.691 1.691 0 0 0-.846-1.464z" fill="url(#a)" clip-rule="evenodd"/>
		</clipPath>
	</defs>
	<g fill="#fff">
		<path d="M99.157 109a2.789 2.789 0 0 1-1.392-.372l-4.431-2.622c-.661-.37-.338-.5-.12-.577a8.832 8.832 0 0 0 2-.912.341.341 0 0 1 .33.026l3.4 2.021a.439.439 0 0 0 .411 0l13.271-7.66a.421.421 0 0 0 .2-.359V83.229a.431.431 0 0 0-.206-.366L99.364 75.21a.419.419 0 0 0-.409 0l-13.262 7.656a.426.426 0 0 0-.21.363v15.316a.405.405 0 0 0 .209.354l3.635 2.1c1.973.986 3.181-.175 3.181-1.343v-15.12a.381.381 0 0 1 .385-.382h1.683a.384.384 0 0 1 .385.382v15.121c0 2.633-1.434 4.143-3.93 4.143a5.677 5.677 0 0 1-3.057-.831l-3.48-2a2.8 2.8 0 0 1-1.394-2.424V83.229a2.8 2.8 0 0 1 1.392-2.418l13.271-7.669a2.907 2.907 0 0 1 2.789 0l13.27 7.669a2.8 2.8 0 0 1 1.394 2.418v15.316a2.809 2.809 0 0 1-1.394 2.421l-13.27 7.662a2.79 2.79 0 0 1-1.395.372z"/>
		<path d="M103.256 98.449c-5.807 0-7.024-2.666-7.024-4.9a.381.381 0 0 1 .384-.382h1.715a.384.384 0 0 1 .382.325c.259 1.746 1.031 2.628 4.543 2.628 2.8 0 3.986-.632 3.986-2.116 0-.855-.337-1.49-4.682-1.915-3.631-.359-5.877-1.162-5.877-4.066 0-2.678 2.257-4.275 6.041-4.275 4.251 0 6.355 1.476 6.622 4.642a.384.384 0 0 1-.383.417h-1.722a.382.382 0 0 1-.373-.3c-.413-1.838-1.418-2.426-4.144-2.426-3.053 0-3.407 1.064-3.407 1.86 0 .966.418 1.247 4.54 1.792 4.078.539 6.015 1.3 6.015 4.169 0 2.89-2.411 4.547-6.616 4.547z"/>
	</g>
	<path d="M122.392 82.387a2.558 2.558 0 1 1-2.557-2.558 2.565 2.565 0 0 1 2.557 2.558zm-4.7-.007a2.145 2.145 0 1 0 2.138-2.138 2.146 2.146 0 0 0-2.14 2.138zm1.184-1.428h.988c.338 0 1 0 1 .758a.66.66 0 0 1-.542.7c.393.027.419.284.473.649a2.863 2.863 0 0 0 .149.758h-.608c-.014-.135-.109-.866-.109-.906-.04-.163-.095-.244-.3-.244h-.5v1.15h-.555zm.542 1.259h.446a.386.386 0 0 0 .433-.406c0-.393-.271-.393-.42-.393h-.459z" fill="#fff"/>
	<path d="M58.061 49.08a1.7 1.7 0 0 0-.85-1.477l-14.069-8.1a1.658 1.658 0 0 0-.775-.224h-.146a1.679 1.679 0 0 0-.776.224l-14.07 8.1a1.7 1.7 0 0 0-.851 1.477l.031 21.8a.832.832 0 0 0 .424.733.815.815 0 0 0 .844 0l8.362-4.788a1.712 1.712 0 0 0 .851-1.474V55.168a1.692 1.692 0 0 1 .848-1.471l3.561-2.05a1.681 1.681 0 0 1 .851-.229 1.66 1.66 0 0 1 .846.229L46.7 53.7a1.694 1.694 0 0 1 .85 1.471v10.184a1.715 1.715 0 0 0 .851 1.474l8.36 4.788a.826.826 0 0 0 .85 0 .849.849 0 0 0 .422-.733zm67.7-29.972a.849.849 0 0 0-1.264.742v21.592a.595.595 0 0 1-.892.515l-3.524-2.03a1.7 1.7 0 0 0-1.7 0l-14.076 8.123a1.7 1.7 0 0 0-.85 1.471v16.25a1.7 1.7 0 0 0 .85 1.472l14.075 8.13a1.7 1.7 0 0 0 1.7 0l14.077-8.13a1.7 1.7 0 0 0 .85-1.472V25.266a1.7 1.7 0 0 0-.872-1.484zm-1.306 41.325a.425.425 0 0 1-.212.368l-4.833 2.785a.423.423 0 0 1-.424 0l-4.833-2.786a.424.424 0 0 1-.213-.368v-5.58a.425.425 0 0 1 .212-.368l4.833-2.792a.425.425 0 0 1 .425 0l4.833 2.792a.425.425 0 0 1 .212.368z" fill="#fff" fill-rule="evenodd"/>
	<g fill="#fff" fill-rule="evenodd">
		<path d="M172.63 54.707a1.7 1.7 0 0 0 .846-1.47V49.3a1.7 1.7 0 0 0-.846-1.47l-13.985-8.12a1.7 1.7 0 0 0-1.7 0l-14.074 8.12a1.7 1.7 0 0 0-.849 1.472v16.245a1.7 1.7 0 0 0 .858 1.477l13.983 7.968a1.7 1.7 0 0 0 1.667.008l8.457-4.7a.85.85 0 0 0 .013-1.48l-14.16-8.127a.848.848 0 0 1-.427-.737v-5.091a.848.848 0 0 1 .425-.736l4.407-2.541a.852.852 0 0 1 .849 0l4.409 2.541a.848.848 0 0 1 .425.736v4a.85.85 0 0 0 1.277.735z"/>
		<path d="M157.586 53.946a.322.322 0 0 1 .326 0l2.7 1.558a.326.326 0 0 1 .163.283v3.118a.327.327 0 0 1-.163.283l-2.7 1.558a.327.327 0 0 1-.326 0l-2.7-1.558a.327.327 0 0 1-.163-.283v-3.118a.326.326 0 0 1 .163-.283z"/>
	</g>
	<path d="M79.824 39.879a1.687 1.687 0 0 1 1.686 0l13.962 8.057a1.687 1.687 0 0 1 .844 1.461v16.126a1.689 1.689 0 0 1-.843 1.461L81.51 75.048a1.687 1.687 0 0 1-1.686 0l-13.959-8.064a1.687 1.687 0 0 1-.843-1.461V49.4a1.685 1.685 0 0 1 .843-1.46z" fill-rule="evenodd" fill="url(#c)"/>
	<g clip-path="url(#d)">
		<path d="m79.808 39.879-13.975 8.057a1.717 1.717 0 0 0-.876 1.46v16.127a1.657 1.657 0 0 0 .392 1.057L81.061 39.7a1.7 1.7 0 0 0-1.253.179zM81.15 75.19a1.778 1.778 0 0 0 .327-.142l13.929-8.064a1.628 1.628 0 0 0 .777-1.461V49.4a1.751 1.751 0 0 0-.354-1.086z" fill="none"/>
		<path d="m95.4 47.936-13.9-8.057a1.651 1.651 0 0 0-.441-.175L65.349 66.58a1.777 1.777 0 0 0 .475.4l13.983 8.064a1.656 1.656 0 0 0 1.343.142l14.679-26.875a1.488 1.488 0 0 0-.429-.375z" fill="#4b4b4b" opacity=".66"/>
		<path d="m65.991 47.845-.158.091a1.717 1.717 0 0 0-.876 1.46v16.127a1.71 1.71 0 0 0 .867 1.461l13.983 8.064a1.657 1.657 0 0 0 1.214.179zM96.183 49.4a1.631 1.631 0 0 0-.781-1.461L81.5 39.879a1.705 1.705 0 0 0-.388-.162L96.183 65.46z" fill="none"/>
		<path d="m81.477 75.048 13.929-8.064a1.628 1.628 0 0 0 .777-1.461v-.063L81.114 39.717a1.7 1.7 0 0 0-1.306.162l-13.817 7.966 15.03 27.382a1.737 1.737 0 0 0 .456-.179z" fill="url(#e)"/>
	</g>
	<g fill="#669f66">
		<path d="M99.157 109a2.789 2.789 0 0 1-1.392-.372l-4.431-2.622c-.661-.37-.338-.5-.12-.577a8.832 8.832 0 0 0 2-.912.341.341 0 0 1 .33.026l3.4 2.021a.439.439 0 0 0 .411 0l13.271-7.66a.421.421 0 0 0 .2-.359V83.229a.431.431 0 0 0-.206-.366L99.364 75.21a.419.419 0 0 0-.409 0l-13.262 7.656a.426.426 0 0 0-.21.363v15.316a.405.405 0 0 0 .209.354l3.635 2.1c1.973.986 3.181-.175 3.181-1.343v-15.12a.381.381 0 0 1 .385-.382h1.683a.384.384 0 0 1 .385.382v15.121c0 2.633-1.434 4.143-3.93 4.143a5.677 5.677 0 0 1-3.057-.831l-3.48-2a2.8 2.8 0 0 1-1.394-2.424V83.229a2.8 2.8 0 0 1 1.392-2.418l13.271-7.669a2.907 2.907 0 0 1 2.789 0l13.27 7.669a2.8 2.8 0 0 1 1.394 2.418v15.316a2.809 2.809 0 0 1-1.394 2.421l-13.27 7.662a2.79 2.79 0 0 1-1.395.372z"/>
		<path d="M103.256 98.449c-5.807 0-7.024-2.666-7.024-4.9a.381.381 0 0 1 .384-.382h1.715a.384.384 0 0 1 .382.325c.259 1.746 1.031 2.628 4.543 2.628 2.8 0 3.986-.632 3.986-2.116 0-.855-.337-1.49-4.682-1.915-3.631-.359-5.877-1.162-5.877-4.066 0-2.678 2.257-4.275 6.041-4.275 4.251 0 6.355 1.476 6.622 4.642a.384.384 0 0 1-.383.417h-1.722a.382.382 0 0 1-.373-.3c-.413-1.838-1.418-2.426-4.144-2.426-3.053 0-3.407 1.064-3.407 1.86 0 .966.418 1.247 4.54 1.792 4.078.539 6.015 1.3 6.015 4.169 0 2.89-2.411 4.547-6.616 4.547z"/>
	</g>
	<path d="M122.392 82.387a2.558 2.558 0 1 1-2.557-2.558 2.565 2.565 0 0 1 2.557 2.558zm-4.7-.007a2.145 2.145 0 1 0 2.138-2.138 2.146 2.146 0 0 0-2.14 2.138zm1.184-1.428h.988c.338 0 1 0 1 .758a.66.66 0 0 1-.542.7c.393.027.419.284.473.649a2.863 2.863 0 0 0 .149.758h-.608c-.014-.135-.109-.866-.109-.906-.04-.163-.095-.244-.3-.244h-.5v1.15h-.555zm.542 1.259h.446a.386.386 0 0 0 .433-.406c0-.393-.271-.393-.42-.393h-.459z" fill="#669f66"/>
	<path d="M58.061 49.08a1.7 1.7 0 0 0-.85-1.477l-14.069-8.1a1.658 1.658 0 0 0-.775-.224h-.146a1.679 1.679 0 0 0-.776.224l-14.07 8.1a1.7 1.7 0 0 0-.851 1.477l.031 21.8a.832.832 0 0 0 .424.733.815.815 0 0 0 .844 0l8.362-4.788a1.712 1.712 0 0 0 .851-1.474V55.168a1.692 1.692 0 0 1 .848-1.471l3.561-2.05a1.681 1.681 0 0 1 .851-.229 1.66 1.66 0 0 1 .846.229L46.7 53.7a1.694 1.694 0 0 1 .85 1.471v10.184a1.715 1.715 0 0 0 .851 1.474l8.36 4.788a.826.826 0 0 0 .85 0 .849.849 0 0 0 .422-.733zm67.7-29.972a.849.849 0 0 0-1.264.742v21.592a.595.595 0 0 1-.892.515l-3.524-2.03a1.7 1.7 0 0 0-1.7 0l-14.076 8.123a1.7 1.7 0 0 0-.85 1.471v16.25a1.7 1.7 0 0 0 .85 1.472l14.075 8.13a1.7 1.7 0 0 0 1.7 0l14.077-8.13a1.7 1.7 0 0 0 .85-1.472V25.266a1.7 1.7 0 0 0-.872-1.484zm-1.306 41.325a.425.425 0 0 1-.212.368l-4.833 2.785a.423.423 0 0 1-.424 0l-4.833-2.786a.424.424 0 0 1-.213-.368v-5.58a.425.425 0 0 1 .212-.368l4.833-2.792a.425.425 0 0 1 .425 0l4.833 2.792a.425.425 0 0 1 .212.368z" fill="#333" fill-rule="evenodd"/>
	<g fill-rule="evenodd">
		<path d="M172.63 54.707a1.7 1.7 0 0 0 .846-1.47V49.3a1.7 1.7 0 0 0-.846-1.47l-13.985-8.12a1.7 1.7 0 0 0-1.7 0l-14.074 8.12a1.7 1.7 0 0 0-.849 1.472v16.245a1.7 1.7 0 0 0 .858 1.477l13.983 7.968a1.7 1.7 0 0 0 1.667.008l8.457-4.7a.85.85 0 0 0 .013-1.48l-14.16-8.127a.848.848 0 0 1-.427-.737v-5.091a.848.848 0 0 1 .425-.736l4.407-2.541a.852.852 0 0 1 .849 0l4.409 2.541a.848.848 0 0 1 .425.736v4a.85.85 0 0 0 1.277.735z" fill="#333"/>
		<path d="M157.586 53.946a.322.322 0 0 1 .326 0l2.7 1.558a.326.326 0 0 1 .163.283v3.118a.327.327 0 0 1-.163.283l-2.7 1.558a.327.327 0 0 1-.326 0l-2.7-1.558a.327.327 0 0 1-.163-.283v-3.118a.326.326 0 0 1 .163-.283z" fill="#669f66"/>
	</g>
	<path d="M81.606 39.792a1.689 1.689 0 0 0-1.69 0l-14 8.077a1.69 1.69 0 0 0-.845 1.464V65.5a1.692 1.692 0 0 0 .845 1.464l14 8.083a1.691 1.691 0 0 0 1.691 0L95.6 66.964a1.694 1.694 0 0 0 .845-1.464V49.333a1.691 1.691 0 0 0-.846-1.464z" fill-rule="evenodd" fill="url(#a)"/>
	<g clip-path="url(#f)">
		<path d="m79.887 39.792-14.026 8.077a1.746 1.746 0 0 0-.9 1.464V65.5a1.63 1.63 0 0 0 .436 1.075l15.755-26.958a1.718 1.718 0 0 0-1.265.175zm1.343 35.419a1.711 1.711 0 0 0 .394-.164l14.011-8.083a1.726 1.726 0 0 0 .88-1.464V49.333A1.67 1.67 0 0 0 96 48.159z" fill="none"/>
		<path d="m95.627 47.869-14.036-8.077a1.693 1.693 0 0 0-.439-.175L65.393 66.575a1.941 1.941 0 0 0 .472.389l14.059 8.083a1.708 1.708 0 0 0 1.306.164L96 48.159a1.831 1.831 0 0 0-.373-.29z" fill="url(#g)"/>
		<path d="M96.515 65.5V49.333a1.732 1.732 0 0 0-.888-1.464l-14.036-8.077a1.693 1.693 0 0 0-.515-.19l15.386 26.286a1.532 1.532 0 0 0 .053-.388zM65.861 47.869a1.746 1.746 0 0 0-.9 1.464V65.5a1.755 1.755 0 0 0 .908 1.464l14.059 8.083a1.7 1.7 0 0 0 1.082.21L65.945 47.82z" fill="none"/>
		<path fill="url(#b)" d="m79.449 36.823-.192.11h.256l-.064-.11z"/>
		<path d="M95.635 66.964a1.766 1.766 0 0 0 .827-1.076L81.076 39.6a1.711 1.711 0 0 0-1.189.19l-13.942 8.03 15.061 27.437a1.674 1.674 0 0 0 .618-.21z" fill="url(#h)"/>
		<path fill="url(#i)" d="m96.94 66.704-.093-.159v.212l.093-.053z"/>
		<path d="m95.635 66.964-14.011 8.083a1.674 1.674 0 0 1-.618.21l.279.509 15.562-9.009v-.212l-.385-.657a1.766 1.766 0 0 1-.827 1.076z" fill="url(#j)"/>
		<path d="m95.635 66.964-14.011 8.083a1.674 1.674 0 0 1-.618.21l.279.509 15.562-9.009v-.212l-.385-.657a1.766 1.766 0 0 1-.827 1.076z" fill="url(#k)"/>
	</g>
</svg>
