<svg xmlns="http://www.w3.org/2000/svg" width="200" height="128">
	<path d="M40.2 40.731 20 52.365l13.589 8 2.793-1.665 6.7 3.723v-7.731l6.423-3.816V58.6l11.262-6.237" fill="#25ba81"/>
	<path d="M37.685 65.582v7.726l-6.143 3.909V61.673l2.327-1.4-13.776-7.815H20v23.27l20.384 11.541v-20.1" fill="#25ba81"/>
	<path d="M49.506 58.6v7.725l-5.4 3.071-3.723-2.326v20.2h.093l20.292-11.635v-23.27H60.4" fill="#1f9967"/>
	<path d="M80.966 57.671v18.8h-4.561v-24.85h6.236l9.4 18.894v-18.8H96.6v24.85h-6.234m17.406.28c-6.236 0-7.912-3.444-7.912-7.167v-4.561c0-3.723 1.676-7.167 7.912-7.167s7.912 3.444 7.912 7.167v4.561c0 3.722-1.676 7.167-7.912 7.167zm0-14.986c-2.42 0-3.351 1.117-3.351 3.072v4.84c0 2.048.931 3.071 3.351 3.071s3.351-1.117 3.351-3.071v-4.84c0-2.048-.931-3.072-3.351-3.072zm21.687 14.613V63.814c0-.931-.372-1.489-1.489-1.489a12.442 12.442 0 0 0-4.747 1.582v12.565h-4.561v-18.15h3.444l.465 1.583a17.844 17.844 0 0 1 7.26-1.862A3.6 3.6 0 0 1 133.275 60a17.953 17.953 0 0 1 7.26-1.955c2.979 0 4.1 2.141 4.1 5.4v13.12h-4.565V63.814c0-.931-.373-1.489-1.489-1.489a12.442 12.442 0 0 0-4.747 1.582v12.565zm32.484 0h-3.723l-.372-1.21a10.143 10.143 0 0 1-5.4 1.583c-3.351 0-4.747-2.234-4.747-5.4 0-3.723 1.582-5.119 5.306-5.119h4.374v-1.861c0-2.047-.558-2.7-3.444-2.7a23.07 23.07 0 0 0-5.026.559l-.558-3.444a23.4 23.4 0 0 1 6.236-.838c5.678 0 7.353 2.048 7.353 6.515zm-4.561-6.887h-3.351c-1.489 0-1.861.372-1.861 1.768s.372 1.862 1.861 1.862a7.335 7.335 0 0 0 3.444-.931 26.174 26.174 0 0 1-.093-2.699zm7.26-5.213c0-4 1.769-6.422 5.957-6.422a21.472 21.472 0 0 1 4.84.558v-7.539l4.561-.651v26.154h-3.63l-.465-1.582a9.712 9.712 0 0 1-5.771 1.862c-3.63 0-5.585-2.141-5.585-6.33.093.093.093-6.05.093-6.05zm10.89-2.047a19.507 19.507 0 0 0-4-.466c-1.675 0-2.234.745-2.234 2.42V70.7c0 1.489.559 2.327 2.234 2.327a6.7 6.7 0 0 0 4.095-1.676v-9.026z"/>
</svg>
