<svg version="1.1" id="Layer_1" xmlns="http://www.w3.org/2000/svg" x="0" y="0" viewBox="0 0 715.9 196" style="enable-background:new 0 0 715.9 196" xml:space="preserve">
	<style>
		.st1{fill:#fefefe}.st575{fill:#f28c3b}.st576{fill:#a7856f}.st577{fill:#271c17}.st578{fill:#bd9377}.st579{fill:#2a201c}.st580{fill:#40a8cb}.st582{fill:#f18100}.st583{fill:#20a3c8}.st585{fill:#1f1512}.st586{fill:#f17d01}.st588{fill:#110e0d}.st589{fill:#f1840a}.st590{fill:#1da4c9}.st591{fill:#0fa2c7}.st592{fill:#f18101}.st593{fill:#060504}.st594{fill:#f18309}.st595{fill:#f18304}.st596{fill:#00a1c7}.st597{fill:#f18302}.st598{fill:#010000}.st599{fill:#00a0c6}.st600{fill:#f18306}.st601{fill:#cb9f83}.st602{fill:#1e1612}.st603{fill:#0f0b0a}.st604{fill:#42332b}.st606{fill:#3b312d}.st610{fill:#211814}.st611{fill:#201815}.st612{fill:#030203}.st615{fill:#e6e5e5}
	</style>
	<path class="st1" d="M483.4 136.6c0-.1-.1-.2-.2-.3.1 0 .2.2.2.3z"/>
	<path class="st1" d="M68.7 32.8c0 .1-.1.1-.2.2h.4l-.2-.2z"/>
	<path class="st1" d="M128.3 10.9c-.1 0-.2.1-.3.1 0 0 .2 0 .3-.1z"/>
	<path class="st1" d="M122.8 12.7z"/>
	<path class="st1" d="M175.9 100.3c-.1 0-.1 0-.2-.1v.3c.1 0 .2-.1.2-.2z"/>
	<path class="st1" d="M113.3 12.7s0 .1 0 0c.1.1.1.1.2 0h-.2z"/>
	<path class="st575" d="M605 76.1c-1.8-20.2-14.8-33.7-32.9-35.1-4.7 1.3-9.4 1.3-14.1 0-10 .9-17.5 6.2-23.7 14.2-5.5-9.3-13.5-14.1-23.8-15-10.2-1-19.3 1.7-26.9 8.9-1.2-2.4-.3-4.6-1.7-6.4h-19.3c-1.3 0-2.7.4-3.7-.7-1.5.6-1.1 1.9-1.1 3.1 0 29.6 0 59.1-.1 88.7 0 3.2 1.3 4 4.2 3.9 6-.2 12.1 0 18.1-.1 1.2 0 2.7.6 3.5-1-.1-.1-.1-.2-.2-.3-.3-.5-.6-1.1-.6-1.6V84.2c1.3 1.3.4 2.8 1 4 .8-4.2.6-8.5 2.5-12.5 3.5-7.3 9.4-11.1 17.2-10.7 6.7.4 12.1 5.1 14.4 12.5 1 3.1 1.3 6.3 1.3 9.6 0 15.3.1 30.7-.1 46 0 3.4.9 4.8 4.5 4.6 5.7-.3 11.5-.3 17.3 0 3.7.2 4.8-1.1 4.8-4.8-.2-15.6-.1-31.3-.1-46.9 0-6.7 2.2-12.5 7.3-16.9 9-7.7 21.7-4.1 25.3 7.1 1 3.3 1.3 6.6 1.3 10.1v46.9c0 2.3-.1 4.5 3.3 4.4 6.6-.1 13.3-.1 19.9 0 2.3 0 3.2-.9 3.2-3.2-.4-19.4.9-38.9-.8-58.3z"/>
	<path class="st575" d="M440 85.3c-.1-1.3 0-2.7-.2-3.9-7.2-42.5-52.2-49.7-76.9-34-17.4 11.1-25.6 33.2-20.4 55.3 4.8 20.8 21.6 35.4 41.9 36.5 4.1-1.2 8.2-1.3 12.3 0 23.6-1.3 43.1-21.5 43.4-45.1-1.4-3-1.3-5.9-.1-8.8zm-45.2 29.9c-2.7 2-5.8.8-8.7.7 0 0-.1-.2-.1-.4 0-.1.1-.2.2-.4-14.2-5-19.9-13.6-18.9-28.5.9-12.8 10.2-22.3 22.2-22.7 12-.4 22.1 8.5 23.9 21 2.3 15.2-4 25.3-18.6 30.3z"/>
	<path class="st575" d="M692.5 81.5c-7.7-2.9-15.7-3.7-23.8-4.3-3.7-.3-7.3-.8-10.6-2.7-2.2-1.2-3.6-3.1-3.5-5.7.1-2.7 1.8-4.3 4-5.3 1.9-.8 3.9-1.3 5.8-2 3.7-2.1 7.5-.7 11.3-.7 0 0 .1.2.1.4 0 .1-.1.2-.2.4 5.6 1.5 11 3.3 15.3 7.4 1.7 1.6 2.9.3 4-1 3.1-3.7 6.1-7.6 9.5-11.1 2.9-3 2.6-4.8-.6-7.3-16-12.4-44.8-14.1-61.9-3.3-9.3 5.9-13.7 14.3-13.2 25.3.5 10.4 6 17.6 15 22.3 8 4.2 16.7 5.6 25.6 6.3 3.7.3 7.4.5 10.9 1.8 5.8 2.2 6.8 7.6 2 11.7-3.8 3.3-8.5 4-13.3 3.6-10.5-.9-20.2-4.1-28.2-11.3-1.9-1.7-3.1-1.8-4.5.4-3.1 4.7-6.3 9.3-9.5 13.8-1.4 2-1.1 3.3.6 4.9 9.1 8.8 19.9 14.1 32.6 14.9 6.2-1.3 12.4-1.3 18.5 0 7.7-.5 14.7-3.1 20.9-7.6 9.5-7.1 13.1-16.8 11.8-28.3-1.4-11.4-8-18.6-18.6-22.6z"/>
	<path class="st575" d="M324 85.8c0-5.8-1-11.5-2.7-17-7.7-24.9-35-36.2-57.3-23.7-1.6.9-3.3 1.5-3 4.2.4 4.1-1.8 6.8-5.8 7.6-1.5.3-1.7 1-2 2.3-1.5 7.7-4.8 9.7-13 10.1-4.2.2-6.8 4.8-10.9 6-.1 0-.1.8-.1 1.3v40.3c0 1.6.5 2.4 2.1 2.8 7.6 1.8 15.2 3.8 22.7 5.6 0-13.1.1-26.2.1-39.2 0-.3.1-.6.3-.7.2-.1.5 0 .7.1.6-2.1 1.1-4.3 1.9-6.3 3.8-10.4 13.1-15.9 24.1-14.3 9.5 1.4 15.9 9.2 16.5 20.1.1 1.8.1 3.5.1 5.3v41.6c0 5.7 0 5.7 5.9 5.7 5.3 0 10.6-.2 15.9.1 3.5.2 4.6-1 4.6-4.5-.2-15.8-.1-31.6-.1-47.4z"/>
	<path class="st576" d="M162 138.5c1.4-1.7 2.6-3.1 1.1-5.8-1.4-2.6-3.2-1.4-4.9-1.3-3.5.2-6.9 1.4-10.5.8-12.4 4.3-25.5 6.1-37.7 12.6.3-5 3.3-9.1 1.3-13.5-1.4 1.2-2.9 2.4-4.3 3.5-1.3.9-2.7 1.7-4.1 2.6-.6-3.5-.6-3.4-3.7-1.9-2.6 1.3-5.3 2.4-8.1 1.6-2.2-.9 4.5-5-1.8-4.3-1.6.3-3.1.7-5.4 1.2 1.9-2.6 1.9-4-1.3-3.6-.8.1-1.8.2-2.1-1-11.1 2.6-22.2 4.9-33.8 6.5.2-3.3 3.4-4.9 3.3-8.1-7.4 2.9-14.5 1.5-21.6-.2-1.2 10.3-2 20.7-2 31.1 13.5 14.6 34.5 16.6 50.8 4.7 1.3-1 2.7-1.1 4.1-1.2 4.2-5.1 9.4-9 15.6-11.4-5 3.8-9 8.5-13.9 12.4 10.4 12.5 36.4 12.4 46.9 1.8 3.5-3.6 6.5-3.2 9.7-.1 6.9-9.1 15.1-17.5 22.4-26.4z"/>
	<path class="st576" d="M274.2 157c-17.9-15.1-38.7-23.1-62.1-24.7-.7 0-1.5-.1-2.2-.2-8.2-.7-9.9.3-13 7.9-1.1 2.6-2.3 4.3-5.6 3.4-2.5-.7-4.7 1.1-5.2 2.9-1.7 7.1-5.5 13.3-7.6 20.2 3.5-.1 5.2-2.9 7.3-5 1.6-1.6 3.1-3.4 5.6-2.5 2.4.9 3.9 2.9 3.8 5.4-.1 3.7 2.2 5.2 5 6.4 4.5 1.9 9.5 2.6 14.2 2.6 8.3 0 16.6-.8 23.3-6.5 3.3-2.9 5.8-2.5 8.8.2 11.1 10 27.3 10.6 39.3 1.5-3.7-3.8-7.3-8-11.6-11.6zm-27.3-4.5c-3.8.6-12-3.8-13.1-7.6-1-3.3 2.2-1.4 3.3-2.2 4.8.9 8.7 3.1 11.6 6.8 1.7 2.1 0 2.8-1.8 3zm11.3 3.2c-1.3-.6-2.5-1.5-2.9-3.1-.2-.8.7-1 1.2-.8 1.6.4 2.5 1.4 2.8 2.8-.1.9-.6 1.4-1.1 1.1z"/>
	<path class="st577" d="M122.8 12.7c6.9 1.5 13.6 3.6 19.4 7.8 3.8 2.7 7.1 5.8 8.3 10.5.3-.5 1-1 .9-1.4-1.1-5.9 3.6-7.8 7.1-10.9 1.1 2.2.2 4.1 0 5.9-.2 2.9.1 4.8 4.3 2.7-2.3 4.5-.2 6.6 2.7 8.9 9.2 7.5 15.2 17.1 17.9 28.6.3 1.3 1.9 3.3-1.3 3.4 3.6 4.1 5.9 8.7 6.3 14.2.1 1.9-.4 2.5-2.4 3.6-4.9 2.7-11.1 2.9-14.9 7.1-7.7 8.4-11.3 18.5-10.5 29.9.3 3.4 0 5-3.7 5.6-2.6.4-5.2 1.1-7.5 2.4 2.9-.1 5.8-.6 8.7-.9 2.4-.3 4.7-.4 6.1 2.3 1.5 2.7.3 4.8-1.3 6.9-3.8 4.7-7.9 9.2-11.8 13.7-2.4 2.8-4.7 5.7-7 8.5-1.2 1.5-2.3 3.1-4.4 3.5.7 1 1.6 1.6 2.8 1.8 5.2-9.1 13-16.2 19.5-24.2 2.3-2.8 6.1-4.9 5.2-9.5-3-3.8-3.6-8.3-3.4-12.9.3-9.1 3.2-17.3 9.3-24.2 2-2.3 2.1-2.2 5.4-2.6-.4 2.3-2.7 3.6-2.8 6.8.1 0 .1.1.2.1 2-2.2 3.4-3.9 4.9-5.5 1.4-1.6 3.3-2.5 5.4-2.9 2.2-.4 4 .6 5.6 2.1 1.8 1.7-.2 2.9-.7 4.3-.2.8-.7 1.6-1 2.4.4.1.8.3.8.3 2.2-3 4.8-5.3 8.9-3.8 4 1.5 4.5 4.9 4.9 8.6.5 5.1.7 10.6-1.5 14.7-2.5 4.6-3.2 10.2-7.4 14.1-1.4 1.3-1.7 3.6-2.6 5.5-2 .3-1.6-2.4-3.5-2.5-1.4 2.2-2.9 4.6-5.8 5.3-2.3 9.4-6.1 18.1-10.6 26.6 2.1-.3 3.9-1.1 5.2-2.8-1.2-1.6-.3-3.1.3-4.6 2-4.9 4.3-9.7 5.8-14.8.8-3 3-4.9 6.1-4.9 2.8 0 4.4-1.2 5.4-3.6 1-2.3 3-4 4.3-6.2 1-1.7 2.6-2.2 4.6-2.1 26.2 1.2 50.2 8.8 70.5 26 4.2 3.5 8.2 7.2 10.5 12.3 5.7-4.6 5.7-4.6.6-9.9l-.6-.6c-12.4-12.1-27.4-19.9-44-24.3-9.3-2.4-17.1-5.7-22.4-14.3-1.8-2.9-2.9-4.9-2.5-8.4 1.3-10.4-3.2-17.1-12.7-20-.8-.2-1.3-.6-1.7-1.2-2.6-3.6-6.1-4.3-10.6-3 .9-6.5-3.6-11.2-4.5-17.1-2.3-13.9-8-26.2-19-35.4-2.6-2.2-3.9-4.2-2.8-7.6 1.3-3.9-.5-4.4-3.7-2.9-2.2-2-.7-4.6-1.1-6.8-.3-1.6.4-3.6-2.2-3.8-2.8 1.4-4.9 3.8-7.2 5.7-2.2 1.8-3.8 1.8-6.1 0-5.1-4.1-10.9-6.9-17.4-8.2-.1 0-.2.1-.3.1-1.6.5-3.3 1-5 1.6z"/>
	<path class="st577" d="M144 161.6c2.3-2.8 4.6-5.7 7-8.5 3.9-4.6 8-9 11.8-13.7 1.6-2 2.8-4.1 1.3-6.9-1.4-2.7-3.7-2.5-6.1-2.3-2.9.4-5.8.9-8.7.9-.6.3-1.1.7-1.7 1.1 3.6.5 7-.7 10.5-.8 1.7-.1 3.4-1.2 4.9 1.3 1.5 2.6.3 4.1-1.1 5.8-7.3 9-15.5 17.3-22.4 26.6 2.2-.4 3.3-2.1 4.5-3.5z"/>
	<path class="st577" d="M275.6 156.4c-20.3-17.2-44.3-24.8-70.5-26-1.9-.1-3.5.4-4.6 2.1-1.3 2.2-3.2 3.9-4.3 6.2-1.1 2.4-2.6 3.6-5.4 3.6-3.1 0-5.3 1.9-6.1 4.9-1.4 5.1-3.7 9.9-5.8 14.8-.6 1.5-1.5 3-.3 4.6 2.1-6.9 5.9-13.1 7.6-20.2.4-1.8 2.7-3.6 5.2-2.9 3.3.9 4.5-.8 5.6-3.4 3.1-7.6 4.8-8.6 13-7.9.7.1 1.5.1 2.2.2 23.3 1.5 44.1 9.6 62.1 24.7 4.2 3.6 7.9 7.8 11.8 11.8-2.3-5.3-6.3-9-10.5-12.5z"/>
	<path class="st578" d="M173.4 167.3c4-8 7.1-16.4 10-24.8h.1c-2.6-1.6-3.6-4.6-5.8-6.6-3-2.8-6-4.2-9.9-3 .6 2 .2 3.9-1 5.4-8 9.6-16.1 19.2-24.4 28.6 10 5.1 20.3 5.3 30.9 2.6-.3-.8-.2-1.5.1-2.2z"/>
	<path class="st578" d="M183.5 142.5c-3 8.5-6.1 16.8-10.1 24.8-.3.7-.4 1.4 0 2.1 4.5-8.5 8.3-17.3 10.6-26.6-.2-.1-.3-.2-.5-.3z"/>
	<path class="st578" d="M167.9 132.9c-.2.1-.5.1-.7.2.9 4.6-3 6.7-5.2 9.5-6.5 8.1-14.3 15.1-19.5 24.2 8.3-9.4 16.3-19 24.4-28.6 1.2-1.5 1.6-3.3 1-5.3z"/>
	<path class="st579" d="M13.8 112.6c2.7 2.8 6.3 4.4 10 6.5-5.3 1.4-5.8 2.3-2.7 5.7 2.8 3 2.8 6 2.3 9.6-1.2 8.6-2.1 17.2-3.2 27.1 2.1-2.8 4.2-2.6 6.2-2.7-2.1-3.1-1.5-6.6-1.2-9.9.8-6.8-.2-13.9 2.2-20.5.3-.3.6-.5.9-.7-1.5-1.5-3.3-2.9-4.4-5.3 2.4-1.2 5.8-1.3 6.7-5-4.6-.5-9.2-1-12.8-5.3 2.3-.4 4.2-.6 6.1-1 4.5-1 7.4-3.3 8.2-8.4 2-12.9 6.7-25 12.3-36.7 2.1-4.3 4.8-8.1 8.1-11.6 3.7-3.9 8.8-7.3 4.6-14.1 2.3.1 3.2 3.1 5.5 1s1-3.9.1-5.8c-.9-2-1.9-4-1.5-6.6 2.1 1.8 3.7 4.3 7.4 4.2.1-.1.1-.2.2-.2-4.5-3.8-6.2-8.1-4.5-14 2.7 3.7 5.9 6.2 10.2 6.9 5 .8 9.5 1.1 13.9-3 6.9-6.4 16-8.2 24.9-9.9v-.1c-1.7-.5-3.5-1-5.2-1.5-.4 0-.7-.1-1-.3-8 1.2-15.1 4.5-21.5 9.5-1.2 1-2.3 2.2-4 2.6-4.1 1.1-10.6-1.1-13.3-4.9-1.3-1.7-2.5-3.6-4.9-2.9-2.5.6-2.5 3-2.8 5-.2 1.2.2 2.9-.5 3.4-3.7 2.7-2.4 6.1-1.8 9.5.1.7.6 1.5-.6 1.6-5.3.4-4.4 4.1-3.3 7.1 1.4 3.6.1 5.8-2.3 8.1-5.2 4.9-9.3 10.6-12.7 16.9-5.8 10.5-8 22-10.5 33.5-1.3 5.8-4 8.2-9.9 8.7-1.3.1-2.6.2-4 .2-.9 0-1.9 0-2.4.8-.7 1.2.5 1.8 1.2 2.5z"/>
	<path class="st579" d="M28.3 127.7c-.3.1-.6.4-.9.7-2.4 6.7-1.5 13.7-2.2 20.5-.4 3.2-.9 6.8 1.2 9.9-.1-10.4.7-20.7 1.9-31.1z"/>
	<path class="st580" d="M210.9 183.4c-2.1-.5-4.3-1-6.4-1.5-6.4-1.8-11.9-4.5-12.7-12.1-.4.2-.8.3-1 .4-15 13.4-36.5 14.9-53.5 3.6-2.3-1.5-3.1-.2-4.4.8-13.3 10.3-27.8 10.5-42.7 4.7-9.2-3.6-10.8-3.8-20.4-1-16.6 4.9-32.4 4.5-45.8-8.7-2.1 11-11.1 13.2-20 16.3 7.8.8 14.3-1.5 19.3-6.7 2-2.1 3.1-2.2 5.7-1 16.1 7.6 32.5 7.7 48.8.9 2-.8 2.9-.2 4.2.8 4.2 3.2 9 5 14.3 5.4 7.6-1.3 15.3-1.3 22.9 0 3.1 0 6.4-.6 8.8-2.4 5.3-3.9 10-3 16.1-1.4 14.6 3.9 29.4 3.7 43.3-3.7 1.2-.6 2.1-1.7 3.7.1 3.6 4.3 8.7 6.3 14.2 7.3 1.7-1.4 4.1-.3 5.6-1.8z"/>
	<path class="st580" d="M310.9 183.3c-5.1-1.9-10.4-3.5-14.2-7.7-.7-.8-1.5-.7-2.3 0-5.6 5.5-12.5 8.1-20 9.5-1.6 1-6.1 1.4-8.7.7-.1 0-.1-.2-.1-.3 0-.1.1-.3.2-.4-7.5-1.5-14.4-4.1-19.9-9.6-.8-.8-1.5-.7-2.2 0-5.3 4.9-12.2 6.1-18.9 7.8 1.3 1.3 3.4.5 4.6 1.9 4.5-.3 8.8-1.3 12.6-3.6 1.8-1.1 3-.9 4.7.4 5 3.9 10.9 5.7 17.3 5.8 4.1-1.4 8.2-1.3 12.3 0 1.7-.2 3.5-.3 5.2-.5 5.4-.8 9.7-5.3 14.4-6 4.5-.7 9.5 4 15 3.9-.1-.6-.1-1.2 0-1.9z"/>
	<path d="M218.6 41.6c-.5 2.6 1.2 2.7 2.9 2.6 2.9-.2 4.5-1.9 4.6-4.4.1-2.5-.8-4.1-2.7-5-1.7-.8-3.4-.5-5 .5-2.2 1.5 0 2.8.2 4.2 0 .6.1 1.4 0 2.1z" style="fill:#f38d37"/>
	<path class="st582" d="M483 87.6c.3 16.2-.2 32.4.3 48.6v.1c.1.1.1.2.2.3.7-16.2.3-32.3.2-48.5-.1-.1-.2-.3-.3-.3-.1-.1-.3-.1-.4-.2z"/>
	<path class="st582" d="M482.6 84.1v50.5c0 .5.3 1.1.6 1.6v-.1c-.5-16.2 0-32.4-.3-48.6.1 0 .3.1.4.2l.3.3c-.5-1.1.3-2.5-1-3.9z"/>
	<path class="st583" d="M224.6 183.4h-13.7c-1.2 2.6-3.8.8-5.5 1.8 7.9 1 15.9 1.1 23.9.1-1.4-1.1-3.8.5-4.7-1.9z"/>
	<path class="st583" d="M210.9 183.4c-1.5 1.5-3.9.4-5.5 1.8 1.7-1 4.3.8 5.5-1.8z"/>
	<path class="st583" d="M224.6 183.4c.8 2.4 3.3.8 4.6 1.9-1.1-1.4-3.3-.6-4.6-1.9z"/>
	<path d="M240.4 39c2-.1 3.1-1.5 3.1-4.1-.2-1.5-1.3-2.8-3.4-2.8-2.1 0-3.3 1.4-3.4 3.4 0 2.3 1.4 3.7 3.7 3.5z" style="fill:#f38e39"/>
	<path class="st585" d="M93.5 153.1c-4.2 2.3-7.5 6.8-12.2 9.2.6.4 1.2.7 1.8 1.1 2.2-4.9 6.9-7.3 10.4-10.3z"/>
	<path class="st585" d="M81.2 162.4c4.8-2.5 8.1-6.9 12.2-9.2-3.5 2.9-8.2 5.4-10.5 10.3 4.8-3.9 8.9-8.7 13.9-12.4-6.2 2.3-11.3 6.2-15.6 11.3z"/>
	<path class="st586" d="M254.5 89.1c-.1 10.7 0 21.3-.1 32 0 1.4.5 2.9-.5 4.2.2 0 .7.2.7.1.2-.4.4-.8.4-1.2V85.4c-1.1 1-.4 2.5-.5 3.7z"/>
	<path class="st586" d="M254.4 85.3c-.2.1-.3.5-.3.7 0 13.1-.1 26.2-.1 39.2 1-1.3.5-2.8.5-4.2 0-10.7 0-21.3.1-32 0-1.2-.7-2.6.5-3.7-.3.1-.6-.1-.7 0z"/>
	<path d="M238.1 52.7c2.2.1 3.1-1.3 3.4-3.2-.3-1.9-1.3-3.1-3.2-3-1.8.1-3 1.1-3.1 3.1 0 1.8 1 3 2.9 3.1z" style="fill:#f38f38"/>
	<path class="st588" d="M113.3 12.4v.3h9.6v-.1c1.2-2.2 3.4-1.1 5.1-1.6.1 0 .2-.1.3-.1-1.5-.3-3-.5-4.4-.8v.5c-3.9 1.7-7.7 1.7-11.6 0 0-.2.1-.4 0-.5-1.8.3-3.5.5-5.3.8.3.1.7.2 1 .3 1.9.2 4-.8 5.3 1.2z"/>
	<path class="st588" d="M122.8 12.6c0 .1 0 .1 0 0 1.7-.5 3.4-1 5.1-1.6-1.7.5-3.9-.6-5.1 1.6z"/>
	<path class="st588" d="M113.3 12.4c-1.4-2-3.4-1-5.2-1.2 1.7.5 3.5 1 5.2 1.5v-.3z"/>
	<path class="st589" d="M659.8 140.1c6.2.7 12.4.9 18.5 0-6.1-.2-12.3-.4-18.5 0z"/>
	<path class="st589" d="M659.8 140.1c6.2-.4 12.4-.2 18.5 0-6.1-1.3-12.3-1.3-18.5 0z"/>
	<path class="st590" d="M310.8 185.3c4.4.3 8.7.6 13.1 1-4.1-2.1-8.7-2.2-13-2.9.4.6.4 1.2-.1 1.9z"/>
	<path class="st590" d="M310.9 183.3c0 .7 0 1.3-.1 2 .5-.7.5-1.3.1-2z"/>
	<path class="st591" d="M96.4 185.3c7.6.6 15.3.7 22.9 0-7.6-.6-15.2-.7-22.9 0z"/>
	<path class="st591" d="M96.4 185.3c7.6-.6 15.3-.6 22.9 0-7.6-1.4-15.2-1.4-22.9 0z"/>
	<path class="st592" d="M477.1 42.3c1.6.1 3.2-.4 4.7.4-.3-.9-1-1-1.7-1l-21.3.3c6.1.7 12.2.1 18.3.3z"/>
	<path class="st592" d="M462.5 42.7h19.3c-1.5-.8-3.1-.3-4.7-.4-6.1-.2-12.2.4-18.3-.3 1.1 1.1 2.5.7 3.7.7z"/>
	<path class="st593" d="M161.5 15.9c.3 2.7-.9 5.5.7 8.1 0-3.2 0-6.4-.1-9.6 0-.9.6-2.3-.7-2.6-1-.2-1.8.6-2.4 1.5 2.6-.9 2.3 1 2.5 2.6z"/>
	<path class="st593" d="M161.1 17.2c.4 2.3-1.1 4.9 1.1 6.8-1.5-2.6-.3-5.4-.7-8.1-.2-1.6.1-3.6-2.6-2.6 2.7.3 1.9 2.3 2.2 3.9z"/>
	<path class="st594" d="M572.1 41c-4.7-.6-9.4-.6-14.1 0 4.7.6 9.4.7 14.1 0z"/>
	<path class="st594" d="M572.1 41c-4.7.7-9.4.6-14.1 0 4.7 1.3 9.4 1.3 14.1 0z"/>
	<path class="st595" d="M664.4 61.4h11.2c-3.7-1-7.5-.9-11.2 0z"/>
	<path class="st595" d="M675.8 61.1c0-.1 0-.4-.1-.4-3.8 0-7.7-1.4-11.3.7 3.7-1 7.5-1 11.2 0 .1-.1.2-.2.2-.3z"/>
	<path class="st596" d="M263.8 188h12.3c-4-.7-8.1-.7-12.3 0z"/>
	<path class="st596" d="M263.8 188c4.1-.7 8.2-.7 12.3 0-4-1.4-8.1-1.4-12.3 0z"/>
	<path class="st597" d="M384.4 139.2c4.1.5 8.2.5 12.3 0-4.1-.6-8.2-.6-12.3 0z"/>
	<path class="st597" d="M384.4 139.2c4.1-.6 8.2-.6 12.3 0-4.1-1.3-8.2-1.2-12.3 0z"/>
	<path class="st598" d="M123 10.6c.3-.1.6-.3.9-.5-3.8-.5-7.7-.5-11.5 0 .3.2.6.4.9.5h9.7z"/>
	<path class="st598" d="M113.2 10.6c-.3-.1-.6-.3-.9-.5v.5h.9z"/>
	<path class="st598" d="M123.9 10.6c0-.2-.1-.3 0-.5-.3.2-.6.4-.9.5h.9z"/>
	<path class="st599" d="M274.3 185.2h-8.6c2.9.9 5.8.9 8.6 0z"/>
	<path class="st599" d="M265.5 185.6c0 .1 0 .3.1.3 2.6.7 7.1.3 8.7-.7-2.9.9-5.7.9-8.6 0-.1.2-.2.3-.2.4z"/>
	<path class="st597" d="M440 85.3c-.6 2.9-.6 5.8 0 8.8v-8.8z"/>
	<path class="st597" d="M440 85.3c-1.3 2.9-1.3 5.8 0 8.8-.6-3-.6-5.9 0-8.8z"/>
	<path class="st600" d="M386.3 115.2c-.1.1-.2.2-.2.4 0 .1 0 .4.1.4 2.9.1 5.9 1.3 8.7-.7-3 .8-5.8.9-8.6-.1z"/>
	<path class="st600" d="M394.8 115.2h-8.5c2.8 1 5.6.9 8.5 0z"/>
	<path class="st601" d="M105.8 133.4c-.2-.2-.3-.4-.5-.6.1.3.3.5.5.6z"/>
	<path class="st601" d="M64.7 33c-.6-.4-1.1-1-2-1.3 0 1.4.7 2.5 1.1 3.6 1.7 4.4 1.3 5.5-3.2 7.2-.8.3-1.3.4-1.1 1.4.8 4.1-2 6.7-4.4 9.2-5.4 5.6-9.5 12-12.5 19.2-3.7 9-7.2 18.1-8.9 27.7-1.7 9.5-3.5 11.1-13.2 13 2.4 2.1 5.2 2.7 8 3.2 2.9.5 3.8 2.9 1.4 4.1-4.2 2.1-2.8 4.6-1.7 7.4 1.9-1.2 4.1-.2 6.2.1 4 .5 7.9.8 11.8 0 1.4-.3 3-1.3 4.1.2 1 1.4-.1 2.8-.7 4.1-.3.5-.6 1-.5 2.3 10.2-1.1 20.2-4.2 30.4-5.4.5.1 1.1.1 1.6.2 1.8-.7 3.6.2 5.4.5.9.8 1.3 2.3 3 1.7 3.2-1 5 0 4.2 4.3 3.3-1.7 6.1-3 8.7-4.5 2.2-1.3 2.9-.4 2.9 1.7 2.1.9 3.2-2.3 5.2-1.8.4-.1.8-.1 1.3 0 2.2 1.6 1 3.7.8 5.7-.1 1.7-.7 3.4-.8 6 11.5-5.5 23.8-7.7 35.6-11.5h.7c1.4-2.2 4.2-2.2 6.3-2.7 4-1 4.9-2.7 4.8-7-.2-11.2 3.5-21.3 11.6-29.5 1.4-1.4 3-2.6 4.9-2.8 3.9-.3 6.4-3.5 9.9-4.5 2-.6 1.4-2.6 1.2-4.2-.6-4.4-3.4-7.7-5-11.6.1-.2.1-.3.1-.5-7.3-7-15.8-12.3-23.7-18.5-3.1-1.1-6.2-5.8-5.9-8.7.1-1.4 1.1-1 1.9-1.2 2.6-.5 4 1.2 5.5 2.9 1.9-4.1-1.9-5.1-3.9-5.2-4.8-.1-5.2-3-5.5-6.3h-.2c-5.7-9.8-14.6-14.8-25.4-16.9-1-.2-2-.5-2.1-1.7h-.1c-3.1 1.7-6.2 1.7-9.3 0h-.2c-.3 2-2.2 1.6-3.5 1.8-7.9 1.2-15 4.3-21.3 9.1-5.9 4.5-15.4 4.3-21.3-.4-.6-.5-1-1.1-2.2-1.4-.4 3.1.6 5.6 2.4 8 .6.8 2.2 1.6 1.4 2.8.1.1.2.1.3.2h-.4l-.2.2c-.8 1.1-2.3.5-3.5-.2zm-6.8 72.4c-4.7-7.1-3.9-15.7 1.9-21.6-4.4 17.2.2 25.2 16.3 28.1-6.1 2.6-14.1-.3-18.2-6.5zm69.8 15.3c-5.2 4.5-11 7.8-17.9 8.6-4.2.5-9-5.8-7.6-10.2.5-1.6-.3-4.6 3-4.5 3 5.3 7.8 6.1 13.3 5.2 2.5-.4 4.9-1.1 7.1-2.1 1.2-.8 2.7-2.3 3.8-1.1 1.2 1.5-.5 3.1-1.7 4.1zm-2-56.2c-7.6-3.9-13.8-10.2-22.7-12.2 3.4-.3 5-2.4 6.6-4.9 1-1.6 2.4-3 3.8-4.3 9.1-9 21.6-6.8 27.4 4.8.7 1.5.8 2.6-.2 4-2.4 3.3-4.4 7-7 10.2-2.1 2.5-2.3 4.5-.9 7.4 3.1 6.3 7.9 10.5 14.5 12.8h7.8c-1.8 2.5-4.5 1.9-7 2.1-4.1 9-10.1 16.6-17.2 23.3-1.2 1.1-2.5 2.1-3.9 2.9-7.8 5-14.5 3-18.4-5.4-1.3-2.8-2.3-5.8-2.6-8.9-.3-2.7-1.2-3.9-4.2-2.8-1.9.7-4 .8-6.1.8 7.2-2.8 14-6.3 19.7-11.5 4.2 2.3 4.2-5.5 8.4-3.4 0 0 .7-1.2 1.1-1.8 1.3-1.9.4-5 3.9-5.9 1.2-.3-.7-6-3-7.2zm-53.9-19c5.3-1.2 8.5.3 11 5.7 1 2.2 2.2 2.4 4.1 2 2.7-.5 5.3-1 8-1.5.1.4.1.8.2 1.2-6.2.9-11.9 2.8-17 6.5-.8.6-1.6 1.3-2.5 1.8-1.7 1.1-2.8 4.5-4.8 3.3-3.3-2-6.4-4.9-6.2-9.4.1-4.4 3.5-8.8 7.2-9.6z"/>
	<path class="st601" d="M79.6 129c-10.2 1.2-20.1 4.3-30.4 5.4-.2-1.3.2-1.7.5-2.3.6-1.3 1.7-2.7.7-4.1-1.1-1.5-2.7-.5-4.1-.2-4 .8-7.9.4-11.8 0-2-.2-4.2-1.2-6.2-.1v.1c7.1 1.7 14.2 3.1 21.6.2.1 3.3-3.1 4.8-3.3 8.1 11.5-1.6 22.7-3.9 33.8-6.5.3-.2.5-.3.8-.4-.5-.1-1.1-.2-1.6-.2z"/>
	<path class="st601" d="M148.2 131.1h-.7c-11.8 3.8-24 5.9-35.6 11.5.1-2.5.7-4.2.8-6 .1-1.9 1.4-4.1-.8-5.7-.5-.1-.9 0-1.3 0 .2 0 .5.1.7.3 2.1 4.5-1 8.6-1.3 13.5 12.2-6.6 25.3-8.4 37.7-12.6.2-.3.3-.7.5-1z"/>
	<path class="st601" d="M182 68.8c1.6 3.9 4.5 7.3 5 11.6.2 1.6.8 3.6-1.2 4.2-3.6 1-6 4.2-9.9 4.5-1.9.1-3.5 1.4-4.9 2.8-8.1 8.2-11.8 18.3-11.6 29.5.1 4.3-.8 6-4.8 7-2.1.5-4.9.5-6.3 2.7h1.2c2.3-1.3 5-2 7.5-2.4 3.8-.6 4-2.2 3.7-5.6-.9-11.4 2.8-21.5 10.5-29.9 3.9-4.2 10.1-4.4 14.9-7.1 2-1.1 2.5-1.7 2.4-3.6-.4-5.5-2.6-10.2-6.3-14.2-.1.2-.2.4-.2.5z"/>
	<path class="st601" d="M124.9 14.4c10.8 2.1 19.7 7.1 25.4 16.9h.2V31c-1.2-4.7-4.5-7.8-8.3-10.5-5.8-4.2-12.5-6.3-19.4-7.8.1 1.3 1.1 1.5 2.1 1.7z"/>
	<path class="st601" d="M148.2 131.1c-.2.3-.4.7-.5 1.1.5-.4 1.1-.7 1.7-1.1h-1.2z"/>
	<path class="st601" d="M67.3 30c-1.8-2.4-2.8-4.9-2.4-8 1.2.3 1.7 1 2.2 1.4 5.9 4.7 15.3 4.9 21.3.4 6.4-4.8 13.4-7.9 21.3-9.1 1.3-.2 3.3.2 3.5-1.8-9 1.6-18 3.5-24.9 9.9-4.3 4-8.9 3.8-13.9 3-4.3-.7-7.6-3.2-10.2-6.9-1.7 5.9 0 10.2 4.5 14 .8-1.3-.8-2.1-1.4-2.9z"/>
	<path class="st601" d="M30 120.3c2.4-1.2 1.5-3.5-1.4-4.1-2.9-.5-5.7-1.1-8-3.2 9.7-1.9 11.5-3.5 13.2-13 1.7-9.7 5.2-18.7 8.9-27.7 3-7.1 7-13.6 12.5-19.2 2.4-2.5 5.2-5 4.4-9.2-.2-1 .3-1 1.1-1.4 4.5-1.8 4.9-2.8 3.2-7.2-.4-1.1-1.1-2.2-1.1-3.6.9.4 1.4 1 2 1.3 1.2.7 2.7 1.2 3.7.2l.2-.2c-3.7 0-5.3-2.5-7.4-4.2-.3 2.6.6 4.6 1.5 6.6s2.2 3.7-.1 5.8c-2.3 2.1-3.2-.9-5.5-1 4.3 6.8-.9 10.1-4.6 14.1-3.2 3.5-6 7.3-8.1 11.6-5.6 11.7-10.4 23.8-12.3 36.7-.8 5.1-3.7 7.4-8.2 8.4-1.9.4-3.8.6-6.1 1 3.6 4.3 8.2 4.8 12.8 5.3-.9 3.7-4.3 3.8-6.7 5 1 2.4 2.8 3.7 4.4 5.3-1.2-2.7-2.6-5.3 1.6-7.3z"/>
	<path class="st601" d="M28.3 127.7z"/>
	<path class="st601" d="M122.7 12.7h-9.3c3.2 1.7 6.3 1.7 9.3 0z"/>
	<path class="st602" d="M104.9 133.2c-3-1.8-4.8.9-7.2 1.7-2.2.8-4.5 2.4-5-1.8-.1-1-.7-1.4-1.4-1.4.9.3 1.4 1 1.2 2.7-.3 2 .8 1.9 2.1 1.6 1.1-.3 2.3-.7 3.3-1.1 1.9-.9 3.7-2.6 5.8 0 .6.8 1.7-.5 2.6-1-.1-.1-.2-.2-.3-.4-.3.1-.7 0-1.1-.3z"/>
	<path class="st602" d="M87.8 132.1c.2-.1.4-.1.6-.2-.7-.2-1.3-.6-1.8-1.1.2.7.7 1 1.2 1.3z"/>
	<path class="st602" d="M103.8 135c-2.1-2.6-3.9-.9-5.8 0-1.1.5-2.2.9-3.3 1.1-1.3.3-2.4.4-2.1-1.6.2-1.7-.3-2.5-1.2-2.7-.4 0-.9 0-1.3.2-.6.2-1.1.1-1.6 0-.2 0-.4.1-.6.2.5.3 1 .5 1.4.8 6.3-.7-.4 3.4 1.8 4.3 2.8.8 5.5-.4 8.1-1.6 3.2-1.5 3.2-1.6 3.7 1.9 1.4-.9 2.8-1.8 4.1-2.6-.2-.3-.5-.6-.7-.9-.8.3-1.9 1.7-2.5.9z"/>
	<path class="st602" d="M86.6 130.9c.5.5 1.1.9 1.8 1.1.2 0 .3-.1.5-.1.9-.2 1.8-.3 2.4-.1.7 0 1.3.4 1.4 1.4.5 4.2 2.8 2.5 5 1.8 2.3-.8 4.2-3.5 7.2-1.7.4.2.8.3 1.1.4-.1-.1-.1-.2-.2-.2-.2-.1-.4-.3-.5-.6 0-2.2-.7-3-2.9-1.7-2.6 1.5-5.4 2.8-8.7 4.5.8-4.2-1-5.3-4.2-4.3-1.7.5-2.1-.9-3-1.7 0 .4 0 .8.1 1.2z"/>
	<path class="st602" d="M88.9 131.9c-.1 0-.3.1-.5.1.5.1 1 .1 1.6 0 .4-.1.9-.2 1.3-.2-.6-.2-1.5-.1-2.4.1z"/>
	<path class="st603" d="M86.2 130.4c-.3-.2-.7-.3-1.1-.4.4.2.7.5 1 .9.1-.1.1-.2.1-.5.1.1 0 0 0 0z"/>
	<path class="st603" d="M86.2 130.9c-.3-.4-.7-.7-1-.9-1.5-.3-3.2.2-4.7-.5.3 1.2 1.3 1.1 2.1 1 3.3-.4 3.2 1 1.3 3.6 2.2-.5 3.8-.8 5.4-1.2-1.4-.4-3.3-.4-3.1-2z"/>
	<path class="st603" d="M86.2 130.4s.1.1 0 0c.1-.2.2-.5.4-.9-1.8-.2-3.6-1.1-5.4-.5 1.4.1 2.8.2 3.9.9.4.2.8.3 1.1.5z"/>
	<path class="st603" d="M85.1 130c-1.1-.7-2.5-.8-3.9-.9-.3.1-.5.2-.8.4 1.5.7 3.2.2 4.7.5z"/>
	<path class="st603" d="M86.6 130.9c-.1-.1-.2-.2-.3-.4 0 .2-.1.3-.1.5.3.3.5.7.7 1.2.1.2.5.1 1 0-.6-.4-1.1-.7-1.3-1.3z"/>
	<path class="st603" d="M86.9 132.1c-.2-.5-.4-.8-.7-1.2-.1 1.6 1.7 1.6 3.1 2-.4-.3-.9-.5-1.4-.8-.5.1-.9.2-1 0z"/>
	<path class="st603" d="M86.6 130.9c-.1-.3-.1-.8 0-1.3-.2.3-.3.6-.4.9.2.1.3.2.4.4z"/>
	<path class="st604" d="M106.8 133.7c.1-.1.3-.2.4-.3-.2.1-.4.1-.7.2.1.1.2.1.3.1z"/>
	<path class="st604" d="M107.1 133.5c-.1.1-.3.2-.4.3.3.2.5.5.3 1.1 1.4-1.2 2.9-2.4 4.3-3.5-1.6-.2-2.7 1.5-4.2 2.1z"/>
	<path class="st604" d="M105.8 133.4c.2.1.4.2.7.2.2 0 .4-.1.7-.2 1.1-.9 2.1-2.1 3.5-2.5-2-.4-3.1 2.7-5.2 1.8 0 .3.2.5.3.7z"/>
	<path class="st604" d="M110.6 131c-1.4.3-2.3 1.6-3.5 2.5 1.4-.6 2.5-2.3 4.2-2.2-.2-.2-.5-.2-.7-.3z"/>
	<path class="st604" d="M106 133.6c.1.1.2.2.3.4h.1c.1-.1.2-.1.4-.2-.1 0-.2-.1-.3-.1-.2-.1-.3-.1-.5-.1z"/>
	<path class="st604" d="M106.8 133.7c-.1.1-.2.1-.4.2h-.1c.2.3.5.6.7.9.3-.6.1-.9-.2-1.1z"/>
	<path class="st604" d="M105.4 132.8z"/>
	<path class="st604" d="M106.5 133.6c-.2-.1-.5-.2-.7-.2.1.1.1.2.2.2h.5z"/>
	<path class="st601" d="M237.1 142.7c-1.1.8-4.3-1.1-3.3 2.2 1.1 3.8 9.3 8.2 13.1 7.6 1.8-.3 3.5-.9 1.8-3.1-3-3.6-6.8-5.9-11.6-6.7z"/>
	<path d="M256.5 151.8c-.5-.1-1.4.1-1.2.8.3 1.5 1.5 2.5 2.9 3.1.6.3 1.1-.2 1.1-1.1-.3-1.4-1.2-2.4-2.8-2.8z" style="fill:#c99e82"/>
	<path class="st601" d="M175.5 96.8c.2-.4.4-.8.4-1.2-9.8 5.7-13.8 24.2-8.2 37.2 3.1-2 5.7-1.8 8.9.9 2.9 2.4 5.6 5.1 7.2 8.8 2.8-1.7 4.1-6.2 8.7-4.7.5.2.9-.6 1.2-1.1 4.4-7.9 9.5-15.5 9.9-25.1.1-2.7 0-5.3-.4-7.9-.8-5-4.9-6.7-9.1-4-.5.3-.9.8-1.4 1.1-.7.4-1.6 1.1-2.4.4-.7-.7-.5-1.7-.1-2.5.6-1.6 1.8-3.1-.5-4.5-2.1-1.2-3.9-1-5.8.2-2 1.3-3.4 3.2-5.2 4.7-.8.7-1.6 1.8-2.7 1.5-.1.1-.1.2-.2.2v-.3c-.1-.1-.3-.1-.4-.3-1.2-1.1-.3-2.4.1-3.4z"/>
	<path class="st601" d="M178.7 98.8c1.8-1.5 3.2-3.5 5.2-4.7 1.9-1.2 3.8-1.4 5.8-.2 2.3 1.4 1.1 2.9.5 4.5-.3.8-.6 1.8.1 2.5.8.7 1.6 0 2.4-.4.5-.3.9-.7 1.4-1.1 4.2-2.8 8.3-1.1 9.1 4 .4 2.6.5 5.2.4 7.9-.4 9.6-5.5 17.2-9.9 25.1-.3.5-.7 1.3-1.2 1.1-4.6-1.4-5.9 3.1-8.7 4.7.1.2.1.3.2.5 2.9-.7 4.4-3.1 5.8-5.3 1.9.2 1.6 2.8 3.5 2.5.8-1.9 1.2-4.2 2.6-5.5 4.2-3.8 4.9-9.4 7.4-14.1 2.2-4.1 2-9.7 1.5-14.7-.4-3.7-.9-7.1-4.9-8.6-4.1-1.5-6.7.8-8.9 3.8 0 .1-.4-.1-.8-.3.3-.8.8-1.6 1-2.4.4-1.4 2.4-2.6.7-4.3-1.5-1.5-3.3-2.5-5.6-2.1-2.1.4-3.9 1.3-5.4 2.9-1.5 1.6-3 3.3-4.9 5.5 1 .5 1.9-.6 2.7-1.3z"/>
	<path class="st601" d="M176 95.5c0 .5-.3.8-.4 1.2-.5 1.1-1.3 2.4-.2 3.2.2.1.3.2.4.3.1-3.2 2.4-4.6 2.8-6.8-3.3.4-3.4.3-5.4 2.6-6.1 6.9-9.1 15.1-9.3 24.2-.1 4.6.4 9.1 3.4 12.9.2-.1.4-.3.6-.4-5.8-13-1.7-31.5 8.1-37.2z"/>
	<path class="st601" d="M176.6 133.5c-3.2-2.6-5.8-2.8-8.9-.9 0 .1 0 .1.1.2 3.9-1.2 6.9.2 9.9 3 2.2 2 3.2 5 5.8 6.6.1-.1.2-.1.3-.2-1.5-3.5-4.2-6.2-7.2-8.7z"/>
	<path class="st601" d="M183.5 142.5c.2.1.3.2.5.3-.1-.2-.1-.3-.2-.5-.1.1-.2.1-.3.2z"/>
	<path class="st601" d="M167.8 132.7c-.2.1-.4.3-.6.4.2-.1.5-.2.7-.2-.1-.1-.1-.1-.1-.2z"/>
	<path class="st576" d="M157.7 37.2c2.3.6 4.9 2.3 3.1 5.8-.3.1-.6.2-.8.2.5 2.2.2 4.2-1.1 6.1 6.4 4.8 13.2 8.8 19.1 14.3 1.6 1.5 3.6 2.6 4.1 4.9.5-1.9.1-3.7-.4-5.6-2.9-10.8-9.3-19.2-17.7-26.4-1.8-1.5-3.9-2.9-3.2-5.7.1-.4.1-1.1-.3-1.2-5-1.1-2.5-5.1-3.1-8.1-3 1.8-5.3 3.8-5.2 7.6 0 1-.2 2.3-1.6 2.4 1.5 2.8 3.6 4.8 7.1 5.7z"/>
	<path class="st576" d="M152.2 28.9c-.1-3.8 2.2-5.8 5.2-7.6.6 3-1.9 7 3.1 8.1.4.1.4.7.3 1.2-.6 2.9 1.4 4.2 3.2 5.7 8.3 7.1 14.8 15.6 17.7 26.4.5 1.9.9 3.7.4 5.6 3.2-.1 1.6-2.1 1.3-3.4-2.7-11.6-8.7-21.2-17.9-28.6-2.9-2.3-4.9-4.4-2.7-8.9-4.2 2.1-4.6.2-4.3-2.7.1-1.8 1.1-3.7 0-5.9-3.5 3.1-8.2 5-7.1 10.9.1.4-.6.9-.9 1.4 0 .1.1.2.1.3 1.5-.2 1.7-1.4 1.6-2.5z"/>
	<path class="st576" d="M160.8 42.9c1.8-3.4-.8-5.2-3.1-5.8-3.5-.9-5.6-2.9-7.1-5.8h-.1c.3 3.4.7 6.2 5.5 6.3 2 .1 5.8 1 3.9 5.2 0 .1 0 .2.1.2.2.1.5 0 .8-.1z"/>
	<path class="st576" d="M178 63.4c-5.9-5.4-12.8-9.5-19.1-14.3-.2.2-.3.4-.5.7 7.9 6.2 16.4 11.6 23.7 18.5-.5-2.3-2.5-3.4-4.1-4.9z"/>
	<path class="st576" d="M182.1 68.3z"/>
	<path class="st576" d="M150.5 31.3h.1c0-.1-.1-.2-.1-.3v.3z"/>
	<path class="st606" d="M112.3 10.6c3.9 1.7 7.7 1.7 11.6 0-3.9 1.1-7.7 1-11.6 0z"/>
	<path class="st606" d="M122.8 10.7s.1 0 .1-.1h-9.7s.1 0 .1.1c3.2.2 6.4.2 9.5 0z"/>
	<path class="st606" d="M122.8 10.7c-3.2.2-6.3.2-9.5 0 0 0-.1 0-.1-.1h-.9c3.9 1 7.7 1 11.6 0h-.9c-.1 0-.1.1-.2.1z"/>
	<path class="st577" d="M128.4 71.8c-3.5.9-2.6 4-3.9 5.9-.4.6-1 1.8-1.1 1.8-4.1-2.1-4.2 5.7-8.4 3.4-5.7 5.3-12.4 8.7-19.7 11.5 2.1 0 4.3-.1 6.1-.8 3-1.1 3.9.1 4.2 2.8.3 3.1 1.3 6 2.6 8.9 3.9 8.4 10.5 10.4 18.4 5.4 1.4-.9 2.7-1.8 3.9-2.9 7.1-6.8 13.1-14.4 17.2-23.3.2-.9-2.1-.8-.7-2.1-6.5-2.3-11.4-6.5-14.5-12.8-1.4-2.9-1.2-4.9.9-7.4 2.6-3.1 4.6-6.8 7-10.2 1-1.4.9-2.6.2-4-5.7-11.6-18.3-13.9-27.4-4.8-1.4 1.3-2.7 2.7-3.8 4.3-1.5 2.4-3.1 4.6-6.6 4.9 8.9 1.9 15.1 8.3 22.7 12.2 2.5 1.1 4.4 6.8 2.9 7.2zm.5-30.6c3.2-.8 4.2 1.2 5.4 4.2-2.8-.9-4.7-1.6-5.4-4.2zm11 52.9c-4.7 5.6-8.4 11-13.6 14.9-3 2.3-6.5 3.9-10.3 1.9-4.4-2.3-6.3-6.4-7.4-11-.3-1.4.5-1.9 1.5-2.3 3.2-1.5 6.6-2.7 10.1-3.3 4.6-.8 5.5.2 5.2 5.1 2.6-7 8.3-5.3 14.5-5.3z"/>
	<path d="M125.6 117.8c.5.3 1.2.7.3 1.2-5.6 3.3-11.4 5-17.6 1.9-2.3-1.1-5.1-2.7-3.2-6.2-3.3-.1-2.5 2.9-3 4.5-1.4 4.4 3.4 10.7 7.6 10.2 6.9-.8 12.8-4.1 17.9-8.6 1.1-1 2.8-2.5 1.6-4-.9-1.4-2.4.2-3.6 1z" style="fill:#a7856e"/>
	<path d="M64.6 55.2c-.1 4.5 2.9 7.5 6.2 9.4 2.1 1.2 3.1-2.2 4.8-3.3.9-.6 1.6-1.2 2.5-1.8 5-3.7 10.8-5.6 17-6.5-.1-.4-.1-.8-.2-1.2-2.7.5-5.4.9-8 1.5-1.9.4-3.1.2-4.1-2-2.5-5.4-5.7-6.9-11-5.7-3.7.7-7.1 5.1-7.2 9.6zm7.7-5.8c3.3-1.6 7.1-.3 8.6 2.9.5 1 .8 1.9-.3 2.7-.6.3-1.2.7-1.9 1-.9 2-3 2.7-4.3 4.3-2.3 3-4.2 1.8-5.7-.9-1.9-3.5-.3-8.1 3.6-10z" style="fill:#b58e74"/>
	<path d="M59.8 83.8c-5.8 5.9-6.6 14.6-1.9 21.6 4.1 6.2 12.1 9.1 18.3 6.6-16.2-3-20.8-11-16.4-28.2z" style="fill:#241a16"/>
	<path class="st610" d="M156.4 41.6c-1.5-.4-2.3-.1-1.9 1.7.5 2.4 1.6 4.5 3.9 5.6 0-2 .6-3.9 1.4-5.7-1.3-.2-2.2-1.3-3.4-1.6z"/>
	<path class="st610" d="M158.4 48.8c-2.3-1.1-3.4-3.1-3.9-5.6-.4-1.8.4-2.1 1.9-1.7 1.2.3 2.2 1.5 3.4 1.5 0-.1.1-.2.1-.2-1.4-1.7-2.9-3.4-5.5-2.9-.8.1-1.8-.2-1.9 1.2-.3 2.9 2.8 7.6 5.9 8.7v-1z"/>
	<path class="st610" d="M160 43.1h-.2c-.8 1.8-1.4 3.7-1.4 5.7.1.1.2.1.3.2.1 0 .1.1.2.1 1.3-1.8 1.6-3.8 1.1-6z"/>
	<path class="st610" d="M158.7 49c-.1-.1-.2-.1-.3-.2v1c.2-.2.3-.4.5-.7 0 0-.1 0-.2-.1z"/>
	<path class="st610" d="M160 43.1c0-.1 0-.2-.1-.2 0 .1-.1.2-.1.2h.2z"/>
	<path class="st611" d="M112.2 121c4.9 1.2 9.5.1 13.4-3.2-2.3 1-4.7 1.8-7.1 2.1-5.5.8-10.3.1-13.3-5.2-.1 4.7 3.7 5.4 7 6.3z"/>
	<path class="st611" d="M108.3 120.9c6.2 3 12 1.3 17.6-1.9.8-.5.2-.9-.3-1.2-3.9 3.3-8.5 4.5-13.4 3.2-3.3-.8-7.1-1.5-7-6.3-1.9 3.5.8 5 3.1 6.2z"/>
	<path class="st612" d="M147.8 84.5c2.5-.2 5.3.4 7-2.1H147c-.3.9 1.8 1 .8 2.1z"/>
	<path class="st612" d="M147.8 84.5c1-1.1-1.2-1.2-.7-2.1-1.3 1.3 1 1.2.7 2.1z"/>
	<path d="M125.3 99.4c.3-5-.6-5.9-5.2-5.1-3.5.6-6.8 1.8-10.1 3.3-1 .4-1.8 1-1.5 2.3 1.1 4.6 3 8.8 7.4 11 3.8 1.9 7.3.3 10.3-1.9 5.2-3.9 8.9-9.2 13.6-14.9-6.1 0-11.8-1.7-14.5 5.3z" style="fill:#9d1f26"/>
	<path d="M134.4 45.4c-1.2-3-2.3-5-5.4-4.2.6 2.6 2.5 3.3 5.4 4.2z" style="fill:#ececeb"/>
	<path class="st577" d="M74.4 60.4c1.3-1.6 3.4-2.3 4.3-4.3-1.5-.9-1.7-2.2-.1-2.9 1.5-.7 1.9.6 2 1.9 1.1-.8.7-1.8.3-2.7-1.5-3.2-5.3-4.5-8.6-2.9-3.8 1.9-5.5 6.5-3.5 10.1 1.4 2.6 3.3 3.8 5.6.8z"/>
	<path class="st615" d="M78.7 56.1c.6-.3 1.2-.7 1.9-1-1.1-.5-1.8-.3-1.9 1z"/>
	<path class="st615" d="M78.6 53.2c-1.6.7-1.4 2 .1 2.9.1-1.3.8-1.4 1.9-1-.1-1.3-.5-2.6-2-1.9z"/>
</svg>
