<svg xmlns="http://www.w3.org/2000/svg" viewBox="-24.9 -23.9 1242.8 294.8">
	<path d="M321.595 53.177h30.795l60.424 95.701V53.177h27.094v142.286h-28.849L348.69 96.64v98.822h-27.094V53.177m257.084 71.142c0-25.534-20.465-46.39-45.999-46.39-25.535 0-45.806 20.856-45.806 46.39s20.27 46.39 45.806 46.39c25.534 0 45.999-20.856 45.999-46.39zm-118.703 0c0-40.346 32.357-73.091 72.704-73.091 40.542 0 72.896 32.745 72.896 73.09 0 40.543-32.354 73.092-72.896 73.092-40.347 0-72.703-32.55-72.703-73.091m146.765-71.142h28.066l33.135 100.964 33.135-100.964h28.07L681.59 195.463H654.3L606.742 53.177m142.085 0h84.398v25.922H775.92v31.966h57.304v25.924H775.92v32.55h57.304v25.924h-84.398V53.177m142.477 25.922h-37.812V53.177H956.21v25.922h-37.814v116.364h-27.093V79.099m117.72 0h-37.812V53.177h102.718v25.922h-37.813v116.364h-27.093V79.099m102.718 65.686h36.644l-18.322-53.016zm4.677-91.608h27.288l50.482 142.286h-28.262l-8.576-24.755h-54.575l-8.577 24.755h-28.26l50.48-142.286M124.322.009C55.662.009 0 55.397 0 123.723c0 58.675 41.048 107.808 96.126 120.517v-41.747L67.13 173.496H40.853a8.541 8.541 0 0 1-6.783 3.35 8.564 8.564 0 0 1 0-17.125 8.534 8.534 0 0 1 6.745 3.298h15.837L24.72 131.086a8.538 8.538 0 0 1-7.09-2.438 8.563 8.563 0 1 1 12.11-12.11 8.54 8.54 0 0 1 2.426 7.177l14.73 14.732v-17.824l-17.882-17.882a8.54 8.54 0 0 1-7.077-2.44 8.564 8.564 0 0 1 12.11-12.11 8.54 8.54 0 0 1 2.423 7.189l20.903 20.902v32.642l38.753 38.75v-17.687l-18.438-18.438c-.134.005-.265.019-.4.019a8.563 8.563 0 1 1 8.563-8.563 8.631 8.631 0 0 1-.172 1.718l20.912 20.913.01 80.544c4.1.584 8.265.967 12.483 1.142v-87.017l-70.9-70.9.006-29.956a8.54 8.54 0 0 1-3.34-6.776 8.562 8.562 0 0 1 8.563-8.563 8.562 8.562 0 0 1 8.563 8.563 8.54 8.54 0 0 1-3.309 6.752V85.07l37.291 37.29v-17.685L79.003 87.719a8.534 8.534 0 0 1-7.097-2.438 8.56 8.56 0 0 1 0-12.109 8.563 8.563 0 0 1 12.11 0 8.539 8.539 0 0 1 2.425 7.17l9.517 9.515V72.032L79.739 55.827V38.193a8.541 8.541 0 0 1-3.34-6.776 8.564 8.564 0 1 1 17.125 0 8.539 8.539 0 0 1-3.307 6.75v13.307l16.213 16.213.005 65.153 12.65 12.648v-15.001a8.539 8.539 0 0 1-3.325-6.764 8.563 8.563 0 0 1 8.562-8.563 8.563 8.563 0 0 1 8.564 8.563 8.539 8.539 0 0 1-3.325 6.764v47.345l12.57-12.569v-53.102L119.12 89.149l.009-58.882a8.536 8.536 0 0 1-3.314-6.756 8.563 8.563 0 0 1 17.125 0 8.54 8.54 0 0 1-3.334 6.772v54.536l23.014 23.014-.01.01v14.437l12.49-12.493v-7.027l-23.03-23.033h-.005V60.139a8.536 8.536 0 0 1-3.34-6.774 8.562 8.562 0 1 1 17.125 0 8.539 8.539 0 0 1-3.307 6.75v15.268L165.1 87.941V41.316a8.538 8.538 0 0 1-3.34-6.775 8.563 8.563 0 1 1 17.126 0 8.545 8.545 0 0 1-3.309 6.753l-.004 72.837-22.965 22.965v17.689l9.165-9.165a8.563 8.563 0 0 1-.097-1.221 8.563 8.563 0 0 1 8.564-8.563 8.563 8.563 0 1 1-.938 17.072l-39.74 39.742v54.672a125.66 125.66 0 0 0 12.468-1.14l-.004-48.174 46.076-46.076V57.567a8.541 8.541 0 0 1-3.315-6.755 8.563 8.563 0 0 1 17.127 0 8.541 8.541 0 0 1-3.335 6.771v36.32l9.453-9.45a8.543 8.543 0 0 1 2.439-7.087 8.564 8.564 0 0 1 12.11 12.11A8.542 8.542 0 0 1 215.4 91.9l-16.82 16.82v32.733l17.987-17.986a8.54 8.54 0 0 1 2.429-7.152 8.565 8.565 0 0 1 12.11 12.11 8.543 8.543 0 0 1-7.114 2.434l-32.349 32.349h16.04a8.538 8.538 0 0 1 6.765-3.327 8.563 8.563 0 0 1 0 17.126 8.538 8.538 0 0 1-6.763-3.324h-26.518l-28.66 28.66v41.9c55.085-12.705 96.139-61.841 96.139-120.52C248.646 55.397 192.985.01 124.322.01" fill="#3260b5"/>
</svg>
