<svg xmlns="http://www.w3.org/2000/svg" id="Layer_1" data-name="Layer 1" viewBox="0 0 515 241.49">
	<defs>
		<style>
			.cls-1{fill:#221f1f}
		</style>
	</defs>
	<g id="_Group_" data-name="&lt;Group&gt;">
		<path id="_Compound_Path_" data-name="&lt;Compound Path&gt;" class="cls-1" d="M59.9 75.38c2 19.92 2.84 35.28 2.84 69.72v75.4H21.2V21h52.08L114 99.56c10 19.07 20.77 41.26 28.17 61.18h1.14C141 132.86 141 105.26 141 84.2V21h41.26v199.5h-50.93L87.5 136.27c-10-19.35-18.21-39-26.46-60.9Z"/>
		<path id="_Compound_Path_2" data-name="&lt;Compound Path&gt;" class="cls-1" d="M303.9 170.14c0-31.59-91.91-27.32-91.91-90.21 0-33 29-58.9 70.29-58.9 33.3 0 54.07 15.37 60.61 23.9l-27 32.16c-4.83-6-16.22-18.5-37.28-18.5-14.23 0-22.2 8-22.2 17.93 0 32.16 91.63 27.32 91.63 90.78 0 29.88-24.76 58.9-75.41 58.9-38.42 0-62.32-17.08-69.15-24.76l24.76-35.86c8.54 8.54 25.89 23.9 50.08 23.9 17.32.01 25.58-8.81 25.58-19.34Z"/>
		<path id="_Compound_Path_3" data-name="&lt;Compound Path&gt;" class="cls-1" d="m380.36 82.37-16.82-33.73 38.05-26.34h42.06v198.58h-41.78V118.15l1.43-51.05"/>
	</g>
	<path id="_Compound_Path_4" data-name="&lt;Compound Path&gt;" d="M482.13 174.68c13.6 0 23.86 10.26 23.86 24.1 0 12.65-10.26 22.91-23.86 22.91A23 23 0 0 1 459 198.78c0-13.84 10.24-24.1 23.13-24.1Z" style="fill:#f4006f"/>
</svg>
