<svg xmlns="http://www.w3.org/2000/svg" width="200" height="128">
    <path fill="#231f20" d="M59.34 51.57c0 6.89 0 16.12.78 25.25h-.39c-2.13-6.6-5.83-14-9.13-20.2L37.19 30.78H20v66.06h13.7v-25c0-11.56-.1-16.52-.88-23.12h-.09v-.2h.19a194.87 194.87 0 008.84 20.21l14.48 27.62h16.9V30.58h-13.8zM97.91 49.23c0-3.3 2.53-5.83 7.29-5.83a15.16 15.16 0 0112.24 6l8.94-10.59c-2.24-2.72-9-7.87-20-7.87-13.81.06-23.33 8.48-23.33 19.46 0 20.79 30.21 19.23 30.21 29.73 0 3.3-2.72 6.21-8.26 6.31-7.87 0-13.6-5-16.51-7.87l-8.26 11.76c2.43 2.62 10.3 8.25 22.93 8.25 16.71 0 25-9.52 25-19.43-.04-20.98-30.25-19.33-30.25-29.92zM145.51 31.16l-12.43 8.85 5.54 11.17 7.48-5.15-.59 16.9v33.9h13.99V31.16h-13.99z"/>
    <path d="M172.13 81.58a7.61 7.61 0 017.87 7.87 7.78 7.78 0 01-15.54 0c.19-4.56 3.49-7.87 7.67-7.87" fill="#ec1671"/>
</svg>
