<svg viewBox="0 0 1917 625" xmlns="http://www.w3.org/2000/svg" xml:space="preserve" style="fill-rule:evenodd;clip-rule:evenodd;stroke-linejoin:round;stroke-miterlimit:2">
	<path d="M225.513 105.441V66.482c0-7.834-2.924-12.952-11.071-12.952-6.058 0-14.832 2.716-20.472 5.432l-.836-4.387h-7.103v50.866h8.774V67.004c5.431-2.82 13.265-5.118 17.025-5.118 3.238 0 4.909 1.358 4.909 4.7v38.855h8.774Z" style="fill:#808184;fill-rule:nonzero" transform="scale(4.16667)"/>
	<path d="M233.345 54.575v38.959c0 7.834 2.925 12.952 11.072 12.952 6.058 0 14.832-2.716 20.472-5.431l.835 4.386h7.103V54.575h-8.774v38.437c-5.431 2.82-13.265 5.118-17.025 5.118-3.238 0-4.909-1.358-4.909-4.7V54.575h-8.774Zm7.103-7.729h8.147v-8.67h-8.147v8.67Zm18.069 0h8.147v-8.67h-8.147v8.67Z" style="fill:#808184;fill-rule:nonzero" transform="scale(4.16667)"/>
	<path d="m299.461 98.235-13.997-43.66h-8.669l16.816 50.866h11.699l16.816-50.866h-8.669l-13.996 43.66Z" style="fill:#808184;fill-rule:nonzero" transform="scale(4.16667)"/>
	<path style="fill:#808184;fill-rule:nonzero" d="M326.094 54.575h8.774v50.866h-8.774z" transform="scale(4.16667)"/>
	<path d="M371.738 97.817c-3.238.835-5.745 1.253-8.147 1.253-4.701 0-5.223-1.88-5.223-5.64V61.886h13.683l.731-7.311h-14.414V40.788l-8.774 1.253v12.534h-8.982v7.311h8.982v33.006c0 8.461 4.074 11.594 12.639 11.594 3.76 0 7.52-.731 10.653-1.88l-1.148-6.789Z" style="fill:#808184;fill-rule:nonzero" transform="scale(4.16667)"/>
	<path d="M383.225 87.685v-4.282h30.29V72.749c0-10.549-4.073-19.219-19.114-19.219-15.145 0-19.95 8.461-19.95 19.01v15.25c0 11.489 5.118 18.696 20.159 18.696 6.371 0 13.161-1.149 17.965-2.925l-1.149-6.998c-5.536 1.463-11.071 2.403-16.085 2.403-9.923 0-12.116-3.238-12.116-11.281Zm0-15.772c0-7.102 2.925-11.071 11.176-11.071 8.252 0 10.654 3.969 10.654 11.071v4.178h-21.83v-4.178Z" style="fill:#808184;fill-rule:nonzero" transform="scale(4.16667)"/>
	<path d="M428.242 105.441V32.536l-8.774 1.253v71.652h8.774ZM448.4 54.575l-17.965 25.172 18.592 25.694h10.34l-19.009-25.694 18.174-25.172H448.4Z" style="fill:#808184;fill-rule:nonzero" transform="scale(4.16667)"/>
	<path d="M34.441 103.006c-4.801 4.801-8.731 3.174-8.731-3.613V50.724c0-6.79 5.557-12.347 12.347-12.347h48.669c6.792 0 8.414 3.928 3.618 8.732l-55.903 55.897Z" style="fill:#22bdbf;fill-rule:nonzero" transform="scale(4.16667)"/>
	<path d="M71.125 83.781c-4.801-4.796-3.177-8.726 3.613-8.726h48.666c6.795 0 8.42 3.93 3.621 8.726l-19.217 19.225c-4.806 4.801-12.668 4.801-17.464 0L71.125 83.781Z" style="fill:#a6a8ac;fill-rule:nonzero" transform="scale(4.16667)"/>
	<path d="M34.441 47.109c-4.801-4.804-3.174-8.732 3.616-8.732h48.669c6.792 0 12.35 5.557 12.35 12.347v48.669c0 6.787-3.936 8.414-8.732 3.613L34.441 47.109Z" style="fill:#d6df26;fill-rule:nonzero" transform="scale(4.16667)"/>
	<path d="M74.937 8.692c-36.59 0-66.36 29.767-66.36 66.363 0 36.596 29.77 66.365 66.36 66.365 36.604 0 66.375-29.769 66.375-66.365S111.541 8.692 74.937 8.692Zm0 141.308C33.616 150 0 116.381 0 75.055 0 33.731 33.616.114 74.937.114c41.331 0 74.952 33.617 74.952 74.941 0 41.326-33.621 74.945-74.952 74.945Z" style="fill:#929497;fill-rule:nonzero" transform="scale(4.16667)"/>
</svg>
