<svg xmlns="http://www.w3.org/2000/svg" viewBox="-38.26 -38.26 1989.52 700.52" style="fill-rule:evenodd;clip-rule:evenodd;stroke-linejoin:round;stroke-miterlimit:2">
	<g fill-rule="nonzero">
		<path fill="#808184" d="M939.638 439.338v-162.33c0-32.641-12.183-53.966-46.129-53.966-25.242 0-61.8 11.317-85.3 22.633l-3.483-18.279H775.13v211.942h36.558V279.184c22.63-11.75 55.271-21.325 70.938-21.325 13.491 0 20.454 5.658 20.454 19.583v161.896h36.558zm32.634-211.942v162.33c0 32.641 12.187 53.966 46.133 53.966 25.242 0 61.8-11.317 85.3-22.63l3.48 18.276h29.595V227.396h-36.558V387.55c-22.63 11.75-55.271 21.325-70.938 21.325-13.492 0-20.454-5.658-20.454-19.583V227.396h-36.558zm29.595-32.204h33.946v-36.125h-33.946v36.125zm75.288 0h33.946v-36.125h-33.946v36.125zm170.6 214.12-58.32-181.916h-36.122l70.067 211.942h48.746l70.067-211.942h-36.121l-58.317 181.917zm110.971-181.916h36.558v211.942h-36.558zm190.184 180.175c-13.492 3.48-23.938 5.221-33.946 5.221-19.588 0-21.763-7.833-21.763-23.5V257.859h57.013l3.046-30.463H1493.2V169.95l-36.558 5.221v52.225h-37.425v30.463h37.425v137.525c0 35.254 16.975 48.308 52.662 48.308 15.667 0 31.334-3.046 44.388-7.833l-4.783-28.288zm47.862-42.217v-17.841h126.209V303.12c0-43.954-16.971-80.08-79.642-80.08-63.104 0-83.125 35.255-83.125 79.21v63.54c0 47.872 21.325 77.901 83.996 77.901 26.546 0 54.837-4.787 74.854-12.187l-4.788-29.159c-23.066 6.096-46.129 10.013-67.02 10.013-41.346 0-50.484-13.492-50.484-47.005zm0-65.716c0-29.592 12.188-46.13 46.567-46.13 34.383 0 44.392 16.538 44.392 46.13v17.408h-90.959v-17.408zm187.571 139.7V135.567l-36.558 5.22v298.55h36.558zm83.992-211.942-74.854 104.883 77.466 107.059h43.084l-79.205-107.059 75.726-104.883h-42.217z"/>
		<path fill="#22bdbf" d="M143.504 429.192c-20.004 20.004-36.379 13.225-36.379-15.054V211.35c0-28.292 23.154-51.446 51.446-51.446h202.788c28.3 0 35.058 16.367 15.075 36.384l-232.93 232.904z"/>
		<path fill="#a6a8ac" d="M296.354 349.088c-20.004-19.984-13.237-36.359 15.055-36.359h202.775c28.312 0 35.083 16.375 15.087 36.359l-80.07 80.104c-20.026 20.004-52.784 20.004-72.767 0l-80.08-80.104z"/>
		<path fill="#d6df26" d="M143.504 196.288c-20.004-20.017-13.225-36.384 15.067-36.384h202.788c28.3 0 51.458 23.154 51.458 51.446v202.788c0 28.279-16.4 35.058-36.383 15.054l-232.93-232.904z"/>
		<path fill="#929497" d="M312.238 36.217c-152.459 0-276.5 124.029-276.5 276.512 0 152.484 124.041 276.521 276.5 276.521 152.517 0 276.562-124.037 276.562-276.52 0-152.484-124.045-276.513-276.562-276.513zm0 588.784C140.067 625 0 484.92 0 312.729 0 140.546 140.067.475 312.238.475c172.212 0 312.3 140.071 312.3 312.254 0 172.192-140.088 312.272-312.3 312.272z"/>
	</g>
</svg>
