<svg xmlns="http://www.w3.org/2000/svg" height="1889.76" width="1889.76" xml:space="preserve">
	<defs>
		<clipPath id="a" clipPathUnits="userSpaceOnUse">
			<path d="M0 1417.323h1417.323V0H0Z"/>
		</clipPath>
	</defs>
	<path style="fill:#0b51ff;fill-opacity:1;fill-rule:nonzero;stroke:none" d="M0 0v-253.101h-84.489l-63.275 208.436h-3.719v-208.436h-51.364V0h86.719l61.044-208.436h3.72V0z" transform="matrix(1.33333 0 0 -1.33333 391.037 1147.608)"/>
	<g clip-path="url(#a)" transform="matrix(1.33333 0 0 -1.33333 0 1889.76)">
		<path style="fill:#0b51ff;fill-opacity:1;fill-rule:nonzero;stroke:none" d="M0 0c-9.063 6.45-15.452 16.379-19.172 29.777-3.72 13.401-5.585 31.266-5.585 53.598v97.519h49.878V82.632c0-13.401.613-23.392 1.861-29.963 1.24-6.579 3.781-11.167 7.629-13.772 3.846-2.605 9.734-3.908 17.682-3.908 5.703 0 10.852.493 15.444 1.489 4.588.987 10.981 2.728 19.167 5.21v139.206h49.878V-5.21H87.28V5.212C76.856-.498 67.983-4.408 60.669-6.512c-7.326-2.106-15.076-3.165-23.263-3.165C21.518-9.677 9.055-6.447 0 0" transform="translate(357.485 308.723)"/>
		<path style="fill:#0b51ff;fill-opacity:1;fill-rule:nonzero;stroke:none" d="M0 0h49.126l22.706-143.673h8.934L109.053-3.722h51.364l28.287-139.951h8.934L220.343 0h49.131l-35.36-186.104H155.95L134.739-72.208 113.52-186.104H35.354Z" transform="translate(516.973 489.617)"/>
		<path style="fill:#0b51ff;fill-opacity:1;fill-rule:nonzero;stroke:none" d="M0 0c0 14.889-2.299 25.246-6.887 31.08-4.595 5.828-12.717 8.748-24.377 8.748-11.914 0-20.351-3.043-25.314-9.119C-61.542 24.624-64.146 14.391-64.39 0Zm-94.914-92.306c-12.903 14.638-19.353 38.337-19.353 71.091 0 34.244 6.756 59.797 20.283 76.675 13.521 16.871 34.554 25.311 63.091 25.311 26.3 0 46.211-7.014 59.741-21.03C42.369 45.719 49.13 24.689 49.13-3.348l-3.724-34.615H-64.018c.494-8.689 2.044-15.325 4.653-19.913 2.601-4.596 6.817-7.816 12.653-9.679 5.828-1.859 13.958-2.791 24.382-2.791 8.186 0 17.988.245 29.401.745 11.413.494 19.725.988 24.94 1.489l10.424 1.117.743-36.85c-28.045-6.944-53.106-10.422-75.185-10.422-29.034 0-50.007 7.317-62.907 21.961" transform="translate(914.11 413.313)"/>
		<path style="fill:#0b51ff;fill-opacity:1;fill-rule:nonzero;stroke:none" d="M0 0c5.957 7.814 8.934 21.524 8.934 41.128 0 19.105-2.669 32.689-8 40.757-5.34 8.06-13.837 12.095-25.497 12.095-8.191 0-18.61-1.615-31.267-4.838v-99.378c10.173-.995 18.109-1.489 23.819-1.489C-16.623-11.725-5.953-7.816 0 0m-91.561-52.669-14.143 1.49V208.62h49.874v-80.024c9.426 3.721 17.124 6.329 23.076 7.817 5.957 1.488 12.9 2.233 20.844 2.233 24.567 0 42.621-7.573 54.155-22.706 11.542-15.136 17.31-39.952 17.31-74.44 0-24.321-2.92-43.548-8.748-57.691-5.831-14.144-15.202-24.379-28.101-30.708-12.904-6.327-30.149-9.492-51.736-9.492-17.624 0-38.464 1.245-62.531 3.722" transform="translate(1095.37 355.437)"/>
		<path style="fill:#0b51ff;fill-opacity:1;fill-rule:nonzero;stroke:none" d="m0 0 5.586 1.488v39.825l-33.877-2.976c-13.897-1.244-20.84-8.69-20.84-22.332 0-13.651 6.074-20.472 18.239-20.472C-21.466-4.467-11.167-2.979 0 0m-99.38 16.005c0 19.353 5.146 33.311 15.448 41.873 10.294 8.56 26.853 13.584 49.688 15.075l39.83 2.976v11.539c0 7.443-1.681 12.655-5.028 15.634-3.349 2.976-8.995 4.464-16.935 4.464-8.19 0-19.482-.313-33.868-.928-14.394-.624-26.43-1.305-36.107-2.048l-1.49 34.615c26.797 7.193 52.112 10.794 75.932 10.794s41.001-4.968 51.55-14.889c10.541-9.927 15.815-25.809 15.815-47.642V10.05c.497-6.205 1.551-10.422 3.167-12.655 1.611-2.234 4.652-3.851 9.119-4.84l-1.486-37.593c-12.908 0-23.142.873-30.71 2.605-7.568 1.741-15.072 5.212-22.521 10.422-18.113-8.681-36.351-13.027-54.712-13.027-38.463 0-57.692 20.344-57.692 61.043" transform="translate(1269.934 344.085)"/>
		<path style="fill:#0b51ff;fill-opacity:1;fill-rule:nonzero;stroke:none" d="m0 0-24.708 69.612h-.707L-49.773 0h-31.955l43.478 103.586h26.728L32.074 0Zm-80.812-112.468h-106.437v27.203h106.437zm0-51.199h-106.437v27.203h106.437zM-224.315 32.021-244.24-.339l-21.683 15.023 24.322 31.655-35.034 10.326 8.084 25.096 34.344-14.223-2.08 40.145h26.488l-2.2-40.862 33.648 13.877 7.926-25.473-35.511-10.329 23.233-30.783-21.523-15.575zM107.743 2.98v27.881h-30.99v76.547h35.759v47.999l-161.625 31.74-86.412-219.825h-34.727l86.411 219.825-260.529-31.742v-48.001h35.245V30.857h-30.476V2.977l-8.559-39.619h23.845l15.19 30.096v-33.315c0-106.118 86.823-192.939 192.939-192.939 106.118 0 192.939 86.821 192.939 192.939v34.335l15.705-31.112h23.845z" transform="translate(829.981 931.13)"/>
	</g>
</svg>
