<svg xmlns="http://www.w3.org/2000/svg" width="200" height="128">
	<path d="M146.23 91.21 150 101.4h-7.57zm-4-4L133.66 109h6.06l1.36-3.84h10.15l1.29 3.84h6.58l-8.65-21.74zM125 109h6.15V87.24H125zM82.33 87.24l-5.13 17.25-4.91-17.25h-6.64l7 21.76h8.86l7.09-21.76zM107.18 92h2.65c3.83 0 6.31 1.72 6.31 6.19s-2.48 6.18-6.31 6.18h-2.65zm-6.09-4.74V109h10c5.31 0 7-.88 8.92-2.86 1.33-1.39 2.19-4.44 2.19-7.78a13 13 0 0 0-2-7.49c-2.28-3-5.56-3.63-10.46-3.63zm-58.24 0V109h6.2V92.45h4.8a4.5 4.5 0 0 1 3.49 1.21c1 1 1.37 2.71 1.37 5.76V109h6V97c0-8.59-5.48-9.75-10.84-9.75zm48.34 0V109h6.15V87.24z"/>
	<path d="M59.37 43.91A33.07 33.07 0 0 1 83.07 31v-4.19C65.58 28.21 50.43 43 50.43 43S59 67.82 83.07 70.09v-4.5c-17.66-2.22-23.7-21.68-23.7-21.68zm23.7 12.73v4.12C69.73 58.38 66 44.52 66 44.52a28.86 28.86 0 0 1 17-8.25v4.52c-5.59-.67-10 4.54-10 4.54s2.45 8.79 10 11.31M83 19v7.81c.51 0 1-.08 1.54-.09 19.88-.67 32.84 16.3 32.84 16.3S102.5 61.12 87 61.12a23 23 0 0 1-4-.36v4.83a25.51 25.51 0 0 0 3.33.22c14.42 0 24.85-7.37 35-16.09 1.67 1.34 8.53 4.6 9.94 6-9.61 8-32 14.52-44.68 14.52-1.22 0-2.4-.07-3.55-.18v6.78h54.82V19zm0 17.27V31c.51 0 1-.06 1.54-.08 14.3-.45 23.68 12.29 23.68 12.29s-10.13 14.07-21 14.07A13 13 0 0 1 83 56.6V40.79c5.56.67 6.68 3.13 10 8.71l7.44-6.28S95.11 36.1 86 36.1a26.7 26.7 0 0 0-2.88.17" fill="#77b900"/>
</svg>
