<svg xmlns="http://www.w3.org/2000/svg" width="200" height="128">
	<path d="M41.074 87.836a24.085 24.085 0 0 1-21.066-24.4 23.252 23.252 0 0 1 2.45-9.952 23.908 23.908 0 0 1 42.966-.176 24.864 24.864 0 0 1 2.343 7.549 31.787 31.787 0 0 1 0 6.23 23.978 23.978 0 0 1-26.693 20.748zm-6.29-19.455c0-5.515.024-5.775.635-7.078a6.689 6.689 0 0 1 2.6-2.547 3.416 3.416 0 0 1 1.739-.343 3.054 3.054 0 0 1 1.735.353c1.571.772 2.668 2.244 8.338 11.188l2.133 3.365h5.35l-.8-1.29c-.439-.71-1.495-2.423-2.347-3.807s-2.089-3.4-2.75-4.467c-3.779-6.137-5.252-8.04-6.88-8.89a7.9 7.9 0 0 0-5.223-.6 9.067 9.067 0 0 0-4.3 2.509c-.137.173-.3.315-.365.315a4.025 4.025 0 0 1-.117-1.352v-1.355l-2.611.026-2.611.026L29.276 64l-.032 9.569h5.538v-5.19zm11.539 2.883 1.4-2.056-1.517-2.416c-.834-1.328-1.529-2.4-1.544-2.379s-1.233 1.763-2.706 3.874-2.874 4.107-3.113 4.436l-.434.6h6.513zm8.993-12.541c1.689-2.249 3.114-4.16 3.167-4.247.077-.124-.565-.157-3.054-.157h-3.152L50.884 56.4a15.5 15.5 0 0 0-1.355 2.244c.037.151 2.662 4.218 2.7 4.182.009-.009 1.4-1.857 3.087-4.107z" fill="#0786c7"/>
	<path d="M164.52 79.607v-1.683h4.659c5.2 0 5.281-.013 5.949-1a2.158 2.158 0 0 0 .363-1.011v-.478h-3.238c-3.94 0-4.634-.149-6.225-1.333a9.171 9.171 0 0 1-2.837-4.3 14.183 14.183 0 0 1 .074-5.265 8.191 8.191 0 0 1 3.722-4.642c1.223-.634 2.124-.712 7.772-.666l5.193.042.038 7.505c.044 8.675-.037 10.277-.578 11.441a6.206 6.206 0 0 1-2.436 2.521c-1.3.526-1.572.547-7.018.547h-5.438zm10.936-12.251-.038-4.571-1.756-.045c-2.443-.063-3.151.044-3.969.6a5.167 5.167 0 0 0-1.808 4.2c0 .915.385 2.477.611 2.477.066 0 .12.086.12.191 0 .229.809 1.018 1.308 1.275.691.356 1.126.411 3.338.423l2.233.013-.039-4.571zM149.1 75.563a7.613 7.613 0 0 1-5.948-3.764 10.4 10.4 0 0 1-.366-7.809 8.513 8.513 0 0 1 6.738-4.636 12.794 12.794 0 0 1 6.605.669 3.065 3.065 0 0 0 .551.2 8.6 8.6 0 0 1 2.073 1.5 7.56 7.56 0 0 1 1.686 2.669 11 11 0 0 1 .421 2.915c0 1.63-.669 4.118-1.274 4.738a.643.643 0 0 0-.188.305 7.312 7.312 0 0 1-1.612 1.63 11.659 11.659 0 0 1-2.644 1.29 17.1 17.1 0 0 1-6.042.291zm4.423-3.3a4.582 4.582 0 0 0 1.918-1.8 7.364 7.364 0 0 0 .512-4.48 4.564 4.564 0 0 0-7.932-1.957 5.4 5.4 0 0 0-1.04 4.643 4.764 4.764 0 0 0 3.559 3.861 7.2 7.2 0 0 0 2.984-.264zM72.55 75.341c-.144-.059-.182-2.388-.182-10.959V53.5h3.478c3.3 0 3.49.014 3.73.294a1.278 1.278 0 0 1 .251.375 2.662 2.662 0 0 0 .33.547c.181.256.409.6.506.758.633 1.046 6.549 10.4 6.616 10.459a4.28 4.28 0 0 1 .547.878 1.09 1.09 0 0 0 .182.292 2.243 2.243 0 0 1 .261.366 13.521 13.521 0 0 0 1.539 2.267c.062 0 .112-3.653.112-8.118V53.5h5.268l-.037 10.934-.038 10.933-3.395.04-3.4.039-1.37-2.087c-.753-1.148-1.724-2.647-2.157-3.33s-.824-1.277-.867-1.317a1.988 1.988 0 0 1-.225-.316c-.486-.808-1.9-2.987-1.983-3.048a.611.611 0 0 1-.153-.219c-.032-.081-.755-1.2-1.607-2.487s-1.672-2.554-1.823-2.816-.327-.475-.39-.475-.114 3.58-.114 7.956c0 7.12-.024 7.966-.232 8.045a36.863 36.863 0 0 1-4.851-.008zm24.684-.016a3.777 3.777 0 0 1 .549-.778c.3-.366.713-.88.914-1.144.319-.418.944-1.21 1.511-1.915.1-.121.372-.483.611-.8s.471-.618.514-.658.306-.369.586-.731.588-.756.686-.877.806-1.02 1.573-2c1.3-1.653 1.573-2.146 1.276-2.269a10.419 10.419 0 0 1-.975-1.219c-.471-.644-.9-1.2-.944-1.243-.095-.081-2.714-3.533-3.925-5.175-.422-.573-.852-1.141-.953-1.261s-.436-.549-.743-.951l-.558-.732 3.194-.04c3.48-.045 3.228-.1 3.813.79.1.151.672.981 1.273 1.845s1.532 2.23 2.07 3.036a9.751 9.751 0 0 0 1.088 1.464c.06 0 .265-.2.455-.453s.481-.628.647-.841.921-1.244 1.679-2.29 1.414-1.934 1.459-1.975.331-.418.637-.841l.556-.768h3.15c2.979 0 3.14.014 2.95.256a3.8 3.8 0 0 1-.284.33c-.045.04-.473.594-.95 1.231s-1.132 1.5-1.454 1.92-.876 1.148-1.233 1.621-.685.892-.731.932-.38.468-.742.951-.691.911-.732.951-.367.468-.724.95-.737.966-.841 1.072a2.534 2.534 0 0 0-.343.478c-.155.29.042.639 1.027 1.82.2.244.546.672.762.951s1.091 1.395 1.946 2.481l1.948 2.478c.217.277.592.748.834 1.046a23.338 23.338 0 0 1 1.828 2.383 26.817 26.817 0 0 1-3.108.089h-3.108l-.554-.766c-.3-.416-.865-1.162-1.243-1.651s-1.079-1.411-1.555-2.047-.906-1.191-.956-1.231-.338-.415-.641-.833-.63-.727-.727-.685-1.312 1.684-2.7 3.649l-2.526 3.574h-3.142a22.373 22.373 0 0 1-3.142-.112zm33.642-.1a10.411 10.411 0 0 1-4.241-1.047 6.826 6.826 0 0 1-3.043-3.23l-.541-1.138-.043-8.155-.042-8.154h5.4l.048 7.5c.046 7.3.055 7.515.359 8.173A4.825 4.825 0 0 0 131 71.44l.828.4 4.575.061 4.576.06-.041 1.7-.041 1.7-4.169.017c-2.387.01-4.887-.059-5.851-.161z" fill="#092f57"/>
</svg>
