<svg width="185" height="96" xmlns="http://www.w3.org/2000/svg">
	<path d="M12.109.22c2.153 0 4.029.465 5.627 1.394 1.598.93 2.828 2.267 3.689 4.012.861 1.745 1.292 3.797 1.292 6.154 0 2.357-.43 4.409-1.292 6.154-.861 1.745-2.091 3.083-3.69 4.012-1.597.93-3.473 1.394-5.626 1.394-2.153 0-4.023-.465-5.61-1.394-1.587-.93-2.81-2.267-3.672-4.012-.861-1.745-1.292-3.797-1.292-6.154 0-2.357.43-4.409 1.292-6.154.861-1.745 2.085-3.083 3.672-4.012C8.086.684 9.956.22 12.109.22Zm0 3.162c-2.108 0-3.763.737-4.964 2.21-1.201 1.473-1.802 3.536-1.802 6.188 0 2.652.6 4.715 1.802 6.188 1.201 1.473 2.856 2.21 4.964 2.21 2.13 0 3.797-.737 4.998-2.21 1.201-1.473 1.802-3.536 1.802-6.188 0-2.652-.6-4.715-1.802-6.188-1.201-1.473-2.867-2.21-4.998-2.21ZM36.566 5.66c2.335 0 4.17.776 5.508 2.329 1.338 1.553 2.006 3.712 2.006 6.477s-.668 4.936-2.006 6.511c-1.337 1.575-3.173 2.363-5.508 2.363-1.224 0-2.317-.272-3.28-.816a5.655 5.655 0 0 1-2.228-2.244v9.86H27.42V6h3.196l.17 3.162a5.927 5.927 0 0 1 2.261-2.55c1.009-.635 2.182-.952 3.52-.952Zm-.816 14.722c1.474 0 2.624-.516 3.451-1.547.828-1.031 1.241-2.476 1.241-4.335s-.413-3.31-1.24-4.352c-.828-1.043-1.978-1.564-3.452-1.564-1.382 0-2.487.465-3.315 1.394-.827.93-1.286 2.221-1.377 3.876v1.292c.09 1.632.55 2.913 1.377 3.842.828.93 1.933 1.394 3.315 1.394Zm28.198-6.392c0 .657-.046 1.28-.136 1.87H51.368c.204 1.496.736 2.635 1.598 3.417.86.782 1.972 1.173 3.332 1.173 1.11 0 2.034-.198 2.77-.595.737-.397 1.242-.969 1.514-1.717l3.026 1.258c-1.27 2.63-3.706 3.944-7.31 3.944-2.675 0-4.766-.782-6.273-2.346-1.508-1.564-2.261-3.729-2.261-6.494 0-2.788.725-4.958 2.176-6.511 1.45-1.553 3.49-2.329 6.12-2.329 2.493 0 4.43.76 5.814 2.278 1.382 1.519 2.074 3.536 2.074 6.052ZM56.06 8.55c-1.315 0-2.375.385-3.18 1.156-.804.77-1.308 1.893-1.512 3.366h9.18c-.182-1.428-.663-2.539-1.445-3.332-.782-.793-1.797-1.19-3.043-1.19Zm21.533-2.89c1.881 0 3.417.544 4.607 1.632 1.19 1.088 1.785 2.652 1.785 4.692V23h-3.638v-9.86c0-2.992-1.213-4.488-3.638-4.488-1.27 0-2.357.436-3.264 1.309-.907.873-1.36 2.216-1.36 4.029V23h-3.638V6h3.23l.17 2.822c.567-1.065 1.349-1.859 2.346-2.38.997-.521 2.13-.782 3.4-.782ZM15.475 53.118H6.023L3.88 59H.14l8.466-22.44h4.352L21.425 59h-3.842l-2.108-5.882Zm-1.088-2.958-2.584-7.208-1.02-3.23h-.102l-.952 3.162-2.652 7.276h7.31Zm19.595-8.5c2.335 0 4.17.776 5.508 2.329 1.338 1.553 2.006 3.712 2.006 6.477s-.668 4.936-2.006 6.511c-1.337 1.575-3.173 2.363-5.508 2.363-1.224 0-2.317-.272-3.28-.816a5.655 5.655 0 0 1-2.228-2.244v9.86h-3.638V42h3.196l.17 3.162a5.927 5.927 0 0 1 2.261-2.55c1.009-.635 2.182-.952 3.52-.952Zm-.816 14.722c1.474 0 2.624-.516 3.451-1.547.828-1.031 1.241-2.476 1.241-4.335s-.413-3.31-1.24-4.352c-.828-1.043-1.978-1.564-3.452-1.564-1.382 0-2.487.465-3.315 1.394-.827.93-1.286 2.221-1.377 3.876v1.292c.09 1.632.55 2.913 1.377 3.842.828.93 1.933 1.394 3.315 1.394ZM55.312 41.66c2.334 0 4.17.776 5.508 2.329 1.337 1.553 2.006 3.712 2.006 6.477s-.67 4.936-2.006 6.511c-1.338 1.575-3.174 2.363-5.508 2.363-1.224 0-2.318-.272-3.281-.816a5.655 5.655 0 0 1-2.227-2.244v9.86h-3.638V42h3.196l.17 3.162a5.927 5.927 0 0 1 2.26-2.55c1.01-.635 2.182-.952 3.52-.952Zm-.816 14.722c1.473 0 2.623-.516 3.45-1.547.828-1.031 1.242-2.476 1.242-4.335s-.414-3.31-1.241-4.352c-.828-1.043-1.978-1.564-3.451-1.564-1.383 0-2.488.465-3.315 1.394-.828.93-1.287 2.221-1.377 3.876v1.292c.09 1.632.55 2.913 1.377 3.842.827.93 1.932 1.394 3.315 1.394Zm16.535-2.346c0 .839.125 1.422.374 1.751.25.329.714.493 1.394.493.43 0 .799-.028 1.105-.085a6.276 6.276 0 0 0 1.139-.357l-.408 2.924c-.77.385-1.711.578-2.822.578-1.519 0-2.635-.385-3.35-1.156-.713-.77-1.07-1.983-1.07-3.638V34.35h3.638v19.686Zm8.851-14.892c-.77 0-1.371-.198-1.802-.595-.43-.397-.646-.958-.646-1.683 0-.725.216-1.28.646-1.666.43-.385 1.032-.578 1.802-.578s1.366.193 1.785.578c.42.385.63.94.63 1.666 0 .725-.21 1.286-.63 1.683-.42.397-1.014.595-1.785.595ZM81.684 59h-3.638V42h3.638v17Zm13.102-17.34c3.717 0 6.176 1.587 7.378 4.76l-3.4 1.36c-.59-2.153-1.916-3.23-3.978-3.23-1.52 0-2.698.521-3.536 1.564-.84 1.043-1.258 2.516-1.258 4.42s.419 3.366 1.258 4.386c.838 1.02 2.017 1.53 3.536 1.53 1.156 0 2.085-.283 2.788-.85.702-.567 1.167-1.383 1.394-2.448l3.332 1.122c-.5 1.587-1.383 2.828-2.652 3.723-1.27.895-2.868 1.343-4.794 1.343-2.675 0-4.766-.782-6.273-2.346-1.508-1.564-2.261-3.729-2.261-6.494 0-2.765.748-4.93 2.244-6.494 1.496-1.564 3.57-2.346 6.222-2.346Zm26.395 14.96c.499 0 .918-.045 1.258-.136l-.238 2.448c-.612.272-1.315.408-2.108.408-.975 0-1.751-.193-2.33-.578-.577-.385-.957-1.031-1.138-1.938-.521.793-1.292 1.411-2.312 1.853-1.02.442-2.165.663-3.434.663-1.655 0-2.992-.385-4.012-1.156-1.02-.77-1.53-1.87-1.53-3.298 0-1.337.555-2.465 1.666-3.383 1.11-.918 2.765-1.57 4.964-1.955l4.318-.748v-.918c0-1.043-.306-1.864-.918-2.465-.612-.6-1.462-.901-2.55-.901-2.244 0-3.706 1.02-4.386 3.06l-2.822-1.496c.408-1.36 1.24-2.437 2.499-3.23 1.258-.793 2.805-1.19 4.64-1.19 2.2 0 3.945.51 5.237 1.53 1.292 1.02 1.938 2.516 1.938 4.488v7.684c0 .43.096.748.289.952.193.204.516.306.969.306Zm-9.52-.034c1.224 0 2.3-.295 3.23-.884.93-.59 1.394-1.371 1.394-2.346v-2.04l-3.706.748c-1.179.227-2.051.544-2.618.952-.567.408-.85.952-.85 1.632 0 .635.22 1.116.663 1.445.442.329 1.07.493 1.887.493Zm24.491 1.292c-.544.453-1.207.81-1.989 1.071a7.963 7.963 0 0 1-2.533.391c-1.564 0-2.816-.391-3.757-1.173-.94-.782-1.422-2-1.445-3.655v-9.656h-3.23V42h3.23v-3.978l3.638-1.02V42h5.95v2.856h-5.95V53.9c0 .816.221 1.422.663 1.819.442.397 1.049.595 1.82.595 1.042 0 1.96-.363 2.753-1.088l.85 2.652Zm5.18-18.734c-.771 0-1.372-.198-1.802-.595-.431-.397-.646-.958-.646-1.683 0-.725.215-1.28.646-1.666.43-.385 1.03-.578 1.802-.578.77 0 1.365.193 1.785.578.419.385.629.94.629 1.666 0 .725-.21 1.286-.63 1.683-.419.397-1.014.595-1.784.595ZM143.134 59h-3.638V42h3.638v17Zm13.1-17.34c2.653 0 4.727.782 6.223 2.346 1.496 1.564 2.244 3.729 2.244 6.494 0 2.765-.748 4.93-2.244 6.494-1.496 1.564-3.57 2.346-6.222 2.346-2.652 0-4.726-.782-6.222-2.346-1.496-1.564-2.244-3.729-2.244-6.494 0-2.765.748-4.93 2.244-6.494 1.496-1.564 3.57-2.346 6.222-2.346Zm0 2.856c-1.54 0-2.725.516-3.552 1.547s-1.241 2.51-1.241 4.437c0 1.927.414 3.406 1.24 4.437.828 1.031 2.013 1.547 3.554 1.547s2.731-.521 3.57-1.564c.839-1.043 1.258-2.516 1.258-4.42s-.42-3.377-1.258-4.42c-.839-1.043-2.029-1.564-3.57-1.564Zm22.214-2.856c1.882 0 3.417.544 4.607 1.632 1.19 1.088 1.785 2.652 1.785 4.692V59h-3.638v-9.86c0-2.992-1.212-4.488-3.638-4.488-1.27 0-2.357.436-3.264 1.309-.906.873-1.36 2.216-1.36 4.029V59h-3.638V42h3.23l.17 2.822c.567-1.065 1.349-1.859 2.346-2.38.998-.521 2.13-.782 3.4-.782ZM25.743 95H22.41V82.012l.238-6.188h-.034L15.78 95h-3.026L5.92 75.824h-.034l.272 6.188V95H2.793V72.56h5.406l4.522 12.988 1.564 5.338h.068l1.598-5.338 4.488-12.988h5.304V95Zm13.34-17.34c2.651 0 4.725.782 6.221 2.346 1.496 1.564 2.244 3.729 2.244 6.494 0 2.765-.748 4.93-2.244 6.494-1.496 1.564-3.57 2.346-6.222 2.346-2.652 0-4.726-.782-6.222-2.346-1.496-1.564-2.244-3.729-2.244-6.494 0-2.765.748-4.93 2.244-6.494 1.496-1.564 3.57-2.346 6.222-2.346Zm0 2.856c-1.542 0-2.726.516-3.554 1.547-.827 1.031-1.24 2.51-1.24 4.437 0 1.927.413 3.406 1.24 4.437.828 1.031 2.012 1.547 3.553 1.547 1.542 0 2.732-.521 3.57-1.564.839-1.043 1.258-2.516 1.258-4.42s-.42-3.377-1.258-4.42c-.838-1.043-2.028-1.564-3.57-1.564ZM67.891 70.35V95h-3.196l-.204-3.026c-.5 1.02-1.253 1.836-2.261 2.448-1.01.612-2.16.918-3.451.918-2.335 0-4.177-.776-5.525-2.329-1.35-1.553-2.023-3.712-2.023-6.477s.674-4.936 2.023-6.511c1.348-1.575 3.19-2.363 5.525-2.363 1.246 0 2.346.278 3.298.833a5.568 5.568 0 0 1 2.176 2.261V70.35h3.638Zm-8.296 22.066c1.428 0 2.56-.51 3.4-1.53.838-1.02 1.258-2.414 1.258-4.182v-.408c0-1.768-.42-3.156-1.258-4.165-.84-1.009-1.972-1.513-3.4-1.513-1.474 0-2.624.516-3.451 1.547-.828 1.031-1.241 2.476-1.241 4.335s.413 3.31 1.24 4.352c.828 1.043 1.978 1.564 3.452 1.564Zm29.08-6.426c0 .657-.044 1.28-.135 1.87H76.097c.204 1.496.737 2.635 1.598 3.417.861.782 1.972 1.173 3.332 1.173 1.11 0 2.034-.198 2.77-.595.738-.397 1.242-.969 1.514-1.717l3.026 1.258c-1.27 2.63-3.706 3.944-7.31 3.944-2.675 0-4.766-.782-6.273-2.346-1.507-1.564-2.261-3.729-2.261-6.494 0-2.788.725-4.958 2.176-6.511 1.45-1.553 3.49-2.329 6.12-2.329 2.493 0 4.431.76 5.814 2.278 1.383 1.519 2.074 3.536 2.074 6.052Zm-7.887-5.44c-1.315 0-2.374.385-3.18 1.156-.804.77-1.308 1.893-1.512 3.366h9.18c-.181-1.428-.663-2.539-1.445-3.332-.782-.793-1.796-1.19-3.043-1.19Zm15.923 9.486c0 .839.125 1.422.374 1.751.25.329.714.493 1.394.493.43 0 .8-.028 1.105-.085a6.276 6.276 0 0 0 1.14-.357l-.409 2.924c-.77.385-1.711.578-2.822.578-1.518 0-2.635-.385-3.349-1.156-.714-.77-1.07-1.983-1.07-3.638V70.35h3.637v19.686Z" fill="#2681D6" fill-rule="evenodd"/>
</svg>
