<svg xmlns="http://www.w3.org/2000/svg" xmlns:xlink="http://www.w3.org/1999/xlink" viewBox="-1.81 -1.56 94.38 32.63">
	<defs>
		<path id="a" d="M0 .014h43.725v21.637H0z"/>
		<path id="c" d="M.136.014H42.81v21.637H.136z"/>
		<path id="e" d="M.313.014h41.921v21.637H.313z"/>
		<path id="g" d="M.287.219h5.409v11.118H.287z"/>
	</defs>
	<g fill="none" fill-rule="evenodd">
		<g transform="translate(0 7.673)">
			<mask id="b" fill="#fff">
				<use xlink:href="#a"/>
			</mask>
			<path fill="#002337" d="M33.859.014c-5.861 0-9.53 3.752-12.664 7.647-3.228 4.014-5.888 8.177-9.791 8.55l-.043.004a4.949 4.949 0 0 1-.526.027 5.414 5.414 0 0 1-5.418-5.41 5.415 5.415 0 0 1 5.418-5.41 5.414 5.414 0 0 1 5.287 6.59c.917-.998 1.83-2.167 2.79-3.398.58-.743 1.172-1.502 1.789-2.252A10.836 10.836 0 0 0 10.835.014C4.85.014 0 4.857 0 10.832c0 5.976 4.85 10.819 10.835 10.819 7.02 0 10.895-5.383 14.472-9.948l.146-.185c.042-.054.084-.109.127-.162l.201-.255.078-.097.234-.293.046-.057.253-.312.03-.035c.088-.109.177-.217.266-.323l.016-.019c.092-.11.185-.22.277-.327l.006-.008c1.91-2.232 3.863-3.943 6.3-4.177l.017-.002.028-.002c.07-.006.14-.013.21-.017.105-.005.21-.01.317-.01a5.414 5.414 0 0 1 5.287 6.59c.917-.998 1.83-2.167 2.79-3.398.58-.743 1.172-1.502 1.789-2.252A10.836 10.836 0 0 0 33.859.014" mask="url(#b)"/>
		</g>
		<g transform="translate(23.755 7.673)">
			<mask id="d" fill="#fff">
				<use xlink:href="#c"/>
			</mask>
			<path fill="#002337" d="M32.922.014c-12.15 0-14.85 16.227-22.95 16.227a5.404 5.404 0 0 1-5.271-6.589c-.914.998-1.825 2.167-2.781 3.399-.578.742-1.17 1.5-1.784 2.251 1.699 3.744 5.462 6.349 9.835 6.349.133 0 .265-.004.397-.008 5.612-.167 9.175-3.835 12.227-7.642 3.218-4.013 5.87-8.175 9.76-8.548l.041-.004c.07-.006.14-.013.21-.017.105-.005.21-.01.316-.01a5.406 5.406 0 0 1 5.217 6.802c.994-1.053 1.973-2.312 2.984-3.611a122.46 122.46 0 0 1 1.687-2.134C41.137 2.673 37.34.014 32.922.014" mask="url(#d)"/>
		</g>
		<g transform="translate(48.521 7.673)">
			<mask id="f" fill="#fff">
				<use xlink:href="#e"/>
			</mask>
			<path fill="#00A2E1" d="M31.41.014c-10.365 0-13.869 11.755-19.688 15.254-1.018.612-2.105.973-3.313.973v-.003c-.05.001-.1.003-.151.003a5.391 5.391 0 0 1-3.212-1.055 10.818 10.818 0 0 0-4.733 2.99 10.793 10.793 0 0 0 7.945 3.475c.05 0 .1-.004.15-.004v.004c5.856 0 9.522-3.753 12.653-7.65 3.224-4.013 5.883-8.175 9.78-8.548l.042-.004c.07-.006.14-.013.212-.017a5.412 5.412 0 0 1 5.727 5.4 5.4 5.4 0 0 1-2.197 4.351l-.004.003a5.386 5.386 0 0 1-3.211 1.055 5.391 5.391 0 0 1-3.212-1.055 10.818 10.818 0 0 0-4.733 2.99c1.976 2.136 4.804 3.475 7.945 3.475s5.969-1.339 7.946-3.475a10.779 10.779 0 0 0 2.878-7.344C42.234 4.857 37.388.014 31.41.014" mask="url(#f)"/>
		</g>
		<g transform="translate(22.703 .105)">
			<mask id="h" fill="#fff">
				<use xlink:href="#g"/>
			</mask>
			<path fill="#002337" d="M.287 2.803v8.534c1.562-1.569 3.32-2.943 5.41-3.84V.22A18.804 18.804 0 0 0 .286 2.803" mask="url(#h)"/>
		</g>
	</g>
</svg>
