<svg xmlns="http://www.w3.org/2000/svg" xml:space="preserve" height="400" width="780">
	<path stroke-miterlimit="3.864" style="clip-rule:evenodd;fill:#7dba00;fill-rule:evenodd;stroke:#7dba00;stroke-width:.43763751;stroke-miterlimit:3.86369991" d="M.219.219h779.562v399.562H.219z"/>
	<path style="clip-rule:evenodd;fill:#fff;fill-rule:evenodd;stroke-width:5.56190825" d="M136.622 211.041c0 5.106-1.569 9.26-4.7 12.459-3.132 3.131-7.292 4.7-12.459 4.7H81.87c-4.972 0-9.055-1.602-12.253-4.8-3.198-3.199-4.8-7.32-4.8-12.359V188.16c0-4.833 1.635-8.887 4.906-12.152C73.06 172.669 77.109 171 81.876 171h37.593c4.9 0 8.982 1.635 12.253 4.905 3.27 3.266 4.905 7.353 4.905 12.259v22.876z"/>
	<path style="clip-rule:evenodd;fill:#7dba00;fill-opacity:1;fill-rule:evenodd;stroke-width:5.56190825" d="M125.18 211.041V188.16c0-3.882-1.907-5.823-5.717-5.823H81.87c-1.63 0-2.992.578-4.082 1.735-1.085 1.09-1.635 2.448-1.635 4.083v22.882c0 3.815 1.907 5.717 5.717 5.717h37.593c3.81 0 5.718-1.897 5.718-5.712z"/>
	<path style="clip-rule:evenodd;fill:#fff;fill-rule:evenodd;stroke-width:5.56190825" d="M216.88 228.2h-54.746c-4.906 0-8.988-1.602-12.258-4.8-3.199-3.27-4.795-7.386-4.795-12.359V188.16c0-5.039 1.596-9.16 4.795-12.358 3.203-3.198 7.291-4.8 12.258-4.8h54.746l-9.789 11.34h-44.957c-3.815 0-5.718 1.942-5.718 5.824v22.882c0 3.815 1.908 5.717 5.718 5.717h44.957z"/>
	<path style="clip-rule:evenodd;fill:#fff;fill-rule:evenodd;stroke-width:5.56190825" d="M298.434 228.2h-54.746c-4.905 0-8.988-1.602-12.258-4.8-3.198-3.27-4.8-7.386-4.8-12.359V188.16c0-5.039 1.602-9.16 4.8-12.358 3.204-3.198 7.291-4.8 12.258-4.8h54.746l-9.789 11.34h-44.957c-3.815 0-5.717 1.942-5.717 5.824v22.882c0 3.815 1.907 5.717 5.717 5.717h44.957z"/>
	<path transform="translate(-1722.135 -549.377) scale(5.5619)" style="clip-rule:evenodd;fill:#fff;fill-rule:evenodd" d="M378.273 139.804h-12.909V129.52h12.909v2.039h-10.871v2.075h10.871v2.057h-10.871v2.057h10.871z"/>
	<path transform="translate(-1722.135 -549.377) scale(5.5619)" style="clip-rule:evenodd;fill:#fff;fill-rule:evenodd" d="M405.91 131.559h-5.436v8.245h-2.057v-8.245H393v-2.039h12.91z"/>
	<path style="clip-rule:evenodd;fill:#fff;fill-rule:evenodd;stroke-width:5.56190825" d="M617.054 211.041c0 4.973-1.636 9.088-4.906 12.359-3.198 3.203-7.286 4.8-12.253 4.8h-37.587c-4.767 0-8.821-1.636-12.159-4.906-3.27-3.337-4.9-7.42-4.9-12.253v-40.04h11.33v40.04c0 1.63.55 2.992 1.64 4.083 1.085 1.09 2.448 1.635 4.083 1.635h37.588c3.815 0 5.717-1.908 5.717-5.718v-40.04h11.441v40.04z"/>
	<path style="clip-rule:evenodd;fill:#fff;fill-rule:evenodd;stroke-width:5.56190825" d="M698.152 211.041c0 4.7-1.669 8.749-5 12.153-3.337 3.337-7.387 5.006-12.159 5.006h-54.64v-11.441l54.64-.106c1.569 0 2.898-.545 3.988-1.635 1.157-1.09 1.736-2.42 1.736-3.982 0-1.57-.579-2.898-1.736-3.983-1.09-1.157-2.42-1.735-3.988-1.735h-37.587c-4.7 0-8.716-1.669-12.053-5.006-3.337-3.404-5-7.453-5-12.153 0-4.766 1.669-8.815 5-12.152 3.337-3.338 7.353-5.006 12.053-5.006h49.857v11.34h-49.857c-1.563 0-2.926.58-4.083 1.736-1.09 1.157-1.635 2.52-1.635 4.082 0 1.563.545 2.926 1.635 4.089 1.157 1.084 2.52 1.634 4.083 1.634h37.587c4.767 0 8.822 1.663 12.159 5 3.337 3.338 5 7.392 5 12.159z"/>
	<path transform="translate(-1722.135 -549.377) scale(5.5619)" style="clip-rule:evenodd;fill:#fff;fill-rule:evenodd" d="M386.946 131.58h-4.113v8.157h-2.057v-10.195h10.284v10.195h-2.039v-8.157z"/>
	<path style="clip-rule:evenodd;fill:#fff;fill-rule:evenodd;stroke-width:5.56190825" d="M709.154 217.221H745v10.429h-35.846z"/>
	<path style="clip-rule:evenodd;fill:#fff;fill-rule:evenodd;stroke-width:5.56190825" d="M35 210.446h15.89v15.89H35z"/>
	<path style="clip-rule:evenodd;fill:#fff;fill-rule:evenodd;stroke-width:5.56190825" d="M35 179.589h15.89v15.89H35z"/>
	<path style="clip-rule:evenodd;fill:#fff;fill-rule:evenodd;stroke-width:5.56190825" d="M704.793 168.515c1.162 0 2.297.3 3.398.9a6.313 6.313 0 0 1 2.586 2.554c.612 1.106.93 2.263.93 3.465 0 1.19-.312 2.336-.918 3.437a6.45 6.45 0 0 1-2.559 2.564c-1.096.606-2.236.907-3.437.907-1.202 0-2.347-.301-3.443-.907a6.449 6.449 0 0 1-2.558-2.564c-.612-1.101-.918-2.247-.918-3.437 0-1.202.311-2.359.929-3.465a6.33 6.33 0 0 1 2.591-2.553c1.107-.606 2.242-.901 3.399-.901zm0 1.145c-.974 0-1.92.252-2.842.751a5.301 5.301 0 0 0-2.153 2.136c-.523.923-.784 1.886-.784 2.887 0 .996.256 1.952.762 2.87a5.469 5.469 0 0 0 2.147 2.136 5.808 5.808 0 0 0 2.87.761 5.83 5.83 0 0 0 2.87-.761 5.407 5.407 0 0 0 2.135-2.136 5.79 5.79 0 0 0 .762-2.87 5.772 5.772 0 0 0-.778-2.887 5.283 5.283 0 0 0-2.158-2.136c-.918-.5-1.863-.75-2.831-.75zm-3.037 9.595v-7.442h2.558c.874 0 1.508.074 1.903.212.389.134.7.374.934.717a1.966 1.966 0 0 1-.24 2.509c-.383.406-.895.628-1.534.678.26.11.467.24.628.394.3.297.662.785 1.096 1.474l.912 1.458h-1.468l-.662-1.174c-.523-.923-.94-1.502-1.257-1.735-.223-.171-.545-.257-.962-.257h-.707v3.165zm1.207-4.188h1.457c.695 0 1.168-.106 1.424-.313.256-.204.378-.484.378-.824 0-.215-.062-.41-.178-.584a1.11 1.11 0 0 0-.517-.39c-.212-.09-.612-.13-1.201-.13h-1.363z"/>
</svg>
