<svg xmlns="http://www.w3.org/2000/svg" width="200" height="128">
    <path fill="#f1df2b" d="M106 85.77l.39.35.33.39.41 1a22 22 0 01-11.13.8c-1.43-.26-2.85-.58-4.27-.88l.4-.9.35-.39.38-.37a4.66 4.66 0 011.06 0 21.48 21.48 0 004.79.7 27.76 27.76 0 007.29-.7z"/>
    <path fill="#87c79f" d="M88.51 58.69c.43-.59.82-1.22 1.29-1.77a5.33 5.33 0 012.27-1.77c.16 1.16-.81 1.91-1.06 2.92z"/>
    <path fill="#15c003" d="M113.13 58.72l1 .07-.09.31-.87-.36z"/>
    <path fill="#a2dfab" d="M93.16 58.74l-.39.67z"/>
    <path fill="#a2dfab" d="M109.6 69.07c-1.66-.27-3.37-.26-5.06-.37l-1.31-.07a13.89 13.89 0 011.56-1c2-.87 4-1.73 6.1-2.51a26.12 26.12 0 012.83-.75c-1.36-.58-2.72-1.15-4.07-1.76a5.33 5.33 0 01-2.72-2.09l-.62-.66c0-.31.16-.71-.38-.76l-.41-.36a3 3 0 01-1-1.74 3.16 3.16 0 01.49.11 21.47 21.47 0 006.12 1.81 8.33 8.33 0 002-.18 12.91 12.91 0 00-3.92-4.23 9.85 9.85 0 00-4.32-2.18c-.59.89-1.15 1.8-1.79 2.67a3.21 3.21 0 01-2.77 1.23 12 12 0 01-3-.24 4.45 4.45 0 01-3.16-3.63c-3.35 1-7 4-7.85 6.43.74.63 1.43 0 2.14-.08.43-.59.82-1.22 1.29-1.77a5.33 5.33 0 012.27-1.77c.16 1.16-.81 1.91-1.06 2.92l3.36-1-.86 1.3-.34.38-.39.67c0 1-.92 1.41-1.51 2a10.63 10.63 0 01-1.75 1.14v3c.46.22.91.45 1.37.65a16.19 16.19 0 014.6 2.5h-1.22l-4.28.38c.34 1.34.4 2.78 1.42 3.87A12.15 12.15 0 0096 69.46a19.88 19.88 0 003-5.69c.89-.31 1 .41 1.18.82.46.93.74 2 1.24 2.86a11.83 11.83 0 004.35 4.69c.64.38 1.41.51 2.08.84 1.89.92 3.75 1.88 5.61 2.83a1.8 1.8 0 00.32-.06c.59-1.52 1.19-3 1.78-4.58-1.73-1.39-3.86-1.76-5.96-2.1zM99.27 62.8l.12-.11.1.12zM86.37 69.78a4.77 4.77 0 00-2.53 1 9.79 9.79 0 001.78 4.65A1.62 1.62 0 0087 75c.16-.18.51-.19.77-.27a25.84 25.84 0 00-1-2.58 4.68 4.68 0 01-.4-2.37zM86.36 63.79l-.68.24-.69.31 1.37.16z"/>
    <path fill="#a2dfab" d="M93.51 58.35l-.34.38z"/>
    <path fill="#87c79f" d="M89.51 65.55v-3a10.63 10.63 0 001.75-1.14c.59-.59 1.51-1 1.51-2a6.35 6.35 0 00-1 .55 15.62 15.62 0 01-9.28 3.39l-.35.69 2.88.3.69-.31.68-.24v.71zM91.36 73c-1-1.09-1.08-2.53-1.42-3.87a8.59 8.59 0 00-3.57.7 4.68 4.68 0 00.45 2.37 25.84 25.84 0 011 2.58l1.78 2.15h.71l2.49-1.43z"/>
    <path fill="#a5d3ad" d="M97.38 56a12 12 0 003 .24A3.21 3.21 0 00103.1 55c.64-.87 1.2-1.78 1.79-2.67v-.27l-1.08-.32-2.46-.27-3.86.06-2.53.43-.74.28v.12A4.45 4.45 0 0097.38 56zM87 75a1.62 1.62 0 01-1.41.46 1 1 0 010 .35L87.16 78a1.49 1.49 0 00.32.42c.6-.36 1.51-1.16 2.1-1.51l-1.78-2.18c-.26.08-.61.09-.8.27zM107.86 73c-.67-.33-1.44-.46-2.08-.84a11.83 11.83 0 01-4.35-4.69c-.5-.91-.78-1.93-1.24-2.86-.21-.41-.29-1.13-1.18-.82a19.88 19.88 0 01-3 5.69A12.15 12.15 0 0191.36 73l1.42 2.49h.35c1.4-.94 2.83-1.83 4.17-2.84a18.81 18.81 0 002-2c1.37 1.17 2.66 2.45 4.12 3.48a41.45 41.45 0 007 3.49c.45.2 1 .73 1.39 1a1.34 1.34 0 00.27-.26l1.44-2.48c-1.91-1.02-3.77-1.98-5.66-2.88zM99.49 62.81l-.1-.12-.12.11z"/>
    <path fill="#87c79f" d="M92.07 55.15l.17-.29-.17.29z"/>
    <path fill="#f1df2b" d="M90.63 84.69l1.42.68-1.77.77c-.57-.65-.03-1.03.35-1.45z"/>
    <path fill="#15c003" d="M92.45 86.13l-.35.39z"/>
    <path d="M108.51 84.67v-1.38l-2.89 1.39c-2.34.12-4.68.28-7 .37a17.84 17.84 0 01-6.13-1c-.6-.2-1.17-.48-1.75-.73l-.07 1.42 1.42.68h.73a1.34 1.34 0 000 .35 4.66 4.66 0 011.06 0 21.48 21.48 0 004.79.7 27.76 27.76 0 007.27-.73l-.28-1 1.32.67z" fill="#e3d33a"/>
    <path fill="#f1df2b" d="M107 85.44l1.52-.77c.83.73.83.75.31 1.57z"/>
    <path fill="#15c003" d="M106.67 86.51l-.33-.39z"/>
    <path fill="#e9f2f8" d="M90.72 80.82a7.76 7.76 0 01-3.24-2.43c.6-.36 1.51-1.16 2.1-1.51h.71c0 .54.28.79.7 1.08.77.55 1.47 1.21 2.2 1.82zM111.76 78.55a5.83 5.83 0 01-3.33 2.25l-3.14-1c-.16-.14-.32-.4-.48-.4a34.67 34.67 0 01-4.87-.4c-2.7-.46-5.18-1.19-6.81-3.6 1.4-.94 2.83-1.83 4.17-2.84a18.81 18.81 0 002-2c1.37 1.17 2.66 2.45 4.12 3.48a41.45 41.45 0 007 3.49c.4.25.91.78 1.34 1.02z"/>
    <path d="M93.13 75.44c1.63 2.41 4.11 3.14 6.81 3.6a34.67 34.67 0 004.87.34c.16 0 .32.26.48.4A11.43 11.43 0 0197 80.89c-1.3-.26-2.55-.74-3.82-1.12-.73-.61-1.43-1.27-2.2-1.82-.42-.29-.74-.54-.7-1.08l2.49-1.43z" fill="#b2c8df"/>
    <path d="M93.19 79.77c1.27.38 2.52.86 3.82 1.12a11.43 11.43 0 008.28-1.11l3.14 1c0 .11 0 .21.07.32l-2.14 1.1c-1.48.76-3.12.8-4.69 1.15-2.34.52-4.48 0-6.69-.43a17.37 17.37 0 01-4.32-1.79 1.61 1.61 0 01.06-.33z" fill="#f1df2b"/>
    <path fill="#f1df2b" d="M90.66 81.15A17.37 17.37 0 0095 82.94c2.21.41 4.35 1 6.69.43 1.57-.35 3.21-.39 4.69-1.15l2.14-1.1c.88.93.88.93 0 2.17l-2.89 1.39c-2.34.12-4.68.28-7 .37a17.84 17.84 0 01-6.13-1c-.6-.2-1.17-.48-1.75-.73-.51-.75-.93-1.45-.09-2.17z"/>
    <circle fill="#15c003" cx="94.39" cy="22.13" r="1.38"/>
    <path fill="#189403" d="M138.46 39.37a8.19 8.19 0 00-7.53-.91 8.8 8.8 0 00-5 4.34 34.51 34.51 0 01-3.28 4.92 14.58 14.58 0 01-5.08 4.17c-1 .47-2 .86-3.12 1.37a5.57 5.57 0 004.68-1 7.63 7.63 0 012.16-1.11 7 7 0 012.68-.48 11.73 11.73 0 012.76.95 28.52 28.52 0 003.51-7.08 19.76 19.76 0 011.13-2.58 3.74 3.74 0 014.32-1.61 7.31 7.31 0 014.11 3.18 11.17 11.17 0 011.31 4.9 2 2 0 00.87-1.87 7.68 7.68 0 00-3.52-7.19zM75.73 50.6a8.65 8.65 0 014 1.65 5.26 5.26 0 004.64 1c-.6-.24-1-.39-1.44-.57A14.5 14.5 0 0177.2 49a28.06 28.06 0 01-4.12-5.83c-2.15-4.57-8-6.78-12.25-4.05-2.48 1.59-4.14 3.75-4 6.92a13.53 13.53 0 001 3.76v-1.78a8.23 8.23 0 011.74-5.26 6.7 6.7 0 013.93-2.52 3.5 3.5 0 014 1.71 24.68 24.68 0 011.13 2.57c1 2.43 1.85 5 3.53 7.07a6.75 6.75 0 011-.43 7.31 7.31 0 012.57-.56zM92.42 85.4h-.37l-1.77.77a8.49 8.49 0 01-5 .73 2.15 2.15 0 01-1.83-1.21 4.86 4.86 0 011.3-6.18c.76-.55 1.58-1 2.37-1.51l-1.54-2.16a9.29 9.29 0 00-5.64 7c-.4 2.12.66 3.7 2.57 4.82a7.58 7.58 0 003.73.66 7.48 7.48 0 005-1.54 2.3 2.3 0 01.81-.2l.35-.39.38-.37a1.34 1.34 0 010-.35zM116.26 77.92c-.86-.68-1.65-1.44-2.47-2.17a1.8 1.8 0 01-.32.06L112 78.29c.66.39 1.35.73 2 1.18a4.78 4.78 0 011.3 6.18 2.18 2.18 0 01-2 1.24 8.22 8.22 0 01-4.48-.65l-1.83-.8-1.32-.67.28 1 .39.35.33.39c.17 0 .42-.07.52 0 2.13 1.92 4.74 2 7.31 1.68a4.86 4.86 0 003.82-2.42c1.33-2.3-.14-6.31-2.06-7.85zM121.76 69.75a39.77 39.77 0 00-8.36-1.38c-2.65-.22-5.33-.06-8 0a2.43 2.43 0 00-.86.36c1.69.11 3.4.1 5.06.37 2.1.34 4.23.71 6 2.1h.52a14.38 14.38 0 005.37 2.36 2.79 2.79 0 002.18-.34c.62-.34 1.16-.73 1.15-1.53a5.35 5.35 0 00-3.06-1.94zM93.18 68.33c-4.45 0-8.92-.21-13.31.73a13.34 13.34 0 00-4.29 1.27c-1.34.81-1.38.77-1.16 2.66a6.73 6.73 0 002.58.6 13.37 13.37 0 005.29-2 10 10 0 011.55-.73 4.77 4.77 0 012.53-1 8.59 8.59 0 013.57-.7l4.28-.38c-.22-.67-.67-.45-1.04-.45z"/>
    <path fill="#189403" d="M82.82 58.69c1 .21 2 .25 3.37.39-.56-.34-.83-.54-1.13-.69a23.48 23.48 0 01-3.39-1.73 34.51 34.51 0 01-3.67-3.3 3.85 3.85 0 00-3-1 1.76 1.76 0 00-1.77 2.4 2.29 2.29 0 00.46.73 6.07 6.07 0 002.74 1.83 39.15 39.15 0 006.39 1.37zM123.75 52.28a4.44 4.44 0 00-3.84 2c-.28.37-.54.76-.84 1.11a13.15 13.15 0 01-4.56 3.14 1.36 1.36 0 00.34.15 25 25 0 007.15-1.26 6.41 6.41 0 003.09-1.91 2.12 2.12 0 00.39-2.29c-.23-.7-.91-.93-1.73-.94zM106.93 60.52a5.33 5.33 0 002.72 2.09c1.35.61 2.71 1.18 4.07 1.76l3.27-.51c-.18-.37-.37-.51-.56-.51a15.41 15.41 0 01-8.33-2.64c-.3-.2-.77-.13-1.17-.19zM82.11 64l.35-.69-3.1.44V64zM104.78 50.48l-1 1.24 1.08.32zM94.19 50.67v1.55l.74-.28-.48-1.33zM109.62 22.75c.47 0 .63-.2.63-.62a13.51 13.51 0 00-6.46-2.62 27.82 27.82 0 00-8.83 0 13.6 13.6 0 00-6.45 2.64c0 .44.21.59.66.6a7 7 0 011.89.23 14.16 14.16 0 016 3.48 3.59 3.59 0 004.49.23 28.59 28.59 0 012.8-2.08c1.55-1.06 3.22-2.01 5.27-1.86zm-15.23.76a1.38 1.38 0 111.38-1.38 1.38 1.38 0 01-1.38 1.38zm4.89-3.77a1 1 0 11-1 1 1 1 0 011-1zm0 6.3a1.09 1.09 0 111.09-1.04 1.09 1.09 0 01-1.09 1zm3.84-3.91a1.38 1.38 0 111.38 1.38 1.38 1.38 0 01-1.38-1.38zM85.69 43.94c.59 1.08 1.4 2.05 1.37 3.37 1.52-.39 2-1.65 2.51-2.92.63-1.72 1.29-3.33 3.22-4.08a6.08 6.08 0 001.89-1.53c.2-.2.13-.66.18-1-1.63.39-3.07.78-4.52 1.09a8.2 8.2 0 01-5.48-.39c-.87-.43-1.68-1-2.52-1.49a4.22 4.22 0 00.24 1C83.6 40 84.62 42 85.69 43.94zm2-4a1.14 1.14 0 11-1.1 1.06 1.14 1.14 0 011.14-1.11zm-.32 3.2a.82.82 0 11-.82.82.82.82 0 01.86-.87zM103.91 37.78a2.66 2.66 0 000 .53 3.52 3.52 0 002.22 2.09c1.76.73 2.41 2.2 2.94 3.68a5.06 5.06 0 002.59 3.23 4 4 0 01.2-1c.56-1.1 1.17-2.17 1.78-3.23 1-1.83 2.29-3.56 2.67-5.7-.23 0-.51 0-.67.13a8.19 8.19 0 01-7.58 1.31c-1.32-.4-2.71-.69-4.15-1.04zm7.32 6.95a.82.82 0 11.82-.82.82.82 0 01-.82.82zm-.32-4.84a1.14 1.14 0 11-1.14 1.11 1.14 1.14 0 011.14-1.11z"/>
    <circle fill="#15c003" cx="104.5" cy="22.13" r="1.38"/>
    <circle fill="#15c003" cx="99.28" cy="20.74" r="1"/>
    <circle fill="#15c003" cx="99.28" cy="24.95" r="1.09"/>
    <path fill="#15c003" d="M105.94 59.1h-.01.01z"/>
    <circle fill="#fff" cx="88.48" cy="30.94" r="6.62"/>
    <path fill="#000" d="M88.43 31.64a2.92 2.92 0 000 5.84 2.81 2.81 0 00.77-.11 1.08 1.08 0 01-1-1.08 1.09 1.09 0 012.18 0 1.08 1.08 0 01-.19.61 2.92 2.92 0 00-1.74-5.26z"/>
    <path fill="#15c003" d="M143.59 42.78c-.88-4.58-3.78-7.5-8.17-8.88a9.64 9.64 0 00-9.08 1.35 20.87 20.87 0 00-5 5.2c-1 1.47-1.87 3-2.88 4.47-1.83 2.66-3.63 3.27-6.73 2.39a5.06 5.06 0 01-2.59-3.23c-.53-1.48-1.18-2.95-2.94-3.68a3.52 3.52 0 01-2.2-2.09 2.66 2.66 0 010-.53c1.44.35 2.83.64 4.19 1a8.19 8.19 0 007.58-1.31c.16-.12.44-.09.67-.13a12.45 12.45 0 01.81-1.31 8.45 8.45 0 001.69-6.61 8.31 8.31 0 00-6.77-6.75 11.31 11.31 0 01-1.83-.56c0 .42-.16.66-.63.62-2.05-.15-3.72.8-5.32 1.87a28.59 28.59 0 00-2.8 2.08 3.59 3.59 0 01-4.59-.21 14.16 14.16 0 00-6-3.48 7 7 0 00-1.89-.23c-.45 0-.66-.16-.66-.6a17.36 17.36 0 01-1.83.54 7.7 7.7 0 00-6.26 5.05 8.06 8.06 0 001.1 8.16c.28.36.55.74.82 1.12.84.5 1.65 1.06 2.52 1.49a8.2 8.2 0 005.48.39c1.45-.31 2.89-.7 4.52-1.09 0 .3 0 .76-.18 1a6.08 6.08 0 01-1.89 1.53c-1.93.75-2.59 2.36-3.22 4.08-.47 1.27-1 2.53-2.51 2.92-3 .86-4.89.2-6.71-2.39-.64-.92-1.23-1.86-1.8-2.82a20.69 20.69 0 00-5.21-6.18 10.06 10.06 0 00-5.52-2.53c-5.21-.3-10.64 2.4-12.44 8.44a10.53 10.53 0 00-.32 1.18 6.24 6.24 0 000 3.56c.48 1 .93 2 1.47 2.89a8.93 8.93 0 001.25 1.33l.08-1a13.53 13.53 0 01-1-3.76c-.09-3.17 1.57-5.33 4-6.92 4.27-2.73 10.1-.52 12.25 4.05A28.06 28.06 0 0077.2 49a14.5 14.5 0 005.7 3.65c.41.18.84.33 1.44.57a5.26 5.26 0 01-4.64-1 8.65 8.65 0 00-4-1.65 7.31 7.31 0 00-2.67.56 6.75 6.75 0 00-1 .43c-4 3.47-2.26 10.7 3.62 11.88l-1.53.82a6.69 6.69 0 00-3.43 4.5c-.65 2.67 2 6.16 4.8 6.27a23.64 23.64 0 003.33-.34.65.65 0 01.27-.08l.33-.16-.22.29-.32.39c-.64 1-1.35 2.06-1.9 3.15a8.09 8.09 0 005.8 11.82c.14 0 .5 0 .76.06h2.11a15 15 0 001.8-.14 8.36 8.36 0 004.28-2.64l.4-.9a2.3 2.3 0 00-.81.2 7.48 7.48 0 01-5 1.54 7.58 7.58 0 01-3.73-.66c-1.91-1.12-3-2.7-2.57-4.82a9.29 9.29 0 015.64-7 1 1 0 000-.35 9.79 9.79 0 01-1.78-4.65 10 10 0 00-1.55.73 13.37 13.37 0 01-5.29 2 6.73 6.73 0 01-2.58-.6c-.22-1.89-.18-1.85 1.16-2.66a13.34 13.34 0 014.29-1.27c4.39-.94 8.86-.74 13.31-.73.37 0 .86-.22 1 .37h1.26a16.19 16.19 0 00-4.6-2.5c-.46-.2-.91-.43-1.37-.65l-3.15-1-1.36-.09-2.89-.34h-2.74v-.25l3.1-.44A15.62 15.62 0 0091.74 60a6.35 6.35 0 011-.55l.39-.67.34-.38.86-1.3-3.36 1-2.5.62c-.71.07-1.4.71-2.14.08.84-2.44 4.5-5.43 7.85-6.43V50.67l.26-.06.48 1.33 2.53-.43-.84-1.61-.31-.41-.3-.72a12.42 12.42 0 01-2-6.28h10.7c.35 1.36-.33 3.73-1.88 6.3-.35.54-.34.6-.67 1.13l-.83 1.53 2.46.27 1-1.24.08 1.56v.27a9.85 9.85 0 014.32 2.18 12.91 12.91 0 013.92 4.23l1 .07-.09.31-.87-.36a8.33 8.33 0 01-2 .18 21.47 21.47 0 01-6.14-1.81 3.16 3.16 0 00-.49-.11 3 3 0 001 1.74l.41.36c.54 0 .38.45.38.76l.62.66c.4.06.87 0 1.17.19a15.41 15.41 0 008.33 2.64c.19 0 .38.14.56.51l-3.27.51a26.12 26.12 0 00-2.83.75c-2.06.78-4.08 1.64-6.1 2.51a13.89 13.89 0 00-1.56 1l1.31.07a2.43 2.43 0 01.86-.36c2.67 0 5.35-.19 8 0a39.77 39.77 0 018.36 1.38 5.35 5.35 0 013 2c0 .8-.53 1.19-1.15 1.53a2.79 2.79 0 01-2.18.34 14.38 14.38 0 01-5.37-2.36c-.11-.09-.34 0-.52 0l-1.78 4.58c.82.73 1.61 1.49 2.47 2.17 1.92 1.54 3.39 5.55 2 7.86a4.86 4.86 0 01-3.82 2.42c-2.57.29-5.18.24-7.31-1.68-.1-.08-.35 0-.52 0l.41 1c1.27 1.12 2.49 2.3 4.25 2.6.48.08.72.11 1.55.3a8.52 8.52 0 002.76 0 16 16 0 001.88-.66 7.91 7.91 0 005-9.22 13.86 13.86 0 00-2.62-5.33l-.65-.55.12-.18.57.32a28.93 28.93 0 003.33.35c3.58 0 5.36-4.34 4.79-6.43a6.83 6.83 0 00-3.39-4.35l-1.54-.81c6.08-1.24 7.44-8.63 3.64-11.9a11.73 11.73 0 00-2.76-.95 7 7 0 00-2.68.48 7.63 7.63 0 00-2.16 1.11 5.57 5.57 0 01-4.68 1c1.17-.51 2.17-.9 3.12-1.37a14.58 14.58 0 005.08-4.17 34.51 34.51 0 003.28-4.92 8.8 8.8 0 015-4.34 8.19 8.19 0 017.53.91 7.68 7.68 0 013.6 7.05 2 2 0 01-.87 1.87 3.84 3.84 0 000 2.23 3.29 3.29 0 00.57-.32c2.17-2.08 2.42-4.77 1.89-7.52zm-33.06-18.46a6.62 6.62 0 11-6.62 6.62 6.63 6.63 0 016.62-6.62zM82.82 58.69a39.15 39.15 0 01-6.42-1.42 6.07 6.07 0 01-2.74-1.83 2.29 2.29 0 01-.46-.73 1.76 1.76 0 011.8-2.4 3.85 3.85 0 013 1 34.51 34.51 0 003.66 3.3 23.48 23.48 0 003.39 1.73c.3.15.57.35 1.13.69-1.32-.09-2.36-.13-3.36-.34zm5.66-21.13a6.62 6.62 0 116.62-6.62 6.62 6.62 0 01-6.62 6.62zm30.59 17.85c.3-.35.56-.74.84-1.11a4.44 4.44 0 013.84-2c.82 0 1.5.24 1.71.94a2.12 2.12 0 01-.39 2.29 6.41 6.41 0 01-3.07 1.89 25 25 0 01-7.13 1.28 1.36 1.36 0 01-.34-.15 13.15 13.15 0 004.54-3.14z"/>
    <circle fill="#fff" cx="110.53" cy="30.94" r="6.62"/>
    <path fill="#000" d="M110.58 31.64a2.92 2.92 0 110 5.84 2.81 2.81 0 01-.77-.11 1.08 1.08 0 001-1.08 1.09 1.09 0 00-2.18 0 1.08 1.08 0 00.19.61 2.92 2.92 0 011.74-5.26z"/>
    <circle fill="#15c003" cx="87.73" cy="41.03" r="1.14"/>
    <circle fill="#15c003" cx="87.41" cy="43.91" r=".82"/>
    <circle fill="#15c003" cx="110.91" cy="41.03" r="1.14"/>
    <circle fill="#15c003" cx="111.23" cy="43.91" r=".82"/>
    <path fill="#000" d="M104.7 42.49H94a12.42 12.42 0 002 6.28l.35.72.31.41.84 1.61 3.86-.06c.27-.5 1-1.79 1.29-2.32l.21-.34c1.51-2.57 2.19-4.94 1.84-6.3zm-2 6.18l-.67 1.1-.79.7a2.34 2.34 0 01-3.68 0l-.77-.71-.32-.39-.34-.71c-.15-1.64.11-2.12 1.38-2.58.55-.19.59-.21 1.65.36a1.67 1.67 0 00-.48 1s-.08.4.08 0a2.87 2.87 0 01.66-.87 2 2 0 012.54-.22 2 2 0 01.72 2.32z"/>
    <path d="M101.94 46.35a2 2 0 00-2.54.22 2.87 2.87 0 00-.66.87c-.16.4-.08 0-.08 0a1.67 1.67 0 01.48-1c-1.06-.57-1.1-.55-1.65-.36-1.27.46-1.53.94-1.38 2.58l.34.71.32.39.77.71a2.34 2.34 0 003.68 0l.79-.7.67-1.1a2 2 0 00-.74-2.32z" fill="#cc0101"/>
    <path d="M64.59 108.68a6.13 6.13 0 01-1.73-.24 6.4 6.4 0 01-3.86-3.17 7.46 7.46 0 01-.65-1.65 7.36 7.36 0 01-.22-1.84 7.09 7.09 0 01.87-3.49 6.41 6.41 0 013.84-3.17 6.36 6.36 0 013.46 0 6.42 6.42 0 012.85 1.77 6.61 6.61 0 011 1.4 7 7 0 01.65 1.65 7.47 7.47 0 010 3.68 7 7 0 01-.65 1.65 6.61 6.61 0 01-1 1.4 6.42 6.42 0 01-2.85 1.77 6.18 6.18 0 01-1.71.24zm0-2.76a3 3 0 001.4-.33 3.34 3.34 0 001.09-.89 4.19 4.19 0 00.71-1.32 5.24 5.24 0 000-3.2 4.15 4.15 0 00-.72-1.33A3.59 3.59 0 0066 98a3 3 0 00-1.39-.33 2.94 2.94 0 00-1.41.33 3.47 3.47 0 00-1.09.89 4.36 4.36 0 00-.72 1.33 5.05 5.05 0 000 3.2 4.42 4.42 0 00.72 1.32 3.34 3.34 0 001.09.89 2.94 2.94 0 001.39.29zM78.07 102.49a2.6 2.6 0 00-.85-.72 2.13 2.13 0 00-1.1-.21 2.08 2.08 0 00-1.64.64 2.08 2.08 0 00-.48.8 2.76 2.76 0 00-.17 1 2.31 2.31 0 00.18.91 2.08 2.08 0 00.47.74 2.13 2.13 0 00.73.49 2.64 2.64 0 00.9.21 2.56 2.56 0 00.76-.17 2.25 2.25 0 00.6-.35 2.27 2.27 0 00.45-.48 2.8 2.8 0 00.3-.51l2.41.67a4.29 4.29 0 01-.51 1.1 4.21 4.21 0 01-.95 1 5.29 5.29 0 01-1.39.78 5.24 5.24 0 01-1.83.31 4.72 4.72 0 01-1.93-.39 4.58 4.58 0 01-1.51-1 4.85 4.85 0 01-1-1.54 5.27 5.27 0 01-.35-1.91 4.84 4.84 0 01.36-1.88 4.6 4.6 0 011-1.51 4.51 4.51 0 013.48-1.4 4.1 4.1 0 011.44.17 4.7 4.7 0 011.31.6h1.75v2.65zM85.23 99.34h1.82v2.3h-1.83v3.85a2.47 2.47 0 000 .54.85.85 0 00.16.33.41.41 0 00.24.17 1 1 0 00.32 0 2.55 2.55 0 00.59-.06l.51-.16.38 1.7a4 4 0 01-1 .45 4.5 4.5 0 01-1.3.17 3 3 0 01-1-.19 2.29 2.29 0 01-.85-.56 2.6 2.6 0 01-.59-.93 3.34 3.34 0 01-.21-1.31v-4h-1.29v-2.3h1.32v-2.18l2.73-1.3z"/>
    <path d="M87 103.86a4.84 4.84 0 119.68 0 5.09 5.09 0 01-.34 1.87 4.65 4.65 0 01-2.52 2.56 5 5 0 01-2 .38 5.11 5.11 0 01-2-.38 4.64 4.64 0 01-1.52-1 4.42 4.42 0 01-1-1.52 4.91 4.91 0 01-.3-1.91zm2.63 0a2.67 2.67 0 00.17 1 2.41 2.41 0 00.48.75 2.3 2.3 0 00.7.5 2.29 2.29 0 001.73 0 2 2 0 00.69-.49 2.2 2.2 0 00.46-.75 2.69 2.69 0 00.17-1 2.86 2.86 0 00-.17-1 2.06 2.06 0 00-.46-.74 1.93 1.93 0 00-.69-.47 2.42 2.42 0 00-1.73 0 2.06 2.06 0 00-.7.47 2.25 2.25 0 00-.48.74 2.86 2.86 0 00-.21.99zM98.26 95.12h6.15a5.43 5.43 0 011.89.32 5 5 0 011.49.87 3.81 3.81 0 011 1.26 3.23 3.23 0 01.36 1.48 5.58 5.58 0 01-.28 1.75 3.78 3.78 0 01-.86 1.41 4 4 0 01-1.47.94 5.77 5.77 0 01-2.1.35h-1.85v2.5h1.22v2.41h-5.55V106h1.38v-8.5h-1.38zm4.3 2.42v3.58h1.2a2.61 2.61 0 001.59-.43 1.5 1.5 0 00.59-1.33 1.68 1.68 0 00-.55-1.34 2.42 2.42 0 00-1.63-.48zM118 102.65h-2.47v-.94a4.43 4.43 0 00-.66.05 1.87 1.87 0 00-.52.16 1.18 1.18 0 00-.38.32 1.27 1.27 0 00-.22.5V106h1.86v2.41h-5.94V106H111v-4.29h-1.35v-2.37h4.06v.66a2.8 2.8 0 01.87-.47 3.21 3.21 0 011-.17H118zM118.77 99.34h4.09V106h1.26v2.41h-5.35V106h1.37v-4.29h-1.37zm1.23-2.93a1.63 1.63 0 01.12-.62 1.51 1.51 0 01.33-.49 1.77 1.77 0 01.55-.3 1.56 1.56 0 01.62-.12 1.45 1.45 0 01.59.12 1.77 1.77 0 01.5.34 1.51 1.51 0 01.33.49 1.63 1.63 0 01.12.62 1.58 1.58 0 01-.16.55 1.51 1.51 0 01-.33.49 1.77 1.77 0 01-.5.34 1.45 1.45 0 01-.59.12 1.56 1.56 0 01-.62-.12 1.77 1.77 0 01-.5-.34 1.51 1.51 0 01-.33-.49 1.58 1.58 0 01-.13-.59zM132.3 103.21a1.69 1.69 0 00-.4-1.2 1.4 1.4 0 00-1.07-.44 2.24 2.24 0 00-.93.21 2.34 2.34 0 00-.9.75V106h1.48v2.41h-5.66V106h1.33v-4.29h-1.32v-2.37H129v.8a4.83 4.83 0 011.28-.71 4.36 4.36 0 011.49-.26 3.35 3.35 0 012.53.92 3.75 3.75 0 01.89 2.69V106h1.29v2.41h-4.18zM140 99.34h1.82v2.3H140v3.85a2.47 2.47 0 00.05.54.85.85 0 00.16.33.41.41 0 00.24.17 1 1 0 00.32 0 2.61 2.61 0 00.59-.06l.51-.16.38 1.7a4 4 0 01-1 .45 4.55 4.55 0 01-1.3.17 3 3 0 01-1-.19 2.29 2.29 0 01-.85-.56 2.6 2.6 0 01-.59-.93 3.34 3.34 0 01-.21-1.31v-4H136v-2.3h1.32v-2.18l2.73-1.3z"/>
</svg>
