<svg xmlns="http://www.w3.org/2000/svg" viewBox="-5.12 -6.12 474.24 136.74">
	<defs>
		<style>
			.cls-3{fill:#242021}.cls-4{fill:#231f20}
		</style>
	</defs>
	<path fill="#0267b3" d="M4.28 94.609c1.095-14.483 7.064-26.946 15.883-38.218a96.141 96.141 0 0 1 11.101-11.91c.577-.524.546-.882.114-1.476a68.571 68.571 0 0 0-14.417-14.789 1.825 1.825 0 0 1-.84-1.672c.034-5.596.015-11.192.027-16.788 0-.333-.198-.808.17-.976.347-.16.625.26.903.46a65.25 65.25 0 0 1 21.604 27.13c.464 1.053.74.958 1.531.343a131.405 131.405 0 0 1 28.449-17.118 12.887 12.887 0 0 1 2.943-.994c.56-.094 1.182-.106 1.476.493a1.325 1.325 0 0 1-.45 1.612 5.65 5.65 0 0 1-.982.675q-9.917 5.814-19.836 11.623a59.084 59.084 0 0 0-10.327 7.958 1.34 1.34 0 0 0-.35 1.668 95.506 95.506 0 0 1 4.95 29.034c.2 9.156-.614 18.187-3.476 26.943-2.379 7.277-6.04 13.735-12.274 18.445-3.059 2.312-6.367 4.122-10.3 4.45-.085.007-.16.14-.238.215h-1.44c-.093-.322-.376-.228-.592-.261a10.963 10.963 0 0 1-5.831-2.83 20.195 20.195 0 0 1-4.865-7.31A38.229 38.229 0 0 1 4.28 94.609zm10.633 3.83a45.613 45.613 0 0 0 .5 7.043 18.615 18.615 0 0 0 2.743 7.968 5.381 5.381 0 0 0 6.69 2.248 11.32 11.32 0 0 0 3.07-1.593 26.85 26.85 0 0 0 8.133-10.057c4.705-9.267 6.164-19.217 6.084-29.477a52.829 52.829 0 0 0-6.584-24.857c-.692-1.29-.703-1.296-1.602-.136a111.962 111.962 0 0 0-12.226 19.985 65.59 65.59 0 0 0-6.808 28.877z"/>
	<path fill="#ec1d25" d="M87.854 3.212c.462.466 1.104.282 1.653.43a8.258 8.258 0 1 1-3.087-.186c.248-.032.581.14.714-.244z"/>
	<path d="M120.03 105.13c-6.333-.084-12.492-1.016-18.2-3.94-8.606-4.408-13.437-11.674-15.395-20.935-2.907-13.75 4.522-25.587 15.232-31.723a35.086 35.086 0 0 1 16.157-4.257 44.234 44.234 0 0 1 20.787 3.653c9.443 4.318 14.785 11.66 16.203 21.945.813 5.896.512 11.638-1.988 17.112-2.89 6.327-7.816 10.645-13.832 13.926-5.938 3.238-12.364 4.066-18.964 4.22zm3.405-7.345a16.52 16.52 0 0 0 7.58-1.651c4.593-2.408 6.41-6.575 6.986-11.44.698-5.883-.587-11.513-2.42-17.035-1.552-4.672-3.754-9.006-7.596-12.249-4.992-4.213-10.642-5.172-16.66-2.654-5.848 2.446-8.407 7.293-8.561 13.384a41.062 41.062 0 0 0 7.043 23.951c3.144 4.789 7.575 7.706 13.628 7.694z" class="cls-3"/>
	<path d="M385.306 103.846c-8.269 0-16.34 0-24.41-.003a2.636 2.636 0 0 1-.381-.06c-.055-.439.31-.627.509-.878a15.89 15.89 0 0 0 3.483-9.974c.069-5.912.23-11.824.217-17.735-.014-6.547-.556-13.077-.863-19.615-.203-4.312-.74-5.918-3.35-9.526.098-.049.19-.134.283-.134 11.236.005 22.473-.054 33.707.065a29.328 29.328 0 0 1 12.216 2.595c4.72 2.203 7.46 5.792 7.489 11.126.03 5.432-2.487 9.366-7.286 11.86a15.635 15.635 0 0 1-3.917 1.443c-.508.11-.714.278-.45.799 5.145 10.174 10.583 20.152 18.949 28.159.49.468 1.03.886 1.561 1.308.484.384.99.742 1.728 1.291h-8.893c-2.56 0-5.126-.12-7.676.038a5.287 5.287 0 0 1-4.575-2.1 120.239 120.239 0 0 1-9.186-12.851 98.584 98.584 0 0 1-7.234-12.393c-.388-.827-.672-1.702-.995-2.558-.271-.722-.028-1.052.751-1.213a19.042 19.042 0 0 0 6.615-2.676c3.489-2.278 5.402-5.361 4.802-9.686-.483-3.48-3.146-5.956-7.419-6.77a24.622 24.622 0 0 0-7.866-.13c-.98.128-1.136.56-1.18 1.364-.303 5.58-.658 11.159-.944 16.74-.369 7.23.064 14.457.15 21.685a13.884 13.884 0 0 0 4.165 9.829z" class="cls-4"/>
	<path d="M217.883 55.568a14.723 14.723 0 0 0-7.737-4.187 31.63 31.63 0 0 0-13.077-.568 16.79 16.79 0 0 0-13.25 10.717 30.81 30.81 0 0 0-1.778 18.787c1.962 8.673 7.88 13.563 16.271 15.726a33.475 33.475 0 0 0 10.828.711c.792-.057 1.105-.309 1.114-1.132.05-4.632.168-9.263.21-13.895a19.091 19.091 0 0 0-.289-3.335c-.343-2.032-.96-3.953-3.057-5.333h1.658c5.557 0 11.115.016 16.672-.017.804-.004 1.095.16 1.091 1.038q-.049 13.669-.005 27.338c.002.726-.188 1.005-.933 1.195a109.911 109.911 0 0 1-24.741 3.342 42.022 42.022 0 0 1-22.041-5.334c-7.478-4.214-12.636-10.308-14.003-18.953-1.471-9.312-.036-18.092 6.195-25.577 4.51-5.42 10.517-8.427 17.234-10.172 6.187-1.608 12.484-1.643 18.806-1.293a54.708 54.708 0 0 1 9.722 1.27c.822.196 1.159.52 1.135 1.432-.07 2.7-.025 5.404-.025 8.24zm54.21 35.858c.554-.021.824.385 1.171.619 5.934 3.99 12.352 6.459 19.617 6.277a18.963 18.963 0 0 0 7.14-1.27c4.638-1.995 5.363-6.952 1.458-10.147a32.875 32.875 0 0 0-7.984-4.28c-4.088-1.783-8.298-3.33-11.775-6.265-5.205-4.396-8.017-9.855-7.438-16.796.47-5.653 3.651-9.392 8.598-11.758a32.553 32.553 0 0 1 16.824-2.773 79.178 79.178 0 0 1 12.071 1.793c1.004.235 1.45.613 1.406 1.743-.099 2.537-.031 5.08-.031 7.732-1.608-.73-3.066-1.438-4.559-2.06a32.17 32.17 0 0 0-10.843-2.286 10.444 10.444 0 0 0-4.003.594c-4.592 1.602-5.608 6.587-1.988 9.857a26.006 26.006 0 0 0 7.223 4.162c3.755 1.655 7.622 3.07 11.223 5.057 3.61 1.993 6.857 4.5 8.012 8.64 2.361 8.46.11 17.799-9.546 22.26a36.79 36.79 0 0 1-14.53 3.112 86.62 86.62 0 0 1-18.253-1.126 1.863 1.863 0 0 1-1.777-1.786c-.564-3.422-1.268-6.822-1.909-10.232-.064-.345-.072-.7-.108-1.067z" class="cls-3"/>
	<path d="M261.077 103.438H235.49a16.328 16.328 0 0 0 4.489-11.115q.464-17.313-.514-34.608a47.776 47.776 0 0 0-1.197-7.438 9.773 9.773 0 0 0-2.579-4.41h25.454c-2.66 2.726-3.268 6.096-3.577 9.522-.607 6.722-.748 13.469-.894 20.214-.12 5.588-.244 11.177.115 16.762a27.079 27.079 0 0 0 .956 5.775 9.726 9.726 0 0 0 3.334 5.298zm199.245-57.524c-2.764 2.868-3.286 6.467-3.576 10.09-.524 6.528-.7 13.073-.829 19.621-.105 5.39-.222 10.778.061 16.164a26.976 26.976 0 0 0 1.15 6.827 9.393 9.393 0 0 0 3.123 4.774h-25.466a16.362 16.362 0 0 0 4.035-7.89 38.348 38.348 0 0 0 .535-7.632c.07-10.104-.026-20.207-.67-30.295a46.474 46.474 0 0 0-1.223-7.435 9.464 9.464 0 0 0-2.506-4.224z" class="cls-4"/>
	<path d="M341.218 79.619c-3.04 0-6.079-.024-9.117.017-.743.01-.946-.197-.931-.937.047-2.397.043-4.797.002-7.194-.012-.698.214-.861.882-.859q9.237.036 18.474-.002c.73-.003.969.186.956.933q-.064 3.596-.001 7.194c.011.712-.255.866-.908.86-3.119-.027-6.238-.012-9.357-.012z" class="cls-3"/>
</svg>
