<svg xmlns="http://www.w3.org/2000/svg" viewBox="49.61 9.61 436.54 137.54">
	<path fill="#1A263E" d="M118.5 139c33.413 0 60.5-27.087 60.5-60.5S151.913 18 118.5 18 58 45.087 58 78.5 85.087 139 118.5 139z"/>
	<path fill="#00D1CA" d="M97.457 78.5c0-11.52 9.519-21.044 21.491-21.044 6.844 0 12.911 3.123 16.844 7.974a6.764 6.764 0 0 0 10.509-8.519c-6.421-7.92-16.304-12.982-27.353-12.982-19.239 0-35.02 15.376-35.02 34.571s15.781 34.571 35.02 34.571c11.049 0 20.932-5.062 27.353-12.982a6.765 6.765 0 0 0-10.509-8.52c-3.933 4.852-10 7.974-16.844 7.974-11.972 0-21.491-9.522-21.491-21.043z"/>
	<path fill="#00D1CA" d="M146.307 85.264a6.764 6.764 0 1 0 0-13.527 6.764 6.764 0 0 0 0 13.527z"/>
	<path fill="#1A263E" d="m285.983 107-17.25-25.223V107h-9.604V28h9.604v47.91L285.983 51H298.5L279 78l19.5 29h-12.517zm38.908 0c-4.189 0-7.663-1.33-10.421-3.991-2.759-2.66-4.173-6.363-4.242-11.109V60.06h-9.008V51h9.008V37.723h9.636V51h12.569v9.06h-12.569v28.605c0 3.523.663 5.914 1.99 7.172s2.828 1.887 4.504 1.887a9.42 9.42 0 0 0 2.252-.27 11.345 11.345 0 0 0 2.042-.7l3.038 8.844c-2.514.935-5.447 1.402-8.799 1.402zM361.5 51c7.999 0 13.668 2.679 19.099 7.646 5.432 4.967 8.976 13.117 8.334 22.61H345.24c.147 5.206 1.908 8.17 5.284 11.35 3.376 3.182 7.412 4.772 12.109 4.772 6.459 0 11.861-3.346 14.57-9.543h10.648c-1.438 6.332-6.705 12.703-11.023 15.369-4.317 2.666-9.155 3.796-14.586 3.796-7.926 0-14.457-2.675-19.594-8.025-5.138-5.35-7.756-12.622-7.756-20.792 0-8.098 2.463-13.717 7.453-19.103C347.336 53.693 353.721 51 361.5 51zm88.841.092c15.275 0 27.659 12.516 27.659 27.954C478 94.485 465.616 107 450.341 107c-15.276 0-27.66-12.515-27.66-27.954 0-15.438 12.384-27.954 27.66-27.954zm-223.682 0c15.276 0 27.66 12.516 27.66 27.954 0 15.439-12.384 27.954-27.66 27.954C211.384 107 199 94.485 199 79.046c0-15.438 12.384-27.954 27.659-27.954zm182.196-13.369V51h12.569v9.06h-12.569v28.605c0 3.523.664 5.914 1.99 7.172 1.327 1.258 2.828 1.887 4.504 1.887a9.42 9.42 0 0 0 2.252-.27 11.47 11.47 0 0 0 2.043-.7l3.037 8.844c-2.514.935-5.446 1.402-8.798 1.402-4.19 0-7.664-1.33-10.422-3.991-2.758-2.66-4.172-6.363-4.242-11.109V60.06h-9.008V51h9.008V37.723h9.636zm41.486 23.295c-9.852 0-17.839 8.071-17.839 18.028 0 9.957 7.987 18.028 17.839 18.028 9.851 0 17.838-8.071 17.838-18.028 0-9.957-7.987-18.028-17.838-18.028zm-223.682 0c-9.851 0-17.838 8.071-17.838 18.028 0 9.957 7.987 18.028 17.838 18.028 9.852 0 17.839-8.071 17.839-18.028 0-9.957-7.987-18.028-17.839-18.028zM362.21 59.96c-3.852 0-7.663 1.437-10.441 3.773-2.778 2.337-5.212 5.476-6.101 9.418h33.011c-.795-3.601-2.765-6.906-5.909-9.418-3.144-2.511-5.893-3.773-10.56-3.773z"/>
</svg>
