<svg xmlns="http://www.w3.org/2000/svg" viewBox="8.837 3.657 56.16 65.52" height="280" width="280">
	<path transform="scale(.26458)" d="m139.504 20-39.098 22.156 7.045 3.992 32.053-18.164 32.039 18.16 7.043-3.992L139.504 20zm24.853 30.219-7.044 3.994 21.113 11.965L139.5 88.244 100.57 66.18l21.114-11.963-7.045-3.994-24.407 13.834v28.181l7.043 3.992V72.295l38.702 21.937v43.614l-21.114-11.965v7.984l24.639 13.963 24.633-13.96v-7.987l-21.115 11.97V94.233l38.703-21.939v23.934l7.043-3.993V64.057l-24.409-13.838zM203 84.168l-7.043 3.992v35.819l-31.822 18.035V150L203 127.973V84.168zm-127 .006v43.799l38.863 22.023v-7.984l-31.82-18.033V88.164L76 84.174zM56.639 166c-4.499 0-8.021 1.267-10.95 3.959-3.14 2.85-4.837 7.244-4.837 12.35 0 10.053 6.196 16.505 15.83 16.505 9.633 0 15.873-6.491 15.873-16.505 0-5.146-1.656-9.46-4.754-12.35-2.886-2.692-6.494-3.959-11.162-3.959zm66.963.516c.254 1.78.34 3.205.34 5.105v21.414c0 2.138-.086 3.522-.34 5.106h6.28c-.254-1.504-.339-3.01-.339-5.147v-6.61h8.105c4.075 0 6.962-.91 9.041-2.849 1.868-1.82 2.844-4.275 2.844-7.283 0-2.85-.893-5.225-2.633-6.809-2.037-1.9-4.922-2.81-9.039-2.81h-8.869c-2.25 0-3.566-.038-5.39-.117zm-66.877 4.154c2.546 0 4.795.833 6.535 2.416 2.164 2.019 3.353 5.225 3.353 9.223 0 7.283-3.778 11.795-9.847 11.795-2.59 0-4.838-.831-6.578-2.415-2.207-2.058-3.438-5.383-3.438-9.341 0-7.165 3.863-11.678 9.975-11.678zm72.818.516h8.105c2.25 0 3.651.434 4.627 1.423.934.91 1.4 2.218 1.4 3.801 0 3.483-2.122 5.422-6.027 5.422h-8.105v-10.646zm55.687 3.523c-7.257 0-11.968 4.789-11.968 12.111 0 7.402 4.754 12.073 12.265 12.073 3.565 0 6.536-1.029 8.743-3.047 1.06-.99 1.611-1.743 2.587-3.643l-5.007-1.504c-.425 1.069-.722 1.505-1.23 2.059-1.232 1.266-3.013 1.978-5.093 1.978-2.164 0-4.076-.792-5.306-2.216-.976-1.148-1.358-2.257-1.57-4.434h18.462c-.085-.91-.086-1.028-.086-1.107-.127-2.692-.424-4.116-1.23-6.016-1.698-3.958-5.601-6.254-10.567-6.254zm29.61.236c-3.523 0-6.662 1.545-7.893 3.96.043-.634.041-1.228.041-1.466v-2.02h-5.685c.212 1.505.297 2.654.297 5.147v12.428c0 2.138-.085 3.445-.297 5.147h5.984c-.212-1.821-.299-3.01-.299-5.147v-7.836c.467-1.9.893-2.81 1.826-3.959 1.146-1.385 2.59-2.058 4.372-2.058 2.758 0 4.117 1.663 4.117 4.988v8.865c0 2.256-.085 3.484-.34 5.147h6.111c-.212-1.623-.297-2.97-.297-5.147v-7.836c.51-2.454 1.189-3.72 2.674-4.908 1.019-.831 2.078-1.188 3.479-1.188 2.843 0 4.16 1.584 4.16 5.067v8.865c0 2.336-.085 3.524-.34 5.147h6.197c-.254-1.623-.34-2.93-.34-5.147v-9.775c0-2.81-.595-4.593-1.996-6.018-1.443-1.464-3.649-2.256-6.365-2.256-1.91 0-3.353.317-4.754 1.03-1.315.633-2.121 1.345-3.564 3.127-.51-1.227-.85-1.742-1.614-2.375-1.315-1.188-3.182-1.782-5.474-1.782zm-47.613.04c-3.82 0-6.451 1.345-7.979 4.156v-3.721h-5.771c.254 1.623.296 2.732.296 5.146v12.428c0 2.058-.084 3.207-.296 5.147h6.068c-.212-1.86-.297-3.01-.297-5.147v-7.322c.255-1.9.68-2.81 1.74-3.957 1.189-1.306 2.802-1.94 4.924-1.94 1.104 0 1.995.158 3.777.633l1.485-4.988c-1.91-.316-2.929-.436-3.947-.436zm-75.75.04c-3.82 0-6.068 1.108-8.657 4.196.085-.99.084-1.11.084-1.703v-2.098h-5.771c.254 1.623.34 2.97.34 5.146v12.428c0 2.217-.086 3.445-.34 5.147h6.111c-.254-1.702-.34-3.207-.34-5.147V185c1.868-3.919 4.372-5.898 7.428-5.898 1.613 0 2.885.593 3.564 1.623.51.752.721 1.82.721 3.482v8.787c0 2.019-.085 3.365-.297 5.147h6.155c-.255-1.465-.34-2.97-.34-5.147v-9.498c0-2.652-.425-4.237-1.444-5.543-1.527-1.94-3.947-2.928-7.214-2.928zm93.668 3.76c1.994 0 3.438.515 4.584 1.584 1.06.99 1.57 2.057 1.867 3.799h-12.817c.637-3.325 3.055-5.383 6.366-5.383zm-80.604 4.711v5.264c1.4-.198 2.335-.239 3.99-.239h6.578c1.74 0 2.631.04 4.032.239v-5.264c-1.231.158-2.292.236-4.032.236h-6.578c-1.697 0-2.76-.078-3.99-.236zm51.842 35.275c-2.547 0-4.583 1.861-4.668 4.276-.934.08-1.57.08-2.334.08H129.9c-2.887 0-3.777-.04-5.432-.277v5.144c1.528-.198 2.504-.236 5.347-.236h20.202c-2.08 7.679-6.24 13.26-12.86 17.258-3.14 1.9-5.56 2.928-9.295 4.037 1.995 1.82 2.546 2.571 3.735 4.709 3.65-1.465 5.645-2.414 8.064-3.918 4.287-2.613 7.978-5.937 10.567-9.578 2.461-3.444 4.245-7.442 5.73-12.786.297.04.382.04.467.04 2.546 0 4.625-1.979 4.625-4.393 0-2.415-2.08-4.356-4.668-4.356zm63.275 1.03c-.297 2.335-1.103 5.146-3.097 10.965-2.207 6.491-3.905 10.963-6.155 15.95-1.782.08-2.801.12-3.65.12h-1.104l.764 5.344c.849-.198 1.487-.277 3.863-.475 12.69-1.148 19.735-1.98 24.022-2.81.976-.198.975-.2 1.527-.319 1.486 3.285 1.486 3.286 2.037 4.908l5.135-2.492c-2.589-6.293-6.323-12.943-10.27-18.326l-4.796 1.74c1.4 1.86 2.163 3.01 4.03 6.295 1.02 1.781 1.53 2.652 1.997 3.602-3.65.712-10.993 1.542-17.656 2.017 2.716-6.095 5.179-12.665 8.404-22.56.594-1.9.637-1.979 1.103-2.85l-6.154-1.11zm-160.674.119c.17 1.504.169 1.503.211 3.64l.043 3.169H44.555c-3.014 0-3.735 0-5.348-.278v4.828c1.528-.158 2.038-.158 5.22-.197h11.628c-1.4 2.098-3.521 4.552-5.686 6.531-4.244 3.84-8.319 6.453-13.369 8.59 1.867 1.544 2.503 2.255 3.521 4.115 3.226-1.702 4.627-2.532 6.282-3.64 2.928-1.98 6.027-4.512 8.361-6.887 2.122-2.177 3.437-3.84 4.328-5.543-.042.633-.127 2.652-.127 2.85v.554l.127 11.836v.711c0 1.623-.084 2.693-.254 3.801h5.772c-.128-1.108-.212-2.613-.254-4.553l-.213-18.365h4.371c2.631 0 3.608.04 4.88.158v-4.789c-1.484.238-2.163.278-5.007.278H64.5l-.084-3.208v-.236c0-1.623.043-2.336.17-3.365h-5.602zm111.786.832c.212 1.306.212 1.305.212 4.076l-.17 21.375c0 2.296-.085 3.008-.382 4.076l2.716 3.05c.892-.318 1.401-.477 2.547-.675 6.876-1.227 11.204-2.77 15.448-5.422 3.82-2.375 6.536-5.027 9.464-9.222-1.824-1.425-2.376-1.981-4.03-4.04-2.123 3.84-4.755 6.572-8.659 9.065-3.183 2.058-7.172 3.564-11.586 4.356l.211-22.602c.042-1.94.086-2.93.256-3.998l-6.027-.04zm-14.387.117c1.358 0 2.42.991 2.42 2.258 0 1.227-1.105 2.256-2.42 2.256-1.316 0-2.418-1.029-2.418-2.256 0-1.227 1.102-2.258 2.418-2.258zm-70.28 1.703-3.523 3.918c3.947 2.058 7.427 4.67 10.822 8.035l3.65-4.314c-3.267-2.89-5.898-4.71-10.948-7.639zm25.887 4.037c-1.273 3.207-2.46 5.383-4.328 7.916-3.353 4.513-7.3 7.56-12.605 9.698-3.862 1.583-8.911 2.731-12.56 2.93l1.57 5.462c.976-.316 1.103-.357 2.8-.674 6.578-1.306 11.841-3.246 16.17-5.937 5.814-3.602 9.846-8.272 13.453-15.516-2.164-1.425-2.845-2.018-4.5-3.879z" style="fill:#231f20;fill-opacity:1;fill-rule:nonzero;stroke:none;stroke-width:.08219033"/>
</svg>
