<svg xmlns="http://www.w3.org/2000/svg" width="200" height="128">
	<path d="M125.4 45.157A25.769 25.769 0 0 0 74.813 46.8a25.829 25.829 0 0 0 50.77 9.443c.536.561 1.04 1.091 1.547 1.62.949.991 1.891 1.989 2.854 2.966a.7.7 0 0 1 .184.867c-4.28 10.85-12.024 17.806-23.457 20.226A31.725 31.725 0 1 1 128.7 36.657 31.086 31.086 0 0 1 132.027 50a32.515 32.515 0 0 1-.75 7.871c-.041.185-.1.366-.157.591l-17.844-18.9c-.152.213-.268.365-.374.523-2.508 3.769-5.006 7.544-7.53 11.3a9.706 9.706 0 0 1-1.445 1.767 3.422 3.422 0 0 1-5.21-.143c-1.97-2.048-3.863-4.168-5.79-6.257-.7-.76-1.4-1.52-2.178-2.361L81.675 64.54a21.232 21.232 0 0 1-2.965-5.125 2.345 2.345 0 0 1 .053-1.952c2.6-6.085 5.146-12.19 7.738-18.277a5.472 5.472 0 0 1 1.124-1.827 3.385 3.385 0 0 1 4.723.145c2.922 3.036 5.813 6.1 8.713 9.159a4.608 4.608 0 0 1 .369.529c.212-.255.328-.38.428-.517q4.038-5.569 8.074-11.14a3.583 3.583 0 0 1 5.573-.541c1.649 1.533 3.208 3.166 4.766 4.793 1.614 1.684 3.18 3.413 4.763 5.126a2.1 2.1 0 0 1 .215.351z" fill="#c21f24"/>
	<path d="m94.683 101.981-5.331-7.985H87.68v14.632h1.61V96.797l5.33 7.817h.084l5.33-7.838v11.852h1.651V93.996h-1.672l-5.33 7.985zm12.791.021h7.984v-1.505h-7.984v-4.996h8.925v-1.505h-10.577v14.632h10.682v-1.505h-9.03v-5.121zm11.306-6.48h4.913v13.106h1.672V95.522h4.912v-1.526H118.78v1.526zm26.17 2.863v-.042a4.04 4.04 0 0 0-1.129-2.884 5.768 5.768 0 0 0-4.16-1.459h-6.292v14.632h1.652v-5.686h4.18l4.244 5.686h2.027l-4.494-5.979c2.299-.422 3.972-1.843 3.972-4.268zm-9.929 3.073v-5.936h4.515c2.362 0 3.741 1.087 3.741 2.884v.042c0 1.881-1.567 3.01-3.762 3.01zm13.606-7.462h1.651v14.632h-1.651zm12.667 13.357a5.773 5.773 0 0 1-5.665-6.041v-.042a5.736 5.736 0 0 1 5.665-6 6.357 6.357 0 0 1 4.6 2.007l1.129-1.213a7.614 7.614 0 0 0-5.707-2.32 7.371 7.371 0 0 0-7.4 7.567v.042a7.3 7.3 0 0 0 7.337 7.525 7.616 7.616 0 0 0 5.852-2.571l-1.087-1.066a6.349 6.349 0 0 1-4.724 2.112zm13.94-6.836c-3.219-.689-3.972-1.463-3.972-2.842v-.042c0-1.317 1.213-2.362 3.115-2.362a6.424 6.424 0 0 1 4.223 1.589l.962-1.276a7.636 7.636 0 0 0-5.142-1.8c-2.78 0-4.808 1.693-4.808 3.992v.042c0 2.4 1.547 3.491 4.912 4.222 3.073.649 3.805 1.422 3.805 2.781v.041c0 1.443-1.3 2.488-3.261 2.488a6.967 6.967 0 0 1-5.017-2.07l-1.024 1.213a8.565 8.565 0 0 0 5.973 2.344c2.906 0 5-1.631 5-4.139v-.042c0-2.236-1.5-3.428-4.766-4.139zM27.741 93.105A7.7 7.7 0 0 0 20 100.929v.041a7.571 7.571 0 0 0 7.7 7.782 7.7 7.7 0 0 0 7.74-7.687l.151-.175-.151-.154a7.564 7.564 0 0 0-7.699-7.631zm0 13.408a5.592 5.592 0 1 1 5.276-5.584v.041a5.3 5.3 0 0 1-5.276 5.543zm16.392-13.161h-5.764v15.153h2.362v-5.087h3.134c3.608 0 6.032-2.043 6.032-5.125.003-3.001-2.263-4.941-5.764-4.941zm-.206 7.848h-3.2v-5.609h3.278c2.227 0 3.505 1.007 3.505 2.805.004 1.704-1.404 2.804-3.583 2.804zm10.787.776h7.868v-2.218h-7.868v-4.187h8.794v-2.219H52.351v15.153h11.26v-2.218h-8.897v-4.311zm22.268 2.236-8.537-10.86h-2.07v15.153h2.321V97.377l8.764 11.128h1.844V93.352h-2.322v10.86z"/>
</svg>
