<svg xmlns="http://www.w3.org/2000/svg" viewBox="-14.45 -15.95 829.4 356.4">
	<defs>
		<clipPath id="a" clipPathUnits="userSpaceOnUse">
			<path d="M0 243.78h600.945V0H0z"/>
		</clipPath>
	</defs>
	<path fill="#81bc00" d="M270.909 164.98v-4.686l-4.108 4.424v-10.446h-3.095v10.396l-4.061-4.374v4.686l5.638 6.066z"/>
	<path fill="#81bc00" d="m237.886 239.802 3.317-3.323-6.032.219 7.388-7.376-2.192-2.2-7.345 7.345.212-5.976-3.32 3.332-.301 8.285z"/>
	<path fill="#81bc00" d="M161.636 269.345h4.692l-4.426-4.118h10.448v-3.099l-10.388-.005 4.372-4.059h-4.698l-6.066 5.645z"/>
	<path fill="#81bc00" d="m86.833 236.312 3.315 3.318-.226-6.027 7.387 7.387 2.19-2.196-7.337-7.351 5.96.212-3.325-3.317-8.273-.296z"/>
	<path fill="#81bc00" d="M57.29 160.062v4.696l4.103-4.434v10.455l3.106-.01v-10.38l4.065 4.369-.007-4.696-5.638-6.07z"/>
	<path fill="#81bc00" d="m90.313 85.254-3.317 3.317 6.036-.217-7.394 7.37 2.198 2.195 7.35-7.336-.218 5.972 3.317-3.332.304-8.281z"/>
	<path fill="#81bc00" d="M166.564 55.707h-4.695l4.43 4.118H155.85l.008 3.096 10.379.009-4.368 4.053h4.695l6.073-5.64z"/>
	<path fill="#81bc00" d="m241.373 88.74-3.32-3.323.222 6.036-7.382-7.386-2.188 2.19 7.341 7.352-5.975-.212 3.327 3.317 8.285.305z"/>
	<path fill="#81bc00" d="m267.907 137.262-1.21-4.534-2.828 5.34-2.698-10.09-2.996.805 2.688 10.036-5.056-3.179 1.212 4.54 7.022 4.408z"/>
	<path fill="#81bc00" d="m255.373 218.064 2.345-4.064-5.773 1.78 5.222-9.041-2.681-1.548-5.196 8.988-1.332-5.815-2.347 4.064 1.844 8.074z"/>
	<path fill="#81bc00" d="m189.366 266.33 4.526-1.197-5.331-2.833 10.092-2.699-.803-2.991-10.038 2.67 3.173-5.053-4.533 1.221-4.404 7.02z"/>
	<path fill="#81bc00" d="m108.553 253.803 4.073 2.328-1.78-5.755 9.046 5.222 1.549-2.695-8.995-5.196 5.819-1.33-4.073-2.347-8.074 1.853z"/>
	<path fill="#81bc00" d="m60.285 187.79 1.216 4.528 2.826-5.339 2.698 10.095 2.996-.806-2.684-10.026 5.055 3.154-1.219-4.524-7.01-4.409z"/>
	<path fill="#81bc00" d="m72.826 106.977-2.348 4.078 5.772-1.785-5.22 9.047 2.686 1.542 5.196-8.981 1.337 5.813 2.336-4.073-1.841-8.073z"/>
	<path fill="#81bc00" d="m138.834 58.707-4.533 1.231 5.339 2.819-10.09 2.693.806 2.996 10.033-2.679-3.173 5.058 4.54-1.222 4.402-7.014z"/>
	<path fill="#81bc00" d="m219.643 71.254-4.068-2.348 1.784 5.779-9.052-5.226-1.537 2.684 8.983 5.202-5.819 1.325 4.07 2.352 8.077-1.848z"/>
	<path fill="#81bc00" d="m257.838 111.247-2.356-4.058-1.34 5.888-5.22-9.047-2.687 1.552 5.191 8.997-5.703-1.754 2.351 4.064 7.923 2.446z"/>
	<path fill="#81bc00" d="m266.635 192.556 1.211-4.538-5.104 3.209 2.692-10.085-2.981-.796-2.696 10.021-2.796-5.276-1.214 4.553 3.88 7.312z"/>
	<path fill="#81bc00" d="m215.373 256.254 4.066-2.348-5.89-1.335 9.05-5.225-1.55-2.675-9.003 5.176 1.757-5.695-4.06 2.343-2.444 7.92z"/>
	<path fill="#81bc00" d="m134.074 265.073 4.534 1.202-3.214-5.118 10.088 2.706.803-2.992-10.03-2.699 5.274-2.788-4.536-1.216-7.321 3.886z"/>
	<path fill="#81bc00" d="m70.36 213.794 2.353 4.068 1.344-5.883 5.216 9.032 2.69-1.543-5.194-8.986 5.708 1.754-2.353-4.078-7.915-2.432z"/>
	<path fill="#81bc00" d="m61.567 132.506-1.216 4.533 5.112-3.213-2.704 10.085 2.994.805 2.69-10.03 2.798 5.265 1.201-4.539-3.865-7.312z"/>
	<path fill="#81bc00" d="m112.824 68.793-4.056 2.353 5.888 1.34-9.055 5.22 1.557 2.68 8.991-5.187-1.756 5.71 4.07-2.358 2.438-7.92z"/>
	<path fill="#81bc00" d="M310 171.2h7.12l-6.7-6.218h15.82v-4.698h-15.75l6.63-6.169h-7.122l-9.205 8.543z"/>
	<path fill="#81bc00" d="m261.127 271.821 5.035 5.038-.336-9.156 11.19 11.208 3.318-3.327-11.136-11.13 9.044.322-5.035-5.037-12.549-.46z"/>
	<path fill="#81bc00" d="M155.42 308.4v7.133l6.224-6.708v15.84h4.697v-15.77l6.164 6.638V308.4l-8.55-9.185z"/>
	<path fill="#81bc00" d="m54.8 259.532-5.037 5.037 9.138-.32L47.72 275.43l3.317 3.322 11.147-11.148-.338 9.056 5.035-5.032.457-12.562z"/>
	<path fill="#81bc00" d="M18.21 153.832h-7.123l6.701 6.224H1.964v4.702h15.757l-6.634 6.174h7.118l9.196-8.557z"/>
	<path fill="#81bc00" d="m67.078 53.22-5.034-5.029.339 9.131-11.188-11.181-3.327 3.312L59.01 60.59l-9.044-.325 5.029 5.026 12.55.466z"/>
	<path fill="#81bc00" d="M161.858.377v15.761l-6.161-6.63v7.118l8.553 9.2 8.535-9.2V9.507l-6.23 6.704V.377z"/>
	<path fill="#81bc00" d="m273.4 65.494 5.037-5.043-9.146.351 11.203-11.207-3.332-3.308-11.144 11.139.332-9.047-5.033 5.038-.455 12.552z"/>
	<path fill="#81bc00" d="m307.271 133.147 6.876-1.844-8.074-4.276 15.273-4.108-1.208-4.524-15.223 4.074 4.806-7.663-6.868 1.84-6.672 10.633z"/>
	<path fill="#81bc00" d="m286.11 242.99 6.165 3.56-2.688-8.746 13.71 7.906 2.336-4.064-13.635-7.875 8.817-2.017-6.172-3.564-12.23 2.808z"/>
	<path fill="#81bc00" d="m193.472 305.69 1.844 6.877 4.284-8.068 4.1 15.272 4.529-1.212-4.084-15.23 7.677 4.819-1.835-6.883-10.653-6.673z"/>
	<path fill="#81bc00" d="m83.64 284.517-3.562 6.16 8.738-2.684-7.915 13.703 4.068 2.359 7.885-13.644 2.024 8.818 3.558-6.154-2.803-12.24z"/>
	<path fill="#81bc00" d="m20.932 191.888-6.87 1.839 8.078 4.287-15.285 4.098 1.214 4.538 15.219-4.088-4.816 7.682 6.88-1.844 6.67-10.644z"/>
	<path fill="#81bc00" d="m42.093 82.051-6.16-3.56 2.69 8.742-13.703-7.915-2.353 4.077 13.64 7.876-8.816 2.022 6.16 3.56 12.236-2.808z"/>
	<path fill="#81bc00" d="m134.729 19.346-1.847-6.872-4.276 8.083-4.088-15.29-4.544 1.226 4.079 15.21-7.672-4.8 1.839 6.872 10.638 6.664z"/>
	<path fill="#81bc00" d="m244.574 40.51 3.56-6.16-8.75 2.7 7.92-13.719-4.077-2.353-7.87 13.644-2.02-8.82-3.57 6.175 2.808 12.236z"/>
	<path fill="#81bc00" d="m294.785 97.09 6.169-3.56-8.903-2.036 13.69-7.92-2.332-4.064-13.655 7.876 2.655-8.643-6.167 3.546-3.685 12.008z"/>
	<path fill="#81bc00" d="m302.77 208.662 6.881 1.844-4.858-7.747 15.292 4.093 1.212-4.538-15.218-4.079 7.998-4.23-6.878-1.84-11.093 5.878z"/>
	<path fill="#81bc00" d="m229.53 293.203 3.564 6.174 2.035-8.924 7.917 13.704 4.059-2.353-7.875-13.644 8.656 2.675-3.557-6.175-12.003-3.683z"/>
	<path fill="#81bc00" d="m117.962 301.187-1.852 6.881 7.748-4.85-4.097 15.277 4.536 1.221 4.079-15.217 4.24 7.989 1.844-6.867-5.876-11.109z"/>
	<path fill="#81bc00" d="m33.413 227.943-6.164 3.57 8.915 2.046-13.705 7.905 2.342 4.063 13.647-7.875-2.664 8.636 6.172-3.538 3.693-12.004z"/>
	<path fill="#81bc00" d="m25.423 116.365-6.872-1.824 4.854 7.74-15.277-4.102-1.217 4.548 15.214 4.068-8.001 4.227 6.879 1.858 11.093-5.877z"/>
	<path fill="#81bc00" d="m98.676 31.827-3.559-6.154-2.045 8.908-7.91-13.708-4.073 2.348 7.883 13.644-8.659-2.65 3.564 6.155 12.005 3.697z"/>
	<path fill="#81bc00" d="m210.246 23.845 1.841-6.872-7.738 4.86 4.1-15.3-4.548-1.207-4.085 15.216-4.235-7.999-1.841 6.878 5.882 11.102z"/>
	<path fill="#81bc00" d="m243.54 147.658-3.734.494 3.947 2.803-8.28 1.083.314 2.466 8.246-1.086-3.048 3.672 3.733-.484 4.227-5.102z"/>
	<path fill="#81bc00" d="m279.55 144.547.761 5.808 4.366-6.15 1.705 12.938 3.844-.499-1.69-12.878 5.746 4.756-.767-5.819-7.976-6.615z"/>
	<path fill="#81bc00" d="m230.786 208.187-2.984-2.299.801 4.771-6.626-5.087-1.516 1.967 6.602 5.063-4.756.454 2.98 2.279 6.596-.617z"/>
	<path fill="#81bc00" d="m258.449 231.443-3.572 4.643 7.436-1.247-7.935 10.343 3.063 2.368 7.904-10.314.708 7.442 3.576-4.658-.974-10.302z"/>
	<path fill="#81bc00" d="m178.962 241.967-.49-3.737-2.798 3.95-1.092-8.301-2.457.33 1.088 8.253-3.683-3.056.49 3.733 5.104 4.212z"/>
	<path fill="#81bc00" d="m182.082 277.956-5.813.77 6.155 4.366-12.948 1.71.509 3.827 12.881-1.69-4.761 5.764 5.813-.782 6.612-7.964z"/>
	<path fill="#81bc00" d="m118.442 229.198 2.284-2.982-4.76.816 5.082-6.63-1.963-1.522-5.065 6.606-.447-4.752-2.29 2.976.625 6.59z"/>
	<path fill="#81bc00" d="m95.182 256.872-4.649-3.574 1.257 7.435-10.356-7.94-2.353 3.066 10.305 7.91-7.44.702 4.656 3.57 10.315-.965z"/>
	<path fill="#81bc00" d="m84.67 177.394 3.723-.5-3.94-2.792 8.288-1.108-.33-2.438-8.245 1.083 3.046-3.677-3.726.478-4.217 5.107z"/>
	<path fill="#81bc00" d="m48.661 180.507-.764-5.813-4.374 6.149-1.706-12.937-3.832.504 1.69 12.873-5.751-4.76.772 5.823 7.97 6.614z"/>
	<path fill="#81bc00" d="m97.422 116.869 2.988 2.274-.814-4.752 6.63 5.078 1.508-1.963-6.598-5.061 4.76-.44-2.983-2.295-6.585.624z"/>
	<path fill="#81bc00" d="m69.757 93.605 3.572-4.652-7.442 1.27 7.943-10.372-3.066-2.338L62.86 87.82l-.714-7.451-3.564 4.663.956 10.317z"/>
	<path fill="#81bc00" d="m149.236 83.089.497 3.728 2.793-3.946 1.092 8.28 2.455-.321-1.077-8.245 3.672 3.045-.49-3.717-5.096-4.212z"/>
	<path fill="#81bc00" d="m146.122 47.09 5.819-.767-6.163-4.38 12.943-1.694-.501-3.832-12.876 1.685 4.76-5.764-5.82.781-6.611 7.959z"/>
	<path fill="#81bc00" d="m209.76 95.843-2.287 2.99 4.761-.81-5.075 6.62 1.958 1.512 5.072-6.594.437 4.756 2.292-2.986-.619-6.585z"/>
	<path fill="#81bc00" d="m233.02 68.18 4.653 3.574-1.268-7.44 10.364 7.944 2.348-3.065-10.307-7.91 7.447-.712-4.67-3.56-10.302.95z"/>
	<path fill="#81bc00" d="m236.989 127.606-3.479 1.438 4.532 1.671-7.717 3.213.941 2.295 7.69-3.193-1.997 4.354 3.47-1.448 2.772-6.012z"/>
	<path fill="#81bc00" d="m270.963 115.287 2.244 5.414 2.623-7.075 4.996 12.053 3.575-1.478-4.974-11.994 6.787 3.09-2.241-5.412-9.4-4.316z"/>
	<path fill="#81bc00" d="m240.325 189.367-3.47-1.428 2.008 4.38-7.72-3.204-.945 2.308 7.683 3.18-4.482 1.66 3.472 1.435 6.22-2.31z"/>
	<path fill="#81bc00" d="m273.071 204.663-2.241 5.423 6.856-3.134-4.99 12.058 3.566 1.473 4.973-11.993 2.602 6.994 2.244-5.402-3.596-9.73z"/>
	<path fill="#81bc00" d="m199.016 235.412-1.446-3.48-1.67 4.534-3.2-7.723-2.296.944 3.18 7.688-4.338-1.983 1.438 3.47 6.018 2.76z"/>
	<path fill="#81bc00" d="m211.346 269.39-5.416 2.225 7.072 2.63-12.06 4.992 1.476 3.584 12.005-4.973-3.106 6.788 5.41-2.235 4.331-9.422z"/>
	<path fill="#81bc00" d="m137.258 238.744 1.434-3.47-4.392 2.022 3.196-7.737-2.284-.935-3.187 7.678-1.668-4.474-1.43 3.476 2.303 6.199z"/>
	<path fill="#81bc00" d="m121.945 271.485-5.41-2.244 3.14 6.867-12.062-4.993-1.48 3.573 12.003 4.964-7 2.605 5.421 2.25 9.713-3.604z"/>
	<path fill="#81bc00" d="m91.216 197.435 3.477-1.444-4.53-1.675 7.714-3.2-.944-2.282-7.68 3.168 1.985-4.316-3.468 1.424-2.76 6.012z"/>
	<path fill="#81bc00" d="M57.248 209.77 55 204.347l-2.62 7.079-5.004-12.063-3.576 1.493 4.97 11.994-6.787-3.115 2.245 5.424 9.415 4.315z"/>
	<path fill="#81bc00" d="m87.876 135.68 3.48 1.44-2.024-4.392 7.721 3.184.947-2.284-7.687-3.178 4.484-1.666-3.468-1.438-6.201 2.304z"/>
	<path fill="#81bc00" d="m55.141 120.374 2.24-5.428-6.862 3.159 4.996-12.072-3.575-1.468-4.968 11.997-2.615-6.995-2.23 5.419 3.594 9.704z"/>
	<path fill="#81bc00" d="m129.182 89.634 1.448 3.48 1.676-4.523 3.204 7.716 2.284-.953-3.184-7.683 4.343 1.992-1.436-3.465-6.013-2.768z"/>
	<path fill="#81bc00" d="m116.858 55.671 5.422-2.249-7.08-2.62 12.057-5.003-1.477-3.569-11.996 4.968 3.1-6.803-5.422 2.259-4.318 9.408z"/>
	<path fill="#81bc00" d="m190.948 86.307-1.436 3.466 4.392-2.018-3.191 7.718 2.284.954 3.19-7.682 1.662 4.478 1.424-3.465-2.292-6.215z"/>
	<path fill="#81bc00" d="m206.255 53.56 5.411 2.25-3.139-6.867 12.058 4.988 1.476-3.569-11.996-4.963 7.005-2.625-5.427-2.23-9.706 3.6z"/>
	<path fill="#81bc00" d="m225.462 109.923-2.979 2.304 4.815.455-6.641 5.092 1.516 1.968 6.598-5.077-.798 4.696 2.99-2.28 1.094-6.515z"/>
	<path fill="#81bc00" d="m255.08 89.229 3.583 4.657.706-7.51 7.946 10.347 3.075-2.348-7.915-10.297 7.359 1.23-3.567-4.651-10.212-1.735z"/>
	<path fill="#81bc00" d="m244.678 168.723-3.72-.48 3.075 3.713-8.288-1.097-.322 2.476 8.248 1.079-3.892 2.773 3.72.473 5.4-3.82z"/>
	<path fill="#81bc00" d="m280.26 175.031-.757 5.813 5.811-4.8-1.7 12.928 3.83.51 1.691-12.884 4.326 6.086.769-5.804-5.987-8.453z"/>
	<path fill="#81bc00" d="m216.693 223.894-2.299-2.987-.443 4.805-5.094-6.624-1.966 1.503 5.074 6.605-4.716-.801 2.288 2.981 6.525 1.103z"/>
	<path fill="#81bc00" d="m237.386 253.51-4.645 3.576 7.508.7-10.355 7.95 2.365 3.075 10.298-7.91-1.24 7.351 4.656-3.564 1.73-10.222z"/>
	<path fill="#81bc00" d="m157.897 243.099.49-3.728-3.723 3.09 1.09-8.29-2.457-.316-1.088 8.236-2.765-3.881-.492 3.713 3.836 5.393z"/>
	<path fill="#81bc00" d="m151.586 278.673-5.812-.756 4.811 5.804-12.94-1.68-.501 3.815 12.873 1.701-6.084 4.34 5.815.752 8.453-5.982z"/>
	<path fill="#81bc00" d="m102.741 215.108 2.976-2.293-4.8-.43 6.621-5.107-1.509-1.958-6.596 5.067.795-4.716-2.978 2.279-1.104 6.536z"/>
	<path fill="#81bc00" d="m73.117 235.814-3.572-4.658-.712 7.53-7.944-10.372-3.065 2.364 7.908 10.302-7.37-1.25 3.58 4.656 10.202 1.745z"/>
	<path fill="#81bc00" d="m83.525 156.324 3.732.484-3.092-3.717 8.281 1.079.328-2.443-8.248-1.083 3.898-2.778-3.724-.479-5.392 3.825z"/>
	<path fill="#81bc00" d="m47.947 150.02.756-5.818-5.808 4.82 1.696-12.943-3.827-.51-1.699 12.874-4.337-6.09-.752 5.823 5.981 8.444z"/>
	<path fill="#81bc00" d="m111.512 101.163 2.294 2.976.442-4.814 5.094 6.629 1.958-1.513-5.062-6.586 4.716.792-2.278-2.981-6.536-1.097z"/>
	<path fill="#81bc00" d="m90.808 71.54 4.657-3.563-7.517-.712 10.354-7.95-2.356-3.06-10.297 7.89 1.23-7.366-4.638 3.584-1.75 10.199z"/>
	<path fill="#81bc00" d="m170.306 81.947-.492 3.723 3.72-3.085-1.088 8.29 2.458.327 1.085-8.241 2.77 3.885.486-3.727-3.827-5.389z"/>
	<path fill="#81bc00" d="m176.62 46.358 5.808.77-4.811-5.807 12.943 1.69.492-3.826-12.867-1.7 6.079-4.33-5.814-.762-8.444 5.992z"/>
	<path fill="#81bc00" d="m194.122 59.993-4.53-1.216 3.216 5.112-10.091-2.704-.8 2.994 10.03 2.7-5.28 2.788 4.537 1.216 7.325-3.88z"/>
	<g clip-path="url(#a)" fill="#54575a" transform="matrix(1.33333 0 0 -1.33333 0 325.04)">
		<path d="M319.042 157.402c3.765 0 6.544.817 6.544 5.068v24.886c0 4.25-2.779 5.068-6.544 5.068h-20.29c-3.769 0-6.549-.818-6.549-5.068V162.47c0-4.251 2.78-5.068 6.549-5.068zm-42.229 29.622c0 13.102 4.741 20.127 18.496 20.127h26.998c13.587 0 18.496-7.025 18.496-20.127v-24.223c0-13.087-4.74-20.126-18.496-20.126h-26.998c-13.755 0-18.496 7.039-18.496 20.126z"/>
		<path d="M407.895 182.28c3.928 0 7.034.649 7.034 5.077 0 4.251-2.943 5.068-6.703 5.068h-26.025V182.28zm-40.912 21.761c0 1.808 1.64 3.111 3.433 3.111h41.239c13.756 0 18.496-7.025 18.496-20.127 0-12.606-5.39-19.477-18.496-19.477h-29.454v-21.434c0-1.803-1.472-3.438-3.27-3.438h-8.678c-1.803 0-3.27 1.635-3.27 3.438z"/>
		<path d="M451.814 204.04c0 1.808 1.639 3.111 3.433 3.111h51.72c1.803 0 3.438-1.303 3.438-3.111v-8.337c0-1.798-1.635-3.279-3.438-3.279h-39.935v-10.145h25.698c1.803 0 3.438-1.481 3.438-3.27v-8.356c0-1.798-1.635-3.106-3.438-3.106h-25.698v-10.145h39.776c1.798 0 3.438-1.481 3.438-3.279v-8.337c0-1.808-1.64-3.111-3.438-3.111h-51.724c-1.794 0-3.27 1.635-3.27 3.438z"/>
		<path d="M535.482 204.04c0 1.808 1.64 3.111 3.428 3.111h42.07c13.747 0 18.492-7.025 18.492-20.127v-40.911c0-1.803-1.466-3.438-3.428-3.438h-8.515c-1.967 0-3.279 1.635-3.279 3.438v41.243c0 4.25-2.938 5.068-6.539 5.068h-27.002v-46.311c0-1.803-1.481-3.438-3.284-3.438h-8.678c-1.794 0-3.265 1.635-3.265 3.438z"/>
		<path d="M292.418 89.272c-10.405 0-15.605 6.639-15.605 19.257 0 13.334 6.196 19.143 15.823 19.143 3.102 0 6.643-.661 8.744-1.88-.166-.942-.554-1.994-.941-2.877-2.212 1.271-4.923 1.935-7.858 1.935-8.353 0-12.393-4.371-12.393-16.543 0-10.9 3.652-16.214 12.175-16.214 3.098 0 5.974.665 8.796 2.437.387-.886.72-1.828.941-2.88-2.71-1.658-6.362-2.378-9.682-2.378"/>
		<path d="M320.031 116.549c-4.759 0-8.688-2.323-8.688-12.282 0-9.572 3.264-12.285 8.522-12.285 5.255 0 8.741 2.658 8.741 12.285 0 9.461-3.431 12.282-8.575 12.282m-.221-27.277c-7.083 0-11.621 4.261-11.621 14.995 0 9.738 4.815 14.996 11.842 14.996 6.806 0 11.729-3.929 11.729-14.996 0-10.402-5.145-14.995-11.95-14.995"/>
		<path d="M374.205 89.825v21.081c0 3.265-1.658 5.532-5.532 5.532-3.319 0-5.258-.993-7.802-3.043v-23.57h-2.932v21.081c0 3.265-1.828 5.532-5.702 5.532-2.821 0-5.088-.993-7.58-2.932V89.825h-2.932v28.718c.664.166 2.159.277 2.932.277v-2.822h.166c2.603 2.323 4.759 3.265 7.858 3.265 2.987 0 5.756-1.108 7.082-4.04 3.154 2.821 5.975 4.04 9.353 4.04 4.258 0 8.021-1.883 8.021-8.578v-20.86z"/>
		<path d="M399.998 116.494c-2.877 0-5.532-.994-8.024-2.766V93.311c2.049-.941 4.372-1.329 6.311-1.329 6.14 0 9.349 3.32 9.349 12.729 0 9.405-2.932 11.783-7.636 11.783m-1.935-27.222c-2.105 0-4.151.443-6.089 1.218V78.426h-2.932v40.117c.665.166 2.16.277 2.932.277v-2.6h.166c2.936 2.323 5.48 3.043 8.578 3.043 5.809 0 10.07-3.818 10.07-14.109 0-11.289-4.759-15.882-12.725-15.882"/>
		<path d="M437.629 89.825v2.489h-.166c-2.935-1.935-5.701-3.043-9.187-3.043-4.261 0-7.803 1.883-7.803 8.523v20.749c.72.166 2.16.277 2.936.277V97.628c0-3.265 1.436-5.536 5.31-5.536 3.597 0 6.307 1.108 8.91 2.77v23.681c.661.166 2.157.277 2.932.277V89.825z"/>
		<path d="M460.925 89.272c-5.314 0-7.082 2.766-7.082 8.522v18.427h-3.597v2.489h3.597v6.417c.609.277 2.212.554 2.932.554v-6.971h7.137c0-.776-.11-1.773-.221-2.489h-6.916V97.518c0-4.096.996-5.425 4.039-5.425 1.33 0 2.988.332 4.262.886.276-.775.498-1.88.498-2.766-1.44-.664-3.098-.941-4.649-.941"/>
		<path d="M474.263 106.7h15.051c.055.498.055 1.44.055 1.883 0 5.919-2.821 8.187-7.193 8.187-4.649 0-7.636-2.877-7.913-10.07m17.872-2.323h-17.927v-.332c0-7.969 2.267-12.008 9.46-12.008 2.659 0 5.425.83 7.027 1.882.388-.775.776-1.827.942-2.655-1.935-1.273-5.2-1.993-8.135-1.993-8.187 0-12.392 4.648-12.392 14.608 0 11.122 4.925 15.383 11.177 15.383 6.141 0 9.959-3.652 9.959-10.845 0-1.219-.055-2.711-.111-4.04"/>
		<path d="M460.521 64.844h1.689c.335 0 .661.011.981.033.319.024.605.088.855.195.251.106.448.266.593.479.144.214.217.516.217.912 0 .336-.065.605-.193.811a1.29 1.29 0 0 1-.515.468 2.135 2.135 0 0 1-.718.204c-.265.03-.529.046-.787.046h-2.122zm-1.368 4.379h3.605c1.186 0 2.061-.224 2.623-.672.563-.449.843-1.167.843-2.155 0-.884-.251-1.53-.752-1.94-.501-.41-1.118-.654-1.847-.73l2.827-4.334h-1.481l-2.692 4.219h-1.758v-4.219h-1.368zm-4.016-4.904c0-1.02.188-1.966.561-2.839a7.031 7.031 0 0 1 1.539-2.281 7.315 7.315 0 0 1 2.282-1.53 7.056 7.056 0 0 1 2.805-.559c1.004 0 1.94.188 2.806.559a7.224 7.224 0 0 1 2.28 1.541c.656.653 1.168 1.426 1.541 2.315s.559 1.851.559 2.887a7.256 7.256 0 0 1-.559 2.851 7 7 0 0 1-1.541 2.291 7.128 7.128 0 0 1-5.086 2.066 7.022 7.022 0 0 1-2.805-.561 7.31 7.31 0 0 1-2.282-1.528 6.99 6.99 0 0 1-1.539-2.303c-.373-.89-.561-1.859-.561-2.909m-1.368 0c0 1.217.229 2.346.685 3.388a8.545 8.545 0 0 0 1.847 2.703 8.563 8.563 0 0 0 6.023 2.441 8.507 8.507 0 0 0 3.297-.65 8.648 8.648 0 0 0 2.725-1.78 8.464 8.464 0 0 0 1.849-2.668c.455-1.027.683-2.14.683-3.341 0-1.218-.228-2.347-.683-3.389a8.535 8.535 0 0 0-1.849-2.702 8.51 8.51 0 0 0-2.725-1.792 8.525 8.525 0 0 0-3.297-.65 8.493 8.493 0 0 0-3.308.65 8.667 8.667 0 0 0-2.715 1.779 8.474 8.474 0 0 0-1.847 2.669c-.456 1.027-.685 2.141-.685 3.342"/>
		<path d="M288.717 70.738c-1.329 0-3.596-.166-6.255-.443v-16.82h5.314c5.808 0 9.959 2.323 9.959 8.688 0 6.64-4.262 8.575-9.018 8.575m-.277-19.918h-5.978V35.658h-3.098v36.908c4.206.55 6.144.772 9.298.772 6.417 0 12.337-2.932 12.337-11.175 0-7.802-5.975-11.343-12.559-11.343"/>
		<path d="M322.97 61.776c-.609.166-1.385.277-2.437.277-1.935 0-4.037-.277-7.193-3.984V35.658h-2.932v28.718c.664.166 2.16.277 2.932.277v-3.652h.166c3.486 3.762 5.646 4.095 7.415 4.095.664 0 1.717-.056 2.381-.277 0-.831-.166-2.16-.332-3.043"/>
		<path d="M340.68 62.382c-4.76 0-8.689-2.323-8.689-12.282 0-9.572 3.265-12.285 8.523-12.285 5.254 0 8.74 2.658 8.74 12.285 0 9.461-3.43 12.282-8.574 12.282m-.222-27.277c-7.082 0-11.62 4.261-11.62 14.995 0 9.738 4.815 14.996 11.842 14.996 6.805 0 11.728-3.929 11.728-14.996 0-10.402-5.144-14.995-11.95-14.995"/>
		<path d="M363.813 70.905c-1.218 0-1.883.886-1.883 2.046 0 1.163.665 2.105 1.938 2.105 1.219 0 1.88-.942 1.88-2.105 0-1.215-.661-2.046-1.935-2.046m-6.529-47.199c-.277.775-.498 2.049-.498 2.824 4.15.329 5.587 2.489 5.587 6.363v31.65h2.932V32.948c0-4.76-2.323-8.688-8.021-9.242"/>
		<path d="M378.366 52.534h15.051c.056.498.056 1.44.056 1.883 0 5.919-2.821 8.187-7.194 8.187-4.649 0-7.636-2.877-7.913-10.07m17.873-2.323h-17.928v-.332c0-7.969 2.267-12.008 9.461-12.008 2.658 0 5.424.83 7.026 1.882.388-.775.776-1.827.942-2.655-1.935-1.273-5.2-1.993-8.135-1.993-8.187 0-12.393 4.648-12.393 14.608 0 11.122 4.926 15.383 11.178 15.383 6.141 0 9.959-3.652 9.959-10.845 0-1.219-.055-2.711-.11-4.04"/>
		<path d="M416.05 35.105c-8.298 0-12.282 4.981-12.282 14.497 0 11.178 5.2 15.494 11.676 15.494 1.991 0 5.255-.387 7.304-1.273-.055-.831-.277-1.991-.609-2.822-2.16.942-4.427 1.326-6.639 1.326-5.093 0-8.578-2.821-8.578-11.617 0-10.015 3.042-12.839 9.073-12.839 2.326 0 5.036.554 6.864 1.772.329-.72.661-1.828.772-2.711-2.101-1.329-5.532-1.827-7.581-1.827"/>
		<path d="M440.675 35.105c-5.314 0-7.083 2.766-7.083 8.522v18.427h-3.596v2.489h3.596v6.417c.609.277 2.212.554 2.932.554v-6.971h7.138c0-.776-.11-1.773-.221-2.489h-6.917V43.351c0-4.096.997-5.425 4.04-5.425 1.329 0 2.988.332 4.261.886.277-.775.499-1.88.499-2.766-1.44-.664-3.098-.941-4.649-.941"/>
	</g>
</svg>
