<svg xmlns="http://www.w3.org/2000/svg" viewBox="0 0 182.38 200.55">
	<g data-name="Layer 2">
		<path d="M151.15 142.77c-5.57-.92-11.38-2.86-19.12-6.36l-7.4-3.35-6.13 1.88a206.8 206.8 0 0 1-28.67 6.19c-7.64 1.16-11.21 1.33-28.86 1.35-17 0-20.87-.14-24.87-1-13.82-3.08-20.4-8-21.28-15.82-1-8.54 5.86-17.55 22-29 3.91-2.78 5.68-4.44 5.93-5.53 6.85-30.31 21.26-61.37 37-79.72 10.87-12.68 23-14.95 30.1-5.61 3.89 5.12 7.1 16.93 8 29.44l.43 6 5.7 5.49c23.52 22.63 45.6 58 48.28 77.4 1.45 10.45-2.32 17.18-10.53 18.77-4 .77-5.81.77-10.57 0Zm-67.93-9.25c11.71-1.38 30.07-5.17 30-6.21 0-.23-3.81-2.6-8.45-5.25a122.69 122.69 0 0 1-11.62-7.39c-1.75-1.41-3.6-2.56-4.11-2.56s-2.92 1.55-5.35 3.43c-9 7-18.89 12.21-25 13.2-10.3 1.65-17.52-6.16-17.69-19.15a29.25 29.25 0 0 0-.31-4.87c-.45-.82-5.78 3.34-11 8.62-5.77 5.79-7.88 9.67-6.69 12.3 2 4.3 11.78 7.79 25.38 9 5.4.51 26.94-.19 34.84-1.12Zm79.17.06c1.56-1.34 1.68-1.77 1.62-5.58-.15-9.64-6.36-24-18-41.6-7.84-11.85-24.62-32.18-26.57-32.18-.57 0-.76 2.68-.79 11.31 0 6.22-.25 12.6-.51 14.18-.31 1.89-.25 3.05.19 3.4a65.85 65.85 0 0 0 6.37 3c10.63 4.53 19.26 10 22.53 14.32q10.31 13.56-6.76 25c-2.56 1.71-4.74 3.2-4.85 3.3-.33.32 4.71 2.41 9.83 4.08 6.27 2 6.52 2.09 11.23 2.18 3.45.06 4.27-.14 5.71-1.39Zm-31-12.51c6.21-3.12 11.39-7.89 11.38-10.5 0-3.77-4.08-7.95-12.07-12.36-4.87-2.69-12.27-6-13.43-6-.43 0-1.39 2.65-2.32 6.43a62.47 62.47 0 0 1-4 11.17l-2.39 4.73 1.32.85c3.88 2.5 14.66 8.18 15.51 8.18a30.33 30.33 0 0 0 6-2.5ZM62 119c4.46-1.68 9.84-4.89 16-9.51l4-3-6.14-6.39c-3.38-3.51-6.82-7.68-7.64-9.25-1-1.93-1.79-2.76-2.37-2.53-2.69 1-15.13 8.93-15.68 10-.36.67-.67 4.39-.7 8.28-.1 13.2 2.85 16.14 12.52 12.49Zm40.74-11.6c1.59-2.43 4.83-11.53 4.3-12.06s-10 9-10 10.15c0 .87 3.12 4.17 3.95 4.17a10.87 10.87 0 0 0 1.72-2.22Zm-1.73-21c-2.88-1.2-10.48-3-10.91-2.52s2 10.7 2.93 11.79c.55.67 1.56-.08 5.22-3.85l4.54-4.68Zm-17.19 9.11c0-1.79-3.33-12.94-3.93-13.17a6.75 6.75 0 0 0-2.94.29c-2.76.77-2.84 2.4-.27 6 3.16 4.5 7.14 8.31 7.14 6.88ZM61.34 81.15 70.29 76A41.85 41.85 0 0 1 75 74l3.54-1.28-.4-4C76 47.06 76.81 39 81.8 33.17q7.88-9.23 22.44-1.52a31 31 0 0 0 4.36 2.06c1.28 0-.35-10.48-2.72-17.47-1.44-4.24-4.88-8.47-6.82-8.47-2.67 0-7.49 3.21-11.95 8-12.69 13.5-26.19 40.55-34.33 68.75-.17.58-.05 1.06.26 1.06a88.1 88.1 0 0 0 8.3-4.43ZM109 78.49a15 15 0 0 0 .94-2.72c.58-2.43-1.64-3.18-6.84-2.31-4.69.78-8.63 1.85-8.25 2.24a130 130 0 0 0 12.89 3.81c.4 0 1-.43 1.27-1ZM95.24 66.58a53.77 53.77 0 0 1 10.22-1.75l4.51-.16.17-8.69a94 94 0 0 0-.13-9.9c-.56-2.26-10.89-8.39-15.63-9.28-5.39-1-7.64 1.52-8.8 9.9-.61 4.4 0 17.72 1 21 .42 1.23-.06 1.3 8.66-1.12Zm-59 133.62c-.35-.91 0-1.38 1.39-1.72 2.4-.62 2.24.42 2.32-14.29.07-12.68.06-13.07-.47-13.6a3.45 3.45 0 0 0-1.6-.72c-1.63-.27-1.75-.35-1.75-1.06 0-1.14.13-1.18 7.28-2.06 1.27-.16 1.87.28 1.87 1.36 0 .44.06.8.14.8a8 8 0 0 0 1.27-.82 8.92 8.92 0 0 1 6.31-1.66 7.54 7.54 0 0 1 4.15 1.06c3 1.6 4.66 4.11 5.51 8.25 1.1 5.44-1.3 11-5.79 13.47-1.71.93-1.84 1-4.94 1-2.9 0-3.34-.07-4.82-.76-.9-.42-1.67-.76-1.73-.76a36.62 36.62 0 0 0-.11 3.91c0 4.7.23 5.37 2 5.83s1.91.5 1.82 1.32l-.09.77-6.31.07c-5.33.06-6.34 0-6.47-.33ZM53.6 187c2.42-1.24 3.9-4.39 3.9-8.32s-1.21-7-3.23-8.57a4.24 4.24 0 0 0-2.86-.87 5.63 5.63 0 0 0-5.07 2.1l-1 1.08.07 6.65.07 6.65 1.76.91a7.23 7.23 0 0 0 6.41.36Zm-41.24 3a16.24 16.24 0 0 1-6.95-3.78 16.19 16.19 0 0 1-4.58-7.05 12.58 12.58 0 0 1-.84-5.3 15.93 15.93 0 0 1 4.87-12c7.54-7.56 20.58-6.26 26.32 2.62a18.53 18.53 0 0 1 1.7 15c-2.67 7.95-12 12.73-20.53 10.5Zm8.42-3.09c3-1.13 5.31-4.09 6.35-8.16a22.91 22.91 0 0 0-1.38-13.5 10 10 0 0 0-16-2.51c-2.49 2.5-3.62 5.93-3.62 11 0 4.82 1 8 3.23 10.65a10.19 10.19 0 0 0 11.43 2.54Zm53.21 3a10.41 10.41 0 0 1-6-4.41 13.53 13.53 0 0 1-1.55-11.71 10.51 10.51 0 0 1 5.7-6.41c1.69-.82 2-.88 4.85-.88s3.21.07 4.71.78c3.24 1.51 5.46 4.51 5.52 7.43v1.53l-7.9.14-7.9.14v2.14c.08 5.58 2.82 8.85 7.4 8.85a6.41 6.41 0 0 0 5.59-2.8c1.11-1.45 1.41-1.59 2.22-1a.88.88 0 0 1 .33 1.08c-.29 1.16-2.52 3.39-4.39 4.4-1.63.88-2 .95-4.66 1a14.31 14.31 0 0 1-4-.29Zm7.9-16.74a5.37 5.37 0 0 0-2-3.49 6.76 6.76 0 0 0-4.52-.7 4.93 4.93 0 0 0-3.62 4l-.19.9H81.9Zm7.68 16.66a1.61 1.61 0 0 1 .14-1.71 1.88 1.88 0 0 1 1.13-.33 2.41 2.41 0 0 0 1.61-.81l.81-.81v-7.37c0-7.25 0-7.39-.62-8.09a3.08 3.08 0 0 0-1.84-.92c-1.39-.23-2-.9-1.52-1.66.23-.36 1-.57 2.91-.81l4.1-.53c1.77-.24 2.25.16 2.25 1.88a2.34 2.34 0 0 0 .13 1.06 16.09 16.09 0 0 0 1.72-1.12 11.85 11.85 0 0 1 7.8-2.16c3.47.18 5.23 1.2 6.34 3.7.42.95.5 2.16.58 8.34a66.55 66.55 0 0 0 .37 8 2.47 2.47 0 0 0 2.31 1.36 1.19 1.19 0 0 1 1.22 1.44l-.09.64h-12.77l-.09-.8c-.1-.92.29-1.27 1.43-1.28a2.47 2.47 0 0 0 1.59-.82l.81-.81V179c0-8.07-.11-8.63-1.87-9.46-2-.93-5.77.14-8.46 2.39l-1 .87v6.5c0 4.17.11 6.75.31 7.18a2.57 2.57 0 0 0 2.31 1.3 1.19 1.19 0 0 1 1.22 1.44l-.09.64L96 190a57.25 57.25 0 0 1-6.43-.15Zm44.25 0c-.18-.12-2.71-6-5.61-13.07s-5.58-13.45-5.94-14.18c-.87-1.72-1.5-2.26-3.13-2.68-1.27-.33-1.34-.39-1.34-1.3v-1l6.52-.08c3.58 0 6.8 0 7.14.07s.62.35.62 1c0 .84-.4 1.14-1.53 1.14-1.83 0-2.67 1.19-2.12 3 .82 2.67 7.95 20.64 8.11 20.46.45-.49 8-20.21 8-20.9 0-1.45-.82-2.09-3.41-2.66-.68-.15-.77-.28-.69-1.07l.09-.89h6.21c5.61 0 6.24 0 6.51.49.45.72-.1 1.4-1.32 1.66a4.47 4.47 0 0 0-3.35 2.25c-.38.66-3.14 7.13-6.12 14.38s-5.57 13.28-5.76 13.4a5.13 5.13 0 0 1-2.89 0Zm18.93-.4a2.45 2.45 0 0 1-.43-1.13c0-.28 4.69-6.46 10.42-13.73s10.48-13.38 10.55-13.57c.21-.54-.81-.7-4.47-.7-5.5 0-7.73.87-11.15 4.35a12.84 12.84 0 0 1-2.68 2.32c-.77 0-1.28-.34-1.28-.87 0-.76 3-8.09 3.39-8.36.19-.12 5.43-.22 11.63-.23H180l.43.62a2.52 2.52 0 0 1 .43 1.19c0 .33-4.43 6.2-10.58 14-8.1 10.3-10.49 13.5-10.19 13.69.64.41 8.3.29 10.69-.16 4.18-.8 7.67-3.18 9.27-6.32.57-1.13 1.35-1.38 2.06-.67.43.44.5.15-1.38 5.86a22.06 22.06 0 0 1-1.62 4.1c-.19.12-6.1.22-13.14.22h-12.79Z" style="fill:#9ca6a2"/>
		<path d="M46 142.26c-25.1-2.65-35.64-11.68-29.24-25 2.24-4.7 11.59-14.09 19.85-19.96l6-4.25 1.92-7.51c9.74-38 30.82-75 47.71-83.84a13.51 13.51 0 0 1 17.39 4.5c3.77 5.49 6.87 17.28 7.63 29l.39 6 4.79 4.52c10.14 9.56 20.59 22.3 30.29 36.91 17 25.64 23.1 45.79 16.61 55-2.76 3.93-5.35 4.89-13.08 4.83s-12.33-1.31-24.26-6.73l-7.42-3.37-2.8 1c-8.27 2.93-24.68 6.35-38.26 8-9.47 1.14-30.52 1.64-37.52.9Zm36.64-8.16c14.13-1.68 31.45-5.28 31.53-6.57 0-.53-11.08-7.48-16.2-10.13a31 31 0 0 1-5-3.57c-1.45-1.28-3.1-2.33-3.67-2.33s-3.34 1.75-6.16 3.89C65.8 128.46 54.35 131.54 47.18 125a17.33 17.33 0 0 1-3.57-5c-1.39-3.24-2.76-11.49-2.24-13.54a3.24 3.24 0 0 0-.21-2.14c-.7-1.14-4 1.1-10.23 7-7.19 6.78-9.6 11-8.34 14.63 1.44 4.15 10.79 7.67 24.1 9.08 6.89.73 26.18.23 35.94-.93Zm79 .86c2.26-1 3.11-3.25 3-7.79-.27-10.81-10.19-30.9-25.18-51-7.07-9.47-19.32-23.35-20.32-23-.48.16-.8 4.47-1 14.05-.19 7.6-.43 14.09-.52 14.43-.43 1.5.35 2.08 6.13 4.54 3.39 1.44 7.92 3.57 10.07 4.73 19.93 10.77 22.26 23.87 6.12 34.33-2.08 1.35-4.1 2.57-4.5 2.72-2.08.78 5.25 4.25 13.61 6.45 4.89 1.28 10.46 1.52 12.63.53Zm-32.07-12.33c7.59-3.5 13.83-9 13.83-12.16 0-3.7-4.92-8.68-12.77-12.92-5.55-3-12.33-5.95-13.66-5.95-.67 0-1.23 1.38-2 5-1.38 6.16-3.55 12.08-5.57 15.15-1.49 2.27-1.5 2.37-.43 3.4 1.53 1.47 15.3 9 16.43 9a18.7 18.7 0 0 0 4.22-1.53Zm-66-3.63c3.78-1.58 13.44-7.72 17.19-10.92l2-1.7-6-6.09a63.94 63.94 0 0 1-7.91-9.5 13.32 13.32 0 0 0-2.33-3.41c-.22 0-3.92 2.1-8.21 4.67q-7.79 4.67-8.55 6.27c-.92 1.94-1.05 13.81-.19 16.72s2.26 4.86 3.84 5.53c1.87.84 5.82.23 10.1-1.57Zm41.06-13.83c1.75-3.94 3.57-10.47 3.06-11s-11.19 10.16-11.17 11.28 1.06 2.49 3 3.8c1.38 1 1.54 1 2.64 0a15.2 15.2 0 0 0 2.52-4.06ZM83 89.65l-2-7.39-2.17-.19c-4.81-.41-5.88 2.15-2.75 6.58 2.44 3.45 7.82 9 8.39 8.66.24-.15-.44-3.6-1.51-7.66Zm15.61 2.53c4.47-4.53 4.72-4.92 3.69-5.69-1.5-1.08-12.3-3.69-12.89-3.11-.79.8 2.86 13.62 3.87 13.62a41.4 41.4 0 0 0 5.28-4.83Zm-36.08-11c3-1.67 6.09-3.47 6.91-4a43.3 43.3 0 0 1 5.41-2.5l3.91-1.54v-2.68c0-1.47-.36-6.4-.76-10.94-.79-9-.32-16.09 1.38-21a14.68 14.68 0 0 1 11-9.83c3-.57 9.38 1.14 14.4 3.86 2.43 1.31 4.53 2.39 4.67 2.39 1.12 0-.71-11.64-2.85-18.08-1.64-5-3.3-7.53-5.71-8.84-3.15-1.71-6.56 0-13.21 6.66C75.41 26.9 62.13 52.11 54 78.62c-2.43 7.9-2.32 8.83.85 6.94 1.2-.74 4.65-2.71 7.63-4.38Zm46.86-2.38a7.31 7.31 0 0 0 .94-3.54c0-2-.14-2.22-2.12-2.54-3.5-.57-14.12 1.58-14.32 2.89-.08.5 11.63 4.28 13.85 4.47.39 0 1.14-.54 1.65-1.28ZM94.94 67.2a43.34 43.34 0 0 1 10.52-1.78l5.11-.18.17-9A98.13 98.13 0 0 0 110.6 46c-.73-3-13.17-9.9-17.79-9.9C88 36.12 86 38.79 85 46.68c-.55 4.33 0 16.55 1 21 .43 2 .54 2 9-.49ZM36.53 199.91c-.24-.63.06-.89 1.39-1.23a3.52 3.52 0 0 0 1.81-1c.56-.72.58-1 .58-13.6 0-14.64.14-13.81-2.37-14.45-1.17-.3-1.37-.45-1.37-1s.14-.68 2.5-1l4-.53c1.68-.23 2 0 2 1.48 0 .5.06.9.13.9a14.84 14.84 0 0 0 1.65-1.07 8.52 8.52 0 0 1 6.15-1.7c5 .25 8.27 3.32 9.42 9 1.11 5.45-1.32 11-5.83 13.44-1.31.69-1.68.75-4.62.75s-3.29 0-4.94-.87c-1.28-.64-1.78-.77-1.88-.51a42.08 42.08 0 0 0 0 4.58c.09 4.19.1 4.23.84 4.86a4.54 4.54 0 0 0 1.87.83c1 .16 1.13.29 1.13.86v.67h-6.2c-5.08 0-6.13-.07-6.26-.4Zm17-12.56a8.28 8.28 0 0 0 2.05-1.71c3.27-3.73 2.88-12.17-.71-15.34a4.75 4.75 0 0 0-3.91-1.42A6.07 6.07 0 0 0 46.2 171l-1.2 1.21v13.33l.81.58c2.34 1.67 5.64 2.2 7.68 1.23Zm-40.79 2.51a16.67 16.67 0 0 1-12-11.65 19.87 19.87 0 0 1 0-8.89 16.92 16.92 0 0 1 12.51-11.7c9.06-1.91 17.49 3.16 19.71 11.84a22.71 22.71 0 0 1 .12 8.35A16.23 16.23 0 0 1 21 189.76a18.78 18.78 0 0 1-8.28.1Zm8.07-2.65c3-1.14 5.71-4.51 6.61-8.33a26.61 26.61 0 0 0-.12-10.1c-1.53-6-5.1-9.13-10.4-9.13s-9 3.24-10.54 9.1a28.16 28.16 0 0 0 0 10c1.97 7.44 7.9 10.91 14.44 8.46ZM74 189.65a10.17 10.17 0 0 1-4.63-2.89 12.11 12.11 0 0 1-3.28-8.76 11.07 11.07 0 0 1 6.36-10.48c1.36-.64 1.88-.72 4.59-.72s3.22.08 4.61.73a9.09 9.09 0 0 1 5.43 7.06l.16 1.52H79.6c-4.2 0-7.84.08-8.08.17-1 .37-.22 5.82 1.08 8 1.42 2.43 3.38 3.47 6.54 3.47a6.05 6.05 0 0 0 5.36-2.68c1.17-1.52 1.41-1.66 2.08-1.24 1.09.69-1.62 4-4.33 5.25a8.69 8.69 0 0 1-4.37.82 14.24 14.24 0 0 1-3.88-.25Zm8.18-16.32a5.45 5.45 0 0 0-3.18-4.42 7.76 7.76 0 0 0-4.43.08 6.23 6.23 0 0 0-3.24 4.84c0 .27 1.26.35 5.4.35h5.41Zm7.68 16.24c-.47-.47-.16-1.21.57-1.37 1.55-.34 2.32-.78 2.72-1.54.59-1.15.59-14.66 0-15.81a3.29 3.29 0 0 0-2.83-1.41.91.91 0 0 1-.82-.42c-.24-.64.42-1.25 1.35-1.25.46 0 2.12-.21 3.69-.46 3.4-.55 3.66-.44 3.78 1.59l.08 1.36 1.8-1.26a12 12 0 0 1 8-2.29c3.12.15 4.72 1 5.81 3.14.7 1.36.71 1.5.85 9.08.15 8.54.18 8.64 2 9s1.88.44 1.79 1.06-.14.6-6.18.6-6.1 0-6.19-.62.08-.65.69-.79c3.12-.69 3.14-.74 3.14-9.37 0-7.91-.12-8.5-2-9.48s-5.6-.07-8.63 2.25l-1.35 1 .08 7c.09 7.77.13 7.94 2 8.31s1.88.44 1.79 1.06-.17.6-6.06.68a52.49 52.49 0 0 1-6.17-.12Zm44-.17c-.15-.19-2.55-5.92-5.34-12.73s-5.41-13.07-5.83-13.91c-1-1.92-1.79-2.69-3.34-3.15-1-.3-1.23-.47-1.23-1v-.68h13.59v.69c0 .62-.15.71-1.34.88-1.86.27-2.49.9-2.32 2.32.14 1.13 7.77 21.2 8.25 21.68.14.14.33.19.41.11.47-.47 8.18-20.71 8.18-21.47 0-1.17-.8-2-2.29-2.42l-1.54-.43c-.2-.06-.33-.39-.28-.73l.09-.63H153v.66c0 .56-.21.72-1.29 1a4.7 4.7 0 0 0-3.44 2.52c-.4.69-3.11 7-6 14.12s-5.4 13-5.55 13.21a2.43 2.43 0 0 1-1.46.35 2.4 2.4 0 0 1-1.45-.35Zm19.22-.09a1.6 1.6 0 0 1-.44-1c0-.29 4.81-6.62 10.68-14.08 7.57-9.61 10.59-13.64 10.38-13.85-.44-.44-7.31-.56-9.14-.16-2.73.6-4.42 1.6-6.9 4.08-2.28 2.28-3.21 2.76-3.55 1.87-.16-.42 2.43-7.34 3-8.1.21-.27 2.87-.35 11.6-.35 10.91 0 11.33 0 11.61.54a2.59 2.59 0 0 1 .28 1c0 .28-4.74 6.51-10.53 13.86s-10.53 13.49-10.53 13.67c0 .52 1 .65 5.17.65 8.08 0 12.27-1.73 15.25-6.32 1-1.48 1.88-1.91 2.22-1 .15.4-2 7.17-2.86 8.83l-.38.76h-12.75c-11.2 0-12.78-.05-13.16-.44Z" style="fill:#70a48b"/>
		<path d="M48.35 142.19c-7.58-.69-17.25-2.63-21.37-4.3-10.83-4.39-14.49-12.21-9.83-21 2.59-4.88 10.09-12.38 18.32-18.34 3.61-2.61 6.77-4.92 7-5.14a50.06 50.06 0 0 0 2.27-7.59c6.16-24.5 18.57-51.62 31.57-68.94C87 2.63 97.25-2.77 104.67 1.92 111.12 6 114.72 15.22 116.83 33l1 8.87 8.4 8.44c24.86 25 45.32 60 45.31 77.44 0 7.57-2.22 11.46-7.93 13.92-6.07 2.62-16.62.69-30.15-5.5a71.11 71.11 0 0 0-8.22-3.35c-.83-.15-4.26.54-7.61 1.54-12 3.59-26.38 6.09-43.48 7.6-11.37 1-17 1.06-25.85.25Zm113-7c3-1.53 3.73-3.26 3.41-8.59-.76-12.66-12.42-34.86-29.76-56.69-5.88-7.38-15.73-17.69-16.32-17.08-.25.26-.61 6.18-.79 13.14s-.5 13.78-.7 15.15l-.37 2.48 6.58 2.79c20.67 8.75 29.14 17.5 26.32 27.21-1.21 4.17-4.56 7.89-10.62 11.79-5.76 3.71-5.77 3.68 2.26 6.87 9.52 3.79 16.3 4.74 20 2.92Zm-82.3-.45a207.59 207.59 0 0 0 33.17-5.74c1.24-.33 2.25-1 2.25-1.42s-4-3.13-8.87-6A138.75 138.75 0 0 1 93.7 114a27.31 27.31 0 0 0-4-2.81c-.65-.25-2.58.84-5.67 3.2-11.72 8.94-19.59 12.85-26.74 13.28-3.91.24-5 .07-7.4-1.08-4.92-2.39-7.41-7.74-8-17.06-.19-3.24-.55-6-.79-6.18-.76-.47-7.84 5.07-12.41 9.71-6.79 6.88-8.29 11.06-5.27 14.66 2.78 3.28 10.65 6.13 20.19 7.28 7.31.85 25.57.73 35.45-.23ZM131.18 122a34.47 34.47 0 0 0 8.89-5.91c2.88-2.8 3.25-3.44 3.25-5.6 0-3.06-1.75-5.76-5.73-8.8-5.93-4.53-20.24-11.43-21.37-10.3a34.21 34.21 0 0 0-2 6.64c-1.42 5.86-3.36 10.87-5.49 14.14a3.55 3.55 0 0 0-.69 2.48c.33.86 15.9 10 17.25 10.09.15 0 2.81-1.21 5.91-2.73Zm-68.24-2.43a57.52 57.52 0 0 0 6.74-3.43c4.77-3 12.93-9.08 12.93-9.69 0-.31-2.77-3.44-6.16-7s-6.84-7.69-7.66-9.27-1.91-2.86-2.4-2.86c-1.17 0-15.72 8.61-16.84 10-.64.77-.86 3-.88 8.66 0 8.34 1 12.52 3.47 14.25 2 1.39 6.57 1.11 10.81-.66ZM103.35 108c2.5-3.79 5.56-13.63 4.46-14.32-.69-.43-12 10.56-12 11.67s3.86 5 5 5c.6-.05 1.71-1.08 2.54-2.35ZM85 96.88c0-1.05-3.45-14.2-3.9-14.93-1.05-1.7-7.51.28-7.51 2.31 0 1.52 2.87 5.86 6.57 9.9 3.03 3.32 4.84 4.35 4.84 2.72Zm13.8-4.41c2.44-2.58 4.24-5 4.13-5.54s-1-1.2-2-1.48c-8.26-2.32-11.31-3-11.82-2.43-.37.37-.22 2 .39 4.43 1.86 7.4 2.75 9.58 3.89 9.58.59 0 3-2.05 5.4-4.56Zm-38-10c4.2-2.39 8.36-4.79 9.2-5.35a23.17 23.17 0 0 1 4.57-2c5.35-1.76 5.2-1.4 4.09-9.72-1.21-9-.87-21.36.7-26.11a20.27 20.27 0 0 1 3.37-5.83c4.87-5.55 11.2-5.92 20.66-1.22a40.91 40.91 0 0 0 6.21 2.71c.57 0 .66-.86.35-3.47-1.76-15-6-24.27-11-24.27-3.11 0-6.67 2.25-11.82 7.47C76 25.83 63.37 49.38 55.2 73.92c-3.2 9.52-3.86 12.86-2.65 12.86a82.76 82.76 0 0 0 8.27-4.32Zm49.2-4.1c1.1-2.14 1.18-4.35.2-5.34-.4-.4-2.09-.72-3.76-.72-5.18 0-14.73 2.72-13.52 3.83.55.5 13 3.86 14.52 3.93 1.24.05 1.86-.36 2.55-1.71ZM93.74 67.81a57.29 57.29 0 0 1 11.42-2l6-.41V45.62l-2.7-2.34c-3.58-3.11-11-6.95-14.49-7.46-5.05-.75-7.63 1.78-9 8.78-.77 4.06-.76 11.88 0 17.86.92 7 1.09 7.6 2.27 7.26l6.44-1.91ZM36.53 199.92c-.24-.63.08-.93 1.21-1.12a4.34 4.34 0 0 0 1.48-.51c1.19-.89 1.22-1.23 1.31-13 0-6.2 0-11.93-.09-12.73-.23-1.91-1-2.79-2.63-3.07-1-.16-1.25-.33-1.25-.73A.88.88 0 0 1 37 168a42.06 42.06 0 0 1 7.5-1 1.31 1.31 0 0 1 .27.91 2.66 2.66 0 0 0 .26 1.16c.22.35.37.32 1-.22a15.53 15.53 0 0 1 2.3-1.39c1.34-.66 1.85-.76 4.16-.75s2.82.09 4.2.77c3.89 1.92 5.94 6 5.74 11.43a9.32 9.32 0 0 1-1 4.68 11.74 11.74 0 0 1-5 5.43c-1.4.69-1.85.77-4.47.77s-3-.06-4.83-.91c-1.48-.7-2-.83-2.14-.56a14.61 14.61 0 0 0-.21 3.28c0 5.33.5 6.53 2.83 7.11.88.22 1.17.43 1.17.83s-.26.55-6 .62c-5.11.06-6.06 0-6.19-.33Zm17.55-12.83c2.4-1.41 3.69-4.43 3.69-8.63 0-4.36-1.34-7.48-3.86-9a6.36 6.36 0 0 0-7.83 1.54c-1.22 1.29-1.33 2-1.33 8.12 0 6.39 0 6.44 1.86 7.59a7.28 7.28 0 0 0 7.48.37Zm-40.94 2.8a16.9 16.9 0 0 1-10.28-7.17c-1.66-2.56-2.24-4.59-2.4-8.32a12.55 12.55 0 0 1 .47-5.28 16.32 16.32 0 0 1 10.74-11 12.7 12.7 0 0 1 5.34-.74 13.84 13.84 0 0 1 5.41.74 15.14 15.14 0 0 1 9.16 7.88 16 16 0 0 1 1.79 7.78c0 6-2.44 10.67-7.22 13.77a18.59 18.59 0 0 1-13 2.38Zm6.52-2.24c4.61-1.2 7.41-5.05 8.18-11.23a21.85 21.85 0 0 0-1.74-11.27 12 12 0 0 0-5-4.78 7.68 7.68 0 0 0-4.22-.78 9.05 9.05 0 0 0-7.31 3c-2.69 2.85-3.75 6-3.74 11.14 0 6 1.72 10.11 5.18 12.49a10.39 10.39 0 0 0 8.66 1.41Zm53.88 1.75c-3.14-1.1-5.26-3.28-6.67-6.87a15.51 15.51 0 0 1 0-9 10.56 10.56 0 0 1 11-6.81c4.92.31 9 3.83 9.1 7.93L87 176l-7.9.14-7.9.14-.09 1.53c-.19 3.29 1 6.61 2.94 8.4a6.62 6.62 0 0 0 5 1.73c2.31 0 3.69-.71 5.43-2.73 1.09-1.27 1.39-1.48 1.82-1.25.81.44.62.94-1 2.73-2.22 2.4-3.87 3.14-7.28 3.28a9.65 9.65 0 0 1-4.52-.54Zm8.37-15.23c.42-.22.49-.48.36-1.18a5.24 5.24 0 0 0-5.3-4.45 5.05 5.05 0 0 0-5.38 4.08c-.3 1.11-.29 1.35.06 1.57.56.35 9.6.34 10.26 0Zm7.94 15.4a1.19 1.19 0 0 1-.18-.69c0-.38.29-.55 1.14-.69 1.79-.29 2.45-1 2.75-3.16a89.2 89.2 0 0 0 0-12.59c-.24-1.94-.88-2.68-2.48-2.9-1.29-.17-2-.75-1.49-1.25.29-.29 5.17-1.07 7.27-1.16h1l.09 1.39a4.29 4.29 0 0 0 .31 1.62c.13.13.85-.22 1.61-.76a12.27 12.27 0 0 1 6.7-2.59c2.7-.19 4.61.25 5.95 1.36 1.93 1.6 2 1.74 2.12 10.26.17 9.14.19 9.22 3.13 9.85.89.19 1.29.92.72 1.29a42.9 42.9 0 0 1-6.21.18c-5.79-.07-5.82-.07-5.91-.69s.07-.65 1.07-.81a4.5 4.5 0 0 0 1.89-.82l.73-.63.08-7.52c.09-8.35 0-8.71-1.69-9.8-2-1.26-6.6 0-9.36 2.54l-1.16 1 .09 6.5c.11 7.83.19 8.07 3.08 8.69.89.19 1.3.92.72 1.29s-11.71.35-12 .07Zm44.24 0c-.19-.12-2.83-6.26-5.86-13.64S122.39 162 122 161.4c-.65-1-1.56-1.5-3.72-2.13-.5-.14-.43-1.14.09-1.34.24-.09 3.16-.17 6.49-.17s6.25.08 6.49.17a.73.73 0 0 1 0 1.33 4.22 4.22 0 0 1-1.21.17 2.17 2.17 0 0 0-2.22 2.18c0 1.13 8 22.06 8.47 22.22s8.17-19.73 8.36-21.26c.23-1.93-.48-2.62-3.33-3.25-.85-.19-1.06-1.1-.32-1.38.24-.09 2.91-.17 5.93-.17 4.54 0 5.55.07 5.83.42.5.6 0 1.14-1.37 1.36s-2.65 1.31-3.67 3.34c-.47.93-3.14 7.26-5.93 14.06s-5.24 12.46-5.44 12.58a3.33 3.33 0 0 1-2.37 0Zm19-.28a1.76 1.76 0 0 1-.46-.91c0-.22 4.8-6.5 10.67-13.95s10.67-13.66 10.67-13.81c0-.42-2.36-.72-5.56-.69-5 0-8.6 1.6-11.64 5.13-1.42 1.64-2.34 2.07-2.66 1.24-.21-.55 2.9-8.13 3.42-8.33s22.08-.18 22.45.06a1.81 1.81 0 0 1 .5.93c.19.77.75 0-15.07 20.14-3.37 4.28-6.13 7.87-6.13 8 0 .43 1.46.59 5.41.58 6.25 0 9.24-.73 12.3-3a12.38 12.38 0 0 0 2.84-3c1.21-1.85 1.46-2 2.17-1.58.32.2.11 1.06-1.2 4.84a20.86 20.86 0 0 1-2 4.75c-.23.09-6 .16-12.82.16-11.67 0-12.44 0-12.87-.51Z" style="fill:#4b8c6c"/>
		<path d="M53.16 142.28c-2.15-.28-6.78-.81-10.28-1.18-17.21-1.81-27.59-8.16-27.59-16.87 0-6.74 8.18-16.74 21.46-26.23l6.67-4.77 1.65-7c4.84-20.59 16-46.17 27.83-64 5.43-8.16 14-17.1 18.44-19.32A13.55 13.55 0 0 0 94.54 1c.11-.25 1.81-.45 3.77-.45 4 0 6.93 1.45 9.79 4.85 4.42 5.26 7.56 16.25 8.53 29.83l.43 6 8.82 9c32.55 33.39 52.8 74.57 42.83 87.11a14.79 14.79 0 0 1-11.71 5.48c-2.21 0-4.19-.22-4.39-.55a2.45 2.45 0 0 0-1.81-.6c-2.41 0-11-3-18.82-6.48l-7.4-3.34-6.13 1.88a195.07 195.07 0 0 1-28.37 6.07c-7.32 1.06-13.35 1.62-29.46 2.73a46 46 0 0 1-7.51-.26Zm29.76-7.53c15.73-1.89 31.72-5.4 32-7 .13-.65-2.29-2.42-7.81-5.7-4.4-2.62-8.71-5.07-9.58-5.46a19.93 19.93 0 0 1-3.91-2.79c-4.4-3.94-4-4-11.69 1.7-8.21 6.11-17.37 10.9-22.68 11.87-7 1.28-12-1.14-14.9-7.22-1.4-2.92-1.72-4.53-2-10.1-.41-8-.78-8.3-6.1-4.19-9.15 7.04-15.64 15.49-14.72 19.14 1.31 5.22 9.93 8.95 24.63 10.65 6.18.72 27.61.18 36.76-.91Zm79.86.25c5.87-4.63 1.54-20.65-11.43-42.34-9.62-16.09-30.18-41.11-32.91-40.06-.82.32-.95 2-.95 12.06a134 134 0 0 1-.61 14.92c-.75 3.94-.35 4.42 5.72 6.89 24.87 10.12 33.22 21.84 23.38 32.82-2.43 2.71-3.71 3.7-9.82 7.57l-2.67 1.69 1.31 1.06c1.37 1.11 9.67 4.3 14.85 5.71a35.31 35.31 0 0 0 7.28.86c3.44 0 4.58-.2 5.85-1.2Zm-30.91-13c13.41-7 15.45-13 6.7-20-6.35-5-21.17-12.24-22.67-11-.37.31-1 2.25-1.4 4.32-1.09 5.67-3.5 12.46-5.54 15.67-1 1.58-1.69 3.23-1.51 3.69.26.68 7.91 5.25 15.14 9 2.68 1.4 3.53 1.25 9.28-1.73Zm-68.2-2.37a63.52 63.52 0 0 0 6.61-3.49c4.75-3 12.93-9.1 12.93-9.67 0-.29-2.64-3.15-5.87-6.36-3.93-3.91-6.52-7.09-7.85-9.61-1.09-2.07-2.37-3.77-2.85-3.77-1.67 0-17.14 9.69-17.64 11a37.44 37.44 0 0 0-.87 6.14c-.65 8.19 1.12 15.09 4.35 16.92 2.19 1.25 6.76.75 11.19-1.22Zm40.7-12.8c2.71-5 5.15-14.58 3.57-14s-12.11 11.3-12.11 12.2c0 1.69 1.15 3.36 3.15 4.58 2.39 1.54 3.38 1.02 5.4-2.73Zm-18.75-9.04c0-2-4-15.69-4.75-16.31-1.35-1.1-6.86.33-7.48 1.95s2 5.76 6.23 10.23c3.84 4.05 6 5.53 6 4.13Zm13.19-5c3-3 4.85-5.25 4.73-5.88-.22-1.14-9.56-4.24-13-4.31-2.39 0-2.45.53-.74 7.23 1.66 6.37 2.2 7.81 3.2 7.81.51 0 3.1-2.19 5.81-4.86Zm-37.91-10c10.55-5.95 11.75-6.57 15.63-8.15l3.24-1.32-.43-4.57c-1.8-19.29-1.5-25.65 1.54-31.91 1.43-2.94 2.5-4.24 4.65-5.63 2.63-1.7 3.08-1.79 7.68-1.57 4.38.21 5.47.53 10.52 3.07a60.35 60.35 0 0 0 6.08 2.83c1.48 0-.65-14-3.16-20.69-1.46-3.91-4.4-7.39-6.76-8-2.85-.72-8 2.21-13.08 7.49C75.3 26.2 60.7 54.11 53.46 78.08c-2.23 7.38-2.52 9.31-1.42 9.31a83.77 83.77 0 0 0 8.86-4.62ZM110.36 78c2.8-6.34-2.28-7.78-14.7-4.16-4.14 1.21-4.46 2.41-.88 3.34 1.41.37 4.58 1.3 7.06 2.07 6.68 2.05 7.08 1.99 8.52-1.25Zm-8.49-11.65a20 20 0 0 1 5.51-.3A5.72 5.72 0 0 0 110 66l1.46-.37V45.25l-2.55-2.07c-5.82-4.72-12.21-7.74-16.55-7.81-3.29-.05-5.69 2.11-7.15 6.43-1.78 5.27-1 26.88 1.06 28.13.35.22 3-.36 5.95-1.27a80.9 80.9 0 0 1 9.65-2.35ZM36.53 199.92c-.24-.63.08-.93 1.21-1.12a4.34 4.34 0 0 0 1.48-.51c1.19-.89 1.22-1.23 1.31-13 0-6.2 0-11.93-.09-12.73-.23-1.91-1-2.79-2.63-3.07-1-.16-1.25-.33-1.25-.73A.88.88 0 0 1 37 168a42.06 42.06 0 0 1 7.5-1 1.31 1.31 0 0 1 .27.91 2.66 2.66 0 0 0 .26 1.16c.22.35.37.32 1-.22a15.53 15.53 0 0 1 2.3-1.39c1.34-.66 1.85-.76 4.16-.75s2.82.09 4.2.77c3.89 1.92 5.94 6 5.74 11.43a9.32 9.32 0 0 1-1 4.68 11.74 11.74 0 0 1-5 5.43c-1.4.69-1.85.77-4.47.77s-3-.06-4.83-.91c-1.48-.7-2-.83-2.14-.56a14.61 14.61 0 0 0-.21 3.28c0 5.33.5 6.53 2.83 7.11.88.22 1.17.43 1.17.83s-.26.55-6 .62c-5.11.06-6.06 0-6.19-.33Zm17.55-12.83c2.4-1.41 3.69-4.43 3.69-8.63 0-4.36-1.34-7.48-3.86-9a6.36 6.36 0 0 0-7.83 1.54c-1.22 1.29-1.33 2-1.33 8.12 0 6.39 0 6.44 1.86 7.59a7.28 7.28 0 0 0 7.48.37Zm-40.94 2.8a16.9 16.9 0 0 1-10.28-7.17c-1.66-2.56-2.24-4.59-2.4-8.32a12.55 12.55 0 0 1 .47-5.28 16.32 16.32 0 0 1 10.74-11 12.7 12.7 0 0 1 5.34-.74 13.84 13.84 0 0 1 5.41.74 15.14 15.14 0 0 1 9.16 7.88 16 16 0 0 1 1.79 7.78c0 6-2.44 10.67-7.22 13.77a18.59 18.59 0 0 1-13 2.38Zm6.52-2.24c4.61-1.2 7.41-5.05 8.18-11.23a21.85 21.85 0 0 0-1.74-11.27 12 12 0 0 0-5-4.78 7.68 7.68 0 0 0-4.22-.78 9.05 9.05 0 0 0-7.31 3c-2.69 2.85-3.75 6-3.74 11.14 0 6 1.72 10.11 5.18 12.49a10.39 10.39 0 0 0 8.66 1.41Zm53.88 1.75c-3.14-1.1-5.26-3.28-6.67-6.87a15.51 15.51 0 0 1 0-9 10.56 10.56 0 0 1 11-6.81c4.92.31 9 3.83 9.1 7.93L87 176l-7.9.14-7.9.14-.09 1.53c-.19 3.29 1 6.61 2.94 8.4a6.62 6.62 0 0 0 5 1.73c2.31 0 3.69-.71 5.43-2.73 1.09-1.27 1.39-1.48 1.82-1.25.81.44.62.94-1 2.73-2.22 2.4-3.87 3.14-7.28 3.28a9.65 9.65 0 0 1-4.52-.54Zm8.37-15.23c.42-.22.49-.48.36-1.18a5.24 5.24 0 0 0-5.3-4.45 5.05 5.05 0 0 0-5.38 4.08c-.3 1.11-.29 1.35.06 1.57.56.35 9.6.34 10.26 0Zm7.94 15.4a1.19 1.19 0 0 1-.18-.69c0-.38.29-.55 1.14-.69 1.79-.29 2.45-1 2.75-3.16a89.2 89.2 0 0 0 0-12.59c-.24-1.94-.88-2.68-2.48-2.9-1.29-.17-2-.75-1.49-1.25.29-.29 5.17-1.07 7.27-1.16h1l.09 1.39a4.29 4.29 0 0 0 .31 1.62c.13.13.85-.22 1.61-.76a12.27 12.27 0 0 1 6.7-2.59c2.7-.19 4.61.25 5.95 1.36 1.93 1.6 2 1.74 2.12 10.26.17 9.14.19 9.22 3.13 9.85.89.19 1.29.92.72 1.29a42.9 42.9 0 0 1-6.21.18c-5.79-.07-5.82-.07-5.91-.69s.07-.65 1.07-.81a4.5 4.5 0 0 0 1.89-.82l.73-.63.08-7.52c.09-8.35 0-8.71-1.69-9.8-2-1.26-6.6 0-9.36 2.54l-1.16 1 .09 6.5c.11 7.83.19 8.07 3.08 8.69.89.19 1.3.92.72 1.29s-11.71.35-12 .07Zm44.24 0c-.19-.12-2.83-6.26-5.86-13.64S122.39 162 122 161.4c-.65-1-1.56-1.5-3.72-2.13-.5-.14-.43-1.14.09-1.34.24-.09 3.16-.17 6.49-.17s6.25.08 6.49.17a.73.73 0 0 1 0 1.33 4.22 4.22 0 0 1-1.21.17 2.17 2.17 0 0 0-2.22 2.18c0 1.13 8 22.06 8.47 22.22s8.17-19.73 8.36-21.26c.23-1.93-.48-2.62-3.33-3.25-.85-.19-1.06-1.1-.32-1.38.24-.09 2.91-.17 5.93-.17 4.54 0 5.55.07 5.83.42.5.6 0 1.14-1.37 1.36s-2.65 1.31-3.67 3.34c-.47.93-3.14 7.26-5.93 14.06s-5.24 12.46-5.44 12.58a3.33 3.33 0 0 1-2.37 0Zm19-.28a1.76 1.76 0 0 1-.46-.91c0-.22 4.8-6.5 10.67-13.95s10.67-13.66 10.67-13.81c0-.42-2.36-.72-5.56-.69-5 0-8.6 1.6-11.64 5.13-1.42 1.64-2.34 2.07-2.66 1.24-.21-.55 2.9-8.13 3.42-8.33s22.08-.18 22.45.06a1.81 1.81 0 0 1 .5.93c.19.77.75 0-15.07 20.14-3.37 4.28-6.13 7.87-6.13 8 0 .43 1.46.59 5.41.58 6.25 0 9.24-.73 12.3-3a12.38 12.38 0 0 0 2.84-3c1.21-1.85 1.46-2 2.17-1.58.32.2.11 1.06-1.2 4.84a20.86 20.86 0 0 1-2 4.75c-.23.09-6 .16-12.82.16-11.67 0-12.44 0-12.87-.51Z" style="fill:#606060"/>
		<path d="M53.16 142.28c-2.15-.28-6.78-.81-10.28-1.18-17.21-1.81-27.59-8.16-27.59-16.87 0-6.74 8.18-16.74 21.46-26.23l6.67-4.77 1.65-7c4.84-20.59 16-46.17 27.83-64 5.43-8.16 14-17.1 18.44-19.32A13.55 13.55 0 0 0 94.54 1c.11-.25 1.81-.45 3.77-.45 4 0 6.93 1.45 9.79 4.85 4.42 5.26 7.56 16.25 8.53 29.83l.43 6 8.82 9c32.55 33.39 52.8 74.57 42.83 87.11a14.79 14.79 0 0 1-11.71 5.48c-2.21 0-4.19-.22-4.39-.55a2.45 2.45 0 0 0-1.81-.6c-2.41 0-11-3-18.82-6.48l-7.4-3.34-6.13 1.88a195.07 195.07 0 0 1-28.37 6.07c-7.32 1.06-13.35 1.62-29.46 2.73a46 46 0 0 1-7.51-.26Zm29.76-7.53c15.73-1.89 31.72-5.4 32-7 .13-.65-2.29-2.42-7.81-5.7-4.4-2.62-8.71-5.07-9.58-5.46a19.93 19.93 0 0 1-3.91-2.79c-4.4-3.94-4-4-11.69 1.7-8.21 6.11-17.37 10.9-22.68 11.87-7 1.28-12-1.14-14.9-7.22-1.4-2.92-1.72-4.53-2-10.1-.41-8-.78-8.3-6.1-4.19-9.15 7.04-15.64 15.49-14.72 19.14 1.31 5.22 9.93 8.95 24.63 10.65 6.18.72 27.61.18 36.76-.91Zm79.86.25c5.87-4.63 1.54-20.65-11.43-42.34-9.62-16.09-30.18-41.11-32.91-40.06-.82.32-.95 2-.95 12.06a134 134 0 0 1-.61 14.92c-.75 3.94-.35 4.42 5.72 6.89 24.87 10.12 33.22 21.84 23.38 32.82-2.43 2.71-3.71 3.7-9.82 7.57l-2.67 1.69 1.31 1.06c1.37 1.11 9.67 4.3 14.85 5.71a35.31 35.31 0 0 0 7.28.86c3.44 0 4.58-.2 5.85-1.2Zm-30.91-13c13.41-7 15.45-13 6.7-20-6.35-5-21.17-12.24-22.67-11-.37.31-1 2.25-1.4 4.32-1.09 5.67-3.5 12.46-5.54 15.67-1 1.58-1.69 3.23-1.51 3.69.26.68 7.91 5.25 15.14 9 2.68 1.4 3.53 1.25 9.28-1.73Zm-68.2-2.37a63.52 63.52 0 0 0 6.61-3.49c4.75-3 12.93-9.1 12.93-9.67 0-.29-2.64-3.15-5.87-6.36-3.93-3.91-6.52-7.09-7.85-9.61-1.09-2.07-2.37-3.77-2.85-3.77-1.67 0-17.14 9.69-17.64 11a37.44 37.44 0 0 0-.87 6.14c-.65 8.19 1.12 15.09 4.35 16.92 2.19 1.25 6.76.75 11.19-1.22Zm40.7-12.8c2.71-5 5.15-14.58 3.57-14s-12.11 11.3-12.11 12.2c0 1.69 1.15 3.36 3.15 4.58 2.39 1.54 3.38 1.02 5.4-2.73Zm-18.75-9.04c0-2-4-15.69-4.75-16.31-1.35-1.1-6.86.33-7.48 1.95s2 5.76 6.23 10.23c3.84 4.05 6 5.53 6 4.13Zm13.19-5c3-3 4.85-5.25 4.73-5.88-.22-1.14-9.56-4.24-13-4.31-2.39 0-2.45.53-.74 7.23 1.66 6.37 2.2 7.81 3.2 7.81.51 0 3.1-2.19 5.81-4.86Zm-37.91-10c10.55-5.95 11.75-6.57 15.63-8.15l3.24-1.32-.43-4.57c-1.8-19.29-1.5-25.65 1.54-31.91 1.43-2.94 2.5-4.24 4.65-5.63 2.63-1.7 3.08-1.79 7.68-1.57 4.38.21 5.47.53 10.52 3.07a60.35 60.35 0 0 0 6.08 2.83c1.48 0-.65-14-3.16-20.69-1.46-3.91-4.4-7.39-6.76-8-2.85-.72-8 2.21-13.08 7.49C75.3 26.2 60.7 54.11 53.46 78.08c-2.23 7.38-2.52 9.31-1.42 9.31a83.77 83.77 0 0 0 8.86-4.62ZM110.36 78c2.8-6.34-2.28-7.78-14.7-4.16-4.14 1.21-4.46 2.41-.88 3.34 1.41.37 4.58 1.3 7.06 2.07 6.68 2.05 7.08 1.99 8.52-1.25Zm-8.49-11.65a20 20 0 0 1 5.51-.3A5.72 5.72 0 0 0 110 66l1.46-.37V45.25l-2.55-2.07c-5.82-4.72-12.21-7.74-16.55-7.81-3.29-.05-5.69 2.11-7.15 6.43-1.78 5.27-1 26.88 1.06 28.13.35.22 3-.36 5.95-1.27a80.9 80.9 0 0 1 9.65-2.35ZM36.7 199.65c0-.23.43-.47 1-.58 1.45-.27 1.94-.59 2.5-1.61.44-.8.5-2 .58-11.6.05-5.89 0-11.62-.09-12.74-.23-2.46-.87-3.38-2.68-3.82-1.42-.35-1.65-1.06-.37-1.18.46 0 2.12-.28 3.7-.53 3.2-.5 3.36-.45 3.36 1.21 0 1.24.38 1.34 1.44.41 2-1.72 3.16-2.13 6.19-2.13 2.47 0 2.94.08 4.34.77 7.58 3.73 7.4 17.2-.28 21-1.41.69-1.86.77-4.48.77s-3-.06-4.81-.9a15.37 15.37 0 0 0-2.15-.9c-.37 0-.31 8.74.07 9.58a3.2 3.2 0 0 0 2.55 1.7c.59.11 1 .35 1 .58s-1.06.39-6 .39-5.87-.07-5.87-.42Zm17.47-12.36a9 9 0 0 0 3.5-5 19 19 0 0 0-.37-8.85c-1.23-3.16-3.43-4.93-6.14-4.92a6.57 6.57 0 0 0-5 2.19L44.74 172v6.73c0 6.62 0 6.74.62 7.3a7.66 7.66 0 0 0 3.54 1.87 6.39 6.39 0 0 0 5.26-.63Zm-41 2.31A16.22 16.22 0 0 1 .93 177.52a21 21 0 0 1 0-7.52 16.3 16.3 0 0 1 6.43-9.48 15.09 15.09 0 0 1 6.19-2.61 15.43 15.43 0 0 1 7 0 15.47 15.47 0 0 1 10.73 7.82 16.36 16.36 0 0 1 1.87 8.19c0 4.84-1.22 7.93-4.41 11.14a16.55 16.55 0 0 1-15.53 4.55Zm5.74-1.5c4.37-.83 7.46-4.06 8.79-9.19a26.9 26.9 0 0 0 0-9.85c-1.25-5.41-4.35-8.72-9-9.64-5.7-1.14-11.08 2.8-12.7 9.36a27.08 27.08 0 0 0 0 9.92c1.65 6.8 6.8 10.56 12.88 9.4Zm55.43 1.37c-5.9-1.48-9.4-8.62-7.41-15.09a10.24 10.24 0 0 1 6.8-7 12.77 12.77 0 0 1 7.89.45 9 9 0 0 1 5.16 6.72l.18 1.31h-7.77c-6.63 0-7.82.06-8.12.43-.52.63-.17 4.65.58 6.66a10.46 10.46 0 0 0 1.75 2.88 6.78 6.78 0 0 0 5.43 2.37 6.69 6.69 0 0 0 5.69-2.67c1.26-1.43 2.08-1.78 2.08-.89s-2.81 3.45-4.37 4.21a8 8 0 0 1-4.21.83 19.52 19.52 0 0 1-3.69-.2Zm8.18-15.36a6.37 6.37 0 0 0-1.05-3.61 5.06 5.06 0 0 0-4.56-2.16 5.67 5.67 0 0 0-4.21 1.57 8.46 8.46 0 0 0-1.6 3.78v.76h5.66c4.28 0 5.69-.08 5.78-.35Zm7.56 15.09c-.29-.48.13-.84 1-.84a2.84 2.84 0 0 0 1.72-.81l.91-.81.08-7.78.08-7.78-.72-.86a2.78 2.78 0 0 0-2-1c-1.19-.18-1.75-.53-1.4-.88a15.73 15.73 0 0 1 2.73-.51l3.89-.55 1.32-.2v1.27c0 1.39.2 2.15.58 2.15a7.4 7.4 0 0 0 1.59-1 11.91 11.91 0 0 1 7-2.59c3.76-.18 6.26 1 7.15 3.37a50.94 50.94 0 0 1 .31 7.37c0 3.62.12 7.13.25 7.8a3.3 3.3 0 0 0 2.7 2.79c.68.11 1.06.32 1.06.59s-.86.41-5.82.41-5.82-.06-5.82-.41.39-.48 1.06-.59a3.72 3.72 0 0 0 1.8-.91l.74-.74.08-7.43c.08-8.34 0-8.75-1.88-10-.84-.57-1.21-.64-2.8-.53a12 12 0 0 0-6.78 3.12L97.7 173v5.68c0 3.13.12 6.23.25 6.9a3.3 3.3 0 0 0 2.7 2.79c.68.11 1.06.32 1.06.59s-.88.42-5.73.49c-3.67 0-5.79-.07-5.9-.25Zm44-.09c-.17-.2-2.73-6.29-5.71-13.53s-5.73-13.66-6.13-14.26a5.43 5.43 0 0 0-3.55-2.16c-.33 0-.47-.17-.41-.49s.62-.49 6.58-.49c4.94 0 6.52.08 6.6.35s-.13.5-1.68.76c-1.36.23-2.13 1-2.14 2.16 0 .51 1.81 5.62 4.2 11.83 3.19 8.27 4.31 10.91 4.63 10.85.58-.11 8.62-20.57 8.63-22s-.91-2.41-2.64-2.86c-.82-.21-1.38-.51-1.38-.74s1-.39 5.82-.39 5.82.07 5.82.4-.52.53-1.35.74c-1.66.43-2.76 1.43-3.81 3.51-.44.88-3 6.95-5.68 13.49s-5.05 12.18-5.27 12.52a1.91 1.91 0 0 1-2.55.3Zm19.14 0a1.25 1.25 0 0 1-.33-.76c0-.24 4.82-6.54 10.7-14 6.17-7.83 10.64-13.73 10.55-13.95-.2-.53-2.05-.8-5.45-.79-5.23 0-8 1.13-11.42 4.59s-3.6 2.93-1.62-2a35.52 35.52 0 0 1 1.7-3.82c.26-.32 2.28-.39 11.32-.39 11.42 0 11.67 0 11.67 1.15 0 .27-4.8 6.59-10.67 14.05S159 187 159 187.14c0 .53 1 .66 5.63.66 5.06 0 7.73-.44 10.45-1.73a14.15 14.15 0 0 0 5.4-5c.41-.76.7-1 1.18-1s.87.59.4.88a28.83 28.83 0 0 0-1.56 4 41.17 41.17 0 0 1-1.6 4.18c-.39.49-25.17.51-25.66 0Z" style="fill:#23734c"/>
		<path d="M154.43 142.32c.86-.34.24-.57-2.26-.87-4.34-.51-13.37-3.62-21.16-7.28l-6-2.83-6.31 1.83c-30 8.72-69 11-87.77 5.25-7-2.15-12.6-6.09-13.91-9.74-.5-1.4-.91-1.84-1.22-1.34s-.48-.82-.48-2.76.23-3.35.53-3.17.72-.41.94-1.32c1.29-5.26 8.93-13.47 20-21.47l7.2-5.21 1-4.9c5.73-26.78 23.41-63.24 37.79-77.94 4.87-5 10.4-8.81 12.76-8.83 1 0 1-.11.3-.6s.26-.58 3-.58c2.39 0 3.59.2 3.1.51s-.41.62.74.9c6.56 1.65 11.82 14.1 13.3 31.43.74 8.73.44 8.11 7.31 14.88 15.81 15.56 30 34.86 39.29 53.31 10.41 20.73 11 34.14 1.73 38.88a12.3 12.3 0 0 1-4.28 1.24c-1.86.06-1.89.09-.47.54 1.09.35.42.49-2.4.5-2.42 0-3.46-.16-2.73-.44Zm-72.5-7a207.65 207.65 0 0 0 25-4.24c8.75-2.1 8.72-2.08 8.72-3.35s.08-1.18-10.79-7.46a120.74 120.74 0 0 1-11-7.09c-2-1.58-4.18-2.86-4.82-2.86s-3.24 1.59-5.78 3.53c-15.2 11.63-25.78 15.55-32.8 12.15-5-2.41-7.33-7.58-7.93-17.3-.33-5.36-.52-6.22-1.42-6.22-1.43 0-7.53 4.59-12.19 9.18-5.28 5.19-7.62 9-7.62 12.44 0 2.34.3 3 2.32 4.9 3.84 3.66 12.49 6.23 24.43 7.25 7.67.64 24.09.19 33.88-.95Zm80 .78c4.59-2.36 5.11-8.91 1.57-19.54-5.83-17.5-24.71-46-40.59-61.39-6-5.75-6-5.64-6.1 10.21 0 6.64-.1 13.66-.14 15.59l-.07 3.51 6.31 2.62A85.78 85.78 0 0 1 141 96.9c12.22 9.06 10.79 20.38-3.62 28.57a21.36 21.36 0 0 0-3.81 2.53c-.65 1 .09 2.08 1.8 2.73.88.33 3.31 1.32 5.38 2.19 8.36 3.46 17.81 4.88 21.16 3.15Zm-30.12-13.41c6.66-3.38 11.19-7.35 12.19-10.69.63-2.11.56-2.71-.58-5.07-2.14-4.41-9.84-9.77-20.84-14.5-5.7-2.45-7.39-2.6-7.8-.7-2.14 10.12-4.44 16.82-7 20.42a6.41 6.41 0 0 0-1.16 2.3c0 1.23 16.58 10.88 18.73 10.9a33.8 33.8 0 0 0 6.4-2.71Zm-68.27-2.45a58 58 0 0 0 6.78-3.44c5-3.08 13.53-9.56 13.53-10.25 0-.35-2.38-3-5.29-5.82A61.07 61.07 0 0 1 67.83 87c-.59-1-.85-1-2.4-.34-3.07 1.39-15.72 9.14-16.55 10.13-.55.66-.85 3.43-1 8.88-.16 7.11 0 8.25 1.19 11.23 2.39 5.78 6.37 6.69 14.44 3.31ZM104 108.55c1.86-2.81 4.34-9.76 4.87-13.59.31-2.24.2-2.76-.55-2.76-.51 0-3.66 2.65-7 5.89-6.88 6.67-7.21 7.56-4 10.76 2.78 2.83 4.68 2.74 6.68-.3Zm-18.07-9.72c.37-.6-2.77-14-3.92-16.72-.46-1.09-1-1.36-3-1.36-3.56 0-6 1.43-6 3.53s3 6.76 7.59 11.4c3.72 3.77 4.63 4.31 5.34 3.15Zm13.26-5.67c6.37-6.4 6.46-7.12 1-8.72C89.72 81.37 88 81.22 88 83.31c0 1.66 2.76 12.14 3.62 13.76a2.15 2.15 0 0 0 1.55 1.17c.54 0 3.23-2.24 6.02-5.08ZM61.48 83l10-5.71a50.79 50.79 0 0 1 4.81-2.07l3.61-1.38v-2.71c0-1.49-.38-6.2-.81-10.48q-2.89-28.2 11.42-30.87c3-.57 8.9 1.06 14.24 3.95a26.2 26.2 0 0 0 5.25 2.39c1.22 0 1.11-4.1-.31-11.29-2.16-11-4.78-16.33-8.82-18-10.82-4.53-33.47 28-46.27 66.41C50.77 84.77 50.12 88 51.64 88c.57 0 5-2.27 9.84-5Zm48.79-3.57c1.48-2.43 1.62-6.79.24-7.32-3.26-1.25-16.77.87-18.85 3-1.27 1.27-.44 1.8 5.07 3.23 2.65.69 6 1.64 7.51 2.11 4.04 1.21 4.76 1.09 6.03-1.06ZM94.75 68.44a73.14 73.14 0 0 1 11.42-2l5.6-.43.17-10.2.17-10.2-2.75-2.61c-3.63-3.4-11.49-7.46-15.29-7.91-7.57-.9-10.37 3.95-10.3 17.86 0 6.49 1 15.94 1.68 17.11.39.68 1.96.41 9.3-1.62Zm-58 131.21c0-.23.43-.47 1-.58 1.45-.27 1.94-.59 2.5-1.61.45-.82.49-2 .49-13.27 0-13.23 0-13.75-1.37-14.45a7 7 0 0 0-1.58-.54c-.54-.11-.94-.36-.94-.59s.67-.48 2.5-.72c1.37-.18 3.09-.41 3.81-.53 1.31-.21 1.32-.21 1.32.59 0 1 .28 2 .52 2a10.44 10.44 0 0 0 1.66-1.11c4.68-3.53 11.56-2.07 14.14 3a13.3 13.3 0 0 1 1.37 7.16 8.84 8.84 0 0 1-1.17 5 10.33 10.33 0 0 1-4.85 5c-1.12.56-1.72.65-4.22.65-2.73 0-3-.06-4.92-.95a5.55 5.55 0 0 0-2.22-.74 26.22 26.22 0 0 0-.19 4.42c0 5.47.36 6.24 3 6.73.6.11 1 .36 1 .58s-1.06.39-6 .39-5.9-.08-5.9-.43Zm17.14-12.1a7.72 7.72 0 0 0 3.35-3.92c1-2.2 1.18-6.65.34-9.43-1.12-3.71-3.45-5.74-6.54-5.7-2 0-3.4.68-5.13 2.46l-1.25 1.29-.15 5.75c-.1 6.44 0 7.34.87 8.17a7.94 7.94 0 0 0 8.46 1.39Zm-40.7 2.06a16.83 16.83 0 0 1-10-6.93 17.47 17.47 0 0 1-1.75-14 16.17 16.17 0 0 1 11.11-10.53 19.66 19.66 0 0 1 10 .27c6.63 2.17 10.65 8 10.65 15.43a15.24 15.24 0 0 1-7 13.45 18.57 18.57 0 0 1-12.91 2.32Zm7.49-1.93a11.6 11.6 0 0 0 5-4c3.46-5 3.43-14.48-.06-19.72A9.69 9.69 0 0 0 21 160a7.74 7.74 0 0 0-4.09-.74 7.61 7.61 0 0 0-4.35.87c-4.64 2.18-7 6.75-7 13.57 0 7.6 3 12.65 8.43 14.18a13 13 0 0 0 6.64-.25Zm53.09 1.51c-3.11-1-5.19-3.14-6.57-6.65a16.57 16.57 0 0 1-.13-8.65 10.64 10.64 0 0 1 7-6.56 12.19 12.19 0 0 1 7.71.55c2.84 1.35 5.2 4.67 5.2 7.3v.64h-7.6c-4.18 0-7.8.08-8 .17s-.44.58-.44 1.93c0 6.32 3.13 10.24 8.18 10.24 2.44 0 3.75-.64 5.58-2.71 1.21-1.38 2-1.75 2-.9s-2.83 3.49-4.36 4.24a13.08 13.08 0 0 1-8.62.4Zm8.73-15c.7-1.14-.92-4.26-2.72-5.26a6.73 6.73 0 0 0-5.43-.17 6.06 6.06 0 0 0-2.89 3.45c-.44 1.49-.39 2.18.17 2.34.27.07 2.77.12 5.56.09 4.1 0 5.12-.12 5.32-.45Zm7.62 15c-.24-.39.36-.8 1.19-.8a3.13 3.13 0 0 0 1.52-.82l.91-.81.08-7.79.08-7.79-.77-.86a3.21 3.21 0 0 0-2-1.07c-1.22-.2-1.53-.57-.78-.93a44.17 44.17 0 0 1 7.2-.91 3.14 3.14 0 0 1 .24 1.53c0 1.82.45 2 2.18.7a11.84 11.84 0 0 1 6.78-2.59c3.51-.22 5.76.66 7 2.71.53.9.58 1.55.71 8.62.17 9.35.2 9.43 3.42 10.14.44.1.73.32.67.51-.15.45-11.25.63-11.69.19s.26-.82 1.15-.82a3.13 3.13 0 0 0 1.52-.82l.91-.81.08-7.44c.09-8 0-8.39-1.37-9.75-.77-.74-1-.8-3-.8a6.85 6.85 0 0 0-4 .9 15.69 15.69 0 0 0-3.15 2.1L97.65 173l.09 6.5c.11 8 .2 8.29 3.37 9 .44.1.73.32.67.51-.15.47-11.44.63-11.73.17Zm44 0c-.16-.19-2.67-6.17-5.6-13.28s-5.62-13.46-6-14.1a4.35 4.35 0 0 0-3.2-2.46c-.83-.14-1.09-.31-1-.65s.76-.46 6.6-.46c5.6 0 6.51.06 6.51.42s-.3.45-.69.5c-2.19.25-3 .93-3 2.44 0 .61 1.59 5.1 4.16 11.73 2.29 5.91 4.21 10.8 4.29 10.87s.3.07.5 0c.53-.2 8.3-20.09 8.46-21.64s-.64-2.68-2.58-3.17c-.82-.21-1.38-.51-1.38-.74s1-.39 5.82-.39 5.82.06 5.82.4-.42.49-1.07.63c-2.37.49-3.37 1.65-5.24 6.06-.55 1.3-3 7.12-5.34 12.93s-4.47 10.73-4.63 10.92a2.2 2.2 0 0 1-2.37 0Zm19.08-.06a1.14 1.14 0 0 1-.24-.84c.05-.24 4.83-6.45 10.63-13.8s10.54-13.57 10.54-13.82c0-.69-1.34-1-5.13-1-5.53 0-8.25 1-11.7 4.56-2.12 2.18-2.53 2.45-2.86 1.91-.17-.28 2.44-7.06 3-7.72.22-.27 2.83-.35 11.33-.35 10.9 0 11.05 0 11.35.58a1.41 1.41 0 0 1 .16 1c-.08.21-4.85 6.36-10.6 13.66S159.11 186.73 159 187c-.18.71 1.09.9 5.89.88s7.37-.47 10-1.7a13 13 0 0 0 5.27-4.72c.64-1.08 1-1.4 1.46-1.36s.87.61.4.81a27.49 27.49 0 0 0-1.57 4 43.54 43.54 0 0 1-1.61 4.24c-.21.27-3.11.35-12.82.35-10.61-.03-12.58-.09-12.86-.43Z" style="fill:#015e31"/>
		<path d="M36.84 199.76c-.09-.15 0-.33.19-.39 1.7-.5 2.61-1 3.11-1.65s.59-1.09.67-12.38c0-6.38 0-12.25-.09-13-.23-1.86-.8-2.55-2.49-3-1.49-.38-1.93-.9-.92-1.09a57.92 57.92 0 0 1 6.94-.83 1.72 1.72 0 0 1 .22 1c0 1.17.41 1.81.92 1.44l1.61-1.19a9.66 9.66 0 0 1 12.74 1.63c1.85 2.35 2.35 4 2.35 7.9s-.53 5.64-2.46 8c-2.93 3.61-8.55 4.57-13 2.2-2.17-1.16-2.24-1-2.11 3.9.09 3.38.21 4.43.6 5.16a3.71 3.71 0 0 0 2.94 1.72c.32 0 .56.18.56.42s-.83.42-5.81.42c-3.6 0-5.87-.11-6-.28Zm16-11.73c3.68-1.11 5.93-6.09 5.2-11.56-1.09-8.18-7.93-10.77-12.81-4.85l-.76.93v6.26a42.87 42.87 0 0 0 .28 6.78c.35.65 2.39 1.88 4 2.37a6.65 6.65 0 0 0 4.09.04Zm-37.9 1.84-2.08-.43a15.9 15.9 0 0 1-11.77-11.51 21.38 21.38 0 0 1 0-8.33 16.08 16.08 0 0 1 13.26-11.77 12.1 12.1 0 0 1 5.35 0 14.93 14.93 0 0 1 9 4.59 14.08 14.08 0 0 1 3.86 6.91c2.3 9-2.32 17.36-11.09 20a22.21 22.21 0 0 1-6.52.57Zm4.79-1.87c3.94-1.05 6.73-4.12 8-8.8a26.93 26.93 0 0 0 0-10.27c-1.41-5.3-4-8.26-8.23-9.34-5.81-1.49-11.14 1.77-13.21 8.08-.65 2-.74 2.7-.75 6 0 4.12.53 6.66 2 9.14A10.57 10.57 0 0 0 19.73 188Zm54.89 1.49c-6.54-1.55-10.07-9.67-7.15-16.5a11.31 11.31 0 0 1 5.08-5.07c1.53-.71 2-.8 4.5-.8s3 .09 4.44.78a8.9 8.9 0 0 1 5.27 6.66l.2 1.31-8 .07-8 .07-.08 2c-.22 5.5 2.67 9.68 7.07 10.23a7.46 7.46 0 0 0 7-3.08c.35-.57.82-1 1.13-1 .74 0 .67.33-.38 1.72a10.52 10.52 0 0 1-5 3.43 14.71 14.71 0 0 1-6.09.12Zm7.6-15c.47-.25.53-.47.37-1.31a5.75 5.75 0 0 0-4.36-4.8 5.83 5.83 0 0 0-6.63 3.21c-.59 1.29-.67 2.81-.17 3a65.8 65.8 0 0 0 10.79-.16Zm7.91 14.86c-.38-.38-.17-.61.71-.8a3.35 3.35 0 0 0 2.73-1.85c.56-1.34.55-14.42 0-15.76a3.19 3.19 0 0 0-2.92-1.7c-.89 0-.95-.78-.08-.94a58.09 58.09 0 0 1 6.92-.83 3.33 3.33 0 0 1 .21 1.52c0 1.89.45 2 2.53.53a12 12 0 0 1 6.62-2.42c3.48-.24 5.74.74 6.86 3 .6 1.18.62 1.54.63 8.06a63.72 63.72 0 0 0 .3 7.89 3.09 3.09 0 0 0 2.62 2.45c.7.18 1.22.46 1.16.63-.15.45-11.61.44-11.76 0-.06-.18.3-.41.81-.52 3-.65 3.13-1.06 3.13-9.73 0-7.82-.14-8.48-2-9.62-2.13-1.32-6.57-.15-9.62 2.55l-1.29 1.14v6c0 8 .28 8.87 2.92 9.53.7.18 1.22.46 1.16.63-.12.35-11.32.61-11.65.27Zm44-.17c-.15-.19-2.55-5.92-5.34-12.73s-5.41-13.07-5.83-13.91c-1-1.91-1.82-2.72-3.36-3.18-.68-.2-1.21-.53-1.21-.74 0-.53 12.92-.58 13.1 0 .1.31-.14.4-2.08.8a2.9 2.9 0 0 0-1.21.71c-.47.47-.55.82-.45 1.87s7.27 20.17 8.26 22c.27.51.38.54.71.21s2.2-5 4.41-10.62c4.51-11.46 4.66-12.11 3.17-13.37a4.17 4.17 0 0 0-2.61-1.06c-.3 0-.55-.27-.55-.5s.84-.41 5.68-.41c5 0 5.69.05 5.77.45s-.2.5-1 .62a4.88 4.88 0 0 0-3.55 2.53c-.41.7-3.12 7.06-6 14.13s-5.4 13-5.55 13.21a1.8 1.8 0 0 1-1.18.35 1.78 1.78 0 0 1-1.18-.35Zm19.22-.09a1.45 1.45 0 0 1-.44-.71c0-.15 4.8-6.37 10.67-13.82s10.67-13.7 10.67-13.89c0-.71-1.53-1-5.4-1-3.31 0-4.14.09-5.68.62a13.92 13.92 0 0 0-6.21 4.23c-1.74 1.89-2.19 2.18-2.52 1.65-.22-.36 2.58-7.29 3.13-7.73.33-.26 3-.35 11.18-.35 9.39 0 10.79.05 11.18.44a1.45 1.45 0 0 1 .44.78c0 .19-4.8 6.44-10.67 13.9s-10.7 13.68-10.7 13.9c0 .65 1.26.81 6.1.78a23.91 23.91 0 0 0 6.7-.6 13.27 13.27 0 0 0 8.41-5.76c.68-1 1.15-1.47 1.53-1.44.55 0 .77.63.31.8a22.73 22.73 0 0 0-1.52 3.79c-.7 2-1.41 3.94-1.57 4.24-.28.53-.68.54-12.74.54-10.98.01-12.53-.04-12.91-.46Z" style="fill:#080808"/>
	</g>
</svg>
