<svg xmlns="http://www.w3.org/2000/svg" xmlns:xlink="http://www.w3.org/1999/xlink" width="200" height="128">
	<defs>
		<linearGradient id="a" x1="37.909" y1="38.342" x2="40.507" y2="38.342" gradientUnits="userSpaceOnUse">
			<stop offset="0" stop-color="#eee"/>
			<stop offset="1" stop-color="#eee"/>
		</linearGradient>
		<linearGradient id="c" x1="34.516" y1="39.028" x2="37.616" y2="39.028" xlink:href="#a"/>
		<linearGradient id="d" x1="38.263" y1="37.936" x2="39.53" y2="37.936" gradientUnits="userSpaceOnUse">
			<stop offset="0" stop-color="#7114cf"/>
			<stop offset="1" stop-color="#eae7ee" stop-opacity=".45"/>
		</linearGradient>
		<linearGradient id="b" x1="38.391" y1="37.936" x2="39.402" y2="37.936" gradientUnits="userSpaceOnUse">
			<stop offset="0" stop-color="#5a05af"/>
			<stop offset="1" stop-color="#2a1c38"/>
		</linearGradient>
		<linearGradient id="e" x1="36.028" y1="38.55" x2="37.296" y2="38.55" gradientUnits="userSpaceOnUse">
			<stop offset=".02" stop-color="#7114cf"/>
			<stop offset=".177" stop-color="#8130d3" stop-opacity=".868"/>
			<stop offset=".515" stop-color="#aa77de" stop-opacity=".531"/>
			<stop offset="1" stop-color="#eae7ee" stop-opacity="0"/>
		</linearGradient>
		<linearGradient id="f" x1="36.156" y1="38.55" x2="37.168" y2="38.55" xlink:href="#b"/>
		<linearGradient id="g" x1="24.335" y1="48.272" x2="29.803" y2="48.272" gradientUnits="userSpaceOnUse">
			<stop offset="0" stop-color="#6d5744" stop-opacity=".87"/>
			<stop offset=".17" stop-color="#6d5744" stop-opacity=".819"/>
			<stop offset="1" stop-color="#6d5744" stop-opacity=".6"/>
		</linearGradient>
		<linearGradient id="h" x1="32.191" y1="81.146" x2="40.711" y2="81.146" gradientUnits="userSpaceOnUse">
			<stop offset="0" stop-color="#6d5744" stop-opacity=".95"/>
			<stop offset=".588" stop-color="#6d5744" stop-opacity=".57"/>
			<stop offset=".993" stop-color="#6d5744" stop-opacity=".35"/>
		</linearGradient>
		<linearGradient id="i" x1="39.875" y1="42.526" x2="39.592" y2="41.079" gradientUnits="userSpaceOnUse">
			<stop offset=".06" stop-color="#212121"/>
			<stop offset=".507" stop-color="#212121" stop-opacity=".7"/>
			<stop offset="1" stop-color="#212121" stop-opacity=".2"/>
		</linearGradient>
		<linearGradient id="j" x1="22.747" y1="84.805" x2="35.954" y2="90.121" gradientUnits="userSpaceOnUse">
			<stop offset="0" stop-color="#6d5744"/>
			<stop offset=".993" stop-color="#6d5744" stop-opacity=".35"/>
		</linearGradient>
		<linearGradient id="k" x1="32.639" y1="76.059" x2="39.623" y2="76.059" gradientUnits="userSpaceOnUse">
			<stop offset="0" stop-color="#6d5744"/>
			<stop offset=".245" stop-color="#6d5744" stop-opacity=".919"/>
			<stop offset="1" stop-color="#6d5744" stop-opacity=".7"/>
		</linearGradient>
		<linearGradient id="l" x1="26.583" y1="59.982" x2="32.678" y2="61.217" gradientUnits="userSpaceOnUse">
			<stop offset="0" stop-color="#6d5744" stop-opacity=".6"/>
			<stop offset=".245" stop-color="#6d5744" stop-opacity=".519"/>
			<stop offset="1" stop-color="#6d5744" stop-opacity=".3"/>
		</linearGradient>
		<linearGradient id="m" x1="25.135" y1="55.776" x2="31.041" y2="55.776" gradientUnits="userSpaceOnUse">
			<stop offset="0" stop-color="#6d5744" stop-opacity=".7"/>
			<stop offset=".197" stop-color="#6d5744" stop-opacity=".639"/>
			<stop offset="1" stop-color="#6d5744" stop-opacity=".42"/>
		</linearGradient>
		<linearGradient id="n" x1="27.549" y1="47.32" x2="30.918" y2="47.32" gradientUnits="userSpaceOnUse">
			<stop offset="0" stop-color="#6d5744" stop-opacity=".8"/>
			<stop offset=".111" stop-color="#6d5744" stop-opacity=".769"/>
			<stop offset="1" stop-color="#6d5744" stop-opacity=".55"/>
		</linearGradient>
		<linearGradient id="o" x1="26.761" y1="40.246" x2="31.562" y2="40.246" gradientUnits="userSpaceOnUse">
			<stop offset="0" stop-color="#6d5744" stop-opacity=".8"/>
			<stop offset="1" stop-color="#6d5744" stop-opacity=".67"/>
		</linearGradient>
		<linearGradient id="p" x1="29.817" y1="37.022" x2="33.903" y2="37.022" gradientUnits="userSpaceOnUse">
			<stop offset="0" stop-color="#6d5744" stop-opacity=".77"/>
			<stop offset="1" stop-color="#6d5744" stop-opacity=".6"/>
		</linearGradient>
	</defs>
	<path d="M48.868 80.117a3.673 3.673 0 0 1 .077 2.405 5.4 5.4 0 0 1-2.037 2.548l.073.116.1-.07a3.264 3.264 0 0 1 .081 2.877c-.728 1.625-3.116 2.181-3.14 2.185l.031.133c.018 0 .112-.028.259-.07a2.966 2.966 0 0 1-1.663 2.349 6.816 6.816 0 0 1-3.56.7l-.01.133s.126.01.322.014a5.266 5.266 0 0 1-3.406 1.4 9.43 9.43 0 0 1-4.537-.766l-.063.122c.007 0 .094.046.248.109a4.92 4.92 0 0 1-5.839.227l-.084.109c.007 0 .144.1.378.238a4.158 4.158 0 0 1-4.432-1.194 6.8 6.8 0 0 1-1.519-4.74 5.928 5.928 0 0 1 2.2-4.085 4.146 4.146 0 0 1 3.994-.522 5.51 5.51 0 0 0-.878.455 6.057 6.057 0 0 0-2.363 4.04l.133.018a5.92 5.92 0 0 1 2.3-3.946 5.053 5.053 0 0 1 3.584-.773 4.589 4.589 0 0 0-1.911 1.445 4.275 4.275 0 0 0-.557 3.984l.13-.038a4.148 4.148 0 0 1 .532-3.865 4.967 4.967 0 0 1 2.857-1.726 3.112 3.112 0 0 0-.634 1.169l.129.039a3.339 3.339 0 0 1 1.908-2.076 3.1 3.1 0 0 0-.157 1.432 5.042 5.042 0 0 0 1.859 3.164l.08-.108a4.916 4.916 0 0 1-1.806-3.074 3.1 3.1 0 0 1 1.2-2.807 3.585 3.585 0 0 0 .126.658l.127-.039a3.523 3.523 0 0 1 .252-2.569 3.3 3.3 0 0 0 .571.91 8.93 8.93 0 0 0 4.084 2.272l.032-.129a8.788 8.788 0 0 1-4.012-2.233 2.739 2.739 0 0 1-.444-3.148c.021.021.035.039.052.056a8.238 8.238 0 0 0 3.781 1.905l.024-.133a8.047 8.047 0 0 1-3.71-1.866 2.539 2.539 0 0 1-.784-3.063l.024-.042-.035-.039a17.9 17.9 0 0 1-3-5.051c-1.87-4.274-1.068-6.634-.928-6.987a2.572 2.572 0 0 0 .637.063 10.8 10.8 0 0 0 2.863-.445l-.045-.129a8.421 8.421 0 0 1-3.48.36 4.052 4.052 0 0 1-2-2.3A2.74 2.74 0 0 1 27 57.762a3.572 3.572 0 0 0 1.452.238 12.964 12.964 0 0 0 2.419-.276l-.028-.13c-.028 0-2.688.571-3.777.046a3.6 3.6 0 0 1-1.75-2.017A3.558 3.558 0 0 1 25.7 52.6a4.227 4.227 0 0 0 2.486.942h.01v-.133a4.08 4.08 0 0 1-3.385-2.08 3.633 3.633 0 0 1 .241-3.9 5.831 5.831 0 0 0 3.494 2.748l.045-.126c-2.251-.8-3.507-2.107-3.85-3.987-.354-1.94 1.5-3.459 1.893-3.76a6.309 6.309 0 0 0 2.92 4.939l.073-.112a6.149 6.149 0 0 1-2.576-7.1c1.04-3.575 5.317-6.162 9.154-5.542a6.388 6.388 0 0 1 5.08 3.816l-.056.1a2.239 2.239 0 0 1 1.085 2.059 2.059 2.059 0 0 1-.872 1.694 1.586 1.586 0 0 1-1.337.2l-.063-.024-.021.066c-.018.046-.431 1.173-2.241 1.2h-.049A2.019 2.019 0 0 1 35.65 42l-.133.025a2.189 2.189 0 0 0 2.208 1.719.237.237 0 0 0 .053 0 2.423 2.423 0 0 0 2.338-1.232 1.738 1.738 0 0 0 1.394-.231l.028-.021a1.84 1.84 0 0 1-.546 1.379 1.467 1.467 0 0 1-1.065.3l-.021.133a1.809 1.809 0 0 0 .189.011 1.582 1.582 0 0 0 .736-.175 8.822 8.822 0 0 1-3.893 3.518l.052.126a.307.307 0 0 1 .032-.014 2.909 2.909 0 0 1-.658.861l.091.1a4.3 4.3 0 0 0 .364-.385 3.346 3.346 0 0 1-.361 3.518l.1.087a2.438 2.438 0 0 0 .252-.367 3.287 3.287 0 0 1 .829 3.675l.123.053a1.986 1.986 0 0 0 .077-.214 5.125 5.125 0 0 1 2.345 3.165l.014.045.046.007c.007 0 .7.109 2.219 2.409.483.735 1.086 1.645 1.747 2.888 3.326 6.235 2.188 9.21 2.178 9.242l-.021.049.042.028a3.326 3.326 0 0 1 1.494 2.1 2.22 2.22 0 0 1-.332 1.534l.108.08a1.525 1.525 0 0 0 .137-.238 3.755 3.755 0 0 1 1.26 1.845 2.892 2.892 0 0 1-.427 2.195l.108.077a1.353 1.353 0 0 0 .111-.175z" fill="#6c3"/>
	<path d="M38.793 50.032a2.992 2.992 0 0 0-.276-.01 17.9 17.9 0 0 0-1.313.07h-.035a.861.861 0 0 0-.721.816.694.694 0 0 0 .182.515.593.593 0 0 0 .416.171h.046l.021-.007a3.085 3.085 0 0 1 .784-.133 1.54 1.54 0 0 1 .417.063 1.445 1.445 0 0 0 .4.063h.045c.539-.018.9-.308.9-.721a.862.862 0 0 0-.866-.827zm-.045 1.338a.127.127 0 0 1-.035 0c-.284 0-.438-.126-.816-.126a3.174 3.174 0 0 0-.84.14h-.011c-.059 0-.392-.021-.388-.472.007-.5.542-.61.563-.617 0 0 .781-.066 1.3-.066.1 0 .189 0 .259.007a.657.657 0 0 1 .672.62c-.004.3-.281.5-.704.514z" fill="#816647"/>
	<path d="M39.448 50.859c0 .3-.277.5-.7.511a.127.127 0 0 1-.035 0c-.284 0-.438-.126-.816-.126a3.174 3.174 0 0 0-.84.14h-.011c-.059 0-.392-.021-.388-.472.007-.5.542-.61.563-.617 0 0 .781-.066 1.3-.066.1 0 .189 0 .259.007a.657.657 0 0 1 .668.623z" fill="#ff9"/>
	<path d="M40.55 53.19a.992.992 0 0 0-.735-.28 1.891 1.891 0 0 0-.273.024 16.328 16.328 0 0 0-1.586.4 1.065 1.065 0 0 0-.735.868.688.688 0 0 0 .641.739h.059l.049-.024a3.011 3.011 0 0 1 1.376-.438c.1 0 .189.007.3.014a.979.979 0 0 0 .1 0 .911.911 0 0 0 .984-.8.668.668 0 0 0-.18-.503zm-.8 1.1a.447.447 0 0 1-.073 0c-.119-.007-.224-.014-.326-.014a3.182 3.182 0 0 0-1.467.459.487.487 0 0 1-.448-.522c.021-.483.589-.672.589-.672a15.732 15.732 0 0 1 1.557-.4 1.466 1.466 0 0 1 .238-.021c.466 0 .728.266.7.564a.7.7 0 0 1-.775.609z" fill="#816647"/>
	<path d="M40.519 53.684a.7.7 0 0 1-.774.609.447.447 0 0 1-.073 0c-.119-.007-.224-.014-.326-.014a3.182 3.182 0 0 0-1.467.459.487.487 0 0 1-.448-.522c.021-.483.589-.672.589-.672a15.732 15.732 0 0 1 1.557-.4 1.466 1.466 0 0 1 .238-.021c.466-.003.728.263.704.561z" fill="#ff9"/>
	<path d="M42.892 56.257a.8.8 0 0 0-.724-.382 1.3 1.3 0 0 0-.41.07 6.928 6.928 0 0 0-2.023.627l-.014.007-.014.01a.842.842 0 0 0-.242.973.587.587 0 0 0 .56.431.667.667 0 0 0 .315-.081 2.7 2.7 0 0 1 1.415-.465 1.261 1.261 0 0 1 .171.01h.063a1.081 1.081 0 0 0 .917-.5.679.679 0 0 0-.014-.7zm-.9.994h-.024a1.253 1.253 0 0 0-.21-.014 2.859 2.859 0 0 0-1.516.493.486.486 0 0 1-.214.053.385.385 0 0 1-.364-.294.631.631 0 0 1 .172-.732 6.9 6.9 0 0 1 1.974-.609 1.13 1.13 0 0 1 .361-.063.611.611 0 0 1 .546.28c.263.435-.227.886-.728.886z" fill="#816647"/>
	<path d="M41.989 57.251h-.024a1.253 1.253 0 0 0-.21-.014 2.859 2.859 0 0 0-1.516.493.486.486 0 0 1-.214.053.385.385 0 0 1-.364-.294.631.631 0 0 1 .172-.732 6.9 6.9 0 0 1 1.974-.609 1.13 1.13 0 0 1 .361-.063.611.611 0 0 1 .546.28c.266.435-.224.886-.725.886z" fill="#ff9"/>
	<path d="M45.052 59.841a1.346 1.346 0 0 0-.864-.266 2.312 2.312 0 0 0-.392.035 1.159 1.159 0 0 0-.4-.07 2.5 2.5 0 0 0-1.148.371l-.014.011-.014.01a.825.825 0 0 0-.266.959.775.775 0 0 0 .756.35 1.913 1.913 0 0 0 .3-.024h.028a2.28 2.28 0 0 1 .627-.081h.273c1.022 0 1.3-.361 1.379-.578a.643.643 0 0 0-.265-.717zm-1.12 1.082h-.271a2.418 2.418 0 0 0-.693.091 1.559 1.559 0 0 1-.259.021.631.631 0 0 1-.571-.238c-.185-.339.221-.7.221-.7a2.285 2.285 0 0 1 1.036-.34.818.818 0 0 1 .378.081 1.887 1.887 0 0 1 .417-.046 1.2 1.2 0 0 1 .735.217c.414.329.275.914-.993.914z" fill="#816647"/>
	<path d="M43.932 60.923h-.271a2.418 2.418 0 0 0-.693.091 1.559 1.559 0 0 1-.259.021.631.631 0 0 1-.571-.238c-.185-.339.221-.7.221-.7a2.285 2.285 0 0 1 1.036-.34.818.818 0 0 1 .378.081 1.887 1.887 0 0 1 .417-.046 1.2 1.2 0 0 1 .735.217c.414.329.275.914-.993.914z" fill="#ff9"/>
	<path d="M45.542 92.716a2.306 2.306 0 0 0-1.365-1.554l-.1-.039-.091.06c-.35.234-.935.675-.942 1.011a.311.311 0 0 0 .133.266 3.038 3.038 0 0 0 .743.333 1.534 1.534 0 0 0 .094.675 1.213 1.213 0 0 0 .945.869.6.6 0 0 0 .462-.256 1.523 1.523 0 0 0 .121-1.365zm-.581 1.411a1.022 1.022 0 0 1-.745-.729 1.047 1.047 0 0 1-.046-.749 3.362 3.362 0 0 1-.868-.36c-.284-.2.8-.931.8-.931a2.134 2.134 0 0 1 1.232 1.407c.271 1.057-.17 1.362-.373 1.362z" fill="#816647"/>
	<path d="M44.961 94.127a1.022 1.022 0 0 1-.745-.729 1.047 1.047 0 0 1-.046-.749 3.362 3.362 0 0 1-.868-.36c-.284-.2.8-.931.8-.931a2.134 2.134 0 0 1 1.232 1.407c.271 1.057-.17 1.362-.373 1.362z" fill="#ff9"/>
	<path d="M50.6 73.105a1.509 1.509 0 0 0-1.246-.605.564.564 0 0 0-.126.014 2.681 2.681 0 0 1-.319.042h-1.742a.82.82 0 0 0-.441.14l-.032.021-.021.031a.906.906 0 0 0 .077 1.092.905.905 0 0 0 1.078.27.853.853 0 0 1 .189-.063c.217-.007.434-.011.648-.011.861 0 1.418.063 1.425.063l.056.007.049-.024a.746.746 0 0 0 .441-.424.735.735 0 0 0-.036-.553zm-.487.784a14.413 14.413 0 0 0-1.449-.063c-.207 0-.431 0-.669.011a1.056 1.056 0 0 0-.255.084.73.73 0 0 1-.284.056.671.671 0 0 1-.542-.27.7.7 0 0 1-.07-.84.642.642 0 0 1 .325-.1h1.758a2.913 2.913 0 0 0 .35-.049.326.326 0 0 1 .077-.007 1.312 1.312 0 0 1 1.06.493.486.486 0 0 1-.3.685z" fill="#816647"/>
	<path d="M50.114 73.889a14.413 14.413 0 0 0-1.449-.063c-.207 0-.431 0-.669.011a1.056 1.056 0 0 0-.255.084.73.73 0 0 1-.284.056.671.671 0 0 1-.542-.27.7.7 0 0 1-.07-.84.642.642 0 0 1 .325-.1h1.758a2.913 2.913 0 0 0 .35-.049.326.326 0 0 1 .077-.007 1.312 1.312 0 0 1 1.06.493.486.486 0 0 1-.301.685z" fill="#ff9"/>
	<path d="M51.8 78.857a1.1 1.1 0 0 0-1-.434c-.2 0-.4.021-.574.038a3.059 3.059 0 0 1-.3.025 1.247 1.247 0 0 1-.532-.123l-.052-.028h-.06a.729.729 0 0 0-.7.7 1.689 1.689 0 0 0 .133.885l.094.179.183-.088.147-.07a1.142 1.142 0 0 1 .336-.035c.192 0 .416.018.633.039s.417.035.588.035h.074a1.3 1.3 0 0 0 1.047-.49.635.635 0 0 0-.017-.633zm-1.033.917H50.7c-.339 0-.833-.074-1.221-.074a1.224 1.224 0 0 0-.427.056l-.147.07a1.494 1.494 0 0 1-.109-.77.525.525 0 0 1 .5-.511 1.372 1.372 0 0 0 .62.151h.017c.193 0 .539-.063.872-.063a.87.87 0 0 1 .812.325c.283.525-.379.798-.855.816z" fill="#816647"/>
	<path d="M50.762 79.774H50.7c-.339 0-.833-.074-1.221-.074a1.224 1.224 0 0 0-.427.056l-.147.07a1.494 1.494 0 0 1-.109-.77.525.525 0 0 1 .5-.511 1.372 1.372 0 0 0 .62.151h.017c.193 0 .539-.063.872-.063a.87.87 0 0 1 .812.325c.283.525-.379.798-.855.816z" fill="#ff9"/>
	<path d="M50.2 86.789a1.569 1.569 0 0 0-.627-.9 1.6 1.6 0 0 1-.388-.368 3.7 3.7 0 0 0-1.544-.994h-.021a.928.928 0 0 0-.21-.021.821.821 0 0 0-.83.585.65.65 0 0 0 .046.511 1.464 1.464 0 0 0 .822.574l.217.123c.525.29.872.479 1.033.913.277.735.679.844.893.844a.591.591 0 0 0 .084 0l.038-.007a.67.67 0 0 0 .55-.276 1.111 1.111 0 0 0-.063-.984zm-.553 1.05a.269.269 0 0 1-.056 0c-.231 0-.5-.175-.7-.707-.214-.578-.711-.788-1.365-1.155 0 0-.928-.266-.749-.83a.616.616 0 0 1 .63-.438.871.871 0 0 1 .164.014 3.565 3.565 0 0 1 1.446.924c.48.61.613.27.984 1.215s-.118.946-.359.977z" fill="#816647"/>
	<path d="M49.642 87.839a.269.269 0 0 1-.056 0c-.231 0-.5-.175-.7-.707-.214-.578-.711-.788-1.365-1.155 0 0-.928-.266-.749-.83a.616.616 0 0 1 .63-.438.871.871 0 0 1 .164.014 3.565 3.565 0 0 1 1.446.924c.48.61.613.27.984 1.215s-.113.946-.354.977z" fill="#ff9"/>
	<path d="M37.214 37.772a3.082 3.082 0 0 0-2.432-.648 1.5 1.5 0 0 0-.742.471c-.3.361-.51 1.158.33 2.065a2.781 2.781 0 0 0 1.468.8c1.15.217 2.253-.4 2.092-1.355 0 0 1.57 1.242 2.667.1a1.137 1.137 0 0 0 .056-1.415 2.855 2.855 0 0 0-1.487-1.134c-.685-.162-1.851-.139-1.952 1.116z" fill="#2d8b17"/>
	<path d="M40.428 38.932a.928.928 0 0 1-.816.4 1.7 1.7 0 0 1-.92-.3c-.637-.413-.806-.875-.781-1.148a.531.531 0 0 1 .27-.437.815.815 0 0 1 .392-.088 1.414 1.414 0 0 1 .231.021c.85.137.878-.031 1.323.3a1.141 1.141 0 0 1 .301 1.252z" fill="url(#a)"/>
	<path d="M37.564 38.5a1.184 1.184 0 0 0-1.246-.651 2.76 2.76 0 0 1-.528-.038 3.106 3.106 0 0 0-.529-.053 1.062 1.062 0 0 0-.6.151.662.662 0 0 0-.27.43 1.467 1.467 0 0 0 .816 1.506 2.44 2.44 0 0 0 1.33.451 1.369 1.369 0 0 0 .938-.322 1.221 1.221 0 0 0 .089-1.474zm-.185 1.369a1.278 1.278 0 0 1-.844.284 2.264 2.264 0 0 1-1.249-.427c-.781-.519-.806-1.075-.753-1.359a.515.515 0 0 1 .206-.339.919.919 0 0 1 .522-.126 2.852 2.852 0 0 1 .5.052c.693.126 1.25-.175 1.67.616a1.083 1.083 0 0 1-.052 1.3zm2.835-2.309a1.086 1.086 0 0 0-.752-.263 4.878 4.878 0 0 1-.634-.066 1.673 1.673 0 0 0-.255-.021.946.946 0 0 0-.459.1.684.684 0 0 0-.347.553c-.014.161.007.738.848 1.281a1.839 1.839 0 0 0 1 .325 1.063 1.063 0 0 0 .939-.469 1.268 1.268 0 0 0-.34-1.44zm.214 1.372a.928.928 0 0 1-.816.4 1.7 1.7 0 0 1-.92-.3c-.637-.413-.806-.875-.781-1.148a.531.531 0 0 1 .27-.437.815.815 0 0 1 .392-.088 1.414 1.414 0 0 1 .231.021c.85.137.878-.031 1.323.3a1.141 1.141 0 0 1 .301 1.252z" fill="#015a01"/>
	<path d="M37.379 39.87a1.278 1.278 0 0 1-.844.284 2.264 2.264 0 0 1-1.249-.427c-.781-.519-.806-1.075-.753-1.359a.515.515 0 0 1 .206-.339.919.919 0 0 1 .522-.126 2.852 2.852 0 0 1 .5.052c.693.126 1.25-.175 1.67.616a1.083 1.083 0 0 1-.052 1.299z" fill="url(#c)"/>
	<circle cx="38.896" cy="37.936" r=".634" fill="url(#d)"/>
	<circle cx="38.896" cy="37.936" r=".506" fill="url(#b)"/>
	<circle cx="38.896" cy="37.936" r=".378" fill="#212121"/>
	<circle cx="36.662" cy="38.55" r=".634" fill="url(#e)"/>
	<circle cx="36.662" cy="38.55" r=".506" fill="url(#f)"/>
	<circle cx="36.662" cy="38.55" r=".378" fill="#212121"/>
	<ellipse cx="33.614" cy="41.893" rx="1.942" ry="2.378" transform="rotate(-55.07 33.614 41.894)" fill="#57bd2b"/>
	<ellipse cx="33.996" cy="41.994" rx="1.607" ry="2.001" transform="rotate(-49.764 33.996 41.994)" fill="#4db426"/>
	<path d="M33.2 87.426a1.047 1.047 0 0 0-.059.126c.08.067.129.1.133.1l.08-.108a1.446 1.446 0 0 1-.154-.118zM30.843 57.6a14.057 14.057 0 0 1-1.838.249 1.2 1.2 0 0 1-.248.15 13.284 13.284 0 0 0 2.114-.269zm18.365 20.378a3.838 3.838 0 0 0-1.334-1.936 2.305 2.305 0 0 0 .164-1.267 3.419 3.419 0 0 0-1.508-2.156c.147-.424.966-3.372-2.2-9.3a33.557 33.557 0 0 0-1.757-2.906c-1.358-2.058-2.08-2.4-2.265-2.454a5.211 5.211 0 0 0-2.43-3.22 3.316 3.316 0 0 0-1-3.508 3.45 3.45 0 0 0 .028-3.238 1.941 1.941 0 0 0 .294-.543 9.616 9.616 0 0 0 1.782-1.151 7.645 7.645 0 0 0 2.069-2.524h-.014l.038-.028a2.036 2.036 0 0 0 .6-1.589 2.287 2.287 0 0 0 .763-1.67 2.339 2.339 0 0 0-.987-2.072 6.461 6.461 0 0 0-5.231-4.056c-3.9-.627-8.247 2-9.3 5.636a7.037 7.037 0 0 0-.29 2.149c-.081.06-2.43 1.73-2.023 3.949a4.883 4.883 0 0 0 .378 1.2 3.789 3.789 0 0 0-.291 4.106 4.306 4.306 0 0 0 .907 1.11 3.7 3.7 0 0 0-.41 3.157 3.783 3.783 0 0 0 1.7 2.027 2.847 2.847 0 0 0-.123 2.066 4.222 4.222 0 0 0 2.024 2.363c-.165.4-.973 2.741.931 7.088a18.688 18.688 0 0 0 2.99 5.059 2.7 2.7 0 0 0 .682 3.021 2.948 2.948 0 0 0-.192 2.254 3.665 3.665 0 0 0-.459 1.964 3.381 3.381 0 0 0-1.1 1.379 3.71 3.71 0 0 0-1.32.872 5.3 5.3 0 0 0-.98.277 4.875 4.875 0 0 0-2.822.227 4.262 4.262 0 0 0-4.246.48 6.1 6.1 0 0 0-2.261 4.19c0 .028-.221 3.032 1.561 4.841a4.793 4.793 0 0 0 1.883 1.229 2.755 2.755 0 0 0 .266.081 4.062 4.062 0 0 0 1.058.14c.126 0 .248-.007.364-.018a1.951 1.951 0 0 0 .21-.024 4.221 4.221 0 0 0 .91-.224 5.084 5.084 0 0 0 2.289.556 4.87 4.87 0 0 0 1.527-.248c.07-.021.14-.046.206-.07a5.507 5.507 0 0 0 .934-.459q.105-.057.21-.126c.112-.077.227-.157.343-.241l-.018-.021a9.894 9.894 0 0 0 3.5.651c.242 0 .49-.011.742-.032a5.109 5.109 0 0 0 3.578-1.533 6.3 6.3 0 0 0 3.136-.732A3.121 3.121 0 0 0 44.45 90.2a4.614 4.614 0 0 0 2.832-2.149 3.412 3.412 0 0 0-.091-3.011 5.187 5.187 0 0 0 1.884-2.475 3.676 3.676 0 0 0-.126-2.594 2.845 2.845 0 0 0 .259-1.993zm-.238 2.43a3.773 3.773 0 0 1-.025 2.114 5.3 5.3 0 0 1-1.992 2.517.544.544 0 0 1-.045.031l.073.116.1-.07c.028.049.067.129.112.231a3.268 3.268 0 0 1-.031 2.643c-.728 1.625-3.116 2.181-3.14 2.185l.031.133c.018 0 .112-.028.259-.07a3.752 3.752 0 0 1-.115.567 3.168 3.168 0 0 1-1.548 1.782 4.326 4.326 0 0 1-1.337.525 8.2 8.2 0 0 1-2.223.175l-.01.133s.126.01.322.014l-.074.073a5.377 5.377 0 0 1-3.332 1.327 9.43 9.43 0 0 1-4.537-.766l-.063.122c.007 0 .094.046.248.109a5.606 5.606 0 0 1-.353.238c-.077.052-.158.1-.238.143a5.3 5.3 0 0 1-.844.4c-.07.028-.136.049-.2.07a4.833 4.833 0 0 1-3.623-.28 3.508 3.508 0 0 1-.578-.34l-.084.109c.007 0 .144.1.378.238a4.306 4.306 0 0 1-.8.182l-.224.021a3.967 3.967 0 0 1-1.425-.154 5.194 5.194 0 0 1-.248-.084 4.744 4.744 0 0 1-1.737-1.159 6.8 6.8 0 0 1-1.519-4.74.492.492 0 0 1 .007-.073 5.874 5.874 0 0 1 2.2-4.012 4.146 4.146 0 0 1 3.994-.522 5.51 5.51 0 0 0-.878.455A6.057 6.057 0 0 0 23.1 88.83l.133.018a5.92 5.92 0 0 1 2.3-3.946 5.053 5.053 0 0 1 3.584-.773 4.589 4.589 0 0 0-1.911 1.445 4.275 4.275 0 0 0-.557 3.984l.13-.038a4.148 4.148 0 0 1 .532-3.865 4.967 4.967 0 0 1 2.857-1.726 2.842 2.842 0 0 0-.354.5 3.153 3.153 0 0 0-.221.476c-.021.06-.042.123-.059.189l.129.039a.368.368 0 0 1 .018-.053 2.942 2.942 0 0 1 .224-.539 3.457 3.457 0 0 1 1.666-1.484 3.1 3.1 0 0 0-.157 1.432 4.855 4.855 0 0 0 1.463 2.814c.1.105.193.186.263.245s.129.1.133.1l.08-.108a1.446 1.446 0 0 1-.15-.123c-.056-.052-.129-.115-.21-.192a4.793 4.793 0 0 1-1.442-2.759 2.983 2.983 0 0 1 .269-1.659 3.318 3.318 0 0 1 .932-1.148 3.585 3.585 0 0 0 .126.658l.122-.03a3.319 3.319 0 0 1-.133-1.025 3.57 3.57 0 0 1 .385-1.54 3.3 3.3 0 0 0 .571.91 8.425 8.425 0 0 0 3.637 2.149c.269.084.437.126.444.126l.032-.129c-.007 0-.161-.039-.413-.116a8.3 8.3 0 0 1-3.6-2.117 3.136 3.136 0 0 1-.595-.984 2.737 2.737 0 0 1 .151-2.164c.021.021.035.039.052.056a8.238 8.238 0 0 0 3.781 1.905l.024-.133a8.047 8.047 0 0 1-3.71-1.866c-.025-.025-.053-.053-.074-.077a3 3 0 0 1-.917-1.778 2.091 2.091 0 0 1 .207-1.208l.024-.042-.035-.039a17.9 17.9 0 0 1-3-5.051c-1.474-3.371-1.289-5.549-1.075-6.494a3.835 3.835 0 0 1 .147-.493 2.572 2.572 0 0 0 .637.063 7.548 7.548 0 0 0 .851-.053 9.752 9.752 0 0 0 2.012-.392l-.045-.129a9.638 9.638 0 0 1-1.862.374 4.251 4.251 0 0 1-1.618-.014 4.052 4.052 0 0 1-2-2.3 2.807 2.807 0 0 1-.1-1.18 2.46 2.46 0 0 1 .217-.78 2.8 2.8 0 0 0 .928.217c.168.014.343.021.518.021.1 0 .2 0 .3-.007a13.284 13.284 0 0 0 2.114-.269l-.028-.13a14.057 14.057 0 0 1-1.838.249 6.752 6.752 0 0 1-1.158-.011 2.41 2.41 0 0 1-.781-.192 3.6 3.6 0 0 1-1.75-2.017 3.468 3.468 0 0 1-.091-1.886A3.61 3.61 0 0 1 25.7 52.6a4.227 4.227 0 0 0 2.486.942h.01v-.133a3.9 3.9 0 0 1-1.233-.245 4.25 4.25 0 0 1-.836-.424 4.036 4.036 0 0 1-1.316-1.411 4.137 4.137 0 0 1-.193-.381v-.007a3.685 3.685 0 0 1 .437-3.508 4.636 4.636 0 0 0 1.271 1.551 7.24 7.24 0 0 0 2 1.116c.07.028.14.056.214.081l.028-.074.017-.052a7.384 7.384 0 0 1-2.185-1.167 4.562 4.562 0 0 1-1.669-2.818 3.4 3.4 0 0 1 .812-2.692 6.3 6.3 0 0 1 1.081-1.068 6.124 6.124 0 0 0 1.656 3.868 6.525 6.525 0 0 0 1.264 1.071l.073-.112a6.586 6.586 0 0 1-1.193-1 5.978 5.978 0 0 1-1.667-4.425 6.912 6.912 0 0 1 1.821-4.379 8.237 8.237 0 0 1 1.235-1.128A8.96 8.96 0 0 1 33.9 34.49a7.428 7.428 0 0 1 2.3 0 6.388 6.388 0 0 1 5.08 3.816l-.056.1a2.239 2.239 0 0 1 1.085 2.059 2.059 2.059 0 0 1-.872 1.694 1.586 1.586 0 0 1-1.337.2l-.063-.024-.021.066c-.018.046-.431 1.173-2.241 1.2h-.049A2.019 2.019 0 0 1 35.65 42l-.133.025a2.189 2.189 0 0 0 2.208 1.719.237.237 0 0 0 .053 0 2.423 2.423 0 0 0 2.338-1.232 1.738 1.738 0 0 0 1.394-.231l.028-.021a1.84 1.84 0 0 1-.546 1.379 1.467 1.467 0 0 1-1.065.3l-.021.133a1.809 1.809 0 0 0 .189.011 1.582 1.582 0 0 0 .736-.175 7.13 7.13 0 0 1-1.054 1.463 9.309 9.309 0 0 1-2.835 2.055l.052.126a.307.307 0 0 1 .032-.014 2.194 2.194 0 0 1-.34.525 3.212 3.212 0 0 1-.318.336l.091.1a4.3 4.3 0 0 0 .364-.385c.045.1.087.2.122.294a3.27 3.27 0 0 1-.017 2.405 3.081 3.081 0 0 1-.466.819l.063.056.039.031a.241.241 0 0 0 .031-.042 2.255 2.255 0 0 0 .221-.325 2.654 2.654 0 0 1 .262.255 3.2 3.2 0 0 1 .7 3 2.669 2.669 0 0 1-.133.416l.123.053a1.986 1.986 0 0 0 .077-.214 2.983 2.983 0 0 1 .511.3 5.49 5.49 0 0 1 1.827 2.829c0 .021.007.031.007.035l.014.045.046.007a1.333 1.333 0 0 1 .553.354 9.948 9.948 0 0 1 1.666 2.055c.032.049.067.1.1.154l.252.388c.413.634.886 1.39 1.393 2.346 3.326 6.235 2.188 9.21 2.178 9.242l-.021.049.042.028c.08.059.157.119.231.178a3.157 3.157 0 0 1 1.263 1.918 2.26 2.26 0 0 1-.259 1.418 1 1 0 0 1-.07.116l.108.08a1.525 1.525 0 0 0 .137-.238 3.783 3.783 0 0 1 .479.455 3.453 3.453 0 0 1 .781 1.39 2.824 2.824 0 0 1-.361 2.09c-.038.066-.066.105-.066.105l.108.077a1.353 1.353 0 0 0 .109-.168c.027.068.058.166.097.293zM30.843 57.6a14.057 14.057 0 0 1-1.838.249 1.2 1.2 0 0 1-.248.15 13.284 13.284 0 0 0 2.114-.269zM33.2 87.426a1.047 1.047 0 0 0-.059.126c.08.067.129.1.133.1l.08-.108a1.446 1.446 0 0 1-.154-.118zm0 0a1.047 1.047 0 0 0-.059.126c.08.067.129.1.133.1l.08-.108a1.446 1.446 0 0 1-.154-.118z" fill="#015a01"/>
	<path d="M27.206 47.824a4.958 4.958 0 0 1-.8 1.064 4.562 4.562 0 0 1-1.669-2.818 3.4 3.4 0 0 1 .812-2.692 6.4 6.4 0 0 1 1.307 1.722 3.441 3.441 0 0 1 .322 1.459c-.018.246.028 1.265.028 1.265zm2.226 3.119c-.252-.385-.294-.764-.045-.806a7.849 7.849 0 0 1-.819-.028l-.028.074c-.074-.025-.144-.053-.214-.081a3.9 3.9 0 0 0-1.453.547 6.287 6.287 0 0 0-1.141-1.049s.27-.27.585-.609a4.636 4.636 0 0 1-1.271-1.551 3.685 3.685 0 0 0-.437 3.508v.007c.084.094 1.071 1.221 1.509 1.792a4.25 4.25 0 0 0 .836.424 1.729 1.729 0 0 0 1.226-.382c.234-.34 0-.515 0-.515a.612.612 0 0 1 .724-.5c.665.049.9.039.9.039a3.237 3.237 0 0 0-.372-.87z" fill="url(#g)"/>
	<path d="M40.852 82.952a1.245 1.245 0 0 0-.561.169c-.357-.319-.357-.162-.815-.106s-.9-.71-.9-.71-.325-.49-.56-.487-.375.263-.4.427a1.346 1.346 0 0 1-.094.413 8.3 8.3 0 0 1-3.6-2.117 3.136 3.136 0 0 1-.595-.984c.028-.109.109-.158.333-.305a2.077 2.077 0 0 0 .4-.35 1.135 1.135 0 0 0 .4.494 3.813 3.813 0 0 1 .626.49c-.266.2-.315.346-.052.427s.259-.088 1.365-.024a16.743 16.743 0 0 0 2 0 .4.4 0 0 0-.091.458c.13.259.609-.035.609-.035s-.2-.276.14-.308a.8.8 0 0 1 .6.312.472.472 0 0 1 .333-.266c.269-.081.5.3.5.3a.657.657 0 0 0-.263.308 1.471 1.471 0 0 0 .186 1.222 3.433 3.433 0 0 0 .439.672zm-7.026-2.324a3.3 3.3 0 0 1-.571-.91 3.57 3.57 0 0 0-.385 1.54 1.041 1.041 0 0 0 .753.731 1.236 1.236 0 0 0 .871.679 1.506 1.506 0 0 1 .932.624 2.469 2.469 0 0 0 1.508-.06 1.148 1.148 0 0 0 .529-.459 8.425 8.425 0 0 1-3.637-2.145z" fill="url(#h)"/>
	<path d="M48.97 80.408a3.773 3.773 0 0 1-.025 2.114 5.3 5.3 0 0 1-1.992 2.517.544.544 0 0 1-.045.031l.073.116.1-.07c.028.049.067.129.112.231a3.268 3.268 0 0 1-.031 2.643c-.728 1.625-3.116 2.181-3.14 2.185l.031.133c.018 0 .112-.028.259-.07a3.752 3.752 0 0 1-.115.567 3.168 3.168 0 0 1-1.548 1.782 4.326 4.326 0 0 1-1.337.525 8.2 8.2 0 0 1-2.223.175l-.01.133s.126.01.322.014l-.074.073a5.377 5.377 0 0 1-3.332 1.327 9.43 9.43 0 0 1-4.537-.766l-.063.122c.007 0 .094.046.248.109a4.93 4.93 0 0 1-5.261.567c-.508-1.506.756-2.983 5.163-2.85s5.3-1.761 6.4-2.6 2.121-2.986 2.541-3.448.6-3.074.168-4.716.288-2.713-.78-3.875a23.3 23.3 0 0 1-2.5-4.26c-.987-2.409-2.307-6.238-2.307-8.71s-.508-2.44-1.614-3.907-.014-1.932-.283-2.4-1.268-.991-1.376-1.5.588-1-.826-2.8.056-2.524.294-2.78.479-.546.5-2.177.767-1.66 2.209-1.985 1.271-.917 2.682-1.285a10.411 10.411 0 0 1 3.115-.21 9.309 9.309 0 0 1-2.835 2.055l.052.126a.307.307 0 0 1 .032-.014 2.194 2.194 0 0 1-.34.525 3.212 3.212 0 0 1-.318.336l.091.1a4.3 4.3 0 0 0 .364-.385c.045.1.087.2.122.294a3.27 3.27 0 0 1-.017 2.405 3.081 3.081 0 0 1-.466.819l.063.056.039.031a.241.241 0 0 0 .031-.042 2.255 2.255 0 0 0 .221-.325 2.654 2.654 0 0 1 .262.255 3.2 3.2 0 0 1 .7 3 2.669 2.669 0 0 1-.133.416l.123.053a1.986 1.986 0 0 0 .077-.214 2.983 2.983 0 0 1 .511.3 5.49 5.49 0 0 1 1.827 2.829c0 .021.007.031.007.035l.014.045.046.007a1.333 1.333 0 0 1 .553.354 9.948 9.948 0 0 1 1.666 2.055c.032.049.067.1.1.154l.252.388c.413.634.886 1.39 1.393 2.346 3.326 6.235 2.188 9.21 2.178 9.242l-.021.049.042.028c.08.059.157.119.231.178a3.157 3.157 0 0 1 1.263 1.918 2.26 2.26 0 0 1-.259 1.418 1 1 0 0 1-.07.116l.108.08a1.525 1.525 0 0 0 .137-.238 3.783 3.783 0 0 1 .479.455 3.453 3.453 0 0 1 .781 1.39 2.824 2.824 0 0 1-.361 2.09c-.038.066-.066.105-.066.105l.108.077a1.353 1.353 0 0 0 .109-.168c.036.076.067.174.106.301z" fill="#5dba2b"/>
	<path d="M37.074 51.6c-.052.007-.248.042-.483.07a2.255 2.255 0 0 0 .221-.325 2.654 2.654 0 0 1 .262.255z" fill="#65a732"/>
	<path d="m38.762 33.908-.081-.07-.182-.161-.066-.059-.088.021-.29.063-.134.031v.137a5.035 5.035 0 0 1-.35 1.743l-.007.018-.007.021a.453.453 0 0 0 .325.518.581.581 0 0 0 .169.028.481.481 0 0 0 .42-.273l.021-.046-.007-.052a5.281 5.281 0 0 1 .252-1.814zm-.455 1.947a.3.3 0 0 1-.259.168.356.356 0 0 1-.113-.018.275.275 0 0 1-.21-.315 5.169 5.169 0 0 0 .368-1.817l.291-.063.182.158a5.294 5.294 0 0 0-.259 1.887z" fill="#424242"/>
	<path d="M38.307 35.855a.3.3 0 0 1-.259.168.356.356 0 0 1-.113-.018.275.275 0 0 1-.21-.315 5.169 5.169 0 0 0 .368-1.817l.291-.063.182.158a5.294 5.294 0 0 0-.259 1.887z" fill="#474747"/>
	<path d="M38.5 31.892a1.04 1.04 0 1 0 1.039 1.04 1.04 1.04 0 0 0-1.039-1.04zm0 1.869a.83.83 0 1 1 .829-.829.829.829 0 0 1-.829.829z" fill="#3c3c3c"/>
	<circle cx="38.503" cy="32.932" r=".83" fill="#474747"/>
	<path d="M40.841 41.606a.994.994 0 0 1-.326.693 1.219 1.219 0 0 1-.8.319 1.322 1.322 0 0 1-.654-.171.942.942 0 0 1-.368-1.289l.046.025.052.031a.82.82 0 0 0 .326 1.135 1.075 1.075 0 0 0 1.323-.13.869.869 0 0 0 .294-.613.956.956 0 0 0-.364-.672l.021-.024.052-.06a1.05 1.05 0 0 1 .398.756z" fill="#333"/>
	<path d="M40.729 41.606a.869.869 0 0 1-.294.613 1.075 1.075 0 0 1-1.323.13.82.82 0 0 1-.326-1.135l-.052-.031 1.652-.273-.021.024a.956.956 0 0 1 .364.672z" fill="url(#i)"/>
	<path fill="#c74100" d="M39.777 45.401h-.004v-.07l.004.07zm-2.832 3.024h-.004v-.041l.004.041zm10.701 27.803h-.003v-.035l.003.035z"/>
	<path d="M36.934 86.418c-.129.284-.4 2-.595 2.4a.388.388 0 0 1-.588.14c.081.119-.07.5-.494.518s-.332-.238-.332-.238a2.032 2.032 0 0 1-1.625-.758.86.86 0 0 1-.164-.928c.08.067.129.1.133.1l.08-.108a1.446 1.446 0 0 1-.15-.123c.115-.2.262-.322.189-.332a.793.793 0 0 0-.4.14 4.793 4.793 0 0 1-1.442-2.759 2.983 2.983 0 0 1 .269-1.659c.827.01.707.973.739 1.257s.494.5.494.5c-.277.522.955.56.955.56 0 .081-.262.371-.262.371l.4-.007a2.157 2.157 0 0 0 .189.62.733.733 0 0 0 .574.392c.046.06.21.193.641 0a.616.616 0 0 1 .679.035s0-.07.277-.056a.952.952 0 0 0 .433-.065zm-5.52-1.925a3.1 3.1 0 0 1 .157-1.432 3.457 3.457 0 0 0-1.666 1.484 4.846 4.846 0 0 1 .8 1.562 3.263 3.263 0 0 1 .641.521c.325.34.185.032.185.032a.75.75 0 0 1 .392.294c-.049-.042-.2-.154-.217-.021a.573.573 0 0 0 .347.644.546.546 0 0 0 .707-.175.671.671 0 0 1 .119-.095 4.855 4.855 0 0 1-1.465-2.814zm-1.775 5.247a2.393 2.393 0 0 0-.389-.206.588.588 0 0 0-.049-.55 1.407 1.407 0 0 1-.346-.693c-.032-.287.14-.4.08-.648s-.168-.794.067-.829c0 0-.133-.06-.07-.1s.168-.049.112-.116a.155.155 0 0 1 .045-.238c.1-.077-.157-.441.312-.455 0 0-.1-.2-.06-.287s.119-.137.217-.2.266-.14.147-.294l-.024-.035a.368.368 0 0 0-.018.053l-.129-.039c.017-.066.038-.129.059-.189-.024-.119.014-.269.2-.5l.025.028a2.842 2.842 0 0 1 .354-.5 4.967 4.967 0 0 0-2.857 1.726 4.148 4.148 0 0 0-.532 3.865l-.13.038a4.275 4.275 0 0 1 .557-3.984 4.589 4.589 0 0 1 1.911-1.445 5.053 5.053 0 0 0-3.584.773 5.92 5.92 0 0 0-2.3 3.946l-.137-.031a6.057 6.057 0 0 1 2.363-4.04 5.51 5.51 0 0 1 .878-.455 4.146 4.146 0 0 0-3.994.522 5.874 5.874 0 0 0-2.2 4.012s.889-.631 1.1-.6a1.433 1.433 0 0 1 .5-1.222c.613-.525.837-.07.728.175 0 0-.192 2.517.781 3.322 0 0 .4.543.889.364s.343-.609.539-.927.854-1.092.914-1.162c-.035.024-.263.171-.35-.07-.1-.263-.067-.526-.266-.652 0 0 .276-.175.164-.847s-.3-1.344-.126-1.558c0 0 .039-.052.252-.094s.749-.392 1.1-.126a.484.484 0 0 1-.091.809c-.231.133.06.353.06.353s-.245.081-.228.235.133.182.151.28-.2.234-.2.234a1.037 1.037 0 0 1 .182 1.173s.179.067.179.221-.259.577.283.847a.389.389 0 0 0-.154.36 1.438 1.438 0 0 0 .525.679.5.5 0 0 1 .211.6 4.842 4.842 0 0 1 .836.487.545.545 0 0 0 .641.031c.1-.108.2-.409.511-.844s.781-1.13.781-1.13a.531.531 0 0 1-.42-.067z" fill="url(#j)"/>
	<path d="M35.455 79.962s-.268.037-.244.114a.535.535 0 0 0 .383.012c.246-.066-.139-.126-.139-.126z" fill="#6b7640"/>
	<ellipse cx="33.569" cy="82.16" rx=".041" ry=".056" transform="rotate(-50.027 33.57 82.16)" fill="#6b7640"/>
	<ellipse cx="39.611" cy="80.39" rx=".081" ry=".043" fill="#6b7640"/>
	<ellipse cx="33.453" cy="84.896" rx=".097" ry=".036" transform="rotate(-14.418 33.451 84.896)" fill="#6b7640"/>
	<path d="M39.623 75.213c.007.143-.343.014-.4.175a.578.578 0 0 1-.207.255s-.182-.3-.224-.157.214.395.214.395c.273-.066.315.385-.021 1.036s-.483.872-.595.848-.154-.26-.357-.281-.148.354-.547 0-.507-.374-.714-.416-.4.143-.878.2-1.229.22-1.229.22c.045-.325-.3-.406-.483-.346s-.627.14-.627.14a3 3 0 0 1-.917-1.778 1.128 1.128 0 0 1 .238-.4 4.336 4.336 0 0 1 .49-.312c.14-.094.21.148.326.3s.206.042.2-.031-.186-.1-.119-.161.115.017.147.063.126-.049.217-.049a.514.514 0 0 0 .178-.043c-.119.134.035.2.284.2s.171-.14.049-.164.22-.26.693-.323a5.4 5.4 0 0 0 .98-.238c-.056.322.42.2.476.182a7.492 7.492 0 0 1-.157.123c-.161.126.934.133.934.133a12.41 12.41 0 0 1 1.67.035c.1.077-.217.14-.206.231s.252.046.192.067-.115.042-.063.136.449-.18.456-.04z" fill="url(#k)"/>
	<path d="M36.974 74.471s-.221.126-.126.2.171-.068.194-.126-.03-.098-.068-.074zm-2.832.247s-.138.066-.1.119.2 0 .2-.047-.063-.09-.1-.072z" fill="#6a833d"/>
	<path d="M30.476 61.48a.493.493 0 0 1 .028.556 4.251 4.251 0 0 1-1.618-.014 4.052 4.052 0 0 1-2-2.3 2.807 2.807 0 0 1-.1-1.18 6.128 6.128 0 0 1 2.3 1.016 2.1 2.1 0 0 1 1.019-.5 1.865 1.865 0 0 0 1.074-.367c.084-.127.347.017.347.017a1.594 1.594 0 0 1 .959 1.281 3.79 3.79 0 0 1-2.461.627s.182.122.186.266a2.541 2.541 0 0 0 .266.598zm-.928.756a2.572 2.572 0 0 1-.637-.063 3.835 3.835 0 0 0-.147.493s.367.375 1.25-.164a1.582 1.582 0 0 0 .385-.319 7.548 7.548 0 0 1-.851.053z" fill="url(#l)"/>
	<ellipse cx="31.568" cy="58.549" rx=".048" ry=".099" transform="rotate(-57.409 31.568 58.55)" fill="#69993a"/>
	<ellipse cx="30.592" cy="61.388" rx=".099" ry=".042" transform="rotate(-17.217 30.59 61.386)" fill="#69993a"/>
	<ellipse cx="30.735" cy="60.72" rx=".027" ry=".063" transform="rotate(-54.907 30.736 60.72)" fill="#69993a"/>
	<path d="M30.665 56.141a1.4 1.4 0 0 1-.991.3.075.075 0 0 0-.084.087 1.42 1.42 0 0 1-.585 1.32 6.752 6.752 0 0 1-1.158-.011 3.2 3.2 0 0 0-.946-.906 2.9 2.9 0 0 1-.826-.746.229.229 0 0 0-.119-.108 1.082 1.082 0 0 1-.64-.449 3.468 3.468 0 0 1-.091-1.886.733.733 0 0 1 .416-.287.209.209 0 0 1 .221.066c.126.151.409.483.959 1.085a1.808 1.808 0 0 0 1.771.592c.763-.364.718-.172 1.688-.231s.92.757.385 1.174zM28.452 58a6.28 6.28 0 0 1-.518-.021.529.529 0 0 0 .445.123 1.23 1.23 0 0 0 .378-.102h-.305z" fill="url(#m)"/>
	<path d="M29.216 54.689c-.006.005-.089.121-.032.143s.11-.088.11-.088.022-.138-.078-.055zm.125-.046s-.066.066-.006.1.132-.17.006-.1z" fill="#6a8b3d"/>
	<ellipse cx="29.62" cy="54.795" rx=".061" ry=".04" fill="#6a8b3d"/>
	<ellipse cx="29.56" cy="54.663" rx=".091" ry=".04" fill="#6a8b3d"/>
	<ellipse cx="28.887" cy="51.889" rx=".095" ry=".048" transform="rotate(-18.1 28.886 51.888)" fill="#6a833d"/>
	<ellipse cx="29.609" cy="50.151" rx=".079" ry=".033" fill="#6a833d"/>
	<ellipse cx="27.172" cy="45.761" rx=".07" ry=".052" fill="#6a833d"/>
	<path d="M29.636 48.615a5.232 5.232 0 0 0 .755.037s-.264.224-.755-.037zm.948.043s-.046.091 0 .14.076-.086.053-.12a.044.044 0 0 0-.053-.02z" fill="#6a833d"/>
	<path d="M30.805 47.634a2.455 2.455 0 0 1-.819.456c-.557.553-.981.49-.981.49-.108.266-.238.315-.441.15s-.157-.283-.476-.49a1.137 1.137 0 0 1-.392-1.5 1.114 1.114 0 0 1 .588-.56 6.525 6.525 0 0 0 1.264 1.071l.073-.112a6.586 6.586 0 0 1-1.193-1 2.834 2.834 0 0 1 .654-.028.8.8 0 0 0 .7-.3c.224.077.273.406.273.406.088.592.168.655.168.655.133-.084.165.164.221.213s.105-.115.164-.059-.147.143-.1.185.129-.042.129-.042c.136.024.448.185.168.465z" fill="url(#n)"/>
	<path d="M31.547 42.888c-.721.525-1.425.168-2.122-.133s-.987-.1-1.585-.224a2.2 2.2 0 0 1-1.079-.816 6.912 6.912 0 0 1 1.821-4.379s0 .112.031.4.109.41.123.728a.822.822 0 0 0 .154.424.628.628 0 0 1 .112.269 5.2 5.2 0 0 0 .364 1.387 1.571 1.571 0 0 0 .676.511 3.251 3.251 0 0 1 .588.353c1.123.849.917 1.48.917 1.48z" fill="url(#o)"/>
	<path d="M33.819 34.546a2.468 2.468 0 0 0-.959 2.24c-.189.448.112 1.2.087 1.932a1.09 1.09 0 0 1-.154.564.645.645 0 0 1-.553.273 5.749 5.749 0 0 1-1.138-.14c-.171-.06 0-.1 0-.1s-.066-.452-.3-.529a1.6 1.6 0 0 1-.389-.178 5.636 5.636 0 0 0-.6-2.4A8.96 8.96 0 0 1 33.9 34.49z" fill="url(#p)"/>
	<path d="M44.31 90.241a3.752 3.752 0 0 1-.115.567 15.716 15.716 0 0 1-3.294-.259 18.234 18.234 0 0 0-2.57-.161l2.426-.371a9.743 9.743 0 0 0 1.831.01 3.354 3.354 0 0 1 1.432.151l.031.133c.018-.004.112-.028.259-.07zm3.99-13.618s-1.225.007-2.026 0-2.538 0-2.538 0l-.056-.378a3.9 3.9 0 0 0 1.442 0 16.9 16.9 0 0 1 2.524-.035 1 1 0 0 1-.07.116l.108.08a1.525 1.525 0 0 0 .137-.238 3.783 3.783 0 0 1 .479.455zM36.941 48.405c-.731.521-2.184.147-2.636 0a7.948 7.948 0 0 0-1.459-.186l2.513-.413a.945.945 0 0 0 .578.13 2.2 2.2 0 0 1 .745.122 3.212 3.212 0 0 1-.318.336l.091.1a4.3 4.3 0 0 0 .364-.385c.045.1.087.198.122.296zm-.483 3.224.063.056a4.737 4.737 0 0 1-.577.035 4.115 4.115 0 0 0-1.065.182c-.665-.2-2.433-.6-2.433-.6a17.054 17.054 0 0 1 4.478-.49 3.081 3.081 0 0 1-.466.817zm1.316 2.979s-2.483.2-3.005.238-2.19.119-2.19.119a21.5 21.5 0 0 0 2.958.4c.61-.054 1.552-.17 1.992-.163a6.856 6.856 0 0 0 .823-.037m2.448 3.269a7.213 7.213 0 0 1-2.24 0 8.854 8.854 0 0 0-1.978.176 17.665 17.665 0 0 1-2.836-.361 20.525 20.525 0 0 1 3.522-.186c.7.007 2.912-.066 2.912-.066 0 .021.007.031.007.035l.014.045.046.007a1.333 1.333 0 0 1 .553.35zm2.019 2.597c-.4.354-1.526.347-2.682.358a4.526 4.526 0 0 0-1.914.413l-2.685-.287a12.11 12.11 0 0 1 3.864-.61c1.621-.119 3.091-.262 3.161-.262.084.122.168.257.256.388zm3.823 11.843a5.911 5.911 0 0 1-1.971.368 12.819 12.819 0 0 0-2.811.591 10.9 10.9 0 0 1-2.878-.315 26.94 26.94 0 0 1 5.3-.9c.794.035 2.1 0 2.1 0l-.021.049.042.028c.088.06.165.12.239.179zm2.328 7.534a1.066 1.066 0 0 1-.809.28c-.116-.018-.357-.028-.357-.028a13.74 13.74 0 0 1-2.423.049 16.622 16.622 0 0 0-2.426 0 15.576 15.576 0 0 1 3.6-.673c.9.032 2.159.067 2.159.067-.038.066-.066.105-.066.105l.108.077a1.353 1.353 0 0 0 .109-.168c.035.066.066.164.105.291zm-1.779 4.939c-.119.329-.441.277-1.138.424a12.867 12.867 0 0 1-3.122-.028c-.655-.1-1.876-.172-1.876-.172l2.383-.675s2.777.577 3.022.332a.564.564 0 0 1 .493-.192.544.544 0 0 1-.045.031l.073.116.1-.07c.026.052.065.132.11.234zm-8.104 7.943-.01.133s.126.01.322.014l-.074.073a6.628 6.628 0 0 1-2.1-.4 5.1 5.1 0 0 0-2.016-.308 7.507 7.507 0 0 1 4.313-.112 7.211 7.211 0 0 0 1.792.42 8.2 8.2 0 0 1-2.227.18z" fill="#65a732"/>
	<path d="M25.382 95.3a1.042 1.042 0 0 0-.759-.8 3.544 3.544 0 0 1 .157-1.365 1.04 1.04 0 0 1 .284-.315.629.629 0 0 0-.487-1.145h-.017l-.014.007a2.24 2.24 0 0 0-1.2 2.174 1.905 1.905 0 0 0 .872 1.995 1.359 1.359 0 0 0 .665.252.484.484 0 0 0 .28-.081.724.724 0 0 0 .219-.722zm-.343.549a.274.274 0 0 1-.161.046 1.246 1.246 0 0 1-.56-.224 1.735 1.735 0 0 1-.767-1.8 2.047 2.047 0 0 1 1.079-2 .364.364 0 0 1 .105-.014.389.389 0 0 1 .395.326c.109.42-.28.392-.532.84a4.29 4.29 0 0 0-.182 1.628c.921.225.861 1.037.623 1.201z" fill="#816647"/>
	<path d="M25.039 95.852a.274.274 0 0 1-.161.046 1.246 1.246 0 0 1-.56-.224 1.735 1.735 0 0 1-.767-1.8 2.047 2.047 0 0 1 1.079-2 .364.364 0 0 1 .105-.014.389.389 0 0 1 .395.326c.109.42-.28.392-.532.84a4.29 4.29 0 0 0-.182 1.628c.921.222.861 1.034.623 1.198z" fill="#ff9"/>
	<path d="M31.162 94.5c-.182-.038-.126-.553-.095-.83a1.814 1.814 0 0 0 .021-.374c0-.042-.01-.081-.014-.116a.785.785 0 0 1 .081-.549c.133-.284.294-.693.115-.973a.558.558 0 0 0-.518-.238.443.443 0 0 0-.063 0h-.042c-.038.01-.956.269-.875 2a2.237 2.237 0 0 1-.018.585 1.739 1.739 0 0 0 .981 1.778 1.65 1.65 0 0 1 .273.144.55.55 0 0 0 .315.094.446.446 0 0 0 .493-.409c.032-.792-.339-1.041-.654-1.112zm.444 1.11c0 .147-.147.206-.283.206a.339.339 0 0 1-.189-.052 1.865 1.865 0 0 0-.329-.175 1.557 1.557 0 0 1-.851-1.516 2.356 2.356 0 0 0 .028-.658c-.073-1.579.718-1.782.718-1.782a.3.3 0 0 1 .052 0c.585 0 .375.567.214.91a1.107 1.107 0 0 0-.088.78c.032.277-.255 1.278.242 1.387s.497.673.486.901z" fill="#816647"/>
	<path d="M31.606 95.611c0 .147-.147.206-.283.206a.339.339 0 0 1-.189-.052 1.865 1.865 0 0 0-.329-.175 1.557 1.557 0 0 1-.851-1.516 2.356 2.356 0 0 0 .028-.658c-.073-1.579.718-1.782.718-1.782a.3.3 0 0 1 .052 0c.585 0 .375.567.214.91a1.107 1.107 0 0 0-.088.78c.032.277-.255 1.278.242 1.387s.497.672.486.9z" fill="#ff9"/>
	<path d="M39.64 92.054a1.1 1.1 0 0 0-.525-.672c-.066-.045-.126-.077-.185-.112-.182-.1-.34-.182-.707-.746a5.692 5.692 0 0 0-.407-.56c-.119-.143-.119-.147-.157-.409a3 3 0 0 1-.025-.347c0-.3-.014-.767-.581-.767a.563.563 0 0 0-.08 0c-.238.028-.665.284-.63 1.05a2.272 2.272 0 0 0 .591 1.421c.032.042.063.077.084.109.046.056.095.137.154.224a3.37 3.37 0 0 0 .665.826c.147.109.267.186.368.252s.168.112.235.165a.893.893 0 0 0 .535.168.7.7 0 0 0 .532-.214.471.471 0 0 0 .133-.388zm-.283.249a.518.518 0 0 1-.382.147.674.674 0 0 1-.4-.123c-.151-.119-.322-.21-.613-.423a5.025 5.025 0 0 1-.77-1 2.262 2.262 0 0 1-.637-1.411c-.035-.777.434-.836.434-.836h.066c.49 0 .326.437.4.934.077.515.094.28.6 1.05a1.993 1.993 0 0 0 .952.921c.283.188.574.499.35.738z" fill="#816647"/>
	<path d="M39.357 92.3a.518.518 0 0 1-.382.147.674.674 0 0 1-.4-.123c-.151-.119-.322-.21-.613-.423a5.025 5.025 0 0 1-.77-1 2.262 2.262 0 0 1-.637-1.411c-.035-.777.434-.836.434-.836h.066c.49 0 .326.437.4.934.077.515.094.28.6 1.05a1.993 1.993 0 0 0 .952.921c.283.191.574.502.35.741z" fill="#ff9"/>
	<path d="M44.16 82.833c-.049-.2-.228-.343-.539-.448a1.676 1.676 0 0 0-.508-.08 2.61 2.61 0 0 0-.3.021c-.091.007-.175.014-.262.014a1.124 1.124 0 0 1-.574-.154.824.824 0 0 1-.483-.7 1.12 1.12 0 0 0-.144-.423c-.168-.256-.269-.4-.511-.4a1.1 1.1 0 0 0-.189.021h-.018a.611.611 0 0 0-.136.063.657.657 0 0 0-.263.308 1.471 1.471 0 0 0 .186 1.222 3.433 3.433 0 0 0 .438.675 1.553 1.553 0 0 0 1.008.55c.07.014.143.028.217.049a3.422 3.422 0 0 0 .826.088c.311 0 .858-.028 1.029-.217a.652.652 0 0 0 .223-.589zm-.382.449a1.719 1.719 0 0 1-.875.147 3.165 3.165 0 0 1-.77-.081 1.712 1.712 0 0 1-1.53-1.166c-.567-1.113.08-1.3.08-1.3a.871.871 0 0 1 .151-.018c.133 0 .182.077.336.308.2.3-.007.819.7 1.2a1.337 1.337 0 0 0 .672.179c.192 0 .371-.035.567-.035a1.407 1.407 0 0 1 .441.07c.65.214.375.535.228.696z" fill="#816647"/>
	<path d="M43.778 83.282a1.719 1.719 0 0 1-.875.147 3.165 3.165 0 0 1-.77-.081 1.712 1.712 0 0 1-1.53-1.166c-.567-1.113.08-1.3.08-1.3a.871.871 0 0 1 .151-.018c.133 0 .182.077.336.308.2.3-.007.819.7 1.2a1.337 1.337 0 0 0 .672.179c.192 0 .371-.035.567-.035a1.407 1.407 0 0 1 .441.07c.65.214.375.535.228.696z" fill="#ff9"/>
	<path d="M43.743 76.168c-.063-.122-.213-.266-.581-.266a2.743 2.743 0 0 0-.858.172 1.952 1.952 0 0 1-.654.115 1.1 1.1 0 0 1-.77-.238.7.7 0 0 1-.1-.168.623.623 0 0 0-.561-.437.376.376 0 0 0-.056 0 .736.736 0 0 0-.532.357.723.723 0 0 0 .042.721 2.14 2.14 0 0 0 1.544 1.134l.1.007c.116.008.28.018.462.018a2.077 2.077 0 0 0 1.807-.707c.073-.106.304-.428.157-.708zm-.329.588a1.943 1.943 0 0 1-1.635.62c-.234 0-.434-.018-.549-.025a1.92 1.92 0 0 1-1.369-1.022.483.483 0 0 1 .322-.773h.038c.315 0 .336.357.5.539a1.32 1.32 0 0 0 .925.3 2.141 2.141 0 0 0 .724-.129 2.561 2.561 0 0 1 .788-.158c.382.004.589.176.256.648z" fill="#816647"/>
	<path d="M43.414 76.756a1.943 1.943 0 0 1-1.635.62c-.234 0-.434-.018-.549-.025a1.92 1.92 0 0 1-1.369-1.022.483.483 0 0 1 .322-.773h.038c.315 0 .336.357.5.539a1.32 1.32 0 0 0 .925.3 2.141 2.141 0 0 0 .724-.129 2.561 2.561 0 0 1 .788-.158c.382.004.589.176.256.648z" fill="#ff9"/>
	<path d="M36.766 62.012a.734.734 0 0 0-.479.185 2.215 2.215 0 0 1-1.135.469.976.976 0 0 1-.451-.182 2.315 2.315 0 0 0-.235-.129.531.531 0 0 0-.2-.039.47.47 0 0 0-.444.3 1 1 0 0 0 .07.731c.168.4.388.6.658.6a.706.706 0 0 0 .157-.021.527.527 0 0 0 .182.039.379.379 0 0 0 .067 0 2.964 2.964 0 0 0 1.792-.581.475.475 0 0 0 .322-.182.941.941 0 0 0 .266-.675.551.551 0 0 0-.57-.515zm-.01 1.172h-.011a.176.176 0 0 0-.1.028 2.724 2.724 0 0 1-1.68.553.266.266 0 0 1-.056 0c-.105 0-.13-.042-.186-.042a.109.109 0 0 0-.031 0 .67.67 0 0 1-.133.021c-.123 0-.3-.073-.466-.472a.784.784 0 0 1-.063-.578.261.261 0 0 1 .245-.168.3.3 0 0 1 .112.021c.214.1.476.329.77.329a2.39 2.39 0 0 0 1.271-.518.529.529 0 0 1 .343-.136.344.344 0 0 1 .364.329.694.694 0 0 1-.379.633z" fill="#816647"/>
	<path d="M37.13 62.551a.694.694 0 0 1-.374.633h-.011a.176.176 0 0 0-.1.028 2.724 2.724 0 0 1-1.68.553.266.266 0 0 1-.056 0c-.105 0-.13-.042-.186-.042a.109.109 0 0 0-.031 0 .67.67 0 0 1-.133.021c-.123 0-.3-.073-.466-.472a.784.784 0 0 1-.063-.578.261.261 0 0 1 .245-.168.3.3 0 0 1 .112.021c.214.1.476.329.77.329a2.39 2.39 0 0 0 1.271-.518.529.529 0 0 1 .343-.136.344.344 0 0 1 .359.329z" fill="#ff9"/>
	<path d="M35.653 58.248a.7.7 0 0 0-.62-.3 1.59 1.59 0 0 0-.952.374 1.774 1.774 0 0 1-1.081.427c-.049 0-.094 0-.136-.007a.786.786 0 0 0-.084 0 .539.539 0 0 0-.07 0 .6.6 0 0 0-.55.455.712.712 0 0 0 .283.763.749.749 0 0 0 .431.13 1.2 1.2 0 0 0 .3-.046.921.921 0 0 0 .2.018 1.154 1.154 0 0 0 .735-.266 2.149 2.149 0 0 1 1.036-.5.672.672 0 0 0 .529-.378.7.7 0 0 0-.021-.67zm-.532.837a2.343 2.343 0 0 0-1.148.55.946.946 0 0 1-.6.217.769.769 0 0 1-.207-.025 1.008 1.008 0 0 1-.294.053.547.547 0 0 1-.312-.091.455.455 0 0 1 .165-.84h.053a.486.486 0 0 1 .066 0c.049 0 .1.007.154.007a1.946 1.946 0 0 0 1.211-.473 1.405 1.405 0 0 1 .823-.332.5.5 0 0 1 .445.206.494.494 0 0 1-.356.728z" fill="#816647"/>
	<path d="M35.121 59.085a2.343 2.343 0 0 0-1.148.55.946.946 0 0 1-.6.217.769.769 0 0 1-.207-.025 1.008 1.008 0 0 1-.294.053.547.547 0 0 1-.312-.091.455.455 0 0 1 .165-.84h.053a.486.486 0 0 1 .066 0c.049 0 .1.007.154.007a1.946 1.946 0 0 0 1.211-.473 1.405 1.405 0 0 1 .823-.332.5.5 0 0 1 .445.206.494.494 0 0 1-.356.728z" fill="#ff9"/>
	<path d="M34.218 55.224c-.074-.175-.256-.273-.546-.287h-.1a1.783 1.783 0 0 0-1.117.392.593.593 0 0 1-.364.123.627.627 0 0 1-.133-.014c-.1-.018-.161-.112-.252-.259a.853.853 0 0 0-.276-.326.62.62 0 0 0-.319-.094.637.637 0 0 0-.416.171.867.867 0 0 0-.028 1.215 1.39 1.39 0 0 0 1.113.553 1.367 1.367 0 0 0 .206-.017.578.578 0 0 1 .133-.007h.165a1.143 1.143 0 0 0 .161-.007 2.458 2.458 0 0 0 .9-.315 1.276 1.276 0 0 1 .217-.126 1.367 1.367 0 0 0 .416-.3c.24-.272.322-.51.24-.702zm-.4.56a2.916 2.916 0 0 1-.6.392 2.272 2.272 0 0 1-.8.28h-.305a.907.907 0 0 0-.178.01.969.969 0 0 1-.161.014 1.188 1.188 0 0 1-.949-.472.659.659 0 0 1 0-.925.431.431 0 0 1 .28-.122.4.4 0 0 1 .21.063c.21.126.263.549.6.612a.749.749 0 0 0 .171.018.784.784 0 0 0 .484-.161 1.59 1.59 0 0 1 1-.354h.088c.616.039.342.445.161.645z" fill="#816647"/>
	<path d="M33.819 55.784a2.916 2.916 0 0 1-.6.392 2.272 2.272 0 0 1-.8.28h-.305a.907.907 0 0 0-.178.01.969.969 0 0 1-.161.014 1.188 1.188 0 0 1-.949-.472.659.659 0 0 1 0-.925.431.431 0 0 1 .28-.122.4.4 0 0 1 .21.063c.21.126.263.549.6.612a.749.749 0 0 0 .171.018.784.784 0 0 0 .484-.161 1.59 1.59 0 0 1 1-.354h.088c.615.039.341.445.16.645z" fill="#ff9"/>
	<path d="m33.231 51.618-.014-.01a1.309 1.309 0 0 0-.9-.312 2.666 2.666 0 0 0-.427.039 1.275 1.275 0 0 1-.189.017.47.47 0 0 1-.476-.252c-.038-.217-.206-.595-.595-.595a.535.535 0 0 0-.105.011c-.241.052-.648.343-.539 1.074.112.756.6.882.8.9h.032a2.09 2.09 0 0 1 .465.1 3.673 3.673 0 0 0 .924.1c.687 0 .841-.151.89-.2a.835.835 0 0 0 .294-.577.4.4 0 0 0-.16-.295zm-.287.725a1.322 1.322 0 0 1-.743.14 3.726 3.726 0 0 1-.864-.091 2.221 2.221 0 0 0-.532-.112c-.06 0-.511-.025-.616-.718-.109-.731.367-.84.367-.84a.572.572 0 0 1 .07-.007c.326 0 .392.441.392.441a.664.664 0 0 0 .679.406 1.38 1.38 0 0 0 .228-.021 2.4 2.4 0 0 1 .388-.035 1.116 1.116 0 0 1 .788.277c.158.126.049.36-.157.56z" fill="#816647"/>
	<path d="M32.944 52.343a1.322 1.322 0 0 1-.743.14 3.726 3.726 0 0 1-.864-.091 2.221 2.221 0 0 0-.532-.112c-.06 0-.511-.025-.616-.718-.109-.731.367-.84.367-.84a.572.572 0 0 1 .07-.007c.326 0 .392.441.392.441a.664.664 0 0 0 .679.406 1.38 1.38 0 0 0 .228-.021 2.4 2.4 0 0 1 .388-.035 1.116 1.116 0 0 1 .788.277c.158.126.049.36-.157.56z" fill="#ff9"/>
	<path d="m35.039 34.282-.106-.013-.241-.033-.088-.012-.061.066-.206.214-.093.1.073.115A5.021 5.021 0 0 1 35 36.363v.018l.006.022a.453.453 0 0 0 .559.248.545.545 0 0 0 .155-.07.48.48 0 0 0 .2-.461l-.008-.049-.035-.04a5.275 5.275 0 0 1-.8-1.646zm.706 1.87a.3.3 0 0 1-.121.284.367.367 0 0 1-.1.048.275.275 0 0 1-.35-.145 5.169 5.169 0 0 0-.707-1.714l.207-.214.238.03a5.321 5.321 0 0 0 .833 1.711z" fill="#424242"/>
	<path d="M35.745 36.152a.3.3 0 0 1-.121.284.367.367 0 0 1-.1.048.275.275 0 0 1-.35-.145 5.169 5.169 0 0 0-.707-1.714l.207-.214.238.03a5.321 5.321 0 0 0 .833 1.711z" fill="#474747"/>
	<path d="M33.7 32.752a1.04 1.04 0 1 0 1.442.284 1.04 1.04 0 0 0-1.442-.284zm1.042 1.548a.83.83 0 1 1 .227-1.151.828.828 0 0 1-.227 1.151z" fill="#3c3c3c"/>
	<circle cx="34.28" cy="33.615" r=".83" fill="#474747"/>
	<path d="M107.713 58.131h2.354v16.835h9.6V77h-11.954zm14.368 0h5.605c6.887 0 10.58 3.371 10.58 9.365S134.573 77 127.811 77h-5.73zm5.392 16.9c5.236 0 8.276-2.765 8.276-7.534s-3.04-7.4-8.276-7.4h-2.812V75.03zM154.521 77h2.734L150.4 58.131h-2.911L140.625 77h2.625l1.95-5.747h7.393zm-8.671-7.663.975-2.874c.729-2.11 1.38-4.17 2.008-6.358h.123c.65 2.178 1.3 4.248 2.03 6.358l.964 2.874zm15.078-11.206h5.281c4.143 0 6.939 1.679 6.939 5.812 0 3.972-2.781 6.077-6.827 6.077h-3.04V77h-2.353zm5.1 9.943c3.234 0 4.777-1.446 4.777-4.131 0-2.72-1.641-3.864-4.889-3.864h-2.631v7.995z" fill="#89586f"/>
	<path d="M36.448 67.208c0-6.3 3.6-10.127 8.721-10.127s8.722 3.837 8.722 10.127-3.6 10.268-8.722 10.268-8.721-3.967-8.721-10.268zm14.761 0c0-4.9-2.4-7.925-6.04-7.925s-6.039 3.023-6.039 7.925 2.4 8.067 6.039 8.067 6.04-3.166 6.04-8.067zm6.827-4.489h2.455l.022 1.422a6.933 6.933 0 0 1 4.754-1.9c3.905 0 5.122 4.007 5.122 7.072 0 3.694-2.32 8.159-5.773 8.159a6.243 6.243 0 0 1-4.091-1.5l.069 2.389v4.06h-2.558zm9.78 6.621c0-2.66-.56-5.335-3.405-5.335-1.279 0-2.347.467-3.817 1.826V74a5.844 5.844 0 0 0 3.679 1.544c2.501.001 3.543-2.473 3.543-6.204zm5.691.226c0-4.919 3.315-7.566 6.793-7.566 4.224 0 6.459 2.359 6.459 7.864H76.035c0 4.076 2.141 5.572 5.021 5.572a7.386 7.386 0 0 0 5.144-1.6l.017 2.42a9.724 9.724 0 0 1-5.247 1.215c-4.25.005-7.463-2.94-7.463-7.905zm10.865-1.532c0-3.028-1.547-4-3.91-4a4.111 4.111 0 0 0-4.45 4zm6.337-5.417h2.3l.024 1.552h.085a6.738 6.738 0 0 1 5.07-2.077c3.184 0 4.614 2.646 4.614 6.5V77.1h-2.558v-9.243c0-2.815-1.046-3.8-3.047-3.8a4.936 4.936 0 0 0-3.935 1.862V77.1h-2.553z" fill="#1e1a17"/>
	<path d="M176.617 58.824h-1.054V61.5h-.515v-2.676h-.968v-.4h2.537zm2.003 1.715-.791-1.072V61.5h-.506v-3.078h.316l1.058 1.469.99-1.469H180V61.5h-.516v-1.961l-.669.972z" fill="#5b5959"/>
</svg>
