<svg xmlns="http://www.w3.org/2000/svg" width="200" height="128">
    <path d="M46.346 49.787H22.71a2.706 2.706 0 0 0-2.7 2.7v6.358h6.558v-1.039a1.465 1.465 0 0 1 1.462-1.461h13.006a1.462 1.462 0 0 1 1.458 1.461v1.039h6.562v-6.358a2.707 2.707 0 0 0-2.71-2.7zM42.484 70.194a1.461 1.461 0 0 1-1.458 1.461H28.02a1.465 1.465 0 0 1-1.462-1.461v-1.039H20v6.358a2.706 2.706 0 0 0 2.7 2.7h23.636a2.706 2.706 0 0 0 2.7-2.7v-6.358h-6.552zM20 60.719h6.558v6.558H20zM42.488 60.719h6.558v6.558h-6.558z" fill="#ed1944"/>
    <path d="M180 69.511a1.848 1.848 0 1 0-1.851 1.845h.007A1.848 1.848 0 0 0 180 69.511zm-1.844 1.389a1.4 1.4 0 1 1 1.391-1.4v.006a1.392 1.392 0 0 1-1.391 1.394z" fill="#4e4540"/>
    <path d="M178.848 69.175a.577.577 0 0 0-.153-.419.668.668 0 0 0-.493-.174h-.665v1.808h.376v-.59h.233l.333.592h.429l-.383-.666a.551.551 0 0 0 .323-.551zm-.379 0a.261.261 0 0 1-.244.275.268.268 0 0 1-.049 0h-.276v-.55h.267c.193 0 .3.09.3.27zM69.173 64.125v-.25c0-4.364-2.863-7.533-6.758-7.533S55.6 59.564 55.6 63.9v.253c0 4.364 2.863 7.507 6.758 7.507s6.815-3.197 6.815-7.535zm-10.426-.047v-.17c0-2.753 1.418-4.78 3.615-4.78 2.141 0 3.662 2.057 3.662 4.81v.167c0 2.753-1.418 4.81-3.615 4.81-2.134-.006-3.662-2.094-3.662-4.837zM84.13 64.181v-.389c0-4.977-2.779-7.45-5.729-7.45a4.979 4.979 0 0 0-4.308 2.639v-2.363h-3.142v18.935h3.142v-6.421a5.02 5.02 0 0 0 4.308 2.5c2.976 0 5.729-2.5 5.729-7.451zm-10.093-.056v-.276c0-2.893 1.611-4.728 3.5-4.728s3.422 1.808 3.422 4.754v.25c0 2.949-1.5 4.727-3.422 4.727s-3.5-1.834-3.5-4.727zM97.743 69.381l-1.638-1.947a4.685 4.685 0 0 1-3.392 1.558c-1.921 0-3.449-1.332-3.729-3.809h9.232c.03-.446.03-.892.03-1.085 0-4.421-2.114-7.756-6.119-7.756-3.615 0-6.282 3.169-6.282 7.59v.223c0 4.614 2.946 7.507 6.728 7.507a6.772 6.772 0 0 0 5.17-2.281zm-5.616-10.4c1.834 0 2.893 1.7 3.059 4.032h-6.228c.209-2.503 1.442-4.032 3.169-4.032zM107.477 56.342a4.619 4.619 0 0 0-4.031 2.446v-2.17H100.3v14.738h3.143V62.43c0-2.03 1.138-3.252 2.779-3.252s2.644 1.138 2.644 3.2v8.988h3.139v-9.881c-.005-3.143-1.698-5.143-4.528-5.143zM124.668 67.158v-.03c0-2.307-1.724-3.363-4-4.391-1.724-.779-2.889-1.282-2.889-2.254v-.067c0-.8.692-1.445 1.861-1.445a6.552 6.552 0 0 1 3.5 1.309l1.331-2.311a8.42 8.42 0 0 0-4.78-1.584c-2.753 0-4.867 1.664-4.867 4.311v.053c0 2.417 1.834 3.419 4.031 4.365 1.751.749 2.893 1.221 2.893 2.28v.027c0 .918-.752 1.614-2.057 1.614a6.742 6.742 0 0 1-4.062-1.724l-1.471 2.25a8.689 8.689 0 0 0 5.476 2.057c2.824.014 5.034-1.571 5.034-4.46zM134.4 70.939v-2.586a3.563 3.563 0 0 1-1.695.416 1.41 1.41 0 0 1-1.585-1.611v-7.844h3.326v-2.7h-3.329v-3.971h-3.142v3.975h-1.615l.519 2.7h1.1V67.8c0 2.863 1.641 3.782 3.808 3.782a5.38 5.38 0 0 0 2.613-.643zM146.427 57.953a5.855 5.855 0 0 0-4.328-1.5 10.482 10.482 0 0 0-4.867 1.169l.889 2.5a8.372 8.372 0 0 1 3.558-.892c2 0 3.17 1.029 3.17 3v.613a10.058 10.058 0 0 0-3.393-.583c-3.112 0-5.226 1.555-5.226 4.724v.14a4.3 4.3 0 0 0 4.5 4.5 4.685 4.685 0 0 0 4.088-2.084v1.808h3.086v-9.141a5.714 5.714 0 0 0-1.477-4.254zm-1.548 8.456a2.951 2.951 0 0 1-3.2 2.863 2.246 2.246 0 0 1-2.39-2.331v-.056c0-1.558 1.056-2.474 2.863-2.474a7.158 7.158 0 0 1 2.727.526zM161.264 69.435l-1.694-2.084a4.1 4.1 0 0 1-3 1.5c-2.144 0-3.662-1.917-3.662-4.78v-.14c0-2.783 1.5-4.754 3.562-4.754a3.973 3.973 0 0 1 2.973 1.471l1.751-2.307a6.211 6.211 0 0 0-4.724-2c-3.865 0-6.732 3.169-6.732 7.56v.28c0 4.394 2.783 7.48 6.619 7.48a6.163 6.163 0 0 0 4.907-2.226zM170.882 63.705l-2.207 2.371 2.959 5.28h3.642l-4.394-7.651z" fill="#4e4540"/>
    <path fill="#4e4540" d="M171.411 56.618l-5.033 6.478V51.278h-3.14v20.078h3.14v-4.255l8.758-10.483h-3.725z"/>
</svg>
