<svg xmlns="http://www.w3.org/2000/svg" xml:space="preserve" width="801.26" height="325.04">
	<defs>
		<clipPath clipPathUnits="userSpaceOnUse" id="a">
			<path d="M0 243.78h600.945V0H0Z"/>
		</clipPath>
	</defs>
	<path d="M0 0v3.515L-3.081.197v7.834h-2.321V.234l-3.046 3.281V0l4.229-4.549z" style="fill:#81bc00;fill-opacity:1;fill-rule:nonzero;stroke:none" transform="matrix(1.33333 0 0 -1.33333 270.91 164.98)"/>
	<path d="m0 0 2.488 2.492-4.524-.164L3.505 7.86 1.861 9.51l-5.509-5.509.159 4.482-2.49-2.499-.226-6.214Z" style="fill:#81bc00;fill-opacity:1;fill-rule:nonzero;stroke:none" transform="matrix(1.33333 0 0 -1.33333 237.886 239.802)"/>
	<path d="M0 0h3.519L.2 3.089h7.836v2.324l-7.791.004 3.279 3.044H0l-4.549-4.234Z" style="fill:#81bc00;fill-opacity:1;fill-rule:nonzero;stroke:none" transform="matrix(1.33333 0 0 -1.33333 161.635 269.345)"/>
	<path d="m0 0 2.486-2.488-.169 4.52 5.54-5.54 1.642 1.647-5.502 5.513 4.47-.159-2.494 2.488-6.205.222z" style="fill:#81bc00;fill-opacity:1;fill-rule:nonzero;stroke:none" transform="matrix(1.33333 0 0 -1.33333 86.833 236.311)"/>
	<path d="M0 0v-3.522L3.077-.197v-7.841l2.329.007v7.786l3.049-3.277L8.45 0 4.221 4.553Z" style="fill:#81bc00;fill-opacity:1;fill-rule:nonzero;stroke:none" transform="matrix(1.33333 0 0 -1.33333 57.29 160.06)"/>
	<path d="m0 0-2.488-2.488 4.527.163-5.545-5.528 1.648-1.646 5.512 5.502-.163-4.479 2.488 2.499.228 6.211z" style="fill:#81bc00;fill-opacity:1;fill-rule:nonzero;stroke:none" transform="matrix(1.33333 0 0 -1.33333 90.313 85.254)"/>
	<path d="M0 0h-3.521l3.323-3.088h-7.837l.006-2.322 7.784-.007-3.276-3.04H0l4.555 4.23z" style="fill:#81bc00;fill-opacity:1;fill-rule:nonzero;stroke:none" transform="matrix(1.33333 0 0 -1.33333 166.564 55.706)"/>
	<path d="m0 0-2.49 2.492.167-4.527-5.537 5.539-1.641-1.643 5.506-5.513-4.481.159 2.495-2.488L.233-6.21z" style="fill:#81bc00;fill-opacity:1;fill-rule:nonzero;stroke:none" transform="matrix(1.33333 0 0 -1.33333 241.374 88.739)"/>
	<path d="m0 0-.908 3.4-2.121-4.004-2.023 7.567-2.247-.604 2.016-7.527-3.792 2.384.909-3.404L-2.9-5.495Z" style="fill:#81bc00;fill-opacity:1;fill-rule:nonzero;stroke:none" transform="matrix(1.33333 0 0 -1.33333 267.909 137.26)"/>
	<path d="m0 0 1.759 3.048-4.33-1.335 3.917 6.781-2.011 1.161-3.897-6.741-.999 4.361-1.76-3.048 1.383-6.055Z" style="fill:#81bc00;fill-opacity:1;fill-rule:nonzero;stroke:none" transform="matrix(1.33333 0 0 -1.33333 255.374 218.065)"/>
	<path d="m0 0 3.394.897-3.998 2.125 7.569 2.024-.602 2.244-7.529-2.003 2.38 3.79-3.4-.916-3.303-5.265z" style="fill:#81bc00;fill-opacity:1;fill-rule:nonzero;stroke:none" transform="matrix(1.33333 0 0 -1.33333 189.367 266.33)"/>
	<path d="m0 0 3.055-1.746L1.719 2.57l6.785-3.916L9.666.675 2.92 4.572l4.364.997L4.229 7.33l-6.055-1.39Z" style="fill:#81bc00;fill-opacity:1;fill-rule:nonzero;stroke:none" transform="matrix(1.33333 0 0 -1.33333 108.553 253.802)"/>
	<path d="m0 0 .912-3.396L3.031.608l2.024-7.571 2.247.604-2.013 7.52L9.08-1.205l-.914 3.393-5.257 3.307Z" style="fill:#81bc00;fill-opacity:1;fill-rule:nonzero;stroke:none" transform="matrix(1.33333 0 0 -1.33333 60.286 187.79)"/>
	<path d="m0 0-1.761-3.059L2.568-1.72l-3.916-6.785L.667-9.662l3.897 6.736 1.003-4.36 1.752 3.055-1.381 6.055z" style="fill:#81bc00;fill-opacity:1;fill-rule:nonzero;stroke:none" transform="matrix(1.33333 0 0 -1.33333 72.828 106.976)"/>
	<path d="m0 0-3.4-.923L.604-3.037l-7.567-2.02.604-2.247 7.525 2.009-2.38-3.793 3.405.916 3.302 5.261z" style="fill:#81bc00;fill-opacity:1;fill-rule:nonzero;stroke:none" transform="matrix(1.33333 0 0 -1.33333 138.835 58.706)"/>
	<path d="m0 0-3.051 1.761 1.338-4.334-6.789 3.919-1.153-2.013 6.737-3.901-4.364-.994 3.052-1.764L1.828-5.94z" style="fill:#81bc00;fill-opacity:1;fill-rule:nonzero;stroke:none" transform="matrix(1.33333 0 0 -1.33333 219.644 71.253)"/>
	<path d="m0 0-1.767 3.044-1.005-4.416-3.915 6.785-2.015-1.164 3.893-6.748-4.277 1.316 1.763-3.048 5.942-1.835z" style="fill:#81bc00;fill-opacity:1;fill-rule:nonzero;stroke:none" transform="matrix(1.33333 0 0 -1.33333 257.839 111.247)"/>
	<path d="m0 0 .908 3.404L-2.92.997l2.019 7.564-2.236.597-2.022-7.516-2.097 3.957-.91-3.415 2.91-5.484Z" style="fill:#81bc00;fill-opacity:1;fill-rule:nonzero;stroke:none" transform="matrix(1.33333 0 0 -1.33333 266.636 192.555)"/>
	<path d="m0 0 3.05 1.761-4.418 1.001 6.787 3.919-1.162 2.006-6.752-3.882 1.318 4.271-3.046-1.757-1.832-5.94Z" style="fill:#81bc00;fill-opacity:1;fill-rule:nonzero;stroke:none" transform="matrix(1.33333 0 0 -1.33333 215.373 256.254)"/>
	<path d="m0 0 3.4-.901L.99 2.937 8.556.908l.602 2.244-7.523 2.024 3.956 2.091-3.402.912-5.491-2.914Z" style="fill:#81bc00;fill-opacity:1;fill-rule:nonzero;stroke:none" transform="matrix(1.33333 0 0 -1.33333 134.075 265.074)"/>
	<path d="m0 0 1.765-3.051 1.008 4.412 3.912-6.774 2.017 1.157-3.895 6.74 4.281-1.316-1.765 3.059-5.936 1.824Z" style="fill:#81bc00;fill-opacity:1;fill-rule:nonzero;stroke:none" transform="matrix(1.33333 0 0 -1.33333 70.36 213.793)"/>
	<path d="m0 0-.912-3.4L2.922-.99.894-8.554l2.246-.604 2.017 7.523 2.099-3.949.901 3.404-2.899 5.484Z" style="fill:#81bc00;fill-opacity:1;fill-rule:nonzero;stroke:none" transform="matrix(1.33333 0 0 -1.33333 61.566 132.505)"/>
	<path d="m0 0-3.042-1.765L1.374-2.77l-6.791-3.915 1.168-2.01 6.743 3.89-1.317-4.283 3.052 1.769 1.829 5.94z" style="fill:#81bc00;fill-opacity:1;fill-rule:nonzero;stroke:none" transform="matrix(1.33333 0 0 -1.33333 112.824 68.791)"/>
	<path d="M0 0h5.341L.315 4.664H12.18v3.523H.369l4.972 4.627H0l-6.904-6.407Z" style="fill:#81bc00;fill-opacity:1;fill-rule:nonzero;stroke:none" transform="matrix(1.33333 0 0 -1.33333 309.999 171.199)"/>
	<path d="m0 0 3.776-3.778-.252 6.867 8.393-8.406 2.488 2.495-8.352 8.347 6.783-.241L9.06 9.062l-9.412.345Z" style="fill:#81bc00;fill-opacity:1;fill-rule:nonzero;stroke:none" transform="matrix(1.33333 0 0 -1.33333 261.129 271.822)"/>
	<path d="M0 0v-5.35L4.667-.319v-11.88H8.19V-.371l4.623-4.979V0L6.401 6.889Z" style="fill:#81bc00;fill-opacity:1;fill-rule:nonzero;stroke:none" transform="matrix(1.33333 0 0 -1.33333 155.422 308.4)"/>
	<path d="m0 0-3.778-3.778 6.854.241-8.387-8.387 2.488-2.492 8.36 8.361-.253-6.792L9.06-9.073 9.403.349z" style="fill:#81bc00;fill-opacity:1;fill-rule:nonzero;stroke:none" transform="matrix(1.33333 0 0 -1.33333 54.8 259.532)"/>
	<path d="M0 0h-5.343l5.026-4.668h-11.868v-3.526H-.367l-4.976-4.631h5.339l6.897 6.418z" style="fill:#81bc00;fill-opacity:1;fill-rule:nonzero;stroke:none" transform="matrix(1.33333 0 0 -1.33333 18.21 153.832)"/>
	<path d="m0 0-3.776 3.771.254-6.848-8.391 8.386-2.495-2.484 8.357-8.353-6.783.244 3.772-3.77L.35-9.403z" style="fill:#81bc00;fill-opacity:1;fill-rule:nonzero;stroke:none" transform="matrix(1.33333 0 0 -1.33333 67.078 53.219)"/>
	<path d="M0 0v-11.821l-4.621 4.973v-5.339l6.415-6.9 6.401 6.9v5.339l-4.672-5.028V0Z" style="fill:#81bc00;fill-opacity:1;fill-rule:nonzero;stroke:none" transform="matrix(1.33333 0 0 -1.33333 161.858 .376)"/>
	<path d="m0 0 3.778 3.782-6.859-.263 8.402 8.405-2.499 2.481-8.358-8.354.249 6.785-3.775-3.778-.341-9.414Z" style="fill:#81bc00;fill-opacity:1;fill-rule:nonzero;stroke:none" transform="matrix(1.33333 0 0 -1.33333 273.4 65.494)"/>
	<path d="m0 0 5.157 1.383L-.899 4.59l11.455 3.081-.906 3.393-11.417-3.055 3.604 5.747-5.151-1.38-5.004-7.975Z" style="fill:#81bc00;fill-opacity:1;fill-rule:nonzero;stroke:none" transform="matrix(1.33333 0 0 -1.33333 307.272 133.148)"/>
	<path d="m0 0 4.624-2.669L2.608 3.89 12.89-2.039l1.752 3.048L4.416 6.915l6.613 1.513L6.4 11.101l-9.173-2.106Z" style="fill:#81bc00;fill-opacity:1;fill-rule:nonzero;stroke:none" transform="matrix(1.33333 0 0 -1.33333 286.111 242.99)"/>
	<path d="m0 0 1.383-5.157L4.596.894 7.671-10.56l3.397.909L8.005 1.772l5.758-3.615-1.376 5.162-7.99 5.005Z" style="fill:#81bc00;fill-opacity:1;fill-rule:nonzero;stroke:none" transform="matrix(1.33333 0 0 -1.33333 193.472 305.69)"/>
	<path d="m0 0-2.671-4.62 6.553 2.013-5.936-10.277 3.051-1.769L6.911-4.42l1.518-6.614 2.668 4.616-2.102 9.18z" style="fill:#81bc00;fill-opacity:1;fill-rule:nonzero;stroke:none" transform="matrix(1.33333 0 0 -1.33333 83.64 284.517)"/>
	<path d="m0 0-5.152-1.379L.906-4.594l-11.464-3.074.911-3.403L1.767-8.005l-3.612-5.762 5.16 1.383 5.003 7.983z" style="fill:#81bc00;fill-opacity:1;fill-rule:nonzero;stroke:none" transform="matrix(1.33333 0 0 -1.33333 20.932 191.888)"/>
	<path d="m0 0-4.62 2.67 2.017-6.556L-12.88 2.05l-1.765-3.058 10.231-5.907-6.613-1.516 4.62-2.67L2.77-8.995z" style="fill:#81bc00;fill-opacity:1;fill-rule:nonzero;stroke:none" transform="matrix(1.33333 0 0 -1.33333 42.093 82.05)"/>
	<path d="m0 0-1.385 5.154-3.207-6.062-3.066 11.468-3.408-.92 3.059-11.408-5.754 3.6 1.379-5.154 7.979-4.998z" style="fill:#81bc00;fill-opacity:1;fill-rule:nonzero;stroke:none" transform="matrix(1.33333 0 0 -1.33333 134.73 19.345)"/>
	<path d="m0 0 2.67 4.62-6.563-2.025 5.94 10.289-3.057 1.765-5.903-10.233-1.515 6.615-2.677-4.631 2.106-9.177Z" style="fill:#81bc00;fill-opacity:1;fill-rule:nonzero;stroke:none" transform="matrix(1.33333 0 0 -1.33333 244.575 40.509)"/>
	<path d="m0 0 4.627 2.67-6.677 1.527 10.268 5.94-1.75 3.048-10.241-5.907 1.991 6.482-4.625-2.659-2.764-9.006Z" style="fill:#81bc00;fill-opacity:1;fill-rule:nonzero;stroke:none" transform="matrix(1.33333 0 0 -1.33333 294.785 97.089)"/>
	<path d="m0 0 5.161-1.383-3.644 5.81 11.469-3.07.909 3.404L2.482 7.82l5.998 3.173-5.158 1.38-8.32-4.409Z" style="fill:#81bc00;fill-opacity:1;fill-rule:nonzero;stroke:none" transform="matrix(1.33333 0 0 -1.33333 302.771 208.662)"/>
	<path d="m0 0 2.673-4.631 1.526 6.693 5.938-10.278 3.044 1.765L7.275 3.782l6.492-2.006-2.668 4.631-9.002 2.762Z" style="fill:#81bc00;fill-opacity:1;fill-rule:nonzero;stroke:none" transform="matrix(1.33333 0 0 -1.33333 229.531 293.203)"/>
	<path d="m0 0-1.389-5.161 5.811 3.637-3.073-11.457 3.402-.916L7.81-2.484l3.18-5.992 1.383 5.15-4.407 8.332z" style="fill:#81bc00;fill-opacity:1;fill-rule:nonzero;stroke:none" transform="matrix(1.33333 0 0 -1.33333 117.963 301.187)"/>
	<path d="m0 0-4.623-2.677 6.686-1.535-10.279-5.929 1.757-3.047L3.776-7.282l-1.998-6.477 4.629 2.654 2.77 9.003z" style="fill:#81bc00;fill-opacity:1;fill-rule:nonzero;stroke:none" transform="matrix(1.33333 0 0 -1.33333 33.415 227.942)"/>
	<path d="m0 0-5.154 1.368 3.641-5.806-11.458 3.077-.913-3.411 11.411-3.051-6.001-3.17 5.159-1.394 8.32 4.408z" style="fill:#81bc00;fill-opacity:1;fill-rule:nonzero;stroke:none" transform="matrix(1.33333 0 0 -1.33333 25.423 116.364)"/>
	<path d="m0 0-2.669 4.616-1.534-6.681-5.932 10.281-3.055-1.761 5.912-10.233-6.494 1.987 2.673-4.616 9.004-2.773z" style="fill:#81bc00;fill-opacity:1;fill-rule:nonzero;stroke:none" transform="matrix(1.33333 0 0 -1.33333 98.675 31.828)"/>
	<path d="m0 0 1.381 5.154-5.804-3.645 3.075 11.475-3.411.905-3.064-11.412-3.176 5.999-1.381-5.158 4.412-8.327Z" style="fill:#81bc00;fill-opacity:1;fill-rule:nonzero;stroke:none" transform="matrix(1.33333 0 0 -1.33333 210.246 23.844)"/>
	<path d="m0 0-2.801-.371 2.96-2.102-6.21-.812.236-1.85 6.184.815-2.286-2.754 2.8.363 3.17 3.826z" style="fill:#81bc00;fill-opacity:1;fill-rule:nonzero;stroke:none" transform="matrix(1.33333 0 0 -1.33333 243.541 147.657)"/>
	<path d="m0 0 .571-4.356L3.845.256l1.279-9.703 2.883.374L6.739.586l4.31-3.567-.575 4.364-5.982 4.961z" style="fill:#81bc00;fill-opacity:1;fill-rule:nonzero;stroke:none" transform="matrix(1.33333 0 0 -1.33333 279.55 144.548)"/>
	<path d="m0 0-2.238 1.724.601-3.578-4.97 3.815L-7.744.486l4.952-3.797-3.567-.341 2.234-1.709 4.948.463z" style="fill:#81bc00;fill-opacity:1;fill-rule:nonzero;stroke:none" transform="matrix(1.33333 0 0 -1.33333 230.787 208.187)"/>
	<path d="m0 0-2.679-3.482 5.577.935-5.951-7.757 2.297-1.776 5.928 7.735.531-5.581 2.682 3.493-.73 7.727z" style="fill:#81bc00;fill-opacity:1;fill-rule:nonzero;stroke:none" transform="matrix(1.33333 0 0 -1.33333 258.449 231.442)"/>
	<path d="m0 0-.367 2.803L-2.466-.16l-.819 6.226-1.843-.248.816-6.189-2.762 2.292.368-2.8 3.827-3.159z" style="fill:#81bc00;fill-opacity:1;fill-rule:nonzero;stroke:none" transform="matrix(1.33333 0 0 -1.33333 178.963 241.967)"/>
	<path d="m0 0-4.36-.578L.256-3.852l-9.711-1.283.382-2.87L.588-6.737l-3.571-4.323 4.36.586 4.959 5.973z" style="fill:#81bc00;fill-opacity:1;fill-rule:nonzero;stroke:none" transform="matrix(1.33333 0 0 -1.33333 182.082 277.957)"/>
	<path d="m0 0 1.713 2.236-3.57-.612 3.811 4.972L.482 7.738l-3.799-4.954-.335 3.564-1.717-2.232.468-4.943Z" style="fill:#81bc00;fill-opacity:1;fill-rule:nonzero;stroke:none" transform="matrix(1.33333 0 0 -1.33333 118.443 229.198)"/>
	<path d="m0 0-3.487 2.681.943-5.577-7.767 5.955L-12.076.76l7.729-5.932-5.58-.527 3.492-2.677 7.736.723z" style="fill:#81bc00;fill-opacity:1;fill-rule:nonzero;stroke:none" transform="matrix(1.33333 0 0 -1.33333 95.183 256.872)"/>
	<path d="m0 0 2.792.375-2.955 2.094 6.216.831-.247 1.828-6.184-.812 2.284 2.758-2.794-.359-3.163-3.83Z" style="fill:#81bc00;fill-opacity:1;fill-rule:nonzero;stroke:none" transform="matrix(1.33333 0 0 -1.33333 84.67 177.393)"/>
	<path d="m0 0-.573 4.36-3.281-4.612-1.279 9.703-2.874-.378 1.268-9.655-4.314 3.57.579-4.367 5.978-4.961z" style="fill:#81bc00;fill-opacity:1;fill-rule:nonzero;stroke:none" transform="matrix(1.33333 0 0 -1.33333 48.66 180.508)"/>
	<path d="m0 0 2.241-1.706-.611 3.564L6.602-1.95 7.734-.478 2.785 3.318l3.57.33-2.237 1.721-4.939-.468Z" style="fill:#81bc00;fill-opacity:1;fill-rule:nonzero;stroke:none" transform="matrix(1.33333 0 0 -1.33333 97.422 116.868)"/>
	<path d="m0 0 2.679 3.489-5.582-.953 5.958 7.779-2.3 1.754-5.927-7.731-.536 5.588-2.673-3.497.717-7.738z" style="fill:#81bc00;fill-opacity:1;fill-rule:nonzero;stroke:none" transform="matrix(1.33333 0 0 -1.33333 69.758 93.603)"/>
	<path d="m0 0 .373-2.796L2.468.163l.819-6.21 1.841.241L4.32.378l2.754-2.284L6.707.882 2.885 4.041Z" style="fill:#81bc00;fill-opacity:1;fill-rule:nonzero;stroke:none" transform="matrix(1.33333 0 0 -1.33333 149.237 83.088)"/>
	<path d="m0 0 4.364.575L-.258 3.86l9.707 1.271-.376 2.874-9.657-1.264 3.57 4.323-4.365-.586-4.958-5.969Z" style="fill:#81bc00;fill-opacity:1;fill-rule:nonzero;stroke:none" transform="matrix(1.33333 0 0 -1.33333 146.122 47.089)"/>
	<path d="m0 0-1.715-2.243 3.571.608L-1.95-6.6l1.468-1.134 3.804 4.946.328-3.567 1.719 2.239L4.905.823Z" style="fill:#81bc00;fill-opacity:1;fill-rule:nonzero;stroke:none" transform="matrix(1.33333 0 0 -1.33333 209.76 95.843)"/>
	<path d="m0 0 3.489-2.681-.951 5.58 7.773-5.958L12.072-.76l-7.73 5.932 5.585.534-3.503 2.67-7.726-.712z" style="fill:#81bc00;fill-opacity:1;fill-rule:nonzero;stroke:none" transform="matrix(1.33333 0 0 -1.33333 233.021 68.178)"/>
	<path d="m0 0-2.609-1.079L.79-2.332l-5.788-2.41.706-1.721 5.768 2.395-1.498-3.266L2.58-6.248l2.079 4.509z" style="fill:#81bc00;fill-opacity:1;fill-rule:nonzero;stroke:none" transform="matrix(1.33333 0 0 -1.33333 236.989 127.606)"/>
	<path d="m0 0 1.683-4.06L3.65 1.246l3.747-9.04 2.681 1.109-3.73 8.995 5.09-2.318-1.681 4.06-7.05 3.237z" style="fill:#81bc00;fill-opacity:1;fill-rule:nonzero;stroke:none" transform="matrix(1.33333 0 0 -1.33333 270.964 115.286)"/>
	<path d="m0 0-2.603 1.071 1.507-3.285L-6.887.189l-.708-1.731 5.762-2.385-3.361-1.245 2.604-1.076 4.664 1.732z" style="fill:#81bc00;fill-opacity:1;fill-rule:nonzero;stroke:none" transform="matrix(1.33333 0 0 -1.33333 240.326 189.367)"/>
	<path d="m0 0-1.681-4.067 5.142 2.35-3.743-9.043 2.675-1.105 3.73 8.995 1.951-5.246 1.683 4.052L7.06 3.233z" style="fill:#81bc00;fill-opacity:1;fill-rule:nonzero;stroke:none" transform="matrix(1.33333 0 0 -1.33333 273.072 204.662)"/>
	<path d="m0 0-1.084 2.61-1.252-3.4-2.401 5.792-1.722-.708 2.386-5.766L-7.327.015l1.078-2.603 4.514-2.069z" style="fill:#81bc00;fill-opacity:1;fill-rule:nonzero;stroke:none" transform="matrix(1.33333 0 0 -1.33333 199.017 235.412)"/>
	<path d="m0 0-4.062-1.669 5.304-1.972-9.045-3.745 1.107-2.688 9.004 3.73-2.33-5.091 4.058 1.676 3.248 7.067z" style="fill:#81bc00;fill-opacity:1;fill-rule:nonzero;stroke:none" transform="matrix(1.33333 0 0 -1.33333 211.346 269.39)"/>
	<path d="m0 0 1.075 2.603-3.294-1.517L.178 6.889l-1.713.701-2.39-5.758-1.251 3.355-1.073-2.607 1.728-4.649Z" style="fill:#81bc00;fill-opacity:1;fill-rule:nonzero;stroke:none" transform="matrix(1.33333 0 0 -1.33333 137.258 238.744)"/>
	<path d="m0 0-4.058 1.683 2.356-5.15-9.047 3.745-1.11-2.68 9.002-3.723-5.25-1.954 4.066-1.687 7.285 2.703z" style="fill:#81bc00;fill-opacity:1;fill-rule:nonzero;stroke:none" transform="matrix(1.33333 0 0 -1.33333 121.945 271.486)"/>
	<path d="m0 0 2.608 1.083L-.79 2.339l5.786 2.4-.708 1.712-5.76-2.376L.017 7.312l-2.601-1.068-2.071-4.509Z" style="fill:#81bc00;fill-opacity:1;fill-rule:nonzero;stroke:none" transform="matrix(1.33333 0 0 -1.33333 91.216 197.435)"/>
	<path d="m0 0-1.685 4.067-1.965-5.309-3.753 9.047-2.682-1.12 3.728-8.995-5.091 2.336 1.684-4.068 7.061-3.236z" style="fill:#81bc00;fill-opacity:1;fill-rule:nonzero;stroke:none" transform="matrix(1.33333 0 0 -1.33333 57.248 209.77)"/>
	<path d="m0 0 2.61-1.079-1.518 3.293L6.883-.174l.71 1.713-5.765 2.384 3.363 1.249L2.59 6.251l-4.651-1.728Z" style="fill:#81bc00;fill-opacity:1;fill-rule:nonzero;stroke:none" transform="matrix(1.33333 0 0 -1.33333 87.876 135.679)"/>
	<path d="m0 0 1.68 4.071-5.147-2.369L.28 10.756l-2.681 1.101-3.726-8.998-1.961 5.246-1.673-4.064 2.696-7.278Z" style="fill:#81bc00;fill-opacity:1;fill-rule:nonzero;stroke:none" transform="matrix(1.33333 0 0 -1.33333 55.142 120.373)"/>
	<path d="m0 0 1.086-2.61L2.343.782l2.403-5.787 1.713.715-2.388 5.762L7.328-.022 6.251 2.577l-4.51 2.076Z" style="fill:#81bc00;fill-opacity:1;fill-rule:nonzero;stroke:none" transform="matrix(1.33333 0 0 -1.33333 129.183 89.634)"/>
	<path d="m0 0 4.066 1.687-5.31 1.965 9.043 3.752-1.108 2.677-8.997-3.726 2.325 5.102-4.066-1.694-3.239-7.056Z" style="fill:#81bc00;fill-opacity:1;fill-rule:nonzero;stroke:none" transform="matrix(1.33333 0 0 -1.33333 116.858 55.67)"/>
	<path d="m0 0-1.077-2.599 3.294 1.513-2.393-5.788 1.713-.716L3.93-1.828l1.246-3.359 1.068 2.599-1.719 4.661Z" style="fill:#81bc00;fill-opacity:1;fill-rule:nonzero;stroke:none" transform="matrix(1.33333 0 0 -1.33333 190.949 86.307)"/>
	<path d="m0 0 4.058-1.687-2.354 5.15 9.043-3.741 1.107 2.677-8.997 3.722L8.111 8.09l-4.07 1.672-7.28-2.699Z" style="fill:#81bc00;fill-opacity:1;fill-rule:nonzero;stroke:none" transform="matrix(1.33333 0 0 -1.33333 206.257 53.56)"/>
	<path d="m0 0-2.234-1.728 3.611-.341-4.981-3.819 1.137-1.476 4.949 3.808-.599-3.522 2.242 1.709.821 4.887z" style="fill:#81bc00;fill-opacity:1;fill-rule:nonzero;stroke:none" transform="matrix(1.33333 0 0 -1.33333 225.463 109.922)"/>
	<path d="m0 0 2.688-3.493.529 5.632 5.96-7.76 2.306 1.761-5.936 7.723 5.519-.923-2.675 3.489L.732 7.73Z" style="fill:#81bc00;fill-opacity:1;fill-rule:nonzero;stroke:none" transform="matrix(1.33333 0 0 -1.33333 255.08 89.228)"/>
	<path d="m0 0-2.79.36 2.306-2.785-6.216.823-.241-1.857 6.186-.809-2.919-2.08 2.79-.355 4.05 2.865z" style="fill:#81bc00;fill-opacity:1;fill-rule:nonzero;stroke:none" transform="matrix(1.33333 0 0 -1.33333 244.679 168.722)"/>
	<path d="m0 0-.567-4.36 4.358 3.6-1.275-9.696 2.873-.382 1.268 9.663L9.901-5.74l.577 4.353-4.49 6.34z" style="fill:#81bc00;fill-opacity:1;fill-rule:nonzero;stroke:none" transform="matrix(1.33333 0 0 -1.33333 280.26 175.03)"/>
	<path d="m0 0-1.724 2.24-.332-3.604-3.821 4.968-1.474-1.127 3.805-4.954-3.537.601 1.716-2.236 4.894-.827z" style="fill:#81bc00;fill-opacity:1;fill-rule:nonzero;stroke:none" transform="matrix(1.33333 0 0 -1.33333 216.693 223.893)"/>
	<path d="m0 0-3.484-2.681 5.631-.526-7.766-5.962 1.774-2.306 7.723 5.932-.93-5.513L6.44-8.383 7.738-.716z" style="fill:#81bc00;fill-opacity:1;fill-rule:nonzero;stroke:none" transform="matrix(1.33333 0 0 -1.33333 237.387 253.51)"/>
	<path d="m0 0 .367 2.796L-2.425.478l.818 6.218-1.843.237-.816-6.177-2.074 2.911-.369-2.785 2.877-4.045Z" style="fill:#81bc00;fill-opacity:1;fill-rule:nonzero;stroke:none" transform="matrix(1.33333 0 0 -1.33333 157.898 243.1)"/>
	<path d="m0 0-4.359.567 3.608-4.353-9.705 1.261-.376-2.862 9.655-1.276-4.563-3.255 4.361-.564 6.34 4.487z" style="fill:#81bc00;fill-opacity:1;fill-rule:nonzero;stroke:none" transform="matrix(1.33333 0 0 -1.33333 151.587 278.673)"/>
	<path d="m0 0 2.232 1.72-3.6.323 4.966 3.83-1.132 1.468-4.947-3.8.596 3.537-2.233-1.709-.828-4.902z" style="fill:#81bc00;fill-opacity:1;fill-rule:nonzero;stroke:none" transform="matrix(1.33333 0 0 -1.33333 102.742 215.108)"/>
	<path d="m0 0-2.679 3.493-.534-5.647-5.958 7.779-2.299-1.773 5.931-7.727-5.527.938 2.685-3.492L-.73-7.738z" style="fill:#81bc00;fill-opacity:1;fill-rule:nonzero;stroke:none" transform="matrix(1.33333 0 0 -1.33333 73.117 235.812)"/>
	<path d="m0 0 2.799-.363L.48 2.425l6.211-.809.246 1.832-6.186.812 2.923 2.084-2.793.359-4.044-2.869Z" style="fill:#81bc00;fill-opacity:1;fill-rule:nonzero;stroke:none" transform="matrix(1.33333 0 0 -1.33333 83.526 156.323)"/>
	<path d="m0 0 .567 4.364L-3.789.749l1.272 9.707-2.87.382-1.274-9.655-3.253 4.568-.564-4.368 4.486-6.333z" style="fill:#81bc00;fill-opacity:1;fill-rule:nonzero;stroke:none" transform="matrix(1.33333 0 0 -1.33333 47.946 150.02)"/>
	<path d="m0 0 1.721-2.232.331 3.611 3.821-4.972 1.468 1.135-3.796 4.939 3.537-.594-1.709 2.236-4.902.823Z" style="fill:#81bc00;fill-opacity:1;fill-rule:nonzero;stroke:none" transform="matrix(1.33333 0 0 -1.33333 111.512 101.162)"/>
	<path d="m0 0 3.493 2.673-5.638.534 7.766 5.962-1.767 2.295-7.723-5.917.923 5.524-3.479-2.688L-7.738.734Z" style="fill:#81bc00;fill-opacity:1;fill-rule:nonzero;stroke:none" transform="matrix(1.33333 0 0 -1.33333 90.808 71.54)"/>
	<path d="m0 0-.369-2.792 2.79 2.314-.816-6.218 1.843-.245.814 6.181 2.077-2.914.365 2.795-2.87 4.042z" style="fill:#81bc00;fill-opacity:1;fill-rule:nonzero;stroke:none" transform="matrix(1.33333 0 0 -1.33333 170.306 81.947)"/>
	<path d="m0 0 4.355-.578L.747 3.778l9.707-1.268.369 2.87-9.65 1.275 4.559 3.248-4.36.571-6.333-4.494Z" style="fill:#81bc00;fill-opacity:1;fill-rule:nonzero;stroke:none" transform="matrix(1.33333 0 0 -1.33333 176.622 46.357)"/>
	<path d="m0 0-3.398.912 2.412-3.834-7.568 2.028-.6-2.246 7.523-2.025-3.96-2.091 3.402-.912 5.494 2.91z" style="fill:#81bc00;fill-opacity:1;fill-rule:nonzero;stroke:none" transform="matrix(1.33333 0 0 -1.33333 194.122 59.992)"/>
	<g clip-path="url(#a)" transform="matrix(1.33333 0 0 -1.33333 0 325.04)">
		<path d="M0 0c3.765 0 6.544.817 6.544 5.068v24.886c0 4.25-2.779 5.068-6.544 5.068h-20.29c-3.769 0-6.549-.818-6.549-5.068V5.068C-26.839.817-24.059 0-20.29 0Zm-42.229 29.622c0 13.102 4.741 20.127 18.496 20.127H3.265c13.587 0 18.496-7.025 18.496-20.127V5.399c0-13.087-4.74-20.126-18.496-20.126h-26.998c-13.755 0-18.496 7.039-18.496 20.126z" style="fill:#54575a;fill-opacity:1;fill-rule:nonzero;stroke:none" transform="translate(319.042 157.402)"/>
		<path d="M0 0c3.928 0 7.034.649 7.034 5.077 0 4.251-2.943 5.068-6.703 5.068h-26.025V0Zm-40.912 21.761c0 1.808 1.64 3.111 3.433 3.111H3.76c13.756 0 18.496-7.025 18.496-20.127 0-12.606-5.39-19.477-18.496-19.477h-29.454v-21.434c0-1.803-1.472-3.438-3.27-3.438h-8.678c-1.803 0-3.27 1.635-3.27 3.438z" style="fill:#54575a;fill-opacity:1;fill-rule:nonzero;stroke:none" transform="translate(407.895 182.28)"/>
		<path d="M0 0c0 1.808 1.639 3.111 3.433 3.111h51.72c1.803 0 3.438-1.303 3.438-3.111v-8.337c0-1.798-1.635-3.279-3.438-3.279H15.218v-10.145h25.698c1.803 0 3.438-1.481 3.438-3.27v-8.356c0-1.798-1.635-3.106-3.438-3.106H15.218v-10.145h39.776c1.798 0 3.438-1.481 3.438-3.279v-8.337c0-1.808-1.64-3.111-3.438-3.111H3.27C1.476-61.365 0-59.73 0-57.927z" style="fill:#54575a;fill-opacity:1;fill-rule:nonzero;stroke:none" transform="translate(451.814 204.04)"/>
		<path d="M0 0c0 1.808 1.64 3.111 3.428 3.111h42.07c13.747 0 18.492-7.025 18.492-20.127v-40.911c0-1.803-1.466-3.438-3.428-3.438h-8.515c-1.967 0-3.279 1.635-3.279 3.438v41.243c0 4.25-2.938 5.068-6.539 5.068H15.227v-46.311c0-1.803-1.481-3.438-3.284-3.438H3.265C1.471-61.365 0-59.73 0-57.927Z" style="fill:#54575a;fill-opacity:1;fill-rule:nonzero;stroke:none" transform="translate(535.482 204.04)"/>
		<path d="M0 0c-10.405 0-15.605 6.639-15.605 19.257C-15.605 32.591-9.409 38.4.218 38.4c3.102 0 6.643-.661 8.744-1.88-.166-.942-.554-1.994-.941-2.877-2.212 1.271-4.923 1.935-7.858 1.935-8.353 0-12.393-4.371-12.393-16.543 0-10.9 3.652-16.214 12.175-16.214 3.098 0 5.974.665 8.796 2.437.387-.886.72-1.828.941-2.88C6.972.72 3.32 0 0 0" style="fill:#54575a;fill-opacity:1;fill-rule:nonzero;stroke:none" transform="translate(292.418 89.272)"/>
		<path d="M0 0c-4.759 0-8.688-2.323-8.688-12.282 0-9.572 3.264-12.285 8.522-12.285 5.255 0 8.741 2.658 8.741 12.285C8.575-2.821 5.144 0 0 0m-.221-27.277c-7.083 0-11.621 4.261-11.621 14.995C-11.842-2.544-7.027 2.714 0 2.714c6.806 0 11.729-3.929 11.729-14.996 0-10.402-5.145-14.995-11.95-14.995" style="fill:#54575a;fill-opacity:1;fill-rule:nonzero;stroke:none" transform="translate(320.031 116.549)"/>
		<path d="M0 0v21.081c0 3.265-1.658 5.532-5.532 5.532-3.319 0-5.258-.993-7.802-3.043V0h-2.932v21.081c0 3.265-1.828 5.532-5.702 5.532-2.821 0-5.088-.993-7.58-2.932V0h-2.932v28.718c.664.166 2.159.277 2.932.277v-2.822h.166c2.603 2.323 4.759 3.265 7.858 3.265 2.987 0 5.756-1.108 7.082-4.04 3.154 2.821 5.975 4.04 9.353 4.04 4.258 0 8.021-1.883 8.021-8.578V0Z" style="fill:#54575a;fill-opacity:1;fill-rule:nonzero;stroke:none" transform="translate(374.205 89.825)"/>
		<path d="M0 0c-2.877 0-5.532-.994-8.024-2.766v-20.417c2.049-.941 4.372-1.329 6.311-1.329 6.14 0 9.349 3.32 9.349 12.729C7.636-2.378 4.704 0 0 0m-1.935-27.222c-2.105 0-4.151.443-6.089 1.218v-12.064h-2.932V2.049c.665.166 2.16.277 2.932.277v-2.6h.166C-4.922 2.049-2.378 2.769.72 2.769c5.809 0 10.07-3.818 10.07-14.109 0-11.289-4.759-15.882-12.725-15.882" style="fill:#54575a;fill-opacity:1;fill-rule:nonzero;stroke:none" transform="translate(399.998 116.494)"/>
		<path d="M0 0v2.489h-.166C-3.101.554-5.867-.554-9.353-.554c-4.261 0-7.803 1.883-7.803 8.523v20.749c.72.166 2.16.277 2.936.277V7.803c0-3.265 1.436-5.536 5.31-5.536 3.597 0 6.307 1.108 8.91 2.77v23.681c.661.166 2.157.277 2.932.277V0Z" style="fill:#54575a;fill-opacity:1;fill-rule:nonzero;stroke:none" transform="translate(437.629 89.825)"/>
		<path d="M0 0c-5.314 0-7.082 2.766-7.082 8.522v18.427h-3.597v2.489h3.597v6.417c.609.277 2.212.554 2.932.554v-6.971h7.137c0-.776-.11-1.773-.221-2.489H-4.15V8.246c0-4.096.996-5.425 4.039-5.425 1.33 0 2.988.332 4.262.886.276-.775.498-1.88.498-2.766C3.209.277 1.551 0 0 0" style="fill:#54575a;fill-opacity:1;fill-rule:nonzero;stroke:none" transform="translate(460.925 89.272)"/>
		<path d="M0 0h15.051c.055.498.055 1.44.055 1.883 0 5.919-2.821 8.187-7.193 8.187C3.264 10.07.277 7.193 0 0m17.872-2.323H-.055v-.332c0-7.969 2.267-12.008 9.46-12.008 2.659 0 5.425.83 7.027 1.882.388-.775.776-1.827.942-2.655-1.935-1.273-5.2-1.993-8.135-1.993-8.187 0-12.392 4.648-12.392 14.608 0 11.122 4.925 15.383 11.177 15.383 6.141 0 9.959-3.652 9.959-10.845 0-1.219-.055-2.711-.111-4.04" style="fill:#54575a;fill-opacity:1;fill-rule:nonzero;stroke:none" transform="translate(474.263 106.7)"/>
		<path d="M0 0h1.689c.335 0 .661.011.981.033.319.024.605.088.855.195.251.106.448.266.593.479.144.214.217.516.217.912 0 .336-.065.605-.193.811a1.29 1.29 0 0 1-.515.468 2.135 2.135 0 0 1-.718.204c-.265.03-.529.046-.787.046H0Zm-1.368 4.379h3.605c1.186 0 2.061-.224 2.623-.672.563-.449.843-1.167.843-2.155 0-.884-.251-1.53-.752-1.94-.501-.41-1.118-.654-1.847-.73l2.827-4.334H4.45L1.758-1.233H0v-4.219h-1.368zM-5.384-.525c0-1.02.188-1.966.561-2.839a7.031 7.031 0 0 1 1.539-2.281 7.315 7.315 0 0 1 2.282-1.53 7.056 7.056 0 0 1 2.805-.559c1.004 0 1.94.188 2.806.559a7.224 7.224 0 0 1 2.28 1.541A7.105 7.105 0 0 1 8.43-3.319c.373.889.559 1.851.559 2.887a7.256 7.256 0 0 1-.559 2.851A7 7 0 0 1 6.889 4.71a7.128 7.128 0 0 1-5.086 2.066 7.022 7.022 0 0 1-2.805-.561 7.31 7.31 0 0 1-2.282-1.528 6.99 6.99 0 0 1-1.539-2.303c-.373-.89-.561-1.859-.561-2.909m-1.368 0c0 1.217.229 2.346.685 3.388A8.545 8.545 0 0 0-4.22 5.566a8.563 8.563 0 0 0 6.023 2.441 8.507 8.507 0 0 0 3.297-.65 8.648 8.648 0 0 0 2.725-1.78 8.464 8.464 0 0 0 1.849-2.668c.455-1.027.683-2.14.683-3.341 0-1.218-.228-2.347-.683-3.389a8.535 8.535 0 0 0-1.849-2.702A8.51 8.51 0 0 0 5.1-8.315a8.525 8.525 0 0 0-3.297-.65 8.493 8.493 0 0 0-3.308.65A8.667 8.667 0 0 0-4.22-6.536a8.474 8.474 0 0 0-1.847 2.669c-.456 1.027-.685 2.141-.685 3.342" style="fill:#54575a;fill-opacity:1;fill-rule:nonzero;stroke:none" transform="translate(460.521 64.844)"/>
		<path d="M0 0c-1.329 0-3.596-.166-6.255-.443v-16.82h5.314c5.808 0 9.959 2.323 9.959 8.688C9.018-1.935 4.756 0 0 0m-.277-19.918h-5.978V-35.08h-3.098V1.828c4.206.55 6.144.772 9.298.772 6.417 0 12.337-2.932 12.337-11.175 0-7.802-5.975-11.343-12.559-11.343" style="fill:#54575a;fill-opacity:1;fill-rule:nonzero;stroke:none" transform="translate(288.717 70.738)"/>
		<path d="M0 0c-.609.166-1.385.277-2.437.277C-4.372.277-6.474 0-9.63-3.707v-22.411h-2.932V2.6c.664.166 2.16.277 2.932.277V-.775h.166C-5.978 2.987-3.818 3.32-2.049 3.32c.664 0 1.717-.056 2.381-.277C.332 2.212.166.883 0 0" style="fill:#54575a;fill-opacity:1;fill-rule:nonzero;stroke:none" transform="translate(322.97 61.776)"/>
		<path d="M0 0c-4.76 0-8.689-2.323-8.689-12.282 0-9.572 3.265-12.285 8.523-12.285 5.254 0 8.74 2.658 8.74 12.285C8.574-2.821 5.144 0 0 0m-.222-27.277c-7.082 0-11.62 4.261-11.62 14.995C-11.842-2.544-7.027 2.714 0 2.714c6.805 0 11.728-3.929 11.728-14.996 0-10.402-5.144-14.995-11.95-14.995" style="fill:#54575a;fill-opacity:1;fill-rule:nonzero;stroke:none" transform="translate(340.68 62.382)"/>
		<path d="M0 0c-1.218 0-1.883.886-1.883 2.046 0 1.163.665 2.105 1.938 2.105 1.219 0 1.88-.942 1.88-2.105C1.935.831 1.274 0 0 0m-6.529-47.199c-.277.775-.498 2.049-.498 2.824 4.15.329 5.587 2.489 5.587 6.363v31.65h2.932v-31.595c0-4.76-2.323-8.688-8.021-9.242" style="fill:#54575a;fill-opacity:1;fill-rule:nonzero;stroke:none" transform="translate(363.813 70.905)"/>
		<path d="M0 0h15.051c.056.498.056 1.44.056 1.883 0 5.919-2.821 8.187-7.194 8.187C3.264 10.07.277 7.193 0 0m17.873-2.323H-.055v-.332c0-7.969 2.267-12.008 9.461-12.008 2.658 0 5.424.83 7.026 1.882.388-.775.776-1.827.942-2.655-1.935-1.273-5.2-1.993-8.135-1.993-8.187 0-12.393 4.648-12.393 14.608 0 11.122 4.926 15.383 11.178 15.383 6.141 0 9.959-3.652 9.959-10.845 0-1.219-.055-2.711-.11-4.04" style="fill:#54575a;fill-opacity:1;fill-rule:nonzero;stroke:none" transform="translate(378.366 52.534)"/>
		<path d="M0 0c-8.298 0-12.282 4.981-12.282 14.497 0 11.178 5.2 15.494 11.676 15.494 1.991 0 5.255-.387 7.304-1.273-.055-.831-.277-1.991-.609-2.822-2.16.942-4.427 1.326-6.639 1.326-5.093 0-8.578-2.821-8.578-11.617 0-10.015 3.042-12.839 9.073-12.839 2.326 0 5.036.554 6.864 1.772.329-.72.661-1.828.772-2.711C5.48.498 2.049 0 0 0" style="fill:#54575a;fill-opacity:1;fill-rule:nonzero;stroke:none" transform="translate(416.05 35.105)"/>
		<path d="M0 0c-5.314 0-7.083 2.766-7.083 8.522v18.427h-3.596v2.489h3.596v6.417c.609.277 2.212.554 2.932.554v-6.971h7.138c0-.776-.11-1.773-.221-2.489h-6.917V8.246c0-4.096.997-5.425 4.04-5.425 1.329 0 2.988.332 4.261.886.277-.775.499-1.88.499-2.766C3.209.277 1.551 0 0 0" style="fill:#54575a;fill-opacity:1;fill-rule:nonzero;stroke:none" transform="translate(440.675 35.105)"/>
	</g>
</svg>
