<svg xmlns="http://www.w3.org/2000/svg" viewBox="-7.24 -5.49 372.49 389.74">
	<path fill="url(#a)" fill-rule="evenodd" d="M4.093 105.086V2.091h349.792v102.995H4.093zm41.015-61.755v20.512H65.62V43.331H45.108zm41.026 20.512V43.331h20.512v20.512H86.134zm137.921-20.512v20.512h88.815V43.331h-88.815z" clip-rule="evenodd"/>
	<path fill="url(#b)" fill-rule="evenodd" d="M208.264 229.927H4.093V126.933h349.792v102.994h-72.999l-36.311-84.268-36.311 84.268zm-101.618-41.241v-20.512H86.134v20.512h20.512zM65.62 168.174v20.512H45.108v-20.512H65.62z" clip-rule="evenodd"/>
	<path fill="#EDB51D" d="m244.575 201.838 9.977 27.916h25.939l-21.949 15.952 8.241 27.915-22.208-15.951-22.188 15.951 8.221-27.915-21.949-15.952h25.939l9.977-27.916z"/>
	<g filter="url(#c)">
		<path fill="#4C5550" d="M4.443 326.873c0-9.358 2.443-16.563 7.329-21.614 4.858-5.024 11.47-7.536 19.834-7.536 8.225 0 14.63 2.36 19.212 7.08 4.61 4.72 6.915 11.401 6.915 20.041 0 9.302-2.43 16.493-7.288 21.572-4.83 5.08-11.455 7.619-19.875 7.619-8.226 0-14.644-2.36-19.254-7.08-4.582-4.748-6.873-11.442-6.873-20.082zm26.914 20.537c3.257 0 5.783-1.684 7.577-5.051 1.822-3.396 2.733-8.475 2.733-15.238 0-7.674-.938-13.388-2.815-17.142-1.878-3.782-4.555-5.673-8.033-5.673-3.285 0-5.839 1.684-7.66 5.052-1.795 3.368-2.692 8.419-2.692 15.154 0 7.73.939 13.485 2.816 17.267 1.904 3.754 4.596 5.631 8.074 5.631zm29.71 21.531v-4.761c1.214-.552 2.65-.911 4.306-1.077v-43.435l-4.223-1.077v-5.01c4.968-1.297 11.041-1.946 18.218-1.946v6.418c1.05-2.125 2.706-3.823 4.97-5.093a14.495 14.495 0 0 1 7.328-1.946c5.024 0 8.902 1.781 11.635 5.341 2.761 3.561 4.141 8.572 4.141 15.031 0 6.873-1.767 12.408-5.3 16.604-3.506 4.196-8.157 6.294-13.954 6.294-3.285 0-6.128-.967-8.53-2.899v11.718c2.07.166 3.782.525 5.135 1.077v4.761H61.067zm24.098-48.693c-2.236 0-4.071.8-5.507 2.401v23.063c.911.277 1.974.415 3.188.415 3.175 0 5.59-1.187 7.247-3.561 1.683-2.402 2.525-5.797 2.525-10.186 0-4.251-.635-7.329-1.904-9.234-1.243-1.932-3.092-2.898-5.549-2.898zm26.563 11.8c0-6.487 2.015-11.593 6.046-15.32 4.03-3.754 9.081-5.631 15.154-5.631 5.604 0 9.896 1.504 12.878 4.513 3.008 3.009 4.513 7.219 4.513 12.629 0 1.573-.138 3.299-.414 5.176h-23.767c.607 7.563 4.237 11.345 10.889 11.345 4.058 0 7.467-1.463 10.228-4.389l2.401 3.644c-1.545 3.036-3.795 5.452-6.749 7.246-2.926 1.794-6.363 2.691-10.31 2.691-6.515 0-11.621-1.835-15.32-5.507-3.699-3.699-5.549-9.164-5.549-16.397zm20.869-14.409c-3.92 0-6.073 3.423-6.459 10.269h11.635c.055-.331.083-1.132.083-2.402 0-2.512-.456-4.444-1.367-5.797-.911-1.38-2.208-2.07-3.892-2.07zM153.694 353v-4.762c1.215-.552 2.664-.911 4.348-1.076v-27.494l-4.265-1.077v-5.01c5.742-1.49 11.911-2.236 18.509-2.236v6.542c1.463-2.235 3.409-3.933 5.838-5.092 2.457-1.187 5.203-1.781 8.24-1.781 4.085 0 7.246 1.118 9.482 3.354 2.263 2.236 3.395 5.3 3.395 9.192v23.602c1.656.165 3.092.524 4.306 1.076V353H180.65v-4.762c1.214-.552 2.664-.911 4.347-1.076v-20.621c0-1.739-.469-3.077-1.407-4.016-.911-.939-2.223-1.408-3.934-1.408-2.843 0-5.3.994-7.37 2.981v23.064c1.739.165 3.202.524 4.389 1.076V353h-22.981zm52.401 0v-5.093c1.435-.58 3.105-.952 5.01-1.118v-41.862c-1.905-.165-3.575-.538-5.01-1.118v-5.093h45.547c.331 2.264.496 4.445.496 6.543 0 3.643-.22 6.721-.662 9.233h-7.205l-2.236-9.647H226.26v17.721h7.66c.662-3.064 1.076-4.761 1.242-5.093h5.631c.331 2.043.497 4.693.497 7.95 0 4.141-.166 7.481-.497 10.021h-5.631c-.663-2.678-1.104-4.762-1.325-6.253h-7.577v17.722h16.024l3.768-11.386 7.453 1.2c0 5.963-.732 11.387-2.195 16.273h-45.215zm50.247 0v-5.093c1.435-.58 3.106-.952 5.01-1.118v-41.862c-1.904-.165-3.575-.538-5.01-1.118v-5.093H281.6v5.093c-1.463.58-3.161.953-5.093 1.118v41.986h14.616l3.727-11.386 7.453 1.2c0 5.963-.732 11.387-2.195 16.273h-43.766zm48.094 0v-5.093c1.436-.58 3.106-.952 5.01-1.118v-41.862c-1.904-.165-3.574-.538-5.01-1.118v-5.093h29.606c5.024 0 9.123 1.105 12.297 3.313 3.147 2.291 4.721 5.521 4.721 9.689 0 3.064-.773 5.659-2.319 7.784-1.546 2.098-3.685 3.575-6.418 4.431 3.809.662 6.694 2.112 8.654 4.347 1.987 2.209 2.981 4.969 2.981 8.282 0 5.217-1.891 9.261-5.673 12.132-3.754 2.871-8.957 4.306-15.61 4.306h-28.239zm20.165-48.155v17.556h3.561c2.678 0 4.72-.787 6.128-2.36 1.408-1.574 2.112-3.879 2.112-6.915 0-5.521-2.802-8.281-8.406-8.281h-3.395zm0 24.057v18.011h4.016c3.285 0 5.784-.773 7.495-2.318 1.711-1.546 2.567-3.837 2.567-6.874 0-3.064-.787-5.3-2.36-6.708-1.573-1.408-4.003-2.111-7.287-2.111h-4.431z"/>
	</g>
	<defs>
		<linearGradient id="a" x1="-73.743" x2="32.236" y1="65.127" y2="258.154" gradientUnits="userSpaceOnUse">
			<stop stop-color="#17BC85" offset="0%"/>
			<stop offset="1" stop-color="#01AA72"/>
			<stop offset="1" stop-color="#00A971"/>
		</linearGradient>
		<linearGradient id="b" x1="-73.743" x2="32.236" y1="189.968" y2="382.996" gradientUnits="userSpaceOnUse">
			<stop stop-color="#17BC85" offset="0%"/>
			<stop offset="1" stop-color="#01AA72"/>
			<stop offset="1" stop-color="#00A971"/>
		</linearGradient>
		<filter id="c" width="357.515" height="79.219" x=".443" y="297.723" color-interpolation-filters="sRGB" filterUnits="userSpaceOnUse">
			<feFlood flood-opacity="0" result="BackgroundImageFix"/>
			<feColorMatrix in="SourceAlpha" result="hardAlpha" values="0 0 0 0 0 0 0 0 0 0 0 0 0 0 0 0 0 0 127 0"/>
			<feOffset dy="4"/>
			<feGaussianBlur stdDeviation="2"/>
			<feComposite in2="hardAlpha" operator="out"/>
			<feColorMatrix values="0 0 0 0 0 0 0 0 0 0 0 0 0 0 0 0 0 0 0.25 0"/>
			<feBlend in2="BackgroundImageFix" result="effect1_dropShadow_1_75"/>
			<feBlend in="SourceGraphic" in2="effect1_dropShadow_1_75" result="shape"/>
		</filter>
	</defs>
</svg>
