<svg xmlns="http://www.w3.org/2000/svg" width="200" height="128">
	<path d="M32.995 61.884 25.8 64.505a20.861 20.861 0 0 0 .569 3.412l6.836-2.49a13.368 13.368 0 0 1-.212-3.543M64.8 53.93a20.641 20.641 0 0 0-1.763-2.982l-7.194 2.621a13.382 13.382 0 0 1 2.114 2.847z" fill="#a30000"/>
	<path d="M48.968 51.89a13.275 13.275 0 0 1 3.885 2.77l7.2-2.617a20.565 20.565 0 0 0-37.248 13.568l7.185-2.636A13.334 13.334 0 0 1 48.957 51.89M26.82 67.751 20 70.241a20.85 20.85 0 0 0 3.212 6.967l7.163-2.608a13.445 13.445 0 0 1-3.558-6.844m29.825-2.717a13.151 13.151 0 0 1-1.207 4.611 13.346 13.346 0 0 1-21.656 3.708l-7.189 2.628a20.394 20.394 0 0 0 8.01 6.674 20.607 20.607 0 0 0 27.352-9.96A20.363 20.363 0 0 0 63.8 62.426z" fill="#c00"/>
	<path d="m58.425 56.255-6.836 2.49a13.417 13.417 0 0 1 1.675 7.527l7.182-2.609a20.763 20.763 0 0 0-2.021-7.408" fill="#c00"/>
	<path d="M32.968 63.333a13.4 13.4 0 0 1 .027-1.445L25.8 64.505c.035.461.1.918.165 1.375zm30.786-11.297c-.227-.384-.461-.73-.711-1.084l-7.193 2.617a12.4 12.4 0 0 1 .884 1.018z" fill="#820000"/>
	<path d="M26.59 75.986a20.569 20.569 0 0 0 1.829 2.221l7.815-2.851a13.18 13.18 0 0 1-2.466-1.987zm37.21-13.56-7.178 2.609a13.155 13.155 0 0 1-.607 3.074l7.816-2.851a20.55 20.55 0 0 0-.027-2.851" fill="#a30000"/>
	<path d="m78.163 59.92-1.514-3.12h-1.033v3.12H73.1v-9.26h4.15a6.156 6.156 0 0 1 1.475.165 3.15 3.15 0 0 1 1.153.523 2.332 2.332 0 0 1 .734.934 3.4 3.4 0 0 1 .257 1.4 2.967 2.967 0 0 1-.449 1.706 2.854 2.854 0 0 1-1.249 1.006l1.856 3.535h-2.875zm-.119-6.893a1.156 1.156 0 0 0-.872-.277h-1.537v2.025h1.518a1.257 1.257 0 0 0 .9-.265 1.037 1.037 0 0 0 .265-.768 1.01 1.01 0 0 0-.274-.715zm4.93 6.893v-9.26h7.093v2.156h-4.553v1.245h2.74v2.117h-2.74v1.587h4.645v2.155zm16.915-2.478a3.342 3.342 0 0 1-.953 1.441 3.834 3.834 0 0 1-1.568.795 8.524 8.524 0 0 1-2.163.246h-3V50.66h3.243a8.026 8.026 0 0 1 1.971.227 3.591 3.591 0 0 1 1.5.768 3.492 3.492 0 0 1 .953 1.411 6.085 6.085 0 0 1 .338 2.182 6.636 6.636 0 0 1-.321 2.194zM97.46 54.18a1.773 1.773 0 0 0-.365-.769 1.483 1.483 0 0 0-.661-.43 3.15 3.15 0 0 0-1.007-.138h-.634v4.883h.558a3.611 3.611 0 0 0 1.018-.126 1.546 1.546 0 0 0 .695-.411 1.664 1.664 0 0 0 .385-.769 4.806 4.806 0 0 0 .119-1.153 4.73 4.73 0 0 0-.108-1.087zm14.959 5.74v-3.65h-2.89v3.654h-2.613V50.66h2.613v3.374h2.886V50.66h2.621v9.26h-2.617zm10.881 0-.5-1.609h-2.778l-.5 1.609h-2.752l3.363-9.264h2.593l3.362 9.264H123.3zm-1.3-4.272c-.079-.3-.15-.556-.211-.769l-.166-.595c-.048-.177-.091-.339-.126-.485s-.067-.307-.093-.484c-.025.159-.056.314-.092.465s-.078.314-.127.488l-.165.6-.211.768-.173.607h1.537zm9.32-2.748v7.02h-2.578V52.9h-2.594v-2.24h7.752v2.24h-2.58zm6.033-.638a1.155 1.155 0 0 1-.631.631 1.275 1.275 0 0 1-.945 0 1.151 1.151 0 0 1-.63-.631 1.275 1.275 0 0 1 0-.945 1.152 1.152 0 0 1 .63-.63 1.275 1.275 0 0 1 .945 0 1.157 1.157 0 0 1 .631.63 1.275 1.275 0 0 1 0 .945zm-.177-.868a.964.964 0 0 0-.53-.53 1.073 1.073 0 0 0-.792 0 .964.964 0 0 0-.53.53 1.063 1.063 0 0 0 0 .792.97.97 0 0 0 .53.53 1.073 1.073 0 0 0 .792 0 .973.973 0 0 0 .53-.53 1.073 1.073 0 0 0 0-.792zm-.461.384a.385.385 0 0 1-.2.131l.269.526h-.261l-.254-.5h-.25v.5h-.222v-1.321h.568a.525.525 0 0 1 .162.023.381.381 0 0 1 .134.073.33.33 0 0 1 .092.123.41.41 0 0 1 .035.176.39.39 0 0 1-.069.25zm-.2-.384a.236.236 0 0 0-.15-.046h-.346v.384h.346a.236.236 0 0 0 .15-.046.192.192 0 0 0 .021-.271.208.208 0 0 0-.025-.021zM83.623 72.385a6.913 6.913 0 0 1-1.179 2.275 5.339 5.339 0 0 1-6.552 1.487 5.277 5.277 0 0 1-1.817-1.479 6.908 6.908 0 0 1-1.153-2.263 9.675 9.675 0 0 1-.407-2.878 9.525 9.525 0 0 1 .415-2.89 7.025 7.025 0 0 1 1.153-2.275 5.381 5.381 0 0 1 1.825-1.487 5.5 5.5 0 0 1 4.714 0 5.3 5.3 0 0 1 1.818 1.48 7.066 7.066 0 0 1 1.153 2.263 10.593 10.593 0 0 1 .03 5.767zm-1.46-5.237a5.886 5.886 0 0 0-.9-1.825 4.047 4.047 0 0 0-1.348-1.153 3.579 3.579 0 0 0-1.687-.407 3.449 3.449 0 0 0-1.656.407 3.971 3.971 0 0 0-1.322 1.153 5.711 5.711 0 0 0-.872 1.806 8.229 8.229 0 0 0-.319 2.371 8.062 8.062 0 0 0 .326 2.371 6.037 6.037 0 0 0 .9 1.825 3.926 3.926 0 0 0 1.341 1.152 3.65 3.65 0 0 0 3.354 0A3.943 3.943 0 0 0 81.3 73.7a5.775 5.775 0 0 0 .872-1.806 8.3 8.3 0 0 0 .319-2.371 8.029 8.029 0 0 0-.328-2.375zm14.809 1.407a3.77 3.77 0 0 1-.964 1.348 4.056 4.056 0 0 1-1.487.822A6.227 6.227 0 0 1 92.6 71h-3.359v5.46H87.7V62.568h5.2a5.937 5.937 0 0 1 1.756.25 3.832 3.832 0 0 1 1.4.768 3.548 3.548 0 0 1 .934 1.3 5.094 5.094 0 0 1-.018 3.669zm-1.956-3.843a3.033 3.033 0 0 0-2.182-.726h-3.593V69.6h3.381q3.136 0 3.136-2.821a2.744 2.744 0 0 0-.742-2.071zm5.541 11.754v-13.9h8.4v1.41h-6.847v4.369h3.965v1.41h-3.965v5.3h7.147v1.41zm20.803 0-6.067-9.51q-.119-.177-.257-.426l-.277-.5q-.138-.251-.269-.465a3.285 3.285 0 0 1-.188-.357v11.258h-1.51v-13.9h1.51l6.013 9.687q.119.18.258.426l.276.5q.138.249.269.465a3.2 3.2 0 0 1 .188.357V62.568h1.511v13.894h-1.468zm13.914-2.125a3.383 3.383 0 0 1-.9 1.23 4.406 4.406 0 0 1-1.449.814 5.865 5.865 0 0 1-1.944.3 6.293 6.293 0 0 1-2.632-.545 6.856 6.856 0 0 1-2.033-1.38l1.034-1.153a7.058 7.058 0 0 0 1.706 1.211 4.37 4.37 0 0 0 1.986.457 3.457 3.457 0 0 0 2.194-.634 2.1 2.1 0 0 0 .8-1.748 2.347 2.347 0 0 0-.158-.873 1.948 1.948 0 0 0-.546-.734 5.133 5.133 0 0 0-1.022-.664 12.819 12.819 0 0 0-1.587-.665 13.881 13.881 0 0 1-1.894-.8 5.181 5.181 0 0 1-1.23-.872 2.822 2.822 0 0 1-.676-1.042 3.87 3.87 0 0 1-.207-1.329 3.35 3.35 0 0 1 .319-1.487 3.308 3.308 0 0 1 .883-1.122 3.832 3.832 0 0 1 1.372-.7 6.229 6.229 0 0 1 1.775-.239 6.34 6.34 0 0 1 2.371.385 7.484 7.484 0 0 1 1.856 1.091l-.991 1.21a6.184 6.184 0 0 0-1.537-.964 4.616 4.616 0 0 0-1.818-.327 3.993 3.993 0 0 0-1.229.169 2.492 2.492 0 0 0-.846.446 1.656 1.656 0 0 0-.476.646 2.044 2.044 0 0 0-.15.768 2.418 2.418 0 0 0 .119.769 1.669 1.669 0 0 0 .476.676 4.348 4.348 0 0 0 1.026.688 16.72 16.72 0 0 0 1.7.695 14.65 14.65 0 0 1 1.921.834 4.824 4.824 0 0 1 1.241.914 2.947 2.947 0 0 1 .665 1.092 4.333 4.333 0 0 1 .2 1.371 3.83 3.83 0 0 1-.319 1.512zm12.588 2.125v-6.532h-6.917v6.532h-1.537v-13.9h1.537v5.937h6.917v-5.935h1.538v13.894h-1.537zm5.894 0v-13.9h1.537v13.896h-1.537zm7.444-12.488v4.611h3.811V70H161.2v6.47h-1.537v-13.9h8.157v1.41h-6.62zm14.712 0v12.488h-1.537V63.978h-4.1v-1.41H180v1.41z"/>
</svg>
