<svg xmlns="http://www.w3.org/2000/svg" viewBox="-0.67 -0.3 171.6 56.1">
	<defs>
		<style>
			.cls-4{fill:#153057}
		</style>
	</defs>
	<path fill="#00aeef" d="M23.957 34.63V10.372a4.453 4.453 0 0 0-1.481.527L4.896 21.05a4.458 4.458 0 0 0-2.23 3.86v20.943a4.444 4.444 0 0 0 .286 1.547z"/>
	<path fill="#204393" d="M48.62 30.985V17.553a4.46 4.46 0 0 0-2.23-3.861L28.812 3.542a4.45 4.45 0 0 0-1.483-.526v24.257l6.829-4.703z"/>
	<path fill="#14254b" d="M27.087 28.72v7.897l-13.774 8.757 2.423 1.383 9.243 5.272a4.457 4.457 0 0 0 4.458-.023l17.527-10.242a4.443 4.443 0 0 0 1.193-1.027z"/>
	<path d="M58.81 22.558c0-3.88 2.124-6.228 5.173-6.228s5.194 2.366 5.194 6.228c0 3.9-2.144 6.34-5.194 6.34s-5.174-2.44-5.174-6.34zm8.76 0c0-3.012-1.424-4.879-3.587-4.879s-3.585 1.867-3.585 4.88c0 3.03 1.423 4.99 3.585 4.99s3.587-1.96 3.587-4.99zm4.03-6.006h3.456c2.716 0 4.547.905 4.547 3.567 0 2.55-1.811 3.752-4.474 3.752h-1.994v4.805h-1.536zm3.346 6.062c2.106 0 3.123-.776 3.123-2.495 0-1.756-1.073-2.33-3.198-2.33h-1.736v4.825zm8.466 4.75v-9.518h5.452v-1.294h-6.987v12.124h7.171v-1.312h-5.636zm8.021-10.812h1.59l4.38 7.615 1.313 2.512h.074c-.074-1.219-.185-2.587-.185-3.861v-6.266h1.46v12.124h-1.59l-4.398-7.633-1.312-2.495h-.075c.094 1.22.204 2.513.204 3.789v6.339h-1.46zm12.182 10.553.923-1.072a4.751 4.751 0 0 0 3.346 1.516c1.59 0 2.532-.795 2.532-1.978 0-1.238-.869-1.626-2.014-2.144l-1.738-.758a3.406 3.406 0 0 1-2.458-3.123c0-1.848 1.608-3.216 3.807-3.216a5.026 5.026 0 0 1 3.585 1.497l-.83.998a3.868 3.868 0 0 0-2.755-1.146c-1.349 0-2.254.684-2.254 1.774 0 1.165 1.053 1.608 2.014 2.015l1.719.739c1.405.61 2.495 1.442 2.495 3.235 0 1.922-1.571 3.456-4.12 3.456a5.883 5.883 0 0 1-4.252-1.793zm10.24-4.547c0-3.88 2.126-6.228 5.175-6.228s5.193 2.366 5.193 6.228c0 3.9-2.143 6.34-5.193 6.34s-5.175-2.44-5.175-6.34zm8.76 0c0-3.012-1.423-4.879-3.585-4.879s-3.586 1.867-3.586 4.88c0 3.03 1.424 4.99 3.586 4.99s3.585-1.96 3.585-4.99zm4.345 1.11v-7.116h1.534v7.152c0 2.92 1.239 3.845 2.828 3.845 1.607 0 2.864-.924 2.864-3.845v-7.152h1.48v7.116c0 3.9-1.867 5.23-4.344 5.23-2.476 0-4.362-1.33-4.362-5.23zm22.164-1.054c0-3.9 2.292-6.284 5.378-6.284a4.423 4.423 0 0 1 3.326 1.497l-.832.998a3.31 3.31 0 0 0-2.476-1.146c-2.29 0-3.806 1.886-3.806 4.898 0 3.05 1.459 4.972 3.751 4.972a3.66 3.66 0 0 0 2.81-1.368l.85.96a4.692 4.692 0 0 1-3.716 1.757c-3.03 0-5.285-2.329-5.285-6.284zM58.822 42.018c0-3.956 2.326-6.374 5.455-6.374a4.482 4.482 0 0 1 3.374 1.519l-.844 1.011a3.36 3.36 0 0 0-2.511-1.16c-2.324-.001-3.862 1.91-3.862 4.966 0 3.093 1.481 5.043 3.805 5.043a3.71 3.71 0 0 0 2.85-1.388l.863.975a4.758 4.758 0 0 1-3.768 1.78c-3.074 0-5.362-2.361-5.362-6.372zm11.095-.057c0-3.936 2.156-6.317 5.249-6.317s5.267 2.4 5.267 6.317c0 3.955-2.174 6.429-5.267 6.429s-5.249-2.474-5.249-6.429zm8.885 0c0-3.055-1.442-4.948-3.636-4.948-2.193 0-3.636 1.893-3.636 4.948 0 3.074 1.443 5.062 3.636 5.062 2.194 0 3.636-1.988 3.636-5.062zm5.21-6.092h1.61l4.444 7.723 1.33 2.55h.075c-.074-1.238-.187-2.625-.187-3.918v-6.355h1.481v12.296h-1.612l-4.462-7.74-1.33-2.531h-.075c.093 1.237.206 2.55.206 3.842v6.43h-1.48zm12.161 10.703.938-1.087a4.814 4.814 0 0 0 3.392 1.538c1.613 0 2.568-.807 2.568-2.007 0-1.256-.88-1.649-2.043-2.173l-1.76-.769a3.457 3.457 0 0 1-2.495-3.168c0-1.875 1.63-3.262 3.862-3.262a5.108 5.108 0 0 1 3.637 1.519l-.844 1.011a3.927 3.927 0 0 0-2.793-1.16c-1.368 0-2.288.692-2.288 1.798 0 1.18 1.07 1.631 2.044 2.043l1.743.75c1.424.619 2.53 1.462 2.53 3.28 0 1.95-1.593 3.505-4.179 3.505a5.963 5.963 0 0 1-4.312-1.818zm11.789-3.486v-7.217h1.555v7.254c0 2.962 1.257 3.9 2.868 3.9 1.631 0 2.906-.938 2.906-3.9v-7.254h1.5v7.217c0 3.955-1.894 5.304-4.406 5.304s-4.423-1.35-4.423-5.304zm13.081-7.217h1.555v10.965h5.38v1.331h-6.935V35.869zm10.344 1.312h-3.711v-1.312h8.997v1.312h-3.711v10.984h-1.575V37.181zm8.434-1.312h1.556v12.296h-1.556zm5.867 0h1.611l4.443 7.723 1.33 2.55h.076c-.076-1.238-.188-2.625-.188-3.918v-6.355h1.48v12.296h-1.611l-4.462-7.74-1.33-2.531h-.075c.093 1.237.206 2.55.206 3.842v6.43h-1.48zm12.349 6.149c0-3.956 2.38-6.374 5.642-6.374a4.722 4.722 0 0 1 3.542 1.519l-.86 1.011a3.48 3.48 0 0 0-2.645-1.16c-2.473-.001-4.068 1.91-4.068 4.966 0 3.093 1.462 5.043 4.088 5.043a3.368 3.368 0 0 0 2.211-.732v-3.205h-1.958a.647.647 0 1 1 0-1.293h3.383v5.173a5.232 5.232 0 0 1-3.787 1.424c-3.242 0-5.548-2.361-5.548-6.372zM144.428 23.39a3.31 3.31 0 0 0 2.735-3.438c0-2.512-1.774-3.4-4.25-3.4h-3.79v12.124h1.535V17.79h2.033c1.884 0 2.938.573 2.938 2.162 0 1.572-1.054 2.348-2.938 2.348h-.96a.628.628 0 1 0 0 1.256h1.125l2.921 5.12h1.737z" class="cls-4"/>
	<path d="M84.012 22.31a.656.656 0 0 0 .656.655h2.653a.68.68 0 0 0 .692-.62.656.656 0 0 0-.655-.692h-2.69a.656.656 0 0 0-.656.656zm78.088 5.054v-9.518h5.452v-1.294h-6.988v12.124h7.171v-1.312H162.1z" class="cls-4"/>
	<path d="M162.7 22.31a.656.656 0 0 0 .655.655h2.654a.681.681 0 0 0 .691-.62.656.656 0 0 0-.655-.692h-2.69a.656.656 0 0 0-.656.656z" class="cls-4"/>
</svg>
