<svg xmlns="http://www.w3.org/2000/svg" height="356.427" width="332.733" xml:space="preserve">
	<path style="fill:#201916;fill-opacity:1;fill-rule:nonzero;stroke:none" d="M299.93 327.16 361.363 411c36.481-30.078 78.078-50.559 121.594-50.559 30.719 0 46.719 13.438 46.719 32.637v.652c0 17.918-13.446 28.79-65.918 47.348-84.473 28.801-143.992 59.512-143.992 140.793v1.91c0 81.278 62.078 138.239 159.992 138.239 60.152 0 113.269-16.641 159.984-54.399l-58.23-85.75c-30.719 23.668-67.836 40.961-104.317 40.961-26.234 0-40.957-12.812-40.957-29.453v-.629c0-19.84 14.082-30.078 71.035-51.199 85.118-27.512 138.231-62.071 138.231-138.219v-1.281c0-87.051-67.195-140.801-163.188-140.801-66.558 0-129.914 20.48-182.386 65.91" transform="matrix(.13333 0 0 -.13333 0 356.427)"/>
	<path style="fill:#201916;fill-opacity:1;fill-rule:nonzero;stroke:none" d="M653.855 715.621h121.59l62.715-259.18 69.75 260.457h99.2l70.39-260.457 62.72 259.18h119.03L1134.46 265.09h-105.6l-72.309 247.66-72.317-247.66H778.645l-124.79 450.531" transform="matrix(.13333 0 0 -.13333 0 356.427)"/>
	<path style="fill:#201916;fill-opacity:1;fill-rule:nonzero;stroke:none" d="M1301.53 715.621h115.19V267.648h-115.19v447.973" transform="matrix(.13333 0 0 -.13333 0 356.427)"/>
	<path style="fill:#201916;fill-opacity:1;fill-rule:nonzero;stroke:none" d="M1485.84 715.621h304.61V611.949h-189.43V532.59h170.24v-99.192h-170.24v-165.75h-115.18v447.973" transform="matrix(.13333 0 0 -.13333 0 356.427)"/>
	<path style="fill:#201916;fill-opacity:1;fill-rule:nonzero;stroke:none" d="M1928.71 611.949h-110.72v103.672h336.62V611.949h-110.72V267.648h-115.18v344.301" transform="matrix(.13333 0 0 -.13333 0 356.427)"/>
	<path style="fill:#4ca6e1;fill-opacity:1;fill-rule:nonzero;stroke:none" d="M51.309 78.79c0 8.25-3.02 12.698-8.578 12.698-14.137 0-23.508-26.36-23.508-39.238 0-9.36 3.336-14.129 9.215-14.129 12.867 0 22.87 27.8 22.87 40.668zm12.23-27.33c-1.27-4.132-1.746-6.991-1.746-9.05 0-2.7 1.27-4.129 3.652-4.129 3.496 0 6.993 5.399 10.645 16.04l7.62-2.38c-6.19-19.382-14.769-26.53-24.456-26.53-7.469 0-13.027 4.76-13.027 13.98 0 1.12 0 1.91.16 3.5l-1.114.468C39.238 31.441 30.18 25.41 21.13 25.41 7.465 25.41 0 36.691 0 50.672c0 16.2 6.512 30.66 15.094 39.066 7.465 7.633 15.883 12.071 24.777 12.071 8.898 0 13.977-6.188 15.406-13.34l3.18 12.23h18.105L63.54 51.461" transform="matrix(.13333 0 0 -.13333 0 356.427)"/>
	<path style="fill:#4ca6e1;fill-opacity:1;fill-rule:nonzero;stroke:none" d="M163.289 38.281c3.336 0 6.676 5.078 10.965 16.04l7.465-2.38c-6.352-19.222-15.25-26.53-24.301-26.53-8.578 0-14.141 5.558-14.141 14.769 0 15.89 10.485 31.62 10.485 42.422 0 3.648-1.59 5.238-4.289 5.238-7.305 0-20.965-12.07-33.676-60.84H96.738l13.657 51.469c2.382 9.05 1.91 11.59-.954 11.59-3.652 0-7.781-6.828-12.386-16.668l-7.465 3.168c6.832 15.882 14.769 25.101 25.414 25.101 6.832 0 11.598-4.922 11.598-14.781 0-4.61-.957-10.32-3.34-17.617l1.113-.48c10.484 22.39 22.234 33.027 33.516 33.027 8.894 0 14.457-6.989 14.457-16.52 0-13.488-11.758-33.828-11.758-43.508 0-2.39.953-3.5 2.699-3.5" transform="matrix(.13333 0 0 -.13333 0 356.427)"/>
	<path style="fill:#4ca6e1;fill-opacity:1;fill-rule:nonzero;stroke:none" d="M242.551 63.379c0-18.43 9.051-27.328 23.98-27.328 25.895 0 36.379 38.61 36.379 59.09 0 18.429-9.215 27.328-23.984 27.328-26.051 0-36.375-38.598-36.375-59.09zm37.168 70.68c26.051 0 44.32-18.579 44.32-45.91 0-30.649-23.031-63.688-58.297-63.688-26.051 0-44.476 18.59-44.476 45.91 0 30.649 23.031 63.688 58.453 63.688" transform="matrix(.13333 0 0 -.13333 0 356.427)"/>
	<path style="fill:#4ca6e1;fill-opacity:1;fill-rule:nonzero;stroke:none" d="M361.52 49.871c0-7.781 3.335-13.18 10.32-13.18 14.137 0 22.082 26.688 22.082 39.239 0 8.89-2.863 13.492-8.734 13.492-12.711 0-23.668-25.563-23.668-39.55zM348.652 88.63c-3.656 0-6.511-4.61-11.597-15.238l-7.465 3.168c7.621 17.472 15.09 25.101 25.098 25.101 7.148 0 11.914-5.25 11.914-14.3 0-1.11-.161-2.54-.325-3.97l1.278-.468c6.035 12.539 15.722 18.887 24.461 18.887 13.339 0 20.968-10.95 20.968-25.73 0-25.567-17.632-49.24-37.171-49.24-8.418 0-15.09 4.29-18.11 10.65l-6.351-23.669h14.925L363.105 2.06h-44l3.176 11.761h10.801l16.84 62.899c2.383 8.89 1.586 11.91-1.27 11.91" transform="matrix(.13333 0 0 -.13333 0 356.427)"/>
	<path style="fill:#4ca6e1;fill-opacity:1;fill-rule:nonzero;stroke:none" d="M442.52 64.32c22.082 2.39 30.179 10.97 30.179 20.82 0 4.45-2.539 7.93-7.304 7.93-11.118 0-19.536-15.082-22.875-28.75zm-1.426-7.46c-.16-1.27-.16-2.54-.16-3.65 0-13.179 6.832-17.312 14.769-17.312 7.789 0 15.57 5.243 22.242 14.614l6.668-4.774c-8.097-11.59-17.949-20.328-34.785-20.328-16.359 0-27.797 11.43-27.797 28.91 0 24.47 21.129 47.489 46.067 47.489 13.66 0 21.281-6.82 21.281-16.52 0-14.289-14.93-26.52-48.285-28.43" transform="matrix(.13333 0 0 -.13333 0 356.427)"/>
	<path style="fill:#4ca6e1;fill-opacity:1;fill-rule:nonzero;stroke:none" d="M571.184 38.281c3.332 0 6.671 5.078 10.961 16.04l7.464-2.38c-6.351-19.222-15.25-26.53-24.3-26.53-8.579 0-14.141 5.558-14.141 14.769 0 15.89 10.48 31.62 10.48 42.422 0 3.648-1.585 5.238-4.285 5.238-7.304 0-20.968-12.07-33.675-60.84h-19.059l13.656 51.469c2.383 9.05 1.91 11.59-.949 11.59-3.652 0-7.785-6.828-12.391-16.668l-7.465 3.168c6.833 15.882 14.77 25.101 25.415 25.101 6.832 0 11.597-4.922 11.597-14.781 0-4.61-.957-10.32-3.34-17.617l1.114-.48c10.484 22.39 22.238 33.027 33.515 33.027 8.899 0 14.457-6.989 14.457-16.52 0-13.488-11.758-33.828-11.758-43.508 0-2.39.954-3.5 2.704-3.5" transform="matrix(.13333 0 0 -.13333 0 356.427)"/>
	<path style="fill:#4ca6e1;fill-opacity:1;fill-rule:nonzero;stroke:none" d="M606.121 64.172h11.281c3.02-19.063 14.137-28.434 28.118-28.434 12.546 0 19.851 7.942 19.851 16.203 0 9.207-10.484 13.5-21.762 18.739-13.183 5.879-27.636 12.87-27.636 29.711 0 17.781 16.043 33.668 37.168 33.668 11.277 0 21.761-4.61 27.004-12.071l6.511 11.59h11.914l-9.371-37.637h-11.117c-3.336 19.688-11.281 27-24.941 27-10.325 0-17.633-7.461-17.633-15.722 0-10.008 10.801-14.297 22.242-19.38 13.02-5.57 27-12.237 27-28.917 0-19.531-17.312-34.461-39.074-34.461-13.821 0-24.145 5.078-30.184 12.71l-6.984-12.23h-11.914l9.527 39.23" transform="matrix(.13333 0 0 -.13333 0 356.427)"/>
	<path style="fill:#4ca6e1;fill-opacity:1;fill-rule:nonzero;stroke:none" d="M736.848 88.79 727.313 54c-1.106-3.96-1.903-7.621-1.903-9.531 0-4.29 2.223-5.707 5.563-5.707 5.715 0 10.48 6.976 14.925 17.148l7.625-2.539c-7.781-22.562-20.011-27.96-28.589-27.96-10.485 0-17.954 5.237-17.954 16.038 0 4.61 1.75 11.282 2.864 15.73l8.578 31.61h-13.981l2.539 9.692h13.981l5.246 19.058 18.898 2.07-5.714-21.128h22.55l-2.539-9.692h-22.554" transform="matrix(.13333 0 0 -.13333 0 356.427)"/>
	<path style="fill:#4ca6e1;fill-opacity:1;fill-rule:nonzero;stroke:none" d="M817.219 78.79c0 8.25-3.02 12.698-8.582 12.698-14.133 0-23.504-26.36-23.504-39.238 0-9.36 3.336-14.129 9.215-14.129 12.863 0 22.871 27.8 22.871 40.668zm12.23-27.33c-1.269-4.132-1.75-6.991-1.75-9.05 0-2.7 1.27-4.129 3.653-4.129 3.496 0 6.992 5.399 10.644 16.04l7.621-2.38c-6.187-19.382-14.769-26.53-24.457-26.53-7.465 0-13.027 4.76-13.027 13.98 0 1.12 0 1.91.164 3.5l-1.113.468c-6.039-11.918-15.094-17.949-24.149-17.949-13.66 0-21.129 11.281-21.129 25.262 0 16.2 6.516 30.66 15.094 39.066 7.469 7.633 15.887 12.071 24.781 12.071 8.899 0 13.977-6.188 15.407-13.34l3.175 12.23h18.11l-13.024-49.238" transform="matrix(.13333 0 0 -.13333 0 356.427)"/>
	<path style="fill:#4ca6e1;fill-opacity:1;fill-rule:nonzero;stroke:none" d="M922.367 83.07c0-6.832-4.285-13.66-11.117-13.66-5.719 0-9.371 3.809-9.371 8.578 0 4.453 2.699 8.102 6.512 10.801-1.274 2.223-3.973 3.973-8.739 3.973-15.882 0-25.254-24.301-25.254-38.121 0-13.672 7.305-17.95 14.454-17.95 7.304 0 14.296 5.239 20.652 15.09l6.828-4.601c-6.828-11.918-16.199-21.77-31.766-21.77-17.476 0-29.23 11.91-29.23 29.23 0 24.782 21.285 47.169 44 47.169 13.344 0 23.031-7.457 23.031-18.739" transform="matrix(.13333 0 0 -.13333 0 356.427)"/>
	<path style="fill:#4ca6e1;fill-opacity:1;fill-rule:nonzero;stroke:none" d="M989.719 38.281c3.496 0 6.511 5.078 10.641 16.04l7.47-2.38c-6.04-19.222-14.299-26.53-23.514-26.53-8.894 0-14.769 5.878-14.769 16.198 0 4.45 1.746 10.801 1.746 14.301 0 5.88-2.543 7.309-14.141 7.309h-.316L947.148 27h-17.949l25.735 97.051h-13.188l3.176 12.39h31.609l-17.785-66.07h.789c8.418 0 11.914 4.758 18.906 16.36 5.243 8.57 10.485 15.078 19.856 15.078 7.623 0 11.753-4.758 11.753-11.59 0-6.668-4.29-13.348-10.804-13.348-6.351 0-9.683 5.57-7.465 12.078-2.218-.48-4.601-3.18-8.258-9.218-3.175-5.872-5.718-9.2-10.488-11.743 11.281-.957 14.934-5.879 14.934-13.347 0-4.602-1.27-9.211-1.27-12.07 0-3.18 1.27-4.29 3.02-4.29" transform="matrix(.13333 0 0 -.13333 0 356.427)"/>
	<path style="fill:#4ca6e1;fill-opacity:1;fill-rule:nonzero;stroke:none" d="M1076.6 68.781c0 31.918 23.51 65.278 58.45 65.278 13.19 0 23.03-4.758 28.44-12.86l6.51 12.379h12.23l-10.17-41.297h-11.91c-1.59 22.867-11.6 30.188-24.46 30.188-28.12 0-37.81-37.809-37.81-55.278 0-21.132 10.8-30.02 24.62-30.02 16.84 0 26.69 12.7 34.63 31.45l11.28-3.973c-7.95-22.238-22.72-40.187-48.13-40.187-29.23 0-43.68 18.59-43.68 44.32" transform="matrix(.13333 0 0 -.13333 0 356.427)"/>
	<path style="fill:#4ca6e1;fill-opacity:1;fill-rule:nonzero;stroke:none" d="M1220.83 93.07c-14.78 0-23.2-28.898-23.2-44.308 0-10.172 4.29-14.461 11.12-14.461 14.78 0 23.19 28.918 23.19 44.32 0 10.168-4.28 14.45-11.11 14.45zm30.01-21.91c0-24.781-19.85-45.75-41.93-45.75-18.27 0-30.18 12.871-30.18 30.82 0 24.77 19.85 45.579 41.93 45.579 18.27 0 30.18-12.7 30.18-30.649" transform="matrix(.13333 0 0 -.13333 0 356.427)"/>
	<path style="fill:#4ca6e1;fill-opacity:1;fill-rule:nonzero;stroke:none" d="M1354.09 40.18c0 15.89 10.48 31.62 10.48 42.422 0 3.648-1.59 5.238-4.29 5.238-6.98 0-20.8-12.07-33.51-60.84h-18.75l11.13 41.93c1.42 5.25 2.22 9.058 2.22 12.07 0 3.82-1.27 6.84-4.77 6.84-7.3 0-20.97-12.07-33.68-60.84h-19.05l13.65 51.469c2.39 9.05 1.91 11.59-.95 11.59-3.65 0-7.78-6.828-12.39-16.668l-7.46 3.168c6.83 15.882 14.77 25.101 25.41 25.101 6.83 0 11.6-4.922 11.6-14.781 0-4.61-.96-10.32-3.34-17.617l1.11-.48c10.49 22.39 22.24 33.027 33.05 33.027 8.73 0 13.34-5.868 13.34-15.41 0-4.438-1.27-9.84-3.66-17.137l1.12-.48c10.48 22.39 22.23 33.027 33.51 33.027 8.74 0 14.3-6.989 14.3-16.52 0-13.488-11.76-33.828-11.76-43.508 0-2.39.96-3.5 2.7-3.5 3.34 0 6.68 5.078 10.96 16.04l7.47-2.38c-6.35-19.222-15.25-26.53-24.3-26.53-8.58 0-14.14 5.558-14.14 14.769" transform="matrix(.13333 0 0 -.13333 0 356.427)"/>
	<path style="fill:#4ca6e1;fill-opacity:1;fill-rule:nonzero;stroke:none" d="M1493.39 40.18c0 15.89 10.49 31.62 10.49 42.422 0 3.648-1.59 5.238-4.29 5.238-6.99 0-20.81-12.07-33.52-60.84h-18.75l11.13 41.93c1.42 5.25 2.21 9.058 2.21 12.07 0 3.82-1.27 6.84-4.75 6.84-7.32 0-20.98-12.07-33.68-60.84h-19.07l13.67 51.469c2.38 9.05 1.9 11.59-.95 11.59-3.66 0-7.78-6.828-12.39-16.668l-7.47 3.168c6.83 15.882 14.77 25.101 25.42 25.101 6.82 0 11.59-4.922 11.59-14.781 0-4.61-.95-10.32-3.33-17.617l1.11-.48c10.48 22.39 22.24 33.027 33.04 33.027 8.73 0 13.34-5.868 13.34-15.41 0-4.438-1.27-9.84-3.65-17.137l1.11-.48c10.48 22.39 22.23 33.027 33.51 33.027 8.74 0 14.3-6.989 14.3-16.52 0-13.488-11.76-33.828-11.76-43.508 0-2.39.96-3.5 2.71-3.5 3.33 0 6.67 5.078 10.96 16.04l7.47-2.38c-6.36-19.222-15.26-26.53-24.31-26.53-8.57 0-14.14 5.558-14.14 14.769" transform="matrix(.13333 0 0 -.13333 0 356.427)"/>
	<path style="fill:#4ca6e1;fill-opacity:1;fill-rule:nonzero;stroke:none" d="M1591.08 40.34c0 3.969.95 10.012 3.49 18.12l-1.1.462c-10.49-23.024-21.61-33.512-33.05-33.512-8.73 0-14.45 6.828-14.45 16.68 0 13.351 11.28 34.469 11.28 43.52 0 2.23-.96 3.34-2.39 3.34-3.34 0-6.03-3.49-11.75-15.41l-7.47 3.179c6.52 15.722 14.94 25.09 25.89 25.09 8.42 0 13.35-5.239 13.35-14.45 0-14.77-10.49-31.609-10.49-41.78 0-4.438 1.75-6.188 4.45-6.188 7.15 0 20.33 11.75 33.36 61.308h19.06l-13.03-49.238c-1.27-4.281-1.75-6.992-1.75-9.05 0-2.7 1.44-4.13 3.66-4.13 3.66 0 6.99 5.399 10.64 16.04l7.63-2.38c-6.19-19.382-14.78-26.53-23.83-26.53-8.26 0-13.5 4.608-13.5 14.929" transform="matrix(.13333 0 0 -.13333 0 356.427)"/>
	<path style="fill:#4ca6e1;fill-opacity:1;fill-rule:nonzero;stroke:none" d="M1704.34 38.281c3.33 0 6.67 5.078 10.95 16.04l7.46-2.38c-6.34-19.222-15.24-26.53-24.29-26.53-8.59 0-14.14 5.558-14.14 14.769 0 15.89 10.48 31.62 10.48 42.422 0 3.648-1.59 5.238-4.28 5.238-7.32 0-20.98-12.07-33.68-60.84h-19.07l13.67 51.469c2.38 9.05 1.9 11.59-.95 11.59-3.66 0-7.78-6.828-12.39-16.668l-7.47 3.168c6.83 15.882 14.77 25.101 25.41 25.101 6.83 0 11.6-4.922 11.6-14.781 0-4.61-.95-10.32-3.33-17.617l1.11-.48c10.48 22.39 22.24 33.027 33.52 33.027 8.88 0 14.45-6.989 14.45-16.52 0-13.488-11.76-33.828-11.76-43.508 0-2.39.96-3.5 2.71-3.5" transform="matrix(.13333 0 0 -.13333 0 356.427)"/>
	<path style="fill:#4ca6e1;fill-opacity:1;fill-rule:nonzero;stroke:none" d="M1762.77 112.941c-5.55 0-9.84 3.809-9.84 10.161 0 6.519 4.92 13.98 13.34 13.98 6.03 0 10.17-3.812 10.17-10.172 0-6.359-5.24-13.969-13.67-13.969zm-7.61-70.851c0-2.7 1.11-3.809 3.17-3.809 3.02 0 6.51 4.29 11.28 16.04l7.46-2.38c-6.19-18.75-15.09-26.53-25.25-26.53-8.27 0-14.3 5.398-14.3 14.929 0 15.101 13.18 36.379 13.18 46.23 0 2.54-.94 3.489-2.38 3.489-4.44 0-8.42-6.828-12.86-16.668l-7.63 3.168c6.83 15.882 15.26 25.25 26.06 25.25 8.25 0 14.13-5.868 14.13-16.04 0-12.378-12.86-34.46-12.86-43.68" transform="matrix(.13333 0 0 -.13333 0 356.427)"/>
	<path style="fill:#4ca6e1;fill-opacity:1;fill-rule:nonzero;stroke:none" d="M1818.85 88.79 1809.32 54c-1.12-3.96-1.92-7.621-1.92-9.531 0-4.29 2.23-5.707 5.57-5.707 5.71 0 10.48 6.976 14.93 17.148l7.63-2.539c-7.8-22.562-20.02-27.96-28.6-27.96-10.48 0-17.95 5.237-17.95 16.038 0 4.61 1.75 11.282 2.86 15.73l8.58 31.61h-13.98l2.54 9.692h13.98l5.24 19.058 18.9 2.07-5.71-21.128h22.56l-2.55-9.692h-22.55" transform="matrix(.13333 0 0 -.13333 0 356.427)"/>
	<path style="fill:#4ca6e1;fill-opacity:1;fill-rule:nonzero;stroke:none" d="M1881.44 88c0-14.61-9.22-28.91-9.22-38.129 0-3.96 1.74-5.562 5.24-5.562 8.42 0 19.7 9.543 31.77 56.39h17.79l-14.62-61.308C1905.58 10.16 1889.53 0 1869.68 0c-11.13 0-24.47 3.02-24.47 14.77 0 5.082 3.81 11.44 10.96 11.44 6.36 0 9.53-4.448 9.22-9.698-.17-2.543-1.59-5.403-3.18-6.82 1.91-.641 4.29-1.122 7.31-1.122 12.38 0 20.8 10.008 26.2 32.09l3.19 12.55-.96.481c-9.21-16.851-19.06-23.043-28.27-23.043-10.49 0-15.72 7.313-15.72 16.532 0 12.218 10.16 29.379 10.16 38.43 0 2.062-.96 3.34-2.38 3.34-3.98 0-7.78-6.509-12.08-15.56l-7.46 3.169c6.99 15.882 15.72 25.25 26.21 25.25 8.09 0 13.03-5.399 13.03-13.809" transform="matrix(.13333 0 0 -.13333 0 356.427)"/>
	<path style="fill:#4ca6e1;fill-opacity:1;fill-rule:nonzero;stroke:none" d="M2011.36 80.059c20.33 0 27.48 12.703 27.48 24.929 0 9.223-5.57 14.774-21.29 14.774h-6.83l-9.85-39.703zm-20.81-41.149h17.31l-2.7-11.91h-53.37l2.7 11.91h16.04l20.02 80.699h-16.2l3.01 11.911h44c28.76 0 39.71-11.758 39.71-26.692 0-15.879-10.95-36.047-50.35-36.047h-12.71l-7.46-29.87" transform="matrix(.13333 0 0 -.13333 0 356.427)"/>
	<path style="fill:#4ca6e1;fill-opacity:1;fill-rule:nonzero;stroke:none" d="M2085.85 78.469c2.38 9.05 1.9 11.59-.95 11.59-3.66 0-7.78-6.828-12.39-16.668l-7.47 3.168c6.84 15.882 14.77 25.101 25.42 25.101 6.83 0 11.59-4.922 11.59-14.781 0-4.61-.95-10.16-3.17-17.16l1.27-.457c9.21 20.957 16.83 32.547 27.96 32.547 6.67 0 11.59-4.598 11.59-12.07 0-7.938-5.08-14.29-11.44-14.29-5.55 0-9.84 3.653-9.53 10.32-4.61-1.898-16.04-15.398-27.48-58.769h-19.06l13.66 51.469" transform="matrix(.13333 0 0 -.13333 0 356.427)"/>
	<path style="fill:#4ca6e1;fill-opacity:1;fill-rule:nonzero;stroke:none" d="M2185.13 93.07c-14.78 0-23.2-28.898-23.2-44.308 0-10.172 4.29-14.461 11.13-14.461 14.76 0 23.18 28.918 23.18 44.32 0 10.168-4.29 14.45-11.11 14.45zm30.02-21.91c0-24.781-19.86-45.75-41.94-45.75-18.27 0-30.18 12.871-30.18 30.82 0 24.77 19.86 45.579 41.94 45.579 18.26 0 30.18-12.7 30.18-30.649" transform="matrix(.13333 0 0 -.13333 0 356.427)"/>
	<path style="fill:#4ca6e1;fill-opacity:1;fill-rule:nonzero;stroke:none" d="M2263.91 112.941c-5.56 0-9.85 3.809-9.85 10.161 0 6.519 5.09 13.98 13.34 13.98 6.04 0 10.17-3.812 10.17-10.172 0-6.359-5.24-13.969-13.66-13.969zm3.02-39.722-10.01-37.957C2250.25 10.012 2237.86 0 2223.24 0c-11.11 0-15.88 5.238-15.88 11.281 0 5.88 4.29 11.278 10.48 11.278 5.4 0 8.26-3.98 8.26-8.11 0-3.34-1.27-6.027-2.54-7.629 6.83-.148 9.54 3.98 15.41 26.692l10.48 40.187c.96 3.813 2.39 9.371 2.39 12.7 0 2.87-1.27 3.66-2.7 3.66-3.82 0-7.95-6.828-12.55-16.668l-7.47 3.168c6.84 15.882 15.1 25.25 26.21 25.25 8.11 0 13.82-6.188 13.82-15.078 0-3.66-.79-8.11-2.22-13.512" transform="matrix(.13333 0 0 -.13333 0 356.427)"/>
	<path style="fill:#4ca6e1;fill-opacity:1;fill-rule:nonzero;stroke:none" d="M2302.67 64.32c22.08 2.39 30.17 10.97 30.17 20.82 0 4.45-2.54 7.93-7.3 7.93-11.13 0-19.54-15.082-22.87-28.75zm-1.44-7.46c-.16-1.27-.16-2.54-.16-3.65 0-13.179 6.83-17.312 14.78-17.312 7.78 0 15.57 5.243 22.24 14.614l6.67-4.774c-8.1-11.59-17.95-20.328-34.79-20.328-16.36 0-27.8 11.43-27.8 28.91 0 24.47 21.13 47.489 46.06 47.489 13.66 0 21.29-6.82 21.29-16.52 0-14.289-14.93-26.52-48.29-28.43" transform="matrix(.13333 0 0 -.13333 0 356.427)"/>
	<path style="fill:#4ca6e1;fill-opacity:1;fill-rule:nonzero;stroke:none" d="M2426.08 83.07c0-6.832-4.29-13.66-11.12-13.66-5.72 0-9.37 3.809-9.37 8.578 0 4.453 2.7 8.102 6.51 10.801-1.27 2.223-3.97 3.973-8.73 3.973-15.89 0-25.26-24.301-25.26-38.121 0-13.672 7.31-17.95 14.45-17.95 7.31 0 14.3 5.239 20.65 15.09l6.83-4.601c-6.83-11.918-16.2-21.77-31.77-21.77-17.47 0-29.23 11.91-29.23 29.23 0 24.782 21.29 47.169 44.01 47.169 13.34 0 23.03-7.457 23.03-18.739" transform="matrix(.13333 0 0 -.13333 0 356.427)"/>
	<path style="fill:#4ca6e1;fill-opacity:1;fill-rule:nonzero;stroke:none" d="M2470.4 88.79 2460.87 54c-1.11-3.96-1.91-7.621-1.91-9.531 0-4.29 2.22-5.707 5.56-5.707 5.71 0 10.48 6.976 14.93 17.148l7.62-2.539c-7.78-22.562-20.01-27.96-28.58-27.96-10.49 0-17.95 5.237-17.95 16.038 0 4.61 1.75 11.282 2.85 15.73l8.58 31.61h-13.98l2.55 9.692h13.97l5.25 19.058 18.89 2.07-5.71-21.128h22.56l-2.55-9.692h-22.55" transform="matrix(.13333 0 0 -.13333 0 356.427)"/>
	<path style="fill:#4ca6e1;fill-opacity:1;fill-rule:nonzero;stroke:none" d="M1721.51 2258.84c0-29.92-9.92-66.12-28.69-104.68a34.46 34.46 0 0 0-26.35-19.14 34.14 34.14 0 0 0-30.28 11.18c-18.83 20.9-37.79 40.93-56.25 59.38-18.55 18.55-38.52 37.46-59.38 56.22-7.26 6.47-11.48 15.84-11.48 25.63 0 13.33 7.46 25.23 19.47 31.05 74.72 36.36 136.53 38.28 169.55 5.25 15.33-15.4 23.41-37.83 23.41-64.89" transform="matrix(.13333 0 0 -.13333 0 356.427)"/>
	<path style="fill:#4ca6e1;fill-opacity:1;fill-rule:nonzero;stroke:none" d="M770.246 2578.38c0-9.17-3.598-17.82-10.133-24.34l-62.222-62.36c-6.512-6.51-15.172-10.1-24.399-10.1-9.23 0-17.887 3.58-24.387 10.08l-77.804 77.81c-6.524 6.62-10.059 15.2-10.059 24.27 0 9.62 4.016 18.9 11.016 25.45 6.902 6.47 15.961 9.68 25.492 9.05 47.637-2.93 95.965-8.24 143.539-15.78 16.816-2.73 28.957-17.06 28.957-34.08" transform="matrix(.13333 0 0 -.13333 0 356.427)"/>
	<path style="fill:#4ca6e1;fill-opacity:1;fill-rule:nonzero;stroke:none" d="M963.492 2534.24c0-9.28-3.648-17.96-10.285-24.48l-136.715-136.71c-6.492-6.5-15.133-10.08-24.32-10.08-9.188 0-17.824 3.58-24.324 10.08l-55.606 55.61c-6.504 6.5-10.082 15.14-10.082 24.32s3.578 17.82 10.074 24.32l104.852 104.84c8.457 8.47 20.879 11.99 32.418 9.19a1478.029 1478.029 0 0 0 89.57-24.04c14.629-4.48 24.418-17.75 24.418-33.05" transform="matrix(.13333 0 0 -.13333 0 356.427)"/>
	<path style="fill:#4ca6e1;fill-opacity:1;fill-rule:nonzero;stroke:none" d="M1136.46 2469.95c0-9.22-3.61-17.91-10.16-24.45l-191.058-191.19c-6.496-6.51-15.16-10.09-24.387-10.09-9.226 0-17.886 3.58-24.386 10.08l-55.5 55.63c-6.485 6.49-10.063 15.12-10.063 24.3 0 9.18 3.578 17.82 10.074 24.32l167.981 168.11c9.589 9.59 23.979 12.68 36.659 7.88 26.13-9.88 53.21-21.02 80.45-33.11 12.45-5.64 20.39-17.97 20.39-31.48" transform="matrix(.13333 0 0 -.13333 0 356.427)"/>
	<path style="fill:#4ca6e1;fill-opacity:1;fill-rule:nonzero;stroke:none" d="M1260.66 2356.83c0-9.13-3.69-18.05-10.13-24.48l-196.67-196.67c-6.5-6.5-15.14-10.07-24.32-10.07-9.19 0-17.83 3.57-24.33 10.07l-55.585 55.47c-6.59 6.75-10.102 15.36-10.102 24.45 0 9.19 3.579 17.83 10.075 24.33l208.672 208.67c6.79 6.8 16.18 10.49 25.74 10.14 9.46-.34 18.44-4.65 24.62-11.81 19.93-23.05 36.4-48.59 48.95-75.91 2.07-4.61 3.08-9.32 3.08-14.19" transform="matrix(.13333 0 0 -.13333 0 356.427)"/>
	<path style="fill:#4ca6e1;fill-opacity:1;fill-rule:nonzero;stroke:none" d="M1286.89 2237.03c0-57.42-15.44-113.63-44.73-163.07-.5-2.48-1.45-4.9-2.87-7.16-13.09-20.9-26.22-42.73-39.01-64.89-5.42-9.36-14.65-15.52-25.35-16.92-10.69-1.4-21.17 2.15-28.77 9.75l-77.81 77.81c-6.5 6.5-10.08 15.14-10.08 24.32s3.58 17.82 10.07 24.32l159.19 159.18c9.4 9.56 23.8 12.73 36.55 7.95 12.83-4.82 21.3-16.28 22.1-29.92.47-6.97.71-14.21.71-21.37" transform="matrix(.13333 0 0 -.13333 0 356.427)"/>
	<path style="fill:#4ca6e1;fill-opacity:1;fill-rule:nonzero;stroke:none" d="M1665.48 1877.64c0-9.18-3.59-17.82-10.1-24.34l-159.58-159.57c-6.49-6.5-15.13-10.07-24.31-10.07-9.19 0-17.83 3.57-24.33 10.08l-77.92 77.93c-6.52 6.51-10.11 15.14-10.11 24.29 0 12.24 6.61 23.66 17.25 29.82 23.35 13.56 45.12 26.72 64.7 39.1 1.95 1.23 4.03 2.12 6.15 2.67 56.71 33.78 121.03 49.15 186.43 44.51 18.14-1.28 31.82-16.08 31.82-34.42" transform="matrix(.13333 0 0 -.13333 0 356.427)"/>
	<path style="fill:#4ca6e1;fill-opacity:1;fill-rule:nonzero;stroke:none" d="M1833.33 1808.26c0-9.13-3.68-18.05-10.11-24.47l-208.67-208.67c-13.7-13.37-35.49-13.29-48.77 0l-55.48 55.48c-6.5 6.5-10.08 15.14-10.08 24.34 0 9.08 3.51 17.69 9.88 24.23l197.01 197.01c10.17 10.17 25.71 13 38.67 7.04 27.38-12.72 52.83-29.25 75.73-49.17 7.52-6.41 11.82-15.8 11.82-25.79" transform="matrix(.13333 0 0 -.13333 0 356.427)"/>
	<path style="fill:#4ca6e1;fill-opacity:1;fill-rule:nonzero;stroke:none" d="M1911.26 1648.79c0-9.24-3.59-17.92-10.11-24.44l-167.98-167.98c-6.49-6.5-15.13-10.08-24.32-10.08s-17.83 3.58-24.33 10.09l-55.6 55.6c-6.5 6.5-10.08 15.14-10.08 24.32s3.58 17.82 10.07 24.32l191.07 191.07a34.677 34.677 0 0 0 30.94 9.55c11.15-2.1 20.52-9.54 25.04-19.89 11.31-25.19 22.46-52.29 33.07-80.36 1.48-3.91 2.23-8.02 2.23-12.2" transform="matrix(.13333 0 0 -.13333 0 356.427)"/>
	<path style="fill:#4ca6e1;fill-opacity:1;fill-rule:nonzero;stroke:none" d="M1966.77 1466.84c0-9.18-3.6-17.84-10.14-24.37l-104.72-104.72c-6.32-6.49-15.04-10.17-24.37-10.18-9.33 0-18.06 3.69-24.59 10.38l-55.29 55.29c-6.5 6.5-10.08 15.14-10.08 24.32s3.58 17.81 10.08 24.31l136.73 136.86c8.87 8.71 21.15 12.03 32.98 9.02 11.74-2.99 20.85-11.67 24.39-23.24 8.91-29.57 17-59.74 24.09-89.74.61-2.62.92-5.28.92-7.93" transform="matrix(.13333 0 0 -.13333 0 356.427)"/>
	<path style="fill:#4ca6e1;fill-opacity:1;fill-rule:nonzero;stroke:none" d="M2002.68 1221.05c0-13.87-8.31-26.28-21.17-31.6-12.91-5.35-27.65-2.41-37.55 7.49l-77.68 77.68c-6.5 6.5-10.08 15.14-10.08 24.32s3.58 17.81 10.08 24.31l62.25 62.25c9.21 9.21 22.63 12.45 35.01 8.45 12.36-3.99 21.32-14.41 23.39-27.19 7.43-46.82 12.7-95.06 15.68-143.46.04-.71.07-1.48.07-2.25" transform="matrix(.13333 0 0 -.13333 0 356.427)"/>
	<path style="fill:#3a66ba;fill-opacity:1;fill-rule:nonzero;stroke:none" d="M1257.58 2371.02c-11.6 25.26-45.74 56.98-64.49 78.67-4.58 5.31-9.19 6.8-14.45 2.41-34.65-61.43-61.55-168.6-65.04-243.29l142.12 132.48c3.7 3.7 4.03 24.89 1.86 29.73" transform="matrix(.13333 0 0 -.13333 0 356.427)"/>
	<path style="fill:#3a66ba;fill-opacity:1;fill-rule:nonzero;stroke:none" d="M1186.62 1982.65c12.88 22.32 39.41 62.98 52.67 84.15l2.87 7.16c34.31 54.98 41.73 134.23 37.65 195.07-.64 10.84-28.48 31.86-36.13 24.09l-127.67-125.26c6.05-43.79 21.4-112.05 38.75-151.06l11.83-36.83c5.87-5.86 15.82-4.59 20.03 2.68" transform="matrix(.13333 0 0 -.13333 0 356.427)"/>
	<path style="fill:#3a66ba;fill-opacity:1;fill-rule:nonzero;stroke:none" d="M1648.36 1905.3c-61.1 4.33-139.34-2.94-194.7-37.38l1.74-1.12c.1.97-.91 1.63-1.74 1.12-21.37-13.19-55.77-29.65-77.28-42.14-7.27-4.21-15.85-15.66-9.86-21.65l7.23-19.27c39.09-17.38 117.51-37.32 161.39-43.36l122.85 127.66c7.65 7.66 1.21 35.37-9.63 36.14" transform="matrix(.13333 0 0 -.13333 0 356.427)"/>
	<path style="fill:#3a66ba;fill-opacity:1;fill-rule:nonzero;stroke:none" d="M1821.51 1834.05c-21.68 18.88-56.36 42.65-81.62 54.39-4.72 2.16-27.61-1.12-31.31-4.82l-127.67-144.53c74.73 3.52 181.85 27.92 243.29 62.63 4.16 5.17 2.56 27.91-2.69 32.33" transform="matrix(.13333 0 0 -.13333 0 356.427)"/>
	<path style="fill:#3a66ba;fill-opacity:1;fill-rule:nonzero;stroke:none" d="M1647.01 2090.13c0-7.4-2.33-14.48-6.73-20.47-21.74-29.2-46.82-57.99-74.61-85.66-83.67-83.79-271.59-183.97-414.5-253.25-10.77-5.2-23.18-4.53-33.22 1.77-10.02 6.29-16.24 17.45-16.24 29.13 0 5.26 1.2 10.38 3.56 15.21 68.89 142.41 168.75 329.99 253.11 414.47 27.42 27.42 56.19 52.43 85.52 74.36 12.83 9.8 30.67 9.21 43.19-1.56 13.43-11.68 25.05-22.11 35.61-31.97 6.88-6.27 10.94-15.48 10.94-25.1 0-5.52-1.34-11.08-3.89-16.06-5.3-10.45-11.18-29.07-16.53-52.16 29.58 6.79 44.65 12.64 52.25 16.54 14.1 7.05 30.5 4.19 41.01-7 11.66-12.63 22.1-24.26 32.05-35.68 5.43-6.13 8.48-14.19 8.48-22.57" transform="matrix(.13333 0 0 -.13333 0 356.427)"/>
	<path style="fill:#201916;fill-opacity:1;fill-rule:nonzero;stroke:none" d="M1682.77 2308.41c25-25.13 23.08-77.94-9.44-144.77-3.96-8.16-14.93-9.82-20.92-3.06-18.49 20.53-37.5 40.69-57.14 60.33s-39.79 38.64-60.2 57.01c-6.89 6.12-5.23 17.09 2.93 21.04 66.84 32.53 119.77 34.44 144.77 9.45zm-92.09-174.87c10.71-11.61 21.17-23.22 31.5-35.08 3.96-4.46 4.21-11.09.64-15.94-20.03-26.91-44-54.84-72.45-83.16-84.69-84.82-283.15-188.26-408.66-249.1-10.84-5.23-22.32 6.12-16.96 17.09 60.71 125.51 164.28 323.84 248.97 408.66 28.44 28.45 56.38 52.29 83.16 72.32 4.85 3.7 11.48 3.32 16.07-.64 11.74-10.2 23.47-20.66 34.95-31.37 4.34-3.96 5.23-10.21 2.55-15.44-9.56-18.87-17.22-50.89-21.43-71.17-1.78-9.05 6.13-16.96 15.05-15.05 20.28 4.21 52.43 11.73 71.3 21.43 5.1 2.55 11.35 1.66 15.31-2.55zm41.45-243.11c10.84-.76 15.56-14.15 7.91-21.8l-159.56-159.57a12.717 12.717 0 0 0-17.99 0l-77.93 77.94c-5.99 5.99-4.59 15.81 2.68 20.02 22.19 12.88 44.26 26.15 65.43 39.54l.51-.77c55.36 34.44 117.86 48.98 178.95 44.64zm104.59-26.91c25.25-11.73 48.98-27.04 70.66-45.91 5.61-4.72 5.61-13.4.51-18.5l-208.67-208.67c-5.1-4.97-13.13-4.97-18.11 0l-55.48 55.49c-4.98 4.97-4.98 13.01 0 18.11l196.8 196.8c3.7 3.7 9.57 4.85 14.29 2.68zm119.38-130.86c11.74-26.15 22.58-52.68 32.65-79.33a12.88 12.88 0 0 0-2.93-13.65l-167.98-167.98a12.687 12.687 0 0 0-17.98 0l-55.61 55.61a12.687 12.687 0 0 0 0 17.98l191.06 191.07c6.38 6.37 17.22 4.46 20.79-3.7zm64.92-174.48c8.8-29.21 16.71-58.68 23.73-88.39 1.02-4.34-.26-8.81-3.45-11.99l-104.71-104.72c-4.98-5.1-13.14-5.1-18.11 0l-55.49 55.48a12.717 12.717 0 0 0 0 17.99l136.73 136.86c6.89 6.76 18.5 3.95 21.3-5.23zm44.52-194.9c7.4-46.68 12.5-93.74 15.43-141.32.77-11.73-13.39-17.98-21.68-9.69l-77.68 77.68c-4.97 4.97-4.97 13.01 0 17.98l62.24 62.24c7.4 7.4 20.03 3.32 21.69-6.89zm-804.06 646.79-77.8 77.81c-4.97 4.97-4.97 13.01 0 17.98l159.18 159.18c7.65 7.78 21.04 2.93 21.68-7.91 4.08-60.84-10.33-123.08-44.64-178.06l1.02-.76a2124.286 2124.286 0 0 1-39.41-65.56c-4.21-7.27-14.16-8.54-20.03-2.68zm-140.94 140.94-55.606 55.49c-4.973 5.1-4.973 13.13 0 18.11l208.666 208.66c5.23 5.23 13.78 5.11 18.62-.51 18.75-21.68 34.06-45.53 45.66-70.79 2.17-4.84 1.02-10.58-2.67-14.28l-196.68-196.68a12.717 12.717 0 0 0-17.99 0zm-118.739 118.62-55.485 55.61c-4.976 4.97-4.976 13.01 0 17.99l167.974 168.1c3.58 3.57 8.93 4.72 13.65 2.94 26.66-10.08 53.19-21.05 79.34-32.66 8.16-3.7 10.07-14.41 3.69-20.79l-191.06-191.19c-4.972-4.97-13.137-4.97-18.109 0zM783.18 2388.38l-55.61 55.61a12.694 12.694 0 0 0 0 17.98l104.844 104.84c3.188 3.19 7.781 4.47 11.988 3.45a1456.976 1456.976 0 0 0 88.391-23.72c9.184-2.81 12.117-14.55 5.23-21.31l-136.859-136.85a12.692 12.692 0 0 0-17.984 0zM664.434 2507l-77.801 77.8c-8.164 8.29-1.914 22.58 9.691 21.81 47.703-2.93 94.895-8.16 141.578-15.56 10.203-1.66 14.286-14.29 6.887-21.69L682.547 2507c-4.977-4.98-13.141-4.98-18.113 0zm812.596-168.75c-4.59-2.68-10.2-2.3-14.28.89-276.91 220.53-618.219 338.13-977.902 333.92l-45.407-.51c-11.351-.13-16.964-13.77-8.925-21.68l682.624-682.76c6-5.99 4.6-15.94-2.8-20.15L636.5 1684.57c-11.859-6.63-6.504-24.74 7.016-23.97l292.847 17.09c17.219 1.02 34.567-1.15 50.254-7.91 43.493-18.5 68.233-61.22 65.683-105.23l-17.22-295.52c-.76-13.52 17.35-18.75 23.86-6.89l263.51 473.84c4.08 7.39 14.15 8.8 20.15 2.8l682.63-682.76c8.03-7.9 21.68-2.42 21.81 8.93l.51 45.41c.13 6.25.13 12.37.13 18.62 0 352.92-117.35 687.09-334.05 959.28-3.31 4.08-3.7 9.82-1.02 14.29 33.42 57.14 50.89 111.34 50.89 157.26 0 2.3-.12 4.59-.25 6.76h.51v110.07c0 7.02-5.74 12.76-12.76 12.76h-109.94v-.51c-47.45 1.91-104.08-15.69-164.03-50.64" transform="matrix(.13333 0 0 -.13333 0 356.427)"/>
</svg>
