<svg xmlns="http://www.w3.org/2000/svg" viewBox="0 0 1332 1050" style="enable-background:new 0 0 1332 1050" xml:space="preserve">
	<style>
		.st3{fill:#121c1e}
	</style>
	<g id="图层_1">
		<linearGradient id="SVGID_1_" gradientUnits="userSpaceOnUse" x1="276.553" y1="385.663" x2="1053.779" y2="385.663">
			<stop offset="0" style="stop-color:#ed1c24"/>
			<stop offset="1" style="stop-color:#0071bc"/>
		</linearGradient>
		<path d="M883.5 215.4c-42.9 0-82 15.9-111.9 42.1L567.5 415.2v.1l-56.8 43.9s0-.1-.1-.1c-1 .8-2 1.7-2.9 2.5l-.6.5c-16.6 13.1-37.5 21-60.3 21-53.7 0-97.4-43.7-97.4-97.4s43.7-97.4 97.4-97.4c21.8 0 41.9 7.2 58.1 19.3l.9.7c1.7 1.3 3.4 2.7 5 4.1l.3-.4 43.5 33.6 59.9-45.4-61.2-47.4c-1.8-1.4-3.6-2.9-5.5-4.2l-7.5-5.8-.3.4c-26.8-17.5-58.8-27.8-93.1-27.8-94 0-170.3 76.2-170.3 170.3 0 94 76.2 170.3 170.3 170.3 42.9 0 82-15.9 111.9-42.1l204.1-157.7v-.2l56.8-43.9s0 .1.1.1c1-.8 2-1.7 2.9-2.5l.6-.5c16.6-13.1 37.5-21 60.3-21 53.7 0 97.4 43.7 97.4 97.4S937.3 483 883.6 483c-21.8 0-41.9-7.2-58.1-19.3l-.9-.7c-1.7-1.3-3.4-2.7-5-4.1l-.3.4-45.3-35.1-58.1 46.8 61.3 47.4c1.8 1.4 3.6 2.9 5.5 4.2l7.5 5.8.3-.4c26.8 17.5 58.8 27.8 93.1 27.8 94 0 170.3-76.2 170.3-170.3-.1-93.9-76.4-170.1-170.4-170.1z" style="fill:url(#SVGID_1_)"/>
		<linearGradient id="SVGID_2_" gradientUnits="userSpaceOnUse" x1="417.548" y1="679.249" x2="807.202" y2="648.688">
			<stop offset="0" style="stop-color:#0ff"/>
			<stop offset="1" style="stop-color:#0071bc"/>
		</linearGradient>
		<path d="M762.1 581.2c-.1 53.5-43.4 96.9-97 96.9-53.5 0-96.9-43.4-97-96.9h-73.3c.1 94 76.3 170.2 170.3 170.2 94 0 170.2-76.2 170.3-170.2h-73.3z" style="fill:url(#SVGID_2_)"/>
		<linearGradient id="SVGID_3_" gradientUnits="userSpaceOnUse" x1="374.812" y1="134.366" x2="764.466" y2="103.805">
			<stop offset="0" style="stop-color:#0ff"/>
			<stop offset="1" style="stop-color:#0071bc"/>
		</linearGradient>
		<path d="M568.2 190.3c0-53.6 43.4-97 97-97s97 43.4 97 97v.1h73.3v-.1c0-94-76.2-170.3-170.3-170.3-94 0-170.3 76.2-170.3 170.3v.1l73.3-.1z" style="fill:url(#SVGID_3_)"/>
		<path class="st3" d="M143.4 930.8c0 17.9-6.4 33.3-19.1 46-12.6 12.7-27.9 19-45.9 19-8.8 0-17.1-1.7-24.9-5-7.8-3.3-14.8-8-21.1-14.1-6.1-6.3-10.8-13.4-14.1-21.1-3.3-7.7-5-16-5-24.9 0-17.9 6.3-33.2 19-45.9 12.7-12.7 28.1-19.1 46-19.1 18 0 33.4 6.4 45.9 19.1 12.8 12.7 19.2 28 19.2 46zm-65-55.1c-15.1 0-28 5.4-38.9 16.2-10.7 10.7-16.1 23.7-16.1 38.8 0 15.2 5.4 28.2 16.1 38.9 10.8 10.7 23.8 16.1 38.9 16.1 15.2 0 28.1-5.4 38.8-16.1 10.8-10.7 16.2-23.7 16.2-38.9s-5.4-28.1-16.2-38.8c-10.8-10.8-23.7-16.2-38.8-16.2z"/>
		<path class="st3" d="M166.5 1029.8c0 1.4-.5 2.6-1.5 3.6s-2.2 1.5-3.6 1.5-2.6-.5-3.6-1.5-1.5-2.2-1.5-3.6v-79.5c0-12.6 4.4-23.3 13.3-32.2 8.9-8.9 19.6-13.3 32.2-13.3 12.6 0 23.3 4.4 32.2 13.3 8.9 8.9 13.3 19.6 13.3 32.2 0 12.6-4.4 23.3-13.3 32.2-8.9 8.9-19.6 13.3-32.2 13.3-12.6 0-23.3-4.4-32.2-13.3l-3.3-3.2v50.5zm0-79.5c0 9.8 3.5 18.1 10.4 25 6.9 6.9 15.3 10.4 25 10.4s18.1-3.5 25-10.4c6.9-6.9 10.3-15.2 10.3-25s-3.4-18.2-10.3-25c-6.9-6.9-15.3-10.4-25-10.4s-18.1 3.5-25 10.4c-7 6.9-10.4 15.2-10.4 25z"/>
		<path class="st3" d="M331.9 976.2c1.4 0 2.6.5 3.6 1.5s1.5 2.2 1.5 3.6-.4 2.6-1.3 3.5c-8.5 7.3-18.3 11-29.7 11-12.6 0-23.3-4.4-32.2-13.3-8.9-8.9-13.3-19.6-13.3-32.2 0-12.6 4.4-23.3 13.3-32.2 8.9-8.9 19.6-13.3 32.2-13.3 12.6 0 23.3 4.4 32.2 13.3 8.9 8.9 13.3 19.6 13.3 32.2 0 1.4-.5 2.6-1.5 3.6s-2.2 1.5-3.6 1.5h-75.7c1.6 8.1 5 14.8 10.2 20 6.9 6.9 15.3 10.4 25 10.4 4.4 0 8.6-.7 12.4-2.2 3.8-1.4 7.3-3.5 10.4-6.2.9-.8 2-1.2 3.2-1.2zm9.2-31c-1.5-8.1-4.9-14.7-10.2-20-6.9-6.9-15.3-10.4-25-10.4-9.8 0-18.1 3.5-25 10.4-5.2 5.2-8.6 11.9-10.2 20h70.4z"/>
		<path class="st3" d="M364.5 909.8c0-1.4.5-2.6 1.5-3.6s2.2-1.5 3.6-1.5 2.6.5 3.6 1.5 1.5 2.2 1.5 3.6v9.4c10-9.6 20.6-14.5 32-14.5 11.7 0 21.6 4.1 29.7 12.4 8.3 8.2 12.4 18.2 12.4 29.8v43.8c0 1.4-.5 2.6-1.5 3.6s-2.2 1.5-3.6 1.5-2.6-.5-3.6-1.5-1.5-2.2-1.5-3.6v-43.8c0-8.9-3.1-16.5-9.4-22.6-6.3-6.3-13.8-9.5-22.6-9.5s-16.3 3.2-22.7 9.5c-6.2 6.2-9.3 13.7-9.3 22.6v43.8c0 1.4-.5 2.6-1.5 3.6s-2.2 1.5-3.6 1.5-2.6-.5-3.6-1.5-1.5-2.2-1.5-3.6v-80.9z"/>
		<path class="st3" d="M472 891.9v98.8c0 1.4-.5 2.6-1.4 3.6-1 1-2.1 1.5-3.5 1.5s-2.6-.5-3.6-1.5-1.5-2.2-1.5-3.6v-120c0-1.4.5-2.6 1.5-3.6s2.2-1.5 3.6-1.5c2 0 3.5.9 4.4 2.6L527 979.6l55.6-111.3c1-1.7 2.5-2.6 4.5-2.6 1.4 0 2.6.5 3.5 1.5.9 1 1.4 2.2 1.4 3.6v120c0 1.4-.5 2.6-1.4 3.6-.9 1-2.1 1.5-3.5 1.5s-2.6-.5-3.6-1.5-1.5-2.2-1.5-3.6V892l-50.7 101.5c-1 1.6-2.4 2.4-4.3 2.4-2.2 0-3.7-1.1-4.6-3.2L472 891.9z"/>
		<path class="st3" d="M676.5 976.2c1.4 0 2.6.5 3.6 1.5s1.5 2.2 1.5 3.6-.4 2.6-1.3 3.5c-8.5 7.3-18.3 11-29.7 11-12.6 0-23.3-4.4-32.2-13.3-8.9-8.9-13.3-19.6-13.3-32.2 0-12.6 4.4-23.3 13.3-32.2 8.9-8.9 19.6-13.3 32.2-13.3 12.6 0 23.3 4.4 32.2 13.3 8.9 8.9 13.3 19.6 13.3 32.2 0 1.4-.5 2.6-1.5 3.6s-2.2 1.5-3.6 1.5h-75.7c1.6 8.1 5 14.8 10.2 20 6.9 6.9 15.3 10.4 25 10.4 4.4 0 8.6-.7 12.4-2.2 3.8-1.4 7.3-3.5 10.4-6.2.9-.8 2-1.2 3.2-1.2zm9.2-31c-1.5-8.1-4.9-14.7-10.2-20-6.9-6.9-15.3-10.4-25-10.4s-18.1 3.5-25 10.4c-5.2 5.2-8.6 11.9-10.2 20h70.4z"/>
		<path class="st3" d="M724.7 948.6c-2.4-.9-4.5-1.8-6.2-2.7-1.7-.9-3-1.8-3.9-2.8-3.6-3.7-5.4-8.1-5.4-13.1s1.9-9.5 5.7-13.4c7.8-7.9 18-11.9 30.6-11.9 6.7 0 13 1.4 18.9 4.3 5.9 2.8 11.2 6.9 16 12.1.6.8.9 1.7.9 2.8 0 1.4-.5 2.6-1.5 3.6s-2.2 1.5-3.6 1.5-2.4-.4-3.2-1.3l-2.5-2.5c-6.9-6.9-15.3-10.4-25-10.4-9.8 0-17.7 3.1-23.7 9.4-1.6 1.9-2.4 4.2-2.4 7 .1 1.6.6 3 1.5 4.2.9 1.2 2.1 2.1 3.8 2.7l41.5 13.7h-.1c2.5.9 4.6 1.8 6.3 2.7 1.7.9 3 1.8 3.8 2.8 3.7 3.7 5.5 8 5.5 13.1s-1.9 9.6-5.8 13.4c-7.8 7.9-17.9 11.9-30.5 11.9-13.6 0-25.3-5.4-34.9-16.3-.6-.8-.9-1.8-.9-2.9 0-1.4.5-2.6 1.5-3.6s2.2-1.5 3.6-1.5c1.3 0 2.4.4 3.3 1.3l2.5 2.5c6.9 6.9 15.3 10.4 25 10.4 9.8 0 17.6-3.1 23.5-9.3 1.7-1.9 2.5-4.2 2.5-7-.3-3.5-2-5.8-5.3-7l-41.5-13.7z"/>
		<path class="st3" d="M810.9 948.6c-2.4-.9-4.5-1.8-6.2-2.7-1.7-.9-3-1.8-3.9-2.8-3.6-3.7-5.4-8.1-5.4-13.1s1.9-9.5 5.7-13.4c7.8-7.9 18-11.9 30.6-11.9 6.7 0 13 1.4 18.9 4.3 5.9 2.8 11.2 6.9 16 12.1.6.8.9 1.7.9 2.8 0 1.4-.5 2.6-1.5 3.6s-2.2 1.5-3.6 1.5-2.4-.4-3.2-1.3l-2.5-2.5c-6.9-6.9-15.3-10.4-25-10.4-9.8 0-17.7 3.1-23.7 9.4-1.6 1.9-2.4 4.2-2.4 7 .1 1.6.6 3 1.5 4.2.9 1.2 2.1 2.1 3.8 2.7l41.5 13.7h-.1c2.5.9 4.6 1.8 6.3 2.7 1.7.9 3 1.8 3.8 2.8 3.7 3.7 5.5 8 5.5 13.1s-1.9 9.6-5.8 13.4c-7.8 7.9-17.9 11.9-30.5 11.9-13.6 0-25.3-5.4-34.9-16.3-.6-.8-.9-1.8-.9-2.9 0-1.4.5-2.6 1.5-3.6s2.2-1.5 3.6-1.5c1.3 0 2.4.4 3.3 1.3l2.5 2.5c6.9 6.9 15.3 10.4 25 10.4s17.6-3.1 23.5-9.3c1.7-1.9 2.5-4.2 2.5-7-.3-3.5-2-5.8-5.3-7l-41.5-13.7z"/>
		<path class="st3" d="M962.2 979.3c-10.9 11-22.7 16.5-35.4 16.5-12.6 0-23.3-4.4-32.2-13.3-8.9-8.9-13.3-19.6-13.3-32.2 0-12.6 4.4-23.3 13.3-32.2 8.9-8.9 19.6-13.3 32.2-13.3 12.6 0 23.3 4.4 32.2 13.3 8.9 8.9 13.3 19.6 13.3 32.2v40.5c0 1.4-.5 2.6-1.5 3.6s-2.2 1.5-3.6 1.5-2.6-.5-3.6-1.5-1.5-2.2-1.5-3.6v-11.5zm-35.3-64.5c-9.8 0-18.1 3.5-25 10.4-6.9 6.9-10.4 15.3-10.4 25s3.5 18.1 10.4 25c6.9 6.9 15.3 10.4 25 10.4s18.1-3.5 25-10.4c6.9-6.9 10.3-15.2 10.3-25s-3.4-18.2-10.3-25c-6.9-6.9-15.3-10.4-25-10.4z"/>
		<path class="st3" d="M1066.3 979.1c-9.9 10.9-21.7 16.4-35.4 16.4-12.6 0-23.3-4.4-32.2-13.2-8.9-8.9-13.3-19.6-13.3-32.1 0-12.6 4.4-23.3 13.3-32.1 8.9-8.9 19.6-13.3 32.2-13.3 12.6 0 23.3 4.4 32.2 13.3 8.9 8.8 13.3 19.5 13.3 32.1v46c0 9.3-3.4 17.4-10.2 24.3-9.5 9.5-21.1 14.3-34.6 14.3s-25.1-4.8-34.5-14.3c-3.5-3.4-6.4-7-8.5-11-.6-1-.9-2-.9-3 0-1.4.5-2.6 1.5-3.6s2.2-1.5 3.6-1.5 2.6.5 3.7 1.5c.4.4.8.9 1.1 1.5 1.8 3.3 4.1 6.2 6.7 8.9 3.8 3.8 8 6.6 12.6 8.5 4.6 1.9 9.5 2.8 14.8 2.8 10.7 0 19.9-3.8 27.5-11.4 4.8-5.7 7.2-11.5 7.2-17.2v-16.9zm-35.4-64.3c-9.8 0-18.1 3.4-25 10.3-6.9 6.9-10.4 15.3-10.4 25s3.5 18 10.4 25c6.9 6.9 15.3 10.4 25 10.4 9.8 0 18.1-3.5 25-10.4 6.9-6.9 10.3-15.2 10.3-25s-3.4-18.2-10.3-25c-6.9-6.8-15.2-10.3-25-10.3z"/>
		<path class="st3" d="M1108.5 882.8c0 1.9-.7 3.5-2 4.8s-2.9 2-4.8 2c-1.8 0-3.4-.7-4.8-2-1.3-1.3-2-2.9-2-4.8 0-1.8.7-3.4 2-4.8 1.3-1.3 2.9-2 4.8-2s3.5.7 4.8 2 2 3 2 4.8zm-11.8 27c0-1.4.5-2.6 1.5-3.6s2.2-1.5 3.6-1.5 2.6.5 3.6 1.5 1.5 2.2 1.5 3.6v81c0 1.4-.5 2.6-1.5 3.6s-2.2 1.5-3.6 1.5-2.6-.5-3.6-1.5-1.5-2.2-1.5-3.6v-81z"/>
		<path class="st3" d="M1128.5 909.8c0-1.4.5-2.6 1.5-3.6s2.2-1.5 3.6-1.5 2.6.5 3.6 1.5 1.5 2.2 1.5 3.6v9.4c10-9.6 20.6-14.5 32-14.5 11.7 0 21.6 4.1 29.7 12.4 8.3 8.2 12.4 18.2 12.4 29.8v43.8c0 1.4-.5 2.6-1.5 3.6s-2.2 1.5-3.6 1.5-2.6-.5-3.6-1.5-1.5-2.2-1.5-3.6v-43.8c0-8.9-3.1-16.5-9.4-22.6-6.3-6.3-13.8-9.5-22.6-9.5s-16.3 3.2-22.7 9.5c-6.2 6.2-9.3 13.7-9.3 22.6v43.8c0 1.4-.5 2.6-1.5 3.6s-2.2 1.5-3.6 1.5-2.6-.5-3.6-1.5-1.5-2.2-1.5-3.6v-80.9z"/>
		<path class="st3" d="M1306.8 979.1c-9.9 10.9-21.7 16.4-35.4 16.4-12.6 0-23.3-4.4-32.2-13.2-8.9-8.9-13.3-19.6-13.3-32.1 0-12.6 4.4-23.3 13.3-32.1 8.9-8.9 19.6-13.3 32.2-13.3 12.6 0 23.3 4.4 32.2 13.3 8.9 8.8 13.3 19.5 13.3 32.1v46c0 9.3-3.4 17.4-10.2 24.3-9.5 9.5-21.1 14.3-34.6 14.3s-25.1-4.8-34.5-14.3c-3.5-3.4-6.4-7-8.5-11-.6-1-.9-2-.9-3 0-1.4.5-2.6 1.5-3.6s2.2-1.5 3.6-1.5 2.6.5 3.7 1.5c.4.4.8.9 1.1 1.5 1.8 3.3 4.1 6.2 6.7 8.9 3.8 3.8 8 6.6 12.6 8.5 4.6 1.9 9.5 2.8 14.8 2.8 10.7 0 19.9-3.8 27.5-11.4 4.8-5.7 7.2-11.5 7.2-17.2v-16.9zm-35.3-64.3c-9.8 0-18.1 3.4-25 10.3-6.9 6.9-10.4 15.3-10.4 25s3.5 18 10.4 25c6.9 6.9 15.3 10.4 25 10.4 9.8 0 18.1-3.5 25-10.4 6.9-6.9 10.3-15.2 10.3-25s-3.4-18.2-10.3-25c-6.9-6.8-15.3-10.3-25-10.3z"/>
	</g>
</svg>
