<svg xmlns="http://www.w3.org/2000/svg" viewBox="-7.6 -7.6 395.2 354.7">
	<defs>
		<style>
			.e40aa632-8485-4d6f-82fb-38092a4ef977{fill:#8db5fd}.b9167865-2738-4e03-a848-ded368e741a6{fill:#5d96fc}.f1367487-f2a0-41d2-8eda-dc9f7336c624{fill:#7dabfd}.e5424f6e-726a-4a73-9c17-85e9ced94c88{fill:#9ec0fd}.b98310c5-fcc9-4d8c-bf92-f9599e756d5a{fill:#70a2fc}.f793d221-54cc-4285-87a4-96832292ff4f{fill:#6da0fc}
		</style>
	</defs>
	<path fill="#aecafd" d="M51.025 153.766a5.875 5.875 0 0 1 5.875-5.875H18.813a5.875 5.875 0 1 1 0 11.75H56.9a5.875 5.875 0 0 1-5.875-5.875Z"/>
	<path d="M51.025 98.256a5.875 5.875 0 0 1 5.875-5.875H4.755q-.826 2.92-1.516 5.897c-.07.3-.131.605-.198.906-.158.704-.315 1.407-.46 2.115-.081.391-.153.785-.23 1.177-.107.551-.216 1.102-.317 1.655H56.9a5.875 5.875 0 0 1-5.875-5.875Z" class="e40aa632-8485-4d6f-82fb-38092a4ef977"/>
	<path d="M58.115 92.381H56.9a5.875 5.875 0 1 0 0 11.75h26.53a109.714 109.714 0 0 1 3.185-11.75Z" class="b9167865-2738-4e03-a848-ded368e741a6"/>
	<path d="M77.97 73.338a5.875 5.875 0 1 1 0 11.75h11.358a109.91 109.91 0 0 1 5.688-11.75Z" class="f1367487-f2a0-41d2-8eda-dc9f7336c624"/>
	<path d="M83.844 79.213a5.875 5.875 0 0 0-5.875-5.875H11.852a126.189 126.189 0 0 0-4.784 11.75h70.901a5.875 5.875 0 0 0 5.875-5.875Z" class="b9167865-2738-4e03-a848-ded368e741a6"/>
	<path d="M70.879 60.98a5.875 5.875 0 0 1 5.875-5.875H29.348a5.875 5.875 0 0 1 .001 11.75h47.404a5.875 5.875 0 0 1-5.874-5.875Z" class="e5424f6e-726a-4a73-9c17-85e9ced94c88"/>
	<path d="M35.223 60.98a5.875 5.875 0 0 0-5.875-5.875h-7.059a127.003 127.003 0 0 0-7.185 11.75h14.245a5.875 5.875 0 0 0 5.874-5.875zm59.359-5.875H76.754a5.875 5.875 0 0 0-.001 11.75h22.19a110.594 110.594 0 0 1 8.84-11.75z" class="b9167865-2738-4e03-a848-ded368e741a6"/>
	<path d="M83.844 23.703a5.875 5.875 0 0 1 5.875-5.875H62.08l-.32.19q-1.895 1.137-3.748 2.336c-.23.15-.459.302-.688.453a127.102 127.102 0 0 0-3.685 2.507c-.04.03-.083.057-.124.086a127.513 127.513 0 0 0-3.647 2.7c-.231.178-.463.354-.693.532q-1.738 1.349-3.427 2.755l-.226.191H89.72a5.875 5.875 0 0 1-5.875-5.875Z" class="e40aa632-8485-4d6f-82fb-38092a4ef977"/>
	<path d="M90.125 17.828a5.875 5.875 0 1 1 0 11.75h49.746a108.758 108.758 0 0 1 37.607-11.75Z" class="e5424f6e-726a-4a73-9c17-85e9ced94c88"/>
	<path d="M96 23.703a5.875 5.875 0 0 0-5.875-5.875h-.406a5.875 5.875 0 0 0 0 11.75h.406A5.875 5.875 0 0 0 96 23.703Z" class="b98310c5-fcc9-4d8c-bf92-f9599e756d5a"/>
	<path d="M126.996 0A126.581 126.581 0 0 0 76.29 10.535h101.412A126.581 126.581 0 0 0 126.996 0Z" class="b9167865-2738-4e03-a848-ded368e741a6"/>
	<path fill="none" stroke="#7dabfd" stroke-linecap="round" stroke-linejoin="round" stroke-width="0" d="M20.433 122.364H.066"/>
	<path d="M20.434 110.614h1.581a5.875 5.875 0 0 1 0 11.75h-1.581H81.12a111.148 111.148 0 0 1 1.13-11.75Z" class="f1367487-f2a0-41d2-8eda-dc9f7336c624"/>
	<path d="M0 129.252q.103 5.946.741 11.75h81.12a111.547 111.547 0 0 1-.827-11.75Z" class="b9167865-2738-4e03-a848-ded368e741a6"/>
	<path fill="#75a6fc" d="M56.9 147.89a5.875 5.875 0 0 0 0 11.75h28.938a109.78 109.78 0 0 1-2.894-11.75Z"/>
	<path d="M12.533 153.766a5.875 5.875 0 0 1 5.875-5.875H1.688c.047.282.092.566.14.848q.123.713.253 1.424.15.814.311 1.624c.094.473.188.945.287 1.417.113.537.23 1.073.35 1.608.105.468.21.937.319 1.403.127.538.26 1.074.393 1.61.113.456.226.912.344 1.366l.122.45h14.201a5.875 5.875 0 0 1-5.875-5.875Z" class="f1367487-f2a0-41d2-8eda-dc9f7336c624"/>
	<path d="M24.688 153.766a5.875 5.875 0 0 0-5.875-5.875h-.405a5.875 5.875 0 1 0 0 11.75h.405a5.875 5.875 0 0 0 5.875-5.875Z" class="f793d221-54cc-4285-87a4-96832292ff4f"/>
	<path d="M79.59 166.529a5.875 5.875 0 1 1 0 11.75h13.893a109.801 109.801 0 0 1-5.279-11.75Z" class="e5424f6e-726a-4a73-9c17-85e9ced94c88"/>
	<path d="M79.589 178.279h.001-.001zm.001-11.75h-.001.001z" class="e5424f6e-726a-4a73-9c17-85e9ced94c88"/>
	<path d="M81.482 166.846a5.853 5.853 0 0 1 .908.392 5.85 5.85 0 0 0-.908-.392zm3.719 3.81a5.882 5.882 0 0 0-1.874-2.786 5.882 5.882 0 0 1 1.874 2.787zm0 3.495a5.863 5.863 0 0 1-1.077 1.99 5.862 5.862 0 0 0 1.077-1.99zm0 0a5.91 5.91 0 0 0 0-3.494 5.91 5.91 0 0 1 0 3.494zm-1.874 2.786a5.91 5.91 0 0 0 .797-.796 5.92 5.92 0 0 1-.797.796zm-.937-9.7a5.884 5.884 0 0 1 .937.633 5.888 5.888 0 0 0-.937-.632zm-8.675 5.167a5.875 5.875 0 0 1 5.875-5.875H6.245c.066.202.13.405.197.607q.255.766.52 1.527c.167.478.334.956.505 1.431.183.509.372 1.015.561 1.52a113.162 113.162 0 0 0 1.703 4.305c.205.493.417.984.629 1.475q.192.443.387.885H79.59a5.875 5.875 0 0 1-5.875-5.875z" class="b98310c5-fcc9-4d8c-bf92-f9599e756d5a"/>
	<path d="M14.676 186.383c.095.177.187.356.282.533q.462.862.938 1.715c.214.385.426.77.644 1.152.34.597.688 1.189 1.037 1.78.204.345.406.693.613 1.037.406.672.822 1.338 1.24 2.002.161.256.318.514.48.769q.878 1.372 1.79 2.721l.027.04h85.031a110.544 110.544 0 0 1-8.604-11.75Z" class="f793d221-54cc-4285-87a4-96832292ff4f"/>
	<path d="M76.754 216.771a5.875 5.875 0 0 1 0-11.75h36.283-86.299l.139.18q1.095 1.4 2.228 2.771c.146.177.297.35.444.525q.93 1.112 1.884 2.202c.248.282.498.562.748.842q.856.96 1.731 1.902c.246.265.491.531.74.794q1.116 1.182 2.261 2.336c.065.066.128.133.193.198h89.688Z" class="f1367487-f2a0-41d2-8eda-dc9f7336c624"/>
	<path d="M70.879 210.896a5.875 5.875 0 0 0 5.875 5.875h50.04a110.486 110.486 0 0 1-13.757-11.75H76.754a5.875 5.875 0 0 0-5.875 5.875Z" class="b9167865-2738-4e03-a848-ded368e741a6"/>
	<path d="M110.991 229.534a5.875 5.875 0 0 1 5.875-5.875h20.76-93.064l.387.327q1.62 1.373 3.285 2.696l.232.187c1.164.917 2.35 1.808 3.545 2.684l.718.524q1.775 1.28 3.593 2.504c.189.127.38.25.57.376q1.72 1.14 3.478 2.227l.361.225h26.15a5.875 5.875 0 1 1 .005 0h29.978a5.875 5.875 0 0 1-5.873-5.875zm35.861 5.875h22.936a108.668 108.668 0 0 1-17.162-4.825 5.873 5.873 0 0 1-5.774 4.825z" class="e40aa632-8485-4d6f-82fb-38092a4ef977"/>
	<path d="M92.758 229.534a5.875 5.875 0 1 0-5.877 5.875h.005a5.875 5.875 0 0 0 5.872-5.875zm59.868 1.05a109.047 109.047 0 0 1-15-6.925h-20.76a5.875 5.875 0 0 0-.002 11.75h29.988a5.873 5.873 0 0 0 5.774-4.825zm-75.41 13.334a127.384 127.384 0 0 0 99.56 0zM27.89 116.489a5.875 5.875 0 0 0-5.875-5.875H1.025q-.747 5.797-.959 11.75h21.95a5.875 5.875 0 0 0 5.874-5.875zm55.437 60.448a5.88 5.88 0 0 0-.937-9.7 6.047 6.047 0 0 0-2.8-.708 5.875 5.875 0 0 0 0 11.75 5.853 5.853 0 0 0 3.737-1.342z" class="b9167865-2738-4e03-a848-ded368e741a6"/>
	<path fill="#639afc" d="M38.348 36.061c-.15.146-.299.29-.448.437q-.938.924-1.857 1.867c-.236.242-.474.482-.708.726q-1.24 1.291-2.444 2.615c-.116.127-.228.258-.343.386q-1.032 1.147-2.036 2.319c-.245.286-.487.575-.73.863q-.832.989-1.644 1.995-.22.27-.437.542h86.983a110.403 110.403 0 0 1 14.416-11.75Z"/>
	<path d="M253.007.405a126.436 126.436 0 0 0-62.854 16.621c.219-.001.437-.008.656-.008 53.558 0 98.152 38.491 107.841 89.414h-47.52a63.966 63.966 0 1 0-15.734 65.848h-27.598v-30.498h89.084v89.415h-30.164v-24.349a109.199 109.199 0 0 1-75.909 30.587c-.46 0-.918-.012-1.377-.017A127.03 127.03 0 1 0 253.007.405zM68.417 305.448a26.671 26.671 0 0 1-1.645 9.532 21.815 21.815 0 0 1-4.646 7.468 20.761 20.761 0 0 1-7.21 4.855 24.31 24.31 0 0 1-9.305 1.725 24.188 24.188 0 0 1-9.29-1.725 20.797 20.797 0 0 1-7.194-4.855 21.83 21.83 0 0 1-4.645-7.468 28.44 28.44 0 0 1 0-19.064 22.012 22.012 0 0 1 4.645-7.484 20.87 20.87 0 0 1 7.193-4.887 23.99 23.99 0 0 1 9.29-1.742 24.112 24.112 0 0 1 9.307 1.742 20.833 20.833 0 0 1 7.21 4.887 21.996 21.996 0 0 1 4.645 7.484 26.678 26.678 0 0 1 1.645 9.532zm-6.42 0a23.494 23.494 0 0 0-1.16-7.645 16.172 16.172 0 0 0-3.29-5.726 14.28 14.28 0 0 0-5.162-3.597 18.778 18.778 0 0 0-13.516 0 14.426 14.426 0 0 0-5.177 3.597 16.032 16.032 0 0 0-3.307 5.726 25.69 25.69 0 0 0 0 15.274 16.045 16.045 0 0 0 3.307 5.71 14.248 14.248 0 0 0 5.177 3.58 19.01 19.01 0 0 0 13.516 0 14.106 14.106 0 0 0 5.161-3.58 16.185 16.185 0 0 0 3.29-5.71 23.348 23.348 0 0 0 1.162-7.63zm12.451 34.16v-43.74h3.42a1.464 1.464 0 0 1 1.548 1.193l.484 3.87a17.445 17.445 0 0 1 4.79-4.096 12.236 12.236 0 0 1 6.21-1.548 11.794 11.794 0 0 1 5.096 1.08 10.522 10.522 0 0 1 3.904 3.193 15.33 15.33 0 0 1 2.483 5.243 26.894 26.894 0 0 1 .871 7.193 22.54 22.54 0 0 1-.967 6.726 16.371 16.371 0 0 1-2.774 5.387 12.956 12.956 0 0 1-4.436 3.58 13.12 13.12 0 0 1-5.92 1.307 12.184 12.184 0 0 1-5.176-1 11.65 11.65 0 0 1-3.79-2.839v14.452zm14.549-39.676a9.248 9.248 0 0 0-4.92 1.29 14.183 14.183 0 0 0-3.887 3.645v15.807a9.23 9.23 0 0 0 3.468 3 9.929 9.929 0 0 0 4.21.87 8.237 8.237 0 0 0 7-3.258q2.45-3.257 2.451-9.29a23.199 23.199 0 0 0-.564-5.484 10.725 10.725 0 0 0-1.63-3.758 6.339 6.339 0 0 0-2.612-2.145 8.691 8.691 0 0 0-3.517-.677zm32.386-4.58a14.594 14.594 0 0 1 5.419.983 12.176 12.176 0 0 1 4.29 2.839 12.944 12.944 0 0 1 2.823 4.58 17.698 17.698 0 0 1 1.016 6.21 3.745 3.745 0 0 1-.29 1.807 1.205 1.205 0 0 1-1.097.45h-21.742a18.033 18.033 0 0 0 .838 5.388 11.009 11.009 0 0 0 2.13 3.823 8.531 8.531 0 0 0 3.225 2.29 11.08 11.08 0 0 0 4.194.758 12.308 12.308 0 0 0 3.726-.5 17.709 17.709 0 0 0 2.693-1.081 20.462 20.462 0 0 0 1.887-1.08 2.5 2.5 0 0 1 1.307-.5 1.265 1.265 0 0 1 1.096.548l1.614 2.097a10.897 10.897 0 0 1-2.549 2.242 15.847 15.847 0 0 1-3.178 1.564 20.119 20.119 0 0 1-3.5.92 21.418 21.418 0 0 1-3.58.306 16.618 16.618 0 0 1-6.242-1.145 13.688 13.688 0 0 1-4.935-3.355 15.394 15.394 0 0 1-3.242-5.468 22.234 22.234 0 0 1-1.161-7.484 19.044 19.044 0 0 1 1.048-6.387 15.06 15.06 0 0 1 3.016-5.145 13.892 13.892 0 0 1 4.806-3.42 15.782 15.782 0 0 1 6.388-1.24zm.128 4.225a8.816 8.816 0 0 0-6.548 2.403 11.307 11.307 0 0 0-2.967 6.661h17.774a11.64 11.64 0 0 0-.549-3.66 8.164 8.164 0 0 0-1.613-2.872 7.224 7.224 0 0 0-2.596-1.87 8.762 8.762 0 0 0-3.5-.662zm19.129 28.967v-32.677h3.419a1.464 1.464 0 0 1 1.548 1.194l.452 3.548a18.373 18.373 0 0 1 4.758-3.807 12.377 12.377 0 0 1 6.08-1.45 11.802 11.802 0 0 1 4.726.886 9.155 9.155 0 0 1 3.42 2.516 11.123 11.123 0 0 1 2.08 3.92 17.072 17.072 0 0 1 .71 5.064v20.806h-5.742v-20.806a8.796 8.796 0 0 0-1.694-5.758 6.331 6.331 0 0 0-5.177-2.048 9.647 9.647 0 0 0-4.758 1.226 15.66 15.66 0 0 0-4.08 3.322v24.064z" class="b9167865-2738-4e03-a848-ded368e741a6"/>
	<path fill="#2f508a" d="M196.414 323.996a30.589 30.589 0 0 0 3.435-.178 21.741 21.741 0 0 0 2.952-.532 20.088 20.088 0 0 0 2.612-.855q1.226-.5 2.452-1.145v-10.193h-7.161a1.363 1.363 0 0 1-.984-.355 1.158 1.158 0 0 1-.371-.871v-3.548h14.193v17.741a25.573 25.573 0 0 1-3.629 2.194 24.674 24.674 0 0 1-4.032 1.565 29.237 29.237 0 0 1-4.597.935 43.109 43.109 0 0 1-5.322.306 24.003 24.003 0 0 1-9.226-1.725 21.226 21.226 0 0 1-7.225-4.839 21.958 21.958 0 0 1-4.726-7.468 26.22 26.22 0 0 1-1.694-9.58 26.857 26.857 0 0 1 1.661-9.645 20.738 20.738 0 0 1 12.194-12.29 26.696 26.696 0 0 1 9.79-1.71 30.243 30.243 0 0 1 5.097.403 23.892 23.892 0 0 1 4.37 1.161 20.424 20.424 0 0 1 3.726 1.839 22.814 22.814 0 0 1 3.194 2.435l-1.774 2.84a1.632 1.632 0 0 1-1.42.87 2.282 2.282 0 0 1-1.129-.355q-.806-.45-1.806-1.097a15.583 15.583 0 0 0-2.436-1.241 19.638 19.638 0 0 0-3.386-1.017 22.334 22.334 0 0 0-4.63-.419 18.744 18.744 0 0 0-7.064 1.274 14.943 14.943 0 0 0-5.387 3.645 16.136 16.136 0 0 0-3.42 5.743 22.557 22.557 0 0 0-1.193 7.564 22.915 22.915 0 0 0 1.242 7.822 16.513 16.513 0 0 0 3.5 5.823 15.095 15.095 0 0 0 5.355 3.645 18 18 0 0 0 6.839 1.258zm31.902-38.387a3.656 3.656 0 0 1-.34 1.565 4.516 4.516 0 0 1-.903 1.29 4.192 4.192 0 0 1-1.306.887 3.928 3.928 0 0 1-1.58.323 3.812 3.812 0 0 1-1.565-.323 4.305 4.305 0 0 1-2.178-2.177 3.812 3.812 0 0 1-.322-1.565 4.043 4.043 0 0 1 .322-1.597 4.143 4.143 0 0 1 .888-1.322 4.26 4.26 0 0 1 1.29-.887 3.812 3.812 0 0 1 1.565-.323 3.928 3.928 0 0 1 1.58.323 4.208 4.208 0 0 1 1.306.887 4.39 4.39 0 0 1 .904 1.322 3.876 3.876 0 0 1 .339 1.597zm-1.29 10.258-.001 32.677h-5.742v-32.677zm18.418 33.193a7.876 7.876 0 0 1-5.95-2.16 8.623 8.623 0 0 1-2.082-6.226v-20h-3.935a1.281 1.281 0 0 1-.87-.307 1.189 1.189 0 0 1-.356-.951v-2.29l5.355-.678 1.323-10.097a1.22 1.22 0 0 1 .419-.79 1.333 1.333 0 0 1 .903-.307h2.903v11.259h9.355v4.16h-9.355v19.613a4.169 4.169 0 0 0 1 3.065 3.49 3.49 0 0 0 2.58 1 4.559 4.559 0 0 0 1.565-.242 6.709 6.709 0 0 0 1.145-.532q.485-.29.823-.533a1.075 1.075 0 0 1 .597-.241.99.99 0 0 1 .806.548l1.678 2.742a10.7 10.7 0 0 1-3.58 2.177 12.173 12.173 0 0 1-4.324.79zm56.386-23.612a26.671 26.671 0 0 1-1.645 9.532 21.815 21.815 0 0 1-4.645 7.468 20.761 20.761 0 0 1-7.21 4.855 25.917 25.917 0 0 1-18.596 0 20.797 20.797 0 0 1-7.194-4.855 21.83 21.83 0 0 1-4.645-7.468 28.44 28.44 0 0 1 0-19.064 22.012 22.012 0 0 1 4.645-7.484 20.87 20.87 0 0 1 7.194-4.887 25.688 25.688 0 0 1 18.596 0 20.833 20.833 0 0 1 7.21 4.887 21.996 21.996 0 0 1 4.645 7.484 26.678 26.678 0 0 1 1.645 9.532zm-6.419 0a23.494 23.494 0 0 0-1.161-7.645 16.172 16.172 0 0 0-3.29-5.726 14.28 14.28 0 0 0-5.162-3.597 18.778 18.778 0 0 0-13.516 0 14.426 14.426 0 0 0-5.177 3.597 16.032 16.032 0 0 0-3.307 5.726 25.69 25.69 0 0 0 0 15.274 16.045 16.045 0 0 0 3.307 5.71 14.248 14.248 0 0 0 5.177 3.58 19.01 19.01 0 0 0 13.516 0 14.106 14.106 0 0 0 5.161-3.58 16.185 16.185 0 0 0 3.29-5.71 23.348 23.348 0 0 0 1.162-7.63zm12.45 34.16v-43.74h3.42a1.464 1.464 0 0 1 1.548 1.193l.484 3.87a17.445 17.445 0 0 1 4.79-4.096 12.236 12.236 0 0 1 6.21-1.548 11.794 11.794 0 0 1 5.097 1.08 10.522 10.522 0 0 1 3.903 3.193 15.33 15.33 0 0 1 2.484 5.243 26.894 26.894 0 0 1 .87 7.193 22.54 22.54 0 0 1-.967 6.726 16.371 16.371 0 0 1-2.774 5.387 12.956 12.956 0 0 1-4.436 3.58 13.12 13.12 0 0 1-5.919 1.307 12.184 12.184 0 0 1-5.177-1 11.65 11.65 0 0 1-3.79-2.839v14.452zm14.549-39.676a9.248 9.248 0 0 0-4.92 1.29 14.183 14.183 0 0 0-3.886 3.645v15.807a9.23 9.23 0 0 0 3.467 3 9.929 9.929 0 0 0 4.21.87 8.237 8.237 0 0 0 7-3.258q2.451-3.257 2.451-9.29a23.199 23.199 0 0 0-.564-5.484 10.725 10.725 0 0 0-1.63-3.758 6.339 6.339 0 0 0-2.612-2.145 8.691 8.691 0 0 0-3.516-.677zm38.16 1.322a1.273 1.273 0 0 1-1.194.71 2.24 2.24 0 0 1-1.096-.355q-.614-.354-1.5-.79a14.144 14.144 0 0 0-2.113-.807 10.103 10.103 0 0 0-2.903-.37 8.585 8.585 0 0 0-2.613.37 6.287 6.287 0 0 0-1.984 1.016 4.504 4.504 0 0 0-1.258 1.5 4.03 4.03 0 0 0-.436 1.855 3.091 3.091 0 0 0 .726 2.097 6.296 6.296 0 0 0 1.92 1.451 16.653 16.653 0 0 0 2.71 1.081q1.515.468 3.112 1 1.597.532 3.113 1.178a11.31 11.31 0 0 1 2.71 1.613 7.377 7.377 0 0 1 1.919 2.37 7.256 7.256 0 0 1 .726 3.371 10.682 10.682 0 0 1-.807 4.178 9.119 9.119 0 0 1-2.387 3.322 11.51 11.51 0 0 1-3.87 2.21 15.9 15.9 0 0 1-5.29.806 16.497 16.497 0 0 1-6.195-1.113 15.682 15.682 0 0 1-4.71-2.854l1.356-2.194a1.96 1.96 0 0 1 .613-.645 1.721 1.721 0 0 1 .935-.226 2.165 2.165 0 0 1 1.226.452q.645.452 1.564 1a12.011 12.011 0 0 0 2.226 1 10.123 10.123 0 0 0 3.274.451 8.988 8.988 0 0 0 2.936-.435 6.167 6.167 0 0 0 2.096-1.177 4.664 4.664 0 0 0 1.242-1.71 5.31 5.31 0 0 0 .404-2.064 3.426 3.426 0 0 0-.726-2.242 6.13 6.13 0 0 0-1.92-1.517 15.636 15.636 0 0 0-2.725-1.096q-1.533-.468-3.13-.984-1.596-.516-3.129-1.178a10.968 10.968 0 0 1-2.725-1.66 7.526 7.526 0 0 1-1.92-2.468 7.984 7.984 0 0 1-.725-3.565 8.697 8.697 0 0 1 .774-3.597 8.822 8.822 0 0 1 2.258-3.032 11.113 11.113 0 0 1 3.645-2.08 14.586 14.586 0 0 1 4.936-.775 15.614 15.614 0 0 1 5.79 1.016 13.71 13.71 0 0 1 4.435 2.79z"/>
</svg>
