<svg xmlns="http://www.w3.org/2000/svg" viewBox="-0.33 -2.33 277.16 83.91">
	<defs>
		<style>
			.cls-3{fill:#7a7b7d}
		</style>
	</defs>
	<path fill="none" d="M214.827 27.496a11.603 11.603 0 0 0-11.447 11.508 11.64 11.64 0 0 0 11.38 11.283 11.396 11.396 0 1 0 .067-22.791zm-58.113 0a11.602 11.602 0 0 0-11.494 11.433 11.474 11.474 0 1 0 11.494-11.433zm-35.175.083a11.388 11.388 0 1 0 .457 22.766 11.278 11.278 0 0 0 10.899-11.237 11.51 11.51 0 0 0-11.356-11.53z"/>
	<path fill="#048c9a" d="M75.225 19.76A33.937 33.937 0 0 0 57.466 4.458c-2.826-1.077-6.193.607-7.523 3.35-1.309 2.701-.569 5.448 2.05 7.35a22.076 22.076 0 0 0 2.418 1.39c8.224 4.504 12.89 11.137 13.704 20.675 1.33 15.577-12.972 29.282-28.57 27.033-8.174-1.178-14.146-5.52-18.466-12.34-.697-1.1-1.265-2.768-2.979-1.784-1.882 1.081-.677 2.527.086 3.689.96 1.464 2.08 2.824 3.145 4.218.68.89 1.77 1.798.553 2.904-1.283 1.168-2.044-.188-2.803-.91a15.061 15.061 0 0 1-1.748-2.173c-6.38-8.892-8.105-18.584-4.899-29.05.609-1.985.436-3.611-1.57-4.344-2.263-.826-3.295.649-4.13 2.598-3.473 8.112-.656 21.34-.656 21.34 4.26 16.135 19.374 28.062 36.142 27.902 14.467-.138 25.941-6.31 33.23-18.882 7.22-12.452 6.83-25.244-.225-37.666z"/>
	<path d="M156.89 23.94a14.933 14.933 0 0 0-15.315 14.38c-.19 8.14-.046 16.29-.05 24.434 0 1.407.12 2.977 1.916 2.944 1.847-.034 1.757-1.67 1.756-3.036-.004-4.328-.002-8.657-.002-13.622 3.693 2.826 7.182 4.847 11.383 4.897a15.264 15.264 0 0 0 15.257-14.866 15.175 15.175 0 0 0-14.945-15.132zm-.373 26.32a11.597 11.597 0 0 1-11.297-11.331 11.474 11.474 0 0 1 22.949.004 11.71 11.71 0 0 1-11.652 11.326zm73.471-11.465a14.811 14.811 0 0 0-11.405-14.42 15.285 15.285 0 0 0-16.956 7.364 14.842 14.842 0 0 0 3.04 18.094c5.052 4.728 12.2 5.311 18.35 1.482 1.029-.64 2.02-1.338 3.128-2.074a11.175 11.175 0 0 1 .173 1.13c.05 1.416-.279 3.308 1.757 3.345 2.293.041 1.908-1.981 1.917-3.48.024-3.813.054-7.628-.004-11.441zM214.76 50.287a11.64 11.64 0 0 1-11.38-11.283 11.603 11.603 0 0 1 11.447-11.508 11.396 11.396 0 1 1-.067 22.79zm-93.27-26.449a15.019 15.019 0 1 0 15.008 15.303 15.118 15.118 0 0 0-15.008-15.303zm.506 26.507a11.388 11.388 0 1 1-.457-22.766 11.51 11.51 0 0 1 11.356 11.529 11.278 11.278 0 0 1-10.899 11.237zm65.13-13.687a48.455 48.455 0 0 1-3.404-.37c-2.562-.36-4.4-1.612-4.242-4.39.148-2.613 1.92-4.04 4.443-4.408a10.012 10.012 0 0 1 7.163 1.462c1.246.82 2.537 1.277 3.455-.314.95-1.645-.373-2.383-1.528-3.14a14.356 14.356 0 0 0-7.37-2.211c-5.268-.237-10.056 3.681-10.357 8.323-.308 4.756 3.515 8.38 9.283 8.821a27.461 27.461 0 0 1 4.009.43 4.218 4.218 0 0 1 3.566 4.123c.132 2.23-1.296 3.402-3.168 4.073-3.823 1.37-7.121.286-10.044-2.315-1.054-.938-2.205-1.307-3.246-.073-.96 1.137-.282 2.16.578 2.983a13.397 13.397 0 0 0 9.566 3.835c.311 0 .623.01.935-.002 5.393-.192 9.536-3.786 9.54-8.273.006-4.82-3.596-8.166-9.18-8.554zm73.506-.188c-.102-7.13-5.361-12.549-12.224-12.619a12.467 12.467 0 0 0-12.53 12.064c-.197 5.04-.036 10.095-.046 15.143-.003 1.333.193 2.666 1.842 2.675 1.693.008 1.775-1.352 1.784-2.672q.051-7.26.168-14.52c.094-5.532 3.599-9.19 8.733-9.165 5.151.026 8.547 3.668 8.582 9.265.03 4.636 0 9.272.01 13.908.003 1.468-.047 3.21 1.986 3.182 1.897-.025 1.703-1.699 1.702-3.043q-.004-3.709-.002-7.418c0-2.267.027-4.534-.005-6.8zM14.187 38.09a31.322 31.322 0 0 0 .029 3.705c.193 1.611.292 3.689 2.588 3.495 2.266-.19 2.013-2.015 1.886-3.791a24.967 24.967 0 0 1 9.14-21.928c3.321-2.823 7.24-4.342 11.366-5.5 1.437-.403 3.454-.583 2.874-2.791-.494-1.885-2.192-1.43-3.65-1.193A28.75 28.75 0 0 0 14.186 38.09z" class="cls-3"/>
	<path d="M24.697 32.548c-1.318-.177-1.684.93-1.857 2.007-.228 1.415-.44 2.832-.622 4.001.54 9.176 4.365 16 12.54 20.115 1.128.568 2.552 1.733 3.466-.05.935-1.824-.935-2.16-2.024-2.768a19.609 19.609 0 0 1-10.49-15.131 20.168 20.168 0 0 1 .261-5.509c.15-1.157.272-2.456-1.275-2.665zm244.879-8.599c-1.54-.071-2.043 1.174-2.044 2.556q-.01 12.382 0 24.763c.002 1.37.435 2.597 2.05 2.518 1.48-.072 1.644-1.297 1.639-2.521-.018-4.127-.007-8.255-.008-12.382s-.014-8.255.008-12.382c.007-1.245-.26-2.487-1.645-2.552zM13.812 22.392a3.415 3.415 0 0 0 2.549-1.412 42.748 42.748 0 0 1 7.399-8.265 2.697 2.697 0 0 0 .546-3.869C23.18 7.261 21.647 7.5 20.193 8.42a28.142 28.142 0 0 0-8.819 9.383 2.98 2.98 0 0 0 2.438 4.59zm12.737 7.384c.975.596 1.768.088 2.353-.772a23.064 23.064 0 0 1 4.223-4.48 7.252 7.252 0 0 0 .855-.994 1.407 1.407 0 0 0-.631-1.516 1.808 1.808 0 0 0-2.053.05 17.59 17.59 0 0 0-5.125 5.274 1.602 1.602 0 0 0 .378 2.438zm242.93-13.156c1.269-.187 2.293-.806 2.264-2.319a2.138 2.138 0 0 0-2.186-2.176 2.035 2.035 0 0 0-2.334 1.968c-.112 1.46.671 2.3 2.255 2.527zM40.898 58.453a1.372 1.372 0 0 0 1.23 1.754c.987.127 1.485-.489 1.719-1.384-.107-.883-.507-1.55-1.486-1.612a1.305 1.305 0 0 0-1.464 1.242z" class="cls-3"/>
	<circle cx="29.884" cy="6.251" r="3.117" class="cls-3"/>
</svg>
