<svg xmlns="http://www.w3.org/2000/svg" width="200" height="128">
	<defs>
		<linearGradient id="a" x1="30.912" y1="-6673.633" x2="30.912" y2="-6660.318" gradientTransform="translate(0 6728.14)" gradientUnits="userSpaceOnUse">
			<stop offset="0" stop-color="#2684ff"/>
			<stop offset=".82" stop-color="#0052cc"/>
		</linearGradient>
		<linearGradient id="b" x1="26.91" y1="-6660.686" x2="31.37" y2="-6651.351" gradientTransform="translate(0 6728.14)" gradientUnits="userSpaceOnUse">
			<stop offset="0" stop-color="#2684ff"/>
			<stop offset=".62" stop-color="#0052cc"/>
		</linearGradient>
	</defs>
	<g data-name="Layer 2">
		<g data-name="Layer 1-2">
			<circle cx="30.912" cy="58.836" r="6.485" fill="url(#a)"/>
			<path d="M30.36 78.181a31.256 31.256 0 0 1-10.269-10.744.727.727 0 0 1 .266-.978h.036l4.911-2.41a.725.725 0 0 1 .948.291 24.278 24.278 0 0 0 10.541 9.541A31.3 31.3 0 0 1 31.45 78.2a1.041 1.041 0 0 1-1.09-.019Z" fill="url(#b)"/>
			<path d="M31.465 78.181a31.253 31.253 0 0 0 10.268-10.744.727.727 0 0 0-.294-.978h-.033l-4.9-2.428a.726.726 0 0 0-.948.29 24.271 24.271 0 0 1-10.542 9.542 31.171 31.171 0 0 0 5.344 4.318 1.044 1.044 0 0 0 1.105 0Z" fill="#2684ff"/>
		</g>
	</g>
	<path d="M50.617 63.954c0-6.335 3.635-10.781 10.141-10.781s10.123 4.449 10.123 10.781c0 6.394-3.635 10.872-10.1 10.872s-10.164-4.482-10.164-10.872Zm2.879 0c0 4.446 2.079 8.124 7.269 8.124s7.208-3.678 7.208-8.124c0-4.362-2.079-8.029-7.226-8.029S53.5 59.6 53.5 63.954Zm23.8 7.739v9.051h-2.751V58.517h2.748V61.4a5.634 5.634 0 0 1 5.4-3.2c4.257 0 6.4 3.613 6.4 8.313 0 4.51-2.24 8.316-6.714 8.316a5.243 5.243 0 0 1-5.086-3.136Zm4.671-10.937c-2.461 0-4.671 1.566-4.671 5.118v1.279c0 3.548 2.017 5.114 4.362 5.114 3.1 0 4.7-2.046 4.7-5.757-.01-3.835-1.548-5.754-4.394-5.754Zm15.354 14.07a12.322 12.322 0 0 1-5.565-1.181v-2.908a12.5 12.5 0 0 0 5.689 1.563c2.112 0 3.2-.862 3.2-2.112s-.927-1.919-3.966-2.654c-3.551-.865-5.053-2.239-5.053-4.86 0-2.784 2.141-4.478 5.791-4.478a11.341 11.341 0 0 1 5.147 1.149V62.2a11.289 11.289 0 0 0-5.18-1.454c-2.017 0-3.1.7-3.1 1.952 0 1.119.767 1.817 3.711 2.526 3.551.861 5.34 2.181 5.34 4.958-.005 2.63-1.735 4.644-6.017 4.644Zm20.6-3.2a5.632 5.632 0 0 1-5.405 3.2c-4.223 0-6.332-3.613-6.332-8.316 0-4.508 2.207-8.313 6.652-8.313a5.249 5.249 0 0 1 5.089 3.133v-2.813h2.686v14.539c0 4.7-2.206 7.87-7.931 7.87a16.188 16.188 0 0 1-5.692-.862v-2.69a17.577 17.577 0 0 0 5.561.967c4 0 5.372-2.141 5.372-5.118Zm-4.67.639c2.464 0 4.67-1.566 4.67-5.114v-1.277c0-3.552-2.013-5.118-4.361-5.118-3.1 0-4.7 2.046-4.7 5.754.006 3.834 1.54 5.757 4.386 5.757Zm19.159 2.559c-5.979 0-8.6-3.453-8.6-8.36 0-4.831 2.686-8.284 7.55-8.284 4.925 0 6.906 3.421 6.906 8.284v1.261h-11.68c.385 2.719 2.141 4.478 5.917 4.478a14.14 14.14 0 0 0 4.86-.865v2.545a11.676 11.676 0 0 1-4.958.943Zm-5.852-9.45h8.923c-.159-2.977-1.5-4.671-4.252-4.671-2.912-.015-4.366 1.872-4.671 4.656Zm28.563 9.13h-2.752v-9.656c0-2.878-1.149-4.158-3.773-4.158-2.544 0-4.318 1.694-4.318 4.925v8.891h-2.752V58.513h2.752v2.621a5.609 5.609 0 0 1 5.052-2.941c3.679 0 5.791 2.544 5.791 6.939Zm5.248-22.132a1.8 1.8 0 0 1 1.916 1.919 1.919 1.919 0 0 1-3.838 0 1.818 1.818 0 0 1 1.709-1.92 1.682 1.682 0 0 1 .208.003Zm-1.41 6.143h2.752V74.51h-2.752Zm15.194 16.309c-5.979 0-8.6-3.453-8.6-8.36 0-4.831 2.686-8.284 7.55-8.284 4.925 0 6.906 3.421 6.906 8.284v1.261h-11.681c.382 2.719 2.141 4.478 5.918 4.478a14.14 14.14 0 0 0 4.86-.865v2.545a11.685 11.685 0 0 1-4.958.943Zm-5.852-9.45h8.923c-.16-2.977-1.5-4.671-4.252-4.671-2.912-.015-4.384 1.872-4.671 4.656Z" fill="#253858"/>
</svg>
