<svg xmlns="http://www.w3.org/2000/svg" width="200" height="128">
    <path d="M115.064 81.751H84.716a5.472 5.472 0 0 1-4.411-2.551L65.131 52.922a5.473 5.473 0 0 1 0-5.093l15.174-26.282A5.474 5.474 0 0 1 84.716 19h30.348a5.471 5.471 0 0 1 4.411 2.547l15.175 26.282a5.479 5.479 0 0 1 0 5.093L119.475 79.2a5.469 5.469 0 0 1-4.411 2.547" fill="#10181f"/>
    <path d="M84.716 21.621a2.91 2.91 0 0 0-2.141 1.236L67.4 49.139a2.915 2.915 0 0 0 0 2.473l15.175 26.282a2.914 2.914 0 0 0 2.141 1.237h30.348a2.918 2.918 0 0 0 2.142-1.237l15.174-26.282a2.922 2.922 0 0 0 0-2.473l-15.174-26.282a2.914 2.914 0 0 0-2.142-1.236H84.716" fill="#fff"/>
    <path d="M110.318 66.449a2.308 2.308 0 0 1-1.8 1.041H91.264a2.308 2.308 0 0 1-1.8-1.041l-8.629-14.941a2.311 2.311 0 0 1 0-2.081l8.627-14.942a2.307 2.307 0 0 1 1.8-1.04h17.253a2.307 2.307 0 0 1 1.8 1.04l8.627 14.942a2.311 2.311 0 0 1 0 2.081l-8.627 14.941" fill="#69a9e6"/>
    <path d="M104.53 57.559a1.048 1.048 0 0 1-.818.473h-7.643a1.048 1.048 0 0 1-.819-.473l-3.822-6.619a1.051 1.051 0 0 1 0-.946l3.822-6.619a1.047 1.047 0 0 1 .819-.472h7.643a1.047 1.047 0 0 1 .818.472l3.822 6.619a1.051 1.051 0 0 1 0 .946l-3.822 6.619" fill="#10181f"/>
    <path d="M114.014 40.885l-3.7-6.4a2.307 2.307 0 0 0-1.8-1.04h-6.595l.147-.253a2.285 2.285 0 0 1 1.785-1.031h5.813a2.287 2.287 0 0 1 1.785 1.031l2.907 5.034a2.288 2.288 0 0 1 0 2.061l-.345.6" fill="#fff"/>
    <path d="M109.667 46.352h-3.417l-1.72-2.977a1.047 1.047 0 0 0-.818-.472h-3.04l-1.51-2.616a2.288 2.288 0 0 1 0-2.061l2.76-4.781h6.595a2.307 2.307 0 0 1 1.8 1.04l3.7 6.4-2.562 4.436a2.287 2.287 0 0 1-1.785 1.031" fill="#cbe1f7"/>
    <path d="M106.25 46.352h-2.4a2.285 2.285 0 0 1-1.785-1.031l-1.4-2.418h3.04a1.047 1.047 0 0 1 .818.472l1.72 2.977" fill="#a6a8a7"/>
    <path d="M88.587 48.526h-2.3a.42.42 0 0 1-.327-.19l-1.142-1.986a.419.419 0 0 1 0-.378l1.147-1.987a.419.419 0 0 1 .327-.189h2.3a.42.42 0 0 1 .327.189l1.147 1.987a.419.419 0 0 1 0 .378l-1.147 1.986a.421.421 0 0 1-.327.19" fill="#cbe1f7"/>
    <g fill="#10181f">
        <path d="M55.254 103.59h-6.687a3.941 3.941 0 0 1-2.985-1.159 4.3 4.3 0 0 1-1.112-3.109V86.048a4.319 4.319 0 0 1 1.13-3.123 3.93 3.93 0 0 1 2.971-1.174h6.687a3.93 3.93 0 0 1 2.971 1.174 4.323 4.323 0 0 1 1.126 3.123v13.274a4.3 4.3 0 0 1-1.112 3.109 3.944 3.944 0 0 1-2.989 1.159zm-6.007-18.451q-1.32 0-1.32 1.407V98.8a1.414 1.414 0 0 0 .351 1.04 1.359 1.359 0 0 0 .969.366h5.3q1.349 0 1.349-1.436V86.575q0-1.436-1.349-1.436zM69.207 87.852h1.3a3.858 3.858 0 0 1 4.045 4.033v7.7a3.813 3.813 0 0 1-4.016 4.005h-1.329a5.076 5.076 0 0 1-3.242-1.39l-.888-.752V109h-3.316V87.964h3.316v2l.888-.73a5.182 5.182 0 0 1 3.242-1.382zm2.025 11.392V92.2a1.514 1.514 0 0 0-.351-1.029 1.259 1.259 0 0 0-.942-.38h-1.012a5.5 5.5 0 0 0-2.965.8l-.885.549v7.16l.885.55a5.505 5.505 0 0 0 2.965.8h1.012a1.26 1.26 0 0 0 .955-.366 1.518 1.518 0 0 0 .338-1.04zM84.673 92.658v-.764a1.091 1.091 0 0 0-1.206-1.246h-2.816a1.08 1.08 0 0 0-1.206 1.237v.838q0 .878 1.15 1.037l4.371.712q3.372.549 3.388 3.4v1.8a3.715 3.715 0 0 1-3.929 3.944h-4.549a3.885 3.885 0 0 1-2.876-1.08 3.815 3.815 0 0 1-1.085-2.824v-1.124h3.316v.935q0 1.285 1.2 1.3h3.4q1.2 0 1.2-1.3V98.44q0-.952-1.18-1.121l-4.351-.734q-3.381-.576-3.366-3.356v-1.446a3.78 3.78 0 0 1 1.086-2.836 3.881 3.881 0 0 1 2.863-1.095h3.991a3.762 3.762 0 0 1 3.92 3.934v.872zM110.943 91.941v11.593h-3.316V92.225a1.461 1.461 0 0 0-.337-1.028 1.305 1.305 0 0 0-.981-.38h-.252a5.509 5.509 0 0 0-2.929.8l-.925.549v11.337h-3.317V92.2a1.489 1.489 0 0 0-.351-1.028 1.155 1.155 0 0 0-.941-.38h-.267a5.506 5.506 0 0 0-2.966.8l-.885.55v11.365H90.16V87.964h3.316v2.017l.89-.737a5.166 5.166 0 0 1 3.246-1.392h.579a4.234 4.234 0 0 1 2.33.64 3.36 3.36 0 0 1 1.4 1.782l1.207-1.03a5.07 5.07 0 0 1 3.214-1.392l.576.056a3.851 3.851 0 0 1 4.028 4.033zM116.988 87.852h3.859a4.037 4.037 0 0 1 4.127 4.117v11.537h-3.317v-2.013l-.9.736a5.01 5.01 0 0 1-3.11 1.361h-1.3a3.95 3.95 0 0 1-2.9-1.1 3.838 3.838 0 0 1-1.112-2.861v-1.441a3.893 3.893 0 0 1 1.1-2.9 4 4 0 0 1 2.945-1.088h.718a28.918 28.918 0 0 1 4.588.408v-2.6a1.408 1.408 0 0 0-.352-.991 1.142 1.142 0 0 0-.913-.368h-2.937a1.3 1.3 0 0 0-.955.385 1.372 1.372 0 0 0-.352.985v.5h-3.316v-.548a4.037 4.037 0 0 1 4.127-4.117zm-1.331 11.4a1.578 1.578 0 0 0 .337 1.04 1.226 1.226 0 0 0 .981.365h.939a5.525 5.525 0 0 0 2.846-.8l.9-.548v-2.858l-4.71-.027a1.211 1.211 0 0 0-.953.393 1.333 1.333 0 0 0-.337.955zM132.74 103.647h-3.316l.056-20.868h3.2zM141.148 86.281h-3.541V82.95h3.541zm-.113 1.683v15.542h-3.316V87.964zM143.066 99.655v-7.714a3.858 3.858 0 0 1 4.042-4.033h4.392a3.951 3.951 0 0 1 2.915 1.124 3.884 3.884 0 0 1 1.113 2.909v1.489h-3.316v-1.377a1.412 1.412 0 0 0-.352-.961 1.123 1.123 0 0 0-.916-.388h-3.268a1.345 1.345 0 0 0-.958.352 1.273 1.273 0 0 0-.338.941v7.42a1.292 1.292 0 0 0 .352.955 1.233 1.233 0 0 0 .944.337h3.268a1.123 1.123 0 0 0 .93-.379 1.4 1.4 0 0 0 .338-.942V98.04h3.316v1.5a4.009 4.009 0 0 1-1.084 2.895 4.085 4.085 0 0 1-2.916 1.15l-4.45.057a3.818 3.818 0 0 1-2.887-1.1 3.909 3.909 0 0 1-1.125-2.887z"/>
        <path d="M136.033 87.852h-3.293v-5.073h-3.292v5.073h-2.966v2.847h2.966v12.948h3.292V90.699h3.293v-2.847z"/>
    </g>
</svg>
