<svg xmlns="http://www.w3.org/2000/svg" viewBox="-21.22 -21.22 1103.44 1103.44">
	<defs>
		<style>
			.cls-2,.cls-6{fill-rule:evenodd}.cls-2,.cls-3{fill:#091570}.cls-6{fill:#d42d57}
		</style>
	</defs>
	<path fill="#f54773" fill-rule="evenodd" d="M532.377 533.89c-.391.003 2.295.238 7.388.31l4.267 161.068a45.926 45.926 0 1 0 91.821-2.396l-4.277-161.65-.009-.082-.29-11.09a247.25 247.25 0 0 0 24.128-9.335c4.691 53.472 6.847 108.547 4.174 133.655a46.023 46.023 0 1 0 91.523 9.795c9.86-92.556-25.7-169.59 7.168-247.678 20.601-48.946 33.923-101.76 33.92-155.084a216.554 216.554 0 0 0-23.709-98.45c-44.827-88.22-140.709-137.917-237.85-137.917-97.143 0-193.024 49.703-237.846 137.923a216.55 216.55 0 0 0-23.71 98.453c0 53.327 13.328 106.146 33.932 155.095 32.854 78.027-2.705 155.139 7.157 247.661a46.023 46.023 0 0 0 91.523-9.792c-2.675-25.136-.508-80.292 4.191-133.818a247.318 247.318 0 0 0 24.12 9.313l-.296 11.27-.006.08-4.28 161.65a45.926 45.926 0 1 0 91.821 2.397l4.267-161.048c6.919-.02 10.873-.33 10.873-.33z"/>
	<path d="m532.377 533.89-.036.003.036-.002zm-.036.003c-.031.028 2.63.238 7.424.308l4.267 161.067a45.926 45.926 0 1 0 91.821-2.396l-4.576-172.823a247.25 247.25 0 0 0 24.128-9.334c4.691 53.472 6.847 108.547 4.174 133.655a46.023 46.023 0 1 0 91.523 9.795c9.86-92.556-25.7-169.59 7.168-247.678 20.601-48.946 33.923-101.76 33.92-155.084a216.554 216.554 0 0 0-23.709-98.45c-44.827-88.22-140.709-137.917-237.85-137.917-97.143 0-193.024 49.703-237.846 137.923a216.55 216.55 0 0 0-23.71 98.453c0 53.327 13.328 106.146 33.932 155.095 32.854 78.027-2.705 155.139 7.157 247.661a46.023 46.023 0 0 0 91.523-9.792c-2.675-25.136-.508-80.292 4.191-133.818a247.318 247.318 0 0 0 24.12 9.313l-4.582 173a45.926 45.926 0 1 0 91.821 2.397l4.267-161.048c6.53-.02 10.42-.296 10.837-.327zm15.648 204.357a60.727 60.727 0 0 1-17.354-30.26 60.877 60.877 0 0 1-59.429 46.994l-1.077.039-.006-.053-.343-.009a60.864 60.864 0 0 1-59.365-61.003l-.038-1.08.055-.006.447-17.044a61.136 61.136 0 0 1-47.262 33.982 15.23 15.23 0 0 1-2.357.251 61.035 61.035 0 0 1-65.875-53.098 14.852 14.852 0 0 1-.25-2.214c-4-38.712-.446-74.283 2.955-108.388 4.705-47.12 9.114-91.283-8.888-134.038a471.317 471.317 0 0 1-26.286-81.739 370.742 370.742 0 0 1-8.88-79.172 230.18 230.18 0 0 1 6.456-53.958 233.86 233.86 0 0 1 18.901-51.25c23.238-45.735 59.305-81.7 102.08-106.503C426.2 13.766 478.277 0 530.633 0c52.35 0 104.426 13.763 149.158 39.7 42.772 24.8 78.843 60.758 102.086 106.499a233.985 233.985 0 0 1 18.898 51.252 230.205 230.205 0 0 1 6.456 53.952 370.68 370.68 0 0 1-8.877 79.164 470.209 470.209 0 0 1-26.278 81.736c-18.01 42.792-13.601 86.95-8.9 134.066 3.433 34.39 7.015 70.27 2.85 109.382a61.047 61.047 0 0 1-115.635 20.08l.408 15.346a16.254 16.254 0 0 1 .095 1.695l-.053.006a60.862 60.862 0 0 1-57.784 62.025 15.376 15.376 0 0 1-1.907.12l-.006-.053a60.733 60.733 0 0 1-43.154-16.72z" class="cls-2"/>
	<path d="M485.827 399.542h89.615a8.245 8.245 0 0 1 8.243 8.246 52.873 52.873 0 0 1-15.575 37.442l-.034.03a52.788 52.788 0 0 1-74.886 0l-.03-.03a52.873 52.873 0 0 1-15.576-37.442 8.245 8.245 0 0 1 8.243-8.246z" class="cls-3"/>
	<path fill="#fff" fill-rule="evenodd" d="M530.632 377.52c77.938-.003 141.552-63.611 141.552-141.55-.003-77.935-63.617-141.546-141.555-141.543-77.936 0-141.547 63.613-141.547 141.55.003 77.934 63.614 141.543 141.55 141.543z"/>
	<path d="M530.635 290.83a54.857 54.857 0 1 0-54.858-54.857 54.967 54.967 0 0 0 54.858 54.858zm-11.12-39.315a26.247 26.247 0 1 0-26.252-26.25 26.296 26.296 0 0 0 26.253 26.25z" class="cls-2"/>
	<path fill="#e6e6e6" fill-rule="evenodd" d="M610.874 119.501a140.634 140.634 0 0 0-80.248-25.074c-77.938.003-141.547 63.613-141.547 141.55.003 64.286 43.287 118.816 102.187 135.947a141.587 141.587 0 0 1-61.302-116.466c0-77.936 63.609-141.55 141.547-141.552a140.817 140.817 0 0 1 39.363 5.595z"/>
	<path d="M663.556 47.851a284.667 284.667 0 0 0-132.924-32.815c-97.144 0-193.025 49.703-237.847 137.923a216.55 216.55 0 0 0-23.71 98.453c0 53.327 13.328 106.146 33.932 155.095 32.854 78.027-2.705 155.139 7.157 247.661a46.021 46.021 0 0 0 50.658 40.863l.424-.05a45.804 45.804 0 0 1-8.974-22.766c-9.863-92.523 25.697-169.634-7.157-247.662-20.604-48.952-33.932-101.768-33.932-155.095a216.552 216.552 0 0 1 23.71-98.453c44.821-88.22 140.703-137.922 237.846-137.922a287.117 287.117 0 0 1 90.817 14.768z" class="cls-6"/>
	<path d="M530.635 370a134.337 134.337 0 1 0-94.684-39.343A133.632 133.632 0 0 0 530.635 370zm105.319-28.713a148.634 148.634 0 1 1 43.75-105.317 148.62 148.62 0 0 1-43.75 105.317z" class="cls-3"/>
	<path d="M530.635 444.35a36.277 36.277 0 0 0 16.284-3.847 63.493 63.493 0 0 0-16.664-24.472h-35.242a36.685 36.685 0 0 0 35.622 28.319z" class="cls-6"/>
	<path d="M37.838 933.162q0 20.188 6.606 30.53 6.668 10.342 21.6 10.346 14.826 0 21.349-10.261 6.48-10.279 6.48-30.615c0-13.456-2.16-23.55-6.561-30.28q-6.547-10.094-21.518-10.093-14.827 0-21.391 10.052c-4.404 6.687-6.565 16.781-6.565 30.321zm94 .084q0 33.21-17.489 51.964-17.503 18.752-48.806 18.734-19.56 0-34.557-8.597a56.907 56.907 0 0 1-22.97-24.631Q-.02 954.636 0 933.246q0-33.394 17.36-51.878 17.453-18.504 48.931-18.485 19.565 0 34.56 8.517a56.903 56.903 0 0 1 22.97 24.463q8.037 15.954 8.017 37.383zm105.461 70.698q-23.987 0-37.634-17.404h-1.91c1.29 11.336 1.91 17.9 1.91 19.688v55.036h-37.09V865.377h30.157l5.232 17.692h1.7c8.727-13.457 21.56-20.186 38.632-20.186q24.05 0 37.716 18.608 13.646 18.63 13.623 51.755 0 21.746-6.397 37.84-6.354 16.076-18.192 24.467-11.777 8.41-27.747 8.39zm-10.965-111.401c-9.14 0-15.868 2.823-20.062 8.43q-6.354 8.473-6.607 27.953v3.99c0 14.62 2.203 25.047 6.523 31.403 4.364 6.313 11.216 9.468 20.643 9.468q24.988 0 24.966-41.122 0-20.062-6.149-30.073c-4.113-6.684-10.51-10.05-19.314-10.05zm188.826 68.534c0 13.955-4.82 24.591-14.54 31.899q-14.517 10.97-43.487 10.968a137.24 137.24 0 0 1-25.296-1.997 96.77 96.77 0 0 1-19.604-5.939v-30.654a130.538 130.538 0 0 0 23.302 8.143 93.783 93.783 0 0 0 22.802 3.28q20.25 0 20.23-11.71a9.736 9.736 0 0 0-2.7-7.104q-2.68-2.743-9.223-6.232c-4.404-2.284-10.217-4.984-17.527-8.1q-15.703-6.539-23.054-12.17a34.54 34.54 0 0 1-10.717-12.835c-2.242-4.862-3.322-10.8-3.322-17.86 0-12.049 4.652-21.394 14.04-27.996q14.018-9.91 39.831-9.887a113.516 113.516 0 0 1 47.81 10.675l-11.172 26.708q-10.22-4.364-19.108-7.184a59.661 59.661 0 0 0-18.108-2.781c-10.968 0-16.449 2.945-16.449 8.885 0 3.323 1.784 6.232 5.316 8.64q5.295 3.676 23.177 10.841c10.59 4.32 18.4 8.35 23.343 12.088a35.956 35.956 0 0 1 10.968 12.876 40.345 40.345 0 0 1 3.488 17.446zm86.27 13.207c6.523 0 14.291-1.41 23.385-4.275v27.703q-13.897 6.232-34.06 6.232-22.303 0-32.44-11.256-10.153-11.279-10.175-33.773v-65.624h-17.737v-15.745l20.436-12.42 10.717-28.703h23.715v28.954h38.09v27.914h-38.09v65.544c0 5.274 1.497 9.18 4.445 11.671 2.949 2.533 6.853 3.778 11.714 3.778zm126.767-111.4a61.732 61.732 0 0 1 12.546 1.08l-2.784 34.806a43.798 43.798 0 0 0-10.966-1.204q-17.758 0-27.663 9.136-9.905 9.102-9.926 25.55v69.198H552.31V865.377h28.118l5.445 22.927h1.826a51.734 51.734 0 0 1 17.114-18.443 42.038 42.038 0 0 1 23.383-6.978zm123.698 138.566-7.184-18.482h-.955q-9.408 11.837-19.314 16.405-9.91 4.552-25.837 4.57c-13.085 0-23.344-3.738-30.864-11.213q-11.275-11.216-11.255-31.902 0-21.68 15.162-31.983 15.14-10.283 45.69-11.384l23.592-.746v-5.98q0-20.687-21.185-20.686c-10.84 0-23.634 3.281-38.296 9.843l-12.295-25.005q23.489-12.276 52.087-12.255 27.351 0 41.955 11.923 14.638 11.903 14.62 36.26v90.635zm-10.965-63.052-14.33.5c-10.798.33-18.86 2.242-24.134 5.855-5.274 3.571-7.89 9.013-7.89 16.324q0 15.702 18.026 15.7 12.896 0 20.602-7.435c5.152-4.943 7.726-11.546 7.726-19.73v-11.214zm130.302 65.546q-63.488 0-63.469-69.74 0-34.706 17.237-53.003 17.323-18.32 49.513-18.318 23.614 0 42.367 9.223l-10.965 28.702c-5.858-2.329-11.256-4.28-16.282-5.774a52.598 52.598 0 0 0-15.078-2.245q-28.972 0-28.954 41.121 0 39.875 28.954 39.877a66.069 66.069 0 0 0 19.814-2.867 72.522 72.522 0 0 0 18.233-8.93v31.82a59.138 59.138 0 0 1-18.194 7.934c-6.104 1.452-13.83 2.2-23.176 2.2zM1000.534 889.3c-7.89 0-14.04 2.493-18.527 7.478-4.44 4.981-7.016 12.043-7.681 21.185h52.126c-.164-9.142-2.53-16.204-7.184-21.185-4.61-4.985-10.882-7.478-18.734-7.478zm5.236 114.643q-32.9 0-51.384-18.153-18.504-18.127-18.482-51.339 0-34.206 17.072-52.877 17.13-18.69 47.31-18.692 28.85 0 44.9 16.408c10.717 10.965 16.078 26.043 16.078 45.357v17.989h-87.768q.62 15.823 9.346 24.753 8.783 8.913 24.631 8.89a102.49 102.49 0 0 0 23.26-2.574 117.211 117.211 0 0 0 22.885-8.142v28.744a87.87 87.87 0 0 1-20.85 7.265 130.75 130.75 0 0 1-26.998 2.37z" class="cls-3"/>
</svg>
