<svg xmlns="http://www.w3.org/2000/svg" width="200" height="128">
    <g fill="#f80000">
        <path d="M86.6 67.02h10.2l-5.391-8.672-9.893 15.68h-4.5l12.028-18.835a2.843 2.843 0 0 1 2.362-1.221 2.79 2.79 0 0 1 2.315 1.189L105.8 74.028h-4.5l-2.124-3.5H88.854zm46.771 3.5V54.162h-3.821v17.963a1.871 1.871 0 0 0 .555 1.332 1.95 1.95 0 0 0 1.4.571h17.424l2.251-3.5zm-63.21-2.929a6.715 6.715 0 1 0 0-13.429H53.446v19.866h3.82V57.666h12.642a3.219 3.219 0 0 1 0 6.437l-10.772-.016 11.406 9.941h5.549l-7.673-6.437zm-40.227 6.437a9.933 9.933 0 1 1 0-19.866h11.547a9.933 9.933 0 1 1 0 19.866zm11.29-3.5a6.429 6.429 0 1 0 0-12.858H30.19a6.429 6.429 0 1 0 0 12.858zm72.553 3.5a9.933 9.933 0 1 1 0-19.866h13.714l-2.236 3.5H114.03a6.429 6.429 0 1 0 0 12.858h13.778l-2.252 3.5zm46.722-3.5a6.42 6.42 0 0 1-6.183-4.677h16.33l2.251-3.5h-18.581a6.439 6.439 0 0 1 6.183-4.677h11.209l2.267-3.5h-13.729a9.933 9.933 0 1 0 0 19.866h11.779l2.252-3.5H160.5M176.021 56.271a1.752 1.752 0 1 1 1.744 1.76 1.739 1.739 0 0 1-1.744-1.76zm1.744 2.251a2.236 2.236 0 1 0-2.22-2.235 2.232 2.232 0 0 0 2.22 2.235zm-.207-3.567a1.623 1.623 0 0 1 .651.079.7.7 0 0 1 .491.7.626.626 0 0 1-.032.206.644.644 0 0 1-.3.428c-.032.016-.048.032-.111.064l.571 1.03h-.555l-.507-.951h-.349v.951h-.492v-2.507zm.175 1.142c.158-.016.317-.016.412-.159a.333.333 0 0 0 .064-.222.355.355 0 0 0-.191-.3 1.137 1.137 0 0 0-.46-.048h-.142v.73h.317"/>
    </g>
</svg>
