<svg xmlns="http://www.w3.org/2000/svg" width="200" height="128">
	<path d="M176.38 72.58a3.87 3.87 0 0 0-2.28.64c-1.3.94-1.63 2.35-1.63 4 0 2.73 1.23 4.41 3.86 4.41a3.52 3.52 0 0 0 2.86-1.15 3 3 0 0 0 .72-1.8h-1.56a1.83 1.83 0 0 1-2 1.78c-1.7 0-2.41-1.32-2.39-3.1h6c.04-1.36.15-4.78-3.58-4.78zm-2.3 3.69a2.27 2.27 0 0 1 2.27-2.54c1.92 0 2.07 1.72 2.05 2.54zm-7.54-1.71c0-.59 0-1.19-.09-1.76H168v1.67a2.28 2.28 0 0 1 2-1.7 4.55 4.55 0 0 1 1.08 0v1.58a.83.83 0 0 0-.3-.07 2.76 2.76 0 0 0-.44 0c-1.85 0-2.27 1.13-2.27 2.61v4.58h-1.57zm-8.71-1.76v5.55c0 .84.18 1.91 1.77 1.91a2.23 2.23 0 0 0 2-1 2.88 2.88 0 0 0 .35-1.62V72.8h1.61v8.61h-1.63v-1.47a2.6 2.6 0 0 1-2.65 1.56 2.71 2.71 0 0 1-3-2.92V72.8zm-8.64 0h1.47V71l1.55-.52v2.32h1.85V74h-1.85v5.16c0 .43 0 1.16 1.11 1.16a3.4 3.4 0 0 0 .74-.09v1.25a7.22 7.22 0 0 1-1.29.11c-1.42 0-2.11-.43-2.11-1.84V74h-1.47zm-3 2.8a1.68 1.68 0 0 0-1.66-1.8c-2.15 0-2.15 2.59-2.15 3.24 0 1.77.41 3.42 2.07 3.42a1.78 1.78 0 0 0 1.81-1.87h1.57a3.19 3.19 0 0 1-3.36 3.09 3.67 3.67 0 0 1-2.74-1.12 4.76 4.76 0 0 1-1-3.3c0-3.58 2.13-4.65 3.78-4.65a3.3 3.3 0 0 1 2.56 1.07 3 3 0 0 1 .69 1.92zm-13.42-2.8v5.55c0 .84.18 1.91 1.77 1.91a2.24 2.24 0 0 0 2-1 2.88 2.88 0 0 0 .35-1.62V72.8h1.6v7c0 .17 0 1.14.05 1.61h-1.62v-1.47a2.62 2.62 0 0 1-2.66 1.56 2.71 2.71 0 0 1-3-2.92V72.8zm-8.17 1.76c0-.59 0-1.19-.08-1.76h1.57v1.67a2.28 2.28 0 0 1 2-1.7 4.53 4.53 0 0 1 1.08 0v1.58a.94.94 0 0 0-.3-.07 3 3 0 0 0-.45 0c-1.84 0-2.27 1.13-2.27 2.61v4.58h-1.55zm-7.41-1.79h1.48V71l1.53-.52v2.32h1.86V74h-1.86v5.16c0 .43 0 1.16 1.11 1.16a3.52 3.52 0 0 0 .75-.09v1.25a7.45 7.45 0 0 1-1.3.11c-1.42 0-2.09-.43-2.09-1.84V74h-1.48zm-6.78 6.1c0 .65.31 1.56 1.82 1.56a1.66 1.66 0 0 0 1.46-.55 1.42 1.42 0 0 0 .26-.81c0-.84-.57-1-1.82-1.29-1.74-.41-3.2-.77-3.2-2.57 0-1.58 1.33-2.61 3.25-2.61 1 0 2.51.31 3 1.34a2.76 2.76 0 0 1 .22 1.25h-1.59c0-1.3-1-1.41-1.61-1.41-.23 0-1.69 0-1.69 1.24 0 .79.74 1 1.18 1.1 2.3.57 2.8.7 3.3 1.18a2.2 2.2 0 0 1 .62 1.6 2.63 2.63 0 0 1-1.12 2.18 4.5 4.5 0 0 1-2.47.59c-1.7 0-3.27-.72-3.25-2.8zm-4.1.39.07-4.12a2.67 2.67 0 0 0-.28-1.32c-.45-.88-1.74-1.27-2.95-1.27a3.64 3.64 0 0 0-2.69.93 2.79 2.79 0 0 0-.58 1.63h1.56c0-.35.1-1.46 1.67-1.46a1.88 1.88 0 0 1 1.45.56c.3.38.3.84.3 1.91-.49 0-.73-.05-1.13-.05a6.37 6.37 0 0 0-2.89.56 2.88 2.88 0 0 0-1.46 2.53c0 1.42 1 2.54 2.94 2.54a2.69 2.69 0 0 0 2.57-1.56 4.58 4.58 0 0 0 .15 1.28h1.41a20.15 20.15 0 0 1-.14-2.16zm-1.85.24a2 2 0 0 1-1.78.93 1.51 1.51 0 0 1-1.68-1.49c0-1.76 2.37-1.76 3-1.76a7.71 7.71 0 0 1 .9 0 4.21 4.21 0 0 1-.44 2.32zm-11.08-4.94c0-.59 0-1.19-.08-1.76h1.58v1.67a2.26 2.26 0 0 1 2-1.7 4.53 4.53 0 0 1 1.08 0v1.58a.94.94 0 0 0-.3-.07 3 3 0 0 0-.45 0c-1.84 0-2.27 1.13-2.27 2.61v4.58h-1.56zm-2.07-4.33h-.91c-1.26 0-1.26.65-1.26 1.25v1.32h1.94V74h-1.94v7.45H87.6V74H86v-1.2h1.6v-1a3.48 3.48 0 0 1 .4-2.03 2.3 2.3 0 0 1 2.09-1 9 9 0 0 1 1.27.12v1.29zM76.78 73.8v-1h1.55v1.4A2.72 2.72 0 0 1 81 72.63a2.82 2.82 0 0 1 3 2.94v5.85h-1.56V76a2 2 0 0 0-.44-1.53 2.08 2.08 0 0 0-1.48-.58c-1.12 0-2.17.84-2.17 2.57v5h-1.57zM72 81.42h1.66V69H72v12.4zm-8.07-1.37V69h-1.61v5a2.65 2.65 0 0 0-2.58-1.46c-2 0-3.76 1.43-3.76 4.71 0 3.78 2.46 4.38 3.58 4.38a3.69 3.69 0 0 0 2-.64 2.56 2.56 0 0 0 .75-.91v1.38H64c-.08-.46-.12-1.22-.12-1.41zm-4 .41c-1.91 0-2.29-1.77-2.29-3.29 0-.59 0-3.46 2.29-3.46a2.25 2.25 0 0 1 1.83.88 3.83 3.83 0 0 1 .62 2.4c-.01.68-.01 3.47-2.46 3.47zm-12-7.66v5.55c0 .84.18 1.91 1.77 1.91a2.24 2.24 0 0 0 2-1 2.88 2.88 0 0 0 .3-1.58V72.8h1.6v7c0 .17 0 1.14.05 1.61h-1.6L52 80a2.62 2.62 0 0 1-2.66 1.56 2.71 2.71 0 0 1-3-2.92V72.8zm-7.86-.22c-3.27 0-4.23 2.51-4.23 4.64 0 2.52 1.35 4.5 4.1 4.5s4.21-2.1 4.21-4.62c.01-1.8-.74-4.52-4.07-4.52zM40 80.51c-1.77 0-2.5-1.63-2.5-3.39 0-2.7 1.61-3.35 2.6-3.35 1.46 0 2.42 1.13 2.42 3.28-.02 2.59-1.36 3.46-2.52 3.46zm-8.09.92h1.56V69h-1.58v12.43zm-4.12-9.05a2.32 2.32 0 0 0-2.59-2.15c-2.89 0-3.4 3.06-3.4 5.12 0 2.33.65 4.86 3.38 4.86a2.54 2.54 0 0 0 1.94-.74 2.51 2.51 0 0 0 .58-1.31h1.83c-.25 2.44-2.42 3.45-4.48 3.45-4.21 0-5-3.84-5-6.25 0-2.61 1-6.5 5.24-6.5 1.69 0 4.07.7 4.29 3.52z" fill-rule="evenodd" fill="#231f20"/>
	<path d="M122.53 58.61a4.72 4.72 0 0 1-4.53-3.49h11.92l1.65-2.6H118a4.71 4.71 0 0 1 4.53-3.52h8.17l1.64-2.61h-10a7.39 7.39 0 0 0 0 14.78h8.6l1.64-2.6zm-34.1 2.6H97l1.63-2.6h-10a4.79 4.79 0 0 1 0-9.57h8.17l1.65-2.61h-10a7.39 7.39 0 0 0 0 14.78M35.68 46.43h-8.43a7.39 7.39 0 0 0 0 14.78h8.43a7.39 7.39 0 0 0 0-14.78zm-.19 12.18h-8a4.79 4.79 0 0 1 0-9.57h8.05a4.79 4.79 0 0 1 0 9.57zm21.11-2.19a5 5 0 0 0 0-10H44.4v14.79h2.79V49h9.23a2.39 2.39 0 0 1 0 4.78h-7.86l8.32 7.39h4l-5.59-4.79h1.31m46.12 2.18V46.43h-2.79V59.8a1.36 1.36 0 0 0 .41 1 1.39 1.39 0 0 0 1 .44h12.7l1.65-2.61h-13M68.6 56H76l-3.93-6.47-7.17 11.68h-3.3l8.78-14a2.07 2.07 0 0 1 3.42 0l8.81 14h-3.29l-1.55-2.61h-7.53L68.6 56m66.88-7.89h.08a.42.42 0 0 0 .21-.33.56.56 0 0 0 0-.15.54.54 0 0 0-.35-.52 1.48 1.48 0 0 0-.49 0h-.45v1.86h.36v-.72h.25l.37.72h.41zm-.09-.37c-.06.11-.18.12-.3.12h-.22v-.54h.13a.84.84 0 0 1 .35 0 .25.25 0 0 1 .14.23.17.17 0 0 1-.1.19zm-.26-1.4a1.65 1.65 0 0 0-1.64 1.66 1.63 1.63 0 1 0 1.64-1.67zm0 3a1.31 1.31 0 1 1 1.28-1.34 1.3 1.3 0 0 1-1.28 1.31z" fill="#e02726"/>
</svg>
