<?xml version="1.0" encoding="utf-8"?>
<!-- Generator: Adobe Illustrator 22.0.1, SVG Export Plug-In . SVG Version: 6.00 Build 0)  -->
<svg version="1.1" id="design" xmlns="http://www.w3.org/2000/svg" xmlns:xlink="http://www.w3.org/1999/xlink" x="0px" y="0px"
	 viewBox="0 0 1352.8 170" style="enable-background:new 0 0 1352.8 170;" xml:space="preserve">
<style type="text/css">
	.st0{fill:#ED1C24;}
</style>
<g>
	<path class="st0" d="M563,110h86.3l-45.5-73.5l-83.7,132.8H482L583.8,10.2C588.1,3.6,595.7,0,603.6,0c7.9,0,15.5,3.6,19.8,10.2
		l102.1,159.5h-38.2L669.5,140h-87.3L563,110L563,110z M958.4,139.7V1.3h-32.3v151.9c0,4.3,1.6,8.2,4.6,11.2
		c3.3,3.3,7.2,4.9,11.9,4.9h147.3l19.1-29.7H958.4L958.4,139.7z M424,115c31.3,0,56.7-25.4,56.7-56.7S455.3,1.6,424,1.6H282.7v168
		H315V31.3h106.7c15.2,0,27,12.2,27,27.3S436.5,86,421.7,86h-90.9l96.5,84h46.8l-64.6-55H424L424,115z M84,169.3
		c-46.5,0-84-37.6-84-84s37.6-84,84-84h97.5c46.5,0,84,37.6,84,84s-37.6,84-84,84H84L84,169.3z M179.6,139.7
		c30,0,54.4-24.4,54.4-54.4S209.5,31,179.6,31H86.3C56,31,31.6,55.3,31.6,85.3S56,139.7,86,139.7H179.6L179.6,139.7z M793,169.3
		c-46.5,0-84-37.6-84-84s37.6-84,84-84h116L889.9,31H795c-30,0-54.4,24.4-54.4,54.4s24.4,54.4,54.4,54.4h116.3l-19.1,29.7H793
		L793,169.3z M1188,139.7c-24.7,0-45.8-16.8-52.4-39.5h138l19.1-29.7h-157.2C1142.2,47.8,1163,31,1188,31h94.9L1302,1.3h-116
		c-46.5,0-84,37.6-84,84s37.6,84,84,84h99.8l19.1-29.7H1188L1188,139.7z"/>
	<path class="st0" d="M1319.1,19.1c0-8.2,6.6-14.8,14.8-14.8s14.8,6.6,14.8,14.8s-6.6,14.8-14.8,14.8S1319.1,27.3,1319.1,19.1
		L1319.1,19.1z M1334,38.2c10.5,0,18.8-8.6,18.8-18.8c0-10.5-8.6-18.8-18.8-18.8c-10.5,0-18.8,8.6-18.8,18.8S1323.4,38.2,1334,38.2
		L1334,38.2z M1332,7.9c3,0,4,0,5.6,0.7c3.6,1.3,4,4.6,4,5.9c0,0.3,0,1-0.3,1.6s-0.7,2.3-2.6,3.6c-0.3,0-0.3,0.3-1,0.3l4.9,8.9h-4.6
		l-4.3-8.2h-2.6v8.6h-4.3V7.9H1332L1332,7.9z M1333.6,17.8c1.3,0,2.6,0,3.6-1.3c0.3-0.7,0.3-1,0.3-2c0-1-0.7-2-1.6-2.6
		c-1-0.3-2-0.3-4-0.3h-1v5.9h2.6V17.8z"/>
</g>
</svg>
