<svg xmlns="http://www.w3.org/2000/svg" viewBox="-2.64 -2.64 137.28 22.41">
	<path fill="#231f20" d="M120.335 14.192a5.512 5.512 0 0 1-5.302-4.008h13.984l1.927-3h-15.91a5.503 5.503 0 0 1 5.301-4.007h9.601l1.92-3.008h-11.74c-4.695 0-8.505 3.81-8.505 8.515 0 4.7 3.81 8.504 8.505 8.504h10.099l1.92-2.996h-11.8m-40.018 2.996h10.098l1.912-2.996H80.54a5.51 5.51 0 0 1-5.516-5.508c0-3.049 2.46-5.507 5.516-5.507h9.594L92.069.169H80.317c-4.704 0-8.524 3.81-8.524 8.515 0 4.7 3.82 8.504 8.524 8.504m-62.139-2.996H8.73a5.509 5.509 0 0 1-5.503-5.508A5.5 5.5 0 0 1 8.73 3.177h9.448a5.5 5.5 0 0 1 5.512 5.507 5.509 5.509 0 0 1-5.512 5.508m-9.665 2.996h9.892a8.487 8.487 0 0 0 8.494-8.504C26.9 3.98 23.11.17 18.405.17H8.513C3.813.169 0 3.979 0 8.684c0 4.7 3.813 8.504 8.513 8.504m34.449-5.511A5.745 5.745 0 0 0 48.71 5.92 5.743 5.743 0 0 0 42.962.17H28.644v17.019h3.273V3.177h10.828a2.747 2.747 0 0 1 2.75 2.744 2.764 2.764 0 0 1-2.75 2.763l-9.228-.007 9.773 8.51h4.748l-6.564-5.51h1.488m54.134 2.505V.17h-3.279v15.39c0 .42.177.831.484 1.129.312.322.742.5 1.192.5h14.91l1.943-3.006h-15.25m-40.053-2.995h8.73L61.16 3.744l-8.465 13.444h-3.868L59.135 1.054a2.422 2.422 0 0 1 2.02-1.05c.808 0 1.55.384 1.99 1.022l10.339 16.162h-3.858l-1.817-3.006H58.97l-1.927-2.995"/>
</svg>
