<svg id="Layer_1" data-name="Layer 1" xmlns="http://www.w3.org/2000/svg" viewBox="0 0 180 68.03">
	<defs>
		<style>
			.cls-1{fill:#4035a7}.cls-2{fill:#837cc6}.cls-4{fill:#fcfcfd}
		</style>
	</defs>
	<path class="cls-1" d="M149.8 33.932a.494.494 0 0 1-.245-.142 3.823 3.823 0 0 0-2.163-2.183l-.024-.02c-.02-.998-.801-1.599-1.246-2.374-2.32-4.043-4.291-8.149-3.27-13.055.315-1.513 1.292-2.724 1.593-4.212l.036-.03a1.837 1.837 0 0 0 1.403-1.466l.433-.372c.755.052 1.245-.48 1.766-.868a49.482 49.482 0 0 1 5.424-3.353c4.534-2.545 9.129-3.27 14.146-1.232 1.912.777 3.641 1.928 5.623 2.515l.418.384a1.015 1.015 0 0 0 .039.356c2.162 4.115 2.942 8.225-.006 12.34-.06.083-.027.234-.037.354l-.4.4c-1.313.493-2.59.839-3.964.054a23.929 23.929 0 0 0-5.487-1.933c-1.098-.31-2.354-.763-3.39.306l-.076.074c-1.154 1.141-.024 1.866.583 2.514 2.84 3.028 6.823 4.246 10.265 6.327l1.093 1.085c1.109 2.336 2.445 4.553 3.448 6.95 1.672 3.996 2.35 7.897.514 12.116-.856 1.968-1.81 3.924-2.486 5.98l.004-.005a2.378 2.378 0 0 0-.62.332c-3.682 3.75-8.314 5.018-13.389 5.177a54.348 54.348 0 0 1-15.5-1.4l-.026-.028c.179-1.308-.696-2.272-1.1-3.392-.763-2.121-2.422-4.04-1.572-6.543a55.943 55.943 0 0 1 3.554-7.973c.607-1.155 1.093-1.438 2.369-.71 3.31 1.89 6.41 4.212 10.257 5.07 2.455.547 4.333-.012 5.558-1.98 1.016-1.628.552-3-1.302-3.517a19.74 19.74 0 0 1-3.371-1.34c-2.935-1.434-5.9-2.809-8.852-4.206Zm8.175 19.66c1.047 0 2.274.073 3.49-.012 4.4-.307 7.986-2.05 10.27-5.996a14.185 14.185 0 0 0 1.669-7.74c-.144-5.413-2.32-9.47-7.29-11.907-2.352-1.153-4.655-2.407-6.959-3.656a9.733 9.733 0 0 1-4.543-4.835c-1.337-3.184.407-6.477 3.783-6.845 3.105-.338 6.268-.41 9.193.897 1.303.583 1.67.122 2.176-.92 1.819-3.747 1.836-3.765-2.05-5.19-.228-.085-.44-.22-.67-.295-2.954-.958-5.906-2.165-9.054-.876a46.607 46.607 0 0 0-9.154 4.903 10.065 10.065 0 0 0 .102 16.619c2.42 1.682 5.212 2.607 7.825 3.896 2.887 1.425 5.99 2.48 8.036 5.208 2.168 2.891 2.098 6.83-.314 8.562a8.104 8.104 0 0 1-6.937 1.363 31.065 31.065 0 0 1-9.4-4.346c-1.017-.65-1.56-.672-2.014.613a33.164 33.164 0 0 1-2.286 5.358c-1.003 1.765-.138 2.433 1.285 2.962a29.538 29.538 0 0 0 12.842 2.238Zm-1.332 4.856c2.057-.168 3.7-.269 5.332-.454.534-.061 1.202-.293 1.318-.855.15-.73-.677-.718-1.102-.984a3.984 3.984 0 0 0-2.149-.3c-2.979-.074-5.94.093-8.92-.62-2.011-.482-3.945-1.21-5.967-1.62-.352-.071-.82-.54-1.056.154-.244.715 1.603 3.453 2.442 3.551 3.502.411 7.009.786 10.102 1.128Zm9.74-42.597c-.44.102-.966.22-1.49.348-.443.108-1.08.03-.98.765.08.595.59.717 1.097.728a7.88 7.88 0 0 1 1.928.426c.863.238 2.074 1.484 2.607.15.512-1.285-1.1-1.579-2.018-2.051a7.648 7.648 0 0 0-1.144-.366Z"/>
	<path class="cls-1" d="m104.316 58.31-.761.8c-1.985.907-3.957 1.845-5.96 2.71a3.973 3.973 0 0 1-3.706-.053 36.631 36.631 0 0 1-6.662-4.804 3.711 3.711 0 0 1-1.16-3.313 32.548 32.548 0 0 1 1.485-6.924c1.563-4.549 2.78-9.195 3.917-13.862 1.38-5.663 2.762-11.326 4.017-17.017.615-2.791 1.915-5.348 2.524-8.128l.03-.033c2.975-1.551 6.213-2.055 9.48-2.632 4.018-.71 7.977-2.284 11.819.489.033.024.116-.02.175-.031l.018.019a2.222 2.222 0 0 0 .063.708q5.684 12.744 11.398 25.474c2.148 4.765 4.812 9.275 6.953 14.048.75 1.669.097 2.517-1.27 2.919-4.121 1.21-7.755 3.451-11.623 5.194-1.967.887-3.883 2.836-6.4 1.287l-2.185-2.2c.057-.563-.33-.895-.663-1.247a8.513 8.513 0 0 1-2.209-5.293 53.754 53.754 0 0 0-1.728-8.196c-.197-.806-.39-1.823-1.59-1.58a17.222 17.222 0 0 0-2.962.922c-.642.257-1.189.765-.96 1.568.758 2.662.72 5.43 1.054 8.142.482 3.913 1.557 8.122-2.977 10.698-.077.044-.08.22-.117.335Zm-15.775-3.42c1.252 1.209 2.617.568 3.852.089a37.825 37.825 0 0 0 6.864-3.373c2.97-1.916 3.352-.929 2.559-5.196a9.213 9.213 0 0 1-.05-1.643q-.013-5.122-.018-10.244l.363-.363c2.443-.623 4.465-2.194 6.827-3.017 2.696-.939 2.945-.847 3.96 1.865 1.479 3.955 1.878 8.161 2.837 12.236.366 1.552 1.015 1.534 2.184 1.119 1.255-.445 2.548-.784 3.811-1.208a41.127 41.127 0 0 0 7.346-2.746c1.059-.596 1.502-1.077.837-2.424-1.913-3.88-3.612-7.866-5.39-11.812-3.08-6.833-6.174-13.66-9.22-20.507-.6-1.348-1.235-2.037-2.9-1.482-2.71.903-5.6 1.113-8.369 1.766-2.058.486-4.636.342-5.569 3.087a77.787 77.787 0 0 0-2.413 10.277c-1.08 5.553-2.645 10.982-3.952 16.476-1.248 5.244-2.71 10.437-4.064 15.656-.134.519-.305 1.111.444 1.373Zm45.204-8.648a2.487 2.487 0 0 0-3.102-1.869 181.54 181.54 0 0 0-4.648 1.996c-2.388 1.058-5.075 1.057-7.46 2.132-.58.261-1.168.496-1.213 1.195-.077 1.209 3.254 3.513 4.347 2.998q5.557-2.623 11.081-5.314c.472-.229 1.068-.407.995-1.138ZM95.67 59.865c.79-.027 5.984-2.583 7.312-3.52 1.426-1.007 1.31-1.97-.245-2.81a2.573 2.573 0 0 0-2.595.3 30.079 30.079 0 0 1-6.663 2.796c-.619.15-1.113.589-.73 1.167a5.13 5.13 0 0 0 2.921 2.067Z"/>
	<path class="cls-1" d="m9.036 56.19-.391-.392c-.879-2.389-2.573-4.343-3.455-6.757-1.753-4.8-3.319-9.546-3.324-14.802-.005-4.502.914-8.815 1.701-13.158.348-1.92.611-4.023 1.72-5.705C8.58 10.382 12.314 5.93 18.561 4.38c4.929-1.223 9.229-.745 12.855 3.193a31.849 31.849 0 0 1 5.523 8.531 58.789 58.789 0 0 1 4.663 16.591c.621 4.608-.585 9.04-2.19 13.373a21.85 21.85 0 0 1-14 13.696c-4.786 1.598-9.624.273-13.995-2.315-.772-.458-1.38-1.234-2.381-1.258Zm-1.6-23.816c-.106 5.686 2.845 12.952 9.55 18.46 2.979 2.446 6.492 4.154 10.45 3.38 7.045-1.377 10.556-8.394 11.595-13.44a29.862 29.862 0 0 0-.664-13.37c-1.462-5.876-3.437-11.51-6.993-16.502-5.523-7.756-15.98-6.932-20.233 1.612-2.659 5.341-3.607 11.039-3.704 19.86Zm-.72-14.81a3.59 3.59 0 0 0-1.46 2.278c-.245 1.363-.757 2.678-1.008 4.04-.613 3.323-1.637 6.602-.856 10.07.479 2.125.665 4.308 1.165 6.441a36.458 36.458 0 0 0 4.71 11.913c1.516 2.313 2.815 2.604 5.409 1.674 1.666-.597 1.178-1.187.224-1.867a18.823 18.823 0 0 1-4.454-5.023 29.972 29.972 0 0 1-4.722-12.097 38.831 38.831 0 0 1-.021-12.164c.244-1.642 1.096-3.175 1.012-5.265Z"/>
	<path class="cls-2" d="M84.07 20.713a19.987 19.987 0 0 1-4.326 13.813 18.329 18.329 0 0 1-4.367 3.578c-1.21.81-1.274 1.416-.528 2.643a82.256 82.256 0 0 1 5.81 10.753c1.524 3.628 1.583 7.135-2.83 9.427-1.838.954-3.604 2.04-5.509 2.88-1.434.63-2.448.514-3.435-.882-2.02-2.854-3.458-6.022-5.193-9.028-.266-.463-.339-1.43-1.108-1.178-.656.214-.467 1.086-.38 1.649a26.798 26.798 0 0 1-.158 8.011c-.365 2.505-1.608 3.372-4.03 2.71a17.923 17.923 0 0 0-5.635-.486 5.154 5.154 0 0 1-4.67-2.337 11.971 11.971 0 0 1-2.474-9.506c.767-5.16 1.214-10.398 1.888-15.586 1.034-7.96 2.019-15.928 3.338-23.853.327-1.969.736-3.94.952-5.943.383-3.564 2.234-5.078 5.952-5.27a17.834 17.834 0 0 1 5.04.764c4.078.962 8.343 1.076 12.276 2.657 6.57 2.64 9.288 6.649 9.385 13.72.006.488 0 .977.002 1.464Zm-22.584 36.36h.018c0-1.038-.078-2.084.021-3.113.1-1.035-.593-2.712.55-2.952 1.268-.266 1.707 1.465 2.235 2.5a72.026 72.026 0 0 0 5.142 8.997c.71 1.006 1.378 1.402 2.574.687 1.242-.742 2.634-1.227 3.907-1.922 5.364-2.93 6.04-4.739 3.702-10.43a66.198 66.198 0 0 0-5.631-10.182c-.792-1.245-.614-1.938.45-2.691q.97-.685 1.908-1.411a16.707 16.707 0 0 0 4.26-4.447 21.947 21.947 0 0 0 2.85-13.52C82.923 11.463 79.677 7.245 72.608 5.6c-4.372-1.017-8.831-1.66-13.207-2.663-2.014-.462-3.75.188-5.461.843-2.025.776-1.717 2.973-1.999 4.577-.995 5.675-1.738 11.395-2.559 17.1-.648 4.507-1.347 9.01-1.885 13.53-.668 5.607-1.18 11.234-1.79 16.848-.19 1.736 2.533 6.887 4.133 7.613a2.265 2.265 0 0 0 1.07.169 28.595 28.595 0 0 1 7.417.759c2.128.392 3.024-.329 3.142-2.54.084-1.584.017-3.175.017-4.763Z"/>
	<path class="cls-2" d="M9.036 56.19c1.002.024 1.609.8 2.381 1.258 4.37 2.588 9.209 3.913 13.994 2.315a21.85 21.85 0 0 0 14.001-13.696c1.605-4.333 2.811-8.765 2.19-13.373a58.789 58.789 0 0 0-4.663-16.59 31.849 31.849 0 0 0-5.523-8.531c-3.626-3.94-7.926-4.417-12.855-3.194-6.247 1.55-9.98 6.003-13.274 10.997-1.109 1.682-1.372 3.785-1.72 5.705-.787 4.343-1.706 8.656-1.701 13.158.005 5.256 1.571 10.002 3.324 14.802.882 2.414 2.576 4.368 3.455 6.757-1.889-1.252-2.527-3.348-3.48-5.216C1.607 43.619.7 36.146 1.504 28.513a57.04 57.04 0 0 1 2.482-11.768c1.265-3.854 4.314-6.41 7.085-9.178 3.15-3.148 7.195-4.037 11.282-4.617 3.243-.46 6.086 1.03 8.497 3.158 3.956 3.493 6.237 8.078 7.994 12.92 2.062 5.68 3.932 11.48 3.348 17.619-.909 9.552-4.52 17.334-13.465 22.427-5.917 3.37-14.789 1.28-18.924-1.922-.316-.244-.75-.454-.768-.962Z"/>
	<path class="cls-2" d="M98.01 7.72c-.609 2.78-1.91 5.336-2.524 8.127-1.255 5.691-2.637 11.354-4.017 17.017-1.137 4.667-2.354 9.313-3.917 13.862a32.548 32.548 0 0 0-1.485 6.924 3.711 3.711 0 0 0 1.16 3.313 36.631 36.631 0 0 0 6.662 4.804 3.973 3.973 0 0 0 3.706.054c2.003-.866 3.975-1.804 5.96-2.711-2.094 2.181-4.861 3.124-7.648 3.848-1.492.388-2.713-.877-3.926-1.664a33.616 33.616 0 0 1-5.271-3.936 4.512 4.512 0 0 1-1.308-4.18A68.882 68.882 0 0 1 88.34 42.09c1.117-3.476 1.838-7.044 2.67-10.588.846-3.602 1.896-7.156 2.705-10.765a69.472 69.472 0 0 1 2.44-9.332c.483-1.282.72-2.72 1.855-3.687Z"/>
	<path class="cls-2" d="M118.653 55.161c2.517 1.55 4.433-.4 6.4-1.287 3.868-1.743 7.502-3.984 11.623-5.194 1.367-.402 2.02-1.25 1.27-2.919-2.141-4.773-4.805-9.283-6.953-14.047q-5.734-12.722-11.398-25.475a2.222 2.222 0 0 1-.063-.708c1.218.502 1.195 1.783 1.629 2.731 5.475 11.965 10.493 24.142 16.643 35.793.256.485.481.987.7 1.49.816 1.866.448 3.132-1.52 3.719-5.133 1.53-9.647 4.352-14.444 6.579-1.408.653-2.895 1.26-3.887-.682Z"/>
	<path class="cls-2" d="M149.8 33.932c2.953 1.397 5.917 2.772 8.852 4.205a19.74 19.74 0 0 0 3.371 1.341c1.854.517 2.318 1.889 1.302 3.518-1.225 1.967-3.103 2.526-5.558 1.979-3.848-.858-6.947-3.18-10.257-5.07-1.276-.728-1.763-.445-2.369.71a55.943 55.943 0 0 0-3.554 7.973c-.85 2.503.81 4.422 1.573 6.543.403 1.12 1.278 2.084 1.1 3.392a24.864 24.864 0 0 1-3.356-7.38c-.656-2.444.778-4.606 1.655-6.783.589-1.462 1.414-2.828 2.096-4.255.677-1.416 1.59-1.578 2.964-.874 2.599 1.331 4.846 3.3 7.67 4.209 1.213.39 2.428.774 3.655 1.114a3.372 3.372 0 0 0 3.155-1.04 2.28 2.28 0 0 0 .992-2.228c-.188-.901-1.025-1.07-1.78-1.35a97.502 97.502 0 0 1-11.008-5.29c-.23-.12-.338-.471-.503-.714Z"/>
	<path class="cls-2" d="M104.316 58.31c.037-.115.04-.29.117-.335 4.534-2.576 3.46-6.785 2.977-10.698-.334-2.713-.296-5.48-1.054-8.142-.229-.803.318-1.31.96-1.568a17.222 17.222 0 0 1 2.961-.921c1.2-.244 1.394.773 1.59 1.58a53.754 53.754 0 0 1 1.729 8.195 8.513 8.513 0 0 0 2.21 5.293c.331.351.719.684.662 1.247-2.33-1.609-3.2-3.914-3.535-6.653a76.687 76.687 0 0 0-1.609-7.838c-.33-1.43-1.384-.982-2.34-.765-1.077.245-1.937.486-1.795 1.977.346 3.634 1.186 7.22 1.085 10.899-.02.732.003 1.465.002 2.198-.006 2.976-1.03 4.405-3.96 5.53Z"/>
	<path class="cls-2" d="M144.285 58.55a54.348 54.348 0 0 0 15.5 1.4c5.075-.158 9.707-1.425 13.39-5.176a2.378 2.378 0 0 1 .618-.332c-.53 1.918-2.226 2.725-3.723 3.519-4.857 2.577-10.096 3.173-15.532 2.668a63.333 63.333 0 0 1-7.775-.872c-.942-.207-1.973-.138-2.478-1.206Z"/>
	<path class="cls-2" d="M173.276 7.14c-1.982-.587-3.71-1.738-5.623-2.515-5.017-2.038-9.612-1.313-14.146 1.232a49.482 49.482 0 0 0-5.424 3.353c-.521.388-1.011.92-1.766.868-.02-.444.345-.635.62-.834a42.89 42.89 0 0 1 10.32-5.693c3.589-1.33 7.05-.79 10.465.464 2 .734 4.189 1.226 5.554 3.125Z"/>
	<path class="cls-2" d="M173.79 54.447c.675-2.056 1.63-4.012 2.486-5.98 1.835-4.22 1.158-8.12-.514-12.116-1.003-2.397-2.34-4.614-3.448-6.95a1.505 1.505 0 0 1 1.099.881c2.39 4.369 5.118 8.741 4.498 13.953-.437 3.673-1.405 7.352-4.12 10.212Z"/>
	<path class="cls-2" d="M119.514 5.512c-.06.012-.142.055-.175.03-3.842-2.772-7.801-1.197-11.82-.488-3.266.577-6.504 1.08-9.478 2.632 1.215-1.744 3.17-2.273 5.022-2.557 3.537-.542 7.018-1.291 10.514-2.027 2.353-.496 4.243.893 5.937 2.41Z"/>
	<path class="cls-2" d="M144.445 11.946c-.301 1.488-1.278 2.7-1.593 4.212-1.021 4.906.95 9.012 3.27 13.055.445.775 1.226 1.376 1.246 2.374-2.377-2.012-3.228-4.891-4.406-7.607a12.297 12.297 0 0 1 .16-10.415c.295-.653.505-1.387 1.323-1.619Z"/>
	<path class="cls-2" d="M171.22 28.316c-3.441-2.08-7.424-3.3-10.264-6.327-.607-.648-1.737-1.373-.583-2.514.274 1.955 1.773 2.97 3.219 3.909 1.762 1.145 3.68 2.046 5.49 3.119.802.475 1.797.775 2.138 1.813Z"/>
	<path class="cls-2" d="M173.69 20.574c.01-.12-.023-.27.037-.355 2.948-4.114 2.168-8.224.006-12.339a1.015 1.015 0 0 1-.04-.356c2.114 1.092 2.034 3.263 2.414 5.135.533 2.619.38 5.182-1.577 7.304-.235.254-.407.62-.84.611Z"/>
	<path class="cls-2" d="M160.448 19.401c1.037-1.069 2.293-.617 3.39-.306a23.929 23.929 0 0 1 5.488 1.933c1.375.785 2.65.44 3.964-.055-.803 1.4-1.901 1.558-3.352.987-3.062-1.204-6.054-2.72-9.49-2.559Z"/>
	<path class="cls-2" d="M147.392 31.607a3.823 3.823 0 0 1 2.163 2.183 3.184 3.184 0 0 1-2.163-2.183Z"/>
	<path class="cls-2" d="M145.884 10.45a1.837 1.837 0 0 1-1.403 1.466 1.593 1.593 0 0 1 1.403-1.466Z"/>
	<path d="M157.975 53.593a29.538 29.538 0 0 1-12.842-2.238c-1.423-.53-2.288-1.197-1.285-2.962a33.164 33.164 0 0 0 2.286-5.358c.455-1.285.997-1.262 2.014-.613a31.065 31.065 0 0 0 9.4 4.346 8.104 8.104 0 0 0 6.937-1.363c2.412-1.733 2.482-5.67.314-8.562-2.046-2.729-5.15-3.783-8.036-5.208-2.613-1.289-5.405-2.214-7.825-3.896a10.065 10.065 0 0 1-.102-16.62 46.607 46.607 0 0 1 9.154-4.902c3.148-1.29 6.1-.082 9.054.876.23.075.442.21.67.294 3.886 1.426 3.869 1.444 2.05 5.19-.506 1.043-.873 1.503-2.176.921-2.925-1.308-6.088-1.235-9.193-.897-3.376.368-5.12 3.661-3.783 6.845a9.733 9.733 0 0 0 4.543 4.835c2.304 1.25 4.607 2.503 6.96 3.656 4.97 2.437 7.145 6.494 7.289 11.907a14.185 14.185 0 0 1-1.669 7.74c-2.284 3.947-5.87 5.69-10.27 5.996-1.216.085-2.443.013-3.49.013Z" style="fill:#ccf575"/>
	<path class="cls-2" d="M156.643 58.448c-3.093-.342-6.6-.717-10.102-1.128-.84-.098-2.686-2.836-2.443-3.55.238-.695.705-.226 1.057-.155 2.022.41 3.956 1.138 5.968 1.62 2.978.713 5.94.546 8.92.62a3.984 3.984 0 0 1 2.148.3c.425.266 1.252.253 1.102.984-.116.562-.784.794-1.318.855-1.633.185-3.275.286-5.332.454Z"/>
	<path class="cls-2" d="M166.383 15.85a7.648 7.648 0 0 1 1.144.367c.918.472 2.53.766 2.017 2.05-.532 1.335-1.743.089-2.606-.149a7.88 7.88 0 0 0-1.928-.426c-.506-.011-1.017-.133-1.098-.728-.099-.735.538-.657.98-.765.525-.127 1.05-.246 1.49-.348Z"/>
	<path class="cls-4" d="m102.11 34.16-.362.363c-.64.152-.628.672-.624 1.157.038 3.712-.088 7.439.203 11.132.154 1.951-.11 3.21-1.995 4.062-3.51 1.587-6.64 4.156-10.79 4.016l-.062-.071c.741-3.02 1.426-6.055 2.232-9.058q4.41-16.438 7.958-33.082a4.257 4.257 0 0 1 3.834-3.707c3.174-.603 6.358-1.197 9.481-2.01 1.49-.388 2.167-.107 2.8 1.305q7.039 15.702 14.23 31.336c.64 1.392.333 2.185-1.06 2.66-3.465 1.177-6.933 2.346-10.39 3.544-.847.293-1.07-.103-1.203-.832-.295-1.62-.635-3.233-.972-4.845a47.294 47.294 0 0 0-2.044-7.965c-.917-2.3-1.887-2.716-4.098-1.829a9.137 9.137 0 0 0-1.022.4c-2.046 1.127-4.555 1.431-6.115 3.424Zm-.237-11.949c-.173 3.561.542 4.072 3.4 3.066.343-.12.71-.178 1.054-.297 4.603-1.592 4.85-2.277 3.517-7.043-1.147-4.102-1.907-3.333-5.039-2.374a3.196 3.196 0 0 0-1.89 2.099 13.538 13.538 0 0 0-1.042 4.55Z"/>
	<path class="cls-2" d="M102.11 34.16c1.56-1.993 4.07-2.297 6.116-3.423a9.137 9.137 0 0 1 1.022-.4c2.21-.888 3.18-.471 4.098 1.828a47.294 47.294 0 0 1 2.044 7.965c.337 1.612.677 3.225.972 4.845.132.729.356 1.125 1.202.832 3.458-1.198 6.926-2.367 10.39-3.545 1.394-.474 1.7-1.267 1.062-2.66q-7.175-15.64-14.23-31.335c-.634-1.412-1.31-1.693-2.8-1.305-3.124.813-6.308 1.407-9.482 2.01a4.257 4.257 0 0 0-3.834 3.707q-3.517 16.649-7.958 33.082c-.806 3.003-1.49 6.038-2.232 9.058-.75-.262-.578-.854-.444-1.373 1.353-5.22 2.816-10.412 4.064-15.656 1.307-5.494 2.871-10.923 3.952-16.477a77.787 77.787 0 0 1 2.413-10.276c.933-2.745 3.511-2.601 5.57-3.087 2.768-.653 5.658-.863 8.367-1.766 1.666-.555 2.301.134 2.9 1.482 3.047 6.848 6.14 13.674 9.22 20.507 1.78 3.946 3.478 7.932 5.391 11.812.665 1.347.222 1.828-.837 2.424a41.127 41.127 0 0 1-7.346 2.746c-1.263.424-2.556.763-3.811 1.208-1.17.415-1.818.433-2.184-1.119-.96-4.075-1.358-8.28-2.837-12.236-1.015-2.712-1.264-2.804-3.96-1.865-2.362.823-4.384 2.394-6.827 3.017Z"/>
	<path class="cls-2" d="M133.743 46.24c.075.733-.521.911-.993 1.14q-5.53 2.677-11.081 5.314c-1.093.515-4.424-1.79-4.347-2.998.045-.699.634-.934 1.212-1.195 2.386-1.075 5.073-1.074 7.461-2.132a181.556 181.556 0 0 1 4.648-1.996 2.485 2.485 0 0 1 3.1 1.868Z"/>
	<path class="cls-2" d="M95.67 59.865a5.13 5.13 0 0 1-2.921-2.067c-.383-.578.111-1.016.73-1.167a30.079 30.079 0 0 0 6.663-2.796 2.573 2.573 0 0 1 2.595-.3c1.556.84 1.671 1.803.245 2.81-1.328.937-6.521 3.493-7.312 3.52Z"/>
	<path class="cls-2" d="M88.541 54.89c4.151.14 7.281-2.429 10.79-4.016 1.886-.852 2.15-2.11 1.996-4.062-.29-3.693-.165-7.42-.203-11.132-.004-.485-.015-1.005.624-1.157q.008 5.122.019 10.244a9.213 9.213 0 0 0 .049 1.643c.793 4.267.412 3.28-2.559 5.196a37.825 37.825 0 0 1-6.864 3.373c-1.235.479-2.6 1.12-3.852-.09Z"/>
	<path d="M7.437 32.374c.097-8.821 1.045-14.519 3.704-19.86 4.253-8.544 14.71-9.368 20.233-1.612 3.556 4.993 5.531 10.626 6.993 16.502a29.862 29.862 0 0 1 .664 13.37c-1.039 5.046-4.55 12.063-11.596 13.44-3.957.774-7.47-.934-10.449-3.38-6.705-5.508-9.656-12.774-9.55-18.46Zm9.317-8.904a41.247 41.247 0 0 0 1.097 9.956 12.816 12.816 0 0 0 3.348 6.573 6.228 6.228 0 0 0 9.941-1.461c2.139-3.9 1.95-7.935.707-12.044-1.353-4.471-3.165-8.721-6.398-12.171-2.681-2.86-6.507-1.917-7.761 1.759a22.076 22.076 0 0 0-.934 7.388Z" style="fill:#d04485"/>
	<path class="cls-2" d="M6.715 17.564c.084 2.09-.768 3.623-1.012 5.265a38.831 38.831 0 0 0 .02 12.164 29.972 29.972 0 0 0 4.723 12.097 18.823 18.823 0 0 0 4.454 5.023c.954.68 1.442 1.27-.224 1.867-2.594.93-3.893.64-5.41-1.674a36.458 36.458 0 0 1-4.709-11.912c-.5-2.134-.686-4.317-1.165-6.442-.78-3.468.243-6.747.856-10.07.251-1.362.763-2.677 1.008-4.04a3.59 3.59 0 0 1 1.46-2.278Z"/>
	<path class="cls-1" d="M61.486 57.073c0 1.588.067 3.179-.017 4.762-.118 2.212-1.014 2.933-3.142 2.54a28.595 28.595 0 0 0-7.418-.758 2.265 2.265 0 0 1-1.07-.169c-1.599-.726-4.322-5.877-4.133-7.613.611-5.614 1.123-11.24 1.79-16.848.54-4.52 1.238-9.023 1.886-13.53.821-5.705 1.564-11.425 2.56-17.1.28-1.604-.027-3.8 1.998-4.577 1.71-.655 3.447-1.305 5.461-.843 4.376 1.004 8.835 1.646 13.207 2.663 7.07 1.646 10.315 5.863 10.864 12.99a21.947 21.947 0 0 1-2.85 13.52 16.707 16.707 0 0 1-4.26 4.446q-.94.724-1.907 1.411c-1.065.753-1.243 1.446-.451 2.692a66.198 66.198 0 0 1 5.63 10.181c2.34 5.692 1.663 7.5-3.7 10.43-1.274.695-2.666 1.18-3.908 1.922-1.196.715-1.863.319-2.574-.687a72.026 72.026 0 0 1-5.142-8.997c-.528-1.035-.967-2.766-2.235-2.5-1.143.24-.45 1.917-.55 2.952-.099 1.03-.021 2.075-.021 3.113Zm-13.626-1.22a1.331 1.331 0 0 0 1.349 1.618c1.692.206 3.383.435 5.081.566 3.088.238 3.176.219 3.478-2.944.555-5.816.998-11.642 1.486-17.464.045-.537-.086-1.228.571-1.405.652-.175.924.456 1.184.928 1.257 2.285 2.54 4.557 3.74 6.871 2.064 3.98 4.117 7.965 6.085 11.992.698 1.428 1.403 1.594 2.658.661a26.354 26.354 0 0 1 3.58-2.174 1.657 1.657 0 0 0 .778-2.333 51.292 51.292 0 0 0-2.588-5.805c-1.633-2.983-3.44-5.871-5.189-8.79a2.092 2.092 0 0 1 .428-3.064 21.515 21.515 0 0 0 1.935-1.953c3.121-3.338 6.302-6.645 8.062-10.97a9.481 9.481 0 0 0 1.031-4.394c-.402-4.103-5.285-9.014-9.371-9.71-4.611-.784-9.21-1.638-13.808-2.497-2.436-.456-3.491.452-3.932 2.829-.688 3.706-1.18 7.437-1.747 11.158-.64 4.206-1.289 8.412-1.838 12.63-.628 4.823-1.094 9.667-1.74 14.486-.437 3.256-.273 6.583-1.233 9.764Zm3.001 3.64c-.75.236-1.83-.358-2.014.496-.167.778.562 1.523 1.32 2.04a3.024 3.024 0 0 0 1.745.395c1.706.061 3.413.118 5.117.214.672.038 1.522.643 1.812-.458a1.362 1.362 0 0 0-1.381-1.763c-2.265-.083-4.45-.659-6.599-.924Zm19.158.719a1.629 1.629 0 0 0 .045-1.472 117.146 117.146 0 0 0-6.445-13.301c-.287-.55-.438-1.772-1.423-1.17-.887.543.043 1.314.324 1.89q2.154 4.4 4.432 8.739c.914 1.745 1.517 3.681 3.067 5.314Z"/>
	<path class="cls-1" d="M101.873 22.211a13.538 13.538 0 0 1 1.042-4.55 3.196 3.196 0 0 1 1.89-2.098c3.132-.96 3.892-1.728 5.039 2.374 1.332 4.766 1.086 5.451-3.517 7.043-.345.119-.711.176-1.055.297-2.857 1.006-3.572.495-3.399-3.066Zm3.14-1.565c.124.541-.266 1.397.698 1.407a1.168 1.168 0 0 0 1.209-1.15 1.505 1.505 0 0 0-1.326-1.532c-.826-.059-.385.833-.582 1.275Z"/>
	<path class="cls-1" d="M16.755 23.47a22.056 22.056 0 0 1 .933-7.388c1.254-3.676 5.08-4.62 7.76-1.76 3.234 3.45 5.046 7.7 6.399 12.172 1.242 4.109 1.432 8.144-.707 12.044a6.228 6.228 0 0 1-9.94 1.46 12.816 12.816 0 0 1-3.349-6.572 41.208 41.208 0 0 1-1.096-9.956Zm5.812 14.772c.365 1.26.935 1.503 1.835.785l.683-.424a5.704 5.704 0 0 1 1.07.127c2.685.843 3.334.565 4.564-1.96.254-.52.47-1.106.02-1.518-.509-.465-1.02.046-1.476.305-.896.507-1.254 1.63-2.272 2.007l-.107-.117c-.534-1.165 1.434-1.996.429-3.223l.066-1.438c.95-.751.946-1.504.005-2.26l-.082-1.067c.657-.923.298-1.497-.643-1.872l-.113-.692a3.974 3.974 0 0 0-1.835-4.01.434.434 0 0 1-.18-.217c.262-.834-.116-1.196-.918-1.245l.002.002c-.073-1.453-1.344-1.483-2.272-1.756-.743-.218-1.598-.083-1.703 1.024-.833 2.52-.193 5.109-.364 7.66-.565.963-.536 1.76.626 2.242l.127 1.057c-.644.911-.119 1.427.633 1.865l.104.7c-.054 1.635.26 3.105 1.802 4.025Z"/>
	<path d="M47.86 55.853c.96-3.18.796-6.508 1.233-9.763.646-4.82 1.112-9.664 1.74-14.487.55-4.218 1.198-8.424 1.838-12.63.567-3.721 1.06-7.452 1.747-11.158.441-2.376 1.496-3.285 3.933-2.83 4.597.86 9.196 1.714 13.807 2.499 4.086.695 8.969 5.606 9.372 9.71a9.481 9.481 0 0 1-1.032 4.392c-1.76 4.326-4.94 7.633-8.062 10.971A21.515 21.515 0 0 1 70.5 34.51a2.092 2.092 0 0 0-.428 3.064c1.75 2.919 3.556 5.807 5.189 8.79a51.292 51.292 0 0 1 2.588 5.805 1.657 1.657 0 0 1-.778 2.333 26.354 26.354 0 0 0-3.58 2.174c-1.255.933-1.96.767-2.658-.661-1.968-4.027-4.02-8.013-6.085-11.992-1.2-2.314-2.483-4.586-3.74-6.87-.26-.473-.532-1.104-1.184-.929-.657.177-.526.868-.571 1.405-.488 5.822-.932 11.648-1.486 17.464-.302 3.163-.39 3.182-3.478 2.944-1.698-.13-3.39-.36-5.081-.566a1.331 1.331 0 0 1-1.35-1.618Zm10.992-32.849v2.423c0 2.568.391 2.963 2.968 2.897A12.707 12.707 0 0 0 71.953 23c2.562-3.358 2.621-9.43-1.735-11.389-3.027-1.362-6.165-1.083-9.269-.348a1.742 1.742 0 0 0-1.326 1.793c.221 3.49-.95 6.875-.77 9.948Z" style="fill:#5ebab4"/>
	<path class="cls-2" d="M50.861 59.493c2.149.265 4.334.841 6.599.924a1.362 1.362 0 0 1 1.38 1.763c-.29 1.102-1.14.496-1.811.458-1.704-.096-3.411-.153-5.117-.214a3.024 3.024 0 0 1-1.745-.395c-.758-.517-1.487-1.262-1.32-2.04.184-.854 1.263-.26 2.014-.496Z"/>
	<path class="cls-2" d="M70.019 60.212c-1.55-1.633-2.153-3.569-3.067-5.314q-2.272-4.34-4.432-8.739c-.281-.576-1.21-1.347-.324-1.89.985-.602 1.136.62 1.423 1.17a117.146 117.146 0 0 1 6.445 13.3 1.629 1.629 0 0 1-.045 1.473Z"/>
	<path class="cls-2" d="M105.012 20.646c.197-.442-.244-1.334.582-1.275a1.505 1.505 0 0 1 1.326 1.533 1.168 1.168 0 0 1-1.209 1.15c-.964-.011-.574-.867-.699-1.408Z"/>
	<path class="cls-4" d="m26.546 26.895.113.692a1.889 1.889 0 0 0 .643 1.872q.04.534.082 1.067a4.645 4.645 0 0 0-.005 2.26l-.066 1.438-2.228 4.379-.683.424a3.607 3.607 0 0 1-1.835-.785c-.586-1.347-.82-2.853-1.801-4.024l-.103-.701a1.771 1.771 0 0 0-.634-1.865l-.127-1.057a2.656 2.656 0 0 0-.626-2.242c.17-2.55-.469-5.14.364-7.66 1.51-.764 2.725.08 3.975.732l-.002-.002c.028.62.48.927.918 1.245a.433.433 0 0 0 .18.216c.558 1.362.847 2.846 1.835 4.01Z"/>
	<path class="cls-2" d="m25.085 38.603 2.228-4.38c1.005 1.228-.963 2.06-.428 3.225-.186.123-.44.206-.54.378a.216.216 0 0 0 .285.293c.17-.1.245-.364.361-.555 1.018-.376 1.376-1.5 2.272-2.007.456-.259.967-.77 1.476-.305.45.412.234.998-.02 1.519-1.23 2.524-1.879 2.802-4.564 1.96a5.704 5.704 0 0 0-1.07-.128Z"/>
	<path class="cls-2" d="M23.615 21.425c-1.25-.652-2.465-1.496-3.975-.732.105-1.107.96-1.242 1.703-1.024.928.273 2.199.303 2.272 1.756Z"/>
	<path class="cls-2" d="M26.546 26.895c-.988-1.165-1.277-2.65-1.835-4.01a3.974 3.974 0 0 1 1.835 4.01Z"/>
	<path class="cls-2" d="M20.766 34.218c.981 1.17 1.215 2.677 1.802 4.024-1.542-.92-1.856-2.39-1.802-4.024Z"/>
	<path class="cls-2" d="M19.276 28.353a2.656 2.656 0 0 1 .626 2.242c-1.162-.482-1.19-1.28-.626-2.242Z"/>
	<path class="cls-2" d="M27.302 29.459a1.889 1.889 0 0 1-.643-1.872c.941.375 1.3.949.643 1.872Z"/>
	<path class="cls-2" d="M27.379 32.786a4.645 4.645 0 0 1 .005-2.26c.941.756.945 1.51-.005 2.26Z"/>
	<path class="cls-2" d="M20.03 31.652a1.771 1.771 0 0 1 .633 1.865c-.753-.438-1.278-.954-.634-1.865Z"/>
	<path class="cls-2" d="M22.567 38.242a3.607 3.607 0 0 0 1.835.785c-.9.718-1.47.475-1.835-.785Z"/>
	<path class="cls-2" d="M24.531 22.668c-.438-.318-.89-.626-.918-1.245.802.05 1.18.411.918 1.245Z"/>
	<path class="cls-1" d="M58.852 23.004c-.179-3.073.992-6.457.771-9.948a1.742 1.742 0 0 1 1.326-1.793c3.104-.735 6.242-1.014 9.27.348 4.355 1.959 4.296 8.031 1.734 11.389a12.707 12.707 0 0 1-10.133 5.324c-2.577.066-2.968-.33-2.968-2.897v-2.423Zm8.923-6.023c-1.184-.156-2.17.251-2.218 1.77-.053 1.7.006 3.402.013 5.104.005.974.423 1.187 1.255.705a9.27 9.27 0 0 0 3.43-3.677c1.312-2.366.422-3.85-2.48-3.902Zm-6.687 3.433h-.017c0 1.343-.013 2.687.005 4.03.01.717-.112 1.655.956 1.626.976-.026 1.244-.824 1.244-1.708-.001-1.649-.054-3.301.04-4.945a5.745 5.745 0 0 0-.793-3.116c-.237-.446-.505-1.006-.999-.946-.674.082-.41.776-.423 1.212-.036 1.281-.013 2.564-.013 3.847Z"/>
	<path class="cls-1" d="M26.991 37.564c-.116.191-.19.455-.361.555a.216.216 0 0 1-.284-.293c.1-.172.353-.255.539-.378Z"/>
	<path class="cls-4" d="M67.775 16.981c2.902.052 3.792 1.536 2.48 3.902a9.27 9.27 0 0 1-3.43 3.677c-.832.482-1.25.269-1.255-.705-.007-1.702-.066-3.405-.013-5.104.048-1.519 1.034-1.926 2.218-1.77Z"/>
	<path class="cls-2" d="M61.088 20.414c0-1.283-.023-2.566.013-3.847.013-.436-.25-1.13.423-1.212.494-.06.762.5 1 .946a5.745 5.745 0 0 1 .792 3.116c-.094 1.644-.041 3.296-.04 4.945 0 .884-.268 1.682-1.244 1.708-1.068.029-.947-.91-.956-1.626-.018-1.343-.005-2.687-.005-4.03Z"/>
</svg>
