<svg xmlns="http://www.w3.org/2000/svg" height="94.133" width="300.88" xml:space="preserve">
	<path style="fill:#656263;fill-opacity:1;fill-rule:nonzero;stroke:none" d="M187.539 132.688c-2.601 0-5.215.839-7.383 2.578a278.51 278.51 0 0 0-25.25 22.683c-4.617 4.699-4.554 12.227.117 16.809 4.7 4.617 12.219 4.578 16.836-.102 7.246-7.371 15.004-14.375 23.098-20.789 5.133-4.082 5.988-11.601 1.895-16.711-2.34-2.957-5.821-4.468-9.313-4.468" transform="matrix(.13333 0 0 -.13333 0 94.133)"/>
	<path style="fill:#656263;fill-opacity:1;fill-rule:nonzero;stroke:none" d="M136.07 186.934c-3.734 0-7.386 1.765-9.726 5.019-6.555 9.199-12.59 18.887-18.016 28.781-3.117 5.75-.973 12.957 4.777 16.114 5.778 3.132 13.004 1.015 16.133-4.77a264.711 264.711 0 0 1 16.469-26.324 11.884 11.884 0 0 0-2.769-16.594 11.73 11.73 0 0 0-6.868-2.226" transform="matrix(.13333 0 0 -.13333 0 94.133)"/>
	<path style="fill:#656263;fill-opacity:1;fill-rule:nonzero;stroke:none" d="M101.527 253.32a11.892 11.892 0 0 0-11.218 7.93c-3.727 10.664-6.887 21.641-9.317 32.688-1.383 6.425 2.66 12.761 9.09 14.175 6.387 1.399 12.738-2.652 14.164-9.082a252.682 252.682 0 0 1 8.512-29.859c2.164-6.192-1.074-13.012-7.266-15.18a12.025 12.025 0 0 0-3.965-.672" transform="matrix(.13333 0 0 -.13333 0 94.133)"/>
	<path style="fill:#656263;fill-opacity:1;fill-rule:nonzero;stroke:none" d="M86.832 326.711c-6.266 0-11.52 4.863-11.887 11.199a303.728 303.728 0 0 0-.449 16.344c0 5.828.168 11.754.535 17.586.403 6.562 6.09 11.515 12.61 11.144 6.554-.41 11.527-6.07 11.125-12.613a255.602 255.602 0 0 1-.493-16.117c0-4.981.13-10.02.438-14.969.363-6.558-4.637-12.183-11.211-12.574h-.668" transform="matrix(.13333 0 0 -.13333 0 94.133)"/>
	<path style="fill:#656263;fill-opacity:1;fill-rule:nonzero;stroke:none" d="M92.89 401.273c-.863 0-1.73.106-2.613.309-6.394 1.426-10.441 7.793-9.004 14.199a281.793 281.793 0 0 0 9.465 32.657c2.215 6.179 9.032 9.406 15.2 7.199 6.187-2.219 9.406-9.02 7.203-15.207a252.494 252.494 0 0 1-8.661-29.86c-1.242-5.531-6.156-9.297-11.59-9.297" transform="matrix(.13333 0 0 -.13333 0 94.133)"/>
	<path style="fill:#656263;fill-opacity:1;fill-rule:nonzero;stroke:none" d="M679.258 235.859a11.93 11.93 0 0 0-3.875.625c-6.567 2.137-10.172 9.2-8.028 15.782a333.57 333.57 0 0 1 8.27 30.222c1.48 6.742 8.168 10.989 14.898 9.485 6.758-1.493 11.036-8.164 9.516-14.903a345.54 345.54 0 0 0-8.887-32.566c-1.699-5.274-6.625-8.645-11.894-8.645" transform="matrix(.13333 0 0 -.13333 0 94.133)"/>
	<path style="fill:#656263;fill-opacity:1;fill-rule:nonzero;stroke:none" d="M640.316 236.602a11.94 11.94 0 0 0-4.211.781c-6.343 2.324-9.574 9.336-7.242 15.664 3.598 9.719 6.668 19.766 9.223 29.824 1.605 6.582 8.254 10.508 14.781 8.887 6.559-1.641 10.508-8.262 8.875-14.805a311.946 311.946 0 0 0-9.984-32.351c-1.82-4.914-6.481-8-11.442-8" transform="matrix(.13333 0 0 -.13333 0 94.133)"/>
	<path style="fill:#656263;fill-opacity:1;fill-rule:nonzero;stroke:none" d="M367.074 74.777c-6.316 0-11.586 4.961-11.875 11.336-.304 6.582 4.762 12.121 11.324 12.461 10.348.48 20.735 1.621 30.887 3.321 6.461 1.085 12.629-3.274 13.735-9.727 1.078-6.473-3.29-12.617-9.735-13.7a275.321 275.321 0 0 0-33.789-3.663c-.176 0-.375-.028-.547-.028" transform="matrix(.13333 0 0 -.13333 0 94.133)"/>
	<path style="fill:#656263;fill-opacity:1;fill-rule:nonzero;stroke:none" d="M440.602 88.7c-4.942 0-9.582 3.136-11.254 8.097-2.118 6.183 1.199 12.961 7.422 15.098 9.8 3.3 19.441 7.265 28.757 11.75 5.895 2.871 13.024.386 15.879-5.508 2.856-5.93.367-13.039-5.539-15.879a284.933 284.933 0 0 0-31.437-12.902c-1.282-.418-2.567-.657-3.828-.657" transform="matrix(.13333 0 0 -.13333 0 94.133)"/>
	<path style="fill:#656263;fill-opacity:1;fill-rule:nonzero;stroke:none" d="M507.355 122.539a11.912 11.912 0 0 0-9.761 5.078c-3.746 5.371-2.434 12.813 2.965 16.574 8.461 5.879 16.644 12.383 24.347 19.297 4.899 4.356 12.403 3.946 16.805-.937 4.363-4.895 3.957-12.403-.949-16.817a283.519 283.519 0 0 0-26.59-21.078 12.063 12.063 0 0 0-6.817-2.117" transform="matrix(.13333 0 0 -.13333 0 94.133)"/>
	<path style="fill:#656263;fill-opacity:1;fill-rule:nonzero;stroke:none" d="M562.168 173.477c-2.633 0-5.309.871-7.5 2.675-5.102 4.141-5.855 11.641-1.719 16.719 6.555 8.008 12.614 16.524 18.125 25.266 3.512 5.523 10.813 7.226 16.387 3.726 5.586-3.484 7.234-10.836 3.734-16.402a275.018 275.018 0 0 0-19.812-27.59c-2.34-2.922-5.746-4.394-9.215-4.394" transform="matrix(.13333 0 0 -.13333 0 94.133)"/>
	<path style="fill:#656263;fill-opacity:1;fill-rule:nonzero;stroke:none" d="M600.867 237.59c-1.574 0-3.164.293-4.672.918-6.039 2.597-8.851 9.578-6.297 15.633a252.467 252.467 0 0 1 10.399 29.289c1.82 6.308 8.41 9.949 14.719 8.144 6.328-1.816 9.941-8.418 8.136-14.719-3.129-10.867-6.929-21.652-11.343-32.031a11.898 11.898 0 0 0-10.942-7.234" transform="matrix(.13333 0 0 -.13333 0 94.133)"/>
	<path style="fill:#656263;fill-opacity:1;fill-rule:nonzero;stroke:none" d="M560.582 238.867c-1.734 0-3.512.41-5.184 1.262-5.714 2.859-8.003 9.844-5.125 15.555a218.23 218.23 0 0 1 11.911 28.488c2.05 6.043 8.601 9.305 14.675 7.281a11.6 11.6 0 0 0 7.266-14.695c-3.633-10.77-8.086-21.367-13.168-31.516a11.61 11.61 0 0 0-10.375-6.375" transform="matrix(.13333 0 0 -.13333 0 94.133)"/>
	<path style="fill:#656263;fill-opacity:1;fill-rule:nonzero;stroke:none" d="M519.176 240.773c-2.012 0-4.082.555-5.922 1.707-5.289 3.282-6.922 10.247-3.641 15.508 5.383 8.684 10.071 17.825 13.926 27.266 2.34 5.762 8.906 8.527 14.68 6.199 5.758-2.359 8.527-8.941 6.152-14.695a203.525 203.525 0 0 0-15.605-30.637 11.256 11.256 0 0 0-9.59-5.348" transform="matrix(.13333 0 0 -.13333 0 94.133)"/>
	<path style="fill:#3aa09a;fill-opacity:1;fill-rule:nonzero;stroke:none" d="M354.234 0c-7.316 0-14.738.254-22.062.695-6.895.438-12.152 6.328-11.719 13.27.422 6.894 6.36 12.14 13.27 11.7a338.225 338.225 0 0 1 31.371-.45h.398c6.731 0 12.262-5.332 12.492-12.102.231-6.902-5.191-12.71-12.109-12.918A361.494 361.494 0 0 0 354.234 0" transform="matrix(.13333 0 0 -.13333 0 94.133)"/>
	<path style="fill:#3aa09a;fill-opacity:1;fill-rule:nonzero;stroke:none" d="M407.781 4.16c-6.043 0-11.375 4.434-12.347 10.598-1.063 6.824 3.609 13.223 10.425 14.305a331.38 331.38 0 0 1 30.68 6.34c6.668 1.726 13.524-2.317 15.242-9.005 1.715-6.68-2.301-13.515-9.011-15.226a340.917 340.917 0 0 0-33.024-6.836c-.644-.098-1.316-.176-1.965-.176" transform="matrix(.13333 0 0 -.13333 0 94.133)"/>
	<path style="fill:#3aa09a;fill-opacity:1;fill-rule:nonzero;stroke:none" d="M290.766 5.898c-.754 0-1.536.079-2.321.215a353.49 353.49 0 0 0-32.797 7.801c-6.656 1.926-10.484 8.867-8.558 15.492 1.93 6.64 8.851 10.477 15.488 8.575 10.012-2.922 20.277-5.325 30.473-7.258 6.812-1.278 11.301-7.84 10.015-14.637-1.128-6.008-6.394-10.188-12.3-10.188" transform="matrix(.13333 0 0 -.13333 0 94.133)"/>
	<path style="fill:#3aa09a;fill-opacity:1;fill-rule:nonzero;stroke:none" d="M480.09 23.906c-4.973 0-9.676 3.02-11.649 7.93-2.527 6.406.625 13.71 7.051 16.25 9.66 3.84 19.25 8.145 28.528 12.922 6.152 3.144 13.691.703 16.835-5.442 3.168-6.14.708-13.718-5.441-16.843a351.356 351.356 0 0 0-30.726-13.918 12.376 12.376 0 0 0-4.598-.899" transform="matrix(.13333 0 0 -.13333 0 94.133)"/>
	<path style="fill:#3aa09a;fill-opacity:1;fill-rule:nonzero;stroke:none" d="M219.078 27.781c-1.672 0-3.355.344-4.969 1.02a358.772 358.772 0 0 0-30.293 14.844c-6.05 3.32-8.269 10.925-4.937 17 3.332 6.046 10.93 8.28 16.988 4.902a338.74 338.74 0 0 1 28.153-13.738c6.355-2.747 9.285-10.118 6.546-16.457a12.501 12.501 0 0 0-11.488-7.57" transform="matrix(.13333 0 0 -.13333 0 94.133)"/>
	<path style="fill:#3aa09a;fill-opacity:1;fill-rule:nonzero;stroke:none" d="M546.305 59.023a12.549 12.549 0 0 0-10.383 5.47c-3.875 5.71-2.399 13.515 3.316 17.394a344.327 344.327 0 0 1 25.039 18.828c5.328 4.441 13.223 3.719 17.633-1.633 4.418-5.3 3.672-13.223-1.637-17.629-8.628-7.137-17.718-13.941-26.957-20.262a12.475 12.475 0 0 0-7.011-2.168" transform="matrix(.13333 0 0 -.13333 0 94.133)"/>
	<path style="fill:#3aa09a;fill-opacity:1;fill-rule:nonzero;stroke:none" d="M153.91 64.856c-2.547 0-5.117.769-7.332 2.39a344.877 344.877 0 0 0-26.336 21.047 12.523 12.523 0 0 0-1.121 17.684c4.57 5.168 12.484 5.683 17.66 1.101a343.008 343.008 0 0 1 24.473-19.59c5.625-4.058 6.855-11.875 2.793-17.476a12.544 12.544 0 0 0-10.137-5.156" transform="matrix(.13333 0 0 -.13333 0 94.133)"/>
	<path style="fill:#3aa09a;fill-opacity:1;fill-rule:nonzero;stroke:none" d="M603.254 107.695c-3.074 0-6.16 1.145-8.59 3.399-5.016 4.746-5.25 12.644-.519 17.707a344.745 344.745 0 0 1 20.367 23.828c4.234 5.457 12.097 6.445 17.535 2.234 5.476-4.238 6.476-12.121 2.226-17.605a354.037 354.037 0 0 0-21.89-25.598 12.48 12.48 0 0 0-9.129-3.965" transform="matrix(.13333 0 0 -.13333 0 94.133)"/>
	<path style="fill:#3aa09a;fill-opacity:1;fill-rule:nonzero;stroke:none" d="M98.402 115.195a12.528 12.528 0 0 0-9.367 4.211 374.054 374.054 0 0 0-21.168 26.258c-4.047 5.606-2.82 13.41 2.754 17.512 5.582 4.07 13.438 2.84 17.492-2.746 6.114-8.407 12.75-16.602 19.657-24.403a12.539 12.539 0 0 0-1.067-17.687c-2.387-2.141-5.348-3.145-8.3-3.145" transform="matrix(.13333 0 0 -.13333 0 94.133)"/>
	<path style="fill:#3aa09a;fill-opacity:1;fill-rule:nonzero;stroke:none" d="M648.324 167.578c-2.179 0-4.379.559-6.375 1.758-5.957 3.516-7.91 11.223-4.39 17.141 5.328 8.964 10.254 18.289 14.707 27.703 2.922 6.242 10.39 8.918 16.652 5.976 6.254-2.937 8.93-10.398 5.988-16.64a345.325 345.325 0 0 0-15.824-29.805c-2.324-3.945-6.5-6.133-10.758-6.133" transform="matrix(.13333 0 0 -.13333 0 94.133)"/>
	<path style="fill:#3aa09a;fill-opacity:1;fill-rule:nonzero;stroke:none" d="M55.148 176.348a12.504 12.504 0 0 0-10.972 6.484c-5.426 9.766-10.438 19.961-14.918 30.227-2.738 6.328.156 13.718 6.496 16.464 6.34 2.743 13.719-.136 16.453-6.476a342.354 342.354 0 0 1 13.871-28.106c3.356-6.043 1.172-13.679-4.875-17.031-1.922-1.035-3.996-1.562-6.055-1.562" transform="matrix(.13333 0 0 -.13333 0 94.133)"/>
	<path style="fill:#3aa09a;fill-opacity:1;fill-rule:nonzero;stroke:none" d="M26.27 245.488c-5.426 0-10.43 3.575-12.032 9.016a359.61 359.61 0 0 0-7.91 32.773c-1.308 6.797 3.164 13.348 9.941 14.649 6.778 1.277 13.356-3.125 14.637-9.922a330.579 330.579 0 0 1 7.356-30.473c1.945-6.621-1.84-13.582-8.504-15.504a11.604 11.604 0 0 0-3.488-.539" transform="matrix(.13333 0 0 -.13333 0 94.133)"/>
	<path style="fill:#3aa09a;fill-opacity:1;fill-rule:nonzero;stroke:none" d="M694.465 309.238c-.399 0-.789 0-1.188.059-6.89.664-11.937 6.769-11.285 13.625a343.286 343.286 0 0 1 1.449 31.332c0 2.144.543 4.18 1.504 5.949a12.755 12.755 0 0 0-1.703 5.926 332.29 332.29 0 0 1-2.597 31.219c-.883 6.851 3.949 13.136 10.793 14.043 6.859.859 13.14-3.953 14.046-10.789 1.446-11.079 2.364-22.387 2.778-33.606a12.483 12.483 0 0 0-1.52-6.394 12.443 12.443 0 0 0 1.75-6.348c0-11.211-.539-22.535-1.594-33.641-.605-6.5-6.054-11.375-12.433-11.375" transform="matrix(.13333 0 0 -.13333 0 94.133)"/>
	<path style="fill:#3aa09a;fill-opacity:1;fill-rule:nonzero;stroke:none" d="M13.238 319.316c-6.55 0-12.05 5.079-12.488 11.711-.5 7.672-.75 15.504-.75 23.227 0 3.488.043 6.98.156 10.453.196 6.906 6.035 12.324 12.875 12.145 6.914-.2 12.344-5.985 12.14-12.875a423.967 423.967 0 0 1-.132-9.723c0-7.203.23-14.469.7-21.625.449-6.887-4.778-12.863-11.692-13.293-.277-.02-.563-.02-.809-.02" transform="matrix(.13333 0 0 -.13333 0 94.133)"/>
	<path style="fill:#3aa09a;fill-opacity:1;fill-rule:nonzero;stroke:none" d="M16.531 394.145c-.636 0-1.281.074-1.925.14-6.817 1.051-11.52 7.461-10.47 14.305a358.263 358.263 0 0 0 6.743 33.031c1.691 6.707 8.508 10.742 15.207 9.067 6.691-1.7 10.75-8.524 9.047-15.223a332.562 332.562 0 0 1-6.242-30.68c-.938-6.207-6.29-10.64-12.36-10.64" transform="matrix(.13333 0 0 -.13333 0 94.133)"/>
	<path style="fill:#3aa09a;fill-opacity:1;fill-rule:nonzero;stroke:none" d="M684.941 428.176c-5.554 0-10.656 3.742-12.109 9.359-2.621 10.078-5.785 20.137-9.34 29.91-2.406 6.493.946 13.676 7.438 16.055 6.465 2.383 13.664-.961 16.078-7.453 3.82-10.516 7.234-21.348 10.027-32.184 1.77-6.699-2.246-13.531-8.926-15.258a12.263 12.263 0 0 0-3.168-.429" transform="matrix(.13333 0 0 -.13333 0 94.133)"/>
	<path style="fill:#3aa09a;fill-opacity:1;fill-rule:nonzero;stroke:none" d="M36.027 466.527a12.48 12.48 0 0 0-4.562.875c-6.426 2.532-9.621 9.789-7.09 16.219a358.865 358.865 0 0 0 13.812 30.77c3.137 6.16 10.669 8.621 16.825 5.504 6.183-3.133 8.636-10.672 5.508-16.825a328.778 328.778 0 0 1-12.829-28.586 12.54 12.54 0 0 0-11.664-7.957" transform="matrix(.13333 0 0 -.13333 0 94.133)"/>
	<path style="fill:#3aa09a;fill-opacity:1;fill-rule:nonzero;stroke:none" d="M658.137 498.164c-4.516 0-8.907 2.477-11.11 6.785-4.793 9.25-10.039 18.371-15.703 27.141-3.726 5.805-2.047 13.551 3.781 17.289 5.809 3.734 13.551 2.051 17.29-3.766a362.88 362.88 0 0 0 16.875-29.191c3.187-6.141.75-13.695-5.379-16.859a12.58 12.58 0 0 0-5.754-1.399" transform="matrix(.13333 0 0 -.13333 0 94.133)"/>
	<path style="fill:#3aa09a;fill-opacity:1;fill-rule:nonzero;stroke:none" d="M70.918 532.871c-2.402 0-4.84.688-6.984 2.133-5.735 3.879-7.239 11.66-3.356 17.383 6.242 9.289 13.055 18.375 20.168 27.019 4.402 5.321 12.285 6.086 17.621 1.688 5.348-4.403 6.09-12.285 1.711-17.621a337.314 337.314 0 0 1-18.785-25.106c-2.41-3.582-6.348-5.496-10.375-5.496" transform="matrix(.13333 0 0 -.13333 0 94.133)"/>
	<path style="fill:#3aa09a;fill-opacity:1;fill-rule:nonzero;stroke:none" d="M119.457 590.004c-3.352 0-6.66 1.301-9.121 3.906-4.746 5.031-4.512 12.949.508 17.703a357.676 357.676 0 0 0 25.558 21.985c5.434 4.25 13.309 3.281 17.567-2.176 4.273-5.445 3.293-13.297-2.168-17.559a332.941 332.941 0 0 1-23.758-20.445 12.48 12.48 0 0 0-8.586-3.414" transform="matrix(.13333 0 0 -.13333 0 94.133)"/>
	<path style="fill:#3aa09a;fill-opacity:1;fill-rule:nonzero;stroke:none" d="M562.672 612.543c-2.672 0-5.359.852-7.621 2.598a332.057 332.057 0 0 1-25.703 17.941c-5.875 3.68-7.625 11.414-3.934 17.262 3.68 5.847 11.406 7.605 17.254 3.918a351.353 351.353 0 0 0 27.645-19.285c5.5-4.219 6.507-12.075 2.281-17.559-2.461-3.203-6.172-4.875-9.922-4.875" transform="matrix(.13333 0 0 -.13333 0 94.133)"/>
	<path style="fill:#3aa09a;fill-opacity:1;fill-rule:nonzero;stroke:none" d="M247.32 666.391c-5.257 0-10.152 3.336-11.89 8.593-2.153 6.575 1.406 13.649 7.972 15.801a348.094 348.094 0 0 0 32.516 9c6.723 1.547 13.453-2.703 14.965-9.457 1.515-6.742-2.715-13.433-9.461-14.945a341.738 341.738 0 0 1-30.195-8.356 11.925 11.925 0 0 0-3.907-.636" transform="matrix(.13333 0 0 -.13333 0 94.133)"/>
	<path style="fill:#3aa09a;fill-opacity:1;fill-rule:nonzero;stroke:none" d="M427.641 675.539c-.868 0-1.758.098-2.692.301a331.34 331.34 0 0 1-30.863 5.215c-6.879.832-11.785 7.066-10.949 13.929a12.502 12.502 0 0 0 13.949 10.934 355.31 355.31 0 0 0 33.242-5.625c6.746-1.484 11.035-8.148 9.543-14.906-1.273-5.844-6.441-9.848-12.23-9.848" transform="matrix(.13333 0 0 -.13333 0 94.133)"/>
	<path style="fill:#3aa09a;fill-opacity:1;fill-rule:nonzero;stroke:none" d="M354.348 37.246h-.114c-1.484 0-2.957.04-4.394.04-6.742.097-12.129 5.624-12.047 12.37.082 6.672 5.531 12.016 12.187 12.016h4.321c9.043 0 18.14.418 27.082 1.238 6.703.578 12.656-4.344 13.269-11.047.614-6.715-4.316-12.652-11.019-13.258a317.477 317.477 0 0 0-29.285-1.359" transform="matrix(.13333 0 0 -.13333 0 94.133)"/>
	<path style="fill:#3aa09a;fill-opacity:1;fill-rule:nonzero;stroke:none" d="M307.652 40.8c-.617 0-1.261.04-1.875.138a311.205 311.205 0 0 0-33.101 6.914c-6.516 1.738-10.403 8.398-8.672 14.93 1.719 6.503 8.418 10.382 14.934 8.644 10.027-2.637 20.3-4.813 30.55-6.356 6.664-1.039 11.235-7.265 10.207-13.949-.929-5.992-6.121-10.32-12.043-10.32" transform="matrix(.13333 0 0 -.13333 0 94.133)"/>
	<path style="fill:#3aa09a;fill-opacity:1;fill-rule:nonzero;stroke:none" d="M424.449 45.371a12.232 12.232 0 0 0-11.883 9.414c-1.531 6.563 2.532 13.125 9.082 14.668 10.098 2.363 20.2 5.352 29.95 8.8 6.363 2.235 13.328-1.112 15.574-7.44 2.238-6.368-1.086-13.352-7.449-15.586a311.984 311.984 0 0 0-32.477-9.524 11.409 11.409 0 0 0-2.797-.332" transform="matrix(.13333 0 0 -.13333 0 94.133)"/>
	<path style="fill:#3aa09a;fill-opacity:1;fill-rule:nonzero;stroke:none" d="M235.543 61.21c-1.582 0-3.195.321-4.746.978a313.692 313.692 0 0 0-30.406 14.863c-5.918 3.242-8.02 10.683-4.75 16.562 3.281 5.899 10.726 8.02 16.593 4.746a295.255 295.255 0 0 1 28.071-13.71c6.199-2.598 9.097-9.755 6.476-15.989-1.957-4.644-6.476-7.45-11.238-7.45" transform="matrix(.13333 0 0 -.13333 0 94.133)"/>
	<path style="fill:#3aa09a;fill-opacity:1;fill-rule:nonzero;stroke:none" d="M494.672 71.426a12.206 12.206 0 0 0-10.832 6.601c-3.102 6.004-.781 13.371 5.191 16.446a303.967 303.967 0 0 1 26.907 15.879c5.593 3.73 13.179 2.168 16.914-3.418 3.703-5.614 2.187-13.172-3.45-16.934a312.135 312.135 0 0 0-29.121-17.168 11.953 11.953 0 0 0-5.609-1.406" transform="matrix(.13333 0 0 -.13333 0 94.133)"/>
	<path style="fill:#3aa09a;fill-opacity:1;fill-rule:nonzero;stroke:none" d="M170.68 98.691c-2.571 0-5.145.801-7.36 2.481a316.823 316.823 0 0 0-25.859 21.808c-4.934 4.598-5.172 12.301-.547 17.247 4.602 4.902 12.324 5.144 17.242.546 7.555-7.113 15.606-13.867 23.875-20.136 5.371-4.074 6.438-11.699 2.395-17.082-2.43-3.172-6.055-4.864-9.746-4.864" transform="matrix(.13333 0 0 -.13333 0 94.133)"/>
	<path style="fill:#3aa09a;fill-opacity:1;fill-rule:nonzero;stroke:none" d="M556.363 113.898a12.233 12.233 0 0 0-9.14 4.082c-4.457 5.067-4.004 12.801 1.039 17.247a298.997 298.997 0 0 1 22.246 21.921c4.551 4.981 12.258 5.325 17.219.801a12.17 12.17 0 0 0 .82-17.226 326.938 326.938 0 0 0-24.082-23.77 12.24 12.24 0 0 0-8.102-3.055" transform="matrix(.13333 0 0 -.13333 0 94.133)"/>
	<path style="fill:#3aa09a;fill-opacity:1;fill-rule:nonzero;stroke:none" d="M116.895 150.813a12.166 12.166 0 0 0-9.516 4.558 321.883 321.883 0 0 0-19.797 27.402c-3.66 5.665-2.012 13.223 3.633 16.883 5.676 3.645 13.223 2.004 16.89-3.66 5.606-8.719 11.774-17.215 18.286-25.312 4.222-5.223 3.379-12.93-1.844-17.176a12.28 12.28 0 0 0-7.652-2.695" transform="matrix(.13333 0 0 -.13333 0 94.133)"/>
	<path style="fill:#3aa09a;fill-opacity:1;fill-rule:nonzero;stroke:none" d="M605.895 170.059c-2.36 0-4.774.695-6.864 2.121-5.554 3.808-6.996 11.414-3.176 16.98a298.422 298.422 0 0 1 16.231 26.66c3.187 5.95 10.609 8.164 16.543 4.981 5.941-3.203 8.148-10.598 4.969-16.543a314.746 314.746 0 0 0-17.614-28.867c-2.363-3.477-6.175-5.332-10.089-5.332" transform="matrix(.13333 0 0 -.13333 0 94.133)"/>
	<path style="fill:#3aa09a;fill-opacity:1;fill-rule:nonzero;stroke:none" d="M77.379 214.395a12.23 12.23 0 0 0-11.086 7.109 317.829 317.829 0 0 0-12.512 31.426c-2.14 6.418 1.282 13.32 7.66 15.468 6.387 2.168 13.317-1.269 15.473-7.664a291.232 291.232 0 0 1 11.555-28.996c2.836-6.113.144-13.359-5.969-16.179-1.664-.774-3.406-1.164-5.121-1.164" transform="matrix(.13333 0 0 -.13333 0 94.133)"/>
	<path style="fill:#3aa09a;fill-opacity:1;fill-rule:nonzero;stroke:none" d="M54.617 285.789c-5.762 0-10.87 4.094-11.996 9.945-2.039 11.063-3.539 22.325-4.394 33.524a12.178 12.178 0 0 0 11.222 13.137c6.703.515 12.578-4.512 13.114-11.211a289.31 289.31 0 0 1 4.074-30.969c1.222-6.602-3.14-13.008-9.75-14.238a15.09 15.09 0 0 0-2.27-.188" transform="matrix(.13333 0 0 -.13333 0 94.133)"/>
	<path style="fill:#3aa09a;fill-opacity:1;fill-rule:nonzero;stroke:none" d="M657.355 309.578c-.453 0-.878.024-1.3.078-6.731.707-11.559 6.703-10.864 13.41a297.809 297.809 0 0 1 1.649 31.188c0 .918.094 1.82.301 2.672-.231.867-.328 1.762-.36 2.687-.199 10.426-.922 20.891-2.226 31.133-.825 6.699 3.945 12.809 10.633 13.633 6.71.824 12.792-3.918 13.628-10.617 1.395-11.098 2.164-22.438 2.368-33.719a12.8 12.8 0 0 0-.266-2.891c.211-.922.344-1.91.344-2.898 0-11.285-.617-22.633-1.797-33.758-.649-6.258-5.949-10.918-12.11-10.918" transform="matrix(.13333 0 0 -.13333 0 94.133)"/>
	<path style="fill:#3aa09a;fill-opacity:1;fill-rule:nonzero;stroke:none" d="M50.023 360.527c-.246 0-.511 0-.746.024-6.734.402-11.87 6.191-11.453 12.902a320.763 320.763 0 0 0 3.809 33.617c1.101 6.637 7.383 11.129 14.047 10.008 6.656-1.121 11.14-7.41 10.023-14.058a291.684 291.684 0 0 1-3.504-31.016c-.394-6.477-5.765-11.477-12.176-11.477" transform="matrix(.13333 0 0 -.13333 0 94.133)"/>
	<path style="fill:#3aa09a;fill-opacity:1;fill-rule:nonzero;stroke:none" d="M648.5 421.77c-5.387 0-10.309 3.585-11.785 9.027a281.315 281.315 0 0 1-9.75 29.637c-2.453 6.285.676 13.367 6.93 15.816 6.304 2.434 13.367-.676 15.808-6.941a307.899 307.899 0 0 0 10.574-32.145c1.77-6.5-2.086-13.211-8.578-14.961a12.233 12.233 0 0 0-3.199-.433" transform="matrix(.13333 0 0 -.13333 0 94.133)"/>
	<path style="fill:#3aa09a;fill-opacity:1;fill-rule:nonzero;stroke:none" d="M63.629 434.164c-1.207 0-2.473.184-3.703.563-6.43 2.05-9.973 8.902-7.934 15.328a309.501 309.501 0 0 0 11.942 31.675c2.703 6.161 9.906 8.965 16.086 6.258 6.16-2.73 8.96-9.929 6.25-16.082a292.85 292.85 0 0 1-11.016-29.218c-1.64-5.204-6.445-8.524-11.625-8.524" transform="matrix(.13333 0 0 -.13333 0 94.133)"/>
	<path style="fill:#3aa09a;fill-opacity:1;fill-rule:nonzero;stroke:none" d="M94.906 502.25c-2.21 0-4.414.582-6.43 1.816-5.726 3.563-7.503 11.082-3.945 16.809a317.277 317.277 0 0 0 19.293 27.77c4.145 5.332 11.824 6.289 17.149 2.152 5.32-4.137 6.289-11.809 2.152-17.125a290.322 290.322 0 0 1-17.848-25.652 12.176 12.176 0 0 0-10.37-5.77" transform="matrix(.13333 0 0 -.13333 0 94.133)"/>
	<path style="fill:#3aa09a;fill-opacity:1;fill-rule:nonzero;stroke:none" d="M575.785 551.387a12.234 12.234 0 0 0-8.89 3.816 295.678 295.678 0 0 1-22.61 21.52c-5.137 4.386-5.73 12.09-1.336 17.215 4.352 5.121 12.071 5.718 17.188 1.339 8.551-7.293 16.789-15.156 24.508-23.308 4.632-4.899 4.421-12.61-.485-17.258a12.134 12.134 0 0 0-8.375-3.324" transform="matrix(.13333 0 0 -.13333 0 94.133)"/>
	<path style="fill:#3aa09a;fill-opacity:1;fill-rule:nonzero;stroke:none" d="M201.52 605.875c-4.196 0-8.313 2.168-10.575 6.074-3.382 5.828-1.379 13.301 4.45 16.68a319.024 319.024 0 0 0 30.113 15.391c6.152 2.722 13.363-.04 16.129-6.192 2.711-6.156-.028-13.379-6.207-16.129a290.379 290.379 0 0 1-27.793-14.179 12.026 12.026 0 0 0-6.117-1.645" transform="matrix(.13333 0 0 -.13333 0 94.133)"/>
	<path style="fill:#3aa09a;fill-opacity:1;fill-rule:nonzero;stroke:none" d="M450.406 631.348a12.36 12.36 0 0 0-3.836.625 292.902 292.902 0 0 1-30.125 8.238c-6.59 1.422-10.781 7.91-9.332 14.516 1.399 6.586 7.914 10.765 14.485 9.347a313.094 313.094 0 0 0 32.656-8.941c6.41-2.125 9.855-9.028 7.742-15.426a12.237 12.237 0 0 0-11.59-8.359" transform="matrix(.13333 0 0 -.13333 0 94.133)"/>
	<path style="fill:#3aa09a;fill-opacity:1;fill-rule:nonzero;stroke:none" d="M376.949 646.012c-.285 0-.586 0-.898.019a297.39 297.39 0 0 1-31.211.653c-.145-.004-.285-.004-.406-.004-6.567 0-11.993 5.215-12.188 11.812-.211 6.742 5.063 12.379 11.809 12.594 11.187.352 22.625.117 33.793-.703 6.73-.5 11.781-6.344 11.277-13.074a12.205 12.205 0 0 0-12.176-11.297" transform="matrix(.13333 0 0 -.13333 0 94.133)"/>
	<path style="fill:#3aa09a;fill-opacity:1;fill-rule:nonzero;stroke:none" d="M252.066 94.648c-1.515 0-3.046.286-4.527.91-10.434 4.344-20.723 9.325-30.59 14.864-5.699 3.23-7.73 10.508-4.504 16.219 3.239 5.722 10.493 7.746 16.203 4.519 9.008-5.074 18.438-9.676 27.977-13.601 6.039-2.52 8.949-9.446 6.434-15.536a11.928 11.928 0 0 0-10.993-7.375" transform="matrix(.13333 0 0 -.13333 0 94.133)"/>
	<path style="fill:#3aa09a;fill-opacity:1;fill-rule:nonzero;stroke:none" d="M620.168 309.902c-.461 0-.949.039-1.422.098a11.85 11.85 0 0 0-10.383 13.223 262.228 262.228 0 0 1 1.852 31.031c0 9.984-.567 20.047-1.719 29.91-.758 6.516 3.91 12.402 10.442 13.184 6.542.781 12.414-3.942 13.167-10.442 1.278-10.761 1.887-21.75 1.887-32.652 0-11.344-.687-22.731-2.012-33.871-.726-6.059-5.875-10.481-11.812-10.481" transform="matrix(.13333 0 0 -.13333 0 94.133)"/>
	<path style="fill:#3aa09a;fill-opacity:1;fill-rule:nonzero;stroke:none" d="M612.055 415.324a11.928 11.928 0 0 0-11.457 8.656 254.521 254.521 0 0 1-10.231 29.325c-2.558 6.066.309 13.019 6.356 15.566 6.054 2.543 13.019-.305 15.558-6.359a284.01 284.01 0 0 0 11.235-32.067c1.75-6.308-1.891-12.886-8.243-14.679a11.757 11.757 0 0 0-3.218-.442" transform="matrix(.13333 0 0 -.13333 0 94.133)"/>
	<path style="fill:#3aa09a;fill-opacity:1;fill-rule:nonzero;stroke:none" d="M119.379 471.305c-1.934 0-3.875.476-5.707 1.476-5.766 3.172-7.848 10.395-4.668 16.157a274.179 274.179 0 0 0 18.141 28.71c3.832 5.325 11.269 6.532 16.578 2.696 5.34-3.84 6.547-11.27 2.718-16.598a258.692 258.692 0 0 1-16.613-26.285c-2.164-3.926-6.23-6.156-10.449-6.156" transform="matrix(.13333 0 0 -.13333 0 94.133)"/>
	<path style="fill:#3aa09a;fill-opacity:1;fill-rule:nonzero;stroke:none" d="M581.813 483.75a11.913 11.913 0 0 0-10.118 5.609 254.652 254.652 0 0 1-17.996 25.329c-4.105 5.109-3.289 12.601 1.824 16.722 5.09 4.113 12.582 3.309 16.684-1.797a280.37 280.37 0 0 0 19.68-27.683c3.461-5.582 1.761-12.907-3.797-16.371a11.724 11.724 0 0 0-6.277-1.809" transform="matrix(.13333 0 0 -.13333 0 94.133)"/>
	<path style="fill:#3aa09a;fill-opacity:1;fill-rule:nonzero;stroke:none" d="M164.301 531.223a11.82 11.82 0 0 0-8.383 3.457c-4.672 4.621-4.703 12.156-.059 16.804a280.528 280.528 0 0 0 25.356 22.594c5.148 4.078 12.648 3.188 16.695-1.984 4.07-5.149 3.188-12.629-1.969-16.684a260.22 260.22 0 0 1-23.222-20.683 11.848 11.848 0 0 0-8.418-3.504" transform="matrix(.13333 0 0 -.13333 0 94.133)"/>
	<path style="fill:#3aa09a;fill-opacity:1;fill-rule:nonzero;stroke:none" d="M533.77 541.145a11.839 11.839 0 0 0-7.965 3.07 254.149 254.149 0 0 1-24.297 19.418c-5.363 3.777-6.629 11.203-2.856 16.562 3.809 5.371 11.215 6.653 16.578 2.875 9.211-6.511 18.161-13.632 26.528-21.207 4.863-4.386 5.234-11.925.847-16.785-2.363-2.598-5.578-3.933-8.835-3.933" transform="matrix(.13333 0 0 -.13333 0 94.133)"/>
	<path style="fill:#3aa09a;fill-opacity:1;fill-rule:nonzero;stroke:none" d="M471.785 583.113c-1.762 0-3.539.387-5.226 1.211a253.723 253.723 0 0 1-28.715 11.938c-6.196 2.133-9.477 8.906-7.324 15.117 2.125 6.203 8.894 9.5 15.093 7.367a279.245 279.245 0 0 0 31.403-13.051c5.898-2.886 8.332-10.011 5.449-15.914a11.888 11.888 0 0 0-10.68-6.668" transform="matrix(.13333 0 0 -.13333 0 94.133)"/>
	<path style="fill:#3aa09a;fill-opacity:1;fill-rule:nonzero;stroke:none" d="M293.727 603.352c-5.422 0-10.329 3.722-11.582 9.207-1.493 6.406 2.496 12.804 8.894 14.277a278.597 278.597 0 0 0 33.496 5.605c6.488.684 12.395-4.046 13.078-10.574.707-6.535-4.023-12.383-10.578-13.078a256.996 256.996 0 0 1-30.629-5.129 12.11 12.11 0 0 0-2.679-.308" transform="matrix(.13333 0 0 -.13333 0 94.133)"/>
	<path style="fill:#3aa09a;fill-opacity:1;fill-rule:nonzero;stroke:none" d="M341.637 112.078h-.657a241.745 241.745 0 0 0-33.847 4.223c-6.278 1.238-10.363 7.32-9.125 13.582a11.59 11.59 0 0 0 13.601 9.16 223.243 223.243 0 0 1 30.657-3.84c6.371-.34 11.265-5.797 10.902-12.156-.324-6.192-5.434-10.969-11.531-10.969" transform="matrix(.13333 0 0 -.13333 0 94.133)"/>
	<path style="fill:#3aa09a;fill-opacity:1;fill-rule:nonzero;stroke:none" d="M384.055 113.621c-5.739 0-10.711 4.262-11.473 10.117-.805 6.34 3.664 12.141 10.012 12.961a221.769 221.769 0 0 1 30.258 6.094c6.171 1.711 12.546-1.902 14.257-8.047 1.704-6.18-1.929-12.547-8.066-14.25-10.938-3.035-22.223-5.301-33.484-6.773-.504-.039-1.008-.102-1.504-.102" transform="matrix(.13333 0 0 -.13333 0 94.133)"/>
	<path style="fill:#3aa09a;fill-opacity:1;fill-rule:nonzero;stroke:none" d="M268.59 128.105c-1.395 0-2.875.313-4.274.84a241.697 241.697 0 0 0-30.757 14.883c-5.532 3.203-7.465 10.285-4.246 15.82 3.152 5.547 10.257 7.442 15.792 4.297a212.856 212.856 0 0 1 27.805-13.465c5.93-2.414 8.82-9.132 6.445-15.058a11.615 11.615 0 0 0-10.765-7.317" transform="matrix(.13333 0 0 -.13333 0 94.133)"/>
	<path style="fill:#3aa09a;fill-opacity:1;fill-rule:nonzero;stroke:none" d="M455.68 135.137a11.574 11.574 0 0 0-10.407 6.504c-2.796 5.73-.437 12.668 5.317 15.461a227.42 227.42 0 0 1 26.676 15.488c5.312 3.582 12.5 2.246 16.097-3.059 3.586-5.301 2.203-12.48-3.066-16.082a244.699 244.699 0 0 0-29.539-17.129 11.557 11.557 0 0 0-5.078-1.183" transform="matrix(.13333 0 0 -.13333 0 94.133)"/>
	<path style="fill:#3aa09a;fill-opacity:1;fill-rule:nonzero;stroke:none" d="M204.59 166.785c-2.664 0-5.32.891-7.512 2.766a246.853 246.853 0 0 0-24.39 23.887c-4.219 4.796-3.793 12.097.996 16.359 4.789 4.246 12.086 3.808 16.359-.977a217.026 217.026 0 0 1 22.035-21.64 11.588 11.588 0 0 0 1.32-16.328 11.569 11.569 0 0 0-8.808-4.067" transform="matrix(.13333 0 0 -.13333 0 94.133)"/>
	<path style="fill:#3aa09a;fill-opacity:1;fill-rule:nonzero;stroke:none" d="M516.602 178.418a11.468 11.468 0 0 0-8.239 3.469c-4.5 4.531-4.441 11.875.106 16.347 7.293 7.246 14.176 15.028 20.394 23.219 3.875 5.09 11.141 6.067 16.215 2.192a11.55 11.55 0 0 0 2.195-16.235 242.512 242.512 0 0 0-22.527-25.625c-2.269-2.234-5.211-3.367-8.144-3.367" transform="matrix(.13333 0 0 -.13333 0 94.133)"/>
	<path style="fill:#3aa09a;fill-opacity:1;fill-rule:nonzero;stroke:none" d="M156.23 223.77a11.574 11.574 0 0 0-9.917 5.636 239.578 239.578 0 0 0-15.508 30.399c-2.485 5.871.265 12.683 6.152 15.183 5.902 2.461 12.668-.25 15.188-6.16a220.201 220.201 0 0 1 13.972-27.5c3.336-5.469 1.543-12.598-3.91-15.867-1.891-1.137-3.945-1.691-5.977-1.691" transform="matrix(.13333 0 0 -.13333 0 94.133)"/>
	<path style="fill:#3aa09a;fill-opacity:1;fill-rule:nonzero;stroke:none" d="M128.605 293.234c-5.316 0-10.125 3.7-11.304 9.102-2.434 11.102-4.043 22.449-4.895 33.785-.488 6.391 4.309 11.93 10.696 12.414 6.336.469 11.925-4.324 12.378-10.691.766-10.246 2.247-20.528 4.442-30.547 1.363-6.262-2.602-12.426-8.832-13.801a12.233 12.233 0 0 0-2.485-.262" transform="matrix(.13333 0 0 -.13333 0 94.133)"/>
	<path style="fill:#3aa09a;fill-opacity:1;fill-rule:nonzero;stroke:none" d="M582.934 310.234c-.532 0-1.071.047-1.633.129-6.328.875-10.719 6.739-9.824 13.075a226.335 226.335 0 0 1 2.132 30.816c0 7.769-.41 15.574-1.238 23.269-.656 6.364 3.969 12.071 10.332 12.747 6.32.648 12.031-3.965 12.707-10.309.903-8.5 1.352-17.133 1.352-25.707 0-11.391-.782-22.848-2.367-34.051-.821-5.777-5.782-9.969-11.461-9.969" transform="matrix(.13333 0 0 -.13333 0 94.133)"/>
	<path style="fill:#3aa09a;fill-opacity:1;fill-rule:nonzero;stroke:none" d="M124.688 367.875c-.418 0-.844.02-1.293.07-6.348.703-10.93 6.407-10.231 12.75a242.331 242.331 0 0 0 6.07 33.606c1.563 6.203 7.883 9.945 14.094 8.359 6.168-1.574 9.926-7.875 8.32-14.055a225.897 225.897 0 0 1-5.476-30.39 11.555 11.555 0 0 0-11.484-10.34" transform="matrix(.13333 0 0 -.13333 0 94.133)"/>
	<path style="fill:#3aa09a;fill-opacity:1;fill-rule:nonzero;stroke:none" d="M575.559 408.828c-4.977 0-9.59 3.227-11.09 8.266-2.91 9.832-6.594 19.539-10.906 28.867-2.68 5.809-.133 12.695 5.671 15.367 5.809 2.672 12.668.137 15.36-5.664a237.868 237.868 0 0 0 12.078-31.957c1.82-6.129-1.668-12.574-7.781-14.394a11.257 11.257 0 0 0-3.332-.485" transform="matrix(.13333 0 0 -.13333 0 94.133)"/>
	<path style="fill:#3aa09a;fill-opacity:1;fill-rule:nonzero;stroke:none" d="M542.836 476.012c-3.641 0-7.227 1.703-9.445 4.894-5.965 8.371-12.536 16.41-19.602 23.883-4.394 4.645-4.176 11.981.465 16.371a11.604 11.604 0 0 0 16.391-.48 245.763 245.763 0 0 0 21.636-26.395c3.692-5.211 2.43-12.453-2.765-16.14a11.526 11.526 0 0 0-6.68-2.133" transform="matrix(.13333 0 0 -.13333 0 94.133)"/>
	<path style="fill:#3aa09a;fill-opacity:1;fill-rule:nonzero;stroke:none" d="M186.781 501.703a11.59 11.59 0 0 0-7.968 3.192c-4.633 4.406-4.805 11.738-.415 16.375a245.581 245.581 0 0 0 25.192 23.031c5.004 3.98 12.285 3.14 16.273-1.867 3.965-5.016 3.121-12.297-1.879-16.274a226.126 226.126 0 0 1-22.804-20.847c-2.258-2.403-5.301-3.61-8.399-3.61" transform="matrix(.13333 0 0 -.13333 0 94.133)"/>
	<path style="fill:#3aa09a;fill-opacity:1;fill-rule:nonzero;stroke:none" d="M246.355 546.906c-4.16 0-8.156 2.235-10.226 6.16-2.992 5.661-.871 12.653 4.812 15.641a240.206 240.206 0 0 0 31.247 13.813c5.992 2.16 12.648-.961 14.804-6.985 2.164-6.004-.953-12.64-6.972-14.808a215.848 215.848 0 0 1-28.243-12.481 11.654 11.654 0 0 0-5.422-1.34" transform="matrix(.13333 0 0 -.13333 0 94.133)"/>
	<path style="fill:#3aa09a;fill-opacity:1;fill-rule:nonzero;stroke:none" d="M423.621 563.004c-1.148 0-2.332.164-3.476.531-9.786 3.086-19.911 5.485-30.051 7.164-6.301 1.031-10.578 6.989-9.535 13.293 1.027 6.321 7.015 10.578 13.308 9.543 11.223-1.832 22.399-4.512 33.227-7.906 6.086-1.918 9.492-8.422 7.558-14.524-1.531-4.937-6.121-8.101-11.031-8.101" transform="matrix(.13333 0 0 -.13333 0 94.133)"/>
	<path style="fill:#3aa09a;fill-opacity:1;fill-rule:nonzero;stroke:none" d="M317.211 570.656c-5.574 0-10.508 4.035-11.406 9.731-1.035 6.312 3.277 12.265 9.586 13.285a246.805 246.805 0 0 0 34.004 3.039c.07.008.136.008.218.008 6.293 0 11.446-5.047 11.563-11.356.14-6.394-4.961-11.679-11.336-11.804a222.053 222.053 0 0 1-30.77-2.762 11.865 11.865 0 0 0-1.859-.141" transform="matrix(.13333 0 0 -.13333 0 94.133)"/>
	<path style="fill:#3aa09a;fill-opacity:1;fill-rule:nonzero;stroke:none" d="M354.531 148.965c-9.922-.02-20.039.723-29.883 2.14-6.164.868-10.429 6.598-9.531 12.743.883 6.164 6.598 10.429 12.735 9.543a187.347 187.347 0 0 1 26.382-1.887c1.446 0 2.809 0 4.196.07h.277c6.098 0 11.113-4.883 11.25-11.027.141-6.223-4.789-11.395-11.004-11.516-1.469-.027-2.961-.066-4.422-.066" transform="matrix(.13333 0 0 -.13333 0 94.133)"/>
	<path style="fill:#3aa09a;fill-opacity:1;fill-rule:nonzero;stroke:none" d="M400.766 154.59c-5.059 0-9.676 3.418-10.926 8.586-1.485 6.035 2.207 12.137 8.226 13.633a178.375 178.375 0 0 1 29.004 9.804c5.696 2.45 12.344-.16 14.828-5.859 2.489-5.703-.136-12.356-5.843-14.848a207.593 207.593 0 0 0-32.575-10.996 11.56 11.56 0 0 0-2.714-.32" transform="matrix(.13333 0 0 -.13333 0 94.133)"/>
	<path style="fill:#3aa09a;fill-opacity:1;fill-rule:nonzero;stroke:none" d="M285.141 161.633c-1.34 0-2.692.23-4.012.738a205.794 205.794 0 0 0-30.996 14.914c-5.367 3.184-7.153 10.086-3.988 15.469 3.156 5.344 10.054 7.117 15.402 3.965a180.255 180.255 0 0 1 27.609-13.289c5.809-2.219 8.719-8.723 6.504-14.524a11.25 11.25 0 0 0-10.519-7.273" transform="matrix(.13333 0 0 -.13333 0 94.133)"/>
	<path style="fill:#3aa09a;fill-opacity:1;fill-rule:nonzero;stroke:none" d="M468.398 186.094c-3.46 0-6.898 1.601-9.117 4.66-3.66 5-2.527 12.039 2.496 15.723a187.518 187.518 0 0 1 23.157 20.007c4.347 4.465 11.484 4.532 15.925.196 4.438-4.336 4.524-11.485.172-15.938a210.309 210.309 0 0 0-26.004-22.5 11.293 11.293 0 0 0-6.629-2.148" transform="matrix(.13333 0 0 -.13333 0 94.133)"/>
	<path style="fill:#3aa09a;fill-opacity:1;fill-rule:nonzero;stroke:none" d="M178.09 261.613a11.28 11.28 0 0 0-10.246 6.543 205.162 205.162 0 0 0-11.758 32.305c-1.621 6.016 1.926 12.176 7.918 13.816 6.016 1.641 12.195-1.922 13.84-7.918a181.977 181.977 0 0 1 10.457-28.761c2.621-5.645.16-12.332-5.488-14.95a11.396 11.396 0 0 0-4.723-1.035" transform="matrix(.13333 0 0 -.13333 0 94.133)"/>
	<path style="fill:#3aa09a;fill-opacity:1;fill-rule:nonzero;stroke:none" d="M545.57 310.598a12.4 12.4 0 0 0-1.875.144c-6.121 1.035-10.257 6.856-9.226 12.996 1.683 10 2.519 20.27 2.519 30.516 0 5.562-.246 11.191-.758 16.687-.55 6.188 4.004 11.668 10.211 12.215 6.227.559 11.688-4 12.243-10.183.55-6.188.843-12.469.843-18.719 0-11.5-.968-23.016-2.855-34.274-.918-5.476-5.692-9.382-11.102-9.382" transform="matrix(.13333 0 0 -.13333 0 94.133)"/>
	<path style="fill:#3aa09a;fill-opacity:1;fill-rule:nonzero;stroke:none" d="M160.445 334.121c-6.011 0-10.988 4.707-11.269 10.75a236.543 236.543 0 0 0-.207 9.363c0 8.329.511 16.727 1.496 24.969.75 6.188 6.387 10.543 12.539 9.836 6.176-.758 10.586-6.375 9.824-12.559a190.738 190.738 0 0 1-1.308-22.226c0-2.805.058-5.637.175-8.371.27-6.215-4.539-11.457-10.761-11.762h-.489" transform="matrix(.13333 0 0 -.13333 0 94.133)"/>
	<path style="fill:#3aa09a;fill-opacity:1;fill-rule:nonzero;stroke:none" d="M539.016 402.301c-4.746 0-9.192 3.031-10.746 7.816a180.639 180.639 0 0 1-11.743 28.242c-2.875 5.528-.726 12.336 4.805 15.196 5.504 2.875 12.324.722 15.184-4.805 5.281-10.176 9.75-20.848 13.218-31.754 1.903-5.922-1.355-12.258-7.285-14.168a10.878 10.878 0 0 0-3.433-.527" transform="matrix(.13333 0 0 -.13333 0 94.133)"/>
	<path style="fill:#3aa09a;fill-opacity:1;fill-rule:nonzero;stroke:none" d="M171.383 407.922c-1.266 0-2.52.223-3.778.644-5.859 2.098-8.945 8.528-6.859 14.399a205.908 205.908 0 0 0 14.227 31.336c3.023 5.429 9.906 7.371 15.336 4.332 5.421-3.031 7.343-9.895 4.336-15.328-5-8.907-9.235-18.285-12.649-27.879-1.629-4.625-5.976-7.504-10.613-7.504" transform="matrix(.13333 0 0 -.13333 0 94.133)"/>
	<path style="fill:#3aa09a;fill-opacity:1;fill-rule:nonzero;stroke:none" d="M209.453 472.113c-2.676 0-5.367.953-7.488 2.864-4.641 4.156-5.055 11.261-.918 15.902a205.506 205.506 0 0 0 24.965 23.652c4.847 3.899 11.937 3.11 15.824-1.742 3.902-4.867 3.102-11.953-1.734-15.851a181.249 181.249 0 0 1-22.227-21.055 11.272 11.272 0 0 0-8.422-3.77" transform="matrix(.13333 0 0 -.13333 0 94.133)"/>
	<path style="fill:#3aa09a;fill-opacity:1;fill-rule:nonzero;stroke:none" d="M268.902 517.246a11.296 11.296 0 0 0-10.152 6.305c-2.738 5.59-.422 12.328 5.156 15.066a204.086 204.086 0 0 0 32.055 12.504c5.98 1.77 12.246-1.629 14.004-7.605 1.769-5.965-1.645-12.243-7.625-14a182.178 182.178 0 0 1-28.492-11.121 11.286 11.286 0 0 0-4.946-1.149" transform="matrix(.13333 0 0 -.13333 0 94.133)"/>
	<path style="fill:#656263;fill-opacity:1;fill-rule:nonzero;stroke:none" d="M988.461 277.941c10.41 0 19.949 1.942 28.669 5.848 8.7 3.953 16.14 9.246 22.34 16.008 6.21 6.719 11.06 14.598 14.59 23.66 3.49 9.055 5.24 18.688 5.24 28.941v.594c0 10.262-1.75 19.953-5.24 29.102-3.53 9.144-8.41 17.086-14.71 23.828-6.31 6.726-13.88 12.109-22.67 16.129-8.83 4.015-18.422 6.035-28.836 6.035-10.406 0-19.949-1.973-28.672-5.887-8.703-3.926-16.168-9.246-22.371-15.988-6.215-6.719-11.063-14.613-14.555-23.66-3.523-9.039-5.269-18.688-5.269-28.957v-.602c0-10.242 1.746-19.929 5.269-29.078 3.492-9.156 8.406-17.105 14.707-23.824 6.305-6.731 13.871-12.129 22.664-16.137 8.828-4.004 18.43-6.012 28.844-6.012zm-.617-34.074c-16.289 0-31.16 2.844-44.614 8.606-13.484 5.711-25.023 13.515-34.691 23.328-9.633 9.875-17.168 21.379-22.598 34.523-5.429 13.164-8.148 27.196-8.148 42.074v.594c0 14.875 2.719 28.914 8.148 42.067 5.43 13.16 13.059 24.73 22.922 34.668 9.828 9.961 21.496 17.847 34.946 23.671 13.488 5.836 28.359 8.747 44.652 8.747 16.259 0 31.129-2.864 44.619-8.579 13.47-5.738 25.02-13.531 34.68-23.378 9.64-9.844 17.17-21.36 22.6-34.532 5.44-13.156 8.15-27.176 8.15-42.062v-.602c0-14.863-2.71-28.887-8.15-42.054-5.43-13.145-13.06-24.727-22.92-34.676-9.83-9.934-21.5-17.832-34.98-23.672-13.45-5.82-28.32-8.723-44.616-8.723" transform="matrix(.13333 0 0 -.13333 0 94.133)"/>
	<path style="fill:#656263;fill-opacity:1;fill-rule:nonzero;stroke:none" d="M1203.41 424.156h-66.91v34.379h171.25v-34.379h-66.93V247.488h-37.41v176.668" transform="matrix(.13333 0 0 -.13333 0 94.133)"/>
	<path style="fill:#656263;fill-opacity:1;fill-rule:nonzero;stroke:none" d="M1355.08 458.535h156.2v-33.472h-119.41v-54.266h105.83v-33.469h-105.83v-56.379h120.89v-33.461h-157.68v211.047" transform="matrix(.13333 0 0 -.13333 0 94.133)"/>
	<path style="fill:#656263;fill-opacity:1;fill-rule:nonzero;stroke:none" d="M1565.24 458.535h156.19v-33.472h-119.4v-54.266h105.84v-33.469h-105.84v-56.379h120.91v-33.461h-157.7v211.047" transform="matrix(.13333 0 0 -.13333 0 94.133)"/>
	<path style="fill:#656263;fill-opacity:1;fill-rule:nonzero;stroke:none" d="M1775.41 458.535h39.5l64.23-99.797 64.21 99.797h39.5V247.488h-36.79v151.336l-66.63-99.488h-1.2l-66.04 98.887V247.488h-36.78v211.047" transform="matrix(.13333 0 0 -.13333 0 94.133)"/>
	<path style="fill:#656263;fill-opacity:1;fill-rule:nonzero;stroke:none" d="M2146.59 277.941c10.4 0 19.95 1.942 28.67 5.848 8.69 3.953 16.15 9.246 22.34 16.008 6.22 6.719 11.07 14.598 14.58 23.66 3.5 9.055 5.25 18.688 5.25 28.941v.594c0 10.262-1.75 19.953-5.25 29.102-3.51 9.144-8.42 17.086-14.71 23.828-6.3 6.726-13.88 12.109-22.67 16.129-8.81 4.015-18.43 6.035-28.82 6.035-10.41 0-19.96-1.973-28.67-5.887-8.72-3.926-16.17-9.246-22.38-15.988-6.21-6.719-11.05-14.613-14.57-23.66-3.51-9.039-5.25-18.688-5.25-28.957v-.602c0-10.242 1.74-19.929 5.25-29.078 3.52-9.156 8.42-17.105 14.72-23.824 6.29-6.731 13.87-12.129 22.68-16.137 8.81-4.004 18.41-6.012 28.83-6.012zm-.61-34.074c-16.29 0-31.16 2.844-44.63 8.606-13.46 5.711-25.03 13.515-34.68 23.328-9.65 9.875-17.17 21.379-22.62 34.523-5.43 13.164-8.15 27.196-8.15 42.074v.594c0 14.875 2.72 28.914 8.15 42.067 5.45 13.16 13.06 24.73 22.94 34.668 9.83 9.961 21.49 17.847 34.95 23.671 13.48 5.836 28.36 8.747 44.65 8.747 16.27 0 31.14-2.864 44.63-8.579 13.45-5.738 25.02-13.531 34.66-23.378 9.63-9.844 17.18-21.36 22.61-34.532 5.41-13.156 8.14-27.176 8.14-42.062v-.602c0-14.863-2.73-28.887-8.14-42.054-5.43-13.145-13.07-24.727-22.92-34.676-9.83-9.934-21.5-17.832-34.97-23.672-13.48-5.82-28.34-8.723-44.62-8.723" transform="matrix(.13333 0 0 -.13333 0 94.133)"/>
	<path style="fill:#7b7979;fill-opacity:1;fill-rule:nonzero;stroke:none" d="M796.785 5.613h-9.305v694.789h9.305V5.613" transform="matrix(.13333 0 0 -.13333 0 94.133)"/>
</svg>
