<svg id="Layer_1" data-name="Layer 1" xmlns="http://www.w3.org/2000/svg" viewBox="0 0 143.042 143.039">
	<defs>
		<style>
			.cls-1{fill:#ef4423}.cls-2{fill:#f6d10e}.cls-3{fill:#ed1b7b}.cls-4{fill:#0c363c}.cls-6{fill:#2c2e5b}.cls-7{fill:#54652e}.cls-8{fill:#523a34}.cls-10{fill:#0d363c}.cls-11{fill:#22616b}.cls-12{fill:#0e363c}.cls-15{fill:#fff}
		</style>
	</defs>
	<path class="cls-1" d="m81.461 123.657-9-9.06-9 9.06a29.014 29.014 0 0 1-15.22 8.129 29.538 29.538 0 0 0 48.45 0 29.037 29.037 0 0 1-15.1-8.03Z" transform="translate(-1.004 -1.41)"/>
	<path class="cls-2" d="M72.461 31.278 81.48 22.2a29 29 0 0 1 15.22-8.072 29.469 29.469 0 0 0-48.47-.04 29 29 0 0 1 15.1 8c.041.034 9.131 9.19 9.131 9.19Z" transform="translate(-1.004 -1.41)"/>
	<path class="cls-3" d="M42.961 43.438v-12.5a29.436 29.436 0 0 1 5.27-16.85 29.144 29.144 0 0 0-26.14 8.129 29.56 29.56 0 0 0-8.11 26.27 29.464 29.464 0 0 1 16.54-5.05Z" transform="translate(-1.004 -1.41)"/>
	<path class="cls-4" d="M114.512 102.438h-12.551v12.5a29.336 29.336 0 0 1-5.27 16.849 29.15 29.15 0 0 0 26.17-8.1 29.5 29.5 0 0 0 8.23-25.77 26.181 26.181 0 0 1-16.579 4.521Z" transform="translate(-1.004 -1.41)"/>
	<path class="cls-2" d="M101.961 102.438h-17.42L72.461 114.6l9 9.06.13.13a28.991 28.991 0 0 0 15.1 8 29.335 29.335 0 0 0 5.27-16.82Z" transform="translate(-1.004 -1.41)"/>
	<path class="cls-1" d="M42.961 43.438h17.42l12.08-12.16-9.13-9.19a29 29 0 0 0-15.1-8 29.311 29.311 0 0 0-5.27 16.81Z" transform="translate(-1.004 -1.41)"/>
	<path d="M101.961 43.438h12.5a30.432 30.432 0 0 1 16.5 4.87 29.4 29.4 0 0 0-8.07-26.05.8.8 0 0 1-.13-.13 29.293 29.293 0 0 0-26.06-8 29.4 29.4 0 0 1 5.26 16.81Z" transform="translate(-1.004 -1.41)" style="fill:#50c5d6"/>
	<path class="cls-6" d="m42.961 102.438-12.46-.071a29.379 29.379 0 0 1-16.5-5 29.628 29.628 0 0 0 8.11 26.3l.13.13a29.133 29.133 0 0 0 26 7.989 29.311 29.311 0 0 1-5.27-16.809Z" transform="translate(-1.004 -1.41)"/>
	<path class="cls-6" d="m72.461 31.277 12.08 12.16h17.42v-12.5a29.4 29.4 0 0 0-5.26-16.81 29.1 29.1 0 0 0-15.24 8.09Z" transform="translate(-1.004 -1.41)"/>
	<path class="cls-4" d="m72.461 114.6-12.08-12.159h-17.42v12.5a29.354 29.354 0 0 0 5.28 16.849 28.968 28.968 0 0 0 15.22-8.1Z" transform="translate(-1.004 -1.41)"/>
	<path class="cls-3" d="m71.457 29.867-12.09 12.16h24.17l-12.08-12.16z"/>
	<path class="cls-6" d="m71.457 113.187 12.08-12.16h-24.17l12.09 12.16z"/>
	<path class="cls-7" d="m31.091 72.938-9-9.091a29.381 29.381 0 0 1-8.11-15.36 29.517 29.517 0 0 0 .04 48.91 29.327 29.327 0 0 1 8.07-15.36Z" transform="translate(-1.004 -1.41)"/>
	<path class="cls-8" d="M130.961 48.308a29.353 29.353 0 0 1-8.1 15.51l-8.971 9.119 9.027 9.127a29.2 29.2 0 0 1 8.174 15.854c7.28-5 12.187-13.763 12.907-24.973.62-10.27-4.847-19.345-13.037-24.637Z" transform="translate(-1.004 -1.41)"/>
	<path d="m113.889 72.939-11.928 11.968v17.531l12.528.031a26.233 26.233 0 0 0 16.6-4.55 29.169 29.169 0 0 0-8.13-15.88Z" transform="translate(-1.004 -1.41)" style="fill:#173445"/>
	<path class="cls-10" d="m31.091 72.938 11.87-11.985.02-17.515h-12.5a29.328 29.328 0 0 0-16.5 5.049 29.32 29.32 0 0 0 8.07 15.36Z" transform="translate(-1.004 -1.41)"/>
	<path class="cls-11" d="M41.957 42.027v17.53l17.41-17.53h-17.41z"/>
	<path class="cls-10" d="M100.957 101.027v-17.53l-17.42 17.53h17.42z"/>
	<path class="cls-11" d="M42.961 102.438V84.907L31.1 72.932l-9.025 9.075A29.327 29.327 0 0 0 14 97.367a29.379 29.379 0 0 0 16.5 5Z" transform="translate(-1.004 -1.41)"/>
	<path class="cls-12" d="m113.891 72.938 9-9.09a29.36 29.36 0 0 0 8.1-15.51 30.561 30.561 0 0 0-16.53-4.9h-12.5v17.53" transform="translate(-1.004 -1.41)"/>
	<path class="cls-7" d="M41.957 101.027h17.41l-17.41-17.53v17.53z"/>
	<path class="cls-8" d="M100.957 42.027h-17.42l17.42 17.53v-17.53z"/>
	<path style="fill:#274347" d="M83.537 42.027h-24.17l-17.41 17.53v23.94l17.41 17.53h24.17l17.42-17.53v-23.94l-17.42-17.53z"/>
	<path style="fill:#06171a" d="m100.957 83.497 11.929-11.968-11.929-11.972v23.94z"/>
	<path class="cls-12" d="m30.09 71.527 11.877 11.97-.01-23.955L30.09 71.527z"/>
	<path d="M13.571 73.337A11 11 0 1 1 24.983 83.91c-.154.005-.308.008-.462.007a10.76 10.76 0 0 1-10.95-10.566Zm5.32-.25c0 3.18 2.17 6.16 5.75 6.16 3.77 0 5.6-3.43 5.6-6.11s-1.83-6.16-5.66-6.16-5.69 3.151-5.69 6.08Z" transform="translate(-1.004 -1.41)"/>
	<path d="M45.581 67.367h-4.11V62.7h13.51v4.669H50.9v16.16h-5.32Z" transform="translate(-1.004 -1.41)"/>
	<path d="M60.861 73.337a11 11 0 1 1 11.412 10.572 9.467 9.467 0 0 1-.412.008 10.759 10.759 0 0 1-11-10.515Zm5.32-.25c0 3.18 2.17 6.16 5.75 6.16 3.77 0 5.6-3.43 5.6-6.11s-1.83-6.16-5.66-6.16-5.69 3.151-5.69 6.08Z" transform="translate(-1.004 -1.41)"/>
	<path d="M90.561 83.527V62.7h7.13l3.91 13.43 3.8-13.43h7.15v20.83h-4.9l.17-15.6-4.5 15.6H99.8l-4.51-15.6.17 15.6Z" transform="translate(-1.004 -1.41)"/>
	<path d="M121.9 62.7h5.32v20.83h-5.32Z" transform="translate(-1.004 -1.41)"/>
	<path class="cls-15" d="M13.571 73.337A11 11 0 1 1 24.983 83.91c-.154.005-.308.008-.462.007a10.76 10.76 0 0 1-10.95-10.566Zm5.32-.25c0 3.18 2.17 6.16 5.75 6.16 3.77 0 5.6-3.43 5.6-6.11s-1.83-6.16-5.66-6.16-5.69 3.151-5.69 6.08Z" transform="translate(-1.004 -1.41)"/>
	<path class="cls-15" d="M45.581 67.367h-4.11V62.7h13.51v4.669H50.9v16.16h-5.32Z" transform="translate(-1.004 -1.41)"/>
	<path class="cls-15" d="M60.861 73.337a11 11 0 1 1 11.412 10.572 9.467 9.467 0 0 1-.412.008 10.759 10.759 0 0 1-11-10.515Zm5.32-.25c0 3.18 2.17 6.16 5.75 6.16 3.77 0 5.6-3.43 5.6-6.11s-1.83-6.16-5.66-6.16-5.69 3.151-5.69 6.08Z" transform="translate(-1.004 -1.41)"/>
	<path class="cls-15" d="M90.561 83.527V62.7h7.13l3.91 13.43 3.8-13.43h7.15v20.83h-4.9l.17-15.6-4.5 15.6H99.8l-4.51-15.6.17 15.6Z" transform="translate(-1.004 -1.41)"/>
	<path class="cls-15" d="M121.9 62.7h5.32v20.83h-5.32Z" transform="translate(-1.004 -1.41)"/>
</svg>
