<svg version="1.1" id="Layer_1" xmlns="http://www.w3.org/2000/svg" x="0" y="0" viewBox="0 0 250 267.4" style="enable-background:new 0 0 250 267.4" xml:space="preserve">
	<style>
		.st1{fill:#76bfd0}.st3{fill:#96625c}.st4{fill:#b93248}.st9{fill:#3e505b}
	</style>
	<switch>
		<g>
			<g id="Layer_3">
				<path d="M115.2 119.7c-3.1-3.8-6.4-7.3-9.9-10.7-2.6-2.6-5.4-5.1-8.2-7.5-.4-.4-1-.4-1.4 0-9.3 6.1-19.3 11.1-29.8 14.9-4.4 1.6-9 2.9-13.6 4.1-4.5 1.1-9 1.9-13.5 2.8-1.1.2-1.4 0-1.8-1-.8-2.4-1.6-4.8-2.2-7.3 0-.3 0-.5-.4-.6v-.9h1.2c2.7-.7 5.4-1.5 8.1-2.4 3.5-1.1 7-2.4 10.5-3.8 4.4-1.8 8.7-3.8 13-6 5.3-2.9 10.5-6 15.4-9.5.9-.6.9-.7 0-1.3C69.3 81.2 54.5 74.2 39 69.6c-1.5-.6-3-1-4.6-1.2v-.7c.5 0 .4-.7.5-1 .7-2.4 1.4-4.7 2.2-7 .3-.8.7-1 1.4-.8 15.9 3.3 31.4 8.5 46 15.6 3.7 1.9 7.4 4 10.9 6.2.2 0 .5.2.6.5-.4.5-.8 1-1.3 1.4-3.5 2.7-6.7 5.5-10.5 7.9-.7.5-.7.7 0 1.2 3.9 2.7 7.7 5.7 11.4 8.8.4.4 1 .4 1.3 0 3.3-2.2 6.5-4.5 9.6-7 1.2-.7 2.2-1.6 3.1-2.6h.3c0 .3.3.5.6.7 4.2 3.6 8.1 7.4 11.9 11.5.9 1.1 1.8 2.1 2.8 3.1v.3c-.5.2-1 .6-1.3 1.1-2.8 3.5-5.6 7.3-8.1 11.2-.2.3-.4.7-.5 1.1l-.1-.2z" style="fill:#5b5b64"/>
				<path class="st1" d="M102.6 0c.5 2.4 1.3 4.8 2 7.2 2.7 8.8 6.2 17.4 10.5 25.6 2.8 5.3 6 10.5 9.4 15.4.2.3.5.6.7.8v.3c-3.2 4.2-6.4 8.4-9.8 12.5h-.3c-2-3.3-4-6.5-5.9-9.9-3.7-6.7-6.9-13.7-9.5-20.9-2.9-8.2-5-16.6-6.4-25.1 0-.7 0-1.4-.3-2s0-1 .8-1.3c2.3-.8 4.6-1.5 7-2.2.5-.1 1-.2 1.4-.5l.4.1z"/>
				<path d="M147.7 181.3c-.2-1.5-.5-2.9-1-4.3-4.4-15.8-11.5-30.7-20.9-44-.2-.2-.3-.4-.5-.6v-.3c.2-.2.5-.4.7-.7 2.9-4.2 6-8.2 9.4-12 2.2 3.2 4.2 6.6 6.1 10 7.5 13.6 12.7 28.4 15.4 43.8.2 1.4.4 2.8.7 4.2 0 .7 0 1.1-.8 1.3-2.4.8-4.7 1.6-7.2 2.2-.2 0-.5 0-.6.3l-1.3.1z" style="fill:#33576a"/>
				<path class="st3" d="M125 49.4V49c2.9-4 5.6-8.2 8-12.5 6.3-11.2 11.1-23.2 14.4-35.6.1-.3.1-.6 0-.9h.9c.2.5.7.3 1.2.5 2.3.7 4.7 1.4 7 2.2.8.3.9.7.7 1.4-1.6 7.3-3.5 14.5-5.7 21.6-3.8 12.4-9.1 24.3-15.9 35.3 0 .2-.2.6-.6.7-.3-.1-.6-.2-.7-.5-2.1-2.6-4.2-5.2-6.2-7.8-1-1.5-2-2.8-3.1-4z"/>
				<path class="st4" d="M125.2 132.1v.4c-3.5 4.8-6.7 9.9-9.5 15.2-5.6 10.5-10 21.5-13.1 32.9v.6h-.9l-5.1-1.6c-.9-.3-1.8-.7-2.7-.9-.9-.2-1-.6-.8-1.5.9-3.5 1.7-7.3 2.7-11 2.8-11 6.6-21.7 11.4-32 2.4-5.1 5.1-10 8.1-14.7h.3c.8 1.1 1.6 2.2 2.5 3.2l7.1 9.4z"/>
				<path class="st4" d="M154 80.6c1.7-1.3 3.5-2.5 5.4-3.5 14.3-8.5 30-14.4 46.4-17.4l5.7-.9c1.2-.2 1.4 0 1.8 1.1.9 2.3 1.5 4.7 2.2 7.2.3 1.2.3 1.2-.9 1.5-6.4 1.7-12.7 3.8-18.8 6.2-9.8 4-19.2 9.2-27.9 15.3-.3.2-.6.5-.9.8h-.3c-.1-.2-.3-.3-.4-.5-2.1-1.5-4.1-3-6.1-4.6-2.3-1.5-4.3-3.3-6.2-5.2z"/>
				<path class="st1" d="M166.5 90.7h.3c2.2 1.8 4.6 3.4 7 4.8 10.3 6.4 21.4 11.5 32.9 15.2 2.5.8 5.2 1.6 7.7 2.3.9.2 1.2.6.9 1.5-.8 2.6-1.5 5.2-2.4 7.8-.2.6-.5.8-1.3.7-14.9-3-29.5-7.8-43.3-14.1-4.6-2.3-9.1-4.9-13.5-7.7-.2 0-.6-.3-.7-.6.1-.2.2-.4.4-.5 1.4-1.2 2.8-2.4 4.3-3.5l7.7-5.9z"/>
				<path class="st1" d="M135 62.2c1.3 1.1 2.4 2.3 3.5 3.7 4.1 4.4 8.3 8.6 12.7 12.5.8.7 1.6 1.4 2.4 2.2l-7.4 5.3c-2 1.4-3.8 3.2-5.8 4.6-.7-.3-1.4-.8-1.8-1.4-3-2.7-6-5.4-8.7-8.4-1.6-1.7-3-3.5-4.8-5.2v-.2c.2-.1.4-.3.6-.5 3.2-3.9 6.2-7.9 8.9-12.1 0 .1.1-.3.4-.5z"/>
				<path class="st4" d="M125.4 106.3v-.3c2.3-2.6 4.6-5.3 7-7.8 2.5-2.7 5.2-5.2 8-7.5 3.5 2.7 6.8 5.3 10.5 7.8 1.1.6 2.1 1.3 3 2.1 0 .4-.5.6-.8.8-6 5.2-11.5 10.9-16.7 16.9l-.8.9c-3.3-4.5-6.6-8.9-10.2-12.9z"/>
				<path d="M153.7 100.7c-.9-.9-1.9-1.6-3-2.1-3.5-2.4-7-5.1-10.5-7.8v-.2c2.1-1.4 3.8-3.1 5.8-4.6l7.4-5.3h.3c1.8 1.8 3.8 3.5 5.9 5 2 1.6 4.1 3.1 6.1 4.6.2.1.3.3.4.5l-7.7 6c-1.5 1.2-2.9 2.3-4.3 3.5-.2.1-.3.3-.4.5v-.1z" style="fill:#542e40"/>
				<path d="M135 62.2c-.3 0-.5.4-.6.7-2.7 4.2-5.7 8.2-8.9 12-.2.2-.4.3-.6.5-2.5-2.9-4.8-5.9-7-9-1.2-1.4-2.1-2.9-2.9-4.5 3.5-4.1 6.6-8.3 9.8-12.5 1.2 1.2 2.2 2.6 3.1 4 2 2.6 4.1 5.2 6.2 7.8.2.3.4.5.7.5l.2.5z" style="fill:#404a4c"/>
				<path d="M125.4 106.3c3.6 4.1 6.9 8.5 9.9 13-3.3 3.8-6.5 7.8-9.4 12-.2.2-.4.5-.7.7l-7.3-9.3c-.9-1-1.8-2.1-2.5-3.2.1-.4.3-.8.5-1.1 2.5-3.9 5.3-7.5 8.1-11.2.4-.4.8-.8 1.4-.9z" style="fill:#2b1d24"/>
				<path class="st3" d="M115.2 61.9c.7 1.6 1.7 3.1 2.9 4.5 2.2 3.1 4.5 6.1 7 9v.2l-.2.2c-4.5 5.4-9.5 10.3-14.8 14.9h-.4c-1.8-1.7-3.8-3.1-5.8-4.6-2-1.5-5-3.5-7.5-5.2 2.5-2.3 5-4.6 7.5-7 3.7-3.5 7.3-7.4 10.7-11.3l.3-.6.3-.1z"/>
				<path d="M96.4 80.8c2.4 1.8 5.1 3.5 7.5 5.2 2.4 1.7 3.9 2.9 5.8 4.6-.8 1.1-1.9 2-3 2.7-3.1 2.5-6.3 4.8-9.6 7-.4.4-1 .4-1.3 0-3.6-3.2-7.4-6.1-11.4-8.9-.7-.5-.7-.8 0-1.2 3.5-2.4 7-5.3 10.5-7.9.5-.4 1-.9 1.3-1.4l.2-.1z" style="fill:#252629"/>
			</g>
			<path class="st9" d="M70.5 228.8c0 24-14.6 38.6-36 38.6C12.7 267.4 0 251 0 230.1c0-22 14-38.4 35.7-38.4 22.5 0 34.8 16.9 34.8 37.1zm-53 1c0 14.4 6.7 24.5 17.8 24.5 11.2 0 17.6-10.7 17.6-24.9 0-13.2-6.3-24.5-17.7-24.5-11.2 0-17.7 10.7-17.7 24.9z"/>
			<path class="st9" d="M92.5 206.8H72.8v-13.9h56.4v13.9h-20v59.4H92.5v-59.4z"/>
			<path class="st9" d="M137.9 193.9c5.3-.9 13.3-1.5 22.1-1.5 10.9 0 18.5 1.6 23.7 5.8 4.4 3.5 6.7 8.6 6.7 15.3 0 9.4-6.6 15.8-12.9 18.1v.3c5.1 2.1 7.9 7 9.8 13.7 2.3 8.3 4.6 17.8 6 20.7h-17c-1.2-2.1-2.9-8.1-5.1-17.1-2-9.1-5.1-11.6-11.9-11.7h-5v28.8h-16.4v-72.4zm16.5 31.6h6.5c8.3 0 13.2-4.1 13.2-10.6 0-6.7-4.6-10.1-12.2-10.2-4 0-6.3.3-7.5.5v20.3z"/>
			<path class="st9" d="M203 249.2c4.5 2.3 11.3 4.6 18.4 4.6 7.6 0 11.6-3.2 11.6-7.9 0-4.6-3.5-7.2-12.3-10.3-12.2-4.2-20.1-11-20.1-21.6 0-12.5 10.4-22.1 27.7-22.1 8.3 0 14.4 1.7 18.7 3.7l-3.7 13.4c-2.9-1.4-8.2-3.5-15.3-3.5-7.2 0-10.7 3.3-10.7 7.1 0 4.7 4.1 6.7 13.6 10.3 12.9 4.8 19 11.5 19 21.9 0 12.3-9.5 22.7-29.6 22.7-8.4 0-16.6-2.2-20.8-4.5l3.5-13.8z"/>
		</g>
	</switch>
</svg>
