<svg xmlns="http://www.w3.org/2000/svg" viewBox="-8.29 -8.29 431.08 79.33">
	<g fill="#2744a0">
		<path fill-rule="evenodd" d="M41.064 62.906H11.917c-13.791-16.875-15.798-40.49-5.05-59.45l18.904 32.84L46.613.001h30.685L41.084 62.887l-.02.02zm56.457-59.31c10.524 18.95 8.552 42.384-4.992 59.31H63.942l8.804-15.551H61.107L74.823 23.16H86.54l10.98-19.565"/>
		<path d="M126.573 32.375c0 13.8 6.299 20.382 17.127 20.382s17.128-6.582 17.128-20.382c0-13.872-6.3-20.455-17.128-20.455s-17.127 6.583-17.127 20.455zm-4.954 0c0-16.775 8.351-24.843 22.081-24.843 13.73 0 22.083 8.068 22.083 24.843 0 16.63-8.352 24.771-22.083 24.771-13.73 0-22.081-8.14-22.081-24.771m80.26-22.861c.212-.567.92-1.557 2.264-1.557a2.387 2.387 0 0 1 2.408 2.407c0 .424-.143.848-.213 1.061l-16.563 43.668c-.353.99-1.344 1.628-2.264 1.628-.92 0-1.91-.637-2.264-1.628l-16.562-43.668c-.07-.213-.213-.637-.213-1.061a2.387 2.387 0 0 1 2.406-2.407c1.344 0 2.054.99 2.266 1.557l14.367 38.078L201.88 9.514M216.6 33.93v20.384c0 1.274-1.062 2.406-2.406 2.406s-2.407-1.132-2.407-2.406V10.364c0-1.275 1.063-2.407 2.407-2.407s2.406 1.132 2.406 2.407v19.179h24.63v-19.18c0-1.274 1.063-2.406 2.406-2.406 1.345 0 2.406 1.132 2.406 2.407v43.95c0 1.275-1.061 2.407-2.406 2.407-1.343 0-2.406-1.132-2.406-2.406V33.93h-24.63m52.162-10.898c6.3 0 9.767 3.325 10.9 4.882.354.496.495.85.495 1.346 0 1.202-.92 2.051-2.052 2.051-.708 0-1.202-.282-1.698-.849-1.062-1.202-2.974-3.326-7.645-3.326-6.51 0-9.977 4.175-9.977 12.881 0 8.847 3.466 12.953 9.977 12.953 4.106 0 6.583-1.84 8.21-3.044.495-.355.85-.495 1.345-.495 1.132 0 2.052.92 2.052 2.05 0 .64-.212 1.135-.92 1.77-1.556 1.274-4.953 3.823-10.687 3.823-9.128 0-14.579-5.45-14.579-17.057s5.45-16.985 14.579-16.985m22.579-15.005V48.44c0 2.83.92 4.033 2.832 4.033a2.13 2.13 0 0 1 2.124 2.124c0 1.202-.992 2.123-2.124 2.123-4.743 0-7.363-2.83-7.363-8.28V8.028c0-1.203 1.063-2.264 2.267-2.264 1.273 0 2.264 1.06 2.264 2.264m33.973 31.99c0-8.918-3.751-12.881-10.263-12.881-6.51 0-10.261 3.963-10.261 12.881 0 9.06 3.75 12.953 10.261 12.953 6.512 0 10.263-3.893 10.263-12.953zm4.6 0c0 11.608-5.662 17.057-14.863 17.057-9.129 0-14.862-5.45-14.862-17.057s5.733-16.985 14.862-16.985c9.201 0 14.862 5.378 14.862 16.985m10.901-14.296v18.471c0 4.6 1.486 8.564 8.635 8.564 7.15 0 8.634-3.963 8.634-8.564V25.722c0-1.274 1.062-2.265 2.335-2.265 1.205 0 2.196.991 2.196 2.265v18.471c0 6.724-2.196 12.882-13.165 12.882-10.9 0-13.164-6.158-13.164-12.882V25.722c0-1.274.99-2.265 2.264-2.265 1.204 0 2.265.991 2.265 2.265m52.022 7.644s-2.69-6.23-9.343-6.23c-6.44 0-9.98 4.176-9.98 12.882 0 8.847 3.469 12.953 9.98 12.953 5.45 0 9.343-3.115 9.343-9.839zm0-5.733V8.028c0-1.275.99-2.264 2.265-2.264 1.273 0 2.264.99 2.264 2.264v35.104c0 9.342-5.802 13.943-13.872 13.943-9.13 0-14.51-5.45-14.51-17.057s5.097-16.985 14.226-16.985c4.531 0 7.999 2.334 9.627 4.6m8.004-18.507a.376.376 0 0 1-.382-.382c0-.215.167-.381.382-.381h5.065c.213 0 .38.166.38.38a.376.376 0 0 1-.38.383h-2.121v6.946c0 .226-.18.405-.407.405a.403.403 0 0 1-.405-.405V9.126h-2.132m9.854 5.731-2.49-4.635v5.862a.397.397 0 0 1-.394.393.398.398 0 0 1-.393-.393V8.66c0-.214.18-.393.393-.393.18 0 .299.107.359.227l2.884 5.397 2.894-5.397c.048-.083.143-.227.358-.227.214 0 .393.179.393.393v7.424a.397.397 0 0 1-.393.393.397.397 0 0 1-.394-.393v-5.862l-2.502 4.635a.396.396 0 0 1-.715 0"/>
	</g>
</svg>
