<svg width="298" height="185" fill="none" xmlns="http://www.w3.org/2000/svg">
	<path d="M29.375 120.515c18.2 0 30.227-13.304 30.227-30.227 0-13.09-8.62-25.437-25.543-25.437-18.2 0-30.334 13.304-30.334 30.227 0 13.091 8.728 25.437 25.65 25.437Zm1.171-13.623c-7.556 0-12.027-5.215-12.027-13.091 0-8.515 5.96-15.327 14.262-15.327 7.557 0 12.134 5.11 12.134 13.092 0 8.514-6.067 15.326-14.369 15.326Zm121.851 13.623c18.2 0 30.227-13.304 30.227-30.227 0-13.09-8.621-25.437-25.544-25.437-18.2 0-30.334 13.304-30.334 30.227 0 13.091 8.728 25.437 25.651 25.437Zm1.17-13.623c-7.556 0-12.026-5.215-12.026-13.091 0-8.515 5.96-15.327 14.262-15.327 7.556 0 12.133 5.11 12.133 13.092 0 8.514-6.067 15.326-14.369 15.326Zm26.79 12.346h14.581l5.641-26.502c2.129-10.11 7.238-14.687 14.049-14.687 6.28 0 9.366 4.683 7.663 12.559l-6.066 28.63h14.581l6.28-29.695c2.66-12.346-3.087-24.586-16.285-24.586-6.492 0-12.239 2.768-15.752 6.6l1.171-5.535h-14.581l-11.282 53.216Zm84.365 1.171c11.707 0 19.264-4.47 24.373-11.282l-10.75-8.408c-2.98 3.725-6.492 6.386-12.559 6.386-7.025 0-12.666-3.938-13.091-11.07h40.657c3.406-18.838-8.302-31.184-24.054-31.184-18.732 0-30.333 12.772-30.333 30.227 0 13.517 8.834 25.331 25.757 25.331Zm3.512-43.531c5.96 0 10.856 3.086 11.388 9.26h-25.969c2.235-6.28 8.94-9.26 14.581-9.26Z" fill="#2F3337"/>
	<path d="m74.134 117.763 24.338-17.067 18.47-15.834 46.425-34.617L59.782 70.182l15.998 4.944 15.998 4.944-46.96 40.259 29.316-2.566Z" fill="#9EDF4A"/>
	<path d="m121.953 74.725-23.81 14.31-19.79 12.124-54.474 30.903 104.019-19.546-32.121-9.849 54.539-43.1-28.363 15.158Z" fill="url(#a)"/>
	<path d="m74.127 117.763 24.337-17.067 18.47-15.834 46.425-34.617L59.775 70.182l15.997 4.944L91.77 80.07l-46.96 40.26 29.317-2.566Z" fill="#9EDF4A"/>
	<path d="m121.945 74.725-23.81 14.31-19.79 12.124-54.474 30.903 104.019-19.546-32.121-9.849 54.539-43.1-28.363 15.158Z" fill="url(#b)"/>
	<defs>
		<linearGradient id="a" x1="97.966" y1="97.04" x2="95.961" y2="92.734" gradientUnits="userSpaceOnUse">
			<stop stop-color="#9EDF4A" offset="0%"/>
			<stop offset="1" stop-color="#58AC84"/>
		</linearGradient>
		<linearGradient id="b" x1="97.958" y1="97.04" x2="95.953" y2="92.734" gradientUnits="userSpaceOnUse">
			<stop stop-color="#9EDF4A" offset="0%"/>
			<stop offset="1" stop-color="#58AC84"/>
		</linearGradient>
	</defs>
</svg>
