<svg height="128" width="200" xmlns="http://www.w3.org/2000/svg">
	<path d="M176.012 54.464 172.4 64.706c-.657 1.838-.985 2.889-1.593 4.661h-.065c-.476-1.526-.9-2.757-1.527-4.563L165.7 54.447h-4.2l7.271 19.007c-.164.411-.328.837-.509 1.281a3.947 3.947 0 0 1-3.644 2.445h-1.805v3.234h1.855a7.341 7.341 0 0 0 6.828-4.629c2.314-5.794 6.253-15.659 8.5-21.321zM75.183 69.81c0 6.878-3.152 10.6-9.52 10.6-4.744 0-7.6-2.5-8.617-6.254h3.84a4.767 4.767 0 0 0 4.842 3.3c4.35 0 5.893-2.708 5.893-7.862-.033 0-.033-.033-.066-.033-.935 1.625-3.036 3.07-6.368 3.07-5.351 0-8.765-3.874-8.765-9.307 0-5.646 3.693-9.454 8.8-9.454a7.315 7.315 0 0 1 6.368 2.971c-.033-.394-.033-.8-.033-1.2v-1.2h3.628zM60.41 63.294c0 3.693 2.068 6.336 5.614 6.336 3.184 0 5.646-2.249 5.646-6.451 0-3.726-2.167-6.22-5.646-6.22s-5.614 2.494-5.614 6.335zm20.764 1.625c.147 3.332 2.281 5.975 5.974 5.975a5.11 5.11 0 0 0 4.842-2.856h3.66c-1.083 3.43-4.087 5.892-8.65 5.892-5.859 0-9.519-3.939-9.519-9.881S81.288 53.922 87 53.922c6.188 0 9.044 4.711 9.044 9.815v1.2h-14.87zm11.062-2.889c-.328-3-2.215-5.137-5.318-5.137a5.464 5.464 0 0 0-5.613 5.137zm9.668-7.566v2.429A4.671 4.671 0 0 1 106.5 54a5.776 5.776 0 0 1 .935.066V57.4a7.49 7.49 0 0 0-1.263-.115c-3.431 0-4.087 2.528-4.087 6.335v9.849h-3.661V57.878c0-1.2 0-2.249-.033-3.4h3.509zm43.119 16.282a6.64 6.64 0 0 1-6.041 3.184c-4.415 0-6.581-2.708-6.581-7.632V54.464h3.643v10.455c0 3.726 1.231 5.975 4.2 5.975 3.907 0 4.6-3.546 4.6-7.715v-8.715h3.66V70.6c0 .985 0 1.921.033 2.856h-3.512v-2.71zm11.7-16.282h3.546v2.823h-3.546v11.407c0 1.806.9 2.347 2.315 2.347a7.761 7.761 0 0 0 .9-.065v2.708a11.429 11.429 0 0 1-1.412.148c-3.365 0-5.5-1.116-5.5-4.924V57.287h-2.856v-2.823h2.856v-5.138h3.693zM20 66.561h3.792v6.893H20zM34.28 48.85c-2.035-1.083-3.447-1.264-6.779-1.264H20v15.692h7.468c2.971 0 5.187-.181 7.14-1.477a7.467 7.467 0 0 0 3.234-6.467 7.1 7.1 0 0 0-3.562-6.484zM28.338 60h-4.546v-9.049l4.284-.033c3.906-.049 5.859 1.33 5.859 4.448 0 3.349-2.413 4.634-5.597 4.634zm81.33-12.409H116c9.487.066 14.05 4.7 14.083 13 .033 7.074-3.627 12.786-13.459 12.885h-6.943v-25.89zm3.84 22.651h2.216c6.878 0 10.472-2.626 10.472-9.667-.016-6.188-3.578-9.734-10.111-9.734-1.263 0-2.577.033-2.577.033zm-62.371 3.229a24.024 24.024 0 0 1-.181-2.61c-1.444 2.068-3.365 2.971-6.4 2.971-3.989 0-6.878-1.953-6.878-5.5 0-4.087 3.907-5.433 8.979-6.122a66.05 66.05 0 0 1 3.906-.427c0-3.759-2.084-4.891-4.267-4.891a3.566 3.566 0 0 0-3.776 3.529h-3.546c0-3.857 3.037-6.451 7.4-6.451s7.731 1.806 7.731 8.765v3.693a39.247 39.247 0 0 0 .476 7.058h-3.444zm-9.52-5.187c0 1.773 1.444 2.889 3.758 2.889 3.4 0 5.22-2.068 5.22-5.761a8.031 8.031 0 0 1 .033-1.018c-6.188.64-9.011 1.247-9.011 3.89z" fill="#231f20"/>
</svg>
