<svg xmlns="http://www.w3.org/2000/svg" width="200" height="128">
	<path fill="#231F20" d="M87.977 54.2a14.268 14.268 0 0 0-6.87 1.986l1.476 3.65a12.273 12.273 0 0 1 5.609-1.852c1.583 0 2.281.59 2.281 1.369v.047c0 .537-.429.832-1.476.94l-1.825.188c-4.562.483-6.441 2.469-6.441 5.206v.188c0 2.6 2.147 4.642 5.18 4.642a5.717 5.717 0 0 0 4.789-2.327l.341 2.063h4.132v-9.366c0-4.428-2.549-6.736-7.192-6.736m-.4 12.8c-1.53 0-2.255-.59-2.255-1.5v-.053c0-.806.457-1.4 2.12-1.637l.725-.108a5.707 5.707 0 0 0 2.308-.7v1.188A2.631 2.631 0 0 1 87.575 67"/>
	<path fill="#EF4E23" d="m49.118 54.305-5.287-5.286-5.287 5.286 2.63 2.63-13.257 13.258 5.287 5.286 5.286-5.286-2.63-2.63 13.258-13.258z"/>
	<path fill="#EF4E23" d="M20 62.276 33.258 49.02l5.287 5.287-13.258 13.257z"/>
	<path fill="#EF4E23" d="m38.49 70.193 13.257-13.258 5.287 5.287L43.777 75.48z"/>
	<path fill="#231F20" d="M97.853 48.831h4.696V70.3h-4.696zM72.841 54.2a5.512 5.512 0 0 0-4.793 2.424l-.359-2.156h-4.133v21.2h4.7v-7.349a5.353 5.353 0 0 0 4.589 2.249c3.757 0 6.817-3.327 6.817-7.916v-.537c0-4.589-3.06-7.917-6.817-7.917m1.986 8.319c0 2.416-1.261 4.16-3.354 4.16s-3.355-1.744-3.355-4.16v-.268c0-2.415 1.261-4.16 3.355-4.16s3.354 1.745 3.354 4.16zm91.08-8.317c-4.8 0-8.186 3.328-8.186 7.917v.537c0 4.589 3.382 7.916 8.186 7.916s8.185-3.327 8.185-7.916v-.537c0-4.589-3.382-7.917-8.185-7.917m3.354 8.319c0 2.416-1.261 4.16-3.354 4.16s-3.355-1.744-3.355-4.16v-.268c0-2.415 1.261-4.16 3.355-4.16s3.354 1.745 3.354 4.16zm9.259-7.355v-.08c0-.457-.349-.779-.966-.779h-1.074v2.469h.51v-.832h.567l.426.832h.564l-.525-.977a.644.644 0 0 0 .5-.633m-1.53-.4h.564c.322 0 .456.107.456.349v.026c0 .215-.134.349-.456.349h-.564z"/>
	<path fill="#231F20" d="M177.451 52.99A2.55 2.55 0 1 0 180 55.54a2.5 2.5 0 0 0-2.549-2.55m0 4.75a2.2 2.2 0 1 1 2.173-2.2 2.107 2.107 0 0 1-2.173 2.2m-38.243-8.909h4.696V70.3h-4.696zm13.955 17.846c-1.368 0-1.878-.671-1.878-2.12v-6.468h5.528v-3.623h-5.528v-3.623l-4.7.7v13.47c0 3.677 1.879 5.555 5.636 5.555a11.122 11.122 0 0 0 5.233-1.422l-1.342-3.328a7.478 7.478 0 0 1-2.952.859M129.332 54.2a14.268 14.268 0 0 0-6.87 1.986l1.476 3.65a12.277 12.277 0 0 1 5.609-1.852c1.584 0 2.281.59 2.281 1.369v.047c0 .537-.429.832-1.476.94l-1.825.188c-4.562.483-6.441 2.469-6.441 5.206v.188c0 2.6 2.148 4.642 5.18 4.642a5.721 5.721 0 0 0 4.786-2.33l.34 2.062h4.133v-9.362c0-4.428-2.55-6.736-7.193-6.736m-.4 12.8c-1.53 0-2.254-.59-2.254-1.5v-.053c0-.806.456-1.4 2.12-1.637l.724-.108a5.707 5.707 0 0 0 2.308-.7v1.188a2.631 2.631 0 0 1-2.9 2.812m-16.102-12.8c-4.8 0-8.185 3.328-8.185 7.917v.537c0 4.589 3.381 7.916 8.185 7.916s8.185-3.327 8.185-7.916v-.537c0-4.589-3.381-7.917-8.185-7.917m3.354 8.319c0 2.416-1.261 4.16-3.354 4.16s-3.355-1.744-3.355-4.16v-.268c0-2.415 1.262-4.16 3.355-4.16s3.354 1.745 3.354 4.16zm4.831 11.619h1.521l2.101 2.77h.021v-2.77h1.396v4.885h-1.473l-2.149-2.841h-.021v2.841h-1.396v-4.885zm6.895 0h4.271l.055 1.186h-2.868v.67h2.254v1.082h-2.254v.76h2.952l-.056 1.187h-4.354v-4.885zm7.383 1.256h-1.71l.056-1.256h4.78l.056 1.256h-1.71v3.629h-1.472v-3.629zm4.361-1.256h1.563l.796 3.391h.077l1.032-3.391h1.431l1.012 3.391h.077l.781-3.391h1.494l-1.284 4.885h-1.919l-.894-2.945h-.042l-.907 2.945h-1.926l-1.291-4.885zm9.337 2.442a2.4 2.4 0 0 1 1.209-2.219 3.231 3.231 0 0 1 1.582-.37 3.413 3.413 0 0 1 1.334.248 2.388 2.388 0 0 1 1.458 2.341 2.8 2.8 0 0 1-5.583 0m4.124 0a1.321 1.321 0 0 0-.422-1.057 1.578 1.578 0 0 0-1.816 0 1.323 1.323 0 0 0-.428 1.062 1.333 1.333 0 1 0 2.666 0m3.043-2.447H159c1.3 0 1.933.614 1.933 1.751a1.523 1.523 0 0 1-.949 1.564l1.158 1.57h-1.66l-.9-1.284h-.963v1.284h-1.465zm2.659 2.456a.639.639 0 1 0 0-1.277h-1.194v1.277zm4.026-2.456h1.466v1.8h.6l1.43-1.8h1.647l.007.007-1.87 2.337 1.975 2.534-.007.007h-1.71l-1.479-1.877h-.593v1.877h-1.466v-4.885zm6.378 4.562v-1.34h.007a5.235 5.235 0 0 0 2.3.614c.523 0 .789-.126.789-.37s-.175-.307-1.222-.475c-1.144-.181-1.905-.523-1.905-1.507 0-.914.8-1.619 2.373-1.619a4.885 4.885 0 0 1 1.891.391v1.326l-.007.007a4.281 4.281 0 0 0-1.989-.545c-.558 0-.781.133-.781.356 0 .286.342.314 1.2.461 1.145.195 1.905.516 1.905 1.549 0 .8-.6 1.605-2.324 1.605a5.836 5.836 0 0 1-2.24-.453"/>
</svg>
