<svg width="1024" height="1024" xmlns="http://www.w3.org/2000/svg" xmlns:xlink="http://www.w3.org/1999/xlink">
	<defs>
		<path id="a" d="M0 447.975h991.232V0H0z"/>
	</defs>
	<g fill="none" fill-rule="evenodd">
		<path d="M223.88 690.48c30.6 0 45.9 12.96 45.9 39.06 0 26.28-15.48 39.42-46.26 39.42h-33.3V819H170.6V690.48Zm-1.62 16.74h-32.04v45h32.04c9.72 0 16.74-1.8 21.24-5.4 4.32-3.6 6.66-9.36 6.66-17.28 0-7.92-2.34-13.68-6.84-16.92-4.5-3.6-11.52-5.4-21.06-5.4Zm105.84 16.2c13.68 0 23.76 3.42 30.24 10.26 5.58 5.94 8.46 14.58 8.46 25.92V819h-17.64v-13.14c-3.6 4.68-8.1 8.46-13.5 11.16-6.12 2.88-13.32 4.5-21.6 4.5-9.72 0-17.28-2.52-22.68-7.38-5.94-4.86-8.82-11.16-8.82-18.9 0-10.44 4.14-18.54 12.42-24.12 7.56-5.4 18.36-8.1 32.04-8.46l20.88-.54v-3.78c0-12.96-7.02-19.44-21.06-19.44-5.94 0-10.8 1.08-14.4 3.24-4.32 2.52-7.02 6.3-8.1 11.52l-18.9-1.62c1.98-10.08 7.02-17.64 14.94-22.32 6.84-4.32 16.2-6.3 27.72-6.3Zm19.8 52.56-19.62.54c-17.46.36-26.1 6.48-26.1 18 0 3.6 1.44 6.48 4.5 8.82 2.88 2.34 6.84 3.6 11.7 3.6 8.1 0 14.94-2.52 20.7-7.38 5.76-4.86 8.82-10.98 8.82-18.18v-5.4ZM407.66 819v-55.98c.72-7.56 3.42-13.5 7.74-17.82 3.96-3.96 8.82-5.76 14.22-5.76 14.4 0 21.78 7.92 21.78 23.76V819h19.08v-57.42c0-25.56-11.7-38.16-34.74-38.16-5.76 0-10.98 1.08-15.66 3.6-4.68 2.34-8.82 5.76-12.42 10.44v-11.52h-19.08V819h19.08ZM578.3 687.96V819h-17.82v-11.16c-6.48 9-16.2 13.68-28.8 13.68-13.68 0-24.48-4.86-32.22-14.58-7.2-9-10.8-20.7-10.8-34.92 0-13.68 3.42-25.02 10.62-34.02 7.56-9.72 18.18-14.58 31.5-14.58 11.34 0 20.88 5.4 28.44 16.38v-51.84h19.08Zm-43.2 50.94c-9.36 0-16.38 3.06-20.88 9.54-3.96 5.4-5.94 13.32-5.94 23.58 0 10.26 1.8 18.18 5.58 23.94 4.32 6.66 11.34 10.08 20.7 10.08 8.28 0 14.58-3.42 19.26-9.9 3.96-5.94 5.94-13.5 5.94-22.86v-1.62c0-10.08-2.52-18.18-7.2-24.3-4.68-5.76-10.44-8.46-17.46-8.46Zm107.64-15.48c14.04 0 25.38 4.68 33.84 14.04 8.28 9.18 12.6 20.88 12.6 35.1 0 14.04-4.14 25.74-12.42 34.74-8.64 9.36-19.98 14.22-34.02 14.22-14.04 0-25.38-4.86-34.02-14.22-8.28-9-12.42-20.7-12.42-34.74 0-14.22 4.14-25.92 12.6-35.1 8.46-9.36 19.8-14.04 33.84-14.04Zm0 15.66c-8.82 0-15.66 3.42-20.52 10.44-4.32 5.94-6.3 13.68-6.3 23.04s1.98 16.92 6.3 22.86c4.86 6.84 11.7 10.44 20.52 10.44s15.66-3.6 20.7-10.44c4.32-6.12 6.48-13.68 6.48-22.86 0-9.36-2.16-17.1-6.48-23.04-5.04-7.02-11.88-10.44-20.7-10.44Zm83.7 79.92v-49.32c0-8.1 2.34-14.76 7.2-19.8 4.5-4.68 9.72-7.02 15.48-7.02 4.32 0 8.82.54 13.5 1.98v-19.08c-3.24-1.62-7.38-2.34-12.06-2.34-5.76 0-10.8 1.62-15.12 5.22-3.6 2.52-6.66 6.3-9 11.34v-14.04h-19.08V819h19.08Zm89.82-95.58c13.68 0 23.76 3.42 30.24 10.26 5.58 5.94 8.46 14.58 8.46 25.92V819h-17.64v-13.14c-3.6 4.68-8.1 8.46-13.5 11.16-6.12 2.88-13.32 4.5-21.6 4.5-9.72 0-17.28-2.52-22.68-7.38-5.94-4.86-8.82-11.16-8.82-18.9 0-10.44 4.14-18.54 12.42-24.12 7.56-5.4 18.36-8.1 32.04-8.46l20.88-.54v-3.78c0-12.96-7.02-19.44-21.06-19.44-5.94 0-10.8 1.08-14.4 3.24-4.32 2.52-7.02 6.3-8.1 11.52l-18.9-1.62c1.98-10.08 7.02-17.64 14.94-22.32 6.84-4.32 16.2-6.3 27.72-6.3Zm19.8 52.56-19.62.54c-17.46.36-26.1 6.48-26.1 18 0 3.6 1.44 6.48 4.5 8.82 2.88 2.34 6.84 3.6 11.7 3.6 8.1 0 14.94-2.52 20.7-7.38 5.76-4.86 8.82-10.98 8.82-18.18v-5.4Z" fill="#2C6DD2" fill-rule="nonzero"/>
		<g transform="translate(16 139)">
			<path d="M496.252 71.55c85.479 0 154.838 67.679 155.44 151.304h13.13c-.602-90.785-75.855-164.219-168.57-164.219-92.786 0-168.039 73.434-168.64 164.22h13.2c.605-83.626 69.964-151.305 155.44-151.305m0 304.876c-81.153 0-147.763-61.01-154.814-138.812h-13.265c7.084 84.971 79.612 151.727 168.08 151.727 88.397 0 160.924-66.756 168.005-151.727h-13.19c-7.054 77.802-73.66 138.812-154.816 138.812" fill="#2C6DD2"/>
			<path d="M316.854 222.855c.617-97.633 80.7-176.51 179.362-176.51 98.663 0 178.743 78.877 179.363 176.51h46.797C721.758 99.687 620.738 0 496.216 0 371.695 0 270.672 99.687 270.055 222.855h46.799Z" fill="#2C6DD2"/>
			<path d="M675.026 237.615c-7.04 91.712-84.398 164.014-178.809 164.014-94.413 0-171.771-72.302-178.81-164.014h-46.924c7.12 117.343 105.454 210.36 225.734 210.36 120.28 0 218.613-93.017 225.73-210.36h-46.92Z" fill="#2C6DD2"/>
			<mask id="b" fill="#fff">
				<use xlink:href="#a"/>
			</mask>
			<path fill="#2C6DD2" mask="url(#b)" d="M295.012 222.855h395v-22.142h-395z"/>
			<path d="M700.565 126.912s29.81 73.802 126.705 81.182c23.493 1.787 67.077 7.38 163.962 14.76H678.206l22.359-95.942Z" fill="#2C6DD2" mask="url(#b)"/>
			<path d="M290.66 134.292s-29.81 66.423-126.698 73.803c-23.503 1.787-67.076 7.38-163.961 14.76h313.018l-22.359-88.563Z" fill="#2C6DD2" mask="url(#b)"/>
		</g>
	</g>
</svg>
