<svg xmlns="http://www.w3.org/2000/svg" width="200" height="128">
	<path d="M24.2 70.653a11.011 11.011 0 0 1-4.123-.748v-2.123a18.357 18.357 0 0 0 4.095.825c1.35 0 2.674-.249 2.674-1.871 0-1.249-.926-1.527-2.074-1.851l-1.074-.3c-1.4-.4-3.694-.971-3.694-3.769 0-3.146 2.546-3.893 5.168-3.893a7.955 7.955 0 0 1 3.694.773v2.046a9.951 9.951 0 0 0-3.792-.824c-1.648 0-2.7.325-2.7 1.748 0 1.224.947 1.524 2.1 1.823l1.3.35c1.522.4 3.469 1.3 3.469 3.792 0 3.172-2.269 4.02-5.041 4.02m13.917 0c2.47 0 6.164-.75 6.164-6.865 0-6.043-3.792-6.865-6.164-6.865-2.546 0-6.167 1-6.167 6.865 0 6.04 3.593 6.865 6.167 6.865m0-11.885c1.371 0 3.668.349 3.668 5.018 0 4.493-2.449 4.992-3.668 4.992-1.024 0-3.673-.349-3.673-4.992 0-4.594 2.3-5.018 3.673-5.018m9.4 11.63h2.494V52.821h-2.498zm16.969 0v-8.931c0-3.471-2-4.545-4.894-4.545a14.5 14.5 0 0 0-4.969.926v2.023a16.117 16.117 0 0 1 4.617-.926c1.723 0 2.747.4 2.747 2.121v1.149h-2.92c-2.122 0-5.567.7-5.567 4.369 0 3.347 2.222 4.071 4.245 4.071a5.723 5.723 0 0 0 4.319-1.973l.249 1.723h2.173zm-2.5-3.419a6.369 6.369 0 0 1-3.621 1.725c-1.324 0-2.372-.5-2.372-2.2 0-2.151 1.348-2.747 3.621-2.77l2.372-.028zm11.53-7.813a5.281 5.281 0 0 1 2.073.377v-2.269A3.678 3.678 0 0 0 70.7 59l-.326-1.826H68.4V70.4h2.494v-9.633a3.888 3.888 0 0 1 2.622-1.6m25.274-2h-2.8l-1.59 7.596c-.427 1.973-.828 4.493-.828 4.493s-.548-2.773-1.073-4.493l-2.269-7.594h-3.6l-2.273 7.594c-.523 1.748-1.048 4.493-1.048 4.493s-.427-2.745-.8-4.493l-1.6-7.594h-2.844L81.557 70.4h3.448l2.044-7.065c.527-1.826 1.376-4.943 1.376-4.943s.8 3.094 1.348 4.966l2.048 7.042h3.471zm3.117 13.233h2.5V57.083h-2.5zm18.145 0v-9.033c0-3.371-1.851-4.445-4.3-4.445a8.112 8.112 0 0 0-5.019 2.122l-.5-1.873h-1.922v13.234h2.5v-9.662a8.342 8.342 0 0 1 4.369-1.673c1.7 0 2.373.627 2.373 2.273v9.064h2.5zm14.9 0V52.823h-2.5v5.445a4.639 4.639 0 0 0-3.5-1.348c-1.774 0-5.993.851-5.993 6.87 0 5.94 3.422 6.863 5.491 6.863a5.412 5.412 0 0 0 4.271-1.924l.274 1.674zm-2.5-3.247a6.215 6.215 0 0 1-3.5 1.522c-1.549 0-3.5-.523-3.5-4.89 0-4.146 1.922-4.873 3.746-4.873a5.244 5.244 0 0 1 3.246 1.327v6.914zm10.178 3.5c2.773 0 5.044-.848 5.044-4.022 0-2.494-1.95-3.4-3.474-3.792l-1.3-.35c-1.146-.3-2.1-.6-2.1-1.823 0-1.423 1.048-1.749 2.7-1.749a9.949 9.949 0 0 1 3.793.825V57.7a7.952 7.952 0 0 0-3.694-.774c-2.623 0-5.169.748-5.169 3.894 0 2.8 2.3 3.373 3.694 3.769l1.076.3c1.146.326 2.07.6 2.07 1.851 0 1.622-1.32 1.871-2.672 1.871a18.387 18.387 0 0 1-4.093-.825V69.9a10.921 10.921 0 0 0 4.121.75" fill="#3d3e3c"/>
	<path d="M159.316 49.11c-1.8.493-3.621.893-5.4 1.446a23.775 23.775 0 0 0-13.38-5.982 43.471 43.471 0 0 1 25.24-8.173l-3.111 2.857s13.184-.47 16.512-5.015a6 6 0 0 1-.433 1.374 14.843 14.843 0 0 1-4.8 6.778 27.424 27.424 0 0 1-6.842 3.9 65.988 65.988 0 0 1-7.435 2.726c-.118.028-.229.06-.347.09m20.68-.449a72.625 72.625 0 0 0-24.807 3.138 23.861 23.861 0 0 1 4.17 5.953c6.649-3.7 15.865-8.425 20.637-9.094m-19.8 10.998a23.6 23.6 0 0 1 1.5 6.293l11.581-11.916zm6.25 6.265a.995.995 0 1 0 0-1.988.995.995 0 1 0 0 1.988m0-1.768a.773.773 0 1 1-.786.774.724.724 0 0 1 .786-.774m.418 1.262-.082-.225a.58.58 0 0 0-.132-.227.269.269 0 0 0 .182-.259c0-.268-.212-.306-.412-.306h-.31v1.02h.214v-.395h.133a.484.484 0 0 1 .111.231l.047.168h.249zm-.442-.855c.157 0 .193.022.193.142s-.064.167-.291.167v-.309h.1" fill="#f99d1c"/>
	<path d="M150.8 77.195a.988.988 0 0 1-.066.371.844.844 0 0 1-.184.285.826.826 0 0 1-.281.184.924.924 0 0 1-.358.067.973.973 0 0 1-.36-.065.807.807 0 0 1-.281-.184.818.818 0 0 1-.182-.287 1.029 1.029 0 0 1-.064-.371 1 1 0 0 1 .066-.373.84.84 0 0 1 .185-.287.827.827 0 0 1 .28-.186.925.925 0 0 1 .356-.067.934.934 0 0 1 .36.067.831.831 0 0 1 .281.186.818.818 0 0 1 .182.287.991.991 0 0 1 .066.373zm-.126 0a.958.958 0 0 0-.06-.345.8.8 0 0 0-.163-.253.673.673 0 0 0-.24-.156.864.864 0 0 0-.3-.054.786.786 0 0 0-.3.054.681.681 0 0 0-.242.156.731.731 0 0 0-.163.253 1.043 1.043 0 0 0 0 .686.781.781 0 0 0 .163.253.681.681 0 0 0 .242.156.849.849 0 0 0 .3.052.872.872 0 0 0 .3-.052.672.672 0 0 0 .242-.156.736.736 0 0 0 .163-.253.938.938 0 0 0 .054-.341zm-.536.48-.266-.4h-.075v.383h-.222v-1.001h.345a.422.422 0 0 1 .274.08.3.3 0 0 1-.092.505l.27.4zm-.071-.7c0-.095-.055-.142-.165-.142h-.1v.285h.1c.106.006.161-.043.161-.139z" fill="#fff"/>
	<path d="M74.694 89.756a3.285 3.285 0 0 1-2.764-1.279h-.118q.119 1.185.118 1.44v3.84h-1.991V80.214h1.609q.067.264.279 1.254h.1a3.118 3.118 0 0 1 2.8-1.423 3.25 3.25 0 0 1 2.732 1.271 6.969 6.969 0 0 1-.017 7.152 3.27 3.27 0 0 1-2.748 1.288zm-.484-8.085a2.072 2.072 0 0 0-1.734.695 3.6 3.6 0 0 0-.546 2.22v.3a4.387 4.387 0 0 0 .542 2.48 2.016 2.016 0 0 0 1.772.767 1.8 1.8 0 0 0 1.594-.849 4.375 4.375 0 0 0 .559-2.415 4.232 4.232 0 0 0-.554-2.387 1.857 1.857 0 0 0-1.633-.811zm11.973 7.916-.4-1.305h-.069a3.823 3.823 0 0 1-1.365 1.165 4.32 4.32 0 0 1-1.763.309 2.99 2.99 0 0 1-2.158-.746 2.793 2.793 0 0 1-.776-2.11 2.474 2.474 0 0 1 1.076-2.186 6.209 6.209 0 0 1 3.279-.806l1.617-.051v-.5a1.892 1.892 0 0 0-.42-1.344 1.7 1.7 0 0 0-1.3-.446 4.483 4.483 0 0 0-1.382.213 10.515 10.515 0 0 0-1.273.5l-.645-1.423a6.934 6.934 0 0 1 1.669-.606 7.757 7.757 0 0 1 1.712-.208 4.053 4.053 0 0 1 2.7.78 3.06 3.06 0 0 1 .911 2.449v6.313h-1.413zm-2.965-1.357a2.464 2.464 0 0 0 1.742-.606 2.2 2.2 0 0 0 .658-1.7v-.814l-1.2.052a4.138 4.138 0 0 0-2.047.469 1.431 1.431 0 0 0-.64 1.284 1.254 1.254 0 0 0 .372.97 1.586 1.586 0 0 0 1.115.345zm11.489 1.526a3.285 3.285 0 0 1-2.764-1.279h-.118c.08.79.118 1.27.118 1.44v3.84h-1.99V80.214h1.609q.068.264.278 1.254h.1a3.119 3.119 0 0 1 2.8-1.423 3.25 3.25 0 0 1 2.732 1.271 6.963 6.963 0 0 1-.017 7.152 3.265 3.265 0 0 1-2.748 1.288zm-.484-8.085a2.07 2.07 0 0 0-1.733.695 3.6 3.6 0 0 0-.547 2.22v.3a4.387 4.387 0 0 0 .542 2.48 2.017 2.017 0 0 0 1.772.767 1.8 1.8 0 0 0 1.595-.849 4.384 4.384 0 0 0 .559-2.415 4.223 4.223 0 0 0-.555-2.387 1.857 1.857 0 0 0-1.633-.811zm10.202 8.085a4.535 4.535 0 0 1-3.42-1.275 4.846 4.846 0 0 1-1.232-3.512 5.309 5.309 0 0 1 1.144-3.61 3.949 3.949 0 0 1 3.144-1.314 3.857 3.857 0 0 1 2.931 1.127 4.314 4.314 0 0 1 1.075 3.1v1.078h-6.246a3.081 3.081 0 0 0 .737 2.1 2.569 2.569 0 0 0 1.959.733 7.21 7.21 0 0 0 1.547-.156 8.223 8.223 0 0 0 1.536-.527v1.62a6.117 6.117 0 0 1-1.475.491 9.231 9.231 0 0 1-1.7.145zm-.364-8.2a2 2 0 0 0-1.522.6 2.862 2.862 0 0 0-.681 1.755h4.253a2.6 2.6 0 0 0-.559-1.76 1.909 1.909 0 0 0-1.491-.597zm10.593-1.511a4.7 4.7 0 0 1 .992.086l-.2 1.855a3.745 3.745 0 0 0-.88-.1 2.551 2.551 0 0 0-1.937.78 2.816 2.816 0 0 0-.742 2.025v4.9H109.9v-9.375h1.56l.261 1.652h.1a3.7 3.7 0 0 1 1.217-1.33 2.863 2.863 0 0 1 1.616-.493zm6.221 8.102a4.785 4.785 0 0 0 1.457-.229v1.5a4.076 4.076 0 0 1-.853.243 5.944 5.944 0 0 1-1.08.1q-2.832 0-2.831-2.983v-5.05h-1.279v-.881l1.374-.728.677-1.982h1.228v2.084h2.67v1.509h-2.67v5.016a1.4 1.4 0 0 0 .36 1.063 1.32 1.32 0 0 0 .947.338zm7.911-8.102a4.7 4.7 0 0 1 .992.086l-.195 1.855a3.754 3.754 0 0 0-.881-.1 2.551 2.551 0 0 0-1.937.78 2.815 2.815 0 0 0-.741 2.025v4.9h-1.991v-9.375h1.56l.262 1.652h.1a3.713 3.713 0 0 1 1.217-1.33 2.871 2.871 0 0 1 1.614-.493zm8.159 9.542-.4-1.305h-.069a3.823 3.823 0 0 1-1.365 1.165 4.32 4.32 0 0 1-1.763.309 2.99 2.99 0 0 1-2.158-.746 2.793 2.793 0 0 1-.775-2.11 2.473 2.473 0 0 1 1.075-2.186 6.209 6.209 0 0 1 3.279-.806l1.617-.051v-.5a1.892 1.892 0 0 0-.42-1.344 1.7 1.7 0 0 0-1.3-.446 4.483 4.483 0 0 0-1.382.213 10.515 10.515 0 0 0-1.273.5l-.645-1.423a6.934 6.934 0 0 1 1.669-.606 7.757 7.757 0 0 1 1.712-.208 4.053 4.053 0 0 1 2.7.78 3.06 3.06 0 0 1 .911 2.449v6.313h-1.415zm-2.965-1.357a2.464 2.464 0 0 0 1.742-.606 2.2 2.2 0 0 0 .658-1.7v-.814l-1.2.052a4.138 4.138 0 0 0-2.047.469 1.431 1.431 0 0 0-.64 1.284 1.254 1.254 0 0 0 .372.97 1.589 1.589 0 0 0 1.115.345zm6.62-10.499a1.1 1.1 0 0 1 .293-.823 1.136 1.136 0 0 1 .834-.287 1.122 1.122 0 0 1 .818.287 1.107 1.107 0 0 1 .294.823 1.077 1.077 0 0 1-.294.8 1.307 1.307 0 0 1-1.652 0 1.084 1.084 0 0 1-.293-.8zm2.11 11.856h-1.99v-9.373h1.99zm4.401 0h-1.991V76.4h1.991z" fill="#3d3e3c"/>
</svg>
