<svg id="Layer_1" data-name="Layer 1" xmlns="http://www.w3.org/2000/svg" viewBox="0 0 820 430">
	<defs>
		<style>
			.cls-1{fill:#002747}.cls-2{fill:#60cfff}
		</style>
	</defs>
	<path class="cls-1" d="M84.383 346.211h-34.06v53.499H39.657V279.64H84.21c22.88 0 39.393 8.773 39.393 33.2 0 24.77-15.825 33.371-39.22 33.371Zm-.516-56.25H50.323v46.273h33.544c15.654 0 29.071-4.3 29.071-23.395 0-18.92-13.589-22.877-29.07-22.877Z"/>
	<path class="cls-1" d="m216.485 364.138-40.755-.036-13.417 35.608h-11.526l46.102-120.07h12.385l46.101 120.07h-11.353L203.08 292.026l-23.738 62.615 33.545.036Z"/>
	<path class="cls-1" d="M352.226 344.319c3.784 2.58 6.88 6.881 9.461 11.182l26.834 44.209h-12.557l-25.46-42.834c-3.611-6.02-7.74-11.697-16.513-11.697h-18.75v54.53h-10.666V279.64h41.286c22.534 0 38.704 9.634 38.704 33.029 0 18.062-11.181 29.07-32.34 31.65Zm-6.365-54.186h-30.62v45.414h30.62c15.482 0 27.867-5.162 27.867-22.88 0-17.89-12.73-22.534-27.867-22.534Z"/>
	<path class="cls-1" d="M482.276 401.258c-24.084 0-40.941-8.946-46.274-31.136l10.321-1.892c4.3 17.546 20.126 22.879 35.953 22.879 14.621 0 31.651-7.569 31.651-24.943 0-35.78-73.797-14.794-73.797-57.11 0-21.158 19.095-30.62 38.532-30.62 19.267 0 32.856 6.708 41.457 23.394l-9.461 4.3c-6.88-13.072-17.373-17.545-31.996-17.545-11.868 0-27.694 4.644-27.694 20.47 0 31.136 73.795 11.697 73.795 57.11 0 22.88-20.813 35.093-42.487 35.093Z"/>
	<path class="cls-1" d="M656.017 399.71h-76.894V279.64h76.894v10.493H589.79v42.49h57.798v9.976H589.79v46.617h66.227Z"/>
	<path class="cls-1" d="M789.165 382.508c-10.837 12.557-19.954 18.75-37.328 18.75-35.608 0-48.682-29.76-48.682-61.583 0-31.996 12.902-61.583 48.682-61.583 16.686 0 26.664 6.02 37.157 18.233l-7.742 7.226c-8.084-9.29-15.825-14.794-29.415-14.794-30.275 0-37.844 27.18-37.844 50.918s7.569 50.918 37.844 50.918c13.59 0 21.502-5.678 29.588-15.137Z"/>
	<path class="cls-2" d="M494.352 34.138h-110.47a7.603 7.603 0 1 0 0 4.411h107.162v120.149l-21.73 17.936a7.58 7.58 0 0 0-11.538 4.917 7.605 7.605 0 0 0 14.803 3.459 7.53 7.53 0 0 0-.387-5.03l22.862-18.87a1.103 1.103 0 0 0 .401-.851V35.241a1.103 1.103 0 0 0-1.103-1.103Zm-117.707 5.397a3.19 3.19 0 1 1 3.19-3.191 3.194 3.194 0 0 1-3.19 3.19Zm88.594 146.684a3.19 3.19 0 1 1 3.19-3.19 3.194 3.194 0 0 1-3.19 3.19Z"/>
	<path class="cls-2" d="M417.11 195.195 390.8 173.48a7.317 7.317 0 0 0 .365-5.916 7.594 7.594 0 1 0-9.507 9.759 7.365 7.365 0 0 0 6.098-.633l28.652 23.646a1.103 1.103 0 0 0 1.404 0l60.023-49.542a1.103 1.103 0 0 0 .401-.85V61.17a7.601 7.601 0 1 0-4.411 0v87.213Zm-36.28-25.085a3.19 3.19 0 1 1 3.191 3.19 3.194 3.194 0 0 1-3.19-3.19Zm92.01-116.178a3.191 3.191 0 1 1 3.19 3.191 3.193 3.193 0 0 1-3.19-3.191Z"/>
	<path class="cls-2" d="M373.2 70.417v69.211a1.103 1.103 0 0 0 .4.85l36.497 30.124a7.698 7.698 0 0 0-.136 5.565 7.396 7.396 0 0 0 4.72 4.586 7.617 7.617 0 1 0-1.772-13.551l-35.298-29.135V73.726h78.997v57.968a7.601 7.601 0 1 0 4.412 0V70.417a1.103 1.103 0 0 0-1.103-1.102h-85.614a1.103 1.103 0 0 0-1.103 1.102Zm43.91 99.921a3.191 3.191 0 1 1-3.191 3.192 3.195 3.195 0 0 1 3.19-3.192Zm44.894-31.407a3.19 3.19 0 1 1-3.19-3.19 3.193 3.193 0 0 1 3.19 3.19Z"/>
	<path class="cls-2" d="M360.005 156.812a7.582 7.582 0 0 0 .388-14.626V56.138h68.57a7.601 7.601 0 1 0 0-4.412h-71.878a1.103 1.103 0 0 0-1.103 1.103v89.357a7.587 7.587 0 0 0 4.023 14.626Zm76.194-106.07a3.19 3.19 0 1 1-3.19 3.19 3.193 3.193 0 0 1 3.19-3.19Zm-78.011 95.49a3.19 3.19 0 1 1-3.191 3.19 3.193 3.193 0 0 1 3.19-3.19Z"/>
	<path class="cls-2" d="M444.527 190.808a7.428 7.428 0 0 0-4.76 4.528 7.63 7.63 0 0 0 .087 5.612l-22.744 18.774-73.934-61.024V43.581a7.603 7.603 0 1 0-4.412 0V160.26a1.103 1.103 0 0 0 .401.85l77.243 63.755a1.103 1.103 0 0 0 1.404 0l24.834-20.498a7.609 7.609 0 1 0 1.881-13.558ZM337.78 36.344a3.191 3.191 0 1 1 3.191 3.19 3.194 3.194 0 0 1-3.191-3.19Zm109.098 164.901a3.19 3.19 0 1 1 3.192-3.19 3.193 3.193 0 0 1-3.192 3.19Z"/>
</svg>
