<svg xmlns="http://www.w3.org/2000/svg" viewBox="-4.99 -4.99 259.74 259.74">
	<path d="M200.333 45.593C206.507 57.373 210 70.778 210 85c0 46.944-38.056 85-85 85-19.077 0-36.685-6.285-50.869-16.896l29.614-66.512zM87.058 93.675l-22.67 50.916c-8.994-9.147-15.933-20.32-20.07-32.773zm48.76 30.991a9.273 9.273 0 1 0 0 18.546 9.273 9.273 0 0 0 0-18.546zM51.912 41.58h58.34L94.431 77.114 41.264 99.683a85.432 85.432 0 0 1-1.252-13.278L40 85c0-15.864 4.346-30.713 11.912-43.421zm126.235 0-67.028 28.45 12.667-28.452zM125 0c1.25 0 2.493.027 3.73.08l-12.973 29.135h-54.89C76.163 11.641 98.563.416 123.593.01zm16.579 1.616c18.83 3.723 35.425 13.666 47.555 27.598l-59.843.001z" fill="#057d9f" fill-rule="evenodd"/>
	<path d="M0 209.575h5.94v3.445q3.51-5.873 10.663-5.873t12.075 4.922q4.922 4.889 4.922 11.68 0 6.727-4.922 11.682-4.922 4.922-12.075 4.922T5.94 234.414V250H0zm5.94 11.648v5.053q.59 3.183 3.05 5.611 3.216 3.183 7.613 3.183t7.646-3.248q3.28-3.282 3.28-8.072 0-4.824-3.28-8.105-3.249-3.281-7.646-3.281T8.86 215.71q-2.33 2.33-2.92 5.512zm65.69 18.343h-5.939v-5.25q-3.51 6.037-10.697 6.037-7.12 0-12.075-4.922-4.922-4.955-4.922-11.681 0-6.792 4.922-11.714 4.955-4.922 12.075-4.922 7.186 0 10.697 5.972v-3.511h5.94zm-5.939-13.454v-4.79q-.623-3.249-2.986-5.611-3.314-3.347-7.71-3.347-4.43 0-7.68 3.281-3.248 3.281-3.248 8.105 0 4.79 3.249 8.039 3.248 3.248 7.678 3.248 4.397 0 7.711-3.314 2.363-2.362 2.986-5.61zm25.856-12.075q-4.068.624-6.3 3.249-2.23 2.592-2.23 6.53v15.75h-5.94v-29.991h5.94v4.265q1.312-3.51 5.643-4.889zm8.335-4.462v-11.649h5.906v11.649h5.578v5.119h-5.578v24.872h-5.906v-24.872h-5.578v-5.12zm22.28 0v29.99h-5.907v-29.99zm-2.92-9.713q1.804 0 2.985 1.181 1.214 1.149 1.214 2.593 0 1.509-1.214 2.69-1.18 1.149-2.986 1.149-1.87 0-3.051-1.149-1.181-1.181-1.181-2.69 0-1.444 1.18-2.593 1.182-1.18 3.052-1.18zm34.682 30.122 5.644 2.067q-1.673 2.265-2.658 3.282-4.987 5.02-12.173 5.02-7.12 0-12.075-4.922-4.922-4.955-4.922-11.714t4.922-11.681q4.954-4.922 12.075-4.922 7.186 0 12.042 4.856 1.116 1.116 2.79 3.38l-5.645 2.1q-1.18-1.477-1.607-1.936-3.183-3.15-7.58-3.15t-7.646 3.281q-3.248 3.249-3.248 8.072 0 4.79 3.248 8.072 3.249 3.248 7.646 3.248t7.71-3.314q.296-.295 1.477-1.739zm23.199 9.975q-5.972 0-9.45-3.478-3.445-3.478-3.544-8.531v-18.408h5.94v18.178q0 3.019 2.132 5.119 2.002 2.002 4.89 2.002 2.624 0 4.691-2.035 2.068-2.067 2.068-5.086v-18.178h5.939v18.408q-.099 5.053-3.61 8.597-3.412 3.412-9.056 3.412zm25.069-47.61v47.217h-5.94v-47.218zm12.436 26.118h19.655q-2.1-6.103-9.778-6.103-7.711 0-9.877 6.103zm-1.05 5.184v.099q0 4.79 3.248 8.039 3.249 3.248 7.679 3.248 4.396 0 7.71-3.314.46-.46 1.772-2.067l5.579 1.969q-1.247 2.1-2.888 3.708-4.987 5.02-12.173 5.02-7.12 0-12.076-4.922-4.921-4.955-4.921-11.681 0-6.792 4.921-11.714 4.955-4.922 12.076-4.922 7.186 0 12.173 4.987 4.299 4.332 4.299 11.55zm32.222 8.696q1.805 0 2.986 1.181 1.214 1.148 1.214 2.625t-1.214 2.658q-1.181 1.148-2.986 1.148-1.87 0-3.052-1.148-1.18-1.181-1.18-2.658 0-1.477 1.18-2.625 1.182-1.181 3.052-1.181z" fill="#057d9f"/>
</svg>
