<svg id="Layer_1" data-name="Layer 1" xmlns="http://www.w3.org/2000/svg" viewBox="0 0 1463.187 1080">
	<defs>
		<style>
			.cls-1{fill:#585959}
		</style>
	</defs>
	<path class="cls-1" d="M156.951 899.337a40.88 40.88 0 0 1 20.6 5.338 42.29 42.29 0 0 1 15.076 14.42 37.73 37.73 0 0 1 5.712 20.507 38.443 38.443 0 0 1-6.086 21.256 45.018 45.018 0 0 1-16.106 15.075 44.234 44.234 0 0 1-22.005 5.619h-47.195v48.88H86.722V899.337Zm-4.12 62.738a24.338 24.338 0 0 0 12.08-3.09 24.614 24.614 0 0 0 8.801-8.147 20.246 20.246 0 0 0 3.278-11.236 17.886 17.886 0 0 0-3.278-10.488 23.563 23.563 0 0 0-8.802-7.49 26.273 26.273 0 0 0-12.079-2.81h-45.884v43.26Z"/>
	<path class="cls-1" d="m389.169 1030.432-14.42-31.276H303.77l-14.42 31.276h-21.163l60.303-131.095h22.849l59.928 131.095Zm-60.117-86.336L312.76 979.68h53.188l-16.855-36.332q-2.626-5.803-5.057-11.424-2.437-5.618-4.682-11.985-2.625 6.557-5.15 12.454-2.529 5.899-5.15 11.704Z"/>
	<path class="cls-1" d="M490.667 990.167a82.519 82.519 0 0 0 21.35 17.698q11.236 6.276 27.342 6.274a62.754 62.754 0 0 0 16.762-2.248 34.257 34.257 0 0 0 13.39-6.742 14.394 14.394 0 0 0 5.244-11.424q0-9.362-10.394-13.11-10.394-3.743-29.31-6.367a108.907 108.907 0 0 1-26.967-6.742q-11.426-4.678-17.698-12.454-6.276-7.768-6.274-19.383a30.461 30.461 0 0 1 7.304-20.507q7.304-8.52 19.758-13.11a79.41 79.41 0 0 1 27.623-4.588q18.542 0 32.212 5.993a50.784 50.784 0 0 1 21.537 17.042l-13.671 14.608a52.591 52.591 0 0 0-16.949-14.046q-10.21-5.43-23.691-5.43-13.861 0-23.222 4.775-9.367 4.775-9.364 13.39 0 6.93 4.588 10.956 4.587 4.03 12.735 6.274a147.378 147.378 0 0 0 19.196 3.745q10.486 1.502 20.133 3.746a75.482 75.482 0 0 1 17.323 6.18 33.722 33.722 0 0 1 12.173 10.113q4.495 6.18 4.495 15.544a36.192 36.192 0 0 1-7.023 22.193q-7.023 9.458-20.039 14.607-13.02 5.149-30.62 5.15-18.918 0-34.178-5.993a68.067 68.067 0 0 1-26.874-19.476Z"/>
	<path class="cls-1" d="M687.864 990.167a82.518 82.518 0 0 0 21.35 17.698q11.236 6.276 27.342 6.274a62.755 62.755 0 0 0 16.762-2.248 34.257 34.257 0 0 0 13.39-6.742 14.394 14.394 0 0 0 5.244-11.424q0-9.362-10.394-13.11-10.394-3.743-29.31-6.367a108.907 108.907 0 0 1-26.967-6.742q-11.426-4.678-17.698-12.454-6.276-7.768-6.274-19.383a30.461 30.461 0 0 1 7.304-20.507q7.304-8.52 19.758-13.11a79.41 79.41 0 0 1 27.623-4.588q18.542 0 32.212 5.993a50.784 50.784 0 0 1 21.537 17.042l-13.671 14.608a52.591 52.591 0 0 0-16.949-14.046q-10.21-5.43-23.69-5.43-13.862 0-23.223 4.775-9.367 4.775-9.364 13.39 0 6.93 4.588 10.956 4.587 4.03 12.735 6.274a147.378 147.378 0 0 0 19.196 3.745q10.486 1.502 20.133 3.746a75.482 75.482 0 0 1 17.323 6.18 33.722 33.722 0 0 1 12.173 10.113q4.495 6.18 4.495 15.544a36.192 36.192 0 0 1-7.023 22.193q-7.023 9.458-20.039 14.607-13.02 5.149-30.62 5.15-18.918 0-34.178-5.993a68.067 68.067 0 0 1-26.874-19.476Z"/>
	<path class="cls-1" d="m980.76 1030.432-14.42-31.276H895.36l-14.42 31.276h-21.162l60.303-131.095h22.848l59.929 131.095Zm-60.117-86.336L904.35 979.68h53.188l-16.855-36.332q-2.626-5.803-5.057-11.424-2.437-5.618-4.682-11.985-2.625 6.557-5.15 12.454-2.529 5.899-5.15 11.704Z"/>
	<path class="cls-1" d="M1131.793 897.84a91.84 91.84 0 0 1 24.721 3.183 85.988 85.988 0 0 1 20.132 8.24 50.842 50.842 0 0 1 13.578 10.862l-13.11 14.42a86.598 86.598 0 0 0-20.787-12.266 62.974 62.974 0 0 0-24.534-4.776 64.342 64.342 0 0 0-28.466 6.18 51.296 51.296 0 0 0-20.133 16.761 40.971 40.971 0 0 0-7.397 24.065 43.472 43.472 0 0 0 16.949 35.677 53.384 53.384 0 0 0 17.697 9.083 70.862 70.862 0 0 0 20.601 2.997 77.24 77.24 0 0 0 24.346-3.652q11.048-3.652 17.698-10.02 6.646-6.364 7.023-14.608h-48.692v-19.851h70.229q.373 2.247.561 4.682.185 2.437.188 4.682a59.014 59.014 0 0 1-3.184 19.477 47.827 47.827 0 0 1-8.615 15.544q-8.804 11.052-24.533 17.23-15.731 6.18-36.332 6.18a91.485 91.485 0 0 1-28.935-4.495 72.267 72.267 0 0 1-23.971-13.203 61.485 61.485 0 0 1-16.293-21.256 66.123 66.123 0 0 1-5.9-28.467 59.155 59.155 0 0 1 5.9-26.312 66.246 66.246 0 0 1 16.387-21.162 76.778 76.778 0 0 1 24.533-14.14 88.921 88.921 0 0 1 30.34-5.056Z"/>
	<path class="cls-1" d="M1274.96 1030.432V899.337h101.505v19.477h-81.279v34.646h70.979v19.477h-70.979v38.018h81.28v19.477Z"/>
	<path d="M984.445 47.696H609.628a47.286 47.286 0 0 0-47.147 47.147v374.818a47.286 47.286 0 0 0 47.147 47.147h374.818a47.286 47.286 0 0 0 47.147-47.147V94.844a47.286 47.286 0 0 0-47.148-47.148Zm-88.924 236.162c-1.672 52.435-44.377 95.143-96.812 96.82a100.15 100.15 0 0 1-103.375-103.37c1.673-52.435 44.378-95.143 96.813-96.818A100.15 100.15 0 0 1 895.52 283.858Z" style="fill:#1a295a"/>
	<path d="M480.254 534.8H665.53a48.661 48.661 0 0 1 48.662 48.661v185.276a48.661 48.661 0 0 1-48.661 48.66H480.255a48.661 48.661 0 0 1-48.662-48.66V583.46a48.661 48.661 0 0 1 48.661-48.661Z" style="fill:#254698"/>
	<path d="M466.903 279.426h42.419a35.31 35.31 0 0 1 35.31 35.31v166.762a35.31 35.31 0 0 1-35.31 35.31h-42.42a35.31 35.31 0 0 1-35.309-35.31V314.736a35.31 35.31 0 0 1 35.31-35.31Z" style="fill:#183271"/>
</svg>
