<svg xmlns="http://www.w3.org/2000/svg" width="200" height="128">
	<path d="M50.51 62.845h26.175V40.6L50.51 44.071zm-2.158 0V44.3l-17.433 2.408V62.83zm0 2.346H30.919V80.85l17.422 2.637zm2.158 0v18.514l26.175 3.7V65.191z" fill="#20bdf0"/>
	<path d="m98.658 42.54-3.016 10.682h-1.468l-2.2-7.806a4.866 4.866 0 0 1-.172-1.088h-.029a5.56 5.56 0 0 1-.194 1.073l-2.209 7.821h-1.453L84.789 42.54h1.378l2.272 8.194a5.416 5.416 0 0 1 .178 1.073h.038a6.251 6.251 0 0 1 .23-1.073l2.362-8.194h1.2l2.265 8.254a6.019 6.019 0 0 1 .178 1h.03a6.019 6.019 0 0 1 .2-1.028l2.18-8.226zm2.049 1.118a.774.774 0 0 1-.559-.224.753.753 0 0 1-.231-.566.784.784 0 0 1 .79-.8.789.789 0 0 1 .57.228.8.8 0 0 1 0 1.128.784.784 0 0 1-.57.234zm.6 9.564h-1.222v-7.628h1.215zm8.801 0h-1.222v-4.35q0-2.428-1.773-2.428a1.924 1.924 0 0 0-1.516.689 2.551 2.551 0 0 0-.6 1.739v4.35h-1.222v-7.628H105v1.267h.029a2.753 2.753 0 0 1 2.5-1.445 2.335 2.335 0 0 1 1.915.808 3.6 3.6 0 0 1 .663 2.335zm8.812 0h-1.22v-1.3h-.03a2.82 2.82 0 0 1-2.622 1.475 2.849 2.849 0 0 1-2.3-1.024 4.206 4.206 0 0 1-.86-2.79 4.576 4.576 0 0 1 .953-3.032 3.148 3.148 0 0 1 2.54-1.139 2.446 2.446 0 0 1 2.287 1.236h.03V41.93h1.222zm-1.22-3.449v-1.124a2.184 2.184 0 0 0-.611-1.565 2.047 2.047 0 0 0-1.549-.64 2.11 2.11 0 0 0-1.758.819 3.59 3.59 0 0 0-.641 2.264 3.231 3.231 0 0 0 .615 2.083 2.006 2.006 0 0 0 1.65.763 2.087 2.087 0 0 0 1.657-.737 2.748 2.748 0 0 0 .637-1.863zm6.881 3.627a3.535 3.535 0 0 1-2.7-1.069 3.957 3.957 0 0 1-1.01-2.834 4.12 4.12 0 0 1 1.051-3 3.775 3.775 0 0 1 2.838-1.08 3.423 3.423 0 0 1 2.663 1.05 4.165 4.165 0 0 1 .957 2.913 4.1 4.1 0 0 1-1.032 2.924 3.616 3.616 0 0 1-2.767 1.096zm.089-6.957a2.324 2.324 0 0 0-1.862.8 3.286 3.286 0 0 0-.685 2.208 3.115 3.115 0 0 0 .692 2.138 2.357 2.357 0 0 0 1.855.782 2.233 2.233 0 0 0 1.821-.767 3.329 3.329 0 0 0 .637-2.183 3.386 3.386 0 0 0-.637-2.2 2.222 2.222 0 0 0-1.821-.777zm15.271-.849-2.287 7.628h-1.267l-1.571-5.46a3.456 3.456 0 0 1-.119-.708h-.03a3.312 3.312 0 0 1-.157.693l-1.71 5.475h-1.221l-2.309-7.628h1.281l1.579 5.736a3.442 3.442 0 0 1 .1.685h.06a3.252 3.252 0 0 1 .134-.7l1.758-5.721h1.117l1.58 5.751a4.2 4.2 0 0 1 .111.685h.06a3.2 3.2 0 0 1 .126-.685l1.55-5.751zm.953 7.353v-1.311a3.618 3.618 0 0 0 2.2.737q1.609 0 1.609-1.073a.929.929 0 0 0-.137-.517 1.39 1.39 0 0 0-.373-.377 2.872 2.872 0 0 0-.551-.293q-.317-.13-.682-.273a8.989 8.989 0 0 1-.89-.405 2.715 2.715 0 0 1-.64-.462 1.715 1.715 0 0 1-.388-.585 2.067 2.067 0 0 1-.13-.767 1.822 1.822 0 0 1 .246-.95 2.2 2.2 0 0 1 .655-.693 3.078 3.078 0 0 1 .935-.421 4.159 4.159 0 0 1 1.084-.141 4.388 4.388 0 0 1 1.773.342V47a3.451 3.451 0 0 0-1.937-.551 2.271 2.271 0 0 0-.618.078 1.488 1.488 0 0 0-.473.22 1.006 1.006 0 0 0-.306.339.891.891 0 0 0-.108.435 1.044 1.044 0 0 0 .108.5 1.1 1.1 0 0 0 .317.358 2.424 2.424 0 0 0 .506.283q.3.126.678.276a9.251 9.251 0 0 1 .909.4 3.092 3.092 0 0 1 .685.461 1.815 1.815 0 0 1 .436.592 1.908 1.908 0 0 1 .153.8 1.871 1.871 0 0 1-.25.983 2.128 2.128 0 0 1-.666.693 3.067 3.067 0 0 1-.961.41 4.771 4.771 0 0 1-1.14.134 4.337 4.337 0 0 1-2.044-.464zM87.247 64.441v4.037H86V57.8h2.93a3.876 3.876 0 0 1 2.656.834 2.979 2.979 0 0 1 .942 2.354 3.238 3.238 0 0 1-1.047 2.488 4 4 0 0 1-2.826.968zm0-5.512v4.38h1.311a2.922 2.922 0 0 0 1.977-.593 2.093 2.093 0 0 0 .682-1.672q0-2.115-2.5-2.115zM99.94 64.97h-5.386a2.855 2.855 0 0 0 .685 1.967 2.366 2.366 0 0 0 1.8.692 3.749 3.749 0 0 0 2.369-.849v1.147a4.426 4.426 0 0 1-2.659.73 3.225 3.225 0 0 1-2.541-1.039 4.255 4.255 0 0 1-.923-2.924 4.172 4.172 0 0 1 1.009-2.9 3.239 3.239 0 0 1 2.506-1.122 2.868 2.868 0 0 1 2.316.968 4.034 4.034 0 0 1 .82 2.689zm-1.252-1.035a2.489 2.489 0 0 0-.51-1.647 1.739 1.739 0 0 0-1.4-.588 1.973 1.973 0 0 0-1.467.618 2.8 2.8 0 0 0-.745 1.617zm7.077-1.848a1.5 1.5 0 0 0-.924-.246 1.559 1.559 0 0 0-1.307.738 3.411 3.411 0 0 0-.525 2.011v3.888h-1.222v-7.627h1.222v1.571h.029a2.667 2.667 0 0 1 .8-1.255 1.817 1.817 0 0 1 1.2-.45 1.985 1.985 0 0 1 .73.1zm5.385-3.829a1.627 1.627 0 0 0-.812-.2q-1.281 0-1.281 1.617v1.177h1.788v1.043h-1.788v6.584h-1.214v-6.585h-1.3v-1.043h1.3v-1.237a2.567 2.567 0 0 1 .693-1.895 2.341 2.341 0 0 1 1.728-.7 2.4 2.4 0 0 1 .886.134zm4.194 10.399a3.537 3.537 0 0 1-2.7-1.069 3.957 3.957 0 0 1-1.009-2.834 4.126 4.126 0 0 1 1.05-3 3.775 3.775 0 0 1 2.838-1.08 3.422 3.422 0 0 1 2.663 1.05 4.165 4.165 0 0 1 .957 2.913 4.1 4.1 0 0 1-1.032 2.923 3.612 3.612 0 0 1-2.767 1.097zm.09-6.957a2.325 2.325 0 0 0-1.863.8 3.288 3.288 0 0 0-.685 2.208 3.109 3.109 0 0 0 .693 2.138 2.353 2.353 0 0 0 1.855.782 2.232 2.232 0 0 0 1.821-.767 3.332 3.332 0 0 0 .637-2.183 3.387 3.387 0 0 0-.637-2.2 2.223 2.223 0 0 0-1.821-.778zm9.638.387a1.49 1.49 0 0 0-.923-.246 1.557 1.557 0 0 0-1.307.738 3.4 3.4 0 0 0-.526 2.011v3.888H121.1v-7.627h1.221v1.571h.03a2.673 2.673 0 0 1 .8-1.255 1.819 1.819 0 0 1 1.2-.45 1.981 1.981 0 0 1 .73.1zm12.128 6.391h-1.221V64.1a3.308 3.308 0 0 0-.391-1.832 1.485 1.485 0 0 0-1.315-.566 1.627 1.627 0 0 0-1.33.715 2.736 2.736 0 0 0-.547 1.713v4.35h-1.222v-4.531q0-2.248-1.735-2.249a1.607 1.607 0 0 0-1.326.674 2.785 2.785 0 0 0-.522 1.754v4.35h-1.221v-7.627h1.221v1.206h.03a2.592 2.592 0 0 1 2.369-1.385 2.2 2.2 0 0 1 2.16 1.579 2.721 2.721 0 0 1 2.533-1.579q2.517 0 2.517 3.106zm7.769 0h-1.222v-1.191h-.03a2.557 2.557 0 0 1-2.346 1.37 2.507 2.507 0 0 1-1.784-.6 2.089 2.089 0 0 1-.645-1.6q0-2.137 2.518-2.488l2.287-.32q0-1.944-1.572-1.944a3.76 3.76 0 0 0-2.488.938v-1.256a4.726 4.726 0 0 1 2.593-.715q2.688 0 2.689 2.845zm-1.222-3.858-1.84.253a3 3 0 0 0-1.281.421 1.214 1.214 0 0 0-.432 1.069 1.164 1.164 0 0 0 .4.912 1.537 1.537 0 0 0 1.062.354 1.96 1.96 0 0 0 1.5-.637 2.273 2.273 0 0 0 .592-1.612zm9.853 3.858h-1.22v-4.35q0-2.428-1.773-2.428a1.922 1.922 0 0 0-1.515.689 2.554 2.554 0 0 0-.6 1.739v4.35h-1.222v-7.627h1.222v1.266h.03a2.753 2.753 0 0 1 2.5-1.445 2.335 2.335 0 0 1 1.914.808 3.6 3.6 0 0 1 .663 2.335zm7.5-.35a3.965 3.965 0 0 1-2.086.529 3.456 3.456 0 0 1-2.633-1.061 3.847 3.847 0 0 1-1-2.753 4.227 4.227 0 0 1 1.08-3.027 3.78 3.78 0 0 1 2.883-1.144 4.017 4.017 0 0 1 1.773.372V62.3a3.108 3.108 0 0 0-1.818-.6 2.459 2.459 0 0 0-1.918.838 3.18 3.18 0 0 0-.748 2.2 3.026 3.026 0 0 0 .7 2.116 2.426 2.426 0 0 0 1.888.774 3.062 3.062 0 0 0 1.877-.663zm7.981-3.158H163.7a2.856 2.856 0 0 0 .686 1.967 2.363 2.363 0 0 0 1.8.692 3.749 3.749 0 0 0 2.369-.849v1.147a4.424 4.424 0 0 1-2.659.73 3.221 3.221 0 0 1-2.54-1.039 4.251 4.251 0 0 1-.924-2.924 4.172 4.172 0 0 1 1.009-2.9 3.239 3.239 0 0 1 2.507-1.121 2.868 2.868 0 0 1 2.316.968 4.034 4.034 0 0 1 .82 2.689zm-1.252-1.035a2.489 2.489 0 0 0-.51-1.647 1.739 1.739 0 0 0-1.4-.588 1.973 1.973 0 0 0-1.468.618 2.811 2.811 0 0 0-.745 1.617zM93.265 83.287a6.262 6.262 0 0 1-2.949.626 4.753 4.753 0 0 1-3.65-1.468 5.413 5.413 0 0 1-1.366-3.851 5.673 5.673 0 0 1 1.542-4.141 5.234 5.234 0 0 1 3.911-1.58 6.264 6.264 0 0 1 2.517.44v1.333a5.1 5.1 0 0 0-2.532-.64 3.886 3.886 0 0 0-2.984 1.229 4.63 4.63 0 0 0-1.143 3.285 4.4 4.4 0 0 0 1.069 3.11 3.638 3.638 0 0 0 2.805 1.158 5.256 5.256 0 0 0 2.785-.715zm5.2.626a3.532 3.532 0 0 1-2.7-1.07 3.956 3.956 0 0 1-1.01-2.834 4.12 4.12 0 0 1 1.051-3 3.772 3.772 0 0 1 2.838-1.081 3.424 3.424 0 0 1 2.663 1.051 4.164 4.164 0 0 1 .957 2.912 4.1 4.1 0 0 1-1.032 2.924 3.613 3.613 0 0 1-2.767 1.098zm.089-6.958a2.325 2.325 0 0 0-1.862.8 3.284 3.284 0 0 0-.685 2.208A3.115 3.115 0 0 0 96.7 82.1a2.357 2.357 0 0 0 1.855.782 2.23 2.23 0 0 0 1.821-.768 3.326 3.326 0 0 0 .637-2.182 3.385 3.385 0 0 0-.637-2.2 2.223 2.223 0 0 0-1.822-.777zm11.829 6.779h-1.221v-1.207h-.03a2.509 2.509 0 0 1-2.354 1.386q-2.727 0-2.726-3.248v-4.559h1.214v4.365q0 2.413 1.847 2.414a1.87 1.87 0 0 0 1.471-.659 2.525 2.525 0 0 0 .578-1.725v-4.4h1.221zm8.797 0h-1.221v-4.35q0-2.428-1.773-2.429a1.924 1.924 0 0 0-1.516.689 2.556 2.556 0 0 0-.6 1.74v4.35h-1.221v-7.628h1.221v1.267h.03a2.752 2.752 0 0 1 2.5-1.446 2.335 2.335 0 0 1 1.914.808 3.6 3.6 0 0 1 .663 2.336zm5.84-.075a2.353 2.353 0 0 1-1.139.239q-2 0-2-2.235v-4.514h-1.311v-1.043h1.311v-1.862l1.221-.395v2.257h1.922v1.043H123.1v4.3a1.778 1.778 0 0 0 .261 1.095 1.039 1.039 0 0 0 .864.328 1.288 1.288 0 0 0 .8-.253zm7.643-3.434h-5.386a2.854 2.854 0 0 0 .686 1.967 2.362 2.362 0 0 0 1.8.693 3.749 3.749 0 0 0 2.369-.849v1.147a4.431 4.431 0 0 1-2.659.73 3.219 3.219 0 0 1-2.54-1.04 4.25 4.25 0 0 1-.924-2.923 4.173 4.173 0 0 1 1.009-2.9 3.242 3.242 0 0 1 2.507-1.121 2.869 2.869 0 0 1 2.317.969 4.038 4.038 0 0 1 .819 2.689zm-1.251-1.035a2.486 2.486 0 0 0-.511-1.646 1.738 1.738 0 0 0-1.4-.589 1.972 1.972 0 0 0-1.468.619 2.811 2.811 0 0 0-.745 1.616zm7.076-1.847a1.493 1.493 0 0 0-.924-.246 1.56 1.56 0 0 0-1.307.737 3.412 3.412 0 0 0-.525 2.012v3.888h-1.222v-7.628h1.222v1.572h.03a2.674 2.674 0 0 1 .8-1.256 1.822 1.822 0 0 1 1.2-.45 2.007 2.007 0 0 1 .73.1zm.968 6.115v-1.311a3.615 3.615 0 0 0 2.2.738q1.608 0 1.609-1.073a.931.931 0 0 0-.138-.518 1.383 1.383 0 0 0-.372-.376 2.913 2.913 0 0 0-.552-.294q-.316-.13-.681-.272a8.782 8.782 0 0 1-.89-.405 2.73 2.73 0 0 1-.641-.462 1.736 1.736 0 0 1-.387-.585 2.072 2.072 0 0 1-.131-.768 1.827 1.827 0 0 1 .246-.95 2.175 2.175 0 0 1 .656-.692 3.025 3.025 0 0 1 .934-.421 4.171 4.171 0 0 1 1.084-.142 4.381 4.381 0 0 1 1.773.343v1.237a3.452 3.452 0 0 0-1.937-.552 2.311 2.311 0 0 0-.618.078 1.543 1.543 0 0 0-.473.22 1.026 1.026 0 0 0-.305.34.888.888 0 0 0-.108.435 1.044 1.044 0 0 0 .108.5 1.107 1.107 0 0 0 .316.358 2.453 2.453 0 0 0 .507.283q.3.126.678.275a9.583 9.583 0 0 1 .908.4 3.1 3.1 0 0 1 .686.462 1.809 1.809 0 0 1 .436.592 1.921 1.921 0 0 1 .152.8 1.882 1.882 0 0 1-.249.983 2.152 2.152 0 0 1-.667.693 3.057 3.057 0 0 1-.961.41 4.759 4.759 0 0 1-1.14.134 4.328 4.328 0 0 1-2.043-.46z" fill="#666"/>
</svg>
