<svg version="1.1" id="Layer_1" xmlns="http://www.w3.org/2000/svg" x="0" y="0" viewBox="0 0 990.5 406.6" style="enable-background:new 0 0 990.5 406.6" xml:space="preserve">
	<style>
		.st0{fill:#181a1d}
	</style>
	<path class="st0" d="m225.3 140.2 17.5-30.4c5.1-8.9 2.1-20.3-6.8-25.4-8.9-5.1-20.3-2.1-25.4 6.8L193 121.6c-37.4-11.8-79.3 3.5-99.7 38.9-13 22.5-14.6 48.4-6.7 71.1l32.4-56.2c7.4-12.9 19.5-22.1 33.9-26 14.4-3.9 29.4-1.9 42.3 5.6 26.6 15.4 35.8 49.6 20.4 76.2-15.4 26.6-49.5 35.8-76.2 20.4l18.6-32.2c8.9 5.1 20.3 2.1 25.4-6.8 5.1-8.9 2.1-20.3-6.8-25.4-8.9-5.1-20.3-2.1-25.4 6.8L92 296.7c-5.1 8.9-2.1 20.3 6.8 25.4 8.9 5.1 20.3 2.1 25.4-6.8l17.6-30.4c37.4 11.8 79.3-3.5 99.7-38.9 20.4-35.3 12.7-79.2-16.2-105.8z"/>
	<path class="st0" d="M304 162.3h28.8c16.7 0 30.5 8.3 30.5 27.5s-13.8 27.6-30.5 27.6h-11.9v26.9H304v-82zm28.3 40.3c8.3 0 13.6-3.7 13.6-12.8 0-9.2-5.5-12.6-13.6-12.6h-11.4v25.4h11.4z"/>
	<path class="st0" d="M388 162.3h54.2v14.8h-37.3v18.8h32.9v14.5h-32.9v19h39v14.8H388v-81.9z"/>
	<path class="st0" d="M472.2 162.3H489v67.1h37.1v14.8h-53.9v-81.9z"/>
	<path class="st0" d="M544.9 203.3c0-24.2 18.8-42 42.4-42 23.6 0 42.4 17.8 42.4 42s-18.8 42-42.4 42c-23.6 0-42.4-17.8-42.4-42zm67.4 0c0-15.3-10.1-27-25-27s-25 11.7-25 27 10.1 27 25 27 25-11.7 25-27z"/>
	<path class="st0" d="M671.2 177.1h-23.4v-14.8h63.6v14.8H688v67.1h-16.9v-67.1z"/>
	<path class="st0" d="M729.4 203.3c0-24.2 18.8-42 42.4-42 23.6 0 42.4 17.8 42.4 42s-18.8 42-42.4 42c-23.6 0-42.4-17.8-42.4-42zm67.4 0c0-15.3-10.1-27-25-27s-25 11.7-25 27 10.1 27 25 27 25-11.7 25-27z"/>
	<path class="st0" d="M865.6 206.2c-4.1-3.9-9.8-11.2-9.8-11.2s1.2 9 1.2 14.9v34.3h-15.8v-82.6h1.7l41.3 38.8c4 3.7 9.6 11.2 9.6 11.2s-1.1-9.3-1.1-14.9v-34.3h15.8V245h-1.7l-41.2-38.8z"/>
</svg>
