<svg xmlns="http://www.w3.org/2000/svg" width="200" height="128">
	<path d="M74.47 64.6v-6.24a9.16 9.16 0 0 1 .41-2.43 5.7 5.7 0 0 1 5.38-4.11 9.49 9.49 0 0 1 3.31.27 5.11 5.11 0 0 1 3 2.12c.15.23.33.46.57.1a5.48 5.48 0 0 1 4.26-2.46 9.39 9.39 0 0 1 3.87.3 5.57 5.57 0 0 1 4 4.72 13.38 13.38 0 0 1 .19 2.27v11.72c0 .76-.09.85-.85.85h-1.39c-.63 0-.71-.09-.71-.72V59.42a11.46 11.46 0 0 0-.16-1.85c-.41-2.51-2-3.47-4.42-3.26-2.07.17-3.2 1.39-3.43 3.59a17.44 17.44 0 0 0-.09 1.76v11.29c0 .68-.08.75-.77.76h-1.45c-.62 0-.74-.13-.74-.77v-11.8a9.1 9.1 0 0 0-.21-1.88c-.54-2.24-2.12-3.12-4.36-2.9a3.51 3.51 0 0 0-3.35 3.47 13.22 13.22 0 0 0-.11 1.66v11.48c0 .7-.09.78-.8.79h-1.44c-.62 0-.72-.11-.72-.73V64.6zm95.87-7.48 2.59-2.73c.63-.67 1.26-1.34 1.9-2a1.74 1.74 0 0 1 2.59-.06c.75.69 1.48 1.39 2.21 2.09a1.74 1.74 0 0 1 .07 2.75l-4.37 4.59-.22.25 2.36 2.49c.77.8 1.54 1.6 2.3 2.42a1.71 1.71 0 0 1-.08 2.61c-.75.73-1.51 1.44-2.28 2.15a1.75 1.75 0 0 1-2.63-.1l-4-4.23a5.15 5.15 0 0 1-.33-.43l-1.73 1.8c-.9 1-1.79 1.9-2.69 2.84a1.76 1.76 0 0 1-2.69.08c-.76-.72-1.54-1.43-2.28-2.16A1.67 1.67 0 0 1 161 67c.79-.87 1.59-1.73 2.42-2.56a5.38 5.38 0 0 1 6.59-.75l.35.2 1.76-1.89-1.67-1.77a16.86 16.86 0 0 1-2.33.79 5.11 5.11 0 0 1-4.82-1.56c-.75-.75-1.47-1.53-2.2-2.31a1.74 1.74 0 0 1 .05-2.71c.73-.71 1.48-1.4 2.22-2.09a1.74 1.74 0 0 1 2.65.08q2 2.1 4 4.22a3.82 3.82 0 0 1 .32.47zm1.56 8.27 4 4.22a.35.35 0 0 0 .57 0c.39-.37.78-.75 1.19-1.11.26-.23.23-.43 0-.67-1.27-1.33-2.53-2.68-3.8-4a1.79 1.79 0 0 0-.26-.2zm0-6.77 1.68 1.77a.94.94 0 0 0 .15-.08l4-4.17a.38.38 0 0 0 0-.62c-.39-.35-.78-.7-1.15-1.07s-.46-.24-.71 0-.69.74-1 1.11zm-3.09 6.88a3.25 3.25 0 0 0-4 .54c-.58.59-1.13 1.2-1.71 1.79-.24.24-.26.43 0 .66s.8.73 1.18 1.11.41.21.62 0c.36-.4.74-.78 1.12-1.18zm0-7q-2-2.1-4-4.17a.48.48 0 0 0-.43 0c-.44.37-.84.79-1.26 1.16-.26.23-.22.41 0 .63.59.61 1.15 1.23 1.74 1.83a3.18 3.18 0 0 0 3.93.54zM22.91 70.15v7.33c0 .6-.1.7-.69.7H20.6c-.54 0-.6-.18-.6-.62V58.6a6.71 6.71 0 0 1 1.94-5A6 6 0 0 1 25 52a10.93 10.93 0 0 1 5 0 5.83 5.83 0 0 1 4.63 4.86 9.43 9.43 0 0 1 .21 1.84v6.8a8.12 8.12 0 0 1-.84 3.39 5.31 5.31 0 0 1-3.23 2.92 8.65 8.65 0 0 1-4.65.25 4.7 4.7 0 0 1-2.62-1.55 2.56 2.56 0 0 0-.59-.36zm9-8.1h-.1v-3.34c0-.24-.06-.47-.09-.71a3.72 3.72 0 0 0-3.06-3.59 7.86 7.86 0 0 0-2.22 0A3.42 3.42 0 0 0 23.27 57a7.25 7.25 0 0 0-.33 2q-.06 3 0 6.09a7 7 0 0 0 .31 1.87c.6 2 2.13 2.95 4.55 2.84a3.64 3.64 0 0 0 3.8-3.29c.23-1.51.21-3 .3-4.46zm73.35.95a11.65 11.65 0 0 0 .36 4 4 4 0 0 0 3.76 2.73 6.15 6.15 0 0 0 5.06-1.59c.4-.37.61-.33 1 .08.21.26.42.51.63.78.36.46.35.7-.07 1.09a8.1 8.1 0 0 1-6 2.17 12.69 12.69 0 0 1-3-.42 5.94 5.94 0 0 1-4.53-5.3 11.93 11.93 0 0 1-.13-1.89v-6.43a7.08 7.08 0 0 1 .81-3.15 5.65 5.65 0 0 1 4.06-3 10.59 10.59 0 0 1 4.45-.05 5.77 5.77 0 0 1 4.94 5.15 44.13 44.13 0 0 1 .19 4.89.94.94 0 0 1-.91.93 5.61 5.61 0 0 1-.58 0h-10zm4.39-2.39h3.58c.56 0 .78-.22.77-.78a16.35 16.35 0 0 0-.13-2 3.65 3.65 0 0 0-3-3.4 6.65 6.65 0 0 0-1.61-.12 3.65 3.65 0 0 0-3.83 3.2 14.29 14.29 0 0 0-.2 2.27c0 .62.19.81.82.82zM40.49 63a30.53 30.53 0 0 0 .28 3.3 4 4 0 0 0 4 3.45 6.23 6.23 0 0 0 5.05-1.62c.37-.34.6-.31.92.08s.44.54.65.81c.37.47.35.7-.09 1.1a8.23 8.23 0 0 1-5.93 2.16 12.85 12.85 0 0 1-2.69-.33 5.94 5.94 0 0 1-4.89-5.59c-.16-2.23-.12-4.47-.11-6.71a14.42 14.42 0 0 1 .29-3 5.81 5.81 0 0 1 5.17-4.7 11.57 11.57 0 0 1 4 .09 5.7 5.7 0 0 1 4.81 5 42.14 42.14 0 0 1 .22 5 .94.94 0 0 1-.91.93 3.62 3.62 0 0 1-.57 0h-10.2zM45 60.58h3.58c.56 0 .81-.22.79-.77a13.76 13.76 0 0 0-.18-2.22 3.59 3.59 0 0 0-3-3.19 6.65 6.65 0 0 0-1.61-.11 3.67 3.67 0 0 0-3.82 3.28 14.91 14.91 0 0 0-.18 2.12c0 .69.18.89.86.89zM138.4 63h-5c-.37 0-.52.09-.49.48.07.9 0 1.81.19 2.7a4 4 0 0 0 3.9 3.57 6.18 6.18 0 0 0 5.14-1.62c.35-.32.59-.3.89 0l.74.93a.63.63 0 0 1-.08 1 7.93 7.93 0 0 1-3.92 2 10.78 10.78 0 0 1-5.23-.26 5.91 5.91 0 0 1-4.36-5 12.73 12.73 0 0 1-.2-2.22c0-1.91-.06-3.81 0-5.72a11.32 11.32 0 0 1 .52-2.86 5.44 5.44 0 0 1 4.07-3.89 10.12 10.12 0 0 1 5.46 0 5.57 5.57 0 0 1 4.24 4.76 42 42 0 0 1 .24 4.36c.1 1.63-.47 1.74-1.72 1.71-1.47 0-2.93.06-4.39.06zm-1.05-2.39H141c.52 0 .77-.24.77-.75a17.14 17.14 0 0 0-.1-1.76c-.24-2-1.27-3.31-3-3.66a6.65 6.65 0 0 0-1.61-.12 3.68 3.68 0 0 0-3.82 3.17 14.93 14.93 0 0 0-.2 2.32c0 .57.22.79.8.8zm-14.71-8.83h5.5c.61 0 .71.12.71.74v1c0 .61-.1.71-.73.71h-5.45v11.98a4.82 4.82 0 0 0 .21 1.36 2.83 2.83 0 0 0 2.47 2.08 4.55 4.55 0 0 0 2.74-.41c.57-.29.7-.23.92.35l.39 1.08a.6.6 0 0 1-.35.85 8 8 0 0 1-4.23.64 5.08 5.08 0 0 1-5.09-5.27V46.85c0-.73.09-.82.81-.83h1.34c.64 0 .79.15.79.78v5zM55 64.53v-6.29a10.09 10.09 0 0 1 .45-2.66A5 5 0 0 1 59.53 52a8.59 8.59 0 0 1 5.93.73c.8.43.84.59.39 1.36l-.46.78a.53.53 0 0 1-.86.22 5.28 5.28 0 0 0-2.76-.8A3.44 3.44 0 0 0 58 57.56a13.61 13.61 0 0 0-.1 1.56v11.72c0 .78-.09.87-.88.87h-1.11c-.9 0-.92 0-.92-.9v-6.28zm92.38-.01v-6.14a8.32 8.32 0 0 1 .74-3.51A5 5 0 0 1 152 52a8.61 8.61 0 0 1 5.91.8c.72.41.75.56.34 1.27l-.43.74c-.31.52-.47.57-1 .27a5.14 5.14 0 0 0-3.71-.66 3.38 3.38 0 0 0-2.71 3.16 11.28 11.28 0 0 0-.09 1.42v11.85c0 .85-.05.9-.89.9h-1.39c-.55 0-.67-.12-.67-.67zM71.6 62v8.9c0 .68-.09.76-.77.77h-1.48c-.56 0-.7-.14-.7-.71V53.15c0-.74.12-.86.85-.86h1.34c.62 0 .75.14.75.76q.01 4.49.01 8.95zm-1.54-12.18a1.82 1.82 0 0 1-1.85-1.92 1.93 1.93 0 1 1 1.85 1.92z" fill="#e20022"/>
</svg>
