<svg xmlns="http://www.w3.org/2000/svg" viewBox="0 0 500 204.3" style="enable-background:new 0 0 500 204.3" xml:space="preserve">
	<switch>
		<g>
			<path d="M151.5 61.5c0 11.7-2.2 21.5-6.5 29.5s-10.2 14.4-17.5 19.3c-7.3 4.9-15.8 8.5-25.4 10.7-9.6 2.3-19.6 3.4-29.9 3.4H48.3v75.3H0V0h73.3c10.9 0 21.1 1.1 30.6 3.2 9.5 2.2 17.8 5.7 24.8 10.4 7.1 4.8 12.6 11.1 16.7 18.9 4.1 7.8 6.1 17.5 6.1 29zm-48.3.2c0-4.7-.9-8.6-2.8-11.6S96 44.8 92.8 43c-3.2-1.7-6.8-2.8-10.8-3.4-4.1-.6-8.3-.8-12.6-.8H48.3v47.1h20.3c4.5 0 8.8-.4 13-1.2 4.2-.8 7.8-2.1 11.2-3.9 3.3-1.9 5.9-4.3 7.8-7.5 1.7-3.1 2.6-6.9 2.6-11.6zm153.6 51.6c0-7.3-2.3-13.7-6.9-18.9-4.6-5.2-11.5-7.9-20.7-7.9-4.5 0-8.7.7-12.4 2.1s-7.1 3.3-9.8 5.7c-2.8 2.4-5.1 5.3-6.8 8.6-1.7 3.2-2.7 6.8-2.8 10.3l59.4.1zm42.5 17.9v5.7c0 1.9-.1 3.7-.3 5.3H197.2c.4 3.9 1.6 7.5 3.5 10.8 1.9 3.2 4.5 6 7.6 8.3s6.6 4.2 10.4 5.5c3.8 1.3 7.8 2 12 2 7.3 0 13.5-1.3 18.6-4.1s9.3-6.3 12.4-10.6l32.2 20.3c-6.6 9.6-15.3 17-26.1 22.2-10.8 5.2-23.3 7.7-37.7 7.7-10.5 0-20.5-1.7-29.9-4.9-9.4-3.3-17.7-8.1-24.7-14.4-7.1-6.3-12.6-14.1-16.7-23.3-4.1-9.3-6.1-19.8-6.1-31.6 0-11.5 2-21.8 5.9-31.2 3.9-9.3 9.3-17.2 16.1-23.7 6.8-6.5 14.7-11.5 24-15.1 9.3-3.6 19.2-5.3 29.9-5.3 10.3 0 19.8 1.8 28.5 5.2 8.7 3.5 16.1 8.5 22.3 15.1s11.1 14.6 14.5 24c3.7 9.3 5.4 20 5.4 32.1zM420.4 97c-2.1-.6-4.1-.9-6.1-1.2-2-.2-3.9-.2-5.8-.2-6.2 0-11.4 1.2-15.7 3.4-4.3 2.3-7.6 5-10.2 8.2-2.5 3.2-4.3 6.7-5.5 10.4-1.2 3.8-1.7 7.1-1.7 9.8v72.2h-46.3V59.2h44.6v20.3h.6c3.6-7.2 8.7-13 15.2-17.5 6.6-4.5 14.2-6.8 22.8-6.8 1.9 0 3.8.1 5.5.2 1.7.2 3.3.5 4.3.8L420.4 97zm32.8 102.7V0H500v199.8l-46.8-.1z" style="fill:#0073a1"/>
		</g>
	</switch>
</svg>
