<svg xmlns="http://www.w3.org/2000/svg" width="200" height="128">
	<path d="M82.184 70.2h-1.9V55.96h6.369a4.731 4.731 0 0 1 2.216.514 3.413 3.413 0 0 1 1.483 1.444A4.366 4.366 0 0 1 90.868 60a4.622 4.622 0 0 1-.436 2.018 3.651 3.651 0 0 1-1.384 1.562 4.281 4.281 0 0 1-2.394.633h-4.47zm0-7.616H86q2.889 0 2.889-2.591 0-2.353-2.809-2.354h-3.9zm17.308.042h6.208V70.2H104v-1.82a4.463 4.463 0 0 1-1.187 1.147 5.679 5.679 0 0 1-1.642.792 6.574 6.574 0 0 1-1.839.277 7.521 7.521 0 0 1-3.046-.574A4.98 4.98 0 0 1 94.21 68.4a7.032 7.032 0 0 1-1.127-2.393 12.009 12.009 0 0 1-.356-3.028 8.491 8.491 0 0 1 .732-3.46 6.686 6.686 0 0 1 2.275-2.79 6.232 6.232 0 0 1 3.719-1.088 7.592 7.592 0 0 1 2.69.514 5.7 5.7 0 0 1 2.235 1.563 4.671 4.671 0 0 1 1.088 2.592h-1.84a3.5 3.5 0 0 0-1.6-2.315 5.409 5.409 0 0 0-2.65-.653 4.206 4.206 0 0 0-3.3 1.5 5.044 5.044 0 0 0-1.028 1.819 7.667 7.667 0 0 0-.356 2.434 6.842 6.842 0 0 0 1.127 4.213 3.665 3.665 0 0 0 1.523 1.266 6.606 6.606 0 0 0 .989.357 3.79 3.79 0 0 0 1.049.137 4.621 4.621 0 0 0 2.967-1.028 3.572 3.572 0 0 0 1.265-1.642 6.464 6.464 0 0 0 .317-2.156h-4.437z"/>
	<path d="M107.682 55.96h6.409a4.121 4.121 0 0 1 1.938.454 3.349 3.349 0 0 1 1.385 1.286 3.565 3.565 0 0 1 .514 1.879 3.432 3.432 0 0 1-.237 1.286 2.342 2.342 0 0 1-.653 1.029 2.391 2.391 0 0 1-.969.653 4.366 4.366 0 0 1 1.839 1.167 2.819 2.819 0 0 1 .713 1.958 4.813 4.813 0 0 1-.594 2.414 3.939 3.939 0 0 1-1.6 1.582 4.664 4.664 0 0 1-2.216.534h-6.527zm5.677 6.053a2.727 2.727 0 0 0 2.057-.654 1.887 1.887 0 0 0 .613-1.359 2.287 2.287 0 0 0-.633-1.78 3.147 3.147 0 0 0-2.077-.574h-3.7v4.372zm.712 6.567a2.874 2.874 0 0 0 1.464-.356 2.317 2.317 0 0 0 .909-.91 2.763 2.763 0 0 0 .278-1.127 2.6 2.6 0 0 0-.673-1.919 3.746 3.746 0 0 0-2.611-.673h-3.818v4.985zm6.629-6.212a4.608 4.608 0 0 1 1.622-2.017 4.936 4.936 0 0 1 5.3 0 4.853 4.853 0 0 1 1.622 2.017 6.667 6.667 0 0 1 .534 2.652 6.844 6.844 0 0 1-.534 2.65 4.8 4.8 0 0 1-1.622 2.058 4.61 4.61 0 0 1-6.943-2.058 7.172 7.172 0 0 1-.514-2.65 6.667 6.667 0 0 1 .535-2.652zm1.523 4.432a3.266 3.266 0 0 0 .929 1.543 2.84 2.84 0 0 0 3.621 0 3.257 3.257 0 0 0 .949-1.543 6.407 6.407 0 0 0 .257-1.78 6.474 6.474 0 0 0-.257-1.8 3.329 3.329 0 0 0-.949-1.523 2.6 2.6 0 0 0-1.82-.613 2.444 2.444 0 0 0-2.315 1.227 5.553 5.553 0 0 0-.692 2.71 6.219 6.219 0 0 0 .275 1.779zm9.651-7.023h1.7v7.5a1.912 1.912 0 0 0 .534 1.445 1.65 1.65 0 0 0 1.207.513l.475-.039a3.416 3.416 0 0 0 1.819-1.068 2.96 2.96 0 0 0 .792-2.1v-6.251h1.741V70.2H138.4v-1.086a4.424 4.424 0 0 1-1.642 1.128 4.887 4.887 0 0 1-1.939.415 2.784 2.784 0 0 1-2.136-.87 3.121 3.121 0 0 1-.811-2.216zm10.899.079h1.662v1.5a2.658 2.658 0 0 1 .514-.632 4.671 4.671 0 0 1 1.108-.791 3.45 3.45 0 0 1 1.6-.357 4.037 4.037 0 0 1 1.9.416 2.892 2.892 0 0 1 1.227 1.227 4.324 4.324 0 0 1 .415 1.958V70.2h-1.741v-6.407a3.813 3.813 0 0 0-.435-1.958 1.721 1.721 0 0 0-1.6-.713 2.979 2.979 0 0 0-1.5.4 2.834 2.834 0 0 0-1.048 1.147 3.666 3.666 0 0 0-.356 1.623V70.2h-1.741zm10.663 3.027a3.8 3.8 0 0 1 .494-1.127 4.32 4.32 0 0 1 1.661-1.6 4.708 4.708 0 0 1 2.295-.574 5.153 5.153 0 0 1 1.84.317 3.39 3.39 0 0 1 1.463 1.147 4.568 4.568 0 0 1 .772 2.275H160.3a2.313 2.313 0 0 0-.83-1.622 2.686 2.686 0 0 0-1.721-.534 2.27 2.27 0 0 0-2.078 1.088 5.806 5.806 0 0 0-.712 3.165 5.481 5.481 0 0 0 .218 1.6 2.972 2.972 0 0 0 .613 1.127 2.444 2.444 0 0 0 1.879.85 2.48 2.48 0 0 0 1.7-.652 2.7 2.7 0 0 0 .89-1.781h1.7a5.231 5.231 0 0 1-.712 2.117 3.542 3.542 0 0 1-1.464 1.365 4.52 4.52 0 0 1-2.117.475 4.777 4.777 0 0 1-1.345-.2 4.357 4.357 0 0 1-.732-.3 2.929 2.929 0 0 1-.751-.455 4.144 4.144 0 0 1-1.227-1.662 6.45 6.45 0 0 1-.514-2.689l.079-1.049a9.994 9.994 0 0 1 .26-1.281zm19.064 4.075a5.436 5.436 0 0 1-.534 1.385 3.616 3.616 0 0 1-1.325 1.464 3.222 3.222 0 0 1-.455.256l-.1.041a4.308 4.308 0 0 1-.534.217 5.854 5.854 0 0 1-1.741.2 4.591 4.591 0 0 1-2.116-.475 4.416 4.416 0 0 1-1.543-1.345 5.71 5.71 0 0 1-.969-3.363 9.117 9.117 0 0 1 .1-1.306 6.318 6.318 0 0 1 .3-1.226 4.816 4.816 0 0 1 1.108-1.9 5.18 5.18 0 0 1 1.582-1.108 4.375 4.375 0 0 1 1.82-.376 4.314 4.314 0 0 1 1.444.237 4.436 4.436 0 0 1 1.306.772 4.046 4.046 0 0 1 .969 1.226 8.857 8.857 0 0 1 .811 3.957h-7.576a3.671 3.671 0 0 0 .771 2.512 2.79 2.79 0 0 0 2.236.87 2.852 2.852 0 0 0 1.364-.336 2.541 2.541 0 0 0 .97-.85 1.682 1.682 0 0 0 .336-.851zm-1.7-2.75a3.91 3.91 0 0 0-.175-1.208 3.508 3.508 0 0 0-.554-1.009 2.566 2.566 0 0 0-2.136-.871 2.43 2.43 0 0 0-1.444.436 3.244 3.244 0 0 0-1.444 2.65zm4.138-4.352h1.662v1.761a4.606 4.606 0 0 1 1.325-1.5 3.7 3.7 0 0 1 2.075-.498v1.819a3.9 3.9 0 0 0-2.393.693 2.22 2.22 0 0 0-.93 1.88V70.2h-1.74z" fill="#2e6790"/>
	<path d="M35.746 41.558c-.028-.647-.078-1.073 2.708-.578 4.746-1.089 7.055-1.98 12.592-1.165a16.66 16.66 0 0 1 12.561 1.514C66.761 43.3 67.7 45.2 67.82 49.843a33.571 33.571 0 0 1-.758 4.374c-.294-.009-.47-.83-.763-.839.024-1.22.388-2.631.307-3.85-.042-.622-.172-1.26-.278-1.973a6.472 6.472 0 0 0-.462-1.626c-2.519-5.74-9.782-6.318-14.667-4.72a22.358 22.358 0 0 0-4.118-.235c-3.884.054-5.864.834-8.649 1.456" fill="#191919"/>
	<path d="M63.587 68.1a19.641 19.641 0 0 1 2.91-.844c2.215.135 1.871 2.332 1.1 3.775a6.843 6.843 0 0 1-5.291 3.481c-1.3.215-2.639.238-4.11.36-.3 2.2-.668 4.343-.887 6.5-.391 3.867-2.36 6.277-6.22 7.053l-4.359-1.284c6.537.578 8.684-1.136 9.5-7.525.26-2.026.616-4.041.95-6.208 3.679-.336 7.751.265 9.691-4.712h-3.287q-.008-.296.003-.596zM37.551 40.839c-.6.24.535.927-.067 1.167a26.265 26.265 0 0 0-6.085-.884c-6.319-.079-9.673 2.848-9.911 9.129a41.275 41.275 0 0 0 2.794 14.867c.152.343 1.4 5.657 1.167 5.948-3.733-5.329-5.876-18.36-5.378-22.3.707-5.594 4.019-8.919 9.631-9.095 2.598-.085 5.232.749 7.849 1.168zm28.758 12.026c.118-.688.632-.889.871.54-.143 2.147-2.57 9.348-4.851 14.432-.469 1.046.269-.926-.05.177l-1.662-.684L64.4 58.7a54.7 54.7 0 0 0 1.909-5.835z"/>
	<path d="M44.627 85.485c-.162.371-.54.6-.81.9l-.007-.009-.573-.762a6.025 6.025 0 0 1-.833-1.589 66.249 66.249 0 0 1-.419-7.787s-1.943.5-1.126-.249c-.017-.171-.148-.485.023-.512a10.237 10.237 0 0 0 2.1-1.3c.313 3.484.152 7.567.886 9.865" fill="#121212"/>
	<path d="M29.149 75.8c-5.259-3.867-6.049-11.159-7.221-14.372l.738-.84c1.154 3.234 2.554 7.944 5.442 12.552-.226.26 1.267 2.398 1.041 2.66z"/>
	<path d="m25.449 71.066.678-.776c0 .078 1.066 1.63 1.638 2.415 1.314 1.805 2.174 3.77 6.427-.055.006.261-1.349 1.953-1.343 2.214-2.476 1.522-3.521 1.561-5.161-.25a23.362 23.362 0 0 1-2.239-3.548zm18.368 15.322.81-.9a4.887 4.887 0 0 0 2.1 1.656 41.432 41.432 0 0 1 4.358 1.288c-2.751.492-5.464.843-7.268-2.044z"/>
	<path d="M42.985 74.18a14.861 14.861 0 0 1-1.821 2.213c-4.452.739-6.719-.5-6.719-.5-.5-.89.939-1.118 1.284-1 1.706.561 2.995 1.389 7.256-.713z" fill="#070707"/>
	<path d="M60.617 67.33c.554.228.991.259 1.545.487a5.405 5.405 0 0 0 1.995.118c-.007.2 3.623.448 2.884.7-5.446.692-6.009.463-7.47.319z"/>
	<path d="M35.729 74.886c-.3.2-.269 1.177-.806 1.132-.834-.071-1.416-.944-2.074-1.154l-.018-.785.851-.812 1.119.7a2.849 2.849 0 0 0 .928.919z" fill="#020202"/>
	<path d="M22.666 60.588c.138.346-.492.56-.738.84l-.212-1.256.622-.766a4.227 4.227 0 0 0 .328 1.182z" fill="#070707"/>
	<path d="m43.237 85.617.573.762z" fill="#282828"/>
	<path d="m33.682 73.267 3.67-4.436 3.03 1.057a24.42 24.42 0 0 1-2.772 1.6c-1.257.5-3.064.289-2.809 2.479z"/>
	<path d="M57.1 67.4c-.6 2.374-1.138 4.055-1.435 5.778a59.248 59.248 0 0 0-.807 6.506c-.376 6.315-5.209 7.544-7.965 6-5.039-2.822.186-10.878-2.459-15.75-.461-.849-1.587-1.456-2.528-2.32a17.5 17.5 0 0 0 2.041-10.179c-.552-4.669-2.261-5.909-6.808-4.712-.353.093-.822.319-1.172.429-.075-4.919 2.489-9.581 6.9-10.591 5.958-1.361 12.52 2.624 14.79 8.939-1.633.591-3.1.724-4.207 1.9-2.05 2.194 1.921 9.89 3.65 14z" fill="#2e6093"/>
	<path d="M30.458 73.455c-.673-.188-2.187-1.974-3.066-3.688C24.79 64.7 23.8 58.18 22.932 52.939c-1.217-7.313 3.724-11.709 10.977-10.3 1.068.207 2.112.54 3.349.862-3.984 12.489-4.909 18.691-1.518 24.951-1.04 1.177-4.233 5.598-5.282 5.003z" fill="#2e6094"/>
	<path d="M65.168 49a26.477 26.477 0 0 1-1.468 8.1c-.928 3.007-2.56 5.751-3.843 8.633 0-4.226.2-8.32-.056-12.385-.251-4.03-2.8-6.9-5.754-9.393a25.967 25.967 0 0 0-2.173-1.477c6.483-1.741 13.209 1.007 13.294 6.522z" fill="#2d5f93"/>
	<path d="m36.78 73.56 5.763-3.793c.16.707.628 1.515.4 2-.843 1.81-2.769 2.323-6.163 1.793z" fill="#4874a1"/>
	<path d="M64.748 70.466a8.018 8.018 0 0 1-7.117 1.591l.146-2.247a24.312 24.312 0 0 0 6.223.625c.519.034.748.031.748.031z" fill="#3f6d9d"/>
	<path d="M41.034 53.569c-2.071-1.237-5.022.66-5.156.713-.223 2.572-.509 5.341-.65 7.5-.216 3.291 1.239 5.135 4.862 6.117 2.339-3.946 4.493-10.891.944-14.33zm-.9 2.954a1.079 1.079 0 1 1 1.079-1.079 1.078 1.078 0 0 1-1.075 1.079z" fill="#2c5f93"/>
	<path d="M54.808 54.125a6.915 6.915 0 0 0-.824 2.861c.091 2.327 1.885 5.586 4.109 7.844V53.205c-1.867 0-2.768.283-3.285.92zm1.23 2.4a1.079 1.079 0 1 1 1.078-1.079 1.079 1.079 0 0 1-1.078 1.077z" fill="#406e9d"/>
</svg>
