<svg xmlns="http://www.w3.org/2000/svg" width="200" height="128">
    <g fill-rule="evenodd">
        <path fill="#8790c1" d="M27.196 42.687H180l-7.196 42.626H20l7.196-42.626z"/>
        <path fill="#4f5599" d="M102.319 42.687H180l-7.196 42.626H95.123l7.196-42.626z"/>
        <path d="M43.784 67.537a5.969 5.969 0 0 1-3.925 1.385h-4.082l1.738-9.844h3.7a4.887 4.887 0 0 1 3.664 1.353 3.756 3.756 0 0 1 .967 3.467 5.936 5.936 0 0 1-2.062 3.639zm5.557-9.991c-1.246-1.6-3.254-2.4-6-2.4h-9.72l-4.286 24.266h4.59l1.155-6.556h5.4a9.322 9.322 0 0 0 6.507-2.516 11.56 11.56 0 0 0 3.491-6.746 7.3 7.3 0 0 0-1.137-6.048zM70.659 58.5a3.777 3.777 0 0 0-1.066-1.967 4.339 4.339 0 0 0-1.762-1.122 9.46 9.46 0 0 0-2.434-.263h-6.2l1.155-6.556h-4.593l-4.287 24.264h4.6l2.311-13.122h4.574a5.786 5.786 0 0 1 1.442.156 2.424 2.424 0 0 1 1.066.639 1.287 1.287 0 0 1 .418 1.09c-.05.41-.1.771-.156 1.066l-1.789 10.171h4.59l2.057-11.663a8.025 8.025 0 0 0 .074-2.693zM85.092 67.537a5.974 5.974 0 0 1-3.926 1.385h-4.073l1.729-9.844h3.7a4.918 4.918 0 0 1 3.672 1.353 3.771 3.771 0 0 1 .959 3.467 5.9 5.9 0 0 1-2.061 3.639zm5.565-9.991c-1.254-1.6-3.262-2.4-6.008-2.4h-9.72l-4.287 24.266h4.59l1.168-6.556h5.4a9.285 9.285 0 0 0 6.5-2.516 11.575 11.575 0 0 0 3.5-6.746 7.369 7.369 0 0 0-1.143-6.048zM122.358 48.588h-5.245a6.217 6.217 0 0 0-2.213.36 5.376 5.376 0 0 0-1.828 1.23 5.988 5.988 0 0 0-1.794 3.327l-.41 2.295h-3.279l-.68 3.934h3.278l-2.319 13.122h4.59l2.319-13.122h5.541l.688-3.934h-5.549l.189-.992a3.414 3.414 0 0 1 .254-.918 2.911 2.911 0 0 1 .516-.77 1.623 1.623 0 0 1 1.115-.5 13.075 13.075 0 0 1 1.68-.1h2.451zM133.62 67.537a5.974 5.974 0 0 1-3.926 1.385h-4.082l1.738-9.844h3.7a4.887 4.887 0 0 1 3.664 1.353 3.753 3.753 0 0 1 .967 3.467 5.939 5.939 0 0 1-2.061 3.639zm5.556-9.991c-1.245-1.6-3.253-2.4-6-2.4h-9.729l-4.277 24.266h4.59l1.155-6.556h5.4a9.322 9.322 0 0 0 6.507-2.516 11.567 11.567 0 0 0 3.492-6.746 7.308 7.308 0 0 0-1.138-6.048zM169.1 60.3a3.749 3.749 0 0 0-.122-1.771 6.17 6.17 0 0 0-.927-1.68 3.8 3.8 0 0 0-1.778-1.377 9.283 9.283 0 0 0-2.762-.328h-19.073l-3.131 17.712h4.59l2.319-13.122h5.9l-2.311 13.122h4.59l2.311-13.122h3.41a2.131 2.131 0 0 1 .934.189 2.333 2.333 0 0 1 .729.581 1.91 1.91 0 0 1 .41.771 2.858 2.858 0 0 1-.024.975L162.3 72.856h4.59z" fill="#fff"/>
    </g>
</svg>
