<svg xmlns="http://www.w3.org/2000/svg" width="200" height="128">
	<path d="M166.92 36H32.94A13 13 0 0 0 20 48.82V82.5a12.91 12.91 0 0 0 12.86 13H166.8A13.11 13.11 0 0 0 180 82.33V49.18A13.09 13.09 0 0 0 166.92 36z" fill="#6281b7"/>
	<path fill="#4c4c4d" d="M101.36 49.14a27.19 27.19 0 0 0-3.83-.27H82.35a1.58 1.58 0 0 0-1.83 1.41c-2.46 9.3-5 18.59-7.46 27.89-.24.88-.47 1.76-.75 2.84h5.71a1.21 1.21 0 0 0 1.41-1.07c.74-2.9 1.58-5.78 2.29-8.69a1.56 1.56 0 0 1 1.81-1.43c3.45 0 6.92 0 10.36-.17 7.48-.43 12.1-4.71 13.29-12.08.72-4.48-1.57-7.81-5.82-8.43zm-2 9.54c-.58 3.3-2.93 5.19-6.85 5.33-2.56.09-5.13 0-7.69 0-.74 0-1-.22-.82-1q1-3.75 2-7.53a1.06 1.06 0 0 1 1.24-.88h4.06v-.11c1.81.11 3.63.1 5.42.36 2.22.35 2.98 1.59 2.59 3.83zm-34.2-8.83a1 1 0 0 0-1.2-1h-5.24a1.8 1.8 0 0 0-1.67.91Q46.64 64.84 36.19 79.91c-.17.25-.3.53-.53 1 .5 0 .84.09 1.18.09h4.81a1.77 1.77 0 0 0 1.74-1c1.18-1.91 2.43-3.77 3.62-5.68a1.69 1.69 0 0 1 1.55-.92h12c.81 0 1.14.3 1.21 1.11.16 1.81.44 3.61.6 5.42.07.78.41 1 1.16 1h5.34c1 0 1.22-.28 1.07-1.25q-2.44-14.89-4.78-29.83zm-5.34 17.8h-7.26a6.15 6.15 0 0 1-1-.21l7.58-11.69.27.06c.19 1.39.38 2.79.56 4.18.28 2.15.55 4.3.85 6.45.08.77-.11 1.22-1 1.21zm78.07-18.79c-4.32 0-8.63-.12-12.94.06a15.43 15.43 0 0 0-9.74 3.66c-6 5.34-8.49 12.34-8.22 20.18.16 4.76 3.11 7.61 7.82 8s9.68.19 14.53.22a1 1 0 0 0 .81-.5c.5-1.59.93-3.2 1.45-5.06h-1.51c-3.45 0-6.91.06-10.37 0-4.19-.1-5.85-2.16-5.26-6.29a30.85 30.85 0 0 1 2.61-8.66c1.84-3.92 4.76-6.1 9.23-6 3.24.06 6.48 0 9.73 0 .42 0 1.13-.23 1.23-.51.54-1.57.94-3.18 1.41-4.84a4.85 4.85 0 0 0-.78-.26z"/>
	<path d="M146.73 57.39c-.11.54-.16.92-.25 1.28-1.14 4.31-2.3 8.61-3.43 12.92-.89 3.38-.47 4 3 4.17 1.21.06 2.43 0 3.63 0 .87 0 1.26-.27 1.48-1.13q2-7.6 4.05-15.18c.67-2.41.2-2.09 2.73-2.12h3c1.14 0 1.23.16.93 1.28q-1.8 6.66-3.59 13.31c-.73 2.69-1.47 5.36-2.16 8.06a1.08 1.08 0 0 1-1.24 1h-12.73a4.52 4.52 0 0 1-.74-.06c-4.61-.69-6.28-3-5.2-7.54 1.2-5.06 2.63-10.06 4-15.08.1-.35.49-.85.76-.86 1.87-.09 3.74-.05 5.76-.05z" fill="#fefefe"/>
</svg>
