<svg xmlns="http://www.w3.org/2000/svg" width="200" height="128">
	<defs>
		<radialGradient id="a" cx="41.513" cy="46.019" r="105.051" gradientTransform="translate(26.52 -9.307)" gradientUnits="userSpaceOnUse">
			<stop offset="0" stop-color="#fff"/>
			<stop offset=".5" stop-color="#4c6b97"/>
			<stop offset="1" stop-color="#231f20"/>
		</radialGradient>
	</defs>
	<ellipse cx="100" cy="64" rx="80" ry="42.083" fill="url(#a)"/>
	<ellipse cx="100" cy="64" rx="76.875" ry="38.959" fill="#6181b6"/>
	<path d="m115.572 76.592 3.814-19.625c.86-4.43.145-7.734-2.127-9.822-2.2-2.02-5.935-3-11.418-3h-6.6l1.89-9.724A1.25 1.25 0 0 0 99.9 32.93h-9.114a1.249 1.249 0 0 0-1.227 1.012l-4.05 20.835a11.708 11.708 0 0 0-2.728-6.022c-2.673-3.061-6.9-4.612-12.569-4.612H52.545a1.249 1.249 0 0 0-1.226 1.011l-8.2 42.173a1.25 1.25 0 0 0 1.227 1.489h9.187a1.252 1.252 0 0 0 1.23-1.016l1.982-10.2h6.839a29.511 29.511 0 0 0 8.957-1.155 17.538 17.538 0 0 0 6.574-3.937A20.217 20.217 0 0 0 83 67.688l-1.638 8.427a1.249 1.249 0 0 0 1.227 1.485H91.7a1.249 1.249 0 0 0 1.227-1.011l4.5-23.15h6.254c2.665 0 3.445.531 3.657.759.193.208.594.942.145 3.254l-3.626 18.66a1.249 1.249 0 0 0 1.227 1.488h9.259a1.249 1.249 0 0 0 1.229-1.008zM73.316 60.376c-.572 2.942-1.651 5.041-3.207 6.238-1.58 1.217-4.109 1.834-7.509 1.834h-4.076L61.469 53.3h5.264c3.867 0 5.425.826 6.051 1.52.867.959 1.051 2.88.532 5.556zm81.234-11.621c-2.674-3.061-6.9-4.612-12.57-4.612h-17.666a1.249 1.249 0 0 0-1.227 1.011l-8.2 42.173a1.25 1.25 0 0 0 1.227 1.489h9.186a1.251 1.251 0 0 0 1.227-1.012l1.983-10.2h6.838a29.511 29.511 0 0 0 8.957-1.155 17.549 17.549 0 0 0 6.575-3.937 19.581 19.581 0 0 0 6.15-11.013c1.048-5.374.213-9.662-2.48-12.744zm-9.528 11.621c-.573 2.942-1.652 5.041-3.207 6.238-1.58 1.217-4.108 1.834-7.513 1.834h-4.072l2.945-15.15h5.264c3.867 0 5.425.826 6.051 1.52.867.961 1.051 2.882.532 5.558z" fill="#fff"/>
	<path d="M66.733 52.048q5.235 0 6.979 1.933t.831 6.634q-.953 4.9-3.671 6.99T62.6 69.7h-5.592l3.43-17.65zM44.349 87.566h9.187l2.179-11.213h7.869a28.186 28.186 0 0 0 8.571-1.094 16.226 16.226 0 0 0 6.114-3.669 18.325 18.325 0 0 0 5.769-10.331q1.458-7.5-2.2-11.682t-11.626-4.184H52.545zM90.786 34.18H99.9l-2.179 11.213h8.12q7.664 0 10.573 2.673t1.745 8.662l-3.814 19.625h-9.259l3.626-18.66q.618-3.183-.456-4.342t-4.573-1.159H96.4l-4.7 24.161h-9.111zm47.653 17.868q5.235 0 6.979 1.933t.831 6.634q-.952 4.9-3.671 6.99T134.3 69.7h-5.588l3.43-17.65zm-22.384 35.518h9.187l2.179-11.213h7.869a28.186 28.186 0 0 0 8.571-1.094 16.226 16.226 0 0 0 6.114-3.669 18.325 18.325 0 0 0 5.769-10.331q1.458-7.5-2.2-11.682t-11.628-4.184h-17.665z" fill="#000004"/>
</svg>
