<svg xmlns="http://www.w3.org/2000/svg" width="200" height="128">
    <defs>
        <linearGradient id="linear-gradient" x1="21.1" y1="60.84" x2="48.36" y2="60.84" gradientTransform="matrix(1 0 0 -1 0 108)" gradientUnits="userSpaceOnUse">
            <stop offset="0" stop-color="#12b212"/>
            <stop offset="1" stop-color="#0f0"/>
        </linearGradient>
    </defs>
    <path d="M34.86 55.24c-6.59-.7-13.23-5.68-13.76-16.24 10.23 0 15.7 6.06 16.23 15.66 1.94-11.52 11-10.17 11-10.17.43 6.53-4.93 10.48-11 10.81-1.71-3.59-11.93-12.41-11.93-12.41s9.87 8.6 9.51 12.32" fill="url(#linear-gradient)"/>
    <path fill="#980200" d="M38 91.83a6.93 6.93 0 01-7-7c-.3-4.06 2.91-7.06 2.91-11C33.19 64 20 65.24 20 73.86a8.09 8.09 0 002.37 5.75l9.82 9.83a8.16 8.16 0 005.75 2.37"/>
    <path fill="#ff0000" d="M55.9 73.87a6.93 6.93 0 01-7 6.95c-4.06.29-7.06-2.92-11-2.92-9.84.73-8.62 13.91 0 13.91a8.08 8.08 0 005.75-2.37l9.83-9.82a8.14 8.14 0 002.37-5.75"/>
    <path fill="#980200" d="M38 55.92a6.91 6.91 0 016.95 6.95c.3 4.07-2.91 7.06-2.91 11 .72 9.84 13.91 8.62 13.91 0a8.16 8.16 0 00-2.37-5.75L43.7 58.3a8.12 8.12 0 00-5.7-2.37"/>
    <path fill="#ff0000" d="M20 73.87a6.94 6.94 0 017-7c4.06-.29 7.06 2.92 11 2.92 9.85-.74 8.63-13.91 0-13.91a8.12 8.12 0 00-5.74 2.37l-9.84 9.83A8.13 8.13 0 0020 73.87"/>
    <path d="M66 55.49h8.6c5.53 0 10 2 10 8.09 0 5.91-4.51 8.52-9.83 8.52h-3.12v8.53H66zm8.45 12.1c3.13 0 4.6-1.39 4.6-4S77.34 60 74.27 60h-2.62v7.58zM87.66 55.73a3.3 3.3 0 113.28 3 3 3 0 01-3.28-3zm.44 5.77h5.67v19.13H88.1zM97.92 68.86h9.47v4h-9.47zM110.93 53.61h5.67v6.6l-.25 3.47a8.62 8.62 0 015.91-2.68c4.16 0 5.93 2.94 5.93 7.72v11.91h-5.67V69.48c0-2.75-.74-3.62-2.37-3.62-1.43 0-2.3.67-3.55 1.86v12.91h-5.67zM131.46 71.07c0-6.36 4.48-10 9.32-10s9.33 3.68 9.33 10-4.48 10-9.33 10-9.32-3.65-9.32-10zm12.83 0c0-3.31-1.16-5.46-3.51-5.46s-3.51 2.15-3.51 5.46 1.17 5.45 3.51 5.45 3.51-2.14 3.51-5.45zM153.29 74.69V53.61H159v21.31c0 1.21.56 1.6 1 1.6a2.41 2.41 0 00.7-.08l.67 4.18a7.2 7.2 0 01-2.84.48c-3.91 0-5.24-2.54-5.24-6.41zM162.82 71.07c0-6.21 4.43-10 9-10 5.45 0 8.15 4 8.15 9.19a12.59 12.59 0 01-.24 2.5h-11.41a4.61 4.61 0 005 4 8 8 0 004.14-1.25l1.87 3.42a12.43 12.43 0 01-6.79 2.16c-5.49.01-9.72-3.68-9.72-10.02zM175.16 69c0-2.1-.92-3.61-3.18-3.61-1.8 0-3.34 1.2-3.73 3.61z"/>
</svg>
