<svg xmlns="http://www.w3.org/2000/svg" viewBox="-1.26 2.36 104.65 35.15">
	<path fill="#f15a22" d="M.744 30.11a.512.512 0 0 1 .52-.52h1.793a1.97 1.97 0 0 1 2.23 1.961v.017c0 1.316-1.057 2.003-2.346 2.003H1.774v1.417a.507.507 0 0 1-.51.51.51.51 0 0 1-.52-.51zm2.23 2.53c.78 0 1.265-.436 1.265-1.046v-.018c0-.688-.494-1.048-1.265-1.048h-1.2v2.112zm3.429-2.581a.515.515 0 0 1 1.03 0v4.929a.515.515 0 0 1-1.03 0zM9 30.076a.516.516 0 0 1 .52-.519h.11a.647.647 0 0 1 .535.3l2.934 3.798v-3.603a.507.507 0 0 1 1.015 0v4.927a.502.502 0 0 1-.503.512h-.043a.65.65 0 0 1-.536-.31l-3.017-3.907v3.723a.507.507 0 0 1-1.015 0zm6.364 2.464v-.017a2.989 2.989 0 0 1 3.026-3.034 3.183 3.183 0 0 1 2.002.595.525.525 0 0 1 .21.42.513.513 0 0 1-.511.51.54.54 0 0 1-.319-.117 2.23 2.23 0 0 0-1.425-.46 1.984 1.984 0 0 0-1.902 2.07v.016a1.96 1.96 0 0 0 1.994 2.096 2.403 2.403 0 0 0 1.417-.444v-1.099H18.7a.45.45 0 0 1-.461-.444.458.458 0 0 1 .461-.452h1.634a.513.513 0 0 1 .52.52v1.567a.712.712 0 0 1-.36.654 3.728 3.728 0 0 1-2.087.637 2.912 2.912 0 0 1-3.042-3.018m9.011 2.247 2.18-4.862a.653.653 0 0 1 .619-.419h.05a.644.644 0 0 1 .613.419l2.18 4.862a.45.45 0 0 1 .057.218.482.482 0 0 1-.486.493.531.531 0 0 1-.502-.36l-.479-1.098h-2.85l-.494 1.132a.494.494 0 0 1-.477.326.472.472 0 0 1-.478-.478.52.52 0 0 1 .067-.233m3.839-1.66-1.03-2.372-1.033 2.372zm2.976-3.05a.516.516 0 0 1 .52-.52h.11a.648.648 0 0 1 .535.3l2.934 3.798v-3.603a.507.507 0 0 1 1.014 0v4.927a.502.502 0 0 1-.503.512h-.042a.65.65 0 0 1-.536-.31l-3.018-3.907v3.723a.507.507 0 0 1-1.014 0zm10.275.366h-1.445a.484.484 0 0 1 0-.968h3.953a.484.484 0 0 1 0 .968h-1.452v4.504a.528.528 0 0 1-1.056 0zm4.044 4.454V30a.519.519 0 0 1 .527-.528h3.46a.471.471 0 0 1 .468.468.466.466 0 0 1-.468.467h-2.941v1.549h2.56a.473.473 0 0 1 .466.476.464.464 0 0 1-.467.458h-2.56v1.598h2.984a.471.471 0 0 1 .468.468.465.465 0 0 1-.468.466h-3.502a.52.52 0 0 1-.527-.526m5.428-2.432v-.016a3.013 3.013 0 0 1 3.069-3.078 3.125 3.125 0 0 1 2.041.671.526.526 0 0 1 .204.417.525.525 0 0 1-.833.41 2.143 2.143 0 0 0-1.42-.537 2.003 2.003 0 0 0-1.963 2.101v.016A2.003 2.003 0 0 0 54 34.556a2.125 2.125 0 0 0 1.486-.568.474.474 0 0 1 .316-.12.488.488 0 0 1 .322.859 3.035 3.035 0 0 1-2.16.8 2.995 2.995 0 0 1-3.026-3.062m6.534-2.517a.523.523 0 0 1 1.046 0v2h2.84v-2a.523.523 0 0 1 1.046 0v5a.523.523 0 0 1-1.046 0v-2.031h-2.84v2.03a.523.523 0 0 1-1.046 0zm6.457.019a.524.524 0 0 1 .527-.527h.111a.652.652 0 0 1 .543.306l2.975 3.851v-3.655a.515.515 0 0 1 1.03 0v4.999a.508.508 0 0 1-.51.517h-.042a.656.656 0 0 1-.545-.314l-3.06-3.963v3.775a.515.515 0 0 1-1.03 0zm11.574 2.498v-.016a2.038 2.038 0 0 0-2.024-2.117 2.011 2.011 0 0 0-2.006 2.101v.016a2.032 2.032 0 0 0 2.024 2.107 2.003 2.003 0 0 0 2.006-2.09m-5.126 0v-.017a3.112 3.112 0 0 1 6.223-.016v.016a3.112 3.112 0 0 1-6.223.016m7.485-2.517a.523.523 0 0 1 1.046 0v4.523h2.694a.476.476 0 1 1 0 .952H78.39a.518.518 0 0 1-.527-.527zm9.782 2.517v-.016a2.038 2.038 0 0 0-2.024-2.117 2.01 2.01 0 0 0-2.006 2.101v.016a2.031 2.031 0 0 0 2.023 2.107 2.003 2.003 0 0 0 2.007-2.09m-5.126 0v-.017a3.112 3.112 0 0 1 6.223-.016v.016a3.112 3.112 0 0 1-6.223.016m7.22 0v-.016a3.033 3.033 0 0 1 3.07-3.078 3.233 3.233 0 0 1 2.033.605.529.529 0 0 1 .212.423.523.523 0 0 1-.519.52.551.551 0 0 1-.324-.12 2.26 2.26 0 0 0-1.445-.467 2.013 2.013 0 0 0-1.93 2.101v.016a1.989 1.989 0 0 0 2.024 2.126 2.434 2.434 0 0 0 1.437-.451V33.01h-1.173a.457.457 0 0 1-.467-.45.465.465 0 0 1 .467-.461h1.658a.52.52 0 0 1 .527.527v1.592a.726.726 0 0 1-.366.663 3.788 3.788 0 0 1-2.117.647 2.955 2.955 0 0 1-3.086-3.063m8.429.646-2.049-2.814a.64.64 0 0 1-.119-.365.507.507 0 0 1 .527-.502.6.6 0 0 1 .511.316l1.658 2.388 1.683-2.397a.603.603 0 0 1 .502-.316.496.496 0 0 1 .51.511.64.64 0 0 1-.145.375l-2.032 2.78v1.86a.523.523 0 0 1-1.046 0zM78.474 21.212a.438.438 0 0 0-.342.145.504.504 0 0 0-.131.354v1.527a.452.452 0 0 0 .473.474h2.974a2.271 2.271 0 0 0 .882-.171 2.172 2.172 0 0 0 1.183-1.184 2.202 2.202 0 0 0 .171-.855v-5.999c.228-.193.416-.347.566-.46a2.074 2.074 0 0 1 .395-.25 1.317 1.317 0 0 1 .328-.106 2.339 2.339 0 0 1 .368-.026h.58a.452.452 0 0 0 .474-.473V12.74a.508.508 0 0 0-.132-.355.444.444 0 0 0-.343-.146h-1.184a2.319 2.319 0 0 0-1.052.237v-2.29h2.236a.51.51 0 0 0 .356-.13.443.443 0 0 0 .145-.343V8.163a.444.444 0 0 0-.145-.343.511.511 0 0 0-.356-.132h-2.236V5.373a.442.442 0 0 0-.145-.342.511.511 0 0 0-.354-.132h-2.052a.512.512 0 0 0-.356.132.442.442 0 0 0-.145.342v2.315h-2.447a.452.452 0 0 0-.474.475v1.551a.45.45 0 0 0 .474.474h2.447v4.657l-.264.237c-.21.193-.385.341-.525.447a2.014 2.014 0 0 1-.395.238 1.17 1.17 0 0 1-.395.09c-.14.01-.325.014-.553.014h-.551a.49.49 0 0 0-.356.144.484.484 0 0 0-.145.356v1.448a.494.494 0 0 0 .5.5h.921a6.01 6.01 0 0 0 1.106-.08 1.746 1.746 0 0 0 .657-.263v3.236zm17.207-8.972V9.688h5.026a.495.495 0 0 0 .5-.499V7.662a.441.441 0 0 0-.145-.342.51.51 0 0 0-.355-.131h-5.026V5.373a.443.443 0 0 0-.144-.342.511.511 0 0 0-.355-.132h-2.184a.452.452 0 0 0-.473.474v1.816h-4.631a.452.452 0 0 0-.473.473V9.19a.504.504 0 0 0 .131.354.438.438 0 0 0 .342.145h4.63v2.552h-4.682v2.632a3.778 3.778 0 0 0 .197 1.316 3.177 3.177 0 0 0 .907 1.157l3 2.657-.842.711a1.774 1.774 0 0 1-.737.434 4.371 4.371 0 0 1-.842.065h-2.184a.438.438 0 0 0-.341.145.504.504 0 0 0-.132.355v1.527a.452.452 0 0 0 .473.473h3.184a5.603 5.603 0 0 0 1.525-.158 3.209 3.209 0 0 0 1.132-.684l1-.869.974.868a3.193 3.193 0 0 0 1.13.685 5.606 5.606 0 0 0 1.527.158h3.078a.508.508 0 0 0 .355-.132.44.44 0 0 0 .145-.341v-1.527a.494.494 0 0 0-.5-.5h-2.525a1.071 1.071 0 0 1-.343-.052 2.724 2.724 0 0 1-.342-.144 2.073 2.073 0 0 1-.42-.303l-.843-.71 3-2.658a3.259 3.259 0 0 0 .605-.606 2.859 2.859 0 0 0 .329-.566 1.856 1.856 0 0 0 .144-.592c.019-.21.026-.447.026-.709V12.24h-4.84zm1.948 2.579a.806.806 0 0 1-.04.302.99.99 0 0 1-.25.277l-3.157 2.71-3.184-2.71a1.005 1.005 0 0 1-.25-.277.836.836 0 0 1-.04-.302v-.106h6.921zM73.408 5.373a.452.452 0 0 0-.475-.474h-2.078a.451.451 0 0 0-.473.474v11.945h-6.13a.451.451 0 0 0-.475.475v1.815a.505.505 0 0 0 .131.354.44.44 0 0 0 .343.145h6.13v3.369a.504.504 0 0 0 .132.354.438.438 0 0 0 .342.145h2.078a.443.443 0 0 0 .343-.145.51.51 0 0 0 .132-.354v-3.37h1.499a.495.495 0 0 0 .5-.499v-1.814a.443.443 0 0 0-.145-.343.51.51 0 0 0-.355-.132h-1.5zM60.936 8.215a1.708 1.708 0 0 0 1.276-.527 1.745 1.745 0 0 0 .512-1.262V5.373a.503.503 0 0 0-.131-.355.438.438 0 0 0-.342-.144H60.41a.44.44 0 0 0-.342.144.51.51 0 0 0-.131.355v.343h-7.71a.494.494 0 0 0-.499.499v1.5a.442.442 0 0 0 .5.5h3.604v2.789h-3.84a.452.452 0 0 0-.475.473v1.473a.51.51 0 0 0 .132.356.44.44 0 0 0 .342.145h3.841v10.025a.504.504 0 0 0 .132.354.438.438 0 0 0 .342.145h1.736a.495.495 0 0 0 .501-.5V13.452h3.815a.494.494 0 0 0 .5-.5v-1.474a.44.44 0 0 0-.145-.342.511.511 0 0 0-.355-.131h-3.815V8.215zm-8.077 6.604a.814.814 0 0 0-.343.053c-.07.035-.123.175-.158.42l-1.21 7.973a1.037 1.037 0 0 0-.026.17v.067c0 .123.087.184.264.184h1.92a.717.717 0 0 0 .473-.119.827.827 0 0 0 .184-.486l1.106-7.92v-.158c0-.14-.089-.21-.264-.21h-1.974zM66.764 5.03a1.582 1.582 0 0 0-.487-.052H64.04c-.193 0-.29.07-.29.21a.806.806 0 0 0 .106.341l1.605 3.238a.926.926 0 0 0 .263.38.74.74 0 0 0 .422.093h2.367c.21 0 .316-.061.316-.184a.336.336 0 0 0-.026-.118 5.327 5.327 0 0 0-.132-.277l-1.631-3.29c-.089-.191-.18-.306-.276-.34m-5.157 9.866a.425.425 0 0 0-.33-.105h-1.84c-.177 0-.264.07-.264.21v.131l1.105 7.947a.815.815 0 0 0 .185.486.712.712 0 0 0 .473.119h1.788c.177 0 .264-.062.264-.184v-.08a1.159 1.159 0 0 0-.026-.184l-1.21-7.972a.838.838 0 0 0-.145-.368m5.157-3.724a1.3 1.3 0 0 0-.487-.065H64.04c-.193 0-.29.07-.29.21a.815.815 0 0 0 .106.343l1.605 3.236a.925.925 0 0 0 .263.38.737.737 0 0 0 .422.093h2.367c.21 0 .316-.061.316-.184a.337.337 0 0 0-.026-.118 5.24 5.24 0 0 0-.132-.276l-1.631-3.29a.683.683 0 0 0-.276-.329m-36.839 3.25v.974a6.554 6.554 0 0 0 .132 1.42 2.46 2.46 0 0 0 .514 1.04 4.183 4.183 0 0 0 1.039.868 14.12 14.12 0 0 0 1.737.881l1.157.527-.211.078q-.974.37-1.881.618a7.034 7.034 0 0 1-1.88.25h-3.71a.438.438 0 0 0-.342.145.505.505 0 0 0-.132.356v1.658a.452.452 0 0 0 .473.473h3.71c.51 0 .951-.017 1.33-.052a6.922 6.922 0 0 0 1.116-.198 11.269 11.269 0 0 0 1.171-.381 28.09 28.09 0 0 0 1.488-.631l1.947-.869 1.946.869q.843.367 1.473.618a10.208 10.208 0 0 0 1.198.394 7.24 7.24 0 0 0 1.144.198q.579.052 1.29.052h3.71a.452.452 0 0 0 .473-.473V21.58a.512.512 0 0 0-.132-.356.44.44 0 0 0-.341-.144h-3.71a7.218 7.218 0 0 1-1.763-.21 16.088 16.088 0 0 1-1.973-.659l-.211-.078 1.158-.527a15.208 15.208 0 0 0 1.775-.92 4.255 4.255 0 0 0 1.04-.868 2.32 2.32 0 0 0 .487-1.027 7.14 7.14 0 0 0 .119-1.395v-.973h3.525a.45.45 0 0 0 .473-.474v-1.683a.452.452 0 0 0-.473-.475h-3.525v-1.55a.51.51 0 0 0-.132-.357.447.447 0 0 0-.343-.145h-2.368a.442.442 0 0 0-.499.501v1.551h-8.683v-1.577a.443.443 0 0 0-.145-.343.51.51 0 0 0-.354-.132h-2.37a.452.452 0 0 0-.473.475v1.577h-3.657a.506.506 0 0 0-.354.132.444.444 0 0 0-.145.343v1.683a.444.444 0 0 0 .145.343.505.505 0 0 0 .354.13h3.683zm11.999 0v.921q0 .474-.027.763a1.02 1.02 0 0 1-.171.5 1.39 1.39 0 0 1-.46.394c-.21.123-.509.273-.895.448l-2.789 1.263-2.788-1.263q-.554-.262-.869-.434a1.414 1.414 0 0 1-.473-.381.982.982 0 0 1-.185-.514c-.017-.2-.026-.46-.026-.776v-.921zM28.216 5.847a2.26 2.26 0 0 0-.881.171 2.176 2.176 0 0 0-.71.473 2.387 2.387 0 0 0-.488.711 2.119 2.119 0 0 0-.184.881v1.342a.443.443 0 0 0 .144.343.51.51 0 0 0 .356.13h1.763a.45.45 0 0 0 .473-.473V8.24h17.76v1.184a.45.45 0 0 0 .474.473h1.789a.448.448 0 0 0 .473-.473V8.083a2.244 2.244 0 0 0-.171-.881 2.206 2.206 0 0 0-2.04-1.355h-7.577V4.9a.504.504 0 0 0-.131-.354.439.439 0 0 0-.342-.145h-2.71a.44.44 0 0 0-.342.145.51.51 0 0 0-.132.354v.948zm-17.66 17.944a.45.45 0 0 0 .474.473h2.71a.51.51 0 0 0 .355-.131.44.44 0 0 0 .145-.342v-3.579h9.366a.442.442 0 0 0 .5-.5v-1.71a.494.494 0 0 0-.5-.499H14.24V8.057h8.55a.443.443 0 0 0 .343-.145.512.512 0 0 0 .131-.355V5.925a.452.452 0 0 0-.474-.473H1.979a.452.452 0 0 0-.475.473v1.632a.51.51 0 0 0 .132.355.443.443 0 0 0 .343.145h8.578v9.446H1.268a.494.494 0 0 0-.5.5v1.71a.442.442 0 0 0 .5.5h9.288zM6.175 9.688a1.46 1.46 0 0 0-.565-.08H2.952a.314.314 0 0 0-.25.08.245.245 0 0 0-.066.158.807.807 0 0 0 .106.342l2.736 5.315a.722.722 0 0 0 .29.368 1.426 1.426 0 0 0 .579.08H9.03c.21 0 .315-.071.315-.21a1.037 1.037 0 0 0-.131-.37l-2.736-5.314a.701.701 0 0 0-.303-.369m12.472 0a.694.694 0 0 0-.303.37l-2.737 5.313a1.1 1.1 0 0 0-.118.25.577.577 0 0 0-.014.12c0 .139.106.21.316.21h2.685a1.435 1.435 0 0 0 .579-.08.729.729 0 0 0 .289-.368l2.737-5.315a1.01 1.01 0 0 0 .104-.342c0-.158-.104-.237-.316-.237h-2.657a1.461 1.461 0 0 0-.565.08"/>
</svg>
