<svg xmlns="http://www.w3.org/2000/svg" width="200" height="128">
    <path d="M80.49 64a19.37 19.37 0 015.72-13.8 1 1 0 00.27-.66.94.94 0 00-.27-.66l-8.77-8.76a.91.91 0 00-1.31 0 33.79 33.79 0 00.46 48.22.94.94 0 00.64.26.93.93 0 00.65-.29l8.6-8.93a.89.89 0 00.26-.66.92.92 0 00-.28-.65A19.37 19.37 0 0180.49 64zm-3.27 22.34a31.92 31.92 0 01-.42-44.24l7.45 7.45a21.39 21.39 0 00.28 29.2z"/>
    <path d="M58.18 64a41.51 41.51 0 0112.57-29.9.93.93 0 000-1.32l-8.65-8.86a1 1 0 00-.66-.28.9.9 0 00-.66.27 56.09 56.09 0 000 80.18.92.92 0 00.65.27 1 1 0 00.67-.28l8.67-8.86a.93.93 0 000-1.32A41.49 41.49 0 0158.18 64zm3.24 38.11a54.24 54.24 0 010-76.22l7.37 7.54a43.69 43.69 0 000 61.15zM100 55.27a8.73 8.73 0 108.75 8.73 8.75 8.75 0 00-8.75-8.73zm0 15.6a6.87 6.87 0 116.89-6.87 6.88 6.88 0 01-6.89 6.87zM123.87 40.12a.91.91 0 00-1.31 0l-8.77 8.76a.94.94 0 00-.27.66 1 1 0 00.27.66 19.51 19.51 0 01-.27 27.87.92.92 0 00-.28.65.89.89 0 00.26.66l8.6 8.93a.93.93 0 00.65.29.94.94 0 00.64-.26 33.79 33.79 0 00.46-48.22zm-1.09 46.22l-7.31-7.59a21.39 21.39 0 00.28-29.2l7.45-7.45a31.92 31.92 0 01-.42 44.24z"/>
    <path d="M139.22 23.91a1 1 0 00-.66-.27 1 1 0 00-.66.28l-8.67 8.86a.93.93 0 000 1.32 41.85 41.85 0 010 59.8.93.93 0 000 1.32l8.67 8.86a1 1 0 00.67.28.92.92 0 00.65-.27 56.09 56.09 0 000-80.18zm-.64 78.2l-7.38-7.53a43.69 43.69 0 000-61.15l7.37-7.54a54.24 54.24 0 010 76.22z"/>
</svg>
