<svg xmlns="http://www.w3.org/2000/svg" width="200" height="128">
    <path d="M35.046 62.562l.272-.076a52.309 52.309 0 0 0 5.954-2.186 22.022 22.022 0 0 0 5.479-3.122 11.921 11.921 0 0 0 3.841-5.434 4.92 4.92 0 0 0 .348-1.1c-2.664 3.641-13.224 4.021-13.224 4.021l2.493-2.286A34.771 34.771 0 0 0 20 58.94a19.017 19.017 0 0 1 10.718 4.794c1.43-.443 2.892-.76 4.328-1.159zM51.6 62.2a58.126 58.126 0 0 0-19.867 2.534 19.174 19.174 0 0 1 3.345 4.766c5.321-2.964 12.7-6.752 16.526-7.29zm-15.852 8.818a18.992 18.992 0 0 1 1.2 5.066l9.282-9.544-10.482 4.478zM40.62 75.7v-.1a.219.219 0 0 0-.038-.114.114.114 0 0 0-.095-.051h.082a.169.169 0 0 0 .076-.152.182.182 0 0 0-.114-.19.538.538 0 0 0-.2 0h-.259v.716h.139v-.26h.1a.272.272 0 0 1 .133 0 .157.157 0 0 1 .057.146v.105h.139l-.025-.1zm-.411-.557h.091a.327.327 0 0 1 .146 0 .094.094 0 0 1 .038.088.1.1 0 0 1-.063.1.363.363 0 0 1-.114 0h-.095v-.19z"/>
    <path d="M40.791 74.932a.634.634 0 1 0 .2.462.633.633 0 0 0-.2-.462m-.462 1a.519.519 0 0 1-.38-.158.546.546 0 0 1 0-.76.531.531 0 0 1 .76 0 .546.546 0 0 1 0 .76.519.519 0 0 1-.38.158M107.985 66.863a4.256 4.256 0 1 1 4.252-4.256 4.25 4.25 0 0 1-4.252 4.256zm0-13.155a8.866 8.866 0 1 0 4.252 16.7v1.076a4.26 4.26 0 0 1-4.252 4.256 2.318 2.318 0 0 0 0 4.636 8.894 8.894 0 0 0 8.858-8.866v-8.865a8.894 8.894 0 0 0-8.858-8.867v-.07zM64.214 66.863a4.256 4.256 0 1 1 4.245-4.263 4.254 4.254 0 0 1-4.245 4.263zm0-13.155a8.894 8.894 0 0 0-8.858 8.867v12.667a2.316 2.316 0 1 0 4.631 0v-4.851a8.8 8.8 0 0 0 4.246 1.083 8.9 8.9 0 0 0 0-17.791l-.019.025zm24.916 0a8.894 8.894 0 0 0-8.858 8.867v6.574a2.316 2.316 0 1 0 4.632 0v-6.542a4.245 4.245 0 1 1 8.49 0v6.574a2.316 2.316 0 1 0 4.626 0v-6.574a8.894 8.894 0 0 0-8.858-8.867zm56.577 13.079a4.256 4.256 0 1 1 4.246-4.263 4.254 4.254 0 0 1-4.246 4.263zm0-13.155a8.867 8.867 0 1 0 8.858 8.867 8.863 8.863 0 0 0-8.858-8.867zm-18.861 13.231a4.256 4.256 0 1 1 4.252-4.256 4.255 4.255 0 0 1-4.252 4.256zm6.561-19.235a2.317 2.317 0 0 0-2.316 2.318V54.8a8.87 8.87 0 1 0 4.626 7.81V49.94a2.317 2.317 0 0 0-2.316-2.318l.006.006zm-56.9 6.08a2.316 2.316 0 0 0-2.315 2.318v13.148a2.316 2.316 0 1 0 4.631 0V56.032a2.317 2.317 0 0 0-2.316-2.318zm-2.315-3.762a2.316 2.316 0 1 0 2.315-2.318 2.316 2.316 0 0 0-2.315 2.318zm93.647 21.477a2.317 2.317 0 0 0 2.316-2.325v-9.854a.968.968 0 0 1 .968-.969 4.254 4.254 0 0 1 4.246 4.256v6.542a2.316 2.316 0 1 0 4.631 0v-6.542a8.894 8.894 0 0 0-8.858-8.867 8.718 8.718 0 0 0-3.284.633 8.709 8.709 0 0 0-3.283-.633 8.9 8.9 0 0 0-8.858 8.867v6.542a2.316 2.316 0 1 0 4.631 0v-6.542a4.254 4.254 0 0 1 4.245-4.256.969.969 0 0 1 .969.969v9.829a2.318 2.318 0 0 0 2.315 2.325z"/>
</svg>
