<svg height="240" width="200" xmlns="http://www.w3.org/2000/svg" xmlns:xlink="http://www.w3.org/1999/xlink">
	<defs>
		<filter id="a" height="1.281" width="1.229" x="-.115" y="-.07">
			<feOffset dy="2" in="SourceAlpha" result="shadowOffsetOuter1"/>
			<feGaussianBlur in="shadowOffsetOuter1" result="shadowBlurOuter1" stdDeviation="1"/>
			<feColorMatrix in="shadowBlurOuter1" values="0 0 0 0 0 0 0 0 0 0 0 0 0 0 0 0 0 0 0.25427423 0"/>
		</filter>
		<filter id="c" height="1.281" width="1.229" x="-.115" y="-.07">
			<feOffset dy="2" in="SourceAlpha" result="shadowOffsetOuter1"/>
			<feGaussianBlur in="shadowOffsetOuter1" result="shadowBlurOuter1" stdDeviation="1"/>
			<feColorMatrix in="shadowBlurOuter1" values="0 0 0 0 0 0 0 0 0 0 0 0 0 0 0 0 0 0 0.25427423 0"/>
		</filter>
		<filter id="e" height="1.246" width="1.201" x="-.1" y="-.088">
			<feOffset dy="1" in="SourceAlpha" result="shadowOffsetOuter1"/>
			<feGaussianBlur in="shadowOffsetOuter1" result="shadowBlurOuter1" stdDeviation="1"/>
			<feColorMatrix in="shadowBlurOuter1" values="0 0 0 0 0 0 0 0 0 0 0 0 0 0 0 0 0 0 0.101987092 0"/>
		</filter>
		<filter id="g" height="1.229" width="1.215" x="-.107" y="-.082">
			<feOffset dy="1" in="SourceAlpha" result="shadowOffsetOuter1"/>
			<feGaussianBlur in="shadowOffsetOuter1" result="shadowBlurOuter1" stdDeviation="1"/>
			<feColorMatrix in="shadowBlurOuter1" values="0 0 0 0 0 0 0 0 0 0 0 0 0 0 0 0 0 0 0.101987092 0"/>
		</filter>
		<filter id="i" height="1.162" width="1.125" x="-.062" y="-.066">
			<feMorphology in="SourceAlpha" operator="dilate" radius=".5" result="shadowSpreadOuter1"/>
			<feOffset dy="1" in="shadowSpreadOuter1" result="shadowOffsetOuter1"/>
			<feGaussianBlur in="shadowOffsetOuter1" result="shadowBlurOuter1" stdDeviation="1.5"/>
			<feComposite in="shadowBlurOuter1" in2="SourceAlpha" operator="out" result="shadowBlurOuter1"/>
			<feColorMatrix in="shadowBlurOuter1" values="0 0 0 0 0.160909878 0 0 0 0 0.252651212 0 0 0 0 0.527875213 0 0 0 0.35326087 0"/>
		</filter>
		<filter id="k" height="1.221" width="1.234" x="-.117" y="-.081">
			<feMorphology in="SourceAlpha" operator="dilate" radius=".5" result="shadowSpreadOuter1"/>
			<feOffset dy="2" in="shadowSpreadOuter1" result="shadowOffsetOuter1"/>
			<feGaussianBlur in="shadowOffsetOuter1" result="shadowBlurOuter1" stdDeviation="2"/>
			<feComposite in="shadowBlurOuter1" in2="SourceAlpha" operator="out" result="shadowBlurOuter1"/>
			<feColorMatrix in="shadowBlurOuter1" values="0 0 0 0 0.235294118 0 0 0 0 0.380392157 0 0 0 0 0.815686275 0 0 0 0.15942029 0"/>
		</filter>
		<filter id="m" height="1.091" width="1.349" x="-.201" y="-.031">
			<feMorphology in="SourceAlpha" radius=".5" result="shadowSpreadOuter1"/>
			<feOffset dx="-1" dy="2" in="shadowSpreadOuter1" result="shadowOffsetOuter1"/>
			<feGaussianBlur in="shadowOffsetOuter1" result="shadowBlurOuter1" stdDeviation="2"/>
			<feColorMatrix in="shadowBlurOuter1" values="0 0 0 0 0.628029337 0 0 0 0 0.25783008 0 0 0 0 0.0713793602 0 0 0 0.311141304 0"/>
		</filter>
		<filter id="o" height="1.315" width="1.056" x="-.028" y="-.095">
			<feMorphology in="SourceAlpha" radius=".5" result="shadowSpreadOuter1"/>
			<feOffset dy="2" in="shadowSpreadOuter1" result="shadowOffsetOuter1"/>
			<feGaussianBlur in="shadowOffsetOuter1" result="shadowBlurOuter1" stdDeviation="1.5"/>
			<feColorMatrix in="shadowBlurOuter1" values="0 0 0 0 0.589896896 0 0 0 0 0.444269767 0 0 0 0 0.0232174145 0 0 0 0.213966259 0"/>
		</filter>
		<filter id="q" height="1.126" width="1.028" x="-.021" y="-.063">
			<feOffset dx="-1" in="SourceAlpha" result="shadowOffsetOuter1"/>
			<feGaussianBlur in="shadowOffsetOuter1" result="shadowBlurOuter1" stdDeviation=".5"/>
			<feColorMatrix in="shadowBlurOuter1" values="0 0 0 0 0.781329719 0 0 0 0 0.53013306 0 0 0 0 0.202916359 0 0 0 0.311962183 0"/>
		</filter>
		<rect id="b" height="28.444" rx="1" width="34.909" x="75.877" y="91.103"/>
		<rect id="d" height="28.444" rx="1" width="34.909" x="118.932" y="91.103"/>
		<rect id="f" height="28.444" rx="1" width="34.909" x="118.932" y="55.094"/>
		<rect id="n" height="143.316" rx="1" width="37.236" x=".241" y="31.026"/>
		<path id="j" d="M142.85 169.966H87.42l-32.576-47.821 59.947-20.02z"/>
		<path id="l" d="m179.507 122.026-36.986 47.94-27.08-.387v-67.453z"/>
		<path id="p" d="M1.95 32.112H178.37a1 1 0 0 0 .206-1.978L37.423.389a1 1 0 0 0-.851.214L1.306 30.348a1 1 0 0 0 .644 1.764z"/>
		<path id="r" d="m37.72.617 70.065 31.37 70.893.448a1 1 0 0 0 .213-1.978z"/>
		<ellipse id="h" cx="94.332" cy="70.41" rx="16.291" ry="15.316"/>
	</defs>
	<g fill="none" fill-rule="evenodd" transform="translate(10.12 7.411)">
		<use fill="#000" filter="url(#a)" height="100%" width="100%" xlink:href="#b"/>
		<use fill="#b2dce9" height="100%" width="100%" xlink:href="#b"/>
		<use fill="#000" filter="url(#c)" height="100%" width="100%" xlink:href="#d"/>
		<use fill="#b2dce9" height="100%" width="100%" xlink:href="#d"/>
		<use fill="#000" filter="url(#e)" height="100%" width="100%" xlink:href="#f"/>
		<use fill="#b2dce9" height="100%" width="100%" xlink:href="#f"/>
		<use fill="#000" filter="url(#g)" height="100%" width="100%" xlink:href="#h"/>
		<use fill="#c8d8e4" height="100%" width="100%" xlink:href="#h"/>
		<g fill-rule="nonzero">
			<g stroke-linejoin="round">
				<use fill="#000" filter="url(#i)" height="100%" width="100%" xlink:href="#j"/>
				<use fill="#3b87ec" height="100%" stroke="#3b87ec" width="100%" xlink:href="#j"/>
			</g>
			<g stroke-linejoin="round">
				<use fill="#000" filter="url(#k)" height="100%" width="100%" xlink:href="#l"/>
				<use fill="#3c61d0" height="100%" stroke="#3c61d0" width="100%" xlink:href="#l"/>
			</g>
			<use fill="#000" filter="url(#m)" height="100%" width="100%" xlink:href="#n"/>
			<use fill="#f6961f" height="100%" width="100%" xlink:href="#n"/>
			<rect fill="#ffd16a" height="54.701" rx="1" width="37.236" x=".241" y="31.026"/>
			<path d="M.24 78.068h37.237v47.043H.241z" fill="#f9b861"/>
			<use fill="#000" filter="url(#o)" height="100%" width="100%" xlink:href="#p"/>
			<use fill="#f6961f" height="100%" width="100%" xlink:href="#p"/>
		</g>
		<path d="M37.157.59v31.735h70.978z" fill="#f9b861"/>
		<use fill="#000" filter="url(#q)" height="100%" width="100%" xlink:href="#r"/>
		<use fill="#ffd16a" height="100%" width="100%" xlink:href="#r"/>
	</g>
	<g fill="#4d4d4d">
		<path d="M21.528 214.374q2.452 0 4.314-.65 1.891-.65 3.162-1.803 1.3-1.182 1.95-2.807.65-1.626.65-3.576 0-4.049-2.511-6.324-2.483-2.275-7.565-2.275H14.73v17.435zm0-21.957q4.019 0 6.974.946 2.984.916 4.935 2.63 1.95 1.714 2.896 4.137.975 2.423.975 5.408 0 2.955-1.034 5.408-1.035 2.453-3.044 4.226-1.98 1.773-4.935 2.777-2.926.976-6.767.976H14.73v15.839H9.028v-42.347z"/>
		<path d="M48.655 204.829v29.935h-5.26v-29.935zm1.123-9.397q0 .768-.325 1.448-.295.65-.827 1.182-.503.502-1.212.797-.68.296-1.448.296-.768 0-1.448-.296-.65-.295-1.152-.797-.503-.532-.798-1.182-.296-.68-.296-1.448 0-.769.296-1.448.295-.71.798-1.212.502-.532 1.152-.827.68-.296 1.448-.296.768 0 1.448.296.71.295 1.212.827.532.502.827 1.212.325.68.325 1.448z"/>
		<path d="M62.278 210.828q1.419-3.074 3.487-4.788 2.069-1.743 5.053-1.743.946 0 1.803.207.887.207 1.566.65l-.384 3.93q-.177.739-.886.739-.414 0-1.212-.177-.798-.178-1.803-.178-1.418 0-2.541.414-1.093.414-1.98 1.241-.857.798-1.566 2.01-.68 1.182-1.241 2.718v18.913h-5.29v-29.935h3.014q.857 0 1.182.325.325.325.444 1.123z"/>
		<path d="M94.548 221.289q-3.635.118-6.206.59-2.541.444-4.167 1.183-1.595.738-2.334 1.743-.71 1.005-.71 2.246 0 1.182.385 2.04.384.856 1.034 1.418.68.531 1.566.797.916.237 1.95.237 1.39 0 2.542-.266 1.152-.296 2.157-.828 1.034-.531 1.95-1.27.946-.739 1.833-1.685zm-16.992-12.234q2.482-2.394 5.349-3.576 2.866-1.182 6.353-1.182 2.512 0 4.462.827 1.95.828 3.28 2.305 1.33 1.478 2.01 3.576.68 2.098.68 4.61v19.149h-2.335q-.768 0-1.182-.237-.414-.265-.65-1.004l-.591-2.837q-1.182 1.093-2.305 1.95-1.123.828-2.364 1.419-1.241.561-2.66.857-1.389.325-3.103.325-1.743 0-3.28-.473-1.536-.502-2.689-1.478-1.123-.975-1.802-2.452-.65-1.508-.65-3.547 0-1.773.975-3.398.975-1.655 3.162-2.925 2.186-1.271 5.703-2.069 3.516-.827 8.629-.946v-2.334q0-3.487-1.507-5.26-1.507-1.803-4.403-1.803-1.95 0-3.28.503-1.3.472-2.276 1.093-.946.59-1.655 1.093-.68.473-1.36.473-.531 0-.915-.266-.384-.295-.65-.71z"/>
		<path d="M127.733 216.53q0-1.831-.531-3.338-.503-1.537-1.508-2.63-.975-1.123-2.393-1.714-1.419-.62-3.221-.62-3.783 0-6 2.215-2.186 2.187-2.718 6.088zm4.256 14.038q-.975 1.182-2.335 2.068-1.36.857-2.925 1.419-1.537.561-3.192.827-1.655.296-3.28.296-3.103 0-5.733-1.035-2.6-1.064-4.521-3.073-1.891-2.039-2.955-5.024-1.064-2.984-1.064-6.855 0-3.133.946-5.852.975-2.718 2.777-4.698 1.803-2.01 4.403-3.133 2.6-1.152 5.852-1.152 2.689 0 4.964.916 2.305.887 3.96 2.6 1.684 1.685 2.63 4.197.946 2.482.946 5.674 0 1.24-.266 1.654-.266.414-1.005.414h-20.006q.089 2.837.768 4.935.71 2.098 1.95 3.517 1.242 1.389 2.956 2.098 1.714.68 3.841.68 1.98 0 3.399-.444 1.448-.473 2.482-1.005 1.034-.531 1.714-.975.71-.473 1.212-.473.65 0 1.004.503z"/>
		<path d="M163.52 204.829v29.935h-3.133q-1.123 0-1.418-1.094l-.414-3.22q-1.95 2.157-4.373 3.486-2.424 1.3-5.556 1.3-2.453 0-4.344-.797-1.862-.828-3.132-2.305-1.271-1.478-1.921-3.576-.62-2.098-.62-4.64v-19.09h5.26v19.09q0 3.399 1.536 5.26 1.566 1.862 4.758 1.862 2.334 0 4.344-1.093 2.039-1.123 3.753-3.073v-22.045z"/>
		<path d="M189.288 209.764q-.355.65-1.093.65-.444 0-1.005-.325-.562-.325-1.389-.71-.798-.413-1.92-.738-1.124-.355-2.66-.355-1.33 0-2.394.355-1.064.325-1.832.916-.739.59-1.153 1.389-.384.768-.384 1.684 0 1.153.65 1.921.68.768 1.773 1.33 1.094.561 2.483 1.005 1.389.413 2.837.916 1.477.472 2.866 1.063t2.482 1.478q1.094.887 1.744 2.187.68 1.27.68 3.073 0 2.069-.74 3.842-.738 1.743-2.186 3.043-1.448 1.271-3.546 2.01-2.098.739-4.847.739-3.132 0-5.673-1.005-2.542-1.034-4.315-2.63l1.241-2.01q.237-.384.562-.59.325-.207.827-.207.532 0 1.123.413.591.414 1.419.916.857.503 2.068.916 1.212.414 3.014.414 1.537 0 2.69-.384 1.152-.414 1.92-1.093.769-.68 1.123-1.567.384-.886.384-1.89 0-1.242-.68-2.04-.65-.827-1.743-1.389-1.093-.59-2.512-1.004l-2.866-.917q-1.448-.472-2.866-1.063-1.39-.621-2.483-1.537-1.093-.916-1.773-2.246-.65-1.36-.65-3.28 0-1.714.71-3.28.709-1.596 2.068-2.778 1.36-1.212 3.34-1.92 1.979-.71 4.52-.71 2.956 0 5.29.946 2.364.916 4.078 2.54z"/>
	</g>
</svg>
