<svg xmlns="http://www.w3.org/2000/svg" xmlns:xlink="http://www.w3.org/1999/xlink" viewBox="0.94 2.44 196.87 237.12">
	<defs>
		<filter id="a" width="1.229" height="1.281" x="-.115" y="-.07">
			<feOffset dy="2" in="SourceAlpha" result="shadowOffsetOuter1"/>
			<feGaussianBlur in="shadowOffsetOuter1" result="shadowBlurOuter1" stdDeviation="1"/>
			<feColorMatrix in="shadowBlurOuter1" values="0 0 0 0 0 0 0 0 0 0 0 0 0 0 0 0 0 0 0.25427423 0"/>
		</filter>
		<filter id="c" width="1.229" height="1.281" x="-.115" y="-.07">
			<feOffset dy="2" in="SourceAlpha" result="shadowOffsetOuter1"/>
			<feGaussianBlur in="shadowOffsetOuter1" result="shadowBlurOuter1" stdDeviation="1"/>
			<feColorMatrix in="shadowBlurOuter1" values="0 0 0 0 0 0 0 0 0 0 0 0 0 0 0 0 0 0 0.25427423 0"/>
		</filter>
		<filter id="e" width="1.201" height="1.246" x="-.1" y="-.088">
			<feOffset dy="1" in="SourceAlpha" result="shadowOffsetOuter1"/>
			<feGaussianBlur in="shadowOffsetOuter1" result="shadowBlurOuter1" stdDeviation="1"/>
			<feColorMatrix in="shadowBlurOuter1" values="0 0 0 0 0 0 0 0 0 0 0 0 0 0 0 0 0 0 0.101987092 0"/>
		</filter>
		<filter id="g" width="1.215" height="1.229" x="-.107" y="-.082">
			<feOffset dy="1" in="SourceAlpha" result="shadowOffsetOuter1"/>
			<feGaussianBlur in="shadowOffsetOuter1" result="shadowBlurOuter1" stdDeviation="1"/>
			<feColorMatrix in="shadowBlurOuter1" values="0 0 0 0 0 0 0 0 0 0 0 0 0 0 0 0 0 0 0.101987092 0"/>
		</filter>
		<filter id="i" width="1.125" height="1.162" x="-.062" y="-.066">
			<feMorphology in="SourceAlpha" operator="dilate" radius=".5" result="shadowSpreadOuter1"/>
			<feOffset dy="1" in="shadowSpreadOuter1" result="shadowOffsetOuter1"/>
			<feGaussianBlur in="shadowOffsetOuter1" result="shadowBlurOuter1" stdDeviation="1.5"/>
			<feComposite in="shadowBlurOuter1" in2="SourceAlpha" operator="out" result="shadowBlurOuter1"/>
			<feColorMatrix in="shadowBlurOuter1" values="0 0 0 0 0.160909878 0 0 0 0 0.252651212 0 0 0 0 0.527875213 0 0 0 0.35326087 0"/>
		</filter>
		<filter id="k" width="1.234" height="1.221" x="-.117" y="-.081">
			<feMorphology in="SourceAlpha" operator="dilate" radius=".5" result="shadowSpreadOuter1"/>
			<feOffset dy="2" in="shadowSpreadOuter1" result="shadowOffsetOuter1"/>
			<feGaussianBlur in="shadowOffsetOuter1" result="shadowBlurOuter1" stdDeviation="2"/>
			<feComposite in="shadowBlurOuter1" in2="SourceAlpha" operator="out" result="shadowBlurOuter1"/>
			<feColorMatrix in="shadowBlurOuter1" values="0 0 0 0 0.235294118 0 0 0 0 0.380392157 0 0 0 0 0.815686275 0 0 0 0.15942029 0"/>
		</filter>
		<filter id="m" width="1.349" height="1.091" x="-.201" y="-.031">
			<feMorphology in="SourceAlpha" radius=".5" result="shadowSpreadOuter1"/>
			<feOffset dx="-1" dy="2" in="shadowSpreadOuter1" result="shadowOffsetOuter1"/>
			<feGaussianBlur in="shadowOffsetOuter1" result="shadowBlurOuter1" stdDeviation="2"/>
			<feColorMatrix in="shadowBlurOuter1" values="0 0 0 0 0.628029337 0 0 0 0 0.25783008 0 0 0 0 0.0713793602 0 0 0 0.311141304 0"/>
		</filter>
		<filter id="o" width="1.056" height="1.315" x="-.028" y="-.095">
			<feMorphology in="SourceAlpha" radius=".5" result="shadowSpreadOuter1"/>
			<feOffset dy="2" in="shadowSpreadOuter1" result="shadowOffsetOuter1"/>
			<feGaussianBlur in="shadowOffsetOuter1" result="shadowBlurOuter1" stdDeviation="1.5"/>
			<feColorMatrix in="shadowBlurOuter1" values="0 0 0 0 0.589896896 0 0 0 0 0.444269767 0 0 0 0 0.0232174145 0 0 0 0.213966259 0"/>
		</filter>
		<filter id="q" width="1.028" height="1.126" x="-.021" y="-.063">
			<feOffset dx="-1" in="SourceAlpha" result="shadowOffsetOuter1"/>
			<feGaussianBlur in="shadowOffsetOuter1" result="shadowBlurOuter1" stdDeviation=".5"/>
			<feColorMatrix in="shadowBlurOuter1" values="0 0 0 0 0.781329719 0 0 0 0 0.53013306 0 0 0 0 0.202916359 0 0 0 0.311962183 0"/>
		</filter>
		<rect id="b" width="34.909" height="28.444" x="75.877" y="91.103" rx="1"/>
		<rect id="d" width="34.909" height="28.444" x="118.932" y="91.103" rx="1"/>
		<rect id="f" width="34.909" height="28.444" x="118.932" y="55.094" rx="1"/>
		<rect id="n" width="37.236" height="143.316" x=".241" y="31.026" rx="1"/>
		<path id="j" d="M142.85 169.966H87.42l-32.576-47.821 59.947-20.02z"/>
		<path id="l" d="m179.507 122.026-36.986 47.94-27.08-.387v-67.453z"/>
		<path id="p" d="M1.95 32.112H178.37a1 1 0 0 0 .206-1.978L37.423.389a1 1 0 0 0-.851.214L1.306 30.348a1 1 0 0 0 .644 1.764z"/>
		<path id="r" d="m37.72.617 70.065 31.37 70.893.448a1 1 0 0 0 .213-1.978z"/>
		<ellipse id="h" cx="94.332" cy="70.41" rx="16.291" ry="15.316"/>
	</defs>
	<g fill="none" fill-rule="evenodd" transform="translate(10.12 7.411)">
		<use width="100%" height="100%" fill="#000" filter="url(#a)" xlink:href="#b"/>
		<use width="100%" height="100%" fill="#b2dce9" xlink:href="#b"/>
		<use width="100%" height="100%" fill="#000" filter="url(#c)" xlink:href="#d"/>
		<use width="100%" height="100%" fill="#b2dce9" xlink:href="#d"/>
		<use width="100%" height="100%" fill="#000" filter="url(#e)" xlink:href="#f"/>
		<use width="100%" height="100%" fill="#b2dce9" xlink:href="#f"/>
		<use width="100%" height="100%" fill="#000" filter="url(#g)" xlink:href="#h"/>
		<use width="100%" height="100%" fill="#c8d8e4" xlink:href="#h"/>
		<g fill-rule="nonzero">
			<g stroke-linejoin="round">
				<use width="100%" height="100%" fill="#000" filter="url(#i)" xlink:href="#j"/>
				<use width="100%" height="100%" fill="#3b87ec" stroke="#3b87ec" xlink:href="#j"/>
			</g>
			<g stroke-linejoin="round">
				<use width="100%" height="100%" fill="#000" filter="url(#k)" xlink:href="#l"/>
				<use width="100%" height="100%" fill="#3c61d0" stroke="#3c61d0" xlink:href="#l"/>
			</g>
			<use width="100%" height="100%" fill="#000" filter="url(#m)" xlink:href="#n"/>
			<use width="100%" height="100%" fill="#f6961f" xlink:href="#n"/>
			<rect width="37.236" height="54.701" x=".241" y="31.026" fill="#ffd16a" rx="1"/>
			<path fill="#f9b861" d="M.24 78.068h37.237v47.043H.241z"/>
			<use width="100%" height="100%" fill="#000" filter="url(#o)" xlink:href="#p"/>
			<use width="100%" height="100%" fill="#f6961f" xlink:href="#p"/>
		</g>
		<path fill="#f9b861" d="M37.157.59v31.735h70.978z"/>
		<use width="100%" height="100%" fill="#000" filter="url(#q)" xlink:href="#r"/>
		<use width="100%" height="100%" fill="#ffd16a" xlink:href="#r"/>
	</g>
	<path d="M21.527 214.373q2.452 0 4.314-.65 1.891-.65 3.162-1.803 1.3-1.182 1.95-2.807.65-1.625.65-3.575 0-4.049-2.511-6.324-2.482-2.276-7.565-2.276H14.73v17.435zm0-21.956q4.019 0 6.974.946 2.984.916 4.935 2.63 1.95 1.714 2.896 4.137.975 2.423.975 5.408 0 2.955-1.034 5.407-1.035 2.453-3.044 4.226-1.98 1.773-4.935 2.778-2.926.975-6.767.975H14.73v15.84H9.027v-42.347zm27.127 12.411v29.935h-5.26v-29.935zm1.123-9.397q0 .768-.325 1.448-.295.65-.827 1.182-.503.503-1.212.798-.68.296-1.448.296-.768 0-1.448-.296-.65-.295-1.152-.798-.503-.532-.798-1.182-.296-.68-.296-1.448 0-.768.296-1.448.295-.709.798-1.211.502-.532 1.152-.828.68-.295 1.448-.295.768 0 1.448.295.71.296 1.212.828.532.502.827 1.211.325.68.325 1.448zm12.5 15.396q1.419-3.073 3.487-4.787 2.069-1.744 5.053-1.744.946 0 1.803.207.886.207 1.566.65l-.384 3.93q-.177.74-.887.74-.413 0-1.211-.178-.798-.177-1.803-.177-1.418 0-2.541.413-1.094.414-1.98 1.242-.857.797-1.566 2.009-.68 1.182-1.241 2.719v18.912h-5.29v-29.935h3.014q.857 0 1.182.325.325.325.443 1.123zm32.27 10.461q-3.635.118-6.206.591-2.542.443-4.167 1.182-1.596.739-2.335 1.744-.709 1.004-.709 2.245 0 1.182.384 2.04.385.856 1.035 1.418.68.532 1.566.798.916.236 1.95.236 1.39 0 2.542-.266 1.152-.295 2.157-.827 1.034-.532 1.95-1.27.946-.74 1.832-1.685zm-16.992-12.234q2.482-2.394 5.348-3.576 2.867-1.182 6.354-1.182 2.512 0 4.462.828 1.95.827 3.28 2.305 1.33 1.477 2.01 3.575.68 2.098.68 4.61v19.15h-2.335q-.769 0-1.182-.237-.414-.266-.65-1.005l-.592-2.837q-1.182 1.094-2.305 1.95-1.122.828-2.364 1.419-1.24.561-2.66.857-1.388.325-3.102.325-1.743 0-3.28-.473-1.537-.502-2.69-1.477-1.122-.976-1.802-2.453-.65-1.507-.65-3.546 0-1.773.975-3.398.975-1.655 3.162-2.926 2.187-1.27 5.703-2.069 3.517-.827 8.63-.945v-2.335q0-3.487-1.508-5.26-1.507-1.802-4.403-1.802-1.95 0-3.28.502-1.3.473-2.275 1.093-.946.591-1.655 1.094-.68.473-1.36.473-.531 0-.916-.266-.384-.296-.65-.71zm50.177 7.476q0-1.832-.532-3.339-.503-1.536-1.507-2.63-.975-1.123-2.394-1.714-1.418-.62-3.22-.62-3.783 0-6 2.216-2.186 2.187-2.718 6.087zm4.255 14.037q-.975 1.182-2.334 2.069-1.36.856-2.926 1.418-1.537.561-3.191.827-1.655.296-3.28.296-3.103 0-5.733-1.034-2.6-1.064-4.522-3.074-1.89-2.039-2.955-5.023-1.064-2.985-1.064-6.856 0-3.132.946-5.851.975-2.719 2.778-4.699 1.802-2.01 4.403-3.132 2.6-1.153 5.85-1.153 2.69 0 4.965.917 2.305.886 3.96 2.6 1.685 1.684 2.63 4.196.946 2.482.946 5.674 0 1.241-.266 1.655-.266.414-1.005.414h-20.006q.089 2.836.769 4.934.709 2.099 1.95 3.517 1.241 1.389 2.955 2.098 1.714.68 3.842.68 1.98 0 3.398-.443 1.448-.473 2.482-1.005 1.035-.532 1.714-.975.71-.473 1.212-.473.65 0 1.005.502zm31.53-25.739v29.935h-3.132q-1.123 0-1.418-1.093l-.414-3.221q-1.95 2.157-4.373 3.487-2.424 1.3-5.556 1.3-2.453 0-4.344-.798-1.862-.827-3.132-2.305-1.27-1.477-1.921-3.575-.62-2.099-.62-4.64v-19.09h5.26v19.09q0 3.398 1.536 5.26 1.566 1.862 4.758 1.862 2.334 0 4.344-1.094 2.039-1.123 3.753-3.073v-22.045zm25.769 4.935q-.355.65-1.094.65-.443 0-1.004-.325-.562-.325-1.39-.709-.797-.414-1.92-.739-1.123-.354-2.66-.354-1.33 0-2.393.354-1.064.325-1.832.916-.74.591-1.153 1.39-.384.768-.384 1.684 0 1.152.65 1.92.68.769 1.773 1.33 1.094.562 2.482 1.005 1.39.414 2.837.916 1.478.473 2.867 1.064 1.389.59 2.482 1.477 1.093.887 1.744 2.187.68 1.27.68 3.073 0 2.069-.74 3.842-.738 1.744-2.186 3.044-1.448 1.27-3.546 2.01-2.099.738-4.847.738-3.132 0-5.673-1.005-2.542-1.034-4.315-2.63l1.241-2.01q.237-.383.562-.59.325-.207.827-.207.532 0 1.123.414.591.413 1.419.916.856.502 2.068.916 1.212.413 3.014.413 1.537 0 2.69-.384 1.152-.413 1.92-1.093.768-.68 1.123-1.566.384-.887.384-1.891 0-1.242-.68-2.04-.65-.827-1.743-1.388-1.093-.591-2.512-1.005l-2.866-.916q-1.448-.473-2.867-1.064-1.388-.62-2.482-1.537-1.093-.916-1.773-2.245-.65-1.36-.65-3.28 0-1.715.71-3.28.708-1.596 2.068-2.779 1.36-1.211 3.339-1.92 1.98-.71 4.521-.71 2.955 0 5.29.946 2.364.916 4.078 2.541z" fill="#4d4d4d"/>
</svg>
