<svg xmlns="http://www.w3.org/2000/svg" width="200" height="128">
    <path d="M117.655 38.539a18.513 18.513 0 0 1 1.182 4.47 17.934 17.934 0 0 1 .141 3.166 3.412 3.412 0 0 1-.133 1.021 20.393 20.393 0 0 0-4.277-1.343 19.021 19.021 0 0 0-2.426-.364 17.533 17.533 0 0 0-3.273-.029c-.8.094-1.6.118-2.4.25A21.467 21.467 0 0 0 101.9 47a21.034 21.034 0 0 0-4.535 2.505c-.117.086-.3.124-.269.328a.683.683 0 0 0-.478.229 21.521 21.521 0 0 0-4.059 4.142 3.944 3.944 0 0 0-.846 1.324c-.093-.013-.122.042-.168.115a22.1 22.1 0 0 0-3.388 13.477 21.914 21.914 0 0 0 1.909 7.48.922.922 0 0 1-.883 1.364q-3.1.01-6.192 0c-.6 0-.861-.215-1.07-.839a31.6 31.6 0 0 1-1.155-4.446c-.164-.905-.258-1.829-.337-2.751a42.172 42.172 0 0 1-.057-4.339 16.73 16.73 0 0 1 .2-1.968 33.079 33.079 0 0 1 .723-3.695 29.779 29.779 0 0 1 1.2-3.616c.432-1.09.966-2.13 1.488-3.177.474-.754.928-1.52 1.425-2.257a27.14 27.14 0 0 1 3.2-3.975 3 3 0 0 0 .623-.778c.164 0 .248-.123.352-.217.374-.341.736-.7 1.124-1.019a29.6 29.6 0 0 1 25.449-6.677 6.043 6.043 0 0 0 1.43.258c-.035.08.032.06.069.071zm9.932 15.345a21.529 21.529 0 0 1 3.465 6.271 22.96 22.96 0 0 1 1.255 6.544 25.69 25.69 0 0 1-.527 5.549 19.371 19.371 0 0 1-1.405 4.235.958.958 0 0 0 .9 1.5c2.037-.042 4.076-.012 6.114-.014a.932.932 0 0 0 1.073-.792q.233-.712.444-1.431a28.76 28.76 0 0 0 1.1-6.052 26.8 26.8 0 0 0 .03-3.844 32.389 32.389 0 0 0-.507-4.137 29.228 29.228 0 0 0-2.579-7.542 30.261 30.261 0 0 0-10.315-11.6 4.533 4.533 0 0 0-.007.466 26.635 26.635 0 0 1 .1 3.392 29.157 29.157 0 0 1-.8 5.607 13.131 13.131 0 0 1 1.659 1.848z" fill="#01ae9f"/>
    <path d="M125.928 52.032a27.679 27.679 0 0 1-1.488 4.215c-.249.532-.513 1.057-.775 1.583a.9.9 0 0 1-.853.5q-3.4.014-6.811 0a.839.839 0 0 1-.856-.464 1.052 1.052 0 0 1 .035-1.13 19.5 19.5 0 0 0 1.985-3.274 17.238 17.238 0 0 0 1.366-4.027 10.3 10.3 0 0 0 .314-2.244 3.412 3.412 0 0 0 .133-1.021 17.934 17.934 0 0 0-.141-3.166 18.513 18.513 0 0 0-1.182-4.47c-.008-.039-.01-.082-.069-.071.031-.141-.057-.251-.107-.366a18.718 18.718 0 0 0-35.923 6.916c-.008.311.036.421.389.4a23.148 23.148 0 0 1 7.286.7 3 3 0 0 1-.623.778 27.14 27.14 0 0 0-3.2 3.975c-.5.737-.951 1.5-1.425 2.257a16.455 16.455 0 0 0-6.233 1.034 15.5 15.5 0 0 0-4.409 2.559 15.82 15.82 0 0 0-4.048 5.032 15.537 15.537 0 0 0-1.5 4.577 15.907 15.907 0 0 0-.134 4.179 15.647 15.647 0 0 0 1.834 5.9.972.972 0 0 1-.891 1.549c-2.051 0-4.1-.011-6.154.007-.665.006-.91-.183-1.167-.853a24.53 24.53 0 0 1-.919-3.089c-.153-.642-.236-1.307-.339-1.964a32.27 32.27 0 0 1-.153-5.172 8 8 0 0 1 .166-1.395c.173-.947.348-1.894.609-2.826a24.074 24.074 0 0 1 2.215-5.354 22.555 22.555 0 0 1 2.574-3.664 22.158 22.158 0 0 1 1.726-1.87 24.071 24.071 0 0 1 6.3-4.257.521.521 0 0 0 .368-.57c-.076-1.128-.028-2.257-.014-3.383a11.775 11.775 0 0 1 .238-2.15c.2-1.015.395-2.031.674-3.032a28.636 28.636 0 0 1 1.458-3.968 25.5 25.5 0 0 1 2.977-4.984 26.065 26.065 0 0 1 6.611-6.163 28.412 28.412 0 0 1 6.7-3.117 26.309 26.309 0 0 1 6.061-1.1c.246-.015.491-.041.736-.062h2.649a4.026 4.026 0 0 0 1.1.139 26.551 26.551 0 0 1 22.556 18.534 22.429 22.429 0 0 1 .975 4.7.757.757 0 0 0 .086.211 4.533 4.533 0 0 0-.007.466 26.635 26.635 0 0 1 .1 3.392 29.157 29.157 0 0 1-.8 5.603zm-34.086 3.636a12.856 12.856 0 0 1 2.14 1.612 15.869 15.869 0 0 1 4.5 7.222 17.4 17.4 0 0 1 .645 4.17 15.936 15.936 0 0 1-.148 2.1 14.932 14.932 0 0 1-.7 3.2 21.834 21.834 0 0 1-1.186 2.664.869.869 0 0 0 .82 1.332c2.168.008 4.336 0 6.5.011a1.051 1.051 0 0 0 .923-.638 24.59 24.59 0 0 0 1.553-7.892 23.332 23.332 0 0 0-.284-4.13A23.585 23.585 0 0 0 97.1 49.837a.683.683 0 0 0-.478.229 21.521 21.521 0 0 0-4.059 4.142 3.944 3.944 0 0 0-.846 1.324.667.667 0 0 0 .125.136z" fill="#018775"/>
    <path d="M27.4 94.453h6.021a4.4 4.4 0 1 1 0 8.784h-3.874v5.506H27.4zm5.742 1.885h-3.6v5.014h3.6a2.51 2.51 0 1 0 0-5.014zm6.706-.557a1.239 1.239 0 0 1 1.242-1.221 1.226 1.226 0 0 1 1.243 1.221 1.244 1.244 0 0 1-1.243 1.243 1.257 1.257 0 0 1-1.238-1.243zm.3 2.614h1.932v10.348h-1.928zm3.47 0h2.057l3.235 8.12 3.235-8.12h2.078l-4.263 10.348h-2.074zm11.526 5.163A5.232 5.232 0 1 1 60.376 109a5.136 5.136 0 0 1-5.228-5.442zm8.442 0c0-1.949-1.136-3.706-3.214-3.706-2.057 0-3.214 1.757-3.214 3.706 0 1.971 1.157 3.728 3.214 3.728 2.082 0 3.218-1.757 3.218-3.728zm4.841 2.893v-6.363h-1.71V98.4h1.714v-2.833h1.929V98.4h2.1v1.693h-2.1v5.934c0 .729.342 1.264 1.007 1.264a1.484 1.484 0 0 0 1.049-.407l.493 1.457A2.749 2.749 0 0 1 70.9 109a2.252 2.252 0 0 1-2.469-2.549zm12.555 1.156A4.434 4.434 0 0 1 77.6 109a3.438 3.438 0 0 1-3.6-3.428 3.34 3.34 0 0 1 3.6-3.385 4.316 4.316 0 0 1 3.385 1.371v-1.714c0-1.285-1.05-2.056-2.528-2.056a4.234 4.234 0 0 0-3.106 1.371l-.836-1.328a5.816 5.816 0 0 1 4.242-1.693c2.249 0 4.156.985 4.156 3.621v6.984h-1.927zm0-2.892a3.277 3.277 0 0 0-2.657-1.178 2.078 2.078 0 1 0 0 4.113 3.277 3.277 0 0 0 2.657-1.178zM86 94.453h1.929v14.29H86zm10.562 0h6.021a4.4 4.4 0 1 1 0 8.784H98.7v5.506h-2.139zm5.742 1.885H98.7v5.014h3.6a2.51 2.51 0 1 0 0-5.014zm7.006-1.885h1.928v14.29h-1.928zm11.376 13.154A4.436 4.436 0 0 1 117.3 109a3.439 3.439 0 0 1-3.6-3.428 3.341 3.341 0 0 1 3.6-3.385 4.318 4.318 0 0 1 3.385 1.371v-1.714c0-1.285-1.05-2.056-2.528-2.056a4.235 4.235 0 0 0-3.107 1.371l-.835-1.328a5.812 5.812 0 0 1 4.242-1.693c2.249 0 4.156.985 4.156 3.621v6.984h-1.928zm0-2.892a3.28 3.28 0 0 0-2.657-1.178 2.078 2.078 0 1 0 0 4.113 3.28 3.28 0 0 0 2.657-1.178zm5.4 1.736v-6.363h-1.716V98.4h1.714v-2.833h1.928V98.4h2.1v1.693h-2.1v5.934c0 .729.343 1.264 1.007 1.264a1.485 1.485 0 0 0 1.05-.407l.492 1.457a2.749 2.749 0 0 1-2.014.664 2.251 2.251 0 0 1-2.463-2.554zm6.641-6.363h-1.714V98.4h1.714v-.69c0-2.229 1.307-3.471 3.15-3.471a3.409 3.409 0 0 1 1.692.385l-.45 1.436a1.837 1.837 0 0 0-.921-.236c-.964 0-1.543.643-1.543 1.886v.69h2.1v1.693h-2.1v8.655h-1.928zm5.228 3.47A5.232 5.232 0 1 1 143.18 109a5.136 5.136 0 0 1-5.227-5.442zm8.441 0c0-1.949-1.136-3.706-3.214-3.706-2.056 0-3.213 1.757-3.213 3.706 0 1.971 1.157 3.728 3.213 3.728 2.076 0 3.212-1.757 3.212-3.728zm4.454-5.158h1.928v1.58a4.4 4.4 0 0 1 3.385-1.821v1.95a3.026 3.026 0 0 0-.664-.064 3.656 3.656 0 0 0-2.721 1.5v7.2h-1.928zm19.817 3.449c0-1.2-.535-1.992-1.8-1.992a3.331 3.331 0 0 0-2.571 1.478v7.413h-1.928v-6.9c0-1.2-.514-1.992-1.821-1.992a3.38 3.38 0 0 0-2.528 1.5v7.391h-1.928V98.4h1.928v1.457a4.476 4.476 0 0 1 3.342-1.714 2.672 2.672 0 0 1 2.806 1.928 4.342 4.342 0 0 1 3.493-1.928c1.906 0 2.935 1.05 2.935 3.128v7.477h-1.929z"/>
</svg>
