<svg xmlns="http://www.w3.org/2000/svg" width="200" height="128">
	<defs>
		<mask id="a" x="20" y="33.739" width="60.52" height="60.479" maskUnits="userSpaceOnUse">
			<path fill="#fff" d="M80.52 94.218H20V33.739h60.52v60.479z"/>
		</mask>
		<mask id="b" x="20" y="33.739" width="60.52" height="60.523" maskUnits="userSpaceOnUse">
			<path fill="#fff" d="M80.52 94.218H20V33.739h60.52v60.479z"/>
		</mask>
	</defs>
	<path d="M42.246 47.608 49 59.31a4.844 4.844 0 0 1 3.308.3l3.552-6.153-5.934-10.285-7.75 4.476.069-.04M32.061 62.746h13.516a4.775 4.775 0 0 1 1.906-2.723l-3.552-6.15H32.057v8.95-.077m22.404 3.677a4.848 4.848 0 0 1-1.422 1.548l3.554 6.154h11.871v-8.873H54.943a4.89 4.89 0 0 1-.482 1.171m-.775-5.854a4.843 4.843 0 0 1 1.405 3.011h7.1L68.13 53.3l-7.684-4.437-6.76 11.707M40.074 79.136l6.76-11.711a4.87 4.87 0 0 1-1.4-3.007h-7.1l-5.946 10.277 7.748 4.478-.062-.037" fill="#de752c"/>
	<g mask="url(#a)">
		<path d="m58.276 80.387-6.755-11.7a4.824 4.824 0 0 1-3.311-.294l-3.553 6.155 5.934 10.277 7.75-4.474-.065.038" fill="#de752c"/>
	</g>
	<g mask="url(#b)">
		<path d="M50.262 33.739A30.261 30.261 0 1 0 80.52 64a30.294 30.294 0 0 0-30.258-30.261zm0 6.126A24.135 24.135 0 1 1 26.128 64a24.129 24.129 0 0 1 24.134-24.13z" fill="#517a9e"/>
	</g>
	<path d="M93.563 51.836a3.269 3.269 0 0 0 2.311-.6 2.834 2.834 0 0 0 .98-2.187 2.643 2.643 0 0 0-1.131-2.185 3.6 3.6 0 0 0-2.312-.553h-1.885v5.527zm-.252-8.643a8.117 8.117 0 0 1 4.773 1.18 5.6 5.6 0 0 1 2.212 4.674 5.88 5.88 0 0 1-1.734 4.221 5.8 5.8 0 0 1-4.573 1.66h-2.463v3.341h1.959v2.865h-7.31v-2.865h1.935V46.057h-1.935v-2.864zm10.004 3.241h3.065v-3.241h-3.065zm3.065 11.835h1.734v2.865h-6.557v-2.865h1.758V50.58h-1.735v-2.864h4.8v10.553zm10.95 2.865h-3.216l-4.12-10.554h-1.633v-2.864h6.256v2.864h-1.356l2.462 6.784h.025l2.637-6.784h-1.431v-2.864h6.182v2.864h-1.583l-4.223 10.554m25.407-2.865h2.437v2.865h-5.502V50.58h-2.111v-2.864h2.111v-4.523h3.065v4.523h2.287v2.864h-2.287v7.689m14.554-3.92a4.032 4.032 0 0 0-4.046-3.994 4.07 4.07 0 1 0 4.046 3.994zm-.051 4.975a4.961 4.961 0 0 1-4.32 2.162 6.95 6.95 0 0 1-6.887-6.987 7.1 7.1 0 0 1 7.037-7.135 4.815 4.815 0 0 1 4.17 2.261v-1.909h4.8v2.864h-1.683v7.689h1.683v2.865h-4.8v-1.81zm11.462-1.055h1.734v2.865h-6.659v-2.865h1.859V46.057h-1.734v-2.864h4.8v15.076M130.3 47.34a7.07 7.07 0 1 0 7.071 7.069 7.069 7.069 0 0 0-7.071-7.069zm0 3.012a4.057 4.057 0 1 1-4.059 4.057 4.063 4.063 0 0 1 4.059-4.057z" fill="#de752c"/>
	<path fill="#517a9e" d="M94.943 81.592h1.959v2.864h-7.336v-2.864h1.96V69.555h-2.639v2.613h-2.712v-5.654h14.119v5.654h-2.711v-2.613h-2.64v12.037m11.229-8.267a4.463 4.463 0 0 1 4.019-2.439v3.141a4.084 4.084 0 0 0-2.638.981A3.745 3.745 0 0 0 106.4 78.2v3.394h1.734v2.864h-6.524v-2.866h1.733V73.9h-1.733v-2.862h4.566v2.287m15.903 4.346a4.03 4.03 0 0 0-4.044-3.994 4.08 4.08 0 0 0-4.046 4.144 4.039 4.039 0 0 0 3.995 4 4.091 4.091 0 0 0 4.095-4.146zm-.049 4.975a4.962 4.962 0 0 1-4.322 2.161 6.948 6.948 0 0 1-6.884-6.986 7.093 7.093 0 0 1 7.035-7.135 4.819 4.819 0 0 1 4.171 2.261v-1.909h4.8V73.9h-1.683v7.69h1.683v2.864h-4.8v-1.81zm19.392-2.713a7.056 7.056 0 1 1-6.985-9.3 5.15 5.15 0 0 1 3.844 1.683v-1.278h2.639v4.473h-2.865a4.5 4.5 0 0 0-1.432-1.333 3.867 3.867 0 0 0-1.909-.5 3.97 3.97 0 0 0-3.971 4.069 4.012 4.012 0 0 0 4.046 4.047A3.578 3.578 0 0 0 138 79.933h3.418m26.236-3.392a4.285 4.285 0 0 0-4.221-3.166 4.156 4.156 0 0 0-3.92 3.166zm2.337 3.97a6.887 6.887 0 0 1-6.331 4.3 7.086 7.086 0 0 1-.076-14.171 7.185 7.185 0 0 1 5.025 2.16 7.009 7.009 0 0 1 1.885 5.025l-.1 1.081h-10.856a4.137 4.137 0 0 0 4.02 3.216 3.732 3.732 0 0 0 3.242-1.607zm5.99-7.186A4.464 4.464 0 0 1 180 70.886v3.141a4.077 4.077 0 0 0-2.637.981 3.748 3.748 0 0 0-1.157 3.19v3.394h1.733v2.864h-6.532v-2.864h1.735V73.9h-1.735v-2.862h4.574v2.287m-21.679 8.267-3.921-4.121 3.694-3.569h1.634v-2.864H149.1V73.6h1.382l-3.441 3.442V66.514h-4.827v2.865h1.76v12.213h-1.76v2.864h4.827v-6.382l3.191 3.518H149.1v2.864h7.313v-2.864h-2.111"/>
</svg>
