<svg width="251" height="261" fill="none" xmlns="http://www.w3.org/2000/svg">
	<path fill-rule="evenodd" clip-rule="evenodd" d="M103.213 12.491c.942 5.896-1.755 12.027-7.234 15.19-5.496 3.174-12.178 2.43-16.814-1.364-14.54 12.793-23.716 31.538-23.716 52.427 0 38.552 31.252 69.804 69.804 69.804 6.612 0 13.01-.92 19.072-2.638-1.694-7.508 1.575-15.557 8.592-19.608 6.984-4.032 15.542-2.868 21.198 2.292 12.924-12.669 20.942-30.323 20.942-49.85 0-38.551-31.252-69.804-69.804-69.804a69.73 69.73 0 0 0-22.04 3.551Zm22.04 142.506c7.51 0 14.767-1.086 21.622-3.109 5.219 7.922 15.776 10.495 24.098 5.69 8.354-4.824 11.396-15.314 7.073-23.812 14.459-13.877 23.46-33.398 23.46-55.022 0-42.113-34.14-76.253-76.253-76.253a76.165 76.165 0 0 0-24.429 3.997C96.498.118 87.92-1.922 81.146 1.99c-6.76 3.902-9.286 12.322-5.967 19.245C59.138 35.214 49 55.795 49 78.744c0 42.113 34.14 76.253 76.253 76.253ZM104.791 44.265h47.512a1.114 1.114 0 0 1 1.112 1.112v44.17c0 .296-.118.58-.322.79a1.09 1.09 0 0 1-.783.329h-14.364a1.132 1.132 0 0 1-.783-.329 1.19 1.19 0 0 1-.237-.362 1.03 1.03 0 0 1-.085-.421V59.116h-32.05a1.09 1.09 0 0 1-.783-.33 1.138 1.138 0 0 1-.323-.789v-12.62c0-.144.027-.283.086-.42a1.091 1.091 0 0 1 .599-.605c.131-.06.276-.087.421-.087Zm14.968 29.689h-15.574c-.276 0-.5.223-.5.506v43.519a.5.5 0 0 0 .5.506h15.568a.5.5 0 0 0 .5-.506V74.46a.492.492 0 0 0-.494-.506Zm-9.681 146.687a.45.45 0 0 0 .646 0l9.324-9.4a.462.462 0 0 0 0-.654l-19.298-19.451a.453.453 0 0 0-.647 0l-9.328 9.4a.462.462 0 0 0 0 .655l19.303 19.45Zm49.846-20.096-9.324-9.396a.45.45 0 0 0-.646 0l-59.17 59.652a.462.462 0 0 0 0 .655l9.319 9.4a.453.453 0 0 0 .647 0l59.174-59.661a.462.462 0 0 0 0-.65Zm-19.932 30.806a.452.452 0 0 1 .647 0l19.298 19.458a.463.463 0 0 1 0 .655l-9.328 9.4a.452.452 0 0 1-.647 0l-19.298-19.459a.463.463 0 0 1 0-.655l9.328-9.399Zm109.803-25.606a.985.985 0 0 0 .709-.295.939.939 0 0 0 .216-.326c.05-.122.076-.257.076-.388v-11.479a.946.946 0 0 0-.076-.388.997.997 0 0 0-.925-.621h-43.214a.987.987 0 0 0-.71.295.939.939 0 0 0-.216.326c-.05.122-.076.257-.076.388v65.482a1.004 1.004 0 0 0 .292.71c.093.093.203.169.325.224a.987.987 0 0 0 .385.076h43.214a.966.966 0 0 0 .709-.3.944.944 0 0 0 .216-.325c.046-.123.076-.258.076-.385v-11.474a.954.954 0 0 0-.076-.389.963.963 0 0 0-.216-.325 1.097 1.097 0 0 0-.325-.224.918.918 0 0 0-.384-.076h-29.146v-13.502h29.146a.985.985 0 0 0 .709-.296.926.926 0 0 0 .216-.325 1.13 1.13 0 0 0 .076-.393v-11.474a.954.954 0 0 0-.076-.389 1.016 1.016 0 0 0-.541-.545 1.004 1.004 0 0 0-.384-.076h-29.146v-13.506h29.146ZM1.005 192.243h43.218c.266 0 .511.097.701.292.19.194.296.448.296.718v40.168c0 .27-.105.524-.291.718a.994.994 0 0 1-.71.296H31.156a1.004 1.004 0 0 1-.71-.296.998.998 0 0 1-.291-.71v-27.688H1.005a.974.974 0 0 1-.71-.296 1.042 1.042 0 0 1-.291-.718v-11.478a1.01 1.01 0 0 1 .617-.93c.122-.05.249-.076.384-.076Zm13.616 27H.457a.458.458 0 0 0-.456.46v39.585c0 .258.203.461.456.461h14.161c.25 0 .456-.203.456-.461v-39.585a.452.452 0 0 0-.452-.46Zm46.142-27.003h14.16a.46.46 0 0 1 .457.461v66.588a.458.458 0 0 1-.456.461H60.763a.456.456 0 0 1-.456-.461v-66.588c0-.258.207-.461.456-.461Zm129.274 0h-14.161a.458.458 0 0 0-.456.461v66.588c0 .258.202.461.456.461h14.161a.458.458 0 0 0 .456-.461v-66.588a.46.46 0 0 0-.456-.461Z" fill="url(#a)"/>
	<defs>
		<linearGradient id="a" x1="236.808" y1="57.91" x2="-34.64" y2="87.989" gradientUnits="userSpaceOnUse">
			<stop stop-color="#00DBA6" offset="0%"/>
			<stop offset="1" stop-color="#24B2FF"/>
		</linearGradient>
	</defs>
</svg>
