<svg xmlns="http://www.w3.org/2000/svg" viewBox="-13.37 -13.37 695.24 236.24">
	<path d="M0 0h669v210H0z"/>
	<path stroke="#fff" stroke-miterlimit="10" stroke-width="5" d="M50.694 131.939C45.188 124.556 42 115.921 42 106.009c0-24.576 19.753-44.757 44.47-44.757 24.718 0 44.806 19.926 44.806 44.502 0 24.575-20.062 44.195-44.805 44.246-3.01-.102-5.222-.332-7.434-1.482-1.826-.945-3.369-2.427-4.27-4.47-1.465-3.526.026-7.639 2.136-10.806 2.134-3.194 5.04-6.08 7.793-8.763L150 60"/>
	<path stroke="url(#a)" stroke-miterlimit="10" stroke-width="5" d="M50.694 131.939C45.188 124.556 42 115.921 42 106.009c0-24.576 19.753-44.757 44.47-44.757 24.718 0 44.806 19.926 44.806 44.502 0 24.575-20.062 44.195-44.805 44.246-3.01-.102-5.222-.332-7.434-1.482-1.826-.945-3.369-2.427-4.27-4.47-1.465-3.526.026-7.639 2.136-10.806 2.134-3.194 5.04-6.08 7.793-8.763L150 60"/>
	<path stroke="#fff" stroke-miterlimit="10" stroke-width="5" d="M43.848 116.174s-17.251 16.975-11.774 22.727c1.576 1.901 7.446 3.009 18.326-7.772L102 80"/>
	<path stroke="url(#b)" stroke-miterlimit="10" stroke-width="5" d="M43.848 116.174s-17.251 16.975-11.774 22.727c1.576 1.901 7.446 3.009 18.326-7.772L102 80"/>
	<path fill="#fff" d="M201.213 82.774c-7.275 0-13.47 3.275-17.354 8.526v-7.63h-4.84v57.395h5.333v-22.087c3.915 4.881 9.895 7.908 16.892 7.908 12.576 0 21.639-9.483 21.639-22.056-.062-12.634-9.124-22.056-21.67-22.056zm-.401 38.953c-9.586 0-16.707-7.29-16.707-16.897 0-9.638 7.152-16.897 16.707-16.897 9.617 0 16.645 7.167 16.645 16.897 0 9.731-7.028 16.897-16.645 16.897zm37.483-52.637h-5.333v57.394h5.333V69.09zm49.165 22.148c-3.822-5.22-9.895-8.464-17.293-8.464-12.329 0-21.608 9.36-21.608 21.902 0 12.479 9.279 21.901 21.608 21.901 7.337 0 13.471-3.243 17.293-8.402v8.279h4.993V83.639h-4.993v7.6zm-16.892 30.211c-9.494 0-16.584-7.197-16.584-16.773 0-9.546 7.09-16.774 16.584-16.774 9.556 0 16.522 7.105 16.522 16.774 0 9.668-6.966 16.773-16.522 16.773zm52.402-38.428c-7.799 0-12.053 2.472-15.135 6.58v-5.93h-5.333v42.844h5.333v-22.334c0-9.39 6.381-15.754 14.056-15.754 7.891 0 14.919 3.614 14.919 13.53v24.558h5.333v-25.762c0-10.441-9.094-17.732-19.173-17.732zm90.532 29.13V87.748h14.98v-4.85h-14.98v-8.279h-.894l-12.947 12.048v1.05h8.508v24.589c0 8.803 5.333 14.178 14.025 14.178h6.535v-4.942h-5.888c-6.01.031-9.339-3.367-9.339-9.391zm40.873-10.657c-6.042-.989-11.313-1.853-11.313-6.95 0-4.201 4.038-6.982 10.357-6.982 6.473 0 10.419 2.873 10.727 7.908h5.055c-.308-7.784-6.288-12.696-15.658-12.696-9.34 0-15.628 4.82-15.628 11.955 0 9.144 7.891 10.565 15.134 11.831 6.104 1.05 11.868 2.131 11.868 7.815 0 4.696-4.531 7.569-11.035 7.569-6.566 0-11.128-2.997-11.59-8.464h-5.21c.463 8.247 6.782 13.406 16.615 13.406 9.894 0 16.46-5.035 16.46-12.758.062-10.039-8.446-11.46-15.782-12.634zM563.093 91.3c-3.853-5.251-10.234-8.526-17.662-8.526-12.423 0-21.763 9.422-21.763 22.056 0 12.573 9.34 22.056 21.763 22.056 7.397 0 13.809-3.243 17.662-8.464v8.093h4.778V82.898h-4.778V91.3zm-17.262 30.427c-9.586 0-16.707-7.259-16.707-16.897 0-9.607 7.152-16.897 16.707-16.897 9.617 0 16.645 7.167 16.645 16.897-.03 9.731-7.028 16.897-16.645 16.897zm39.918-52.637h-5.333v57.394h5.333V69.09zm-73.27 47.201c-3.021 3.49-7.336 5.436-12.299 5.436-9.34 0-16.429-7.352-16.429-16.897 0-9.576 7.028-16.897 16.429-16.897 4.655 0 8.785 1.73 11.744 4.726l4.562-2.625c-3.822-4.541-9.555-7.26-16.306-7.26-12.453 0-21.855 9.453-21.855 22.056 0 12.573 9.433 22.056 21.855 22.056 6.966 0 12.977-2.965 16.83-7.97l-4.531-2.625zm-126.288-.649c-2.99 3.799-7.429 5.993-12.792 5.993-8.785 0-15.258-6.024-16.121-14.828h37.143c.062-.649.124-1.328.124-1.977 0-12.325-8.508-22.087-21.115-22.087-12.176 0-21.423 9.484-21.423 22.056 0 12.604 9.247 22.087 21.423 22.087 8.168 0 14.857-4.047 18.803-11.213h-6.042v-.031zm-12.792-27.863c8.261 0 14.642 5.498 15.844 14.055h-31.842c1.202-8.372 7.521-14.055 15.998-14.055zm258.248 27.863c-2.99 3.799-7.429 5.993-12.792 5.993-8.785 0-15.259-6.024-16.122-14.828h37.144c.062-.649.123-1.328.123-1.977 0-12.325-8.507-22.087-21.115-22.087-12.175 0-21.423 9.484-21.423 22.056 0 12.604 9.248 22.087 21.423 22.087 8.169 0 14.858-4.047 18.803-11.213h-6.041v-.031zm-12.792-27.863c8.26 0 14.641 5.498 15.843 14.055h-31.841c1.202-8.372 7.521-14.055 15.998-14.055z"/>
	<defs>
		<linearGradient id="a" x1="70" x2="150" y1="135" y2="60" gradientUnits="userSpaceOnUse">
			<stop offset=".115" stop-color="#fff"/>
			<stop offset=".53" stop-color="#FFA51C"/>
			<stop offset="1"/>
		</linearGradient>
		<linearGradient id="b" x1="50" x2="102.108" y1="135.119" y2="85.123" gradientUnits="userSpaceOnUse">
			<stop offset=".13" stop-color="#fff"/>
			<stop offset=".516" stop-color="#FFA51C"/>
			<stop offset="1"/>
		</linearGradient>
	</defs>
</svg>
