<svg xmlns="http://www.w3.org/2000/svg" width="200" height="128">
	<path d="M93.723 47.143v-8.532l7.146 4.266zM100.868 56l-7.146-4.266v8.533zm-7.219-19.713 7.146 4.266V32.02zm10 6.59 7.146 4.266v-8.532zm-10 6.5 7.146 4.266v-8.532zm0 13.387 7.146 4.266V58.5zm16.914-26.479-7.146-4.266v8.533zm0 13.091-7.146-4.266v8.533z" fill="#72eeb8"/>
	<path d="M83.819 27.532V19l7.146 4.266zm17.049 2.2-7.146-4.266V34zm0 39.564-7.146-4.266v8.532zM83.74 29.733 90.886 34v-8.533zm29.66 19.645 7.146 4.266v-8.533zM103.654 56l7.146 4.266v-8.537zM83.74 42.877l7.146 4.266v-8.532zm0 13.123 7.146 4.266v-8.537zm0 13.3 7.146 4.266v-8.535zm7.224-33.011-7.146-4.269v8.533zm29.5 6.591-7.146-4.266v8.532zm0 13.118-7.146-4.266v8.533zm9.743-6.618-7.146-4.266v8.533zm-19.644 13.384-7.146-4.264v8.533zm-19.6-13.387-7.146-4.266v8.533zm0 13.387L83.818 58.5v8.533zm0 13.176-7.146-4.266v8.532zM76.271 96.341a5.513 5.513 0 0 1-1.82 4.454 7.781 7.781 0 0 1-5.176 1.543h-1.641v6.415H63.81V90.715h5.761a7.665 7.665 0 0 1 4.991 1.413 5.151 5.151 0 0 1 1.709 4.213zM67.634 99.2h1.259a4.2 4.2 0 0 0 2.64-.7 2.441 2.441 0 0 0 .876-2.03 2.5 2.5 0 0 0-.734-1.986 3.44 3.44 0 0 0-2.3-.642h-1.74zm15.766 9.553h-3.767v-19.2H83.4zm8.04 0h-3.767V94.959l3.763-2.347zm12.96 0-.728-1.875h-.1a5.568 5.568 0 0 1-1.955 1.659 6.315 6.315 0 0 1-2.622.463 4.237 4.237 0 0 1-3.128-1.135 4.359 4.359 0 0 1-1.141-3.233 3.64 3.64 0 0 1 1.536-3.238 8.89 8.89 0 0 1 4.633-1.154l2.393-.074v-.6a1.876 1.876 0 0 0-2.146-2.1 9.782 9.782 0 0 0-3.887 1l-1.246-2.541a11.208 11.208 0 0 1 5.281-1.246 6.572 6.572 0 0 1 4.256 1.209 4.468 4.468 0 0 1 1.481 3.677v9.191zm-1.111-6.391-1.456.05a4.638 4.638 0 0 0-2.442.592 1.857 1.857 0 0 0-.8 1.653q0 1.592 1.826 1.592a2.9 2.9 0 0 0 2.091-.753 2.642 2.642 0 0 0 .783-2zm20.6 6.391h-3.769V100.7a3.879 3.879 0 0 0-.53-2.24 1.93 1.93 0 0 0-1.69-.746 2.539 2.539 0 0 0-2.283 1.055 6.54 6.54 0 0 0-.7 3.5v6.489h-3.763V94.959h2.874l.506 1.765h.21a3.977 3.977 0 0 1 1.734-1.512 5.918 5.918 0 0 1 2.51-.512 4.823 4.823 0 0 1 3.652 1.3 5.224 5.224 0 0 1 1.246 3.757zm9.933-2.753a8.154 8.154 0 0 0 2.368-.432v2.8a8.45 8.45 0 0 1-3.454.629 4.23 4.23 0 0 1-3.288-1.141 4.967 4.967 0 0 1-1.03-3.424v-6.65h-1.8v-1.589l2.073-1.258 1.086-2.912h2.406v2.936h3.861v2.826h-3.861v6.65a1.464 1.464 0 0 0 .45 1.184 1.777 1.777 0 0 0 1.189.381z" fill="#17437e"/>
	<path d="m91.435 91.516-3.763 2.348v-4.7l3.763 2.348z" fill="#72eeb8"/>
</svg>
