<svg xmlns="http://www.w3.org/2000/svg" viewBox="0 0 228.259 61.227" height="231.408" width="862.711">
	<defs>
		<clipPath id="a" clipPathUnits="userSpaceOnUse">
			<path style="opacity:1;fill:#e7e8e9;fill-opacity:1;stroke:#a7a9ac;stroke-width:.52916664;stroke-linecap:square;stroke-linejoin:miter;stroke-miterlimit:4;stroke-dasharray:none;stroke-dashoffset:5.99999952;stroke-opacity:1" d="M934.657-1.484h26.194v12.832h-26.194z"/>
		</clipPath>
	</defs>
	<g style="font-style:normal;font-weight:400;font-size:37.59195328px;line-height:22.55517006px;font-family:sans-serif;letter-spacing:0;word-spacing:0;fill:#892ca0;fill-opacity:1;stroke:none;stroke-width:.26458332px;stroke-linecap:butt;stroke-linejoin:miter;stroke-opacity:1" aria-label="podman">
		<path style="font-style:normal;font-variant:normal;font-weight:400;font-stretch:normal;font-family:Montserrat;-inkscape-font-specification:Montserrat;fill:#892ca0;fill-opacity:1;stroke-width:.26458332px" d="M1249.878-209.933c-3.12 0-5.526 1.278-6.992 3.609v-3.459h-4.323v27.292h4.323v-10.751c1.466 2.33 3.872 3.609 7.067 3.609 5.714 0 9.473-4.098 9.473-10.075 0-6.09-3.872-10.225-9.548-10.225zm-.902 16.616c-3.572 0-6.09-2.67-6.09-6.541 0-3.76 2.518-6.466 6.09-6.466 3.57 0 6.09 2.744 6.09 6.466 0 3.834-2.52 6.54-6.09 6.54z" transform="translate(-1170.445 231.87)"/>
		<path style="font-style:normal;font-variant:normal;font-weight:400;font-stretch:normal;font-family:Montserrat;-inkscape-font-specification:Montserrat;fill:#892ca0;fill-opacity:1;stroke-width:.26458332px" d="M1272.496-209.933c-6.202 0-10.45 4.098-10.45 10.15 0 6.015 4.248 10.15 10.45 10.15 6.165 0 10.413-4.135 10.413-10.15 0-6.052-4.248-10.15-10.413-10.15zm0 3.722c3.572 0 6.09 2.631 6.09 6.466 0 3.871-2.518 6.503-6.09 6.503-3.608 0-6.127-2.632-6.127-6.503 0-3.835 2.519-6.466 6.127-6.466z" transform="translate(-1170.445 231.87)"/>
		<path style="font-style:normal;font-variant:normal;font-weight:400;font-stretch:normal;font-family:Montserrat;-inkscape-font-specification:Montserrat;fill:#892ca0;fill-opacity:1;stroke-width:.26458332px" d="M1302.156-217.677v11.353c-1.466-2.33-3.871-3.646-7.104-3.646-5.64 0-9.511 4.097-9.511 10.112 0 6.09 3.834 10.262 9.586 10.262 3.195 0 5.6-1.278 7.03-3.608v3.42h4.323v-27.893zm-6.127 24.473c-3.646 0-6.127-2.707-6.165-6.504.038-3.834 2.556-6.578 6.165-6.578s6.127 2.706 6.127 6.578c0 3.797-2.518 6.504-6.127 6.504z" transform="translate(-1170.445 231.87)"/>
		<path style="fill:#60605b" d="M1339.133-209.933c-3.646 0-6.315 1.466-7.593 4.812-.94-3.045-3.383-4.812-6.955-4.812-3.308 0-5.864 1.203-7.255 4.022v-3.872h-4.285v20h4.285v-9.887c0-3.496 2.105-6.128 5.564-6.24 2.932 0 4.699 1.841 4.699 4.886v11.24h4.323v-9.886c0-3.496 2.067-6.128 5.488-6.24 2.932 0 4.737 1.841 4.737 4.886v11.24h4.323v-12.443c0-4.774-2.744-7.706-7.33-7.706z" transform="translate(-1170.445 231.87)"/>
		<path style="fill:#60605b" d="m1368.492-189.784-.038-13.12c-.038-4.397-2.933-7.029-8.083-7.029-3.797 0-5.827.865-8.608 2.519l1.767 3.007c1.992-1.353 3.984-2.03 5.902-2.03 3.157 0 4.774 1.504 4.774 4.022v.602h-6.053c-4.811.038-7.556 2.368-7.556 6.015 0 3.533 2.707 6.202 7.03 6.202 2.895 0 5.188-.864 6.616-2.631v2.443zm-9.962-3.233c-2.406 0-3.872-1.165-3.872-2.97 0-1.916 1.315-2.668 4.135-2.668h5.413v1.842c-.226 2.18-2.594 3.796-5.676 3.796z" transform="translate(-1170.445 231.87)"/>
		<path style="fill:#60605b" d="M1385.97-209.933c-3.384 0-5.94 1.203-7.369 3.985v-3.835h-4.323v20h4.323v-10.64c.301-3.12 2.369-5.412 5.677-5.45 3.007 0 4.812 1.842 4.812 4.85v11.24h4.323v-12.444c0-4.774-2.782-7.706-7.443-7.706z" transform="translate(-1170.445 231.87)"/>
	</g>
	<path style="fill:none;fill-rule:evenodd;stroke:#3c6eb4;stroke-width:1.05833328;stroke-linecap:butt;stroke-linejoin:miter;stroke-miterlimit:4;stroke-dasharray:none;stroke-opacity:1" d="M963.983-1.265h12.722" transform="translate(-932.032 32.121)"/>
	<path d="M966.1 1.38h12.722" style="fill:none;fill-rule:evenodd;stroke:#3c6eb4;stroke-width:1.05833328;stroke-linecap:butt;stroke-linejoin:miter;stroke-miterlimit:4;stroke-dasharray:none;stroke-opacity:1" transform="translate(-932.032 32.121)"/>
	<g style="stroke-width:.86916679" transform="matrix(1.15005 0 0 1.151 -1075.957 32.56)">
		<path d="M973.104 3.398c-2.309-3.742-1.792-7.352-2.883-12.51-.6-3.185-2.622-5.815-5.254-6.778-2.172-.757-6.683-.76-8.595 0-2.633.963-4.655 3.593-5.254 6.778-1.092 5.158-.575 8.768-2.883 12.51" style="fill:#ccc;fill-opacity:1;fill-rule:evenodd;stroke:#000;stroke-width:.68990111;stroke-linecap:butt;stroke-linejoin:miter;stroke-miterlimit:4;stroke-dasharray:none;stroke-opacity:1"/>
		<ellipse style="opacity:1;fill:#e7e8e9;fill-opacity:1;stroke:none;stroke-width:.68990111;stroke-linecap:square;stroke-linejoin:miter;stroke-miterlimit:4;stroke-dasharray:none;stroke-dashoffset:5.99999952;stroke-opacity:1" cx="966.564" cy="-4.107" rx="1.116" ry="1.175"/>
		<ellipse ry="1.175" rx="1.116" cy="-4.107" cx="955.287" style="opacity:1;fill:#e7e8e9;fill-opacity:1;stroke:none;stroke-width:.68990111;stroke-linecap:square;stroke-linejoin:miter;stroke-miterlimit:4;stroke-dasharray:none;stroke-dashoffset:5.99999952;stroke-opacity:1"/>
		<g style="stroke:#a7a9ac;stroke-width:.51800275;stroke-miterlimit:4;stroke-dasharray:none">
			<path d="m956.419-5.981-4.67 1.251" style="fill:none;fill-rule:evenodd;stroke:#a7a9ac;stroke-width:.51800275;stroke-linecap:butt;stroke-linejoin:miter;stroke-miterlimit:4;stroke-dasharray:none;stroke-opacity:1" transform="translate(108.022 .558) scale(.8879)"/>
			<path d="m956.948-5.254-4.697 2.712" style="fill:none;fill-rule:evenodd;stroke:#a7a9ac;stroke-width:.51800275;stroke-linecap:butt;stroke-linejoin:miter;stroke-miterlimit:4;stroke-dasharray:none;stroke-opacity:1" transform="translate(108.022 .558) scale(.8879)"/>
			<path d="M957.345-4.394 952.582.37" style="fill:none;fill-rule:evenodd;stroke:#a7a9ac;stroke-width:.51800275;stroke-linecap:butt;stroke-linejoin:miter;stroke-miterlimit:4;stroke-dasharray:none;stroke-opacity:1" transform="translate(108.022 .558) scale(.8879)"/>
			<path d="M957.543-3.27 955.11.947" style="fill:none;fill-rule:evenodd;stroke:#a7a9ac;stroke-width:.51800275;stroke-linecap:butt;stroke-linejoin:miter;stroke-miterlimit:4;stroke-dasharray:none;stroke-opacity:1" transform="translate(108.022 .558) scale(.8879)"/>
		</g>
		<g style="stroke:#a7a9ac;stroke-width:.51800275;stroke-miterlimit:4;stroke-dasharray:none">
			<path style="fill:none;fill-rule:evenodd;stroke:#a7a9ac;stroke-width:.51800275;stroke-linecap:butt;stroke-linejoin:miter;stroke-miterlimit:4;stroke-dasharray:none;stroke-opacity:1" d="m956.419-5.981-4.67 1.251" transform="matrix(-.8879 0 0 .8879 1814.158 .558)"/>
			<path style="fill:none;fill-rule:evenodd;stroke:#a7a9ac;stroke-width:.51800275;stroke-linecap:butt;stroke-linejoin:miter;stroke-miterlimit:4;stroke-dasharray:none;stroke-opacity:1" d="m956.948-5.254-4.697 2.712" transform="matrix(-.8879 0 0 .8879 1814.158 .558)"/>
			<path style="fill:none;fill-rule:evenodd;stroke:#a7a9ac;stroke-width:.51800275;stroke-linecap:butt;stroke-linejoin:miter;stroke-miterlimit:4;stroke-dasharray:none;stroke-opacity:1" d="M957.345-4.394 952.582.37" transform="matrix(-.8879 0 0 .8879 1814.158 .558)"/>
			<path style="fill:none;fill-rule:evenodd;stroke:#a7a9ac;stroke-width:.51800275;stroke-linecap:butt;stroke-linejoin:miter;stroke-miterlimit:4;stroke-dasharray:none;stroke-opacity:1" d="M957.543-3.27 955.11.947" transform="matrix(-.8879 0 0 .8879 1814.158 .558)"/>
		</g>
		<ellipse style="opacity:1;fill:#fff;fill-opacity:1;stroke:#60605b;stroke-width:.68990111;stroke-linecap:square;stroke-linejoin:miter;stroke-miterlimit:4;stroke-dasharray:none;stroke-dashoffset:5.99999952;stroke-opacity:1" cx="961.043" cy="-4.929" rx="3.583" ry="3.406"/>
		<ellipse transform="scale(-1 1)" style="fill:#000;fill-opacity:1;stroke:#892ca0;stroke-width:.68990111;stroke-linecap:square;stroke-linejoin:miter;stroke-miterlimit:4;stroke-dasharray:none;stroke-dashoffset:0;stroke-opacity:1" cx="-966.527" cy="-7.841" rx="1.725" ry="1.769"/>
		<path style="fill:none;fill-opacity:1;stroke:#000;stroke-width:.68990105;stroke-linecap:square;stroke-linejoin:miter;stroke-miterlimit:4;stroke-dasharray:none;stroke-dashoffset:0;stroke-opacity:1" d="M968.074-11.544a1.973 1.973 0 0 0-1.458-.758 1.97 1.97 0 0 0-1.452.562"/>
		<g style="stroke-width:.77700406;stroke-miterlimit:4;stroke-dasharray:none">
			<g style="stroke-width:.77700406">
				<path style="fill:none;fill-rule:evenodd;stroke:#000;stroke-width:.77700406;stroke-linecap:butt;stroke-linejoin:miter;stroke-miterlimit:4;stroke-dasharray:none;stroke-opacity:1" d="m962.306-5.783.1 1.984s1.587 1.423 2.513-.033c0 0-.1-.827-.166-1.091" transform="translate(106.612 -.382) scale(.8879)"/>
				<path d="m962.288-5.783-.1 1.984s-1.587 1.423-2.513-.033c0 0 .099-.827.165-1.091" style="fill:none;fill-rule:evenodd;stroke:#000;stroke-width:.77700406;stroke-linecap:butt;stroke-linejoin:miter;stroke-miterlimit:4;stroke-dasharray:none;stroke-opacity:1" transform="translate(106.612 -.382) scale(.8879)"/>
			</g>
		</g>
		<path style="fill:gray;fill-opacity:1;stroke:#000;stroke-width:.68990111;stroke-linecap:square;stroke-linejoin:miter;stroke-miterlimit:4;stroke-dasharray:none;stroke-dashoffset:0;stroke-opacity:1" d="M962.572-5.544c-.12-.31-.12-.933-.48-.933-.361 0-.695-.233-1.05-.233-.354 0-.687.233-1.047.233-.36 0-.36.622-.481.933-.12.311 1.529 1.322 1.529 1.322s1.649-1.01 1.529-1.322z"/>
		<ellipse ry="1.769" rx="1.725" cy="-7.841" cx="955.36" style="fill:#000;fill-opacity:1;stroke:#892ca0;stroke-width:.68990111;stroke-linecap:square;stroke-linejoin:miter;stroke-miterlimit:4;stroke-dasharray:none;stroke-dashoffset:0;stroke-opacity:1"/>
		<ellipse style="fill:#fff;fill-opacity:1;stroke:none;stroke-width:.68990111;stroke-linecap:square;stroke-linejoin:miter;stroke-miterlimit:4;stroke-dasharray:none;stroke-dashoffset:0;stroke-opacity:1" cx="954.785" cy="-8.338" rx=".848" ry=".881"/>
		<path d="M953.814-11.544a1.973 1.973 0 0 1 1.458-.758 1.97 1.97 0 0 1 1.452.562" style="fill:none;fill-opacity:1;stroke:#000;stroke-width:.68990105;stroke-linecap:square;stroke-linejoin:miter;stroke-miterlimit:4;stroke-dasharray:none;stroke-dashoffset:0;stroke-opacity:1"/>
		<ellipse ry=".881" rx=".848" cy="-8.338" cx="967.053" style="fill:#fff;fill-opacity:1;stroke:none;stroke-width:.68990111;stroke-linecap:square;stroke-linejoin:miter;stroke-miterlimit:4;stroke-dasharray:none;stroke-dashoffset:0;stroke-opacity:1"/>
	</g>
	<path d="M948.212 4.293h32.927" style="fill:none;fill-rule:evenodd;stroke:#3c6eb4;stroke-width:1.05833328;stroke-linecap:butt;stroke-linejoin:miter;stroke-miterlimit:4;stroke-dasharray:none;stroke-opacity:1" transform="translate(-932.032 32.121)"/>
	<g style="stroke-width:1.20411575" transform="translate(-767.482 30.697) scale(.83048)" clip-path="url(#a)">
		<path d="M958.316 13.737c-.262-1.782-.39-3.72-.873-6.001-.53-2.818-2.322-5.143-4.654-5.995-1.924-.67-5.92-.672-7.613 0-2.332.852-4.124 3.177-4.654 5.995-.484 2.28-.611 4.22-.873 6.001" style="fill:#ccc;fill-opacity:1;fill-rule:evenodd;stroke:#000;stroke-width:.95576686;stroke-linecap:butt;stroke-linejoin:miter;stroke-miterlimit:4;stroke-dasharray:none;stroke-opacity:1"/>
		<ellipse style="opacity:1;fill:#e7e8e9;fill-opacity:1;stroke:none;stroke-width:.95576686;stroke-linecap:square;stroke-linejoin:miter;stroke-miterlimit:4;stroke-dasharray:none;stroke-dashoffset:5.99999952;stroke-opacity:1" cx="954.204" cy="12.162" rx=".988" ry="1.039"/>
		<ellipse ry="1.039" rx=".988" cy="12.162" cx="944.215" style="opacity:1;fill:#e7e8e9;fill-opacity:1;stroke:none;stroke-width:.95576686;stroke-linecap:square;stroke-linejoin:miter;stroke-miterlimit:4;stroke-dasharray:none;stroke-dashoffset:5.99999952;stroke-opacity:1"/>
		<g style="stroke:#a7a9ac;stroke-width:.81074655;stroke-miterlimit:4;stroke-dasharray:none">
			<path d="m956.419-5.981-4.67 1.251" style="fill:none;fill-rule:evenodd;stroke:#a7a9ac;stroke-width:.81074655;stroke-linecap:butt;stroke-linejoin:miter;stroke-miterlimit:4;stroke-dasharray:none;stroke-opacity:1" transform="matrix(.78652 0 0 .7853 193.685 16.288)"/>
			<path d="m956.948-5.254-4.697 2.712" style="fill:none;fill-rule:evenodd;stroke:#a7a9ac;stroke-width:.81074655;stroke-linecap:butt;stroke-linejoin:miter;stroke-miterlimit:4;stroke-dasharray:none;stroke-opacity:1" transform="matrix(.78652 0 0 .7853 193.685 16.288)"/>
			<path d="M957.345-4.394 952.582.37" style="fill:none;fill-rule:evenodd;stroke:#a7a9ac;stroke-width:.81074655;stroke-linecap:butt;stroke-linejoin:miter;stroke-miterlimit:4;stroke-dasharray:none;stroke-opacity:1" transform="matrix(.78652 0 0 .7853 193.685 16.288)"/>
			<path d="M957.543-3.27 955.11.947" style="fill:none;fill-rule:evenodd;stroke:#a7a9ac;stroke-width:.81074655;stroke-linecap:butt;stroke-linejoin:miter;stroke-miterlimit:4;stroke-dasharray:none;stroke-opacity:1" transform="matrix(.78652 0 0 .7853 193.685 16.288)"/>
		</g>
		<g style="stroke:#a7a9ac;stroke-width:.81074655;stroke-miterlimit:4;stroke-dasharray:none">
			<path style="fill:none;fill-rule:evenodd;stroke:#a7a9ac;stroke-width:.81074655;stroke-linecap:butt;stroke-linejoin:miter;stroke-miterlimit:4;stroke-dasharray:none;stroke-opacity:1" d="m956.419-5.981-4.67 1.251" transform="matrix(-.78652 0 0 .7853 1705.025 16.288)"/>
			<path style="fill:none;fill-rule:evenodd;stroke:#a7a9ac;stroke-width:.81074655;stroke-linecap:butt;stroke-linejoin:miter;stroke-miterlimit:4;stroke-dasharray:none;stroke-opacity:1" d="m956.948-5.254-4.697 2.712" transform="matrix(-.78652 0 0 .7853 1705.025 16.288)"/>
			<path style="fill:none;fill-rule:evenodd;stroke:#a7a9ac;stroke-width:.81074655;stroke-linecap:butt;stroke-linejoin:miter;stroke-miterlimit:4;stroke-dasharray:none;stroke-opacity:1" d="M957.345-4.394 952.582.37" transform="matrix(-.78652 0 0 .7853 1705.025 16.288)"/>
			<path style="fill:none;fill-rule:evenodd;stroke:#a7a9ac;stroke-width:.81074655;stroke-linecap:butt;stroke-linejoin:miter;stroke-miterlimit:4;stroke-dasharray:none;stroke-opacity:1" d="M957.543-3.27 955.11.947" transform="matrix(-.78652 0 0 .7853 1705.025 16.288)"/>
		</g>
		<ellipse style="opacity:1;fill:#fff;fill-opacity:1;stroke:#60605b;stroke-width:.95576686;stroke-linecap:square;stroke-linejoin:miter;stroke-miterlimit:4;stroke-dasharray:none;stroke-dashoffset:5.99999952;stroke-opacity:1" cx="949.313" cy="11.435" rx="3.174" ry="3.013"/>
		<ellipse transform="scale(-1 1)" style="fill:#000;fill-opacity:1;stroke:#892ca0;stroke-width:.95576686;stroke-linecap:square;stroke-linejoin:miter;stroke-miterlimit:4;stroke-dasharray:none;stroke-dashoffset:0;stroke-opacity:1" cx="-954.172" cy="8.86" rx="1.528" ry="1.565"/>
		<path style="fill:none;fill-opacity:1;stroke:#000;stroke-width:.9557668;stroke-linecap:square;stroke-linejoin:miter;stroke-miterlimit:4;stroke-dasharray:none;stroke-dashoffset:0;stroke-opacity:1" d="M955.542 5.584a1.75 1.75 0 0 0-1.292-.67 1.75 1.75 0 0 0-1.286.497"/>
		<g style="stroke-width:1.21611977;stroke-miterlimit:4;stroke-dasharray:none">
			<g style="stroke-width:1.21611977">
				<path style="fill:none;fill-rule:evenodd;stroke:#000;stroke-width:1.21611977;stroke-linecap:butt;stroke-linejoin:miter;stroke-miterlimit:4;stroke-dasharray:none;stroke-opacity:1" d="m962.306-5.783.1 1.984s1.587 1.423 2.513-.033c0 0-.1-.827-.166-1.091" transform="matrix(.78652 0 0 .7853 192.436 15.457)"/>
				<path d="m962.288-5.783-.1 1.984s-1.587 1.423-2.513-.033c0 0 .099-.827.165-1.091" style="fill:none;fill-rule:evenodd;stroke:#000;stroke-width:1.21611977;stroke-linecap:butt;stroke-linejoin:miter;stroke-miterlimit:4;stroke-dasharray:none;stroke-opacity:1" transform="matrix(.78652 0 0 .7853 192.436 15.457)"/>
			</g>
		</g>
		<path style="fill:gray;fill-opacity:1;stroke:#000;stroke-width:.95576686;stroke-linecap:square;stroke-linejoin:miter;stroke-miterlimit:4;stroke-dasharray:none;stroke-dashoffset:0;stroke-opacity:1" d="M950.668 10.892c-.107-.275-.107-.826-.426-.826-.32 0-.615-.206-.929-.206-.314 0-.609.206-.928.206-.32 0-.32.55-.426.826-.106.275 1.354 1.169 1.354 1.169s1.461-.894 1.355-1.17z"/>
		<ellipse ry="1.565" rx="1.528" cy="8.86" cx="944.28" style="fill:#000;fill-opacity:1;stroke:#892ca0;stroke-width:.95576686;stroke-linecap:square;stroke-linejoin:miter;stroke-miterlimit:4;stroke-dasharray:none;stroke-dashoffset:0;stroke-opacity:1"/>
		<ellipse style="fill:#fff;fill-opacity:1;stroke:none;stroke-width:.95576686;stroke-linecap:square;stroke-linejoin:miter;stroke-miterlimit:4;stroke-dasharray:none;stroke-dashoffset:0;stroke-opacity:1" cx="943.77" cy="8.42" rx=".752" ry=".78"/>
		<path d="M942.91 5.584a1.75 1.75 0 0 1 1.291-.67c.473-.02.95.165 1.287.497" style="fill:none;fill-opacity:1;stroke:#000;stroke-width:.9557668;stroke-linecap:square;stroke-linejoin:miter;stroke-miterlimit:4;stroke-dasharray:none;stroke-dashoffset:0;stroke-opacity:1"/>
		<ellipse ry=".78" rx=".752" cy="8.42" cx="954.637" style="fill:#fff;fill-opacity:1;stroke:none;stroke-width:.95576686;stroke-linecap:square;stroke-linejoin:miter;stroke-miterlimit:4;stroke-dasharray:none;stroke-dashoffset:0;stroke-opacity:1"/>
	</g>
	<path style="opacity:1;fill:none;fill-opacity:1;stroke:#892ca0;stroke-width:1.0583334;stroke-linecap:round;stroke-linejoin:round;stroke-miterlimit:4;stroke-dasharray:none;stroke-opacity:1" d="m961.972 23.285-19.299-9.233-4.82-20.862 13.287-16.78 21.39-.064 13.384 16.7-4.699 20.89z" transform="translate(-932.032 32.121)"/>
	<path style="fill:none;fill-rule:evenodd;stroke:#3c6eb4;stroke-width:1.05833328;stroke-linecap:butt;stroke-linejoin:miter;stroke-miterlimit:4;stroke-dasharray:none;stroke-opacity:1" d="M943.45 8.526h19.83" transform="translate(-932.032 32.121)"/>
	<path d="M952.87 12.493h27.503" style="fill:none;fill-rule:evenodd;stroke:#3c6eb4;stroke-width:1.05833328;stroke-linecap:butt;stroke-linejoin:miter;stroke-miterlimit:4;stroke-dasharray:none;stroke-opacity:1" transform="translate(-932.032 32.121)"/>
	<g transform="translate(-931.252 33.005)">
		<path style="fill:#ccc;fill-opacity:1;fill-rule:evenodd;stroke:#000;stroke-width:.79374999;stroke-linecap:butt;stroke-linejoin:miter;stroke-miterlimit:4;stroke-dasharray:none;stroke-opacity:1" d="M977.469 11.11c-.233-1.582-.346-3.303-.775-5.328-.471-2.502-2.062-4.567-4.133-5.323-1.708-.595-5.256-.597-6.76 0-2.07.756-3.66 2.821-4.132 5.323-.43 2.025-.542 3.746-.775 5.329"/>
		<ellipse ry=".922" rx=".878" cy="9.712" cx="973.817" style="opacity:1;fill:#e7e8e9;fill-opacity:1;stroke:none;stroke-width:.79374999;stroke-linecap:square;stroke-linejoin:miter;stroke-miterlimit:4;stroke-dasharray:none;stroke-dashoffset:5.99999952;stroke-opacity:1"/>
		<ellipse style="opacity:1;fill:#e7e8e9;fill-opacity:1;stroke:none;stroke-width:.79374999;stroke-linecap:square;stroke-linejoin:miter;stroke-miterlimit:4;stroke-dasharray:none;stroke-dashoffset:5.99999952;stroke-opacity:1" cx="964.948" cy="9.712" rx=".878" ry=".922"/>
		<g style="stroke:#a7a9ac;stroke-width:.7583214;stroke-miterlimit:4;stroke-dasharray:none">
			<path style="fill:none;fill-rule:evenodd;stroke:#a7a9ac;stroke-width:.7583214;stroke-linecap:butt;stroke-linejoin:miter;stroke-miterlimit:4;stroke-dasharray:none;stroke-opacity:1" d="m955.746-3.96-4.67 1.252" transform="matrix(.69835 0 0 .69727 299.023 11.966)"/>
			<path style="fill:none;fill-rule:evenodd;stroke:#a7a9ac;stroke-width:.7583214;stroke-linecap:butt;stroke-linejoin:miter;stroke-miterlimit:4;stroke-dasharray:none;stroke-opacity:1" d="M956.275-3.232 951.58-.521" transform="matrix(.69835 0 0 .69727 299.023 11.966)"/>
		</g>
		<g style="stroke:#a7a9ac;stroke-width:.7583214;stroke-miterlimit:4;stroke-dasharray:none">
			<path d="m956.419-5.981-4.67 1.251" style="fill:none;fill-rule:evenodd;stroke:#a7a9ac;stroke-width:.7583214;stroke-linecap:butt;stroke-linejoin:miter;stroke-miterlimit:4;stroke-dasharray:none;stroke-opacity:1" transform="matrix(-.69835 0 0 .69727 1640.471 13.376)"/>
			<path d="m956.948-5.254-4.697 2.712" style="fill:none;fill-rule:evenodd;stroke:#a7a9ac;stroke-width:.7583214;stroke-linecap:butt;stroke-linejoin:miter;stroke-miterlimit:4;stroke-dasharray:none;stroke-opacity:1" transform="matrix(-.69835 0 0 .69727 1640.471 13.376)"/>
		</g>
		<ellipse ry="2.675" rx="2.818" cy="9.067" cx="969.475" style="opacity:1;fill:#fff;fill-opacity:1;stroke:#60605b;stroke-width:.79374999;stroke-linecap:square;stroke-linejoin:miter;stroke-miterlimit:4;stroke-dasharray:none;stroke-dashoffset:5.99999952;stroke-opacity:1"/>
		<ellipse ry="1.389" rx="1.357" cy="6.78" cx="-973.789" style="fill:#000;fill-opacity:1;stroke:#892ca0;stroke-width:.79374999;stroke-linecap:square;stroke-linejoin:miter;stroke-miterlimit:4;stroke-dasharray:none;stroke-dashoffset:0;stroke-opacity:1" transform="scale(-1 1)"/>
		<path d="M975.006 3.872a1.553 1.553 0 0 0-1.147-.595 1.551 1.551 0 0 0-1.142.441" style="fill:none;fill-opacity:1;stroke:#000;stroke-width:.79374993;stroke-linecap:square;stroke-linejoin:miter;stroke-miterlimit:4;stroke-dasharray:none;stroke-dashoffset:0;stroke-opacity:1"/>
		<g style="stroke-width:1.13748205;stroke-miterlimit:4;stroke-dasharray:none">
			<g style="stroke-width:1.13748205">
				<path d="m962.306-5.783.1 1.984s1.587 1.423 2.513-.033c0 0-.1-.827-.166-1.091" style="fill:none;fill-rule:evenodd;stroke:#000;stroke-width:1.13748205;stroke-linecap:butt;stroke-linejoin:miter;stroke-miterlimit:4;stroke-dasharray:none;stroke-opacity:1" transform="matrix(.69835 0 0 .69727 297.445 12.638)"/>
				<path style="fill:none;fill-rule:evenodd;stroke:#000;stroke-width:1.13748205;stroke-linecap:butt;stroke-linejoin:miter;stroke-miterlimit:4;stroke-dasharray:none;stroke-opacity:1" d="m962.288-5.783-.1 1.984s-1.587 1.423-2.513-.033c0 0 .099-.827.165-1.091" transform="matrix(.69835 0 0 .69727 297.445 12.638)"/>
			</g>
		</g>
		<path d="M970.678 8.584c-.095-.244-.095-.733-.378-.733-.284 0-.546-.183-.825-.183-.279 0-.54.183-.824.183-.284 0-.284.489-.378.733-.095.244 1.202 1.038 1.202 1.038s1.297-.794 1.203-1.038z" style="fill:gray;fill-opacity:1;stroke:#000;stroke-width:.79374999;stroke-linecap:square;stroke-linejoin:miter;stroke-miterlimit:4;stroke-dasharray:none;stroke-dashoffset:0;stroke-opacity:1"/>
		<ellipse style="fill:#000;fill-opacity:1;stroke:#892ca0;stroke-width:.79374999;stroke-linecap:square;stroke-linejoin:miter;stroke-miterlimit:4;stroke-dasharray:none;stroke-dashoffset:0;stroke-opacity:1" cx="965.006" cy="6.78" rx="1.357" ry="1.389"/>
		<ellipse ry=".692" rx=".667" cy="6.389" cx="964.553" style="fill:#fff;fill-opacity:1;stroke:none;stroke-width:.79374999;stroke-linecap:square;stroke-linejoin:miter;stroke-miterlimit:4;stroke-dasharray:none;stroke-dashoffset:0;stroke-opacity:1"/>
		<path style="fill:none;fill-opacity:1;stroke:#000;stroke-width:.79374993;stroke-linecap:square;stroke-linejoin:miter;stroke-miterlimit:4;stroke-dasharray:none;stroke-dashoffset:0;stroke-opacity:1" d="M963.79 3.872a1.553 1.553 0 0 1 1.146-.595 1.55 1.55 0 0 1 1.142.441"/>
		<ellipse style="fill:#fff;fill-opacity:1;stroke:none;stroke-width:.79374999;stroke-linecap:square;stroke-linejoin:miter;stroke-miterlimit:4;stroke-dasharray:none;stroke-dashoffset:0;stroke-opacity:1" cx="974.202" cy="6.389" rx=".667" ry=".692"/>
	</g>
	<path style="fill:none;fill-rule:evenodd;stroke:#3c6eb4;stroke-width:1.05833328;stroke-linecap:butt;stroke-linejoin:miter;stroke-miterlimit:4;stroke-dasharray:none;stroke-opacity:1" d="M950.754 15.139h12.722" transform="translate(-932.032 32.121)"/>
	<path d="M958.162 17.785h10.477" style="fill:none;fill-rule:evenodd;stroke:#3c6eb4;stroke-width:1.05833328;stroke-linecap:butt;stroke-linejoin:miter;stroke-miterlimit:4;stroke-dasharray:none;stroke-opacity:1" transform="translate(-932.032 32.121)"/>
</svg>
