<svg xmlns="http://www.w3.org/2000/svg" viewBox="1.01 1.76 207.74 21.24">
	<g fill-rule="evenodd">
		<path d="M36.026 19.19H58.11c1 0 1.81-.808 1.81-1.797V7.608c0-.988-.81-1.797-1.81-1.797H36.026c-1 0-1.81.809-1.81 1.797v9.785c.001.989.81 1.797 1.81 1.797zM37.43 8.407h19.377c.332 0 .603.27.603.599v6.99a.603.603 0 0 1-.603.599H37.43a.603.603 0 0 1-.603-.599v-6.99c0-.33.271-.599.603-.599z"/>
		<path d="M5 19.19h2.61v-3.194h21.185a1.909 1.909 0 0 0 1.908-1.897V7.708a1.909 1.909 0 0 0-1.908-1.897H5V19.19zm2.61-5.791V8.407h19.678c.441 0 .803.359.803.799v3.395a.803.803 0 0 1-.803.799H7.61v-.001z"/>
		<path d="M63.333 19.19h2.611v-3.194h18.818l1.649 3.194h2.822l-1.675-3.243a1.907 1.907 0 0 0 1.477-1.849V7.707a1.908 1.908 0 0 0-1.907-1.897H63.333v13.38zm2.611-5.791V8.407h19.677c.442 0 .804.359.804.799v3.395a.804.804 0 0 1-.804.799H65.944v-.001z"/>
		<path d="M150.683 19.19h2.611v-5.392h19.176v5.392h2.611V5.81h-2.611v5.393h-19.176V5.81h-2.611v13.38z"/>
		<path d="M124.38 19.19h22.388v-2.63a.61.61 0 0 1-.201.034h-20.783a.604.604 0 0 1-.603-.599v-6.99c0-.329.272-.599.603-.599h20.783a.61.61 0 0 1 .201.035V5.81H124.38c-.999 0-1.809.809-1.809 1.797v9.785c0 .99.81 1.798 1.809 1.798z"/>
		<path d="M179.097 19.19H205v-2.596h-23.292v-2.796H205v-2.595h-23.292V8.407H205V5.81h-25.903v13.38z"/>
		<path d="M96.266 9.605v-.6c0-.329.271-.599.602-.599h20.784a.6.6 0 0 1 .2.035V5.81H95.464c-1 0-1.81.809-1.81 1.797V12c0 .988.81 1.797 1.81 1.797h1.906v.034a.631.631 0 0 1 .2-.034h17.068c.332 0 .603.27.603.6v1.598a.603.603 0 0 1-.603.599H93.855a.61.61 0 0 1-.201-.034v2.63h22.388c1 0 1.81-.809 1.81-1.797V13c0-.989-.81-1.798-1.81-1.798h-1.904v-.034a.616.616 0 0 1-.202.034H96.867a.603.603 0 0 1-.602-.6v-.997h.001z"/>
	</g>
</svg>
