<svg xmlns="http://www.w3.org/2000/svg" height="192.973" width="514.357" xml:space="preserve">
	<defs>
		<clipPath id="a" clipPathUnits="userSpaceOnUse">
			<path d="M0 144.73h385.768V0H0Z"/>
		</clipPath>
	</defs>
	<g clip-path="url(#a)" transform="matrix(1.33333 0 0 -1.33333 0 192.973)">
		<path style="fill:#30353b;fill-opacity:1;fill-rule:evenodd;stroke:none" d="m0 0 3.981.347h1.076c.523 0 .954-.164 1.294-.491.338-.327.507-.749.507-1.268v-3.081c0-.423-.169-.802-.507-1.139-.34-.336-.771-.543-1.294-.619-1.976-.384-4.554-.577-7.731-.577-8.332 0-12.497 4.321-12.497 12.964v27.138c0 .518.17.945.508 1.283.339.336.761.503 1.264.503h6.51c.504 0 .925-.167 1.265-.503.339-.338.508-.765.508-1.283v-9.622h8.108c.504 0 .926-.163 1.266-.49.339-.327.508-.749.508-1.267v-3.429c0-.518-.169-.94-.508-1.267-.34-.327-.762-.491-1.266-.491h-8.108V6.136c0-1.958.467-3.471 1.396-4.536C-2.791.534-1.551 0 0 0m-20.825 28.654-4.01.49c-3.856 0-6.366-.514-7.527-1.541-1.163-1.029-1.745-3.155-1.745-6.382v-.461h10.522c.522 0 .953-.168 1.292-.504.339-.336.51-.763.51-1.282v-3.428c0-.519-.171-.941-.51-1.268-.339-.326-.77-.489-1.292-.489h-10.522V-4.158c0-.519-.169-.943-.509-1.268-.338-.327-.76-.49-1.264-.49h-6.51c-.523 0-.949.163-1.279.49-.329.325-.493.749-.493 1.268v25.379c0 5.358 1.229 9.156 3.691 11.394 2.459 2.238 6.781 3.357 12.961 3.357 3.179 0 5.397-.116 6.656-.346 1.26-.231 2.054-.515 2.384-.85.328-.336.493-.725.493-1.167V30.44c0-.519-.169-.945-.507-1.281-.339-.338-.76-.505-1.265-.505zm-38.063 4.562c0 .518.17.941.509 1.267.339.326.76.489 1.265.489h6.51c.523 0 .95-.167 1.279-.503.329-.336.494-.754.494-1.253v-3.339c0-.519-.17-.942-.508-1.267-.341-.327-.762-.491-1.265-.491h-6.51c-.523 0-.95.164-1.279.491-.33.325-.495.748-.495 1.267zm0-37.742v27.339c0 .518.17.94.509 1.267.339.326.76.489 1.265.489h6.51c.523 0 .95-.168 1.279-.504.329-.336.494-.753.494-1.252V-4.526c0-.519-.17-.943-.508-1.268-.341-.327-.762-.49-1.265-.49h-6.51c-.523 0-.95.163-1.279.49-.33.325-.495.749-.495 1.268m-38.654.033v37.767c0 .518.168.945.508 1.282.338.337.76.504 1.264.504h6.51c.504 0 .925-.167 1.264-.504.338-.337.508-.764.508-1.282V21.722c3.332 2.785 6.884 4.177 10.652 4.177 3.769 0 6.835-1.138 9.198-3.415 2.365-2.275 3.546-5.756 3.546-10.442V-4.493c0-.502-.169-.918-.508-1.255-.339-.335-.77-.503-1.294-.503h-6.48c-.505 0-.926.168-1.266.503-.339.337-.507.753-.507 1.255v16.535c0 4.59-1.85 6.885-5.552 6.885-2.422 0-5.017-1.373-7.789-4.119V-4.493c0-.502-.17-.918-.508-1.255-.339-.335-.76-.503-1.264-.503h-6.51c-.504 0-.926.168-1.264.503-.34.337-.508.753-.508 1.255m-34.974 21.125c0 6.203 5.046 9.305 15.141 9.305 10.619 0 15.927-2.757 15.927-8.268 0-.5-.165-.918-.493-1.254-.329-.336-.755-.504-1.279-.504h-4.331c-1.395 0-2.568.581-3.517 1.743-.949 1.162-2.819 1.743-5.61 1.743-3.836 0-5.753-.92-5.753-2.765 0-.865.751-1.584 2.251-2.16 1.502-.577 3.332-1.08 5.493-1.514a63 63 0 0 0 6.467-1.656c2.152-.672 3.978-1.743 5.478-3.211 1.502-1.47 2.254-3.329 2.254-5.575 0-6.204-5.327-9.306-15.986-9.306-10.656 0-15.985 2.746-15.985 8.24 0 .519.17.945.509 1.282.34.336.77.504 1.293.504h4.331c1.395 0 2.566-.581 3.517-1.743.949-1.162 2.819-1.743 5.61-1.743 4.435 0 6.654.922 6.654 2.766 0 .864-.751 1.585-2.251 2.16-1.503.577-3.339 1.091-5.508 1.541a70.494 70.494 0 0 0-6.467 1.671c-2.141.663-3.967 1.734-5.477 3.213-1.512 1.479-2.268 3.321-2.268 5.531M-139.894 0l3.982.347h1.075c.523 0 .953-.164 1.294-.491.338-.327.508-.749.508-1.268v-3.081c0-.423-.17-.802-.508-1.139-.341-.336-.771-.543-1.294-.619-1.976-.384-4.555-.577-7.731-.577-8.332 0-12.496 4.321-12.496 12.964v27.138c0 .518.169.945.507 1.283.339.336.76.503 1.264.503h6.511c.504 0 .925-.167 1.263-.503.339-.338.508-.765.508-1.283v-9.622h8.11c.504 0 .924-.163 1.265-.49.338-.327.507-.749.507-1.267v-3.429c0-.518-.169-.94-.507-1.267-.341-.327-.761-.491-1.265-.491h-8.11V6.136c0-1.958.468-3.471 1.396-4.536.93-1.066 2.17-1.6 3.721-1.6m-20.751 18.043-4.478.173c-2.615 0-5.114-1.422-7.497-4.264V-4.455c0-.52-.17-.943-.509-1.269-.338-.326-.76-.49-1.264-.49h-6.51c-.523 0-.949.164-1.279.49-.33.326-.493.749-.493 1.269v28.029c0 .519.169.947.508 1.283.339.336.761.503 1.264.503h6.51c.524 0 .95-.167 1.279-.503.33-.336.494-.764.494-1.283V21.76c1.976 1.42 3.881 2.472 5.711 3.155 1.831.68 4.229 1.022 7.194 1.022.522 0 .954-.168 1.293-.504.339-.337.508-.755.508-1.254V19.8c0-.518-.169-.941-.508-1.268-.339-.327-.771-.489-1.293-.489zm-47.878-.979c-1.203-1.555-1.802-4.043-1.802-7.462 0-3.418.599-5.915 1.802-7.489 1.2-1.576 3.095-2.363 5.681-2.363s4.486.787 5.697 2.363c1.209 1.574 1.817 4.071 1.817 7.489 0 3.419-.608 5.907-1.817 7.462-1.211 1.556-3.111 2.333-5.697 2.333s-4.481-.777-5.681-2.333m-7.353-19.706c-3.023 2.766-4.534 6.842-4.534 12.23 0 5.387 1.511 9.458 4.534 12.215 3.022 2.755 7.368 4.134 13.034 4.134 5.667 0 10.013-1.379 13.035-4.134 3.022-2.757 4.533-6.828 4.533-12.215 0-5.388-1.511-9.464-4.533-12.23-3.022-2.764-7.368-4.148-13.035-4.148-5.666 0-10.012 1.384-13.034 4.148m-30.833 3.9v15.037c2.772 1.73 5.208 2.593 7.31 2.593 2.101 0 3.681-.744 4.737-2.232 1.057-1.489 1.584-3.875 1.584-7.159s-.557-5.675-1.671-7.173c-1.114-1.498-2.998-2.247-5.653-2.247-1.704 0-3.806.393-6.307 1.181m-10.055-15.499v37.739c0 .519.17.946.508 1.282.34.336.76.504 1.264.504h5.61c.504 0 .925-.168 1.264-.504.338-.336.508-.763.508-1.282v-.865c3.061 2.152 6.617 3.228 10.666 3.228 4.05 0 7.431-1.417 10.145-4.251 2.712-2.832 4.068-6.883 4.068-12.156 0-5.272-1.406-9.309-4.214-12.114-2.81-2.804-6.597-4.207-11.365-4.207-2.46 0-5.26.491-8.399 1.47v-8.844a1.728 1.728 0 0 0-1.772-1.787h-6.511c-.504 0-.924.17-1.264.505-.338.336-.508.763-.508 1.282" transform="translate(332.844 62.393)"/>
		<path style="fill:#127fc3;fill-opacity:1;fill-rule:evenodd;stroke:none" d="M0 0h16L8.002 8Z" transform="translate(50.08 56.364)"/>
		<path style="fill:#1d58a4;fill-opacity:1;fill-rule:evenodd;stroke:none" d="m0 0-.024-.023L7.952-8H8l7.976 7.977-.024.023Z" transform="translate(42.104 64.362)"/>
		<path style="fill:#263184;fill-opacity:1;fill-rule:evenodd;stroke:none" d="m0 0-8 8-8-8Z" transform="translate(58.08 64.364)"/>
		<path style="fill:#f16c1e;fill-opacity:1;fill-rule:evenodd;stroke:none" d="m0 0 8.002 7.988v.049L.024 16 0 15.977Z" transform="translate(42.08 64.364)"/>
		<path style="fill:#e91a21;fill-opacity:1;fill-rule:evenodd;stroke:none" d="M0 0v16l-8-8Z" transform="translate(42.08 64.364)"/>
		<path style="fill:#bf2a29;fill-opacity:1;fill-rule:evenodd;stroke:none" d="M0 0h15.952l.024-.024L8-8h-.048L-.024-.024z" transform="translate(42.104 80.365)"/>
		<path style="fill:#e91a21;fill-opacity:1;fill-rule:evenodd;stroke:none" d="M0 0h16L8 8Z" transform="translate(42.08 80.365)"/>
		<path style="fill:#f16c1e;fill-opacity:1;fill-rule:evenodd;stroke:none" d="m0 0-.024-.024L7.94-8.002h.048L15.976 0Z" transform="translate(50.104 88.365)"/>
	</g>
</svg>
