<svg width="500" height="500" xmlns="http://www.w3.org/2000/svg" xmlns:xlink="http://www.w3.org/1999/xlink">
	<defs>
		<path d="M62.385 36.857C48.127 56.007 34 57.584 20.006 41.591 9.978 32.207 13.3 20.253 18.15 11.341c2.615-4.58 1.958-7.863-1.97-9.85-4.464-2.04-8.42.149-11.868 6.563-5.173 9.622-6.536 24.79 2.862 37.895C16.573 59.053 36.47 71.654 53.21 63.548c11.16-5.405 17.478-12.278 18.954-20.62" id="a"/>
		<path id="g" d="m2.397 18.065 24-16.625v42.192z"/>
		<path id="h" d="M.467 19.743 23.162 4.022v39.897z"/>
		<ellipse id="e" cx="75.427" cy="65.813" rx="75.357" ry="65.773"/>
		<circle id="c" cx="112.052" cy="67.425" r="66.749"/>
	</defs>
	<g fill="none" fill-rule="evenodd">
		<ellipse fill="#AFD5D0" fill-rule="nonzero" cx="244.5" cy="318" rx="105.5" ry="23"/>
		<g transform="translate(129 143.299)">
			<g transform="translate(0 24.78)">
				<g transform="translate(0 12.459)">
					<mask id="b" fill="#fff">
						<use xlink:href="#a"/>
					</mask>
					<use stroke="#3C2E53" stroke-width="2" fill="#F7CD88" fill-rule="nonzero" xlink:href="#a"/>
					<ellipse fill="#FFF" fill-rule="nonzero" mask="url(#b)" cx="4.949" cy="8.924" rx="23.797" ry="26.772"/>
				</g>
				<path d="M62.385 49.316C48.127 68.465 34 70.043 20.006 54.05 9.978 44.665 13.3 32.71 18.15 23.8c2.615-4.58 1.958-7.864-1.97-9.851-4.464-2.039-8.42.15-11.868 6.564-5.173 9.622-6.536 24.79 2.862 37.894 9.399 13.104 29.296 25.706 46.036 17.6 11.16-5.405 17.478-12.278 18.954-20.62" stroke="#3C2E53" stroke-width="5"/>
				<rect stroke="#3C2E53" stroke-width="6" fill="#F7CD88" fill-rule="nonzero" x="73.408" y="92.239" width="15.814" height="61.425" rx="7.907"/>
				<rect stroke="#3C2E53" stroke-width="6" fill="#F7CD88" fill-rule="nonzero" x="136.866" y="92.239" width="15.814" height="61.425" rx="7.907"/>
				<mask id="d" fill="#fff">
					<use xlink:href="#c"/>
				</mask>
				<use fill="#F7CD88" fill-rule="nonzero" xlink:href="#c"/>
				<ellipse fill="#FFF" fill-rule="nonzero" mask="url(#d)" cx="119.339" cy="83.49" rx="44.279" ry="46.493"/>
			</g>
			<circle stroke="#3C2E53" stroke-width="6" cx="112.052" cy="92.205" r="63.749"/>
			<path d="M158.48 52.235c21.908-12.616 36.047-23.645 42.417-33.088 9.555-14.163 14.119-18.2 19.965-16.48 7.958 3.792 8.462 9.89.98 21.187-2.028 3.06-4.319 6.532-7.291 10.35-7.999 10.276-20.933 23.06-46.943 37.095" stroke="#3C2E53" stroke-width="6" fill="#F7CD88" fill-rule="nonzero"/>
			<path d="M69.748 71.93c-13.88 7.54-19.577 18.354-17.095 32.439 2.483 14.085-.056 22.227-7.616 24.426-7.43-.278-11.713-6.345-12.852-18.2-1.708-17.782 2.502-43.617 31.415-61.013" stroke="#3C2E53" stroke-width="6" fill="#F7CD88" fill-rule="nonzero"/>
		</g>
		<g transform="translate(160.746 50.094)">
			<g transform="translate(2.687 32.996)">
				<mask id="f" fill="#fff">
					<use xlink:href="#e"/>
				</mask>
				<use fill="#F7CD88" fill-rule="nonzero" xlink:href="#e"/>
				<ellipse fill="#FFF" fill-rule="nonzero" mask="url(#f)" cx="85.272" cy="114.027" rx="59.492" ry="38.67"/>
			</g>
			<ellipse stroke="#3C2E53" stroke-width="7" cx="78.114" cy="98.809" rx="71.857" ry="62.273"/>
			<g fill="#3C2E53" fill-rule="nonzero">
				<path d="M91.308 115.302c.671 3.991 6.131 7.103 12.767 7.103 5.276 0 9.808-1.967 11.781-4.778.046.272.07.549.07.829 0 4.38-5.747 7.932-12.836 7.932-7.09 0-12.836-3.551-12.836-7.932 0-1.121.376-2.187 1.054-3.154Z"/>
				<path d="M89.96 115.783c-1.012 3.758-6.296 6.622-12.662 6.622-5.572 0-10.315-2.194-12.09-5.26a5.03 5.03 0 0 0-.174 1.31c0 4.382 5.747 7.933 12.836 7.933s12.836-3.551 12.836-7.932c0-.938-.263-1.838-.747-2.673Z"/>
				<path d="M84.754 105.759h12l-6 12z"/>
			</g>
			<g transform="translate(53.264 76.996)" fill-rule="nonzero">
				<circle fill="#FFF" cx="12.7" cy="12.154" r="11.898"/>
				<circle fill="#FFF" cx="58.31" cy="12.154" r="11.898"/>
				<ellipse fill="#3C2E53" cx="13.377" cy="12.154" rx="3.966" ry="7.932"/>
				<ellipse fill="#3C2E53" cx="58.988" cy="12.154" rx="3.966" ry="7.932"/>
			</g>
			<g fill-rule="nonzero">
				<path d="M100.442 41.813 88.465 7.32C68.185.97 49.093 6.351 31.19 23.462L30.62 56.22c13.551 3.591 36.825-1.211 69.822-14.407Z" fill="#FFF"/>
				<path d="M98.916 37.317 87.564 4.466c-21.002-7.091-40.454-2.08-58.356 15.03l-.571 32.758c13.55 3.59 36.977-1.388 70.28-14.937Z" fill="#BB0048"/>
			</g>
			<g transform="translate(12.504 39.406)">
				<path d="M25.163 14.417 1.228-5.462-2.69 39.331l27.854-24.914Z" stroke="#3C2E53" stroke-width="7" stroke-linecap="square"/>
				<use fill="#F7CD88" fill-rule="nonzero" transform="scale(-1 1) rotate(-5 0 352.292)" xlink:href="#g"/>
			</g>
			<g transform="translate(95.892 24.08)">
				<path stroke="#3C2E53" stroke-width="7" d="M2.45 15.777 25.145.055V24.09z"/>
				<use fill="#F7CD88" fill-rule="nonzero" xlink:href="#h"/>
			</g>
			<g transform="translate(54.317 142.74)" fill="#BB0048" fill-rule="nonzero">
				<path d="M.427.873v34.003L66.433.873v34.003z"/>
				<circle stroke="#BB0048" cx="33.43" cy="17.875" r="6.847"/>
			</g>
			<g fill-rule="nonzero" stroke="#3C2E53" stroke-linecap="round" stroke-width="6">
				<path d="m143.502 93.572 16.328-3.58"/>
				<path d="m141.342 109.1 16.682 1.059"/>
				<path d="m13.257 116.166-13.16 1.251"/>
				<path d="m12.896 101.738-11.193-.994"/>
			</g>
		</g>
		<path d="M103.712 365.883h27.048c9.261 0 16.161 1.334 20.7 4.002 4.539 2.668 6.808 7.436 6.808 14.306 0 7.605-2.76 12.85-8.28 15.732-5.152 2.637-12.359 3.956-21.62 3.956h-.736v24.656h11.5v1.748h-35.42v-1.748h5.98V367.63h-5.98v-1.748Zm23.92 1.748v34.5h1.932c3.68 0 6.225-1.258 7.636-3.772 1.41-2.515 2.116-6.593 2.116-12.236v-4.416c0-5.214-.66-8.863-1.978-10.948-1.319-2.086-3.726-3.128-7.222-3.128h-2.484Zm62.904 44.528v-7.82c0-5.95-.322-10.289-.966-13.018-.644-2.73-2.131-4.094-4.462-4.094-1.35 0-2.438.383-3.266 1.15-.828.766-1.426 2.04-1.794 3.818-.552 2.76-.828 6.961-.828 12.604v7.176c0 6.685.2 10.702.598 12.052.399 1.35.813 2.453 1.242 3.312.675 1.472 1.993 2.208 3.956 2.208 2.392 0 3.956-1.38 4.692-4.14.552-1.963.828-6.379.828-13.248Zm-5.704 19.044c-7.667 0-13.463-1.963-17.388-5.888-3.925-3.926-5.888-9.553-5.888-16.882 0-7.33 2.1-12.972 6.302-16.928 4.201-3.956 10.105-5.934 17.71-5.934s13.279 1.824 17.02 5.474c3.741 3.65 5.612 9.215 5.612 16.698 0 15.64-7.79 23.46-23.368 23.46Zm58.672-42.136c-2.27 0-4.263 1.472-5.98 4.416-1.717 2.944-2.576 6.44-2.576 10.488v24.656h6.532v1.656h-28.704v-1.656h5.06v-40.48h-5.06v-1.656h22.172v8.832c.797-3.128 2.33-5.536 4.6-7.222 2.27-1.687 4.845-2.53 7.728-2.53s5.229.812 7.038 2.438c1.81 1.625 2.714 3.925 2.714 6.9 0 2.974-.675 5.26-2.024 6.854-1.35 1.594-3.42 2.392-6.21 2.392s-4.845-.92-6.164-2.76c-1.319-1.84-1.487-4.386-.506-7.636h3.312c1.533-3.128.89-4.692-1.932-4.692Zm21.412 28.06v-28.98h-5.06v-1.656h5.06v-11.868l17.112-4.232v16.1h11.96v1.656h-11.96v31.004c0 2.882.291 4.998.874 6.348.583 1.35 1.794 2.024 3.634 2.024 1.84 0 3.45-.92 4.83-2.76 1.38-1.84 2.285-4.355 2.714-7.544l1.564.184c-.49 4.232-1.84 7.59-4.048 10.074s-5.857 3.726-10.948 3.726c-5.09 0-8.985-1.012-11.684-3.036s-4.048-5.704-4.048-11.04Zm57.844 14.076c-7.912 0-13.846-2.04-17.802-6.118-3.956-4.079-5.934-9.752-5.934-17.02 0-7.268 2.223-12.834 6.67-16.698 4.447-3.864 10.105-5.796 16.974-5.796 13.923 0 20.608 6.992 20.056 20.976H316.78v3.588c0 6.01.767 10.55 2.3 13.616 1.533 3.066 4.201 4.6 8.004 4.6 7.115 0 11.776-3.803 13.984-11.408l1.656.276c-1.165 4.416-3.266 7.85-6.302 10.304-3.036 2.453-7.59 3.68-13.662 3.68Zm-5.888-26.496h9.476v-4.508c0-4.968-.291-8.357-.874-10.166-.583-1.81-1.748-2.714-3.496-2.714s-3.036.966-3.864 2.898c-.828 1.932-1.242 5.26-1.242 9.982v4.508Zm61.892-15.64c-2.27 0-4.263 1.472-5.98 4.416-1.717 2.944-2.576 6.44-2.576 10.488v24.656h6.532v1.656h-28.704v-1.656h5.06v-40.48h-5.06v-1.656h22.172v8.832c.797-3.128 2.33-5.536 4.6-7.222 2.27-1.687 4.845-2.53 7.728-2.53s5.229.812 7.038 2.438c1.81 1.625 2.714 3.925 2.714 6.9 0 2.974-.675 5.26-2.024 6.854-1.35 1.594-3.42 2.392-6.21 2.392s-4.845-.92-6.164-2.76c-1.319-1.84-1.487-4.386-.506-7.636h3.312c1.533-3.128.89-4.692-1.932-4.692Z" fill="#3C2E53"/>
		<path fill="#D67D54" fill-rule="nonzero" d="m182.668 101.66 12.995 10.038-14.787 11.968z"/>
		<path fill="#D67D54" fill-rule="nonzero" d="m263.373 96.32 12.27-10.401v18.308z"/>
	</g>
</svg>
