<svg xmlns="http://www.w3.org/2000/svg" width="200" height="128">
	<defs>
		<linearGradient id="b" x1="20" y1="66.125" x2="50.61" y2="66.125" gradientUnits="userSpaceOnUse">
			<stop offset="0" stop-color="#f37a39"/>
			<stop offset=".114" stop-color="#ef7436"/>
			<stop offset=".669" stop-color="#dc5a2b"/>
			<stop offset="1" stop-color="#d55027"/>
		</linearGradient>
		<linearGradient id="c" x1="20.126" y1="45.154" x2="51.703" y2="45.154" gradientUnits="userSpaceOnUse">
			<stop offset="0" stop-color="#d54927"/>
			<stop offset=".248" stop-color="#d84e29"/>
			<stop offset=".545" stop-color="#e05d2f"/>
			<stop offset=".866" stop-color="#ed753a"/>
			<stop offset="1" stop-color="#f4813f"/>
		</linearGradient>
		<linearGradient id="d" x1="27.946" y1="93.312" x2="27.946" y2="75.17" gradientUnits="userSpaceOnUse">
			<stop offset="0" stop-color="#e46f30"/>
			<stop offset=".372" stop-color="#d0552b"/>
			<stop offset=".745" stop-color="#c14127"/>
			<stop offset="1" stop-color="#bc3a26"/>
		</linearGradient>
		<radialGradient id="a" cx="176.947" cy="58.933" r="3.13" gradientUnits="userSpaceOnUse">
			<stop offset="0" stop-color="#e75d25"/>
			<stop offset="1" stop-color="#d54d2a"/>
		</radialGradient>
	</defs>
	<g fill-rule="evenodd">
		<path d="M66.091 55.705h1.935v2.5a5.97 5.97 0 0 1 2.383-2.062 7.251 7.251 0 0 1 3.3-.778 7.7 7.7 0 0 1 5.732 2.3 8.324 8.324 0 0 1 .029 11.4 7.5 7.5 0 0 1-5.6 2.313 7.606 7.606 0 0 1-3.352-.716 6.481 6.481 0 0 1-2.484-2.1v7.367h-1.943V55.705zm1.935 7.539a6.317 6.317 0 0 0 1.726 4.467 5.353 5.353 0 0 0 4.057 1.853 5.581 5.581 0 0 0 4.12-1.76A5.907 5.907 0 0 0 79.66 63.5a6.259 6.259 0 0 0-1.726-4.484 5.554 5.554 0 0 0-4.2-1.821 5.334 5.334 0 0 0-3.983 1.826 5.971 5.971 0 0 0-1.725 4.223zm18.084.08a6.088 6.088 0 0 0 1.634 4.316 5.379 5.379 0 0 0 4.093 1.749 5.3 5.3 0 0 0 4.043-1.74A6.146 6.146 0 0 0 97.5 63.3a6 6 0 0 0-1.643-4.349 5.579 5.579 0 0 0-4.2-1.7A5.181 5.181 0 0 0 87.754 59a6.068 6.068 0 0 0-1.644 4.325zm-2 .037a7.784 7.784 0 0 1 2.25-5.612 7.157 7.157 0 0 1 5.33-2.333 7.826 7.826 0 0 1 7.81 7.756 7.982 7.982 0 0 1-2.236 5.7 7.212 7.212 0 0 1-5.428 2.357 7.34 7.34 0 0 1-5.482-2.312 7.7 7.7 0 0 1-2.244-5.556zm19.828 7.625h-1.963V55.705h1.85v1.765a4.964 4.964 0 0 1 1.568-1.485 3.708 3.708 0 0 1 .939-.37 4.148 4.148 0 0 1 1.062-.132l.014 2.124a3.86 3.86 0 0 0-2.66 1.1 4.631 4.631 0 0 0-.81 3.055zm8.526 0V57.674h-2.902V55.71h2.902v-4.949h1.962v4.949h2.902v1.964h-2.902v13.312h-1.962z" fill="#515254"/>
		<path d="m129.222 62.075-2.689 8.914h-2.022l-5.293-15.283 3.59.006 2.709 8.715 2.661-8.726 2.163.012 2.648 8.7 2.722-8.7 3.564-.006-5.322 15.283h-2.017l-2.714-8.914zm10.658 1.286a8.408 8.408 0 0 1 .539-3.011 7.737 7.737 0 0 1 1.643-2.582 8.371 8.371 0 0 1 2.554-1.841 7.1 7.1 0 0 1 3.022-.68 7.987 7.987 0 0 1 3.089.588 7.767 7.767 0 0 1 2.569 1.771 8.234 8.234 0 0 1 1.714 2.584 7.683 7.683 0 0 1 .611 2.987 8.627 8.627 0 0 1-.551 3.05 7.913 7.913 0 0 1-1.581 2.574 8.4 8.4 0 0 1-1.223 1.1 8.564 8.564 0 0 1-1.4.838 7.453 7.453 0 0 1-3.085.655 7.821 7.821 0 0 1-3.092-.6A7.583 7.583 0 0 1 142.147 69a8.631 8.631 0 0 1-1.674-2.6 9.486 9.486 0 0 1-.441-1.5 7.81 7.81 0 0 1-.152-1.541zm3.464-.027a4.7 4.7 0 0 0 1.275 3.371 4.169 4.169 0 0 0 3.163 1.333 4.064 4.064 0 0 0 3.111-1.344 4.777 4.777 0 0 0 1.264-3.387 4.713 4.713 0 0 0-1.261-3.388 4.354 4.354 0 0 0-6.264.027 4.708 4.708 0 0 0-1.288 3.388zm17.7-6.638a4.347 4.347 0 0 1 .916-.7 4.268 4.268 0 0 1 2.134-.531h.38v3.491h-.38a3.374 3.374 0 0 0-1.325.249 2.412 2.412 0 0 0-.922.661 4.356 4.356 0 0 0-.667 2.658v8.466h-3.357V55.7h3.221v1zm12.015 9.136-3.3 5.161h-3.811l5.163-7.925-4.578-7.355 3.827-.006L180 70.99l-3.807-.006z" fill="#515254"/>
		<path fill="url(#a)" d="m173.915 59.3 1.87 2.859 4.194-6.452h-3.946l-2.118 3.593z"/>
		<path fill="url(#b)" d="m20 85.703 15.985-10.595L51.703 64.69l-13.685-9.071 13.685 9.071V46.548l-13.685 9.071L20 67.561v18.142z"/>
		<path fill="url(#c)" d="m38.018 55.619 13.685-9.071-17.869-11.844-.023-.016-13.685 9.071.055.037 17.837 11.823z"/>
		<path fill="url(#d)" d="M35.892 93.312 20 85.703 35.892 75.17v18.142z"/>
	</g>
</svg>
