<svg xmlns="http://www.w3.org/2000/svg" viewBox="-5.67 -5.67 554.84 125.34">
	<defs>
		<linearGradient id="a" x1="4.988%" x2="106.578%" y1="46.563%" y2="51.293%">
			<stop offset="0%" stop-color="#17BC85"/>
			<stop offset="100%" stop-color="#01AA72"/>
			<stop offset="100%" stop-color="#00A971"/>
		</linearGradient>
	</defs>
	<g fill="none">
		<path fill="#000" d="M196.566 90.5V61.555h13.125c10.391 0 18.565-2.49 24.522-7.471 5.957-4.98 8.935-11.63 8.935-19.951 0-5.625-1.377-10.654-4.13-15.088-2.754-4.434-6.641-7.852-11.66-10.254-5.02-2.402-10.792-3.604-17.315-3.604H176V90.5h20.566zm10.922-44.824h-13.476v-24.61h13.71c3.712.04 6.641 1.25 8.79 3.633 2.148 2.383 3.222 5.567 3.222 9.551 0 3.633-1.045 6.445-3.134 8.438s-5.127 2.988-9.112 2.988zm66.809 45.996c9.375 0 16.807-2.9 22.295-8.701 5.488-5.801 8.232-13.643 8.232-23.526v-.703c0-10.117-2.734-18.115-8.203-23.994-5.469-5.879-12.95-8.818-22.441-8.818-6.211 0-11.621 1.328-16.23 3.984-4.61 2.656-8.145 6.455-10.606 11.397-2.461 4.94-3.692 10.576-3.692 16.904l.059 3.34c.43 9.257 3.379 16.591 8.848 22.002 5.468 5.41 12.714 8.115 21.738 8.115zm0-15.234c-3.594 0-6.309-1.368-8.145-4.102-1.836-2.734-2.754-7.031-2.754-12.89l.059-3.575c.547-9.805 4.121-14.707 10.723-14.707 7.265 0 10.898 5.684 10.898 17.05v1.993c-.156 10.82-3.75 16.23-10.781 16.23zM328.918 90.5V50.363c1.758-3.906 5.742-5.86 11.953-5.86l6.504.47.352-18.34c-1.563-.469-3.399-.703-5.508-.703-5.938 0-10.567 3.105-13.887 9.316l-.645-8.144h-18.515V90.5h19.746zm50.25 1.172c3.867 0 7.578-.567 11.133-1.7v-14.12c-1.328.234-2.969.351-4.922.351-2.54 0-4.238-.469-5.098-1.406-.86-.938-1.289-2.598-1.289-4.98V40.812h10.43V27.102h-10.43V11.34h-19.746v15.762h-8.086v13.71h8.086v31.465c0 6.524 1.621 11.387 4.863 14.59 3.243 3.203 8.262 4.805 15.059 4.805zm48.691 0c5.196 0 10.05-1.006 14.56-3.018 4.513-2.011 7.999-4.716 10.46-8.115l-9.024-10.664c-3.515 4.375-8.398 6.563-14.648 6.563-3.789 0-6.875-1.016-9.258-3.047-2.383-2.032-3.926-4.825-4.629-8.38h39.258v-7.675c0-9.883-2.578-17.588-7.734-23.115-5.156-5.528-12.188-8.291-21.094-8.291-6.328 0-11.797 1.357-16.406 4.072-4.61 2.715-8.115 6.553-10.518 11.514-2.402 4.96-3.603 10.683-3.603 17.168v1.64c0 9.297 3.007 16.846 9.023 22.647s13.887 8.7 23.613 8.7zm8.883-39.024H416.82c1.094-7.656 4.532-11.484 10.313-11.484 3.125 0 5.527.87 7.207 2.607 1.68 1.739 2.48 4.19 2.402 7.354v1.523zM479.41 90.5V50.363c1.758-3.906 5.742-5.86 11.953-5.86l6.504.47.352-18.34c-1.563-.469-3.399-.703-5.508-.703-5.938 0-10.566 3.105-13.887 9.316l-.644-8.144h-18.516V90.5h19.746z"/>
		<path fill="#3D3F4A" d="M517.168 90.5v-3.55h-11.62V64.905h-4.446V90.5h16.066zm12.812 0c2.871 0 5.077-.645 6.618-1.934 1.541-1.289 2.312-3.134 2.312-5.537 0-1.453-.378-2.698-1.134-3.735-.756-1.037-1.825-1.743-3.208-2.118 1.219-.516 2.144-1.242 2.777-2.18.633-.937.95-1.992.95-3.164 0-2.297-.756-4.025-2.268-5.186-1.512-1.16-3.715-1.74-6.61-1.74h-8.771V90.5h9.334zm-.527-14.818h-4.36v-7.19h4.324c1.524 0 2.646.281 3.367.844.72.562 1.08 1.477 1.08 2.742 0 1.149-.389 2.036-1.168 2.663-.78.627-1.86.94-3.243.94zm.58 11.267h-4.94v-7.998h5.309c2.719.059 4.078 1.418 4.078 4.078 0 1.23-.393 2.192-1.178 2.883-.785.692-1.875 1.037-3.27 1.037z"/>
		<path fill="url(#a)" d="M0 0v39.6h134.4V0H0zm15.76 23.743v-7.887h7.88v7.887h-7.88zm15.763 0v-7.887h7.88v7.887h-7.88zm52.993 0v-7.887h34.125v7.887H84.516zM134.4 48v39.6h-28.049L92.4 55.2 78.448 87.6H0V48h134.4zM39.404 63.857h-7.881v7.886h7.88v-7.886zm-15.764 0h-7.88v7.886h7.88v-7.886z" transform="translate(5 5)"/>
		<path fill="#EDB51D" d="m97.4 81.8 3.833 10.733h9.967l-8.433 6.134 3.166 10.733-8.533-6.133-8.525 6.133 3.158-10.733-8.433-6.134h9.967z"/>
	</g>
</svg>
