<svg xmlns="http://www.w3.org/2000/svg" width="200" height="128">
	<path d="M111.779 56.549c-1.419.071-3.151.005-4.143 1.2-1.065 1.615-.677 3.685-.531 5.5a11.533 11.533 0 0 1 .223 1.784c-1.861 2.236-2.941 3.426-4.746 5.707 1.8 2.433 4.638 5.409 7.58 6.444.235-2.173.474-4.346.692-6.522 2.45 3.552 6.311 5.833 10.242 7.432 2.8 1.07 5.914 1.782 8.888 1.059a4.074 4.074 0 0 0 3-3.923c0-2.151-.942-4.137-1.667-6.117A20.5 20.5 0 0 0 118.9 57.675a21.284 21.284 0 0 0-7.121-1.126z" fill="#8f5902"/>
	<path d="m104.114 70.209 4.243-5s-1.32-5.846.189-7.166 19.233-2.168 23.475 16.122c1.509 9.334-19.516 2.263-21.778-6.882.188-1.037-.755 7.731-.755 7.731s-3.394-4.809-5.374-4.809z" fill="#e9b96e"/>
	<path d="M140.651 21.878c-5.066.076-9.721 3.112-12.564 7.172-6.314.661-8.158 2.564-9.8 7.4-2.717 1.038-6.038 2.792-5.076 6.136-.091 1 .162 2.039-.269 2.979a38.688 38.688 0 0 0 1.553 24.371c.6 1.267 1.427 2.786 2.943 3.038 2.18.411 4.28-.743 5.889-2.107a9.582 9.582 0 0 1 3.65-2.173c2.036-.787 4.534-2.8 5.2-4.991.674-3.2-1.01-4.2-3.842-4.659-3.522-.373-7.259 2.311-10.411-2.117 1.384-2.543 3.618-6.544 5.177-8.987.659 1.015 1.285 2.137 2.423 2.324.368 3.877 4.814 3.72 6.032 3.03 3.673 4.094 13.184 3.738 18.057 3.148 4.087-.766 8.533-2.612 10.816-6.2 5.687-14.474.259-19.018-9.611-25.4a19.562 19.562 0 0 0-10.164-2.967z" fill="#555753"/>
	<path d="M140.8 22.775a12.92 12.92 0 0 0-10.756 5.784 28.229 28.229 0 0 1 8.478 1.486C127.144 27.2 118.6 33.6 119.758 36.016c2.744-1.135 9.891.139 9.4.357-4.536-.02-16.193-.411-14.971 8.018-4.133 13.867.8 26.8 2.934 27.6 7.619 1.767 7.742-8.519 12.931-10.206 1.4.506-2.478 5.577-3.665 6.19-.369.191.967.676 2.349-1.238 4.3-4.2 2.839-7.533-2.506-6.8a26.026 26.026 0 0 1-6.244.133c-.212.3 3.225 1.133 2.316 1.836 0 0-2.407-.75-2.9-1.924 0 0-.152-.108-.225-.165.693 2.585 3.487 4.239 3.487 4.239-3.14-.313-5.646-5.869-5.808-7.131 0 0 6.162-11.277 6.162-10.344.8 2.719 4.349 3.9 7.7 2.281.015 0-.961 1.606-4.216 1.53 1.191 4.061 5.679 2.659 9.014-1.159 0 0-.46 1.905-3.226 3.659 3.557 2.927 20.185 6.268 26.645-2.523-1.795.256-13.7 1.883-13.289-.2 2.7-4.2-2.7-18-2.7-18-1.173-1.771 7.755-4.215 12.178-3.161a33.6 33.6 0 0 0-.74-.6c-5.345-4.255-9.872-5.682-13.578-5.63zm15.026 6.84c2.681 3.282 3.634 16.411 3.491 20.193 1.8-2.772 2.648-6.644 1.937-11.95-.447-3.339-3.249-6.327-5.428-8.243z" fill="#f8eda6"/>
	<path d="M80.969 19c-4.4.1-8.3 3.217-10.1 7.118a14.367 14.367 0 0 0-1.069 8.43 11.551 11.551 0 0 0-7.315 7.8 39.3 39.3 0 0 0-12.692.211 20.444 20.444 0 0 0-4.722 1.7c-1.1.318-2.353.164-3.288.931a2.709 2.709 0 0 0-1.035 2.768c.325 1.988 1.907 3.457 3.4 4.671a12.057 12.057 0 0 0 9.112 2.3c4.74-.545 8.95-3.021 13.345-4.679 1.846-.559 3.843-.052 5.7-.6a7.294 7.294 0 0 0 2.395-1.038c5.507 4.41 5.039 10.89 3.358 17.113-1.671-1.283-3.246-3.918-5.268-4.564-3.773 1.076-4.974 5.6-7.274 9.116 1.031.8 1.556.3 2.578 1.1 1.6-2.062 3.094-4.345 4.7-6.407a36.835 36.835 0 0 1 5.041 5.23C79.61 81.268 89.129 80.292 98 77.2c1.562 1.4 3.735 2.762 5.929 2.751 2.025-.268 2.373-3.438 2.956-6.3-.864-1.144-.816-1.309-1.936-2.007-1.187 2.138-.932 2.94-2.136 5.069-.232-.175-2.263-2.116-1.9-2.5 4.9-10.335 1.978-17.779-6.4-24.714 4.2-2.268 9.3-2.129 13.774-.837.251.125.845.155.858.372-.734.983-1.409 2.385-.745 3.57.908 1.388 2.418 2.206 3.716 3.181a34.441 34.441 0 0 0 8.622 4.269c4.539-.152 4.469-2.613 2.579-5.287.922-.466 1.88-1.767.637-4.318 1.486-3.64-3.377-6.472-6.545-6.806a19.244 19.244 0 0 0-5.543.982c-3.282-.382-6.545-.857-9.824-1.276 4.079-2.774 7.4-7.014 8.167-11.987.547-3.644-.7-7.75-3.82-9.886-3.139-2.185-7.321-2.166-10.859-1.034a28.937 28.937 0 0 0-6.549 2.984A9.77 9.77 0 0 0 80.969 19z" fill="#555753"/>
	<path d="M80.975 19.906c-6.147.085-12.134 7.122-10.06 15.249-5.3 1.324-7.709 6.434-7.661 8.17-14-1.733-16.931 1.736-18.531 2-.4 0-4.661-.135-2.528 4 8.4 11.066 21.436-.436 26-.27 3.918.142 5.106-1.027 5.8-1.482 2.774-3.03 2.287-3.49 3.431-5.234l2.88-3.774c.728.224-1 4.042-2.365 4.814-.4 1.1-3.088 4.2-2.945 4.345 7.359 5.948 4.518 13.66 3.373 21.387-.094-.08-.207-2.4-.3-2.481a113.884 113.884 0 0 1-5.2-4.576c-2-.447-4.489 4.794-6.325 7.942l1.171.5 5.066-6.745s4.084 4.241 5.817 6.374c2.8 12.929 15.606 7.52 18.621 6.386.233-.087-1.786-2.456-1.8-3.03 2.21 2.447 4.544 5.1 8.223 5.922 1.9 0 2.721-6.417 2.721-6.417a2.409 2.409 0 0 0-1.014-1.131l-2.18 6.033c-1.242-.57-4.905-4.833-5.565-6.031.055-.1 2.625 2.09 2.678 1.991 6.482-12.182-3.235-21.286-6.455-23.741-.121-.093-2.434 1.229-2.536 1.156-.325-.236 1.657-1.777 1.585-1.809 7.6-5.313 18.254-.932 17.721-.8 0 0-2.311 2.5-1.361 3.62 2.532 2.979 10.3 6.724 11.758 6.918 3.043.009 3.053-1.671 2.167-3.169a12.383 12.383 0 0 0-2.036-2.074c3.885.566 3.08-2.9.985-3.9.013-.146 1.3.1 1.308-.042-.2-6.086-7-6.022-11.223-4.411L99.424 43.9c16.376-9.036 11.306-28.7-5.591-21.918-6.375 1.811-8.984 9.512-9.463 15.978-.108-.466-.45-2.4-.5-2.846-6.021-3.615-8.351-1.767-12.408 1.228 4.655-6.637 9.7-4.066 12.659-1.87-.226-3.957 1.667-7.084 4.131-10.513-.454-1.942-4.679-4.088-7.273-4.053zm20.111 7.04c2.2.012 3.971 1.116 4.258 4.159-2.083-6.642-13.047-.709-14.509 4.916 4.336-1.971 3.939 5.157-.152 3.721.415 1.607 2.033 1.718 4.88.523-8.133 4.54-7.514-4.346-3.7-9.008 1.846-2.01 6-4.329 9.221-4.311zm-14.762 17.31c3.781 1.243 4.807 1.758 10.49 0-3.059 1.317-7.175 2.422-8.654 4.055l.786-1.849z" fill="#b4b4b4"/>
	<path d="M49.78 62.112c-1.535.138-3.225.035-4.565.9a8.477 8.477 0 0 0-2.148 9.964c1.4 3.166 4.323 5.32 7.25 7a55 55 0 0 0 12.262 4.588 24.3 24.3 0 0 0 6.921.936 2.527 2.527 0 0 0 2.483-1.985c.167-1.45-.709-2.711-1.119-4.047-.722-1.831-1.512-3.634-2.284-5.445l3.085-2.579c-1.39-1.777-2.928-3.759-5.253-4.258a1.706 1.706 0 0 0-2.126 1.434c-.159.43-.274.874-.394 1.317-3.045-4.7-8.392-8.064-14.112-7.825z" fill="#8f5902"/>
	<path d="M62.889 42.957a2.24 2.24 0 0 0 2.638 1.293c1.8 4.017 7.393 1.071 8.319-2.387.914-3.408 1.288-7.886-3.167-6.658-3.039-4.107-9.481 3.111-7.79 7.752z" fill="#555753"/>
	<path d="M63.424 37.69c-1.544 1.71-.441 7.444 2.47 5.826.894 4.534 6.234 1.307 7.036-1.686 1.611-6.012-.814-6.55-2.487-5.624-1.594.882-2.979 2.585-4.325 6.368.37-2.5 2.082-6.139 3.868-6.89-1.047-2.063-5.44.231-6.562 2.006z" fill="#fff"/>
	<path d="M70.308 41.463c-.445-.023-.855.5-.922 1.16s.231 1.217.676 1.24.855-.5.922-1.16v-.06a.489.489 0 0 1-.369.16.39.39 0 1 1 0-.76.526.526 0 0 1 .332.11c-.095-.393-.328-.674-.639-.69zM65.7 39.906c-.361-.017-.687.51-.73 1.172s.209 1.214.571 1.231.687-.51.73-1.173v-.06a.364.364 0 0 1-.3.165.38.38 0 1 1-.013-.759.377.377 0 0 1 .272.105c-.084-.392-.278-.67-.532-.681z"/>
	<path d="M77.923 43.4a6.078 6.078 0 0 1-1.039 1.6c3.48 3.778 3.923 12.051 8.981 7.209 3.9-4.78-3.508-9.365-6.889-10.039-.777.356-.519.532-1.053 1.234z" fill="#a40000"/>
	<path d="M78.672 42.4c-.161.026-.313.282-.768 1.042 2.806-.545 4.124 2.779 3.769 2.823l-3.849-2.725c-.528.687-.945 1.427-1 1.427 3.226 1.509 4.405 8.832 6.5 7.792 3.158-1.568 3.935-6.933-4.432-10.333-.009 0-.207-.028-.219-.026z" fill="#ef2929"/>
	<path d="M46.773 41.64c.718 3.975-.789 7.436-3.365 7.729s-5.247-2.691-5.965-6.666.789-7.435 3.365-7.728 5.247 2.691 5.965 6.665z"/>
	<path d="M63.773 71.444A15.187 15.187 0 0 0 46.46 63.4c-1.6-.282-12.088 12.675 15.557 20.082 8.671 2.324 9.334.66 9.051-.754s-3.583-8.957-3.583-8.957l2.923-2.451s-2.734-3.771-4.9-3.206a12.359 12.359 0 0 0-1.063 3.014c-.039.15 1.117 2.681 1.083 2.817-.143.561-1.752-2.5-1.752-2.5z" fill="#e9b96e"/>
	<path d="M45.821 65.392c3.7-1.91 8.188 7.632 13.95 11.625 4.692 3.252 9.74 5.005 9.524 6.674-4.064 1.645-32.795-6.817-23.474-18.299z" fill="#c17d11" opacity=".6" style="isolation:isolate"/>
	<path d="M42.726 40.55c0 1.966-1 3.56-2.225 3.56s-2.225-1.594-2.225-3.56 1-3.56 2.225-3.56 2.225 1.594 2.225 3.56z" fill="#fff" opacity=".4" style="isolation:isolate"/>
	<path d="M47.363 44.733c-.069.058-.288 1.885-.08 1.8a48.565 48.565 0 0 1 15.586-2.783c-1.302-.325-10.048-1.679-15.506.983z" fill="#fff" opacity=".4"/>
	<path d="M62.16 37.132s-2.55 2.768-.054 4.885a6.517 6.517 0 0 1 .054-4.885z" fill="#555753"/>
	<path d="M154.35 29.553a21.968 21.968 0 0 0-10.293 2.314c-.189.1-.478.363-.248.588 1.721 4.833 3.348 9.832 3.3 15.021a9.07 9.07 0 0 1-.615 2.717 11.1 11.1 0 0 0 2.91.284 72.737 72.737 0 0 0 9.231-.8 6.99 6.99 0 0 1-.039-1.28 66.5 66.5 0 0 0-1.91-15.128 7.947 7.947 0 0 0-1.741-3.515.928.928 0 0 0-.591-.2z" fill="#fff"/>
	<path d="M149.6 48.173a6.808 6.808 0 0 1-.081-1.648s3.457-.907 2.692-1.053l-2.972-.746a2.551 2.551 0 0 1 .128-1.628s4.668-.01 6.328-.106a.861.861 0 0 1-.137 1.134c-1.079.062-3.686.079-4.765.141l3.305.828c.1 1.452-2.019 1.2-2.882 1.905 1.4-.08 3.205.478 4.968.478.874.175.254 1.241.006 1.192a51.535 51.535 0 0 1-6.59-.5zm4.618-8.9c.135.563-.066 1.233.342 1.706.487.135 1.233.274 1.04 1.01-.674.668-6.744-.921-6.744-.921-.882-.548.008-1.353.861-1.692 0 0 3.847-1.038 5.433-1.579a.982.982 0 0 1-.932 1.476zm-1.08 1.6a2.414 2.414 0 0 0 .018-1.292c-.29.1-2.878.543-2.623.8.687.135 1.915.358 2.603.49zm-5.1-3.132c-.472-.724 1.078-1.2 1.078-1.2 1.579-.09 3.606-.406 5.185-.5.471.724-.764 1.291-.764 1.291-1.585.091-3.927.317-5.505.407zm-.146-2.471c-.8-1.787 3.841-1.316 5.017-1.407.113-.669-1.333-2.9-.476-3.275 1.018-.026 1.57 4.112 1.385 4.362-1.856.107-4.071.213-5.926.32z" fill="#555753"/>
	<path d="M85.757 34.127a7.449 7.449 0 0 0-.079 1.8c3.64-8.574 9.275-14.144 16.567-14.558-6.473.232-13.522.867-16.488 12.756z" fill="#fff" opacity=".2"/>
	<path d="M51.338 108.734V96.343H57c3.187 0 5.169 1.451 5.169 4.567 0 2.992-1.982 4.408-5.169 4.408h-3.166v3.416zM57 103.123c1.771 0 2.638-.709 2.638-2.213 0-1.646-.85-2.372-2.638-2.372h-3.166v4.585zM70.192 109c-4.673 0-6.8-2.974-6.8-6.479 0-3.788 2.531-6.408 6.8-6.408 4.249 0 6.8 2.62 6.8 6.408-.002 3.505-2.162 6.479-6.8 6.479zm0-10.674a4.231 4.231 0 1 0 4.266 4.2 3.963 3.963 0 0 0-4.266-4.2zM88.3 99.494a7.818 7.818 0 0 0-4.39-1.133c-1.876 0-2.655.6-2.655 1.381 0 1.008 1.31 1.381 3.009 1.681 3.346.585 5.045 1.416 5.045 3.842 0 2.142-1.787 3.752-5.381 3.735-4.125-.018-5.664-1.77-5.664-1.77l1.1-1.965a7 7 0 0 0 4.567 1.523c1.753 0 2.744-.55 2.744-1.452 0-.868-.514-1.151-2.868-1.593-2.832-.5-5.169-1.187-5.169-3.86-.017-2.018 1.735-3.77 5.257-3.77a10.6 10.6 0 0 1 5.293 1.239zm6.73 9.24V98.5h-4.886v-2.16h12.338v2.16h-4.957v10.231zm11.525-4.974v4.974h-2.5V96.343h9.913v2.195h-7.417v3.2h5.895v2.018zm9.188 4.974V96.343h2.5v12.391zm13.949 0-3.469-4.514-3.4 4.514h-3.045l4.78-6.178-4.78-6.213h3.1l3.469 4.584 3.4-4.584h3.045l-4.8 6.284 4.8 6.107z"/>
	<path d="M51.206 92.988h81.656v.996H51.206z"/>
</svg>
