<svg xmlns="http://www.w3.org/2000/svg" width="200" height="128">
	<path d="M51.23 67.022c-.068-.207-.368-.869-1.439-.652a7.753 7.753 0 0 1-2.848.194c3.43-5.755 5.21-13.08 3.54-15.213-3.955-5.056-10.55-3.289-11.786-2.89a.658.658 0 0 0-.074.017v.007l-.073.026a10.852 10.852 0 0 0-2.45-.321 7.162 7.162 0 0 0-3.887.959c-1.881-.612-6.587-1.808-9.612.347-1.879 1.34-2.747 3.708-2.58 7.039.075 1.5 2.53 14.064 6.238 15.3a2.028 2.028 0 0 0 .643.106 2.376 2.376 0 0 0 1.735-.859c.212.439.9.649 1.475.816l.523.1a9.093 9.093 0 0 0 1.763.233 3.6 3.6 0 0 0 1.919-.529 22.841 22.841 0 0 0 .61 6.232 3.7 3.7 0 0 0 3.617 2.227 6.673 6.673 0 0 0 1.4-.157c2.568-.552 3.777-1.718 4.176-4.027.225-1.3.519-3.721.656-5.063a5.5 5.5 0 0 0 1.117.106 8.26 8.26 0 0 0 3.153-.6c1.392-.647 2.516-2.394 2.184-3.398zm-2.05 2.111a2.776 2.776 0 0 1-.567.361c-.059.027-.129.048-.192.073l-.1.052a7.62 7.62 0 0 1-2.906.553 4.5 4.5 0 0 1-1.258-.155c-.166 1.516-.513 4.316-.715 5.489-.384 2.217-1.371 3.223-3.646 3.71a5.062 5.062 0 0 1-1.06.12 2.958 2.958 0 0 1-2.329-1 2.415 2.415 0 0 1-.516-.745 6.627 6.627 0 0 1-.311-.687 27.03 27.03 0 0 1-.439-6.5 4.205 4.205 0 0 1-2.857 1.048 5.885 5.885 0 0 1-1.44-.187c-.145-.036-1.414-.378-1.4-1.2.016-.75 1.075-.969 1.473-1.051 1.38-.284 1.468-.4 1.9-.938.087-.111.192-.24.31-.38v-.025a4 4 0 0 1-1.749-.486 66.173 66.173 0 0 0-2.477 2.8 2.375 2.375 0 0 1-1.813 1.026 1.82 1.82 0 0 1-.571-.094c-3.361-1.122-5.5-12.659-5.569-14.1a10.008 10.008 0 0 1 .531-4 4.835 4.835 0 0 1 .759-1.458 4.574 4.574 0 0 1 .96-.97 5.317 5.317 0 0 1 1.518-.789c3.033-1.052 6.871.245 7.8.593a5.885 5.885 0 0 1 .8-.454v-.007a5.97 5.97 0 0 1 .668-.245 7.094 7.094 0 0 1 2.268-.362h.144a10.02 10.02 0 0 1 2.26.3l.067-.023V49.4a.393.393 0 0 1 .068-.015 12.855 12.855 0 0 1 4.9-.514 8.161 8.161 0 0 1 6 3.113 2 2 0 0 1 .333.831c.863 2.764-1.024 9.315-4.226 14.205.258.185 1.035.49 3.222.041.754-.157 1.207-.015 1.35.414.177.571-.49 1.199-1.19 1.658z"/>
	<path d="M49.128 67.563c-3.638.75-3.888-.481-3.888-.481 3.841-5.7 5.446-12.932 4.061-14.7-3.78-4.83-10.323-2.546-10.432-2.486l-.035.006a13.012 13.012 0 0 0-2.427-.253 6 6 0 0 0-3.841 1.15s-11.666-4.81-11.129 6.045c.116 2.309 3.31 17.474 7.121 12.894a69.866 69.866 0 0 1 2.738-3.091 3.533 3.533 0 0 0 2.307.589l.065-.056a2.556 2.556 0 0 0 .026.652c-.981 1.1-.693 1.29-2.655 1.694-1.986.409-.819 1.137-.058 1.328a4.034 4.034 0 0 0 4.5-1.463l-.058.231c.385.308.655 2 .61 3.541a9.739 9.739 0 0 0 .227 3.417c.3.824.605 2.679 3.185 2.126 2.155-.462 3.272-1.659 3.428-3.656.11-1.419.359-1.209.375-2.478l.2-.6c.231-1.925.037-2.545 1.365-2.257l.323.029a7.361 7.361 0 0 0 3.007-.506c1.617-.751 2.575-2 .981-1.674z" fill="#316192"/>
	<path d="M33.25 57.87a1.13 1.13 0 0 0-.78.112.281.281 0 0 0-.119.193.56.56 0 0 0 .134.367 1.02 1.02 0 0 0 .648.4.839.839 0 0 0 .9-.536c.04-.286-.377-.479-.783-.536zm10.771-.127a1.069 1.069 0 0 0-.722-.1c-.379.054-.747.226-.716.452a.566.566 0 0 0 .261.329.81.81 0 0 0 .455.146.642.642 0 0 0 .1-.007.936.936 0 0 0 .595-.373.5.5 0 0 0 .119-.309.21.21 0 0 0-.092-.138z" fill="#fff"/>
	<path d="M50.358 67.471c-.143-.429-.6-.571-1.35-.414-2.187.449-2.964.144-3.222-.041 3.546-5.416 5.492-13.026 3.86-15.111-3.647-4.66-9.722-2.894-10.862-2.524a.393.393 0 0 0-.068.015v.004l-.067.023a10.02 10.02 0 0 0-2.26-.3h-.144a6.506 6.506 0 0 0-3.734 1.077c-1.081-.4-6.084-2.1-9.191.106-1.733 1.228-2.534 3.421-2.379 6.518.072 1.444 2.208 12.981 5.569 14.1a1.82 1.82 0 0 0 .571.094 2.375 2.375 0 0 0 1.813-1.026 63.077 63.077 0 0 1 2.477-2.8 4 4 0 0 0 1.749.486v.025c-.118.14-.223.269-.31.38-.427.542-.515.654-1.9.938-.4.082-1.457.3-1.473 1.051-.017.817 1.252 1.159 1.4 1.2a5.885 5.885 0 0 0 1.44.187 4.205 4.205 0 0 0 2.862-1.059 27.03 27.03 0 0 0 .439 6.5 3.3 3.3 0 0 0 3.156 2.433 5.062 5.062 0 0 0 1.06-.12c2.275-.487 3.262-1.493 3.646-3.71.2-1.173.549-3.973.715-5.489a4.5 4.5 0 0 0 1.258.155 7.62 7.62 0 0 0 2.906-.553c.824-.38 2.311-1.316 2.039-2.145zm-5.611-5.741a6.07 6.07 0 0 1-.247 3.382 4.564 4.564 0 0 1-.217-.448c-.06-.147-.212-.423-.414-.787-.78-1.4-2.609-4.679-1.678-6.009.472-.674 1.666-.71 2.717-.584a9.378 9.378 0 0 1-.118 1.256 11.915 11.915 0 0 0-.161 1.495 11.392 11.392 0 0 0 .118 1.695zm4.157-9.1c1.116 1.425-.122 7.911-3.678 13.522-.03-.038-.054-.074-.085-.113l-.041-.059a6.4 6.4 0 0 0 .584-4.363 10.564 10.564 0 0 1-.112-1.551 10.718 10.718 0 0 1 .151-1.383 8.58 8.58 0 0 0 .136-1.792.609.609 0 0 0 .02-.173 10.722 10.722 0 0 0-5.679-6.749c1.982-.413 6.052-.734 8.7 2.656zM28.17 69.391c-.713.856-1.2.693-1.362.641-2.441-.815-4.808-10.866-4.926-13.257-.138-2.754.528-4.673 1.981-5.7 2.356-1.672 6.216-.685 7.794-.172l-.046.042c-2.572 2.6-2.517 7.021-2.51 7.314 0 .095.008.254.021.464a18.3 18.3 0 0 1-.094 3.707 4.713 4.713 0 0 0 1.242 3.943 4.148 4.148 0 0 0 .319.276 64.453 64.453 0 0 0-2.419 2.742zm2.779-3.669a3.775 3.775 0 0 1-.989-3.161 19.23 19.23 0 0 0 .1-3.894 10.54 10.54 0 0 1-.015-.268 4.92 4.92 0 0 1 3.341-.969 1.333 1.333 0 0 1 1.034 1.162c.741 3.43.1 4.859-.419 6.008-.108.24-.21.468-.3.7l-.067.181a11.986 11.986 0 0 0-.42 1.26 3.192 3.192 0 0 1-2.265-1.019zm.121 4.63a2.037 2.037 0 0 1-.565-.237 3.243 3.243 0 0 1 .6-.174c1.639-.336 1.891-.575 2.444-1.278.123-.155.268-.339.467-.561.284-.318.407-.268.652-.167a.935.935 0 0 1 .458.591.653.653 0 0 1-.055.547 3.544 3.544 0 0 1-4.001 1.279zM39.6 78.3a2.421 2.421 0 0 1-3.145-1.741c-.3-.749-.445-4.134-.342-7.875 0-.015-.006-.028-.007-.043v-.019a.432.432 0 0 0-.023-.125 1.654 1.654 0 0 0-.041-.226 1.847 1.847 0 0 0-1-1.2 1.446 1.446 0 0 0-.888-.117 11.217 11.217 0 0 1 .378-1.142l.069-.182c.077-.209.171-.417.27-.637.543-1.206 1.288-2.86.48-6.593a2.4 2.4 0 0 0-2.861-1.935 6.984 6.984 0 0 0-2.394.8 9.418 9.418 0 0 1 2.2-5.652 5.356 5.356 0 0 1 3.964-1.533h.128a9.2 9.2 0 0 1 8.444 6.253c-1.7-.172-2.809.159-3.4 1-1.269 1.814.615 5.192 1.626 7.007.178.319.314.559.367.688a6.313 6.313 0 0 0 .992 1.6c.082.1.162.2.224.289-.491.145-1.4.519-1.327 2.168-.062.824-.54 4.814-.79 6.267-.332 1.843-1.013 2.533-2.924 2.948zm8.326-9.53a6.154 6.154 0 0 1-3.681.323c-.062-1.075.328-1.183.741-1.3.045-.012.108-.03.179-.056.037.03.078.059.122.089.733.484 2.031.54 3.861.169a5.115 5.115 0 0 1-1.225.77z" fill="#fff"/>
	<path d="M73.809 62.048a4.171 4.171 0 0 1-1.2 3.166 4.565 4.565 0 0 1-3.288 1.146H63.77l.014 6.374-1.509.023V57.773l7.465-.026a3.885 3.885 0 0 1 2.992 1.145 4.441 4.441 0 0 1 1.078 3.167m-1.523.054q0-3.153-3.019-3.153l-5.5-.024v6.239h5.214q3.3 0 3.3-3.072m12.454 5.726a4.8 4.8 0 0 1-5.336 5.255 6.487 6.487 0 0 1-2.237-.35 4.41 4.41 0 0 1-1.657-1.134 5.433 5.433 0 0 1-1.294-3.773 5.309 5.309 0 0 1 1.253-3.719 5.028 5.028 0 0 1 3.935-1.535 4.806 4.806 0 0 1 5.336 5.256m-1.307 0q0-4.191-4.029-4.191a3.513 3.513 0 0 0-3.625 2.439 5.522 5.522 0 0 0-.256 1.752 4.515 4.515 0 0 0 1 3.072 3.664 3.664 0 0 0 2.881 1.132 3.858 3.858 0 0 0 3.086-1.172 3.262 3.262 0 0 0 .714-1.281 6.071 6.071 0 0 0 .229-1.752m11.849 2.197q0 3.031-4.541 3.032a10.842 10.842 0 0 1-2.345-.215 3.678 3.678 0 0 1-1.536-.7 2.525 2.525 0 0 1-.728-.957 4.752 4.752 0 0 1-.35-1.5l1.4-.024a2.064 2.064 0 0 0 .741 1.752 4.443 4.443 0 0 0 2.817.673q3.18 0 3.18-1.9a1.52 1.52 0 0 0-1.065-1.522 24.421 24.421 0 0 0-2.574-.431 14.374 14.374 0 0 1-2.924-.62 2.163 2.163 0 0 1-1.253-2.139 2.514 2.514 0 0 1 1.119-2.25 4.659 4.659 0 0 1 1.374-.472 9.516 9.516 0 0 1 1.927-.175q4.367 0 4.366 3.275h-1.333q0-2.3-3.072-2.3a4.57 4.57 0 0 0-2.332.471 1.546 1.546 0 0 0-.768 1.429 1.353 1.353 0 0 0 1.038 1.293 17.1 17.1 0 0 0 2.789.485 8.6 8.6 0 0 1 2.682.593 2.245 2.245 0 0 1 1.388 2.2m6.112 2.751a6.242 6.242 0 0 1-.58.095 2.422 2.422 0 0 1-.35.026 3.27 3.27 0 0 1-1.981-.472 2.045 2.045 0 0 1-.606-1.685v-6.8H96.2v-1.015h1.657l.014-3.248h1.281v3.261l2.236-.023v1.024l-2.236-.024v6.616a1.318 1.318 0 0 0 .323 1.025 1.878 1.878 0 0 0 1.186.283 1.091 1.091 0 0 0 .269-.024c.1-.024.247-.05.445-.095l.014 1.025m10.478-.306q0 4.475-5.026 4.474a6.184 6.184 0 0 1-3.733-.863 3.428 3.428 0 0 1-1.172-2.385l1.32-.023a2.675 2.675 0 0 0 .836 1.67 4.457 4.457 0 0 0 2.708.634 3.882 3.882 0 0 0 2.9-.916 3.586 3.586 0 0 0 .889-2.6l-.014-1.752a4.5 4.5 0 0 1-4.11 1.9 5.051 5.051 0 0 1-3.733-1.32 4.406 4.406 0 0 1-.93-1.564 6.7 6.7 0 0 1-.309-2.115 4.907 4.907 0 0 1 1.253-3.625 5.063 5.063 0 0 1 3.827-1.374 4.965 4.965 0 0 1 2.789.714 8.932 8.932 0 0 1 1.213 1.307l.014-1.7h1.28v9.527m-1.28-4.905a3.952 3.952 0 0 0-.984-2.816 3.671 3.671 0 0 0-2.857-1.065 3.6 3.6 0 0 0-3.934 3.935q0 3.975 4.029 3.975a4.138 4.138 0 0 0 1.549-.27 3.524 3.524 0 0 0 1.2-.8 4.112 4.112 0 0 0 1-2.964m8.729-3.595a6 6 0 0 0-1.078-.109q-3.166 0-3.167 4.137l.015 4.784h-1.281l-.014-9.8 1.28-.023v1.765h.068a2.988 2.988 0 0 1 1.024-1.563 4.155 4.155 0 0 1 2.291-.512h.512a1.538 1.538 0 0 1 .35.023v1.297m10.549 4.18h-9.149a4.027 4.027 0 0 0 .93 2.749 3.865 3.865 0 0 0 3.085 1.24 3.3 3.3 0 0 0 3.558-2.547h1.388a4.363 4.363 0 0 1-1.469 2.452 4.79 4.79 0 0 1-1.55.809 5.926 5.926 0 0 1-1.913.3 5.181 5.181 0 0 1-4.029-1.563 5.293 5.293 0 0 1-1.321-3.786A5.059 5.059 0 0 1 120.775 64a5.2 5.2 0 0 1 3.867-1.388 6.359 6.359 0 0 1 2.331.391 4.006 4.006 0 0 1 1.671 1.172 5.826 5.826 0 0 1 1.226 3.925m-1.347-.889a3.535 3.535 0 0 0-1.092-2.534 3.7 3.7 0 0 0-2.789-1.118 4.358 4.358 0 0 0-1.577.27 3.478 3.478 0 0 0-1.253.8 4.7 4.7 0 0 0-1.091 2.587h7.8" fill="#1a1a1a"/>
	<path d="M146.629 68.765q0 5.277-7.106 5.277-4.257 0-6.215-1.813a5.9 5.9 0 0 1-1.6-4.532h1.91q0 4.9 5.908 4.9a6.538 6.538 0 0 0 4.095-1.019 3.373 3.373 0 0 0 1.069-2.768 2.727 2.727 0 0 0-1.457-2.639 21.083 21.083 0 0 0-4.031-1.019 17.79 17.79 0 0 1-5.228-1.473 3.977 3.977 0 0 1-1.732-3.658 4.3 4.3 0 0 1 1.473-3.593q1.587-1.3 5.439-1.3 6.96 0 6.96 5.519h-1.926q0-4.126-5.164-4.127a6.8 6.8 0 0 0-3.787.825 3.114 3.114 0 0 0-1.137 2.615 2.62 2.62 0 0 0 1.457 2.541 23.189 23.189 0 0 0 4.564 1.166 13.968 13.968 0 0 1 4.807 1.489 3.9 3.9 0 0 1 1.7 3.609m18.915 5.228-1.165 1.263-2.816-2.347a6.87 6.87 0 0 1-2.169.857 13.618 13.618 0 0 1-3 .292 9.23 9.23 0 0 1-6.927-2.606 9.5 9.5 0 0 1-2.525-6.879 9.445 9.445 0 0 1 2.508-6.912 9.24 9.24 0 0 1 6.912-2.557 11.156 11.156 0 0 1 4.03.68 7.7 7.7 0 0 1 3.011 2.072 9.515 9.515 0 0 1 2.331 6.717 11.2 11.2 0 0 1-.713 4.143 7.539 7.539 0 0 1-2.2 3.027l2.719 2.25m-1.635-9.42a9.976 9.976 0 0 0-.5-3.286 6.779 6.779 0 0 0-1.554-2.541 6.976 6.976 0 0 0-5.471-2.218 7.4 7.4 0 0 0-5.519 2.121 8.113 8.113 0 0 0-2.072 5.924 8.161 8.161 0 0 0 2.088 5.859 7.293 7.293 0 0 0 5.5 2.185 8.3 8.3 0 0 0 3.011-.518 7.229 7.229 0 0 0 2.411-1.538 8.3 8.3 0 0 0 2.1-5.988m16.086 8.999-13.03.024v-18l1.8-.033v16.51H180l-.017 1.5" fill="#316192"/>
</svg>
