<svg xmlns="http://www.w3.org/2000/svg" width="200" height="128">
    <path fill="#ff6c37" d="M89.86 70.06V57.81a.52.52 0 010-.21.7.7 0 01.13-.17.66.66 0 01.45-.15h3.44a4.07 4.07 0 012.8.94 3.85 3.85 0 011 3v.17a3.82 3.82 0 01-1.08 3 4.15 4.15 0 01-2.85 1h-2.36v4.73a.46.46 0 01-.23.4 1 1 0 01-.54.15 1 1 0 01-.54-.15.37.37 0 01-.16-.17.46.46 0 01-.06-.29zm1.53-6h2.46a2.41 2.41 0 001-.14 2.35 2.35 0 00.82-.51 2.63 2.63 0 00.62-1.94v-.22a2.64 2.64 0 00-.62-1.94 2.51 2.51 0 00-.82-.51 2.41 2.41 0 00-1-.14H91.4zm11.72 2.68v-5.49a3.88 3.88 0 011.06-3 4.77 4.77 0 012.86-.95 4.72 4.72 0 012.85.95 3.85 3.85 0 011.08 3v5.49a3.85 3.85 0 01-1.08 3 4.73 4.73 0 01-5.71 0 3.86 3.86 0 01-1.06-3zm1.53 0c0 1.73.79 2.59 2.38 2.59a2.43 2.43 0 001-.13 2.39 2.39 0 00.81-.52 2.68 2.68 0 00.63-1.94v-5.49a2.56 2.56 0 00-.12-1 2.64 2.64 0 00-.51-.91 2.32 2.32 0 00-.82-.51 2.36 2.36 0 00-1-.14c-1.59 0-2.38.87-2.38 2.59zm11.72 1.99a.94.94 0 01.21-.56.69.69 0 01.19-.19.62.62 0 01.26-.09.73.73 0 01.41.23l.53.51a2.29 2.29 0 00.86.51 3.58 3.58 0 001.33.23 2.78 2.78 0 001.85-.56 2.13 2.13 0 00.53-.77 2.07 2.07 0 00.15-.92 2.13 2.13 0 00-.15-.87 2 2 0 00-.47-.75 4.06 4.06 0 00-1.49-1c-.59-.22-1.17-.44-1.78-.7a3.85 3.85 0 01-1.5-1.15 3.11 3.11 0 01-.62-2A3.73 3.73 0 01117 59a2.59 2.59 0 011-1.08 4.91 4.91 0 011.27-.54 5.87 5.87 0 011.39-.16 7.15 7.15 0 012.16.32c.69.23 1 .53 1 .89a1 1 0 01-.18.54.53.53 0 01-.2.22.54.54 0 01-.28.08 6.89 6.89 0 01-.81-.33 4.05 4.05 0 00-1.69-.34 3.2 3.2 0 00-1.78.45 1.51 1.51 0 00-.52.63 1.63 1.63 0 00-.15.81 1.8 1.8 0 00.14.76 1.54 1.54 0 00.46.61 4.6 4.6 0 001.5.83c.59.21 1.18.45 1.78.71a3.76 3.76 0 011.48 1.29 3.89 3.89 0 01.62 2.25 3.58 3.58 0 01-1.1 2.84 4.21 4.21 0 01-2.88 1 5.16 5.16 0 01-2.74-.69c-.74-.47-1.11-.92-1.11-1.36zM128.77 58a.8.8 0 01.15-.47.44.44 0 01.17-.16.45.45 0 01.23 0h7.4a.45.45 0 01.23 0 .44.44 0 01.17.16.8.8 0 01.15.47.89.89 0 01-.15.5.44.44 0 01-.4.21h-2.92v11.4a.37.37 0 01-.05.23.46.46 0 01-.17.17 1 1 0 01-1.08 0 .46.46 0 01-.23-.4V58.66h-2.94a.45.45 0 01-.23 0 .44.44 0 01-.17-.16.93.93 0 01-.16-.5zm13.67 12.06v-12a.72.72 0 01.12-.5.66.66 0 01.42-.27h.24c.49 0 .89.32 1.23 1l2.85 5.49 2.87-5.49c.37-.65.77-1 1.22-1a.62.62 0 01.49.12.66.66 0 01.27.42.61.61 0 010 .19V70a.46.46 0 01-.23.4 1.11 1.11 0 01-.54.14 1.14 1.14 0 01-.54-.14.44.44 0 01-.16-.17.46.46 0 01-.06-.23v-9.52l-2.75 5.18a.62.62 0 01-.23.32.69.69 0 01-.37.13.64.64 0 01-.35-.14.62.62 0 01-.21-.31L144 60.39v9.67a.46.46 0 01-.06.23.4.4 0 01-.17.17 1 1 0 01-.52.17 1 1 0 01-.53-.15.52.52 0 01-.19-.17.54.54 0 01-.09-.25zm14.94-.06a.42.42 0 010-.15l3.72-12c.1-.36.41-.55.93-.55s.82.18.92.55l3.74 12.07V70a.51.51 0 01-.09.26.46.46 0 01-.21.18 1.2 1.2 0 01-.66.18.52.52 0 01-.33-.07.5.5 0 01-.21-.27l-.81-2.67h-4.77l-.81 2.67a.53.53 0 01-.21.28.5.5 0 01-.34.07 1.24 1.24 0 01-.62-.18.58.58 0 01-.21-.2.57.57 0 01-.04-.25zm2.62-3.68h4.09l-2.05-6.81zm12 3.74V57.81c0-.35.25-.54.76-.54a1 1 0 01.65.22 2.45 2.45 0 01.51.74l4.54 8.9V57.8a.46.46 0 01.06-.23.44.44 0 01.16-.17 1.16 1.16 0 01.54-.13 1.11 1.11 0 01.54.13.46.46 0 01.23.4v12.26a.46.46 0 01-.23.4 1 1 0 01-1.12-.06 1.09 1.09 0 01-.38-.49l-4.72-9.17v9.32a.46.46 0 01-.23.4 1 1 0 01-.54.15 1 1 0 01-.54-.15.46.46 0 01-.23-.4zM72.48 46.09a29.29 29.29 0 105.87 21.64 29.3 29.3 0 00-5.87-21.64zm-13.62 7.07a2.14 2.14 0 00-1.3.61L46.74 64.59l-2.21-2.21C54.86 52.08 57 51.7 58.86 53.16zM47.29 65.09l10.79-10.8a1.56 1.56 0 01.2-.16h.06l.17-.09h.07l.24-.07h.29a.78.78 0 01.22 0h.06a1.41 1.41 0 01.73.39 1.43 1.43 0 01.38.73v.58a.35.35 0 000 .11 1.21 1.21 0 010 .14.47.47 0 010 .1.77.77 0 01-.1.18l-.05.07a.77.77 0 01-.18.18l-11.42 10zm.54 1.65l-2.54.55 1.52-1.53zm-6.61-1L44 62.9l2 2-4.69 1a.11.11 0 01-.08 0 .12.12 0 010-.05.11.11 0 010-.08.13.13 0 01-.01-.06zm-9 14.67a.08.08 0 01-.06 0 .21.21 0 010-.06v-.06l2.25-2.26 2.8 2.79zm5.87-3.06a.62.62 0 00-.32.7l.49 2.12a.2.2 0 010 .15.24.24 0 01-.1.1.2.2 0 01-.15 0 .22.22 0 01-.13-.06l-2.94-3 9.1-9.11 4.39-.94 2 2a59.68 59.68 0 01-12.3 8.01zm12.92-8.41L49.1 67l11.43-10 .13-.13c-.52 3.13-4.8 7.48-9.61 12.04zm12-14.45a4.41 4.41 0 01-1.82-.49 4.54 4.54 0 01-1.5-1.22 4.47 4.47 0 01-.82-1.78 4.35 4.35 0 01.86-3.68 4.21 4.21 0 011.51-1.2 4.4 4.4 0 014.64.53L62 50.57a.25.25 0 00-.08.12.32.32 0 000 .14.35.35 0 000 .14.42.42 0 00.08.12l3 3a4.4 4.4 0 01-1.92.37zm3.13-1.29a3.93 3.93 0 01-.58.5l-2.86-2.85 3.64-3.63a4.43 4.43 0 011.08 3 4.38 4.38 0 01-1.21 2.95z"/>
    <path fill="#ff6c37" d="M66.51 49.55a.25.25 0 00-.07-.12.28.28 0 00-.11-.08.4.4 0 00-.15 0h-.14a.31.31 0 00-.11.09.54.54 0 00-.07.13.33.33 0 000 .14.24.24 0 000 .14 1 1 0 01.1.57 1 1 0 01-.23.53.36.36 0 00-.07.17.31.31 0 000 .19.28.28 0 00.12.14.32.32 0 00.18.06h.15a.31.31 0 00.11-.09 1.7 1.7 0 00.38-.88 1.66 1.66 0 00-.09-.99z"/>
</svg>
