<svg xmlns="http://www.w3.org/2000/svg" width="200" height="128">
	<g fill="#e27f04">
		<circle cx="151.322" cy="58.392" r="4.939"/>
		<circle cx="163.191" cy="58.392" r="4.939"/>
		<circle cx="175.061" cy="58.392" r="4.939"/>
		<circle cx="151.322" cy="69.608" r="4.939"/>
		<circle cx="163.191" cy="69.608" r="4.939"/>
		<circle cx="175.061" cy="69.608" r="4.939"/>
	</g>
	<path d="M20 54.029h6c3.577 0 6.651 1.58 6.651 6.563 0 4.832-3.124 6.929-6.55 6.929h-1.452v6.26H20zm5.9 9.359c1.393 0 1.992-1.139 1.992-2.9s-.842-2.537-2.093-2.537h-1.15v5.438zm8.641.521c0-6.5 2.965-10.15 7.34-10.15s7.341 3.677 7.341 10.15c0 6.5-2.965 10.332-7.341 10.332s-7.34-3.829-7.34-10.332zm9.77 0c0-3.586-1.01-5.547-2.43-5.547-1.4 0-2.429 1.961-2.429 5.547s.964 5.729 2.429 5.729c1.483 0 2.43-2.138 2.43-5.729zm27.637-9.881-4.1 19.753h-4.88s-1.677-10.792-1.836-12.059c-.158 1.267-1.835 12.059-1.835 12.059h-4.88l-4.1-19.753h4.707l1.87 12.931c.321-2.066 2.3-12.931 2.3-12.931h3.875s1.984 10.865 2.3 12.931l1.87-12.931zm6.774 15.377V65.88h4.415V61.5h-4.415v-3.1h4.446s-.04-3.208-.023-4.376h-9.131v19.757h9.4v-4.376zm16.709-3.919a5.394 5.394 0 0 0 3.254-5.076c0-4.923-3.34-6.382-6.742-6.382h-5.768v19.753h4.813v-7.627h.666l3.133 7.63h4.561zm-4.443-7.324a2.435 2.435 0 0 1 2.663 2.67c0 3.073-2.663 2.613-2.663 2.613zm10.848-4.25 4.836.089c4.986.093 8.36 2.952 8.23 9.94s-3.61 9.9-8.345 9.814l-5.088-.095zm4.822 15.324c1.806.034 3.284-1.354 3.284-5.378 0-2.151-.7-5.1-3.073-5.141h-.252l-.211 10.52zm19.786-15.208-.106 11.224-4.2-11.094v-.012l-.009-.022-.025-.066-.012-.03h-4.482v19.753h4.7l.105-10.62 4.152 10.62h4.472V54.028zm7.172 19.442.179-6.167c1.082 1.468 2.187 2.339 3.353 2.339.8 0 1.607-.474 1.607-1.24 0-.547.047-1.095-1.454-2.306-1.973-1.591-3.664-3.282-3.664-6.327a5.734 5.734 0 0 1 6.04-5.962 4.617 4.617 0 0 1 3.717 1.479l-.068 5.339c-.81-1.288-1.8-2.383-3.073-2.383-.874 0-1.615.446-1.615 1.327 0 .942.749 1.572 2.3 2.752 1.943 1.477 2.733 2.563 2.733 5.531 0 3.342-2.093 6.32-6.031 6.32a10.8 10.8 0 0 1-4.024-.702z" fill="#666"/>
</svg>
