<svg version="1.1" id="Layer_1" xmlns="http://www.w3.org/2000/svg" x="0" y="0" viewBox="0 0 500 138.1" style="enable-background:new 0 0 500 138.1" xml:space="preserve">
	<style>
		.st2{fill:#274a7d}.st3{fill:#fff}
	</style>
	<switch>
		<g>
			<path d="M176.6 0H36.9c-4.1 0-7.6 2.8-8.6 6.8L.3 129c-1.1 4.6 2.5 9 7.2 9h139.7c4.1 0 7.6-2.8 8.6-6.8L183.8 9c1-4.6-2.5-9-7.2-9z" style="fill:#a8bed0"/>
			<linearGradient id="SVGID_1_" gradientUnits="userSpaceOnUse" x1="17.226" y1="29.779" x2="175.976" y2="113.104">
				<stop offset="0" style="stop-color:#2c4563"/>
				<stop offset="1" style="stop-color:#000"/>
			</linearGradient>
			<path d="M7.5 135.8c-1.6 0-3-.7-4-1.9s-1.3-2.8-1-4.3L30.6 7.3c.7-3 3.3-5 6.3-5h139.7c1.6 0 3 .7 4 1.9s1.3 2.8 1 4.3l-28.1 122.2c-.7 3-3.3 5-6.3 5H7.5z" style="fill:url(#SVGID_1_)"/>
			<path class="st2" d="M45.2 122.1c-2.5 0-5-1.2-6.6-3.4a7.94 7.94 0 0 1 1.9-11.2l54.8-39.2-34.6-38.4c-3-3.3-2.7-8.4.6-11.4 3.3-3 8.4-2.7 11.4.6l40.7 45c1.5 1.7 2.3 4 2 6.3-.2 2.3-1.5 4.3-3.3 5.7L50 120.6c-1.5 1-3.1 1.5-4.8 1.5z"/>
			<path class="st2" d="M125.8 122.1H92.5c-4.4 0-8.1-3.6-8.1-8.1 0-4.4 3.6-8.1 8.1-8.1h33.2c4.4 0 8.1 3.6 8.1 8.1s-3.6 8.1-8 8.1z"/>
			<path class="st3" d="M42.9 119.8c-2.5 0-5-1.2-6.6-3.4a7.94 7.94 0 0 1 1.9-11.2L93 65.9 58.4 27.6c-3-3.3-2.7-8.4.6-11.4 3.3-3 8.4-2.7 11.4.6l40.7 45c1.5 1.7 2.3 4 2 6.3-.2 2.3-1.5 4.3-3.3 5.7l-62.1 44.5c-1.5 1-3.2 1.5-4.8 1.5z"/>
			<path class="st3" d="M123.5 119.8H90.2c-4.4 0-8.1-3.6-8.1-8.1 0-4.4 3.6-8.1 8.1-8.1h33.2c4.4 0 8.1 3.6 8.1 8.1s-3.6 8.1-8 8.1z"/>
			<path d="M196.7 48.6c2.9-.5 6.8-.9 12.2-.9 5.8 0 10.1 1.2 12.9 3.6 2.6 2.1 4.3 5.6 4.3 9.7s-1.3 7.6-3.8 9.9c-3.2 3.2-8.2 4.7-13.8 4.7-1.5 0-2.9-.1-3.9-.3v16.5h-7.9V48.6zm7.9 20.3c1 .3 2.3.3 3.9.3 6 0 9.6-2.9 9.6-8 0-4.9-3.4-7.5-8.9-7.5-2.2 0-3.8.2-4.6.4v14.8z"/>
			<path d="M261 75.6c0 11.6-8.2 16.8-16.2 16.8-8.9 0-15.8-6.2-15.8-16.3 0-10.4 6.8-16.7 16.3-16.7 9.4 0 15.7 6.6 15.7 16.2zm-23.8.3c0 6.1 3 10.7 7.8 10.7 4.5 0 7.7-4.5 7.7-10.8 0-4.9-2.2-10.6-7.7-10.6s-7.8 5.5-7.8 10.7z"/>
			<path d="m271.8 60.1 3.3 14.3c.7 3.4 1.4 6.8 2 10.2h.1c.6-3.4 1.7-6.9 2.6-10.2l4.1-14.4h6.5l4 14c1 3.7 1.8 7.1 2.5 10.6h.1c.5-3.4 1.2-6.9 2.1-10.6l3.5-14h7.8l-9.9 31.6h-7.4l-3.8-12.8c-1-3.3-1.7-6.3-2.4-10.1h-.1c-.6 3.9-1.5 7-2.4 10.1l-4 12.8H273L263.7 60h8.1z"/>
			<path d="M320.4 78.1c.2 5.7 4.7 8.2 9.7 8.2 3.7 0 6.4-.5 8.8-1.4l1.2 5.5c-2.7 1.1-6.5 1.9-11 1.9-10.2 0-16.3-6.3-16.3-15.9 0-8.8 5.3-17 15.4-17 10.2 0 13.6 8.4 13.6 15.4 0 1.5-.1 2.7-.3 3.4h-21.1zm13.9-5.5c.1-2.9-1.2-7.7-6.5-7.7-4.9 0-7 4.5-7.3 7.7h13.8z"/>
			<path d="M348.2 70.3c0-4.3-.1-7.3-.3-10.2h6.9l.3 6h.3c1.6-4.5 5.3-6.7 8.6-6.7.8 0 1.2.1 1.9.2v7.5c-.6-.1-1.4-.3-2.3-.3-3.8 0-6.4 2.5-7.1 6-.1.7-.3 1.6-.3 2.5v16.3h-8V70.3z"/>
			<path d="M371.5 83c2.6 1.5 6.5 2.8 10.6 2.8 5.1 0 8-2.4 8-6 0-3.3-2.2-5.3-7.8-7.3-7.2-2.6-11.8-6.4-11.8-12.7 0-7.1 6-12.6 15.4-12.6 4.7 0 8.2 1 10.5 2.2l-1.9 6.4c-1.6-.8-4.6-2.1-8.7-2.1-5.1 0-7.3 2.7-7.3 5.3 0 3.4 2.5 4.9 8.4 7.2 7.6 2.9 11.3 6.7 11.3 13 0 7-5.3 13.1-16.6 13.1-4.6 0-9.4-1.3-11.8-2.7l1.7-6.6z"/>
			<path d="M404.8 45.7h8v18.8h.1c1-1.5 2.3-2.7 4-3.6 1.6-.9 3.4-1.4 5.4-1.4 5.4 0 11 3.6 11 13.7v18.6h-8V74c0-4.6-1.7-8-6.1-8-3.1 0-5.3 2.1-6.2 4.5-.3.6-.3 1.5-.3 2.4v18.9h-8V45.7z"/>
			<path d="M447.5 78.1c.2 5.7 4.7 8.2 9.7 8.2 3.7 0 6.4-.5 8.8-1.4l1.2 5.5c-2.7 1.1-6.5 1.9-11 1.9-10.2 0-16.3-6.3-16.3-15.9 0-8.8 5.3-17 15.4-17 10.2 0 13.6 8.4 13.6 15.4 0 1.5-.1 2.7-.3 3.4h-21.1zm13.9-5.5c.1-2.9-1.2-7.7-6.5-7.7-4.9 0-7 4.5-7.3 7.7h13.8z"/>
			<path d="M475.4 45.7h8v46h-8v-46z"/>
			<path d="M492 45.7h8v46h-8v-46z"/>
		</g>
	</switch>
</svg>
