<svg id="Layer_1" data-name="Layer 1" xmlns="http://www.w3.org/2000/svg" viewBox="0 0 363.906 156.279">
	<defs>
		<style>
			.cls-1{fill:#1e89c6}.cls-2{fill:#4d4d4f}
		</style>
	</defs>
	<path class="cls-1" d="M354.598 93.392a69.749 69.749 0 0 1-9.614 12.686c-9.548 9.557-21.026 12.961-34.256 10.915-.935-.145-1.87-.293-2.807-.427-.089-.013-.191.067-.482.179 4.09 4.428 9.305 5.948 15.259 6.338a6.737 6.737 0 0 1-3.038 1.373c-13.152 4.433-26.3-3.273-28.524-16.694-.735-4.432-.661-4.503 3.614-3.42a80.252 80.252 0 0 0 18.89 2.597 61.523 61.523 0 0 0 39.4-13.108c.498-.385 1.038-.716 1.558-1.072Z"/>
	<path class="cls-1" d="M285.426 73.107a72.464 72.464 0 0 0 17.798-4.342 78.289 78.289 0 0 0 25.704-15.483 38.492 38.492 0 0 0 7.98-10.14 9.718 9.718 0 0 1 1.086-1.733 23.516 23.516 0 0 1-.419 6.499 44.42 44.42 0 0 1-6.505 18.49c-4.544 7.024-11.092 11.585-18.583 14.942-8.004 3.587-16.487 5.824-24.749 8.687-5.623 1.948-10.332 5.05-13.08 10.515-3.6 7.16-2.823 14.21.968 21.02a23.884 23.884 0 0 0 11.692 10.449 2.328 2.328 0 0 1 1.395.919 22.248 22.248 0 0 1-6.643-2.232c-7.103-3.468-12.316-8.976-16.34-15.628-5.72-9.454-9.234-19.641-9.19-30.807a26.12 26.12 0 0 1 7.313-18.03c4.98-5.417 11.143-9.14 17.631-12.367 8.398-4.177 17.175-7.553 25.473-11.948 6.717-3.558 13.294-7.317 18.911-12.546 6.127-5.703 10.222-12.41 10.668-20.988.03-.579.013-1.219.803-1.331.944-.135 1.128.567 1.316 1.246a35.014 35.014 0 0 1-1.831 24.535c-3.799 8.366-9.92 14.827-17.038 20.444-9.46 7.465-20.003 13.072-30.92 18.039-1.055.48-2.112.953-3.166 1.433-.04.018-.062.078-.274.357Z"/>
	<path class="cls-1" d="M252.453 78.887a21.476 21.476 0 0 0-5.387-7.12 20.242 20.242 0 0 0-10.827-5.143 8.181 8.181 0 0 0-5.882 1.338c-1.17.81-1.582.304-1.867-.744a3.167 3.167 0 0 1 1.585-3.638c2.718-1.865 5.881-2.517 9.029-3.187 1.037-.22 2.135-.3 2.343-1.679.063-.414.278-.858-.155-1.155-.41-.28-.816-.04-1.169.2-1.13.773-2.237 1.582-3.384 2.328-.525.341-1.198.752-1.763.353-.607-.428-.261-1.169-.105-1.761a9.037 9.037 0 0 1 6.603-6.601c3.816-1.167 7.724-.922 11.61-.638a90.98 90.98 0 0 1 11.535 1.876 2.38 2.38 0 0 0 2.093-.292c5.47-4.058 11.587-7.104 17.195-10.95 5.623-3.858 11.124-7.846 15.033-13.588a18.508 18.508 0 0 0 3.002-6.984 2.177 2.177 0 0 1 .402 1.956c-.463 7.184-3.99 12.724-9.273 17.347-6.35 5.555-13.816 9.448-20.8 14.061-4.84 3.199-9.595 6.506-13.359 11.022a26.083 26.083 0 0 0-5.762 11.46c-.086.41-.202.814-.326 1.214-.024.081-.145.132-.37.325Z"/>
	<path class="cls-1" d="M317.377 128a21.646 21.646 0 0 1-8.173 3.134c-7.71 1.394-15.14.735-21.925-3.54-5.578-3.516-8.808-8.59-9.158-15.216a19.262 19.262 0 0 1 4.437-13.348 27.905 27.905 0 0 1 16.027-9.762 3.465 3.465 0 0 1-1.422 1.42c-4.496 3.508-8.247 7.578-9.574 13.33-1.734 7.516.851 13.61 6.6 18.404 5.482 4.572 11.973 6.18 19.02 5.795 1.39-.076 2.779-.144 4.168-.216Z"/>
	<path class="cls-2" d="M52.103 70.23q8.544 0 12.885 3.74 4.34 3.74 4.341 10.672a14.165 14.165 0 0 1-1.201 5.867 13.208 13.208 0 0 1-3.431 4.615 15.958 15.958 0 0 1-5.422 3.02 22.3 22.3 0 0 1-7.172 1.081h-9.025v19.56h-3.534V70.23Zm0 26.182a17.197 17.197 0 0 0 5.73-.893 12.686 12.686 0 0 0 4.307-2.47 10.75 10.75 0 0 0 2.711-3.723 11.5 11.5 0 0 0 .944-4.684q0-5.593-3.432-8.613-3.431-3.02-10.26-3.02h-9.025v23.403Z"/>
	<path class="cls-2" d="M78.32 92.877a21.265 21.265 0 0 1 1.801-3.723 11.783 11.783 0 0 1 2.333-2.762 9.598 9.598 0 0 1 2.951-1.733 10.427 10.427 0 0 1 3.62-.601 11.57 11.57 0 0 1 2.094.19 5.306 5.306 0 0 1 1.818.668l-.274 2.265a.662.662 0 0 1-.652.549 5.088 5.088 0 0 1-1.253-.24 8.337 8.337 0 0 0-2.213-.24 9.581 9.581 0 0 0-3.517.6 8.11 8.11 0 0 0-2.745 1.802 11.538 11.538 0 0 0-2.128 2.968 27.991 27.991 0 0 0-1.664 4.066v22.099h-3.294V84.642h1.75a1.144 1.144 0 0 1 .823.24 1.386 1.386 0 0 1 .309.823Z"/>
	<path class="cls-2" d="M96.06 89.48a19.835 19.835 0 0 1 5.627-4.049 15.686 15.686 0 0 1 6.691-1.373 12.214 12.214 0 0 1 4.804.875 8.887 8.887 0 0 1 3.415 2.506 10.956 10.956 0 0 1 2.041 3.945 18.158 18.158 0 0 1 .687 5.165v22.236h-1.305a1.175 1.175 0 0 1-1.27-.961l-.48-4.393a35.641 35.641 0 0 1-2.796 2.47 16.756 16.756 0 0 1-2.9 1.854 14.955 14.955 0 0 1-3.26 1.167 16.79 16.79 0 0 1-3.843.411 11.304 11.304 0 0 1-3.397-.514 8.56 8.56 0 0 1-2.934-1.578 7.643 7.643 0 0 1-2.059-2.729 9.438 9.438 0 0 1-.772-3.997 7.098 7.098 0 0 1 1.235-4.015 10.121 10.121 0 0 1 3.878-3.225 25.74 25.74 0 0 1 6.777-2.197 58.836 58.836 0 0 1 9.934-.96v-3.569q0-4.736-2.042-7.292a7.286 7.286 0 0 0-6.056-2.556 11.422 11.422 0 0 0-4.204.686 14.927 14.927 0 0 0-2.934 1.51 18.479 18.479 0 0 0-1.955 1.51 2.118 2.118 0 0 1-1.27.686 1.036 1.036 0 0 1-.617-.172 1.53 1.53 0 0 1-.412-.446Zm20.073 12.8a64.208 64.208 0 0 0-8.39.771 24.216 24.216 0 0 0-5.799 1.63 8.66 8.66 0 0 0-3.38 2.454 5.166 5.166 0 0 0-1.098 3.242 7.158 7.158 0 0 0 .566 2.97 5.79 5.79 0 0 0 1.51 2.058 5.999 5.999 0 0 0 2.18 1.183 8.75 8.75 0 0 0 2.573.378 14.577 14.577 0 0 0 3.654-.43 13.515 13.515 0 0 0 3.088-1.2 15.096 15.096 0 0 0 2.66-1.836q1.235-1.063 2.436-2.298Z"/>
	<path class="cls-2" d="m155.389 84.642-14.413 34.143h-2.882l-14.412-34.143h2.573a1.196 1.196 0 0 1 .79.257 1.267 1.267 0 0 1 .411.566l11.29 26.937a25.285 25.285 0 0 1 .823 2.985 21.832 21.832 0 0 1 .858-2.985l11.324-26.937a1.551 1.551 0 0 1 .463-.6 1.126 1.126 0 0 1 .704-.223Z"/>
	<path class="cls-2" d="M161.016 100.358v.652a23.147 23.147 0 0 0 .893 6.76 13.848 13.848 0 0 0 2.539 4.89 10.467 10.467 0 0 0 3.98 2.967 13.16 13.16 0 0 0 5.216.995 15.63 15.63 0 0 0 4.46-.565 16.619 16.619 0 0 0 3.175-1.27 17.255 17.255 0 0 0 2.041-1.27 2.32 2.32 0 0 1 1.098-.565.788.788 0 0 1 .687.342l.893 1.098a9.292 9.292 0 0 1-2.18 1.922 15.558 15.558 0 0 1-3.02 1.527 21.985 21.985 0 0 1-3.568 1.012 19.613 19.613 0 0 1-3.826.378 16.227 16.227 0 0 1-6.383-1.219 13.518 13.518 0 0 1-4.941-3.55 16.161 16.161 0 0 1-3.174-5.715 24.659 24.659 0 0 1-1.115-7.737 21.087 21.087 0 0 1 1.046-6.777 15.527 15.527 0 0 1 3.02-5.354 13.767 13.767 0 0 1 4.838-3.516 15.89 15.89 0 0 1 6.503-1.27 14.184 14.184 0 0 1 5.353.995 12.122 12.122 0 0 1 4.289 2.9 13.631 13.631 0 0 1 2.865 4.683 18.048 18.048 0 0 1 1.047 6.383 1.828 1.828 0 0 1-.205 1.03.805.805 0 0 1-.688.274Zm22.785-2.093a14.717 14.717 0 0 0-.772-4.925 10.468 10.468 0 0 0-2.179-3.688 9.52 9.52 0 0 0-3.346-2.317 11.028 11.028 0 0 0-4.272-.806 12.83 12.83 0 0 0-4.735.824 10.354 10.354 0 0 0-3.62 2.367 11.823 11.823 0 0 0-2.454 3.706 17.252 17.252 0 0 0-1.235 4.839Z"/>
	<path class="cls-2" d="M221.41 86.152v1.132q0 .755-.962.926l-5.216.378a10 10 0 0 1 1.476 2.916 11.442 11.442 0 0 1 .515 3.5 11.082 11.082 0 0 1-.875 4.479 9.763 9.763 0 0 1-2.471 3.431 11.322 11.322 0 0 1-3.843 2.213 14.88 14.88 0 0 1-4.959.79 15.17 15.17 0 0 1-5.318-.892 7.4 7.4 0 0 0-2.283 1.938 3.674 3.674 0 0 0-.84 2.213 2.662 2.662 0 0 0 1.047 2.265 6.875 6.875 0 0 0 2.745 1.15 24.329 24.329 0 0 0 3.878.463q2.178.103 4.443.223 2.265.121 4.444.43a14.101 14.101 0 0 1 3.877 1.08 6.986 6.986 0 0 1 2.745 2.162 5.985 5.985 0 0 1 1.047 3.688 8.445 8.445 0 0 1-1.063 4.084 10.834 10.834 0 0 1-3.072 3.466 16.241 16.241 0 0 1-4.855 2.419 20.958 20.958 0 0 1-6.383.909 24.189 24.189 0 0 1-6.313-.737 15.03 15.03 0 0 1-4.547-1.99 8.74 8.74 0 0 1-2.763-2.9 7.039 7.039 0 0 1-.926-3.5 6.622 6.622 0 0 1 1.785-4.65 11.891 11.891 0 0 1 4.872-3.036 6.619 6.619 0 0 1-2.762-1.7 4.255 4.255 0 0 1-1.047-3.036 4.588 4.588 0 0 1 .274-1.51 6.224 6.224 0 0 1 .824-1.561 8.387 8.387 0 0 1 1.339-1.46 10.243 10.243 0 0 1 1.784-1.234 10.156 10.156 0 0 1-3.792-3.74 10.668 10.668 0 0 1-1.356-5.457 11.097 11.097 0 0 1 .875-4.477 9.846 9.846 0 0 1 2.489-3.449 11.365 11.365 0 0 1 3.86-2.23 16.131 16.131 0 0 1 9.162-.24 12.42 12.42 0 0 1 3.414 1.544Zm-3.57 34.931a3.837 3.837 0 0 0-.84-2.59 5.566 5.566 0 0 0-2.248-1.527 13.374 13.374 0 0 0-3.242-.772q-1.837-.223-3.844-.326l-4.031-.206a31.742 31.742 0 0 1-3.81-.412 15.562 15.562 0 0 0-2.401 1.184 8.674 8.674 0 0 0-1.888 1.527 6.783 6.783 0 0 0-1.235 1.87 5.489 5.489 0 0 0 .326 4.976 6.827 6.827 0 0 0 2.265 2.23 12.641 12.641 0 0 0 3.654 1.493 20.298 20.298 0 0 0 4.975.549 19.292 19.292 0 0 0 4.856-.583 13.565 13.565 0 0 0 3.912-1.648 8.394 8.394 0 0 0 2.607-2.539 5.87 5.87 0 0 0 .945-3.226Zm-12.765-17.397a11.212 11.212 0 0 0 3.912-.635 8.122 8.122 0 0 0 2.883-1.766 7.575 7.575 0 0 0 1.784-2.711 9.52 9.52 0 0 0 .617-3.5 9.422 9.422 0 0 0-.634-3.518 7.615 7.615 0 0 0-1.819-2.727 8.111 8.111 0 0 0-2.883-1.75 12.363 12.363 0 0 0-7.72 0 8.116 8.116 0 0 0-2.882 1.75 7.44 7.44 0 0 0-1.802 2.727 9.66 9.66 0 0 0-.617 3.518 9.52 9.52 0 0 0 .617 3.5 7.465 7.465 0 0 0 1.802 2.71 8.32 8.32 0 0 0 2.882 1.767 10.964 10.964 0 0 0 3.86.635Z"/>
	<path class="cls-2" d="M226.282 89.48a19.833 19.833 0 0 1 5.627-4.049 15.69 15.69 0 0 1 6.692-1.373 12.219 12.219 0 0 1 4.804.875 8.89 8.89 0 0 1 3.414 2.506 10.957 10.957 0 0 1 2.042 3.945 18.176 18.176 0 0 1 .686 5.165v22.236h-1.304a1.175 1.175 0 0 1-1.27-.961l-.48-4.393a35.555 35.555 0 0 1-2.797 2.47 16.697 16.697 0 0 1-2.9 1.854 14.946 14.946 0 0 1-3.259 1.167 16.791 16.791 0 0 1-3.843.411 11.303 11.303 0 0 1-3.397-.514 8.55 8.55 0 0 1-2.934-1.578 7.64 7.64 0 0 1-2.06-2.729 9.439 9.439 0 0 1-.77-3.997 7.09 7.09 0 0 1 1.234-4.015 10.118 10.118 0 0 1 3.877-3.225 25.75 25.75 0 0 1 6.778-2.197 58.835 58.835 0 0 1 9.933-.96v-3.569q0-4.736-2.04-7.292a7.287 7.287 0 0 0-6.057-2.556 11.424 11.424 0 0 0-4.204.686 14.922 14.922 0 0 0-2.934 1.51 18.49 18.49 0 0 0-1.956 1.51 2.115 2.115 0 0 1-1.27.686 1.035 1.035 0 0 1-.617-.172 1.538 1.538 0 0 1-.412-.446Zm20.073 12.8a64.208 64.208 0 0 0-8.39.771 24.223 24.223 0 0 0-5.798 1.63 8.657 8.657 0 0 0-3.38 2.454 5.167 5.167 0 0 0-1.099 3.242 7.166 7.166 0 0 0 .567 2.97 5.806 5.806 0 0 0 1.51 2.058 6 6 0 0 0 2.18 1.183 8.742 8.742 0 0 0 2.572.378 14.574 14.574 0 0 0 3.655-.43 13.502 13.502 0 0 0 3.088-1.2 15.122 15.122 0 0 0 2.66-1.836q1.235-1.063 2.435-2.298Z"/>
	<path class="cls-2" d="M19.184 140.36h-.712a.521.521 0 0 1-.23-.044.456.456 0 0 1-.175-.165l-3.672-4.644a1.081 1.081 0 0 0-.133-.153.514.514 0 0 0-.154-.102.78.78 0 0 0-.202-.052 2.166 2.166 0 0 0-.287-.016h-1.497v5.177h-.834v-11.447h2.93a4.771 4.771 0 0 1 2.956.765 2.67 2.67 0 0 1 .983 2.244 3.076 3.076 0 0 1-.227 1.198 2.816 2.816 0 0 1-.651.95 3.4 3.4 0 0 1-1.028.668 4.835 4.835 0 0 1-1.355.347 1.32 1.32 0 0 1 .349.325Zm-5.08-5.791a4.72 4.72 0 0 0 1.363-.182 2.948 2.948 0 0 0 1.02-.522 2.244 2.244 0 0 0 .634-.817 2.56 2.56 0 0 0 .218-1.076 2.107 2.107 0 0 0-.796-1.811 3.87 3.87 0 0 0-2.326-.591h-2.095v4.999Z"/>
	<path class="cls-2" d="M20.349 136.017v.153a5.46 5.46 0 0 0 .21 1.594 3.262 3.262 0 0 0 .599 1.152 2.46 2.46 0 0 0 .938.7 3.106 3.106 0 0 0 1.23.235 3.646 3.646 0 0 0 1.05-.134 3.92 3.92 0 0 0 .75-.299 4.106 4.106 0 0 0 .48-.298.536.536 0 0 1 .26-.134.186.186 0 0 1 .161.08l.21.26a2.222 2.222 0 0 1-.513.453 3.694 3.694 0 0 1-.712.36 5.233 5.233 0 0 1-.841.238 4.686 4.686 0 0 1-.902.09 3.83 3.83 0 0 1-1.505-.288 3.184 3.184 0 0 1-1.165-.838 3.804 3.804 0 0 1-.748-1.346 5.813 5.813 0 0 1-.263-1.825 4.973 4.973 0 0 1 .247-1.597 3.669 3.669 0 0 1 .712-1.262 3.237 3.237 0 0 1 1.14-.83 3.752 3.752 0 0 1 1.533-.298 3.35 3.35 0 0 1 1.262.234 2.853 2.853 0 0 1 1.012.684 3.215 3.215 0 0 1 .675 1.103 4.255 4.255 0 0 1 .246 1.505.434.434 0 0 1-.048.244.19.19 0 0 1-.162.064Zm5.371-.493a3.47 3.47 0 0 0-.182-1.161 2.465 2.465 0 0 0-.514-.87 2.248 2.248 0 0 0-.788-.546 2.614 2.614 0 0 0-1.008-.19 3.037 3.037 0 0 0-1.116.194 2.44 2.44 0 0 0-.853.558 2.788 2.788 0 0 0-.579.874 4.053 4.053 0 0 0-.29 1.14Z"/>
	<path class="cls-2" d="M29.198 128.591v11.77h-.776v-11.77Z"/>
	<path class="cls-2" d="M32.952 129.537a.61.61 0 0 1-.061.271.811.811 0 0 1-.158.223.745.745 0 0 1-.226.154.707.707 0 0 1-.55 0 .744.744 0 0 1-.38-.377.65.65 0 0 1-.057-.27.728.728 0 0 1 .21-.51.72.72 0 0 1 .227-.154.695.695 0 0 1 .55 0 .726.726 0 0 1 .226.154.781.781 0 0 1 .158.23.664.664 0 0 1 .06.28Zm-.332 2.775v8.049h-.769v-8.05Z"/>
	<path class="cls-2" d="M34.974 133.453a4.656 4.656 0 0 1 1.326-.955 3.698 3.698 0 0 1 1.578-.324 2.893 2.893 0 0 1 1.132.206 2.095 2.095 0 0 1 .805.591 2.582 2.582 0 0 1 .481.93 4.27 4.27 0 0 1 .162 1.218v5.242h-.307a.277.277 0 0 1-.3-.227l-.113-1.035a8.315 8.315 0 0 1-.659.582 3.92 3.92 0 0 1-.684.437 3.474 3.474 0 0 1-.768.275 3.969 3.969 0 0 1-.906.098 2.668 2.668 0 0 1-.801-.122 2.024 2.024 0 0 1-.692-.373 1.797 1.797 0 0 1-.485-.642 2.224 2.224 0 0 1-.182-.943 1.67 1.67 0 0 1 .291-.946 2.377 2.377 0 0 1 .914-.76 6.046 6.046 0 0 1 1.598-.518 13.796 13.796 0 0 1 2.342-.227v-.841a2.697 2.697 0 0 0-.482-1.72 1.719 1.719 0 0 0-1.427-.602 2.686 2.686 0 0 0-.991.162 3.514 3.514 0 0 0-.692.356 4.271 4.271 0 0 0-.46.356.501.501 0 0 1-.3.161.24.24 0 0 1-.146-.04.367.367 0 0 1-.097-.105Zm4.732 3.017a15.11 15.11 0 0 0-1.978.182 5.706 5.706 0 0 0-1.367.385 2.04 2.04 0 0 0-.797.578 1.22 1.22 0 0 0-.259.764 1.677 1.677 0 0 0 .134.7 1.363 1.363 0 0 0 .356.485 1.416 1.416 0 0 0 .514.28 2.052 2.052 0 0 0 .606.088 3.4 3.4 0 0 0 .861-.102 3.194 3.194 0 0 0 .728-.282 3.534 3.534 0 0 0 .627-.433q.292-.25.575-.542Z"/>
	<path class="cls-2" d="M43.645 133.711a4.063 4.063 0 0 1 1.23-1.12 3.193 3.193 0 0 1 1.634-.408 3.058 3.058 0 0 1 1.302.267 2.67 2.67 0 0 1 .975.768 3.5 3.5 0 0 1 .61 1.234 6.027 6.027 0 0 1 .21 1.662 6.374 6.374 0 0 1-.234 1.784 4.017 4.017 0 0 1-.683 1.375 3.087 3.087 0 0 1-1.096.882 3.382 3.382 0 0 1-1.48.311 3.014 3.014 0 0 1-1.46-.328 2.96 2.96 0 0 1-1.04-.975l-.057.996a.2.2 0 0 1-.218.202h-.47v-11.77h.777Zm0 4.895a2.78 2.78 0 0 0 1.032.974 2.812 2.812 0 0 0 1.265.279 2.866 2.866 0 0 0 1.258-.259 2.398 2.398 0 0 0 .898-.74 3.303 3.303 0 0 0 .538-1.17 6.166 6.166 0 0 0 .178-1.544 3.996 3.996 0 0 0-.663-2.507 2.233 2.233 0 0 0-1.86-.842 2.702 2.702 0 0 0-1.497.412 4.153 4.153 0 0 0-1.15 1.15Z"/>
	<path class="cls-2" d="M52.47 128.591v11.77h-.776v-11.77Z"/>
	<path class="cls-2" d="M55.31 136.017v.153a5.46 5.46 0 0 0 .21 1.594 3.262 3.262 0 0 0 .599 1.152 2.46 2.46 0 0 0 .938.7 3.106 3.106 0 0 0 1.23.235 3.646 3.646 0 0 0 1.05-.134 3.92 3.92 0 0 0 .75-.299 4.107 4.107 0 0 0 .48-.298.536.536 0 0 1 .26-.134.186.186 0 0 1 .161.08l.21.26a2.222 2.222 0 0 1-.513.453 3.694 3.694 0 0 1-.712.36 5.233 5.233 0 0 1-.841.238 4.686 4.686 0 0 1-.902.09 3.83 3.83 0 0 1-1.505-.288 3.184 3.184 0 0 1-1.165-.838 3.804 3.804 0 0 1-.748-1.346 5.813 5.813 0 0 1-.263-1.825 4.973 4.973 0 0 1 .247-1.597 3.669 3.669 0 0 1 .712-1.262 3.237 3.237 0 0 1 1.14-.83 3.752 3.752 0 0 1 1.533-.298 3.35 3.35 0 0 1 1.262.234 2.853 2.853 0 0 1 1.011.684 3.215 3.215 0 0 1 .676 1.103 4.255 4.255 0 0 1 .246 1.505.434.434 0 0 1-.048.244.19.19 0 0 1-.162.064Zm5.371-.493a3.47 3.47 0 0 0-.182-1.161 2.465 2.465 0 0 0-.514-.87 2.248 2.248 0 0 0-.788-.546 2.614 2.614 0 0 0-1.008-.19 3.037 3.037 0 0 0-1.116.194 2.44 2.44 0 0 0-.853.558 2.788 2.788 0 0 0-.579.874 4.053 4.053 0 0 0-.291 1.14Z"/>
	<path class="cls-2" d="M71.965 133.307a.204.204 0 0 1-.186.113.422.422 0 0 1-.226-.101 3.356 3.356 0 0 0-.369-.227 3.077 3.077 0 0 0-.57-.226 2.924 2.924 0 0 0-.825-.101 2.423 2.423 0 0 0-.796.125 1.994 1.994 0 0 0-.615.336 1.49 1.49 0 0 0-.393.49 1.312 1.312 0 0 0-.137.586 1 1 0 0 0 .194.631 1.693 1.693 0 0 0 .506.429 3.794 3.794 0 0 0 .716.307q.404.13.82.26.417.128.822.286a2.934 2.934 0 0 1 .715.393 1.875 1.875 0 0 1 .506.574 1.638 1.638 0 0 1 .194.825 2.549 2.549 0 0 1-.186.979 2.18 2.18 0 0 1-.546.784 2.643 2.643 0 0 1-.885.526 3.482 3.482 0 0 1-1.206.195 3.608 3.608 0 0 1-1.464-.272 4.116 4.116 0 0 1-1.1-.708l.178-.274a.284.284 0 0 1 .093-.098.27.27 0 0 1 .141-.032.425.425 0 0 1 .255.13 2.888 2.888 0 0 0 .4.278 3.357 3.357 0 0 0 .62.28 2.747 2.747 0 0 0 .91.13 2.63 2.63 0 0 0 .897-.142 1.873 1.873 0 0 0 .648-.385 1.593 1.593 0 0 0 .392-.57 1.812 1.812 0 0 0 .133-.692 1.11 1.11 0 0 0-.194-.67 1.654 1.654 0 0 0-.51-.454 3.542 3.542 0 0 0-.715-.315q-.401-.13-.822-.26a12.95 12.95 0 0 1-.82-.282 2.992 2.992 0 0 1-.716-.389 1.871 1.871 0 0 1-.51-.57 1.65 1.65 0 0 1-.194-.837 1.911 1.911 0 0 1 .186-.825 2.092 2.092 0 0 1 .53-.697 2.596 2.596 0 0 1 .837-.476 3.239 3.239 0 0 1 1.108-.178 3.75 3.75 0 0 1 1.306.21 3.072 3.072 0 0 1 1.04.647Z"/>
	<path class="cls-2" d="M76.454 140.49a1.731 1.731 0 0 1-1.273-.452 1.898 1.898 0 0 1-.457-1.4v-5.5h-1.157a.216.216 0 0 1-.146-.05.17.17 0 0 1-.056-.137v-.3l1.375-.096.194-2.88a.296.296 0 0 1 .064-.13.173.173 0 0 1 .138-.056h.364v3.074h2.54v.574H75.5v5.46a1.703 1.703 0 0 0 .085.57 1.062 1.062 0 0 0 .235.393.92.92 0 0 0 .351.227 1.273 1.273 0 0 0 .437.072 1.337 1.337 0 0 0 .502-.085 2.09 2.09 0 0 0 .364-.186 2.333 2.333 0 0 0 .25-.186.275.275 0 0 1 .154-.085.177.177 0 0 1 .13.08l.21.34a2.247 2.247 0 0 1-.78.547 2.432 2.432 0 0 1-.984.207Z"/>
	<path class="cls-2" d="M80.37 134.253a4.993 4.993 0 0 1 .424-.878 2.81 2.81 0 0 1 .55-.651 2.27 2.27 0 0 1 .696-.408 2.465 2.465 0 0 1 .853-.142 2.676 2.676 0 0 1 .494.045 1.25 1.25 0 0 1 .429.157l-.065.535a.157.157 0 0 1-.153.13 1.228 1.228 0 0 1-.296-.057 1.944 1.944 0 0 0-.522-.057 2.249 2.249 0 0 0-.829.142 1.906 1.906 0 0 0-.647.424 2.734 2.734 0 0 0-.501.7 6.573 6.573 0 0 0-.393.959v5.209h-.776v-8.05h.412a.267.267 0 0 1 .194.058.328.328 0 0 1 .073.194Z"/>
	<path class="cls-2" d="M85.013 136.017v.153a5.46 5.46 0 0 0 .21 1.594 3.262 3.262 0 0 0 .599 1.152 2.46 2.46 0 0 0 .938.7 3.106 3.106 0 0 0 1.23.235 3.646 3.646 0 0 0 1.05-.134 3.92 3.92 0 0 0 .75-.299 4.108 4.108 0 0 0 .48-.298.536.536 0 0 1 .26-.134.186.186 0 0 1 .161.08l.21.26a2.222 2.222 0 0 1-.513.453 3.694 3.694 0 0 1-.712.36 5.233 5.233 0 0 1-.841.238 4.686 4.686 0 0 1-.902.09 3.83 3.83 0 0 1-1.505-.288 3.184 3.184 0 0 1-1.164-.838 3.804 3.804 0 0 1-.749-1.346 5.813 5.813 0 0 1-.263-1.825 4.973 4.973 0 0 1 .247-1.597 3.669 3.669 0 0 1 .712-1.262 3.237 3.237 0 0 1 1.14-.83 3.752 3.752 0 0 1 1.533-.298 3.35 3.35 0 0 1 1.262.234 2.853 2.853 0 0 1 1.012.684 3.215 3.215 0 0 1 .675 1.103 4.255 4.255 0 0 1 .246 1.505.434.434 0 0 1-.048.244.19.19 0 0 1-.161.064Zm5.371-.493a3.47 3.47 0 0 0-.182-1.161 2.465 2.465 0 0 0-.514-.87 2.248 2.248 0 0 0-.788-.546 2.614 2.614 0 0 0-1.008-.19 3.037 3.037 0 0 0-1.116.194 2.44 2.44 0 0 0-.853.558 2.788 2.788 0 0 0-.579.874 4.053 4.053 0 0 0-.29 1.14Z"/>
	<path class="cls-2" d="M92.787 133.453a4.656 4.656 0 0 1 1.326-.955 3.698 3.698 0 0 1 1.578-.324 2.893 2.893 0 0 1 1.132.206 2.095 2.095 0 0 1 .805.591 2.582 2.582 0 0 1 .481.93 4.27 4.27 0 0 1 .162 1.218v5.242h-.307a.277.277 0 0 1-.3-.227l-.113-1.035a8.315 8.315 0 0 1-.659.582 3.92 3.92 0 0 1-.684.437 3.474 3.474 0 0 1-.768.275 3.969 3.969 0 0 1-.906.098 2.668 2.668 0 0 1-.801-.122 2.024 2.024 0 0 1-.692-.373 1.797 1.797 0 0 1-.485-.642 2.224 2.224 0 0 1-.182-.943 1.67 1.67 0 0 1 .291-.946 2.377 2.377 0 0 1 .914-.76 6.046 6.046 0 0 1 1.598-.518 13.796 13.796 0 0 1 2.342-.227v-.841a2.697 2.697 0 0 0-.482-1.72 1.719 1.719 0 0 0-1.427-.602 2.686 2.686 0 0 0-.991.162 3.514 3.514 0 0 0-.692.356 4.271 4.271 0 0 0-.46.356.501.501 0 0 1-.3.161.24.24 0 0 1-.146-.04.367.367 0 0 1-.097-.105Zm4.732 3.017a15.11 15.11 0 0 0-1.978.182 5.706 5.706 0 0 0-1.367.385 2.04 2.04 0 0 0-.797.578 1.22 1.22 0 0 0-.259.764 1.678 1.678 0 0 0 .134.7 1.363 1.363 0 0 0 .356.485 1.416 1.416 0 0 0 .514.28 2.052 2.052 0 0 0 .606.088 3.4 3.4 0 0 0 .861-.102 3.194 3.194 0 0 0 .728-.282 3.534 3.534 0 0 0 .627-.433q.292-.25.575-.542Z"/>
	<path class="cls-2" d="M100.682 140.36v-8.048h.428a.214.214 0 0 1 .235.202l.073 1.165a4.206 4.206 0 0 1 1.076-1.084 2.371 2.371 0 0 1 1.367-.412 1.95 1.95 0 0 1 1.411.509 2.646 2.646 0 0 1 .716 1.416 2.803 2.803 0 0 1 .408-.858 2.55 2.55 0 0 1 .603-.602 2.44 2.44 0 0 1 .74-.353 3.017 3.017 0 0 1 .821-.112 2.786 2.786 0 0 1 1.076.197 2.124 2.124 0 0 1 .81.587 2.693 2.693 0 0 1 .509.954 4.322 4.322 0 0 1 .178 1.295v5.145h-.769v-5.145a2.771 2.771 0 0 0-.51-1.8 1.778 1.778 0 0 0-1.455-.619 2.166 2.166 0 0 0-.805.154 1.954 1.954 0 0 0-.68.457 2.2 2.2 0 0 0-.469.756 2.917 2.917 0 0 0-.174 1.052v5.145h-.777v-5.145a2.964 2.964 0 0 0-.464-1.796 1.597 1.597 0 0 0-1.364-.623 2.082 2.082 0 0 0-1.213.389 3.708 3.708 0 0 0-.995 1.075v6.1Z"/>
	<path class="cls-2" d="M114.732 129.537a.61.61 0 0 1-.06.271.811.811 0 0 1-.158.223.745.745 0 0 1-.227.154.707.707 0 0 1-.55 0 .744.744 0 0 1-.38-.377.65.65 0 0 1-.056-.27.728.728 0 0 1 .21-.51.72.72 0 0 1 .227-.154.695.695 0 0 1 .55 0 .726.726 0 0 1 .226.154.781.781 0 0 1 .158.23.664.664 0 0 1 .06.28Zm-.331 2.775v8.049h-.769v-8.05Z"/>
	<path class="cls-2" d="M117.718 133.72a4.554 4.554 0 0 1 1.29-1.117 3.213 3.213 0 0 1 1.63-.42 3.016 3.016 0 0 1 1.168.21 2.158 2.158 0 0 1 .838.606 2.699 2.699 0 0 1 .501.956 4.325 4.325 0 0 1 .17 1.261v5.145h-.777v-5.145a2.757 2.757 0 0 0-.517-1.775 1.904 1.904 0 0 0-1.577-.644 2.858 2.858 0 0 0-1.469.4 4.139 4.139 0 0 0-1.217 1.113v6.05h-.777v-8.048h.429a.214.214 0 0 1 .234.202Z"/>
	<path class="cls-2" d="M132.197 132.668v.267c0 .118-.076.191-.227.219l-1.23.089a2.35 2.35 0 0 1 .348.687 2.692 2.692 0 0 1 .122.825 2.614 2.614 0 0 1-.207 1.056 2.3 2.3 0 0 1-.582.809 2.68 2.68 0 0 1-.906.521 3.509 3.509 0 0 1-1.169.187 3.567 3.567 0 0 1-1.254-.211 1.75 1.75 0 0 0-.537.457.868.868 0 0 0-.199.522.627.627 0 0 0 .247.533 1.625 1.625 0 0 0 .647.272 5.792 5.792 0 0 0 .914.11q.514.023 1.048.052.534.028 1.047.1a3.349 3.349 0 0 1 .914.255 1.64 1.64 0 0 1 .648.51 1.41 1.41 0 0 1 .246.87 1.99 1.99 0 0 1-.25.962 2.546 2.546 0 0 1-.724.818 3.842 3.842 0 0 1-1.145.57 4.943 4.943 0 0 1-1.505.214 5.683 5.683 0 0 1-1.488-.174 3.554 3.554 0 0 1-1.072-.469 2.06 2.06 0 0 1-.651-.683 1.659 1.659 0 0 1-.218-.826 1.563 1.563 0 0 1 .42-1.096 2.805 2.805 0 0 1 1.149-.716 1.558 1.558 0 0 1-.651-.4 1.002 1.002 0 0 1-.247-.716 1.084 1.084 0 0 1 .064-.356 1.457 1.457 0 0 1 .195-.368 1.95 1.95 0 0 1 .315-.344 2.373 2.373 0 0 1 .42-.29 2.405 2.405 0 0 1-.893-.883 2.514 2.514 0 0 1-.32-1.286 2.61 2.61 0 0 1 .207-1.055 2.32 2.32 0 0 1 .586-.814 2.676 2.676 0 0 1 .91-.525 3.796 3.796 0 0 1 2.16-.057 2.889 2.889 0 0 1 .805.364Zm-.842 8.235a.9.9 0 0 0-.198-.61 1.303 1.303 0 0 0-.53-.361 3.172 3.172 0 0 0-.764-.182c-.289-.035-.59-.061-.906-.077l-.95-.049a7.353 7.353 0 0 1-.899-.096 3.676 3.676 0 0 0-.566.279 2.019 2.019 0 0 0-.444.36 1.6 1.6 0 0 0-.292.44 1.295 1.295 0 0 0 .077 1.174 1.607 1.607 0 0 0 .534.525 2.966 2.966 0 0 0 .861.352 4.758 4.758 0 0 0 1.174.13 4.542 4.542 0 0 0 1.144-.138 3.198 3.198 0 0 0 .922-.388 1.987 1.987 0 0 0 .615-.599 1.384 1.384 0 0 0 .222-.76Zm-3.009-4.102a2.652 2.652 0 0 0 .922-.15 1.9 1.9 0 0 0 .68-.416 1.78 1.78 0 0 0 .42-.639 2.394 2.394 0 0 0-.003-1.654 1.795 1.795 0 0 0-.43-.643 1.918 1.918 0 0 0-.679-.413 2.92 2.92 0 0 0-1.82 0 1.915 1.915 0 0 0-.68.413 1.748 1.748 0 0 0-.424.643 2.278 2.278 0 0 0-.146.829 2.242 2.242 0 0 0 .146.825 1.758 1.758 0 0 0 .425.639 1.952 1.952 0 0 0 .679.417 2.591 2.591 0 0 0 .91.15Z"/>
	<path class="cls-2" d="M142.47 133.307a.204.204 0 0 1-.186.113.422.422 0 0 1-.226-.101 3.358 3.358 0 0 0-.369-.227 3.077 3.077 0 0 0-.57-.226 2.924 2.924 0 0 0-.825-.101 2.423 2.423 0 0 0-.797.125 1.994 1.994 0 0 0-.614.336 1.49 1.49 0 0 0-.393.49 1.312 1.312 0 0 0-.138.586 1 1 0 0 0 .195.631 1.693 1.693 0 0 0 .506.429 3.794 3.794 0 0 0 .715.307q.405.13.821.26.417.128.822.286a2.933 2.933 0 0 1 .715.393 1.876 1.876 0 0 1 .506.574 1.638 1.638 0 0 1 .194.825 2.549 2.549 0 0 1-.186.979 2.18 2.18 0 0 1-.546.784 2.643 2.643 0 0 1-.886.526 3.482 3.482 0 0 1-1.205.195 3.608 3.608 0 0 1-1.464-.272 4.116 4.116 0 0 1-1.1-.708l.178-.274a.285.285 0 0 1 .092-.098.27.27 0 0 1 .142-.032.425.425 0 0 1 .255.13 2.888 2.888 0 0 0 .4.278 3.357 3.357 0 0 0 .62.28 2.747 2.747 0 0 0 .91.13 2.63 2.63 0 0 0 .897-.142 1.873 1.873 0 0 0 .648-.385 1.593 1.593 0 0 0 .392-.57 1.812 1.812 0 0 0 .133-.692 1.11 1.11 0 0 0-.194-.67 1.653 1.653 0 0 0-.51-.454 3.542 3.542 0 0 0-.716-.315q-.4-.13-.82-.26c-.281-.086-.555-.18-.822-.282a2.992 2.992 0 0 1-.715-.389 1.871 1.871 0 0 1-.51-.57 1.65 1.65 0 0 1-.195-.837 1.911 1.911 0 0 1 .187-.825 2.091 2.091 0 0 1 .53-.697 2.596 2.596 0 0 1 .837-.476 3.239 3.239 0 0 1 1.108-.178 3.75 3.75 0 0 1 1.306.21 3.072 3.072 0 0 1 1.04.647Z"/>
	<path class="cls-2" d="M146.96 140.49a1.731 1.731 0 0 1-1.275-.452 1.898 1.898 0 0 1-.457-1.4v-5.5h-1.156a.216.216 0 0 1-.146-.05.17.17 0 0 1-.056-.137v-.3l1.375-.096.194-2.88a.296.296 0 0 1 .064-.13.173.173 0 0 1 .138-.056h.364v3.074h2.54v.574h-2.54v5.46a1.703 1.703 0 0 0 .085.57 1.062 1.062 0 0 0 .235.393.92.92 0 0 0 .351.227 1.273 1.273 0 0 0 .437.072 1.337 1.337 0 0 0 .502-.085 2.09 2.09 0 0 0 .364-.186 2.333 2.333 0 0 0 .25-.186.276.276 0 0 1 .154-.085.177.177 0 0 1 .13.08l.21.34a2.247 2.247 0 0 1-.78.547 2.432 2.432 0 0 1-.984.207Z"/>
	<path class="cls-2" d="M153.301 132.183a3.866 3.866 0 0 1 1.55.295 3.153 3.153 0 0 1 1.152.837 3.714 3.714 0 0 1 .716 1.306 6.046 6.046 0 0 1 0 3.418 3.717 3.717 0 0 1-.716 1.302 3.11 3.11 0 0 1-1.153.833 4.255 4.255 0 0 1-3.098 0 3.14 3.14 0 0 1-1.156-.833 3.68 3.68 0 0 1-.72-1.302 6.046 6.046 0 0 1 0-3.418 3.676 3.676 0 0 1 .72-1.306 3.184 3.184 0 0 1 1.156-.837 3.862 3.862 0 0 1 1.55-.295Zm0 7.676a2.997 2.997 0 0 0 1.258-.246 2.381 2.381 0 0 0 .898-.708 3.116 3.116 0 0 0 .538-1.113 6.07 6.07 0 0 0 0-2.916 3.154 3.154 0 0 0-.538-1.12 2.392 2.392 0 0 0-.898-.716 3.277 3.277 0 0 0-2.516 0 2.395 2.395 0 0 0-.898.716 3.218 3.218 0 0 0-.542 1.12 5.927 5.927 0 0 0 0 2.916 3.18 3.18 0 0 0 .542 1.113 2.385 2.385 0 0 0 .898.708 2.997 2.997 0 0 0 1.258.246Z"/>
	<path class="cls-2" d="M159.716 134.253a4.993 4.993 0 0 1 .425-.878 2.81 2.81 0 0 1 .55-.651 2.27 2.27 0 0 1 .696-.408 2.465 2.465 0 0 1 .853-.142 2.676 2.676 0 0 1 .493.045 1.25 1.25 0 0 1 .429.157l-.065.535a.157.157 0 0 1-.153.13 1.228 1.228 0 0 1-.296-.057 1.944 1.944 0 0 0-.522-.057 2.249 2.249 0 0 0-.829.142 1.906 1.906 0 0 0-.647.424 2.734 2.734 0 0 0-.501.7 6.572 6.572 0 0 0-.393.959v5.209h-.776v-8.05h.412a.267.267 0 0 1 .194.058.328.328 0 0 1 .073.194Z"/>
	<path class="cls-2" d="M164.141 133.453a4.656 4.656 0 0 1 1.327-.955 3.698 3.698 0 0 1 1.577-.324 2.893 2.893 0 0 1 1.133.206 2.095 2.095 0 0 1 .804.591 2.582 2.582 0 0 1 .482.93 4.27 4.27 0 0 1 .161 1.218v5.242h-.307a.277.277 0 0 1-.3-.227l-.112-1.035a8.315 8.315 0 0 1-.66.582 3.92 3.92 0 0 1-.683.437 3.474 3.474 0 0 1-.769.275 3.969 3.969 0 0 1-.905.098 2.668 2.668 0 0 1-.802-.122 2.024 2.024 0 0 1-.691-.373 1.797 1.797 0 0 1-.485-.642 2.224 2.224 0 0 1-.183-.943 1.67 1.67 0 0 1 .292-.946 2.377 2.377 0 0 1 .914-.76 6.046 6.046 0 0 1 1.598-.518 13.796 13.796 0 0 1 2.341-.227v-.841a2.697 2.697 0 0 0-.481-1.72 1.719 1.719 0 0 0-1.428-.602 2.686 2.686 0 0 0-.991.162 3.515 3.515 0 0 0-.691.356 4.272 4.272 0 0 0-.461.356.501.501 0 0 1-.3.161.24.24 0 0 1-.145-.04.367.367 0 0 1-.097-.105Zm4.732 3.017a15.11 15.11 0 0 0-1.978.182 5.706 5.706 0 0 0-1.367.385 2.04 2.04 0 0 0-.797.578 1.22 1.22 0 0 0-.258.764 1.677 1.677 0 0 0 .133.7 1.363 1.363 0 0 0 .356.485 1.416 1.416 0 0 0 .514.28 2.052 2.052 0 0 0 .606.088 3.4 3.4 0 0 0 .862-.102 3.194 3.194 0 0 0 .728-.282 3.534 3.534 0 0 0 .627-.433q.291-.25.574-.542Z"/>
	<path class="cls-2" d="M178.516 132.668v.267c0 .118-.076.191-.227.219l-1.23.089a2.35 2.35 0 0 1 .348.687 2.692 2.692 0 0 1 .122.825 2.614 2.614 0 0 1-.207 1.056 2.3 2.3 0 0 1-.582.809 2.68 2.68 0 0 1-.906.521 3.509 3.509 0 0 1-1.169.187 3.567 3.567 0 0 1-1.254-.211 1.75 1.75 0 0 0-.538.457.868.868 0 0 0-.198.522.627.627 0 0 0 .247.533 1.625 1.625 0 0 0 .647.272 5.792 5.792 0 0 0 .914.11q.514.023 1.048.052.534.028 1.047.1a3.349 3.349 0 0 1 .914.255 1.64 1.64 0 0 1 .648.51 1.41 1.41 0 0 1 .246.87 1.99 1.99 0 0 1-.25.962 2.545 2.545 0 0 1-.724.818 3.842 3.842 0 0 1-1.145.57 4.943 4.943 0 0 1-1.505.214 5.683 5.683 0 0 1-1.488-.174 3.554 3.554 0 0 1-1.072-.469 2.059 2.059 0 0 1-.651-.683 1.659 1.659 0 0 1-.219-.826 1.563 1.563 0 0 1 .42-1.096 2.804 2.804 0 0 1 1.15-.716 1.558 1.558 0 0 1-.652-.4 1.002 1.002 0 0 1-.246-.716 1.084 1.084 0 0 1 .064-.356 1.457 1.457 0 0 1 .195-.368 1.95 1.95 0 0 1 .315-.344 2.373 2.373 0 0 1 .42-.29 2.405 2.405 0 0 1-.893-.883 2.514 2.514 0 0 1-.32-1.286 2.61 2.61 0 0 1 .207-1.055 2.32 2.32 0 0 1 .586-.814 2.676 2.676 0 0 1 .91-.525 3.796 3.796 0 0 1 2.16-.057 2.889 2.889 0 0 1 .805.364Zm-.842 8.235a.9.9 0 0 0-.198-.61 1.303 1.303 0 0 0-.53-.361 3.172 3.172 0 0 0-.764-.182c-.289-.035-.59-.061-.906-.077l-.95-.049a7.353 7.353 0 0 1-.899-.096 3.676 3.676 0 0 0-.566.279 2.019 2.019 0 0 0-.445.36 1.6 1.6 0 0 0-.291.44 1.295 1.295 0 0 0 .077 1.174 1.607 1.607 0 0 0 .534.525 2.966 2.966 0 0 0 .861.352 4.758 4.758 0 0 0 1.173.13 4.542 4.542 0 0 0 1.145-.138 3.198 3.198 0 0 0 .922-.388 1.987 1.987 0 0 0 .614-.599 1.384 1.384 0 0 0 .223-.76Zm-3.01-4.102a2.652 2.652 0 0 0 .923-.15 1.9 1.9 0 0 0 .68-.416 1.78 1.78 0 0 0 .42-.639 2.394 2.394 0 0 0-.004-1.654 1.794 1.794 0 0 0-.428-.643 1.918 1.918 0 0 0-.68-.413 2.92 2.92 0 0 0-1.82 0 1.916 1.916 0 0 0-.68.413 1.748 1.748 0 0 0-.424.643 2.278 2.278 0 0 0-.146.829 2.242 2.242 0 0 0 .146.825 1.758 1.758 0 0 0 .425.639 1.952 1.952 0 0 0 .679.417 2.592 2.592 0 0 0 .91.15Z"/>
	<path class="cls-2" d="M180.303 136.017v.153a5.46 5.46 0 0 0 .21 1.594 3.262 3.262 0 0 0 .6 1.152 2.46 2.46 0 0 0 .938.7 3.11 3.11 0 0 0 1.228.235 3.65 3.65 0 0 0 1.053-.134 3.941 3.941 0 0 0 .748-.299 3.888 3.888 0 0 0 .48-.298.54.54 0 0 1 .26-.134.188.188 0 0 1 .162.08l.21.26a2.172 2.172 0 0 1-.514.453 3.67 3.67 0 0 1-.711.36 5.253 5.253 0 0 1-.842.238 4.68 4.68 0 0 1-.902.09 3.83 3.83 0 0 1-1.504-.288 3.184 3.184 0 0 1-1.165-.838 3.804 3.804 0 0 1-.748-1.346 5.813 5.813 0 0 1-.263-1.825 4.973 4.973 0 0 1 .246-1.597 3.669 3.669 0 0 1 .712-1.262 3.235 3.235 0 0 1 1.141-.83 3.748 3.748 0 0 1 1.534-.298 3.349 3.349 0 0 1 1.261.234 2.835 2.835 0 0 1 1.01.684 3.186 3.186 0 0 1 .676 1.103 4.265 4.265 0 0 1 .248 1.505.442.442 0 0 1-.049.244.19.19 0 0 1-.162.064Zm5.37-.493a3.47 3.47 0 0 0-.18-1.161 2.465 2.465 0 0 0-.515-.87 2.241 2.241 0 0 0-.789-.546 2.61 2.61 0 0 0-1.006-.19 3.046 3.046 0 0 0-1.117.194 2.447 2.447 0 0 0-.853.558 2.788 2.788 0 0 0-.578.874 4.053 4.053 0 0 0-.291 1.14Z"/>
</svg>
