<svg xmlns="http://www.w3.org/2000/svg" width="200" height="128">
	<path d="M28.562 82.067a8.531 8.531 0 0 1-5.1-1.688v8.644H20V61.2h2.922l.288 2.058a7.2 7.2 0 0 1 5.6-2.47c6.009 0 7.573 4.857 7.573 10.619-.002 6.42-2.142 10.66-7.821 10.66zm-5.1-4.4a7.532 7.532 0 0 0 4.609 1.605c3.992 0 4.857-3.128 4.857-7.9s-.741-7.78-4.61-7.78a7.323 7.323 0 0 0-4.861 2.008v12.06zM51.034 64.08a24.666 24.666 0 0 0-6.38 2.14v15.393H41.2V61.2h2.84l.37 2.387a10.383 10.383 0 0 1 6.174-2.675zm5.433 8.849c.206 4.322 1.276 6.38 5.433 6.38a17.349 17.349 0 0 0 6.009-1.152l.535 2.634a19.155 19.155 0 0 1-6.585 1.235c-7.368 0-8.85-5.022-8.85-10.743 0-5.885 1.934-10.5 8.191-10.5 5.557 0 7.862 3.911 7.862 8.809v3.333zm0-2.716h9.261v-.741c0-3.787-1.193-6.092-4.569-6.092-3.827 0-4.651 2.758-4.692 6.833zm22.39 11.813a15.542 15.542 0 0 1-6.457-1.359l.659-2.716a14.5 14.5 0 0 0 5.639 1.277c2.715 0 4.157-.742 4.157-3.046 0-2.183-1.483-2.84-4.24-3.5-4.487-1.07-6.173-2.635-6.173-6.133 0-3.828 2.1-5.763 6.873-5.763a14.182 14.182 0 0 1 5.515 1.029l-.576 2.758a13.956 13.956 0 0 0-4.857-.988c-2.593 0-3.581.7-3.581 2.758 0 2.14.988 2.552 3.911 3.333 3.992 1.071 6.5 2.346 6.5 6.257-.003 4.281-3.127 6.093-7.37 6.093zm22.102-.618a15.329 15.329 0 0 1-4.2.618c-3.5 0-4.98-1.936-4.98-5.1V64h-3.54v-2.8h3.54v-4.98l3.457-.493V61.2h5.8l-.288 2.8h-5.51v12.76c0 1.892.453 2.47 2.346 2.47a15.21 15.21 0 0 0 3.087-.413zm11.441.618c-5.927 0-8.6-4.445-8.6-10.62s2.676-10.619 8.6-10.619 8.6 4.446 8.6 10.619-2.672 10.62-8.6 10.62zm0-18.44c-4.281 0-5.145 3.5-5.145 7.82s.865 7.821 5.145 7.821 5.145-3.5 5.145-7.821-.864-7.82-5.145-7.82z" fill="#0f2648"/>
	<circle cx="157.561" cy="41.321" r="2.343" fill="#1edcff"/>
	<circle cx="163.999" cy="47.76" r="2.603" fill="#1edcff"/>
	<circle cx="170.438" cy="54.199" r="2.863" fill="#1edcff"/>
	<circle cx="176.877" cy="60.637" r="3.123" fill="#1edcff"/>
	<circle cx="144.683" cy="41.321" r="2.083" fill="#5890ff"/>
	<circle cx="151.122" cy="47.759" r="2.343" fill="#5890ff"/>
	<circle cx="157.561" cy="54.199" r="2.603" fill="#5890ff"/>
	<circle cx="163.999" cy="60.637" r="2.863" fill="#5890ff"/>
	<circle cx="170.438" cy="67.076" r="3.123" fill="#5890ff"/>
	<circle cx="131.806" cy="41.32" r="1.823" fill="#0f2648"/>
	<circle cx="138.245" cy="47.759" r="2.083" fill="#0f2648"/>
	<circle cx="144.683" cy="54.198" r="2.343" fill="#0f2648"/>
	<circle cx="151.122" cy="60.637" r="2.603" fill="#0f2648"/>
	<circle cx="157.561" cy="67.076" r="2.863" fill="#0f2648"/>
	<circle cx="164" cy="73.515" r="3.123" fill="#0f2648"/>
	<g fill="#1edcff">
		<circle cx="144.684" cy="67.076" r="2.083"/>
		<circle cx="138.245" cy="73.515" r="2.083"/>
		<circle cx="131.806" cy="79.953" r="2.084"/>
		<circle cx="144.684" cy="79.953" r="2.083"/>
		<circle cx="157.561" cy="79.954" r="2.083"/>
		<circle cx="151.122" cy="73.515" r="2.083"/>
	</g>
</svg>
