<svg xmlns="http://www.w3.org/2000/svg" style="enable-background:new 0 0 850.4 1133.9" width="400" height="245">
	<defs>
		<clipPath id="a" clipPathUnits="userSpaceOnUse">
			<path d="M0 595.276h841.89V0H0Z"/>
		</clipPath>
	</defs>
	<path style="fill:#fff;fill-opacity:0;pointer-events:none" fill="none" d="M0 0h400v245H0z"/>
	<g clip-path="url(#a)" transform="matrix(.55215 0 0 -.55215 -32.425 278.642)">
		<path style="fill:#383836;fill-opacity:1;fill-rule:nonzero;stroke:none" d="m0 0-26.307.016v21.579H0c5.941 0 10.773-4.887 10.773-10.829C10.773 4.832 5.941 0 0 0m0 34.404h-39.12v-63.297h12.813v16.066L0-12.832c13.005 0 23.587 10.587 23.587 23.598 0 13.048-10.582 23.638-23.587 23.638" transform="translate(113.87 294.9)"/>
		<path style="fill:#383836;fill-opacity:1;fill-rule:nonzero;stroke:none" d="M0 0h-27.295v21.565H.029c5.933-.018 10.757-4.84 10.757-10.765C10.786 4.846 5.946 0 0 0m.041 34.379h-40.148V-28.92h12.812v16.086H-.171L8.308-28.92h14.451L12.422-9.307c7.3 4.808 11.176 12.306 11.176 20.107 0 12.992-10.569 23.579-23.557 23.579" transform="translate(192.89 294.927)"/>
		<path style="fill:#383836;fill-opacity:1;fill-rule:nonzero;stroke:none" d="M0 0c0-6.039-4.565-10.563-10.55-10.563h-22.59c-5.956 0-10.561 4.517-10.561 10.569v16.392c0 5.979 4.594 10.748 10.563 10.748h22.592C-4.588 27.146 0 22.377 0 16.406Zm12.81-.06v16.475c0 12.957-10.415 23.541-23.356 23.541h-22.587c-12.952 0-23.372-10.584-23.372-23.564L-56.51-.057c0-12.969 10.425-23.284 23.368-23.284h22.62C2.395-23.341 12.81-13.026 12.81-.06" transform="translate(286.545 289.348)"/>
		<path style="fill:#383836;fill-opacity:1;fill-rule:nonzero;stroke:none" d="M0 0c0-5.988-4.55-10.517-10.55-10.517h-25.771v37.706h25.771c6 0 10.55-4.756 10.55-10.747zm12.811-.084v16.512c0 12.988-10.418 23.571-23.347 23.571h-38.598v-63.296h38.816c12.706 0 23.129 10.526 23.129 23.213" transform="translate(363.938 289.304)"/>
		<path style="fill:#383836;fill-opacity:1;fill-rule:nonzero;stroke:none" d="m0 0-22.287-34.168L-44.574 0h-15.183l31.046-47.651v-15.646h12.818v15.598L15.184 0Z" transform="translate(440.904 329.304)"/>
		<path style="fill:#383836;fill-opacity:1;fill-rule:nonzero;stroke:none" d="M0 0h13.441v63.297H.623l.029-45.464-43.699 45.464h-13.494V0h12.818l.008 45.607z" transform="translate(524.145 266.007)"/>
		<path style="fill:#383836;fill-opacity:1;fill-rule:nonzero;stroke:none" d="M0 0h6.602l11.275-21.619h-29.156zm-17.967-34.427h42.526l8.373-16.059h14.47L14.375 12.811H-7.789l-33.004-63.297h14.451z" transform="translate(588.295 316.493)"/>
		<path style="fill:#a0c52a;fill-opacity:1;fill-rule:nonzero;stroke:none" d="M0 0h-34.113l24.482 24.618-38.508 38.679h34.114l38.47-38.651zm-59.738 12.444 14.072 14.059-22.133 22.138 19.609-.003 22.106-22.117-14.053-14.087zm38.06 77.509c-32.213 0-58.324-26.116-58.324-58.324 0-32.209 26.111-58.32 58.324-58.32 32.209 0 58.321 26.111 58.321 58.324 0 32.204-26.112 58.32-58.321 58.32" transform="translate(730.498 266.007)"/>
	</g>
</svg>
