<svg xmlns="http://www.w3.org/2000/svg" height="200" width="680" xml:space="preserve">
	<path style="fill:#239de0;fill-opacity:1;fill-rule:nonzero;stroke:none" d="m593.238 294.602 39.442-49.461c41.476-11.813 85.011-18.629 129.957-19.789l-69.532 87.179a10.953 10.953 0 0 0-2.113 9.25l99.821 437.34a10.941 10.941 0 0 0 5.917 7.418l404.16 194.633c3 1.445 6.49 1.445 9.48 0l57.87-27.867c-16.99 45.461-40.13 87.925-68.38 126.445L714.531 826.023 593.238 294.602" transform="matrix(.13333 0 0 -.13333 0 200)"/>
	<path style="fill:#239de0;fill-opacity:1;fill-rule:nonzero;stroke:none" d="m907.383 672.227-73.66-322.739L917.5 244.441a520.19 520.19 0 0 1 74.922 27.289l-71.57 89.739a17.787 17.787 0 0 0-3.43 15.031l53.652 235.07a17.749 17.749 0 0 0 9.61 12.051l217.246 104.621a17.764 17.764 0 0 0 15.41 0l84.17-40.531c2.42 20.441 3.82 41.199 3.82 62.289 0 6.715-.26 13.363-.51 20.02l-95.19 45.839-298.247-143.632" transform="matrix(.13333 0 0 -.13333 0 200)"/>
	<path style="fill:#239de0;fill-opacity:1;fill-rule:nonzero;stroke:none" d="M776.328 1275c-14.062 0-27.949-.72-41.734-1.81h83.472c-13.789 1.09-27.675 1.81-41.738 1.81" transform="matrix(.13333 0 0 -.13333 0 200)"/>
	<path style="fill:#239de0;fill-opacity:1;fill-rule:nonzero;stroke:none" d="m1003.81 595.332-49.857-218.391 71.107-89.16c136.47 73.739 236.68 206.18 266.78 363.231l-86.21 41.511-201.82-97.191" transform="matrix(.13333 0 0 -.13333 0 200)"/>
	<path style="fill:#239de0;fill-opacity:1;fill-rule:nonzero;stroke:none" d="m810.957 749.125-97.48-427.074 77.109-96.692c32.93.891 65.129 4.75 96.289 11.45L806.98 337a14.325 14.325 0 0 0-2.769 12.141l76.734 336.207a14.333 14.333 0 0 0 7.766 9.734L1199.4 844.707a14.365 14.365 0 0 0 12.46 0l86.81-41.809a521.305 521.305 0 0 1-20.51 101.364l-72.53 34.933-394.673-190.07" transform="matrix(.13333 0 0 -.13333 0 200)"/>
	<path style="fill:#239de0;fill-opacity:1;fill-rule:nonzero;stroke:none" d="M483.754 314.301c37.887-25.52 79.316-46.11 123.312-61.141l-27.836 34.899a7.54 7.54 0 0 0-1.453 6.363l122.907 538.473a7.507 7.507 0 0 0 4.062 5.097l485.834 233.958a529.172 529.172 0 0 1-69.28 73.29L618.105 902.922 483.754 314.301" transform="matrix(.13333 0 0 -.13333 0 200)"/>
	<path style="fill:#239de0;fill-opacity:1;fill-rule:nonzero;stroke:none" d="m476.508 319.398 134.043 587.274a4.085 4.085 0 0 0 2.219 2.777l501.78 241.641c-81.44 68.79-184.023 113.2-296.484 122.1h-83.472C464.566 1251.82 251.328 1025.41 251.328 750c0-178.07 89.199-335.629 225.18-430.602" transform="matrix(.13333 0 0 -.13333 0 200)"/>
	<path style="fill:#fff;fill-opacity:1;fill-rule:nonzero;stroke:none" d="M1197.93 728.242 980.684 623.621a17.749 17.749 0 0 1-9.61-12.051L917.422 376.5a17.787 17.787 0 0 1 3.43-15.031l71.57-89.739c11.068 5.02 21.988 10.309 32.638 16.051l-71.107 89.16 49.857 218.391 201.82 97.191 86.21-41.511c2.32 12.09 4.2 24.332 5.67 36.699l-84.17 40.531a17.764 17.764 0 0 1-15.41 0" transform="matrix(.13333 0 0 -.13333 0 200)"/>
	<path style="fill:#fff;fill-opacity:1;fill-rule:nonzero;stroke:none" d="M1199.4 844.707 888.711 695.082a14.333 14.333 0 0 1-7.766-9.734l-76.734-336.207A14.325 14.325 0 0 1 806.98 337l79.895-100.191c10.332 2.23 20.527 4.812 30.625 7.632l-83.777 105.047 73.66 322.739 298.247 143.632 95.19-45.839c-.42 11.039-1.06 22.023-2.15 32.878l-86.81 41.809a14.365 14.365 0 0 1-12.46 0" transform="matrix(.13333 0 0 -.13333 0 200)"/>
	<path style="fill:#fff;fill-opacity:1;fill-rule:nonzero;stroke:none" d="M1200.89 961.172 796.73 766.539a10.941 10.941 0 0 1-5.917-7.418l-99.821-437.34a10.953 10.953 0 0 1 2.113-9.25l69.532-87.179c4.558-.122 9.101-.352 13.691-.352 4.785 0 9.5.23 14.258.359l-77.109 96.692 97.48 427.074 394.673 190.07 72.53-34.933c-3.01 9.808-6.34 19.484-9.92 29.043l-57.87 27.867a10.908 10.908 0 0 1-9.48 0" transform="matrix(.13333 0 0 -.13333 0 200)"/>
	<path style="fill:#fff;fill-opacity:1;fill-rule:nonzero;stroke:none" d="M700.684 832.895 577.777 294.422a7.54 7.54 0 0 1 1.453-6.363l27.836-34.899a514.86 514.86 0 0 1 25.614-8.019l-39.442 49.461 121.293 531.421 485.329 233.727c-3.02 4.12-6.15 8.17-9.28 12.2L704.746 837.992a7.507 7.507 0 0 1-4.062-5.097" transform="matrix(.13333 0 0 -.13333 0 200)"/>
	<path style="fill:#fff;fill-opacity:1;fill-rule:nonzero;stroke:none" d="M610.551 906.672 476.508 319.398c2.422-1.687 4.797-3.449 7.246-5.097l134.351 588.621L1121.3 1145.24c-2.24 1.97-4.47 3.93-6.75 5.85L612.77 909.449a4.085 4.085 0 0 1-2.219-2.777" transform="matrix(.13333 0 0 -.13333 0 200)"/>
	<path style="fill:#696566;fill-opacity:1;fill-rule:nonzero;stroke:none" d="m1466.12 594.32 29.41 36.598c34.79-34.801 77.39-59.395 134.99-59.395 63.59 0 95.99 34.793 95.99 71.993 0 43.797-38.99 61.203-110.99 78-82.8 19.199-134.99 45-134.99 116.394 0 65.996 58.8 117.598 137.99 117.598 61.2 0 106.79-24.004 144.6-58.797l-28.8-36.606c-34.2 33-75 52.801-118.2 52.801-51 0-88.2-33.597-88.2-71.398 0-42.598 40.8-57.598 111-74.395 78.59-18.597 135-46.8 135-119.394 0-65.399-49.2-118.797-145.2-118.797-67.8 0-121.2 24.598-162.6 65.398" transform="matrix(.13333 0 0 -.13333 0 200)"/>
	<path style="fill:#696566;fill-opacity:1;fill-rule:nonzero;stroke:none" d="M2193.91 741.914c0 91.797-74.41 169.797-163.2 169.797-88.8 0-163.8-78-163.8-169.797 0-92.398 75-170.391 163.8-170.391 88.79 0 163.2 77.993 163.2 170.391zm-374.39 0c0 115.797 97.2 212.992 211.19 212.992 114.59 0 210.59-97.195 210.59-212.992s-96-213.594-210.59-213.594c-113.99 0-211.19 97.797-211.19 213.594" transform="matrix(.13333 0 0 -.13333 0 200)"/>
	<path style="fill:#696566;fill-opacity:1;fill-rule:nonzero;stroke:none" d="M2310.91 947.703h46.8L2613.3 612.32v335.383h46.8v-412.18h-46.8l-255.59 335.383V535.523h-46.8v412.18" transform="matrix(.13333 0 0 -.13333 0 200)"/>
	<path style="fill:#696566;fill-opacity:1;fill-rule:nonzero;stroke:none" d="M3104.09 741.914c0 91.797-74.39 169.797-163.19 169.797s-163.8-78-163.8-169.797c0-92.398 75-170.391 163.8-170.391 88.8 0 163.19 77.993 163.19 170.391zm-374.38 0c0 115.797 97.19 212.992 211.19 212.992 114.59 0 210.58-97.195 210.58-212.992S3055.49 528.32 2940.9 528.32c-114 0-211.19 97.797-211.19 213.594" transform="matrix(.13333 0 0 -.13333 0 200)"/>
	<path style="fill:#696566;fill-opacity:1;fill-rule:nonzero;stroke:none" d="M3405.29 578.121c51.01 0 87 31.801 87 76.195 0 44.399-35.99 76.196-87 76.196H3267.9V578.121Zm-7.19 194.992c45.59 0 77.99 27.602 77.99 65.996 0 38.403-32.4 65.996-77.99 65.996h-130.2V773.113Zm-177 174.59h189c66.59 0 113.4-42.598 113.4-102.598 0-43.792-21.61-68.992-58.8-90.593 47.39-24 74.99-61.196 74.99-106.192 0-66-51-112.797-122.4-112.797H3221.1v412.18" transform="matrix(.13333 0 0 -.13333 0 200)"/>
	<path style="fill:#696566;fill-opacity:1;fill-rule:nonzero;stroke:none" d="M3607.5 706.516v241.187h46.8V706.516c0-79.196 52.19-135.594 125.39-135.594s125.4 56.398 125.4 135.594v241.187h46.79V706.516c0-104.399-71.39-178.196-172.19-178.196-100.79 0-172.19 73.797-172.19 178.196" transform="matrix(.13333 0 0 -.13333 0 200)"/>
	<path style="fill:#696566;fill-opacity:1;fill-rule:nonzero;stroke:none" d="M4391.07 741.914c0 91.797-74.4 169.797-163.19 169.797-88.8 0-163.8-78-163.8-169.797 0-92.398 75-170.391 163.8-170.391 88.79 0 163.19 77.993 163.19 170.391zm-374.38 0c0 115.797 97.2 212.992 211.19 212.992 114.59 0 210.59-97.195 210.59-212.992s-96-213.594-210.59-213.594c-113.99 0-211.19 97.797-211.19 213.594" transform="matrix(.13333 0 0 -.13333 0 200)"/>
	<path style="fill:#696566;fill-opacity:1;fill-rule:nonzero;stroke:none" d="m4628.68 703.516-166.19 244.187h58.19l132.6-199.789 133.8 199.789h56.4l-165.6-244.187V535.523h-49.2v167.993" transform="matrix(.13333 0 0 -.13333 0 200)"/>
</svg>
