<svg xmlns="http://www.w3.org/2000/svg" width="200" height="128">
	<path d="M29.671 72.614h7.693c0 1.748-1.723 3.167-3.846 3.167s-3.847-1.419-3.847-3.167zm-2.508-3.354v2.3h12.706v-2.3zm10.293-3.7a5.227 5.227 0 0 0 1.25-3.376A7.32 7.32 0 0 0 37.493 58a4.662 4.662 0 0 1-.557-3.855c-1.351 1.073-1.717 4.181-1.8 6.314-.237-1.028-.2-2.647-.5-3.607-.816-2.56-1.736-3.591-1.007-4.794-.818.05-1.637 1.493-1.637 2.736a8.3 8.3 0 0 1-1.1 4.231c-.053-2.317-.831-3.8-1.563-3.856.75 1.914-1.327 4.28-1.327 6.991a5.276 5.276 0 0 0 1.29 3.391c-.843-.154-1.419-.286-1.419-.286-1.123-.252-2.7-.606-2.7-.578a9.189 9.189 0 0 0 1.9 3.246l.126.145h12.624a8.231 8.231 0 0 0 2.04-3.4l-2.9.567s-.614.147-1.507.314z" fill="#fff"/>
	<path d="M33.518 50.484A13.516 13.516 0 1 1 20 64a13.516 13.516 0 0 1 13.518-13.516zm8.345 14.191-2.9.567s-.615.15-1.508.317a5.227 5.227 0 0 0 1.25-3.376A7.32 7.32 0 0 0 37.493 58a4.662 4.662 0 0 1-.557-3.855c-1.351 1.073-1.717 4.181-1.8 6.314-.237-1.028-.2-2.647-.5-3.607-.816-2.56-1.736-3.591-1.007-4.794-.818.05-1.637 1.493-1.637 2.736a8.3 8.3 0 0 1-1.1 4.231c-.053-2.317-.831-3.8-1.563-3.856.75 1.914-1.327 4.28-1.327 6.991a5.276 5.276 0 0 0 1.29 3.391c-.843-.154-1.419-.286-1.419-.286-1.123-.252-2.7-.606-2.7-.578a9.189 9.189 0 0 0 1.9 3.246l.126.145h12.624a8.231 8.231 0 0 0 2.04-3.403zm-1.994 6.89v-2.3H27.163v2.3zm-2.505 1.049h-7.693c0 1.748 1.723 3.167 3.847 3.167s3.846-1.419 3.846-3.167z" fill="#d65c3a"/>
	<path d="M64.1 55.264a6.738 6.738 0 0 1 4.506 1.308 4.659 4.659 0 0 1 1.518 3.733 4.958 4.958 0 0 1-.42 2.052 4.632 4.632 0 0 1-1.2 1.614 5.58 5.58 0 0 1-1.9 1.056 7.79 7.79 0 0 1-2.508.378h-3.153v6.84h-1.236V55.264zm0 9.157a6.021 6.021 0 0 0 2-.312 4.438 4.438 0 0 0 1.506-.864 3.756 3.756 0 0 0 .948-1.3 4.022 4.022 0 0 0 .33-1.638 3.8 3.8 0 0 0-1.2-3.013 5.294 5.294 0 0 0-3.584-1.058h-3.157v8.185zm9.767-1.237a7.507 7.507 0 0 1 .63-1.3 4.147 4.147 0 0 1 .816-.966 3.354 3.354 0 0 1 1.032-.6 3.639 3.639 0 0 1 1.266-.211 4.07 4.07 0 0 1 .733.066 1.883 1.883 0 0 1 .636.234l-.1.792a.233.233 0 0 1-.229.193 1.731 1.731 0 0 1-.437-.085 2.921 2.921 0 0 0-.775-.083 3.344 3.344 0 0 0-1.23.21 2.848 2.848 0 0 0-.96.629 4.058 4.058 0 0 0-.744 1.039 9.793 9.793 0 0 0-.582 1.422v7.728h-1.148V60.305h.612a.4.4 0 0 1 .288.083.487.487 0 0 1 .108.289zm11.449-3.071a5.763 5.763 0 0 1 2.3.437 4.686 4.686 0 0 1 1.71 1.243 5.513 5.513 0 0 1 1.062 1.937 8.965 8.965 0 0 1 0 5.071 5.525 5.525 0 0 1-1.062 1.932 4.624 4.624 0 0 1-1.71 1.236 6.331 6.331 0 0 1-4.6 0 4.678 4.678 0 0 1-1.716-1.236 5.457 5.457 0 0 1-1.067-1.933 8.965 8.965 0 0 1 0-5.071 5.446 5.446 0 0 1 1.067-1.936 4.742 4.742 0 0 1 1.716-1.243 5.761 5.761 0 0 1 2.3-.437zm0 11.388a4.441 4.441 0 0 0 1.866-.366 3.53 3.53 0 0 0 1.331-1.05 4.632 4.632 0 0 0 .8-1.65 8.993 8.993 0 0 0 0-4.326 4.7 4.7 0 0 0-.8-1.663 3.557 3.557 0 0 0-1.331-1.061 4.857 4.857 0 0 0-3.733 0 3.561 3.561 0 0 0-1.332 1.061 4.78 4.78 0 0 0-.8 1.663 8.8 8.8 0 0 0 0 4.326 4.707 4.707 0 0 0 .8 1.65 3.533 3.533 0 0 0 1.332 1.05 4.439 4.439 0 0 0 1.867.365zm8.664.744v-11.94h.636a.318.318 0 0 1 .348.3l.108 1.729a6.216 6.216 0 0 1 1.6-1.609 3.53 3.53 0 0 1 2.028-.611 2.889 2.889 0 0 1 2.094.756 3.916 3.916 0 0 1 1.062 2.1 4.178 4.178 0 0 1 .606-1.272 3.8 3.8 0 0 1 .895-.894 3.627 3.627 0 0 1 1.1-.522 4.451 4.451 0 0 1 1.217-.167 4.136 4.136 0 0 1 1.6.293 3.174 3.174 0 0 1 1.2.87 4.014 4.014 0 0 1 .756 1.417 6.4 6.4 0 0 1 .264 1.92v7.632h-1.14v-7.634a4.109 4.109 0 0 0-.756-2.67 2.638 2.638 0 0 0-2.161-.918 3.185 3.185 0 0 0-1.194.228 2.893 2.893 0 0 0-1.008.678 3.249 3.249 0 0 0-.7 1.122 4.338 4.338 0 0 0-.258 1.56v7.632h-1.157v-7.632a4.4 4.4 0 0 0-.69-2.664 2.366 2.366 0 0 0-2.022-.924 3.088 3.088 0 0 0-1.8.576 5.5 5.5 0 0 0-1.476 1.599v9.049zm19.729-6.445v.228a8.1 8.1 0 0 0 .312 2.364 4.843 4.843 0 0 0 .888 1.71 3.662 3.662 0 0 0 1.392 1.038 4.605 4.605 0 0 0 1.824.348 5.459 5.459 0 0 0 1.56-.2 5.814 5.814 0 0 0 1.11-.444 6.086 6.086 0 0 0 .714-.444.81.81 0 0 1 .384-.2.275.275 0 0 1 .24.12l.312.384a3.256 3.256 0 0 1-.762.672 5.438 5.438 0 0 1-1.056.534 7.694 7.694 0 0 1-1.248.354 6.866 6.866 0 0 1-1.338.132 5.678 5.678 0 0 1-2.232-.426 4.731 4.731 0 0 1-1.728-1.242 5.654 5.654 0 0 1-1.11-2 8.627 8.627 0 0 1-.39-2.706 7.379 7.379 0 0 1 .366-2.37A5.427 5.427 0 0 1 114 61.787a4.827 4.827 0 0 1 1.692-1.231 5.575 5.575 0 0 1 2.274-.443 4.963 4.963 0 0 1 1.872.347 4.253 4.253 0 0 1 1.5 1.014 4.766 4.766 0 0 1 1 1.639 6.308 6.308 0 0 1 .366 2.232.637.637 0 0 1-.072.36.281.281 0 0 1-.24.1zm7.968-.732a5.145 5.145 0 0 0-.27-1.723 3.672 3.672 0 0 0-.762-1.29 3.335 3.335 0 0 0-1.17-.809 3.835 3.835 0 0 0-1.494-.283 4.493 4.493 0 0 0-1.656.289 3.621 3.621 0 0 0-1.266.827 4.15 4.15 0 0 0-.858 1.3 6.048 6.048 0 0 0-.432 1.693zm7.369 7.369a2.569 2.569 0 0 1-1.891-.672 2.813 2.813 0 0 1-.678-2.076v-8.161h-1.716a.325.325 0 0 1-.216-.071.254.254 0 0 1-.084-.2v-.445l2.041-.143.287-4.273a.428.428 0 0 1 .1-.192.251.251 0 0 1 .2-.084h.54v4.561h3.771v.851h-3.77v8.1a2.531 2.531 0 0 0 .125.846 1.592 1.592 0 0 0 .348.582 1.372 1.372 0 0 0 .522.336 1.905 1.905 0 0 0 .649.108 1.991 1.991 0 0 0 .744-.126 3.084 3.084 0 0 0 .54-.276 3.567 3.567 0 0 0 .372-.276.406.406 0 0 1 .228-.126.262.262 0 0 1 .192.12l.312.5a3.328 3.328 0 0 1-1.158.81 3.615 3.615 0 0 1-1.458.307zm6.108-10.116a6.715 6.715 0 0 1 1.89-1.608 4.757 4.757 0 0 1 2.382-.6 4.487 4.487 0 0 1 1.734.311 3.2 3.2 0 0 1 1.242.9 4 4 0 0 1 .744 1.417 6.42 6.42 0 0 1 .252 1.872v7.632h-1.152v-7.632a4.089 4.089 0 0 0-.768-2.634 2.822 2.822 0 0 0-2.34-.954 4.237 4.237 0 0 0-2.178.594 6.152 6.152 0 0 0-1.806 1.65v8.976H134V54.784h1.152zM147.61 65.8v.228a8.1 8.1 0 0 0 .312 2.364 4.843 4.843 0 0 0 .888 1.71 3.658 3.658 0 0 0 1.393 1.038 4.6 4.6 0 0 0 1.824.348 5.452 5.452 0 0 0 1.559-.2 5.826 5.826 0 0 0 1.111-.444 6.086 6.086 0 0 0 .714-.444.81.81 0 0 1 .384-.2.277.277 0 0 1 .24.12l.312.384a3.256 3.256 0 0 1-.762.672 5.448 5.448 0 0 1-1.057.534 7.653 7.653 0 0 1-1.247.354 6.884 6.884 0 0 1-1.339.132 5.685 5.685 0 0 1-2.232-.426 4.731 4.731 0 0 1-1.728-1.242 5.654 5.654 0 0 1-1.11-2 8.627 8.627 0 0 1-.39-2.706 7.379 7.379 0 0 1 .366-2.37 5.427 5.427 0 0 1 1.056-1.872 4.827 4.827 0 0 1 1.692-1.231 5.576 5.576 0 0 1 2.275-.443 4.967 4.967 0 0 1 1.872.347 4.262 4.262 0 0 1 1.5 1.014 4.782 4.782 0 0 1 1 1.639 6.308 6.308 0 0 1 .366 2.232.637.637 0 0 1-.072.36.281.281 0 0 1-.24.1zm7.969-.732a5.145 5.145 0 0 0-.27-1.723 3.659 3.659 0 0 0-.763-1.29 3.34 3.34 0 0 0-1.169-.809 3.842 3.842 0 0 0-1.494-.283 4.5 4.5 0 0 0-1.657.289 3.621 3.621 0 0 0-1.266.827 4.15 4.15 0 0 0-.858 1.3 6.048 6.048 0 0 0-.432 1.693zm13.404-4.763v11.94h-.636a.323.323 0 0 1-.348-.312l-.108-1.776a6.768 6.768 0 0 1-1.914 1.656 4.766 4.766 0 0 1-2.418.624 4.475 4.475 0 0 1-1.74-.312 3.193 3.193 0 0 1-1.236-.9 3.984 3.984 0 0 1-.744-1.416 6.424 6.424 0 0 1-.252-1.872v-7.632h1.152v7.632a4.09 4.09 0 0 0 .768 2.634 2.824 2.824 0 0 0 2.34.954 4.237 4.237 0 0 0 2.178-.594 6.152 6.152 0 0 0 1.806-1.65v-8.976zm10.489 1.476a.3.3 0 0 1-.276.168.625.625 0 0 1-.336-.15 4.882 4.882 0 0 0-.546-.336 4.493 4.493 0 0 0-.846-.337 4.372 4.372 0 0 0-1.224-.15 3.6 3.6 0 0 0-1.182.186 2.953 2.953 0 0 0-.912.5 2.195 2.195 0 0 0-.582.727 1.927 1.927 0 0 0-.2.87 1.484 1.484 0 0 0 .288.936 2.49 2.49 0 0 0 .75.636 5.489 5.489 0 0 0 1.062.456q.6.192 1.218.384t1.218.426a4.427 4.427 0 0 1 1.062.582 2.786 2.786 0 0 1 .75.852 2.431 2.431 0 0 1 .284 1.222 3.785 3.785 0 0 1-.276 1.452 3.236 3.236 0 0 1-.81 1.164 3.912 3.912 0 0 1-1.314.78 5.143 5.143 0 0 1-1.788.288 5.357 5.357 0 0 1-2.172-.4 6.1 6.1 0 0 1-1.633-1.05l.265-.408a.433.433 0 0 1 .137-.144.4.4 0 0 1 .211-.048.641.641 0 0 1 .378.192 4.137 4.137 0 0 0 .594.414 5.081 5.081 0 0 0 .918.414 4.106 4.106 0 0 0 1.35.192 3.879 3.879 0 0 0 1.332-.21 2.77 2.77 0 0 0 .96-.57 2.375 2.375 0 0 0 .582-.846 2.693 2.693 0 0 0 .2-1.026 1.649 1.649 0 0 0-.288-1 2.469 2.469 0 0 0-.756-.672 5.284 5.284 0 0 0-1.062-.468q-.594-.192-1.218-.384t-1.218-.42a4.453 4.453 0 0 1-1.063-.576 2.791 2.791 0 0 1-.756-.846 2.45 2.45 0 0 1-.287-1.243 2.861 2.861 0 0 1 .275-1.223 3.114 3.114 0 0 1 .787-1.032 3.846 3.846 0 0 1 1.242-.709 4.842 4.842 0 0 1 1.644-.263 5.581 5.581 0 0 1 1.938.311 4.573 4.573 0 0 1 1.542.961z" fill="#d65c3a"/>
</svg>
