<svg xmlns="http://www.w3.org/2000/svg" width="200" height="128">
	<defs>
		<radialGradient id="a" cx="39.028" cy="64.398" r="18.571" gradientUnits="userSpaceOnUse">
			<stop offset="0" stop-color="#6f7173"/>
			<stop offset=".5" stop-color="#6d6f71"/>
			<stop offset=".68" stop-color="#66696b"/>
			<stop offset=".808" stop-color="#5b5e5f"/>
			<stop offset=".912" stop-color="#4a4e4f"/>
			<stop offset="1" stop-color="#34393a"/>
		</radialGradient>
		<radialGradient id="b" cx="39.028" cy="64.266" r="14.883" gradientUnits="userSpaceOnUse">
			<stop offset="0" stop-color="#fff"/>
			<stop offset=".35" stop-color="#fdfeff"/>
			<stop offset=".499" stop-color="#f6fafd"/>
			<stop offset=".61" stop-color="#e9f4fb"/>
			<stop offset=".701" stop-color="#d8eaf7"/>
			<stop offset=".781" stop-color="#c1def2"/>
			<stop offset=".853" stop-color="#a4cfed"/>
			<stop offset=".919" stop-color="#82bde6"/>
			<stop offset=".978" stop-color="#5ca9de"/>
			<stop offset="1" stop-color="#4ca0db"/>
		</radialGradient>
		<radialGradient id="c" cx="5327.306" cy="13653.371" r="86.373" gradientTransform="matrix(.069 0 0 -.069 -330 1004.743)" gradientUnits="userSpaceOnUse">
			<stop offset="0" stop-color="#0f91d0"/>
			<stop offset="1" stop-color="#1a54a0"/>
		</radialGradient>
	</defs>
	<path d="M72.816 55.707H78.9a11.511 11.511 0 0 1 2.542.268 5.712 5.712 0 0 1 2.07.894A4.368 4.368 0 0 1 84.9 58.53a6.467 6.467 0 0 1-.012 5.072 4.907 4.907 0 0 1-1.418 1.762 6.044 6.044 0 0 1-2.07 1.023 9.192 9.192 0 0 1-2.5.332h-2.328v5.646h-3.756zm5.851 8.022q3.066 0 3.066-2.657a2.075 2.075 0 0 0-.779-1.84 4.04 4.04 0 0 0-2.287-.536h-2.095v5.033zm9.786-4.037h3.066l.255 2.223h.1A4.9 4.9 0 0 1 93.537 60a3.61 3.61 0 0 1 1.942-.613 5.041 5.041 0 0 1 .881.063 2.716 2.716 0 0 1 .626.192l-.613 3.245a6.063 6.063 0 0 0-.664-.153 4.406 4.406 0 0 0-.715-.051 2.734 2.734 0 0 0-1.5.511 3.691 3.691 0 0 0-1.29 1.814v7.358h-3.751zm9.632 6.337a7.352 7.352 0 0 1 .511-2.824 6.191 6.191 0 0 1 1.367-2.082 5.907 5.907 0 0 1 1.98-1.29 6.243 6.243 0 0 1 2.326-.447 6.142 6.142 0 0 1 2.312.447 5.933 5.933 0 0 1 1.967 1.29 6.191 6.191 0 0 1 1.367 2.082 8.056 8.056 0 0 1 0 5.647 6.181 6.181 0 0 1-1.367 2.082 5.92 5.92 0 0 1-1.967 1.291 6.142 6.142 0 0 1-2.312.447 6.243 6.243 0 0 1-2.326-.447 5.894 5.894 0 0 1-1.98-1.291 6.181 6.181 0 0 1-1.363-2.082 7.34 7.34 0 0 1-.515-2.823zm3.858 0a5.161 5.161 0 0 0 .575 2.632 2.052 2.052 0 0 0 3.488 0 6.194 6.194 0 0 0 0-5.264 2.052 2.052 0 0 0-3.488 0 5.161 5.161 0 0 0-.575 2.632zm13.44-.256-3.654-6.081h4.037l1.124 2.044c.17.358.345.721.524 1.086s.362.728.55 1.086h.1c.136-.358.281-.719.434-1.086s.3-.728.435-1.086l.868-2.044h3.884l-3.679 6.516 3.909 6.157h-4.035l-1.227-2.095c-.2-.357-.4-.724-.6-1.1s-.4-.742-.6-1.1h-.1c-.153.357-.315.72-.485 1.086s-.332.737-.485 1.111l-1 2.095H111.5zm11.242 8.534a2.019 2.019 0 0 0 .435.052 2.107 2.107 0 0 0 1.456-.46 2.824 2.824 0 0 0 .767-1.2l.178-.665-4.879-12.341h3.781l1.814 5.443q.281.868.511 1.762t.486 1.84h.1q.2-.894.421-1.8t.447-1.8l1.534-5.443h3.6l-4.4 12.8a17.1 17.1 0 0 1-.958 2.108 5.9 5.9 0 0 1-1.149 1.508 4.458 4.458 0 0 1-1.482.907 5.656 5.656 0 0 1-1.955.306 6.675 6.675 0 0 1-1-.064 4.829 4.829 0 0 1-.791-.191l.664-2.862q.195.049.42.1zm13.21-4.752a6.885 6.885 0 0 0 2.223 1.712 6.35 6.35 0 0 0 2.836.638 5.877 5.877 0 0 0 1.839-.268 4.233 4.233 0 0 0 1.393-.741 3.318 3.318 0 0 0 .894-1.137 3.37 3.37 0 0 0 .32-1.482 3.494 3.494 0 0 0-.256-1.418 3.269 3.269 0 0 0-.677-1 4.26 4.26 0 0 0-.984-.728c-.375-.2-.775-.4-1.2-.588l-2.606-1.175a12.782 12.782 0 0 1-1.137-.562 5.728 5.728 0 0 1-1.111-.8 3.844 3.844 0 0 1-.843-1.15 3.642 3.642 0 0 1-.333-1.623 3.707 3.707 0 0 1 .358-1.635 3.853 3.853 0 0 1 1-1.278 4.62 4.62 0 0 1 1.507-.83 5.889 5.889 0 0 1 1.891-.294 5.8 5.8 0 0 1 2.695.6 6.965 6.965 0 0 1 1.9 1.392l-.511.562a5.615 5.615 0 0 0-1.763-1.3 5.365 5.365 0 0 0-2.325-.485 4.384 4.384 0 0 0-2.849.881 2.863 2.863 0 0 0-1.086 2.339 2.81 2.81 0 0 0 .294 1.341 3.369 3.369 0 0 0 .741.945 4.776 4.776 0 0 0 .958.664q.512.269.971.473l2.606 1.176q.69.306 1.342.676a5.172 5.172 0 0 1 1.149.882 3.837 3.837 0 0 1 .792 1.214 4.322 4.322 0 0 1 .294 1.673 4.07 4.07 0 0 1-.383 1.771 4.293 4.293 0 0 1-1.073 1.405 4.944 4.944 0 0 1-1.661.933 6.608 6.608 0 0 1-2.146.332 7.031 7.031 0 0 1-3.271-.715 7.847 7.847 0 0 1-2.35-1.84zm26.93 6.439q-.307.077-.831.166a6.66 6.66 0 0 1-1.111.089 5.527 5.527 0 0 1-3.424-1.022 5.7 5.7 0 0 1-1.942-2.58 5.977 5.977 0 0 1-2.568-.767 6.43 6.43 0 0 1-2.005-1.814 8.7 8.7 0 0 1-1.3-2.708 12.247 12.247 0 0 1-.46-3.475 11.865 11.865 0 0 1 .511-3.6 8.294 8.294 0 0 1 1.418-2.734 6.312 6.312 0 0 1 2.159-1.737 6.479 6.479 0 0 1 5.506 0 6.291 6.291 0 0 1 2.172 1.737 8.332 8.332 0 0 1 1.418 2.734 11.9 11.9 0 0 1 .511 3.6 12.213 12.213 0 0 1-.473 3.5 8.517 8.517 0 0 1-1.329 2.721 6.56 6.56 0 0 1-2.031 1.8 5.811 5.811 0 0 1-2.58.742 4.414 4.414 0 0 0 1.7 2.057 5.038 5.038 0 0 0 2.772.728 6.405 6.405 0 0 0 .984-.064q.4-.064.7-.141zM153.99 63.883a11.824 11.824 0 0 0 .434 3.309 8.07 8.07 0 0 0 1.213 2.554 5.472 5.472 0 0 0 1.878 1.636 5.492 5.492 0 0 0 4.893 0 5.431 5.431 0 0 0 1.891-1.636 8.071 8.071 0 0 0 1.214-2.554 11.861 11.861 0 0 0 .434-3.309 11.6 11.6 0 0 0-.434-3.284 7.8 7.8 0 0 0-1.214-2.5 5.29 5.29 0 0 0-1.891-1.584 5.726 5.726 0 0 0-4.893 0 5.326 5.326 0 0 0-1.878 1.584 7.8 7.8 0 0 0-1.213 2.5 11.559 11.559 0 0 0-.434 3.284zm17.271-8.383h.818v16.15H180v.715h-8.739z" fill="#575757"/>
	<path d="m25.92 51.187 2.977 1.08.519.647a14.854 14.854 0 0 0-5.06 8.855l-.867-.143-1.215-1.026-1.208-1.02a18.591 18.591 0 0 1 4.854-8.393zm-1.777 13.076c0-.128 0-.256.007-.384a14.947 14.947 0 0 1 .206-2.11l-.867-.143-2.636.967-.341.121a21.1 21.1 0 0 0-.071 1.648 18.512 18.512 0 0 0 1.759 7.917l3.177.007.924-.312a14.771 14.771 0 0 1-2.158-7.711zm1.237 8.023-.121.2-1.459 2.536a18.669 18.669 0 0 0 7.362 6.19L33.6 79.18l.32-.931a14.975 14.975 0 0 1-7.62-6.275zm8.535 5.963-.32.931.554 3.127a18.73 18.73 0 0 0 9.7.014l.554-3.113 2.43 2.033a18.6 18.6 0 0 0 7.455-6.268L53.1 72.905l-.39-.683-.96-.248a14.885 14.885 0 0 1-17.837 6.275zm20.651-16.644-.867.142a16.071 16.071 0 0 1 .206 2.132c.008.128.008.256.008.384a14.771 14.771 0 0 1-2.161 7.711l.96.248h.021l3.148-.007a18.409 18.409 0 0 0 1.734-7.853c0-.554-.028-1.115-.078-1.67zm0 0 .007-.007v-.007l.761-.64 1.656-1.385a18.647 18.647 0 0 0-4.847-8.372l-2.978 1.08-.98.27a14.9 14.9 0 0 1 5.514 9.2zM40.645 45.85l-1.585 2.743-.014.789a15.158 15.158 0 0 1 3.873.519 14.815 14.815 0 0 1 5.266 2.643l.98-.27.548-3.12a18.5 18.5 0 0 0-9.068-3.304zm-3.7 3.681a14.434 14.434 0 0 1 2.082-.149h.015l.014-.789-1.592-2.75a18.555 18.555 0 0 0-9.111 3.3l.54 3.12.519.647a14.815 14.815 0 0 1 5.725-3.01 14.23 14.23 0 0 1 1.812-.369z" fill="url(#a)"/>
	<path d="M53.911 64.266a14.883 14.883 0 0 1-29.766 0v-.383a14.883 14.883 0 0 1 29.757 0v.383z" fill="url(#b)"/>
	<path d="M22.552 67.508a76.021 76.021 0 0 0-.1-.513 10.44 10.44 0 0 0-.037-.171l-.005-.019a.293.293 0 0 0-.279-.164h-.026a.288.288 0 0 0-.059.006c-.226.048-.3.157-.248.389l.058.289.009.045.055.282c.009.043.02.086.033.135l.019.076v.01l.333-.081.267-.042v-.007l.007-.031a.1.1 0 0 0 .005-.039l-.033-.167zm.009.2-.006.026-.25.039-.314.076-.017-.067a2.429 2.429 0 0 1-.025-.1l-.007-.032-.056-.281-.067-.335c-.046-.223.015-.319.233-.366a.254.254 0 0 1 .056-.005h.127l.017.005.017.006.017.008.015.008.014.01.013.011.012.011.009.01.007.011v.016l.005.011v.022l.036.171c.036.172.069.344.1.513l.032.167a.074.074 0 0 1 0 .03zM24.529 56.5c.056.034.114.07.173.1a.261.261 0 0 0 .119.029.252.252 0 0 0 .2-.1.275.275 0 0 0 .019-.028q.168-.288.323-.583a.258.258 0 0 0-.1-.363 1.65 1.65 0 0 0-.138-.072l-.03-.014c-.025-.012-.051-.023-.076-.036l-.325-.18h-.008l-.026-.01a.105.105 0 0 1-.045-.022.192.192 0 0 0-.149-.07.268.268 0 0 0-.076.011.3.3 0 0 0-.191.168 13.104 13.104 0 0 1-.191.346l-.083.147a.3.3 0 0 0-.039.241.318.318 0 0 0 .191.177l.381.211.076.047zm-.448-.276a.3.3 0 0 1-.181-.165.278.278 0 0 1 .038-.225l.082-.147c.064-.113.13-.23.192-.347a.272.272 0 0 1 .249-.168.171.171 0 0 1 .134.063.112.112 0 0 0 .054.028l.024.009.332.184.077.036a1.856 1.856 0 0 1 .166.085.24.24 0 0 1 .1.337c-.1.2-.211.39-.323.582a.227.227 0 0 1-.14.106.209.209 0 0 1-.061.008.235.235 0 0 1-.11-.027c-.047-.024-.093-.052-.138-.079l-.034-.021-.076-.047zm7.87-7.845a.2.2 0 0 0 .113.123q.026.014.051.024a1.318 1.318 0 0 1 .134.071c.019.011.038.023.058.033.017 0 .035.006.052.009l.049.007a.408.408 0 0 1 .06.016l.19.078.149.064.127.055.021.019a.163.163 0 0 1 .026.027v.008a.113.113 0 0 1-.006.036.334.334 0 0 1-.018.05l-.01.023c-.045.117-.1.243-.145.373l-.173.439a.2.2 0 0 0-.01.168.189.189 0 0 0 .06.066h.006l.036-.017.026-.013.046-.022a.749.749 0 0 1 .1-.041l.019-.007a.3.3 0 0 0 .186-.213c.035-.117.074-.234.114-.349l.063-.185.007-.02.021-.062.012-.029.026-.051.008-.015.012-.022.06.023.057.021.074.029.17.071c.115.048.234.1.353.142a.433.433 0 0 0 .143.035.146.146 0 0 0 .044-.006l.145-.053a1.852 1.852 0 0 0 .326-.165l.009-.006-.007-.009c-.015-.017-.029-.033-.041-.049s-.032-.039-.048-.055a.187.187 0 0 0-.03-.026.212.212 0 0 0-.049-.027.465.465 0 0 0-.052-.02l-.042-.016-.743-.3-.155-.052.21-.49.187-.484-.053-.157h-.01c-.035.016-.07.03-.106.043l-.072.029h-.007l-.043.019h-.014l-.04.022-.011.008-.011.007-.026.021a.324.324 0 0 0-.1.16l-.234.682-.7-.3h-.067a.422.422 0 0 0-.138.016 2.425 2.425 0 0 0-.308.137l-.018.009a.17.17 0 0 0-.051.049l-.007.008-.013.015v.01zm.537-.224h.061l.721.312.241-.7a.3.3 0 0 1 .06-.117.586.586 0 0 1 .254-.148l.1-.039.044.13-.185.476-.218.51.175.058.743.3.043.016a.344.344 0 0 1 .095.044.259.259 0 0 1 .048.046l.026.031.013.016.021.026a2.043 2.043 0 0 1-.457.209.1.1 0 0 1-.037 0 .378.378 0 0 1-.119-.027l-.017-.006c-.118-.045-.237-.095-.352-.143l-.17-.07-.054-.021-.11-.042-.039-.016h-.009v.008l-.023.044-.018.034a.3.3 0 0 0-.021.049l-.029.082c-.06.175-.122.355-.177.535a.283.283 0 0 1-.192.207.661.661 0 0 0-.1.04l-.052.024-.056.027c-.086-.065-.068-.132-.039-.207.111-.279.223-.565.319-.812l.009-.023a.243.243 0 0 0 .025-.082.037.037 0 0 0 0-.011c0-.02-.019-.037-.038-.053l-.011-.01-.01-.01-.129-.055c-.111-.048-.225-.1-.34-.142a.486.486 0 0 0-.113-.025l-.05-.008-.056-.032-.026-.015a1.266 1.266 0 0 0-.11-.057L32.1 48.5a.205.205 0 0 1-.128-.118l.016-.021.018-.021a.09.09 0 0 1 .023-.018l.019-.009a2.761 2.761 0 0 1 .3-.136.409.409 0 0 1 .132-.014zm24.147 18.482-.018-.024a.45.45 0 0 0-.336-.247l-.446-.073-.409-.07a.39.39 0 0 0-.09-.019h-.029a.448.448 0 0 0-.3.146.174.174 0 0 1-.026.019l-.014.009-.015.01a.263.263 0 0 0-.12.2c-.017.117-.038.235-.059.351l-.021.114q-.018.09-.033.18l-.09.023-.059.014-.156.043c-.029.008-.1.032-.1.065s-.014.069-.023.106a.871.871 0 0 0-.033.2.461.461 0 0 0 .019.134v.008l.046-.007.312-.047-.012.037a.368.368 0 0 0 .059.334l.017.023c.014.017.027.036.04.054a.5.5 0 0 0 .163.162.26.26 0 0 0 .112.027l.412.07.448.077a.544.544 0 0 0 .138.019.337.337 0 0 0 .255-.11.112.112 0 0 1 .035-.023l.019-.01a.388.388 0 0 0 .176-.3c.045-.279.089-.553.138-.828.016-.093.034-.185.051-.278v-.025a.473.473 0 0 0-.052-.361zm-.329 1.781-.018.009a.162.162 0 0 0-.041.027.315.315 0 0 1-.24.1.563.563 0 0 1-.134-.018l-.449-.077-.413-.07h-.024a.346.346 0 0 1-.237-.18c-.013-.018-.026-.037-.04-.054a.363.363 0 0 1-.056-.39l.006-.016-.374.056a.417.417 0 0 1-.016-.105.658.658 0 0 1 .019-.155l.013-.056c.009-.035.018-.071.024-.107 0-.014.039-.035.088-.05s.1-.029.155-.041l.056-.014.027-.007.069-.017h.006v-.006l.013-.072.021-.114c.029-.152.058-.31.08-.466a.245.245 0 0 1 .112-.191l.014-.009.012-.007a.249.249 0 0 0 .031-.023.537.537 0 0 1 .2-.128.3.3 0 0 1 .089-.013.343.343 0 0 1 .114.02l.857.143a.436.436 0 0 1 .323.238.463.463 0 0 1 .062.4l-.052.277-.011.065c-.045.255-.086.51-.127.769a.374.374 0 0 1-.167.287z" fill="#231f20"/>
	<path d="M56.136 66.88a7.055 7.055 0 0 0-.28-.044l-.123-.019-.108-.021a5.81 5.81 0 0 0-.243-.047.368.368 0 0 0-.058 0 .258.258 0 0 0-.262.225c-.028.144-.052.291-.076.433l-.031.187a.254.254 0 0 0 .2.313c.084.018.171.03.255.042l.113.016.135.027c.1.022.211.044.317.061h.023a.282.282 0 0 0 .246-.191c.051-.269.088-.488.114-.69a.255.255 0 0 0-.222-.292zm.2.287v.038c-.026.191-.061.4-.109.65a.266.266 0 0 1-.21.174h-.037c-.106-.018-.213-.04-.316-.061l-.135-.027-.114-.017c-.084-.012-.17-.024-.254-.042a.234.234 0 0 1-.184-.29l.031-.186c.023-.142.047-.289.076-.433a.239.239 0 0 1 .242-.209.262.262 0 0 1 .055.005c.081.013.163.03.242.046l.108.022.124.018.21.032.07.012a.239.239 0 0 1 .206.268zm-33.463.5-.185-.914.046-.033.015-.01.082-.057.176-.121.177-.121a.282.282 0 0 0 .046-.038.13.13 0 0 0 .04-.127l-.054-.258-.024-.116h-.006a.29.29 0 0 0-.059-.009h-.024a.267.267 0 0 0-.126.065l-.033.025-.128.089-.189.136-.128.093a.092.092 0 0 1-.052.022.13.13 0 0 1-.081-.05l-.009-.009-.015-.013a.463.463 0 0 0-.091-.063.349.349 0 0 0-.159-.039h-.037l-.444.123-.032.062a.8.8 0 0 1-.077.129.365.365 0 0 0-.063.328c.064.3.126.615.186.915l.124.608.006.028a.895.895 0 0 0 .028.078l.009.023.008.022v.008l.6-.126.45-.086.784-.179-.1-.506-.658.117zm-.028.549-.45.086-.581.122-.014-.037a.621.621 0 0 1-.034-.1l-.123-.608c-.061-.3-.123-.611-.187-.915a.347.347 0 0 1 .06-.312.833.833 0 0 0 .078-.132l.031-.057.434-.12a.347.347 0 0 1 .27.1l.023.021a.258.258 0 0 0 .054.045.1.1 0 0 0 .041.01.1.1 0 0 0 .064-.025l.128-.093c.1-.074.21-.152.316-.225l.034-.026a.268.268 0 0 1 .1-.056.135.135 0 0 1 .041-.006.169.169 0 0 1 .048.007l.022.1.054.258c.014.066-.021.106-.078.145l-.176.114-.085.058-.091.062-.018.012-.042.03-.037.026-.057.04.055.273.136.673.329-.059.329-.059.094.469zM24.356 57a.44.44 0 0 1 .045.03.471.471 0 0 0 .294.1h.042a.712.712 0 0 0 .214-.057.384.384 0 0 0 .208-.171l.121-.222.162-.293c.084-.15.17-.3.254-.458l.071-.134.016-.035.02-.048a.291.291 0 0 0 .018-.1 1.007 1.007 0 0 0-.06-.269v-.013a.263.263 0 0 0-.138-.171c-.089-.046-.176-.1-.26-.149l-.109-.064-.306-.17-.06-.029-.066-.032a.677.677 0 0 1-.065-.036l-.024-.014a.312.312 0 0 0-.154-.044.225.225 0 0 0-.062.008l-.022.006-.04.016a.519.519 0 0 1-.086.031.362.362 0 0 0-.234.155.608.608 0 0 0-.039.064l-.026.051c-.135.259-.31.587-.5.906a.531.531 0 0 0-.075.5.353.353 0 0 0 .115.212.472.472 0 0 0 .128.079.1.1 0 0 1 .026.017l.015.011.346.2c.03.016.061.03.091.044a1.377 1.377 0 0 1 .148.076zm-.575-.331-.012-.01a.154.154 0 0 0-.031-.021.352.352 0 0 1-.232-.277.478.478 0 0 1 .036-.418c.012-.022.024-.045.038-.068.182-.3.347-.6.478-.854l.054-.1a.508.508 0 0 1 .05-.079l.021-.024a.331.331 0 0 1 .165-.1l.022-.006a.325.325 0 0 0 .06-.02l.029-.012.039-.016a.253.253 0 0 1 .077-.012.3.3 0 0 1 .145.041l.022.014.066.036c.023.012.045.023.068.033l.059.029.306.169.107.064c.085.051.173.1.262.149a.242.242 0 0 1 .128.16v.013c.022.073.038.128.048.173l.006.033v.015a.322.322 0 0 1 0 .043v.013a.765.765 0 0 1-.123.291l-.159.289-.094.17c-.058.1-.117.21-.175.316l-.109.2a.311.311 0 0 1-.106.116.566.566 0 0 1-.092.047.634.634 0 0 1-.248.057.452.452 0 0 1-.074-.006.434.434 0 0 1-.136-.049.55.55 0 0 1-.064-.043.754.754 0 0 0-.07-.045c-.041-.023-.084-.043-.126-.063l-.091-.043-.345-.194zm30.52.486a.451.451 0 0 0-.071-.44c-.127-.2-.244-.409-.358-.612l-.006-.01-.048-.086a.228.228 0 0 1-.02-.214.234.234 0 0 1 .092-.1.3.3 0 0 1 .095-.038h.044a.22.22 0 0 1 .187.121q.117.188.223.383c.033.061.063.126.091.188l.02.043.02.044.069.119.132.228c.041.072.081.1.131.1a.173.173 0 0 0 .056-.011.319.319 0 0 0 .042-.018c.028-.015.055-.032.081-.048l.035-.023h.007v-.008l-.008-.025a.235.235 0 0 0-.015-.048l-.007-.013q-.339-.588-.68-1.174l-.159-.274-.081-.024a2.507 2.507 0 0 0-.193-.055l-.034-.007c-.034 0-.068-.008-.1-.01l-.06-.005-.344.2-.176.408c.048.083.1.166.145.25.129.221.261.45.4.672l.026.046a.19.19 0 0 1 0 .193.412.412 0 0 1-.144.133.134.134 0 0 1-.03.012.167.167 0 0 1-.03.008h-.03a.258.258 0 0 1-.212-.157l-.57-1-.021-.032a1.448 1.448 0 0 0-.054-.082l-.038-.057-.005-.008-.25.155v.008l.033.064.014.029.041.077.226.391c.163.28.331.569.492.856a.4.4 0 0 0 .137.147.643.643 0 0 0 .126.06.65.65 0 0 0 .222.044.418.418 0 0 0 .282-.108l.017-.007h.013a.585.585 0 0 0 .144-.1.359.359 0 0 0 .1-.183zm-1.608-1.4.033.049.041.06.033.053q.221.384.44.769l.013.022.117.2a.284.284 0 0 0 .213.167h.017a.206.206 0 0 0 .065-.011.388.388 0 0 0 .186-.154.208.208 0 0 0 .028-.1.2.2 0 0 0-.006-.048c0-.01-.006-.021-.009-.031l-.014-.032q-.012-.024-.027-.048c-.136-.223-.269-.451-.4-.672l-.143-.246.17-.392.332-.189h.058l.063.005c.023 0 .047.006.069.011.051.012.1.027.152.042l.04.013.077.023.155.267.68 1.174.006.012a.222.222 0 0 1 .012.039l.006.019-.03.019-.051.032-.028.015a.309.309 0 0 1-.06.025.134.134 0 0 1-.035 0 .1.1 0 0 1-.03 0 .139.139 0 0 1-.021-.011.237.237 0 0 1-.063-.077l-.1-.169-.033-.059-.069-.119a2.211 2.211 0 0 1-.04-.085c-.029-.063-.058-.128-.092-.189l-.111-.2a4.402 4.402 0 0 0-.112-.187.238.238 0 0 0-.2-.129.283.283 0 0 0-.144.044l-.022.015a.23.23 0 0 0-.038.032.235.235 0 0 0-.019.29l.054.1c.113.2.231.413.358.613a.782.782 0 0 1 .049.087.429.429 0 0 1 .049.184.4.4 0 0 1-.029.153.39.39 0 0 1-.195.251l-.039.022h-.01a.051.051 0 0 0-.025.011.443.443 0 0 1-.141.082.391.391 0 0 1-.128.022.638.638 0 0 1-.215-.044.416.416 0 0 1-.066-.027.39.39 0 0 1-.187-.171 62.221 62.221 0 0 0-.492-.856l-.226-.391-.014-.024-.041-.08-.028-.057.218-.135zM28.347 77.114a7.702 7.702 0 0 1-.384-.348.419.419 0 0 0-.344-.123.317.317 0 0 0-.272.217.248.248 0 0 0 .083.3c.121.1.241.207.356.311l.169.15.1.081.051.042.007.006.421-.477-.007-.006zm-.24.611-.044-.037-.095-.079-.169-.151c-.115-.1-.235-.211-.356-.312a.228.228 0 0 1-.078-.278l.007-.016a.294.294 0 0 1 .248-.189h.037a.39.39 0 0 1 .292.118c.122.12.25.231.385.349l.168.148-.395.448z" fill="#231f20"/>
	<path d="m28.705 77.041-.034-.025-.009-.007a.617.617 0 0 1-.055-.043l-.126-.112-.1-.088c-.166-.148-.335-.3-.5-.45l-.017-.015a.3.3 0 0 0-.268-.077.575.575 0 0 1-.1.008h-.186a.287.287 0 0 0-.229.129.243.243 0 0 1-.02.025l-.028.027-.012.012-.012.011-.017.017a.436.436 0 0 0-.133.421.5.5 0 0 0 .214.374 21.507 21.507 0 0 1 .384.335l.023.02.18.161.165.146.021.019c.111.1.225.2.335.3a.175.175 0 0 0 .111.056.1.1 0 0 0 .03 0 .158.158 0 0 0 .05-.03l.163-.18.08-.088.066-.073.275-.309.589-.689-.389-.354-.452.493zm.814-.137-.577.674-.275.309-.308.341a.107.107 0 0 1-.067.028.148.148 0 0 1-.1-.051l-.21-.188-.147-.129-.165-.146-.18-.16-.018-.017c-.09-.081-.183-.164-.277-.245l-.112-.095-.023-.025a.453.453 0 0 1-.181-.339.417.417 0 0 1 .126-.4l.015-.014.014-.014a.5.5 0 0 0 .063-.067l.021-.027a.264.264 0 0 1 .192-.094h.188a.578.578 0 0 0 .1-.008h.06a.263.263 0 0 1 .155.051l.023.018.024.021c.146.133.3.267.442.4l.008.007.008.007.141.126.126.112.022.018.043.033.009.006.032.024.007.006.451-.492.361.328zm15.088-28.669c0 .006 0 .014.005.022v.017l.244.508a.354.354 0 0 1 .044.058.236.236 0 0 1-.018.266 2.7 2.7 0 0 0-.143.273l-.065.134-.005.008.456.23h.005l.02-.013a.062.062 0 0 0 .022-.02l.044-.084.032-.063.035-.063q.048-.082.09-.168l.007-.013c.063-.124.071-.129.271-.155h.045l.083-.011.085-.016a2.62 2.62 0 0 0 .2-.04c.087-.022.175-.048.26-.073l.112-.033.172-.339.087-.224-.422-.215-.145.195-.033.08-.034.083a1.79 1.79 0 0 1-.054.116.139.139 0 0 1-.085.061l-.3.057-.147.026-.153.027-.081-.161V48.7a6.55 6.55 0 0 1-.188-.389.152.152 0 0 1 0-.122.426.426 0 0 1 .046-.079l.016-.023.031-.045.131-.312-.132-.1-.317-.116-.163.292-.015.026-.01.035a.242.242 0 0 1-.026.07.244.244 0 0 0-.005.3v.005zm.018-.3a.249.249 0 0 0 .029-.076l.009-.032.169-.3.172.063.125.046.119.091-.125.3-.015.023-.014.019c-.012.018-.025.035-.036.053a.194.194 0 0 0-.029.191q.036.081.075.162l.114.228.087.172h.02l.145-.025.147-.026c.1-.018.2-.036.3-.057a.155.155 0 0 0 .1-.071l.029-.06a2.2 2.2 0 0 0 .059-.141l.021-.049.012-.029.134-.181.391.2-.08.206-.168.33-.108.032-.036.011c-.074.022-.148.043-.223.062s-.131.028-.2.04l-.086.016-.106.014c-.233.03-.237.031-.313.181a3.297 3.297 0 0 1-.075.142l-.015.025c-.024.042-.046.085-.068.127l-.043.084-.005.005-.011.007h-.007l-.009.006-.427-.215.06-.125q.028-.06.057-.117c.027-.054.055-.105.085-.154a.258.258 0 0 0-.026-.347l-.242-.5v-.031l-.007-.017a.211.211 0 0 1-.016-.218.391.391 0 0 1 .031-.056zm5.657 28.553a1.641 1.641 0 0 0-.059-.059 2.089 2.089 0 0 1-.129-.137.207.207 0 0 0-.185-.087l-.166.01h-.018c-.1 0-.2.011-.292.022a.26.26 0 0 0-.136.074l-.325.285-.557.5c-.034.03-.064.061-.1.1l-.055.055-.006.007.2.221.007-.005.039-.024a.405.405 0 0 0 .059-.041l.018-.016c.208-.184.423-.373.633-.562a.32.32 0 0 1 .508 0 .544.544 0 0 1 .046.057l.265.3.339.38.182.177.443-.4-.166-.223-.548-.619zm.271 1.218-.168-.163-.3-.344-.031-.033-.267-.3a.382.382 0 0 0-.3-.19.432.432 0 0 0-.282.131q-.2.183-.407.363l-.225.2-.018.016a.315.315 0 0 1-.029.022l-.027.017-.032.02-.18-.194.048-.049c.035-.036.066-.068.1-.1.327-.291.6-.535.882-.78a.343.343 0 0 1 .083-.057.121.121 0 0 1 .042-.013c.1-.011.208-.017.31-.022l.166-.01h.024a.194.194 0 0 1 .143.081l.032.035c.032.036.066.07.1.1s.039.039.058.058l.548.618.154.209-.416.378z" fill="#231f20"/>
	<path d="M45.651 61.691a6.126 6.126 0 0 0-4.328-2.618 7.211 7.211 0 0 0-4.661 1.027 1.246 1.246 0 0 1 .056-1.312A5.1 5.1 0 0 1 39 57.1a6.956 6.956 0 0 1 2.548-.43 10.432 10.432 0 0 1 2.364.324c.424.1.989.294.989.294a7.684 7.684 0 0 0-3.155-.912 7.916 7.916 0 0 0-4.5 1.006 8.187 8.187 0 0 0-2.618 2.446 5.159 5.159 0 0 0-.9 2.971 5.855 5.855 0 0 0 1.011 3.216 6.39 6.39 0 0 0 2.16 2.049 5.844 5.844 0 0 0 1.66.619 1.948 1.948 0 0 0 .206.028 2.545 2.545 0 0 1-.9.637 3.354 3.354 0 0 1-1.942.258 6.405 6.405 0 0 1-3.586-2.282 6.913 6.913 0 0 1-1.848-3.853 9.814 9.814 0 0 1 .147-3.349 10.668 10.668 0 0 1 .521-1.661 8.338 8.338 0 0 0-.9 3.323 9.465 9.465 0 0 0 .7 4.182 8.183 8.183 0 0 0 2.186 3.113 7.079 7.079 0 0 0 4.492 1.8 6.493 6.493 0 0 0 4.644-1.8 7.676 7.676 0 0 0 2.121-3.618 10.8 10.8 0 0 0 .316-2.336 4.687 4.687 0 0 1 1.33 2.42 6.74 6.74 0 0 1-.909 4.507 8.98 8.98 0 0 1-3.106 3.154 10.882 10.882 0 0 0 2.925-2.2 8.7 8.7 0 0 0 1.984-4.639 6.86 6.86 0 0 0-1.289-4.677z" fill="#b0d3e4"/>
	<path d="M43.7 62.554a4.607 4.607 0 0 0-3.208-1.763 5.761 5.761 0 0 0-3.455.688.775.775 0 0 1 .042-.883 3.781 3.781 0 0 1 1.691-1.136 5.611 5.611 0 0 1 1.888-.29 8.492 8.492 0 0 1 1.753.218c.314.067.732.2.732.2a6.1 6.1 0 0 0-2.338-.614 6.335 6.335 0 0 0-3.332.678 5.86 5.86 0 0 0-1.94 1.648 3.24 3.24 0 0 0-.669 2 3.687 3.687 0 0 0 .749 2.165 4.466 4.466 0 0 0 2.831 1.8c.087.015.152.019.152.019a1.878 1.878 0 0 1-.668.429 2.7 2.7 0 0 1-1.439.173 4.845 4.845 0 0 1-2.658-1.536 4.477 4.477 0 0 1-1.37-2.594 6.032 6.032 0 0 1 .109-2.254 6.7 6.7 0 0 1 .386-1.118 5.248 5.248 0 0 0-.67 2.237 5.862 5.862 0 0 0 .515 2.815 5.568 5.568 0 0 0 4.95 3.307 5.085 5.085 0 0 0 5.023-3.644 6.619 6.619 0 0 0 .234-1.572 3.121 3.121 0 0 1 .986 1.629 4.194 4.194 0 0 1-.674 3.034 6.42 6.42 0 0 1-2.3 2.123 8.07 8.07 0 0 0 2.168-1.48 5.6 5.6 0 0 0 1.47-3.123 4.314 4.314 0 0 0-.955-3.148z" fill="url(#c)"/>
	<path d="m50.814 77.126.156.206-.419.377-.163-.164-.306-.341-.035-.036c-.086-.1-.178-.2-.263-.3a.391.391 0 0 0-.306-.185.428.428 0 0 0-.277.128c-.135.121-.27.242-.412.363-.071.071-.15.135-.221.2l-.021.014a.055.055 0 0 1-.028.028c-.007 0-.015.007-.029.014s-.021.015-.028.022l-.178-.2.043-.043a1.148 1.148 0 0 1 .1-.1c.327-.292.6-.533.881-.782a.729.729 0 0 1 .086-.057c.014-.007.028-.007.042-.014l.313-.021c.05 0 .107-.008.164-.008h.021a.183.183 0 0 1 .142.079l.036.035a.624.624 0 0 0 .1.1c.021.021.036.042.057.064zM46.28 48.238l-.135.177c0 .015-.007.022-.007.029a.341.341 0 0 1-.021.049c-.022.05-.036.1-.057.143-.014.021-.022.042-.036.064a.158.158 0 0 1-.092.071c-.107.021-.206.035-.306.056l-.149.022a1.115 1.115 0 0 1-.149.028h-.014l-.008.007v-.007a2.943 2.943 0 0 0-.085-.177 3.704 3.704 0 0 1-.113-.228 1.171 1.171 0 0 1-.079-.163.191.191 0 0 1 .029-.185l.035-.057c.014-.021.007-.014.015-.021s.014-.014.014-.022l.128-.3-.121-.085-.129-.048-.171-.064-.163.306c-.007.007-.007.021-.014.028a.258.258 0 0 1-.029.078.215.215 0 0 0-.023.061.2.2 0 0 0 .021.22.028.028 0 0 1 .007.022h.007v.028l.242.505a.261.261 0 0 1 .028.348c-.028.05-.056.1-.085.156-.021.036-.035.078-.057.114l-.064.128.434.213a.007.007 0 0 1 .007-.007l.007-.007a.007.007 0 0 0 .007-.007h.007l.043-.086a1.268 1.268 0 0 1 .071-.128c0-.007.007-.014.014-.028.029-.057.057-.1.071-.135.078-.156.086-.156.313-.185a.571.571 0 0 0 .107-.014c.028-.007.056-.007.085-.014a1.768 1.768 0 0 0 .2-.043 2.224 2.224 0 0 0 .22-.057l.036-.014a.666.666 0 0 1 .113-.028l.164-.334.078-.206zm7.732 9.2c.007 0 .014-.008.028-.008h.008c.014-.007.028-.021.042-.028a.366.366 0 0 0 .192-.249.373.373 0 0 0 .029-.153.368.368 0 0 0-.05-.185 1.296 1.296 0 0 0-.05-.092c-.128-.2-.242-.405-.355-.611l-.057-.093a.242.242 0 0 1 .021-.291l.036-.036c.007 0 .014-.007.021-.014a.3.3 0 0 1 .149-.042.23.23 0 0 1 .2.127 1.734 1.734 0 0 1 .114.192c.043.064.078.128.114.192s.064.128.092.192c.014.029.021.057.036.085l.071.121.035.057c.029.057.064.114.093.171a.384.384 0 0 0 .064.078c.007 0 .014.007.021.007a.063.063 0 0 0 .035.007.045.045 0 0 0 .029-.007l.064-.021a.083.083 0 0 1 .028-.022.18.18 0 0 0 .05-.028c.007-.007.021-.014.028-.021s0-.008-.007-.015-.007-.028-.007-.042-.007-.007-.007-.015l-.679-1.172-.157-.263a.28.28 0 0 1-.071-.029l-.042-.007a.607.607 0 0 0-.149-.042c-.029-.007-.05-.007-.072-.014a.179.179 0 0 1-.064-.008h-.056l-.334.185-.171.4a49.16 49.16 0 0 0 .542.917.122.122 0 0 1 .029.05c.007.007.007.014.014.028a.043.043 0 0 1 .007.029.137.137 0 0 1 .007.049.181.181 0 0 1-.028.1.371.371 0 0 1-.185.156.2.2 0 0 1-.064.007h-.014a.281.281 0 0 1-.214-.163l-.12-.206-.015-.022a46.756 46.756 0 0 0-.44-.767c-.007-.021-.022-.036-.029-.057s-.028-.036-.042-.057a.248.248 0 0 0-.036-.05l-.213.135a.2.2 0 0 0 .028.057.36.36 0 0 1 .036.078.06.06 0 0 1 .014.029c.078.128.157.256.228.391.163.277.334.568.49.853a.453.453 0 0 0 .192.17.24.24 0 0 0 .064.028.616.616 0 0 0 .213.043.35.35 0 0 0 .128-.021.335.335 0 0 0 .136-.087zm1.052 9.537a.26.26 0 0 1 .263-.228.183.183 0 0 1 .057.007l.241.043.107.021.128.022c.085.014.185.028.277.042a.256.256 0 0 1 .22.292c-.028.2-.064.419-.114.689a.278.278 0 0 1-.248.192h-.022l-.312-.064a.67.67 0 0 1-.135-.029c-.043-.007-.078-.007-.114-.014-.085-.014-.171-.021-.256-.042a.252.252 0 0 1-.2-.313c.007-.064.022-.121.029-.185a8.65 8.65 0 0 1 .079-.437zm-.775.838.37-.057-.007.014a.371.371 0 0 0 .056.391.385.385 0 0 1 .043.057.35.35 0 0 0 .235.178h.028l.412.071c.149.028.3.05.448.078a.467.467 0 0 0 .135.014.323.323 0 0 0 .242-.1.072.072 0 0 1 .035-.029c.007 0 .014-.007.021-.007a.374.374 0 0 0 .164-.291l.128-.768c.007-.021.007-.042.014-.064.014-.092.036-.184.05-.277a.452.452 0 0 0-.064-.4.407.407 0 0 0-.32-.234l-.86-.142a.3.3 0 0 0-.114-.022.173.173 0 0 0-.085.015.439.439 0 0 0-.206.127c-.007.008-.021.015-.028.022s-.007.007-.015.007-.007.007-.014.007a.256.256 0 0 0-.113.192 10.925 10.925 0 0 1-.1.583.326.326 0 0 1-.014.071v.007h-.007a.217.217 0 0 1-.064.014l-.029.007-.057.014h-.007l-.149.043c-.05.014-.092.036-.092.05l-.022.106c-.007.022-.007.036-.014.057a.567.567 0 0 0-.021.157.286.286 0 0 0 .021.105zm-26.33 8.954c.128.121.256.235.391.349.057.056.114.106.171.156l.007.007-.419.476-.008-.007c-.014-.014-.035-.028-.049-.043l-.1-.078c-.057-.049-.106-.1-.163-.149-.121-.107-.235-.213-.356-.313a.236.236 0 0 1-.085-.3.31.31 0 0 1 .27-.22.413.413 0 0 1 .341.118zm-.874.462.114.093c.092.085.185.163.277.248l.014.015.185.163c.05.05.107.092.164.142l.149.128c.071.064.135.128.206.192a.16.16 0 0 0 .1.05.084.084 0 0 0 .064-.029l.313-.341.27-.3.576-.675-.356-.327-.454.49-.008-.007c-.007-.007-.021-.014-.028-.021l-.007-.008a.309.309 0 0 1-.05-.035c-.007-.007-.014-.007-.021-.014l-.121-.114-.142-.128-.007-.007-.007-.007c-.15-.128-.3-.263-.448-.4l-.021-.021h-.007l-.022-.022a.258.258 0 0 0-.156-.049h-.029c-.014 0-.021.007-.028.007H27.6a.418.418 0 0 1-.1.007.472.472 0 0 1-.1-.007h-.085a.248.248 0 0 0-.192.092c-.007.007-.014.021-.022.028l-.063.064-.015.015-.014.014a.417.417 0 0 0-.128.405.464.464 0 0 0 .178.341.1.1 0 0 1 .026.014zm-5.038-10.578a.139.139 0 0 1 .057-.007h.028a.28.28 0 0 1 .277.163.024.024 0 0 0 .007.014 1.487 1.487 0 0 0 .036.171c.035.178.071.348.1.519.014.049.022.106.036.163a.111.111 0 0 1-.007.043c0 .007-.007.014-.007.028v.007l-.27.043-.327.078-.007-.007-.022-.078c-.007-.05-.021-.093-.028-.135-.022-.093-.036-.185-.057-.277l-.007-.05c-.022-.093-.036-.192-.057-.291-.051-.228.02-.335.248-.384zm-.526-.206a.332.332 0 0 0-.064.312l.192.917c.035.2.078.4.121.6a.636.636 0 0 0 .035.107c0 .014.007.021.014.035l.581-.116c.156-.028.3-.056.455-.085l.76-.177-.092-.47-.327.057-.334.064-.135-.675-.05-.27.057-.043.035-.028c.015-.007.029-.021.043-.028l.014-.015c.036-.021.064-.035.093-.056l.081-.065c.057-.036.121-.079.178-.121s.092-.078.078-.142c-.022-.086-.036-.171-.057-.256l-.021-.107a.11.11 0 0 0-.05-.007.056.056 0 0 0-.036.007.231.231 0 0 0-.1.057.127.127 0 0 0-.036.029c-.106.071-.213.149-.312.22a1.624 1.624 0 0 1-.128.092.087.087 0 0 1-.064.029.093.093 0 0 1-.043-.015c-.021-.007-.035-.028-.057-.042l-.021-.022a.313.313 0 0 0-.27-.092l-.434.114a.507.507 0 0 1-.028.057.9.9 0 0 1-.078.135zM25.8 55.572v-.015a.042.042 0 0 1-.007-.028l-.05-.178-.007-.014a.232.232 0 0 0-.128-.156c-.085-.043-.17-.1-.256-.149l-.106-.064-.306-.171a.255.255 0 0 1-.064-.028c-.021-.008-.043-.022-.064-.029s-.05-.028-.071-.042-.014-.008-.021-.008a.28.28 0 0 0-.142-.042.3.3 0 0 0-.079.007.153.153 0 0 0-.035.021c-.014 0-.021.007-.029.007a.107.107 0 0 1-.063.022c-.008 0-.015.007-.022.007a.342.342 0 0 0-.163.1l-.022.022-.007.007c-.014.021-.028.042-.049.078a1.012 1.012 0 0 0-.05.1c-.135.249-.3.555-.476.853a.7.7 0 0 1-.043.071.585.585 0 0 0-.064.249.458.458 0 0 0 .029.17.356.356 0 0 0 .234.278.1.1 0 0 1 .028.021c.008 0 .008.007.015.007l.348.2.085.043a.955.955 0 0 1 .128.064c.021.014.05.028.071.042l.064.043a.351.351 0 0 0 .142.05.3.3 0 0 0 .078.007.584.584 0 0 0 .249-.057l.093-.043a.321.321 0 0 0 .1-.121c.036-.064.078-.127.114-.2l.17-.312c.036-.057.064-.114.1-.171.05-.1.106-.192.156-.291a.674.674 0 0 0 .121-.292v-.056zm-.76.931a.118.118 0 0 1-.022.028.238.238 0 0 1-.2.1.335.335 0 0 1-.113-.028 3.22 3.22 0 0 1-.178-.107c-.021-.014-.05-.028-.071-.042l-.384-.213a.346.346 0 0 1-.192-.178.314.314 0 0 1 .043-.242c.028-.049.05-.1.078-.142.05-.092.1-.177.149-.263l.043-.085a.271.271 0 0 1 .27-.178.205.205 0 0 1 .149.064.065.065 0 0 0 .043.029c.007 0 .021.007.028.007l.007.007.327.178c.022.014.05.021.071.035l.029.014a1.045 1.045 0 0 1 .142.071.263.263 0 0 1 .106.363c-.106.198-.213.39-.326.579zm7.22-7.924c.021.007.035.021.057.028s.035.007.049.014a.3.3 0 0 1 .114.022c.114.042.228.092.341.142.043.021.086.035.128.057l.014.014a.007.007 0 0 1 .007.007c.022.014.043.036.043.05v.014a.4.4 0 0 1-.028.085c0 .007-.007.014-.007.022-.1.248-.214.533-.32.81-.029.078-.05.142.035.206a.129.129 0 0 0 .057-.029c.022-.007.036-.014.057-.021s.064-.028.092-.043a.276.276 0 0 0 .2-.206c.05-.177.114-.355.171-.533l.028-.085a.306.306 0 0 0 .022-.05c.007-.007.014-.021.021-.028a.359.359 0 0 0 .021-.05l.005-.005.008.007.035.014c.036.015.071.029.114.043.014.007.035.014.05.021.056.022.113.043.17.071.114.043.235.093.355.143a.023.023 0 0 1 .015.007.394.394 0 0 0 .12.021h.036a1.9 1.9 0 0 0 .455-.213.108.108 0 0 1-.022-.029.024.024 0 0 1-.007-.014c-.014-.007-.021-.021-.028-.028a.149.149 0 0 0-.05-.05c-.028-.014-.064-.028-.092-.043s-.029-.007-.043-.014l-.746-.306-.178-.056.221-.512.184-.476-.042-.128c-.029.014-.064.028-.1.043a.526.526 0 0 0-.248.142.314.314 0 0 0-.064.12l-.242.7-.718-.313h-.064a.358.358 0 0 0-.128.015 2.244 2.244 0 0 0-.3.135l-.022.014c-.007 0-.014.007-.021.014l-.015.009c0 .007-.007.014-.014.021s-.014.015-.014.022a.2.2 0 0 0 .127.113c.008.008.015.008.022.015a.808.808 0 0 1 .114.057z" fill="#ffad11"/>
	<path d="m58.056 60.987-.5 1.649-.007.035L54.6 61.6l2.4-2.02zm-5.309 11.257 1.564 2.714L55.782 74l.1-1.762zm-3.02-23.083-.533 3.085 2.942-1.066-.689-1.621zm-5.309 30.083-.554 3.084 1.748.206 1.208-1.286zm-5.358-34.2-1.528.774-.043.022 1.571 2.71 1.57-2.707zm-7.881 36.182 1.2 1.287 1.7-.206.043-.008-.547-3.077zm-4.556-31.674-.689 1.621 2.942 1.059-.54-3.085zM22.21 72.3l.007.043.093 1.713 1.471.959 1.563-2.715zm-1.18-12.656L20 61.008l.5 1.642.015.042 2.942-1.073-2.398-2.019z" fill="#7c8081"/>
</svg>
