<svg xmlns="http://www.w3.org/2000/svg" width="200" height="128">
    <path d="M26.06 55.93h5.51a.74.74 0 00.78-.43c.42-.8.87-1.6 1.33-2.38a17.35 17.35 0 012.88-4.07 10.73 10.73 0 012-1.71 7.1 7.1 0 016.19-.83 8.72 8.72 0 014 3.09c.61.79 1.22 1.58 1.76 2.41s1.13 1.86 1.68 2.79a6.3 6.3 0 00.48.89 1 1 0 00.66.31h9.52c.41 0 .6.08.54.54a8.09 8.09 0 000 1.1c0 .48-.06.57-.55.57h-5.95a4.12 4.12 0 00-2.23.59.45.45 0 00-.17.67c.4.75.8 1.5 1.18 2.26.54 1.09 1 2.2 1.6 3.28a2.11 2.11 0 001.89 1.11h3.48c.35 0 .48.12.47.45v1.54c0 .54-.16.53-.55.53h-6.61q-3 .06-6 .27a27 27 0 00-3.93.46 35.1 35.1 0 00-5.87 1.5c-.83.34-1.69.59-2.51.95-1.41.62-2.78 1.3-4.18 2-.92.43-1.82.88-2.77 1.25a25.12 25.12 0 01-3.28 1.07 22.41 22.41 0 01-6.38.54h-.31c-.75 0-.75 0-.75-.75v-1.4c0-.3.14-.42.44-.4a14.29 14.29 0 008.83-1.9c.64-.38 1.32-.69 2-1s1.64-.89 2.48-1.28 1.8-.79 2.71-1.16 1.79-.74 2.7-1c.63-.22 1.3-.35 1.95-.54 1.15-.34 2.34-.52 3.51-.77a34.91 34.91 0 014.21-.57l4.33-.35c.41 0 .57-.29.37-.67-.6-1.2-1.23-2.39-1.84-3.59-.18-.37-.33-.75-.52-1.12-.79-1.55-1.53-3.13-2.41-4.63a25 25 0 00-3.1-4.41 3.92 3.92 0 00-4.17-1.41 6 6 0 00-2 1.23A12.31 12.31 0 0037 54.05c-.67 1.14-1.34 2.28-2 3.43s-1.12 2.13-1.74 3.15a20.53 20.53 0 01-4 4.76 11 11 0 01-5.15 2.47 17.36 17.36 0 01-3.07.15C20 68 20 68 20 66.9v-.88c0-.29.12-.49.47-.47s.91 0 1.36 0a6.44 6.44 0 002.77-.61 12.25 12.25 0 004.6-4.24c.23-.33.49-.63.72-1s.26-.7-.22-1a5.2 5.2 0 00-2.47-.56h-6.61c-.59 0-.62 0-.61-.63v-1.32c0-.28.09-.39.38-.39h5.68z" fill="#188fff"/>
    <path d="M179.76 74.92a3 3 0 00-.23-.27l-4.93-6.54c-.34-.46-.29-.48.24-.72a10.75 10.75 0 002.26-1.24 5.26 5.26 0 002-4.67 5.41 5.41 0 00-3-4.75 9.28 9.28 0 00-4.57-.93h-7.67c-.4 0-.55.12-.54.53V75c0 .27 0 .47.37.47h2.12a.39.39 0 00.43-.44c0-2.09 0-4.17-.05-6.26 0-.56.11-.72.67-.72h3.35a1.4 1.4 0 011.32.67c1.57 2.13 3.16 4.24 4.74 6.36a1 1 0 00.9.43h2.38a1.71 1.71 0 00.47-.15c-.1-.18-.17-.36-.26-.44zm-13-9.52c-.52 0-.63-.15-.63-.67v-5.59c0-.46.13-.63.58-.63h5.42a4.69 4.69 0 012.77.87 3.19 3.19 0 01.14 4.95 4.3 4.3 0 01-2.83 1.06c-1.78.03-3.6.01-5.42.01zM159.22 72.48c-1.14-2.5-2.29-5-3.43-7.49l-4-8.82a.73.73 0 00-.8-.48h-1.4a.72.72 0 00-.8.48c-.41.94-.83 1.87-1.26 2.81l-3.66 8.06c-.61 1.35-1.24 2.7-1.86 4s-1.15 2.58-1.74 3.85c-.19.4-.16.5.28.51h2.16a.72.72 0 00.53-.34c.61-1.32 1.2-2.65 1.78-4 .27-.62.4-.72 1.06-.72h8.18c.84 0 .94 0 1.28.76.56 1.26 1.1 2.53 1.68 3.79.08.19.29.45.45.46h2.56c.2 0 .31-.13.21-.37-.44-.76-.82-1.63-1.22-2.5zm-5.78-4.7h-6.3c-.54 0-.58-.12-.36-.6.72-1.55 1.41-3.1 2.11-4.65.37-.82.73-1.64 1.1-2.45a2.6 2.6 0 01.25-.33c.1.1.24.19.29.31.4.85.78 1.71 1.16 2.56l2.09 4.61c.22.38.09.54-.34.55zM136.16 65.6a16.84 16.84 0 00-4.54-1.51 9.78 9.78 0 01-3.27-1.24 2.41 2.41 0 01-.61-3.21 3.72 3.72 0 013.41-1.47 7.84 7.84 0 015 1.92.44.44 0 00.73-.08c.35-.48.71-.94 1.05-1.42s.25-.52-.14-.83a10.4 10.4 0 00-4.53-2.06 9.29 9.29 0 00-5.2.35 5.32 5.32 0 00-3.59 5.23 4.72 4.72 0 002.71 4.34 17.22 17.22 0 003.74 1.28 25.46 25.46 0 013.48 1.1 2.09 2.09 0 011.35 1.86 2.53 2.53 0 01-1.24 2.5 6.09 6.09 0 01-4.87.41 9.05 9.05 0 01-3.86-2.2c-.36-.32-.48-.32-.78.05s-.74.91-1.14 1.34a.42.42 0 000 .7 11.35 11.35 0 007.78 3 7.56 7.56 0 005.14-1.6 5.36 5.36 0 001.78-5.41 4.49 4.49 0 00-2.4-3.05zM104 62.17v-5.82c0-.41-.16-.6-.57-.58h-1.77c-.36 0-.56.13-.55.55v3.17c0 3 0 6-.13 9a4.39 4.39 0 01-3 4.13 6.75 6.75 0 01-3.34.26 4.49 4.49 0 01-2.1-.83 5.6 5.6 0 01-2.17-4.7V56.37c0-.49-.1-.6-.54-.6h-1.91c-.37 0-.52.16-.52.54v10.8a9.77 9.77 0 001 4.57 7.09 7.09 0 005.19 3.84 11.46 11.46 0 004.25 0 7.12 7.12 0 003.56-1.72 8.25 8.25 0 002.55-6.09c.07-1.85 0-3.7 0-5.55zM82.45 57.47a7 7 0 00-4.38-1.61h-7.88c-.48 0-.59.11-.59.6v1.46c0 .58.08.66.66.66h6.7a8.52 8.52 0 012.24.36 3.26 3.26 0 012.44 3.2 3.36 3.36 0 01-1.85 3.31 4.94 4.94 0 01-2.53.64h-7.05c-.53 0-.61.09-.61.62v8.33c0 .32.12.47.43.47h2.07c.31 0 .45-.13.45-.46V69.5c0-.67.07-.74.73-.74H77a9.11 9.11 0 003.53-.66 6 6 0 004-5.29 5.8 5.8 0 00-2.08-5.34zM121.27 72.69h-9.52c-.5 0-.64-.16-.64-.62v-3.79-12c0-.46-.11-.58-.56-.57h-1.85c-.35 0-.5.16-.5.51v18.69c0 .43.24.48.57.48h12.63c.32 0 .49-.12.48-.47V73.2c0-.58-.13-.51-.61-.51z" fill="#464e56"/>
</svg>
