<svg xmlns="http://www.w3.org/2000/svg" width="200" height="128">
    <path fill="#f26e7e" d="M26.43 67.7c1.47-.85 1.47-3.6 0-6.15s-3.85-3.92-5.32-3.07-1.48 3.61 0 6.15 3.89 3.92 5.32 3.07zm-5.32 2.38c-1.47.85-1.48 3.6 0 6.15s3.89 3.92 5.32 3.07 1.48-3.6 0-6.15-3.85-3.92-5.32-3.07zm15.35 3.42c1.47-.85 1.48-3.6 0-6.15s-3.86-3.91-5.33-3.06-1.47 3.6 0 6.14 3.87 3.92 5.33 3.07zm.01 5.5c-1.47-2.59-3.85-4-5.33-3.12s-1.47 3.61 0 6.15S35 86 36.46 85.1s1.48-3.6.01-6.1z"/>
    <path fill="#8a3391" d="M46.51 75.88C45 75 42.65 76.4 41.18 79s-1.47 5.29 0 6.14S45 84.57 46.51 82s1.49-5.27 0-6.12zm-5.33-2.38c1.47.85 3.86-.52 5.33-3.07s1.47-5.3 0-6.15-3.85.53-5.32 3.07-1.48 5.3-.01 6.15zm15.36-3.41c-1.47-.85-3.86.52-5.33 3.06s-1.46 5.3 0 6.15 3.86-.52 5.33-3.07 1.46-5.29 0-6.14zm-5.33-2.38c1.48.85 3.86-.53 5.33-3.07s1.47-5.3 0-6.15-3.86.52-5.33 3.07-1.47 5.3 0 6.15z"/>
    <path fill="#f7bf2a" d="M38.82 51.7c2.94 0 5.32-1.38 5.32-3.08s-2.38-3.08-5.32-3.08-5.32 1.38-5.32 3.08 2.38 3.08 5.32 3.08z"/>
    <ellipse fill="#f7bf2a" cx="28.79" cy="54.4" rx="5.32" ry="3.08"/>
    <path fill="#f7bf2a" d="M38.82 57.12c-2.94 0-5.32 1.38-5.32 3.08s2.38 3.08 5.32 3.08 5.32-1.38 5.32-3.08-2.38-3.08-5.32-3.08z"/>
    <ellipse fill="#f7bf2a" cx="48.86" cy="54.4" rx="5.32" ry="3.08"/>
    <path d="M109.14 59.92h-2a.87.87 0 00-1 1v8.66a4.74 4.74 0 01-4.57 5 3.84 3.84 0 01-4-4.06v-9.6a.87.87 0 00-1-1h-2a.86.86 0 00-.95 1v9.88c0 4.35 2.81 7.17 7.06 7.17a6.64 6.64 0 005.37-2.73v1.38a.86.86 0 001 .95h2a.87.87 0 001-.95V60.88a.87.87 0 00-.91-.96z"/>
    <rect x="175.63" y="59.92" width="3.89" height="17.65" rx=".96"/>
    <path d="M82.62 53.71h-7.08a.87.87 0 00-1 1v22a.86.86 0 001 .95h2.12a.86.86 0 001-.95v-7.78h4c5.08 0 8.27-3 8.27-7.61s-3.23-7.61-8.31-7.61zm-.26 11.84h-3.75v-8.44h3.75c2.87 0 4.49 1.65 4.49 4.21s-1.62 4.23-4.49 4.23z"/>
    <rect x="114.75" y="52.69" width="3.89" height="24.88" rx=".96"/>
    <path d="M177.58 57.48a2.38 2.38 0 10-2.41-2.37 2.37 2.37 0 002.41 2.37zm-13.05 2.03a6.56 6.56 0 00-5.83 3.67 6.47 6.47 0 00-11.1-1v-1.3a.87.87 0 00-1-1h-2a.87.87 0 00-1 1v15.76a.86.86 0 001 1h2a.86.86 0 001-1v-8.77a4.69 4.69 0 014.28-4.9c2.18 0 3.66 1.68 3.66 4.06v9.61a.87.87 0 001 1h2a.86.86 0 001-1v-8.77c0-2.68 2.08-4.9 4.28-4.9s3.67 1.68 3.67 4.06v9.61a.86.86 0 00.95 1h2a.86.86 0 001-1v-10c-.14-4.3-3.07-7.13-6.91-7.13zm-26.18.41h-2a.87.87 0 00-1 1v8.66a4.74 4.74 0 01-4.57 5 3.84 3.84 0 01-4-4.06v-9.6a.87.87 0 00-1-1h-2a.87.87 0 00-1 1v9.88c.22 4.35 3 7.2 7.22 7.2a6.64 6.64 0 005.37-2.73v1.38a.86.86 0 001 .95h2a.86.86 0 001-.95V60.88a.87.87 0 00-1.02-.96z"/>
</svg>
