<svg xmlns="http://www.w3.org/2000/svg" viewBox="95.23 -1.52 208.03 247.78">
	<path fill="#f26e7e" fill-rule="evenodd" d="M146.63 98.376c6.31-3.643 6.32-15.438.023-26.345-6.297-10.906-16.518-16.794-22.828-13.151-6.31 3.643-6.32 15.438-.023 26.345 6.297 10.907 16.517 16.795 22.827 13.151zm.037 23.354c6.297 10.907 6.287 22.702-.023 26.345-6.31 3.643-16.53-2.245-22.828-13.151-6.297-10.907-6.286-22.702.024-26.345 6.31-3.644 16.53 2.245 22.827 13.151zm43.001 24.861c6.298 10.907 6.287 22.701-.023 26.345-6.31 3.643-16.53-2.245-22.828-13.151-6.297-10.907-6.286-22.702.024-26.345 6.31-3.644 16.53 2.245 22.827 13.151zm-.014-49.698c6.298 10.907 6.287 22.702-.023 26.345s-16.53-2.245-22.827-13.152c-6.298-10.906-6.287-22.701.023-26.344 6.31-3.644 16.53 2.245 22.827 13.151z"/>
	<path fill="#8a3391" fill-rule="evenodd" d="M275.677 85.252c6.298-10.906 6.288-22.702-.022-26.345s-16.532 2.245-22.828 13.152c-6.296 10.907-6.287 22.701.024 26.345 6.309 3.643 16.53-2.245 22.826-13.152zm.001 23.342c6.311 3.644 6.322 15.438.026 26.345-6.298 10.907-16.519 16.795-22.83 13.152-6.308-3.643-6.32-15.438-.022-26.345 6.297-10.907 16.517-16.795 22.826-13.152zm-42.992 24.82c6.31 3.644 6.321 15.439.024 26.346-6.297 10.906-16.517 16.794-22.828 13.151s-6.32-15.438-.023-26.345c6.297-10.907 16.517-16.795 22.827-13.151zm-.024-49.687c6.31 3.643 6.32 15.439.023 26.345-6.297 10.907-16.517 16.795-22.827 13.152-6.31-3.643-6.32-15.438-.023-26.345 6.297-10.907 16.517-16.795 22.827-13.152z"/>
	<path fill="#f7bf2a" fill-rule="evenodd" d="M222.536 16.593c0 7.287-10.21 13.194-22.803 13.194-12.595 0-22.804-5.907-22.804-13.194S187.139 3.4 199.733 3.4c12.594 0 22.803 5.907 22.803 13.193zm-42.992 24.795c0 7.287-10.21 13.193-22.804 13.193s-22.804-5.906-22.804-13.193 10.21-13.193 22.804-13.193 22.804 5.907 22.804 13.193zm63.237 13.193c12.595 0 22.804-5.906 22.804-13.193s-10.21-13.193-22.804-13.193c-12.594 0-22.804 5.907-22.804 13.193s10.21 13.193 22.804 13.193zM222.536 66.24c0 7.286-10.21 13.193-22.803 13.193-12.595 0-22.804-5.907-22.804-13.193s10.21-13.194 22.804-13.194c12.594 0 22.803 5.907 22.803 13.194z"/>
	<path d="M107.785 239.06a1.625 1.625 0 0 1-1.798 1.798h-3.983a1.625 1.625 0 0 1-1.798-1.799v-41.372a1.625 1.625 0 0 1 1.798-1.8h13.328c9.57 0 15.576 5.754 15.576 14.337 0 8.615-6.006 14.337-15.576 14.337h-7.547zm7.065-36.776h-7.065v15.912h7.065c5.395 0 8.446-3.117 8.446-7.972 0-4.822-3.05-7.94-8.446-7.94zm21.453 25.815V209.39a1.626 1.626 0 0 1 1.799-1.801h3.725a1.626 1.626 0 0 1 1.799 1.8v18.099c0 4.5 3.05 7.65 7.482 7.65 4.625 0 8.607-3.89 8.607-9.419v-16.33a1.626 1.626 0 0 1 1.798-1.8h3.758a1.626 1.626 0 0 1 1.798 1.8v29.67a1.626 1.626 0 0 1-1.798 1.802h-3.758a1.626 1.626 0 0 1-1.798-1.801v-2.605a12.517 12.517 0 0 1-10.116 5.144c-7.997 0-13.296-5.304-13.296-13.501zm41.33-34.139h3.726a1.626 1.626 0 0 1 1.798 1.8v43.3a1.626 1.626 0 0 1-1.798 1.802h-3.725a1.626 1.626 0 0 1-1.799-1.801v-43.3a1.626 1.626 0 0 1 1.799-1.801zm13.682 34.139V209.39a1.626 1.626 0 0 1 1.798-1.801h3.726a1.626 1.626 0 0 1 1.798 1.8v18.099c0 4.5 3.051 7.65 7.483 7.65 4.624 0 8.607-3.89 8.607-9.419v-16.33a1.626 1.626 0 0 1 1.798-1.8h3.757a1.626 1.626 0 0 1 1.799 1.8v29.67a1.626 1.626 0 0 1-1.799 1.802h-3.757a1.626 1.626 0 0 1-1.798-1.801v-2.605a12.517 12.517 0 0 1-10.116 5.144c-7.997 0-13.296-5.304-13.296-13.501zm91.012-7.746v18.74a1.627 1.627 0 0 1-1.799 1.8h-3.757a1.626 1.626 0 0 1-1.798-1.8v-18.097c0-4.5-2.795-7.651-6.904-7.651-4.143 0-8.061 4.178-8.061 9.224v16.524a1.627 1.627 0 0 1-1.8 1.8h-3.756a1.626 1.626 0 0 1-1.798-1.8v-18.097c0-4.5-2.795-7.651-6.905-7.651-3.95 0-8.061 3.792-8.061 9.224v16.524a1.626 1.626 0 0 1-1.799 1.8h-3.757a1.626 1.626 0 0 1-1.799-1.8V209.39a1.626 1.626 0 0 1 1.799-1.801h3.757a1.626 1.626 0 0 1 1.799 1.8v2.54a12.086 12.086 0 0 1 9.602-5.112 12.229 12.229 0 0 1 11.305 6.913 12.362 12.362 0 0 1 10.982-6.913c7.226 0 12.75 5.337 12.75 13.535zm11.818-26.328a4.484 4.484 0 1 1-4.527 4.5 4.465 4.465 0 0 1 4.527-4.5zm-1.863 13.565h3.726a1.627 1.627 0 0 1 1.8 1.8v29.67a1.627 1.627 0 0 1-1.8 1.802h-3.726a1.626 1.626 0 0 1-1.797-1.801v-29.67a1.626 1.626 0 0 1 1.797-1.801z"/>
</svg>
