<svg xmlns="http://www.w3.org/2000/svg" xmlns:xlink="http://www.w3.org/1999/xlink" viewBox="0 0 84 27" fill="#fff" fill-rule="evenodd" stroke="#000" stroke-linecap="round" stroke-linejoin="round"><use xlink:href="#A" x=".5" y=".5"/><symbol id="A" overflow="visible"><g stroke="none" fill-rule="nonzero"><path d="M80.356 3.302A1.65 1.65 0 1 0 80.385 0c-.904-.01-1.643.722-1.664 1.6a1.67 1.67 0 0 0 1.635 1.7z" fill="#ee985d"/><g fill="#512568"><use xlink:href="#C"/><path d="M33.587.077a1.34 1.34 0 0 0-1.336 1.336v16.72a1.34 1.34 0 0 0 1.336 1.336 1.34 1.34 0 0 0 1.336-1.336V1.413A1.34 1.34 0 0 0 33.587.077zm46.782 4.5a1.34 1.34 0 0 0-1.336 1.336V18.12a1.34 1.34 0 0 0 1.336 1.336 1.34 1.34 0 0 0 1.336-1.336V5.923a1.34 1.34 0 0 0-1.336-1.336z"/><use xlink:href="#C" x="-21.008"/><path d="M69.865 4.587a6.54 6.54 0 0 0-5.222 2.602 6.54 6.54 0 0 0-5.222-2.602 6.56 6.56 0 0 0-6.558 6.558v6.976a1.34 1.34 0 0 0 1.336 1.336 1.34 1.34 0 0 0 1.336-1.336v-6.976c0-2.146 1.74-3.886 3.886-3.886s3.886 1.74 3.886 3.886v6.976a1.33 1.33 0 0 0 1.604 1.309c.086-.018.17-.044.25-.078.16-.068.304-.166.425-.287a1.33 1.33 0 0 0 .392-.944v-6.976c0-2.146 1.74-3.886 3.886-3.886S73.75 9 73.75 11.145v6.976a1.34 1.34 0 0 0 1.336 1.336 1.34 1.34 0 0 0 1.336-1.336v-6.976a6.56 6.56 0 0 0-6.558-6.558zm-62.43 0A7.44 7.44 0 0 0 0 12.022v11.82a1.34 1.34 0 0 0 1.336 1.336 1.34 1.34 0 0 0 1.336-1.336v-11.82c0-2.63 2.132-4.763 4.763-4.763s4.763 2.132 4.763 4.763-2.132 4.763-4.763 4.763c-.738 0-1.336.598-1.336 1.336s.598 1.336 1.336 1.336a7.44 7.44 0 0 0 7.435-7.435 7.44 7.44 0 0 0-7.435-7.435z"/></g><path d="M27.812 3.094l-.01-.1c-.05-.588-.538-1.05-1.14-1.05-.185 0-.357.048-.512.125A2.67 2.67 0 0 0 23.55 0c-1.113 0-2.067.68-2.47 1.648a1.76 1.76 0 0 0-.957-.283 1.77 1.77 0 0 0-1.77 1.77c0 .5.398.568 1.05.568h7.806a.59.59 0 0 0 .602-.6z" fill="#ee985d"/></g></symbol><defs ><path id="C" d="M49.313 4.587a1.34 1.34 0 0 0-1.336 1.336V12.9c0 2.146-1.74 3.886-3.886 3.886s-3.886-1.74-3.886-3.886V5.923a1.34 1.34 0 0 0-1.336-1.336 1.34 1.34 0 0 0-1.336 1.336V12.9a6.56 6.56 0 0 0 6.558 6.558 6.56 6.56 0 0 0 6.558-6.558V5.923a1.34 1.34 0 0 0-1.336-1.336z"/></defs></svg>