<svg xmlns="http://www.w3.org/2000/svg" width="200" height="128">
    <circle cx="42.79" cy="64" r="22.79" style="mix-blend-mode:darken" fill="#e0097e"/>
    <circle cx="80.93" cy="64" r="22.79" style="mix-blend-mode:darken" fill="#00a4d1"/>
    <circle cx="119.07" cy="64" r="22.79" style="mix-blend-mode:darken" fill="#fef200"/>
    <circle cx="157.21" cy="64" r="22.79" style="mix-blend-mode:multiply" fill="#36353a" opacity="0.8"/>
    <path fill="#fff" d="M127.5 57.35h-4.76a.4.4 0 00-.45.3c-.49 1.33-1 2.65-1.49 4s-.89 2.36-1.36 3.6c-1.06-2.66-2-5.29-3-7.85h-5.15c-.1.44-.09 13.82 0 14.12a27.31 27.31 0 003.76 0c0-3 0-6.1.08-9.15q1.74 4.6 3.49 9.21h1.65l3.51-9.13h.08v9.1h3.8c.09-.58.07-13.81 0-14.13zM159.87 57.38h-4.66c-1.79 4.69-3.57 9.38-5.38 14.16h4.19l.7-1.87h5.64l.7 1.85h4.18zm-4.1 8.7c.58-1.73 1.17-3.45 1.75-5.18h.07l1.71 5.14a19.6 19.6 0 01-3.53.04zM88.24 57.43a21.29 21.29 0 00-3.84 0v8.33a2.64 2.64 0 01-1.66 2.56 4.23 4.23 0 01-2.39.11 2.59 2.59 0 01-1.17-.61 2.68 2.68 0 01-.87-2.09v-7.84a5.28 5.28 0 000-.55h-3.8v8.39a7.67 7.67 0 00.08 1.17 5.35 5.35 0 002.84 4 8.2 8.2 0 003.5.88 9.41 9.41 0 003.07-.25 6 6 0 002.33-1.2 5.56 5.56 0 001.93-4.4v-8.1c.01-.14-.01-.28-.02-.4zM44.94 57.37h-7.17c-.1.34-.12 13.65 0 14.12a18.06 18.06 0 003.46 0V67h3.67a6.61 6.61 0 001.33-.15 4.46 4.46 0 003.54-3.89 4.68 4.68 0 00-4.83-5.59zm1.06 4.8a1.45 1.45 0 01-1.1 1.23 1 1 0 01-.3.05h-3.39v-3a2.89 2.89 0 01.29 0h2.85a2.13 2.13 0 01.75.15 1.41 1.41 0 01.9 1.57z"/>
</svg>
