<svg xmlns="http://www.w3.org/2000/svg" width="200" height="128">
    <path d="M48.283 64V51h-9.945L33 45.655v-9.932H20v13h9.945l5.331 5.332v6.886l-.006-.007-5.335 5.335H20v13h13v-9.935L38.338 64zM24.335 40.058h4.334v4.334h-4.334zm4.334 34.88h-4.334V70.6h4.334z" fill="#ffae1a"/>
    <g fill="#222">
        <path d="M62.672 92.277h-5.73V64h5.73v1.71a7.114 7.114 0 0 1 5.176-2.172c6.007 0 9.427 4.991 9.427 10.813s-3.42 10.767-9.427 10.767a7.11 7.11 0 0 1-5.176-2.172zm0-14.556a4.343 4.343 0 0 0 3.882 2.4c3.1 0 4.945-2.5 4.945-5.777 0-3.327-1.849-5.822-4.945-5.822a4.372 4.372 0 0 0-3.882 2.4zM98.069 84.652h-5.73v-1.894a7.479 7.479 0 0 1-5.545 2.356c-4.621 0-7.255-3.05-7.255-7.624V64h5.73v12.334c0 2.172 1.063 3.651 3.327 3.651a3.669 3.669 0 0 0 3.7-2.865V64h5.776zM107.588 92.277h-5.73V64h5.73v1.71a7.116 7.116 0 0 1 5.176-2.172c6.007 0 9.427 4.991 9.427 10.813s-3.42 10.767-9.427 10.767a7.112 7.112 0 0 1-5.176-2.172zm0-14.556a4.345 4.345 0 0 0 3.882 2.4c3.1 0 4.945-2.5 4.945-5.777 0-3.327-1.849-5.822-4.945-5.822a4.373 4.373 0 0 0-3.882 2.4zM130.416 92.277h-5.729V64h5.729v1.71a7.116 7.116 0 0 1 5.176-2.172c6.007 0 9.427 4.991 9.427 10.813s-3.42 10.767-9.427 10.767a7.112 7.112 0 0 1-5.176-2.172zm0-14.556a4.345 4.345 0 0 0 3.882 2.4c3.1 0 4.945-2.5 4.945-5.777 0-3.327-1.849-5.822-4.945-5.822a4.373 4.373 0 0 0-3.882 2.4zM165.582 77.905c-.739 4.391-3.974 7.209-9.149 7.209-6.008 0-10.028-4.39-10.028-10.767 0-6.238 4.159-10.813 9.935-10.813 6.054 0 9.381 4.205 9.381 10.259v1.756H151.95c.185 3.1 1.941 4.944 4.483 4.944 1.94 0 3.373-.831 3.835-2.588zm-13.493-5.822h7.994c-.046-2.172-1.34-3.882-3.7-3.882-2.215-.001-3.783 1.34-4.294 3.882zM169.464 68.617h-3.142V64h3.142v-5.595h5.684V64h4.529v4.621h-4.529v9.057a2.1 2.1 0 0 0 2.357 2.357 4.913 4.913 0 0 0 2.5-.693v5.083a8.7 8.7 0 0 1-3.7.647c-4.2 0-6.839-2.079-6.839-6.654z"/>
    </g>
</svg>
