<svg xmlns="http://www.w3.org/2000/svg" viewBox="-54.3 -54.3 2026.1 2823.6">
	<path fill="#f0401e" d="M963.326 1621.026H565.35c-82.15 0-158.724-44.2-199.783-115.267L30.733 925.883c-40.972-71.167-40.972-159.522-.035-230.606l334.868-579.91C406.59 44.185 483.162.008 565.35.008h669.587c82.116 0 158.651 44.177 199.758 115.36l334.807 579.86c41.027 71.084 41.027 159.489 0 230.656l-86.588 138.013c-40.313 69.872-116.887 114.03-199.072 114.03H1085.32l217.878-367.688-201.53-348.869H698.512L496.895 810.505l466.431 810.52"/>
	<path fill="#201f1e" d="M358.724 2071.815c39.24 0 64.228-11.88 64.228-52.96 0-40.413-21.421-51.707-58.894-51.707h-28.52v104.667zm-23.186 210.492H233.25v-395.479h145.096c93.369 0 149.84 43.44 149.84 125.52 0 92.16-67.172 138.533-162.326 138.533h-30.322v131.426"/>
	<path fill="#201f1e" d="M690.424 1886.828v258.72c0 45.186 23.186 58.866 55.897 58.866 30.928 0 52.92-18.453 52.92-55.893v-261.693H901.53v273.6c0 80.253-64.21 129.013-157.583 129.013-102.875 0-155.795-41.587-155.795-137.973v-264.64h102.272"/>
	<path fill="#201f1e" d="M1338.663 1886.828h258.706v89.214h-156.44v60.093h134.374v89.186H1440.93v67.813h160.56v89.173h-262.827v-395.479"/>
	<path fill="#201f1e" d="M1075.275 2071.561v-104.653h28.572c37.438 0 58.842 11.294 58.842 51.733 0 41.014-24.97 52.92-64.21 52.92zm158.342 85.267c-5.923-14.16-15.341-25.387-25.94-30.747 37.543-22.546 60.261-60.506 60.261-113.986 0-82.08-56.486-125.507-149.857-125.507H972.984v395.48h102.29v-131.44h26.322c13.75.973 22.51 8.52 28.608 22.453l48.034 108.666h109.407l-54.028-124.92"/>
	<path fill="#201f1e" d="M34.858 2658.666c14.449 9.787 47.54 26.56 84.356 26.56 31.216 0 65.23-9.8 65.23-57.32 0-37.266-32.619-49.373-69.876-59.64-44.753-12.106-88.551-28.88-88.551-86.2 0-51.732 40.076-85.759 98.314-85.759 41.942 0 78.747 19.587 100.662 41.467l-20.52 24.706c-24.203-20.946-51.255-34.48-80.613-34.48-26.08 0-59.633 11.2-59.633 50.334 0 36.813 31.688 47.533 71.763 59.653 42.886 13.493 86.665 29.826 86.665 88.52 0 58.252-39.134 90.866-104.365 90.866-44.751 0-86.203-18.173-98.795-28.414l15.363-30.293"/>
	<path fill="#201f1e" d="M483.63 2401.907v31.693H389.51v278.186h-36.815V2433.6h-92.283v-31.693h223.216"/>
	<path fill="#201f1e" d="M635.722 2686.16c67.57 0 88.562-63.853 88.562-127.213 0-54.987-18.183-130.947-89.032-130.947-68.012 0-93.197 64.76-93.197 128.16 0 61.493 16.777 130 93.667 130zm-3.732 31.213c-79.671 0-127.673-53.573-127.673-159.84 0-119.76 68.955-161.226 132.35-161.226 67.097 0 125.344 42.413 125.344 161.226 0 106.72-50.32 159.84-130.02 159.84"/>
	<path fill="#201f1e" d="M1140.937 2586.44h104.375l-52.65-151.426Zm-78.296 125.346 109.05-309.879h43.8l111.367 309.879h-38.681l-34.005-95.533h-122.095l-33.084 95.533h-36.352"/>
	<path fill="#201f1e" d="M1575.756 2688.96c-25.627 17.253-62.453 28.413-102.973 28.413-81.533 0-131.88-51.707-131.88-159.84 0-120.653 69.907-161.226 131.88-161.226 31.68 0 72.24 9.8 103.906 50.333l-26.56 20.987c-20.493-24.227-44.733-39.627-77.8-39.627-58.72 0-93.68 47.987-93.68 126.28 0 83.906 29.84 132.813 97.4 132.813 24.24 0 51.72-8.387 62.894-16.32v-92.24h-70.36v-31.706h107.173v142.132"/>
	<path fill="#201f1e" d="M1638.81 2401.907h173.332v31.693h-136.52v104.387h117.414v31.666h-117.414v110.453h139.787v31.68h-176.6v-309.879"/>
	<path fill="#201f1e" d="M901.61 2567.787H855.01V2432.2h40.548c52.65 0 89.927 6.054 89.927 67.56 0 49.867-34.479 68.027-83.876 68.027zm87.47 46.786c-7.042-15.587-11.542-23.467-21.276-28.36 34.183-15.213 55.439-45.693 55.439-92.053 0-60.586-39.153-92.253-104.395-92.253H818.206v309.879h36.805v-114.173h53.13c3.782 0 7.486-.12 11.14-.36l-.531.2c19.094 0 27.936 12.48 35.853 29.24l39.437 85h39.144l-44.104-97.12"/>
	<path fill="#201f1e" d="M1879.329 2432.107c5.693 0 10.733-.56 10.733-7.267 0-5.573-5.48-6.253-10.053-6.253h-9.16v13.52zm-8.48 26.253h-7.6v-46.24h17.533c11.173 0 16.867 3.907 16.867 13.28 0 8.387-5.134 11.84-12.054 12.627l12.96 20.333h-8.6l-11.96-19.773h-7.146zm8.266-58.426c-18.093 0-32.173 14.186-32.173 34.52 0 18.986 12.28 34.52 32.173 34.52 17.867 0 31.947-14.08 31.947-34.52 0-20.334-14.08-34.52-31.947-34.52zm0 76.293c-24.013 0-41.106-17.987-41.106-41.773 0-25.134 18.986-41.774 41.106-41.774 21.894 0 40.88 16.64 40.88 41.774 0 25.133-18.986 41.773-40.88 41.773"/>
</svg>
