<svg xmlns="http://www.w3.org/2000/svg" width="200" height="128">
    <g fill="#300d4f">
        <path d="M33.649 85.024V74.453a.062.062 0 0 1 .032-.054l13.585-7.844a.062.062 0 0 0 .034-.055v-3.006a.063.063 0 0 0-.094-.055l-13.463 7.772a.063.063 0 0 1-.094-.055v-3.007a.062.062 0 0 1 .032-.055l13.585-7.844a.066.066 0 0 0 .034-.05v-3.011a.064.064 0 0 0-.065-.062.06.06 0 0 0-.029.008l-13.463 7.771a.061.061 0 0 1-.085-.022.063.063 0 0 1-.009-.033v-3.006a.062.062 0 0 1 .032-.054l13.585-7.841a.061.061 0 0 0 .034-.05v-3.051a.132.132 0 0 0-.062-.109l-13.526-7.807a.122.122 0 0 0-.125 0l-2.573 1.485a.062.062 0 0 0-.024.085.069.069 0 0 0 .024.024l13.46 7.773a.063.063 0 0 1 .021.088.06.06 0 0 1-.021.021L41.9 53.892a.134.134 0 0 1-.126 0l-13.522-7.807a.132.132 0 0 0-.133 0l-2.564 1.484a.062.062 0 0 0-.024.085.062.062 0 0 0 .024.024l13.457 7.772a.062.062 0 0 1 .024.085.056.056 0 0 1-.024.024l-2.571 1.485a.132.132 0 0 1-.133 0l-13.516-7.808a.132.132 0 0 0-.133 0L20 50.776v26.441a.062.062 0 0 0 .032.055l2.6 1.5a.064.064 0 0 0 .086-.022.063.063 0 0 0 .009-.033V52.461a.062.062 0 0 1 .061-.063.063.063 0 0 1 .033.009l2.6 1.5a.062.062 0 0 1 .03.054V80.37a.062.062 0 0 0 .032.054l2.6 1.5a.064.064 0 0 0 .1-.056V55.614a.063.063 0 0 1 .062-.064.062.062 0 0 1 .032.009l2.6 1.5a.064.064 0 0 1 .032.054v26.409a.065.065 0 0 0 .03.055l2.611 1.5a.063.063 0 0 0 .083-.032.059.059 0 0 0 .016-.021zM60.95 76.7V51.252a.474.474 0 0 1 .47-.477H69c4.8 0 7.777 2.792 7.777 7.469S73.4 65.9 68.959 65.9H64.92a.254.254 0 0 0-.254.248v10.593a.474.474 0 0 1-.471.477h-2.761a.54.54 0 0 1-.484-.517zM69 62.755c2.536 0 3.973-2.11 3.973-4.51 0-2.484-1.309-4.366-3.973-4.366h-4.08a.255.255 0 0 0-.248.248V62.5a.254.254 0 0 0 .254.249zM92.435 50.734h2.746a.474.474 0 0 1 .487.46v19.243c0 4.366-3.571 7.034-7.755 7.034-4.1 0-7.672-2.689-7.672-7.034V51.21a.474.474 0 0 1 .471-.476h2.72a.474.474 0 0 1 .487.46v19.175a4 4 0 0 0 7.988 0V51.224a.559.559 0 0 1 .528-.49zM105.114 63.81c-2.62-1.759-4.374-3.722-4.374-6.683 0-4.241 3.571-6.683 7.629-6.683 3.824 0 7.18 2.128 7.375 7.511a.508.508 0 0 1-.487.517h-2.514a.483.483 0 0 1-.486-.454c-.169-2.925-1.923-4.325-4.122-4.325-2.114 0-3.7 1.241-3.7 3.228 0 1.716 1.036 2.648 3.742 4.551l3.783 2.728c2.621 1.9 4.1 3.621 4.1 6.331 0 4.387-3.614 6.993-7.861 6.993-4.016 0-7.18-2.192-7.523-7.572a.484.484 0 0 1 .448-.517h2.595a.5.5 0 0 1 .486.456c.232 3 2.029 4.387 4.142 4.387 2.029 0 3.931-1.1 3.931-3.662 0-1.6-.718-2.379-2.792-3.766zM133.749 76.7V65.569a.254.254 0 0 0-.254-.248H125.4a.254.254 0 0 0-.254.248V76.7a.474.474 0 0 1-.472.475h-2.762a.473.473 0 0 1-.486-.46V51.252a.474.474 0 0 1 .47-.477h2.763a.473.473 0 0 1 .487.459v10.654a.254.254 0 0 0 .254.247h8.1a.255.255 0 0 0 .254-.247V51.252a.474.474 0 0 1 .47-.477h2.763a.472.472 0 0 1 .486.459.1.1 0 0 1 0 .017V76.72a.473.473 0 0 1-.473.48h-2.763a.489.489 0 0 1-.486-.494zM144.421 76.7V51.252a.474.474 0 0 1 .47-.477h13.455a.472.472 0 0 1 .487.459v2.23a.472.472 0 0 1-.47.476h-9.969a.255.255 0 0 0-.254.249v7.8a.253.253 0 0 0 .254.249h6.847a.473.473 0 0 1 .485.461v2.228a.473.473 0 0 1-.471.476h-6.861a.255.255 0 0 0-.254.249v8.11a.255.255 0 0 0 .254.249h9.952a.486.486 0 0 1 .487.476V76.7a.486.486 0 0 1-.487.475h-13.44a.46.46 0 0 1-.485-.434V76.7zM175.992 76.7l-4.056-11.07a.247.247 0 0 0-.233-.164h-3.761a.253.253 0 0 0-.254.247V76.7a.474.474 0 0 1-.472.475h-2.762a.473.473 0 0 1-.485-.459V51.252a.474.474 0 0 1 .471-.477h7.538c4.607 0 7.777 2.917 7.777 7.242a7.3 7.3 0 0 1-4.312 6.682.107.107 0 0 0-.067.135v.01l4.586 11.73a.487.487 0 0 1-.465.665h-2.854a.894.894 0 0 1-.655-.54zm-4.31-14.255a4.084 4.084 0 0 0 4.205-4.283 4.025 4.025 0 0 0-4.205-4.283h-3.74a.231.231 0 0 0-.233.227v8.069a.255.255 0 0 0 .254.249z"/>
    </g>
</svg>
