<svg xmlns="http://www.w3.org/2000/svg" width="200" height="128">
	<defs>
		<linearGradient id="a" x1="-124.342" y1="19.532" x2="-87.605" y2="-12.075" gradientTransform="matrix(.563 0 0 -.568 89.029 57.764)" gradientUnits="userSpaceOnUse">
			<stop offset="0" stop-color="#5a9fd4"/>
			<stop offset="1" stop-color="#306998"/>
		</linearGradient>
		<linearGradient id="b" x1="-73.403" y1="-31.205" x2="-86.521" y2="-12.644" gradientTransform="matrix(.563 0 0 -.568 89.029 57.764)" gradientUnits="userSpaceOnUse">
			<stop offset="0" stop-color="#ffd43b"/>
			<stop offset="1" stop-color="#ffe873"/>
		</linearGradient>
		<radialGradient id="c" cx="492.702" cy="206.479" r="9.785" gradientTransform="matrix(0 -.24 -1.055 0 256.576 206.847)" gradientUnits="userSpaceOnUse">
			<stop offset="0" stop-color="#b8b8b8" stop-opacity=".498"/>
			<stop offset="1" stop-color="#7f7f7f" stop-opacity="0"/>
		</radialGradient>
	</defs>
	<path d="M80.327 64.305q0-7.361-4.2-7.564a7.874 7.874 0 0 0-3.259.535 4.785 4.785 0 0 0-1.711.9v11.716a8.313 8.313 0 0 0 4.766 1.564q4.402-.291 4.404-7.151zm3.453.2a10.411 10.411 0 0 1-1.761 6.208 6.493 6.493 0 0 1-5.449 2.874 9.671 9.671 0 0 1-5.41-1.643v10.65l-3-1.071V57.894a6.707 6.707 0 0 1 1.895-1.564 13.008 13.008 0 0 1 6.514-1.6l.042.043a5.972 5.972 0 0 1 5.4 2.874 12.217 12.217 0 0 1 1.769 6.862zm18.347 6.995q0 5.016-1 6.947a7.078 7.078 0 0 1-3.846 3.081 14.742 14.742 0 0 1-4.973.989l-.5-1.892a24 24 0 0 0 3.823-.739 5.053 5.053 0 0 0 3-2.26 11.347 11.347 0 0 0 .657-4.727v-.781a15.441 15.441 0 0 1-6.455 1.4 5.936 5.936 0 0 1-3.9-1.4 4.751 4.751 0 0 1-1.892-3.863v-12.5l3-1.028V67.3a3.823 3.823 0 0 0 1.3 3.1 4.916 4.916 0 0 0 3.367 1.048 8.421 8.421 0 0 0 4.417-1.6V55.18h3zm11.72 1.926c-.358.03-.687.043-.989.043a5.911 5.911 0 0 1-3.968-1.215 4.2 4.2 0 0 1-1.415-3.36V57.069h-2.056V55.18h2.056v-5.015l3-1.068v6.083h3.373v1.889h-3.373v11.743a2.845 2.845 0 0 0 .906 2.391 4.59 4.59 0 0 0 2.467.66zm18.177-.246h-3V61.592a5.478 5.478 0 0 0-.825-3.042 3 3 0 0 0-2.644-1.438q-2.064 0-5.163 2.177V73.18h-3v-27.7l3-.946v12.617a10.46 10.46 0 0 1 6.29-2.1 5.015 5.015 0 0 1 3.863 1.6 5.649 5.649 0 0 1 1.481 3.988V73.18zm15.957-9.348a9.224 9.224 0 0 0-1.071-4.674 4.484 4.484 0 0 0-3.945-2.375q-4.936.286-4.933 7.069a11.628 11.628 0 0 0 1.031 5.193 4.146 4.146 0 0 0 3.961 2.614q4.956-.039 4.957-7.827zm3.287.02a10.675 10.675 0 0 1-2.056 6.7 7.394 7.394 0 0 1-6.247 3 7.246 7.246 0 0 1-6.168-3 10.816 10.816 0 0 1-2.014-6.7 9.562 9.562 0 0 1 2.178-6.372A7.5 7.5 0 0 1 143 54.727a7.631 7.631 0 0 1 6.087 2.753 9.562 9.562 0 0 1 2.181 6.372zm17.212 9.328h-3V60.935a4.1 4.1 0 0 0-1.212-3.147 4.406 4.406 0 0 0-3.229-1.087 7.217 7.217 0 0 0-4.07 1.4V73.18h-3V57.726a14.79 14.79 0 0 1 4.769-2.463 14.561 14.561 0 0 1 3.62-.536 9.4 9.4 0 0 1 2.014.207 5.8 5.8 0 0 1 2.877 1.521 4.024 4.024 0 0 1 1.235 2.959z" fill="#646464"/>
	<path d="M38.507 45.592a25.856 25.856 0 0 0-4.318.368c-3.823.676-4.518 2.09-4.518 4.7v3.44h9.036v1.148H26.281a5.642 5.642 0 0 0-5.645 4.58 16.889 16.889 0 0 0 0 9.183c.642 2.675 2.176 4.581 4.8 4.581h3.107v-4.127a5.742 5.742 0 0 1 5.644-5.613h9.025a4.552 4.552 0 0 0 4.518-4.591v-8.6c0-2.448-2.066-4.288-4.518-4.7a28.24 28.24 0 0 0-4.705-.369zm-4.887 2.769a1.722 1.722 0 1 1-1.695 1.728 1.715 1.715 0 0 1 1.695-1.728z" fill="url(#a)"/>
	<path d="M48.858 55.249v4.012a5.8 5.8 0 0 1-5.644 5.729h-9.025a4.609 4.609 0 0 0-4.518 4.591v8.6c0 2.448 2.13 3.888 4.518 4.591a15.117 15.117 0 0 0 9.025 0c2.275-.659 4.518-1.984 4.518-4.591v-3.44h-9.025v-1.148h13.542c2.626 0 3.6-1.832 4.518-4.581.943-2.83.9-5.552 0-9.183-.649-2.614-1.888-4.58-4.518-4.58zm-5.075 21.788a1.722 1.722 0 1 1-1.7 1.716 1.7 1.7 0 0 1 1.7-1.716z" fill="url(#b)"/>
	<path d="M174.326 52.5h.526v-3.3h1.248v-.394h-3.02v.394h1.247v3.3m2.24 0h.45v-3.011l.976 3.015h.5l1.017-3v3h.49v-3.695h-.649l-1.111 3.165-.948-3.165h-.726v3.7" fill="#646464"/>
	<path d="M50.917 88.625c0 1.3-5.421 2.348-12.108 2.348S26.7 89.921 26.7 88.625s5.421-2.348 12.108-2.348 12.109 1.051 12.109 2.348z" opacity=".444" fill="url(#c)" style="isolation:isolate"/>
</svg>
