<svg xmlns="http://www.w3.org/2000/svg" viewBox="92.2 40.2 1237.6 354.6">
	<defs>
		<clipPath id="a" clipPathUnits="userSpaceOnUse">
			<path d="M0 312h1054.576V0H0z"/>
		</clipPath>
	</defs>
	<path fill="#00aa72" d="m301.163 242.527 49.923 28.82-49.923 28.828z"/>
	<path fill="#00aa72" d="m305.107 235.733 49.89-28.816v57.593z"/>
	<path fill="#00aa72" d="m301.163 171.268 49.923 28.813-49.923 28.839z"/>
	<path fill="#00aa72" d="m119.955 128.822 49.89-28.824v57.636z"/>
	<path fill="#00aa72" d="m115.995 135.627 49.915 28.835-49.915 28.789z"/>
	<path fill="#00aa72" d="m115.995 206.905 49.93 28.828-49.93 28.82z"/>
	<path fill="#00aa72" d="m301.163 99.982 49.93 28.84-49.93 28.832z"/>
	<path fill="#00aa72" d="m305.107 164.462 49.89-28.801v57.59z"/>
	<path fill="#00aa72" d="M243.385 128.822 293.3 99.998v57.621z"/>
	<path fill="#00aa72" d="m243.385 271.324 49.915-28.797v57.617z"/>
	<path fill="#00aa72" d="m181.662 93.18 49.89-28.808v57.62z"/>
	<path fill="#00aa72" d="m239.418 64.36 49.937 28.82-49.937 28.828z"/>
	<path fill="#00aa72" d="m239.418 278.172 49.937 28.816-49.937 28.824z"/>
	<path fill="#00aa72" d="m243.385 342.64 49.915-28.828v57.625z"/>
	<path fill="#00aa72" d="m177.703 242.527 49.937 28.82-49.937 28.828z"/>
	<path fill="#00aa72" d="m177.703 99.959 49.937 28.847-49.937 28.813z"/>
	<path fill="#00aa72" d="m119.939 200.08 49.908-28.787v57.59z"/>
	<path fill="#00aa72" d="m119.955 271.346 49.89-28.8v57.628z"/>
	<path fill="#00aa72" d="m181.662 306.996 49.89-28.824v57.64z"/>
	<g clip-path="url(#a)" transform="matrix(1.33333 0 0 -1.33333 0 416)" fill="#443d4e">
		<path d="M335.205 134.398c0-5.928 10.999-14.047 16.251-14.047 5.581 0 16.586 8.119 16.586 14.047v55.177c0 5.922-10.826 14.033-16.586 14.033-5.252 0-16.251-8.111-16.251-14.033zm49.591-2.21c0-7.773-9.816-17.256-18.441-21.826 7.447-3.74 11.502-5.936 15.061-8.298 2.697-1.679 3.553-3.219 2.536-6.084-.682-2.207-4.073-7.117-6.598-7.117-2.039 0-3.223.684-6.273 2.879-5.066 3.204-15.899 9.983-28.251 15.07-10.837 4.391-24.373 16.072-24.373 25.376v59.568c0 11.687 21.652 27.433 32.999 27.433 11.676 0 33.34-15.746 33.34-27.433z"/>
		<path d="M421.001 110.018c0-2.034-1.525-3.729-3.727-3.729h-9.294c-2.046 0-3.733 1.695-3.733 3.729v103.919c0 2.033 1.687 3.714 3.733 3.714h9.294c2.202 0 3.727-1.681 3.727-3.714z"/>
		<path d="M458.57 181.108v-71.09c0-2.204-1.692-3.73-4.056-3.73h-8.468c-2.035 0-3.894 1.526-3.894 3.73v103.919c0 2.033 1.859 3.714 3.894 3.714h7.105c2.715 0 3.895-1.343 5.246-3.714l34.2-71.761v71.761c0 2.206 1.514 3.714 3.733 3.714h8.619c2.213 0 3.893-1.508 3.893-3.714V110.018c0-2.204-1.68-3.73-3.893-3.73h-6.933c-2.553 0-4.24 1.872-5.257 3.73z"/>
		<path d="M564.51 166.388c0 2.028 1.865 3.715 3.894 3.715h20.647c2.207 0 5.413-3.215 5.413-5.246v-32.67c0-11.334-21.311-27.415-32.993-27.415-11.341 0-33.184 16.081-33.184 27.415v59.569c0 11.687 21.999 27.432 33.184 27.432 7.279 0 18.105-5.584 26.06-10.503 2.028-1.187 2.71-3.553 1.682-5.572l-2.866-5.586c-1.011-1.869-3.726-2.551-5.921-1.364-6.096 3.224-14.392 7.444-18.955 7.444-5.078 0-16.419-8.111-16.419-14.032v-55.178c0-5.762 11.174-14.047 16.419-14.047 5.072 0 16.245 8.458 16.245 14.047v20.98h-9.312c-2.029 0-3.894 1.701-3.894 3.723z"/>
		<path d="M626.62 134.398c0-6.107 11.676-14.209 16.257-14.209 4.725 0 11.67 3.712 17.764 7.097 2.37 1.184 5.247.503 6.268-1.701l2.704-5.583c1.012-2.199.335-4.57-1.524-5.579-7.782-4.74-17.263-9.65-25.212-9.65-11.017 0-33.005 15.052-33.005 27.415v59.568c0 12.022 21.826 27.433 33.167 27.433 7.105 0 16.921-4.928 24.882-9.483 2.027-1.02 2.704-3.718 1.525-5.751l-2.537-5.416c-1.021-2.034-3.731-2.704-5.933-1.523-6.088 3.042-13.195 6.762-17.937 6.762-4.743 0-16.419-8.12-16.419-14.203z"/>
		<path d="M683.82 113.236v100.701c0 2.033 1.866 3.715 3.894 3.715h8.804c2.184 0 4.05-1.682 4.05-3.715V121.02h31.826c2.196 0 3.9-1.692 3.9-3.717v-7.285c0-2.033-1.704-3.729-3.9-3.729h-41.988c-2.357 0-6.586 4.746-6.586 6.947"/>
		<path d="M760.14 134.398c0-5.928 11-14.047 16.252-14.047 5.592 0 16.586 8.119 16.586 14.047v55.177c0 5.922-10.833 14.033-16.586 14.033-5.252 0-16.252-8.111-16.252-14.033zm49.591-2.21c0-11.672-21.658-27.415-33.339-27.415-11.341 0-33.005 15.578-33.005 27.415v59.568c0 11.687 21.664 27.433 33.005 27.433 11.681 0 33.339-15.746 33.339-27.433z"/>
		<path d="M861.345 104.772c-11.179 0-33.005 15.052-33.005 27.256v81.909c0 2.033 1.855 3.714 3.9 3.714h8.96c2.19 0 3.882-1.681 3.882-3.714v-79.713c0-5.934 11.011-14.036 16.263-14.036 5.251 0 16.245 8.102 16.245 14.036v79.713c0 2.033 1.52 3.714 3.565 3.714h9.29c2.045 0 3.899-1.681 3.899-3.714v-81.909c0-11.84-21.832-27.256-32.999-27.256"/>
		<path d="M962.872 189.058c0 5.589-10.15 14.056-16.24 14.056h-15.228v-82.261h15.564c5.916 0 15.904 8.617 15.904 14.039zm16.765-56.532c0-10.153-18.966-26.237-30.469-26.237h-26.406c-4.744 0-8.112 2.889-8.112 6.271v98.498c0 3.561 3.721 6.594 8.112 6.594h26.072c11.837 0 30.803-14.888 30.803-26.222z"/>
	</g>
</svg>
