<svg data-name="Layer 1" xmlns="http://www.w3.org/2000/svg" viewBox="0 0 195.225 235.413">
	<path d="M38.214 168.424H24.818a11.85 11.85 0 0 0-12.014 11.682v21.241a11.855 11.855 0 0 0 12.014 11.684h7.838c.128 6.22 6.098 6.366 6.098 6.366h11.477v-6.558h-9.894a11.777 11.777 0 0 0 9.894-11.492v-21.241a11.85 11.85 0 0 0-12.017-11.682Zm1.92 30.532a8.621 8.621 0 0 1-17.235 0v-16.458a8.62 8.62 0 0 1 17.235 0Zm66.969-2.471-17.015-27.672H79.523v44.357h10.262v-28.166l17.318 28.166h10.26v-44.357h-10.26ZM59.747 213.17h10.26v-44.357h-10.26Zm114.235-13.838a8.62 8.62 0 0 1-17.235 0V168.67h-10.093v33.055a11.85 11.85 0 0 0 12.012 11.684h13.399a11.851 11.851 0 0 0 12.013-11.684v-33.055h-10.096Zm-47.104 13.838h10.26v-44.357h-10.26Zm-5.134-108.707c-3.594 12.426-3.59 13.219-4.298 15.386-1.451 4.437-6.212 4.968-6.212 4.968H90.032s-4.762-.53-6.212-4.968c-.934-2.86-5.602-19.574-10.298-36.534a91.448 91.448 0 0 0 24.918 3.441 91.436 91.436 0 0 0 85.638-59.4 7.054 7.054 0 0 0-6.638 1.242 103.206 103.206 0 0 1-79 36.668 103.322 103.322 0 0 1-31.226-4.799c-2.565-9.31-4.38-15.92-4.38-15.92a8.296 8.296 0 0 0-9.344-5.376l2.075 16.806a103.774 103.774 0 0 1-36.125-27.38 7.054 7.054 0 0 0-6.636-1.241 91.713 91.713 0 0 0 45.41 50.08l5.683 46.026s2.542 17.61 19.064 17.61h35.344c16.523 0 19.065-17.61 19.065-17.61l3.994-32.982c-10.73-.875-17.48 6.602-19.62 13.983Z" style="fill:#00a7e1"/>
</svg>
