<svg xmlns="http://www.w3.org/2000/svg" width="200" height="128">
    <path fill="#9eadaa" d="M179.684 72.858l-1.13 3.534h-.35l-1.136-3.534h-.011v3.534h-.307v-3.838h.551l1.073 3.358h.011l1.076-3.358H180v3.838h-.306v-3.534h-.01zM176.363 72.554H172.912v.304h1.571v3.534h.307v-3.534h1.573v-.304zM139.851 76.33h-2.25l-7.364-22.669V76.33h-1.97V51.689h3.543l6.887 21.574h.075l6.903-21.574h3.452V76.33h-1.952V53.661l-7.324 22.669z"/>
    <path d="M49.022 51.686v24.65h2.139V65.188h2.959a6.523 6.523 0 0 1 2.3.373c2.182.825 2.433 3.358 2.821 4.943l1.255 5.832h2.139l-1.394-6.651a10.094 10.094 0 0 0-1.259-3.747 6.042 6.042 0 0 0-2.85-1.772c3.464-.679 4.96-3 4.96-6.168 0-2.909-1.413-6.312-7.889-6.312zm2.139 1.966h2.821c5.64 0 5.969 3 5.969 4.342 0 1.125-.207 5.224-6.852 5.224h-1.938zM65.174 63.406h2.186c.2-1 .621-2.76 3.534-2.76 3.818 0 3.689 3.308 3.689 4.588v1.49s-1.226.016-2.015.078c-2.915.225-7.674.979-7.674 5.379s3.639 4.542 4.326 4.542a6.249 6.249 0 0 0 3.009-.716 6.417 6.417 0 0 0 2.277-2.074h.077v2.4h1.768V64.722c0-1.733.16-5.783-5.317-5.783s-5.86 3.659-5.86 4.467m9.409 5.023a16.12 16.12 0 0 1-.123 1.971 4.93 4.93 0 0 1-4.884 4.187 2.308 2.308 0 0 1-2.525-2.308c0-.9.348-3.009 3.811-3.677.724-.137 3.721-.168 3.721-.168M79.311 51.686v17.688c0 .954.033 7.349 5.922 7.349 1.419 0 6.589-.5 6.589-8.712s-4.536-9.072-5.905-9.072a4.907 4.907 0 0 0-4.746 3.6h-.061V51.685h-1.8zM89.67 67.978c0 6.884-3.84 7.023-4.437 7.023-.575 0-4.058-.018-4.058-6.744 0-5.6 2.69-7.61 4.541-7.61 1.822 0 3.954 1.9 3.954 7.331M94.592 51.686v17.688c0 .954.032 7.349 5.922 7.349 1.418 0 6.589-.5 6.589-8.712s-4.537-9.072-5.906-9.072a4.905 4.905 0 0 0-4.745 3.6h-.06V51.685h-1.8zm10.357 16.292c0 6.884-3.839 7.023-4.435 7.023-.576 0-4.059-.018-4.059-6.744 0-5.6 2.691-7.61 4.541-7.61 1.822 0 3.953 1.9 3.953 7.331M110.106 59.328h1.781V76.33h-1.781zM109.69 51.689h2.636v2.894h-2.636zM124.33 76.572a17.815 17.815 0 0 1-1.816.155 5.269 5.269 0 0 1-3.387-.973 4.065 4.065 0 0 1-1.109-3.213V61.035H115.3v-1.707h2.723V55.4l1.773-1.185v5.11h4.539v1.707h-4.539v10.94c0 .492-.116 3.028 2.576 3.028a6.935 6.935 0 0 0 1.963-.307zM43.812 61.453h-7.936a.988.988 0 0 1-.993-.993v-7.94a.987.987 0 0 0-.994-.988h-2.974a.987.987 0 0 0-.993.988v7.94a.989.989 0 0 1-.993.993h-2.975a.989.989 0 0 1-.993-.993v-7.94a.986.986 0 0 0-.992-.988h-2.976a.986.986 0 0 0-.993.988v22.821a.99.99 0 0 0 .993 1h22.819a.989.989 0 0 0 .992-1v-12.9a.987.987 0 0 0-.992-.992m-3.968 8.429a1.486 1.486 0 0 1-1.488 1.489h-1.987a1.485 1.485 0 0 1-1.486-1.489V67.9a1.485 1.485 0 0 1 1.486-1.492h1.987a1.486 1.486 0 0 1 1.488 1.492z" fill="#f16a2e"/>
    <path d="M165.527 74.662c2.28-1.95 3.5-5.58 3.5-10.843 0-7.65-2.887-12.552-8.282-12.552-5.061 0-8.583 4.1-8.583 12.552s2.994 12.531 8.432 12.531c.079 0 .151-.01.229-.011v.011h9.972V74.3zM154.5 63.823c0-7.024 2.007-10.436 6.215-10.436s5.942 4.077 5.942 10.436S165.127 74.3 160.6 74.3s-6.1-3.453-6.1-10.477" fill="#9eadaa"/>
</svg>
