<svg xmlns="http://www.w3.org/2000/svg" viewBox="-10.66 -10.66 554.32 185.32">
	<path fill="#100f0d" d="m483.672 135.597-.523 2.613c-1.161 5.696-4.764 9.297-8.25 9.297-3.137 0-4.475-2.613-4.475-5.694 0-5.576 3.895-13.188 9.819-13.188 2.384 0 3.718 1.279 3.777 3.603.057 1.336-.17 2.339-.348 3.37zm-2.15-12.144c-12.026 0-18.184 10.635-18.184 19.58 0 5.056 2.498 9.994 8.54 9.994 3.749 0 7.133-1.827 9.4-5.05l-.54 2.476c-1.391 6.565-4.762 8.653-9.176 8.653-2.672 0-5.806-.697-7.435-1.685l-1.048 5.518c1.956.963 5.03 1.568 8.341 1.568 3.579 0 7.568-.697 10.561-3.138 3.228-2.667 4.815-7.08 5.87-12.597l2.56-12.826c.35-1.57.582-3.312.582-4.88 0-5.113-3.544-7.613-9.472-7.613zm9.204 39.486c5.179 2.396 10.285 1.336 13.988-5.288v-.009l18.917-33.723h-7.2l-10.745 21.052-2.608-21.052h-7.088l5.04 27.69-2.205 4.422c-1.981 3.388-5.441 2.281-7.05 1.39zM263.55 116.81h-6.577l-1.444 7.279h-3.773l-.988 5.226h3.78l-2.441 12.603c-.408 2.088-.584 3.655-.584 5.225 0 3.252 2.037 5.805 6.678 5.805 1.63 0 3.428-.17 4.416-.578v-.001l1.019-5.36c-.774.167-1.735.253-2.704.253-1.799 0-2.497-.986-2.497-2.559 0-1.22.232-2.671.52-4.005l2.209-11.383h6.332l1.044-5.226h-6.332zm78.49 6.643c-3.58 0-6.877 1.573-9.407 4.678l2.549-13.296h-6.793l-7.14 37.535h6.741l2.503-13.06c1.22-6.63 5.1-10.341 8.177-10.341 2.673 0 3.546 1.68 3.546 4.063 0 1.101-.136 2.325-.333 3.37l-3.037 15.968h6.74l3.158-16.49c.29-1.396.498-3.37.498-4.652 0-5.34-3.139-7.775-7.202-7.775zm39.158 7.775c0-5.34-3.137-7.775-7.2-7.775-4.034 0-7.706 1.996-10.329 5.93l1.047-5.464h-6.097l-5.412 28.45h6.741l2.503-13.06c1.22-6.63 5.1-10.34 8.177-10.34 2.672 0 3.546 1.68 3.546 4.063 0 1.101-.136 2.325-.333 3.37l-3.039 15.968h6.742l3.16-16.49c.289-1.396.494-3.37.494-4.652zm-97.2-2.724c2.15 0 3.597 1.1 3.597 2.905 0 3.422-4.47 4.352-11.44 4.29.816-3.422 3.603-7.195 7.843-7.195zm-7.78 16.262c-.641-1.106-.873-3.024-.755-4.01 10.917.232 18.521-2.095 18.521-9.347 0-4.766-3.54-7.956-9.12-7.956-9.753 0-16.023 9.29-16.023 17.824 0 6.912 3.775 11.729 11.616 11.729 3.718 0 7.858-.952 10.687-2.65l1.158-6.09c-2.302 1.661-5.604 3.4-10.28 3.4-2.672 0-4.704-.987-5.804-2.9zm38.631-21.255c-10.452 0-17.942 8.301-17.942 18.175 0 6.736 4.352 11.262 11.44 11.262 3.749 0 6.683-.88 8.338-1.725l1.113-5.868c-.98.552-3.765 2.135-7.597 2.135-3.773 0-6.213-2.384-6.213-6.617 0-5.923 4.125-11.904 10.628-11.904 2.525 0 4.037.699 5.21 1.319l1.07-5.625c-.992-.478-3.351-1.152-6.047-1.152zm109.004-8.676-7.138 37.535h6.74l7.191-37.535zm14.997 26.329c0 3.886 2.032 6.62 5.515 6.62 5.055 0 8.422-6.967 8.422-12.607 0-2.9-1.333-6.502-5.403-6.502-5.397 0-8.534 7.205-8.534 12.489zm20.904-6.044c0 9.646-6.679 17.886-16.319 17.886-7.14 0-11.553-4.937-11.553-11.667 0-9.584 6.679-17.886 16.318-17.886 7.604 0 11.554 5.46 11.554 11.667zm-66.923 6.044c0 3.886 2.03 6.62 5.516 6.62 5.056 0 8.42-6.967 8.42-12.607 0-2.9-1.333-6.502-5.401-6.502-5.398 0-8.535 7.205-8.535 12.489zm20.905-6.044c0 9.646-6.679 17.886-16.321 17.886-7.137 0-11.553-4.937-11.553-11.667 0-9.584 6.68-17.886 16.32-17.886 7.605 0 11.554 5.46 11.554 11.667zm111.432 12.029-.993 5.22h-.851l.695-3.654-2.12 2.478h-.507l-1.176-2.486-.697 3.663h-.85l.994-5.221h.768l1.416 2.992 2.552-2.992zm-6.372 0-.148.782h-1.723l-.845 4.439h-.85l.845-4.439h-1.73l.148-.782zM186.179 88.302l6.812-35.834 14.021 35.834h21.268l-14.508-36.118 26.402-30.808h-21.59l-25.474 30.47L202.964.007h-19.64l-16.787 88.294zM27.55 36.213l2.82-14.837H12.953L0 89.48h19.778L25.12 61.4c3.15-16.558 12.649-23.184 26.168-21.137L55.15 19.95c-12.171-1.11-23.028 5.853-27.6 16.264zm302.543 10.813c0-3.144-.742-10.777-7.985-10.777-7.366 0-13.584 8.391-15.995 21.12-.824 4.351-3.134 17.417 5.964 17.417 10.388 0 18.016-14.744 18.016-27.76zm20.565-1.498c0 16.214-7.786 32.84-21.817 40.32-5.153 2.748-10.088 3.902-14.376 3.95-7.024 0-10.962-2.625-13.208-6.674l-5.022 26.548h-19.776l16.787-88.296h17.418l-2.036 10.718c4.921-7.158 12.209-11.946 20.457-11.946 13.089 0 21.573 9.918 21.573 25.38zM92.544 42.393c-.23-4.706-2.68-7.243-7.073-7.243-9.302 0-17.36 16.055-17.353 27.22.003 6.975 2.588 11.319 7.086 11.319 7.195 0 13.392-7.524 15.523-18.542.726-3.724 1.95-9.835 1.817-12.754zm18.185 8.588-7.132 37.32H84.709l2.455-12.844c-2.65 8.005-9.103 14.34-19.93 14.34-13.142 0-19.08-11.665-19.087-23.34-.01-13.262 5.201-26.395 13.928-35.13 7.31-7.314 16.745-11.18 27.293-11.18 8.025.033 13.96 2.356 17.68 6.863 5.507 6.673 5.055 16.687 3.681 23.97zm285.645-8.588c-.23-4.706-2.68-7.243-7.073-7.243-9.301 0-17.358 16.055-17.352 27.22.003 6.975 2.588 11.319 7.086 11.319 7.195 0 13.391-7.524 15.524-18.542.726-3.724 1.948-9.835 1.815-12.754zm18.186 8.588-7.132 37.32H388.54l2.454-12.844c-2.648 8.005-9.102 14.34-19.93 14.34-13.14 0-19.08-11.665-19.087-23.34-.01-13.262 5.202-26.395 13.93-35.13 7.31-7.314 16.745-11.18 27.291-11.18 8.027.033 13.962 2.356 17.681 6.863 5.507 6.673 5.055 16.687 3.681 23.97zm46.711-30.694c-24.783 0-43.457 18.097-43.457 42.096 0 16.574 11.013 27.277 28.096 27.277 7.308 0 14.41-1.34 18.984-3.565l3.13-16.536c-6.116 3.033-10.9 4.278-16.54 4.278-6.247 0-12.95-3.595-12.95-13.63 0-11.824 8.385-24.095 22.462-24.095 4.266 0 7.836.846 10.915 2.597l3.064-16.076c-3.543-1.465-8.675-2.346-13.704-2.346zm30.9 27.859c11.604.096 18.132-1.079 20.982-3.9 3.085-3.064 2.118-9.63-5.484-9.63-8.555 0-14.001 7.013-15.499 13.53zm12.78 26.096c8.27 0 15.428-2.023 23.232-6.556l-3.167 16.644c-9.425 4.812-20.498 5.335-24.822 5.335-18.4 0-28.916-10.233-28.916-28.098 0-10.3 3.783-20.624 10.374-28.32 7.232-8.449 17.342-13.098 28.465-13.098 13.918 0 23.203 8.088 23.203 20.078 0 5.546-1.805 10.106-5.359 13.57-6.647 6.478-23.031 10.109-37.953 7.179-.712 8.408 5.618 13.266 14.943 13.266zm-347.51-53.955c-24.785 0-43.459 18.097-43.459 42.096 0 16.574 11.013 27.277 28.097 27.277 7.307 0 14.41-1.34 18.984-3.565l3.13-16.536c-6.116 3.032-10.9 4.278-16.54 4.278-6.249 0-12.95-3.595-12.95-13.63 0-11.824 8.385-24.095 22.462-24.095 4.266 0 7.836.846 10.915 2.597l3.064-16.076c-3.543-1.465-8.675-2.346-13.704-2.346zm121.944 45.896c0 6.153-2.053 11.3-6.096 15.31-5.377 5.337-14.1 8.248-24.587 8.167-7.527-.125-15.132-1.955-19.433-4.598l2.865-15.078c4.56 2.592 12.528 5.208 18.47 5.208 4.896 0 8.194-2.259 8.194-5.882 0-3.284-2.318-5.579-8.239-8.475-9.365-4.684-14.052-10.62-14.052-17.617 0-13.768 11.727-23.07 29.32-23.07 9.309 0 15.369 2.193 18.73 4.35l-2.861 15.047c-2.664-2.001-9.433-4.793-16.816-4.793-5.128 0-8.468 2.147-8.468 5.742 0 2.58 2.556 4.89 7.965 7.527 7.047 3.521 15.008 8.734 15.008 18.162"/>
</svg>
