<svg xmlns="http://www.w3.org/2000/svg" viewBox="-13.97 -13.97 726.44 154.94">
	<defs>
		<style>
			.cls-1{fill:#5a5a5c}
		</style>
	</defs>
	<path d="M293.644 1.23h28.56c13.56 0 22.7 6.57 22.7 19.31 0 10.37-7.09 16.64-14 18.8a20.57 20.57 0 0 1 4.83 6.57c2.88 5.85 4.83 12.32 10.89 12.32a8 8 0 0 0 2.77-.51l-1.34 12.22a33.6 33.6 0 0 1-6.88.92c-8.19.01-12.88-3.16-17.74-14.16-2.05-4.93-4.93-13.56-8.73-13.56h-3.9v27.42h-17.16zm17.16 12.47v17h6.16c4.93 0 10.68-1.54 10.68-8.93 0-6.06-3.9-8.12-8.63-8.12h-8.21z" class="cls-1"/>
	<path d="M368.104 1.23h17.36l23.42 69.33h-17.36l-4.31-13.15h-23.22l-4.21 13.15h-15zm0 43.45h14.89l-4.7-14.58a67.81 67.81 0 0 1-2.36-11.91h-.44a87.92 87.92 0 0 1-2.57 11.81zm41.48-43.45h18.39l18.18 34.41c1.54 3 3.59 8.22 5.24 12.32h.41c-.2-3.9-.72-9.45-.72-13.45V1.23h14.07v69.33h-18l-18.86-34.3a96 96 0 0 1-5-11.3h-.41c.31 3.9.82 8.53.82 12.32v33.28h-14.12zm59.26 34.21c0-25.06 12.43-35.44 31.63-35.44 20.23 0 28.35 11.09 26.09 26.09l-16 1.44c1.75-11-2.57-15.41-10.37-15.41-7.5 0-13.56 5.55-13.56 23.42 0 18.9 6.57 23.73 14.07 23.73 7.09 0 12.84-4.42 11.61-13.46l15 1.54c1.13 14.07-9 24.44-27.53 24.44-18.8 0-30.92-11.09-30.92-36.36m63.9-34.2h17.16v26.2h21.05V1.23h17.15v69.33h-17.15V41.19h-21.05v29.37h-17.16V1.23zm60.23 0h45.92v12.74h-28.76v14.89h24.13V41.6h-24.13v16.23h29.78v12.73h-46.94V1.23zm50.22 0h28.55c13.56 0 22.7 6.57 22.7 19.31 0 10.37-7.09 16.64-14 18.8a20.56 20.56 0 0 1 4.83 6.57c2.88 5.85 4.83 12.32 10.89 12.32a8 8 0 0 0 2.77-.51l-1.33 12.22a33.62 33.62 0 0 1-6.88.92c-8.22 0-12.94-3.18-17.77-14.17-2.05-4.93-4.93-13.56-8.73-13.56h-3.9v27.42h-17.13zm17.15 12.47v17h6.16c4.93 0 10.68-1.54 10.68-8.93 0-6.06-3.9-8.12-8.63-8.12h-8.22zm-366.72 78.333h21.2v3h-17.9v12.6h16.65v3h-16.65v16.8h-3.3zm32.8 0h21.65v3h-18.35v12.6h17.2v3h-17.2v13.8h19.15v3h-22.45zm34.2 0h10.95a23.67 23.67 0 0 1 7.8 1.125 17.383 17.383 0 0 1 5.324 2.875 14.32 14.32 0 0 1 3.35 3.875 18.952 18.952 0 0 1 2.525 7.6q.15 1.575.15 2.225 0 .65-.15 2.225a18.955 18.955 0 0 1-2.525 7.6 14.277 14.277 0 0 1-3.35 3.875 17.362 17.362 0 0 1-5.325 2.875 23.67 23.67 0 0 1-7.8 1.125h-10.95zm3.3 32.4h6.799a23.633 23.633 0 0 0 6.55-.875 14.991 14.991 0 0 0 5.3-2.675 12.612 12.612 0 0 0 3.55-4.575 17.28 17.28 0 0 0 0-13.15 12.6 12.6 0 0 0-3.55-4.575 15.009 15.009 0 0 0-5.3-2.675 23.706 23.706 0 0 0-6.55-.875h-6.8zm39.2-32.4h21.65v3h-18.35v12.6h17.2v3h-17.2v13.8h19.148v3h-22.449zm34.648 0h9.3q.7 0 1.9.05a19.413 19.413 0 0 1 2.6.3 16.02 16.02 0 0 1 2.85.8 8.083 8.083 0 0 1 2.6 1.6 8.316 8.316 0 0 1 1.9 2.65 9.15 9.15 0 0 1 .75 3.9 8.921 8.921 0 0 1-.875 4.2 8.157 8.157 0 0 1-2.2 2.675 9.247 9.247 0 0 1-2.925 1.525 18.84 18.84 0 0 1-3.05.7l10.3 17h-3.75l-9.95-16.8h-6.15v16.8h-3.3zm3.3 15.6h7a11.535 11.535 0 0 0 4.225-.65 7 7 0 0 0 2.525-1.6 5.064 5.064 0 0 0 1.225-2.05 6.313 6.313 0 0 0 0-4 5.073 5.073 0 0 0-1.225-2.05 7.026 7.026 0 0 0-2.525-1.6 11.555 11.555 0 0 0-4.225-.65h-7zm42.2-15.6h3.4l14.9 35.4h-3.7l-3.85-9.4h-18.75l-4 9.4h-3.45zm1.55 3.6-8.25 19.4h16.25zm26.85-3.6h3.3v32.4h16.5v3h-19.8z" class="cls-1"/>
	<path fill="#f15354" d="M123.323 1.255h139.456v17.921H123.323zm0 35.842h139.456v17.921H123.323zM0 72.939h262.779V90.86H0zm0 35.842h262.779v17.921H0z"/>
	<path fill="#0976a8" d="m114.428 13.05-1.24-7.43c-.4-2.412-1.332-4.367-2.07-4.367s-1.342 1.983-1.342 4.407v1.949a4.418 4.418 0 0 1-4.407 4.406h-2.366v5.356h7.744a3.618 3.618 0 0 0 3.681-4.35M96.864 6.746H72.492a2.691 2.691 0 0 0-.417.034V5.637c0-2.424-.606-4.407-1.343-4.407s-1.67 1.955-2.07 4.35l-1.24 7.43a3.618 3.618 0 0 0 3.681 4.35h7.328a6.682 6.682 0 0 0 2.086-.326 2.692 2.692 0 0 1-2.64 2.195h-10.29a2.692 2.692 0 0 1-2.635-3.115l1.04-6.242A2.692 2.692 0 0 0 63.34 6.74H12.186a2.686 2.686 0 0 0-2.446 1.6L.109 22.972a.669.669 0 0 0 .051.8l1.864 2.224a.669.669 0 0 0 .926.091l6.544-5.144v31.328a2.692 2.692 0 0 0 2.675 2.71h14.535a2.692 2.692 0 0 0 2.692-2.693V41.371a2.692 2.692 0 0 1 2.692-2.692h36.243a2.692 2.692 0 0 1 2.692 2.692v10.9a2.692 2.692 0 0 0 2.675 2.71h14.53a2.692 2.692 0 0 0 2.692-2.693V40.542h-7.71a4.418 4.418 0 0 1-4.408-4.423V28.59a4.401 4.401 0 0 1 1.772-3.52v9.001a4.418 4.418 0 0 0 4.384 4.407h11.883a4.418 4.418 0 0 0 4.407-4.407v-22.92a4.418 4.418 0 0 0-4.407-4.406"/>
</svg>
