<?xml version="1.0" encoding="utf-8"?>
<!-- Generator: Adobe Illustrator 21.1.0, SVG Export Plug-In . SVG Version: 6.00 Build 0)  -->
<svg version="1.1" id="Layer_1" xmlns="http://www.w3.org/2000/svg" xmlns:xlink="http://www.w3.org/1999/xlink" x="0px" y="0px"
	 viewBox="0 0 300 70" style="enable-background:new 0 0 300 70;" xml:space="preserve">
<style type="text/css">
	.st0{fill:#FFFFFF;}
	.st1{fill:#E10000;}
	.st2{fill:#1D1E1C;}
</style>
<g>
	<polygon id="_Path_" class="st0" points="46.4,53.7 53.9,63.7 58.2,61.7 64.3,53.3 	"/>
	<path id="_Compound_Path_" class="st1" d="M66.6,50C58,45.9,47.6,34.8,47.6,34.8c-0.2,0.2-0.4,0.3-0.6,0.5c0,0,0-0.1-0.2-0.2
		c-3.1,2.8-5.9,5.8-8.9,9l0,0c-0.2,0.2-0.3,0.4-0.5,0.5c5,6.3,9.6,12.9,13.7,19.7c0.9,1.2,1.7,3,4,1.8C61.4,63.1,66,55,67,53.2
		C68,51.3,67.4,50.6,66.6,50z M61.9,55.6c-1.6,2.6-5.8,7.5-7.7,6.3c-2.2-2-4-4.3-5.5-6.9c0-0.1,0-0.1,0-0.2c0.1,0,0.1,0,0.2,0l0,0
		c5.8,4.7,10.2,1.9,12.7,0.4C61.8,55.1,62.1,55.4,61.9,55.6L61.9,55.6z"/>
	<path id="_Path_2" class="st2" d="M52.8,4.5c1.2-1.1,3-1.3,4.4-0.6c5.5,1.9,14.9,8.5,12.7,16.7c-0.1,0.3-0.3,0.6-0.6,0.7
		c-14.6,5.9-35.3,26-48.2,47.7c-0.2,0.4-0.6,0.6-1,0.5C11,68.1,3.5,61.7,0.7,52.9c-0.2-0.4,0-0.9,0.4-1.2
		C21.2,37.1,51.3,5.9,52.8,4.5z"/>
	<path id="_Path_3" class="st0" d="M2,14.1c0,0,1.7-10.7,15.7-11.3c5.4,6.1,12.7,15,12.7,15L2,14.1z"/>
	<path id="_Compound_Path_2" class="st1" d="M37.1,23.1l-0.4-0.5l0,0l-0.9-1c-1.3-1.5-2.7-3.1-4.2-4.7C22.7,6.6,19.5,1.2,18.8,0.7
		C18,0.1,12,0.1,6.3,3.9c-6.4,4.2-7.3,11-5.3,12.3c8.3,4.2,16.1,9.3,23.3,15.1l1.7,1.5l9.1,7.7l0.3-2.6c0.2-0.1,0.4-0.2,0.6-0.4
		C38.1,35.4,38.7,26.7,37.1,23.1z M27.4,15.8c-8.7-7.8-15.6-6.7-23.9-2.1c-0.1,0.1-0.3,0.1-0.4-0.1c-0.1-0.1-0.1-0.2,0-0.3
		c1.9-8.2,11.8-10,14-9.8c0.2,0,0.4,0.1,0.5,0.3c1.2,1.3,6.8,7.9,9.9,11.8C27.6,15.8,27.5,15.9,27.4,15.8
		C27.4,15.9,27.4,15.9,27.4,15.8L27.4,15.8z"/>
	<path id="_Compound_Path_3" class="st2" d="M300,55.5h-7.2l-9.6-10.2l-9.7,10.2h-6.6l13.2-13.2L267,28.9h7.2l9.6,10l9.5-10h6.7
		L286.7,42L300,55.5 M259.2,33.7c-2-1.4-4.4-2.1-6.8-1.9c-2.6-0.1-5.2,0.6-7.3,2.1c-1.7,1.3-2.8,3.2-3.1,5.3h19.4
		C261.5,37,260.7,35,259.2,33.7z M242,42.6c0,1.4,0.3,2.9,0.9,4.2c0.6,1.2,1.5,2.2,2.6,3c1.1,0.8,2.4,1.4,3.7,1.7
		c1.6,0.4,3.2,0.6,4.8,0.6c2.4,0,4.7-0.4,7-1.1c1.8-0.4,3.4-1.1,5-2.1h0.3v4.9c-1.9,0.6-3.9,1.2-5.9,1.6c-2.1,0.4-4.2,0.7-6.3,0.7
		c-4.7,0.3-9.3-1-13.1-3.6c-3.2-2.4-4.9-6.2-4.8-10.1c-0.2-4,1.5-7.8,4.5-10.4c3.4-2.7,7.6-4,11.9-3.8c3.8-0.2,7.5,0.9,10.6,3.1
		c2.5,2.2,3.9,5.5,3.7,8.9v2.4h-25L242,42.6z M236.2,33.7c-0.9-0.1-1.7-0.3-2.5-0.4c-0.8-0.1-1.7,0-2.8,0c-1.7,0-3.5,0.3-5.1,0.9
		c-1.7,0.6-3.3,1.4-4.8,2.4v18.8h-5.7V28.9h5.7v3.9c1.9-1.2,3.9-2.3,6-3c1.7-0.6,3.5-0.9,5.3-0.9c1,0,1.7,0,2.1,0l2.1,0.2v4.6h-0.3
		L236.2,33.7z M203,34.5c-4.2-3.3-10.2-3.3-14.4,0c-1.9,2.1-2.8,4.9-2.6,7.7c-0.2,2.8,0.7,5.5,2.6,7.6c1.9,1.9,4.5,2.9,7.1,2.8
		c2.6,0.1,5.2-0.8,7.1-2.6c1.9-2.1,2.8-4.8,2.6-7.6c0.2-2.8-0.7-5.6-2.5-7.8V34.5z M207.2,52.3c-6.8,5-16,5-22.8,0
		c-2.8-2.6-4.4-6.4-4.2-10.2c-0.2-3.9,1.3-7.6,4.2-10.2c6.8-5,16-5,22.8,0c2.8,2.6,4.4,6.4,4.2,10.2c0.2,3.9-1.2,7.7-4.1,10.3
		L207.2,52.3z M170.9,55.4v-15c0-1.1-0.1-2.3-0.3-3.4c-0.1-0.9-0.5-1.8-1-2.5c-0.6-0.7-1.3-1.2-2.2-1.5c-1.2-0.4-2.4-0.5-3.7-0.5
		c-1.7,0-3.3,0.3-4.9,0.9c-1.7,0.6-3.3,1.4-4.9,2.3v19.8h-5.7V28.9h5.7v3c1.7-1.1,3.6-2,5.5-2.7c1.9-0.7,3.9-1,5.9-1
		c3-0.2,6,0.7,8.3,2.6c2,1.9,3.1,4.7,2.9,7.5v17.2h-5.7L170.9,55.4z M138.3,41.5l-6.1,0.4c-1.9,0.1-3.7,0.3-5.6,0.7
		c-1.4,0.3-2.8,0.8-4,1.7c-1.8,1.5-2,4.1-0.6,5.9c0.2,0.3,0.5,0.5,0.8,0.7c1.7,0.9,3.5,1.3,5.4,1.1c1.9,0,3.7-0.3,5.5-0.9
		c1.6-0.6,3.1-1.3,4.6-2.2v-7.2L138.3,41.5z M138.3,55.4v-2.7c-0.5,0.3-1.2,0.7-2.1,1.1c-0.8,0.4-1.6,0.8-2.5,1.2
		c-1.1,0.4-2.2,0.7-3.3,0.9c-1.4,0.3-2.9,0.4-4.3,0.4c-2.8,0.1-5.5-0.7-7.8-2.4c-2-1.4-3.2-3.6-3.2-6c-0.1-1.8,0.5-3.5,1.6-4.9
		c1.3-1.4,2.9-2.4,4.7-2.9c2.4-0.8,4.9-1.3,7.4-1.4c2.9-0.3,6-0.5,9.3-0.6v-0.7c0-0.9-0.2-1.8-0.7-2.5c-0.5-0.7-1.2-1.2-1.9-1.6
		c-0.9-0.4-1.9-0.6-2.9-0.7c-1.1,0-2.3-0.2-3.5-0.2c-1.7,0-3.3,0.2-5,0.5c-1.9,0.3-3.8,0.8-5.7,1.3h-0.3v-4.7
		c1.1-0.3,2.7-0.5,4.8-0.8c2.1-0.3,4.2-0.4,6.3-0.4c2.1,0,4.2,0.1,6.3,0.5c1.6,0.2,3.2,0.8,4.6,1.6c1.2,0.7,2.2,1.6,2.9,2.8
		c0.7,1.3,1.1,2.8,1,4.3v18L138.3,55.4z M102.1,27.4c-0.5-0.9-1.3-1.6-2.3-2.1c-1-0.5-2-0.8-3.1-1c-1.4-0.2-2.8-0.3-4.2-0.3h-7.1
		v13.3h6.3c1.7,0,3.3-0.1,5-0.4c1.3-0.2,2.5-0.7,3.6-1.5c0.9-0.6,1.6-1.4,2.1-2.3c0.5-1,0.7-2.1,0.7-3.3
		C102.9,29.1,102.6,28.2,102.1,27.4z M99.8,39.9l17,15.4H109l-15.1-14h-8.5v14h-6V20.1H92c2.3,0,4.5,0.1,6.8,0.4
		c1.7,0.2,3.4,0.7,4.9,1.5c1.5,0.7,2.8,1.8,3.8,3.1c1,1.4,1.4,3,1.4,4.6c0.1,2.4-0.8,4.7-2.5,6.4C104.6,37.9,102.3,39.2,99.8,39.9z"
		/>
	<path id="_Compound_Path_4" class="st0" d="M54.8,5.5c-0.7,0-8.5,7.8-18.8,17.7c-0.1,0.2-4.2,3.9-3,7.4c0.9,4.2,0.6,6.8-1.2,6.5
		c-2.1-1.2-4.1-2.6-6-4.2c-7.1,6.9-14.7,13.5-22.5,19.5C3.1,52.6,3,52.8,3,53c0.9,4.8,10.7,13.7,16.4,14c0.2,0,0.5-0.1,0.6-0.3
		C31.1,49.6,54.7,25.1,67.1,20c0.3-0.1,0.5-0.3,0.5-0.6C69,10.8,57.6,5.9,54.8,5.5z M19.3,63.8c-0.9,1-3.7,0.2-8.3-3.5
		c-2.1-1.6-3.8-3.7-5.1-6.1c0-0.1,0-0.4,0.3-0.3c8.5,4.3,11.5,3.9,23.5-3.3c0.1,0,0.2,0,0.2,0.1c0,0.1,0,0.1,0,0.2
		C23.4,58.3,20.1,62.9,19.3,63.8L19.3,63.8z M48.9,14.1c-0.1,0-0.4,0-0.3-0.2c1.7-2.4,5.8-6.3,7-5.8c3.6,1.5,6.7,3.9,9,7
		c0.1,0.1,0,0.2-0.1,0.3c-0.1,0-0.1,0-0.2,0C54.8,10.5,50.9,12.4,48.9,14.1L48.9,14.1z"/>
</g>
</svg>
