<svg xmlns="http://www.w3.org/2000/svg" xmlns:xlink="http://www.w3.org/1999/xlink" width="200" height="128">
    <defs>
        <linearGradient id="linear-gradient" x1="37.96" y1="56.61" x2="48.97" y2="56.61" gradientUnits="userSpaceOnUse">
            <stop offset="0" stop-color="#00a79d"/>
            <stop offset=".64" stop-color="#23c2aa"/>
            <stop offset="1" stop-color="#32ceb0"/>
        </linearGradient>
        <linearGradient id="linear-gradient-2" x1="37.96" y1="71.55" x2="48.97" y2="71.55" xlink:href="#linear-gradient"/>
        <linearGradient id="linear-gradient-3" x1="50.99" y1="64.02" x2="61.99" y2="64.02" xlink:href="#linear-gradient"/>
        <linearGradient id="linear-gradient-4" x1="50.14" y1="47.73" x2="64.45" y2="47.73" xlink:href="#linear-gradient"/>
        <linearGradient id="linear-gradient-5" x1="37.28" y1="56.49" x2="48.97" y2="56.49" xlink:href="#linear-gradient"/>
        <linearGradient id="linear-gradient-6" x1="37.28" y1="71.42" x2="48.97" y2="71.42" xlink:href="#linear-gradient"/>
        <linearGradient id="linear-gradient-7" x1="50.31" y1="63.9" x2="61.99" y2="63.9" xlink:href="#linear-gradient"/>
        <linearGradient id="linear-gradient-8" x1="49.47" y1="47.6" x2="60.36" y2="47.6" xlink:href="#linear-gradient"/>
    </defs>
    <path fill="url(#linear-gradient)" d="M37.96 66.1l11.01-6.36V47.13l-11.01 6.35V66.1z"/>
    <path fill="url(#linear-gradient-2)" d="M37.96 81.03l11.01-6.35V62.06l-11.01 6.35v12.62z"/>
    <path fill="url(#linear-gradient-3)" d="M50.99 73.51l11-6.35V54.54l-11 6.35v12.62z"/>
    <path fill="url(#linear-gradient-4)" d="M64.45 47.11l-4.09-9.35-10.22 10.58 4.09 9.36 10.22-10.59z"/>
    <path fill="url(#linear-gradient-5)" d="M37.28 53.23v12.62l.68.25V53.48l11.01-6.35-.68-.25-11.01 6.35z"/>
    <path fill="url(#linear-gradient-6)" d="M37.28 68.16v12.62l.68.25V68.41l11.01-6.35-.68-.25-11.01 6.35z"/>
    <path fill="url(#linear-gradient-7)" d="M61.31 54.29l-11 6.35v12.62l.68.25V60.89l11-6.35-.68-.25z"/>
    <path fill="url(#linear-gradient-8)" d="M54.23 57.7l-4.09-9.36 10.22-10.58-.68-.25-10.21 10.58 4.08 9.36.68.25z"/>
    <path fill="#fff" d="M43 68a7.8 7.8 0 00-3.49 6.06c0 2.21 1.59 3.12 3.52 2A7.79 7.79 0 0046.55 70l-3.53 2zM40.34 61l-1 3.19 8.21-4.76-1-2zM43.44 51.42l-1.53 4.46L45 54.1zM60.62 65.66l-.17.1V58l-1.58.91v7.77l-3.44 2v-4.26l-1.57.91v4.24l-.49.28v-8.31a.51.51 0 00-.5-.5.5.5 0 00-.5.5v9.16a.49.49 0 00.25.43.35.35 0 00.18 0h.05a.83.83 0 00.15 0h.07l8-4.61a.51.51 0 00.18-.69.49.49 0 00-.63-.17zM60.85 43.7l-.22-.1a1.37 1.37 0 00.58-.57c.3-.5.3-1 0-1.21s-.76.1-1.06.6a1.31 1.31 0 00-.19.9l-1.52 3.53.92.39zM54.61 52.48a1.4 1.4 0 00.21-.79l1.33-3.08a1.7 1.7 0 00.34-.4.94.94 0 00.06-.15v.16l1.52-.08-.06-1-1.35.08a.45.45 0 00-.16-.22c-.29-.17-.77.1-1.06.6a1.56 1.56 0 00-.2.61l-1.44 3.33a1.91 1.91 0 00-.24.32c-.3.5-.3 1 0 1.22s.75-.08 1.05-.6z"/>
    <path fill="#2E3A45" d="M43.84 66.65v4l3.53-2v-.08c0-2.14-1.59-3.04-3.53-1.92z"/>
    <path fill="#2E3A45" d="M78.53 70L62 60.49v6.67l-11 6.35-.68-.25V60.64l6-3.45-1-.58-1 1.09-.68-.25-.7-1.45a2.31 2.31 0 00-.82.23L49 58.09v1.65L38 66.1l-.68-.25v-1l-17 9.79c-.7.41-.61 1.11.2 1.59l23.65 13.65a3.07 3.07 0 002.76.11l31.8-18.36c.7-.41.61-1.12-.2-1.63zM49 74.68L38 81l-.68-.25V68.16l11-6.35.68.25zM45.27 54.8l-3.69 2.13-1 3.18 5.72-3.31z"/>
    <path fill="#2E3A45" d="M57.94 61.35l-1.58.91v5.85l1.58-.92v-5.84zM59.17 47.89c.29-.5.3-1 0-1.22s-.77.1-1.06.61-.3 1 0 1.22.77-.1 1.06-.61zM108.79 68.38a.48.48 0 00-.19.26l-1.5 5.26c0 .13-.06.26-.09.41l-.09.46a6.09 6.09 0 00-.23-.87L105 68.64a.6.6 0 00-.2-.27.63.63 0 00-.35-.1H104a.51.51 0 00-.35.12.5.5 0 00-.19.25l-1.73 5.26a4.21 4.21 0 00-.12.42c0 .16-.08.32-.11.49l-.09-.49c0-.15-.06-.29-.1-.42l-1.5-5.26a.47.47 0 00-.19-.27.63.63 0 00-.35-.1h-1.43l2.73 8.79h1.48l1.94-6c0-.08.05-.16.08-.25s.05-.19.07-.29c0 .1 0 .2.08.29s0 .17.07.25l1.93 6h1.47l2.73-8.79h-1.28a.56.56 0 00-.35.11zM111.58 68.27h1.64v8.79h-1.64zM121.78 69.5a4.16 4.16 0 00-1.4-.9 4.87 4.87 0 00-1.82-.33h-3.36v8.79h3.36a4.87 4.87 0 001.82-.32 4 4 0 002.31-2.3 5.08 5.08 0 000-3.55 4.14 4.14 0 00-.91-1.39zm-.64 4.5a2.79 2.79 0 01-.55 1 2.45 2.45 0 01-.87.61 3.07 3.07 0 01-1.16.21h-1.71v-6.25h1.71a2.89 2.89 0 011.16.22 2.33 2.33 0 01.87.61 2.7 2.7 0 01.55 1 4 4 0 01.2 1.3 4.08 4.08 0 01-.2 1.3zM128.63 73.58a.29.29 0 00.09.22.39.39 0 00.25.08h1.1v1.6a3.79 3.79 0 01-.78.28 3.88 3.88 0 01-1 .1 3 3 0 01-1.16-.22 2.59 2.59 0 01-.91-.62 2.82 2.82 0 01-.59-1 3.82 3.82 0 01-.22-1.35 4 4 0 01.2-1.28 3 3 0 01.57-1 2.46 2.46 0 01.9-.62 3 3 0 011.18-.22 3.82 3.82 0 01.71.05 5.48 5.48 0 01.55.14 3.07 3.07 0 01.45.2l.4.23a.51.51 0 00.3.1.43.43 0 00.37-.22l.47-.75a4.42 4.42 0 00-1.33-.83 5 5 0 00-1.87-.32 5.13 5.13 0 00-1.89.33 4 4 0 00-1.44.93 4.05 4.05 0 00-.92 1.42 5.08 5.08 0 00-.32 1.82 4.8 4.8 0 00.33 1.8 4.34 4.34 0 00.93 1.45 4.51 4.51 0 001.4.93 4.65 4.65 0 001.77.33 8 8 0 001-.06 6 6 0 00.88-.17 4.73 4.73 0 00.77-.3 4.63 4.63 0 00.7-.42v-3.55h-2.93zM133.08 77.06h5.55v-1.3h-3.9v-2.49h3.07v-1.26h-3.07v-2.44h3.9v-1.3h-5.55v8.79zM139.3 69.61h2.66v7.45h1.63v-7.45h2.65v-1.34h-6.94v1.34zM156 71.07a3 3 0 00-.21-1.13 2.18 2.18 0 00-.62-.88 2.91 2.91 0 00-1.06-.58 5 5 0 00-1.53-.21h-2.86v8.79h1.64V74h1.22a4.81 4.81 0 001.5-.21 2.94 2.94 0 001.06-.6 2.4 2.4 0 00.64-.91 3.22 3.22 0 00.22-1.21zm-1.75.68a1.25 1.25 0 01-.33.51 1.48 1.48 0 01-.55.32 2.64 2.64 0 01-.79.11h-1.22v-3.15h1.22a2.66 2.66 0 01.79.1 1.47 1.47 0 01.55.31 1.18 1.18 0 01.33.49 1.81 1.81 0 01.11.63 2.06 2.06 0 01-.15.68zM158.89 68.27l-3.46 8.79h1.27a.51.51 0 00.35-.11.52.52 0 00.19-.26l.66-1.79h3.64l.66 1.79a.6.6 0 00.2.27.54.54 0 00.35.1H164l-3.45-8.79zm-.57 5.47l1.07-2.91c.05-.13.11-.29.16-.47s.11-.37.17-.57c.06.2.11.39.17.57s.11.33.16.46l1.07 2.92zM166.56 70.4a2.59 2.59 0 01.9-.62 3 3 0 011.14-.21 2.71 2.71 0 01.87.11 3.2 3.2 0 01.57.23l.37.24a.47.47 0 00.28.11.41.41 0 00.21-.05.53.53 0 00.13-.13l.54-.76a3.8 3.8 0 00-1.25-.83 4.31 4.31 0 00-1.71-.32 5 5 0 00-1.84.34 4.3 4.3 0 00-1.42.92 4.17 4.17 0 00-.93 1.42 5.08 5.08 0 00-.32 1.82 5.23 5.23 0 00.29 1.8 4.18 4.18 0 00.85 1.43 4.08 4.08 0 001.33.93 4.49 4.49 0 001.76.33 4.64 4.64 0 001.88-.35 3.67 3.67 0 001.32-1l-.65-.7a.29.29 0 00-.23-.1.4.4 0 00-.15 0l-.12.09a2.76 2.76 0 01-.41.31 2.11 2.11 0 01-.43.2 3.33 3.33 0 01-.5.12 5.47 5.47 0 01-.6 0 2.47 2.47 0 01-1.05-.21 2.49 2.49 0 01-.84-.6 2.89 2.89 0 01-.57-1 3.89 3.89 0 01-.21-1.32 3.71 3.71 0 01.21-1.29 2.8 2.8 0 01.58-.91zM177.23 73a2.09 2.09 0 00-.31-.34 1.23 1.23 0 00-.37-.21 1.26 1.26 0 00.28-.19l.27-.28 3-3.66h-1.41a1.06 1.06 0 00-.43.08 1 1 0 00-.32.27l-2.42 3.07a.63.63 0 01-.26.2 1 1 0 01-.39.07h-.38v-3.74h-1.64v8.79h1.64V73.2h.51a1 1 0 01.43.07.69.69 0 01.27.22l2.49 3.25a.56.56 0 00.24.24.82.82 0 00.43.08h1.45z"/>
    <path fill="#3EC1A8" d="M104.31 51.64a3.79 3.79 0 00-1.35-.89 4.7 4.7 0 00-1.75-.31H98v8.71h3.26a4.91 4.91 0 001.75-.31 3.92 3.92 0 001.35-.89 4 4 0 00.88-1.37 5.29 5.29 0 000-3.57 4 4 0 00-.93-1.37zm-.24 4.59a3 3 0 01-.62 1.07 2.62 2.62 0 01-1 .66 3.3 3.3 0 01-1.27.24h-2.05v-6.81h2.08a3.5 3.5 0 011.27.23 2.76 2.76 0 011 .67 3 3 0 01.62 1.07 4.79 4.79 0 010 2.87zM109.33 50.44l-3.48 8.71h.91a.39.39 0 00.26-.09.43.43 0 00.14-.19l.82-2.1h3.91l.81 2.1a.43.43 0 00.15.2.39.39 0 00.25.08h.9l-3.49-8.71zm-1 5.48l1.36-3.54c0-.11.09-.23.13-.37l.13-.46a5.73 5.73 0 00.26.82l1.37 3.55zM119.41 55a3.07 3.07 0 00-.67-.43c-.25-.11-.51-.21-.77-.3l-.77-.27a3.65 3.65 0 01-.66-.29 1.49 1.49 0 01-.48-.41 1 1 0 01-.18-.61 1.36 1.36 0 01.11-.53 1.16 1.16 0 01.3-.43 1.79 1.79 0 01.51-.29 2.15 2.15 0 01.7-.1 2.09 2.09 0 01.71.1 3.08 3.08 0 01.51.23 2.83 2.83 0 01.34.23.45.45 0 00.25.1.24.24 0 00.15 0 .58.58 0 00.12-.14l.28-.56a3 3 0 00-1-.67 3.75 3.75 0 00-1.33-.23 3.15 3.15 0 00-1.15.2 2.26 2.26 0 00-.84.54 2.19 2.19 0 00-.52.76 2.49 2.49 0 000 1.86 1.89 1.89 0 00.47.66 2.48 2.48 0 00.66.42 7.15 7.15 0 00.77.29l.77.25a2.86 2.86 0 01.66.29 1.37 1.37 0 01.47.42 1.08 1.08 0 01.18.64 1.76 1.76 0 01-.12.66 1.44 1.44 0 01-.91.82 2.09 2.09 0 01-.74.12 2.42 2.42 0 01-.86-.14 3 3 0 01-.59-.3 4.43 4.43 0 01-.41-.3.51.51 0 00-.3-.14.3.3 0 00-.15 0 .43.43 0 00-.12.11l-.34.56a3.59 3.59 0 001.19.83 3.85 3.85 0 001.54.31 3.23 3.23 0 001.24-.22 2.63 2.63 0 00.92-.58 2.5 2.5 0 00.56-.87 3 3 0 00.2-1.08 1.9 1.9 0 00-.65-1.53zM127.44 54.32h-4.69v-3.88h-1.19v8.71h1.19v-3.96h4.69v3.96h1.19v-8.71h-1.19v3.88zM135 54.67a3.41 3.41 0 00.72-.33 2.26 2.26 0 00.51-.46 1.74 1.74 0 00.3-.55 1.83 1.83 0 00.1-.62 2.4 2.4 0 00-.18-1 1.83 1.83 0 00-.55-.72 2.89 2.89 0 00-1-.45 5.63 5.63 0 00-1.39-.15h-2.78v8.71h3.09a4.23 4.23 0 001.29-.18 2.89 2.89 0 001-.51 2.13 2.13 0 00.59-.78 2.4 2.4 0 00.2-1 1.81 1.81 0 00-.48-1.31 2.64 2.64 0 00-1.42-.65zm-3-3.3h1.6a2.35 2.35 0 011.44.36 1.34 1.34 0 01.46 1.12 1.54 1.54 0 01-.12.61 1.14 1.14 0 01-.35.47 1.66 1.66 0 01-.61.3 3.1 3.1 0 01-.86.11H132zm3.69 5.9a1.15 1.15 0 01-.34.5 1.64 1.64 0 01-.6.33 3.1 3.1 0 01-.86.11H132v-3h1.88a2.26 2.26 0 011.45.39 1.33 1.33 0 01.47 1.07 1.61 1.61 0 01-.18.6zM145.53 51.59a3.9 3.9 0 00-1.36-.92 4.83 4.83 0 00-3.51 0 4 4 0 00-1.35.92 4.06 4.06 0 00-.88 1.41 5.35 5.35 0 000 3.59 4 4 0 002.23 2.33 5 5 0 003.51 0 3.93 3.93 0 002.23-2.33 5.35 5.35 0 000-3.59 4 4 0 00-.87-1.41zm-.25 4.64a2.86 2.86 0 01-.62 1.08 2.7 2.7 0 01-1 .68 3.65 3.65 0 01-2.55 0 2.79 2.79 0 01-1-.68 3 3 0 01-.63-1.08 4.53 4.53 0 01-.21-1.43 4.66 4.66 0 01.21-1.45 3.06 3.06 0 01.63-1.07 2.66 2.66 0 011-.68 3.51 3.51 0 012.55 0 2.58 2.58 0 011 .68 2.9 2.9 0 01.62 1.07 4.37 4.37 0 01.22 1.45 4.25 4.25 0 01-.22 1.43zM150.56 50.44l-3.49 8.71h.93a.37.37 0 00.26-.09.45.45 0 00.15-.19l.81-2.1h3.91l.81 2.1a.62.62 0 00.15.2.4.4 0 00.26.08h.91l-3.49-8.71zm-1 5.48l1.37-3.54c0-.11.08-.23.12-.37s.09-.29.13-.46a7.36 7.36 0 00.26.82l1.37 3.55zM160 55.32a3.57 3.57 0 00.9-.34 2.45 2.45 0 00.68-.55 2.35 2.35 0 00.42-.72 2.63 2.63 0 00.14-.86 2.66 2.66 0 00-.18-1 1.89 1.89 0 00-.59-.76 2.87 2.87 0 00-1-.49 5.47 5.47 0 00-1.43-.16h-2.46v8.71h1.17v-3.64h.9a.82.82 0 01.36.07.64.64 0 01.23.21l2.26 3.11a.51.51 0 00.47.25h1.05l-2.54-3.46a1.35 1.35 0 00-.38-.37zm-1.1-.66h-1.24v-3.29h1.29a2.5 2.5 0 011.53.39 1.41 1.41 0 01.51 1.18 1.73 1.73 0 01-.13.69 1.37 1.37 0 01-.4.55 1.76 1.76 0 01-.65.35 2.86 2.86 0 01-.94.13zM171.41 53a4 4 0 00-.88-1.37 3.7 3.7 0 00-1.35-.89 4.7 4.7 0 00-1.75-.31h-3.26v8.71h3.26a4.91 4.91 0 001.75-.31 3.83 3.83 0 001.35-.89 4 4 0 00.88-1.37 5.29 5.29 0 000-3.57zm-1.12 3.22a2.9 2.9 0 01-.62 1.07 2.62 2.62 0 01-1 .66 3.27 3.27 0 01-1.27.24h-2.08v-6.8h2.08a3.46 3.46 0 011.27.23 2.76 2.76 0 011 .67 2.9 2.9 0 01.62 1.07 4.79 4.79 0 010 2.87z"/>
</svg>
