<svg xmlns="http://www.w3.org/2000/svg" xmlns:xlink="http://www.w3.org/1999/xlink" width="200" height="128">
	<defs>
		<linearGradient id="a" x1="24.07" y1="40.98" x2="25.52" y2="40.98" gradientTransform="matrix(1 0 0 -1 0 108)" gradientUnits="userSpaceOnUse">
			<stop offset="0" stop-color="#00a79d"/>
			<stop offset=".64" stop-color="#23c2aa"/>
			<stop offset="1" stop-color="#32ceb0"/>
		</linearGradient>
		<linearGradient id="b" x1="20.67" y1="55.71" x2="55.67" y2="55.71" xlink:href="#a"/>
		<linearGradient id="c" x1="37.4" y1="48.14" x2="40.42" y2="48.14" xlink:href="#a"/>
		<linearGradient id="d" x1="19.6" y1="51.16" x2="47.15" y2="51.16" xlink:href="#a"/>
	</defs>
	<path fill="#3ec1a8" d="M101 48.51a5.58 5.58 0 0 1-.36 2.05 4.45 4.45 0 0 1-2.57 2.6 5.41 5.41 0 0 1-2 .36h-3.74v-10h3.76a5.41 5.41 0 0 1 2 .36 4.4 4.4 0 0 1 1.56 1 4.51 4.51 0 0 1 1 1.59 5.62 5.62 0 0 1 .35 2.04zm-1.39 0a4.93 4.93 0 0 0-.26-1.65 3.24 3.24 0 0 0-.71-1.23 2.92 2.92 0 0 0-1.12-.77 3.83 3.83 0 0 0-1.46-.27H93.7v7.83h2.39a4 4 0 0 0 1.46-.26 3.16 3.16 0 0 0 1.12-.77 3.24 3.24 0 0 0 .71-1.23 4.93 4.93 0 0 0 .26-1.65zm11.23 5.01h-1a.47.47 0 0 1-.3-.09.66.66 0 0 1-.17-.23l-.93-2.42h-4.51L103 53.2a.6.6 0 0 1-.17.22.44.44 0 0 1-.3.1h-1l4-10h1.37zm-6.58-3.72H108l-1.58-4.08a8.38 8.38 0 0 1-.3-.95c0 .19-.1.37-.15.53s-.1.3-.14.42zM118 43.49v1.14h-3.24v8.89h-1.36v-8.89h-3.25v-1.14zm8.77 10.03h-1a.49.49 0 0 1-.3-.09.53.53 0 0 1-.16-.23l-.94-2.42h-4.5l-.94 2.42a.51.51 0 0 1-.17.22.43.43 0 0 1-.29.1h-1l4-10h1.38zm-6.58-3.72h3.75l-1.58-4.08a8.38 8.38 0 0 1-.3-.95c0 .19-.1.37-.15.53s-.09.3-.14.42zm16.54-1.29a5.58 5.58 0 0 1-.36 2.05 4.45 4.45 0 0 1-2.57 2.6 5.41 5.41 0 0 1-2 .36H128v-10h3.76a5.41 5.41 0 0 1 2 .36 4.4 4.4 0 0 1 1.56 1 4.51 4.51 0 0 1 1 1.59 5.62 5.62 0 0 1 .41 2.04zm-1.39 0a4.93 4.93 0 0 0-.26-1.65 3.24 3.24 0 0 0-.71-1.23 2.92 2.92 0 0 0-1.12-.77 3.83 3.83 0 0 0-1.46-.27h-2.39v7.83h2.39a4 4 0 0 0 1.46-.26 3.16 3.16 0 0 0 1.12-.77 3.24 3.24 0 0 0 .71-1.23 4.93 4.93 0 0 0 .26-1.65zm12.55 0a6 6 0 0 1-.35 2.07 4.78 4.78 0 0 1-1 1.62 4.61 4.61 0 0 1-1.57 1 5.53 5.53 0 0 1-4 0 4.47 4.47 0 0 1-1.56-1 4.63 4.63 0 0 1-1-1.62 6.13 6.13 0 0 1 0-4.14 4.63 4.63 0 0 1 1-1.62 4.36 4.36 0 0 1 1.56-1.06 5.53 5.53 0 0 1 4 0 4.49 4.49 0 0 1 1.57 1.06 4.78 4.78 0 0 1 1 1.62 6 6 0 0 1 .35 2.07zm-1.39 0a5 5 0 0 0-.25-1.66 3.52 3.52 0 0 0-.72-1.24 3 3 0 0 0-1.12-.78 3.78 3.78 0 0 0-1.47-.27 3.83 3.83 0 0 0-1.46.27 3.06 3.06 0 0 0-1.12.78 3.52 3.52 0 0 0-.72 1.24 5.64 5.64 0 0 0 0 3.32 3.61 3.61 0 0 0 .72 1.24 3.16 3.16 0 0 0 1.12.77 3.83 3.83 0 0 0 1.46.27 3.78 3.78 0 0 0 1.47-.27 3.07 3.07 0 0 0 1.12-.77 3.61 3.61 0 0 0 .72-1.24 5 5 0 0 0 .25-1.66zm7.72 4.03h.75a6.06 6.06 0 0 0 .64-.12 4.09 4.09 0 0 0 .56-.18l.54-.25v-2.25h-1.56a.29.29 0 0 1-.21-.08.27.27 0 0 1-.08-.19v-.77h3.08v3.85a6.4 6.4 0 0 1-.79.48 6.85 6.85 0 0 1-.87.34 7.37 7.37 0 0 1-1 .2 10.44 10.44 0 0 1-1.16.06 5.23 5.23 0 0 1-2-.37 4.61 4.61 0 0 1-1.57-1 4.66 4.66 0 0 1-1-1.62 5.58 5.58 0 0 1-.37-2.08 5.84 5.84 0 0 1 .36-2.09 4.54 4.54 0 0 1 1-1.62 4.63 4.63 0 0 1 1.62-1 5.72 5.72 0 0 1 2.12-.37 6.4 6.4 0 0 1 1.11.09 5.5 5.5 0 0 1 .95.25 4 4 0 0 1 .8.4 4.44 4.44 0 0 1 .7.53l-.39.61a.35.35 0 0 1-.31.19.43.43 0 0 1-.24-.08 4.35 4.35 0 0 1-.39-.23 2.62 2.62 0 0 0-.53-.27 3.85 3.85 0 0 0-.74-.22 4.81 4.81 0 0 0-1-.09 4.09 4.09 0 0 0-1.53.27 3.32 3.32 0 0 0-1.17.79 3.55 3.55 0 0 0-.74 1.25 4.7 4.7 0 0 0-.26 1.64 5 5 0 0 0 .27 1.7 3.46 3.46 0 0 0 .76 1.26 3.11 3.11 0 0 0 1.16.79 3.94 3.94 0 0 0 1.49.18z"/>
	<path d="m24.31 66.5-.24.12 1.45.92z" fill="url(#a)"/>
	<path d="M32.87 39.11a16.67 16.67 0 0 0-7.52 13 6.58 6.58 0 0 0 .21 1.39A15.15 15.15 0 0 0 20.67 64c0 4.33 2.9 6.25 6.54 4.15l21.93-12.69c3.63-2.1 6.53-7.37 6.53-11.7s-2.86-6.19-6.44-4.18c-.53-3.69-3.49-5.08-7.11-3A12.86 12.86 0 0 0 39 39.36c-1.4-1.46-3.59-1.71-6.13-.25z" fill="url(#b)"/>
	<path fill="#2e3a45" d="M81.24 69.63 57.5 55.91a3.09 3.09 0 0 0-2.77-.11L41.9 63.21v-3.57l-4.29 2.49v3.55L22.8 74.24c-.71.41-.62 1.11.19 1.59l23.75 13.72a3.09 3.09 0 0 0 2.77.11l31.93-18.44c.71-.41.63-1.12-.2-1.59zm16.29.25a3.41 3.41 0 0 0 1.15-.62 2.63 2.63 0 0 0 .72-.94 2.94 2.94 0 0 0 .24-1.19c0-1.19-.69-1.94-2.08-2.26a3 3 0 0 0 .81-.39 2.51 2.51 0 0 0 .56-.51 2.1 2.1 0 0 0 .32-.61 2.25 2.25 0 0 0 .11-.68 2.83 2.83 0 0 0-.21-1.12 2 2 0 0 0-.67-.85 3.32 3.32 0 0 0-1.15-.54 6.48 6.48 0 0 0-1.7-.19h-3.49V70.1H96a5 5 0 0 0 1.53-.22zM94 61.44h1.61a2.37 2.37 0 0 1 1.4.33 1.33 1.33 0 0 1 .45 1.13A1.26 1.26 0 0 1 97 64a2.45 2.45 0 0 1-1.45.35H94zm0 7.19v-3h1.91a3.33 3.33 0 0 1 .84.1 1.5 1.5 0 0 1 .58.29 1.09 1.09 0 0 1 .33.44 1.64 1.64 0 0 1 .1.6 1.92 1.92 0 0 1-.09.59 1.32 1.32 0 0 1-.31.49 1.57 1.57 0 0 1-.57.34 2.75 2.75 0 0 1-.88.12zM104.26 60l-4 10.12h1.46a.63.63 0 0 0 .41-.13.83.83 0 0 0 .22-.29l.75-2.07h4.19l.76 2.07a.68.68 0 0 0 .23.3.63.63 0 0 0 .4.12h1.46l-4-10.12zm-.66 6.3 1.24-3.35q.09-.24.18-.54c.07-.21.13-.43.19-.67l.2.66c.07.21.13.38.19.53l1.23 3.37zm9.51 3.53a5 5 0 0 0 2 .38 5.24 5.24 0 0 0 2.16-.4 4.06 4.06 0 0 0 1.52-1.17l-.74-.81a.36.36 0 0 0-.27-.11.47.47 0 0 0-.17 0 .49.49 0 0 0-.14.11 3.57 3.57 0 0 1-.47.35 2.84 2.84 0 0 1-.5.23 3 3 0 0 1-.57.14h-.7a3 3 0 0 1-1.2-.24 2.71 2.71 0 0 1-1-.7 3.26 3.26 0 0 1-.66-1.12 4.45 4.45 0 0 1-.24-1.52 4.39 4.39 0 0 1 .24-1.49 3.37 3.37 0 0 1 .67-1.12 3 3 0 0 1 1-.71 3.32 3.32 0 0 1 1.31-.25 3.18 3.18 0 0 1 1 .13 3.11 3.11 0 0 1 .65.27 4.19 4.19 0 0 1 .43.27.51.51 0 0 0 .33.13.43.43 0 0 0 .24-.06.49.49 0 0 0 .14-.15l.63-.88a4.69 4.69 0 0 0-1.44-1 5 5 0 0 0-2-.36 5.7 5.7 0 0 0-2.11.38 4.62 4.62 0 0 0-1.64 1.07 4.76 4.76 0 0 0-.95 1.8 5.63 5.63 0 0 0-.38 2.09 6.3 6.3 0 0 0 .34 2.08 4.91 4.91 0 0 0 1 1.64 4.54 4.54 0 0 0 1.52 1.02zm9.07-4.18h.59a1.3 1.3 0 0 1 .5.08.94.94 0 0 1 .31.26l2.87 3.74a.73.73 0 0 0 .27.28 1.09 1.09 0 0 0 .5.09h1.67l-3.52-4.74A1.94 1.94 0 0 0 125 65a1.52 1.52 0 0 0-.41-.24 1.21 1.21 0 0 0 .31-.21 3.39 3.39 0 0 0 .31-.33l3.42-4.22H127a1.16 1.16 0 0 0-.49.09 1 1 0 0 0-.37.31l-2.79 3.53a.84.84 0 0 1-.3.24 1.16 1.16 0 0 1-.44.07h-.44V60h-1.89v10.1h1.89zm10.15 4.25a4.59 4.59 0 0 0 1.75.31 4.66 4.66 0 0 0 1.75-.31 3.82 3.82 0 0 0 1.32-.86 3.89 3.89 0 0 0 .83-1.33 4.55 4.55 0 0 0 .29-1.67V60h-1.88v6a3.13 3.13 0 0 1-.16 1 2.09 2.09 0 0 1-.45.8 2 2 0 0 1-.73.51 2.73 2.73 0 0 1-2 0 2 2 0 0 1-.73-.51 2.49 2.49 0 0 1-.45-.8 3.51 3.51 0 0 1-.15-1v-6h-1.89v6a4.76 4.76 0 0 0 .29 1.67A3.91 3.91 0 0 0 131 69a3.64 3.64 0 0 0 1.33.9zm12.95-3.61a3.43 3.43 0 0 0 1.22-.68 2.91 2.91 0 0 0 .74-1.06 3.83 3.83 0 0 0 0-2.64 2.62 2.62 0 0 0-.71-1 3.52 3.52 0 0 0-1.23-.66 5.72 5.72 0 0 0-1.76-.24h-3.29V70.1h1.88v-3.56h1.41a5.31 5.31 0 0 0 1.74-.25zm-3.14-4.85h1.41a3.09 3.09 0 0 1 .91.12 1.67 1.67 0 0 1 .63.35 1.43 1.43 0 0 1 .38.56 2 2 0 0 1 .13.74 2.11 2.11 0 0 1-.13.77 1.47 1.47 0 0 1-.38.59 1.7 1.7 0 0 1-.63.37 2.77 2.77 0 0 1-.91.13h-1.41zM95.13 76.78l-4 10.12h1.46a.6.6 0 0 0 .4-.13.64.64 0 0 0 .22-.29l.79-2.07h4.19l.81 2.07a.68.68 0 0 0 .23.3.63.63 0 0 0 .4.12H101l-4-10.12zm-.65 6.3 1.24-3.35q.09-.24.18-.54c.06-.21.13-.43.19-.67l.2.66c.07.21.13.38.19.53l1.23 3.37zm13.63-.24a3.4 3.4 0 0 1-.16 1 2.24 2.24 0 0 1-.46.8 2.05 2.05 0 0 1-.72.51 2.55 2.55 0 0 1-1 .18 2.52 2.52 0 0 1-1-.18 2 2 0 0 1-.72-.51 2.25 2.25 0 0 1-.45-.8 3.23 3.23 0 0 1-.16-1.06v-6h-1.84v6.06a4.55 4.55 0 0 0 .29 1.67 3.75 3.75 0 0 0 .83 1.32 3.54 3.54 0 0 0 1.32.87 5.09 5.09 0 0 0 3.5 0 3.54 3.54 0 0 0 1.32-.87 3.77 3.77 0 0 0 .84-1.32 4.76 4.76 0 0 0 .29-1.67v-6.06h-1.88zm2.94-4.51h3.06v8.57H116v-8.57h3.04v-1.55h-7.99v1.55zm16.95-.19a4.79 4.79 0 0 0-1.62-1.08 5.82 5.82 0 0 0-4.19 0 4.74 4.74 0 0 0-2.67 2.72 5.92 5.92 0 0 0 0 4.12 4.8 4.8 0 0 0 2.67 2.73 6 6 0 0 0 4.19 0 4.68 4.68 0 0 0 1.62-1.09 4.94 4.94 0 0 0 1-1.64 5.92 5.92 0 0 0 0-4.12 5 5 0 0 0-1-1.64zm-.74 5.2a3.16 3.16 0 0 1-.64 1.12 2.74 2.74 0 0 1-1 .7 3.83 3.83 0 0 1-2.67 0 2.78 2.78 0 0 1-1-.7 3.16 3.16 0 0 1-.64-1.12 4.68 4.68 0 0 1-.23-1.5 4.61 4.61 0 0 1 .23-1.49 3.2 3.2 0 0 1 .64-1.13 2.78 2.78 0 0 1 1-.7 3.69 3.69 0 0 1 2.67 0 2.74 2.74 0 0 1 1 .7 3.2 3.2 0 0 1 .64 1.13 4.91 4.91 0 0 1 .22 1.49 5 5 0 0 1-.23 1.5zm12.96-6.55a.41.41 0 0 0-.16 0 .42.42 0 0 0-.14.09 1.26 1.26 0 0 0-.11.17l-3 5.61a5.12 5.12 0 0 0-.22.47c-.07.16-.14.33-.2.49-.07-.16-.14-.32-.2-.48s-.15-.32-.22-.47l-3-5.62a1.25 1.25 0 0 0-.12-.17.38.38 0 0 0-.13-.09.47.47 0 0 0-.17 0h-1.64V86.9h1.66v-6.94a3.73 3.73 0 0 0 0-.46l3.1 5.76a.85.85 0 0 0 .28.31.71.71 0 0 0 .39.11h.26a.71.71 0 0 0 .39-.11.75.75 0 0 0 .27-.31l3.06-5.74v7.38h1.66V76.78h-1.64zm6.68-.01-4 10.12h1.47a.6.6 0 0 0 .4-.13.72.72 0 0 0 .22-.29l.76-2.07H150l.75 2.07a.76.76 0 0 0 .23.3.65.65 0 0 0 .4.12h1.46l-4-10.12zm-.65 6.3 1.23-3.35c.06-.16.12-.34.19-.54l.19-.67c.06.24.13.46.2.66l.18.53 1.24 3.37zm5.71-4.75h3.06v8.57h1.88v-8.57h3.05v-1.55h-7.99v1.55zm16.93-.19a4.66 4.66 0 0 0-1.61-1.08 5.82 5.82 0 0 0-4.19 0 4.67 4.67 0 0 0-2.67 2.72 5.92 5.92 0 0 0 0 4.12 4.72 4.72 0 0 0 2.67 2.73 6 6 0 0 0 4.19 0 4.55 4.55 0 0 0 1.61-1.09 4.81 4.81 0 0 0 1.05-1.64 5.92 5.92 0 0 0 0-4.12 4.91 4.91 0 0 0-1.05-1.64zm-.73 5.2a3.16 3.16 0 0 1-.64 1.12 2.74 2.74 0 0 1-1 .7 3.56 3.56 0 0 1-1.34.24 3.5 3.5 0 0 1-1.33-.24 2.82 2.82 0 0 1-1-.7 3.32 3.32 0 0 1-.64-1.12 5 5 0 0 1-.22-1.5 4.91 4.91 0 0 1 .22-1.49 3.37 3.37 0 0 1 .64-1.13 2.82 2.82 0 0 1 1-.7 3.32 3.32 0 0 1 1.33-.25 3.37 3.37 0 0 1 1.34.25 2.74 2.74 0 0 1 1 .7 3.2 3.2 0 0 1 .64 1.13 4.91 4.91 0 0 1 .22 1.49 5 5 0 0 1-.22 1.5zm9.06-.18a1.87 1.87 0 0 0-.61-.58 4 4 0 0 0 .95-.44 3.15 3.15 0 0 0 .7-.66 2.91 2.91 0 0 0 .43-.82 3.08 3.08 0 0 0 .15-1 3 3 0 0 0-.22-1.18 2.46 2.46 0 0 0-.69-.92 3.7 3.7 0 0 0-1.21-.6 6.63 6.63 0 0 0-1.78-.21h-3.09V86.9h1.89V83h.8a1 1 0 0 1 .46 0 .92.92 0 0 1 .26.26l2.13 3.24a.71.71 0 0 0 .29.28.76.76 0 0 0 .41.1h1.7zm-1.38-1.7a2.84 2.84 0 0 1-.93.14h-1.17v-3.36h1.2a2.39 2.39 0 0 1 1.55.41 1.43 1.43 0 0 1 .51 1.18 1.8 1.8 0 0 1-.13.71 1.51 1.51 0 0 1-.38.56 1.77 1.77 0 0 1-.65.36zM44.67 39.89l-11.96 6.9v13.72l11.96-6.91V39.89z"/>
	<path fill="#fff" d="m38.27 53.19-.94.54v.68l.94-.53v-.69zm2.3-1.33-.97.56v.68l.97-.56v-.68zm-1.14.66-.98.56v.69l.98-.57v-.68zm-1.16 1.53-.94.54v.74l.94-.54v-.74zm2.3-1.33-.97.56v.74l.97-.56v-.74zm-1.14.66-.98.57v.73l.98-.56v-.74zm-2.1 2.88.94-.54v-.73l-.94.54v.73zm2.27-1.31.97-.56v-.73l-.97.56v.73zm-1.15.66.98-.56v-.73l-.98.56v.73zM59 78.82a8.91 8.91 0 0 0-3.2-.39 4.59 4.59 0 0 0-2.12.75v-.06a4.41 4.41 0 0 1 2.32-1 8.39 8.39 0 0 1 3.62.36c.29-.22.31-.26.58-.48l-6.09-2.71 1.3-.92a23.51 23.51 0 0 1-3.14.17.59.59 0 0 1-.26-.1 22.22 22.22 0 0 0 4.12-.72 2.58 2.58 0 0 0 1.55-1.06 2.11 2.11 0 0 0 .16-1.4H58a2.08 2.08 0 0 1 .3.43 3.07 3.07 0 0 0 .52-.14l.87-.68a3.17 3.17 0 0 0-2.1-1.62 16.57 16.57 0 0 0-2.67-.25c-.41 0-.94-.58-2.2-.83A20.62 20.62 0 0 0 48.4 68a13.39 13.39 0 0 1 2.45-.28c0-.06-.27-.22-.3-.28a5.22 5.22 0 0 1-1.92-.66 4.57 4.57 0 0 0-1.09-.39 3.2 3.2 0 0 1 1.23.19 7.09 7.09 0 0 0 2.09.44c1.32.08 2.22 0 2.22-.32s-2.1-.84-3.73-.83c-1.92 0-2.05.24-2.4.68s.74 1.23-.47 1.9c-.22.1-.75.39-1 .54a3.07 3.07 0 0 1-.09-.33 5 5 0 0 0-.37.63H45a1 1 0 0 1-.2-.29 4.06 4.06 0 0 0-.19.59.52.52 0 0 1-.21-.41 1 1 0 0 0-.28.88 4.82 4.82 0 0 0-.72 1 4.6 4.6 0 0 1-2.35.31 1.54 1.54 0 0 0-1.42.55c-.4.55-.87 1.27-.87 1.27s.26-.17.57-.33a5.74 5.74 0 0 0-.43.66l.42-.24a1.82 1.82 0 0 1-.11.4 3 3 0 0 0-.09.72 3.65 3.65 0 0 1 .29-.37c.2.29.16.62.65.84a7.9 7.9 0 0 0 2.9.31c.09 0 1.76 0 2.08-.61s.29-.88 0-1.2a6 6 0 0 0-2.23-1c-.45-.16-1.44-.46-1.92-.6.67.14 2.4.5 3.4.83 1.58.52 2.1.94 2.16 1.16.22.68-.91 1.44-1.84 1.53a7.5 7.5 0 0 0 2.53 1 5.05 5.05 0 0 0 1.14.46s-.26-.18-.31-.33a4.32 4.32 0 0 0 .94.31 1.68 1.68 0 0 1-.4-.3h.66a5.09 5.09 0 0 0 .93.18 2.24 2.24 0 0 1-.4-.22A5.18 5.18 0 0 1 52 77c1.64.78.31 2.91.76 3.73a1.86 1.86 0 0 0 2 1.1c2.75-.15 2.52.38 3.82.26 1.78-.17 2.75-1.11 2.58-1.72-.24-.88-1.16-1.25-2.16-1.55zm-3-8.68a3.48 3.48 0 0 1 .75-.43.73.73 0 0 1 .69.33c.21.32.4.7.17.87a3.76 3.76 0 0 1-1.84.46c-.3 0-.7-.09-.65-.32a3.2 3.2 0 0 1 .88-.91zm-6 2.1a3 3 0 0 0-.3.4h-.22c-.9 0-1.62-.4-1.45-.89.22-.67 1.29-1.08 1.28-.91 0 .32.29 0 .82.32s.48.37.48.5a4.05 4.05 0 0 0-.61.58zM51.81 69s0-.15-.21-.09h-.07c0-.15.28-.37.63-.45a2.22 2.22 0 0 1 1.77.36.82.82 0 0 1 .2.12 1.34 1.34 0 0 0-.52.22.94.94 0 0 0-.18.12 3.38 3.38 0 0 1-1.14-.07h-.1c-.35-.13-.34-.21-.38-.21z"/>
	<path fill="#fff" d="m63.18 68.53-4.6 3.82a1.28 1.28 0 0 1-.07.7 2.37 2.37 0 0 1-1.46 1 5.82 5.82 0 0 1-.84.25l-1.18.9 7.7 3.49 7.88-6.53zM62.56 78l-.82-.38-.81-2.28 2.3-.73-1-2.35 3-.36-1.51-2.48 5.78 2.76zM41.38 65.96v-6.01l1.58-.91-2.92-1.66-2.92 5.03 1.58-.91v6l2.68-1.54zm-3.8-15.49a1 1 0 0 0 .52.13 2.83 2.83 0 0 0 2.07-1.42l.15-.23.12-.23c.63-1.22.58-2.49-.14-2.9a1.34 1.34 0 0 0-1.39.12 3.72 3.72 0 0 0-1.35 1.4 4 4 0 0 0-.56 1.85 1.39 1.39 0 0 0 .58 1.28zm.14-3A3.76 3.76 0 0 1 39 46.09a1.64 1.64 0 0 1 .77-.23.93.93 0 0 1 .44.11 1.31 1.31 0 0 1 .48 1.27 4.29 4.29 0 0 0-.65-1c-.6-.35-1.58.21-2.19 1.24s-.61 2.17 0 2.52a.82.82 0 0 0 .62.08.79.79 0 0 0 .55 0 1.29 1.29 0 0 1-1.34.2 1.22 1.22 0 0 1-.49-1.12 3.73 3.73 0 0 1 .53-1.73zm1.1-2.32h.24v.46h-.24zm0 5.52h.24v.46h-.24z"/>
	<path fill="#fff" d="m40.397 45.392.285-.494.208.12-.285.494z"/>
	<path fill="#fff" d="m36.993 51.246.285-.493.207.12-.285.493z"/>
	<path fill="#fff" d="m41.082 46.761.408-.234.12.208-.408.234z"/>
	<path fill="#fff" d="m36.283 49.55.406-.237.12.207-.405.237z"/>
	<path fill="#fff" d="m40.436 49.126.12-.209.286.164-.12.208z"/>
	<path fill="#fff" d="m36.899 47.086.119-.208.287.164-.12.208z"/>
	<path d="M38.94 46.37A3.39 3.39 0 0 0 37.4 49c0 .8.45 1.2 1 1.08h-.07c-.54-.31-.53-1.32 0-2.25s1.42-1.42 1.95-1.11a.18.18 0 0 1 .07 0c-.14-.59-.72-.72-1.41-.35z" fill="url(#c)"/>
	<path d="M41.06 35.67a11 11 0 0 0-3.18 2.78c-1.73-1.84-4.22-1.36-6.08-.25-4.16 2.55-7.52 8-7.52 13a8.34 8.34 0 0 0 .21 1.39 14.48 14.48 0 0 0-4.89 10.47c0 2.19.77 3.86 2.1 4.57a6 6 0 0 1-1-3.66 13.59 13.59 0 0 1 1.48-5.85 13.79 13.79 0 0 1 2.8-4c.2-.2.4-.4.61-.59 0-.11 0-.23-.08-.34a5.36 5.36 0 0 1-.1-.7v-.35a16.67 16.67 0 0 1 7.52-13 7.33 7.33 0 0 1 2.42-.91h.25a3.87 3.87 0 0 1 1.13 0h.23a3.61 3.61 0 0 1 1.86 1l.12.1.21-.23c.25-.29.51-.57.78-.83a11.17 11.17 0 0 1 2.17-1.71 8.07 8.07 0 0 1 1.46-.66h.13a4.67 4.67 0 0 1 1.74-.23h.14a3.78 3.78 0 0 1 1.19.3l.26.11c-.53-1.03-2.74-2.31-5.96-.41z" fill="url(#d)"/>
</svg>
