<svg xmlns="http://www.w3.org/2000/svg" width="200" height="128">
    <path d="M85.008 63.817a10.037 10.037 0 0 1-.92 4.423 6.738 6.738 0 0 1-2.644 2.926 7.634 7.634 0 0 1-3.972 1.025 7.441 7.441 0 0 1-3.861-1 6.719 6.719 0 0 1-2.618-2.833 9.112 9.112 0 0 1-.926-4.159A9.864 9.864 0 0 1 71 59.794a6.718 6.718 0 0 1 2.688-2.924 7.911 7.911 0 0 1 4.054-1.019 7.177 7.177 0 0 1 3.774 1 6.7 6.7 0 0 1 2.577 2.82 9.092 9.092 0 0 1 .911 4.143m-1.937.243a7.3 7.3 0 0 0-1.444-4.816 4.958 4.958 0 0 0-4.021-1.73 5.275 5.275 0 0 0-2.9.822 5.408 5.408 0 0 0-1.989 2.33 7.887 7.887 0 0 0-.706 3.372 8.03 8.03 0 0 0 .679 3.377 5.235 5.235 0 0 0 1.933 2.293 5.637 5.637 0 0 0 6.965-.909 7.017 7.017 0 0 0 1.487-4.739m9.881-7.26a2.4 2.4 0 0 0-1.2-.3q-1.893 0-1.895 2.392v1.74H92.5v1.531h-2.646v9.75h-1.806v-9.747h-1.916v-1.531h1.918V58.8a3.84 3.84 0 0 1 1.013-2.777 3.42 3.42 0 0 1 2.579-1.059 3.551 3.551 0 0 1 1.312.2v1.633zm6.228 0a2.385 2.385 0 0 0-1.2-.3q-1.895 0-1.9 2.392v1.74h2.645v1.531h-2.641v9.75h-1.808v-9.747h-1.917v-1.531h1.917V58.8a3.836 3.836 0 0 1 1.014-2.777 3.417 3.417 0 0 1 2.579-1.059 3.545 3.545 0 0 1 1.311.2V56.8zm3.332-.211a1.115 1.115 0 0 1-.352.842 1.23 1.23 0 0 1-1.676.011 1.2 1.2 0 0 1 0-1.674 1.119 1.119 0 0 1 .843-.347 1.153 1.153 0 0 1 .849.341 1.13 1.13 0 0 1 .341.827m-.317 15.329h-1.8V60.632h1.8zm10.312-.517a5.854 5.854 0 0 1-3.1.793 5.444 5.444 0 0 1-2.771-.711 4.91 4.91 0 0 1-1.912-2.012 6.181 6.181 0 0 1-.682-2.918 6.286 6.286 0 0 1 1.6-4.5 5.6 5.6 0 0 1 4.269-1.7 5.716 5.716 0 0 1 2.612.573v1.85a4.632 4.632 0 0 0-2.688-.881 3.609 3.609 0 0 0-2.84 1.256 4.722 4.722 0 0 0-1.1 3.233 4.458 4.458 0 0 0 1.043 3.118 3.586 3.586 0 0 0 2.793 1.145 4.553 4.553 0 0 0 2.777-.971v1.725zm11.1-4.672h-7.966a4.218 4.218 0 0 0 1.009 2.915 3.52 3.52 0 0 0 2.669 1.008 5.547 5.547 0 0 0 3.5-1.233V71.1a6.445 6.445 0 0 1-3.923 1.09 4.729 4.729 0 0 1-3.768-1.559 6.358 6.358 0 0 1-1.355-4.313 6.843 6.843 0 0 1 .678-3.056 5.19 5.19 0 0 1 1.866-2.142 4.826 4.826 0 0 1 2.645-.762 4.267 4.267 0 0 1 3.42 1.427 5.925 5.925 0 0 1 1.23 3.994v.945zm-1.85-1.531a3.732 3.732 0 0 0-.756-2.43 2.557 2.557 0 0 0-2.066-.865 2.912 2.912 0 0 0-2.149.9 4.2 4.2 0 0 0-1.123 2.39h6.094zm15.6 2.247a4.305 4.305 0 0 1-1.531 3.445 5.989 5.989 0 0 1-4.021 1.3 6.569 6.569 0 0 1-3.593-.859v-1.934a5.766 5.766 0 0 0 3.658 1.255 4.006 4.006 0 0 0 2.65-.822 2.735 2.735 0 0 0 .987-2.22q0-3.1-4.408-3.1H129.8v-1.528h1.244q3.9 0 3.9-2.909 0-2.688-2.975-2.688a5.061 5.061 0 0 0-3.139 1.122v-1.752a6.859 6.859 0 0 1 3.591-.9 4.681 4.681 0 0 1 3.168 1.041 3.431 3.431 0 0 1 1.206 2.726 3.859 3.859 0 0 1-3.15 4.012v.044a4.377 4.377 0 0 1 2.7 1.211 3.5 3.5 0 0 1 1.021 2.559m11.887-.54a5.733 5.733 0 0 1-.644 2.72 4.678 4.678 0 0 1-1.781 1.9 4.9 4.9 0 0 1-2.545.673 4.312 4.312 0 0 1-3.72-1.907 9.1 9.1 0 0 1-1.349-5.323 13.241 13.241 0 0 1 .8-4.786 7.117 7.117 0 0 1 2.263-3.2 5.4 5.4 0 0 1 3.383-1.125 6.4 6.4 0 0 1 2.622.452v1.708a5.57 5.57 0 0 0-2.579-.627 3.864 3.864 0 0 0-3.355 1.879 8.836 8.836 0 0 0-1.262 5.007h.043a3.722 3.722 0 0 1 3.6-2.236 4.258 4.258 0 0 1 3.285 1.338 4.981 4.981 0 0 1 1.237 3.53m-1.85.232a3.931 3.931 0 0 0-.809-2.612 2.808 2.808 0 0 0-2.266-.957 2.98 2.98 0 0 0-2.225.93 3.114 3.114 0 0 0-.9 2.253 4.3 4.3 0 0 0 .9 2.782 2.9 2.9 0 0 0 4.463.143 3.749 3.749 0 0 0 .842-2.539m12.483-.045a4.785 4.785 0 0 1-1.525 3.7 5.79 5.79 0 0 1-4.072 1.4 6.37 6.37 0 0 1-3.272-.66v-1.923a6 6 0 0 0 3.294 1.037 3.846 3.846 0 0 0 2.7-.938 3.233 3.233 0 0 0 1.026-2.51 3 3 0 0 0-1.04-2.419 4.543 4.543 0 0 0-3-.876 23.24 23.24 0 0 0-2.677.13l.538-7.922h7.306v1.631h-5.742l-.319 4.639 1.454-.056a5.751 5.751 0 0 1 3.9 1.246 4.413 4.413 0 0 1 1.431 3.515M62.1 74.982v-21.9l-7.844-2.263-14.1 5.3-.036.007v15.831l4.812-1.885V57.191l9.324-2.229V73.9l-14.135-1.943 14.127 5.216 7.846-2.171v-.025z" fill="#e74125"/>
    <path d="M107.855 101.973a.158.158 0 0 1 0-.221l.38-.38a.159.159 0 0 1 .111-.046.155.155 0 0 1 .155.156.16.16 0 0 1-.045.111l-.38.38a.156.156 0 0 1-.111.047.158.158 0 0 1-.11-.047zm-28 .576a3.129 3.129 0 0 1 0 1.147 2.924 2.924 0 0 1-2.249 2.249 3.071 3.071 0 0 1-.574.053 2.97 2.97 0 0 1-.55-.051 1.059 1.059 0 0 1-.126-.033c-.023-.007-.046-.015-.068-.02l-.035-.009a2.241 2.241 0 0 1-.279-.084c-.051-.021-.1-.047-.149-.072l-.064-.034a2.848 2.848 0 0 1-.261-.14 2.285 2.285 0 0 1-.145-.109.519.519 0 0 1-.046-.036l-.066-.048a.862.862 0 0 1-.111-.085.378.378 0 0 1-.039-.041l-.034-.037c-.012-.012-.019-.015-.028-.023a.217.217 0 0 1-.029-.024c-.016-.016-.03-.034-.044-.051a.316.316 0 0 0-.037-.045 2.931 2.931 0 0 1-.214-.256 2.171 2.171 0 0 1-.146-.221.618.618 0 0 0-.036-.053l-.043-.063v1.378c0 .1-.05.157-.151.157h-.016a.139.139 0 0 1-.157-.157V97.5a.139.139 0 0 1 .157-.157h.016c.1 0 .151.052.151.157v4.279c.014-.02.027-.041.041-.059s.026-.038.038-.058a2.96 2.96 0 0 1 .146-.221c.074-.1.153-.188.214-.255a.365.365 0 0 0 .036-.044.54.54 0 0 1 .045-.052.217.217 0 0 1 .029-.024c.009-.008.019-.014.028-.023l.03-.033a.307.307 0 0 1 .043-.045.963.963 0 0 1 .111-.085l.066-.048.046-.036c.047-.037.1-.075.145-.109a2.6 2.6 0 0 1 .237-.129l.024-.012.049-.026a1.459 1.459 0 0 1 .164-.079 2.385 2.385 0 0 1 .3-.09h.019l.069-.021a1 1 0 0 1 .125-.033 3.09 3.09 0 0 1 .55-.05 3.183 3.183 0 0 1 .574.052 2.927 2.927 0 0 1 2.249 2.25zm-1.024-1.225a2.527 2.527 0 1 0 .752 1.8 2.472 2.472 0 0 0-.75-1.8zm28.618 1.209a.151.151 0 0 0 .11-.046l.056-.055a.158.158 0 0 0 .045-.111.156.156 0 0 0-.266-.11l-.056.056a.156.156 0 0 0-.045.11.155.155 0 0 0 .156.156zm-21.282-2.281a.152.152 0 0 0-.145.1L84.036 105l-.061.144-.058.134c-.042.113-.073.178-.089.215l-1.4 3.28a.161.161 0 0 0-.01.122.169.169 0 0 0 .1.086h.01a.192.192 0 0 0 .072.019c.008 0 .011-.013.018-.015a.125.125 0 0 0 .091-.072c0-.008.015 0 .019-.015l1.589-3.722 2.015-4.708a.143.143 0 0 0-.013-.145.171.171 0 0 0-.15-.071zm-3.064 5.16a.17.17 0 0 0 .151-.075.14.14 0 0 0 .011-.146l-.373-.873a1.53 1.53 0 0 1-.084-.2l-.12-.283-1.488-3.491a.157.157 0 0 0-.157-.093.146.146 0 0 0-.134.075.138.138 0 0 0-.012.146l.314.735c.021.043.048.108.09.215l.04.092.079.184 1.542 3.607a.154.154 0 0 0 .143.107zm36.7-1.467a.15.15 0 0 1 .022.151 2.876 2.876 0 0 1-2.711 1.917 2.876 2.876 0 0 1 0-5.751 2.891 2.891 0 0 1 2.609 1.678.149.149 0 0 1 .011.117.139.139 0 0 1-.076.092c-.547.242-1.31.584-2.208.992s-1.622.732-2.2.991c-.055.023-.123.056-.2.1s-.154.066-.206.088a1.628 1.628 0 0 0 .264.409 2.449 2.449 0 0 0 2.008.973 2.477 2.477 0 0 0 1.47-.474 2.53 2.53 0 0 0 .933-1.234.152.152 0 0 1 .163-.11.139.139 0 0 1 .124.061zm-.743-2.428a2.456 2.456 0 0 0-1.945-.906 2.557 2.557 0 0 0-2.549 2.544 2.976 2.976 0 0 0 .023.367 2.245 2.245 0 0 0 .129.5l2.325-1.05 1.866-.84.458-.206a2.962 2.962 0 0 0-.304-.409zm.378 3.3a2.839 2.839 0 0 0 .359-.676 2.856 2.856 0 0 1-.356.674zm-.071.094a2.843 2.843 0 0 1-.557.537 2.871 2.871 0 0 0 .56-.539zm-6.1-6.191v4.359a2.822 2.822 0 0 1-1.066 2.294 2.975 2.975 0 0 1-.445.294h-.011a2.581 2.581 0 0 1-.448.189c-.027.009-.056.014-.084.022a2.68 2.68 0 0 1-.4.084c-.038 0-.078.007-.117.01-.083.007-.163.02-.248.02-.068 0-.137 0-.208-.007a2.639 2.639 0 0 1-1.735-.793 240.7 240.7 0 0 1-1.429-1.448l-.459-.468q-.577-.585-1.152-1.173l-.511-.52-.089-.092a8.845 8.845 0 0 0-.167-.17 2.483 2.483 0 0 0-2.344-.644 2.512 2.512 0 0 0-1.784 1.695 2.537 2.537 0 0 0 .181 1.988 2.469 2.469 0 0 0 1.51 1.223 2.361 2.361 0 0 0 2.325-.518c.258-.225.5-.478.738-.721.105-.11.215-.223.324-.332a.086.086 0 0 0 .012-.022l.006-.012h-.035c-.033.006-.063.011-.092.018l-.328.075c-.312.07-.635.144-.951.222a.2.2 0 0 1-.089-.008.2.2 0 0 1-.05 0h-.021a.11.11 0 0 1-.051-.07c-.015-.075.03-.123.146-.15l1.192-.274.632-.145a.132.132 0 0 1 .179.182l-.343 1.606-.05.224c-.023.093-.063.127-.119.131.007 0 .011-.007.017-.008a.1.1 0 0 1-.04.008h.014c-.01 0-.016.007-.027 0-.074-.017-.1-.074-.079-.182l.039-.187.024-.11.216-1.011v-.039l.005-.035-.042.038-.062.059-.417.418-.416.419a2.667 2.667 0 0 1-1.572.792 2.738 2.738 0 0 1-2.668-1.124 2.136 2.136 0 0 1-.13-.2l-.055-.089c-.019-.029-.031-.043-.046-.063h-.014v3.156a.151.151 0 0 1-.3 0V103.175a2.822 2.822 0 0 1 .866-2.1 2.686 2.686 0 0 1 1.443-.747h.04a2.912 2.912 0 0 1 .453-.041h.072a2.727 2.727 0 0 1 1.937.846q.88.894 1.758 1.789l1.98 2.013a2.4 2.4 0 0 0 1.2.676 2.511 2.511 0 0 0 2.717-1.185 2.56 2.56 0 0 0 .19-2.191 2.485 2.485 0 0 0-1.523-1.5 2.29 2.29 0 0 0-2.406.431c-.01.009-.008.007-.013.008a.151.151 0 0 1-.188-.021.147.147 0 0 1-.045-.107.153.153 0 0 1 .045-.108l.017-.015a2.928 2.928 0 0 1 .42-.3c.016-.01.031-.024.047-.033a2.42 2.42 0 0 1 .433-.189c.027-.009.052-.024.079-.032a2.637 2.637 0 0 1 1.221-.053 2.9 2.9 0 0 1 2.069 1.458v-.039-3.071-.066a.14.14 0 0 1 .143-.153h.013a.14.14 0 0 1 .149.136.559.559 0 0 1 .005.108zm-8.056 5.746c-.1.1-.209.2-.314.307.103-.104.211-.204.313-.309zm-4.361-2.709c.013-.02.031-.034.044-.054-.014.018-.032.032-.045.052zm.411-.492c.03-.028.067-.046.1-.072-.034.024-.071.042-.101.07zm2.849-.367c.017.009.035.013.052.022-.018-.011-.036-.015-.053-.02zm-.64-.23c.035.008.07.006.105.015-.036-.011-.075-.009-.106-.017zm8.76.68c.006.006.01.014.017.021s-.012-.017-.018-.023zm-1.968-1.051c.061 0 .131.011.194.014-.064-.005-.133-.018-.195-.011zm-.565.086c.054-.015.116-.017.172-.028-.058.009-.118.011-.169.026zm-.511.211l.031-.013a1.067 1.067 0 0 1-.032.011zm-6.33-.277c.036 0 .071-.007.107-.007h-.021c-.031-.002-.058.005-.087.005zm-.449.042c-.02 0-.038.012-.058.016.019-.006.037-.014.057-.018zm3.354 5.394v.01zm-1.651-1.471l-.011-.014c-.004-.004 0 .011.01.014zm6.454 1.7c-.085 0-.169.009-.256 0h.136c.045 0 .078-.004.119-.005zm.485-.063c-.059.013-.117.028-.177.037.059-.014.117-.029.176-.042zm.446-.139c-.049.02-.1.045-.147.062.052-.022.097-.042.146-.067zm.3-.138l.034-.023a.062.062 0 0 0-.029.018zm14.018-5.3a.169.169 0 0 0-.15-.076.155.155 0 0 0-.145.1l-1.988 4.651-.061.143-.058.134c-.039.1-.068.172-.09.216-.059.113-.125.168-.2.168h-.009a.253.253 0 0 1-.212-.168 1.929 1.929 0 0 1-.084-.2l-2.119-4.944a.157.157 0 0 0-.157-.093.146.146 0 0 0-.134.076.138.138 0 0 0-.012.144l2.22 5.195a.5.5 0 0 0 .494.335.5.5 0 0 0 .5-.342l2.22-5.189a.135.135 0 0 0-.014-.154zm-33.571-.076H91.9a1.986 1.986 0 0 0-1.458.6 2.031 2.031 0 0 0-.606 1.471v3.522c0 .105.05.158.15.158H90a.139.139 0 0 0 .156-.158v-3.522a1.733 1.733 0 0 1 .515-1.238 1.687 1.687 0 0 1 1.226-.5h.347c.1 0 .156-.059.156-.174s-.053-.163-.157-.163zm13.443 5.531h-.009zm-7.811-4.687a2.771 2.771 0 0 1 .845 2.032v2.719a.14.14 0 0 1-.158.158h-.02c-.1 0-.146-.055-.146-.158v-1.377a2.978 2.978 0 0 1-.652.814 2.876 2.876 0 1 1 .131-4.187zm-.231.234a2.553 2.553 0 0 0-3.6 0 2.551 2.551 0 1 0 3.6 0z" fill="#2b3a46"/>
</svg>
