<svg xmlns="http://www.w3.org/2000/svg" xmlns:xlink="http://www.w3.org/1999/xlink" width="200" height="128">
	<defs>
		<linearGradient id="a" x1="58.03" y1="36.13" x2="62.07" y2="36.13" gradientTransform="matrix(1 0 0 -1 0 108)" gradientUnits="userSpaceOnUse">
			<stop offset="0" stop-color="#00a79d"/>
			<stop offset=".64" stop-color="#23c2aa"/>
			<stop offset="1" stop-color="#32ceb0"/>
		</linearGradient>
		<linearGradient id="h" x1="50.32" y1="59.23" x2="52.45" y2="59.23" xlink:href="#a"/>
		<linearGradient id="n" x1="-114.93" y1="-90.87" x2="-86.11" y2="-90.87" gradientTransform="scale(1 -1) rotate(10.4 -199.124 763.58)" xlink:href="#a"/>
		<linearGradient id="c" x1="59.96" y1="53.24" x2="64.09" y2="53.24" xlink:href="#a"/>
		<linearGradient id="d" x1="53.14" y1="62.89" x2="57.17" y2="62.89" xlink:href="#a"/>
		<linearGradient id="e" x1="55.02" y1="33.85" x2="57.17" y2="33.85" xlink:href="#a"/>
		<linearGradient id="f" x1="52.18" y1="53.45" x2="63.31" y2="53.45" xlink:href="#a"/>
		<linearGradient id="g" x1="48.45" y1="54.77" x2="52.23" y2="54.77" xlink:href="#a"/>
		<linearGradient id="i" x1="50.03" y1="64.43" x2="52.97" y2="64.43" xlink:href="#a"/>
		<linearGradient id="j" x1="41.72" y1="39.18" x2="53.05" y2="41.31" xlink:href="#a"/>
		<linearGradient id="k" x1="37.99" y1="39.8" x2="51.33" y2="42.3" xlink:href="#a"/>
		<linearGradient id="b" x1="44.92" y1="40.35" x2="49.35" y2="40.35" gradientTransform="matrix(1 0 0 -1 0 108)" gradientUnits="userSpaceOnUse">
			<stop offset="0" stop-color="#fff"/>
			<stop offset="1" stop-color="#bcbec0"/>
		</linearGradient>
		<linearGradient id="l" x1="42.23" y1="41.02" x2="48.35" y2="41.02" xlink:href="#b"/>
		<linearGradient id="m" x1="52.18" y1="40.36" x2="61.49" y2="40.36" xlink:href="#a"/>
	</defs>
	<path fill="#2e3a45" d="m79.44 71.82-32 18.46a3.06 3.06 0 0 1-2.77-.12L20.91 76.42c-.82-.48-.91-1.18-.2-1.59l32-18.46a3.09 3.09 0 0 1 2.77.12l23.75 13.73c.83.47.92 1.19.21 1.6z"/>
	<path fill="#2e3a45" d="M99 75.69v4h-2.13V68.32h3.71a6.38 6.38 0 0 1 2 .27 3.64 3.64 0 0 1 1.38.74 3 3 0 0 1 .8 1.15 4.32 4.32 0 0 1 0 3 3.17 3.17 0 0 1-.83 1.18 4 4 0 0 1-1.38.78 6.2 6.2 0 0 1-1.93.27zM99 74h1.59a3.11 3.11 0 0 0 1-.15 1.81 1.81 0 0 0 .72-.41 1.73 1.73 0 0 0 .42-.67 2.32 2.32 0 0 0 .14-.86 2.19 2.19 0 0 0-.14-.83 1.52 1.52 0 0 0-.42-.63 1.93 1.93 0 0 0-.72-.4 3.42 3.42 0 0 0-1-.14H99zm9.82 1.25v4.45h-2.11V68.32h3.47a7.23 7.23 0 0 1 2 .24 3.76 3.76 0 0 1 1.36.67 2.47 2.47 0 0 1 .78 1 3.34 3.34 0 0 1 .25 1.32 3.55 3.55 0 0 1-.17 1.09 3.19 3.19 0 0 1-.49.93 3.41 3.41 0 0 1-.78.73 4 4 0 0 1-1.07.5 2 2 0 0 1 .69.65l2.85 4.21h-1.9a1 1 0 0 1-.47-.11 1 1 0 0 1-.33-.32l-2.39-3.64a.75.75 0 0 0-.3-.29 1 1 0 0 0-.47-.09zm0-1.52h1.32a3.32 3.32 0 0 0 1-.15 2.14 2.14 0 0 0 .73-.41 1.81 1.81 0 0 0 .43-.63 2.22 2.22 0 0 0 .14-.79 1.61 1.61 0 0 0-.57-1.33 2.72 2.72 0 0 0-1.74-.47h-1.36zm18.66.27a6.24 6.24 0 0 1-.42 2.31 5.3 5.3 0 0 1-3 3.07 6.66 6.66 0 0 1-4.71 0 5.35 5.35 0 0 1-3-3.07 6.59 6.59 0 0 1 0-4.63 5.48 5.48 0 0 1 1.18-1.85 5.23 5.23 0 0 1 1.82-1.21 6.52 6.52 0 0 1 4.71 0 5.32 5.32 0 0 1 3 3.06 6.26 6.26 0 0 1 .42 2.32zm-2.17 0a5.12 5.12 0 0 0-.25-1.68 3.49 3.49 0 0 0-.71-1.27 3.12 3.12 0 0 0-1.13-.79 4.16 4.16 0 0 0-3 0 3.07 3.07 0 0 0-1.14.79 3.66 3.66 0 0 0-.72 1.27 5.12 5.12 0 0 0-.25 1.68 5.2 5.2 0 0 0 .25 1.68 3.71 3.71 0 0 0 .72 1.26 3.2 3.2 0 0 0 1.14.79 4.3 4.3 0 0 0 3 0 3.25 3.25 0 0 0 1.13-.79 3.53 3.53 0 0 0 .71-1.26 5.2 5.2 0 0 0 .25-1.68zm11.02-5.68V70h-5.05v3.37h4.26v1.69h-4.26v4.64h-2.13V68.32zm4.04 11.38h-2.12V68.32h2.12zM145 78h4.56v1.7h-6.67V68.32H145zm13.24-9.68V70h-5v3.16h4v1.63h-4V78h5v1.7h-7.18V68.32zm7.93 2.07a.61.61 0 0 1-.2.24.47.47 0 0 1-.27.07.7.7 0 0 1-.35-.12l-.47-.27a4 4 0 0 0-.62-.27 2.68 2.68 0 0 0-.85-.12 2.57 2.57 0 0 0-.77.1 1.62 1.62 0 0 0-.55.3 1.06 1.06 0 0 0-.33.45 1.36 1.36 0 0 0-.11.58 1 1 0 0 0 .22.67 1.89 1.89 0 0 0 .6.45 4.73 4.73 0 0 0 .84.34l1 .32a8.93 8.93 0 0 1 1 .39 3.46 3.46 0 0 1 .84.57 2.7 2.7 0 0 1 .59.84 2.89 2.89 0 0 1 .23 1.2 3.86 3.86 0 0 1-.27 1.45 3.27 3.27 0 0 1-.77 1.17 3.64 3.64 0 0 1-1.24.78 4.37 4.37 0 0 1-1.67.29 5.39 5.39 0 0 1-1.07-.1 5.74 5.74 0 0 1-1-.31 5.48 5.48 0 0 1-.9-.47 4.53 4.53 0 0 1-.75-.61l.61-1a.91.91 0 0 1 .21-.18.5.5 0 0 1 .27-.08.85.85 0 0 1 .43.16q.22.17.54.36a4.14 4.14 0 0 0 .73.36 2.78 2.78 0 0 0 1 .16 2.06 2.06 0 0 0 1.4-.43 1.53 1.53 0 0 0 .5-1.23 1.14 1.14 0 0 0-.23-.73 1.88 1.88 0 0 0-.59-.48 4.43 4.43 0 0 0-.85-.32l-1-.3a9.46 9.46 0 0 1-1-.37 3.23 3.23 0 0 1-.84-.58 2.67 2.67 0 0 1-.59-.88 3.38 3.38 0 0 1-.23-1.31 3.16 3.16 0 0 1 .25-1.21 3.06 3.06 0 0 1 .73-1 3.28 3.28 0 0 1 1.17-.73 4.09 4.09 0 0 1 1.58-.28 5.24 5.24 0 0 1 1.85.32 4.15 4.15 0 0 1 1.45.88z"/>
	<path fill="#3ec1a8" d="M102.72 47a.65.65 0 0 1-.15.17.33.33 0 0 1-.21.06.53.53 0 0 1-.31-.13 3.48 3.48 0 0 0-.45-.3 4 4 0 0 0-.65-.29 2.76 2.76 0 0 0-.92-.13 2.82 2.82 0 0 0-.91.13 2 2 0 0 0-.65.38 1.45 1.45 0 0 0-.4.55 1.74 1.74 0 0 0-.14.69 1.23 1.23 0 0 0 .24.78 1.86 1.86 0 0 0 .61.53 4.38 4.38 0 0 0 .87.39l1 .33q.51.18 1 .39a3.32 3.32 0 0 1 .86.55 2.5 2.5 0 0 1 .62.81 2.76 2.76 0 0 1 .23 1.18 3.81 3.81 0 0 1-.25 1.39 3.17 3.17 0 0 1-.74 1.13 3.36 3.36 0 0 1-1.19.75 4.43 4.43 0 0 1-1.6.28 4.94 4.94 0 0 1-2-.4A4.72 4.72 0 0 1 96 55.17l.44-.73a.4.4 0 0 1 .15-.14.36.36 0 0 1 .2-.06.66.66 0 0 1 .38.17 5.66 5.66 0 0 0 .53.39 4.6 4.6 0 0 0 .77.39 3 3 0 0 0 1.11.18 3 3 0 0 0 1-.15 2.14 2.14 0 0 0 .72-.42 1.85 1.85 0 0 0 .45-.65 2.06 2.06 0 0 0 .16-.84 1.46 1.46 0 0 0-.23-.84 2 2 0 0 0-.61-.55 4.65 4.65 0 0 0-.87-.37l-1-.32a8.38 8.38 0 0 1-1-.37 3.08 3.08 0 0 1-.86-.55 2.54 2.54 0 0 1-.61-.85 3.27 3.27 0 0 1 0-2.41 3 3 0 0 1 .67-1 3.28 3.28 0 0 1 1.09-.69 4.08 4.08 0 0 1 1.49-.26 4.8 4.8 0 0 1 1.73.3 4.09 4.09 0 0 1 1.36.86zm3.65-1.71a.77.77 0 0 1 .23.2l6.53 8.5a2.66 2.66 0 0 1 0-.39v-8.38h1.34v11.29h-.77a.71.71 0 0 1-.31-.06.75.75 0 0 1-.24-.21l-6.52-8.5v8.74h-1.34V45.23h.79a.56.56 0 0 1 .29.06zm16.55 7.54c.06.14.11.28.16.42l.17-.42a3.73 3.73 0 0 1 .2-.4l3.81-6.94a.5.5 0 0 1 .21-.22 1.25 1.25 0 0 1 .32 0h1.12v11.24h-1.33v-9.02l-3.87 7a.61.61 0 0 1-.55.35H123a.62.62 0 0 1-.55-.35l-4-7.08v9.05h-1.34V45.23h1.13a1.17 1.17 0 0 1 .31 0 .41.41 0 0 1 .21.22l3.9 6.94a2.93 2.93 0 0 1 .26.44zm10.42-.54v4.22h-1.52V45.23h3.33a6.44 6.44 0 0 1 1.86.25 3.66 3.66 0 0 1 1.31.71 2.85 2.85 0 0 1 .77 1.1 3.89 3.89 0 0 1 .26 1.44 3.59 3.59 0 0 1-.28 1.44 3.07 3.07 0 0 1-.8 1.12A3.84 3.84 0 0 1 137 52a5.59 5.59 0 0 1-1.8.26zm0-1.21h1.81a3.66 3.66 0 0 0 1.15-.17 2.48 2.48 0 0 0 .84-.49 2 2 0 0 0 .51-.74 2.67 2.67 0 0 0 .17-1 2.19 2.19 0 0 0-.66-1.69 2.94 2.94 0 0 0-2-.6h-1.81z"/>
	<path d="M62 70.12c-.17-1-.72-1.46-1.57-1.41a1.34 1.34 0 0 1 .31.72 5 5 0 0 1-1.54 4.32 3.18 3.18 0 0 1-1.15.56c.93 1.46 2.46.25 2.46.25A4.82 4.82 0 0 0 62 70.12z" fill="url(#a)"/>
	<path d="M64 53.05c0-1-.91-1.46-1.84-1.41a1.34 1.34 0 0 1 .31.72A5 5 0 0 1 61 56.68a2.4 2.4 0 0 1-1 .51c.93 1.46 2.28.18 2.28.18A4.61 4.61 0 0 0 64 53.05z" fill="url(#c)"/>
	<path d="M57.12 43.41A1.61 1.61 0 0 0 55.37 42a1.38 1.38 0 0 1 .31.77A5 5 0 0 1 54.15 47a2.4 2.4 0 0 1-1 .51 1.54 1.54 0 0 0 2.36.27 5.08 5.08 0 0 0 1.61-4.37z" fill="url(#d)"/>
	<path d="M56.43 74.45a10.7 10.7 0 0 1 0-2.12l-1.26-.69a7.51 7.51 0 0 0 0 2.59c.27 1.35.84 2.29 2.05 2.43a4.09 4.09 0 0 1-.79-2.21z" fill="url(#e)"/>
	<path d="M59.66 49.48a8.76 8.76 0 0 0-2.81 6.36l-4.67 4 1.27.69 4.66-4a8.93 8.93 0 0 1 3-6.21 3.11 3.11 0 0 1 2.25-1.06c-1.11-1.12-2.36-.81-3.7.22z" fill="url(#f)"/>
	<path fill="url(#g)" d="m50.97 49.33-2.52 7.11 1.27.69 2.51-7.1-1.26-.7z"/>
	<path d="M50.11 47.5a3.5 3.5 0 0 0 .89 1.83l1.26.7s-.83-1.85-.86-1.84z" fill="url(#h)"/>
	<path d="M56.46 39.6c-1.06-1-2.28-.85-3.64.24a8.62 8.62 0 0 0-2.71 7.66l1.26.7a9.28 9.28 0 0 1 2.71-7.66 5.42 5.42 0 0 1 2.38-.94z" fill="url(#i)"/>
	<path d="M52.39 63.18a4.32 4.32 0 0 0-2.85-3.57 6.89 6.89 0 0 1 1.39 2.89c.48 3.75-.34 7.29-4 11.22A5.19 5.19 0 0 1 42.88 75c1.36 1.06 3.34 1.33 5.47-.43a13.5 13.5 0 0 0 4.04-11.39z" fill="url(#j)"/>
	<path d="M48.45 56.44A5.91 5.91 0 0 0 44 58.2c-3.58 3.32-6.16 9.47-5.18 14.65.53 2.31 1.5 4 3.26 4.52a6.67 6.67 0 0 1-2-3.83 16.85 16.85 0 0 1 5.34-14.48 6.3 6.3 0 0 1 4.25-1.92z" fill="url(#k)"/>
	<path d="M49.18 65.77c-.15-1-.72-1.6-1.57-1.59a3.14 3.14 0 0 1 .31.89 5.61 5.61 0 0 1-1.68 4.77 2.61 2.61 0 0 1-1.32.57c.71.94 1.66.89 2.58.12 1.35-1.25 2.25-2.75 1.68-4.76z" fill="url(#b)"/>
	<path d="M48.34 62.47c-1.13-1.16-2.3-.71-3.47.18a8.57 8.57 0 0 0-2.56 7.22c.31 1.29.88 2.19 2 2.31a3.36 3.36 0 0 1-.58-1.85 8.46 8.46 0 0 1 2.44-7 3.11 3.11 0 0 1 2.17-.86z" fill="url(#l)"/>
	<path d="M57.83 66.58a7.71 7.71 0 0 0-1.69 2.2l-4-1.38 1.27.7 4 1.53a10.59 10.59 0 0 1 1.64-2.3 3.22 3.22 0 0 1 2.36-1s-1.23-1.71-3.58.25z" fill="url(#m)"/>
	<path d="M46.14 63.34a8.51 8.51 0 0 0-2.55 7.23C44 73 45.91 73.6 47.77 72a8.48 8.48 0 0 0 2.56-7.23c-.45-2.38-2.33-3.02-4.19-1.43zm3 2.43a5.56 5.56 0 0 1-1.68 4.76c-1.22 1-2.46.63-2.76-1a5.61 5.61 0 0 1 1.68-4.76c1.26-1.02 2.51-.58 2.8 1z" fill="#fff"/>
	<path d="M60.93 50.17a9.15 9.15 0 0 0-2.81 6.36l-4.66 4a5.21 5.21 0 0 0-2.07-2.85l2.49-7.06a3.41 3.41 0 0 0 1.92-.91 9 9 0 0 0 2.71-7.66c-.48-2.53-2.46-3.22-4.44-1.53a9 9 0 0 0-2.7 7.66 3.45 3.45 0 0 0 .86 1.82l-2.51 7.1a6.13 6.13 0 0 0-4.41 1.76c-3.77 3.24-6.09 9.8-5.18 14.65s4.71 6.16 8.48 2.92A15.3 15.3 0 0 0 52.47 71l3.94 1.36a7.27 7.27 0 0 0 0 2.59c.48 2.53 2.46 3.21 4.43 1.52a9 9 0 0 0 2.72-7.66c-.48-2.53-2.47-3.22-4.44-1.53a7.52 7.52 0 0 0-1.69 2.2l-4-1.36a15.43 15.43 0 0 0 .5-5.12l4.65-4c.79 1.58 2.43 1.81 4.07.41a9 9 0 0 0 2.71-7.66c-.48-2.57-2.46-3.27-4.43-1.58zm-6.47-7.64c1.11-1 2.24-.57 2.5.86a5.08 5.08 0 0 1-1.53 4.33 1.4 1.4 0 0 1-2.51-.87 5.07 5.07 0 0 1 1.54-4.32zm5 26.73c1.12-1 2.24-.57 2.51.86a5.07 5.07 0 0 1-1.53 4.32c-1.12 1-2.24.57-2.51-.86a5.06 5.06 0 0 1 1.54-4.32zM48.22 74.4c-2.88 2.49-5.8 1.48-6.5-2.23a13.2 13.2 0 0 1 4-11.23c2.88-2.48 5.8-1.48 6.49 2.24a13.14 13.14 0 0 1-4 11.22zm14.05-17a1.4 1.4 0 0 1-2.51-.87 5.08 5.08 0 0 1 1.55-4.33c1.12-1 2.24-.57 2.51.86a5.1 5.1 0 0 1-1.55 4.31z" fill="url(#n)"/>
</svg>
