<svg xmlns="http://www.w3.org/2000/svg" width="200" height="128">
	<path fill="#2e3a45" d="M31 52.16h-1.58a9.08 9.08 0 0 0-6.65 2.75 9.25 9.25 0 0 0-2.77 6.7v15.92a.69.69 0 0 0 .76.79h.08a.7.7 0 0 0 .79-.79V61.61a7.78 7.78 0 0 1 2.3-5.54 7.56 7.56 0 0 1 5.49-2.22H31c.36 0 .79-.15.79-.87a.72.72 0 0 0-.79-.82zm16.26 0A13.05 13.05 0 0 0 38 74.47a13 13 0 0 0 17.9.53 13.5 13.5 0 0 0 2.81-3.44v5.93a.69.69 0 0 0 .76.79h.08a.7.7 0 0 0 .79-.79V65.24a13.13 13.13 0 0 0-13.08-13.08zm8.08 21.15a11.06 11.06 0 0 1-8.08 3.35 11.4 11.4 0 0 1-8.07-19.49 11.08 11.08 0 0 1 8.07-3.33 11.38 11.38 0 0 1 8.08 19.47zm96.78-4.79a.78.78 0 0 0-.85.56 11.55 11.55 0 0 1-10.78 7.66 11 11 0 0 1-9-4.37 7.42 7.42 0 0 1-1.14-1.75l.86-.38c.35-.18.66-.32.91-.43 2.3-1 5.64-2.53 9.93-4.48s7.59-3.42 10-4.48a.75.75 0 0 0 .39-.47.83.83 0 0 0-.06-.58 13.06 13.06 0 1 0-21.1 14.68 12.59 12.59 0 0 0 9.24 3.84 13.09 13.09 0 0 0 12.33-8.71.8.8 0 0 0-.12-.76.69.69 0 0 0-.61-.33zm-23-1.55a12.94 12.94 0 0 1-.11-1.65A11.44 11.44 0 0 1 149.22 58a12.36 12.36 0 0 1 1.31 1.76l-10.42 4.69c-4.4 2-8 3.62-10.43 4.72a10.05 10.05 0 0 1-.54-2.17zm50.75-14.43a.87.87 0 0 0-.71-.38.77.77 0 0 0-.73.5l-9 21-.54 1.25c-.16.43-.3.76-.4 1-.25.47-.54.71-.85.71a1 1 0 0 1-.89-.71 6.14 6.14 0 0 1-.38-.92l-9.58-22.35a.8.8 0 0 0-.8-.47.75.75 0 0 0-.65.38.68.68 0 0 0-.06.73l10 23.48a2.49 2.49 0 0 0 4.64 0l10-23.44a.73.73 0 0 0-.05-.78zM69.26 83.63h-.19a1.14 1.14 0 0 0-.8.33 1.21 1.21 0 0 0-.34.82v1.74a.22.22 0 0 0 .22.21.22.22 0 0 0 .21-.21v-1.74a.69.69 0 0 1 .21-.51.71.71 0 0 1 .5-.21h.18a.21.21 0 0 0 .21-.21.23.23 0 0 0-.06-.16.2.2 0 0 0-.14-.06zm2.02 0a1.55 1.55 0 1 0 0 3.1 1.79 1.79 0 0 0 1.12-.47v.26a.21.21 0 0 0 .21.21.22.22 0 0 0 .21-.21v-1.34a1.52 1.52 0 0 0-.45-1.1 1.56 1.56 0 0 0-1.09-.45zm.79 2.37a1.07 1.07 0 0 1-.79.33 1.12 1.12 0 0 1-.79-1.91 1.07 1.07 0 0 1 .78-.33 1.08 1.08 0 0 1 .77.33 1.14 1.14 0 0 1 .32.78 1.11 1.11 0 0 1-.29.8zm2.84-2.37a1.56 1.56 0 0 0-1.56 1.54v2.56a.22.22 0 0 0 .21.21.19.19 0 0 0 .15-.06.21.21 0 0 0 .07-.15v-1.47a1.74 1.74 0 0 0 1.11.47 1.56 1.56 0 0 0 1.56-1.55 1.54 1.54 0 0 0-1.55-1.55zm.78 2.37a1.07 1.07 0 0 1-.77.33 1.1 1.1 0 0 1-.78-.32 1.12 1.12 0 0 1 .78-1.91 1.11 1.11 0 0 1 .79 1.9zm4-3.58a.21.21 0 0 0-.21.21v1.47a1.74 1.74 0 0 0-1.12-.47 1.55 1.55 0 0 0-1.1 2.64 1.5 1.5 0 0 0 1.09.46 1.54 1.54 0 0 0 1.09-.45 1.56 1.56 0 0 0 .47-1.09v-2.55a.24.24 0 0 0-.07-.16.2.2 0 0 0-.15-.06zM79.14 86a1.07 1.07 0 0 1-.77.33 1.13 1.13 0 0 1-.79-.33 1.11 1.11 0 0 1 0-1.58 1.07 1.07 0 0 1 .78-.33 1.07 1.07 0 0 1 .77.33 1.1 1.1 0 0 1 .32.78 1.11 1.11 0 0 1-.31.8zm4.02-.59a.2.2 0 0 0-.19.14 1.12 1.12 0 0 1-1.06.75 1.16 1.16 0 0 1-.92-.48l1.14-.51 1.09-.49a.25.25 0 0 0 .11-.12.2.2 0 0 0 0-.17 1.55 1.55 0 1 0-1.41 2.2 1.53 1.53 0 0 0 .9-.29 1.48 1.48 0 0 0 .55-.75.19.19 0 0 0 0-.19.2.2 0 0 0-.21-.09zm-2.37 0a1.94 1.94 0 0 1 0-.24 1.11 1.11 0 0 1 1.12-1.11 1.18 1.18 0 0 1 .9.45zm5.54-1.78a.21.21 0 0 0-.19.13l-1 2.29c0 .09-.06.1-.06.1l-.07-.1-1-2.33a.2.2 0 0 0-.19-.13.21.21 0 0 0-.17.09.2.2 0 0 0 0 .2l1.09 2.56a.4.4 0 0 0 .22.22.4.4 0 0 0 .15 0 .38.38 0 0 0 .36-.25l1.1-2.56a.31.31 0 0 0 0-.08.21.21 0 0 0-.07-.15.2.2 0 0 0-.17.01zm.93 2.69a.24.24 0 0 0-.16.07.24.24 0 0 0 0 .32.22.22 0 0 0 .32 0 .2.2 0 0 0 .07-.16.23.23 0 0 0-.23-.23zm1.29-2.69a.22.22 0 0 0-.22.21v2.68a.2.2 0 0 0 .06.15.23.23 0 0 0 .16.06.21.21 0 0 0 .22-.21v-2.67a.21.21 0 0 0-.22-.22zm.01-1.2a.27.27 0 0 0-.19.45.27.27 0 0 0 .16.08.27.27 0 0 0 0-.53zm2.31 1.2a1.49 1.49 0 0 0-1.07.45 1.56 1.56 0 0 0 1.1 2.65 1.57 1.57 0 0 0 1.55-1.55 1.55 1.55 0 0 0-1.58-1.55zm.79 2.37a1.07 1.07 0 0 1-.77.33 1.12 1.12 0 0 1-1.09-1.1 1.11 1.11 0 0 1 1.09-1.14 1.07 1.07 0 0 1 .77.33 1.11 1.11 0 0 1 .33.79 1.16 1.16 0 0 1-.33.79z"/>
	<path fill="#00a796" d="M98 62.68a.83.83 0 0 0 .57-.23l.25-.26a.79.79 0 1 0-1.12-1.12l-.26.25a.8.8 0 0 0 0 1.13.82.82 0 0 0 .56.23zm2.37-2.35a.79.79 0 0 0 .56-.23l1.74-1.74a.79.79 0 1 0-1.12-1.12L99.81 59a.79.79 0 0 0 0 1.12.82.82 0 0 0 .56.21z"/>
	<path fill="#00a796" d="M124.68 50.56v-5.39a3.62 3.62 0 0 0 0-.57.78.78 0 0 0-1.55.09 1.5 1.5 0 0 0 0 .3v13.72a1.93 1.93 0 0 1 0 .24 13.22 13.22 0 0 0-9.37-6.48 11.46 11.46 0 0 0-10.13 2.78l-.07.07a.77.77 0 0 0 .93 1.21 10.36 10.36 0 0 1 10.92-1.95 11.27 11.27 0 0 1 6.91 6.8 11.63 11.63 0 0 1-.86 10 11.38 11.38 0 0 1-12.33 5.38 10.84 10.84 0 0 1-5.44-3.07L86.66 56.22a12.53 12.53 0 0 0-8.91-3.9A12.4 12.4 0 0 0 68.52 56a12.94 12.94 0 0 0-4 9.66v20.33a.71.71 0 0 0 .77.74.71.71 0 0 0 .76-.75v-14.3l.13.18.27.44c.18.29.37.59.58.87a12.64 12.64 0 0 0 12.27 5.17 12.26 12.26 0 0 0 7.22-3.64l2.28-2.3 1.53-1.53c.08-.09.18-.17.29-.27s0 .08 0 .12c-.33 1.54-.65 3.08-1 4.62l-.08.33-.21 1c0 .2-.15.79.42.92s.71-.34.8-.69a.14.14 0 0 0 0-.06l1.77-8.26a.86.86 0 0 0-.12-.81.85.85 0 0 0-.8-.11l-8.33 1.91c-.57.13-.81.39-.73.78a.57.57 0 0 0 .27.37.93.93 0 0 0 .75.07c1.46-.36 2.94-.7 4.38-1l1.46-.33.4-.07c-.49.48-1 1-1.45 1.47-1.08 1.13-2.21 2.29-3.4 3.33a10.7 10.7 0 0 1-10.54 2.35 11.2 11.2 0 0 1-6.86-5.55 11.53 11.53 0 0 1-.82-9 11.41 11.41 0 0 1 8.1-7.69 11.26 11.26 0 0 1 10.64 2.92c.25.24.49.5.73.74l.43.45 7.6 7.74 2.26 2.3c2.08 2.12 4.24 4.32 6.38 6.46a12.12 12.12 0 0 0 8 3.64 12.61 12.61 0 0 0 9-2.83 13 13 0 0 0 4.9-10.54c.13-4.94.12-9.86.11-14.62z"/>
</svg>
