<svg xmlns="http://www.w3.org/2000/svg" xmlns:xlink="http://www.w3.org/1999/xlink" width="200" height="128">
	<defs>
		<linearGradient id="g" x1="45.68" y1="46.46" x2="52.31" y2="46.46" xlink:href="#a"/>
		<linearGradient id="l" x1="46.54" y1="45.76" x2="56.92" y2="45.76" xlink:href="#a"/>
		<linearGradient id="d" x1="56.53" y1="55.49" x2="60.67" y2="55.49" xlink:href="#b"/>
		<linearGradient id="a" x1="43.23" y1="48.34" x2="49.85" y2="48.34" gradientTransform="matrix(1 0 0 -1 0 108)" gradientUnits="userSpaceOnUse">
			<stop offset="0" stop-color="#fff"/>
			<stop offset="1" stop-color="#bcbec0"/>
		</linearGradient>
		<linearGradient id="e" x1="55.89" y1="65.99" x2="66.09" y2="70.47" xlink:href="#b"/>
		<linearGradient id="f" x1="42.21" y1="51.02" x2="64.84" y2="64.81" xlink:href="#b"/>
		<linearGradient id="b" x1="37.75" y1="45.84" x2="60.4" y2="45.84" gradientTransform="matrix(1 0 0 -1 0 108)" gradientUnits="userSpaceOnUse">
			<stop offset="0" stop-color="#43ffe9"/>
			<stop offset="1" stop-color="#208282"/>
		</linearGradient>
		<linearGradient id="h" x1="51.41" y1="55.04" x2="57.63" y2="55.04" xlink:href="#b"/>
		<linearGradient id="i" x1="51.02" y1="61.79" x2="62.79" y2="61.79" xlink:href="#b"/>
		<linearGradient id="c" x1="55.89" y1="65.99" x2="66.09" y2="70.47" gradientTransform="matrix(1 0 0 -1 0 108)" gradientUnits="userSpaceOnUse">
			<stop offset="0" stop-color="#00a79d"/>
			<stop offset=".64" stop-color="#23c2aa"/>
			<stop offset="1" stop-color="#32ceb0"/>
		</linearGradient>
		<linearGradient id="j" x1="36.97" y1="52.26" x2="67.27" y2="52.26" xlink:href="#c"/>
		<linearGradient id="k" x1="44.07" y1="47.67" x2="53.8" y2="47.67" xlink:href="#a"/>
	</defs>
	<path fill="#2e3a45" d="M78.87 65.92 55.05 52.16a3.08 3.08 0 0 0-2.78-.16l-32 18.49c-.71.41-.62 1.12.2 1.6L44.26 85.9A3.09 3.09 0 0 0 47 86l32-18.5c.79-.39.7-1.11-.13-1.58zm23.18 2.54a.68.68 0 0 0-.45.15.85.85 0 0 0-.25.33l-2.67 7a9.9 9.9 0 0 0-.45 1.6c-.08-.3-.15-.58-.24-.85s-.16-.52-.25-.75l-2.68-7a.92.92 0 0 0-.26-.35.73.73 0 0 0-.45-.13h-1.71l4.6 11.4h1.92l4.6-11.4zm4.95 0-4.47 11.4h1.64a.73.73 0 0 0 .46-.15.85.85 0 0 0 .25-.33l.85-2.33h4.72l.85 2.33a.74.74 0 0 0 .71.48h1.64l-4.48-11.4zm-.73 7.09 1.39-3.77c.07-.18.14-.38.21-.61s.14-.48.21-.75c.08.27.15.52.23.75s.14.42.21.59l1.39 3.79zm10.67-7.09h-2.12v11.4h6.68v-1.75h-4.56v-9.65zm6.29 0h2.13v11.4h-2.13zm13.22 1.59a5.28 5.28 0 0 0-1.82-1.17 6.39 6.39 0 0 0-2.36-.42h-4.35v11.4h4.35a6.39 6.39 0 0 0 2.36-.42 5.17 5.17 0 0 0 3-3 6.66 6.66 0 0 0 0-4.6 5.3 5.3 0 0 0-1.18-1.79zm-.83 5.79a3.51 3.51 0 0 1-.71 1.26 3.1 3.1 0 0 1-1.14.8 3.93 3.93 0 0 1-1.5.27h-2.21v-8h2.21a3.93 3.93 0 0 1 1.5.27 3.2 3.2 0 0 1 1.14.79 3.64 3.64 0 0 1 .71 1.27 5.56 5.56 0 0 1 0 3.36zm7.06-7.38-4.48 11.4h1.65a.68.68 0 0 0 .45-.15.69.69 0 0 0 .25-.33l.85-2.33h4.73l.85 2.33a.78.78 0 0 0 .25.34.74.74 0 0 0 .46.14h1.64l-4.48-11.4zm-.68 7.09 1.38-3.77c.07-.18.14-.38.21-.61s.15-.48.22-.75c.07.27.15.52.22.75l.21.59 1.39 3.79zm6.38-5.35h3.45v9.66h2.12V70.2h3.43v-1.74h-9v1.74zm19.07-.2a5.39 5.39 0 0 0-1.82-1.22 6.16 6.16 0 0 0-2.36-.44 6.24 6.24 0 0 0-2.36.44 5.28 5.28 0 0 0-3 3.07 6.62 6.62 0 0 0 0 4.64 5.45 5.45 0 0 0 1.17 1.85 5.39 5.39 0 0 0 1.83 1.22 6.24 6.24 0 0 0 2.36.44 6.16 6.16 0 0 0 2.36-.44 5.25 5.25 0 0 0 1.82-1.22 5.48 5.48 0 0 0 1.18-1.85 6.62 6.62 0 0 0 0-4.64 5.38 5.38 0 0 0-1.18-1.85zm-.83 5.85a3.37 3.37 0 0 1-.71 1.26 3.14 3.14 0 0 1-1.13.8 4.33 4.33 0 0 1-3 0 3.1 3.1 0 0 1-1.14-.8 3.53 3.53 0 0 1-.72-1.26 5.77 5.77 0 0 1 0-3.36 3.66 3.66 0 0 1 .72-1.27 3.1 3.1 0 0 1 1.14-.8 4.33 4.33 0 0 1 3 0 3.14 3.14 0 0 1 1.13.8 3.49 3.49 0 0 1 .71 1.27 5.77 5.77 0 0 1 0 3.36zm10.22-.2a2.3 2.3 0 0 0-.7-.66 3.91 3.91 0 0 0 1.07-.5 3.25 3.25 0 0 0 .79-.73 3.19 3.19 0 0 0 .49-.93 3.6 3.6 0 0 0 .17-1.09 3.35 3.35 0 0 0-.25-1.33 2.72 2.72 0 0 0-.78-1 3.85 3.85 0 0 0-1.36-.67 7.35 7.35 0 0 0-2-.24h-3.48v11.4h2.12v-4.5h.91a1 1 0 0 1 .47.09.91.91 0 0 1 .3.29l2.4 3.65a.89.89 0 0 0 .32.32 1 1 0 0 0 .47.11h1.91zm-1.56-1.92a3.32 3.32 0 0 1-1.05.15h-1.32V70.1h1.36a2.72 2.72 0 0 1 1.74.46 1.63 1.63 0 0 1 .57 1.34 2.05 2.05 0 0 1-.14.79 1.69 1.69 0 0 1-.43.63 1.91 1.91 0 0 1-.73.41z"/>
	<path fill="#3ec1a8" d="M101.43 45.33v1.28h-3.65v10h-1.53v-10h-3.67v-1.28zm9.86 11.3h-1.18a.54.54 0 0 1-.33-.1.61.61 0 0 1-.19-.26l-1.06-2.73h-5.07l-1.06 2.73a.62.62 0 0 1-.19.25.49.49 0 0 1-.33.11h-1.18l4.52-11.3h1.55zm-7.4-4.2h4.21l-1.77-4.59a8 8 0 0 1-.34-1.07c-.06.22-.11.42-.17.6s-.11.34-.16.47zm13.53 3.09a7 7 0 0 0 .84-.05 5.27 5.27 0 0 0 .73-.13 3.33 3.33 0 0 0 .63-.21 5.38 5.38 0 0 0 .6-.28v-2.49h-1.75a.36.36 0 0 1-.24-.08.29.29 0 0 1-.09-.22v-.86h3.47v4.33a5.42 5.42 0 0 1-.89.54 5.7 5.7 0 0 1-1 .38 7.65 7.65 0 0 1-1.12.23 10.68 10.68 0 0 1-1.31.07 5.85 5.85 0 0 1-2.25-.42 5.23 5.23 0 0 1-1.77-1.18 5.37 5.37 0 0 1-1.15-1.83 6.32 6.32 0 0 1-.42-2.34 6.61 6.61 0 0 1 .41-2.36 5.3 5.3 0 0 1 1.16-1.82 5.16 5.16 0 0 1 1.82-1.18 6.48 6.48 0 0 1 2.39-.42 8 8 0 0 1 1.25.1 6.69 6.69 0 0 1 1.07.28 5.17 5.17 0 0 1 .91.46 5 5 0 0 1 .78.59l-.43.69a.4.4 0 0 1-.35.22.54.54 0 0 1-.28-.09 4.81 4.81 0 0 1-.44-.27 4.59 4.59 0 0 0-.59-.3 4.83 4.83 0 0 0-.83-.25 5.39 5.39 0 0 0-1.13-.1 4.52 4.52 0 0 0-1.73.31 3.67 3.67 0 0 0-1.32.89 3.92 3.92 0 0 0-.83 1.4 5.4 5.4 0 0 0-.29 1.85 5.63 5.63 0 0 0 .3 1.91 4.15 4.15 0 0 0 .85 1.43 3.81 3.81 0 0 0 1.31.89 4.51 4.51 0 0 0 1.69.31z"/>
	<path fill="url(#b)" d="m45.79 70.2-8.04-6.28.84 1.25 8.05 6.27L60.4 54.13l-.85-1.25L45.79 70.2z"/>
	<path fill="url(#d)" d="m59.85 50.88-.3 2 .85 1.25.29-2-.84-1.25z"/>
	<path d="m48.49 55.53-3.19 1.24a9.54 9.54 0 0 0-1.56 1.92s-.32 2.08-.41 2.8a2.13 2.13 0 0 0-.07 1 12.85 12.85 0 0 0 1 1.33l.45-4.52a1.32 1.32 0 0 1 .78-1 38.16 38.16 0 0 1 4.39-1.4s-.5-1.5-1.39-1.37z" fill="url(#a)"/>
	<path d="M56 44.39a2.61 2.61 0 0 1-.86-1.21.94.94 0 0 1 .16-1.06c.39-.54 2.46-3.54 5.52-4.64s4.73-.13 5.36 1.6a13.65 13.65 0 0 0-4.58.6s-4.47 1.97-5.6 4.71z" fill="url(#e)"/>
	<path d="m61.77 45.21-3.18-2.49a.1.1 0 0 0-.05 0 .48.48 0 0 0-.45 0l-6.71 2.65c-.26 0-.45.37-.45.37L36.4 64a1.47 1.47 0 0 0-.24.37c-.32.7.94 1.88.94 1.88l.15-1L51.77 47c0-.18.44-.37.44-.37l6.71-2.66a.45.45 0 0 1 .45 0l3.23 2.54z" fill="url(#f)"/>
	<path d="M51.33 57.43c-1-.14-1.17 1-1.17 1l-.49 3.35-3.17 1.29a1.13 1.13 0 0 0-.81 1.11 3 3 0 0 0 .93 1.48c-.29-.74.73-1.34.73-1.34l3.17-1.26.48-3.35c.16-1.07 1.31-.87 1.31-.87a2.92 2.92 0 0 0-.98-1.41z" fill="url(#g)"/>
	<path fill="#3ec1a8" d="M53.07 55.16a7.26 7.26 0 0 1-1.46-2.32c-.21-1.18 1-4.44 3.67-5.48 1.36-.59 2.91 0 3.41 2.07a2 2 0 0 0-2.57-.82c-2.12.97-4.12 4-3.05 6.55z"/>
	<path d="m56.46 53-.84-1.25a2.78 2.78 0 0 1-1.81.92c-.26 1.45 1.61 2.19 2.65.33z" fill="url(#h)"/>
	<path d="M64.87 40.27a3.85 3.85 0 0 1 .11 2.1A10.74 10.74 0 0 1 58.93 50a4.29 4.29 0 0 1-3 .13.6.6 0 0 0-.63-.4 2.5 2.5 0 0 0-1.13 1.35c-.1.61.73 1.09.73 1.09-.05-.91 1.25-1.2 1.25-1.2s1.13 1.32 3.61.27c1.81-.53 5.63-3.56 6-7.62.07 0 .68-2.51-.89-3.35z" fill="url(#i)"/>
	<path d="M56 44.39a2.61 2.61 0 0 1-.86-1.21.94.94 0 0 1 .16-1.06c.39-.54 2.46-3.54 5.52-4.64s4.73-.13 5.36 1.6a13.65 13.65 0 0 0-4.58.6s-4.47 1.97-5.6 4.71z" fill="url(#c)"/>
	<path fill="#3ec1a8" d="m61.15 49.05.19-1.32-.84-1.25-.19 1.32v.06s-.37.56 1 1.68a.5.5 0 0 1-.16-.49z"/>
	<path d="M61.61 38.74a12.94 12.94 0 0 0-5.51 4.64c-.31.38-.38.83-.16 1s.65 0 1-.38l.11-.16a10.32 10.32 0 0 1 4.39-3.68c2.89-1.15 4.87.39 4.42 3.45a10.74 10.74 0 0 1-6 7.62 3.36 3.36 0 0 1-3.69-.23c-.19-.21-.61-.09-.93.28s-.44.83-.24 1a2.94 2.94 0 0 0 1.44.72c-.78.83-1.75 1.16-2.29.74s-.42-1.65.39-2.68 1.94-1.47 2.54-1a.92.92 0 0 1 .31.48c0 .33.39.4.77.14a1.25 1.25 0 0 0 .58-1.06.29.29 0 0 0 0-.09 1.59 1.59 0 0 0-.54-.88 2.1 2.1 0 0 0-2.08-.09 6 6 0 0 0-2.36 1.85c-1.41 1.78-1.72 3.89-.69 4.7s3 0 4.44-1.76l.2-.27a7 7 0 0 0 1.86-.46 11.53 11.53 0 0 0 1.12-.54l-.29 2-13.74 17.35-8-6.25 13.72-17.33 6.09-2.42 2.89 2.28-.21 1.29c-.06.4.18.61.55.46a1.36 1.36 0 0 0 .8-1l.24-1.62a.47.47 0 0 0-.13-.42l-3.23-2.54a.45.45 0 0 0-.45 0l-6.64 2.63h-.07a1.3 1.3 0 0 0-.44.37L37.25 65.23c-.31.38-.37.83-.15 1l8.84 6.91c.23.17.65 0 1-.38l14.5-18.28a1.28 1.28 0 0 0 .27-.59l.4-2.71a13.64 13.64 0 0 0 5.08-8.09c.56-3.84-1.93-5.78-5.57-4.35z" fill="url(#j)"/>
	<path d="M45.38 58.35a1.35 1.35 0 0 0-.7 1l-.6 4.07c-.07.4.18.6.55.46a1.35 1.35 0 0 0 .79-1l.49-3.35 3.17-1.26a1.37 1.37 0 0 0 .79-1c.06-.4-.19-.6-.56-.46l-3.85 1.52z" fill="url(#k)"/>
	<path d="M51.77 58.71h-.08a1.41 1.41 0 0 0-.7 1l-.48 3.36-3.17 1.25a1.4 1.4 0 0 0-.79 1c-.06.39.18.6.56.46L51 64.24a1.4 1.4 0 0 0 .78-1l.6-4.06c.07-.4-.18-.61-.55-.48z" fill="url(#l)"/>
</svg>
