<svg xmlns="http://www.w3.org/2000/svg" xmlns:xlink="http://www.w3.org/1999/xlink" width="200" height="128">
	<defs>
		<linearGradient id="a" x1="58.03" y1="36.13" x2="62.07" y2="36.13" gradientTransform="matrix(1 0 0 -1 0 108)" gradientUnits="userSpaceOnUse">
			<stop offset="0" stop-color="#00a79d"/>
			<stop offset=".64" stop-color="#23c2aa"/>
			<stop offset="1" stop-color="#32ceb0"/>
		</linearGradient>
		<linearGradient id="h" x1="50.32" y1="59.23" x2="52.45" y2="59.23" xlink:href="#a"/>
		<linearGradient id="n" x1="-114.93" y1="-90.87" x2="-86.11" y2="-90.87" gradientTransform="scale(1 -1) rotate(10.4 -199.124 763.58)" xlink:href="#a"/>
		<linearGradient id="c" x1="59.96" y1="53.24" x2="64.09" y2="53.24" xlink:href="#a"/>
		<linearGradient id="d" x1="53.14" y1="62.89" x2="57.17" y2="62.89" xlink:href="#a"/>
		<linearGradient id="e" x1="55.02" y1="33.85" x2="57.17" y2="33.85" xlink:href="#a"/>
		<linearGradient id="f" x1="52.18" y1="53.45" x2="63.31" y2="53.45" xlink:href="#a"/>
		<linearGradient id="g" x1="48.45" y1="54.77" x2="52.23" y2="54.77" xlink:href="#a"/>
		<linearGradient id="i" x1="50.03" y1="64.43" x2="52.97" y2="64.43" xlink:href="#a"/>
		<linearGradient id="j" x1="41.72" y1="39.18" x2="53.05" y2="41.31" xlink:href="#a"/>
		<linearGradient id="k" x1="37.99" y1="39.8" x2="51.33" y2="42.3" xlink:href="#a"/>
		<linearGradient id="b" x1="44.92" y1="40.35" x2="49.35" y2="40.35" gradientTransform="matrix(1 0 0 -1 0 108)" gradientUnits="userSpaceOnUse">
			<stop offset="0" stop-color="#fff"/>
			<stop offset="1" stop-color="#bcbec0"/>
		</linearGradient>
		<linearGradient id="l" x1="42.23" y1="41.02" x2="48.35" y2="41.02" xlink:href="#b"/>
		<linearGradient id="m" x1="52.18" y1="40.36" x2="61.49" y2="40.36" xlink:href="#a"/>
	</defs>
	<path fill="#2e3a45" d="m79.44 71.82-32 18.46a3.06 3.06 0 0 1-2.77-.12L20.91 76.42c-.82-.48-.91-1.18-.2-1.59l32-18.46a3.09 3.09 0 0 1 2.77.12l23.75 13.73c.83.47.92 1.19.21 1.6z"/>
	<path fill="#2e3a45" d="M103.92 69.12h-3v8.46h-1.87v-8.46H96V67.6h7.88zm10.49 8.46h-1.69a.73.73 0 0 1-.69-.37L109.92 74a.69.69 0 0 0-.26-.25.85.85 0 0 0-.42-.08h-.77v3.9h-1.86v-10h3a6.38 6.38 0 0 1 1.74.21 3.21 3.21 0 0 1 1.2.59 2.28 2.28 0 0 1 .68.91 2.88 2.88 0 0 1 .21 1.16 2.74 2.74 0 0 1-.14 1 3 3 0 0 1-.42.82 3 3 0 0 1-.69.64 3.66 3.66 0 0 1-.94.44 2 2 0 0 1 .33.24 1.54 1.54 0 0 1 .28.34zm-4.78-5.23a3.2 3.2 0 0 0 .92-.13 1.88 1.88 0 0 0 .64-.37 1.49 1.49 0 0 0 .37-.55 1.8 1.8 0 0 0 .13-.69 1.44 1.44 0 0 0-.5-1.17 2.43 2.43 0 0 0-1.53-.41h-1.19v3.32zm15.8 5.23H124a.59.59 0 0 1-.4-.12.76.76 0 0 1-.23-.3l-.74-2h-4.14l-.75 2a.63.63 0 0 1-.6.42h-1.45l3.93-10h1.9zm-3.28-3.77-1.21-3.32a8.776 8.776 0 0 1-.38-1.18c-.06.23-.13.45-.19.66s-.13.38-.19.53L119 73.81zm8.95-6.21a6 6 0 0 1 1.73.23 3.48 3.48 0 0 1 1.21.66 2.58 2.58 0 0 1 .71 1 3.49 3.49 0 0 1 .23 1.28 3.73 3.73 0 0 1-.24 1.33 2.73 2.73 0 0 1-.73 1 3.29 3.29 0 0 1-1.21.68 5.46 5.46 0 0 1-1.7.24h-1.39v3.51h-1.85v-10zm0 5a2.7 2.7 0 0 0 .89-.13 1.62 1.62 0 0 0 .63-.37 1.5 1.5 0 0 0 .38-.58 2.42 2.42 0 0 0 .12-.76 2.18 2.18 0 0 0-.12-.72 1.51 1.51 0 0 0-.38-.56 1.55 1.55 0 0 0-.63-.34 3 3 0 0 0-.9-.13h-1.38v3.59zm16.9 3.45v1.53h-5.85v-10H144v8.45zm11.86-3.46a5.45 5.45 0 0 1-.36 2 4.61 4.61 0 0 1-2.62 2.69 5.79 5.79 0 0 1-4.14 0 4.79 4.79 0 0 1-1.6-1.07 4.67 4.67 0 0 1-1-1.62 5.82 5.82 0 0 1 0-4.07 4.86 4.86 0 0 1 1-1.62 4.76 4.76 0 0 1 1.6-1.06 5.25 5.25 0 0 1 2.07-.39 5.78 5.78 0 0 1 1.43.18 5 5 0 0 1 1.23.5 4.42 4.42 0 0 1 1 .78 4.75 4.75 0 0 1 .76 1 5 5 0 0 1 .47 1.23 5.44 5.44 0 0 1 .16 1.45zm-1.89 0a4.55 4.55 0 0 0-.21-1.47 3.16 3.16 0 0 0-.64-1.11 2.56 2.56 0 0 0-1-.7 3.72 3.72 0 0 0-2.63 0 2.67 2.67 0 0 0-1 .7 3.16 3.16 0 0 0-.64 1.11 5.11 5.11 0 0 0 0 2.95 3 3 0 0 0 .64 1.1 2.67 2.67 0 0 0 1 .7 3.72 3.72 0 0 0 2.63 0 2.67 2.67 0 0 0 1-.7 3.12 3.12 0 0 0 .64-1.1 4.65 4.65 0 0 0 .21-1.48zm13.14-.01v4a5.33 5.33 0 0 1-1.61.82 6.78 6.78 0 0 1-1.85.26 6.19 6.19 0 0 1-2.21-.38 5 5 0 0 1-1.69-1.06 4.52 4.52 0 0 1-1.08-1.61 5.56 5.56 0 0 1-.38-2.05 5.62 5.62 0 0 1 .37-2.07 4.54 4.54 0 0 1 2.67-2.67 5.88 5.88 0 0 1 2.16-.37 7.3 7.3 0 0 1 1.14.09 5.7 5.7 0 0 1 1 .27 4.23 4.23 0 0 1 .82.42 7 7 0 0 1 .69.53l-.54.85a.49.49 0 0 1-.32.24.56.56 0 0 1-.45-.11l-.46-.26a3.22 3.22 0 0 0-.5-.23 4.58 4.58 0 0 0-.64-.15 4.25 4.25 0 0 0-.8-.07 3.62 3.62 0 0 0-1.34.25 2.89 2.89 0 0 0-1 .71 3.32 3.32 0 0 0-.65 1.12 4.91 4.91 0 0 0 0 3 3.36 3.36 0 0 0 .69 1.15 3 3 0 0 0 1.08.71 4.14 4.14 0 0 0 2.39.12 4.24 4.24 0 0 0 .84-.31V74h-1.26a.39.39 0 0 1-.28-.1.31.31 0 0 1-.1-.25v-1zm8.5-3.17a.51.51 0 0 1-.17.21.4.4 0 0 1-.24.07.51.51 0 0 1-.31-.11l-.41-.23a2.7 2.7 0 0 0-.55-.24 2.33 2.33 0 0 0-.74-.11 2.52 2.52 0 0 0-.67.09 1.47 1.47 0 0 0-.49.27 1 1 0 0 0-.29.4 1.25 1.25 0 0 0-.1.51.91.91 0 0 0 .19.59 1.9 1.9 0 0 0 .53.4 5.42 5.42 0 0 0 .74.29l.84.28a7.81 7.81 0 0 1 .84.35 2.8 2.8 0 0 1 .74.49 2.26 2.26 0 0 1 .52.74 2.52 2.52 0 0 1 .2 1 3.62 3.62 0 0 1-.23 1.27 2.85 2.85 0 0 1-.68 1 3.26 3.26 0 0 1-1.09.69 4.1 4.1 0 0 1-1.47.25 4.91 4.91 0 0 1-.94-.09 4.79 4.79 0 0 1-.89-.27 4.37 4.37 0 0 1-.8-.42 3.8 3.8 0 0 1-.66-.54l.55-.89a.4.4 0 0 1 .18-.16.48.48 0 0 1 .23-.07.67.67 0 0 1 .37.14l.48.32a3.54 3.54 0 0 0 .65.31 2.39 2.39 0 0 0 .88.14 1.81 1.81 0 0 0 1.23-.37 1.38 1.38 0 0 0 .44-1.08 1 1 0 0 0-.2-.64 1.63 1.63 0 0 0-.52-.42 3.89 3.89 0 0 0-.74-.28l-.84-.26a6.78 6.78 0 0 1-.85-.33 2.87 2.87 0 0 1-.74-.51 2.38 2.38 0 0 1-.52-.77 3 3 0 0 1-.19-1.15 2.78 2.78 0 0 1 .21-1.06 2.71 2.71 0 0 1 .63-.91 3.12 3.12 0 0 1 1-.65 3.72 3.72 0 0 1 1.4-.24 4.82 4.82 0 0 1 1.63.28 3.63 3.63 0 0 1 1.26.77z"/>
	<path fill="#3ec1a8" d="M102.09 48.88a.51.51 0 0 1-.09.12.29.29 0 0 1-.18.05.5.5 0 0 1-.28-.12 4.56 4.56 0 0 0-.39-.25 2.51 2.51 0 0 0-.58-.26 2.21 2.21 0 0 0-.81-.12 2.14 2.14 0 0 0-.79.12 1.64 1.64 0 0 0-.57.33 1.38 1.38 0 0 0-.35.48 1.62 1.62 0 0 0-.12.61 1.15 1.15 0 0 0 .21.69 1.8 1.8 0 0 0 .54.45 4.21 4.21 0 0 0 .75.34l.87.3a9.4 9.4 0 0 1 .88.34 2.82 2.82 0 0 1 .75.48 2.2 2.2 0 0 1 .54.71 2.34 2.34 0 0 1 .21 1 3.2 3.2 0 0 1-.21 1.22 2.81 2.81 0 0 1-.64 1 3.17 3.17 0 0 1-1 .66 3.88 3.88 0 0 1-1.43.25 4.21 4.21 0 0 1-1.83-.28 4.1 4.1 0 0 1-1.35-.94l.39-.64a.53.53 0 0 1 .13-.13.37.37 0 0 1 .18 0 .42.42 0 0 1 .21.08 2.08 2.08 0 0 1 .26.18l.33.24a2.86 2.86 0 0 0 .42.24 3.07 3.07 0 0 0 1.22.26 2.7 2.7 0 0 0 .85-.13 1.9 1.9 0 0 0 .63-.37 1.73 1.73 0 0 0 .4-.57 2.11 2.11 0 0 0 .14-.74 1.24 1.24 0 0 0-.22-.74 1.74 1.74 0 0 0-.53-.48 3.43 3.43 0 0 0-.76-.33l-.87-.32-.87-.33a2.87 2.87 0 0 1-.76-.48 2.25 2.25 0 0 1-.54-.75 2.82 2.82 0 0 1 0-2.1 2.68 2.68 0 0 1 .61-.88 3 3 0 0 1 1-.61 3.45 3.45 0 0 1 1.31-.23 4.14 4.14 0 0 1 1.51.26 3.7 3.7 0 0 1 1.2.76zm11.83-1.54v9.9h-.67a.47.47 0 0 1-.26-.05.55.55 0 0 1-.21-.19l-5.73-7.47v7.71h-1.15v-9.91h.95l.1.07.1.12 5.73 7.48v-7.67zm14.21 0v9.9H127v-7.89l-3.4 6.18a.5.5 0 0 1-.48.31h-.19a.51.51 0 0 1-.49-.31L119 49.28a5.34 5.34 0 0 1 0 .72v7.27h-1.18v-9.94h1a.89.89 0 0 1 .28 0 .39.39 0 0 1 .18.2l3.42 6.09a3.54 3.54 0 0 1 .16.34 2.87 2.87 0 0 1 .15.37l.15-.37c0-.12.1-.23.16-.35l3.36-6.08a.37.37 0 0 1 .18-.19.89.89 0 0 1 .28 0zm6.87 0a5 5 0 0 1 1.63.21 3.15 3.15 0 0 1 1.16.61 2.63 2.63 0 0 1 .68 1 3.59 3.59 0 0 1 0 2.53 2.69 2.69 0 0 1-.71 1 3.26 3.26 0 0 1-1.15.64 4.79 4.79 0 0 1-1.59.23h-1.59v3.72H132v-9.95zm0 5.13a3.13 3.13 0 0 0 1-.15 2.09 2.09 0 0 0 .74-.42 1.83 1.83 0 0 0 .46-.67 2.36 2.36 0 0 0 .15-.84 1.9 1.9 0 0 0-.59-1.47 2.53 2.53 0 0 0-1.77-.54h-1.59v4.09z"/>
	<path d="M62 70.12c-.17-1-.72-1.46-1.57-1.41a1.34 1.34 0 0 1 .31.72 5 5 0 0 1-1.54 4.32 3.18 3.18 0 0 1-1.15.56c.93 1.46 2.46.25 2.46.25A4.82 4.82 0 0 0 62 70.12z" fill="url(#a)"/>
	<path d="M64 53.05c0-1-.91-1.46-1.84-1.41a1.34 1.34 0 0 1 .31.72A5 5 0 0 1 61 56.68a2.4 2.4 0 0 1-1 .51c.93 1.46 2.28.18 2.28.18A4.61 4.61 0 0 0 64 53.05z" fill="url(#c)"/>
	<path d="M57.12 43.41A1.61 1.61 0 0 0 55.37 42a1.38 1.38 0 0 1 .31.77A5 5 0 0 1 54.15 47a2.4 2.4 0 0 1-1 .51 1.54 1.54 0 0 0 2.36.27 5.08 5.08 0 0 0 1.61-4.37z" fill="url(#d)"/>
	<path d="M56.43 74.45a10.7 10.7 0 0 1 0-2.12l-1.26-.69a7.51 7.51 0 0 0 0 2.59c.27 1.35.84 2.29 2.05 2.43a4.09 4.09 0 0 1-.79-2.21z" fill="url(#e)"/>
	<path d="M59.66 49.48a8.76 8.76 0 0 0-2.81 6.36l-4.67 4 1.27.69 4.66-4a8.93 8.93 0 0 1 3-6.21 3.11 3.11 0 0 1 2.25-1.06c-1.11-1.12-2.36-.81-3.7.22z" fill="url(#f)"/>
	<path fill="url(#g)" d="m50.97 49.33-2.52 7.11 1.27.69 2.51-7.1-1.26-.7z"/>
	<path d="M50.11 47.5a3.5 3.5 0 0 0 .89 1.83l1.26.7s-.83-1.85-.86-1.84z" fill="url(#h)"/>
	<path d="M56.46 39.6c-1.06-1-2.28-.85-3.64.24a8.62 8.62 0 0 0-2.71 7.66l1.26.7a9.28 9.28 0 0 1 2.71-7.66 5.42 5.42 0 0 1 2.38-.94z" fill="url(#i)"/>
	<path d="M52.39 63.18a4.32 4.32 0 0 0-2.85-3.57 6.89 6.89 0 0 1 1.39 2.89c.48 3.75-.34 7.29-4 11.22A5.19 5.19 0 0 1 42.88 75c1.36 1.06 3.34 1.33 5.47-.43a13.5 13.5 0 0 0 4.04-11.39z" fill="url(#j)"/>
	<path d="M48.45 56.44A5.91 5.91 0 0 0 44 58.2c-3.58 3.32-6.16 9.47-5.18 14.65.53 2.31 1.5 4 3.26 4.52a6.67 6.67 0 0 1-2-3.83 16.85 16.85 0 0 1 5.34-14.48 6.3 6.3 0 0 1 4.25-1.92z" fill="url(#k)"/>
	<path d="M49.18 65.77c-.15-1-.72-1.6-1.57-1.59a3.14 3.14 0 0 1 .31.89 5.61 5.61 0 0 1-1.68 4.77 2.61 2.61 0 0 1-1.32.57c.71.94 1.66.89 2.58.12 1.35-1.25 2.25-2.75 1.68-4.76z" fill="url(#b)"/>
	<path d="M48.34 62.47c-1.13-1.16-2.3-.71-3.47.18a8.57 8.57 0 0 0-2.56 7.22c.31 1.29.88 2.19 2 2.31a3.36 3.36 0 0 1-.58-1.85 8.46 8.46 0 0 1 2.44-7 3.11 3.11 0 0 1 2.17-.86z" fill="url(#l)"/>
	<path d="M57.83 66.58a7.71 7.71 0 0 0-1.69 2.2l-4-1.38 1.27.7 4 1.53a10.59 10.59 0 0 1 1.64-2.3 3.22 3.22 0 0 1 2.36-1s-1.23-1.71-3.58.25z" fill="url(#m)"/>
	<path d="M46.14 63.34a8.51 8.51 0 0 0-2.55 7.23C44 73 45.91 73.6 47.77 72a8.48 8.48 0 0 0 2.56-7.23c-.45-2.38-2.33-3.02-4.19-1.43zm3 2.43a5.56 5.56 0 0 1-1.68 4.76c-1.22 1-2.46.63-2.76-1a5.61 5.61 0 0 1 1.68-4.76c1.26-1.02 2.51-.58 2.8 1z" fill="#fff"/>
	<path d="M60.93 50.17a9.15 9.15 0 0 0-2.81 6.36l-4.66 4a5.21 5.21 0 0 0-2.07-2.85l2.49-7.06a3.41 3.41 0 0 0 1.92-.91 9 9 0 0 0 2.71-7.66c-.48-2.53-2.46-3.22-4.44-1.53a9 9 0 0 0-2.7 7.66 3.45 3.45 0 0 0 .86 1.82l-2.51 7.1a6.13 6.13 0 0 0-4.41 1.76c-3.77 3.24-6.09 9.8-5.18 14.65s4.71 6.16 8.48 2.92A15.3 15.3 0 0 0 52.47 71l3.94 1.36a7.27 7.27 0 0 0 0 2.59c.48 2.53 2.46 3.21 4.43 1.52a9 9 0 0 0 2.72-7.66c-.48-2.53-2.47-3.22-4.44-1.53a7.52 7.52 0 0 0-1.69 2.2l-4-1.36a15.43 15.43 0 0 0 .5-5.12l4.65-4c.79 1.58 2.43 1.81 4.07.41a9 9 0 0 0 2.71-7.66c-.48-2.57-2.46-3.27-4.43-1.58zm-6.47-7.64c1.11-1 2.24-.57 2.5.86a5.08 5.08 0 0 1-1.53 4.33 1.4 1.4 0 0 1-2.51-.87 5.07 5.07 0 0 1 1.54-4.32zm5 26.73c1.12-1 2.24-.57 2.51.86a5.07 5.07 0 0 1-1.53 4.32c-1.12 1-2.24.57-2.51-.86a5.06 5.06 0 0 1 1.54-4.32zM48.22 74.4c-2.88 2.49-5.8 1.48-6.5-2.23a13.2 13.2 0 0 1 4-11.23c2.88-2.48 5.8-1.48 6.49 2.24a13.14 13.14 0 0 1-4 11.22zm14.05-17a1.4 1.4 0 0 1-2.51-.87 5.08 5.08 0 0 1 1.55-4.33c1.12-1 2.24-.57 2.51.86a5.1 5.1 0 0 1-1.55 4.31z" fill="url(#n)"/>
</svg>
