<svg xmlns="http://www.w3.org/2000/svg" xmlns:xlink="http://www.w3.org/1999/xlink" width="200" height="128">
	<defs>
		<linearGradient id="a" x1="35.12" y1="49.25" x2="59.51" y2="49.25" gradientUnits="userSpaceOnUse">
			<stop offset="0" stop-color="#00a79d"/>
			<stop offset=".64" stop-color="#23c2aa"/>
			<stop offset="1" stop-color="#32ceb0"/>
		</linearGradient>
		<linearGradient id="b" x1="48.13" y1="49.61" x2="59.51" y2="49.61" xlink:href="#a"/>
	</defs>
	<path fill="#2e3a45" d="M78.75 70 55.08 56.32a3.07 3.07 0 0 0-2.76-.11L20.48 74.58c-.71.41-.62 1.12.2 1.59l23.68 13.69a3 3 0 0 0 2.75.11L79 71.59c.66-.41.57-1.12-.25-1.59zm18.27 9.71h7.14v-1.68h-5.02v-3.21h3.96V73.2h-3.96v-3.14h5.02v-1.68h-7.14v11.33zm19.42-11.32h-.18a.31.31 0 0 0-.15.1.7.7 0 0 0-.13.19L112.63 75c-.09.16-.18.34-.26.52s-.15.37-.22.56c-.08-.19-.15-.37-.23-.55a4.9 4.9 0 0 0-.24-.52l-3.39-6.29a.7.7 0 0 0-.13-.19.44.44 0 0 0-.15-.1H106v11.28h1.86v-7.77a4.38 4.38 0 0 0 0-.51l3.47 6.45a.85.85 0 0 0 .31.34.78.78 0 0 0 .44.12h.29a.77.77 0 0 0 .43-.12.85.85 0 0 0 .31-.34l3.42-6.43v8.26h1.85V68.38h-1.83zm7.48-.01-4.45 11.33h1.63a.68.68 0 0 0 .45-.15.63.63 0 0 0 .25-.32l.85-2.32h4.69l.85 2.32a.81.81 0 0 0 .25.34.73.73 0 0 0 .45.13h1.63l-4.45-11.33zm-.73 7.05 1.38-3.75c.06-.17.13-.37.2-.6s.15-.48.22-.75c.07.27.15.52.22.74l.21.6 1.38 3.76zm8.76-7.05h2.12v11.33h-2.12zm6.77 9.59v-9.59h-2.11v11.33h6.64v-1.74h-4.53z"/>
	<path fill="url(#a)" d="m38.46 59.4 3.92-2.02 17.13-18.27-24.39 19.11 3.34 1.18z"/>
	<path fill="url(#b)" d="m48.13 58.06 4.52 2.05 4.34-.26 2.52-20.74-11.38 18.95z"/>
	<path fill="#fff" d="m48.13 58.06 11.38-18.95-17.13 18.27 5.5 6.4 2.26-4.81-2.01-.91z"/>
	<path fill="#2eb2a4" d="m56.99 59.85-4.34.26-4.52-2.05-.25 5.72-5.5-6.4-3.92 2.02-3.34-1.18 3.4 1.07 3.91-1.97 5.34 6.14.36-5.4 4.46 1.9 4.4-.11z"/>
	<path fill="#fff" d="M45.72 65.41a.39.39 0 0 0 .23.07.48.48 0 0 0 .42-.25 4.19 4.19 0 0 1 .49-.7.48.48 0 0 0-.72-.63 5.53 5.53 0 0 0-.6.86.47.47 0 0 0 .18.65zm3.18 7.12a.48.48 0 0 0-.91.32 2.84 2.84 0 0 1 .17 1 3.19 3.19 0 0 1 0 .54.48.48 0 0 0 .38.56h.09a.49.49 0 0 0 .47-.39 4.37 4.37 0 0 0 .06-.72 4 4 0 0 0-.26-1.31zm-2.97-4.27a3.16 3.16 0 0 1-.14-1 3.64 3.64 0 0 1 0-.57.48.48 0 0 0-.94-.15 4.36 4.36 0 0 0 .12 2 .47.47 0 0 0 .46.34h.13a.49.49 0 0 0 .37-.62zM47 71.31l.2.21a.48.48 0 0 0 .36.16.45.45 0 0 0 .32-.13.47.47 0 0 0 0-.67c-.08-.08-.15-.17-.27-.28a6 6 0 0 1-.94-.95.48.48 0 0 0-.75.59A6.63 6.63 0 0 0 47 71.31zm1.16 4.34a.47.47 0 0 0-.66.13A6.17 6.17 0 0 1 46.41 77a.48.48 0 0 0 0 .68.45.45 0 0 0 .36.16.47.47 0 0 0 .31-.12 6.84 6.84 0 0 0 1.25-1.41.47.47 0 0 0-.17-.66zM45 77.92a4.28 4.28 0 0 1-.8.31.48.48 0 0 0-.34.59.49.49 0 0 0 .46.35.27.27 0 0 0 .13 0 5.49 5.49 0 0 0 1-.37.48.48 0 0 0-.43-.86z"/>
	<path fill="#3ec1a8" d="M102.71 47.15a.54.54 0 0 1-.14.18.35.35 0 0 1-.21.06.56.56 0 0 1-.31-.14l-.44-.29a3.61 3.61 0 0 0-.65-.29 2.78 2.78 0 0 0-.92-.14 2.85 2.85 0 0 0-.91.14 1.94 1.94 0 0 0-.65.37 1.53 1.53 0 0 0-.4.55 2 2 0 0 0-.13.69 1.31 1.31 0 0 0 .23.78 2.1 2.1 0 0 0 .61.53 4.65 4.65 0 0 0 .87.38l1 .33q.51.18 1 .39a3.58 3.58 0 0 1 .86.54 2.47 2.47 0 0 1 .61.81 2.62 2.62 0 0 1 .23 1.18 3.72 3.72 0 0 1-.25 1.38 3 3 0 0 1-.73 1.12 3.58 3.58 0 0 1-1.18.76 4.44 4.44 0 0 1-1.6.27 4.89 4.89 0 0 1-2-.39 4.83 4.83 0 0 1-1.54-1.07l.44-.73a.73.73 0 0 1 .16-.14.34.34 0 0 1 .2-.06.6.6 0 0 1 .37.18l.53.39a3.68 3.68 0 0 0 .77.38 3 3 0 0 0 1.1.18 2.85 2.85 0 0 0 1-.15 2 2 0 0 0 .72-.42 1.69 1.69 0 0 0 .45-.64 2.13 2.13 0 0 0 .16-.84 1.46 1.46 0 0 0-.23-.84 2 2 0 0 0-.61-.54 4 4 0 0 0-.86-.37l-1-.32c-.33-.11-.66-.23-1-.37a3.08 3.08 0 0 1-.86-.55 2.53 2.53 0 0 1-.61-.84 3.07 3.07 0 0 1-.23-1.25 3 3 0 0 1 .23-1.15 3 3 0 0 1 1.76-1.68 4 4 0 0 1 1.48-.26 4.74 4.74 0 0 1 1.72.3 4 4 0 0 1 1.35.86zm6.88 5.01v4.47h-1.51v-4.47L104 45.4h1.33a.46.46 0 0 1 .32.1 1 1 0 0 1 .21.25l2.57 4.36c.1.19.19.36.26.52s.13.32.19.48c.06-.16.12-.32.19-.49a4.11 4.11 0 0 1 .26-.51l2.56-4.36a1.33 1.33 0 0 1 .19-.24.43.43 0 0 1 .32-.11h1.35zm6.62-6.71a.7.7 0 0 1 .23.21l6.5 8.46a2.8 2.8 0 0 1 0-.4v-8.37h1.33v11.28h-.77a.66.66 0 0 1-.3-.07.75.75 0 0 1-.24-.21l-6.49-8.45v8.73h-1.33V45.4h.78a.58.58 0 0 1 .29.05zm18.41-.05v1.27H131v10h-1.52v-10h-3.64V45.4zm10.71 11.23h-1.53v-5.11h-6.05v5.11h-1.53V45.4h1.53v5h6.05v-5h1.53zM155 45.4v1.24h-5.4v3.72h4.4v1.2h-4.4v3.83h5.4v1.24h-6.92V45.4zm9.82 0v1.27h-3.63v10h-1.52v-10H156V45.4zm3.4 11.23h-1.52V45.4h1.52zm10.92-2.32a.3.3 0 0 1 .23.1l.6.65a4.72 4.72 0 0 1-1.68 1.24 5.63 5.63 0 0 1-2.37.45 5.57 5.57 0 0 1-2.2-.42 4.79 4.79 0 0 1-1.72-1.17 5.18 5.18 0 0 1-1-1.82 6.64 6.64 0 0 1-.39-2.32 6.44 6.44 0 0 1 .41-2.33 5.35 5.35 0 0 1 1.16-1.82 5.09 5.09 0 0 1 1.78-1.18 6.06 6.06 0 0 1 2.29-.42 5.35 5.35 0 0 1 2.14.39 5.15 5.15 0 0 1 1.59 1l-.49.7a.49.49 0 0 1-.13.12.28.28 0 0 1-.2.06.42.42 0 0 1-.22-.08l-.27-.18c-.1-.08-.22-.15-.36-.24a3.08 3.08 0 0 0-.51-.23 3.37 3.37 0 0 0-.67-.19 4.69 4.69 0 0 0-.88-.07 4.15 4.15 0 0 0-1.65.31 3.61 3.61 0 0 0-1.29.88 4.22 4.22 0 0 0-.85 1.39 5.92 5.92 0 0 0 0 3.72 4.25 4.25 0 0 0 .83 1.39 3.3 3.3 0 0 0 1.23.86 4 4 0 0 0 1.54.3 6.17 6.17 0 0 0 .9-.06 4.21 4.21 0 0 0 .74-.18 2.67 2.67 0 0 0 .63-.32 4.8 4.8 0 0 0 .6-.46.4.4 0 0 1 .21-.07z"/>
	<path fill="#fff" d="m48.13 58.06-.25 5.72 2.26-4.81-2.01-.91z"/>
</svg>
