<svg xmlns="http://www.w3.org/2000/svg" width="200" height="128">
    <path fill="#2e3a45" d="M31 52.16h-1.58a9.08 9.08 0 00-6.65 2.75 9.25 9.25 0 00-2.77 6.7v15.92a.69.69 0 00.76.79h.08a.7.7 0 00.79-.79V61.61a7.78 7.78 0 012.3-5.54 7.56 7.56 0 015.49-2.22H31c.36 0 .79-.15.79-.87a.72.72 0 00-.79-.82zM47.26 52.16A13.05 13.05 0 0038 74.47a13 13 0 0017.9.53 13.5 13.5 0 002.81-3.44v5.93a.69.69 0 00.76.79h.08a.7.7 0 00.79-.79V65.24a13.13 13.13 0 00-13.08-13.08zm8.08 21.15a11.06 11.06 0 01-8.08 3.35 11.4 11.4 0 01-8.07-19.49 11.08 11.08 0 018.07-3.33 11.38 11.38 0 018.08 19.47zM152.12 68.52a.78.78 0 00-.85.56 11.55 11.55 0 01-10.78 7.66 11 11 0 01-9-4.37 7.42 7.42 0 01-1.14-1.75l.86-.38c.35-.18.66-.32.91-.43 2.3-1 5.64-2.53 9.93-4.48s7.59-3.42 10-4.48a.75.75 0 00.39-.47.83.83 0 00-.06-.58 13.06 13.06 0 10-21.1 14.68 12.59 12.59 0 009.24 3.84 13.09 13.09 0 0012.33-8.71.8.8 0 00-.12-.76.69.69 0 00-.61-.33zm-23-1.55a12.94 12.94 0 01-.11-1.65A11.44 11.44 0 01149.22 58a12.36 12.36 0 011.31 1.76l-10.42 4.69c-4.4 2-8 3.62-10.43 4.72a10.05 10.05 0 01-.54-2.17zM179.87 52.54a.87.87 0 00-.71-.38.77.77 0 00-.73.5l-9 21-.54 1.25c-.16.43-.3.76-.4 1-.25.47-.54.71-.85.71a1 1 0 01-.89-.71 6.14 6.14 0 01-.38-.92l-9.58-22.35a.8.8 0 00-.8-.47.75.75 0 00-.65.38.68.68 0 00-.06.73l10 23.48a2.49 2.49 0 004.64 0l10-23.44a.73.73 0 00-.05-.78zM69.26 83.63h-.19a1.14 1.14 0 00-.8.33 1.21 1.21 0 00-.34.82v1.74a.22.22 0 00.22.21.22.22 0 00.21-.21v-1.74a.69.69 0 01.21-.51.71.71 0 01.5-.21h.18a.21.21 0 00.21-.21.23.23 0 00-.06-.16.2.2 0 00-.14-.06zM71.28 83.63a1.55 1.55 0 100 3.1 1.79 1.79 0 001.12-.47v.26a.21.21 0 00.21.21.22.22 0 00.21-.21v-1.34a1.52 1.52 0 00-.45-1.1 1.56 1.56 0 00-1.09-.45zm.79 2.37a1.07 1.07 0 01-.79.33 1.12 1.12 0 01-.79-1.91 1.07 1.07 0 01.78-.33 1.08 1.08 0 01.77.33 1.14 1.14 0 01.32.78 1.11 1.11 0 01-.29.8zM74.91 83.63a1.56 1.56 0 00-1.56 1.54v2.56a.22.22 0 00.21.21.19.19 0 00.15-.06.21.21 0 00.07-.15v-1.47a1.74 1.74 0 001.11.47 1.56 1.56 0 001.56-1.55 1.54 1.54 0 00-1.55-1.55zm.78 2.37a1.07 1.07 0 01-.77.33 1.1 1.1 0 01-.78-.32 1.12 1.12 0 01.78-1.91 1.11 1.11 0 01.79 1.9zM79.69 82.42a.21.21 0 00-.21.21v1.47a1.74 1.74 0 00-1.12-.47 1.55 1.55 0 00-1.1 2.64 1.5 1.5 0 001.09.46 1.54 1.54 0 001.09-.45 1.56 1.56 0 00.47-1.09v-2.55a.24.24 0 00-.07-.16.2.2 0 00-.15-.06zM79.14 86a1.07 1.07 0 01-.77.33 1.13 1.13 0 01-.79-.33 1.11 1.11 0 010-1.58 1.07 1.07 0 01.78-.33 1.07 1.07 0 01.77.33 1.1 1.1 0 01.32.78 1.11 1.11 0 01-.31.8zM83.16 85.41a.2.2 0 00-.19.14 1.12 1.12 0 01-1.06.75 1.16 1.16 0 01-.92-.48l1.14-.51 1.09-.49a.25.25 0 00.11-.12.2.2 0 000-.17 1.55 1.55 0 10-1.41 2.2 1.53 1.53 0 00.9-.29 1.48 1.48 0 00.55-.75.19.19 0 000-.19.2.2 0 00-.21-.09zm-2.37 0a1.94 1.94 0 010-.24 1.11 1.11 0 011.12-1.11 1.18 1.18 0 01.9.45zM86.33 83.63a.21.21 0 00-.19.13l-1 2.29c0 .09-.06.1-.06.1l-.07-.1-1-2.33a.2.2 0 00-.19-.13.21.21 0 00-.17.09.2.2 0 000 .2l1.09 2.56a.4.4 0 00.22.22.4.4 0 00.15 0 .38.38 0 00.36-.25l1.1-2.56a.31.31 0 000-.08.21.21 0 00-.07-.15.2.2 0 00-.17.01zM87.26 86.32a.24.24 0 00-.16.07.24.24 0 000 .32.22.22 0 00.32 0 .2.2 0 00.07-.16.23.23 0 00-.23-.23zM88.55 83.63a.22.22 0 00-.22.21v2.68a.2.2 0 00.06.15.23.23 0 00.16.06.21.21 0 00.22-.21v-2.67a.21.21 0 00-.22-.22zM88.56 82.43a.27.27 0 00-.19.45.27.27 0 00.16.08.27.27 0 000-.53zM90.87 83.63a1.49 1.49 0 00-1.07.45 1.56 1.56 0 001.1 2.65 1.57 1.57 0 001.55-1.55 1.55 1.55 0 00-1.58-1.55zm.79 2.37a1.07 1.07 0 01-.77.33 1.12 1.12 0 01-1.09-1.1 1.11 1.11 0 011.09-1.14 1.07 1.07 0 01.77.33 1.11 1.11 0 01.33.79 1.16 1.16 0 01-.33.79z"/>
    <path fill="#00a796" d="M98 62.68a.83.83 0 00.57-.23l.25-.26a.79.79 0 10-1.12-1.12l-.26.25a.8.8 0 000 1.13.82.82 0 00.56.23zM100.37 60.33a.79.79 0 00.56-.23l1.74-1.74a.79.79 0 10-1.12-1.12L99.81 59a.79.79 0 000 1.12.82.82 0 00.56.21z"/>
    <path fill="#00a796" d="M124.68 50.56v-5.39a3.62 3.62 0 000-.57.78.78 0 00-1.55.09 1.5 1.5 0 000 .3v13.72a1.93 1.93 0 010 .24 13.22 13.22 0 00-9.37-6.48 11.46 11.46 0 00-10.13 2.78l-.07.07a.77.77 0 00.93 1.21 10.36 10.36 0 0110.92-1.95 11.27 11.27 0 016.91 6.8 11.63 11.63 0 01-.86 10 11.38 11.38 0 01-12.33 5.38 10.84 10.84 0 01-5.44-3.07L86.66 56.22a12.53 12.53 0 00-8.91-3.9A12.4 12.4 0 0068.52 56a12.94 12.94 0 00-4 9.66V85.99a.71.71 0 00.77.74.71.71 0 00.76-.75V71.68l.13.18.27.44c.18.29.37.59.58.87a12.64 12.64 0 0012.27 5.17 12.26 12.26 0 007.22-3.64l2.28-2.3 1.53-1.53c.08-.09.18-.17.29-.27s0 .08 0 .12c-.33 1.54-.65 3.08-1 4.62l-.08.33-.21 1c0 .2-.15.79.42.92s.71-.34.8-.69a.14.14 0 000-.06l1.77-8.26a.86.86 0 00-.12-.81.85.85 0 00-.8-.11l-8.33 1.91c-.57.13-.81.39-.73.78a.57.57 0 00.27.37.93.93 0 00.75.07c1.46-.36 2.94-.7 4.38-1l1.46-.33.4-.07c-.49.48-1 1-1.45 1.47-1.08 1.13-2.21 2.29-3.4 3.33a10.7 10.7 0 01-10.54 2.35 11.2 11.2 0 01-6.86-5.55 11.53 11.53 0 01-.82-9 11.41 11.41 0 018.1-7.69 11.26 11.26 0 0110.64 2.92c.25.24.49.5.73.74l.43.45 7.6 7.74 2.26 2.3c2.08 2.12 4.24 4.32 6.38 6.46a12.12 12.12 0 008 3.64 12.61 12.61 0 009-2.83 13 13 0 004.9-10.54c.13-4.94.12-9.86.11-14.62z"/>
</svg>
