<svg xmlns="http://www.w3.org/2000/svg" xmlns:xlink="http://www.w3.org/1999/xlink" width="200" height="128">
	<defs>
		<linearGradient id="a" x1="36.76" y1="44.11" x2="37.38" y2="44.11" gradientTransform="matrix(1 0 0 -1 0 108)" gradientUnits="userSpaceOnUse">
			<stop offset="0" stop-color="#00a79d"/>
			<stop offset=".64" stop-color="#23c2aa"/>
			<stop offset="1" stop-color="#32ceb0"/>
		</linearGradient>
		<linearGradient id="b" x1="59.66" y1="63.73" x2="36.44" y2="62.35" xlink:href="#a"/>
		<linearGradient id="c" x1="37.38" y1="50.28" x2="59.34" y2="50.28" xlink:href="#a"/>
		<linearGradient id="d" x1="38.21" y1="49.46" x2="60.17" y2="49.46" xlink:href="#a"/>
		<linearGradient id="e" x1="136.27" y1="-332.11" x2="136.45" y2="-332.11" gradientTransform="matrix(.87 -.5 0 -1.15 -70.54 -257.43)" xlink:href="#a"/>
	</defs>
	<path fill="#2e3a45" d="M103.87 75.1v4.41h-2.1V68.23h3.44a7.18 7.18 0 0 1 2 .23 3.71 3.71 0 0 1 1.35.67 2.69 2.69 0 0 1 .78 1 3.47 3.47 0 0 1 .24 1.31 3.22 3.22 0 0 1-.17 1.08 3.11 3.11 0 0 1-.48.92 3.21 3.21 0 0 1-.78.73 4.52 4.52 0 0 1-1.06.5 2 2 0 0 1 .69.64l2.82 4.17h-1.9a.87.87 0 0 1-.79-.42l-2.38-3.61a.73.73 0 0 0-.29-.29 1 1 0 0 0-.47-.09zm0-1.5h1.31a3.26 3.26 0 0 0 1-.15 2.09 2.09 0 0 0 .72-.41 1.65 1.65 0 0 0 .43-.62 2.26 2.26 0 0 0 .14-.79 1.61 1.61 0 0 0-.57-1.32 2.67 2.67 0 0 0-1.73-.46h-1.34zm15.18-5.37v1.67h-5V73H118v1.61h-4v3.19h5v1.68h-7.12V68.23zm3.95 7.31v4h-2.1V68.23h3.68a6.33 6.33 0 0 1 2 .26 3.82 3.82 0 0 1 1.37.74 2.9 2.9 0 0 1 .79 1.14 4 4 0 0 1 .26 1.45 4.1 4.1 0 0 1-.27 1.51 3.31 3.31 0 0 1-.82 1.17 4 4 0 0 1-1.37.77 6.09 6.09 0 0 1-1.92.27zm0-1.64h1.58a3.37 3.37 0 0 0 1-.14 2 2 0 0 0 .71-.42 1.66 1.66 0 0 0 .42-.65 2.65 2.65 0 0 0 .14-.87 2.39 2.39 0 0 0-.14-.82 1.55 1.55 0 0 0-.42-.62 2 2 0 0 0-.71-.39 3.08 3.08 0 0 0-1-.14H123zm18.45-.03a6.19 6.19 0 0 1-.42 2.3 5.44 5.44 0 0 1-1.16 1.83 5.36 5.36 0 0 1-1.8 1.2 6.42 6.42 0 0 1-4.67 0 5.25 5.25 0 0 1-3-3 6.66 6.66 0 0 1 0-4.6 5.13 5.13 0 0 1 1.17-1.83 5.19 5.19 0 0 1 1.81-1.21 6.48 6.48 0 0 1 4.67 0 5.22 5.22 0 0 1 3 3 6.19 6.19 0 0 1 .4 2.31zm-2.16 0a5.39 5.39 0 0 0-.24-1.67 3.55 3.55 0 0 0-.71-1.25 3.08 3.08 0 0 0-1.12-.79 3.88 3.88 0 0 0-1.49-.27 4 4 0 0 0-1.49.27 3.08 3.08 0 0 0-1.12.79 3.57 3.57 0 0 0-.72 1.25 5.7 5.7 0 0 0 0 3.34 3.52 3.52 0 0 0 .72 1.24 3.08 3.08 0 0 0 1.12.79 4 4 0 0 0 1.49.27 3.88 3.88 0 0 0 1.49-.27 3.08 3.08 0 0 0 1.12-.79 3.51 3.51 0 0 0 .71-1.24 5.43 5.43 0 0 0 .24-1.67zm5.98 1.23v4.41h-2.1V68.23h3.45a7.06 7.06 0 0 1 2 .23 3.71 3.71 0 0 1 1.35.67 2.59 2.59 0 0 1 .78 1 3.71 3.71 0 0 1 .08 2.39 3.38 3.38 0 0 1-.49.92 3.21 3.21 0 0 1-.78.73 4.52 4.52 0 0 1-1.06.5 2 2 0 0 1 .69.64l2.81 4.2h-1.9a.87.87 0 0 1-.79-.42l-2.37-3.61a.82.82 0 0 0-.3-.29 1 1 0 0 0-.47-.09zm0-1.5h1.31a3.26 3.26 0 0 0 1-.15 2.09 2.09 0 0 0 .72-.41 1.65 1.65 0 0 0 .43-.62 2.26 2.26 0 0 0 .14-.79 1.61 1.61 0 0 0-.57-1.32 2.66 2.66 0 0 0-1.72-.46h-1.35zm15.58-5.37V70h-3.4v9.56h-2.1V70h-3.41v-1.77zm8.45 0v1.67h-5V73h3.94v1.61h-3.94v3.19h5v1.68h-7.12V68.23zm3.99 6.87v4.41h-2.1V68.23h3.44a7.18 7.18 0 0 1 2 .23 3.71 3.71 0 0 1 1.35.67 2.57 2.57 0 0 1 .77 1 3.29 3.29 0 0 1 .25 1.31 3.49 3.49 0 0 1-.17 1.08 3.11 3.11 0 0 1-.48.92 3.62 3.62 0 0 1-.78.73 4.71 4.71 0 0 1-1.06.5 2.06 2.06 0 0 1 .68.64l2.81 4.2h-1.89a.83.83 0 0 1-.46-.11.89.89 0 0 1-.33-.31L175 75.48a.89.89 0 0 0-.29-.29 1 1 0 0 0-.48-.09zm0-1.5h1.31a3.2 3.2 0 0 0 1-.15 2 2 0 0 0 .73-.41 1.63 1.63 0 0 0 .42-.62 2.05 2.05 0 0 0 .14-.79 1.6 1.6 0 0 0-.56-1.32 2.71 2.71 0 0 0-1.73-.46h-1.34z"/>
	<path fill="#3ec1a8" d="M103.47 52.33v4.18H102V45.33h3.3a6.39 6.39 0 0 1 1.85.24 3.75 3.75 0 0 1 1.3.7 2.85 2.85 0 0 1 .77 1.1 3.78 3.78 0 0 1 .25 1.42 3.68 3.68 0 0 1-.27 1.43 3.2 3.2 0 0 1-.8 1.12 3.85 3.85 0 0 1-1.31.73 5.77 5.77 0 0 1-1.79.26zm0-1.2h1.79a3.71 3.71 0 0 0 1.15-.17 2.59 2.59 0 0 0 .83-.48 2.06 2.06 0 0 0 .5-.74 2.44 2.44 0 0 0 .18-1 2.15 2.15 0 0 0-.66-1.67 2.9 2.9 0 0 0-2-.6h-1.79zm17.53-.21a6.44 6.44 0 0 1-.4 2.29 4.93 4.93 0 0 1-2.87 2.9 6 6 0 0 1-2.24.4h-4.19V45.33h4.19a6 6 0 0 1 2.24.4 5 5 0 0 1 1.74 1.14 5.07 5.07 0 0 1 1.13 1.77 6.38 6.38 0 0 1 .4 2.28zm-1.56 0a5.56 5.56 0 0 0-.28-1.84 3.77 3.77 0 0 0-.79-1.37 3.41 3.41 0 0 0-1.25-.86 4.3 4.3 0 0 0-1.63-.3h-2.67v8.74h2.67a4.3 4.3 0 0 0 1.63-.3 3.51 3.51 0 0 0 1.25-.85 3.85 3.85 0 0 0 .79-1.37 5.58 5.58 0 0 0 .32-1.85zM130 45.33v1.23h-5.37v3.91h4.59v1.23h-4.59v4.81h-1.53V45.33z"/>
	<path fill="#2e3a45" d="M78.73 71.7 47 90a3.08 3.08 0 0 1-2.75-.12l-23.58-13.6c-.81-.48-.9-1.18-.19-1.59l31.72-18.3a3 3 0 0 1 2.74.11l23.59 13.62c.82.47.9 1.18.2 1.58z"/>
	<path fill="url(#a)" opacity=".73" d="m36.76 51.1.62.4v25.17l-.62-.4V51.1z"/>
	<path fill="url(#b)" opacity=".73" d="m59.34 38.82-.62-.4L36.76 51.1l.62.4 21.96-12.68z"/>
	<path fill="url(#c)" opacity=".73" d="M37.38 51.47v25.17l8.97-5.18v-6.08l4.02-2.32v6.08l8.97-5.18V38.79L37.38 51.47z"/>
	<path fill="url(#d)" d="M38.2 52.29v25.17l8.98-5.18V66.2l4.01-2.32v6.09l8.97-5.18V39.61L38.2 52.29z"/>
	<path fill="#fff" d="M50.87 73.4v-6.05L47.5 69.3v6.04l-1.99 1.16 3.68 2.09 3.67-6.34-1.99 1.15zm1.51-23.23L48 52.69v-3.11l4.38-2.52v3.11zm3.94 2.9L48 57.88v-3.11l8.32-4.81v3.11zm2.89 3.52L48 63.06v-3.1l11.21-6.47v3.1z"/>
	<path fill="none" stroke-miterlimit="10" stroke-width=".18" stroke="url(#e)" d="M48 48.27v16.2"/>
	<path fill="#fff" d="M47.94 56.4v-8.1a15.69 15.69 0 0 0-7.06 12.18c0 2.36.9 4.09 2.47 4.73zm0 0-3.86 9a4 4 0 0 0 1.15 0 5.32 5.32 0 0 0 1.12-.24zm0 0-1.2 8.68q.34-.14.69-.3c.21-.11.42-.22.63-.35z"/>
</svg>
