<svg xmlns="http://www.w3.org/2000/svg" viewBox="17.56 12.31 295.62 82.62">
	<path fill="#CE1126" d="m151.293 44.286-7.184-16.592h6.676l3.558 9.375 3.354-9.375h6.541l-10.887 25.241h-6.17l4.112-8.649zm-95.207-7.45a12.716 12.716 0 0 1 1.886.333l3.285-18.851a31.4 31.4 0 0 0-1.884-.335l-3.287 18.853zm-9.925 3.34L31.698 27.891a32.177 32.177 0 0 0-1.907 2.299l14.428 12.263a12.743 12.743 0 0 1 1.942-2.277zm25.22-17.754a31.798 31.798 0 0 0-1.546-.916l-9.45 16.553c.54.265 1.061.566 1.556.903l9.44-16.54zm7.14 6.15L64.102 40.815c.355.379.686.78.994 1.2L79.51 29.776c-.32-.41-.648-.812-.988-1.205zM42.385 46.71a12.896 12.896 0 0 1 1.204-3.212l-17.712-6.53a31.782 31.782 0 0 0-1.167 3.23l17.675 6.512zm25.18 2.884c0 7.083-5.71 12.823-12.753 12.823-6.309 0-11.544-4.605-12.568-10.655l-17.68 6.521a32.013 32.013 0 0 0 1.44 4.042l17.572-6.479-14.344 12.202a31.857 31.857 0 0 0 2.987 3.62L45.632 60.27l-8.75 15.41a31.35 31.35 0 0 0 4.4 2.591l8.222-14.477-2.869 16.474c1.756.478 3.572.802 5.435.965l2.677-15.396 2.686 15.405c1.95-.164 3.85-.505 5.682-1.012l-2.49-14.291 7.172 12.58a31.49 31.49 0 0 0 5.544-3.273L66.758 63.71l10.066 8.548a31.869 31.869 0 0 0 4.281-5.264L72.11 59.36l11.012 4.058a31.834 31.834 0 0 0 2.342-6.74l-9.666-3.558 10.272-.002a32.45 32.45 0 0 0 .207-3.615c0-1.416-.1-2.807-.277-4.173H66.84a12.87 12.87 0 0 1 .725 4.263zm-25.507 0c0-.712.06-1.409.172-2.089H23.411a31.003 31.003 0 0 0-.068 1.999c0 .626.023 1.249.059 1.867h18.78a13.041 13.041 0 0 1-.124-1.777zM47.42 39.15a12.632 12.632 0 0 1 2.21-1.272L40.179 21.3c-.752.401-1.483.832-2.199 1.291l9.44 16.559zm.845-20.81a30.979 30.979 0 0 1 2.085-.37l3.288 18.859c-.716.065-1.414.189-2.092.369L48.265 18.34zm169.92 62.35h2.879V55.491h-2.879v25.2zm53.23-24.383c.36.386.543.875.543 1.466 0 .589-.183 1.077-.544 1.463-.36.385-.835.58-1.422.58-.588 0-1.06-.195-1.422-.58-.361-.386-.541-.874-.541-1.463 0-.591.18-1.08.54-1.466.362-.385.835-.577 1.423-.577.587 0 1.061.192 1.422.577zm-77.712-11.033v-9.535c0-2.087-.778-3.132-2.337-3.132-.858 0-1.506.289-1.947.867-.441.579-.66 1.414-.66 2.503v9.297h-6.097v-25.88h6.097v10.181a4.96 4.96 0 0 1 2.032-1.787c.857-.42 1.828-.63 2.912-.63 2.009 0 3.529.625 4.555 1.873 1.028 1.25 1.542 3.099 1.542 5.55v10.693h-6.097zm16.88 29.677c-.271.785-.661 1.45-1.168 1.993a5.427 5.427 0 0 1-1.813 1.278c-.7.304-1.49.459-2.371.459-.878 0-1.67-.155-2.37-.459a5.419 5.419 0 0 1-1.813-1.278c-.507-.544-.898-1.208-1.168-1.993-.27-.783-.407-1.652-.407-2.605 0-.953.136-1.822.407-2.605.27-.782.66-1.445 1.168-1.993a5.456 5.456 0 0 1 1.813-1.275c.7-.307 1.492-.46 2.37-.46.881 0 1.671.153 2.37.46.7.307 1.305.733 1.814 1.275a5.565 5.565 0 0 1 1.167 1.993c.271.783.408 1.652.408 2.605 0 .953-.137 1.822-.408 2.605zm.863-8.972a8.52 8.52 0 0 0-2.76-1.875c-1.062-.454-2.214-.68-3.455-.68-1.24 0-2.392.226-3.454.68a8.545 8.545 0 0 0-2.76 1.875 8.576 8.576 0 0 0-1.83 2.825c-.44 1.09-.661 2.272-.661 3.542 0 1.273.221 2.451.66 3.542a8.578 8.578 0 0 0 1.83 2.827 8.488 8.488 0 0 0 2.76 1.873c1.063.452 2.214.68 3.455.68s2.393-.228 3.455-.68a8.463 8.463 0 0 0 2.76-1.873 8.564 8.564 0 0 0 1.829-2.827c.44-1.09.66-2.27.66-3.542 0-1.27-.22-2.451-.66-3.542a8.561 8.561 0 0 0-1.829-2.825zm57.124 14.71h2.878V63.902h-2.878v16.787zm-8.94-51.658c1.027 1.25 1.541 3.099 1.541 5.55v10.693h-6.096v-9.535c0-2.087-.779-3.132-2.338-3.132-.859 0-1.506.289-1.947.867-.44.579-.66 1.414-.66 2.503v9.297h-6.097V27.702h5.962l.067 2.18a4.776 4.776 0 0 1 1.98-2.01c.87-.476 1.88-.714 3.033-.714 2.009 0 3.527.625 4.555 1.873zm-51.988 5.831c.465-2.372 1.743-3.557 3.826-3.557 1.014 0 1.838.31 2.47.93.63.622 1.013 1.497 1.151 2.627h-7.447zm12.48 1.082c0-1.363-.198-2.584-.593-3.662-.396-1.077-.965-1.997-1.711-2.758-.745-.76-1.65-1.344-2.708-1.754-1.063-.407-2.249-.612-3.556-.612-1.357 0-2.592.227-3.71.68a8.602 8.602 0 0 0-2.896 1.908c-.813.816-1.44 1.799-1.879 2.947-.44 1.144-.66 2.411-.66 3.795 0 1.431.24 2.725.727 3.882a7.965 7.965 0 0 0 2.1 2.945c.914.808 2.02 1.426 3.319 1.857 1.298.431 2.76.648 4.387.648 1.354 0 2.659-.16 3.912-.477 1.252-.318 2.32-.773 3.2-1.363l-1.93-3.916c-.724.319-1.509.562-2.355.732-.846.17-1.608.254-2.286.254-2.777 0-5.23-.997-5.84-2.996h12.275c.135-.566.204-1.27.204-2.11zm14.497 3.576c-.702.77-1.627 1.157-2.779 1.157-1.15 0-2.077-.386-2.777-1.157-.7-.772-1.05-1.782-1.05-3.032 0-1.248.35-2.258 1.05-3.03.7-.772 1.626-1.158 2.777-1.158 1.152 0 2.077.386 2.779 1.157.698.773 1.05 1.783 1.05 3.031 0 1.25-.352 2.26-1.05 3.032zm4.097-9.705a9.116 9.116 0 0 0-3.048-1.96c-1.176-.464-2.45-.697-3.828-.697-1.378 0-2.653.233-3.827.697a9.095 9.095 0 0 0-3.048 1.96 9.088 9.088 0 0 0-2.015 2.962c-.486 1.134-.729 2.371-.729 3.711 0 1.34.243 2.577.729 3.713a9.125 9.125 0 0 0 2.015 2.963 9.077 9.077 0 0 0 3.048 1.957c1.174.465 2.449.699 3.827.699 1.377 0 2.652-.234 3.828-.699a9.097 9.097 0 0 0 3.048-1.957 9.134 9.134 0 0 0 2.014-2.963c.486-1.136.73-2.373.73-3.713 0-1.34-.244-2.577-.73-3.711a9.098 9.098 0 0 0-2.014-2.962zm-48.1 35.467c1.039 1.235 1.558 3.048 1.558 5.431v9.977h-2.879v-9.468c0-1.816-.31-3.144-.93-3.982-.622-.841-1.61-1.26-2.963-1.26-1.492 0-2.65.493-3.473 1.48-.824.987-1.237 2.366-1.237 4.138v9.092h-2.878V63.902h2.71l.044 2.98c.385-.926.955-1.684 1.716-2.266 1.04-.794 2.302-1.191 3.794-1.191 1.987 0 3.5.617 4.538 1.857zm48.72 9.67c-.271.784-.662 1.448-1.167 1.992a5.441 5.441 0 0 1-1.815 1.278c-.7.304-1.49.459-2.37.459-.88 0-1.67-.155-2.371-.459a5.416 5.416 0 0 1-1.812-1.278c-.508-.544-.898-1.208-1.168-1.993-.271-.783-.406-1.652-.406-2.605 0-.953.135-1.822.406-2.605.27-.782.66-1.445 1.168-1.993a5.452 5.452 0 0 1 1.812-1.275c.701-.307 1.491-.46 2.371-.46.88 0 1.67.153 2.37.46.7.307 1.305.733 1.815 1.275a5.602 5.602 0 0 1 1.167 1.993c.27.783.407 1.652.407 2.605 0 .953-.137 1.822-.407 2.605zm.864-8.973a8.551 8.551 0 0 0-2.762-1.875c-1.06-.454-2.213-.68-3.454-.68-1.24 0-2.392.226-3.455.68a8.553 8.553 0 0 0-2.76 1.875 8.574 8.574 0 0 0-1.829 2.825c-.44 1.09-.66 2.272-.66 3.542 0 1.273.22 2.451.66 3.542a8.576 8.576 0 0 0 1.829 2.827 8.485 8.485 0 0 0 2.76 1.873c1.063.452 2.215.68 3.455.68 1.241 0 2.393-.228 3.454-.68a8.495 8.495 0 0 0 2.762-1.873 8.574 8.574 0 0 0 1.828-2.827c.44-1.09.66-2.27.66-3.542 0-1.27-.22-2.451-.66-3.542a8.572 8.572 0 0 0-1.828-2.825zM135.764 39.298c-.656.715-1.501 1.072-2.54 1.072-1.04 0-1.891-.357-2.558-1.072-.665-.715-.998-1.652-.998-2.81 0-1.158.333-2.093.998-2.809.667-.716 1.519-1.072 2.558-1.072s1.884.356 2.54 1.072c.653.716.983 1.65.983 2.81 0 1.157-.33 2.094-.983 2.809zm6.74-11.596h-5.724l-.067 2.044a5.384 5.384 0 0 0-2.083-1.908c-.87-.453-1.835-.68-2.897-.68a7.34 7.34 0 0 0-3.217.715 8.012 8.012 0 0 0-2.59 1.975c-.735.84-1.304 1.834-1.712 2.98-.406 1.146-.61 2.39-.61 3.728 0 1.363.198 2.611.594 3.747.394 1.136.942 2.11 1.643 2.928a7.367 7.367 0 0 0 2.506 1.906c.97.456 2.043.683 3.218.683 1.128 0 2.138-.223 3.03-.666a5.187 5.187 0 0 0 2.118-1.89l.067 2.01h5.723V27.702zm165.078 48.493c0 1.567-.616 2.803-1.846 3.712-1.232.907-2.885 1.362-4.96 1.362-1.085 0-2.16-.153-3.22-.461-1.06-.304-1.907-.697-2.539-1.174l1.187-2.076c1.464.862 2.99 1.294 4.571 1.294 1.24 0 2.202-.217 2.877-.649.678-.432 1.017-1.042 1.017-1.837 0-.364-.05-.683-.152-.954-.103-.272-.3-.519-.593-.731-.294-.218-.701-.427-1.22-.63a26.298 26.298 0 0 0-2.03-.683c-1.831-.544-3.14-1.215-3.93-2.009-.791-.795-1.186-1.837-1.186-3.132 0-1.453.559-2.618 1.676-3.492 1.117-.873 2.625-1.31 4.522-1.31.859 0 1.773.13 2.743.39.972.26 1.783.597 2.439 1.007l-1.118 2.077c-1.4-.706-2.755-1.055-4.064-1.055-2.281 0-3.42.69-3.42 2.076 0 .704.26 1.266.778 1.686.519.419 1.423.822 2.711 1.209 1.083.316 1.99.646 2.725.987.734.34 1.327.72 1.78 1.14.45.42.771.896.964 1.43.193.535.288 1.141.288 1.823zm-186.06-18.048h-8.806V80.69h-3.048V58.147h-8.806v-2.622h20.66v2.622zm-13.361-33.578h1.93c2.935 0 4.403 1.182 4.403 3.542 0 2.431-1.49 3.644-4.47 3.644h-1.863V24.57zm3.386 12.328 4.505 8.377h7.452l-6.402-10.25c1.242-.726 2.201-1.698 2.88-2.91a8.02 8.02 0 0 0 1.015-3.968c0-1.363-.232-2.588-.694-3.678a7.49 7.49 0 0 0-1.981-2.757c-.859-.751-1.909-1.323-3.15-1.72-1.243-.397-2.654-.597-4.234-.597h-9.28v25.88h6.503V36.93h1.862l1.524-.033zm16.255 29.014c.927 0 1.705.165 2.338.495a4.33 4.33 0 0 1 1.524 1.275c.384.523.66 1.123.83 1.806.134.535.2 1.082.228 1.633h-10.164c.162-1.428.61-2.594 1.35-3.49.949-1.147 2.246-1.719 3.894-1.719zm5.606-.17a7.09 7.09 0 0 0-2.387-1.704c-.926-.407-1.942-.612-3.049-.612-1.22 0-2.337.22-3.353.664a7.634 7.634 0 0 0-2.624 1.873c-.735.805-1.304 1.772-1.71 2.895-.407 1.124-.61 2.355-.61 3.693 0 2.747.812 4.887 2.438 6.42 1.626 1.534 3.907 2.299 6.842 2.299a14.62 14.62 0 0 0 3.471-.408c1.118-.273 2.061-.649 2.83-1.124l-1.086-2.111c-1.738.702-3.432 1.055-5.08 1.055-2.146 0-3.782-.518-4.91-1.55-.941-.86-1.483-2.107-1.64-3.73h12.883a17.747 17.747 0 0 0 .052-.61c.01-.185.016-.512.016-.989 0-1.25-.18-2.39-.541-3.424-.362-1.033-.876-1.912-1.542-2.638zm150.35.17c2.888 0 4.526 1.453 4.911 4.358a3.406 3.406 0 0 1 .085.714H278.68c.16-1.327.593-2.437 1.304-3.318.934-1.171 2.193-1.754 3.774-1.754zm5.69-.221a6.809 6.809 0 0 0-2.389-1.67c-.937-.397-1.982-.595-3.132-.595-1.175 0-2.259.22-3.251.664a7.53 7.53 0 0 0-2.574 1.873c-.724.805-1.289 1.758-1.695 2.86-.405 1.101-.61 2.298-.61 3.591 0 2.816.798 4.995 2.388 6.54 1.592 1.544 3.834 2.316 6.724 2.316 1.24 0 2.426-.149 3.556-.442 1.129-.296 2.121-.706 2.98-1.227l-1.017-2.178c-1.805.837-3.6 1.259-5.384 1.259-3.924 0-6.047-1.809-6.385-5.417h12.785c.024-.226.04-.43.054-.61.009-.183.014-.513.014-.988 0-1.249-.179-2.378-.54-3.39-.36-1.008-.87-1.87-1.524-2.586zM152.715 77.83l1.05 2.146a9.754 9.754 0 0 1-2.489.953c-.937.226-1.88.34-2.829.34-1.4 0-2.67-.203-3.81-.613-1.14-.409-2.112-1.001-2.913-1.771a7.783 7.783 0 0 1-1.846-2.793c-.429-1.089-.643-2.303-.643-3.644 0-1.338.22-2.559.66-3.66a8.378 8.378 0 0 1 1.846-2.843c.79-.794 1.744-1.413 2.862-1.856 1.118-.444 2.342-.664 3.674-.664 1.784 0 3.5.453 5.149 1.363l-1.118 2.11a8.037 8.037 0 0 0-1.897-.665 9.414 9.414 0 0 0-1.997-.22c-1.92 0-3.438.567-4.556 1.702-1.118 1.136-1.677 2.669-1.677 4.598 0 1.998.57 3.56 1.711 4.683 1.14 1.124 2.715 1.685 4.725 1.685 1.309 0 2.676-.285 4.098-.852zm18.053-12.534c1.05 1.251 1.575 3.055 1.575 5.417v9.977h-2.88v-9.468c0-1.816-.315-3.144-.948-3.982-.632-.841-1.626-1.26-2.98-1.26-1.49 0-2.649.493-3.473 1.48-.823.987-1.235 2.366-1.235 4.138v9.092h-2.88V55.491h2.88v11.162a5.37 5.37 0 0 1 1.727-2.12c1.016-.74 2.235-1.108 3.658-1.108 1.986 0 3.505.624 4.556 1.87zm7.237-19.715c-.892.158-1.812.239-2.76.239-4.404 0-6.604-2.305-6.604-6.915V32.64h-2.946v-4.938h2.946v-4.528h6.095v4.528h5.69l-1.523 4.938h-4.167v5.212c0 1.065.17 1.81.508 2.23.34.42.916.63 1.728.63.925 0 1.83-.171 2.71-.511l.61 4.733c-.633.272-1.395.487-2.287.647zm80.91 31.313a5.495 5.495 0 0 1-1.814 1.309 5.4 5.4 0 0 1-2.268.478c-1.76 0-3.156-.561-4.183-1.685-1.027-1.124-1.541-2.651-1.541-4.583 0-.93.141-1.787.423-2.568a6.16 6.16 0 0 1 1.185-2.028 5.436 5.436 0 0 1 1.813-1.328 5.508 5.508 0 0 1 2.303-.475c.857 0 1.642.152 2.354.46a5.09 5.09 0 0 1 1.812 1.294c.496.556.88 1.23 1.152 2.023.27.795.405 1.67.405 2.622 0 .91-.145 1.745-.44 2.505a6.22 6.22 0 0 1-1.202 1.976zm1.44-9.993a7.185 7.185 0 0 0-2.034-2.269c-1.13-.804-2.427-1.207-3.894-1.207-1.176 0-2.264.232-3.27.698a8.255 8.255 0 0 0-2.622 1.906 8.693 8.693 0 0 0-1.744 2.844c-.42 1.09-.627 2.271-.627 3.54 0 1.317.19 2.52.574 3.612.384 1.089.926 2.02 1.628 2.793a7.397 7.397 0 0 0 2.504 1.803c.97.431 2.043.648 3.218.648 1.557 0 2.923-.388 4.097-1.158a6.805 6.805 0 0 0 2.168-2.316v1.976c0 2.427-.502 4.21-1.507 5.345-1.003 1.137-2.568 1.704-4.69 1.704-2.439 0-4.346-.444-5.723-1.328l-.747 2.35c.294.226.684.43 1.17.61.484.184 1.016.342 1.59.48a17.5 17.5 0 0 0 1.83.322 15.46 15.46 0 0 0 1.915.12c6.027 0 9.041-3.305 9.041-9.91V63.902h-2.81l-.067 2.999z" fill-rule="evenodd"/>
</svg>
