<svg xmlns="http://www.w3.org/2000/svg" width="200" height="128">
    <g fill="#202223">
        <path d="M69.011 49.926h1.118q.01 14.076 0 28.148h-1.116Q69 64 69.011 49.926zM20 54.217a39.63 39.63 0 0 1 8.029-.32c1.779.19 3.736.661 4.893 2.142a5.152 5.152 0 0 1 .4 5.617A5.373 5.373 0 0 1 30.568 64a4.665 4.665 0 0 1 2.332 2.8c.617 2.017 1.075 4.084 1.763 6.08-1.477 0-2.956-.012-4.432.011a45.925 45.925 0 0 1-1.553-5.282 2.8 2.8 0 0 0-1.543-1.919 8.689 8.689 0 0 0-2.649-.218v7.406h-4.483q.008-9.331 0-18.66m4.473 8.171c1.379-.056 2.919.235 4.114-.642a2.608 2.608 0 0 0 .115-4.156c-1.213-.862-2.791-.545-4.181-.543-.092 1.778-.013 3.559-.048 5.34zM37.116 54.205a38.661 38.661 0 0 1 7.542-.328c1.926.136 4.048.7 5.268 2.313a4.036 4.036 0 0 1-2.438 6.334 7.72 7.72 0 0 1 2.656 1.607 4.8 4.8 0 0 1 1 4.631 5.523 5.523 0 0 1-3.918 3.652 26.33 26.33 0 0 1-10.113.394q-.008-9.3 0-18.6m4.294 2.819c-.02 1.456 0 2.912-.013 4.371 1.367-.054 2.905.23 4.082-.645a2 2 0 0 0 .056-3.262c-1.215-.8-2.756-.456-4.125-.464m0 7.416c0 1.83-.043 3.659.023 5.489 1.459-.008 3.086.164 4.348-.724a2.517 2.517 0 0 0 .123-3.928c-1.277-.975-2.978-.807-4.491-.84zM54.218 72.892c.007-6.308-.026-12.615.017-18.923 1.439.01 2.877 0 4.315 0q.015 7.647 0 15.3c2.544 0 5.085-.005 7.628 0v3.6c-3.984.031-7.971-.002-11.96.023z"/>
    </g>
    <g fill="#71bef8">
        <path d="M125.467 55.742a12.847 12.847 0 0 1 9.279-1.768 11.355 11.355 0 0 1 2.257.683c-.379 1.822-.64 3.665-.967 5.5a6.719 6.719 0 0 0-6.646-1.2 5.848 5.848 0 0 0-3.554 4.78 4.14 4.14 0 0 0 .645 3.37 3.728 3.728 0 0 0 2.855 1.305 10.125 10.125 0 0 0 5.507-1.684c-.335 1.648-.527 3.322-.888 4.962-.046.358-.442.435-.706.573a14.886 14.886 0 0 1-6.976.816 7.2 7.2 0 0 1-4.882-2.671 6.518 6.518 0 0 1-1.333-3.608 12.2 12.2 0 0 1 5.409-11.058zM74.515 54.092c5.117-.008 10.238.01 15.356-.01a64.77 64.77 0 0 1-.817 4.588c-1.671 0-3.342-.021-5.013.015-.806 4.732-1.655 9.455-2.5 14.176-1.8-.007-3.6 0-5.4-.005.832-4.731 1.681-9.457 2.518-14.186-1.663-.008-3.327 0-4.99 0 .265-1.53.554-3.055.846-4.578zM90.623 54.092c2.423 0 4.846-.01 7.27.005a8.927 8.927 0 0 1 3.958.793 3.8 3.8 0 0 1 2.047 3.488 6.975 6.975 0 0 1-4.14 6.129c1.292 1.5 1.912 3.423 2.769 5.179q.8-1.271 1.492-2.605c2.356-4.335 4.741-8.654 7.1-12.989 1.919.005 3.841-.021 5.763.015 1.046 6.259 2.234 12.5 3.365 18.742-1.95.023-3.9 0-5.853.01-.189-1.3-.383-2.59-.573-3.885-1.737.008-3.475-.005-5.212.008-.589 1.321-1.313 2.569-1.914 3.882-2.966.013-5.934-.008-8.9.008-.709-1.638-1.413-3.278-2.132-4.911-.33-.814-.757-1.725-1.732-1.878-.548 2.236-.826 4.527-1.277 6.784-1.794-.016-3.587 0-5.381-.011 1.123-6.254 2.211-12.513 3.352-18.764m4.624 4.33c-.195 1.149-.417 2.292-.635 3.436.939-.013 2.035.1 2.761-.627a1.921 1.921 0 0 0 .52-2.374c-.709-.658-1.771-.364-2.646-.435m15.45 6.164h2.529c-.131-1.31-.407-2.6-.492-3.915-.736 1.274-1.358 2.61-2.036 3.915zM138.126 54.079c1.8.039 3.606-.031 5.405.044-.464 2.106-.735 4.253-1.188 6.364q2.757-3.141 5.407-6.369c5.87-.075 11.743 0 17.613-.036-.32 1.525-.478 3.076-.837 4.593-2.049-.021-4.1.005-6.151-.018-.149.819-.294 1.64-.463 2.454 1.906.031 3.81.01 5.716.01-.141 1.528-.537 3.017-.739 4.537-1.914.036-3.828.018-5.742.008-.172.865-.333 1.732-.517 2.595 2.208.028 4.416.007 6.625.012-.31 1.518-.6 3.043-.806 4.581q-8.875.015-17.749 0c-1.113-2.242-2.206-4.5-3.362-6.715-.407 2.239-.755 4.486-1.195 6.72-1.8-.01-3.59 0-5.384-.008 1.131-6.256 2.221-12.523 3.367-18.777m7.943 9.071c1.6 2.738 3.1 5.53 4.616 8.317 1.057-5.573 1.919-11.185 3.048-16.743-2.533 2.83-5.192 5.548-7.664 8.431zM166.563 54.077c2.518.038 5.034-.011 7.552.025a7.694 7.694 0 0 1 4.194 1.116 4.137 4.137 0 0 1 1.351 4.434 7.1 7.1 0 0 1-3.944 4.852c1.868 2.533 2.761 5.617 4.284 8.35-2.1.01-4.2 0-6.3 0q-1.167-2.752-2.38-5.491a1.725 1.725 0 0 0-1.551-1.224c-.412 2.237-.768 4.484-1.192 6.717-1.8 0-3.593-.005-5.389 0 1.143-6.259 2.193-12.536 3.372-18.787m4.614 4.337c-.233 1.144-.456 2.29-.614 3.447a4.683 4.683 0 0 0 2.359-.348 2.21 2.21 0 0 0 1.049-2.444c-.601-.926-1.868-.552-2.791-.647z"/>
    </g>
</svg>
