<svg xmlns="http://www.w3.org/2000/svg" viewBox="-14.17 -14.17 788.84 741.34">
	<path fill="#d91920" d="M433.75 217.923c-.169-14.441-5.19-25.793-15.067-34.049-9.87-8.254-23.582-12.463-41.132-12.622h-76.207v95.732h71.439c19.629-.08 34.672-4.332 45.13-12.74 10.458-8.415 15.733-20.523 15.836-36.321zm263.602 77.32v-48.098c0-76.436-57.73-146.11-143.309-172.057-55.331-21.316-119.274-33.853-185.87-33.853-70.655 0-137.667 13.922-195.39 37.703C93.44 107.44 41.194 174.08 41.194 247.145v48.128c-.92 92.524 105.838 158.925 111.55 162.406 62.36 29.417 136.087 46.594 215.43 46.594 29.158 0 57.576-2.599 84.964-7.328L381.83 312.703h-80.486v130.5h-57.15V125.524H381.83c35.9.145 63.408 8.197 82.521 24.171 19.106 15.981 28.75 39.04 28.931 69.185.087 20.356-4.498 37.383-13.749 51.075-9.26 13.692-23.728 24.767-43.401 33.22l72.346 181.032a526.149 526.149 0 0 0 52.67-18.28l18.422-7.91c71.979-30.903 117.782-93.743 117.782-162.775zM565.899 40.593c97.762 29.64 167.953 110.922 167.953 206.552v48.098c0 86.201-57.033 160.744-139.883 196.316v1.55c-66.232 30.291-143.406 47.664-225.797 47.664-84.686 0-162.77-19.347-230.214-51.22l-1.09-1.452C51.672 443.191 4.692 378.744 4.692 295.243v-48.098c0-91.34 64.036-169.592 154.968-202.257C221.89 19.253 292.85 4.733 368.172 4.733c71.005 0 138.137 12.903 197.727 35.86"/>
	<path fill="none" stroke="#d91920" stroke-miterlimit="3.864" stroke-width="7.327" d="M433.75 217.923c-.169-14.441-5.19-25.793-15.067-34.049-9.87-8.254-23.582-12.463-41.132-12.622h-76.207v95.732h71.439c19.629-.08 34.672-4.332 45.13-12.74 10.458-8.415 15.733-20.523 15.836-36.321z"/>
	<path fill="none" stroke="#d91920" stroke-miterlimit="3.864" stroke-width="7.327" d="M697.352 295.243v-48.098c0-76.436-57.73-146.11-143.309-172.057-55.331-21.316-119.274-33.853-185.87-33.853-70.655 0-137.667 13.922-195.39 37.703C93.44 107.44 41.194 174.08 41.194 247.145v48.128c-.92 92.524 105.838 158.925 111.55 162.406 62.36 29.417 136.087 46.594 215.43 46.594 29.158 0 57.576-2.599 84.964-7.328L381.83 312.703h-80.486v130.5h-57.15V125.524H381.83c35.9.145 63.408 8.197 82.521 24.171 19.106 15.981 28.75 39.04 28.931 69.185.087 20.356-4.498 37.383-13.749 51.075-9.26 13.692-23.728 24.767-43.401 33.22l72.346 181.032a526.149 526.149 0 0 0 52.67-18.28l18.422-7.91c71.979-30.903 117.782-93.743 117.782-162.775z"/>
	<path fill="none" stroke="#d91920" stroke-miterlimit="3.864" stroke-width="7.327" d="M565.9 40.592c97.76 29.641 167.952 110.923 167.952 206.553v48.098c0 86.201-57.033 160.744-139.883 196.316v1.55c-66.232 30.291-143.406 47.664-225.797 47.664-84.686 0-162.77-19.347-230.214-51.22l-1.09-1.452C51.672 443.191 4.692 378.744 4.692 295.243v-48.098c0-91.34 64.036-169.592 154.968-202.257C221.89 19.253 292.85 4.733 368.172 4.733c71.005 0 138.137 12.903 197.727 35.86z"/>
	<path fill="#d91920" d="m91.697 710.66-18.128-43.448c10.072-5.324 14.675-13.235 14.675-25.032 0-18.416-10.072-27.48-30.643-27.48H28.826v95.96h15.826v-40.14h14.962l14.963 40.14zM72.56 642.034c0 10.359-5.61 16.258-15.68 16.258H44.65V626.93h12.23c10.502 0 15.68 5.036 15.68 15.105m87.742 68.624v-12.947h-39.707v-30.067h30.643v-12.66h-30.643v-27.622h39.132V614.7H104.77v95.958h55.532m72.077 0L206.772 614.7h-17.84l-27.765 95.958h15.105l5.898-24.026h28.056l6.04 24.026zm-25.319-36.541h-21.724l10.934-43.88zm100.542-12.805c0-30.497-15.25-46.612-44.022-46.612H242v95.958h22.732c9.782 0 16.833-1.582 22.731-5.036 12.802-7.48 20.141-23.593 20.141-44.31zm-16.833 1.296c0 23.306-8.918 35.39-26.326 35.39h-6.618v-70.636h6.618c17.262 0 26.326 12.084 26.326 35.246m83.694-47.908h-15.105l-17.982 39.993-17.553-39.993H306.56l25.465 55.389v40.57h15.825v-40.57l26.614-55.39m64.436 68.194c0-7.338-3.31-14.675-8.488-19.135-4.316-3.74-8.777-6.041-18.27-9.64-15.681-6.04-19.134-8.918-19.134-16.112 0-6.904 5.466-11.94 13.089-11.94 8.634 0 13.238 4.028 16.832 14.818l13.525-4.748c-4.893-16.113-13.954-23.162-29.779-23.162-17.12 0-29.204 11.222-29.204 27.047 0 7.769 3.165 14.818 8.63 19.566 4.604 4.029 7.05 5.178 20.286 10.214 12.227 4.604 16.256 8.487 16.256 15.68 0 8.489-6.041 13.813-15.825 13.813-10.215 0-16.544-5.899-19.134-17.696l-14.1 4.028c4.173 17.839 15.25 26.758 32.946 26.758 19.566 0 32.37-11.652 32.37-29.49m73.075-38.99c0-10.069-3.882-18.845-10.5-23.736-5.466-4.028-11.943-5.468-24.744-5.468h-23.74v95.958h15.825V673.11h8.201c11.652 0 16.833-1.007 22.299-4.027 8.057-4.604 12.66-13.668 12.66-25.177zm-16.687-.287c0 12.229-5.036 16.833-18.557 16.833h-7.915v-33.52h7.915c7.91 0 9.926.433 12.66 2.446 3.74 2.732 5.897 8.056 5.897 14.242m85.292 67.041-25.607-95.958h-17.84l-27.764 95.958h15.105l5.898-24.026h28.054l6.041 24.026zm-25.32-36.541h-21.723l10.935-43.88zm95.508-28.342c-3.022-22.012-13.236-32.8-31.077-32.8-22.586 0-35.1 17.84-35.1 49.777 0 32.226 12.373 49.632 35.1 49.632 17.554 0 27.91-10.79 30.934-31.938l-14.676-2.013c-2.445 15.105-6.906 20.86-15.97 20.86-12.228 0-18.558-11.941-18.558-35.39 0-25.322 5.9-37.837 17.984-37.837 10.071 0 14.387 5.754 16.544 21.867l14.819-2.158m68.463 64.883v-12.947h-39.707v-30.067h30.644v-12.66h-30.644v-27.622h39.131V614.7H663.7v95.958h55.532m21.86-96.538v3.081h-5.207v14.32h-3.66v-14.32h-5.23v-3.081h14.097m13.66 0h5.229v17.402h-3.388v-11.77c0-.339.004-.811.012-1.418.008-.613.01-1.086.012-1.416l-3.295 14.604h-3.53l-3.27-14.604c0 .33.003.803.012 1.416.008.607.011 1.079.012 1.418v11.77h-3.389V614.12h5.29l3.163 13.683 3.141-13.683"/>
</svg>
