<svg version="1.0" xmlns="http://www.w3.org/2000/svg" width="533.333" height="533.333" viewBox="0 0 400 400">
	<path d="m120.3 77.8-22.2 9.7-.1 5.4c0 8.6 2.9 25.8 6.2 36.1 5.5 17.1 13 29.4 24 39.5 6.8 6.1 20.6 13.5 25.3 13.5 1.6 0 6.7-1.9 11.4-4.1 6.8-3.3 10.1-5.8 16.5-12.3 4.5-4.5 9.6-10.7 11.4-13.8 9-15.2 14.8-34.9 15.8-53.8l.6-10.5-21.8-9.5c-11.9-5.2-22-9.6-22.4-9.8-.4-.1-2.8 6.8-5.4 15.5-2.6 8.7-5.1 16.4-5.6 17.2-.5 1-2-2.7-4.4-10.5-2.1-6.5-4.5-14.2-5.4-17.1l-1.7-5.2-22.2 9.7z"/>
	<path d="M212 144.7c-23.4 37.2-42.6 67.9-42.8 68.4-.2.5 9.4.9 21.8.9h22.2l16.1-14.9c8.9-8.2 17.5-15.9 19-17.1l2.8-2.3 11.7 2.6c25.6 5.7 41.9 6 51.8 1.2 4-2 6.6-4.3 10.7-9.8 6.8-9 13.2-20.2 15.9-28.1 2.6-7.5 3.5-23.7 1.9-31.7-1.4-6.7-5.8-16.1-9.9-21.1l-3-3.8-.4 9.9c-.3 9.2-.6 10.5-4.5 18.2-4.5 9.1-12 17.6-14.7 16.6-1.3-.5-1.2-1.2.5-5.7 1.9-5.1 2.4-11.2 1.3-16.7l-.6-3-3.8 4.1c-2.1 2.2-6.3 5.6-9.4 7.5l-5.6 3.3-7.2-4.3c-4-2.3-11-6.6-15.5-9.5l-8.1-5.3-1.6-6.8c-.8-3.7-2.6-9.8-3.8-13.4l-2.3-6.6-42.5 67.4zm75.5-10.2c5.2 5.1 1.6 14.5-5.5 14.5-3.7 0-9-4.7-9-8 0-7.8 9.1-11.9 14.5-6.5z"/>
	<path d="M50 121c0 2.6 9.7 11.1 16.5 14.7 6.1 3.1 7.3 4.1 7 5.8-.6 2.4-9.5 69.8-9.5 71.4 0 .8 6.1 1.1 19.5 1.1H103l9-13.5c4.9-7.4 9-14 9-14.6 0-.7-9.5-15.7-21.1-33.5L78.8 120H64.4c-9.3 0-14.4.4-14.4 1z"/>
	<path d="M148.5 244.2c-1.2 3.7-13.7 85.9-13.1 86.5 1.5 1.6 24.1 2.6 31.9 1.5 17.7-2.6 22.8-8.9 26.7-33.1 3-19.3 1.9-26-4.6-28.9-3.6-1.7-15.8-1.5-22.6.4-3.2.9-6 1.5-6.2 1.3-.4-.4 2.8-21.7 3.9-26.7.5-2.1.3-2.2-7.5-2.2-5.6 0-8.2.4-8.5 1.2zm28.3 39.4c2.7 1.9 2.8 5.3.7 17.7-2.1 11.5-2.8 13.3-6.7 15.7-4.6 2.8-17.8 2.9-17.8.2.1-4.1 4.8-30.4 5.6-31.2 1.5-1.4 9.7-3.9 12.9-4 1.7 0 4.1.7 5.3 1.6z"/>
	<path d="M215 243.9c0 .4-3.1 20.3-7 44.1-3.8 23.8-7 43.3-7 43.4 0 .1 3.6.1 8 .1 7.7 0 8-.1 8.5-2.5.8-3.7 13.5-83.8 13.5-85 0-.6-3.2-1-8-1-4.4 0-8 .4-8 .9z"/>
	<path d="M0 253.4c0 7.4.1 7.6 2.5 7.6 1.4 0 2.5.6 2.5 1.2 0 .7-1.1 8-2.5 16.1C.5 290.5 0 296.6 0 312v18.8l5.5.4c3 .1 5.5.1 5.5-.1s1-6.4 2.1-13.8l2.2-13.4 7 .3 6.9.3 7.5 13.5 7.4 13.5h10c5.4 0 9.9-.2 9.9-.4s-3.4-6.6-7.5-14.2c-4.1-7.5-7.5-13.9-7.5-14.2 0-.2 2.2-1.8 4.9-3.4 7.1-4.4 9.9-9.8 12.2-23.6 2.3-13.1 1.9-18.4-1.9-22.8-5-6-6.9-6.3-36.9-6.7L0 245.8v7.6zm47.5 9.8c2.7 2.1 2.7 2.4 2.1 9-.7 7.9-2.4 12.4-5.6 15.3-1.9 1.7-3.9 2.1-14.1 2.4-13.9.4-12.8 2.1-9.9-15.4 1.1-6.6 2-12.3 2-12.8 0-.4 5.1-.7 11.4-.7 10.1 0 11.6.2 14.1 2.2z"/>
	<path d="M94.6 270.6c-10.3 3.7-14.9 10.5-17.7 26-2.5 13.9-2.5 22.8 0 27.4 4.1 7.7 16.9 10.6 34.1 7.6 5.2-.9 9.9-2.1 10.3-2.5.5-.5.6-3.2.2-6.1-.6-4.7-.9-5.1-2.9-4.5-1.1.3-6.6.9-12.1 1.2-9.2.5-10.2.4-12.7-1.7-2.4-1.8-2.8-2.9-2.8-7.1V306h17.4c15.8 0 17.5-.2 18-1.8 1.5-5.4 2.7-17.1 2.2-20.9-1.4-10.5-7.1-14.3-21.2-14.2-5.1 0-10.6.7-12.8 1.5zM112 283c2.2 2.2 2.6 7 1 10.1-.9 1.7-2.2 1.9-10 1.9h-9v-3.1c0-6.7 4.3-10.8 11.3-10.9 3.4 0 5.3.6 6.7 2z"/>
	<path d="m247.3 270.1-5.3 1.1v6c0 4.8.3 5.9 1.4 5.5.8-.3 5.3-.9 9.9-1.3 13.2-1 18.7 1.9 17.2 9.2-1.7 8.2-.5 7.4-11.3 7.4-16 0-21.9 2.9-24.7 12.3-4.1 13.7.6 22.8 11.7 22.7 2.8 0 12.2-2.9 18-5.4 1.3-.6 1.9-.2 2.3 1.6.5 2.1 1.1 2.3 7 2.3 3.6 0 6.5-.1 6.5-.2s1.6-9.9 3.5-21.7c4.9-30 4.7-34.3-1.8-38.2-2.7-1.6-5.4-1.9-16.2-2.1-7.1-.1-15.4.3-18.2.8zm19.4 42.6c-.6 5.5-2.2 6.9-8.4 7.9-6.3.9-9.3-.6-9.3-4.9 0-3.5 1.5-6.1 4-7 .8-.3 4.4-.6 7.9-.6l6.4-.1-.6 4.7z"/>
	<path d="M370.6 270.5c-10.3 3.9-14.9 10.7-17.7 26.1-2.5 13.9-2.5 22.8 0 27.4 4.1 7.7 16.9 10.6 34.1 7.6 5.2-.9 9.9-2.1 10.3-2.5.5-.5.6-3.2.2-6.1-.6-4.7-.9-5.1-2.9-4.5-1.1.3-6.6.9-12.1 1.2-9.2.5-10.2.4-12.7-1.7-2.4-1.8-2.8-2.9-2.8-7.1V306h33v-33l-2.7-1.7c-3.7-2.4-21-2.9-26.7-.8zM388 283c2.2 2.2 2.6 7 1 10.1-.9 1.7-2.2 1.9-10 1.9h-9v-3.1c0-6.7 4.3-10.8 11.3-10.9 3.4 0 5.3.6 6.7 2z"/>
	<path d="M301 272.2c0 1.3-.3 3.9-.6 5.8l-.6 3.5 13.6-.3c7.5-.2 13.6.1 13.6.5s-4.8 6-10.6 12.3c-24.4 26.6-23.1 24.9-23.9 31.5l-.6 6 23.2-.2c12.7-.1 23.3-.4 23.4-.5.1-.2.5-2.7.9-5.6l.7-5.2H326c-7.7 0-14-.3-14-.6s7.1-8.3 15.8-17.8c8.6-9.4 16.2-17.8 16.9-18.6.6-.8 1.4-4.1 1.8-7.3l.7-5.7H301v2.2z"/>
</svg>
