<svg xmlns="http://www.w3.org/2000/svg" width="200" height="128">
	<path d="M29.08 30.71c3.48 0 6.05.65 7.72 1.93a6.92 6.92 0 0 1 2.5 5.84 6.74 6.74 0 0 1-2.61 5.57 10.71 10.71 0 0 1-2.46 1.46l7.58 11.62h-5.33L30.16 46.7h-3.85v10.43h-4.74V30.71zm-.29 4h-2.48v8.14h2.63a6.78 6.78 0 0 0 4.25-1.05 3.81 3.81 0 0 0 1.3-3.13 3.38 3.38 0 0 0-1.39-3.05 8.08 8.08 0 0 0-4.31-.95zm24.31 2a8.54 8.54 0 0 1 6.38 2.4 9.18 9.18 0 0 1 2.35 6.7v2.37H48.58a6.15 6.15 0 0 0 1.52 4.24 5.31 5.31 0 0 0 4 1.49 14.75 14.75 0 0 0 3.47-.38 19.1 19.1 0 0 0 3.19-1.13v3.73a13.64 13.64 0 0 1-3.08 1 19 19 0 0 1-3.81.33 11.51 11.51 0 0 1-5.21-1.12A8.2 8.2 0 0 1 45.12 53a11.58 11.58 0 0 1-1.27-5.72c0-3.42.84-6 2.53-7.84a8.78 8.78 0 0 1 6.72-2.73zm0 3.44a4.08 4.08 0 0 0-3.1 1.2 5.67 5.67 0 0 0-1.35 3.57h8.62a5.66 5.66 0 0 0-1.05-3.42 3.7 3.7 0 0 0-3.12-1.35zM71.19 29v6.66c0 .79 0 1.56-.08 2.3S71 39.29 71 39.71h.22a7.31 7.31 0 0 1 11.52-.37q2.17 2.63 2.17 7.73t-2.21 7.81A7.11 7.11 0 0 1 77 57.5a7 7 0 0 1-3.61-.81 7.43 7.43 0 0 1-2.16-1.89h-.33l-.9 2.33h-3.47V29zm4.55 11.47A3.91 3.91 0 0 0 72.22 42a8.83 8.83 0 0 0-1 4.66v.41a10 10 0 0 0 1 4.92c.65 1.13 1.87 1.7 3.64 1.7A3.56 3.56 0 0 0 79 52a9.13 9.13 0 0 0 1.11-5A8.73 8.73 0 0 0 79 42.11a3.72 3.72 0 0 0-3.26-1.63zm31.86 6.6c0 3.33-.87 5.9-2.59 7.71a9.23 9.23 0 0 1-7 2.72 9.65 9.65 0 0 1-4.89-1.22 8.48 8.48 0 0 1-3.36-3.55 12 12 0 0 1-1.22-5.66c0-3.33.85-5.89 2.57-7.68a9.24 9.24 0 0 1 7-2.68 9.91 9.91 0 0 1 4.92 1.2 8.49 8.49 0 0 1 3.37 3.52 12 12 0 0 1 1.2 5.64zm-14.32 0A9 9 0 0 0 94.41 52a4.67 4.67 0 0 0 7.27 0 9 9 0 0 0 1.14-4.92 8.8 8.8 0 0 0-1.14-4.89A4.12 4.12 0 0 0 98 40.48a4 4 0 0 0-3.62 1.7 9 9 0 0 0-1.1 4.89zm37.03 0q0 5-2.59 7.71a9.19 9.19 0 0 1-7 2.72 9.65 9.65 0 0 1-4.89-1.22 8.57 8.57 0 0 1-3.37-3.55 12.11 12.11 0 0 1-1.22-5.66q0-5 2.57-7.68a9.28 9.28 0 0 1 7-2.68 9.91 9.91 0 0 1 4.92 1.2 8.4 8.4 0 0 1 3.36 3.52 11.87 11.87 0 0 1 1.22 5.64zm-14.31 0a9.05 9.05 0 0 0 1.12 4.93 4.67 4.67 0 0 0 7.27 0 8.86 8.86 0 0 0 1.15-4.92 8.71 8.71 0 0 0-1.15-4.89 4.09 4.09 0 0 0-3.66-1.7 4 4 0 0 0-3.62 1.7 9 9 0 0 0-1.11 4.88zm26.89 6.7a8.73 8.73 0 0 0 1.69-.17 14.2 14.2 0 0 0 1.53-.39v3.48a7.29 7.29 0 0 1-1.92.59 13.3 13.3 0 0 1-2.48.22 8.39 8.39 0 0 1-3.13-.55 4.48 4.48 0 0 1-2.2-2 8 8 0 0 1-.81-4V40.59h-2.7v-2l3-1.63 1.48-4.25h2.92v4.4h5.7v3.51h-5.7V51a2.66 2.66 0 0 0 .76 2.09 2.71 2.71 0 0 0 1.86.68zM29.08 66.71c3.48 0 6.05.65 7.72 1.93a7.38 7.38 0 0 1-.11 11.41 10.71 10.71 0 0 1-2.46 1.46l7.58 11.62h-5.33L30.16 82.7h-3.85v10.43h-4.74V66.71zm-.29 4h-2.48v8.14h2.63a6.78 6.78 0 0 0 4.25-1 3.81 3.81 0 0 0 1.3-3.13 3.38 3.38 0 0 0-1.39-3 8.08 8.08 0 0 0-4.31-1.05zm24.31 2a8.54 8.54 0 0 1 6.38 2.4 9.18 9.18 0 0 1 2.35 6.7v2.37H48.58a6.15 6.15 0 0 0 1.52 4.24 5.27 5.27 0 0 0 4 1.49 14.75 14.75 0 0 0 3.47-.38 19.1 19.1 0 0 0 3.19-1.13v3.73a13.64 13.64 0 0 1-3.08 1 19 19 0 0 1-3.81.33 11.51 11.51 0 0 1-5.21-1.12A8.2 8.2 0 0 1 45.12 89a11.58 11.58 0 0 1-1.27-5.72c0-3.42.84-6 2.53-7.84a8.78 8.78 0 0 1 6.72-2.73zm0 3.44a4.08 4.08 0 0 0-3.1 1.2 5.67 5.67 0 0 0-1.35 3.57h8.62a5.66 5.66 0 0 0-1.05-3.42 3.7 3.7 0 0 0-3.12-1.35zM79.07 102v-9.98a11.35 11.35 0 0 1 .15-1.51H79a7.36 7.36 0 0 1-11.54.38c-1.43-1.73-2.15-4.32-2.15-7.75s.74-6 2.2-7.79a7.07 7.07 0 0 1 5.68-2.64 6.94 6.94 0 0 1 3.7.87 7.72 7.72 0 0 1 2.3 2.13h.15l.48-2.63h3.88V102zm-4.48-12.2a4.06 4.06 0 0 0 3.59-1.48 8.2 8.2 0 0 0 1.11-4.47v-.67a9.68 9.68 0 0 0-1-5 4 4 0 0 0-3.74-1.7 3.62 3.62 0 0 0-3.33 1.76 9.46 9.46 0 0 0-1.07 4.94 9 9 0 0 0 1.09 4.9 3.73 3.73 0 0 0 3.35 1.72zm32.9-16.72v20h-3.67l-.63-2.59H103a5.54 5.54 0 0 1-2.66 2.26 9.3 9.3 0 0 1-3.59.7 7.51 7.51 0 0 1-5.27-1.74q-1.9-1.74-1.91-5.58V73.08h4.63v12.17a5.34 5.34 0 0 0 .89 3.37 3.38 3.38 0 0 0 2.81 1.11c1.88 0 3.17-.59 3.87-1.78a10 10 0 0 0 1-5.07v-9.8zm8.28-7.73a3.19 3.19 0 0 1 1.82.53 2.16 2.16 0 0 1 .77 1.91 2.19 2.19 0 0 1-.77 1.92 3.07 3.07 0 0 1-1.82.56 3 3 0 0 1-1.83-.56 2.24 2.24 0 0 1-.76-1.92 2.21 2.21 0 0 1 .76-1.91 3.16 3.16 0 0 1 1.83-.53zm2.34 7.73v20h-4.67v-20zm16.46-.37c.32 0 .68 0 1.07.05s.72.08 1 .13l-.4 4.33c-.25 0-.55-.09-.91-.13s-.66 0-.91 0a6.37 6.37 0 0 0-2.77.61 5 5 0 0 0-2.09 1.87 5.93 5.93 0 0 0-.8 3.22v10.34h-4.66v-20h3.59l.67 3.48h.22a8.31 8.31 0 0 1 2.42-2.77 5.9 5.9 0 0 1 3.57-1.13zm13.06 0a8.5 8.5 0 0 1 6.38 2.4 9.18 9.18 0 0 1 2.35 6.7v2.37h-13.24a6.14 6.14 0 0 0 1.51 4.24 5.3 5.3 0 0 0 4 1.49 14.9 14.9 0 0 0 3.48-.38 19.33 19.33 0 0 0 3.18-1.13v3.73a13.56 13.56 0 0 1-3.07 1 19 19 0 0 1-3.81.33 11.56 11.56 0 0 1-5.22-1.12 8.23 8.23 0 0 1-3.53-3.34 11.58 11.58 0 0 1-1.28-5.72c0-3.42.85-6 2.54-7.84a8.75 8.75 0 0 1 6.71-2.73zm0 3.44a4.06 4.06 0 0 0-3 1.2 5.56 5.56 0 0 0-1.35 3.57h8.62a5.73 5.73 0 0 0-1.06-3.42 3.69 3.69 0 0 0-3.21-1.35zm20.05 17.35a7 7 0 0 1-5.68-2.61c-1.44-1.73-2.16-4.32-2.16-7.75s.72-6 2.18-7.8a7.08 7.08 0 0 1 5.74-2.63 7 7 0 0 1 3.64.85 7.37 7.37 0 0 1 2.28 2.07h.22a13.61 13.61 0 0 1-.22-1.57 17.89 17.89 0 0 1-.12-2V65h4.67v28.13h-3.63l-.85-2.62h-.19a7.39 7.39 0 0 1-2.25 2.12 6.9 6.9 0 0 1-3.63.87zm1.41-3.77a4.15 4.15 0 0 0 3.64-1.48 7.91 7.91 0 0 0 1.1-4.48v-.59a9.78 9.78 0 0 0-1-4.94c-.68-1.15-1.94-1.72-3.79-1.72a3.67 3.67 0 0 0-3.28 1.76 9.14 9.14 0 0 0-1.13 4.94 8.54 8.54 0 0 0 1.15 4.84 3.78 3.78 0 0 0 3.31 1.67z"/>
</svg>
