<svg xmlns="http://www.w3.org/2000/svg" viewBox="-15.2 -15.2 790.4 137.9">
	<path fill="#d72f23" fill-rule="evenodd" d="M6.958.009h93.995a6.958 6.958 0 0 1 6.958 6.957v93.997a6.957 6.957 0 0 1-6.958 6.956H53.955C24.157 107.92 0 83.763 0 53.965V6.966A6.958 6.958 0 0 1 6.958.01zM23.161 18.53a4.638 4.638 0 0 0-4.639 4.639v31.198c0 19.792 16.045 35.836 35.837 35.836h31.197a4.638 4.638 0 0 0 4.638-4.638V23.169a4.638 4.638 0 0 0-4.638-4.639H23.16"/>
	<path fill="#193137" d="M680.024 19.885c5.795 0 10.496 4.692 10.51 10.486l.011 6.666c.003 2.508-2.018 4.724-4.525 4.744h-18.9c-1.543.063-2.129.804-2.129 2.053 0 1.16.7 1.785 2.128 1.785 1.131 0 13.712-.1 19.773-.15a3.473 3.473 0 0 1 3.505 3.435c.027 2.115.054 7.266.068 10.768a3.504 3.504 0 0 1-3.502 3.517h-19.844c-1.337 0-2.284 1.249-2.236 2.229.07 1.395 1.675 1.895 2.236 1.883 1.55-.034 19.386 0 19.386 0 2.65.14 4.362 2.23 4.362 3.836v5.53c0 5.826-4.723 10.549-10.55 10.549H643.29c-8.154 0-14.76-6.607-14.753-14.76.019-16.883.046-42.985.05-50.254 0-.968.786-2.317 1.756-2.317h49.682M172.868 50.427c-.176 1.249-.087 2.319.09 3.657.179 1.338.823 2.096 1.875 1.873 2.564-.546 5.53-1.873 5.53-1.873 1.426-.801 1.963-.892 1.963-3.39 0-.891-.612-1.784-1.681-1.784h-5.277c-1.162 0-2.32.268-2.5 1.517zm30.146-30.542c5.823 0 10.54 4.722 10.533 10.546l-.035 17.848c0 4.174-.381 7.716-2.188 8.927-2.921 1.957-4.1 2.477-4.1 4.439 0 1.656 1.377 2.444 2.648 5.12.272.572.6 1.116.941 1.653 1.776 2.791 6.579 10.738 6.579 15.1 0 1.784-1.339 3.677-3.836 3.677h-26.322c-3.212 0-3.93-.603-4.616-1.965-1.13-2.242-4.128-7.956-4.128-7.956-.98-1.516-1.517-2.052-3.032-1.427-.804.357-1.338.536-1.338 1.963 0 3.21.132 3.53.132 5.758 0 2.23-.58 3.627-2.543 3.627-.523 0-8.913.02-16.952.02-8.155 0-14.764-6.613-14.747-14.77l.1-50.818a1.741 1.741 0 0 1 1.752-1.742h61.152m69.11 0c5.794 0 10.496 4.692 10.508 10.486.004 1.856.009 4.443.012 6.666.002 2.508-2.018 4.724-4.524 4.744h-18.902c-1.542.063-2.128.804-2.128 2.053 0 1.16.7 1.784 2.128 1.784 1.131 0 13.713-.099 19.772-.149a3.475 3.475 0 0 1 3.507 3.435c.025 2.115.052 7.266.067 10.768a3.502 3.502 0 0 1-3.503 3.517h-19.843c-1.34 0-2.284 1.249-2.235 2.229.07 1.395 1.673 1.895 2.235 1.883 1.549-.034 19.386 0 19.386 0 2.649.14 4.362 2.23 4.362 3.836v5.53c0 5.826-4.724 10.549-10.55 10.549h-37.029c-8.153 0-14.76-6.607-14.751-14.76.017-16.883.044-42.984.05-50.254 0-.968.784-2.317 1.754-2.317h49.684M321.152 56c-.133 2.315 2.185 2.565 3.653 2.565 2.052 0 5.353-1.796 5.353-3.58v-2.13c0-2.677-3.034-4.015-5.263-4.015-3.762 0-3.714 1.15-3.743 4.66-.019.834.019 1.666 0 2.5zm18.424-36.07c11.6-.02 21.026 9.336 21.1 20.934.034 5.52.059 15.784.054 25.29-.007 11.634-9.436 21.058-21.07 21.056l-36.385.003c-8.157.002-14.766-6.617-14.754-14.774l.076-50.456c.001-.977.801-2.118 1.777-2.1 5.508.105 30.598.081 49.202.048m76.428.016c2.382.032 3.07 2.223 3.122 4.363.038 1.63.01 2.688.038 5.443.024 2.406.123 2.842 1.57 3.11 1.407.262 2.32.267 3.48-2.317 1.603-3.563 2.16-5.553 3.045-7.5.706-1.556 1.325-3.189 3.468-3.1 2.23.09 22.75-.178 27.659 0 2.232.09 4.193 2.315 4.104 5.344-.088 4.01-9.497 20.014-11.01 22.343-1.547 2.384-2.197 3.403-2.197 5.631 0 1.78.964 2.833 2.518 5.703 2.026 3.744 5.26 9.544 8.236 15.416.088.174.165.364.229.55 1.124 3.278 2.136 3.373 2.136 6.84 0 2.226-1.784 5.313-4.016 5.401-2.232.089-23.736 0-27.214 0-3.208 0-5.355-6.738-7.407-10.658-1.338-2.495-2.229-2.316-3.212-1.871-.98.446-1.435 1.157-1.427 2.673.004.702-.022 4.918-.022 6.254 0 2.02-1.244 3.612-2.832 3.602 0 0-8.702.015-17.102.013-8.148 0-14.752-6.605-14.752-14.752V22.03c0-.957.768-2.075 1.728-2.083h29.858m169.49 26.778c3.926-1.068 4.374-2.316 4.374-4.098 0-.893-.732-1.888-1.804-1.888-.89 0-2.035.016-2.925.016-1.787 0-1.963 1.07-1.963 2.762 0 2.496.356 3.744 2.319 3.208zm.618 20.288c.443.01 1.341 0 1.855 0 1.342 0 1.96-1.297 1.96-2.19 0-1.87-.684-2.856-4.788-3.746-1.796-.431-1.895.302-1.895 2.23 0 2.834.808 3.664 2.868 3.706zm35.966-36.512v11.679s-.355 4.81-5.647 9.216c-.041.034-.09.072-.136.103-1.722 1.209-2.07 1.564-2.07 2.268 0 .624.089 1.07 2.23 1.962 5.888 2.495 5.864 3.618 5.864 7.331l.065 13.57c.027 5.836-4.695 10.58-10.53 10.58h-47.119c-8.146 0-14.751-6.604-14.751-14.753V21.734c0-.958.77-1.775 1.729-1.784 7.473-.067 42.081-.036 59.82-.014 5.83.007 10.545 4.736 10.545 10.566m127.365-10.615c5.833 0 10.562 4.73 10.562 10.563v14.928c.179 1.76-1.07 3.888-4.563 3.19-.64-.128-11.945-3.213-11.945-3.213-1.464-.419-2.677-.804-3.213.087-.622.982-.445 1.786.984 2.589 0 0 13.061 9.179 15.436 10.884 2.509 1.804 3.205 4 3.301 7.407v10.353c0 5.823-4.721 10.543-10.544 10.543h-38.928c-8.135 0-14.737-6.583-14.752-14.717-.01-4.555-.038-8.733-.108-10.105-.088-1.606 2.142-3.213 3.568-3.213l10.797 2.945c2.052.892 2.946.892 3.48 0 .445-.713.583-.99-1.516-3.213L700.49 48.3c-4.546-4.06-4.729-6.514-4.729-13.652V22.113c0-.963.78-2.225 1.743-2.226h51.939m-251.163.192c2.73-.008 4.36 2.679 4.36 5.074v27.521a3.536 3.536 0 0 0 3.527 3.546h.803c1.94 0 3.51-1.583 3.505-3.534-.022-7.674-.08-25.412-.08-30.866 0-.968.78-1.741 1.743-1.741h24.39c5.55.01 7.098 3.902 7.098 9.735v47.043c0 5.824-4.686 10.545-10.477 10.549-9.774.005-34.277.006-50.214.006-8.099.002-14.663-6.59-14.668-14.736-.015-17.797-.039-45.927-.061-50.474-.004-.969.77-2.122 1.736-2.123h28.338"/>
</svg>
