<svg xmlns="http://www.w3.org/2000/svg" viewBox="-16.36 -16.36 850.72 287.22">
	<path fill="#ee382d" d="M195.955.004c-12.08 0-21.847 9.793-21.847 21.887 0 12.058 9.766 21.836 21.847 21.836 12.058 0 21.849-9.778 21.849-21.836 0-12.094-9.79-21.887-21.849-21.887m-47.92 91.952 27.3-35.936a5.558 5.558 0 0 0 .29-6.304L164.03 31.111a5.562 5.562 0 0 0-4.758-2.618l-50.045.349-27.438-.02c-2.148-.001-3.102 2.699-1.43 4.048l7.689 6.2a8.424 8.424 0 0 0 3.727 1.721l47.658 8.978-58.953 63.358-77.593 11.021c-2.686.382-3.833 3.628-1.982 5.613l7.578 8.126a7.758 7.758 0 0 0 5.808 2.47l74.905-1.23a15.597 15.597 0 0 0 7.856-2.273L115 125.924l37.879 30.065a7.375 7.375 0 0 1 2.724 4.787l7.21 53.09a5.05 5.05 0 0 0 5.004 4.37h3.859a5.05 5.05 0 0 0 5.049-5.03l.22-58.918a14.085 14.085 0 0 0-2.772-8.444L141.124 101.3l6.911-9.343"/>
	<path fill="#153b43" d="M339.38 77.798c0-10.842-8.478-17.545-19.517-17.545h-29.57v35.485h29.57c11.04 0 19.517-6.704 19.517-17.94zm-2.76 89.303-25.825-46.723h-20.502v46.723h-27.994V35.611h61.508c27.4 0 44.354 17.938 44.354 42.384 0 23.064-14.786 35.68-28.979 39.033l29.769 50.073H336.62m52.432 0V35.611h93.05v24.642h-65.056v27.6h63.675v24.642h-63.675v29.964H482.1v24.642h-93.05M581.06 77.995c0-11.04-8.477-17.742-19.517-17.742h-29.571V95.54h29.571c11.04 0 19.517-6.702 19.517-17.545zm-77.08 89.106V35.611h61.506c28.584 0 44.158 19.318 44.158 42.384 0 22.868-15.771 42.187-44.158 42.187H531.97v46.92h-27.993m122.024 0V35.611h28.191v106.847h55.593v24.642h-83.784m114.337 0v-53.818L689.872 35.61h31.937l32.527 52.635 32.527-52.635h31.74l-50.27 77.672V167.1h-27.994"/>
	<path fill="#ee382d" d="M294.463 216.93c0-5.258-3.942-8.625-9.363-8.625h-13.223v17.412H285.1c5.42 0 9.363-3.45 9.363-8.787zm-.904 37.697-12.073-20.45h-9.609v20.45h-9.609v-54.781h24.064c10.842 0 17.987 6.98 17.987 17.165 0 9.693-6.406 15.031-13.06 16.098l13.47 21.518h-11.17m20.373 0v-54.781h37.534v8.46H323.54v14.126h27.35v8.46h-27.35v15.275h27.925v8.46h-37.534m86.569-27.431c0-10.513-6.57-18.89-18.727-18.89h-10.84v37.861h10.76c11.907 0 18.807-8.541 18.807-18.971zm-39.177 27.431v-54.781h20.37c17.164 0 28.662 11.334 28.662 27.35 0 16.18-11.498 27.431-28.582 27.431h-20.45"/>
</svg>
