<svg xmlns="http://www.w3.org/2000/svg" xml:space="preserve" width="818.627" height="254.627">
	<path d="M1469.7 1909.72c-90.61 0-163.86-73.45-163.86-164.16 0-90.43 73.25-163.77 163.86-163.77 90.44 0 163.87 73.34 163.87 163.77 0 90.71-73.43 164.16-163.87 164.16" style="fill:#ee382d;fill-opacity:1;fill-rule:nonzero;stroke:none" transform="matrix(.13333 0 0 -.13333 0 254.627)"/>
	<path d="m1110.29 1220.06 204.75 269.53a41.683 41.683 0 0 1 2.18 47.28l-86.96 139.54a41.713 41.713 0 0 1-35.68 19.64l-375.346-2.62-205.793.15c-16.109.01-23.269-20.24-10.726-30.36l57.668-46.5a63.18 63.18 0 0 1 27.957-12.91l357.44-67.34-442.159-475.19-581.957-82.663C1.516 975.754-7.09 951.406 6.793 936.52l56.836-60.95a58.189 58.189 0 0 1 43.566-18.519l561.797 9.219a116.982 116.982 0 0 1 58.922 17.05l134.609 81.973 284.097-225.492a55.313 55.313 0 0 0 20.43-35.903l54.08-398.179c2.55-18.778 18.58-32.778 37.53-32.778h28.94c20.86 0 37.79 16.868 37.87 37.731l1.65 441.887c.09 22.8-7.21 45.019-20.79 63.332l-247.87 334.099 51.83 70.07" style="fill:#ee382d;fill-opacity:1;fill-rule:nonzero;stroke:none" transform="matrix(.13333 0 0 -.13333 0 254.627)"/>
	<path d="M2545.41 1326.25c0 81.32-63.58 131.59-146.38 131.59h-221.78V1191.7h221.78c82.8 0 146.38 50.28 146.38 134.55zm-20.7-669.789-193.69 350.429h-153.77V656.461h-209.96v986.199h461.32c205.51 0 332.67-134.54 332.67-317.89 0-172.98-110.9-267.61-217.35-292.75l223.27-375.559h-242.49" style="fill:#153b43;fill-opacity:1;fill-rule:nonzero;stroke:none" transform="matrix(.13333 0 0 -.13333 0 254.627)"/>
	<path d="M2917.96 656.461v986.199h697.89v-184.82h-487.93v-207h477.58v-184.82h-477.58V841.281h487.93v-184.82h-697.89" style="fill:#153b43;fill-opacity:1;fill-rule:nonzero;stroke:none" transform="matrix(.13333 0 0 -.13333 0 254.627)"/>
	<path d="M4358.05 1324.77c0 82.8-63.58 133.07-146.38 133.07h-221.79v-264.66h221.79c82.8 0 146.38 50.27 146.38 131.59zm-578.12-668.309v986.199h461.31c214.39 0 331.2-144.89 331.2-317.89 0-171.51-118.29-316.41-331.2-316.41h-251.36V656.461h-209.95" style="fill:#153b43;fill-opacity:1;fill-rule:nonzero;stroke:none" transform="matrix(.13333 0 0 -.13333 0 254.627)"/>
	<path d="M4695.13 656.461v986.199h211.44V841.281h416.96v-184.82h-628.4" style="fill:#153b43;fill-opacity:1;fill-rule:nonzero;stroke:none" transform="matrix(.13333 0 0 -.13333 0 254.627)"/>
	<path d="M5552.68 656.461v403.649l-378.51 582.55h239.53l243.96-394.77 243.96 394.77h238.05l-377.03-582.55V656.461h-209.96" style="fill:#153b43;fill-opacity:1;fill-rule:nonzero;stroke:none" transform="matrix(.13333 0 0 -.13333 0 254.627)"/>
	<path d="M2208.53 282.738c0 39.434-29.57 64.684-70.23 64.684h-99.17V216.828h99.17c40.66 0 70.23 25.883 70.23 65.91zM2201.75 0l-90.55 153.379h-72.07V0h-72.07v410.871h180.48c81.32 0 134.91-52.359 134.91-128.742 0-72.699-48.05-112.738-97.95-120.738L2285.53 0h-83.78" style="fill:#ee382d;fill-opacity:1;fill-rule:nonzero;stroke:none" transform="matrix(.13333 0 0 -.13333 0 254.627)"/>
	<path d="M2354.55 0v410.871h281.51v-63.449h-209.44V241.469h205.13V178.02h-205.13V63.45h209.44V0h-281.51" style="fill:#ee382d;fill-opacity:1;fill-rule:nonzero;stroke:none" transform="matrix(.13333 0 0 -.13333 0 254.627)"/>
	<path d="M3003.83 205.738c0 78.852-49.28 141.684-140.45 141.684h-81.31V63.449h80.7c89.31 0 141.06 64.063 141.06 142.289zM2710 0v410.871h152.77c128.74 0 214.98-85.012 214.98-205.133C3077.75 84.391 2991.51 0 2863.38 0H2710" style="fill:#ee382d;fill-opacity:1;fill-rule:nonzero;stroke:none" transform="matrix(.13333 0 0 -.13333 0 254.627)"/>
</svg>
