<svg xmlns="http://www.w3.org/2000/svg" viewBox="-81.1 -81.1 4217.2 2157.2">
	<g data-name="Layer 1-2">
		<path d="M0 584.4c0 26.9 14.8 53.7 44.3 74.1L739 1138c59.1 40.8 155.8 40.8 214.9 0l694.8-479.3c29.6-20.4 44.3-47.3 44.3-74.1v828.1c0 26.9-14.8 53.7-44.3 74.1l-694.8 479.3c-59.1 40.8-155.8 40.8-214.9 0L44.3 1486.7C14.8 1466.3 0 1439.4 0 1412.5z"/>
		<path fill="#0f6fff" d="M0 584.4c0 26.9 14.8 53.7 44.3 74.1l492.7 340 202.1-139.4c59.1-40.8 155.8-40.8 214.9 0l202 139.5 492.7-339.9c29.6-20.4 44.3-47.3 44.3-74.1v-.4c0-26.9-14.8-53.8-44.3-74.1L954 30.6c-59.1-40.8-155.8-40.8-214.9 0L44.3 509.9C14.8 530.3 0 557.2 0 584z"/>
		<g style="isolation:isolate">
			<path d="M1825.78 587.44h-33.6v-279.2h111.2q36.797 0 57.4 20.4 20.596 20.4 20.6 58.8 0 30.806-14.2 50.6-14.203 19.8-41.8 26.2l64 123.2h-38l-60.4-120h-65.2zm77.6-148.8q19.996 0 31-10.4 10.996-10.396 11-29.6v-20.8q0-19.2-11-29.6-11.007-10.396-31-10.4h-77.6v100.8z"/>
			<path d="M2116.58 592.24q-21.206 0-38.2-7.6a82.247 82.247 0 0 1-29.2-21.8 99.93 99.93 0 0 1-18.8-34q-6.6-19.8-6.6-44.6 0-24.394 6.6-44.4a99.705 99.705 0 0 1 18.8-34.2 82.385 82.385 0 0 1 29.2-21.8q16.996-7.593 38.2-7.6 20.794 0 37.2 7.575a82.464 82.464 0 0 1 28 20.932 93.303 93.303 0 0 1 17.8 31.688 125.084 125.084 0 0 1 6.2 40.255v15.15h-148.4v9.6a70.59 70.59 0 0 0 4.2 24.6 58.406 58.406 0 0 0 12 19.8 54.813 54.813 0 0 0 19.2 13.2 65.927 65.927 0 0 0 25.8 4.8q19.594 0 34.2-9.2 14.596-9.197 22.6-26.4l22.8 16.507q-10.004 21.337-31.2 34.412-21.207 13.078-50.4 13.081zm0-189.2a60.936 60.936 0 0 0-24 4.575 53.946 53.946 0 0 0-18.6 12.92 60.587 60.587 0 0 0-12.2 19.674 68.016 68.016 0 0 0-4.4 24.85v2.782h114v-4.375q0-27.432-15-43.926-15-16.5-39.8-16.5zm273.998 151.182h-1.6q-18.807 38.024-60.4 38.018a78.46 78.46 0 0 1-34.8-7.6 75.476 75.476 0 0 1-26.6-21.6q-11.006-13.997-16.8-34-5.802-19.997-5.8-44.8 0-24.797 5.8-44.8 5.795-19.996 16.8-34a75.611 75.611 0 0 1 26.6-21.6 78.46 78.46 0 0 1 34.8-7.6q21.6 0 37 9.307 15.394 9.309 23.4 28.712h1.6V291.44h32v296h-32zm-53.2 9.619a74.347 74.347 0 0 0 20.6-2.813 51.576 51.576 0 0 0 17-8.244 40.176 40.176 0 0 0 11.4-13.263 37.301 37.301 0 0 0 4.2-17.893V444.44a31.811 31.811 0 0 0-4.2-15.88 39.64 39.64 0 0 0-11.4-12.664 57.603 57.603 0 0 0-17-8.237 69.603 69.603 0 0 0-20.6-3.018q-27.207 0-42.8 17.087-15.599 17.081-15.6 44.825v35.375q0 27.75 15.6 44.83 15.6 17.082 42.8 17.083zm425.592-109.2h-141.2v132.8h-33.6v-279.2h33.6V425.04h141.2v-116.8h33.6v279.2h-33.6zm254.794 132.8q-18 0-25.8-9.6-7.8-9.6-9.8-24h-2q-6.807 19.2-22.4 28.8-15.6 9.599-37.2 9.6-32.803 0-51-16.8-18.207-16.8-18.2-45.6 0-29.195 21.4-44.801 21.394-15.6 66.6-15.6h40.8v-20.4q0-21.993-12-33.6-12-11.597-36.8-11.6-18.806 0-31.4 8.4a69.232 69.232 0 0 0-21 22.4l-19.2-18q8.4-16.8 26.8-28.6 18.393-11.793 46.4-11.8 37.594 0 58.4 18.362 20.794 18.358 20.8 51.088v113.35h23.6v28.4zm-92-22.401a81.343 81.343 0 0 0 22-2.8 53.837 53.837 0 0 0 17.2-8 39.58 39.58 0 0 0 11.2-12 28.699 28.699 0 0 0 4-14.8v-34h-42.4q-27.6 0-40.2 8-12.6 8.007-12.6 23.2v8.4q0 15.207 11 23.6 10.996 8.4 29.8 8.4zm201.198 22.4q-16.799 0-25.4-9.375-8.605-9.375-8.6-24.55V409.44h-34v-28.4h19.2q10.398 0 14.2-4.2 3.797-4.2 3.8-14.6v-38.4h28.8v57.2h45.2v28.4h-45.2v149.6h42v28.4z"/>
		</g>
		<path d="M1896.58 1132.74q-27.206 0-49-9.4a99.8 99.8 0 0 1-37.2-27.6q-15.403-18.196-23.8-45.2-8.4-27-8.4-62.2 0-35.194 8.4-62 8.4-26.795 23.8-45.2a99.044 99.044 0 0 1 37.2-27.8q21.797-9.394 49-9.4 26.794 0 48.8 9.4a98.793 98.793 0 0 1 37.4 27.8q15.393 18.403 23.8 45.2 8.4 26.803 8.4 62 0 35.204-8.4 62.2-8.4 27-23.8 45.2a99.545 99.545 0 0 1-37.4 27.6q-22.004 9.393-48.8 9.4zm0-29.6a84.447 84.447 0 0 0 33.2-6.418 74.136 74.136 0 0 0 26.2-18.47 84.07 84.07 0 0 0 17-28.9q6-16.855 6-37.73V965.06q0-20.87-6-37.731a84.134 84.134 0 0 0-17-28.9 74.205 74.205 0 0 0-26.2-18.463 88.978 88.978 0 0 0-66.4 0 74.1 74.1 0 0 0-26.2 18.462 84.026 84.026 0 0 0-17 28.9q-6 16.857-6 37.732v46.563q0 20.877 6 37.73a83.963 83.963 0 0 0 17 28.9 74.032 74.032 0 0 0 26.2 18.47 84.431 84.431 0 0 0 33.2 6.419zm175.597-181.6h32v33.218h1.6q7.997-19.406 23.4-28.712 15.394-9.3 37-9.306a78.457 78.457 0 0 1 34.8 7.6 75.675 75.675 0 0 1 26.6 21.6q10.997 14.007 16.8 34 5.793 20.007 5.8 44.8 0 24.807-5.8 44.8-5.804 20.007-16.8 34a75.54 75.54 0 0 1-26.6 21.6 78.456 78.456 0 0 1-34.8 7.6q-42 0-60.4-38.018h-1.6v113.218h-32zm85.2 182.8q27.196 0 42.8-17.081 15.6-17.08 15.6-44.831v-35.375q0-27.74-15.6-44.826-15.6-17.08-42.8-17.087a69.57 69.57 0 0 0-20.6 3.019 57.533 57.533 0 0 0-17 8.237 39.64 39.64 0 0 0-11.4 12.663 31.811 31.811 0 0 0-4.2 15.881v77.188a37.301 37.301 0 0 0 4.2 17.894 40.176 40.176 0 0 0 11.4 13.262 51.52 51.52 0 0 0 17 8.244 74.312 74.312 0 0 0 20.6 2.813zm224.394 28.4q-21.206 0-38.2-7.6a82.247 82.247 0 0 1-29.2-21.8 99.93 99.93 0 0 1-18.8-34q-6.6-19.8-6.6-44.6 0-24.394 6.6-44.4a99.705 99.705 0 0 1 18.8-34.2 82.385 82.385 0 0 1 29.2-21.8q16.997-7.593 38.2-7.6 20.794 0 37.2 7.575a82.464 82.464 0 0 1 28 20.932 93.285 93.285 0 0 1 17.8 31.687 125.06 125.06 0 0 1 6.2 40.256v15.15h-148.4v9.6a70.612 70.612 0 0 0 4.2 24.6 58.437 58.437 0 0 0 12 19.8 54.826 54.826 0 0 0 19.2 13.2 65.925 65.925 0 0 0 25.8 4.8q19.593 0 34.2-9.2 14.597-9.197 22.6-26.4l22.8 16.507q-10.003 21.337-31.2 34.412-21.207 13.078-50.4 13.081zm0-189.2a60.943 60.943 0 0 0-24 4.575 53.951 53.951 0 0 0-18.6 12.919 60.587 60.587 0 0 0-12.2 19.675 68.017 68.017 0 0 0-4.4 24.85v2.782h114v-4.375q0-27.433-15-43.926-15-16.5-39.8-16.5zm141.999 184.4v-206.4h32v33.218h1.6q7.593-17.418 21.4-27.718 13.8-10.294 37-10.3 31.996 0 50.6 20.6 18.6 20.606 18.6 58.2v132.4h-32v-127.075q0-55.725-46.8-55.725a71.857 71.857 0 0 0-18.6 2.406 54.139 54.139 0 0 0-16.2 7.22 35.671 35.671 0 0 0-11.4 12.224 34.801 34.801 0 0 0-4.2 17.437v143.513zm308.796 4.8q-34.002 0-58-13a123.047 123.047 0 0 1-40.8-35.8l24.8-20.8q14.795 19.603 32.801 29.8 18 10.2 42.4 10.2 30 0 45.8-14.4 15.796-14.4 15.8-38.4 0-19.997-12-30.8-12-10.799-39.6-17.2l-22.8-5.2q-38.4-8.793-58.6-26.6-20.203-17.794-20.2-50.2 0-18.394 6.8-32.8a65.788 65.788 0 0 1 19-24 85.828 85.828 0 0 1 29.2-14.6 132.249 132.249 0 0 1 37.4-5q31.593 0 54.2 11.6 22.593 11.607 38.2 34l-25.2 18.4a87.022 87.022 0 0 0-28-25.2q-16.407-9.197-40.8-9.2-26.804 0-42.2 11.4-15.403 11.4-15.4 34.2 0 20.006 13 30.2 12.993 10.2 39.4 16.2l22.8 5.2q41.194 9.206 59.6 28 18.394 18.807 18.4 50a88.464 88.464 0 0 1-6.6 34.8 71.407 71.407 0 0 1-19 26.4 88.366 88.366 0 0 1-30.2 16.8q-17.803 6-40.2 6zm150.798-300.8h32v122.818h1.6q7.594-17.418 21.4-27.718 13.8-10.294 37-10.3 31.997 0 50.6 20.6 18.6 20.606 18.6 58.2v132.4h-32v-127.075q0-55.725-46.8-55.725a71.857 71.857 0 0 0-18.6 2.406 54.139 54.139 0 0 0-16.2 7.22 35.671 35.671 0 0 0-11.4 12.224 34.801 34.801 0 0 0-4.2 17.437v143.513h-32zm243.198 41.2q-10.407 0-15-5-4.603-4.996-4.6-13v-5.2q0-7.997 4.6-13 4.593-4.997 15-5 10.397 0 15 5 4.593 5.007 4.6 13v5.2q0 8.006-4.6 13-4.603 5.006-15 5zm-16 48.4h32v206.4h-32zm111.2 28.4h-33.6v-28.4h33.6v-41.6q0-21.6 11.2-34.8 11.193-13.2 34-13.2h31.2v28.4h-44.4v61.2h44.4v28.4h-44.4v178h-32zm163.995 178q-16.799 0-25.4-9.375-8.606-9.375-8.6-24.55V949.94h-34v-28.4h19.2q10.397 0 14.2-4.2 3.797-4.2 3.8-14.6v-38.4h28.8v57.2h45.2v28.4h-45.2v149.6h42v28.4zm267.197 4.8a93.042 93.042 0 0 1-38-7.6 81.83 81.83 0 0 1-29.4-21.8 102.591 102.591 0 0 1-19-34q-6.806-19.8-6.8-44.6 0-24.394 6.8-44.4a102.323 102.323 0 0 1 19-34.2 81.965 81.965 0 0 1 29.4-21.8 93.042 93.042 0 0 1 38-7.6 91.69 91.69 0 0 1 37.8 7.6 84.405 84.405 0 0 1 29.4 21.8 100.657 100.657 0 0 1 19.2 34.2q6.797 20.006 6.8 44.4 0 24.807-6.8 44.6a100.913 100.913 0 0 1-19.2 34 84.26 84.26 0 0 1-29.4 21.8 91.69 91.69 0 0 1-37.8 7.6zm0-28.4q25.997 0 42.4-16 16.396-15.994 16.4-48.8v-29.6q0-32.794-16.4-48.8-16.406-15.994-42.4-16-26.007 0-42.4 16-16.407 16.004-16.4 48.8v29.6q0 32.804 16.4 48.8 16.397 16.003 42.4 16zm145.998 23.6v-206.4h32v33.218h1.6q7.594-17.418 21.4-27.718 13.8-10.294 37-10.3 31.997 0 50.6 20.6 18.6 20.606 18.6 58.2v132.4h-32v-127.075q0-55.725-46.8-55.725a71.857 71.857 0 0 0-18.6 2.406 54.139 54.139 0 0 0-16.2 7.22 35.671 35.671 0 0 0-11.4 12.224 34.801 34.801 0 0 0-4.2 17.437v143.513z"/>
		<path d="M1774.98 1662.44v-48.4h36v-182.4h-36v-48.4h132.8v48.4h-36v182.4h36v48.4zm183.597-279.2h135.6q34.8 0 54.2 19.6 19.397 19.603 19.4 52 0 16.003-4.2 27.2a52.367 52.367 0 0 1-11.2 18.4 42.963 42.963 0 0 1-16.4 10.6 66.041 66.041 0 0 1-20.2 3.8v2.4a67.532 67.532 0 0 1 21 3.6 59.826 59.826 0 0 1 20.2 11.4 63.04 63.04 0 0 1 15.4 20.2q6.196 12.403 6.2 30.4a88.626 88.626 0 0 1-5.4 31 79.088 79.088 0 0 1-15 25.4 69.945 69.945 0 0 1-22.8 17 66.829 66.829 0 0 1-28.8 6.2h-148zm60.8 114.4h60.4q12 0 18.8-6.8 6.796-6.796 6.8-18.8v-12q0-12-6.8-18.8-6.807-6.797-18.8-6.8h-60.4zm0 113.6h70q12 0 19-6.6 6.993-6.6 7-18.6v-13.6q0-12-7-18.6-7.002-6.6-19-6.6h-70zm414.797-132h-1.2l-20.4 40.8-54.4 98.8-53.2-98.4-21.2-44h-1.2v186h-57.201v-279.2h64.4l68.4 130.8h.802l67.6-130.8h64.798v279.2h-57.2zm325.99 188q-28.406 0-51.2-9a101.434 101.434 0 0 1-38.8-26.8q-16.002-17.793-24.8-44.4-8.802-26.596-8.8-62.2 0-35.194 8.8-62.6 8.794-27.394 24.8-46a103.375 103.375 0 0 1 38.8-28.2q22.8-9.6 51.2-9.6 38.795 0 64 15.8 25.201 15.807 40.4 49.8l-52.4 27.2q-5.607-17.597-17.4-28.2-11.804-10.594-34.6-10.6-26.804 0-43 17.4-16.201 17.4-16.2 50.6v44.8q0 33.207 16.2 50.6 16.201 17.4 43 17.4 22.398 0 35.8-12.2a74.14 74.14 0 0 0 19.8-29.4l49.6 28.8q-15.598 32.007-41 49.4-25.407 17.4-64.2 17.4zm203.195-4.8q-30.404 0-44.601-14.8-14.203-14.793-14.2-42.8v-238.4h59.2v250h26.4v46zm147.596 4.8q-23.203 0-41.398-7.6a82.523 82.523 0 0 1-30.801-22q-12.6-14.4-19.4-34.8-6.806-20.4-6.8-45.6 0-25.2 6.8-45.6 6.796-20.4 19.4-34.6a83.686 83.686 0 0 1 30.8-21.8q18.197-7.594 41.4-7.6 23.193 0 41.4 7.6a83.75 83.75 0 0 1 30.8 21.8q12.6 14.203 19.4 34.6 6.798 20.4 6.8 45.6 0 25.2-6.8 45.6-6.808 20.4-19.4 34.8a82.585 82.585 0 0 1-30.8 22q-18.206 7.594-41.4 7.6zm0-46.8q17.599 0 27.201-10.8 9.6-10.8 9.6-30.8v-42.8q0-19.997-9.6-30.8-9.6-10.8-27.2-10.8-17.605 0-27.2 10.8-9.6 10.8-9.6 30.8v42.8q0 20.006 9.6 30.8 9.6 10.8 27.2 10.8zm264.399 6.8h-2a72.95 72.95 0 0 1-7.399 15.2 50.966 50.966 0 0 1-11.8 12.8 55.331 55.331 0 0 1-17 8.8 72.881 72.881 0 0 1-22.6 3.2q-32.4 0-49-21.4-16.603-21.393-16.6-61.4v-132h59.2v126.8q0 19.2 6.8 29.6 6.797 10.407 23.2 10.4a47.856 47.856 0 0 0 13.599-2 38.513 38.513 0 0 0 12-5.8 29.88 29.88 0 0 0 8.4-9.4 26.167 26.167 0 0 0 3.2-13.2v-136.4h59.2v210h-59.2zm243.199 0h-2a52.441 52.441 0 0 1-7.602 15.8 54.671 54.671 0 0 1-12.6 12.8 58.484 58.484 0 0 1-16.798 8.4 63.46 63.46 0 0 1-19.4 3q-40.006 0-60.401-28.2-20.4-28.2-20.4-81.8 0-53.597 20.4-81.6 20.4-27.994 60.4-28a61.063 61.063 0 0 1 36.2 11.2q15.796 11.204 20.2 28.8h2v-121.2h59.2v296h-59.2zm-38.801-8q16.799 0 27.8-8.2 10.996-8.193 11-22.6v-62q0-14.399-11-22.6-11.006-8.194-27.8-8.2-16.799 0-27.8 11.8-11.005 11.804-11 31.8v36.4q0 20.006 11 31.8 10.997 11.804 27.8 11.8z"/>
	</g>
</svg>
