<svg xmlns="http://www.w3.org/2000/svg" width="200" height="128">
	<path fill="#494c4d" d="M131.2 66a.71.71 0 0 0 .76-.65V46.53a.72.72 0 0 0-.65-.65.71.71 0 0 0-.76.65V65.3a.72.72 0 0 0 .65.7zM148 51.94a.7.7 0 0 0-.75.64v2.05a6.56 6.56 0 0 0-5.25-2.76A7.06 7.06 0 0 0 142 66a6.59 6.59 0 0 0 5.29-2.79v2.09a.69.69 0 0 0 1.38 0V52.58a.7.7 0 0 0-.67-.64zm-6 12.67a5.7 5.7 0 1 1 5.29-5.67 5.51 5.51 0 0 1-5.29 5.67zM166.38 59a6.93 6.93 0 0 0-6.82-7.08 6.73 6.73 0 0 0-5.41 2.76v-8.15a.72.72 0 0 0-.65-.65.71.71 0 0 0-.76.65V65.3a.71.71 0 0 0 1.41 0v-2a6.71 6.71 0 0 0 5.41 2.7 6.93 6.93 0 0 0 6.82-7zm-7 5.63a5.41 5.41 0 0 1-5.23-5.63v-.24A5.41 5.41 0 1 1 165 59a3.23 3.23 0 0 1 0 .44 5.42 5.42 0 0 1-5.66 5.16zM179.86 62a3.52 3.52 0 0 0-1.58-2.88 10 10 0 0 0-3.43-1.12h-.06a7 7 0 0 1-2.87-1 1.69 1.69 0 0 1-.81-1.41A2.11 2.11 0 0 1 172 54a4.23 4.23 0 0 1 2.66-.81 6.15 6.15 0 0 1 3.45 1.41.68.68 0 0 0 1-.2.72.72 0 0 0-.2-1 7.54 7.54 0 0 0-4.2-1.52 6 6 0 0 0-3.45 1 3.48 3.48 0 0 0-1.53 2.76 2.94 2.94 0 0 0 1.53 2.53 8 8 0 0 0 3.19 1.1h.06a7.22 7.22 0 0 1 3 1 2.24 2.24 0 0 1 1 1.73 2.14 2.14 0 0 1-1.06 1.72 4.29 4.29 0 0 1-2.67.87 7.61 7.61 0 0 1-4.35-1.59.68.68 0 0 0-1 .1.65.65 0 0 0 .11.91 8.56 8.56 0 0 0 5.21 2 5.71 5.71 0 0 0 3.5-1.12 3.6 3.6 0 0 0 1.61-2.89zm-97.64-8.43a1.44 1.44 0 0 0-.44-1.11 1.92 1.92 0 0 0-1.45-.46 5.74 5.74 0 0 0-2.13.47 5 5 0 0 0-1.82 1.27v-.16a1.46 1.46 0 0 0-.48-1.11 1.43 1.43 0 0 0-1.1-.47 2.12 2.12 0 0 0-1.19.4 1.59 1.59 0 0 0-.48 1.1v11.68a1.59 1.59 0 0 0 .48 1.11 1.46 1.46 0 0 0 1.13.49 1.63 1.63 0 0 0 1.58-1.58v-5.6c0-2.47 2.53-4.29 4.35-4.45a1.45 1.45 0 0 0 1.11-.47 1.55 1.55 0 0 0 .44-1.11zm10.55 8.87a1.58 1.58 0 0 0-1.18.47 4.1 4.1 0 0 1-3.09.71 4.21 4.21 0 0 1-2.77-1.33 3 3 0 0 1-1-1.92h9.33a1.75 1.75 0 0 0 1.11-.47 1.51 1.51 0 0 0 .4-1v-.15a7.19 7.19 0 0 0-2.22-4.89 6.42 6.42 0 0 0-4.89-2 6.59 6.59 0 0 0-5 2.14 7.1 7.1 0 0 0-2.13 5.22 7.74 7.74 0 0 0 2.13 5.22 6.72 6.72 0 0 0 5.14 2.23 7.16 7.16 0 0 0 5.14-1.9l.08-.08a1.29 1.29 0 0 0-.08-1.82 1.35 1.35 0 0 0-.97-.43zm-6.92-6.73a4.1 4.1 0 0 1 2.67-1 5 5 0 0 1 2.92 1.11 3.6 3.6 0 0 1 1.43 2h-8.3a3.84 3.84 0 0 1 1.28-2.11zm23 10.91a1.55 1.55 0 0 0 1.11-.48 1.59 1.59 0 0 0 .48-1.1h-.08V47.56a1.59 1.59 0 0 0-.48-1.11 1.45 1.45 0 0 0-1.11-.47 1.54 1.54 0 0 0-1.1.47 1.43 1.43 0 0 0-.48 1.11v5.53a6.51 6.51 0 0 0-4-1.27A7 7 0 0 0 98.18 54a7.51 7.51 0 0 0-2.06 5.22 7 7 0 0 0 2.06 5.22 6.87 6.87 0 0 0 5.06 2.14 6.77 6.77 0 0 0 4-1.27 1.71 1.71 0 0 0 1.61 1.31zm-5.53-3.17a3.61 3.61 0 0 1-2.76-1.26 4.18 4.18 0 0 1 0-5.85 3.36 3.36 0 0 1 2.76-1.27 3.82 3.82 0 0 1 2.77 1.27 4.2 4.2 0 0 1 0 5.85 3.51 3.51 0 0 1-2.77 1.26zm10.23-11.54a1.55 1.55 0 0 0-1.11.48 1.58 1.58 0 0 0-.47 1.18v11.55a1.54 1.54 0 0 0 .47 1.11 1.46 1.46 0 0 0 1.11.48 1.61 1.61 0 0 0 1.11-.48 1.33 1.33 0 0 0 .47-1.11V53.57a1.6 1.6 0 0 0-.45-1.18 1.43 1.43 0 0 0-1.13-.48zm-.03-5.91a1.61 1.61 0 0 0-1.58 1.58v.58a1.58 1.58 0 0 0 .47 1.18 1.43 1.43 0 0 0 1.11.48 1.39 1.39 0 0 0 1.11-.4 1.6 1.6 0 0 0 .48-1.2v-.64a1.62 1.62 0 0 0-1.59-1.58zm11.62 12.25a11.3 11.3 0 0 0-2.84-.89 4.65 4.65 0 0 1-2.14-.71.9.9 0 0 1-.32-.23.62.62 0 0 1-.08-.4c0-.16.16-.31.48-.55a2.54 2.54 0 0 1 1.74-.55 5.52 5.52 0 0 1 2.69 1.1 1.64 1.64 0 0 0 1.18.24 1.57 1.57 0 0 0 1-.63 2.13 2.13 0 0 0 .16-1.19 1.58 1.58 0 0 0-.63-.95A9.13 9.13 0 0 0 122 51.8a6.37 6.37 0 0 0-3.64 1.1 3.91 3.91 0 0 0-1.74 3.25 3.61 3.61 0 0 0 .48 1.81 4.8 4.8 0 0 0 1.9 1.66 8.28 8.28 0 0 0 2.69.89 6 6 0 0 1 2.38.84c.23.08.39.23.39.31s.08.16.08.4-.24.47-.55.79a3.4 3.4 0 0 1-2 .55 4.57 4.57 0 0 1-3.24-1.26 1.51 1.51 0 0 0-1.08-.32 1.53 1.53 0 0 0-1.38 1.65 1.7 1.7 0 0 0 .56 1 8.27 8.27 0 0 0 5.22 2.06 6.34 6.34 0 0 0 3.79-1.19 4.14 4.14 0 0 0 1.82-3.4 4 4 0 0 0-.63-2 3.92 3.92 0 0 0-1.91-1.69zm-46.8 18.48h-4.17v-3.45h-1.05v7.73h1.05v-3.52h4.17v3.52h1.05v-7.73h-1.05v3.45zm11.24-2.44a3.46 3.46 0 0 0-1.21-.82 4.38 4.38 0 0 0-3.11 0 3.52 3.52 0 0 0-1.2.82 3.71 3.71 0 0 0-.78 1.25 4.72 4.72 0 0 0 0 3.19 3.64 3.64 0 0 0 .78 1.27 3.46 3.46 0 0 0 1.2.8 4.28 4.28 0 0 0 3.11 0 3.41 3.41 0 0 0 1.21-.8 3.75 3.75 0 0 0 .78-1.26 4.55 4.55 0 0 0 .28-1.59 4.66 4.66 0 0 0-.28-1.61 3.71 3.71 0 0 0-.78-1.25zm-.22 4.12a2.52 2.52 0 0 1-.55 1A2.35 2.35 0 0 1 88 80a3.15 3.15 0 0 1-2.26 0 2.34 2.34 0 0 1-.89-.6 2.68 2.68 0 0 1-.56-1 4.3 4.3 0 0 1 0-2.56 2.73 2.73 0 0 1 .56-1 2.46 2.46 0 0 1 .89-.6 3.15 3.15 0 0 1 2.26 0 2.32 2.32 0 0 1 .86.62 2.56 2.56 0 0 1 .55 1 3.69 3.69 0 0 1 .2 1.28 3.86 3.86 0 0 1-.25 1.27zm11.93-5.11a.31.31 0 0 0-.15.15l-2.62 4.76-.13.28a2.49 2.49 0 0 0-.11.29l-.12-.29c0-.09-.09-.18-.14-.27l-2.66-4.77a.54.54 0 0 0-.15-.15.55.55 0 0 0-.22 0h-.77V81h.91v-5.67a.7.7 0 0 0 0-.25 1.27 1.27 0 0 1 0-.28l2.73 4.86a.42.42 0 0 0 .38.24h.09a.42.42 0 0 0 .38-.24l2.67-4.84V81h.92v-7.72h-.78a.5.5 0 0 0-.23.02zm5.03 7.71h4.79v-.85h-3.72v-2.64h3.01v-.82h-3.01v-2.57h3.72v-.85h-4.79v7.73zm18.81-6.72a3.46 3.46 0 0 0-1.21-.82 4.38 4.38 0 0 0-3.11 0 3.52 3.52 0 0 0-1.2.82 3.71 3.71 0 0 0-.78 1.25 4.72 4.72 0 0 0 0 3.19 3.49 3.49 0 0 0 2 2.07 4.38 4.38 0 0 0 3.11 0 3.58 3.58 0 0 0 1.21-.81 3.65 3.65 0 0 0 .78-1.26 4.46 4.46 0 0 0 .28-1.58 4.66 4.66 0 0 0-.28-1.61 3.71 3.71 0 0 0-.8-1.25zm-.21 4.12a2.68 2.68 0 0 1-.56 1 2.35 2.35 0 0 1-.86.6 3.15 3.15 0 0 1-2.26 0 2.47 2.47 0 0 1-.87-.6 2.82 2.82 0 0 1-.55-1 4.3 4.3 0 0 1 0-2.56 2.64 2.64 0 0 1 .55-1 2.38 2.38 0 0 1 .87-.6 3.15 3.15 0 0 1 2.26 0 2.32 2.32 0 0 1 .86.62 2.73 2.73 0 0 1 .56 1 3.93 3.93 0 0 1 .19 1.28 4.14 4.14 0 0 1-.19 1.26zm4.86 2.6h1.05v-3.32H134v-.86h-3.17v-2.7h3.72v-.85h-4.77v7.73zm15.74-3.38a2.86 2.86 0 0 0 .8-.3 2.19 2.19 0 0 0 .6-.49 1.88 1.88 0 0 0 .38-.64 2.4 2.4 0 0 0 0-1.65 1.8 1.8 0 0 0-.51-.68 2.39 2.39 0 0 0-.89-.44 4.6 4.6 0 0 0-1.27-.15h-2.23V81h1v-3.21h.8a.87.87 0 0 1 .32.06.58.58 0 0 1 .2.18l2 2.77a.44.44 0 0 0 .43.22h.92l-2.2-3.02a1.1 1.1 0 0 0-.35-.37zm-1-.61h-1.1V74.1h1.15a2.26 2.26 0 0 1 1.36.35 1.27 1.27 0 0 1 .44 1 1.67 1.67 0 0 1-.12.62 1.38 1.38 0 0 1-.35.48 1.67 1.67 0 0 1-.59.31 2.32 2.32 0 0 1-.77.14zm6.89 3.99h4.75v-.85h-3.72v-2.64h3.01v-.82h-3.01v-2.57h3.74v-.85h-4.77v7.73zm14.09-6.67a3.45 3.45 0 0 0-1.21-.78 3.91 3.91 0 0 0-1.55-.28h-2.9V81h2.9a4.09 4.09 0 0 0 1.55-.27 3.73 3.73 0 0 0 1.21-.73 3.64 3.64 0 0 0 .78-1.22 4.49 4.49 0 0 0 .27-1.58 4.54 4.54 0 0 0-.27-1.59 3.74 3.74 0 0 0-.78-1.27zm-.23 4.08a2.52 2.52 0 0 1-.55 1 2.32 2.32 0 0 1-.86.59 2.93 2.93 0 0 1-1.13.2h-1.84v-6h1.85a3.14 3.14 0 0 1 1.13.21 2.32 2.32 0 0 1 .86.59 2.56 2.56 0 0 1 .55 1 3.88 3.88 0 0 1 .2 1.27 3.93 3.93 0 0 1-.21 1.14zm5.06-5.14h1.05v7.74h-1.05zm9.51 4.57a1.78 1.78 0 0 0-.43-.55 2.13 2.13 0 0 0-.59-.38l-.68-.26-.68-.23a3.15 3.15 0 0 1-.59-.27 1.36 1.36 0 0 1-.43-.36 1 1 0 0 1-.16-.54 1.17 1.17 0 0 1 .37-.85 1.29 1.29 0 0 1 .44-.25 1.67 1.67 0 0 1 .63-.1 1.72 1.72 0 0 1 .63.09 2 2 0 0 1 .44.21 1.49 1.49 0 0 1 .31.2.4.4 0 0 0 .21.09.23.23 0 0 0 .14 0 .69.69 0 0 0 .11-.13l.25-.48a2.48 2.48 0 0 0-.93-.6 3.19 3.19 0 0 0-1.18-.2 2.7 2.7 0 0 0-1 .17 2.33 2.33 0 0 0-.76.48 2.19 2.19 0 0 0-.44 2.33 1.73 1.73 0 0 0 .42.58 1.93 1.93 0 0 0 .59.38 5.6 5.6 0 0 0 .68.26l.67.21a2.66 2.66 0 0 1 .6.26 1.32 1.32 0 0 1 .41.37.91.91 0 0 1 .16.58 1.45 1.45 0 0 1-.1.58 1.67 1.67 0 0 1-.31.44 1.49 1.49 0 0 1-.5.29 2.11 2.11 0 0 1-.66.1 2 2 0 0 1-.76-.12 2.4 2.4 0 0 1-.53-.27 3.18 3.18 0 0 1-.37-.27.48.48 0 0 0-.26-.12.33.33 0 0 0-.13 0l-.11.11-.3.49a3.43 3.43 0 0 0 1.06.74 3.34 3.34 0 0 0 1.36.27 2.93 2.93 0 0 0 1.1-.19 2.21 2.21 0 0 0 .82-.52 2.18 2.18 0 0 0 .5-.77 2.62 2.62 0 0 0 .18-1 2.1 2.1 0 0 0-.18-.77z"/>
	<path fill="#a41e11" d="M61.08 76.72c-2.29 1.19-14.08 6.06-16.64 7.37s-3.91 1.3-5.9.35S24 78.4 21.69 77.32c-1.14-.54-1.73-1-1.73-1.43v-4.33S36.35 68 39 67s3.56-1 5.81-.15S60.53 70.14 62.75 71v4.26c0 .43-.51.9-1.67 1.5z"/>
	<path fill="#d82c20" d="M61.08 72.4c-2.29 1.19-14.12 6-16.64 7.36s-3.91 1.3-5.9.35S24 74.08 21.69 73s-2.32-1.83-.09-2.7 14.75-5.8 17.4-6.75 3.56-1 5.81-.15 14 5.5 16.24 6.32 2.31 1.48 0 2.68z"/>
	<path fill="#a41e11" d="M61.08 69.67C58.79 70.86 47 75.72 44.44 77s-3.91 1.3-5.9.35-14.58-6-16.85-7.13c-1.14-.54-1.73-1-1.73-1.43v-4.28S36.35 60.94 39 60s3.56-1 5.81-.16 15.72 3.26 17.94 4.07v4.27c0 .41-.51.88-1.67 1.49z"/>
	<path fill="#d82c20" d="M61.08 65.34C58.79 66.53 47 71.4 44.44 72.71s-3.91 1.3-5.9.35S24 67 21.69 65.94s-2.32-1.83-.09-2.71S36.35 57.45 39 56.5s3.56-1 5.81-.16 14 5.51 16.24 6.32 2.31 1.49 0 2.68z"/>
	<path fill="#a41e11" d="M61.08 62.35c-2.29 1.19-14.08 6.06-16.64 7.37s-3.91 1.3-5.9.35S24 64 21.69 63c-1.14-.59-1.69-1-1.69-1.48v-4.33s16.39-3.57 19-4.52 3.56-1 5.81-.15 15.72 3.25 17.94 4.07v4.26c0 .43-.51.9-1.67 1.5z"/>
	<path fill="#d82c20" d="M61.08 58c-2.29 1.2-14.12 6.06-16.64 7.37s-3.91 1.3-5.9.35-14.58-6-16.85-7.12-2.32-1.83-.09-2.7 14.75-5.77 17.4-6.72 3.56-1 5.81-.15 14 5.5 16.24 6.32 2.31 1.48 0 2.67z"/>
	<path fill="#fff" d="m46.96 53.86-3.7.38-.84 2-1.34-2.23-4.28-.38 3.2-1.15-.96-1.77 2.99 1.17 2.82-.93-.76 1.83 2.87 1.08zm-4.76 9.69-6.92-2.87 9.92-1.52-3 4.39z"/>
	<ellipse fill="#fff" cx="32.61" cy="57.02" rx="5.3" ry="2.05"/>
	<path fill="#7a0c00" d="m51.35 54.41 5.87 2.31-5.87 2.32v-4.63z"/>
	<path fill="#ad2115" d="m44.85 56.97 6.5-2.56v4.63l-.63.25-5.87-2.32z"/>
</svg>
