<svg xmlns="http://www.w3.org/2000/svg" width="200" height="128">
    <path d="M107.57 54.294a2.412 2.412 0 0 1-2.4 2.4 4.327 4.327 0 0 0-2.713.859 6.811 6.811 0 0 0-2.079 2.17 13.892 13.892 0 0 0-1.854 3.8v8.59a2.462 2.462 0 0 1-2.486 2.4 2.413 2.413 0 0 1-2.4-2.4V54.294a2.374 2.374 0 0 1 2.4-2.351 2.424 2.424 0 0 1 2.486 2.351v.317a5.939 5.939 0 0 1 .95-.9 9.916 9.916 0 0 1 5.7-1.763 2.345 2.345 0 0 1 2.4 2.351zM106.244 63.2a11.193 11.193 0 0 1 11.031-11.3 10.813 10.813 0 0 1 10.895 10.487v.226a1.261 1.261 0 0 1-.045.407 2.178 2.178 0 0 1-2.351 1.808H111.4a5.927 5.927 0 0 0 1.537 2.984 7 7 0 0 0 4.34 2.034 7.4 7.4 0 0 0 4.7-1.13 2.558 2.558 0 0 1 3.39-.136 2.065 2.065 0 0 1 0 2.938 11.425 11.425 0 0 1-8.092 2.984 11.221 11.221 0 0 1-11.031-11.3zm4.928-2.215h12.794c-.452-1.809-2.758-4.476-6.691-4.792a6.316 6.316 0 0 0-6.103 4.793zM151.2 72.062a2.462 2.462 0 0 1-2.44 2.438 2.434 2.434 0 0 1-2.4-1.944 11.033 11.033 0 0 1-6.148 1.944 11.307 11.307 0 0 1 0-22.605 10.693 10.693 0 0 1 6.057 1.9V45.3a2.464 2.464 0 0 1 4.928 0v26.762zm-10.984-15.235a5.854 5.854 0 0 0-4.249 1.853 6.553 6.553 0 0 0 0 9.042 5.851 5.851 0 0 0 4.249 1.854 5.775 5.775 0 0 0 4.249-1.854 6.553 6.553 0 0 0 0-9.042 5.777 5.777 0 0 0-4.249-1.853zM159.8 46.248a2.441 2.441 0 0 1-2.442 2.486 2.47 2.47 0 0 1-2.441-2.486V45.3a2.431 2.431 0 0 1 2.441-2.441A2.4 2.4 0 0 1 159.8 45.3v.95zm0 8.182v17.632a2.4 2.4 0 0 1-2.442 2.441 2.431 2.431 0 0 1-2.441-2.441V54.43a2.414 2.414 0 0 1 2.441-2.486 2.387 2.387 0 0 1 2.442 2.486zM162.911 68.036a2.351 2.351 0 0 1 3.39-.362 8.3 8.3 0 0 0 4.973 1.989 6.021 6.021 0 0 0 3.074-.859 1.85 1.85 0 0 0 .814-1.356.672.672 0 0 0-.136-.452c-.045-.136-.226-.316-.588-.542a10.474 10.474 0 0 0-3.616-1.266h-.045a17.309 17.309 0 0 1-3.934-1.176 7.551 7.551 0 0 1-3.119-2.622 5.48 5.48 0 0 1-.768-2.848 6.348 6.348 0 0 1 2.667-4.973 9.723 9.723 0 0 1 5.561-1.672 11.629 11.629 0 0 1 6.781 2.486 2.5 2.5 0 0 1 .723 3.345 2.392 2.392 0 0 1-3.345.633 7.751 7.751 0 0 0-4.159-1.673 4.6 4.6 0 0 0-2.713.814 1.377 1.377 0 0 0-.723 1.04.486.486 0 0 0 .09.361 1.213 1.213 0 0 0 .5.452 9.228 9.228 0 0 0 3.3 1.086l.045.045h.046a16.255 16.255 0 0 1 4.2 1.311 7.022 7.022 0 0 1 3.21 2.667 5.85 5.85 0 0 1 .861 2.984 6.522 6.522 0 0 1-2.848 5.244 10.289 10.289 0 0 1-5.878 1.808 13.13 13.13 0 0 1-8.047-3.119 2.412 2.412 0 0 1-.316-3.345z" fill="#636466"/>
    <path d="M77.18 77.827c-3.18 1.656-19.628 8.42-23.13 10.246s-5.449 1.809-8.216.486-20.274-8.395-23.428-9.9C20.83 77.9 20 77.268 20 76.667v-6.015s22.794-4.962 26.473-6.282 4.957-1.37 8.088-.221 21.856 4.525 24.951 5.659v5.93c0 .595-.714 1.247-2.33 2.089z" fill="#a41e11"/>
    <path d="M77.18 71.81C74 73.465 57.552 80.23 54.05 82.056s-5.449 1.809-8.216.486-20.274-8.4-23.428-9.9-3.22-2.545-.122-3.758 20.51-8.045 24.19-9.365 4.956-1.368 8.087-.221 19.486 7.657 22.58 8.79 3.215 2.069.039 3.724z" fill="#d82c20"/>
    <path d="M77.18 68.018c-3.18 1.655-19.628 8.42-23.13 10.246s-5.449 1.808-8.216.486-20.274-8.395-23.428-9.9c-1.576-.754-2.4-1.389-2.4-1.99v-6.018s22.793-4.961 26.472-6.282 4.957-1.368 8.088-.221S76.417 58.864 79.512 60v5.931c-.001.592-.712 1.245-2.332 2.087z" fill="#a41e11"/>
    <path d="M77.18 62C74 63.656 57.552 70.421 54.05 72.247s-5.449 1.808-8.216.485-20.274-8.395-23.428-9.9-3.22-2.544-.122-3.758 20.51-8.044 24.19-9.364 4.956-1.368 8.087-.221 19.486 7.656 22.58 8.79 3.215 2.068.039 3.724z" fill="#d82c20"/>
    <path d="M77.18 57.845C74 59.5 57.552 66.265 54.05 68.092s-5.449 1.807-8.216.485-20.274-8.395-23.428-9.9c-1.576-.754-2.4-1.389-2.4-1.99v-6.018s22.793-4.961 26.472-6.281 4.957-1.368 8.088-.221 21.856 4.525 24.951 5.659v5.93c0 .594-.714 1.246-2.33 2.089z" fill="#a41e11"/>
    <path d="M77.18 51.828c-3.18 1.655-19.628 8.42-23.13 10.246s-5.449 1.808-8.216.486-20.274-8.4-23.428-9.9-3.22-2.545-.122-3.758 20.51-8.044 24.19-9.364 4.956-1.368 8.087-.221 19.486 7.657 22.58 8.79 3.215 2.069.039 3.724z" fill="#d82c20"/>
    <path fill="#fff" d="M57.554 46.034l-5.156.536-1.155 2.777-1.864-3.099-5.955-.535 4.443-1.603-1.333-2.459 4.16 1.627 3.922-1.284-1.06 2.543 3.998 1.497zM50.935 59.51l-9.624-3.992 13.791-2.116-4.167 6.108z"/>
    <ellipse cx="37.593" cy="50.435" rx="7.371" ry="2.857" fill="#fff"/>
    <path fill="#7a0c00" d="M63.648 46.794l8.162 3.225-8.155 3.222-.007-6.447z"/>
    <path fill="#ad2115" d="M54.619 50.365l9.029-3.571.007 6.447-.885.346-8.151-3.222z"/>
</svg>
