<svg xmlns="http://www.w3.org/2000/svg" height="107.92" width="760.04" xml:space="preserve">
	<path style="fill:#d72f23;fill-opacity:1;fill-rule:evenodd;stroke:none" d="M52.188 809.355h704.98c28.824 0 52.187-23.367 52.187-52.183V52.18c0-28.817-23.363-52.176-52.187-52.176H404.676C181.18.004 0 181.184 0 404.676v352.496c0 28.816 23.363 52.183 52.188 52.183zM173.71 670.438c-19.215 0-34.789-15.575-34.789-34.79V401.656c0-148.441 120.336-268.773 268.777-268.773h233.985c19.214 0 34.789 15.578 34.789 34.785v467.98c0 19.215-15.575 34.79-34.789 34.79H173.711" transform="matrix(.13333 0 0 -.13333 0 107.92)"/>
	<path style="fill:#193137;fill-opacity:1;fill-rule:nonzero;stroke:none" d="M5100.31 660.281c43.46 0 78.72-35.191 78.82-78.648.03-13.918.06-33.324.09-50 .02-18.805-15.14-35.43-33.94-35.578h-141.76c-11.57-.469-15.96-6.028-15.96-15.395 0-8.703 5.25-13.387 15.96-13.387 8.48 0 102.84.743 148.3 1.118 14.38.125 26.12-11.379 26.29-25.762.2-15.859.4-54.496.51-80.762.06-14.558-11.71-26.351-26.27-26.379h-148.83c-10.03 0-17.13-9.363-16.77-16.715.52-10.46 12.56-14.21 16.77-14.121 11.62.254 145.4 0 145.4 0 19.87-1.047 32.71-16.73 32.71-28.769v-41.477c0-43.699-35.42-79.121-79.12-79.121h-277.72c-61.16 0-110.71 49.551-110.65 110.703.14 126.625.34 322.391.37 376.91.01 7.266 5.9 17.383 13.17 17.383h372.63" transform="matrix(.13333 0 0 -.13333 0 107.92)"/>
	<path style="fill:#193137;fill-opacity:1;fill-rule:nonzero;stroke:none" d="M1296.54 431.207c-1.32-9.363-.65-17.391.68-27.426 1.34-10.035 6.17-15.722 14.06-14.047 19.23 4.09 41.48 14.047 41.48 14.047 10.69 6.008 14.72 6.688 14.72 25.422 0 6.688-4.59 13.383-12.61 13.383h-39.58c-8.71 0-17.4-2.012-18.75-11.379zm226.1 229.074c43.68 0 79.06-35.418 79-79.097-.11-60.942-.26-133.864-.26-133.864 0-31.304-2.86-57.875-16.41-66.957-21.91-14.675-30.75-18.574-30.75-33.289 0-12.426 10.33-18.332 19.86-38.398 2.04-4.297 4.5-8.379 7.06-12.403 13.32-20.937 49.34-80.539 49.34-113.253 0-13.379-10.04-27.579-28.77-27.579h-197.42c-24.09 0-29.47 4.524-34.62 14.739-8.48 16.816-30.96 59.668-30.96 59.668-7.35 11.375-11.38 15.39-22.74 10.703-6.03-2.676-10.04-4.016-10.04-14.719 0-24.082.99-26.473.99-43.191 0-16.719-4.35-27.2-19.07-27.2-3.92 0-66.85-.156-127.14-.156-61.17.012-110.74 49.602-110.61 110.781.25 128.856.65 330.731.75 381.145a13.06 13.06 0 0 0 13.14 13.07h458.65" transform="matrix(.13333 0 0 -.13333 0 107.92)"/>
	<path style="fill:#193137;fill-opacity:1;fill-rule:nonzero;stroke:none" d="M2040.98 660.281c43.46 0 78.72-35.191 78.81-78.648.03-13.918.07-33.324.09-50 .02-18.805-15.13-35.43-33.93-35.578h-141.77c-11.56-.469-15.96-6.028-15.96-15.395 0-8.703 5.26-13.387 15.96-13.387 8.49 0 102.85.743 148.3 1.118 14.38.125 26.12-11.379 26.3-25.762.19-15.859.39-54.496.5-80.762.07-14.558-11.7-26.351-26.27-26.379h-148.83c-10.04 0-17.13-9.363-16.76-16.715.52-10.46 12.55-14.21 16.76-14.121 11.62.254 145.4 0 145.4 0 19.87-1.047 32.72-16.73 32.72-28.769v-41.477c0-43.699-35.43-79.121-79.13-79.121h-277.72c-61.15 0-110.7 49.551-110.64 110.703.13 126.621.33 322.383.37 376.91 0 7.266 5.89 17.383 13.16 17.383h372.64" transform="matrix(.13333 0 0 -.13333 0 107.92)"/>
	<path style="fill:#193137;fill-opacity:1;fill-rule:nonzero;stroke:none" d="M2408.7 389.402c-1-17.363 16.39-19.238 27.4-19.238 15.39 0 40.15 13.473 40.15 26.852v15.976c0 20.074-22.76 30.113-39.48 30.113-28.21 0-27.85-8.621-28.07-34.957-.14-6.253.14-12.492 0-18.746zm138.18 270.528c87 .156 157.7-70.016 158.26-157.008.25-41.395.44-118.379.4-189.676-.05-87.258-70.77-157.941-158.03-157.922l-272.89-.027c-61.18-.012-110.75 49.629-110.66 110.808l.57 378.434c.01 7.324 6.01 15.879 13.33 15.742 41.31-.781 229.49-.605 369.02-.351" transform="matrix(.13333 0 0 -.13333 0 107.92)"/>
	<path style="fill:#193137;fill-opacity:1;fill-rule:nonzero;stroke:none" d="M3120.11 659.809c17.86-.239 23.03-16.676 23.41-32.727.29-12.23.08-20.156.29-40.82.18-18.051.92-21.317 11.77-23.328 10.56-1.965 17.4-2.004 26.1 17.379 12.03 26.722 16.2 41.644 22.84 56.257 5.3 11.664 9.94 23.91 26.01 23.239 16.73-.668 170.63 1.343 207.45 0 16.74-.668 31.45-17.36 30.78-40.075-.66-30.07-71.23-150.113-82.57-167.574-11.61-17.883-16.48-25.527-16.48-42.238 0-13.356 7.23-21.246 18.88-42.77 15.2-28.086 39.46-71.582 61.77-115.625a33.857 33.857 0 0 0 1.72-4.121c8.43-24.59 16.02-25.304 16.02-51.301 0-16.699-13.38-39.851-30.12-40.515-16.74-.664-178.02 0-204.11 0-24.06 0-40.16 50.535-55.55 79.941-10.04 18.711-16.72 17.371-24.09 14.032-7.35-3.348-10.77-8.68-10.71-20.047.03-5.266-.16-36.887-.16-46.907 0-15.156-9.33-27.089-21.24-27.019 0 0-65.27-.11-128.27-.098-61.11 0-110.64 49.539-110.64 110.645V644.18c0 7.179 5.76 15.57 12.96 15.629h223.94" transform="matrix(.13333 0 0 -.13333 0 107.92)"/>
	<path style="fill:#193137;fill-opacity:1;fill-rule:nonzero;stroke:none" d="M4391.32 458.965c29.44 8.012 32.8 17.375 32.8 30.738 0 6.695-5.49 14.156-13.53 14.156-6.68 0-15.26-.113-21.94-.113-13.4 0-14.72-8.023-14.72-20.719 0-18.718 2.67-28.082 17.39-24.062zm4.63-152.164c3.32-.071 10.06 0 13.91 0 10.07 0 14.71 9.726 14.71 16.426 0 14.027-5.14 21.421-35.92 28.097-13.47 3.235-14.21-2.269-14.21-16.722 0-21.258 6.06-27.481 21.51-27.801zm269.75 273.847v-87.593s-2.66-36.082-42.35-69.121c-.31-.258-.68-.543-1.02-.774-12.92-9.066-15.53-11.73-15.53-17.008 0-4.679.67-8.023 16.73-14.714 44.16-18.715 43.98-27.137 43.98-54.989l.49-101.777c.2-43.77-35.22-79.356-78.98-79.356h-353.4c-61.1 0-110.64 49.539-110.64 110.653v380.445c0 7.18 5.78 13.313 12.97 13.379 56.05.504 315.62.266 448.66.102 43.73-.051 79.09-35.516 79.09-79.247" transform="matrix(.13333 0 0 -.13333 0 107.92)"/>
	<path style="fill:#193137;fill-opacity:1;fill-rule:nonzero;stroke:none" d="M5620.96 660.262c43.75 0 79.22-35.469 79.22-79.219V469.078c1.34-13.199-8.03-29.164-34.22-23.922-4.8.957-89.59 24.094-89.59 24.094-10.98 3.141-20.08 6.031-24.1-.656-4.67-7.364-3.34-13.391 7.38-19.414 0 0 97.96-68.844 115.77-81.637 18.82-13.527 24.04-29.992 24.76-55.547V234.34c0-43.672-35.41-79.074-79.08-79.074h-291.97c-61.01 0-110.53 49.375-110.64 110.382-.07 34.168-.29 65.497-.81 75.79-.66 12.046 16.06 24.097 26.76 24.097l80.98-22.09c15.39-6.687 22.09-6.687 26.1 0 3.34 5.352 4.37 7.426-11.37 24.098l-86.34 79.629c-34.1 30.453-35.47 48.855-35.47 102.391v94.007c0 7.219 5.85 16.684 13.07 16.692h389.55" transform="matrix(.13333 0 0 -.13333 0 107.92)"/>
	<path style="fill:#193137;fill-opacity:1;fill-rule:nonzero;stroke:none" d="M3737.19 658.824c20.48.063 32.71-20.09 32.71-38.054V414.355c0-14.691 11.84-26.593 26.45-26.593h6.02c14.55 0 26.33 11.867 26.29 26.5-.17 57.558-.6 190.601-.6 231.504 0 7.261 5.85 13.058 13.07 13.058h182.93c41.62-.082 53.24-29.269 53.24-73.015V232.98c0-43.679-35.15-79.089-78.58-79.121-73.31-.039-257.09-.046-376.62-.046-60.74-.012-109.97 49.433-110.01 110.527-.11 133.48-.29 344.457-.46 378.558-.03 7.27 5.78 15.922 13.02 15.926h212.54" transform="matrix(.13333 0 0 -.13333 0 107.92)"/>
</svg>
