<svg xmlns="http://www.w3.org/2000/svg" width="200" height="128">
	<path d="m30.684 54.025 3.462 4.032a.228.228 0 0 1-.049.333 9.18 9.18 0 0 0-3.249 3.174c-.171.257-.355.07-.355.07l-4.386-3.285s-.189-.111-.024-.33a14.5 14.5 0 0 1 4.317-4.044.183.183 0 0 1 .284.05z" fill="#d02d1c"/>
	<path d="m24.543 60.593 5.184 2.507a.217.217 0 0 1 .123.32 23.317 23.317 0 0 0-1.489 4.887c-.057.292-.255.2-.255.2l-5.831-2.532a.212.212 0 0 1-.1-.29c.259-.8 1.578-3.982 2.107-5.023a.191.191 0 0 1 .261-.069z" fill="#c61e05"/>
	<path d="M21.642 68.643c1.186.365 6.162 1.512 6.162 1.512.3.091.209.315.209.315a37.919 37.919 0 0 0-.269 5.479c0 .316-.23.27-.23.27h-7.261a.224.224 0 0 1-.247-.285 38.022 38.022 0 0 1 1.321-7.134.224.224 0 0 1 .315-.157z" fill="#ae1400"/>
	<path d="m45.4 54.025-3.46 4.032a.228.228 0 0 0 .048.333 9.183 9.183 0 0 1 3.25 3.174c.171.257.354.07.354.07l4.387-3.285s.189-.111.024-.33a14.507 14.507 0 0 0-4.317-4.044.183.183 0 0 0-.286.05z" fill="#d02d1c"/>
	<path d="M38.043 57.476a17.815 17.815 0 0 1 2.171.14c.266.044.332-.132.332-.132l2.179-4.553s.145-.172-.16-.283a10.8 10.8 0 0 0-4.522-.869 10.883 10.883 0 0 0-4.523.869c-.3.111-.159.283-.159.283l2.179 4.553s.066.176.332.132a17.815 17.815 0 0 1 2.171-.14z" fill="#d94a3a"/>
	<path d="M51.543 60.593 46.359 63.1a.217.217 0 0 0-.124.32 23.261 23.261 0 0 1 1.49 4.887c.056.292.254.2.254.2l5.832-2.532a.212.212 0 0 0 .1-.29c-.259-.8-1.578-3.982-2.108-5.023a.189.189 0 0 0-.26-.069z" fill="#c61e05"/>
	<path d="M54.444 68.643c-1.186.365-6.162 1.512-6.162 1.512-.3.091-.209.315-.209.315a37.863 37.863 0 0 1 .268 5.479c0 .316.23.27.23.27h7.262a.223.223 0 0 0 .246-.285 37.985 37.985 0 0 0-1.32-7.136.224.224 0 0 0-.315-.155z" fill="#ae1400"/>
	<path d="M133.931 76.219v-12.06l.278-2.537-5.074 14.6h-3.128l-5.074-14.6.278 2.537v12.06h-3.789v-21.9h4.449l5.213 14.841a13.215 13.215 0 0 1 .487 1.946 12.246 12.246 0 0 1 .486-1.946l5.214-14.841h4.448v21.9zm7.869 0v-21.9h3.753v21.9zm18.181 0-6.916-15.327a19.593 19.593 0 0 1 .243 2.885v12.442h-3.788v-21.9h4.448l4.866 11.052a22.267 22.267 0 0 1 1.008 3.163V54.323h3.788v21.9zm7.855 0v-21.9h11.816v3.371h-8.028v5.422h6.152v3.406h-6.152v6.256H180v3.441z" fill="#d94a3a"/>
	<path d="M106.048 76.219h-6.256v-21.9h6.569c6.29 0 8.167 5.631 8.167 10.983 0 5.426-2.294 10.917-8.48 10.917zm.174-18.629h-2.676v15.362h2.5c4.032 0 4.657-4.449 4.657-7.577.002-3.023-.45-7.785-4.481-7.785zM84.847 76.219v-21.9h11.817v3.371h-8.028v5.422h6.151v3.406h-6.151v6.256h8.376v3.441zm-5.7 0L72.023 68.4v7.82h-3.789v-21.9h5.04c6.047 0 8.341 3.059 8.341 6.951 0 3.3-2.085 6.673-5.283 6.951l6.221 6.465v1.529zM73.274 57.59h-1.251v7.51a6.166 6.166 0 0 0 1.977.449c2.467 0 3.753-2.016 3.753-4.31.004-2.259-1.317-3.649-4.479-3.649z" fill="#ae1400"/>
</svg>
