<svg xmlns="http://www.w3.org/2000/svg" width="200" height="128">
	<path fill-rule="evenodd" fill="#c85051" d="M29.8 56.01V61l6.89 3.13 5.49-2.49-12.38-5.63"/>
	<path fill="#e0595b" fill-rule="evenodd" d="m42.18 61.64-5.49 2.49-6.89 3.13v4.99l12.38-5.62v-4.99"/>
	<path d="M23.75 51.74h5.01v-3.96H19.8v32.44h13.05v-3.96h-9.1V51.74zm7.16-3.96h1.77v3.96h-1.77zm7.5 3.96h9.1v24.52h-5v3.96h8.96V47.78H38.41v3.96zm.18 24.52h1.77v3.96h-1.77zm38.5-13.54a5.52 5.52 0 0 0 .91-3.17 5.64 5.64 0 0 0-.83-3.12 5.33 5.33 0 0 0-2.38-2 9.23 9.23 0 0 0-3.79-.68h-6.9v18.14h3.73v-6.55h3l3.81 6.55h4.12l-4.16-7.21a5.17 5.17 0 0 0 2.49-1.96zm-3.82-1a4.06 4.06 0 0 1-2.54.7h-2.89V57h2.89a4.06 4.06 0 0 1 2.54.69 2.67 2.67 0 0 1 0 4zm16.24-1.28a6.12 6.12 0 0 0-3.3-.88 6.43 6.43 0 0 0-3.24.8 5.89 5.89 0 0 0-2.26 2.17 6 6 0 0 0-.83 3.14 6.2 6.2 0 0 0 .91 3.3 6.56 6.56 0 0 0 2.5 2.31 7.32 7.32 0 0 0 3.56.85 8.34 8.34 0 0 0 4.92-1.59l-1.07-2.43a5.59 5.59 0 0 1-3.44 1.19 4.33 4.33 0 0 1-1.7-.31 3.51 3.51 0 0 1-1.23-.85 3.18 3.18 0 0 1-.71-1.25h8.91v-.39a7.88 7.88 0 0 0-.8-3.62 5.9 5.9 0 0 0-2.22-2.44zm-6.05 4.68a3.32 3.32 0 0 1 .5-1.37 2.77 2.77 0 0 1 1-.94 2.87 2.87 0 0 1 1.42-.35 3 3 0 0 1 1.42.34 2.81 2.81 0 0 1 1 .94 3.3 3.3 0 0 1 .49 1.38zm20.25-3.94a5.26 5.26 0 0 0-1.77-1.18 5.53 5.53 0 0 0-2.2-.43 5.4 5.4 0 0 0-3 .82 5.66 5.66 0 0 0-2 2.23 7.33 7.33 0 0 0 0 6.46 5.72 5.72 0 0 0 2 2.25 5.48 5.48 0 0 0 3 .81 5.61 5.61 0 0 0 2.36-.5 5.79 5.79 0 0 0 1.9-1.39l.18 1.64h3V53.75h-3.47zm0 4.87a2.83 2.83 0 0 1-.41 1.53 3 3 0 0 1-1.12 1.06 3.1 3.1 0 0 1-1.55.39 3 3 0 0 1-1.58-.42 3 3 0 0 1-1.11-1.14 3.52 3.52 0 0 1 0-3.26 2.94 2.94 0 0 1 1.11-1.13 3 3 0 0 1 1.58-.41 3.1 3.1 0 0 1 1.55.38 3 3 0 0 1 1.12 1 2.81 2.81 0 0 1 .41 1.53zm16.84-5.67a5.41 5.41 0 0 0-3-.82 5.55 5.55 0 0 0-4.22 1.88l-.18-1.64h-3.05v18.14h3.49v-7.43a5.36 5.36 0 0 0 1.77 1.19 5.83 5.83 0 0 0 5.16-.38 5.77 5.77 0 0 0 2-2.25 7.33 7.33 0 0 0 0-6.46 5.71 5.71 0 0 0-1.97-2.23zm-1.17 7.1a2.87 2.87 0 0 1-1.08 1.13 3.12 3.12 0 0 1-1.6.4 3.19 3.19 0 0 1-1.52-.36 3 3 0 0 1-1.09-1 3 3 0 0 1-.47-1.47v-.6a3.2 3.2 0 0 1 .47-1.5 3 3 0 0 1 1.1-1 3.19 3.19 0 0 1 1.52-.36 3 3 0 0 1 1.59.41 2.91 2.91 0 0 1 1.08 1.12 3.38 3.38 0 0 1 .39 1.65 3.33 3.33 0 0 1-.39 1.58zm14.24-7.23a6.46 6.46 0 0 0-3.06-.69 10 10 0 0 0-2.43.32 11.52 11.52 0 0 0-2.47.95l.94 2.65a5 5 0 0 1 1.51-.8 5.19 5.19 0 0 1 1.65-.27 4.19 4.19 0 0 1 1.58.29 2.69 2.69 0 0 1 1.11.82 2 2 0 0 1 .41 1.25v.31a8 8 0 0 0-1.52-.5 7.63 7.63 0 0 0-1.63-.19 5.69 5.69 0 0 0-2.46.51 4.09 4.09 0 0 0-1.7 1.38 3.68 3.68 0 0 0 0 4 3.81 3.81 0 0 0 1.56 1.35 5 5 0 0 0 2.26.49 5.12 5.12 0 0 0 2.16-.44 4.49 4.49 0 0 0 1.64-1.24l.18 1.44h3v-6.67a6.05 6.05 0 0 0-.71-3 5 5 0 0 0-2.02-1.96zm-.78 6.94a2 2 0 0 1-.41 1.15 2.88 2.88 0 0 1-1 .82 3 3 0 0 1-1.31.3 2.54 2.54 0 0 1-1-.2 1.79 1.79 0 0 1-.71-.55 1.37 1.37 0 0 1-.26-.81 1.31 1.31 0 0 1 .63-1.12 2.79 2.79 0 0 1 1.62-.44 4.48 4.48 0 0 1 1.31.2 4.15 4.15 0 0 1 1.18.56zm13.3-7.63a5.27 5.27 0 0 0-2.48.55 4.5 4.5 0 0 0-1.7 1.63l-.12-1.94H139v12.09h3.47V65.8a3.44 3.44 0 0 1 .71-2.28 2.37 2.37 0 0 1 1.92-.84 2.28 2.28 0 0 1 1.83.8 3.36 3.36 0 0 1 .67 2.22v6.19h3.47v-7a5.53 5.53 0 0 0-1.29-3.89 4.74 4.74 0 0 0-3.64-1.44zm16.65 1.62A5.26 5.26 0 0 0 161 60a5.53 5.53 0 0 0-2.2-.43 5.4 5.4 0 0 0-3 .82 5.66 5.66 0 0 0-2.05 2.23 7.33 7.33 0 0 0 0 6.46 5.72 5.72 0 0 0 2.05 2.25 5.48 5.48 0 0 0 3 .81 5.61 5.61 0 0 0 2.36-.5 5.79 5.79 0 0 0 1.84-1.39l.18 1.64h3V53.75h-3.47zm0 4.87a2.92 2.92 0 0 1-.41 1.53 3 3 0 0 1-1.12 1.06 3.1 3.1 0 0 1-1.55.39 3 3 0 0 1-1.58-.42 3 3 0 0 1-1.13-1.14 3.45 3.45 0 0 1 0-3.26 2.94 2.94 0 0 1 1.11-1.13 3 3 0 0 1 1.58-.41 3.1 3.1 0 0 1 1.55.38 3 3 0 0 1 1.12 1 2.89 2.89 0 0 1 .41 1.53zm16.5-3.84a5 5 0 0 0-2-2 6.4 6.4 0 0 0-3.06-.69 9.88 9.88 0 0 0-2.42.32 11.6 11.6 0 0 0-2.48.95l.95 2.65a4.94 4.94 0 0 1 1.5-.8 5.28 5.28 0 0 1 1.65-.27 4.19 4.19 0 0 1 1.58.29 2.69 2.69 0 0 1 1.11.82 2 2 0 0 1 .41 1.25v.31a7.74 7.74 0 0 0-1.52-.5 7.46 7.46 0 0 0-1.62-.19 5.77 5.77 0 0 0-2.47.51 4.06 4.06 0 0 0-1.69 1.38 3.68 3.68 0 0 0 0 4 3.81 3.81 0 0 0 1.56 1.35 5 5 0 0 0 2.26.49 5.07 5.07 0 0 0 2.15-.44 4.61 4.61 0 0 0 1.65-1.24l.18 1.44h3v-6.63a6.05 6.05 0 0 0-.74-3zm-2.77 5a2 2 0 0 1-.42 1.15 2.77 2.77 0 0 1-1 .82 3 3 0 0 1-1.32.3 2.54 2.54 0 0 1-1-.2 1.76 1.76 0 0 1-.7-.55 1.34 1.34 0 0 1 .37-1.93 2.79 2.79 0 0 1 1.62-.44 4.53 4.53 0 0 1 1.31.2 4.42 4.42 0 0 1 1.18.56z"/>
</svg>
