<svg xmlns="http://www.w3.org/2000/svg" xml:space="preserve" width="600" height="100">
	<defs>
		<clipPath clipPathUnits="userSpaceOnUse" id="a">
			<path d="M912.684 668.895V167.32h115.746v148.821h55.12l82.68-148.821h148.82l-110.24 192.914c31.23 16.536 94.8 68.344 99.21 143.305 5.51 93.703-71.65 165.356-165.35 165.356zM1028.1 555.078V444.84h88.19c16.54 1.84 49.61 16.535 49.61 60.633 0 44.093-40.42 51.441-60.63 49.605z" clip-rule="evenodd"/>
		</clipPath>
		<clipPath clipPathUnits="userSpaceOnUse" id="b">
			<path d="M0 0h4500v750H0Z"/>
		</clipPath>
		<clipPath clipPathUnits="userSpaceOnUse" id="c">
			<path d="M2078.99 346.082c0 42.047-31.24 72.684-74.38 72.684-43.13 0-72.13-29.211-72.13-72.684 0-43.469 28.25-72.687 71.4-72.687 43.87 0 75.11 29.218 75.11 72.687zm129.39 347.754V165.059h-127.91v49.175c-23.06-35.636-58.76-57.019-109.32-57.019-103.38 0-173.29 75.543-173.29 188.855 0 112.594 73.63 188.848 175.51 188.848 46.12 0 80.32-18.531 102.63-49.887v208.805z" clip-rule="evenodd"/>
		</clipPath>
		<clipPath clipPathUnits="userSpaceOnUse" id="d">
			<path d="M0 0h4500v750H0Z"/>
		</clipPath>
		<clipPath clipPathUnits="userSpaceOnUse" id="e">
			<path d="M3902.98 346.082c0 42.047-31.23 72.684-74.38 72.684-43.13 0-72.13-29.211-72.13-72.684 0-43.469 28.26-72.687 71.4-72.687 43.88 0 75.11 29.218 75.11 72.687zm129.43 347.754V165.059H3904.5v49.175c-23.06-35.636-58.76-57.019-109.33-57.019-103.37 0-173.28 75.543-173.28 188.855 0 112.594 73.63 188.848 175.51 188.848 46.11 0 80.32-18.531 102.63-49.887v208.805z" clip-rule="evenodd"/>
		</clipPath>
		<clipPath clipPathUnits="userSpaceOnUse" id="f">
			<path d="M0 0h4500v750H0Z"/>
		</clipPath>
		<clipPath clipPathUnits="userSpaceOnUse" id="g">
			<path d="M2405.85 347.75c0-42.047 31.23-72.684 74.37-72.684 43.13 0 72.13 29.215 72.13 72.684 0 43.473-28.25 72.691-71.39 72.691-43.88 0-75.11-29.218-75.11-72.691zM2276.45 0v528.777h127.91v-49.175c23.06 35.632 58.76 57.015 109.32 57.015 103.38 0 173.29-75.539 173.29-188.855 0-112.594-73.63-188.848-175.51-188.848-46.12 0-80.32 18.531-102.63 49.887V0Z" clip-rule="evenodd"/>
		</clipPath>
		<clipPath clipPathUnits="userSpaceOnUse" id="h">
			<path d="M0 0h4500v750H0Z"/>
		</clipPath>
		<clipPath clipPathUnits="userSpaceOnUse" id="i">
			<path d="M3139.61 512.945v-357.91H3011.7v49.176c-23.07-35.637-58.76-57.02-109.33-57.02-103.37 0-173.28 75.539-173.28 188.856 0 112.594 73.63 188.848 175.51 188.848 46.11 0 80.32-18.532 102.63-49.883v37.933zm-140.42-176.906c0 42.047-31.23 72.684-74.37 72.684s-72.13-29.215-72.13-72.684c0-43.473 28.25-72.691 71.39-72.691 43.88 0 75.11 29.218 75.11 72.691z" clip-rule="evenodd"/>
		</clipPath>
		<clipPath clipPathUnits="userSpaceOnUse" id="j">
			<path d="M0 0h4500v750H0Z"/>
		</clipPath>
		<clipPath clipPathUnits="userSpaceOnUse" id="k">
			<path d="M4493.21 528.277v-357.91H4365.3v49.176c-23.06-35.633-58.76-57.016-109.32-57.016-103.38 0-173.29 75.539-173.29 188.856 0 112.594 73.63 188.847 175.51 188.847 46.11 0 80.32-18.535 102.63-49.886v37.933zm-140.4-176.902c0 42.043-31.23 72.684-74.38 72.684-43.13 0-72.13-29.215-72.13-72.684 0-43.473 28.25-72.691 71.4-72.691 43.88 0 75.11 29.218 75.11 72.691z" clip-rule="evenodd"/>
		</clipPath>
		<clipPath clipPathUnits="userSpaceOnUse" id="l">
			<path d="M0 0h4500v750H0Z"/>
		</clipPath>
		<clipPath clipPathUnits="userSpaceOnUse" id="m">
			<path d="M3199.49 157.254V515.52h104.73v-50.129s20.85 55.64 126.77 55.64c99.21 0 135.96-82.676 137.79-126.769V157.254h-126.77v187.402c0 22.047-5.51 71.653-60.63 71.653-44.09 0-58.79-40.418-60.63-60.629V157.254Z"/>
		</clipPath>
		<clipPath clipPathUnits="userSpaceOnUse" id="n">
			<path d="M0 0h4500v750H0Z"/>
		</clipPath>
		<clipPath clipPathUnits="userSpaceOnUse" id="o">
			<path d="M1615.86 391.789c-3.69 28.996-28.04 46.672-63.47 46.672-36.16 0-59.03-14.852-68.63-46.672zm125.47-79.23h-259.78c8.86-33.942 31.74-50.914 69.38-50.914 31.73 0 52.39 10.605 62.72 32.535l124.24-1.289c-23.31-93.246-109.47-132.371-189.91-132.371-114.39 0-197.05 79.203-197.05 188.105 0 107.492 84.87 186.695 202.95 186.695 112.91 0 188.93-78.5 188.93-188.109 0-19.793-1.48-34.652-1.48-34.652z" clip-rule="evenodd"/>
		</clipPath>
		<clipPath clipPathUnits="userSpaceOnUse" id="p">
			<path d="M0 0h4500v750H0Z"/>
		</clipPath>
		<clipPath clipPathUnits="userSpaceOnUse" id="q">
			<path d="M0 750V90h265.609v80.488H80.489v499.024h101.827V750Z" clip-rule="evenodd"/>
		</clipPath>
		<clipPath clipPathUnits="userSpaceOnUse" id="r">
			<path d="M0 0h4500v750H0Z"/>
		</clipPath>
		<clipPath clipPathUnits="userSpaceOnUse" id="s">
			<path d="M237.051 669.512h36V750h-36z"/>
		</clipPath>
		<clipPath clipPathUnits="userSpaceOnUse" id="t">
			<path d="M395.258 750v-80.488h185.121V170.488H478.551V90h182.316v660z" clip-rule="evenodd"/>
		</clipPath>
		<clipPath clipPathUnits="userSpaceOnUse" id="u">
			<path d="M0 0h4500v750H0Z"/>
		</clipPath>
		<clipPath clipPathUnits="userSpaceOnUse" id="v">
			<path d="M398.82 90h36v80.488h-36z"/>
		</clipPath>
		<clipPath clipPathUnits="userSpaceOnUse" id="w">
			<path d="M219.93 582.48V481.008l140.285-63.684 111.765 50.735z" clip-rule="evenodd"/>
		</clipPath>
		<clipPath clipPathUnits="userSpaceOnUse" id="x">
			<path d="M0 0h4500v750H0Z"/>
		</clipPath>
		<clipPath clipPathUnits="userSpaceOnUse" id="y">
			<path d="m471.98 468.059-111.765-50.735-140.285-63.683V252.164l252.05 114.422z" clip-rule="evenodd"/>
		</clipPath>
		<clipPath clipPathUnits="userSpaceOnUse" id="z">
			<path d="M0 0h4500v750H0Z"/>
		</clipPath>
	</defs>
	<g clip-path="url(#a)" transform="matrix(.13333 0 0 -.13333 0 100)">
		<g clip-path="url(#b)">
			<path d="M902.684 157.32h422.367v521.574H902.684Z" style="fill:#2d2929;fill-opacity:1;fill-rule:nonzero;stroke:none"/>
		</g>
	</g>
	<g clip-path="url(#c)" transform="matrix(.13333 0 0 -.13333 0 100)">
		<g clip-path="url(#d)">
			<path d="M1787.86 147.215h430.52v556.621h-430.52z" style="fill:#2d2929;fill-opacity:1;fill-rule:nonzero;stroke:none"/>
		</g>
	</g>
	<g clip-path="url(#e)" transform="matrix(.13333 0 0 -.13333 0 100)">
		<g clip-path="url(#f)">
			<path d="M3611.89 147.215h430.52v556.621h-430.52z" style="fill:#2d2929;fill-opacity:1;fill-rule:nonzero;stroke:none"/>
		</g>
	</g>
	<g clip-path="url(#g)" transform="matrix(.13333 0 0 -.13333 0 100)">
		<g clip-path="url(#h)">
			<path d="M2266.45-10h430.52v556.617h-430.52z" style="fill:#2d2929;fill-opacity:1;fill-rule:nonzero;stroke:none"/>
		</g>
	</g>
	<g clip-path="url(#i)" transform="matrix(.13333 0 0 -.13333 0 100)">
		<g clip-path="url(#j)">
			<path d="M2719.09 137.191h430.52v397.703h-430.52z" style="fill:#2d2929;fill-opacity:1;fill-rule:nonzero;stroke:none"/>
		</g>
	</g>
	<g clip-path="url(#k)" transform="matrix(.13333 0 0 -.13333 0 100)">
		<g clip-path="url(#l)">
			<path d="M4072.69 152.527h430.52V550.23h-430.52z" style="fill:#2d2929;fill-opacity:1;fill-rule:nonzero;stroke:none"/>
		</g>
	</g>
	<g clip-path="url(#m)" transform="matrix(.13333 0 0 -.13333 0 100)">
		<g clip-path="url(#n)">
			<path d="M3189.49 147.254h389.293v383.777H3189.49Z" style="fill:#2d2929;fill-opacity:1;fill-rule:nonzero;stroke:none"/>
		</g>
	</g>
	<g clip-path="url(#o)" transform="matrix(.13333 0 0 -.13333 0 100)">
		<g clip-path="url(#p)">
			<path d="M1340.93 150.52h411.879v394.801H1340.93Z" style="fill:#2d2929;fill-opacity:1;fill-rule:nonzero;stroke:none"/>
		</g>
	</g>
	<g clip-path="url(#q)" transform="matrix(.13333 0 0 -.13333 0 100)">
		<g clip-path="url(#r)">
			<path d="M-10 80h285.609v680H-10Z" style="fill:#2b2525;fill-opacity:1;fill-rule:nonzero;stroke:none"/>
		</g>
	</g>
	<g clip-path="url(#s)" transform="matrix(.13333 0 0 -.13333 0 100)">
		<path d="M227.051 659.512h56V760h-56z" style="fill:#2b2525;fill-opacity:1;fill-rule:nonzero;stroke:none"/>
	</g>
	<g clip-path="url(#t)" transform="matrix(.13333 0 0 -.13333 0 100)">
		<g clip-path="url(#u)">
			<path d="M385.258 80h285.609v680H385.258Z" style="fill:#2b2525;fill-opacity:1;fill-rule:nonzero;stroke:none"/>
		</g>
	</g>
	<g clip-path="url(#v)" transform="matrix(.13333 0 0 -.13333 0 100)">
		<path d="M388.82 80h56v100.488h-56z" style="fill:#2b2525;fill-opacity:1;fill-rule:nonzero;stroke:none"/>
	</g>
	<g clip-path="url(#w)" transform="matrix(.13333 0 0 -.13333 0 100)">
		<g clip-path="url(#x)">
			<path d="M209.93 407.324h272.051V592.48H209.93Z" style="fill:#d95455;fill-opacity:1;fill-rule:nonzero;stroke:none"/>
		</g>
	</g>
	<g clip-path="url(#y)" transform="matrix(.13333 0 0 -.13333 0 100)">
		<g clip-path="url(#z)">
			<path d="M209.93 242.164h272.051v235.895H209.93Z" style="fill:#f05d5f;fill-opacity:1;fill-rule:nonzero;stroke:none"/>
		</g>
	</g>
</svg>
