<svg xmlns="http://www.w3.org/2000/svg" viewBox="-4.06 -4.06 211.12 166.62">
	<path fill="#2F2C2C" d="M0 116.071h10.856c3.888 0 6.925.887 9.11 2.661 2.186 1.759 3.278 4.143 3.278 7.152 0 2.142-.574 3.994-1.724 5.555-1.135 1.547-2.746 2.689-4.832 3.427L24.266 148h-7.301l-7.067-12.24H6.514V148H0v-31.929zm10.09 14.283c2.142 0 3.767-.398 4.874-1.192 1.121-.795 1.682-1.881 1.682-3.257 0-1.377-.56-2.455-1.682-3.236-1.107-.78-2.732-1.17-4.874-1.17H6.514v8.855h3.576zm21.86 8.833a5.607 5.607 0 0 0 2.108 2.874c1.036.738 2.242 1.107 3.618 1.107 1.476 0 2.696-.234 3.661-.703a10.77 10.77 0 0 0 2.661-1.851l3.704 4.427c-1.646 1.291-3.278 2.178-4.896 2.661-1.603.482-3.143.724-4.619.724-2.355 0-4.434-.476-6.237-1.427-1.802-.965-3.214-2.284-4.236-3.959-1.021-1.689-1.532-3.604-1.532-5.747 0-2.114.49-3.995 1.469-5.641a10.6 10.6 0 0 1 4.001-3.916c1.703-.965 3.633-1.448 5.79-1.448 2.143 0 4.044.475 5.705 1.426a10.496 10.496 0 0 1 3.959 3.917c.965 1.66 1.447 3.562 1.447 5.705v1.851H31.95zm10.303-3.405c-.298-1.249-.908-2.257-1.83-3.023s-2.03-1.149-3.321-1.149c-1.306 0-2.441.39-3.406 1.17-.951.781-1.575 1.781-1.873 3.002h10.43zm8.876 1.575c0-2.129.447-4.023 1.341-5.684.894-1.674 2.122-2.987 3.683-3.937 1.575-.965 3.356-1.448 5.342-1.448 1.334 0 2.576.227 3.725.681a9.887 9.887 0 0 1 3.065 1.852v-12.75h6.13V148h-5.789l-.149-2.299a9.644 9.644 0 0 1-3.129 2.022c-1.178.468-2.462.703-3.853.703-1.986 0-3.767-.476-5.343-1.427-1.56-.965-2.788-2.277-3.682-3.938-.894-1.674-1.341-3.576-1.341-5.704zm6.343 0c0 1.646.511 3.015 1.533 4.108 1.022 1.093 2.313 1.639 3.874 1.639 1.56 0 2.852-.546 3.874-1.639 1.022-1.093 1.533-2.462 1.533-4.108 0-1.646-.511-3.016-1.533-4.108-1.022-1.093-2.313-1.639-3.874-1.639s-2.852.546-3.874 1.639c-1.022 1.092-1.533 2.462-1.533 4.108zm22.478-10.643h5.79l.15 2.299a9.366 9.366 0 0 1 3.128-2.001c1.192-.483 2.476-.724 3.853-.724 2 0 3.782.483 5.343 1.448 1.56.95 2.788 2.263 3.682 3.937.894 1.661 1.341 3.555 1.341 5.684 0 2.128-.447 4.03-1.341 5.704-.894 1.661-2.121 2.973-3.682 3.938-1.561.951-3.342 1.427-5.343 1.427-1.334 0-2.576-.22-3.725-.66a10.24 10.24 0 0 1-3.065-1.873v12.75h-6.13v-31.929zm11.537 4.896c-1.56 0-2.852.546-3.874 1.639-1.021 1.092-1.532 2.462-1.532 4.108 0 1.646.51 3.015 1.532 4.108 1.022 1.093 2.313 1.639 3.874 1.639s2.853-.546 3.874-1.639c1.022-1.093 1.533-2.462 1.533-4.108 0-1.646-.51-3.016-1.533-4.108-1.021-1.093-2.313-1.639-3.874-1.639zm15.113 10.536c0-1.419.405-2.689 1.214-3.81.823-1.121 1.951-2.008 3.384-2.661 1.433-.653 3.072-.979 4.917-.979.582 0 1.192.036 1.831.106.653.071 1.305.164 1.958.277-.468-2.313-2.15-3.469-5.045-3.469-1.717 0-3.441.645-5.172 1.937l-2.108-5.173c1.476-.709 2.931-1.234 4.364-1.575 1.433-.341 2.796-.511 4.087-.511 2.058 0 3.839.39 5.343 1.171 1.518.766 2.696 1.859 3.533 3.278.838 1.405 1.256 3.058 1.256 4.96V148h-5.151l-.404-2.278c-.795.837-1.767 1.497-2.917 1.98-1.135.482-2.384.724-3.746.724-2.157 0-3.924-.582-5.3-1.746-1.363-1.164-2.044-2.675-2.044-4.534zm6.131-1.405c0 .71.269 1.285.809 1.724.553.426 1.277.639 2.171.639 1.22 0 2.242-.369 3.065-1.107.837-.738 1.256-1.646 1.256-2.724v-.426a11.645 11.645 0 0 0-1.703-.405 10.77 10.77 0 0 0-1.767-.149c-1.206 0-2.15.213-2.831.639-.667.426-1 1.029-1 1.809zM131.292 148v-21.286h5.364l.256 2.597a8.616 8.616 0 0 1 3.001-2.235c1.178-.525 2.469-.788 3.874-.788 2.483 0 4.463.823 5.939 2.469 1.476 1.632 2.214 3.91 2.214 6.833V148h-6.152v-11.218c0-3.448-1.291-5.172-3.874-5.172-1.334 0-2.42.489-3.257 1.468-.823.979-1.235 2.356-1.235 4.13V148h-6.13zm24.266-10.643c0-2.129.447-4.023 1.341-5.684.894-1.674 2.122-2.987 3.683-3.937 1.575-.965 3.356-1.448 5.342-1.448 1.334 0 2.576.227 3.726.681a9.892 9.892 0 0 1 3.065 1.852v-12.75h6.13V148h-5.79l-.149-2.299a9.644 9.644 0 0 1-3.129 2.022c-1.178.468-2.462.703-3.853.703-1.986 0-3.767-.476-5.342-1.427-1.561-.965-2.789-2.277-3.683-3.938-.894-1.674-1.341-3.576-1.341-5.704zm6.343 0c0 1.646.511 3.015 1.533 4.108 1.022 1.093 2.313 1.639 3.874 1.639s2.852-.546 3.874-1.639c1.022-1.093 1.533-2.462 1.533-4.108 0-1.646-.511-3.016-1.533-4.108-1.022-1.093-2.313-1.639-3.874-1.639s-2.852.546-3.874 1.639c-1.022 1.092-1.533 2.462-1.533 4.108zm21.797 4.789c0-1.419.405-2.689 1.214-3.81.823-1.121 1.951-2.008 3.384-2.661 1.433-.653 3.072-.979 4.917-.979.582 0 1.192.036 1.831.106.652.071 1.305.164 1.958.277-.468-2.313-2.15-3.469-5.045-3.469-1.717 0-3.441.645-5.172 1.937l-2.108-5.173c1.476-.709 2.931-1.234 4.364-1.575 1.433-.341 2.796-.511 4.087-.511 2.058 0 3.839.39 5.343 1.171 1.518.766 2.696 1.859 3.533 3.278.837 1.405 1.256 3.058 1.256 4.96V148h-5.151l-.405-2.278c-.794.837-1.766 1.497-2.916 1.98-1.135.482-2.384.724-3.746.724-2.157 0-3.924-.582-5.3-1.746-1.363-1.164-2.044-2.675-2.044-4.534zm6.131-1.405c0 .71.269 1.285.809 1.724.553.426 1.277.639 2.171.639 1.22 0 2.242-.369 3.065-1.107.837-.738 1.256-1.646 1.256-2.724v-.426a11.645 11.645 0 0 0-1.703-.405 10.77 10.77 0 0 0-1.767-.149c-1.206 0-2.15.213-2.831.639-.667.426-1 1.029-1 1.809z"/>
	<g fill-rule="evenodd" clip-path="url(#a)" clip-rule="evenodd">
		<path fill="#310401" d="m60.828.062 4.793 4.136L86.866 9.03h28.259l21.479-5.026 4.568-3.942 12.626 2.504 1.99 27.016 6.816 7.394L165 52.156l-10.518 10.39 9.047 15.694-7.667-1.773 4.11 10.222-34.74 11.434L101 99.938l-24.231-1.815L42.028 86.69l4.11-10.222-7.667 1.773 9.047-15.693L37 52.156l2.396-15.18 6.816-7.394 1.99-27.016L60.828.062z"/>
		<path fill="#310401" d="M127.555 18.037c29.835-35.726 23.3 47.555 22.682 43.432l-1.15.314-.716-.955c-8.054-10.734-28.829-31.464-20.816-42.79zm-53.11 0C44.612-17.689 51.147 65.592 51.764 61.47l1.15.314.717-.955c8.054-10.734 28.828-31.464 20.816-42.79z"/>
		<path fill="#CB3805" d="M101 12.435h14.489l11.944 7.312 7.929 16.196 4.05-4.291-.924 7.279 6.68 1.771-5.542 2.638 17.539 30.427-6.495-1.501 5.115 12.717-31.172 10.26L101 97.01l-23.611-1.769-31.174-10.26 5.115-12.716-6.494 1.5L62.374 43.34l-5.542-2.638 6.68-1.771-.923-7.28 4.05 4.292 7.929-16.196 11.943-7.312H101z"/>
		<path fill="#780500" d="m115.113 70.938 8.65-4.195 3.55-14.855 9.066 24.54-11.766 18.814L101 97.011V66.272l14.113 4.666zm-28.225 0-8.65-4.195-3.55-14.855-9.066 24.54 11.767 18.814L101 97.011V66.272l-14.112 4.666z"/>
		<path fill="#ED6437" d="m133.591 32.324 1.771 3.619 4.05-4.291-.924 7.279 6.68 1.771-5.542 2.638 17.539 30.427-6.495-1.501 5.115 12.717-14.267 4.695 9.461-7.912-17.63-49.334.242-.108z"/>
		<path fill="#FEE7D5" d="m101 63.285 4.85.165 9.263 7.488 6.707-.01 4.662 7.094-15.234 16.757L101 97.011l-10.248-2.232-15.234-16.757 4.663-7.094 6.707.01 9.262-7.488 4.85-.166z"/>
		<path fill="#F0BC95" d="M101 92.538h8.25l5.255-11.3 7.415 1.801-10.672 11.74L101 97.011l-10.248-2.232-8.948-9.843 6.61-1.562 4.337 9.164H101zm5.663-39.675-2.201-13.235 9.561-2.664.935 12.56-8.295 3.339zm15.225-9.775-5.299-4.225.705 10.318 3.995-.831.599-5.262z"/>
		<path fill="#FEE7D5" d="m126.178 27.514-1.057-9.183 16.947-14.625 8.758 1.737 1.894 25.716 6.216 6.743-5.543 13.971 6.629-7.355 1.518 6.858-9.224 9.112-9.527-11.659 7.776-6.936-4.991-9.009-.848-15.818-11.377 15.366-7.171-4.918z"/>
		<path fill="#F0BC95" d="m152.316 60.488-9.527-11.659 7.776-6.935-4.992-9.01-.846-15.818 2.927 15.824 5.708 6.413.031 12.57-1.078 8.615h.001zm-7.589-43.422-11.378 15.366-7.171-4.918 6.859 1.192 11.69-11.64z"/>
		<path fill="#780500" d="m125.121 18.331-9.632-5.896 22.499-5.209-12.867 11.105z"/>
		<path fill="#310401" d="m101 73.764 6.378-.913.852 1.69-6.103 5.269-.053 3.42.927.86 9.382-1.318 2.122-1.534.975.871-1.512 3.245-1.706-.841L101 85.777h-9.367l-1.707.842-1.512-3.245.975-.87 2.123 1.533 7.487.053.928-.86-.053-3.42-6.104-5.27.852-1.689 6.378.913z"/>
		<path fill="#F0BC95" d="m101 73.958 6.379-1.107-4.006-8.975-2.373.002-2.373-.002-4.005 8.975L101 73.958z"/>
		<path fill="#310401" d="m115.442 67.46 5.102-2.877 2.138-6.075-7.117-3.822-5.511 3.187-1.621 7.157 7.009 2.43z"/>
		<path fill="#FEE7D5" d="m134.996 78.637-10.383 16.605 16.905-5.564 4.404-12.464-4.936-5.601 4.635-.08-18.308-19.645 7.683 26.75z"/>
		<path fill="#ED6437" d="m101 63.285 4.85.165-1.814-8.612h-6.072L96.15 63.45l4.85-.166z"/>
		<path fill="#780500" d="m115.483 56.18-4.558 2.566-.243 4.758 4.454 2.3 4.455-2.3.348-4.81-4.456-2.514z"/>
		<path fill="#310401" d="m115.178 57.323-2.997 1.688-.16 3.13 2.93 1.513 2.93-1.514.229-3.164-2.932-1.653z"/>
		<path fill="#FEE7D5" d="m116.761 56.453-1.505.9-.065 1.893 1.667.86 1.667-.86.13-1.8-1.894-.993z"/>
		<path fill="#ED6437" d="M101 12.435v12.707l12.687-12.707H101z"/>
		<path fill="#F0BC95" d="m124.613 95.242 3.847-6.153 9.85-4.395 3.62-7.251-.944-5.83 4.936 5.6-4.404 12.465-16.905 5.564z"/>
		<path fill="#FEE7D5" d="m114.023 36.964-9.561 2.663L106.37 51.1l4.253-2.26 3.4-11.875zm7.864 6.124-5.298-4.225 2.387 8.163 2.911-3.938z"/>
		<path fill="#ED6437" d="m68.41 32.324-1.772 3.619-4.049-4.291.923 7.279-6.68 1.771 5.542 2.638-17.538 30.427 6.494-1.501-5.115 12.717 14.267 4.695-9.46-7.912 17.63-49.334-.242-.108z"/>
		<path fill="#F0BC95" d="m95.337 50.333 2.2-13.235-9.56-2.664-.935 12.56 8.295 3.34zm-15.224-8.51 5.298-4.225-.705 10.318-3.994-.831-.6-5.262z"/>
		<path fill="#780500" d="m76.88 18.331 9.631-5.896-22.499-5.209L76.88 18.331z"/>
		<path fill="#310401" d="m86.558 67.46-5.101-2.877-2.138-6.075 7.116-3.822 5.512 3.187 1.62 7.157-7.01 2.43z"/>
		<path fill="#FEE7D5" d="m67.004 78.637 10.384 16.605-16.906-5.564-4.404-12.464 4.936-5.601-4.634-.08 18.308-19.645-7.684 26.75z"/>
		<path fill="#780500" d="m86.518 56.18 4.557 2.566.243 4.758-4.454 2.3-4.455-2.3-.348-4.81 4.457-2.514z"/>
		<path fill="#310401" d="m86.822 57.323 2.997 1.688.16 3.13-2.93 1.513-2.93-1.514-.229-3.164 2.932-1.653z"/>
		<path fill="#FEE7D5" d="m85.24 56.453 1.505.9.064 1.893-1.666.86-1.667-.86-.13-1.8 1.893-.993z"/>
		<path fill="#ED6437" d="M101 12.435v12.707L88.313 12.435H101z"/>
		<path fill="#F0BC95" d="m77.388 95.242-3.847-6.153-9.85-4.395-3.62-7.251.943-5.83-4.936 5.6 4.404 12.465 16.906 5.564z"/>
		<path fill="#FEE7D5" d="m87.977 34.434 9.56 2.663-1.906 11.472-4.254-2.26-3.4-11.875zm-7.864 7.389 5.298-4.225-2.386 8.163-2.912-3.938zm-4.291-14.309 1.057-9.183L59.932 3.706l-8.758 1.737L49.28 31.16l-6.216 6.743 5.543 13.971-6.63-7.355-1.517 6.858 9.225 9.112L59.21 48.83l-7.775-6.936 4.992-9.009.846-15.818 11.378 15.366 7.171-4.918z"/>
		<path fill="#F0BC95" d="m49.684 60.488 9.527-11.659-7.776-6.935 4.992-9.01.847-15.818-2.928 15.824-5.708 6.413-.03 12.57 1.077 8.615zm7.59-43.422L68.65 32.432l7.171-4.918-6.86 1.192-11.688-11.64z"/>
		<path fill="#FEE7D5" d="m110.054 57.873-1.621 7.157-2.583-1.58 1.76-8.172 7.378-3.765 9.606 4.182-1.912 2.813-7.117-3.822-5.511 3.187zm-18.107 0 1.62 7.157 2.583-1.58-1.76-8.172-7.378-3.765-9.605 4.182 1.911 2.813 7.117-3.822 5.512 3.187z"/>
	</g>
	<defs>
		<clipPath id="a">
			<path fill="#fff" d="M0 0h128v100H0z" transform="translate(37)"/>
		</clipPath>
	</defs>
</svg>
