<svg xmlns="http://www.w3.org/2000/svg" width="200" height="128">
	<path d="M133.976 33.911a11.3 11.3 0 0 1 1.844 1.789c2.608 3.376 4.76 6.9 7.06 10.448a4.452 4.452 0 0 0-3.236 1.064 69.732 69.732 0 0 1-6.908-6.028c-1.332-1.46-2.688-2.652-3.44-4.532a2.666 2.666 0 0 1 .992-2.448 4.761 4.761 0 0 1 3.688-.293zM128 40.207c4.308.892 8.248 4.372 11.248 7.452a9.377 9.377 0 0 0-1.6 3.6l.164-.984c-.812-.332-1.64-.616-2.464-.924-3.868-1.664-8.092-2.956-11.764-5.032a2.463 2.463 0 0 1-.436-3.632c1.26-.96 3.372-.56 4.852-.48zm28.376 8.672h.012c2.416.76 5.418.4 7.592.8s2.385.544 2.984 1.256a3.826 3.826 0 0 1-2.148 5.94c-1.159.08-3.212-.944-4.836-1.268-2.852-.8-5.664-2.112-8.528-2.708a97.994 97.994 0 0 1 10.756 4.816c1.012.744 1.268 1.795.792 2.4a5.789 5.789 0 0 1-1.984 1.616c-.952.488-1.9 1.116-2.952.464-4.448-2.352-8.56-5.4-12.788-8.132 1.472-.772 2.648-1.72 4.316-.736 1.324-.664 2.028-1.78 3.02-2.772 1.244-.592 2.552-1.012 3.764-1.676z" fill="#5987c6"/>
	<path d="M107 50.507a4.359 4.359 0 0 1-1.868 6.892 4.4 4.4 0 0 1-5.372-2.04 4.3 4.3 0 0 1 1.568-5.72 4.416 4.416 0 0 1 5.672.868zm69.392-11.06c-7.232 2.768-14.38 5.664-21.676 8.268a36.434 36.434 0 0 1-4.668 1.376 19.887 19.887 0 0 1-5.3-2.312 3.633 3.633 0 0 0-1.864-.628 4.452 4.452 0 0 0-3.236 1.064l-.392.444a9.377 9.377 0 0 0-1.6 3.6c-1.336-.74-2.76-1.772-4.24-.688-1.016 1.232-.864 2.7-.732 4.2a7.242 7.242 0 0 0 3.716 2.568c.944.2 1.02-.8 1.336-1.416.36-.692-.14-1.26.772-1.524l-.4.88c.544.348.828-.016 1.368-.136a19.045 19.045 0 0 0-.612 4.368c-.976-.7-.772-1.664-.3-2.6a1.733 1.733 0 0 0-.52-1.44 26.056 26.056 0 0 1-.612 3.1c.292.588.732 1.108 1.08 1.668a1.261 1.261 0 0 0 .828-.2c.388-1.216.012-3.692 1.036-4.476l.568.152c.256 1 .46 2.012.644 3.028-.464 1.268-1.672 2.68-1.64 4a3.654 3.654 0 0 1 .487-.485c.605-.841 1.444-2.656 1.817-3.3-.064-1.08-.488-2.088-.548-3.176 1.236-.392 1.3 1.132 1.72 1.9.68 1.392-1.692 3.167-2.422 4.465l-.186.819a18.8 18.8 0 0 0 3.4-4.04c.14-1.164-.564-2.412-1.032-3.448.688-.484 1.392-.948 2.088-1.416 1.472-.772 2.648-1.72 4.316-.736 1.324-.664 2.028-1.78 3.02-2.772 1.244-.6 2.552-1.016 3.764-1.68h.012c.976-.244 16.636-6.364 23.612-8.892v-.408c-1.208-.435-2.296-.091-3.604-.127zm-144.4 25.016a10.488 10.488 0 0 1 6.936 1.5l.036.324c-1.056 1.936-2.076 3.88-3.02 5.88-1.82-1.2-3.736-1.888-5.86-.952-2.508 1.16-3.016 3.9-3.2 6.384-.02 5.316-.008 10.652-.008 15.972l-.116.172c-2.252.04-4.508 0-6.76.016V65c2.288.012 4.576-.024 6.86.016.028.808.008 1.608.008 2.416 1.5-1.389 2.952-2.877 5.124-2.969zm60.66 5.556c-1.816 1.072-3.744 2.008-5.592 3.02-.768-1.348-1.664-2.8-3.448-2.62a1.955 1.955 0 0 0-1.388 3.272c1.376 1.4 3.736 2.068 5.456 2.948a17.39 17.39 0 0 1 5.3 3.5c2.064 2.624 1.916 6.656.328 9.476a9.708 9.708 0 0 1-7.5 4.7h-3.332c-4.16-.192-7.14-3.192-8.664-6.872 1.968-.772 3.852-1.892 5.824-2.588a11.77 11.77 0 0 0 1.74 2.488 4.173 4.173 0 0 0 5.5.26c.832-.78.712-2.072.532-3.1-1.088-1.912-3.344-2.692-5.232-3.568-1.98-.992-4.1-1.888-5.52-3.664a8.432 8.432 0 0 1 .04-9.064 8.761 8.761 0 0 1 8.116-3.8c3.732-.096 6.272 2.472 7.84 5.612zM106.972 65c.048 9.576 0 19.176.02 28.756-2.208.036-4.44 0-6.652.02-.028-9.548-.016-19.124-.008-28.672 1.78-.253 4.688-.041 6.64-.104zm21.016-.493c2.952-.224 5.756-.244 8.248 1.572 2.98 1.872 3.824 5.36 4.024 8.656.012 6.34.032 12.7-.008 19.032-2.268-.024-4.54.036-6.8-.032q.012-8.1 0-16.2c-.124-1.984-.076-4.068-1.328-5.748-1.24-1.3-2.82-1.436-4.528-1.356a4.722 4.722 0 0 0-4.4 2.692 16.049 16.049 0 0 0-1.056 6.492c-.1 4.7.036 9.468-.068 14.172-2.236-.044-4.472 0-6.708-.02 0-9.568-.056-19.22.032-28.776 2.232.016 4.464 0 6.7.008.04.88-.024 1.748.064 2.624a11.123 11.123 0 0 1 5.828-3.116zM68.732 86.039c-1.836-.964-3.636-2.16-5.536-2.956-1.16 1.636-2.42 3.656-4.216 4.62a7.666 7.666 0 0 1-7.568-.388 7.855 7.855 0 0 1-3.328-6.3c6.844.008 13.744-.008 20.576.008a19.6 19.6 0 0 0-1.5-9.456 12.153 12.153 0 0 0-7.964-6.724 17.949 17.949 0 0 0-5.2-.424 12.384 12.384 0 0 0-9.492 4.4 16.349 16.349 0 0 0-3.5 11.1 15.4 15.4 0 0 0 3.812 10.392 12.452 12.452 0 0 0 8.164 4.008h4.1a11.816 11.816 0 0 0 7.612-2.912 19.925 19.925 0 0 0 3.86-4.52.967.967 0 0 0 .18-.848zM55.2 70.419a6.012 6.012 0 0 1 6.388 5.2q-6.522-.018-13.036 0a6.556 6.556 0 0 1 6.648-5.2z" fill="#002d62"/>
</svg>
