<svg xmlns="http://www.w3.org/2000/svg" width="200" height="128">
	<path d="M20 75.887v-1.654a.448.448 0 0 1 .507-.507h1.756v-17.56h-1.756A.448.448 0 0 1 20 55.66v-1.69a.448.448 0 0 1 .507-.506q4.322-.2 7.193-.2 8.779 0 8.78 6.281a6.806 6.806 0 0 1-1.115 3.867 7.192 7.192 0 0 1-2.972 2.55l3.952 7.767h2.093a.448.448 0 0 1 .507.506v1.655a.447.447 0 0 1-.506.506h-4.458a.789.789 0 0 1-.744-.438l-4.592-9.088h-.675a16.214 16.214 0 0 1-1.925-.1v6.956h2.127a.449.449 0 0 1 .507.507v1.655a.447.447 0 0 1-.506.506h-7.666a.447.447 0 0 1-.507-.507zm6.045-19.823V64.2a6.873 6.873 0 0 0 .777.033 7.255 7.255 0 0 0 4.255-1.08 3.717 3.717 0 0 0 1.523-3.239q0-3.85-5.335-3.85zM48.4 76.8q-4.019 0-5.893-2.347a9.664 9.664 0 0 1-1.875-6.214 10.027 10.027 0 0 1 1.993-6.4 6.87 6.87 0 0 1 5.741-2.533 6.853 6.853 0 0 1 3.192.694 5.011 5.011 0 0 1 2.042 1.873 10.266 10.266 0 0 1 1.351 5.3 4.138 4.138 0 0 1-.136 1.553.717.717 0 0 1-.506.135h-9.927a6.847 6.847 0 0 0 1.2 3.765 4.24 4.24 0 0 0 3.562 1.334 9.279 9.279 0 0 0 3.816-.878.434.434 0 0 1 .676.27l.641 1.553q.169.407-.3.676A11.519 11.519 0 0 1 48.4 76.8zm-4.018-10.436h7.024q.068-4.221-3.309-4.221a3.11 3.11 0 0 0-2.82 1.266 5.706 5.706 0 0 0-.9 2.955zm18.3-3.917v8.51a4.86 4.86 0 0 0 .405 2.3 1.6 1.6 0 0 0 1.52.709 5.184 5.184 0 0 0 2.161-.473q.372-.135.54.271l.608 1.553a.93.93 0 0 1 .034.287q0 .186-.337.388a8.513 8.513 0 0 1-3.85.811q-3.006 0-3.951-1.554a4.392 4.392 0 0 1-.777-1.958 25.949 25.949 0 0 1-.135-2.7v-8.144h-1.922a.448.448 0 0 1-.507-.507v-1.756a.448.448 0 0 1 .507-.506H58.9v-4.559a.447.447 0 0 1 .506-.506h2.769a.447.447 0 0 1 .507.506v4.559H66.1a.448.448 0 0 1 .506.506v1.756a.448.448 0 0 1-.506.507zm6.418-8.983v-1.756a.447.447 0 0 1 .506-.506h5.1a.447.447 0 0 1 .506.506v10.4a5.979 5.979 0 0 1 5.235-2.8q5.234 0 5.234 5.741v8.679h1.992a.448.448 0 0 1 .507.506v1.655a.448.448 0 0 1-.506.507h-7.4a.448.448 0 0 1-.507-.507v-1.656a.448.448 0 0 1 .507-.507H81.9v-6.991a6.717 6.717 0 0 0-.541-3.106 2.316 2.316 0 0 0-2.228-.979 4.006 4.006 0 0 0-2.8 1.013 3.04 3.04 0 0 0-1.115 2.3v7.767h2.06a.448.448 0 0 1 .507.506v1.655a.448.448 0 0 1-.507.507h-7.668a.448.448 0 0 1-.507-.507v-1.658a.448.448 0 0 1 .506-.507h1.824V53.97h-1.823a.447.447 0 0 1-.508-.506zm26.51 20.262h2.128a.448.448 0 0 1 .506.506v1.655a.448.448 0 0 1-.506.507H89.7a.448.448 0 0 1-.506-.507v-1.654a.448.448 0 0 1 .506-.507h2.128V62.447h-1.823a.448.448 0 0 1-.507-.507v-1.756a.448.448 0 0 1 .502-.506h5.1a.448.448 0 0 1 .506.506v13.542zM90.882 54.95a2.424 2.424 0 0 1 .659-1.739 2.574 2.574 0 0 1 3.512 0 2.423 2.423 0 0 1 .658 1.739 2.332 2.332 0 0 1-.675 1.722 2.394 2.394 0 0 1-1.773.676 2.285 2.285 0 0 1-1.739-.675 2.4 2.4 0 0 1-.642-1.723zm8.544 7.024v-1.789a.448.448 0 0 1 .506-.507h4.593q.439 0 .541.506l.3 1.959a6.109 6.109 0 0 1 5.4-2.837q5.234 0 5.234 5.741v8.679h1.958a.448.448 0 0 1 .507.506v1.655a.448.448 0 0 1-.506.507H110.6a.448.448 0 0 1-.507-.507v-1.654a.448.448 0 0 1 .507-.507h1.621v-6.991a6.73 6.73 0 0 0-.541-3.106 2.317 2.317 0 0 0-2.229-.979 4 4 0 0 0-2.8 1.013 3.04 3.04 0 0 0-1.115 2.3v7.767h2.094a.448.448 0 0 1 .507.506v1.655a.448.448 0 0 1-.507.507h-7.664a.448.448 0 0 1-.506-.507v-1.658a.448.448 0 0 1 .506-.507h1.79V62.447h-1.823c-.338 0-.507-.157-.507-.473zm26.509-10.266v13.474h1.722l5.235-5.133a1.2 1.2 0 0 1 .878-.371h2.63a.447.447 0 0 1 .506.506v1.756a.447.447 0 0 1-.506.506h-2.06l-3.715 3.614 4.626 7.665h1.993a.448.448 0 0 1 .506.507v1.655a.447.447 0 0 1-.506.506h-4.356a.913.913 0 0 1-.777-.438l-5.066-8.173h-1.114v5.944h1.79a.448.448 0 0 1 .506.506v1.655a.447.447 0 0 1-.506.506h-7.362a.447.447 0 0 1-.506-.506v-1.655a.447.447 0 0 1 .506-.506h1.79V53.937h-1.824a.448.448 0 0 1-.506-.506v-1.723a.448.448 0 0 1 .506-.507h5.1a.448.448 0 0 1 .506.507zm14.014 1.756q4.323-.2 6.417-.2t3.123.085a19.883 19.883 0 0 1 2.347.354 11.493 11.493 0 0 1 2.347.726 9.423 9.423 0 0 1 2.077 1.3 8.076 8.076 0 0 1 1.756 1.959 12.63 12.63 0 0 1 1.553 6.619q0 6.113-3.376 9.1t-9.219 2.989h-7.025a.448.448 0 0 1-.506-.507v-1.657a.448.448 0 0 1 .506-.506h1.756V56.2h-1.756a.448.448 0 0 1-.506-.507V53.97a.448.448 0 0 1 .506-.506zm13.525 17.864a10.022 10.022 0 0 0 2.043-6.653q0-4.221-1.908-6.416t-5.96-2.2h-2.161v17.7h2.228a7.105 7.105 0 0 0 5.758-2.432zm8.864 4.559v-1.655a.448.448 0 0 1 .507-.506h1.79V56.2h-1.756a.447.447 0 0 1-.506-.507V53.97c0-.36.168-.54.506-.54q4.052-.168 7.7-.169a10.646 10.646 0 0 1 5.825 1.4 4.484 4.484 0 0 1 2.179 4 4.994 4.994 0 0 1-1.165 3.292A6.926 6.926 0 0 1 174.664 64a6.472 6.472 0 0 1 3.968 1.925A5.352 5.352 0 0 1 180 69.64a5.752 5.752 0 0 1-2.128 4.643 9.567 9.567 0 0 1-5.639 2.009q-1.452.1-4.66.1h-4.728a.448.448 0 0 1-.506-.507zm6.079-10.131v8.037h1.52a9.3 9.3 0 0 0 4.609-.945 3.467 3.467 0 0 0 1.638-3.276q0-3.816-5.336-3.816zm0-9.76v6.957h1.283q5 0 5-3.478a2.95 2.95 0 0 0-1.215-2.719A6.6 6.6 0 0 0 170 56h-1.587z" fill="#264451"/>
</svg>
