<svg xmlns="http://www.w3.org/2000/svg" width="200" height="128">
    <path d="M21.57 54.84H37a1.57 1.57 0 001.57-1.57v-2.43a3.14 3.14 0 00-3.14-3.14H23.14A3.14 3.14 0 0020 50.84v2.43a1.57 1.57 0 001.57 1.57zM51.14 59.13H21.57A1.57 1.57 0 0020 60.7v8.14A3.14 3.14 0 0023.14 72h29.58a1.57 1.57 0 001.57-1.57v-8.16a3.14 3.14 0 00-3.15-3.14zM52.72 76.27H37.29a1.57 1.57 0 00-1.58 1.57v1A3.14 3.14 0 0038.86 82h12.28a3.14 3.14 0 003.15-3.14v-1a1.57 1.57 0 00-1.57-1.59zM89.83 59.64c0-5.9-4.13-9.08-10.78-9.08H67.14v28.22h6.57v-10H77l6.13 10h7.51l-6.8-10.73a8.36 8.36 0 005.99-8.41zM78.7 63.41h-5V56.1h5c3.11 0 4.68 1.33 4.68 3.65s-1.57 3.66-4.68 3.66zM101.83 57.63c-6 0-10.38 4.64-10.38 10.77 0 6.45 4.25 10.81 10.5 10.81 4.13 0 7.9-2.08 9.43-6l-5.27-1.69a4 4 0 01-4.11 2.7c-2.4 0-4.09-1.61-4.52-4.44h14v-1.65c.06-5.86-3.36-10.5-9.65-10.5zm-4.13 8.3c.63-2.28 2.12-3.42 4-3.42a3.35 3.35 0 013.58 3.42zM121.32 71.63v-8.38h4v-5.19h-4v-5.74h-6.22v5.74h-2.63v5.19h2.63v10c0 4.24 2.25 5.74 6.73 5.74a25.17 25.17 0 003.77-.28v-5.16a13.31 13.31 0 01-1.81.12c-1.57 0-2.47-.31-2.47-2.04zM137.72 57.63c-6.13 0-10.37 4.36-10.37 10.81s4.24 10.77 10.37 10.77 10.38-4.32 10.38-10.77-4.28-10.81-10.38-10.81zm0 16.47c-2.51 0-4.12-2-4.12-5.66s1.61-5.66 4.12-5.66 4.13 2 4.13 5.66-1.61 5.66-4.13 5.66zM160.37 57.63C154.24 57.63 150 62 150 68.44s4.24 10.77 10.37 10.77 10.38-4.32 10.38-10.77-4.28-10.81-10.38-10.81zm0 16.47c-2.51 0-4.12-2-4.12-5.66s1.61-5.66 4.12-5.66 4.13 2 4.13 5.66-1.61 5.66-4.13 5.66zM173.71 50.56H180v28.23h-6.29z"/>
</svg>
