<svg xmlns="http://www.w3.org/2000/svg" width="200" height="128">
	<path d="M21.57 54.84H37a1.57 1.57 0 0 0 1.57-1.57v-2.43a3.14 3.14 0 0 0-3.14-3.14H23.14A3.14 3.14 0 0 0 20 50.84v2.43a1.57 1.57 0 0 0 1.57 1.57zm29.57 4.29H21.57A1.57 1.57 0 0 0 20 60.7v8.14A3.14 3.14 0 0 0 23.14 72h29.58a1.57 1.57 0 0 0 1.57-1.57v-8.16a3.14 3.14 0 0 0-3.15-3.14zm1.58 17.14H37.29a1.57 1.57 0 0 0-1.58 1.57v1A3.14 3.14 0 0 0 38.86 82h12.28a3.14 3.14 0 0 0 3.15-3.14v-1a1.57 1.57 0 0 0-1.57-1.59zm37.11-16.63c0-5.9-4.13-9.08-10.78-9.08H67.14v28.22h6.57v-10H77l6.13 10h7.51l-6.8-10.73a8.36 8.36 0 0 0 5.99-8.41zM78.7 63.41h-5V56.1h5c3.11 0 4.68 1.33 4.68 3.65s-1.57 3.66-4.68 3.66zm23.13-5.78c-6 0-10.38 4.64-10.38 10.77 0 6.45 4.25 10.81 10.5 10.81 4.13 0 7.9-2.08 9.43-6l-5.27-1.69a4 4 0 0 1-4.11 2.7c-2.4 0-4.09-1.61-4.52-4.44h14v-1.65c.06-5.86-3.36-10.5-9.65-10.5zm-4.13 8.3c.63-2.28 2.12-3.42 4-3.42a3.35 3.35 0 0 1 3.58 3.42zm23.62 5.7v-8.38h4v-5.19h-4v-5.74h-6.22v5.74h-2.63v5.19h2.63v10c0 4.24 2.25 5.74 6.73 5.74a25.17 25.17 0 0 0 3.77-.28v-5.16a13.31 13.31 0 0 1-1.81.12c-1.57 0-2.47-.31-2.47-2.04zm16.4-14c-6.13 0-10.37 4.36-10.37 10.81s4.24 10.77 10.37 10.77 10.38-4.32 10.38-10.77-4.28-10.81-10.38-10.81zm0 16.47c-2.51 0-4.12-2-4.12-5.66s1.61-5.66 4.12-5.66 4.13 2 4.13 5.66-1.61 5.66-4.13 5.66zm22.65-16.47C154.24 57.63 150 62 150 68.44s4.24 10.77 10.37 10.77 10.38-4.32 10.38-10.77-4.28-10.81-10.38-10.81zm0 16.47c-2.51 0-4.12-2-4.12-5.66s1.61-5.66 4.12-5.66 4.13 2 4.13 5.66-1.61 5.66-4.13 5.66zm13.34-23.54H180v28.23h-6.29z"/>
</svg>
