<svg xmlns="http://www.w3.org/2000/svg" version="1.0" width="602.362" height="207.213">
	<path d="m124.44 567.303-12.653-33.8c-4.678-12.49-7.452-14.042-14.218-14.042v47.842H66.535V446.466h41.613c35.537 0 46.979 14.393 46.979 34.508 0 20.798-10.919 31.374-25.134 33.8 4.163 1.213 9.189 6.763 12.129 13.005 3.99 8.15 14.215 30.509 18.205 39.524H124.44zm-26.87-95.341v24.607h8.841c10.577 0 14.216-5.026 14.216-13.168 0-8.677-4.676-11.44-14.392-11.44h-8.666zm75.554 95.341V446.466h67.96v25.496H204.16v20.28h30.16v24.608h-30.16v24.621h41.428v25.832h-72.463zm197.647 0h-33.11l-6.24-35.024c-2.61-14.555-5.376-30.334-5.9-37.96h-.176c-.35 6.063-2.95 22.192-5.89 37.96l-6.415 35.024h-33.808l-29.297-120.837h32.76l6.764 32.598c5.715 27.21 6.765 39 6.939 43.513h.166c.696-9.713 2.772-24.795 6.073-42.65l6.24-33.46h34.5l7.802 40.4c1.736 9.189 4.163 20.804 4.85 35.536h.176c.687-10.742 4.336-34.15 6.763-45.939l6.066-29.998h33.11l-31.373 120.837zm40.05 0V446.466h67.958v25.496h-36.924v20.28h30.168v24.608h-30.168v24.621h41.437v25.832h-72.47zm63.844 27.858c-1.582-1.542-3.453-2.169-5.663-2.169-1.716 0-3.382.584-4.555 1.553-3.329 2.621-4.953 10.248-4.953 13.753 0 3.795 1.871 5.376 5.21 5.376 1.296 0 2.374-.205 3.413-.708l1.42-6.58h-4.298v-4.76h11.35l-3.003 14.01c-3.3 1.749-6.713 2.417-10.134 2.417-6.755 0-10.342-3.998-10.342-10.01 0-6.622 3.003-12.925 6.753-16.048 3.424-2.837 6.25-3.71 10.054-3.71 3.506 0 6.414 1.128 8.5 3.328l-3.752 3.548zm34.582-6.413c4.378 0 6.929 2.455 6.929 6.332 0 5.715-3.927 9.384-8.348 10.133.503.33.966.998 1.253 1.461 1.38 2.415 4.34 11.04 4.34 11.04h-6.877l-1.513-4.708c-1.787-5.293-2.621-6.753-3.577-7.206a1.514 1.514 0 0 0-.71-.173l-2.59 12.086h-5.878l6.177-28.965h10.794zm-7.587 12.5h1.8c2.497 0 3.618-.29 4.584-.997 1.121-.916 1.87-2.706 1.87-4 .001-2.006-1.294-2.838-3.71-2.838h-2.878l-1.666 7.835zm54.945-2.458c0 7.297-3.711 15.223-9.593 18.02-1.91.903-4.12 1.367-6.547 1.367-7.163 0-9.919-4.327-9.919-10.371 0-8.224 3.966-14.106 7.719-16.819 1.707-1.245 4.08-2.621 8.502-2.621 6.385 0 9.837 3.968 9.837 10.424m-15.923-3.371c-2.292 3-3.835 9.374-3.835 13.26 0 3.7 1.585 5.037 4.502 5.037 1.667 0 3.372-.534 4.71-2.16 2.507-3.092 4.01-9.972 4.01-13.969 0-2.837-1.175-4.718-4.34-4.718-1.963 0-3.884 1.007-5.047 2.55zm41.242-6.671-4.05 19.058c-.371 1.655-.411 2.868-.248 3.452.382 1.295 1.623 2.006 3.547 2.006 2.664-.001 4.461-1.46 5.12-3.505.215-.587.299-.916.635-2.458l3.96-18.553h5.92l-4.174 19.51c-.79 3.71-1.458 5.674-3.71 7.38-1.121.833-3.29 2.62-8.717 2.62-5.623 0-8.87-2.497-8.87-6.25 0-.955.123-2.087.328-3.084l4.296-20.176h5.963zm41.118 0c3.916 0 6.087.41 7.505 1.323 1.84 1.132 2.919 3.056 2.919 5.295 0 5.005-2.374 8.687-6.714 10.681-1.457.669-3.916.998-6.208.998h-3.084l-2.25 10.668h-5.963l6.169-28.965h7.626zm-4.543 13.547h2.92c2.25 0 3.505-.502 4.254-1.419.874-1.039 1.5-2.712 1.5-4.378 0-1.924-1.036-3.042-3.216-3.042h-3.578l-1.88 8.84z" style="fill:#707073;fill-rule:evenodd" transform="translate(-48.819 -428.756)"/>
	<path transform="translate(0 -.006) scale(.00004)" style="fill:#cc081f;fill-rule:evenodd" d="M14355200 3909380h-1421000V2488480h1421000v1420900z"/>
	<path transform="translate(0 -.006) scale(.00004)" style="fill:#fcc200;fill-rule:evenodd" d="M16485800 3909380h-1421000V2488480h1421000v1420900z"/>
</svg>
