<svg xmlns="http://www.w3.org/2000/svg" width="200" height="128">
    <path d="M137.5 81.573a44.585 44.585 0 0 0 6.293 1.544c4.647.411 7.107-2.448 5.691-6.888-.813-2.55-2.5-4.821-4.145-7.882-2.043 2.828-3.582 5.052-5.216 7.2-3.541 4.664-7.6 8.687-13.128 11.047-4.364 1.862-8.5 1.835-12.235-1.192-3.927-3.182-5.166-7.62-4.424-12.42a18.173 18.173 0 0 1 14.572-14.8c4.131-.817 7.017.5 8.8 4.113-.367 2.865-1.885 4.644-5.225 4.948-.574-1.137-1.145-2.266-1.7-3.358-1.8-1.385-3.43-.963-5.071.259-3.547 2.641-5.512 8.55-4.209 12.791 1.267 4.125 4.5 5.764 8.588 4.048a15.949 15.949 0 0 0 5.632-3.464c3.528-3.87 6.665-8.095 9.8-11.982-2.285-5.537-2.009-6.394 2.182-7.86.248.086.6.1.729.272 4.487 5.954 9.468 11.666 11.127 19.208.968 4.4-1.256 7.974-5.532 9.7-4.554 1.843-9.7.558-11.974-3.051a8.989 8.989 0 0 1-.555-2.233z" fill="#f7971b"/>
    <path d="M167.212 63.065c-.489-9.983-3.673-14.759-11.011-16.8-7.844-2.177-13.868.66-19.456 9.407-3.963-4.029-8.761-3.978-14.163-2.354 3.391-5.239 8.027-6.146 13.168-5.387 12.241-14.13 35.012-8.349 37.154 11.6 6.2 4.665 9.062 10.831 5.62 18.465-4.024 8.922-12.154 8.842-20.572 8.394l3-5.447c1.259 0 2.558.016 3.856 0 4.707-.065 8.293-2.569 9.294-6.476 1.136-4.435-.614-8.065-5.024-10.421-.57-.303-1.146-.602-1.866-.981zM69.927 86.3l-.807-1.882c-7.625 3.958-13.436 3.315-17.713-1.881-4.155-5.047-4.129-13.744.056-18.655 4.469-5.245 9.9-5.784 17.665-1.553l.8-2.077h5.957V86.3zm-.2-12.709c.073-4.381-3.274-8.09-7.358-8.155-3.821-.06-7.38 3.565-7.534 7.674a7.7 7.7 0 0 0 7.474 8 7.4 7.4 0 0 0 7.423-7.518z" fill="#5e5f61"/>
    <path d="M109.516 86.416h-7.9c-2-1.966-3.86-3.82-5.746-5.648-1.783-1.729-3.593-3.431-5.89-5.621v11.167h-6.594V50.158H89.6v19.718l.817.327 9.083-9.861h8.315l-11.17 12.333zM26.318 86.344H20V59.909h5.427v2.868c1.361-1.189 5.332-4.125 8.622-2.665l-1.614 4.764c-4.331.766-5.137 1.342-5.653 5.7-.445 3.762-.344 7.589-.458 11.389-.042 1.404-.006 2.815-.006 4.379z" fill="#5d5e60"/>
    <path d="M43.418 60.355v25.864h-6.659V60.355z" fill="#606163"/>
    <path d="M37.511 56.953c-1.546-1.731-2.306-3.425-1.237-5.482 1.155-2.223 3.057-2.6 5.289-2.1 2.985 2.482 3.487 3.885 2.208 6.145-1.171 2.065-2.609 2.417-6.26 1.437z" fill="#5f6062"/>
</svg>
