<svg xmlns="http://www.w3.org/2000/svg" width="200" height="128">
	<path fill="#626366" d="M34.18 58.3a1.93 1.93 0 1 0-1.92-1.93 1.93 1.93 0 0 0 1.92 1.93zm8.62 3.64A1.93 1.93 0 1 0 40.88 60a1.93 1.93 0 0 0 1.92 1.94zM25.51 75.38a1.93 1.93 0 1 0 1.93 1.92 1.92 1.92 0 0 0-1.93-1.92zm-3.59-8.67a1.93 1.93 0 1 0 1.93 1.92 1.92 1.92 0 0 0-1.93-1.92zm38.93-10.54a6.92 6.92 0 0 0-2.39 2.91v-3.24h-5.54v25.75h6.42V69.92c0-3.59.34-6 1-7.24a3 3 0 0 1 2.53-1.85 4.4 4.4 0 0 1 1.87.57l2-5.56a6.11 6.11 0 0 0-2.63-.66 5.79 5.79 0 0 0-3.26.99zM72.4 45.23a4.13 4.13 0 0 0-4.12 4.12 4.21 4.21 0 0 0 1.21 3 4 4 0 0 0 3 1.23 4 4 0 0 0 2.89-1.2 4.24 4.24 0 0 0 0-5.94 3.92 3.92 0 0 0-2.98-1.21zm-3.24 10.61h6.49v25.75h-6.49zm31.39 2.84a11.92 11.92 0 0 0-3.77-2.63 10.9 10.9 0 0 0-4.35-.87A11.25 11.25 0 0 0 83.86 59a13.83 13.83 0 0 0-3.53 9.77A13.55 13.55 0 0 0 84 78.4a11.51 11.51 0 0 0 8.64 3.86 10.72 10.72 0 0 0 4.12-.78 12.85 12.85 0 0 0 3.81-2.61v2.72H107V55.84h-6.44zm-1.71 15.55a7 7 0 0 1-10.06 0 7.75 7.75 0 0 1-2-5.5 7.57 7.57 0 0 1 2-5.42 6.55 6.55 0 0 1 5-2.13 6.76 6.76 0 0 1 5.09 2.09 7.45 7.45 0 0 1 2 5.44 7.73 7.73 0 0 1-2.03 5.52zm27.82-6.03 11.08-12.36h-8.1l-9.51 10.63V45.9h-6.47v35.69h6.47V69.73l10.93 11.86h8.03L126.66 68.2zm-80.27-1.49a1.84 1.84 0 0 0-1 .28A67.74 67.74 0 0 0 38 63.18a55.12 55.12 0 0 0-10.58-3.38 1 1 0 0 1 0 .16 1.93 1.93 0 0 1-.84 1.59 17.91 17.91 0 0 1 4.81 6.7A28.61 28.61 0 0 1 33.89 79a1.93 1.93 0 1 0 1.31.27 29.64 29.64 0 0 0-2.61-11.51 23.7 23.7 0 0 0-3-4.93 41.27 41.27 0 0 1 5.25 3.55 25.37 25.37 0 0 1 6.81 9.36 1.92 1.92 0 0 0 1.11 3.48 1.92 1.92 0 0 0 .24-3.88 26.38 26.38 0 0 0-7.28-10A42.2 42.2 0 0 0 30.87 62a48.61 48.61 0 0 1 6.61 2.37 69.7 69.7 0 0 1 7.1 3.63 1.9 1.9 0 0 0-.11.63 1.93 1.93 0 1 0 1.92-1.92z"/>
	<path fill="#f99d33" d="M138.28 58.38h8.92v23.08h2.98V58.38h8.92v-2.52h-20.82v2.52zm39.65 12.56a7.91 7.91 0 0 0-3.15-2q-1.89-.66-5.19-1.46a14.26 14.26 0 0 1-4.53-1.69 3.23 3.23 0 0 1-1.48-2.91 4.14 4.14 0 0 1 1.69-3.5 7.63 7.63 0 0 1 4.73-1.29 11 11 0 0 1 4 .72 12.64 12.64 0 0 1 3.65 2.26l1.15-2.26a10.25 10.25 0 0 0-3.88-2.41 14.63 14.63 0 0 0-5-.83 11.88 11.88 0 0 0-4.91.94 7.61 7.61 0 0 0-3.26 2.6 6.73 6.73 0 0 0-1.12 3.89 5.61 5.61 0 0 0 1.19 3.72 7.61 7.61 0 0 0 3.09 2.18 32.41 32.41 0 0 0 4.86 1.4 33.71 33.71 0 0 1 3.5 1 5.54 5.54 0 0 1 2.12 1.28 2.84 2.84 0 0 1 .81 2.1 4 4 0 0 1-1.67 3.4 8.06 8.06 0 0 1-4.76 1.2 14 14 0 0 1-4.61-.68 12.22 12.22 0 0 1-3.88-2.3l-1.11 2.26q3.56 3.24 9.56 3.24a12.89 12.89 0 0 0 5-.9 7.45 7.45 0 0 0 3.27-2.58 6.49 6.49 0 0 0 1.15-3.8 5 5 0 0 0-1.22-3.58zM25.51 58a1.93 1.93 0 1 0 1.93 2 1.92 1.92 0 0 0-1.93-2z"/>
</svg>
