<svg xmlns="http://www.w3.org/2000/svg" width="200" height="128">
    <path d="M40.371 86.808l-1.733-.154a37.535 37.535 0 0 0-3.309-16.945c-3.807-8.352-8.217-10.129-8.262-10.146l.31-.829.133-.844a73.559 73.559 0 0 1 16.684 5.01 73.051 73.051 0 0 1 12.226 6.587l-1.02 1.406a73.23 73.23 0 0 0-11.912-6.4A66.741 66.741 0 0 0 34.6 61.31a56.54 56.54 0 0 1 6.472 4.463c7.463 5.952 10.572 15.467 10.7 15.868l-1.656.533c-.03-.1-3.088-9.423-10.129-15.041a54.455 54.455 0 0 0-7.049-4.767 31.229 31.229 0 0 1 3.971 6.62 38.582 38.582 0 0 1 3.462 17.822z" fill="#626366"/>
    <path d="M29.994 58.577a2.585 2.585 0 1 1-2.585-2.585 2.585 2.585 0 0 1 2.585 2.585z" fill="#f99d33"/>
    <path d="M41.641 53.753a2.585 2.585 0 1 1-2.584-2.585 2.585 2.585 0 0 1 2.584 2.585zM53.22 58.646a2.585 2.585 0 1 1-2.584-2.585 2.584 2.584 0 0 1 2.584 2.585zM58.044 70.224a2.584 2.584 0 1 1-2.584-2.584 2.585 2.585 0 0 1 2.584 2.584zM53.22 81.8a2.585 2.585 0 1 1-2.584-2.584A2.585 2.585 0 0 1 53.22 81.8zM41.641 86.628a2.585 2.585 0 1 1-2.584-2.585 2.585 2.585 0 0 1 2.584 2.585zM29.994 81.872a2.585 2.585 0 1 1-2.585-2.584 2.586 2.586 0 0 1 2.585 2.584zM25.169 70.224a2.585 2.585 0 1 1-2.584-2.584 2.586 2.586 0 0 1 2.584 2.584zM64.231 53.036h7.442v4.358a9.3 9.3 0 0 1 3.213-3.913 7.743 7.743 0 0 1 4.388-1.335 8.129 8.129 0 0 1 3.531.89L80.1 60.51a5.971 5.971 0 0 0-2.513-.764q-2 0-3.4 2.482-1.368 2.481-1.368 9.731l.032 1.687v13.993h-8.62v-34.6M90.406 38.788a5.278 5.278 0 0 1 3.912 1.654 5.682 5.682 0 0 1 .032 7.983 5.293 5.293 0 0 1-3.88 1.621 5.423 5.423 0 0 1-3.976-1.653 5.66 5.66 0 0 1-1.622-4.071 5.538 5.538 0 0 1 5.534-5.534m-4.357 14.248h8.715v34.6h-8.715v-34.6M128.221 53.036h8.652v34.6h-8.652v-3.653a17.243 17.243 0 0 1-5.119 3.5 14.388 14.388 0 0 1-5.535 1.048 15.448 15.448 0 0 1-11.609-5.183 18.19 18.19 0 0 1-4.9-12.945q0-8.013 4.74-13.134a15.1 15.1 0 0 1 11.513-5.121 14.655 14.655 0 0 1 5.852 1.176 15.958 15.958 0 0 1 5.056 3.531v-3.819m-9.127 7.124a8.8 8.8 0 0 0-6.712 2.863 10.187 10.187 0 0 0-2.671 7.284 10.381 10.381 0 0 0 2.7 7.377 8.866 8.866 0 0 0 6.711 2.894 9.015 9.015 0 0 0 6.805-2.83 10.437 10.437 0 0 0 2.7-7.474 10.088 10.088 0 0 0-2.7-7.315 9.1 9.1 0 0 0-6.838-2.8M145.842 39.678h8.683v27.639l12.786-14.281h10.876l-14.884 16.602L180 87.639h-10.782l-14.693-15.933v15.933h-8.683V39.678" fill="#626366"/>
</svg>
