<svg xmlns="http://www.w3.org/2000/svg" height="252.787" width="445.787" xml:space="preserve">
	<path style="fill:#1fa1e2;fill-opacity:1;fill-rule:nonzero;stroke:none" d="M2479.65 822.422v48.269h-403.72v-48.269h403.72" transform="matrix(.13333 0 0 -.13333 0 252.787)"/>
	<path style="fill:#1fa1e2;fill-opacity:1;fill-rule:nonzero;stroke:none" d="M1915.16 1205.49h-426.85v-48.26h426.85v48.26" transform="matrix(.13333 0 0 -.13333 0 252.787)"/>
	<path style="fill:#1fa1e2;fill-opacity:1;fill-rule:nonzero;stroke:none" d="M2075.93 1205.49v-48.26h403.72v48.26h-403.72" transform="matrix(.13333 0 0 -.13333 0 252.787)"/>
	<path style="fill:#1fa1e2;fill-opacity:1;fill-rule:nonzero;stroke:none" d="M2640.41 822.422h703.02v48.269h-703.02v-48.269" transform="matrix(.13333 0 0 -.13333 0 252.787)"/>
	<path style="fill:#1fa1e2;fill-opacity:1;fill-rule:nonzero;stroke:none" d="M1915.16 870.691h-414.24v-48.269h414.24v48.269" transform="matrix(.13333 0 0 -.13333 0 252.787)"/>
	<path style="fill:#1fa1e2;fill-opacity:1;fill-rule:nonzero;stroke:none" d="M2640.41 1205.49v-48.26h703.02v48.26h-703.02" transform="matrix(.13333 0 0 -.13333 0 252.787)"/>
	<path style="fill:#1fa1e2;fill-opacity:1;fill-rule:nonzero;stroke:none" d="M1057.89 1826.84h2285.54v48.27H1056.02c-76.25 0-198.957 4.82-225.625-60.18-19.204-46.8 53.125-82.29 98.75-102.91 79.515-35.95 120.265-75.82 113.065-111.9-15.21-76.19-214.663-127.51-275.425-141.43-185.875-42.56-443.379-66.8-766.785-72.25V42.48h49.504v294.9c108.934 2.883 206.644 8.23 294.394 15.519v48.493c-87.019-7.34-184.675-12.782-294.394-15.731v287.942c108.934 2.878 206.644 8.226 294.394 15.519v48.488c-87.019-7.339-184.675-12.781-294.394-15.73v286.771c667.336 17.7 916.129 126.89 1005.506 219.85 55.07 57.27 42.26 129.14 10.75 162.26-4.6 4.83-17.87 1.78-16.44-7.8 2.95-19.69 4.2-31.5 4.2-48.75 0-17.26-6.63-44.55-33.28-72.25-68.502-71.17-285.506-186.6-970.736-205.01v282.26c304.047 7.08 548.512 31.32 728.055 72.44 192.074 43.98 297.041 104.22 311.971 179.02 7.19 36.02 3.37 104.07-140.385 163.85-42.954 17.86-73.332 36.04-58.332 52.91 15.265 17.18 51.566 19.41 167.077 19.41" transform="matrix(.13333 0 0 -.13333 0 252.787)"/>
	<path style="fill:#1fa1e2;fill-opacity:1;fill-rule:nonzero;stroke:none" d="M1049.32 711.289c2.95-19.687 4.2-31.488 4.2-48.75 0-17.258-6.63-44.551-33.28-72.238-46.299-48.11-160.443-116.43-441.095-161.352v-49.008c283.429 44.438 415.726 114.34 475.865 176.887 55.07 57.274 42.26 129.152 10.75 162.262-4.6 4.84-17.87 1.789-16.44-7.801" transform="matrix(.13333 0 0 -.13333 0 252.787)"/>
	<path style="fill:#1fa1e2;fill-opacity:1;fill-rule:nonzero;stroke:none" d="M1055.01 892.66c55.07 57.274 42.26 129.15 10.75 162.27-4.6 4.83-17.87 1.78-16.44-7.8 2.95-19.7 4.2-31.5 4.2-48.759 0-17.258-6.63-44.551-33.28-72.238-46.299-48.102-160.443-116.434-441.095-161.352V715.77c283.429 44.441 415.726 114.351 475.865 176.89" transform="matrix(.13333 0 0 -.13333 0 252.787)"/>
	<path style="fill:#1fa1e2;fill-opacity:1;fill-rule:nonzero;stroke:none" d="M3343.43 1492.04H1165.96v48.26h2177.47v-48.26" transform="matrix(.13333 0 0 -.13333 0 252.787)"/>
	<path style="fill:#0d0d0d;fill-opacity:1;fill-rule:nonzero;stroke:none" d="M867.84 989.34c-105.86 0-228.008-71.254-274.828-228.012v215.801H257.105V842.77h148.614V179.09H257.105V44.73h196.348l320.742 61.008v73.352H597.082v451.949c32.57 122.152 95.68 225.973 187.293 221.902-2.035-12.222-4.07-24.429-4.07-34.613 0-77.359 57-120.109 128.254-120.109 69.214 0 122.141 61.082 122.141 132.332 0 87.535-59.032 158.789-162.86 158.789" transform="matrix(.13333 0 0 -.13333 0 252.787)"/>
	<path style="fill:#0d0d0d;fill-opacity:1;fill-rule:nonzero;stroke:none" d="M2541.1 1457.69c0 42.02 2 80.04 10 116.06-6-2.01-12-2.01-18-2.01-72.04 0-122.06 42.03-122.06 120.06 0 24.01 12 56.02 24.01 74.04-18.01 16-36.02 30.01-86.04 30.01-106.05 0-184.09-78.04-184.09-314.15v-66.04h376.18zm90.04 300.14c76.04 96.05 190.1 138.07 298.14 138.07 164.09 0 258.13-80.04 258.13-180.09 0-64.03-46.02-124.06-110.05-124.06-72.04 0-122.06 40.02-122.06 124.06 0 16.01 6 46.03 16.01 66.03-16.01 10.01-36.02 16.01-70.03 16.01-102.05 0-172.09-70.03-172.09-330.16v-52.03h264.13v-122.05h-264.13V641.289h208.1V509.23h-528.25v132.059h132.06v652.321h-376.18V641.289h132.06V509.23h-460.22v132.059h140.07v652.321h-180.09v122.05h180.09v34.03c0 320.15 210.1 446.21 392.19 446.21 134.06 0 230.11-60.03 262.12-138.07" transform="matrix(.13333 0 0 -.13333 0 252.787)"/>
	<path style="fill:#100f0d;fill-opacity:1;fill-rule:nonzero;stroke:none" d="M1675.92 1402.95c-38.47 74-159.27 87.37-269.75 29.9-88.93-46.21-144-124.17-142.17-191.42h-.16V258.809h78.27v881.371c55.08-19.91 131.33-12.66 203.31 24.78 110.52 57.44 168.94 163.98 130.5 237.99" transform="matrix(.13333 0 0 -.13333 0 252.787)"/>
	<path style="fill:#100f0d;fill-opacity:1;fill-rule:nonzero;stroke:none" d="M1475.78 1623.83c34.36 0 62.28 27.88 62.28 62.24 0 34.4-27.92 62.25-62.28 62.25-34.4 0-62.25-27.85-62.25-62.25 0-34.36 27.85-62.24 62.25-62.24" transform="matrix(.13333 0 0 -.13333 0 252.787)"/>
	<path style="fill:#1fa1e2;fill-opacity:1;fill-rule:nonzero;stroke:none" d="M1049.32 375.461c2.95-19.691 4.2-31.5 4.2-48.75 0-17.262-6.63-44.551-33.28-72.25C950.113 181.602 724.441 62.328 0 48.289V0c704.691 13.5 963.453 125.781 1055.01 221 55.07 57.27 42.26 129.141 10.75 162.262-4.6 4.84-17.87 1.777-16.44-7.801" transform="matrix(.13333 0 0 -.13333 0 252.787)"/>
	<path style="fill:#1fa1e2;fill-opacity:1;fill-rule:nonzero;stroke:none" d="M3343.43 487.621H1653.4v48.258h1690.03v-48.258" transform="matrix(.13333 0 0 -.13333 0 252.787)"/>
</svg>
