<?xml version="1.0" encoding="UTF-8" standalone="no"?>
<!-- Generator: Adobe Illustrator 19.0.1, SVG Export Plug-In . SVG Version: 6.00 Build 0)  -->

<svg
   version="1.1"
   id="Layer_1"
   x="0px"
   y="0px"
   viewBox="0 0 350.293 126.212"
   xml:space="preserve"
   sodipodi:docname="rigor.svg"
   width="350.293"
   height="126.212"
   inkscape:version="1.1 (c4e8f9ed74, 2021-05-24)"
   xmlns:inkscape="http://www.inkscape.org/namespaces/inkscape"
   xmlns:sodipodi="http://sodipodi.sourceforge.net/DTD/sodipodi-0.dtd"
   xmlns="http://www.w3.org/2000/svg"
   xmlns:svg="http://www.w3.org/2000/svg"><defs
   id="defs39" /><sodipodi:namedview
   id="namedview37"
   pagecolor="#ffffff"
   bordercolor="#666666"
   borderopacity="1.0"
   inkscape:pageshadow="2"
   inkscape:pageopacity="0.0"
   inkscape:pagecheckerboard="0"
   showgrid="false"
   width="350.293px"
   inkscape:zoom="3.1503268"
   inkscape:cx="156.01556"
   inkscape:cy="100.94191"
   inkscape:window-width="2558"
   inkscape:window-height="1438"
   inkscape:window-x="2422"
   inkscape:window-y="2160"
   inkscape:window-maximized="1"
   inkscape:current-layer="Layer_1" />
<style
   type="text/css"
   id="style2">
	.st0{fill:#0469A4;}
</style>
<g
   id="g34"
   transform="translate(-129.90741,-41.407407)">
	<path
   class="st0"
   d="m 186.9,98.5 -22.6,16.2 -20.8,14.9 c 0,0 -3.9,2.7 -0.9,5.4 2.4,2.1 6.6,5.9 10,9 3.5,3.1 5.8,-1.3 5.8,-1.3 l 13.7,-21.3 z"
   id="path4" />
	<path
   class="st0"
   d="m 165.4,147.4 c 0,0 -2,4.4 2,5.2 3.1,0.6 8.6,1.7 13.2,2.7 4.6,0.9 4.4,-4 4.4,-4 l 1,-25.3 1,-27.4 -11.3,25.4 z"
   id="path6" />
	<path
   class="st0"
   d="m 214.8,96.4 25.5,-1.2 c 0,0 4.6,0.3 3.5,-4 -0.6,-2 -2.3,-8.4 -3.6,-13.1 C 239,73.4 234.8,76 234.8,76 l -22.7,10.3 c 1.6,3.2 2.5,6.7 2.7,10.1 z"
   id="path8" />
	<path
   class="st0"
   d="m 214.4,100.3 c -0.3,3.6 -1.3,7.1 -2.9,10.1 l 22.6,12 c 0,0 3.8,2.6 5,-1.7 0.5,-2 2.3,-8.4 3.6,-13.1 1.3,-4.7 -3.6,-4.6 -3.6,-4.6 z"
   id="path10" />
	<path
   class="st0"
   d="m 309.1,107.4 c 7.9,-0.9 11.9,-5.3 11.9,-13.2 0,-4.2 -1.3,-7.6 -3.8,-9.9 -2.5,-2.4 -5.8,-3.6 -9.8,-3.6 h -32.8 v 44.1 h 5.3 v -14.4 c 0,-0.8 0.3,-1.5 0.8,-2 0.5,-0.6 1.2,-0.8 1.9,-0.8 H 296 c 1.9,0 3.4,0.7 4.7,2.2 l 12.7,15 h 7.5 l -12.7,-15 c -0.2,-0.3 -0.4,-0.6 -0.4,-0.9 0.2,-1 0.6,-1.4 1.3,-1.5 z m -1.8,-5.6 h -24.5 c -0.7,0 -1.4,-0.3 -1.9,-0.9 -0.5,-0.6 -0.8,-1.3 -0.8,-2.1 v -9.5 c 0,-0.8 0.3,-1.5 0.8,-2.1 0.5,-0.6 1.2,-0.9 1.9,-0.9 h 24 c 6,0 9,2.6 9,7.9 -0.1,5.1 -2.9,7.6 -8.5,7.6 z"
   id="path12" />
	<rect
   x="324.89999"
   y="80.699997"
   class="st0"
   width="5.3000002"
   height="44.099998"
   id="rect14" />
	<path
   class="st0"
   d="m 357.3,105.5 h 15.1 c 0.8,0 1.4,0.3 2,0.8 0.5,0.6 0.8,1.3 0.8,2.1 v 3.8 c 0,1.8 -0.6,3.4 -1.9,4.8 -1.2,1.3 -2.7,2 -4.5,2 h -23 c -1.7,0 -3.2,-0.7 -4.4,-2 -1.2,-1.3 -1.9,-2.9 -1.9,-4.8 V 93.1 c 0,-1.8 0.6,-3.4 1.9,-4.8 1.2,-1.3 2.7,-2 4.5,-2 h 29.4 v -5.7 h -29.4 c -3.2,0 -5.9,1.2 -8.2,3.7 -2.3,2.4 -3.4,5.4 -3.4,8.8 v 19.3 c 0,3.4 1.1,6.4 3.4,8.8 2.3,2.4 5,3.7 8.2,3.7 h 23 c 3.2,0 6,-1.2 8.2,-3.7 2.3,-2.4 3.4,-5.4 3.4,-8.8 V 99.9 h -23.1 v 5.6 z"
   id="path16" />
	<path
   class="st0"
   d="m 423.6,85.8 c -4.4,-3.9 -9.9,-5.9 -16.4,-5.9 -6.5,0 -12,2 -16.4,5.9 -5.1,4.5 -7.7,10.1 -7.7,16.9 0,7 2.4,12.6 7.3,16.8 4.6,4 10.2,6 16.8,6 6.6,0 12.1,-1.9 16.5,-5.7 5,-4.4 7.5,-10.1 7.5,-17.1 0,-6.7 -2.5,-12.4 -7.6,-16.9 z m -3.5,29.8 c -3.4,2.9 -7.7,4.3 -12.9,4.3 -5.3,0 -9.6,-1.4 -12.9,-4.2 -3.7,-3.1 -5.5,-7.4 -5.5,-12.8 0,-5.3 1.9,-9.5 5.7,-12.7 3.5,-2.9 7.7,-4.4 12.8,-4.4 5.1,0 9.3,1.5 12.8,4.4 3.7,3.2 5.6,7.4 5.6,12.7 -0.2,5.3 -2,9.6 -5.6,12.7 z"
   id="path18" />
	<path
   class="st0"
   d="m 467.1,108.8 c 0,-0.9 0.4,-1.4 1.2,-1.4 7.9,-0.9 11.9,-5.3 11.9,-13.2 0,-4.2 -1.3,-7.6 -3.8,-9.9 -2.5,-2.4 -5.8,-3.6 -9.8,-3.6 h -32.8 v 44.1 h 5.3 v -14.4 c 0,-0.8 0.3,-1.5 0.8,-2 0.5,-0.6 1.2,-0.8 1.9,-0.8 h 13.4 c 1.9,0 3.4,0.7 4.7,2.2 l 12.7,15 h 7.5 l -12.7,-15 c -0.2,-0.3 -0.3,-0.6 -0.3,-1 z m -25.2,-7 c -0.7,0 -1.4,-0.3 -1.9,-0.9 -0.5,-0.6 -0.8,-1.3 -0.8,-2.1 v -9.5 c 0,-0.8 0.3,-1.5 0.8,-2.1 0.5,-0.6 1.2,-0.9 1.9,-0.9 h 24 c 6,0 9,2.6 9,7.9 0,5 -2.8,7.5 -8.5,7.5 h -24.5 z"
   id="path20" />
	<path
   class="st0"
   d="m 199.2,73.2 11.1,-23 c 0,0 2.5,-3.9 -1.8,-5 -2.1,-0.5 -8.5,-2 -13.2,-3.1 -4.7,-1.2 -4.5,3.7 -4.5,3.7 L 189,70.7 c 3.6,0.1 7.1,1 10.2,2.5 z"
   id="path22" />
	<path
   class="st0"
   d="m 210.1,82.6 21.4,-14 c 0,0 4.1,-2.1 1,-5.2 -1.5,-1.5 -6.3,-6.1 -9.8,-9.5 -3.5,-3.4 -5.8,0.9 -5.8,0.9 l -14.3,20.4 c 3.1,2 5.6,4.5 7.5,7.4 z"
   id="path24" />
	<path
   class="st0"
   d="M 251.5,142.3 209.2,113.6 187,98.5 l 14.8,21.8 29.6,43.6 c 0,0 4,7.5 9.9,1.2 2.4,-2.5 6.9,-7 12.2,-13 5.4,-6.1 -2,-9.8 -2,-9.8 z"
   id="path26" />
	<path
   class="st0"
   d="m 183.1,45.2 c 0,0 -0.3,-4.8 -4.2,-3.6 -3.1,0.9 -8.4,2.5 -12.9,3.9 -4.5,1.3 -2,5.6 -2,5.6 l 11,22.8 12,24.6 -2,-27.7 z"
   id="path28" />
	<path
   class="st0"
   d="m 134.3,96 25.3,1.2 27.3,1.3 v 0 0 0 0 L 171.1,75.7 156.5,54.6 c 0,0 -2.7,-4 -5.4,-1 -2.2,2.3 -6,6.5 -9.2,9.9 -3.2,3.4 1.2,5.8 1.2,5.8 l 21.1,14 22.7,15.1 L 161.6,87 138.3,76.4 c 0,0 -4.3,-2 -5.2,1.9 -0.7,3.1 -1.8,8.6 -2.8,13.2 -1,4.7 4,4.5 4,4.5 z"
   id="path30" />
	<path
   class="st0"
   d="m 186.9,98.5 -27.7,2.4 -25.5,2.2 c 0,0 -4.8,0.4 -3.6,4.2 0.9,3 2.6,8.4 4,12.9 1.4,4.5 5.6,1.9 5.6,1.9 l 22.6,-11.3 z"
   id="path32" />
</g>
</svg>
