<svg xmlns="http://www.w3.org/2000/svg" width="200" height="128">
    <g fill="#026aa4">
        <path d="M46.062 61.243l-10.336 7.4-9.519 6.816s-1.8 1.262-.416 2.5c1.07.98 3 2.688 4.589 4.114s2.658-.579 2.658-.579l6.253-9.713zM36.2 83.578s-.906 1.99.905 2.362c1.426.3 3.951.787 6.045 1.217s1.99-1.841 1.99-1.841l.445-11.539.475-12.5L40.924 72.9zM58.789 60.293l11.658-.55s2.109.149 1.6-1.826c-.253-.936-1.069-3.847-1.634-6a1.556 1.556 0 0 0-2.48-.98L57.557 55.63a12.108 12.108 0 0 1 1.232 4.663M58.6 62.06a12.045 12.045 0 0 1-1.321 4.618L67.6 72.143s1.737 1.2 2.3-.757c.252-.935 1.039-3.861 1.648-6s-1.634-2.093-1.634-2.093zM101.024 62.758h-11.2a1.137 1.137 0 0 1-.876-.4 1.372 1.372 0 0 1-.356-.951V57.07a1.4 1.4 0 0 1 .356-.95 1.133 1.133 0 0 1 .876-.4H100.8c2.732 0 4.084 1.2 4.084 3.623.014 2.272-1.278 3.416-3.862 3.416m.862 2.539q5.435-.6 5.435-6.014a6.007 6.007 0 0 0-1.723-4.544 6.187 6.187 0 0 0-4.47-1.634H86.174v20.166H88.6v-6.564a1.335 1.335 0 0 1 .356-.935 1.171 1.171 0 0 1 .876-.387h6.128a2.638 2.638 0 0 1 2.124 1.01l5.792 6.876h3.445l-5.806-6.872a.707.707 0 0 1-.164-.43q0-.624.535-.669M109.088 53.09h2.421v20.167h-2.421zM123.865 64.451h6.89a1.235 1.235 0 0 1 .906.386 1.358 1.358 0 0 1 .357.965v1.753a3.1 3.1 0 0 1-.847 2.183 2.706 2.706 0 0 1-2.064.92h-10.514a2.693 2.693 0 0 1-2.035-.92 3.1 3.1 0 0 1-.846-2.183v-8.807a3.041 3.041 0 0 1 .846-2.168 2.679 2.679 0 0 1 2.035-.906h13.425V53.09h-13.425a4.936 4.936 0 0 0-3.743 1.663 5.663 5.663 0 0 0-1.559 3.995v8.807a5.731 5.731 0 0 0 1.545 4.024 4.917 4.917 0 0 0 3.757 1.663h10.514a4.972 4.972 0 0 0 3.772-1.663 5.677 5.677 0 0 0 1.559-4.024v-5.688h-10.573zM152.556 69.025a9.908 9.908 0 0 1-11.791.03 7.218 7.218 0 0 1-2.525-5.866 7.212 7.212 0 0 1 2.584-5.807 9.442 9.442 0 0 1 11.673 0 7.237 7.237 0 0 1 2.554 5.807 7.205 7.205 0 0 1-2.495 5.836m1.6-13.574a11.878 11.878 0 0 0-15.014 0 9.879 9.879 0 0 0-3.5 7.738 9.669 9.669 0 0 0 3.342 7.677 12.129 12.129 0 0 0 15.192.119 10.463 10.463 0 0 0-.015-15.534M162.506 62.758a1.134 1.134 0 0 1-.876-.4 1.373 1.373 0 0 1-.357-.951V57.07a1.372 1.372 0 0 1 .357-.95 1.13 1.13 0 0 1 .876-.4h10.975c2.732 0 4.083 1.2 4.083 3.623 0 2.287-1.291 3.416-3.876 3.416zm11.524 3.193a.58.58 0 0 1 .535-.668q5.434-.6 5.435-6.015a6.007 6.007 0 0 0-1.723-4.544 6.187 6.187 0 0 0-4.47-1.634h-14.954v20.167h2.42v-6.564a1.336 1.336 0 0 1 .357-.935 1.167 1.167 0 0 1 .876-.386h6.133a2.638 2.638 0 0 1 2.124 1.009l5.792 6.876H180l-5.807-6.876a.605.605 0 0 1-.163-.43M51.661 49.675l5.079-10.5s1.143-1.782-.832-2.272c-.935-.223-3.891-.906-6.044-1.426s-2.034 1.708-2.034 1.708L47 48.531a12.23 12.23 0 0 1 4.663 1.144M56.651 53.966l9.772-6.415s1.9-.951.445-2.376c-.7-.668-2.881-2.762-4.455-4.337a1.556 1.556 0 0 0-2.629.416L53.25 50.58a12.305 12.305 0 0 1 3.4 3.386M75.526 81.247L56.205 68.134l-10.143-6.876 6.757 9.95 13.544 19.929s1.812 3.446 4.544.535c1.1-1.129 3.149-3.178 5.6-5.94 2.436-2.777-.98-4.485-.98-4.485M44.28 36.9s-.133-2.183-1.9-1.663c-1.4.4-3.861 1.158-5.91 1.767s-.891 2.569-.891 2.569l5.034 10.4 5.45 11.271-.935-12.667z"/>
        <path d="M22 60.1l11.539.549 12.49.594.015.015-.015-.015L38.8 50.818 32.133 41.2s-1.233-1.812-2.481-.461c-1 1.055-2.732 2.956-4.187 4.53S26 47.922 26 47.922l9.623 6.386L46 61.2l-11.536-5.214L23.8 51.174s-1.99-.92-2.361.877a519.307 519.307 0 0 0-1.262 6.044C19.732 60.174 22 60.1 22 60.1"/>
        <path d="M46.048 61.243L33.38 62.327l-11.658 1s-2.183.164-1.633 1.916c.43 1.4 1.2 3.846 1.841 5.881s2.584.861 2.584.861l10.336-5.158z"/>
    </g>
</svg>
