<svg version="1.1" id="Layer_1" x="0" y="0" xml:space="preserve" width="350.293" height="126.212" xmlns="http://www.w3.org/2000/svg">
	<style type="text/css" id="style2">
		.st0{fill:#0469a4}
	</style>
	<g id="g34" transform="translate(-129.907 -41.407)">
		<path class="st0" d="m186.9 98.5-22.6 16.2-20.8 14.9s-3.9 2.7-.9 5.4c2.4 2.1 6.6 5.9 10 9 3.5 3.1 5.8-1.3 5.8-1.3l13.7-21.3z" id="path4"/>
		<path class="st0" d="M165.4 147.4s-2 4.4 2 5.2c3.1.6 8.6 1.7 13.2 2.7 4.6.9 4.4-4 4.4-4l1-25.3 1-27.4-11.3 25.4z" id="path6"/>
		<path class="st0" d="m214.8 96.4 25.5-1.2s4.6.3 3.5-4c-.6-2-2.3-8.4-3.6-13.1-1.2-4.7-5.4-2.1-5.4-2.1l-22.7 10.3c1.6 3.2 2.5 6.7 2.7 10.1z" id="path8"/>
		<path class="st0" d="M214.4 100.3c-.3 3.6-1.3 7.1-2.9 10.1l22.6 12s3.8 2.6 5-1.7c.5-2 2.3-8.4 3.6-13.1 1.3-4.7-3.6-4.6-3.6-4.6z" id="path10"/>
		<path class="st0" d="M309.1 107.4c7.9-.9 11.9-5.3 11.9-13.2 0-4.2-1.3-7.6-3.8-9.9-2.5-2.4-5.8-3.6-9.8-3.6h-32.8v44.1h5.3v-14.4c0-.8.3-1.5.8-2 .5-.6 1.2-.8 1.9-.8H296c1.9 0 3.4.7 4.7 2.2l12.7 15h7.5l-12.7-15c-.2-.3-.4-.6-.4-.9.2-1 .6-1.4 1.3-1.5zm-1.8-5.6h-24.5c-.7 0-1.4-.3-1.9-.9-.5-.6-.8-1.3-.8-2.1v-9.5c0-.8.3-1.5.8-2.1.5-.6 1.2-.9 1.9-.9h24c6 0 9 2.6 9 7.9-.1 5.1-2.9 7.6-8.5 7.6z" id="path12"/>
		<path class="st0" id="rect14" d="M324.9 80.7h5.3v44.1h-5.3z"/>
		<path class="st0" d="M357.3 105.5h15.1c.8 0 1.4.3 2 .8.5.6.8 1.3.8 2.1v3.8c0 1.8-.6 3.4-1.9 4.8-1.2 1.3-2.7 2-4.5 2h-23c-1.7 0-3.2-.7-4.4-2-1.2-1.3-1.9-2.9-1.9-4.8V93.1c0-1.8.6-3.4 1.9-4.8 1.2-1.3 2.7-2 4.5-2h29.4v-5.7h-29.4c-3.2 0-5.9 1.2-8.2 3.7-2.3 2.4-3.4 5.4-3.4 8.8v19.3c0 3.4 1.1 6.4 3.4 8.8 2.3 2.4 5 3.7 8.2 3.7h23c3.2 0 6-1.2 8.2-3.7 2.3-2.4 3.4-5.4 3.4-8.8V99.9h-23.1v5.6z" id="path16"/>
		<path class="st0" d="M423.6 85.8c-4.4-3.9-9.9-5.9-16.4-5.9-6.5 0-12 2-16.4 5.9-5.1 4.5-7.7 10.1-7.7 16.9 0 7 2.4 12.6 7.3 16.8 4.6 4 10.2 6 16.8 6 6.6 0 12.1-1.9 16.5-5.7 5-4.4 7.5-10.1 7.5-17.1 0-6.7-2.5-12.4-7.6-16.9zm-3.5 29.8c-3.4 2.9-7.7 4.3-12.9 4.3-5.3 0-9.6-1.4-12.9-4.2-3.7-3.1-5.5-7.4-5.5-12.8 0-5.3 1.9-9.5 5.7-12.7 3.5-2.9 7.7-4.4 12.8-4.4 5.1 0 9.3 1.5 12.8 4.4 3.7 3.2 5.6 7.4 5.6 12.7-.2 5.3-2 9.6-5.6 12.7z" id="path18"/>
		<path class="st0" d="M467.1 108.8c0-.9.4-1.4 1.2-1.4 7.9-.9 11.9-5.3 11.9-13.2 0-4.2-1.3-7.6-3.8-9.9-2.5-2.4-5.8-3.6-9.8-3.6h-32.8v44.1h5.3v-14.4c0-.8.3-1.5.8-2 .5-.6 1.2-.8 1.9-.8h13.4c1.9 0 3.4.7 4.7 2.2l12.7 15h7.5l-12.7-15c-.2-.3-.3-.6-.3-1zm-25.2-7c-.7 0-1.4-.3-1.9-.9-.5-.6-.8-1.3-.8-2.1v-9.5c0-.8.3-1.5.8-2.1.5-.6 1.2-.9 1.9-.9h24c6 0 9 2.6 9 7.9 0 5-2.8 7.5-8.5 7.5h-24.5z" id="path20"/>
		<path class="st0" d="m199.2 73.2 11.1-23s2.5-3.9-1.8-5c-2.1-.5-8.5-2-13.2-3.1-4.7-1.2-4.5 3.7-4.5 3.7L189 70.7c3.6.1 7.1 1 10.2 2.5z" id="path22"/>
		<path class="st0" d="m210.1 82.6 21.4-14s4.1-2.1 1-5.2c-1.5-1.5-6.3-6.1-9.8-9.5-3.5-3.4-5.8.9-5.8.9l-14.3 20.4c3.1 2 5.6 4.5 7.5 7.4z" id="path24"/>
		<path class="st0" d="m251.5 142.3-42.3-28.7L187 98.5l14.8 21.8 29.6 43.6s4 7.5 9.9 1.2c2.4-2.5 6.9-7 12.2-13 5.4-6.1-2-9.8-2-9.8z" id="path26"/>
		<path class="st0" d="M183.1 45.2s-.3-4.8-4.2-3.6c-3.1.9-8.4 2.5-12.9 3.9-4.5 1.3-2 5.6-2 5.6l11 22.8 12 24.6-2-27.7z" id="path28"/>
		<path class="st0" d="m134.3 96 25.3 1.2 27.3 1.3-15.8-22.8-14.6-21.1s-2.7-4-5.4-1c-2.2 2.3-6 6.5-9.2 9.9-3.2 3.4 1.2 5.8 1.2 5.8l21.1 14 22.7 15.1L161.6 87l-23.3-10.6s-4.3-2-5.2 1.9c-.7 3.1-1.8 8.6-2.8 13.2-1 4.7 4 4.5 4 4.5z" id="path30"/>
		<path class="st0" d="m186.9 98.5-27.7 2.4-25.5 2.2s-4.8.4-3.6 4.2c.9 3 2.6 8.4 4 12.9s5.6 1.9 5.6 1.9l22.6-11.3z" id="path32"/>
	</g>
</svg>
