<?xml version="1.0" encoding="utf-8"?>
<!-- Generator: Adobe Illustrator 19.0.1, SVG Export Plug-In . SVG Version: 6.00 Build 0)  -->
<!DOCTYPE svg PUBLIC "-//W3C//DTD SVG 1.1//EN" "http://www.w3.org/Graphics/SVG/1.1/DTD/svg11.dtd">
<svg version="1.1" id="Layer_1" xmlns="http://www.w3.org/2000/svg" xmlns:xlink="http://www.w3.org/1999/xlink" x="0px" y="0px"
	 viewBox="0 0 612 202" style="enable-background:new 0 0 612 202;" xml:space="preserve">
<style type="text/css">
	.st0{fill:#0469A4;}
</style>
<g>
	<path class="st0" d="M186.9,98.5l-22.6,16.2l-20.8,14.9c0,0-3.9,2.7-0.9,5.4c2.4,2.1,6.6,5.9,10,9c3.5,3.1,5.8-1.3,5.8-1.3
		l13.7-21.3L186.9,98.5z"/>
	<path class="st0" d="M165.4,147.4c0,0-2,4.4,2,5.2c3.1,0.6,8.6,1.7,13.2,2.7c4.6,0.9,4.4-4,4.4-4l1-25.3l1-27.4L175.7,124
		L165.4,147.4z"/>
	<path class="st0" d="M214.8,96.4l25.5-1.2c0,0,4.6,0.3,3.5-4c-0.6-2-2.3-8.4-3.6-13.1c-1.2-4.7-5.4-2.1-5.4-2.1l-22.7,10.3
		C213.7,89.5,214.6,93,214.8,96.4z"/>
	<path class="st0" d="M214.4,100.3c-0.3,3.6-1.3,7.1-2.9,10.1l22.6,12c0,0,3.8,2.6,5-1.7c0.5-2,2.3-8.4,3.6-13.1
		c1.3-4.7-3.6-4.6-3.6-4.6L214.4,100.3z"/>
	<path class="st0" d="M309.1,107.4c7.9-0.9,11.9-5.3,11.9-13.2c0-4.2-1.3-7.6-3.8-9.9c-2.5-2.4-5.8-3.6-9.8-3.6h-32.8v44.1h5.3
		v-14.4c0-0.8,0.3-1.5,0.8-2c0.5-0.6,1.2-0.8,1.9-0.8h13.4c1.9,0,3.4,0.7,4.7,2.2l12.7,15h7.5l-12.7-15c-0.2-0.3-0.4-0.6-0.4-0.9
		C308,107.9,308.4,107.5,309.1,107.4z M307.3,101.8h-24.5c-0.7,0-1.4-0.3-1.9-0.9c-0.5-0.6-0.8-1.3-0.8-2.1v-9.5
		c0-0.8,0.3-1.5,0.8-2.1c0.5-0.6,1.2-0.9,1.9-0.9h24c6,0,9,2.6,9,7.9C315.7,99.3,312.9,101.8,307.3,101.8z"/>
	<rect x="324.9" y="80.7" class="st0" width="5.3" height="44.1"/>
	<path class="st0" d="M357.3,105.5h15.1c0.8,0,1.4,0.3,2,0.8c0.5,0.6,0.8,1.3,0.8,2.1v3.8c0,1.8-0.6,3.4-1.9,4.8
		c-1.2,1.3-2.7,2-4.5,2h-23c-1.7,0-3.2-0.7-4.4-2c-1.2-1.3-1.9-2.9-1.9-4.8V93.1c0-1.8,0.6-3.4,1.9-4.8c1.2-1.3,2.7-2,4.5-2h29.4
		v-5.7h-29.4c-3.2,0-5.9,1.2-8.2,3.7c-2.3,2.4-3.4,5.4-3.4,8.8v19.3c0,3.4,1.1,6.4,3.4,8.8c2.3,2.4,5,3.7,8.2,3.7h23
		c3.2,0,6-1.2,8.2-3.7c2.3-2.4,3.4-5.4,3.4-8.8V99.9h-23.1V105.5z"/>
	<path class="st0" d="M423.6,85.8c-4.4-3.9-9.9-5.9-16.4-5.9c-6.5,0-12,2-16.4,5.9c-5.1,4.5-7.7,10.1-7.7,16.9
		c0,7,2.4,12.6,7.3,16.8c4.6,4,10.2,6,16.8,6c6.6,0,12.1-1.9,16.5-5.7c5-4.4,7.5-10.1,7.5-17.1C431.2,96,428.7,90.3,423.6,85.8z
		 M420.1,115.6c-3.4,2.9-7.7,4.3-12.9,4.3c-5.3,0-9.6-1.4-12.9-4.2c-3.7-3.1-5.5-7.4-5.5-12.8c0-5.3,1.9-9.5,5.7-12.7
		c3.5-2.9,7.7-4.4,12.8-4.4c5.1,0,9.3,1.5,12.8,4.4c3.7,3.2,5.6,7.4,5.6,12.7C425.5,108.2,423.7,112.5,420.1,115.6z"/>
	<path class="st0" d="M467.1,108.8c0-0.9,0.4-1.4,1.2-1.4c7.9-0.9,11.9-5.3,11.9-13.2c0-4.2-1.3-7.6-3.8-9.9
		c-2.5-2.4-5.8-3.6-9.8-3.6h-32.8v44.1h5.3v-14.4c0-0.8,0.3-1.5,0.8-2c0.5-0.6,1.2-0.8,1.9-0.8h13.4c1.9,0,3.4,0.7,4.7,2.2l12.7,15
		h7.5l-12.7-15C467.2,109.5,467.1,109.2,467.1,108.8z M441.9,101.8c-0.7,0-1.4-0.3-1.9-0.9c-0.5-0.6-0.8-1.3-0.8-2.1v-9.5
		c0-0.8,0.3-1.5,0.8-2.1c0.5-0.6,1.2-0.9,1.9-0.9h24c6,0,9,2.6,9,7.9c0,5-2.8,7.5-8.5,7.5H441.9z"/>
	<path class="st0" d="M199.2,73.2l11.1-23c0,0,2.5-3.9-1.8-5c-2.1-0.5-8.5-2-13.2-3.1c-4.7-1.2-4.5,3.7-4.5,3.7L189,70.7
		C192.6,70.8,196.1,71.7,199.2,73.2z"/>
	<path class="st0" d="M210.1,82.6l21.4-14c0,0,4.1-2.1,1-5.2c-1.5-1.5-6.3-6.1-9.8-9.5c-3.5-3.4-5.8,0.9-5.8,0.9l-14.3,20.4
		C205.7,77.2,208.2,79.7,210.1,82.6z"/>
	<path class="st0" d="M251.5,142.3l-42.3-28.7L187,98.5l14.8,21.8l29.6,43.6c0,0,4,7.5,9.9,1.2c2.4-2.5,6.9-7,12.2-13
		C258.9,146,251.5,142.3,251.5,142.3z"/>
	<path class="st0" d="M183.1,45.2c0,0-0.3-4.8-4.2-3.6c-3.1,0.9-8.4,2.5-12.9,3.9c-4.5,1.3-2,5.6-2,5.6l11,22.8L187,98.5l-2-27.7
		L183.1,45.2z"/>
	<path class="st0" d="M134.3,96l25.3,1.2l27.3,1.3l0,0l0,0l0,0l0,0l-15.8-22.8l-14.6-21.1c0,0-2.7-4-5.4-1c-2.2,2.3-6,6.5-9.2,9.9
		c-3.2,3.4,1.2,5.8,1.2,5.8l21.1,14l22.7,15.1L161.6,87l-23.3-10.6c0,0-4.3-2-5.2,1.9c-0.7,3.1-1.8,8.6-2.8,13.2
		C129.3,96.2,134.3,96,134.3,96z"/>
	<path class="st0" d="M186.9,98.5l-27.7,2.4l-25.5,2.2c0,0-4.8,0.4-3.6,4.2c0.9,3,2.6,8.4,4,12.9c1.4,4.5,5.6,1.9,5.6,1.9l22.6-11.3
		L186.9,98.5z"/>
</g>
</svg>
