<svg xmlns="http://www.w3.org/2000/svg" viewBox="-5.67 -5.67 294.84 122.59">
	<path fill="#384745" d="M163.82 30.426h20.803c9.877 0 16.537 4.79 16.537 14.068a14.135 14.135 0 0 1-10.177 13.694 14.974 14.974 0 0 1 3.517 4.79c2.095 4.265 3.517 8.978 7.932 8.978a5.827 5.827 0 0 0 2.02-.374l-.973 8.905a24.476 24.476 0 0 1-5.013.674c-5.986 0-9.429-2.32-12.946-10.328-1.496-3.59-3.592-9.877-6.36-9.877h-2.844v19.98H163.82zm12.496 9.054v12.421h4.49c3.592 0 7.782-1.122 7.782-6.509 0-4.415-2.843-5.912-6.286-5.912zm31.13-9.054h26.041v8.83h-6.81v32.85h6.81v8.83h-26.04v-8.83h6.734v-32.85h-6.735zm30.008 24.545c0-18.185 9.653-25.443 23.197-25.443 13.319 0 22.973 7.258 22.973 25.443 0 20.203-9.952 26.863-22.973 26.863-13.544 0-23.197-7.259-23.197-26.864zm33.374 0c0-12.572-4.94-16.614-10.326-16.614-5.388 0-10.252 4.042-10.252 16.614 0 13.992 4.864 18.033 10.252 18.033 5.387 0 10.326-4.041 10.326-18.034z"/>
	<path fill="#72c2cf" d="M113.315 62.452c-5.027 2.457-13.626 5.861-22.663 5.861s-17.635-3.404-22.663-5.86c-5.027 2.456-13.625 5.86-22.662 5.86-9.038 0-17.637-3.405-22.665-5.86-5.027 2.456-13.625 5.86-22.662 5.86V96.97a14.435 14.435 0 0 0 14.393 14.392h107.194a14.435 14.435 0 0 0 14.392-14.392V68.313c-9.037 0-17.636-3.405-22.664-5.86zm-95.046-16.69 4.4-2.684 4.405 2.697c2.606 1.59 11.008 5.747 18.253 5.747 8.704 0 18.156-5.69 18.25-5.747l4.412-2.726 4.412 2.726c2.607 1.59 11.008 5.747 18.251 5.747s15.644-4.157 18.27-5.759l4.4-2.685 4.405 2.697c2.606 1.59 11.008 5.746 18.252 5.747v-37.13A14.435 14.435 0 0 0 121.587 0H14.393A14.435 14.435 0 0 0 0 14.392v37.13c7.243 0 15.644-4.157 18.27-5.76z"/>
</svg>
