<svg width="831" height="163" fill="none" xmlns="http://www.w3.org/2000/svg">
	<path d="M200.82 43.69c-7.849 0-16.143 3.843-21.326 9.756h-.296v-37.1h-14.366v107.898h13.181v-7.538h.296c5.035 5.764 14.217 9.755 22.215 9.755 20.733 0 34.062-16.259 34.062-41.385 0-24.388-13.921-41.385-33.766-41.385Zm-2.518 69.764c-10.811 0-19.104-7.39-19.104-17.145V75.32c0-10.493 8.293-18.475 19.104-18.475 14.069 0 21.918 10.198 21.918 28.23 0 18.181-7.849 28.379-21.918 28.379Z" fill="#00C805"/>
	<path d="M118.182 43.69c-21.326 0-35.988 16.998-35.988 41.386 0 24.979 14.217 41.385 35.988 41.385 21.474 0 35.543-16.406 35.543-41.385 0-24.388-14.514-41.386-35.543-41.386Zm0 69.764c-13.477 0-21.77-10.938-21.77-28.378 0-17.441 8.293-28.231 21.77-28.231 13.032 0 21.326 11.085 21.326 28.23 0 17.294-8.294 28.379-21.326 28.379Z" fill="#00C805"/>
	<path d="M75.53 50.785c0-18.328-13.625-30.004-34.951-30.004H0v103.463h14.81V83.302h21.178c16.29 0 22.214 6.503 22.214 24.535v16.407h14.366v-16.407c0-16.51-5.036-26.324-16.01-30.359 11.24-3.931 18.972-13.184 18.972-26.693ZM39.394 70.147H14.81V34.231h24.436c14.069 0 21.326 6.06 21.326 18.032 0 11.529-7.405 17.884-21.178 17.884Z" fill="#00C805"/>
	<path d="M312.929 43.69c-8.293 0-17.179 3.991-21.474 9.756h-.296v-7.538H277.09v78.336h14.365v-49.22c0-11.084 7.257-18.031 18.661-18.031 11.255 0 16.586 6.503 16.586 20.101v47.15h14.514V72.956c0-18.033-10.959-29.266-28.287-29.266Z" fill="#00C805"/>
	<path d="M547.219 43.69c-21.326 0-35.987 16.998-35.987 41.386 0 24.979 14.217 41.385 35.987 41.385 21.474 0 35.544-16.406 35.544-41.385 0-24.388-14.514-41.386-35.544-41.386Zm0 69.764c-13.477 0-21.77-10.938-21.77-28.378 0-17.441 8.293-28.231 21.77-28.231 13.033 0 21.326 11.085 21.326 28.23 0 17.294-8.293 28.379-21.326 28.379Z" fill="#00C805"/>
	<path d="M647.037 16.347v37.099h-.297c-5.183-6.06-13.328-9.755-21.177-9.755-19.845 0-33.915 17.292-33.915 41.385 0 25.126 13.329 41.385 34.063 41.385 7.997 0 17.179-3.991 22.214-9.755h.296v7.538h13.181V16.347h-14.365Zm0 79.962c0 9.755-8.294 17.145-19.105 17.145-14.069 0-21.918-10.198-21.918-28.378 0-18.032 7.849-28.231 21.918-28.231 10.811 0 19.105 7.981 19.105 18.475v20.99Z" fill="#00C805"/>
	<path d="M466.802 43.69c-21.326 0-35.987 16.998-35.987 41.386 0 24.979 14.217 41.385 35.987 41.385 21.475 0 35.544-16.406 35.544-41.385 0-24.388-14.514-41.386-35.544-41.386Zm0 69.764c-13.476 0-21.77-10.938-21.77-28.378 0-17.441 8.294-28.231 21.77-28.231 13.033 0 21.326 11.085 21.326 28.23 0 17.294-8.293 28.379-21.326 28.379Z" fill="#00C805"/>
	<path d="M261.391 16.347h-15.55V31.57h15.55V16.347Z" fill="#00C805"/>
	<path d="M392.458 43.69c-8.738 0-17.624 4.139-21.771 10.051h-.296V16.347h-14.365v107.897h14.365v-49.22c0-10.641 7.701-18.031 18.66-18.031 10.811 0 17.031 7.094 17.031 19.362v47.889h14.366V72.808c0-17.884-10.811-29.118-27.99-29.118Z" fill="#00C805"/>
	<path d="M260.799 45.907h-14.365v78.336h14.365V45.907Z" fill="#00C805"/>
	<path d="m760.45 127.968-1.082.355c-6.96 2.306-17.253 5.868-26.494 10.11-.489.236-.815.887-.815.887-.177.399-.385.887-.622 1.434l-.029.073c-1.037 2.351-2.459 5.883-3.081 7.332l-.474 1.138a.457.457 0 0 0 .119.517.425.425 0 0 0 .311.133.593.593 0 0 0 .207-.044l1.111-.532c2.532-1.198 5.731-3.016 9.078-4.612l.119-.059c6.383-3.015 13.58-6.43 17.919-8.499 0 0 .697-.369 1.052-1.064l3.243-6.503a.474.474 0 0 0-.562-.666Z" fill="#00C805"/>
	<path d="M734.503 117.903c.459-.887 2.562-4.937 3.036-5.839l.089-.162c14.099-26.531 31.278-51.569 51.049-74.39l.548-.636a.651.651 0 0 0 .074-.709.64.64 0 0 0-.637-.325l-.829.118a410.232 410.232 0 0 0-39.053 7.346 5.141 5.141 0 0 0-2.296 1.39 437.286 437.286 0 0 0-27.265 36.24 3.2 3.2 0 0 0-.459 2.144c.089.665 2.118 16.258 5.198 28.231-7.641 21.949-14.469 50.874-14.469 50.874a.65.65 0 0 0 .089.547.607.607 0 0 0 .504.251h4.354a.664.664 0 0 0 .622-.414l.296-.813a404.997 404.997 0 0 1 15.106-35.68c1.288-2.705 4.043-8.173 4.043-8.173Z" fill="#00C805"/>
	<path d="m795.06 42.257-.015-.828a.646.646 0 0 0-.415-.576.653.653 0 0 0-.696.177l-.548.62c-23.058 26.62-42.444 56.152-57.609 87.796l-.356.74a.628.628 0 0 0 .104.709.642.642 0 0 0 .696.148l.755-.311c12.959-5.35 26.184-9.991 39.32-13.79a2.978 2.978 0 0 0 1.821-1.507c5.761-11.204 19.134-32.902 19.134-32.902.341-.487.252-1.212.252-1.212s-2.295-25.94-2.443-39.064Z" fill="#00C805"/>
	<path d="M824.872 4.833C821.599 1.995 816.845.665 809.47.502c-6.694-.148-14.647 1.3-23.666 4.257-1.348.473-2.429 1.227-3.392 2.158a436.825 436.825 0 0 0-26.509 27.107l-.652.71a.628.628 0 0 0-.074.724.628.628 0 0 0 .681.295l.948-.207c13.581-2.897 27.295-5.114 40.757-6.577a3.116 3.116 0 0 1 2.458.798 3.147 3.147 0 0 1 1.022 2.38 374.185 374.185 0 0 0 1.451 39.804l.074.857c.03.266.208.473.474.547.045.014.089.014.148.03.193 0 .4-.09.534-.267l.488-.694a377.839 377.839 0 0 1 24.51-31.217c.978-1.108 1.23-1.803 1.407-2.808 2.725-17.411-1.481-30.3-5.257-33.566Z" fill="#00C805"/>
</svg>
