<svg xmlns="http://www.w3.org/2000/svg" width="200" height="128">
    <path d="M61.75 48.82a1.23 1.23 0 000-.2v-.06-.2l-.06-.11v-.11l-.1-.07-.07-.05h-.92A53.48 53.48 0 0045 52.06a23.28 23.28 0 00-10.81 9.35l-.6.26C25.09 65.47 20 72.87 20 81.45v.15a1 1 0 00.6.94 1.12 1.12 0 00.44.09h28.79l.15-.11 11.4-9.61a1 1 0 00.37-.8V48.82zM51.44 78.44l-1.09.92V58.91l9.33-7.86V71.5zM32.82 73h15.46v7.54H23.87zm13.04-19a54 54 0 0111.37-3.6l-8.34 7a52.69 52.69 0 00-11.29 2.69A22.34 22.34 0 0145.86 54zm-10.24 9.07a53.4 53.4 0 0112.66-3.47V71H33.5a18.35 18.35 0 012.12-7.93zm-2.85 1.32a20.6 20.6 0 00-1.37 7.11l-9.2 7.76c.7-6.26 4.44-11.58 10.57-14.87z" fill-rule="evenodd" fill="#3c72ff"/>
    <path d="M69.71 76.67V53.18h9.72a9 9 0 016.06 2 7.13 7.13 0 012.29 5.76A7.64 7.64 0 0184 67.66l5 9h-6.61l-4-8H75.8v8zm6.09-12.89h3A2.63 2.63 0 0081.61 61a3 3 0 00-.74-2.11 2.74 2.74 0 00-2.07-.78h-3zm14 4.6a9.17 9.17 0 011.2-4.47 8.29 8.29 0 013.12-3.18 9.65 9.65 0 019.25 0 8.24 8.24 0 013.09 3.19 9.56 9.56 0 010 8.94 8.38 8.38 0 01-3.09 3.19 9.65 9.65 0 01-9.25 0A8.36 8.36 0 0191 72.87a9.14 9.14 0 01-1.15-4.49zM98.69 72a2.89 2.89 0 002.36-1 4.24 4.24 0 000-5.17 3.2 3.2 0 00-4.52-.2c-.07.06-.13.13-.2.2a3.84 3.84 0 00-.88 2.58 3.91 3.91 0 00.88 2.59 2.94 2.94 0 002.36 1zm11.59 4.65h6V53.18h-6zm9.4 0h5.95V53.18h-5.95zm9.4-.77v-22.7H135v8.28a4.27 4.27 0 011.43-1.06 6.91 6.91 0 011.54-.49 6.14 6.14 0 011.2-.14 6.49 6.49 0 013.93 1.16 7.3 7.3 0 012.43 3 10 10 0 01.83 4 9 9 0 01-2.54 6.8q-2.53 2.43-7.46 2.43a18.94 18.94 0 01-4-.44 29.43 29.43 0 01-3.27-.91zM135 68v4a6 6 0 00.9.25 6.64 6.64 0 001.18.11 3.08 3.08 0 002.36-1 4.53 4.53 0 00.92-3.14 4.71 4.71 0 00-.27-1.57 3.2 3.2 0 00-.82-1.32 2.13 2.13 0 00-1.48-.53 2.43 2.43 0 00-2.13.92A3.82 3.82 0 00135 68zm23.67 8.63l-.21-1.55a6.59 6.59 0 01-2.27 1.68 7.83 7.83 0 01-2.84.45 6.92 6.92 0 01-2.29-.42 4.44 4.44 0 01-2-1.51 5 5 0 01-.85-3.08 5.11 5.11 0 011.1-3.34 6.64 6.64 0 012.9-2 11.21 11.21 0 013.93-.68h1.3c.3 0 .68.06 1.06.11V66a1.8 1.8 0 00-.44-1.32 2.29 2.29 0 00-1.07-.6 5.21 5.21 0 00-1.24-.16 8.62 8.62 0 00-2.76.4 7.66 7.66 0 00-2 .93l-2.25-3.41a10.84 10.84 0 013-1.55 14.75 14.75 0 014.85-.71 8.45 8.45 0 015.58 1.78 6.53 6.53 0 012.13 5.3v10zm-.21-6.06v-1.06a8.06 8.06 0 00-1.62-.14 3.45 3.45 0 00-2.19.58 1.75 1.75 0 00-.7 1.4c0 1.23.66 1.84 2 1.84a3.14 3.14 0 001.73-.55 2.28 2.28 0 00.81-2zm9.2 6.06V60.12h5.74l.2 2.07a6.59 6.59 0 011.74-1.67 4.47 4.47 0 012.52-.68 8.19 8.19 0 011.21.07 3.91 3.91 0 01.9.2l-.77 5.07a7.63 7.63 0 00-1.72-.2c-2.59 0-3.88 1.43-3.88 4.27v7.43z" fill="#343f55" fill-rule="evenodd"/>
</svg>
