<svg xmlns="http://www.w3.org/2000/svg" width="200" height="128">
    <path d="M67.059 70.728l-5.69-6.406a5.569 5.569 0 0 0 4.759-5.905c0-3.256-2.326-6.226-6.763-6.226h-8.947v18.752h3.543V64.68h3.4l5.475 6.263h4.223zm-7.694-15.281a3.013 3.013 0 1 1 0 6.012h-5.4v-6.012zM77.4 51.8c-6.477 0-9.662 4.974-9.662 9.913s3.077 9.7 9.662 9.7 9.591-4.867 9.627-9.734c.036-4.908-3.184-9.879-9.627-9.879zm0 3.221c4.438 0 6.191 3.543 6.155 6.692-.036 3.077-1.717 6.4-6.155 6.4s-6.084-3.292-6.155-6.37c-.107-3.143 1.719-6.725 6.155-6.725zM98.157 51.8c-6.513 0-9.662 4.974-9.662 9.913s3.042 9.7 9.662 9.7c6.585 0 9.591-4.867 9.626-9.734.072-4.908-3.149-9.879-9.626-9.879zm0 3.221c4.437 0 6.191 3.543 6.155 6.692-.036 3.077-1.718 6.4-6.155 6.4s-6.084-3.29-6.157-6.368c-.106-3.145 1.72-6.727 6.157-6.727zm36.466-3.221c-6.477 0-9.662 4.974-9.662 9.913s3.077 9.7 9.662 9.7c6.621 0 9.591-4.867 9.627-9.734.035-4.908-3.185-9.879-9.627-9.879zm0 3.221c4.438 0 6.191 3.543 6.155 6.692-.035 3.077-1.717 6.4-6.155 6.4s-6.084-3.292-6.155-6.37c-.107-3.143 1.718-6.725 6.155-6.725zm24.621-2.827v10.768c0 3.221-1.682 5.189-4.581 5.189-2.934 0-4.867-1.789-4.867-5.189V52.191h-3.507v10.771c0 5.654 3.83 8.41 8.339 8.41 4.723 0 8.123-2.863 8.123-8.41V52.191zm-49.671 18.749h3.543v-8.374l7.944 8.374h4.366v-.215l-9.054-9.484 8.338-9.018v-.107h-4.4l-7.193 8.088v-8.052h-3.543v18.788zm60.944 0h3.542V55.376H180v-3.221h-15.46v3.221h5.977z" fill="#54476e"/>
    <path d="M37 48.29a4.687 4.687 0 0 1-.894 1.145 3.634 3.634 0 0 1-2.648.608h-.072a5.59 5.59 0 0 0-5.586 5.583V58.1l-.107.108a6.035 6.035 0 0 0-1.932 4.723 11.716 11.716 0 0 0 1.86 5.941h-3.506a2.142 2.142 0 0 1-2.147-1.539H20v.251c0 2.4 1.932 3.471 4.044 3.471h4.473l-.93 3.4a3.572 3.572 0 0 0 .179 2.648 2.294 2.294 0 0 0 1.534 1.211 2.454 2.454 0 0 0 1.432-.107l.286-.107.143.25.215.322a2.594 2.594 0 0 0 4.151 0l.215-.322.143-.25.286.107a2.316 2.316 0 0 0 1.4.107A2.4 2.4 0 0 0 39.11 77.1a3.575 3.575 0 0 0 .143-2.648l-.93-3.4H42.8c2.111 0 4.044-1.074 4.044-3.471v-.215h-2a2.143 2.143 0 0 1-2.156 1.534h-3.507a11.71 11.71 0 0 0 1.861-5.941 5.993 5.993 0 0 0-1.932-4.724l-.036-.035 2.72-1.754a8.516 8.516 0 0 0-3.294-3.361 3.511 3.511 0 0 0-.536-.859l-.143-.143.071-.179c.394-1.038-.286-2.612-.9-3.614" fill="#54476e" fill-rule="evenodd"/>
    <path d="M37.356 71.086l1 3.65c.788 2.9-2 3.865-3.042 1.4.179 3.685-3.972 3.685-3.793 0-1 2.469-3.865 1.5-3.077-1.4l1-3.65h.536a2.321 2.321 0 0 1 2.4 1.825h2.04a2.3 2.3 0 0 1 2.4-1.825zm-3.471-17.893a1.682 1.682 0 1 1-1.685 1.682 1.68 1.68 0 0 1 1.685-1.682zm4.223 5.368a4.972 4.972 0 0 1 2.075 4.4 10.047 10.047 0 0 1-1.431 4.9 2.781 2.781 0 0 0-.966-.215c-.251-.036-.465-.286-.9-.286-.465 0-.68.25-.93.286-.5.072-.823.036-1.038.251a1.317 1.317 0 0 0-.286.644c0 .107-.036.25-.036.393v.394a2.379 2.379 0 0 0-.966 1.074l-.215.358-.215-.358a3.006 3.006 0 0 0-.966-1.11V68.9a1.336 1.336 0 0 0-.036-.394 1.065 1.065 0 0 0-.286-.644c-.215-.215-.537-.179-1.038-.251-.251-.035-.465-.286-.93-.286s-.645.251-.9.286a2.77 2.77 0 0 0-.966.215 10.447 10.447 0 0 1-1.432-4.9 5.016 5.016 0 0 1 2.076-4.4l1.181-.752c.286-.179.322-.393-.143-.358l-1.074.108V55.59a4.7 4.7 0 0 1 4.698-4.69s2.934.143 3.507-1.145a1.911 1.911 0 0 1-.286 2.4 2.5 2.5 0 0 1 1.073 1.181 3.984 3.984 0 0 0 .43 5.225z" fill="#af6bd6" fill-rule="evenodd"/>
    <path d="M28.088 67.865a10.447 10.447 0 0 1-1.432-4.9 5.016 5.016 0 0 1 2.076-4.4l1.181-.752c.286-.179.322-.394-.143-.358l-1.074.107v-1.936a4.725 4.725 0 0 1 2.147-3.936 4.326 4.326 0 0 0 1 6.191c-4.187 2.576-2.9 6.226-1 9.733-.25-.035-.465-.25-.894-.25-.466 0-.645.25-.9.286a2.77 2.77 0 0 0-.966.215m8.8-18.036a1.91 1.91 0 0 1-.286 2.4 2.943 2.943 0 0 0-.68-.214c-.072 0-.108-.108 0-.179a2.136 2.136 0 0 0 .974-2.007zm-3.32 29.058c-1.038.072-2.111-.823-2.04-2.755-1 2.469-3.865 1.5-3.077-1.4l1-3.65h.536a2.321 2.321 0 0 1 2.4 1.825h2v.036c-.962 1.972-.819 3.833-.819 5.944z" fill="#8c55b7" fill-rule="evenodd"/>
    <path d="M33.42 59.92c2.362 0 4.294 1.79 4.294 4.832a6.79 6.79 0 0 1-.572 2.648.787.787 0 0 0-.287-.036c-.465 0-.68.25-.93.286-.5.072-.823.036-1.038.251a1.326 1.326 0 0 0-.286.644c0 .107-.036.25-.036.393v.394a2.379 2.379 0 0 0-.966 1.074l-.215.358-.215-.358A3.006 3.006 0 0 0 32.2 69.3v-.4a1.336 1.336 0 0 0-.036-.394 1.059 1.059 0 0 0-.286-.644c-.215-.215-.537-.179-1.038-.251-.25-.035-.465-.286-.93-.286a.529.529 0 0 0-.251.036 6.772 6.772 0 0 1-.572-2.648c.035-3.006 1.932-4.8 4.33-4.8" fill="#fff" fill-rule="evenodd"/>
    <path d="M39.647 54.839a8.294 8.294 0 0 0-1.5-1.074 3.74 3.74 0 0 0-.537 2.076 3.13 3.13 0 0 0 .608 1.789l2.577-1.5a9.545 9.545 0 0 0-1.145-1.288" fill="#ffb03f"/>
    <path d="M37.678 56.556a2.92 2.92 0 0 0 .537 1.11l2.577-1.5a10.2 10.2 0 0 1-3.114.393" fill="#ed9140"/>
    <path d="M40.219 55.805a6.246 6.246 0 0 0-1.789-1.5 1.292 1.292 0 0 0-.251.644q1.02.377 2.04.859" fill="#ffce92"/>
    <path d="M34.422 53.765a.537.537 0 1 1-.537.537.49.49 0 0 1 .537-.537" fill="#fff" fill-rule="evenodd"/>
    <path d="M30.235 68.223a.406.406 0 0 0-.286-.108.367.367 0 0 0-.358.358v1.718a.325.325 0 0 0 .107.251.39.39 0 0 0 .251.107.366.366 0 0 0 .357-.358v-1.718a.205.205 0 0 0-.071-.25m-1.4 0a.453.453 0 0 0-.322.143.443.443 0 0 0-.143.286c0 .108-.036.215-.036.322v.967a.505.505 0 0 0 .43.429h.036a.31.31 0 0 0 .215-.107.325.325 0 0 0 .107-.251v-1.467a.324.324 0 0 0-.107-.251.277.277 0 0 0-.176-.071zm2.577.179a.441.441 0 0 0-.286-.143h-.036a.308.308 0 0 0-.215.107.322.322 0 0 0-.107.25V70.155a.324.324 0 0 0 .107.251c.036.071.107.071.179.107h.036a.441.441 0 0 0 .286-.143.942.942 0 0 0 .179-.322c0-.107.036-.215.036-.322v-.644a.982.982 0 0 0-.036-.322.478.478 0 0 0-.139-.36z" fill="#ed9140"/>
    <path d="M30.378 69.44a.5.5 0 0 1-.394.286c-.143 0-.286-.108-.393-.322v-.931a.322.322 0 0 1 .107-.25.387.387 0 0 1 .251-.108.406.406 0 0 1 .286.108.325.325 0 0 1 .107.25v.859zm-1.253-.179a.452.452 0 0 1-.393.25.55.55 0 0 1-.43-.322v-.215a.988.988 0 0 1 .036-.322.505.505 0 0 1 .43-.429h.032a.31.31 0 0 1 .215.107.324.324 0 0 1 .107.251v.68zm2.291-.859a.441.441 0 0 0-.286-.143h-.036a.308.308 0 0 0-.215.107.322.322 0 0 0-.107.25v.609c.107.179.25.322.393.322a.5.5 0 0 0 .394-.286v-.215a.982.982 0 0 0-.036-.322.331.331 0 0 0-.107-.324z" fill="#ffb03f"/>
    <path d="M36.569 68.223a.406.406 0 0 1 .286-.108.367.367 0 0 1 .358.358v1.718a.329.329 0 0 1-.107.251.39.39 0 0 1-.251.107.325.325 0 0 1-.25-.107.222.222 0 0 1-.143-.215v-1.718c0-.143.035-.25.107-.286m1.431 0a.453.453 0 0 1 .323.143.443.443 0 0 1 .143.286c0 .108.035.215.035.322v.967a.506.506 0 0 1-.429.429h-.036a.31.31 0 0 1-.214-.107.326.326 0 0 1-.108-.251v-1.467a.325.325 0 0 1 .108-.251c0-.035.071-.071.178-.071zm-2.612.179a.441.441 0 0 1 .286-.143h.036a.308.308 0 0 1 .215.107.325.325 0 0 1 .107.25V70.155a.327.327 0 0 1-.107.251c-.036.071-.108.071-.179.107h-.036a.438.438 0 0 1-.286-.143.942.942 0 0 1-.179-.322c0-.107-.036-.215-.036-.322v-.644a.982.982 0 0 1 .036-.322.475.475 0 0 1 .143-.36z" fill="#ed9140"/>
    <path d="M36.462 69.44a.5.5 0 0 0 .393.286c.143 0 .287-.108.394-.322v-.931a.325.325 0 0 0-.107-.25.387.387 0 0 0-.251-.108.4.4 0 0 0-.286.108.323.323 0 0 0-.108.25v.859zm1.216-.179a.455.455 0 0 0 .394.25.547.547 0 0 0 .429-.322v-.215a1.015 1.015 0 0 0-.035-.322.505.505 0 0 0-.43-.429H38a.31.31 0 0 0-.214.107.325.325 0 0 0-.108.251v.68zm-2.29-.859a.441.441 0 0 1 .286-.143h.036a.308.308 0 0 1 .215.107.325.325 0 0 1 .107.25v.609c-.107.179-.25.322-.393.322a.5.5 0 0 1-.394-.286v-.215a.982.982 0 0 1 .036-.322.329.329 0 0 1 .107-.324z" fill="#ffb03f"/>
    <circle cx="34.064" cy="54.767" r="1.932" fill="#af6bd6"/>
    <circle cx="33.921" cy="54.803" r="1.396" fill="#54476e"/>
    <circle cx="34.386" cy="54.266" r=".465" fill="#fff"/>
</svg>
