<svg xmlns="http://www.w3.org/2000/svg" width="200" height="128">
    <path d="M114.763 50.87h5.062a84675.95 84675.95 0 0 1-4.882 14.242h12.342c.224-.57.462-1.123.662-1.691q1.832-5.221 3.648-10.449a2.77 2.77 0 0 1 2.979-2.122h13.364a5.725 5.725 0 0 1 .817.059 2.159 2.159 0 0 1 1.984 2.659 9.462 9.462 0 0 1-.482 2.164c-1.381 3.983-2.8 7.953-4.2 11.93a2.63 2.63 0 0 1-2.453 1.854 6.71 6.71 0 0 1-.585.018q-6.507 0-13.013-.007a6.5 6.5 0 0 1-1.394-.132 1.953 1.953 0 0 1-1.635-1.822 3.375 3.375 0 0 0-.058-.346c-.007-.031-.046-.056-.1-.12l-.856 2.389h-17.555zm25.793 4.4c-1.073 0-2.146-.007-3.219 0a1.8 1.8 0 0 0-1.94 1.368 785.572 785.572 0 0 0-2.437 7.016 1.9 1.9 0 0 0-.09.687.747.747 0 0 0 .768.789c.155.014.312.007.468.007h5.971c1.507 0 1.841-.238 2.346-1.676q1.134-3.228 2.263-6.457a3.5 3.5 0 0 0 .151-.5c.154-.829-.169-1.227-1-1.232-1.095-.009-2.188-.005-3.281-.004zm33.819-4.588h-15.122c-.274 0-.548.007-.82.03a2.1 2.1 0 0 0-1.758 1.1 6.78 6.78 0 0 0-.489 1.06q-2.175 6.188-4.329 12.381a6.9 6.9 0 0 0-.289 1.072 2.35 2.35 0 0 0 1.45 2.708 4.408 4.408 0 0 0 1.83.332h12.074c.156 0 .313 0 .469-.011a2.3 2.3 0 0 0 2.051-1.337 11.072 11.072 0 0 0 .452-1.079q1.405-3.943 2.8-7.892c.064-.18.12-.362.195-.591H162c-.5 1.458-1.056 2.861-1.528 4.377h5.767c-.134.339-.242.6-.344.872a1.806 1.806 0 0 1-1.861 1.236h-2.168c-1.173 0-2.345 0-3.517-.008-.762 0-1.141-.44-.877-1.172.913-2.534 1.8-5.078 2.7-7.615a1.452 1.452 0 0 1 1.157-.97 5.547 5.547 0 0 1 1.045-.1q5.275-.01 10.551 0h.68l1.561-4.4zm-66.16.168H93.97c-.313 0-.626-.007-.938.006a2.428 2.428 0 0 0-2.4 1.8c-.61 1.792-1.224 3.583-1.827 5.378a7.9 7.9 0 0 0-.294 1.131 2.4 2.4 0 0 0 1.8 2.926 6.154 6.154 0 0 0 1.617.21c2.677.021 5.355.007 8.032.013a3.36 3.36 0 0 1 .925.1.58.58 0 0 1 .374.913 4.111 4.111 0 0 0-.249.53 1.791 1.791 0 0 1-1.769 1.282c-.213.016-.429.01-.644.01H87.94L86.392 69.5c.245.016.415.036.586.037h15.007a2.519 2.519 0 0 0 2.8-1.913c.022-.055.041-.11.061-.165.674-1.811 1.352-3.621 2.018-5.435a5.989 5.989 0 0 0 .287-1.013 2.371 2.371 0 0 0-1.7-2.879 5.473 5.473 0 0 0-1.611-.236c-2.736-.023-5.472-.008-8.207-.016a2.211 2.211 0 0 1-.8-.11.692.692 0 0 1-.4-.441 1.662 1.662 0 0 1 1.4-2.017 4.546 4.546 0 0 1 .818-.039h10.818l1.554-4.421zM44.991 69.535h14.767c.234 0 .469-.01.7-.025a2.22 2.22 0 0 0 1.888-1.2 4.953 4.953 0 0 0 .318-.69c.713-1.9 1.425-3.8 2.122-5.707a5.384 5.384 0 0 0 .27-1.076 2.341 2.341 0 0 0-1.447-2.6 4.349 4.349 0 0 0-1.827-.346H53.52a2.252 2.252 0 0 1-.8-.109.7.7 0 0 1-.4-.439 1.653 1.653 0 0 1 1.448-2.043 6.1 6.1 0 0 1 .877-.036h10.714l1.541-4.416H50.947a2.458 2.458 0 0 0-2.447 1.825c-.5 1.5-1.018 2.992-1.516 4.492a16.813 16.813 0 0 0-.589 1.959 2.43 2.43 0 0 0 1.755 2.96 3.074 3.074 0 0 0 .627.141 10.553 10.553 0 0 0 1.109.074c2.656.006 5.313 0 7.969.008a3.266 3.266 0 0 1 .923.1c.459.14.569.486.354.918a4.042 4.042 0 0 0-.246.531 1.794 1.794 0 0 1-1.778 1.269c-.253.018-.507.012-.761.012H45.824l-1.56 4.4zm20.257 0h13.6c.234 0 .468-.009.7-.02a3.907 3.907 0 0 0 3.809-2.838q2.67-7.628 5.364-15.245c.062-.176.117-.355.183-.557h-5.058c-.082.214-.162.412-.233.612q-1.041 2.923-2.08 5.848a1.34 1.34 0 0 1-1.391 1.031H73.518a3.691 3.691 0 0 1-.526-.021.643.643 0 0 1-.625-.762 3.218 3.218 0 0 1 .192-.791c.622-1.768 1.255-3.531 1.882-5.3.069-.2.123-.4.194-.628h-5.046a2.56 2.56 0 0 0-.134.277C68.632 53.5 67.8 55.86 67 58.225a9.461 9.461 0 0 0-.415 1.762 2.1 2.1 0 0 0 1.264 2.291 2.864 2.864 0 0 0 .825.288 16.574 16.574 0 0 0 2.15.218c2.676.025 5.353.01 8.03.01h.695c-.1.322-.187.577-.258.837a1.778 1.778 0 0 1-1.25 1.287 4.608 4.608 0 0 1-1.317.212c-3.341.017-6.682.009-10.023.009h-.682l-1.542 4.4zm.279 12.639c1.168-.5 2.341-.978 3.5-1.5a63.981 63.981 0 0 1 26.473-5.71 82.268 82.268 0 0 1 12.379.846q4.834.712 9.646 1.58c2.957.537 5.893 1.185 8.839 1.782a110.407 110.407 0 0 0 13.059 2.079 34.76 34.76 0 0 0 8.934-.279 20.077 20.077 0 0 0 7.142-2.665 22.151 22.151 0 0 0 7.221-7.628.97.97 0 0 0 .069-.2c-.054-.035-.085-.071-.117-.072-.488-.008-.98.026-1.463-.024a1.359 1.359 0 0 0-1.61.8 2.133 2.133 0 0 1-.28.374 17.522 17.522 0 0 1-12.582 7.306 35.864 35.864 0 0 1-8.128-.024c-3.5-.364-6.955-.985-10.4-1.687-1.931-.394-3.861-.8-5.8-1.14-1.557-.274-3.128-.463-4.693-.686-2.474-.353-4.944-.726-7.421-1.047-3.389-.439-6.787-.791-10.2-.951a62.944 62.944 0 0 0-11.637.368 56.089 56.089 0 0 0-11.207 2.36c-1.489.529-3.028.946-4.46 1.6-2.11.965-4.147 2.092-6.208 3.162a8.152 8.152 0 0 0-1.034.665 1.3 1.3 0 0 0-.608.851 4.941 4.941 0 0 0 .586-.16zm-19.3-31.326H31.405c-.449 0-.9-.01-1.347.007a3.916 3.916 0 0 0-3.908 2.869Q23.467 61.311 20.8 68.9c-.063.179-.111.364-.18.592h5.07c.086-.233.164-.433.235-.634 1.44-4.044 2.888-8.084 4.308-12.134a1.926 1.926 0 0 1 1.32-1.293 4.266 4.266 0 0 1 1.209-.158c3.964-.011 7.928-.006 11.893-.006h.7l1.573-4.422zm45.525 33.419q2.711.62 5.424 1.231c4.113.937 8.266 1.67 12.436 2.291 3.416.51 6.844.964 10.3 1.187 2.534.163 5.063.418 7.6.517a84.1 84.1 0 0 0 11.067-.079c1.924-.179 3.856-.316 5.767-.588a40.576 40.576 0 0 0 9.857-2.691 29.5 29.5 0 0 0 8.065-4.922 30.732 30.732 0 0 0 7.067-9.114c.278-.53.537-1.071.856-1.71-.727 0-1.346.028-1.962-.009a.892.892 0 0 0-.952.557c-.683 1.227-1.375 2.456-2.173 3.61a22.056 22.056 0 0 1-5.535 5.753 40.4 40.4 0 0 1-6.755 3.971 43.128 43.128 0 0 1-13.1 3.13c-2.677.267-5.382.321-8.075.348a130.894 130.894 0 0 1-15.155-.648c-3.8-.4-7.618-.74-11.416-1.2-3.041-.37-6.067-.873-9.095-1.341-1.292-.2-2.574-.466-3.862-.692a1.128 1.128 0 0 0-1.055.19c.296.09.493.163.696.209zm38.395-3.639a3.028 3.028 0 0 0-.356-.118c-1.74-.354-3.484-.7-5.222-1.061a7 7 0 0 0-2.263-.19 26.7 26.7 0 0 1-2.278.174c-3.24.09-6.477.34-9.723.158-1.619-.09-3.242-.09-4.861-.173-3.336-.17-6.671-.368-10.006-.554-2.282-.127-4.564-.249-6.846-.379-3.316-.189-6.631-.39-9.947-.567a2.907 2.907 0 0 0-1.028.149c-.983.319-1.954.677-2.929 1.022-.121.043-.238.1-.357.148a.621.621 0 0 0 .333.093c1.91.13 3.82.249 5.728.39 3.331.246 6.659.52 9.99.755s6.664.446 10 .656c4.543.288 9.092.457 13.645.477a124.092 124.092 0 0 0 12.991-.528c1.042-.105 2.081-.241 3.121-.362zM180 50.751a7.733 7.733 0 0 0-.033-.526 12.421 12.421 0 0 0-3.631-7.559 14.839 14.839 0 0 0-17.936-2.279 13.053 13.053 0 0 0-6.239 8.013 9.417 9.417 0 0 0-.363 2.549h2.087c.039-.054.057-.068.059-.084.015-.1.028-.193.038-.29a10.412 10.412 0 0 1 4.369-7.648 12.123 12.123 0 0 1 13.568-.979 10.556 10.556 0 0 1 5.886 8.687 1.824 1.824 0 0 0 .091.317h2.058a1 1 0 0 0 .046-.201zM71.745 77.5l-.515-.032-3.1-.186c-2.125-.126-4.249-.283-6.375-.37a410.555 410.555 0 0 0-7.847-.228 117.242 117.242 0 0 0-17.017.666c-1.394.174-2.793.329-4.176.569-3.27.568-6.49 1.366-9.708 2.173-.832.208-1.653.462-2.473.714-.222.068-.5.125-.535.517a4.986 4.986 0 0 0 1.239-.043c2.841-.516 5.677-1.063 8.526-1.533 2.33-.384 4.667-.74 7.014-.992a90.557 90.557 0 0 1 10.179-.446c3.983.02 7.966.138 11.948.228 1.21.028 2.419.1 3.629.159 2.087.1 4.174.195 6.262.286a1.049 1.049 0 0 0 .511-.068c.828-.427 1.643-.878 2.462-1.321zm63.222.322q2.09.279 4.18.55a4.144 4.144 0 0 0 2.234-.243c1.129-.483 2.3-.875 3.421-1.371a32.344 32.344 0 0 0 8.947-5.811c.151-.14.289-.294.46-.467a.807.807 0 0 0-.209-.08c-.977 0-1.954-.02-2.93 0a1.052 1.052 0 0 0-.566.245 33.574 33.574 0 0 1-10.772 5.539c-1.748.546-3.526 1-5.367 1.51.228.048.414.106.602.126z"/>
</svg>
