<svg xmlns="http://www.w3.org/2000/svg" xmlns:xlink="http://www.w3.org/1999/xlink" width="200" height="128">
    <defs>
        <linearGradient id="b" x1="71.835" y1="9.232" x2="59.389" y2="31.206" gradientTransform="matrix(1 0 0 -1 0 108)" gradientUnits="userSpaceOnUse">
            <stop offset="0" stop-color="#fb7655"/>
            <stop offset=".41" stop-color="#e42b1e"/>
            <stop offset=".99" stop-color="#900"/>
            <stop offset="1" stop-color="#900"/>
        </linearGradient>
        <linearGradient id="a" x1="78.035" y1="27.692" x2="61.995" y2="38.456" gradientTransform="matrix(1 0 0 -1 0 108)" gradientUnits="userSpaceOnUse">
            <stop offset="0" stop-color="#871101"/>
            <stop offset=".99" stop-color="#911209"/>
            <stop offset="1" stop-color="#911209"/>
        </linearGradient>
        <linearGradient id="c" x1="65.201" y1="8.566" x2="49.161" y2="19.33" xlink:href="#a"/>
        <linearGradient id="d" x1="31.523" y1="35.483" x2="34.009" y2="19.323" gradientTransform="matrix(1 0 0 -1 0 108)" gradientUnits="userSpaceOnUse">
            <stop offset="0" stop-color="#fff"/>
            <stop offset=".23" stop-color="#e57252"/>
            <stop offset=".46" stop-color="#de3b20"/>
            <stop offset=".99" stop-color="#a60003"/>
            <stop offset="1" stop-color="#a60003"/>
        </linearGradient>
        <linearGradient id="e" x1="48.626" y1="50.573" x2="49.542" y2="34.08" gradientTransform="matrix(1 0 0 -1 0 108)" gradientUnits="userSpaceOnUse">
            <stop offset="0" stop-color="#fff"/>
            <stop offset=".23" stop-color="#e4714e"/>
            <stop offset=".56" stop-color="#be1a0d"/>
            <stop offset=".99" stop-color="#a80d00"/>
            <stop offset="1" stop-color="#a80d00"/>
        </linearGradient>
        <linearGradient id="f" x1="63.804" y1="65.818" x2="66.547" y2="53.998" gradientTransform="matrix(1 0 0 -1 0 108)" gradientUnits="userSpaceOnUse">
            <stop offset="0" stop-color="#fff"/>
            <stop offset=".18" stop-color="#e46342"/>
            <stop offset=".4" stop-color="#c82410"/>
            <stop offset=".99" stop-color="#a80d00"/>
            <stop offset="1" stop-color="#a80d00"/>
        </linearGradient>
        <linearGradient id="g" x1="55.428" y1="69.98" x2="67.248" y2="75.89" gradientTransform="matrix(1 0 0 -1 0 108)" gradientUnits="userSpaceOnUse">
            <stop offset="0" stop-color="#fff"/>
            <stop offset=".54" stop-color="#c81f11"/>
            <stop offset=".99" stop-color="#bf0905"/>
            <stop offset="1" stop-color="#bf0905"/>
        </linearGradient>
        <linearGradient id="h" x1="21.162" y1="39.603" x2="22.135" y2="29.864" gradientTransform="matrix(1 0 0 -1 0 108)" gradientUnits="userSpaceOnUse">
            <stop offset="0" stop-color="#fff"/>
            <stop offset=".31" stop-color="#de4024"/>
            <stop offset=".99" stop-color="#bf190b"/>
            <stop offset="1" stop-color="#bf190b"/>
        </linearGradient>
        <linearGradient id="i" x1="14.474" y1="27.231" x2="60.204" y2="74.254" gradientTransform="matrix(1 0 0 -1 0 108)" gradientUnits="userSpaceOnUse">
            <stop offset="0" stop-color="#bd0012"/>
            <stop offset=".07" stop-color="#fff"/>
            <stop offset=".17" stop-color="#fff"/>
            <stop offset=".27" stop-color="#c82f1c"/>
            <stop offset=".33" stop-color="#820c01"/>
            <stop offset=".46" stop-color="#a31601"/>
            <stop offset=".72" stop-color="#b31301"/>
            <stop offset=".99" stop-color="#e82609"/>
            <stop offset="1" stop-color="#e82609"/>
        </linearGradient>
        <linearGradient id="j" x1="49.502" y1="22.488" x2="35.728" y2="25.888" gradientTransform="matrix(1 0 0 -1 0 108)" gradientUnits="userSpaceOnUse">
            <stop offset="0" stop-color="#8c0c01"/>
            <stop offset=".54" stop-color="#990c00"/>
            <stop offset=".99" stop-color="#a80d0e"/>
            <stop offset="1" stop-color="#a80d0e"/>
        </linearGradient>
        <linearGradient id="k" x1="73.161" y1="39.02" x2="60.924" y2="49.987" gradientTransform="matrix(1 0 0 -1 0 108)" gradientUnits="userSpaceOnUse">
            <stop offset="0" stop-color="#7e110b"/>
            <stop offset=".99" stop-color="#9e0c00"/>
            <stop offset="1" stop-color="#9e0c00"/>
        </linearGradient>
        <linearGradient id="l" x1="77.656" y1="59.143" x2="71.561" y2="65.659" gradientTransform="matrix(1 0 0 -1 0 108)" gradientUnits="userSpaceOnUse">
            <stop offset="0" stop-color="#79130d"/>
            <stop offset=".99" stop-color="#9e120b"/>
            <stop offset="1" stop-color="#9e120b"/>
        </linearGradient>
        <radialGradient id="m" cx="96.607" cy="135.923" r="9.067" gradientTransform="matrix(1.654 0 0 -1.654 -96.946 283.022)" gradientUnits="userSpaceOnUse">
            <stop offset="0" stop-color="#a80d00"/>
            <stop offset=".99" stop-color="#7e0e08"/>
            <stop offset="1" stop-color="#7e0e08"/>
        </radialGradient>
        <radialGradient id="n" cx="84.05" cy="123.974" r="12.053" gradientTransform="matrix(1.654 0 0 -1.654 -96.946 283.022)" gradientUnits="userSpaceOnUse">
            <stop offset="0" stop-color="#a30c00"/>
            <stop offset=".99" stop-color="#800e08"/>
            <stop offset="1" stop-color="#800e08"/>
        </radialGradient>
        <linearGradient id="o" x1="27.942" y1="14.655" x2="22.974" y2="31.508" gradientTransform="matrix(1 0 0 -1 0 108)" gradientUnits="userSpaceOnUse">
            <stop offset="0" stop-color="#8b2114"/>
            <stop offset=".43" stop-color="#9e100a"/>
            <stop offset=".99" stop-color="#b3100c"/>
            <stop offset="1" stop-color="#b3100c"/>
        </linearGradient>
        <linearGradient id="p" x1="66.048" y1="70.5" x2="77.185" y2="65.584" gradientTransform="matrix(1 0 0 -1 0 108)" gradientUnits="userSpaceOnUse">
            <stop offset="0" stop-color="#b31000"/>
            <stop offset=".44" stop-color="#910f08"/>
            <stop offset=".99" stop-color="#791c12"/>
            <stop offset="1" stop-color="#791c12"/>
        </linearGradient>
    </defs>
    <g fill="#373737">
        <path d="M100.029 68.708v9.864h-5.451V52.866h7.491q5.238 0 7.754 1.908a7.605 7.605 0 0 1 1.265 9.829 8.256 8.256 0 0 1-3.534 2.769l7.561 11.2h-6.049l-6.136-9.864zm0-4.43h1.758a6.733 6.733 0 0 0 3.816-.862 3.076 3.076 0 0 0 1.23-2.708 2.813 2.813 0 0 0-1.257-2.6 7.624 7.624 0 0 0-3.894-.774h-1.653zM131.169 78.572l-.72-2.514h-.282a5.657 5.657 0 0 1-2.444 2.119 8.345 8.345 0 0 1-3.6.747 6.861 6.861 0 0 1-5.222-1.855 7.464 7.464 0 0 1-1.758-5.336V58.915h5.357V70.4a5.518 5.518 0 0 0 .756 3.192 2.751 2.751 0 0 0 2.409 1.063 3.622 3.622 0 0 0 3.253-1.5 9.326 9.326 0 0 0 1-4.985v-9.255h5.363v19.657zM151.163 58.546a6.357 6.357 0 0 1 5.45 2.716 12.463 12.463 0 0 1 1.97 7.446q0 4.87-2.031 7.543a7.091 7.091 0 0 1-10.963.159h-.369l-.9 2.162h-4.1V51.214h5.363v6.364q0 1.213-.211 3.886h.211a6.2 6.2 0 0 1 5.58-2.918zm-1.723 4.29a3.387 3.387 0 0 0-2.9 1.222 7.018 7.018 0 0 0-.949 4.035v.58a8.277 8.277 0 0 0 .941 4.537 3.356 3.356 0 0 0 2.98 1.371 2.993 2.993 0 0 0 2.629-1.521 8.238 8.238 0 0 0 .975-4.422 7.8 7.8 0 0 0-.984-4.352 3.088 3.088 0 0 0-2.692-1.45zM159.516 58.915h5.873l3.71 11.059a15.381 15.381 0 0 1 .65 3.411h.106a15.036 15.036 0 0 1 .756-3.411l3.639-11.059H180l-8.317 22.172a9.6 9.6 0 0 1-3.261 4.606 8.234 8.234 0 0 1-4.95 1.53 12.455 12.455 0 0 1-2.725-.3v-4.254a9.183 9.183 0 0 0 2.11.229 3.81 3.81 0 0 0 2.488-.871 5.636 5.636 0 0 0 1.661-2.628l.317-.967z"/>
    </g>
    <path fill="url(#b)" d="M65.709 73.416L32.024 93.417l43.615-2.959 3.359-43.979-13.289 26.937z"/>
    <path fill="url(#a)" d="M75.711 90.428l-3.749-25.874-10.211 13.483 13.96 12.391z"/>
    <path fill="url(#c)" d="M75.761 90.428l-27.463-2.156-16.128 5.089 43.591-2.933z"/>
    <path fill="url(#d)" d="M32.209 93.367l6.861-22.476-15.098 3.228 8.237 19.248z"/>
    <path fill="url(#e)" d="M61.748 78.112l-6.313-24.728-18.066 16.935 24.379 7.793z"/>
    <path fill="url(#f)" d="M77.566 53.733L60.489 39.785l-4.756 15.374 21.833-1.426z"/>
    <path fill="url(#g)" d="M69.58 34.812l-10.044 5.551-6.337-5.625 16.381.074z"/>
    <path fill="url(#h)" d="M20 81.658l4.208-7.674-3.404-9.141L20 81.658z"/>
    <path d="M20.578 64.554L24 74.267l14.88-3.338 16.99-15.788 4.794-15.228-7.549-5.33-12.834 4.8c-4.043 3.761-11.89 11.2-12.173 11.342s-5.181 9.41-7.53 13.829z" fill="#fff"/>
    <path d="M32.6 47.1c8.763-8.689 20.061-13.823 24.4-9.448s-.262 15.005-9.026 23.691-19.921 14.1-24.254 9.728.118-15.281 8.88-23.971z" fill="url(#i)"/>
    <path d="M32.209 93.358l6.807-22.548 22.607 7.263c-8.174 7.665-17.265 14.144-29.414 15.285z" fill="url(#j)"/>
    <path d="M55.9 55.1l5.8 22.989c6.828-7.18 12.956-14.9 15.957-24.445z" fill="url(#k)"/>
    <path d="M77.6 53.756c2.322-7.009 2.858-17.065-8.094-18.932l-8.987 4.964z" fill="url(#l)"/>
    <path d="M20 81.557C20.322 93.126 28.668 93.3 32.224 93.4l-8.213-19.18z" fill="#9e1209"/>
    <path d="M55.932 55.132c5.247 3.225 15.821 9.7 16.036 9.821.333.187 4.559-7.126 5.518-11.259z" fill="url(#m)"/>
    <path d="M39.007 70.81l9.1 17.557a58.865 58.865 0 0 0 13.454-10.282z" fill="url(#n)"/>
    <path d="M23.975 74.244L22.686 89.6c2.433 3.323 5.78 3.612 9.291 3.353-2.54-6.325-7.615-18.966-8.002-18.709z" fill="url(#o)"/>
    <path d="M60.468 39.827l18.078 2.537c-.965-4.089-3.928-6.727-8.978-7.552z" fill="url(#p)"/>
</svg>
