<svg xmlns="http://www.w3.org/2000/svg" xml:space="preserve" width="1080" height="1080">
	<g style="stroke-width:.109073">
		<path style="opacity:1;fill:#13beb7;fill-opacity:1;stroke:none;stroke-width:4.93193007;stroke-linecap:round;stroke-linejoin:round;stroke-miterlimit:4;stroke-dasharray:none;stroke-opacity:.22977301" d="M66.983-78.185a28.898 28.898 0 0 1-28.899-28.897 28.898 28.898 0 0 1 28.899-28.899 28.898 28.898 0 0 1 28.897 28.899 28.898 28.898 0 0 1-7.523 19.398L69.5-108.707a2.946 2.946 0 0 0-2.096-.868 2.967 2.967 0 0 0-2.098 5.065l21.02 18.853a28.898 28.898 0 0 1-19.342 7.472zm-4.846-10.58a5.307 5.307 0 0 1 9.692 0 18.959 18.959 0 0 0 4.68-1.945 5.24 5.24 0 0 1-.33-1.493L69.84-97.72a9.674 9.674 0 0 1-2.857.427c-5.399 0-9.791-4.39-9.791-9.793 0-5.396 4.392-9.789 9.791-9.789 5.396 0 9.79 4.393 9.79 9.789a9.82 9.82 0 0 1-.466 2.984l5.403 6.214c.56.023 1.112.13 1.645.327a18.862 18.862 0 0 0 1.945-4.673 5.318 5.318 0 0 1-3.142-4.852c0-2.16 1.29-4.015 3.142-4.843a18.817 18.817 0 0 0-1.945-4.677 5.316 5.316 0 0 1-5.642-1.206 5.304 5.304 0 0 1-1.206-5.644 18.902 18.902 0 0 0-4.68-1.945 5.307 5.307 0 0 1-9.691 0c-1.661.439-3.23 1.1-4.677 1.945a5.305 5.305 0 0 1-1.209 5.644c-1.52 1.525-3.744 1.921-5.638 1.206a18.84 18.84 0 0 0-1.948 4.677 5.305 5.305 0 0 1 0 9.69 18.85 18.85 0 0 0 1.948 4.678 5.3 5.3 0 0 1 5.638 1.21 5.298 5.298 0 0 1 1.21 5.64 18.874 18.874 0 0 0 4.676 1.946z" transform="matrix(11.46029 0 0 -11.46029 -227.633 -847.415)"/>
	</g>
	<path style="fill:#041922;fill-opacity:1;fill-rule:nonzero;stroke:none;stroke-width:1.70024383" d="M505.318 807.549v87.762c-4.636-8.648-11.477-15.583-20.543-20.81-9.059-5.433-19.12-8.144-30.199-8.144-13.688 0-25.77 3.62-36.238 10.86-10.474 7.233-18.728 17.09-24.766 29.556-6.044 12.268-9.058 26.14-9.058 41.622 0 11.663 1.805 22.517 5.431 32.572 3.627 10.055 8.762 18.8 15.403 26.238 6.847 7.439 14.797 13.27 23.863 17.494 9.258 4.02 19.326 6.031 30.2 6.031 10.665 0 20.835-2.411 30.497-7.24 9.671-4.82 17.322-12.159 22.953-22.015l.91 8.142c1.21 6.436 4.33 11.462 9.358 15.082 5.24 3.62 11.982 5.428 20.238 5.428 5.234 0 12.08-.803 20.535-2.41V987.6c-3.62-.398-6.236-1.507-7.85-3.313-1.614-2.013-2.417-5.432-2.417-10.254V807.55h-48.317zm197.514 0v87.762c-4.637-8.648-11.477-15.583-20.543-20.81-9.059-5.433-19.12-8.144-30.2-8.144-13.688 0-25.768 3.62-36.241 10.86-10.469 7.233-18.724 17.09-24.762 29.556-6.044 12.268-9.059 26.14-9.059 41.622 0 11.663 1.805 22.517 5.432 32.572 3.627 10.055 8.761 18.8 15.402 26.238 6.847 7.439 14.798 13.27 23.864 17.494 9.257 4.02 19.328 6.031 30.2 6.031 10.666 0 20.834-2.411 30.497-7.24 9.67-4.82 17.322-12.159 22.953-22.015l.91 8.142c1.209 6.436 4.33 11.462 9.358 15.082 5.24 3.62 11.981 5.428 20.238 5.428 5.233 0 12.08-.803 20.535-2.41V987.6c-3.62-.398-6.243-1.507-7.85-3.313-1.615-2.013-2.418-5.432-2.418-10.254V807.55h-48.316zm-694.41 6.027v214.14h49.533V958.65h33.518l31.734 53.36s1.88 3.107 3.01 4.521c2.377 3.001 5.764 6.868 7.869 8.381 4.94 3.554 10.879 5.22 19.334 5.22 2.617 0 5.54-.203 8.76-.603 3.427-.404 7.354-1.01 11.783-1.812v-40.11c-4.011.16-5.84.199-8.256-1.109-2.877-1.549-4.968-3.911-6.87-6.74l-1.99-3.362-16.75-28.306c7.247-4.02 13.489-9.145 18.73-15.381a72.601 72.601 0 0 0 12.073-21.414c2.823-8.042 4.23-16.49 4.23-25.336s-1.812-17.589-5.439-26.236c-3.419-8.648-8.248-16.385-14.492-23.225-6.243-7.034-13.695-12.567-22.35-16.592-8.453-4.216-17.72-6.33-27.786-6.33H8.421zm49.533 43.43h43.785c3.826 0 7.452 1.21 10.873 3.62 3.421 2.412 6.243 5.833 8.455 10.257 2.418 4.223 3.625 9.244 3.625 15.076 0 5.83-1.006 10.957-3.02 15.38-2.01 4.423-4.63 7.945-7.85 10.561-3.022 2.411-6.543 3.614-10.567 3.614h-45.3v-58.508zm806.168 9.105c-17.922 0-33.226 3.926-45.912 11.78-12.686 7.652-22.454 17.821-29.3 30.507-6.646 12.485-9.968 26.38-9.968 41.684 0 10.673 1.913 20.942 5.739 30.809 3.826 9.665 9.364 18.225 16.613 25.675 7.45 7.451 16.411 13.39 26.883 17.82 10.471 4.23 22.453 6.344 35.945 6.344 12.082 0 23.057-1.812 32.924-5.437 10.068-3.625 18.727-8.558 25.976-14.8 7.451-6.445 13.19-13.793 17.217-22.05l-41.08-11.478c-2.416 5.84-6.845 10.471-13.289 13.894-6.242 3.424-12.989 5.135-20.238 5.135-5.84 0-11.378-1.208-16.613-3.625-5.236-2.618-9.565-6.343-12.989-11.176-3.222-4.833-5.134-10.772-5.738-17.82H947.49c.202-2.014.402-4.33.604-6.947.402-2.82.603-5.64.603-8.46 0-14.498-3.321-27.888-9.967-40.171-6.645-12.485-16.311-22.555-28.998-30.207-12.485-7.652-27.687-11.477-45.609-11.477zm199.604.852c-9.464.199-18.522 3.313-27.176 9.344-8.661 6.037-15.707 14.38-21.14 25.033v-31.967h-44.4v158.344h48.325v-95.008c4.223-7.24 11.072-12.665 20.535-16.285 9.465-3.819 20.03-5.733 31.707-5.733v-43.43c-.804-.198-1.807-.298-3.015-.298h-4.836zm-861.028 2.41v101.338c0 19.507 4.232 34.382 12.686 44.637 8.455 10.255 20.743 15.382 36.847 15.382 13.284 0 25.267-2.411 35.94-7.24 10.871-5.028 19.93-12.763 27.176-23.224l.91 9.658c1.209 6.428 4.33 11.456 9.365 15.076 5.028 3.42 11.775 5.127 20.23 5.127 2.617 0 5.538-.2 8.76-.605 3.421-.398 7.345-1.003 11.776-1.805V987.6c-3.826-.398-6.542-1.507-8.149-3.313-1.414-2.013-2.119-5.432-2.119-10.254v-104.66h-48.318v97.719c-3.023 5.432-6.45 9.855-10.268 13.27-3.825 3.42-7.757 5.93-11.781 7.544-4.025 1.401-8.255 2.106-12.686 2.106-7.045 0-12.48-2.512-16.306-7.54-3.826-5.226-5.739-12.665-5.739-22.316v-90.783H202.7zm660.819 31.475c6.04 0 11.579 1.409 16.613 4.228 5.034 2.618 9.061 6.444 12.082 11.479 3.02 4.833 4.935 10.571 5.74 17.216h-68.869c.805-6.645 2.72-12.383 5.74-17.216 3.02-5.035 6.947-8.861 11.78-11.479 5.034-2.819 10.671-4.228 16.914-4.228zm-393.54 6.529c4.834 0 9.563 1.203 14.198 3.62a42.36 42.36 0 0 1 12.68 9.65c3.825 4.017 6.748 8.748 8.761 14.173v33.174c-1.608 3.22-3.626 6.237-6.037 9.053-2.418 2.815-5.135 5.128-8.156 6.933a47.247 47.247 0 0 1-9.059 4.524 33.154 33.154 0 0 1-9.97 1.508c-5.433 0-10.467-1.004-15.102-3.016-4.63-2.006-8.655-4.821-12.076-8.441-3.428-3.819-6.143-8.142-8.156-12.971-1.813-5.028-2.715-10.455-2.715-16.285 0-5.633.803-10.959 2.412-15.986 1.812-5.028 4.329-9.451 7.55-13.27 3.22-4.02 6.946-7.141 11.176-9.352 4.431-2.212 9.26-3.314 14.495-3.314zm197.514 0c4.834 0 9.565 1.203 14.2 3.62a42.35 42.35 0 0 1 12.677 9.65c3.826 4.017 6.749 8.748 8.76 14.173v33.174c-1.607 3.22-3.624 6.237-6.035 9.053-2.418 2.815-5.135 5.128-8.157 6.933a47.247 47.247 0 0 1-9.058 4.524 33.155 33.155 0 0 1-9.97 1.508c-5.433 0-10.468-1.004-15.096-3.016-4.637-2.006-8.662-4.821-12.083-8.441-3.427-3.819-6.14-8.142-8.154-12.971-1.812-5.028-2.717-10.455-2.717-16.285 0-5.633.804-10.959 2.41-15.986 1.815-5.028 4.331-9.451 7.553-13.27 3.22-4.02 6.948-7.141 11.178-9.352 4.43-2.212 9.257-3.314 14.492-3.314z"/>
</svg>
