<svg xmlns="http://www.w3.org/2000/svg" width="200" height="128">
    <path d="M56.232 63.06v-6.048h1.04q4 0 4 2.928 0 3.12-4.136 3.12zm7.2.528a5.677 5.677 0 0 0 1.248-3.68 5.487 5.487 0 0 0-1.98-4.416q-1.824-1.5-5.9-1.5h-3.592v20.16h3.024v-8.068h.568l5.72 8.064h4l-6.392-8.592a5.545 5.545 0 0 0 3.28-1.968zm18.024 2.4a6.231 6.231 0 0 1-.872 3.744 4.8 4.8 0 0 1-7.328 0 6.324 6.324 0 0 1-.872-3.744v-12h-3.048v12.8a7.063 7.063 0 0 0 2.008 5.176 7.935 7.935 0 0 0 11.1 0 7.063 7.063 0 0 0 2.008-5.176v-12.8h-3.02v12zm22.176 2.032l-15.144-15.4v21.528h3.024V60.036l15.12 15.344V53.988h-3.024zm18.248 1.288a6.786 6.786 0 0 1-2.4 1.416 11.228 11.228 0 0 1-3.376.424h-1.352V57.012h1.348a8.411 8.411 0 0 1 5.832 1.8 6.811 6.811 0 0 1 2.2 5.256 6.689 6.689 0 0 1-2.224 5.216zm2.42-12.688a9.187 9.187 0 0 0-3.5-2.032 15.826 15.826 0 0 0-4.8-.6h-4.288v20.16h4.232a15.9 15.9 0 0 0 4.8-.56 9.605 9.605 0 0 0 3.464-2 9.482 9.482 0 0 0 3.3-7.52 9.6 9.6 0 0 0-3.2-7.48zm6.512 17.6H141.9v-3.1h-8.06v-6.044h8.06v-3.024h-8.06v-5.04h8.06v-3.024h-11.084zm16.9-16.688a10.144 10.144 0 0 0-2.552 6.776 9.785 9.785 0 0 0 3.048 7.2 10.162 10.162 0 0 0 7.368 2.976 11.109 11.109 0 0 0 5.48-1.456V69.42a16.951 16.951 0 0 1-1.416 1.056 7.96 7.96 0 0 1-1.3.688 6.5 6.5 0 0 1-2.728.52 7.282 7.282 0 0 1-7.352-7.408 7.36 7.36 0 0 1 2.136-5.352 6.985 6.985 0 0 1 5.232-2.208 8.478 8.478 0 0 1 5.456 2.184v-3.56a10.4 10.4 0 0 0-5.248-1.456 10.177 10.177 0 0 0-8.1 3.648zm23.2 5.6l9.04-9.144h-3.7l-8.144 8.232v-7.2h-3.024v19.128h3.024V65.8l.624-.624 7.2 8.968H180z"/>
    <path d="M20 74.148h13.7l2.56-4h-13.7zM36.256 58.02l-2.56-4H20l2.552 4zm2.488 4H25.056l1.272 2.016-1.272 2.048h13.688L40 64.068z" fill="#f7403a"/>
</svg>
