<svg width="197" height="56" fill="none" xmlns="http://www.w3.org/2000/svg">
	<path d="M19.948 44.393 13.72 35.43c-.261.03-.653.044-1.176.044H5.662v8.92H0V13.787h12.544c2.642 0 4.936.438 6.882 1.312 1.974.874 3.484 2.128 4.53 3.76 1.045 1.632 1.567 3.57 1.567 5.815 0 2.302-.566 4.285-1.698 5.946-1.104 1.661-2.7 2.9-4.791 3.716l7.012 10.056h-6.098Zm-.13-19.718c0-1.953-.64-3.454-1.917-4.503-1.277-1.05-3.15-1.574-5.618-1.574h-6.62v12.198h6.62c2.468 0 4.34-.525 5.618-1.574 1.278-1.079 1.917-2.594 1.917-4.547Z" fill="#2B3A67"/>
	<path d="M51.937 44.83c-4.21 0-7.491-1.18-9.843-3.541-2.352-2.39-3.528-5.8-3.528-10.23v-17.27h5.662v17.05c0 6.005 2.584 9.007 7.753 9.007 5.14 0 7.71-3.002 7.71-9.006V13.788h5.574v17.27c0 4.43-1.176 7.84-3.528 10.23-2.323 2.362-5.59 3.542-9.8 3.542Z" fill="#2B3A67"/>
	<path d="M107.255 13.788v30.605h-4.66L85.783 23.67v20.724h-5.619V13.788h4.66l16.813 20.724V13.788h5.618Z" fill="#2B3A67"/>
	<path d="m168.83 44.393-6.316-9.487-6.228 9.487h-9.844l11.107-15.477-10.628-15.128h9.713l6.098 8.832 6.011-8.832h9.321l-10.628 14.778 11.324 15.827h-9.93Z" fill="#2B3A67"/>
	<path d="M187.33 56v-2.573h6.615V2.573h-6.615V0h9.596v56h-9.596Z" fill="#FE794F"/>
	<path d="M126.394 0h9.596v2.573h-6.616v50.854h6.616V56h-9.596V0Z" fill="#FE794F"/>
</svg>
