<svg xmlns="http://www.w3.org/2000/svg" viewBox="-34.78 -26.78 1912.56 547.56">
	<defs>
		<style>
			.cls-3{fill:#5a4198}.cls-4{fill:#92a4b3}.cls-5{fill:#000003}.cls-6{fill:#272f85}.cls-7{fill:#bfb4d8}.cls-8{fill:#272445}.cls-9{fill:#262628}.cls-11{fill:#171364}.cls-13{fill:#0f0c5e}.cls-14{fill:#373970}.cls-15{fill:#6d6091}.cls-16{fill:#08064a}
		</style>
	</defs>
	<g id="Group_1" data-name="Group 1">
		<path fill="#120362" d="M585.623 297.85a52.209 52.209 0 0 0 8.75 7.875 49.044 49.044 0 0 0 11.55 6.125 38.675 38.675 0 0 0 13.825 2.45 39.152 39.152 0 0 0 12.775-2.1 34.92 34.92 0 0 0 10.85-5.95 27.539 27.539 0 0 0 7.525-9.8 31.716 31.716 0 0 0 2.8-13.65q0-10.844-6.125-16.625a48.281 48.281 0 0 0-15.225-9.45 161.355 161.355 0 0 0-19.95-6.475 83.518 83.518 0 0 1-19.95-7.875 46.773 46.773 0 0 1-15.225-13.475q-6.127-8.4-6.125-23.1a56.459 56.459 0 0 1 3.85-21.175 46.548 46.548 0 0 1 11.2-16.625 52.48 52.48 0 0 1 18.2-11.025 71.232 71.232 0 0 1 24.85-4.025q12.944 0 21.875 3.5 8.925 3.503 16.975 6.3a77.575 77.575 0 0 0-5.25 12.95 92.42 92.42 0 0 0-3.15 11.9h-4.2q-2.806-8.4-10.85-15.05-8.055-6.645-19.95-6.65a33.077 33.077 0 0 0-10.5 1.75 29.018 29.018 0 0 0-9.45 5.25 27.866 27.866 0 0 0-7 9.1 29.39 29.39 0 0 0-2.8 13.3q0 11.206 6.125 17.325a42.902 42.902 0 0 0 15.225 9.625 160.805 160.805 0 0 0 19.95 6.125 88.194 88.194 0 0 1 19.95 7.35 43.377 43.377 0 0 1 15.225 13.125q6.12 8.4 6.125 23.1a48.502 48.502 0 0 1-4.375 19.95 56.01 56.01 0 0 1-12.6 17.675 57.797 57.797 0 0 1-19.775 12.25 73.756 73.756 0 0 1-26.25 4.375q-16.102 0-26.95-3.15a84.123 84.123 0 0 1-18.2-7.35 91.517 91.517 0 0 0 4.375-12.425 49.168 49.168 0 0 0 2.275-13.125h4.2a37.62 37.62 0 0 0 5.425 7.7zm135.973-124.6q15.75-11.895 29.05-16.1a90.087 90.087 0 0 1 27.3-4.2 69.51 69.51 0 0 1 23.1 3.675 50.243 50.243 0 0 1 17.85 10.5 48.782 48.782 0 0 1 11.55 16.45 52.39 52.39 0 0 1 4.2 21.175q0 19.95-.7 39.725-.706 19.778-.7 41.825 0 4.2.174 8.925a26.152 26.152 0 0 0 1.576 8.4 15.966 15.966 0 0 0 4.025 6.125q2.625 2.452 7.875 2.45c1.164 0 2.39-.054 3.675-.175a8.593 8.593 0 0 0 3.675-1.225v7.7a41.308 41.308 0 0 1-9.625 2.8 71.635 71.635 0 0 1-12.776 1.05q-11.204 0-17.15-5.775a23.789 23.789 0 0 1-7-14.875q-12.6 12.6-24.85 18.55-12.255 5.947-30.1 5.95a61.06 61.06 0 0 1-17.15-2.45 39.237 39.237 0 0 1-14.874-8.05 44.064 44.064 0 0 1-10.5-13.475 39.019 39.019 0 0 1-4.025-18.025q0-21 13.125-32.55 13.125-11.55 36.224-15.4 18.9-3.15 29.576-5.425 10.672-2.272 15.75-4.725 5.07-2.444 6.125-5.775a29.08 29.08 0 0 0 1.05-8.575 66.354 66.354 0 0 0-2.1-16.8 39.034 39.034 0 0 0-6.65-14 33.643 33.643 0 0 0-11.9-9.625q-7.35-3.675-17.85-3.675a55.525 55.525 0 0 0-26.075 6.3 41.508 41.508 0 0 0-18.025 17.5h-3.85zm86.45 62.3a87.83 87.83 0 0 1-13.825 3.5q-7.875 1.403-15.926 2.975a152.069 152.069 0 0 0-15.924 4.025 51.795 51.795 0 0 0-14 6.65 32.37 32.37 0 0 0-9.8 10.5q-3.675 6.3-3.675 16.1 0 16.456 9.45 24.85 9.45 8.4 21 8.4a42.932 42.932 0 0 0 24.324-7.35 55.239 55.239 0 0 0 16.976-17.15zm88.55-62.3q15.75-11.895 29.05-16.1a90.078 90.078 0 0 1 27.3-4.2 69.513 69.513 0 0 1 23.099 3.675 50.243 50.243 0 0 1 17.85 10.5 48.782 48.782 0 0 1 11.55 16.45 52.39 52.39 0 0 1 4.2 21.175q0 19.95-.7 39.725-.706 19.778-.7 41.825 0 4.2.175 8.925a26.152 26.152 0 0 0 1.575 8.4 15.966 15.966 0 0 0 4.026 6.125q2.625 2.452 7.875 2.45c1.164 0 2.39-.054 3.674-.175a8.593 8.593 0 0 0 3.675-1.225v7.7a41.308 41.308 0 0 1-9.625 2.8 71.635 71.635 0 0 1-12.775 1.05q-11.205 0-17.15-5.775a23.789 23.789 0 0 1-7-14.875q-12.6 12.6-24.85 18.55-12.255 5.947-30.1 5.95a61.066 61.066 0 0 1-17.15-2.45 39.244 39.244 0 0 1-14.875-8.05 44.064 44.064 0 0 1-10.5-13.475 39.025 39.025 0 0 1-4.024-18.025q0-21 13.125-32.55 13.125-11.55 36.224-15.4 18.9-3.15 29.575-5.425 10.673-2.272 15.75-4.725 5.07-2.444 6.125-5.775a29.08 29.08 0 0 0 1.05-8.575 66.353 66.353 0 0 0-2.1-16.8 39.025 39.025 0 0 0-6.65-14 33.646 33.646 0 0 0-11.9-9.625q-7.35-3.675-17.85-3.675a55.528 55.528 0 0 0-26.075 6.3 41.51 41.51 0 0 0-18.024 17.5h-3.85zm86.449 62.3a87.823 87.823 0 0 1-13.825 3.5q-7.875 1.403-15.925 2.975a152.069 152.069 0 0 0-15.925 4.025 51.791 51.791 0 0 0-14 6.65 32.376 32.376 0 0 0-9.8 10.5q-3.674 6.3-3.674 16.1 0 16.456 9.45 24.85 9.45 8.4 20.999 8.4a42.933 42.933 0 0 0 24.325-7.35 55.233 55.233 0 0 0 16.976-17.15zm158.375-54.25a31.52 31.52 0 0 0-10.325-1.75 29.488 29.488 0 0 0-15.05 3.85 35.035 35.035 0 0 0-11.2 10.325 49.113 49.113 0 0 0-7 15.4 71.748 71.748 0 0 0-2.45 19.075v38.5q0 23.452.175 35.875a172.318 172.318 0 0 0 1.225 20.125 139.479 139.479 0 0 0-14-.7 146.598 146.598 0 0 0-14.7.7q1.05-11.894 1.225-32.375.172-20.475.175-50.225v-11.2q0-13.65-.175-31.5-.18-17.85-1.225-40.95 3.848.705 7.35 1.225a49.371 49.371 0 0 0 7.35.525 44.835 44.835 0 0 0 6.65-.525q3.494-.525 7.35-1.225-1.402 12.6-1.575 19.95-.18 7.35-.175 14l.7.35q20.647-37.8 46.2-37.8a36.822 36.822 0 0 1 5.425.35 28.128 28.128 0 0 1 5.776 1.75q-1.757 4.2-2.101 12.775-.353 8.58-.35 15.575l-2.45 1.75q-1.755-2.1-6.825-3.85zm42.524-8.05q15.75-11.895 29.051-16.1a90.084 90.084 0 0 1 27.3-4.2 69.513 69.513 0 0 1 23.1 3.675 50.243 50.243 0 0 1 17.85 10.5 48.782 48.782 0 0 1 11.55 16.45 52.39 52.39 0 0 1 4.2 21.175q0 19.95-.7 39.725-.706 19.778-.7 41.825 0 4.2.175 8.925a26.152 26.152 0 0 0 1.575 8.4 15.966 15.966 0 0 0 4.025 6.125q2.625 2.452 7.875 2.45c1.164 0 2.39-.054 3.675-.175a8.593 8.593 0 0 0 3.675-1.225v7.7a41.308 41.308 0 0 1-9.625 2.8 71.635 71.635 0 0 1-12.776 1.05q-11.204 0-17.15-5.775a23.789 23.789 0 0 1-7-14.875q-12.6 12.6-24.85 18.55-12.255 5.947-30.1 5.95a61.066 61.066 0 0 1-17.15-2.45 39.244 39.244 0 0 1-14.875-8.05 44.064 44.064 0 0 1-10.5-13.475 39.025 39.025 0 0 1-4.024-18.025q0-21 13.125-32.55 13.125-11.55 36.225-15.4 18.9-3.15 29.575-5.425 10.673-2.272 15.75-4.725 5.07-2.444 6.125-5.775a29.08 29.08 0 0 0 1.05-8.575 66.353 66.353 0 0 0-2.1-16.8 39.026 39.026 0 0 0-6.65-14 33.646 33.646 0 0 0-11.9-9.625q-7.35-3.675-17.85-3.675a55.53 55.53 0 0 0-26.076 6.3 41.51 41.51 0 0 0-18.024 17.5h-3.85zm86.45 62.3a87.823 87.823 0 0 1-13.825 3.5q-7.875 1.403-15.924 2.975a152.069 152.069 0 0 0-15.925 4.025 51.801 51.801 0 0 0-14 6.65 32.376 32.376 0 0 0-9.8 10.5q-3.675 6.3-3.675 16.1 0 16.456 9.45 24.85 9.45 8.4 21 8.4a42.933 42.933 0 0 0 24.325-7.35 55.233 55.233 0 0 0 16.975-17.15zm88.726 62.3a52.152 52.152 0 0 0 8.75 7.875 49.021 49.021 0 0 0 11.55 6.125 38.676 38.676 0 0 0 13.825 2.45 39.15 39.15 0 0 0 12.775-2.1 34.927 34.927 0 0 0 10.85-5.95 27.543 27.543 0 0 0 7.525-9.8 31.716 31.716 0 0 0 2.8-13.65q0-10.844-6.126-16.625a48.279 48.279 0 0 0-15.224-9.45 161.382 161.382 0 0 0-19.95-6.475 83.521 83.521 0 0 1-19.95-7.875 46.776 46.776 0 0 1-15.225-13.475q-6.128-8.4-6.125-23.1a56.459 56.459 0 0 1 3.85-21.175 46.562 46.562 0 0 1 11.2-16.625 52.48 52.48 0 0 1 18.2-11.025 71.23 71.23 0 0 1 24.85-4.025q12.944 0 21.874 3.5 8.926 3.503 16.976 6.3a77.659 77.659 0 0 0-5.25 12.95 92.34 92.34 0 0 0-3.15 11.9h-4.2q-2.806-8.4-10.85-15.05-8.055-6.645-19.95-6.65a33.077 33.077 0 0 0-10.5 1.75 29.03 29.03 0 0 0-9.45 5.25 27.879 27.879 0 0 0-7 9.1 29.396 29.396 0 0 0-2.8 13.3q0 11.206 6.125 17.325a42.904 42.904 0 0 0 15.225 9.625 160.814 160.814 0 0 0 19.95 6.125 88.181 88.181 0 0 1 19.95 7.35 43.383 43.383 0 0 1 15.225 13.125q6.119 8.4 6.125 23.1a48.517 48.517 0 0 1-4.375 19.95 56.027 56.027 0 0 1-12.6 17.675 57.81 57.81 0 0 1-19.775 12.25 73.76 73.76 0 0 1-26.25 4.375q-16.103 0-26.95-3.15a84.133 84.133 0 0 1-18.2-7.35 91.453 91.453 0 0 0 4.375-12.425 49.171 49.171 0 0 0 2.275-13.125h4.2a37.63 37.63 0 0 0 5.425 7.7zm134.572 8.4a19.95 19.95 0 0 1 39.9 0 17.491 17.491 0 0 1-5.95 13.475 20.775 20.775 0 0 1-28 0 17.472 17.472 0 0 1-5.95-13.475zm99.4-210.7a17.925 17.925 0 1 1 5.25 12.6 17.183 17.183 0 0 1-5.25-12.6zm4.9 126.35q0-15.75-.525-33.075-.525-17.325-2.275-32.375a71.75 71.75 0 0 0 31.5 0q-1.756 15.053-2.275 32.375-.524 17.325-.525 33.075v36.4q0 15.75.525 33.075.524 17.325 2.275 31.325-8.056-.706-15.75-.7-7.703 0-15.75.7 1.746-13.995 2.275-31.325.526-17.325.525-33.075zm73.85 18.2q0-23.797 7.525-40.425 7.522-16.619 19.775-26.95a78.241 78.241 0 0 1 27.475-15.05 99.922 99.922 0 0 1 60.725 0 78.592 78.592 0 0 1 27.3 15.05q12.247 10.328 19.775 26.95 7.522 16.627 7.524 40.425 0 23.806-7.524 40.425-7.53 16.628-19.775 26.95a71.98 71.98 0 0 1-27.3 14.525 111.84 111.84 0 0 1-60.725 0 71.766 71.766 0 0 1-27.475-14.525q-12.255-10.319-19.775-26.95-7.53-16.62-7.525-40.425zm30.8 0a149.839 149.839 0 0 0 2.625 28.35 75.52 75.52 0 0 0 8.924 24.325 47.775 47.775 0 0 0 16.801 16.975q10.5 6.3 25.9 6.3 15.397 0 25.9-6.3a47.772 47.772 0 0 0 16.8-16.975 75.498 75.498 0 0 0 8.925-24.325 154.404 154.404 0 0 0 0-56.7 75.54 75.54 0 0 0-8.925-24.325 47.82 47.82 0 0 0-16.8-16.975q-10.5-6.3-25.9-6.3-15.406 0-25.9 6.3a47.822 47.822 0 0 0-16.8 16.975 75.563 75.563 0 0 0-8.925 24.325 149.829 149.829 0 0 0-2.625 28.35z" id="saaras.io" style="isolation:isolate"/>
	</g>
	<g id="BbVgCA.tif">
		<path d="M248.013 149.06c-.346-10.14-.24-20.28-.131-30.42a3.152 3.152 0 0 0-.015-4.53l-.042-11.511a4.088 4.088 0 0 0 .352-1.139q.026-10.628.003-21.256a1.83 1.83 0 0 0-.505-1.582l.51-30.398a18.162 18.162 0 0 1 2.974.022c10.277 1.73 20.536 3.579 30.823 5.245 4.723.765 9.38 2.008 14.203 2.11 1.765 1.79 1.99 4.066 2.027 6.403-.918 4.048.714 7.857 1.323 11.717.63 3.996 1.368 8.08 3.253 11.796a4.523 4.523 0 0 1 .324 2.172 11.252 11.252 0 0 0 .82 4.6c1.045 2.742 2.444 5.769 2.557 8.322a80.881 80.881 0 0 0 1.285 8.638c.215 1.422.042 4.043 2.896 3.888l.075 1.716c-.126 2.726-.736 5.603.208 8.133 1.525 4.084 3.034 8.125 3.555 12.477a7.989 7.989 0 0 0 .359 2.431c2.38 4.982 2.695 10.373 3.265 15.719a2.863 2.863 0 0 1-.451 1.648q-7.568 12.537-15.106 25.091-6.63 11.06-13.213 22.147c-2.877 4.84-5.538 9.82-8.632 14.516-4.28 6.495-7.808 13.44-12.17 19.875a3.215 3.215 0 0 0-.349 1.907c.006 1.393 1.08 2.79-.013 4.179a2.54 2.54 0 0 1-2.958-.046c-3.352-1.866-6.832-3.503-10.252-5.233-1.607-.813-3.68-1.123-4.785-2.863.13-5.305.129-10.612.308-15.92.214-6.343.37-12.722.32-19.095-.06-7.603-1.708-15.153-.68-22.776a2.298 2.298 0 0 0-.292-1.429c-1.184-1.863-.745-3.866-.476-5.8.174-1.249-.212-2.523-.09-3.547.254-2.146-1.208-4.098-.362-6.18a3.463 3.463 0 0 0 .116-2.204 12.356 12.356 0 0 1-.005-6.144c.27-1.074.382-2.2-1.029-2.68z" class="cls-3"/>
		<path d="M268.199 242.976c1.091-1.39.018-2.786.012-4.178 9.343 4.022 18.105 9.205 27.242 13.64 5.503 2.67 10.72 5.916 16.428 8.173a2.74 2.74 0 0 0 1.48 1.228c3.467 1.745 6.877 3.608 10.363 5.315 6.295 3.081 12.322 6.7 18.83 9.347l.105.108.149-.005a1.41 1.41 0 0 0 1.276.726l.768.276a5.38 5.38 0 0 0 1.073.994q9.727 4.972 19.486 9.88c1.439.723 2.673 1.992 4.482 1.806l.212.522c-.72 2.115-.363 4.262-.12 6.387a52.71 52.71 0 0 1 .556 10.666l-1.957.176a1.679 1.679 0 0 0-1.5-.163c-.784-.512-1.673-.253-2.514-.344-.265-.549-.626-.503-1.034-.168l-20.986-.36c-.767-1.01-1.643-.325-2.47-.138-1.036.233-2.054.706-3.136.36-4.558-1.46-9.229-.241-13.831-.609-.925-1.034-1.949-.81-3-.238-6.938-.096-13.864-.27-20.79-.851-5.426-.455-10.897-.415-16.35-.483a3.727 3.727 0 0 1-2.56-1.193c-.333-1.66.085-3.49-1.117-4.953l-.933-6.345a.839.839 0 0 0-.47-1.277l-4.45-22.29c-.405-2.428-.724-4.876-1.235-7.282-1.325-6.245-1.473-12.743-4.01-18.727z" class="cls-4"/>
		<path d="M364.57 307.53c.841.091 1.73-.168 2.513.344-.012.415.083.785.546.886.575.124.853-.196.955-.723l1.957-.176c1.342-.201 1.195-.379 1.322-1.847.318-3.678-.886-7.23-.579-10.952.163-1.977.987-1.946 2.004-1.588 3.027 1.065 6.131 1.827 9.194 2.746 5.263 1.58 10.45 3.42 15.661 5.171 2.504.842 5.272.791 7.607 2.142a19.001 19.001 0 0 0 5.589 1.772c1.225.273 2.452.417 2.6 1.787.172 1.589.768 3.608-.892 4.6a2.75 2.75 0 0 0-1.526 2.758 4.856 4.856 0 0 1-1.232 3.425 2.975 2.975 0 0 0-.735 2.527l-.152.455c-1.842 1.153-3.551 2.37-2.37 4.966l-.593 1.59c-.493.001-1.013-.04-1.278.508a56.945 56.945 0 0 0-3.436 7.313c-.607 1.902-2.721 2.929-2.6 5.11l-.17 1.98c-1.736.67-1.649 2.512-2.38 3.807-1.868 3.31-3.965 6.546-4.413 10.463a2.287 2.287 0 0 1-2.638.774 3.664 3.664 0 0 0-3.027-2.918l-.062-.078c-.905-2.706-3.107-4.136-5.392-5.484l-1.02-1.044a6.732 6.732 0 0 0-3.966-3.969c-.63-.561-.901-1.573-1.977-1.577l-.203-.838c.452-1.44-.59-2.131-1.485-2.842a49.736 49.736 0 0 1-8.035-8.034 5.155 5.155 0 0 0-3.187-2.183l-.194-.603-.32-.34-1.129-.595c-2.346-5.065-6.855-8.075-10.93-11.497.06-1.927.08-3.723-2.74-3.56-.93.055-1.206-1.008-1.271-1.867-.057-.75.335-1.494 1.04-1.454 1.897.11 3.655-.636 5.633-.41a38.436 38.436 0 0 0 12.297-.11c.377-.053.797-.008 1.014-.435zm-238.702-71.16.995.717a27.793 27.793 0 0 0 5.669 6.79 2.121 2.121 0 0 0 1.81.551l.22.875c-.062 1.928 1.27 2.61 2.79 3.125.298 3.178 3.577 3.929 5.092 6.208 2.39 3.595 6 6.269 8.402 9.927-.786.005-1.74-.442-2.071.777l-.978.135.021-.066c-.422-1.254-1.51-1.547-2.612-1.942-2.647-.951-5.6-.766-8.123-1.78-6.195-2.49-12.818-3.383-19.104-5.531-2.277-.778-4.585-1.997-7.019-2.079-2.574-.087-4.733-1.36-7.154-1.837-2.84-.56-5.608-1.488-8.406-2.257-3.781-1.04-7.608-1.94-11.33-3.16-3.758-1.232-3.712-1.372-1.653-4.49a4.623 4.623 0 0 0-.613-6.041c-1.527-1.208-3.085-1.952-4.862-.3-1.58 1.47-2.223 4.957-1.034 6.594.36.497 1.313.796.708 1.557a1.837 1.837 0 0 1-2.114.257c-5.06-1.972-10.747-1.98-15.483-4.948l.008-1.442c1.143-.336.87-1.309.821-2.064-.144-2.259.87-3.398 3.107-3.502a1.08 1.08 0 0 0 .978-.635 9.458 9.458 0 0 0 2.438.467c8.595-.644 17.005 1.417 25.541 1.71 4.924.168 9.858.127 14.771 1.218a42.21 42.21 0 0 0 15.575.32c1.12.636 2.218 1.368 3.61.845z" class="cls-5"/>
		<path d="m134.562 245.303-.22-.874-.427-.983c.6-1.24-.275-1.336-1.126-1.452l.001.01c-.304-1.94.695-3.066 3.13-2.989a89.879 89.879 0 0 1 10.188.768c5.145.749 10.48.125 15.66 1.193 4.205.867 8.399.45 12.594-.065 1.891-.071 3.798.348 5.675-.182l3.706.117-.354 2.57a168.275 168.275 0 0 1-2.573 25.505 8.093 8.093 0 0 1-1.484-.002c-6.713-1.228-13.53-1.378-20.299-2.027-1.89-.18-4.133-.06-5.086-2.483a1.743 1.743 0 0 0-1.632-.968 6.816 6.816 0 0 1-2.02-2.486.91.91 0 0 0-1.009-.997l.008.008a.91.91 0 0 0-.987-1.012l-8.439-9.013c1.434-.84.769-1.663-.176-2.17a13.304 13.304 0 0 0-2.788-.814 3.336 3.336 0 0 0-2.342-1.654z" class="cls-6"/>
		<path d="m409.402 320.857.151-.455a5.2 5.2 0 0 0 1.913-2.511q3.02-5.761 6.071-11.506c2.199-.303 3.77 1.397 5.747 1.8a5.865 5.865 0 0 0 2.502 1.565c4.543 2.223 9.11 4.398 13.661 6.605q18.682 9.055 37.358 18.122a.876.876 0 0 1 .173.3c.258 2.082 2.067 2.676 3.524 3.505 2.499 1.422 5.393 1.836 8.064 2.89 4.346 1.714 8.413 4.007 12.77 5.663.668.253 1.927.505 1.312 1.636-.419.77-1.482.451-1.996-.05-2.268-2.207-5.662-1.242-8.136-2.99-.67-.473-1.493-1.29-2.652-1.089-2.426.422-4.482-.782-6.701-1.478-2.261-.709-4.72-1.422-7.198-.59l-1.49-.148c.049-1.02-.185-1.658-1.426-1.847-2.587-.394-4.939-1.635-7.415-2.435-3.452-1.115-7.09-1.354-10.504-2.618a3.231 3.231 0 0 0-3.293.196c-3.037.021-5.774-1.682-8.832-1.536-5.815-2.099-11.902-3.22-17.825-4.936-5.55-1.608-11.338-2.356-16.72-4.59-.424-1.366 1.236-2.172.942-3.503z" class="cls-3"/>
		<path d="M296.185 55.6c-4.822-.101-9.48-1.344-14.203-2.109-10.287-1.666-20.545-3.514-30.823-5.245a18.17 18.17 0 0 0-2.975-.022l-.974-.52c3.39-4.061 7.381-7.533 11.095-11.275 3.082-3.105 6.36-6.016 9.447-9.116 2.342-2.351 3.664-2.994 6.058.117 7.07 9.19 14.545 18.069 21.849 27.08a5.208 5.208 0 0 1 .526 1.09zm59.914 316.97c1.558 2.674 3.901 4.7 5.951 6.939 9.907 10.815 19.938 21.518 29.966 32.222 5.328 5.689 10.864 11.187 16.077 16.977 4.707 5.229 9.815 10.102 14.171 15.69-.837.683-1.272.02-1.709-.386q-11.37-10.587-22.725-21.192c-6.918-6.434-13.87-12.835-20.79-19.268-7.096-6.596-14.147-13.24-21.265-19.812-4.804-4.437-9.687-8.788-14.542-13.169a1.381 1.381 0 0 1-.642-1.256c1.275-.34 2.415.343 3.59.573 3.995.78 7.949 1.77 11.918 2.681z" class="cls-7"/>
		<path d="M369.893 290.286c-1.81.186-3.043-1.083-4.482-1.805q-9.763-4.902-19.486-9.88a5.34 5.34 0 0 1-1.072-.995c2.656 1.297 5.6.627 8.362.955.07 1.087-1.525 1.28-.794 2.311.51.718 1.342.504 2.07.58 1.022.105 2.343-.443 2.898.848 1.087 2.528 3.228 2.452 5.367 2.291.884-.066 1.712-.24 2.143.705 1.022 2.238 2.42.857 3.392.18 1.16-.805 2.479-1.896 1.314-3.687-1.41-2.17-1.11-4.437 1.03-5.753 2.28-1.403 3.402-3.161 2.963-5.897a3.718 3.718 0 0 1 .644-3.326 5.919 5.919 0 0 0 1.298-3.66 16.822 16.822 0 0 1 1.858-6.384 25.435 25.435 0 0 0 2.446-7.044c.959-4.252 2.429-8.353 3.597-12.511.945-3.36 2.526-6.507 2.782-10.123a7.384 7.384 0 0 1 .818-3.824c1.626-2.427 2.797-5.02 2.535-8.074a2.726 2.726 0 0 1 .396-1.894c3.34-3.539 2.083-8.52 4.034-12.507 1.73-3.535.367-8.3 4.295-11.018.155-.107.186-.46.196-.7.172-3.857 1.247-7.506 2.121-11.236a40.179 40.179 0 0 1 2.246-7.87 34.813 34.813 0 0 0 1.802-6.11c.612-2.493 2.308-4.579 2.373-7.215a12.117 12.117 0 0 1 1.476-6.477 32.222 32.222 0 0 0 3.643-9.602c1.025-4.227 3.289-8.202 3.672-12.557.27-3.067 1.438-5.75 2.163-8.617.58-2.292 1.597-4.403 2.379-6.59.972-2.72.35-6.002 3.18-8.044.655-.474.4-1.393.48-2.125.583.479.477 1.155.51 1.79-2.828 9.782-5.626 19.571-8.49 29.342-2.75 9.378-5.56 18.738-8.358 28.102-2.82 9.443-5.697 18.869-8.475 28.324-3.008 10.236-5.892 20.51-8.904 30.745-2.458 8.352-5.074 16.657-7.533 25.009-2.785 9.463-5.462 18.958-8.207 28.434-1.539 5.31-3.12 10.607-4.682 15.91z" class="cls-8"/>
		<path d="M424.542 104.422c-.033-.636.073-1.312-.511-1.791l.449-3.333a2.465 2.465 0 0 0 1.643-1.05c2.175-3.495 5.166-6.353 7.472-9.77 2.165-3.21 5.2-5.84 7.306-9.079 3.222-4.952 7.25-9.223 10.997-13.707 5.678-6.796 10.83-14.007 16.657-20.678 2.827-3.236 5.202-6.872 7.978-10.115 4.237-4.95 8.11-10.165 12.182-15.23.622-.774 1.252-1.542 1.85-2.334a1.81 1.81 0 0 0 .198-2.11c-.567-.824-1.365.008-2.043.078-.992.102-1.346 1.28-2.434 1.554-5.51 1.39-10.224 4.659-15.406 6.86-4.404 1.872-8.558 4.377-13.05 6.248-8.101 3.374-15.958 7.338-23.903 11.085-2.95 1.392-5.748 3.191-8.81 4.236-5.78 1.973-11.072 5.034-16.588 7.514-8.14 3.661-16.136 7.74-24.323 11.345-6.331 2.787-12.258 6.382-18.661 8.998l-1.961.062c.287-1.34 2.264-.716 2.48-2.137 1.076-.388 1.915-1.33 3.149-1.349a.797.797 0 0 0 .842-.562l1.296-.422.681-.556.785-.105a1.395 1.395 0 0 0 1.72-.9l.95-.513a5.163 5.163 0 0 0 4.053-1.937l.037-.036c2.55-.194 4.549-1.544 6.463-3.074l1.083-.208c.794.456.84-.107.896-.657 1.01-.183 1.59-1.398 2.776-1.154.64.121 1.13.001 1.224-.76a.67.67 0 0 1 .862-.218 1.372 1.372 0 0 0 1.642-.876q.679-.31 1.357-.622c1.516.226 2.51-.814 3.65-1.504l.473-.43A4.154 4.154 0 0 0 404 53.25a.421.421 0 0 1 .668-.202c.638.159 1.189.144 1.337-.67 10.824-5.144 21.626-10.335 32.478-15.42 12.466-5.84 24.976-11.589 37.47-17.373 6.496-3.008 13.005-5.991 19.486-9.033a3.674 3.674 0 0 1 2.078-.41c-.966 2.548-2.718 4.454-4.312 6.446Q460.07 57.982 426.88 99.333c-1.239 1.543-1.428 3.456-2.337 5.089z" class="cls-9"/>
		<path d="m273.444 268.985 4.448 22.29c-.323.603-.103 1.005.471 1.277l.933 6.345c-1.153.007-1.87 1.281-3.1 1.063l-.093-.078a.84.84 0 0 0-.844-.984c-.104-.3-.207-.6-.308-.901.27-1.516-.798-1.504-1.796-1.572l-.007-.009c-.107-1.354-1.09-2.158-1.867-3.132-2.817-3.536-6.39-6.477-8.378-10.673a1.827 1.827 0 0 0-2.291-1.037l-.549-.62c.205-.727-.212-1.166-.607-1.734a40.643 40.643 0 0 0-4.101-4.574c-2.46-2.602-4.455-5.68-7.47-7.747l-.206-.528c-.438-1.45.846-1.99 1.51-2.858l.945-.054 1.508.235c.185 1.523.954 1.563 2.038.802l1.94.613c.657 1.27 1.576 1 2.547.434l1.006-.138 1.396-.282a.388.388 0 0 0 .067.452c.521 1.356 1.62.726 2.532.736 3.546.43 7.52-.786 10.276 2.674z" class="cls-5"/>
		<path d="m476.805 334.477-37.358-18.122c-4.551-2.207-9.118-4.382-13.66-6.605a5.865 5.865 0 0 1-2.503-1.565c2.623-.234 4.892 1.142 7.192 1.939 5.415 1.875 10.935 3.39 16.374 5.171 8.773 2.872 17.629 5.493 26.427 8.291 7.36 2.34 14.746 4.593 22.058 7.1 4.817 1.65 9.728 3.07 14.577 4.657.51.167 1.399-.027 1.346.766-.063.95-1.033.79-1.584.664-4.139-.951-8.382-.821-12.565-1.293-6.157-.693-12.312-1.427-18.513-1.623a1.844 1.844 0 0 0-1.791.62z" class="cls-7"/>
		<path fill="#9e361c" d="M122.258 235.525a42.21 42.21 0 0 1-15.575-.321c-4.913-1.09-9.847-1.05-14.771-1.219-8.536-.292-16.946-2.353-25.541-1.71a9.518 9.518 0 0 1-2.438-.464l-.529-1.503c4.432-3.002 9.532-4.813 14.006-7.679 3.931-2.518 7.33-.73 10.868.452 5.974 1.995 11.908 4.108 17.847 6.206 5.387 1.904 10.757 3.854 16.135 5.784q.003.227-.002.454z"/>
		<path d="M273.444 268.985c-2.756-3.46-6.73-2.244-10.275-2.673-.51-1.392-1.626-.707-2.533-.737a.388.388 0 0 1-.067-.452l-.16-1.44c.404-.858-.122-1.315-.747-1.728a.65.65 0 0 1-.079-.391.844.844 0 0 0-.62-1.208l-.913-2.756c.244-.678-.11-1.014-.696-1.216l-2.78-7.285c-.138-.996-.009-2.096-1.066-2.734l-.982-2.724a2.778 2.778 0 0 0-1.14-2.75l-.41-1.212a3.86 3.86 0 0 0-1.46-3.3l-.096-1.376.783-.168c1.105 1.739 3.178 2.049 4.785 2.862 3.42 1.73 6.9 3.367 10.252 5.233a2.54 2.54 0 0 0 2.958.046c2.537 5.984 2.685 12.482 4.01 18.727.511 2.406.83 4.854 1.236 7.282z" class="cls-11"/>
		<path fill="#884750" d="m59.027 238.01-.009 1.442-.147 2.12-3.037.06a3.891 3.891 0 0 0-3.85-.715l-8.956-.29a4.673 4.673 0 0 0-4.045-.685l-8.489-.25a5.774 5.774 0 0 0-4.994-.74l-7.455-.29c-.561-.843-1.343-.736-2.154-.497l-1.998-.156a.868.868 0 0 0-1.394-.048l-5.491-.17c-.145-.927-1.294-.512-1.642-1.2.964-.519 2.14.137 3.024-.621l4.97-.203c.832.242 1.65.42 2.204-.518 5.126-.392 10.25-.795 15.378-1.176 6.69-.497 13.384-.897 20.056-1.663a58.313 58.313 0 0 1 7.929.126l.1 5.474z"/>
		<path d="M411.746 408.22a.394.394 0 0 1-.27-.375l.057-.56c.035-2.064-1.429-2.356-2.993-2.53.054-1.163-.51-1.612-1.635-1.412l-.818-.16c-.017-1.677-1.28-2.486-2.452-3.21-4.68-2.897-8.39-6.992-12.743-10.302-1.466-1.114-3.163-1.697-4.58-2.91-3.952-3.381-7.576-7.31-12.756-8.969a1 1 0 0 1 .997-1.059c.18.133.376.396.536.375.396-.053.415-.427.422-.76q.24-.02.48-.045l1.08.029a16.152 16.152 0 0 0 5.97.99c.372 1.764 2.209.608 3.056 1.56 2.407 2.703 5.66 4.477 8.132 7.05 1.5 1.56 3.688 2.276 4.777 4.182a7.798 7.798 0 0 0 3.896 3.629c3.294 1.32 5.154 4.472 7.874 6.55 1.484 1.135 2.561 2.74 4.631 3.116.327.06.62.514.852.841a18.236 18.236 0 0 0 6.697 5.74c1.039.532 1.089 1.347 1.052 2.286.057 1.31-.029 2.398-1.796 1.38-.718-.413-1.497-.664-2.208.075l-.496-.427a1.12 1.12 0 0 0-.507-1.05c-1.022-2.547-3.204-3.902-5.436-5.15-1.046-.585-1.002.347-1.05 1.007z" class="cls-13"/>
		<path d="M366.065 71.068c-.217 1.42-2.194.798-2.481 2.137l-.031 1.937c-1.468-.176-1.75 1.004-2.195 1.957-.452.967.182 1.318.957 1.628.977.391.87 1.173.398 1.83-.592.825-1.109.297-1.584-.254-.87-1.01-1.37-.205-1.603.486-1.086 3.21-4.321 5.314-4.579 8.944-.015.22-.26.416-.38.633-3.032 5.471-6.236 10.845-8.897 16.523a85.451 85.451 0 0 1-4.677 8.487c-1.479 2.402-2.027 5.378-4.57 7.164a1.063 1.063 0 0 0-.286.918c1.02 4.016-2.041 6.68-3.604 9.628a100.677 100.677 0 0 0-5.442 10.743c-.225.584-.486 1.062-1.137 1.185-1.884.357-2.113 1.992-2.31 3.37-.523 3.657-.436 3.67-4.027 3.681l.586-1.243c3.36-6.232 6.779-12.433 10.067-18.702q15.099-28.782 30.13-57.6c1.17-2.233 3.684-2.448 5.665-3.452z" class="cls-8"/>
		<path d="m58.871 241.572.147-2.12c4.737 2.967 10.424 2.976 15.484 4.948a1.837 1.837 0 0 0 2.114-.257c.605-.761-.347-1.06-.708-1.557-1.19-1.637-.546-5.125 1.034-6.593 1.777-1.653 3.335-.91 4.862.299a4.623 4.623 0 0 1 .613 6.042c-2.059 3.117-2.105 3.257 1.653 4.489 3.722 1.22 7.549 2.12 11.33 3.16 2.798.77 5.566 1.697 8.406 2.257 2.42.477 4.58 1.75 7.154 1.837 2.434.082 4.742 1.3 7.019 2.079 6.286 2.148 12.91 3.041 19.104 5.531 2.522 1.015 5.476.83 8.123 1.78 1.101.395 2.19.688 2.612 1.942l-2.086-.075a2.164 2.164 0 0 0-1.952-.823l-2.04-.165a.65.65 0 0 0-.829-.397c-8.54-2.079-16.994-4.465-25.446-6.874-6.335-1.806-12.778-3.227-19.133-4.97-6.267-1.717-12.427-3.857-18.74-5.373-5.135-1.232-10.11-3.12-15.387-3.779-1.21-.15-1.985-1.483-3.334-1.381zm22.889-1.796c.256-1.909-.872-2.997-2.463-3.505-1.095-.35-3.113 2.003-2.92 3.456.216 1.621.925 3.114 2.915 3.066 1.865-.045 2.556-1.255 2.468-3.017z" class="cls-9"/>
		<path d="M271.7 337.492c-2.806-1.611-4.953-4.031-7.364-6.113q-20.951-18.088-41.776-36.322c-4.803-4.191-9.543-8.455-14.311-12.685l.037-.936 1.935.004c-.294 2.899 1.421 1.663 2.625 1.12.397.774-.185 1.373.293 2.05 2.175 3.079 5.8 4.293 8.458 6.736.868.799 1.64.174 2.473-.208.423-.194.622.4.859.73 1.808 2.514 2.59 5.762 5.737 7.334a10.338 10.338 0 0 1 3.915 2.773c.552.727.469 1.781 1.397 2.28a17.767 17.767 0 0 1 5.674 4.892c1.206 1.567 3.06 2.284 4.369 3.544 1.717 1.653 2.837 3.889 5.533 4.277a1.863 1.863 0 0 1 1.545 1.465 3.645 3.645 0 0 0 1.908 2.161 16.58 16.58 0 0 1 4.251 3.405c1.186 1.52 1.77 3.778 4.504 3.245.533-.104.713.772 1.034 1.24 1.008 1.474 2.096 3.955 3.278 4.028 2.582.16 3.228 1.697 4.11 3.394l.029.503-.513 1.083z" class="cls-14"/>
		<path d="M475.965 342.275c2.477-.833 4.937-.12 7.198.59 2.22.695 4.275 1.899 6.701 1.477 1.159-.2 1.982.616 2.652 1.09 2.474 1.747 5.868.782 8.136 2.99.514.5 1.577.819 1.996.049.615-1.13-.644-1.383-1.312-1.636-4.357-1.656-8.424-3.95-12.77-5.664-2.67-1.053-5.565-1.467-8.064-2.89-1.457-.828-3.266-1.422-3.524-3.505 6.837 2.385 13.276 5.709 19.95 8.481 8.542 3.547 16.93 7.462 25.418 11.137a2.562 2.562 0 0 1 1.515 1.453l.035-.036c-4.628-.352-8.862-2.289-13.313-3.363-5.19-1.251-10.287-2.887-15.43-4.338-5.975-1.687-11.959-3.346-17.93-5.05a5.354 5.354 0 0 1-1.258-.785zm-225.762-107.44-.783.168c-.908-.992-.526-2.219-.538-3.337-.217-20.973-.355-41.946-.618-62.918-.082-6.563-.592-13.12-.25-19.689 1.41.48 1.298 1.606 1.028 2.68a12.356 12.356 0 0 0 .005 6.144 3.463 3.463 0 0 1-.116 2.204c-.846 2.082.616 4.034.362 6.18-.122 1.024.264 2.298.09 3.547-.268 1.934-.708 3.937.476 5.8a2.298 2.298 0 0 1 .292 1.429c-1.028 7.623.62 15.173.68 22.776.05 6.373-.106 12.752-.32 19.095-.18 5.308-.179 10.615-.308 15.92z" class="cls-15"/>
		<path d="M374.553 376.733a1 1 0 0 0-.997 1.06 5.01 5.01 0 0 0-2.88-1.51 15.393 15.393 0 0 0-8.18-2.684 1.483 1.483 0 0 1-1.438-.78c-.214-.466-.504-.603-.915-.208l-4.044-.042c-3.97-.91-7.923-1.901-11.917-2.681-1.176-.23-2.316-.914-3.59-.573a34.096 34.096 0 0 0-11.511-2.439.705.705 0 0 0-.983-.505c-1.45-.622-3.032-.114-4.507-.525a.652.652 0 0 0-.964-.515c-1.466-.475-3.072.056-4.509-.63-.186-.504-.549-.535-.986-.368-4.726-.407-9.327-1.561-13.987-2.36-.469-1.022-.502-1.696.982-1.651 2.146.064 4.295-.01 6.444-.025l2.1-.006c2.135-.176 4.331.577 6.412-.424 1.21.05 2.309-.754 3.55-.465.325.468.64.452.945-.019l2.986-.003a9.953 9.953 0 0 1-7.237 1.847 5.038 5.038 0 0 0-3.239.554 8.508 8.508 0 0 0 4.566 1.847c4.785.931 9.645 1.426 14.395 2.492 5.055 1.134 10.053 2.858 15.117 3.547a166.177 166.177 0 0 1 25.348 5.846c.218.066.32.518.477.79q-.24.026-.48.045a.961.961 0 0 0-.958.385zm42.984-70.348q-3.038 5.752-6.071 11.506a5.2 5.2 0 0 1-1.913 2.511 2.976 2.976 0 0 1 .736-2.527 4.856 4.856 0 0 0 1.232-3.425 2.75 2.75 0 0 1 1.526-2.757c1.66-.993 1.064-3.012.892-4.601-.148-1.37-1.375-1.514-2.6-1.787a19.001 19.001 0 0 1-5.59-1.772c-2.334-1.35-5.102-1.3-7.606-2.142-5.212-1.75-10.398-3.59-15.661-5.17-3.063-.92-6.167-1.682-9.194-2.747-1.017-.358-1.84-.389-2.004 1.588-.307 3.722.897 7.274.579 10.952-.127 1.468.02 1.646-1.322 1.847a52.71 52.71 0 0 0-.555-10.666c-.244-2.125-.602-4.272.119-6.387 3.317 1.015 6.64 2.01 9.948 3.05 4.487 1.411 8.961 2.864 13.444 4.288q6.719 2.134 13.445 4.246c3.26 1.026 6.527 2.027 9.774 3.094.336.11.55.59.821.9z" class="cls-9"/>
		<path d="m183.39 243.415.353-2.569c2.66-.236 4.853 1.265 7.198 2.075 9.466 3.269 18.862 6.738 28.284 10.136q12.045 4.345 24.088 8.697l-.13.69c-1.548-.568-2.522 1.197-3.984.977-.937-1.382-3.02-.94-3.879-2.383a2.315 2.315 0 0 0-3.039-.967c-1.767.673-2.986-.035-4.332-.98a20.64 20.64 0 0 0-7.519-3.306c-1.759-.392-4.075 0-5.247-1.916a4.597 4.597 0 0 0-3.493-2.422 49.08 49.08 0 0 1-10.659-2.624c-2.471-.938-4.62-2.85-7.545-2.377-.82.132-1.32-.536-1.956-.906-2.504-1.454-4.939-3.302-8.14-2.125z" class="cls-15"/>
		<path d="M443.005 333.886c3.058-.146 5.795 1.557 8.833 1.535q.062.509.121 1.018c-7.942.055-15.886.21-23.826.113-3.005-.037-5.657.375-7.971 2.436a20.199 20.199 0 0 1-3.104 1.915c-.716.011-1.375.11-1.542.983-3.412 2.222-6.688 4.658-10.31 6.551l-.682.439a57.318 57.318 0 0 1-7.886 5.023l-.59.552c-1.306.696-2.251 2.044-3.886 2.143.448-3.917 2.545-7.154 4.413-10.463.732-1.295.644-3.137 2.381-3.807a5.135 5.135 0 0 1-1.378 4.44 13.035 13.035 0 0 0-3.05 6.292c1.139.23 1.439-.499 1.935-.886 1.495-1.169 2.836-2.992 4.51-3.38 3.838-.89 6.02-4.25 9.56-5.588 2.396-.905 4.485-2.764 6.498-4.534 1.592-1.4 3.208-3.026 5.47-3.257 5.398-.554 10.773-1.692 16.252-.43 1.422.327 3.125.381 4.252-1.095zm-18.997 78.39c.037-.939-.013-1.754-1.052-2.286a18.236 18.236 0 0 1-6.697-5.74c-.231-.327-.525-.782-.852-.84-2.07-.377-3.147-1.982-4.63-3.116-2.721-2.079-4.58-5.23-7.875-6.551a7.798 7.798 0 0 1-3.896-3.63c-1.089-1.905-3.277-2.62-4.776-4.18-2.474-2.574-5.725-4.349-8.133-7.051-.847-.952-2.684.204-3.056-1.56l-.495-1.601c6.035 2.688 10.702 7.248 15.601 11.474q14.716 12.695 29.34 25.496c2.778 2.444 5.865 4.565 8.199 7.5l-2.699-.435c-.141-1.657-1.38-1.48-2.501-1.496.01-.727.015-1.45-1.005-1.476l-.007-.008a8.64 8.64 0 0 0-5.466-4.5z" class="cls-8"/>
		<path d="M374.08 342.298c1.076.004 1.347 1.016 1.977 1.577a6.622 6.622 0 0 0 3.966 3.97l1.02 1.042a12.317 12.317 0 0 0 5.392 5.485l.063.077c-.405 1.473 1.543 1.713 1.557 2.967-5.998.942-12.06.741-18.096.955-5.222.185-10.454.066-15.682.096-1.052.005-2.263-.181-2.32 1.447-1.722-.153-1.39-1.459-1.432-2.554 8.667-.616 17.348-.47 26.025-.51 1.075-.097 2.21.246 3.618-.45-1.25-.631-1.862-1.383-1.602-2.54 1.335-.278 2.14.476 2.946 1.389a1.05 1.05 0 0 0 1.55.22c.283-.241.446-.69.165-.843-2.491-1.356-2.85-4.617-5.581-5.888-2.977-1.387-4.187-4.03-3.565-6.44z" class="cls-14"/>
		<path d="M310.57 360.297c-2.148.015-4.297.09-6.443.025-1.485-.045-1.45.63-.982 1.652-5.254-.094-8.203-4.022-11.68-7.05q-8.407-7.326-16.766-14.707a.83.83 0 0 0-1.048-.848c-.6-.058-.715-.607-1-.982l-.477-.524-.474-.371.512-1.084c.878.385 1.133 1.803 2.442 1.477 1.904 1.482 3.737 3.073 5.752 4.383.66.43 1.23.899 1.833 1.334 2.15 1.552 3.445 3.913 5.957 5.241 2.563 1.356 4.051 4.418 6.934 5.68.306.133.382.875.492 1.351a1.403 1.403 0 0 0 .64 1c2.293 1.341 4.314 3.221 7.41 2.54a23.638 23.638 0 0 1 5.207-.057c.718.007 1.575-.176 1.691.94zm143.127 80.593-1.193-1.073a4.08 4.08 0 0 0-3.132-2.507.362.362 0 0 1-.401-.213c-.124-1.133-.911-1.379-1.868-1.397l-.075-.115c-.133-1.26-1.452-1.49-2.04-2.356.66.009 1.394.09 1.703-.668.294-.72-.45-1-.807-1.375-.655-.69-1.224-1.617-2.416-1.437l.01.01c-.464-2.606-3.347-3.026-4.514-4.998l-.021-1.413.603-.134 1.909 1.8a.783.783 0 0 0 .92.773 3.324 3.324 0 0 1 1.596 1.518 1.423 1.423 0 0 0 1.369.991l.08.114a.876.876 0 0 0 .867.858 3.693 3.693 0 0 1 1.762 1.346l.541.61c.395.231.834.418.95.932-.047 1.046.682 1.07 1.422 1.078l1.461 1.349a4.671 4.671 0 0 0 3.034 2.651 7.633 7.633 0 0 1 2.5 2.082c.03.719.398.988 1.094.816h-.005l.536.565c.787.692 1.806 1.117 2.373 2.062.005 1.188.02 2.322 1.655 2.477a2.592 2.592 0 0 1 2.063 1.893 2.33 2.33 0 0 0 2.943 1.503.256.256 0 0 1 .318.211c.311 1.975-.9 2.065-2.33 1.882l-.673-.5c-.004-1.209-.844-1.428-1.795-1.514A4.315 4.315 0 0 1 462 447.11a5.49 5.49 0 0 0-3.91-2.914l-.08-.122a2.374 2.374 0 0 0-2.398-1.876l-.104-.126c-.263-.915-.75-1.488-1.81-1.182z" class="cls-8"/>
		<path d="M466.603 450.725c1.431.183 2.642.093 2.331-1.882 3.737 2.471 6.834 5.71 10.255 8.56 4.383 3.651 8.608 7.49 12.903 11.246a6.732 6.732 0 0 1 1.293 1.151c.308.468 1.311.889.542 1.617-.538.51-1.062-.096-1.497-.43-4.97-3.828-9.959-7.629-14.883-11.513-3.667-2.892-7.643-5.398-10.944-8.749z" class="cls-14"/>
		<path d="M310.67 113.136c-2.854.156-2.681-2.465-2.896-3.887a80.881 80.881 0 0 1-1.285-8.638c-.113-2.553-1.512-5.58-2.557-8.322a11.252 11.252 0 0 1-.82-4.6 4.523 4.523 0 0 0-.324-2.172c-1.885-3.717-2.623-7.8-3.253-11.796-.609-3.86-2.241-7.67-1.323-11.717 1.464 2.451 1.631 5.294 2.306 7.968 2.194 8.695 4.252 17.424 6.307 26.153 1.332 5.659 2.567 11.34 3.845 17.011z" class="cls-15"/>
		<path d="M370.676 376.283a5.01 5.01 0 0 1 2.88 1.51c5.18 1.658 8.804 5.587 12.756 8.968 1.417 1.213 3.114 1.796 4.58 2.91 4.354 3.31 8.064 7.405 12.743 10.301 1.171.725 2.435 1.534 2.452 3.213l-.598.133q-17.211-13.208-34.417-26.424a2.233 2.233 0 0 1-.396-.61z" class="cls-8"/>
		<path d="M350.524 357.36c.044 1.095-.29 2.4 1.432 2.554 9.666 4.69 19.294 9.456 28.716 14.626.646.354 1.25.785 1.874 1.18l.495 1.602a16.15 16.15 0 0 1-5.97-.99c.17-.913.496-1.558-.727-2.377-4.12-2.759-8.676-4.682-13.07-6.837-2.857-1.4-5.74-2.888-8.393-4.511-4.154-2.54-8.173-4.07-13.013-2.887-.75.183-1.672.357-2.279-.494l.009-.797 1.021-.024a1.224 1.224 0 0 0 1.932-.033l1.088-.068c1.642-.338 3.575.959 4.95-.88l1.935-.064z" class="cls-9"/>
		<path d="m208.287 281.436-.038.936q-12.977-5.695-25.946-11.408c-.253-.112-.387-.496-.576-.753l.02-1.254c2.095-.48 3.207 1.497 4.913 1.965a30.544 30.544 0 0 1 7.67 3.124c1.897 1.125 3.98 2.517 6.483 2.18 2.887-.39 4.353 1.412 5.282 3.68a2.02 2.02 0 0 0 2.192 1.53zm111.916-130.614-.586 1.243a2.72 2.72 0 0 1-1.485 1.548c-.57-5.346-.884-10.737-3.265-15.719a7.989 7.989 0 0 1-.359-2.431c-.52-4.352-2.03-8.393-3.554-12.477-.945-2.53-.335-5.407-.209-8.133 1.61 2.586 1.714 5.62 2.429 8.459 2.258 8.974 4.363 17.987 6.546 26.98.05.204.318.354.483.53z" class="cls-15"/>
		<path d="M174.362 240.911c-4.195.515-8.389.932-12.593.065-5.181-1.068-10.516-.444-15.661-1.193a89.879 89.879 0 0 0-10.188-.768c-2.435-.076-3.434 1.049-3.13 2.988-1.591-1.41-3.474-2.58-4.003-4.865l1.55-.083a6.228 6.228 0 0 0 5.174.78l9.303.19a6.954 6.954 0 0 0 5.218.772c3.426.07 6.862-.223 10.277.275a5.455 5.455 0 0 0 4.738.677l9.224.22.091.942z" class="cls-14"/>
		<path d="M438.964 424.761c1.167 1.972 4.05 2.392 4.513 4.998a3.97 3.97 0 0 1-2.458-1.066 27.14 27.14 0 0 0-3.768-3.044c-2.527-1.691-5.297-3.202-7.293-5.556-1.133-1.337-2.278-2.067-4.005-1.823l-.98.006-.428-.263-.54-1.226v-1.01c.837-1.33 1.715-1.9 2.937-.339a3.709 3.709 0 0 0 2.532 1.338l.007.007c.003.719-.001 1.441 1.005 1.477 1.122.017 2.36-.16 2.501 1.496 1.462 2.302 3.674 3.708 5.977 5.005z" class="cls-13"/>
		<path d="m451.959 336.44-.121-1.019a3.23 3.23 0 0 1 3.292-.195c3.414 1.264 7.052 1.503 10.504 2.618 2.476.8 4.828 2.041 7.415 2.435 1.24.19 1.475.828 1.426 1.847-6.173-1.564-12.29-3.323-18.378-5.192a22.678 22.678 0 0 0-4.138-.495z" class="cls-15"/>
		<path d="m181.746 268.957-.019 1.254-4.463-.266a2.426 2.426 0 0 0-2.964-.628c-2.819-.086-5.653.212-8.452-.349a.843.843 0 0 0-1.27-.37l-.798-.144c-.271-.513-.594-.566-.975-.11a18.376 18.376 0 0 1-4.945-.28 2.459 2.459 0 0 0-3.358-.724c-1.682.275-3.085-.697-4.63-1.033.632-.643 1.372.217 2.025-.146.954.284 1.69.242 1.211-1.046-.212-.57-.811-.977-.792-1.674a1.744 1.744 0 0 1 1.631.968c.954 2.424 3.196 2.302 5.087 2.483 6.768.649 13.585.8 20.298 2.027a8.109 8.109 0 0 0 1.483.002l.931.036z" class="cls-14"/>
		<path d="M425.953 418.27c1.727-.244 2.872.486 4.005 1.823 1.996 2.354 4.766 3.865 7.294 5.556a27.14 27.14 0 0 1 3.767 3.044 3.97 3.97 0 0 0 2.458 1.066l-.01-.01c.094 1.187 1.363 2.001 1.05 3.316a.614.614 0 0 0-.129.339c-.89-.487-1.916-.798-2.362-1.85-.296-1.23-1.362-1.466-2.34-1.817a3.94 3.94 0 0 1-2.166-1.644c-.1-.862-.726-.874-1.374-.851l-.649-.648c-.167-1.044-1.065-1.13-1.828-1.39l-.125-.034.01-.13c-.31-1.193-1.325-1.482-2.314-1.805l-.754-.542c-.08-1.114-1.083-1.124-1.786-1.494l-.13.02-.029-.127c-.394-1.37-1.889-1.731-2.588-2.822z" class="cls-8"/>
		<path d="M247.675 78.622a1.83 1.83 0 0 1 .505 1.582q.006 10.628-.003 21.256a4.088 4.088 0 0 1-.352 1.139c-.674-3.421-.358-6.891-.46-10.337-.135-4.53-.46-9.063-.153-13.6q.231-.022.463-.04z" class="cls-15"/>
		<path d="M247.675 78.622q-.232.018-.463.04c-.152-10.32-.288-20.639-.002-30.958l.974.52-.509 30.398z" class="cls-14"/>
		<path d="M412.515 408.11c.048-.659.004-1.59 1.05-1.006 2.232 1.248 4.414 2.603 5.436 5.15l-.525.542-.671-.089a3.96 3.96 0 0 1-1.878-1.316.486.486 0 0 0-.493-.542l-.009-.01.094-.563-.556-.486-.968.009-.432-.297c-.007-.721-.56-1.032-1.048-1.391z" class="cls-16"/>
		<path d="M500.357 476.496c-2.828-.198-4.142-2.597-6.037-4.152l.578-.934a11.945 11.945 0 0 1 5.439 5.131z" class="cls-15"/>
		<path d="m59.027 238.01-.1-5.474c1.539-.649 2.758-1.939 4.477-2.228l.53 1.503a1.08 1.08 0 0 1-.98.633c-2.236.104-3.25 1.243-3.106 3.502.048.755.322 1.728-.821 2.064zm184.155 24.434.131-.69 1.262.028a1.555 1.555 0 0 0 2.101 1.136l2.53-.024-.016.619c-.665.868-1.949 1.408-1.51 2.859-2.198-.509-2.975-2.645-4.498-3.928z" class="cls-9"/>
		<path d="M128.787 237.138c.53 2.284 2.412 3.455 4.003 4.865v-.009a1.62 1.62 0 0 0 1.125 1.452l.427.983a2.122 2.122 0 0 1-1.81-.552 27.793 27.793 0 0 1-5.669-6.79 2.955 2.955 0 0 1 1.924.05z" class="cls-16"/>
		<path d="M468.616 448.632a2.33 2.33 0 0 1-2.943-1.503 2.592 2.592 0 0 0-2.063-1.893c-1.634-.155-1.65-1.289-1.655-2.477a30.553 30.553 0 0 1 6.661 5.873z" class="cls-14"/>
		<path d="M438.964 424.761c-2.303-1.297-4.515-2.703-5.977-5.005l2.699.435c.702-.058.968.527 1.36.924l.561.636.004.109c-.095.536.183.8.664.92l.668.568z" class="cls-11"/>
		<path d="M8.39 235.97c-.885.758-2.06.102-3.024.621.348.688 1.497.273 1.641 1.2-1.806.39-3.2-.662-4.757-1.252a8.222 8.222 0 0 1 6.14-.57zm491.967 240.526-.02.045c2.545.012 3.564 2.218 5.16 3.591l-.731.797c-1.52-1.428-3.935-1.965-4.41-4.433z" class="cls-4"/>
		<path d="m504.766 480.929.732-.797c1.691.732 2.815 2.201 4.239 3.28.309.235.65.619.264 1.035-.363.392-.789.16-1.074-.135-1.253-1.297-3.162-1.78-4.161-3.383z" class="cls-7"/>
		<path d="m174.362 240.911-.09-.943c2.017-.47 3.879.233 5.764.762-1.876.53-3.783.11-5.674.181z" class="cls-15"/>
		<path d="M386.04 61.614c-1.914 1.53-3.913 2.88-6.463 3.074l6.463-3.074z" class="cls-8"/>
		<path d="m255.62 265.109-1.94-.613-.067-.769a18.819 18.819 0 0 0 3.856.598c.74-.034 1.518.121 1.705 1.08l-1.007.138c-.715-.931-1.685-.369-2.547-.434zm-105.588-26.312a6.954 6.954 0 0 1-5.218-.772 8.004 8.004 0 0 1 5.218.772zm-14.521-.962a6.228 6.228 0 0 1-5.174-.78 9.027 9.027 0 0 1 5.174.78z" class="cls-15"/>
		<path d="M458.09 444.197a5.49 5.49 0 0 1 3.91 2.913c-1.673-.475-2.685-1.837-3.91-2.914z" class="cls-14"/>
		<path d="M25.5 238.953a5.774 5.774 0 0 1 4.994.74c-1.776.5-3.363-.267-4.994-.74z" class="cls-4"/>
		<path d="M388.055 357.416c-.014-1.254-1.962-1.494-1.557-2.967a3.666 3.666 0 0 1 3.026 2.919 1.516 1.516 0 0 1-1.469.048zm20.485 47.34c1.564.173 3.028.465 2.993 2.53l-1.512-.496c-.784-.007-.997-.76-1.493-1.143l-.014-.866z" class="cls-8"/>
		<path d="M151.897 266.161c-.653.363-1.393-.497-2.026.146l-1.042-.204-.054-.763c.33-1.22 1.285-.772 2.07-.778l1.052 1.6z" class="cls-9"/>
		<path d="M165.047 239.75a5.455 5.455 0 0 1-4.738-.678c1.68-.482 3.2.158 4.738.677zm82.82-125.64a3.152 3.152 0 0 1 .015 4.53 14.842 14.842 0 0 1-.015-4.53z" class="cls-15"/>
		<path d="M425.953 418.27c.7 1.09 2.194 1.452 2.588 2.822a7.344 7.344 0 0 1-3.568-2.816z" class="cls-14"/>
		<path d="M51.983 240.917a3.891 3.891 0 0 1 3.85.716 4.027 4.027 0 0 1-3.85-.716zm-13-.975a4.673 4.673 0 0 1 4.045.685 4.583 4.583 0 0 1-4.045-.685z" class="cls-4"/>
		<path d="M379.54 64.724a5.163 5.163 0 0 1-4.053 1.937 13.471 13.471 0 0 1 4.053-1.937zM404 53.251a4.154 4.154 0 0 1-3.996 1.933L404 53.251z" class="cls-8"/>
		<path d="M455.457 437.234a4.671 4.671 0 0 1-3.034-2.651 5.713 5.713 0 0 1 3.034 2.651zm-6.085.076a4.08 4.08 0 0 1 3.132 2.507 7.208 7.208 0 0 1-3.132-2.507z" class="cls-14"/>
		<path d="M399.53 55.615c-1.14.69-2.134 1.73-3.65 1.504 1.133-.704 2.16-1.664 3.65-1.504z" class="cls-8"/>
		<path d="M122.258 235.525q.005-.227.002-.454a9.058 9.058 0 0 1 3.609 1.299c-1.393.522-2.49-.21-3.611-.845zM422.61 416.65c-.917-.559-2.013-.893-2.496-1.995l.196-.204a4.096 4.096 0 0 1 2.168 1.312l.24.777zm22.377 16.58c.589.864 1.908 1.096 2.041 2.355-1.013-.567-2.199-.924-2.64-2.181a.608.608 0 0 1 .13-.338 1.315 1.315 0 0 0 .47.163z" class="cls-14"/>
		<path d="M154.502 267.34a2.459 2.459 0 0 1 3.358.724 8.409 8.409 0 0 1-3.358-.724z" class="cls-15"/>
		<path d="m253.613 263.727.067.77c-1.084.76-1.853.72-2.038-.803a2.415 2.415 0 0 1 1.97.033z" class="cls-9"/>
		<path d="M249.516 236.38a3.86 3.86 0 0 1 1.46 3.3c-1.025-.862-1.19-2.104-1.46-3.3z" class="cls-15"/>
		<path d="M455.612 442.199a2.374 2.374 0 0 1 2.398 1.875c-.917-.474-1.973-.772-2.398-1.875zm-37.807-29.492.671.089 1.032.508.496.427.306.72-.196.204c-.93-.459-1.992-.763-2.309-1.948zm13.435 10.528c.989.323 2.004.612 2.313 1.805a3.344 3.344 0 0 1-2.313-1.805zm8.445 6.502c.979.35 2.045.588 2.341 1.817a2.97 2.97 0 0 1-2.34-1.817z" class="cls-14"/>
		<path d="M174.3 269.317a2.426 2.426 0 0 1 2.964.628 3.696 3.696 0 0 1-2.964-.628zm349.561 86.53c.488.4 1.05.058 1.836-.101-.909 1.234-1.37.768-1.8.065z" class="cls-15"/>
		<path d="M406.905 403.343c1.125-.2 1.69.249 1.635 1.413l-.026.025-1.134.087-.468-.421-.007-1.104z" class="cls-8"/>
		<path d="M253.508 246.365c1.057.638.928 1.738 1.066 2.734a3.504 3.504 0 0 1-1.066-2.734zm-6.832 16.553a1.555 1.555 0 0 1-2.101-1.136c1.101-.363 1.496.582 2.101 1.136z" class="cls-15"/>
		<path d="M464.136 448.71c.951.087 1.79.306 1.795 1.514-.716-.365-1.629-.496-1.795-1.513z" class="cls-14"/>
		<path d="M251.386 240.89a2.778 2.778 0 0 1 1.14 2.751c-.965-.675-.946-1.757-1.14-2.75z" class="cls-15"/>
		<path d="M15.564 235.25c-.555.937-1.372.76-2.203.517.55-.957 1.368-.773 2.203-.518z" class="cls-4"/>
		<path d="M447.103 435.7c.957.018 1.744.264 1.868 1.397-.702-.361-1.509-.58-1.868-1.397zm-34.588-27.59c.489.36 1.04.67 1.048 1.392a2.43 2.43 0 0 1-1.817-1.283l.77-.108zM143.78 264.51a2.164 2.164 0 0 1 1.952.824c-.93.387-1.454-.188-1.952-.823zm280.224 152.277.541 1.226a2.822 2.822 0 0 1-1.935-1.363l.107-.109q.643.124 1.287.246z" class="cls-14"/>
		<path d="M15.89 238.165c.812-.239 1.594-.346 2.155.496-.826.305-1.625.49-2.154-.496z" class="cls-4"/>
		<path d="M433.67 425.204c.762.26 1.66.346 1.827 1.39-.708-.334-1.565-.472-1.828-1.39zm-4.97-4.005c.703.37 1.706.38 1.786 1.494-.733-.334-1.593-.515-1.786-1.494z" class="cls-14"/>
		<path d="M374.536 67.175a1.395 1.395 0 0 1-1.719.9c.465-.507.834-1.197 1.72-.9z" class="cls-8"/>
		<path d="M453.697 440.89c1.06-.306 1.548.267 1.811 1.182-.802-.09-1.23-.755-1.81-1.182z" class="cls-14"/>
		<path d="M394.523 57.741a1.372 1.372 0 0 1-1.642.876c.522-.339.8-1.136 1.642-.876z" class="cls-8"/>
		<path d="M12.5 237.961a.868.868 0 0 1 1.393.048.884.884 0 0 1-1.394-.048z" class="cls-4"/>
		<path d="m406.905 403.343.007 1.104c-.487-.361-1.298-.312-1.423-1.129l.598-.133q.41.078.818.158zm44.057 29.89c-.74-.007-1.469-.031-1.421-1.077.668.102 1.323.223 1.421 1.078zm-14.816-5.991c.648-.023 1.274-.01 1.374.85-.457-.285-1.215-.084-1.374-.85zm9.193 1.054a1.423 1.423 0 0 1-1.368-.99c.591.143 1.25.193 1.368.99z" class="cls-14"/>
		<path d="M415.516 341.887c.166-.873.826-.973 1.542-.984-.209.807-.915.833-1.542.984z" class="cls-15"/>
		<path d="m410.021 406.79 1.512.495-.057.56a1.766 1.766 0 0 1-1.455-1.055z" class="cls-14"/>
		<path d="M259.662 261.955c.625.413 1.15.87.748 1.728a1.475 1.475 0 0 1-.748-1.728z" class="cls-15"/>
		<path d="m413.994 409.799.97-.009.555.486-.094.563c-.664-.09-1.343-.158-1.43-1.04z" class="cls-14"/>
		<path d="m249.19 263.513.015-.62c.643-.357.862-.02.93.566l-.945.054zm9.772-3.157a.844.844 0 0 1 .621 1.208.96.96 0 0 1-.62-1.208z" class="cls-15"/>
		<path d="m407.38 404.868 1.133-.087.015.866a1.626 1.626 0 0 1-1.149-.779z" class="cls-14"/>
		<path d="M392.019 58.836c-.093.76-.584.88-1.224.76l1.224-.76zm-4 1.913c-.055.55-.102 1.113-.896.657l.896-.657z" class="cls-8"/>
		<path d="M162.805 268.345c.38-.456.704-.404.975.11-.376.416-.686.254-.975-.11z" class="cls-15"/>
		<path d="M360.143 372.61c.41-.394.7-.257.915.21a.771.771 0 0 1-.915-.21z" class="cls-8"/>
		<path d="m148.775 265.34.054.763a.738.738 0 0 1-1.032-.628l.978-.135z" class="cls-14"/>
		<path d="M328.098 366.37a.705.705 0 0 1 .983.506c-.71.575-.952.24-.983-.505z" class="cls-7"/>
		<path d="M406.005 52.378c-.148.815-.7.83-1.337.67l1.337-.67z" class="cls-8"/>
		<path d="M140.911 263.949a.65.65 0 0 1 .83.397c-.472.273-.782.21-.83-.397zm298.032 159.399-.667-.569c.06-.113.117-.226.175-.34a1.376 1.376 0 0 1 1.095.775l-.603.134z" class="cls-14"/>
		<path d="M322.627 365.33a.652.652 0 0 1 .964.516c-.727.587-.931.196-.964-.515zm-5.495-.997c.437-.167.8-.136.986.368-.738.974-.845.257-.986-.368z" class="cls-7"/>
		<path d="M442.374 425.787a.783.783 0 0 1-.92-.773c.583-.07.778.32.92.773z" class="cls-14"/>
		<path d="m372.032 68.178-.68.557c.02-.437.11-.792.68-.557zm-1.977.979a.797.797 0 0 1-.842.562c.053-.527.327-.726.842-.562z" class="cls-8"/>
		<path d="M446.287 429.268a.876.876 0 0 1-.867-.858c.454.12.878.27.867.858z" class="cls-14"/>
		<path d="M164.577 268.598a.843.843 0 0 1 1.27.37.787.787 0 0 1-1.27-.37z" class="cls-15"/>
		<path d="M273.65 339.369a.83.83 0 0 1 1.05.848c-.57-.011-.833-.4-1.05-.848z" class="cls-14"/>
		<path d="M257.354 256.384c.587.202.94.538.696 1.216-.463-.273-.841-.594-.696-1.216z" class="cls-15"/>
		<path d="M459.05 440.132c-.695.172-1.062-.097-1.094-.816a1.54 1.54 0 0 1 1.094.816z" class="cls-14"/>
		<path d="m438.451 422.44-.175.34c-.482-.12-.76-.384-.665-.92l.84.58z" class="cls-8"/>
		<path d="m459.582 440.697-.536-.564c.373.003.521.22.536.564zm-55.058-91.821.683-.439a.507.507 0 0 1-.683.439zm-8.477 5.575.591-.552c-.043.349-.19.586-.591.552zm52.543 76.773-.541-.61a.543.543 0 0 1 .541.61zm-176.416-93.361.476.524a.447.447 0 0 1-.476-.524zm165.433 83.888-.56-.636a.555.555 0 0 1 .56.636zm-22.173-10.902a.486.486 0 0 1 .493.542c-.375.01-.511-.195-.493-.542zm79.464 60.561-.578.934c-.416-.687-.21-.99.578-.934z" class="cls-14"/>
		<path d="M318.132 153.613a2.72 2.72 0 0 0 1.485-1.548c3.59-.011 3.504-.024 4.026-3.68.198-1.38.427-3.014 2.311-3.371.65-.123.912-.6 1.137-1.185a100.677 100.677 0 0 1 5.442-10.743c1.562-2.947 4.624-5.612 3.604-9.628a1.063 1.063 0 0 1 .287-.918c2.542-1.786 3.09-4.762 4.57-7.164a85.451 85.451 0 0 0 4.676-8.487c2.661-5.678 5.865-11.052 8.897-16.523.12-.217.365-.414.38-.633.258-3.63 3.493-5.734 4.579-8.944.233-.691.732-1.496 1.603-.486.475.55.992 1.079 1.584.254.472-.657.579-1.439-.398-1.83-.775-.31-1.409-.66-.957-1.628.446-.953.727-2.133 2.195-1.956 2.04 1.794 4.836 1.992 7.091 3.403 2.786 1.743 6.544 1.495 9.022 3.749a7.446 7.446 0 0 0 6.366 1.782 14.657 14.657 0 0 1 5.692 1.709c6.556 3.156 13.443 5.631 20.243 8.265.994.386 1.963.8 2.943 1.203 3.204 1.316 5.733 4.25 9.57 4.044l-.45 3.333c-.078.732.177 1.65-.479 2.125-2.83 2.042-2.207 5.324-3.18 8.044-.781 2.187-1.798 4.298-2.378 6.59-.725 2.867-1.892 5.55-2.163 8.617-.383 4.355-2.647 8.33-3.672 12.557a32.222 32.222 0 0 1-3.643 9.602 12.117 12.117 0 0 0-1.476 6.477c-.065 2.636-1.761 4.722-2.373 7.215a34.813 34.813 0 0 1-1.802 6.11 40.179 40.179 0 0 0-2.246 7.87c-.874 3.73-1.949 7.379-2.12 11.235-.011.242-.042.594-.197.701-3.928 2.719-2.564 7.483-4.295 11.018-1.951 3.986-.694 8.968-4.034 12.507a2.726 2.726 0 0 0-.396 1.894c.262 3.054-.91 5.647-2.535 8.074a7.384 7.384 0 0 0-.818 3.824c-.255 3.616-1.837 6.763-2.781 10.123-1.17 4.158-2.639 8.259-3.597 12.51a25.435 25.435 0 0 1-2.447 7.045 16.822 16.822 0 0 0-1.857 6.385 5.919 5.919 0 0 1-1.299 3.659 3.718 3.718 0 0 0-.644 3.326c.44 2.735-.683 4.494-2.964 5.897-2.14 1.316-2.44 3.583-1.029 5.753 1.165 1.791-.154 2.881-1.314 3.688-.972.676-2.37 2.057-3.392-.181-.43-.944-1.259-.771-2.143-.705-2.14.16-4.28.236-5.366-2.291-.556-1.291-1.877-.743-2.898-.848-.729-.076-1.56.138-2.07-.58-.732-1.03.864-1.224.793-2.31-2.762-.329-5.706.341-8.362-.956l-.77-.276c-.104-.803-.6-.923-1.275-.726l-.15.005-.103-.108c-.063-2.027-1.147-3.078-3.135-3.013a3.24 3.24 0 0 1-3.032-1.37 2.332 2.332 0 0 0-2.463-1.162c-1.715.03-3.299-.624-3.733-2.259-.51-1.917-1.597-2.288-3.272-2.243-1.213.033-2.777.425-3.378-.945-.712-1.623-2.05-1.873-3.378-1.965-1.817-.126-3.298-.988-4.904-1.624-1.121-.443-2.01-1.515-3.38-1.309-5.708-2.257-10.924-5.503-16.427-8.174-9.137-4.434-17.899-9.617-27.242-13.64a3.22 3.22 0 0 1 .348-1.907c4.363-6.435 7.891-13.38 12.171-19.875 3.094-4.696 5.755-9.676 8.632-14.516q6.589-11.084 13.213-22.147 7.529-12.56 15.106-25.09a2.863 2.863 0 0 0 .45-1.65z" class="cls-16"/>
		<path d="m274.949 297.997.309.9c-.087.645.193.975.845.985l.092.078c1.409 1.292 1.761 3.73 4.217 3.89a3.727 3.727 0 0 0 2.56 1.193c5.454.068 10.925.028 16.352.483 6.925.581 13.851.755 20.788.85l.005.522a1.698 1.698 0 0 1-1.59.493c-3.364-.13-6.686.66-10.106.096-2.12-.35-4.474.665-6.574.272-5.442-1.02-10.837.058-16.242.028-4.001-.022-7.1-.338-8.391-4.697-.344-1.16-1.445-1.514-2.557-1.686l.004.004c-.633-1.443-1.79-2.714-1.473-4.47z" class="cls-14"/>
		<path d="M311.88 260.611c1.37-.206 2.259.866 3.38 1.31 1.606.635 3.087 1.497 4.904 1.623 1.328.092 2.666.342 3.378 1.965.6 1.37 2.165.978 3.378.945 1.675-.045 2.762.326 3.272 2.243.434 1.635 2.018 2.289 3.733 2.26a2.332 2.332 0 0 1 2.463 1.16 3.24 3.24 0 0 0 3.032 1.371c1.988-.065 3.072.986 3.135 3.013-6.509-2.647-12.536-6.266-18.83-9.347-3.487-1.707-6.897-3.57-10.364-5.315a2.74 2.74 0 0 1-1.48-1.228z" class="cls-8"/>
		<path d="M323.113 306.615c4.602.368 9.273-.852 13.83.608 1.083.347 2.1-.126 3.136-.36.828-.186 1.704-.87 2.47.14l-1.698.702c.777 1.538 2.816 2.148 2.801 4.132a1.898 1.898 0 0 1-2.047-.965 3.937 3.937 0 0 0-4.623-1.831 14.397 14.397 0 0 1-5.396.29 17.57 17.57 0 0 0-5.585-.022c-1.578.36-2.62-.693-2.908-2.328a1.179 1.179 0 0 0 .02-.366z" class="cls-14"/>
		<path d="M343.653 311.837c.014-1.984-2.025-2.594-2.802-4.132l1.699-.702 20.986.36.02.603a38.436 38.436 0 0 1-12.297.109c-1.978-.226-3.736.52-5.633.41-.705-.04-1.097.705-1.04 1.454.065.859.342 1.922 1.272 1.868 2.82-.164 2.8 1.632 2.74 3.559l-.088.072-2.888-2.458-1.51-.111-.006-.007a.894.894 0 0 0-.453-1.025zm-63.24-7.987c-2.457-.16-2.81-2.598-4.218-3.89 1.23.218 1.948-1.056 3.1-1.063 1.203 1.464.785 3.293 1.117 4.953z" class="cls-9"/>
		<path d="M323.113 306.615a1.174 1.174 0 0 1-.02.365l-2.976-.082-.005-.521c1.052-.572 2.076-.796 3 .238z" class="cls-3"/>
		<path d="M368.584 308.037c-.102.527-.38.847-.955.723-.463-.1-.558-.47-.546-.886a1.679 1.679 0 0 1 1.5.163z" class="cls-9"/>
		<path d="m363.556 307.966-.02-.604c.408-.335.77-.38 1.034.168-.217.427-.637.382-1.014.436z" class="cls-14"/>
		<path d="M342.808 276.604c.676-.197 1.17-.077 1.276.726a1.41 1.41 0 0 1-1.276-.726z" class="cls-8"/>
		<path d="M278.363 292.552c-.574-.272-.794-.674-.471-1.277a.839.839 0 0 1 .471 1.277z" class="cls-14"/>
		<path d="m320.117 306.898 2.976.082c.289 1.636 1.33 2.69 2.908 2.329a17.57 17.57 0 0 1 5.585.022 14.397 14.397 0 0 0 5.396-.29 3.937 3.937 0 0 1 4.623 1.831 1.898 1.898 0 0 0 2.047.965.893.893 0 0 1 .454 1.025c-.309.079-.687.073-.753.488-.013.08.192.285.272.272.414-.066.408-.445.487-.753l1.509.11c.003 3.27.302 3.57 2.875 2.884 2.914 3.1 5.78 6.249 8.78 9.263.638.641 1.023 1.798 2.251 1.737l1.128.595.32.34.194.603c-.195 1.29 1.04 1.651 1.667 2.288 3.603 3.667 6.916 7.639 11.04 10.771l.204.838c-.621 2.41.59 5.053 3.566 6.44 2.73 1.271 3.09 4.532 5.58 5.888.282.153.12.602-.164.844a1.05 1.05 0 0 1-1.55-.221c-.805-.913-1.61-1.667-2.946-1.39l-3.03.55-1.99-.043c-.074-.896-.72-.893-1.413-1.027-3.505-.676-7.051-.248-10.57-.476q-.243-.022-.487-.03c-.07-.718-.54-.857-1.178-1.003-3.41-.782-6.946-1.387-10.209-2.327-3.909-1.126-7.754-1.045-11.612-1.584l-2.007-.024c.016-1.243.141-2.573-1.739-1.236a1.926 1.926 0 0 1-1.904.038c-2.814-1.352-5.878-.925-8.826-1.313l-2.484-.04c-.758-1.817-2.334-.663-3.508-.966l-2.485-.031c-.085-.846-.51-1.484-1.387-1.431-1.91.115-3.702-.879-5.621-.52l-1.504-.003a1.176 1.176 0 0 0-1.98-.019l-1.5-.023c.167-1.466-.41-2.071-1.953-2.026-.975.03-2.404.65-2.89-.616-.794-2.071-2.075-1.498-3.327-.84-.963.505-1.927.795-2.777.169-1.134-.836-2.332-.638-3.55-.623l-2.51-.012c-.676-.848-.113-2.992-2.037-2.466-2.596.71-5.293-1.88-7.776.38-.157.143-.665.02-.946-.114a6.919 6.919 0 0 0-3.182-.298c-.882-1.696-1.528-3.234-4.11-3.393-1.182-.073-2.27-2.554-3.278-4.027-.32-.469-.5-1.345-1.034-1.241-2.734.532-3.318-1.725-4.504-3.245a16.58 16.58 0 0 0-4.25-3.405 3.645 3.645 0 0 1-1.91-2.161 1.863 1.863 0 0 0-1.544-1.465c-2.696-.388-3.816-2.624-5.533-4.277-1.31-1.26-3.163-1.977-4.369-3.544a17.767 17.767 0 0 0-5.674-4.892c-.928-.499-.845-1.553-1.397-2.28a10.338 10.338 0 0 0-3.915-2.773c-3.147-1.572-3.929-4.82-5.737-7.335-.237-.328-.436-.923-.859-.729-.832.382-1.605 1.007-2.473.208-2.658-2.443-6.283-3.657-8.458-6.736-.478-.677.104-1.276-.293-2.05-1.204.543-2.919 1.779-2.625-1.12 6.648-4.54 13.768-8.304 20.585-12.563 2.828-1.768 6.081-2.893 8.393-5.456 1.462.22 2.436-1.545 3.983-.977 1.523 1.283 2.3 3.42 4.498 3.928.068.175.137.351.204.527-.003.243-.11.575.01.716q5.493 6.462 11.047 12.873c.237.274.742.316 1.122.466q.274.31.549.618a2.382 2.382 0 0 0 .596 1.581c3.37 3.458 5.866 7.68 9.467 10.92.847.761.729 2.562 2.473 2.343l.007.009.033.512c-.318 1.757.84 3.028 1.473 4.47-1.918.813-.415 1.166.345 1.832l-.35-1.835c1.113.172 2.214.526 2.558 1.686 1.292 4.359 4.39 4.675 8.391 4.697 5.405.03 10.8-1.048 16.242-.028 2.1.393 4.455-.622 6.574-.272 3.42.564 6.742-.225 10.105-.096a1.698 1.698 0 0 0 1.59-.493z" class="cls-6"/>
		<path d="M443.005 333.886c-1.127 1.476-2.83 1.422-4.252 1.094-5.479-1.261-10.854-.123-16.252.43-2.262.232-3.878 1.859-5.47 3.258-2.013 1.77-4.102 3.629-6.499 4.534-3.538 1.338-5.72 4.698-9.559 5.588-1.674.388-3.016 2.211-4.51 3.38-.496.387-.796 1.116-1.935.886a13.035 13.035 0 0 1 3.05-6.293 5.135 5.135 0 0 0 1.378-4.44l.168-1.979c1.023-.02 1.382-.848 1.721-1.56 1.816-3.814 4.142-7.378 5.594-11.371l.593-1.59c.65-.318.388-1.526 1.429-1.464 5.381 2.235 11.17 2.983 16.72 4.591 5.922 1.716 12.009 2.837 17.824 4.936z" class="cls-11"/>
		<path d="M373.877 341.46c-4.125-3.132-7.438-7.104-11.041-10.77-.626-.638-1.862-1-1.667-2.29a5.158 5.158 0 0 1 3.188 2.184 49.736 49.736 0 0 0 8.035 8.034c.896.71 1.937 1.402 1.485 2.842zm-14.35-14.597c-1.228.06-1.613-1.096-2.25-1.737-3.001-3.014-5.867-6.163-8.78-9.263a1.21 1.21 0 0 0 .013-.425l.087-.072c4.076 3.422 8.584 6.432 10.93 11.497zm46.912.55c-1.452 3.993-3.778 7.557-5.594 11.372-.339.711-.698 1.54-1.72 1.56-.121-2.182 1.993-3.21 2.6-5.111a56.945 56.945 0 0 1 3.436-7.313c.265-.548.785-.507 1.278-.508z" class="cls-9"/>
		<path d="M386.435 354.372a12.317 12.317 0 0 1-5.392-5.485c2.285 1.35 4.487 2.78 5.392 5.485z" class="cls-8"/>
		<path d="M408.46 324.36c-1.04-.063-.779 1.145-1.428 1.463-1.182-2.597.528-3.813 2.37-4.966.294 1.33-1.366 2.137-.941 3.502z" class="cls-9"/>
		<path d="M380.023 347.844a6.622 6.622 0 0 1-3.966-3.969 6.733 6.733 0 0 1 3.966 3.969z" class="cls-8"/>
		<path d="M360.976 327.798a330.388 330.388 0 0 1-.321-.34l.32.34z" class="cls-9"/>
		<path d="m151.897 266.161-1.052-1.599c-2.402-3.657-6.01-6.33-8.4-9.926-1.516-2.28-4.795-3.03-5.093-6.207l.133-.133 2.384 1.645 8.438 9.013a.963.963 0 0 0 .987 1.012l-.008-.008a.964.964 0 0 0 1.008.997 6.816 6.816 0 0 0 2.021 2.486c-.018.697.581 1.104.793 1.674.479 1.288-.257 1.33-1.21 1.046zm-17.335-20.858a3.333 3.333 0 0 1 2.341 1.654l.582 1.34-.133.132c-1.52-.516-2.852-1.198-2.79-3.126z" class="cls-16"/>
		<path d="M239.2 263.421c-2.313 2.563-5.566 3.688-8.394 5.456-6.817 4.26-13.937 8.024-20.585 12.563l-1.935-.004a2.02 2.02 0 0 1-2.191-1.53c-.93-2.268-2.395-4.07-5.282-3.68-2.504.337-4.586-1.055-6.482-2.18a30.544 30.544 0 0 0-7.67-3.124c-1.707-.468-2.82-2.445-4.915-1.965l-.93-.036a168.208 168.208 0 0 0 2.573-25.505c3.202-1.178 5.637.67 8.14 2.124.638.37 1.137 1.038 1.957.906 2.925-.473 5.074 1.44 7.545 2.377a49.08 49.08 0 0 0 10.66 2.624 4.597 4.597 0 0 1 3.492 2.422c1.172 1.917 3.488 1.524 5.247 1.916a20.64 20.64 0 0 1 7.519 3.305c1.346.947 2.565 1.655 4.332.98a2.315 2.315 0 0 1 3.04.968c.857 1.443 2.94 1 3.878 2.383z" class="cls-3"/>
		<path d="m137.485 248.296-.582-1.339a13.287 13.287 0 0 1 2.789.813c.945.508 1.61 1.33.176 2.171q-1.19-.823-2.383-1.645zm-3.57-4.85a1.62 1.62 0 0 1-1.125-1.452c.85.116 1.725.212 1.125 1.452zm16.38 17.509a.964.964 0 0 1-1.008-.997.91.91 0 0 1 1.007.997z" class="cls-14"/>
		<path d="M149.294 259.966a.963.963 0 0 1-.987-1.012.91.91 0 0 1 .987 1.012z" class="cls-14"/>
		<path fill="#010101" d="M424.48 99.298c-3.838.206-6.366-2.728-9.57-4.044-.98-.403-1.949-.817-2.943-1.203-6.8-2.634-13.687-5.11-20.243-8.265a14.64 14.64 0 0 0-5.692-1.708 27.002 27.002 0 0 0-8.766-4.635c-3.617-1.12-6.922-2.841-10.396-4.217a1.876 1.876 0 0 1-1.325-2.083c6.403-2.616 12.33-6.21 18.66-8.998 8.188-3.605 16.184-7.684 24.325-11.345 5.515-2.48 10.808-5.54 16.587-7.514 3.062-1.045 5.86-2.844 8.81-4.236 7.945-3.747 15.802-7.711 23.903-11.085 4.492-1.87 8.646-4.376 13.05-6.247 5.182-2.202 9.896-5.472 15.406-6.861 1.088-.275 1.442-1.452 2.434-1.554.678-.07 1.476-.902 2.043-.077a1.81 1.81 0 0 1-.198 2.109c-.598.792-1.228 1.56-1.85 2.334-4.072 5.066-7.945 10.28-12.182 15.23-2.776 3.243-5.15 6.88-7.977 10.115-5.828 6.671-10.98 13.882-16.658 20.678-3.746 4.484-7.775 8.755-10.997 13.707-2.107 3.24-5.141 5.87-7.306 9.078-2.306 3.418-5.297 6.276-7.472 9.77a2.465 2.465 0 0 1-1.643 1.05z"/>
		<path d="M365.545 73.143a1.876 1.876 0 0 0 1.325 2.083c3.474 1.376 6.779 3.097 10.396 4.217a27.002 27.002 0 0 1 8.766 4.635 7.45 7.45 0 0 1-6.366-1.783c-2.478-2.254-6.236-2.006-9.022-3.749-2.255-1.41-5.05-1.61-7.091-3.403l.03-1.938q.982-.03 1.962-.062z" class="cls-5"/>
		<path d="M273.148 296.416c-1.744.22-1.626-1.582-2.473-2.344-3.6-3.24-6.097-7.461-9.467-10.919a2.382 2.382 0 0 1-.596-1.58 1.829 1.829 0 0 1 2.291 1.038c1.989 4.196 5.562 7.137 8.378 10.673.776.975 1.76 1.778 1.867 3.132zm-13.085-15.462c-.38-.15-.885-.192-1.122-.466q-5.562-6.404-11.048-12.873c-.119-.14-.012-.473-.009-.716 3.016 2.067 5.01 5.145 7.47 7.747a40.643 40.643 0 0 1 4.102 4.574c.395.568.812 1.007.607 1.734zm.573-15.379c.907.03 2.023-.655 2.533.737-.913-.01-2.012.619-2.533-.737zm-5.017-.466c.863.065 1.833-.497 2.548.434-.97.566-1.89.835-2.547-.434zm17.57 31.828-.034-.512c.998.068 2.066.056 1.796 1.572l-1.763-1.06zm2.914 2.945c-.652-.01-.932-.34-.845-.984a.841.841 0 0 1 .845.984z" class="cls-9"/>
		<path d="M339.59 359.225c.606.852 1.528.678 2.278.495 4.84-1.184 8.859.346 13.013 2.887 2.654 1.623 5.536 3.11 8.393 4.511 4.394 2.155 8.95 4.078 13.07 6.837 1.223.819.898 1.464.728 2.377l-1.08-.03c-.157-.271-.26-.723-.478-.789a166.177 166.177 0 0 0-25.348-5.846c-5.064-.69-10.062-2.413-15.117-3.547-4.75-1.066-9.61-1.56-14.395-2.492a8.508 8.508 0 0 1-4.566-1.847 5.038 5.038 0 0 1 3.24-.554 9.952 9.952 0 0 0 7.236-1.847l6.56-.137 3.07.106a.781.781 0 0 0 .895.911c.618 0 .914-.293.89-.91z" class="cls-5"/>
		<path d="m420.31 414.451-.306-.72c.711-.74 1.49-.488 2.208-.074 1.767 1.017 1.853-.072 1.796-1.381a8.64 8.64 0 0 1 5.466 4.5 3.708 3.708 0 0 1-2.532-1.338c-1.222-1.56-2.1-.991-2.937.339l-1.527-.014a4.096 4.096 0 0 0-2.168-1.312z" class="cls-16"/>
		<path d="m419.508 413.304-1.032-.508.525-.542a1.12 1.12 0 0 1 .507 1.05zm-44.955-36.57a.961.961 0 0 1 .958-.386c-.007.333-.026.707-.422.76-.16.02-.357-.242-.536-.375z" class="cls-8"/>
		<path fill="#fefefe" d="M81.76 239.776c.088 1.762-.603 2.972-2.468 3.017-1.99.048-2.7-1.445-2.915-3.066-.193-1.453 1.825-3.805 2.92-3.456 1.591.508 2.719 1.596 2.463 3.505z"/>
		<path d="M272.184 335.906a6.919 6.919 0 0 1 3.182.297c.28.134.789.257.946.113 2.483-2.26 5.18.331 7.776-.379 1.924-.526 1.361 1.618 2.037 2.465-3.371.809-6.762 1.644-9.807-.89-.828-.69-1.378-.966-1.664.373-1.309.326-1.564-1.092-2.442-1.477l-.028-.502z" class="cls-11"/>
		<path d="M274.654 337.885c.286-1.34.836-1.062 1.664-.374 3.045 2.535 6.436 1.7 9.807.891l2.51.013c.116 1.163.88 1.507 1.903 1.438a6.545 6.545 0 0 1 3.078.712 18.31 18.31 0 0 0 9.516 1.786l1.5.023a1.226 1.226 0 0 0 1.98.019l1.504.002c2.1 1.496 4.57 1.668 7.008 1.952l2.485.03c.734 1.902 2.063 1.643 3.508.966l2.484.04c.155.272.265.739.474.788 3.215.755 6.434 1.5 9.674 2.138a2.279 2.279 0 0 0 2.32-.414l2.008.023c.121 1.185.949 1.304 1.933 1.473 3.079.528 6.134 1.19 9.2 1.79 3.197.625 6.223 2.198 9.628 1.68a15.67 15.67 0 0 1 2.238-.028q.244.008.487.03c.154.273.306.782.462.783 3.222.032 6.17 1.571 9.362 1.676.81.026 1.916.422 2.16-.956l1.988.043 1.015 2.44c-8.677.04-17.358-.105-26.025.51l-1.936.064c-1.633.387-3.607-1.135-4.95.88l-1.088.069a1.1 1.1 0 0 0-1.931.033l-1.022.023a32.908 32.908 0 0 0-3.722-.039c-.944.09-2.242-.7-2.752.854l-6.56.137-2.985.002c-.327-.558-.642-.547-.946.02-1.241-.29-2.34.515-3.55.465-1.902-1.457-3.98-.135-5.964-.337-.122-.013-.298.495-.449.761l-2.099.006c-.117-1.116-.974-.933-1.692-.94a23.638 23.638 0 0 0-5.208.057c-3.095.681-5.116-1.2-7.41-2.54a1.403 1.403 0 0 1-.638-1c-.111-.476-.187-1.218-.493-1.352-2.883-1.26-4.37-4.323-6.933-5.679-2.512-1.329-3.807-3.69-5.957-5.241-.603-.435-1.173-.905-1.834-1.334-2.015-1.31-3.848-2.901-5.752-4.383z" class="cls-13"/>
		<path d="M312.67 360.291c.151-.266.327-.774.45-.761 1.983.203 4.06-1.12 5.964.337-2.082 1.001-4.278.248-6.414.424zm9.963-.889c.303-.567.619-.578.946-.02-.306.471-.621.488-.946.02z" class="cls-8"/>
		<path d="M430.486 418.26c-1.006-.036-1.002-.758-1.005-1.477 1.02.027 1.015.75 1.005 1.477z" class="cls-16"/>
		<path d="m376.55 356.85-1.015-2.441q1.516-.274 3.031-.55c-.26 1.158.353 1.91 1.602 2.54-1.408.697-2.543.354-3.618.45z" class="cls-11"/>
		<path d="M444.987 433.23a1.315 1.315 0 0 1-.47-.164c.313-1.316-.956-2.13-1.05-3.317 1.193-.18 1.762.747 2.417 1.437.357.375 1.1.656.807 1.375-.31.758-1.043.677-1.704.668z" class="cls-13"/>
		<path d="M333.124 359.243c.51-1.554 1.808-.765 2.752-.854a32.908 32.908 0 0 1 3.722.04l-.009.797q-.805.061-1.608.125l-1.786-.002-3.071-.106zm10.515-.94c1.343-2.015 3.317-.493 4.95-.88-1.375 1.84-3.308.543-4.95.88zm-3.02.102a1.1 1.1 0 0 1 1.932-.033 1.224 1.224 0 0 1-1.932.033zm81.86 57.358 1.526.014v1.01q-.644-.122-1.287-.246-.119-.39-.24-.778zm-6.96-5.487-.556-.486.556.486z" class="cls-8"/>
		<path d="M348.51 315.438a1.21 1.21 0 0 1-.013.425c-2.574.686-2.873.385-2.876-2.884l2.889 2.46z" class="cls-14"/>
		<path d="M361.076 352.833a15.67 15.67 0 0 0-2.238.029c-3.405.517-6.431-1.056-9.627-1.681-3.067-.6-6.122-1.262-9.201-1.79-.984-.17-1.812-.288-1.933-1.473 3.858.54 7.703.46 11.612 1.585 3.264.94 6.798 1.545 10.209 2.327.639.146 1.108.285 1.178 1.003zm-57.944-10.482a18.31 18.31 0 0 1-9.516-1.786 6.545 6.545 0 0 0-3.078-.712c-1.023.069-1.787-.275-1.904-1.438 1.22-.015 2.417-.213 3.551.623.85.627 1.814.337 2.777-.17 1.252-.657 2.533-1.23 3.327.841.486 1.267 1.915.645 2.89.616 1.543-.045 2.12.56 1.953 2.026zm70.415 12.015c-.244 1.378-1.35.982-2.16.956-3.192-.105-6.14-1.644-9.362-1.676-.156-.001-.308-.51-.462-.783 3.519.228 7.065-.2 10.57.476.693.134 1.339.131 1.414 1.027zm-37.477-6.47a2.279 2.279 0 0 1-2.32.414c-3.24-.638-6.46-1.384-9.675-2.14-.209-.048-.319-.515-.474-.787 2.948.389 6.012-.038 8.826 1.314a1.926 1.926 0 0 0 1.904-.038c1.88-1.337 1.755-.007 1.739 1.236zm-20.946-3.55c-2.438-.283-4.908-.455-7.008-1.95 1.92-.359 3.711.635 5.62.52.878-.053 1.303.585 1.388 1.43zm5.993.997c-1.445.677-2.774.936-3.508-.965 1.174.303 2.75-.851 3.508.965z" class="cls-11"/>
		<path d="m274.657 301.404.349 1.835c-.76-.666-2.263-1.019-.345-1.831z" class="cls-14"/>
		<path d="M306.612 342.393a1.226 1.226 0 0 1-1.98-.02 1.176 1.176 0 0 1 1.98.02z" class="cls-11"/>
		<path d="M344.112 312.869c-.08.308-.073.687-.487.753-.08.013-.285-.193-.272-.272.066-.415.444-.41.753-.488z" class="cls-14"/>
		<path d="m336.195 359.349 1.786.002c.022.616-.274.908-.892.91a.781.781 0 0 1-.894-.912z" class="cls-9"/>
	</g>
</svg>
