<svg version="1.0" xmlns="http://www.w3.org/2000/svg" width="305.333" height="305.333" viewBox="0 0 229 229">
	<path d="M97 11.7C47.8 17.5 7.3 22.3 7.1 22.5c-.5.6 22.3 184.5 23.1 185.7.7 1.3 20.5-.9 21.4-2.4.3-.5-1.9-3.2-5-6.2-6.3-6-8-9.6-7.1-14.6 1.1-6.2 5.3-11.8 15.1-20.2 12.7-11 16.7-16.4 17.2-23.7.5-6.4-.8-12.1-3.9-17-1.5-2.5-2.3-3.1-2.9-2.1-.6.9-1 .6-1.5-1.1-1-3.1-3.5-6-4.7-5.3-.5.3-1.2-.3-1.5-1.4-.3-1.3-1.1-1.8-1.9-1.5-1 .4-1.4-.3-1.4-2.3 0-1.6-.6-5-1.4-7.5-.8-2.5-1.7-7.5-2.1-11.2l-.7-6.6 6.8.5c5.9.5 7.6.2 11.4-1.8 2.5-1.3 5.1-3.4 5.7-4.8 1.7-3.4 1.6-11.3-.2-18.5-1.6-6.3-10.5-28.8-11.1-28.2-.3.2 1.2 6.6 3.1 14.1 3.9 15.3 4.2 18.8 2 24.4-2 4.8-8.4 9.2-13.6 9.2-5.8 0-14.5-6.6-19.9-15-4.2-6.6-4.6-9.2-2-14.1 1.4-2.9 1.8-4.4 1-4.9-.6-.4.5-1.8 3-3.5 2.2-1.5 3.9-3.3 3.7-3.9-.2-.6.8-1.6 2.2-2.3l2.6-1.1-2.5-.1c-4.2-.2 12.4-7.1 17.1-7.1 3.5 0 4.6.6 7.7 4.1 3.9 4.3 9.8 7.9 13 7.9 3 0 12.3-4.1 16.3-7.2 4.4-3.4 4.9-3.4 4.1-.6-.5 2.3-.5 2.3 1.6.4 2-1.7 2.2-1.7 2.2-.2s.2 1.5 3 .1c2.6-1.3 2.9-1.4 2.4 0-.5 1.2.5 1.5 6.1 1.5 8.8 0 12.5-1.9 18.1-9.1 7.4-9.7 13.1-9.3 23.3 1.6 6.6 7.1 12.1 17.2 12.1 22.2 0 11.2-16.1-3-20.5-18-.9-3.1-2.5-6.7-3.6-7.9-2-2.3-2-2.3-1.4-.1.3 1.1 1 5.5 1.4 9.6.5 4.1 1.6 8.9 2.4 10.7.9 1.7 1.3 3.8 1 4.6-.4 1.1-1.1.9-3.5-1.1-1.7-1.4-4.9-3.5-7.2-4.7-3.8-1.9-3.3-1.3 5 7.3 10.7 11 13.3 15.5 14.1 24.7.6 6 1.2 7.5 5.8 14.2 2.9 4.1 5.8 9.3 6.5 11.4 1.5 4.8.8 14.6-1.5 20.3-1.6 4-1.8 4.1-7.7 4.8-6.8.8-8.6-.1-6.8-3.5 2-3.8.1-3.5-4.3.7-9.8 9.3-16.6 11.6-26.2 8.8-6.5-1.9-16.6-6.8-23.5-11.4-2.5-1.7-4.7-2.6-4.8-2.1-.5 1.5 1.2 3.4 9.4 9.9l7.2 5.9-3.6.6c-2.1.3-5.2.6-6.9.6-1.8 0-3.3.4-3.3.8s1.6 12.9 3.5 27.7c1.9 14.9 3.5 27.3 3.5 27.7 0 .5-1.5.8-3.2.8-3 0-3.5-.5-5.6-5.4-3-6.9-8.1-12.9-13.9-16.3-3.6-2.1-6.3-2.7-12.3-3.1-5.1-.3-8-.1-8.4.7-.5.7.8 1.1 4.1 1.1 12.6 0 22.5 10.1 26.9 27.4 2.8 11.2-.3 21-8.1 25-5.1 2.6-14.5 2.8-19.2.3-4.5-2.4-4.1-.7.7 3.7 3.9 3.5 4.3 3.6 11.5 3.6 8.6 0 14.1-2.1 17.3-6.7 2.6-3.9 3.2-5.7 4.6-14.3 1.1-7 1.4-7.5 3.8-7.8 2.5-.3 2.6-.1 3.8 8.4l1.2 8.6 3.7-.5c2-.3 27.2-3.3 56.1-6.8 28.9-3.4 52.6-6.3 52.7-6.4.2-.1-1.7-19.7-4.2-43.5-2.5-23.9-4.5-44.1-4.5-44.8 0-1-.9-1.3-3-1-1.6.3-3 .4-3 .2 0-1.2-10.1-105-10.5-108.2-.6-4.1-.7-4.2-4.3-4.1-2 .1-44 4.9-93.2 10.6zm110.3 145.2c1.5 18.9 2.6 34.6 2.3 34.8-.2.3-22.2 4.4-48.8 9.2l-48.3 8.7-.7-3c-1.1-5.3-8.1-66.6-7.7-67.1.3-.2 3.2-.8 6.6-1.4 4.7-.7 7.2-.6 10.9.5 9.3 2.8 16.6 1.5 23.2-4.1 3-2.5 5.9-3.3 29-7.6 14.1-2.6 26.8-4.7 28.2-4.6l2.5.2 2.8 34.4z"/>
	<path d="M194.1 142.5c-2.9 6-6.2 12.9-7.3 15.2l-1.9 4.3-8.9-6c-4.9-3.3-9.3-6-9.7-6-.4 0-3.2 4.2-6.2 9.3-3 5-6.5 10.8-7.7 12.8l-2.3 3.7-8.2-2.4c-4.6-1.3-8.8-2.4-9.4-2.4-.6 0-4.5 5.3-8.8 11.8-6.9 10.6-7.7 12.4-7.7 16.6 0 4 .3 4.7 1.8 4.2.9-.3 20.8-4 44.2-8.2 23.4-4.3 42.6-7.8 42.7-7.9.3-.2-4.5-52-5-54.5-.2-.8-2.7 3.4-5.6 9.5z"/>
	<path d="M142.4 62.6c-2.4 1 .9 12.9 3.9 13.9.7.2 2.9.6 5.1.9l3.8.5-.4-5.1c-.4-4.2-1.1-5.7-3.7-8-2.9-2.6-5.9-3.3-8.7-2.2z"/>
	<path d="M101.5 69.5c-2.2.8-4.8 2.4-5.7 3.6-2.4 2.8-2.3 9.7.1 12.8l1.8 2.4 6.9-1.8c3.8-1 7.5-2.3 8.2-2.8 1.5-1.2 1.6-9.3.1-10.2-.6-.4-.8-1.4-.4-2.3 1.2-3.3-4.2-4.1-11-1.7z"/>
	<path d="M150.2 98.1c-12.2 2-14.7 6.7-6.6 11.9 8.6 5.4 12.9 4.9 16.4-2 2.4-4.7 2.6-9.5.4-10.4-1.9-.7-3.2-.6-10.2.5z"/>
</svg>
