<svg xmlns="http://www.w3.org/2000/svg" width="200" height="128">
	<mask id="a" x="35.71" y="19" width="128.58" height="90" maskUnits="userSpaceOnUse">
		<path d="M35.74 19h128.55v90H35.74z" fill-rule="evenodd" fill="#fff"/>
	</mask>
	<g mask="url(#a)">
		<path d="M89.22 28.82a22.52 22.52 0 0 1 16.3-7 22.76 22.76 0 0 1 19.84 11.76 27.43 27.43 0 0 1 11.21-2.39 28 28 0 0 1 0 55.93 27.33 27.33 0 0 1-5.46-.55A20.24 20.24 0 0 1 113.42 97a20 20 0 0 1-8.86-2 23.12 23.12 0 0 1-43-1 21.7 21.7 0 0 1-15.14-40A25 25 0 0 1 89.2 29" fill="#00a1e0" fill-rule="evenodd"/>
	</g>
	<path fill="#fff" d="M54.33 65.67c-.08.21 0 .26.06.29a6.24 6.24 0 0 0 .73.45 7.9 7.9 0 0 0 3.85.9c2.63 0 4.27-1.41 4.27-3.67 0-2.09-1.85-2.85-3.58-3.39l-.23-.08c-1.3-.42-2.43-.79-2.43-1.65 0-.74.66-1.28 1.68-1.28A7.58 7.58 0 0 1 62 58s.26.17.35-.08l.54-1.44a.25.25 0 0 0-.13-.3 7.5 7.5 0 0 0-3.78-1h-.26c-2.42 0-4.1 1.46-4.1 3.55 0 2.2 1.86 2.92 3.6 3.42l.28.08c1.27.39 2.36.73 2.36 1.62 0 .81-.71 1.42-1.86 1.42a6.26 6.26 0 0 1-3.4-1l-.43-.27a.21.21 0 0 0-.35.12l-.52 1.44m38.62 0c-.09.21 0 .26 0 .29a7.2 7.2 0 0 0 .73.45 8 8 0 0 0 3.85.9c2.64 0 4.28-1.41 4.28-3.67 0-2.09-1.85-2.85-3.59-3.39l-.22-.08c-1.31-.42-2.44-.79-2.44-1.65 0-.74.66-1.28 1.68-1.28a7.58 7.58 0 0 1 3.35.85s.26.17.35-.08l.54-1.44a.25.25 0 0 0-.13-.3 7.5 7.5 0 0 0-3.78-1h-.26c-2.42 0-4.1 1.46-4.1 3.55 0 2.2 1.86 2.92 3.6 3.42l.28.08c1.27.39 2.36.73 2.36 1.62 0 .81-.71 1.42-1.85 1.42a6.23 6.23 0 0 1-3.4-1l-.44-.27a.22.22 0 0 0-.34.12L93 65.67m26.36-4.42a5.42 5.42 0 0 1-.71 3 2.39 2.39 0 0 1-2.15 1.05 2.34 2.34 0 0 1-2.13-1.05 5.51 5.51 0 0 1-.69-3 5.43 5.43 0 0 1 .69-3 2.35 2.35 0 0 1 2.13-1 2.39 2.39 0 0 1 2.15 1 5.34 5.34 0 0 1 .71 3m2.2-2.37a5.52 5.52 0 0 0-1-1.91 4.89 4.89 0 0 0-1.7-1.29 5.58 5.58 0 0 0-2.36-.47 5.65 5.65 0 0 0-2.36.47A4.94 4.94 0 0 0 112.4 57a5.52 5.52 0 0 0-1 1.91 8.9 8.9 0 0 0 0 4.73 5.41 5.41 0 0 0 1 1.92 4.66 4.66 0 0 0 1.69 1.27 5.65 5.65 0 0 0 2.36.46 5.58 5.58 0 0 0 2.36-.46 4.61 4.61 0 0 0 1.7-1.27 5.57 5.57 0 0 0 1-1.92 8.47 8.47 0 0 0 .32-2.36 8.59 8.59 0 0 0-.32-2.37M139.59 65a.21.21 0 0 0-.28-.14 5.37 5.37 0 0 1-1 .3 8.83 8.83 0 0 1-1.2.08 3.36 3.36 0 0 1-2.52-.94 4.22 4.22 0 0 1-.95-3 4.7 4.7 0 0 1 .85-2.9 2.86 2.86 0 0 1 2.44-1.08 7.32 7.32 0 0 1 2.33.34s.17.07.25-.16c.2-.53.34-.91.54-1.5a.2.2 0 0 0-.13-.26 9.17 9.17 0 0 0-1.47-.37 11.49 11.49 0 0 0-1.65-.11 6.1 6.1 0 0 0-2.46.47 5.16 5.16 0 0 0-1.8 1.27 5.41 5.41 0 0 0-1.07 1.91 7.55 7.55 0 0 0-.36 2.37 6.33 6.33 0 0 0 1.46 4.38 5.57 5.57 0 0 0 4.35 1.64 8.91 8.91 0 0 0 3.08-.6.2.2 0 0 0 .09-.26l-.5-1.44m3.85-5a4.3 4.3 0 0 1 .6-1.75 2.37 2.37 0 0 1 2.13-1.08 2.3 2.3 0 0 1 2.09 1.08 3.61 3.61 0 0 1 .49 1.76zm7.41-1.55a4.75 4.75 0 0 0-.95-1.75 4.42 4.42 0 0 0-1.42-1.08 5.55 5.55 0 0 0-2.13-.43 5.84 5.84 0 0 0-2.46.48 4.8 4.8 0 0 0-1.72 1.33 5.56 5.56 0 0 0-1 1.93 8.72 8.72 0 0 0-.32 2.38 8.15 8.15 0 0 0 .33 2.38 5 5 0 0 0 1.08 1.9 4.91 4.91 0 0 0 1.88 1.24 7.52 7.52 0 0 0 2.7.44 7.8 7.8 0 0 0 3.76-.75c.08 0 .16-.13.06-.36l-.49-1.36a.22.22 0 0 0-.28-.13 7.2 7.2 0 0 1-3.06.55 3.51 3.51 0 0 1-2.55-.88 3.47 3.47 0 0 1-.86-2.48h7.45a.21.21 0 0 0 .21-.19 7.88 7.88 0 0 0-.22-3.21zM83.75 60a4.46 4.46 0 0 1 .6-1.75 2.38 2.38 0 0 1 2.13-1.08 2.3 2.3 0 0 1 2.09 1.08 3.72 3.72 0 0 1 .5 1.76zm7.41-1.55a4.61 4.61 0 0 0-1-1.75 4.51 4.51 0 0 0-1.41-1.08 5.64 5.64 0 0 0-2.14-.43 5.87 5.87 0 0 0-2.46.48A4.89 4.89 0 0 0 82.48 57a5.56 5.56 0 0 0-1 1.93 8.72 8.72 0 0 0-.32 2.38 7.82 7.82 0 0 0 .34 2.38 4.83 4.83 0 0 0 1.08 1.9 4.94 4.94 0 0 0 1.87 1.24 7.54 7.54 0 0 0 2.71.44 7.78 7.78 0 0 0 3.75-.75c.08 0 .16-.13.06-.36l-.49-1.36a.22.22 0 0 0-.28-.13 7.2 7.2 0 0 1-3.06.55 3.51 3.51 0 0 1-2.55-.88 3.47 3.47 0 0 1-.86-2.48h7.45a.22.22 0 0 0 .22-.19 8.2 8.2 0 0 0-.24-3.2zm-23.52 6.46a1.64 1.64 0 0 1-.43-.45 1.76 1.76 0 0 1-.22-1 1.65 1.65 0 0 1 .66-1.44 3.38 3.38 0 0 1 2.17-.54 13.78 13.78 0 0 1 2 .18v3.38a14.24 14.24 0 0 1-2 .27 3.48 3.48 0 0 1-2.19-.43zm3-5.24h-1.17a6.91 6.91 0 0 0-1.83.24 5 5 0 0 0-1.56.72A3.55 3.55 0 0 0 65 61.82a3.64 3.64 0 0 0-.4 1.72 4 4 0 0 0 .34 1.7 3.25 3.25 0 0 0 1 1.17 4 4 0 0 0 1.51.65 8.59 8.59 0 0 0 2 .21 14.16 14.16 0 0 0 2.26-.19c.63-.11 1.26-.23 1.88-.37l.52-.13a.23.23 0 0 0 .17-.24v-6.82A4.17 4.17 0 0 0 73 56.23a5.08 5.08 0 0 0-3.42-1 13.28 13.28 0 0 0-2 .18 7.28 7.28 0 0 0-2.29.84.23.23 0 0 0-.07.3l.53 1.42a.19.19 0 0 0 .24.12l.12-.06a7.62 7.62 0 0 1 3.25-.76 3 3 0 0 1 1.84.48c.41.31.62.79.62 1.78v.31c-.62-.12-1.21-.17-1.21-.17zm60.11-3.84a.21.21 0 0 0-.11-.27 6.47 6.47 0 0 0-1.25-.21 3.64 3.64 0 0 0-1.92.31 3.22 3.22 0 0 0-1.26.93v-.91a.22.22 0 0 0-.22-.23h-1.91a.22.22 0 0 0-.21.23v11.11a.22.22 0 0 0 .22.23h2a.23.23 0 0 0 .23-.23v-5.55a6.71 6.71 0 0 1 .24-2 2.88 2.88 0 0 1 .66-1.09 2.24 2.24 0 0 1 .92-.56 3.72 3.72 0 0 1 1-.14 4.23 4.23 0 0 1 .82.1c.14 0 .22-.07.27-.2.13-.34.49-1.36.56-1.56"/>
	<path fill="#fff" d="M112.34 50.68a4.7 4.7 0 0 0-.74-.18 6.77 6.77 0 0 0-1-.08 4.25 4.25 0 0 0-3.16 1.14 6.11 6.11 0 0 0-1.49 3.38l-.09.5h-1.7a.25.25 0 0 0-.25.22l-.27 1.55c0 .15 0 .24.24.24h1.65l-1.68 9.32a12.22 12.22 0 0 1-.44 1.84 4.17 4.17 0 0 1-.52 1.06 1.44 1.44 0 0 1-.68.53 3 3 0 0 1-.88.12 4.07 4.07 0 0 1-.6-.06 2.35 2.35 0 0 1-.4-.13.2.2 0 0 0-.27.12c-.06.16-.5 1.36-.55 1.51a.22.22 0 0 0 .11.3 5.18 5.18 0 0 0 .68.2 4.41 4.41 0 0 0 1.09.1 5.33 5.33 0 0 0 1.83-.28 3.42 3.42 0 0 0 1.38-1 4.8 4.8 0 0 0 1-1.67 13.63 13.63 0 0 0 .65-2.5l1.68-9.5h2.46a.26.26 0 0 0 .25-.22l.28-1.55c0-.15 0-.24-.25-.24h-2.38a10.23 10.23 0 0 1 .39-1.68 2.19 2.19 0 0 1 .53-.8 1.47 1.47 0 0 1 .62-.38 2.72 2.72 0 0 1 .8-.12 3.6 3.6 0 0 1 .61.06 3.23 3.23 0 0 1 .38.1c.25.07.28 0 .33-.12l.57-1.56a.2.2 0 0 0-.14-.26M79 66.79a.21.21 0 0 1-.21.23h-2a.22.22 0 0 1-.22-.23v-15.9a.22.22 0 0 1 .22-.23h2a.21.21 0 0 1 .21.23v15.9"/>
</svg>
