<svg xmlns="http://www.w3.org/2000/svg" viewBox="44.26 43.01 311.48 159.98">
	<defs>
		<linearGradient id="a" x1="200.144" x2="200.144" y1="196" y2="47.893" gradientTransform="matrix(1 0 0 -1 0 245)" gradientUnits="userSpaceOnUse">
			<stop offset="0" stop-color="#00b9f2"/>
			<stop offset=".205" stop-color="#00a3e1"/>
			<stop offset=".515" stop-color="#0088cd"/>
			<stop offset=".79" stop-color="#0078c0"/>
			<stop offset="1" stop-color="#0072bc"/>
		</linearGradient>
	</defs>
	<path fill="url(#a)" fill-rule="evenodd" d="M50.447 197.107h151.31L349.842 49H50.447v148.107"/>
	<path fill="#fff" fill-rule="evenodd" d="m228.122 76.849-29.47-.018v70.073l-25.745-70.073H147.38l-21.981 58.6c-2.34-14.774-17.626-19.878-29.652-23.703-7.94-2.549-16.364-6.3-16.287-10.445.066-3.403 4.519-6.563 13.342-6.088 5.933.315 11.16.794 21.57 5.813l10.238-17.83a79.693 79.693 0 0 0-33.384-7.9h-.063c-12.544 0-22.998 4.064-29.478 10.762a24.86 24.86 0 0 0-7.051 17.191c-.165 9.042 3.151 15.458 10.119 20.574 5.884 4.316 13.408 7.11 20.04 9.167 8.183 2.535 14.86 4.738 14.783 9.44a6.94 6.94 0 0 1-1.94 4.6c-2.038 2.104-5.171 2.895-9.5 2.975-8.347.177-14.539-1.132-24.4-6.959l-9.102 18.08a68.069 68.069 0 0 0 33.362 8.874l1.53-.018c10.343-.185 18.69-3.133 25.358-8.503.383-.301.728-.613 1.08-.927l-2.957 7.895h26.773l4.493-13.665a48.873 48.873 0 0 0 15.737 2.496 49.557 49.557 0 0 0 15.36-2.361l4.33 13.53h43.66v-28.292h9.521c23.019 0 36.632-11.723 36.632-31.365 0-21.882-13.227-31.923-41.39-31.923zm-68.112 59.96a26.852 26.852 0 0 1-9.443-1.651l9.34-29.473h.178l9.18 29.555a27.786 27.786 0 0 1-9.255 1.568zm69.842-16.934h-6.49V96.127h6.49c8.66 0 15.563 2.876 15.563 11.717 0 9.15-6.903 12.032-15.563 12.032"/>
	<path fill="#0072bc" d="M237.647 187.362a7.77 7.77 0 1 1-.004.285q-.001-.142.004-.285zm7.801 9.61a9.57 9.57 0 1 0-.205.002q.103 0 .205-.002zm-2.029-8.849h1.927l2.898 4.78h1.891l-3.163-4.86a2.87 2.87 0 0 0 2.886-3.048c0-2.164-1.297-3.134-3.898-3.134h-4.209v11.041h1.668zm0-1.425v-3.421h2.281c1.156 0 2.39.245 2.39 1.619 0 1.718-1.258 1.802-2.66 1.802z"/>
</svg>
