<svg xmlns="http://www.w3.org/2000/svg" width="200" height="128">
	<defs>
		<linearGradient id="a" x1="69.797" y1="68.634" x2="69.797" y2="19.366" gradientTransform="matrix(1 0 0 -1 0 108)" gradientUnits="userSpaceOnUse">
			<stop offset="0" stop-color="#00aeef"/>
			<stop offset=".212" stop-color="#0097dc"/>
			<stop offset=".519" stop-color="#007cc5"/>
			<stop offset=".792" stop-color="#006cb8"/>
			<stop offset=".999" stop-color="#0068b4"/>
		</linearGradient>
	</defs>
	<path d="M20 88.634h50.334l49.26-49.268H20v49.268" fill="url(#a)"/>
	<path d="M79.1 49.22h-9.832l.032 23.134-8.564-23.142h-8.493l-7.311 19.327c-.778-4.918-5.862-6.615-9.863-7.886-2.641-.848-5.445-2.1-5.417-3.476.022-1.132 1.5-2.182 4.438-2.026a16.053 16.053 0 0 1 7.174 1.938l3.4-5.934a26.484 26.484 0 0 0-11.1-2.625h-.022c-4.174 0-7.651 1.352-9.8 3.58a8.26 8.26 0 0 0-2.345 5.718 7.678 7.678 0 0 0 3.364 6.846 22.912 22.912 0 0 0 6.668 3.048c2.72.843 4.943 1.577 4.916 3.138a2.314 2.314 0 0 1-.646 1.531 4.313 4.313 0 0 1-3.159.992 13.543 13.543 0 0 1-8.116-2.317l-3.03 6.011a21.06 21.06 0 0 0 10.708 2.8l.889-.006a13.363 13.363 0 0 0 8.45-2.672c.127-.1.241-.2.359-.309l-.372 1.919 8.3-.027 1.489-3.812a16.984 16.984 0 0 0 10.345.046L62.6 78.78l14.89.015.036-8.691h3.168c7.659 0 12.186-3.9 12.186-10.434-.007-7.28-4.408-10.45-13.78-10.45zM56.447 69a8.907 8.907 0 0 1-3.14-.55l3.1-9.8h.061l3.054 9.831a9.18 9.18 0 0 1-3.076.519zm23.233-5.638h-2.161v-7.9h2.162c2.879 0 5.179.959 5.179 3.9 0 3.044-2.3 4-5.179 4" fill="#fff"/>
	<path d="M106.4 59.883h4.147c.008.031.01 7.331.01 7.331h7.436V59.88h4.173v18.91h-4.179v-8.07h-7.436v8.069h-4.158c.007-6.201.007-18.906.007-18.906zm37.9 0h4.142l7.984 12.074.016-12.074h3.839v18.911h-3.845c-2.732-4.025-8.3-12.187-8.3-12.187s0 8.181-.007 12.187h-3.828c-.011-6.218-.007-18.91-.007-18.91zm-9.077-.075h-3.971c-.735 2.065-5.2 14.736-6.7 18.983h3.833l1.458-4.214h6.45c.462 1.4.931 2.807 1.391 4.212 1.407.005 2.815 0 4.222 0-1.794-5.082-6.689-18.98-6.689-18.98zm-4.352 11.743c.737-2.109 2.259-6.455 2.259-6.455l2.189 6.459zm42.447-11.743h-3.97c-.735 2.064-5.2 14.736-6.7 18.983h3.834l1.458-4.214h6.45c.461 1.405.931 2.807 1.39 4.213h4.223c-1.796-5.082-6.691-18.981-6.691-18.981zm-4.358 11.745 2.26-6.455 2.189 6.459z" fill="#333"/>
</svg>
