<svg xmlns="http://www.w3.org/2000/svg" width="200" height="128">
    <path fill="#5bb73b" d="M51.36 62.44H20v-7.33h31.36v7.33z"/>
    <path fill="#3d4647" d="M76.56 53.52h-2.94l-6.79 7.02V47.85H64.7v19.89h2.08v-4.5l2.68-2.62 4.96 7.05h2.6l-6.11-8.56 5.65-5.59zM84.43 67.9a6.8 6.8 0 004.11-1.17 6.31 6.31 0 002.34-3.12h-2.34A4.28 4.28 0 0184.43 66 4.7 4.7 0 0181 64.68a5.29 5.29 0 01-1.56-3.26h11.89v-.85a7.35 7.35 0 00-1.88-5.2 7.25 7.25 0 00-10.29 0 7.6 7.6 0 00-1.88 5.2 7.3 7.3 0 002 5.2 6.82 6.82 0 005.15 2.13zM81 56.46a4.48 4.48 0 013.25-1.22 4.85 4.85 0 013.33 1.22 5.14 5.14 0 011.51 3h-9.6a4.84 4.84 0 011.51-3zM106 65.9a7.68 7.68 0 001.9-5.2 7.47 7.47 0 00-1.9-5.2 6.38 6.38 0 00-5-2.14 5.73 5.73 0 00-5 2.47v-2.28h-2.1v19.86H96v-7.9a5.64 5.64 0 005 2.49 6.38 6.38 0 005-2.1zm-8.92-1.56a5.83 5.83 0 01-1.24-3.77 5.6 5.6 0 011.24-3.77 5.06 5.06 0 017.31 0 5.32 5.32 0 011.35 3.77 5.42 5.42 0 01-1.35 3.77 4.71 4.71 0 01-3.67 1.56 4.39 4.39 0 01-3.6-1.56zM122.66 67.67h2.42l4.44-14.1h-2.29l-3.37 11.52-3.59-11.52h-2.34l-3.59 11.52-3.38-11.52h-2.29l4.45 14.1h2.41l3.54-11.29 3.59 11.29zM142.13 55.76a5.64 5.64 0 00-4.94-2.53 6.54 6.54 0 00-5.09 2.14 7.78 7.78 0 00-1.87 5.2 7.46 7.46 0 001.87 5.2 6.38 6.38 0 005 2.13 5.71 5.71 0 005.07-2.47v2.18h2.14V53.47h-2.14zM141 64.44a5.06 5.06 0 01-7.31 0 5.32 5.32 0 01-1.35-3.77 5.42 5.42 0 011.35-3.77 4.67 4.67 0 013.67-1.56A4.39 4.39 0 01141 56.9a5.8 5.8 0 011.24 3.77 5.64 5.64 0 01-1.24 3.77zM152.87 53.75a5.19 5.19 0 00-2.93 3.25v-3.45h-2.14v14.12h2.14v-6.19a6.55 6.55 0 011.37-4.16 4.57 4.57 0 013.69-1.88h.21v-2.13h-.08a5.17 5.17 0 00-2.26.44zM162.73 53.23a6.7 6.7 0 00-5.15 2.14 7.64 7.64 0 00-1.87 5.2 7.3 7.3 0 001.95 5.2 7.57 7.57 0 009.31 1 6.43 6.43 0 002.34-3.12H167a4.29 4.29 0 01-4.14 2.35 4.81 4.81 0 01-3.41-1.32 5.29 5.29 0 01-1.56-3.26h11.86v-.85a7.34 7.34 0 00-1.87-5.2 6.7 6.7 0 00-5.15-2.14zm-4.79 6.24a4.84 4.84 0 011.51-3 4.48 4.48 0 013.25-1.22 4.89 4.89 0 013.3 1.21 5.14 5.14 0 011.51 3zM20 49.65v2.99h31.36v-2.99l-15.71-8.98L20 49.65zM20 67.9l15.65 8.97 15.71-8.97v-2.99H20v2.99zM175.86 55.11a2.9 2.9 0 00-.49-.71 2.19 2.19 0 00-.71-.49 2 2 0 00-.88-.18 2.51 2.51 0 00-.88.18 2.9 2.9 0 00-.71.49 2.57 2.57 0 00-.49.71 2 2 0 00-.18.88 2 2 0 00.18.88 2.9 2.9 0 00.49.71 2.57 2.57 0 00.71.49 2 2 0 00.88.18 2 2 0 00.88-.18 2.9 2.9 0 00.71-.49 2.57 2.57 0 00.49-.71 2.24 2.24 0 000-1.76zm-.31 1.61a2.19 2.19 0 01-.42.62 1.73 1.73 0 01-1.35.57 1.66 1.66 0 01-1.35-.59 2.24 2.24 0 01-.42-.63 1.91 1.91 0 01.42-2.1 1.74 1.74 0 011.35-.58 1.86 1.86 0 011.35.58 2.19 2.19 0 01.42.62 1.9 1.9 0 01.15.75 2 2 0 01-.15.76z"/>
    <path fill="#3d4647" d="M174.74 55.86a.61.61 0 00.13-.39.78.78 0 00-.23-.55 1.24 1.24 0 00-.78-.2h-1.07v2.49h.5v-.91h.62a.43.43 0 01.44.26 1.55 1.55 0 01.05.42v.26h.45v-.31-.24a.67.67 0 00-.44-.6.6.6 0 00.33-.23zm-.47 0a.72.72 0 01-.44.11h-.57v-.8h.55a1 1 0 01.49.1.34.34 0 01.13.29.3.3 0 01-.16.27zM58.75 78.63a1.76 1.76 0 00-.55.09 1.82 1.82 0 00-.48.25l.33-1.56a.23.23 0 000-.19s-.08-.06-.16-.06h-.71a.71.71 0 00-.4.1.58.58 0 00-.18.33.35.35 0 00.05.31.34.34 0 00.29.11H57l-.71 3.3h-.06a.5.5 0 00-.33.11.5.5 0 00-.17.31.35.35 0 000 .32.46.46 0 00.35.1h.58a.44.44 0 00.18 0 .2.2 0 00.08-.12l.06-.26a.76.76 0 00.36.39 1.38 1.38 0 00.61.12 2.13 2.13 0 001.4-.5 2.08 2.08 0 00.78-1.24 1.57 1.57 0 00-.22-1.35 1.37 1.37 0 00-1.16-.56zm.36 1.8a1.34 1.34 0 01-.39.72 1 1 0 01-.69.28.63.63 0 01-.56-.28.93.93 0 01-.09-.72 1.33 1.33 0 01.4-.71 1 1 0 01.68-.28.61.61 0 01.56.28.89.89 0 01.09.71zM64.79 78.63h-.9a.66.66 0 00-.39.09.51.51 0 00-.18.32.37.37 0 000 .32.35.35 0 00.29.1h.06l-1.06 1.63-.34-1.63h.06a.48.48 0 00.33-.1.53.53 0 00.18-.32.34.34 0 000-.31.46.46 0 00-.35-.1h-1a.72.72 0 00-.4.09.55.55 0 00-.09.28.37.37 0 000 .32.34.34 0 00.29.1h.06l.6 2.6-.52.77h-.59a.63.63 0 00-.39.1.48.48 0 00-.18.32.35.35 0 000 .32.46.46 0 00.35.1h1.67a.61.61 0 00.39-.1.51.51 0 00.18-.32.33.33 0 000-.32.46.46 0 00-.35-.1h-.17l2.28-3.37h.06a.53.53 0 00.34-.1.58.58 0 00.17-.32.34.34 0 000-.31.46.46 0 00-.4-.06zM74.43 82.52a9.39 9.39 0 00-1.43-.43 3.64 3.64 0 01-1.34-.47.79.79 0 01-.26-.6.9.9 0 01.37-.71 1.87 1.87 0 011.12-.31 1.78 1.78 0 011.17.32 1.38 1.38 0 01.46 1l.85-.06a2 2 0 00-.32-1.06 2 2 0 00-.88-.71 3.36 3.36 0 00-1.31-.24 3.25 3.25 0 00-1.23.23 1.84 1.84 0 00-.84.67 1.66 1.66 0 00-.29 1 1.6 1.6 0 00.23.84 1.93 1.93 0 00.72.62 6.41 6.41 0 001.29.42 11.81 11.81 0 011.19.32 1.32 1.32 0 01.61.4.89.89 0 01.18.55.91.91 0 01-.19.57 1.23 1.23 0 01-.58.42 2.44 2.44 0 01-.89.15 2.59 2.59 0 01-1-.2 1.54 1.54 0 01-.68-.52 1.94 1.94 0 01-.27-.83l-.84.08a2.26 2.26 0 00.37 1.2 2.1 2.1 0 001 .8 3.82 3.82 0 001.53.26 3 3 0 001.29-.26 2 2 0 00.88-.74 1.84 1.84 0 00.31-1 1.74 1.74 0 00-.28-1 2.12 2.12 0 00-.94-.71zM83.21 85a2 2 0 01-1.21.4 2.17 2.17 0 01-1.14-.31 1.9 1.9 0 01-.78-1 4.29 4.29 0 01-.24-1.5 4 4 0 01.16-1.23 2 2 0 01.72-1A2.24 2.24 0 0182 80a1.75 1.75 0 011.11.34 2 2 0 01.68 1.06l.87-.2a2.68 2.68 0 00-1-1.44 2.73 2.73 0 00-1.7-.52 3.3 3.3 0 00-1.62.41 2.77 2.77 0 00-1.14 1.18 3.92 3.92 0 00-.4 1.83 4.52 4.52 0 00.36 1.8 2.72 2.72 0 001 1.27 3.13 3.13 0 001.76.44 2.76 2.76 0 001.77-.57 3 3 0 001-1.67l-.89-.22a2.25 2.25 0 01-.59 1.29zM90.07 79.35l-2.58 6.7h.94l.74-2H92l.78 2h1L91 79.35zm-.64 4l.73-2a7.41 7.41 0 00.36-1.28c.11.37.26.83.48 1.39l.7 1.86zM101.3 79.92a2.35 2.35 0 00-1-.48 5.91 5.91 0 00-1.19-.09h-2.3v6.7h2.42a5.05 5.05 0 001.08-.11 2.27 2.27 0 001.41-1 3.5 3.5 0 00.45-1 4.72 4.72 0 00.18-1.36 4.61 4.61 0 00-.26-1.59 2.79 2.79 0 00-.79-1.07zm0 4a2.19 2.19 0 01-.49.85 1.59 1.59 0 01-.6.35 3.57 3.57 0 01-1 .12H97.7v-5.1h1.41a3.44 3.44 0 011.14.14 1.71 1.71 0 01.84.75 3.14 3.14 0 01.35 1.62 4.1 4.1 0 01-.18 1.29zM107.75 79.35l-2.57 6.7h.94l.73-2h2.81l.78 2h1l-2.75-6.7zm-.64 4l.74-2a9.76 9.76 0 00.36-1.28c.1.37.26.83.47 1.39l.7 1.86zM122.49 84l-.36 1.07c-.06-.21-.17-.55-.32-1l-1.58-4.74h-1.34v6.7h.86v-5.7l1.94 5.7h.8l1.94-5.61v5.61h.86v-6.7h-1.2zM133.67 79.67a3.25 3.25 0 00-1.67-.44 3.05 3.05 0 00-2.32.94 3.68 3.68 0 00-.89 2.62 3.88 3.88 0 00.38 1.67 3 3 0 001.13 1.25 3.21 3.21 0 001.69.45 3.26 3.26 0 001.63-.41 2.87 2.87 0 001.17-1.22 4 4 0 00.41-1.82 4 4 0 00-.39-1.8 2.91 2.91 0 00-1.14-1.24zm0 5a2.13 2.13 0 01-1.65.7 2.17 2.17 0 01-1.64-.69 2.71 2.71 0 01-.65-1.91 2.9 2.9 0 01.68-2.16 2.32 2.32 0 012.82-.31 2.17 2.17 0 01.81 1 3.46 3.46 0 01.27 1.42 2.84 2.84 0 01-.67 1.98zM143.16 79.92a2.25 2.25 0 00-1-.48 5.91 5.91 0 00-1.19-.09h-2.31v6.7h2.42a4.89 4.89 0 001.07-.11 2.44 2.44 0 00.8-.34 2.21 2.21 0 00.61-.61 3.24 3.24 0 00.46-1 4.72 4.72 0 00.18-1.36 4.61 4.61 0 00-.26-1.59 2.72 2.72 0 00-.78-1.12zm0 4a2.19 2.19 0 01-.49.85 1.59 1.59 0 01-.6.35 3.57 3.57 0 01-1 .12h-1.43v-5.1H141a3.51 3.51 0 011.15.14 1.71 1.71 0 01.85.72 3.14 3.14 0 01.35 1.62 4.1 4.1 0 01-.22 1.32zM151.67 82.52a9.75 9.75 0 00-1.48-.43 3.64 3.64 0 01-1.34-.47.79.79 0 01-.26-.6.87.87 0 01.37-.71 1.83 1.83 0 011.17-.29 1.79 1.79 0 011.17.32 1.38 1.38 0 01.46 1l.85-.06a1.93 1.93 0 00-.33-1.06 1.87 1.87 0 00-.87-.71 3.38 3.38 0 00-1.32-.24 3.25 3.25 0 00-1.23.23 1.89 1.89 0 00-.84.67 1.74 1.74 0 00-.29 1 1.53 1.53 0 00.24.84 1.93 1.93 0 00.72.62A6 6 0 00150 83c.61.15 1 .25 1.19.32a1.44 1.44 0 01.61.4.89.89 0 01.18.55.91.91 0 01-.19.57 1.23 1.23 0 01-.58.42 2.5 2.5 0 01-.9.15 2.54 2.54 0 01-1-.2 1.54 1.54 0 01-.68-.52 1.94 1.94 0 01-.27-.83l-.84.08a2.18 2.18 0 00.37 1.2 2.1 2.1 0 001 .8 3.82 3.82 0 001.53.26 3 3 0 001.29-.26 2 2 0 00.88-.74 1.83 1.83 0 00.3-1 1.67 1.67 0 00-.28-1 2 2 0 00-.94-.68z"/>
    <path d="M168.02 77.39l-1.12-.15-.95-2.05.64-1 1.43 3.2z"/>
    <path d="M174.08 81.21l-2.08-3-5.26-.72-1.82-4-2.08 5 .52 1.24a40.52 40.52 0 00-4 7.27h4.8l3.55 4.24 2.45-3.93-1.76-.49a67.79 67.79 0 008.17-.35c1.88-.41 3.44-3.76 3.44-3.76zm-9-5.63l-1 2.63.38.51-.64.64-.49-.9 1.64-3.92 1.36 3zm4.83 5.28l-.44-.86-.46-.41 1.82.23 1 1.33z"/>
</svg>
