<svg xmlns="http://www.w3.org/2000/svg" width="200" height="128">
	<path fill="#5bb73b" d="M51.36 62.44H20v-7.33h31.36v7.33z"/>
	<path fill="#3d4647" d="M76.56 53.52h-2.94l-6.79 7.02V47.85H64.7v19.89h2.08v-4.5l2.68-2.62 4.96 7.05h2.6l-6.11-8.56 5.65-5.59zm7.87 14.38a6.8 6.8 0 0 0 4.11-1.17 6.31 6.31 0 0 0 2.34-3.12h-2.34A4.28 4.28 0 0 1 84.43 66 4.7 4.7 0 0 1 81 64.68a5.29 5.29 0 0 1-1.56-3.26h11.89v-.85a7.35 7.35 0 0 0-1.88-5.2 7.25 7.25 0 0 0-10.29 0 7.6 7.6 0 0 0-1.88 5.2 7.3 7.3 0 0 0 2 5.2 6.82 6.82 0 0 0 5.15 2.13zM81 56.46a4.48 4.48 0 0 1 3.25-1.22 4.85 4.85 0 0 1 3.33 1.22 5.14 5.14 0 0 1 1.51 3h-9.6a4.84 4.84 0 0 1 1.51-3zm25 9.44a7.68 7.68 0 0 0 1.9-5.2 7.47 7.47 0 0 0-1.9-5.2 6.38 6.38 0 0 0-5-2.14 5.73 5.73 0 0 0-5 2.47v-2.28h-2.1v19.86H96v-7.9a5.64 5.64 0 0 0 5 2.49 6.38 6.38 0 0 0 5-2.1zm-8.92-1.56a5.83 5.83 0 0 1-1.24-3.77 5.6 5.6 0 0 1 1.24-3.77 5.06 5.06 0 0 1 7.31 0 5.32 5.32 0 0 1 1.35 3.77 5.42 5.42 0 0 1-1.35 3.77 4.71 4.71 0 0 1-3.67 1.56 4.39 4.39 0 0 1-3.6-1.56zm25.58 3.33h2.42l4.44-14.1h-2.29l-3.37 11.52-3.59-11.52h-2.34l-3.59 11.52-3.38-11.52h-2.29l4.45 14.1h2.41l3.54-11.29 3.59 11.29zm19.47-11.91a5.64 5.64 0 0 0-4.94-2.53 6.54 6.54 0 0 0-5.09 2.14 7.78 7.78 0 0 0-1.87 5.2 7.46 7.46 0 0 0 1.87 5.2 6.38 6.38 0 0 0 5 2.13 5.71 5.71 0 0 0 5.07-2.47v2.18h2.14V53.47h-2.14zM141 64.44a5.06 5.06 0 0 1-7.31 0 5.32 5.32 0 0 1-1.35-3.77 5.42 5.42 0 0 1 1.35-3.77 4.67 4.67 0 0 1 3.67-1.56A4.39 4.39 0 0 1 141 56.9a5.8 5.8 0 0 1 1.24 3.77 5.64 5.64 0 0 1-1.24 3.77zm11.87-10.69a5.19 5.19 0 0 0-2.93 3.25v-3.45h-2.14v14.12h2.14v-6.19a6.55 6.55 0 0 1 1.37-4.16 4.57 4.57 0 0 1 3.69-1.88h.21v-2.13h-.08a5.17 5.17 0 0 0-2.26.44zm9.86-.52a6.7 6.7 0 0 0-5.15 2.14 7.64 7.64 0 0 0-1.87 5.2 7.3 7.3 0 0 0 1.95 5.2 7.57 7.57 0 0 0 9.31 1 6.43 6.43 0 0 0 2.34-3.12H167a4.29 4.29 0 0 1-4.14 2.35 4.81 4.81 0 0 1-3.41-1.32 5.29 5.29 0 0 1-1.56-3.26h11.86v-.85a7.34 7.34 0 0 0-1.87-5.2 6.7 6.7 0 0 0-5.15-2.14zm-4.79 6.24a4.84 4.84 0 0 1 1.51-3 4.48 4.48 0 0 1 3.25-1.22 4.89 4.89 0 0 1 3.3 1.21 5.14 5.14 0 0 1 1.51 3zM20 49.65v2.99h31.36v-2.99l-15.71-8.98L20 49.65zm0 18.25 15.65 8.97 15.71-8.97v-2.99H20v2.99zm155.86-12.79a2.9 2.9 0 0 0-.49-.71 2.19 2.19 0 0 0-.71-.49 2 2 0 0 0-.88-.18 2.51 2.51 0 0 0-.88.18 2.9 2.9 0 0 0-.71.49 2.57 2.57 0 0 0-.49.71 2 2 0 0 0-.18.88 2 2 0 0 0 .18.88 2.9 2.9 0 0 0 .49.71 2.57 2.57 0 0 0 .71.49 2 2 0 0 0 .88.18 2 2 0 0 0 .88-.18 2.9 2.9 0 0 0 .71-.49 2.57 2.57 0 0 0 .49-.71 2.24 2.24 0 0 0 0-1.76zm-.31 1.61a2.19 2.19 0 0 1-.42.62 1.73 1.73 0 0 1-1.35.57 1.66 1.66 0 0 1-1.35-.59 2.24 2.24 0 0 1-.42-.63 1.91 1.91 0 0 1 .42-2.1 1.74 1.74 0 0 1 1.35-.58 1.86 1.86 0 0 1 1.35.58 2.19 2.19 0 0 1 .42.62 1.9 1.9 0 0 1 .15.75 2 2 0 0 1-.15.76z"/>
	<path fill="#3d4647" d="M174.74 55.86a.61.61 0 0 0 .13-.39.78.78 0 0 0-.23-.55 1.24 1.24 0 0 0-.78-.2h-1.07v2.49h.5v-.91h.62a.43.43 0 0 1 .44.26 1.55 1.55 0 0 1 .05.42v.26h.45v-.55a.67.67 0 0 0-.44-.6.6.6 0 0 0 .33-.23zm-.47 0a.72.72 0 0 1-.44.11h-.57v-.8h.55a1 1 0 0 1 .49.1.34.34 0 0 1 .13.29.3.3 0 0 1-.16.27zM58.75 78.63a1.76 1.76 0 0 0-.55.09 1.82 1.82 0 0 0-.48.25l.33-1.56a.23.23 0 0 0 0-.19s-.08-.06-.16-.06h-.71a.71.71 0 0 0-.4.1.58.58 0 0 0-.18.33.35.35 0 0 0 .05.31.34.34 0 0 0 .29.11H57l-.71 3.3h-.06a.5.5 0 0 0-.33.11.5.5 0 0 0-.17.31.35.35 0 0 0 0 .32.46.46 0 0 0 .35.1h.58a.44.44 0 0 0 .18 0 .2.2 0 0 0 .08-.12l.06-.26a.76.76 0 0 0 .36.39 1.38 1.38 0 0 0 .61.12 2.13 2.13 0 0 0 1.4-.5 2.08 2.08 0 0 0 .78-1.24 1.57 1.57 0 0 0-.22-1.35 1.37 1.37 0 0 0-1.16-.56zm.36 1.8a1.34 1.34 0 0 1-.39.72 1 1 0 0 1-.69.28.63.63 0 0 1-.56-.28.93.93 0 0 1-.09-.72 1.33 1.33 0 0 1 .4-.71 1 1 0 0 1 .68-.28.61.61 0 0 1 .56.28.89.89 0 0 1 .09.71zm5.68-1.8h-.9a.66.66 0 0 0-.39.09.51.51 0 0 0-.18.32.37.37 0 0 0 0 .32.35.35 0 0 0 .29.1h.06l-1.06 1.63-.34-1.63h.06a.48.48 0 0 0 .33-.1.53.53 0 0 0 .18-.32.34.34 0 0 0 0-.31.46.46 0 0 0-.35-.1h-1a.72.72 0 0 0-.4.09.55.55 0 0 0-.09.28.37.37 0 0 0 0 .32.34.34 0 0 0 .29.1h.06l.6 2.6-.52.77h-.59a.63.63 0 0 0-.39.1.48.48 0 0 0-.18.32.35.35 0 0 0 0 .32.46.46 0 0 0 .35.1h1.67a.61.61 0 0 0 .39-.1.51.51 0 0 0 .18-.32.33.33 0 0 0 0-.32.46.46 0 0 0-.35-.1h-.17l2.28-3.37h.06a.53.53 0 0 0 .34-.1.58.58 0 0 0 .17-.32.34.34 0 0 0 0-.31.46.46 0 0 0-.4-.06zm9.64 3.89a9.39 9.39 0 0 0-1.43-.43 3.64 3.64 0 0 1-1.34-.47.79.79 0 0 1-.26-.6.9.9 0 0 1 .37-.71 1.87 1.87 0 0 1 1.12-.31 1.78 1.78 0 0 1 1.17.32 1.38 1.38 0 0 1 .46 1l.85-.06a2 2 0 0 0-.32-1.06 2 2 0 0 0-.88-.71 3.36 3.36 0 0 0-1.31-.24 3.25 3.25 0 0 0-1.23.23 1.84 1.84 0 0 0-.84.67 1.66 1.66 0 0 0-.29 1 1.6 1.6 0 0 0 .23.84 1.93 1.93 0 0 0 .72.62 6.41 6.41 0 0 0 1.29.42 11.81 11.81 0 0 1 1.19.32 1.32 1.32 0 0 1 .61.4.89.89 0 0 1 .18.55.91.91 0 0 1-.19.57 1.23 1.23 0 0 1-.58.42 2.44 2.44 0 0 1-.89.15 2.59 2.59 0 0 1-1-.2 1.54 1.54 0 0 1-.68-.52 1.94 1.94 0 0 1-.27-.83l-.84.08a2.26 2.26 0 0 0 .37 1.2 2.1 2.1 0 0 0 1 .8 3.82 3.82 0 0 0 1.53.26 3 3 0 0 0 1.29-.26 2 2 0 0 0 .88-.74 1.84 1.84 0 0 0 .31-1 1.74 1.74 0 0 0-.28-1 2.12 2.12 0 0 0-.94-.71zM83.21 85a2 2 0 0 1-1.21.4 2.17 2.17 0 0 1-1.14-.31 1.9 1.9 0 0 1-.78-1 4.29 4.29 0 0 1-.24-1.5 4 4 0 0 1 .16-1.23 2 2 0 0 1 .72-1A2.24 2.24 0 0 1 82 80a1.75 1.75 0 0 1 1.11.34 2 2 0 0 1 .68 1.06l.87-.2a2.68 2.68 0 0 0-1-1.44 2.73 2.73 0 0 0-1.7-.52 3.3 3.3 0 0 0-1.62.41 2.77 2.77 0 0 0-1.14 1.18 3.92 3.92 0 0 0-.4 1.83 4.52 4.52 0 0 0 .36 1.8 2.72 2.72 0 0 0 1 1.27 3.13 3.13 0 0 0 1.76.44 2.76 2.76 0 0 0 1.77-.57 3 3 0 0 0 1-1.67l-.89-.22a2.25 2.25 0 0 1-.59 1.29zm6.86-5.65-2.58 6.7h.94l.74-2H92l.78 2h1L91 79.35zm-.64 4 .73-2a7.41 7.41 0 0 0 .36-1.28c.11.37.26.83.48 1.39l.7 1.86zm11.87-3.43a2.35 2.35 0 0 0-1-.48 5.91 5.91 0 0 0-1.19-.09h-2.3v6.7h2.42a5.05 5.05 0 0 0 1.08-.11 2.27 2.27 0 0 0 1.41-1 3.5 3.5 0 0 0 .45-1 4.72 4.72 0 0 0 .18-1.36 4.61 4.61 0 0 0-.26-1.59 2.79 2.79 0 0 0-.79-1.07zm0 4a2.19 2.19 0 0 1-.49.85 1.59 1.59 0 0 1-.6.35 3.57 3.57 0 0 1-1 .12H97.7v-5.1h1.41a3.44 3.44 0 0 1 1.14.14 1.71 1.71 0 0 1 .84.75 3.14 3.14 0 0 1 .35 1.62 4.1 4.1 0 0 1-.18 1.29zm6.45-4.57-2.57 6.7h.94l.73-2h2.81l.78 2h1l-2.75-6.7zm-.64 4 .74-2a9.76 9.76 0 0 0 .36-1.28c.1.37.26.83.47 1.39l.7 1.86zm15.38.65-.36 1.07c-.06-.21-.17-.55-.32-1l-1.58-4.74h-1.34v6.7h.86v-5.7l1.94 5.7h.8l1.94-5.61v5.61h.86v-6.7h-1.2zm11.18-4.33a3.25 3.25 0 0 0-1.67-.44 3.05 3.05 0 0 0-2.32.94 3.68 3.68 0 0 0-.89 2.62 3.88 3.88 0 0 0 .38 1.67 3 3 0 0 0 1.13 1.25 3.21 3.21 0 0 0 1.69.45 3.26 3.26 0 0 0 1.63-.41 2.87 2.87 0 0 0 1.17-1.22 4 4 0 0 0 .41-1.82 4 4 0 0 0-.39-1.8 2.91 2.91 0 0 0-1.14-1.24zm0 5a2.13 2.13 0 0 1-1.65.7 2.17 2.17 0 0 1-1.64-.69 2.71 2.71 0 0 1-.65-1.91 2.9 2.9 0 0 1 .68-2.16 2.32 2.32 0 0 1 2.82-.31 2.17 2.17 0 0 1 .81 1 3.46 3.46 0 0 1 .27 1.42 2.84 2.84 0 0 1-.67 1.98zm9.49-4.75a2.25 2.25 0 0 0-1-.48 5.91 5.91 0 0 0-1.19-.09h-2.31v6.7h2.42a4.89 4.89 0 0 0 1.07-.11 2.44 2.44 0 0 0 .8-.34 2.21 2.21 0 0 0 .61-.61 3.24 3.24 0 0 0 .46-1 4.72 4.72 0 0 0 .18-1.36 4.61 4.61 0 0 0-.26-1.59 2.72 2.72 0 0 0-.78-1.12zm0 4a2.19 2.19 0 0 1-.49.85 1.59 1.59 0 0 1-.6.35 3.57 3.57 0 0 1-1 .12h-1.43v-5.1H141a3.51 3.51 0 0 1 1.15.14 1.71 1.71 0 0 1 .85.72 3.14 3.14 0 0 1 .35 1.62 4.1 4.1 0 0 1-.22 1.32zm8.51-1.4a9.75 9.75 0 0 0-1.48-.43 3.64 3.64 0 0 1-1.34-.47.79.79 0 0 1-.26-.6.87.87 0 0 1 .37-.71 1.83 1.83 0 0 1 1.17-.29 1.79 1.79 0 0 1 1.17.32 1.38 1.38 0 0 1 .46 1l.85-.06a1.93 1.93 0 0 0-.33-1.06 1.87 1.87 0 0 0-.87-.71 3.38 3.38 0 0 0-1.32-.24 3.25 3.25 0 0 0-1.23.23 1.89 1.89 0 0 0-.84.67 1.74 1.74 0 0 0-.29 1 1.53 1.53 0 0 0 .24.84 1.93 1.93 0 0 0 .72.62A6 6 0 0 0 150 83c.61.15 1 .25 1.19.32a1.44 1.44 0 0 1 .61.4.89.89 0 0 1 .18.55.91.91 0 0 1-.19.57 1.23 1.23 0 0 1-.58.42 2.5 2.5 0 0 1-.9.15 2.54 2.54 0 0 1-1-.2 1.54 1.54 0 0 1-.68-.52 1.94 1.94 0 0 1-.27-.83l-.84.08a2.18 2.18 0 0 0 .37 1.2 2.1 2.1 0 0 0 1 .8 3.82 3.82 0 0 0 1.53.26 3 3 0 0 0 1.29-.26 2 2 0 0 0 .88-.74 1.83 1.83 0 0 0 .3-1 1.67 1.67 0 0 0-.28-1 2 2 0 0 0-.94-.68z"/>
	<path d="m168.02 77.39-1.12-.15-.95-2.05.64-1 1.43 3.2z"/>
	<path d="m174.08 81.21-2.08-3-5.26-.72-1.82-4-2.08 5 .52 1.24a40.52 40.52 0 0 0-4 7.27h4.8l3.55 4.24 2.45-3.93-1.76-.49a67.79 67.79 0 0 0 8.17-.35c1.88-.41 3.44-3.76 3.44-3.76zm-9-5.63-1 2.63.38.51-.64.64-.49-.9 1.64-3.92 1.36 3zm4.83 5.28-.44-.86-.46-.41 1.82.23 1 1.33z"/>
</svg>
