<svg xmlns="http://www.w3.org/2000/svg" viewBox="-8.12 -7.62 411.48 434.98">
	<path fill="#326DE6" d="M16.247 419.24c-4.687 0-8.485-1.454-11.392-4.361-2.848-2.967-4.272-6.823-4.272-11.57v-2.314c0-.593.297-.89.89-.89H8.06c.593 0 .89.297.89.89v1.869c0 2.729.682 4.925 2.047 6.586 1.365 1.602 3.115 2.403 5.251 2.403s3.887-.771 5.251-2.314c1.424-1.602 2.136-3.679 2.136-6.23 0-1.721-.386-3.234-1.157-4.539-.712-1.305-1.69-2.462-2.937-3.471-1.186-1.068-3.145-2.611-5.874-4.628-3.026-2.255-5.4-4.183-7.12-5.785-1.72-1.602-3.174-3.53-4.36-5.785-1.188-2.255-1.78-4.895-1.78-7.921 0-4.806 1.423-8.603 4.271-11.392 2.848-2.848 6.556-4.272 11.125-4.272 4.747 0 8.544 1.513 11.392 4.539 2.908 3.026 4.361 7.001 4.361 11.926v2.225c0 .593-.296.89-.89.89H24.08c-.593 0-.89-.297-.89-.89v-2.403c0-2.67-.682-4.806-2.047-6.408-1.364-1.661-3.145-2.492-5.34-2.492-2.076 0-3.768.742-5.073 2.225-1.305 1.424-1.958 3.441-1.958 6.052 0 2.373.653 4.391 1.958 6.052 1.306 1.602 3.827 3.768 7.565 6.497 3.56 2.67 6.23 4.836 8.01 6.497 1.84 1.661 3.234 3.501 4.183 5.518 1.009 1.958 1.513 4.302 1.513 7.031 0 4.984-1.453 8.989-4.36 12.015-2.908 2.967-6.706 4.45-11.393 4.45zm38.696 0c-4.806 0-8.693-1.454-11.66-4.361-2.907-2.967-4.36-6.883-4.36-11.748v-31.595c0-4.865 1.453-8.752 4.36-11.659 2.967-2.907 6.854-4.361 11.66-4.361 4.865 0 8.751 1.454 11.659 4.361 2.966 2.907 4.45 6.794 4.45 11.659v1.424c0 .593-.297.89-.89.89l-6.764.356c-.594 0-.89-.297-.89-.89v-2.314c0-2.433-.712-4.391-2.136-5.874-1.365-1.483-3.175-2.225-5.43-2.225-2.254 0-4.064.742-5.428 2.225-1.365 1.483-2.047 3.441-2.047 5.874v32.752c0 2.433.682 4.391 2.047 5.874 1.364 1.483 3.174 2.225 5.429 2.225 2.254 0 4.064-.742 5.429-2.225 1.424-1.483 2.136-3.441 2.136-5.874v-2.314c0-.593.296-.89.89-.89l6.764.356c.593 0 .89.297.89.89v1.335c0 4.865-1.484 8.781-4.45 11.748-2.908 2.907-6.794 4.361-11.66 4.361zm47.717-62.122c0-.593.297-.89.89-.89h6.764c.593 0 .89.297.89.89v60.52c0 .593-.297.89-.89.89h-6.764c-.593 0-.89-.297-.89-.89v-26.255c0-.237-.119-.356-.356-.356h-13.44c-.236 0-.355.119-.355.356v26.255c0 .593-.297.89-.89.89h-6.764c-.593 0-.89-.297-.89-.89v-60.52c0-.593.297-.89.89-.89h6.764c.593 0 .89.297.89.89v26.166c0 .237.119.356.356.356h13.439c.237 0 .356-.119.356-.356v-26.166zm48.394 5.607c0 .593-.297.89-.89.89h-20.025c-.238 0-.356.119-.356.356v19.313c0 .237.118.356.356.356h12.282c.593 0 .89.297.89.89v5.607c0 .593-.297.89-.89.89h-12.282c-.238 0-.356.119-.356.356v19.402c0 .237.118.356.356.356h20.025c.593 0 .89.297.89.89v5.607c0 .593-.297.89-.89.89h-28.035c-.594 0-.89-.297-.89-.89v-60.52c0-.593.296-.89.89-.89h28.035c.593 0 .89.297.89.89v5.607zm35.835-5.874c.237-.415.593-.623 1.068-.623h6.764c.593 0 .89.297.89.89v60.52c0 .593-.297.89-.89.89h-6.764c-.594 0-.89-.297-.89-.89v-44.144c0-.178-.06-.267-.178-.267-.06 0-.149.059-.267.178l-8.544 15.931c-.178.415-.445.623-.801.623-.356 0-.623-.208-.801-.623l-8.455-15.842c-.119-.119-.238-.178-.356-.178-.06 0-.089.089-.089.267v44.055c0 .593-.297.89-.89.89h-6.764c-.594 0-.89-.297-.89-.89v-60.52c0-.593.296-.89.89-.89h6.764c.415 0 .771.208 1.068.623l9.345 16.732c.059.059.148.089.267.089.118 0 .207-.03.267-.089l9.256-16.732zm43.456 61.677c-.534 0-.86-.267-.979-.801l-1.958-10.235c0-.119-.059-.208-.178-.267-.059-.059-.148-.089-.267-.089h-14.507a.794.794 0 0 0-.356.089c-.059.059-.089.148-.089.267l-1.869 10.235c-.059.534-.386.801-.979.801h-6.764c-.297 0-.534-.089-.712-.267-.119-.178-.148-.415-.089-.712l13.261-60.52c.119-.534.445-.801.979-.801h7.921c.593 0 .92.267.979.801l13.35 60.52v.178c0 .534-.267.801-.801.801h-6.942zm-16.821-18.512c0 .237.089.356.267.356h11.837c.178 0 .267-.119.267-.356l-6.052-31.595c-.059-.119-.119-.178-.178-.178s-.119.059-.178.178l-5.963 31.595z"/>
	<path fill="#1D4493" d="M267.371 357.118c0-.593.296-.89.89-.89h6.764c.593 0 .89.297.89.89v60.52c0 .593-.297.89-.89.89h-6.764c-.594 0-.89-.297-.89-.89v-26.255c0-.237-.119-.356-.356-.356h-13.439c-.238 0-.356.119-.356.356v26.255c0 .593-.297.89-.89.89h-6.764c-.594 0-.89-.297-.89-.89v-60.52c0-.593.296-.89.89-.89h6.764c.593 0 .89.297.89.89v26.166c0 .237.118.356.356.356h13.439c.237 0 .356-.119.356-.356v-26.166zm48.393 5.607c0 .593-.296.89-.89.89h-20.025c-.237 0-.356.119-.356.356v19.313c0 .237.119.356.356.356h12.282c.594 0 .89.297.89.89v5.607c0 .593-.296.89-.89.89h-12.282c-.237 0-.356.119-.356.356v19.402c0 .237.119.356.356.356h20.025c.594 0 .89.297.89.89v5.607c0 .593-.296.89-.89.89h-28.035c-.593 0-.89-.297-.89-.89v-60.52c0-.593.297-.89.89-.89h28.035c.594 0 .89.297.89.89v5.607zm32.898 55.803c-.534 0-.89-.237-1.068-.712l-8.188-26.522c-.059-.178-.178-.267-.356-.267h-6.23c-.237 0-.356.119-.356.356v26.255c0 .593-.296.89-.89.89h-6.764c-.593 0-.89-.297-.89-.89v-60.52c0-.593.297-.89.89-.89h15.931c3.026 0 5.696.742 8.01 2.225s4.094 3.59 5.34 6.319c1.306 2.67 1.958 5.726 1.958 9.167 0 3.738-.771 7.001-2.314 9.79-1.542 2.729-3.649 4.717-6.319 5.963-.178.178-.237.356-.178.534l9.078 27.323.089.356c0 .415-.267.623-.801.623h-6.942zm-15.842-54.913c-.237 0-.356.119-.356.356v19.936c0 .237.119.356.356.356h6.586c2.433 0 4.391-.92 5.874-2.759 1.484-1.899 2.225-4.391 2.225-7.476 0-3.204-.741-5.726-2.225-7.565-1.483-1.899-3.441-2.848-5.874-2.848h-6.586zm45.936 55.625c-4.866 0-8.782-1.483-11.748-4.45-2.967-2.967-4.45-6.912-4.45-11.837v-31.061c0-4.925 1.483-8.87 4.45-11.837 2.966-3.026 6.882-4.539 11.748-4.539 4.924 0 8.87 1.513 11.837 4.539 3.026 2.967 4.539 6.912 4.539 11.837v31.061c0 4.925-1.513 8.87-4.539 11.837-2.967 2.967-6.913 4.45-11.837 4.45zm0-7.387c2.373 0 4.272-.771 5.696-2.314 1.424-1.602 2.136-3.679 2.136-6.23v-31.862c0-2.551-.712-4.598-2.136-6.141-1.424-1.602-3.323-2.403-5.696-2.403-2.314 0-4.183.801-5.607 2.403-1.365 1.543-2.047 3.59-2.047 6.141v31.862c0 2.551.682 4.628 2.047 6.23 1.424 1.543 3.293 2.314 5.607 2.314z"/>
	<path fill="#326DE6" fill-rule="evenodd" d="M197.381 20.29a5.716 5.716 0 0 0-5.136 0L86.308 73.566a5.718 5.718 0 0 0-3.007 3.844L57.534 191.043a5.72 5.72 0 0 0 1.1 4.823l72.551 91.296a5.719 5.719 0 0 0 4.475 2.16h118.306c1.743 0 3.39-.796 4.475-2.16l72.551-91.296a5.721 5.721 0 0 0 1.1-4.823L306.325 77.409a5.718 5.718 0 0 0-3.007-3.844L197.381 20.291ZM187.11 10.075a17.144 17.144 0 0 1 15.406 0l105.938 53.274a17.153 17.153 0 0 1 9.021 11.531l25.767 113.635a17.16 17.16 0 0 1-3.3 14.468l-72.551 91.296a17.146 17.146 0 0 1-13.425 6.479H135.66a17.149 17.149 0 0 1-13.425-6.479l-72.55-91.296a17.158 17.158 0 0 1-3.3-14.468L72.15 74.879a17.153 17.153 0 0 1 9.021-11.531L187.11 10.074Z" clip-rule="evenodd"/>
	<path fill="#326DE6" fill-rule="evenodd" d="m201.144 14.478 36.276 170.874L75.143 79.542l6.243-9.58 139.104 90.701-30.529-143.81 11.183-2.375Z" clip-rule="evenodd"/>
	<path fill="#326DE6" fill-rule="evenodd" d="M331.342 198.481 227.577 177.07l2.177-11.212 103.765 21.412-2.177 11.211Z" clip-rule="evenodd"/>
	<path fill="#326DE6" fill-rule="evenodd" d="m232.87 175.078-96.73 118.6-8.859-7.229 96.73-118.6 8.859 7.229Z" clip-rule="evenodd"/>
	<path fill="#326DE6" fill-rule="evenodd" d="M126.163 290.969 72.717 76.132l11.095-2.762 53.445 214.838-11.094 2.761zm200.321-87.121-179.117 87.121-4.239-9.436 179.117-87.121 4.239 9.436z" clip-rule="evenodd"/>
	<path fill="#1D4493" d="M249.512 167.849c0 12.282-9.954 22.238-22.233 22.238s-22.232-9.956-22.232-22.238 9.953-22.238 22.232-22.238 22.233 9.956 22.233 22.238zm99.466 26.563c0 8.375-6.788 15.164-15.161 15.164s-15.16-6.789-15.16-15.164 6.787-15.164 15.16-15.164c8.373 0 15.161 6.789 15.161 15.164zm-197.404 93.307c0 10.267-8.321 18.591-18.585 18.591-10.265 0-18.586-8.324-18.586-18.591 0-10.267 8.321-18.59 18.586-18.59 10.264 0 18.585 8.323 18.585 18.59zM92.666 74.75c0 7.957-6.448 14.406-14.402 14.406-7.954 0-14.402-6.45-14.402-14.406 0-7.955 6.448-14.405 14.402-14.405 7.954 0 14.402 6.45 14.402 14.406zm115.668-60.272c0 7.47-6.053 13.525-13.521 13.525-7.467 0-13.521-6.055-13.521-13.525 0-7.47 6.054-13.524 13.521-13.524 7.468 0 13.521 6.055 13.521 13.524z"/>
</svg>
