<svg xmlns="http://www.w3.org/2000/svg" viewBox="-1.95 -2.45 192.14 61.64">
	<defs>
		<clipPath id="a">
			<path d="M409.441 126.252v-43.63h147.796v43.63"/>
		</clipPath>
		<clipPath id="b">
			<path d="M409.441 126.252v-43.63h147.796v43.63"/>
		</clipPath>
	</defs>
	<path fill="#009e4d" d="M22.852 9.168c-4.224-1.875-6.742-2.603-9.244-2.603-2.625 0-4.306.94-4.306 2.393 0 4.383 14.871 3.15 14.871 13.29 0 5.59-4.691 8.84-11.208 8.84-5.113 0-7.63-1.323-10.53-2.82v-6.273c4.182 2.771 6.742 3.75 9.968 3.75 2.798 0 4.306-.979 4.306-2.685 0-4.774-14.87-3.025-14.87-13.466 0-5.035 4.35-8.369 11.125-8.369 3.27 0 6.22.686 9.888 2.264v5.679m20.821 20.587c-2.478.899-4.575 1.327-6.666 1.327-6.926 0-11.404-4.033-11.404-10.17 0-6.026 4.652-10.282 11.147-10.282 2.006 0 4.57.514 6.622 1.277v4.613c-1.624-.863-3.504-1.335-5.042-1.335-3.718 0-6.11 2.234-6.11 5.681 0 3.497 2.352 5.798 5.895 5.798 1.495 0 2.823-.343 5.558-1.367v4.458m54-11.104c.254-2.737 1.844-4.32 4.279-4.32 2.394 0 4.016 1.628 4.273 4.32h-8.552zm3.852-8.015c-6.078 0-10.404 4.293-10.404 10.333 0 6.085 4.499 10.113 11.432 10.113 1.537 0 5.252 0 8.79-2.618v-3.851c-2.898 2.065-4.816 2.776-7.291 2.776-3.906 0-6.295-2.021-6.511-5.471h14.151c.294-7.202-4.434-11.282-10.168-11.282m12.562 20.088h6.187V11h-6.187v19.724zm23.406-5.392c-1.289 1.16-2.36 1.625-3.681 1.625-2.914 0-4.758-2.397-4.758-5.99 0-3.938 1.844-6.208 4.963-6.208 1.116 0 2.574.513 3.476 1.157v9.416zm0-23.743v10.276c-1.671-.809-3.337-1.235-5.139-1.235-5.644 0-9.549 4.171-9.549 10.207 0 5.907 3.906 10.25 9.2 10.25 2.1 0 3.723-.55 5.488-1.957v1.587h6.186V1.59h-6.186m15.345 17.062c.258-2.737 1.839-4.32 4.27-4.32 2.397 0 4.036 1.628 4.293 4.32h-8.563zm3.848-8.015c-6.077 0-10.396 4.293-10.396 10.333 0 6.085 4.5 10.113 11.425 10.113 1.534 0 5.257 0 8.804-2.618v-3.851c-2.902 2.065-4.824 2.776-7.31 2.776-3.885 0-6.284-2.021-6.5-5.471h14.145c.294-7.202-4.437-11.282-10.169-11.282"/>
	<g fill="#009e4d" clip-path="url(#a)" transform="matrix(1.25 0 0 -1.25 -509.963 159.04)">
		<path d="M548.863 113.914h.073c1.469 3.284 3.114 4.824 5.023 4.824.989 0 1.842-.377 3.278-1.439l-1.362-4.375c-1.3.82-2.154 1.163-2.939 1.163-1.816 0-2.978-1.712-4.073-4.606v-6.807h-4.956v15.775h4.956v-4.535m-44.442 11.156c.465-1.226-.372-2.936-1.863-3.816-1.497-.879-3.079-.6-3.54.626-.47 1.228.363 2.94 1.858 3.815 1.493.884 3.076.604 3.545-.625"/>
	</g>
	<path fill="#009e4d" d="M65.96 18.17c0-5.345-3.633-7.534-7.218-7.534-2.437 0-4.441 1.029-6.234 3.298h-.085V1.589H46.23v29.077h6.194V18.17c1.449-2.096 2.687-2.993 4.138-2.993 1.926 0 3.206 1.37 3.206 4.317v6.929c2.078-1.068 4.189-1.723 6.192-1.967V18.17m15.536-7.54c-2.523 0-4.45.938-6.42 3.193V11h-6.192v13.404c2.145.214 4.882 1.197 6.192 2.822v-9.211c1.627-2.442 2.782-3.256 4.322-3.256 1.754 0 3.086 1.157 3.086 3.939v11.975h6.193V18.184c0-5.809-4.103-7.555-7.181-7.555m10.6 25.706h-7.194v5.113h6.941v2.193h-6.941v5.274h7.41v2.192h-9.823v-16.96h9.608v2.188m5.876 14.782h2.204V34.142h-2.204v16.975zm13.115-9.508c1.562 0 2.531 1.076 2.604 2.768h-5.613c.304-1.767 1.32-2.768 3.009-2.768zm-3.049 4.239h7.851c0-4.139-1.89-6.137-4.852-6.137-3.073 0-5.206 2.272-5.206 5.66 0 3.095 1.927 5.954 5.397 5.954 1.891 0 3.114-.42 4.468-1.319v-2.145c-1.308.857-2.577 1.35-3.912 1.35-2.135 0-3.402-1.145-3.746-3.363m22.243-2.987c-1.268-.867-2.114-1.122-3.079-1.122-2.018 0-3.415 1.547-3.415 3.814 0 2.308 1.487 3.7 3.784 3.7.945 0 1.845-.245 2.956-.743v2.174c-.743.35-2.158.641-3.325.641-3.338 0-5.654-2.295-5.654-5.575 0-3.701 2.116-6.038 5.503-6.038 1.293 0 2.163.3 3.23.77v2.38m10.041-2.937h3.537v1.987h-3.537v5.74c0 1.313.951 1.693 1.594 1.693.797 0 1.62-.278 2.512-.83v2.068c-.774.426-1.961.742-2.689.742-2.4 0-3.613-1.49-3.613-3.507v-5.907h-1.944v-.246l4.14-4.051v2.311m11.965 0v2.589h.045c1.124-1.981 2.192-2.803 3.232-2.803.898 0 1.738.422 2.662 1.295l-1.168 1.943c-.671-.664-1.539-1.121-2.062-1.121-1.518 0-2.709 1.542-2.709 3.453v5.836h-2.201V39.925h2.201m28.522 2.937c-1.273-.868-2.118-1.123-3.09-1.123-2.012 0-3.398 1.548-3.398 3.814 0 2.308 1.488 3.7 3.771 3.7.946 0 1.841-.245 2.967-.743v2.174c-.758.35-2.175.641-3.34.641-3.332 0-5.658-2.295-5.658-5.575 0-3.701 2.126-6.038 5.512-6.038 1.296 0 2.158.3 3.236.77v2.38m-16.74 8.255h2.203v-11.19h-2.204v11.19z"/>
	<g fill="#009e4d" clip-path="url(#b)" transform="matrix(1.25 0 0 -1.25 -509.963 159.04)">
		<path d="M541.047 98.507c.172-.432-.129-1.043-.659-1.354-.534-.312-1.099-.212-1.26.221-.161.437.131 1.043.667 1.355.529.316 1.091.215 1.252-.222m-78.917-.724c-.311 0-.442-.051-.569-.193-.05-.055-.07-.111-.088-.223l-1.581-5.996c-.371-2.103-2.954-4.203-6.321-4.203h-4.681l.812 3.081h3.007c.307 0 .547.114.748.338.074.087.17.223.183.363l1.248 5.239c.368 2.104 2.591 4.428 5.957 4.428h4.794l-.613-2.834h-2.896zm1.08-3.654.535 1.94h4.87c.601 2.813.128 5.419-1.579 7.126-3.455 3.455-10.683 2.281-16.068-2.871-.841-.8-1.551-1.665-2.198-2.549h2.932l-.682-1.944h-3.503c-.335-.613-.649-1.221-.889-1.838h4.154l-.665-1.944h-4.082c-.698-2.97-.253-5.74 1.503-7.499 3.412-3.411 10.618-2.212 16 2.939.942.896 1.72 1.863 2.423 2.856h-3.767l.574 1.94h4.404c.323.617.62 1.227.852 1.844h-4.814"/>
	</g>
</svg>
