<svg xmlns="http://www.w3.org/2000/svg" width="200" height="128">
    <path d="M47.977 84.437a.444.444 0 0 1 .873.166 2.231 2.231 0 0 0 .361 1.7 2.279 2.279 0 0 0 4.12-.879c.052-.243 4.994-23.5 4.994-28.186 0-9.778-7.7-16.607-18.72-16.607a20.1 20.1 0 0 0-13.487 4.694 15.785 15.785 0 0 0-5.229 11.969c0 4.7 4.942 27.943 4.992 28.178a2.291 2.291 0 1 0 4.483-.952.444.444 0 1 1 .872-.167c.006.029.008.057.012.086l16.718.081c.004-.029.006-.056.011-.083z" fill="#57d1e5"/>
    <path d="M33.123 63.6h-.015a8.066 8.066 0 0 1-8.065-8.053v-.03a8.064 8.064 0 0 1 8.082-8.08h.014a8.082 8.082 0 0 1-.016 16.163z" fill="#fff"/>
    <path d="M72.26 60.676c0 2.589 6.4.926 6.4 5.8 0 3.145-2.467 4.624-5.364 4.624a6.5 6.5 0 0 1-4.687-1.726l2.083-2.343a3.574 3.574 0 0 0 2.708 1.29c1.047 0 2.157-.492 2.157-1.479 0-2.589-6.535-1.169-6.535-5.856 0-3.021 2.589-4.562 5.364-4.562a6.294 6.294 0 0 1 4.259 1.476l-2.083 2.281a3.026 3.026 0 0 0-2.22-.926c-.848 0-2.083.371-2.083 1.418m16.28 3.08c0 2.591 1.726 4.5 3.946 4.5a3.4 3.4 0 0 0 2.9-1.479l2.589 1.911a6.1 6.1 0 0 1-5.056 2.4c-4.377 0-7.521-2.836-7.521-7.335s3.144-7.336 7.521-7.336a6.058 6.058 0 0 1 4.682 2.042l-2.343 1.973a3.32 3.32 0 0 0-2.652-1.171c-2.343 0-4.069 1.912-4.069 4.5m22.748 7.026H108.2V64.8l-5.24-8.014h3.824l2.976 5.24 3.144-5.24h3.637L111.3 64.8zm11.478-13.992h3.09v11.1h5.672v2.83h-8.755zm15.709 0h3.083v11.1h5.691v2.83h-8.755zm25.495 13.93l-1.235-2.976-1.047-2.589-1.726-4.315-1.726 4.315-.987 2.589-1.171 2.976h-3.392l6.041-14h2.529l6.1 14z" fill="#372950"/>
    <path d="M178.3 71.4a2.594 2.594 0 1 1 1.542-3.328A2.562 2.562 0 0 1 178.3 71.4" fill="#b194c5"/>
    <path d="M51.1 88.22a3.061 3.061 0 0 1-.584-.055 3.179 3.179 0 0 1-2.034-1.319 3.11 3.11 0 0 1-.5-2.369.444.444 0 0 1 .873.166 2.231 2.231 0 0 0 .361 1.7 2.279 2.279 0 0 0 4.12-.88c.052-.243 4.994-23.5 4.994-28.186 0-9.778-7.7-16.607-18.72-16.607a20.1 20.1 0 0 0-13.487 4.694 15.787 15.787 0 0 0-5.229 11.969c0 4.7 4.942 27.944 4.992 28.178a2.291 2.291 0 1 0 4.483-.952.444.444 0 0 1 .872-.167 3.18 3.18 0 0 1-6.227 1.308C24.807 84.734 20 62.129 20 57.331A16.663 16.663 0 0 1 25.526 44.7 20.985 20.985 0 0 1 39.6 39.78c11.545 0 19.609 7.194 19.609 17.495 0 4.783-4.808 27.4-5.012 28.362A3.178 3.178 0 0 1 51.1 88.22z" fill="#3b2d55"/>
    <path d="M45.807 84.614a2.741 2.741 0 0 0 5.426.775l1.339-7.611" fill="#57d1e5"/>
    <path d="M52.852 77.745a.225.225 0 0 0-.211-.211.387.387 0 0 0-.353.211l-.774 3.946-.352 1.973-.212.987c-.069.282-.141.7-.211.916a2.353 2.353 0 0 1-2.678 1.551 2.2 2.2 0 0 1-1.832-2.466l.005-.025a.417.417 0 0 0-.357-.469h-.025a.417.417 0 0 0-.469.357 3.173 3.173 0 0 0 .494 2.256 3.273 3.273 0 0 0 1.692 1.2 3.146 3.146 0 0 0 3.945-2.113l.212-1.041.141-1.042.353-1.975.634-4.017zM33.138 64.483a8.956 8.956 0 0 1-8.984-8.939v-.03a8.957 8.957 0 0 1 8.94-8.97h.015a8.97 8.97 0 0 1 .045 17.94zm0-17.051h-.014a8.064 8.064 0 0 0-8.082 8.08v.03a8.066 8.066 0 0 0 8.066 8.058h.015a8.082 8.082 0 0 0 .016-16.163z" fill="#3b2d55"/>
    <path d="M34.889 49.873c1.76-.35 4.438 1.761 4.438 5.639s-2.677 5.988-4.438 5.639c-1.482-.281-1.833-3.522-.917-4.438.564-.564 1.762-.774 1.762-1.2s-1.2-.633-1.762-1.2c-.845-.917-.564-4.157.917-4.44z" fill="#3b2d55"/>
    <path d="M26.713 77.78l1.267 7.61a2.741 2.741 0 1 0 5.427-.775" fill="#57d1e5"/>
    <path d="M33.9 84.56c-.072-.281-.283-.493-.566-.423-.211 0-.352.283-.352.494a2.3 2.3 0 0 1-1.758 2.469 2.251 2.251 0 0 1-2.678-1.551l-.212-.916-.634-2.964-.774-3.946c0-.141-.141-.211-.283-.211a.3.3 0 0 0-.282.283c.208 1.339.421 2.678.773 4.087l.423 2.961.211 1.041a3.109 3.109 0 0 0 3.382 2.184 3.16 3.16 0 0 0 2.75-3.523z" fill="#3b2d55"/>
    <path d="M31.083 77.64l.845 7.61a2.708 2.708 0 0 0 2.818 2.4 2.746 2.746 0 0 0 2.607-2.89" fill="#57d1e5"/>
    <path d="M37.845 84.786a.668.668 0 0 0-.353-.422.471.471 0 0 0-.491.422 2.424 2.424 0 0 1-1.972 2.4 2.254 2.254 0 0 1-2.537-1.692c-.072-.211-.072-.564-.142-.917l-.141-.986-.845-5.991c0-.141-.142-.211-.283-.211a.3.3 0 0 0-.283.283l.353 4.017.211 1.973.07.986a5.5 5.5 0 0 0 .142 1.042 3.189 3.189 0 0 0 6.273-.932z" fill="#3b2d55"/>
    <path d="M41.861 84.756a2.725 2.725 0 1 0 5.428.494l.845-7.68" fill="#57d1e5"/>
    <path d="M48.49 77.539c-.07-.142-.142-.212-.212-.212-.141-.071-.282.07-.352.212l-.566 4.017-.422 2.961-.142.916a2.319 2.319 0 0 1-2.537 1.692 2.275 2.275 0 0 1-1.973-2.38.394.394 0 0 0-.352-.423c-.211-.07-.424.141-.494.353a3.246 3.246 0 0 0 .565 1.973 3.1 3.1 0 0 0 4.369.845 3.309 3.309 0 0 0 1.339-1.905 5.087 5.087 0 0 0 .141-1.041l.07-.987.211-1.973.353-4.017z" fill="#3b2d55"/>
    <path d="M36.647 77.272l.212 7.681a2.748 2.748 0 0 0 5.5 0l.211-7.681" fill="#57d1e5"/>
    <path d="M42.865 77.359c0-.212-.07-.353-.352-.353a.3.3 0 0 0-.283.283l-.353 7.4a1.962 1.962 0 0 1-.07.634l-.211.565a2.307 2.307 0 0 1-.916.917 2.248 2.248 0 0 1-3.1-.917l-.212-.565a1.989 1.989 0 0 1-.069-.634l-.353-7.4a.318.318 0 0 0-.3-.283.3.3 0 0 0-.282.283l.07 5.918v1.481a3.46 3.46 0 0 0 .07.845 3.027 3.027 0 0 0 1.621 2.184 3.156 3.156 0 0 0 4.3-1.339 3.2 3.2 0 0 0 .353-1.622v-1.479l.07-5.918zM42.709 61.575h-.283a.429.429 0 0 0 .142.847 1.863 1.863 0 0 1 .739.254 22.759 22.759 0 0 1-16.03 3.69v.015c-.141 0-.211.071-.353.283a.362.362 0 0 0 .212.491c.54.076 1.081.127 1.622.167.355.943 1.2 2.128 2.348 2.128a1.673 1.673 0 0 0 .4-.049c.689-.172 1.119-.951 1.183-2.1a23.8 23.8 0 0 0 3.563-.593c.236.985.6 2.216 1.873 2.216a2 2 0 0 0 1.466-.744 3.721 3.721 0 0 0 .747-2.876 23.439 23.439 0 0 0 3.6-2.011 1.859 1.859 0 0 1 .249.609.247.247 0 0 0 .353.211.3.3 0 0 0 .282-.283 2.619 2.619 0 0 0-2.113-2.255zm-11.376 7.108c-.723.17-1.388-.572-1.749-1.312q1.188.048 2.368-.022c-.062.826-.343 1.265-.619 1.334zm7.592-1.083a1.143 1.143 0 0 1-.8.44c-.481 0-.718-.36-1.011-1.553a23.5 23.5 0 0 0 2.353-.809 2.722 2.722 0 0 1-.542 1.922z" fill="#3b2d55"/>
    <path d="M39.464 65.675a2.715 2.715 0 0 1-.539 1.92 1.143 1.143 0 0 1-.8.44c-.481 0-.718-.36-1.011-1.553a23.378 23.378 0 0 0 2.35-.807zM31.952 67.349c-.062.826-.343 1.265-.619 1.334-.723.17-1.385-.572-1.746-1.311q1.187.047 2.365-.023z" fill="#fff"/>
</svg>
