<svg xmlns="http://www.w3.org/2000/svg" viewBox="68.73 25.48 235.54 326.04">
	<defs>
		<clipPath id="a" clipPathUnits="userSpaceOnUse">
			<path d="M0 331.809h265.233V0H0Z"/>
		</clipPath>
		<clipPath id="b" clipPathUnits="userSpaceOnUse">
			<path d="M83.946 211.431c-2.135.488-4.192.947-5.907.95 1.715-.003 3.772-.462 5.907-.95m.045-.01-.035.007.035-.007m.321-.074-.253.058.253-.058m.066-.015-.045.01.045-.01m.321-.073-.321.073.321-.073m6.458-.977c-1.987.001-4.194.464-6.355.953 2.161-.489 4.368-.952 6.355-.953m.006 0h.003zm53.217-6.715c1.73.643 4.277 1.4 6.895 1.4 3.331 0 6.777-1.225 8.803-5.466-.949 1.528-2.235 2.104-3.6 2.104-1.82 0-3.782-1.027-5.274-2.196-3.037-2.38-10.454-17.186-1.259-38.422 2.85-6.581 4.196-12.447 4.153-17.471.62-.343 1.282-.596 1.978-.81a5.702 5.702 0 0 1 1.691-.274c2.199 0 4.443 1.491 7.987 5.456l.005.007.026.029.033.037c4.488 5.034 10.838 9.304 17.624 11.712l.055.02.08.027.027.01c2.182.755 4.768 1.275 7.307 1.348-7.757 3.897 9.801 14.698 9.828 26.509.02 8.768-4.558 11.166-7.915 11.166-1.201 0-2.246-.307-2.868-.739-1.904-1.323-3.941-4.187-1.643-8.21 2.3-4.023 1.232-9.771-.492-13.875-1.723-4.105-6.328-7.364-11.172-7.855a7.296 7.296 0 0 0-.739-.037c-5.036 0-13.934 4.785-14.032 21.685-.072 12.344-5.472 15.246-10.6 15.246-2.62 0-5.168-.757-6.898-1.401m-9.291-2.217c-1.865.048-3.168.685-3.136 2.334-.032-1.649 1.271-2.286 3.136-2.334m8.726 2 .025.01a.433.433 0 0 1-.025-.01m-.167-.065.082.032-.082-.032m-73.388-3.382c.079-.315.161-.631.244-.951-.083.32-.165.637-.244.951m65.061 1.444h.015zm-64.809-2.426-.006.024.006-.024m.017-.068v.004-.004"/>
		</clipPath>
		<clipPath id="c" clipPathUnits="userSpaceOnUse">
			<path d="M0 331.809h265.233V0H0Z"/>
		</clipPath>
		<clipPath id="d" clipPathUnits="userSpaceOnUse">
			<path d="M96.682 212.689c-1.3-1.814-3.266-2.406-5.516-2.407h-.009c-1.987.001-4.194.464-6.355.953l-.103.024-.321.073-.045.01-.021.005-.253.058-.011.002a.318.318 0 0 1-.033.008l-.024.006-.035.007-.01.003c-2.135.488-4.192.947-5.907.95h-.068c-4.952-.023-8.132-4.081-8.127-9.215.001-1.051.136-2.147.416-3.263.079-.314.161-.631.244-.951l.002-.007.006-.024.005-.019a.124.124 0 0 0 .004-.016l.008-.029v-.004c1.551-5.922 3.706-12.627 1.564-18.482a58.69 58.69 0 0 0 9.279 14.797l.002.003.049.056.012.014.04.047.02.023.033.038.039.045.016.019a60.04 60.04 0 0 0 2.612 2.819l-.009-.01.015.016-.003-.003.009.009c5.201 5.435 9.4 10.239 12.591 14.445zm47.698-9.122c-.19-.071-.371-.14-.54-.207a.433.433 0 0 1-.025-.01l-.085-.033-.082-.032c-2.551-.993-5.864-1.934-8.312-1.938h-.017c-1.987.001-3.399.621-3.366 2.337-.695-12.429-4.746-21.017-6.229-28.594-.028-.14-.054-.28-.08-.42l-.007-.037c-1.453-7.973 1.78-12.944 6.927-14.274a11.776 11.776 0 0 1 2.94-.359l.211.001.267.003h.038c1.176 0 2.329-.108 3.435-.317h.001l.008-.002c5.17-.976 9.341-4.141 10.326-8.65v-.002l.019-.092.001-.007.027-.128.005-.029a.05.05 0 0 0 .002-.012l.003-.018.003-.013.003-.013.007-.039.001-.001.004-.022.001-.005c.834-4.194 2.335-6.087 4.231-7.137l.001-.001c.043 5.024-1.303 10.89-4.153 17.471-9.195 21.236-1.778 36.042 1.259 38.422 1.492 1.169 3.454 2.196 5.274 2.196 1.365 0 2.651-.576 3.6-2.104-2.026 4.241-5.472 5.466-8.803 5.466-2.618 0-5.165-.757-6.895-1.4m-60.006-5.155-.015-.015-.03-.03.099.099-.054-.054m-.167-.168-.006-.006.007.008a.018.018 0 0 1 .008.007l.049.049.023.023.032.032.009.01z"/>
		</clipPath>
		<clipPath id="e" clipPathUnits="userSpaceOnUse">
			<path d="M0 331.809h265.233V0H0Z"/>
		</clipPath>
		<clipPath id="f" clipPathUnits="userSpaceOnUse">
			<path d="M95.768 257.044h-.144.144m-.148 0h.002zm5.192-.677c-1.879.453-3.556.664-5.044.677 1.488-.013 3.164-.224 5.044-.677m.14-.034-.133.032.133-.032m30.782-42.373c-1.815 18.174-15.35 38.571-30.782 42.373 15.431-3.802 28.967-24.199 30.782-42.373m-46.022 29.956-.005.013.005-.013m.025-.063c1.494-3.692 6.569-5.43 10.963-5.94 4.677-.543 7.674-3.826 7.672-9.046.002 5.22-2.995 8.503-7.672 9.046-4.394.51-9.469 2.248-10.963 5.94l-.022.054.022-.054m-1.378-45.456.015.015-.015-.015m-.071-.072.032.032-.032-.032m-.072-.072.049.049-.049-.049m-.018-.018c.003.003.007.006.01.011l-.01-.011m0 0-.003-.003.003.003m-2.631-2.841.008.01-.008-.01m-.072-.083.033.038a1.288 1.288 0 0 0-.033-.038m-.06-.07.04.047-.04-.047m-.061-.07.049.056a2.452 2.452 0 0 0-.049-.056m-.092-.108.09.105-.09-.105m-.001-.002.001.002-.001-.002m-.087-.102.087.102-.087-.102m-.09-.105.059.07-.059-.07m-.02-.024a.424.424 0 0 1 .02.024l-.02-.024m-.068-.081.068.081-.068-.081m-.089-.106.07.083-.07-.083m-.088-.105.077.092-.077-.092m-.018-.022.018.022-.018-.022m-.07-.084.07.084-.07-.084m-.017-.02.017.02-.017-.02m-.071-.086.071.086-.071-.086m-.014-.017.014.017-.014-.017m-.073-.089.073.089-.073-.089m-.015-.018.015.018-.015-.018m-.074-.09.074.09-.074-.09m-.006-.008.006.008-.006-.008m-.081-.098.081.098-.081-.098m-.007-.01.007.01-.007-.01m-.342-.423.003.003-.003-.003m-7.958-13.202-.021-.048a58.462 58.462 0 0 1-4.825-23.334c0-31.198 24.356-56.707 55.089-58.552a58.339 58.339 0 0 0-23.657 6.582c-9.175 5.116-10.691 21.158-3.129 40.697 1.634 4.222 3.29 7.708 4.973 10.704-3.823 12.929-6.583 28.049-13.302 31.715-1.429.779-2.804 1.113-4.107 1.113-5.274 0-9.366-5.477-11.1-9.061a58.666 58.666 0 0 1 .079.184m53.525-5.843.019.105-.019-.105m-.008-.05.008.05-.008-.05m-.01-.055.01.055-.01-.055m-.01-.058.01.058-.01-.058m-.047-.284.04.245-.04-.245m-.001-.005.001.005-.001-.005m-.248-2.632.001.011-.001-.011m-.001-.071.001.071-.001-.071m-.001-.029.001.029-.001-.029m-.002-.086.002.086-.002-.086m-.001-.064.001.064-.001-.064m0-.035v.035-.035m-.001-.069.001.069-.001-.069m0-.026v.026-.026m0-.161v.161-.161m0-.004v.004-.004m.001-.065-.001.065.001-.065m0-.003v.003-.003m1.097-5.342c-.689 1.495-1.079 3.281-1.097 5.342.017-2.061.407-3.847 1.097-5.342m.002-.003-.002.003.002-.003m.02-.045a.885.885 0 0 1-.02.045l.02-.045m.003-.006-.003.006.003-.006m.022-.045-.022.045.022-.045m.001-.002-.001.002.001-.002m.065-.136-.065.136.065-.136m.032-.063-.011.02.011-.02m.015-.031-.015.031.015-.031m.012-.024-.012.024.012-.024m.013-.026a.21.21 0 0 1-.013.026l.013-.026m.017-.031-.017.031.017-.031m.01-.02-.01.02.01-.02m.055-.105-.055.105.055-.105m.007-.013-.007.013.007-.013m.023-.042-.023.042.023-.042m.006-.011-.006.011.006-.011m.023-.042-.023.042.023-.042m.007-.012a.075.075 0 0 0-.007.012l.007-.012m.026-.047a2.459 2.459 0 0 0-.026.047l.026-.047m.095-.166-.093.161.093-.161m.003-.004-.003.004.003-.004m5.538-4.207c-2.349.652-4.286 2.075-5.538 4.207 1.252-2.132 3.189-3.555 5.538-4.207m69.708-6.741c-.683 5.526-5.447 7.42-10.558 7.42 5.11 0 9.875-1.895 10.558-7.42m-10.566 7.42h.003zm-59.137-.68-.005.001.005-.001m.054-.015-.054.015.054-.015m.006-.002-.006.002.006-.002m.061-.016-.012.003.012-.003m.057-.015-.057.015.057-.015m3.424-.355h.032-.032m-.273-.003-.211-.001h.001l.21.001.267.003-.267-.003m47.862-.281.027.01a.468.468 0 0 1-.027-.01m-.135-.047.055.02-.055-.02m-43.987.014h.001-.001m10.335-8.652c-.985 4.509-5.156 7.674-10.326 8.65 5.17-.977 9.341-4.141 10.326-8.65m52.304 2.587-.004.039.004-.039m-11.597-12.424c-3.939-1.264-8.1-2.845-12.777-11.731-9.86-18.525-29.364-31.137-51.814-31.137h-.054.054c22.45 0 41.954 12.612 51.814 31.137 4.677 8.886 8.838 10.467 12.777 11.731 5.821 1.87 11.711 3.484 11.705 10.67.006-7.186-5.884-8.8-11.705-10.67m-40.688 9.743-.019.092.019-.092m.028-.135-.027.128.027-.128m15.948-2.882.033.037a1.23 1.23 0 0 0-.033-.037m-.031-.036.005.007-.005-.007m-7.988-5.456h.001a5.7 5.7 0 0 1-.001 0M122.36 98.436l-.024.001.024-.001m.174-.01-.174.01.174-.01m.041-.003-.041.003.041-.003m.155-.008-.155.008.155-.008m.052-.003-.052.003.052-.003m.15-.008-.15.008.15-.008m.052-.002-.052.002.052-.002m.201-.01-.048.003.048-.003m.199-.009-.199.009.199-.009m.053-.001-.052.001.052-.001m.012-.001-.012.001.012-.001m.123-.005-.123.005.123-.005m.039-.002-.039.002.039-.002m.057-.001-.053.001.053-.001m.12-.005-.117.005.117-.005m.051-.002-.051.002.051-.002m.054-.001-.048.001.048-.001m.033-.002-.023.001.023-.001m.024 0h-.024.024m.062-.002-.054.001.054-.001m.055-.002-.055.002.055-.002m.033-.001h-.02.02m.02-.001-.02.001.02-.001m.026-.001-.009.001.009-.001m.003 0h-.003.003m.007 0h-.007.007m.007 0h-.007.007m.003 0h-.003.003m.009 0h-.009.009m.037-.001h-.022.022m.022-.001-.022.001.022-.001m.065-.002-.056.002.056-.002m.055-.001a1.028 1.028 0 0 1-.055.001l.055-.001m.053-.002-.047.001.047-.001m.055-.001-.042.001.042-.001m.035-.001-.022.001.022-.001m.022 0h-.022.022m.064-.002-.054.002.054-.002m.054-.001-.054.001.054-.001m.054-.001-.04.001.04-.001m.056-.001-.04.001.04-.001m.067-.002-.053.001.053-.001m.055-.001-.055.001.055-.001m.052 0h-.041.041m.053-.001-.034.001.034-.001m.039-.001-.018.001.018-.001m.018 0h-.018.018m.07-.001-.053.001.053-.001m.054-.001-.053.001.053-.001m.013 0h.038-.038m.131-.001h-.019.019m-.072 0h.034-.034m.092-.001a.134.134 0 0 1-.02.001l.02-.001m.119-.001-.036.001.036-.001m-.105.001h.052-.052m.197-.001h-.019.019m-.071 0h.034-.034m.09-.001-.019.001.019-.001m.177-.001-.036.001.036-.001m-.107.001h.053-.053m-.053 0h.043-.043m.232-.001h.038-.038m-.054 0h.036-.036"/>
		</clipPath>
		<clipPath id="g" clipPathUnits="userSpaceOnUse">
			<path d="M0 331.809h265.233V0H0Z"/>
		</clipPath>
		<clipPath id="h" clipPathUnits="userSpaceOnUse">
			<path d="M183.707 159.765c2.16.736 4.705 1.241 7.204 1.313-2.5-.071-5.044-.577-7.204-1.313m-.103-.035.103.035-.103-.035m-.107-.037.08.027-.08-.027"/>
		</clipPath>
		<clipPath id="i" clipPathUnits="userSpaceOnUse">
			<path d="m165.759 147.895.026.029-.026-.029m-1.805-1.918.011.01-.011-.01m-.052-.051.052.051c-.017-.017-.034-.035-.052-.051m-5.953-3.49c1.732.065 3.512 1.068 5.953 3.49-2.44-2.421-4.221-3.425-5.953-3.49m-.182-.004"/>
		</clipPath>
		<clipPath id="j" clipPathUnits="userSpaceOnUse">
			<path d="M0 331.809h265.233V0H0Z"/>
		</clipPath>
		<clipPath id="k" clipPathUnits="userSpaceOnUse">
			<path d="M191.526 161.087h-.003c-.204 0-.408-.002-.612-.009-2.538-.073-5.125-.593-7.307-1.348a.468.468 0 0 1-.027-.01l-.08-.027-.055-.02c-6.786-2.408-13.136-6.678-17.624-11.712a1.23 1.23 0 0 0-.033-.037l-.026-.029-.005-.007c-3.545-3.965-5.788-5.456-7.987-5.456h-.001a5.7 5.7 0 0 0-1.69.274c-.696.214-1.359.467-1.979.811-.095-11.189-7.079-18.204-19.696-19.639a24.751 24.751 0 0 0-2.83-.163c-16.53 0-26.078 17.076-30.164 29.828a128.8 128.8 0 0 0-.884 2.877c-1.683-2.996-3.339-6.482-4.973-10.704-7.562-19.539-6.046-35.581 3.129-40.697a58.35 58.35 0 0 1 24.705-6.636h.001l.226-.009h.004l.053-.001h.003l.168-.007h.006l.048-.001.01-.001.047-.001.008-.001.109-.003.013-.001.04-.001h.017l.038-.001.015-.001.044-.001h.009l.111-.003.006-.001.047-.001h.013l.042-.001h.013l.044-.001h.01l.108-.003h.014l.04-.001h.016l.04-.001.014-.001.053-.001.055-.001h.071l.034-.001h.021l.036-.001h.017l.053-.001h.001l.053-.001h.051l.021-.001h.053l.039-.001h.083l.036-.001h.073l.038-.001h.141l.036-.001h.18c22.45 0 41.954 12.612 51.814 31.137 4.677 8.886 8.838 10.467 12.777 11.731 5.821 1.87 11.711 3.484 11.705 10.67 0 .535-.033 1.101-.102 1.701a.506.506 0 0 1-.006.053l-.004.039-.001.006c-.683 5.525-5.448 7.42-10.558 7.42z"/>
		</clipPath>
		<clipPath id="l" clipPathUnits="userSpaceOnUse">
			<path d="m149.842 150.777-.005.029.005-.029"/>
		</clipPath>
		<clipPath id="m" clipPathUnits="userSpaceOnUse">
			<path d="m149.847 150.747-.003.018.003-.018"/>
		</clipPath>
		<clipPath id="n" clipPathUnits="userSpaceOnUse">
			<path d="m149.853 150.721-.003.013.003-.013"/>
		</clipPath>
		<clipPath id="o" clipPathUnits="userSpaceOnUse">
			<path d="m149.861 150.681-.001.001.001-.001"/>
		</clipPath>
		<clipPath id="p" clipPathUnits="userSpaceOnUse">
			<path d="m149.866 150.654-.001.005.001-.005"/>
		</clipPath>
		<clipPath id="q" clipPathUnits="userSpaceOnUse">
			<path d="M0 331.809h265.233V0H0Z"/>
		</clipPath>
		<clipPath id="r" clipPathUnits="userSpaceOnUse">
			<path d="m84.374 198.412.054.054-.054-.054m-.054-.055.039.04-.039-.04m-.055-.055.023.023-.023-.023m-.07-.07a53.67 53.67 0 0 0 .003.003zm-.502-.514.032.033-.032-.033m-.026-.027.026.027-.026-.027m-2.139-2.342.039.045-.039-.045m-.043-.049.01.011a.052.052 0 0 0-.01-.011m-.062-.073.012.014-.012-.014m-.05-.058.001.002-.001-.002m-.001-.001.001.001-.001-.001"/>
		</clipPath>
		<clipPath id="s" clipPathUnits="userSpaceOnUse">
			<path d="M95.622 257.044h-.002c-10.046 0-11.477-9.093-9.913-13.115l.005-.013.003-.009.022-.054c1.494-3.692 6.569-5.43 10.963-5.94 4.677-.543 7.674-3.826 7.672-9.046a15.243 15.243 0 0 0-.108-1.762c-.738-6.236-7.46-15.697-20.057-28.861l-.009-.009.008.008a.406.406 0 0 1-.02-.021l.008.01a60.018 60.018 0 0 1-2.611-2.819l-.016-.019-.039-.045a1.288 1.288 0 0 0-.033-.038l-.02-.023-.04-.047-.012-.014a2.452 2.452 0 0 0-.049-.056c0-.002-.001-.002-.002-.003a58.694 58.694 0 0 1-9.358-14.981c1.734 3.584 5.826 9.061 11.1 9.061 1.303 0 2.678-.334 4.107-1.113 6.719-3.666 9.479-18.786 13.302-31.715 6.105 10.873 12.567 15.306 19.648 25.079 9.03 12.468 11.016 36.786 9.491 42.076h.102c1.014-3.323 1.702-6.683 2.003-9.965l-.033.35c-1.815 18.174-15.351 38.571-30.782 42.373l-.133.032-.007.002c-1.94.468-3.664.677-5.188.677zm-11.263-58.647.015.015.054.054-.098-.099.029.03m-.164-.165.003.003zm0 0h-.001a.014.014 0 0 1 .004.003l-.003-.003"/>
		</clipPath>
		<clipPath id="t" clipPathUnits="userSpaceOnUse"/>
		<clipPath id="u" clipPathUnits="userSpaceOnUse">
			<path d="m149.844 150.765-.002.012a.05.05 0 0 0 .002-.012m.006-.031-.003.013.003-.013m.01-.052-.007.039.007-.039m.005-.023-.004.022a.143.143 0 0 1 .004-.022m4.232-7.142c-1.896 1.05-3.397 2.943-4.231 7.137.834-4.195 2.335-6.088 4.231-7.137"/>
		</clipPath>
		<clipPath id="v" clipPathUnits="userSpaceOnUse">
			<path d="M0 331.809h265.233V0H0Z"/>
		</clipPath>
		<clipPath id="w" clipPathUnits="userSpaceOnUse">
			<path d="M131.953 203.684v.004-.004"/>
		</clipPath>
		<clipPath id="x" clipPathUnits="userSpaceOnUse">
			<path d="M127.828 183.056c1.695 5.723 3.66 12.317 4.125 20.628v.004c-.465-8.312-2.43-14.908-4.125-20.632m-2.104-7.966c.491 2.51 1.264 5.131 2.104 7.966-.84-2.835-1.613-5.456-2.104-7.966m-.087-.457.007.037-.007-.037m10.345-14.629h.006zm3.482-.319-.008.002.008-.002m10.326-8.652v.002-.002m.02-.099-.001.007.001-.007"/>
		</clipPath>
		<clipPath id="y" clipPathUnits="userSpaceOnUse">
			<path d="M129.662 223.575c1.525-5.29-.461-29.608-9.491-42.076-7.081-9.773-13.543-14.206-19.648-25.079a128.8 128.8 0 0 1 .884-2.877c4.086-12.752 13.634-29.828 30.164-29.828.922 0 1.864.052 2.83.163 12.617 1.435 19.601 8.45 19.696 19.639-1.896 1.049-3.397 2.942-4.231 7.137l-.001.005a.143.143 0 0 0-.004.022l-.001.001-.007.039-.003.013-.003.013-.003.018-.002.012-.005.029-.027.128-.001.007-.019.092v.002c-.985 4.509-5.156 7.673-10.326 8.65l-.008.002h-.001a18.534 18.534 0 0 1-3.435.317h-.038l-.267-.003-.21-.001h-.001a11.77 11.77 0 0 0-2.94.359c-4.307 1.112-7.272 4.774-7.276 10.609a20.395 20.395 0 0 0 .349 3.665l.007.037c.026.14.052.28.08.42 1.484 7.578 5.534 16.169 6.229 28.598.17 3.038.139 6.304-.179 9.842a1.693 1.693 0 0 1-.007.077v.003c-.301 3.282-.989 6.642-2.003 9.965z"/>
		</clipPath>
	</defs>
	<g clip-path="url(#a)" transform="matrix(1.33333 0 0 -1.33333 0 442.412)">
		<path fill="#0e0f0f" d="M74.27 73.369c-1.066.421-1.888 1.024-2.465 1.81-.578.785-.867 1.699-.867 2.74v.546c0 .082.031.152.094.21a.318.318 0 0 0 .226.087h3.039a.32.32 0 0 0 .226-.087.277.277 0 0 0 .093-.21v-.372c0-.662.329-1.22.987-1.674.657-.455 1.545-.682 2.665-.682.941 0 1.643.186 2.105.558.462.372.693.831.693 1.376 0 .397-.142.732-.427 1.004-.284.273-.67.513-1.159.72-.489.206-1.266.491-2.332.855-1.19.38-2.198.769-3.025 1.166a5.975 5.975 0 0 0-2.079 1.624c-.559.686-.839 1.533-.839 2.542 0 .991.275 1.859.826 2.603.55.744 1.315 1.314 2.292 1.711.977.397 2.106.595 3.385.595 1.35 0 2.554-.223 3.611-.669 1.057-.447 1.884-1.071 2.479-1.872.595-.802.893-1.732.893-2.79v-.372a.275.275 0 0 0-.094-.211.318.318 0 0 0-.226-.087h-3.065a.318.318 0 0 0-.226.087.275.275 0 0 0-.094.211v.198c0 .695-.306 1.286-.919 1.773-.613.488-1.453.732-2.519.732-.835 0-1.488-.165-1.959-.496-.471-.331-.706-.785-.706-1.364 0-.414.137-.761.413-1.041.276-.282.684-.533 1.226-.757.542-.223 1.381-.525 2.519-.905 1.261-.43 2.252-.81 2.971-1.14.72-.331 1.368-.823 1.946-1.476.577-.653.866-1.5.866-2.541 0-1.554-.613-2.782-1.839-3.683-1.226-.901-2.888-1.351-4.984-1.351-1.421 0-2.665.21-3.731.632"/>
		<path fill="#0e0f0f" d="M90.928 81.416a5.495 5.495 0 0 1-.186-.794c0-.083.043-.124.133-.124h4.611c.106 0 .141.041.106.124-.089.48-.133.711-.133.695-.16.495-.44.88-.84 1.152-.399.274-.893.41-1.479.41-1.119 0-1.857-.488-2.212-1.463m8.529-2.902c-.018-.198-.134-.297-.347-.297h-8.235c-.107 0-.143-.041-.107-.124.053-.331.151-.661.293-.992.462-.926 1.404-1.389 2.825-1.389 1.138.016 2.035.447 2.692 1.29.071.099.151.149.24.149.054 0 .115-.034.187-.1l1.919-1.76c.089-.083.133-.157.133-.223 0-.034-.036-.1-.107-.199-.586-.678-1.341-1.202-2.265-1.574-.924-.372-1.937-.558-3.038-.558-1.528 0-2.821.322-3.879.967a5.454 5.454 0 0 0-2.278 2.703c-.373.826-.56 1.909-.56 3.248 0 .909.134 1.711.4 2.405a5.486 5.486 0 0 0 2.146 2.803c1.021.694 2.234 1.041 3.637 1.041 1.777 0 3.203-.48 4.278-1.438 1.075-.959 1.728-2.24 1.959-3.844a9.945 9.945 0 0 0 .107-2.108"/>
		<path fill="#0e0f0f" d="M108.518 75.91c.534.38.8.867.8 1.463v.893c0 .082-.045.124-.133.124h-1.919c-.8 0-1.426-.141-1.879-.422-.453-.281-.68-.678-.68-1.191 0-.445.168-.797.506-1.053.338-.257.791-.384 1.36-.384.764 0 1.412.189 1.945.57m1.68 9.41c.906-.372 1.612-.88 2.118-1.525.507-.644.76-1.364.76-2.157v-8.406a.278.278 0 0 0-.093-.211.322.322 0 0 0-.227-.087h-3.119a.32.32 0 0 0-.226.087.278.278 0 0 0-.093.211v.818c0 .05-.018.083-.053.099-.036.017-.072 0-.107-.049-.746-.91-1.946-1.364-3.598-1.364-1.386 0-2.505.314-3.358.942-.853.628-1.28 1.554-1.28 2.777 0 1.273.48 2.261 1.44 2.964.96.702 2.327 1.053 4.104 1.053h2.719c.088 0 .133.042.133.124v.546c0 .546-.178.971-.533 1.277-.356.306-.889.459-1.599.459-.551 0-1.009-.091-1.373-.273-.364-.182-.6-.438-.706-.769-.054-.182-.169-.264-.347-.248l-3.225.397c-.213.033-.311.107-.292.223.07.695.368 1.323.892 1.885s1.217 1 2.079 1.314c.862.314 1.826.471 2.892.471 1.155 0 2.185-.186 3.092-.558"/>
		<path fill="#0e0f0f" d="M127.785 90.206a.283.283 0 0 0 .093-.211v-2.43a.281.281 0 0 0-.093-.211.324.324 0 0 0-.227-.087h-4.77c-.09 0-.134-.041-.134-.124V73.232a.281.281 0 0 0-.093-.211.321.321 0 0 0-.227-.086h-3.118a.317.317 0 0 0-.226.086.275.275 0 0 0-.094.211v13.911c0 .083-.044.124-.133.124h-4.637a.319.319 0 0 0-.227.087.275.275 0 0 0-.094.211v2.43c0 .082.031.153.094.211a.319.319 0 0 0 .227.087h13.432a.324.324 0 0 0 .227-.087"/>
		<path fill="#0e0f0f" d="M136.873 85.594a.32.32 0 0 0 .227.087h3.118a.32.32 0 0 0 .227-.087.278.278 0 0 0 .093-.211v-12.15a.278.278 0 0 0-.093-.211.32.32 0 0 0-.227-.087H137.1a.32.32 0 0 0-.227.087.278.278 0 0 0-.093.211v.843c0 .05-.018.078-.053.087-.036.008-.072-.013-.107-.062-.711-.893-1.812-1.339-3.305-1.339-1.35 0-2.461.38-3.331 1.141-.871.76-1.306 1.826-1.306 3.198v8.282c0 .083.03.153.093.211a.32.32 0 0 0 .227.087h3.091a.322.322 0 0 0 .227-.087.278.278 0 0 0 .093-.211v-7.414c0-.661.191-1.199.573-1.612.382-.413.911-.62 1.586-.62.604 0 1.102.17 1.492.509.391.338.631.781.72 1.326v7.811c0 .083.031.153.093.211"/>
		<path fill="#0e0f0f" d="M154.715 84.664c.87-.81 1.306-1.91 1.306-3.298v-8.133a.275.275 0 0 0-.093-.211.322.322 0 0 0-.227-.087h-3.118a.319.319 0 0 0-.227.087.275.275 0 0 0-.093.211v7.414c0 .661-.2 1.198-.599 1.612-.4.413-.929.62-1.586.62-.658 0-1.186-.207-1.586-.62-.4-.414-.6-.951-.6-1.612v-7.414a.275.275 0 0 0-.093-.211.322.322 0 0 0-.226-.087h-3.119a.317.317 0 0 0-.226.087.272.272 0 0 0-.094.211v12.15c0 .083.031.153.094.211a.317.317 0 0 0 .226.087h3.119a.322.322 0 0 0 .226-.087.278.278 0 0 0 .093-.211v-.868c0-.049.018-.083.053-.099l.081.025c.728.959 1.812 1.438 3.251 1.438 1.421 0 2.568-.405 3.438-1.215"/>
		<path fill="#0e0f0f" d="M169.294 84.664c.87-.81 1.306-1.91 1.306-3.298v-8.133a.272.272 0 0 0-.094-.211.318.318 0 0 0-.226-.087h-3.118a.319.319 0 0 0-.227.087.275.275 0 0 0-.093.211v7.414c0 .661-.2 1.198-.6 1.612-.399.413-.928.62-1.585.62-.658 0-1.186-.207-1.586-.62-.4-.414-.6-.951-.6-1.612v-7.414a.272.272 0 0 0-.094-.211.318.318 0 0 0-.226-.087h-3.118a.317.317 0 0 0-.226.087.272.272 0 0 0-.094.211v12.15c0 .083.031.153.094.211a.317.317 0 0 0 .226.087h3.118a.318.318 0 0 0 .226-.087.275.275 0 0 0 .094-.211v-.868c0-.049.018-.083.053-.099l.081.025c.728.959 1.812 1.438 3.251 1.438 1.421 0 2.568-.405 3.438-1.215"/>
		<path fill="#0e0f0f" d="M177.742 81.416a5.365 5.365 0 0 1-.186-.794c0-.083.044-.124.132-.124h4.611c.107 0 .143.041.107.124-.089.48-.133.711-.133.695-.16.495-.44.88-.839 1.152-.4.274-.893.41-1.48.41-1.119 0-1.857-.488-2.212-1.463m8.529-2.902c-.018-.198-.134-.297-.347-.297h-8.236c-.106 0-.142-.041-.106-.124a4.24 4.24 0 0 1 .293-.992c.462-.926 1.404-1.389 2.825-1.389 1.137.016 2.035.447 2.692 1.29.071.099.151.149.239.149.054 0 .116-.034.187-.1l1.919-1.76c.089-.083.134-.157.134-.223 0-.034-.036-.1-.107-.199-.586-.678-1.341-1.202-2.265-1.574-.924-.372-1.937-.558-3.038-.558-1.529 0-2.822.322-3.879.967a5.456 5.456 0 0 0-2.279 2.703c-.372.826-.559 1.909-.559 3.248 0 .909.133 1.711.4 2.405a5.479 5.479 0 0 0 2.145 2.803c1.022.694 2.235 1.041 3.639 1.041 1.775 0 3.202-.48 4.277-1.438 1.075-.959 1.727-2.24 1.959-3.844a9.945 9.945 0 0 0 .107-2.108"/>
		<path fill="#0e0f0f" d="M189.507 73.022a.274.274 0 0 0-.093.211v16.763c0 .082.03.152.093.211a.322.322 0 0 0 .226.086h3.118a.324.324 0 0 0 .227-.086.28.28 0 0 0 .093-.211V73.233a.278.278 0 0 0-.093-.211.32.32 0 0 0-.227-.087h-3.118a.318.318 0 0 0-.226.087"/>
		<path fill="#68b4cf" d="M188.011 305.79a2.18 2.18 0 1 0-4.36 0 2.18 2.18 0 0 0 4.36 0"/>
		<path fill="#68b4cf" d="M158.61 293.457a2.18 2.18 0 1 0-4.36 0 2.18 2.18 0 0 0 4.36 0"/>
		<path fill="#477fb7" d="M150.385 264.234a2.18 2.18 0 1 0-4.36 0 2.18 2.18 0 0 0 4.36 0"/>
		<path fill="#4b8c9f" d="M172.08 247.906a3.739 3.739 0 1 0-7.477.001 3.739 3.739 0 0 0 7.477-.001"/>
		<path fill="#4b8c9f" d="M131.708 252.426a6.497 6.497 0 1 0-12.994 0 6.497 6.497 0 0 0 12.994 0"/>
		<path fill="#4983bb" d="M155.209 212.953a7.252 7.252 0 1 0-14.504 0 7.252 7.252 0 0 0 14.504 0"/>
		<path fill="#4b8c9f" d="M160.725 227.316a4.515 4.515 0 1 0-9.03 0 4.515 4.515 0 0 0 9.03 0"/>
		<path fill="#4b8c9f" d="M118.713 262.939a5.399 5.399 0 1 0-10.797 0 5.399 5.399 0 0 0 10.797 0"/>
		<path fill="#4586c1" d="M180.326 229.368a7.437 7.437 0 1 0-14.873.001 7.437 7.437 0 0 0 14.873-.001"/>
		<path fill="#4a86bc" d="M157.482 250.352a5.213 5.213 0 1 0-9.923-3.2 5.213 5.213 0 0 0 9.923 3.2"/>
		<path fill="#4a86bc" d="M184.122 202.78c0-5.683-4.607-10.291-10.291-10.291-5.683 0-10.29 4.608-10.29 10.291 0 5.684 4.607 10.291 10.29 10.291 5.684 0 10.291-4.607 10.291-10.291"/>
		<path fill="#68b4cf" d="M182.802 301.134a2.476 2.476 0 1 0-4.952 0 2.476 2.476 0 0 0 4.952 0"/>
		<path fill="#68b4cf" d="M174.8 296.687a3.23 3.23 0 1 0-6.459 0 3.23 3.23 0 0 0 6.459 0"/>
		<path fill="#68b4cf" d="M177.055 285.388a3.23 3.23 0 1 0-6.46-.002 3.23 3.23 0 0 0 6.46.002"/>
		<path fill="#477fb7" d="M166.793 276.505a4.797 4.797 0 1 0-9.593.001 4.797 4.797 0 0 0 9.593-.001"/>
		<path fill="#477fb7" d="M152.52 283.375a5.244 5.244 0 1 0-10.488 0 5.244 5.244 0 0 0 10.488 0"/>
		<path fill="#477fb7" d="M139.967 268.916a6.33 6.33 0 1 0-12.66 0 6.33 6.33 0 0 0 12.66 0"/>
		<path fill="#477fb7" d="M168.825 262.545a6.828 6.828 0 1 0-13.656 0 6.828 6.828 0 0 0 13.656 0"/>
		<path fill="#4b8c9f" d="M146.025 237.33a7.962 7.962 0 1 0-15.925 0 7.962 7.962 0 0 0 15.925 0"/>
	</g>
	<g clip-path="url(#b)" transform="matrix(1.33333 0 0 -1.33333 0 442.412)">
		<path fill="#3656a4" d="m69.844 177.215 57.888-34.783H69.844Z"/>
		<path fill="#3656a4" d="m69.844 177.823 58.9-35.391h-1.012l-57.888 34.783Z"/>
		<path fill="#3656a4" d="m69.844 178.43 59.911-35.998h-1.011l-58.9 35.39Z"/>
		<path fill="#3657a4" d="m69.844 179.038 60.922-36.606h-1.011L69.844 178.43Z"/>
		<path fill="#3757a5" d="m69.844 179.646 61.934-37.214h-1.012l-60.922 36.606Z"/>
		<path fill="#3758a5" d="m69.844 180.253 62.945-37.821h-1.011l-61.934 37.213Z"/>
		<path fill="#3758a5" d="m69.844 180.861 63.956-38.429h-1.011l-62.945 37.821Z"/>
		<path fill="#3759a6" d="m69.844 181.469 64.968-39.036H133.8l-63.956 38.428Z"/>
		<path fill="#3759a6" d="m69.844 182.076 65.979-39.644h-1.011l-64.968 39.036Z"/>
		<path fill="#385aa6" d="m69.844 182.684 66.99-40.252h-1.011l-65.979 39.644Z"/>
		<path fill="#385aa6" d="m69.844 183.292 68.002-40.859h-1.012l-66.99 40.251Z"/>
		<path fill="#385ba7" d="m69.844 183.9 69.013-41.467h-1.011l-68.002 40.859Z"/>
		<path fill="#385ba7" d="m69.844 184.507 70.024-42.075h-1.011l-69.013 41.467Z"/>
		<path fill="#385ca8" d="m69.844 185.115 71.036-42.682h-1.012l-70.024 42.074Z"/>
		<path fill="#385da8" d="m69.844 185.722 72.047-43.29h-1.011l-71.036 42.682Z"/>
		<path fill="#395da8" d="m69.844 186.33 73.058-43.898h-1.011l-72.047 43.29Z"/>
		<path fill="#395da8" d="m69.844 186.938 74.07-44.506h-1.012L69.844 186.33Z"/>
		<path fill="#395ea9" d="m69.844 187.545 75.081-45.113h-1.011l-74.07 44.505Z"/>
		<path fill="#395fa9" d="m69.844 188.153 76.092-45.721h-1.011l-75.081 45.113Z"/>
		<path fill="#3a5fa9" d="m69.844 188.76 77.104-46.329h-1.012l-76.092 45.721Z"/>
		<path fill="#3a60aa" d="m69.844 189.368 78.115-46.936h-1.011L69.844 188.76Z"/>
		<path fill="#3a60aa" d="m69.844 189.976 79.126-47.544h-1.011l-78.115 46.936Z"/>
		<path fill="#3a61aa" d="m69.844 190.584 80.137-48.151h-1.011l-79.126 47.543Z"/>
		<path fill="#3a61aa" d="m69.844 191.191 81.149-48.759h-1.012l-80.137 48.151Z"/>
		<path fill="#3b62ab" d="m69.844 191.8 82.16-49.367h-1.011l-81.149 48.759Z"/>
		<path fill="#3b62ab" d="m69.844 192.407 83.172-49.974h-1.012l-82.16 49.366Z"/>
		<path fill="#3b63ab" d="m69.844 193.014 84.183-50.582h-1.011l-83.172 49.974Z"/>
		<path fill="#3b64ac" d="m69.844 193.622 85.194-51.19h-1.011l-84.183 50.582Z"/>
		<path fill="#3c64ac" d="m69.844 194.23 86.206-51.797h-1.012l-85.194 51.189Z"/>
		<path fill="#3c65ac" d="m69.844 194.837 87.217-52.405h-1.011l-86.206 51.797Z"/>
		<path fill="#3c65ad" d="m69.844 195.445 88.228-53.013h-1.011l-87.217 52.405Z"/>
		<path fill="#3c66ad" d="m69.844 196.053 89.24-53.62h-1.012l-88.228 53.012Z"/>
		<path fill="#3c66ad" d="m69.844 196.66 90.251-54.228h-1.011l-89.24 53.62Z"/>
		<path fill="#3d67ae" d="m69.844 197.268 91.262-54.836h-1.011L69.844 196.66Z"/>
		<path fill="#3d67ae" d="m69.844 197.876 92.273-55.443h-1.011l-91.262 54.835Z"/>
		<path fill="#3d68ae" d="m69.844 198.483 93.285-56.051h-1.012l-92.273 55.443Z"/>
		<path fill="#3d69ae" d="m69.844 199.091 94.296-56.659h-1.011l-93.285 56.051Z"/>
		<path fill="#3e69af" d="m69.844 199.699 95.307-57.266h-1.011l-94.296 56.658Z"/>
		<path fill="#3e6aaf" d="m69.844 200.306 96.319-57.874h-1.012l-95.307 57.266Z"/>
		<path fill="#3e6ab0" d="m69.844 200.914 97.33-58.482h-1.011l-96.319 57.874Z"/>
		<path fill="#3e6bb0" d="m69.844 201.522 98.341-59.089h-1.011l-97.33 58.481Z"/>
		<path fill="#3e6bb0" d="m69.844 202.13 99.353-59.697h-1.012l-98.341 59.089Z"/>
		<path fill="#3f6cb0" d="m69.844 202.737 100.364-60.305h-1.011l-99.353 59.697Z"/>
		<path fill="#3f6db1" d="m69.844 203.345 101.375-60.912h-1.011L69.844 202.737Z"/>
		<path fill="#3f6db1" d="m69.844 203.952 102.387-61.52h-1.012L69.844 203.344Z"/>
		<path fill="#3f6eb1" d="m69.844 204.56 103.398-62.128h-1.011l-102.387 61.52Z"/>
		<path fill="#406eb2" d="m69.844 205.168 104.409-62.735h-1.011L69.844 204.56Z"/>
		<path fill="#406fb2" d="m69.844 205.775 105.421-63.343h-1.012L69.844 205.167Z"/>
		<path fill="#4070b2" d="m69.844 206.383 106.432-63.951h-1.011L69.844 205.775Z"/>
		<path fill="#4070b3" d="m69.844 206.99 107.443-64.558h-1.011l-106.432 63.95Z"/>
		<path fill="#4171b3" d="m69.844 207.598 108.455-65.166h-1.012L69.844 206.99Z"/>
		<path fill="#4172b3" d="m69.844 208.206 109.466-65.774h-1.011L69.844 207.598Z"/>
		<path fill="#4172b3" d="m69.844 208.814 110.477-66.381h-1.011L69.844 208.206Z"/>
		<path fill="#4173b4" d="m69.844 209.421 111.489-66.989h-1.012L69.844 208.813Z"/>
		<path fill="#4173b4" d="m69.844 210.029 112.5-67.597h-1.011L69.844 209.421Z"/>
		<path fill="#4274b4" d="m69.844 210.637 113.511-68.204h-1.011l-112.5 67.596Z"/>
		<path fill="#4274b5" d="m69.844 211.244 114.523-68.812h-1.012L69.844 210.636Z"/>
		<path fill="#4275b5" d="m69.844 211.852 115.534-69.42h-1.011L69.844 211.244Z"/>
		<path fill="#4276b5" d="m69.975 212.381 116.415-69.949h-1.011l-115.534 69.42v.529Z"/>
		<path fill="#4376b6" d="m70.986 212.381 116.415-69.949h-1.011L69.975 212.381Z"/>
		<path fill="#4377b6" d="m71.997 212.381 116.415-69.949h-1.011L70.986 212.381Z"/>
		<path fill="#4378b6" d="m73.008 212.381 116.415-69.949h-1.011L71.997 212.381Z"/>
		<path fill="#4378b6" d="m74.02 212.381 116.415-69.949h-1.011L73.009 212.381Z"/>
		<path fill="#4479b7" d="m75.031 212.381 116.415-69.949h-1.011L74.02 212.381Z"/>
		<path fill="#447ab7" d="m76.043 212.381 116.415-69.949h-1.011L75.032 212.381Z"/>
		<path fill="#447ab7" d="m77.054 212.381 116.415-69.949h-1.011L76.043 212.381Z"/>
		<path fill="#457bb8" d="m78.065 212.381 116.415-69.949h-1.011L77.054 212.381Z"/>
		<path fill="#457bb8" d="m79.076 212.381 116.415-69.949h-1.011L78.065 212.381Z"/>
		<path fill="#457cb8" d="m80.088 212.381 116.415-69.949h-1.011L79.077 212.381Z"/>
		<path fill="#457db9" d="m81.1 212.381 116.415-69.949h-1.011L80.089 212.381Z"/>
		<path fill="#457db9" d="m82.11 212.381 116.415-69.949h-1.011L81.099 212.381Z"/>
		<path fill="#467eb9" d="m83.122 212.381 116.415-69.949h-1.011L82.111 212.381Z"/>
		<path fill="#467fba" d="m84.133 212.381 116.415-69.949h-1.011L83.122 212.381Z"/>
		<path fill="#467fba" d="m85.144 212.381 115.615-69.469v-.48h-.211L84.133 212.381Z"/>
		<path fill="#4680ba" d="M86.156 212.381 200.76 143.52v-.608L85.145 212.381Z"/>
		<path fill="#4780bb" d="m87.167 212.381 113.592-68.253v-.608L86.156 212.381Z"/>
		<path fill="#4781bb" d="m88.178 212.381 112.581-67.646v-.607L87.167 212.381Z"/>
		<path fill="#4782bb" d="m89.19 212.381 111.57-67.038v-.608L88.179 212.381Z"/>
		<path fill="#4882bb" d="m90.201 212.381 110.559-66.43v-.608L89.19 212.381Z"/>
		<path fill="#4883bc" d="m91.212 212.381 109.547-65.823v-.607l-110.558 66.43Z"/>
		<path fill="#4884bc" d="m92.224 212.381 108.536-65.215v-.608L91.213 212.381Z"/>
		<path fill="#4884bc" d="m93.235 212.381 107.525-64.607v-.608L92.224 212.381Z"/>
		<path fill="#4985bd" d="m94.246 212.381 106.513-64v-.607L93.235 212.381Z"/>
		<path fill="#4986bd" d="m95.258 212.381 105.502-63.392v-.608l-106.513 64Z"/>
		<path fill="#4986bd" d="m96.269 212.381 104.491-62.784v-.608L95.258 212.381Z"/>
		<path fill="#4987be" d="m97.28 212.381 103.479-62.177v-.607l-104.49 62.784Z"/>
		<path fill="#4a88be" d="m98.292 212.381 102.468-61.569v-.608L97.281 212.381Z"/>
		<path fill="#4a88be" d="M99.303 212.381 200.76 151.42v-.608L98.292 212.381Z"/>
		<path fill="#4a89be" d="m100.314 212.381 100.445-60.354v-.607L99.303 212.381Z"/>
		<path fill="#4b8abf" d="m101.326 212.381 99.434-59.746v-.608l-100.445 60.354Z"/>
		<path fill="#4b8abf" d="m102.337 212.381 98.423-59.138v-.608l-99.434 59.746Z"/>
		<path fill="#4b8bbf" d="m103.348 212.381 97.411-58.531v-.607l-98.422 59.138Z"/>
		<path fill="#4b8cc0" d="m104.36 212.381 96.4-57.923v-.608l-97.411 58.531Z"/>
		<path fill="#4b8cc0" d="m105.37 212.381 95.389-57.315v-.608l-96.4 57.923Z"/>
		<path fill="#4c8dc0" d="m106.382 212.381 94.377-56.708v-.607l-95.388 57.315Z"/>
		<path fill="#4c8ec1" d="m107.394 212.381 93.366-56.1v-.608l-94.377 56.708Z"/>
		<path fill="#4c8ec1" d="m108.405 212.381 92.355-55.492v-.608l-93.366 56.1Z"/>
		<path fill="#4d8fc1" d="m109.416 212.381 91.343-54.885v-.607l-92.354 55.492Z"/>
		<path fill="#4d90c1" d="m110.427 212.381 90.332-54.277v-.608l-91.343 54.885Z"/>
		<path fill="#4d90c2" d="m111.439 212.381 89.321-53.669v-.608l-90.332 54.277Z"/>
		<path fill="#4d91c2" d="m112.45 212.381 88.309-53.062v-.607l-89.32 53.669Z"/>
		<path fill="#4e92c3" d="m113.462 212.381 87.298-52.454v-.608l-88.309 53.062Z"/>
		<path fill="#4e92c3" d="m114.473 212.381 86.287-51.846v-.608l-87.298 52.454Z"/>
		<path fill="#4e93c3" d="m115.484 212.381 85.275-51.239v-.607l-86.286 51.846Z"/>
		<path fill="#4f94c3" d="m116.496 212.381 84.264-50.631v-.608l-85.275 51.239Z"/>
		<path fill="#4f95c4" d="m117.507 212.381 83.253-50.023v-.608l-84.264 50.631Z"/>
		<path fill="#4f95c4" d="m118.518 212.381 82.241-49.416v-.607l-83.252 50.023Z"/>
		<path fill="#5096c4" d="m119.53 212.381 81.23-48.808v-.608l-82.241 49.416Z"/>
		<path fill="#5097c5" d="m120.54 212.381 80.219-48.2v-.608l-81.23 48.808Z"/>
		<path fill="#5097c5" d="m121.552 212.381 79.207-47.593v-.607l-80.218 48.2Z"/>
		<path fill="#5098c5" d="m122.563 212.381 78.196-46.985v-.608l-79.207 47.593Z"/>
		<path fill="#5199c6" d="m123.575 212.381 77.185-46.377v-.608l-78.196 46.985Z"/>
		<path fill="#519ac6" d="m124.586 212.381 76.173-45.77v-.607l-77.184 46.377Z"/>
		<path fill="#519ac6" d="m125.597 212.381 75.162-45.162v-.608l-76.173 45.77Z"/>
		<path fill="#529bc6" d="m126.609 212.381 74.151-44.554v-.608l-75.162 45.162Z"/>
		<path fill="#529cc7" d="m127.62 212.381 73.14-43.947v-.607l-74.151 44.554Z"/>
		<path fill="#529cc7" d="m128.631 212.381 72.128-43.339v-.608l-73.139 43.947Z"/>
		<path fill="#529dc7" d="m129.643 212.381 71.117-42.731v-.608l-72.128 43.339Z"/>
		<path fill="#539ec8" d="m130.654 212.381 70.106-42.124v-.607l-71.117 42.731Z"/>
		<path fill="#539ec8" d="m131.665 212.381 69.094-41.516v-.608l-70.105 42.124Z"/>
		<path fill="#539fc8" d="m132.677 212.381 68.083-40.908v-.608l-69.094 41.516Z"/>
		<path fill="#54a0c9" d="m133.688 212.381 67.072-40.301v-.607l-68.083 40.908Z"/>
		<path fill="#54a1c9" d="m134.7 212.381 66.06-39.693v-.608l-67.071 40.301Z"/>
		<path fill="#54a1c9" d="m135.71 212.381 65.049-39.085v-.608l-66.06 39.693Z"/>
		<path fill="#55a2c9" d="m136.722 212.381 64.038-38.478v-.607l-65.049 39.085Z"/>
		<path fill="#55a3ca" d="m137.733 212.381 63.026-37.87v-.608l-64.037 38.478Z"/>
		<path fill="#55a4ca" d="m138.745 212.381 62.015-37.262v-.608l-63.026 37.87Z"/>
		<path fill="#55a4ca" d="m139.756 212.381 61.004-36.655v-.607l-62.015 37.262Z"/>
		<path fill="#56a5cb" d="m140.767 212.381 59.992-36.047v-.608l-61.003 36.655Z"/>
		<path fill="#56a6cb" d="m141.779 212.381 58.981-35.439v-.608l-59.992 36.047Z"/>
		<path fill="#56a7cb" d="m142.79 212.381 57.97-34.832v-.607l-58.981 35.439Z"/>
		<path fill="#57a7cc" d="m143.801 212.381 56.958-34.224v-.608l-57.969 34.832Z"/>
		<path fill="#57a8cc" d="m144.813 212.381 55.947-33.616v-.608l-56.958 34.224Z"/>
		<path fill="#57a9cc" d="m145.824 212.381 54.936-33.009v-.607l-55.947 33.616Z"/>
		<path fill="#58aacd" d="m146.835 212.381 53.924-32.401v-.608l-54.935 33.009Z"/>
		<path fill="#58aacd" d="m147.846 212.381 52.913-31.793v-.608l-53.924 32.401Z"/>
		<path fill="#58abcd" d="m148.858 212.381 51.902-31.186v-.607l-52.913 31.793Z"/>
		<path fill="#59accd" d="m149.87 212.381 50.89-30.578v-.608l-51.901 31.186Z"/>
		<path fill="#59acce" d="m150.88 212.381 49.879-29.97v-.608l-50.89 30.578Z"/>
		<path fill="#59adce" d="m151.892 212.381 48.868-29.363v-.607l-49.879 29.97Z"/>
		<path fill="#5aaece" d="m152.903 212.381 47.856-28.755v-.608l-48.867 29.363Z"/>
		<path fill="#5aafcf" d="m153.915 212.381 46.845-28.147v-.608l-47.856 28.755Z"/>
		<path fill="#5ab0cf" d="m154.926 212.381 45.834-27.54v-.607l-46.845 28.147Z"/>
		<path fill="#5ab0cf" d="m155.937 212.381 44.822-26.932v-.608l-45.833 27.54Z"/>
		<path fill="#5bb1d0" d="m156.948 212.381 43.811-26.324v-.608l-44.822 26.932Z"/>
		<path fill="#5bb2d0" d="m157.96 212.381 42.8-25.717v-.607l-43.811 26.324Z"/>
		<path fill="#5bb3d0" d="m158.971 212.381 41.788-25.109v-.608l-42.799 25.717Z"/>
		<path fill="#5cb3d0" d="m159.982 212.381 40.777-24.501v-.608l-41.788 25.109Z"/>
		<path fill="#5cb4d1" d="m160.994 212.381 39.766-23.894v-.607l-40.777 24.501Z"/>
		<path fill="#5db5d1" d="m162.005 212.381 38.755-23.286v-.608l-39.766 23.894Z"/>
		<path fill="#5db6d1" d="m163.016 212.381 37.743-22.678v-.608l-38.754 23.286Z"/>
		<path fill="#5db6d2" d="m164.028 212.381 36.732-22.071v-.607l-37.743 22.678Z"/>
		<path fill="#5eb7d2" d="m165.039 212.381 35.721-21.463v-.608l-36.732 22.071Z"/>
		<path fill="#5eb8d2" d="m166.05 212.381 34.709-20.855v-.608l-35.72 21.463Z"/>
		<path fill="#5eb9d3" d="m167.062 212.381 33.698-20.248v-.607l-34.709 20.855Z"/>
		<path fill="#5ebad3" d="m168.073 212.381 32.687-19.64v-.608l-33.698 20.248Z"/>
		<path fill="#5fbad3" d="m169.084 212.381 31.675-19.032v-.608l-32.686 19.64Z"/>
		<path fill="#5fbbd3" d="m170.096 212.381 30.664-18.425v-.607l-31.675 19.032Z"/>
		<path fill="#5fbcd4" d="m171.107 212.381 29.653-17.817v-.608l-30.664 18.425Z"/>
		<path fill="#60bdd4" d="m172.118 212.381 28.641-17.209v-.608l-29.652 17.817Z"/>
		<path fill="#60bdd4" d="m200.76 195.172-28.641 17.209h28.641Z"/>
	</g>
	<g clip-path="url(#c)" transform="matrix(1.33333 0 0 -1.33333 0 442.412)">
		<path fill="#cdcae4" d="M96.797 212.689h-.116c-1.299-1.813-3.266-2.406-5.515-2.406 2.249 0 4.216.593 5.515 2.406h.116m-18.78-.307.021-.001-.021.001m0 0-.047-.001c-4.952-.023-8.131-4.081-8.126-9.215-.005 5.134 3.174 9.192 8.126 9.215l.047.001m5.928-.951.011-.002-.011.002m.045-.01.024-.006-.024.006m.321-.074.021-.005-.021.005m6.845-1.064h.006-.006m52.492-6.998c-2.551-.993-5.865-1.934-8.313-1.938 2.449.004 5.761.945 8.313 1.938m-8.33-1.938h.002-.002m-64.815-2.395.002-.007-.002.007m.008-.031.005-.019-.005.019m.01-.035.007-.029-.007.029m.008-.033c1.555-5.937 3.714-12.662 1.543-18.53l.02.048c2.142 5.856-.012 12.561-1.563 18.482"/>
	</g>
	<g clip-path="url(#d)" transform="matrix(1.33333 0 0 -1.33333 0 442.412)">
		<path fill="#3353a1" d="m69.84 177.218 56.09-33.702H69.84Z"/>
		<path fill="#3353a1" d="m69.84 177.985 57.366-34.469h-1.276l-56.09 33.702Z"/>
		<path fill="#3454a1" d="m69.84 178.752 58.642-35.236h-1.276L69.84 177.985Z"/>
		<path fill="#3454a1" d="m69.84 179.519 59.919-36.003h-1.277L69.84 178.752Z"/>
		<path fill="#3455a2" d="m69.84 180.286 61.195-36.77h-1.276L69.84 179.519Z"/>
		<path fill="#3455a2" d="m69.84 181.052 62.471-37.536h-1.276L69.84 180.285Z"/>
		<path fill="#3556a2" d="m69.84 181.82 63.747-38.303h-1.276L69.84 181.053Z"/>
		<path fill="#3556a3" d="m69.84 182.586 65.023-39.07h-1.276L69.84 181.819Z"/>
		<path fill="#3557a3" d="m69.84 183.353 66.3-39.837h-1.277l-65.023 39.07Z"/>
		<path fill="#3557a3" d="m69.84 184.12 67.576-40.604h-1.276l-66.3 39.837Z"/>
		<path fill="#3558a4" d="m69.84 184.887 68.852-41.371h-1.276L69.84 184.12Z"/>
		<path fill="#3558a4" d="m69.84 185.653 70.128-42.137h-1.276l-68.852 41.37Z"/>
		<path fill="#3659a4" d="m69.84 186.42 71.404-42.904h-1.276L69.84 185.653Z"/>
		<path fill="#3659a4" d="m69.84 187.187 72.681-43.671h-1.277L69.84 186.42Z"/>
		<path fill="#365aa5" d="m69.84 187.954 73.957-44.438h-1.276L69.84 187.187Z"/>
		<path fill="#365ba5" d="m69.84 188.72 75.233-45.205h-1.276L69.84 187.953Z"/>
		<path fill="#375ba5" d="m69.84 189.487 76.509-45.971h-1.276L69.84 188.72Z"/>
		<path fill="#375ca6" d="m69.84 190.254 77.785-46.738h-1.276L69.84 189.487Z"/>
		<path fill="#375ca6" d="m69.84 191.021 79.062-47.505h-1.277L69.84 190.254Z"/>
		<path fill="#375da6" d="m69.84 191.788 80.338-48.272h-1.276L69.84 191.021Z"/>
		<path fill="#375da7" d="m69.84 192.555 81.614-49.039h-1.276L69.84 191.788Z"/>
		<path fill="#385ea7" d="m69.84 193.321 82.89-49.805h-1.276L69.84 192.554Z"/>
		<path fill="#385ea7" d="m69.84 194.088 84.166-50.572h-1.276l-82.89 49.805Z"/>
		<path fill="#385fa8" d="m69.84 194.855 85.443-51.339h-1.277L69.84 194.088Z"/>
		<path fill="#385fa8" d="m69.84 195.622 86.719-52.106h-1.276L69.84 194.855Z"/>
		<path fill="#3860a8" d="m69.84 196.389 87.995-52.873h-1.276L69.84 195.622Z"/>
		<path fill="#3960a9" d="m69.84 197.155 89.271-53.64h-1.276L69.84 196.388Z"/>
		<path fill="#3961a9" d="m69.84 197.922 90.239-54.221v-.185h-.968L69.84 197.155Z"/>
		<path fill="#3962a9" d="m69.84 198.69 90.239-54.221v-.767L69.84 197.923Z"/>
		<path fill="#3962a9" d="m69.84 199.456 90.239-54.221v-.767L69.84 198.689Z"/>
		<path fill="#3a63aa" d="m69.84 200.223 90.239-54.221v-.767L69.84 199.456Z"/>
		<path fill="#3a63aa" d="m69.84 200.99 90.239-54.221v-.767L69.84 200.223Z"/>
		<path fill="#3a64aa" d="m69.84 201.756 90.239-54.221v-.767L69.84 200.989Z"/>
		<path fill="#3a64ab" d="m69.84 202.523 90.239-54.221v-.767L69.84 201.756Z"/>
		<path fill="#3b65ab" d="m69.84 203.29 90.239-54.221v-.767L69.84 202.523Z"/>
		<path fill="#3b66ab" d="m69.84 204.057 90.239-54.221v-.767L69.84 203.29Z"/>
		<path fill="#3b66ac" d="m69.84 204.824 90.239-54.221v-.767L69.84 204.057Z"/>
		<path fill="#3b67ac" d="m69.84 205.59 90.239-54.221v-.767L69.84 204.823Z"/>
		<path fill="#3b67ac" d="m69.84 206.357 90.239-54.221v-.767L69.84 205.59Z"/>
		<path fill="#3c68ad" d="m69.84 207.124 90.239-54.221v-.767L69.84 206.357Z"/>
		<path fill="#3c68ad" d="m69.84 207.89 90.239-54.221v-.767L69.84 207.123Z"/>
		<path fill="#3c69ad" d="m69.84 208.658 90.239-54.221v-.767L69.84 207.891Z"/>
		<path fill="#3c6aae" d="m69.84 209.425 90.239-54.221v-.767L69.84 208.658Z"/>
		<path fill="#3c6aae" d="m69.84 210.191 90.239-54.221v-.767L69.84 209.424Z"/>
		<path fill="#3d6bae" d="m69.84 210.958 90.239-54.221v-.767L69.84 210.191Z"/>
		<path fill="#3d6bae" d="m69.84 211.725 90.239-54.221v-.767L69.84 210.958Z"/>
		<path fill="#3d6caf" d="m69.84 212.492 90.239-54.221v-.767L69.84 211.725Z"/>
		<path fill="#3d6caf" d="m70.787 212.689 89.291-53.651v-.767l-90.239 54.221v.197Z"/>
		<path fill="#3e6daf" d="m72.063 212.689 88.014-52.884v-.767l-89.29 53.651Z"/>
		<path fill="#3e6eb0" d="m73.34 212.689 86.738-52.118v-.766l-88.014 52.884Z"/>
		<path fill="#3e6eb0" d="m74.616 212.689 85.462-51.351v-.767L73.34 212.689Z"/>
		<path fill="#3e6fb0" d="m75.892 212.689 84.186-50.584v-.767l-85.462 51.351Z"/>
		<path fill="#3f6fb1" d="m77.168 212.689 82.91-49.817v-.767l-84.186 50.584Z"/>
		<path fill="#3f70b1" d="m78.444 212.689 81.633-49.05v-.767l-82.909 49.817Z"/>
		<path fill="#3f71b1" d="m79.72 212.689 80.357-48.284v-.766l-81.633 49.05Z"/>
		<path fill="#3f71b2" d="m80.997 212.689 79.081-47.517v-.767l-80.357 48.284Z"/>
		<path fill="#4072b2" d="m82.273 212.689 77.805-46.75v-.767l-79.081 47.517Z"/>
		<path fill="#4073b2" d="m83.55 212.689 76.529-45.983v-.767l-77.805 46.75Z"/>
		<path fill="#4073b2" d="m84.825 212.689 75.253-45.216v-.767l-76.529 45.983Z"/>
		<path fill="#4074b3" d="m86.102 212.689 73.976-44.45v-.766l-75.252 45.216Z"/>
		<path fill="#4174b3" d="m87.378 212.689 72.7-43.683v-.767l-73.976 44.45Z"/>
		<path fill="#4175b3" d="m88.654 212.689 71.424-42.916v-.767l-72.7 43.683Z"/>
		<path fill="#4176b4" d="m89.93 212.689 70.148-42.149v-.767l-71.424 42.916Z"/>
		<path fill="#4176b4" d="m91.206 212.689 68.872-41.382v-.767L89.93 212.689Z"/>
		<path fill="#4277b4" d="m92.483 212.689 67.595-40.615v-.767l-68.871 41.382Z"/>
		<path fill="#4277b5" d="m93.759 212.689 66.319-39.849v-.766l-67.595 40.615Z"/>
		<path fill="#4278b5" d="m95.035 212.689 65.043-39.082v-.767l-66.319 39.849Z"/>
		<path fill="#4279b5" d="m96.311 212.689 63.767-38.315v-.767l-65.043 39.082Z"/>
		<path fill="#4379b5" d="m97.587 212.689 62.491-37.548v-.767l-63.767 38.315Z"/>
		<path fill="#437ab6" d="m98.864 212.689 61.214-36.781v-.767l-62.49 37.548Z"/>
		<path fill="#437bb6" d="m100.14 212.689 59.938-36.015v-.766l-61.214 36.781Z"/>
		<path fill="#447bb6" d="m101.416 212.689 58.662-35.248v-.767l-59.938 36.015Z"/>
		<path fill="#447cb7" d="m102.692 212.689 57.386-34.481v-.767l-58.662 35.248Z"/>
		<path fill="#447cb7" d="m103.968 212.689 56.11-33.714v-.767l-57.386 34.481Z"/>
		<path fill="#447db7" d="m105.245 212.689 54.833-32.947v-.767l-56.109 33.714Z"/>
		<path fill="#457eb8" d="m106.52 212.689 53.557-32.18v-.767l-54.833 32.947Z"/>
		<path fill="#457eb8" d="m107.797 212.689 52.281-31.414v-.766l-53.557 32.18Z"/>
		<path fill="#457fb8" d="m109.073 212.689 51.005-30.647v-.767l-52.281 31.414Z"/>
		<path fill="#4580b9" d="m110.35 212.689 49.729-29.88v-.767l-51.005 30.647Z"/>
		<path fill="#4680b9" d="m111.625 212.689 48.452-29.113v-.767l-49.728 29.88Z"/>
		<path fill="#4681b9" d="m112.902 212.689 47.176-28.346v-.767l-48.452 29.113Z"/>
		<path fill="#4682ba" d="m114.178 212.689 45.9-27.579v-.767l-47.176 28.346Z"/>
		<path fill="#4682ba" d="m115.454 212.689 44.624-26.813v-.766l-45.9 27.579Z"/>
		<path fill="#4783ba" d="m116.73 212.689 43.348-26.046v-.767l-44.624 26.813Z"/>
		<path fill="#4784ba" d="m118.006 212.689 42.072-25.279v-.767l-43.348 26.046Z"/>
		<path fill="#4784bb" d="m119.283 212.689 40.795-24.512v-.767l-42.071 25.279Z"/>
		<path fill="#4885bb" d="m120.559 212.689 39.519-23.745v-.767l-40.795 24.512Z"/>
		<path fill="#4886bb" d="m121.835 212.689 38.243-22.979v-.766l-39.519 23.745Z"/>
		<path fill="#4886bc" d="m123.111 212.689 36.967-22.212v-.767l-38.243 22.979Z"/>
		<path fill="#4887bc" d="m124.387 212.689 35.691-21.445v-.767l-36.967 22.212Z"/>
		<path fill="#4988bc" d="m125.664 212.689 34.414-20.678v-.767l-35.69 21.445Z"/>
		<path fill="#4988bd" d="m126.94 212.689 33.138-19.911v-.767l-34.414 20.678Z"/>
		<path fill="#4989bd" d="m128.216 212.689 31.862-19.145v-.766l-33.138 19.911Z"/>
		<path fill="#498abd" d="m129.492 212.689 30.586-18.378v-.767l-31.862 19.145Z"/>
		<path fill="#4a8abe" d="m130.768 212.689 29.31-17.611v-.767l-30.586 18.378Z"/>
		<path fill="#4a8bbe" d="m132.045 212.689 28.033-16.844v-.767l-29.309 17.611Z"/>
		<path fill="#4a8bbe" d="m133.32 212.689 26.757-16.077v-.767l-28.033 16.844Z"/>
		<path fill="#4b8cbe" d="m134.597 212.689 25.481-15.311v-.766l-26.757 16.077Z"/>
		<path fill="#4b8dbf" d="m135.873 212.689 24.205-14.544v-.767l-25.481 15.311Z"/>
		<path fill="#4b8ebf" d="m137.15 212.689 22.929-13.777v-.767l-24.205 14.544Z"/>
		<path fill="#4b8ebf" d="m138.425 212.689 21.652-13.01v-.767l-22.928 13.777Z"/>
		<path fill="#4c8fc0" d="m139.702 212.689 20.376-12.243v-.767l-21.652 13.01Z"/>
		<path fill="#4c90c0" d="m140.978 212.689 19.1-11.476v-.767l-20.376 12.243Z"/>
		<path fill="#4c90c0" d="m142.254 212.689 17.824-10.71v-.766l-19.1 11.476Z"/>
		<path fill="#4d91c1" d="m143.53 212.689 16.548-9.943v-.767l-17.824 10.71Z"/>
		<path fill="#4d92c1" d="m144.806 212.689 15.271-9.176v-.767l-16.547 9.943Z"/>
		<path fill="#4d92c1" d="m146.083 212.689 13.995-8.409v-.767l-15.271 9.176Z"/>
		<path fill="#4d93c1" d="m147.359 212.689 12.719-7.642v-.767l-13.995 8.409Z"/>
		<path fill="#4e94c2" d="m148.635 212.689 11.443-6.876v-.766l-12.719 7.642Z"/>
		<path fill="#4e95c2" d="m149.911 212.689 10.167-6.109v-.767l-11.443 6.876Z"/>
		<path fill="#4e95c2" d="m151.188 212.689 8.89-5.342v-.767l-10.166 6.109Z"/>
		<path fill="#4f96c3" d="m152.464 212.689 7.614-4.575v-.767l-8.89 5.342Z"/>
		<path fill="#4f97c3" d="m153.74 212.689 6.338-3.808v-.767l-7.614 4.575Z"/>
		<path fill="#4f97c3" d="m155.016 212.689 5.062-3.041v-.767l-6.338 3.808Z"/>
		<path fill="#4f98c4" d="m156.292 212.689 3.786-2.275v-.766l-5.062 3.041Z"/>
		<path fill="#5099c4" d="m157.569 212.689 2.509-1.508v-.767l-3.785 2.275Z"/>
		<path fill="#5099c4" d="m158.845 212.689 1.233-.741v-.767l-2.509 1.508Z"/>
		<path fill="#509ac5" d="m160.078 211.948-1.233.741h1.233Z"/>
	</g>
	<g clip-path="url(#e)" transform="matrix(1.33333 0 0 -1.33333 0 442.412)">
		<path fill="#52b8b2" d="M75.282 236.166a9.483 9.483 0 0 0-9.483-9.483 9.483 9.483 0 1 0 9.483 9.483"/>
		<path fill="#67acc2" d="M223.618 153.64a6.19 6.19 0 1 0-12.378 0 6.19 6.19 0 0 0 12.378 0"/>
	</g>
	<g clip-path="url(#f)" transform="matrix(1.33333 0 0 -1.33333 0 442.412)">
		<path fill="#3656a4" d="m67.247 129.633 37.305-31.303H67.247Z"/>
		<path fill="#3656a4" d="m67.247 130.631 38.494-32.3h-1.189l-37.305 31.302Z"/>
		<path fill="#3656a4" d="m67.247 131.629 39.683-33.298h-1.189l-38.494 32.3Z"/>
		<path fill="#3657a4" d="m67.247 132.626 40.872-34.296h-1.189l-39.683 33.298Z"/>
		<path fill="#3757a5" d="m67.247 133.624 42.061-35.293h-1.189l-40.872 34.295Z"/>
		<path fill="#3758a5" d="m67.247 134.621 43.25-36.291h-1.189l-42.061 35.293Z"/>
		<path fill="#3758a5" d="m67.247 135.62 44.439-37.289h-1.189l-43.25 36.291Z"/>
		<path fill="#3759a6" d="m67.247 136.617 45.628-38.286h-1.189l-44.439 37.288Z"/>
		<path fill="#3759a6" d="m67.247 137.614 46.817-39.284h-1.189l-45.628 38.286Z"/>
		<path fill="#385aa6" d="m67.247 138.612 48.006-40.281h-1.189l-46.817 39.283Z"/>
		<path fill="#385aa6" d="m67.247 139.61 49.194-41.279h-1.188l-48.006 40.281Z"/>
		<path fill="#385ba7" d="M67.247 140.607 117.63 98.33h-1.189l-49.194 41.279Z"/>
		<path fill="#385ba7" d="m67.247 141.605 51.572-43.274h-1.189l-50.383 42.276Z"/>
		<path fill="#385ca8" d="m67.247 142.602 52.761-44.272h-1.189l-51.572 43.274Z"/>
		<path fill="#385da8" d="m67.247 143.6 53.95-45.27h-1.189l-52.761 44.272Z"/>
		<path fill="#395da8" d="m67.247 144.598 55.139-46.267h-1.189L67.247 143.6Z"/>
		<path fill="#395da8" d="m67.247 145.595 56.328-47.265h-1.189l-55.139 46.267Z"/>
		<path fill="#395ea9" d="m67.247 146.593 57.517-48.262h-1.189l-56.328 47.264Z"/>
		<path fill="#395fa9" d="m67.247 147.59 58.706-49.26h-1.189l-57.517 48.262Z"/>
		<path fill="#3a5fa9" d="m67.247 148.588 59.895-50.258h-1.189l-58.706 49.26Z"/>
		<path fill="#3a60aa" d="m67.247 149.586 61.084-51.255h-1.189l-59.895 50.257Z"/>
		<path fill="#3a60aa" d="M67.247 150.583 129.52 98.33h-1.189l-61.084 51.255Z"/>
		<path fill="#3a61aa" d="m67.247 151.581 63.461-53.251h-1.188l-62.273 52.253Z"/>
		<path fill="#3a61aa" d="m67.247 152.579 64.65-54.248h-1.189l-63.461 53.25Z"/>
		<path fill="#3b62ab" d="m67.247 153.576 65.839-55.246h-1.189l-64.65 54.248Z"/>
		<path fill="#3b62ab" d="m67.247 154.574 67.028-56.243h-1.189l-65.839 55.245Z"/>
		<path fill="#3b63ab" d="m67.247 155.572 68.217-57.241h-1.189l-67.028 56.243Z"/>
		<path fill="#3b64ac" d="m67.247 156.57 69.406-58.239h-1.189l-68.217 57.241Z"/>
		<path fill="#3c64ac" d="m67.247 157.567 70.595-59.236h-1.189l-69.406 58.238Z"/>
		<path fill="#3c65ac" d="m67.247 158.564 71.784-60.234h-1.189l-70.595 59.236Z"/>
		<path fill="#3c65ad" d="m67.247 159.562 72.973-61.231h-1.189l-71.784 60.233Z"/>
		<path fill="#3c66ad" d="m67.247 160.56 74.162-62.229h-1.189l-72.973 61.231Z"/>
		<path fill="#3c66ad" d="m67.247 161.557 75.351-63.227h-1.189l-74.162 62.229Z"/>
		<path fill="#3d67ae" d="m67.247 162.555 76.54-64.224h-1.189l-75.351 63.226Z"/>
		<path fill="#3d67ae" d="m67.247 163.553 77.729-65.222h-1.189l-76.54 64.224Z"/>
		<path fill="#3d68ae" d="m67.247 164.55 78.917-66.22h-1.188l-77.729 65.222Z"/>
		<path fill="#3d69ae" d="m67.247 165.548 80.106-67.217h-1.189L67.247 164.55Z"/>
		<path fill="#3e69af" d="m67.247 166.545 81.295-68.215h-1.189l-80.106 67.217Z"/>
		<path fill="#3e6aaf" d="m67.247 167.543 82.484-69.212h-1.189l-81.295 68.214Z"/>
		<path fill="#3e6ab0" d="m67.247 168.54 83.673-70.21h-1.189l-82.484 69.212Z"/>
		<path fill="#3e6bb0" d="m67.247 169.538 84.862-71.208h-1.189l-83.673 70.21Z"/>
		<path fill="#3e6bb0" d="m67.247 170.536 86.051-72.205h-1.189l-84.862 71.207Z"/>
		<path fill="#3f6cb0" d="m67.247 171.534 87.24-73.203h-1.189l-86.051 72.205Z"/>
		<path fill="#3f6db1" d="m67.247 172.531 88.429-74.201h-1.189l-87.24 73.203Z"/>
		<path fill="#3f6db1" d="m67.247 173.529 89.618-75.198h-1.189l-88.429 74.2Z"/>
		<path fill="#3f6eb1" d="m67.247 174.526 90.807-76.196h-1.189l-89.618 75.198Z"/>
		<path fill="#406eb2" d="m67.247 175.524 91.996-77.193h-1.189l-90.807 76.195Z"/>
		<path fill="#406fb2" d="m67.247 176.522 93.184-78.191h-1.188l-91.996 77.193Z"/>
		<path fill="#4070b2" d="m67.247 177.52 94.373-79.189h-1.189l-93.184 78.191Z"/>
		<path fill="#4070b3" d="m67.247 178.517 95.562-80.186h-1.189l-94.373 79.188Z"/>
		<path fill="#4171b3" d="m67.247 179.514 96.751-81.184h-1.189l-95.562 80.186Z"/>
		<path fill="#4172b3" d="m67.247 180.512 97.94-82.182h-1.189l-96.751 81.184Z"/>
		<path fill="#4172b3" d="m67.247 181.51 99.129-83.179h-1.189l-97.94 82.181Z"/>
		<path fill="#4173b4" d="M67.247 182.507 167.565 98.33h-1.189l-99.129 83.179Z"/>
		<path fill="#4173b4" d="m67.247 183.505 101.507-85.174h-1.189L67.247 182.507Z"/>
		<path fill="#4274b4" d="m67.247 184.503 102.696-86.172h-1.189L67.247 183.505Z"/>
		<path fill="#4274b5" d="m67.247 185.5 103.885-87.17h-1.189L67.247 184.502Z"/>
		<path fill="#4275b5" d="m67.247 186.498 105.074-88.167h-1.189L67.247 185.5Z"/>
		<path fill="#4276b5" d="M67.247 187.495 173.51 98.33h-1.189L67.247 186.497Z"/>
		<path fill="#4376b6" d="m67.247 188.493 107.451-90.162h-1.188L67.247 187.495Z"/>
		<path fill="#4377b6" d="m67.247 189.49 108.64-91.16h-1.189L67.247 188.492Z"/>
		<path fill="#4378b6" d="M67.247 190.488 177.076 98.33h-1.189l-108.64 91.16Z"/>
		<path fill="#4378b6" d="m67.247 191.486 111.018-93.155h-1.189L67.247 190.488Z"/>
		<path fill="#4479b7" d="M67.247 192.483 179.454 98.33h-1.189L67.247 191.485Z"/>
		<path fill="#447ab7" d="M67.247 193.481 180.643 98.33h-1.189L67.247 192.483Z"/>
		<path fill="#447ab7" d="m67.247 194.479 114.585-96.148h-1.189l-113.396 95.15Z"/>
		<path fill="#457bb8" d="M67.247 195.476 183.021 98.33h-1.189L67.247 194.478Z"/>
		<path fill="#457bb8" d="M67.247 196.474 184.21 98.331h-1.189L67.247 195.476Z"/>
		<path fill="#457cb8" d="m67.247 197.472 118.152-99.141h-1.189L67.247 196.474Z"/>
		<path fill="#457db9" d="M67.247 198.47 186.588 98.331h-1.189L67.247 197.472Z"/>
		<path fill="#457db9" d="m67.247 199.467 120.53-101.136h-1.189L67.247 198.469Z"/>
		<path fill="#467eb9" d="M67.247 200.464 188.965 98.33h-1.188L67.247 199.466Z"/>
		<path fill="#467fba" d="M67.247 201.462 190.154 98.33h-1.189L67.247 200.464Z"/>
		<path fill="#467fba" d="M67.247 202.46 191.343 98.331h-1.189L67.247 201.462Z"/>
		<path fill="#4680ba" d="M67.247 203.457 192.532 98.33h-1.189L67.247 202.459Z"/>
		<path fill="#4780bb" d="M67.247 204.455 193.721 98.331h-1.189L67.247 203.457Z"/>
		<path fill="#4781bb" d="M67.247 205.453 194.91 98.331h-1.189L67.247 204.455Z"/>
		<path fill="#4782bb" d="M67.247 206.45 196.099 98.33h-1.189L67.247 205.452Z"/>
		<path fill="#4882bb" d="M67.247 207.448 197.288 98.331h-1.189L67.247 206.45Z"/>
		<path fill="#4883bc" d="m67.247 208.446 131.23-110.115h-1.189L67.247 207.448Z"/>
		<path fill="#4884bc" d="M67.247 209.443 199.666 98.33h-1.189L67.247 208.445Z"/>
		<path fill="#4884bc" d="M67.247 210.44 200.855 98.33h-1.189L67.247 209.442Z"/>
		<path fill="#4985bd" d="M67.247 211.438 202.044 98.33h-1.189L67.247 210.44Z"/>
		<path fill="#4986bd" d="m67.247 212.436 134.96-113.245v-.86h-.163L67.247 211.438Z"/>
		<path fill="#4986bd" d="m67.247 213.434 134.96-113.245v-.998L67.247 212.436Z"/>
		<path fill="#4987be" d="m67.247 214.431 134.96-113.245v-.998L67.247 213.433Z"/>
		<path fill="#4a88be" d="m67.247 215.429 134.96-113.245v-.998L67.247 214.431Z"/>
		<path fill="#4a88be" d="m67.247 216.426 134.96-113.245v-.998L67.247 215.428Z"/>
		<path fill="#4a89be" d="m67.247 217.424 134.96-113.245v-.998L67.247 216.426Z"/>
		<path fill="#4b8abf" d="m67.247 218.422 134.96-113.245v-.998L67.247 217.424Z"/>
		<path fill="#4b8abf" d="m67.247 219.42 134.96-113.245v-.998L67.247 218.422Z"/>
		<path fill="#4b8bbf" d="m67.247 220.417 134.96-113.245v-.998L67.247 219.419Z"/>
		<path fill="#4b8cc0" d="m67.247 221.415 134.96-113.245v-.998L67.247 220.417Z"/>
		<path fill="#4b8cc0" d="m67.247 222.412 134.96-113.245v-.998L67.247 221.414Z"/>
		<path fill="#4c8dc0" d="m67.247 223.41 134.96-113.245v-.998L67.247 222.412Z"/>
		<path fill="#4c8ec1" d="m67.247 224.407 134.96-113.245v-.998L67.247 223.409Z"/>
		<path fill="#4c8ec1" d="m67.247 225.405 134.96-113.245v-.998L67.247 224.407Z"/>
		<path fill="#4d8fc1" d="m67.247 226.403 134.96-113.245v-.998L67.247 225.405Z"/>
		<path fill="#4d90c1" d="m67.247 227.4 134.96-113.245v-.998L67.247 226.402Z"/>
		<path fill="#4d90c2" d="m67.247 228.398 134.96-113.245v-.998L67.247 227.4Z"/>
		<path fill="#4d91c2" d="m67.247 229.395 134.96-113.245v-.998L67.247 228.397Z"/>
		<path fill="#4e92c3" d="m67.247 230.393 134.96-113.245v-.998L67.247 229.395Z"/>
		<path fill="#4e92c3" d="m67.247 231.39 134.96-113.245v-.998L67.247 230.392Z"/>
		<path fill="#4e93c3" d="m67.247 232.388 134.96-113.245v-.998L67.247 231.39Z"/>
		<path fill="#4f94c3" d="m67.247 233.386 134.96-113.245v-.998L67.247 232.388Z"/>
		<path fill="#4f95c4" d="m67.247 234.384 134.96-113.245v-.998L67.247 233.386Z"/>
		<path fill="#4f95c4" d="m67.247 235.381 134.96-113.245v-.998L67.247 234.383Z"/>
		<path fill="#5096c4" d="m67.247 236.379 134.96-113.245v-.998L67.247 235.381Z"/>
		<path fill="#5097c5" d="m67.247 237.376 134.96-113.245v-.998L67.247 236.378Z"/>
		<path fill="#5097c5" d="m67.247 238.374 134.96-113.245v-.998L67.247 237.376Z"/>
		<path fill="#5098c5" d="m67.247 239.372 134.96-113.245v-.998L67.247 238.374Z"/>
		<path fill="#5199c6" d="m67.247 240.37 134.96-113.245v-.998L67.247 239.372Z"/>
		<path fill="#519ac6" d="m67.247 241.367 134.96-113.245v-.998L67.247 240.369Z"/>
		<path fill="#519ac6" d="m67.247 242.364 134.96-113.245v-.998L67.247 241.366Z"/>
		<path fill="#529bc6" d="m67.247 243.362 134.96-113.245v-.998L67.247 242.364Z"/>
		<path fill="#529cc7" d="m67.247 244.36 134.96-113.245v-.998L67.247 243.362Z"/>
		<path fill="#529cc7" d="m67.247 245.357 134.96-113.245v-.998L67.247 244.359Z"/>
		<path fill="#529dc7" d="m67.247 246.355 134.96-113.245v-.998L67.247 245.357Z"/>
		<path fill="#539ec8" d="m67.247 247.353 134.96-113.245v-.998L67.247 246.355Z"/>
		<path fill="#539ec8" d="m67.247 248.35 134.96-113.245v-.998L67.247 247.352Z"/>
		<path fill="#539fc8" d="m67.247 249.348 134.96-113.245v-.998L67.247 248.35Z"/>
		<path fill="#54a0c9" d="M67.247 250.345 202.207 137.1v-.998L67.247 249.347Z"/>
		<path fill="#54a1c9" d="m67.247 251.343 134.96-113.245v-.998L67.247 250.345Z"/>
		<path fill="#54a1c9" d="m67.247 252.34 134.96-113.245v-.998L67.247 251.342Z"/>
		<path fill="#55a2c9" d="m67.247 253.338 134.96-113.245v-.998L67.247 252.34Z"/>
		<path fill="#55a3ca" d="m67.247 254.336 134.96-113.245v-.998L67.247 253.338Z"/>
		<path fill="#55a4ca" d="m67.247 255.334 134.96-113.245v-.998L67.247 254.336Z"/>
		<path fill="#55a4ca" d="m67.247 256.331 134.96-113.245v-.998L67.247 255.333Z"/>
		<path fill="#56a5cb" d="m67.586 257.045 134.622-112.961v-.998L67.247 256.331v.714Z"/>
		<path fill="#56a6cb" d="m68.775 257.045 133.433-111.964v-.997L67.586 257.045Z"/>
		<path fill="#56a7cb" d="m69.964 257.045 132.244-110.966v-.998L68.775 257.045Z"/>
		<path fill="#57a7cc" d="m71.153 257.045 131.055-109.968v-.998L69.964 257.045Z"/>
		<path fill="#57a8cc" d="m72.342 257.045 129.866-108.971v-.997L71.153 257.045Z"/>
		<path fill="#57a9cc" d="m73.53 257.045 128.677-107.973v-.998L72.341 257.045Z"/>
		<path fill="#58aacd" d="M74.72 257.045 202.208 150.07v-.998L73.531 257.045Z"/>
		<path fill="#58aacd" d="m75.908 257.045 126.299-105.978v-.997L74.719 257.045Z"/>
		<path fill="#58abcd" d="m77.097 257.045 125.11-104.98v-.998L75.908 257.045Z"/>
		<path fill="#59accd" d="m78.286 257.045 123.921-103.982v-.998l-125.11 104.98Z"/>
		<path fill="#59acce" d="M79.475 257.045 202.207 154.06v-.997L78.286 257.045Z"/>
		<path fill="#59adce" d="m80.664 257.045 121.544-101.987v-.998L79.475 257.045Z"/>
		<path fill="#5aaece" d="m81.853 257.045 120.355-100.99v-.997L80.664 257.045Z"/>
		<path fill="#5aafcf" d="m83.042 257.045 119.166-99.992v-.998L81.853 257.045Z"/>
		<path fill="#5ab0cf" d="m84.23 257.045 117.977-98.994v-.998L83.041 257.045Z"/>
		<path fill="#5ab0cf" d="m85.42 257.045 116.788-97.997v-.997L84.231 257.045Z"/>
		<path fill="#5bb1d0" d="m86.609 257.045 115.599-96.999v-.998L85.42 257.045Z"/>
		<path fill="#5bb2d0" d="m87.798 257.045 114.41-96.001v-.998L86.609 257.045Z"/>
		<path fill="#5bb3d0" d="m88.987 257.045 113.221-95.004v-.997l-114.41 96.001Z"/>
		<path fill="#5cb3d0" d="m90.175 257.045 112.032-94.006v-.998L88.986 257.045Z"/>
		<path fill="#5cb4d1" d="m91.364 257.045 110.843-93.009v-.997L90.175 257.045Z"/>
		<path fill="#5db5d1" d="m92.553 257.045 109.654-92.011v-.998L91.364 257.045Z"/>
		<path fill="#5db6d1" d="m93.742 257.045 108.465-91.013v-.998L92.553 257.045Z"/>
		<path fill="#5db6d2" d="m94.931 257.045 107.277-90.016v-.997L93.742 257.045Z"/>
		<path fill="#5eb7d2" d="m96.12 257.045 106.088-89.018v-.998L94.931 257.045Z"/>
		<path fill="#5eb8d2" d="m97.309 257.045 104.899-88.021v-.997L96.12 257.045Z"/>
		<path fill="#5eb9d3" d="m98.498 257.045 103.71-87.023v-.998L97.309 257.045Z"/>
		<path fill="#5ebad3" d="m99.687 257.045 102.521-86.025v-.998l-103.71 87.023Z"/>
		<path fill="#5fbad3" d="m100.876 257.045 101.332-85.028v-.997L99.687 257.045Z"/>
		<path fill="#5fbbd3" d="m102.065 257.045 100.143-84.03v-.998l-101.332 85.028Z"/>
		<path fill="#5fbcd4" d="m103.254 257.045 98.954-83.033v-.997l-100.143 84.03Z"/>
		<path fill="#60bdd4" d="m104.442 257.045 97.765-82.035v-.998l-98.954 83.033Z"/>
		<path fill="#60bdd4" d="m202.208 175.01-97.765 82.035h97.765Z"/>
	</g>
	<g clip-path="url(#g)" transform="matrix(1.33333 0 0 -1.33333 0 442.412)">
		<path fill="#f6fbf9" d="M131.767 213.61v-.002.002m59.759-52.522h.005-.005m-.004 0"/>
	</g>
	<g clip-path="url(#h)" transform="matrix(1.33333 0 0 -1.33333 0 442.412)">
		<path fill="#6297c5" d="m183.498 160.302 1.014-.609h-1.014Z"/>
		<path fill="#6297c5" d="m183.498 161.069 2.29-1.376h-1.276l-1.014.609Z"/>
		<path fill="#6398c5" d="m184.758 161.078 2.306-1.386h-1.276l-2.29 1.376v.01Z"/>
		<path fill="#6399c5" d="m186.034 161.078 2.306-1.386h-1.276l-2.306 1.386Z"/>
		<path fill="#6399c6" d="m187.31 161.078 2.306-1.386h-1.276l-2.306 1.386Z"/>
		<path fill="#649ac6" d="m188.586 161.078 2.306-1.386h-1.276l-2.306 1.386Z"/>
		<path fill="#649bc6" d="m189.862 161.078 1.049-.63v-.756h-.019l-2.306 1.386Z"/>
		<path fill="#649cc7" d="m190.91 160.448-1.049.63h1.049Z"/>
	</g>
	<g clip-path="url(#i)" transform="matrix(1.33333 0 0 -1.33333 0 442.412)">
		<path fill="#5578b7" d="m157.767 142.79.595-.357h-.595Z"/>
		<path fill="#5679b7" d="m157.767 143.556 1.871-1.124h-1.276l-.595.357Z"/>
		<path fill="#567ab8" d="m157.767 144.323 3.147-1.891h-1.276l-1.871 1.124Z"/>
		<path fill="#567ab8" d="m157.767 145.09 4.423-2.658h-1.276l-3.147 1.891Z"/>
		<path fill="#567bb8" d="m157.767 145.857 5.699-3.424h-1.276l-4.423 2.657Z"/>
		<path fill="#577cb9" d="m157.767 146.624 6.976-4.191h-1.277l-5.699 3.424Z"/>
		<path fill="#577cb9" d="m157.767 147.39 8.018-4.818v-.14h-1.042l-6.976 4.191Z"/>
		<path fill="#577db9" d="m158.156 147.924 7.63-4.584v-.767l-8.019 4.818v.533Z"/>
		<path fill="#587eb9" d="m159.432 147.924 6.354-3.818v-.766l-7.63 4.584Z"/>
		<path fill="#587eba" d="m160.708 147.924 5.077-3.051v-.767l-6.353 3.818Z"/>
		<path fill="#587fba" d="m161.984 147.924 3.801-2.284v-.767l-5.077 3.051Z"/>
		<path fill="#5880ba" d="m163.26 147.924 2.525-1.517v-.767l-3.801 2.284Z"/>
		<path fill="#5980bb" d="m164.537 147.924 1.249-.75v-.767l-2.525 1.517Z"/>
		<path fill="#5981bb" d="m165.785 147.173-1.249.75h1.249Z"/>
	</g>
	<g clip-path="url(#j)" transform="matrix(1.33333 0 0 -1.33333 0 442.412)">
		<path fill="#f6fbf9" d="M123.384 98.384h.001-.001m.227-.009h.004-.004m.057-.002.003-.001-.003.001m.171-.007h.007-.007m.054-.001.01-.001-.01.001m.057-.002h.008-.008m.116-.004h.015-.015m.054-.002h.017-.017m.054-.001.016-.001-.016.001m.06-.002h.009-.009m.12-.003h.006-.006m.053-.002h.013-.013m.055-.001h.013-.013m.057-.001h.01-.01m.118-.003h.014-.014m.054-.001h.015-.015m.056-.001h.013-.013m.122-.002h.011-.011m.052-.001.019-.001-.019.001m.053-.001h.021-.021m.056-.001h.017-.017m.07-.001h.002-.002m.055-.001h.013-.013m.051 0h.02-.02m.055-.001h.019-.019m.057 0 .015-.001-.015.001m.067-.001h.017-.017m.053 0 .021-.001-.021.001m.055-.001h.018-.018m.056 0h.017-.017m.06-.001h.01-.01m.062 0h.019-.019m.055 0h.018-.018m.054 0h.018-.018m.056 0h.017-.017"/>
	</g>
	<g clip-path="url(#k)" transform="matrix(1.33333 0 0 -1.33333 0 442.412)">
		<path fill="#4f6ab0" d="m87.988 112.231 16.566-13.9H87.988Z"/>
		<path fill="#4f6ab0" d="m87.988 113.49 18.066-15.159h-1.5l-16.566 13.9Z"/>
		<path fill="#506ab0" d="m87.988 114.749 19.566-16.418h-1.5L87.988 113.49Z"/>
		<path fill="#506bb0" d="m87.988 116.008 21.067-17.677h-1.501l-19.566 16.418Z"/>
		<path fill="#506cb1" d="m87.988 117.266 22.567-18.936h-1.5l-21.067 17.677Z"/>
		<path fill="#506cb1" d="m87.988 118.525 24.067-20.195h-1.5l-22.567 18.936Z"/>
		<path fill="#506db1" d="m87.988 119.784 25.568-21.454h-1.501l-24.067 20.195Z"/>
		<path fill="#516db2" d="m87.988 121.043 27.068-22.713h-1.5l-25.568 21.454Z"/>
		<path fill="#516eb2" d="m87.988 122.302 28.568-23.972h-1.5l-27.068 22.713Z"/>
		<path fill="#516fb2" d="m87.988 123.561 30.068-25.23h-1.5l-28.568 23.971Z"/>
		<path fill="#516fb3" d="m87.988 124.82 31.569-26.489h-1.501l-30.068 25.23Z"/>
		<path fill="#5270b3" d="m87.988 126.079 33.069-27.748h-1.5L87.988 124.82Z"/>
		<path fill="#5271b3" d="m87.988 127.338 34.569-29.007h-1.5l-33.069 27.748Z"/>
		<path fill="#5271b4" d="m87.988 128.597 36.07-30.266h-1.501l-34.569 29.007Z"/>
		<path fill="#5372b4" d="m87.988 129.856 37.57-31.525h-1.5l-36.07 30.266Z"/>
		<path fill="#5372b4" d="m87.988 131.114 39.07-32.784h-1.5l-37.57 31.525Z"/>
		<path fill="#5373b5" d="m87.988 132.373 40.571-34.043h-1.501l-39.07 32.784Z"/>
		<path fill="#5374b5" d="m87.988 133.632 42.071-35.302h-1.5l-40.571 34.043Z"/>
		<path fill="#5474b5" d="m87.988 134.891 43.571-36.561h-1.5l-42.071 35.302Z"/>
		<path fill="#5475b5" d="m87.988 136.15 45.071-37.819h-1.5l-43.571 36.56Z"/>
		<path fill="#5476b6" d="m87.988 137.409 46.572-39.078h-1.501L87.988 136.15Z"/>
		<path fill="#5476b6" d="m87.988 138.668 48.072-40.337h-1.5l-46.572 39.078Z"/>
		<path fill="#5577b6" d="m87.988 139.927 49.572-41.596h-1.5l-48.072 40.337Z"/>
		<path fill="#5578b7" d="m87.988 141.186 51.073-42.855h-1.501l-49.572 41.596Z"/>
		<path fill="#5578b7" d="m87.988 142.445 52.573-44.114h-1.5l-51.073 42.855Z"/>
		<path fill="#5679b7" d="m87.988 143.703 54.073-45.373h-1.5l-52.573 44.114Z"/>
		<path fill="#567ab8" d="m87.988 144.962 55.573-46.632h-1.5l-54.073 45.373Z"/>
		<path fill="#567ab8" d="m87.988 146.221 57.074-47.891h-1.501l-55.573 46.632Z"/>
		<path fill="#567bb8" d="m87.988 147.48 58.574-49.149h-1.5l-57.074 47.89Z"/>
		<path fill="#577cb9" d="m87.988 148.739 60.074-50.408h-1.5L87.988 147.48Z"/>
		<path fill="#577cb9" d="m87.988 149.998 61.575-51.667h-1.501l-60.074 50.408Z"/>
		<path fill="#577db9" d="m87.988 151.257 63.075-52.926h-1.5l-61.575 51.667Z"/>
		<path fill="#587eb9" d="m87.988 152.516 64.575-54.185h-1.5l-63.075 52.926Z"/>
		<path fill="#587eba" d="m87.988 153.774 66.076-55.444h-1.501l-64.575 54.185Z"/>
		<path fill="#587fba" d="m87.988 155.033 67.576-56.703h-1.5l-66.076 55.444Z"/>
		<path fill="#5880ba" d="m87.988 156.292 69.076-57.962h-1.5l-67.576 56.703Z"/>
		<path fill="#5980bb" d="m87.988 157.551 70.576-59.221h-1.5l-69.076 57.962Z"/>
		<path fill="#5981bb" d="m87.988 158.81 72.077-60.48h-1.501l-70.576 59.221Z"/>
		<path fill="#5982bb" d="m87.988 160.069 73.577-61.738h-1.5L87.988 158.81Z"/>
		<path fill="#5983bc" d="m88.274 161.088 74.791-62.757h-1.501L87.988 160.07v1.018Z"/>
		<path fill="#5a83bc" d="m89.774 161.088 74.791-62.757h-1.501l-74.79 62.757Z"/>
		<path fill="#5a84bc" d="m91.275 161.088 74.791-62.757h-1.501l-74.79 62.757Z"/>
		<path fill="#5a85bd" d="m92.775 161.088 74.791-62.757h-1.501l-74.79 62.757Z"/>
		<path fill="#5b85bd" d="m94.275 161.088 74.791-62.757h-1.501l-74.79 62.757Z"/>
		<path fill="#5b86bd" d="m95.776 161.088 74.791-62.757h-1.501l-74.79 62.757Z"/>
		<path fill="#5b87be" d="m97.276 161.088 74.791-62.757h-1.501l-74.79 62.757Z"/>
		<path fill="#5c87be" d="m98.776 161.088 74.791-62.757h-1.501l-74.79 62.757Z"/>
		<path fill="#5c88be" d="m100.276 161.088 74.791-62.757h-1.501l-74.79 62.757Z"/>
		<path fill="#5c89bf" d="m101.777 161.088 74.791-62.757h-1.501l-74.79 62.757Z"/>
		<path fill="#5c89bf" d="m103.277 161.088 74.791-62.757h-1.5l-74.791 62.757Z"/>
		<path fill="#5d8abf" d="m104.777 161.088 74.791-62.757h-1.5l-74.791 62.757Z"/>
		<path fill="#5d8bc0" d="m106.278 161.088 74.791-62.757h-1.5l-74.791 62.757Z"/>
		<path fill="#5d8cc0" d="m107.778 161.088 74.791-62.757h-1.5l-74.791 62.757Z"/>
		<path fill="#5e8cc0" d="m109.278 161.088 74.791-62.757h-1.5l-74.791 62.757Z"/>
		<path fill="#5e8dc0" d="m110.778 161.088 74.791-62.757h-1.501l-74.79 62.757Z"/>
		<path fill="#5e8ec1" d="m112.279 161.088 74.791-62.757h-1.501l-74.79 62.757Z"/>
		<path fill="#5e8ec1" d="m113.78 161.088 74.791-62.757h-1.501l-74.79 62.757Z"/>
		<path fill="#5f8fc1" d="m115.28 161.088 74.791-62.757h-1.501l-74.79 62.757Z"/>
		<path fill="#5f90c2" d="m116.78 161.088 74.791-62.757h-1.501l-74.79 62.757Z"/>
		<path fill="#5f91c2" d="m118.28 161.088 74.791-62.757h-1.501l-74.79 62.757Z"/>
		<path fill="#6091c2" d="m119.78 161.088 74.791-62.757h-1.501l-74.79 62.757Z"/>
		<path fill="#6092c3" d="m121.28 161.088 74.791-62.757h-1.501l-74.79 62.757Z"/>
		<path fill="#6093c3" d="m122.78 161.088 74.791-62.757h-1.501l-74.79 62.757Z"/>
		<path fill="#6194c3" d="m124.281 161.088 74.791-62.757h-1.501l-74.79 62.757Z"/>
		<path fill="#6194c4" d="m125.781 161.088 74.791-62.757h-1.501l-74.79 62.757Z"/>
		<path fill="#6195c4" d="m127.282 161.088 74.791-62.757h-1.5l-74.791 62.757Z"/>
		<path fill="#6296c4" d="m128.782 161.088 73.426-61.611v-1.146h-.135l-74.791 62.757Z"/>
		<path fill="#6297c5" d="m130.282 161.088 71.925-60.353v-1.258l-73.425 61.611Z"/>
		<path fill="#6297c5" d="m131.783 161.088 70.425-59.094v-1.259l-71.925 60.353Z"/>
		<path fill="#6398c5" d="m133.283 161.088 68.925-57.835v-1.259l-70.425 59.094Z"/>
		<path fill="#6399c5" d="m134.783 161.088 67.424-56.576v-1.259l-68.924 57.835Z"/>
		<path fill="#6399c6" d="m136.284 161.088 65.924-55.317v-1.259l-67.424 56.576Z"/>
		<path fill="#649ac6" d="m137.784 161.088 64.424-54.058v-1.259l-65.924 55.317Z"/>
		<path fill="#649bc6" d="m139.284 161.088 62.924-52.799v-1.259l-64.424 54.058Z"/>
		<path fill="#649cc7" d="m140.784 161.088 61.423-51.54v-1.259l-62.923 52.799Z"/>
		<path fill="#649cc7" d="m142.285 161.088 59.923-50.281v-1.259l-61.423 51.54Z"/>
		<path fill="#659dc7" d="m143.785 161.088 58.423-49.022v-1.259l-59.923 50.281Z"/>
		<path fill="#659ec8" d="m145.285 161.088 56.922-47.764v-1.258l-58.422 49.022Z"/>
		<path fill="#659fc8" d="m146.786 161.088 55.422-46.505v-1.259l-56.922 47.764Z"/>
		<path fill="#669fc8" d="m148.286 161.088 53.922-45.246v-1.259l-55.422 46.505Z"/>
		<path fill="#66a0c9" d="m149.786 161.088 52.422-43.987v-1.259l-53.922 45.246Z"/>
		<path fill="#67a1c9" d="m151.286 161.088 50.921-42.728v-1.259l-52.421 43.987Z"/>
		<path fill="#67a2c9" d="m152.787 161.088 49.421-41.469v-1.259l-50.921 42.728Z"/>
		<path fill="#67a3ca" d="m154.287 161.088 47.921-40.21v-1.259l-49.421 41.469Z"/>
		<path fill="#67a3ca" d="m155.787 161.088 46.42-38.951v-1.259l-47.92 40.21Z"/>
		<path fill="#68a4ca" d="m157.288 161.088 44.92-37.692v-1.259l-46.42 38.951Z"/>
		<path fill="#68a5cb" d="m158.788 161.088 43.42-36.434v-1.258l-44.92 37.692Z"/>
		<path fill="#68a6cb" d="m160.288 161.088 41.919-35.175v-1.259l-43.419 36.434Z"/>
		<path fill="#69a6cb" d="m161.788 161.088 40.419-33.916v-1.259l-41.919 35.175Z"/>
		<path fill="#69a7cb" d="m163.289 161.088 38.919-32.657v-1.259l-40.419 33.916Z"/>
		<path fill="#69a8cc" d="m164.79 161.088 37.419-31.398v-1.259l-38.919 32.657Z"/>
		<path fill="#6aa9cc" d="m166.29 161.088 35.918-30.139v-1.259l-37.418 31.398Z"/>
		<path fill="#6aaacc" d="m167.79 161.088 34.418-28.88v-1.259l-35.918 30.139Z"/>
		<path fill="#6aaacd" d="m169.29 161.088 32.918-27.621v-1.259l-34.418 28.88Z"/>
		<path fill="#6babcd" d="m170.79 161.088 31.417-26.362v-1.259l-32.917 27.621Z"/>
		<path fill="#6baccd" d="m172.29 161.088 29.917-25.104v-1.258l-31.417 26.362Z"/>
		<path fill="#6cadce" d="m173.79 161.088 28.417-23.845v-1.259l-29.917 25.104Z"/>
		<path fill="#6caece" d="m175.291 161.088 26.917-22.586v-1.259l-28.417 23.845Z"/>
		<path fill="#6caece" d="m176.791 161.088 25.416-21.327v-1.259l-26.916 22.586Z"/>
		<path fill="#6dafcf" d="m178.292 161.088 23.916-20.068v-1.259l-25.416 21.327Z"/>
		<path fill="#6db0cf" d="m179.792 161.088 22.416-18.809v-1.259l-23.916 20.068Z"/>
		<path fill="#6db1cf" d="m181.292 161.088 20.915-17.55v-1.259l-22.415 18.809Z"/>
		<path fill="#6db2cf" d="m182.793 161.088 19.415-16.291v-1.259l-20.915 17.55Z"/>
		<path fill="#6eb2d0" d="m184.293 161.088 17.915-15.032v-1.259l-19.415 16.291Z"/>
		<path fill="#6eb3d0" d="m185.793 161.088 16.415-13.773v-1.259l-17.915 15.032Z"/>
		<path fill="#6eb4d0" d="m187.293 161.088 14.914-12.514v-1.259l-16.414 13.773Z"/>
		<path fill="#6fb5d1" d="m188.794 161.088 13.414-11.256v-1.258l-14.914 12.514Z"/>
		<path fill="#6fb6d1" d="m190.294 161.088 11.914-9.997v-1.259l-13.414 11.256Z"/>
		<path fill="#6fb6d1" d="m191.794 161.088 10.413-8.738v-1.259l-11.913 9.997Z"/>
		<path fill="#70b7d2" d="m193.295 161.088 8.913-7.479v-1.259l-10.413 8.738Z"/>
		<path fill="#70b8d2" d="m194.795 161.088 7.413-6.22v-1.259l-8.913 7.479Z"/>
		<path fill="#71b9d2" d="m196.295 161.088 5.912-4.961v-1.259l-7.412 6.22Z"/>
		<path fill="#71bad2" d="m197.796 161.088 4.412-3.702v-1.259l-5.912 4.961Z"/>
		<path fill="#71bad3" d="m199.296 161.088 2.912-2.443v-1.259l-4.412 3.702Z"/>
		<path fill="#72bbd3" d="m200.796 161.088 1.412-1.184v-1.259l-2.912 2.443Z"/>
		<path fill="#72bcd4" d="m202.208 159.903-1.412 1.184h1.412Z"/>
	</g>
	<g clip-path="url(#l)" transform="matrix(1.33333 0 0 -1.33333 0 442.412)">
		<path fill="#649ac6" d="M149.836 150.806h.006v-.029h-.006z"/>
	</g>
	<g clip-path="url(#m)" transform="matrix(1.33333 0 0 -1.33333 0 442.412)">
		<path fill="#649ac6" d="M149.844 150.765h.004v-.018h-.004z"/>
	</g>
	<g clip-path="url(#n)" transform="matrix(1.33333 0 0 -1.33333 0 442.412)">
		<path fill="#649ac6" d="M149.85 150.734h.003v-.013h-.003z"/>
	</g>
	<g clip-path="url(#o)" transform="matrix(1.33333 0 0 -1.33333 0 442.412)">
		<path fill="#649ac6" d="M149.86 150.683v-.002z"/>
	</g>
	<g clip-path="url(#p)" transform="matrix(1.33333 0 0 -1.33333 0 442.412)">
		<path fill="#649ac6" d="M149.865 150.659h.001v-.005h-.001z"/>
	</g>
	<g clip-path="url(#q)" transform="matrix(1.33333 0 0 -1.33333 0 442.412)">
		<path fill="#dec" d="M95.622 257.045h.002-.002m-.003 0c-10.048 0-11.477-9.094-9.912-13.116-1.565 4.022-.134 13.115 9.912 13.116m5.193-.678.007-.002-.007.002m-15.101-12.45.004-.009-.004.009"/>
	</g>
	<g clip-path="url(#r)" transform="matrix(1.33333 0 0 -1.33333 0 442.412)">
		<path fill="#40739c" d="m81.372 195.41.402-.242h-.402Z"/>
		<path fill="#40749c" d="m81.372 196.376 2.01-1.208h-1.608l-.402.242Z"/>
		<path fill="#40759c" d="m81.372 197.342 3.056-1.836v-.338h-1.046l-2.01 1.208Z"/>
		<path fill="#40759d" d="m81.372 198.308 3.056-1.836v-.967l-3.056 1.837Z"/>
		<path fill="#41769d" d="m82.717 198.466 1.711-1.028v-.966l-3.056 1.836v.158Z"/>
		<path fill="#41769d" d="m84.325 198.466.103-.062v-.966l-1.711 1.028Z"/>
		<path fill="#41779d" d="m84.428 198.404-.103.062h.103Z"/>
	</g>
	<g clip-path="url(#s)" transform="matrix(1.33333 0 0 -1.33333 0 442.412)">
		<path fill="#41759e" d="m72.014 157.107.818-.686h-.818Z"/>
		<path fill="#42769e" d="m72.014 158.365 2.318-1.945h-1.5l-.818.686Z"/>
		<path fill="#42779e" d="m72.014 159.624 3.818-3.204h-1.5l-2.318 1.945Z"/>
		<path fill="#42779f" d="m72.014 160.883 5.319-4.463h-1.501l-3.818 3.204Z"/>
		<path fill="#42789f" d="m72.014 162.142 6.819-5.722h-1.5l-5.319 4.463Z"/>
		<path fill="#43789f" d="m72.014 163.4 8.319-6.981h-1.5l-6.819 5.722Z"/>
		<path fill="#43799f" d="m72.014 164.66 9.82-8.24h-1.501l-8.319 6.981Z"/>
		<path fill="#437aa0" d="m72.014 165.919 11.32-9.498h-1.5l-9.82 8.239Z"/>
		<path fill="#437aa0" d="m72.014 167.178 12.82-10.757h-1.5l-11.32 9.498Z"/>
		<path fill="#437ba0" d="m72.014 168.436 14.32-12.016h-1.5l-12.82 10.757Z"/>
		<path fill="#447ca0" d="m72.014 169.695 15.821-13.275h-1.501l-14.32 12.016Z"/>
		<path fill="#447ca0" d="m72.014 170.954 17.321-14.534h-1.5l-15.821 13.275Z"/>
		<path fill="#447da1" d="m72.014 172.213 18.821-15.793h-1.5l-17.321 14.534Z"/>
		<path fill="#447da1" d="m72.014 173.472 20.322-17.052h-1.501l-18.821 15.793Z"/>
		<path fill="#457ea1" d="m72.014 174.731 21.822-18.311h-1.5l-20.322 17.052Z"/>
		<path fill="#457fa1" d="m72.014 175.99 23.322-19.57h-1.5l-21.822 18.311Z"/>
		<path fill="#457fa2" d="m72.014 177.249 24.823-20.828h-1.501L72.014 175.99Z"/>
		<path fill="#4580a2" d="m72.014 178.508 26.323-22.087h-1.5l-24.823 20.828Z"/>
		<path fill="#4680a2" d="m72.014 179.767 27.823-23.346h-1.5l-26.323 22.087Z"/>
		<path fill="#4681a2" d="m72.014 181.025 29.323-24.605h-1.5l-27.823 23.346Z"/>
		<path fill="#4682a2" d="m72.014 182.284 30.824-25.864h-1.501l-29.323 24.605Z"/>
		<path fill="#4782a3" d="m72.014 183.543 32.324-27.123h-1.5l-30.824 25.864Z"/>
		<path fill="#4783a3" d="m72.014 184.802 33.824-28.382h-1.5l-32.324 27.123Z"/>
		<path fill="#4784a3" d="m72.014 186.061 35.325-29.641h-1.501l-33.824 28.382Z"/>
		<path fill="#4784a3" d="m72.014 187.32 36.825-30.9h-1.5l-35.325 29.641Z"/>
		<path fill="#4885a4" d="m72.014 188.579 38.325-32.159h-1.5l-36.825 30.9Z"/>
		<path fill="#4886a4" d="m72.014 189.838 39.825-33.417h-1.5l-38.325 32.158Z"/>
		<path fill="#4886a4" d="m72.014 191.097 41.326-34.676h-1.501l-39.825 33.417Z"/>
		<path fill="#4887a4" d="m72.014 192.356 42.826-35.935h-1.5l-41.326 34.676Z"/>
		<path fill="#4888a5" d="m72.014 193.614 44.326-37.194h-1.5l-42.826 35.935Z"/>
		<path fill="#4988a5" d="m72.014 194.873 45.827-38.453h-1.501l-44.326 37.194Z"/>
		<path fill="#4989a5" d="m72.014 196.132 47.327-39.712h-1.5l-45.827 38.453Z"/>
		<path fill="#498aa5" d="m72.014 197.391 48.827-40.971h-1.5l-47.327 39.712Z"/>
		<path fill="#4a8aa6" d="m72.014 198.65 50.328-42.23h-1.501l-48.827 40.971Z"/>
		<path fill="#4a8ba6" d="m72.014 199.909 51.828-43.489h-1.5l-50.328 42.23Z"/>
		<path fill="#4a8ca6" d="m72.014 201.168 53.328-44.747h-1.5l-51.828 43.488Z"/>
		<path fill="#4a8ca6" d="m72.014 202.427 54.828-46.006h-1.5l-53.328 44.747Z"/>
		<path fill="#4b8da7" d="m72.014 203.686 56.329-47.265h-1.501l-54.828 46.006Z"/>
		<path fill="#4b8da7" d="m72.014 204.945 57.829-48.524h-1.5l-56.329 47.265Z"/>
		<path fill="#4b8ea7" d="m72.014 206.203 59.329-49.783h-1.5l-57.829 48.524Z"/>
		<path fill="#4c8fa7" d="m72.014 207.462 59.753-50.139v-.903h-.424l-59.329 49.783Z"/>
		<path fill="#4c8fa7" d="m72.014 208.721 59.753-50.138v-1.259l-59.753 50.138Z"/>
		<path fill="#4c90a8" d="m72.014 209.98 59.753-50.139v-1.258l-59.753 50.138Z"/>
		<path fill="#4c91a8" d="m72.014 211.239 59.753-50.139v-1.258L72.014 209.98Z"/>
		<path fill="#4d92a8" d="m72.014 212.498 59.753-50.138v-1.259l-59.753 50.138Z"/>
		<path fill="#4d92a8" d="m72.014 213.757 59.753-50.139v-1.258l-59.753 50.138Z"/>
		<path fill="#4d93a9" d="m72.014 215.016 59.753-50.139v-1.258l-59.753 50.138Z"/>
		<path fill="#4d94a9" d="m72.014 216.275 59.753-50.139v-1.258l-59.753 50.138Z"/>
		<path fill="#4e94a9" d="m72.014 217.534 59.753-50.138v-1.259l-59.753 50.138Z"/>
		<path fill="#4e95a9" d="m72.014 218.792 59.753-50.139v-1.258l-59.753 50.138Z"/>
		<path fill="#4e96a9" d="m72.014 220.051 59.753-50.139v-1.258l-59.753 50.138Z"/>
		<path fill="#4f96aa" d="m72.014 221.31 59.753-50.138v-1.259l-59.753 50.138Z"/>
		<path fill="#4f97aa" d="m72.014 222.569 59.753-50.139v-1.258L72.014 221.31Z"/>
		<path fill="#4f98aa" d="m72.014 223.828 59.753-50.139v-1.258l-59.753 50.138Z"/>
		<path fill="#4f98aa" d="m72.014 225.087 59.753-50.138v-1.259l-59.753 50.138Z"/>
		<path fill="#5099ab" d="m72.014 226.346 59.753-50.139v-1.258l-59.753 50.138Z"/>
		<path fill="#509aab" d="m72.014 227.605 59.753-50.139v-1.258l-59.753 50.138Z"/>
		<path fill="#509bab" d="m72.014 228.863 59.753-50.139v-1.258l-59.753 50.138Z"/>
		<path fill="#519bab" d="m72.014 230.122 59.753-50.138v-1.259l-59.753 50.138Z"/>
		<path fill="#519cac" d="m72.014 231.381 59.753-50.139v-1.258l-59.753 50.138Z"/>
		<path fill="#519dac" d="m72.014 232.64 59.753-50.139v-1.258l-59.753 50.138Z"/>
		<path fill="#529dac" d="m72.014 233.9 59.753-50.138v-1.259l-59.753 50.138Z"/>
		<path fill="#529eac" d="m72.014 235.158 59.753-50.139v-1.258l-59.753 50.138Z"/>
		<path fill="#529fad" d="m72.014 236.417 59.753-50.139v-1.258l-59.753 50.138Z"/>
		<path fill="#52a0ad" d="m72.014 237.676 59.753-50.139v-1.258l-59.753 50.138Z"/>
		<path fill="#53a0ad" d="m72.014 238.935 59.753-50.138v-1.259l-59.753 50.138Z"/>
		<path fill="#53a1ad" d="m72.014 240.194 59.753-50.139v-1.258l-59.753 50.138Z"/>
		<path fill="#53a2ad" d="m72.014 241.452 59.753-50.139v-1.258l-59.753 50.138Z"/>
		<path fill="#54a2ad" d="m72.014 242.711 59.753-50.139v-1.258l-59.753 50.138Z"/>
		<path fill="#54a3ae" d="m72.014 243.97 59.753-50.138v-1.259l-59.753 50.138Z"/>
		<path fill="#54a4ae" d="m72.014 245.23 59.753-50.139v-1.258l-59.753 50.138Z"/>
		<path fill="#55a4ae" d="m72.014 246.488 59.753-50.139v-1.258l-59.753 50.138Z"/>
		<path fill="#55a5ae" d="m72.014 247.747 59.753-50.138v-1.259l-59.753 50.138Z"/>
		<path fill="#55a6af" d="m72.014 249.006 59.753-50.139v-1.258l-59.753 50.138Z"/>
		<path fill="#55a7af" d="m72.014 250.265 59.753-50.139v-1.258l-59.753 50.138Z"/>
		<path fill="#56a7af" d="m72.014 251.524 59.753-50.139v-1.258l-59.753 50.138Z"/>
		<path fill="#56a8af" d="m72.014 252.782 59.753-50.139v-1.258l-59.753 50.138Z"/>
		<path fill="#56a9b0" d="m72.014 254.041 59.753-50.139v-1.258l-59.753 50.138Z"/>
		<path fill="#57aab0" d="m72.014 255.3 59.753-50.138v-1.259l-59.753 50.138Z"/>
		<path fill="#57aab0" d="m72.014 256.56 59.753-50.138v-1.259l-59.753 50.138Z"/>
		<path fill="#57abb0" d="m72.936 257.045 58.831-49.365v-1.259l-59.753 50.138v.486Z"/>
		<path fill="#58acb0" d="m74.436 257.045 57.331-48.106v-1.259l-58.831 49.365Z"/>
		<path fill="#58adb1" d="m75.937 257.045 55.83-46.847v-1.259l-57.33 48.106Z"/>
		<path fill="#58adb1" d="m77.437 257.045 54.33-45.588v-1.259l-55.83 46.847Z"/>
		<path fill="#58aeb1" d="m78.937 257.045 52.83-44.329v-1.259l-54.33 45.588Z"/>
		<path fill="#59afb1" d="m80.438 257.045 51.329-43.071v-1.258l-52.829 44.329Z"/>
		<path fill="#59b0b2" d="m81.938 257.045 49.829-41.812v-1.259l-51.329 43.071Z"/>
		<path fill="#59b0b2" d="m83.438 257.045 48.329-40.553v-1.259l-49.829 41.812Z"/>
		<path fill="#5ab1b2" d="m84.939 257.045 46.829-39.294v-1.259l-48.329 40.553Z"/>
		<path fill="#5ab2b2" d="m86.439 257.045 45.328-38.035v-1.259l-46.828 39.294Z"/>
		<path fill="#5ab3b2" d="m87.94 257.045 43.828-36.776v-1.259L86.44 257.045Z"/>
		<path fill="#5bb3b3" d="m89.44 257.045 42.328-35.517v-1.259L87.94 257.045Z"/>
		<path fill="#5bb4b3" d="m90.94 257.045 40.827-34.258v-1.259L89.44 257.045Z"/>
		<path fill="#5bb5b3" d="m92.44 257.045 39.327-32.999v-1.259L90.94 257.045Z"/>
		<path fill="#5cb6b3" d="m93.94 257.045 37.827-31.74v-1.259L92.44 257.045Z"/>
		<path fill="#5cb6b4" d="m95.44 257.045 36.326-30.482v-1.258l-37.826 31.74Z"/>
		<path fill="#5cb7b4" d="m96.94 257.045 34.826-29.223v-1.259L95.44 257.045Z"/>
		<path fill="#5db8b4" d="m98.441 257.045 33.326-27.964v-1.259l-34.826 29.223Z"/>
		<path fill="#5db9b4" d="m99.942 257.045 31.826-26.705v-1.259l-33.326 27.964Z"/>
		<path fill="#5db9b4" d="m101.442 257.045 30.325-25.446v-1.259l-31.825 26.705Z"/>
		<path fill="#5ebab5" d="m102.942 257.045 28.825-24.187v-1.259l-30.325 25.446Z"/>
		<path fill="#5ebbb5" d="m104.442 257.045 27.325-22.928v-1.259l-28.825 24.187Z"/>
		<path fill="#5ebbb5" d="m131.767 234.116-27.325 22.928h27.325Z"/>
	</g>
	<g clip-path="url(#t)" transform="matrix(1.33333 0 0 -1.33333 0 442.412)">
		<path fill="#59afb1" d="M131.767 213.607h.007v-.076h-.007z"/>
	</g>
	<g clip-path="url(#u)" transform="matrix(1.33333 0 0 -1.33333 0 442.412)">
		<path fill="#3d6d99" d="m149.842 143.64.206-.124h-.206Z"/>
		<path fill="#3d6d9a" d="m149.842 144.607 1.814-1.09h-1.608l-.206.124Z"/>
		<path fill="#3d6e9a" d="m149.842 145.573 3.422-2.057h-1.608l-1.814 1.091Z"/>
		<path fill="#3e6f9a" d="m149.842 146.54 4.255-2.557v-.466h-.833l-3.422 2.057Z"/>
		<path fill="#3e6f9a" d="m149.842 147.505 4.255-2.557v-.966l-4.255 2.557Z"/>
		<path fill="#3e709a" d="m149.842 148.471 4.255-2.557v-.966l-4.255 2.557Z"/>
		<path fill="#3e709b" d="m149.842 149.438 4.255-2.557v-.966l-4.255 2.557Z"/>
		<path fill="#3f719b" d="m149.842 150.404 4.255-2.557v-.966l-4.255 2.557Z"/>
		<path fill="#3f729b" d="m150.829 150.777 3.268-1.964v-.966l-4.255 2.557v.373Z"/>
		<path fill="#3f729b" d="m152.437 150.777 1.66-.997v-.967l-3.268 1.964Z"/>
		<path fill="#3f739c" d="m154.045 150.777.052-.031v-.966l-1.66.997Z"/>
		<path fill="#40739c" d="m154.097 150.746-.052.031h.052Z"/>
	</g>
	<g clip-path="url(#v)" transform="matrix(1.33333 0 0 -1.33333 0 442.412)">
		<path fill="#d6ebc8" d="M131.774 213.53c.318-3.538.348-6.805.179-9.843l-.001-.004c.067 1.184.103 2.404.103 3.66 0 1.968-.087 4.027-.281 6.187"/>
	</g>
	<g clip-path="url(#w)" transform="matrix(1.33333 0 0 -1.33333 0 442.412)">
		<path fill="#65a7ae" d="M131.953 203.688v-.005z"/>
	</g>
	<g clip-path="url(#x)" transform="matrix(1.33333 0 0 -1.33333 0 442.412)">
		<path fill="#507a9e" d="m125.637 150.938.006-.004h-.006Z"/>
		<path fill="#517b9e" d="m125.637 152.146 2.016-1.211h-2.01l-.006.003Z"/>
		<path fill="#517b9f" d="m125.637 153.353 4.026-2.419h-2.01l-2.016 1.211Z"/>
		<path fill="#517c9f" d="m125.637 154.561 6.036-3.627h-2.01l-4.026 2.419Z"/>
		<path fill="#527d9f" d="m125.637 155.769 8.046-4.835h-2.01l-6.036 3.627Z"/>
		<path fill="#527d9f" d="m125.637 156.976 10.056-6.042h-2.01l-8.046 4.834Z"/>
		<path fill="#527ea0" d="m125.637 158.184 12.066-7.25h-2.01l-10.056 6.042Z"/>
		<path fill="#537fa0" d="m125.637 159.392 14.076-8.458h-2.01l-12.066 7.25Z"/>
		<path fill="#537fa0" d="m125.637 160.6 16.086-9.665h-2.01l-14.076 8.457Z"/>
		<path fill="#5380a0" d="m125.637 161.808 18.096-10.873h-2.01l-16.086 9.665Z"/>
		<path fill="#5381a0" d="m125.637 163.015 20.106-12.081h-2.01l-18.096 10.873Z"/>
		<path fill="#5481a1" d="m125.637 164.223 22.116-13.289h-2.01l-20.106 12.081Z"/>
		<path fill="#5482a1" d="m125.637 165.43 24.126-14.496h-2.01l-22.116 13.288Z"/>
		<path fill="#5483a1" d="m125.637 166.638 24.174-14.525v-1.179h-.048l-24.126 14.496Z"/>
		<path fill="#5483a1" d="m125.637 167.846 24.174-14.525v-1.208l-24.174 14.525Z"/>
		<path fill="#5584a2" d="m125.637 169.054 24.174-14.525v-1.208l-24.174 14.525Z"/>
		<path fill="#5585a2" d="m125.637 170.262 24.174-14.525v-1.208l-24.174 14.525Z"/>
		<path fill="#5585a2" d="m125.637 171.47 24.174-14.525v-1.208l-24.174 14.525Z"/>
		<path fill="#5686a2" d="m125.637 172.677 24.174-14.525v-1.208l-24.174 14.525Z"/>
		<path fill="#5687a3" d="m125.637 173.885 24.174-14.525v-1.208l-24.174 14.525Z"/>
		<path fill="#5687a3" d="m125.637 175.093 24.174-14.525v-1.208l-24.174 14.525Z"/>
		<path fill="#5788a3" d="m125.637 176.3 24.174-14.525v-1.208l-24.174 14.525Z"/>
		<path fill="#5789a3" d="m125.637 177.508 24.174-14.525v-1.208L125.637 176.3Z"/>
		<path fill="#5789a4" d="m125.637 178.716 24.174-14.525v-1.208l-24.174 14.525Z"/>
		<path fill="#578aa4" d="m125.637 179.923 24.174-14.525v-1.208l-24.174 14.525Z"/>
		<path fill="#588ba4" d="m125.637 181.131 24.174-14.525v-1.208l-24.174 14.525Z"/>
		<path fill="#588ba4" d="m125.637 182.339 24.174-14.525v-1.208l-24.174 14.525Z"/>
		<path fill="#588ca5" d="m125.637 183.547 24.174-14.525v-1.208l-24.174 14.525Z"/>
		<path fill="#598da5" d="m125.637 184.754 24.174-14.525v-1.208l-24.174 14.525Z"/>
		<path fill="#598ea5" d="m125.637 185.962 24.174-14.525v-1.208l-24.174 14.525Z"/>
		<path fill="#598ea5" d="m125.637 187.17 24.174-14.525v-1.208l-24.174 14.525Z"/>
		<path fill="#5a8fa5" d="m125.637 188.378 24.174-14.525v-1.208l-24.174 14.525Z"/>
		<path fill="#5a90a6" d="m125.637 189.585 24.174-14.525v-1.208l-24.174 14.525Z"/>
		<path fill="#5a90a6" d="m125.637 190.793 24.174-14.525v-1.208l-24.174 14.525Z"/>
		<path fill="#5b91a6" d="m125.637 192 24.174-14.525v-1.208l-24.174 14.525Z"/>
		<path fill="#5b92a6" d="m125.637 193.208 24.174-14.525v-1.208L125.637 192Z"/>
		<path fill="#5b93a6" d="m125.637 194.416 24.174-14.525v-1.208l-24.174 14.525Z"/>
		<path fill="#5b93a7" d="m125.637 195.624 24.174-14.525v-1.208l-24.174 14.525Z"/>
		<path fill="#5c94a7" d="m125.637 196.832 24.174-14.525v-1.208l-24.174 14.525Z"/>
		<path fill="#5c95a7" d="m125.637 198.04 24.174-14.525v-1.208l-24.174 14.525Z"/>
		<path fill="#5c95a7" d="m125.637 199.247 24.174-14.525v-1.208l-24.174 14.525Z"/>
		<path fill="#5d96a8" d="m125.637 200.455 24.174-14.525v-1.208l-24.174 14.525Z"/>
		<path fill="#5d97a8" d="m125.637 201.663 24.174-14.525v-1.208l-24.174 14.525Z"/>
		<path fill="#5d98a8" d="m125.637 202.87 24.174-14.525v-1.208l-24.174 14.525Z"/>
		<path fill="#5e98a8" d="m126.287 203.688 23.524-14.135v-1.207l-24.173 14.524v.818Z"/>
		<path fill="#5e99a9" d="m128.297 203.688 21.514-12.927v-1.208l-23.524 14.135Z"/>
		<path fill="#5e9aa9" d="m130.306 203.688 19.504-11.719v-1.208l-21.514 12.927Z"/>
		<path fill="#5f9aa9" d="m132.316 203.688 17.494-10.512v-1.207l-19.504 11.719Z"/>
		<path fill="#5f9ba9" d="m134.327 203.688 15.484-9.304v-1.208l-17.494 10.512Z"/>
		<path fill="#5f9ca9" d="m136.337 203.688 13.474-8.096v-1.208l-15.484 9.304Z"/>
		<path fill="#609daa" d="m138.346 203.688 11.464-6.888v-1.208l-13.474 8.096Z"/>
		<path fill="#609daa" d="m140.357 203.688 9.454-5.681V196.8l-11.464 6.888Z"/>
		<path fill="#609eaa" d="m142.367 203.688 7.444-4.473v-1.208l-9.454 5.681Z"/>
		<path fill="#619faa" d="m144.376 203.688 5.434-3.265v-1.208l-7.444 4.473Z"/>
		<path fill="#61a0ab" d="m146.387 203.688 3.424-2.057v-1.208l-5.434 3.265Z"/>
		<path fill="#61a0ab" d="m148.397 203.688 1.414-.85v-1.207l-3.424 2.057Z"/>
		<path fill="#61a1ab" d="m149.81 202.838-1.414.85h1.414Z"/>
	</g>
	<g clip-path="url(#y)" transform="matrix(1.33333 0 0 -1.33333 0 442.412)">
		<path fill="#5482a2" d="m100.523 123.92.245-.205h-.245Z"/>
		<path fill="#5582a2" d="m100.523 125.506 2.135-1.791h-1.89l-.245.205Z"/>
		<path fill="#5583a2" d="m100.523 127.092 4.025-3.378h-1.89l-2.135 1.792Z"/>
		<path fill="#5684a3" d="m100.523 128.678 5.916-4.964h-1.891l-4.025 3.378Z"/>
		<path fill="#5684a3" d="m100.523 130.265 7.806-6.55h-1.89l-5.916 4.964Z"/>
		<path fill="#5685a3" d="m100.523 131.85 9.696-8.136h-1.89l-7.806 6.55Z"/>
		<path fill="#5686a3" d="m100.523 133.437 11.587-9.722h-1.891l-9.696 8.136Z"/>
		<path fill="#5686a4" d="M100.523 135.023 114 123.714h-1.89l-11.587 9.723Z"/>
		<path fill="#5787a4" d="m100.523 136.61 15.368-12.895H114l-13.477 11.309Z"/>
		<path fill="#5788a4" d="m100.523 138.196 17.258-14.481h-1.89l-15.368 12.895Z"/>
		<path fill="#5788a4" d="m100.523 139.782 19.148-16.067h-1.89l-17.258 14.481Z"/>
		<path fill="#5889a5" d="m100.523 141.368 21.039-17.654h-1.891l-19.148 16.068Z"/>
		<path fill="#588aa5" d="m100.523 142.954 22.929-19.24h-1.89l-21.039 17.654Z"/>
		<path fill="#588aa5" d="m100.523 144.54 24.819-20.826h-1.89l-22.929 19.24Z"/>
		<path fill="#598ba5" d="m100.523 146.127 26.71-22.412h-1.891l-24.819 20.826Z"/>
		<path fill="#598ca5" d="m100.523 147.713 28.6-23.998h-1.89l-26.71 22.412Z"/>
		<path fill="#598ca6" d="m100.523 149.3 30.49-25.585h-1.89l-28.6 23.999Z"/>
		<path fill="#5a8da6" d="m100.523 150.885 32.381-27.171h-1.891l-30.49 25.585Z"/>
		<path fill="#5a8ea6" d="m100.523 152.472 34.271-28.757h-1.89l-32.381 27.171Z"/>
		<path fill="#5a8ea6" d="m100.523 154.058 36.162-30.343h-1.891l-34.271 28.757Z"/>
		<path fill="#5a8fa6" d="m100.523 155.644 38.052-31.929h-1.89l-36.162 30.343Z"/>
		<path fill="#5b90a7" d="m100.523 157.23 39.942-33.516h-1.89l-38.052 31.93Z"/>
		<path fill="#5b91a7" d="m100.523 158.816 41.833-35.102h-1.891l-39.942 33.516Z"/>
		<path fill="#5b91a7" d="m100.523 160.403 43.723-36.688h-1.89l-41.833 35.102Z"/>
		<path fill="#5c92a7" d="m100.523 161.989 45.613-38.274h-1.89l-43.723 36.688Z"/>
		<path fill="#5c93a8" d="m100.523 163.575 47.504-39.86h-1.891l-45.613 38.274Z"/>
		<path fill="#5c93a8" d="m100.523 165.161 49.394-41.447h-1.89l-47.504 39.861Z"/>
		<path fill="#5c94a8" d="m100.523 166.747 51.285-43.033h-1.891l-49.394 41.447Z"/>
		<path fill="#5d95a8" d="m100.523 168.334 53.175-44.619h-1.89l-51.285 43.033Z"/>
		<path fill="#5d96a9" d="m100.523 169.92 53.574-44.954v-1.251h-.399l-53.175 44.619Z"/>
		<path fill="#5d96a9" d="m100.523 171.506 53.574-44.954v-1.586l-53.574 44.954Z"/>
		<path fill="#5e97a9" d="m100.523 173.092 53.574-44.954v-1.586l-53.574 44.954Z"/>
		<path fill="#5e98a9" d="m100.523 174.679 53.574-44.954v-1.586l-53.574 44.954Z"/>
		<path fill="#5e98aa" d="m100.523 176.265 53.574-44.954v-1.586l-53.574 44.954Z"/>
		<path fill="#5f99aa" d="m100.523 177.85 53.574-44.954v-1.586l-53.574 44.954Z"/>
		<path fill="#5f9aaa" d="m100.523 179.437 53.574-44.954v-1.587l-53.574 44.955Z"/>
		<path fill="#5f9aaa" d="m100.523 181.023 53.574-44.954v-1.586l-53.574 44.954Z"/>
		<path fill="#609baa" d="m100.523 182.61 53.574-44.954v-1.586l-53.574 44.954Z"/>
		<path fill="#609cab" d="m100.523 184.196 53.574-44.954v-1.586l-53.574 44.954Z"/>
		<path fill="#609dab" d="m100.523 185.782 53.574-44.954v-1.586l-53.574 44.954Z"/>
		<path fill="#619dab" d="m100.523 187.368 53.574-44.954v-1.586l-53.574 44.954Z"/>
		<path fill="#619eab" d="M100.523 188.954 154.097 144v-1.586l-53.574 44.954Z"/>
		<path fill="#619fab" d="m100.523 190.54 53.574-44.954v-1.587l-53.574 44.955Z"/>
		<path fill="#61a0ac" d="m100.523 192.127 53.574-44.954v-1.586l-53.574 44.954Z"/>
		<path fill="#62a0ac" d="m100.523 193.713 53.574-44.954v-1.586l-53.574 44.954Z"/>
		<path fill="#62a1ac" d="m100.523 195.3 53.574-44.954v-1.586l-53.574 44.954Z"/>
		<path fill="#62a2ac" d="m100.523 196.885 53.574-44.954v-1.586l-53.574 44.954Z"/>
		<path fill="#63a3ad" d="m100.523 198.472 53.574-44.954v-1.587l-53.574 44.955Z"/>
		<path fill="#63a3ad" d="m100.523 200.058 53.574-44.954v-1.586l-53.574 44.954Z"/>
		<path fill="#64a4ad" d="m100.523 201.644 53.574-44.954v-1.586l-53.574 44.954Z"/>
		<path fill="#64a5ad" d="m100.523 203.23 53.574-44.954v-1.586l-53.574 44.954Z"/>
		<path fill="#64a6ae" d="m100.523 204.816 53.574-44.954v-1.586l-53.574 44.954Z"/>
		<path fill="#64a6ae" d="m100.523 206.403 53.574-44.954v-1.586l-53.574 44.954Z"/>
		<path fill="#65a7ae" d="m100.523 207.989 53.574-44.954v-1.586l-53.574 44.954Z"/>
		<path fill="#65a8ae" d="m100.523 209.575 53.574-44.954v-1.587l-53.574 44.955Z"/>
		<path fill="#65a9ae" d="m100.523 211.161 53.574-44.954v-1.586l-53.574 44.954Z"/>
		<path fill="#66aaaf" d="m100.523 212.748 53.574-44.954v-1.586l-53.574 44.954Z"/>
		<path fill="#66aaaf" d="m100.523 214.334 53.574-44.954v-1.586l-53.574 44.954Z"/>
		<path fill="#67abaf" d="m100.523 215.92 53.574-44.954v-1.586l-53.574 44.954Z"/>
		<path fill="#67acaf" d="m100.523 217.506 53.574-44.954v-1.587l-53.574 44.955Z"/>
		<path fill="#67adaf" d="m100.523 219.092 53.574-44.954v-1.586l-53.574 44.954Z"/>
		<path fill="#67aeb0" d="m100.523 220.679 53.574-44.954v-1.586l-53.574 44.954Z"/>
		<path fill="#68aeb0" d="m100.523 222.265 53.574-44.954v-1.586l-53.574 44.954Z"/>
		<path fill="#68afb0" d="m100.85 223.576 53.246-44.679v-1.586l-53.574 44.954v1.311Z"/>
		<path fill="#68b0b0" d="m102.741 223.576 51.356-43.093v-1.586l-53.246 44.679Z"/>
		<path fill="#69b1b1" d="m104.631 223.576 49.466-41.507v-1.586l-51.356 43.093Z"/>
		<path fill="#69b1b1" d="m106.522 223.576 47.575-39.92v-1.587l-49.465 41.507Z"/>
		<path fill="#6ab2b1" d="m108.412 223.576 45.685-38.334v-1.586l-47.575 39.92Z"/>
		<path fill="#6ab3b1" d="m110.302 223.576 43.794-36.748v-1.586l-45.684 38.334Z"/>
		<path fill="#6ab4b2" d="m112.193 223.576 41.904-35.162v-1.586l-43.794 36.748Z"/>
		<path fill="#6bb5b2" d="M114.083 223.576 154.097 190v-1.586l-41.904 35.162Z"/>
		<path fill="#6bb5b2" d="m115.974 223.576 38.123-31.989V190l-40.013 33.576Z"/>
		<path fill="#6bb6b2" d="m117.864 223.576 36.233-30.403v-1.586l-38.123 31.989Z"/>
		<path fill="#6cb7b2" d="m119.754 223.576 34.343-28.817v-1.586l-36.233 30.403Z"/>
		<path fill="#6cb8b2" d="m121.645 223.576 32.452-27.231v-1.586l-34.342 28.817Z"/>
		<path fill="#6cb9b3" d="m123.535 223.576 30.562-25.645v-1.586l-32.452 27.231Z"/>
		<path fill="#6db9b3" d="m125.425 223.576 28.671-24.058v-1.587l-30.561 25.645Z"/>
		<path fill="#6dbab3" d="m127.316 223.576 26.781-22.472v-1.586l-28.671 24.058Z"/>
		<path fill="#6dbbb3" d="m129.206 223.576 24.891-20.886v-1.586l-26.781 22.472Z"/>
		<path fill="#6ebcb4" d="m131.097 223.576 23-19.3v-1.586l-24.89 20.886Z"/>
		<path fill="#6ebdb4" d="m132.987 223.576 21.11-17.714v-1.586l-23 19.3Z"/>
		<path fill="#6ebdb4" d="m134.877 223.576 19.22-16.127v-1.587l-21.11 17.714Z"/>
		<path fill="#6fbeb4" d="m136.768 223.576 17.329-14.541v-1.586l-19.219 16.127Z"/>
		<path fill="#6fbfb4" d="m138.658 223.576 15.439-12.955v-1.586l-17.329 14.541Z"/>
		<path fill="#70c0b5" d="m140.548 223.576 13.549-11.369v-1.586l-15.439 12.955Z"/>
		<path fill="#70c1b5" d="m142.439 223.576 11.658-9.782v-1.587l-13.548 11.369Z"/>
		<path fill="#70c1b5" d="m144.33 223.576 9.768-8.196v-1.586l-11.658 9.782Z"/>
		<path fill="#70c1b5" d="m154.097 215.38-9.768 8.196h9.768Z"/>
	</g>
</svg>
