<svg xmlns="http://www.w3.org/2000/svg" viewBox="-8.54 -8.54 443.82 380.57">
	<g fill-rule="nonzero" fill="none">
		<path fill="#0D47A1" d="M117 0h192v196H117z"/>
		<g fill="#FFF">
			<path d="M208.258 45.259c19.177-13.892 36.968-13.409 54.195-12.945 2.456.069 4.993.138 7.48.16l.067-7.14c-2.43 0-4.94-.092-7.365-.156-18.324-.497-37.274-1.011-58.317 14.245-11.891 8.616-20.736 21.639-25.569 37.653C175.12 89.102 175 98.536 175 98.931l6.903.069c-.022-.35.666-35.108 26.355-53.741Z"/>
			<path d="M214.359 53.707C194.889 67.7 192 88.09 192 99h6.949c0-9.535 2.522-27.341 19.425-39.489 14.014-10.07 30.81-9.644 45.612-9.275 2.065.055 4.024.1 5.942.124l.072-7.097a471.962 471.962 0 0 1-5.845-.119c-15.105-.379-33.908-.854-49.796 10.563Z"/>
			<path d="M224.7 68.258c-13.185 9.5-15.166 23.323-15.166 30.731 0 6.028-1.588 17.286-12.226 24.95-9.005 6.49-26.838 6.096-37.49 5.863a339.92 339.92 0 0 0-3.747-.073l-.071 7.102c1.106 0 2.337.037 3.666.064 2.23.05 4.773.105 7.485.105 11.205 0 25.398-.95 34.15-7.257 13.18-9.5 15.165-23.323 15.165-30.731 0-6.029 1.588-17.286 12.221-24.95 9.006-6.485 26.839-6.092 37.495-5.859 1.338.027 2.618.055 3.747.069l.071-7.098c-1.106 0-2.337-.036-3.666-.068-11.508-.256-30.764-.676-41.634 7.152zm-6.951 83.475c-19.18 13.897-36.975 13.41-54.205 12.95-2.452-.068-4.99-.137-7.477-.16l-.067 7.142c2.43.022 4.94.091 7.366.156 3.27.087 6.558.179 9.882.179 15.28 0 31.158-1.893 48.428-14.417 11.894-8.621 20.74-21.64 25.574-37.657C250.88 107.9 251 98.46 251 98.064L244.096 98c.035.35-.636 35.102-26.347 53.733z"/>
			<path d="M170.595 154c13.234 0 28.102-1.416 41.041-10.712C231.111 129.3 234 108.913 234 98h-6.933c0 9.534-2.527 27.342-19.43 39.484-14.017 10.069-30.816 9.648-45.621 9.274-2.067-.05-4.026-.1-5.944-.119l-.072 7.096c1.879 0 3.806.069 5.841.119 2.796.068 5.73.146 8.754.146Z"/>
		</g>
		<path fill="#0D47A1" d="M18.432 260.656c3.936 0 7.368-.66 10.296-1.98 2.928-1.32 5.16-3.144 6.696-5.472 1.536-2.328 2.304-5.028 2.304-8.1 0-4.32-1.224-7.644-3.672-9.972-2.448-2.328-6.144-4.284-11.088-5.868-2.784-.864-4.872-1.632-6.264-2.304-1.392-.672-2.364-1.392-2.916-2.16-.552-.768-.828-1.752-.828-2.952 0-1.728.66-3.06 1.98-3.996 1.32-.936 3.084-1.404 5.292-1.404 2.016 0 3.912.336 5.688 1.008 1.776.672 3.552 1.728 5.328 3.168l5.04-5.832c-2.256-2.112-4.716-3.684-7.38-4.716-2.664-1.032-5.796-1.548-9.396-1.548-3.36 0-6.36.576-9 1.728-2.64 1.152-4.704 2.796-6.192 4.932-1.488 2.136-2.232 4.596-2.232 7.38 0 3.792 1.164 6.864 3.492 9.216 2.328 2.352 6.204 4.368 11.628 6.048 2.544.768 4.488 1.512 5.832 2.232 1.344.72 2.292 1.524 2.844 2.412.552.888.828 2.004.828 3.348 0 2.16-.78 3.84-2.34 5.04-1.56 1.2-3.636 1.8-6.228 1.8-2.448 0-4.704-.42-6.768-1.26-2.064-.84-4.056-2.076-5.976-3.708L0 253.672c2.208 2.16 4.848 3.864 7.92 5.112 3.072 1.248 6.576 1.872 10.512 1.872Zm42.696 0c5.376 0 10.2-1.728 14.472-5.184l-4.248-5.76c-1.68 1.152-3.24 1.992-4.68 2.52-1.44.528-2.976.792-4.608.792-2.64 0-4.728-.72-6.264-2.16-1.536-1.44-2.472-3.888-2.808-7.344h23.832c.144-2.16.216-3.48.216-3.96 0-6.096-1.512-10.848-4.536-14.256-3.024-3.408-7.248-5.112-12.672-5.112-3.6 0-6.708.888-9.324 2.664-2.616 1.776-4.608 4.212-5.976 7.308-1.368 3.096-2.052 6.588-2.052 10.476 0 6.144 1.608 11.016 4.824 14.616 3.216 3.6 7.824 5.4 13.824 5.4Zm5.76-23.544H52.992c.24-3.504.948-6.036 2.124-7.596 1.176-1.56 2.82-2.34 4.932-2.34 4.56 0 6.84 3.168 6.84 9.504v.432Zm33.624 23.544c4.704 0 8.88-1.488 12.528-4.464l-4.464-6.408c-1.488.96-2.784 1.644-3.888 2.052-1.104.408-2.328.612-3.672.612-2.592 0-4.584-.912-5.976-2.736-1.392-1.824-2.088-4.848-2.088-9.072 0-8.352 2.712-12.528 8.136-12.528 1.392 0 2.676.216 3.852.648 1.176.432 2.388 1.128 3.636 2.088l4.464-6.048c-1.824-1.584-3.756-2.748-5.796-3.492-2.04-.744-4.332-1.116-6.876-1.116-3.648 0-6.852.864-9.612 2.592-2.76 1.728-4.884 4.14-6.372 7.236-1.488 3.096-2.232 6.66-2.232 10.692s.744 7.548 2.232 10.548c1.488 3 3.612 5.316 6.372 6.948 2.76 1.632 6.012 2.448 9.756 2.448Zm32.904 0c3.744 0 6.996-.84 9.756-2.52 2.76-1.68 4.872-4.044 6.336-7.092 1.464-3.048 2.196-6.588 2.196-10.62 0-6.336-1.608-11.292-4.824-14.868-3.216-3.576-7.68-5.364-13.392-5.364-3.792 0-7.068.84-9.828 2.52-2.76 1.68-4.872 4.044-6.336 7.092-1.464 3.048-2.196 6.588-2.196 10.62 0 6.336 1.62 11.292 4.86 14.868 3.24 3.576 7.716 5.364 13.428 5.364Zm0-7.632c-2.544 0-4.452-1.02-5.724-3.06-1.272-2.04-1.908-5.22-1.908-9.54 0-4.32.636-7.5 1.908-9.54 1.272-2.04 3.204-3.06 5.796-3.06 2.544 0 4.44 1.02 5.688 3.06 1.248 2.04 1.872 5.22 1.872 9.54 0 4.32-.636 7.5-1.908 9.54-1.272 2.04-3.18 3.06-5.724 3.06Zm36.288 6.48v-26.352c1.104-1.776 2.244-3.108 3.42-3.996 1.176-.888 2.484-1.332 3.924-1.332 1.392 0 2.436.42 3.132 1.26.696.84 1.044 2.292 1.044 4.356v26.064h10.224v-27.792c0-3.6-.936-6.42-2.808-8.46-1.872-2.04-4.488-3.06-7.848-3.06-2.4 0-4.548.504-6.444 1.512s-3.636 2.496-5.22 4.464l-.792-4.824h-8.856v38.16h10.224Zm43.992 1.152c4.608 0 8.256-1.944 10.944-5.832l.576 4.68h9v-53.352L223.992 205v19.008c-2.64-2.544-5.736-3.816-9.288-3.816-3.072 0-5.784.864-8.136 2.592-2.352 1.728-4.164 4.116-5.436 7.164-1.272 3.048-1.908 6.54-1.908 10.476 0 6.24 1.236 11.172 3.708 14.796 2.472 3.624 6.06 5.436 10.764 5.436Zm3.024-7.632c-2.208 0-3.9-.96-5.076-2.88-1.176-1.92-1.764-5.16-1.764-9.72 0-4.32.66-7.512 1.98-9.576 1.32-2.064 3.156-3.096 5.508-3.096 1.344 0 2.532.3 3.564.9 1.032.6 2.052 1.5 3.06 2.7v17.064c-1.056 1.584-2.16 2.748-3.312 3.492-1.152.744-2.472 1.116-3.96 1.116Zm59.472 7.632c3.936 0 7.368-.66 10.296-1.98 2.928-1.32 5.16-3.144 6.696-5.472 1.536-2.328 2.304-5.028 2.304-8.1 0-4.32-1.224-7.644-3.672-9.972-2.448-2.328-6.144-4.284-11.088-5.868-2.784-.864-4.872-1.632-6.264-2.304-1.392-.672-2.364-1.392-2.916-2.16-.552-.768-.828-1.752-.828-2.952 0-1.728.66-3.06 1.98-3.996 1.32-.936 3.084-1.404 5.292-1.404 2.016 0 3.912.336 5.688 1.008 1.776.672 3.552 1.728 5.328 3.168l5.04-5.832c-2.256-2.112-4.716-3.684-7.38-4.716-2.664-1.032-5.796-1.548-9.396-1.548-3.36 0-6.36.576-9 1.728-2.64 1.152-4.704 2.796-6.192 4.932-1.488 2.136-2.232 4.596-2.232 7.38 0 3.792 1.164 6.864 3.492 9.216 2.328 2.352 6.204 4.368 11.628 6.048 2.544.768 4.488 1.512 5.832 2.232 1.344.72 2.292 1.524 2.844 2.412.552.888.828 2.004.828 3.348 0 2.16-.78 3.84-2.34 5.04-1.56 1.2-3.636 1.8-6.228 1.8-2.448 0-4.704-.42-6.768-1.26-2.064-.84-4.056-2.076-5.976-3.708l-5.4 5.976c2.208 2.16 4.848 3.864 7.92 5.112 3.072 1.248 6.576 1.872 10.512 1.872Zm39.24 0a18.81 18.81 0 0 0 5.22-.756c1.752-.504 3.324-1.236 4.716-2.196l-3.528-6.48c-1.584.864-3.024 1.296-4.32 1.296-1.296 0-2.256-.408-2.88-1.224-.624-.816-.936-2.136-.936-3.96v-18.792h7.776l1.008-7.2h-8.784v-9.576l-10.224 1.224v8.352h-5.688v7.2h5.688v19.008c0 4.272 1.008 7.512 3.024 9.72 2.016 2.208 4.992 3.336 8.928 3.384Zm23.256 0c5.136 0 8.952-1.92 11.448-5.76.768 1.824 1.86 3.168 3.276 4.032 1.416.864 3.252 1.392 5.508 1.584l2.16-6.768c-1.008-.336-1.728-.852-2.16-1.548-.432-.696-.648-1.788-.648-3.276v-15.408c0-4.416-1.224-7.74-3.672-9.972-2.448-2.232-6.264-3.348-11.448-3.348-4.656 0-9.36.936-14.112 2.808l2.304 6.84c4.032-1.344 7.392-2.016 10.08-2.016 2.448 0 4.2.456 5.256 1.368 1.056.912 1.584 2.544 1.584 4.896v1.872h-4.392c-5.664 0-10.008 1.104-13.032 3.312-3.024 2.208-4.536 5.4-4.536 9.576 0 3.504 1.116 6.348 3.348 8.532 2.232 2.184 5.244 3.276 9.036 3.276Zm2.808-7.344c-1.584 0-2.796-.468-3.636-1.404-.84-.936-1.26-2.244-1.26-3.924 0-4.128 2.76-6.192 8.28-6.192h3.384v7.272c-1.632 2.832-3.888 4.248-6.768 4.248Zm39.888 7.344a18.81 18.81 0 0 0 5.22-.756c1.752-.504 3.324-1.236 4.716-2.196l-3.528-6.48c-1.584.864-3.024 1.296-4.32 1.296-1.296 0-2.256-.408-2.88-1.224-.624-.816-.936-2.136-.936-3.96v-18.792h7.776l1.008-7.2h-8.784v-9.576l-10.224 1.224v8.352h-5.688v7.2h5.688v19.008c0 4.272 1.008 7.512 3.024 9.72 2.016 2.208 4.992 3.336 8.928 3.384Zm29.592 0c5.376 0 10.2-1.728 14.472-5.184l-4.248-5.76c-1.68 1.152-3.24 1.992-4.68 2.52-1.44.528-2.976.792-4.608.792-2.64 0-4.728-.72-6.264-2.16-1.536-1.44-2.472-3.888-2.808-7.344h23.832c.144-2.16.216-3.48.216-3.96 0-6.096-1.512-10.848-4.536-14.256-3.024-3.408-7.248-5.112-12.672-5.112-3.6 0-6.708.888-9.324 2.664-2.616 1.776-4.608 4.212-5.976 7.308-1.368 3.096-2.052 6.588-2.052 10.476 0 6.144 1.608 11.016 4.824 14.616 3.216 3.6 7.824 5.4 13.824 5.4Zm5.76-23.544H402.84c.24-3.504.948-6.036 2.124-7.596 1.176-1.56 2.82-2.34 4.932-2.34 4.56 0 6.84 3.168 6.84 9.504v.432ZM72.072 362.504V342.2h14.976v-7.704H72.072v-14.112H89.28l1.152-7.704H61.488v49.824h10.584Zm32.04 1.152c2.544 0 4.776-.516 6.696-1.548s3.552-2.604 4.896-4.716l.504 5.112h8.856v-38.16H114.84v26.712c-1.92 3.312-4.248 4.968-6.984 4.968-1.44 0-2.496-.42-3.168-1.26-.672-.84-1.008-2.268-1.008-4.284v-26.136H93.456v27.432c0 3.744.912 6.66 2.736 8.748 1.824 2.088 4.464 3.132 7.92 3.132Zm41.256-1.152v-26.352c1.104-1.776 2.244-3.108 3.42-3.996 1.176-.888 2.484-1.332 3.924-1.332 1.392 0 2.436.42 3.132 1.26.696.84 1.044 2.292 1.044 4.356v26.064h10.224v-27.792c0-3.6-.936-6.42-2.808-8.46-1.872-2.04-4.488-3.06-7.848-3.06-2.4 0-4.548.504-6.444 1.512s-3.636 2.496-5.22 4.464l-.792-4.824h-8.856v38.16h10.224Zm47.52 1.152c4.704 0 8.88-1.488 12.528-4.464l-4.464-6.408c-1.488.96-2.784 1.644-3.888 2.052-1.104.408-2.328.612-3.672.612-2.592 0-4.584-.912-5.976-2.736-1.392-1.824-2.088-4.848-2.088-9.072 0-8.352 2.712-12.528 8.136-12.528 1.392 0 2.676.216 3.852.648 1.176.432 2.388 1.128 3.636 2.088l4.464-6.048c-1.824-1.584-3.756-2.748-5.796-3.492-2.04-.744-4.332-1.116-6.876-1.116-3.648 0-6.852.864-9.612 2.592-2.76 1.728-4.884 4.14-6.372 7.236-1.488 3.096-2.232 6.66-2.232 10.692s.744 7.548 2.232 10.548c1.488 3 3.612 5.316 6.372 6.948 2.76 1.632 6.012 2.448 9.756 2.448Zm31.248 0a18.81 18.81 0 0 0 5.22-.756c1.752-.504 3.324-1.236 4.716-2.196l-3.528-6.48c-1.584.864-3.024 1.296-4.32 1.296-1.296 0-2.256-.408-2.88-1.224-.624-.816-.936-2.136-.936-3.96v-18.792h7.776l1.008-7.2h-8.784v-9.576l-10.224 1.224v8.352h-5.688v7.2h5.688v19.008c0 4.272 1.008 7.512 3.024 9.72 2.016 2.208 4.992 3.336 8.928 3.384Zm19.512-47.016c1.824 0 3.324-.564 4.5-1.692 1.176-1.128 1.764-2.556 1.764-4.284 0-1.728-.588-3.156-1.764-4.284-1.176-1.128-2.676-1.692-4.5-1.692-1.824 0-3.312.564-4.464 1.692-1.152 1.128-1.728 2.556-1.728 4.284 0 1.728.576 3.156 1.728 4.284 1.152 1.128 2.64 1.692 4.464 1.692Zm5.184 45.864v-38.16h-10.224v38.16h10.224Zm26.064 1.152c3.744 0 6.996-.84 9.756-2.52 2.76-1.68 4.872-4.044 6.336-7.092 1.464-3.048 2.196-6.588 2.196-10.62 0-6.336-1.608-11.292-4.824-14.868-3.216-3.576-7.68-5.364-13.392-5.364-3.792 0-7.068.84-9.828 2.52-2.76 1.68-4.872 4.044-6.336 7.092-1.464 3.048-2.196 6.588-2.196 10.62 0 6.336 1.62 11.292 4.86 14.868 3.24 3.576 7.716 5.364 13.428 5.364Zm0-7.632c-2.544 0-4.452-1.02-5.724-3.06-1.272-2.04-1.908-5.22-1.908-9.54 0-4.32.636-7.5 1.908-9.54 1.272-2.04 3.204-3.06 5.796-3.06 2.544 0 4.44 1.02 5.688 3.06 1.248 2.04 1.872 5.22 1.872 9.54 0 4.32-.636 7.5-1.908 9.54-1.272 2.04-3.18 3.06-5.724 3.06Zm36.288 6.48v-26.352c1.104-1.776 2.244-3.108 3.42-3.996 1.176-.888 2.484-1.332 3.924-1.332 1.392 0 2.436.42 3.132 1.26.696.84 1.044 2.292 1.044 4.356v26.064h10.224v-27.792c0-3.6-.936-6.42-2.808-8.46-1.872-2.04-4.488-3.06-7.848-3.06-2.4 0-4.548.504-6.444 1.512s-3.636 2.496-5.22 4.464l-.792-4.824h-8.856v38.16h10.224Zm42.768 1.152c3.072 0 5.856-.492 8.352-1.476 2.496-.984 4.476-2.412 5.94-4.284 1.464-1.872 2.196-4.08 2.196-6.624 0-3.216-.984-5.748-2.952-7.596-1.968-1.848-4.968-3.324-9-4.428-2.256-.672-3.948-1.248-5.076-1.728-1.128-.48-1.896-.984-2.304-1.512-.408-.528-.612-1.176-.612-1.944 0-1.056.456-1.896 1.368-2.52.912-.624 2.208-.936 3.888-.936 3.12 0 6.288 1.008 9.504 3.024l3.888-5.832c-3.84-3.072-8.448-4.608-13.824-4.608-3.024 0-5.676.492-7.956 1.476-2.28.984-4.044 2.34-5.292 4.068-1.248 1.728-1.872 3.672-1.872 5.832 0 2.88.924 5.292 2.772 7.236 1.848 1.944 4.692 3.444 8.532 4.5 2.448.672 4.248 1.26 5.4 1.764 1.152.504 1.944 1.044 2.376 1.62.432.576.648 1.368.648 2.376 0 1.296-.564 2.316-1.692 3.06-1.128.744-2.652 1.116-4.572 1.116-3.6 0-7.008-1.248-10.224-3.744l-5.04 5.616c1.872 1.728 4.128 3.084 6.768 4.068 2.64.984 5.568 1.476 8.784 1.476Z"/>
	</g>
</svg>
