<svg xmlns="http://www.w3.org/2000/svg" viewBox="-6.12 13.38 604.24 262.74">
	<defs>
		<style>
			.cls-1{fill:#0d47a1}
		</style>
	</defs>
	<path d="M92.679 58.126c32.108-22.492 61.898-21.709 90.713-20.956 4.108.108 8.355.219 12.524.26l.111-11.56c-4.072-.038-8.272-.149-12.333-.255-30.68-.804-62.414-1.636-97.646 23.043C66.13 62.61 51.326 83.686 43.23 109.61a134.071 134.071 0 0 0-6.28 35.38l11.558.106c.006-.565 1.119-56.813 44.17-86.97z" class="cls-1"/>
	<path d="M103.477 71.27C71.096 94.052 66.26 127.267 66.26 145.037h11.56c0-15.53 4.197-44.536 32.31-64.316 23.31-16.402 51.247-15.714 75.898-15.108 3.435.085 6.679.164 9.883.198l.121-11.559c-3.123-.032-6.327-.111-9.719-.194-25.129-.618-56.403-1.388-82.836 17.21z" class="cls-1"/>
	<path d="M120.493 94.952c-21.985 15.47-25.285 37.984-25.291 50.052h-.016c0 9.818-2.649 28.152-20.385 40.633-15.02 10.567-44.756 9.927-62.523 9.547-2.267-.05-4.362-.094-6.243-.114l-.12 11.56c1.841.018 3.895.062 6.115.11 3.736.08 7.96.171 12.478.171 18.683 0 42.351-1.553 56.945-11.821 21.986-15.47 25.286-37.985 25.292-50.052h.015c0-9.818 2.649-28.152 20.385-40.633 15.017-10.567 44.754-9.928 62.523-9.547 2.267.05 4.363.094 6.243.114l.121-11.56a536.919 536.919 0 0 1-6.116-.11c-19.188-.414-51.3-1.102-69.423 11.65zm-11.225 136.964c-32.109 22.49-61.9 21.707-90.713 20.956-4.108-.108-8.356-.219-12.524-.26l-.112 11.56c4.073.038 8.272.149 12.333.255 5.478.144 10.984.288 16.544.288 25.577 0 52.161-3.059 81.103-23.331 19.917-13.952 34.722-35.028 42.816-60.951a134.07 134.07 0 0 0 6.281-35.38l-11.559-.106c-.005.565-1.118 56.813-44.169 86.97z" class="cls-1"/>
	<path d="M30.215 236.218c22.007 0 46.737-2.306 68.254-17.445 32.382-22.784 37.217-55.999 37.217-73.77h-11.559c0 15.53-4.197 44.537-32.31 64.317-23.31 16.401-51.249 15.714-75.9 15.108a705.258 705.258 0 0 0-9.882-.198l-.12 11.559c3.121.032 6.326.11 9.717.194 4.674.115 9.555.235 14.583.235zm259.035-122.18a14.096 14.096 0 0 1-5.401 11.723q-5.401 4.251-14.9 4.25-9.5 0-15.552-2.949v-8.656a42.23 42.23 0 0 0 8.14 2.834 34.513 34.513 0 0 0 8.024 1.034q5.439 0 8.025-2.068a6.743 6.743 0 0 0 2.585-5.554 6.963 6.963 0 0 0-2.374-5.325q-2.376-2.183-9.806-5.17-7.662-3.103-10.802-7.087a14.992 14.992 0 0 1-3.14-9.575 13.411 13.411 0 0 1 4.978-11.033q4.98-4.02 13.369-4.022a39.269 39.269 0 0 1 16.011 3.525l-2.911 7.469a34.996 34.996 0 0 0-13.33-3.14q-4.443 0-6.742 1.934a6.354 6.354 0 0 0-2.298 5.113 7.2 7.2 0 0 0 .92 3.734 9.399 9.399 0 0 0 3.025 2.931 51.31 51.31 0 0 0 7.585 3.64 41.501 41.501 0 0 1 9.04 4.787 14.081 14.081 0 0 1 4.213 5.018 15.096 15.096 0 0 1 1.34 6.588zm47.695 15.208h-31.678V73.244h31.678v7.739h-22.523v15.244h21.105v7.661h-21.105v17.582h22.523zm41.106-48.953q-7.892 0-12.411 5.593-4.519 5.591-4.52 15.435 0 10.306 4.348 15.59 4.347 5.286 12.583 5.287a33.04 33.04 0 0 0 6.894-.709q3.334-.709 6.934-1.82v7.853a42.028 42.028 0 0 1-14.94 2.49q-12.295 0-18.882-7.45-6.59-7.451-6.59-21.317a34.451 34.451 0 0 1 3.199-15.283 22.823 22.823 0 0 1 9.25-10.036 27.992 27.992 0 0 1 14.212-3.486 35.267 35.267 0 0 1 15.857 3.601l-3.294 7.622a49.22 49.22 0 0 0-5.995-2.355 21.594 21.594 0 0 0-6.645-1.015zm79.222 20.876q0 13.674-6.837 21.259-6.837 7.583-19.364 7.583-12.678 0-19.477-7.526-6.8-7.527-6.8-21.392 0-13.866 6.839-21.298 6.837-7.43 19.516-7.431 12.487 0 19.305 7.546t6.818 21.259zm-42.748 0q0 10.34 4.176 15.685 4.174 5.343 12.371 5.344 8.16 0 12.316-5.286 4.155-5.286 4.155-15.743 0-10.304-4.117-15.628-4.118-5.324-12.276-5.325-8.238 0-12.43 5.325-4.195 5.324-4.195 15.628zm106.607 28.077H509.91l-27.54-44.624h-.307l.191 2.49q.537 7.123.536 13.023v29.11h-8.312v-56h11.109l27.465 44.395h.23q-.078-.881-.308-6.416-.228-5.536-.23-8.639v-29.34h8.39zm65.508-28.537q0 13.866-7.7 21.201-7.699 7.337-22.178 7.336h-15.667V73.244h17.314q13.367 0 20.8 7.202 7.43 7.203 7.43 20.263zm-9.654.306q0-20.108-18.807-20.11h-7.93v40.64h6.513q20.224 0 20.224-20.53zM289.25 203.896a14.096 14.096 0 0 1-5.401 11.722q-5.401 4.251-14.9 4.25-9.5 0-15.552-2.948v-8.657a42.23 42.23 0 0 0 8.14 2.834 34.513 34.513 0 0 0 8.024 1.035q5.439 0 8.025-2.069a6.743 6.743 0 0 0 2.585-5.554 6.963 6.963 0 0 0-2.374-5.325q-2.376-2.182-9.806-5.17-7.662-3.103-10.802-7.086a14.992 14.992 0 0 1-3.14-9.576 13.411 13.411 0 0 1 4.978-11.032q4.98-4.021 13.369-4.022a39.269 39.269 0 0 1 16.01 3.525l-2.91 7.468a34.996 34.996 0 0 0-13.33-3.14q-4.443 0-6.742 1.934a6.354 6.354 0 0 0-2.298 5.113 7.2 7.2 0 0 0 .92 3.735 9.399 9.399 0 0 0 3.025 2.93 51.31 51.31 0 0 0 7.585 3.64 41.502 41.502 0 0 1 9.04 4.787 14.081 14.081 0 0 1 4.213 5.018 15.096 15.096 0 0 1 1.34 6.588zm35.36 15.207h-9.154v-48.148h-16.47v-7.853h42.096v7.853H324.61zm59.558 0-5.592-15.552h-21.412l-5.478 15.552h-9.652l20.953-56.23h9.958l20.953 56.23zm-8.006-23.442-5.247-15.245q-.576-1.532-1.59-4.827-1.015-3.294-1.398-4.826a85.876 85.876 0 0 1-3.026 10.304l-5.056 14.594zm44.237 23.442h-9.155v-48.148h-16.471v-7.853h42.097v7.853h-16.471zm61.89-.157h-31.678v-56.002h31.678v7.739h-22.523v15.244h21.106v7.661h-21.106v17.582h22.523z" class="cls-1"/>
</svg>
