<svg xmlns="http://www.w3.org/2000/svg" viewBox="-17.93 -17.93 932.36 184.86">
	<path fill="#FF3744" fill-rule="evenodd" d="M555.077.704h-19.781c-12.717 0-16.249 2.825-16.249 15.542v120.101c0 8.478 4.945 13.423 12.716 12.717 8.478 0 12.717-4.945 12.717-13.423V89.013h18.368c12.717-.706 21.901 4.946 27.553 16.249 4.945 10.597 15.543 25.433 21.194 36.031 1.413 2.825 9.185 11.303 17.662 7.064 6.359-3.532 4.946-12.716 2.826-16.955-6.358-16.249-13.423-33.911-31.085-44.508 2.12-.707 2.826-1.413 4.239-2.12 21.195-9.184 28.966-22.607 26.846-47.334-1.413-18.368-13.423-33.91-35.324-35.324-9.89-.706-19.781-.706-29.672-.706-3.532-.707-7.771-.707-12.01-.707zm-4.945 68.528c-2.12 0-4.945-2.826-4.945-4.945-.707-14.13 0-28.26 0-43.096 14.836 0 28.259-.706 41.682 0 13.423.707 21.194 9.891 21.901 22.608.706 13.423-5.652 21.9-19.782 24.02-8.478 1.413-17.662 1.413-26.846 1.413h-12.01zM32.277 4.945C13.202 10.597 1.9 26.14 1.9 45.215c0 18.368 9.89 30.378 30.378 36.736 3.533 1.413 7.771 2.12 12.01 2.826 10.598 2.826 20.488 4.946 31.085 7.772 7.065 2.12 12.01 7.771 10.597 14.836-.706 5.651-4.945 11.303-9.184 14.836-3.532 2.826-9.184 3.532-14.13 4.239-16.955 1.413-32.497-2.826-48.04-9.185-5.652-2.119-12.01.707-13.423 2.826-2.12 4.239-1.413 9.184 2.12 13.423.706 1.413 2.826 2.826 4.945 4.239 24.727 12.717 50.16 14.836 76.3 5.652 18.368-7.065 27.552-21.194 26.846-39.563-.707-16.249-9.891-26.14-28.966-32.498-5.652-1.413-10.597-2.826-16.249-4.239-8.478-2.119-18.368-2.826-26.14-7.064-4.945-2.12-9.89-8.478-12.01-14.13-2.826-7.065 1.413-13.423 7.772-17.662 4.238-2.826 9.184-4.239 14.13-5.652 14.129-2.12 26.139 2.12 40.268 6.359 7.065 2.119 12.011 3.532 15.543-3.533 3.532-6.358-.707-11.303-6.358-14.13C87.383 4.24 73.959 0 62.656 0h-1.413C47.82.706 40.755 2.826 32.277 4.945zM767.01 12.01c0 7.771 4.945 9.89 11.303 9.89h40.27v111.624c0 9.185 2.119 15.543 12.716 15.543s13.423-5.652 12.717-15.543V21.901h43.802c6.358 0 9.184-4.239 9.184-10.597 0-7.065-2.826-11.304-9.184-11.304H776.194c-6.358.706-9.184 4.945-9.184 12.01zM471.721 4.24c-19.075 18.368-42.389 40.976-60.757 59.344-6.359 6.358-6.359 14.836 0 21.194 19.074 19.782 41.682 40.976 60.757 60.051 2.826 2.826 13.423 7.771 19.781 2.119 4.239-4.238 3.532-11.303-3.532-18.368-17.662-16.955-38.15-36.737-55.812-53.692 14.836-14.836 26.846-28.26 39.563-40.976l16.955-16.956c2.826-2.825 3.533-11.303 0-14.836C487.263.706 485.144 0 483.024 0c-4.945.706-9.184 2.12-11.303 4.239zM367.877.696c-8.478 0-12.716 4.238-12.716 14.836V134.22c0 10.597 4.238 14.836 13.423 14.836 9.184 0 12.716-4.239 12.716-14.836V16.945c-.706-12.01-4.239-16.25-13.423-16.25zm-44.528.008h-64.29v21.194h63.583c6.359 0 8.478-4.945 8.478-11.304-.706-4.238-4.945-9.89-7.771-9.89zm-14.134 62.198h-64.29v21.195h63.583c6.359 0 8.478-4.946 8.478-11.304 0-4.239-4.239-9.89-7.771-9.89zm14.134 64.271h-64.29v21.194h63.583c6.359 0 8.478-4.945 8.478-11.303 0-4.239-4.945-9.891-7.771-9.891zM213.127.703h-64.289v21.195h63.583c6.358 0 8.477-4.945 8.477-11.303 0-4.24-4.238-9.891-7.771-9.891zm-13.409 62.2h-64.289v21.194h63.583c6.358 0 8.477-4.945 8.477-11.304 0-4.239-4.238-9.89-7.771-9.89zm13.409 64.27h-64.289v21.194h63.583c6.358 0 8.477-4.945 8.477-11.303 0-4.239-4.238-9.891-7.771-9.891zM735.229.703h-64.29v21.195h63.583c6.359 0 8.478-4.945 8.478-11.303 0-4.24-4.239-9.891-7.771-9.891zm-13.424 62.2h-64.29v21.194h63.583c6.358 0 8.478-4.945 8.478-11.304 0-4.239-4.239-9.89-7.771-9.89zm13.424 64.27h-64.29v21.195h63.583c6.359 0 8.478-4.946 8.478-11.304 0-4.239-4.239-9.891-7.771-9.891z" clip-rule="evenodd"/>
</svg>
