<svg xmlns="http://www.w3.org/2000/svg" width="200" height="128">
	<path d="M20.131 60.41a.588.588 0 0 1-.068-.478 16.093 16.093 0 0 1 5.489-8.678 15.917 15.917 0 0 1 15.407-2.726.586.586 0 0 1 .352.325.6.6 0 0 1 0 .478l-.788 2.1a.6.6 0 0 1-.761.368 12.513 12.513 0 0 0-12.082 2.16 12.712 12.712 0 0 0-4.266 6.8.553.553 0 0 1-.588.457h-.136l-2.165-.52a.579.579 0 0 1-.383-.283zm31.387 5.221-.021.011a.584.584 0 0 1 .126.462 16.471 16.471 0 0 1-5.143 10.023 15.927 15.927 0 0 1-10.831 4.249 15.59 15.59 0 0 1-5.8-1.1.554.554 0 0 1-.341-.336.578.578 0 0 1 0-.478l.861-2.1a.6.6 0 0 1 .778-.341 12.521 12.521 0 0 0 13.022-2.5 12.9 12.9 0 0 0 4.065-7.827.61.61 0 0 1 .662-.525l2.204.231a.59.59 0 0 1 .418.231zm-12.213 3.057a.6.6 0 0 1-.177.437.589.589 0 0 1-.433.183H20.609a.613.613 0 0 1-.609-.62v-2.264a.613.613 0 0 1 .609-.619H38.7a.589.589 0 0 1 .433.183.6.6 0 0 1 .177.436zM32.344 58.2v.021a.615.615 0 0 1 .6-.62h18.091a.615.615 0 0 1 .609.6v2.264a.613.613 0 0 1-.609.619H32.949a.588.588 0 0 1-.43-.185.6.6 0 0 1-.175-.434zm13.222-7.5a1.854 1.854 0 0 1 .671 3.57 1.854 1.854 0 1 1-.671-3.57zM25.437 73.117a1.855 1.855 0 0 1 1.276 3.169 1.854 1.854 0 1 1-1.276-3.169zM87.989 62.4a3.472 3.472 0 0 0-3.761-3.267 3.675 3.675 0 0 0-3.714 3.267zM84.2 55.934c4.575 0 7.417 3.142 7.417 8.2a7.5 7.5 0 0 1-.042.793.485.485 0 0 1-.483.442H80.409a4.108 4.108 0 0 0 4.181 3.987 3.744 3.744 0 0 0 3.825-2.669.487.487 0 0 1 .614-.294l2.133.751a.436.436 0 0 1 .278.252.465.465 0 0 1 0 .373 7.033 7.033 0 0 1-6.871 4.78 7.59 7.59 0 0 1-5.431-2.2 8.493 8.493 0 0 1-2.327-6.149c0-5.177 3.756-8.266 7.389-8.266zm21.333 7.937c0-2.752-1.608-4.6-3.993-4.6-2.479 0-4.055 1.765-4.055 4.6s1.555 4.6 4.055 4.6c2.381-.003 3.989-1.852 3.989-4.6zm2.915-7.459a.471.471 0 0 1 .489.5v13.967a8.261 8.261 0 0 1-1.713 5.479 7.491 7.491 0 0 1-6.12 2.484c-3.761 0-6.729-2.379-7.217-5.778a.474.474 0 0 1 .378-.557l2.459-.577a.491.491 0 0 1 .6.409 3.716 3.716 0 0 0 3.782 3.283c2.937 0 4.3-1.507 4.3-4.659v-1.224a5.525 5.525 0 0 1-4.3 1.844c-4.181 0-7.212-3.246-7.212-7.712a7.865 7.865 0 0 1 1.986-5.478 6.928 6.928 0 0 1 5.226-2.264 5.388 5.388 0 0 1 4.334 1.717v-.935a.525.525 0 0 1 .494-.5zm20.959-.478c2.732 0 5.489 1.923 5.489 6.125v9.729a.525.525 0 0 1-.493.5h-2.516a.525.525 0 0 1-.494-.5v-9.414c0-1.192-.373-3.2-2.895-3.2-1.843 0-3.151 1.45-3.151 3.551v9.062a.527.527 0 0 1-.494.5H122.3a.527.527 0 0 1-.494-.5v-9.413c0-1.192-.373-3.2-2.894-3.2-1.917 0-3.21 1.44-3.21 3.583v9.03a.525.525 0 0 1-.493.5h-2.517a.471.471 0 0 1-.488-.5V56.88a.47.47 0 0 1 .488-.5h2.422a.525.525 0 0 1 .494.5v.9a5.658 5.658 0 0 1 4.255-1.844 5.026 5.026 0 0 1 4.533 2.569 5.691 5.691 0 0 1 5.011-2.569zm11.574 6.466h7.475a3.472 3.472 0 0 0-3.761-3.267 3.675 3.675 0 0 0-3.714 3.267zm3.677-6.461h-.011c4.576 0 7.418 3.142 7.418 8.2 0 .265-.015.53-.042.793a.438.438 0 0 1-.484.442h-10.684a4.11 4.11 0 0 0 4.165 3.987 3.746 3.746 0 0 0 2.378-.667 3.747 3.747 0 0 0 1.447-2 .493.493 0 0 1 .614-.294l2.133.751a.436.436 0 0 1 .278.252.467.467 0 0 1 .027.373 7.03 7.03 0 0 1-6.877 4.78 7.589 7.589 0 0 1-5.421-2.2 8.478 8.478 0 0 1-2.327-6.151c0-5.182 3.756-8.271 7.386-8.271zm18.1 0a5.314 5.314 0 0 1 4.266 1.855 6.753 6.753 0 0 1 1.408 4.491v9.508a.471.471 0 0 1-.489.5h-2.548a.525.525 0 0 1-.493-.5v-9c0-2.353-1.109-3.551-3.21-3.551a2.776 2.776 0 0 0-2.39 1.114 4.494 4.494 0 0 0-.819 2.789v8.647a.527.527 0 0 1-.494.5h-2.543a.525.525 0 0 1-.493-.5V56.869a.525.525 0 0 1 .493-.5h2.485a.47.47 0 0 1 .488.5v1.051a5.473 5.473 0 0 1 4.339-1.986zm16.757 3.772h-2.763v7.659c0 1.271.5 1.8 1.8 1.8a6.7 6.7 0 0 0 .883-.073.465.465 0 0 1 .4.11.5.5 0 0 1 .168.378v2.155a.451.451 0 0 1-.352.478 6.83 6.83 0 0 1-1.944.253c-2.768 0-4.486-1.781-4.486-4.655v-8.079h-2.39a.5.5 0 0 1-.342-.155.508.508 0 0 1-.152-.344v-2.3a.527.527 0 0 1 .494-.526h.62a1.84 1.84 0 0 0 2.017-2.054v-2.279a.527.527 0 0 1 .494-.526h2.3a.511.511 0 0 1 .351.165.5.5 0 0 1 .142.361v4.312h2.763a.527.527 0 0 1 .489.526v2.29a.493.493 0 0 1-.489.5zM74.893 67.648l-.01-.042c0 2.375-2.28 4.9-6.514 4.9-4.911 0-6.839-2.778-7.2-4.417a.314.314 0 0 1 .262-.389l2.627-.82a.483.483 0 0 1 .142 0 .436.436 0 0 1 .215.053.344.344 0 0 1 .194.236c.331 1.576 1.755 2.517 3.8 2.517 1.906 0 2.773-1 2.773-1.9s-.772-1.571-2.1-1.839l-2.947-.572c-2.747-.52-4.46-2.227-4.46-4.449 0-2.706 2.905-5 6.335-5a7.72 7.72 0 0 1 4.95 1.484 5.27 5.27 0 0 1 1.771 2.569.3.3 0 0 1-.247.41l-2.548.84a.457.457 0 0 1-.352 0 .357.357 0 0 1-.2-.231c-.215-.825-.956-2.211-3.367-2.211-1.681 0-2.689.966-2.689 1.9 0 .62.32 1.418 1.838 1.707l2.805.526c3.129.631 4.922 2.344 4.922 4.728z" fill="#52bd95" fill-rule="evenodd"/>
</svg>
