<?xml version="1.0" encoding="utf-8"?>
<!-- Generator: Adobe Illustrator 21.1.0, SVG Export Plug-In . SVG Version: 6.00 Build 0)  -->
<svg version="1.1" id="Layer_1" xmlns="http://www.w3.org/2000/svg" xmlns:xlink="http://www.w3.org/1999/xlink" x="0px" y="0px"
	 viewBox="0 0 300 314" style="enable-background:new 0 0 300 314;" xml:space="preserve">
<style type="text/css">
	.st0{fill:#43AF2A;}
	.st1{fill:#FEFEFE;}
	.st2{fill:#E0E0E1;}
</style>
<g>
	<path class="st0" d="M297.9,313.8c-98.6,0-197.1,0-295.7,0c-1.3-0.6-1.7-1.7-1.7-3.1c0-102.3,0-204.5,0-306.8c0-0.2,0-0.5,0-0.7
		c0-1.1,0.4-2,1.5-2.4c0.4-0.1,0.9-0.1,1.3-0.1c90,0,180.1,0,270.1,0c0.4,0,0.8,0.1,1.1,0.1c1.6,0.8,1.9,2.1,0.7,3.6
		c-10.8,14.8-21.7,29.5-32.5,44.3c-14.8,20.1-29.6,40.3-44.3,60.4c-1.3,1.8-3.4,2-4.8,0.4c-3.4-3.8-6.8-7.6-10.2-11.4
		c-5.7-6.4-11.4-12.8-17.2-19.1c-1.6-1.8-3.6-1.7-5,0.2c-5.2,6.8-10.5,13.7-15.7,20.5c-1.2,1.5-1.1,2.9,0.3,4.3
		c16.2,16.7,32.5,33.4,48.7,50.2c1.7,1.7,3.4,1.7,5-0.1c6.9-7.7,13.8-15.5,20.7-23.2c13.8-15.4,27.5-30.9,41.3-46.3
		c9.3-10.4,18.5-20.8,27.8-31.1c2.1-2.4,4.3-4.8,6.5-7.2c0.8-0.9,1.6-1.1,2.5-0.8c1,0.4,1.4,1.1,1.4,2.3c0,0.4,0,0.7,0,1.1
		c0,87.3,0,174.7,0,262C299.5,312.1,299.2,313.1,297.9,313.8z M82,279.4c2.6,0,5.9-0.1,9.2-0.3c2.7-0.2,5.3-0.6,8-1.1
		c6.5-1.2,12.6-3.3,18.3-6.7c3.6-2.2,6.8-4.9,9.5-8.1c2.2-2.7,4-5.6,5.4-8.8c1.7-4,2.7-8.2,3-12.5c0.2-2,0.2-4,0.1-6
		c-0.2-2.9-0.5-5.7-1.3-8.5c-1.8-6.5-5.5-11.8-10.8-16c-2.9-2.4-6.2-4.3-9.6-5.9c-5.7-2.7-11.7-4.5-17.8-6.1
		c-4.2-1.1-8.5-2.1-12.7-3.1c-2.8-0.7-5.6-1.4-8.3-2.2c-3.1-1-6.2-2-9-3.8c-3.4-2.2-5.2-5.2-4.4-9.4c0.6-3.2,2.3-5.7,5-7.6
		c3.2-2.2,6.8-2.9,10.5-3.2c2.3-0.2,4.6,0,6.9,0.1c3,0.2,5.9,0.5,8.7,1.2c4.7,1.2,9.3,2.8,13.7,5.1c3,1.6,5.8,3.4,8.5,5.5
		c1.4,1.1,3.3,1,4.4-0.3c0.4-0.5,0.8-1,1.1-1.5c3.5-4.7,7.1-9.3,10.6-14c1.1-1.5,1.2-2.8,0.2-4c-0.4-0.5-1-0.9-1.5-1.3
		c-4.6-3.5-9.6-6.5-14.9-8.8c-6-2.7-12.2-4.5-18.7-5.5c-3.2-0.5-6.4-0.7-9.6-0.8c-3-0.1-6,0.1-9.1,0.3c-3.5,0.2-7,0.7-10.4,1.5
		c-6.3,1.5-12.3,4-17.6,7.8c-5.4,3.8-9.6,8.7-12.4,14.7c-2.2,4.7-3.2,9.7-3.3,14.9c0,1.9,0.1,3.8,0.4,5.7c0.6,3.7,1.6,7.3,3.3,10.7
		c2.2,4.3,5.4,7.8,9.3,10.7c2.9,2.1,6,3.8,9.2,5.3c4.7,2.1,9.6,3.7,14.5,5.1c4.6,1.3,9.4,2.3,14,3.4c3,0.7,5.9,1.5,8.9,2.4
		c3.9,1.2,7.7,2.5,11,5.2c2.6,2.1,3.8,4.8,3.7,8.1c0,1.7-0.6,3.3-1.4,4.8c-2.2,3.6-5.5,5.8-9.4,7.1c-4.3,1.4-8.7,1.9-13.2,1.7
		c-3-0.1-6-0.4-8.9-0.9c-5.7-1.1-11.1-3-16.3-5.7c-4.3-2.3-8.2-5.1-11.8-8.3c-1.5-1.3-3.3-1.2-4.4,0.4c-3.9,5.4-7.8,10.9-11.7,16.4
		c-0.9,1.2-0.6,2.8,0.5,3.8c9.2,8.1,19.8,13.6,31.7,16.5c4.2,1,8.6,1.7,12.9,2C77.8,279.6,79.6,279.4,82,279.4z M209.8,237.1
		c8.4,0,16.8,0,25.1,0c2.8,0,5.6,0,8.5,0c1.8,0,2.8-1,2.7-2.7c-0.1-4.1-0.2-8.1-0.7-12.1c-1.1-8.3-3.6-16-8.1-23.1
		c-4-6.2-9.2-11.2-15.7-14.8c-9.8-5.4-20.4-6.8-31.3-5.3c-8.8,1.2-16.8,4.6-23.7,10.2c-7.4,5.9-12.6,13.4-15.7,22.4
		c-2.9,8.4-3.2,17.1-2.1,25.8c1.4,10.8,6.1,20,13.8,27.7c7.1,7.1,15.6,11.6,25.5,13.4c7.4,1.4,15,1.1,22.4,0
		c9.7-1.4,18.5-5,26.4-10.7c1.6-1.2,1.9-2.5,0.8-4.1c-2.6-3.8-5.2-7.6-7.8-11.4c-1.1-1.7-2.5-1.9-4.1-0.8c-4,2.8-8.4,4.9-13.1,6.1
		c-5.4,1.4-11,2.1-16.6,1.2c-10.4-1.7-18.9-10-20.9-20.2c-0.3-1.5-0.1-1.7,1.4-1.7C187.6,237.1,198.7,237.1,209.8,237.1z"/>
	<path class="st1" d="M297.9,313.8c1.3-0.6,1.7-1.7,1.6-3.1c0-87.3,0-174.7,0-262c0-0.4,0-0.7,0-1.1c0-1.2-0.4-1.9-1.4-2.3
		c-0.9-0.4-1.7-0.1-2.5,0.8c-2.2,2.4-4.3,4.8-6.5,7.2c-9.3,10.4-18.5,20.8-27.8,31.1c-13.8,15.4-27.5,30.9-41.3,46.3
		c-6.9,7.7-13.8,15.5-20.7,23.2c-1.6,1.8-3.3,1.8-5,0.1c-16.2-16.7-32.5-33.4-48.7-50.2c-1.3-1.4-1.4-2.7-0.3-4.3
		c5.2-6.9,10.5-13.7,15.7-20.5c1.4-1.9,3.4-2,5-0.2c5.7,6.4,11.5,12.7,17.2,19.1c3.4,3.8,6.8,7.6,10.2,11.4c1.4,1.6,3.5,1.4,4.8-0.4
		c14.8-20.1,29.6-40.3,44.3-60.4c10.8-14.8,21.7-29.5,32.5-44.3c1.1-1.5,0.9-2.9-0.7-3.6c0.3-0.2,0.7-0.1,1-0.1c8.1,0,16.3,0,24.4,0
		c0,104.4,0,208.8,0,313.1C299.3,313.8,298.6,313.8,297.9,313.8z"/>
	<path class="st1" d="M2,0.8c-1,0.5-1.5,1.3-1.5,2.4c0,0.2,0,0.5,0,0.7c0,102.3,0,204.5,0,306.8c0,1.4,0.4,2.4,1.7,3.1
		c-0.7,0-1.4,0-2.1,0C0,209.4,0,105,0,0.6C0.7,0.7,1.3,0.5,2,0.8z"/>
	<path class="st2" d="M2,0.8C1.3,0.5,0.7,0.7,0,0.6c0.1-0.1-0.2-0.3,0.2-0.3c0.2,0,0.4,0,0.6,0c99.5,0,199,0,298.5,0
		c0.2,0,0.8-0.4,0.7,0.3c-8.1,0-16.3,0-24.4,0c-0.4,0-0.7-0.1-1,0.1c-0.4,0-0.8-0.1-1.1-0.1c-90,0-180.1,0-270.1,0
		C2.8,0.6,2.4,0.7,2,0.8z"/>
	<path class="st1" d="M82,279.4c-2.4,0-4.3,0.1-6,0c-4.4-0.4-8.7-1-12.9-2c-11.9-2.9-22.5-8.4-31.7-16.5c-1.1-1-1.4-2.6-0.5-3.8
		c3.9-5.5,7.8-10.9,11.7-16.4c1.1-1.6,3-1.7,4.4-0.4c3.6,3.2,7.5,6,11.8,8.3c5.1,2.8,10.6,4.6,16.3,5.7c2.9,0.6,5.9,0.8,8.9,0.9
		c4.5,0.2,8.9-0.3,13.2-1.7c3.9-1.3,7.3-3.4,9.4-7.1c0.9-1.5,1.4-3.1,1.4-4.8c0.1-3.3-1.1-5.9-3.7-8.1c-3.2-2.6-7.1-4-11-5.2
		c-2.9-0.9-5.9-1.6-8.9-2.4c-4.7-1.2-9.4-2.2-14-3.4c-5-1.4-9.8-2.9-14.5-5.1c-3.3-1.5-6.4-3.2-9.2-5.3c-3.9-2.9-7-6.4-9.3-10.7
		c-1.7-3.4-2.8-6.9-3.3-10.7c-0.3-1.9-0.4-3.8-0.4-5.7c0.1-5.2,1.1-10.2,3.3-14.9c2.8-6,7-10.9,12.4-14.7c5.3-3.8,11.2-6.3,17.6-7.8
		c3.4-0.8,6.9-1.3,10.4-1.5c3-0.1,6-0.4,9.1-0.3c3.2,0.1,6.4,0.3,9.6,0.8c6.5,1,12.7,2.8,18.7,5.5c5.3,2.4,10.3,5.3,14.9,8.8
		c0.5,0.4,1.1,0.8,1.5,1.3c1,1.2,0.9,2.4-0.2,4c-3.5,4.7-7,9.3-10.6,14c-0.4,0.5-0.7,1-1.1,1.5c-1,1.3-2.9,1.5-4.4,0.3
		c-2.6-2.1-5.5-3.9-8.5-5.5c-4.3-2.4-8.9-3.9-13.7-5.1c-2.9-0.7-5.8-1.1-8.7-1.2c-2.3-0.1-4.6-0.3-6.9-0.1c-3.7,0.3-7.4,1-10.5,3.2
		c-2.7,1.9-4.4,4.4-5,7.6c-0.8,4.2,1,7.2,4.4,9.4c2.8,1.8,5.9,2.9,9,3.8c2.7,0.8,5.5,1.5,8.3,2.2c4.2,1.1,8.5,2,12.7,3.1
		c6.1,1.6,12.1,3.4,17.8,6.1c3.4,1.6,6.7,3.5,9.6,5.9c5.2,4.2,9,9.4,10.8,16c0.8,2.8,1.1,5.6,1.3,8.5c0.1,2,0.1,4-0.1,6
		c-0.4,4.3-1.3,8.5-3,12.5c-1.4,3.2-3.2,6.1-5.4,8.8c-2.7,3.3-5.9,5.9-9.5,8.1c-5.7,3.4-11.8,5.5-18.3,6.7c-2.6,0.5-5.3,0.9-8,1.1
		C87.9,279.4,84.7,279.4,82,279.4z"/>
	<path class="st1" d="M209.8,237.1c-11.1,0-22.2,0-33.3,0c-1.5,0-1.7,0.2-1.4,1.7c2,10.3,10.5,18.6,20.9,20.2
		c5.6,0.9,11.1,0.3,16.6-1.2c4.7-1.3,9.1-3.3,13.1-6.1c1.6-1.1,3-0.9,4.1,0.8c2.6,3.8,5.2,7.6,7.8,11.4c1.1,1.6,0.8,3-0.8,4.1
		c-8,5.7-16.8,9.3-26.4,10.7c-7.4,1.1-14.9,1.3-22.4,0c-9.8-1.8-18.4-6.3-25.5-13.4c-7.7-7.7-12.4-16.9-13.8-27.7
		c-1.1-8.7-0.8-17.4,2.1-25.8c3.1-9,8.3-16.5,15.7-22.4c7-5.6,14.9-9.1,23.7-10.2c11-1.4,21.5-0.1,31.3,5.3
		c6.5,3.6,11.7,8.5,15.7,14.8c4.5,7,7,14.8,8.1,23.1c0.5,4,0.6,8.1,0.7,12.1c0,1.7-1,2.7-2.7,2.7c-2.8,0-5.6,0-8.5,0
		C226.6,237.1,218.2,237.1,209.8,237.1z M198.1,220c7.3,0,14.7,0,22,0c0.2,0,0.4,0,0.7,0c0.8,0,1-0.4,0.9-1.1
		c-0.1-0.5-0.1-1-0.2-1.5c-1.7-8.8-6.7-14.6-15.2-17.6c-3.1-1.1-6.3-1.1-9.6-1c-5.2,0.2-9.8,1.9-13.8,5.1c-4.6,3.7-7.3,8.5-8.2,14.3
		c-0.2,1.5,0,1.7,1.5,1.7C183.5,220,190.8,220,198.1,220z"/>
	<path class="st0" d="M198.1,220c-7.3,0-14.6,0-21.9,0c-1.5,0-1.7-0.2-1.5-1.7c0.9-5.8,3.7-10.6,8.2-14.3c4-3.3,8.6-5,13.8-5.1
		c3.2-0.1,6.5-0.1,9.6,1c8.4,3,13.5,8.8,15.2,17.6c0.1,0.5,0.2,1,0.2,1.5c0.1,0.7-0.2,1.1-0.9,1.1c-0.2,0-0.4,0-0.7,0
		C212.8,220,205.4,220,198.1,220z"/>
</g>
</svg>
