<svg xmlns="http://www.w3.org/2000/svg" xmlns:xlink="http://www.w3.org/1999/xlink" viewBox="0 0 79.206 17.206" fill="#fff" fill-rule="evenodd" stroke="#000" stroke-linecap="round" stroke-linejoin="round">
	<use xlink:href="#a" x=".103" y=".103"/>
	<symbol id="a" overflow="visible">
		<path d="M5.943 16.405c-3.511 0-5.943-2.294-5.943-5.3h2.983c.275 1.996 1.927 2.455 2.937 2.455.78 0 2.34-.275 2.34-1.767 0-1.354-1.308-1.904-2.616-2.409C3.487 8.535.436 7.503.436 4.451.436 1.744 2.799.094 5.667.094c3.327 0 5.186 2.225 5.186 4.268H7.916c-.161-.895-1.147-1.468-2.294-1.468-1.102 0-2.019.55-2.019 1.562 0 .987.895 1.377 2.455 2.088 1.675.757 5.254 1.652 5.254 5.277 0 3.006-2.455 4.589-5.369 4.589m9.701-7.297h5.162c-.344-1.354-1.285-1.905-2.432-1.905-1.262 0-2.272.711-2.73 1.905m8.191 2.317H15.46c.344 1.744 1.766 2.384 3.006 2.384 1.562 0 2.226-.966 2.226-.966h2.891c-.872 2.295-2.96 3.557-5.208 3.557-3.097 0-5.805-2.364-5.805-5.943 0-3.556 2.684-5.759 5.713-5.759 2.937 0 5.919 2.042 5.552 6.723m18.723-1.353v6.219h-3.052v-5.53c0-1.583.161-3.579-1.953-3.396-.551.046-2.065.298-2.065 3.534v5.392H32.46v-5.53c0-1.583.161-3.579-1.95-3.396-.551.046-2.065.298-2.065 3.534v5.392h-3.029V4.818h2.34l.344 1.239h.367c.436-.576 1.354-1.331 2.776-1.354 1.285-.023 2.384.576 3.143 1.583h.344c.576-.711 1.629-1.583 3.488-1.606 2.983-.021 4.336 2.203 4.336 5.392m18.65 0v6.218h-3.052v-5.53c0-1.583.161-3.579-1.95-3.396-.551.046-2.065.298-2.065 3.534v5.392h-3.029v-5.53c0-1.583.161-3.579-1.95-3.396-.551.046-2.065.298-2.065 3.534v5.392h-3.029V4.818h2.34l.344 1.239h.367c.436-.576 1.354-1.331 2.776-1.354 1.285-.023 2.384.576 3.144 1.583h.344c.576-.711 1.629-1.583 3.487-1.606 2.983-.021 4.336 2.203 4.336 5.392m4.337 6.218h-2.981V0h2.983zm4.426-7.182h5.162c-.344-1.354-1.285-1.905-2.432-1.905-1.262 0-2.272.711-2.73 1.905m8.191 2.317h-8.375c.344 1.744 1.767 2.384 3.006 2.384 1.562 0 2.226-.966 2.226-.966h2.891c-.87 2.299-2.96 3.561-5.208 3.561-3.097 0-5.805-2.364-5.805-5.943 0-3.556 2.684-5.759 5.713-5.759 2.939 0 5.919 2.042 5.552 6.723" stroke="none" fill="#150d48" fill-opacity=".965" fill-rule="nonzero"/>
	</symbol>
</svg>
