<svg xmlns="http://www.w3.org/2000/svg" width="200" height="128">
    <path fill="#bc8944" d="M124.87 77.29a3.66 3.66 0 00-1.59.36 7.35 7.35 0 00-1.61 1.22 3.37 3.37 0 00-1.15-1.19 3.57 3.57 0 00-1.75-.39 3.72 3.72 0 00-1.48.33 4.75 4.75 0 00-1.38.95v-1.12h-1.85v9.32h1.85v-6.71a3.82 3.82 0 011-.93 2.67 2.67 0 011.25-.26 1.84 1.84 0 011.49.53 2.48 2.48 0 01.49 1.68v5.7H122v-6.72a3.82 3.82 0 011-.93 2.76 2.76 0 011.29-.26 1.9 1.9 0 011.48.53 2.59 2.59 0 01.46 1.68v5.7h1.88v-6.2a3.23 3.23 0 00-.89-2.4 3.19 3.19 0 00-2.35-.89zM97.79 77.29a3.72 3.72 0 00-1.48.33 4.75 4.75 0 00-1.38.95v-1.12h-1.85v9.32h1.85v-6.71a3.82 3.82 0 011-.93 2.55 2.55 0 011.25-.26 1.8 1.8 0 011.49.53 2.43 2.43 0 01.49 1.68v5.69H101v-6.19a3.33 3.33 0 00-.85-2.4 3.2 3.2 0 00-2.36-.89zM87 77.26a4.35 4.35 0 00-3.3 1.31A4.7 4.7 0 0082.41 82a4.91 4.91 0 001.32 3.63A4.59 4.59 0 0087.25 87a6.85 6.85 0 002-.3 7.37 7.37 0 001.91-.88v-1.91a10.38 10.38 0 01-2 1 5.46 5.46 0 01-1.85.32 2.91 2.91 0 01-2.1-.72 3 3 0 01-.89-2.07h7v-.27a5.2 5.2 0 00-1.19-3.59A4.1 4.1 0 0087 77.26zm-2.6 3.85a2.7 2.7 0 01.85-1.68 2.51 2.51 0 011.75-.56 2.35 2.35 0 011.61.59 2.58 2.58 0 01.73 1.65zM78.79 81.44l-.17-.1c-1.31-.63-1.94-1.19-1.94-1.65a.66.66 0 01.3-.59 1.85 1.85 0 01.92-.2 4.08 4.08 0 011.32.23 6.39 6.39 0 011.58.69V78a6.55 6.55 0 00-1.42-.59 5.83 5.83 0 00-1.51-.17 3.69 3.69 0 00-2.31.66 2.29 2.29 0 00-.82 1.88 2.59 2.59 0 00.46 1.52 6 6 0 001.8 1.29 6.36 6.36 0 00.66.36c1 .5 1.55 1 1.55 1.32a.93.93 0 01-.43.76 2.13 2.13 0 01-1.12.26 4 4 0 01-1.42-.3 8.4 8.4 0 01-1.61-.85v2a5.38 5.38 0 001.55.63 7.28 7.28 0 001.68.2 3.71 3.71 0 002.43-.73 2.36 2.36 0 00.93-2 2.21 2.21 0 00-.47-1.45 5.45 5.45 0 00-1.96-1.35zM137.31 85.46a.25.25 0 01-.26-.2 1.61 1.61 0 01-.1-.69v-4a3.41 3.41 0 00-.82-2.57 3.66 3.66 0 00-2.6-.79 6 6 0 00-1.88.3 5.18 5.18 0 00-1.61.89v1.84a7.48 7.48 0 011.64-1 4.83 4.83 0 011.62-.24 2.16 2.16 0 011.35.36 1.65 1.65 0 01.39 1.22v.39l-2.24.73a6.56 6.56 0 00-2.3 1.3 2.35 2.35 0 00-.76 1.71 2 2 0 00.73 1.65 2.88 2.88 0 001.94.59 4.54 4.54 0 001.35-.19 5.86 5.86 0 001.35-.73 1 1 0 00.29.73 1.29 1.29 0 00.79.2 3.06 3.06 0 001.09-.2 3.33 3.33 0 001-.63v-1.2a4.41 4.41 0 01-.63.43.78.78 0 01-.34.1zm-3.22-.07a3.07 3.07 0 01-1 .16 1.5 1.5 0 01-1-.29 1.14 1.14 0 01-.39-.89 1.44 1.44 0 01.72-1.15 10.22 10.22 0 012.6-1.09v2.73a4.2 4.2 0 01-.93.53zM109.81 78a3.32 3.32 0 00-1.11-.56 4.35 4.35 0 00-1.32-.16 4.24 4.24 0 00-3.3 1.35 4.79 4.79 0 00-1.25 3.49 4.87 4.87 0 001.25 3.49 4.39 4.39 0 003.3 1.35 5.43 5.43 0 001.32-.17 5.1 5.1 0 001.11-.52v.52h1.85V72.64h-1.85zm0 6.72a4.07 4.07 0 01-1 .49 3.12 3.12 0 01-1 .13 2.85 2.85 0 01-2.24-.85 3.36 3.36 0 01-.82-2.41 3.2 3.2 0 01.82-2.37 2.88 2.88 0 012.24-.89 3 3 0 011 .17 3.19 3.19 0 011 .49z"/>
    <path fill="#bc8944" d="M139.46 77.45h1.84v9.32h-1.84z"/>
    <path fill="#bc8944" d="M179.31 86.84a4.27 4.27 0 00-2-1l-.83-.17c-1.45-.26-2.17-.59-2.17-1s.53-.59 1.51-.75c.3 0 .53-.1.73-.13a3 3 0 001.88-1 2.88 2.88 0 00.72-2 3.52 3.52 0 00-.16-1 2.85 2.85 0 00-.6-.86h1.58v-1.48h-3.69a5.8 5.8 0 00-3.45.86 3 3 0 00-1.19 2.57 3.07 3.07 0 00.56 1.84 2.86 2.86 0 001.58 1.06 3.07 3.07 0 00-1 .56.93.93 0 00-.3.66.9.9 0 00.26.62 1.83 1.83 0 00.76.53 4 4 0 00-2 .89 2.11 2.11 0 00-.66 1.61 2.37 2.37 0 001.16 2.08 6.45 6.45 0 003.39.72 6.55 6.55 0 003.42-.75 2.42 2.42 0 001.19-2.18 2.24 2.24 0 00-.69-1.68zm-5.86-6.06a1.61 1.61 0 01.52-1.25 2 2 0 011.42-.5 2 2 0 011.41.5 1.61 1.61 0 01.56 1.25 1.63 1.63 0 01-.52 1.28 2.25 2.25 0 01-1.45.46 2.15 2.15 0 01-1.45-.46 1.62 1.62 0 01-.49-1.28zm4 8.76a5 5 0 01-2 .33 4.63 4.63 0 01-2-.33 1.13 1.13 0 01-.69-1.06 1 1 0 01.59-.85 3.06 3.06 0 011.55-.36 6.92 6.92 0 012.5.33c.56.23.82.56.82 1a1.06 1.06 0 01-.82.94zM170 77.52a2.26 2.26 0 00-1-.23 2.18 2.18 0 00-1.35.49 7.32 7.32 0 00-1.39 1.68v-2h-1.84v9.32h1.84V81.5a4.09 4.09 0 01.79-1.77 1.76 1.76 0 011.35-.63 2.27 2.27 0 01.86.17 3.56 3.56 0 01.86.59l1-1.68a4.47 4.47 0 00-1.12-.66zM161.13 78.67a4.51 4.51 0 00-1.58-1 4.57 4.57 0 00-1.88-.37 4.9 4.9 0 00-3.52 1.39 4.71 4.71 0 00-1.45 3.46 4.57 4.57 0 001.45 3.42 4.8 4.8 0 003.52 1.42 4.48 4.48 0 001.88-.37 4.43 4.43 0 001.58-1 5 5 0 001.08-1.62 4.63 4.63 0 00.37-1.88 4.3 4.3 0 00-.37-1.84 4.41 4.41 0 00-1.08-1.61zm-1.39 5.63a2.85 2.85 0 01-4.21 0 3 3 0 01-.89-2.2 3.11 3.11 0 01.89-2.21 2.89 2.89 0 012.11-.92 2.84 2.84 0 012.1.92 3.18 3.18 0 010 4.41zM140.38 73.66a1 1 0 00-1.06 1.06 1 1 0 00.3.72 1 1 0 00.76.3 1 1 0 00.75-.3 1 1 0 00.3-.72 1 1 0 00-.3-.76 1 1 0 00-.75-.3zM149.53 84.5a1.17 1.17 0 00-.89.36 1.13 1.13 0 00-.33.86 1.19 1.19 0 00.33.85 1.22 1.22 0 00.89.33 1.14 1.14 0 00.86-.33 1.18 1.18 0 00.36-.85 1.15 1.15 0 00-.36-.86 1.09 1.09 0 00-.86-.36z"/>
    <path fill="#bc8944" d="M143.8 72.64h1.84v14.13h-1.84z"/>
    <path fill="#bc8944" d="M165.94 56.54s3.9.24 5.6-2l4.09-5.5 1-1.4-1.59.71a9.37 9.37 0 01-3.21.75c-1 0-2.4.06-3.4.06h-7s-4.45-2-6.46-2.73c-1.28-.46-5.89-1.61-6.62-1.91a19.92 19.92 0 01-2.7-1.45 17.55 17.55 0 003.07 4.08l-21.38.2 12.29-4.78-58.79-6a10.37 10.37 0 014.58 2.37 6.77 6.77 0 012.24 5.7c-.17 2-2.44 3.45-4.81 4.38A52.75 52.75 0 0174 51a4.81 4.81 0 011.39 5.17c-.83 2-2.71 3.62-5.84 4.71a45.52 45.52 0 01-12.08 2 18.58 18.58 0 01-5.24-.63c2.21 5-2.9 6.39-7.38 8C38.61 72.41 20 76.43 20 76.43c18.08-2.4 46.5-6.55 63.83-9.75s30.3-8.17 34.42-9.09a128.26 128.26 0 0115.94-2.37c3.82-.2 19.1-1.35 19.1-1.35l-2.84 3.23-1 1.11 1.44-.37a51.94 51.94 0 016.64-1.27c2.47-.19 8.11-.04 8.41-.03zM153 48a21.55 21.55 0 002.63 1.35c.79.23 2.44.89 2.44.89s-2.54-.16-3.69-.39S153 48 153 48zm-.94 8.57l2.94-3.2.33-.1 3.25-.86 10.42-.32s1.44-.16 1.28-1.25a2.09 2.09 0 00-.31-.78h1.95a9.13 9.13 0 002.13-.34L170.81 54c-1.4 1.85-4.8 1.63-4.81 1.63s-6-.16-8.51 0a41 41 0 00-5.4.98z"/>
</svg>
