<svg xmlns="http://www.w3.org/2000/svg" width="200" height="128">
	<path d="M119.2 69.044 107.332 53.73h-2.952v20.533h2.992V58.53l12.2 15.733h2.619V53.73H119.2zm-29.867-3.8h10.621v-2.672H89.319v-6.181h12v-2.667H86.265v20.534h15.2v-2.667H89.319zm-12.49-2.608c-4.153-.992-5.289-1.784-5.289-3.691 0-1.722 1.523-2.882 3.793-2.882a9.683 9.683 0 0 1 5.68 2.045l1.616-2.277a11.334 11.334 0 0 0-7.235-2.4c-4.067 0-6.9 2.4-6.9 5.845 0 3.691 2.4 4.968 6.8 6.035 3.869.893 5.048 1.733 5.048 3.6s-1.6 3.034-4.093 3.034a9.931 9.931 0 0 1-6.667-2.618l-1.811 2.154a12.753 12.753 0 0 0 8.376 3.094c4.4 0 7.238-2.366 7.238-6.027-.006-3.107-1.843-4.768-6.563-5.912zm99.708-8.9-6.184 9.683-6.134-9.683h-3.581l8.136 12.411v8.125h3.083V66.05L180 53.732zm-51.934 2.779h6.728v17.751h3.085V56.511h6.728V53.73h-16.537zm30.808 9.739a6 6 0 0 0 4.8-6.134c0-3.941-2.891-6.4-7.541-6.4h-9.1v20.53h3.053v-7.376h5.179l5.211 7.392h3.565l-5.627-7.888zm-8.8-2.006V56.45h5.76c3 0 4.731 1.416 4.731 3.882 0 2.376-1.846 3.912-4.7 3.912zM43.019 48.156a3.666 3.666 0 0 0-6.349 0l-5.227 9.054 1.334.765a25.634 25.634 0 0 1 12.754 20.64h-3.669a21.974 21.974 0 0 0-10.933-17.477l-1.329-.763-4.869 8.467 1.333.765a12.362 12.362 0 0 1 5.99 9.008h-8.387a.6.6 0 0 1-.615-.595.6.6 0 0 1 .082-.314l2.336-4.046a8.494 8.494 0 0 0-2.67-1.522l-2.312 4.037a3.667 3.667 0 0 0 3.176 5.5H35.2v-1.529a15.246 15.246 0 0 0-6.33-12.371l1.835-3.175a18.915 18.915 0 0 1 8.149 15.537v1.53h9.773v-1.532A28.7 28.7 0 0 0 35.6 56.122l3.71-6.435a.605.605 0 0 1 1.048 0l16.179 28.019a.605.605 0 0 1-.533.909H52.22a30.962 30.962 0 0 1 0 3.062h3.8a3.668 3.668 0 0 0 3.176-5.5z" fill="#221f20"/>
</svg>
