<?xml version="1.0" encoding="UTF-8" standalone="no"?>
<!-- Generator: Adobe Illustrator 24.3.0, SVG Export Plug-In . SVG Version: 6.00 Build 0)  -->

<svg
   version="1.1"
   id="katman_1"
   x="0px"
   y="0px"
   viewBox="0 0 3022.7 1548.3"
   style="enable-background:new 0 0 3022.7 1548.3;"
   xml:space="preserve"
   sodipodi:docname="servicenow.svg"
   inkscape:version="1.1 (c4e8f9ed74, 2021-05-24)"
   xmlns:inkscape="http://www.inkscape.org/namespaces/inkscape"
   xmlns:sodipodi="http://sodipodi.sourceforge.net/DTD/sodipodi-0.dtd"
   xmlns="http://www.w3.org/2000/svg"
   xmlns:svg="http://www.w3.org/2000/svg"><defs
   id="defs17" /><sodipodi:namedview
   id="namedview15"
   pagecolor="#ffffff"
   bordercolor="#666666"
   borderopacity="1.0"
   inkscape:pageshadow="2"
   inkscape:pageopacity="0.0"
   inkscape:pagecheckerboard="0"
   showgrid="false"
   inkscape:zoom="0.2819221"
   inkscape:cx="853.07254"
   inkscape:cy="1645.8447"
   inkscape:window-width="2558"
   inkscape:window-height="1438"
   inkscape:window-x="2422"
   inkscape:window-y="2160"
   inkscape:window-maximized="1"
   inkscape:current-layer="katman_1" />
<style
   type="text/css"
   id="style2">
	.st0{fill-rule:evenodd;clip-rule:evenodd;fill:#293F41;}
	.st1{fill-rule:evenodd;clip-rule:evenodd;fill:#82B6A1;}
	.st2{fill:#293F41;}
</style>
<g
   id="g10"
   transform="matrix(1.2210453,0,0,1.2210453,-332.54705,-170.63955)">
	<path
   class="st0"
   d="m 877.7,703.3 c -27.2,0 -50.1,10 -68.7,24.3 v -22.9 h -63 v 244.9 h 65.9 V 793.5 c 8.6,-12.9 31.5,-30.1 58.7,-30.1 10,0 18.6,1.4 25.8,4.3 v -63 c -5.8,-1.4 -11.5,-1.4 -18.7,-1.4 M 307.8,875.1 c 17.2,15.8 41.5,24.3 67.3,24.3 17.2,0 31.5,-8.6 31.5,-20 0,-37.2 -117.4,-24.3 -117.4,-103.1 0,-47.3 45.8,-75.9 93.1,-75.9 31.5,0 65.9,11.5 83.1,24.3 L 435.3,772 c -12.9,-8.6 -28.6,-17.2 -47.3,-17.2 -18.6,0 -32.9,7.2 -32.9,20 0,31.5 117.4,18.6 117.4,104.5 0,47.3 -45.8,75.9 -97.4,75.9 -34.4,0 -68.7,-11.5 -97.4,-32.9 z m 411,-50.1 c 0,-68.7 -47.3,-124.6 -114.6,-124.6 -73,0 -118.8,60.1 -118.8,127.4 0,77.3 54.4,127.4 127.4,127.4 37.2,0 75.9,-15.8 100.2,-44.4 l -37.2,-37.2 c -11.5,12.9 -34.4,28.6 -61.6,28.6 -34.4,0 -63,-24.3 -65.9,-58.7 h 169 c 0,-5.6 1.5,-11.4 1.5,-18.5 M 551.2,796.3 c 2.9,-22.9 25.8,-43 51.5,-43 27.2,0 45.8,21.5 48.7,43 z m 501.2,58.7 67.3,-150.4 h 67.3 l -111.7,244.9 h -45.8 L 917.8,704.7 h 68.7 z m 190.5,-264.9 c 22.9,0 43,18.6 43,41.5 0,22.9 -18.6,41.5 -43,41.5 -24.4,0 -43,-18.6 -43,-41.5 0,-22.8 18.6,-41.5 43,-41.5 m -33,114.6 h 65.9 v 244.9 h -65.9 z M 1545,899.4 c -28.6,38.7 -64.4,54.4 -110.3,54.4 -75.9,0 -130.3,-57.3 -130.3,-127.4 0,-71.6 57.3,-127.4 131.7,-127.4 41.5,0 80.2,20 103.1,48.7 l -45.8,41.5 c -12.9,-17.2 -32.9,-28.6 -55.8,-28.6 -37.2,0 -65.9,30.1 -65.9,67.3 0,38.7 27.2,67.3 67.3,67.3 27.2,0 47.3,-15.8 58.7,-32.9 z m 237.7,11.5 c -22.9,28.6 -63,44.4 -100.2,44.4 -73,0 -127.4,-50.1 -127.4,-127.4 0,-68.7 45.8,-127.4 118.8,-127.4 67.3,0 114.6,57.3 114.6,124.6 0,7.2 0,12.9 -1.4,18.6 h -169 c 2.9,34.4 31.5,58.7 65.9,58.7 27.2,0 50.1,-15.8 61.6,-28.6 z m -61.6,-114.6 c -1.4,-21.5 -21.5,-43 -48.7,-43 -27.2,0 -48.7,20 -51.5,43 z m 93.1,153.2 V 704.7 h 63 v 20 c 18.6,-15.8 41.5,-24.3 68.7,-24.3 34.4,0 64.4,15.8 84.5,40.1 15.8,18.6 25.8,44.4 25.8,85.9 V 951 h -65.9 V 820.7 c 0,-24.3 -5.7,-37.2 -14.3,-45.8 -8.6,-8.6 -21.5,-14.3 -37.2,-14.3 -27.2,0 -50.1,17.2 -58.7,30.1 v 158.9 h -65.9 z"
   id="path4" />
	<path
   class="st1"
   d="m 2223.7,700.4 c -77.3,0 -143.2,63 -143.2,141.8 0,41.5 17.2,78.8 44.4,106 10,10 25.8,10 37.2,1.4 15.8,-12.9 37.2,-20 61.6,-20 24.3,0 44.4,7.2 61.6,20 11.5,8.6 27.2,7.2 37.2,-2.9 27.2,-25.8 44.4,-63 44.4,-104.5 -1.4,-77.4 -64.4,-141.8 -143.2,-141.8 m -1.4,214.8 c -41.5,0 -71.6,-31.5 -71.6,-71.6 0,-40.1 28.6,-71.6 71.6,-71.6 43,0 71.6,32.9 71.6,71.6 0,38.7 -28.7,71.6 -71.6,71.6"
   id="path6" />
	<path
   class="st0"
   d="m 2494.3,949.6 h -48.7 l -97.4,-244.9 h 65.9 l 53,140.3 53,-140.3 h 54.4 L 2626,845 2679,704.7 h 65.9 l -97.4,244.9 h -48.7 l -51.5,-138.9 z"
   id="path8" />
</g>
<path
   class="st2"
   d="m 2975.3868,952.1116 v 5.2505 h -10.5011 v 31.50296 h -6.9599 V 957.3621 h -10.501 v -5.2505 z m 24.5429,22.71144 14.0421,-22.71144 h 5.2505 v 36.75346 h -6.9599 v -21.00197 l -10.501,15.75148 h -5.2506 l -8.7915,-15.75148 v 21.00197 h -6.9599 V 952.1116 h 5.2504 z"
   id="path12"
   style="stroke-width:1.22104" />
</svg>
