<svg xmlns="http://www.w3.org/2000/svg" xmlns:xlink="http://www.w3.org/1999/xlink" viewBox="-5.42 -4.92 282.1 159.6">
	<defs>
		<linearGradient id="a" x1="41.418%" x2="69.922%" y1="13.451%" y2="92.195%">
			<stop offset="0%" stop-color="#262CF4"/>
			<stop offset="100%" stop-color="#7140FF"/>
		</linearGradient>
		<linearGradient id="c" x1="10.143%" x2="88.081%" y1="51.809%" y2="48.303%">
			<stop offset="0%" stop-color="#262CF4"/>
			<stop offset="100%" stop-color="#7140FF"/>
		</linearGradient>
		<path id="b" d="M.05.048h270.027v58.187H.05z"/>
	</defs>
	<g fill="none" fill-rule="evenodd">
		<path fill="#000" d="M12.36 104.458c-3.746 0-6.721-.849-8.93-2.545C1.22 100.221.078 97.784 0 94.61h6.898c.282 2.769 2.093 4.152 5.424 4.152 1.24 0 2.293-.25 3.159-.755.865-.5 1.297-1.265 1.297-2.296 0-.708-.271-1.297-.814-1.772-.54-.472-1.092-.804-1.645-.996-.556-.188-1.61-.49-3.16-.896a1.244 1.244 0 0 1-.155-.061c-.025-.013-.065-.024-.115-.038a.585.585 0 0 0-.156-.021 67.656 67.656 0 0 1-2.926-.793c-.761-.231-1.627-.584-2.596-1.06-.968-.473-1.736-.998-2.304-1.566-.57-.568-1.054-1.324-1.455-2.258-.399-.935-.6-1.986-.6-3.152 0-2.985 1.014-5.224 3.041-6.715 2.03-1.492 4.683-2.237 7.963-2.237 3.153 0 5.73.76 7.732 2.277 2.002 1.52 3.068 3.744 3.198 6.675h-6.705c-.131-1.112-.582-1.972-1.356-2.583-.776-.611-1.81-.918-3.1-.918-1.19 0-2.15.25-2.888.752-.735.504-1.104 1.161-1.104 1.975 0 .922.439 1.594 1.316 2.013.88.42 2.534.918 4.964 1.484 1.522.382 2.776.753 3.757 1.122.981.365 1.981.89 3.004 1.565a6.349 6.349 0 0 1 2.285 2.626c.502 1.069.756 2.352.756 3.843 0 2.96-1.066 5.277-3.197 6.958-2.132 1.683-4.852 2.524-8.158 2.524m15.939-.692V74.671h21.002v5.942H35.158v5.207h12.128v5.616H35.158v6.226h14.376l-1.321 6.104zm60.425 0L79.579 74.67h7.13l4.34 15.26 1.279 5.128h.076c.466-1.981.892-3.69 1.28-5.127l4.301-15.26h6.936l-9.107 29.094h-7.09zm52.718-16.235h5.153c1.344 0 2.365-.311 3.06-.937.7-.622 1.05-1.491 1.05-2.603 0-1.084-.338-1.958-1.008-2.626-.673-.663-1.654-.996-2.947-.996h-5.308v7.162zm-6.859 16.235V74.672h13.254c2.841 0 5.166.743 6.973 2.219 1.811 1.48 2.713 3.532 2.713 6.163 0 3.53-1.6 5.874-4.804 7.038v.124c2.326.814 3.666 2.593 4.028 5.33.157.951.27 2.124.332 3.52a19.71 19.71 0 0 0 .831 4.698l-6.897.002c-.33-1.16-.464-2.754-.542-3.947-.078-1.192-.168-2.13-.27-2.806-.364-2.767-1.898-4.153-4.612-4.153h-4.147v10.906h-6.859zm98.48.692c-3.748 0-6.723-.849-8.931-2.545-2.208-1.692-3.352-4.129-3.43-7.304h6.896c.284 2.769 2.094 4.152 5.427 4.152 1.24 0 2.29-.25 3.157-.755.865-.5 1.299-1.265 1.299-2.296 0-.708-.272-1.297-.814-1.772-.543-.472-1.093-.804-1.645-.996-.557-.188-1.61-.49-3.162-.896a1.098 1.098 0 0 1-.153-.061c-.026-.013-.067-.024-.117-.038a.569.569 0 0 0-.156-.021 66.869 66.869 0 0 1-2.925-.793c-.76-.231-1.627-.584-2.595-1.06-.969-.473-1.738-.998-2.306-1.566-.57-.568-1.054-1.324-1.455-2.258-.399-.935-.6-1.986-.6-3.152 0-2.985 1.015-5.224 3.041-6.715 2.031-1.492 4.684-2.237 7.965-2.237 3.152 0 5.727.76 7.731 2.277 2 1.52 3.068 3.744 3.197 6.675h-6.705c-.13-1.112-.581-1.972-1.355-2.583-.775-.611-1.809-.918-3.101-.918-1.189 0-2.15.25-2.886.752-.736.504-1.106 1.161-1.106 1.975 0 .922.44 1.594 1.318 2.013.879.42 2.532.918 4.962 1.484 1.523.382 2.777.753 3.758 1.122.982.365 1.982.89 3.003 1.565a6.342 6.342 0 0 1 2.286 2.626c.503 1.069.757 2.352.757 3.843 0 2.96-1.068 5.277-3.2 6.958-2.13 1.683-4.85 2.524-8.155 2.524m26.93 0c-3.746 0-6.721-.849-8.93-2.545-2.209-1.692-3.351-4.129-3.43-7.304h6.898c.284 2.769 2.093 4.152 5.426 4.152 1.24 0 2.29-.25 3.157-.755.865-.5 1.299-1.265 1.299-2.296 0-.708-.273-1.297-.814-1.772-.542-.472-1.093-.804-1.646-.996-.555-.188-1.608-.49-3.16-.896a1.098 1.098 0 0 1-.154-.061c-.025-.013-.067-.024-.116-.038a.577.577 0 0 0-.157-.021 67.657 67.657 0 0 1-2.926-.793c-.76-.231-1.626-.584-2.596-1.06-.966-.473-1.735-.998-2.303-1.566-.57-.568-1.055-1.324-1.455-2.258-.4-.935-.6-1.986-.6-3.152 0-2.985 1.014-5.224 3.04-6.715 2.03-1.492 4.685-2.237 7.965-2.237 3.153 0 5.728.76 7.73 2.277 2.002 1.52 3.068 3.744 3.199 6.675h-6.706c-.13-1.112-.58-1.972-1.356-2.583-.775-.611-1.808-.918-3.1-.918-1.189 0-2.15.25-2.888.752-.734.504-1.104 1.161-1.104 1.975 0 .922.439 1.594 1.317 2.013.88.42 2.533.918 4.963 1.484 1.524.382 2.776.753 3.757 1.122.981.365 1.982.89 3.004 1.565a6.353 6.353 0 0 1 2.287 2.626c.502 1.069.754 2.352.754 3.843 0 2.96-1.066 5.277-3.197 6.958-2.132 1.683-4.85 2.524-8.157 2.524M63.776 148.825l-9.146-29.093h7.131l4.34 15.259 1.28 5.128h.076c.466-1.982.89-3.69 1.278-5.128l4.303-15.259h6.935l-9.107 29.093h-7.09zm29.945.693c-3.746 0-6.721-.849-8.931-2.545-2.208-1.694-3.35-4.13-3.429-7.303h6.897c.283 2.768 2.094 4.15 5.426 4.15 1.238 0 2.291-.251 3.158-.754.865-.5 1.298-1.265 1.298-2.297 0-.707-.272-1.296-.815-1.771-.54-.474-1.091-.804-1.645-.996-.557-.19-1.608-.49-3.16-.896a1.355 1.355 0 0 1-.153-.06c-.028-.014-.067-.025-.117-.04a.585.585 0 0 0-.156-.02 67.656 67.656 0 0 1-2.926-.793c-.761-.233-1.628-.584-2.596-1.06-.968-.473-1.736-.998-2.304-1.566-.571-.57-1.054-1.324-1.455-2.26-.399-.932-.6-1.985-.6-3.152 0-2.983 1.013-5.222 3.041-6.713 2.03-1.494 4.683-2.237 7.965-2.237 3.152 0 5.727.758 7.73 2.277 2.002 1.52 3.067 3.743 3.198 6.673h-6.705c-.131-1.11-.583-1.972-1.356-2.581-.776-.611-1.808-.917-3.1-.917-1.19 0-2.151.25-2.888.751-.736.504-1.104 1.161-1.104 1.974 0 .923.439 1.595 1.316 2.013.88.421 2.534.917 4.963 1.485 1.523.382 2.777.753 3.758 1.122.98.364 1.981.889 3.004 1.565a6.34 6.34 0 0 1 2.285 2.626c.502 1.07.756 2.35.756 3.844 0 2.957-1.066 5.276-3.197 6.957-2.132 1.682-4.85 2.524-8.158 2.524m-85.545-6.755h4.03c2.221 0 3.914-.714 5.077-2.138 1.163-1.423 1.742-3.478 1.742-6.164 0-2.684-.593-4.806-1.78-6.366-1.19-1.562-2.844-2.339-4.962-2.339H8.176v17.007zm-6.859 6.061v-29.092h11.82c3.847 0 6.947 1.343 9.3 4.03 2.35 2.683 3.525 6.252 3.525 10.699 0 5.237-1.6 9.145-4.805 11.72-2.247 1.763-5.064 2.643-8.447 2.643H1.317z"/>
		<path fill="url(#a)" d="m171.336 65.193-6.949 2.952 14.77 36.313 6.995-2.846z"/>
		<g transform="translate(1.267 .547)">
			<mask id="d" fill="#fff">
				<use xlink:href="#b"/>
			</mask>
			<path fill="url(#c)" d="M.05.048v58.187h147.296v-39.49l37.818 39.49h84.913V.048z" mask="url(#d)"/>
		</g>
		<path fill="#000" d="M61.432 87.53h5.154c1.343 0 2.362-.31 3.06-.936.698-.622 1.048-1.491 1.048-2.603 0-1.084-.338-1.958-1.007-2.626-.675-.663-1.656-.996-2.947-.996h-5.308v7.162zm-6.858 16.236V74.672h13.251c2.843 0 5.168.743 6.975 2.219 1.81 1.48 2.713 3.532 2.713 6.163 0 3.53-1.6 5.874-4.804 7.038v.124c2.324.814 3.666 2.593 4.028 5.33.157.951.268 2.124.33 3.52.115 2.517.833 4.698.833 4.698l-6.897.002c-.33-1.16-.464-2.754-.542-3.947-.08-1.192-.17-2.13-.27-2.806-.365-2.767-1.9-4.153-4.612-4.153h-4.147v10.906h-6.858zm-24.085 45.04v-29.094h21.002v5.941H37.348v5.208h12.128v5.616H37.348v6.225h14.376l-1.321 6.104zm77.924-45.04V74.671h21.003v5.942h-14.144v5.207h12.129v5.616h-12.129v6.226h14.375l-1.319 6.104zm87.706 0V74.671h21.002v5.942h-14.144v5.207h12.129v5.616h-12.129v6.226h14.377l-1.321 6.104z"/>
	</g>
</svg>
