<svg xmlns="http://www.w3.org/2000/svg" width="468.5" height="231.4">
	<style>
		.st0{display:none}.st1{display:inline}.st2{display:none;fill:none;stroke:#000;stroke-width:7;stroke-linecap:round;stroke-linejoin:round;stroke-miterlimit:10}.st3{fill:#647881}.st4{fill:#00b39f}.st5{fill:#00d3a9}.st6{fill:#3c494e}.st8{fill:#477e96}.st9{fill:#3c494f}.st10{fill:none}.st10,.st11,.st12{display:inline}.st11{fill:#3c494e}.st12{fill:#647881}.st13,.st14{fill:#b32700;display:inline}.st14{fill:#d32a00}
	</style>
	<path id="canvas_background" fill="none" d="M-1-1h802v602H-1z"/>
	<g id="svg_30">
		<g id="svg_31">
			<path id="svg_32" d="M96.8 73.7c10.3-5.4 20.9-10.3 31.8-14.4L125.9 46c-11.6 5.7-22.7 12-33.5 19l4.4 8.7z" class="st3"/>
		</g>
		<g id="svg_33">
			<path id="svg_34" d="M301.5 52 329 21c-17.3-3.8-35.3-6.1-53.7-6.9l-16 29.2c14.5 1.9 28.5 4.8 42.2 8.7z" class="st4"/>
		</g>
		<g id="svg_35">
			<path id="svg_36" d="m90.6 77-4-8.1c-8.3 5.7-16.4 11.8-24.1 18.2l4.2 5c7.7-5.4 15.7-10.4 23.9-15.1z" class="st3"/>
		</g>
		<g id="svg_37">
			<path id="svg_38" d="M354.8 73.5 396 44.4c-18.6-9.2-38.4-16.4-59.1-21.6L309 54.2c15.8 5.1 31.1 11.6 45.8 19.3z" class="st5"/>
		</g>
		<g id="svg_39">
			<path id="svg_40" d="m60.9 96.2-3.8-4.6c-7.2 6.2-14.1 12.7-20.6 19.6l3 2.4c6.9-6.1 14-11.9 21.4-17.4z" class="st6"/>
		</g>
		<g id="svg_41">
			<path id="svg_42" d="m403 48-41.4 29.2c17.8 10.1 34.6 22.1 50.1 35.7L465.4 92c-18.7-17.1-39.6-32-62.4-44z" class="st5"/>
		</g>
		<g id="svg_43">
			<path id="svg_44" d="M31.6 116.3c-10.5 11.5-20.2 23.7-29 36.5 9.7-12.3 20.3-23.9 31.7-34.4l-2.7-2.1z" class="st6"/>
		</g>
		<g id="svg_47">
			<path id="svg_48" d="M176.9 26.2 175.8 46c10.4-1.9 21-3.3 31.8-4l6.9-24.2c-12.8 2.1-25.4 4.9-37.6 8.4z" class="st8"/>
		</g>
		<g id="svg_49">
			<path id="svg_50" d="M215 41.6c3.6-.1 7.3-.2 11-.2 8.7 0 17.4.4 25.9 1.2L267.5 14c-15.4-.2-30.6.7-45.5 2.7l-7 24.9z" class="st4"/>
		</g>
		<g id="svg_51">
			<path id="svg_52" d="M135.2 56.8c10.9-3.8 22.1-7 33.5-9.4l1.1-19c-12.8 4-25.3 8.9-37.3 14.5l2.7 13.9z" class="st8"/>
		</g>
	</g>
	<g id="svg_53">
		<g id="svg_56">
			<path id="svg_57" d="M326.6 194.7h-5.9v-20.4c0-.2 0-.4-.1-.6-.1-.2-.2-.4-.4-.5-.1-.1-.3-.3-.5-.4-.2-.1-.4-.1-.6-.1h-27.3v-5.9H319c1 0 2 .2 2.9.6.9.4 1.7.9 2.4 1.6.7.7 1.2 1.5 1.6 2.4.4.9.6 1.9.6 2.9v20.4h.1zm-29 0h-5.9v-22l5.9-1.6v23.6zm14.4 0h-5.9v-18.9h5.9v18.9z" class="st9"/>
		</g>
		<g id="svg_58">
			<path id="svg_59" d="M286.9 187.4c0 1-.2 1.9-.6 2.8-.4.9-.9 1.7-1.6 2.3-.7.7-1.4 1.2-2.3 1.6-.9.4-1.8.6-2.8.6h-26.1v-5.9h26.1c.4 0 .7-.1 1-.4.3-.3.4-.6.4-1v-2.3c0-.4-.1-.7-.4-1-.3-.3-.6-.4-1-.4h-18.8c-1 0-1.9-.2-2.8-.6-.9-.4-1.7-.9-2.3-1.6-.7-.7-1.2-1.5-1.6-2.3-.4-.9-.6-1.8-.6-2.8v-2.3c0-1 .2-2 .6-2.8.4-.9.9-1.7 1.6-2.3.7-.7 1.5-1.2 2.3-1.6.9-.4 1.8-.6 2.8-.6h26.1v5.9h-26.1c-.4 0-.7.1-1 .4-.3.3-.4.6-.4 1v2.3c0 .4.1.7.4 1 .3.3.6.4 1 .4h18.8c1 0 2 .2 2.8.6.9.4 1.7.9 2.3 1.6.7.7 1.2 1.4 1.6 2.3.4.9.6 1.8.6 2.8v2.3z" class="st9"/>
		</g>
		<path id="svg_60" d="M343.5 183.2h10.9c2.4 0 4.3-1.9 4.3-4.3V171.1c0-2.4-1.9-4.3-4.3-4.3h-21.8v27.9h5.6l-.1-22.6h14.3V177.8h-11.5v5.3h2.6" class="st9"/>
	</g>
	<g id="svg_61">
		<path id="svg_62" d="M170 170.6c-11.7-.9-21.9 7.8-22.8 19.4-.9 11.7 7.8 21.9 19.4 22.8 11.7.9 21.9-7.8 22.8-19.4 1-11.7-7.7-21.9-19.4-22.8zm-2.4 29.8c-4.8-.4-8.3-4.6-8-9.4.4-4.8 4.6-8.3 9.4-8 4.8.4 8.3 4.6 8 9.4-.4 4.8-4.6 8.3-9.4 8z" class="st6"/>
		<path id="svg_63" d="M235.1 79c-2.6 1.8-5 3.7-7.5 5.6l-9.3 14.8-18.7 29.5-18.7 29.5-4.7 7.4-2.3 3.7c-.4.6-.7 1.3-1.2 1.8-.5.6-1 1.1-1.2 1.8-.7 3-1.3 6-1.9 9.1-.1.3-.1.6-.1.9 2.6.4 4.8 1.8 6.1 3.9.2-.2.5-.3.8-.5 2.6-1.8 5-3.7 7.5-5.6.6-.5.8-1.2 1.1-1.9.3-.7.7-1.2 1.1-1.9l2.3-3.7 4.7-7.4 18.7-29.5 18.7-29.5 9.3-14.8c.7-3 1.3-6.1 1.9-9.2.6-3.1 1-6.2 1.4-9.4-2.8 1.8-5.4 3.5-8 5.4z" class="st6"/>
	</g>
</svg>
