<svg width="400" height="96" fill="none" xmlns="http://www.w3.org/2000/svg">
	<path fill-rule="evenodd" clip-rule="evenodd" d="M278.133 11.378c1.588-2.863 3.542-6.347 4.745-8.36.502-.84.89-1.441 1.084-1.685a1.65 1.65 0 0 1 .468-.416c.84-.478 2.485-.917 5.573-.917 2.064 0 3.283.197 4.01.44 1.153.386 1.701.986 2.042 1.548.355.59.487 1.235.49 1.946v.008l.006 17.652c1.833-2.981 4.183-6.827 4.659-7.585.746-1.185 3.076-2.211 5.92-2.211h18.021c2.5 0 4.43.806 5.769 2.148.765.767 1.357 1.726 1.727 2.88a223.077 223.077 0 0 1 1.941-3.274c.854-1.321 3.126-2.05 5.09-2.05 9.23 0 15.75.066 18.796.066 3.167 0 5.013 1.042 6.149 2.25.849.901 1.311 1.965 1.561 2.963.989-1.686 1.768-2.998 1.929-3.229.911-1.302 3.125-2.05 5.089-2.05 9.231 0 15.75.066 18.797.066 3.167 0 5.012 1.042 6.149 2.25 1.716 1.823 1.852 4.309 1.852 5.565 0 1.213-.104 2.477-.787 3.475a4.126 4.126 0 0 1-.648.743c.885.956 1.435 2.262 1.435 3.972 0 1.713-.113 8.525-.169 11.795-.019 1.158-.447 2.242-1.037 3.24a2528.44 2528.44 0 0 1-5.076 8.499s-.679 1.29-4.371 1.29h-24.936c-1.296 0-2.332-.45-3.057-1.186a3.855 3.855 0 0 1-.857-1.35l-.804 1.246s-.679 1.29-4.371 1.29h-24.436c-1.296 0-2.332-.45-3.057-1.186-.606-.616-1.008-1.451-1.116-2.462l-1.57 2.214s-.681 1.322-4.373 1.322c-3.914 0-18.992.089-23.08.089-1.296 0-2.332-.46-3.057-1.214-.674-.702-1.095-1.68-1.141-2.874-1.184 1.52-2.102 2.676-2.135 2.704 0 0-1.622 1.368-3.672 1.368h-7.788c-1.121 0-2.498-.366-3.433-1.402-.622-.69-1.081-1.68-1.081-3.113V30.484l-1.892 2.145s.112 8.93 0 9.126l-5.351 10.022c-.227.401-.65.648-1.107.648h-6.88c-1.122 0-2.499-.37-3.434-1.417-.622-.696-1.082-1.696-1.082-3.144V44.89l-4.344 6.132s-.129.252-.583.537c1.033.155 1.845.392 2.414.638.843.366 1.365.836 1.654 1.211.859 1.119.776 2.218.175 3.17-.023.036-7.259 8.737-9.652 11.614l12.822 14.511c.419.405.511 1.044.222 1.55l-5.961 10.277a1.279 1.279 0 0 1-1.11.644h-7.384c-.284 0-.968-.108-1.611-.794-.874-.934-6.001-8.49-6.001-8.49l-3.01 8.64a1.274 1.274 0 0 1-1.169.764h-5.938c-1.122 0-2.498-.366-3.434-1.402-.622-.69-1.08-1.68-1.08-3.112 0-.35-.007-1.237-.017-2.511-1.655 2.888-3.115 5.51-3.115 5.51-.087.167-.815 1.366-4.102 1.366h-23.602c-2.736 0-4.194-.692-4.96-1.61-.591-.707-.848-1.597-.848-2.65v-.137l-2.225 3.88c-.236.36-.637.578-1.067.578h-4.614c-.316 0-1.833-.116-2.055-.308-.676.157-1.519.308-2.221.308h-18.907c-1.296 0-2.332-.455-3.057-1.2-.507-.522-.871-1.198-1.04-2.005-.621 1.027-1.054 1.73-1.087 1.759 0 0-1.622 1.367-3.672 1.367h-7.787c-1.122 0-2.499-.367-3.434-1.403-.622-.69-1.08-1.68-1.08-3.112V88.87c-1.623 2.475-3.225 4.972-3.235 4.985 0 0-.679 1.29-4.371 1.29h-24.436c-1.296 0-2.332-.449-3.057-1.185-.716-.728-1.147-1.76-1.147-3.025 0-4.671 0-19.873.002-19.843 0 0 .033-1.385.88-2.826 1.05-1.782 6.602-11.28 7.024-11.965.847-1.378 3.126-2.051 5.09-2.051 9.229 0 15.75.066 18.796.066 3.167 0 5.013 1.042 6.149 2.25.19.203.362.412.515.63.803-1.734 1.671-3.605 2.269-4.883-.627.002-1.164.002-1.584.002-1.297 0-2.333-.46-3.056-1.212-.695-.721-1.121-1.736-1.145-2.977-1.079 1.661-1.921 2.972-1.929 2.982 0 0-.679 1.29-4.371 1.29h-24.436c-1.296 0-2.332-.45-3.057-1.186-.716-.728-1.147-1.758-1.147-3.026 0-4.669 0-19.872.002-19.841 0 0 .002-1.404.88-2.826.751-1.218 6.572-11.3 7.024-11.966.914-1.345 3.126-2.05 5.09-2.05s15.75.066 18.796.066c3.167 0 5.013 1.042 6.149 2.25 1.413 1.5 1.754 3.449 1.832 4.793 1.301-2.141 2.503-4.094 2.888-4.602.868-1.149 3.076-2.209 5.92-2.209h18.021c2.5 0 4.43.805 5.769 2.146.41.41.77.876 1.074 1.398a948.38 948.38 0 0 1 1.429-2.307c.337-.52.85-1.034 1.724-1.41.798-.345 2.166-.628 4.497-.628 2.351 0 3.721.307 4.513.664.824.371 1.356.82 1.693 1.316 1.697-.92 4.039-1.65 7.225-1.65 1.273 0 2.093.388 2.694.947l.08.078a5.09 5.09 0 0 1 1.156-.561c.954-.332 2.466-.574 4.539-.574 1.844 0 3.103.12 3.966.345 1.666.436 2.468 1.266 2.952 2.335.025.056.048.113.069.171l2.781 7.626s5.237-8.81 5.361-8.908c0 0 1.172-.915 2.352-1.224.864-.226 2.123-.345 3.967-.345 3.267 0 5.252.729 6.039 1.396.339.287.598.59.786.906.999-.934 3.077-1.723 5.503-1.723h18.02c2.5 0 4.429.807 5.769 2.152.476.477.885 1.03 1.215 1.656a628.105 628.105 0 0 1 1.596-2.57c.336-.52.849-1.032 1.724-1.41.797-.344 2.165-.627 4.496-.627 2.352 0 3.72.307 4.514.663.822.37 1.354.819 1.692 1.314 1.437-.777 3.339-1.42 5.825-1.598Zm-75.858 60.807a.98.98 0 0 0 .191.312c.535.561 1.417.625 2.273.625h6.967c.17 0 .373.01.597.023l-.003-.022s-.1-.92-1.019-.92l-9.006-.018Zm-30.926-.08c-.069-.362-.174-.655-.381-.846-.189-.173-.457-.222-.784-.22h-3.013v.076c0 .765.026 1.31.363 1.617.32.293.806.28 1.339.28h2.476v-.907Zm15.863-41.971-2.217 2.515s.112 9.31 0 9.506l-5.351 9.659c-.227.401-.65.649-1.107.649h-6.88c-1.122 0-2.498-.371-3.434-1.419-.622-.697-1.08-1.698-1.08-3.147v-2.675l-4.039 5.683s-.68 1.32-4.371 1.32c-1.394 0-4.201.012-7.423.026.024.191.033.38.034.566l.003 1.144.63-.01c.977 0 1.778.166 2.457.71.442.355.911.897 1.198 1.906.171.603.304 1.55.318 3.046 1.041-1.3 1.811-2.245 1.818-2.252 2.139-2.217 5.129-3.041 8.736-3.041h16.821c2.208 0 3.499.745 4.313 1.573 1.261 1.282 1.444 3.04 1.444 4.052v1.804c.601-.785 1.178-1.543 1.64-2.18a9.69 9.69 0 0 1 1.704-2.276c2.229-2.196 5.349-3.014 9.11-3.014h12.769c2.698 0 5.093.608 7.034 1.628a1.31 1.31 0 0 1 .121-.364s.747-1.467 1.616-3.165c-.943-.145-1.716-.56-2.291-1.16-.716-.746-1.147-1.804-1.147-3.102V36.84l-1.994 4.987c-.046.115-5.69 9.98-5.69 9.98a1.277 1.277 0 0 1-1.096.623h-11.515c-1.759 0-3.142-.91-4.419-4.045-1.012-2.482-5.912-14.02-7.712-18.252Zm55.349 22.224-4.104.018.005 3.79 2.877-2.728a4.419 4.419 0 0 1 1.222-1.08Z" fill="#E27152"/>
	<path fill-rule="evenodd" clip-rule="evenodd" d="M167.112 56.387h16.822c3.233 0 3.291 2.205 3.291 3.163v23.52a.53.53 0 0 1-.53.53H179.3a.53.53 0 0 1-.53-.53v-.39c-1.286.474-2.7.666-4.099.666h-6.538c-5.188 0-10.661-1.505-10.661-12.559v-2.484c0-9.787 3.922-11.916 9.64-11.916Zm85.588-1.396-10.934 13.12s9.593 11.259 12.857 14.36a.59.59 0 0 1-.406 1.02h-9.329a.59.59 0 0 1-.443-.201c-1.241-1.407-8.61-10.069-8.61-10.069V82.9a.591.591 0 0 1-.59.592h-7.23a.588.588 0 0 1-.591-.592c-.001-4.384-.009-33.823 0-33.941v-.005c0-.788.489-1.094 4.064-1.094 3.537 0 4.331.416 4.331 1.094l.016 14.835 7.215-9.03c.656-.877 1.875-1.188 4.941-1.188 3.284 0 5.044.89 4.709 1.42ZM125.908 73.719a.659.659 0 0 0-.659-.656l-15.273.036c-2.295 0-4.651-1.127-4.651-3.41 0-.777-.061-7.613-.061-7.85 0-3.804 2.233-5.395 4.778-5.395h18.731c5.548 0 5.537 4.843 5.537 6.306 0 .95.184 2.225-3.466 2.225-3.65 0-4.017-.543-4.017-.976 0-.433-.292-.674-.592-.674-.299 0-9.13.013-11.922.013a.778.778 0 0 0-.78.778v1.611a.78.78 0 0 0 .78.78h16.23c2.294 0 3.767 1.128 3.767 3.41V80.24c0 2.026-1.571 3.226-4.118 3.226h-19.749c-3.717 0-5.118-2.173-5.118-4.89v-2.33c0-.497.429-1.602 4.079-1.602s3.821.494 4.022.895c.199.396.507.707.887.707l10.937.005a.658.658 0 0 0 .658-.656V73.72Zm14.607-17.277-.049-3.605c0-.89.061-1.736 4.066-1.736 3.95 0 4.341.885 4.343 1.7l.008 3.64 3.087-.05c.891 0 1.512-.184 1.512 3.466 0 3.268-.544 3.662-1.255 3.71v.004h-3.344v11.194c0 1.46.83 1.47.83 1.47l1.56-.048c.891 0 1.511-.184 1.511 3.466 0 3.65-.678 3.716-1.511 3.716l-8.695.001c-2.314 0-2.063-1.742-2.063-2.8v-17l-1.197.004c-.89 0-1.511.184-1.511-3.466 0-3.65.678-3.716 1.511-3.716l1.197.049Zm78.501 15.367c3.111 0 4.169.596 4.169 2.161 0 8.497-4.934 9.258-9.698 9.258h-10.063c-5.499 0-11.301-1.228-11.301-12.368v-2.504c0-9.864 4.157-12.01 10.218-12.01h10.93c5.656 0 9.843 3.399 9.843 7.265l.06 1.634c0 .999-.71 1.945-3.877 1.945s-4.164-.263-4.164-1.945c0-1.683-3.719-1.54-4.806-1.54h-4.782c-3.463 0-5.109 1.124-5.109 3.986v3.476c0 3.372 2.512 4.394 5.109 4.394h5.129c1.322 0 4.459.481 4.459-1.59 0-.003-.209-2.162 3.883-2.162Zm-40.299.652v-5.172c0-2.637-1.103-3.6-4.534-3.6h-4.049c-3.267 0-4.82 1.115-4.82 3.955v3.448c0 3.347 1.716 4.361 4.167 4.361h5.029c2.205 0 4.207-.608 4.207-2.992Zm84.308-31.409a.524.524 0 0 1-.524-.523l-.038-25.579c0-.89.671-1.51 4.32-1.51 3.65 0 3.673.678 3.673 1.51l.003 3 .003.044s2.013-4.228 9.139-4.228c1.578 0 1.511.86 1.511 4.489 0 3.63-.678 4.244-1.511 4.244l-2.167.005c-4.392.073-6.565 1.215-6.565 2.023v16c0 .29-.233.525-.523.525h-7.321Zm-88.769 0a.526.526 0 0 1-.525-.523l-.038-25.579c0-.89.671-1.51 4.321-1.51 3.65 0 3.672.678 3.672 1.51l.004 3 .003.044s2.013-4.228 9.138-4.228c1.579 0 1.512.86 1.512 4.489 0 3.63-.678 4.244-1.512 4.244l-2.166.005c-4.392.073-6.565 1.215-6.565 2.023v16c0 .29-.233.525-.523.525h-7.321Zm154.239-.153-21.089-.026c-3.895 0-5.828-1.464-5.828-5.358 0-14.833-.092-16.157-.092-16.157 0-1.672.734-5.427 5.159-5.427h18.467c3.476 0 5.464 1.951 5.464 5.427v9.628c0 1.18-.883 1.524-1.626 1.524h-18.97v1.372c0 1.422.466 2.284 2.814 2.284 1.976 0 15.701.018 15.701.018.89 0 2.081.19 2.081 3.18 0 2.992-1.248 3.535-2.081 3.535Zm-162.038 0-21.09-.026c-3.895 0-5.827-1.464-5.827-5.358 0-14.833-.093-16.157-.093-16.157 0-1.672.734-5.427 5.16-5.427h18.467c3.476 0 5.464 1.951 5.464 5.427v9.628c0 1.18-.884 1.524-1.627 1.524h-18.968v1.372c0 1.422.465 2.284 2.812 2.284 1.977 0 15.702.018 15.702.018.891 0 2.081.19 2.081 3.18 0 2.992-1.248 3.535-2.081 3.535Zm88.172 0-21.089-.026c-3.896 0-5.827-1.464-5.827-5.358 0-14.833-.094-16.157-.094-16.157 0-1.672.735-5.427 5.16-5.427h18.467c3.476 0 5.464 1.951 5.464 5.427v9.628c0 1.18-.883 1.524-1.626 1.524h-18.97v1.372c0 1.422.466 2.284 2.814 2.284 1.976 0 15.701.018 15.701.018.89 0 2.081.19 2.081 3.18 0 2.992-1.248 3.535-2.081 3.535Zm134.755-9.763a.657.657 0 0 0-.658-.656c-3.005.006-15.274.036-15.274.036-2.295 0-4.651-1.128-4.651-3.411 0-.776-.06-7.612-.06-7.85 0-3.803 2.232-5.394 4.777-5.394h18.731c5.548 0 5.538 4.843 5.538 6.306 0 .95-.581 1.92-3.466 1.92-2.885 0-4.018-.545-4.018-.978 0-.432-.292-.367-.59-.367-.3 0-9.132.011-11.924.011a.78.78 0 0 0-.779.78v1.611a.779.779 0 0 0 .779.78h16.23c2.295 0 3.768 1.128 3.768 3.41v10.322c0 2.026-1.572 3.226-4.117 3.226h-19.75c-3.716 0-5.119-2.173-5.119-4.891v-2.329c0-.497.429-1.603 4.079-1.603s3.823.495 4.023.896c.198.396.508.707.886.707l10.939.005a.653.653 0 0 0 .656-.656v-1.875Zm-33.644 0a.657.657 0 0 0-.658-.656c-3.005.006-15.274.036-15.274.036-2.295 0-4.651-1.128-4.651-3.411 0-.776-.06-7.612-.06-7.85 0-3.803 2.232-5.394 4.777-5.394h18.731c5.548 0 5.538 4.843 5.538 6.306 0 .95-.582 1.92-3.466 1.92-2.886 0-4.018-.545-4.018-.978 0-.432-.292-.367-.59-.367-.3 0-9.132.011-11.924.011a.78.78 0 0 0-.779.78v1.611a.779.779 0 0 0 .779.78h16.23c2.295 0 3.768 1.128 3.768 3.41v10.322c0 2.026-1.572 3.226-4.117 3.226h-19.751c-3.716 0-5.118-2.173-5.118-4.891v-2.329c0-.497.429-1.603 4.079-1.603s3.822.495 4.023.896c.198.396.508.707.886.707l10.938.005a.655.655 0 0 0 .657-.656v-1.875Zm-70.319 6.88-.048-34.062c0-.893.323-1.514 4.33-1.514 3.95 0 4.075.66 4.078 1.48 0 0 .009 18.493.009 28.28 0 1.463 1.25 1.425 1.25 1.425.892 0 1.511-.184 1.511 3.474 0 3.656-.678 3.722-1.511 3.722l-7.555.002c-2.315 0-2.064-1.746-2.064-2.806Zm-75.155-5.079 5.526-18.053c.421-.93 1.566-1.225 4.673-1.225 3.406 0 4.986.66 4.681 1.511 0 0-7.773 20.211-9.509 24.73a1.39 1.39 0 0 1-1.295.888h-8.177a1.387 1.387 0 0 1-1.288-.87l-9.928-24.748c-.306-.852 1.276-1.51 4.681-1.51 3.108 0 4.252.294 4.673 1.224l5.963 18.053Zm-84.358-1.617a.659.659 0 0 0-.659-.656l-15.273.036c-2.295 0-4.651-1.127-4.651-3.41 0-.775-.061-7.613-.061-7.85 0-3.804 2.233-5.395 4.778-5.395h18.731c5.548 0 5.537 4.845 5.537 6.306 0 .95.184 2.226-3.466 2.226-3.65 0-4.017-.544-4.017-.977 0-.433-.292-.673-.592-.673-.299 0-9.13.012-11.922.012a.774.774 0 0 0-.551.228.775.775 0 0 0-.229.551v1.61c0 .207.082.405.229.551a.774.774 0 0 0 .551.229h16.23c2.294 0 3.767 1.128 3.767 3.41V37.84c0 2.026-1.571 3.227-4.118 3.227h-19.749c-3.717 0-5.118-2.174-5.118-4.891v-2.33c0-.496.429-1.602 4.079-1.602s3.821.494 4.022.896c.199.396.507.706.887.706l10.937.005a.658.658 0 0 0 .658-.656V31.32Zm121.07-10.418c.402 0 1.299.21 1.299 1.31v1.812h-12.469v-1.812c0-1.1.897-1.31 1.299-1.31h9.871Zm-88.173 0c.403 0 1.299.21 1.299 1.31v1.812h-12.468v-1.812c0-1.1.896-1.31 1.299-1.31h9.87Zm162.039 0c.402 0 1.299.21 1.299 1.31v1.812h-12.469v-1.812c0-1.1.897-1.31 1.299-1.31h9.871Z" fill="#FFFBF9"/>
	<path fill-rule="evenodd" clip-rule="evenodd" d="M20.953 60.484a.27.27 0 0 0-.223-.42H4.948A4.946 4.946 0 0 1 0 55.11l.019-22.97c0-.971.255-1.925.739-2.768l8.43-14.692a4.982 4.982 0 0 1 4.322-2.504h51.156a2.963 2.963 0 0 1 2.51 4.531l-5.5 8.796a.87.87 0 0 0 .736 1.33h12.464a4.36 4.36 0 0 1 4.361 4.361v22.04c0 2.462-.624 4.886-1.814 7.042-1.5 2.716-3.932 6.566-5.466 9.346a6.823 6.823 0 0 1-5.974 3.527H17.97a2.972 2.972 0 0 1-2.46-4.64l5.442-8.024Z" fill="#E27152"/>
	<path fill-rule="evenodd" clip-rule="evenodd" d="M28.352 58.172a3.089 3.089 0 0 0-2.524 1.309l-6.498 9.218a.892.892 0 0 0 .729 1.406h44.814c1.65 0 3.174-.883 3.997-2.314 1.171-2.037 3.184-5 4.39-7.098a1.681 1.681 0 0 0-1.459-2.52H28.352Z" fill="#FFFBF9"/>
	<path fill-rule="evenodd" clip-rule="evenodd" d="M15.716 45.338a5.503 5.503 0 0 0-4.32 2.115l-5.303 6.784a1.72 1.72 0 0 0 1.356 2.782h15.49a3.307 3.307 0 0 1 2.988-1.89h29.937a3.519 3.519 0 0 0 3.001-1.683l4.073-6.65a1.062 1.062 0 0 0-.91-1.618l-46.312.16Z" fill="#FFFBF9"/>
	<path fill-rule="evenodd" clip-rule="evenodd" d="M63.296 52.655a1.619 1.619 0 0 0 1.374 2.474h8.687a2.529 2.529 0 0 0 2.528-2.528V32.352a2.477 2.477 0 0 0-2.477-2.477H32.884c-1.52 0-2.934.777-3.75 2.06-1.437 2.262-3.11 5.867-4.526 8.094a1.284 1.284 0 0 0 1.084 1.974H64.17a3.197 3.197 0 0 1 2.714 4.885l-3.588 5.767Z" fill="#FFFBF9"/>
	<path fill-rule="evenodd" clip-rule="evenodd" d="M56.22 26.832a.987.987 0 0 0 .824-.447l5.757-8.816a1.12 1.12 0 0 0-.938-1.731H18.024a4.719 4.719 0 0 0-4.721 4.72v16.698a4.808 4.808 0 0 0 5.037 4.803h.618c.017-.134 4.998-8.732 7.747-12.948a5.025 5.025 0 0 1 4.208-2.28H56.22Z" fill="#FFFBF9"/>
</svg>
