<svg xmlns="http://www.w3.org/2000/svg" xmlns:xlink="http://www.w3.org/1999/xlink" viewBox="37.24 8.24 975.52 120.52">
	<defs>
		<linearGradient id="linear-gradient" x1="270.86" x2="271.86" y1="732.191" y2="732.191" gradientTransform="translate(-204837.396 -554289.493) scale(757.12354)" gradientUnits="userSpaceOnUse">
			<stop offset="0" stop-color="#00a8c7"/>
			<stop offset="1" stop-color="#143659"/>
		</linearGradient>
		<linearGradient id="linear-gradient-2" x1="270.86" x2="271.86" y1="732.191" y2="732.191" xlink:href="#linear-gradient"/>
		<linearGradient id="linear-gradient-3" x1="270.86" x2="271.86" y1="732.19" y2="732.19" xlink:href="#linear-gradient"/>
		<linearGradient id="linear-gradient-9" x1="270.86" x2="271.86" y1="732.19" y2="732.19" xlink:href="#linear-gradient"/>
		<linearGradient id="linear-gradient-10" x1="270.86" x2="271.86" y1="732.204" y2="732.204" xlink:href="#linear-gradient"/>
		<linearGradient id="linear-gradient-13" x1="269.353" x2="270.353" y1="736.37" y2="736.37" gradientTransform="translate(-38117.826 -104356.077) scale(141.82527)" gradientUnits="userSpaceOnUse">
			<stop offset="0" stop-color="#00a8c8"/>
			<stop offset="1" stop-color="#00a8c8"/>
		</linearGradient>
		<linearGradient id="linear-gradient-14" x1="269.353" x2="270.353" y1="736.37" y2="736.37" gradientTransform="translate(-38144.114 -104334.519) scale(141.82527)" xlink:href="#linear-gradient-13"/>
		<linearGradient id="linear-gradient-15" x1="269.354" x2="270.353" y1="736.37" y2="736.37" gradientTransform="translate(-38135.627 -104378.913) scale(141.82527)" gradientUnits="userSpaceOnUse">
			<stop offset="0" stop-color="#f39700"/>
			<stop offset="1" stop-color="#f39700"/>
		</linearGradient>
		<linearGradient id="linear-gradient-16" x1="269.353" x2="270.353" y1="736.37" y2="736.37" gradientTransform="translate(-38116.404 -104400.503) scale(141.82527)" xlink:href="#linear-gradient-13"/>
		<style>
			.cls-2{fill:url(#linear-gradient)}.cls-3{fill:url(#linear-gradient-2)}
		</style>
	</defs>
	<path fill="none" d="M788.364 77.945h16.125l2.783-20.533.588-4.048-20.424 21.68q-1.971 2.901.928 2.901zm-372.24-33.989-11.6.116-2.668 19.141h10.441q5.913.001 8.41-2.147 2.492-2.144 3.305-8.293.813-4.987-.927-6.903-1.74-1.914-6.96-1.914z"/>
	<path d="M276.695 27.717h-2.528a69.034 69.034 0 0 0-14.58 1.798 19.803 19.803 0 0 0-10.79 6.611q-3.888 4.817-4.929 13.631a22.742 22.742 0 0 0 1.797 13.745q2.958 5.976 12.471 10.383l14.847 6.727a10.518 10.518 0 0 1 4.118 2.437 4.45 4.45 0 0 1 .638 3.827 5.203 5.203 0 0 1-3.015 4.467q-2.554 1.103-9.049 1.102-4.64 0-24.243-.58h-2.204l-2.088 15.312a131.05 131.05 0 0 0 16.993 2.842q7.944.752 12.586.753 16.587 0 23.838-4.814 7.248-4.81 8.642-18.154 1.277-8.698-1.74-14.44-3.016-5.744-12.528-9.919l-13.804-6.033q-3.826-1.504-4.988-2.957a4.585 4.585 0 0 1-.696-3.887q.58-3.48 2.9-4.408a21.142 21.142 0 0 1 7.308-.928q11.138 0 21.925.233 2.549.116 4.64.116l1.971-14.153a73.11 73.11 0 0 0-13.803-2.9 122.563 122.563 0 0 0-13.689-.81z" class="cls-2"/>
	<path d="M334.461 28.877q-8.698 0-13.745 4.524a19.8 19.8 0 0 0-6.205 12.296l-6.033 43.383q-1.16 9.284 3.364 14.907 4.524 5.627 14.5 5.626h2.784a308.577 308.577 0 0 0 34.336-1.16l.464-15.776h-28.652q-5.685 0-4.64-5.104l1.625-12.065h30.275l1.857-14.848h-30.045l1.276-9.512q0-5.334 6.264-5.336h28.768l2.552-15.544a167.93 167.93 0 0 0-18.386-1.218q-10.266-.174-20.359-.173z" class="cls-3"/>
	<path fill="url(#linear-gradient-3)" d="M433.756 30.385a55.268 55.268 0 0 0-14.768-2.32h-2.572q-10.402 0-17.112.174-6.729.174-13.92.985l-11.252 80.041h21.228l4.292-30.16h10.788a6.117 6.117 0 0 1 4.118 1.101q1.22 1.106 1.45 4.582l2.785 24.477h22.387l-3.479-24.36q-.93-6.613-3.887-9.397a10.748 10.748 0 0 0-6.206-3.132l.116-.81q9.28-1.045 13.224-6.092a24.033 24.033 0 0 0 4.757-12.469q1.274-9.396-1.857-14.848a17.413 17.413 0 0 0-10.092-7.772zm-9.744 22.388q-.813 6.149-3.306 8.293-2.496 2.148-8.409 2.147h-10.44l2.667-19.14 11.6-.117q5.22 0 6.961 1.914 1.74 1.916.927 6.903z"/>
	<path d="M524.352 29.224H505.56l-19.72 54.29a74.94 74.94 0 0 0-2.899 9.742h-3.016q.114-4.984-.232-9.975l-4.408-54.057h-21.924l10.092 73.777a7.217 7.217 0 0 0 2.261 4.466 6.606 6.606 0 0 0 4.698 1.798h19.257q5.567 0 7.772-5.453l30.972-74.588zm0 80.04v.001h21.808l11.252-80.041h-21.808l-11.252 80.04zm77.72-81.43q-12.878 0-20.823 3.537-7.947 3.539-12.354 12.47-4.408 8.933-6.495 24.592-3.366 22.854 3.826 32.537 7.194 9.689 26.45 9.687 17.051 0 26.794-3.48l-.81-16.009q-5.338.465-10.905.697-5.568.234-14.152.231-7.423 0-8.932-4.523-1.509-4.525.463-17.517 1.278-10.206 3.132-15.312 1.856-5.103 4.873-6.728a16.624 16.624 0 0 1 7.89-1.623q7.654 0 12.758.058 5.105.06 10.904.29l2.553-15.892a79.328 79.328 0 0 0-10.905-2.263 110.29 110.29 0 0 0-14.267-.753z" class="cls-2"/>
	<path d="M664.015 45.812h28.768l2.551-15.542v-.002a167.924 167.924 0 0 0-18.386-1.218q-10.266-.174-20.358-.173-8.7 0-13.745 4.524a19.802 19.802 0 0 0-6.206 12.296l-6.032 43.383q-1.162 9.284 3.364 14.907 4.523 5.627 14.5 5.626h2.783a308.593 308.593 0 0 0 34.336-1.16l.465-15.776h-28.652q-5.685 0-4.64-5.104l1.624-12.065h30.275l1.857-14.848h-30.044l1.275-9.512q0-5.334 6.265-5.336z" class="cls-3"/>
	<path d="M734.657 27.717h-2.528a69.034 69.034 0 0 0-14.58 1.798 19.797 19.797 0 0 0-10.789 6.611q-3.888 4.817-4.93 13.631a22.741 22.741 0 0 0 1.798 13.745q2.957 5.976 12.47 10.383l14.847 6.727a10.532 10.532 0 0 1 4.12 2.437 4.45 4.45 0 0 1 .636 3.827 5.203 5.203 0 0 1-3.015 4.467q-2.554 1.103-9.048 1.102-4.64 0-24.244-.58h-2.204l-2.088 15.312a131.066 131.066 0 0 0 16.994 2.842q7.943.752 12.585.753 16.589 0 23.84-4.814 7.247-4.81 8.64-18.154 1.277-8.698-1.739-14.44-3.018-5.744-12.528-9.919l-13.804-6.033q-3.828-1.504-4.988-2.957a4.588 4.588 0 0 1-.697-3.887q.58-3.48 2.901-4.408a21.132 21.132 0 0 1 7.308-.928q11.136 0 21.924.233 2.549.116 4.64.116l1.971-14.152a73.089 73.089 0 0 0-13.803-2.9 122.55 122.55 0 0 0-13.689-.812z" class="cls-2"/>
	<path fill="url(#linear-gradient-9)" d="m831.401 29.11-.702.011.121-.128h-21.227l-45.936 50.343q-2.437 4.99-.058 9.05 2.376 4.06 8.525 4.06h30.393l-2.32 16.82h19.836l2.436-16.82h.347l8.701-2.089 1.623-12.411h-8.699zm-24.129 28.302-2.783 20.533h-16.125q-2.9 0-.928-2.9l20.424-21.68z"/>
	<path fill="url(#linear-gradient-10)" d="M841.607 85.947v.001h34.103l1.856-12.76h-34.104l-1.855 12.759z"/>
	<path d="M885.338 109.264v.001h21.808l11.251-80.041H896.59l-11.252 80.04zm41.412-80.04-2.319 16.82h22.851l-8.932 63.221h21.808l8.932-63.221h22.853l2.32-16.82H926.75z" class="cls-2"/>
	<path fill="url(#linear-gradient-13)" d="M219.215 73.878H89.22a5.915 5.915 0 0 0 0 11.83h129.995a5.915 5.915 0 1 0 0-11.83z"/>
	<path fill="url(#linear-gradient-14)" d="M192.927 95.434H62.932a5.915 5.915 0 1 0 0 11.831h129.995a5.915 5.915 0 0 0 5.915-5.906v-.019a5.915 5.915 0 0 0-5.915-5.906z"/>
	<path fill="url(#linear-gradient-15)" d="M71.42 62.87h129.994a5.915 5.915 0 0 0 0-11.83H71.42a5.915 5.915 0 0 0 0 11.83z"/>
	<path fill="url(#linear-gradient-16)" d="M220.638 29.451H90.642a5.913 5.913 0 0 0-5.915 5.846v.133a5.913 5.913 0 0 0 5.908 5.851h130.002a5.915 5.915 0 0 0 5.915-5.911v-.007a5.915 5.915 0 0 0-5.914-5.912z"/>
</svg>
