<svg version="1.1" id="katman_1" x="0" y="0" viewBox="0 0 3022.7 1548.3" style="enable-background:new 0 0 3022.7 1548.3" xml:space="preserve" xmlns="http://www.w3.org/2000/svg">
	<style type="text/css" id="style2">
		.st0{fill-rule:evenodd;clip-rule:evenodd;fill:#293f41}
	</style>
	<g id="g10" transform="translate(-332.547 -170.64) scale(1.22105)">
		<path class="st0" d="M877.7 703.3c-27.2 0-50.1 10-68.7 24.3v-22.9h-63v244.9h65.9V793.5c8.6-12.9 31.5-30.1 58.7-30.1 10 0 18.6 1.4 25.8 4.3v-63c-5.8-1.4-11.5-1.4-18.7-1.4M307.8 875.1c17.2 15.8 41.5 24.3 67.3 24.3 17.2 0 31.5-8.6 31.5-20 0-37.2-117.4-24.3-117.4-103.1 0-47.3 45.8-75.9 93.1-75.9 31.5 0 65.9 11.5 83.1 24.3L435.3 772c-12.9-8.6-28.6-17.2-47.3-17.2-18.6 0-32.9 7.2-32.9 20 0 31.5 117.4 18.6 117.4 104.5 0 47.3-45.8 75.9-97.4 75.9-34.4 0-68.7-11.5-97.4-32.9zm411-50.1c0-68.7-47.3-124.6-114.6-124.6-73 0-118.8 60.1-118.8 127.4 0 77.3 54.4 127.4 127.4 127.4 37.2 0 75.9-15.8 100.2-44.4l-37.2-37.2c-11.5 12.9-34.4 28.6-61.6 28.6-34.4 0-63-24.3-65.9-58.7h169c0-5.6 1.5-11.4 1.5-18.5m-167.6-28.7c2.9-22.9 25.8-43 51.5-43 27.2 0 45.8 21.5 48.7 43zm501.2 58.7 67.3-150.4h67.3l-111.7 244.9h-45.8L917.8 704.7h68.7zm190.5-264.9c22.9 0 43 18.6 43 41.5s-18.6 41.5-43 41.5-43-18.6-43-41.5c0-22.8 18.6-41.5 43-41.5m-33 114.6h65.9v244.9h-65.9zM1545 899.4c-28.6 38.7-64.4 54.4-110.3 54.4-75.9 0-130.3-57.3-130.3-127.4 0-71.6 57.3-127.4 131.7-127.4 41.5 0 80.2 20 103.1 48.7l-45.8 41.5c-12.9-17.2-32.9-28.6-55.8-28.6-37.2 0-65.9 30.1-65.9 67.3 0 38.7 27.2 67.3 67.3 67.3 27.2 0 47.3-15.8 58.7-32.9zm237.7 11.5c-22.9 28.6-63 44.4-100.2 44.4-73 0-127.4-50.1-127.4-127.4 0-68.7 45.8-127.4 118.8-127.4 67.3 0 114.6 57.3 114.6 124.6 0 7.2 0 12.9-1.4 18.6h-169c2.9 34.4 31.5 58.7 65.9 58.7 27.2 0 50.1-15.8 61.6-28.6zm-61.6-114.6c-1.4-21.5-21.5-43-48.7-43-27.2 0-48.7 20-51.5 43zm93.1 153.2V704.7h63v20c18.6-15.8 41.5-24.3 68.7-24.3 34.4 0 64.4 15.8 84.5 40.1 15.8 18.6 25.8 44.4 25.8 85.9V951h-65.9V820.7c0-24.3-5.7-37.2-14.3-45.8-8.6-8.6-21.5-14.3-37.2-14.3-27.2 0-50.1 17.2-58.7 30.1v158.9h-65.9z" id="path4"/>
		<path d="M2223.7 700.4c-77.3 0-143.2 63-143.2 141.8 0 41.5 17.2 78.8 44.4 106 10 10 25.8 10 37.2 1.4 15.8-12.9 37.2-20 61.6-20 24.3 0 44.4 7.2 61.6 20 11.5 8.6 27.2 7.2 37.2-2.9 27.2-25.8 44.4-63 44.4-104.5-1.4-77.4-64.4-141.8-143.2-141.8m-1.4 214.8c-41.5 0-71.6-31.5-71.6-71.6 0-40.1 28.6-71.6 71.6-71.6 43 0 71.6 32.9 71.6 71.6 0 38.7-28.7 71.6-71.6 71.6" id="path6" style="fill-rule:evenodd;clip-rule:evenodd;fill:#82b6a1"/>
		<path class="st0" d="M2494.3 949.6h-48.7l-97.4-244.9h65.9l53 140.3 53-140.3h54.4L2626 845l53-140.3h65.9l-97.4 244.9h-48.7l-51.5-138.9z" id="path8"/>
	</g>
	<path d="M2975.387 952.112v5.25h-10.501v31.503h-6.96v-31.503h-10.501v-5.25zm24.543 22.711 14.042-22.711h5.25v36.753h-6.96v-21.002l-10.5 15.752h-5.251l-8.792-15.752v21.002h-6.96v-36.753h5.25z" id="path12" style="stroke-width:1.22104;fill:#293f41"/>
</svg>
