<svg xmlns="http://www.w3.org/2000/svg" width="200" height="128">
    <path d="M58.909 59.478a7.217 7.217 0 0 0-4.457 1.579v-1.486h-4.086v15.88h4.271V65.329a4.892 4.892 0 0 1 3.808-1.95 4.51 4.51 0 0 1 1.671.278v-4.086a4.9 4.9 0 0 0-1.207-.093M21.95 70.622a6.456 6.456 0 0 0 4.365 1.578c1.114 0 2.043-.557 2.043-1.3 0-2.414-7.615-1.578-7.615-6.686 0-3.064 2.971-4.921 6.036-4.921a10.011 10.011 0 0 1 5.386 1.578l-1.95 3.065a5.565 5.565 0 0 0-3.065-1.115c-1.207 0-2.135.465-2.135 1.3 0 2.042 7.614 1.207 7.614 6.778 0 3.065-2.971 4.922-6.314 4.922A10.565 10.565 0 0 1 20 73.686zM48.6 67.372c0-4.458-3.064-8.079-7.429-8.079-4.736 0-7.707 3.9-7.707 8.264a7.9 7.9 0 0 0 8.265 8.265 8.652 8.652 0 0 0 6.5-2.879l-2.415-2.414a5.61 5.61 0 0 1-3.993 1.857 4.177 4.177 0 0 1-4.271-3.807h10.958c0-.372.093-.743.093-1.207m-10.864-1.858a3.405 3.405 0 0 1 3.343-2.785 3.216 3.216 0 0 1 3.157 2.785zM70.238 69.322l4.364-9.751h4.365l-7.243 15.88h-2.972l-7.243-15.88h4.457l4.272 9.751zM82.589 52.142a2.776 2.776 0 0 1 2.785 2.693 2.787 2.787 0 1 1-2.785-2.693" fill="#293f41" fill-rule="evenodd"/>
    <path fill="#293f41" d="M80.453 59.571h4.272V75.45h-4.272z"/>
    <path d="M102.182 72.2a8.461 8.461 0 1 1-7.057-13 8.708 8.708 0 0 1 6.686 3.157l-2.972 2.693a4.528 4.528 0 0 0-3.621-1.857 4.281 4.281 0 0 0-4.272 4.364 4.193 4.193 0 0 0 4.365 4.365 4.58 4.58 0 0 0 3.807-2.136zM117.6 72.943a8.508 8.508 0 0 1-6.5 2.879 7.9 7.9 0 0 1-8.265-8.265c0-4.457 2.972-8.264 7.708-8.264 4.364 0 7.429 3.714 7.429 8.079a4.9 4.9 0 0 1-.093 1.207h-10.961a4.177 4.177 0 0 0 4.272 3.807 5.614 5.614 0 0 0 3.993-1.857zm-4-7.429a3.144 3.144 0 0 0-3.157-2.785 3.333 3.333 0 0 0-3.343 2.785zM119.64 75.451v-15.88h4.086v1.3a6.7 6.7 0 0 1 4.457-1.578 7.058 7.058 0 0 1 5.479 2.6 8.128 8.128 0 0 1 1.672 5.572v8.078h-4.272v-8.45a3.879 3.879 0 0 0-.929-2.971 3.358 3.358 0 0 0-2.414-.929 4.892 4.892 0 0 0-3.807 1.95v10.308z" fill="#293f41" fill-rule="evenodd"/>
    <path d="M146.2 59.293a9.294 9.294 0 0 0-9.286 9.193 9.689 9.689 0 0 0 2.879 6.872 1.835 1.835 0 0 0 2.414.093 6.247 6.247 0 0 1 3.994-1.3 6.434 6.434 0 0 1 3.993 1.3 1.841 1.841 0 0 0 2.414-.186 9.261 9.261 0 0 0-6.408-15.972m-.092 13.929a4.542 4.542 0 0 1-4.643-4.643 4.487 4.487 0 0 1 4.643-4.643 4.643 4.643 0 1 1 0 9.286" fill="#82b6a1" fill-rule="evenodd"/>
    <path fill="#293f41" fill-rule="evenodd" d="M163.749 75.451h-3.157l-6.315-15.88h4.272l3.436 9.101 3.436-9.101h3.529l3.343 9.101 3.435-9.101H180l-6.315 15.88h-3.157l-3.343-9.008-3.436 9.008z"/>
    <path fill="#293f41" d="M177.678 73.501v.278h-.557v1.672h-.371v-1.672h-.557v-.278h1.485zM178.979 74.708l.742-1.207H180v1.95h-.371v-1.115l-.558.836h-.278l-.465-.836v1.115h-.371v-1.95h.279l.743 1.207z"/>
</svg>
