<svg width="307.385" height="244.709" viewBox="0 0 81.329 64.746" xmlns="http://www.w3.org/2000/svg">
	<path d="M80.49-84.361a9.23 9.23 0 0 0-.596.065c-.167.025-.272.025-.49.13-.217.104-.282.186-.406.301a9.238 9.238 0 0 0-.421.426c-.319.338-.716.787-1.169 1.316a148.02 148.02 0 0 0-3.142 3.821 147.786 147.786 0 0 0-3.026 3.913c-.414.56-.763 1.047-1.022 1.433-.13.193-.236.36-.321.506-.085.146-.151.228-.205.463s-.03.338-.016.507c.012.168.036.365.069.595.066.46.169 1.05.3 1.735.261 1.368.632 3.106 1.028 4.84.395 1.733.814 3.46 1.171 4.806.179.673.342 1.25.482 1.693.07.222.133.409.195.566.062.158.085.26.236.45.15.189.245.234.385.329s.308.199.508.317c.4.235.927.522 1.543.847 1.232.648 2.822 1.44 4.423 2.212 1.6.772 3.212 1.52 4.487 2.08.638.28 1.19.513 1.624.68.217.083.403.15.564.2.162.05.256.096.497.096.242 0 .337-.046.498-.096.162-.05.348-.117.565-.2a39.58 39.58 0 0 0 1.623-.679c1.275-.56 2.887-1.308 4.488-2.08a147.922 147.922 0 0 0 4.424-2.211 39.626 39.626 0 0 0 1.543-.847c.2-.117.369-.221.508-.317.14-.095.235-.14.386-.329s.173-.291.235-.449c.061-.157.125-.344.195-.566.14-.443.304-1.02.483-1.693.358-1.346.776-3.073 1.172-4.806s.768-3.47 1.03-4.839a39.63 39.63 0 0 0 .3-1.735c.033-.23.057-.427.07-.595.013-.17.037-.271-.017-.506-.054-.236-.12-.317-.205-.464a9.187 9.187 0 0 0-.32-.506 39.559 39.559 0 0 0-1.023-1.433 148.214 148.214 0 0 0-3.026-3.914 148.245 148.245 0 0 0-3.14-3.822c-.452-.529-.85-.978-1.168-1.316-.16-.17-.298-.31-.422-.426-.124-.115-.189-.198-.406-.303-.326-.157-.466-.131-.764-.163a21.223 21.223 0 0 0-1.113-.082 91.732 91.732 0 0 0-3.293-.097c-2.521-.037-5.476-.02-7.563.054-.696.024-1.295.055-1.758.093z" fill="#7c8fa4" style="paint-order:markers fill stroke" transform="translate(-46.527 94.526)"/>
	<path transform="translate(13.132) scale(.26458)" d="M104.01 48.689v.008c-4.806-.004-8.117 1.687-8.691 2.29-.318.864-.482 7.826-.518 9.462H80.86a3.213 3.213 0 0 0-3.21 3.328l.773 20.156c-5.606 2.217-9.823 4.072-9.823 4.072.971 3.624 4.331 13.904 7.002 21.83 3.911-1.583 7-3.412 7-3.412l2.85-1.875c9.855 7.94 26.102 9.423 36.709-.074l3.012 1.896s3.733 2.122 8.091 3.781c2.352-7.8 5.466-18.627 6.409-22.145 0 0-4.218-1.857-9.825-4.075l.774-20.154a3.213 3.213 0 0 0-3.211-3.328h-13.94c-.035-1.636-.195-8.598-.513-9.46-.575-.605-3.887-2.296-8.693-2.292v-.008c-.044 0-.083.005-.127.004-.044 0-.083-.004-.127-.004zM84.197 66.871h39.883l-.564 14.66c-6.74-2.46-14.045-4.775-18.73-5.148v-.059c-.217 0-.433.013-.65.021-.217-.009-.434-.021-.652-.021v.059C98.8 76.756 91.5 79.07 84.76 81.53z" color="#000" fill="#0e232e" style="font-feature-settings:normal;font-variant-alternates:normal;font-variant-caps:normal;font-variant-east-asian:normal;font-variant-ligatures:normal;font-variant-numeric:normal;font-variant-position:normal;font-variation-settings:normal;inline-size:0;isolation:auto;mix-blend-mode:normal;shape-margin:0;shape-padding:0;text-decoration-color:#000;text-decoration-line:none;text-decoration-style:solid;text-indent:0;text-orientation:mixed;text-transform:none;white-space:normal"/>
	<path transform="translate(13.132) scale(.26458)" d="m121.85 111.12-2.133 2.066s-5.773 5.69-16.086 5.352c-10.576-.346-16.498-5.506-16.498-5.506l-2.156-1.853-2.377 1.566s-9.485 5.793-16.764 5.793v7.56c9.027 0 16.179-4.218 18.771-5.853 2.587 1.824 8.476 5.508 18.779 5.846 10.482.343 16.465-3.747 19.119-5.817 2.65 1.627 9.925 5.825 18.678 5.825v-7.561c-6.783 0-16.824-5.83-16.824-5.83zm0 17c-4.998 4.833-14.02 6.114-18.219 6.043-6.698-.26-13.513-1.565-18.654-5.984-5.817 3.344-13.327 5.252-19.141 5.359v7.56c9.027 0 16.179-2.218 18.771-3.853 2.587 1.824 8.476 4.133 18.779 4.47 10.482.344 16.465-2.371 19.119-4.44 2.65 1.626 9.925 3.824 18.678 3.824v-7.561c-6.66-.507-13.624-1.807-19.334-5.418z" color="#000" fill="#fff" style="font-feature-settings:normal;font-variant-alternates:normal;font-variant-caps:normal;font-variant-east-asian:normal;font-variant-ligatures:normal;font-variant-numeric:normal;font-variant-position:normal;font-variation-settings:normal;inline-size:0;isolation:auto;mix-blend-mode:normal;shape-margin:0;shape-padding:0;text-decoration-color:#000;text-decoration-line:none;text-decoration-style:solid;text-indent:0;text-orientation:mixed;text-transform:none;white-space:normal"/>
	<g stroke-width="18.904" aria-label="SHIPWRIGHT" fill="#0e232e">
		<path d="M12.547 54.74c1.787 0 2.653-.894 2.653-1.94 0-2.296-3.636-1.5-3.636-2.653 0-.393.33-.715 1.188-.715.554 0 1.153.161 1.734.492l.446-1.1c-.58-.366-1.385-.553-2.17-.553-1.779 0-2.637.884-2.637 1.947 0 2.324 3.637 1.52 3.637 2.69 0 .384-.349.67-1.206.67-.75 0-1.537-.268-2.064-.652L10 54.016c.554.429 1.555.723 2.547.723z"/>
		<path d="M20.48 48.379v2.466h-2.84v-2.466h-1.448v6.254h1.448V52.07h2.84v2.564h1.448V48.38z"/>
		<path d="M23.411 54.633h1.448V48.38H23.41z"/>
		<path d="M29.05 48.379h-2.708v6.254h1.448V52.91h1.26c1.67 0 2.716-.867 2.716-2.26 0-1.403-1.046-2.27-2.716-2.27zm-.08 3.35h-1.18v-2.17h1.18c.884 0 1.33.401 1.33 1.09 0 .678-.446 1.08-1.33 1.08z"/>
		<path d="m40.79 48.379-1.457 4.432-1.43-4.432h-1.34l-1.474 4.396-1.412-4.396h-1.5l2.054 6.254h1.546l1.42-4.235 1.376 4.235h1.555l2.046-6.254z"/>
		<path d="m48.518 54.633-1.403-2.01c.813-.349 1.287-1.037 1.287-1.975 0-1.403-1.046-2.27-2.716-2.27h-2.708v6.255h1.448v-1.742h1.331l1.206 1.742zm-1.581-3.985c0 .68-.447 1.09-1.332 1.09h-1.18v-2.18h1.18c.885 0 1.332.402 1.332 1.09z"/>
		<path d="M49.546 54.633h1.447V48.38h-1.447z"/>
		<path d="M56.702 53.24a2.298 2.298 0 0 1-1.125.268c-1.198 0-2.029-.831-2.029-2.002 0-1.188.831-2.001 2.046-2.001.635 0 1.162.223 1.618.706l.929-.858c-.608-.706-1.519-1.081-2.618-1.081-1.992 0-3.44 1.35-3.44 3.234 0 1.886 1.448 3.235 3.413 3.235.894 0 1.84-.277 2.529-.795v-2.538h-1.323z"/>
		<path d="M63.654 48.379v2.466h-2.841v-2.466h-1.448v6.254h1.448V52.07h2.841v2.564h1.447V48.38z"/>
		<path d="M67.88 54.633h1.448v-5.075h2v-1.18h-5.45v1.18h2.002z"/>
	</g>
</svg>
