<svg xmlns="http://www.w3.org/2000/svg" width="200" height="128">
	<path d="M82.13 37.74h1.74A5.2 5.2 0 0 1 86.58 39a7.71 7.71 0 0 1 1.93 3c.26.55.5 1.12.75 1.68.58 1.26 1.14 2.54 1.75 3.79a11.7 11.7 0 0 0 4 4.82c.65.43 1.29.88 2 1.25a10.38 10.38 0 0 0 3.12 1.06 11.15 11.15 0 0 0 1.82.21 15.38 15.38 0 0 0 1.78-.13 10.82 10.82 0 0 0 3.92-1.35c.33-.18.65-.38 1-.59a13.09 13.09 0 0 1 4.74-1.92 12.5 12.5 0 0 1 3.45-.21 13.64 13.64 0 0 1 4.34 1 22 22 0 0 1 3.11 1.76 15.81 15.81 0 0 0 5.08 2 14.68 14.68 0 0 0 4.48.18 14.51 14.51 0 0 0 6.51-2.23 16.22 16.22 0 0 1 3.8-1.94 13.71 13.71 0 0 1 3.16-.68c.2 0 .39-.07.59-.1.45-.05.66.12.67.56v2.87c0 .49-.18.66-.65.69a9.35 9.35 0 0 0-4.57 1.52 24.66 24.66 0 0 1-3.4 1.91 21.84 21.84 0 0 1-4 1.24 18.82 18.82 0 0 1-5.13.3 16.22 16.22 0 0 1-4.85-1 22.26 22.26 0 0 1-2.3-1 26.68 26.68 0 0 1-2.47-1.46 9.64 9.64 0 0 0-3.8-1.51 8.91 8.91 0 0 0-6.42 1.36 17.25 17.25 0 0 1-5.99 2.46 14.11 14.11 0 0 1-4.1.24 14.8 14.8 0 0 1-6-1.8 20.42 20.42 0 0 1-3.51-2.41 15.24 15.24 0 0 1-2.72-3.07 21.81 21.81 0 0 1-1.92-3.64c-.44-1-.92-2-1.38-3-.34-.72-.65-1.45-1-2.17a1.51 1.51 0 0 0-2.12-.8.66.66 0 0 0-.32.28c-.2.34-.4.68-.57 1a308.8 308.8 0 0 0-1.91 4.13c-.3.64-.55 1.3-.87 1.93a18.83 18.83 0 0 1-2.8 4.23A17.92 17.92 0 0 1 72 56.59a15.49 15.49 0 0 1-5.1 1.9 14.52 14.52 0 0 1-3.89.18 15.09 15.09 0 0 1-5-1.25c-1-.46-2-1.1-2.94-1.62a9.17 9.17 0 0 0-3-1l-.91-.11c-.4-.05-.53-.2-.54-.61v-3c0-.46.11-.57.55-.52a18.4 18.4 0 0 1 2.34.38 14.35 14.35 0 0 1 3.7 1.38c.72.42 1.43.86 2.17 1.24a9.05 9.05 0 0 0 3.57 1 15.43 15.43 0 0 0 1.67.1 11.56 11.56 0 0 0 4.09-.94A12.59 12.59 0 0 0 73 50.44a12.33 12.33 0 0 0 2-3.21c.27-.57.51-1.15.78-1.73.52-1.13 1-2.26 1.58-3.39.21-.46.41-.92.63-1.37a5.36 5.36 0 0 1 3.94-3z" fill="#badbda"/>
	<path fill="#385781" d="M39 77.08a8.33 8.33 0 0 0-3.86-1.77c-2.23-.44-4.48-.81-6.72-1.2a10.47 10.47 0 0 1-2.51-.67 3.29 3.29 0 0 1-1.21-.88 3.07 3.07 0 0 1 .09-3.56 4.7 4.7 0 0 1 2.64-1.61 11 11 0 0 1 5.89.25 4.33 4.33 0 0 1 3.1 3.26c.09.34.25.54.63.53h2.5c.38 0 .47-.13.41-.52a7.43 7.43 0 0 0-1.14-3.19 7.74 7.74 0 0 0-4.18-2.94 13.89 13.89 0 0 0-3.19-.58 14.26 14.26 0 0 0-6.15.71 6.76 6.76 0 0 0-3.93 3.3 6.6 6.6 0 0 0-.63 3.58 4.91 4.91 0 0 0 1.91 3.68A8.22 8.22 0 0 0 26.2 77c2.09.41 4.2.73 6.29 1.11a18.56 18.56 0 0 1 2.57.64 2.93 2.93 0 0 1 2.08 2 3.14 3.14 0 0 1-.78 3.25 5.11 5.11 0 0 1-2.51 1.33 13.05 13.05 0 0 1-5.17.19 7.65 7.65 0 0 1-3-1 4.4 4.4 0 0 1-2.06-2.68 6.91 6.91 0 0 1-.19-1c0-.27-.16-.39-.42-.39h-2.57c-.43 0-.45.09-.44.46s.05.62.09.92a6.74 6.74 0 0 0 2.54 4.63 11.13 11.13 0 0 0 5.93 2.14 18.08 18.08 0 0 0 4 0 11.59 11.59 0 0 0 5.17-1.63A6.31 6.31 0 0 0 40 84.51a7.25 7.25 0 0 0 .77-4A4.8 4.8 0 0 0 39 77.08zM93.45 45.3a1.19 1.19 0 0 0 .38 0h53.32a6.56 6.56 0 0 0 .76 0c.51-.05.59-.13.59-.64v-2.17c0-.73-.11-.69-.69-.7H91.57c.54 1.17 1 2.25 1.54 3.33a.59.59 0 0 0 .34.18zm71.62 35.2H180a6.25 6.25 0 0 0 0-1.68 9.89 9.89 0 0 0-.86-3.5 8.23 8.23 0 0 0-6.35-4.8 11.69 11.69 0 0 0-3.29-.13 11.11 11.11 0 0 0-4.3 1.24 8.07 8.07 0 0 0-3.74 4.27 9.9 9.9 0 0 0-.46 5.54 8.12 8.12 0 0 0 4.37 6 11.43 11.43 0 0 0 7.23 1 9 9 0 0 0 5.28-2.88 8.77 8.77 0 0 0 1.46-2.15c.18-.37.07-.53-.34-.56h-2.23a1 1 0 0 0-1 .51 5.43 5.43 0 0 1-1.68 1.64 6.54 6.54 0 0 1-4.91.83 6 6 0 0 1-4.81-4.41c-.24-.84-.16-.92.7-.92zm-.64-3.13a6 6 0 0 1 5.57-4.26 9.6 9.6 0 0 1 2.15.14 5.46 5.46 0 0 1 4.21 4.14c.09.33 0 .48-.36.52a3.09 3.09 0 0 1-.43 0H164.8c-.37-.03-.48-.19-.37-.54zm-49.18-6.62a12 12 0 0 0-8.48.86 7.85 7.85 0 0 0-3.65 4 9.87 9.87 0 0 0-.42 6.69 8.14 8.14 0 0 0 4.79 5.49 11.43 11.43 0 0 0 7 .67 8.93 8.93 0 0 0 6.3-4.87c.24-.45.12-.64-.38-.65h-2.22a.87.87 0 0 0-.85.45 5.55 5.55 0 0 1-1.79 1.72 6.52 6.52 0 0 1-4.82.74 6 6 0 0 1-4.73-4.44c-.25-.82-.16-.91.68-.91h14.87a1.44 1.44 0 0 0 0-.27 10.94 10.94 0 0 0-1-5 8 8 0 0 0-5.3-4.48zm2.45 7.16a3.09 3.09 0 0 1-.43 0h-10.58c-.72 0-.8-.12-.56-.8a5.74 5.74 0 0 1 4.7-3.93 6.67 6.67 0 0 1 3.94.37 5.55 5.55 0 0 1 3 3.17 6.67 6.67 0 0 1 .23.72.35.35 0 0 1-.3.47zm-35.18-3.12a8.31 8.31 0 0 0-5-3.93 12.74 12.74 0 0 0-5-.46 11 11 0 0 0-4.24 1.2 7.92 7.92 0 0 0-3.7 4 9.9 9.9 0 0 0-.58 5.88 8.25 8.25 0 0 0 4.49 6 11.72 11.72 0 0 0 5.43 1.13 11.87 11.87 0 0 0 4.43-.84 8.19 8.19 0 0 0 4-3.39 10 10 0 0 0 .14-9.63zm-2.84 7.56A5.36 5.36 0 0 1 76 85.58a8 8 0 0 1-5.11-.19 5.23 5.23 0 0 1-3.19-3.27 7.46 7.46 0 0 1-.09-5 5.55 5.55 0 0 1 4.44-3.84c.55-.11 1.11-.12 1.67-.18a7.66 7.66 0 0 1 2.76.5 5.35 5.35 0 0 1 3.19 3.14 7.38 7.38 0 0 1 .01 5.61zm-19.16-6.53A5.16 5.16 0 0 0 57.09 71a10.4 10.4 0 0 0-5.71-.51 7.16 7.16 0 0 0-4.46 2.68 3.33 3.33 0 0 1-.33.33v-8.51c0-.37-.06-.45-.45-.46h-2.33a2.26 2.26 0 0 0-.39.07c-.12.51-.12 22.88 0 23.46h2.23c.94 0 .94 0 .94-.92V77.8a4.36 4.36 0 0 1 2.57-4 7.43 7.43 0 0 1 5.84-.27A3.11 3.11 0 0 1 57.16 76a5.67 5.67 0 0 1 .1 1.24V87.6c0 .34.12.45.48.45h2.28c.49 0 .49-.05.5-.56a1.47 1.47 0 0 0 0-.21V76.69c.01-.3.02-.59 0-.87zm98.3 1.95a8.24 8.24 0 0 0-4.45-6.25 11.21 11.21 0 0 0-4.91-1.19 12.57 12.57 0 0 0-4.13.52 8.35 8.35 0 0 0-5.07 3.9 9.59 9.59 0 0 0-1.2 4.83v8.09a.37.37 0 0 0 .41.4h2.66a.36.36 0 0 0 .39-.42v-7.92a9 9 0 0 1 .12-1.56 5.69 5.69 0 0 1 4.36-4.86 8.37 8.37 0 0 1 3.07-.16 5.61 5.61 0 0 1 4.93 3.47 7.21 7.21 0 0 1 .54 3v7.54a3.93 3.93 0 0 0 0 .49.35.35 0 0 0 .37.38h2.76c.23 0 .32-.14.32-.35v-7a23.44 23.44 0 0 0-.17-2.91zM51 45.26a8.11 8.11 0 0 0 .86.05h19.97a4 4 0 0 0 .7-.05.48.48 0 0 0 .34-.22c.5-1 1-2.12 1.52-3.28H51.12c-.37 0-.5.14-.51.5v2.55c.01.32.1.41.39.45zm49.35 25.6a13.64 13.64 0 0 0-3-.53 13.39 13.39 0 0 0-4.45.53 8.57 8.57 0 0 0-4.25 2.78 8.76 8.76 0 0 0-1.93 5.46v8.41c0 .48 0 .51.48.53h2.49c.38 0 .46-.12.49-.5v-8.09a9 9 0 0 1 .14-1.56 5.65 5.65 0 0 1 2.42-3.78 7.55 7.55 0 0 1 5.27-1 7.29 7.29 0 0 1 2.15.73c.39.18.58.07.59-.37V71.3a.46.46 0 0 0-.4-.44zM128.2 65c0-.4 0-.45-.43-.47-.69 0-1.38-.06-2.06 0s-.77 0-.77.81v22a2.43 2.43 0 0 0 0 .27c0 .43.09.52.5.53h2c.66 0 .75 0 .75-.78V65zm6.87 5.94h-2.49c-.28 0-.38.17-.37.43s0 .28 0 .43v15.6c0 .59.06.65.65.67s1.19 0 1.79 0c.82 0 .82 0 .82-.81V71.38c-.02-.38-.06-.44-.4-.44zM133.66 68a1.75 1.75 0 0 0 1.81-1.75 1.8 1.8 0 0 0-1.8-1.85 1.8 1.8 0 0 0 0 3.6z"/>
</svg>
