<svg xmlns="http://www.w3.org/2000/svg" width="200" height="128">
	<g fill-rule="evenodd">
		<path d="M29.564 62.525a.124.124 0 0 1-.121-.059 2.042 2.042 0 0 0-.553-.05 2.3 2.3 0 0 1-1.158-.316c-.315-.227-.63-.063-.919-.24a2.29 2.29 0 0 0-1.057-.164c-.327-.012-.743.012-.894.215s-.742.821-.956 1.073a7.378 7.378 0 0 1-1.422 1.3s.087.14.037.24a1.631 1.631 0 0 0-.012.493c0 .1.025.265-.063.366a.638.638 0 0 0-.139.328 1.081 1.081 0 0 0 0 .594c.1.3.189.644-.226.5s-.327-.517-.667-.53-.78 0-.906-.467-.365-1.263-.416-1.389a1.414 1.414 0 0 1 .1-1.212 3.749 3.749 0 0 0 .441-.986c.05-.113.289-.833.465-.935s.113-.417.214-.555.063-.367.126-.493.088-.492.176-.77a3.89 3.89 0 0 1 .554-.935 1.47 1.47 0 0 0 .277-.681.532.532 0 0 1 .226-.556 4.922 4.922 0 0 0 .856-.959c0-.026 0-.493-.026-.657s-.063-.316.1-.379a3.011 3.011 0 0 0 .39-.2 1.54 1.54 0 0 0-.5-.373 4.169 4.169 0 0 1-1.453-2.007c-.095-.682-.133-1.762.793-2.141a11.134 11.134 0 0 1 2.1-.606c.151-.019.68-.133.888.019a.868.868 0 0 0-.321 0c-.1.038.452.019.585.17a1.4 1.4 0 0 0-.415-.056c-.151.018.264.189.34.322s.358.227.32.436a1.826 1.826 0 0 0-.019.625 1.469 1.469 0 0 1 .152.53 2.912 2.912 0 0 0 .17.795 2.185 2.185 0 0 1 .189 1.08s.075.189.452-.246a1.286 1.286 0 0 1 .944-.512c.189 0 .473-.189.661-.113s.4-.019.624.038a4.806 4.806 0 0 0 1.378-.076 5.974 5.974 0 0 1 1.075-.171c.151 0-.188-.246.095-.436s-.3-.284.132-.833.019-.7-.057-.814a1.815 1.815 0 0 1-.094-.682c0-.209-.056-.739-.056-.739l.075-.095a.493.493 0 0 0-.121-.136c-.059-.036-.118-.251-.166-.394a5.325 5.325 0 0 0-.725-1.038.47.47 0 0 1-.155-.466c.024-.167.142-.31.119-.49s-.012-.417-.024-.5.024-.585.131-.633c0 0 .083-.036.119.083 0 0-.06-.417.071-.417 0 0 .155-.048.214.167s.119.334.131.394a.827.827 0 0 0 .06.154.328.328 0 0 1 .237-.011c.107.048.179.095.179.155s0-.048.131-.048.25-.036.286.1a1.972 1.972 0 0 1 .071.358.931.931 0 0 0 .083.334 1.067 1.067 0 0 1 .119.489 5.986 5.986 0 0 0 .119.836 7.078 7.078 0 0 0 .44.931 3.346 3.346 0 0 0 .9.06c.286-.06.785.047.726.31a14.812 14.812 0 0 0-.119 1.647 18.337 18.337 0 0 1-.214 2.208 5.132 5.132 0 0 1-.916 1.683 6.708 6.708 0 0 1-1.145.608c-.654.311-1.416.657-1.416.657a4.07 4.07 0 0 0 .5.608c.1.036.083-.083.2-.036.059.024.264.1.134.051l.716.189c.069 0 .112-.014.1-.054a.533.533 0 0 1 .2-.43c.072-.048-.107.215 0 .334s1.645-.337 1.616-.255.084.088.182.011a1.689 1.689 0 0 1 .795-.342 6.237 6.237 0 0 0 1.126 0c.177-.064.98-.561 1.248-.693s1.192-.119 1.582-.383 1.25-.881 1.613-1.106a25.745 25.745 0 0 1 3.627-1.965 9.47 9.47 0 0 0 2.185-.8c.236-.169.977-.578 1.126-.707s.893.2 1.28.751a6.528 6.528 0 0 1 .919-.385 2 2 0 0 0 .7-.4 11.255 11.255 0 0 1 1.234-.8s.154-.068.184-.177.152-.316.263-.273c0 0 .243-.311.341-.217 0 0 .213-.2.336-.093 0 0 .121.018.161.083 0 0 .154-.124.225-.03 0 0 .111-.125.3.022 0 0 .125.153-.1.436a.637.637 0 0 0-.244.281 1.856 1.856 0 0 1-.683.756 1.026 1.026 0 0 0-.646.98c.013.554-.222 1.2-.8 1.054a2.151 2.151 0 0 0-1.6.328 1.521 1.521 0 0 1-.093.363c-.05.07-.277.047-.589.244s-.5.269-.749.454-.3.309-.506.406a2.389 2.389 0 0 0-.578.507 5.5 5.5 0 0 1-1.246.8A31.684 31.684 0 0 0 42.6 57.4a16.3 16.3 0 0 1-3.215 2.08l-.19.095c-.1.088-1.467 1.346-1.936 1.675-.487.341-.681.39-.827 1.17a13.764 13.764 0 0 1-.757 2.005 31.18 31.18 0 0 0-.108 1.649c-.019.492-.647 5.388-.8 5.917a2.829 2.829 0 0 0-.114 1.345 2.181 2.181 0 0 1-.339 1.324 4.486 4.486 0 0 0-.549 1.969c.057.567.114.776-.056.851s-.718.057-.793.247-.359.189-.359.189-.085.844.063.993.672.77.035 1.234a5.917 5.917 0 0 0-1.467 1.2 1.858 1.858 0 0 1-.638.612c-.131.105-.366.254-.384.315a.372.372 0 0 1-.393.123.291.291 0 0 1-.323-.115s-.27.027-.323-.148c0 0-.227.017-.253-.158 0 0-.114-.254.227-.358a2.4 2.4 0 0 0 .9-.99 5.833 5.833 0 0 1 .463-1.2 4.84 4.84 0 0 0 .481-1.891.179.179 0 0 1-.079-.13 3.347 3.347 0 0 1 .043-.58 3.507 3.507 0 0 0 .063-1.136c-.051-.592.076-1.564 0-2.233a41.894 41.894 0 0 1 .269-5.918 2.844 2.844 0 0 0 .265-.984 3.269 3.269 0 0 1 .075-1.009 3.613 3.613 0 0 0 .063-1.061c-.025-.1-.567-.479-.642-.744a3.536 3.536 0 0 1 0 .379c-.012.1-.025-.026-.226-.24a2.19 2.19 0 0 1-.6-1c-.045-.025-.6-.354-.6-.354z"/>
		<path d="M32.017 56.871c-.058 1.025-2.454 5.694-2.454 5.694a2.871 2.871 0 0 0-.025 1.028 2.571 2.571 0 0 1-.406 1.374l.553.291c.747-.433.427-1.732.427-1.732a1.616 1.616 0 0 1-.036-.666l.006.006s2.718-5.388 2.587-5.812a2.909 2.909 0 0 1-.652-.183zm46.224-1.154h2.667v19.548h-2.635zm-7-4.674-.857 2.527a17.089 17.089 0 0 0-5.986-1.4h-.149c-4.27 0-5.111 1.552-5.111 4.459v.066c0 2.576.94 3.534 2.6 3.964a32.4 32.4 0 0 0 3.2.644l.313.049c4.189.661 6.844 1.074 6.844 6.755v.215c0 5.747-3.331 7.432-7.965 7.432a17.427 17.427 0 0 1-8.443-2l1.089-2.312a15.713 15.713 0 0 0 7.324 1.979c4.04 0 5.1-1.635 5.1-4.674V68.1c0-3.072-.611-3.584-4.915-4.261-4.683-.727-7.948-1.5-7.948-7v-.165c0-5.219 2.919-6.854 7.767-6.854h.214a18.175 18.175 0 0 1 6.926 1.222zm8.431-.091c-1.436 0-1.915-.375-1.915-2 0-1.58.528-1.954 1.915-1.954 1.437 0 1.883.374 1.883 1.954 0 1.6-.446 2-1.883 2zm24.364-3.958v19.265c0 4.081.115 6.647.312 8.868l-2.445.2-.394-2.254a12.165 12.165 0 0 1-7.041 2.517c-5.794 0-6.2-4.64-6.2-9.427 0-6.3-.033-10.81 6.5-10.81a16.643 16.643 0 0 1 6.549 1.2v-9.3zm-2.6 19.113.017-7.3a18.558 18.558 0 0 0-5.724-.985c-3.6 0-4.556.378-4.556 8.307v.361c0 4.793.822 6.6 4.046 6.6h.246a11.434 11.434 0 0 0 6.053-2.233v-.032c-.065-1.215-.082-2.725-.082-4.712zm9.377-.7v-.837c0-7.224 2.878-9.178 8.7-9.178 6.381 0 7.385 3.136 7.385 8.193a32.81 32.81 0 0 1-.1 2.823c-2.056.1-4.72.1-6.809.1a56.02 56.02 0 0 1-6.381-.361c0 4.6.707 7.092 5.493 7.092a17.331 17.331 0 0 0 6.792-1.362l.806 2.347a21.571 21.571 0 0 1-7.516 1.363c-3.174 0-5.378-.558-6.775-2.216-1.267-1.511-1.6-4.466-1.6-7.963zm2.748-1.21h10.508v-1.59c0-3.313-1.053-4.953-4.868-4.953-4.439 0-5.64 1.656-5.64 6.543zm20.207 11.066V47.29l2.723-.3V64a1.437 1.437 0 0 0 .82-.165c1.706-.857 6.151-6.145 7.545-8.172h3.244c-.82 1.78-6.742 8.172-8.136 8.732v.165c.607.3 1.345.511 3.281 2.966l6.118 7.743h-3.445l-4.166-5.486c-2.149-2.834-3.346-3.641-4.084-3.856a4.086 4.086 0 0 0-1.181-.1v9.44zm20.287-19.548h2.667v19.55h-2.635zm1.35-4.765c-1.437 0-1.916-.375-1.916-2 0-1.58.529-1.954 1.916-1.954 1.437 0 1.883.374 1.883 1.954 0 1.6-.446 2-1.883 2zm21.873 31.825v-9.356a11.69 11.69 0 0 1-6.626 2.2c-6 0-6.413-4.638-6.413-9.424 0-6.3-.033-10.8 6.5-10.8a15.608 15.608 0 0 1 6.626 1.678l.262-1.349h2.362L180 82.777zm-6.053-9.693h.248a11.208 11.208 0 0 0 5.86-1.954V59.3a14.41 14.41 0 0 0-5.761-1.478c-3.625 0-4.585.378-4.585 8.307v.361c0 4.793.993 6.6 4.238 6.6z" fill="#b1003e"/>
	</g>
</svg>
