<svg xmlns="http://www.w3.org/2000/svg" xmlns:xlink="http://www.w3.org/1999/xlink" width="200" height="128">
	<linearGradient id="g" x1="46.17" y1="57.76" x2="151.79" y2="57.76" xlink:href="#a"/>
	<linearGradient id="n" x1="46.17" y1="71.19" x2="151.79" y2="71.19" xlink:href="#a"/>
	<linearGradient id="a" x1="46.17" y1="57.76" x2="151.79" y2="57.76" gradientUnits="userSpaceOnUse">
		<stop offset="0" stop-color="#1aa0e0"/>
		<stop offset="1" stop-color="#176993"/>
	</linearGradient>
	<linearGradient id="c" x1="46.17" y1="57.77" x2="151.79" y2="57.77" xlink:href="#a"/>
	<linearGradient id="d" x1="46.17" y1="57.76" x2="151.79" y2="57.76" xlink:href="#a"/>
	<linearGradient id="e" x1="46.17" y1="57.76" x2="151.79" y2="57.76" xlink:href="#a"/>
	<linearGradient id="f" x1="46.17" y1="57.78" x2="151.79" y2="57.78" xlink:href="#a"/>
	<linearGradient id="m" x1="46.17" y1="71.18" x2="151.79" y2="71.18" xlink:href="#a"/>
	<linearGradient id="h" x1="46.17" y1="57.75" x2="151.79" y2="57.75" xlink:href="#a"/>
	<linearGradient id="i" x1="46.17" y1="71.11" x2="151.79" y2="71.11" xlink:href="#a"/>
	<linearGradient id="j" x1="46.17" y1="71.19" x2="151.79" y2="71.19" xlink:href="#a"/>
	<linearGradient id="k" x1="46.17" y1="71.14" x2="151.79" y2="71.14" xlink:href="#a"/>
	<linearGradient id="l" x1="46.17" y1="71.13" x2="151.79" y2="71.13" xlink:href="#a"/>
	<radialGradient id="b" cx="47.69" cy="68.92" r="3.51" gradientUnits="userSpaceOnUse">
		<stop offset="0" stop-color="#eb8422"/>
		<stop offset=".45" stop-color="#eb8422" stop-opacity=".96"/>
		<stop offset="1" stop-color="#eb8422" stop-opacity="0"/>
	</radialGradient>
	<rect x="20" y="23.93" width="160" height="80.14" rx="18.54"/>
	<circle cx="47.69" cy="68.92" r="3.51" fill="url(#b)"/>
	<path d="M121.14 61.77v-5.66a2.81 2.81 0 0 0-.13-1 3.72 3.72 0 0 0-1.49-2 3.47 3.47 0 0 0-2-.73h-8c-1 0-1 0-1 1 0 .72.09.82.81.82h7.69a2.81 2.81 0 0 1 1.25.27 1.92 1.92 0 0 1 1 1.51c.09.55 0 .67-.56.68-2.81 0-5.61 0-8.42.09a2.62 2.62 0 0 0-2.19 1.36 3.29 3.29 0 0 0 .74 4.18 3.45 3.45 0 0 0 2.19.78h9.53c.51 0 .63-.12.62-.64-.04-.19-.04-.43-.04-.66zM119.25 59v1.73c0 .58 0 .49-.45.49H111a1.41 1.41 0 0 1-1.48-1.47 1 1 0 0 1 .63-1 3.32 3.32 0 0 1 1.07-.24h7.65c.36-.02.4.06.38.49z" fill="url(#a)"/>
	<path d="M73 52.41h-6.9a2.55 2.55 0 0 0-1.14.2 4 4 0 0 0-2.51 3.1 25.94 25.94 0 0 0-.08 4 3.2 3.2 0 0 0 .92 2 4 4 0 0 0 3.08 1.35h8.11c.4 0 .58-.16.59-.56s0-.53 0-.79c0-.43-.15-.57-.57-.57h-8.16a2 2 0 0 1-2.14-1.81c-.09-.4 0-.52.43-.52h7.57a4.29 4.29 0 0 0 1.8-.27 3 3 0 0 0 1.77-2.15 3.15 3.15 0 0 0-.61-2.83A2.84 2.84 0 0 0 73 52.41zm1 3.35A1.27 1.27 0 0 1 72.72 57h-8.06c-.43 0-.49-.06-.46-.47a2.38 2.38 0 0 1 1.12-2.07 2.57 2.57 0 0 1 1.09-.26h6a3.08 3.08 0 0 1 .84.14 1.3 1.3 0 0 1 .75 1.42z" fill="url(#c)"/>
	<path d="M57.24 52.72a3.07 3.07 0 0 0-1.41-.32h-9.27c-.47 0-.51 0-.51.52v9.46c0 .57.14.72.73.72h8.47a4.82 4.82 0 0 0 2.86-.84 3.83 3.83 0 0 0 1.61-2.64 22.18 22.18 0 0 0 .12-2.58 5.09 5.09 0 0 0-.35-2 4.24 4.24 0 0 0-2.25-2.32zm.52 6.78a2.05 2.05 0 0 1-2 1.69c-1.21.05-2.43 0-3.64 0h-3.57c-.44 0-.44 0-.43-.47v-6.17a.45.45 0 0 1 .28-.32 2 2 0 0 1 .6 0h6.33a2.24 2.24 0 0 1 1.88.71 2.73 2.73 0 0 1 .51.93 7.68 7.68 0 0 1 .04 3.63z" fill="url(#d)"/>
	<path d="M102.5 52.7a3.31 3.31 0 0 0-1.47-.3h-9c-.53 0-.53 0-.53.52v9.28c0 .92 0 .92.91.91h8.1a4.82 4.82 0 0 0 2.88-.84 3.71 3.71 0 0 0 1.6-2.47 24.51 24.51 0 0 0 .14-3 4.45 4.45 0 0 0-2.62-4.14zm.45 7.15A2.11 2.11 0 0 1 101 61.2h-7.34c-.3 0-.42-.09-.41-.4v-6c0-.65 0-.65.63-.64h6.71a2.32 2.32 0 0 1 2 .82 3.7 3.7 0 0 1 .64 1.92 7 7 0 0 1-.23 2.95z" fill="url(#e)"/>
	<path d="M151.5 63.12c.62.05 1.24 0 1.86 0 .1 0 .28-.09.28-.13s.14-.42-.13-.56a4.79 4.79 0 0 1-.71-.46l-2.94-2.4c-.74-.61-1.49-1.21-2.24-1.8-.18-.15-.19-.26 0-.4L148 57l4-3.71c.21-.19.44-.36.64-.56a.4.4 0 0 0 .07-.29s-.16-.07-.25-.07h-1.64a1.07 1.07 0 0 0-.95.37c-.58.65-1.25 1.21-1.89 1.81l-4.33 4-1.82 1.71a.85.85 0 0 1-.24.09 1.11 1.11 0 0 1-.05-.25v-7.32c0-.32-.09-.4-.39-.38s-.78 0-1.18 0-.52 0-.52.54v9.56c0 .48.18.64.66.62a8 8 0 0 0 .85 0 1.45 1.45 0 0 0 .71-.29q2-1.81 4-3.68a.35.35 0 0 1 .53 0c1.51 1.23 3 2.47 4.54 3.69a1.32 1.32 0 0 0 .76.28z" fill="url(#f)"/>
	<path d="M136 61.21h-8.17a1.83 1.83 0 0 1-1.56-.69 3.05 3.05 0 0 1-.58-1.3 6.7 6.7 0 0 1 .15-3.47 2 2 0 0 1 1.48-1.4 4.31 4.31 0 0 1 .94-.11h7.85c.49 0 .64-.15.62-.65v-.73c0-.25-.1-.46-.46-.45h-8.64a3.32 3.32 0 0 0-2 .66 4.26 4.26 0 0 0-2 3.58 11.39 11.39 0 0 0 .16 3.24 4.23 4.23 0 0 0 4.28 3.24h8.13a.46.46 0 0 0 .52-.5v-.66c.05-.63-.08-.76-.72-.76z" fill="url(#g)"/>
	<path d="M89.2 52.78c0-.26-.09-.38-.4-.38H82a3 3 0 0 0-1.94.68 4.09 4.09 0 0 0-1.7 3.34c-.07 2 0 4.09 0 6.14a.49.49 0 0 0 .52.55h.73c.63 0 .71-.1.71-.74v-6.08a2.13 2.13 0 0 1 .51-1.35 2.06 2.06 0 0 1 1.72-.71h6c.52 0 .65-.13.64-.66z" fill="url(#h)"/>
	<path d="M153.65 72h-1v-5h-1a.87.87 0 0 0-.76.38c-.16.22-.28.46-.43.69-.5.79-1 1.58-1.49 2.37-.39.64-.8 1.27-1.16 1.92s0 1 .6 1h2.7v1.82h1.59v-1.85h1zm-2.57 0h-1.73s1.7-2.63 1.76-2.69z" fill="url(#i)"/>
	<path d="M117.05 67.2c-.35 0-.49.15-.48.55v5.41c0 .06 0 .13-.06.19s-.12-.07-.15-.12c-.58-.87-1.14-1.74-1.72-2.6-.71-1-1.43-2.08-2.13-3.13a.81.81 0 0 0-.9-.27c-.31.1-.28.36-.28.6v6.7c0 .29 0 .59.4.64s.54-.14.54-.55v-5.35a2.05 2.05 0 0 1 .07-.34l.26.21.09.13c.36.57.72 1.16 1.1 1.72.49.73 1 1.46 1.5 2.18s.87 1.19 1.27 1.8a.47.47 0 0 0 .63.17.75.75 0 0 0 .32-.55v-6.83c.02-.4-.13-.56-.46-.56z" fill="url(#j)"/>
	<path d="M98.83 72.59v-1.14a.46.46 0 0 0-.52-.5H96.6c-.29 0-.51.12-.52.44s.23.43.51.44.65 0 1 0 .31.09.31.3v1.55a.44.44 0 0 1-.38.48 8.48 8.48 0 0 1-1.31.15 2.41 2.41 0 0 1-2.54-2.06 4.25 4.25 0 0 1 .2-2.6A3 3 0 0 1 96.18 68a5 5 0 0 1 2 .38c.31.11.44 0 .46-.32a.69.69 0 0 0-.61-.76 5 5 0 0 0-3.37.22 3.89 3.89 0 0 0-2.09 3 4.18 4.18 0 0 0 .49 2.92 3.12 3.12 0 0 0 2.73 1.75 5.33 5.33 0 0 0 2.21-.25c.58-.23.9-.5.88-1s-.05-.94-.05-1.35z" fill="url(#k)"/>
	<path d="M65.92 71c-.52-.31-1-.61-1.55-1a1.19 1.19 0 0 1-.12-1.65 2.79 2.79 0 0 1 2.2-.26c.44.15.79.06.86-.17a.58.58 0 0 0-.48-.69 3.63 3.63 0 0 0-2.93.31 1.87 1.87 0 0 0-.28 3c.54.47 1.21.79 1.8 1.21a4.94 4.94 0 0 1 1.08.75c.37.47-.07 1.43-.63 1.6a2.83 2.83 0 0 1-2.34-.22.43.43 0 0 0-.62.15c-.16.27 0 .46.29.73a6.09 6.09 0 0 0 1.1.33 2.42 2.42 0 0 0 .53 0 2.6 2.6 0 0 0 2.33-1 2 2 0 0 0 .39-1.54c-.26-.9-.9-1.14-1.63-1.55z" fill="url(#l)"/>
	<path d="M134.9 74.19h-2.06c-.27 0-.37-.11-.37-.38v-6.14a.41.41 0 0 0-.43-.45c-.44 0-.63.11-.63.56v6.77c0 .39.17.63.46.63H135c.1 0 .25-.07.28-.14a1 1 0 0 0 .09-.61c-.01-.14-.29-.23-.47-.24z" fill="url(#m)"/>
	<path d="M80.41 70.92v-3.16c0-.42-.15-.57-.51-.56s-.48.15-.47.62v6.2a4.85 4.85 0 0 0 0 .66c0 .23.07.49.42.49s.55-.18.55-.68v-3.35z" fill="url(#n)"/>
	<circle fill="#45b1ed" cx="52.57" cy="68.92" r="1.68"/>
	<circle fill="#45b1ed" cx="52.57" cy="73.64" r="1.68"/>
	<circle fill="#45b1ed" cx="47.69" cy="73.64" r="1.68"/>
	<circle cx="47.69" cy="68.92" r="1.68" style="isolation:isolate" fill="#fffcf6"/>
</svg>
