<svg xmlns="http://www.w3.org/2000/svg" width="200" height="128">
    <g fill="#f05322">
        <path d="M54.512 59.73a3.011 3.011 0 0 0-1.1-.829 3.208 3.208 0 0 0-1.4-.334 3.412 3.412 0 0 0-.842.1 2.581 2.581 0 0 0-.765.328 1.764 1.764 0 0 0-.565.572 1.625 1.625 0 0 0-.219.848 1.513 1.513 0 0 0 .193.784 1.716 1.716 0 0 0 .527.552 3.175 3.175 0 0 0 .809.4c.315.115.643.231 1.048.347s.88.3 1.349.475a5.493 5.493 0 0 1 1.285.707 3.507 3.507 0 0 1 .951 1.105 3.376 3.376 0 0 1 .373 1.664 4.277 4.277 0 0 1-.4 1.9A3.9 3.9 0 0 1 54.7 69.7a4.611 4.611 0 0 1-1.561.8 6.779 6.779 0 0 1-1.889.263 7.018 7.018 0 0 1-2.57-.488 4.932 4.932 0 0 1-2.063-1.44l1.716-1.6a3.528 3.528 0 0 0 1.33 1.086 3.688 3.688 0 0 0 1.632.4 3.615 3.615 0 0 0 .835-.1 2.3 2.3 0 0 0 .8-.354 2.046 2.046 0 0 0 .572-.642 1.759 1.759 0 0 0 .218-.925 1.5 1.5 0 0 0-.25-.887 2.216 2.216 0 0 0-.643-.611 4.716 4.716 0 0 0-.989-.449l-1.2-.4a11.131 11.131 0 0 1-1.221-.456 4.066 4.066 0 0 1-1.137-.688 3.37 3.37 0 0 1-.791-1.079 3.653 3.653 0 0 1-.308-1.594 3.463 3.463 0 0 1 .456-1.773 3.767 3.767 0 0 1 1.125-1.215 5.159 5.159 0 0 1 1.587-.726 7.1 7.1 0 0 1 1.786-.257 6.456 6.456 0 0 1 2.108.341 5.034 5.034 0 0 1 1.838 1.086l-1.569 1.738M58.02 58.149a1.323 1.323 0 0 1 .412-.963 1.411 1.411 0 0 1 1.041-.412 1.523 1.523 0 0 1 1.06.392 1.34 1.34 0 0 1 0 1.967 1.544 1.544 0 0 1-1.06.392 1.434 1.434 0 0 1-1.041-.412 1.343 1.343 0 0 1-.412-.964zm.328 3.11h2.288V70.4h-2.288zM72.568 61.259v8.354a7.592 7.592 0 0 1-.308 2.242 4.383 4.383 0 0 1-.945 1.7 4.146 4.146 0 0 1-1.615 1.076 6.256 6.256 0 0 1-2.307.386 7.6 7.6 0 0 1-1.173-.117 8.116 8.116 0 0 1-1.22-.294 7.668 7.668 0 0 1-1.157-.476 5.8 5.8 0 0 1-.989-.643l1.285-1.773a4.778 4.778 0 0 0 1.5.964 4.669 4.669 0 0 0 1.7.334 3.5 3.5 0 0 0 1.382-.244 2.271 2.271 0 0 0 .9-.643 2.7 2.7 0 0 0 .5-1 5.2 5.2 0 0 0 .141-1.285v-.656h-.038a3.212 3.212 0 0 1-1.285 1.035 4.085 4.085 0 0 1-1.729.353 4.428 4.428 0 0 1-1.87-.379 4.278 4.278 0 0 1-1.42-1.028 4.707 4.707 0 0 1-.867-1.523 5.31 5.31 0 0 1-.323-1.842 5.436 5.436 0 0 1 .322-1.869 4.547 4.547 0 0 1 .9-1.53 4.2 4.2 0 0 1 1.388-1 4.4 4.4 0 0 1 1.864-.386 4.118 4.118 0 0 1 1.812.405 3.035 3.035 0 0 1 1.336 1.24h.039v-1.4zm-4.89 1.6a2.577 2.577 0 0 0-1.111.232 2.411 2.411 0 0 0-.823.642 2.645 2.645 0 0 0-.514.926 3.461 3.461 0 0 0-.186 1.137 3.1 3.1 0 0 0 .186 1.067 2.991 2.991 0 0 0 .514.925 2.5 2.5 0 0 0 .823.642 2.335 2.335 0 0 0 1.092.245 2.579 2.579 0 0 0 1.137-.238 2.512 2.512 0 0 0 .861-.643 2.8 2.8 0 0 0 .54-.919 3.163 3.163 0 0 0 .193-1.1 3.251 3.251 0 0 0-.193-1.118 2.724 2.724 0 0 0-.54-.932 2.572 2.572 0 0 0-.848-.643 2.65 2.65 0 0 0-1.131-.231zM74.991 61.259h2.2v1.472a2.887 2.887 0 0 1 1.054-1.215 3.085 3.085 0 0 1 1.786-.526 3.5 3.5 0 0 1 1.536.314 3.032 3.032 0 0 1 1.054.836 3.368 3.368 0 0 1 .617 1.189 4.874 4.874 0 0 1 .192 1.375V70.4h-2.296v-5.08a7.624 7.624 0 0 0-.052-.841 2.212 2.212 0 0 0-.251-.791 1.639 1.639 0 0 0-.526-.584 1.518 1.518 0 0 0-.887-.232 1.989 1.989 0 0 0-.951.219 2.026 2.026 0 0 0-.643.565 2.545 2.545 0 0 0-.392.791 3.2 3.2 0 0 0-.135.912V70.4h-2.306v-9.141M91.652 69.253h-.058a2.488 2.488 0 0 1-1.1 1 3.7 3.7 0 0 1-1.735.392 4.9 4.9 0 0 1-1.156-.141 3.528 3.528 0 0 1-1.106-.476 2.751 2.751 0 0 1-.841-.88 2.489 2.489 0 0 1-.334-1.343 2.282 2.282 0 0 1 .584-1.645 3.721 3.721 0 0 1 1.5-.906 8.357 8.357 0 0 1 2.031-.43c.745-.071 1.471-.1 2.185-.1v-.231a1.429 1.429 0 0 0-.643-1.286 2.653 2.653 0 0 0-1.484-.4 3.247 3.247 0 0 0-1.388.3 3.743 3.743 0 0 0-1.112.745l-1.182-1.394a5.123 5.123 0 0 1 1.806-1.086A6.106 6.106 0 0 1 89.68 61a5.092 5.092 0 0 1 2.017.347 3.142 3.142 0 0 1 1.889 2.134 5.6 5.6 0 0 1 .18 1.375V70.4h-2.139v-1.147zm-.038-3.014H91.1a8.986 8.986 0 0 0-1.163.052 4.89 4.89 0 0 0-1.125.2 2.4 2.4 0 0 0-.861.463 1 1 0 0 0-.347.81.952.952 0 0 0 .148.539 1.03 1.03 0 0 0 .373.354 1.567 1.567 0 0 0 .514.193 2.882 2.882 0 0 0 .572.057 2.221 2.221 0 0 0 2.435-2.358v-.328zM96.157 55.99h2.294V70.4h-2.294zM112.934 59.73a2.907 2.907 0 0 0-1.047-.829 3.215 3.215 0 0 0-1.4-.334 3.412 3.412 0 0 0-.842.1 2.607 2.607 0 0 0-.765.328 1.828 1.828 0 0 0-.559.572 1.752 1.752 0 0 0-.032 1.632 1.716 1.716 0 0 0 .527.552 3.429 3.429 0 0 0 .81.4c.321.115.642.231 1.054.347s.88.3 1.343.475a5.4 5.4 0 0 1 1.285.707 3.552 3.552 0 0 1 .957 1.105 3.445 3.445 0 0 1 .373 1.664 4.2 4.2 0 0 1-.405 1.9 3.875 3.875 0 0 1-1.067 1.349 4.634 4.634 0 0 1-1.568.8 6.779 6.779 0 0 1-1.889.263 7.067 7.067 0 0 1-2.57-.488 5.009 5.009 0 0 1-2.063-1.44l1.671-1.6a3.442 3.442 0 0 0 1.324 1.086 3.573 3.573 0 0 0 2.493.3 2.307 2.307 0 0 0 .79-.354 1.957 1.957 0 0 0 .572-.642 1.769 1.769 0 0 0 .219-.925 1.546 1.546 0 0 0-.245-.887 2.364 2.364 0 0 0-.642-.611 4.794 4.794 0 0 0-1-.449l-1.2-.4a11.867 11.867 0 0 1-1.221-.456 4.268 4.268 0 0 1-1.1-.707 3.549 3.549 0 0 1-.791-1.079 3.655 3.655 0 0 1-.308-1.594 3.526 3.526 0 0 1 .43-1.773 3.8 3.8 0 0 1 1.112-1.2 5.093 5.093 0 0 1 1.581-.726 7.175 7.175 0 0 1 1.837-.257 6.367 6.367 0 0 1 2.057.341 5.125 5.125 0 0 1 1.844 1.086l-1.565 1.714M122.862 63.8a2.06 2.06 0 0 0-.8-.643 2.567 2.567 0 0 0-1.086-.257 2.368 2.368 0 0 0-1.111.257 2.456 2.456 0 0 0-.791.681 2.837 2.837 0 0 0-.469.945 3.687 3.687 0 0 0-.147 1.06 3.561 3.561 0 0 0 .16 1.06 3.016 3.016 0 0 0 .489.945 2.452 2.452 0 0 0 .809.642 2.354 2.354 0 0 0 1.138.257 3.014 3.014 0 0 0 1.066-.2 2.07 2.07 0 0 0 .861-.643l1.427 1.452a3.68 3.68 0 0 1-1.459.945 5.348 5.348 0 0 1-1.928.334 5.8 5.8 0 0 1-1.927-.321 4.533 4.533 0 0 1-2.654-2.481 5.129 5.129 0 0 1-.392-2.043 5.02 5.02 0 0 1 .392-2.005 4.715 4.715 0 0 1 1.06-1.529 4.662 4.662 0 0 1 1.555-.97 5.262 5.262 0 0 1 3.856.038 3.66 3.66 0 0 1 1.5 1.048l-1.562 1.375M126.184 58.149a1.283 1.283 0 0 1 .4-.963 1.412 1.412 0 0 1 1.041-.412 1.5 1.5 0 0 1 1.061.392 1.34 1.34 0 0 1 0 1.967 1.529 1.529 0 0 1-1.061.392 1.435 1.435 0 0 1-1.041-.412 1.335 1.335 0 0 1-.4-.964zm.321 3.11h2.295V70.4h-2.294zM140.159 65.957v.3a2.261 2.261 0 0 1 0 .308h-6.991a2.281 2.281 0 0 0 .257.906 2.44 2.44 0 0 0 .579.707 2.976 2.976 0 0 0 .822.463 2.7 2.7 0 0 0 .958.173 3.057 3.057 0 0 0 1.452-.315 2.8 2.8 0 0 0 1-.867l1.529 1.221a4.6 4.6 0 0 1-3.932 1.831 5.562 5.562 0 0 1-1.967-.334 4.5 4.5 0 0 1-1.555-.945 4.232 4.232 0 0 1-1.034-1.5 5.206 5.206 0 0 1-.377-2.005 5.336 5.336 0 0 1 .373-2.018 4.5 4.5 0 0 1 2.57-2.538 5.232 5.232 0 0 1 1.928-.353 4.958 4.958 0 0 1 1.767.314 3.853 3.853 0 0 1 1.336.939 4.377 4.377 0 0 1 .926 1.542 6.385 6.385 0 0 1 .334 2.172zm-2.294-1.035a2.827 2.827 0 0 0-.122-.842 1.926 1.926 0 0 0-1.066-1.188 2.361 2.361 0 0 0-.964-.18 2.569 2.569 0 0 0-1.748.642 2.273 2.273 0 0 0-.79 1.594zM142.158 61.259h2.172v1.472h.038a2.96 2.96 0 0 1 1.06-1.215 3.086 3.086 0 0 1 1.787-.526 3.5 3.5 0 0 1 1.535.314 3.076 3.076 0 0 1 1.054.836 3.352 3.352 0 0 1 .6 1.182 4.921 4.921 0 0 1 .196 1.378v5.7h-2.3v-5.08a6.4 6.4 0 0 0-.058-.841 2.221 2.221 0 0 0-.244-.791 1.651 1.651 0 0 0-.527-.584 1.543 1.543 0 0 0-.887-.232 1.989 1.989 0 0 0-.951.219 2.026 2.026 0 0 0-.643.565 2.545 2.545 0 0 0-.392.791 3.166 3.166 0 0 0-.134.912V70.4h-2.288v-9.141M159.051 63.8a2.064 2.064 0 0 0-.8-.643 2.574 2.574 0 0 0-1.086-.257 2.372 2.372 0 0 0-1.112.257 2.452 2.452 0 0 0-.79.681 2.8 2.8 0 0 0-.469.945 3.7 3.7 0 0 0-.155 1.06 3.6 3.6 0 0 0 .167 1.06 3.141 3.141 0 0 0 .482.945 2.574 2.574 0 0 0 .816.642 2.352 2.352 0 0 0 1.131.257 3.025 3.025 0 0 0 1.073-.2 2.007 2.007 0 0 0 .855-.643l1.433 1.452a3.68 3.68 0 0 1-1.459.945 5.346 5.346 0 0 1-1.927.334 5.8 5.8 0 0 1-1.928-.321 4.5 4.5 0 0 1-2.654-2.481 5.024 5.024 0 0 1-.392-2.043 4.932 4.932 0 0 1 .392-2.005 4.73 4.73 0 0 1 1.06-1.529 4.672 4.672 0 0 1 1.555-.97 5.262 5.262 0 0 1 3.856.038 3.653 3.653 0 0 1 1.5 1.048l-1.562 1.375M171 65.957v.3a2.261 2.261 0 0 1 0 .308h-6.991a2.281 2.281 0 0 0 .257.906 2.375 2.375 0 0 0 .585.707 2.842 2.842 0 0 0 .816.463 2.7 2.7 0 0 0 .958.173 3.057 3.057 0 0 0 1.452-.315 2.729 2.729 0 0 0 1-.867l1.529 1.221a4.6 4.6 0 0 1-3.932 1.831 5.562 5.562 0 0 1-1.967-.334 4.5 4.5 0 0 1-1.555-.945 4.3 4.3 0 0 1-1.034-1.5 5.2 5.2 0 0 1-.366-2.011 5.337 5.337 0 0 1 .366-2.018 4.5 4.5 0 0 1 2.57-2.538 5.273 5.273 0 0 1 1.928-.353 4.936 4.936 0 0 1 1.767.314 3.8 3.8 0 0 1 1.336.939 4.265 4.265 0 0 1 .926 1.542 6.385 6.385 0 0 1 .334 2.172zm-2.287-1.035a2.834 2.834 0 0 0-.129-.842 1.961 1.961 0 0 0-.385-.7 1.918 1.918 0 0 0-.681-.488 2.361 2.361 0 0 0-.964-.18 2.569 2.569 0 0 0-1.748.642 2.273 2.273 0 0 0-.79 1.594zM178.52 63.7a2.612 2.612 0 0 0-.841-.694 2.356 2.356 0 0 0-1.163-.295 2.291 2.291 0 0 0-1.016.225.8.8 0 0 0-.456.764.752.752 0 0 0 .508.752 9.165 9.165 0 0 0 1.478.45 8.809 8.809 0 0 1 1.041.308 3.986 3.986 0 0 1 .951.5 2.587 2.587 0 0 1 .7.784 2.316 2.316 0 0 1 .278 1.14 2.9 2.9 0 0 1-.315 1.42 2.556 2.556 0 0 1-.841.944 3.459 3.459 0 0 1-1.221.527 6.281 6.281 0 0 1-1.439.161 5.68 5.68 0 0 1-2.082-.392 4.332 4.332 0 0 1-1.677-1.112l1.51-1.413a3.056 3.056 0 0 0 .989.822 2.893 2.893 0 0 0 1.356.321 2.348 2.348 0 0 0 .508-.057 1.8 1.8 0 0 0 .475-.18.975.975 0 0 0 .353-.334.934.934 0 0 0 .135-.515.853.853 0 0 0-.527-.822 8.411 8.411 0 0 0-1.574-.5 7.242 7.242 0 0 1-1-.3 3.169 3.169 0 0 1-.868-.482 2.115 2.115 0 0 1-.642-.733 2.3 2.3 0 0 1-.232-1.086 2.575 2.575 0 0 1 .315-1.317 2.686 2.686 0 0 1 .829-.906 3.733 3.733 0 0 1 1.17-.527 5.151 5.151 0 0 1 1.336-.173 5.565 5.565 0 0 1 1.928.347A3.2 3.2 0 0 1 180 62.384l-1.484 1.285M39.373 55.688c-.1-.07-1.227-.668-2.75-1.355l-1.51 1.523c1.073.449 2.063.931 2.77 1.285a56.116 56.116 0 0 1-2.037 10.685c-.688 2.076-4.138 4.453-5.9 5.494a24.9 24.9 0 0 1-2.293-1.52l7.319-7.326a2.994 2.994 0 0 0-4.2-4.27l-.036.036-2.975 2.975a1 1 0 0 1-1.412-1.415l6.727-6.727 1.555-1.555a14.532 14.532 0 0 0-4.684-1.112c-3.374 0-9.182 3.149-9.427 3.283l-.52.283v.591a54.911 54.911 0 0 0 2.159 11.907 6.75 6.75 0 0 0 1.169 2.03l1.414-1.388a4.626 4.626 0 0 1-.694-1.286 56.29 56.29 0 0 1-2.037-10.679c1.883-.97 5.783-2.75 7.936-2.75a5.984 5.984 0 0 1 .906.083l-5.912 5.912a2.995 2.995 0 0 0 4.235 4.222l2.975-2.975a1 1 0 0 1 1.414 1.42l-8.874 8.886a26.56 26.56 0 0 0 4.78 3.393l.476.257.475-.257c5.963-3.251 7.2-6.516 7.313-6.869a55.092 55.092 0 0 0 2.184-11.907v-.591z"/>
    </g>
</svg>
