<svg xmlns="http://www.w3.org/2000/svg" viewBox="62.77 0.77 271.96 243.71">
	<defs>
		<linearGradient id="a" x1="269.471" x2="161.645" y1="215.556" y2="120.631" gradientTransform="matrix(1 0 0 -1 0 247)" gradientUnits="userSpaceOnUse">
			<stop offset="0" stop-color="#f0f"/>
			<stop offset=".404" stop-color="#a0f"/>
			<stop offset="1" stop-color="#1e0a78"/>
		</linearGradient>
		<linearGradient id="b" x1="136.502" x2="202.036" y1="217.404" y2="150.888" gradientTransform="matrix(1 0 0 -1 0 247)" gradientUnits="userSpaceOnUse">
			<stop offset=".035" stop-color="#f0f"/>
			<stop offset=".513" stop-color="#80c"/>
			<stop offset="1" stop-color="#311b92"/>
		</linearGradient>
	</defs>
	<path fill="#1b1a21" d="M73.677 226.087a26.233 26.233 0 0 1-4.764-1.197v-6.08a31.132 31.132 0 0 0 9.646 1.645c2.645 0 4.606-.513 5.909-1.54a5.383 5.383 0 0 0 1.934-4.487 5.99 5.99 0 0 0-.592-2.79 5.45 5.45 0 0 0-1.974-2.026 17.269 17.269 0 0 0-3.777-1.698l-2.579-.868q-9.455-3.217-9.461-11.975a12.597 12.597 0 0 1 1.71-6.711 10.98 10.98 0 0 1 5.106-4.303 21.01 21.01 0 0 1 8.382-1.487 33.733 33.733 0 0 1 4.475.29 23.15 23.15 0 0 1 3.895.815v6.054a25.685 25.685 0 0 0-7.764-1.106q-8.626 0-8.633 5.908a5.898 5.898 0 0 0 .54 2.659 5.096 5.096 0 0 0 1.79 1.908 14.86 14.86 0 0 0 3.487 1.592l2.579.869a16.64 16.64 0 0 1 7.461 4.592 11.346 11.346 0 0 1 2.54 7.659 12.72 12.72 0 0 1-1.75 6.817 11.29 11.29 0 0 1-5.106 4.368 19.499 19.499 0 0 1-8.08 1.513 30.41 30.41 0 0 1-4.974-.42zm24.686-35.938a3.345 3.345 0 0 1-.96-2.565 3.397 3.397 0 0 1 .96-2.58 4.839 4.839 0 0 1 5.699.013 3.394 3.394 0 0 1 .973 2.567 3.343 3.343 0 0 1-.96 2.565 4.943 4.943 0 0 1-5.712 0zm6.607 4.225h-7.04v31.582h7.04zm6.236 0h5.844l.526 3.382h.381a10.442 10.442 0 0 1 3.54-2.882 10.001 10.001 0 0 1 4.5-1 8.296 8.296 0 0 1 6.383 2.527c1.566 1.683 2.356 4.407 2.356 8.145v21.397h-7.001v-20.858a5.439 5.439 0 0 0-1.066-3.79 3.992 3.992 0 0 0-3.04-1.13 6.869 6.869 0 0 0-3.014.736 5.66 5.66 0 0 0-2.408 2.25v22.818h-7v-31.595zm37.953 39.267q4.026 0 5.935-1.856 1.914-1.854 1.908-6.25v-2.776h-.343a7.416 7.416 0 0 1-2.776 2.631 8.08 8.08 0 0 1-4.027.987 9.086 9.086 0 0 1-5.184-1.579 10.79 10.79 0 0 1-3.777-5.08 23.721 23.721 0 0 1-1.435-8.948q0-8.448 3.777-12.646 3.77-4.204 11.449-4.224a30.206 30.206 0 0 1 4.895.408 23.949 23.949 0 0 1 4.434 1.105v28.977c0 5.224-1.184 9.027-3.526 11.383q-3.533 3.533-10.738 3.526c-.25 0-.342 0-.592-.013zm5.96-13.778a4.789 4.789 0 0 0 1.895-1.632v-18.528a13.546 13.546 0 0 0-2.895-.316 6.594 6.594 0 0 0-5.605 2.461c-1.25 1.645-1.869 4.396-1.869 8.277a21.624 21.624 0 0 0 .724 6.33 5.786 5.786 0 0 0 2.013 3.145 5.711 5.711 0 0 0 3.264.868 5.401 5.401 0 0 0 2.473-.605zm15.147 6.106v-46.794h7.001v46.781h-7zm35.582-13.554h-16.527a13.406 13.406 0 0 0 .96 5.04 5.135 5.135 0 0 0 2.58 2.606 11.349 11.349 0 0 0 4.632.776 25.792 25.792 0 0 0 6.895-1.105v5.697a32.416 32.416 0 0 1-3.948.843 27.283 27.283 0 0 1-3.776.263 17.554 17.554 0 0 1-8.212-1.671 10.296 10.296 0 0 1-4.711-5.264 24.652 24.652 0 0 1-1.54-9.54c0-5.409 1.066-9.448 3.198-12.147q3.198-4.046 9.054-4.04 11.408 0 11.41 16.384v2.158zm-14.146-12.909a5.45 5.45 0 0 0-1.723 2.842 20.307 20.307 0 0 0-.671 5.593h9.935a21.928 21.928 0 0 0-.606-5.593 5.304 5.304 0 0 0-1.618-2.842 4.132 4.132 0 0 0-2.606-.816 4.42 4.42 0 0 0-2.71.816zm23.487 26.581a26.248 26.248 0 0 1-4.764-1.197v-6.08a31.135 31.135 0 0 0 9.646 1.645c2.646 0 4.606-.513 5.909-1.54a5.382 5.382 0 0 0 1.934-4.487 5.986 5.986 0 0 0-.592-2.79 5.44 5.44 0 0 0-1.974-2.026 17.27 17.27 0 0 0-3.777-1.698l-2.578-.868q-9.476-3.238-9.462-11.988a12.598 12.598 0 0 1 1.71-6.711 10.978 10.978 0 0 1 5.106-4.303 21 21 0 0 1 8.383-1.487 33.74 33.74 0 0 1 4.474.289 23.233 23.233 0 0 1 3.895.816v6.053a25.687 25.687 0 0 0-7.764-1.105q-8.626 0-8.633 5.909a5.902 5.902 0 0 0 .54 2.658 5.098 5.098 0 0 0 1.79 1.908 14.827 14.827 0 0 0 3.487 1.592l2.58.868a16.639 16.639 0 0 1 7.46 4.593 11.343 11.343 0 0 1 2.54 7.659 12.72 12.72 0 0 1-1.75 6.816 11.29 11.29 0 0 1-5.106 4.37 19.51 19.51 0 0 1-8.08 1.512 28.851 28.851 0 0 1-4.974-.408zm40.517-5.974v5.843a20.137 20.137 0 0 1-4.75.552c-3.303 0-5.803-.868-7.527-2.618q-2.586-2.625-2.58-8.317v-15.606h-4.829v-5.593h4.83l1.25-11.265h5.764v11.265h7.579v5.593h-7.58v14.764a9.57 9.57 0 0 0 .488 3.421 3.237 3.237 0 0 0 1.539 1.777 6.218 6.218 0 0 0 2.803.54 18.093 18.093 0 0 0 3.013-.356zm5.317 2.474q-3.277-3.948-3.277-12.29 0-16.423 12.66-16.41 6.08 0 9.369 4.026c2.184 2.685 3.29 6.79 3.29 12.331q0 16.304-12.646 16.304c-4.08 0-7.211-1.329-9.396-3.96zm12.383-2.33a6.245 6.245 0 0 0 1.816-3.302 26.225 26.225 0 0 0 .631-6.606 28.305 28.305 0 0 0-.631-6.777 6.168 6.168 0 0 0-1.83-3.382 5.194 5.194 0 0 0-6-.013 6.156 6.156 0 0 0-1.816 3.343 35.7 35.7 0 0 0 0 13.369 6.156 6.156 0 0 0 1.816 3.342 4.65 4.65 0 0 0 3.027.948 4.602 4.602 0 0 0 2.987-.921zm14.54-25.883h5.79l.553 4.342h.342a7.899 7.899 0 0 1 3.145-3.579 8.809 8.809 0 0 1 4.5-1.145 11.328 11.328 0 0 1 2.001.17v6.541a14.082 14.082 0 0 0-2.435-.17 8.684 8.684 0 0 0-4 .973 6.98 6.98 0 0 0-2.895 2.684v21.766h-7zm41.663 18.041h-16.528a13.419 13.419 0 0 0 .96 5.04 5.135 5.135 0 0 0 2.58 2.606 11.349 11.349 0 0 0 4.632.776 25.787 25.787 0 0 0 6.896-1.105v5.697a32.434 32.434 0 0 1-3.948.843 27.3 27.3 0 0 1-3.777.263 17.554 17.554 0 0 1-8.211-1.671 10.3 10.3 0 0 1-4.712-5.264 24.666 24.666 0 0 1-1.539-9.54c0-5.409 1.066-9.448 3.198-12.147q3.197-4.046 9.053-4.04 11.409 0 11.41 16.384v2.158zm-14.146-12.909a5.45 5.45 0 0 0-1.724 2.842 20.333 20.333 0 0 0-.67 5.593h9.934a21.928 21.928 0 0 0-.605-5.593 5.3 5.3 0 0 0-1.619-2.842 4.132 4.132 0 0 0-2.605-.816 4.422 4.422 0 0 0-2.711.816z"/>
	<path fill="url(#a)" d="M202.164 6.127c15.825 4.401 30.243 15.492 36.222 29.048 9.142 22.007 7.033 49.824-2.99 66.372-8.44 13.557-21.45 20.775-36.397 20.599a42.165 42.165 0 1 1 0-84.33 40.697 40.697 0 0 1 15.776 3.177s-4.55-2.695-16.238-4.505c-33.584-4.402-73.212 21.046-64.068 79.671A73.832 73.832 0 0 0 272.673 79.54c0-39.083-31.826-72.357-70.51-73.413Z"/>
	<path fill="url(#b)" d="M229.77 37.288c-5.628-11.795-17.232-21.126-31.475-24.823a45.993 45.993 0 0 0-10.198-1.409 63.787 63.787 0 0 0-16.177 2.113 63.928 63.928 0 0 0-28.66 18.133 73.409 73.409 0 0 0-14.77 25.528c0 .176-.176.352-.176.704a31.763 31.763 0 0 0-.88 3.345c-.175.352-.175.88-.35 1.233l-.528 2.112a.646.646 0 0 1-.176.528c-4.572 22.711 3.023 43.091 7.595 50.662 1.143 1.893 2.082 3.473 3.023 4.923-10.374-56.337 19.45-83.225 53.385-83.93 17.759-.351 35.518 6.867 44.134 21.303-.528-7.922-1.055-12.323-4.747-20.422Z"/>
</svg>
