<svg xmlns="http://www.w3.org/2000/svg" width="200" height="128">
    <linearGradient id="a" x1="53.39" y1="49.99" x2="22.94" y2="33.57" gradientTransform="matrix(1 0 0 -1 0 108)" gradientUnits="userSpaceOnUse">
        <stop offset="0" stop-color="#ff7bff"/>
        <stop offset=".35" stop-color="#a0f"/>
        <stop offset="1" stop-color="#80c"/>
    </linearGradient>
    <linearGradient id="b" x1="21.06" y1="53.56" x2="39.8" y2="37.54" gradientTransform="matrix(1 0 0 -1 0 108)" gradientUnits="userSpaceOnUse">
        <stop offset=".04" stop-color="#ff7bff"/>
        <stop offset=".58" stop-color="#80c"/>
        <stop offset="1" stop-color="#311b92"/>
    </linearGradient>
    <path d="M37.49 48.92a12.77 12.77 0 018.21 6.59c2.07 5 1.59 11.28-.68 15a9.34 9.34 0 01-8.24 4.67 9.56 9.56 0 110-19.11 9.37 9.37 0 013.57.72 11.39 11.39 0 00-3.68-1c-7.61-1-16.59 4.77-14.52 18.06a16.74 16.74 0 1015.34-24.93z" fill="url(#a)"/>
    <path d="M43.75 56a10.9 10.9 0 00-7.13-5.62 10.47 10.47 0 00-2.31-.38 14.39 14.39 0 00-3.67.48 14.42 14.42 0 00-6.49 4.11 16.56 16.56 0 00-3.35 5.78v.16a7.21 7.21 0 00-.2.76c0 .08 0 .2-.08.28l-.12.48a.15.15 0 010 .12A17.41 17.41 0 0022 73.69c.26.43.47.78.69 1.11-2.35-12.76 4.4-18.86 12.09-19 4-.08 8 1.56 10 4.83A11.18 11.18 0 0043.75 56z" fill="url(#b)"/>
    <path d="M66.44 63.76l-1.19-.4a7 7 0 01-1.61-.73 2.34 2.34 0 01-.82-.88 2.67 2.67 0 01-.25-1.23q0-2.73 4-2.73a11.93 11.93 0 013.59.51v-2.79a11.09 11.09 0 00-1.8-.38 15.76 15.76 0 00-2.09-.13 9.64 9.64 0 00-3.87.69 5.07 5.07 0 00-2.35 2 5.81 5.81 0 00-.79 3.1c0 2.69 1.46 4.54 4.36 5.53l1.2.4a8.29 8.29 0 011.74.78 2.46 2.46 0 01.91.94 2.75 2.75 0 01.27 1.28 2.49 2.49 0 01-.89 2.07 4.32 4.32 0 01-2.73.72 14.39 14.39 0 01-4.45-.76v2.8a11.23 11.23 0 002.2.55 13.39 13.39 0 002.29.2 8.93 8.93 0 003.73-.7 5.17 5.17 0 002.36-2 5.85 5.85 0 00.81-3.14 5.3 5.3 0 00-1.17-3.54 7.74 7.74 0 00-3.45-2.16zM74.58 55.7a1.87 1.87 0 00-1.32.42 1.83 1.83 0 000 2.38 2.28 2.28 0 002.64 0 1.8 1.8 0 000-2.37 1.8 1.8 0 00-1.32-.43zM73.06 60.45h3.25v14.58h-3.25zM86 60.22a4.63 4.63 0 00-2.08.46A4.81 4.81 0 0082.31 62h-.18l-.24-1.56h-2.7V75h3.23V64.5a2.58 2.58 0 011.11-1 3.27 3.27 0 011.39-.34 1.88 1.88 0 011.41.52 2.51 2.51 0 01.49 1.75V75h3.23v-9.86A5.4 5.4 0 0089 61.38a3.83 3.83 0 00-3-1.16zM99.26 60.23a6.74 6.74 0 00-5.29 2c-1.16 1.29-1.74 3.24-1.74 5.83a11 11 0 00.66 4.13 5 5 0 001.75 2.35 4.14 4.14 0 002.39.73 3.67 3.67 0 001.86-.46 3.39 3.39 0 001.28-1.21h.16v1.28a3.89 3.89 0 01-.88 2.88 3.77 3.77 0 01-2.74.86v2.61H97a6.74 6.74 0 005-1.63c1.08-1.08 1.62-2.84 1.62-5.25V60.93a10.12 10.12 0 00-2-.51 13.7 13.7 0 00-2.36-.19zm1.07 11.23a2.2 2.2 0 01-.87.75 2.46 2.46 0 01-1.14.28 2.63 2.63 0 01-1.51-.4 2.73 2.73 0 01-.93-1.45 10.19 10.19 0 01-.33-2.92 6.43 6.43 0 01.86-3.82A3.05 3.05 0 0199 62.76a6 6 0 011.33.15zM106.45 53.43h3.23v21.59h-3.23zM117.61 60.22a5 5 0 00-4.18 1.86 9 9 0 00-1.43 5.61 11.42 11.42 0 00.71 4.4 4.76 4.76 0 002.17 2.43 8.06 8.06 0 003.79.77 12.54 12.54 0 001.75-.12 14.62 14.62 0 001.82-.39v-2.63a11.91 11.91 0 01-3.18.51 5.09 5.09 0 01-2.14-.36 2.32 2.32 0 01-1.19-1.2 6.27 6.27 0 01-.45-2.33h7.64v-1q-.04-7.55-5.31-7.55zm-2.37 6.49a9 9 0 01.31-2.58 2.49 2.49 0 01.79-1.31 2.07 2.07 0 011.26-.38 1.89 1.89 0 011.2.38 2.4 2.4 0 01.74 1.31 9.66 9.66 0 01.28 2.58zM131.76 63.76l-1.19-.4a6.81 6.81 0 01-1.61-.74 2.3 2.3 0 01-.83-.88 2.77 2.77 0 01-.25-1.23q0-2.71 4-2.72a11.82 11.82 0 013.58.51v-2.8a11.15 11.15 0 00-1.8-.37 15.72 15.72 0 00-2.06-.14 9.61 9.61 0 00-3.87.69 5 5 0 00-2.36 2 5.77 5.77 0 00-.79 3.09c0 2.69 1.45 4.54 4.37 5.54l1.19.4a8.05 8.05 0 011.74.78 2.39 2.39 0 01.91.94 2.63 2.63 0 01.28 1.28 2.47 2.47 0 01-.9 2.07 4.29 4.29 0 01-2.72.71 14.27 14.27 0 01-4.45-.75v2.8a11.31 11.31 0 002.19.55 12.44 12.44 0 002.3.19 9 9 0 003.73-.7 5.2 5.2 0 002.36-2 5.9 5.9 0 00.8-3.15 5.2 5.2 0 00-1.17-3.53 7.62 7.62 0 00-3.45-2.14zM143.2 72.24a1.46 1.46 0 01-.71-.82 4.43 4.43 0 01-.23-1.58V63h3.5v-2.55h-3.5v-5.2h-2.66l-.57 5.2h-2.23V63h2.2v7.2a5.29 5.29 0 001.19 3.84 4.64 4.64 0 003.47 1.21 9.25 9.25 0 002.19-.26v-2.66a8.15 8.15 0 01-1.39.16 2.77 2.77 0 01-1.26-.25zM152.67 60.22q-5.83 0-5.84 7.58 0 3.84 1.51 5.67a5.34 5.34 0 004.34 1.83q5.82 0 5.83-7.53c0-2.56-.51-4.45-1.52-5.69a5.25 5.25 0 00-4.32-1.86zm2.22 10.65a2.83 2.83 0 01-.84 1.52 2.12 2.12 0 01-1.37.43 2.15 2.15 0 01-1.4-.44 2.77 2.77 0 01-.84-1.54 13 13 0 01-.29-3.1 12.87 12.87 0 01.29-3.07 2.77 2.77 0 01.84-1.54 2.11 2.11 0 011.39-.44 2.17 2.17 0 011.38.44 2.8 2.8 0 01.84 1.56 12.8 12.8 0 01.29 3.13 12.14 12.14 0 01-.29 3.05zM165.3 60.8a3.64 3.64 0 00-1.45 1.65h-.16l-.25-2h-2.68V75H164V65a3.19 3.19 0 011.33-1.24 4 4 0 011.85-.45 5.92 5.92 0 011.12.08v-3a4.7 4.7 0 00-.92-.08 4.1 4.1 0 00-2.08.49zM174.73 60.22a5 5 0 00-4.17 1.86 8.91 8.91 0 00-1.48 5.61 11.42 11.42 0 00.71 4.4 4.76 4.76 0 002.21 2.43 8.09 8.09 0 003.79.77 12.54 12.54 0 001.75-.12 14.62 14.62 0 001.82-.39v-2.63a11.91 11.91 0 01-3.18.51 5.09 5.09 0 01-2.18-.36 2.32 2.32 0 01-1.19-1.2 6.1 6.1 0 01-.44-2.33H180v-1q0-7.55-5.27-7.55zm-2.37 6.49a9 9 0 01.31-2.58 2.49 2.49 0 01.79-1.31 2.07 2.07 0 011.26-.38 1.89 1.89 0 011.2.38 2.47 2.47 0 01.75 1.31 10.56 10.56 0 01.28 2.58z"/>
</svg>
