<svg xmlns="http://www.w3.org/2000/svg" height="238.667" width="568" xml:space="preserve">
	<path style="fill:#2aa2d6;fill-opacity:1;fill-rule:evenodd;stroke:none" d="M1899.94 936.711h739.74V773.586h-739.74zm-117.6 284.519h576.62V1058.1h-739.75v447.65h163.13v-284.52" transform="matrix(.13333 0 0 -.13333 0 238.667)"/>
	<path style="fill:#2aa2d6;fill-opacity:1;fill-rule:evenodd;stroke:none" d="M2358.96 1625.25h-739.75v163.12h739.75zm117.6-284.52h-576.62v163.13h739.74v-447.65h-163.12v284.52" transform="matrix(.13333 0 0 -.13333 0 238.667)"/>
	<path style="fill:#212121;fill-opacity:1;fill-rule:nonzero;stroke:none" d="M157.668 5.418c-27.691 0-54.863 4.758-81.516 14.285C49.504 29.22 25.273 43.843 3.47 63.57l47.242 56.594c16.617-13.5 33.664-24.227 51.141-32.191 17.484-7.961 36.605-11.942 57.375-11.942 16.613 0 29.507 3.028 38.679 9.09 9.172 6.05 13.758 14.445 13.758 25.176v1.039c0 5.191-.949 9.777-2.859 13.758-1.899 3.98-5.535 7.703-10.899 11.164-5.457 3.461-12.894 6.922-22.41 10.387-9.523 3.457-21.984 7.093-37.211 10.902-18.433 4.504-35.047 9.516-50.012 15.055-14.886 5.535-27.613 12.375-37.992 20.507-10.386 8.133-18.52 18.258-24.226 30.371-5.72 12.118-8.57 27.172-8.57 45.172v1.039c0 16.614 3.117 31.582 9.261 44.914 6.23 13.325 14.883 24.829 26.043 34.524 11.16 9.691 24.578 17.133 40.07 22.328 15.481 5.188 32.618 7.789 51.305 7.789 26.656 0 51.149-3.988 73.473-11.945 22.324-7.961 42.836-19.383 61.527-34.27l-41.543-60.222c-16.262 11.074-32.187 19.812-47.766 26.222-15.57 6.399-31.148 9.602-46.726 9.602-15.574 0-27.258-3.028-35.047-9.09-7.785-6.059-11.68-13.582-11.68-22.582v-1.039c0-5.883 1.13-10.988 3.371-15.317 2.25-4.324 6.325-8.218 12.204-11.683 5.972-3.457 14.019-6.75 24.23-9.867 10.297-3.114 23.191-6.742 38.77-10.903 18.433-4.843 34.871-10.293 49.234-16.351 14.367-6.055 26.566-13.328 36.434-21.809 9.863-8.476 17.39-18.426 22.414-29.851 5.011-11.422 7.527-25.094 7.527-41.02v-1.035c0-18-3.293-34.008-9.781-48.027-6.571-14.02-15.664-25.786-27.344-35.305-11.684-9.516-25.699-16.79-41.883-21.805-16.183-5.015-34.183-7.531-53.91-7.531Zm392.105 368.633h79.957V215.18l147.45 158.871h96.574L725.781 219.852 880.504 10.613h-96.051L671.785 165.336l-42.055-43.613V10.613h-79.957zm777.347-211.317-48.28 117.864-48.29-117.864zm-84.11 213.911h73.73L1472.5 10.613h-83.59l-33.23 81.512h-153.69l-33.22-81.512h-81.52zm475.18-2.594h276.74v-72.168h-196.78V223.48h173.41v-72.164h-173.41V10.613h-79.96zm530.21 0h276.74v-72.168h-196.78V223.48h173.41v-72.164h-173.41V10.613h-79.96Zm707.78-295.942c15.93 0 30.63 2.938 44.14 8.825 13.49 5.886 25 14.015 34.52 24.402 9.52 10.387 16.96 22.41 22.33 36.086 5.37 13.668 8.04 28.297 8.04 43.871v1.035c0 15.578-2.67 30.289-8.04 44.133-5.37 13.848-12.98 25.961-22.85 36.348-9.86 10.382-21.54 18.605-35.04 24.664-13.5 6.05-28.22 9.082-44.14 9.082-16.26 0-31.06-2.946-44.39-8.825-13.32-5.89-24.75-14.019-34.27-24.402-9.51-10.387-16.95-22.414-22.32-36.086-5.37-13.672-8.04-28.293-8.04-43.871v-1.043c0-15.574 2.67-30.277 8.04-44.125 5.37-13.848 12.98-25.969 22.84-36.348 9.87-10.382 21.46-18.605 34.79-24.664 13.33-6.05 28.12-9.082 44.39-9.082zm-1.04-73.726c-28.03 0-53.82 4.93-77.36 14.797-23.53 9.863-43.87 23.191-61 39.972-17.14 16.793-30.46 36.52-39.98 59.192-9.52 22.679-14.28 46.992-14.28 72.949v1.035c0 25.965 4.85 50.277 14.54 72.949 9.69 22.672 23.1 42.578 40.24 59.711 17.13 17.133 37.55 30.629 61.26 40.496 23.71 9.868 49.58 14.797 77.62 14.797 28.04 0 53.83-4.929 77.37-14.797 23.53-9.867 43.87-23.191 61-39.976 17.13-16.789 30.46-36.52 39.98-59.195 9.51-22.668 14.28-46.985 14.28-72.942v-1.043c0-25.957-4.85-50.273-14.54-72.945-9.7-22.668-23.11-42.574-40.24-59.707-17.14-17.133-37.56-30.633-61.26-40.496-23.72-9.867-49.59-14.797-77.63-14.797Zm454.41 369.668h79.96V82.785h181.2V10.613h-261.16Zm652.74-291.266c16.27 0 31.16 2.594 44.65 7.785 13.51 5.188 25.02 12.633 34.54 22.321 9.51 9.695 16.96 21.121 22.32 34.269 5.36 13.153 8.05 27.863 8.05 44.133v1.035c0 15.926-2.69 30.637-8.05 44.133-5.36 13.5-12.81 25.094-22.32 34.789-9.52 9.691-21.03 17.219-34.54 22.586-13.49 5.363-28.38 8.047-44.65 8.047h-61.78V82.785Zm-141.74 291.266h141.74c28.39 0 54.44-4.59 78.15-13.762 23.7-9.172 44.13-21.891 61.26-38.16 17.13-16.266 30.37-35.391 39.72-57.371 9.35-21.977 14.02-45.774 14.02-71.387v-1.043c0-25.609-4.67-49.492-14.02-71.648-9.35-22.149-22.59-41.364-39.72-57.63-17.13-16.269-37.56-29.073-61.26-38.417-23.71-9.348-49.76-14.02-78.15-14.02h-141.74v363.438" transform="matrix(.13333 0 0 -.13333 0 238.667)"/>
</svg>
