<svg xmlns="http://www.w3.org/2000/svg" xmlns:xlink="http://www.w3.org/1999/xlink" viewBox="0 0 617 462">
	<defs>
		<linearGradient id="linear-gradient" x1="445.101" y1="387.484" x2="445.101" y2="58.383" gradientUnits="userSpaceOnUse">
			<stop offset=".08" stop-color="#5e6367" stop-opacity=".1"/>
			<stop offset=".822" stop-color="#5e6367"/>
		</linearGradient>
		<linearGradient id="linear-gradient-2" x1="536.259" y1="387.484" x2="536.259" y2="138.453" xlink:href="#linear-gradient"/>
		<linearGradient id="linear-gradient-3" x1="353.932" y1="387.484" x2="353.932" y2="95.416" xlink:href="#linear-gradient"/>
		<linearGradient id="linear-gradient-4" x1="262.767" y1="387.484" x2="262.767" y2="132.421" xlink:href="#linear-gradient"/>
		<linearGradient id="linear-gradient-5" x1="80.446" y1="387.484" x2="80.446" y2="75.224" xlink:href="#linear-gradient"/>
		<linearGradient id="linear-gradient-6" x1="171.604" y1="387.484" x2="171.604" y2="7.332" xlink:href="#linear-gradient"/>
		<style>
			.cls-2{fill:#5e6367}.cls-3{fill:#003e6b}
		</style>
	</defs>
	<g id="Layer_1" data-name="Layer 1">
		<path class="cls-2" d="M28.776 445.546h-3.875V415.18h-11.38v-3.536h26.636v3.536h-11.38Z"/>
		<path class="cls-2" d="M68.432 415.132h-20.68v11.576h18.5v3.485h-18.5v11.865h20.921v3.488H43.925v-33.902h24.507Z"/>
		<path class="cls-2" d="M87.505 446.127c-9.782 0-16.998-7.7-16.998-17.482 0-9.687 7.167-17.582 17.144-17.582a17.646 17.646 0 0 1 13.221 5.377l-2.616 2.81c-2.857-2.714-6.053-4.65-10.654-4.65-7.506 0-13.125 6.053-13.125 13.948 0 7.892 5.667 14.043 13.125 14.043 4.65 0 7.7-1.792 10.945-4.892l2.518 2.47c-3.535 3.585-7.41 5.958-13.56 5.958Z"/>
		<path class="cls-2" d="M108.176 430.29v15.256h-3.826v-33.902h3.826v15.064h19.566v-15.064h3.825v33.902h-3.825V430.29Z"/>
		<path class="cls-2" d="M162.698 411.644h3.729v33.902h-3.051l-21.891-27.799v27.799h-3.729v-33.902h3.584l21.358 27.17Z"/>
		<path class="cls-2" d="M188.356 446.127c-10.315 0-17.24-8.087-17.24-17.482s7.021-17.582 17.337-17.582c10.315 0 17.24 8.088 17.24 17.485 0 9.395-7.021 17.58-17.337 17.58Zm0-31.528c-7.75 0-13.27 6.2-13.27 13.95 0 7.747 5.619 14.042 13.367 14.042 7.75 0 13.27-6.199 13.27-13.946 0-7.75-5.619-14.046-13.367-14.046Z"/>
		<path class="cls-2" d="M208.444 411.644h3.827v30.366h19.08v3.536h-22.907Z"/>
		<path class="cls-2" d="M246.89 446.127c-10.315 0-17.24-8.087-17.24-17.482s7.021-17.582 17.338-17.582c10.315 0 17.24 8.088 17.24 17.485 0 9.395-7.022 17.58-17.338 17.58Zm0-31.528c-7.749 0-13.27 6.2-13.27 13.95 0 7.747 5.619 14.042 13.368 14.042 7.748 0 13.268-6.199 13.268-13.946 0-7.75-5.617-14.046-13.366-14.046Z"/>
		<path class="cls-2" d="M284.654 446.127c-10.654 0-17.24-7.75-17.24-17.482 0-9.347 6.828-17.582 16.997-17.582a17.858 17.858 0 0 1 12.64 4.506l-2.47 2.904a14.426 14.426 0 0 0-10.314-3.874c-7.507 0-12.883 6.344-12.883 13.95 0 8.135 5.182 14.139 13.416 14.139a15.962 15.962 0 0 0 9.782-3.39v-8.427h-10.315v-3.437h13.996v13.512a20.546 20.546 0 0 1-13.61 5.181Z"/>
		<path class="cls-2" d="M317.966 445.546h-3.876V432.13l-14.093-20.486h4.65l11.43 16.952 11.525-16.952h4.455l-14.091 20.438Z"/>
		<path class="cls-2" d="M346.282 446.127a26.284 26.284 0 0 1-8.641-1.413 20.945 20.945 0 0 1-7.238-4.239l5.227-6.259a17.258 17.258 0 0 0 10.992 4.067 5.58 5.58 0 0 0 2.881-.604 1.907 1.907 0 0 0 .993-1.717v-.094a1.83 1.83 0 0 0-.244-.944 2.455 2.455 0 0 0-.896-.797 9.281 9.281 0 0 0-1.741-.75q-1.09-.361-2.833-.748-2.713-.628-5.035-1.377a15.427 15.427 0 0 1-4.043-1.934 8.25 8.25 0 0 1-3.704-7.323v-.096a10.433 10.433 0 0 1 .896-4.35 9.642 9.642 0 0 1 2.615-3.43 12.272 12.272 0 0 1 4.138-2.247 17.418 17.418 0 0 1 5.473-.8 24.405 24.405 0 0 1 7.77 1.147 19.583 19.583 0 0 1 6.172 3.384l-4.697 6.654a19.09 19.09 0 0 0-4.767-2.493 14.391 14.391 0 0 0-4.722-.848 4.236 4.236 0 0 0-2.541.63 1.866 1.866 0 0 0-.848 1.546v.097a1.904 1.904 0 0 0 .267 1.013 2.425 2.425 0 0 0 .919.8 10.215 10.215 0 0 0 1.792.723q1.137.366 2.881.75a41.273 41.273 0 0 1 5.252 1.475 15.657 15.657 0 0 1 3.996 2.054 8.263 8.263 0 0 1 2.518 2.922 8.951 8.951 0 0 1 .871 4.085v.097a10.42 10.42 0 0 1-.993 4.639 9.94 9.94 0 0 1-2.784 3.455 12.594 12.594 0 0 1-4.308 2.176 19.706 19.706 0 0 1-5.618.75Z"/>
		<path class="cls-2" d="M379.641 446.224a18.808 18.808 0 0 1-7.262-1.381 17.877 17.877 0 0 1-5.763-3.752 17.358 17.358 0 0 1-3.8-5.567 17.05 17.05 0 0 1-1.379-6.827v-.096a17.254 17.254 0 0 1 5.23-12.467 18.205 18.205 0 0 1 5.808-3.777 19.79 19.79 0 0 1 14.526 0 17.912 17.912 0 0 1 5.762 3.752 17.354 17.354 0 0 1 3.8 5.567 17.06 17.06 0 0 1 1.379 6.828v.097a17.263 17.263 0 0 1-5.23 12.467 18.238 18.238 0 0 1-5.808 3.775 18.819 18.819 0 0 1-7.263 1.38Zm.074-8.474a8.473 8.473 0 0 0 3.543-.726 8.131 8.131 0 0 0 2.718-1.96 9.09 9.09 0 0 0 1.748-2.881 9.651 9.651 0 0 0 .632-3.486v-.096a9.672 9.672 0 0 0-.632-3.488 8.978 8.978 0 0 0-1.797-2.904 8.84 8.84 0 0 0-2.766-2.008 8.818 8.818 0 0 0-7.065-.025 8.464 8.464 0 0 0-4.467 4.84 10.01 10.01 0 0 0-.606 3.488v.097a9.66 9.66 0 0 0 .632 3.485 9.148 9.148 0 0 0 1.771 2.905 8.531 8.531 0 0 0 2.744 2.01 8.244 8.244 0 0 0 3.545.749Z"/>
		<path class="cls-2" d="M399.927 411.654h9.395v25.662h16.412v8.23h-25.807Z"/>
		<path class="cls-2" d="M442.098 446.176a21.657 21.657 0 0 1-6.535-.92 12.677 12.677 0 0 1-4.94-2.833 12.497 12.497 0 0 1-3.122-4.84 19.787 19.787 0 0 1-1.09-6.9v-19.03h9.587v18.837q0 3.677 1.681 5.445a5.937 5.937 0 0 0 4.515 1.767 6.075 6.075 0 0 0 4.517-1.694q1.682-1.695 1.682-5.277v-19.077h9.586v18.785a19.885 19.885 0 0 1-1.137 7.095 12.297 12.297 0 0 1-8.182 7.722 21.927 21.927 0 0 1-6.562.92Z"/>
		<path class="cls-2" d="M469.89 419.886h-10.167v-8.232h29.726v8.232h-10.166v25.66h-9.393Z"/>
		<path class="cls-2" d="M491.82 411.654h9.442v33.892h-9.441Z"/>
		<path class="cls-2" d="M521.596 446.224a18.81 18.81 0 0 1-7.263-1.381 17.873 17.873 0 0 1-5.763-3.752 17.358 17.358 0 0 1-3.8-5.567 17.046 17.046 0 0 1-1.379-6.827v-.096a17.255 17.255 0 0 1 5.23-12.467 18.205 18.205 0 0 1 5.808-3.777 19.791 19.791 0 0 1 14.526 0 17.912 17.912 0 0 1 5.762 3.752 17.357 17.357 0 0 1 3.8 5.567 17.06 17.06 0 0 1 1.38 6.828v.097a17.266 17.266 0 0 1-5.23 12.467 18.24 18.24 0 0 1-5.809 3.775 18.817 18.817 0 0 1-7.262 1.38Zm.073-8.474a8.472 8.472 0 0 0 3.543-.726 8.131 8.131 0 0 0 2.718-1.96 9.09 9.09 0 0 0 1.749-2.881 9.651 9.651 0 0 0 .631-3.486v-.096a9.672 9.672 0 0 0-.631-3.488 8.978 8.978 0 0 0-1.797-2.904 8.843 8.843 0 0 0-2.766-2.008 8.817 8.817 0 0 0-7.066-.025 8.462 8.462 0 0 0-4.466 4.84 10.011 10.011 0 0 0-.607 3.488v.097a9.661 9.661 0 0 0 .632 3.485 9.147 9.147 0 0 0 1.772 2.905 8.534 8.534 0 0 0 2.743 2.01 8.246 8.246 0 0 0 3.545.749Z"/>
		<path class="cls-2" d="M541.881 411.654h8.784l13.972 17.914v-17.914h9.248v33.892h-8.248l-14.508-18.593v18.593h-9.248Z"/>
		<path class="cls-2" d="M590.297 446.127a26.284 26.284 0 0 1-8.641-1.413 20.945 20.945 0 0 1-7.238-4.239l5.227-6.259a17.257 17.257 0 0 0 10.992 4.067 5.582 5.582 0 0 0 2.881-.604 1.907 1.907 0 0 0 .993-1.717v-.094a1.828 1.828 0 0 0-.244-.944 2.454 2.454 0 0 0-.896-.797 9.284 9.284 0 0 0-1.741-.75q-1.09-.361-2.833-.748-2.712-.628-5.034-1.377a15.428 15.428 0 0 1-4.044-1.934 8.25 8.25 0 0 1-3.704-7.323v-.096a10.433 10.433 0 0 1 .896-4.35 9.641 9.641 0 0 1 2.615-3.43 12.267 12.267 0 0 1 4.138-2.247 17.417 17.417 0 0 1 5.473-.8 24.407 24.407 0 0 1 7.77 1.147 19.58 19.58 0 0 1 6.172 3.384l-4.696 6.654a19.09 19.09 0 0 0-4.768-2.493 14.392 14.392 0 0 0-4.722-.848 4.236 4.236 0 0 0-2.54.63 1.866 1.866 0 0 0-.849 1.546v.097a1.905 1.905 0 0 0 .267 1.013 2.426 2.426 0 0 0 .919.8 10.23 10.23 0 0 0 1.792.723q1.137.366 2.881.75a41.286 41.286 0 0 1 5.253 1.475 15.655 15.655 0 0 1 3.995 2.054 8.26 8.26 0 0 1 2.518 2.922 8.951 8.951 0 0 1 .871 4.085v.097a10.422 10.422 0 0 1-.992 4.639 9.943 9.943 0 0 1-2.785 3.455 12.593 12.593 0 0 1-4.308 2.176 19.704 19.704 0 0 1-5.618.75Z"/>
		<path class="cls-3" d="M13.431 382.155V363.99c6.151 3.573 11.01 5.581 15.743 5.581 5 0 9.295-2.435 9.295-8.586v-.287c0-4.58-1.432-8.012-9.73-17.455C16.871 329.797 12 323.359 12 311.198v-.283c0-16.021 10.446-26.181 24.32-26.181 7.01 0 11.163 1.001 15.45 3.15v18.165c-5.436-3.143-8.722-4.577-13.301-4.577-4.871 0-9.014 3.145-9.014 8.586v.283c0 4.72 1.431 6.438 9.73 16.021 13.733 15.881 16.739 22.034 16.739 33.476v.29c0 15.734-11.022 26.182-24.755 26.182a40.016 40.016 0 0 1-17.738-4.155Z"/>
		<path class="cls-3" d="M101.086 285.45h17.455v41.916l14.168-41.916h19.738l-16.88 42.343 17.168 57.8h-19.457l-10.875-37.914-3.862 11.015v26.899h-17.455Z"/>
		<path class="cls-3" d="m208.25 346.108-18.594-60.658h18.03l9.438 37.48 9.578-37.48h17.608l-18.606 60.658v39.485H208.25Z"/>
		<path class="cls-3" d="M290.393 285.45h17.454v83.547h18.455v16.596h-35.909Z"/>
		<path class="cls-3" d="M390.367 285.45h17.452v100.143h-17.452Z"/>
		<path class="cls-3" d="M465.212 285.45h16.313l17.595 50.642V285.45h17.021v100.143h-15.447l-18.466-53.08v53.08h-17.016Z"/>
		<path class="cls-3" d="M564.396 285.45h38.338v16.596h-20.883v24.893h18.452v16.591h-18.452v25.467h21.306v16.596h-38.761Z"/>
		<path style="fill:url(#linear-gradient)" d="M438.339 63.851v323.633h13.524V58.383l-13.524 5.468z"/>
		<path style="fill:url(#linear-gradient-2)" d="M529.497 138.453v249.031h13.524V157.656l-13.524-19.203z"/>
		<path style="fill:url(#linear-gradient-3)" d="M347.171 100.907v286.577h13.522V95.416l-13.522 5.491z"/>
		<path style="fill:url(#linear-gradient-4)" d="M256.006 137.913v249.571h13.523V132.421l-13.523 5.492z"/>
		<path style="fill:url(#linear-gradient-5)" d="M73.685 85.297v302.187h13.522V75.224L73.685 85.297z"/>
		<path style="fill:url(#linear-gradient-6)" d="M164.843 17.403v370.081h13.522V7.332l-13.522 10.071z"/>
	</g>
</svg>
