<svg xmlns="http://www.w3.org/2000/svg" width="200" height="128">
    <path d="M71.185 75.636l2-4.642a13.318 13.318 0 0 0 7.865 2.45c2.095 0 3.416-.806 3.416-2.031-.034-3.413-12.54-.741-12.637-9.313-.032-4.351 3.836-7.7 9.315-7.7a14.338 14.338 0 0 1 8.832 2.643l-1.87 4.738a14.1 14.1 0 0 0-7.284-2.321c-1.708 0-2.837.806-2.837 1.838.033 3.352 12.635 1.514 12.764 9.7 0 4.448-3.771 7.575-9.186 7.575a17.645 17.645 0 0 1-10.378-2.933M147.865 69.318a5.77 5.77 0 1 1 0-5.673l5.511-3.062a12.088 12.088 0 1 0 0 11.8zM93.521 44.371h6.898v33.747h-6.898zM156.084 44.371v33.747h6.897V67.997l8.187 10.121H180l-10.411-12.023 9.637-11.217h-8.444l-7.801 9.315V44.371h-6.897zM120.919 69.383a6.361 6.361 0 0 1-5.383 2.868 5.77 5.77 0 1 1 0-11.539 6.366 6.366 0 0 1 5.383 2.966zm0-14.5v2.74c-1.129-1.9-3.933-3.223-6.866-3.223-6.059 0-10.83 5.35-10.83 12.055s4.771 12.119 10.83 12.119c2.933 0 5.737-1.322 6.866-3.223v2.739h6.9V54.878z"/>
    <g>
        <g fill="#e01e5a">
            <path d="M28.541 69.351a4.255 4.255 0 1 1-4.254-4.251h4.254zM30.669 69.351a4.255 4.255 0 1 1 8.509 0v10.636a4.255 4.255 0 1 1-8.509 0z"/>
        </g>
        <g fill="#36c5f0">
            <path d="M34.923 52.268a4.255 4.255 0 1 1 4.255-4.255v4.255zM34.923 54.427a4.255 4.255 0 1 1 0 8.509H24.255a4.255 4.255 0 1 1 0-8.509z"/>
        </g>
        <g fill="#2eb67d">
            <path d="M51.974 58.682a4.255 4.255 0 1 1 4.255 4.254h-4.255zM49.847 58.682a4.255 4.255 0 0 1-8.509 0V48.013a4.255 4.255 0 1 1 8.509 0z"/>
        </g>
        <g fill="#ecb22e">
            <path d="M45.592 75.732a4.255 4.255 0 1 1-4.254 4.255v-4.255zM45.592 73.605a4.255 4.255 0 0 1 0-8.509h10.669a4.255 4.255 0 1 1 0 8.509z"/>
        </g>
    </g>
</svg>
