<svg xmlns="http://www.w3.org/2000/svg" width="200" height="128">
	<path d="M51.88 83.45a3.23 3.23 0 0 1-.18-.28l-4.35-8c-.14-.24-.11-.37.11-.56a10.7 10.7 0 0 0 4.13-9.1 9.4 9.4 0 0 0-.76-3.51c-.13-.29-.07-.42.19-.58l7.72-5c.2-.13.27-.08.36.11a20.53 20.53 0 0 1 2 6 22 22 0 0 1 .27 4.37 19.8 19.8 0 0 1-1.8 7.64 20.59 20.59 0 0 1-7.39 8.72zM32.24 47.16a20.76 20.76 0 0 1 25.83 7.61l-1.1.6-7.43 4c-.16.09-.24 0-.35-.08a10.83 10.83 0 0 0-4.09-3.16 11.09 11.09 0 0 0-3.8-.92 10.55 10.55 0 0 0-4.09.58c-.23.07-.33 0-.44-.18-.7-1.3-1.41-2.6-2.11-3.91l-2.17-4zm-2.72 1.47.18.3c1.37 2.52 2.73 5 4.09 7.57.11.19.2.39.32.57s.09.25-.07.38a10.77 10.77 0 0 0-4.17 7.44 11.33 11.33 0 0 0 .36 4.22.35.35 0 0 1-.22.49c-1.41.72-2.82 1.46-4.22 2.19l-4 2.09-.2.1a20.73 20.73 0 0 1 8-25.35zm19.65 36.31a20.72 20.72 0 0 1-24.65-6l1.07-.72 6.84-4.54a.38.38 0 0 1 .59 0 10.66 10.66 0 0 0 6.17 3.11 10.37 10.37 0 0 0 5-.48c.25-.09.36 0 .48.19q1.66 3.1 3.35 6.19l1 1.91zM180 66.06v8.72c0 .4 0 .4-.4.4h-3c-.28 0-.35-.09-.35-.36V67.7c0-.44 0-.44-.45-.44h-6.53c-.42 0-.44 0-.44.43v7.07c0 .42 0 .42-.43.42h-2.88c-.46 0-.46 0-.46-.48V57.36c0-.45 0-.45.46-.45h2.88c.43 0 .43 0 .43.45v6.47c0 .1.07.27.27.27h6.88c.28 0 .26-.18.26-.36v-6.56c0-.3.07-.27.27-.27h3.28c.24 0 .25.13.25.31v8.84zm-39.64-2.62v5.47a6.1 6.1 0 0 1-4.68 6.14 10 10 0 0 1-6.34-.18 5.75 5.75 0 0 1-3.92-5.19 12.82 12.82 0 0 1-.06-1.39v-11c0-.41 0-.41.41-.41h3c.4 0 .4 0 .4.41v11.26a5.75 5.75 0 0 0 .24 1.54 2.71 2.71 0 0 0 2.16 2 5.9 5.9 0 0 0 2.44 0 2.73 2.73 0 0 0 2.3-2.21 8.75 8.75 0 0 0 .23-1.91V57.28c0-.43 0-.43.44-.43h3c.29 0 .37.1.37.38v6.16zM35.62 71.58c.52-.35 1-.69 1.53-1l4.65-3.09a1.79 1.79 0 0 0-.69-3.28 1.62 1.62 0 0 0-1.1.2l-5.69 3c-.29.16-.59.3-.89.45a7.34 7.34 0 0 1 3.09-8 7.54 7.54 0 1 1-.9 11.8zM108.46 66v-8.78c0-.26.06-.36.35-.36h9.81c.28 0 .38.08.37.37v2.37c0 .36 0 .36-.39.36h-5.9c-.4 0-.4 0-.4.39v3.39c0 .25.07.33.32.33h5.5c.29 0 .38.08.38.37v2.42c0 .27-.07.36-.35.36h-5.48c-.37 0-.37 0-.37.38v4c0 .38 0 .38.37.38h6c.27 0 .36.07.35.35v2.48c0 .27-.09.33-.34.33h-9.85c-.28 0-.34-.09-.34-.36-.02-2.88-.03-5.78-.03-8.78zm-34.98 4.89c.86.31 1.69.63 2.52.92a8.7 8.7 0 0 0 3.39.49 2.44 2.44 0 0 0 1.91-.88 1.71 1.71 0 0 0 0-2.09 3.61 3.61 0 0 0-1-.87c-.79-.46-1.61-.85-2.43-1.26a8.62 8.62 0 0 1-3-2.16 5 5 0 0 1-1.13-3A4.78 4.78 0 0 1 75 58.41a5.18 5.18 0 0 1 3-1.61 12.18 12.18 0 0 1 6.79.93l.44.19L84 60.84l-1.41-.53a8.3 8.3 0 0 0-3.27-.54 1.94 1.94 0 0 0-2 2 2 2 0 0 0 1.13 1.62c.75.43 1.52.82 2.29 1.2a15.08 15.08 0 0 1 2.63 1.54A4.75 4.75 0 0 1 85.36 70a4.93 4.93 0 0 1-.57 2.58 5.13 5.13 0 0 1-2.9 2.42 10.81 10.81 0 0 1-4.19.47 11.23 11.23 0 0 1-4-.92.42.42 0 0 1-.29-.45v-2.9a2.26 2.26 0 0 1 .07-.31zm77.23-3.26v-7.1c0-.47 0-.47-.49-.47h-4.16c-.25 0-.34-.06-.33-.31v-2.51c0-.24.05-.33.31-.33h13.16c.26 0 .32.1.32.33v2.51c0 .24-.07.32-.31.31h-4.31c-.29 0-.36.09-.36.37v14.33c0 .42 0 .42-.42.42h-3.08c-.27 0-.34-.08-.34-.34.01-2.4.01-4.84.01-7.21zm-48.1 4.44v3.09H91.72c-.38 0-.38 0-.38-.39V57.29c0-.38 0-.38.38-.38h3c.4 0 .4 0 .4.39v14.28c0 .49 0 .49.48.49h7z" fill="#1f5adf"/>
</svg>
