<svg xmlns="http://www.w3.org/2000/svg" viewBox="98.13 1.63 194.75 240.5">
	<defs>
		<style>
			.cls-3{fill:#434444}
		</style>
	</defs>
	<g id="Layer_2" data-name="Layer 2">
		<g id="Layer_1-2" data-name="Layer 1-2">
			<path fill="none" d="M70.565-44.747h250.87v334.493H70.565z"/>
			<circle cx="194.659" cy="97.128" r="90.772" fill="#fed984"/>
			<path d="M103.463 227.369h7.415a.7.7 0 0 1 .68.58c.252 1.278 1.356 2.547 3.635 2.547 1.937 0 3.563-1.002 3.563-2.378 0-.938-.688-1.373-2.875-1.876l-3.818-1.001c-8.568-2.323-8.818-7.19-8.818-9.632 0-4.314 4.88-8.754 11.948-8.754 5.31 0 11.734 2.39 12.059 9.138a.703.703 0 0 1-.661.742l-.03.001h-7.422a.694.694 0 0 1-.68-.58c-.246-1.487-1.451-2.23-3.08-2.23-1.565 0-2.877.748-2.877 2 0 1.126 1.001 1.742 2.502 2.128l5.067 1.374c7.317 2 7.941 6.631 7.941 8.632 0 6.443-6.678 9.506-12.57 9.506-6.25 0-12.215-3.292-12.67-9.433a.7.7 0 0 1 .633-.761q.029-.003.058-.003zm30.69 8.751v-43.71a.691.691 0 0 1 .692-.691h7.871a.691.691 0 0 1 .691.69v43.711a.688.688 0 0 1-.685.691h-7.883a.688.688 0 0 1-.685-.69zm15.88-38.272a5.548 5.548 0 0 1 5.755-5.38 5.444 5.444 0 0 1 5.63 5.38 5.52 5.52 0 0 1-5.63 5.38 5.632 5.632 0 0 1-5.755-5.38zm1.127 38.272v-27.825a.694.694 0 0 1 .697-.69h7.883a.694.694 0 0 1 .691.69v27.825a.691.691 0 0 1-.691.691h-7.875a.691.691 0 0 1-.705-.676zm64.047-15.005v15.005a.688.688 0 0 1-.685.691h-7.88a.688.688 0 0 1-.691-.685v-14.762c0-4.503-2.25-5.94-4.629-5.94-2.877 0-5.003 2-5.003 7.13v13.566a.691.691 0 0 1-.69.691h-7.875a.688.688 0 0 1-.691-.685v-14.573c0-4.503-2.25-6.13-4.565-6.13-2.503 0-5.066 1.252-5.066 6.13v14.567a.691.691 0 0 1-.691.691h-7.875a.691.691 0 0 1-.691-.69v-27.826a.694.694 0 0 1 .691-.69h7.875a.694.694 0 0 1 .69.69v3.74a.134.134 0 1 0 .265.04c1.132-3.588 4.96-5.226 7.616-5.226a9.789 9.789 0 0 1 9.14 5.343.13.13 0 0 0 .233 0c2.058-3.72 6.446-5.343 9.45-5.343 7.32.006 11.072 5.323 11.072 14.266zm6.324 10.693a5.487 5.487 0 0 1 5.63-5.44 5.507 5.507 0 1 1-5.63 5.44zm40.22-24.204h7.878a.694.694 0 0 1 .691.691v27.825a.691.691 0 0 1-.69.691h-7.878a.691.691 0 0 1-.691-.69v-2.597a.134.134 0 0 0-.241-.08 11.609 11.609 0 0 1-9.001 4.12c-8.191 0-13.938-6.194-13.938-15.323 0-9.196 5.755-15.389 14.074-15.389a11.625 11.625 0 0 1 8.888 3.943.134.134 0 0 0 .24-.084v-2.419a.694.694 0 0 1 .669-.688zm-1.001 14.637a6.742 6.742 0 0 0-6.657-6.826h-.1a6.792 6.792 0 0 0-.1 13.58h.179a6.79 6.79 0 0 0 6.678-6.754zm16.2-24.393a5.548 5.548 0 0 1 5.754-5.38 5.444 5.444 0 0 1 5.63 5.38 5.518 5.518 0 0 1-5.63 5.38 5.63 5.63 0 0 1-5.755-5.38zm1.129 38.272v-27.825a.691.691 0 0 1 .69-.69h7.872a.691.691 0 0 1 .691.69v27.825a.688.688 0 0 1-.685.691h-7.877a.688.688 0 0 1-.691-.685z" class="cls-3"/>
			<path fill="#fff" d="M153.561 139.274a32.773 32.773 0 0 1-26.205-13.025 32.387 32.387 0 0 1-6.42-15.97 32.857 32.857 0 0 1 17.712-33.121l.993-.506.177-1.1a47.177 47.177 0 0 1 46.6-39.579h9.829c19.396 0 31.803 4.135 41.495 13.824a47.105 47.105 0 0 1 13.22 25.79l.177 1.1.993.505a33.067 33.067 0 0 1 17.91 29.57c0 12.57-9.957 32.52-36.676 32.52Z"/>
			<path d="M162.449 93.206a2.916 2.916 0 0 0-4.532-3.67l-3.874 4.8a8.749 8.749 0 0 0 0 11.007l3.873 4.788a2.916 2.916 0 0 0 4.533-3.67l-3.87-4.788a2.924 2.924 0 0 1 0-3.668zm51.306 0a2.916 2.916 0 0 0-4.532-3.67l-3.873 4.8a8.749 8.749 0 0 0 0 11.007l3.873 4.788a2.916 2.916 0 0 0 4.532-3.67l-3.873-4.788a2.93 2.93 0 0 1 0-3.668zm-18.977 15.487a2.918 2.918 0 0 0-3.987 1.063 7.59 7.59 0 0 1-13.142 0 2.917 2.917 0 0 0-5.049 2.921 13.423 13.423 0 0 0 23.229 0 2.904 2.904 0 0 0-1.035-3.974z" class="cls-3"/>
			<path d="M246.537 81.9a2.787 2.787 0 0 1-1.742-2.364 40.473 40.473 0 0 0-11.734-25.073c-7.296-7.297-17.23-11.905-36.832-11.905h-9.828a40.575 40.575 0 0 0-40.476 37.309 2.186 2.186 0 0 1-1.388 1.899 26.246 26.246 0 0 0-17.062 27.778 25.787 25.787 0 0 0 5.108 12.703 26.185 26.185 0 0 0 20.964 10.436h79.816c23.441 0 30.082-17.535 30.082-25.918 0-4.097-1.31-18.629-16.908-24.866Zm-75.035 44.955h-17.529a20.99 20.99 0 0 1-13.048-4.37 20.424 20.424 0 0 1 8.31-36.004 2.962 2.962 0 0 0 2.392-2.904v-.394a34.776 34.776 0 1 1 69.553-.028v.443a2.933 2.933 0 0 0 2.372 2.877 20.427 20.427 0 0 1 8.333 36.005 21.003 21.003 0 0 1-13.057 4.375Z" class="cls-3"/>
		</g>
	</g>
</svg>
