<svg xmlns="http://www.w3.org/2000/svg" height="1333.333" width="1333.333" xml:space="preserve">
	<path style="fill:#56beee;fill-opacity:1;fill-rule:nonzero;stroke:none" d="M262.108 427.858c-3.775 1.837-8.372 2.758-13.791 2.758-6.872 0-12.219-1.429-16.041-4.283-3.824-2.855-5.734-6.799-5.734-11.831 0-6.677 4.741-11.613 14.226-14.807l21.775-6.822c16.453-5.131 24.679-14.808 24.679-29.035 0-9.581-3.556-17.13-10.67-22.645-7.113-5.517-16.864-8.276-29.251-8.276-9.195 0-17.325 1.598-24.388 4.791-7.066 3.194-12.535 7.742-16.404 13.646-.388.773-.581 1.257-.581 1.452 0 .774.484 1.499 1.452 2.178l7.113 4.935c.871.581 1.644.872 2.323.872.676 0 1.257-.341 1.742-1.017 3.967-5.131 7.911-8.76 11.831-10.888 3.919-2.13 9.218-3.193 15.896-3.193 7.548 0 13.451 1.307 17.711 3.919 4.256 2.613 6.387 6.678 6.387 12.194 0 3.485-1.089 6.41-3.266 8.783-2.178 2.37-6.122 4.573-11.831 6.605l-21.921 7.113c-7.839 2.613-13.718 6.436-17.638 11.469-3.92 5.03-5.879 10.644-5.879 16.839 0 6.097 1.597 11.491 4.79 16.186 3.194 4.694 7.669 8.323 13.428 10.888 5.757 2.563 12.412 3.847 19.961 3.847 7.451 0 14.201-1.307 20.251-3.919 6.047-2.614 11.008-6.196 14.88-10.743.483-.486.725-1.016.725-1.597 0-.58-.242-1.066-.725-1.451l-8.275-6.388c-.387-.29-.776-.436-1.162-.436-.29 0-.87.436-1.741 1.307-2.809 3.193-6.098 5.709-9.872 7.549" transform="matrix(1.33333 0 0 -1.33333 0 1333.333)"/>
	<path style="fill:#56beee;fill-opacity:1;fill-rule:nonzero;stroke:none" d="M301.23 336.692v72.439c0 1.452.628 2.178 1.887 2.178h11.323c1.161 0 1.742-.631 1.742-1.888v-7.984c0-.58.145-.921.436-1.016.29-.097.628.095 1.015.58 4.839 4.066 9.169 7.041 12.993 8.928 3.822 1.888 7.959 2.831 12.412 2.831 5.321 0 9.726-1.211 13.211-3.629 3.483-2.421 5.951-5.566 7.403-9.436.192-.29.386-.436.581-.436.385 0 .82.241 1.306.727 4.547 4.159 8.903 7.331 13.065 9.508 4.16 2.177 8.515 3.266 13.065 3.266 6.968 0 12.413-2.01 16.331-6.024 3.92-4.017 5.88-9.509 5.88-16.477v-53.276c0-1.742-.871-2.613-2.613-2.613h-10.742c-.776 0-1.307.168-1.598.507-.29.338-.435.945-.435 1.815v50.809c0 4.355-1.066 7.716-3.194 10.089-2.13 2.37-5.323 3.557-9.581 3.557-5.806 0-12.001-3.049-18.581-9.146-.678-.678-1.162-1.332-1.452-1.959-.29-.631-.435-1.379-.435-2.25v-50.809c0-1.742-.872-2.613-2.614-2.613h-10.596c-1.453 0-2.178.773-2.178 2.322v50.809c0 4.355-1.041 7.716-3.121 10.089-2.082 2.37-5.299 3.557-9.654 3.557-3.484 0-6.727-.849-9.726-2.541-3.001-1.694-6.582-4.477-10.742-8.347v-53.422c0-.871-.218-1.502-.654-1.886-.435-.389-1.138-.581-2.105-.581h-10.307c-1.549 0-2.322.773-2.322 2.322" transform="matrix(1.33333 0 0 -1.33333 0 1333.333)"/>
	<path style="fill:#56beee;fill-opacity:1;fill-rule:nonzero;stroke:none" d="m475.445 372.694-7.839-.58c-8.034-.487-14.397-2.106-19.09-4.864-4.695-2.758-7.041-6.557-7.041-11.396 0-3.773 1.355-6.75 4.066-8.928 2.708-2.176 6.336-3.265 10.886-3.265 5.227 0 10.162 1.789 14.808 5.371 4.16 3.386 6.242 6.772 6.242 10.161v11.323c0 1.547-.679 2.274-2.032 2.178zm-24.969-39.777c-7.454 0-13.333 1.911-17.639 5.735-4.306 3.822-6.46 8.928-6.46 15.315 0 7.839 3.413 14.081 10.235 18.727 6.823 4.645 16.524 7.259 29.106 7.839l9.437.726c1.547.193 2.322.918 2.322 2.177v3.63c0 4.74-1.452 8.492-4.355 11.25-2.904 2.759-6.872 4.138-11.904 4.138-7.936 0-14.276-3.582-19.016-10.743-.291-.581-.607-.944-.945-1.088-.34-.146-.847-.123-1.524.072l-9.871 2.903c-.58.193-.871.581-.871 1.161 0 .386.145.919.435 1.597 2.708 5.227 6.846 9.267 12.412 12.122 5.564 2.854 12.267 4.282 20.106 4.282 10.162 0 17.759-2.177 22.792-6.532 5.03-4.355 7.548-10.404 7.548-18.146v-51.245c0-.968-.17-1.622-.508-1.96-.34-.339-.896-.507-1.669-.507h-9.727c-1.356 0-2.13.965-2.322 2.903l-.291 5.517c-.194.773-.485 1.161-.871 1.161-.29 0-.823-.29-1.597-.871-7.065-6.776-15.34-10.163-24.823-10.163" transform="matrix(1.33333 0 0 -1.33333 0 1333.333)"/>
	<path style="fill:#56beee;fill-opacity:1;fill-rule:nonzero;stroke:none" d="M509.383 336.692v72.439c0 1.452.628 2.178 1.887 2.178h11.178c1.162 0 1.742-.631 1.742-1.888v-9.145c0-.581.168-.921.508-1.017.338-.096.701.096 1.089.581 3.58 4.16 7.281 7.354 11.105 9.581 3.822 2.226 7.571 3.339 11.251 3.339 3.386 0 5.081-.677 5.081-2.032v-11.323c0-1.161-.533-1.647-1.598-1.451-1.838.482-4.404.725-7.693.725-2.711 0-5.566-.751-8.565-2.25-3.001-1.502-5.516-3.462-7.549-5.88-2.032-2.42-3.048-4.887-3.048-7.403v-46.309c0-1.646-.921-2.467-2.759-2.467h-10.306c-1.549 0-2.323.773-2.323 2.322" transform="matrix(1.33333 0 0 -1.33333 0 1333.333)"/>
	<path style="fill:#56beee;fill-opacity:1;fill-rule:nonzero;stroke:none" d="M591.169 400.276c-.871 0-1.306-.485-1.306-1.452V356.29c0-4.065.748-6.873 2.25-8.419 1.499-1.55 3.894-2.324 7.185-2.324h9.291c1.161 0 1.743-.58 1.743-1.742v-6.242c0-1.356-.726-2.177-2.178-2.468-3.099-.485-8.034-.725-14.807-.725-6.388 0-11.131 1.474-14.226 4.427-3.099 2.952-4.646 7.524-4.646 13.718v46.019c0 1.161-.485 1.742-1.452 1.742h-10.888c-1.259 0-1.886.581-1.886 1.742v7.693c0 1.065.581 1.598 1.742 1.598h11.613c.773 0 1.161.435 1.161 1.306l1.742 22.792c.193 1.353.774 2.032 1.743 2.032h10.016c1.257 0 1.887-.775 1.887-2.323v-22.501c0-.871.435-1.306 1.306-1.306h17.42c1.163 0 1.743-.533 1.743-1.598v-7.693c0-1.161-.678-1.742-2.033-1.742h-17.42" transform="matrix(1.33333 0 0 -1.33333 0 1333.333)"/>
	<path style="fill:#56beee;fill-opacity:1;fill-rule:nonzero;stroke:none" d="M690.143 356c4.692 6.773 7.04 17.37 7.04 31.792 0 14.612-2.372 25.426-7.113 32.445-4.742 7.015-11.903 10.524-21.485 10.524-9.678 0-16.936-3.509-21.775-10.524-4.84-7.019-7.258-17.833-7.258-32.445 0-14.325 2.395-24.897 7.186-31.72 4.79-6.822 12.071-10.234 21.847-10.234 9.677 0 16.863 3.386 21.558 10.162zm-46.962-16.623c-7.065 4.306-12.484 10.574-16.259 18.8-3.774 8.225-5.662 18.096-5.662 29.615 0 11.613 1.91 21.605 5.735 29.977 3.822 8.369 9.291 14.757 16.404 19.162 7.113 4.402 15.508 6.605 25.186 6.605 9.582 0 17.878-2.203 24.897-6.605 7.016-4.405 12.435-10.767 16.259-19.09 3.822-8.324 5.734-18.291 5.734-29.904 0-11.519-1.888-21.39-5.662-29.614-3.774-8.228-9.195-14.518-16.259-18.872-7.065-4.356-15.437-6.534-25.114-6.534-9.775 0-18.195 2.154-25.259 6.46" transform="matrix(1.33333 0 0 -1.33333 0 1333.333)"/>
	<path style="fill:#56beee;fill-opacity:1;fill-rule:nonzero;stroke:none" d="M781.453 427.858c-3.775 1.837-8.372 2.758-13.791 2.758-6.872 0-12.219-1.429-16.041-4.283-3.825-2.855-5.734-6.799-5.734-11.831 0-6.677 4.74-11.613 14.226-14.807l21.775-6.822c16.452-5.131 24.679-14.808 24.679-29.035 0-9.581-3.557-17.13-10.67-22.645-7.113-5.517-16.864-8.276-29.251-8.276-9.195 0-17.325 1.598-24.389 4.791-7.065 3.194-12.534 7.742-16.403 13.646-.389.773-.581 1.257-.581 1.452 0 .774.483 1.499 1.452 2.178l7.112 4.935c.871.581 1.645.872 2.324.872.675 0 1.256-.341 1.742-1.017 3.967-5.131 7.911-8.76 11.831-10.888 3.919-2.13 9.218-3.193 15.895-3.193 7.549 0 13.452 1.307 17.711 3.919 4.257 2.613 6.388 6.678 6.388 12.194 0 3.485-1.089 6.41-3.267 8.783-2.177 2.37-6.122 4.573-11.831 6.605l-21.921 7.113c-7.838 2.613-13.717 6.436-17.637 11.469-3.92 5.03-5.879 10.644-5.879 16.839 0 6.097 1.597 11.491 4.79 16.186 3.193 4.694 7.669 8.323 13.428 10.888 5.756 2.563 12.412 3.847 19.961 3.847 7.451 0 14.201-1.307 20.251-3.919 6.046-2.614 11.007-6.196 14.879-10.743.484-.486.726-1.016.726-1.597 0-.58-.242-1.066-.726-1.451l-8.274-6.388c-.388-.29-.776-.436-1.162-.436-.29 0-.87.436-1.741 1.307-2.809 3.193-6.098 5.709-9.872 7.549" transform="matrix(1.33333 0 0 -1.33333 0 1333.333)"/>
	<path style="fill:#56beee;fill-opacity:1;fill-rule:nonzero;stroke:none" d="M620.971 511.811H364.394c-7.16 0-13.019 5.859-13.019 13.02v256.576c0 7.161 5.859 13.019 13.019 13.019h256.577c7.16 0 13.019-5.858 13.019-13.019V524.831c0-7.161-5.859-13.02-13.019-13.02" transform="matrix(1.33333 0 0 -1.33333 0 1333.333)"/>
	<path style="fill:none;stroke:#141c24;stroke-width:9.67800045;stroke-linecap:butt;stroke-linejoin:bevel;stroke-miterlimit:10;stroke-dasharray:none;stroke-opacity:1" d="M492.683 620.18v-61.454h97.536v97.536H395.147v97.536h97.536v-72.079" transform="matrix(1.33333 0 0 -1.33333 0 1333.333)"/>
</svg>
