<svg xmlns="http://www.w3.org/2000/svg" xml:space="preserve" width="377.952" height="377.952">
	<defs>
		<linearGradient x1="0" y1="0" x2="1" y2="0" gradientUnits="userSpaceOnUse" gradientTransform="matrix(191.08994 0 0 -191.08994 46.065 141.732)" spreadMethod="pad" id="a">
			<stop style="stop-opacity:1;stop-color:#832667" offset="0"/>
			<stop style="stop-opacity:1;stop-color:#af1773" offset=".247"/>
			<stop style="stop-opacity:1;stop-color:#dc0d15" offset=".815"/>
			<stop style="stop-opacity:1;stop-color:#dc0d15" offset="1"/>
		</linearGradient>
		<clipPath clipPathUnits="userSpaceOnUse" id="b">
			<path d="M0 283.464h283.464V0H0Z"/>
		</clipPath>
	</defs>
	<path d="M49.576 191.645c-2.132-.094-3.51-1.076-3.51-3.173V94.69c0-1.633 1.168-3.106 2.969-3.106h167.41c1.501 0 2.708.134 3.413 2.122 0 0 16.967 53.094 17.261 54.047.629 2.017.226 3.028-1.487 4.119-54.53 34.93-136.058 40.009-173.082 40.009-5.318 0-9.703-.098-12.974-.236" style="fill:url(#a);stroke:none" transform="matrix(1.33333 0 0 -1.33333 0 377.952)"/>
	<g clip-path="url(#b)" transform="matrix(1.33333 0 0 -1.33333 0 377.952)">
		<path d="M0 0c-6.146 2.971-10.328 4.522-9.319 7.508 1.188 3.534 7.373 4.869 12.975 4.745 2.831-.07 4.839-.434 7.14-.961l2.03 6.394c-2.919.539-5.003.811-8.492.898-11.231.264-21.381-2.838-23.977-9.396-3.1-7.77 5.666-12.15 13.261-15.747 6.048-2.861 10.807-5.578 9.137-9.149-1.31-2.762-5.576-4.067-11.787-3.927-5.372.122-12.081 1.674-17.366 4.332l-3.141-6.806c3.885-1.798 11.896-4.252 18.736-4.419 12.843-.282 21.16 2.936 24.489 9.945C17.625-8.316 7.852-3.788 0 0" style="fill:#fff;fill-opacity:1;fill-rule:nonzero;stroke:none" transform="translate(84.197 131.706)"/>
		<path d="M0 0c.062-.156.174-.201.345-.201.177 0 .254.053.304.201.073.222 6.256 19.387 6.256 19.387C13.214 10.368 19.469-1.5 22.82-14.049h10.287l5.082 15.893c.052.156.168.193.332.193.166 0 .297-.053.311-.193 1.554-9.972 11.471-16.681 25.522-16.681 9.102 0 17.305 2.386 19.348 3.483l5.32 16.774h20.465l2.073 6.502H91.104l3.526 11.01h24.391l2.112 6.743H86.892L75.274-6.663c-2.47-.623-5.519-.922-8.698-.922-6.867 0-12.361 1.625-15.474 5.255C48.77.403 47.84 3.922 48.413 7.855c1.377 9.363 10.499 15.269 22.7 15.269 2.56 0 5.206-.151 7.577-.457l2.409 7.064c-2.936.444-6.497.643-9.981.643-10.82 0-20.223-3.725-26.313-10.281-.184-.203-.389-.197-.506-.197-.191 0-.311.037-.264.197l3.057 9.573h-8.935L28.388-.973c-3.104 9.036-9.5 20.94-17.323 30.639h-9.58l-7.167-22.31C-2.077 4.701-.94 2.753 0 0" style="fill:#fff;fill-opacity:1;fill-rule:nonzero;stroke:none" transform="translate(101.618 120.032)"/>
	</g>
</svg>
