<svg xmlns="http://www.w3.org/2000/svg" width="200" height="128">
	<path d="m104.52 85.25-5.06-6.98h-.98v8.46h.86v-7.18l5.23 7.18h.82v-8.46h-.87v6.98zm3.93-2.48h4.59v-.85h-4.59v-2.8h4.7v-.85h-5.6v8.46h5.65v-.82h-4.75v-3.14zm6.06-3.65h3.18v7.61h.9v-7.61h3.18v-.85h-7.26v.85zm16.83 6.15-2.27-7h-.78l-2.27 7-2.23-7h-.92l2.73 8.52h.79l2.27-7.05 2.29 7.05h.77l2.72-8.52h-.87l-2.23 7zm8.17-7.14c-2.71 0-4.26 1.35-4.26 4.37s1.55 4.37 4.26 4.37 4.27-1.35 4.27-4.37-1.55-4.37-4.27-4.37zm0 7.91c-2.3 0-3.35-1.24-3.35-3.53s1.05-3.51 3.35-3.51 3.37 1.23 3.37 3.52-1.06 3.48-3.37 3.48zm12.63-5.3c0-1.68-.9-2.47-2.86-2.47h-3.66v8.47h.88v-3.46h2.5l2 3.46h1l-2-3.49a2.25 2.25 0 0 0 2.14-2.51zm-2.85 1.72h-2.79V79.1h2.76c1.25 0 2 .34 2 1.66s-.77 1.7-1.97 1.7zm10.97-4.19h-1.04l-4.28 4.67v-4.67h-.88v8.46h.88v-2.64l1.69-1.85 3.03 4.49h1.01l-3.45-5.14 3.04-3.32zm4.87 3.66c-1.51-.27-2.39-.47-2.39-1.55s.65-1.43 2.17-1.43a4.61 4.61 0 0 1 2.47.67l.48-.74a5.19 5.19 0 0 0-3-.75c-2 0-3.06.64-3.06 2.27s1.23 2 3.06 2.35c1.52.27 2.53.44 2.53 1.64s-.78 1.66-2.53 1.66a5.5 5.5 0 0 1-3-.86l-.45.69a6.11 6.11 0 0 0 3.51 1c2.3 0 3.38-.81 3.38-2.49s-1.3-2.12-3.17-2.46zm12.04-38.66c-11.9 0-12.41 5.33-12.41 12.85V74.6h2.81V56.12c0-5.67-.23-10.22 9.6-10.22a23.93 23.93 0 0 1 2.83.16v-2.68c-.87-.07-1.8-.11-2.83-.11zM60.61 62.36c0 5.67.22 10.22-9.61 10.22s-9.82-4.58-9.82-9.94V43.88h-2.87v18.7c0 7.3.73 12.64 12.69 12.64s12.41-5.34 12.41-12.86V43.88h-2.8zm19.96-19.09c-11.9 0-12.41 5.33-12.41 12.85V74.6H71V56.12c0-5.67-.22-10.22 9.6-10.22s9.83 4.55 9.83 9.94V74.6h2.87V55.9c-.03-7.3-.76-12.63-12.73-12.63zm17.91.67h2.75V74.6h-2.75zM109.12 64h11.57c7.2 0 10.38-3.85 10.38-10.18s-3.22-9.83-10.34-9.83h-14.36V74.6h2.75zm0-17.26h11.53c4.88 0 7.54 2.32 7.54 7.2s-2.46 7.3-7.42 7.3h-11.65zm39.31-3.59c-11.57 0-14.16 7-14.16 16s2.25 16.06 14.38 16.06a18 18 0 0 0 11.62-3.71l-1.57-2.08a14.63 14.63 0 0 1-10 3.26c-9.72 0-11.57-5.56-11.63-13h23.7c.01-8.5-.38-16.53-12.34-16.53zm-11.35 13.93c.34-6.68 2.7-11.34 11.29-11.34 8.93 0 9.32 5.22 9.6 11.34zM30.67 68.39c0 5.67.23 10.22-9.6 10.22H20v2.65h1.07c11.9 0 12.41-5.33 12.41-12.86V43.88h-2.81zm143.05 2.47a1.94 1.94 0 1 0 1.93 1.93 1.94 1.94 0 0 0-1.93-1.93zm0 3.62a1.69 1.69 0 1 1 1.68-1.69 1.69 1.69 0 0 1-1.68 1.69z"/>
	<path d="M174.69 72.35c0-.44-.21-.67-.78-.67h-1v2.23h.3v-.86h.62l.5.86h.32l-.5-.88a.61.61 0 0 0 .54-.68zm-.78.42h-.69V72h.68c.32 0 .49.07.49.39s-.18.38-.48.38z"/>
</svg>
