<svg xmlns="http://www.w3.org/2000/svg" width="200" height="128">
	<path d="M100 26a38.112 38.112 0 0 1 38 38 38.112 38.112 0 0 1-38 38 38.112 38.112 0 0 1-38-38 38.112 38.112 0 0 1 38-38m0 4.038a33.957 33.957 0 0 0-23.988 9.974A33.953 33.953 0 0 0 66.038 64a33.957 33.957 0 0 0 9.974 23.988A33.951 33.951 0 0 0 100 97.962a33.954 33.954 0 0 0 23.988-9.975A33.532 33.532 0 0 0 133.962 64a33.951 33.951 0 0 0-9.975-23.988A33.949 33.949 0 0 0 100 30.038m23.275 37.049h5.7v4.75h-11.4V55.45h5.7zm-18.525-.95-9.5 7.363-8.55-6.65a8.041 8.041 0 0 1-7.6 4.988h-7.363V55.45H79.1a8.015 8.015 0 0 1 7.6 4.988l8.55-6.65 3.088 2.612-7.838 6.175 1.425 1.188 7.838-6.175 3.087 2.612-7.6 5.937 1.425 1.188 7.837-6.175v-5.7h5.7v11.637h5.7v4.75H104.75v-5.7zm-22.8-2.375a3.366 3.366 0 0 0-3.563-3.562H77.2v6.887h1.188c1.899 0 3.562-.95 3.562-3.325z" fill="#007db8"/>
</svg>
