<svg xmlns="http://www.w3.org/2000/svg" width="200" height="128">
	<g fill-rule="evenodd">
		<path d="M70.956 79.833a12 12 0 0 0 7.758-2.352 7.83 7.83 0 0 0 2.907-6.413 7.35 7.35 0 0 0-.848-3.641 7.894 7.894 0 0 0-2.7-2.7 26.5 26.5 0 0 0-5.6-2.454 29.1 29.1 0 0 1-5.055-2.138 4.957 4.957 0 0 1-2.749-4.863 5.155 5.155 0 0 1 2.093-4.354 9.24 9.24 0 0 1 5.676-1.618 20.267 20.267 0 0 1 7.611 1.629L80.807 49a18.581 18.581 0 0 0-8.4-1.968 11 11 0 0 0-7.215 2.319 7.409 7.409 0 0 0-2.782 5.971 7.04 7.04 0 0 0 1.832 5.123C65.46 61.727 67.7 62.9 70.99 64a31.739 31.739 0 0 1 5.1 2.092 6.937 6.937 0 0 1 2.5 2.138 5.248 5.248 0 0 1 .769 2.929 5.557 5.557 0 0 1-2.307 4.648 10.163 10.163 0 0 1-6.277 1.764 23.645 23.645 0 0 1-8.9-1.425v2.273c2.104.95 5.125 1.414 9.081 1.414zm19.712 0V58.56q0-2.629-.26-7.848h.17L109.8 79.833h2.352v-32.8h-2.262v21.4c0 2.443.057 4.988.192 7.668h-.124l-19.2-29.065h-2.351v32.8zm32.797 0v-24.6a93.23 93.23 0 0 0-.181-5.688h.181l11.762 30.286h1.4l11.8-30.23h.181a55.426 55.426 0 0 0-.261 5.384v24.848h2.262v-32.8h-3.359L136.064 75.9h-.125l-11.185-28.864H121.2v32.8zM163.036 49.3h5.327c3.189 0 5.564.6 7.079 1.776a6.413 6.413 0 0 1 2.3 5.417c0 2.657-.814 4.58-2.42 5.745-1.629 1.187-4.241 1.764-7.86 1.764h-4.422zm0 30.535V66.262h4.931c3.834 0 6.808-.826 8.889-2.522A8.915 8.915 0 0 0 180 56.423q0-9.381-11.388-9.387h-7.838v32.8z"/>
		<path d="m25.414 53.426 9.014 1.1L33.3 52a11.991 11.991 0 0 1 12.146 19.18l3.981.441a15.415 15.415 0 0 0-17.544-22.787l-1.312-2.929z" fill="#a8ddb5"/>
		<path d="m46.2 74.382-9.228-1.222 1.154 2.59a12 12 0 0 1-11.785-19.5l-3.913-.384A15.415 15.415 0 0 0 39.573 79.03l1.357 3.07z" fill="#4eb3d3"/>
		<path d="M49.378 47.161c-.079-.17-.441-.114-.441-.114a24.621 24.621 0 0 0-3.392 1.064 7.1 7.1 0 0 0-2.081 1.3 14.118 14.118 0 0 0-1.9 2.33c-.735.995-1.414 2.567-2.681 4.738-.927 1.572-.509.962-1.741 3.223-1.3 2.658-2.059 3.993-2.262 4.027-.26.034-.645-.453-1.142-1.448l-.532-1.063a3.062 3.062 0 0 0-.577-.814.816.816 0 0 0-.6-.113 3.983 3.983 0 0 0-2.092 1.142 2.454 2.454 0 0 0-.882 1.945 10.492 10.492 0 0 0 .735 2.318.532.532 0 0 0 .1.26 37.48 37.48 0 0 0 1.051 2.545 6.731 6.731 0 0 0 .848 1.357 2.478 2.478 0 0 0 1.12.8 3.154 3.154 0 0 0 1.459.079A3.576 3.576 0 0 0 37.3 68.23a10.144 10.144 0 0 1 .475-1.154 63.174 63.174 0 0 1 4.49-8.618 121.113 121.113 0 0 1 6.966-10.879s.227-.26.147-.418z" fill="#0868ac"/>
	</g>
</svg>
