<svg xmlns="http://www.w3.org/2000/svg" width="200" height="128">
	<path d="M156.524 52.688a2.455 2.455 0 0 0-4.91 0v5.157a2.455 2.455 0 1 0 4.91 0zm-13.5-6.768a2.469 2.469 0 0 0-4.938 0v11.925a2.469 2.469 0 0 0 4.938 0zM129.5 36.66a2.454 2.454 0 0 0-4.907 0v26.085a2.454 2.454 0 1 0 4.907 0zm-13.527 9.26a2.454 2.454 0 0 0-4.907 0v11.925a2.454 2.454 0 1 0 4.907 0zm-13.524 6.768a2.453 2.453 0 0 0-4.906 0v5.157a2.453 2.453 0 1 0 4.906 0zm-13.5-6.768a2.461 2.461 0 0 0-4.922 0v11.925a2.461 2.461 0 0 0 4.922 0zm-13.515-9.26a2.462 2.462 0 0 0-4.923 0v26.085a2.462 2.462 0 0 0 4.923 0zm-13.519 9.26a2.461 2.461 0 0 0-4.921 0v11.925a2.461 2.461 0 0 0 4.921 0zM48.4 52.688a2.461 2.461 0 0 0-4.922 0v5.157a2.461 2.461 0 0 0 4.922 0v-5.157zM99.2 74.07a21.138 21.138 0 0 0-4.831-.626c-4.569 0-7.32 2.468-7.32 6.142 0 3.252 2.3 4.874 5.063 5.746.306.1.757.243 1.058.342 1.229.387 2.21.961 2.21 1.957 0 1.113-1.134 1.834-3.6 1.834a18.607 18.607 0 0 1-4.682-.73v4.52a29.618 29.618 0 0 0 5.35.536c3.793 0 8.133-1.657 8.133-6.591 0-2.394-1.466-4.6-4.683-5.62l-1.368-.435c-.815-.258-2.272-.675-2.272-1.871 0-.944 1.079-1.61 3.066-1.61a16.975 16.975 0 0 1 3.875.6V74.07zm41.9 9.548a5.126 5.126 0 1 1-5.126-5.165 5.081 5.081 0 0 1 5.126 5.165m-5.126-10.167a10.172 10.172 0 1 0 10.38 10.167 10.082 10.082 0 0 0-10.38-10.167m-67.335.7a15.078 15.078 0 0 0-4.519-.7c-6.033 0-10.461 4.3-10.461 10.167 0 6.329 4.888 10.173 10.461 10.173a15.712 15.712 0 0 0 4.519-.7v-5.272a8.679 8.679 0 0 1-4.164 1.043 5.245 5.245 0 1 1 0-10.483 8.59 8.59 0 0 1 4.164 1.049zm51.741 0a15.15 15.15 0 0 0-4.517-.7c-6.042 0-10.47 4.3-10.47 10.167 0 6.329 4.894 10.173 10.47 10.173a15.835 15.835 0 0 0 4.517-.7v-5.272a8.742 8.742 0 0 1-4.171 1.043 5.245 5.245 0 1 1 0-10.483 8.653 8.653 0 0 1 4.171 1.049zM80.406 93.442h-4.958V73.8h4.958z" fill="#049fd9"/>
</svg>
