<svg width="100" height="24" fill="none" xmlns="http://www.w3.org/2000/svg">
	<g clip-path="url(#a)">
		<path d="M95.945 16.918c-.223.44-.67.66-1.437.66h-1.34a1.94 1.94 0 0 1-1.565-.66l-2.682-5.283c-.224-.346-.447-.346-.575 0l-3.097 5.283c-.224.566-.67.66-1.341.66h-1.437c-.575 0-1.34-.22-1.437-.785l-3.83-9.938c-.224-.786.67-1.1 1.883-1.1h1.437c1.117 0 1.788.094 2.011 1.006l1.341 4.528c0 .346.32.346.575 0l1.66-3.773c.224-.44.575-.66 1.213-.786l1.565-.095c1.213-.22 1.66.22 1.884.786l2.107 3.994c.128.346.32.22.447 0l.894-2.547c.223-.315.128-.44-.32-.786-.446-.22-.574-.22-.574-1.007 0-1.1.575-1.32 1.788-1.32h3.225c.798 0 2.011.346 1.564 1.32l-3.959 9.843ZM71.52 9.748c0-1.1-1.341-1.886-2.906-1.886-1.66 0-3.001.786-3.001 1.886v3.994c0 1.1 1.341 1.887 3.001 1.887 1.565 0 2.906-.786 2.906-1.887V9.748Zm-2.906 8.176c-4.566 0-8.27-2.326-8.27-5.094v-2.327c0-2.987 3.673-5.094 8.27-5.094 4.343 0 8.046 2.107 8.046 5.094v2.327c0 2.768-3.576 5.094-8.046 5.094Zm-11.941-.44h-3.129c-1.245 0-1.788-.094-1.788-1.226 0-.88.128-.786.67-1.1.448-.22.671-.441.671-.787V9.182c0-.66-1.117-1.226-2.33-1.226-1.214 0-2.236.566-2.236 1.226v7.296c0 .66-.67 1.006-1.788 1.006h-1.788c-.99 0-1.66-.346-1.66-1.006V8.082c0-1.1 1.437-1.447 2.778-1.227l.575.095c.35.094.702.063.99-.095.893-1.006 2.681-1.446 4.789-1.446 3.895 0 5.906 2.201 5.906 4.308v6.73c.032.691-.542 1.037-1.66 1.037Zm-22.19.315a18.761 18.761 0 0 1-6.577-1.1c-1.214-.567-1.341-1.762-.671-2.422a4.164 4.164 0 0 1 3.352-.315c1.66.566 2.331 1.321 3.576 1.321 1.118 0 1.884-.22 1.884-.786 0-.66-.575-1.006-3.352-1.541-3.13-.44-5.364-2.013-5.364-3.994 0-2.201 3.672-3.553 7.152-3.553 1.15.031 2.299.157 3.448.346.67.22 1.117.66 1.117 1.226v1.1c0 .567-1.213 1.322-2.235.661a5.006 5.006 0 0 0-2.107-.66c-1.34 0-2.235.22-2.235 1.006 0 .66 1.118 1.006 3.8 1.54 3.257.787 5.14 1.668 5.14 3.869 0 2.201-4.023 3.302-6.928 3.302Zm-28.8-6.164 3.002-4.528H13.6l3.002 4.528-3.002 4.528H8.716l-3.033-4.528ZM9.834 0v4.088H6.577L5.013 6.73 1.34 4.748 0 6.95l3.704 2.012-1.693 2.673 1.66 2.768L0 16.383l1.341 2.202 3.672-1.981 1.564 2.641h3.257v4.088h2.682v-4.088h3.225l1.564-2.641 3.672 1.98 1.341-2.2-3.672-2.013 1.565-2.767-1.565-2.642 3.672-1.98-1.341-2.202-3.672 1.981-1.564-2.641h-3.257V.03L9.834 0Z" fill="#000"/>
	</g>
	<defs>
		<clipPath id="a">
			<path d="M0 0h100v23.333H0V0Z" fill="#fff"/>
		</clipPath>
	</defs>
</svg>
