<svg xmlns="http://www.w3.org/2000/svg" width="200" height="128">
	<path d="M123.81 93.05h-.45v7.74h-5.58V81.51l5.58-8.7v18c1.11-1.36 4.84-6.51 4.84-6.51h6.89l-6.53 6.89 6.75 9.62h-7Zm-15.54-1.27 2.29-7.43h5.52l-6.48 16.39c-1.92 4.93-4.69 8.26-8.81 8.26a7.94 7.94 0 0 1-3.62-.8l2.22-3.43a8.6 8.6 0 0 0 1 0c1.9 0 3.33-1.84 4.25-4l-6.77-16.42h6.25l2.45 7.34a28.44 28.44 0 0 1 .81 4.06 38.54 38.54 0 0 1 .89-3.97Zm-16.84-.38c0-2.15-1-3.16-2.76-3.16a5 5 0 0 0-2.45.63v11.92h-5.57V84.51l5.45-.45-.1 2.67h.19A6.89 6.89 0 0 1 91.7 84c2.86 0 5.3 1.71 5.3 5.89v10.9h-5.6ZM64.69 100l.5-3.79a12.66 12.66 0 0 0 5.36 1.26c1.21 0 2-.41 2-1.13 0-2.08-7.52-1.58-7.52-7 0-3.48 3.2-5.31 7.2-5.31a17.13 17.13 0 0 1 5.39 1l-.54 3.73a14.78 14.78 0 0 0-4.89-1c-1 0-1.77.34-1.77 1 0 2 7.68 1.64 7.68 7 0 3.53-3.15 5.56-7.45 5.56a13.52 13.52 0 0 1-5.96-1.32Z" fill="#091c30"/>
	<path d="M113.91 34.72H86.18q0-2.61 7.52-15.72l2.08 13.84h8.47L106.33 19q7.59 13.29 7.58 15.72Z" fill="#fff"/>
	<path d="M100 78.56 81.15 65.37V34.58S88.12 32 100 32s18.83 2.57 18.83 2.57v30.8Z" fill="#fff"/>
	<path d="m100 76.71-17.65-12.3v-28.6S89 33.43 100 33.43Z" fill="#dbdbdb"/>
	<path d="M100 33.43v43.24l17.5-12.26v-28.6s-6.42-2.38-17.5-2.38Z" fill="#c6c6c6"/>
	<path d="m109.55 70-1.48-12.91h-8.18v19.65l.11.11q4.79-3.25 9.55-6.85Z" fill="#3b3b63"/>
	<path fill="#53537a" d="m90.46 70.08 9.54 6.77.01-20.18h-8.27l-1.28 13.41z"/>
	<path d="M104.09 66.26c0 2.22-2.11 3.32-4 3.32S96 68.48 96 66.26" fill="#bc9375"/>
	<path d="M100 67.41c-1.55 0-2.3-1.12-2.3-3.42h.74c0 2.69 1.05 2.69 1.56 2.69s1.57 0 1.57-2.69h.74c.02 2.3-.73 3.42-2.31 3.42Z" fill="#fff"/>
	<path d="M100 64.55a2.72 2.72 0 0 0 2.77 1.85 3.5 3.5 0 0 0 3.38-2.4 19.53 19.53 0 0 0 .88-5.73s4-4.87 4-6.51H100Z" fill="#c49a7e"/>
	<path d="M88.86 51.75c0 1.9 3.92 6.51 3.92 6.51a19.57 19.57 0 0 0 .88 5.74A3.5 3.5 0 0 0 97 66.4a3.07 3.07 0 0 0 3-1.85v-12.8Z" fill="#d8b7a0"/>
	<path d="M110.51 40.8c-3-3.08-3.81-9.48-3.81-9.48-.57 2-1.8 8-1.8 8a18.6 18.6 0 0 0-5-.77q-.14 0 0 24l2.46-1.75.46-8.49 2.62 2.94 3.38 1 1.27-.88a6.49 6.49 0 0 0 .84-1.7c.47-1.19-.58-10.27-.58-10.27a5.13 5.13 0 0 1 .16-2.6Z" fill="#3b3b63"/>
	<path d="M95.17 39.29s-1.23-5.95-1.8-8c0 0-.76 6.4-3.81 9.48a5.13 5.13 0 0 1 .15 2.59s-1 9.08-.58 10.27a6.3 6.3 0 0 0 .85 1.7l1.26.88 3.38-1 2.62-2.94.46 8.49 2.31 1.7v-24a15.94 15.94 0 0 0-4.84.83Z" fill="#53537a"/>
	<path d="M108.38 25.38c.51.93 4.85 9.49 4.85 12.46L111.31 43c.32 2.91 1 9.24.48 10.48a21.75 21.75 0 0 1-2.44 3.61l1.35 12.09-1.82 1.29-1-8.84a14.22 14.22 0 0 1-.67 2.72 4.54 4.54 0 0 1-2.12 2.51c0 2.73-2.61 4.2-5 4.2s-5-1.47-5.06-4.2a4.56 4.56 0 0 1-2.13-2.51 13.84 13.84 0 0 1-.65-2.61l-1 8.89-1.85-1.31 1.32-12.19a22.47 22.47 0 0 1-2.48-3.65c-.49-1.24.14-7.57.47-10.48l-2-5.34v-.18c0-3 4.46-11.17 5-12.1l1.45-2.6c.87 6 1.31 9 1.31 9l.72 4.88.81 1.56a11.51 11.51 0 0 1 8 0l.94-1.51 2-13.93ZM100 69.12c1.07 0 2.59-.48 3-1.73h-.12a5.47 5.47 0 0 1-.59 0 3.13 3.13 0 0 1-4.55 0 5.65 5.65 0 0 1-.59 0H97c.42 1.25 2 1.73 3 1.73Zm-1.25-2.07a2 2 0 0 0 1.23.38 2 2 0 0 0 1.23-.38 3.74 3.74 0 0 1-.71-.4 1.66 1.66 0 0 1-.52 0 2 2 0 0 1-.51 0 3.54 3.54 0 0 1-.68.4Zm7.59-9.38a38.06 38.06 0 0 0 3.66-4.89c.22-.75-.15-5.67-.62-9.79v-.23l.38-1a13.79 13.79 0 0 1-2.77-4.89l-.08.54-2 3.25-.91-.36a12.3 12.3 0 0 0-4-.85 12 12 0 0 0-4 .85l-.79.33-2-3.25-.06-.38a13.58 13.58 0 0 1-2.78 4.82l.37 1v.23c-.47 4.12-.84 9-.62 9.8a38.83 38.83 0 0 0 3.57 4.88l.22.27v.34a18.79 18.79 0 0 0 .83 5.4 2.53 2.53 0 0 0 2.45 1.77 2.24 2.24 0 0 0 2-1.27 7 7 0 0 0 .48-3h.82a8.44 8.44 0 0 0 .51 3 2.27 2.27 0 0 0 2 1.27 2.53 2.53 0 0 0 2.45-1.77 18.67 18.67 0 0 0 .82-5.4V58Z" fill="#333152"/>
	<path d="M106.16 49.07h-4a2.59 2.59 0 0 0 5.18 0Z" fill="#333152"/>
	<path d="M103.19 49.07a1.49 1.49 0 0 0 3 0Z" fill="#fff"/>
	<path d="M104.44 49.07c.09 0 .13.2.11.33a.39.39 0 0 1-.39.34.64.64 0 0 0 .55.49.65.65 0 0 0 .74-.54c0-.26-.09-.63-.3-.63Z" fill="#333152"/>
	<path d="M96.63 49.07h-3.95a2.59 2.59 0 0 0 5.18 0Z" fill="#333152"/>
	<path d="M93.66 49.07a1.49 1.49 0 0 0 3 0Z" fill="#fff"/>
	<path d="M95.6 49.07h-.71c.09 0 .13.2.11.33a.39.39 0 0 1-.39.34.64.64 0 0 0 .55.49.65.65 0 0 0 .74-.54c.04-.25-.09-.62-.3-.62Z" fill="#333152"/>
	<path d="M105.86 47.92c.16-.18 1.57-1.75-.31-1.75a4.52 4.52 0 0 0-3.25 1.75Z" fill="#c49a7e"/>
	<path d="M97.74 47.92a4.54 4.54 0 0 0-3.25-1.75c-1.88 0-.47 1.57-.31 1.75Z" fill="#d8b7a0"/>
	<path d="M88.69 37.33C88.8 35.79 90.43 32.1 92 29l.41 2.84c-.16 1.06-.88 5.22-2.82 7.85Z" fill="#d8b7a0"/>
	<path d="m107.68 31.62.38-2.62c1.56 3.1 3.19 6.79 3.3 8.33l-.87 2.3c-2.1-2.89-2.75-7.63-2.81-8.01Z" fill="#c49a7e"/>
	<path d="M98.57 62.87c-.73-.54-1.48-1.23-1.48-1.75a5.46 5.46 0 0 1 .63-1.41h4.63a4.1 4.1 0 0 1 .6 1.41c0 .49-.75 1.16-1.51 1.7-.25-.43-.58-.51-.73-.17a1.41 1.41 0 0 0-.06.7c-.41.26-.71.43-.71.43s-.23-.13-.56-.35a1.53 1.53 0 0 0 0-.78c-.16-.34-.49-.26-.75.19Z" fill="#333152"/>
</svg>
