<svg id="圖層_1" data-name="圖層 1" xmlns="http://www.w3.org/2000/svg" xmlns:xlink="http://www.w3.org/1999/xlink" viewBox="0 0 166.935 155.403">
	<defs>
		<linearGradient id="未命名漸層" x1="81.521" y1="102.987" x2="166.558" y2="102.987" gradientTransform="matrix(1 0 0 -1 0 155.89)" gradientUnits="userSpaceOnUse">
			<stop offset=".002" stop-color="#246cb5"/>
			<stop offset=".239" stop-color="#2968b1"/>
			<stop offset=".58" stop-color="#335da4"/>
			<stop offset=".982" stop-color="#3d4c91"/>
			<stop offset="1" stop-color="#3d4b90"/>
		</linearGradient>
		<linearGradient id="未命名漸層_2" x1="81.526" y1="99.934" x2="164.369" y2="99.934" gradientTransform="matrix(1 0 0 -1 0 155.89)" gradientUnits="userSpaceOnUse">
			<stop offset="0" stop-color="#243780"/>
			<stop offset=".241" stop-color="#243981"/>
			<stop offset=".453" stop-color="#253f86"/>
			<stop offset=".655" stop-color="#25498e"/>
			<stop offset=".849" stop-color="#25579b"/>
			<stop offset=".999" stop-color="#2566a9"/>
		</linearGradient>
		<linearGradient id="未命名漸層_3" x1="-261.29" y1="134.669" x2="-247.401" y2="134.669" gradientTransform="matrix(1.021 -.0638 -.0976 -.9248 349.761 178.965)" xlink:href="#未命名漸層"/>
		<linearGradient id="未命名漸層_4" x1="134.555" y1="84.804" x2="142.216" y2="95.238" xlink:href="#未命名漸層"/>
		<linearGradient id="未命名漸層_5" x1="-92.14" y1="193.429" x2="-77.268" y2="193.429" gradientTransform="scale(1 -1) rotate(34.61 436.013 423.76)" gradientUnits="userSpaceOnUse">
			<stop offset="0" stop-color="#3588b3"/>
			<stop offset=".214" stop-color="#3685b2"/>
			<stop offset=".436" stop-color="#387eae"/>
			<stop offset=".663" stop-color="#3b72a7"/>
			<stop offset=".891" stop-color="#3f609e"/>
			<stop offset="1" stop-color="#405698"/>
		</linearGradient>
		<linearGradient id="未命名漸層_6" x1="179.581" y1="-116.817" x2="260.279" y2="-116.817" gradientTransform="scale(1 -1) rotate(-12.035 415.559 532.619)" xlink:href="#未命名漸層_2"/>
		<linearGradient id="未命名漸層_7" x1="88.274" y1="113.435" x2="102.958" y2="113.435" gradientTransform="matrix(1 0 0 -1 0 155.89)" gradientUnits="userSpaceOnUse">
			<stop offset="0" stop-color="#3e8fb5" stop-opacity=".3"/>
			<stop offset=".124" stop-color="#499dbb" stop-opacity=".387"/>
			<stop offset=".294" stop-color="#54acc0" stop-opacity=".506"/>
			<stop offset=".481" stop-color="#5db6c3" stop-opacity=".637"/>
			<stop offset=".696" stop-color="#61bcc5" stop-opacity=".787"/>
			<stop offset="1" stop-color="#63bec6"/>
		</linearGradient>
		<linearGradient id="未命名漸層_8" x1="-203.2" y1="176.425" x2="-198.474" y2="184.611" gradientTransform="scale(1 -1) rotate(15.313 902.985 1192.758)" xlink:href="#未命名漸層_5"/>
		<linearGradient id="未命名漸層_9" x1="-119.397" y1="110.272" x2="-99.568" y2="110.272" gradientTransform="scale(1 -1) rotate(7.441 1283.977 1202.903)" gradientUnits="userSpaceOnUse">
			<stop offset=".005" stop-color="#3588b3" stop-opacity=".2"/>
			<stop offset=".285" stop-color="#4499ba" stop-opacity=".66"/>
			<stop offset=".725" stop-color="#59b2c2" stop-opacity=".869"/>
			<stop offset="1" stop-color="#63bec6"/>
		</linearGradient>
		<linearGradient id="未命名漸層_10" x1="88.253" y1="88.957" x2="123.585" y2="95.266" gradientTransform="matrix(1 0 0 -1 0 155.89)" gradientUnits="userSpaceOnUse">
			<stop offset=".005" stop-color="#3588b3" stop-opacity=".2"/>
			<stop offset=".176" stop-color="#3f92b7" stop-opacity=".337"/>
			<stop offset=".726" stop-color="#59b2c2" stop-opacity=".78"/>
			<stop offset="1" stop-color="#63bec6"/>
		</linearGradient>
		<linearGradient id="未命名漸層_11" x1="91.364" y1="85.976" x2="108.455" y2="85.976" xlink:href="#未命名漸層_7"/>
		<linearGradient id="未命名漸層_12" x1="48.339" y1="131.636" x2="59.998" y2="131.636" gradientTransform="matrix(1 0 0 -1 0 155.89)" gradientUnits="userSpaceOnUse">
			<stop offset="0" stop-color="#44448f"/>
			<stop offset=".237" stop-color="#444690"/>
			<stop offset=".42" stop-color="#434c93"/>
			<stop offset=".584" stop-color="#425698"/>
			<stop offset=".738" stop-color="#3f64a0"/>
			<stop offset=".882" stop-color="#3b76aa"/>
			<stop offset="1" stop-color="#3588b3"/>
		</linearGradient>
		<linearGradient id="未命名漸層_13" x1="-306.051" y1="-10.155" x2="-226.269" y2="-10.155" gradientTransform="scale(1 -1) rotate(15.765 -57.208 1104.61)" gradientUnits="userSpaceOnUse">
			<stop offset="0" stop-color="#3588b3"/>
			<stop offset=".066" stop-color="#3782b0"/>
			<stop offset=".501" stop-color="#40629e"/>
			<stop offset=".825" stop-color="#434c93"/>
			<stop offset="1" stop-color="#44448f"/>
		</linearGradient>
		<linearGradient id="未命名漸層_14" x1="-424.395" y1="281.758" x2="-404.325" y2="281.758" gradientTransform="scale(1 -1) rotate(27.808 492.515 965.293)" gradientUnits="userSpaceOnUse">
			<stop offset="0" stop-color="#3588b3"/>
			<stop offset=".237" stop-color="#3686b2" stop-opacity=".976"/>
			<stop offset=".42" stop-color="#3880af" stop-opacity=".958"/>
			<stop offset=".584" stop-color="#3b77aa" stop-opacity=".942"/>
			<stop offset=".738" stop-color="#3e69a2" stop-opacity=".926"/>
			<stop offset=".882" stop-color="#425798" stop-opacity=".912"/>
			<stop offset="1" stop-color="#44448f" stop-opacity=".9"/>
		</linearGradient>
		<linearGradient id="未命名漸層_15" x1="-403.568" y1="294.778" x2="-326.815" y2="294.778" gradientTransform="scale(1 -1) rotate(27.808 492.515 965.293)" gradientUnits="userSpaceOnUse">
			<stop offset="0" stop-color="#44448f"/>
			<stop offset=".175" stop-color="#434c93" stop-opacity=".843"/>
			<stop offset=".499" stop-color="#40629e" stop-opacity=".551"/>
			<stop offset=".934" stop-color="#3782b0" stop-opacity=".159"/>
			<stop offset="1" stop-color="#3588b3" stop-opacity=".1"/>
		</linearGradient>
		<linearGradient id="未命名漸層_16" x1="-380.573" y1="316.625" x2="-356.088" y2="316.625" gradientTransform="scale(1 -1) rotate(27.808 492.515 965.293)" xlink:href="#未命名漸層_13"/>
		<linearGradient id="未命名漸層_17" x1="-1.033" y1="117.563" x2="7.511" y2="128.026" gradientTransform="scale(1 -1) rotate(15.297 554.665 213.613)" xlink:href="#未命名漸層_5"/>
		<linearGradient id="未命名漸層_18" x1="-470.048" y1="327.744" x2="-424.151" y2="327.744" gradientTransform="scale(1 -1) rotate(30.805 421.59 1023.652)" xlink:href="#未命名漸層_15"/>
		<style>
			.cls-1{fill:#3d3a39}.cls-6{fill:#fff}
		</style>
	</defs>
	<path class="cls-1" d="M22.667 121.28a9.269 9.269 0 0 1-3.383 7.964 11.45 11.45 0 0 1-8.644 3.072 11.12 11.12 0 0 1-7.548-3.46 10.475 10.475 0 0 1-3.038-7.517h4.949v1.144a5.162 5.162 0 0 0 2.004 3.611 5.934 5.934 0 0 0 4.259 1.807 6.812 6.812 0 0 0 4.761-1.735 5.699 5.699 0 0 0 1.628-4.069q.061-4.368-5.207-5.984l-4.191-1.269q-6.574-1.97-6.888-8.534a8.34 8.34 0 0 1 2.796-6.743 10.84 10.84 0 0 1 7.194-2.984 10.18 10.18 0 0 1 6.817 2.237 8.041 8.041 0 0 1 3.425 5.995v1.015H16.59v-.785a3.426 3.426 0 0 0-1.597-2.93 6.241 6.241 0 0 0-3.665-1.117 5.28 5.28 0 0 0-3.476 1.379 4.445 4.445 0 0 0-1.535 3.299q-.25 3.659 4.572 5.218l4.134 1.319q7.145 2.327 7.644 9.067Z"/>
	<path class="cls-1" d="M70.271 114.419a16.926 16.926 0 0 1-5.606 12.678 17.787 17.787 0 0 1-13.311 5.1 17.769 17.769 0 0 1-12.622-5.368 16.901 16.901 0 0 1-5.168-12.349 17.098 17.098 0 0 1 5.575-12.797 17.698 17.698 0 0 1 13.28-5.101 18.057 18.057 0 0 1 12.653 5.459 16.947 16.947 0 0 1 5.199 12.378Zm-4.76-.359a13.226 13.226 0 0 0-4.05-9.227 12.74 12.74 0 0 0-9.322-3.836 13.313 13.313 0 0 0-9.732 3.806 12.676 12.676 0 0 0-4.08 9.317 12.83 12.83 0 0 0 3.705 9.438 13.004 13.004 0 0 0 9.354 4.225 12.723 12.723 0 0 0 10.076-3.896 13.051 13.051 0 0 0 4.049-9.827Z"/>
	<path class="cls-1" d="M166.734 114.359v17.061h-4.761v-5.309a18.44 18.44 0 0 1-26.768.656 16.884 16.884 0 0 1-5.178-12.35 17.092 17.092 0 0 1 5.575-12.796 17.576 17.576 0 0 1 13.342-5.041 18.347 18.347 0 0 1 12.778 5.459 15.945 15.945 0 0 1 5.012 12.32Zm-4.761-.329a13.4 13.4 0 0 0-13.373-13.033 13.6 13.6 0 0 0-9.732 3.826 12.536 12.536 0 0 0-4.08 9.268 12.74 12.74 0 0 0 3.735 9.417 13.29 13.29 0 0 0 9.324 4.274 13.616 13.616 0 0 0 14.126-13.752Z"/>
	<path class="cls-1" d="M4.386 145.625H1.521v9.472H.01V144.09a3.284 3.284 0 0 1 1.114-2.661 4.292 4.292 0 0 1 2.865-.938h.397v1.288h-.4a2.634 2.634 0 0 0-1.703.535 2.2 2.2 0 0 0-.761 1.526v.459h2.864Z"/>
	<path class="cls-1" d="M24.656 149.697a5.376 5.376 0 0 1-1.78 4.026 5.65 5.65 0 0 1-4.227 1.62 5.64 5.64 0 0 1-4.008-1.705 5.527 5.527 0 0 1 .13-7.985 5.614 5.614 0 0 1 4.217-1.62 5.739 5.739 0 0 1 4.019 1.733 5.39 5.39 0 0 1 1.649 3.931Zm-1.511-.114a4.203 4.203 0 0 0-1.286-2.93 4.042 4.042 0 0 0-2.96-1.218 4.228 4.228 0 0 0-3.091 1.208 4.024 4.024 0 0 0-1.296 2.959 4.075 4.075 0 0 0 1.176 2.997 4.132 4.132 0 0 0 2.971 1.342 4.041 4.041 0 0 0 3.2-1.237 4.149 4.149 0 0 0 1.286-3.121Z"/>
	<path class="cls-1" d="M43.573 150.455a4.721 4.721 0 0 1-1.422 3.505 5.299 5.299 0 0 1-7.181 0 4.717 4.717 0 0 1-1.422-3.505v-6.156h1.512v6.34a3.095 3.095 0 0 0 1.05 2.345 3.563 3.563 0 0 0 4.902 0 3.094 3.094 0 0 0 1.05-2.345v-6.34h1.512v6.156Z"/>
	<path class="cls-1" d="M62.63 155.097h-1.512v-6.309a3.113 3.113 0 0 0-1.05-2.349 3.567 3.567 0 0 0-4.922 0 3.11 3.11 0 0 0-1.05 2.349v6.309h-1.512v-6.157a4.677 4.677 0 0 1 1.432-3.495 5.325 5.325 0 0 1 7.182 0 4.674 4.674 0 0 1 1.433 3.495v6.157Z"/>
	<path class="cls-1" d="M83.457 149.755a5.14 5.14 0 0 1-1.75 4.025 5.743 5.743 0 0 1-4.257 1.62 5.641 5.641 0 0 1-4.008-1.705 5.368 5.368 0 0 1-1.641-3.922 5.432 5.432 0 0 1 1.767-4.063 5.605 5.605 0 0 1 4.208-1.62 5.73 5.73 0 0 1 4.169 1.914v-5.438h1.512Zm-1.512-.114a4.131 4.131 0 0 0-1.266-2.931 4.07 4.07 0 0 0-2.98-1.218 4.239 4.239 0 0 0-3.081 1.208 4.015 4.015 0 0 0-1.306 2.959 4.335 4.335 0 0 0 4.167 4.339 4.281 4.281 0 0 0 4.466-4.357Z"/>
	<path class="cls-1" d="M104.065 149.679v5.418h-1.512v-1.686a5.854 5.854 0 0 1-8.501.208 5.36 5.36 0 0 1-1.645-3.922 5.426 5.426 0 0 1 1.771-4.063 5.581 5.581 0 0 1 4.237-1.601 5.828 5.828 0 0 1 4.058 1.733 5.057 5.057 0 0 1 1.592 3.913Zm-1.511-.105a4.255 4.255 0 0 0-4.246-4.139 4.32 4.32 0 0 0-3.091 1.215 3.979 3.979 0 0 0-1.296 2.942 4.041 4.041 0 0 0 1.187 2.991 4.218 4.218 0 0 0 2.961 1.357 4.321 4.321 0 0 0 4.485-4.366Z"/>
	<path class="cls-1" d="M117.155 155.324q-4.138 0-4.138-3.354v-11.46h1.512v3.77h2.626v1.346h-2.626v6.1q0 2.406 2.626 2.406Z"/>
	<path class="cls-1" d="M127.359 143.01h-1.512v-2.52h1.512Zm0 12.087h-1.512v-10.798h1.512Z"/>
	<path class="cls-1" d="M148.027 149.697a5.376 5.376 0 0 1-1.78 4.026 5.926 5.926 0 0 1-8.235-.085 5.527 5.527 0 0 1 .13-7.985 5.614 5.614 0 0 1 4.217-1.62 5.739 5.739 0 0 1 4.019 1.733 5.39 5.39 0 0 1 1.649 3.931Zm-1.512-.114a4.203 4.203 0 0 0-1.286-2.93 4.042 4.042 0 0 0-2.96-1.218 4.228 4.228 0 0 0-3.091 1.208 4.024 4.024 0 0 0-1.296 2.959 4.075 4.075 0 0 0 1.176 2.997 4.132 4.132 0 0 0 2.971 1.342 4.041 4.041 0 0 0 3.2-1.237 4.141 4.141 0 0 0 1.286-3.121Z"/>
	<path class="cls-1" d="M166.924 155.097h-1.512v-6.309a3.113 3.113 0 0 0-1.05-2.349 3.567 3.567 0 0 0-4.922 0 3.11 3.11 0 0 0-1.05 2.349v6.309h-1.512v-6.157a4.677 4.677 0 0 1 1.432-3.495 5.325 5.325 0 0 1 7.182 0 4.674 4.674 0 0 1 1.433 3.495v6.157Z"/>
	<path class="cls-1" d="M117.912 90.428a13.277 13.277 0 0 1-3.919-3.522v15.881a18.06 18.06 0 0 0-13.128-6.024 17.635 17.635 0 0 0-13.253 5.101 17.114 17.114 0 0 0-5.564 12.796 16.903 16.903 0 0 0 5.168 12.349 17.768 17.768 0 0 0 12.622 5.369 18.094 18.094 0 0 0 13.404-5.101 16.186 16.186 0 0 0 5.512-12.677V90.777a4.464 4.464 0 0 1-.842-.349Zm-7.906 33.637a12.72 12.72 0 0 1-10.076 3.896 13.65 13.65 0 0 1-13.121-13.662 12.623 12.623 0 0 1 4.112-9.317 13.344 13.344 0 0 1 9.701-3.806 12.821 12.821 0 0 1 9.386 3.836 12.991 12.991 0 0 1 3.986 9.227 12.842 12.842 0 0 1-3.988 9.826Z"/>
	<path d="M165.913 60.861c-.4-.299-1.29-.361-1.541-.768-.197-.33-.074-.885-.082-1.246a2.323 2.323 0 0 0-.595-1.502 15.155 15.155 0 0 0-4.088-2.924 72.513 72.513 0 0 0-22.201-8.16c-4.273-3.963-8.807-7.848-14.882-8.197-2.561-.148-4.742-.246-4.848.611-.032.26.501.432 1.035.746a7.471 7.471 0 0 1 3.116 2.906c.253.557.701 2.248-5.531 3.531-7.463 1.535-24.146 11.195-30.95 16.242-6.805 5.049-2.854 5.93-.878 5.709s15.585-5.268 30.95-5.928c4.111-.176 11.561-.293 11.561-.293l.008-.02c4.701-.068 8.927.107 13.72.264 6.477.209 12.853 1.404 19.327 1.551a24.618 24.618 0 0 0 4.582-.197c.553-.094 1.763-.246 1.913-.945a1.337 1.337 0 0 0-.616-1.38Z" style="fill:url(#未命名漸層)"/>
	<path d="M84.313 62.908c-.258.207-.496.41-.713.602l-.11.102a11.9 11.9 0 0 0-1.083 1.104.722.722 0 0 1-.049.057 5.967 5.967 0 0 0-.354.471c-.01.016-.019.029-.027.045a2.299 2.299 0 0 0-.451 1.186c2.215-.74 4.995-1.811 8.431-3.273a203.925 203.925 0 0 1 23.542-8.516c.013.012.021.025.034.039a44.431 44.431 0 0 1 7.383-1.699c.551-.063 1.053-.143 1.683-.229a63.46 63.46 0 0 1 4.095-.344l.938-.033.295-.008c.703-.02 1.479-.035 2.365-.045 15.593.008 18.157 5.018 26.89 7.113a23.985 23.985 0 0 0 4.599.795 8.545 8.545 0 0 0 2.298-.125c.085-.016.186-.043.29-.07a2.841 2.841 0 0 1-.077-1.23 2.323 2.323 0 0 0-.595-1.502 15.155 15.155 0 0 0-4.088-2.924 83.08 83.08 0 0 0-5.21-2.648 67.43 67.43 0 0 0-16.992-5.512h.001l-.006-.006a90.46 90.46 0 0 0-21.104-.396c-7.463 1.535-24.146 11.195-30.95 16.242a33.614 33.614 0 0 0-1.035.804Z" style="opacity:.7;isolation:isolate;fill:url(#未命名漸層_2)"/>
	<path d="M71.272 71.721c-1.115.295-1.966-.973-1.129-1.693a22.835 22.835 0 0 1 10.313-4.641c5.603-1.164 2.701 5.43.514 9.404a1.714 1.714 0 0 1-3.16-.719c0-.029.002-.064 0-.096.03-3.244-3.054-3.289-4.788-2.814-.666.18-1.244.424-1.75.559Z" style="fill:url(#未命名漸層_3)"/>
	<path d="M146.6 61.207a29.626 29.626 0 0 0-1.854 2.725 9.076 9.076 0 0 1-3.642 2.844c-1.436.674-6.118 2.537-4.665-1.002a20.562 20.562 0 0 0 1.202-5.617c2.923.316 6.133.189 8.959 1.05Z" style="fill:url(#未命名漸層_4)"/>
	<path class="cls-6" d="M157.966 57.961c-.002.008 4.051 2.395 4.051 2.395a2.97 2.97 0 0 1-.759.568 3.007 3.007 0 0 1-2.207-.377A2.38 2.38 0 0 1 158.045 59a2.795 2.795 0 0 1-.079-1.039Z"/>
	<path d="M139.13 57.537c-3.333 2.619-5.048 4.416-8.033 6.287a.552.552 0 0 0 .131.904c4.97 2.287 18.056-5.662 13.825-6.791-1.372-.365-4.884-1.218-5.923-.4Z" style="fill:url(#未命名漸層_5)"/>
	<path d="M49.105 56.193c7.813-7.166 17.421-12.822 27.952-14.041a42.41 42.41 0 0 1 22.093 3.676 56.014 56.014 0 0 1 18.103 13.389 46.879 46.879 0 0 1 6.771 9.25 11.483 11.483 0 0 1 1.815 4.971 9.444 9.444 0 0 1-1.534 5.533 7.965 7.965 0 0 1-.483.66 6.573 6.573 0 0 1 1.384 4.934 3.871 3.871 0 0 1-5.791 2.707c-2.865-1.566-4.53-4.473-6.476-6.971-5.374-6.902-13.405-11.215-21.544-14.424a119.076 119.076 0 0 0-34.961-7.967c-2.538-.184-9.751.475-7.366-1.684l.037-.033Z" style="fill:url(#未命名漸層_6)"/>
	<path d="M101.264 49.154a1.61 1.61 0 0 0 1.66-1.93 15.292 15.292 0 0 0-6.89-9.531c-1.301-.709-7.942-3.316-7.756-1.002.184 2.262 4.938 3.26 4.409 8.039-.387 3.493 5.414 4.262 8.577 4.424Z" style="fill:url(#未命名漸層_7)"/>
	<path d="M104.23 70.998a18.64 18.64 0 0 1-1.172 1.766c-1.188 1.254-2.75 1.469-4.342 1.852-.816.193-2.887.609-2.645 1.85.344 1.76 5.207 2.082 6.448 2.121a22.225 22.225 0 0 0 6.074-.594c6.364-1.656 7.989-2.846 5.269-5.674.001-.001-9.599-1.315-9.632-1.321Z" style="fill:url(#未命名漸層_8)"/>
	<path d="M45.536 68.934c1.357.689 3.152-.588 4.122-1.914 1.843-2.531 4.572-6.867 3.449-10.205-1.747-5.188-13.805-4.748-19.018-2.332-3.509 1.629 2.516 2.32 5.346 3.027 2.806.703 3.972 2.912 4.376 5.592.24 1.59-.036 3.658.902 5.066a2.19 2.19 0 0 0 .823.766Z" style="fill:url(#未命名漸層_9)"/>
	<path d="M124.306 78.971a9.437 9.437 0 0 0 1.534-5.533 11.496 11.496 0 0 0-1.815-4.971q-.678-1.251-1.449-2.439c-.217-.342-.461-.664-.688-1-.304-.443-.598-.893-.918-1.326-.317-.432-.657-.846-.989-1.264-.253-.32-.495-.646-.755-.959-.351-.426-.718-.832-1.081-1.246-.239-.273-.472-.551-.715-.82a8.64 8.64 0 0 1-2.907.82l.017.055a12.908 12.908 0 0 1-4.128-.109c-.262-.045-.514-.102-.763-.156a11.368 11.368 0 0 1-7.601-9.766 11.25 11.25 0 0 1 .141-2.92h-.005a46.676 46.676 0 0 0-1.948-.982 11.368 11.368 0 0 0-6.201 11.113c.028.316.076.627.129.936 0 0-14.18-3.93-14.738-16.434-.789.039-1.579.094-2.366.184a40.414 40.414 0 0 0-10.085 2.561c-.199.074-.392.166-.59.244a28.14 28.14 0 0 0-1.917 13.832q3.08.433 6.133 1.029c.063.016.123.025.187.039 1.345.268 2.685.549 4.02.859l.518.131c1.224.289 2.445.592 3.661.924.347.092.691.197 1.038.297 1.041.293 2.085.588 3.119.91.616.191 1.226.404 1.84.604.766.252 1.536.494 2.299.764 1.381.484 2.754.998 4.116 1.531 8.139 3.209 16.17 7.521 21.544 14.424 1.945 2.498 3.61 5.404 6.476 6.971a3.871 3.871 0 0 0 5.791-2.707 6.574 6.574 0 0 0-1.384-4.934 9.69 9.69 0 0 0 .48-.662Z" style="fill:url(#未命名漸層_10)"/>
	<circle class="cls-6" cx="115.854" cy="72.508" r="2.145"/>
	<path d="M104.22 66.779c-5.206.32-8.2.941-12.532.752a.676.676 0 0 0-.499 1.004c3.435 5.793 20.942 5.676 17.445 1.572-1.133-1.33-2.789-3.431-4.414-3.328Z" style="fill:url(#未命名漸層_11)"/>
	<path d="M58.176 17.027a21.538 21.538 0 0 1-4.576 7.756c-1.782 2.145-3.535 4.511-5.445 6.533a.563.563 0 0 0 .394.952c4.091.144 7.169-1.883 9.836-4.838 2.48-2.748 4.157-7.438 1.829-10.669a1.128 1.128 0 0 0-2.038.266Z" style="fill:url(#未命名漸層_12)"/>
	<path d="M81.185 8.207a3.074 3.074 0 0 0-.585-1.752c-2.066-2.652-5.433.461-7.975-.66-1.438-.635-2.265-2.111-3.346-3.174A8.766 8.766 0 0 0 65.35.275c-3.063-.771-6.478.227-9.399 1.156-1.59.508-3.191 1.006-4.762 1.578C30.105 10.67 8.86 27.594 10.912 52.426a1.973 1.973 0 0 0 3.525 1.061c4.463-5.77 14.151-16.838 27.661-24.193 7.027-3.832 14.37-7.041 21.712-10.211 3.52-1.516 7.291-2.871 10.808-4.557a18.608 18.608 0 0 0 5.574-3.449 4.014 4.014 0 0 0 .993-2.87Z" style="fill:url(#未命名漸層_13)"/>
	<path d="M2.584 67.139A1.566 1.566 0 0 1 .125 65.34c1.08-2.514 3.923-7.631 10.541-12.572 6.532-4.873 6.701 6.291 6.238 13.273a2.345 2.345 0 0 1-4.498.76c-.02-.041-.037-.088-.057-.135-1.886-4.697-5.887-3.004-7.841-1.33-.751.639-1.351 1.32-1.924 1.803Z" style="fill:url(#未命名漸層_14)"/>
	<path d="M80.736 10.264a9.35 9.35 0 0 1-4.181 2.838c-4.297 1.732-9.467 1.875-13.986 2.637C44.17 18.83 28.265 29.201 19.01 45.453c-1.065 1.873-1.834 4.627-3.176 6.279 4.919-6.057 14.013-15.768 26.265-22.439 7.027-3.832 14.37-7.041 21.712-10.211 3.52-1.516 7.291-2.871 10.808-4.557a18.608 18.608 0 0 0 5.574-3.449 3.067 3.067 0 0 0 .543-.812Z" style="fill:url(#未命名漸層_15)"/>
	<path d="M45.563 6.322a17.165 17.165 0 0 0-9.202-1.387 21.473 21.473 0 0 0-11.398 5.406c-.422.389-4.511 4.865-1.799 4.646 2.451-.197 7.586-3.268 10.294-1.594 2.708 1.673 9.235-2.821 12.105-7.071Z" style="fill:url(#未命名漸層_16)"/>
	<path class="cls-6" d="m58.924 7.383.947-1.684.004.027c.05-.049 2.313 1.17 2.313 1.17s1.487-2.59 2.166-1.123c0 0 .79 2.072-2.435 2.598a5.112 5.112 0 0 1-2.995-.988Z"/>
	<path d="M53.073 15.15a20.609 20.609 0 0 1-7.064 4.125c-2.53 1.006-5.225 2.135-7.822 2.941a.532.532 0 0 0-.121.967c5.353 3.268 17.62.568 16.815-7.295a1.065 1.065 0 0 0-1.808-.738Z" style="fill:url(#未命名漸層_17)"/>
	<path d="M45.979 10.641a60.151 60.151 0 0 0-18.613 6.174 52.022 52.022 0 0 0-13.13 17.416c2.572-2.504 5.188-4.961 7.91-7.309 10.821-9.326 23.417-14.533 30.996-17.059-2.065.692-4.983.432-7.163.778Z" style="fill:url(#未命名漸層_18)"/>
	<path class="cls-6" d="M122.49 87.512a4.608 4.608 0 0 1-.764-.838c-.118-.17-.252-.336-.368-.521l-.299-.615a3.395 3.395 0 0 1-.252-.676 6.253 6.253 0 0 1-.212-.73l-.165-.779q-.056-.405-.127-.818l-.236-1.707c-.082-.576-.203-1.162-.317-1.734a10.65 10.65 0 0 0-.536-1.662 7.191 7.191 0 0 0-.77-1.451 9.313 9.313 0 0 0-.938-1.131c-.339-.309-.685-.551-.97-.773a4.742 4.742 0 0 0-.802-.455c-.459-.229-.722-.355-.722-.355l.608.523a6.582 6.582 0 0 1 .684.607l.76.852c.217.361.509.707.719 1.133a8.623 8.623 0 0 1 .575 1.373 12.954 12.954 0 0 1 .411 1.551c.096.549.2 1.102.27 1.678.092.572.184 1.148.273 1.715a12.706 12.706 0 0 0 .401 1.684 5.09 5.09 0 0 0 .293.789 3.968 3.968 0 0 0 .361.723l.414.65c.16.191.338.357.494.525a3.394 3.394 0 0 0 .824.666 4.219 4.219 0 0 0 .499-.121c-.035-.041-.072-.064-.108-.103Z"/>
</svg>
