<svg xmlns="http://www.w3.org/2000/svg" viewBox="3.36 -0.64 293.28 181.03">
	<path d="m29.6 163.2 6 1.9c-.9 3.3-2.4 5.8-4.6 7.4-2.1 1.6-4.8 2.4-8.1 2.4-4.1 0-7.4-1.4-10-4.2-2.6-2.8-3.9-6.6-3.9-11.4 0-5.1 1.3-9 3.9-11.9 2.6-2.8 6.1-4.2 10.4-4.2 3.7 0 6.8 1.1 9.1 3.3 1.4 1.3 2.4 3.2 3.1 5.6l-6.1 1.5c-.4-1.6-1.1-2.8-2.3-3.8-1.1-.9-2.5-1.4-4.2-1.4-2.3 0-4.1.8-5.5 2.4-1.4 1.6-2.1 4.3-2.1 7.9 0 3.9.7 6.6 2.1 8.3 1.4 1.6 3.2 2.5 5.4 2.5 1.6 0 3.1-.5 4.2-1.6 1.2-.8 2-2.4 2.6-4.7zm17.9 6.9v-8h-8v-5.5h8v-8h5.3v8h8v5.5h-8v8h-5.3zm25 0v-8h-8v-5.5h8v-8h5.3v8h8v5.5h-8v8h-5.3zm34.5 4.4-7.3-30.6h6.3l4.6 21 5.6-21h7.3l5.4 21.4 4.7-21.4h6.2l-7.4 30.6h-6.6l-6.1-22.9-6.1 22.9H107zm33.8-11.4c0-1.9.5-3.8 1.4-5.7 1-1.8 2.3-3.2 4.1-4.2 1.8-1 3.7-1.4 5.9-1.4 3.4 0 6.1 1.1 8.2 3.3 2.1 2.2 3.2 4.9 3.2 8.3 0 3.4-1.1 6.1-3.2 8.3-2.2 2.2-4.9 3.3-8.2 3.3-2 0-4-.5-5.8-1.4-1.8-.9-3.2-2.3-4.2-4-.9-1.8-1.4-4-1.4-6.5zm6 .3c0 2.2.5 3.9 1.6 5.1 1 1.2 2.3 1.8 3.9 1.8s2.8-.6 3.9-1.8c1-1.2 1.6-2.9 1.6-5.1 0-2.2-.5-3.8-1.6-5-1-1.2-2.3-1.8-3.9-1.8s-2.8.6-3.9 1.8c-1 1.1-1.6 2.8-1.6 5zm27.1 11.1H168v-22.2h5.4v3.2c.9-1.5 1.8-2.5 2.5-2.9.7-.5 1.6-.7 2.5-.7 1.3 0 2.6.4 3.9 1.1l-1.8 5.1c-1-.6-1.9-1-2.8-1-.8 0-1.5.2-2.1.7-.6.5-1 1.3-1.3 2.5-.3 1.2-.5 3.7-.5 7.4v6.8zm10.8 0v-30.6h5.9v16.2l6.9-7.8h7.2l-7.6 8.1 8.1 14.1h-6.3l-5.6-10-2.7 2.9v7.1h-5.9zm21.4-22.2h3.3v-1.7c0-1.9.2-3.3.6-4.2.4-.9 1.1-1.7 2.2-2.2 1.1-.6 2.4-.9 4-.9 1.7 0 3.3.3 4.9.8l-.8 4.1c-.9-.2-1.8-.3-2.7-.3-.8 0-1.5.2-1.8.6-.4.4-.6 1.2-.6 2.3v1.6h4.4v4.6h-4.4v17.6h-5.9V157H206v-4.7zm16.9 22.2v-30.6h5.9v30.6H223zm10.5-11.4c0-1.9.5-3.8 1.4-5.7 1-1.8 2.3-3.2 4.1-4.2 1.8-1 3.7-1.4 5.9-1.4 3.4 0 6.1 1.1 8.2 3.3 2.1 2.2 3.2 4.9 3.2 8.3 0 3.4-1.1 6.1-3.2 8.3-2.2 2.2-4.9 3.3-8.2 3.3-2 0-4-.5-5.8-1.4-1.8-.9-3.2-2.3-4.2-4-.9-1.8-1.4-4-1.4-6.5zm6 .3c0 2.2.5 3.9 1.6 5.1 1 1.2 2.3 1.8 3.9 1.8 1.5 0 2.8-.6 3.9-1.8 1-1.2 1.6-2.9 1.6-5.1 0-2.2-.5-3.8-1.6-5-1-1.2-2.3-1.8-3.9-1.8-1.5 0-2.8.6-3.9 1.8-1.1 1.1-1.6 2.8-1.6 5zm25.6 11.1-7-22.2h5.7l4.2 14.5 3.8-14.5h5.7l3.7 14.5 4.2-14.5h5.8l-7.1 22.2h-5.6l-3.8-14.3-3.8 14.3h-5.8z"/>
	<path fill="#27B6DB" d="M223 5h18.1v18.1H223z"/>
	<path fill="#043787" d="M218 23.1V5h-55.2l-15.7 79.6L127.6 5H103L83.5 84.6 67.8 5H45.1l24.7 104.9H96.1l19.2-81.8 19.2 81.8H160.8l10.9-46.2v45.5h21.9V64.7h16.2V46.6h-16.2V23.1z"/>
	<path fill="#27B6DB" d="M210.8 28.1h18.1v18.1h-18.1zm26 20h18.1v18.1h-18.1z"/>
</svg>
