<svg xmlns="http://www.w3.org/2000/svg" width="200" height="128">
	<path fill="#666" d="M24.36 82.14a11.33 11.33 0 0 1-4.14-.74v-2.11a18 18 0 0 0 4.09.83c1.33 0 2.66-.23 2.66-1.89 0-1.24-.91-1.51-2.06-1.83l-1.06-.28c-1.38-.41-3.67-1-3.67-3.76 0-3.13 2.52-3.91 5.14-3.91a7.77 7.77 0 0 1 3.67.78v2.07a9.78 9.78 0 0 0-3.76-.83c-1.65 0-2.71.33-2.71 1.75 0 1.24 1 1.51 2.11 1.84l1.29.36c1.51.42 3.44 1.29 3.44 3.77.05 3.12-2.25 3.95-5 3.95zm13.91 0c-2.57 0-6.15-.83-6.15-6.85s3.62-6.84 6.15-6.84 6.15.83 6.15 6.84-3.72 6.85-6.15 6.85zm0-11.85c-1.38 0-3.67.41-3.67 5s2.66 5 3.67 5c1.24 0 3.67-.5 3.67-5-.04-4.63-2.34-5-3.67-5zm9.37 11.62V64.37h2.47v17.54zm14.78 0-.23-1.7a5.72 5.72 0 0 1-4.32 2c-2 0-4.22-.73-4.22-4 0-3.67 3.44-4.36 5.56-4.36h2.89v-1.22c0-1.7-1-2.11-2.76-2.11a15.78 15.78 0 0 0-4.59.92v-2a14.6 14.6 0 0 1 5-.92c2.89 0 4.87 1.06 4.87 4.55V82h-2.2zm-.32-6.66h-2.39c-2.25 0-3.63.65-3.63 2.76 0 1.7 1.06 2.2 2.39 2.2a6.37 6.37 0 0 0 3.63-1.7zm11.48-4.55A3.89 3.89 0 0 0 71 72.31v9.6h-2.52V68.68h2l.33 1.84a3.42 3.42 0 0 1 3.07-2.07 3.2 3.2 0 0 1 1.79.37v2.25a5.2 5.2 0 0 0-2.09-.37zm21.71 11.21h-3.44l-2.07-7c-.55-1.88-1.33-5-1.33-5s-.82 3.13-1.37 4.92l-2 7.07h-3.47l-3.49-13.22H81l1.61 7.58c.36 1.74.78 4.5.78 4.5s.5-2.76 1-4.5l2.25-7.58h3.58l2.25 7.58c.51 1.7 1.06 4.5 1.06 4.5s.41-2.53.83-4.5L96 68.68h2.8zm6.62 0V68.64h2.47v13.27zm15.61 0v-9c0-1.65-.69-2.25-2.39-2.25a8.42 8.42 0 0 0-4.36 1.65v9.65h-2.48V68.68h1.93l.5 1.89a8.13 8.13 0 0 1 5-2.12c2.43 0 4.27 1.06 4.27 4.46v9zm15.42 0-.27-1.66a5.37 5.37 0 0 1-4.27 1.93c-2.07 0-5.47-.92-5.47-6.84s4.23-6.84 6-6.84a4.6 4.6 0 0 1 3.49 1.33v-5.46h2.48v17.54zm-.55-10.15a5.19 5.19 0 0 0-3.26-1.33c-1.83 0-3.72.73-3.72 4.86 0 4.37 1.93 4.87 3.49 4.87a6.23 6.23 0 0 0 3.49-1.51zm10.15 10.38a11.31 11.31 0 0 1-4.13-.74v-2.11a17.9 17.9 0 0 0 4.08.83c1.33 0 2.67-.23 2.67-1.89 0-1.24-.92-1.51-2.07-1.83l-1.09-.28c-1.37-.41-3.67-1-3.67-3.76 0-3.13 2.53-3.91 5.14-3.91a7.79 7.79 0 0 1 3.68.78v2.07a9.87 9.87 0 0 0-3.77-.83c-1.65 0-2.71.33-2.71 1.75 0 1.24 1 1.51 2.11 1.84l1.29.36c1.52.42 3.44 1.29 3.44 3.77.08 3.12-2.17 3.95-4.97 3.95z"/>
	<path fill="#f99d1c" d="M159.21 60.65c.13 0 .23 0 .32-.09a78.21 78.21 0 0 0 7.47-2.71 28.55 28.55 0 0 0 6.84-3.91 15.21 15.21 0 0 0 4.77-6.74 4.77 4.77 0 0 0 .41-1.38c-3.3 4.54-16.48 5-16.48 5l3.09-2.82a43.44 43.44 0 0 0-25.2 8.17 23.82 23.82 0 0 1 13.36 6c1.79-.6 3.63-1.02 5.42-1.52zm20.61-.46a72.91 72.91 0 0 0-24.75 3.12 25.57 25.57 0 0 1 4.18 5.92c6.61-3.62 15.84-8.35 20.57-9.04zm-19.74 10.97a23.9 23.9 0 0 1 1.51 6.29l11.57-11.89z"/>
</svg>
