<svg xmlns="http://www.w3.org/2000/svg" width="200" height="128">
	<path d="M52.158 79.409a21.415 21.415 0 0 0-6.227-2.049 38.706 38.706 0 0 0-6.778-.552 32.635 32.635 0 0 1-5.518-.473 15.063 15.063 0 0 1-4.807-1.655 10.209 10.209 0 0 1-3.39-3.232 9.709 9.709 0 0 1-1.261-5.281 10.2 10.2 0 0 1 1.423-4.886 10.533 10.533 0 0 1 3.232-3.232 16.369 16.369 0 0 1 4.65-1.813 27.777 27.777 0 0 1 9.222-.315 14.468 14.468 0 0 1 3.625.946 11.594 11.594 0 0 1 3.228 1.733 11.714 11.714 0 0 1 2.522 2.68l.394.63 3-1.261-.631-.867a17.087 17.087 0 0 0-2.679-3.074 12.063 12.063 0 0 0-3.468-2.285 17.467 17.467 0 0 0-4.335-1.419 28.824 28.824 0 0 0-5.518-.473 27.1 27.1 0 0 0-6.069.709 20.291 20.291 0 0 0-5.753 2.207 12.918 12.918 0 0 0-4.335 4.178 11.84 11.84 0 0 0-1.655 6.384 13.059 13.059 0 0 0 1.57 6.622 11.818 11.818 0 0 0 4.1 4.256 16.836 16.836 0 0 0 5.753 2.207 36.281 36.281 0 0 0 6.621.63 48.068 48.068 0 0 1 5.675.394 16.474 16.474 0 0 1 5.281 1.577 10.818 10.818 0 0 1 3.862 3.152 8.5 8.5 0 0 1 1.418 5.2 8.319 8.319 0 0 1-1.418 4.887 11.552 11.552 0 0 1-3.705 3.31 17.22 17.22 0 0 1-5.123 1.892 27.687 27.687 0 0 1-5.6.63 23.649 23.649 0 0 1-8.985-1.734 20.782 20.782 0 0 1-7.567-5.123l-.551-.63L20 95.33l.631.631a29.309 29.309 0 0 0 7.881 5.517 24.354 24.354 0 0 0 10.956 2.364 29.034 29.034 0 0 0 6.227-.709 22.974 22.974 0 0 0 6.147-2.286 15.307 15.307 0 0 0 4.729-4.256 11.3 11.3 0 0 0 1.892-6.621 12.61 12.61 0 0 0-1.734-6.7 14.7 14.7 0 0 0-4.571-3.861zM93.3 71.842a19.876 19.876 0 0 0-5.674-4.492 15.553 15.553 0 0 0-7.409-1.734 16.576 16.576 0 0 0-7.017 1.576 17.623 17.623 0 0 0-5.675 4.256 20.773 20.773 0 0 0-3.862 6.227 19.963 19.963 0 0 0-1.419 7.409 21.682 21.682 0 0 0 1.261 7.093 20.115 20.115 0 0 0 3.626 6.148 18.37 18.37 0 0 0 5.675 4.414 16.211 16.211 0 0 0 7.33 1.734 18.018 18.018 0 0 0 7.094-1.655 18.834 18.834 0 0 0 5.674-4.256 19.6 19.6 0 0 0 3.784-6.148 18.948 18.948 0 0 0 1.34-7.33 19.573 19.573 0 0 0-1.262-6.936 17.009 17.009 0 0 0-3.466-6.306zM80.217 101.32a12.962 12.962 0 0 1-5.833-1.34 14.553 14.553 0 0 1-4.571-3.625 15.681 15.681 0 0 1-3.074-5.2 20.361 20.361 0 0 1-1.261-6.148 17.193 17.193 0 0 1 1.022-5.835 18.337 18.337 0 0 1 3-5.28 15.648 15.648 0 0 1 4.729-3.784 12.683 12.683 0 0 1 5.99-1.418 12.869 12.869 0 0 1 5.753 1.34 16.445 16.445 0 0 1 4.73 3.625 17.358 17.358 0 0 1 3.152 5.2 16.31 16.31 0 0 1 1.182 6.069 17.193 17.193 0 0 1-1.024 5.833 18.358 18.358 0 0 1-3 5.28 15.661 15.661 0 0 1-4.729 3.784 12.166 12.166 0 0 1-6.066 1.499zm34.207-.867c-.552.158-1.025.237-1.419.315s-.867.158-1.34.237a7.2 7.2 0 0 1-1.261.079 2.654 2.654 0 0 1-2.365-1.1 3.67 3.67 0 0 1-.867-2.364V51.586h-3.152v45.951a6.94 6.94 0 0 0 1.655 4.571 5.752 5.752 0 0 0 4.729 1.971A15.166 15.166 0 0 0 112.3 104c.551-.079 1.1-.158 1.576-.236s1.025-.158 1.655-.316l1.1-.236-1.419-2.916zm13.556-31.685a18.871 18.871 0 0 0-4.335 4.335v-6.936h-3.152v37.6h3.152V80.355a18.708 18.708 0 0 1 1.813-4.256 14.826 14.826 0 0 1 2.759-3.468A15.343 15.343 0 0 1 132 70.266a14.838 14.838 0 0 1 4.729-1.025l.867-.078v-3.074h-.867a15.525 15.525 0 0 0-8.749 2.679z" fill="#26222f"/>
	<path d="m172.828 31.882-26.01 28.138 32.709-15.054a25.74 25.74 0 0 0-6.699-13.084zm-19.311-8.355a25.742 25.742 0 0 0-10.167 2.049l-3.468 29.4L157.3 23.842a19.4 19.4 0 0 0-3.783-.315zm26.247 23.015-30.976 17.34 29.084-3.468A26.968 26.968 0 0 0 180 50.01a24.886 24.886 0 0 0-.236-3.468zm-11.429 25.379a27.3 27.3 0 0 0 8.355-9.143l-27.19 5.36zm-9.379-47.842-15.133 32.867 28.138-26.01a27.032 27.032 0 0 0-13.005-6.857zM155.8 76.335a26.049 26.049 0 0 0 8.276-2.049l-15.291-1.813zm-26.4-37.202a25.614 25.614 0 0 0-2.207 8.512l4.1 7.33zM141.064 26.6a26.3 26.3 0 0 0-9.3 8.355l3.862 19.31z" fill="#da4326"/>
</svg>
