<svg xmlns="http://www.w3.org/2000/svg" viewBox="0 0 71.94 77.56">
	<defs>
		<style>
			.cls-1{fill:#29b473}.cls-3{fill:#1aba73}
		</style>
	</defs>
	<g id="Product_Logos_Vertical" data-name="Product Logos Vertical">
		<g id="Nexus_Repo" data-name="Nexus Repo">
			<path class="cls-1" d="M36.6 27v-7.44a3.77 3.77 0 0 1 2.77-1.28 3.61 3.61 0 0 1 .82.07v-2.89a4.93 4.93 0 0 0-3.59 1.79v-1.51h-3V27Z"/>
			<path style="fill:#1c1f2a" d="M17.47 10.18v21.38l18.5 10.69 18.5-10.69V11.3l-4.54 2.62v15.02L35.97 37l-13.95-8.06V12.81L35.1 5.25V0L17.47 10.18z"/>
			<path class="cls-1" d="M36.92 0v5.25l12.28 7.1 4.54-2.62L36.92 0z"/>
			<path d="M20.87 53.55c0-1.4-.72-1.86-1.81-1.86a3 3 0 0 0-2.34 1.23V59h-1.58v-8.5h1.58v1.2a4 4 0 0 1 3-1.41A2.44 2.44 0 0 1 22.46 53v6h-1.59Z"/>
			<path d="M27.65 50.28c2.55 0 4.13 2 4.13 4.59v.39h-6.72A2.8 2.8 0 0 0 28 57.9a3.61 3.61 0 0 0 2.51-1l.74 1a4.76 4.76 0 0 1-3.41 1.27 4.46 4.46 0 0 1-.14-8.92ZM25 54.12h5.19a2.51 2.51 0 0 0-2.58-2.54A2.61 2.61 0 0 0 25 54.12Z"/>
			<path d="M35.85 55.68 33.46 59h-1.8l3.19-4.36-3-4.14h1.79l2.2 3.06L38 50.49h1.8l-3 4.14L40 59h-1.77Z"/>
			<path d="M46.46 57.83a4.2 4.2 0 0 1-3 1.37 2.39 2.39 0 0 1-2.71-2.71v-6h1.58V56c0 1.41.7 1.83 1.79 1.83a3.07 3.07 0 0 0 2.36-1.19v-6.15h1.59V59h-1.61Z"/>
			<path d="M49.88 56.72a4.11 4.11 0 0 0 2.85 1.21c1.19 0 1.83-.49 1.83-1.21s-1-1.13-2.06-1.37c-1.44-.34-3.13-.72-3.13-2.55 0-1.36 1.16-2.52 3.24-2.52a4.55 4.55 0 0 1 3.23 1.21l-.7 1.11a3.33 3.33 0 0 0-2.52-1c-1.07 0-1.74.42-1.74 1.1s.92 1 2 1.23c1.48.34 3.24.74 3.24 2.7 0 1.46-1.2 2.6-3.43 2.6a4.83 4.83 0 0 1-3.54-1.32Z"/>
			<path class="cls-3" d="M0 65.61h1.58v1.3a3.63 3.63 0 0 1 2.78-1.49V67a2.16 2.16 0 0 0-.54 0 3 3 0 0 0-2.24 1.2v5.91H0Z"/>
			<path class="cls-3" d="M9 65.4c2.56 0 4.14 2 4.14 4.59v.39H6.39A2.79 2.79 0 0 0 9.27 73a3.61 3.61 0 0 0 2.52-1l.74 1a4.77 4.77 0 0 1-3.41 1.27A4.46 4.46 0 0 1 9 65.4Zm-2.6 3.84h5.19A2.51 2.51 0 0 0 9 66.7a2.6 2.6 0 0 0-2.63 2.54Z"/>
			<path class="cls-3" d="M14.4 77.35V65.61H16v1.22a3.46 3.46 0 0 1 2.78-1.43c2.22 0 3.78 1.67 3.78 4.45s-1.56 4.47-3.8 4.47A3.4 3.4 0 0 1 16 72.88v4.47Zm3.94-10.54A2.9 2.9 0 0 0 16 68.06v3.6a3 3 0 0 0 2.36 1.25c1.58 0 2.55-1.28 2.55-3.06s-.99-3.04-2.57-3.04Z"/>
			<path class="cls-3" d="M23.32 69.85a4.3 4.3 0 1 1 4.29 4.47 4.22 4.22 0 0 1-4.29-4.47Zm6.93 0c0-1.6-.93-3-2.64-3a2.76 2.76 0 0 0-2.64 3c0 1.62 1 3.06 2.64 3.06s2.64-1.44 2.64-3.06Z"/>
			<path class="cls-3" d="M33.23 71.84a4.13 4.13 0 0 0 2.85 1.21c1.19 0 1.83-.49 1.83-1.21s-1-1.13-2.06-1.37c-1.44-.34-3.13-.72-3.13-2.55 0-1.36 1.16-2.52 3.24-2.52a4.55 4.55 0 0 1 3.23 1.21l-.7 1.11a3.3 3.3 0 0 0-2.52-1c-1.07 0-1.74.42-1.74 1.1s.92 1 2 1.23c1.48.34 3.24.74 3.24 2.7 0 1.46-1.2 2.6-3.43 2.6A4.83 4.83 0 0 1 32.47 73Z"/>
			<path class="cls-3" d="M40.5 63.18a1 1 0 1 1 2 0 1 1 0 0 1-2 0Zm.24 2.43h1.59v8.5h-1.59Z"/>
			<path class="cls-3" d="M44.46 72.23V67h-1.41v-1.39h1.41v-2.32H46v2.32h1.72V67H46v4.87c0 .6.28 1 .83 1a1.24 1.24 0 0 0 .86-.33l.4 1.19a2.22 2.22 0 0 1-1.65.55 1.85 1.85 0 0 1-1.98-2.05Z"/>
			<path class="cls-3" d="M48.65 69.85a4.29 4.29 0 1 1 4.29 4.47 4.22 4.22 0 0 1-4.29-4.47Zm6.93 0c0-1.6-.93-3-2.64-3a2.76 2.76 0 0 0-2.64 3c0 1.62 1 3.06 2.64 3.06s2.64-1.44 2.64-3.06Z"/>
			<path class="cls-3" d="M58.18 65.61h1.59v1.3a3.61 3.61 0 0 1 2.78-1.49V67a2.29 2.29 0 0 0-.55 0 3 3 0 0 0-2.23 1.23v5.91h-1.59Z"/>
			<path class="cls-3" d="M65 76.15a1.17 1.17 0 0 0 1.23-.83l.5-1.12-3.5-8.59h1.69l2.65 6.67 2.66-6.67h1.7l-4.17 10.12a2.69 2.69 0 0 1-2.71 1.83 4.63 4.63 0 0 1-1-.13l.26-1.43a1.86 1.86 0 0 0 .69.15Z"/>
		</g>
	</g>
</svg>
