<svg xmlns="http://www.w3.org/2000/svg" width="200" height="128">
	<path fill="#1b171b" d="M27.51 67.1c-1.9-.67-2.51-1-2.51-1.77s.67-1.27 1.84-1.27a7.55 7.55 0 0 1 3.35.88l.86-3.32a10.48 10.48 0 0 0-4.37-.89c-3.83 0-6.3 2.19-6.3 5.07 0 1.84 1.2 3.58 4.4 4.66 1.81.6 2.28 1 2.28 1.77s-.59 1.29-2.06 1.29a9.34 9.34 0 0 1-4.14-1.17L20 75.81a11 11 0 0 0 5 1.08c4.44 0 6.72-2.13 6.72-5-.03-2.29-1.27-3.77-4.21-4.79zm13.23-6.37c-5 0-8.26 3.2-8.26 8.2s3.48 8 8 8c4.14 0 8.17-2.6 8.17-8.26a7.53 7.53 0 0 0-7.91-7.94zm-.12 12.72c-2.06 0-3.17-2-3.17-4.65 0-2.28.86-4.66 3.17-4.66s3.07 2.35 3.07 4.66c0 2.78-1.2 4.65-3.07 4.65zm18.92-12.72a5.66 5.66 0 0 0-4.78 2.47h-.1l-.23-2.13h-4.18c.06 1.37.13 3 .13 4.94v10.54h4.82v-8.93a3.16 3.16 0 0 1 .2-1.2 2.55 2.55 0 0 1 2.43-1.81c1.74 0 2.44 1.36 2.44 3.36v8.59h4.81v-9.19c0-4.56-2.38-6.64-5.54-6.64zm21.05 6.66c0-3.64-1.64-6.68-6.8-6.68a12.83 12.83 0 0 0-6 1.36l.89 3.11A8.65 8.65 0 0 1 72.93 64c2.37 0 2.82 1.18 2.82 2v.22c-5.48 0-9.09 1.9-9.09 5.92a4.75 4.75 0 0 0 5 4.75A5.55 5.55 0 0 0 76.09 75h.09l.28 1.56h4.36a23.68 23.68 0 0 1-.23-3.77zm-4.69 3.53a3.23 3.23 0 0 1-.1.82 2.63 2.63 0 0 1-2.49 1.78 1.73 1.73 0 0 1-1.9-1.84c0-1.87 2-2.47 4.49-2.44zm11.53-6.99h-.12l-.16-2.85H83c.06 1.33.13 2.82.13 5.1v10.39H88v-7.84a6.38 6.38 0 0 1 0-1.08 3.11 3.11 0 0 1 3.3-2.45 7 7 0 0 1 1.29.13V60.8a5.72 5.72 0 0 0-1-.07 4.57 4.57 0 0 0-4.16 3.2zm36.94 8.44V61.23h-2.79v9.4a3.91 3.91 0 0 1-3.92 4c-2.53 0-3.42-2-3.42-4.87v-8.53h-2.78v9c0 5.39 2.88 6.71 5.29 6.71a5.77 5.77 0 0 0 5.06-2.85h.07l.16 2.51h2.47a57.52 57.52 0 0 1-.13-4.19zm11.42-11.48a5.72 5.72 0 0 0-5.23 2.81h-.06v-9.63h-2.75V72.6c0 1.36-.07 2.91-.13 4H130l.12-2.54h.1a5.45 5.45 0 0 0 5.13 2.88c3.42 0 6.87-2.73 6.87-8.2.06-4.69-2.63-7.85-6.43-7.85zm-1 13.79a4.29 4.29 0 0 1-4.17-3.25 5.93 5.93 0 0 1-.13-1v-2.77a5.9 5.9 0 0 1 .16-1.15 4.44 4.44 0 0 1 4.25-3.41c3 0 4.56 2.63 4.56 5.7 0 3.51-1.74 5.88-4.66 5.88zm22.11-6.58c0-2.82-1.33-7.22-6.33-7.22-4.47 0-7.19 3.65-7.19 8.27s2.82 7.72 7.54 7.72a12.3 12.3 0 0 0 5.1-1l-.47-2a10.17 10.17 0 0 1-4.25.79c-2.78 0-5.19-1.55-5.25-5.32h10.76a9.11 9.11 0 0 0 .09-1.24zm-10.83-.69c.24-1.94 1.47-4.53 4.28-4.53 3.14 0 3.9 2.75 3.87 4.53zM108.16 64a8.28 8.28 0 1 0-3.55 12.24l3.2 5.2 2.54-1.73-3.2-5.2A8.26 8.26 0 0 0 108.16 64zm-3.58 9.44a5.79 5.79 0 1 1 1.53-8.05 5.79 5.79 0 0 1-1.53 8.04z"/>
	<path fill="#4e9bcd" d="M144.92 46v2A28.9 28.9 0 0 1 174 76.62h2A30.86 30.86 0 0 0 144.92 46z"/>
	<path fill="#4e9bcd" d="m157.29 43.43-.44 1.57a29.55 29.55 0 0 1 20.46 21.09l1.58-.38a31.17 31.17 0 0 0-21.6-22.28zm21.52 13.35 1.19-.53a31.34 31.34 0 0 0-12.16-13.58l-.67 1.12a30.1 30.1 0 0 1 11.64 12.99z"/>
</svg>
