<svg xmlns="http://www.w3.org/2000/svg" width="200" height="128">
	<path d="M41.89 75.24A7.82 7.82 0 0 1 38.72 82c-2.12 1.54-5.16 2.31-9.1 2.31a27.72 27.72 0 0 1-5.3-.44 19.65 19.65 0 0 1-4.27-1.36v-5.8a28.26 28.26 0 0 0 4.81 1.74 19.34 19.34 0 0 0 5 .71 7.34 7.34 0 0 0 4.08-.87A2.72 2.72 0 0 0 35.16 76a2.64 2.64 0 0 0-.49-1.55 6.24 6.24 0 0 0-1.9-1.49 39.46 39.46 0 0 0-4.29-2 32.39 32.39 0 0 1-4.7-2.28A8.14 8.14 0 0 1 21 65.9a7.83 7.83 0 0 1-1-4.07 6.7 6.7 0 0 1 3.15-6 15.08 15.08 0 0 1 8.31-2 23.55 23.55 0 0 1 5.14.55A25.48 25.48 0 0 1 41.46 56l-2.17 5q-2.07-.87-4-1.47a14 14 0 0 0-4-.59q-4.52 0-4.51 2.55a2.32 2.32 0 0 0 .57 1.58 7 7 0 0 0 2 1.38c1 .49 2.32 1.08 4.1 1.77a32.42 32.42 0 0 1 4.51 2.14 8.57 8.57 0 0 1 2.93 2.72 7.53 7.53 0 0 1 1 4.16zM72.05 69q0 7.34-3.81 11.33t-10.32 4a14.19 14.19 0 0 1-7.17-1.8 12.44 12.44 0 0 1-4.94-5.21A17.65 17.65 0 0 1 44 69q0-7.34 3.78-11.28t10.29-3.94a14.51 14.51 0 0 1 7.23 1.77 12.37 12.37 0 0 1 4.94 5.16A17.54 17.54 0 0 1 72.05 69zM51 69q0 4.66 1.66 7.22A5.89 5.89 0 0 0 58 78.78a5.89 5.89 0 0 0 5.32-2.56Q65 73.67 65 69t-1.69-7.17a6 6 0 0 0-5.31-2.5c-2.47 0-4.24.83-5.33 2.5S51 65.88 51 69zm39.74-15.22a15.34 15.34 0 0 1 1.57.09 11.28 11.28 0 0 1 1.41.19l-.59 6.35c-.37-.07-.81-.13-1.33-.19s-1-.08-1.34-.08a9.42 9.42 0 0 0-4.07.9 7.17 7.17 0 0 0-3.07 2.74 8.7 8.7 0 0 0-1.17 4.73v15.26h-6.84V54.33h5.27l1 5.1h.33a12.49 12.49 0 0 1 3.59-4 8.75 8.75 0 0 1 5.24-1.65zM110 78.83a12.87 12.87 0 0 0 2.48-.24q1.22-.25 2.25-.57v5.1a10.71 10.71 0 0 1-2.82.87 19.56 19.56 0 0 1-3.64.33 12.17 12.17 0 0 1-4.6-.82 6.47 6.47 0 0 1-3.23-2.88 11.63 11.63 0 0 1-1.19-5.81V59.49h-4v-3l4.35-2.39 2.17-6.25h4.29v6.47h8.37v5.16h-8.37v15.28a3.92 3.92 0 0 0 1.12 3.07 4 4 0 0 0 2.82 1zm22 5.49a10.27 10.27 0 0 1-8.29-3.83q-3.18-3.84-3.18-11.39t3.21-11.46a11.44 11.44 0 0 1 13.8-2.64 10.6 10.6 0 0 1 3.34 3h.33q-.17-.77-.33-2.31a27.9 27.9 0 0 1-.16-3V42.48h6.84v41.29h-5.32L141 79.92h-.27a10.78 10.78 0 0 1-3.32 3.08 10.13 10.13 0 0 1-5.41 1.32zm2.06-5.54q3.81 0 5.35-2.18c1-1.44 1.57-3.64 1.61-6.57v-.87a14.33 14.33 0 0 0-1.5-7.25c-1-1.69-2.85-2.53-5.57-2.53a5.38 5.38 0 0 0-4.78 2.62 13.44 13.44 0 0 0-1.65 7.25q0 4.68 1.68 7.12a5.57 5.57 0 0 0 4.89 2.41zm25.84-36.3v9.78c0 1.16 0 2.29-.11 3.37s-.15 1.94-.22 2.56h.33a9.57 9.57 0 0 1 8.64-4.41 10.23 10.23 0 0 1 8.28 3.86Q180 61.5 180 69t-3.21 11.46a10.41 10.41 0 0 1-8.42 3.86 10.13 10.13 0 0 1-5.29-1.2 10.85 10.85 0 0 1-3.18-2.77h-.49l-1.25 3.42h-5.11V42.48zm6.68 16.85q-3.69 0-5.16 2.22t-1.52 6.85v.6a14.65 14.65 0 0 0 1.44 7.22q1.44 2.5 5.35 2.5a5.24 5.24 0 0 0 4.67-2.52q1.64-2.53 1.64-7.26t-1.66-7.22a5.41 5.41 0 0 0-4.76-2.39z"/>
</svg>
