<svg xmlns="http://www.w3.org/2000/svg" height="192" width="336" xml:space="preserve">
	<defs>
		<clipPath id="a" clipPathUnits="userSpaceOnUse">
			<path d="M0 144h252V0H0Z"/>
		</clipPath>
		<clipPath id="b" clipPathUnits="userSpaceOnUse">
			<path d="M72.5 136H176V12.22H72.5Z"/>
		</clipPath>
	</defs>
	<g clip-path="url(#a)" transform="matrix(1.33333 0 0 -1.33333 0 192)">
		<g clip-path="url(#b)">
			<path style="fill:#fefefe;fill-opacity:1;fill-rule:nonzero;stroke:none" d="M0 0c0 40.985.001 81.972-.017 122.958 0 .657.148.806.806.806 33.963-.019 67.926-.019 101.889 0 .657 0 .805-.148.805-.806-.018-40.723-.018-81.445 0-122.168 0-.658-.148-.807-.805-.807C68.452.002 34.226 0 0 0" transform="translate(72.517 12.236)"/>
			<path style="fill:#2666b0;fill-opacity:1;fill-rule:nonzero;stroke:none" d="M0 0c.859-.476 1.709-.97 2.581-1.422.679-.351.979-.883.936-1.633-.011-.174-.001-.35-.001-.526 0-13.127-.012-26.253.02-39.379.003-1.137-.315-1.897-1.371-2.364-.689-.305-1.332-.714-1.996-1.076-.633.005-.634.495-.658.916-.056.957 0 1.918-.036 2.875.015.358-.258.637-.277.986.083 1.31-.01 2.625.084 3.933.056.773.248.868.871.588.338-.256.351-.258.376-.095.027.173.011.351.011.526 0 9.887.001 19.775-.002 29.662 0 .521.093 1.114-.719 1.121-.368.241-.378.619-.381.999-.01 1.241.099 2.478.026 3.723C-.56-.769-.721-.132 0 0" transform="translate(157.11 116.006)"/>
			<path style="fill:#2cb3de;fill-opacity:1;fill-rule:nonzero;stroke:none" d="M0 0c-.083.026-.175.038-.248.081-2.437 1.429-2.2.996-2.2 3.709-.001 12.635.046 25.271-.049 37.906-.014 1.896.684 2.883 2.325 3.45.288-.271.255-.634.243-.973-.029-.894.136-1.788.047-2.676-.055-.54.296-.853.508-1.253.035-3.915.017-7.829.012-11.744C.632 21.753.674 15.005.616 8.258a2.538 2.538 0 0 1 .033-.436C-.078 5.723.42 3.551.271 1.417.237.936.386.416 0 0" transform="translate(90.222 70.138)"/>
			<path style="fill:#2ca8d3;fill-opacity:1;fill-rule:nonzero;stroke:none" d="M0 0c-.062-4.369-3.104-7.383-7.367-7.298-4.303.086-7.267 3.157-7.216 7.477.052 4.4 3.124 7.346 7.577 7.266C-2.826 7.37.061 4.302 0 0" transform="translate(163.383 35.696)"/>
			<path style="fill:#2ca8d3;fill-opacity:1;fill-rule:nonzero;stroke:none" d="M0 0c-.044-4.378-3.049-7.391-7.323-7.344-4.285.048-7.287 3.122-7.26 7.435.027 4.366 3.062 7.346 7.447 7.314C-2.887 7.373.044 4.332 0 0" transform="translate(110.947 35.74)"/>
			<path style="fill:#2ca8d3;fill-opacity:1;fill-rule:nonzero;stroke:none" d="M0 0c.723 0 1.448.002 2.175-.001.633-.003.816-.5.992-.96 1.208-3.161 2.402-6.327 3.603-9.491.049-.133.12-.258.195-.417 1.101 3.312 2.47 6.473 3.625 9.715.316.887.811 1.218 1.751 1.181 1.653-.063 1.659-.015 1.045-1.54-1.624-4.032-3.267-8.057-4.861-12.101-.242-.615-.523-.841-1.191-.821-1.659.049-1.659.013-2.273 1.536C3.454-8.923 1.845-4.946.246-.967.13-.679-.07-.404 0 0" transform="translate(128.412 42.977)"/>
			<path style="fill:#2ca8d3;fill-opacity:1;fill-rule:nonzero;stroke:none" d="M0 0c1.347.021 2.585-.319 3.692-1.119.338-.244.436-.435.234-.851-.681-1.4-.803-1.466-2.223-.739-.898.459-1.82.626-2.785.273-.651-.238-1.062-.669-1.101-1.42-.04-.774.39-1.218 1.009-1.483.935-.402 1.908-.716 2.854-1.095 1.946-.777 2.703-1.815 2.687-3.641-.016-1.968-1.073-3.646-2.81-4.245-2.284-.789-4.4-.357-6.394.99-.827.558-.324.989-.039 1.49.324.57.741.918 1.422.55.513-.276 1.004-.595 1.527-.848.835-.404 1.701-.362 2.545-.026.716.285 1.09.828 1.126 1.618.036.818-.367 1.344-1.075 1.63-.89.359-1.81.644-2.708.985-2.189.834-3.014 2.2-2.724 4.474C-4.537-1.679-2.87-.192-.875-.004-.585.023-.292 0 0 0" transform="translate(117.439 43.116)"/>
			<path style="fill:#2ca8d3;fill-opacity:1;fill-rule:nonzero;stroke:none" d="M0 0c1.286.017 2.448-.352 3.55-1.032.888-.549.224-1.016.026-1.51-.231-.576-.646-.82-1.253-.544-.45.206-.872.48-1.335.648-.863.311-1.728.275-2.524-.218-.907-.562-.947-1.79-.091-2.436.521-.393 1.149-.558 1.748-.785.517-.195 1.044-.367 1.557-.573 1.925-.775 2.677-1.821 2.653-3.666-.025-1.963-1.101-3.637-2.841-4.224-2.289-.772-4.408-.342-6.387 1.029-.686.475-.404.856-.091 1.348.351.552.697 1.066 1.452.69.469-.233.897-.546 1.363-.786.755-.389 1.554-.465 2.379-.241.831.227 1.395.694 1.493 1.608.094.882-.306 1.472-1.096 1.785-.866.344-1.758.618-2.629.949-2.24.852-3.085 2.245-2.769 4.53.25 1.805 1.976 3.284 4.007 3.426C-.526.016-.263 0 0 0" transform="translate(90.643 43.122)"/>
			<path style="fill:#298cc7;fill-opacity:1;fill-rule:nonzero;stroke:none" d="M0 0c-.214-.143-.437-.273-.64-.431-1.009-.785-1.964-.654-2.883.159-.205 1.113-.035 2.235-.088 3.353-.042 4.731-.016 9.46-.014 14.19 0 .263.021.525.095.78.294.986.199 2.01.252 3.015.074 1.423.129 1.525 1.578 1.513.515-.004 1.054.118 1.536-.183.374-.552.225-1.181.23-1.778.006-.595.249-.832.837-.823.812.014 1.623.021 2.436-.006.984.028 1.969.027 2.952.001a55.27 55.27 0 0 0 2.992.001 88.54 88.54 0 0 0 4.025 0c1.515.03 3.031.034 4.546 0 1.288.028 2.575.032 3.862 0 1.34.027 2.68.032 4.021-.001.569.019 1.142.066 1.702-.047.351-.071.689-.212.262-.635-7.326-.077-14.652-.013-21.979-.033-1.576-.005-3.153.004-4.729-.003-1.191-.005-1.248-.058-1.252-1.221-.015-4.733.023-9.466-.027-14.2-.003-.299.042-.507.333-.622C.385 2.013.389 1.004 0 0" transform="translate(126.196 51.506)"/>
			<path style="fill:#2ca9d3;fill-opacity:1;fill-rule:nonzero;stroke:none" d="M0 0c0-2.102-.017-4.202.012-6.303.008-.574-.098-.819-.753-.816-2.046.009-2.046-.021-2.046 2.039 0 3.851.018 7.703-.018 11.555-.006.703.203.877.88.865C0 7.309 0 7.338 0 5.427Z" transform="translate(146.482 35.662)"/>
			<path style="fill:#2ca9d3;fill-opacity:1;fill-rule:nonzero;stroke:none" d="M0 0c0-2.101-.018-4.202.012-6.303.008-.578-.106-.815-.756-.813-2.044.009-2.044-.02-2.044 2.042 0 3.851.019 7.703-.017 11.554-.007.707.21.874.882.863C-.001 7.312 0 7.341 0 5.427Z" transform="translate(126.842 35.66)"/>
			<path style="fill:#2cb0dd;fill-opacity:1;fill-rule:nonzero;stroke:none" d="M0 0c.002 1.968.019 3.937-.001 5.904-.007.681-.05 1.346.533 1.843.192 1.344 1.048 2.349 1.766 3.42.126.188.352.188.484-.066.228-.976.058-1.967.114-2.95.029-.487-.08-.988.143-1.455.201-.483-.128-.83-.316-1.212a11.34 11.34 0 0 0-.611-1.058c-.276-.43-.28-.686.344-.678.329.003.715.091.936-.296C3.016 2.133 3.145.78 3.133-.561c-.004-.399.138-.822-.346-1.053A21.34 21.34 0 0 0 0 0" transform="translate(90.222 70.138)"/>
			<path style="fill:#2989c5;fill-opacity:1;fill-rule:nonzero;stroke:none" d="M0 0c1.051-.494 2.042-1.09 3.008-1.732-.026-.916.188-1.85-.195-2.739-.381-.191-.518-.408-.248-.841.293-.47.712-.941.455-1.586-.283-.846-.124-1.718-.167-2.578-.028-.544.073-1.096-.115-1.629-.191-.311-.439-.187-.555.012C1.153-9.339-.088-7.699-.735-5.738c-.036.11-.018.232-.01.35.18 1.484.022 2.975.109 4.458C-.613-.545-.823.115 0 0" transform="translate(126.388 133.89)"/>
			<path style="fill:#2990c9;fill-opacity:1;fill-rule:nonzero;stroke:none" d="M0 0a34.578 34.578 0 0 0 3.333 1.924c.457-.386.401-.927.429-1.441.058-1.092-.108-2.192.112-3.278.109-.229.068-.462-.041-.667-.885-1.651-1.657-3.369-2.86-4.83-.036-.044-.092-.069-.142-.098-.522-.131-.485.285-.53.574-.11.692-.033 1.39-.02 2.086.012.611-.032 1.217-.116 1.82.042.389.278.83-.283 1.064C-.304-1.887-.437-.931 0 0" transform="translate(119.515 132.455)"/>
			<path style="fill:#2baddb;fill-opacity:1;fill-rule:nonzero;stroke:none" d="M0 0c.125.263.259.523.155.83-.211.627-.16 1.245.006 1.878.071.271.102.615-.005.857-.288.652-.042 1.115.396 1.554.939.517 1.912.338 2.886.14.339-.381-.028-.705-.103-1.043-.255-1.152-.05-1.439 1.093-1.446.729-.005 1.457.007 2.187-.001 1.313.036 2.625.031 3.937.004 1.398.031 2.795.033 4.193 0a79.05 79.05 0 0 0 3.865 0c1.458.037 2.917.025 4.375.005 1.345.022 2.69.029 4.035-.005.667.035 1.336.038 2.003 0 .327-.017.728.038.842-.428-.444-.402-.993-.273-1.503-.274-8.336-.008-16.672-.006-25.008-.007-.232 0-.466.019-.809-.025.318-.275.676-.418.844-.743-.056-1.047.236-2.117-.206-3.139Z" transform="translate(93.009 68.523)"/>
			<path style="fill:#266bb3;fill-opacity:1;fill-rule:nonzero;stroke:none" d="M0 0c.288.277.05.313-.16.318-.574.017-1.149.014-1.723.018-.529 1.144-.333 2.098.571 2.771 1.44.163 2.879.291 4.307-.096.011-1.081.026-2.162.028-3.243.001-.364-.002-.714.413-.875-1.078-.73-2.219-1.349-3.372-1.95-.387.158-.468.524-.471.856-.005.658-.112 1.314-.049 1.974.093.196.214.333.456.227" transform="translate(153.843 70.713)"/>
			<path style="fill:#276bb3;fill-opacity:1;fill-rule:nonzero;stroke:none" d="M0 0c-.412-.252-.276-.705-.282-1.032-.03-1.59.019-3.182.041-4.773-.418-.628-.968-1.012-1.758-.954-.509.33-.407.859-.419 1.34-.012.491-.039.987.055 1.475.091.368.353.604.669.767.627.324.401.545-.053.806-.607.349-1.228.675-1.817 1.054-.297.19-.603.37-.667.765.028.596.057 1.192.08 1.788.014.356.006.769.523.826C-2.362 1.474-1.163.77 0 0" transform="translate(157.11 116.006)"/>
			<path style="fill:#298cc7;fill-opacity:1;fill-rule:nonzero;stroke:none" d="M0 0c-.473.117-.3.504-.314.794-.064 1.365.136 2.741-.18 4.096 1.374 1.241 2.438.236 3.54-.489-.475-.067-.379-.438-.381-.742-.006-1.135-.016-2.269.003-3.404.008-.529-.036-1.042-.208-1.542-.684.157-.722.844-1.028 1.297C.847.878.876.897.215.137A.458.458 0 0 0 0 0" transform="translate(123.341 129.49)"/>
			<path style="fill:#2cb0dd;fill-opacity:1;fill-rule:nonzero;stroke:none" d="M0 0c-.576.051-.694.455-.697.93-.008 1.258-.006 2.517-.008 3.776A16.147 16.147 0 0 0 1.747 6.12c.378-.406.23-.912.253-1.381.021-.426.006-.853.121-1.267.115-.495-.203-.627-.578-.744.143-.267.666-.278.628-.747-.124-.454-.187-.905-.088-1.379.109-.531.01-1.042-.261-1.517C.953-1.134.43-.659 0 0" transform="translate(90.755 110.578)"/>
			<path style="fill:#2a9dd1;fill-opacity:1;fill-rule:nonzero;stroke:none" d="M0 0c-1.431.762-2.845 1.554-4.206 2.437-.461.851-.267 1.753-.191 2.642.021.244.189.419.442.481.471.067.839-.189 1.215-.407.782-.451 1.564-.9 2.35-1.344.275-.156.566-.317.648-.669-.075-.77.085-1.536.04-2.306C.28.518.325.198 0 0" transform="translate(111.099 57.906)"/>
			<path style="fill:#2772b7;fill-opacity:1;fill-rule:nonzero;stroke:none" d="M0 0c-1.456-1.009-3.059-1.764-4.588-2.647-.455.579-.202 1.26-.265 1.894a7.949 7.949 0 0 0-.03.939c.029.324.238.531.494.677 1.211.696 2.415 1.406 3.641 2.075.225.124.49.248.679-.084C.138 1.907.04.953 0 0" transform="translate(150.593 65.754)"/>
			<path style="fill:#2a99cf;fill-opacity:1;fill-rule:nonzero;stroke:none" d="M0 0c-.02.208.114.297.274.387 1.251.703 2.498 1.412 3.747 2.119.525-.504.429-1.167.454-1.797.015-.377.01-.755.013-1.133.011-.187-.048-.359-.205-.456C3.096-1.617 1.915-2.366.625-2.919a.687.687 0 0 0-.514-.007C-.511-1.973-.351-.99 0 0" transform="translate(111.086 127.414)"/>
			<path style="fill:#2ba2d4;fill-opacity:1;fill-rule:nonzero;stroke:none" d="M0 0c-.458.042-.519-.236-.512-.605.013-.788.006-1.576.007-2.363L-4.72-.356c-.477.645-.377 2.202.183 2.881.139.057.292.081.426.025 1.448-.619 2.785-1.439 4.09-2.312C.053.188.035.084 0 0" transform="translate(107.397 63.31)"/>
			<path style="fill:#2a94cc;fill-opacity:1;fill-rule:nonzero;stroke:none" d="M0 0c-.276 1.003.065 2.069-.315 3.062l4.408 2.535c.11-.988-.235-2.005.195-2.972.036-.258-.162-.358-.329-.465C2.854 1.453 1.667.88.587.129A.857.857 0 0 0 0 0" transform="translate(115.422 126.858)"/>
			<path style="fill:#2a99ce;fill-opacity:1;fill-rule:nonzero;stroke:none" d="M0 0c.121.64.062 1.278.03 1.921-.02.409-.209.865.185 1.219 1.313-.587 2.542-1.328 3.78-2.05.285-.166.514-.378.484-.753-.136-.921.238-1.891-.27-2.774A9111.18 9111.18 0 0 1 0 0" transform="translate(111.099 57.906)"/>
			<path style="fill:#2877ba;fill-opacity:1;fill-rule:nonzero;stroke:none" d="M0 0c.379-.976.071-1.994.184-2.986A26.452 26.452 0 0 0-2.811-4.72c-.345-.173-.752-.284-.935-.687-.352-.17-.434.112-.425.324.039.952-.014 1.908.119 2.856C-2.955-1.229-1.593-.664-.321.047-.218.104-.099.077 0 0" transform="translate(145.821 66.093)"/>
			<path style="fill:#2ba1d4;fill-opacity:1;fill-rule:nonzero;stroke:none" d="M0 0a48.437 48.437 0 0 0 4.222 2.432c.199-.959-.014-1.936.135-2.897-.014-.287-.171-.491-.401-.635A50.036 50.036 0 0 0 .791-2.914a.77.77 0 0 0-.674-.034C-.511-1.989-.344-.998 0 0" transform="translate(103.19 122.862)"/>
			<path style="fill:#2a94cc;fill-opacity:1;fill-rule:nonzero;stroke:none" d="M0 0c0 .726-.006 1.452.001 2.178.003.279-.079.595.245.777C1.763 2.667 2.923 1.697 4.169.893c.123-.08.138-.247.13-.396-.008-.578.001-1.155-.024-1.73-.017-.37-.004-.769-.432-.959L0 0" transform="translate(115.308 55.47)"/>
			<path style="fill:#2baad9;fill-opacity:1;fill-rule:nonzero;stroke:none" d="M0 0c1.182.784 2.419 1.475 3.672 2.137.363-.355.246-.817.265-1.243.021-.497-.017-.996.137-1.478.08-.318-.121-.506-.345-.641-1.024-.613-2.044-1.236-3.118-1.76-.235-.115-.495-.179-.764-.082-.131.069-.277.163-.295.298C-.571-1.804-.648-.841 0 0" transform="translate(95.837 118.62)"/>
			<path style="fill:#2a9dd1;fill-opacity:1;fill-rule:nonzero;stroke:none" d="M0 0c-.323 1.022-.291 2.048-.026 3.076a36.905 36.905 0 0 0 3.674 2.119l.012-2.19c.002-.291-.043-.61.38-.659.012-.124-.019-.244-.12-.31C2.68 1.229 1.452.398 0 0" transform="translate(107.438 122.219)"/>
			<path style="fill:#2ba5d6;fill-opacity:1;fill-rule:nonzero;stroke:none" d="M0 0c-.406.045-.382.347-.383.638-.003.742-.009 1.484-.014 2.226l3.681 2.105c.005-.73.008-1.459.017-2.189.003-.284-.063-.613.364-.669.013-.059.026-.135-.011-.163C2.537 1.109 1.395.317 0 0" transform="translate(99.906 117.894)"/>
			<path style="fill:#2990c9;fill-opacity:1;fill-rule:nonzero;stroke:none" d="M0 0c.33.599.131 1.251.191 1.876.033.33-.135.705.201.974a8.997 8.997 0 0 0 3.293-1.738c-.091-1.05.196-2.12-.163-3.156C2.317-1.416 1.13-.757 0 0" transform="translate(119.15 53.277)"/>
			<path style="fill:#2882c1;fill-opacity:1;fill-rule:nonzero;stroke:none" d="M0 0c1.064-.728 2.326-1.112 3.34-1.928-.025-.995.281-2.016-.234-2.973-.112-.102-.268-.186-.392-.123-1.092.551-2.295.932-3.081 1.965-.084.822.01 1.648-.052 2.472C-.437-.343-.442.024 0 0" transform="translate(132.172 130.559)"/>
			<path style="fill:#287bbd;fill-opacity:1;fill-rule:nonzero;stroke:none" d="M0 0c-.035-1.017-.074-2.033-.098-3.05-.001-.037.14-.078.214-.117-.935-.734-2.031-1.196-3.054-1.781-.481-.004-.408.388-.442.663-.092.74-.157 1.485-.103 2.233.051.361.337.517.606.684A32 32 0 0 0-.715-.104C-.492.013-.271.195 0 0" transform="translate(141.959 63.852)"/>
			<path style="fill:#2ba6d6;fill-opacity:1;fill-rule:nonzero;stroke:none" d="M0 0c-.111-.09-.314-.175-.319-.271-.04-.854-.285-1.703-.088-2.565A28.851 28.851 0 0 0-3.743-.912c-.458.905-.255 1.849-.167 2.785.099.284.311.321.552.219C-2.244 1.617-1.166 1.07-.166.381-.046.299.008.155 0 0" transform="translate(103.085 65.79)"/>
			<path style="fill:#287ebf;fill-opacity:1;fill-rule:nonzero;stroke:none" d="M0 0c.333.659.113 1.367.182 2.049.032.33-.133.705.211.968C1.626 2.506 2.608 1.594 3.735.914c-.263-.89-.021-1.831-.266-2.723-.152-.26-.389-.252-.6-.133-.932.523-1.891 1-2.755 1.637A.297.297 0 0 0 0 0" transform="translate(135.12 125.614)"/>
			<path style="fill:#2988c5;fill-opacity:1;fill-rule:nonzero;stroke:none" d="m0 0-.027 3.065c.01.351.292.488.534.623.704.397 1.389.829 2.111 1.192.307.153.641.366.869-.12.124-.957.242-1.913-.151-2.841C2.285 1.173 1.112.639 0 0" transform="translate(126.196 51.506)"/>
			<path style="fill:#276fb5;fill-opacity:1;fill-rule:nonzero;stroke:none" d="M0 0c-.366-.221-.291-.585-.295-.921-.007-.625.054-1.256-.176-1.859-.418-.171-.724.1-1.023.297-.738.486-1.639.733-2.199 1.483-.345.878-.098 1.778-.09 2.667.002.186.118.405.404.312C-2.281 1.271-1.014.852 0 0" transform="translate(153.481 118.067)"/>
			<path style="fill:#276eb5;fill-opacity:1;fill-rule:nonzero;stroke:none" d="M0 0c-.473.962-.094 1.983-.212 2.97.393.847 1.312.973 1.99 1.421.327.215.66.618 1.161.381.281-.936-.101-1.959.375-2.87C2.21 1.269 1.104.635 0 0" transform="translate(150.593 65.754)"/>
			<path style="fill:#287ebf;fill-opacity:1;fill-rule:nonzero;stroke:none" d="m0 0 .181-2.243c.021-.275-.08-.582.215-.781-.914-.736-2.043-1.096-3.01-1.739-.621-.011-.581.484-.57.848.023.633-.038 1.255-.084 1.881C-2.322-1.125-1.404-.171 0 0" transform="translate(138.625 61.929)"/>
			<path style="fill:#2881c1;fill-opacity:1;fill-rule:nonzero;stroke:none" d="M0 0c.196-.564.317-1.122.192-1.738-.072-.363-.141-.823.344-1.046a25.447 25.447 0 0 0-3.098-1.783c-.536-.047-.611.354-.648.724-.063.631-.077 1.267.03 1.897C-2.392-.855-1.282-.286 0 0" transform="translate(135.475 59.95)"/>
			<path style="fill:#2ba9d9;fill-opacity:1;fill-rule:nonzero;stroke:none" d="m0 0-.029-3.07c-1.094.523-2.132 1.146-3.15 1.802.106.986-.288 2.007.212 2.965C-1.86 1.339-.742.999 0 0" transform="translate(99.37 67.948)"/>
			<path style="fill:#2caedb;fill-opacity:1;fill-rule:nonzero;stroke:none" d="M0 0c-.297-.759-.136-1.583-.335-2.36-.079-.307.1-.553.415-.665-.766-.997-1.832-1.474-3.018-1.741-.418.045-.39.356-.391.653l-.006 2.19C-2.265-1.21-1.155-.565 0 0" transform="translate(95.837 118.62)"/>
			<path style="fill:#2985c3;fill-opacity:1;fill-rule:nonzero;stroke:none" d="M0 0c0-.657.006-1.313-.004-1.97-.005-.362.025-.691.424-.843-1.033-.816-2.308-1.213-3.381-1.958l-.034 3.086C-2.203-.756-1.22-.169 0 0" transform="translate(132.493 58.196)"/>
			<path style="fill:#2772b7;fill-opacity:1;fill-rule:nonzero;stroke:none" d="M0 0c-.25-1.004-.377-2.012-.076-3.03-.047-.036-.109-.09-.149-.074-1.184.481-2.372.959-3.187 2.026-.133.653-.084 1.312-.062 1.968.012.343.048.697.433.864C-2.116 1.015-.899.785 0 0" transform="translate(150.102 120.046)"/>
			<path style="fill:#2878bb;fill-opacity:1;fill-rule:nonzero;stroke:none" d="M0 0c.955-.442 1.879-.939 2.736-1.555-.099-.62-.063-1.239-.023-1.863a1.41 1.41 0 0 0-.296-.958c-.068-.054-.155-.131-.229-.101-1.101.46-2.244.859-2.974 1.904.012.71-.034 1.425.109 2.128.074.362.193.692.677.445" transform="translate(141.903 124.748)"/>
			<path style="fill:#287bbd;fill-opacity:1;fill-rule:nonzero;stroke:none" d="M0 0c-.93-.217-.424-1.02-.516-1.512-.067-.358-.086-.781-.145-1.174-1.121.205-2.067.718-2.797 1.604.003.693.013 1.387.007 2.081-.003.338.042.637.402.781C-2.03 1.19-.928.744 0 0" transform="translate(141.903 124.748)"/>
			<path style="fill:#2986c3;fill-opacity:1;fill-rule:nonzero;stroke:none" d="M0 0c-.263-.176-.253-.467-.194-.699.208-.821-.024-1.631-.01-2.445-1.071.514-2.221.905-2.981 1.906.319.602.113 1.253.175 1.879.032.33-.126.708.234.959A20.04 20.04 0 0 0 0 0" transform="translate(132.172 130.559)"/>
			<path style="fill:#2875b9;fill-opacity:1;fill-rule:nonzero;stroke:none" d="M0 0c.087.612.273 1.203.042 1.848-.115.322.057.725.358.992.795-.486 1.69-.797 2.422-1.393-.382-.974-.105-1.99-.187-2.983C1.552-1.376.662-.883 0 0" transform="translate(144.24 120.353)"/>
			<path style="fill:#fefefe;fill-opacity:1;fill-rule:nonzero;stroke:none" d="m0 0 1.511.928c1.015.474 1.015.474 1.015-.669.001-10.261.002-20.523-.005-30.784 0-.304.101-.63-.13-.99l-.729 1.182c-1.227 1.531-2.02 3.329-3.035 4.99-.439.719-1.033 1.344-1.331 2.15-.714 1.631-1.782 3.052-2.688 4.569-.193.325-.397.642-.516 1.004-1.126 2.128-2.238 4.264-3.51 6.31a123.162 123.162 0 0 1-2.029 3.551c-.529.891-.482 1.066.395 1.573.302.175.592.367.884.556 1.251.669 2.508 1.329 3.687 2.124 1.28.875 2.74 1.432 4.041 2.274C-1.628-.82-.933-.173 0 0" transform="translate(155.357 109.272)"/>
			<path style="fill:#fefefe;fill-opacity:1;fill-rule:nonzero;stroke:none" d="m0 0-4.357-.082c-.818-.415-1.698-.207-2.551-.243a17.61 17.61 0 0 0-1.641.003c-1.231.007-2.463-.03-3.695.001-1.566-.005-3.131-.026-4.695-.002-1.295.009-2.589-.018-3.882.007-.086.005-.172.01-.258.017-.395.031-.976-.116-1.107.275-.168.501.481.615.777.897 1.34.774 2.57 1.689 3.585 2.872.638 1.163 1.86 1.83 2.519 2.983.216.377.495.717.641 1.137 1.532 2.316 2.418 4.879 2.904 7.595.179 1.002.222 2.019.327 3.029.037.339-.046.71.278.965.383.002.422-.347.562-.575 1.048-1.702 1.989-3.466 3.019-5.179a219.492 219.492 0 0 1 3.168-5.461c1.201-2.098 2.358-4.22 3.542-6.328.23-.41.379-.842.539-1.275L0 0" transform="translate(156.838 73.724)"/>
			<path style="fill:#276bb3;fill-opacity:1;fill-rule:nonzero;stroke:none" d="M0 0c-1.573 2.424-2.811 5.039-4.258 7.535-.069 1.094-.052 2.191-.021 3.286.01.412-.014.903.606.953C-2.312 9.721-1.139 7.556.098 5.429c.157-.27.395-.508.409-.849-.192.086-.276.07-.341-.18-.153-.586-.205-1.209-.107-1.763C.218 1.735-.062.878 0 0" transform="translate(156.513 74.36)"/>
			<path style="fill:#fefefe;fill-opacity:1;fill-rule:nonzero;stroke:none" d="m0 0 1.732-.995c1.133-.203 1.935-1.05 2.94-1.503 1.262-.714 2.505-1.46 3.78-2.148 1.049-.655 2.126-1.261 3.201-1.872.477-.241.902-.575 1.398-.784.182-.092.347-.213.522-.315.529-.31.626-.688.296-1.23-.68-1.117-1.289-2.277-1.969-3.395-1.09-1.902-2.215-3.783-3.184-5.751-1.286-2.068-2.443-4.211-3.667-6.314-.822-1.377-1.611-2.774-2.425-4.156-.145-.245-.238-.542-.551-.648A32.958 32.958 0 0 1 0-32.693c-.339.196-.186.525-.186.789A21500.47 21500.47 0 0 0-.187-.799c0 .27-.131.594.187.799" transform="translate(90.755 110.578)"/>
			<path style="fill:#fefefe;fill-opacity:1;fill-rule:nonzero;stroke:none" d="M0 0c-.043-1.315-.503-2.946-2.208-3.883-1.546-.848-3.145-.789-4.669.095-1.62.94-2.391 3.268-1.913 5.61.593 2.912 3.124 4.371 5.936 3.423C-1.037 4.633.004 2.899 0 0" transform="translate(160.556 35.259)"/>
			<path style="fill:#fefefe;fill-opacity:1;fill-rule:nonzero;stroke:none" d="M0 0c-.001-2.363-1.099-4.148-2.905-4.723-2.863-.909-5.37.617-5.911 3.594-.562 3.093.964 5.703 3.539 6.057C-2.097 5.365.001 3.406 0 0" transform="translate(108.121 35.765)"/>
			<path style="fill:#fefefe;fill-opacity:1;fill-rule:nonzero;stroke:none" d="M0 0c-.898.727-2.029 1.043-2.968 1.697L-4.659 2.77c.033.225.208.164.334.164 9.146.001 18.292-.002 27.438-.006.116-.001.233-.025.348-.037.158-.397.248-.794.035-1.202l-.031-15.248c-1.123.532-2.243 1.068-3.293 1.738-1.27.871-2.642 1.563-3.989 2.298-1.126.719-2.235 1.471-3.492 1.953-.343.132-.568.367-.748.668a41.28 41.28 0 0 1-3.916 2.264c-1.39.909-2.839 1.717-4.313 2.48C2.575-1.268 1.189-.803 0 0" transform="translate(99.37 67.948)"/>
			<path style="fill:#fefefe;fill-opacity:1;fill-rule:nonzero;stroke:none" d="M0 0c-1.058-.456-2.021-1.08-2.995-1.685l-3.329-1.94c-.326-.129-.57-.231-.568.328.018 5.142.02 10.283.001 15.425-.002.769.513.555.897.556 7.267.005 14.534.002 21.802 0 1.576-.001 3.152.005 4.728-.008.273-.002.59.13.814-.159l-.311-.187c-1.094-.525-2.131-1.148-3.151-1.803l-4.56-2.631c-1.319-.69-2.618-1.418-3.862-2.24a29.056 29.056 0 0 1-3.334-1.924c-1.186-.443-2.07-1.366-3.151-1.978C1.956 1.223.939.678 0 0" transform="translate(132.493 58.196)"/>
			<path style="fill:#2882c1;fill-opacity:1;fill-rule:nonzero;stroke:none" d="m0 0-1.1-.765L.153-.847c-.057-.872.034-1.764-.349-2.592h-2.982c-.213.224-.261.508-.261.799 0 1.235-.065 2.472.038 3.705a.856.856 0 0 0 .422.627c.806.457 1.614.911 2.333 1.504.17.139.369.168.541-.025C.211 2.124.189 1.064 0 0" transform="translate(135.67 74.488)"/>
			<path style="fill:#2885c3;fill-opacity:1;fill-rule:nonzero;stroke:none" d="M0 0v-4.725l-2.98-.001c-.42 1.119-.408 2.261-.188 3.415.239.605.849.654 1.34.814C-1.231-.301-.724.27 0 0" transform="translate(132.493 75.774)"/>
			<path style="fill:#2879bc;fill-opacity:1;fill-rule:nonzero;stroke:none" d="M0 0h4.734c-.357-.827-.105-1.777-.519-2.592l-4.561-.001C-.815-1.57-.687-.603 0 0" transform="translate(139.853 73.642)"/>
			<path style="fill:#2989c5;fill-opacity:1;fill-rule:nonzero;stroke:none" d="m0 0 .027-3.582c-.964-.002-1.927.008-2.89-.013-.445-.01-.638.146-.624.608.023.73.007 1.461.008 2.192.138.212.37.275.583.368C-1.936-.25-1.014.192 0 0" transform="translate(129.485 74.63)"/>
			<path style="fill:#2871b7;fill-opacity:1;fill-rule:nonzero;stroke:none" d="M0 0h4.209c-.831-.732-.432-1.712-.521-2.593H-.347C-.832-1.55-.695-.523 0 0" transform="translate(148.272 73.642)"/>
			<path style="fill:#287ebf;fill-opacity:1;fill-rule:nonzero;stroke:none" d="M0 0c-.567-.804-.277-1.722-.346-2.593h-4.033c.028.877-.156 1.781.35 2.593H0" transform="translate(139.853 73.642)"/>
			<path style="fill:#298fc9;fill-opacity:1;fill-rule:nonzero;stroke:none" d="M0 0c-.137-.179-.34-.14-.524-.161-.723.004-1.446-.012-2.167.018-.494.02-.708-.184-.638-.661.152-1.028-.297-2.047-.032-3.078.057-.224-.115-.372-.303-.475l-.034 1.201c-.904.425-1.864.084-2.791.208-.517 1-.199 2.024-.068 3.037.028.217.265.283.468.331C-4.326.254-2.556.326-.789.288-.5.282-.202.261 0 0" transform="translate(126.53 73.995)"/>
			<path style="fill:#2774b9;fill-opacity:1;fill-rule:nonzero;stroke:none" d="M0 0c-.652-.792-.225-1.73-.347-2.593h-3.856c.089.882-.309 1.86.519 2.593z" transform="translate(148.272 73.642)"/>
			<path style="fill:#fefefe;fill-opacity:1;fill-rule:nonzero;stroke:none" d="M0 0h-4.877c.377 1.141 1.199 1.959 1.531 3.018-.102.356.135.603.283.879.806 1.508 1.76 2.934 2.493 4.482.99 1.951 2.329 3.697 3.331 5.642.12.232.268.451.355.701.89 1.44 1.72 2.916 2.588 4.37.145.243.299.609.718.343.306-.91.078-1.856.2-2.785.351-2.698 1.129-5.253 2.408-7.653.753-1.508 1.781-2.827 2.858-4.11.937-1.28 2.106-2.312 3.412-3.2.553-.373 1.116-.729 1.662-1.108.183-.128.463-.261.371-.519-.081-.233-.377-.237-.608-.249a22.584 22.584 0 0 0-1.302-.028 85.776 85.776 0 0 0-3.863-.015 145.675 145.675 0 0 0-4.181-.007c-1.345.002-2.69-.029-4.035 0-.785.01-1.569-.029-2.353-.005C.645-.232.286-.261 0 0" transform="translate(96.536 73.642)"/>
			<path style="fill:#2caddb;fill-opacity:1;fill-rule:nonzero;stroke:none" d="m0 0-2.985-5.266c-.395.199-.328.568-.331.91l-.032 3.897A61.312 61.312 0 0 0-.543 4.399c.571.014.496-.404.536-.773C.125 2.417.037 1.208 0 0" transform="translate(96.176 81.925)"/>
			<path style="fill:#fefefe;fill-opacity:1;fill-rule:nonzero;stroke:none" d="M0 0c.834-.588 1.728-1.074 2.635-1.536C3.66-2.181 4.688-2.82 5.787-3.337a24.75 24.75 0 0 1 2.984-1.729l3.362-2.023L10.7-8.093c-.387-.541-1.04-.691-1.554-1.048-.28-.195-.599-.336-.829-.603-1.303-.841-2.657-1.598-4.001-2.372-1.212-.65-2.374-1.392-3.575-2.064-.639-.392-1.307-.733-1.95-1.12-.269-.162-.553-.326-.895-.22-1.046 1.454-1.96 2.991-2.852 4.542-.568 1.518-1.516 2.822-2.354 4.189-.152.249-.307.496-.409.772C-8.277-4.662-9.182-3.51-9.92-2.26c-.178.301-.361.597-.475.931-.594 1.382-1.67 2.485-2.249 3.878-.483 1.184-1.33 2.151-1.941 3.26-.181.327-.401.636-.337 1.041-.062.849-.754 1.403-1.009 2.173.246.297.451-.069.679-.055.932-.732 2.104-1.088 2.981-1.906 1.02-.653 2.055-1.28 3.151-1.801l3.326-1.948 2.797-1.604C-2.022 1.096-1.045.489 0 0" transform="translate(144.24 120.353)"/>
			<path style="fill:#fefefe;fill-opacity:1;fill-rule:nonzero;stroke:none" d="M0 0c.18.456.441 1.088.797 1.139.427.062.529-.657.786-1.026.314-.452.586-.932.877-1.4.847-1.991 2.032-3.793 3.152-5.63.499-.266.645-.801.893-1.24.569-1.005 1.194-1.977 1.742-2.993a121.925 121.925 0 0 1 2.095-3.578c.469-.905 1.009-1.77 1.493-2.666.118-.216.306-.491.051-.711-.202-.174-.459-.042-.647.088-.68.469-1.531.563-2.213 1.023-1.206.632-2.539.863-3.836 1.208-.787.203-1.597.244-2.398.348-.787.195-1.586.034-2.377.083-1.39.066-2.737-.234-4.089-.477-1.161-.208-2.276-.57-3.367-1.01-.911-.283-1.693-.848-2.582-1.182-.826-.038-.572.452-.374.838.436.853.986 1.644 1.379 2.52.607 1.121 1.203 2.249 1.958 3.281.294.402.5.848.682 1.308a53.24 53.24 0 0 0 3.013 4.808C-1.836-3.592-.876-1.82 0 0" transform="translate(123.341 129.49)"/>
			<path style="fill:#2986c3;fill-opacity:1;fill-rule:nonzero;stroke:none" d="M0 0a48.826 48.826 0 0 0-2.488 4.312c.01 1.167.025 2.334.029 3.5.001.414-.006.822.335 1.131.773-1.429 1.803-2.71 2.447-4.214C.216 3.54.29 2.347.26 1.157.25.757.322.333 0 0" transform="translate(131.441 118.26)"/>
			<path style="fill:#fefefe;fill-opacity:1;fill-rule:nonzero;stroke:none" d="M0 0c1.017.562 2.081 1.041 3.019 1.742 1.361.709 2.713 1.437 3.989 2.297 1.22.706 2.512 1.289 3.665 2.111 1.333.661 2.61 1.419 3.867 2.215 1.322.822 2.775 1.421 4.039 2.345 1.337.728 2.701 1.406 3.944 2.293l4.289 2.625c.146.027.254.27.424.116.134-.121-.018-.248-.069-.367-.064-.15-.132-.299-.198-.448-.566-1.741-1.627-3.225-2.48-4.817-1.023-1.734-2.046-3.467-3.014-5.233C20.331 3.02 19.291 1.1 18.172-.776c-1.035-1.78-1.92-3.644-2.994-5.404-.449-.714-.831-1.468-1.278-2.184-.217-.348-.425-.711-.919-.694-.601.121-1.082.473-1.564.821-.567.491-1.323.659-1.911 1.113-.915.729-2.055 1.06-3.017 1.705-1.15.822-2.438 1.415-3.61 2.199-.642.614-1.452.949-2.221 1.352-.294.154-.691.201-.746.639l-.769.61L0 0" transform="translate(92.898 113.855)"/>
			<path style="fill:#2a93cb;fill-opacity:1;fill-rule:nonzero;stroke:none" d="M0 0a7189.58 7189.58 0 0 0 2.633 4.733c.346-1.359.054-2.747.181-4.115.017-.186-.206-.615.328-.448C2.447-1.444 1.413-2.86.506-4.351c-.073-.12-.123-.253-.184-.381-.433.094-.391.469-.393.759C-.082-2.648-.175-1.321 0 0" transform="translate(117.234 124.05)"/>
			<path style="fill:#2a98ce;fill-opacity:1;fill-rule:nonzero;stroke:none" d="M0 0h1.737C.949.68.097.99-.52 1.614c-.227.972.021 1.941.033 2.911.002.183.147.306.34.34.345-.008.596-.22.827-.433.841-.775 1.864-1.27 2.818-1.871.284-.179.665-.289.587-.754-.273-1.146-.095-2.309-.14-3.463-.012-.315.074-.638-.085-.939H-.521C-1.04-1.466-.85-.52 0 0" transform="translate(112.145 73.642)"/>
			<path style="fill:#2993cb;fill-opacity:1;fill-rule:nonzero;stroke:none" d="M0 0c-.354 1.396-.132 2.812-.125 4.22 0 .179.187.28.351.351 1.364-.183 2.628-.73 3.945-1.085a.32.32 0 0 0 .247-.321c-.539-.361-.251-.952-.354-1.424C3.944 1.185 4.036.582 4.036 0Z" transform="translate(116.005 71.047)"/>
			<path style="fill:#2aa1d3;fill-opacity:1;fill-rule:nonzero;stroke:none" d="M0 0h4.208c-.132-.862-.067-1.751-.345-2.595H-.345C-.972-1.626-.84-.633 0 0" transform="translate(103.903 73.642)"/>
			<path style="fill:#2ba6d6;fill-opacity:1;fill-rule:nonzero;stroke:none" d="M0 0c-.615-.798-.567-1.685-.345-2.595h-4.034c-.344.496-.36 1.074-.377 1.641-.015.494.287.784.722.954z" transform="translate(103.903 73.642)"/>
			<path style="fill:#2a9cd1;fill-opacity:1;fill-rule:nonzero;stroke:none" d="M0 0c-.057.888-.205 1.788.345 2.595h4.034C3.548 1.862 3.95.882 3.858 0Z" transform="translate(107.766 71.047)"/>
			<path style="fill:#2baad9;fill-opacity:1;fill-rule:nonzero;stroke:none" d="M0 0c-.475-.463-.665-.978-.415-1.647.106-.285.052-.63.07-.948-.927-.003-1.855.023-2.78-.018-.58-.025-.748.197-.742.756.006.682.024 1.333.534 1.857z" transform="translate(99.87 73.642)"/>
			<path style="fill:#276bb3;fill-opacity:1;fill-rule:nonzero;stroke:none" d="M0 0c.643.796 1.578 1.131 2.452 1.562 0-.714.006-1.429-.003-2.143-.004-.36.02-.693.421-.845A15.055 15.055 0 0 0 .507-2.793c-.539-.185-.618.273-.62.561C-.118-1.489-.225-.733 0 0" transform="translate(152.487 110.698)"/>
			<path style="fill:#2caedb;fill-opacity:1;fill-rule:nonzero;stroke:none" d="M0 0c.828-.445 1.66-.882 2.481-1.339.239-.133.561-.205.586-.569-.219-.523-.129-1.074-.157-1.615-.022-.422.04-.88-.404-1.156L-.323-3.043c.043.697.3 1.379.038 2.098C-.403-.62-.24-.272 0 0" transform="translate(92.81 112.626)"/>
			<path style="fill:#2777ba;fill-opacity:1;fill-rule:nonzero;stroke:none" d="M0 0c1.03.265 1.791 1.059 2.776 1.412.248-.073.435-.267.43-.491-.018-.79.342-1.592-.058-2.372-.017-.023-.03-.052-.052-.07-.482-.401-1.403-.479-1.465-1.08-.052-.497.524-1.06.825-1.593.5-.889 1.002-1.776 1.504-2.664-.413-1.076-.212-2.184-.151-3.28.032-.583.057-1.152-.172-1.702-.362-.786-.199-1.639-.282-2.456a21.446 21.446 0 0 0-2.345-7.878c-.248-.474-.581-.904-.875-1.354-.591.047-.558.52-.579.908-.05.932-.02 1.866-.018 2.798 0 .383-.058.753-.125 1.125.042 1.118.543 2.131.733 3.224.54 3.112.281 6.146-.638 9.146-.111.36-.255.716-.179 1.108.365 1.107.147 2.249.202 3.374.021.406-.025.815.033 1.218.04.269.018.61.436.627" transform="translate(142.16 104.926)"/>
			<path style="fill:#2773b8;fill-opacity:1;fill-rule:nonzero;stroke:none" d="M0 0c.002 1.497-.268 2.99-.069 4.49.031.238.103.454.392.492C1.615 2.938 2.714.786 3.86-1.34c-.141-1.032-.023-2.069-.072-3.102-.023-.484.03-1.001-.453-1.33A83.484 83.484 0 0 0 0 0" transform="translate(145.796 93.086)"/>
			<path style="fill:#276fb6;fill-opacity:1;fill-rule:nonzero;stroke:none" d="M0 0c.366 1.128.131 2.29.196 3.435.022.362-.101.771.329.998.933-1.585 1.871-3.167 2.794-4.758.156-.269.404-.504.39-.854-.37-.163-.358-.489-.356-.817.002-.877.005-1.753-.002-2.629-.003-.28.084-.597-.227-.793A78.007 78.007 0 0 0 0 0" transform="translate(149.13 87.314)"/>
			<path style="fill:#2770b6;fill-opacity:1;fill-rule:nonzero;stroke:none" d="M0 0c.146-.604.203-1.202.068-1.828-.082-.379-.039-.795.439-.965-1.235-.934-2.715-1.438-3.992-2.298-.343-.176-.534.043-.555.313-.066.82-.304 1.645.005 2.465C-2.718-1.495-1.387-.698 0 0" transform="translate(152.487 110.698)"/>
			<path style="fill:#2774b8;fill-opacity:1;fill-rule:nonzero;stroke:none" d="M0 0c.013-.713.229-1.41.142-2.138-.03-.24-.025-.619.408-.639-1.179-.802-2.434-1.472-3.695-2.132-.176.947.048 1.947-.372 2.862C-2.389-1.288-1.201-.632 0 0" transform="translate(148.452 108.385)"/>
			<path style="fill:#287bbc;fill-opacity:1;fill-rule:nonzero;stroke:none" d="M0 0c.36-1.292.106-2.612.182-3.918.021-.366-.108-.781.332-1.009C.103-5.966-.617-6.81-1.383-7.571a9.675 9.675 0 0 1-1.18-1.428c-.566.005-.572.435-.528.797.108.888-.021 1.748-.187 2.609-.012.313.173.542.337.781.938 1.359 1.873 2.721 2.454 4.287.083.223.133.53.487.525" transform="translate(141.78 86.326)"/>
			<path style="fill:#287ebf;fill-opacity:1;fill-rule:nonzero;stroke:none" d="M0 0a4.566 4.566 0 0 0 .274-2.707c-.072-.372.019-.61.307-.811-1.024-1.143-2.232-2.057-3.546-2.838-.253 1.087-.117 2.202-.226 3.299-.002.259.155.434.338.572.9.679 1.645 1.519 2.429 2.318.111.114.213.29.424.167" transform="translate(138.636 80.845)"/>
			<path style="fill:#2ba2d4;fill-opacity:1;fill-rule:nonzero;stroke:none" d="m0 0 1.516-.849c-.135-.45-.163-.907-.175-1.379-.059-2.534.126-5.07-.087-7.603-.016-.201.227.133.283-.069.122-1.046.021-2.096-.01-3.139-.04-1.349.202-2.672.235-4.011a1.805 1.805 0 0 1-.271-.899c-.028-1.33.026-2.659-.007-3.989-.012-.518.12-1.055-.387-1.431-1.925 3.306-2.727 6.888-2.635 10.691a1.099 1.099 0 0 0-.357.776c-.082 1.506-.1 3.012.026 4.517.533.958 1.061 1.919 1.6 2.874.632 1.117.636 1.115-.4 1.834-.176.684-.066 1.375-.012 2.058.028.35.112.793.681.619" transform="translate(104.379 105.79)"/>
			<path style="fill:#2ba9d8;fill-opacity:1;fill-rule:nonzero;stroke:none" d="M0 0c-.232.316-.299.638-.203 1.045.233.991-.207 1.993-.001 2.997.034.162-.174.284-.339.357a108.126 108.126 0 0 0 3.679 6.366c.502-.234.446-.706.467-1.133.055-1.103-.064-2.209.06-3.31C2.581 4.134 1.144 2.152 0 0" transform="translate(96.176 81.925)"/>
			<path style="fill:#2ba6d6;fill-opacity:1;fill-rule:nonzero;stroke:none" d="M0 0c-.422.238-.286.648-.317 1.01-.1 1.142.229 2.311-.21 3.433a53.984 53.984 0 0 0 3.198 5.715c.222-.81.206-1.634.179-2.465-.031-.944-.061-1.894.152-2.827-.646-.575-.909-1.399-1.354-2.104C1.076 1.855.547.922 0 0" transform="translate(99.839 88.247)"/>
			<path style="fill:#2baad9;fill-opacity:1;fill-rule:nonzero;stroke:none" d="M0 0c.288.743.132 1.52.177 2.282.014.239-.151.648.385.489 1.242-.643 2.49-1.276 3.61-2.127.066-.793-.148-1.581-.026-2.377.031-.205-.092-.381-.307-.461Z" transform="translate(95.316 107.947)"/>
			<path style="fill:#2ba6d6;fill-opacity:1;fill-rule:nonzero;stroke:none" d="M0 0c.226.832-.193 1.712.193 2.531.048.102.093.205.14.307.998-.589 2.114-.967 3.033-1.698.104-1.007.261-2.017-.191-2.989L0 0" transform="translate(99.155 105.752)"/>
			<path style="fill:#2ba3d5;fill-opacity:1;fill-rule:nonzero;stroke:none" d="M0 0c.05.997-.146 2.01.191 2.988.578-.438 1.348-.55 1.858-1.101-.482-.071-.456-.433-.476-.793-.035-.63.147-1.285-.194-1.884L0 0" transform="translate(102.33 103.904)"/>
			<path style="fill:#fefefe;fill-opacity:1;fill-rule:nonzero;stroke:none" d="M0 0c-.472 2.444-.488 4.899-.183 7.362-.354.805.024 1.544.275 2.26.518 1.475 1.11 2.925 1.944 4.26.621 1.223 1.575 2.197 2.441 3.237.257.31.576.567.811.899.848.865 1.912 1.443 2.87 2.163.739.408 1.465.84 2.219 1.223.979.555 2.136.668 3.104 1.254 1.935.673 3.942.58 5.94.577.995.018 1.954-.225 2.921-.402 1.316-.548 2.695-.945 3.969-1.597 1.407-.689 2.712-1.541 3.945-2.504.992-.989 2.061-1.905 2.901-3.041.876-1.128 1.551-2.379 2.201-3.644.161-.313.301-.63.259-.995.838-2.466 1.325-4.984 1.232-7.605-.068-1.962-.516-3.845-1.057-5.716-.817-1.96-1.848-3.796-3.144-5.481a30.311 30.311 0 0 0-3.191-3.057c-.832-.895-1.957-1.36-2.952-2.014l-3.007-1.144-2.956-.635c-2.04-.071-4.08-.106-6.106.217-1.392.487-2.872.709-4.193 1.406-1.435.835-2.913 1.605-4.11 2.791-1.39 1.014-2.592 2.208-3.536 3.655C1.706-5.052.868-3.542.25-1.927.018-1.323-.341-.696 0 0" transform="translate(105.988 88.595)"/>
			<path style="fill:#2b9fd3;fill-opacity:1;fill-rule:nonzero;stroke:none" d="M0 0c.36-2.101 1.364-3.932 2.401-5.75.141-.247.269-.502.403-.754-.123-.828-.045-1.663-.079-2.494-.018-.426.012-.877-.414-1.16C1.162-8.977.204-7.661-.512-6.173c.246 1.419.253 2.859.105 4.273-.069.658.192 1.246.112 1.878C-.308.075-.107.036 0 0" transform="translate(105.988 88.595)"/>
			<path style="fill:#2a9cd0;fill-opacity:1;fill-rule:nonzero;stroke:none" d="M0 0c.299.899.124 1.827.167 2.742.016.34-.064.708.326.912C1.43 2.27 2.727 1.212 3.822-.028c-.625-.469-.137-1.14-.289-1.709-.122-.453-.056-.971-.206-1.445C1.998-2.351.9-1.279 0 0" transform="translate(108.298 78.437)"/>
			<path style="fill:#2881c0;fill-opacity:1;fill-rule:nonzero;stroke:none" d="M0 0a34.407 34.407 0 0 1-3.845 2.486c-.39 1.038-.527 2.061.189 3.03.826-.533 1.844-.652 2.744-1.18l-1.767 3.213c.127 1.216-.046 2.438.074 3.654.033.338-.035.731.482.757.774-1.315 1.553-2.628 2.319-3.948.144-.246.369-.462.35-.783C.36 5.26.517 3.285.454 1.314.439.838.551.299 0 0" transform="translate(136.161 107.166)"/>
			<path style="fill:#287dbe;fill-opacity:1;fill-rule:nonzero;stroke:none" d="M0 0c.21.341.191.72.19 1.099C.187 2.842.188 4.586.189 6.33c0 .346-.055.716.357.899.951-1.625 2.068-3.156 2.77-4.922-.128-1.329-.067-2.662-.059-3.994.002-.474.036-.941-.432-1.244L0 0" transform="translate(136.161 107.166)"/>
			<path style="fill:#287bbd;fill-opacity:1;fill-rule:nonzero;stroke:none" d="M0 0c.383 1.306.083 2.642.181 3.96.033.44-.207.954.31 1.278L3.173.691c-.284-.212-.192-.523-.194-.8a292.416 292.416 0 0 1-.001-3.377c.001-.41.001-.814-.36-1.102A36.415 36.415 0 0 1 0 0" transform="translate(138.986 104.235)"/>
			<path style="fill:#2883c2;fill-opacity:1;fill-rule:nonzero;stroke:none" d="M0 0c-.261-.151-.287-.354-.267-.658.067-1.025-.147-2.053.045-3.086.037-.201-.055-.528-.334-.667A36.322 36.322 0 0 0-2.597-.866c0 1.271-.002 2.543-.001 3.814.001.342-.067.71.325.915L0 0" transform="translate(134.038 119.126)"/>
			<path style="fill:#2a99cf;fill-opacity:1;fill-rule:nonzero;stroke:none" d="m0 0-2.761-2.107c-.656-.15-.534.386-.567.7-.153 1.469.018 2.944-.058 4.418-.026.504-.16 1.042.126 1.53a90.996 90.996 0 0 0 3.27 5.665c.656-.091.532-.662.606-1.063.148-.799-.046-1.612.018-2.42.016-.198-.042-.406.1-.581C.336 5.166-.275 4.308-.79 3.396c-.272-.48-.036-.469.323-.392.328-.324.25-.746.248-1.136C-.221 1.234-.184.609 0 0" transform="translate(114.189 108.603)"/>
			<path style="fill:#2a95cc;fill-opacity:1;fill-rule:nonzero;stroke:none" d="M0 0c-.531.351-.377.875-.359 1.374.033.916.224 1.857-.365 2.69a77.088 77.088 0 0 0 3.036 5.24c.351-.783.096-1.611.177-2.413.077-.771-.175-1.563.145-2.319C1.942 3.101 1 1.777.177.383.105.263.059.128 0 0" transform="translate(114.923 114.746)"/>
			<path style="fill:#2986c3;fill-opacity:1;fill-rule:nonzero;stroke:none" d="M0 0c-.331-.993-.136-2.019-.188-3.03l-3.883 1.508c-.404.727-.263 1.505-.192 2.271.021.216.093.467.412.448C-2.52.951-1.209.64 0 0" transform="translate(132.505 112.682)"/>
			<path style="fill:#2a94cb;fill-opacity:1;fill-rule:nonzero;stroke:none" d="M0 0c-.049-.405-.417-.328-.66-.42-.764-.292-1.537-.562-2.306-.84-.573.605-.665 2.041-.195 3.014 1.059.515 2.173.853 3.333 1.044C.403 1.848.521.904 0 0" transform="translate(119.344 111.046)"/>
			<path style="fill:#2990c9;fill-opacity:1;fill-rule:nonzero;stroke:none" d="m0 0 .172 2.798c1.376.364 2.774.556 4.2.52-.487-.456-.967-.885-.811-1.689.089-.459.264-.647.715-.669.598-.028 1.212.11 1.791-.149.09-.061.112-.141.067-.24A24.001 24.001 0 0 1 0 0" transform="translate(119.344 111.046)"/>
			<path style="fill:#298ac5;fill-opacity:1;fill-rule:nonzero;stroke:none" d="M0 0v.144c-.446.662-.313 1.393-.196 2.098.093.568.545.484.957.377a6.764 6.764 0 0 0 2.415-.357c-.446-.876-.053-1.821-.22-2.719L0 0" transform="translate(125.478 111.617)"/>
			<path style="fill:#2a97cd;fill-opacity:1;fill-rule:nonzero;stroke:none" d="M0 0c.087-1.003-.199-2.031.194-3.014l-2.188-1.182c-.451.159-.454.548-.459.925-.009.693-.006 1.386-.008 2.079C-1.701-.67-.881-.273 0 0" transform="translate(116.183 112.8)"/>
			<path style="fill:#2a8dc7;fill-opacity:1;fill-rule:nonzero;stroke:none" d="M0 0c-.61.061-.82-.219-.771-.817.045-.55.009-1.105.009-1.658-.668 0-1.338.031-2.004-.009-.586-.035-.895.136-.804.773.016.114.018.234 0 .348-.135.84.036 1.459 1.047 1.491C-1.679.146-.83.257 0 0" transform="translate(126.24 114.236)"/>
			<path style="fill:#2a9cd1;fill-opacity:1;fill-rule:nonzero;stroke:none" d="M0 0c.292-1.949.062-3.913.173-5.867.016-.289-.157-.679.326-.782-.882-1.092-1.88-2.085-2.695-3.238-.182-.258-.315-.525-.466-.791-.367.04-.375.349-.38.59-.035 1.568-.139 3.139.039 4.706C-1.993-3.593-1.127-1.723 0 0" transform="translate(110.929 113.144)"/>
			<path style="fill:#2aa0d3;fill-opacity:1;fill-rule:nonzero;stroke:none" d="M0 0c.376-1.389.073-2.81.193-4.21.032-.363-.13-.755.148-1.085-.993-1.767-1.86-3.586-2.304-5.579-.068-.307-.106-.621-.158-.932-.128-.07-.315-.43-.321.073-.013.932-.071 1.865-.045 2.796.049 1.775.065 3.549-.007 5.324-.014.361-.016.718.463.793.397-.093.473.245.614.474C-.938-1.568-.472-.783 0 0" transform="translate(107.926 107.762)"/>
		</g>
	</g>
</svg>
