<?xml version="1.0" encoding="utf-8"?>
<!-- Generator: Adobe Illustrator 22.0.1, SVG Export Plug-In . SVG Version: 6.00 Build 0)  -->
<svg version="1.1" id="design" xmlns="http://www.w3.org/2000/svg" xmlns:xlink="http://www.w3.org/1999/xlink" x="0px" y="0px"
	 viewBox="0 0 326.9 170" style="enable-background:new 0 0 326.9 170;" xml:space="preserve">
<style type="text/css">
	.st0{fill:#E25A1C;}
	.st1{fill:#3C3A3E;}
	.st2{fill:#373535;}
	.st3{fill:#BBE6FB;}
	.st4{fill:#FFFFFF;}
	.st5{fill:#1287B1;}
	.st6{fill:#373535;fill-opacity:0.35;}
	.st7{fill:#2D72B8;}
	.st8{fill:#205B98;}
	.st9{fill:#5294CF;}
	.st10{fill-rule:evenodd;clip-rule:evenodd;}
	.st11{fill-rule:evenodd;clip-rule:evenodd;fill:#1F1A17;}
	.st12{fill-rule:evenodd;clip-rule:evenodd;fill:#66CCFF;}
	.st13{fill-rule:evenodd;clip-rule:evenodd;fill:#FFFF00;}
	.st14{fill:none;stroke:#1F1A17;stroke-width:0.301;stroke-miterlimit:10;}
	.st15{fill-rule:evenodd;clip-rule:evenodd;fill:#FFFFCC;}
	.st16{fill-rule:evenodd;clip-rule:evenodd;fill:#CCCC00;}
	.st17{clip-path:url(#SVGID_2_);}
	.st18{clip-path:url(#SVGID_6_);}
</style>
<g>
	<path class="st0" d="M299,85.8c-0.3-0.6-0.4-0.9-0.6-1.2c-4.1-7.8-8.2-15.6-12.3-23.3c-0.4-0.8-0.4-1.2,0.2-1.9
		c6.5-7.6,13-15.2,19.5-22.9c0.2-0.3,0.4-0.6,0.5-1c-1.9,0.5-3.8,1-5.7,1.5c-7.9,2.1-15.7,4.2-23.6,6.3c-0.7,0.2-1.1,0-1.4-0.6
		c-4.5-7.5-9-14.9-13.5-22.4c-0.2-0.4-0.5-0.8-1-1.1c-0.4,2-0.7,4-1.1,6c-1.2,7-2.5,14.1-3.7,21.1c-0.1,0.8-0.3,1.5-0.4,2.3
		c-0.1,0.7-0.4,1-1.1,1.2c-9.3,2.9-18.5,5.9-27.8,8.8c-0.4,0.1-0.8,0.3-1.2,0.7l22.9,9.1c-0.3,0.2-0.5,0.4-0.7,0.5
		c-4.7,3.1-9.5,6.1-14.2,9.2c-0.6,0.4-1,0.4-1.7,0.1c-5.7-2.5-11.3-5.1-17-7.6c-2.5-1.1-4.8-2.6-6.6-4.8c-4-4.9-3.2-10.5,2.1-14
		c1.8-1.1,3.8-2,5.7-2.6c9.1-3,18.2-5.8,27.3-8.7c0.8-0.2,1.1-0.6,1.3-1.4c1.2-7,2.5-14.1,3.7-21.1c0.7-3.8,1-7.6,2.9-11
		c0.7-1.3,1.5-2.6,2.5-3.7c3.6-4,8.7-4.2,12.5-0.3c1.3,1.3,2.4,2.8,3.4,4.4c4.2,6.9,8.4,13.8,12.5,20.7c0.5,0.8,0.9,1,1.8,0.7
		c10.2-2.7,20.3-5.4,30.5-8.1c2.1-0.6,4.2-0.8,6.4-0.4c4.7,0.9,6.7,4.4,5.2,9c-0.7,2.1-2,3.8-3.4,5.5c-7.1,8.3-14.2,16.7-21.3,25
		c-0.6,0.7-0.6,1.2-0.2,1.9c4.2,8,8.5,16,12.7,24.1c1,1.9,1.8,3.9,1.8,6.1c0.1,5-3.6,9.1-8.6,9.8c-2.8,0.4-5.4-0.2-8-1
		c-6.4-2-12.8-3.9-19.1-5.8c-0.6-0.2-0.8-0.4-0.9-1c-0.7-4.5-1.5-9-2.3-13.5c0-0.1,0-0.3,0-0.5L299,85.8"/>
	<path class="st1" d="M286.6,151.2c-5.7,0-11.5,0-17.2,0c-0.8,0-1.2-0.2-1.6-0.9c-6.8-10.4-13.6-20.7-20.5-31.1
		c-0.2-0.3-0.4-0.6-0.8-1.2c-1.5,11.2-2.9,22.1-4.3,33.1H227c0.2-1.5,0.3-2.9,0.5-4.3c1.5-11.2,2.9-22.4,4.4-33.7
		c1.4-10.7,2.8-21.4,4.2-32.2c0-0.3,0.3-0.7,0.5-0.9c5.2-3.4,10.4-6.7,15.6-10.1c0.1,0,0.2-0.1,0.4-0.1l-4.7,35.8l0.2,0.1l24.6-27.3
		c0.2,1.4,0.4,2.6,0.7,3.8c0.6,3.4,1.1,6.8,1.8,10.2c0.1,0.7-0.1,1.1-0.5,1.6c-5.3,5.5-10.5,11.1-15.8,16.6
		c-0.2,0.2-0.4,0.5-0.7,0.8c0.2,0.3,0.3,0.5,0.5,0.8c9.1,12.7,18.1,25.5,27.2,38.2c0.2,0.2,0.4,0.4,0.6,0.6V151.2 M108.2,118.2
		c-0.2-1.2-0.4-2.9-0.9-4.5c-2.5-7.8-10.5-12-18.8-10.1C79.5,105.6,73,112.8,72,122c-0.7,6.8,3,13.4,9.8,15.9
		c5.5,2,10.8,1.2,15.8-1.8C104.2,132.2,107.7,126.4,108.2,118.2z M68.4,147.1c-0.4,3.3-0.9,6.5-1.3,9.7c-0.6,4.2-1.1,8.4-1.6,12.6
		c-0.1,0.5-0.2,0.7-0.7,0.7c-4.1,0-8.3,0-12.4,0c-0.1,0-0.2-0.1-0.4-0.1c0.3-2,0.5-4,0.8-6c0.9-7,1.8-13.9,2.7-20.9
		c1.1-8,1.9-15.9,3.3-23.8c2.4-14,14.3-26.1,28.2-29.1c8.1-1.7,15.8-0.9,22.9,3.6c7,4.5,11.1,11.1,12,19.4
		c1.3,11.7-3,21.4-11.3,29.4c-5.5,5.3-12,8.6-19.5,9.8c-7.8,1.2-15-0.1-21.6-4.7C69.1,147.5,68.8,147.3,68.4,147.1 M61.7,80.6
		L48.1,90.7c-0.7-1.1-1.4-2.3-2.1-3.3c-1.9-2.7-4.4-4.8-7.9-5c-2.9-0.2-5.4,0.8-7.4,2.9c-1.8,1.9-2,4.7-0.3,6.9
		c1.8,2.4,3.8,4.7,5.9,6.9c3.4,3.7,6.9,7.2,10.3,10.9c3.1,3.4,5.5,7.1,6.3,11.7c0.9,5.5-0.2,10.7-2.8,15.5
		c-4.8,8.9-12.3,14.1-22.3,15.7c-4.4,0.7-8.8,0.6-13.1-0.7c-5.7-1.7-9.7-5.4-12.2-10.7c-0.9-1.9-1.6-3.8-2.4-5.8l14.7-7.9
		c0.2,0.4,0.3,0.8,0.5,1.1c0.8,1.7,1.5,3.5,2.6,5c3.1,4.6,8,6,13.1,3.7c1.3-0.6,2.5-1.4,3.6-2.3c3.3-2.9,3.9-6.9,1.5-10.5
		c-1.4-2.1-3.1-4-4.8-5.8c-4-4.5-8.2-8.8-12.1-13.3c-2.7-3.1-4.5-6.8-5.1-11c-0.6-4.6,0.3-8.9,2.7-12.8c5.9-9.6,14.5-14.6,25.9-14.2
		c6.5,0.2,11.7,3.3,15.7,8.3C59.3,77.4,60.4,78.9,61.7,80.6 M171.8,132.1c-0.8,5.8-1.5,11.3-2.2,16.8c0,0.3-0.3,0.7-0.5,0.8
		c-11.2,5.2-26,4.5-35.2-6c-4.9-5.6-7-12.3-6.7-19.7c0.7-17.2,15-32.2,32-34.3c10-1.2,18.7,1.5,25.4,9.2c4.6,5.3,6.7,11.6,6.4,18.5
		c-0.2,4.6-0.9,9.1-1.5,13.7c-0.8,6.5-1.7,12.9-2.5,19.4c0,0.2-0.1,0.5-0.1,0.7h-13.4c0.2-1.5,0.3-2.9,0.5-4.4
		c1-7.5,2-14.9,2.9-22.4c0.5-4.7,0.2-9.3-1.9-13.6c-2.3-4.6-6.1-7-11.1-7.5c-10.3-1.1-20.2,6.1-22.4,16.3
		c-1.5,6.7,0.8,13.1,6.2,16.7c5.2,3.5,10.8,3.5,16.5,1.2C167,136.3,169.4,134.5,171.8,132.1 M228.3,90.9l-1.8,13.9
		c-2.8,0-5.6,0-8.4,0c-2.3,0-4.3,1.5-5,3.6c-0.3,0.8-0.4,1.7-0.5,2.6c-1.4,10.7-2.8,21.4-4.2,32.1c-0.4,2.7-0.7,5.4-1.1,8.1h-14
		c0.3-2.1,0.5-4,0.8-6c0.9-6.9,1.8-13.8,2.7-20.8c0.8-6,1.5-12,2.4-18c1.3-8,9.2-15.1,17.3-15.5C220.4,90.8,224.3,90.9,228.3,90.9"
		/>
	<path class="st1" d="M303.1,151.2v-5.9h0l-2.3,5.9H300l-2.3-5.9h0v5.9h-1.2v-7.1h1.8l2.1,5.4l2.1-5.4h1.8v7.1H303.1L303.1,151.2z
		 M292.8,145v6.1h-1.2V145h-2.2v-0.9h5.6v0.9L292.8,145 M80.4,70.6h3.5L83,65.4L80.4,70.6z M84.4,74h-5.8l-1.8,3.6h-4.1l9-16.8h3.9
		l3.1,16.8h-3.8L84.4,74 M105,64.2h-2.1l-0.7,3.9h2.1c1.2,0,2.2-0.8,2.2-2.3C106.5,64.7,105.9,64.2,105,64.2z M100,60.8h5.4
		c2.8,0,4.8,1.7,4.8,4.6c0,3.6-2.6,6.1-6.2,6.1h-2.3l-1.1,6.2h-3.5L100,60.8 M122.1,70.6h3.5l-0.8-5.2L122.1,70.6z M126.2,74h-5.8
		l-1.8,3.6h-4.1l9-16.8h3.9l3.1,16.8h-3.8L126.2,74 M148.9,77c-1.2,0.5-2.5,0.9-3.8,0.9c-4.5,0-7.2-3.3-7.2-7.5
		c0-5.3,4.5-9.8,9.8-9.8c1.3,0,2.5,0.3,3.5,0.9l-0.5,4c-0.7-0.8-1.9-1.4-3.4-1.4c-3.1,0-5.8,2.8-5.8,6c0,2.4,1.5,4.4,4,4.4
		c1.5,0,2.9-0.6,3.9-1.4L148.9,77 M170.4,70.8h-7.3l-1.2,6.8h-3.5l3-16.8h3.5l-1.2,6.7h7.3l1.2-6.7h3.5l-3,16.8h-3.5L170.4,70.8
		 M183.3,77.6l3-16.8h9.3l-0.6,3.4h-5.8l-0.6,3.3h5.3l-0.6,3.4H188l-0.6,3.4h5.8l-0.6,3.4H183.3"/>
</g>
</svg>
