<svg xmlns="http://www.w3.org/2000/svg" width="200" height="128">
    <path d="M166.363 64.377c-.138-.3-.2-.443-.276-.586q-3.006-5.716-6.027-11.427a.7.7 0 0 1 .1-.935q4.783-5.588 9.536-11.2a1.01 1.01 0 0 0 .255-.5c-.929.243-1.858.482-2.785.728q-5.78 1.532-11.555 3.074a.532.532 0 0 1-.7-.306q-3.28-5.483-6.584-10.949a1.5 1.5 0 0 0-.478-.533c-.177.974-.357 1.947-.53 2.921q-.918 5.157-1.832 10.316c-.067.371-.159.74-.19 1.114-.031.355-.213.486-.534.587q-6.81 2.139-13.612 4.3a1.508 1.508 0 0 0-.608.338l11.19 4.447c-.137.109-.226.193-.327.258l-6.958 4.505a.739.739 0 0 1-.808.066c-2.771-1.248-5.552-2.472-8.327-3.711a8.6 8.6 0 0 1-3.24-2.363c-1.973-2.414-1.584-5.16 1.045-6.838a12.42 12.42 0 0 1 2.812-1.278c4.447-1.449 8.911-2.846 13.372-4.248a.76.76 0 0 0 .617-.689q.891-5.163 1.831-10.317a17.946 17.946 0 0 1 1.4-5.407 9.1 9.1 0 0 1 1.244-1.824 3.969 3.969 0 0 1 6.115-.169 11.635 11.635 0 0 1 1.645 2.142q3.1 5.046 6.112 10.14a.662.662 0 0 0 .9.363q7.462-2 14.935-3.962a7.035 7.035 0 0 1 3.121-.174 3.074 3.074 0 0 1 2.522 4.394 8.5 8.5 0 0 1-1.649 2.67q-5.213 6.129-10.431 12.254a.714.714 0 0 0-.094.946q3.12 5.88 6.211 11.776a6.547 6.547 0 0 1 .885 2.994 4.828 4.828 0 0 1-4.21 4.821 8.73 8.73 0 0 1-3.915-.487q-4.678-1.446-9.371-2.852a.536.536 0 0 1-.451-.513c-.36-2.2-.752-4.395-1.131-6.592a1.4 1.4 0 0 1 .016-.26l10.762 2.968" fill="#e25a1c" fill-rule="evenodd"/>
    <path d="M160.281 96.422c-2.813 0-5.626-.017-8.44-.006a.815.815 0 0 1-.789-.423q-4.995-7.609-10.019-15.2c-.106-.162-.22-.317-.409-.588l-2.128 16.181h-7.367c.086-.718.162-1.412.252-2.1q1.08-8.239 2.164-16.478 1.034-7.872 2.076-15.743a.682.682 0 0 1 .253-.437q3.8-2.48 7.622-4.931a1.153 1.153 0 0 1 .22-.064c-.769 5.868-1.533 11.69-2.3 17.512l.091.062 12.058-13.366.32 1.845c.286 1.668.561 3.339.867 5a.793.793 0 0 1-.251.778q-3.871 4.05-7.725 8.118c-.112.118-.22.241-.348.381.082.131.152.257.235.374q6.659 9.345 13.319 18.686a2.719 2.719 0 0 0 .3.3v.1M72.957 80.228a17.387 17.387 0 0 0-.448-2.2 7.616 7.616 0 0 0-9.183-4.953 10.239 10.239 0 0 0-8.063 9.045 7.348 7.348 0 0 0 4.815 7.78 8.69 8.69 0 0 0 7.714-.88 10.234 10.234 0 0 0 5.165-8.792zM53.481 94.377c-.219 1.638-.428 3.181-.631 4.726q-.405 3.08-.8 6.16c-.031.24-.1.346-.361.344-2.023-.008-4.047-.006-6.07-.009a1.119 1.119 0 0 1-.2-.056c.122-.97.241-1.942.368-2.913q.671-5.108 1.345-10.216c.518-3.893.929-7.8 1.592-11.673A18.259 18.259 0 0 1 62.53 66.518a14.3 14.3 0 0 1 11.187 1.767 12.479 12.479 0 0 1 5.866 9.486c.637 5.726-1.471 10.479-5.538 14.41a17.177 17.177 0 0 1-9.55 4.776 14.108 14.108 0 0 1-10.569-2.3c-.118-.082-.244-.153-.445-.281M50.183 61.83l-6.655 4.954c-.354-.559-.671-1.116-1.041-1.634a5.125 5.125 0 0 0-3.86-2.448 4.314 4.314 0 0 0-3.632 1.427 2.54 2.54 0 0 0-.171 3.354c.9 1.174 1.879 2.287 2.881 3.374 1.662 1.8 3.4 3.534 5.05 5.346a11.259 11.259 0 0 1 3.069 5.749 11.713 11.713 0 0 1-1.361 7.583 14.386 14.386 0 0 1-10.91 7.674 14.3 14.3 0 0 1-6.4-.339 9.424 9.424 0 0 1-5.975-5.227c-.441-.912-.778-1.874-1.178-2.851l7.216-3.862c.084.2.143.367.221.523a21.616 21.616 0 0 0 1.254 2.447 4.9 4.9 0 0 0 6.409 1.816 7.073 7.073 0 0 0 1.765-1.147 3.757 3.757 0 0 0 .711-5.155 25.158 25.158 0 0 0-2.346-2.851c-1.969-2.186-4.018-4.3-5.941-6.528a10.311 10.311 0 0 1-2.512-5.378 9.228 9.228 0 0 1 1.3-6.25c2.9-4.694 7.12-7.137 12.7-6.935a10 10 0 0 1 7.679 4.074c.582.731 1.127 1.491 1.723 2.284M104.072 87.035c-.37 2.828-.719 5.516-1.082 8.2a.546.546 0 0 1-.241.375c-5.491 2.543-12.722 2.188-17.232-2.933a13.24 13.24 0 0 1-3.288-9.65 18.185 18.185 0 0 1 15.663-16.776c4.872-.6 9.144.717 12.445 4.5a12.533 12.533 0 0 1 3.134 9.054c-.1 2.245-.453 4.479-.732 6.713-.4 3.164-.828 6.324-1.246 9.486-.015.112-.038.223-.063.366h-6.569c.087-.727.167-1.438.259-2.147.476-3.652 1-7.3 1.416-10.956a11.7 11.7 0 0 0-.946-6.65 6.425 6.425 0 0 0-5.411-3.688 10.258 10.258 0 0 0-10.95 7.958 7.611 7.611 0 0 0 3.028 8.177 8.289 8.289 0 0 0 8.062.6 10.55 10.55 0 0 0 3.753-2.632M131.734 66.89c-.3 2.277-.595 4.521-.9 6.811-1.389 0-2.751-.008-4.113 0a2.591 2.591 0 0 0-2.441 1.751 7.146 7.146 0 0 0-.234 1.257q-1.037 7.845-2.063 15.691c-.173 1.318-.341 2.638-.514 3.977h-6.838c.128-1.006.248-1.979.375-2.951q.667-5.085 1.34-10.167c.389-2.932.736-5.871 1.194-8.792a9.5 9.5 0 0 1 8.463-7.566c1.885-.082 3.778-.014 5.728-.014" fill="#3c3a3e" fill-rule="evenodd"/>
    <path d="M168.342 96.38v-2.887h-.016l-1.133 2.887h-.361l-1.132-2.887h-.017v2.887h-.57v-3.457h.88l1.033 2.626 1.015-2.626h.873v3.457zm-5.018-2.995v2.995h-.57v-2.995h-1.083v-.462h2.736v.462h-1.083" fill="#3c3a3e"/>
</svg>
