<svg id="Layer_1" data-name="Layer 1" xmlns="http://www.w3.org/2000/svg" viewBox="0 0 559.255 175.18">
	<defs>
		<style>
			.cls-1{fill:#081d52}
		</style>
	</defs>
	<path class="cls-1" d="M12.878 72.58a8.827 8.827 0 0 0 .327-1.264A37.704 37.704 0 0 1 23.25 49.43 34.528 34.528 0 0 1 41.9 38.76a37.28 37.28 0 0 1 10.427-.594 38.043 38.043 0 0 1 13.509 3.46 40.252 40.252 0 0 1 15.236 12.61 43.94 43.94 0 0 1 3.875 6.156c.123.236.235.478.343.72.02.047-.005.113-.01.18-1.233-.105-2.465-.229-3.699-.312a40.05 40.05 0 0 0-15.31 1.984 41.558 41.558 0 0 0-17.588 11.15 35.388 35.388 0 0 0-8.985 18.123 32.048 32.048 0 0 0-.582 8.125c.038.56.006 1.125.006 1.688q0 28.648-.004 57.295c0 .59-.062 1.181-.106 1.77a2.002 2.002 0 0 1-1.084 1.717h-.888c-.69-.44-1.414-.835-2.062-1.33q-9.17-7-18.316-14.028a9.175 9.175 0 0 1-3.439-5.426 6.316 6.316 0 0 0-.345-.89Z"/>
	<path class="cls-1" d="M166.2 12.885c3.178 1.964 5.984 4.427 8.955 6.668 3.782 2.852 7.525 5.755 11.271 8.654a8.866 8.866 0 0 1 3.64 7.265v.356l.043 46.456c.005 5.685.026 11.37.024 17.054a37.29 37.29 0 0 1-9.035 24.554 34.642 34.642 0 0 1-18.86 11.807 37.235 37.235 0 0 1-12.875.686 37.69 37.69 0 0 1-16.373-5.674 42.097 42.097 0 0 1-13.105-13.424c-.644-1.027-1.209-2.104-1.804-3.16-.113-.201-.197-.418-.342-.73 1.147.103 2.194.197 3.24.288a38.9 38.9 0 0 0 10.867-.651 41.91 41.91 0 0 0 21.14-10.98 35.126 35.126 0 0 0 10.197-18.346 35.92 35.92 0 0 0 .864-9.345c-.016-.384-.003-.77-.003-1.154l.002-57.206c0-.502.024-1.006.07-1.507a2.945 2.945 0 0 1 .841-1.61Z"/>
	<path class="cls-1" d="m507.143 45.749 41.387.004v7.284a5.29 5.29 0 0 0-.612-.07q-6.217-.006-12.434-.001c-.177 0-.353.021-.65.04-.011.342-.032.683-.032 1.025q-.004 10.48-.003 20.961c0 3.405.006 6.81-.003 10.214a7.63 7.63 0 0 1-1.52 4.64 7.293 7.293 0 0 1-5.519 2.8 66.816 66.816 0 0 1-9.045.21c-.62-.022-1.24-.003-1.972-.003l-2.347-7.41c.387 0 .675-.007.962.001 2.957.09 5.914.194 8.872.264a12.62 12.62 0 0 0 1.856-.153c.818-.103.978-.307.996-1.161.005-.237.002-.474.002-.71V52.878h-19.884l-.023-7.161Z"/>
	<path class="cls-1" d="M159.399 61.527c-1.136-.088-2.13-.195-3.127-.238-9.8-.414-18.797 1.863-26.565 8.08a36.228 36.228 0 0 0-8.83 10.91 49.138 49.138 0 0 0-5.487 15.764c-.385 2.242-.592 4.515-.9 6.77a45.341 45.341 0 0 1-5.063 15.983c-3.222 5.831-8.042 10.03-13.762 13.256a34.518 34.518 0 0 1-15.045 4.356 38.643 38.643 0 0 1-17.308-2.657 34.61 34.61 0 0 1-16.675-14.6c-.963-1.589-1.725-3.3-2.57-4.96-.131-.257-.215-.538-.375-.95.737.094 1.34.167 1.941.248a35.183 35.183 0 0 0 18.429-2.47 35.116 35.116 0 0 0 10.812-6.862 38.964 38.964 0 0 0 7.2-9.64 54.286 54.286 0 0 0 6.163-18.6c.329-2.252.509-4.527.855-6.777a35.522 35.522 0 0 1 12.872-22.614 33.693 33.693 0 0 1 17.073-7.759c8.8-1.226 17.252-.082 25.068 4.36a34.262 34.262 0 0 1 14.456 16.347c.286.64.53 1.298.838 2.053Z"/>
	<path class="cls-1" d="m286.27 25.645 5.865-4.419a2.644 2.644 0 0 1 .332.175 41.105 41.105 0 0 1 8.798 8.591 7.39 7.39 0 0 1 .533 1.065h5.785v7.068c-.358.015-.728.044-1.097.044q-10.614.004-21.227.002h-1.186v4.26h17.818c.03.358.068.613.068.868q.005 21.227-.013 42.454a6.12 6.12 0 0 1-.396 2.073 7.959 7.959 0 0 1-7.415 5.11h-4.75l-2.57-7.352c2.62-.202 5.187.06 7.684-.718V74.529a91.25 91.25 0 0 0-10.476-.058c-.018 2.689-.006 5.4-.008 8.112-.002 2.721 0 5.442 0 8.147a53.04 53.04 0 0 1-7.637.062V74.538a90.08 90.08 0 0 0-10.291-.102c-.097.847-.031 1.725-.043 2.598-.011.858-.002 1.717-.002 2.576v13.268h-7.39V42.504c.325-.016.665-.048 1.004-.048q7.772-.005 15.543-.003h1.1v-4.116c-.277-.023-.533-.063-.788-.063l-17.32-.013a1.89 1.89 0 0 0-1.217.42c-1.176.894-2.37 1.767-3.634 2.707a84.88 84.88 0 0 0-14.383-12.675l5.891-4.627a59.022 59.022 0 0 1 10.27 7.956l.24-.855h20.963V20.852a42.141 42.141 0 0 1 7.685-.102v10.366h8.138c-1.882-2.015-3.856-3.688-5.874-5.471Zm-2.207 41.591h10.422v-5.41a101.674 101.674 0 0 0-10.422.044Zm-17.974-.043a88.833 88.833 0 0 0 10.205-.05 27.142 27.142 0 0 0-.088-5.358H266.09Zm28.392-17.418a92.989 92.989 0 0 0-10.51.047c0 1.364-.002 2.75.003 4.135a4.13 4.13 0 0 0 .059.497 88.524 88.524 0 0 0 10.513-.052c0-1.33.002-2.686-.003-4.042a5.489 5.489 0 0 0-.062-.585Zm-28.393 4.678a81.561 81.561 0 0 0 10.207-.043 21.575 21.575 0 0 0-.085-4.736h-10.122Z"/>
	<path class="cls-1" d="M363.64 75.722a55.044 55.044 0 0 0 11.585 7.013 73.1 73.1 0 0 0 12.8 4.3l-5.073 5.963a54.171 54.171 0 0 1-8.066-2.59 60.113 60.113 0 0 1-11.901-6.845c-1.333-.928-2.655-1.87-4.031-2.842a48.182 48.182 0 0 1-24.9 12.266l-4.307-6.16c8.836-1.882 17.02-4.936 23.988-10.913a67.106 67.106 0 0 1-9.282-13.421c-4.805 12.13-13.351 20.918-23.625 28.381l-5.249-6.127c13.779-8.597 22.274-20.901 26.288-36.609-2.04-.103-3.95-.035-5.857-.048-1.924-.012-3.849-.002-5.773-.002h-5.834c-.023-.32-.056-.576-.057-.832-.005-1.54-.013-3.08.005-4.619a2.943 2.943 0 0 1 .171-1.035q3.545-8.906 7.12-17.8c.042-.108.11-.206.215-.4l6.492 3.395-5.599 14.023a103.686 103.686 0 0 0 11.014.079 144.76 144.76 0 0 0 2.966-18.965l7.08 1.85c-.77 5.747-1.583 11.44-2.655 17.193h33.214c.018 2.377.005 4.67.01 6.902-.076.081-.095.105-.118.124a.2.2 0 0 1-.071.044 1.629 1.629 0 0 1-.174.032.849.849 0 0 1-.09.004c-.029.002-.058.002-.088.003l-.178.001-33.664.003c-.06 0-.118.004-.177.006l-.089.008a.579.579 0 0 0-.087.015c-.028.009-.054.023-.216.091l-1.524 4.454c2.277.077 4.448.026 6.617.035 2.161.01 4.322.003 6.484.003h13.122c.025.312.062.568.063.823.006 1.392.024 2.784-.01 4.175a3.49 3.49 0 0 1-.27 1.278 63.502 63.502 0 0 1-9.954 16.306c-.095.11-.17.237-.314.438ZM365.589 60c-1.156-.188-13.698-.14-14.331.034.967 2.622 5.797 9.506 7.396 10.505a45.575 45.575 0 0 0 6.935-10.54Z"/>
	<path class="cls-1" d="M439.822 60.382h-4.83c-.207.645-.286 21.553-.08 23.11l11.57-3.87v7.36l-16.757 6.114-3.537-6.477c1.068-.802 1.103-1.942 1.161-3.07.016-.296.009-.592.009-.888V24.797h32.479V60.29l-1.138.112a6.112 6.112 0 0 0 1.56 1.406c.54.46 1.112.885 1.669 1.326.555.44 1.108.881 1.716 1.365a34.892 34.892 0 0 1-4.983 6.012 37.019 37.019 0 0 1-6.18 4.754c.225.33.406.623.614.894a20.07 20.07 0 0 0 6.874 5.505 38.137 38.137 0 0 0 7.466 2.793c.276.077.549.166.887.269-.161.23-.27.401-.396.56-1.404 1.757-2.825 3.501-4.207 5.276a.95.95 0 0 1-1.2.368 28.156 28.156 0 0 1-16.872-13.004 40.896 40.896 0 0 1-5.676-16.759c-.03-.256-.096-.509-.15-.786Zm12.739-7.213v-7.4h-17.743c.014 2.498-.024 4.934.028 7.4Zm-17.678-21.252v6.822c1.103.186 17.035.139 17.66-.042a42.95 42.95 0 0 0-.083-6.78Zm22.643 28.488h-10.514a28.438 28.438 0 0 0 2.287 8.806c2.502-1.072 7.502-6.438 8.227-8.806Z"/>
	<path class="cls-1" d="M416.502 50.568v6.576h9.458a42.378 42.378 0 0 1 .044 7.143h-9.495v18.408c3.164-1.471 6.19-3.044 9.36-4.545v7.561l-14.055 7.452c-1.36-2.171-2.7-4.312-4.064-6.487a5.311 5.311 0 0 0 1.155-3.92q.01-8.792.001-17.584c0-.259-.03-.517-.054-.89H398.52c-.03-.317-.064-.517-.065-.718-.004-1.894-.01-3.79.006-5.684a6.01 6.01 0 0 1 .196-1.006l-4.31-5.207a5.372 5.372 0 0 1 .424-.45 33.347 33.347 0 0 0 10.016-15.03 51.206 51.206 0 0 0 2.54-12.129c.08-.851.164-1.702.256-2.667 2.343.523 4.593 1.2 6.954 1.813a47.75 47.75 0 0 1-.91 8.662c4.01.013 7.928-.002 11.907.009v7.075c-.914.064-1.85.023-2.784.03-.918.007-1.836.001-2.754.001h-8.435l-1.776 4.423h14.866a42.716 42.716 0 0 1 .075 7.165Zm-7.658 6.543v-6.534c-.854 0-1.647.018-2.439-.007a1.066 1.066 0 0 0-.968.479 38.23 38.23 0 0 1-5.09 5.309c-.232.207-.45.428-.792.753Z"/>
	<path class="cls-1" d="M454.48 107.245c.271-.015.558-.043.846-.043 1.776-.004 3.554.037 5.328-.021a1.627 1.627 0 0 1 1.579.837q8.014 11.785 16.076 23.538l9.274 13.56c.177.259.365.511.534.747.108-.04.142-.043.161-.062a.143.143 0 0 0 .031-.08 2.047 2.047 0 0 0 .027-.264l.028-38.014a.255.255 0 0 1 .03-.08 20.042 20.042 0 0 1 4.872-.063v44.992c-.29.013-.573.036-.857.037-1.747.003-3.494-.022-5.24.014a1.364 1.364 0 0 1-1.303-.677q-7.468-10.868-14.975-21.709-5.325-7.708-10.653-15.413c-.227-.329-.463-.652-.695-.977l-.179.064v38.633h-4.843c-.18-.617-.23-43.865-.041-45.019Z"/>
	<path class="cls-1" d="M394.299 128.056c4.59 1.018 7.207 3.932 8.604 8.009a11.071 11.071 0 0 1-1.718 10.989 13.298 13.298 0 0 1-6.848 4.38 21.053 21.053 0 0 1-6.126.889c-4.943.016-9.887.007-14.83.006-.202 0-.404-.025-.666-.042v-45.002a4.83 4.83 0 0 1 .641-.081c5.21-.004 10.42-.016 15.629.005a16.078 16.078 0 0 1 6.558 1.356c4.772 2.13 6.459 6.422 5.955 10.842a9.875 9.875 0 0 1-6.009 8.096c-.339.164-.682.317-1.19.553Zm-16.58 2.6c-.195 1.292-.138 16.764.05 17.405a4.186 4.186 0 0 0 .425.041c3.373-.001 6.747.022 10.12-.02a13.296 13.296 0 0 0 4.924-1.015 7.366 7.366 0 0 0 4.922-6.296c.458-4.089-1.132-7.99-5.921-9.47a15.353 15.353 0 0 0-4.55-.646q-4.571-.004-9.143 0h-.826Zm-.05-4.292a2.201 2.201 0 0 0 .382.075c3.372-.006 6.745.019 10.117-.04a9.766 9.766 0 0 0 4.187-1.044 6.483 6.483 0 0 0 3.61-4.465 8.51 8.51 0 0 0 .136-3.347 6.579 6.579 0 0 0-4.677-5.699 11.198 11.198 0 0 0-3.133-.502c-3.283-.063-6.568-.024-9.852-.02-.254 0-.508.042-.77.065Z"/>
	<path class="cls-1" d="M316.18 152.286v-45.022c.258-.021.512-.06.766-.061 5.21-.004 10.42-.016 15.63.003a26.894 26.894 0 0 1 8.718 1.434 19.095 19.095 0 0 1 11.32 9.778c2.858 5.725 3.727 11.73 1.817 17.913-2.346 7.594-7.563 12.39-15.076 14.759a29.063 29.063 0 0 1-8.756 1.239q-6.793.009-13.587 0c-.26 0-.519-.026-.832-.043Zm4.948-4.632a3.433 3.433 0 0 0 .434.06c3.55-.04 7.105.002 10.65-.157a20.576 20.576 0 0 0 8.336-2.264 16.085 16.085 0 0 0 9.105-11.662 19.637 19.637 0 0 0-1.655-12.537 15.282 15.282 0 0 0-8.817-8.04 19.229 19.229 0 0 0-6.42-1.238c-3.67-.054-7.34-.035-11.012-.042a4.933 4.933 0 0 0-.621.08Z"/>
	<path class="cls-1" d="m415.788 140.84-4.598 11.463h-5.887c6.621-15.062 13.234-30.039 19.863-45.103h4.884l19.286 45.082h-5.877c-.132-.303-.29-.646-.432-.994-1.326-3.262-2.66-6.52-3.96-9.79a.954.954 0 0 0-1.045-.7q-10.836.026-21.672.013c-.147 0-.294.015-.562.03Zm11.674-27.893-.232.002-9.662 23.479c.125.09.168.147.216.151.235.02.472.038.707.037q9.135-.023 18.27-.052a.118.118 0 0 0 .075-.044.863.863 0 0 0 .062-.175l-9.436-23.398Z"/>
	<path class="cls-1" d="m512.142 127.94 24.186 24.318c-.353.035-.543.07-.734.07-1.954.004-3.907-.008-5.861.01a1.455 1.455 0 0 1-1.165-.479q-10.09-10.439-20.209-20.851c-.738-.76-1.502-1.494-2.397-2.381-.075.989-.035 1.83-.041 2.666-.008.888-.002 1.776-.002 2.664v18.322h-4.92v-44.923a20.614 20.614 0 0 1 4.909-.049v20.164l.183.094c.274-.244.553-.482.82-.733q7.259-6.8 14.515-13.603c1.965-1.842 3.941-3.673 5.892-5.53a1.641 1.641 0 0 1 1.25-.51c1.747.027 3.494.009 5.24.012.224 0 .447.028.867.057Z"/>
	<path class="cls-1" d="M507.174 45.718a2.25 2.25 0 0 0-.372.345 119.068 119.068 0 0 1-7.442 9.616 2.52 2.52 0 0 0-.623 1.761q.025 17.05.011 34.101v1.09h-7.263l-.064-.068c-.02-.022-.047-.042-.054-.068a.896.896 0 0 1-.029-.175 3.972 3.972 0 0 1-.007-.266l-.013-27.884a.307.307 0 0 0-.018-.086c-.009-.028-.021-.054-.078-.2-.922.54-1.74 1.198-2.596 1.794-.875.608-1.735 1.236-2.603 1.855l-2.697 1.916-5.677-5.882a61.702 61.702 0 0 0 13.802-10.68 101.494 101.494 0 0 0 11.11-13.571l5.867 3.945c-.27.507-.53.989-.783 1.475-.174.335-.336.676-.503 1.013Z"/>
	<path class="cls-1" d="M244.998 147.79c1.346-1.162 2.598-2.245 3.853-3.324a2.77 2.77 0 0 1 .324-.204c.215.234.414.446.608.662a12.436 12.436 0 0 0 14.811 2.558 7.84 7.84 0 0 0 4.198-5.13 6.391 6.391 0 0 0-2.81-7.328 21.98 21.98 0 0 0-5.104-2.245c-1.906-.64-3.833-1.23-5.707-1.954a22.337 22.337 0 0 1-3.494-1.724c-3.52-2.129-5.175-5.364-5.518-9.401-.53-6.215 3.787-11.395 9.62-13.01a22.03 22.03 0 0 1 7.923-.6 16.64 16.64 0 0 1 6.461 1.766 12.182 12.182 0 0 1 3.493 2.755l-4.041 3.686c-.591-.536-1.084-1.052-1.644-1.478a11.432 11.432 0 0 0-8.47-2.16 10.387 10.387 0 0 0-4.443 1.423 7.381 7.381 0 0 0-2.27 10.527 8.108 8.108 0 0 0 2.454 2.151 23.603 23.603 0 0 0 4.908 2.036c1.97.637 3.95 1.24 5.902 1.929a20.036 20.036 0 0 1 2.824 1.282 9.76 9.76 0 0 1 5.403 7.85 13.065 13.065 0 0 1-3.82 11.43 14.107 14.107 0 0 1-7.068 3.699 21.433 21.433 0 0 1-12.557-.98 14.174 14.174 0 0 1-5.135-3.415c-.223-.233-.426-.485-.701-.8Z"/>
	<path class="cls-1" d="M281.416 107.2h16.149a17.83 17.83 0 0 1 6.44 1.086 10.775 10.775 0 0 1 7.151 9.154 14.117 14.117 0 0 1-.236 5.378 10.762 10.762 0 0 1-7.789 8.205 20.361 20.361 0 0 1-5.957.817c-3.227.023-6.454.006-9.68.006h-1.06a21.948 21.948 0 0 0-.075 2.947c-.015.947-.003 1.894-.003 2.842v14.535a21.599 21.599 0 0 1-4.94.048Zm5.001 20.375a3.73 3.73 0 0 0 .477.066c3.223-.003 6.446.021 9.669-.032a13.355 13.355 0 0 0 4.601-.834 6.64 6.64 0 0 0 4.411-4.723 12.144 12.144 0 0 0 .3-2.982 7.013 7.013 0 0 0-5.325-7.093 15.854 15.854 0 0 0-4.637-.65c-2.927-.025-5.855-.01-8.782-.005-.226 0-.451.041-.714.067Z"/>
	<path class="cls-1" d="M256.437 62.013c-2.126 9.792-8.564 25.081-12.563 29.84l-6.595-4.664a82.52 82.52 0 0 0 7.155-14.227 127.19 127.19 0 0 0 4.968-15.11Z"/>
	<path class="cls-1" d="M543.86 34.024h-34.737v-7.025c.676-.168 33.673-.209 34.738-.036Z"/>
	<path class="cls-1" d="m485.02 47.312-6.406-5.007a67.807 67.807 0 0 0 11.523-9.846 78.876 78.876 0 0 0 9.155-12.005l5.723 4.463c-.127.238-.22.448-.345.638a102 102 0 0 1-12.145 15.373 52.364 52.364 0 0 1-6.34 5.551c-.356.262-.719.515-1.165.833Z"/>
	<path class="cls-1" d="m381.299 36.13-6.176 4.5c-3.863-5.51-8.705-10.014-13.723-14.502l6.005-4.245A62.845 62.845 0 0 1 381.3 36.13Z"/>
	<path class="cls-1" d="m234.778 43.167 5.547-4.683a48.966 48.966 0 0 1 14.89 12.823l-5.673 4.965c-4.155-5.263-9.447-9.144-14.764-13.105Z"/>
</svg>
