<svg xmlns="http://www.w3.org/2000/svg" width="200" height="128">
    <path fill="#000" d="M31.15 54.69a11.24 11.24 0 00-8.56 18.42l.7.8 1.29-1.3-.5-.69a9.38 9.38 0 1116.63-6 10 10 0 01-2.09 6l-.5.69 1.3 1.3.69-.8a13 13 0 002.29-7.17 11.24 11.24 0 00-11.25-11.25zM54 57c-3.19 0-5.47 1.89-5.47 4.58 0 3 1.89 4 5.27 4.78 3 .6 3.59 1.3 3.59 2.39s-1.1 2-2.79 2a7.48 7.48 0 01-5.08-2.09l-1.69 2a9.89 9.89 0 006.67 2.49c3.29 0 5.67-1.79 5.67-4.78 0-2.69-1.69-3.88-5.07-4.68-3.1-.69-3.84-1.33-3.84-2.53s1-1.89 2.59-1.89a6.9 6.9 0 014.28 1.6l1.6-1.9A8.89 8.89 0 0054 57zm8.56 0v15.81h2.74v-5.08h3.19c3.48 0 6.37-1.89 6.37-5.47 0-3.19-2.39-5.28-6.07-5.28zm14.74 0v15.91h12v-2.49H80v-4.28h8v-2.49h-8v-4.18h9.1V57zm14.83 0v15.91h12v-2.49h-9.26v-4.28h8v-2.49h-8v-4.18h9.06V57zm14.74 0v15.91h6c5 0 8.47-3.48 8.47-8s-3.49-8-8.47-8zm16 0v2.59h5.08v13.32h2.78V59.57h5.08V57zm15.83 0v15.91h11.95v-2.49h-9.16v-4.28h8v-2.49h-8v-4.18h9.06V57zm20.41 0c-3.19 0-5.48 1.89-5.48 4.58 0 3 1.9 4 5.28 4.78 3 .6 3.59 1.3 3.59 2.39s-1.1 2-2.79 2a7.48 7.48 0 01-5.08-2.09l-1.69 2a11 11 0 006.77 2.69c3.28 0 5.67-1.79 5.67-4.78 0-2.69-1.69-3.88-5.07-4.68-3.09-.7-3.79-1.29-3.79-2.49s1-1.89 2.59-1.89a7 7 0 014.28 1.59l1.5-2.09a8.89 8.89 0 00-5.78-2zm8 0v2.59h5.07v13.32h2.79V59.57H180V57zM65.3 59.47h3.29c2.19 0 3.48 1 3.48 2.89 0 1.69-1.39 2.89-3.48 2.89H65.3zm44.41.2h3.18a5.38 5.38 0 110 10.75h-3.18zM35.23 61l-6.27 5 2.19 2.19 5-6.27z" fill-rule="evenodd"/>
</svg>
