<svg xmlns="http://www.w3.org/2000/svg" width="200" height="128">
    <path d="M37.077 69.009A6.523 6.523 0 0 1 36.4 72a6.637 6.637 0 0 1-1.884 2.288 9.11 9.11 0 0 1-2.871 1.5 11.966 11.966 0 0 1-3.645.519 13.028 13.028 0 0 1-4.247-.643A12.861 12.861 0 0 1 20 73.465l2.064-3.379a13.41 13.41 0 0 0 2.706 1.824 5.589 5.589 0 0 0 2.527.6 3.7 3.7 0 0 0 2.482-.792 2.674 2.674 0 0 0 .942-2.153 3.4 3.4 0 0 0-.164-1.092 3.136 3.136 0 0 0-.628-1.032 9.074 9.074 0 0 0-1.316-1.141q-.792-.629-2.049-1.5-.97-.747-1.884-1.5a13.914 13.914 0 0 1-1.659-1.495 6.976 6.976 0 0 1-1.212-1.839 5.6 5.6 0 0 1-.493-2.348 5.991 5.991 0 0 1 .628-2.722 6.311 6.311 0 0 1 1.749-2.063A7.926 7.926 0 0 1 26.3 51.5a10.759 10.759 0 0 1 3.29-.478 13.2 13.2 0 0 1 3.694.463 12.267 12.267 0 0 1 3.259 1.495l-1.889 2.99a6.96 6.96 0 0 0-4.054-1.346 3.324 3.324 0 0 0-2.138.673 2.078 2.078 0 0 0-.838 1.69 2.438 2.438 0 0 0 .748 1.734 24.526 24.526 0 0 0 2.572 2.169q1.839 1.36 2.99 2.362a13.319 13.319 0 0 1 1.914 1.914 5.353 5.353 0 0 1 .972 1.81 7.314 7.314 0 0 1 .27 2.033M58.4 63.312a10.748 10.748 0 0 0-1.6-6.25 5.053 5.053 0 0 0-4.366-2.288 5.339 5.339 0 0 0-4.606 2.437 11.354 11.354 0 0 0-1.705 6.595 10.716 10.716 0 0 0 1.66 6.385 5.351 5.351 0 0 0 4.591 2.317 4.483 4.483 0 0 0 2.886-.9 6.73 6.73 0 0 0 1.854-2.318 10.711 10.711 0 0 0 1-2.99 17.153 17.153 0 0 0 .3-2.991m6.744-.239a15.167 15.167 0 0 1-.867 5.234 13.181 13.181 0 0 1-2.423 4.172 10.8 10.8 0 0 1-8.268 3.771 10.664 10.664 0 0 1-2.079-.195 6.85 6.85 0 0 1-1.839-.658 9.314 9.314 0 0 1-1.719-1.181 16.987 16.987 0 0 1-1.763-1.794v15.312h-6.237V51.559h6.2v3.514a11.125 11.125 0 0 1 3.709-3.11 10.13 10.13 0 0 1 4.59-.987 10.294 10.294 0 0 1 4.322.9 10.127 10.127 0 0 1 3.379 2.467 11.155 11.155 0 0 1 2.2 3.813 14.931 14.931 0 0 1 .778 4.92M67.895 40.269h6.355v35.394h-6.355zM95.065 75.664v-3.23a11.954 11.954 0 0 1-3.768 2.99 10.6 10.6 0 0 1-4.486.9 9.449 9.449 0 0 1-4.8-1.136 6.478 6.478 0 0 1-2.826-3.364 5.207 5.207 0 0 1-.359-1.107q-.12-.583-.224-1.331a17.056 17.056 0 0 1-.12-1.719V51.514h6.355v13.817a17.43 17.43 0 0 0 .165 2.8 5.4 5.4 0 0 0 .613 1.75 4.082 4.082 0 0 0 3.933 2.033A4.948 4.948 0 0 0 94.5 68.92a6.851 6.851 0 0 0 .479-1.72 18.564 18.564 0 0 0 .149-2.677V51.514h6.355v24.15zM122.505 75.664V61.817a17.2 17.2 0 0 0-.165-2.8 5.4 5.4 0 0 0-.6-1.735 4.1 4.1 0 0 0-3.933-2.019 5.982 5.982 0 0 0-3.08.748 4.488 4.488 0 0 0-1.914 2.2 6.821 6.821 0 0 0-.464 1.765 22.015 22.015 0 0 0-.119 2.631v13.01h-6.415V51.559h6.415v3.23A11.957 11.957 0 0 1 116 51.8a10.584 10.584 0 0 1 4.486-.9 9.153 9.153 0 0 1 4.815 1.181 6.731 6.731 0 0 1 2.826 3.35c.135.359.239.718.344 1.091a10.382 10.382 0 0 1 .239 1.271 15.686 15.686 0 0 1 .12 1.705v16.09zM149.271 76.142l-9.6-13.308v12.83h-6.415V40.269h6.415v20.785h.673l8.538-9.884 4.815 2.064-8.194 8.777 9.704 12.068-5.936 2.063z"/>
    <path fill="#97999b" d="M160.71 75.006v-4.247l14.954-7.357-14.954-7.282v-4.337l19.29 9.69v3.948l-19.29 9.585zM162.579 45.548a2.168 2.168 0 1 1-2.2 2.153 2.139 2.139 0 0 1 2.108-2.168h.046zm0 .344a1.778 1.778 0 0 0-1.734 1.823 1.735 1.735 0 0 0 3.469 0 1.78 1.78 0 0 0-1.718-1.839h-.017zm-.4 3.08h-.389V46.55a4.159 4.159 0 0 1 .688 0 1.262 1.262 0 0 1 .747.179.582.582 0 0 1 .225.493.6.6 0 0 1-.479.584c.21 0 .359.224.4.583a2.059 2.059 0 0 0 .149.6h-.4a1.781 1.781 0 0 1-.165-.628.448.448 0 0 0-.471-.425.435.435 0 0 0-.052.006h-.254zm0-1.331h.284c.314 0 .583-.12.583-.419s-.165-.358-.6-.358h-.269z"/>
</svg>
