<?xml version="1.0" encoding="UTF-8" standalone="no"?>
<!-- Created with Inkscape (http://www.inkscape.org/) -->

<svg
   version="1.1"
   id="svg2"
   width="480"
   height="480"
   viewBox="0 0 480 480"
   sodipodi:docname="75580614-63760900-5a68-11ea-9ee2-b90348a0a15f.svg"
   inkscape:version="1.1 (c4e8f9ed74, 2021-05-24)"
   xmlns:inkscape="http://www.inkscape.org/namespaces/inkscape"
   xmlns:sodipodi="http://sodipodi.sourceforge.net/DTD/sodipodi-0.dtd"
   xmlns:xlink="http://www.w3.org/1999/xlink"
   xmlns="http://www.w3.org/2000/svg"
   xmlns:svg="http://www.w3.org/2000/svg">
  <defs
     id="defs6" />
  <sodipodi:namedview
     id="namedview4"
     pagecolor="#ffffff"
     bordercolor="#666666"
     borderopacity="1.0"
     inkscape:pageshadow="2"
     inkscape:pageopacity="0.0"
     inkscape:pagecheckerboard="0"
     showgrid="false"
     inkscape:zoom="1.81875"
     inkscape:cx="95.120275"
     inkscape:cy="240.27491"
     inkscape:window-width="2558"
     inkscape:window-height="1438"
     inkscape:window-x="2422"
     inkscape:window-y="2160"
     inkscape:window-maximized="1"
     inkscape:current-layer="g8" />
  <g
     inkscape:groupmode="layer"
     inkscape:label="Image"
     id="g8">
    <g
       id="g12">
      <path
         style="fill:#d0d0d0;stroke-width:0.32"
         d="m 259.14,428.58141 c 0.231,-0.0924 0.507,-0.0811 0.61333,0.0253 0.10634,0.10633 -0.0827,0.18198 -0.42,0.16809 -0.37278,-0.0154 -0.4486,-0.0912 -0.19333,-0.19334 z m -40.5,-9.92199 c 0.308,-0.0805 0.812,-0.0805 1.12,0 0.308,0.0805 0.056,0.14634 -0.56,0.14634 -0.616,0 -0.868,-0.0659 -0.56,-0.14634 z m 43.2,-0.65462 c 0.836,-0.0659 2.204,-0.0659 3.04,0 0.836,0.0659 0.152,0.11984 -1.52,0.11984 -1.672,0 -2.356,-0.0539 -1.52,-0.11984 z m -42.08,-15.01674 c 0.22,-0.0888 0.58,-0.0888 0.8,0 0.22,0.0888 0.04,0.16141 -0.4,0.16141 -0.44,0 -0.62,-0.0726 -0.4,-0.16141 z m -18.54,-0.64665 c 0.231,-0.0924 0.507,-0.0811 0.61333,0.0253 0.10634,0.10633 -0.0827,0.18198 -0.42,0.16809 -0.37278,-0.0154 -0.4486,-0.0912 -0.19333,-0.19334 z m 37.12,0 c 0.231,-0.0924 0.507,-0.0811 0.61333,0.0253 0.10634,0.10633 -0.0827,0.18198 -0.42,0.16809 -0.37278,-0.0154 -0.4486,-0.0912 -0.19333,-0.19334 z m 19.52,0 c 0.231,-0.0924 0.507,-0.0811 0.61333,0.0253 0.10634,0.10633 -0.0827,0.18198 -0.42,0.16809 -0.37278,-0.0154 -0.4486,-0.0912 -0.19333,-0.19334 z m -17.22,-50.14224 c 0,-0.0664 0.252,-0.31843 0.56,-0.56 0.50754,-0.39802 0.51886,-0.38672 0.12082,0.12083 -0.41804,0.53302 -0.68082,0.70256 -0.68082,0.43917 z m 3.52,-3.2 c 0,-0.0664 0.252,-0.31843 0.56,-0.56 0.50754,-0.39802 0.51886,-0.38672 0.12082,0.12083 -0.41804,0.53302 -0.68082,0.70256 -0.68082,0.43917 z m 3.52,-3.2 c 0,-0.0664 0.252,-0.31843 0.56,-0.56 0.50754,-0.39802 0.51886,-0.38672 0.12082,0.12083 -0.41804,0.53302 -0.68082,0.70256 -0.68082,0.43917 z m -40.64,-10.24 c 0,-0.0664 0.252,-0.31843 0.56,-0.56 0.50754,-0.39802 0.51886,-0.38672 0.12082,0.12083 -0.41804,0.53302 -0.68082,0.70256 -0.68082,0.43917 z m 3.52,-3.2 c 0,-0.0664 0.252,-0.31843 0.56,-0.56 0.50754,-0.39802 0.51886,-0.38672 0.12082,0.12083 -0.41804,0.53302 -0.68082,0.70256 -0.68082,0.43917 z m 3.52,-3.2 c 0,-0.0664 0.252,-0.31843 0.56,-0.56 0.50754,-0.39802 0.51886,-0.38672 0.12082,0.12083 -0.41804,0.53302 -0.68082,0.70256 -0.68082,0.43917 z m 10.88,-9.91999 c 0,-0.0664 0.252,-0.31845 0.56,-0.56 0.50754,-0.39804 0.51886,-0.38672 0.12082,0.12082 -0.41804,0.53304 -0.68082,0.70255 -0.68082,0.43918 z m 3.52,-3.2 c 0,-0.0664 0.252,-0.31845 0.56,-0.56 0.50754,-0.39804 0.51886,-0.38672 0.12082,0.12082 -0.41804,0.53304 -0.68082,0.70255 -0.68082,0.43918 z m 3.52,-3.2 c 0,-0.0664 0.252,-0.31845 0.56,-0.56 0.50754,-0.39804 0.51886,-0.38672 0.12082,0.12082 C 232.26278,312.93304 232,313.10255 232,312.83918 Z m 3.52,-3.2 c 0,-0.0665 0.252,-0.31845 0.56,-0.56 0.50754,-0.39804 0.51886,-0.38672 0.12082,0.12082 -0.41804,0.53304 -0.68082,0.70255 -0.68082,0.43918 z m 3.52,-3.2 c 0,-0.0665 0.252,-0.31845 0.56,-0.56 0.50754,-0.39804 0.51886,-0.38672 0.12082,0.12082 -0.41804,0.53304 -0.68082,0.70255 -0.68082,0.43918 z m 3.52,-3.2 c 0,-0.0664 0.252,-0.31845 0.56,-0.56 0.50754,-0.39804 0.51886,-0.38672 0.12082,0.12082 -0.41804,0.53304 -0.68082,0.70255 -0.68082,0.43918 z m 3.52,-3.2 c 0,-0.0664 0.252,-0.31845 0.56,-0.56 0.50754,-0.39804 0.51886,-0.38672 0.12082,0.12082 -0.41804,0.53304 -0.68082,0.70255 -0.68082,0.43918 z m 3.52,-3.2 c 0,-0.0664 0.252,-0.31845 0.56,-0.56 0.50754,-0.39804 0.51886,-0.38672 0.12082,0.12082 -0.41804,0.53304 -0.68082,0.70255 -0.68082,0.43918 z m 10.88,-9.92 c 0,-0.0664 0.252,-0.31845 0.56,-0.56 0.50754,-0.39804 0.51886,-0.38672 0.12082,0.12082 -0.41804,0.53304 -0.68082,0.70255 -0.68082,0.43918 z m 3.52,-3.2 c 0,-0.0664 0.252,-0.31845 0.56,-0.56 0.50754,-0.39804 0.51886,-0.38672 0.12082,0.12082 C 264.26278,283.81304 264,283.98255 264,283.71918 Z m 3.52,-3.2 c 0,-0.0665 0.252,-0.31845 0.56,-0.56 0.50754,-0.39804 0.51886,-0.38672 0.12082,0.12082 -0.41804,0.53304 -0.68082,0.70255 -0.68082,0.43918 z m 3.52,-3.2 c 0,-0.0665 0.252,-0.31845 0.56,-0.56 0.50754,-0.39804 0.51886,-0.38672 0.12082,0.12082 -0.41804,0.53304 -0.68082,0.70255 -0.68082,0.43918 z m 3.52,-3.2 c 0,-0.0664 0.252,-0.31845 0.56,-0.56 0.50754,-0.39804 0.51886,-0.38672 0.12082,0.12082 -0.41804,0.53304 -0.68082,0.70255 -0.68082,0.43918 z m 3.52,-3.2 c 0,-0.0664 0.252,-0.31845 0.56,-0.56 0.50754,-0.39804 0.51886,-0.38672 0.12082,0.12082 -0.41804,0.53304 -0.68082,0.70255 -0.68082,0.43918 z m 3.52,-3.2 c 0,-0.0664 0.252,-0.31845 0.56,-0.56 0.50754,-0.39804 0.51886,-0.38672 0.12082,0.12082 -0.41804,0.53304 -0.68082,0.70255 -0.68082,0.43918 z m 3.52,-3.2 c 0,-0.0665 0.252,-0.31845 0.56,-0.56 0.50754,-0.39804 0.51886,-0.38672 0.12082,0.12082 -0.41804,0.53304 -0.68082,0.70255 -0.68082,0.43918 z m 3.52,-3.2 c 0,-0.0665 0.252,-0.31845 0.56,-0.56 0.50754,-0.39804 0.51886,-0.38672 0.12082,0.12082 -0.41804,0.53304 -0.68082,0.70255 -0.68082,0.43918 z m 7.36,-6.72 c 0,-0.0665 0.252,-0.31845 0.56,-0.56 0.50754,-0.39804 0.51886,-0.38672 0.12082,0.12082 C 296.26278,254.69304 296,254.86255 296,254.59918 Z m 3.52,-3.2 c 0,-0.0665 0.252,-0.31845 0.56,-0.56 0.50754,-0.39804 0.51886,-0.38672 0.12082,0.12082 -0.41804,0.53304 -0.68082,0.70255 -0.68082,0.43918 z m 3.52,-3.2 c 0,-0.0665 0.252,-0.31845 0.56,-0.56 0.50754,-0.39804 0.51886,-0.38672 0.12082,0.12082 -0.41804,0.53304 -0.68082,0.70255 -0.68082,0.43918 z m -121.92,-61.76 c 0,-0.0665 0.252,-0.31845 0.56,-0.56 0.50754,-0.39804 0.51886,-0.38672 0.12082,0.12082 -0.41804,0.53304 -0.68082,0.70255 -0.68082,0.43918 z m 3.2,-2.88 c 0,-0.0665 0.252,-0.31845 0.56,-0.56 0.50754,-0.39804 0.51886,-0.38672 0.12082,0.12082 -0.41804,0.53304 -0.68082,0.70255 -0.68082,0.43918 z m 3.2,-2.88 c 0,-0.0665 0.252,-0.31845 0.56,-0.56 0.50754,-0.39804 0.51886,-0.38672 0.12082,0.12082 -0.41804,0.53304 -0.68082,0.70255 -0.68082,0.43918 z m 9.92,-8.96 c 0,-0.0665 0.252,-0.31845 0.56,-0.56 0.50754,-0.39804 0.51886,-0.38672 0.12082,0.12082 -0.41804,0.53304 -0.68082,0.70255 -0.68082,0.43918 z m 3.2,-2.88 c 0,-0.0665 0.252,-0.31845 0.56,-0.56 0.50754,-0.39804 0.51886,-0.38672 0.12082,0.12082 -0.41804,0.53304 -0.68082,0.70255 -0.68082,0.43918 z m 3.2,-2.88 c 0,-0.0665 0.252,-0.31845 0.56,-0.56 0.50754,-0.39804 0.51886,-0.38672 0.12082,0.12082 -0.41804,0.53304 -0.68082,0.70255 -0.68082,0.43918 z m 9.92,-8.96 c 0,-0.0665 0.252,-0.31845 0.56,-0.56 0.50754,-0.39804 0.51886,-0.38672 0.12082,0.12082 -0.41804,0.53304 -0.68082,0.70255 -0.68082,0.43918 z m 3.2,-2.88 c 0,-0.0665 0.252,-0.31845 0.56,-0.56 0.50754,-0.39804 0.51886,-0.38672 0.12082,0.12082 -0.41804,0.53304 -0.68082,0.70255 -0.68082,0.43918 z m 3.2,-2.88 c 0,-0.0665 0.252,-0.31845 0.56,-0.56 0.50754,-0.39804 0.51886,-0.38672 0.12082,0.12082 -0.41804,0.53304 -0.68082,0.70255 -0.68082,0.43918 z m 6.72,-6.08 c 0,-0.0665 0.252,-0.31845 0.56,-0.56 0.50754,-0.39804 0.51886,-0.38672 0.12082,0.12082 -0.41804,0.53304 -0.68082,0.70255 -0.68082,0.43918 z m 3.2,-2.88 c 0,-0.0665 0.252,-0.31845 0.56,-0.56 0.50754,-0.39804 0.51886,-0.38672 0.12082,0.12082 -0.41804,0.53304 -0.68082,0.70255 -0.68082,0.43918 z m 3.2,-2.88 c 0,-0.0665 0.252,-0.31845 0.56,-0.56 0.50754,-0.39804 0.51886,-0.38672 0.12082,0.12082 -0.41804,0.53304 -0.68082,0.70255 -0.68082,0.43918 z m 9.92,-8.96 c 0,-0.0665 0.252,-0.31845 0.56,-0.56 0.50754,-0.39804 0.51886,-0.38672 0.12082,0.12082 -0.41804,0.53304 -0.68082,0.70255 -0.68082,0.43918 z m 3.2,-2.88 c 0,-0.0665 0.252,-0.31845 0.56,-0.56 0.50754,-0.39804 0.51886,-0.38672 0.12082,0.12082 -0.41804,0.53304 -0.68082,0.70255 -0.68082,0.43918 z m 3.2,-2.88 c 0,-0.0665 0.252,-0.31845 0.56,-0.56 0.50754,-0.39804 0.51886,-0.38672 0.12082,0.12082 -0.41804,0.53304 -0.68082,0.70255 -0.68082,0.43918 z m 9.92,-8.96 c 0,-0.0664 0.252,-0.31845 0.56,-0.56 0.50754,-0.39804 0.51886,-0.38672 0.12082,0.12082 -0.41804,0.53304 -0.68082,0.70255 -0.68082,0.43918 z m 3.2,-2.88 c 0,-0.0665 0.252,-0.31845 0.56,-0.56 0.50754,-0.39804 0.51886,-0.38672 0.12082,0.12082 -0.41804,0.53304 -0.68082,0.70255 -0.68082,0.43918 z m 3.2,-2.88 c 0,-0.0665 0.252,-0.31845 0.56,-0.56 0.50754,-0.39804 0.51886,-0.38672 0.12082,0.12082 -0.41804,0.53304 -0.68082,0.70255 -0.68082,0.43918 z m 10.19804,-9.26862 c 0.19602,-0.2362 0.24966,-0.54728 0.11918,-0.691306 -0.13047,-0.144025 -0.0502,-0.153955 0.17832,-0.02208 0.32015,0.184746 0.32952,0.343436 0.0408,0.691306 -0.2061,0.24833 -0.44672,0.45151 -0.53472,0.45151 -0.088,0 3.2e-4,-0.19325 0.1964,-0.42944 z M 233.28,92.359181 c 0,-0.06645 0.252,-0.318448 0.56,-0.56 0.50754,-0.398039 0.51886,-0.38672 0.12082,0.120819 -0.41804,0.53304 -0.68082,0.702554 -0.68082,0.439181 z m 3.2,-2.88 c 0,-0.06645 0.252,-0.318448 0.56,-0.56 0.50754,-0.398039 0.51886,-0.38672 0.12082,0.120819 -0.41804,0.53304 -0.68082,0.702554 -0.68082,0.439181 z m 3.2,-2.88 c 0,-0.06645 0.252,-0.318448 0.56,-0.56 0.50754,-0.398039 0.51886,-0.38672 0.12082,0.120819 -0.41804,0.53304 -0.68082,0.702554 -0.68082,0.439181 z"
         id="path26" />
      <path
         style="fill:#b0b0b0;stroke-width:0.32"
         d="m 269.59436,415.36 0.006,-12.32 2.9608,-0.0192 2.96081,-0.0192 -2.87706,0.11104 -2.87706,0.11101 -0.0894,12.22806 -0.0894,12.22803 0.006,-12.32 z m -66.18103,-4.69334 c -0.11733,-0.11732 -0.21113,-0.36932 -0.20843,-0.56 0.003,-0.21645 0.0969,-0.20196 0.24978,0.0386 0.1466,0.23062 1.26846,0.42954 2.79511,0.49558 l 2.55021,0.11034 -2.58667,0.0644 c -1.42266,0.0354 -2.68266,-0.0317 -2.8,-0.14896 z m 10.59921,-7.70391 c 1.1069,-0.0627 2.8349,-0.0621 3.84,0 1.0051,0.0633 0.0995,0.11456 -2.01254,0.11392 -2.112,0 -2.93436,-0.0524 -1.82746,-0.11507 z m 67.34746,0.003 c 0.836,-0.0659 2.204,-0.0659 3.04,0 0.836,0.0659 0.152,0.11984 -1.52,0.11984 -1.672,0 -2.356,-0.0539 -1.52,-0.11984 z"
         id="path24" />
      <path
         style="fill:#909090;stroke-width:0.32"
         d="m 257.86,428.58141 c 0.231,-0.0924 0.507,-0.0811 0.61333,0.0253 0.10634,0.10633 -0.0827,0.18198 -0.42,0.16809 -0.37278,-0.0154 -0.4486,-0.0912 -0.19333,-0.19334 z M 218.04798,423.2 c 3.2e-4,-2.64 0.05,-3.67741 0.11014,-2.30538 0.0601,1.37204 0.0598,3.53204 -9.6e-4,4.8 -0.0606,1.26797 -0.10977,0.14538 -0.10932,-2.49462 z M 195.44,419.2857 c 0.748,-0.0674 1.972,-0.0674 2.72,0 0.748,0.0674 0.136,0.12249 -1.36,0.12249 -1.496,0 -2.108,-0.0551 -1.36,-0.12249 z m 51.30526,-0.27236 c 0.0154,-0.3728 0.0912,-0.4486 0.19334,-0.19334 0.0924,0.23101 0.0811,0.50701 -0.0252,0.61334 -0.10634,0.10634 -0.18197,-0.0827 -0.16807,-0.42 z M 236.27181,415.68 c 0,-1.496 0.0551,-2.108 0.1225,-1.36 0.0674,0.748 0.0674,1.972 0,2.72 -0.0674,0.748 -0.1225,0.136 -0.1225,-1.36 z m 19.49535,-0.32 c 0,-0.792 0.0624,-1.116 0.13867,-0.72 0.0763,0.396 0.0763,1.044 0,1.44 -0.0763,0.396 -0.13867,0.072 -0.13867,-0.72 z m -59.47756,-0.4 -0.6096,-0.72 0.72,0.6096 c 0.67662,0.57286 0.86568,0.8304 0.6096,0.8304 -0.0607,0 -0.38473,-0.324 -0.72,-0.72 z m 21.74399,-4.24 c -9.6e-4,-1.584 0.0531,-2.27235 0.12024,-1.52966 0.0671,0.74268 0.0679,2.03868 0.002,2.88 -0.0661,0.84131 -0.12104,0.23366 -0.12202,-1.35034 z m 28.71167,1.25334 c 0.0154,-0.3728 0.0912,-0.4486 0.19334,-0.19334 0.0924,0.23101 0.0811,0.50701 -0.0252,0.61334 -0.10634,0.10634 -0.18197,-0.0827 -0.16807,-0.42 z"
         id="path22" />
      <path
         style="fill:#6f6f6f;stroke-width:0.32"
         d="m 208.98526,420.93334 c 0.0154,-0.3728 0.0912,-0.4486 0.19334,-0.19334 0.0924,0.23101 0.0811,0.50701 -0.0252,0.61334 -0.10634,0.10634 -0.18197,-0.0827 -0.16807,-0.42 z M 246.77052,417.92 c 0,-0.44 0.0726,-0.62 0.16141,-0.4 0.0888,0.22 0.0888,0.58 0,0.8 -0.0888,0.22 -0.16141,0.04 -0.16141,-0.4 z m 8.96,-0.64 c 0,-0.44 0.0726,-0.62 0.16141,-0.4 0.0888,0.22 0.0888,0.58 0,0.8 -0.0888,0.22 -0.16141,0.04 -0.16141,-0.4 z m -49.05134,-2.16 c -0.39804,-0.50755 -0.38672,-0.51885 0.12082,-0.12083 0.308,0.24157 0.56,0.49357 0.56,0.56 0,0.26339 -0.26278,0.0939 -0.68082,-0.43917 z m 40.1032,-1.84 c 0.007,-0.528 0.0782,-0.70525 0.15938,-0.39392 0.0811,0.31136 0.0758,0.74336 -0.0119,0.96 -0.0876,0.21667 -0.15403,-0.0381 -0.14751,-0.56608 z m 8.94814,0.16 c 0,-0.44 0.0726,-0.62 0.16141,-0.4 0.0888,0.22 0.0888,0.58 0,0.8 -0.0888,0.22 -0.16141,0.04 -0.16141,-0.4 z m -19.54526,-0.82666 c 0.0154,-0.3728 0.0912,-0.4486 0.19334,-0.19334 0.0924,0.23101 0.0811,0.50701 -0.0252,0.61334 -0.10634,0.10634 -0.18197,-0.0827 -0.16807,-0.42 z m 25.66439,-0.68896 c 0.84132,-0.0661 2.13732,-0.0653 2.88,0.003 0.7427,0.0671 0.0543,0.12122 -1.52965,0.12023 -1.584,0 -2.19165,-0.0559 -1.35035,-0.12202 z"
         id="path20" />
      <path
         style="fill:#4e4e4e;stroke-width:0.32"
         d="m 211.98603,427.75898 c -0.0846,-0.22055 -0.11433,-5.87255 -0.066,-12.56 l 0.0879,-12.15898 0.076,12.388 0.076,12.38797 2.96,0.1056 2.96,0.1056 -2.97004,0.0664 c -2.13582,0.0477 -3.01327,-0.0462 -3.12393,-0.33462 z M 271.12,427.9248 c 0.836,-0.0659 2.204,-0.0659 3.04,0 0.836,0.0659 0.152,0.11984 -1.52,0.11984 -1.672,0 -2.356,-0.0539 -1.52,-0.11984 z m 10.24,0 c 0.836,-0.0659 2.204,-0.0659 3.04,0 0.836,0.0659 0.152,0.11984 -1.52,0.11984 -1.672,0 -2.356,-0.0539 -1.52,-0.11984 z m -45.17474,-8.59146 c 0.0154,-0.3728 0.0912,-0.4486 0.19334,-0.19334 0.0924,0.23101 0.0811,0.50701 -0.0252,0.61334 -0.10634,0.10634 -0.18197,-0.0827 -0.16807,-0.42 z m -6.08,-0.32 c 0.0154,-0.3728 0.0912,-0.4486 0.19334,-0.19334 0.0924,0.23101 0.0811,0.50701 -0.0252,0.61334 -0.10634,0.10634 -0.18197,-0.0827 -0.16807,-0.42 z M 249.65052,418.88 c 0,-0.44 0.0726,-0.62 0.16141,-0.4 0.0888,0.22 0.0888,0.58 0,0.8 -0.0888,0.22 -0.16141,0.04 -0.16141,-0.4 z m 6.08,-0.32 c 0,-0.44 0.0726,-0.62 0.16141,-0.4 0.0888,0.22 0.0888,0.58 0,0.8 -0.0888,0.22 -0.16141,0.04 -0.16141,-0.4 z m -8.91463,-2.88 c 0,-0.968 0.06,-1.364 0.13331,-0.88 0.0733,0.484 0.0733,1.276 0,1.76 -0.0733,0.484 -0.13331,0.088 -0.13331,-0.88 z m 2.84649,-3.36 c 0.007,-0.528 0.0782,-0.70525 0.15938,-0.39392 0.0811,0.31136 0.0758,0.74336 -0.0119,0.96 -0.0876,0.21667 -0.15403,-0.0381 -0.14751,-0.56608 z m 6.04288,-0.0266 c 0.0154,-0.3728 0.0912,-0.44861 0.19334,-0.19334 0.0924,0.231 0.0811,0.507 -0.0252,0.61334 -0.10634,0.10634 -0.18197,-0.0827 -0.16807,-0.42 z m -25.6,-0.32 c 0.0154,-0.3728 0.0912,-0.44861 0.19334,-0.19334 0.0924,0.231 0.0811,0.507 -0.0252,0.61334 -0.10634,0.10634 -0.18197,-0.0827 -0.16807,-0.42 z m 6.08,-0.32 c 0.0154,-0.3728 0.0912,-0.44861 0.19334,-0.19334 0.0924,0.231 0.0811,0.507 -0.0252,0.61334 -0.10634,0.10634 -0.18197,-0.0827 -0.16807,-0.42 z"
         id="path18" />
      <path
         style="fill:#2f2f2f;stroke-width:0.32"
         d="m 275.6397,424.48 c 6.4e-4,-1.936 0.0534,-2.68675 0.11713,-1.66832 0.0637,1.01843 0.0631,2.60243 -10e-4,3.52 -0.0644,0.91757 -0.11654,0.0843 -0.11582,-1.85168 z m -9.69444,-3.54666 c 0.0154,-0.3728 0.0912,-0.4486 0.19334,-0.19334 0.0924,0.23101 0.0811,0.50701 -0.0252,0.61334 -0.10634,0.10634 -0.18197,-0.0827 -0.16807,-0.42 z M 199.41052,420.16 c 0,-0.44 0.0726,-0.62 0.16141,-0.4 0.0888,0.22 0.0888,0.58 0,0.8 -0.0888,0.22 -0.16141,0.04 -0.16141,-0.4 z m 36.77474,0.13334 c 0.0154,-0.3728 0.0912,-0.4486 0.19334,-0.19334 0.0924,0.23101 0.0811,0.50701 -0.0252,0.61334 -0.10634,0.10634 -0.18197,-0.0827 -0.16807,-0.42 z m 19.52,-0.64 c 0.0154,-0.3728 0.0912,-0.4486 0.19334,-0.19334 0.0924,0.23101 0.0811,0.50701 -0.0252,0.61334 -0.10634,0.10634 -0.18197,-0.0827 -0.16807,-0.42 z m 4.51712,-0.61334 c 0.007,-0.528 0.0782,-0.70525 0.15938,-0.39392 0.0811,0.31136 0.0758,0.74336 -0.0119,0.96 -0.0876,0.21667 -0.15403,-0.0381 -0.14751,-0.56608 z m -19.46268,-3.52 c 6.4e-4,-1.936 0.0534,-2.68675 0.11713,-1.66832 0.0637,1.01843 0.0631,2.60243 -0.001,3.52 -0.0644,0.91757 -0.11654,0.0843 -0.11582,-1.85168 z m -10.599,1.92 c 0.004,-0.704 0.0691,-0.95434 0.14562,-0.55626 0.0765,0.39805 0.0736,0.97405 -0.006,1.28 -0.0801,0.30592 -0.14272,-0.0198 -0.13917,-0.72374 z m 19.55111,-1.76 c 0,-1.496 0.0551,-2.108 0.1225,-1.36 0.0674,0.748 0.0674,1.972 0,2.72 -0.0674,0.748 -0.1225,0.136 -0.1225,-1.36 z M 230.1607,413.6 c 0.004,-0.704 0.0691,-0.95434 0.14562,-0.55626 0.0765,0.39805 0.0736,0.97405 -0.006,1.28 -0.0801,0.30592 -0.14272,-0.0198 -0.13917,-0.72374 z m 45.41849,-5.84 c 0.0596,-4.74787 0.17847,-4.18109 0.33586,1.6007 0.0467,1.71642 -0.023,3.12042 -0.15505,3.12 -0.132,0 -0.21336,-2.1247 -0.18081,-4.7207 z m -19.84867,3.44 c 0,-0.44 0.0726,-0.62 0.16141,-0.4 0.0888,0.22 0.0888,0.58 0,0.8 -0.0888,0.22 -0.16141,0.04 -0.16141,-0.4 z m -19.54526,-0.50666 c 0.0154,-0.3728 0.0912,-0.4486 0.19334,-0.19334 0.0924,0.23101 0.0811,0.50701 -0.0252,0.61334 -0.10634,0.10634 -0.18197,-0.0827 -0.16807,-0.42 z m 29.76,0 c 0.0154,-0.3728 0.0912,-0.4486 0.19334,-0.19334 0.0924,0.23101 0.0811,0.50701 -0.0252,0.61334 -0.10634,0.10634 -0.18197,-0.0827 -0.16807,-0.42 z M 194.30238,409.76 c 0.007,-0.528 0.0782,-0.70525 0.15938,-0.39392 0.0811,0.31136 0.0758,0.74336 -0.0119,0.96 -0.0876,0.21667 -0.15403,-0.0381 -0.14751,-0.56608 z m 14.36288,-0.98666 c 0.0154,-0.3728 0.0912,-0.4486 0.19334,-0.19334 0.0924,0.23101 0.0811,0.50701 -0.0252,0.61334 -0.10634,0.10634 -0.18197,-0.0827 -0.16807,-0.42 z M 263.63918,404.56 c -0.39804,-0.50755 -0.38672,-0.51885 0.12082,-0.12083 0.308,0.24157 0.56,0.49357 0.56,0.56 0,0.26339 -0.26278,0.0939 -0.68082,-0.43917 z M 240,352.51917 c 0,-0.0664 0.252,-0.31843 0.56,-0.56 0.50754,-0.39802 0.51886,-0.38672 0.12082,0.12083 C 240.26278,352.61302 240,352.78256 240,352.51917 Z m 3.52,-3.2 c 0,-0.0664 0.252,-0.31843 0.56,-0.56 0.50754,-0.39802 0.51886,-0.38672 0.12082,0.12083 -0.41804,0.53302 -0.68082,0.70256 -0.68082,0.43917 z m -39.36,-10.88 c 0,-0.0664 0.252,-0.31843 0.56,-0.56 0.50754,-0.39802 0.51886,-0.38672 0.12082,0.12083 -0.41804,0.53302 -0.68082,0.70256 -0.68082,0.43917 z m 3.52,-3.2 c 0,-0.0664 0.252,-0.31843 0.56,-0.56 0.50754,-0.39802 0.51886,-0.38672 0.12082,0.12083 -0.41804,0.53302 -0.68082,0.70256 -0.68082,0.43917 z m 3.52,-3.2 c 0,-0.0664 0.252,-0.31843 0.56,-0.56 0.50754,-0.39802 0.51886,-0.38672 0.12082,0.12083 -0.41804,0.53302 -0.68082,0.70256 -0.68082,0.43917 z m 3.52,-3.2 c 0,-0.0664 0.252,-0.31843 0.56,-0.56 0.50754,-0.39802 0.51886,-0.38672 0.12082,0.12083 -0.41804,0.53302 -0.68082,0.70256 -0.68082,0.43917 z m 3.52,-3.2 c 0,-0.0664 0.252,-0.31843 0.56,-0.56 0.50754,-0.39802 0.51886,-0.38672 0.12082,0.12083 -0.41804,0.53302 -0.68082,0.70256 -0.68082,0.43917 z m 10.88,-9.91999 c 0,-0.0664 0.252,-0.31845 0.56,-0.56 0.50754,-0.39804 0.51886,-0.38672 0.12082,0.12082 -0.41804,0.53304 -0.68082,0.70255 -0.68082,0.43918 z m 3.52,-3.2 c 0,-0.0665 0.252,-0.31845 0.56,-0.56 0.50754,-0.39804 0.51886,-0.38672 0.12082,0.12082 -0.41804,0.53304 -0.68082,0.70255 -0.68082,0.43918 z m 3.52,-3.2 c 0,-0.0665 0.252,-0.31845 0.56,-0.56 0.50754,-0.39804 0.51886,-0.38672 0.12082,0.12082 -0.41804,0.53304 -0.68082,0.70255 -0.68082,0.43918 z m 3.52,-3.2 c 0,-0.0664 0.252,-0.31845 0.56,-0.56 0.50754,-0.39804 0.51886,-0.38672 0.12082,0.12082 -0.41804,0.53304 -0.68082,0.70255 -0.68082,0.43918 z m 3.52,-3.2 c 0,-0.0664 0.252,-0.31845 0.56,-0.56 0.50754,-0.39804 0.51886,-0.38672 0.12082,0.12082 -0.41804,0.53304 -0.68082,0.70255 -0.68082,0.43918 z m 3.52,-3.2 c 0,-0.0664 0.252,-0.31845 0.56,-0.56 0.50754,-0.39804 0.51886,-0.38672 0.12082,0.12082 -0.41804,0.53304 -0.68082,0.70255 -0.68082,0.43918 z m 3.52,-3.2 c 0,-0.0665 0.252,-0.31845 0.56,-0.56 0.50754,-0.39804 0.51886,-0.38672 0.12082,0.12082 -0.41804,0.53304 -0.68082,0.70255 -0.68082,0.43918 z m 3.52,-3.2 c 0,-0.0665 0.252,-0.31845 0.56,-0.56 0.50754,-0.39804 0.51886,-0.38672 0.12082,0.12082 -0.41804,0.53304 -0.68082,0.70255 -0.68082,0.43918 z m 10.88,-9.92 c 0,-0.0664 0.252,-0.31845 0.56,-0.56 0.50754,-0.39804 0.51886,-0.38672 0.12082,0.12082 -0.41804,0.53304 -0.68082,0.70255 -0.68082,0.43918 z m 3.52,-3.2 c 0,-0.0665 0.252,-0.31845 0.56,-0.56 0.50754,-0.39804 0.51886,-0.38672 0.12082,0.12082 -0.41804,0.53304 -0.68082,0.70255 -0.68082,0.43918 z m 3.52,-3.2 c 0,-0.0665 0.252,-0.31845 0.56,-0.56 0.50754,-0.39804 0.51886,-0.38672 0.12082,0.12082 -0.41804,0.53304 -0.68082,0.70255 -0.68082,0.43918 z m 3.52,-3.2 c 0,-0.0664 0.252,-0.31845 0.56,-0.56 0.50754,-0.39804 0.51886,-0.38672 0.12082,0.12082 -0.41804,0.53304 -0.68082,0.70255 -0.68082,0.43918 z m 3.52,-3.2 c 0,-0.0664 0.252,-0.31845 0.56,-0.56 0.50754,-0.39804 0.51886,-0.38672 0.12082,0.12082 -0.41804,0.53304 -0.68082,0.70255 -0.68082,0.43918 z m 3.52,-3.2 c 0,-0.0664 0.252,-0.31845 0.56,-0.56 0.50754,-0.39804 0.51886,-0.38672 0.12082,0.12082 -0.41804,0.53304 -0.68082,0.70255 -0.68082,0.43918 z m 3.52,-3.2 c 0,-0.0665 0.252,-0.31845 0.56,-0.56 0.50754,-0.39804 0.51886,-0.38672 0.12082,0.12082 -0.41804,0.53304 -0.68082,0.70255 -0.68082,0.43918 z m 3.52,-3.2 c 0,-0.0665 0.252,-0.31845 0.56,-0.56 0.50754,-0.39804 0.51886,-0.38672 0.12082,0.12082 -0.41804,0.53304 -0.68082,0.70255 -0.68082,0.43918 z m 3.52,-3.2 c 0,-0.0664 0.252,-0.31845 0.56,-0.56 0.50754,-0.39804 0.51886,-0.38672 0.12082,0.12082 -0.41804,0.53304 -0.68082,0.70255 -0.68082,0.43918 z m 10.88,-9.92 c 0,-0.0665 0.252,-0.31845 0.56,-0.56 0.50754,-0.39804 0.51886,-0.38672 0.12082,0.12082 -0.41804,0.53304 -0.68082,0.70255 -0.68082,0.43918 z m -126.4,-58.24 c 0,-0.0665 0.252,-0.31845 0.56,-0.56 0.50754,-0.39804 0.51886,-0.38672 0.12082,0.12082 -0.41804,0.53304 -0.68082,0.70255 -0.68082,0.43918 z m 3.2,-2.88 c 0,-0.0664 0.252,-0.31845 0.56,-0.56 0.50754,-0.39804 0.51886,-0.38672 0.12082,0.12082 -0.41804,0.53304 -0.68082,0.70255 -0.68082,0.43918 z m 3.2,-2.88 c 0,-0.0665 0.252,-0.31845 0.56,-0.56 0.50754,-0.39804 0.51886,-0.38672 0.12082,0.12082 -0.41804,0.53304 -0.68082,0.70255 -0.68082,0.43918 z m 9.92,-8.96 c 0,-0.0665 0.252,-0.31845 0.56,-0.56 0.50754,-0.39804 0.51886,-0.38672 0.12082,0.12082 -0.41804,0.53304 -0.68082,0.70255 -0.68082,0.43918 z m 3.2,-2.88 c 0,-0.0664 0.252,-0.31845 0.56,-0.56 0.50754,-0.39804 0.51886,-0.38672 0.12082,0.12082 -0.41804,0.53304 -0.68082,0.70255 -0.68082,0.43918 z m 3.2,-2.88 c 0,-0.0665 0.252,-0.31845 0.56,-0.56 0.50754,-0.39804 0.51886,-0.38672 0.12082,0.12082 C 200.26278,169.25304 200,169.42255 200,169.15918 Z m 9.92,-8.96 c 0,-0.0665 0.252,-0.31845 0.56,-0.56 0.50754,-0.39804 0.51886,-0.38672 0.12082,0.12082 -0.41804,0.53304 -0.68082,0.70255 -0.68082,0.43918 z m 3.2,-2.88 c 0,-0.0664 0.252,-0.31845 0.56,-0.56 0.50754,-0.39804 0.51886,-0.38672 0.12082,0.12082 -0.41804,0.53304 -0.68082,0.70255 -0.68082,0.43918 z m 9.92,-8.96 c 0,-0.0665 0.252,-0.31845 0.56,-0.56 0.50754,-0.39804 0.51886,-0.38672 0.12082,0.12082 -0.41804,0.53304 -0.68082,0.70255 -0.68082,0.43918 z m 3.2,-2.88 c 0,-0.0665 0.252,-0.31845 0.56,-0.56 0.50754,-0.39804 0.51886,-0.38672 0.12082,0.12082 -0.41804,0.53304 -0.68082,0.70255 -0.68082,0.43918 z m 3.2,-2.88 c 0,-0.0665 0.252,-0.31845 0.56,-0.56 0.50754,-0.39804 0.51886,-0.38672 0.12082,0.12082 -0.41804,0.53304 -0.68082,0.70255 -0.68082,0.43918 z m 9.92,-8.96 c 0,-0.0665 0.252,-0.31845 0.56,-0.56 0.50754,-0.39804 0.51886,-0.38672 0.12082,0.12082 -0.41804,0.53304 -0.68082,0.70255 -0.68082,0.43918 z m 3.2,-2.88 c 0,-0.0664 0.252,-0.31845 0.56,-0.56 0.50754,-0.39804 0.51886,-0.38672 0.12082,0.12082 -0.41804,0.53304 -0.68082,0.70255 -0.68082,0.43918 z m 3.2,-2.88 c 0,-0.0665 0.252,-0.31845 0.56,-0.56 0.50754,-0.39804 0.51886,-0.38672 0.12082,0.12082 -0.41804,0.53304 -0.68082,0.70255 -0.68082,0.43918 z m 9.92,-8.96 c 0,-0.0665 0.252,-0.31845 0.56,-0.56 0.50754,-0.39804 0.51886,-0.38672 0.12082,0.12082 -0.41804,0.53304 -0.68082,0.70255 -0.68082,0.43918 z m 3.2,-2.88 c 0,-0.0665 0.252,-0.31845 0.56,-0.56 0.50754,-0.39804 0.51886,-0.38672 0.12082,0.12082 -0.41804,0.53304 -0.68082,0.70255 -0.68082,0.43918 z m 3.2,-2.88 c 0,-0.0665 0.252,-0.31845 0.56,-0.56 0.50754,-0.39804 0.51886,-0.38672 0.12082,0.12082 -0.41804,0.53304 -0.68082,0.70255 -0.68082,0.43918 z m 9.92,-8.96 c 0,-0.0665 0.252,-0.31845 0.56,-0.56 0.50754,-0.39804 0.51886,-0.38672 0.12082,0.12082 C 272.26278,104.29304 272,104.46255 272,104.19918 Z m 3.2,-2.88 c 0,-0.0665 0.252,-0.31845 0.56,-0.56 0.50754,-0.39804 0.51886,-0.38672 0.12082,0.12082 -0.41804,0.53304 -0.68082,0.70255 -0.68082,0.43918 z M 237.12,89.159181 c 0,-0.06645 0.252,-0.318448 0.56,-0.56 0.50754,-0.398039 0.51886,-0.38672 0.12082,0.120819 -0.41804,0.53304 -0.68082,0.702554 -0.68082,0.439181 z m 3.2,-2.88 c 0,-0.06645 0.252,-0.318448 0.56,-0.56 0.50754,-0.398039 0.51886,-0.38672 0.12082,0.120819 -0.41804,0.53304 -0.68082,0.702554 -0.68082,0.439181 z"
         id="path16" />
      <path
         style="fill:#000000;stroke-width:0.32"
         d="m 198.28392,428.01126 c -2.54513,-0.90732 -3.95973,-3.16313 -4.12076,-6.57126 l -0.0832,-1.76 2.62729,-0.0927 2.62729,-0.0927 0.21316,1.60688 c 0.11724,0.88381 0.37496,1.81101 0.57271,2.06045 1.14566,1.44512 3.20755,0.47324 3.20755,-1.51188 0,-1.38473 -0.71818,-2.22851 -3.648,-4.28601 -4.24775,-2.98307 -5.12,-4.27808 -5.12,-7.60151 0,-3.61411 1.44736,-5.88726 4.28516,-6.72998 3.2391,-0.96192 6.45955,-0.28819 8.28593,1.73338 1.09623,1.2134 1.25844,1.64156 1.67991,4.43414 l 0.20526,1.36 h -2.706 -2.70599 l -0.17337,-1.29254 c -0.21968,-1.63789 -0.71168,-2.22746 -1.85882,-2.22746 -1.48897,0 -2.10167,1.9815 -1.06871,3.45626 0.27685,0.39526 1.75285,1.56243 3.28,2.59366 3.198,2.15955 3.99395,2.93898 4.68136,4.58416 0.57816,1.38374 0.64365,4.33856 0.13665,6.16486 -0.46352,1.66964 -2.6128,3.81892 -4.28244,4.28244 -1.72498,0.47888 -4.52617,0.42777 -6.03502,-0.11012 z m 37.11949,0.0939 c -0.68012,-0.19033 -1.85455,-0.93984 -2.60984,-1.6656 -2.07149,-1.99049 -2.44157,-3.64563 -2.44157,-10.91955 0,-8.33987 0.69624,-10.36848 4.13547,-12.04938 2.13755,-1.0447 5.999,-1.04889 8.12683,-0.009 3.44049,1.6817 4.22458,4.21204 4.02179,12.9785 -0.079,3.41395 -0.30939,6.64589 -0.52113,7.30976 -0.50748,1.59117 -1.74849,3.01037 -3.35521,3.83699 -1.54275,0.79373 -5.40039,1.06541 -7.35634,0.51811 z m 4.89817,-5.54515 c 0.52425,-1.07971 0.70633,-11.1783 0.24116,-13.37472 -0.29214,-1.37936 -1.2825,-2.03024 -2.5899,-1.70211 -1.47952,0.37133 -1.63284,1.12726 -1.63284,8.05091 0,5.65104 0.0689,6.51923 0.57928,7.29818 0.48628,0.74214 0.76849,0.86832 1.75773,0.78592 0.94534,-0.0788 1.27065,-0.28807 1.64457,-1.05818 z m 14.62183,5.54515 c -1.86812,-0.52275 -3.87379,-2.63229 -4.49065,-4.72323 -0.71547,-2.42518 -0.73268,-13.24518 -0.0249,-15.62867 1.01474,-3.41699 3.47787,-5.02679 7.67211,-5.01415 4.8875,0.0147 7.43558,2.44948 7.9338,7.5809 l 0.14758,1.52 h -2.82108 -2.82109 l -0.2165,-1.44374 c -0.37,-2.46736 -1.73435,-3.57703 -3.34086,-2.71725 -0.99404,0.532 -1.3767,3.40979 -1.21914,9.1687 0.16759,6.12554 0.45789,6.93555 2.42651,6.77047 1.42031,-0.11911 1.88356,-0.87674 2.16337,-3.53818 l 0.19346,-1.84 h 2.89425 2.89425 l -0.21583,2.16 c -0.40272,4.03021 -1.42031,5.95325 -3.79726,7.17597 -1.56464,0.80486 -5.40774,1.08051 -7.37805,0.52918 z M 212.16,415.48307 v -12.35693 l 5.36,0.14909 c 5.70943,0.15882 6.93547,0.43949 8.30473,1.90119 1.22332,1.30592 1.79364,3.11945 1.79364,5.70358 0,4.91504 -2.15796,7.13651 -7.35961,7.57622 l -2.33876,0.1977 v 4.59302 4.59306 h -2.88 -2.88 z m 8.81454,-2.50851 c 0.57921,-0.57923 0.78546,-1.13091 0.78546,-2.10106 0,-1.71552 -0.39963,-2.4071 -1.641,-2.83984 -2.14653,-0.74828 -2.199,-0.68419 -2.199,2.68634 v 3.04 h 1.13454 c 0.77792,0 1.38145,-0.24691 1.92,-0.78544 z M 269.76,415.52 V 403.2 h 2.88 2.88 v 4.64 c 0,2.552 0.108,4.63779 0.24,4.6351 0.132,-0.003 1.09872,-2.09068 2.14826,-4.64 l 1.90827,-4.6351 h 2.97173 c 1.63446,0 2.97174,0.0709 2.97174,0.1575 0,0.0866 -1.17937,2.52138 -2.62082,5.41056 l -2.62082,5.25309 2.62082,6.68157 c 1.44145,3.67485 2.62082,6.7841 2.62082,6.90941 0,0.12534 -1.34887,0.22787 -2.99749,0.22787 h -2.99748 l -1.4017,-4.16 c -0.77093,-2.288 -1.47407,-4.1591 -1.56251,-4.15798 -0.0884,0 -0.41282,0.4448 -0.72082,0.98595 -0.42956,0.75472 -0.56,1.7232 -0.56,4.15795 V 427.84 h -2.88 -2.88 z m -49.05086,-68.71078 -16.57087,-8.05988 1.53087,-1.50268 c 0.84197,-0.8265 23.41886,-21.40504 50.17086,-45.73012 26.752,-24.32508 48.67229,-44.31947 48.71176,-44.43198 0.0395,-0.11251 -17.62347,-14.1615 -39.25099,-31.21999 l -39.32275,-31.01543 8.05099,-5.42598 c 4.42805,-2.98429 11.09469,-7.48552 14.81478,-10.00274 l 6.76378,-4.57677 5.0312,4.13544 c 2.76716,2.27449 5.19545,4.04527 5.39621,3.93506 0.20076,-0.11021 6.18427,-3.88898 13.29669,-8.39727 7.11242,-4.50828 12.97399,-8.19688 13.02572,-8.19688 0.2313,0 111.16018,85.73312 111.14031,85.89653 -0.0202,0.16686 -128.3444,110.26235 -130.48101,111.94603 l -0.91693,0.72253 -10.20988,-4.67991 c -5.61544,-2.57395 -10.81249,-4.94195 -11.54902,-5.2622 l -1.33913,-0.58234 -5.7665,5.25968 c -3.17158,2.89283 -5.80897,5.25722 -5.86087,5.25421 -0.0519,-0.003 -7.55125,-3.63242 -16.66522,-8.06531 z M 131.84602,239.20103 C 101.48933,215.54832 76.624048,196.07998 76.589843,195.93805 76.532646,195.70072 207.7014,84.108554 208.26623,83.914022 c 0.13731,-0.04729 5.40074,2.302685 11.69653,5.222167 l 11.44689,5.308144 2.93518,-2.653623 c 1.61434,-1.459491 4.23402,-3.832771 5.82151,-5.273958 l 2.88634,-2.620339 16.66859,8.179869 16.66858,8.179868 -6.75808,6.11192 c -3.71694,3.36156 -26.4588,23.88065 -50.53746,45.59797 -35.64625,32.1505 -43.70089,39.5604 -43.35685,39.88634 0.2324,0.22017 17.84654,14.25998 39.14254,31.19958 21.296,16.93959 38.7665,30.83723 38.82333,30.88364 0.0568,0.0464 -6.59182,4.55772 -14.77477,10.02511 l -14.8781,9.94072 -4.99732,-4.15072 c -2.74853,-2.28289 -5.05176,-4.15071 -5.11831,-4.15071 -0.0665,0 -5.95351,3.67207 -13.08215,8.16016 -7.12863,4.48808 -13.15275,8.22442 -13.38692,8.30297 -0.23417,0.0786 -25.26305,-19.20939 -55.61974,-42.8621 z"
         id="path14" />
    </g>
  </g>
</svg>
