<svg width="480" height="480" xmlns="http://www.w3.org/2000/svg">
	<path style="fill:#d0d0d0;stroke-width:.32" d="M259.14 428.581c.231-.092.507-.08.613.026.107.106-.082.182-.42.168-.372-.016-.448-.091-.193-.194zm-40.5-9.922c.308-.08.812-.08 1.12 0 .308.08.056.147-.56.147-.616 0-.868-.066-.56-.147zm43.2-.654a23.397 23.397 0 0 1 3.04 0c.836.066.152.12-1.52.12s-2.356-.054-1.52-.12zm-42.08-15.017c.22-.089.58-.089.8 0 .22.089.04.161-.4.161s-.62-.072-.4-.16zm-18.54-.647c.231-.092.507-.08.613.026.107.106-.082.182-.42.168-.372-.016-.448-.091-.193-.194zm37.12 0c.231-.092.507-.08.613.026.107.106-.082.182-.42.168-.372-.016-.448-.091-.193-.194zm19.52 0c.231-.092.507-.08.613.026.107.106-.082.182-.42.168-.372-.016-.448-.091-.193-.194zM240.64 352.2c0-.066.252-.318.56-.56.508-.398.519-.387.12.121-.417.533-.68.703-.68.44zm3.52-3.2c0-.066.252-.318.56-.56.508-.398.519-.387.12.121-.417.533-.68.703-.68.44zm3.52-3.2c0-.066.252-.318.56-.56.508-.398.519-.387.12.121-.417.533-.68.703-.68.44zm-40.64-10.24c0-.066.252-.318.56-.56.508-.398.519-.387.12.121-.417.533-.68.703-.68.44zm3.52-3.2c0-.066.252-.318.56-.56.508-.398.519-.387.12.121-.417.533-.68.703-.68.44zm3.52-3.2c0-.066.252-.318.56-.56.508-.398.519-.387.12.121-.417.533-.68.703-.68.44zm10.88-9.92c0-.066.252-.318.56-.56.508-.398.519-.387.12.121-.417.533-.68.703-.68.44zm3.52-3.2c0-.066.252-.318.56-.56.508-.398.519-.387.12.121-.417.533-.68.703-.68.44zm3.52-3.2c0-.066.252-.318.56-.56.508-.398.519-.387.12.121-.417.533-.68.703-.68.44Zm3.52-3.2c0-.066.252-.318.56-.56.508-.398.519-.387.12.121-.417.533-.68.703-.68.44zm3.52-3.2c0-.066.252-.318.56-.56.508-.398.519-.387.12.121-.417.533-.68.703-.68.44zm3.52-3.2c0-.066.252-.318.56-.56.508-.398.519-.387.12.121-.417.533-.68.703-.68.44zm3.52-3.2c0-.066.252-.318.56-.56.508-.398.519-.387.12.121-.417.533-.68.703-.68.44zm3.52-3.2c0-.066.252-.318.56-.56.508-.398.519-.387.12.121-.417.533-.68.703-.68.44zm10.88-9.92c0-.066.252-.318.56-.56.508-.398.519-.387.12.121-.417.533-.68.703-.68.44zm3.52-3.2c0-.066.252-.318.56-.56.508-.398.519-.387.12.121-.417.533-.68.703-.68.44Zm3.52-3.2c0-.066.252-.318.56-.56.508-.398.519-.387.12.121-.417.533-.68.703-.68.44zm3.52-3.2c0-.066.252-.318.56-.56.508-.398.519-.387.12.121-.417.533-.68.703-.68.44zm3.52-3.2c0-.066.252-.318.56-.56.508-.398.519-.387.12.121-.417.533-.68.703-.68.44zm3.52-3.2c0-.066.252-.318.56-.56.508-.398.519-.387.12.121-.417.533-.68.703-.68.44zm3.52-3.2c0-.066.252-.318.56-.56.508-.398.519-.387.12.121-.417.533-.68.703-.68.44zm3.52-3.2c0-.066.252-.318.56-.56.508-.398.519-.387.12.121-.417.533-.68.703-.68.44zm3.52-3.2c0-.066.252-.318.56-.56.508-.398.519-.387.12.121-.417.533-.68.703-.68.44zm7.36-6.72c0-.066.252-.318.56-.56.508-.398.519-.387.12.121-.417.533-.68.703-.68.44Zm3.52-3.2c0-.066.252-.318.56-.56.508-.398.519-.387.12.121-.417.533-.68.703-.68.44zm3.52-3.2c0-.066.252-.318.56-.56.508-.398.519-.387.12.121-.417.533-.68.703-.68.44zm-121.92-61.76c0-.066.252-.318.56-.56.508-.398.519-.387.12.121-.417.533-.68.703-.68.44zm3.2-2.88c0-.066.252-.318.56-.56.508-.398.519-.387.12.121-.417.533-.68.703-.68.44zm3.2-2.88c0-.066.252-.318.56-.56.508-.398.519-.387.12.121-.417.533-.68.703-.68.44zm9.92-8.96c0-.066.252-.318.56-.56.508-.398.519-.387.12.121-.417.533-.68.703-.68.44zm3.2-2.88c0-.066.252-.318.56-.56.508-.398.519-.387.12.121-.417.533-.68.703-.68.44zm3.2-2.88c0-.066.252-.318.56-.56.508-.398.519-.387.12.121-.417.533-.68.703-.68.44zm9.92-8.96c0-.066.252-.318.56-.56.508-.398.519-.387.12.121-.417.533-.68.703-.68.44zm3.2-2.88c0-.066.252-.318.56-.56.508-.398.519-.387.12.121-.417.533-.68.703-.68.44zm3.2-2.88c0-.066.252-.318.56-.56.508-.398.519-.387.12.121-.417.533-.68.703-.68.44zm6.72-6.08c0-.066.252-.318.56-.56.508-.398.519-.387.12.121-.417.533-.68.703-.68.44zm3.2-2.88c0-.066.252-.318.56-.56.508-.398.519-.387.12.121-.417.533-.68.703-.68.44zm3.2-2.88c0-.066.252-.318.56-.56.508-.398.519-.387.12.121-.417.533-.68.703-.68.44zm9.92-8.96c0-.066.252-.318.56-.56.508-.398.519-.387.12.121-.417.533-.68.703-.68.44zm3.2-2.88c0-.066.252-.318.56-.56.508-.398.519-.387.12.121-.417.533-.68.703-.68.44zm3.2-2.88c0-.066.252-.318.56-.56.508-.398.519-.387.12.121-.417.533-.68.703-.68.44zm9.92-8.96c0-.066.252-.318.56-.56.508-.398.519-.387.12.121-.417.533-.68.703-.68.44zm3.2-2.88c0-.066.252-.318.56-.56.508-.398.519-.387.12.121-.417.533-.68.703-.68.44zm3.2-2.88c0-.066.252-.318.56-.56.508-.398.519-.387.12.121-.417.533-.68.703-.68.44zm10.198-9.268c.196-.237.25-.548.12-.692-.131-.144-.051-.154.178-.022.32.185.33.344.04.691-.206.249-.446.452-.534.452-.088 0 0-.193.196-.43zM233.28 92.36c0-.066.252-.318.56-.56.508-.398.519-.387.12.121-.417.533-.68.703-.68.44zm3.2-2.88c0-.066.252-.318.56-.56.508-.398.519-.387.12.121-.417.533-.68.703-.68.44zm3.2-2.88c0-.066.252-.318.56-.56.508-.398.519-.387.12.121-.417.533-.68.703-.68.44z"/>
	<path style="fill:#b0b0b0;stroke-width:.32" d="m269.594 415.36.006-12.32 2.961-.02 2.961-.018-2.877.11-2.877.112-.09 12.228-.089 12.228.006-12.32zm-66.18-4.693c-.118-.118-.212-.37-.21-.56.004-.217.098-.202.25.038.147.23 1.27.43 2.796.496l2.55.11-2.587.065c-1.422.035-2.682-.032-2.8-.15zm10.599-7.704a39.392 39.392 0 0 1 3.84 0c1.005.063.099.114-2.013.114s-2.934-.053-1.827-.115zm67.347.003a23.397 23.397 0 0 1 3.04 0c.836.066.152.12-1.52.12s-2.356-.054-1.52-.12z"/>
	<path style="fill:#909090;stroke-width:.32" d="M257.86 428.581c.231-.092.507-.08.613.026.107.106-.082.182-.42.168-.372-.016-.448-.091-.193-.194zm-39.812-5.381c0-2.64.05-3.677.11-2.305a63.54 63.54 0 0 1 0 4.8c-.061 1.268-.11.145-.11-2.495zm-22.608-3.914a18.32 18.32 0 0 1 2.72 0c.748.067.136.122-1.36.122s-2.108-.055-1.36-.122zm51.305-.273c.016-.372.091-.448.194-.193.092.231.08.507-.026.613-.106.107-.182-.082-.168-.42zm-10.473-3.333c0-1.496.055-2.108.122-1.36a18.32 18.32 0 0 1 0 2.72c-.067.748-.122.136-.122-1.36zm19.495-.32c0-.792.063-1.116.139-.72a4.558 4.558 0 0 1 0 1.44c-.076.396-.139.072-.139-.72zm-59.477-.4-.61-.72.72.61c.677.572.866.83.61.83-.061 0-.385-.324-.72-.72zm21.744-4.24c-.001-1.584.053-2.272.12-1.53.067.743.068 2.039.002 2.88-.066.842-.121.234-.122-1.35zm28.711 1.253c.016-.372.091-.448.194-.193.092.231.08.507-.026.613-.106.107-.182-.082-.168-.42z"/>
	<path style="fill:#6f6f6f;stroke-width:.32" d="M208.985 420.933c.016-.372.091-.448.194-.193.092.231.08.507-.026.613-.106.107-.182-.082-.168-.42zm37.786-3.013c0-.44.072-.62.16-.4.09.22.09.58 0 .8-.088.22-.16.04-.16-.4zm8.96-.64c0-.44.072-.62.16-.4.09.22.09.58 0 .8-.088.22-.16.04-.16-.4zm-49.052-2.16c-.398-.508-.387-.519.121-.12.308.24.56.493.56.56 0 .263-.263.093-.68-.44zm40.103-1.84c.007-.528.079-.705.16-.394.08.311.076.743-.012.96-.088.217-.154-.038-.148-.566zm8.949.16c0-.44.072-.62.16-.4.09.22.09.58 0 .8-.088.22-.16.04-.16-.4zm-19.546-.827c.016-.372.091-.448.194-.193.092.231.08.507-.026.613-.106.107-.182-.082-.168-.42zm25.665-.689c.841-.066 2.137-.065 2.88.003.742.067.054.122-1.53.12-1.584 0-2.192-.055-1.35-.121z"/>
	<path style="fill:#4e4e4e;stroke-width:.32" d="M211.986 427.759c-.085-.22-.114-5.873-.066-12.56l.088-12.159.076 12.388.076 12.388 2.96.106 2.96.105-2.97.067c-2.136.047-3.013-.047-3.124-.335zm59.134.166a23.397 23.397 0 0 1 3.04 0c.836.066.152.12-1.52.12s-2.356-.054-1.52-.12zm10.24 0a23.397 23.397 0 0 1 3.04 0c.836.066.152.12-1.52.12s-2.356-.054-1.52-.12zm-45.175-8.592c.016-.372.091-.448.194-.193.092.231.08.507-.026.613-.106.107-.182-.082-.168-.42zm-6.08-.32c.016-.372.091-.448.194-.193.092.231.08.507-.026.613-.106.107-.182-.082-.168-.42zm19.546-.133c0-.44.072-.62.16-.4.09.22.09.58 0 .8-.088.22-.16.04-.16-.4zm6.08-.32c0-.44.072-.62.16-.4.09.22.09.58 0 .8-.088.22-.16.04-.16-.4zm-8.915-2.88c0-.968.06-1.364.133-.88a7.07 7.07 0 0 1 0 1.76c-.073.484-.133.088-.133-.88zm2.846-3.36c.007-.528.079-.705.16-.394.08.311.076.743-.012.96-.088.217-.154-.038-.148-.566zm6.043-.027c.016-.372.091-.448.194-.193.092.231.08.507-.026.613-.106.107-.182-.082-.168-.42zm-25.6-.32c.016-.372.091-.448.194-.193.092.231.08.507-.026.613-.106.107-.182-.082-.168-.42zm6.08-.32c.016-.372.091-.448.194-.193.092.231.08.507-.026.613-.106.107-.182-.082-.168-.42z"/>
	<path style="fill:#2f2f2f;stroke-width:.32" d="M275.64 424.48c0-1.936.053-2.687.117-1.668a32.319 32.319 0 0 1-.001 3.52c-.065.917-.117.084-.116-1.852zm-9.695-3.547c.016-.372.091-.448.194-.193.092.231.08.507-.026.613-.106.107-.182-.082-.168-.42zm-66.534-.773c0-.44.072-.62.16-.4.09.22.09.58 0 .8-.088.22-.16.04-.16-.4zm36.774.133c.016-.372.091-.448.194-.193.092.231.08.507-.026.613-.106.107-.182-.082-.168-.42zm19.52-.64c.016-.372.091-.448.194-.193.092.231.08.507-.026.613-.106.107-.182-.082-.168-.42zm4.517-.613c.007-.528.079-.705.16-.394.08.311.076.743-.012.96-.088.217-.154-.038-.148-.566zm-19.462-3.52c0-1.936.053-2.687.117-1.668a32.319 32.319 0 0 1-.001 3.52c-.065.917-.117.084-.116-1.852zm-10.6 1.92c.005-.704.07-.954.146-.556.077.398.074.974-.006 1.28-.08.306-.142-.02-.139-.724zm19.552-1.76c0-1.496.055-2.108.122-1.36a18.32 18.32 0 0 1 0 2.72c-.067.748-.122.136-.122-1.36zm-19.551-2.08c.004-.704.069-.954.145-.556.077.398.074.974-.006 1.28-.08.306-.142-.02-.139-.724zm45.418-5.84c.06-4.748.179-4.181.336 1.6.047 1.717-.023 3.121-.155 3.12-.132 0-.213-2.124-.18-4.72zm-19.848 3.44c0-.44.072-.62.16-.4.09.22.09.58 0 .8-.088.22-.16.04-.16-.4zm-19.546-.507c.016-.372.091-.448.194-.193.092.231.08.507-.026.613-.106.107-.182-.082-.168-.42zm29.76 0c.016-.372.091-.448.194-.193.092.231.08.507-.026.613-.106.107-.182-.082-.168-.42zm-71.643-.933c.007-.528.079-.705.16-.394.08.311.076.743-.012.96-.088.217-.154-.038-.148-.566zm14.363-.987c.016-.372.091-.448.194-.193.092.231.08.507-.026.613-.106.107-.182-.082-.168-.42zm54.974-4.213c-.398-.508-.387-.519.121-.12.308.24.56.493.56.56 0 .263-.263.093-.68-.44zM240 352.52c0-.067.252-.32.56-.56.508-.399.519-.388.12.12-.417.533-.68.703-.68.44Zm3.52-3.2c0-.067.252-.32.56-.56.508-.399.519-.388.12.12-.417.533-.68.703-.68.44zm-39.36-10.88c0-.067.252-.32.56-.56.508-.399.519-.388.12.12-.417.533-.68.703-.68.44zm3.52-3.2c0-.067.252-.32.56-.56.508-.399.519-.388.12.12-.417.533-.68.703-.68.44zm3.52-3.2c0-.067.252-.32.56-.56.508-.399.519-.388.12.12-.417.533-.68.703-.68.44zm3.52-3.2c0-.067.252-.32.56-.56.508-.399.519-.388.12.12-.417.533-.68.703-.68.44zm3.52-3.2c0-.067.252-.32.56-.56.508-.399.519-.388.12.12-.417.533-.68.703-.68.44zm10.88-9.92c0-.067.252-.32.56-.56.508-.399.519-.388.12.12-.417.533-.68.703-.68.44zm3.52-3.2c0-.067.252-.32.56-.56.508-.399.519-.388.12.12-.417.533-.68.703-.68.44zm3.52-3.2c0-.067.252-.32.56-.56.508-.399.519-.388.12.12-.417.533-.68.703-.68.44zm3.52-3.2c0-.067.252-.32.56-.56.508-.399.519-.388.12.12-.417.533-.68.703-.68.44zm3.52-3.2c0-.067.252-.32.56-.56.508-.399.519-.388.12.12-.417.533-.68.703-.68.44zm3.52-3.2c0-.067.252-.32.56-.56.508-.399.519-.388.12.12-.417.533-.68.703-.68.44zm3.52-3.2c0-.067.252-.32.56-.56.508-.399.519-.388.12.12-.417.533-.68.703-.68.44zm3.52-3.2c0-.067.252-.32.56-.56.508-.399.519-.388.12.12-.417.533-.68.703-.68.44zm10.88-9.92c0-.067.252-.32.56-.56.508-.399.519-.388.12.12-.417.533-.68.703-.68.44zm3.52-3.2c0-.067.252-.32.56-.56.508-.399.519-.388.12.12-.417.533-.68.703-.68.44zm3.52-3.2c0-.067.252-.32.56-.56.508-.399.519-.388.12.12-.417.533-.68.703-.68.44zm3.52-3.2c0-.067.252-.32.56-.56.508-.399.519-.388.12.12-.417.533-.68.703-.68.44zm3.52-3.2c0-.067.252-.32.56-.56.508-.399.519-.388.12.12-.417.533-.68.703-.68.44zm3.52-3.2c0-.067.252-.32.56-.56.508-.399.519-.388.12.12-.417.533-.68.703-.68.44zm3.52-3.2c0-.067.252-.32.56-.56.508-.399.519-.388.12.12-.417.533-.68.703-.68.44zm3.52-3.2c0-.067.252-.32.56-.56.508-.399.519-.388.12.12-.417.533-.68.703-.68.44zm3.52-3.2c0-.067.252-.32.56-.56.508-.399.519-.388.12.12-.417.533-.68.703-.68.44zm10.88-9.92c0-.067.252-.32.56-.56.508-.399.519-.388.12.12-.417.533-.68.703-.68.44zm-126.4-58.24c0-.067.252-.32.56-.56.508-.399.519-.388.12.12-.417.533-.68.703-.68.44zm3.2-2.88c0-.067.252-.32.56-.56.508-.399.519-.388.12.12-.417.533-.68.703-.68.44zm3.2-2.88c0-.067.252-.32.56-.56.508-.399.519-.388.12.12-.417.533-.68.703-.68.44zm9.92-8.96c0-.067.252-.32.56-.56.508-.399.519-.388.12.12-.417.533-.68.703-.68.44zm3.2-2.88c0-.067.252-.32.56-.56.508-.399.519-.388.12.12-.417.533-.68.703-.68.44zm3.2-2.88c0-.067.252-.32.56-.56.508-.399.519-.388.12.12-.417.533-.68.703-.68.44Zm9.92-8.96c0-.067.252-.32.56-.56.508-.399.519-.388.12.12-.417.533-.68.703-.68.44zm3.2-2.88c0-.067.252-.32.56-.56.508-.399.519-.388.12.12-.417.533-.68.703-.68.44zm9.92-8.96c0-.067.252-.32.56-.56.508-.399.519-.388.12.12-.417.533-.68.703-.68.44zm3.2-2.88c0-.067.252-.32.56-.56.508-.399.519-.388.12.12-.417.533-.68.703-.68.44zm3.2-2.88c0-.067.252-.32.56-.56.508-.399.519-.388.12.12-.417.533-.68.703-.68.44zm9.92-8.96c0-.067.252-.32.56-.56.508-.399.519-.388.12.12-.417.533-.68.703-.68.44zm3.2-2.88c0-.067.252-.32.56-.56.508-.399.519-.388.12.12-.417.533-.68.703-.68.44zm3.2-2.88c0-.067.252-.32.56-.56.508-.399.519-.388.12.12-.417.533-.68.703-.68.44zm9.92-8.96c0-.067.252-.32.56-.56.508-.399.519-.388.12.12-.417.533-.68.703-.68.44zm3.2-2.88c0-.067.252-.32.56-.56.508-.399.519-.388.12.12-.417.533-.68.703-.68.44zm3.2-2.88c0-.067.252-.32.56-.56.508-.399.519-.388.12.12-.417.533-.68.703-.68.44zm9.92-8.96c0-.067.252-.32.56-.56.508-.399.519-.388.12.12-.417.533-.68.703-.68.44Zm3.2-2.88c0-.067.252-.32.56-.56.508-.399.519-.388.12.12-.417.533-.68.703-.68.44zm-38.08-12.16c0-.067.252-.32.56-.56.508-.399.519-.388.12.12-.417.533-.68.703-.68.44zm3.2-2.88c0-.067.252-.32.56-.56.508-.399.519-.388.12.12-.417.533-.68.703-.68.44z"/>
	<path style="fill:#000;stroke-width:.32" d="M198.284 428.011c-2.545-.907-3.96-3.163-4.12-6.571l-.084-1.76 2.627-.093 2.628-.092.213 1.606c.117.884.375 1.811.572 2.06 1.146 1.446 3.208.474 3.208-1.51 0-1.386-.718-2.23-3.648-4.287-4.248-2.983-5.12-4.278-5.12-7.601 0-3.615 1.447-5.888 4.285-6.73 3.24-.962 6.46-.289 8.286 1.733 1.096 1.213 1.258 1.641 1.68 4.434l.205 1.36h-5.412l-.173-1.292c-.22-1.638-.712-2.228-1.859-2.228-1.489 0-2.102 1.982-1.069 3.456.277.396 1.753 1.563 3.28 2.594 3.198 2.16 3.994 2.939 4.682 4.584.578 1.384.643 4.339.136 6.165-.463 1.67-2.612 3.819-4.282 4.282-1.725.48-4.526.428-6.035-.11zm37.12.094c-.68-.19-1.855-.94-2.61-1.665-2.072-1.99-2.442-3.646-2.442-10.92 0-8.34.696-10.368 4.135-12.05 2.138-1.044 6-1.048 8.127-.008 3.44 1.681 4.225 4.212 4.022 12.978-.079 3.414-.31 6.646-.521 7.31-.508 1.591-1.749 3.01-3.355 3.837-1.543.794-5.4 1.065-7.357.518zm4.898-5.545c.524-1.08.706-11.178.24-13.375-.291-1.38-1.282-2.03-2.59-1.702-1.479.372-1.632 1.127-1.632 8.051 0 5.651.069 6.52.58 7.298.486.742.768.869 1.757.786.945-.079 1.27-.288 1.645-1.058zm14.621 5.545c-1.868-.523-3.873-2.632-4.49-4.723-.716-2.425-.733-13.245-.025-15.629 1.015-3.417 3.478-5.027 7.672-5.014 4.887.015 7.436 2.45 7.934 7.581l.147 1.52h-5.641l-.216-1.444c-.37-2.467-1.735-3.577-3.341-2.717-.994.532-1.377 3.41-1.22 9.169.168 6.125.459 6.935 2.427 6.77 1.42-.119 1.884-.877 2.164-3.538l.193-1.84h5.789l-.216 2.16c-.403 4.03-1.42 5.953-3.798 7.176-1.564.805-5.407 1.08-7.378.53zm-42.763-12.622v-12.357l5.36.15c5.71.158 6.935.439 8.305 1.9 1.223 1.306 1.793 3.12 1.793 5.704 0 4.915-2.158 7.137-7.36 7.576l-2.338.198v9.186h-5.76zm8.815-2.508c.579-.58.785-1.131.785-2.102 0-1.715-.4-2.407-1.641-2.84-2.147-.748-2.199-.684-2.199 2.687v3.04h1.135c.777 0 1.381-.247 1.92-.785zm48.785 2.545V403.2h5.76v4.64c0 2.552.108 4.638.24 4.635.132-.003 1.099-2.09 2.148-4.64l1.909-4.635h2.971c1.635 0 2.972.07 2.972.158 0 .086-1.18 2.52-2.62 5.41l-2.622 5.253 2.621 6.682c1.442 3.675 2.621 6.784 2.621 6.91 0 .124-1.349.227-2.997.227h-2.998l-1.402-4.16c-.77-2.288-1.474-4.16-1.562-4.158-.089 0-.413.445-.721.986-.43.755-.56 1.723-.56 4.158v3.174h-5.76zm-49.05-68.71-16.572-8.06 1.531-1.503c.842-.827 23.419-21.405 50.171-45.73 26.752-24.326 48.672-44.32 48.712-44.432.04-.113-17.624-14.162-39.251-31.22l-39.323-31.016 8.051-5.426a10663.3 10663.3 0 0 0 14.815-10.003l6.764-4.576 5.03 4.135c2.768 2.275 5.196 4.045 5.397 3.935.2-.11 6.184-3.889 13.297-8.397 7.112-4.508 12.974-8.197 13.025-8.197.232 0 111.16 85.733 111.14 85.897-.02.166-128.344 110.262-130.48 111.946l-.917.722-10.21-4.68c-5.616-2.574-10.813-4.942-11.55-5.262l-1.338-.582-5.767 5.26c-3.171 2.892-5.809 5.257-5.86 5.254-.053-.003-7.552-3.633-16.666-8.066zM131.845 239.2c-30.357-23.653-55.222-43.121-55.256-43.263-.057-.237 131.111-111.83 131.676-112.024.138-.047 5.401 2.303 11.697 5.222l11.447 5.308 2.935-2.653a4609.75 4609.75 0 0 0 5.821-5.274l2.887-2.62 16.668 8.18 16.669 8.18-6.758 6.111c-3.717 3.362-26.459 23.88-50.538 45.598-35.646 32.15-43.7 39.56-43.357 39.886.233.22 17.847 14.26 39.143 31.2 21.296 16.94 38.767 30.837 38.823 30.884.057.046-6.591 4.557-14.774 10.025l-14.879 9.94-4.997-4.15c-2.748-2.283-5.052-4.151-5.118-4.151-.067 0-5.954 3.672-13.082 8.16-7.129 4.488-13.153 8.225-13.387 8.303-.234.079-25.263-19.21-55.62-42.862z"/>
</svg>
