<svg xmlns="http://www.w3.org/2000/svg" viewBox="-1.51 -1.51 78.26 32.13">
	<g fill="none" fill-rule="evenodd">
		<path fill="#DB1830" d="M46.398 23.29c-.362 0-.601 0-.82-.016l-.038-.003v-3.657l.038-.002c.255-.018.588-.018.856-.018 1.334 0 1.602.76 1.602 1.987 0 1.183-.504 1.71-1.638 1.71zm3.178 1.212.028-.02c.96-.76 1.491-1.93 1.491-3.302 0-2.755-2.38-3.737-4.607-3.737-1.136 0-2.846 0-3.83.032V28.94h2.882v-3.497h.876c.175 0 .34-.01.493-.019l.023-.002.013.02c.479.757 1.088 1.976 1.286 3.498h3.154c-.267-1.752-1.234-3.51-1.79-4.407l-.02-.03zm-33.959.445 1.199-4.99h.12l1.226 4.99h-2.545zm-.877-7.486-2.817 11.478h2.94l.414-1.823h3.225l.414 1.823h3.102L19.236 17.46H14.74zm41.085 9.238v-2.52h3.738v-2.22h-3.738v-2.262h4.083V17.46h-6.84v9.447c0 .01-.017.908.584 1.523.376.385.911.581 1.592.585 2.097.012 4.395-.065 4.718-.076V26.7h-4.137zM37.54 25.104c0 1.175-.068 1.894-1.395 1.894-1.271 0-1.486-.59-1.486-1.91V17.46h-2.985v7.78c0 2.738 1.34 3.96 4.345 3.96 3.074 0 4.506-1.389 4.506-4.373V17.46H37.54v7.643zM22.124 19.8h2.598v9.139h3.004V19.8h2.214v-2.34h-7.816v2.34zm-14.52 5.248-4.24-8.977H0V28.94h2.646v-8.88l4.209 8.88h3.409V16.07h-2.66v8.977z"/>
		<path fill="#001A59" d="M70.29 7.337c-.362 0-.601 0-.82-.017l-.037-.003V3.661l.037-.003c.255-.018.589-.018.856-.018 1.334 0 1.603.76 1.603 1.988 0 1.182-.505 1.709-1.639 1.709zm3.197 1.241-.02-.03.029-.02c.961-.759 1.49-1.93 1.49-3.302 0-2.755-2.378-3.737-4.606-3.737-1.136 0-2.846 0-3.83.033v11.463h2.883V9.488h.875c.175 0 .34-.009.492-.019l.025-.002.012.02c.48.757 1.088 1.976 1.285 3.498l3.155.001c-.267-1.753-1.234-3.512-1.79-4.408zM60.29 8.225h3.738V6.006H60.29V3.743h4.083V1.507h-6.841v9.447c0 .01-.017.908.585 1.523.375.385.912.582 1.592.586 2.097.011 4.395-.065 4.719-.076v-2.242H60.29v-2.52zm-8.525.441h1.2v2.345l-.028.01c-.29.102-.98.156-1.268.156-1.523 0-2.117-1.114-2.117-3.97 0-2.51.877-3.731 2.68-3.731.602 0 1.48.266 2.415.731l.782-1.913a7.194 7.194 0 0 0-3.651-1.04c-1.748 0-3.008.485-3.851 1.485-.839.993-1.246 2.465-1.246 4.502 0 4.447 1.308 6.1 4.824 6.1 1.12 0 2.805-.286 4.06-.927V6.708h-3.8v1.958zm-9.493.352-3.453-7.51h-3.152v11.477h2.538v-7.24l3.58 7.24h3.039V1.507h-2.552v7.51zm-12.02 3.967 2.881.002V1.507h-2.88v11.479zm-6.81-5.648c-.362 0-.601 0-.82-.017l-.038-.003V3.661l.038-.003c.255-.018.588-.018.856-.018 1.334 0 1.603.76 1.603 1.988 0 1.182-.505 1.709-1.639 1.709zm3.177 1.212.029-.021c.961-.759 1.49-1.93 1.49-3.302 0-2.755-2.379-3.737-4.606-3.737-1.137 0-2.846 0-3.832.033v11.463h2.884V9.488h.876c.174 0 .34-.009.492-.019l.025-.002.012.02c.479.757 1.089 1.976 1.285 3.498l3.154.001c-.267-1.753-1.234-3.512-1.79-4.408l-.019-.03zM13.871 7.337c-.362 0-.601 0-.82-.018l-.038-.002V3.66l.037-.002c.256-.017.59-.017.857-.017 1.335 0 1.603.76 1.603 1.986 0 1.182-.506 1.71-1.639 1.71zm.09-5.847c-1.135 0-2.845 0-3.83.032v11.463h2.882V9.488h.876c1.313 0 4.365-.419 4.365-4.303 0-2.383-1.524-3.695-4.292-3.695zM5.205 5.36c-1.01-.47-1.882-.874-1.882-1.657 0-.643.42-1.292 1.358-1.292.68 0 1.487.224 2.54.704l1.046-2.07C7.051.342 5.804 0 4.458 0 1.844 0 .284 1.39.284 3.72c0 2.327 1.824 3.226 3.291 3.948 1.064.524 1.982.977 1.982 1.83 0 .736-.662 1.23-1.645 1.23-.789 0-1.752-.286-2.863-.853L0 12.093c1.405.79 2.689 1.143 4.156 1.143 2.714 0 4.336-1.49 4.336-3.987 0-2.36-1.824-3.209-3.288-3.888z"/>
	</g>
</svg>
