<svg xmlns="http://www.w3.org/2000/svg" width="200" height="128">
	<defs>
		<linearGradient id="a" x1="-12738.666" y1="-10575.392" x2="-12701.228" y2="-10597.514" gradientTransform="matrix(.119 0 0 .119 1606.201 1330.007)" gradientUnits="userSpaceOnUse">
			<stop offset="0" stop-color="#909ca9"/>
			<stop offset="1" stop-color="#ededee"/>
		</linearGradient>
		<linearGradient id="b" x1="-12737.826" y1="-10992.327" x2="-12707.702" y2="-10992.327" gradientTransform="matrix(.119 0 0 .119 1606.201 1330.007)" gradientUnits="userSpaceOnUse">
			<stop offset="0" stop-color="#939fab"/>
			<stop offset="1" stop-color="#dcdee1"/>
		</linearGradient>
		<radialGradient id="c" cx="75.076" cy="-6251.814" r="39.995" gradientTransform="matrix(-.114 -.017 .035 -.228 336.921 -1383.204)" gradientUnits="userSpaceOnUse">
			<stop offset="0" stop-color="#ee352c"/>
			<stop offset="1" stop-color="#a91d22"/>
		</radialGradient>
	</defs>
	<path d="m119.812 47.657-12.294 4.015-10.7 4.72-2.992.79a63.028 63.028 0 0 1-2.425 2.2 85.482 85.482 0 0 1-2.509 2.1 18.731 18.731 0 0 0-2.43 2.418 10.945 10.945 0 0 0-1.8 3.048 5.118 5.118 0 0 0 .725 4.6 16.293 16.293 0 0 0 6.713 5.045 42.76 42.76 0 0 0 5.91 1.98 78.254 78.254 0 0 0 12.6 1.793 14.37 14.37 0 0 0 1.626 0 22.083 22.083 0 0 0 1.2-2.276 57.539 57.539 0 0 0 4.364-11.532 54.7 54.7 0 0 0 1.115-7.991c.065-.9.093-3.922.037-4.944a34.633 34.633 0 0 0-.464-4.358 1 1 0 0 1-.028-.381 15.905 15.905 0 0 1 1.663-.5l-.306-.724zm-2.807 1.643a30.081 30.081 0 0 1 .484 4.656 2.477 2.477 0 0 1-.01.632c-.074 0-1.57-.883-2.639-1.552-.929-.586-2.694-1.756-2.973-1.979-.093-.065-.084-.075.678-.335 1.292-.435 4.355-1.422 4.46-1.422zm-6.262 2.063a3.1 3.1 0 0 1 .808.437 57.446 57.446 0 0 0 5.631 3.131c.344.149.381.093-.409.632a40.522 40.522 0 0 1-6.384 3.429c-.455.2-.836.362-.845.362a2.381 2.381 0 0 1 .111-.511 27.394 27.394 0 0 0 1-6.532c.009-.929.009-.929.093-.957-.019.009-.01.009 0 .009zm-1.292.493a20.033 20.033 0 0 1-.056 2.7 23.575 23.575 0 0 1-.855 4.042 6.315 6.315 0 0 1-.213.65 16.228 16.228 0 0 1-1.729-1.682 12.583 12.583 0 0 1-1.71-2.49 7.859 7.859 0 0 1-.52-1.264c.149-.1 5.046-2 5.083-1.96zm-6.077 2.388a.036.036 0 0 1 .028.009 1.811 1.811 0 0 1 .139.334 12.511 12.511 0 0 0 1.543 2.76 15.65 15.65 0 0 0 2.146 2.314c.223.186.427.362.455.39.056.056.075.047-1.44.623-1.756.669-3.67 1.338-5.863 2.044q-.786.254-1.57.511c-.084.028-.056-.018.185-.4a52.389 52.389 0 0 0 3.671-7.4c.158-.409.316-.818.343-.911a.337.337 0 0 1 .2-.241.844.844 0 0 1 .158-.037zm-1.858.771a21.15 21.15 0 0 1-.911 1.923c-.9 1.757-1.887 3.485-3.206 5.585-.223.362-.437.7-.465.734-.046.065-.065.047-.213-.241a8.551 8.551 0 0 1-.716-2.156 8.689 8.689 0 0 1 .047-2.769c.12-.576.111-.567.39-.707 1.189-.6 5.036-2.406 5.074-2.369zm16.028.65v.391a50.593 50.593 0 0 1-.544 6.989c-.056.363-.1.66-.111.669s-.27-.074-.586-.167a24.021 24.021 0 0 1-4.274-1.83 18.843 18.843 0 0 1-2.175-1.339c.01-.009.4-.213.855-.455a54.751 54.751 0 0 0 5.083-2.983c.567-.381 1.422-.994 1.608-1.161l.148-.112zM94.5 58.418c.037 0 .028.074-.028.409-.037.241-.084.687-.1.994a6.867 6.867 0 0 0 .817 3.735c.186.381.335.7.326.706-.065.056-6.217 1.859-8.15 2.389-.576.158-1.077.3-1.115.306-.065.019-.074.01-.046-.149a9.768 9.768 0 0 1 2.7-4.655 12.036 12.036 0 0 1 3.057-2.342c.948-.538 2.407-1.347 2.518-1.384 0-.009.01-.009.019-.009zM109 61.01a3.817 3.817 0 0 1 .5.27 28.007 28.007 0 0 0 7.118 2.769l.214.046-.3.168c-1.235.687-5.3 2.378-9.45 3.93-.6.223-1.2.446-1.31.493a.687.687 0 0 1-.214.065c0-.01.168-.335.381-.734a45.753 45.753 0 0 0 2.927-6.663c.075-.176.121-.334.131-.344zm-1.478.484a2.63 2.63 0 0 1-.158.427 58.814 58.814 0 0 1-3.224 6.495c-.344.614-.632 1.106-.642 1.106s-.287-.167-.622-.372a19.1 19.1 0 0 1-4.86-4.135l-.167-.2.845-.232a60.557 60.557 0 0 0 8.159-2.816c.358-.153.656-.273.665-.273zm9.181 3.2c.009.214-.465 2.128-.855 3.513a93.058 93.058 0 0 1-1.115 3.679c-.223.707-.418 1.292-.428 1.292a.574.574 0 0 1-.12-.028 38.85 38.85 0 0 1-7.555-2.128c-.65-.26-1.58-.678-1.635-.725a11.068 11.068 0 0 1 1.245-.585c4.228-1.849 8.614-3.949 10.119-4.85a1.2 1.2 0 0 1 .344-.168zm-21.2.725c.019.019-1.161 1.719-2.815 4.033-.576.808-1.245 1.756-1.5 2.109s-.632.911-.846 1.245l-.39.6-.418-.353a15.464 15.464 0 0 1-1.725-1.753 7.615 7.615 0 0 1-1.551-3c-.1-.447-.1-.67-.01-.7.14-.038 2.621-.623 4.944-1.162a610.655 610.655 0 0 0 4.311-1.013zm1.19.456.3.334a17.439 17.439 0 0 0 4.358 3.568 2.408 2.408 0 0 1 .5.326c-.065.046-5.743 2.062-8.372 2.973-1.478.52-2.695.938-2.7.938a1.57 1.57 0 0 1-.186-.12l-.167-.121.269-.39c.873-1.264 1.97-2.649 4.358-5.529l1.645-1.979zm7.415 5.305c.009-.009.418.14.92.326a29.742 29.742 0 0 0 3.447 1.068 38.05 38.05 0 0 0 5.213.9c.2.019.316.038.279.066-.065.037-1.431.492-2.435.808-1.6.5-6.476 1.942-10.453 3.085-.734.214-1.366.39-1.4.4a.736.736 0 0 1-.4-.1 6.793 6.793 0 0 1 .493-.622 55.5 55.5 0 0 0 3.772-5.074c.307-.465.567-.845.567-.855zm-1.636.047c.01.009-.65 1.068-1.8 2.89-.493.771-1.041 1.644-1.236 1.951s-.465.762-.623 1.022l-.269.474-.139-.037c-.335-.093-2.686-.92-3.309-1.171a23.138 23.138 0 0 1-2.165-.994 9.116 9.116 0 0 1-1.6-1.013c.019-.009 1.292-.353 2.825-.771 4.07-1.106 6.328-1.747 7.8-2.212a3.571 3.571 0 0 1 .511-.139zm11.569 2.713h.009c.038.093-1.468 4.274-2.016 5.594-.121.3-.167.372-.232.362-.158-.009-2.342-.316-3.671-.511-2.313-.353-6.2-1.031-7.173-1.254l-.223-.047 1.384-.316c2.974-.669 4.405-1.031 5.854-1.477a41.508 41.508 0 0 0 5.473-2.109 4.391 4.391 0 0 1 .595-.242z" fill="url(#a)"/>
	<path d="M107.137 19a59.4 59.4 0 0 0-5.631 2.026 35.171 35.171 0 0 0-6.476 3.252 4.92 4.92 0 0 0-1.255 1.255.87.87 0 0 0-.056.316l1.246 1.18 2.964.948 7.052 1.263 8.066 1.385.084-.7c-.028 0-.047-.009-.074-.009L112 29.752l-.214-.381c-1.1-1.933-2.3-4.331-3.01-5.947a30.772 30.772 0 0 1-1.357-3.745c-.158-.632-.176-.669-.279-.678zm-.149.475H107c.009.009.046.269.083.576a19.449 19.449 0 0 0 .9 3.912c.344 1.022.344.966-.056.845-.948-.26-5.194-.994-8.27-1.421-.492-.066-.911-.131-.911-.14-.037-.037 2.221-1.217 3.215-1.682 1.273-.585 4.767-2.044 5.027-2.09zm-8.957 4.162.362.121a55.413 55.413 0 0 0 9.655 1.84c.306.028.567.056.576.056a4.407 4.407 0 0 1-.586.306 51.566 51.566 0 0 0-3.772 2.091 3.842 3.842 0 0 1-.6.335c-.037 0-.232-.038-.437-.065l-.371-.056-.93-.911a379.302 379.302 0 0 0-3.41-3.28zm-.372.288 1.31 1.636c.716.9 1.441 1.784 1.6 1.979a2.9 2.9 0 0 1 .278.362c-.037.028-1.9-.334-2.88-.557-1.013-.232-1.431-.344-2.054-.539l-.511-.167v-.13c.009-.623.8-1.552 2.137-2.5l.121-.084zm11.132 2.231c.037 0 .084.083.2.334.316.7 1.3 2.574 1.543 2.936.074.121.2.13-1.106-.083-3.15-.511-4.163-.679-4.163-.7a1 1 0 0 1 .214-.14 18.047 18.047 0 0 0 2.834-1.96c.214-.177.409-.344.446-.372.009-.019.028-.028.037-.019z" fill="url(#b)"/>
	<path d="M93.84 25.4a.925.925 0 0 0-.009.808 3.672 3.672 0 0 0 .873 1.032s4.135 4.032 4.637 4.609a12.917 12.917 0 0 1 3.373 8.827 14.289 14.289 0 0 1-1.468 6.681c-1.933 4.219-6.012 8.874-12.3 14.041l.92-.307a29.585 29.585 0 0 1 3.3-1.961 117.711 117.711 0 0 1 15.334-6.864 191.412 191.412 0 0 1 31.138-8.344l.846-.13-.131-.2a28.6 28.6 0 0 0-1.867-2.63 22.32 22.32 0 0 0-6.6-5.492 48.907 48.907 0 0 0-14.319-4.8c-1.124-.223-3.6-.65-5.6-.957a570.233 570.233 0 0 1-10.036-1.635c-1.087-.186-2.713-.465-3.791-.7a24.128 24.128 0 0 1-2.462-.66c-.669-.26-1.636-.52-1.84-1.31zm2.4 2.323a2.632 2.632 0 0 1 .353.111c.353.121.808.261 1.347.409q.612.168 1.227.325c.557.14 1.022.27 1.031.27.065.065 1 3.066 1.32 4.218.12.437.213.809.2.809a1.857 1.857 0 0 1-.232-.362 19.353 19.353 0 0 0-4.8-5.418 4.04 4.04 0 0 1-.455-.362zm4.571 1.264a3.722 3.722 0 0 1 .5.083c1.58.353 4.414.892 6.226 1.2a2.221 2.221 0 0 1 .548.121.983.983 0 0 1-.251.158c-.307.158-1.542.892-1.951 1.17a17.8 17.8 0 0 0-2.63 2.1c-.269.27-.5.493-.5.493s-.055-.158-.1-.353a30.034 30.034 0 0 0-1.663-4.553 4.02 4.02 0 0 1-.186-.428c0 .019 0 .01.009.01zm8.047 1.533a3.547 3.547 0 0 1 .335 1.031 15.2 15.2 0 0 1 .446 4.256 7.979 7.979 0 0 1-.056.8l-.028.093-.483-.158c-.994-.316-2.611-.79-4-1.18-.79-.214-1.431-.409-1.431-.427a22.09 22.09 0 0 1 1.645-1.645 43.027 43.027 0 0 1 3.568-2.769zm.641.093c.028-.028 3.847.632 5.585.966 1.292.251 3.169.641 3.28.688.056.018-.139.13-.762.409a40.277 40.277 0 0 0-6.086 3.308c-.474.316-.874.576-.883.576a5.084 5.084 0 0 1-.019-.595 12.989 12.989 0 0 0-1-5.055 1.464 1.464 0 0 1-.114-.294zm9.878 1.951a6.955 6.955 0 0 1-.2 1.227 23.272 23.272 0 0 1-2.341 5.371 5.975 5.975 0 0 1-.391.631 3.9 3.9 0 0 1-.557-.3 30.16 30.16 0 0 0-3.642-1.784c-.372-.158-.7-.288-.707-.307-.065-.055 2.927-2.035 4.507-2.982 1.254-.762 3.3-1.9 3.336-1.859zm.706.112c.084 0 1.775.464 2.658.724a54.979 54.979 0 0 1 6.327 2.314l.679.307-.474.111a69.278 69.278 0 0 0-10.714 3.318c-.269.111-.511.2-.529.2a2.345 2.345 0 0 1 .195-.474 18.822 18.822 0 0 0 1.793-6.189c.009-.176.037-.315.065-.315zm-16.837 3.865c.028-.028 1.319.279 2.016.474 1.059.3 3.308 1.05 3.308 1.106 0 .009-.251.223-.548.483-1.217 1.013-2.388 2.081-3.791 3.438-.419.4-.772.725-.79.725s-.028-.056-.019-.13a20.91 20.91 0 0 0-.13-5.6 4.828 4.828 0 0 1-.048-.493zm27.142.028a17.619 17.619 0 0 1-.988 1.531c-.557.8-1.375 1.859-3.224 4.182-.976 1.226-2.073 2.611-2.435 3.075s-.678.855-.688.855a3.375 3.375 0 0 1-.26-.371 19.184 19.184 0 0 0-3.763-4.154 22.687 22.687 0 0 0-.688-.558.975.975 0 0 1-.185-.158c0-.027 1.579-.706 2.778-1.189a95.392 95.392 0 0 1 7.108-2.537c1.125-.353 2.323-.7 2.342-.678zm.716.186a2.134 2.134 0 0 1 .529.26 31.527 31.527 0 0 1 6.217 4.665c.492.483 1.709 1.747 1.691 1.756 0 0-.428.037-.929.074a91.718 91.718 0 0 0-13.736 2.29c-.325.074-.613.139-.632.139s.344-.362.8-.8a23.745 23.745 0 0 0 5.64-7.508c.214-.455.4-.845.419-.873zm-20.694 2.119c.13.027 1.338.594 2.249 1.049.836.418 2.09 1.088 2.155 1.143.01.01-.436.242-.984.511a64.754 64.754 0 0 0-4.805 2.649c-.446.269-.817.492-.826.492-.038 0-.028-.037.222-.492a19.379 19.379 0 0 0 1.887-5.12c.037-.14.074-.232.1-.232zm-1.21.226a17.747 17.747 0 0 1-.483 1.794 22.824 22.824 0 0 1-1.645 3.772c-.149.261-.372.642-.492.855l-.233.372-.52-.5a6.842 6.842 0 0 0-1.728-1.273 2.462 2.462 0 0 1-.446-.26c0-.074 1.589-1.515 2.806-2.555.873-.753 2.713-2.23 2.741-2.2zm7.387 3.039.456.3a35.361 35.361 0 0 1 3.2 2.37c.53.436 1.552 1.356 1.757 1.579l.111.121-.753.214c-4.255 1.18-7.545 2.23-11.382 3.643-.428.157-.79.288-.818.288-.056 0-.1.046.855-.837a40.821 40.821 0 0 0 6.244-7.173l.325-.5zm-1.942.483c.019.019-1.254 1.812-2.016 2.825A125.937 125.937 0 0 1 108.986 50c-.464.548-.864 1-.882 1.013s-.038-.13-.038-.344a7.8 7.8 0 0 0-.789-3.345c-.214-.427-.251-.53-.2-.576.177-.158 2.881-1.7 4.59-2.621 1.153-.613 2.955-1.523 2.983-1.5zM102.9 45.5a4.035 4.035 0 0 1 .483.241 10.228 10.228 0 0 1 1.6 1.078 2.724 2.724 0 0 1-.539.446 86.757 86.757 0 0 0-3 2.268c-.818.65-.845.669-.753.529a15.884 15.884 0 0 0 2.026-4.088 1.543 1.543 0 0 1 .186-.474zm3.131 2.453c.047-.009.1.074.353.446a6.7 6.7 0 0 1 1.041 2.7l.019.186-1.273.492c-2.277.883-4.377 1.757-5.8 2.407-.4.186-1.1.52-1.551.743s-.827.409-.827.4.288-.223.641-.483a37.505 37.505 0 0 0 6.988-6.44c.195-.232.371-.446.39-.455zm-1.44.353a19.652 19.652 0 0 1-1.747 1.97 30.763 30.763 0 0 1-5.77 4.655l-.558.353c-.065.038.019-.055.985-1.105a26.376 26.376 0 0 0 1.608-1.9 3.15 3.15 0 0 1 .929-.883c1.362-.988 4.516-3.125 4.553-3.088z" fill="url(#c)"/>
	<path d="M64.353 86.784c-.171 0-.343.016-.513.016a7.658 7.658 0 0 0-7.162 4.684 12.347 12.347 0 0 0 .013 8.916c1.225 2.646 3.2 4.042 6.508 4.57.7.114 1.167.5 2.521 2.078L67.386 109h3.021l-2.007-2.025a21.543 21.543 0 0 1-2.008-2.162c0-.085.424-.271.939-.428a6.9 6.9 0 0 0 4.087-3.83 8.05 8.05 0 0 0 1.026-4.115c.3-5.969-2.848-9.7-8.089-9.658zM67 102.393a7.108 7.108 0 0 1-5 .343 6.445 6.445 0 0 1-3.462-3.719 10.555 10.555 0 0 1 .2-6.807c1.282-2.449 2.977-3.576 5.454-3.576 3.675 0 5.765 2.251 6.038 6.48.215 3.531-.967 6.18-3.23 7.277zm52.189-10.511a3.234 3.234 0 0 0-2.89 1.524l-.513.8v-2.08H113.6V104.6h2.192v-3.988c0-3.646.045-4.073.555-5.071a2.737 2.737 0 0 1 3.078-1.724l.784.229v-2.16h-1.013zm-12.884-.114a5.885 5.885 0 0 0-5.827 6.624c0 2.42.47 3.63 1.638 4.9 2.392 1.963 4.556 2.119 7.476 1.066.5-.212 1.04-.457 1.04-.457v-1.963l-1.04.539c-2.363 1.029-4.143 1.029-5.569-.183a5.618 5.618 0 0 1-1.494-3.3h8.843v-1.687c0-3.429-2.064-5.595-5.069-5.539zm-3.577 5.471a5.112 5.112 0 0 1 1.539-2.979 3.3 3.3 0 0 1 1.907-.611 3.054 3.054 0 0 1 1.852.626c1.11.854 1.3 2.948 1.3 2.948h-6.596v.016zm-52.872-2.251c-2.377-1.44-3.432-2.479-3.3-3.7.369-3.389 4.556-2.92 6.875-1.638l.016-2.28a8.952 8.952 0 0 0-3.119-.585c-2.819-.042-4.641.882-5.5 2.763-1.254 2.777-.144 4.87 3.87 7.206 2.254 1.311 3.25 2.449 3.25 3.69 0 2.564-3.091 3.459-6.281 1.85-.656-.326-1.211-.6-1.241-.6a19.745 19.745 0 0 0-.055 2.466 13.618 13.618 0 0 0 2.449.7c3.645.726 6.962-.984 7.276-3.76.272-2.606-.67-3.973-4.241-6.107zm88.744-3.249a6.6 6.6 0 0 0-1.355.158 6.246 6.246 0 0 0-4.47 6.467c0 2.417.469 3.616 1.636 4.883 2.393 1.964 4.556 2.123 7.491 1.068.5-.212 1.037-.454 1.037-.454V101.9l-1.038.542c-2.368 1.026-4.149 1.026-5.569-.186a5.542 5.542 0 0 1-1.5-3.3h8.828v-1.691c0-3.413-2.064-5.58-5.069-5.523zm-3.576 5.47a5.2 5.2 0 0 1 1.54-2.992 3.286 3.286 0 0 1 1.905-.612 3.046 3.046 0 0 1 1.852.627c1.111.854 1.3 2.963 1.3 2.963h-6.593v.014zm-40.2-2.193c-2.378-1.437-3.429-2.479-3.3-3.7.369-3.39 4.556-2.92 6.875-1.638l.017-2.279a8.889 8.889 0 0 0-3.12-.582c-2.818-.042-4.641.882-5.5 2.763-1.253 2.776-.128 4.87 3.873 7.205 2.251 1.31 3.247 2.434 3.247 3.675 0 2.564-3.09 3.473-6.279 1.85-.654-.327-1.209-.6-1.241-.6a19.6 19.6 0 0 0-.056 2.466 14.912 14.912 0 0 0 2.433.7c3.649.728 6.967-.98 7.279-3.757.271-2.593-.67-3.96-4.23-6.1zm56.663-3.163a3.223 3.223 0 0 0-2.891 1.525l-.513.8V92.1h-2.193v12.473h2.192v-3.988c0-3.645.044-4.073.555-5.069a2.735 2.735 0 0 1 3.078-1.723l.784.229v-2.169zm-74.1 3.091V87h-2.213v17.6h9.3v-2.08h-7.089v-7.576zm51.135 2.478-1.823 4.742-1.754-4.764-1.78-5.284H120.9a387.4 387.4 0 0 0 4.671 12.488c.7.016 1.4 0 2.093 0l2.461-6.18 2.507-6.306h-2.164s-.955 2.5-1.951 5.31zM82.48 82.2a1.211 1.211 0 0 0 .9-.359 1.19 1.19 0 0 0 .369-.882 1.17 1.17 0 0 0-.369-.882 1.23 1.23 0 0 0-.882-.343 1.214 1.214 0 0 0-.9.356 1.188 1.188 0 0 0-.356.882 1.151 1.151 0 0 0 .356.882 1.2 1.2 0 0 0 .882.343zm-.78-2.024a1.119 1.119 0 0 1 1.911.784 1.1 1.1 0 0 1-.326.8 1.069 1.069 0 0 1-.784.314 1.039 1.039 0 0 1-.784-.314 1.093 1.093 0 0 1-.327-.8 1.057 1.057 0 0 1 .31-.784zm.528.9h.143c.1 0 .2.1.286.284l.172.385h.269l-.212-.428c-.087-.171-.171-.271-.271-.3a.516.516 0 0 0 .3-.157.39.39 0 0 0 .1-.285.367.367 0 0 0-.127-.3.719.719 0 0 0-.458-.125h-.453v1.595h.223v-.669zm0-.742h.2a.515.515 0 0 1 .3.072c.053.042.068.1.068.2 0 .185-.114.271-.326.271h-.245v-.542zm-36.525.6c0-.556-.017-.969-.03-1.212h.013a3.639 3.639 0 0 0 .185.643l2.123 4.743h.356l2.123-4.785a4.376 4.376 0 0 0 .184-.6h.017c-.043.474-.058.886-.058 1.214v4.185h.727V78.9h-.911l-1.952 4.328c-.071.171-.171.428-.3.768h-.03a4.93 4.93 0 0 0-.284-.739l-1.908-4.371h-.968v6.222h.7v-4.172h.012zm7.232.011h.628v3.875h-.628zm.314-1.421a.444.444 0 0 0 .327-.13.455.455 0 0 0 .143-.327.411.411 0 0 0-.142-.327.459.459 0 0 0-.33-.13.448.448 0 0 0-.326.13.459.459 0 0 0-.144.327.393.393 0 0 0 .144.327.47.47 0 0 0 .326.13zM58.03 84.9v-.682a1.806 1.806 0 0 1-1.094.383 1.416 1.416 0 0 1-1.1-.457 1.765 1.765 0 0 1-.413-1.225 1.839 1.839 0 0 1 .44-1.293 1.434 1.434 0 0 1 1.111-.47 1.818 1.818 0 0 1 1.055.343v-.727A2.169 2.169 0 0 0 57 80.547a2.2 2.2 0 0 0-1.682.67 2.506 2.506 0 0 0-.623 1.764 2.261 2.261 0 0 0 .568 1.6 2.018 2.018 0 0 0 1.538.64 2.508 2.508 0 0 0 1.229-.321zm1.8-2.066a2.009 2.009 0 0 1 .326-1.208.9.9 0 0 1 .727-.385.839.839 0 0 1 .539.143v-.741a1.119 1.119 0 0 0-.425-.057 1.083 1.083 0 0 0-.686.245 1.494 1.494 0 0 0-.481.751h-.017v-.91H59.1v4.442h.712v-2.28zm4.087 2.368a2.1 2.1 0 0 0 1.609-.643 2.8 2.8 0 0 0 .042-3.4 1.962 1.962 0 0 0-1.551-.612 2.227 2.227 0 0 0-1.609.585 2.42 2.42 0 0 0-.653 1.793 2.317 2.317 0 0 0 .568 1.638 2.069 2.069 0 0 0 1.594.642zM62.9 81.587a1.406 1.406 0 0 1 1.068-.428 1.331 1.331 0 0 1 1.055.428 2.38 2.38 0 0 1 .027 2.55 1.3 1.3 0 0 1-1.068.457 1.389 1.389 0 0 1-1.082-.457 1.8 1.8 0 0 1-.4-1.255 1.749 1.749 0 0 1 .4-1.3zm6.336 3.232a1.166 1.166 0 0 0 .415-.911 1.114 1.114 0 0 0-.327-.812 2.528 2.528 0 0 0-.828-.483 2.576 2.576 0 0 1-.669-.371.606.606 0 0 1-.185-.457.537.537 0 0 1 .213-.441.876.876 0 0 1 .571-.17 1.682 1.682 0 0 1 1.013.316v-.713a2.1 2.1 0 0 0-.956-.212 1.7 1.7 0 0 0-1.127.369 1.219 1.219 0 0 0-.157 1.721 2.3 2.3 0 0 0 .8.5 2.927 2.927 0 0 1 .727.413.543.543 0 0 1 .185.424c0 .415-.284.629-.84.629a1.758 1.758 0 0 1-1.154-.424v.767a2.1 2.1 0 0 0 1.094.271 1.939 1.939 0 0 0 1.225-.413zm3.39-4.272a2.226 2.226 0 0 0-1.608.585 2.434 2.434 0 0 0-.654 1.793 2.32 2.32 0 0 0 .569 1.638 2.317 2.317 0 0 0 3.2 0 2.391 2.391 0 0 0 .6-1.708 2.436 2.436 0 0 0-.555-1.695 2.008 2.008 0 0 0-1.551-.612zm1.382 2.336a1.909 1.909 0 0 1-.356 1.254 1.3 1.3 0 0 1-1.068.457 1.39 1.39 0 0 1-1.083-.457 1.8 1.8 0 0 1-.4-1.254 1.829 1.829 0 0 1 .427-1.31 1.407 1.407 0 0 1 1.068-.428 1.349 1.349 0 0 1 1.052.428 2.162 2.162 0 0 1 .356 1.31zm1.924 2.222h.71v-3.846h1.04v-.6h-1.04v-.686c0-.624.242-.938.741-.938a.985.985 0 0 1 .468.115v-.642a1.309 1.309 0 0 0-.513-.07 1.323 1.323 0 0 0-.954.356 1.5 1.5 0 0 0-.457 1.153v.728h-.752v.6h.752v3.831zm2.918-1.212c0 .869.384 1.312 1.168 1.312a1.284 1.284 0 0 0 .669-.147v-.611a.743.743 0 0 1-.457.144.6.6 0 0 1-.511-.187 1.035 1.035 0 0 1-.159-.64v-2.506h1.127v-.6H79.56V79.35c-.245.085-.485.157-.712.229v1.081h-.767v.6h.767v2.634zm76.427 8.188a1.223 1.223 0 0 0-.882-.342 1.222 1.222 0 0 0-1.254 1.241 1.169 1.169 0 0 0 .354.882 1.257 1.257 0 0 0 .9.343 1.224 1.224 0 0 0 .9-.357 1.2 1.2 0 0 0 .367-.881 1.233 1.233 0 0 0-.383-.885zm-.114 1.683a1.053 1.053 0 0 1-.784.31 1.066 1.066 0 0 1-.784-.31 1.109 1.109 0 0 1-.326-.8 1.12 1.12 0 0 1 1.894-.783 1.077 1.077 0 0 1 .327.783 1.026 1.026 0 0 1-.327.8zm-.64-.727a.627.627 0 0 0 .3-.157.391.391 0 0 0 .1-.287.362.362 0 0 0-.128-.3.714.714 0 0 0-.457-.126h-.454v1.594h.229v-.67h.142c.1 0 .2.1.284.284l.17.384h.271l-.212-.428c-.074-.186-.159-.271-.245-.3zm-.157-.144h-.245v-.539h.2a.494.494 0 0 1 .3.071c.057.042.07.1.07.2 0 .184-.114.269-.326.269zm-39.731-12.416h.2v-1.6h.527v-.2h-1.254v.2h.527v1.6zm1.209-1.2a2.741 2.741 0 0 0-.012-.354 1 1 0 0 0 .056.185l.612 1.368h.1l.614-1.382c.017-.042.03-.1.057-.171-.013.142-.013.256-.013.343v1.208h.213v-1.792h-.257l-.555 1.238c-.013.044-.057.131-.085.229h-.016a1.334 1.334 0 0 0-.082-.212l-.555-1.255h-.287v1.8h.2v-1.2h.012z" fill="#231f1f"/>
</svg>
