<svg data-name="Layer 1" xmlns="http://www.w3.org/2000/svg" viewBox="0 0 2023.517 2364.6">
	<path d="M392.367 2040.39h47.343v94.895l88.985-94.895h62.185l-94.512 94.722 99.358 135.59H533.85l-70.96-100.535-23.179 23.504v77.032h-47.343Z"/>
	<path d="M730.067 2103.84a69.284 69.284 0 0 1 29.431 25.195 83.715 83.715 0 0 1 13.57 35.21q1.797 11.737 1.467 33.801H650.492q1.036 25.628 17.81 35.938 10.202 6.409 24.553 6.406 15.216 0 24.727-7.812a37.45 37.45 0 0 0 9.165-11.72h45.463q-1.798 15.16-16.508 30.782-22.885 24.844-64.075 24.844-34 0-59.99-20.955-25.99-20.953-25.99-68.186 0-44.253 23.463-67.869 23.46-23.613 60.903-23.615 22.233 0 40.054 7.98Zm-66.619 38.47q-9.44 9.73-11.863 26.361h76.72q-1.217-17.732-11.864-26.912-10.649-9.18-26.41-9.181-17.147 0-26.583 9.731Z"/>
	<path d="m803.773 2303.359 5.625.312a70.43 70.43 0 0 0 12.5-.468 22.473 22.473 0 0 0 10-3.594q3.904-2.659 7.266-11.094 3.357-8.437 2.892-10.312l-62.58-177.813h49.531l37.188 125.625 35.156-125.625h47.344l-58.389 167.5q-16.926 48.435-26.78 60.078-9.855 11.638-39.419 11.64-5.943 0-9.541-.077-3.6-.08-10.793-.547Z"/>
	<path d="M1055.335 2100.39h45.157l25.937 122.656 26.563-122.656h46.406l-49.375 170.313h-45.781l-26.719-124.063-27.031 124.063h-46.25l-47.813-170.313h47.813l26.562 122.188Z"/>
	<path d="M1346.33 2101.333a50.001 50.001 0 0 1 21.08 16.733 44.636 44.636 0 0 1 8.555 19.629q1.557 10.085 1.558 32.918v100.09h-45.469v-103.711q0-13.767-4.653-22.212-6.05-11.887-22.954-11.89-17.527 0-26.602 11.812-9.074 11.81-9.072 33.708v92.293h-44.531V2041.17h44.531v81.25q9.646-14.841 22.324-20.703a62.862 62.862 0 0 1 26.682-5.86 72.107 72.107 0 0 1 28.55 5.475Z"/>
	<path d="M1465.18 2080.078h-45.157v-41.094h45.156Zm-45.157 20.312h45.156v170.313h-45.156Z"/>
	<path d="M1498.617 2136.64v-36.25h134.687v37.031l-83.57 96.72h86.539v36.562h-143.594v-34.688l84.424-99.375Z"/>
	<path d="M664.39 1421.567v54.224h-1.136c-26.516-41.222-72.167-62.06-120.146-62.06-90.734 0-165.796 68.93-165.796 161.31 0 93.062 73.359 162.39 165.796 162.39 47.979 0 93.63-20.838 120.146-61.435h1.192v178.628h39.405v-433.057Zm-121.282 280.377c-72.167 0-126.278-53.146-126.278-125.199 0-72.678 52.976-127.527 126.278-127.527 70.01 0 123.553 57.972 123.553 126.846s-53.543 125.88-123.553 125.88Z"/>
	<path d="m1007.906 1420.601-.114 163.64c0 36.281-5.053 66.885-32.25 93.06-19.305 18.114-39.633 24.87-65.694 24.87-70.861 0-94.141-47.013-94.141-111.004v-170.566h-39.575v171.19c0 34.636 5.11 72.054 27.197 99.706 25.494 32.194 66.262 46.389 106.519 46.389 40.824 0 81.024-17.545 99.137-55.588h1.135v48.15h37.418V1420.6Z"/>
	<path d="M1975.487 1578.96c-.113-89.088-71.712-165.23-161.992-165.23-88.69 0-160.175 74.496-160.175 162.334 0 88.69 71.656 161.367 160.743 161.367 68.25 0 129.003-43.947 151.658-108.335h-41.562c-16.977 45.878-63.14 72.848-110.55 72.848-60.3 0-116.796-50.874-119.521-111.685h280.775c0-3.975.624-7.438.624-11.3Zm-281.57-24.245c9.653-60.3 58.654-105.44 120.146-105.44 62.174 0 110.38 45.196 120.657 105.44Z"/>
	<path d="M177.164 1480.674c-69.726-16.182-82.501-38.042-82.501-75.29 0-40.71 39.802-75.062 86.986-75.062 48.263 0 87.384 33.33 87.384 74.608h40.881c0-31.74-13.74-61.095-38.61-82.842-24.074-21.065-55.87-32.705-89.655-32.705-70.406 0-127.754 52.124-127.754 116.001 0 32.364 9.369 57.348 28.617 75.858 18.056 17.374 45.197 29.809 85.397 39.234 98.91 22.826 119.237 52.01 119.294 88.69 0 48.944-46.39 88.747-103.34 88.747h-.34c-29.582 0-57.858-11.186-77.56-30.888-16.694-16.637-25.836-38.043-25.836-60.13H39.246c0 33.046 13.514 64.558 37.872 88.974 27.311 27.197 66.091 42.698 106.405 42.698h.397c38.156 0 74.098-13.06 101.182-37.02 27.651-24.643 42.925-57.461 42.925-92.608-.17-82.557-76.368-111.231-150.863-128.265Z"/>
	<path d="M1550.492 1466.025v.113h-1.192v-44.572h-39.405v308.54h39.405v-180.558c0-55.133 33.897-89.712 88.008-94.14v-41.677c-40.03 2.839-70.066 12.889-86.816 52.294Z"/>
	<path d="M1360.564 82.363H654.226c-97.093 0-176.585 79.434-176.585 176.528v706.224c0 97.15 79.435 176.528 176.585 176.528h706.225c97.15 0 176.47-79.321 176.47-176.528l.058-706.225c0-97.093-79.378-176.527-176.415-176.527Zm-16.239 810.472a56.316 56.316 0 0 1-56.098 56.212H726.45a56.365 56.365 0 0 1-56.155-56.212v-561.72a56.268 56.268 0 0 1 56.155-56.1h561.777a56.256 56.256 0 0 1 56.098 56.1Z"/>
	<path d="M1391.68 1421.567v54.224h-1.193c-26.46-41.62-71.656-62.06-120.089-62.06-90.79 0-165.796 68.93-165.796 161.31 0 93.062 73.359 162.39 165.796 162.39 48.036 0 93.176-20.838 120.09-61.435h1.191v54.11h39.349v-308.54Zm-121.339 280.377c-72.166 0-126.334-53.146-126.334-125.199 0-72.678 53.032-127.527 126.334-127.527 69.953 0 123.496 57.972 123.496 126.846s-53.543 125.88-123.496 125.88Z"/>
	<path d="M1119.705 467.556H894.971a32.12 32.12 0 0 0-32.08 32.08v224.677a32.156 32.156 0 0 0 32.08 32.08h224.734a32.144 32.144 0 0 0 32.024-32.08V499.636a32.181 32.181 0 0 0-32.024-32.08Z"/>
</svg>
