<svg xmlns="http://www.w3.org/2000/svg" xmlns:xlink="http://www.w3.org/1999/xlink" width="200" height="128">
    <defs>
        <linearGradient id="a" x1="174.276" y1="117.574" x2="174.346" y2="117.685" gradientTransform="matrix(212.311 0 0 -191.693 -36978.687 22609.902)" gradientUnits="userSpaceOnUse">
            <stop offset="0" stop-color="#1f92ff"/>
            <stop offset=".202" stop-color="#1b7ff1"/>
            <stop offset="1" stop-color="#000395"/>
        </linearGradient>
        <linearGradient id="b" x1="176.805" y1="117.086" x2="176.894" y2="117.188" gradientTransform="matrix(-212.311 0 0 191.693 37587.687 -22385.902)" xlink:href="#a"/>
    </defs>
    <g fill-rule="evenodd">
        <path d="M37.646 50.105a15.5 15.5 0 0 1 1.593.355c3.7 1.02 7.473 4.518 4.33 3.818-4.793-1.45-7.921 1.424-9.481 4.812l-.124.272c-1.856 5.141-2.792 13.949-9.286 12.645-6.578-2.092-4.978-11.689-2.661-15.282 2.494-3.863 5.371-6 9.684-6.687a16.255 16.255 0 0 1 5.945.067z" fill="url(#a)"/>
        <path d="M32.36 77.9a15.5 15.5 0 0 1-1.593-.355c-3.7-1.02-7.473-4.518-4.33-3.818 4.793 1.45 7.921-1.424 9.481-4.812l.124-.272c1.858-5.143 2.792-13.954 9.286-12.65 6.575 2.092 4.981 11.689 2.661 15.282-2.494 3.863-5.371 6-9.684 6.687a16.255 16.255 0 0 1-5.945-.062z" fill="url(#b)"/>
    </g>
    <path d="M56.277 71.528a10.19 10.19 0 0 0 2.511.376 7.056 7.056 0 0 0 4.33-1.14 3.836 3.836 0 0 0 1.5-3.247 3.581 3.581 0 0 0-1.357-2.829 11.09 11.09 0 0 0-3.407-1.9 11.838 11.838 0 0 1-1.63-.679q-.564-.3-.563-.678a1.047 1.047 0 0 1 .476-.851 1.924 1.924 0 0 1 1.2-.361 6.75 6.75 0 0 1 1.775.231 13.5 13.5 0 0 1 1.949.722l1.126-2.511a8.333 8.333 0 0 0-2.4-1.068 9.008 9.008 0 0 0-2.4-.4 6.343 6.343 0 0 0-3.984 1.14 3.744 3.744 0 0 0-1.472 3.131 3.2 3.2 0 0 0 1.328 2.626 10.946 10.946 0 0 0 3.319 1.7q2.454.75 2.454 1.876 0 .578-.722.895a3.908 3.908 0 0 1-1.587.317 9.308 9.308 0 0 1-3.666-.952l-1.126 2.54a6.434 6.434 0 0 0 2.346 1.062zm23.7-13.968v20.029l-3.782.289v-6.869a5.766 5.766 0 0 1-3.089.895 6.791 6.791 0 0 1-5.152-1.977 7.423 7.423 0 0 1-1.891-5.354 8.424 8.424 0 0 1 .851-3.867 6.13 6.13 0 0 1 2.469-2.6 7.616 7.616 0 0 1 3.839-.923 5.2 5.2 0 0 1 2.035.462 7.3 7.3 0 0 1 1.92 1.183l.837-1.27zm-5.269 10.851a6.957 6.957 0 0 0 1.487-.865v-5.974a5.293 5.293 0 0 0-1.443-.91 4.058 4.058 0 0 0-1.5-.274 2.893 2.893 0 0 0-2.425 1.169 4.821 4.821 0 0 0-.895 3.016 4.752 4.752 0 0 0 .88 2.987 2.91 2.91 0 0 0 2.44 1.14 3.809 3.809 0 0 0 1.456-.289zm18.028-1.154a15.4 15.4 0 0 1-1.905 1.2 3.976 3.976 0 0 1-1.848.447 1.745 1.745 0 0 1-1.487-.721 3.342 3.342 0 0 1-.534-2.021v-8.6H83.21v8.774a7.119 7.119 0 0 0 1.068 4.184A4.26 4.26 0 0 0 88 72.019a7.993 7.993 0 0 0 2.626-.52 11.163 11.163 0 0 0 2.774-1.443l.635 1.5h2.453v-14h-3.752zm10.247-6.335a10.352 10.352 0 0 0-1.962.65l-1.011-3.117a7.941 7.941 0 0 1 2.4-.881 12.1 12.1 0 0 1 2.627-.389 6.986 6.986 0 0 1 3.06.664A5.537 5.537 0 0 1 110.3 59.7a4.54 4.54 0 0 1 .823 2.655v9.206h-2.453l-.635-1.5a5.118 5.118 0 0 1-3.695 1.839 5.241 5.241 0 0 1-3.781-1.227 4.38 4.38 0 0 1-1.27-3.305 4.01 4.01 0 0 1 1.443-3.3A5.965 5.965 0 0 1 104.6 62.9h2.742a2.337 2.337 0 0 0-.62-1.659 2.2 2.2 0 0 0-1.631-.592 9.183 9.183 0 0 0-2.108.273zm.073 5.065a1.912 1.912 0 0 0-.563 1.385 1.437 1.437 0 0 0 .505 1.1 1.83 1.83 0 0 0 1.284.462 4.344 4.344 0 0 0 3.089-1.385V65.41h-2.829a1.98 1.98 0 0 0-1.486.577zm24.176-14.8v20.37h-1.963l-.866-1.27a6.012 6.012 0 0 1-4.042 1.617 6.791 6.791 0 0 1-5.152-1.977 7.423 7.423 0 0 1-1.891-5.354 8.424 8.424 0 0 1 .851-3.867 6.133 6.133 0 0 1 2.468-2.6 7.623 7.623 0 0 1 3.84-.923 4.927 4.927 0 0 1 1.472.245 7.03 7.03 0 0 1 1.5.678V51.5zm-9.166 16.373a2.91 2.91 0 0 0 2.44 1.14 3.809 3.809 0 0 0 1.457-.289 6.957 6.957 0 0 0 1.487-.865v-5.974a5.293 5.293 0 0 0-1.443-.91 4.062 4.062 0 0 0-1.5-.274 2.893 2.893 0 0 0-2.425 1.169 4.821 4.821 0 0 0-.895 3.016 4.752 4.752 0 0 0 .879 2.987zm21.634-9.971a9.318 9.318 0 0 0-2.425-.4 8.189 8.189 0 0 0-3.94.909 6.279 6.279 0 0 0-2.6 2.583 8.04 8.04 0 0 0-.909 3.9 7.957 7.957 0 0 0 .909 3.882 6.218 6.218 0 0 0 2.6 2.554 8.3 8.3 0 0 0 3.94.895 10.2 10.2 0 0 0 2.512-.376 6.442 6.442 0 0 0 2.338-1.067l-1.068-2.713a13.328 13.328 0 0 1-1.963.721 6.919 6.919 0 0 1-1.79.231 3.3 3.3 0 0 1-2.6-1.154 4.348 4.348 0 0 1-1.01-2.973 4.418 4.418 0 0 1 1.024-3 3.275 3.275 0 0 1 2.584-1.184 6.919 6.919 0 0 1 1.79.231 13.343 13.343 0 0 1 1.963.722l1.068-2.684a8.3 8.3 0 0 0-2.423-1.077zm7.938 3.333a10.388 10.388 0 0 0-1.963.65l-1.01-3.117a7.93 7.93 0 0 1 2.4-.881 12.1 12.1 0 0 1 2.627-.389 6.986 6.986 0 0 1 3.06.664 5.537 5.537 0 0 1 2.208 1.847 4.54 4.54 0 0 1 .823 2.655v9.206h-2.454l-.635-1.5A5.119 5.119 0 0 1 149 71.9a5.241 5.241 0 0 1-3.781-1.227 4.381 4.381 0 0 1-1.271-3.305 4.011 4.011 0 0 1 1.444-3.3 5.965 5.965 0 0 1 3.868-1.169H152a2.337 2.337 0 0 0-.62-1.659 2.2 2.2 0 0 0-1.631-.592 9.183 9.183 0 0 0-2.109.274zm.073 5.065a1.912 1.912 0 0 0-.563 1.385 1.437 1.437 0 0 0 .5 1.1 1.83 1.83 0 0 0 1.284.462 4.344 4.344 0 0 0 3.089-1.385V65.41H149.2a1.98 1.98 0 0 0-1.487.577zm12.658 5.541a10.19 10.19 0 0 0 2.511.376 7.058 7.058 0 0 0 4.33-1.14 3.835 3.835 0 0 0 1.5-3.247 3.578 3.578 0 0 0-1.357-2.829 11.084 11.084 0 0 0-3.406-1.9 11.86 11.86 0 0 1-1.631-.679q-.562-.3-.563-.678a1.048 1.048 0 0 1 .477-.851 1.921 1.921 0 0 1 1.2-.361 6.757 6.757 0 0 1 1.776.231 13.491 13.491 0 0 1 1.948.722l1.126-2.511a8.32 8.32 0 0 0-2.4-1.068 9 9 0 0 0-2.4-.4 6.342 6.342 0 0 0-3.983 1.14 3.743 3.743 0 0 0-1.473 3.131 3.2 3.2 0 0 0 1.328 2.626 10.964 10.964 0 0 0 3.32 1.7q2.454.75 2.454 1.876 0 .578-.722.895a3.909 3.909 0 0 1-1.588.317 9.308 9.308 0 0 1-3.666-.952l-1.126 2.54a6.439 6.439 0 0 0 2.347 1.062zm14.953-13.939v-3.983l-3.724.664v3.319h-1.877v2.886h1.879v6.609a4.757 4.757 0 0 0 1.472 3.723 5.9 5.9 0 0 0 4.1 1.327 5.339 5.339 0 0 0 1.544-.259 3.921 3.921 0 0 0 1.284-.606l-1.1-2.713a3.515 3.515 0 0 1-1.53.375 1.8 1.8 0 0 1-1.515-.693 2.9 2.9 0 0 1-.534-1.818v-5.945h3.695l-1.155-2.886z" fill="#000495"/>
</svg>
