<svg id="图层_1" data-name="图层 1" xmlns="http://www.w3.org/2000/svg" viewBox="0 0 350.11 81.81">
	<defs>
		<style>
			.cls-1{fill:#0ce29a}
		</style>
	</defs>
	<path class="cls-1" d="M371.3 640.36a27 27 0 0 1 0 30.69 16.54 16.54 0 0 1-14.05 7h-5.94l19.48 21.66h-21.15l-33.15-37.14h39.85q4.26 0 4.26-6.83t-4.26-6.84h-48v50.81h-15.45V633.4h64.36a16.56 16.56 0 0 1 14.05 6.96Z" transform="translate(-200.39 -625.83)"/>
	<path class="cls-1" d="M458.67 640.49a16.56 16.56 0 0 0-13.93-7.09h-64.22v66.29H396v-21.54h48.75a16.58 16.58 0 0 0 13.93-7.09 24.1 24.1 0 0 0 4.9-15.22 24.63 24.63 0 0 0-4.91-15.35Zm-13.93 22.18H396v-13.8h48.75q3.36 0 3.36 7c-.01 4.53-1.11 6.8-3.37 6.8Z" transform="translate(-200.39 -625.83)"/>
	<path class="cls-1" d="M550.5 648.89h-60.82c-4.12 0-6.19 1.85-6.19 5.53v24.28c0 3.69 2.07 5.53 6.19 5.53H541v15.48h-51.32a21.5 21.5 0 0 1-15.34-6 19.77 19.77 0 0 1-6.32-15v-24.33a19.77 19.77 0 0 1 6.32-15 21.49 21.49 0 0 1 15.34-6h37.76v-7.57Z" transform="translate(-200.39 -625.83)"/>
	<path d="m200.39 684.62 23 23v-8h46.35a17.39 17.39 0 0 0 13.67-6.17 22.74 22.74 0 0 0 0-28.54 17.48 17.48 0 0 0-13.7-6.17H228c-2.16 0-3.23-1.63-3.23-4.9s1.07-5 3.23-5h57.38V633.4h-57.29a17.16 17.16 0 0 0-13.54 6.06 21.21 21.21 0 0 0-5.29 14.44 20.6 20.6 0 0 0 5.16 14.19 17.41 17.41 0 0 0 13.67 6.19h41.66c2.14 0 3.22 1.65 3.22 5s-1.08 5-3.22 5H223.4Z" transform="translate(-200.39 -625.83)" style="fill:#063787"/>
</svg>
