<svg xmlns="http://www.w3.org/2000/svg" width="200" height="128">
	<path d="M82.327 42.572V37.3a17.682 17.682 0 0 1 35.356 0v5.272h-6.239v-5.154a11.548 11.548 0 0 0-23.091 0v5.154zm36.987 1.588H80.686L78.1 46.689v30.782L80.686 80h38.628l2.588-2.529V46.689zM82.322 65.473v-1.858l7.858 3.092v1.755l-7.858 3.085V69.7l5.91-2.1zM100 73.769v1.487h-9.166v-1.487z" fill="#66bdfe"/>
	<path d="M90.816 99.858a3.965 3.965 0 0 1-1.521 3.3 6.615 6.615 0 0 1-4.194 1.2 10 10 0 0 1-4.379-.83v-2.437a11.954 11.954 0 0 0 2.292.8 9.724 9.724 0 0 0 2.259.291 3.6 3.6 0 0 0 2.259-.582 1.9 1.9 0 0 0 .728-1.564 1.956 1.956 0 0 0-.668-1.5 10.068 10.068 0 0 0-2.761-1.456 7.311 7.311 0 0 1-3.041-1.995 4.219 4.219 0 0 1-.885-2.7 3.78 3.78 0 0 1 1.4-3.107 5.817 5.817 0 0 1 3.764-1.132 11.069 11.069 0 0 1 4.508.993l-.82 2.1a9.858 9.858 0 0 0-3.753-.884 2.887 2.887 0 0 0-1.9.544 1.793 1.793 0 0 0-.647 1.441 2.022 2.022 0 0 0 .259 1.051 2.646 2.646 0 0 0 .852.825 14.335 14.335 0 0 0 2.136 1.024 11.73 11.73 0 0 1 2.544 1.349A3.968 3.968 0 0 1 90.439 98a4.259 4.259 0 0 1 .377 1.858zm12.143 0a3.965 3.965 0 0 1-1.521 3.3 6.615 6.615 0 0 1-4.194 1.2 10 10 0 0 1-4.379-.83v-2.437a11.954 11.954 0 0 0 2.292.8 9.724 9.724 0 0 0 2.259.291 3.6 3.6 0 0 0 2.259-.582 1.9 1.9 0 0 0 .728-1.564 1.956 1.956 0 0 0-.668-1.5 10.068 10.068 0 0 0-2.761-1.456 7.311 7.311 0 0 1-3.041-1.995 4.219 4.219 0 0 1-.885-2.7 3.78 3.78 0 0 1 1.4-3.107 5.817 5.817 0 0 1 3.764-1.132 11.065 11.065 0 0 1 4.508.993l-.82 2.1a9.854 9.854 0 0 0-3.753-.884 2.887 2.887 0 0 0-1.9.544 1.793 1.793 0 0 0-.647 1.441 2.022 2.022 0 0 0 .259 1.051 2.646 2.646 0 0 0 .852.825 14.335 14.335 0 0 0 2.136 1.024 11.766 11.766 0 0 1 2.545 1.349 3.975 3.975 0 0 1 1.19 1.411 4.259 4.259 0 0 1 .377 1.858zm15.486 4.282h-2.588v-7.108h-7.269v7.108h-2.577V88.373h2.577v6.449h7.269v-6.449h2.588z" fill="#555"/>
</svg>
