<svg viewBox="70.06 -12.824 538.637 441.924" xmlns="http://www.w3.org/2000/svg">
	<path class="fil0" style="fill:#606062" d="m1137-14 1185 974V-14z" transform="translate(189.5 18.882) scale(.12185)"/>
	<path class="fil0" style="fill:#606062" d="M14 2389h1281L14 1385z" transform="translate(189.5 18.882) scale(.12185)"/>
	<path class="fil2" d="M2381 1345c-53-94-140-190-262-288L830 1c-87 1-158 6-212 14-55 9-110 24-166 46-143 58-254 144-334 259C39 434-1 568-1 722c0 56 8 116 24 180 15 64 37 123 64 177 35 65 92 141 174 227 82 90 193 193 334 309 143 122 291 239 445 352 94 69 176 128 245 177s186 131 350 245c62-2 115-5 158-9 39-4 77-11 116-20 27-6 60-17 99-34 140-57 250-144 331-262s122-250 122-396c0-119-27-226-81-323Z" style="fill:#f47a04" transform="translate(189.5 18.882) scale(.12185)"/>
	<path class="fil1" d="m6935 1129-123-31c-64-16-109-38-137-66s-41-66-41-114c0-63 21-112 63-147s102-52 179-52c82 0 145 20 190 61s68 98 70 173h98c-1-101-33-179-95-235s-148-84-258-84c-104 0-187 26-249 77s-93 119-93 204c0 77 21 137 62 179 41 43 115 78 223 105l100 25c98 25 163 53 196 85 33 31 49 77 49 137 0 65-23 115-70 152s-111 55-193 55c-93 0-165-23-217-68-51-46-77-110-78-192h-96v7c0 109 34 193 101 252s164 88 289 88c112 0 200-27 264-81s97-128 97-222c0-82-24-146-73-192-49-47-134-85-255-115Z" style="fill:#636266" transform="translate(-79.063 285.863) scale(.06504)"/>
	<path class="fil1" d="M7544 737h-88v217h-103v71h103v552c0 58 9 98 27 120s49 33 93 33c16 0 32-1 50-4s37-7 58-12l-1-70c-24 5-42 9-53 10-11 2-22 2-31 2-21 0-35-5-43-16-8-10-12-32-12-64v-552h140v-71h-140V736Z" style="fill:#636266" transform="translate(-79.063 285.863) scale(.06504)"/>
	<path class="fil1" d="M8323 1571c-45 56-108 83-190 83-81 0-144-28-189-84s-67-135-67-237 22-181 67-237 108-84 189-84c82 0 146 28 190 84 45 56 67 135 67 238s-22 182-67 237Zm-190-636c-110 0-196 35-256 104-61 70-91 168-91 295 0 126 30 224 91 293s146 104 256 104c111 0 197-35 258-104s91-167 91-293c0-127-31-225-92-295s-147-104-258-104Z" style="fill:#636266" transform="translate(-79.063 285.863) scale(.06504)"/>
	<path class="fil1" d="M8814 972c-39 25-69 63-91 114V953h-85v757h90v-418c0-89 19-156 57-200 38-45 94-67 170-67h11v-92h-10c-57 0-104 13-143 38Z" style="fill:#636266" transform="translate(-79.063 285.863) scale(.06504)"/>
	<path class="fil1" d="M10052 996c-41-41-102-62-184-62-54 0-102 13-144 38s-75 62-100 111c-12-48-37-84-75-110-37-26-84-39-141-39-53 0-99 12-140 37s-74 61-100 107V953h-82v757h88v-468c0-68 21-124 62-166s95-63 161-63c54 0 94 15 120 46 26 30 39 77 39 140v512h88v-475c0-67 20-121 61-162 40-41 94-62 161-62 57 0 97 14 122 41 25 28 37 73 37 137v521h88v-553c-4-71-24-125-60-162Z" style="fill:#636266" transform="translate(-79.063 285.863) scale(.06504)"/>
	<path class="fil2" d="M3208 1093c-102-26-168-52-200-77s-48-58-48-98c0-39 18-72 54-99s83-40 140-40c69 0 124 17 165 51s64 80 67 140l166-1c-1-102-36-183-104-243s-159-90-274-90c-118 0-212 27-283 82s-107 126-107 213c0 82 24 147 73 195 48 48 131 87 249 118 10 2 26 6 46 11 95 23 156 47 184 73 17 15 30 33 41 55 11 21 16 40 16 57 0 42-19 78-57 107s-87 43-147 43c-79 0-142-19-188-56-46-38-72-90-77-158h-170c5 118 44 208 117 271 72 63 174 94 304 94 124 0 222-30 296-90s111-140 111-238c0-82-24-145-71-191s-148-88-302-127Z" style="fill:#f47a04" transform="translate(-79.063 285.863) scale(.06504)"/>
	<path class="fil2" d="M3924 731h-162v212h-110v121h110v472c0 69 13 118 40 145 26 27 72 41 136 41 19 0 52-2 98-7 7 0 13-1 16-1v-130l-32 1c-3 0-8 0-15 1-7 0-12 1-17 1-25 0-42-5-51-14s-14-28-14-56v-452h128V944h-128V732Z" style="fill:#f47a04" transform="translate(-79.063 285.863) scale(.06504)"/>
	<path class="fil2" d="M4627 1422c0 53-20 97-60 131s-90 51-150 51c-40 0-71-10-93-29s-33-46-33-82c0-31 9-57 28-76s47-32 85-40c13-2 33-6 60-10 75-11 129-25 163-43v96Zm206 175c-18 0-30-5-37-14s-10-28-10-58v-381c0-75-26-132-78-170s-129-57-231-57c-97 0-174 22-230 67-56 44-84 105-84 181v13h155v-6c0-39 13-69 40-90s65-31 115-31c54 0 93 9 119 26 26 18 38 45 38 82 0 46-52 75-155 88-7 1-13 2-16 2-124 16-209 43-256 82s-71 98-71 176c0 71 22 127 66 167s105 61 182 61c50 0 98-11 142-33s82-53 113-94c1 39 13 69 37 88s61 29 110 29c13 0 26-1 40-3s28-5 43-9v-119c-10 1-17 2-21 2h-11Z" style="fill:#f47a04" transform="translate(-79.063 285.863) scale(.06504)"/>
	<path class="fil2" d="M5415 1550c-30 28-70 42-119 42-61 0-108-23-140-68s-48-111-48-198c0-88 16-155 49-201 33-45 81-68 144-68 47 0 86 13 115 40 29 26 46 62 51 108h160c-5-89-37-159-96-211-59-51-137-77-235-77-112 0-199 36-263 109-63 73-95 173-95 302 0 125 31 225 92 298s144 110 249 110c102 0 184-27 245-82 62-54 96-129 104-225h-158c-7 52-26 92-56 120Z" style="fill:#f47a04" transform="translate(-79.063 285.863) scale(.06504)"/>
	<path class="fil2" style="fill:#f47a04" d="M6425 943h-199l-302 313V662h-161v1049h161v-256l109-111 208 367h189l-283-486z" transform="translate(-79.063 285.863) scale(.06504)"/>
</svg>
