<svg width="512" height="512" fill="none" xmlns="http://www.w3.org/2000/svg">
	<path d="M203.287 156.538c1.084.899 2.026 1.744 2.925 2.502l49.307-28.483 48.754 28.115 2.915-2.503-51.669-29.805-52.232 30.174Z" fill="#576573"/>
	<path d="M324.222 215.998c-1.185.59-2.4 1.118-3.64 1.581v25.624l-32.503 18.743c.942.249 1.571.357 1.571.357-1.084 1.452-3.771 2.536-5.959 3.251l2.167 1.928 38.342-22.134.022-29.35Z" fill="#576573"/>
	<path d="m263.743 319.063 11.593-6.696-6.685-4.518-1.755 1.008a89.351 89.351 0 0 1-3.153 10.206Z" fill="#576573"/>
	<path d="M221.378 262.301s.64-.12 1.582-.358L190.512 243.2v-25.222a39.664 39.664 0 0 1-3.63-1.463v28.787l39.209 22.632 2.33-2.166c-2.254-.564-5.807-1.766-7.043-3.467Z" fill="#576573"/>
	<path d="M190.404 144.762a331.89 331.89 0 0 0 4.128 3.911l60.986-35.233 60.358 34.854a250.676 250.676 0 0 0 4.117-3.922l-64.475-37.216-65.114 37.606Z" fill="#576573"/>
	<path d="M340.851 201.045a72.314 72.314 0 0 1-5.418 6.36v44.355l-41.17 23.76c1.311 1.344 2.6 2.719 3.803 4.095l42.785-24.713v-53.857Z" fill="#576573"/>
	<path d="m183.819 138.174 72.47-41.788 70.824 40.888a154.24 154.24 0 0 0 4.984-5.514L256.257 88l-77.509 44.746c1.647 1.776 3.337 3.607 5.071 5.428Z" fill="#576573"/>
	<path d="m230.179 299.908-68.571-39.589v-91.853c-2.448-2.643-4.918-5.677-7.259-8.743v104.789l75.494 43.587c-.044-2.557.097-5.385.336-8.191Z" fill="#576573"/>
	<path d="M350.969 165.595v94.724l-68.625 39.621c.239 2.817.369 5.645.325 8.202l75.57-43.63V156.299c-2.276 3.121-4.757 6.349-7.27 9.296Z" fill="#576573"/>
	<path d="m232.226 284.405-2.297-1.322-7.779 1.82 9.155 5.288c.379-2.406.683-4.41.921-5.786Z" fill="#576573"/>
	<path d="m217.751 276.039-42.058-24.28v-43.283a68.04 68.04 0 0 1-5.417-6.067v52.492l43.727 25.255a92.538 92.538 0 0 1 3.748-4.117Z" fill="#576573"/>
	<path d="M248.748 319.018a89.69 89.69 0 0 1-3.131-10.205l-1.722-.986-6.685 4.528 11.538 6.663Z" fill="#576573"/>
	<path d="m281.522 282.844-1.409.813c.217 1.203.564 3.25.943 5.753l8.256-4.767-7.79-1.799Z" fill="#576573"/>
	<path d="M252.984 207.351c1.083 2.34 2.286 4.745 3.413 7.194 1.083-2.449 2.286-4.854 3.423-7.194 7.834-16.251 11.788-25.677 1.712-30.889l-.444-.335c-1.636-1.626-3.25-2.449-4.691-2.449a6.947 6.947 0 0 0-4.681 2.449l-.455.335c-10.065 5.212-6.121 14.648 1.723 30.889Z" fill="#00CBC6"/>
	<path d="M362.236 136.474c-23.282 38.093-72.589 56.111-72.589 56.111 86.804-51.398 83.543-103.078 83.543-103.078-31.116 58.549-83.348 90.206-102.503 100.326-1.17 5.818-4.334 12.372-7.584 19.1-1.68 3.478-3.413 7.086-5.017 10.835l-1.668 3.878-1.669-3.878c-1.592-3.706-3.336-7.303-5.016-10.835-3.055-6.338-6.045-12.524-7.356-18.071-17.335-8.873-72.254-40.672-104.529-101.366 0 0-3.251 51.68 83.543 103.078 0 0-49.285-18.018-72.59-56.111 0 0 16.609 50.249 66.674 61.625 0 0-31.593-.411-49.545-19.014 0 0-1.029 22.373 47.151 25.742 0 0-23.684 5.743-35.277-4.788 0 0 .575 11.354 36.014 12.437 0 0 15.623-1.083 25.558 5.851-.315 12.719 2.654 25.905 5.633 35.753-.52.358-.671 2.871-18.299 8.44 0 .271 11.301 3.023 16.794-2.167 1.18 1.246-12.796 5.06-25.905 21.463.151-.65 17.15-6.197 29.133-11.539.13-.075-8.851 8.852-10.672 35.461.304-.087 5.548-8.667 13.782-18.202a82.333 82.333 0 0 0 6.37 35.84v-41.441 41.441a81.59 81.59 0 0 0 6.414-34.269c7.465 8.895 12.156 16.544 12.449 16.631-1.821-26.609-10.835-35.536-10.672-35.461 11.918 5.342 28.982 10.835 29.133 11.539-13.098-16.403-27.183-20.217-25.926-21.452 5.493 5.157 16.847 2.405 16.804 2.167-17.833-5.634-17.779-8.137-18.321-8.451 2.99-9.827 5.981-23.012 5.699-35.753 9.946-6.912 25.46-5.786 25.46-5.786 35.439-1.083 36.014-12.437 36.014-12.437-11.593 10.531-35.277 4.788-35.277 4.788 48.18-3.369 47.151-25.742 47.151-25.742-17.985 18.538-49.534 18.949-49.534 18.949 50.021-11.376 66.63-61.614 66.63-61.614Z" fill="#00CBC6"/>
	<path d="M40.892 366.885a26.926 26.926 0 0 1 7.811 4.973l-4.333 4.778a24.156 24.156 0 0 0-6.295-3.748 18.257 18.257 0 0 0-6.62-1.192 12.261 12.261 0 0 0-7.324 2.058 6.903 6.903 0 0 0-2.87 6.002 8.029 8.029 0 0 0 .985 4.15 8.668 8.668 0 0 0 3.662 3.088 47.472 47.472 0 0 0 7.822 3.001 50.877 50.877 0 0 1 8.884 3.543 15.494 15.494 0 0 1 5.72 5.222 15.1 15.1 0 0 1 2.168 8.429 15.826 15.826 0 0 1-2.427 8.721 16.251 16.251 0 0 1-6.999 5.916 25.169 25.169 0 0 1-10.834 2.167c-7.844 0-14.258-2.441-19.242-7.324l4.269-4.767a28.094 28.094 0 0 0 6.999 4.236 20.847 20.847 0 0 0 7.898 1.376 14.09 14.09 0 0 0 8.667-2.6 8.815 8.815 0 0 0 3.456-7.519 9.165 9.165 0 0 0-1.083-4.648 9.457 9.457 0 0 0-3.651-3.337 37.717 37.717 0 0 0-7.39-2.915c-5.82-1.755-10.071-3.864-12.751-6.327a12.997 12.997 0 0 1-4.03-10.043 13.446 13.446 0 0 1 2.264-7.649 15.167 15.167 0 0 1 6.338-5.266 21.767 21.767 0 0 1 9.252-1.885c3.288-.089 6.562.44 9.654 1.56Z" fill="#576573"/>
	<path d="m99.504 366.269-.823 6.663H82.917v50.011h-7.812v-50.011H58.984v-6.663h40.52Z" fill="#576573"/>
	<path d="m140.328 422.943-4.333-14.237h-21.409l-4.334 14.237h-7.844l18.18-56.674h9.87l18.094 56.674h-8.224Zm-23.835-20.585h17.682l-8.809-29.611-8.873 29.611Z" fill="#576573"/>
	<path d="M190.62 366.593a25.831 25.831 0 0 1 7.118 4.334l-4.279 4.984a17.143 17.143 0 0 0-10.943-4.193 13.845 13.845 0 0 0-11.387 5.417c-2.889 3.612-4.333 9.422-4.333 17.432 0 7.794 1.426 13.54 4.279 17.238a13.601 13.601 0 0 0 11.354 5.547 15.33 15.33 0 0 0 6.328-1.224 33.711 33.711 0 0 0 5.763-3.456l3.868 4.929a21.24 21.24 0 0 1-6.749 4.529 23.344 23.344 0 0 1-9.459 1.809 21.67 21.67 0 0 1-20.682-13.456 38.269 38.269 0 0 1-3.002-15.916 37.137 37.137 0 0 1 3.121-15.915 23.07 23.07 0 0 1 8.472-9.989 21.942 21.942 0 0 1 11.918-3.37 24.519 24.519 0 0 1 8.613 1.3Z" fill="#576573"/>
	<path d="M220.189 366.267v56.675h-7.811v-56.675h7.811Zm30.845 0-21.462 25.894 23.033 30.77h-9.631l-22.373-30.271 21.549-26.403 8.884.01Z" fill="#576573"/>
	<path d="M294.307 422.943v-24.431h-17.118v24.431H263.7v-57.01h13.489v22.048h17.118v-22.048h13.489v57.01h-13.489Z" fill="#00CBC6"/>
	<path d="m354.262 422.943-2.958-12.264h-16.62l-2.882 12.264h-13.976l17.183-57.01h16.371l17.194 57.01h-14.312Zm-17.27-22.048h12.004l-6.002-25.168-6.002 25.168Z" fill="#00CBC6"/>
	<path d="m442.02 365.933-9.534 57.01h-17.519l-7.075-43.511-7.486 43.511h-17.108l-9.382-57.01h13.489l5.709 46.815 7.899-46.804h14.149l7.4 46.804 6.663-46.804 12.795-.011Z" fill="#00CBC6"/>
	<path d="M465.789 365.933v57.01h-13.488v-57.01h13.488Zm32.742 0-18.18 25.591 19.653 31.419h-15.623l-18.18-30.434 18.093-26.576h14.237Z" fill="#00CBC6"/>
</svg>
