<svg xmlns="http://www.w3.org/2000/svg" width="200" height="128">
	<path d="M129.758 22.29c-1.742-.58-6.677-2.129-8.226-3.29.194 1.355 1.549 1.839 1.742 2.71.387.871 0 2.225.194 3.29 1.064-1.258 3.58-.968 4.645-2.226z" fill="#efefef"/>
	<path d="M127.242 23.548c-2.032-.774-7.548-2.322-9.29-3.677.193 1.548 1.645 2.032 1.935 3 .387 1.064-.871 2.613-.677 3.774 1.161-1.355 4.935-1.064 6.1-2.516zM62.21 48.226c-2.323-.581-2.516-3.387-2.516-5.032 0-2.226.29-3.775 2.225-5.226-1.742 1.935.581 5.709 3.484 6.29m16.355-13.839c2.807-1.354 7.355-3.871 10.355-2.613a103.018 103.018 0 0 0 14.419 4.259c-1.258 2.129-8.032 1.161-10.355.774-1.645-.291-5.032-1.549-6.193-1.452-2.613-.871-5.71-1.548-8.226-.968z" fill="#007fa4"/>
	<path d="m81.758 30.419 4.065-.871c-2.42 1.549-4.742 3-7.162 4.549 2.129.29 5.323-.774 5.71 1.548.871 5.129-.774 11.323-5.419 14.032-2.323-.967.483-2.709 1.451-4.645a17.162 17.162 0 0 0 1.839-6.484v-3a32.052 32.052 0 0 0-5.323.484 23.017 23.017 0 0 0-6.677 1.936 47.342 47.342 0 0 1 11.516-7.549z" fill="#007fa4"/>
	<path d="M87.274 49.774c-2.9 1.839-5.226 2.226-8.129-.29 3.484-3.581 6.1-8.226 5.226-13.355-.387-2.323-3.581-1.742-5.71-2.032 2.129-1.355 5.516-4.645 8.033-4.549 1.935.194 2.806.194 4.354 1.065a16.08 16.08 0 0 0 13.162 1.645 9.455 9.455 0 0 0 .387 8.516c.677 1.355 2.516 2.42 3.58 3.484 1.549 1.645 1.742 3.774 2.9 5.71.677.967 1.354 2.516 2.322 3.1 1.452.87-.29 2.129-.774 3.58a23.774 23.774 0 0 1-4.839 7.742 36.23 36.23 0 0 1-16.834 10.449c-1.742.58-3.194 2.419-5.323 3.58-2.032 1.162-6.581 1.839-7.645-.967 5.71.29 8.71-2.323 13.548-4.452a22.039 22.039 0 0 0 9.871-8.419c1.645-2.613 4.065-7.355 3.1-10.355-.774-2.613-1.645-5.226-2.516-7.742-.484 2.516-1.161 5.129-1.839 7.742-3-5.516-7.451-7.452-12.871-4.452z" fill="#007fa4"/>
	<path d="M84.565 50.065c1.741-.291 4.258-1.936 5.9-2.613 3-1.258 5.709.677 8.032 2.806 3 2.807 3.968-2.516 5.032.871s2.71 7.548-.193 9.774c-6.194 5.032-7.549-2.226-18.581-7.935-2.516-1.355-2.516-.774-7.452-2.807 1.065-.871 1.549-1.451 2.71-.484 1.258 1.065 1.742.871 3.387.678.294-.097 1.165-.29 1.165-.29zM77.4 73.387c.871-1.839 3.484-.484 3.871.968a3.4 3.4 0 0 0-3.677.29 1.931 1.931 0 0 1-.194-1.258z" fill="#efefef"/>
	<path d="M81.274 74.355c1.161.484 3.678-.581 4.936-1.742.58-.387.387-.871 1.451-.1 1.258.968 3.291-1.161 4.452-2.419 5.806-6.194 7.645-15.581 9.871-23.71.968 2.807 2.806 5.71 3.677 8.419 1.162 3.581-4.064 9.968-6.29 12.581a22.8 22.8 0 0 1-5.613 4.452c-2.516 1.355-5.032 2.9-7.548 4.161a12.872 12.872 0 0 1-8.61 1.455c-1.745-3 1.448-4.352 3.674-3.097z" fill="#007fa4"/>
	<path d="M81.758 74.645c-.484-.193-.581-.193-.677-.677.484-.194 5.9-2.9 5.9-1.742.293 1.258-4.546 2.419-5.223 2.419z" fill="#efefef"/>
	<path d="M86.21 72.032c.58.291.29.1 0 0z" fill="#ccc"/>
	<path d="M89.306 75.516a13.892 13.892 0 0 1-2.225 1.936c2.9-3.775 7.451-4.162 11.709-6.387A29.765 29.765 0 0 0 110.6 60.71a25.1 25.1 0 0 0 2.709-6.194c.388-1.355-3.483-4.645-4.258-6.581-1.258-2.9-3.967-4.741-5.129-7.838-1.064-2.807-1.161-6.484.775-8.516-.484 4.742.871 9.29 4.548 12.484.677.58 2.419 1.161 1.839 2.032-.581.968 1.258 2.709 1.742 3.484 1.838 2.516 3.29 3.29 2.612 6.387-2.809 12.677-14.038 18.484-26.132 19.548zm22.839-43.258c1.645-1.258 5.71-7.645 7.549-7.645-1.549 2.516-9.388 13.548-1.065 11.322a52.825 52.825 0 0 0-3.581 4.549c-1.354-1.645-5.709-6.29-2.9-7.936z" fill="#007fa4"/>
	<path d="M112.339 30.516a1.446 1.446 0 0 1-.484 2.516c0-.29.1-.677.1-.967a10.626 10.626 0 0 0 .387 3c.58 2.516 4.548 6.677 3 8.806-1.742 2.516-3.194 2.71-6.1.29a13.841 13.841 0 0 1-4.161-6.29c-.581-2.226-2.033-6.774.871-6.968 2.129-.097 4.258-.29 6.387-.387z" fill="#cbdb2f"/>
	<path d="M115.048 40.484a79.364 79.364 0 0 1 5.71-7.065c-4.064 5.516-5.9 13.162-1.161 18.871a16.133 16.133 0 0 0 3.193 3.1 34.706 34.706 0 0 1 21 1.452c-2.806 3.871-6.1-.291-9.871-.968a19.949 19.949 0 0 0-11.806 1.742c-2.323.968-2.807-.484-4.452-2.226a83.603 83.603 0 0 1-3.871-4.452c-.677-.967-3.774-4.064-3.1-5.129 1.258-1.935 3-3.483 4.354-5.322z" fill="#007fa4"/>
	<path d="M125.5 23.742a2.021 2.021 0 0 1-.387-.581 42.664 42.664 0 0 1 4.548-.871c.194-.1.968 2.613 1.258 3.1a7.13 7.13 0 0 0 4.452 4.065c-2.9.483-1.742 1.064-4.452-2.033-.58-.677-1.742-2.322-2.322-2.322-.968.094-2.226-1.358-3.097-1.358zM144.371 48.9a6.41 6.41 0 0 0-2.71 0 8.05 8.05 0 0 0-.193-5.419 6.119 6.119 0 0 1 2.903 5.419zm-9-4.352a11.181 11.181 0 0 1 4.064 5.517l-1.161.58a11.531 11.531 0 0 0-1.839 1.936 28.205 28.205 0 0 0-1.064-8.033zm3.677-.29a17.813 17.813 0 0 0 .291-7.161 25.562 25.562 0 0 1 3.774 2.226 9.339 9.339 0 0 1-4.065 4.935zm-.967-7.548c.1-.291-2.323 4.742-3.194 5.613l-1.355 1.161a25.719 25.719 0 0 0-.967-8.032 32.718 32.718 0 0 1 5.516 1.258zm-10.452-1.162-.1-.193h2.71a13.8 13.8 0 0 1-.871 4.839 22.706 22.706 0 0 0-1.739-4.646zm5.323 11.904a8.2 8.2 0 0 0 2.032 6.58c-4.839 2.9-3.678-4.258-2.032-6.58zm-18.097 4.742c.1-.291 1.064 1.161 1.451 1.645 1.936 2.322 5.323 4.161 3.1 6.677-9.193 10.355-9.677 7.549-12 8.516 1.839-2.9 7.549-10.645 8.129-14.032.094 0-.68-2.806-.68-2.806z" fill="#efefef"/>
	<path d="M124.919 23.258a.356.356 0 0 1 .291-.1l.29-.193 3.1.677c1.355 3.1 3.193 5.032 5.419 5.807h1.355c.387.1.484 1.161.581 1.354a4.971 4.971 0 0 1 0 2.42l-3.387-.678c-.775-.387 0-.871-.775-1.258-2.516-1.548.291 2.9-1.355.871a6.317 6.317 0 0 0 2.42.678l-1.839-.291.387.1c.194.387 6.387.968-.387.194-.968-.1 2.032.1 3.194-.291l1.838-.58 1.933-.968-.484 1.452c-.194.677-.387 1.258-.484 1.645l-1.258.193a2.9 2.9 0 0 1-1.548.1l-.871-.39a6.364 6.364 0 0 0-3.678.29 7.131 7.131 0 0 1-3.484.1 1.7 1.7 0 0 1-1.354-1.452l.1-.677a.728.728 0 0 0 .1-.387c-.29-.387-.581-.774-.968-1.355a2.744 2.744 0 0 0-1.935-1.161 16.661 16.661 0 0 1-2.323-.484c-.1-.1-.29-.1-.387-.194.1-.967.968-2.129 2.71-3.483" fill="#007fa4"/>
	<path d="M118.629 35.935c-5.032 1.355-4.258-2.322-2.419-5.419.58-1.064 2.613-8.322 5.9-5.322-4.839 4.451 1.452 3.193 3.29 5.709.484.678.194 2.226-.58 2.032.483 2.613 4.838 1.259 6.387.968 2.709-.387 5.806.581 8.709.194 3.1-.484 4.355-2.613 6.484.387a25.263 25.263 0 0 1 .581 7.645 31.017 31.017 0 0 0-16.452-6.484c-.871-.1-2.9-.484-3.677 0-2.42 2.516-3.678 6.1-2.323 9.29 1.549 3.581 6.194 11.613 10.839 8.13 1.742-1.355 2.613-3.194 4.742-3.968a9.737 9.737 0 0 1 8.032 1.064c-.774.484-2.226.484-2.419 1.355-.678 3-1.065 4.355-1.936 5.323-5.516-2.129-10.935-2.9-16.548-.871-4.645 1.742-7.645.484-9-2.9a19.48 19.48 0 0 1-1.355-4.936 19.248 19.248 0 0 1 3.871-14.71c-.774.775-1.355 1.742-2.129 2.516z" fill="#efefef"/>
	<path d="M141.468 31.29a19.461 19.461 0 0 1 3.774 1.839c-2.226 1.258-7.065 1.452-8.419.968.387-4.936 2.806-3 4.548-2.613 1.355.29.097-.194.097-.194z" fill="#007fa4"/>
	<path d="M144.177 32.742c-2.419-.871-3.967-1.065-5.9-1.936 1.549-.871 3.871-3.58 5.226-2.032a12.841 12.841 0 0 1 2.9 5.71 3.958 3.958 0 0 0-1.935-1.549 1.183 1.183 0 0 1-.291-.193z" fill="#003146"/>
	<path d="M124.726 45.419c7.839-3.387 14.032 16.258 3.387 15.775-3.484-.1-7.452-7.065-2.516-7.065 3.677 0 5.226-3.387 1.451-4.161z" fill="#f26a36"/>
	<path d="M126.952 49.968c.58-1.645 1.548-2.129 3-2.9-.484 2.225-.678 5.032-.775 5.225a5.43 5.43 0 0 1-2.225-2.419z" fill="#efefef"/>
	<path d="M134.016 31.774c0 1.549-.774 2.807-1.742 2.807-1.064 0-1.839-1.258-1.839-2.807 0-1.451.775-2.709 1.839-2.709.968 0 1.742 1.258 1.742 2.709z" fill="#fff"/>
	<path d="M134.016 31.774c0 .871-.387 1.549-.871 1.549s-.871-.678-.871-1.549c0-.774.387-1.451.871-1.451s.871.677.871 1.451z" fill="#003146"/>
	<path d="M129.952 28.581a41.335 41.335 0 0 0 4.258 3.967c.39-3.29-1.549-4.548-4.258-3.967z" fill="#efefef"/>
	<path d="M82.242 35.548c1.839 2.42.677 6.194-.774 9.581-2.226 5.129-8.42 7.936-11.033 7.936 3.678-4.839 11.033-9.194 8.9-15.388-5.226-1.161-9.968 5.033-12.871 3.871 6.778-6.58 12.197-7.548 15.778-6z" fill="#007fa4"/>
	<path d="M75.468 43.484c.387-1.355.871-2.71 1.258-3.968C69.758 43 65.4 49.387 63.758 56.839c-1.935-.581-3-1.936-3.387-4.645 2.226.967 1.258 1.258 1.645-1.162a18.138 18.138 0 0 1 2.419-7.355c3.678-6 13.936-8.032 15.291-5.612 2.613 3.29-.194 10.161-4.645 12.58-3.581 1.839-3.968 1.645-5.9 3-1.451 1.065-3.871 3.29-4.645 4.936-2.136-3.194 8.319-13.162 10.932-15.097z" fill="#007fa4"/>
	<path d="M68.4 50.452a31.582 31.582 0 0 0-3.968 7.064c-.677 1.839.678-2.032-.677-.677-.677-3.774.1-3 1.936-6.678a26.935 26.935 0 0 1 11.9-12c-.387 1.452-.291 3.774-1.162 5.033" fill="#007fa4"/>
	<path d="M61.823 46.387c2.322-5.032 5.419-7.935 10.645-9.29a21.154 21.154 0 0 0-8.226 8.032c-2.032 3.194 1.258 10.936-3.871 7.065.484 3.193 1.452 3.677 3.387 4.258 1.258 1.161-.484 1.161-1.452-.1-2.419-3.387-3.29-8.516-.483-9.968a16.2 16.2 0 0 0-1.646 4.258 17.618 17.618 0 0 1 1.646-4.258zm11.129 5.129c1.354-.1 4.064.1 4.838 1.452.387.58-.1 3.967-.967 3.967-.291-6-8.129-1.451-11.807.678 1.452-1.839 3.678-6.1 7.936-6.1z" fill="#007fa4"/>
	<path d="M65.306 59.065c1.065-3.484 3-4.936 6.388-5.9 3.193-.871 4.935.484 5.129 3.774-4.646-.29-8.9 2.226-12.291 5.323-.1-1.452-.58-4.258-.774-5.806.194.193.581-.1.774.1.484-.967 1.355-.1 2.323-.58a11.6 11.6 0 0 0-1.549 3.1z" fill="#007fa4"/>
	<path d="M64.629 62.645c-.774-.193 1.839-2.9 2.71-3.29 2.226-1.065 7.548-3.1 9.677-2.42-1.258 2.517-9.581 6.775-12.387 5.71z" fill="#efefef"/>
	<path d="M112.435 35.355c-2.612.677-2.612 2.419-1.354 4.548-1.646-1.645-3.387-1.645-5.129 0 .871-1.645 1.354-3.871-1.258-4.742 2.129.484 3.871 0 3.871-2.516.387.871.387 1.742.87 2.71z" fill="#ff0"/>
	<path d="m40.435 106.484.871-1.065a6.724 6.724 0 0 0 5.033 2.323c3.193 0 4.161-1.839 4.161-3.194 0-4.742-9.581-2.225-9.581-7.838 0-2.613 2.323-4.258 5.226-4.258a6.9 6.9 0 0 1 5.42 2.225l-.871 1.065a5.589 5.589 0 0 0-4.549-2.032c-2.226 0-3.774 1.161-3.774 2.9 0 4.161 9.581 1.839 9.581 7.839 0 2.032-1.355 4.548-5.71 4.548a7.3 7.3 0 0 1-5.807-2.513zm21.194 2.226V94H56.4v-1.258h11.81V94h-5.226v14.71zm21.774 0-1.645-3.968h-8.419l-1.549 3.968h-1.645l6.581-15.968h1.645l6.581 15.968zM77.6 94.194l-3.774 9.29h7.548zm21.481 14.516-4.452-6.678h-3.581v6.678h-1.354V92.742h6a4.521 4.521 0 0 1 4.838 4.645 4.345 4.345 0 0 1-4.451 4.548l4.645 6.775zm0-11.323A3.227 3.227 0 0 0 95.6 94h-4.552v6.871H95.6a3.3 3.3 0 0 0 3.481-3.484zm7.258 11.323V92.742h5.129a7.984 7.984 0 1 1 0 15.968zm11.709-8.033a6.321 6.321 0 0 0-6.58-6.677h-3.774v13.452h3.774c4.161 0 6.58-3 6.58-6.775zm6.678 0c0-4.645 3.1-8.225 7.742-8.225s7.742 3.58 7.742 8.225c0 4.742-3.1 8.323-7.742 8.323s-7.742-3.581-7.742-8.323zm14.032 0c0-3.967-2.419-6.967-6.29-6.967s-6.291 2.9-6.291 6.967 2.42 7.065 6.291 7.065 6.29-3 6.29-7.065zm6.677 0a7.883 7.883 0 0 1 8.033-8.225 7.726 7.726 0 0 1 6.1 2.709l-1.065.774a6.636 6.636 0 0 0-5.032-2.225c-3.678 0-6.581 2.806-6.581 6.967s2.9 7.065 6.581 7.065a6.767 6.767 0 0 0 4.742-1.936v-3.774h-6v-1.258h7.355v5.613a8.151 8.151 0 0 1-14.13-5.71z" fill="#003e51"/>
</svg>
