<svg xmlns="http://www.w3.org/2000/svg" width="200" height="128">
	<path d="M99.989 80.641A30.408 30.408 0 0 1 74.5 33.666a.836.836 0 0 0 .075-.769A32.332 32.332 0 0 1 72.34 22.1a86.265 86.265 0 0 0 8.53 3.98.852.852 0 0 0 .309.059.84.84 0 0 0 .506-.17 30.411 30.411 0 0 1 36.607 0 .84.84 0 0 0 .506.17.852.852 0 0 0 .309-.059 86.371 86.371 0 0 0 8.53-3.98 32.376 32.376 0 0 1-2.237 10.8.837.837 0 0 0 .076.768 30.407 30.407 0 0 1-25.487 46.973z" fill="#addddd" fill-rule="evenodd"/>
	<path d="M99.989 20.677a29.324 29.324 0 0 1 17.8 5.956 1.673 1.673 0 0 0 1.627.221c2.3-.911 4.749-2.028 7.3-3.332a31.122 31.122 0 0 1-2.086 9.065 1.671 1.671 0 0 0 .152 1.537 29.563 29.563 0 1 1-49.579 0 1.676 1.676 0 0 0 .152-1.538 31.056 31.056 0 0 1-2.086-9.064c2.548 1.3 4.993 2.421 7.3 3.332a1.675 1.675 0 0 0 1.628-.221 29.318 29.318 0 0 1 17.8-5.956m0-1.677a31.11 31.11 0 0 0-18.81 6.3 88.023 88.023 0 0 1-9.7-4.617 33.613 33.613 0 0 0 2.319 12.531 31.241 31.241 0 1 0 52.389 0 33.627 33.627 0 0 0 2.32-12.531 88.2 88.2 0 0 1-9.7 4.617A31.109 31.109 0 0 0 99.989 19z" fill="#231f20"/>
	<path fill="#fff" d="M79.862 59.256h7.545v5.448h-7.545z"/>
	<path d="M86.569 60.1v3.771H80.7V60.1h5.867m1.677-1.677h-9.22v7.125h9.222v-7.13z" fill="#231f20"/>
	<path fill="#fff" d="M90.762 59.256h7.549v10.9h-7.549z"/>
	<path d="M97.473 60.1v9.223H91.6V60.1h5.872m1.677-1.677h-9.225V71h9.226V58.418z" fill="#231f20"/>
	<path fill="#fff" d="M101.666 59.256h7.549v12.578h-7.549z"/>
	<path d="M108.376 60.1V71h-5.871V60.1h5.871m1.678-1.677h-9.227v14.25h9.227V58.418z" fill="#231f20"/>
	<path fill="#fff" d="M112.57 59.256h7.545v4.194h-7.545z"/>
	<path d="M119.276 60.1v2.517h-5.867V60.1h5.867m1.678-1.677h-9.223v5.871h9.223v-5.876z" fill="#231f20"/>
	<path fill="#231f20" d="M75.669 58.418h48.64v1.678h-48.64z"/>
	<path d="M87.723 53.284a10.692 10.692 0 1 1 10.69-10.694 10.707 10.707 0 0 1-10.69 10.694z" fill="#fff" fill-rule="evenodd"/>
	<path d="M87.723 32.739a9.854 9.854 0 1 1-9.856 9.851 9.853 9.853 0 0 1 9.856-9.851m0-1.677A11.531 11.531 0 1 0 99.252 42.59a11.544 11.544 0 0 0-11.529-11.528z" fill="#231f20"/>
	<path d="m94.6 45.888 2.163.9.224-.545-2.163-.9a9.855 9.855 0 0 1-.224.545zm.689-2.945h2.341v-.638h-2.345c0 .1.009.152.009.254s-.005.287-.009.384zM87.379 32.7v2.358l.347-.009.3.009V32.7zm-2.315 2.822-.887-2.158-.541.223.891 2.164c.178-.088.355-.164.537-.232zm-2.522 1.564L80.9 35.427l-.414.418 1.641 1.655c.135-.147.273-.282.415-.417zM80.8 39.495l-2.163-.9-.223.541 2.163.9c.068-.181.143-.363.223-.541zm-.688 2.81h-2.341v.638h2.341v-.384c0-.097-.004-.159 0-.254zm.465 3.038-2.147.9.224.541 2.146-.9a8.782 8.782 0 0 1-.223-.541zm14.243-5.3 2.146-.9-.223-.545-2.147.895c.085.18.156.362.224.548zM93.269 37.5l1.644-1.652-.41-.418-1.643 1.653c.14.135.279.27.409.417zm-2.4-1.749.9-2.18-.541-.225-.895 2.176c.182.069.367.141.541.226zm4.67 2.384.744-.431-.149-.253-.748.43zm-2.333-2.675.537-.7-.233-.182-.536.706zm-3.165-1.572.224-.853-.278-.076-.229.858zm-3.3-.329V32.7h-.321v.854c.093-.016.22.014.317.005zm-3.312 1.1-.432-.752-.253.144.431.748zm-2.73 2.257-.7-.541-.177.232.693.537zm-1.664 3.135-.851-.228-.07.283.84.228zm-.406 3.537h-.854v.321h.85c-.018-.099.012-.226 0-.323zm16.4-6.254.7-.507-.173-.237-.7.512zm-2.6-2.414.461-.753-.25-.152-.461.752zm-3.313-1.234.135-.866-.287-.047-.135.875zm-3.245.08-.2-.845-.283.068.2.84zm-3.254 1.382-.506-.7-.237.174.5.7zm-2.48 2.531-.752-.461-.152.249.748.461zm-1.33 3.295-.867-.139-.046.291.862.14zm.025 3.558-.837.2.068.283.832-.2z" fill="#231f20" fill-rule="evenodd"/>
	<path fill="#ca2026" fill-rule="evenodd" d="m86.678 42.951 1.022-10.12 1.022 10.12h-2.044z"/>
	<path d="M90.079 42.592a2.359 2.359 0 1 1-2.359-2.359 2.359 2.359 0 0 1 2.359 2.359z" fill="#231f20" fill-rule="evenodd"/>
	<path d="M111.973 53.284a10.692 10.692 0 1 1 10.69-10.694 10.707 10.707 0 0 1-10.69 10.694z" fill="#fff" fill-rule="evenodd"/>
	<path d="M111.973 32.739a9.854 9.854 0 1 1-9.856 9.851 9.853 9.853 0 0 1 9.856-9.851m0-1.677A11.531 11.531 0 1 0 123.5 42.59a11.543 11.543 0 0 0-11.528-11.528z" fill="#231f20"/>
	<path d="m118.846 45.888 2.163.9.225-.545-2.163-.9c-.071.186-.14.368-.225.545zm.689-2.945h2.341v-.638h-2.341c0 .1.008.152.008.254s-.004.287-.008.384zM111.63 32.7v2.358l.346-.009.3.009V32.7zm-2.316 2.822-.887-2.158-.541.223.892 2.164c.177-.088.354-.164.536-.232zm-2.522 1.564-1.644-1.656-.414.418 1.644 1.652c.135-.147.27-.282.414-.417zm-1.741 2.412-2.164-.9-.223.541 2.163.9q.102-.277.224-.544zm-.689 2.81h-2.341v.638h2.341v-.384c0-.097-.004-.162 0-.257zm.465 3.038-2.147.9.224.541 2.147-.9c-.081-.18-.151-.362-.224-.544zm14.244-5.3 2.146-.9-.224-.545-2.147.895c.085.177.154.359.225.545zM117.52 37.5l1.643-1.652-.409-.418-1.645 1.656c.14.132.28.267.411.414zm-2.4-1.749.9-2.18-.54-.225-.9 2.176c.184.069.366.141.544.226zm4.669 2.384.744-.431-.148-.253-.749.43zm-2.333-2.675.537-.7-.233-.182-.536.706zm-3.164-1.572.224-.853-.279-.076-.228.858zm-3.305-.329V32.7h-.316v.854c.092-.016.219.014.316.005zm-3.312 1.1-.432-.752-.253.144.431.748zm-2.73 2.257-.7-.541-.177.232.693.537zm-1.664 3.135-.85-.228-.071.283.841.228zm-.406 3.537h-.854v.321h.85c-.013-.099.016-.226.004-.323zm16.4-6.254.7-.507-.173-.237-.7.512zm-2.594-2.412.46-.753-.249-.152-.46.752zm-3.313-1.234.136-.866-.288-.047-.135.875zm-3.245.08-.2-.845-.284.068.2.84zm-3.253 1.382-.507-.7-.237.174.5.7zm-2.481 2.531-.751-.461-.153.249.748.461zm-1.33 3.295-.867-.139-.046.291.862.14zm.025 3.558-.836.2.067.283.833-.2z" fill="#231f20" fill-rule="evenodd"/>
	<path fill="#ca2026" fill-rule="evenodd" d="m110.928 42.951 1.022-10.12 1.023 10.12h-2.045z"/>
	<circle cx="111.971" cy="42.592" r="2.359" fill="#231f20"/>
	<path d="M75.852 85.99a4.14 4.14 0 0 1 2.19 2.19 3.975 3.975 0 0 1 .327 1.6v1.242a.558.558 0 0 1-.426.588l-2.974.784q-.424.132-.425-.327v-2.122a.779.779 0 0 0-.784-.784h-.26a.78.78 0 0 0-.785.784v2.974a2.37 2.37 0 0 0 .131.621 1.493 1.493 0 0 0 .359.523l4.282 3.2a2.118 2.118 0 0 1 .67.932 5.762 5.762 0 0 1 .213 1.062v5.622a3.963 3.963 0 0 1-.327 1.6 4.14 4.14 0 0 1-2.19 2.19 3.971 3.971 0 0 1-1.6.327h-1.244a3.968 3.968 0 0 1-1.6-.327 4.14 4.14 0 0 1-2.19-2.19 3.963 3.963 0 0 1-.327-1.6v-3.138a.558.558 0 0 1 .425-.588l2.975-.785c.282-.086.424.022.424.327v4.02a.782.782 0 0 0 .785.785h.261a.78.78 0 0 0 .784-.785V100.4a3.566 3.566 0 0 0-.13-.752 1.281 1.281 0 0 0-.392-.588l-4.217-3.236a3.032 3.032 0 0 1-.7-.915 2.892 2.892 0 0 1-.217-1.209v-3.918a3.975 3.975 0 0 1 .327-1.6 4.14 4.14 0 0 1 2.19-2.19 3.985 3.985 0 0 1 1.6-.327h1.243a3.988 3.988 0 0 1 1.602.325zM88.7 89.618v2.909a.4.4 0 0 1-.458.458h-2.32v15.329a.4.4 0 0 1-.458.457h-2.912a.455.455 0 0 1-.31-.131.414.414 0 0 1-.147-.326V92.985h-2.289a.4.4 0 0 1-.457-.458v-2.909a.4.4 0 0 1 .457-.457h8.433a.4.4 0 0 1 .461.457zm10.456 18.696q.064.458-.392.457h-2.975a.459.459 0 0 1-.49-.457l-.262-3.2h-2.026l-.261 3.2a.46.46 0 0 1-.491.457h-2.974q-.457 0-.392-.457l2.451-18.7a.475.475 0 0 1 .523-.457h4.314a.476.476 0 0 1 .523.457zm-4.38-6.864-.621-7.223h-.262l-.621 7.223zM108.7 89.618v2.909a.4.4 0 0 1-.458.458h-2.32v15.329a.4.4 0 0 1-.457.457h-2.909a.458.458 0 0 1-.311-.131.417.417 0 0 1-.147-.326V92.985h-2.289a.4.4 0 0 1-.458-.458v-2.909a.4.4 0 0 1 .458-.457h8.432a.4.4 0 0 1 .459.457zm8.432-.359a4.143 4.143 0 0 1 2.19 2.189 3.994 3.994 0 0 1 .326 1.6v1.242a.558.558 0 0 1-.425.588l-2.974.785c-.283.087-.425-.021-.425-.327v-2.122a.782.782 0 0 0-.784-.785h-.262a.782.782 0 0 0-.784.785v1.993a2.33 2.33 0 0 0 .131.621 1.479 1.479 0 0 0 .359.523l4.282 3.2a2.126 2.126 0 0 1 .67.932 5.765 5.765 0 0 1 .212 1.062v3.334a3.979 3.979 0 0 1-.326 1.6 4.14 4.14 0 0 1-2.19 2.19 3.975 3.975 0 0 1-1.6.327h-1.241a3.973 3.973 0 0 1-1.6-.327 4.134 4.134 0 0 1-2.189-2.19 3.963 3.963 0 0 1-.327-1.6v-1.831a.558.558 0 0 1 .425-.588l2.974-.784q.425-.131.425.327v2.712a.782.782 0 0 0 .784.785h.262a.782.782 0 0 0 .784-.785v-2.026a3.563 3.563 0 0 0-.131-.752 1.274 1.274 0 0 0-.391-.588l-4.217-3.236a3.053 3.053 0 0 1-.7-.915 2.894 2.894 0 0 1-.212-1.209V93.05a3.978 3.978 0 0 1 .327-1.6 4.136 4.136 0 0 1 2.189-2.189 3.973 3.973 0 0 1 1.6-.327h1.241a3.975 3.975 0 0 1 1.597.325zm10.001-3.367a4 4 0 0 1 1.6.327 4.134 4.134 0 0 1 2.189 2.19 3.97 3.97 0 0 1 .327 1.6v14.643a3.971 3.971 0 0 1-.327 1.6 4.136 4.136 0 0 1-2.189 2.189 3.978 3.978 0 0 1-1.6.327h-4.9a.4.4 0 0 1-.458-.457V86.35a.405.405 0 0 1 .458-.458zm.294 4.282a.782.782 0 0 0-.785-.785H125.6v15.885h1.046a.782.782 0 0 0 .785-.784z"/>
</svg>
