<svg xmlns="http://www.w3.org/2000/svg" viewBox="152.13 234.13 422.24 156.24">
	<path fill="#456d6f" stroke="#fff" stroke-miterlimit="10" stroke-width="5" d="M264.807 248.256s32.443 25.874-31.608 50.32c-5.787-68.315 31.608-50.32 31.608-50.32Zm-101.91 56.331s4.655-41.24 59.426 0c-54.77 41.24-59.425 0-59.425 0Zm31.14 56.333s-32.445-25.876 31.606-50.32c5.79 68.313-31.605 50.32-31.605 50.32Zm31.919-62.532c-62.723-27.675-28.999-51.864-28.999-51.864s38.264-16.065 28.999 51.864Zm49.805 79.41s-55.7 20.756-42.213-67.012c91.302 35.758 42.214 67.012 42.214 67.012Zm-39.239-73.21c54.768-41.24 59.422 0 59.422 0s-4.654 41.238-59.422 0Z"/>
	<path d="M328.623 289.934a10.857 10.857 0 0 0 1.495 5.343q2.51 3.842 8.847 3.842a15.141 15.141 0 0 0 5.172-.842q4.512-1.632 4.512-5.843 0-3.157-1.912-4.5a18.948 18.948 0 0 0-6.067-2.289l-5.074-1.184a22.475 22.475 0 0 1-7.036-2.553 8.166 8.166 0 0 1-3.57-7.238 11.294 11.294 0 0 1 3.509-8.552q3.508-3.342 9.936-3.343a16.922 16.922 0 0 1 10.052 2.935q4.137 2.936 4.137 9.382h-4.922a9.957 9.957 0 0 0-1.614-4.763q-2.297-3.026-7.797-3.026-4.442 0-6.384 1.947a6.216 6.216 0 0 0-1.942 4.526 4.447 4.447 0 0 0 2.294 4.159 32.946 32.946 0 0 0 6.809 2.105l5.252 1.236a15.825 15.825 0 0 1 5.865 2.449 9.275 9.275 0 0 1 3.57 7.868q0 6.422-4.556 9.184a20.002 20.002 0 0 1-10.587 2.764q-7.033 0-11.01-3.684-3.98-3.658-3.901-9.922zm34.33-23.58h4.79v7.87h4.5v3.868h-4.5v18.396a1.99 1.99 0 0 0 1 1.973 4.254 4.254 0 0 0 1.843.29c.228 0 .474-.006.736-.018.264-.01.57-.041.922-.088v3.764a10.572 10.572 0 0 1-1.698.342 16.106 16.106 0 0 1-1.909.105q-3.315 0-4.5-1.697a7.546 7.546 0 0 1-1.183-4.408v-18.659h-3.817v-3.869h3.817zm31.117 18.997a2.573 2.573 0 0 0 2.185-1.366 4.2 4.2 0 0 0 .315-1.822 3.872 3.872 0 0 0-1.72-3.528 9.188 9.188 0 0 0-4.925-1.095q-3.703 0-5.253 2.01a6.65 6.65 0 0 0-1.13 3.305h-4.42q.131-5.225 3.378-7.27a13.826 13.826 0 0 1 7.53-2.046 15.31 15.31 0 0 1 8.07 1.895 6.431 6.431 0 0 1 3.075 5.896v16.238a2.072 2.072 0 0 0 .302 1.184 1.46 1.46 0 0 0 1.277.446c.21 0 .447-.013.71-.04s.544-.065.843-.117v3.5a13.332 13.332 0 0 1-1.685.394 12.287 12.287 0 0 1-1.579.08 3.897 3.897 0 0 1-3.553-1.737 6.697 6.697 0 0 1-.815-2.605 12.056 12.056 0 0 1-4.158 3.289 12.867 12.867 0 0 1-5.975 1.394 8.89 8.89 0 0 1-6.408-2.379 7.896 7.896 0 0 1-2.487-5.953 7.662 7.662 0 0 1 2.448-6.071 11.655 11.655 0 0 1 6.42-2.655zm-9.975 12.797a5.568 5.568 0 0 0 3.553 1.182 10.82 10.82 0 0 0 4.843-1.157 6.504 6.504 0 0 0 3.947-6.279v-3.81a8.106 8.106 0 0 1-2.232.924 18.974 18.974 0 0 1-2.679.527l-2.863.367a11.084 11.084 0 0 0-3.871 1.078 4.188 4.188 0 0 0-2.198 3.938 3.888 3.888 0 0 0 1.5 3.23zm27.046-31.794h4.79v7.87h4.5v3.868h-4.5v18.396a1.99 1.99 0 0 0 1 1.973 4.245 4.245 0 0 0 1.842.29q.343 0 .737-.018c.263-.01.57-.041.921-.088v3.764a10.55 10.55 0 0 1-1.697.342 16.089 16.089 0 0 1-1.908.105q-3.315 0-4.5-1.697a7.547 7.547 0 0 1-1.185-4.408v-18.659h-3.815v-3.869h3.815zM443.824 275a10.686 10.686 0 0 1 4.263 3.644 12.639 12.639 0 0 1 1.883 4.975 32.805 32.805 0 0 1 .418 6.211h-20.5a12.188 12.188 0 0 0 2.01 6.9 6.703 6.703 0 0 0 5.823 2.6 7.481 7.481 0 0 0 5.875-2.459 8.367 8.367 0 0 0 1.74-3.305h4.658a9.817 9.817 0 0 1-1.224 3.461 12.448 12.448 0 0 1-2.32 3.118 10.925 10.925 0 0 1-5.3 2.843 16.017 16.017 0 0 1-3.84.421 11.76 11.76 0 0 1-8.866-3.829q-3.636-3.83-3.636-10.725 0-6.789 3.662-11.026a12.047 12.047 0 0 1 9.574-4.237 12.719 12.719 0 0 1 5.78 1.408zm1.696 11.066a12.357 12.357 0 0 0-1.331-4.92q-1.932-3.423-6.445-3.423a7.12 7.12 0 0 0-5.43 2.356 8.942 8.942 0 0 0-2.321 5.987zm14.255-20.448q1.658-2.422 6.395-2.421c.298 0 .605.009.921.026s.675.044 1.079.078v4.317q-.745-.053-1.078-.066c-.222-.009-.43-.013-.625-.013q-2.182 0-2.608 1.118a21.874 21.874 0 0 0-.426 5.698h4.737v3.737h-4.736v24.317h-4.685v-24.317h-3.92v-3.737h3.92v-4.422a8.435 8.435 0 0 1 1.026-4.315zm19.338 8.605v18.712a8.07 8.07 0 0 0 .666 3.527q1.23 2.525 4.588 2.526a6.485 6.485 0 0 0 6.561-4.422 17.976 17.976 0 0 0 .949-6.5v-13.843h4.737v28.186h-4.475l.053-4.158a9.531 9.531 0 0 1-2.247 2.71 9.769 9.769 0 0 1-6.456 2.211q-5.914 0-8.057-4.027a12.186 12.186 0 0 1-1.162-5.763v-19.159zm26.69-10.473h4.738v38.66h-4.738zm-180.102 64.676h26.817v4.737h-21.58V344.9h18.975v4.605h-18.975v17.58h-5.237zm36.717 10.474v18.712a8.07 8.07 0 0 0 .667 3.526q1.229 2.526 4.587 2.527a6.485 6.485 0 0 0 6.562-4.422 17.998 17.998 0 0 0 .947-6.5V338.9h4.739v28.186h-4.475l.053-4.159a9.55 9.55 0 0 1-2.248 2.711 9.766 9.766 0 0 1-6.455 2.211q-5.916 0-8.057-4.027a12.174 12.174 0 0 1-1.162-5.763V338.9zm26.618 0h4.5v4a12.642 12.642 0 0 1 4.237-3.553 11.307 11.307 0 0 1 4.974-1.079q6.001 0 8.106 4.185a14.867 14.867 0 0 1 1.157 6.552v18.08h-4.815v-17.763a9.618 9.618 0 0 0-.764-4.158 4.627 4.627 0 0 0-4.579-2.632 9.337 9.337 0 0 0-2.762.342 7.12 7.12 0 0 0-3.422 2.316 6.97 6.97 0 0 0-1.54 2.882 19.361 19.361 0 0 0-.355 4.25v14.763h-4.737zm50.55 1.5q2.986 2.316 3.592 7.975h-4.605a8.502 8.502 0 0 0-1.921-4.33q-1.502-1.724-4.816-1.724a6.654 6.654 0 0 0-6.474 4.416 17.514 17.514 0 0 0-1.264 7.071 13.29 13.29 0 0 0 1.79 7.123 6.95 6.95 0 0 0 10.303 1.096 9.874 9.874 0 0 0 2.382-4.916h4.605q-.79 5.606-3.948 8.198a12.31 12.31 0 0 1-8.079 2.592 10.781 10.781 0 0 1-8.815-4.04 15.462 15.462 0 0 1-3.29-10.092q0-7.42 3.605-11.553a11.649 11.649 0 0 1 9.185-4.132 12.289 12.289 0 0 1 7.75 2.316zm11.686-9.37h4.79v7.87h4.5v3.87h-4.5v18.395a1.99 1.99 0 0 0 1 1.973 4.243 4.243 0 0 0 1.842.29q.343 0 .737-.018c.263-.011.57-.041.921-.088v3.763a10.553 10.553 0 0 1-1.697.342 16.111 16.111 0 0 1-1.908.106q-3.315 0-4.5-1.698a7.546 7.546 0 0 1-1.185-4.408V342.77h-3.815v-3.87h3.815zm15.935-2.604h4.816v5.369h-4.816zm0 10.606h4.816v28.054h-4.816zm34.427 2.681q3.737 3.629 3.738 10.675a18.394 18.394 0 0 1-3.293 11.254q-3.293 4.443-10.218 4.443a11.502 11.502 0 0 1-9.173-3.93q-3.397-3.93-3.396-10.558 0-7.098 3.58-11.305a11.981 11.981 0 0 1 9.616-4.208 12.628 12.628 0 0 1 9.146 3.63zm-2.941 18.732a17.885 17.885 0 0 0 1.732-7.925 14.23 14.23 0 0 0-1.25-6.414q-1.978-3.89-6.818-3.89a6.705 6.705 0 0 0-6.245 3.311 15.48 15.48 0 0 0-1.952 7.992 13.46 13.46 0 0 0 1.952 7.49q1.951 2.997 6.193 2.997 4.659 0 6.388-3.561zm14.235-21.545h4.5v4a12.642 12.642 0 0 1 4.238-3.553 11.307 11.307 0 0 1 4.973-1.079q6.002 0 8.107 4.185a14.868 14.868 0 0 1 1.157 6.552v18.08h-4.815v-17.763a9.618 9.618 0 0 0-.764-4.158 4.627 4.627 0 0 0-4.58-2.632 9.336 9.336 0 0 0-2.762.342 7.12 7.12 0 0 0-3.422 2.316 6.97 6.97 0 0 0-1.539 2.882 19.355 19.355 0 0 0-.355 4.25v14.763h-4.738zm34.538 19.343a6.785 6.785 0 0 0 1.208 3.632q1.827 2.289 6.34 2.29a9.498 9.498 0 0 0 4.727-1.146 3.786 3.786 0 0 0 2.042-3.539 3.02 3.02 0 0 0-1.632-2.764 19.648 19.648 0 0 0-4.12-1.341l-3.823-.948a18.87 18.87 0 0 1-5.403-2 5.96 5.96 0 0 1-3.102-5.316 8.075 8.075 0 0 1 2.92-6.474 11.748 11.748 0 0 1 7.854-2.473q6.454 0 9.308 3.736a8.043 8.043 0 0 1 1.734 5.105h-4.473a5.365 5.365 0 0 0-1.159-2.905q-1.67-1.857-5.792-1.857a7.067 7.067 0 0 0-4.162 1.022 3.177 3.177 0 0 0-1.414 2.7 3.315 3.315 0 0 0 1.859 2.938 11.274 11.274 0 0 0 3.164 1.155l3.19.764a24.994 24.994 0 0 1 6.971 2.394 6.343 6.343 0 0 1 2.764 5.711 8.652 8.652 0 0 1-2.892 6.5q-2.891 2.738-8.805 2.737-6.368 0-9.02-2.855a10.729 10.729 0 0 1-2.837-7.067z"/>
</svg>
