<svg xmlns="http://www.w3.org/2000/svg" width="200" height="128">
	<defs>
		<linearGradient id="a" x1="31.324" y1="39.605" x2="31.324" y2="48.999" gradientTransform="matrix(1 0 0 -1 0 108)" gradientUnits="userSpaceOnUse">
			<stop offset="0" stop-color="#2684ff"/>
			<stop offset=".82" stop-color="#0052cc"/>
		</linearGradient>
	</defs>
	<path d="M55.323 70.489a12.286 12.286 0 0 1-6.331-1.363v-2.452a14.956 14.956 0 0 0 6.462 1.469c2.643 0 3.642-1.041 3.642-2.592s-.962-2.377-4.3-3.178c-3.946-.962-5.715-2.325-5.715-5.208 0-2.732 2.082-4.753 6.17-4.753a10.453 10.453 0 0 1 5.369 1.281v2.4a10.785 10.785 0 0 0-5.463-1.335c-2.3 0-3.66.8-3.66 2.4 0 1.441 1.123 2.164 4.219 2.938 3.712.935 5.8 2.124 5.8 5.287-.022 3.051-1.841 5.106-6.193 5.106zm14.289-2.51a7.37 7.37 0 0 0 1.442-.188v2.221a5.509 5.509 0 0 1-1.548.213c-2.859 0-4.249-1.682-4.249-4.167v-7.051H63.1v-2.125h2.164v-2.843h2.243v2.831h3.551V59h-3.552v7a1.861 1.861 0 0 0 2.106 1.979zm12.912-.161a4.707 4.707 0 0 1-4.513 2.671c-3.551 0-5.342-3.017-5.342-6.944 0-3.767 1.869-6.945 5.609-6.945a4.383 4.383 0 0 1 4.249 2.616V56.87h2.3v13.355h-2.3zm-3.9.534c2.058 0 3.9-1.308 3.9-4.273V63.01c0-2.965-1.682-4.273-3.642-4.273-2.592 0-3.928 1.709-3.928 4.808 0 3.2 1.281 4.807 3.661 4.807zm14.948-.373a7.37 7.37 0 0 0 1.441-.188v2.221a5.507 5.507 0 0 1-1.547.213c-2.86 0-4.25-1.682-4.25-4.167v-7.051h-2.164v-2.125h2.164v-2.843h2.243v2.831h3.551V59h-3.551v7a1.866 1.866 0 0 0 2.113 1.979zm4.112-11.109h2.3v8.065c0 2.4.962 3.472 3.15 3.472 2.125 0 3.606-1.415 3.606-4.113V56.87h2.3v13.355h-2.3v-2.191a4.685 4.685 0 0 1-4.219 2.458c-3.071 0-4.835-2.125-4.835-5.8zM116.7 70.489a10.287 10.287 0 0 1-4.646-.99v-2.428a10.433 10.433 0 0 0 4.768 1.309c1.763 0 2.671-.723 2.671-1.764s-.774-1.6-3.312-2.216c-2.965-.722-4.218-1.869-4.218-4.061 0-2.324 1.79-3.739 4.835-3.739a9.484 9.484 0 0 1 4.273.968v2.377a9.436 9.436 0 0 0-4.325-1.214c-1.682 0-2.592.589-2.592 1.63 0 .935.64 1.517 3.1 2.124 2.965.723 4.461 1.821 4.461 4.14.008 2.175-1.434 3.864-5.015 3.864zm9.964-2.601v7.557h-2.3V56.87h2.3v2.4a4.706 4.706 0 0 1 4.513-2.671c3.551 0 5.342 3.017 5.342 6.945 0 3.766-1.87 6.944-5.609 6.944a4.392 4.392 0 0 1-4.246-2.6zm3.9-9.133c-2.058 0-3.9 1.308-3.9 4.274V64.1c0 2.965 1.681 4.273 3.642 4.273 2.592 0 3.927-1.708 3.927-4.807-.012-3.224-1.293-4.823-3.672-4.823zm17.679 9.063a4.7 4.7 0 0 1-4.513 2.671c-3.551 0-5.342-3.017-5.342-6.944 0-3.767 1.87-6.945 5.609-6.945a4.384 4.384 0 0 1 4.25 2.616V56.87h2.3v13.355h-2.3zm-3.9.534c2.058 0 3.9-1.308 3.9-4.273V63.01c0-2.965-1.681-4.273-3.642-4.273-2.592 0-3.927 1.709-3.927 4.808.012 3.205 1.293 4.807 3.669 4.807zm18.669-.534a4.7 4.7 0 0 1-4.513 2.671c-3.527 0-5.287-3.017-5.287-6.944 0-3.767 1.842-6.945 5.554-6.945a4.382 4.382 0 0 1 4.249 2.616V56.87h2.243v12.141c0 3.927-1.842 6.571-6.622 6.571a13.456 13.456 0 0 1-4.756-.713v-2.243a14.76 14.76 0 0 0 4.646.8c3.339 0 4.486-1.791 4.486-4.274zm-3.9.534c2.058 0 3.9-1.308 3.9-4.273V63.01c0-2.965-1.681-4.273-3.642-4.273-2.592 0-3.927 1.709-3.927 4.808.012 3.2 1.293 4.807 3.672 4.807zm16.001 2.137c-5 0-7.184-2.883-7.184-6.981 0-4.034 2.243-6.917 6.3-6.917 4.113 0 5.767 2.859 5.767 6.917v1.041h-9.761c.322 2.27 1.791 3.739 4.941 3.739a11.83 11.83 0 0 0 4.073-.7v2.125a9.865 9.865 0 0 1-4.136.776zm-4.886-7.889h7.448c-.133-2.483-1.256-3.9-3.551-3.9-2.431-.012-3.657 1.564-3.885 3.888z" fill="#253858"/>
	<circle cx="31.324" cy="64.916" r="5.302" fill="url(#a)"/>
	<path d="m20.143 58.782 2.847 3.372a.607.607 0 0 0 .856.07l.006-.006c4.61-4.134 10.319-4.134 14.942 0a.606.606 0 0 0 .856-.057l.006-.007 2.85-3.372a.606.606 0 0 0-.07-.852c-6.692-5.855-15.534-5.855-22.223 0a.606.606 0 0 0-.07.852z" fill="#2684ff"/>
</svg>
