<svg width="609" height="359" fill="none" xmlns="http://www.w3.org/2000/svg">
	<path d="M389.523 97.834c-5.002-10.912-16.96-17.335-29.039-14.778L337.85 46.08c8.358-7.67 10.92-20.203 6.101-30.74C339.619 6.047 330.285 0 320.097 0c-3.843 0-7.504.81-11.042 2.494-11.225 5.238-17.204 17.646-14.642 29.618l-44.901 23.57c-7.504-8.168-20.132-10.85-30.259-6.048-6.406 2.993-11.226 8.355-13.666 15.027-2.379 6.61-2.074 13.78.854 20.203 5.247 11.41 18.302 17.833 30.565 14.404l22.633 42.65c-7.565 7.794-9.7 19.642-5.063 29.743 4.27 9.291 13.665 15.339 23.792 15.339a25.32 25.32 0 0 0 11.043-2.494c10.798-5.051 16.838-16.773 14.824-28.496l41.363-30.055c7.321 8.917 20.437 12.097 31.175 7.109 6.405-2.993 11.286-8.356 13.665-15.09 2.38-6.61 2.013-13.78-.915-20.14ZM238.226 76.57c-.793 2.182-2.318 3.866-4.393 4.864-4.209 1.933-9.395 0-11.286-4.178-.915-2.058-1.037-4.365-.244-6.485.793-2.183 2.318-3.866 4.392-4.864a8.2 8.2 0 0 1 3.6-.81 8.6 8.6 0 0 1 7.748 4.926c.854 2.12.976 4.427.183 6.547Zm101.515 36.29-41.545 30.179c-1.587-1.87-3.478-3.491-5.552-4.863l26.477-85.176a26.283 26.283 0 0 0 6.223-.561l22.633 36.913a26.872 26.872 0 0 0-8.236 23.508Zm-83.823-44.708 44.962-23.57c1.525 1.621 3.172 3.056 5.064 4.24L279.467 134c-2.563-.125-5.186.187-7.748.873l-22.634-42.65c6.101-6.36 8.724-15.402 6.833-24.069Zm72.171-38.722c-.793 2.12-2.318 3.866-4.392 4.801-4.21 1.933-9.395 0-11.287-4.115-.915-2.058-1.037-4.365-.244-6.485.793-2.182 2.319-3.866 4.393-4.863 4.209-1.996 9.395 0 11.286 4.177.915 2.058.976 4.365.244 6.485ZM270.376 157.57c.794-2.183 2.319-3.866 4.393-4.864 1.159-.561 2.318-.81 3.599-.81a8.6 8.6 0 0 1 7.748 4.926c.915 2.057 1.037 4.364.244 6.484-.793 2.12-2.318 3.866-4.392 4.802-4.271 1.995-9.395 0-11.286-4.178-.977-1.933-1.038-4.24-.306-6.36Zm103.346-45.706c-.793 2.183-2.318 3.866-4.392 4.864-4.21 1.995-9.395 0-11.286-4.178-.916-2.058-1.038-4.302-.245-6.422.794-2.183 2.319-3.866 4.393-4.864 1.159-.561 2.318-.811 3.599-.811a8.6 8.6 0 0 1 7.748 4.926 9.137 9.137 0 0 1 .183 6.485Z" fill="#F94D4C"/>
	<path d="M29.145 334.676c-5.587 0-11.05-.668-16.386-2.006-5.337-1.421-9.59-3.176-12.759-5.266l6.504-14.042c3.002 1.922 6.63 3.511 10.883 4.764 4.253 1.171 8.422 1.756 12.508 1.756 8.256 0 12.383-2.048 12.383-6.144 0-1.922-1.125-3.302-3.377-4.137-2.251-.836-5.712-1.547-10.382-2.132-5.503-.836-10.048-1.797-13.634-2.884-3.586-1.086-6.713-3.009-9.381-5.767-2.585-2.758-3.878-6.687-3.878-11.786 0-4.263 1.21-8.024 3.628-11.284 2.501-3.343 6.087-5.934 10.757-7.773 4.753-1.839 10.34-2.759 16.761-2.759 4.753 0 9.465.544 14.135 1.63 4.753 1.003 8.672 2.424 11.757 4.263l-6.504 13.917c-5.92-3.343-12.383-5.015-19.388-5.015-4.17 0-7.296.585-9.381 1.755-2.085 1.171-3.127 2.675-3.127 4.514 0 2.09 1.125 3.552 3.377 4.388 2.251.836 5.837 1.63 10.757 2.383 5.504.919 10.007 1.922 13.51 3.009 3.502 1.003 6.545 2.883 9.13 5.642 2.585 2.758 3.878 6.603 3.878 11.535 0 4.179-1.25 7.898-3.753 11.158-2.501 3.26-6.17 5.81-11.007 7.648-4.753 1.756-10.424 2.633-17.011 2.633Z" fill="#0F054C"/>
	<path d="M116.359 330.414c-1.918 1.421-4.294 2.507-7.129 3.259-2.752.669-5.671 1.003-8.756 1.003-8.006 0-14.218-2.047-18.638-6.143-4.336-4.096-6.504-10.114-6.504-18.055v-27.709H64.95v-15.045h10.382v-16.425h19.513v16.425h16.761v15.045H94.845v27.459c0 2.841.709 5.056 2.126 6.645 1.501 1.504 3.586 2.256 6.255 2.256 3.085 0 5.712-.835 7.88-2.507l5.253 13.792Z" fill="#0F054C"/>
	<path d="M191.156 300.197c0 .251-.125 2.006-.375 5.266h-50.91c.918 4.179 3.086 7.481 6.505 9.905 3.419 2.424 7.672 3.636 12.758 3.636 3.503 0 6.588-.501 9.256-1.505 2.752-1.086 5.296-2.758 7.631-5.015l10.382 11.284c-6.338 7.272-15.594 10.908-27.769 10.908-7.588 0-14.301-1.462-20.139-4.388-5.837-3.009-10.34-7.146-13.509-12.412-3.168-5.266-4.753-11.243-4.753-17.93 0-6.603 1.543-12.538 4.628-17.803 3.169-5.35 7.464-9.487 12.884-12.413 5.504-3.009 11.633-4.514 18.387-4.514 6.588 0 12.55 1.421 17.887 4.263 5.337 2.842 9.507 6.938 12.509 12.287 3.085 5.266 4.628 11.41 4.628 18.431Zm-34.899-20.186c-4.419 0-8.13 1.254-11.132 3.761-3.002 2.508-4.837 5.935-5.504 10.282h33.147c-.667-4.263-2.501-7.649-5.503-10.156-3.002-2.591-6.671-3.887-11.008-3.887Z" fill="#0F054C"/>
	<path d="M229.458 265.216c10.424 0 18.429 2.508 24.016 7.523 5.587 4.932 8.381 12.413 8.381 22.443v38.491h-18.263v-8.4c-3.669 6.269-10.507 9.403-20.513 9.403-5.171 0-9.674-.877-13.509-2.633-3.753-1.755-6.63-4.179-8.631-7.272-2.002-3.092-3.002-6.603-3.002-10.531 0-6.269 2.335-11.201 7.004-14.795 4.754-3.594 12.05-5.391 21.89-5.391h15.511c0-4.263-1.293-7.523-3.878-9.78-2.585-2.34-6.463-3.511-11.633-3.511-3.586 0-7.13.586-10.632 1.756-3.419 1.086-6.338 2.591-8.756 4.513l-7.005-13.666c3.67-2.591 8.047-4.597 13.134-6.018a59.673 59.673 0 0 1 15.886-2.132Zm-1.501 56.296c3.335 0 6.296-.753 8.881-2.257 2.585-1.588 4.419-3.887 5.504-6.896v-6.896h-13.384c-8.006 0-12.009 2.633-12.009 7.899 0 2.508.959 4.514 2.877 6.018 2.002 1.421 4.712 2.132 8.131 2.132Z" fill="#0F054C"/>
	<path d="M348.794 240.642v93.031h-18.638V325.9c-4.836 5.851-11.841 8.776-21.014 8.776-6.337 0-12.091-1.421-17.261-4.262-5.087-2.842-9.09-6.896-12.008-12.162-2.919-5.266-4.378-11.368-4.378-18.306 0-6.937 1.459-13.039 4.378-18.305 2.918-5.266 6.921-9.32 12.008-12.162 5.17-2.842 10.924-4.263 17.261-4.263 8.589 0 15.302 2.717 20.139 8.15v-32.724h19.513Zm-36.274 77.986c4.92 0 9.006-1.672 12.258-5.015 3.252-3.427 4.878-7.983 4.878-13.667 0-5.683-1.626-10.197-4.878-13.541-3.252-3.427-7.338-5.14-12.258-5.14-5.004 0-9.132 1.713-12.384 5.14-3.252 3.344-4.878 7.858-4.878 13.541 0 5.684 1.626 10.24 4.878 13.667 3.252 3.343 7.38 5.015 12.384 5.015Z" fill="#0F054C"/>
	<path d="m433.649 266.219-30.396 71.592c-3.085 7.773-6.921 13.248-11.507 16.425-4.503 3.176-9.965 4.764-16.386 4.764-3.503 0-6.963-.543-10.382-1.63-3.419-1.087-6.213-2.591-8.381-4.514l7.13-13.917a16.917 16.917 0 0 0 5.128 3.135c2.002.752 3.961 1.128 5.879 1.128 2.669 0 4.837-.668 6.505-2.006 1.667-1.254 3.168-3.385 4.503-6.394l.25-.627-29.145-67.956h20.139l18.887 45.764 19.013-45.764h18.763Z" fill="#0F054C"/>
	<path d="M481.388 265.216c6.254 0 11.925 1.463 17.011 4.389 5.17 2.842 9.215 6.896 12.134 12.161 2.918 5.183 4.377 11.243 4.377 18.18 0 6.938-1.459 13.04-4.377 18.306-2.919 5.182-6.964 9.236-12.134 12.162-5.086 2.841-10.757 4.262-17.011 4.262-9.256 0-16.303-2.925-21.139-8.776v7.773h-18.638v-93.031h19.513v32.724c4.92-5.433 11.675-8.15 20.264-8.15Zm-3.377 53.412c5.003 0 9.089-1.672 12.258-5.015 3.252-3.427 4.878-7.983 4.878-13.667 0-5.683-1.626-10.197-4.878-13.541-3.169-3.427-7.255-5.14-12.258-5.14-5.004 0-9.132 1.713-12.384 5.14-3.169 3.344-4.753 7.858-4.753 13.541 0 5.684 1.584 10.24 4.753 13.667 3.252 3.343 7.38 5.015 12.384 5.015Z" fill="#0F054C"/>
	<path d="M527.973 266.219h19.513v67.454h-19.513v-67.454Zm9.756-9.403c-3.585 0-6.504-1.045-8.755-3.134-2.252-2.09-3.378-4.681-3.378-7.774s1.126-5.684 3.378-7.774c2.251-2.089 5.17-3.134 8.755-3.134 3.586 0 6.505 1.003 8.756 3.009 2.252 2.006 3.378 4.514 3.378 7.523 0 3.26-1.126 5.976-3.378 8.15-2.251 2.089-5.17 3.134-8.756 3.134Z" fill="#0F054C"/>
	<path d="M609 330.414c-1.918 1.421-4.294 2.507-7.13 3.259-2.752.669-5.67 1.003-8.756 1.003-8.005 0-14.218-2.047-18.637-6.143-4.336-4.096-6.505-10.114-6.505-18.055v-27.709H557.59v-15.045h10.382v-16.425h19.514v16.425h16.761v15.045h-16.761v27.459c0 2.841.708 5.056 2.126 6.645 1.501 1.504 3.586 2.256 6.254 2.256 3.086 0 5.712-.835 7.88-2.507L609 330.414Z" fill="#0F054C"/>
</svg>
