<svg xmlns="http://www.w3.org/2000/svg" width="200" height="128">
  <path d="M56.367,73.262l4.2-3.306h6.246c3.67,0,6.135-2.35,6.135-5.847,0-2.5-1.683-5.48-9.7-5.48H59.9l2.027-2.656a5.611,5.611,0,0,0,.511-6.01c-.78-1.577-3.479-5.243-11.68-5.243a14.04,14.04,0,0,0-9.717,3.96c-.309.31-1.113,1.089-2.18,2.117a56.793,56.793,0,0,0-6.7,1.843c2.954-2.828,5.9-5.653,6.539-6.3a17.431,17.431,0,0,1,12.054-4.929c10.054,0,13.59,4.953,14.644,7.083a9.073,9.073,0,0,1,.5,6.943,15.035,15.035,0,0,1,6.645,1.975,7.57,7.57,0,0,1,3.7,6.694c0,5.389-3.882,9.153-9.441,9.153Z" fill="#1b75bb"/>
  <path d="M33.912,55.55c1.766-1.691,3.578-3.429,4.953-4.753a23.661,23.661,0,0,1,4.539-.526,16.528,16.528,0,0,1,7.63,1.463c2.139,1.122,4.69,3.534,4.69,8.66,0,8.931-9.666,11.064-13.787,11.166v0H20L34.446,60.24H39.8L29.576,68.258H41.627c.108,0,10.791-.214,10.791-7.864,0-4.842-2.612-6.817-9.014-6.817A34.374,34.374,0,0,0,33.912,55.55Z" fill="#26aae0"/>
  <path d="M25.861,58.675l1.373-.621c.055-.025,3.03-1.315,6.678-2.5,1.766-1.691,3.578-3.429,4.953-4.753a56.793,56.793,0,0,0-6.7,1.843C29.53,55.169,26.888,57.694,25.861,58.675Z" fill="#2294d1"/>
  <path d="M56.367,73.262l-5.556,4.377h16.52L45.521,94.586H40.133L57.688,80.945H41.27l9.754-7.683Z" fill="#faaf40"/>
  <polygon points="56.367 73.262 60.565 69.956 55.222 69.956 51.024 73.262 56.367 73.262" fill="#8b927d"/>
  <path d="M97.621,67.2a4.354,4.354,0,0,0-.641-.478,7.858,7.858,0,0,0-1.133-.591,9.8,9.8,0,0,0-1.446-.49,6.326,6.326,0,0,0-1.585-.2,3.553,3.553,0,0,0-2.138.529,1.746,1.746,0,0,0-.7,1.484,1.525,1.525,0,0,0,.264.918,2.273,2.273,0,0,0,.767.642,6.425,6.425,0,0,0,1.27.5q.768.226,1.774.478,1.308.353,2.377.754a6.431,6.431,0,0,1,1.811,1.007A4.15,4.15,0,0,1,99.382,73.2a4.806,4.806,0,0,1,.4,2.076,5.178,5.178,0,0,1-.541,2.453A4.6,4.6,0,0,1,97.8,79.38a6.192,6.192,0,0,1-2.114.919,10.809,10.809,0,0,1-2.515.289,13.429,13.429,0,0,1-3.975-.6,12.224,12.224,0,0,1-3.522-1.711l1.534-2.993a4.851,4.851,0,0,0,.818.591,12.451,12.451,0,0,0,1.4.73,10.918,10.918,0,0,0,1.786.616,8.058,8.058,0,0,0,2.013.251q2.868,0,2.867-1.836a1.547,1.547,0,0,0-.326-1.006,2.782,2.782,0,0,0-.931-.7,8.986,8.986,0,0,0-1.459-.553q-.855-.252-1.912-.528a16.2,16.2,0,0,1-2.226-.768,6.027,6.027,0,0,1-1.573-.968,3.531,3.531,0,0,1-.943-1.308,4.626,4.626,0,0,1-.315-1.787,5.562,5.562,0,0,1,.5-2.415,4.889,4.889,0,0,1,1.4-1.761,6.348,6.348,0,0,1,2.075-1.069,8.58,8.58,0,0,1,2.541-.365,9.857,9.857,0,0,1,3.471.592,12.922,12.922,0,0,1,2.768,1.4Zm18.063-1.635H110V80.387h-3.471V65.569h-5.711V62.525h14.868Zm9.081,14.944a7.7,7.7,0,0,1-3.446-.768,8.547,8.547,0,0,1-2.679-2.038,9.127,9.127,0,0,1-1.724-2.9,9.6,9.6,0,0,1-.6-3.346,9.412,9.412,0,0,1,2.428-6.314,8.623,8.623,0,0,1,2.7-2,7.8,7.8,0,0,1,3.4-.743,7.5,7.5,0,0,1,3.446.793,8.676,8.676,0,0,1,2.667,2.075,9.689,9.689,0,0,1,2.314,6.239,9.2,9.2,0,0,1-.641,3.409,9.307,9.307,0,0,1-1.774,2.868,8.56,8.56,0,0,1-2.692,1.987A7.8,7.8,0,0,1,124.765,80.513Zm-4.956-9.057a7.409,7.409,0,0,0,.34,2.239,6.06,6.06,0,0,0,.981,1.912A4.93,4.93,0,0,0,122.7,76.94a4.367,4.367,0,0,0,2.113.5,4.276,4.276,0,0,0,2.126-.515,4.863,4.863,0,0,0,1.548-1.371,6.363,6.363,0,0,0,.955-1.925,7.4,7.4,0,0,0,.327-2.176,7.182,7.182,0,0,0-.352-2.239,6.279,6.279,0,0,0-.994-1.912,4.821,4.821,0,0,0-1.559-1.321,4.338,4.338,0,0,0-2.076-.49,4.272,4.272,0,0,0-2.125.515,5.044,5.044,0,0,0-1.56,1.359,6.039,6.039,0,0,0-.969,1.912A7.4,7.4,0,0,0,119.809,71.456Zm16.151,8.931V62.525h7.9a5.081,5.081,0,0,1,2.277.516,5.9,5.9,0,0,1,1.8,1.359,6.4,6.4,0,0,1,1.182,1.911,5.755,5.755,0,0,1,.428,2.151,5.938,5.938,0,0,1-.868,3.158,4.986,4.986,0,0,1-2.352,2.05l4.2,6.717H146.6L142.853,74.4h-3.421v5.988Zm3.472-9.032h4.352a1.837,1.837,0,0,0,.893-.226,2.268,2.268,0,0,0,.717-.617,3.082,3.082,0,0,0,.478-.918,3.565,3.565,0,0,0,.176-1.132,3.228,3.228,0,0,0-.2-1.157,3.047,3.047,0,0,0-.541-.918,2.465,2.465,0,0,0-.78-.6,2.034,2.034,0,0,0-.893-.214h-4.2Zm28.049,9.032V68.563l-4.6,8.8h-1.887l-4.6-8.8V80.387h-3.472V62.525h3.724l5.283,10.164,5.333-10.164h3.7V80.387Zm8.624-17.222h-1.092v2.846h-.667V63.165h-1.1v-.584h2.856Zm3.228,2.846V63.74l-.884,1.692h-.362L177.2,63.74v2.271h-.667v-3.43h.715l1.015,1.952,1.025-1.952H180v3.43ZM86.542,59.105l4.7-11.115h.9l4.7,11.115H95.649L94.2,55.63H89.151l-1.439,3.475ZM91.7,49.274l-2.309,5.495h4.554Zm6.767,9.831V47.99h4.648a2.932,2.932,0,0,1,1.336.306,3.514,3.514,0,0,1,1.052.8,3.674,3.674,0,0,1,.687,1.119,3.448,3.448,0,0,1,.246,1.268,3.856,3.856,0,0,1-.23,1.323,3.441,3.441,0,0,1-.656,1.119,3.333,3.333,0,0,1-1.02.783,2.892,2.892,0,0,1-1.32.3H99.555v4.1Zm1.091-5.072h3.589a1.894,1.894,0,0,0,.893-.211,2.172,2.172,0,0,0,.688-.564,2.675,2.675,0,0,0,.443-.814,2.96,2.96,0,0,0,.158-.963,2.69,2.69,0,0,0-.672-1.784,2.225,2.225,0,0,0-.728-.54,2.041,2.041,0,0,0-.877-.2H99.555Zm6.8,5.072,4.7-11.115h.9l4.7,11.115H115.46l-1.455-3.475h-5.043l-1.438,3.475Zm5.155-9.831L109.2,54.769h4.553Zm6.039,4.2a5.9,5.9,0,0,1,.356-2,5.526,5.526,0,0,1,1.035-1.776,5.308,5.308,0,0,1,1.676-1.276,5.026,5.026,0,0,1,2.261-.493,4.678,4.678,0,0,1,2.562.673,4.236,4.236,0,0,1,1.581,1.753l-.886.532a3.367,3.367,0,0,0-.648-.923,3.5,3.5,0,0,0-.822-.611,3.555,3.555,0,0,0-.917-.336,4.426,4.426,0,0,0-.933-.1,3.794,3.794,0,0,0-1.787.407,4.1,4.1,0,0,0-1.3,1.065,4.622,4.622,0,0,0-.8,1.479,5.306,5.306,0,0,0-.269,1.667,4.9,4.9,0,0,0,.324,1.769,5,5,0,0,0,.885,1.495,4.235,4.235,0,0,0,1.329,1.033,3.668,3.668,0,0,0,1.668.384,4.19,4.19,0,0,0,.972-.118,3.763,3.763,0,0,0,.964-.375,4.052,4.052,0,0,0,.862-.642,3.333,3.333,0,0,0,.664-.931l.917.469a3.383,3.383,0,0,1-.759,1.1,4.962,4.962,0,0,1-1.091.806,5.477,5.477,0,0,1-1.273.5,5.3,5.3,0,0,1-1.32.172,4.522,4.522,0,0,1-2.118-.5,5.545,5.545,0,0,1-1.661-1.307,6.055,6.055,0,0,1-1.083-1.832A5.872,5.872,0,0,1,117.547,53.469Zm20.476-5.479V59.105h-1.107v-5.2h-6.657v5.2h-1.091V47.99h1.091v4.947h6.657V47.99Zm10.371,10.145v.97h-7.541V47.99h7.4v.971h-6.308v4.007h5.5v.924h-5.5v4.243Z" fill="#3a3a39"/>
</svg>
