<svg xmlns="http://www.w3.org/2000/svg" viewBox="-15.52 -15.52 807.04 248.04">
	<path fill="#abaeb1" d="m116.676 77.128-.06-5.653H6.384a107.716 107.716 0 0 0-3.092 9.966A108.03 108.03 0 0 0 .434 97.475c-.008.08-.01.16-.018.24h84.168l.193 18.19c0 45.206-5.174 74.027-13.76 94.616 5.71 2.097 11.653 3.697 17.766 4.817 3.39-5.027 6.514-10.5 9.367-16.645 12.64-27.22 18.526-65.847 18.526-121.565"/>
	<path fill="#abaeb1" d="M68.894 113.574H0c1.773 39.1 24.216 72.815 56.673 90.457 7.82-18.718 12.246-45.13 12.246-88.04l-.025-2.417"/>
	<path fill="#abaeb1" d="M216.459 97.475a108.197 108.197 0 0 0-2.859-16.033 107.825 107.825 0 0 0-7.288-19.938 108.7 108.7 0 0 0-5.012-9.228 108.919 108.919 0 0 0-12.487-16.702 109.072 109.072 0 0 0-15.407-14 108.286 108.286 0 0 0-27.63-14.983 107.587 107.587 0 0 0-10.195-3.17A108.756 108.756 0 0 0 108.446.004c-9.369 0-18.461 1.187-27.134 3.419A107.675 107.675 0 0 0 71.115 6.59a108.313 108.313 0 0 0-27.63 14.982 109.124 109.124 0 0 0-27.893 30.703c-.666 1.096-1.292 2.218-1.92 3.339h118.635l.227 21.429c0 58.19-6.355 98.942-20 128.33a137.797 137.797 0 0 1-6.157 11.72c.69.014 1.375.055 2.069.055 59.963 0 108.573-48.61 108.573-108.574 0-3.747-.191-7.45-.56-11.1"/>
	<path fill="#333945" d="M275.754 88.215c4.015 4.278 10.299 8.03 18.416 8.03 8.38 0 11.697-4.101 11.697-7.942 0-5.238-6.197-6.807-13.268-8.64-9.514-2.358-20.686-5.151-20.686-17.457 0-9.602 8.467-17.02 21.21-17.02 9.077 0 16.41 2.88 21.821 8.117l-5.85 7.592c-4.536-4.537-10.733-6.63-16.844-6.63-6.021 0-9.862 2.878-9.862 7.242 0 4.54 5.935 6.022 12.83 7.768 9.601 2.445 21.035 5.412 21.035 18.068 0 9.688-6.807 17.98-22.519 17.98-10.736 0-18.504-3.752-23.653-9.252l5.673-7.856m69.923-33.167h-17.63V46.06h45.473v8.99h-17.632v49.227h-10.211V55.048m67.651 0h-13.965v18.505h13.965c5.762 0 9.952-3.666 9.952-9.253 0-5.586-4.19-9.252-9.952-9.252zm-3.84 27.494h-10.125v21.734h-10.211V46.059h25.574c11.52 0 19.027 7.505 19.027 18.241 0 10.387-6.808 15.972-13.792 17.11l14.228 22.866h-11.782l-12.919-21.734m53.69 1.571h21.82L474.088 54.7zm24.7 8.99h-27.582l-4.277 11.173h-11.17l22.867-58.217h12.744l22.867 58.217h-11.171l-4.278-11.172m37.018-38.056h-17.631V46.06h45.473v8.99h-17.631v49.227h-10.21V55.048m43.473-8.989h39.888v8.99h-29.676v15.099h29.065v8.99h-29.065v16.148h29.676v8.99H568.37V46.059m85.284-.96c11.348 0 18.767 5.412 23.48 12.132l-8.379 4.713c-3.056-4.365-8.554-7.769-15.1-7.769-11.523 0-20.076 8.816-20.076 21.037 0 12.217 8.553 21.122 20.075 21.122 5.935 0 11.173-2.794 13.792-5.237V82.02h-17.37v-8.99h27.582v21.819c-5.76 6.372-13.879 10.56-24.004 10.56-16.845 0-30.548-11.956-30.548-30.197 0-18.244 13.703-30.113 30.548-30.113m43.15.96h10.213v58.217h-10.213V46.059m25.47 29.153c0-17.894 13.353-30.113 30.113-30.113 12.22 0 19.462 6.11 23.827 13.092l-8.728 4.452c-2.793-4.801-8.378-8.468-15.1-8.468-11.086 0-19.639 8.816-19.639 21.037 0 12.217 8.553 21.033 19.64 21.033 6.72 0 12.306-3.578 15.1-8.465l8.727 4.45c-4.45 6.983-11.608 13.094-23.827 13.094-16.76 0-30.113-12.22-30.113-30.112M270.08 125.654h31.105v7.01h-23.141v11.775h22.663v7.01h-22.663v12.593h23.14v7.01h-31.104v-45.398m62.893 38.388c9.87 0 15.585-7.079 15.585-15.656 0-8.778-5.444-15.722-15.585-15.722h-8.915v31.378zm-16.88-38.388h16.88c14.157 0 23.754 9.392 23.754 22.732 0 13.341-9.597 22.666-23.754 22.666h-16.88v-45.398m52.487 0h8.03v27.225c0 7.213 4.017 11.91 11.64 11.91 7.555 0 11.57-4.697 11.57-11.91v-27.225h8.031v27.428c0 11.3-6.466 18.786-19.602 18.786-13.203 0-19.669-7.556-19.669-18.717v-27.497m51.487 22.732c0-13.951 10.413-23.48 23.48-23.48 9.53 0 15.18 4.763 18.582 10.208l-6.805 3.472c-2.179-3.744-6.534-6.602-11.776-6.602-8.643 0-15.313 6.874-15.313 16.402 0 9.53 6.67 16.402 15.313 16.402 5.242 0 9.597-2.79 11.776-6.6l6.805 3.47c-3.47 5.447-9.052 10.21-18.581 10.21-13.068 0-23.48-9.529-23.48-23.482m63.96 6.944h17.017l-8.509-22.936zm19.264 7.009h-21.51l-3.334 8.713h-8.711l17.832-45.398h9.936l17.833 45.398h-8.713l-3.333-8.713m28.864-29.675h-13.749v-7.01h35.46v7.01H540.12v38.388h-7.963v-38.388m33.902-7.01h7.963v45.398h-7.963v-45.398m44.243 6.33c-9.188 0-15.042 7.01-15.042 16.402 0 9.326 5.854 16.402 15.042 16.402 9.12 0 15.042-7.076 15.042-16.402 0-9.392-5.922-16.402-15.042-16.402zm0-7.078c13.612 0 23.209 9.936 23.209 23.48 0 13.546-9.597 23.482-23.209 23.482-13.613 0-23.21-9.936-23.21-23.482 0-13.544 9.597-23.48 23.21-23.48m44.318 13.068v33.078h-7.964v-45.398h8.168l23.208 32.193v-32.193h7.964v45.398h-7.692l-23.684-33.078m56.857 8.043h4.38v24.972h-4.38v-24.972m17.074 6.775v18.197h-4.38v-24.972h4.492l12.768 17.708v-17.708h4.38v24.972h-4.23l-13.03-18.197m24.453 5.73c0-7.676 5.728-12.917 12.916-12.917 5.242 0 8.35 2.62 10.22 5.614l-3.742 1.91c-1.199-2.057-3.595-3.63-6.478-3.63-4.755 0-8.423 3.78-8.423 9.023 0 5.24 3.668 9.022 8.423 9.022 2.883 0 5.28-1.536 6.478-3.632l3.743 1.91c-1.91 2.996-4.979 5.617-10.221 5.617-7.188 0-12.916-5.243-12.916-12.917"/>
	<path fill="#abaeb1" d="M183.991 210.979a3.417 3.417 0 0 0 2.546 1.152c1.442 0 1.902-.776 1.902-1.394 0-.97-.981-1.237-2.048-1.527-1.297-.34-2.74-.704-2.74-2.29 0-1.334 1.188-2.244 2.776-2.244 1.236 0 2.195.412 2.874 1.128l-.607.74c-.605-.668-1.453-.971-2.339-.971-.97 0-1.661.521-1.661 1.285 0 .812.933 1.054 1.964 1.333 1.321.352 2.824.764 2.824 2.461 0 1.176-.8 2.375-2.983 2.375-1.405 0-2.436-.532-3.102-1.284l.594-.764m15.12-4.824-2.752 6.728h-.412l-2.738-6.728v6.728h-1.007v-8.086h1.442l2.51 6.157 2.521-6.157h1.443v8.086h-1.007v-6.728"/>
</svg>
