<svg xmlns="http://www.w3.org/2000/svg" height="217.147" width="776.227" xml:space="preserve">
	<path style="fill:#abaeb1;fill-opacity:1;fill-rule:nonzero;stroke:none" d="m875.094 1050.17-.449 42.4H47.879c-8.871-24.39-16.648-49.33-23.191-74.75a811.476 811.476 0 0 1-21.43-120.254c-.067-.597-.078-1.207-.137-1.8h631.274l1.445-136.438c.004-339.047-38.805-555.207-103.195-709.629 42.816-15.73 87.394-27.73 133.246-36.129 25.425 37.7 48.855 78.75 70.254 124.84 94.796 204.149 138.949 493.867 138.949 911.76" transform="matrix(.13333 0 0 -.13333 0 217.147)"/>
	<path style="fill:#abaeb1;fill-opacity:1;fill-rule:nonzero;stroke:none" d="M516.715 776.82H0C13.297 483.559 181.621 230.691 425.055 98.371c58.652 140.391 91.847 338.488 91.847 660.324l-.187 18.125" transform="matrix(.13333 0 0 -.13333 0 217.147)"/>
	<path style="fill:#abaeb1;fill-opacity:1;fill-rule:nonzero;stroke:none" d="M1623.48 897.566a825.5 825.5 0 0 1-5.18 40.75 811.501 811.501 0 0 1-16.26 79.504 808.701 808.701 0 0 1-54.66 149.53 815.272 815.272 0 0 1-37.59 69.21 816.91 816.91 0 0 1-93.66 125.27 818.07 818.07 0 0 1-115.55 105.01c-62.7 46.9-132.39 84.97-207.23 112.37a806.931 806.931 0 0 1-76.47 23.77c-65.056 16.74-133.243 25.64-203.517 25.64-70.265 0-138.461-8.9-203.508-25.64a807.59 807.59 0 0 1-76.476-23.77c-74.832-27.4-144.527-65.47-207.231-112.37a818.456 818.456 0 0 1-115.55-105.01 817.087 817.087 0 0 1-93.657-125.27c-4.992-8.22-9.691-16.63-14.398-25.04h889.781l1.703-160.72c.004-436.441-47.664-742.081-150.007-962.5C829.477 56.98 814 27.942 797.844.39c5.183-.1 10.316-.402 15.519-.402 449.737 0 814.317 364.582 814.317 814.321 0 28.105-1.43 55.882-4.2 83.257" transform="matrix(.13333 0 0 -.13333 0 217.147)"/>
	<path style="fill:#333945;fill-opacity:1;fill-rule:nonzero;stroke:none" d="M2068.21 967.016c30.11-32.086 77.24-60.231 138.12-60.231 62.85 0 87.73 30.762 87.73 59.57 0 39.285-46.48 51.055-99.51 64.805-71.36 17.68-155.15 38.63-155.15 130.93 0 72.01 63.5 127.65 159.08 127.65 68.08 0 123.07-21.6 163.66-60.88l-43.87-56.94c-34.03 34.03-80.51 49.73-126.34 49.73-45.16 0-73.97-21.59-73.97-54.32 0-34.05 44.52-45.17 96.23-58.26 72.01-18.34 157.77-40.59 157.77-135.519 0-72.66-51.06-134.856-168.9-134.856-80.52 0-138.78 28.145-177.4 69.399l42.55 58.922" transform="matrix(.13333 0 0 -.13333 0 217.147)"/>
	<path style="fill:#333945;fill-opacity:1;fill-rule:nonzero;stroke:none" d="M2592.64 1215.77h-132.23v67.42h341.06v-67.42h-132.24V846.555h-76.59v369.215" transform="matrix(.13333 0 0 -.13333 0 217.147)"/>
	<path style="fill:#333945;fill-opacity:1;fill-rule:nonzero;stroke:none" d="M3100.04 1215.77H2995.3v-138.79h104.74c43.21 0 74.64 27.5 74.64 69.4 0 41.9-31.43 69.39-74.64 69.39zm-28.8-206.21h-75.94V846.555h-76.59v436.635h191.81c86.41 0 142.71-56.29 142.71-136.81 0-77.9-51.06-119.79-103.44-128.32l106.71-171.505h-88.37l-96.89 163.005" transform="matrix(.13333 0 0 -.13333 0 217.147)"/>
	<path style="fill:#333945;fill-opacity:1;fill-rule:nonzero;stroke:none" d="M3473.92 997.777h163.66l-81.84 220.613zm185.26-67.429h-206.87l-32.08-83.793h-83.78l171.51 436.635h95.58l171.51-436.635h-83.79l-32.08 83.793" transform="matrix(.13333 0 0 -.13333 0 217.147)"/>
	<path style="fill:#333945;fill-opacity:1;fill-rule:nonzero;stroke:none" d="M3936.82 1215.77h-132.24v67.42h341.06v-67.42H4013.4V846.555h-76.58v369.215" transform="matrix(.13333 0 0 -.13333 0 217.147)"/>
	<path style="fill:#333945;fill-opacity:1;fill-rule:nonzero;stroke:none" d="M4262.88 1283.19h299.17v-67.42h-222.58v-113.25h218v-67.43h-218V913.98h222.58v-67.425h-299.17v436.635" transform="matrix(.13333 0 0 -.13333 0 217.147)"/>
	<path style="fill:#333945;fill-opacity:1;fill-rule:nonzero;stroke:none" d="M4902.53 1290.39c85.11 0 140.75-40.59 176.1-90.99l-62.84-35.35c-22.92 32.74-64.16 58.27-113.26 58.27-86.42 0-150.57-66.12-150.57-157.78 0-91.634 64.15-158.419 150.57-158.419 44.51 0 83.8 20.953 103.44 39.281v68.078h-130.28v67.43h206.87V917.258c-43.2-47.789-104.09-79.207-180.03-79.207-126.34 0-229.12 89.679-229.12 226.489 0 136.83 102.78 225.85 229.12 225.85" transform="matrix(.13333 0 0 -.13333 0 217.147)"/>
	<path style="fill:#333945;fill-opacity:1;fill-rule:nonzero;stroke:none" d="M5226.16 1283.19h76.6V846.555h-76.6v436.635" transform="matrix(.13333 0 0 -.13333 0 217.147)"/>
	<path style="fill:#333945;fill-opacity:1;fill-rule:nonzero;stroke:none" d="M5417.19 1064.54c0 134.21 100.15 225.85 225.85 225.85 91.65 0 145.97-45.82 178.71-98.19l-65.46-33.39c-20.95 36.01-62.84 63.51-113.25 63.51-83.15 0-147.3-66.12-147.3-157.78 0-91.634 64.15-157.755 147.3-157.755 50.41 0 92.3 26.84 113.25 63.492l65.46-33.379c-33.38-52.371-87.06-98.203-178.71-98.203-125.7 0-225.85 91.653-225.85 225.845" transform="matrix(.13333 0 0 -.13333 0 217.147)"/>
	<path style="fill:#333945;fill-opacity:1;fill-rule:nonzero;stroke:none" d="M2025.66 686.215h233.29v-52.578h-173.56V545.32h169.98v-52.57h-169.98v-94.449h173.56v-52.582h-233.29v340.496" transform="matrix(.13333 0 0 -.13333 0 217.147)"/>
	<path style="fill:#333945;fill-opacity:1;fill-rule:nonzero;stroke:none" d="M2497.37 398.301c74.02 0 116.89 53.09 116.89 117.418 0 65.84-40.83 117.918-116.89 117.918h-66.87V398.301Zm-126.6 287.914h126.6c106.18 0 178.16-70.445 178.16-170.496 0-100.059-71.98-170-178.16-170h-126.6v340.496" transform="matrix(.13333 0 0 -.13333 0 217.147)"/>
	<path style="fill:#333945;fill-opacity:1;fill-rule:nonzero;stroke:none" d="M2764.43 686.215h60.23V482.02c0-54.098 30.12-89.321 87.29-89.321 56.67 0 86.78 35.223 86.78 89.321v204.195h60.24V480.5c0-84.75-48.5-140.898-147.02-140.898-99.03 0-147.52 56.668-147.52 140.378v206.235" transform="matrix(.13333 0 0 -.13333 0 217.147)"/>
	<path style="fill:#333945;fill-opacity:1;fill-rule:nonzero;stroke:none" d="M3150.59 515.719c0 104.64 78.1 176.109 176.11 176.109 71.47 0 113.84-35.73 139.36-76.566l-51.04-26.043c-16.34 28.082-49 49.523-88.32 49.523-64.82 0-114.85-51.562-114.85-123.023 0-71.469 50.03-123.02 114.85-123.02 39.32 0 71.98 20.93 88.32 49.5l51.04-26.027c-26.03-40.844-67.89-76.57-139.36-76.57-98.01 0-176.11 71.468-176.11 176.117" transform="matrix(.13333 0 0 -.13333 0 217.147)"/>
	<path style="fill:#333945;fill-opacity:1;fill-rule:nonzero;stroke:none" d="M3630.31 463.641h127.63l-63.82 172.023zm144.48-52.571h-161.32l-25.01-65.351h-65.34l133.75 340.496h74.52l133.75-340.496h-65.35l-25 65.351" transform="matrix(.13333 0 0 -.13333 0 217.147)"/>
	<path style="fill:#333945;fill-opacity:1;fill-rule:nonzero;stroke:none" d="M3991.28 633.637h-103.12v52.578h265.96v-52.578H4051V345.719h-59.72v287.918" transform="matrix(.13333 0 0 -.13333 0 217.147)"/>
	<path style="fill:#333945;fill-opacity:1;fill-rule:nonzero;stroke:none" d="M4245.55 686.215h59.72V345.719h-59.72v340.496" transform="matrix(.13333 0 0 -.13333 0 217.147)"/>
	<path style="fill:#333945;fill-opacity:1;fill-rule:nonzero;stroke:none" d="M4577.38 638.742c-68.91 0-112.82-52.582-112.82-123.023 0-69.949 43.91-123.02 112.82-123.02 68.4 0 112.82 53.071 112.82 123.02 0 70.441-44.42 123.023-112.82 123.023zm0 53.086c102.09 0 174.07-74.527 174.07-176.109 0-101.598-71.98-176.117-174.07-176.117-102.1 0-174.08 74.519-174.08 176.117 0 101.582 71.98 176.109 174.08 176.109" transform="matrix(.13333 0 0 -.13333 0 217.147)"/>
	<path style="fill:#333945;fill-opacity:1;fill-rule:nonzero;stroke:none" d="M4909.77 593.809v-248.09h-59.73v340.496h61.26l174.07-241.453v241.453h59.73V345.719h-57.69l-177.64 248.09" transform="matrix(.13333 0 0 -.13333 0 217.147)"/>
	<path style="fill:#333945;fill-opacity:1;fill-rule:nonzero;stroke:none" d="M5336.21 533.488h32.85V346.191h-32.85v187.297" transform="matrix(.13333 0 0 -.13333 0 217.147)"/>
	<path style="fill:#333945;fill-opacity:1;fill-rule:nonzero;stroke:none" d="M5464.27 482.672V346.191h-32.85v187.297h33.69l95.76-132.816v132.816h32.85V346.191h-31.73l-97.72 136.481" transform="matrix(.13333 0 0 -.13333 0 217.147)"/>
	<path style="fill:#333945;fill-opacity:1;fill-rule:nonzero;stroke:none" d="M5647.67 439.699c0 57.571 42.96 96.879 96.87 96.879 39.32 0 62.63-19.648 76.66-42.109l-28.07-14.328c-8.99 15.437-26.96 27.238-48.59 27.238-35.66 0-63.17-28.359-63.17-67.68 0-39.308 27.51-67.668 63.17-67.668 21.63 0 39.6 11.52 48.59 27.239l28.07-14.321c-14.32-22.469-37.34-42.129-76.66-42.129-53.91 0-96.87 39.321-96.87 96.879" transform="matrix(.13333 0 0 -.13333 0 217.147)"/>
	<path style="fill:#abaeb1;fill-opacity:1;fill-rule:nonzero;stroke:none" d="M1379.97 46.262c4-4.453 10.54-8.64 19.09-8.64 10.82 0 14.27 5.82 14.27 10.456 0 7.274-7.36 9.274-15.36 11.453-9.73 2.547-20.55 5.278-20.55 17.18 0 10 8.91 16.82 20.82 16.82 9.27 0 16.46-3.09 21.55-8.453l-4.55-5.547c-4.54 5-10.9 7.278-17.54 7.278-7.28 0-12.46-3.91-12.46-9.637 0-6.094 7-7.91 14.73-10 9.91-2.64 21.18-5.73 21.18-18.461 0-8.82-6-17.813-22.37-17.813-10.54 0-18.27 3.993-23.27 9.633l4.46 5.73" transform="matrix(.13333 0 0 -.13333 0 217.147)"/>
	<path style="fill:#abaeb1;fill-opacity:1;fill-rule:nonzero;stroke:none" d="m1493.37 82.441-20.64-50.46h-3.09l-20.54 50.46v-50.46h-7.55v60.648h10.82l18.82-46.18 18.91 46.18h10.82V31.98h-7.55v50.461" transform="matrix(.13333 0 0 -.13333 0 217.147)"/>
</svg>
