<svg xmlns="http://www.w3.org/2000/svg" height="699.999" width="800" xml:space="preserve">
	<defs>
		<clipPath id="a" clipPathUnits="userSpaceOnUse">
			<path d="M303.856 398.29c-5.979-7.665-76.496-24.775-132.823-50.154v-72.025L300 201.652l128.967 74.459v14.961c-21.435 4.168-48.369 8.136-81.695 11.016-113.441 9.803-8.402 32.212 39.215 72.386 47.618 40.175-158.259 52.26-158.259 52.26s84.031-17.671 75.628-28.444"/>
		</clipPath>
		<clipPath id="c" clipPathUnits="userSpaceOnUse">
			<path d="M0 524.999h600V0H0Z"/>
		</clipPath>
		<linearGradient id="b" spreadMethod="pad" gradientTransform="scale(445.57887 -445.57887) rotate(64.94 1.077 -.149)" gradientUnits="userSpaceOnUse" y2="0" x2="1" y1="0" x1="0">
			<stop offset="0" style="stop-opacity:1;stop-color:#fff"/>
			<stop offset="1" style="stop-opacity:1;stop-color:#54bad8"/>
		</linearGradient>
	</defs>
	<path style="fill:#192c47;fill-opacity:1;fill-rule:nonzero;stroke:none" d="m0 0-145.202-83.832v-167.666L0-335.33l145.203 83.832v167.666z" transform="matrix(1.33333 0 0 -1.33333 400 9.018)"/>
	<g clip-path="url(#a)" transform="matrix(1.33333 0 0 -1.33333 0 699.999)">
		<path style="fill:url(#b);stroke:none" d="M303.856 398.29c-5.979-7.665-76.496-24.775-132.823-50.154v-72.025L300 201.652l128.967 74.459v14.961c-21.435 4.168-48.369 8.136-81.695 11.016-113.441 9.803-8.402 32.212 39.215 72.386 47.618 40.175-158.259 52.26-158.259 52.26s84.031-17.671 75.628-28.444"/>
	</g>
	<g clip-path="url(#c)" transform="matrix(1.33333 0 0 -1.33333 0 699.999)">
		<path style="fill:#192c47;fill-opacity:1;fill-rule:nonzero;stroke:none" d="M0 0c-1.599 1.878-3.663 3.404-6.2 4.579-2.536 1.174-5.495 1.762-8.877 1.762-2.631 0-5.002-.564-7.116-1.691-2.113-1.127-3.17-2.867-3.17-5.214 0-1.88.887-3.335 2.666-4.368 1.779-1.035 4.4-2.113 7.863-3.24 4.304-1.409 8.141-3.008 11.509-4.791 3.369-1.786 6.225-3.853 8.565-6.2 2.338-2.349 4.142-5.027 5.405-8.032 1.264-3.007 1.896-6.389 1.896-10.145 0-6.389-1.405-11.836-4.209-16.345-2.808-4.509-6.386-8.173-10.736-10.991-4.35-2.818-9.148-4.885-14.39-6.199-5.244-1.315-10.354-1.973-15.332-1.973-3.946 0-7.891.33-11.837.986a73.179 73.179 0 0 0-11.342 2.818 60.382 60.382 0 0 0-10.216 4.51c-3.193 1.783-5.964 3.804-8.314 6.058l22.263 20.573c1.128-1.317 2.488-2.49 4.087-3.523a29.52 29.52 0 0 1 5.002-2.607 36.24 36.24 0 0 1 5.284-1.691c1.783-.422 3.428-.634 4.931-.634 3.288 0 5.918.539 7.892 1.62 1.972 1.079 2.959 2.654 2.959 4.721 0 1.691-.824 3.193-2.466 4.509-1.645 1.314-4.721 2.677-9.23 4.086-3.571 1.128-6.929 2.442-10.075 3.945-3.148 1.502-5.872 3.312-8.172 5.426-2.303 2.113-4.111 4.649-5.425 7.609-1.317 2.958-1.972 6.552-1.972 10.779 0 5.165 1.056 9.955 3.17 14.372 2.113 4.414 5.119 8.243 9.018 11.484 3.897 3.241 8.547 5.777 13.949 7.609 5.401 1.831 11.344 2.747 17.825 2.747 3.569 0 7.092-.306 10.568-.916 3.474-.612 6.764-1.457 9.864-2.536 3.099-1.081 5.964-2.373 8.594-3.875 2.629-1.504 4.838-3.194 6.623-5.073z" transform="translate(74.835 82.594)"/>
		<path style="fill:#192c47;fill-opacity:1;fill-rule:nonzero;stroke:none" d="m0 0-12.681-72.284h-32.691L-32.69 0h-25.222l4.932 27.477h82.289L24.376 0Z" transform="translate(155.15 84.848)"/>
		<path style="fill:#192c47;fill-opacity:1;fill-rule:nonzero;stroke:none" d="M0 0c4.32 0 7.701.727 10.145 2.184 2.441 1.455 3.664 3.78 3.664 6.975 0 2.91-1.011 4.907-3.03 5.988-2.021 1.079-4.769 1.621-8.243 1.621h-6.058L-6.482 0Zm7.186-57.208L-6.482-20.713h-3.945l-6.2-36.495h-31.422l17.613 99.761h41.004c5.447 0 10.378-.612 14.795-1.831 4.414-1.222 8.172-3.008 11.272-5.355 3.1-2.349 5.471-5.238 7.116-8.665 1.642-3.431 2.466-7.352 2.466-11.766 0-8.267-1.951-15.077-5.847-20.431-3.9-5.355-9.23-9.018-15.994-10.991l19.446-40.722z" transform="translate(221.517 69.772)"/>
		<path style="fill:#192c47;fill-opacity:1;fill-rule:nonzero;stroke:none" d="m0 0 17.613 99.761h32.831L32.831 0Z" transform="translate(269.847 12.564)"/>
		<path style="fill:#192c47;fill-opacity:1;fill-rule:nonzero;stroke:none" d="m0 0 11.132 57.771h-.845L-19.163 0h-22.968l-8.877 57.771h-.704L-60.308 0h-30.435l17.613 99.761h41.567l8.736-54.671h.705L3.805 99.761h45.512L31.704 0Z" transform="translate(409.483 12.564)"/>
		<path style="fill:#192c47;fill-opacity:1;fill-rule:nonzero;stroke:none" d="m0 0 4.791 27.336L51.29 72.707H14.372l4.791 27.054h79.33l-4.227-23.672-49.035-48.331h41.708L82.007 0Z" transform="translate(453.866 12.564)"/>
		<path style="fill:#192c47;fill-opacity:1;fill-rule:nonzero;stroke:none" d="m0 0 17.613 99.761h32.831L32.831 0Z" transform="translate(548.556 12.564)"/>
	</g>
</svg>
