<svg xmlns="http://www.w3.org/2000/svg" width="200" height="128">
	<path d="M84.293 80.2a10.856 10.856 0 0 1-3.207-.46 14.3 14.3 0 0 1-2.473-.98v-3.23h.153q.367.291.865.643a8.591 8.591 0 0 0 1.325.735 12.133 12.133 0 0 0 1.615.6 6.433 6.433 0 0 0 1.829.26 7.379 7.379 0 0 0 1.47-.16 3.585 3.585 0 0 0 1.164-.406 2.42 2.42 0 0 0 .773-.751 2.381 2.381 0 0 0 .237-1.194 2.01 2.01 0 0 0-.559-1.546 4.6 4.6 0 0 0-1.982-.873c-.368-.091-.848-.2-1.44-.321s-1.137-.255-1.638-.4a5.226 5.226 0 0 1-2.847-1.754 4.995 4.995 0 0 1 .857-6.636 7.012 7.012 0 0 1 4.639-1.455 12 12 0 0 1 2.863.352 10.036 10.036 0 0 1 2.419.888v3.077H90.2a8.993 8.993 0 0 0-2.457-1.377 7.772 7.772 0 0 0-2.733-.5 4.547 4.547 0 0 0-2.4.6 1.977 1.977 0 0 0-.98 1.807 2.054 2.054 0 0 0 .582 1.6 4.488 4.488 0 0 0 1.868.865q.644.169 1.432.329t1.661.376a5.386 5.386 0 0 1 2.855 1.576 4.422 4.422 0 0 1 .957 3 5.111 5.111 0 0 1-.436 2.09 4.615 4.615 0 0 1-1.279 1.692A6.532 6.532 0 0 1 87.2 79.8a9.008 9.008 0 0 1-2.907.4zm15.2-.077a4.92 4.92 0 0 1-3.675-1.34 5.85 5.85 0 0 1-1.316-4.233v-9.48h-1.941v-2.388h1.945v-4.915h2.878v4.915h5.3v2.388h-5.3v8.13q0 1.3.046 2a3.4 3.4 0 0 0 .352 1.317 1.685 1.685 0 0 0 .842.8 3.843 3.843 0 0 0 1.577.268 4.517 4.517 0 0 0 1.363-.207 8.237 8.237 0 0 0 .949-.344h.168v2.596a13.951 13.951 0 0 1-1.646.36 10.127 10.127 0 0 1-1.535.13zm19.291-.337h-2.879v-1.9a12.491 12.491 0 0 1-2.526 1.768 5.809 5.809 0 0 1-2.663.6 5.986 5.986 0 0 1-2.106-.367 4.412 4.412 0 0 1-1.722-1.164 5.478 5.478 0 0 1-1.141-2.006 9.32 9.32 0 0 1-.406-2.939v-11.1h2.879v9.737a21.2 21.2 0 0 0 .1 2.258 4.42 4.42 0 0 0 .452 1.569 2.2 2.2 0 0 0 .957.965 3.943 3.943 0 0 0 1.737.306 5.036 5.036 0 0 0 2.251-.6 10.231 10.231 0 0 0 2.189-1.47V62.682h2.879zm18.265 0h-2.878v-9.74a19.568 19.568 0 0 0-.115-2.2 4.665 4.665 0 0 0-.436-1.63 2.246 2.246 0 0 0-.98-.957 3.885 3.885 0 0 0-1.715-.313 4.915 4.915 0 0 0-2.212.573 11.463 11.463 0 0 0-2.228 1.493v12.771h-2.878v-17.1h2.878v1.9a11.344 11.344 0 0 1 2.542-1.761 5.97 5.97 0 0 1 2.649-.612 4.926 4.926 0 0 1 3.95 1.661 7.2 7.2 0 0 1 1.423 4.815zm18.143 0h-2.878v-9.74a19.808 19.808 0 0 0-.115-2.2 4.642 4.642 0 0 0-.437-1.63 2.244 2.244 0 0 0-.979-.957 3.888 3.888 0 0 0-1.715-.313 4.912 4.912 0 0 0-2.212.573 11.4 11.4 0 0 0-2.228 1.493v12.771h-2.878v-17.1h2.878v1.9a11.317 11.317 0 0 1 2.541-1.761 5.971 5.971 0 0 1 2.65-.612 4.925 4.925 0 0 1 3.949 1.661 7.2 7.2 0 0 1 1.424 4.815zm12.127.4a8.485 8.485 0 0 1-6.347-2.3 8.962 8.962 0 0 1-2.258-6.545 9.672 9.672 0 0 1 2.189-6.652 7.285 7.285 0 0 1 5.727-2.473 8 8 0 0 1 2.817.459 5.614 5.614 0 0 1 2.144 1.439A6.611 6.611 0 0 1 173 66.5a10.682 10.682 0 0 1 .49 3.468v1.562h-11.848a6.372 6.372 0 0 0 1.5 4.563 5.453 5.453 0 0 0 4.149 1.576 8.1 8.1 0 0 0 1.861-.214 8.775 8.775 0 0 0 1.646-.551 11.814 11.814 0 0 0 1.316-.682A7.927 7.927 0 0 0 173 75.6h.169v3.138l-1.256.5a13.866 13.866 0 0 1-1.347.468q-.843.23-1.524.352a10.076 10.076 0 0 1-1.719.123zm3.368-10.855a8 8 0 0 0-.275-2.006 4.142 4.142 0 0 0-.7-1.423 3.213 3.213 0 0 0-1.293-.98 5.76 5.76 0 0 0-3.905.008 4.62 4.62 0 0 0-1.462 1 4.77 4.77 0 0 0-.98 1.492 6.41 6.41 0 0 0-.429 1.906zM180 79.783h-2.878V55.96H180z" fill="#1b1c19"/>
	<path d="M20 64a21.066 21.066 0 1 1 21.066 21.066A21.066 21.066 0 0 1 20 64z" fill="#1c1d1a"/>
	<path d="M27.237 67.383a13.83 13.83 0 1 1 13.829 13.829 13.829 13.829 0 0 1-13.829-13.829z" fill="#868685"/>
	<path d="M34.137 72.689a6.929 6.929 0 1 1 6.929 6.929 6.929 6.929 0 0 1-6.929-6.929z" fill="#fff"/>
</svg>
