<svg xmlns="http://www.w3.org/2000/svg" id="Layer_1" data-name="Layer 1" version="1.1" width="454.971" height="237.996">
	<defs id="defs956">
		<style id="style954">
			.cls-1{fill:#3a4747}.cls-2{fill:#2bdfc4}
		</style>
	</defs>
	<g id="g1001" transform="translate(-163.82 156.157)">
		<path class="cls-1" d="M174.967 64.33c-.898 4.04.673 8.68 8.605 8.68 5.238 0 7.034-2.096 7.034-4.865 0-4.19-4.19-5.237-9.13-7.033-7.407-2.545-16.536-6.136-16.536-16.687 0-9.429 7.258-15.19 19.605-14.891 15.116.298 19.38 9.204 17.735 16.911l-11.45 1.048c.75-5.837-1.346-9.13-7.258-9.13-3.965 0-6.21 1.498-6.21 4.64 0 4.19 4.04 5.462 8.979 7.184 7.633 2.543 16.687 5.612 16.687 16.087 0 9.054-6.735 15.566-19.904 15.566-12.348 0-20.803-5.688-19.082-16.462z" id="path958"/>
		<path class="cls-1" d="M209.465 30.432h12.496v32.4c0 6.436 2.694 9.13 7.857 9.13 5.089 0 8.157-2.619 8.157-9.354V30.432h12.122v31.952c0 11.598-7.558 19.456-20.653 19.456-12.272 0-19.98-7.184-19.98-18.333z" id="path960"/>
		<path class="cls-1" d="M258.779 30.432h21.626c8.904 0 15.638 2.993 15.638 12.196 0 6.96-3.815 9.654-10.326 11.077v.298c7.408.898 11.898 4.789 11.898 12.346 0 9.878-7.109 14.592-16.612 14.592h-22.224Zm17.958 19.38c3.294 0 6.586-.897 6.586-5.237 0-4.416-2.918-5.09-5.837-5.09H271.2v10.327zm1.198 22.074c3.817 0 7.109-1.87 7.109-6.884 0-4.34-3.292-6.136-7.11-6.136H271.2v13.02z" id="path962"/>
		<path class="cls-1" d="M304.276 30.432h15.489l8.232 22.523c1.271 3.592 2.169 7.258 2.169 7.258h.3a71.28 71.28 0 0 1 2.17-7.258l8.007-22.523h14.741V80.94H343.71V55.424c0-2.992.823-10.026.823-10.026h-.298s-1.497 7.108-2.47 9.652l-9.728 25.89h-5.612l-9.803-25.89a79.705 79.705 0 0 1-2.319-9.204h-.3s.524 6.586.524 9.578v25.517h-10.251z" id="path964"/>
		<path class="cls-1" d="M377.012 30.432h12.646l17.061 50.509h-12.646l-3.144-9.578h-16.911l-3.067 9.578h-10.925zm0 31.652h10.85l-3.443-10.625a49.401 49.401 0 0 1-1.72-8.68h-.3a64.165 64.165 0 0 1-1.87 8.604z" id="path966"/>
		<path class="cls-1" d="M411.36 30.432h20.803c9.876 0 16.536 4.789 16.536 14.067a14.135 14.135 0 0 1-10.176 13.695 14.99 14.99 0 0 1 3.516 4.79c2.096 4.264 3.518 8.978 7.933 8.978a5.82 5.82 0 0 0 2.02-.374l-.973 8.905a24.488 24.488 0 0 1-5.014.673c-5.987 0-9.429-2.32-12.945-10.327-1.497-3.59-3.592-9.878-6.36-9.878h-2.844v19.98H411.36zm12.496 9.054v12.42h4.49c3.591 0 7.782-1.121 7.782-6.508 0-4.415-2.844-5.912-6.286-5.912z" id="path968"/>
		<path class="cls-1" d="M454.986 30.432h26.04v8.83h-6.81v32.85h6.81v8.829h-26.04v-8.83h6.734v-32.85h-6.734z" id="path970"/>
		<path class="cls-1" d="M487.837 30.432h13.394L514.477 55.5c1.121 2.17 2.618 5.985 3.816 8.979h.3c-.15-2.843-.525-6.884-.525-9.803V30.432h10.252V80.94h-13.096l-13.767-24.993a69.565 69.565 0 0 1-3.668-8.231h-.3c.226 2.844.6 6.212.6 8.979V80.94h-10.252z" id="path972"/>
		<path class="cls-1" d="M537.45 30.432h33.45v9.278h-20.954v10.85h17.585v9.28h-17.585v11.822h21.701v9.279H537.45Z" id="path974"/>
		<path class="cls-1" d="M578.158 30.432h20.803c9.878 0 16.538 4.789 16.538 14.067a14.136 14.136 0 0 1-10.178 13.695 14.995 14.995 0 0 1 3.518 4.79c2.095 4.264 3.516 8.978 7.931 8.978a5.823 5.823 0 0 0 2.021-.374l-.973 8.905a24.484 24.484 0 0 1-5.013.673c-5.987 0-9.429-2.32-12.946-10.327-1.497-3.59-3.592-9.878-6.36-9.878h-2.844v19.98h-12.497zm12.497 9.054v12.42h4.49c3.592 0 7.782-1.121 7.782-6.508 0-4.415-2.844-5.912-6.286-5.912z" id="path976"/>
	</g>
	<g id="g989" transform="matrix(1.5248 0 0 1.5248 -353.337 148.994)">
		<path class="cls-2" d="M346.915-63.728v14.695h69.61a12.411 12.411 0 0 1 12.397 12.397v17.901a12.411 12.411 0 0 1-12.397 12.397H312.929v5.594a14.435 14.435 0 0 0 14.392 14.392h107.195A14.435 14.435 0 0 0 448.908-.744v-62.984Z" id="path978"/>
		<path class="cls-2" d="M414.922-20.338v-14.695h-69.61a12.411 12.411 0 0 1-12.397-12.397v-17.901a12.411 12.411 0 0 1 12.397-12.397h103.596v-5.594a14.435 14.435 0 0 0-14.392-14.392H327.32a14.435 14.435 0 0 0-14.392 14.392v62.984z" id="path980"/>
	</g>
</svg>
