<svg xmlns="http://www.w3.org/2000/svg" viewBox="202.34 220.84 437.06 153.31">
	<clipPath id="a">
		<path d="M0 0h841.89v595.276H0z" transform="matrix(1 0 0 -1 0 595.276)"/>
	</clipPath>
	<g fill="#231f20" clip-path="url(#a)">
		<path d="m431.952 299.646 2.358-2.804c2.135 1.85 4.303 2.9 7.044 2.9 2.422 0 3.951-1.148 3.951-2.804v-.064c0-1.594-.892-2.455-5.035-3.41-4.749-1.147-7.426-2.549-7.426-6.66v-.065c0-3.823 3.187-6.469 7.617-6.469 3.251 0 5.832.987 8.095 2.803l-2.103 2.965c-2.008-1.498-4.016-2.295-6.056-2.295-2.294 0-3.633 1.178-3.633 2.645v.065c0 1.72 1.02 2.486 5.322 3.505 4.718 1.147 7.14 2.836 7.14 6.534v.062c0 4.177-3.284 6.662-7.968 6.662-3.41 0-6.629-1.18-9.306-3.57m20.902-6.215v-12.844h3.92v12.685c0 4.143 2.135 6.343 5.64 6.343 3.475 0 5.61-2.072 5.61-6.184v-12.844h3.92v12.654c0 6.66-3.76 10.006-9.593 10.006-5.8 0-9.497-3.346-9.497-9.816m22.844-1.625v-.064c0-6.34 4.75-11.537 11.506-11.537 4.111 0 6.597 1.434 8.732 3.474l-2.518 2.9c-1.784-1.658-3.697-2.772-6.247-2.772-4.238 0-7.36 3.505-7.36 7.872v.063c0 4.366 3.09 7.904 7.36 7.904 2.741 0 4.495-1.083 6.407-2.868l2.517 2.55c-2.326 2.421-4.876 3.951-9.05 3.951-6.502 0-11.347-5.068-11.347-11.473m22.24 0v-.064c0-6.34 4.748-11.537 11.505-11.537 4.111 0 6.597 1.434 8.732 3.474l-2.518 2.9c-1.784-1.658-3.697-2.772-6.247-2.772-4.238 0-7.36 3.505-7.36 7.872v.063c0 4.366 3.09 7.904 7.36 7.904 2.741 0 4.494-1.083 6.407-2.868l2.517 2.55c-2.326 2.421-4.876 3.951-9.05 3.951-6.502 0-11.347-5.068-11.347-11.473m23.865-11.218h16.541v3.507h-12.62v5.799h11.185v3.507h-11.186v5.99h12.78v3.507h-16.7zm19.212 19.058 2.358-2.804c2.135 1.85 4.303 2.9 7.044 2.9 2.422 0 3.952-1.148 3.952-2.804v-.064c0-1.594-.893-2.455-5.036-3.41-4.749-1.147-7.426-2.549-7.426-6.66v-.065c0-3.823 3.187-6.469 7.618-6.469 3.25 0 5.831.987 8.094 2.803l-2.103 2.965c-2.008-1.498-4.016-2.295-6.056-2.295-2.294 0-3.633 1.178-3.633 2.645v.065c0 1.72 1.02 2.486 5.322 3.505 4.718 1.147 7.139 2.836 7.139 6.534v.062c0 4.177-3.283 6.662-7.967 6.662-3.41 0-6.629-1.18-9.306-3.57m19.437 0 2.358-2.804c2.135 1.85 4.303 2.9 7.044 2.9 2.422 0 3.95-1.148 3.95-2.804v-.064c0-1.594-.891-2.455-5.034-3.41-4.75-1.147-7.426-2.549-7.426-6.66v-.065c0-3.823 3.187-6.469 7.617-6.469 3.25 0 5.832.987 8.095 2.803l-2.103 2.965c-2.008-1.498-4.016-2.295-6.056-2.295-2.294 0-3.633 1.178-3.633 2.645v.065c0 1.72 1.02 2.486 5.322 3.505 4.717 1.147 7.139 2.836 7.139 6.534v.062c0 4.177-3.283 6.662-7.967 6.662-3.41 0-6.63-1.18-9.306-3.57m21.475 3.252h3.92v-22.31h-3.92zm7.327-22.31h4.334l6.725 17.147 6.692-17.147h4.239L602 303.058h-3.474zm25.17 0h16.542v3.507h-12.621v5.799h11.186v3.507h-11.186v5.99h12.779v3.507h-16.7zm-185.45 54.872v-.12c0-12.005 8.974-21.95 21.465-21.95 7.7 0 12.309 2.728 16.553 6.73l-3.274 3.517c-3.577-3.395-7.58-5.82-13.34-5.82-9.397 0-16.431 7.639-16.431 17.403v.12c0 9.822 7.094 17.522 16.43 17.522 5.822 0 9.642-2.243 13.705-6.123l3.153 3.09c-4.427 4.489-9.277 7.46-16.978 7.46-12.248 0-21.282-9.641-21.282-21.83m42.987-21.341h4.79v38.017h23.89v4.426h-28.68zm67.91 21.342v-.12c0-9.642-7.033-17.523-16.735-17.523-9.701 0-16.614 7.76-16.614 17.403v.12c0 9.64 7.034 17.522 16.736 17.522 9.701 0 16.613-7.76 16.613-17.402m-38.32 0v-.12c0-11.703 8.792-21.95 21.707-21.95 12.915 0 21.585 10.127 21.585 21.83v.12c0 11.703-8.792 21.949-21.707 21.949-12.915 0-21.585-10.126-21.585-21.83m49.11 3.337v-24.678h4.79v24.374c0 9.157 4.912 14.31 12.977 14.31 7.822 0 12.794-4.73 12.794-14.006v-24.678h4.79v24.314c0 12.369-7.094 18.797-17.705 18.797-10.49 0-17.645-6.428-17.645-18.433m47.838-20.251v33.59h9.944c10.732 0 17.584-7.277 17.584-16.675v-.12c0-9.4-6.852-16.795-17.584-16.795zm-4.79-4.427h14.734c13.34 0 22.556 9.156 22.556 21.102v.12c0 11.945-9.217 21.222-22.556 21.222H593.71zm-303.048 40.594h-13.317v-.002h-18.914c-20.096 0-36.444-16.35-36.444-36.445s16.348-36.444 36.444-36.444v-.102l.697.15c6.58-30.364 34.922-34.764 47.626-32.127 9.388 1.945 16.504 7.209 20.69 11.095l-62.127 37.72.031.052c-5.792 3.603-9.664 10.017-9.664 17.327 0 11.25 9.152 20.403 20.402 20.403h2.744v.009h11.832c5.063 0 9.182 4.119 9.182 9.18 0 5.065-4.119 9.184-9.182 9.184m0-29.584h-1.14v-.01h-13.436c-5.062 0-9.182-4.118-9.182-9.182 0-3.756 2.27-6.988 5.508-8.41l-.07-.106 99.67-60.514v8.853h8.816v-26.43H354.4v8.817h10.42l-27.47 16.677c-4.794-4.966-14.509-13.21-28.32-16.07-18.962-3.927-47.899 4.012-58.459 32.508-22.554 3.76-39.804 23.399-39.804 47.004 0 26.283 21.382 47.666 47.665 47.666h32.231c11.25 0 20.402-9.152 20.402-20.402 0-11.25-9.152-20.401-20.402-20.401"/>
		<path d="M395.844 249.525v8.816h11.505l-28.97 17.515a46.163 46.163 0 0 0-10.405-2.888c-1.687-4.015-4.37-8.548-8.588-12.01l-11.067 6.47c1.057.361 2.05.846 2.975 1.47 6.773 4.564 8.237 14.841 8.25 14.944l1.486-.192c1.36.007 2.697.108 4.017.268l-38.25 23.412-.3.205c-8.018 5.892-13.244 15.37-13.244 26.06 0 17.838 14.515 32.352 32.354 32.352h9.572v-.017h5.659c25.779 0 46.752-20.972 46.752-46.753 0-13.572-5.82-25.803-15.087-34.352l-10.272 6.005c8.582 6.491 14.138 16.782 14.138 28.347 0 19.592-15.94 35.533-35.531 35.533h-8.606v.017h-6.625c-11.652 0-21.133-9.48-21.133-21.133 0-7.42 3.853-13.948 9.655-17.718l.203-.13 79.125-47.986v8.195h8.816v-26.43z"/>
	</g>
</svg>
