<svg xmlns="http://www.w3.org/2000/svg" width="200" height="128">
    <g>
        <path d="M52.816 55.706V72.46H48.9v-1.775c-.887 1.443-2.524 2.275-4.91 2.275-3.966 0-5.936-2.053-5.936-5.326V55.706h4.276V66.5a2.5 2.5 0 0 0 2.77 2.77 3.147 3.147 0 0 0 3.44-3.467v-10.1zm27.739 5.049v11.7h-4.272V62.031c0-2-.8-3.218-2.663-3.218s-2.94 1.387-2.94 3.328V72.46h-4.272V62.031c0-2.136-.888-3.218-2.663-3.218-1.886 0-2.941 1.387-2.941 3.328V72.46h-4.271V55.706H60.5v1.858a5.161 5.161 0 0 1 4.771-2.413 5.072 5.072 0 0 1 4.661 2.469 5.752 5.752 0 0 1 5.02-2.469c3.579 0 5.6 2.136 5.6 5.6zm34.285 11.7h-4.271v-23.3h4.271zm46.325 0h-4.272V55.706h4.272zm-4.355-19.273h4.411V49.1h-4.411zm20.361 13.564c-1.748 1.859-2.941 2.58-4.55 2.58a3.971 3.971 0 0 1-3.883-2.829v-4.883a4.029 4.029 0 0 1 3.939-2.857c1.415 0 2.552.5 4.355 2.192l2.663-2.636a8.707 8.707 0 0 0-7.018-3.19 8.153 8.153 0 0 0-8.128 5.493V67.5a7.991 7.991 0 0 0 8.017 5.465c3.023 0 5.1-1 7.434-3.884zm-148.378-4.6c-1.165-.249-2-.471-2.468-.582a2.3 2.3 0 0 1-1.249-.694v-1.281a3.052 3.052 0 0 1 2.636-1 7.192 7.192 0 0 1 5.02 1.969l2.3-2.774a10.138 10.138 0 0 0-7.213-2.635c-3.328 0-5.631 1.359-6.546 3.3v4.217c.721 1.414 2.386 2.219 5.714 2.94 1.193.277 2 .471 2.469.555a2.705 2.705 0 0 1 1.47.887v1.47a3.116 3.116 0 0 1-2.718 1.027 6.52 6.52 0 0 1-2.719-.527 12.348 12.348 0 0 1-3.023-1.97L20 69.8a11 11 0 0 0 8.1 3.162c3.412 0 5.825-1.3 6.74-3.384v-4.247c-.776-1.581-2.635-2.413-6.047-3.19zm62.968-7.018a8.323 8.323 0 0 0-8.127 5.41v7.045a8.778 8.778 0 0 0 16.2.028v-7.1a8.317 8.317 0 0 0-8.073-5.382zm3.939 11.4a4.076 4.076 0 0 1-3.966 2.83 4.136 4.136 0 0 1-3.995-2.83v-4.941a4.111 4.111 0 0 1 3.995-2.857 4.068 4.068 0 0 1 3.939 2.857zm30.569-11.4a8.324 8.324 0 0 0-8.128 5.41v7.045a8.324 8.324 0 0 0 8.128 5.41 8.239 8.239 0 0 0 8.072-5.382v-7.1a8.264 8.264 0 0 0-8.072-5.388zm3.939 11.4a4.068 4.068 0 0 1-3.939 2.83 4.135 4.135 0 0 1-3.994-2.83v-4.941a4.109 4.109 0 0 1 3.994-2.857 4.043 4.043 0 0 1 3.939 2.857zm19-10.818v1.858a5.7 5.7 0 0 0-5.1-2.413 7.163 7.163 0 0 0-6.823 5.021v6.907a7.087 7.087 0 0 0 6.823 4.993 5.888 5.888 0 0 0 4.883-2.136v1.332c0 2.774-1.609 4.077-4.106 4.077-1.858 0-3.384-.554-5.825-2l-2.081 3.079a14.575 14.575 0 0 0 7.962 2.469c4.715 0 8.183-2.524 8.183-7.24V55.706zm-.527 10.18a3.849 3.849 0 0 1-7.267 0v-4.581a3.863 3.863 0 0 1 7.267 0z" fill="#009"/>
    </g>
</svg>
