<svg xmlns="http://www.w3.org/2000/svg" viewBox="-10.31 -9.81 510.12 212.12">
	<g fill-rule="evenodd">
		<path d="M137.544 137.544C122.589 152.499 106.718 165.47 91 175.847c1.831.153 3.662.153 5.494.153C140.444 176 176 140.443 176 96.494c0-1.832 0-3.663-.153-5.494-10.377 15.718-23.348 31.589-38.303 46.544zM185.618 7.31c-12.25-12.257-37.364-9.04-68.91 9.193-.918.46-1.53 1.379-1.684 2.298a61.956 61.956 0 0 0-7.35-1.38c-3.675-.459-7.35-.765-11.179-.765-44.102 0-79.781 35.698-79.781 79.822 0 3.83.306 7.507.765 11.184a62.043 62.043 0 0 0 1.378 7.354c-.918.307-1.837.92-2.297 1.686-18.222 31.56-21.591 56.687-9.187 68.944 4.9 4.903 11.79 7.354 20.366 7.354 13.016 0 29.554-5.516 48.543-16.547 18.682-10.878 38.13-26.045 56.2-44.124 17.915-17.925 33.229-37.383 44.101-56.228 18.07-31.408 21.438-56.534 9.035-68.79zm-15.99 64.543c-10.58 18.239-25.299 37.245-42.93 54.718-17.633 17.626-36.492 32.34-54.738 42.916-27.598 15.94-50.443 19.925-59.95 10.422-9.045-9.196-5.672-30.807 8.74-57.017 1.073 3.066 2.3 5.978 3.833 8.89 7.666 15.327 20.239 27.896 35.571 35.56 2.607-1.38 5.367-2.76 8.127-4.292 17.632-10.116 36.03-24.677 53.05-41.69 17.172-17.167 31.585-35.406 41.704-53.033 1.687-2.759 3.066-5.517 4.293-8.123-7.666-15.327-20.239-27.896-35.571-35.56-2.913-1.379-5.826-2.758-8.893-3.831 26.218-14.408 47.837-17.933 57.037-8.737 9.506 9.35 5.52 32.34-10.273 59.777z"/>
		<path d="M232.496 95.152c-4.096 0-8.176-.752-12.24-2.256-4.064-1.504-7.696-3.76-10.896-6.768l8.064-9.696a30.488 30.488 0 0 0 7.44 4.704c2.72 1.216 5.392 1.824 8.016 1.824 2.944 0 5.136-.544 6.576-1.632 1.44-1.088 2.16-2.56 2.16-4.416 0-.96-.208-1.792-.624-2.496-.416-.704-1.024-1.328-1.824-1.872s-1.76-1.056-2.88-1.536l-3.696-1.584-8.16-3.456a24.306 24.306 0 0 1-4.656-2.496 20.562 20.562 0 0 1-4.032-3.6c-1.184-1.376-2.128-2.976-2.832-4.8-.704-1.824-1.056-3.888-1.056-6.192 0-2.56.544-4.976 1.632-7.248 1.088-2.272 2.624-4.256 4.608-5.952 1.984-1.696 4.336-3.024 7.056-3.984 2.72-.96 5.712-1.44 8.976-1.44 3.648 0 7.248.704 10.8 2.112a27.35 27.35 0 0 1 9.36 6.144l-7.2 8.928c-2.048-1.6-4.096-2.832-6.144-3.696-2.048-.864-4.32-1.296-6.816-1.296-2.432 0-4.368.496-5.808 1.488-1.44.992-2.16 2.384-2.16 4.176 0 .96.24 1.776.72 2.448.48.672 1.152 1.28 2.016 1.824.864.544 1.872 1.056 3.024 1.536s2.4 1.008 3.744 1.584l8.064 3.264c3.84 1.536 6.864 3.648 9.072 6.336 2.208 2.688 3.312 6.24 3.312 10.656 0 2.624-.528 5.104-1.584 7.44-1.056 2.336-2.592 4.384-4.608 6.144-2.016 1.76-4.496 3.168-7.44 4.224s-6.272 1.584-9.984 1.584zm58.944 0c-8.128 0-14.336-2.4-18.624-7.2-4.288-4.8-6.432-12.448-6.432-22.944v-33.6h14.208v35.04c0 6.144.928 10.432 2.784 12.864 1.856 2.432 4.544 3.648 8.064 3.648 3.52 0 6.24-1.216 8.16-3.648 1.92-2.432 2.88-6.72 2.88-12.864v-35.04h13.632v33.6c0 10.496-2.096 18.144-6.288 22.944s-10.32 7.2-18.384 7.2zM330.608 94V31.408h21.504c3.456 0 6.688.336 9.696 1.008 3.008.672 5.632 1.792 7.872 3.36 2.24 1.568 4.016 3.648 5.328 6.24 1.312 2.592 1.968 5.776 1.968 9.552 0 3.648-.656 6.816-1.968 9.504-1.312 2.688-3.088 4.896-5.328 6.624-2.24 1.728-4.832 3.008-7.776 3.84-2.944.832-6.08 1.248-9.408 1.248h-7.776V94h-14.112zm14.112-32.448h6.912c7.68 0 11.52-3.328 11.52-9.984 0-3.264-1.024-5.568-3.072-6.912-2.048-1.344-4.992-2.016-8.832-2.016h-6.528v18.912zM387.824 94V31.408h39.168v11.904h-25.056v12.576h21.312v11.808h-21.312v14.4h26.016V94h-40.128zm52.608 0V31.408h22.56c3.328 0 6.448.32 9.36.96 2.912.64 5.456 1.712 7.632 3.216 2.176 1.504 3.904 3.504 5.184 6 1.28 2.496 1.92 5.6 1.92 9.312 0 4.608-1.008 8.4-3.024 11.376-2.016 2.976-4.72 5.2-8.112 6.672L490.16 94h-15.84l-12-22.56h-7.776V94h-14.112zm14.112-33.792h7.296c3.712 0 6.544-.784 8.496-2.352 1.952-1.568 2.928-3.888 2.928-6.96s-.976-5.216-2.928-6.432c-1.952-1.216-4.784-1.824-8.496-1.824h-7.296v17.568zM229.557 177.152c-3.234 0-6.22-.784-8.96-2.352-2.74-1.568-5.097-3.792-7.07-6.672-1.973-2.88-3.507-6.352-4.603-10.416-1.096-4.064-1.644-8.592-1.644-13.584 0-4.992.548-9.488 1.644-13.488 1.096-4 2.63-7.424 4.603-10.272 1.973-2.848 4.33-5.024 7.07-6.528 2.74-1.504 5.726-2.256 8.96-2.256 3.288 0 6.302.752 9.042 2.256 2.74 1.504 5.096 3.68 7.07 6.528 1.972 2.848 3.506 6.272 4.602 10.272 1.096 4 1.644 8.496 1.644 13.488 0 4.992-.548 9.52-1.644 13.584-1.096 4.064-2.63 7.536-4.603 10.416-1.973 2.88-4.33 5.104-7.07 6.672-2.74 1.568-5.753 2.352-9.041 2.352zm0-4.032c2.74 0 5.233-.688 7.48-2.064 2.247-1.376 4.178-3.328 5.795-5.856s2.863-5.568 3.74-9.12c.877-3.552 1.315-7.536 1.315-11.952 0-4.352-.438-8.288-1.315-11.808-.877-3.52-2.123-6.512-3.74-8.976-1.617-2.464-3.548-4.368-5.795-5.712-2.247-1.344-4.74-2.016-7.48-2.016s-5.248.672-7.522 2.016c-2.274 1.344-4.206 3.248-5.795 5.712-1.59 2.464-2.822 5.456-3.7 8.976-.876 3.52-1.314 7.456-1.314 11.808 0 4.416.438 8.4 1.315 11.952.877 3.552 2.11 6.592 3.699 9.12 1.59 2.528 3.52 4.48 5.795 5.856 2.274 1.376 4.782 2.064 7.522 2.064zm34.77 2.88v-63.264h15.537c2.685 0 5.124.304 7.316.912 2.192.608 4.055 1.584 5.59 2.928 1.534 1.344 2.726 3.072 3.575 5.184.85 2.112 1.274 4.672 1.274 7.68 0 5.056-1.246 9.024-3.74 11.904-2.493 2.88-5.877 4.64-10.152 5.28L298.688 176h-4.357l-14.714-29.088H268.11V176h-3.781zm3.782-32.736h10.768c4.823 0 8.508-1.136 11.057-3.408 2.548-2.272 3.822-5.744 3.822-10.416 0-4.736-1.288-8.08-3.864-10.032-2.575-1.952-6.247-2.928-11.015-2.928H268.11v26.784zM309.045 176v-63.264h14.632c5.48 0 9.837 1.232 13.07 3.696 3.233 2.464 4.85 6.352 4.85 11.664 0 3.328-.712 6.224-2.137 8.688-1.425 2.464-3.507 4.176-6.247 5.136v.384c3.507.704 6.329 2.32 8.466 4.848 2.138 2.528 3.206 6 3.206 10.416 0 3.072-.48 5.76-1.438 8.064s-2.316 4.224-4.07 5.76c-1.753 1.536-3.863 2.688-6.329 3.456-2.466.768-5.233 1.152-8.302 1.152h-15.7zm3.782-35.424h9.37c5.535 0 9.522-1.072 11.96-3.216 2.44-2.144 3.659-5.072 3.659-8.784 0-4.48-1.288-7.632-3.864-9.456-2.575-1.824-6.357-2.736-11.343-2.736h-9.782v24.192zm0 31.776h10.932c5.426 0 9.686-1.184 12.783-3.552 3.096-2.368 4.644-6.08 4.644-11.136 0-4.608-1.507-8-4.521-10.176-3.014-2.176-7.316-3.264-12.906-3.264h-10.932v28.128zm43.73 3.648v-63.264h3.782V176h-3.781zm31.402 0v-59.424h-17.263v-3.84h38.306v3.84H391.74V176h-3.781zm35.593-37.248-3.453 11.808h19.236l-3.453-11.808a2530.989 2530.989 0 0 1-3.124-10.848 261.202 261.202 0 0 1-2.877-11.04h-.328a261.187 261.187 0 0 1-2.877 11.04c-.987 3.456-2.028 7.072-3.124 10.848zM408.756 176l19.07-63.264h3.782L450.678 176h-3.945l-6.33-21.696H418.95L412.537 176h-3.781zm50.554 0v-63.264h3.78v59.424h24.99V176h-28.77z"/>
	</g>
</svg>
