<svg xmlns="http://www.w3.org/2000/svg" width="200" height="128">
	<path d="M67.175 65.153a3.878 3.878 0 0 1 1.986 3.387c0 2.56-2.133 3.987-4.693 3.987a6.325 6.325 0 0 1-2.733-.6c-.64-.32-1.174-.747-1.174-1.454 0-.666.48-1.533 1.267-1.533s1.427.92 2.653.92c.88 0 1.494-.467 1.494-1.187 0-.786-.72-1.226-1.614-1.693-1.533-.787-3.626-1.733-3.626-4.107 0-2.333 2.013-3.826 4.506-3.826 1.774 0 3.667.76 3.667 1.946a1.494 1.494 0 0 1-1.333 1.467c-.72 0-1.374-.747-2.4-.747-.787 0-1.267.427-1.267.96.027 1.08 1.84 1.547 3.267 2.48z" fill="#4d4d4d"/>
	<path d="M78.148 69.047a3.593 3.593 0 0 0 .587-2.334v-5.8a2 2 0 0 1 .24-1.266 1.518 1.518 0 0 1 1.333-.467 1.534 1.534 0 0 1 1.333.467 2 2 0 0 1 .24 1.266v5.64a6.123 6.123 0 0 1-1.146 4.294c-.867 1-2.28 1.733-4.694 1.733-2.44 0-3.8-.747-4.653-1.733a6 6 0 0 1-1.173-4.307v-5.613a2.006 2.006 0 0 1 .24-1.267 2.175 2.175 0 0 1 2.693 0 2.006 2.006 0 0 1 .24 1.267v5.8a3.566 3.566 0 0 0 .56 2.333 2.606 2.606 0 0 0 2.12.8 2.542 2.542 0 0 0 2.08-.813zm9.12-1.107c-.387 0-.707-.027-.707-.027v2.774a2 2 0 0 1-.24 1.253 1.5 1.5 0 0 1-1.306.48 1.555 1.555 0 0 1-1.334-.48 1.982 1.982 0 0 1-.24-1.253V61.18c0-.68 0-1.347 1.027-1.733a8.065 8.065 0 0 1 2.532-.32 7.616 7.616 0 0 1 4 .92 3.758 3.758 0 0 1 1.813 3.4c.015 3.066-2.465 4.493-5.545 4.493zm-.707-2.493a4.03 4.03 0 0 0 .6.04c1.267 0 2.453-.467 2.453-1.854 0-1.266-.96-1.826-2.333-1.826-.36 0-.72.04-.72.04zm10.6-1.307h2.2a2.2 2.2 0 0 1 1.227.2 1.609 1.609 0 0 1 0 2.293 2.2 2.2 0 0 1-1.227.2h-2.2v2.8h3.36a2.2 2.2 0 0 1 1.227.2 1.61 1.61 0 0 1 0 2.294 2.2 2.2 0 0 1-1.227.2h-4.907c-1.093 0-1.493-.427-1.493-1.494V60.807c0-1.094.4-1.494 1.493-1.494h4.507a2.2 2.2 0 0 1 1.227.2 1.61 1.61 0 0 1 0 2.294 2.2 2.2 0 0 1-1.227.2h-2.96z" fill="#4d4d4d"/>
	<path d="M106.681 70.7a2.2 2.2 0 0 1-.24 1.253 1.459 1.459 0 0 1-1.293.48 1.475 1.475 0 0 1-1.294-.48 2.083 2.083 0 0 1-.226-1.253v-9.507a1.5 1.5 0 0 1 1.186-1.773 9.181 9.181 0 0 1 2.534-.28 8.132 8.132 0 0 1 3.386.6 3.579 3.579 0 0 1 2.094 3.44 3.89 3.89 0 0 1-2.16 3.627l2.973 4c.56.746.24 1.613-1.293 1.613a2.293 2.293 0 0 1-2.174-1.333l-1.613-2.414a15.428 15.428 0 0 1-.707-1.173h-1.213v3.2zm0-5.653s.267.026.56.026c1.613 0 2.4-.56 2.4-1.693 0-1.213-.907-1.573-2.08-1.573a6.044 6.044 0 0 0-.88.066v3.174z" fill="#4d4d4d"/>
	<path d="M122.4 60.74c.346-.92.64-1.547 2.013-1.547 1.027 0 1.507.347 1.507.987a2.834 2.834 0 0 1-.24.947l-4.147 9.746c-.44 1.067-.747 1.587-1.987 1.587-1.373 0-1.653-.6-2.053-1.573l-3.96-9.72a2.305 2.305 0 0 1-.267-.947c0-.707.547-1.027 1.547-1.027 1.267 0 1.627.507 2.04 1.574l2.773 7.493zm7.867 9.96a2.006 2.006 0 0 1-.24 1.267 2.178 2.178 0 0 1-2.693 0 2.006 2.006 0 0 1-.24-1.267v-9.787a2 2 0 0 1 .24-1.266 2.175 2.175 0 0 1 2.693 0 2 2 0 0 1 .24 1.266z" fill="#4d4d4d"/>
	<path d="M138.547 65.153a3.877 3.877 0 0 1 1.987 3.387c0 2.56-2.133 3.987-4.693 3.987a6.329 6.329 0 0 1-2.734-.6c-.64-.32-1.173-.747-1.173-1.454 0-.666.48-1.533 1.267-1.533s1.426.92 2.653.92c.88 0 1.493-.467 1.493-1.187 0-.786-.72-1.226-1.613-1.693-1.533-.787-3.627-1.733-3.627-4.107 0-2.333 2.014-3.826 4.507-3.826 1.773 0 3.666.76 3.666 1.946a1.493 1.493 0 0 1-1.333 1.467c-.72 0-1.373-.747-2.4-.747-.786 0-1.266.427-1.266.96.026 1.08 1.84 1.547 3.266 2.48z" fill="#4d4d4d"/>
	<path d="M148.467 59.007a6.484 6.484 0 0 1 6.88 6.76 6.562 6.562 0 0 1-6.947 6.826 6.485 6.485 0 0 1-6.88-6.76 6.577 6.577 0 0 1 6.947-6.826zm-.013 10.866c2.253 0 3.68-1.493 3.68-4.066 0-2.6-1.454-4.094-3.707-4.094s-3.68 1.494-3.68 4.067c0 2.613 1.453 4.093 3.707 4.093z" fill="#4d4d4d"/>
	<path d="M159.707 70.7a2.2 2.2 0 0 1-.24 1.253 1.459 1.459 0 0 1-1.293.48 1.475 1.475 0 0 1-1.294-.48 2.083 2.083 0 0 1-.226-1.253v-9.507a1.5 1.5 0 0 1 1.186-1.773 9.181 9.181 0 0 1 2.534-.28 8.132 8.132 0 0 1 3.386.6 3.579 3.579 0 0 1 2.094 3.44 3.89 3.89 0 0 1-2.16 3.627l2.973 4c.56.746.24 1.613-1.293 1.613a2.293 2.293 0 0 1-2.174-1.333l-1.613-2.414a15.428 15.428 0 0 1-.707-1.173h-1.213v3.2zm0-5.653s.267.026.56.026c1.613 0 2.4-.56 2.4-1.693 0-1.213-.907-1.573-2.08-1.573a6.044 6.044 0 0 0-.88.066z" fill="#4d4d4d"/>
	<path d="M177.427 71.167a10.091 10.091 0 0 1-5.6 1.306 7.526 7.526 0 0 1-2.88-.386c-.76-.32-.867-.8-.867-1.574v-9.36c0-.986.227-1.493 1.467-1.773a13.11 13.11 0 0 1 2.8-.24 9.009 9.009 0 0 1 5.213 1.253 6.038 6.038 0 0 1 2.44 5.32c0 2.894-1.2 4.547-2.573 5.454zm-6.187-1.454s.467.04 1.027.04c1.386 0 4.506-.24 4.506-3.88a3.9 3.9 0 0 0-1.306-3.2 4.608 4.608 0 0 0-3-.8 7.6 7.6 0 0 0-1.227.08z" fill="#4d8b55"/>
	<path d="M55.108 69.473a3.74 3.74 0 0 0 2.254-4.186 3.23 3.23 0 0 0-.307-.88 1.837 1.837 0 0 0-1.613-1 1.769 1.769 0 0 0-1.227.48c0-.24.013-.48.013-.68v-.014c0-.173.014-.333.014-.453-.014-1.733-.254-3.92-2.054-5.333a4.545 4.545 0 0 0-2.866-1 6.4 6.4 0 0 0-2.56.6 4.983 4.983 0 0 0-.062-1.827v-.04c0-.013-.013-.04-.013-.053s-.014-.04-.014-.054v-.013c-.013-.053-.026-.093-.04-.147a1.689 1.689 0 0 0-.12-.306c-.013-.014-.013-.027-.026-.04a3.216 3.216 0 0 0-.614-.894c-.053-.466-.053-.466.254-.893a7.033 7.033 0 0 0 .786-1.307 6.429 6.429 0 0 0 .427-3.479 12.343 12.343 0 0 0-.747-2.96 10.127 10.127 0 0 0-3.173-4.32 8.268 8.268 0 0 0-10.4 0 10.3 10.3 0 0 0-3.173 4.32 12.546 12.546 0 0 0-.747 2.96 6.447 6.447 0 0 0 .427 3.479 8.684 8.684 0 0 0 .787 1.307c.306.413.306.427.253.88a3.749 3.749 0 0 0-.907 3.2 5.434 5.434 0 0 0-1.16-.133 9.922 9.922 0 0 0-2.4.506c-2.506 1-3.88 2.734-3.88 4.867 0 .16.014.333.027.48a6.219 6.219 0 0 0 .84 2.32c.08.147.173.333.253.493-2.253 2.96-2.546 3.747-2.666 4.04a4.347 4.347 0 0 0-.24 3.654 14.521 14.521 0 0 0 2.146 3.973c.107.133.307.373.614.76a2.09 2.09 0 0 0-.654-.107h-.013a2.454 2.454 0 0 0-2.053 1.04 2.622 2.622 0 0 0-.307 2.413 3.724 3.724 0 0 0 2.4 2.467 4.762 4.762 0 0 0 1.573.267 5.3 5.3 0 0 0 2.174-.467 4.409 4.409 0 0 0 1.16-.853 7.226 7.226 0 0 0 1.28 1.106 3.632 3.632 0 0 0 1.866.534 3.513 3.513 0 0 0 1.64-.414v.627c.014 1.48.027 3.96 1.853 4.613a2.556 2.556 0 0 0 .88.16 2.1 2.1 0 0 0 1.547-.653 3.138 3.138 0 0 0 .747-2.147 1.782 1.782 0 0 0 .173.08 8.8 8.8 0 0 0 3.32.8 4.374 4.374 0 0 0 1.933-.426 3.229 3.229 0 0 0 1.814-2.48 6.618 6.618 0 0 0-.08-2.48 9.851 9.851 0 0 0-.28-1.12c.466-.2.906-.414 1.346-.627l.014-.013c.12-.054.226-.107.346-.16.067.12.12.2.16.266a4.812 4.812 0 0 0 2.774 2.16 5.232 5.232 0 0 0 1.52.227 5.578 5.578 0 0 0 2.293-.493 5.854 5.854 0 0 0 3.133-3.174 5.114 5.114 0 0 0 .04-4.319c-.346-.827-1.586-2.414-3.013-2.547a6.374 6.374 0 0 0 .453-2.24 4.415 4.415 0 0 0 1.875-.347z" fill="#4d8b55"/>
	<path d="M54.922 68.953a3.18 3.18 0 0 0 1.906-3.56 2.575 2.575 0 0 0-.253-.733 1.262 1.262 0 0 0-1.12-.707c-.84 0-1.213.734-1.52 1.334-.027.053-.067.133-.107.2a3.828 3.828 0 0 1-.12-.68 13.32 13.32 0 0 1-.026-1.614c0-.173.013-.32.013-.44-.013-1.613-.227-3.626-1.84-4.906a4.014 4.014 0 0 0-2.52-.894 6.845 6.845 0 0 0-3.135.947c-.014 0-.014.013-.027.013-.053.027-.107.067-.16.094a.013.013 0 0 0-.013.013 5.484 5.484 0 0 0 .186-2.707c0-.013-.013-.04-.013-.053 0-.013-.013-.04-.013-.053l-.014-.027-.04-.12a2.794 2.794 0 0 0-.093-.253c-.013-.014-.013-.027-.027-.04a2.368 2.368 0 0 0-.653-.867v-.16a1.373 1.373 0 0 1 .347-1.293 6.877 6.877 0 0 0 .733-1.213 5.9 5.9 0 0 0 .387-3.187 12.1 12.1 0 0 0-.72-2.827 9.544 9.544 0 0 0-3-4.093 7.746 7.746 0 0 0-9.734 0 9.648 9.648 0 0 0-3 4.093 12.055 12.055 0 0 0-.72 2.827 5.908 5.908 0 0 0 .386 3.187 6.872 6.872 0 0 0 .734 1.213 1.386 1.386 0 0 1 .354 1.293.665.665 0 0 0-.013.16c-.907.76-1.16 2.147-.72 3.773h-.013a4.508 4.508 0 0 0-1.88-.413 9.258 9.258 0 0 0-2.187.467c-2.24.893-3.493 2.44-3.493 4.346 0 .147.013.294.026.44a5.628 5.628 0 0 0 .78 2.107 5.791 5.791 0 0 1 .4.827c-2.373 3.093-2.693 3.893-2.787 4.16a3.9 3.9 0 0 0-.24 3.266 13.986 13.986 0 0 0 2.069 3.827c.187.24.747.906 1.16 1.4a4.567 4.567 0 0 1-.493.666 1.458 1.458 0 0 0-1.147-.546h-.053a1.955 1.955 0 0 0-1.614.813 2.06 2.06 0 0 0-.24 1.907 3.181 3.181 0 0 0 2.054 2.133 4.367 4.367 0 0 0 1.391.227 4.806 4.806 0 0 0 1.947-.414 5.012 5.012 0 0 0 1.387-1.146A7.909 7.909 0 0 0 29 83.166a3.1 3.1 0 0 0 1.573.454 2.994 2.994 0 0 0 2.307-1.12 8.06 8.06 0 0 0-.12 1.706v.174c.013 1.733.147 3.613 1.493 4.093a2.2 2.2 0 0 0 .693.133 1.58 1.58 0 0 0 1.147-.48 3.527 3.527 0 0 0 .573-2.64v-.04a.768.768 0 0 1 .107.067 7.944 7.944 0 0 0 .827.427 8.458 8.458 0 0 0 3.106.76 3.855 3.855 0 0 0 1.694-.36 2.728 2.728 0 0 0 1.506-2.08 6.019 6.019 0 0 0-.08-2.267 11.851 11.851 0 0 0-.413-1.533c.613-.254 1.213-.547 1.8-.827.213-.107.44-.2.653-.307.067-.026.12-.066.2-.106a3.02 3.02 0 0 0 .36.693 4.339 4.339 0 0 0 2.494 1.947 4.542 4.542 0 0 0 1.36.2 5.174 5.174 0 0 0 2.066-.44 5.262 5.262 0 0 0 2.854-2.88 4.6 4.6 0 0 0 .04-3.907c-.32-.773-1.52-2.213-2.68-2.213a1.384 1.384 0 0 0-.854.293c.134-.226.24-.44.32-.6a5.663 5.663 0 0 0 .56-3.093 2.926 2.926 0 0 0 .667.067 4.467 4.467 0 0 0 1.669-.334zm-20.414 3.254a4.615 4.615 0 0 1 .2 1.813v.32a2.377 2.377 0 0 0-1.533-.92 1.2 1.2 0 0 1 .08-.133 8.658 8.658 0 0 0 .533-1.2 2.344 2.344 0 0 0 .72.12zm9.227 1.586a23.159 23.159 0 0 1-1.813 1.814v-.427c0-.2 0-.4-.014-.587 0-.16-.013-.426-.026-.76a90.702 90.702 0 0 1-.094-2.786 4.238 4.238 0 0 0 .76.093 1.66 1.66 0 0 1 .6.093 4.708 4.708 0 0 1 .494 1.187c.066.213.133.4.2.573a1.815 1.815 0 0 0 .226.4 2.732 2.732 0 0 1-.333.4zm-10.24 7.413a9.909 9.909 0 0 0 .213-1.28 10.223 10.223 0 0 0 .04-1.146 8.587 8.587 0 0 0 1.787 1.426 3.289 3.289 0 0 0-1.135.294 2.581 2.581 0 0 0-.905.706zm18.267-5.346c.08.907-.04 1.16-.067 1.2a.373.373 0 0 1-.173.08.611.611 0 0 1-.334-.147 4.325 4.325 0 0 1-.813-1.346l-.173-.494c.386-.506.746-1.013 1.053-1.48a1.591 1.591 0 0 0 0 .707 3.511 3.511 0 0 0 .267.747 2.39 2.39 0 0 1 .24.733z" fill="#fff"/>
	<path d="M42.922 58.993a2.222 2.222 0 0 0 .28-.066h.013a.638.638 0 0 0 .133-.067 2.059 2.059 0 0 0 .667-.653c.027-.027.04-.067.067-.094a.1.1 0 0 0 .026-.053c.027-.04.04-.067.067-.107 0-.013.013-.013.013-.026v-.014l.08-.16c0-.013.014-.013.014-.026.026-.067.053-.12.08-.187a2.072 2.072 0 0 0 .12-.373.049.049 0 0 1 .013-.04.593.593 0 0 0 .027-.147c0-.027.013-.04.013-.067a.378.378 0 0 0 .013-.12.249.249 0 0 1 .014-.093c0-.027.013-.053.013-.093v-.334c0-.04-.013-.08-.013-.12v-.026c-.014-.04-.014-.094-.027-.134v-.013l-.04-.133a.862.862 0 0 0-.453-.547c-.014 0-.014-.013-.027-.013a.746.746 0 0 0-.24-.04c-.547 0-1.173.6-1.52 1.48a2.975 2.975 0 0 0-.213 1.08v.12a1.653 1.653 0 0 0 .106.52 1.4 1.4 0 0 0 .054.133c0 .013.013.013.013.027s.04.066.053.093.014.027.027.027a.158.158 0 0 0 .067.066c.013.014.013.027.026.027.027.027.054.04.067.053l.027.027a.376.376 0 0 0 .106.053.372.372 0 0 0 .12.027.378.378 0 0 0 .12.013.211.211 0 0 0 .094 0zM28.829 70.78c-.147-.067-1.04.8-1.454.8a.291.291 0 0 1-.24-.107c-.306-.386 1.027-2.026.894-2.146s-.294.133-.44.28S26 70.873 25.962 71.74a17.491 17.491 0 0 0 .613 2.613c-.04.334-1.146 2.067-.653 2.227.027.013.067.067.213-.013a10.1 10.1 0 0 0 .814-1.694 34.725 34.725 0 0 0 1.88-4.093zm26.919-5.147a2.078 2.078 0 0 1-1.226 2.294 3.6 3.6 0 0 1-1.254.266c-2.626 0-1.56-4.733-3.373-5.906a1.02 1.02 0 0 0-.56-.214c-.387 0-.92.52-1.547.574s-.76-.467-1-.694a1.389 1.389 0 0 0-.613-.373c-.187 0-.173.16-.053.373 0 0 4.36 4.44 5.013 6.014a4.5 4.5 0 0 1-.107 3.906 20.748 20.748 0 0 1-2.093 3.094l.373 1.08a5.192 5.192 0 0 0 1.24 1.866 1.426 1.426 0 0 0 1.787.04c.547-.4.587-1.266.507-2.173s-.814-1.64-.454-1.973 1.534.746 1.84 1.466a3.472 3.472 0 0 1-.04 3.053 4.129 4.129 0 0 1-2.306 2.307 3.765 3.765 0 0 1-2.627.187 3.255 3.255 0 0 1-1.907-1.52 10.6 10.6 0 0 1-.746-1.8 8.651 8.651 0 0 1-1.174.826 35.587 35.587 0 0 1-3.413 1.494s2.053 4.52-.067 5.533a2.768 2.768 0 0 1-1.226.253 7.338 7.338 0 0 1-2.68-.666c-.627-.267-1.334-.827-1.84-.827-.294 0-.52.2-.627.773-.093.534.32 2.654-.64 2.654a1.06 1.06 0 0 1-.32-.067c-.8-.293-.747-2.573-.76-3.253-.013-.987-.013-2.227 1-2.72a2.24 2.24 0 0 1 .987-.187 3.413 3.413 0 0 1 2.24.76 9.509 9.509 0 0 0-.654-2.147 7.436 7.436 0 0 1-3.36-2.386c-1-1.347-2.066-2.24-1.173-2.96.6-.493 2.627 3.013 3.187 2.773s-.027-.906-.2-1.546c-.36-1.32.226-3.347-.68-4.44-.32-.387-.894-.147-1.187-.334-.36-.24.4-2.426.08-2.493s-1.373 3.387-1.853 4.213c-.68 1.174-3.067 4.773-3.613 5.573 0 0 1.346 2.014 1.906 2.08 1.307.134.28-3.093 1.347-3.066s.72 3.653.173 4.4a1.867 1.867 0 0 1-2.546.52 16.591 16.591 0 0 1-2.187-2.147 8.362 8.362 0 0 1-1.787 1.813 3.55 3.55 0 0 1-2.52.147 2.045 2.045 0 0 1-1.386-1.453.892.892 0 0 1 .84-1.254c.746.014-.12.827.906.827.934.013 1.894-1.827 2.08-2.187 0 0-1.333-1.586-1.626-1.959a12.747 12.747 0 0 1-1.894-3.507c-.346-.96-.24-1.307.227-2.493a34.723 34.723 0 0 1 2.92-4.267c.027-1.027-1.133-2.16-1.253-3.347a2.44 2.44 0 0 1-.014-.32c0-1.68 1.334-2.733 2.84-3.333a8.823 8.823 0 0 1 1.787-.387 3.587 3.587 0 0 1 1.347.28c.853.467.866 1.067 1.466 1.694.24.24.667.68 1.054.68A.653.653 0 0 0 33 60.38c.08-.707-1.133-1.68-1.4-2.333-.027-.067-.053-.12-.08-.2a1.031 1.031 0 0 1-.067-.214c-.293-.933-.44-2.293.347-2.893a1.36 1.36 0 0 1 1.466-.12c.76.307 1.267 1.2 1.4 1.293.32.254-.546-1.56-1.28-1.906a1.432 1.432 0 0 0-1.226-.12c.187-1.68-.547-1.734-1.187-3.093-.693-1.48-.186-3.707.36-5.147a7.586 7.586 0 0 1 6.827-5.107 7.571 7.571 0 0 1 6.826 5.107c.56 1.44 1.054 3.667.36 5.147-.64 1.359-1.373 1.413-1.186 3.093a1.434 1.434 0 0 0-1.227.12c-.733.346-1.6 2.16-1.28 1.906a4.094 4.094 0 0 1 1.387-1.293 1.386 1.386 0 0 1 1.466.12 1.206 1.206 0 0 1 .4.533.014.014 0 0 0 .014.014c.026.053.04.106.066.16a.391.391 0 0 1 .027.106c0 .014.013.04.013.054a4.543 4.543 0 0 1-.28 2.466c-.2.52-1.293 1.534-.613 2.027a.281.281 0 0 0 .16.04c.493 0 1.533-.773 1.8-.92.053-.04.12-.067.173-.107s.094-.053.134-.08c.013-.013.026-.013.053-.026a.819.819 0 0 1 .187-.094 5.753 5.753 0 0 1 2.613-.813 2.887 2.887 0 0 1 1.84.653c1.227.974 1.413 2.6 1.413 4.054 0 .853-.293 4.04 1.187 4.04a1.315 1.315 0 0 0 .467-.094c.453-.16.866-1.653 1.2-1.653.202-.04.295.12.388.533zm-8.96 5.307c.334-.787.547-2.467.2-2.56h-.026c-.32 0-.44 1.32-.72 1.987a10.881 10.881 0 0 1-1.227 2.4H45c-.24 0-.52-2.027-1.28-2.467-.787-.44-1.547-.053-2.16-.533s.08-2.894-.534-2.92-.24 6.626-.2 7.786-.066 2.534.547 2.6h.027c.64 0 2.493-1.946 3.16-2.68a19.433 19.433 0 0 0 2.228-3.613zm-12.36-13.16v-.12a2.919 2.919 0 0 0-.213-.947c-.333-.88-.973-1.48-1.52-1.48a.774.774 0 0 0-.24.04c-.586.227-.733 1.227-.346 2.24.013.027.013.04.026.067a3.221 3.221 0 0 0 .48.813c.027.04.067.067.094.107l.013.013a.631.631 0 0 0 .093.094l.013.013.08.08c.014 0 .014.013.027.013.027.027.053.04.08.067s.013.013.027.013.053.04.08.054a.049.049 0 0 0 .04.013c.026.013.04.027.066.04a.051.051 0 0 0 .04.013c.027.014.04.014.067.027s.027.013.053.013.04.014.054.014.04.013.066.013a.049.049 0 0 1 .04.013c.04 0 .067.014.107.014a.774.774 0 0 0 .24-.04c.027-.014.067-.027.093-.04s.014-.014.027-.014.053-.04.08-.053l.013-.013a.36.36 0 0 1 .08-.067c0-.013.014-.013.014-.027s.04-.04.053-.066a.013.013 0 0 1 .013-.014c.014-.026.04-.066.054-.093s.013-.027.013-.04a.2.2 0 0 0 .027-.08c0-.013.013-.027.013-.04a.324.324 0 0 0 .027-.107c0-.013.013-.026.013-.053s.013-.053.013-.08.014-.04.014-.053c0-.04.013-.08.013-.12v-.147a.1.1 0 0 1-.027-.08zm-3.693 4.2a1.213 1.213 0 0 0 .027-.987.4.4 0 0 0-.053-.106c-.027-.04-.04-.067-.067-.107-.027-.027-.053-.067-.08-.093l-.013-.014a.507.507 0 0 1-.08-.093l-.027-.027a.358.358 0 0 0-.08-.066c-.013-.014-.027-.027-.04-.027s-.053-.04-.08-.053a.346.346 0 0 1-.067-.04c-.026-.014-.04-.027-.066-.04-.054-.027-.094-.054-.147-.08a2.685 2.685 0 0 0-1.173-.28 1.621 1.621 0 0 0-.974.28 2.119 2.119 0 0 0-.706.773 1.273 1.273 0 0 0 .346 1.373 1.585 1.585 0 0 0 1.267.56 2.583 2.583 0 0 0 2.013-.973z" fill="#4d4d4d"/>
</svg>
