<svg xmlns="http://www.w3.org/2000/svg" width="200" height="128">
	<path d="M20 56.45v15.1l13.07 7.54 13.08-7.54v-15.1l-13.08-7.54zm20.41 2.18a2.54 2.54 0 1 1 2 4.66 2.41 2.41 0 0 1-1 .21 2.54 2.54 0 0 1-2.53-2.5 2 2 0 0 1 0-.42l-5.74-3.29-4.56 2.68 14.32 8.2-9.9 5.39L23.65 68v-3L33 70.54l4.59-2.62-14-8 9.46-5.46zm19.11 3.65c-3.29-.84-4.11-1.25-4.11-2.51v-.05c0-.93.84-1.67 2.46-1.67a9 9 0 0 1 5 1.88L65 56.77a11.06 11.06 0 0 0-7.1-2.43c-3.9 0-6.69 2.29-6.69 5.76 0 3.79 2.49 4.86 6.34 5.84 3.19.82 3.84 1.36 3.84 2.43v.06c0 1.12-1 1.8-2.75 1.8A8.76 8.76 0 0 1 53 68l-2.48 3a12.15 12.15 0 0 0 8.05 3c4.12 0 7-2.13 7-5.92.01-3.39-2.17-4.79-6.05-5.8zm16.8 4.97c0 2-1 3-2.6 3s-2.51-1-2.51-3v-8.16h-4.15v9.47c0 3.36 1.83 5.43 5 5.44a5.19 5.19 0 0 0 4.29-2.35v2.07h4.14V59.09h-4.17zm14.92-8.43a5.35 5.35 0 0 0-4.55 2.37v-2.1h-4.15v19h4.14v-6.28A5.63 5.63 0 0 0 91.24 74c3.47 0 6.66-2.68 6.66-7.56v-.06c0-4.89-3.24-7.56-6.66-7.56zm2.52 7.61c0 2.46-1.64 4-3.58 4s-3.55-1.61-3.55-4v-.06c0-2.42 1.61-4 3.55-4a3.73 3.73 0 0 1 3.58 4zm12.09-7.61a7.28 7.28 0 0 0-7.24 7.61 7.73 7.73 0 0 0 13.62 4.84l-2.37-2.11a4.8 4.8 0 0 1-3.55 1.51 3.38 3.38 0 0 1-3.57-2.87h10.17c0-.38.06-.76.06-1.09.03-4.1-2.24-7.89-7.12-7.89zm-3.17 6.43c.33-1.89 1.45-3.11 3.17-3.11s2.83 1.26 3.08 3.11zM118.57 62v-2.91h-4.15v14.63h4.15v-5.41c0-3.49 1.69-5.16 4.44-5.16h.22v-4.34c-2.45-.1-3.82 1.19-4.66 3.19zm21.72 5.99-2.78-8.95h-3.58l-2.75 8.92-2.35-8.87h-4.21l4.51 14.74h3.71l2.87-8.98 2.81 8.98h3.74l4.55-14.74h-4.12l-2.4 8.9zm7.59-8.9h4.15v14.63h-4.15zm12.71 5.78c-1.58-.55-3-.93-3-1.75v-.06c0-.57.52-1 1.53-1a8.67 8.67 0 0 1 4 1.38l1.59-2.87a10.13 10.13 0 0 0-5.46-1.69c-2.95 0-5.35 1.66-5.35 4.64v.05c0 2.84 2.32 3.8 4.36 4.4 1.61.49 3 .79 3 1.69 0 .66-.54 1.1-1.74 1.1a8.28 8.28 0 0 1-4.62-1.75l-1.76 2.72a10.19 10.19 0 0 0 6.27 2.27c3.17 0 5.6-1.48 5.6-4.73v-.07c-.01-2.67-2.38-3.65-4.42-4.33zM180 66.76c0-4.15-2.24-8-7.12-8-4.26 0-7.23 3.44-7.23 7.62a7.73 7.73 0 0 0 13.61 4.84l-2.37-2.11a4.78 4.78 0 0 1-3.55 1.5 3.39 3.39 0 0 1-3.57-2.86H180v-.99zm-10.29-1.51c.33-1.89 1.45-3.11 3.17-3.11s2.84 1.26 3.08 3.11z"/>
	<circle cx="149.95" cy="55.87" r="2.07"/>
</svg>
