<svg xmlns="http://www.w3.org/2000/svg" viewBox="-4.76 -4.76 247.52 162.02">
	<path fill="#537fc9" d="M0 .007v152.58h2.26L89.612.007H0"/>
	<path fill="#151922" d="M85.833.007 0 152.587h238.082V.007H85.833"/>
	<path fill="#fff" d="M96.744 81.688c-3.885-2.863-7.838-4.295-11.862-4.295-8.077 0-12.114 3.057-12.114 9.165 0 2.587 2.144 5.674 6.42 9.262l7.572 6.447c2.34 2.01 3.962 3.48 4.864 4.4.906.92 1.857 2.203 2.863 3.843 1 1.645 1.753 3.305 2.253 4.978.5 1.675.757 3.387.757 5.128 0 6.742-2.524 12-7.558 15.788-5.04 3.789-11.575 5.675-19.606 5.675-6.592 0-12.817-1.423-18.674-4.285l4.225-12.868c4.48 3.386 9.686 5.079 15.61 5.079 3.582 0 6.552-.76 8.91-2.29 2.361-1.529 3.54-3.706 3.54-6.52 0-2.786-2.144-5.86-6.431-9.214l-7.888-6.294c-2.413-1.947-4.044-3.353-4.9-4.226-.852-.868-1.753-2.088-2.685-3.65a19.583 19.583 0 0 1-2.112-4.803 18.466 18.466 0 0 1-.704-5.086c0-6.778 2.246-12.14 6.74-16.1 4.494-3.957 10.378-5.94 17.653-5.94 2.412 0 5.498.274 9.25.83 3.76.55 6.39 1.179 7.9 1.88l-4.023 13.096m38.27 60.167h-7.115l-14.786-74.618h13.966l8.844 48.64 25.802-48.64h14.604l-41.315 74.618m85.991-1.015-15.242-74.619h-4.632l-44.707 74.62h13.662l8.628-15.016h26.31l2.319 15.015zm-17.443-24.833h-19.285l15.095-27.414 4.19 27.414"/>
</svg>
