<svg xmlns="http://www.w3.org/2000/svg" viewBox="0 0 66.146 66.146" height="250" width="250">
	<defs>
		<path id="a" d="M0 277.613h130.892v64.837H0z"/>
	</defs>
	<path style="opacity:.999;fill:#ffb300;stroke-width:1.04337;stroke-linejoin:round;stop-opacity:1" d="M33.073 230.854a19.844 19.844 0 0 0-19.844 19.844 19.844 19.844 0 0 0 19.844 19.844v-3.97a15.875 15.875 0 0 1-15.875-15.874 15.875 15.875 0 0 1 15.875-15.875zm0 3.969v31.75a15.875 15.875 0 0 0 15.875-15.875 15.875 15.875 0 0 0-15.875-15.875zm9.92 18.851a1.984 1.984 0 0 1 .002 0 1.984 1.984 0 0 1 1.984 1.985 1.984 1.984 0 0 1-1.984 1.984 1.984 1.984 0 0 1-1.985-1.984 1.984 1.984 0 0 1 1.983-1.985z" transform="translate(0 -230.854)"/>
	<g aria-label="symplegma." transform="translate(-.391 -185.227) scale(.8261)" style="font-style:normal;font-weight:400;font-size:17.6389px;line-height:1.25;font-family:sans-serif;letter-spacing:0;word-spacing:0;shape-inside:url(#a);fill:#000;fill-opacity:1;stroke:none">
		<path d="M2.877 290.337q-.879-.482-1.206-.81-.637-.637-.637-1.464 0-.818.62-1.447.62-.628 1.55-.628t1.499.577q.585.585.585 1.283v.241l-1.395.569q-.13-.974-.301-1.146-.164-.172-.388-.172t-.422.198q-.198.198-.198.525 0 .328.224.552.146.155.68.49.973.535 1.421.974.707.723.707 1.705 0 1.008-.733 1.748-.732.741-1.834.741-1.103 0-1.843-.74-.732-.741-.732-1.852l1.55-.388q0 1 .319 1.318.318.319.706.319.387 0 .706-.32.327-.318.327-.826 0-.49-.344-.827-.207-.198-.861-.62z" style="font-style:normal;font-variant:normal;font-weight:700;font-stretch:normal;font-family:'Champagne &amp; Limousines';-inkscape-font-specification:'Champagne &amp; Limousines Bold';letter-spacing:.00264583px;fill:#ffb300"/>
		<path d="M8.908 296.995h-1.68l2.05-4.41-2.885-6.192h1.68l2.05 4.349 2.05-4.35h1.679z" style="font-style:normal;font-variant:normal;font-weight:700;font-stretch:normal;font-family:'Champagne &amp; Limousines';-inkscape-font-specification:'Champagne &amp; Limousines Bold';letter-spacing:.00264583px;fill:#ffb300"/>
		<path d="M16.395 287.78v6.485h-1.559v-7.872h.974q.637-.423 1.584-.423 1.103 0 1.818.552.697-.552 1.8-.552 1.102 0 1.86.758.68.698.715 1.637v5.9h-1.559v-6.236q-.103-.715-1.016-.715-.758 0-1.042.672v6.279h-1.56v-6.236h-.008q-.095-.715-1.008-.715-.637 0-.999.465z" style="font-style:normal;font-variant:normal;font-weight:700;font-stretch:normal;font-family:'Champagne &amp; Limousines';-inkscape-font-specification:'Champagne &amp; Limousines Bold';letter-spacing:.00264583px;fill:#ffb300"/>
		<path d="M25.235 286.393h1.559v.904q.921-1.542 2.799-1.542 1.877 0 3.17 1.292 1.291 1.283 1.291 3.066 0 1.766-1.292 3.066-1.292 1.292-3.17 1.292-1.877 0-2.798-1.559v4.091h-1.56zm1.559 3.057v1.326q.155.836.8 1.473.845.836 1.999.836 1.154 0 2.006-.853.862-.861.862-2.119 0-1.266-.862-2.127-.852-.861-2.006-.861t-2.033.878q-.611.612-.766 1.447z" style="font-style:normal;font-variant:normal;font-weight:700;font-stretch:normal;font-family:'Champagne &amp; Limousines';-inkscape-font-specification:'Champagne &amp; Limousines Bold';letter-spacing:.00264583px;fill:#ffb300"/>
		<path d="M37.08 281.87v12.395h-1.56V281.87z" style="font-style:normal;font-variant:normal;font-weight:700;font-stretch:normal;font-family:'Champagne &amp; Limousines';-inkscape-font-specification:'Champagne &amp; Limousines Bold';letter-spacing:.00264583px;fill:#ffb300"/>
		<path d="M40.347 288.727h5.159q-.551-1.602-2.567-1.602-2.024 0-2.592 1.602zm-.276 1.36v.026q0 1.258.853 2.11.852.853 2.015.853 1.154 0 2.024-.87.12-.12.465-.543l1.464.517q-.327.551-.758.973-1.309 1.318-3.195 1.318-1.869 0-3.17-1.292-1.291-1.3-1.291-3.066 0-1.783 1.292-3.075 1.3-1.291 3.17-1.291 1.885 0 3.194 1.309 1.129 1.137 1.129 3.031z" style="font-style:normal;font-variant:normal;font-weight:700;font-stretch:normal;font-family:'Champagne &amp; Limousines';-inkscape-font-specification:'Champagne &amp; Limousines Bold';letter-spacing:.00264583px;fill:#ffb300"/>
		<path d="M55.284 289.45q-.172-.835-.81-1.481-.835-.844-1.99-.844-1.162 0-2.015.86-.852.862-.852 2.128 0 1.258.852 2.119.853.853 2.016.853 1.154 0 2.024-.87.603-.603.775-1.43zm-.103 3.48q-.81 1.541-2.696 1.541-1.87 0-3.17-1.292-1.292-1.3-1.292-3.066 0-1.783 1.292-3.066 1.3-1.292 3.17-1.292 1.877 0 2.807 1.56v-.922h1.56v5.925q0 1.731-1.25 2.971-1.309 1.318-3.186 1.318-1.878 0-3.161-1.283-.293-.301-.74-.896l1.49-.542q.3.379.421.482.836.844 1.99.844 2.437 0 2.765-2.282z" style="font-style:normal;font-variant:normal;font-weight:700;font-stretch:normal;font-family:'Champagne &amp; Limousines';-inkscape-font-specification:'Champagne &amp; Limousines Bold';letter-spacing:.00264583px;fill:#ffb300"/>
		<path d="M59.886 287.78v6.485h-1.56v-7.872h.974q.637-.423 1.585-.423 1.102 0 1.817.552.698-.552 1.8-.552 1.103 0 1.86.758.68.698.715 1.637v5.9h-1.559v-6.236q-.103-.715-1.016-.715-.758 0-1.042.672v6.279h-1.559v-6.236h-.009q-.094-.715-1.007-.715-.638 0-1 .465z" style="font-style:normal;font-variant:normal;font-weight:700;font-stretch:normal;font-family:'Champagne &amp; Limousines';-inkscape-font-specification:'Champagne &amp; Limousines Bold';letter-spacing:.00264583px;fill:#ffb300"/>
		<path d="M77.398 294.265H75.84v-1.378q-.921 1.584-2.808 1.584-1.869 0-3.17-1.292-1.291-1.3-1.291-3.066 0-1.783 1.292-3.075 1.3-1.291 3.17-1.291 1.886 0 2.807 1.567v-.921h1.56zm-1.559-3.532v-1.257q-.163-.853-.784-1.473-.87-.878-2.024-.878-1.162 0-2.015.86-.853.862-.853 2.128 0 1.258.853 2.11.853.853 2.015.853 1.155 0 2.024-.87.62-.62.784-1.473z" style="font-style:normal;font-variant:normal;font-weight:700;font-stretch:normal;font-family:'Champagne &amp; Limousines';-inkscape-font-specification:'Champagne &amp; Limousines Bold';letter-spacing:.00264583px;fill:#ffb300"/>
		<path d="M79.442 292.37q.474 0 .784.31.318.301.318.689 0 .387-.318.697-.31.302-.784.302-.491 0-.801-.302-.31-.31-.31-.697 0-.388.31-.69.31-.31.8-.31z" style="font-style:normal;font-variant:normal;font-weight:700;font-stretch:normal;font-family:'Champagne &amp; Limousines';-inkscape-font-specification:'Champagne &amp; Limousines Bold';letter-spacing:.00264583px;fill:#ffb300"/>
	</g>
</svg>
