<svg xmlns="http://www.w3.org/2000/svg" viewBox="-1.32 -1.32 68.77 62.65">
	<g fill="#ffb300">
		<path d="M33.073 0a19.844 19.844 0 0 0-19.844 19.844 19.844 19.844 0 0 0 19.844 19.844v-3.97a15.875 15.875 0 0 1-15.875-15.874A15.875 15.875 0 0 1 33.073 3.969zm0 3.969v31.75a15.875 15.875 0 0 0 15.875-15.875A15.875 15.875 0 0 0 33.073 3.969zm9.92 18.851a1.984 1.984 0 0 1 .002 0 1.984 1.984 0 0 1 1.984 1.985 1.984 1.984 0 0 1-1.984 1.984 1.984 1.984 0 0 1-1.985-1.984 1.984 1.984 0 0 1 1.983-1.985z" opacity=".999"/>
		<path d="M1.985 54.62q-.725-.398-.996-.668-.526-.527-.526-1.21 0-.676.512-1.195.512-.52 1.28-.52.77 0 1.239.477.484.484.484 1.06v.2l-1.153.47q-.107-.805-.249-.947-.135-.142-.32-.142t-.349.163q-.163.164-.163.434t.184.456q.121.128.563.405.804.441 1.174.804.583.598.583 1.409 0 .832-.605 1.444t-1.515.612q-.911 0-1.523-.612Q0 56.648 0 55.73l1.281-.32q0 .826.263 1.089.264.263.584.263.32 0 .583-.263.27-.263.27-.683 0-.406-.284-.683-.17-.164-.712-.512zm4.983 5.5H5.581l1.693-3.642-2.383-5.116h1.387l1.693 3.593 1.694-3.593h1.387zm6.185-7.613v5.358h-1.288v-6.503h.804q.527-.349 1.31-.349.91 0 1.5.456.577-.456 1.488-.456.91 0 1.537.626.562.577.59 1.352v4.874h-1.288v-5.151q-.085-.59-.84-.59-.625 0-.86.554v5.187h-1.288v-5.151h-.007q-.078-.59-.832-.59-.527 0-.826.383zm7.302-1.145h1.288v.747q.761-1.274 2.313-1.274 1.55 0 2.618 1.068 1.067 1.06 1.067 2.533 0 1.458-1.067 2.532-1.067 1.068-2.618 1.068-1.552 0-2.313-1.288v3.38h-1.288zm1.288 2.526v1.095q.128.69.662 1.217.697.69 1.65.69.954 0 1.658-.704.712-.712.712-1.75 0-1.046-.712-1.758-.704-.711-1.657-.711-.954 0-1.68.725-.505.506-.633 1.196zm8.498-6.262v10.239h-1.288V47.626zm2.698 5.664h4.262q-.455-1.323-2.12-1.323-1.672 0-2.142 1.323zm-.227 1.124v.022q0 1.038.704 1.743.705.704 1.665.704.953 0 1.672-.719.1-.1.384-.448l1.21.427q-.27.455-.626.804-1.082 1.089-2.64 1.089-1.544 0-2.618-1.068-1.068-1.074-1.068-2.532 0-1.473 1.068-2.54 1.074-1.068 2.618-1.068 1.558 0 2.64 1.082.932.939.932 2.504zm12.567-.526q-.142-.69-.669-1.224-.69-.697-1.643-.697-.96 0-1.665.711-.705.712-.705 1.758 0 1.038.705 1.75.704.704 1.665.704.953 0 1.672-.718.498-.498.64-1.181zm-.085 2.874q-.67 1.274-2.227 1.274-1.544 0-2.619-1.068-1.067-1.074-1.067-2.532 0-1.473 1.067-2.533 1.075-1.068 2.619-1.068 1.55 0 2.32 1.288v-.761h1.287v4.895q0 1.43-1.032 2.455Q44.461 59.8 42.91 59.8q-1.551 0-2.611-1.06-.242-.249-.612-.74l1.23-.448q.25.313.35.398.69.698 1.643.698 2.013 0 2.284-1.886zm3.887-4.255v5.358h-1.288v-6.503h.804q.526-.349 1.309-.349.91 0 1.501.456.577-.456 1.487-.456.91 0 1.537.626.562.577.59 1.352v4.874h-1.287v-5.151q-.086-.59-.84-.59-.626 0-.86.554v5.187h-1.289v-5.151h-.007q-.078-.59-.832-.59-.527 0-.825.383zm14.467 5.358H62.26v-1.138q-.762 1.309-2.32 1.309-1.544 0-2.618-1.068-1.067-1.074-1.067-2.532 0-1.473 1.067-2.54 1.074-1.068 2.618-1.068 1.558 0 2.32 1.295v-.761h1.288zm-1.288-2.917v-1.039q-.135-.704-.648-1.217-.718-.725-1.672-.725-.96 0-1.665.711-.704.712-.704 1.758 0 1.038.704 1.743.705.704 1.665.704.954 0 1.672-.719.513-.512.648-1.216zm2.976 1.352q.391 0 .647.256.264.249.264.569 0 .32-.264.576-.256.25-.647.25-.406 0-.662-.25-.256-.256-.256-.576t.256-.57q.256-.255.662-.255z"/>
	</g>
</svg>
