<svg xmlns="http://www.w3.org/2000/svg" viewBox="27.05 54.8 192.4 132.65">
	<g clip-path="url(#a)">
		<mask id="b" width="70" height="137" x="20" y="53" maskUnits="userSpaceOnUse">
			<path fill="#fff" d="M0 0h68.653v136.265H0z" transform="matrix(-1 0 0 1 89.167 53.434)"/>
		</mask>
		<g fill-rule="evenodd" clip-rule="evenodd" mask="url(#b)">
			<path fill="url(#c)" d="M74.604 58.635 60.04 66.957l14.563 8.321 14.563-8.321-14.563-8.322zm29.125 16.643L89.167 83.6l14.562 8.321 14.563-8.321-14.563-8.322zm-43.688 24.965 14.563-8.322 14.563 8.322-14.563 8.321-14.563-8.321zM45.478 75.278 30.916 83.6l14.562 8.321L60.041 83.6l-14.563-8.322z"/>
			<path fill="url(#d)" d="M74.604 75.278 60.04 66.956V83.6l14.563 8.321V75.278zM30.916 83.6l14.562 8.321v16.643l14.563 8.322v-16.643l14.563 8.321v33.286l-14.563-8.321-14.563-8.322-14.563-8.321V83.6zm58.25 0 14.563 8.321v16.643l-14.563-8.321V83.6z"/>
			<path fill="url(#e)" d="m60.042 133.529-14.563-8.322v42.128l14.563 8.322 14.563 8.321V141.85l-14.563-8.321z"/>
			<path fill="url(#f)" d="M89.167 83.6 74.605 91.92 60.042 83.6v16.643l-14.563 8.321 14.563 8.322v-16.643l14.563-8.322 14.562 8.322v16.643l14.563-8.322-14.563-8.321V83.6z"/>
			<path fill="url(#g)" d="m89.167 133.529 14.563-8.322v42.128l-14.563 8.322-14.563 8.321V141.85l14.563-8.321z"/>
			<path fill="url(#h)" d="m74.605 75.278 14.562-8.322V83.6L74.605 91.92V75.278zM60.042 83.6 45.479 91.92v16.643l14.563-8.321V83.6zm29.125 16.643-14.562 8.321v33.286l14.562-8.321 14.563-8.322 14.563-8.321V83.6L103.73 91.92v16.643l-14.563 8.322v-16.643z"/>
		</g>
		<path d="M112.775 90.297c0-1.764-1.265-2.68-3.562-3.362l-1.015-.3c-1.298-.382-2.28-.898-2.28-1.864 0-1.248 1.182-1.78 2.297-1.78 1.231 0 2.08.482 2.197 1.797h2.064c-.017-2.496-2.031-3.262-4.161-3.262-2.164 0-4.494.915-4.494 3.429 0 1.88 1.614 2.73 3.495 3.312l1.198.366c1.249.382 2.131.848 2.131 1.847 0 1.365-1.365 1.93-2.563 1.93-1.298 0-2.38-.615-2.497-2.013h-2.063c.133 2.613 2.196 3.545 4.51 3.545 2.28 0 4.743-1.015 4.743-3.645zm9.241-4.926h-1.897l-2.397 6.407-2.38-6.407h-2.28l3.662 8.388-1.282 3.162h1.848l4.726-11.55zm8.401 8.388v-5.31c0-2.03-.899-3.195-3.029-3.195-1.215 0-2.047.45-2.746 1.381l-.034-1.264h-1.914c.017.615.05 1.231.05 1.847v6.54h1.931v-4.06c0-1.282.283-3.08 2.064-3.08 1.631 0 1.747 1.25 1.747 2.58v4.56h1.931zm9.259-2.98h-1.931c-.05 1.132-.666 1.931-1.831 1.931-1.697 0-2.23-1.747-2.23-3.162 0-1.498.516-3.179 2.297-3.179 1.098 0 1.697.716 1.764 1.798h1.897c-.183-2.114-1.681-3.046-3.661-3.046-2.763 0-4.311 1.864-4.311 4.51 0 2.597 1.448 4.344 4.194 4.344 2.131 0 3.762-1.132 3.812-3.195zm3.075-7.339v-1.714h-2.064v1.714h2.064zm-.066 10.319v-8.405h-1.931v8.405h1.931zm9.295-3.812c0-2.612-.832-4.776-3.828-4.776-2.796 0-4.177 1.897-4.177 4.527 0 2.563 1.398 4.244 4.078 4.244 1.93 0 3.578-.866 3.894-2.946h-1.864c-.15 1.098-.882 1.73-1.964 1.73-1.531 0-2.247-1.247-2.247-2.645v-.134h6.108zm-1.88-1.181h-4.178c.117-1.265.816-2.364 2.197-2.364 1.382 0 1.981 1.116 1.981 2.364zm8.079-1.698v-1.73c-.166-.017-.316-.034-.449-.034-1.165 0-1.997.466-2.563 1.448l-.05-1.381h-1.881c.034.749.05 1.897.05 2.48v5.908h1.931V89.48c0-1.547.583-2.48 2.23-2.48.233 0 .466.034.732.067zm-37.619 32.29c0-3.308-2.372-5.024-6.678-6.304l-1.904-.561c-2.434-.718-4.275-1.685-4.275-3.495 0-2.341 2.216-3.339 4.307-3.339 2.309 0 3.9.905 4.119 3.37h3.869c-.031-4.681-3.807-6.117-7.801-6.117-4.057 0-8.426 1.717-8.426 6.429 0 3.526 3.027 5.118 6.553 6.21l2.247.686c2.341.718 3.995 1.592 3.995 3.464 0 2.559-2.559 3.62-4.806 3.62-2.434 0-4.463-1.155-4.681-3.776h-3.87c.25 4.899 4.12 6.647 8.457 6.647 4.275 0 8.894-1.904 8.894-6.834zm16.609-.655c0-4.9-1.56-8.956-7.177-8.956-5.243 0-7.833 3.557-7.833 8.488 0 4.805 2.621 7.957 7.646 7.957 3.619 0 6.709-1.623 7.302-5.523h-3.495c-.281 2.059-1.654 3.245-3.683 3.245-2.871 0-4.212-2.34-4.212-4.962v-.249h11.452zm-3.526-2.216h-7.833c.219-2.372 1.529-4.431 4.119-4.431 2.591 0 3.714 2.091 3.714 4.431zm19.862 3.776h-3.62c-.094 2.122-1.248 3.62-3.433 3.62-3.183 0-4.181-3.277-4.181-5.929 0-2.809.967-5.961 4.306-5.961 2.06 0 3.183 1.342 3.308 3.371h3.557c-.343-3.964-3.152-5.711-6.865-5.711-5.18 0-8.082 3.495-8.082 8.457 0 4.868 2.715 8.144 7.864 8.144 3.994 0 7.052-2.122 7.146-5.991zm16.439 5.586c-.062-1.904-.125-3.807-.125-5.68v-10.048h-3.62v8.238c0 2.59-.78 5.149-3.838 5.149-3.089 0-3.308-2.34-3.308-4.837v-8.55h-3.62v9.955c0 3.744 1.81 5.991 5.742 5.991 2.278 0 3.745-.842 5.087-2.59l.093 2.372h3.589zm12.647-12.545v-3.245c-.312-.032-.593-.063-.842-.063-2.185 0-3.745.874-4.806 2.715l-.094-2.59h-3.526c.062 1.404.094 3.557.094 4.65v11.078h3.619v-8.02c0-2.902 1.093-4.65 4.182-4.65.437 0 .874.063 1.373.125zm5.238-6.803v-3.214h-3.87v3.214h3.87zm-.125 19.348V110.09h-3.62v15.759h3.62zm11.812-.031v-2.559c-.562.093-.998.156-1.498.156-1.997 0-2.153-.812-2.153-2.622v-8.238h3.589v-2.465h-3.589v-4.307l-3.62 1.467v2.84h-3.027v2.465h3.027v9.58c0 2.996 1.592 3.901 4.4 3.901.936 0 1.873-.094 2.871-.218z"/>
		<path d="M216 110.121h-3.557l-4.494 12.014-4.462-12.014h-4.276l6.866 15.728-2.403 5.929h3.464L216 110.121zm-96.064 26.754v-2.902h-18.1v2.902h7.115v19.659h3.87v-19.659h7.115zm13.069 11.702c0-4.993-2.996-8.176-8.083-8.176-4.993 0-8.207 3.214-8.207 8.176 0 4.993 3.027 8.301 8.145 8.301 5.024 0 8.145-3.402 8.145-8.301zm-3.776.031c0 2.746-1.124 5.992-4.369 5.992-3.277 0-4.369-3.215-4.369-5.992 0-2.808 1.092-5.835 4.369-5.835 3.277 0 4.369 3.027 4.369 5.835zm30.702-7.801h-3.495l-3.682 12.17-3.995-12.17h-4.119l-4.025 12.295-3.714-12.295h-3.963l5.617 15.727h3.745l4.213-12.357 4.088 12.357h3.744l5.586-15.727zm15.04 8.581c0-4.899-1.56-8.956-7.178-8.956-5.242 0-7.832 3.558-7.832 8.488 0 4.806 2.621 7.958 7.645 7.958 3.62 0 6.709-1.623 7.302-5.524h-3.495c-.281 2.06-1.654 3.246-3.682 3.246-2.871 0-4.213-2.341-4.213-4.962v-.25h11.453zm-3.526-2.215h-7.833c.218-2.372 1.529-4.432 4.119-4.432s3.714 2.091 3.714 4.432zm15.149-3.183v-3.246c-.312-.031-.593-.062-.842-.062-2.185 0-3.745.874-4.806 2.715l-.094-2.59h-3.526c.063 1.404.094 3.557.094 4.649v11.078h3.62v-8.019c0-2.903 1.092-4.65 4.181-4.65.437 0 .874.062 1.373.125z"/>
	</g>
	<defs>
		<linearGradient id="c" x1="30.916" x2="118.292" y1="58.635" y2="96.082" gradientUnits="userSpaceOnUse">
			<stop stop-color="#B498FF" offset="0%"/>
			<stop offset="1" stop-color="#A281FF"/>
		</linearGradient>
		<linearGradient id="d" x1="99.828" x2="89.29" y1="87.435" y2="135.992" gradientUnits="userSpaceOnUse">
			<stop stop-color="#8357FB" offset="0%"/>
			<stop offset="1" stop-color="#6336FF"/>
		</linearGradient>
		<linearGradient id="e" x1="61.602" x2="72.264" y1="179.037" y2="131.708" gradientUnits="userSpaceOnUse">
			<stop stop-color="#6538FF" offset="0%"/>
			<stop offset="1" stop-color="#5A33CB"/>
		</linearGradient>
		<linearGradient id="f" x1="45.479" x2="103.73" y1="83.6" y2="108.564" gradientUnits="userSpaceOnUse">
			<stop stop-color="#8059FF" offset="0%"/>
			<stop offset="1" stop-color="#8563FF"/>
		</linearGradient>
		<linearGradient id="g" x1="81.886" x2="95.959" y1="139.211" y2="175.852" gradientUnits="userSpaceOnUse">
			<stop stop-color="#7552F2" offset="0%"/>
			<stop offset="1" stop-color="#9678F7"/>
		</linearGradient>
		<linearGradient id="h" x1="47.56" x2="125.054" y1="66.957" y2="123.387" gradientUnits="userSpaceOnUse">
			<stop stop-color="#8E6FF4" offset="0%"/>
			<stop offset="1" stop-color="#8E6FF4"/>
		</linearGradient>
		<clipPath id="a">
			<path fill="#fff" d="M0 0h240v240H0z"/>
		</clipPath>
	</defs>
</svg>
