<svg xmlns="http://www.w3.org/2000/svg" viewBox="68.31 49.8 257.14 193.14">
	<path fill="#99d420" d="m157.943 129.432 12.29 12.292 12.292-12.292-12.292-12.29-12.29 12.29m31.35-31.35 12.291 12.29 12.292-12.29-12.292-12.29-12.29 12.29m-15.32-15.32 12.292 12.29 12.29-12.29-12.29-12.29-12.292 12.29m-.356 30.996 12.29 12.289 12.292-12.29-12.291-12.29-12.29 12.29M158.3 98.439l12.29 12.29 12.292-12.29-12.292-12.29-12.29 12.29m46.67-16.032 12.29 12.29 12.292-12.29-12.292-12.29-12.29 12.29m-15.32-15.32 12.29 12.293 12.293-12.292-12.293-12.29-12.29 12.29m-16.388 77.665 12.29 12.29 12.292-12.29-12.291-12.29-12.29 12.29m31.35-31.35 12.29 12.289 12.291-12.29-12.29-12.291-12.29 12.292m-15.676 15.674 12.29 12.29 12.292-12.29-12.292-12.29-12.29 12.29m31.351-31.35 12.29 12.29 12.29-12.29-12.29-12.29-12.29 12.29M73.61 196.21c0 8.45 7.756 9.75 13.344 11.754 3.2 1.136 5.641 2.493 5.641 5.416 0 3.468-2.116 5.255-7.16 5.255-4.99 0-10.198-1.679-10.198-1.679-1.03 1.57-1.681 3.683-1.626 5.524 0 0 4.665 2.384 12.095 2.384 9.275 0 13.995-4.117 13.995-11.645 0-6.933-4.882-9.533-9.764-11.321-4.719-1.679-9.437-2.599-9.437-6.012 0-3.52 2.494-5.253 7.756-5.253 4.555 0 8.082 1.19 8.082 1.19 1.247-1.353 1.843-3.52 1.843-5.415 0 0-4.177-1.626-10.902-1.626-9.22 0-13.668 4.604-13.668 11.428"/>
	<path fill="none" stroke="#99d420" stroke-width=".533" d="M73.61 196.209c0 8.45 7.755 9.75 13.343 11.754 3.2 1.136 5.641 2.493 5.641 5.416 0 3.468-2.116 5.255-7.16 5.255-4.99 0-10.198-1.679-10.198-1.679-1.03 1.57-1.681 3.683-1.626 5.524 0 0 4.665 2.384 12.095 2.384 9.275 0 13.995-4.117 13.995-11.645 0-6.933-4.882-9.533-9.764-11.321-4.719-1.679-9.437-2.599-9.437-6.012 0-3.52 2.494-5.253 7.756-5.253 4.555 0 8.082 1.19 8.082 1.19 1.247-1.353 1.843-3.52 1.843-5.415 0 0-4.177-1.626-10.902-1.626-9.22 0-13.668 4.604-13.668 11.428z"/>
	<path fill="#99d420" d="M129.312 196.264s-1.247-.434-3.2-.434c-2.224 0-3.309.434-3.309.434l-4.393 14.515c-1.248 4.116-1.736 6.825-1.736 6.825h-.218s-.488-2.762-1.897-6.825l-5.098-14.515s-1.193-.434-3.527-.434c-2.224 0-3.525.434-3.525.434s10.63 29.515 11.02 30.683c-1.635 4.732-2.612 5.28-5.27 5.28-1.14 0-2.496-.216-2.496-.216s-.487 1.193-.487 2.709c0 1.41.487 2.545.487 2.545s1.248.598 3.146.598c6.834 0 8.841-3.739 10.957-10.455l9.546-31.144"/>
	<path fill="none" stroke="#99d420" stroke-width=".533" d="M129.312 196.264s-1.247-.434-3.2-.434c-2.224 0-3.309.434-3.309.434l-4.393 14.515c-1.248 4.116-1.736 6.825-1.736 6.825h-.218s-.488-2.762-1.897-6.825l-5.098-14.515s-1.193-.434-3.527-.434c-2.224 0-3.525.434-3.525.434s10.63 29.515 11.02 30.683c-1.635 4.732-2.612 5.28-5.27 5.28-1.14 0-2.496-.216-2.496-.216s-.487 1.193-.487 2.709c0 1.41.487 2.545.487 2.545s1.248.598 3.146.598c6.834 0 8.841-3.739 10.957-10.455z"/>
	<path fill="#99d420" d="M133.978 204.063c0 5.58 3.96 7.096 7.54 8.179 2.93.867 5.586 1.464 5.586 3.793 0 2.004-1.302 3.032-4.23 3.032-3.69 0-7.215-1.3-7.215-1.3-1.248 1.19-1.844 3.033-1.844 5.037 0 0 3.472 2.059 9.384 2.059 7.104 0 10.63-3.25 10.63-8.99 0-5.094-3.2-6.99-6.454-8.127-3.417-1.19-6.888-1.57-6.888-3.899 0-1.95 1.519-3.031 4.664-3.031 2.984 0 5.533.865 5.533.865 1.194-1.139 1.736-3.087 1.736-4.822 0 0-2.172-1.57-7.973-1.57-7.106 0-10.469 3.523-10.469 8.774"/>
	<path fill="none" stroke="#99d420" stroke-width=".533" d="M133.978 204.063c0 5.58 3.96 7.096 7.54 8.179 2.93.867 5.586 1.464 5.586 3.793 0 2.004-1.302 3.032-4.23 3.032-3.69 0-7.215-1.3-7.215-1.3-1.248 1.19-1.844 3.033-1.844 5.037 0 0 3.472 2.059 9.384 2.059 7.104 0 10.63-3.25 10.63-8.99 0-5.094-3.2-6.99-6.454-8.127-3.417-1.19-6.888-1.57-6.888-3.899 0-1.95 1.519-3.031 4.664-3.031 2.984 0 5.533.865 5.533.865 1.194-1.139 1.736-3.087 1.736-4.822 0 0-2.172-1.57-7.973-1.57-7.106 0-10.469 3.523-10.469 8.774z"/>
	<path fill="#231f20" d="M161.587 185.323v38.997h24.026c.38-.92.542-1.895.542-2.87 0-.92-.216-1.842-.542-2.707h-17.084v-11.32h13.83c.38-.922.542-1.896.542-2.873 0-.918-.216-1.841-.543-2.708H168.53v-10.94h16.542c.379-.92.542-1.95.542-2.978 0-.923-.216-1.788-.542-2.601h-23.484"/>
	<path fill="none" stroke="#231f20" stroke-width=".533" d="M161.587 185.323v38.997h24.026c.38-.92.542-1.895.542-2.87 0-.92-.216-1.842-.542-2.707h-17.084v-11.32h13.83c.38-.922.542-1.896.542-2.873 0-.918-.216-1.841-.543-2.708H168.53v-10.94h16.542c.379-.92.542-1.95.542-2.978 0-.923-.216-1.788-.542-2.601z"/>
	<path fill="#231f20" d="M200.419 184.132s-1.192-.434-3.417-.434c-2.386 0-3.418.434-3.418.434v39.756s1.032.432 3.418.432c2.225 0 3.417-.431 3.417-.431v-39.757"/>
	<path fill="none" stroke="#231f20" stroke-width=".533" d="M200.419 184.132s-1.192-.434-3.417-.434c-2.386 0-3.418.434-3.418.434v39.756s1.032.432 3.418.432c2.225 0 3.417-.431 3.417-.431z"/>
	<path fill="#231f20" d="M231.608 206.5c0-7.743-4.394-11.21-11.12-11.21-7.485 0-12.365 4.387-12.365 14.624 0 9.802 3.904 14.949 12.745 14.949 6.021 0 9.22-2.22 9.22-2.22-.054-1.896-.922-3.739-2.06-4.823 0 0-2.55 1.3-6.183 1.3-3.797 0-6.238-1.407-6.725-6.933h15.892s.596-2.219.596-5.686m-6.78-.811c0 .593-.055 1.19-.11 1.787h-9.546c.49-5.039 2.55-6.88 5.316-6.88 3.418 0 4.34 2.276 4.34 5.093"/>
	<path fill="none" stroke="#231f20" stroke-width=".533" d="M231.608 206.5c0-7.743-4.394-11.21-11.12-11.21-7.485 0-12.365 4.387-12.365 14.624 0 9.802 3.904 14.949 12.745 14.949 6.021 0 9.22-2.22 9.22-2.22-.054-1.896-.922-3.739-2.06-4.823 0 0-2.55 1.3-6.183 1.3-3.797 0-6.238-1.407-6.725-6.933h15.892s.596-2.219.596-5.686zm-6.78-.81c0 .593-.055 1.19-.11 1.787h-9.546c.49-5.039 2.55-6.88 5.316-6.88 3.418 0 4.34 2.276 4.34 5.093z"/>
	<path fill="#231f20" d="M242.837 196.264s-1.14-.434-3.527-.434c-2.224 0-3.525.434-3.525.434l9.22 27.623s1.628.433 4.231.433c2.442 0 4.231-.433 4.231-.433l9.004-27.623s-1.03-.434-3.147-.434c-1.952 0-3.09.434-3.09.434l-5.046 15.654a76.35 76.35 0 0 0-1.68 6.121h-.217s-.49-2.981-1.465-6.066l-4.99-15.71"/>
	<path fill="none" stroke="#231f20" stroke-width=".533" d="M242.837 196.264s-1.14-.434-3.527-.434c-2.224 0-3.525.434-3.525.434l9.22 27.623s1.628.433 4.231.433c2.442 0 4.231-.433 4.231-.433l9.004-27.623s-1.03-.434-3.147-.434c-1.952 0-3.09.434-3.09.434l-5.046 15.654a76.35 76.35 0 0 0-1.68 6.121h-.217s-.49-2.981-1.465-6.066z"/>
	<path fill="#231f20" d="M290.242 206.5c0-7.743-4.393-11.21-11.12-11.21-7.485 0-12.366 4.387-12.366 14.624 0 9.802 3.905 14.949 12.746 14.949 6.022 0 9.221-2.22 9.221-2.22-.054-1.896-.922-3.739-2.06-4.823 0 0-2.55 1.3-6.185 1.3-3.796 0-6.237-1.407-6.725-6.933h15.892s.597-2.219.597-5.686m-6.78-.811c0 .593-.054 1.19-.11 1.787h-9.546c.488-5.039 2.55-6.88 5.316-6.88 3.418 0 4.34 2.276 4.34 5.093"/>
	<path fill="none" stroke="#231f20" stroke-width=".533" d="M290.242 206.5c0-7.743-4.393-11.21-11.12-11.21-7.485 0-12.366 4.387-12.366 14.624 0 9.802 3.905 14.949 12.746 14.949 6.022 0 9.221-2.22 9.221-2.22-.054-1.896-.922-3.739-2.06-4.823 0 0-2.55 1.3-6.185 1.3-3.796 0-6.237-1.407-6.725-6.933h15.892s.597-2.219.597-5.686zm-6.78-.81c0 .593-.054 1.19-.11 1.787h-9.546c.488-5.039 2.55-6.88 5.316-6.88 3.418 0 4.34 2.276 4.34 5.093z"/>
	<path fill="#231f20" d="M320.292 203.522c0-4.875-2.93-8.233-8.517-8.233-2.983 0-5.532.867-7.43 2.6v-1.625s-1.194-.434-3.418-.434c-2.386 0-3.416.434-3.416.434v27.623s1.03.433 3.416.433c2.224 0 3.419-.433 3.419-.433v-21.069c1.3-1.245 2.981-2.004 4.772-2.004 3.09 0 4.34 1.57 4.34 3.9v19.173s1.029.433 3.415.433c2.224 0 3.419-.433 3.419-.433v-20.365"/>
	<path fill="none" stroke="#231f20" stroke-width=".533" d="M320.292 203.522c0-4.875-2.93-8.233-8.517-8.233-2.983 0-5.532.867-7.43 2.6v-1.625s-1.194-.434-3.418-.434c-2.386 0-3.416.434-3.416.434v27.623s1.03.433 3.416.433c2.224 0 3.419-.433 3.419-.433v-21.069c1.3-1.245 2.981-2.004 4.772-2.004 3.09 0 4.34 1.57 4.34 3.9v19.173s1.029.433 3.415.433c2.224 0 3.419-.433 3.419-.433z"/>
</svg>
