<svg xmlns="http://www.w3.org/2000/svg" xmlns:xlink="http://www.w3.org/1999/xlink" viewBox="-1.96 -2.46 153.79 137.41">
	<defs>
		<linearGradient id="c" x1="0" x2="1" y1="0" y2="0" gradientTransform="scale(249.99186 -249.99186) rotate(-30 -3.036 -1.731)" gradientUnits="userSpaceOnUse" spreadMethod="pad" xlink:href="#a"/>
		<linearGradient id="a" x1="0" x2="1" y1="0" y2="0" gradientTransform="scale(249.99186 -249.99186) rotate(-30 -3.036 -1.731)" gradientUnits="userSpaceOnUse" spreadMethod="pad">
			<stop offset="0" stop-color="#4c4d4f"/>
			<stop offset=".158" stop-color="#4c4d4f"/>
			<stop offset=".6" stop-color="#b2b4b6"/>
			<stop offset="1" stop-color="#808285"/>
		</linearGradient>
		<clipPath id="b" clipPathUnits="userSpaceOnUse">
			<rect width="91.402" height="123.922" x="-38.528" y="29.574" fill="none" stroke-width=".249" ry="1.192"/>
		</clipPath>
		<clipPath id="d" clipPathUnits="userSpaceOnUse">
			<path d="M0 1000h1000V0H0z"/>
		</clipPath>
	</defs>
	<g clip-path="url(#b)" transform="matrix(.89594 0 0 .9183 68.749 -29.18)">
		<path fill="url(#c)" d="m217.319 623.487-16.938-9.78 98.468-56.853-75.882-43.812-75.883 43.812 47.072 27.178-16.438 9.491a12.312 12.312 0 0 1-6.148 1.648c-2.156 0-4.282-.57-6.148-1.648l-46.575-26.89a11.32 11.32 0 0 1-5.647-9.779V443.147c0-4.023 2.164-7.768 5.648-9.78l16.941-9.782v113.707l75.883-43.811v-87.624l-47.071 27.177v-18.985a12.33 12.33 0 0 1 6.147-10.647l46.572-26.887c1.716-.99 3.668-1.515 5.647-1.515s3.932.525 5.647 1.515l98.473 56.854a11.317 11.317 0 0 1 5.647 9.778v19.562l-98.472-56.852v87.624l75.883 43.811v-54.354l16.442 9.491a12.333 12.333 0 0 1 6.147 10.648v53.777c0 4.022-2.163 7.77-5.648 9.779l-98.472 56.855a11.31 11.31 0 0 1-5.647 1.512c-1.98 0-3.933-.523-5.648-1.513" transform="matrix(.35278 0 0 -.35278 -70.642 252.808)"/>
		<g clip-path="url(#d)" transform="matrix(.35278 0 0 -.35278 -70.642 252.808)">
			<path fill="#f7931d" d="M260 478.62v-28.184l24.407 14.092v28.184z"/>
			<path fill="#f26521" d="m260 450.437 24.407 14.092L260 478.621z"/>
			<path fill="#8cc63f" d="M161.527 492.713v-28.186l24.407-14.092v28.185z"/>
			<path fill="#6c9d30" d="m161.527 464.528 24.407 14.093-24.407 14.093z"/>
			<path fill="#00aeef" d="m222.967 570.947-24.407-14.092 24.407-14.093 24.407 14.093z"/>
			<path fill="#008fd4" d="m222.967 542.762 24.407 14.093-24.407 14.092z"/>
		</g>
	</g>
	<path fill="#00aad4" d="M12.518 124.158q-3.38 0-6.552-.96-3.13-.96-4.966-2.546l1.878-4.215q1.795 1.42 4.382 2.337 2.63.877 5.258.877 3.256 0 4.842-1.044 1.627-1.043 1.627-2.754 0-1.252-.918-2.045-.876-.835-2.254-1.294-1.377-.459-3.756-1.043-3.338-.793-5.425-1.586-2.045-.793-3.547-2.462-1.461-1.711-1.461-4.59 0-2.421 1.294-4.383 1.335-2.003 3.964-3.172 2.671-1.168 6.51-1.168 2.672 0 5.26.668 2.587.667 4.465 1.92l-1.711 4.214q-1.92-1.126-4.007-1.71-2.086-.585-4.048-.585-3.213 0-4.8 1.085-1.543 1.085-1.543 2.88 0 1.252.876 2.045.918.793 2.295 1.252 1.378.459 3.756 1.043 3.256.751 5.342 1.586 2.087.793 3.548 2.462 1.502 1.67 1.502 4.507 0 2.421-1.335 4.382-1.294 1.962-3.965 3.13-2.671 1.169-6.51 1.169zm37.143-22.703-10.433 24.08q-1.46 3.631-3.547 5.092-2.087 1.502-5.05 1.502-1.67 0-3.297-.542-1.628-.543-2.671-1.503l2.087-3.84q.75.71 1.752 1.128 1.044.417 2.087.417 1.377 0 2.254-.71.918-.71 1.67-2.378l.375-.877-9.724-22.369h5.425L37.6 117.94l7.053-16.485zm9.85 22.578q-2.713 0-5.3-.71-2.588-.71-4.132-1.794l2.003-3.965q1.502 1.002 3.589 1.628 2.128.584 4.173.584 4.674 0 4.674-2.462 0-1.169-1.21-1.628-1.168-.459-3.798-.876-2.754-.418-4.507-.96-1.71-.543-3.005-1.878-1.252-1.377-1.252-3.798 0-3.172 2.63-5.05 2.67-1.92 7.178-1.92 2.295 0 4.59.543 2.296.5 3.756 1.377l-2.003 3.965q-2.838-1.67-6.385-1.67-2.295 0-3.506.71-1.168.668-1.168 1.795 0 1.252 1.252 1.794 1.294.501 3.965.96 2.67.417 4.382.96 1.71.542 2.92 1.836 1.253 1.294 1.253 3.673 0 3.13-2.713 5.008-2.712 1.878-7.387 1.878z"/>
	<path fill="#333" d="M86.47 101.205q3.255 0 5.801 1.418 2.588 1.42 4.048 4.007 1.461 2.587 1.461 5.968 0 3.38-1.46 6.01-1.461 2.587-4.049 4.006-2.546 1.419-5.8 1.419-2.296 0-4.216-.793-1.878-.793-3.172-2.379v2.88h-4.966V92.774h5.217v11.394q1.335-1.461 3.13-2.212 1.836-.751 4.006-.751zm-.584 18.362q2.88 0 4.716-1.92 1.878-1.92 1.878-5.05t-1.878-5.049q-1.836-1.92-4.716-1.92-1.878 0-3.38.877-1.503.834-2.38 2.42-.876 1.586-.876 3.673 0 2.087.877 3.672.876 1.586 2.379 2.463 1.502.834 3.38.834zm26.876 4.466q-3.38 0-6.093-1.46-2.712-1.462-4.257-4.049-1.502-2.63-1.502-5.926 0-3.297 1.502-5.885 1.545-2.587 4.257-4.048 2.713-1.46 6.093-1.46 3.423 0 6.135 1.46 2.713 1.46 4.215 4.048 1.545 2.588 1.545 5.885 0 3.297-1.545 5.926-1.502 2.587-4.215 4.048-2.712 1.46-6.135 1.46zm0-4.466q2.88 0 4.758-1.92 1.878-1.92 1.878-5.05t-1.878-5.049q-1.878-1.92-4.758-1.92t-4.757 1.92q-1.836 1.92-1.836 5.05t1.836 5.05q1.878 1.92 4.757 1.92zm30.34 4.174-5.717-7.721-5.76 7.72h-5.758l8.68-11.31-8.305-10.975h5.801l5.467 7.303 5.467-7.303h5.634l-8.346 10.892 8.722 11.394z"/>
</svg>
