<svg xmlns="http://www.w3.org/2000/svg" width="200" height="128">
    <path d="M174.213 58.068v-1.892h5.175c.181 0 .361.021.573.035.016.149.039.261.039.372-.01 4.25.008 8.5-.047 12.75a8.323 8.323 0 0 1-1.61 5.256 7.557 7.557 0 0 1-5.22 2.675 18.01 18.01 0 0 1-10.109-1.447c-.167-.077-.326-.173-.541-.288l1.748-3.6c1.573.438 3.026.923 4.516 1.224a7.117 7.117 0 0 0 2.5-.028c2.192-.362 3.3-1.979 2.99-4.325a6.878 6.878 0 0 1-3.4 2.125 7.127 7.127 0 0 1-8.749-6.327 8.331 8.331 0 0 1 1.642-6.256 6.925 6.925 0 0 1 10.079-.651c.082.079.167.153.414.377zm-3.241 2.271a3.166 3.166 0 1 0 3.323 3.12 3.138 3.138 0 0 0-3.323-3.12zm-53.13-2.374v-1.747h5.768c.017.2.045.376.045.555 0 4.018.026 8.036-.008 12.054a9.3 9.3 0 0 1-1.461 5.529 7.405 7.405 0 0 1-5.385 2.906 17.952 17.952 0 0 1-10.177-1.462c-.1-.049-.21-.1-.312-.158a1.558 1.558 0 0 1-.159-.133l1.793-3.7c1.047.389 2 .815 3 1.1a8.658 8.658 0 0 0 4.088.221 3.489 3.489 0 0 0 2.825-4.286c-.12.11-.222.194-.314.289a6.411 6.411 0 0 1-6.9 1.615 6.517 6.517 0 0 1-4.734-5.224 8.209 8.209 0 0 1 1.633-7.379 6.988 6.988 0 0 1 9.647-.7c.174.143.352.278.651.52zm.111 5.521a3.308 3.308 0 0 0-6.608-.015 3.306 3.306 0 0 0 6.608.015zm-81.246-6.6q2.94 7.37 5.882 14.737c.282.706.083 1.1-.681 1.2a3 3 0 0 1-1.17-.1c-.574-.165-1.121-.422-1.75-.668l-1.8 4.056a21.933 21.933 0 0 0 2.652.992c5.027 1.184 7.131-.466 8.526-4.076 2.126-5.5 4.161-11.033 6.231-16.554a1.324 1.324 0 0 0 .031-.295c-1.74 0-3.444.026-5.147-.014a.791.791 0 0 0-.919.677c-.87 2.853-1.772 5.7-2.666 8.541a4.321 4.321 0 0 1-.208.454 19.93 19.93 0 0 1-.219-.625c-.931-2.811-1.854-5.625-2.8-8.429-.079-.233-.338-.573-.519-.577-1.864-.042-3.729-.026-5.7-.026.116.321.18.514.257.705zm105.362 15.632h5.7v-4.5c0-1.587-.031-3.177.038-4.762a2.328 2.328 0 0 1 2.346-2.311 2.277 2.277 0 0 1 2.257 2.3c.025.3.025.607.025.91v8.358h5.733c0-3.817.055-7.595-.022-11.371a4.917 4.917 0 0 0-2.893-4.752 5.658 5.658 0 0 0-6.019.594c-.492.368-.92.821-1.48 1.328v-2.1h-5.683zM102.4 64.37a8.593 8.593 0 0 1-7.546 8.464 9.145 9.145 0 0 1-8.2-2.643 7.952 7.952 0 0 1-1.879-8.432 8.173 8.173 0 0 1 6.673-5.718c3.774-.686 7.042.3 9.435 3.472a7.885 7.885 0 0 1 1.517 4.857zm-5.608.058a3.523 3.523 0 0 0-3.467-3.7 3.455 3.455 0 0 0-3.392 3.614 3.6 3.6 0 0 0 3.425 3.7 3.411 3.411 0 0 0 3.43-3.614zm-36.737 7.93a11.407 11.407 0 0 0 7.418-.086 4.841 4.841 0 0 0 3.164-4.823 4.361 4.361 0 0 0-3-4.291c-.9-.382-1.841-.655-2.762-.982-.723-.256-1.464-.475-2.157-.8-.24-.112-.536-.527-.488-.727a1.057 1.057 0 0 1 .684-.649 3.39 3.39 0 0 1 1.52.013c1.313.362 2.6.818 3.968 1.259l1.98-3.655a38.488 38.488 0 0 0-3.843-1.388 9.438 9.438 0 0 0-6.893.513 4.86 4.86 0 0 0-2.66 4.858 4.3 4.3 0 0 0 2.853 3.96 18.807 18.807 0 0 0 1.83.687c.863.28 1.75.492 2.607.791.526.184 1.248.324 1.075 1.123-.162.748-.889.611-1.441.711-.043.008-.091-.018-.137-.02a10.5 10.5 0 0 1-4.763-1.478c-.214-.123-.43-.243-.673-.38L56.2 70.467a11.159 11.159 0 0 0 3.851 1.891zM29.676 56.073a9.432 9.432 0 0 0-6.214.666A4.808 4.808 0 0 0 20.8 60.97a4.224 4.224 0 0 0 2.234 4.264 15.326 15.326 0 0 0 2.376 1c.923.323 1.881.543 2.807.854.474.16 1.064.327.975 1-.094.7-.741.808-1.245.741a23.858 23.858 0 0 1-3.538-.71 15.464 15.464 0 0 1-2.288-1.082L20 70.476c.284.2.5.363.739.506a13.232 13.232 0 0 0 7.268 1.926 8.1 8.1 0 0 0 3.781-.872 4.872 4.872 0 0 0 2.638-4.525 4.172 4.172 0 0 0-2.559-4.136c-1-.483-2.083-.8-3.131-1.185-.763-.281-1.545-.519-2.284-.854a.877.877 0 0 1-.421-.7.866.866 0 0 1 .567-.59 4.026 4.026 0 0 1 1.653-.022c1.316.349 2.6.815 3.962 1.254l1.895-3.5a11.462 11.462 0 0 0-4.432-1.705zm50.643-5.553h-5.725v22.016h5.725zm47.6 10.077v5.014h9.82c.016-.212.039-.372.039-.531v-4.483z" fill="#0faada"/>
</svg>
