<svg version="1.1" id="Layer_1" xmlns="http://www.w3.org/2000/svg" x="0" y="0" viewBox="0 0 500 84.2" style="enable-background:new 0 0 500 84.2" xml:space="preserve">
	<style>
		.st0{fill:#04aada}
	</style>
	<switch>
		<g>
			<path class="st0" d="m0 62.4 6.7-10.9c5.8 3.9 12.3 5.8 17.5 5.8 3.1 0 4.5-.9 4.5-2.7v-.2c0-2-2.8-2.8-8.2-4.3-10.1-2.6-18.1-6-18.1-16.3v-.2c0-10.9 8.7-16.9 20.5-16.9 7.4 0 15.2 2.2 21 5.9L37.8 34c-5.3-2.9-11-4.7-15.1-4.7-2.7 0-4.1 1-4.1 2.5v.2c0 2 2.9 2.9 8.3 4.5C37 39.3 45 42.8 45 52.7v.2C45 64.1 36.6 70 24.2 70 15.6 70 7.1 67.5 0 62.4z"/>
			<path class="st0" d="m53.8 79.8 5.5-12.5c2.8 1.7 5.8 2.7 7.8 2.7 1.8 0 3-.5 4.1-2.1l-20-50.1H70l10.2 30.7L90 17.8h18.4L89.7 67.6c-4.4 11.9-9.2 16.6-19.4 16.6-6.4 0-11.8-1.8-16.5-4.4z"/>
			<path class="st0" d="m113.2 62.4 6.7-10.9c5.8 3.9 12.3 5.8 17.5 5.8 3.1 0 4.5-.9 4.5-2.7v-.2c0-2-2.8-2.8-8.2-4.3-10.1-2.6-18.1-6-18.1-16.3v-.2c0-10.9 8.7-16.9 20.5-16.9 7.4 0 15.2 2.2 21 5.9L151 34c-5.3-2.9-11-4.7-15.1-4.7-2.7 0-4.1 1-4.1 2.5v.2c0 2 2.9 2.9 8.3 4.5 10.1 2.8 18.1 6.3 18.1 16.2v.2c0 11.2-8.4 17.1-20.8 17.1-8.7 0-17.2-2.5-24.2-7.6z"/>
			<path class="st0" d="M170.6 0h17.9v68.8h-17.9V0z"/>
			<path class="st0" d="M201.1 43.6v-.2c0-14.5 11.9-26.7 28.3-26.7 16.3 0 28.1 12 28.1 26.5v.2c0 14.5-11.9 26.7-28.3 26.7-16.3 0-28.1-12-28.1-26.5zm39 0v-.2c0-6.2-4.5-11.5-10.9-11.5-6.5 0-10.6 5.2-10.6 11.3v.2c0 6.2 4.5 11.5 10.9 11.5s10.6-5.2 10.6-11.3z"/>
			<path class="st0" d="m269.3 78.3 5.8-11.9c5.5 3 10.9 4.8 17.8 4.8 9 0 13.4-4.4 13.4-12.5v-2c-3.6 4.1-8.3 7.6-15.7 7.6-12.5 0-22.6-9.1-22.6-23.7v-.2c0-14.7 10.3-23.8 22.1-23.8 7.6 0 12.2 3.1 16 7.2v-6.1H324v38.7c0 9.3-2.1 15.8-6.6 20.4-4.6 4.6-11.8 7.2-22.4 7.2-10.1.1-18.4-2-25.7-5.7zm37-37.7v-.2c0-5.7-4.3-9.8-10.4-9.8-6.1 0-10.5 4.2-10.5 9.9v.2c0 5.7 4.3 9.8 10.5 9.8 6 0 10.4-4.2 10.4-9.9z"/>
			<path class="st0" d="M337.2 31.5h30.9v15.7h-30.9V31.5z"/>
			<path class="st0" d="M381.4 17.8h17.9V25c3.3-4.2 8-8.3 15.3-8.3 10.9 0 17.3 7.2 17.3 18.8v33.4H414V41.2c0-5.5-2.9-8.6-7.2-8.6-4.3 0-7.6 3-7.6 8.6v27.6h-17.9l.1-51z"/>
			<path class="st0" d="m445.4 78.3 5.8-11.9c5.5 3 10.9 4.8 17.8 4.8 9 0 13.4-4.4 13.4-12.5v-2c-3.6 4.1-8.3 7.6-15.7 7.6-12.5 0-22.6-9.1-22.6-23.7v-.2c0-14.7 10.3-23.8 22.1-23.8 7.6 0 12.2 3.1 16 7.2v-6.1H500v38.7c0 9.3-2.1 15.8-6.6 20.4-4.6 4.6-11.8 7.2-22.4 7.2-9.9.1-18.2-2-25.6-5.7zm37-37.7v-.2c0-5.7-4.3-9.8-10.4-9.8-6.1 0-10.5 4.2-10.5 9.9v.2c0 5.7 4.3 9.8 10.5 9.8 6 0 10.4-4.2 10.4-9.9z"/>
		</g>
	</switch>
</svg>
