<svg xmlns="http://www.w3.org/2000/svg" width="200" height="128">
	<path d="M72.066 100.248a3.136 3.136 0 0 1-1.28 2.694 6.131 6.131 0 0 1-3.666.939 8.679 8.679 0 0 1-3.85-.726v-2.2a9.448 9.448 0 0 0 3.937.976q2.353 0 2.354-1.419a1.133 1.133 0 0 0-.261-.762 3.108 3.108 0 0 0-.856-.627 14.614 14.614 0 0 0-1.66-.737 7.731 7.731 0 0 1-2.8-1.6 2.982 2.982 0 0 1-.732-2.083 2.735 2.735 0 0 1 1.239-2.403 5.885 5.885 0 0 1 3.378-.852 9.557 9.557 0 0 1 4 .858l-.824 1.919a8.91 8.91 0 0 0-3.265-.8q-2.017 0-2.017 1.15a1.155 1.155 0 0 0 .526.954 11.563 11.563 0 0 0 2.296 1.071 10.545 10.545 0 0 1 2.158 1.051 3.133 3.133 0 0 1 1 1.1 3.194 3.194 0 0 1 .323 1.497zm.934-8.58h2.776l2.441 6.8a12.863 12.863 0 0 1 .737 2.733h.087a11.463 11.463 0 0 1 .358-1.45q.261-.852 2.755-8.085h2.755l-5.13 13.589Q78.379 109 75.114 109a7.287 7.287 0 0 1-1.649-.185V106.8a5.968 5.968 0 0 0 1.313.13 2.689 2.689 0 0 0 2.592-2.137l.445-1.128zm21.789 8.58a3.136 3.136 0 0 1-1.28 2.694 6.133 6.133 0 0 1-3.666.939 8.684 8.684 0 0 1-3.851-.726v-2.2a9.452 9.452 0 0 0 3.938.976q2.352 0 2.353-1.419a1.138 1.138 0 0 0-.26-.762 3.131 3.131 0 0 0-.857-.627 14.586 14.586 0 0 0-1.659-.737 7.728 7.728 0 0 1-2.805-1.6 2.981 2.981 0 0 1-.731-2.083 2.736 2.736 0 0 1 1.242-2.403 5.885 5.885 0 0 1 3.378-.852 9.557 9.557 0 0 1 4 .858l-.824 1.919a8.9 8.9 0 0 0-3.265-.8q-2.017 0-2.017 1.15a1.153 1.153 0 0 0 .527.954 11.575 11.575 0 0 0 2.295 1.071 10.518 10.518 0 0 1 2.158 1.051 3.133 3.133 0 0 1 1 1.1 3.194 3.194 0 0 1 .324 1.497zm7.223 1.572a6.142 6.142 0 0 0 1.865-.294v1.921a5.109 5.109 0 0 1-1.09.309 7.51 7.51 0 0 1-1.382.125q-3.623 0-3.623-3.818V93.6h-1.638v-1.129l1.757-.933.868-2.538h1.573v2.668h3.416V93.6h-3.416v6.421a1.794 1.794 0 0 0 .461 1.36 1.675 1.675 0 0 0 1.209.439zm9.501 2.061a5.808 5.808 0 0 1-4.377-1.633 6.2 6.2 0 0 1-1.577-4.5 6.8 6.8 0 0 1 1.464-4.619 5.053 5.053 0 0 1 4.024-1.682 4.944 4.944 0 0 1 3.752 1.442 5.516 5.516 0 0 1 1.378 3.971v1.377h-7.994a3.944 3.944 0 0 0 .944 2.684 3.286 3.286 0 0 0 2.505.938 9.237 9.237 0 0 0 1.98-.2 10.365 10.365 0 0 0 1.968-.659v2.072a7.8 7.8 0 0 1-1.887.627 11.391 11.391 0 0 1-2.18.182zm-.466-10.5a2.56 2.56 0 0 0-1.947.769 3.664 3.664 0 0 0-.873 2.246h5.444a3.32 3.32 0 0 0-.715-2.25 2.446 2.446 0 0 0-1.909-.764zm18.134 10.283h-2.56v-7.4a3.353 3.353 0 0 0-.52-2.055 1.922 1.922 0 0 0-1.627-.678 2.477 2.477 0 0 0-2.163.96 5.621 5.621 0 0 0-.69 3.195v5.975h-2.548v-12h2l.358 1.572h.13a3.318 3.318 0 0 1 1.449-1.321 4.65 4.65 0 0 1 2.087-.468q2.766 0 3.666 1.887h.174a3.658 3.658 0 0 1 1.5-1.388 4.75 4.75 0 0 1 2.213-.5 4.025 4.025 0 0 1 3.129 1.085 4.806 4.806 0 0 1 .982 3.307v7.821H134.2v-7.4a3.33 3.33 0 0 0-.526-2.055 1.938 1.938 0 0 0-1.633-.678 2.535 2.535 0 0 0-2.175.926 4.8 4.8 0 0 0-.688 2.848z" fill="#555"/>
	<path d="M122.887 49a23.578 23.578 0 0 0-.214-3.153l5.427-7.407a30 30 0 0 0-4.94-8.533L114 30.933a22.916 22.916 0 0 0-5.333-3.106l-3.714-8.42a30 30 0 0 0-9.853 0l-3.767 8.42A22.916 22.916 0 0 0 86 30.933l-9.16-1a30.009 30.009 0 0 0-4.94 8.534l5.433 7.406a23.542 23.542 0 0 0-.22 3.127 23.962 23.962 0 0 0 .22 3.133l-5.433 7.4a30.009 30.009 0 0 0 4.94 8.534l9.087-.994a22.665 22.665 0 0 0 5.46 3.167l3.686 8.353a30.008 30.008 0 0 0 9.854 0l3.686-8.353a22.665 22.665 0 0 0 5.46-3.167l9.087.994a30.009 30.009 0 0 0 4.94-8.534l-5.433-7.4a23.962 23.962 0 0 0 .22-3.133zM100 64.013A15.013 15.013 0 1 1 115.013 49 15.012 15.012 0 0 1 100 64.013z" fill="#ffcb6b"/>
</svg>
