<svg xmlns="http://www.w3.org/2000/svg" width="200" height="128">
    <g fill="#555">
        <path d="M65.011 100.247a3.124 3.124 0 0 1-1.273 2.681 6.093 6.093 0 0 1-3.645.932 8.617 8.617 0 0 1-3.828-.722v-2.19a9.379 9.379 0 0 0 3.914.971q2.34 0 2.341-1.413a1.124 1.124 0 0 0-.259-.755 3.081 3.081 0 0 0-.853-.625 14.559 14.559 0 0 0-1.649-.733 7.653 7.653 0 0 1-2.788-1.6 2.952 2.952 0 0 1-.729-2.071 2.718 2.718 0 0 1 1.236-2.378 5.852 5.852 0 0 1 3.359-.847 9.5 9.5 0 0 1 3.979.853L64 94.262a8.852 8.852 0 0 0-3.246-.8q-2.007 0-2.006 1.143a1.151 1.151 0 0 0 .523.95 11.543 11.543 0 0 0 2.281 1.067 10.433 10.433 0 0 1 2.145 1.046 3.122 3.122 0 0 1 .993 1.095 3.172 3.172 0 0 1 .321 1.484zM65.938 91.717H68.7l2.427 6.762a12.8 12.8 0 0 1 .733 2.717h.086a11.506 11.506 0 0 1 .357-1.439q.258-.848 2.739-8.04h2.739l-5.1 13.512q-1.39 3.721-4.637 3.721a7.315 7.315 0 0 1-1.64-.182v-2.006a5.964 5.964 0 0 0 1.305.129 2.672 2.672 0 0 0 2.578-2.125l.442-1.121zM87.6 100.247a3.121 3.121 0 0 1-1.273 2.681 6.093 6.093 0 0 1-3.645.932 8.625 8.625 0 0 1-3.829-.722v-2.19a9.39 9.39 0 0 0 3.915.971q2.34 0 2.34-1.413a1.123 1.123 0 0 0-.258-.755 3.09 3.09 0 0 0-.85-.625 14.588 14.588 0 0 0-1.65-.733 7.677 7.677 0 0 1-2.789-1.6 2.955 2.955 0 0 1-.727-2.071 2.719 2.719 0 0 1 1.234-2.378 5.86 5.86 0 0 1 3.36-.847 9.5 9.5 0 0 1 3.979.853l-.819 1.908a8.852 8.852 0 0 0-3.246-.8q-2.005 0-2.006 1.143a1.151 1.151 0 0 0 .523.95 11.573 11.573 0 0 0 2.281 1.067 10.447 10.447 0 0 1 2.146 1.046 2.907 2.907 0 0 1 1.316 2.577zM94.786 101.812a6.173 6.173 0 0 0 1.855-.292v1.909a5.166 5.166 0 0 1-1.084.307 7.529 7.529 0 0 1-1.375.124q-3.6 0-3.6-3.8v-6.423h-1.631v-1.122l1.747-.927.864-2.524h1.563v2.653h3.4v1.92h-3.4v6.384a1.788 1.788 0 0 0 .459 1.353 1.666 1.666 0 0 0 1.202.438zM104.233 103.86a5.768 5.768 0 0 1-4.351-1.623 6.162 6.162 0 0 1-1.57-4.47 6.756 6.756 0 0 1 1.457-4.594 5.028 5.028 0 0 1 4-1.672 4.912 4.912 0 0 1 3.731 1.435 5.481 5.481 0 0 1 1.37 3.947v1.369h-7.948a3.917 3.917 0 0 0 .937 2.67 3.272 3.272 0 0 0 2.492.932 9.19 9.19 0 0 0 1.968-.2 10.31 10.31 0 0 0 1.957-.664v2.061a7.762 7.762 0 0 1-1.876.625 11.521 11.521 0 0 1-2.167.184zm-.463-10.439a2.543 2.543 0 0 0-1.936.766 3.645 3.645 0 0 0-.868 2.232h5.414a3.3 3.3 0 0 0-.712-2.237 2.436 2.436 0 0 0-1.898-.761zM121.8 103.645h-2.545v-7.356a3.335 3.335 0 0 0-.518-2.043 1.909 1.909 0 0 0-1.617-.674 2.469 2.469 0 0 0-2.152.954 5.606 5.606 0 0 0-.685 3.176v5.943h-2.533V91.717h1.984l.356 1.563h.13a3.3 3.3 0 0 1 1.439-1.315 4.644 4.644 0 0 1 2.076-.464q2.749 0 3.646 1.877h.172A3.633 3.633 0 0 1 123.041 92a4.732 4.732 0 0 1 2.2-.5 4.008 4.008 0 0 1 3.112 1.079 4.78 4.78 0 0 1 .976 3.289v7.776h-2.535v-7.355a3.307 3.307 0 0 0-.523-2.043 1.925 1.925 0 0 0-1.623-.674 2.514 2.514 0 0 0-2.162.922 4.75 4.75 0 0 0-.685 2.831zM136.889 103.86a4.153 4.153 0 0 1-3.484-1.618 8.864 8.864 0 0 1 .016-9.107 4.2 4.2 0 0 1 3.511-1.634 4.113 4.113 0 0 1 3.58 1.736h.13a15.07 15.07 0 0 1-.184-2.027v-4.346H143v16.781h-1.984l-.443-1.564h-.118a4.051 4.051 0 0 1-3.566 1.779zm.678-2.048a2.761 2.761 0 0 0 2.277-.879 4.637 4.637 0 0 0 .732-2.853v-.356a5.354 5.354 0 0 0-.732-3.2 2.725 2.725 0 0 0-2.3-.949 2.333 2.333 0 0 0-2.06 1.083 5.563 5.563 0 0 0-.722 3.09 5.414 5.414 0 0 0 .7 3.026 2.365 2.365 0 0 0 2.105 1.038z"/>
    </g>
    <path d="M106.47 76.305a2.01 2.01 0 0 1 1.311-2.512 2.015 2.015 0 0 1 2.511 1.31 2.01 2.01 0 0 1-1.309 2.512l-.107.027a2 2 0 0 1-2.406-1.337zm-3.84 2.581a2.013 2.013 0 0 1-2.178-1.819 1.994 1.994 0 0 1 1.811-2.165 2 2 0 0 1 2.175 1.809 2.006 2.006 0 0 1-1.494 2.115c-.106.027-.206.042-.314.06zm9.557-4.608a2 2 0 0 1 .739-2.727 2 2 0 0 1 2.736.735 2.005 2.005 0 0 1-.748 2.73 1.841 1.841 0 0 1-.5.2 2.007 2.007 0 0 1-2.227-.938zm-16.051 4.48a1.991 1.991 0 0 1-1.725-2.233 2 2 0 0 1 2.242-1.725v-.01a2.01 2.01 0 0 1 1.729 2.242 1.988 1.988 0 0 1-1.491 1.681 1.917 1.917 0 0 1-.755.045zm21.2-7.692a2 2 0 0 1 .134-2.831 2.005 2.005 0 0 1 2.831.134 2.007 2.007 0 0 1-.136 2.821 1.993 1.993 0 0 1-.852.465 2.023 2.023 0 0 1-1.981-.589zm-27.5 6.173a2.006 2.006 0 0 1-1.2-2.562 1.994 1.994 0 0 1 2.553-1.2 1.985 1.985 0 0 1 1.208 2.55A1.988 1.988 0 0 1 91 77.291a1.991 1.991 0 0 1-1.165-.052zm31.83-10.427a1.989 1.989 0 0 1-.474-2.789 2 2 0 0 1 2.788-.475 2.007 2.007 0 0 1 .475 2.789 2 2 0 0 1-1.144.778 1.967 1.967 0 0 1-1.646-.303zM84.012 74.4a1.986 1.986 0 0 1-.632-2.759 1.993 1.993 0 0 1 2.75-.631 2 2 0 0 1 .631 2.76 1.96 1.96 0 0 1-1.191.872 1.994 1.994 0 0 1-1.558-.242zm40.969-12.668a1.993 1.993 0 0 1-1.06-2.618 1.994 1.994 0 0 1 2.619-1.061 2.005 2.005 0 0 1 1.071 2.616 2 2 0 0 1-1.356 1.162 1.968 1.968 0 0 1-1.274-.098zm-46.06 8.652v-.009a1.991 1.991 0 0 1-.019-2.823 1.992 1.992 0 0 1 2.823-.02 2 2 0 0 1 .029 2.821 1.945 1.945 0 0 1-.936.538 2 2 0 0 1-1.897-.506zm48.225-14.323a1.992 1.992 0 0 1-1.6-2.325 2 2 0 0 1 2.335-1.608 2 2 0 0 1 1.6 2.338A2 2 0 0 1 128 56.041a1.9 1.9 0 0 1-.854.021zm-52.335 9.3a2.006 2.006 0 0 1 .593-2.773 1.985 1.985 0 0 1 2.76.585 2 2 0 0 1-.582 2.771 2 2 0 0 1-.6.254 2.015 2.015 0 0 1-2.171-.832zm53.219-15.3a2.015 2.015 0 0 1-2.072-1.937 1.992 1.992 0 0 1 1.929-2.062A2 2 0 0 1 129.959 48a2 2 0 0 1-1.5 2 2.043 2.043 0 0 1-.429.067zm-56.144 9.5A2 2 0 0 1 73.067 57a2 2 0 0 1 2.57 1.171 1.991 1.991 0 0 1-1.172 2.569 1.38 1.38 0 0 1-.21.065 2 2 0 0 1-2.369-1.236zm53.279-17.006v-.01c-.007-.029-.024-.056-.032-.085a2 2 0 0 1 1.441-2.442A1.99 1.99 0 0 1 129 41.46c.014.016.01.038.017.067l.013.049a1.992 1.992 0 0 1-1.434 2.43 1.994 1.994 0 0 1-2.431-1.443zM72.543 54.984a2 2 0 0 1-2.269-1.691v.01a2 2 0 0 1 1.691-2.269 1.985 1.985 0 0 1 2.267 1.681 2 2 0 0 1-1.486 2.227 1.566 1.566 0 0 1-.203.042zm50.6-17.779a1.988 1.988 0 0 1 .884-2.682 1.984 1.984 0 0 1 2.68.874h.009a2.01 2.01 0 0 1-.881 2.692 2.213 2.213 0 0 1-.414.157 2 2 0 0 1-2.273-1.041zM71.89 48.948a1.988 1.988 0 0 1-1.845-2.13v-.01a2 2 0 0 1 2.14-1.846 2 2 0 0 1 1.846 2.14 2 2 0 0 1-1.5 1.8 1.96 1.96 0 0 1-.641.046zm48.191-16.44a1.993 1.993 0 0 1 .272-2.815 2 2 0 0 1 2.815.272 2 2 0 0 1-.272 2.815 1.963 1.963 0 0 1-.777.394 2.006 2.006 0 0 1-2.038-.666zm-47.52 10.417a2 2 0 0 1-1.349-2.493 2 2 0 0 1 2.488-1.338 1.991 1.991 0 0 1 1.346 2.485 1.987 1.987 0 0 1-1.427 1.366 1.99 1.99 0 0 1-1.058-.02zm43.5-14.346a2 2 0 0 1-.336-2.814 2 2 0 0 1 2.805-.334 2.007 2.007 0 0 1 .336 2.814 2.029 2.029 0 0 1-1.071.7 2 2 0 0 1-1.731-.366zm-41.555 8.6a1.993 1.993 0 0 1-.785-2.71 2 2 0 0 1 2.72-.787 2.013 2.013 0 0 1 .787 2.719 2.007 2.007 0 0 1-1.259.972 1.959 1.959 0 0 1-1.46-.198zM111.3 25.6a2 2 0 0 1-.931-2.674 2 2 0 0 1 2.674-.93 2.008 2.008 0 0 1 .929 2.673 2 2 0 0 1-1.306 1.067 1.963 1.963 0 0 1-1.366-.136zm-33.659 6.378a2.005 2.005 0 0 1-.183-2.822v.01a2 2 0 0 1 2.822-.184 2 2 0 0 1 .184 2.822 2.053 2.053 0 0 1-1.008.619 1.993 1.993 0 0 1-1.815-.445zm28.365-8.273a2.013 2.013 0 0 1-1.484-2.418 2 2 0 0 1 2.41-1.472 2 2 0 0 1 1.483 2.409 2 2 0 0 1-1.451 1.474 2.039 2.039 0 0 1-.958.007zM81.813 27.58a2 2 0 0 1 .432-2.794 1.989 1.989 0 0 1 2.794.433 2 2 0 0 1-.432 2.794 1.911 1.911 0 0 1-.683.318 1.991 1.991 0 0 1-2.111-.751zm18.614-4.586a1.992 1.992 0 0 1-1.962-2.028A1.989 1.989 0 0 1 100.5 19a2 2 0 0 1 1.962 2.027 2.006 2.006 0 0 1-1.506 1.9 2.023 2.023 0 0 1-.529.067zm-13.589 1.188a2 2 0 0 1 1.03-2.638 2.009 2.009 0 0 1 2.632 1.021 2 2 0 0 1-1.03 2.637v.009c-.1.038-.208.074-.315.1a2 2 0 0 1-2.317-1.129zm7.994-.668a2 2 0 0 1-2.351-1.568 2 2 0 0 1 1.555-2.357 2 2 0 0 1 2.36 1.564 2 2 0 0 1-1.468 2.336zm10.733 47.4a18.65 18.65 0 0 1-.865.2 2 2 0 0 1-2.372-1.539 1.969 1.969 0 0 1 1.539-2.373c.237-.05.472-.106.709-.167a18.639 18.639 0 0 0 13.436-22.647 2.036 2.036 0 0 1 1.434-2.473 1.963 1.963 0 0 1 2.422 1.4l.036.15a22.629 22.629 0 0 1-16.339 27.451zM94.917 70.8a1.977 1.977 0 0 1-1.032-.013 22.63 22.63 0 0 1-15.449-28.725 2 2 0 1 1 3.807 1.229 18.631 18.631 0 0 0 12.721 23.646 2 2 0 0 1-.047 3.864zm20.822-33.725a2 2 0 0 1-1.976-.592 18.632 18.632 0 0 0-26.838-.776 2 2 0 0 1-2.806-2.852 22.633 22.633 0 0 1 32.6.937 2 2 0 0 1-.983 3.283zm-12.38 25.2a13.868 13.868 0 1 1 10.008-16.868 13.884 13.884 0 0 1-10.008 16.87zm-5.871-23a9.868 9.868 0 1 0 12 7.121 9.881 9.881 0 0 0-12-7.118zm1.745 6.835a2.815 2.815 0 1 0 3.423 2.031 2.813 2.813 0 0 0-3.423-2.028z" fill="#66ffab"/>
</svg>
