<svg xmlns="http://www.w3.org/2000/svg" viewBox="12.97 80.97 729.56 174.56">
	<g fill="#e20975">
		<path d="M545.328 118.74c3.265 0 6.042-1.15 8.336-3.443 2.229-2.298 3.342-5.044 3.342-8.24 0-3.191-1.155-5.94-3.453-8.235-2.21-2.298-4.896-3.443-8.015-3.443-3.274 0-6.055 1.116-8.343 3.337-2.367 2.23-3.55 5.008-3.55 8.34 0 3.197 1.146 5.943 3.442 8.241 2.226 2.293 4.973 3.443 8.24 3.443M255.96 201.112l-30.45-104.689h-41.294v6.783h3.964c3.195 0 5.63.276 7.297.831 2.851.903 4.691 3.058 5.526 6.459.418 1.533.629 4.768.629 9.697v82.491c0 7.71-.248 13.179-.732 16.37-.696 4.236-2.227 7.406-4.592 9.49-2.497 2.221-5.386 3.326-8.649 3.326h-3.443v6.887h44.109v-6.887h-2.815c-7.716 0-12.617-3.702-14.704-11.149-.693-2.707-1.04-8.718-1.04-18.037v-93.332L247.3 238.757h6.572l37.645-129.405v101.566c0 4.798-.211 8.724-.628 11.789-.279 2.57-1.144 4.549-2.604 5.945-2.227 2.152-6.015 3.218-11.37 3.218h-1.773v6.887h53.498v-6.887h-2.92c-7.368 0-11.821-2.172-13.348-6.562-.764-2.37-1.146-7.157-1.146-14.39v-86.65c0-4.802.206-8.767.624-11.893.278-2.503 1.148-4.448 2.605-5.84 2.157-2.219 5.909-3.33 11.265-3.33h2.92v-6.782h-41.607l-31.074 104.69m118.249 33.793c-7.643 0-13.209-3.548-16.689-10.637-3.888-8.07-5.833-19.957-5.833-35.674 0-18.966 3.161-31.723 9.488-38.263 3.822-3.957 8.169-5.946 13.034-5.946 3.132 0 6.01.806 8.654 2.397 3.891 2.439 6.847 5.913 8.864 10.437 3.27 7.299 4.905 17.974 4.905 32.005 0 30.458-7.478 45.681-22.423 45.681zm0-97.403c-13.346 0-24.157 5.255-32.431 15.75-7.228 9.175-10.844 21.31-10.844 36.388 0 15.022 3.616 27.152 10.844 36.404 8.205 10.501 18.805 15.737 31.807 15.737 13.762 0 24.747-5.236 32.95-15.737 7.226-9.252 10.845-21.452 10.845-36.607 0-14.94-3.619-27.01-10.845-36.184-8.272-10.496-19.049-15.75-32.326-15.75m100.416 95.94c-3.692 0-6.989-.974-9.904-2.911-3.548-2.365-6.263-5.576-8.138-9.61-3.537-7.573-5.316-18.305-5.316-32.222 0-17.999 3.752-30.437 11.258-37.323 4.036-3.616 8.379-5.419 13.039-5.419 6.6 0 11.575 3.47 14.915 10.424 3.542 7.504 5.319 18.14 5.319 31.9 0 30.11-7.061 45.16-21.173 45.16zm3.753-95c-6.955 0-13.071 2.125-18.35 6.36-2.85 2.3-5.178 5.499-6.982 9.6V94.962l-30.45 1.461v6.575h1.561c4.033 0 6.783.868 8.244 2.602 1.734 1.87 2.6 6.672 2.6 14.39v97.705c0 8.765-.31 14.564-.932 17.415-.075.418-.458 1.639-1.153 3.647h7.087c1.595-2.574 3.1-4.83 4.492-6.78 1.52-2.22 2.912-3.325 4.164-3.325 1.041 0 2.257.552 3.65 1.668 3.62 2.986 5.978 4.829 7.091 5.527 5.283 3.404 11.09 5.111 17.41 5.111 11.68 0 21.104-4.829 28.262-14.498 7.647-10.365 11.47-23.216 11.47-38.591 0-16.117-4.271-28.946-12.823-38.467-6.606-7.304-15.049-10.957-25.34-10.957m174.875 24.919c3.401-12.229 9.21-18.346 17.416-18.346 7.293 0 12.653 4.973 16.049 14.913 1.875 5.629 2.82 12.79 2.82 21.482h-38.476c.072-7.092.799-13.114 2.191-18.049zm40.351 61.323c-4.933 5.846-11.086 8.757-18.452 8.757-9.453 0-16.136-4.655-20.018-13.978-2.793-6.6-4.21-16.782-4.278-30.552h58.385c-.412-11.673-2.603-21.449-6.567-29.291-7.365-14.752-18.388-22.12-33.052-22.12-9.87 0-18.318 3.927-25.342 11.79-8.896 9.94-13.35 23.185-13.35 39.726 0 18.01 4.454 31.778 13.35 41.3 7.158 7.642 16.338 11.463 27.538 11.463 15.22 0 27.32-8.998 36.288-27.006l-6.365-3.336c-2.71 5.633-5.426 10.056-8.137 13.247m-80.914 4.895c-1.741-2.017-2.608-6.913-2.608-14.698V94.962L578.8 96.423v6.575h2.395c4.029 0 6.772.868 8.236 2.602 1.74 1.94 2.608 6.775 2.608 14.498v94.786c0 7.785-.867 12.681-2.608 14.698-1.464 1.738-4.207 2.608-8.236 2.608h-3.439v6.567h46.603v-6.567h-3.437c-3.953 0-6.71-.87-8.232-2.608m-54.123 0c-1.74-1.937-2.604-6.844-2.604-14.698V139.07l-31.288 1.46v6.674h2.397c4.028 0 6.783.84 8.247 2.497 1.726 1.951 2.602 6.783 2.602 14.504v50.68c0 7.785-.876 12.681-2.602 14.698-1.464 1.738-4.219 2.608-8.247 2.608h-3.433v6.567h46.608v-6.567h-3.437c-4.036 0-6.779-.87-8.243-2.608M115.101 161.9v28.819h28.818v-28.82h-28.818"/>
		<path d="m28.637 96.423-1.425 50.221 7.555 1.31c1.405-14.797 5.288-25.781 11.649-32.943 6.694-7.499 15.914-11.415 27.764-11.75v105.054c0 9.181-1.283 15.132-3.961 17.886-2.276 2.345-6.125 3.783-11.55 4.316-1.606.13-4.35.197-8.234.197v8.042l70.262-.003v-8.039c-3.882 0-6.626-.068-8.237-.197-5.422-.533-9.272-1.97-11.549-4.316-2.677-2.754-3.976-8.705-3.976-17.886V103.262c11.853.334 21.087 4.25 27.778 11.749 6.363 7.162 10.249 18.146 11.653 32.943l7.553-1.31-1.425-50.221H28.637"/>
		<path d="M56.032 161.899h-28.82v28.819h28.82v-28.82m662.602-12.974v-11.42h2.203l2.86 9.26 2.733-9.26h2.23v11.42h-1.56v-9.022l-2.567 9.022h-1.715l-2.65-8.854v8.854zm-6.192 0v-9.942h-3.124v-1.479h7.935v1.479h-3.138v9.942h-1.673"/>
	</g>
</svg>
