<svg xmlns="http://www.w3.org/2000/svg" height="337.413" width="755.907" xml:space="preserve">
	<path style="fill:#e20975;fill-opacity:1;fill-rule:nonzero;stroke:none" d="M4090.06 1640.09c24.49 0 45.32 8.62 62.52 25.82 16.72 17.24 25.07 37.83 25.07 61.81 0 23.93-8.66 44.55-25.9 61.76-16.58 17.23-36.72 25.82-60.11 25.82-24.56 0-45.42-8.37-62.58-25.03-17.75-16.72-26.62-37.56-26.62-62.55 0-23.98 8.59-44.57 25.81-61.81 16.7-17.2 37.3-25.82 61.81-25.82" transform="matrix(.13333 0 0 -.13333 0 337.413)"/>
	<path style="fill:#e20975;fill-opacity:1;fill-rule:nonzero;stroke:none" d="m1919.74 1022.28-228.38 785.19h-309.71v-50.87h29.73c23.96 0 42.23-2.07 54.73-6.24 21.38-6.77 35.18-22.93 41.44-48.44 3.14-11.5 4.72-35.76 4.72-72.73v-618.7c0-57.83-1.86-98.842-5.49-122.771-5.22-31.778-16.7-55.547-34.44-71.18-18.73-16.66-40.4-24.949-64.87-24.949h-25.82v-51.649h330.82v51.649h-21.11c-57.87 0-94.63 27.769-110.28 83.621-5.2 20.301-7.81 65.391-7.81 135.279v700.01l281.53-970.559h49.29l282.34 970.559V948.738c0-35.988-1.58-65.437-4.71-88.418-2.09-19.281-8.58-34.121-19.53-44.59-16.7-16.14-45.11-24.14-85.27-24.14h-13.3v-51.649h401.24v51.649h-21.9c-55.26 0-88.66 16.289-100.11 49.219-5.73 17.773-8.6 53.679-8.6 107.929v649.892c0 36.01 1.55 65.75 4.68 89.2 2.09 18.77 8.61 33.36 19.54 43.8 16.18 16.64 44.32 24.97 84.49 24.97h21.9v50.87H2152.8l-233.06-785.19" transform="matrix(.13333 0 0 -.13333 0 337.413)"/>
	<path style="fill:#e20975;fill-opacity:1;fill-rule:nonzero;stroke:none" d="M2806.63 768.82c-57.32 0-99.07 26.61-125.17 79.782-29.16 60.519-43.75 149.679-43.75 267.558 0 142.25 23.71 237.93 71.16 286.98 28.67 29.68 61.27 44.6 97.76 44.6 23.49 0 45.08-6.05 64.91-17.98 29.18-18.29 51.35-44.35 66.48-78.28 24.52-54.74 36.79-134.81 36.79-240.04 0-228.44-56.09-342.62-168.18-342.62zm0 730.54c-100.1 0-181.18-39.41-243.24-118.13-54.21-68.81-81.33-159.83-81.33-272.91 0-112.672 27.12-203.648 81.33-273.039 61.54-78.761 141.04-118.031 238.56-118.031 103.22 0 185.61 39.27 247.13 118.031 54.2 69.391 81.34 160.891 81.34 274.559 0 112.06-27.14 202.58-81.34 271.39-62.04 78.72-142.87 118.13-242.45 118.13" transform="matrix(.13333 0 0 -.13333 0 337.413)"/>
	<path style="fill:#e20975;fill-opacity:1;fill-rule:nonzero;stroke:none" d="M3559.77 779.789c-27.69 0-52.42 7.301-74.28 21.832-26.61 17.738-46.98 41.82-61.04 72.07-26.53 56.801-39.87 137.299-39.87 241.679 0 134.99 28.14 228.28 84.44 279.93 30.27 27.12 62.84 40.64 97.79 40.64 49.51 0 86.82-26.03 111.87-78.18 26.56-56.28 39.89-136.06 39.89-239.26 0-225.828-52.96-338.711-158.8-338.711zm28.15 712.511c-52.17 0-98.04-15.93-137.63-47.69-21.37-17.25-38.84-41.25-52.37-72.01v445.83l-228.38-10.96v-49.31h11.71c30.25 0 50.87-6.51 61.83-19.52 13.01-14.03 19.5-50.04 19.5-107.92V897.91c0-65.738-2.32-109.238-6.99-130.621-.56-3.129-3.43-12.289-8.65-27.348h53.16c11.96 19.301 23.25 36.219 33.69 50.848 11.4 16.652 21.84 24.941 31.23 24.941 7.81 0 16.93-4.14 27.37-12.511 27.16-22.399 44.84-36.219 53.19-41.457 39.62-25.532 83.17-38.332 130.58-38.332 87.6 0 158.28 36.218 211.97 108.742 57.35 77.738 86.03 174.118 86.03 289.438 0 120.88-32.04 217.1-96.18 288.51-49.55 54.78-112.87 82.18-190.06 82.18" transform="matrix(.13333 0 0 -.13333 0 337.413)"/>
	<path style="fill:#e20975;fill-opacity:1;fill-rule:nonzero;stroke:none" d="M4899.52 1305.4c25.51 91.72 69.07 137.6 130.62 137.6 54.7 0 94.9-37.3 120.37-111.85 14.07-42.22 21.15-95.93 21.15-161.12h-288.57c.54 53.19 5.99 98.36 16.43 135.37zm302.64-459.931c-37-43.848-83.15-65.68-138.39-65.68-70.9 0-121.03 34.91-150.14 104.832-20.95 49.508-31.58 125.869-32.09 229.149h437.9c-3.09 87.55-19.52 160.87-49.25 219.69-55.24 110.64-137.92 165.9-247.9 165.9-74.03 0-137.39-29.45-190.07-88.43-66.72-74.55-100.12-173.89-100.12-297.95 0-135.07 33.4-238.339 100.12-309.761 53.69-57.309 122.54-85.969 206.54-85.969 114.15 0 204.91 67.488 272.17 202.551l-47.74 25.019c-20.33-42.25-40.7-75.422-61.03-99.351" transform="matrix(.13333 0 0 -.13333 0 337.413)"/>
	<path style="fill:#e20975;fill-opacity:1;fill-rule:nonzero;stroke:none" d="M4595.29 808.75c-13.06 15.129-19.56 51.852-19.56 110.238v899.442l-234.62-10.96v-49.31h17.96c30.22 0 50.79-6.51 61.77-19.52 13.06-14.55 19.56-50.81 19.56-108.74V918.988c0-58.386-6.5-95.109-19.56-110.238-10.98-13.031-31.55-19.559-61.77-19.559h-25.79v-49.25h349.53v49.25h-25.78c-29.65 0-50.33 6.528-61.74 19.559" transform="matrix(.13333 0 0 -.13333 0 337.413)"/>
	<path style="fill:#e20975;fill-opacity:1;fill-rule:nonzero;stroke:none" d="M4189.36 808.75c-13.06 14.531-19.53 51.332-19.53 110.238v568.632l-234.67-10.95v-50.06h17.98c30.21 0 50.87-6.3 61.85-18.73 12.95-14.63 19.52-50.87 19.52-108.78V918.988c0-58.386-6.57-95.109-19.52-110.238-10.98-13.031-31.64-19.559-61.85-19.559h-25.75v-49.25h349.57v49.25h-25.78c-30.27 0-50.84 6.528-61.82 19.559" transform="matrix(.13333 0 0 -.13333 0 337.413)"/>
	<path style="fill:#e20975;fill-opacity:1;fill-rule:nonzero;stroke:none" d="M863.277 1316.39v-216.15h216.143v216.15H863.277" transform="matrix(.13333 0 0 -.13333 0 337.413)"/>
	<path style="fill:#e20975;fill-opacity:1;fill-rule:nonzero;stroke:none" d="m214.781 1807.47-10.683-376.67 56.66-9.82c10.539 110.98 39.664 193.36 87.367 247.08 50.211 56.24 119.363 85.61 208.238 88.12V968.262c0-68.864-9.625-113.492-29.711-134.153-17.066-17.589-45.937-28.371-86.625-32.367-12.047-.972-32.625-1.48-61.757-1.48v-60.313l526.98.02v60.293c-29.117 0-49.695.508-61.777 1.48-40.668 3.996-69.547 14.778-86.618 32.367-20.085 20.661-29.824 65.289-29.824 134.153v787.918c88.903-2.51 158.153-31.88 208.34-88.12 47.727-53.72 76.869-136.1 87.399-247.08l56.65 9.82-10.69 376.67H214.781" transform="matrix(.13333 0 0 -.13333 0 337.413)"/>
	<path style="fill:#e20975;fill-opacity:1;fill-rule:nonzero;stroke:none" d="M420.254 1316.39H204.098v-216.15h216.156v216.15" transform="matrix(.13333 0 0 -.13333 0 337.413)"/>
	<path style="fill:#e20975;fill-opacity:1;fill-rule:nonzero;stroke:none" d="M5389.89 1413.7v85.66h16.52l21.45-69.45 20.5 69.45h16.73v-85.66h-11.71v67.67l-19.25-67.67h-12.86l-19.88 66.41v-66.41zm-46.44 0v74.57h-23.43v11.09h59.51v-11.09H5356v-74.57h-12.55" transform="matrix(.13333 0 0 -.13333 0 337.413)"/>
</svg>
