<svg xmlns="http://www.w3.org/2000/svg" viewBox="0 0 129.1 97.4">
	<defs>
		<linearGradient id="linear-gradient" x1="64.03" y1="-233.57" x2="64.7" y2="-104.38" gradientTransform="translate(0 185.51)" gradientUnits="userSpaceOnUse">
			<stop offset=".4" stop-color="#faca10"/>
			<stop offset=".65" stop-color="#f48c20"/>
			<stop offset=".86" stop-color="#f05b2d"/>
		</linearGradient>
		<style>
			.cls-2{fill:#404041}
		</style>
	</defs>
	<g id="Layer_2" data-name="Layer 2">
		<g id="Layer_1-2" data-name="Layer 1">
			<path d="M129.1 52a1.47 1.47 0 0 1-1.5 1.5H1.5A1.47 1.47 0 0 1 0 52a1.54 1.54 0 0 1 1.5-1.5h126a1.4 1.4 0 0 1 1.6 1.5ZM13.9 45h91.2L117 14.9l-50.8 4.3v-7.4H22.4v11.1L7.6 24.2ZM59.5 8H29V0h30.6Zm52.4 50.3H17.2a1.47 1.47 0 0 0-1.5 1.5 1.54 1.54 0 0 0 1.5 1.5h94.6a1.47 1.47 0 0 0 1.5-1.5 1.39 1.39 0 0 0-1.4-1.5Z" style="fill:url(#linear-gradient)"/>
			<path class="cls-2" d="M36.8 77.2h-6.7V97h-4.2V77.2h-6.7v-3.7h17.6Z"/>
			<path class="cls-2" d="M53 81.1V97h-4v-2.5a6.49 6.49 0 0 1-5.5 2.9c-4 0-7.7-3.3-7.7-8.4 0-4.8 3.5-8.4 7.8-8.4a6.4 6.4 0 0 1 5.3 2.6V81H53ZM49 89a4.67 4.67 0 0 0-4.6-4.7 4.59 4.59 0 0 0-4.5 4.7 4.53 4.53 0 0 0 4.5 4.7A4.61 4.61 0 0 0 49 89Z"/>
			<path class="cls-2" d="M73 88.1V97h-4v-8.7c0-2.6-1.5-3.9-3.3-3.9a3.91 3.91 0 0 0-4.1 4.1V97h-4V81.1h4v2.5c.8-2 3.3-2.9 4.9-2.9 4.2 0 6.5 2.7 6.5 7.4Z"/>
			<path class="cls-2" d="m87.7 97-6.2-7.2V97h-4V72.4h4v13.7l4.6-5.1h5.1l-6.5 7 8 9Z"/>
			<path class="cls-2" d="M109.9 81.1V97h-4v-2.5a6.49 6.49 0 0 1-5.5 2.9c-4 0-7.7-3.3-7.7-8.4 0-4.8 3.5-8.4 7.8-8.4a6.4 6.4 0 0 1 5.3 2.6V81h4.1Zm-4 7.9a4.67 4.67 0 0 0-4.6-4.7 4.59 4.59 0 0 0-4.5 4.7 4.53 4.53 0 0 0 4.5 4.7 4.61 4.61 0 0 0 4.6-4.7Z"/>
		</g>
	</g>
</svg>
