<svg xmlns="http://www.w3.org/2000/svg" width="200" height="128">
    <path fill="#ad5dff" transform="rotate(-29.97 70.783 85.787)" d="M68.5 84.26h4.55v3.03H68.5z"/>
    <path fill="#ad5dff" transform="rotate(-29.97 64.223 89.576)" d="M61.94 88.05h4.55v3.03h-4.55z"/>
    <path fill="#ad5dff" d="M80.62 74a6.07 6.07 0 00-4.32 1.81l-16.09-9.27a6.23 6.23 0 00.25-1.62 6.09 6.09 0 10-1.76 4.26l16.1 9.29a5.83 5.83 0 00-.25 1.62A6.08 6.08 0 1080.62 74zm-26.24-6a3 3 0 113-3 3 3 0 01-3 3zm26.24 15.14a3 3 0 113-3 3 3 0 01-3 3zM54.4 89.16a6.08 6.08 0 106.07 6.08 6.09 6.09 0 00-6.07-6.08zm0 9.12a3 3 0 113-3 3.05 3.05 0 01-3 3z"/>
    <path fill="#ad5dff" transform="rotate(-60 38.013 85.779)" d="M36.5 83.51h3.03v4.55H36.5z"/>
    <path fill="#ad5dff" transform="rotate(-60 44.578 89.569)" d="M43.06 87.29h3.03v4.55h-3.03z"/>
    <path fill="#ad5dff" transform="rotate(-59.99 70.767 44.094)" d="M69.24 41.82h3.03v4.55h-3.03z"/>
    <path fill="#ad5dff" transform="rotate(-60 64.201 40.3)" d="M62.68 38.03h3.03v4.55h-3.03z"/>
    <path fill="#ad5dff" d="M80.6 55.85a6.08 6.08 0 10-6.07-6.07 6.08 6.08 0 006.07 6.07zm0-9.12a3 3 0 11-3 3.05 3.06 3.06 0 013-3.05zM29.67 74.23V55.64a6.08 6.08 0 004.56-5.86 5.77 5.77 0 00-.23-1.62l16.07-9.27a6.07 6.07 0 10-1.75-4.25 6.15 6.15 0 00.25 1.61l-16.09 9.28a6 6 0 00-4.33-1.83 6.06 6.06 0 00-1.51 11.94v18.6a6.08 6.08 0 103 0zm24.71-42.64a3 3 0 11-3 3.05 3 3 0 013-3.05zM25.11 49.78a3 3 0 113 3 3.05 3.05 0 01-3-3zm3.06 33.36a3 3 0 113-3 3 3 0 01-3 3z"/>
    <path fill="#ad5dff" transform="rotate(-29.97 44.536 70.614)" d="M42.26 69.09h4.55v3.03h-4.55z"/>
    <path fill="#ad5dff" transform="rotate(-29.97 37.977 74.404)" d="M35.7 72.88h4.55v3.03H35.7z"/>
    <path d="M106.7 61.17V50.66h-3.6V48h10.25v2.64h-3.66v10.53zM125.8 58.42c-1.18 2-2.72 3-5.64 3-3.58 0-6-2.48-6-6.85s2.41-6.84 6.43-6.84a5.41 5.41 0 015.36 3.33L123 52.51a2.48 2.48 0 00-2.54-2.08c-2 0-3.2 1.59-3.2 4.22s1.08 4.11 3.24 4.11a2.88 2.88 0 002.75-1.88zM128.1 61.17V48h4.69c3.37 0 4.77 1.54 4.77 4.44a4.1 4.1 0 01-4.48 4.47h-2v4.24zm3-6.72h1.57c1.31 0 1.85-.65 1.85-1.87s-.58-2-1.85-2h-1.57zM152.36 61.17a2.25 2.25 0 01-.69-1.36l-.5-2c-.26-1.11-.78-1.31-1.78-1.31h-1.3v4.64h-3V48h5.18c2.94 0 4.77 1.07 4.77 4a3 3 0 01-2.88 3.3 2.36 2.36 0 012.19 1.92l.67 2.45a3 3 0 00.74 1.41zM148.09 54H150c1.2 0 1.87-.47 1.87-1.72s-.62-1.72-1.87-1.72h-1.95zM159.9 61.17V50.66h-3.6V48h10.25v2.64h-3.66v10.53zM171.35 61.17V50.66h-3.6V48H178v2.64h-3.66v10.53zM115.47 78c-1.18 2-2.72 3-5.65 3-3.57 0-6-2.47-6-6.85s2.41-6.83 6.43-6.83a5.4 5.4 0 015.35 3.33L112.66 72a2.48 2.48 0 00-2.54-2c-2 0-3.2 1.58-3.2 4.22s1.07 4.11 3.24 4.11a2.89 2.89 0 002.74-1.88zM117.77 80.7V67.55h3v5.15h5v-5.15h3V80.7h-3v-5.36h-5v5.36zM141.22 80.7h-8.82V67.55h8.82v2.63h-5.78v2.61h5.09v2.53h-5.09v2.74h5.78zM155 78c-1.18 2-2.72 3-5.64 3-3.58 0-6-2.47-6-6.85s2.41-6.83 6.43-6.83a5.41 5.41 0 015.36 3.33L152.2 72a2.48 2.48 0 00-2.54-2c-2 0-3.2 1.58-3.2 4.22s1.07 4.11 3.24 4.11a2.89 2.89 0 002.75-1.88zM164.68 80.7l-3.55-5.36h-.78v5.36h-3V67.55h3v5.15h.8l3.26-5.15h3.48l-4.15 6.36 4.55 6.79z"/>
</svg>
