<svg xmlns="http://www.w3.org/2000/svg" width="200" height="128">
    <path d="M54.77 55.1h-6.911v-4.616h18.812V55.1H59.76v18.093h-4.99z"/>
    <path d="M61.494 64.6v-.053c0-4.963 3.523-9.046 8.593-9.046 5.79 0 8.459 4.51 8.459 9.446 0 .4-.027.854-.054 1.308H66.4a4.039 4.039 0 0 0 4.243 3.415 5.64 5.64 0 0 0 4.216-1.787l2.829 2.508a9.185 9.185 0 0 1-16.2-5.791zm12.275-1.467c-.293-2.215-1.6-3.709-3.656-3.709s-3.362 1.467-3.762 3.709zM78.893 68.2v-.054c0-3.789 2.882-5.55 6.991-5.55a12.122 12.122 0 0 1 4.243.721v-.294c0-2.055-1.254-3.175-3.736-3.175a12.816 12.816 0 0 0-4.8.934l-1.231-3.76a15.21 15.21 0 0 1 6.751-1.388c2.7 0 4.643.721 5.871 1.948a7.536 7.536 0 0 1 1.868 5.551v10.086h-4.777v-1.867a6.678 6.678 0 0 1-5.256 2.214c-3.256-.053-5.924-1.921-5.924-5.366zm11.314-1.148v-.88a7.524 7.524 0 0 0-3.149-.641c-2.108 0-3.416.854-3.416 2.4v.053c0 1.335 1.094 2.108 2.7 2.108 2.29.032 3.865-1.249 3.865-3.037zM95.864 55.821h4.936v2.455a6.18 6.18 0 0 1 5.123-2.775 5.2 5.2 0 0 1 4.883 2.749 7.13 7.13 0 0 1 5.711-2.749c3.655 0 5.87 2.215 5.87 6.378v11.314h-4.936v-9.687c0-2.321-1.041-3.522-2.882-3.522s-2.989 1.2-2.989 3.522v9.687h-4.937v-9.687c0-2.321-1.04-3.522-2.881-3.522s-2.989 1.2-2.989 3.522v9.687h-4.936V55.821zM122.949 61.905v-.053a11.527 11.527 0 0 1 11.821-11.741 11.681 11.681 0 0 1 8.939 3.5l-3.149 3.656a8.315 8.315 0 0 0-5.79-2.562c-3.816 0-6.591 3.176-6.591 7.072v.053c0 3.9 2.695 7.125 6.591 7.125 2.588 0 4.189-1.041 5.977-2.668l3.176 3.2a11.568 11.568 0 0 1-9.313 4.056 11.4 11.4 0 0 1-11.661-11.638zM144.4 49.524h5.177V53.9H144.4zm.133 6.3h4.937v17.369h-4.937zM152.382 68.256v-8.219H150.3v-4.216h2.082v-4.456h4.936V55.8h4.082v4.216h-4.083v7.418c0 1.147.481 1.681 1.6 1.681a5.2 5.2 0 0 0 2.429-.614v3.976a7.311 7.311 0 0 1-3.9 1.014c-3.01-.005-5.064-1.205-5.064-5.235zM174.877 55.821H180l-6.671 17.8c-1.334 3.522-2.749 4.856-5.711 4.856a8.108 8.108 0 0 1-4.376-1.2L164.9 73.7a4.382 4.382 0 0 0 2.108.694 1.616 1.616 0 0 0 1.707-1.148l-6.8-17.451h5.23l3.949 11.821z"/>
    <g>
        <path d="M20 50.511h22.682v22.682H20z"/>
        <path fill="#fff" d="M23.843 54.487h-1.735V53.34h4.697v1.147H25.07v4.51h-1.227v-4.51zM26.885 56.2a3.057 3.057 0 0 1 5.2-2.082l-.8.908a2.05 2.05 0 0 0-1.441-.641 1.688 1.688 0 0 0-1.655 1.761v.027a1.694 1.694 0 0 0 1.655 1.788 2.106 2.106 0 0 0 1.494-.667l.8.8A2.926 2.926 0 0 1 29.82 59.1a2.855 2.855 0 0 1-2.935-2.9M22.108 68.95h8.512v1.414h-8.512z"/>
    </g>
</svg>
