<svg xmlns="http://www.w3.org/2000/svg" width="200" height="128">
    <path d="M61.9 70.789v-9.717h-3.111v-4.3h3.094v-5.107h4.91v5.111h3.795v4.3h-3.771v8.4c0 1.2.624 2.087 1.7 2.087a2.451 2.451 0 0 0 1.7-.579l1.046 3.756a6.078 6.078 0 0 1-4.105 1.2c-3.434-.005-5.258-1.787-5.258-5.151zm9.835-4.684a9.568 9.568 0 0 1 9.673-9.82c5.652 0 9.369 4.183 9.369 10.257v1.164h-13.9c.349 2.283 2.2 4.178 5.4 4.178a7.841 7.841 0 0 0 4.954-1.816l2.2 3.25a11.641 11.641 0 0 1-7.7 2.593c-5.697.024-9.994-3.806-9.994-9.806zm9.673-5.769a4.316 4.316 0 0 0-4.566 3.987h9.211a4.282 4.282 0 0 0-4.643-3.987zm23.829 15.133V64.175c0-2.592-1.355-3.486-3.437-3.486a5.47 5.47 0 0 0-4.257 2.171v12.609h-4.91V56.776h4.91v2.4a8.745 8.745 0 0 1 6.54-2.868c4.144 0 6.118 2.323 6.118 5.961v13.2zm18.958 0v-1.964a7.625 7.625 0 0 1-5.922 2.455 6.2 6.2 0 0 1-6.462-6.192c0-4.419 3.482-6.039 6.462-6.039a7.637 7.637 0 0 1 5.922 2.283v-2.386c0-1.9-1.626-3.133-4.1-3.133a7.852 7.852 0 0 0-5.4 2.2l-1.935-3.438a12.089 12.089 0 0 1 8.166-2.946c4.3 0 8.2 1.7 8.2 7.086v12.074zm0-4.488v-2.323a4.915 4.915 0 0 0-3.928-1.664c-1.935 0-3.521 1.046-3.521 2.828s1.586 2.784 3.521 2.784a4.89 4.89 0 0 0 3.933-1.625zm7.06 4.488V49.646h4.91v9.526a7.1 7.1 0 0 1 5.77-2.867c4.763 0 8.283 3.717 8.283 9.82 0 6.27-3.56 9.82-8.283 9.82a7.271 7.271 0 0 1-5.77-2.863v2.4zm9.177-3.928c2.824 0 4.719-2.2 4.719-5.456s-1.895-5.4-4.719-5.4a5.5 5.5 0 0 0-4.262 2.171v6.618a5.556 5.556 0 0 0 4.262 2.087zm11.451 3.928V49.646h4.91v25.823zm6.761-9.364a9.568 9.568 0 0 1 9.673-9.82c5.651 0 9.368 4.183 9.368 10.257v1.164h-13.9c.348 2.283 2.2 4.178 5.4 4.178a7.841 7.841 0 0 0 4.954-1.816l2.205 3.25a11.641 11.641 0 0 1-7.7 2.593c-5.702.024-9.998-3.806-9.998-9.806zm9.673-5.769a4.317 4.317 0 0 0-4.567 3.987h9.212a4.283 4.283 0 0 0-4.643-3.987zm10.883-5.917a1.6 1.6 0 0 1 .589.594 1.643 1.643 0 0 1 .211.825 1.625 1.625 0 0 1-.211.82 1.543 1.543 0 0 1-.589.589 1.634 1.634 0 0 1-2.22-.589 1.624 1.624 0 0 1-.216-.82 1.645 1.645 0 0 1 .216-.825 1.578 1.578 0 0 1 .584-.594 1.553 1.553 0 0 1 .811-.221 1.6 1.6 0 0 1 .825.221zm-.167 2.563a1.193 1.193 0 0 0 .456-.491 1.5 1.5 0 0 0 0-1.355 1.187 1.187 0 0 0-.456-.491 1.237 1.237 0 0 0-.658-.172 1.209 1.209 0 0 0-.648.172 1.159 1.159 0 0 0-.447.491 1.5 1.5 0 0 0 0 1.355 1.159 1.159 0 0 0 .447.491 1.248 1.248 0 0 0 .648.172 1.279 1.279 0 0 0 .658-.172zm-.079-1.2a.686.686 0 0 1-.3.182l.491.731h-.428l-.407-.662h-.152v.677h-.369v-1.78h.491c.521 0 .776.181.776.54a.436.436 0 0 1-.102.309zm-.8-.044h.186c.231 0 .349-.088.349-.265a.218.218 0 0 0-.089-.2.486.486 0 0 0-.27-.058h-.176z" fill="#445464"/>
    <path d="M55.539 67.922c-.1-.373-.467-1.724-.81-3.01L52 54.743l-.806-3.01a1.56 1.56 0 0 0-.432-.707 1.632 1.632 0 0 0-.712-.432l-3.01-.8-10.16-2.735-3.009-.8a1.713 1.713 0 0 0-1.557.417l-2.2 2.2-7.448 7.424-2.205 2.209a1.719 1.719 0 0 0-.417 1.557l.388-.108-.388.122.8 3.01 2.725 10.169c.344 1.282.707 2.642.81 3.01a1.71 1.71 0 0 0 1.139 1.139l3.01.81L38.7 80.943l3.01.806a1.738 1.738 0 0 0 1.556-.418c.3-.26 1.282-1.242 2.2-2.224l7.434-7.424 2.224-2.205a1.738 1.738 0 0 0 .415-1.556zM49.848 51.39a.766.766 0 0 1 .349.22.9.9 0 0 1 .221.334c.1.369.466 1.724.8 3.01l.748 2.788a15.33 15.33 0 0 0-7.94-7.931l2.807.754zm-1.6 23.1a14.712 14.712 0 0 1-9.472 4.292l1.908-1.1 7.537-4.335 1.814-1.05a14.738 14.738 0 0 1-1.785 2.184zm-10.469 3.974a.684.684 0 0 1-.329-.074l-2.229-1.29-.308-.178 2.208-.593 7.463-2 1.039-.279-5.286 3.05-2.224 1.29a.689.689 0 0 1-.334.074zm.01-28.926a.637.637 0 0 1 .334.074l2.224 1.282.084.048-1.974.531-7.459 2-.457.123 4.68-2.7 2.239-1.282a.627.627 0 0 1 .329-.076zM50.442 59.82l-1.551-1.556-5.46-5.46-.309-.308 4.742 2.738 2.225 1.287a.792.792 0 0 1 .353.569zM46.9 73.018a.668.668 0 0 1-.255.163l-2.21.594-1.8.481a11.312 11.312 0 0 0 5.447-5.322l-.434 1.62-.589 2.209a.658.658 0 0 1-.159.255zm-12.138 3.344v-.01a.7.7 0 0 1-.569-.152l-1.621-1.615-1.237-1.237a11.471 11.471 0 0 0 7.428 1.945l-1.791.48zm-6.234-21.285a.547.547 0 0 1 .157-.255.571.571 0 0 1 .261-.162l2.2-.594 1.21-.328a11.464 11.464 0 0 0-4.778 4.855l.352-1.306.598-2.21zm12.865-3.467l1.615 1.616.955.952a11.465 11.465 0 0 0-6.636-1.784l1.282-.347 2.214-.589a.708.708 0 0 1 .57.152zm5.73 15.457v1.906a.573.573 0 0 1-.246.422l-1.649.952-5.564 3.217-1.649.947a.43.43 0 0 1-.246.054.446.446 0 0 1-.245-.054l-1.645-.947-5.568-3.217-1.63-.967-.123.211-.048.085.03-.052.123-.211a.615.615 0 0 1-.246-.423V58.74a.609.609 0 0 1 .246-.427l1.65-.953 5.583-3.211 1.649-.953a.566.566 0 0 1 .246-.054.545.545 0 0 1 .245.054l1.65.953 5.544 3.192 1.649.952a.575.575 0 0 1 .246.427zm-1.63-10.134l-5.563-3.211-1.239-.714a10.815 10.815 0 0 1 8.067 4.656zm-9.845-3.211l-5.583 3.191-1.213.7a10.783 10.783 0 0 1 8.036-4.6zm-7.724 13.345V68.6a10.952 10.952 0 0 1 0-9.4zm.751 2.879l1.41.814 5.568 3.226 1.4.81a10.887 10.887 0 0 1-8.382-4.85zm11.255 4.04l5.57-3.226 1.364-.766a10.991 10.991 0 0 1-1.33 1.625l-.013.014A10.892 10.892 0 0 1 38.53 74.8zm7.7-13.346v-1.472a10.949 10.949 0 0 1 0 9.466zM28.3 70.31l-1.186-1.185-1.62-1.625a.683.683 0 0 1-.152-.569c.073-.27.339-1.267.589-2.21l.4-1.5A11.454 11.454 0 0 0 28.3 70.31zm19.158-12.642l1.02 1.018 1.611 1.625a.707.707 0 0 1 .152.57c-.074.275-.339 1.267-.594 2.209l-.41 1.53a11.462 11.462 0 0 0-1.779-6.952zm-20.093-.558l-2 7.463-.2.753V57.1a.792.792 0 0 1 .334-.574l2.214-1.292.193-.111zm-2.2 13.8v-2.9l1.532 1.536L32.152 75l.791.789-5.243-3.021-2.21-1.278v-.008a.8.8 0 0 1-.33-.575zm23.058-.21l2-7.458.221-.828v8.5a.8.8 0 0 1-.363.575l-2.225 1.286-.223.129c.074-.264.337-1.273.59-2.204zm-.03-16.041l-7.512-4.336-1.675-.969a14.617 14.617 0 0 1 10.872 6.269zM34.9 50.319l-7.537 4.336-1.723 1a14.6 14.6 0 0 1 10.932-6.308zM24.5 68.334v2.172a14.788 14.788 0 0 1 0-12.888zm2.868 5.009l7.537 4.34 1.909 1.1a14.7 14.7 0 0 1-11.324-6.526zm23.74-13.685v-1.922a14.785 14.785 0 0 1 0 12.655zM30.679 49.445l2.205-2.2a.977.977 0 0 1 .775-.207l3.035.806 2.785.748a15.479 15.479 0 0 0-10.886 2.943zm-9.854 10.412a.943.943 0 0 1 .206-.763l2.2-2.2 2.092-2.094a15.476 15.476 0 0 0-2.948 10.848l-.745-2.785a997.86 997.86 0 0 1-.805-3.006zm4.905 16.775a.944.944 0 0 1-.57-.569c-.1-.373-.461-1.729-.8-3.015l-.752-2.81a15.423 15.423 0 0 0 3.222 4.73 15.438 15.438 0 0 0 4.737 3.223l-2.826-.757zm19.17 1.925l-2.205 2.2a.982.982 0 0 1-.776.206l-3.015-.805-2.8-.751A15.471 15.471 0 0 0 47 76.456zm9.648-9.648l-2.2 2.2-2.1 2.1a15.476 15.476 0 0 0 2.96-10.876l.747 2.779c.344 1.287.7 2.642.8 3.015a.983.983 0 0 1-.203.782z" fill="#00a6b4"/>
</svg>
