<svg version="1.1" id="图层_1" xmlns="http://www.w3.org/2000/svg" xmlns:xlink="http://www.w3.org/1999/xlink" x="0" y="0" width="200" height="200" style="enable-background:new 0 0 200 200" xml:space="preserve">
	<style>
		.st2{enable-background:new}
	</style>
	<path id="canvas_background" style="fill:none" d="M-1-1h202v202H-1z"/>
	<g id="svg_1">
		<g id="svg_2">
			<g id="svg_3">
				<defs>
					<path id="SVGID_1_" d="m117.9 68.6 9.9 10.3-2 2-7.3-7.6-9.4 15.6-9.2-7.5 2-2.1 6.2 5.3 9.8-16zM73.5 85v-3h23v3h-23zm0-43h55v3h-55v-3zm55 22.9h-55V62h55v2.9zm-28.6 62.9L44.5 95.9V32.1L99.9.2l54.5 31.4-2.6 1.5L99.9 3.2 47.5 33.5v61l52.4 30.3 52.6-30.3V42.2l3-1.6v55.3l-55.6 31.9z"/>
				</defs>
				<clipPath id="SVGID_2_">
					<use xlink:href="#SVGID_1_" style="overflow:visible"/>
				</clipPath>
				<linearGradient id="svg_5_1_" gradientUnits="userSpaceOnUse" x1=".775" y1=".3" x2=".507" y2="-.165" gradientTransform="matrix(230.876 0 0 230.9 -22.352 53.614)">
					<stop offset="0" style="stop-color:#0063ff"/>
					<stop offset="1" style="stop-color:#00c8de"/>
				</linearGradient>
				<path id="svg_5" style="clip-path:url(#SVGID_2_);fill:url(#svg_5_1_)" d="M94.7 184.5 10.1 38.1l146.4-84.5L241 100z"/>
			</g>
		</g>
	</g>
	<g class="st2">
		<path d="M48.5 146.7v1.7h-4.8V161h-2v-12.6h-4.8v-1.7h11.6z"/>
		<path d="M54.3 150.9c.7.3 1.2.8 1.6 1.4.3.5.6 1.1.7 1.8.1.5.2 1.2.2 2.3h-7.6c0 1.1.3 1.9.7 2.6.5.6 1.2 1 2.2 1 .9 0 1.6-.3 2.2-.9.3-.4.5-.8.6-1.2h1.7c0 .4-.2.8-.5 1.3s-.5.9-.9 1.2c-.5.5-1.2.9-2 1.1-.4.1-.9.2-1.4.2-1.3 0-2.4-.5-3.3-1.4-.9-.9-1.3-2.3-1.3-4s.5-3 1.4-4.1 2.1-1.6 3.6-1.6c.7-.2 1.4 0 2.1.3zm.6 4.1c-.1-.8-.2-1.4-.5-1.8-.5-.8-1.3-1.3-2.4-1.3-.8 0-1.5.3-2 .9s-.8 1.3-.9 2.2h5.8z"/>
		<path d="M58.9 150.6h1.7v1.5c.5-.6 1-1.1 1.6-1.3s1.2-.4 1.8-.4c1.5 0 2.5.5 3 1.6.3.6.4 1.4.4 2.4v6.7h-1.8v-6.6c0-.6-.1-1.2-.3-1.5-.3-.7-.9-1-1.7-1-.4 0-.8 0-1 .1-.5.1-.9.4-1.3.9-.3.3-.5.7-.6 1.1s-.1.9-.1 1.6v5.5h-1.8l.1-10.6z"/>
		<path d="M77 151.2c.7.6 1.2 1.6 1.3 3h-1.7c-.1-.6-.3-1.2-.7-1.6s-1-.6-1.8-.6c-1.1 0-1.9.5-2.4 1.6-.3.7-.5 1.6-.5 2.6s.2 1.9.7 2.6c.4.7 1.1 1.1 2.1 1.1.7 0 1.3-.2 1.7-.7s.7-1.1.9-1.8h1.7c-.2 1.4-.7 2.4-1.5 3s-1.8 1-3 1c-1.4 0-2.5-.5-3.3-1.5s-1.2-2.2-1.2-3.7c0-1.8.4-3.3 1.3-4.3s2-1.5 3.4-1.5c1.3-.1 2.2.2 3 .8z"/>
		<path d="M86.5 150.9c.7.3 1.2.8 1.6 1.4.3.5.6 1.1.7 1.8.1.5.2 1.2.2 2.3h-7.6c0 1.1.3 1.9.7 2.6.5.6 1.2 1 2.2 1 .9 0 1.6-.3 2.2-.9.3-.4.5-.8.6-1.2h1.7c0 .4-.2.8-.5 1.3s-.5.9-.9 1.2c-.5.5-1.2.9-2 1.1-.4.1-.9.2-1.4.2-1.3 0-2.4-.5-3.3-1.4-.9-.9-1.3-2.3-1.3-4s.5-3 1.4-4.1c.9-1.1 2.1-1.6 3.6-1.6.7-.2 1.4 0 2.1.3zm.7 4.1c-.1-.8-.2-1.4-.5-1.8-.5-.8-1.3-1.3-2.4-1.3-.8 0-1.5.3-2 .9s-.8 1.3-.9 2.2h5.8z"/>
		<path d="M91.2 150.6h1.7v1.5c.5-.6 1-1.1 1.6-1.3.6-.2 1.2-.4 1.8-.4 1.5 0 2.5.5 3 1.6.3.6.4 1.4.4 2.4v6.7h-1.8v-6.6c0-.6-.1-1.2-.3-1.5-.3-.7-.9-1-1.7-1-.4 0-.8 0-1 .1-.5.1-.9.4-1.3.9-.3.3-.5.7-.6 1.1-.1.4-.1.9-.1 1.6v5.5h-1.8v-10.6h.1z"/>
		<path d="M102.7 147.7h1.8v2.9h1.7v1.4h-1.7v6.8c0 .4.1.6.4.7.1.1.4.1.7.1h.6v1.4c-.2.1-.4.1-.6.1h-.7c-.8 0-1.4-.2-1.7-.6-.3-.4-.4-1-.4-1.6V152h-1.4v-1.4h1.4v-2.9h-.1z"/>
		<path d="M123.8 147.8c1 1 1.5 2 1.7 3.3h-1.9c-.2-.9-.6-1.7-1.3-2.2-.7-.5-1.5-.8-2.7-.8-1.4 0-2.5.5-3.4 1.5-.9 1-1.3 2.5-1.3 4.6 0 1.7.4 3 1.2 4.1.8 1 1.9 1.6 3.4 1.6 1.4 0 2.5-.5 3.2-1.7.4-.6.7-1.3.9-2.3h1.9c-.2 1.5-.7 2.8-1.7 3.8-1.1 1.2-2.6 1.8-4.6 1.8-1.6 0-3-.5-4.2-1.5-1.5-1.3-2.2-3.4-2.2-6.2 0-2.1.6-3.9 1.7-5.2 1.2-1.5 2.8-2.2 5-2.2 1.9 0 3.3.4 4.3 1.4z"/>
		<path d="M127.9 146.7h1.8V161h-1.8v-14.3z"/>
		<path d="M139.9 151.7c.9.9 1.4 2.2 1.4 4 0 1.7-.4 3.1-1.2 4.2-.8 1.1-2.1 1.6-3.8 1.6-1.4 0-2.6-.5-3.4-1.5-.8-1-1.3-2.3-1.3-3.9 0-1.8.4-3.2 1.3-4.2s2.1-1.6 3.6-1.6c1.3 0 2.5.5 3.4 1.4zm-1.1 6.9c.4-.9.6-1.9.6-2.9s-.2-1.8-.5-2.4c-.5-1-1.3-1.4-2.5-1.4-1.1 0-1.8.4-2.3 1.2s-.7 1.8-.7 3c0 1.1.2 2 .7 2.8.5.7 1.2 1.1 2.3 1.1 1.2-.1 2-.5 2.4-1.4z"/>
		<path d="M145.2 150.6v6.9c0 .5.1 1 .2 1.3.3.6.9.9 1.7.9 1.2 0 2-.5 2.4-1.6.2-.6.4-1.4.4-2.4v-5.1h1.8v10.5H150v-1.5c-.2.4-.5.7-.8 1-.7.5-1.5.8-2.4.8-1.5 0-2.5-.5-3-1.5-.3-.5-.4-1.2-.4-2.1v-7.1l1.8-.1z"/>
		<path d="M160.3 151c.3.2.7.5 1.1 1v-5.3h1.7v14.4h-1.6v-1.5c-.4.6-.9 1.1-1.4 1.4-.6.3-1.2.4-1.9.4-1.2 0-2.2-.5-3-1.5s-1.3-2.3-1.3-3.9c0-1.5.4-2.8 1.2-4 .8-1.1 1.9-1.7 3.3-1.7.7.1 1.4.3 1.9.7zm-3.9 7.8c.5.8 1.2 1.1 2.3 1.1.8 0 1.5-.3 2-1s.8-1.7.8-3-.3-2.3-.8-2.9c-.5-.6-1.2-1-2-1-.9 0-1.6.3-2.1 1s-.8 1.7-.8 3c-.1 1.1.1 2 .6 2.8z"/>
	</g>
	<g class="st2">
		<path d="M51 172.1c.7.7 1.1 1.4 1.2 2.3h-1.3c-.1-.6-.4-1.2-.9-1.5s-1.1-.6-1.9-.6c-1 0-1.8.3-2.4 1-.6.7-.9 1.8-.9 3.2 0 1.2.3 2.1.8 2.9.5.7 1.3 1.1 2.4 1.1 1 0 1.7-.4 2.2-1.2.3-.4.5-.9.6-1.6h1.3c-.1 1.1-.5 1.9-1.2 2.7-.8.9-1.9 1.3-3.2 1.3-1.2 0-2.1-.4-2.9-1.1-1-.9-1.5-2.4-1.5-4.3 0-1.5.4-2.7 1.2-3.6.8-1 2-1.5 3.5-1.5 1.4-.1 2.3.2 3 .9z"/>
		<path d="M53.9 171.3h1.2v10h-1.2v-10z"/>
		<path d="M62.3 174.8c.6.6 1 1.6 1 2.8s-.3 2.2-.9 2.9c-.6.8-1.5 1.2-2.7 1.2-1 0-1.8-.3-2.4-1-.6-.7-.9-1.6-.9-2.7 0-1.2.3-2.2.9-2.9s1.5-1.1 2.5-1.1c1-.2 1.8.2 2.5.8zm-.8 4.9c.3-.6.4-1.3.4-2.1 0-.7-.1-1.2-.3-1.7-.3-.7-.9-1-1.8-1-.7 0-1.3.3-1.6.9-.3.6-.5 1.3-.5 2.1s.2 1.4.5 1.9.9.8 1.6.8c.9 0 1.4-.3 1.7-.9z"/>
		<path d="M66 174.1v4.9c0 .4.1.7.2.9.2.4.6.7 1.2.7.8 0 1.4-.4 1.7-1.1.2-.4.2-1 .2-1.7v-3.6h1.2v7.3h-1.2v-1.1c-.2.3-.4.5-.6.7-.5.4-1 .6-1.7.6-1 0-1.7-.3-2.1-1-.2-.4-.3-.9-.3-1.5v-5l1.4-.1z"/>
		<path d="M76.6 174.3c.2.1.5.4.7.7v-3.7h1.2v10.1h-1.1v-1c-.3.5-.6.8-1 1s-.8.3-1.3.3c-.8 0-1.5-.3-2.1-1s-.9-1.6-.9-2.7.3-2 .8-2.8 1.3-1.2 2.3-1.2c.5-.1 1 0 1.4.3zm-2.8 5.5c.3.5.9.8 1.6.8.6 0 1-.2 1.4-.7s.5-1.2.5-2.1c0-.9-.2-1.6-.6-2.1-.4-.4-.8-.7-1.4-.7s-1.1.2-1.5.7-.6 1.2-.6 2.1c.1.8.3 1.4.6 2z"/>
		<path d="M84.4 171.3h1.4v8.8h5v1.2h-6.4v-10z"/>
		<path d="M97.3 174.8c.6.6 1 1.6 1 2.8s-.3 2.2-.9 2.9c-.6.8-1.5 1.2-2.7 1.2-1 0-1.8-.3-2.4-1s-.9-1.6-.9-2.7c0-1.2.3-2.2.9-2.9s1.5-1.1 2.5-1.1c1.1-.2 1.9.2 2.5.8zm-.8 4.9c.3-.6.4-1.3.4-2.1 0-.7-.1-1.2-.3-1.7-.3-.7-.9-1-1.8-1-.7 0-1.3.3-1.6.9s-.5 1.3-.5 2.1.2 1.4.5 1.9.9.8 1.6.8c.9 0 1.4-.3 1.7-.9z"/>
		<path d="M103.9 174.3c.2.2.5.4.7.7v-.9h1.1v6.7c0 .9-.1 1.7-.4 2.2-.5 1-1.5 1.5-2.9 1.5-.8 0-1.4-.2-2-.5-.5-.4-.8-.9-.9-1.7h1.3c.1.3.2.6.4.8.3.3.7.4 1.3.4.9 0 1.6-.3 1.8-1 .2-.4.3-1.1.2-2.1-.2.4-.5.7-.9.8s-.8.3-1.4.3c-.8 0-1.5-.3-2.1-.8-.6-.6-.9-1.5-.9-2.8 0-1.2.3-2.2.9-2.9s1.3-1 2.2-1c.6-.1 1.1.1 1.6.3zm.1 1.4c-.4-.4-.8-.7-1.4-.7-.9 0-1.5.4-1.8 1.2-.2.4-.3 1-.3 1.7 0 .8.2 1.5.5 1.9s.8.6 1.3.6c.9 0 1.5-.4 1.9-1.2.2-.5.3-1 .3-1.6.1-.8-.1-1.5-.5-1.9z"/>
		<path d="M112.5 178.1c0 .6.2 1 .4 1.4.4.7 1.2 1 2.3 1 .5 0 .9-.1 1.3-.2.8-.3 1.2-.8 1.2-1.5 0-.5-.2-.9-.5-1.2-.3-.2-.9-.4-1.6-.6l-1.3-.3c-.9-.2-1.5-.4-1.8-.7-.6-.4-.9-1-.9-1.9s.3-1.6.9-2.2c.6-.6 1.5-.9 2.6-.9 1 0 1.9.3 2.6.8s1.1 1.3 1.1 2.4h-1.3c-.1-.5-.2-1-.4-1.2-.4-.5-1.1-.8-2-.8-.8 0-1.3.2-1.7.5-.3.3-.5.7-.5 1.2s.2.9.6 1.1c.3.1.8.3 1.8.5l1.4.3c.7.2 1.2.4 1.5.6.6.5.9 1.2.9 2 0 1.1-.4 1.9-1.2 2.4-.8.5-1.7.7-2.7.7-1.2 0-2.2-.3-2.9-1-.7-.6-1-1.5-1-2.6h1.2v.2z"/>
		<path d="M125.3 174.3c.5.2.9.6 1.1.9.2.4.4.8.5 1.3.1.3.1.9.1 1.6h-5.3c0 .7.2 1.3.5 1.8s.8.7 1.5.7c.6 0 1.1-.2 1.5-.6.2-.2.4-.5.5-.9h1.2c0 .3-.1.6-.3.9-.2.3-.4.6-.6.8-.4.4-.8.6-1.4.7-.3.1-.6.1-1 .1-.9 0-1.7-.3-2.3-1-.6-.7-.9-1.6-.9-2.8s.3-2.1 1-2.9 1.5-1.1 2.5-1.1c.4.1.9.2 1.4.5zm.5 2.8c0-.5-.2-1-.3-1.3-.3-.6-.9-.9-1.7-.9-.6 0-1 .2-1.4.6-.4.4-.6.9-.6 1.6h4z"/>
		<path d="M128.6 174.1h1.2v1.3c.1-.2.3-.5.7-.9s.8-.5 1.3-.5h.4v1.3h-.4c-.6 0-1.1.2-1.4.6-.3.4-.5.9-.5 1.4v4.2h-1.3v-7.4z"/>
		<path d="m133.9 174.1 2 6 2-6h1.3l-2.8 7.3h-1.3l-2.7-7.3h1.5z"/>
		<path d="M140.3 171.3h1.3v1.4h-1.3v-1.4zm0 2.8h1.3v7.3h-1.3v-7.3z"/>
		<path d="M148.2 174.4c.5.4.8 1.1.9 2.1h-1.2c-.1-.5-.2-.8-.5-1.1s-.7-.4-1.3-.4c-.8 0-1.3.4-1.7 1.1-.2.5-.3 1.1-.3 1.8s.2 1.3.5 1.9.8.8 1.5.8c.5 0 .9-.2 1.2-.5s.5-.7.6-1.3h1.2c-.1 1-.5 1.7-1 2.1-.5.4-1.2.7-2.1.7-1 0-1.7-.3-2.3-1s-.9-1.6-.9-2.6c0-1.3.3-2.3.9-3 .6-.7 1.4-1.1 2.4-1.1.9-.1 1.7.1 2.1.5z"/>
		<path d="M154.9 174.3c.5.2.9.6 1.1.9.2.4.4.8.5 1.3.1.3.1.9.1 1.6h-5.3c0 .7.2 1.3.5 1.8s.8.7 1.5.7c.6 0 1.1-.2 1.5-.6.2-.2.4-.5.5-.9h1.2c0 .3-.1.6-.3.9-.2.3-.4.6-.6.8-.4.4-.8.6-1.4.7-.3.1-.6.1-1 .1-.9 0-1.7-.3-2.3-1s-.9-1.6-.9-2.8.3-2.1 1-2.9 1.5-1.1 2.5-1.1c.4.1.9.2 1.4.5zm.4 2.8c0-.5-.2-1-.3-1.3-.3-.6-.9-.9-1.7-.9-.6 0-1 .2-1.4.6-.4.4-.6.9-.6 1.6h4z"/>
	</g>
</svg>
