<svg xmlns="http://www.w3.org/2000/svg" viewBox="-10.38 -10.38 539.76 158.76">
	<path fill="#3d8ba6" d="M31.027 24.718H0v-11.65h75.605v11.65h-31.02v57.751H31.027V24.718m47.541-11.65h62.238v11.649H92.124v16.132h41.906v11.648H92.124V70.83h49.834v11.64h-63.39v-69.4"/>
	<path fill="#2f3031" d="M350.855 34.165c-2.193-6.206-7.826-11.546-24.343-11.546-9.17 0-18.422 2.284-18.422 8.687 0 2.954 1.716 6.106 15.56 7.826l16.42 2.482c15.558 2.386 24.728 8.4 24.728 20.047 0 16.418-15.659 22.527-34.184 22.527-29.783 0-37.033-14.701-38.659-19.953l13.077-4.104c2.486 5.061 7.634 12.414 25.965 12.414 11.077 0 20.24-3.632 20.24-9.645 0-4.485-5.155-7.448-15.081-8.687l-16.607-2.291c-16.045-2.193-25.018-9.165-25.018-19.76 0-20.809 27.013-20.809 32.364-20.809 29.876 0 35.037 13.839 36.753 18.61l-12.793 4.202m18.332-21.096h13.551V45.43l38.477-32.362h19.283l-33.13 27.49 36.466 41.91h-17.746l-28.547-33.885-14.803 12.312V82.47h-13.551v-69.4"/>
	<path fill="#2f3031" d="m471.91 54.692-33.894-41.623h16.617l24.047 29.4 23.967-29.4h16.708l-33.89 41.623v27.777h-13.554V54.692"/>
	<path fill="#3d8ba6" d="m277.56 82.447-12.836-18.146V32.333l35.103 50.114m-70.598-.011 21.557-30.788 13.886-19.684V.004l-28.909 41.291-23.711 33.863-15.777-20.945c10.213-.568 19.38-7.634 19.38-20.43 0-16.993-11.835-20.714-28.257-20.714h-41.719v69.4h13.556V55.164h21.478l20.146 27.305m-41.624-38.563V24.335h26.159c11.074 0 16.704 1.621 16.704 9.733 0 8.208-5.63 9.838-16.704 9.838h-26.16"/>
	<path fill="#7b7979" d="M44.01 130.226c-1.874 0-3.627-.333-5.26-.999a11.638 11.638 0 0 1-4.24-2.948c-1.195-1.3-2.14-2.902-2.835-4.807-.696-1.905-1.042-4.082-1.042-6.531 0-2.418.354-4.587 1.065-6.508.71-1.92 1.678-3.545 2.903-4.876a12.31 12.31 0 0 1 4.308-3.039c1.648-.695 3.409-1.043 5.284-1.043 1.874 0 3.538.38 4.989 1.135 1.451.756 2.645 1.632 3.583 2.63l-2.813 3.402a10.286 10.286 0 0 0-2.54-1.883c-.906-.467-1.935-.703-3.083-.703-1.21 0-2.321.25-3.334.749a7.727 7.727 0 0 0-2.63 2.131c-.74.923-1.315 2.048-1.724 3.38-.408 1.33-.612 2.827-.612 4.489 0 3.388.733 6.04 2.2 7.96 1.466 1.92 3.454 2.88 5.964 2.88 1.33 0 2.51-.28 3.538-.84a11.086 11.086 0 0 0 2.81-2.199l2.813 3.31c-1.21 1.392-2.593 2.457-4.15 3.198-1.558.74-3.288 1.112-5.193 1.112m18.912 0c-1.875 0-3.19-.56-3.945-1.679-.757-1.118-1.135-2.645-1.135-4.58V97.662h5.216v26.577c0 .634.12 1.08.363 1.337.241.258.499.386.77.386h.341c.106 0 .264-.03.476-.09l.68 3.9c-.695.301-1.617.454-2.766.454m16.327-4.264c1.632 0 2.918-.672 3.855-2.019.937-1.344 1.406-3.136 1.406-5.373 0-2.268-.47-4.074-1.406-5.42-.937-1.345-2.223-2.019-3.855-2.019-1.633 0-2.91.674-3.832 2.018-.923 1.347-1.383 3.153-1.383 5.421 0 2.237.46 4.029 1.383 5.373.922 1.347 2.199 2.019 3.832 2.019zm0 4.264c-1.391 0-2.72-.258-3.991-.772a9.924 9.924 0 0 1-3.38-2.267c-.982-.997-1.76-2.223-2.335-3.674-.574-1.45-.86-3.1-.86-4.943 0-1.844.286-3.492.86-4.944.575-1.452 1.353-2.676 2.336-3.673a10.218 10.218 0 0 1 3.379-2.292c1.27-.528 2.6-.793 3.99-.793 1.391 0 2.73.265 4.015.793a9.926 9.926 0 0 1 3.379 2.292c.967.997 1.746 2.221 2.335 3.673.59 1.452.885 3.1.885 4.944 0 1.844-.295 3.492-.885 4.943-.589 1.451-1.368 2.677-2.335 3.674a9.648 9.648 0 0 1-3.379 2.267 10.708 10.708 0 0 1-4.014.772m22.404 0c-2.388 0-4.127-.765-5.215-2.292-1.089-1.526-1.633-3.71-1.633-6.553v-13.968h5.215V120.7c0 1.846.272 3.145.817 3.9.544.756 1.42 1.134 2.63 1.134.968 0 1.822-.24 2.563-.725.74-.484 1.535-1.27 2.38-2.36v-15.238h5.217v22.27h-4.263l-.409-3.266h-.135c-.969 1.149-2.02 2.07-3.153 2.766-1.134.695-2.472 1.044-4.014 1.044m27.666-4.31c1.662 0 3.22-.83 4.671-2.493v-10.387c-.786-.695-1.55-1.18-2.29-1.45a6.443 6.443 0 0 0-2.245-.409c-1.451 0-2.676.635-3.674 1.905-.998 1.27-1.496 3.085-1.496 5.442 0 2.42.43 4.257 1.292 5.51.862 1.256 2.11 1.882 3.742 1.882zm-1.27 4.31c-2.812 0-5.042-1.02-6.69-3.062-1.648-2.041-2.471-4.905-2.471-8.594 0-1.815.264-3.448.793-4.898.529-1.452 1.232-2.676 2.109-3.675a9.426 9.426 0 0 1 3.016-2.312 8.032 8.032 0 0 1 3.515-.817c1.27 0 2.343.22 3.22.658.877.439 1.753 1.036 2.63 1.792l-.18-3.584v-8.072h5.215v32.02h-4.309l-.363-2.404h-.181a11.81 11.81 0 0 1-2.857 2.086 7.305 7.305 0 0 1-3.447.862m32.926-23.403c0 .695.105 1.398.317 2.11.212.71.499 1.458.862 2.244 1.24-.786 2.282-1.587 3.13-2.404.846-.816 1.27-1.799 1.27-2.947 0-.787-.182-1.452-.544-1.997-.363-.544-.983-.816-1.86-.816-.938 0-1.7.35-2.291 1.043-.59.697-.884 1.619-.884 2.767zm1.996 19.367c.816 0 1.625-.16 2.427-.477.8-.318 1.578-.749 2.335-1.293a46.69 46.69 0 0 1-3.787-3.56 35.61 35.61 0 0 1-3.243-3.923c-.847.696-1.535 1.414-2.064 2.154a4.156 4.156 0 0 0-.793 2.471c0 1.392.482 2.51 1.45 3.357.968.846 2.192 1.27 3.675 1.27zm-.635 4.036c-1.482 0-2.805-.22-3.969-.659-1.164-.437-2.155-1.027-2.97-1.768a7.586 7.586 0 0 1-1.883-2.63c-.439-1.013-.657-2.11-.657-3.29 0-1.027.152-1.95.454-2.765a8.318 8.318 0 0 1 1.247-2.244 11.615 11.615 0 0 1 1.814-1.861 29.89 29.89 0 0 1 2.154-1.61 19.333 19.333 0 0 1-1.406-3.356 10.81 10.81 0 0 1-.498-3.175c0-1.027.173-1.988.521-2.88a6.7 6.7 0 0 1 1.519-2.336 7.562 7.562 0 0 1 2.358-1.587c.908-.393 1.935-.59 3.084-.59 2.026 0 3.621.576 4.785 1.724 1.163 1.15 1.746 2.676 1.746 4.58 0 .968-.182 1.86-.544 2.677a8.652 8.652 0 0 1-1.45 2.244 15.775 15.775 0 0 1-2.065 1.928 54.289 54.289 0 0 1-2.381 1.769 30.813 30.813 0 0 0 3.106 3.605 36.048 36.048 0 0 0 3.652 3.198 21.75 21.75 0 0 0 2.176-3.605 25.234 25.234 0 0 0 1.588-4.287h4.808a33.322 33.322 0 0 1-2.086 5.397 31.158 31.158 0 0 1-2.994 4.899 23.272 23.272 0 0 0 2.812 1.519c.907.408 1.754.688 2.54.839l-1.316 4.264a20.824 20.824 0 0 1-3.537-1.203 27.287 27.287 0 0 1-3.675-1.973 14.481 14.481 0 0 1-3.99 2.314c-1.481.573-3.13.862-4.943.862m36.327-4.809h2.314c3.022 0 5.342-.868 6.96-2.607 1.618-1.737 2.427-4.437 2.427-8.096 0-3.628-.817-6.273-2.449-7.937-1.633-1.662-3.945-2.493-6.938-2.493h-2.314zm-5.26 4.265v-29.663h7.936c4.535 0 8.072 1.226 10.612 3.675 2.54 2.45 3.81 6.122 3.81 11.02 0 2.45-.325 4.611-.975 6.486-.651 1.875-1.587 3.44-2.811 4.694-1.225 1.255-2.708 2.2-4.445 2.835-1.74.635-3.712.953-5.919.953h-8.209m31.475-13.245h9.887c0-1.723-.37-3.075-1.11-4.058-.742-.982-1.883-1.474-3.425-1.474-1.33 0-2.494.468-3.493 1.406-.997.937-1.617 2.312-1.859 4.126zm5.942 13.789c-1.543 0-2.979-.266-4.308-.794a10.215 10.215 0 0 1-3.494-2.29c-.997-1-1.776-2.215-2.336-3.652-.558-1.436-.838-3.076-.838-4.92 0-1.815.286-3.448.862-4.898.574-1.452 1.338-2.676 2.29-3.675a10.158 10.158 0 0 1 3.288-2.312 9.39 9.39 0 0 1 3.81-.817c1.51 0 2.842.257 3.99.771a7.802 7.802 0 0 1 2.88 2.177c.771.938 1.354 2.056 1.746 3.356.393 1.3.59 2.721.59 4.264 0 .514-.022.997-.067 1.452a9.843 9.843 0 0 1-.159 1.088h-14.15c.241 1.995.945 3.53 2.109 4.603 1.163 1.074 2.653 1.61 4.467 1.61.968 0 1.866-.143 2.698-.432a11.973 11.973 0 0 0 2.472-1.2l1.768 3.265a16.008 16.008 0 0 1-3.537 1.723c-1.3.453-2.66.681-4.081.681m18.458-.544-7.756-22.27h5.306l3.54 11.565c.3 1.089.611 2.193.928 3.312.318 1.118.627 2.252.93 3.4h.181c.332-1.148.65-2.282.952-3.4.303-1.119.62-2.223.953-3.312l3.538-11.565h5.033l-7.573 22.27h-6.032m29.434-4.037c1.178 0 2.237-.257 3.174-.772.936-.513 1.739-1.246 2.404-2.199.664-.953 1.18-2.101 1.542-3.447.364-1.344.544-2.85.544-4.513 0-3.325-.687-5.933-2.062-7.823-1.378-1.888-3.244-2.835-5.602-2.835-2.359 0-4.227.947-5.602 2.835-1.375 1.89-2.063 4.498-2.063 7.823 0 1.663.18 3.169.545 4.513.363 1.346.876 2.494 1.541 3.447.665.953 1.465 1.686 2.404 2.199.937.515 1.996.772 3.175.772zm0 4.581c-1.936 0-3.704-.357-5.307-1.067a11.466 11.466 0 0 1-4.126-3.084c-1.15-1.345-2.042-2.97-2.676-4.875-.635-1.905-.952-4.066-.952-6.486 0-2.387.317-4.527.952-6.417.634-1.89 1.526-3.484 2.676-4.785a11.625 11.625 0 0 1 4.126-2.994c1.603-.695 3.37-1.043 5.307-1.043s3.704.348 5.306 1.043a11.84 11.84 0 0 1 4.15 2.994c1.163 1.3 2.063 2.895 2.7 4.785.633 1.89.95 4.03.95 6.417 0 2.42-.317 4.581-.95 6.486-.637 1.905-1.537 3.53-2.7 4.875a11.672 11.672 0 0 1-4.15 3.084c-1.602.71-3.37 1.067-5.306 1.067m28.3-4.31c1.48 0 2.722-.642 3.719-1.927.997-1.285 1.496-3.198 1.496-5.737 0-2.237-.377-3.976-1.133-5.216-.756-1.24-1.982-1.859-3.674-1.859-1.573 0-3.206.832-4.898 2.495v10.385c.816.696 1.602 1.18 2.358 1.451.756.273 1.467.408 2.132.408zm-9.705 12.564v-31.067h4.308l.363 2.358h.181a15.87 15.87 0 0 1 3.13-2.04 7.918 7.918 0 0 1 3.583-.863c1.39 0 2.622.265 3.696.793 1.073.53 1.987 1.293 2.744 2.292.755.997 1.33 2.193 1.724 3.582.39 1.392.588 2.948.588 4.672 0 1.905-.264 3.605-.793 5.103-.53 1.495-1.234 2.75-2.11 3.764a9.207 9.207 0 0 1-3.038 2.334 8.27 8.27 0 0 1-3.583.818c-.968 0-1.936-.212-2.902-.635-.968-.424-1.906-1.028-2.812-1.815l.136 3.72v6.984h-5.215m31.611-8.254a12.34 12.34 0 0 1-4.558-.885c-1.497-.589-2.79-1.322-3.877-2.2l2.448-3.357c.997.788 1.988 1.4 2.97 1.838.983.439 2.048.657 3.197.657 1.21 0 2.103-.248 2.676-.748.575-.5.863-1.14.863-1.927a1.9 1.9 0 0 0-.41-1.202 3.93 3.93 0 0 0-1.087-.93 10.455 10.455 0 0 0-1.543-.748c-.573-.227-1.15-.461-1.723-.703a27.16 27.16 0 0 1-2.222-.953 8.909 8.909 0 0 1-2.017-1.315 6.616 6.616 0 0 1-1.452-1.791c-.38-.68-.567-1.49-.567-2.427 0-1.965.725-3.566 2.177-4.807 1.45-1.24 3.43-1.86 5.941-1.86 1.542 0 2.932.273 4.172.817 1.24.544 2.314 1.164 3.22 1.86l-2.404 3.174a12.48 12.48 0 0 0-2.381-1.383 6.255 6.255 0 0 0-2.517-.523c-1.119 0-1.943.236-2.47.704-.532.47-.796 1.05-.796 1.746 0 .453.13.84.386 1.156a3.57 3.57 0 0 0 1.021.84c.423.242.913.469 1.473.68a68.22 68.22 0 0 0 1.747.635 29.06 29.06 0 0 1 2.268.93 9.366 9.366 0 0 1 2.064 1.293 5.9 5.9 0 0 1 1.496 1.88c.377.742.568 1.627.568 2.654a6.46 6.46 0 0 1-.568 2.7 6.234 6.234 0 0 1-1.655 2.177c-.725.62-1.633 1.11-2.721 1.474-1.09.362-2.33.544-3.719.544"/>
</svg>
