<svg xmlns="http://www.w3.org/2000/svg" viewBox="0 0 302.92 299.14"><defs><style>.cls-1{fill:#5c4ee5;}.cls-2{fill:#4040b2;}</style></defs><title>terraform-logo</title><g id="Layer_2" data-name="Layer 2"><g id="Layer_1-2" data-name="Layer 1"><g id="Page-1"><g id="Artboard"><g id="Terraform_VerticalLogo_FullColor" data-name="Terraform VerticalLogo FullColor"><path id="Shape" d="M7.62,232.88v-5.53h-5v5.5H0V219.63H2.61v5.56h5v-5.56h2.61v13.25Zm12,0h-2l-.18-.7a5.61,5.61,0,0,1-3,.83c-1.83,0-2.61-1.2-2.61-2.84s.89-2.61,2.9-2.61h2.4v-1c0-1.07-.31-1.43-1.9-1.43a14.48,14.48,0,0,0-2.77.29l-.31-1.83a13.51,13.51,0,0,1,3.5-.47c3.13,0,4,1.07,4,3.44ZM17,229.28H15.31c-.81,0-1,.21-1,.94s.23,1,1,1a4,4,0,0,0,1.88-.5Zm7.83,3.81a12.18,12.18,0,0,1-3.44-.55l.34-1.83a11.58,11.58,0,0,0,3,.42c1.1,0,1.28-.23,1.28-1s0-.89-1.75-1.25c-2.43-.57-2.61-1.15-2.61-3s.89-2.77,3.73-2.77a13.62,13.62,0,0,1,3,.34l-.23,1.9a18.26,18.26,0,0,0-2.74-.29c-1.1,0-1.28.23-1.28.83s0,.83,1.41,1.15c2.79.7,3.05,1.07,3.05,3s-.68,2.95-3.68,2.95Zm11.43-.21V226.2c0-.52-.23-.76-.81-.76a7.1,7.1,0,0,0-2.61.81v6.63H30.26V219.44l2.61.37V224a9.08,9.08,0,0,1,3.65-.91c1.64,0,2.24,1.12,2.24,2.82v6.94ZM40.88,222v-2.35h2.61V222Zm0,10.9V223.3h2.61v9.57Zm4.49-9.47c0-2.4,1.46-3.78,4.85-3.78a16,16,0,0,1,3.7.44l-.29,2.14a20.87,20.87,0,0,0-3.34-.47c-1.77,0-2.35.6-2.35,2v5c0,1.38.57,2,2.35,2a20.87,20.87,0,0,0,3.34-.34l.29,2.14a16,16,0,0,1-3.7.44c-3.39,0-4.85-1.38-4.85-3.78Zm14.06,9.68c-3.42,0-4.33-1.8-4.33-3.76V227c0-2,.91-3.76,4.33-3.76s4.33,1.8,4.33,3.76v2.43c0,1.88-.91,3.68-4.33,3.68Zm0-7.83c-1.33,0-1.85.57-1.85,1.64v2.61c0,1.07.52,1.64,1.85,1.64s1.85-.57,1.85-1.64V226.9c0-1.17-.52-1.75-1.85-1.75Zm11.35.16a19.77,19.77,0,0,0-2.61,1.38V233H65.56V223.3h2.27v1a11.35,11.35,0,0,1,2.61-1.25Zm10.1,4.15a2.95,2.95,0,0,1-3.29,3.37,14.3,14.3,0,0,1-2.61-.29v3.91l-2.61.37V223.3h2l.23.81a5.37,5.37,0,0,1,3.16-1c2,0,3.08,1.15,3.08,3.31Zm-5.95,1.07a11.5,11.5,0,0,0,2.22.26c.89,0,1.25-.42,1.25-1.28v-3.23c0-.78-.31-1.23-1.23-1.23a3.6,3.6,0,0,0-2.22.86Z"/><polygon id="Shape-2" data-name="Shape" points="15.21 252.86 0 252.86 0 243.78 40.72 243.78 40.72 252.86 25.51 252.86 25.51 298.25 15.21 298.25 15.21 252.86"/><path id="Shape-3" data-name="Shape" d="M50.11,290.87A41.74,41.74,0,0,0,62.3,289l1.57,7.51a42.76,42.76,0,0,1-14.63,2.61c-12.52,0-16.85-5.82-16.85-15.37V273.31c0-8.43,3.76-15.65,16.51-15.65s15.65,7.43,15.65,16v8.5H42.37v2C42.37,289,44.06,290.87,50.11,290.87ZM42.29,274.1H55v-2c0-3.76-1.15-6.37-6.05-6.37s-6.63,2.61-6.63,6.37Z"/><path id="Shape-4" data-name="Shape" d="M91.17,266.77a78.08,78.08,0,0,0-10.43,5.82v25.67H70.64V258.42h8.43l.65,4.41a44.61,44.61,0,0,1,10.43-5.22Z"/><path id="Shape-5" data-name="Shape" d="M115.54,266.77a78.08,78.08,0,0,0-10.43,5.82v25.67H95V258.42h8.43l.65,4.41a44.61,44.61,0,0,1,10.43-5.22Z"/><path id="Shape-6" data-name="Shape" d="M148.88,298.23h-8.17l-.73-2.61a21.78,21.78,0,0,1-11.84,3.52c-7.28,0-10.43-5-10.43-11.84,0-8.09,3.52-11.19,11.61-11.19h9.57v-4.17c0-4.41-1.23-6-7.59-6a55.64,55.64,0,0,0-11,1.23L119,259.59a52,52,0,0,1,13.64-1.88c12.52,0,16.2,4.41,16.2,14.4Zm-10-15.05h-7.36c-3.26,0-4.17.89-4.17,3.91s.89,4,4,4a15.65,15.65,0,0,0,7.51-2Z"/><path id="Shape-7" data-name="Shape" d="M179.56,249.34a29.27,29.27,0,0,0-5.71-.65c-3.91,0-4.49,1.72-4.49,4.75v5h10.12l-.57,7.83h-9.57v31.88h-10V266.35H153v-7.83h6.37v-5.66c0-8.27,3.83-12.34,12.68-12.34a31.59,31.59,0,0,1,8.58,1.15Z"/><path id="Shape-8" data-name="Shape" d="M199,299.06c-13.64,0-17.32-7.51-17.32-15.65V273.34c0-8.17,3.68-15.65,17.32-15.65s17.35,7.51,17.35,15.65v10.07C216.34,291.52,212.66,299.06,199,299.06Zm0-32.95c-5.22,0-7.36,2.37-7.36,6.86V283.7c0,4.49,2,6.86,7.36,6.86s7.36-2.37,7.36-6.86V273c0-4.51-2.06-6.89-7.36-6.89Z"/><path id="Shape-9" data-name="Shape" d="M242,266.77a78.07,78.07,0,0,0-10.43,5.82v25.67H221.5V258.42h8.43l.65,4.41A44.61,44.61,0,0,1,241,257.61Z"/><path id="Shape-10" data-name="Shape" d="M269.4,298.23V270.44c0-2.11-.89-3.18-3.18-3.18a27.5,27.5,0,0,0-10.43,3.37v27.63h-9.91V258.42h7.59l1,3.37a39.89,39.89,0,0,1,15.94-4.17,7.57,7.57,0,0,1,7.51,4.25,39.13,39.13,0,0,1,16-4.25c6.63,0,9,4.67,9,11.77v28.85H293V270.44c0-2.11-.89-3.18-3.18-3.18a26.4,26.4,0,0,0-10.43,3.37v27.63Z"/><polygon id="Shape-11" data-name="Shape" class="cls-1" points="123.86 35.58 179.06 67.46 179.06 131.22 123.86 99.34 123.86 35.58"/><polygon id="Shape-12" data-name="Shape" class="cls-2" points="185.11 67.46 185.11 131.22 240.34 99.34 240.34 35.58 185.11 67.46"/><polygon id="Shape-13" data-name="Shape" class="cls-1" points="62.61 0 62.61 63.76 117.81 95.64 117.81 31.88 62.61 0"/><polygon id="Shape-14" data-name="Shape" class="cls-1" points="123.86 170.06 179.06 201.94 179.06 138.63 179.06 138.21 123.86 106.33 123.86 170.06"/></g></g></g></g></g></svg>