<svg xmlns="http://www.w3.org/2000/svg" width="200" height="128">
	<path d="M72.33 59.63h-5.69v-3.4h15.24v3.4h-5.69v17h-3.84"/>
	<path d="M85.39 73.85a15.66 15.66 0 0 0 4.56-.7l.58 2.85a15.72 15.72 0 0 1-5.48 1c-4.67 0-6.3-2.17-6.3-5.76v-4.02c0-3.15 1.41-5.82 6.18-5.82s5.85 2.79 5.85 6v3.2h-8.32v.77c0 1.78.67 2.48 2.93 2.48zm-2.9-6.25h4.74v-.76c0-1.4-.43-2.38-2.26-2.38s-2.48 1-2.48 2.38zm18.26-2.77a28.72 28.72 0 0 0-4 2.17v9.6h-3.69V61.71h3.15l.24 1.65a16.91 16.91 0 0 1 3.92-2zm9.11 0a27.93 27.93 0 0 0-3.94 2.17v9.6h-3.73V61.71h3.14l.25 1.65a16.85 16.85 0 0 1 3.91-2zm12.49 11.77h-3.06l-.27-1a8.15 8.15 0 0 1-4.44 1.32c-2.72 0-3.88-1.87-3.88-4.43 0-3 1.31-4.2 4.34-4.2h3.58v-1.57c0-1.65-.46-2.23-2.85-2.23a20.49 20.49 0 0 0-4.13.46l-.46-2.85a19.28 19.28 0 0 1 5.12-.7c4.68 0 6.06 1.65 6.06 5.38zm-3.73-5.6h-2.75c-1.23 0-1.56.34-1.56 1.47s.33 1.49 1.49 1.49a5.81 5.81 0 0 0 2.82-.76V71zm15.2-12.66a11.16 11.16 0 0 0-2.15-.25c-1.46 0-1.68.64-1.68 1.78v1.87h3.79l-.21 3H130V76.6h-3.73V64.67h-2.39v-3h2.39v-2.04c0-3.09 1.44-4.62 4.74-4.62a11.92 11.92 0 0 1 3.2.42l-.39 2.88zm7.28 18.6c-5.12 0-6.48-2.82-6.48-5.87v-3.8c0-3.06 1.37-5.87 6.48-5.87s6.48 2.81 6.48 5.87V71c.01 3.09-1.37 5.91-6.48 5.91zm0-12.33c-2 0-2.75.89-2.75 2.56v4c0 1.69.77 2.56 2.75 2.56s2.75-.89 2.75-2.56v-4c0-1.7-.76-2.59-2.75-2.59zm16.09.25a28.61 28.61 0 0 0-3.95 2.14v9.6h-3.73V61.71h3.15l.24 1.65a16.72 16.72 0 0 1 3.92-2zm10.25 11.74V66.2c0-.79-.34-1.19-1.19-1.19a10.5 10.5 0 0 0-3.89 1.28V76.6h-3.73V61.71h2.85l.37 1.28a14.66 14.66 0 0 1 6-1.59 2.83 2.83 0 0 1 2.79 1.6 14.55 14.55 0 0 1 6-1.59c2.48 0 3.37 1.74 3.37 4.4V76.6h-3.73V66.2c0-.79-.34-1.19-1.19-1.19a10.15 10.15 0 0 0-3.89 1.28V76.6z"/>
	<path d="m43.29 72.16 10.5-6V54l-10.5 6.07" fill="#4040b2"/>
	<path fill="#5c4ee5" d="m31.65 54 10.49 6.07v12.09L31.65 66.1M20 59.34l10.49 6.06V53.28L20 47.22m11.65 32.33 10.49 6.06V73.49l-10.49-6.06"/>
</svg>
