<?xml version="1.0" encoding="utf-8"?>
<!-- Generator: Adobe Illustrator 21.1.0, SVG Export Plug-In . SVG Version: 6.00 Build 0)  -->
<svg version="1.1" id="Layer_1" xmlns="http://www.w3.org/2000/svg" xmlns:xlink="http://www.w3.org/1999/xlink" x="0px" y="0px"
	 viewBox="0 0 300 117" style="enable-background:new 0 0 300 117;" xml:space="preserve">
<style type="text/css">
	.st0{fill:#7D7D7D;}
	.st1{fill:#FCFDFC;}
	.st2{fill:#4ABD4A;}
	.st3{fill:#1D1E1C;}
</style>
<g>
	<g>
		<path class="st0" d="M0,116.4C0,77.7,0,39,0,0.2c38.8,0,77.5,0,116.3,0c0,38.7,0,77.4,0,116.3C77.4,116.4,38.7,116.4,0,116.4z
			 M36.5,70.6c-7-0.4-14.1-0.9-21.2-1.3c0,4.6,0,9,0,13.4c0,0.7,0.5,0.9,1,1c4.1,1.3,8.2,2.3,12.3,3.4c5.7,1.5,11.3,3.3,17.1,4.6
			c5.5,1.2,10.8,2.9,16.2,4.4c5.8,1.6,11.7,3.2,17.5,4.8c0.9,0.2,1.9,0.6,2.8,0.1c2.1-1.1,4.3-1.9,6.5-2.8c3.5-1.4,7.1-2.9,10.6-4.4
			c0.4,0.1,0.8,0,0.9-0.5c0.2-0.1,0.4-0.2,0.6-0.4c0.8-0.3,0.5-1,0.5-1.5c0-3.1,0-6.2,0-9.4c0-0.7,0.2-1.3-0.2-2c0-2.4,0-4.9,0-7.3
			c-0.5-0.8-1.6-0.8-2.7,0c-1.9,0.1-3.8,0.2-5.6,0.3c-4.9,0.2-9.7,1-14.6,0.5c-0.9-0.7-1.9-0.5-2.9-0.3c-0.7,0-1.3-0.1-2-0.1
			c-1.2-0.7-2.6-0.4-3.9-0.3c-5.3,0-10.6-0.9-15.9-1c-1.3-0.9-2.8-0.4-4.2-0.4c-0.6,0-1.3,0-1.9-0.1c-1.5-0.4-3.1-0.8-4.6-0.3
			C42,71,41.2,71,40.4,71C39.2,70.1,37.9,70.6,36.5,70.6z M15,47.5c3.3-0.4,6.4-0.4,9.5-0.6c9.6-0.7,19.2-1.4,28.8-2.1
			c5.7-0.4,11.5-0.5,17.2-1.1c7.7-0.8,15.3-0.8,23,0c2.4,0.2,4.8,0,7.2,0c0-6.4,0-12.8,0-19.2c0-0.7-0.4-0.9-0.9-1.1
			c-2.9-1.2-5.7-2.4-8.6-3.6c-3.3-1.4-6.5-2.8-9.8-4.2c-0.5-0.2-0.9-0.2-1.5,0c-3.8,1.1-7.7,2.2-11.5,3.2c-4.4,1.2-8.8,2.4-13.2,3.5
			c-4.5,1.2-9,2.5-13.6,3.7c-4.3,1.2-8.7,2.3-13.1,3.5c-4,1.1-8.1,2.1-12.1,3.2C16,32.9,15,32.9,15,34C15,38.4,15,42.8,15,47.5z
			 M15.2,67.2c28.6,1,57,1.9,85.6,2.9c0-7.7,0-15.1,0-22.6c0-1-0.6-0.9-1.3-0.9c-2,0.1-4.1,0.2-6.1,0.3c-10.9,0.4-21.9,0.7-32.8,1.1
			c-14.8,0.5-29.5,1.1-44.3,1.7c-0.4,0-0.9-0.1-1.1,0.1C15.2,55.6,15.2,61.4,15.2,67.2z"/>
		<path class="st1" d="M0,116.4c38.7,0,77.4,0,116.3,0c0-38.8,0-77.5,0-116.3c0.6,0.3,0.3,0.8,0.3,1.2c0,16.6,0,33.1,0,49.7
			c0,21.9,0,43.8,0,65.7c-38.4,0-76.8,0-115.2,0C0.9,116.7,0.3,117.1,0,116.4z"/>
		<path class="st1" d="M15,47.5c0-4.6,0-9,0-13.4c0-1.1,1-1.1,1.6-1.3c4-1.1,8.1-2.2,12.1-3.2c4.4-1.2,8.7-2.3,13.1-3.5
			c4.5-1.2,9-2.5,13.6-3.7c4.4-1.2,8.8-2.4,13.2-3.5c3.8-1,7.7-2.1,11.5-3.2c0.5-0.2,0.9-0.2,1.5,0c3.2,1.4,6.5,2.9,9.8,4.2
			c2.9,1.2,5.7,2.4,8.6,3.6c0.5,0.2,0.9,0.4,0.9,1.1c0,6.4,0,12.9,0,19.2c-2.4,0-4.8,0.2-7.2,0c-7.7-0.8-15.3-0.8-23,0
			c-5.7,0.6-11.5,0.7-17.2,1.1c-9.6,0.7-19.2,1.4-28.8,2.1C21.4,47,18.3,47.1,15,47.5z"/>
		<path class="st1" d="M99.4,93.8c-3.5,1.5-7,3-10.6,4.4c-2.2,0.9-4.4,1.7-6.5,2.8c-0.9,0.5-1.9,0.2-2.8-0.1
			c-5.8-1.6-11.7-3.2-17.5-4.8c-5.4-1.5-10.7-3.2-16.2-4.4c-5.8-1.3-11.4-3.1-17.1-4.6c-4.1-1.1-8.3-2.1-12.3-3.4
			c-0.5-0.2-1-0.3-1-1c0-4.4,0-8.8,0-13.4c7.1,0.4,14.2,0.9,21.2,1.3c1.3,0.6,2.6,0.5,3.9,0.4c0.8,0,1.5,0.1,2.3,0.1
			c1.5,0.3,3.1,0.5,4.6,0.3c0.6,0,1.3,0,1.9,0.1c1.4,0.6,2.8,0.5,4.2,0.4c5.3,0.1,10.6,1,15.9,1c1.3,0.4,2.5,0.6,3.9,0.3
			c0.7,0,1.3,0.1,2,0.1c1,0.3,1.9,0.4,2.9,0.3c4.9,0.5,9.8-0.2,14.6-0.5c1.9-0.1,3.8-0.2,5.6-0.3c0.9,0,1.8,0,2.7,0
			c0,2.4,0,4.9,0,7.3c-0.3,0.3-0.2,0.7-0.2,1.1c-0.1,3.9-0.1,7.8-0.1,11.7c-0.2,0.1-0.4,0.2-0.6,0.4C99.9,93.2,99.6,93.4,99.4,93.8z
			"/>
		<path class="st1" d="M15.2,67.2c0-5.9,0-11.6,0-17.4c0.3-0.2,0.7-0.1,1.1-0.1c14.8-0.6,29.5-1.1,44.3-1.7
			c10.9-0.4,21.9-0.7,32.8-1.1c2-0.1,4.1-0.2,6.1-0.3c0.6,0,1.3-0.1,1.3,0.9c0,7.5,0,14.9,0,22.6C72.3,69.2,43.9,68.2,15.2,67.2z"/>
		<path class="st2" d="M100.9,92.9c0-3.9,0.1-7.8,0.1-11.7c0-0.4-0.1-0.8,0.2-1.1c0.4,0.6,0.2,1.3,0.2,2c0,3.1,0,6.2,0,9.4
			C101.4,92,101.7,92.6,100.9,92.9z"/>
		<path class="st2" d="M47.4,71.4c-1.6,0.2-3.1-0.1-4.6-0.3C44.3,70.6,45.8,71,47.4,71.4z"/>
		<path class="st2" d="M53.5,71.9c-1.4,0.1-2.8,0.1-4.2-0.4C50.7,71.4,52.2,71,53.5,71.9z"/>
		<path class="st2" d="M40.4,71c-1.3,0.1-2.6,0.1-3.9-0.4C37.9,70.6,39.2,70.1,40.4,71z"/>
		<path class="st2" d="M73.3,73.2c-1.3,0.2-2.6,0.1-3.9-0.3C70.7,72.8,72.1,72.5,73.3,73.2z"/>
		<path class="st2" d="M101.2,72.8c-0.9,0-1.8,0-2.7,0C99.6,72.1,100.7,72.1,101.2,72.8z"/>
		<path class="st2" d="M78.2,73.6c-1,0.2-2,0-2.9-0.3C76.3,73.1,77.3,72.8,78.2,73.6z"/>
		<path class="st2" d="M99.4,93.8c0.2-0.3,0.5-0.6,0.9-0.5C100.1,93.7,99.8,93.9,99.4,93.8z"/>
	</g>
	<g>
		<path class="st3" d="M144.5,46.6h-2.9V24.3h-7.9v-2.6h18.7v2.6h-7.9V46.6z"/>
		<path class="st3" d="M163.6,46.9c-2.8,0-4.9-0.8-6.5-2.5c-1.6-1.7-2.4-4-2.4-7c0-3,0.7-5.4,2.2-7.2c1.5-1.8,3.5-2.7,6-2.7
			c2.3,0,4.2,0.8,5.6,2.3c1.4,1.5,2,3.6,2,6.1v1.8h-12.9c0.1,2.2,0.6,3.9,1.7,5c1.1,1.1,2.5,1.7,4.4,1.7c2,0,4-0.4,6-1.3v2.5
			c-1,0.4-1.9,0.7-2.8,0.9C166,46.8,164.9,46.9,163.6,46.9z M162.9,29.9c-1.5,0-2.7,0.5-3.6,1.5c-0.9,1-1.4,2.3-1.6,4.1h9.8
			c0-1.8-0.4-3.2-1.2-4.1C165.5,30.4,164.4,29.9,162.9,29.9z"/>
		<path class="st3" d="M187.4,41.5c0,1.7-0.6,3.1-1.9,4c-1.3,0.9-3.1,1.4-5.5,1.4c-2.5,0-4.4-0.4-5.8-1.2v-2.6
			c0.9,0.5,1.9,0.8,2.9,1.1c1,0.3,2,0.4,3,0.4c1.5,0,2.6-0.2,3.4-0.7c0.8-0.5,1.2-1.2,1.2-2.2c0-0.7-0.3-1.3-0.9-1.9
			c-0.6-0.5-1.9-1.1-3.7-1.8c-1.7-0.6-3-1.2-3.7-1.7c-0.7-0.5-1.3-1-1.6-1.6c-0.4-0.6-0.5-1.3-0.5-2.2c0-1.5,0.6-2.7,1.9-3.6
			c1.2-0.9,2.9-1.3,5.1-1.3c2,0,4,0.4,5.9,1.2l-1,2.3c-1.9-0.8-3.6-1.2-5.1-1.2c-1.3,0-2.4,0.2-3,0.6c-0.7,0.4-1,1-1,1.7
			c0,0.5,0.1,0.9,0.4,1.3c0.3,0.4,0.7,0.7,1.2,1c0.6,0.3,1.7,0.8,3.3,1.4c2.2,0.8,3.7,1.6,4.5,2.4C187,39.2,187.4,40.3,187.4,41.5z"
			/>
		<path class="st3" d="M198,44.6c0.5,0,1,0,1.4-0.1c0.5-0.1,0.8-0.2,1.1-0.2v2.2c-0.3,0.1-0.8,0.3-1.4,0.4c-0.6,0.1-1.1,0.1-1.6,0.1
			c-3.6,0-5.4-1.9-5.4-5.7V30.1h-2.7v-1.4l2.7-1.2l1.2-4h1.6v4.3h5.4v2.2H195v11c0,1.1,0.3,2,0.8,2.6
			C196.4,44.3,197.1,44.6,198,44.6z"/>
		<path class="st3" d="M218.8,40c0,2.2-0.8,3.9-2.4,5.1s-3.7,1.8-6.5,1.8c-3,0-5.2-0.4-6.8-1.1V43c1,0.4,2.1,0.8,3.3,1
			c1.2,0.3,2.4,0.4,3.6,0.4c1.9,0,3.4-0.4,4.4-1.1s1.5-1.8,1.5-3.1c0-0.9-0.2-1.6-0.5-2.1c-0.3-0.6-0.9-1.1-1.7-1.5
			c-0.8-0.5-2-1-3.7-1.6c-2.3-0.8-4-1.8-5-2.9c-1-1.1-1.5-2.6-1.5-4.4c0-1.9,0.7-3.4,2.2-4.6c1.4-1.1,3.4-1.7,5.7-1.7
			c2.5,0,4.8,0.5,6.8,1.4l-0.9,2.5c-2.1-0.9-4.1-1.3-6-1.3c-1.5,0-2.7,0.3-3.6,1c-0.9,0.7-1.3,1.6-1.3,2.7c0,0.9,0.2,1.6,0.5,2.1
			c0.3,0.6,0.9,1.1,1.6,1.5c0.8,0.5,1.9,1,3.5,1.5c2.6,0.9,4.4,1.9,5.4,3C218.3,36.9,218.8,38.3,218.8,40z"/>
		<path class="st3" d="M229.5,44.6c0.5,0,1,0,1.4-0.1c0.5-0.1,0.8-0.2,1.1-0.2v2.2c-0.3,0.1-0.8,0.3-1.4,0.4
			c-0.6,0.1-1.1,0.1-1.6,0.1c-3.6,0-5.4-1.9-5.4-5.7V30.1H221v-1.4l2.7-1.2l1.2-4h1.6v4.3h5.4v2.2h-5.4v11c0,1.1,0.3,2,0.8,2.6
			C227.8,44.3,228.6,44.6,229.5,44.6z"/>
		<path class="st3" d="M247.3,46.6l-0.6-2.7h-0.1c-0.9,1.2-1.9,2-2.8,2.4c-0.9,0.4-2.1,0.6-3.5,0.6c-1.9,0-3.3-0.5-4.4-1.4
			c-1.1-1-1.6-2.3-1.6-4.1c0-3.8,3-5.7,9.1-5.9l3.2-0.1v-1.2c0-1.5-0.3-2.5-0.9-3.2c-0.6-0.7-1.6-1-3-1c-1.6,0-3.3,0.5-5.3,1.4
			l-0.9-2.2c0.9-0.5,1.9-0.9,3-1.2c1.1-0.3,2.2-0.4,3.3-0.4c2.2,0,3.9,0.5,5,1.5c1.1,1,1.6,2.6,1.6,4.8v12.7H247.3z M240.9,44.6
			c1.8,0,3.1-0.5,4.2-1.4c1-1,1.5-2.3,1.5-4.1v-1.7l-2.8,0.1c-2.2,0.1-3.9,0.4-4.9,1c-1,0.6-1.5,1.6-1.5,2.9c0,1,0.3,1.8,0.9,2.3
			C238.9,44.3,239.8,44.6,240.9,44.6z"/>
		<path class="st3" d="M262.7,46.9c-2.7,0-4.8-0.8-6.3-2.5c-1.5-1.7-2.2-4-2.2-7.1c0-3.1,0.8-5.5,2.3-7.2c1.5-1.7,3.7-2.6,6.4-2.6
			c0.9,0,1.8,0.1,2.7,0.3c0.9,0.2,1.6,0.4,2.1,0.7l-0.9,2.4c-0.6-0.2-1.3-0.5-2-0.6c-0.7-0.2-1.4-0.2-2-0.2c-3.8,0-5.7,2.4-5.7,7.3
			c0,2.3,0.5,4.1,1.4,5.3c0.9,1.2,2.3,1.8,4.1,1.8c1.6,0,3.2-0.3,4.8-1V46C266.1,46.6,264.6,46.9,262.7,46.9z"/>
		<path class="st3" d="M274.6,37c0.5-0.7,1.2-1.6,2.2-2.7l6-6.4h3.4l-7.6,8l8.1,10.7h-3.4l-6.6-8.8l-2.1,1.8v7h-2.8V20.1h2.8v14.1
			c0,0.6,0,1.6-0.1,2.9H274.6z"/>
		<path class="st3" d="M158.6,83.1h-2.9l-5-16.7c-0.2-0.7-0.5-1.7-0.8-2.8c-0.3-1.1-0.4-1.8-0.5-2c-0.2,1.5-0.6,3.1-1.2,4.9
			l-4.9,16.6h-2.9l-6.6-24.9h3.1l3.9,15.4c0.5,2.2,0.9,4.1,1.2,5.9c0.3-2.1,0.8-4.1,1.4-6.1l4.5-15.2h3.1l4.7,15.3
			c0.5,1.8,1,3.7,1.4,6c0.2-1.6,0.6-3.6,1.2-5.9l3.9-15.4h3.1L158.6,83.1z"/>
		<path class="st3" d="M188.1,83.1h-2.9V71.4h-13.1v11.7h-2.9V58.2h2.9v10.6h13.1V58.2h2.9V83.1z"/>
		<path class="st3" d="M194.9,83.1V58.2h2.9v24.9H194.9z"/>
		<path class="st3" d="M212.3,83.1h-2.9V60.7h-7.9v-2.6h18.7v2.6h-7.9V83.1z"/>
		<path class="st3" d="M237.9,83.1H224V58.2h13.9v2.6h-11v8h10.3v2.6h-10.3v9.2h11V83.1z"/>
	</g>
	<g>
		<path class="st3" d="M134.8,115.8v-7h-1.1v-1.1h1.1v-0.4c0-1.1,0.3-2.2,0.9-2.9c0.6-0.5,1.3-0.8,2-0.8c0.5,0,1,0.1,1.3,0.2
			l-0.2,1.1c-0.2-0.1-0.5-0.2-0.9-0.2c-1.3,0-1.6,1.1-1.6,2.4v0.4h2v1.1h-2v7H134.8z"/>
		<path class="st3" d="M139.6,110.1c0-1,0-1.8-0.1-2.6h1.3l0.1,1.6h0.1c0.4-1.1,1.3-1.8,2.3-1.8c0.2,0,0.3,0,0.4,0.1v1.4
			c-0.2,0-0.3-0.1-0.5-0.1c-1,0-1.8,0.8-2,1.9c0,0.2-0.1,0.4-0.1,0.7v4.4h-1.5V110.1z"/>
		<path class="st3" d="M149.6,115.8l-0.1-1h-0.1c-0.5,0.6-1.3,1.2-2.5,1.2c-1.7,0-2.5-1.2-2.5-2.3c0-2,1.8-3.1,4.9-3v-0.2
			c0-0.7-0.2-1.9-1.9-1.9c-0.8,0-1.6,0.2-2.1,0.6l-0.3-1c0.7-0.4,1.7-0.7,2.7-0.7c2.5,0,3.1,1.7,3.1,3.3v3.1c0,0.7,0,1.4,0.1,2
			H149.6z M149.4,111.6c-1.6,0-3.5,0.3-3.5,1.8c0,1,0.6,1.4,1.4,1.4c1.1,0,1.7-0.7,2-1.4c0-0.2,0.1-0.3,0.1-0.5V111.6z"/>
		<path class="st3" d="M153.2,109.8c0-0.8,0-1.5-0.1-2.2h1.3l0.1,1.3h0.1c0.5-0.8,1.2-1.5,2.6-1.5c1.1,0,2,0.7,2.3,1.6h0
			c0.3-0.5,0.6-0.8,0.9-1.1c0.5-0.4,1-0.6,1.8-0.6c1.1,0,2.7,0.7,2.7,3.5v4.8h-1.5v-4.6c0-1.6-0.6-2.5-1.8-2.5
			c-0.8,0-1.5,0.6-1.8,1.4c-0.1,0.2-0.1,0.5-0.1,0.7v5.1h-1.5v-4.9c0-1.3-0.6-2.2-1.7-2.2c-0.9,0-1.6,0.7-1.8,1.5
			c-0.1,0.2-0.1,0.5-0.1,0.7v4.9h-1.5V109.8z"/>
		<path class="st3" d="M168.1,111.9c0,2,1.3,2.8,2.8,2.8c1.1,0,1.7-0.2,2.3-0.4l0.3,1.1c-0.5,0.2-1.4,0.5-2.7,0.5
			c-2.5,0-4-1.7-4-4.1c0-2.5,1.5-4.4,3.8-4.4c2.7,0,3.4,2.3,3.4,3.9c0,0.3,0,0.5,0,0.7H168.1z M172.5,110.9c0-0.9-0.4-2.4-2.1-2.4
			c-1.5,0-2.2,1.4-2.3,2.4H172.5z"/>
		<path class="st3" d="M176.3,107.6l1.1,4.2c0.2,0.9,0.5,1.8,0.6,2.6h0c0.2-0.8,0.5-1.7,0.7-2.6l1.3-4.2h1.3l1.3,4.1
			c0.3,1,0.5,1.8,0.7,2.7h0.1c0.1-0.8,0.4-1.7,0.6-2.7l1.2-4.1h1.5l-2.6,8.2h-1.4l-1.3-3.9c-0.3-0.9-0.5-1.7-0.7-2.7h0
			c-0.2,1-0.5,1.8-0.7,2.7l-1.3,3.9h-1.4l-2.5-8.2H176.3z"/>
		<path class="st3" d="M195.4,111.6c0,3-2.1,4.3-4.1,4.3c-2.2,0-3.9-1.6-3.9-4.2c0-2.7,1.8-4.3,4.1-4.3
			C193.8,107.4,195.4,109.1,195.4,111.6z M188.9,111.7c0,1.8,1,3.1,2.5,3.1c1.4,0,2.5-1.3,2.5-3.2c0-1.4-0.7-3.1-2.5-3.1
			C189.7,108.5,188.9,110.1,188.9,111.7z"/>
		<path class="st3" d="M197.3,110.1c0-1,0-1.8-0.1-2.6h1.3l0.1,1.6h0.1c0.4-1.1,1.3-1.8,2.3-1.8c0.2,0,0.3,0,0.4,0.1v1.4
			c-0.2,0-0.3-0.1-0.5-0.1c-1,0-1.8,0.8-2,1.9c0,0.2-0.1,0.4-0.1,0.7v4.4h-1.5V110.1z"/>
		<path class="st3" d="M204.3,111.3L204.3,111.3c0.2-0.3,0.5-0.6,0.8-0.9l2.4-2.8h1.8l-3.2,3.4l3.6,4.8h-1.8l-2.8-3.9l-0.8,0.8v3.1
			h-1.5v-12h1.5V111.3z"/>
		<path class="st3" d="M214.5,115.8v-7h-1.1v-1.1h1.1v-0.4c0-1.1,0.3-2.2,0.9-2.9c0.6-0.5,1.3-0.8,2-0.8c0.5,0,1,0.1,1.3,0.2
			l-0.2,1.1c-0.2-0.1-0.5-0.2-0.9-0.2c-1.3,0-1.6,1.1-1.6,2.4v0.4h2v1.1h-2v7H214.5z"/>
		<path class="st3" d="M226.5,111.6c0,3-2.1,4.3-4.1,4.3c-2.2,0-3.9-1.6-3.9-4.2c0-2.7,1.8-4.3,4.1-4.3
			C224.9,107.4,226.5,109.1,226.5,111.6z M220,111.7c0,1.8,1,3.1,2.5,3.1c1.4,0,2.5-1.3,2.5-3.2c0-1.4-0.7-3.1-2.5-3.1
			S220,110.1,220,111.7z"/>
		<path class="st3" d="M228.4,110.1c0-1,0-1.8-0.1-2.6h1.3l0.1,1.6h0.1c0.4-1.1,1.3-1.8,2.3-1.8c0.2,0,0.3,0,0.4,0.1v1.4
			c-0.2,0-0.3-0.1-0.5-0.1c-1,0-1.8,0.8-2,1.9c0,0.2-0.1,0.4-0.1,0.7v4.4h-1.5V110.1z"/>
		<path class="st3" d="M238.8,115.8l-2.9-11.4h1.6l1.4,5.8c0.3,1.4,0.6,2.8,0.8,3.9h0c0.2-1.1,0.5-2.5,0.9-4l1.5-5.7h1.5l1.4,5.8
			c0.3,1.4,0.6,2.7,0.8,3.9h0c0.2-1.3,0.6-2.5,0.9-3.9l1.5-5.7h1.5l-3.2,11.4H245l-1.4-5.9c-0.4-1.5-0.6-2.6-0.7-3.7h0
			c-0.2,1.1-0.5,2.2-0.9,3.7l-1.6,5.9H238.8z"/>
		<path class="st3" d="M252.5,105.3c0,0.5-0.4,0.9-0.9,0.9c-0.5,0-0.9-0.4-0.9-0.9c0-0.5,0.4-0.9,0.9-0.9
			C252.2,104.4,252.5,104.8,252.5,105.3z M250.9,115.8v-8.2h1.5v8.2H250.9z"/>
		<path class="st3" d="M254.8,109.8c0-0.8,0-1.5-0.1-2.2h1.3l0.1,1.4h0c0.4-0.8,1.4-1.5,2.7-1.5c1.1,0,2.9,0.7,2.9,3.5v4.9h-1.5V111
			c0-1.3-0.5-2.4-1.9-2.4c-1,0-1.7,0.7-2,1.5c-0.1,0.2-0.1,0.4-0.1,0.7v4.9h-1.5V109.8z"/>
		<path class="st3" d="M271.3,103.8v9.9c0,0.7,0,1.6,0.1,2.1H270l-0.1-1.4h0c-0.5,0.9-1.5,1.6-2.8,1.6c-2,0-3.5-1.7-3.5-4.2
			c0-2.7,1.7-4.4,3.7-4.4c1.3,0,2.1,0.6,2.5,1.3h0v-4.9H271.3z M269.8,110.9c0-0.2,0-0.4-0.1-0.6c-0.2-0.9-1-1.7-2.1-1.7
			c-1.5,0-2.4,1.4-2.4,3.2c0,1.7,0.8,3,2.4,3c1,0,1.9-0.7,2.2-1.8c0-0.2,0.1-0.4,0.1-0.6V110.9z"/>
		<path class="st3" d="M281.1,111.6c0,3-2.1,4.3-4.1,4.3c-2.2,0-3.9-1.6-3.9-4.2c0-2.7,1.8-4.3,4.1-4.3
			C279.5,107.4,281.1,109.1,281.1,111.6z M274.6,111.7c0,1.8,1,3.1,2.5,3.1c1.4,0,2.5-1.3,2.5-3.2c0-1.4-0.7-3.1-2.5-3.1
			S274.6,110.1,274.6,111.7z"/>
		<path class="st3" d="M283.5,107.6l1.1,4.2c0.2,0.9,0.5,1.8,0.6,2.6h0c0.2-0.8,0.5-1.7,0.7-2.6l1.3-4.2h1.3l1.3,4.1
			c0.3,1,0.5,1.8,0.7,2.7h0.1c0.1-0.8,0.4-1.7,0.6-2.7l1.2-4.1h1.5l-2.6,8.2h-1.4l-1.3-3.9c-0.3-0.9-0.5-1.7-0.7-2.7h0
			c-0.2,1-0.5,1.8-0.7,2.7l-1.3,3.9h-1.4l-2.5-8.2H283.5z"/>
		<path class="st3" d="M295,114.2c0.4,0.3,1.2,0.6,2,0.6c1.1,0,1.6-0.5,1.6-1.2c0-0.7-0.4-1.1-1.5-1.5c-1.5-0.5-2.2-1.3-2.2-2.3
			c0-1.3,1.1-2.4,2.8-2.4c0.8,0,1.6,0.2,2,0.5l-0.4,1.1c-0.3-0.2-0.9-0.5-1.7-0.5c-0.9,0-1.4,0.5-1.4,1.1c0,0.7,0.5,1,1.6,1.4
			c1.4,0.5,2.1,1.3,2.1,2.5c0,1.4-1.1,2.5-3.1,2.5c-0.9,0-1.7-0.2-2.3-0.6L295,114.2z"/>
	</g>
</g>
</svg>
