<svg xmlns="http://www.w3.org/2000/svg" viewBox="-2.42 -2.42 125.97 103.22">
	<linearGradient id="a" x1="39.356" x2="39.356" y1=".723" y2="70.88" gradientUnits="userSpaceOnUse">
		<stop offset="0" stop-color="#16c7f3"/>
		<stop offset="1" stop-color="#1f72b3"/>
	</linearGradient>
	<path fill="url(#a)" d="m34.4 17.3 4.6 5.2 24.5 30.6-2.9 3.6-27.4-34.2-4.6-5.2H13.4l4.6 5.2 35 43.8 7.6 9.5 7.6-9.5 2.9-3.6 7.6-9.6-7.6-9.5-16.9-21.1-7.3-9.2-3.3-4.1L36.3 0H0l10.1 13.3h21z"/>
	<linearGradient id="b" x1="91.809" x2="91.809" y1=".723" y2="70.88" gradientUnits="userSpaceOnUse">
		<stop offset="0" stop-color="#16c7f3"/>
		<stop offset="1" stop-color="#1f72b3"/>
	</linearGradient>
	<path fill="url(#b)" d="m76.4 17.5 15.5 19.2 11.3-14.2 4-5z"/>
	<linearGradient id="c" x1="81.583" x2="81.583" y1=".723" y2="70.88" gradientUnits="userSpaceOnUse">
		<stop offset="0" stop-color="#16c7f3"/>
		<stop offset="1" stop-color="#1f72b3"/>
	</linearGradient>
	<path fill="url(#c)" d="M60 22.5 74 40l7.6 9.5 7.6-9.5.1-.1-18.1-22.4-3.3-4.1h42.6l.1-.1 3.2-4.1 7.4-9.2H42l7.4 9.2 3.2 4.1z"/>
	<path d="M5.778 94.113H4.152V82.688H.136v-1.424h9.632v1.424h-3.99Z"/>
	<path d="M18.083 94.113v-6.17q0-1.177-.527-1.749-.519-.58-1.635-.58-1.468 0-2.154.818-.676.817-.676 2.698v4.983h-1.582V80.438h1.582v4.007q0 .791-.088 1.354h.105q.431-.703 1.222-1.099.791-.395 1.784-.395 1.758 0 2.646.843.887.835.887 2.681v6.284z"/>
	<path d="M27.153 84.287q.642 0 1.134.106l-.193 1.459q-.536-.123-1.046-.123-.765 0-1.424.421-.65.422-1.02 1.17-.369.738-.369 1.643v5.15h-1.582v-9.65h1.301l.176 1.766h.07q.554-.958 1.31-1.45t1.643-.492z"/>
	<path d="M34.035 94.29q-2.17 0-3.41-1.31-1.23-1.319-1.23-3.622 0-2.32 1.15-3.691 1.152-1.38 3.112-1.38 1.82 0 2.9 1.178 1.082 1.169 1.082 3.173v.958h-6.61q.044 1.643.835 2.496.791.852 2.241.852.774 0 1.468-.132.694-.14 1.626-.536v1.389q-.8.343-1.503.483-.703.141-1.66.141zm-.395-8.71q-1.134 0-1.793.729-.66.73-.783 2.03h4.913q-.017-1.354-.624-2.057-.606-.703-1.713-.703z"/>
	<path d="m46.05 94.113-.308-1.37h-.07q-.72.904-1.442 1.23-.712.316-1.801.316-1.424 0-2.233-.747-.808-.747-.808-2.11 0-2.935 4.631-3.076l1.635-.061v-.571q0-1.099-.474-1.618-.475-.527-1.52-.527-.766 0-1.451.229-.677.228-1.275.51l-.483-1.187q.73-.387 1.59-.607.862-.22 1.706-.22 1.749 0 2.602.774.852.774.852 2.461v6.574zm-3.261-1.098q1.327 0 2.083-.712.765-.721.765-2.04v-.87l-1.424.062q-1.661.062-2.426.527-.756.466-.756 1.468 0 .756.457 1.16.466.405 1.301.405z"/>
	<path d="M53.406 92.997q.308 0 .72-.061.414-.062.625-.141v1.213q-.22.096-.686.184-.457.097-.931.097-2.83 0-2.83-2.98v-5.616H48.94v-.755l1.38-.633.633-2.057h.94v2.215h2.787v1.23h-2.787v5.573q0 .835.396 1.283.404.448 1.116.448z"/>
	<path d="m62.573 94.113-4.236-11.267h-.07q.131 1.406.131 3.471v7.796h-1.494v-12.85h2.39l3.965 10.53h.07l4.034-10.53h2.373v12.85h-1.6v-7.901q0-1.318.124-3.349h-.07l-4.29 11.25z"/>
	<path d="m78.991 94.113-.307-1.37h-.07q-.722.904-1.442 1.23-.712.316-1.802.316-1.424 0-2.232-.747-.809-.747-.809-2.11 0-2.935 4.632-3.076l1.635-.061v-.571q0-1.099-.475-1.618-.475-.527-1.52-.527-.765 0-1.45.229-.677.228-1.275.51l-.484-1.187q.73-.387 1.591-.607.862-.22 1.705-.22 1.75 0 2.602.774.852.774.852 2.461v6.574zm-3.26-1.098q1.327 0 2.082-.712.765-.721.765-2.04v-.87l-1.424.062q-1.66.062-2.426.527-.755.466-.755 1.468 0 .756.457 1.16.465.405 1.3.405z"/>
	<path d="M87.692 94.29q-1.942 0-2.988-1.398h-.105l.035.36q.07.686.07 1.222v3.963h-1.582V84.463h1.3l.212 1.318h.07q.563-.79 1.3-1.142.74-.352 1.706-.352 1.88 0 2.918 1.31 1.046 1.3 1.046 3.674 0 2.364-1.046 3.69-1.046 1.328-2.936 1.328zm-.263-8.676q-1.433 0-2.075.809-.632.808-.65 2.54v.308q0 1.96.65 2.838.65.87 2.11.87 1.213 0 1.89-.984.685-.984.685-2.742 0-1.767-.686-2.698-.676-.94-1.924-.94z"/>
	<path d="M98.767 94.29q-1.943 0-2.989-1.398h-.105l.035.36q.07.686.07 1.222v3.963h-1.582V84.463h1.301l.21 1.318h.071q.563-.79 1.301-1.142.738-.352 1.705-.352 1.88 0 2.918 1.31 1.046 1.3 1.046 3.674 0 2.364-1.046 3.69-1.046 1.328-2.935 1.328zm-.264-8.676q-1.433 0-2.074.809-.633.808-.65 2.54v.308q0 1.96.65 2.838.65.87 2.109.87 1.213 0 1.89-.984.685-.984.685-2.742 0-1.767-.685-2.698-.677-.94-1.925-.94z"/>
	<path d="M109.375 94.29q-2.171 0-3.41-1.31-1.23-1.319-1.23-3.622 0-2.32 1.15-3.691 1.152-1.38 3.112-1.38 1.82 0 2.9 1.178 1.081 1.169 1.081 3.173v.958h-6.609q.044 1.643.835 2.496.791.852 2.241.852.774 0 1.468-.132.694-.14 1.626-.536v1.389q-.8.343-1.503.483-.703.141-1.661.141zm-.396-8.71q-1.133 0-1.793.729-.659.73-.782 2.03h4.913q-.017-1.354-.624-2.057-.606-.703-1.714-.703z"/>
	<path d="M119.93 84.287q.642 0 1.134.106l-.193 1.459q-.536-.123-1.046-.123-.765 0-1.424.421-.65.422-1.02 1.17-.368.738-.368 1.643v5.15h-1.582v-9.65h1.3l.176 1.766h.07q.554-.958 1.31-1.45t1.644-.492z"/>
</svg>
