<svg xmlns="http://www.w3.org/2000/svg" width="200" height="128">
	<path d="M47.07 33.65 20 49.28v31.26l27.07 15.63 27.06-15.63V49.28zm0 20.81v31.28l-9-5.19V59.66l-9 5.19V54.47l18-10.38 9 5.19zm18.05 20.87-9 5.21V59.71l9-5.22z" fill="#e30c34"/>
	<path fill="#172d72" d="M83.17 54.66h9.43v25.82h6.44V54.66h9.1V49.3H83.17v5.36zm27.84 2.72H117v23.11h-5.99zm0-8.08H117v5.36h-5.99zm24.76 0h-12.19v31.18h12.19c4.74 0 7.74-1.09 9.83-3.64 2.5-2.91 3.83-7.18 3.83-12s-1.34-9-3.83-12c-2.09-2.47-5.04-3.54-9.83-3.54zm0 25.83H130V54.67h5.77c4.84 0 7.23 3.47 7.23 10.27s-2.39 10.19-7.23 10.19zm39.06-11.21c3.07-2 4.27-3.76 4.27-6.41 0-2.86-2-8.21-10.19-8.21H155v31.18h14c8.78 0 10.95-5.26 11-9 0-3.07-1.67-5.48-5.17-7.56zm-13.41-9.25h7c3 0 4.53 1.26 4.53 3.52s-1.58 3.51-4.53 3.51h-7zm7.64 20.46h-7.64v-8.08h7.64c3.12 0 4.74 1.45 4.74 4.06s-1.62 4.02-4.74 4.02z"/>
</svg>
