<svg xmlns="http://www.w3.org/2000/svg" width="200" height="128">
	<defs>
		<linearGradient id="a" x1="22.25" y1="55.23" x2="53.49" y2="76" gradientUnits="userSpaceOnUse">
			<stop offset="0" stop-color="#e30c34"/>
			<stop offset=".9" stop-color="#bd072d"/>
		</linearGradient>
	</defs>
	<path d="M40.31 49.59a33.14 33.14 0 0 1 3.44.83 12.68 12.68 0 0 1 6.45 5.09 2 2 0 0 0 1 .76 10.82 10.82 0 0 1 7.54 11 10.71 10.71 0 0 1-9.15 10 2.35 2.35 0 0 0-.42.15H27.6a2.19 2.19 0 0 0-.43-.15 8.59 8.59 0 0 1-1.24-16.64 1.18 1.18 0 0 0 .9-1 12.61 12.61 0 0 1 8.56-9.3 28.59 28.59 0 0 1 2.91-.68zm-7.72 14.57 3.41-1.9v6.94c0 .27 0 .67.17.78 1 .65 2.1 1.25 3.26 1.92V60.99a1.1 1.1 0 0 1 .68-1.14c.88-.45 1.72-1 2.71-1.55-1.15-.67-2.16-1.28-3.19-1.84a.75.75 0 0 0-.63.07q-3 1.69-6 3.47a.85.85 0 0 0-.39.58c-.04 1.1-.02 2.23-.02 3.58zm10 5.81c1.07-.61 2-1.15 2.89-1.64a.93.93 0 0 0 .56-1v-6.49c0-.19 0-.38-.06-.69-1.09.63-2.1 1.19-3.08 1.79a.83.83 0 0 0-.29.56c.02 2.5.02 4.87.02 7.5z" fill="url(#a)"/>
	<path fill="#172d72" d="M180 71.14h-2.87l-.13-1a3.9 3.9 0 0 1-2.8 1.44 4.46 4.46 0 0 1-4.39-2.82 7.66 7.66 0 0 1-.1-6.1c1.19-3 4.89-4.32 7.31-1.65v-5.22h3zm-8.11-5.7a21.79 21.79 0 0 0 .73 2.38 2 2 0 0 0 1.95 1.28 2.12 2.12 0 0 0 2-1.28 4.85 4.85 0 0 0-.11-4.74 2.05 2.05 0 0 0-3.62-.11 13.05 13.05 0 0 0-.95 2.47zm-59.24-2.39a4.21 4.21 0 0 1-1.93 7.9c-2.09.13-4.18.09-6.27.13h-1.77V55.89s.08-.08.12-.08c2.61 0 5.22-.13 7.82 0a3.81 3.81 0 0 1 3.58 5 12.18 12.18 0 0 1-1.55 2.24zm-6.91 1.43v3.59a.59.59 0 0 0 .43.38c1.31 0 2.63 0 3.94-.08a1.7 1.7 0 0 0 1.72-1.81 1.74 1.74 0 0 0-1.64-2c-1.44-.16-2.91-.08-4.45-.08zm0-6.09v3c0 .15.2.41.31.41a35.38 35.38 0 0 0 4-.11 1.5 1.5 0 0 0 1.36-1.69 1.59 1.59 0 0 0-1.63-1.54c-1.3-.11-2.61-.07-4.05-.07zm-18.39-2.63h4.27a36.81 36.81 0 0 1 3.93.2 4 4 0 0 1 3 2.16 10.18 10.18 0 0 1 .15 10.26 4.48 4.48 0 0 1-3.89 2.55c-2.32.13-4.64.09-7 .14-.63 0-.54-.39-.54-.78V55.76zm3.14 2.66v9.54a.7.7 0 0 0 .47.49h2.86a2.83 2.83 0 0 0 2.6-2 8.89 8.89 0 0 0 0-6 2.65 2.65 0 0 0-2.22-1.93 35.06 35.06 0 0 0-3.71-.1zm42.41 7.46h3a5.5 5.5 0 0 1-2.51 4.59 6.87 6.87 0 0 1-10.54-4 13.62 13.62 0 0 1-.3-4 10 10 0 0 1 .86-3.34c2.07-4.58 8.13-4.29 10.54-2.18a5.28 5.28 0 0 1 1.83 4h-2.85a3.3 3.3 0 0 0-2.37-2.65 3.66 3.66 0 0 0-4.44 2.32 8.13 8.13 0 0 0 0 6 3.63 3.63 0 0 0 5.16 2 3.39 3.39 0 0 0 1.62-2.74zm21.64-.28c0 3.15-1.73 5.43-4.43 5.83-4.6.69-7.19-2.28-6.77-6.74s3.8-5.76 7.29-5c2.31.52 3.67 2.41 3.88 5.25.02.25.02.45.03.66zm-8.47-.15a18 18 0 0 0 .64 2.25 2.28 2.28 0 0 0 2.17 1.47 2.32 2.32 0 0 0 2.21-1.42 4.84 4.84 0 0 0-.09-4.6 2.31 2.31 0 0 0-4.1-.1 12.18 12.18 0 0 0-.83 2.4zm10.7-5.72h2.91v7.18c0 1.39.52 2 1.81 2.12a2.21 2.21 0 0 0 2.43-1.79 4.69 4.69 0 0 0 .07-.92v-6.61h2.87v10.53c0 .66-.2.86-.83.82s-1.34 0-2 0L164 70l-.22-.17a2.53 2.53 0 0 1-.34.58 4.34 4.34 0 0 1-4.54.82 3.58 3.58 0 0 1-2.11-3.63v-7zM74.62 71H71.5V58.37h-4.63v-2.54H79v2.53h-4.38zM141 55.83V71h-2.82V55.83zM84.12 71h-2.81V59.75h2.81zm0-12.68H81.3v-2.51h2.82z"/>
</svg>
