<svg version="1.1" id="tikv_1" xmlns="http://www.w3.org/2000/svg" x="0" y="0" viewBox="0 0 360 178" style="enable-background:new 0 0 360 178" xml:space="preserve">
	<style>
		.st0{fill:#353558}.st2{fill:#fff}
	</style>
	<path class="st0" d="M273.612 129.985h-25.436L222.54 93.19l-9.652 9.752v26.944H192.48V44.63h20.41v35.49l33.478-35.49h24.33l-34.283 34.685z"/>
	<path class="st0" d="M306.79 129.985 278.537 44.63h22.42l16.89 60.422h1.307L335.04 44.63h22.721l-28.854 85.355z"/>
	<path style="fill:#ec1a3b" d="M84.1 3.209 1.762 46.037v85.557l82.34 42.728 82.038-42.728V46.037z"/>
	<path class="st2" d="M78.47 59.51v79.926L58.364 128.98V69.965L32.525 83.437V62.023L84 35.28l20.51 10.657z"/>
	<path class="st2" d="M119.59 123.752 99.181 134.41V70.066l20.41-10.557z"/>
</svg>
