<svg id="Layer_1" data-name="Layer 1" xmlns="http://www.w3.org/2000/svg" viewBox="0 0 600 236.113">
	<defs>
		<style>
			.cls-1{fill:#97daac}.cls-2{fill:#25b252}
		</style>
	</defs>
	<path class="cls-1" d="M90.354 211.842q.03-37.874.057-75.748.015-52.68-.06-105.361c-.008-2.872.782-3.639 3.64-3.63q47.343.15 94.687.006c2.724-.008 3.762.503 3.734 3.52q-.229 24.788-.012 49.58c.02 2.718-.73 3.501-3.46 3.465-11.131-.15-22.265-.02-33.398-.1-2.19-.015-3.287.32-3.281 2.939q.14 62.664.11 125.329Z"/>
	<path class="cls-1" d="M445.924 211.842q.03-62.665.111-125.33c.006-2.617-1.092-2.953-3.281-2.937-11.133.08-22.267-.05-33.398.099-2.73.036-3.48-.746-3.46-3.465q.182-24.79-.012-49.58c-.028-3.018 1.01-3.527 3.733-3.52q47.344.133 94.688-.006c2.858-.009 3.645.758 3.64 3.63q-.134 66.625-.06 133.251.004 23.929.057 47.858Z"/>
	<path class="cls-1" d="M295.702 211.842q0-90.211-.082-180.422c-.007-3.476.83-4.38 4.329-4.343q26.853.288 53.712.015c3.164-.027 4.003.825 3.998 3.993q-.144 88.318-.065 176.635c0 1.374.083 2.748.126 4.122Z"/>
	<path class="cls-1" d="M211.634 211.842q-.03-55.775-.092-111.55c-.004-2.024.527-2.826 2.696-2.818q28.06.103 56.12 0c2.17-.008 2.7.794 2.696 2.818q-.096 55.775-.092 111.55Z"/>
	<path class="cls-2" d="M211.542 27.076h59.463v59.463h-59.463z"/>
	<path class="cls-2" d="M520.374 27.076h59.463v59.463h-59.463z"/>
	<path class="cls-2" d="M17.963 27.076h59.463v59.463H17.963z"/>
	<path class="cls-2" d="M368.895 152.379h59.463v59.463h-59.463z"/>
</svg>
