<svg xmlns="http://www.w3.org/2000/svg" viewBox="-3.04 -3.04 157.95 45.95">
	<path fill="#fff" d="M20.421 40c11.278 0 20.421-8.954 20.421-20S31.7 0 20.422 0C9.141 0 0 8.954 0 20s9.143 20 20.421 20z"/>
	<path fill="#FDB515" d="M20.422 33.382c7.559 0 13.687-6.004 13.687-13.41 0-7.406-6.128-13.41-13.687-13.41-7.56 0-13.688 6.004-13.688 13.41 0 7.406 6.128 13.41 13.688 13.41z"/>
	<path fill="#fff" d="M29.48 18.654c.823-1.961.224-4.06-1.338-4.689-1.562-.628-3.495.452-4.317 2.414-.823 1.961-.224 4.06 1.338 4.689 1.561.628 3.494-.452 4.317-2.414zm-9.026 17.941c2.168 0 3.925-1.863 3.925-4.161s-1.757-4.162-3.925-4.162-3.925 1.863-3.925 4.162 1.757 4.161 3.925 4.161zm-4.641-15.53c1.562-.628 2.16-2.727 1.338-4.688-.823-1.962-2.756-3.042-4.317-2.414-1.562.628-2.161 2.728-1.338 4.689.822 1.961 2.755 3.042 4.317 2.414z"/>
	<path fill="#333" d="M27.38 32.873c4.234-2.223 7.239-6.408 7.74-11.317l2.37 2.667c-1.321 5.264-5.118 9.58-10.106 11.695.048-.42.071-.892.071-1.43a20.163 20.163 0 0 0-.076-1.615zm-11.733.953c1.493.495 3.086.76 4.75.76 1.736 0 3.396-.289 4.946-.826-.324 1.266-.83 2.373-1.474 3.242-1.12.22-2.28.336-3.467.336a18.34 18.34 0 0 1-3.262-.294c-.653-.864-1.164-1.967-1.493-3.218zm-2.15-.911c-4.302-2.223-7.35-6.464-7.831-11.439l-2.313 2.947c1.373 5.208 5.174 9.459 10.143 11.537-.047-.43-.071-.915-.071-1.467 0-.532.024-1.06.071-1.578zm18.78-21.462 1.679-2.354a17.588 17.588 0 0 0-4.197-3.606l-2.833 1.593a14.763 14.763 0 0 1 5.351 4.367zm-21.05-6.081a17.534 17.534 0 0 0-4.379 3.713l1.894 2.078a14.82 14.82 0 0 1 5.16-4.096l-2.676-1.695zm-.568 14.614c0-4.344 2.961-8.01 7.015-9.173.181-.5.41-.935.668-1.29-5.017.949-8.804 5.274-8.804 10.463 0 3.676 1.898 6.917 4.788 8.832.129-.364.267-.715.42-1.055-2.475-1.733-4.087-4.573-4.087-7.777z"/>
	<path fill="#333" d="m12.58 16.791.825.21a7.572 7.572 0 0 1 3.787-3.816 9.81 9.81 0 0 1 .11-.943 8.45 8.45 0 0 0-4.722 4.55zm.297 4.377h-.849a8.282 8.282 0 0 0 3.3 5.45c.144-.242.291-.476.449-.7a7.472 7.472 0 0 1-2.9-4.75zm14.574-4.139.82-.21c-.982-2.34-3.023-4.147-5.542-4.843.063.29.115.593.153.91 2.06.682 3.72 2.2 4.569 4.143zm1.464 1.91-.887-.896-2.914.458-.448 1.312 1.34.878 2.461-.878.448-.873zm-16.868 0 .882-.896 2.919.458.443 1.312-1.34.878-2.456-.878-.448-.873zM28.5 22.503a8.26 8.26 0 0 0 .315-1.335h-.85c-.042.257-.1.504-.166.752.248.196.482.387.7.583zm-2.69 2.775c-.22.21-.449.416-.692.598.157.224.31.458.453.7a8.66 8.66 0 0 0 1.054-.938 15.063 15.063 0 0 1-.815-.36z"/>
	<path fill="#333" d="M30.184 19.986a9.436 9.436 0 0 1-.687 3.527c.329.383.577.752.74 1.083a10.406 10.406 0 0 0 1.072-4.61c0-5.502-4.254-10.028-9.72-10.598.273.332.516.743.716 1.215 4.488.86 7.879 4.731 7.879 9.383zm-2.237 6.086a9.81 9.81 0 0 1-1.779 1.644c.153.336.296.691.42 1.055a10.915 10.915 0 0 0 2.642-2.522 5.115 5.115 0 0 1-1.283-.177zm-6.591-7.39c-.01 0-.015-.004-.02-.008l-.915-9.36h-.854l-.782 9.425h.005c0 .019-.005.037-.005.056.005.159.02.308.048.453.014.159.062.322.138.486.162.41.425.72.735.864.071.056.147.107.224.159.014.01.033.018.047.028v.004l9.5 5.115.496-.677-8.617-6.544zm1.212 12.813c-.74 0-1.364-.495-1.546-1.163l3.515-1.317-.84-2.046-3.276 1.298-3.28-1.294-.835 2.042 3.481 1.345a1.595 1.595 0 0 1-1.683 1.125l-.711.977c.267.088.553.135.854.135.882 0 1.664-.411 2.16-1.05a2.737 2.737 0 0 0 3.105.882l-.696-.953a1.443 1.443 0 0 1-.248.019z"/>
	<path fill="#333" d="m31.357 11.905-1.14 1.27a11.527 11.527 0 0 1 2.208 6.797c0 4.147-2.193 7.795-5.508 9.888.148.55.267 1.125.358 1.718 4.082-2.321 6.829-6.65 6.829-11.606.01-3.027-1.02-5.82-2.747-8.067zm-22.94 8.068c0-2.527.816-4.867 2.204-6.787l-1.14-1.27a13.16 13.16 0 0 0-2.747 8.056c0 4.989 2.78 9.342 6.91 11.65.091-.594.206-1.168.354-1.715-3.358-2.088-5.58-5.754-5.58-9.934zm12.004-13.41c-2.103 0-4.096.467-5.875 1.293l.84 1.439A12.144 12.144 0 0 1 20.42 8.21c1.794 0 3.496.388 5.027 1.08l.84-1.44a13.957 13.957 0 0 0-5.867-1.289zm33.45 21.872h-3.48V14.62h-4.565v-2.79h12.581v2.788h-4.535v13.816zm9.39-14.787c0 .972-.763 1.719-1.779 1.719-1.044 0-1.802-.747-1.802-1.742 0-1.023.763-1.766 1.802-1.766 1.04 0 1.78.743 1.78 1.789zm-.181 14.788h-3.229V16.913h3.229v11.523zm5.452-11.626v1.443c.739-1.27 1.726-1.84 3.228-1.84 1.526 0 2.642.673 3.205 1.915.787-1.322 1.879-1.915 3.558-1.915 1.192 0 2.184.374 2.847 1.07.71.77.94 1.569.94 3.311v7.543h-3.23v-6.945c0-1.57-.586-2.317-1.802-2.317-1.197 0-1.879.846-1.879 2.317v6.945H72.17V21.49c0-1.593-.61-2.415-1.779-2.415-1.22 0-1.855.822-1.855 2.415v6.847h-3.228V16.81h3.223zm50.624 10.397c-1.35 1.195-2.747 1.718-4.526 1.718-3.587 0-6.229-2.587-6.229-6.1 0-3.633 2.595-6.226 6.253-6.226 1.755 0 3.204.598 4.702 1.915l-2.16 1.915c-.711-.696-1.474-1.022-2.414-1.022-1.778 0-3.1 1.42-3.1 3.311 0 1.966 1.35 3.386 3.229 3.386.84 0 1.45-.247 2.289-.971l1.956 2.074zM129.194 17h3.229v11.527h-3.229v-1.592c-1.092 1.368-2.366 1.99-4.092 1.99-3.305 0-5.67-2.514-5.67-6.026 0-3.634 2.489-6.296 5.923-6.296 1.602 0 2.694.546 3.839 1.868V17zm-6.305 5.848c0 2.017 1.35 3.535 3.1 3.535 1.803 0 3.253-1.644 3.253-3.633 0-2.041-1.321-3.485-3.229-3.485-1.827 0-3.124 1.467-3.124 3.583zm11.685 5.787V12.032h3.229v16.604h-3.229zm-38.438-4.989h-9.7c.138.837.514 1.504 1.12 2 .61.495 1.383.742 2.327.742 1.13 0 2.099-.388 2.91-1.158l2.546 1.172c-.634.883-1.392 1.532-2.28 1.957-.887.42-1.936.635-3.152.635-1.888 0-3.424-.583-4.612-1.751s-1.778-2.63-1.778-4.381c0-1.798.591-3.293 1.774-4.48 1.182-1.186 2.666-1.784 4.454-1.784 1.893 0 3.438.594 4.626 1.785 1.188 1.186 1.779 2.755 1.779 4.708l-.014.556zm-3.02-2.33a2.965 2.965 0 0 0-1.177-1.602c-.587-.411-1.269-.617-2.046-.617-.844 0-1.584.234-2.218.692-.4.289-.768.798-1.106 1.527h6.548zm58.869 2.438h-9.7c.138.836.515 1.504 1.121 2 .61.495 1.383.742 2.327.742 1.13 0 2.098-.388 2.909-1.158l2.547 1.172c-.635.883-1.393 1.532-2.28 1.957-.887.42-1.936.635-3.152.635-1.889 0-3.424-.584-4.612-1.751-1.187-1.168-1.779-2.63-1.779-4.381 0-1.798.592-3.293 1.774-4.48 1.183-1.186 2.666-1.784 4.455-1.784 1.893 0 3.438.594 4.626 1.785 1.187 1.186 1.778 2.755 1.778 4.708l-.014.555zm-3.019-2.33a2.961 2.961 0 0 0-1.178-1.602c-.586-.411-1.268-.617-2.046-.617-.844 0-1.583.234-2.217.691-.401.29-.768.8-1.107 1.528h6.548zm-50.66 3.522c.133.102 1.005.728 2.603 1.242.687.22 1.703.261 2.475.117.377-.07.782-.168 1.088-.407a.818.818 0 0 0 .295-.406c.076-.266-.038-.56-.233-.761-.263-.271-.649-.407-1.012-.505a31.713 31.713 0 0 0-2.255-.518c-.782-.154-1.517-.304-2.18-.645-.853-.444-1.497-.934-1.788-1.892-.267-.878-.086-1.99.5-2.816 1.064-1.5 2.953-1.836 3.983-1.906 3.247-.21 5.608 1.77 5.704 1.855l-1.803 2.022.005.005c-.015-.014-1.627-1.401-3.673-1.27-1.197.079-1.654.494-1.793.667-.124.16-.2.341-.186.5.029.308.196.626 1.712.958.93.205 1.512.326 2.533.64 1.855.565 3.519 1.746 3.247 3.895-.305 2.386-2.885 3.274-5.026 3.274-.787 0-1.717-.112-2.442-.346-2.241-.719-3.295-1.466-3.458-1.588l1.703-2.116z"/>
</svg>
