<svg xmlns="http://www.w3.org/2000/svg" width="200" height="128">
	<path d="M89.3 104.14h-2.576V90.584h-4.638v-2.211h11.852v2.211H89.3zm7.054 0V88.373h2.577v13.556h6.676v2.211zm21.062-4.282a3.968 3.968 0 0 1-1.521 3.3 6.618 6.618 0 0 1-4.195 1.2 10 10 0 0 1-4.378-.83v-2.437a11.968 11.968 0 0 0 2.291.8 9.725 9.725 0 0 0 2.26.291 3.6 3.6 0 0 0 2.259-.582 1.9 1.9 0 0 0 .728-1.564 1.957 1.957 0 0 0-.669-1.5 10.058 10.058 0 0 0-2.76-1.456 7.323 7.323 0 0 1-3.042-1.995 4.224 4.224 0 0 1-.884-2.7 3.777 3.777 0 0 1 1.4-3.107 5.813 5.813 0 0 1 3.764-1.132 11.069 11.069 0 0 1 4.508.993l-.82 2.1a9.858 9.858 0 0 0-3.753-.884 2.885 2.885 0 0 0-1.9.544 1.79 1.79 0 0 0-.647 1.441 2.022 2.022 0 0 0 .259 1.051 2.626 2.626 0 0 0 .852.825 14.362 14.362 0 0 0 2.135 1.024 11.742 11.742 0 0 1 2.545 1.349A3.978 3.978 0 0 1 117.039 98a4.259 4.259 0 0 1 .377 1.858z" fill="#555"/>
	<path d="M82.327 42.572V37.3a17.682 17.682 0 0 1 35.356 0v5.272h-6.239v-5.154a11.548 11.548 0 0 0-23.091 0v5.154zM121.9 66.5V46.689l-2.588-2.529H80.686L78.1 46.689V54h27.25v-4l11.167 6.5L105.35 63v-4H78.1v18.471L80.686 80h38.628l2.588-2.529V71.5h-27.25v4L83.485 69l11.167-6.5v4z" fill="#66bdfe"/>
</svg>
