<svg xmlns="http://www.w3.org/2000/svg" width="200" height="128">
	<path d="M20.05 64.594c0-3.976.063-7.954-.024-11.928a6.179 6.179 0 0 1 2.783-5.566c4.924-3.522 9.784-7.133 14.694-10.675 2.5-1.807 3.269-1.8 5.857.041 5.095 3.624 10.146 7.31 15.255 10.914a5.425 5.425 0 0 1 2.5 4.765q-.036 12.372 0 24.745a5.047 5.047 0 0 1-2.342 4.535C53.571 84.89 48.366 88.353 43.22 91.9a4.448 4.448 0 0 1-5.717-.034c-4.858-3.44-9.781-6.79-14.713-10.124a5.862 5.862 0 0 1-2.784-5.519c.137-3.872.036-7.752.036-11.629z" fill="#070a06"/>
	<path d="M21.322 63.186c-.027-3.666 0-7.334-.106-11a4.059 4.059 0 0 1 1.7-3.593c5.325-3.937 10.684-7.822 16.029-11.733a2.271 2.271 0 0 1 2.976.067C47.3 40.781 52.73 44.576 58.1 48.446a4 4 0 0 1 1.933 3.477c-.1 3.761-.093 7.526-.13 11.29a4.021 4.021 0 0 1-1.663 2.04c-4.847 3.127-9.516 6.514-14.307 9.724a5.317 5.317 0 0 1-6.377.135c-5.043-3.195-9.812-6.788-14.8-10.062a4.415 4.415 0 0 1-1.434-1.864z" fill="#3dad21"/>
	<path d="M59.933 71.759c.109 8.919.715 6.86-5.707 11.3-3.752 2.595-7.61 5.04-11.32 7.693-1.831 1.309-3.3 1.227-5.106-.062q-6.9-4.936-13.988-9.6a5.169 5.169 0 0 1-2.646-5.214c.126-1.363.023-2.747.023-4.511 2.706 1.843 5.139 3.494 7.565 5.155 2.374 1.625 4.74 3.263 7.111 4.892 4.416 3.034 4.606 3.037 8.93.12 4.194-2.83 8.376-5.677 12.585-8.484.782-.522 1.45-1.348 2.553-1.289z" fill="#fefefe"/>
	<path d="M21.322 63.186c5.485 3.743 11 7.44 16.438 11.255a4.37 4.37 0 0 0 5.672.027c5.447-3.815 10.976-7.512 16.472-11.255.111 8.22.383 6.333-5.29 10.265-3.829 2.655-7.766 5.153-11.555 7.862a4 4 0 0 1-5.357-.024 301.1 301.1 0 0 0-13.244-9.089c-2.3-1.489-3.725-3.172-3.231-6.068a20.84 20.84 0 0 0 .095-2.973z" fill="#fdfefd"/>
	<path d="M66.656 55.413V53.65h16.55v1.763l-7.284-.031v20.637h-2V55.382zm17.623 13.134v-1a12.1 12.1 0 0 1 .388-3.182 6.327 6.327 0 0 1 1.25-2.441 5.628 5.628 0 0 1 2.2-1.576 9.854 9.854 0 0 1 6.515 0 5.678 5.678 0 0 1 2.211 1.576 6.272 6.272 0 0 1 1.257 2.451 12.122 12.122 0 0 1 .387 3.174v1a12.093 12.093 0 0 1-.387 3.182 6.143 6.143 0 0 1-1.254 2.425 5.731 5.731 0 0 1-2.219 1.561 9.83 9.83 0 0 1-6.507 0 5.688 5.688 0 0 1-2.2-1.561 6.191 6.191 0 0 1-1.25-2.432 12.128 12.128 0 0 1-.391-3.177zm1.9.031a10.88 10.88 0 0 0 .272 2.535 5.128 5.128 0 0 0 .882 1.934 4.028 4.028 0 0 0 1.608 1.253 6 6 0 0 0 2.449.444 5.843 5.843 0 0 0 2.41-.444 4.179 4.179 0 0 0 1.617-1.248 5.014 5.014 0 0 0 .9-1.934 10.88 10.88 0 0 0 .272-2.535v-1a10.929 10.929 0 0 0-.272-2.519 5.019 5.019 0 0 0-.9-1.95 4.188 4.188 0 0 0-1.617-1.251 5.859 5.859 0 0 0-2.407-.444 6.013 6.013 0 0 0-2.449.444 4.036 4.036 0 0 0-1.608 1.248 5.133 5.133 0 0 0-.882 1.95 10.929 10.929 0 0 0-.272 2.519zm16.83 7.441V53.65h1.9v14.7l8.456-8.3h2.494l-6.128 6.068 6.293 9.905h-2.064l-5.533-8.626-3.518 3.384v5.242zm15.427-5.788V60.046h1.9v10.082a5.567 5.567 0 0 0 .849 3.447 3.6 3.6 0 0 0 2.976 1.071 4.92 4.92 0 0 0 3.858-1.6 6.338 6.338 0 0 0 1.435-4.385v-8.615h1.9v15.973h-1.718l-.083-3.358h-.033a5.279 5.279 0 0 1-1.9 2.562 5.93 5.93 0 0 1-3.652 1.046 5.405 5.405 0 0 1-4.2-1.467 6.676 6.676 0 0 1-1.332-4.571z"/>
	<path d="M136.005 76.206V53.683h5.255l5.211 11.56 5.195-11.56h5.271v22.523h-4.686V66.17q0-1.224.046-2.819t.165-3.134h-.09q-.5 1.446-1.156 3.023t-1.246 2.773L148 70.1h-3.078l-1.967-4.084q-.585-1.194-1.246-2.773t-1.156-3.023h-.09q.119 1.539.172 3.134t.053 2.819v10.033zm23.154 0 7.507-11.449-7.222-11.074h5.435l4.61 7.7 4.625-7.7h5.465l-7.222 11.074 7.462 11.449h-5.435l-4.895-8.01-4.85 8.01z"/>
</svg>
