<svg xmlns="http://www.w3.org/2000/svg" width="200" height="128">
    <g>
        <path d="M30.564 70.823q1.041 1.286 2.316 2.6a10.443 10.443 0 0 0-5.106 3.346 9.591 9.591 0 0 0-2.253 6.672h-4.259a61.064 61.064 0 0 1 9.302-12.618zM79.9 84.6h-5.175c-11.881-6.2-22.312-10.571-33.392-11.526a21.443 21.443 0 0 1 .826-5.233l-1.021-.275a22.711 22.711 0 0 0-.859 5.428 52.402 52.402 0 0 0-3.49-.115 14.38 14.38 0 0 0-2.724.251 37.155 37.155 0 0 1-2.774-3.076 47.206 47.206 0 0 1 20.855-11.949A25.213 25.213 0 0 0 64.01 72.82q.591-.337 1.162-.708L74.546 82.2l.411-.035a5.228 5.228 0 0 1 4.4 1.6 2.942 2.942 0 0 1 .543.835z" fill="#d1a41a"/>
        <path d="M75.33 50.842A22.665 22.665 0 0 1 64.116 71.37C52.824 65.745 50.7 51.492 52.622 43.847c.535 2.924 1.509 4.756 3.612 5.655a31.543 31.543 0 0 1 15.544-.134 8.661 8.661 0 0 0 3.1-5.439 41.357 41.357 0 0 1 .452 6.913z" fill="#ffdc76"/>
    </g>
    <g>
        <path d="M46.926 59.66l1.723 5.105-5.232-3.51 3.509-1.595zM41.885 61.894l1.851 3.19-3.893-1.978 2.042-1.212zM37.673 64.382l.894 3.191-2.68-1.851 1.786-1.34zM66.198 72.934l-1.659 2.552 2.936-1.34-1.277-1.212zM68.815 75.869l-2.68 2.042 3.701-.957-1.021-1.085zM62.306 48.174l1.978 4.339 1.276-4.403-3.254.064zM52.287 54.491l3.127 1.659-2.808.192-.319-1.851zM53.053 57.873l1.914.766-1.595.447-.319-1.213zM75.388 55.704l-2.553 1.085 2.106.319.447-1.404zM74.367 58.83l-1.979.575 1.596.574.383-1.149z"/>
    </g>
    <g>
        <path d="M51.259 63.62h6.159v.76h-6.159zM51.259 61.795h6.159v.76h-6.159zM70.065 63.62h6.158v.76h-6.158zM70.065 61.795h6.158v.76h-6.158zM67.9 57.287H57.858V56.6h3.124c.384-1.647.46-3.221 0-4.019a.921.921 0 0 0-.863-.5 3.014 3.014 0 0 0-2.554 1.968l-.641-.241a3.7 3.7 0 0 1 3.192-2.408 1.605 1.605 0 0 1 1.453.838c.566.972.5 2.653.116 4.363h5.481c.728-2.139 2.248-3.148 4.788-3.148v.685c-2.753 0-3.524 1.167-4.075 2.463h2.99l-.007.681z"/>
        <path d="M68.344 60.667h.005a3.768 3.768 0 0 1-.73-3.382h-.7a3.832 3.832 0 0 0 .453 2.943h-6.961a16.29 16.29 0 0 0 1.1-2.943h-.709a14.423 14.423 0 0 1-1.257 3.115l-.161.285 3.907 2.459-2.2 1.45.377.572 2.459-1.621 2.654 1.732.365-.579-2.461-1.523 3.862-2.507zm-4.425 2.067l-2.891-1.82h5.649z"/>
    </g>
    <g>
        <path d="M76.479 50.017c0-1.19-.375-6.219-1.056-7.6-1.847.7-5.207 2.975-5.968 5.3a37.025 37.025 0 0 0-11.353.143c-.6-2.5-3.62-4.416-5.9-5.494-.961 1.62-1.386 5.378-1.278 8.044l-.013.008c.422 11.194 5.914 18.163 13.094 22.387A25.184 25.184 0 0 0 76.47 50.012zm-6.148-2.158l.081.015zm-.459-.08l.195.033zm5.457 3.045a22.67 22.67 0 0 1-11.214 20.529C52.823 65.726 50.7 51.474 52.622 43.829c.536 2.923 1.507 4.756 3.612 5.655a31.523 31.523 0 0 1 15.542-.133 8.659 8.659 0 0 0 3.1-5.44 41.208 41.208 0 0 1 .453 6.913z"/>
        <path d="M80.145 83.047a7.313 7.313 0 0 0-5.329-1.866c-1.346-1.6-9.152-9.823-9.152-9.823l-.541.681 9.424 10.147.409-.035a5.237 5.237 0 0 1 4.4 1.6 2.969 2.969 0 0 1 .545.83h-5.18c-11.879-6.2-22.311-10.57-33.391-11.524a21.534 21.534 0 0 1 .825-5.233l-1.019-.276a22.661 22.661 0 0 0-.859 5.428q-1.733-.114-3.489-.116a14.2 14.2 0 0 0-2.725.253 37.855 37.855 0 0 1-2.775-3.076A47.146 47.146 0 0 1 52.3 58.047l-.238-1.031a48.543 48.543 0 0 0-21.446 12.146 16.494 16.494 0 0 1-3.4-7.4 8.03 8.03 0 0 1 1.642-6.312c2.2-2.74 5.338-2.933 8.56-2.391a1.976 1.976 0 0 0 .208 1.3c.852 1.258 5.431 1.7 8.164.481-2.017-2.827-6.1-4.207-7.235-3.654a1.939 1.939 0 0 0-.852.912 18.155 18.155 0 0 0-3.027-.341 8.071 8.071 0 0 0-6.64 3.035 9.054 9.054 0 0 0-1.866 7.121 17.827 17.827 0 0 0 3.714 8.025q-.525.561-1.012 1.108C23.747 76.778 20 82.929 20 83.948v.528h6.762l-.118-.626a8.25 8.25 0 0 1 1.942-6.427 9.484 9.484 0 0 1 5.155-3.157 69.731 69.731 0 0 0 8.373 6.83h5.025v-.528a1.727 1.727 0 0 0-.832-1.468 3.748 3.748 0 0 0-3.145-.206 7.679 7.679 0 0 1-1.8-4.775c10.906.966 21.337 5.37 33.107 11.518h6.471l.085-.424a2.763 2.763 0 0 0-.88-2.166zm-52.372-6.3a9.6 9.6 0 0 0-2.253 6.67h-4.259a61.225 61.225 0 0 1 9.3-12.616q1.041 1.287 2.317 2.6a10.439 10.439 0 0 0-5.105 3.349z"/>
    </g>
    <g fill="#7a7a7a">
        <path d="M97.969 67.707H91.91v-1.5h13.772v1.5h-6.06v16.226h-1.653zM104.555 78.149a6.439 6.439 0 0 1 .451-2.441 5.833 5.833 0 0 1 1.252-1.929 5.572 5.572 0 0 1 1.928-1.264 6.536 6.536 0 0 1 2.454-.451 6.439 6.439 0 0 1 2.441.451 5.656 5.656 0 0 1 3.193 3.193 6.831 6.831 0 0 1 0 4.882 5.656 5.656 0 0 1-3.193 3.193 6.439 6.439 0 0 1-2.441.451 6.536 6.536 0 0 1-2.454-.451 5.572 5.572 0 0 1-1.928-1.264 5.833 5.833 0 0 1-1.252-1.929 6.435 6.435 0 0 1-.451-2.441zm1.5 0a5.357 5.357 0 0 0 .313 1.841 4.3 4.3 0 0 0 .914 1.5 4.392 4.392 0 0 0 1.452 1.014 5 5 0 0 0 3.806 0 4.416 4.416 0 0 0 1.46-1.012 4.342 4.342 0 0 0 .914-1.5 5.585 5.585 0 0 0 0-3.681 4.337 4.337 0 0 0-.914-1.5 4.446 4.446 0 0 0-1.453-1.014 5.016 5.016 0 0 0-3.806 0 4.421 4.421 0 0 0-1.452 1.014 4.292 4.292 0 0 0-.914 1.5 5.351 5.351 0 0 0-.317 1.838zM119.329 75.62c0-.217-.009-.48-.025-.789s-.03-.621-.038-.939-.021-.613-.037-.889-.025-.488-.025-.638h1.5q.025.651.038 1.252a3.948 3.948 0 0 0 .062.776h.075a4.062 4.062 0 0 1 1.5-1.64 4.378 4.378 0 0 1 2.454-.689 3.926 3.926 0 0 1 2.1.589 3.341 3.341 0 0 1 1.377 1.915 3.751 3.751 0 0 1 1.64-1.9 4.674 4.674 0 0 1 2.291-.6 4.932 4.932 0 0 1 2.2.426 3.558 3.558 0 0 1 1.34 1.114 4.2 4.2 0 0 1 .676 1.59 9.079 9.079 0 0 1 .188 1.853v6.886h-1.5v-6.815a7.378 7.378 0 0 0-.125-1.364 3.652 3.652 0 0 0-.438-1.19 2.307 2.307 0 0 0-.877-.839 3.007 3.007 0 0 0-1.465-.312 3.436 3.436 0 0 0-1.727.388 3.031 3.031 0 0 0-1.064.989 4.065 4.065 0 0 0-.551 1.3 5.848 5.848 0 0 0-.163 1.327v6.51h-1.5v-6.959a4.961 4.961 0 0 0-.589-2.579 1.972 1.972 0 0 0-1.815-.976 4.268 4.268 0 0 0-1.565.288 3.347 3.347 0 0 0-1.277.876 4.251 4.251 0 0 0-.852 1.477 6.3 6.3 0 0 0-.313 2.091v5.784h-1.5zM149.6 82.23a5.39 5.39 0 0 1-1.928 1.515 5.564 5.564 0 0 1-2.328.489 6.532 6.532 0 0 1-2.454-.451 5.567 5.567 0 0 1-1.929-1.264 5.849 5.849 0 0 1-1.252-1.929 6.831 6.831 0 0 1 0-4.882 5.849 5.849 0 0 1 1.252-1.929 5.567 5.567 0 0 1 1.929-1.264 6.532 6.532 0 0 1 2.454-.451 5.378 5.378 0 0 1 2.366.526 6.223 6.223 0 0 1 1.94 1.477l-1.2.9a5.221 5.221 0 0 0-1.428-1.139 3.508 3.508 0 0 0-1.677-.413 4.675 4.675 0 0 0-1.9.375 4.442 4.442 0 0 0-1.452 1.014 4.307 4.307 0 0 0-.914 1.5 5.568 5.568 0 0 0 0 3.681 4.312 4.312 0 0 0 .914 1.5 4.412 4.412 0 0 0 1.452 1.014 4.659 4.659 0 0 0 1.9.376 3.515 3.515 0 0 0 1.74-.439 4.545 4.545 0 0 0 1.365-1.164zM160.92 79.076q0 .851.013 1.527t.037 1.252q.025.576.063 1.077t.112 1h-1.4a10.847 10.847 0 0 1-.15-1.878h-.05a4.222 4.222 0 0 1-1.615 1.653 5.058 5.058 0 0 1-2.442.526 5.887 5.887 0 0 1-1.477-.188 3.862 3.862 0 0 1-1.3-.6 3.089 3.089 0 0 1-1.3-2.642 3.092 3.092 0 0 1 .676-2.1 4.221 4.221 0 0 1 1.665-1.165 7.923 7.923 0 0 1 2.1-.5q1.115-.113 1.966-.113h1.753v-.7a2.448 2.448 0 0 0-.927-2.154 3.951 3.951 0 0 0-2.328-.65 5.28 5.28 0 0 0-3.531 1.3l-.877-1.027a5.365 5.365 0 0 1 2.054-1.215 7.383 7.383 0 0 1 2.354-.413 5.266 5.266 0 0 1 3.355.989 3.825 3.825 0 0 1 1.252 3.193zm-3-.952a13.239 13.239 0 0 0-1.84.125 6.468 6.468 0 0 0-1.6.426 2.984 2.984 0 0 0-1.139.8 1.865 1.865 0 0 0-.426 1.252 1.841 1.841 0 0 0 .238.939 2.069 2.069 0 0 0 .614.676 2.829 2.829 0 0 0 .839.4 3.262 3.262 0 0 0 .938.138 4.816 4.816 0 0 0 1.978-.351 3.348 3.348 0 0 0 1.24-.914 3.174 3.174 0 0 0 .639-1.277 6.056 6.056 0 0 0 .175-1.44v-.776zM170.585 73.717h-3.305v7.537a1.624 1.624 0 0 0 .426 1.2 1.59 1.59 0 0 0 1.177.426 3.476 3.476 0 0 0 .864-.113 5.479 5.479 0 0 0 .838-.288l.126 1.352a9.029 9.029 0 0 1-.977.276 4.494 4.494 0 0 1-.976.125 3.6 3.6 0 0 1-1.377-.232 2.426 2.426 0 0 1-.927-.639 2.507 2.507 0 0 1-.514-.938 4.03 4.03 0 0 1-.162-1.165v-7.541h-2.5v-1.352h2.5v-3.331h1.5v3.331h3.305z"/>
    </g>
    <path d="M92.213 60.792l6.951-16.618h1.336l6.951 16.618h-1.756l-2.154-5.2h-7.467l-2.13 5.2zm7.631-14.7l-3.417 8.216h6.742zM109.244 60.792V44.174h6.881a5.179 5.179 0 0 1 4.916 5.219 5.013 5.013 0 0 1-4.774 5.265h-5.407v6.132h-1.616zm1.616-7.585h5.312c1.965 0 3.229-1.8 3.229-3.814a3.607 3.607 0 0 0-3.369-3.768h-5.172v7.582zM120.131 60.792l6.951-16.618h1.335l6.951 16.618h-1.756l-2.154-5.2h-7.466l-2.13 5.2zm7.631-14.7l-3.417 8.216h6.742zM143.232 44.079a6.529 6.529 0 0 1 6.131 3.628l-1.311.8a5.228 5.228 0 0 0-4.915-2.948c-3.98 0-6.155 3.558-6.155 6.905 0 3.674 2.692 7 6.225 7a5.677 5.677 0 0 0 5.125-3.09l1.358.7c-1.076 2.48-4.026 3.861-6.576 3.861-4.565 0-7.771-4.353-7.771-8.565.001-4.007 2.88-8.291 7.889-8.291zM165.083 44.174v16.618h-1.639v-7.771h-9.853v7.771h-1.614V44.174h1.614v7.4h9.853v-7.4zM180 59.339v1.451h-11.164V44.174h10.954v1.451h-9.338v5.992h8.148V53h-8.145v6.343H180z" fill="#d22128"/>
</svg>
