<svg xmlns="http://www.w3.org/2000/svg" width="200" height="128">
    <path d="M180 66.27a5.27 5.27 0 01-1.14.28H146c-1.09 0-1.19-.11-1.19-1.2V58.8c0-.71.25-1 1-1h33.28a3.23 3.23 0 011 .3z" fill="#007eff"/>
    <path d="M180 54.93a5.21 5.21 0 01-1.14.26h-21.92c-1.09 0-1.21-.12-1.21-1.19v-6.39c0-1 .14-1.1 1.13-1.1h22.08a4.56 4.56 0 011.06.26z" fill="#ffdc00"/>
    <path d="M39 69.71h-3c-1.94 0-2.66-.77-2.66-2.69V55.69c0-.28.05-.56.08-.91h6.06v-8h-6.1c0-.43-.05-.77-.05-1.11 0-2.12 0-4.25-.08-6.37h-9.6v7.51H20v8.05h3.65v1.09c0 4.39 0 8.78.15 13.17a8.45 8.45 0 006.7 8.3c2.85.78 5.77.49 8.66.5.16 0 .46-.36.46-.56v-7c.03-.49-.15-.66-.62-.65zM125.81 46.79c-.18 0-.5.37-.51.58-.06.84 0 1.69 0 2.4a32.28 32.28 0 00-3.89-2.36 13.67 13.67 0 00-17.07 6.13 17.81 17.81 0 00-2 11.79 15.33 15.33 0 005.43 9.92c4.83 4 12.49 4.38 17.2-.63a2.56 2.56 0 01.38-.26v17.28c0 1 0 1 1.06 1h8.42V46.76c-3.05 0-6.04-.01-9.02.03zm-3.53 22A6.62 6.62 0 01112 64.2a8.82 8.82 0 011.1-6.37A6.47 6.47 0 01120 55a6.68 6.68 0 015.11 5.23c.13.7.17 1.42.26 2.13-.08 2.64-.84 4.87-3.09 6.41zM68.23 48.82a17.19 17.19 0 00-11.12-2.39 15.56 15.56 0 00-9.72 4.33A15.2 15.2 0 0042.89 61a16.26 16.26 0 003.16 11.5c3.26 4.18 7.72 5.83 13.29 5.89.64-.06 1.69-.08 2.71-.25a15.1 15.1 0 0010.77-6.87 16.79 16.79 0 002.23-11.58 14.52 14.52 0 00-6.82-10.87zm-5 19.43a6.1 6.1 0 01-10-2.26 10.72 10.72 0 01-.19-6.74 6 6 0 016.09-4.56A6.13 6.13 0 0165 59.44a29.57 29.57 0 01.46 3 8.23 8.23 0 01-2.18 5.81zM99.53 47.37c0-.95 0-1-1-.91a11 11 0 00-7 3.21c-.6.58-1.13 1.24-1.79 2V47.5c0-.56-.17-.73-.73-.73h-8.16c-.61 0-.77.23-.76.8v29.54c0 .68.25.86.89.85h7.92c.26 0 .51 0 .84-.07v-1-12.45c0-.9 0-1.81.14-2.71a5 5 0 014.46-4.78 29.3 29.3 0 014.3-.27c.66 0 .86-.21.85-.87.02-2.81.04-5.64.04-8.44z"/>
    <path d="M157 69.15h10.95c1.06 0 1.17.1 1.17 1.12v6.46c0 1-.12 1.1-1.11 1.1h-22.17c-1 0-1.06-.09-1.07-1v-6.62c0-.76.25-1 1-1 3.74-.04 7.47-.06 11.23-.06z" fill="#ff4783"/>
</svg>
