<svg width="552" height="150" fill="none" xmlns="http://www.w3.org/2000/svg">
	<path d="m61.69 85.4 1.9-1.89.61-.62S80.62 72 90.47 72h.85A37.93 37.93 0 0 1 66.8 61.28L42.43 36.94h-1.61l-2.68 2.69v1.61l23.64 23.65a14.56 14.56 0 0 1-.09 20.51Z" fill="#FD5137"/>
	<path d="m78.59 52.49-17.9-17.9h-1.61l-2.68 2.68v1.61l18.73 18.74a24.49 24.49 0 0 0 17.31 7.17H106l1.14-1.13v-3.81L106 58.72H93.63a21.27 21.27 0 0 1-15.04-6.23Z" fill="#454F56"/>
	<path d="m78.59 97.91-17.9 17.9h-1.61l-2.68-2.69v-1.61l18.73-18.73a24.49 24.49 0 0 1 17.31-7.17H106l1.14 1.13v3.8L106 91.68H93.63a21.27 21.27 0 0 0-15.04 6.23Z" fill="#454F56"/>
	<path d="M50.36 65.49 39.43 54.57h-1.6l-2.69 2.69v1.6l10.41 10.42a8.25 8.25 0 0 1 0 11.68l-9.64 9.65v1.6l2.69 2.69h1.6l10.15-10.14a13.618 13.618 0 0 0 .01-19.27Z" fill="#454F56"/>
	<path d="M116.31 72H90.47A37.19 37.19 0 0 0 64.2 82.89l-26.32 26.32v1.61l2.69 2.69h1.61L66.72 89A37.111 37.111 0 0 1 93 78.09h23.33l1.12-1.09v-3.8l-1.14-1.2Z" fill="#454F56"/>
	<path d="M129.12 59h31l.75.75v4.09l-.75.75H148.5l-.75.75v26l-.75.75h-4.74l-.75-.75v-26l-.75-.75h-11.64l-.75-.75v-4.05l.75-.79Z" fill="#454F56"/>
	<path d="m171.84 59.79.75-.75h17.75c7.27 0 11.32 3.35 11.32 9.88 0 4.17-2 7.21-5.7 8.66l-.4 1.06L202.32 91l-.66 1.11h-4.91l-.66-.39L189 78.9l-.66-.38h-9.52l-.75.75v12.1l-.75.75h-4.75l-.75-.75.02-31.58Zm6.25 5.54v7l.75.75h11c3.59 0 5.4-1.39 5.4-4.14 0-3-1.81-4.34-5.4-4.34h-11l-.75.73Z" fill="#454F56"/>
	<path d="M236.31 85.32H220.6l-.68.44-2.63 5.92-.69.44H212l-.69-1.06 14.19-31.72.69-.44h4.94l.69.44L246 91.06l-.68 1.06h-5l-.68-.44-2.64-5.92-.69-.44ZM234 78.86l-4.81-10.78h-1.37L223 78.86l.69 1h9.61l.7-1Z" fill="#454F56"/>
	<path d="M253.48 75.58c0-9.69 7-17.1 16.68-17.1 9.38 0 13.8 5.79 15.14 9.73l-.71 1h-5l-.63-.35a10.092 10.092 0 0 0-8.79-4.64c-6.2 0-10.2 5.17-10.2 11.37 0 6.2 4.03 11.41 10.19 11.41 5.33 0 7.88-2.86 8.89-4.65l.65-.38h4.9l.71 1c-1.23 3.72-5.45 9.77-15.15 9.77s-16.68-7.47-16.68-17.16Z" fill="#454F56"/>
	<path d="M298.08 59h27.15l.75.75v3.9l-.75.75h-20.91l-.75.75v6l.75.75h12.5l.75.75v4l-.75.75h-12.5l-.75.76v7.63l.75.75h20.91l.75.75v4l-.75.75h-27.15l-.75-.75v-31.5l.75-.79Z" fill="#454F56"/>
	<path d="M460.09 59h27.15l.75.75v3.9l-.75.75h-20.91l-.75.75v6l.75.75h12.49l.75.75v4l-.75.75h-12.49l-.75.76v7.63l.75.75h20.91l.75.75v4l-.75.75h-27.15l-.76-.75v-31.5l.76-.79Z" fill="#454F56"/>
	<path d="M359.37 85.32h-15.71l-.68.44-2.63 5.92-.69.44H335l-.69-1.06 14.19-31.72.69-.44h4.94l.69.44 14.23 31.72-.68 1.06h-5l-.69-.44-2.63-5.92-.68-.44ZM357 78.86l-4.8-10.78h-1.37L346 78.86l.69 1h9.61l.7-1Z" fill="#454F56"/>
	<path d="m379.94 59.79.75-.75h17c7.22 0 11.09 3.35 11.09 8.94a6.787 6.787 0 0 1-3.51 6v1.31a8.005 8.005 0 0 1 4.24 7.34c0 5.78-3.91 9.46-11.55 9.46h-17.27l-.75-.75V59.79Zm6.15 5.31v6.61l.75.75H397c3.59 0 5.36-1.35 5.36-4.06 0-2.71-1.82-4.05-5.36-4.05h-10.16l-.75.75Zm0 13.37v7.59l.75.75h10.34c4.06 0 5.92-1.58 5.92-4.57s-2-4.52-5.92-4.52h-10.34l-.75.75Z" fill="#454F56"/>
	<path d="M447.55 92.12h-25.2l-.75-.75V59.79l.75-.75h4.74l.75.75v25.94l.75.75h19l.75.75v4.14l-.79.75Z" fill="#454F56"/>
	<path d="M515.42 92.12h-15.65l-.74-.74v-4l.74-.74h15.65l.74.74v4l-.74.74Z" fill="#FD5137"/>
</svg>
