<svg xmlns="http://www.w3.org/2000/svg" viewBox="-6.33 -5.33 221.41 329.16">
	<g fill="none">
		<path fill="#24A1C1" d="M105.82.969c8.26 0 15.6 5.83 15.6 13.01 0 7.182-6.99 13.012-15.6 13.012-.985 0-2.27-.161-3.857-.484a5.196 5.196 0 0 0-3.607.576L42.424 58.919a2.603 2.603 0 0 0-.975 3.549 2.601 2.601 0 0 0 .987.982l60.633 34.064a5.196 5.196 0 0 0 5.071.011l60.961-33.91a2.603 2.603 0 0 0 1.01-3.54 2.601 2.601 0 0 0-.99-.998l-19.02-10.805a5.196 5.196 0 0 0-5.089-.025l-20.08 11.145c-.506.281-.84.79-.9 1.359l-.011.191c0 7.181-6.99 13.011-15.6 13.011s-15.601-5.83-15.601-13.01c0-7.182 6.99-13.012 15.6-13.012.32 0 .688.017 1.102.052l.658.065.729.09a5.196 5.196 0 0 0 3.222-.605l29.695-16.48a7.795 7.795 0 0 1 7.322-.13l.311.167 41.466 23.557c5.2 2.953 5.259 10.382.22 13.45l-.28.163-27.74 15.429a2.603 2.603 0 0 0-1.009 3.538 2.601 2.601 0 0 0 1.062 1.04l27.475 14.462c5.454 2.87 5.585 10.639.231 13.692l-83.44 47.586a7.795 7.795 0 0 1-7.727-.002l-82.965-47.39c-5.36-3.061-5.213-10.845.26-13.701l27.773-14.5a2.603 2.603 0 0 0 1.103-3.511 2.601 2.601 0 0 0-1.032-1.066l-28.108-15.79c-5.199-2.92-5.311-10.321-.315-13.429l.278-.165 69.033-39.29a5.203 5.203 0 0 0 2.335-2.8l.088-.276C92.591 4.867 98.105.97 105.82.97zm38.52 95.846-34.09 19.616-.313.17a7.76 7.76 0 0 1-7.374-.138L68.582 97.291a5.173 5.173 0 0 0-4.943-.078l-19.588 10.25a2.607 2.607 0 0 0-.086 4.569l59.846 34.268a5.174 5.174 0 0 0 5.14.002l60.364-34.512a2.608 2.608 0 0 0-.077-4.565l-19.901-10.502a5.173 5.173 0 0 0-4.997.092z"/>
		<path fill="#000" d="M177.666 188c1.061 0 1.975.354 2.74 1.062.743.661 1.14 1.554 1.189 2.678l.005.244v34.984l20.112-18.14c.585-.497 1.205-.77 1.862-.82l.22-.008c.945 0 1.772.363 2.48 1.09.74.727 1.108 1.541 1.108 2.442 0 .746-.297 1.432-.893 2.056l-.17.168-16.08 14.173 17.586 18.228c.65.668.975 1.424.975 2.267 0 .93-.384 1.759-1.152 2.486-.738.727-1.595 1.09-2.57 1.09-.959 0-1.792-.35-2.497-1.053l-.16-.168-20.821-21.803v18.996c0 1.157-.36 2.095-1.078 2.815l-.16.15c-.795.709-1.738 1.063-2.828 1.063-1.09 0-2.019-.34-2.785-1.018-.715-.661-1.096-1.58-1.144-2.754l-.005-.256v-55.988c0-1.24.398-2.213 1.193-2.922a4.277 4.277 0 0 1 2.873-1.062zm-16 19.2c1.061 0 1.975.367 2.74 1.102.743.685 1.14 1.61 1.189 2.776l.005.253v36.492c0 1.285-.413 2.31-1.238 3.075a4.03 4.03 0 0 1-2.828 1.102c-1.09 0-2.019-.352-2.785-1.056-.715-.685-1.096-1.637-1.144-2.856l-.005-.265V211.33c0-1.285.398-2.295 1.193-3.03.825-.734 1.783-1.101 2.873-1.101zM150.92 188l-.001.003.053.002a2.8 2.8 0 0 1 .078 5.584l-.173.011h-4.152c-1.24 0-2.205.117-2.897.35-.692.204-1.312.761-1.86 1.52-.518.729-.706 2.114-.908 3.515-.161 1.28-.247 2.991-.258 5.135l-.001.466-.001 2.613 7.201.001a2.4 2.4 0 0 1 0 4.8l-7.2-.001v35.973c0 1.157-.36 2.095-1.078 2.815l-.16.15c-.795.709-1.738 1.063-2.828 1.063-1.09 0-2.019-.34-2.785-1.018-.715-.661-1.096-1.58-1.144-2.754l-.005-.256v-35.973l-6.4.001a2.4 2.4 0 0 1 0-4.8l6.399-.001.001-4.757c0-5.222 1.095-8.928 3.286-11.116 2.113-2.138 5.003-3.245 8.67-3.322l.412-.004h5.75zm-47.254 19.2c4.168 0 8.042 1.074 10.93 3.024 2.291 1.547 4.152 3.93 4.904 6.279.431 1.349.497 1.847.5 3.806.003 1.219-.03 2.041-.097 2.422-.676 3.85-2.285 6.517-5.08 8.417-2.248 1.528-5.07 2.422-8.763 2.775-1.859.178-5.259.16-7.461-.037-1.87-.168-4.164-.463-5.143-.662-.82-.166-3.626-.643-3.65-.62-.01.011-.143.864-.296 1.897-.245 1.649-.28 2.06-.284 3.377v.646c.006.794.043 1.043.172 1.545.51 1.987 1.637 3.316 3.68 4.343 2.009 1.01 4.115 1.448 7.298 1.516 1.41.03 2.131.009 3.013-.086 2.137-.23 3.111-.483 5.95-1.544.708-.265 1.43-.505 1.604-.535.375-.063 1.074.068 1.482.278.735.38 1.353 1.393 1.35 2.212-.005.957-.322 1.537-1.254 2.29-2.23 1.803-5.075 2.908-8.472 3.291-1.21.137-3.976.157-5.312.039-3.762-.332-6.374-.986-8.76-2.194-1.863-.942-3.284-2.11-4.345-3.574l-.463-.634-.03-.04c-.01-.01-.183.197-.385.462-.892 1.17-2.257 2.428-3.59 3.31-1.926 1.272-4.69 2.243-7.488 2.63-.834.115-3.601.21-4.311.147-4.902-.43-8.648-1.932-11.372-4.563-2.772-2.677-3.962-6.166-3.492-10.246.54-4.694 2.734-8.008 6.582-9.942 2.965-1.49 5.923-2.058 10.74-2.059 3.423-.001 6.29.284 10.665 1.057 1.082.191 2.018.348 2.081.348.092 0 .164-.35.363-1.749.359-2.531.423-3.405.325-4.419-.114-1.18-.262-1.742-.702-2.657-1.135-2.36-3.83-3.804-8.156-4.371-1.237-.162-4.093-.185-5.332-.042-2.077.238-3.236.542-5.82 1.527-1.512.576-1.519.577-2.122.541-1.037-.061-1.745-.539-2.199-1.482-.187-.388-.22-.549-.22-1.072 0-.786.202-1.203.903-1.87 1.571-1.494 4.216-2.767 6.886-3.314 1.71-.35 2.551-.423 4.803-.42 2.33.007 3.82.138 5.892.53 3.444.65 6.06 1.798 8.032 3.523.585.512 1.468 1.52 1.846 2.108.115.18.234.327.264.327s.221-.216.425-.48c2.987-3.868 8.016-6.058 13.91-6.055zm-50.089 0c.997 0 1.776.358 2.336 1.075.592.717.888 1.553.888 2.509 0 .896-.265 1.672-.794 2.33-.53.626-1.293.94-2.29.94-4.205 0-7.076 1.045-9.412 3.136-2.25 2.04-3.45 4.749-3.503 8.126l-.001 22.507c0 1.285-.413 2.31-1.238 3.075A4.03 4.03 0 0 1 36.734 252c-1.09 0-2.019-.352-2.785-1.056-.736-.706-1.119-1.695-1.147-2.967l-.002-.154V211.33c0-1.285.398-2.295 1.193-3.03.825-.734 1.783-1.101 2.873-1.101 1.061 0 1.974.367 2.74 1.102.764.705 1.162 1.664 1.192 2.877l.002.152v5.631l.117-.39c.812-2.603 2.33-4.786 4.555-6.55 2.368-1.881 4.802-2.822 8.104-2.822zM12.34 194.4c.982 0 1.83.318 2.546.953.743.663 1.114 1.55 1.114 2.662l-.001 9.184 8.801.001a2.4 2.4 0 0 1 2.394 2.236l.006.164a2.4 2.4 0 0 1-2.236 2.394L24.8 212l-8.801-.001.001 23.415.001.466c.01 2.144.097 3.855.258 5.135.202 1.4.39 2.786.909 3.515.547.759 1.167 1.316 1.859 1.52.629.212 1.484.328 2.566.347l.331.003h4.152a2.802 2.802 0 0 1 .262 5.58l-.167.015-.053.002V252h-5.75l-.411-.004c-3.668-.077-6.558-1.184-8.67-3.322-2.125-2.122-3.22-5.67-3.284-10.645L8 237.558l-.001-25.559L2.4 212a2.4 2.4 0 0 1-2.394-2.236L0 209.6a2.4 2.4 0 0 1 2.236-2.394l.164-.006 5.765-.001.635-9.184c0-1.165.345-2.066 1.034-2.701.69-.61 1.525-.914 2.506-.914zm60.121 36.631c-2.978.171-4.192.437-5.98 1.312-.917.448-1.549.934-2.05 1.575-.717.92-1.15 1.834-1.452 3.066-.22.896-.242 3.243-.038 3.999.343 1.274.751 1.995 1.668 2.95 1.256 1.306 2.912 2.178 4.965 2.614 1.05.223 1.02.22 2.777.194 1.276-.02 1.753-.057 2.275-.175 2.216-.503 4.19-1.637 5.623-3.229 1.308-1.452 2.38-3.627 2.97-6.024.333-1.351.886-5.112.764-5.19-.049-.03-.341-.079-.65-.107a56.614 56.614 0 0 1-1.37-.161l-.392-.05a93.34 93.34 0 0 1-.193-.026c-4.556-.603-7.35-.838-8.917-.748zm27.782-18.046c-1.622.305-2.994.86-4.203 1.702-2.234 1.556-3.776 3.9-4.635 7.049-.337 1.236-.427 1.71-.728 3.842l-.277 1.966.372.043c1.122.128 3.652.443 5.122.638.924.123 2.06.254 2.521.291 1.234.1 3.37.099 4.723.004l.32-.025c1.846-.167 2.98-.462 4.375-1.136 1.16-.561 1.834-1.135 2.472-2.102.938-1.425 1.304-2.774 1.295-4.777-.007-1.428-.125-2.022-.603-3.047-1.07-2.29-3.584-3.931-6.88-4.491-.823-.14-3.031-.115-3.874.043zM161.64 188c1.422 0 2.571.393 3.446 1.178.875.76 1.313 1.774 1.313 3.041 0 1.242-.438 2.255-1.313 3.04-.875.761-2.037 1.141-3.487 1.141-1.45 0-2.612-.38-3.487-1.14-.875-.786-1.313-1.8-1.313-3.041 0-1.242.438-2.255 1.313-3.04.902-.786 2.078-1.179 3.528-1.179zM32.8 317.64c.427 0 .757-.128.992-.384s.352-.619.352-1.088v-16.64c.939 2.176 2.336 3.84 4.192 4.992 1.856 1.152 4.085 1.728 6.688 1.728 2.73 0 5.141-.661 7.232-1.984 2.09-1.323 3.712-3.19 4.864-5.6 1.152-2.41 1.728-5.216 1.728-8.416 0-3.243-.576-6.08-1.728-8.512-1.152-2.432-2.773-4.32-4.864-5.664-2.09-1.344-4.501-2.016-7.232-2.016-2.603 0-4.832.565-6.688 1.696-1.856 1.13-3.253 2.763-4.192 4.896v-5.056c0-.427-.117-.768-.352-1.024s-.565-.384-.992-.384-.757.128-.992.384-.352.597-.352 1.024v40.576c0 .981.448 1.472 1.344 1.472zm12.16-14.016c-3.456 0-6.123-1.173-8-3.52-1.877-2.347-2.816-5.675-2.816-9.984s.939-7.627 2.816-9.952c1.877-2.325 4.565-3.488 8.064-3.488 3.413 0 6.08 1.195 8 3.584s2.88 5.717 2.88 9.984-.96 7.563-2.88 9.888-4.608 3.488-8.064 3.488zm24 2.496c.427 0 .757-.128.992-.384s.352-.619.352-1.088v-17.472c0-2.603.79-4.907 2.368-6.912 1.579-2.005 3.925-3.157 7.04-3.456l1.92-.192c.896-.128 1.344-.555 1.344-1.28 0-.384-.096-.672-.288-.864-.192-.192-.544-.288-1.056-.288h-.448l-.896.064c-4.821.341-8.15 2.347-9.984 6.016v-4.608c0-.47-.128-.832-.384-1.088a1.302 1.302 0 0 0-.96-.384c-.896 0-1.344.49-1.344 1.472v28.992c0 .47.117.832.352 1.088.235.256.565.384.992.384zm31.232.128c2.73 0 5.141-.661 7.232-1.984 2.09-1.323 3.712-3.2 4.864-5.632 1.152-2.432 1.728-5.27 1.728-8.512 0-3.2-.576-6.016-1.728-8.448-1.152-2.432-2.773-4.31-4.864-5.632-2.09-1.323-4.501-1.984-7.232-1.984s-5.141.661-7.232 1.984c-2.09 1.323-3.712 3.2-4.864 5.632-1.152 2.432-1.728 5.248-1.728 8.448 0 3.243.576 6.08 1.728 8.512 1.152 2.432 2.773 4.31 4.864 5.632 2.09 1.323 4.501 1.984 7.232 1.984zm-.064-2.624c-3.456 0-6.133-1.163-8.032-3.488s-2.848-5.664-2.848-10.016c0-4.224.97-7.52 2.912-9.888 1.941-2.368 4.619-3.552 8.032-3.552s6.09 1.184 8.032 3.552c1.941 2.368 2.912 5.664 2.912 9.888 0 4.352-.95 7.69-2.848 10.016-1.899 2.325-4.619 3.488-8.16 3.488zm46.016 2.368c.341 0 .64-.128.896-.384s.384-.576.384-.96-.15-.747-.448-1.088l-11.712-13.632 11.392-13.312c.299-.341.448-.704.448-1.088 0-.384-.139-.704-.416-.96-.277-.256-.587-.384-.928-.384-.384 0-.747.192-1.088.576l-11.136 13.184L122.4 274.76c-.341-.384-.704-.576-1.088-.576-.341 0-.64.128-.896.384s-.384.576-.384.96.15.747.448 1.088l11.328 13.312-11.712 13.632c-.299.341-.448.704-.448 1.088 0 .384.128.704.384.96s.555.384.896.384c.384 0 .768-.192 1.152-.576l11.456-13.504 11.52 13.504c.341.384.704.576 1.088.576zm14.912 11.52c.512 0 .896-.256 1.152-.768l18.368-40.704c.085-.256.128-.448.128-.576 0-.384-.128-.693-.384-.928a1.284 1.284 0 0 0-.896-.352c-.555 0-.96.299-1.216.896l-12.16 27.328-.128.32-12.352-27.84c-.256-.512-.619-.768-1.088-.768-.384 0-.725.128-1.024.384s-.448.576-.448.96c0 .128.043.32.128.576l13.44 29.696-4.608 10.112-.128.512c0 .341.117.619.352.832.235.213.523.32.864.32z"/>
	</g>
</svg>
