<svg xmlns="http://www.w3.org/2000/svg" width="200" height="128">
	<path d="M77.391 48.2s5.332-4.642 21.115-4.642c14.479 0 18.548 3.284 22.681 4.642L99.626 58.734z" fill="#c9781f"/>
	<path d="M75.14 62.171c.1 2.014 2.109 1.083 3.02.453.865-.6 1.118-.1 1.194-1.281a19.267 19.267 0 0 0 .095-2.329 5.711 5.711 0 0 0-3.8.972c-.552.4-1.588 1.683-.506 2.185" fill="#f6d2a2"/>
	<path d="M75.14 62.171a1.574 1.574 0 0 0 .8-.451" fill="#c6b198"/>
	<path d="M79.789 38.182C72.08 36.014 77.812 26.207 84 30.241zm34.25-8.677c6.1-4.286 11.616 5.383 4.525 7.816z" fill="#37abc8"/>
	<path d="M115.352 86.955c1.55.959 4.383 3.859 2.058 5.265-2.234 2.045-3.485-2.245-5.445-2.84a5.426 5.426 0 0 1 3.387-2.425z" fill="#f6d2a2"/>
	<path d="M117.41 92.22a6.617 6.617 0 0 0-1.036-2.038" fill="none"/>
	<path d="M87.662 90.232c-1.819.282-2.843 1.923-4.36 2.756-1.429.853-1.976-.272-2.1-.5-.224-.1-.206.095-.551-.253-1.325-2.091 1.38-3.619 2.789-4.658 1.96-.397 3.187 1.304 4.222 2.655z" fill="#f6d2a2"/>
	<path d="M81.2 92.487c.069-.8.7-1.33 1-2" fill="none"/>
	<path d="M80.11 35.473c-1.017-.538-1.763-1.269-1.141-2.445.576-1.089 1.646-.971 2.663-.433l-1.522 2.878zm36.847-1.023c1.017-.538 1.763-1.268 1.141-2.445-.576-1.089-1.646-.971-2.663-.433z" fill="#077e91"/>
	<path d="M123.958 61.916c-.1 2.013-2.109 1.082-3.021.452-.865-.6-1.118-.1-1.193-1.28a19.073 19.073 0 0 1-.095-2.329 5.7 5.7 0 0 1 3.8.972c.553.4 1.588 1.682.507 2.185" fill="#f6d2a2"/>
	<path d="M123.958 61.916a1.592 1.592 0 0 1-.8-.451" fill="#c6b198"/>
	<path d="M98.776 25.431c7.718 0 14.953 1.1 18.724 8.519 3.385 8.311 2.182 17.273 2.7 26.056.443 7.542 1.426 16.256-2.073 23.245-3.68 7.353-12.878 9.2-20.456 8.932-5.952-.213-13.142-2.155-16.5-7.593-3.941-6.38-2.075-15.866-1.789-22.965.339-8.409-2.278-16.843.485-25.071 2.865-8.536 10.594-10.465 18.912-11.123" fill="#37abc8"/>
	<path d="M100.139 35.792c1.385 8.055 14.552 5.925 12.661-2.2-1.7-7.285-13.122-5.268-12.661 2.2M84.405 37.1c1.8 7.012 13.023 5.217 12.6-1.818-.507-8.424-14.317-6.8-12.6 1.818m18.295 8.081a16.784 16.784 0 0 1 .04 3.337c-.268.505-.792.559-1.244.763a1.831 1.831 0 0 1-1.4-1.093 23.814 23.814 0 0 1 .1-3.775z" fill="#fff"/>
	<ellipse cx="87.501" cy="35.951" rx="1.896" ry="2.054"/>
	<ellipse cx="88.364" cy="36.414" rx=".447" ry=".522" fill="#fff"/>
	<ellipse cx="103.386" cy="35.439" rx="1.864" ry="2.054"/>
	<ellipse cx="104.234" cy="35.903" rx=".44" ry=".522" fill="#fff"/>
	<path d="M97.277 45.343c-.827 2 .461 6.014 2.7 3.057a23.7 23.7 0 0 1 .1-3.775l-2.806.718z" fill="#fff"/>
	<path d="M97.145 41.483a2.445 2.445 0 0 0-2 3.414c1.061 1.921 3.431-.17 4.907.026 1.7.035 3.09 1.8 4.454.319 1.517-1.644-.653-3.244-2.35-3.96l-5.011.2z" fill="#f6d2a2"/>
	<path d="M77.391 48.2s.488 5.287.454 7.567 2.151.84 2.264 4.424-1.323 2.9-2.079 4.659-1.271 9.97-1.271 9.97a8.124 8.124 0 0 0 3.2 2.917 19.566 19.566 0 0 0 9.7 2 16.486 16.486 0 0 0 6.391-1.276 6.941 6.941 0 0 0 1.98-2.644c.377-.978 1.163-9.038 1.108-13.65a61.02 61.02 0 0 0-.816-8.867z" fill="#ef9325"/>
	<path d="M98.779 70.654C88.836 71.764 77.3 68.7 77.3 68.7s.17-3.113.916-4.208A59.629 59.629 0 0 0 98.99 66.68a12.859 12.859 0 0 1-.209 3.978zm-1.252 6.134c-9.943 1.11-20.768-2.082-20.768-2.082a20.736 20.736 0 0 1 .36-4.3 66.182 66.182 0 0 0 21.387 2.404 7.736 7.736 0 0 1-.979 3.978z" fill="#e5e5e5"/>
	<path d="M121.187 48.2s-.068 5.287-.034 7.567-1.324.84-1.438 4.424 1.339 2.9 2.1 4.659 1.287 9.97 1.287 9.97a8.179 8.179 0 0 1-3.242 2.917 20.016 20.016 0 0 1-9.822 2 16.874 16.874 0 0 1-6.472-1.276 6.949 6.949 0 0 1-2-2.644c-.381-.978-1.177-9.038-1.122-13.65a60.439 60.439 0 0 1 .827-8.867z" fill="#ef9325"/>
	<path d="M100.81 70.654c10.068 1.11 21.751-1.958 21.751-1.958s-.172-3.113-.928-4.208a61.109 61.109 0 0 1-21.033 2.188 12.707 12.707 0 0 0 .212 3.978zm1.267 6.134c10.069 1.11 21.03-2.082 21.03-2.082a20.493 20.493 0 0 0-.365-4.3 67.825 67.825 0 0 1-21.656 2.406 7.672 7.672 0 0 0 .991 3.978z" fill="#e5e5e5"/>
	<path d="M125.2 57.9a1.1 1.1 0 0 1-1.383.636l-.361-.191a1.1 1.1 0 0 1-.251-1.5l7.046-13.3a1.1 1.1 0 0 1 1.383-.636l.366.191a1.1 1.1 0 0 1 .251 1.5z" fill="#d2e261"/>
	<path d="M121.876 64.177a.838.838 0 0 1-1.147.19l-.361-.191a.838.838 0 0 1-.487-1.056l3.305-6.239a.838.838 0 0 1 1.147-.19l.361.191a.836.836 0 0 1 .487 1.056z"/>
	<path d="m124.815 56.655-.362-.191c-.451-.239-.912-.252-1.03-.029l-.212.4c.119-.224.58-.211 1.031.029l.362.191c.451.239.721.614.6.836l.212-.4c.12-.222-.15-.597-.601-.836z" fill="#9b9b9b"/>
	<ellipse cx="121.838" cy="60.263" rx="1.2" ry="1.551" transform="rotate(-69.586 121.839 60.263)" fill="#f6d2a2"/>
	<path d="M74.149 58.111a1.1 1.1 0 0 0 1.353.7l.369-.175a1.1 1.1 0 0 0 .319-1.489l-6.428-13.608a1.1 1.1 0 0 0-1.352-.7l-.37.175a1.1 1.1 0 0 0-.319 1.488l6.428 13.608z" fill="#d2e261"/>
	<path d="M77.185 64.538a.837.837 0 0 0 1.137.242l.37-.174a.837.837 0 0 0 .534-1.032l-3.016-6.385a.837.837 0 0 0-1.137-.242l-.369.174a.838.838 0 0 0-.535 1.033z"/>
	<path d="m74.594 56.889.37-.175c.461-.218.923-.21 1.031.019l.192.408c-.107-.228-.569-.237-1.031-.019l-.369.175c-.462.218-.749.58-.641.808l-.193-.408c-.107-.228.179-.59.641-.808z" fill="#9b9b9b"/>
	<ellipse cx="77.715" cy="60.437" rx="1.551" ry="1.2" transform="rotate(-20.414 77.713 60.437)" fill="#f6d2a2"/>
	<path d="M80.693 41.2a1.182 1.182 0 0 1-1.615.426l-.673-.37a1.182 1.182 0 0 1-.506-1.592l7.009-12.745a1.181 1.181 0 0 1 1.615-.427l.673.371a1.216 1.216 0 0 1 .5 1.592A48.1 48.1 0 0 1 80.693 41.2z" fill="#960000"/>
	<path d="M82.547 33.924c2.131-3.876 3.531-7.209 3.2-7.587l.008-.015-.028-.013c-3.275-1.774-7.681-.017-9.858 3.942s-1.3 8.621 1.953 10.435l.026.016.008-.014c.5.079 2.563-2.889 4.694-6.765z" fill="#595959"/>
	<path d="M117.668 41.231a1.181 1.181 0 0 0 1.6.472l.684-.35a1.183 1.183 0 0 0 .551-1.577l-6.638-12.942a1.182 1.182 0 0 0-1.6-.473l-.684.351a1.217 1.217 0 0 0-.551 1.576 48.1 48.1 0 0 0 6.638 12.943z" fill="#960000"/>
	<path d="M116.025 33.9c-2.019-3.935-3.322-7.308-2.978-7.676l-.007-.015.028-.012c3.325-1.679 7.678.2 9.74 4.225s1.051 8.654-2.253 10.374c-.01.005-.018.012-.027.016l-.007-.014c-.5.064-2.479-2.962-4.5-6.9z" fill="#595959"/>
	<path d="M122.6 32.241s-2.453-6.142-5.3-9.39-30.67-4.355-35.239 0a26.223 26.223 0 0 0-6.292 9.39V30.88s2.113-5.979 6.292-9.389 31.639-3.231 35.181 0 5.358 9.389 5.358 9.389z" fill="#353535"/>
	<ellipse cx="122.562" cy="30.627" rx=".96" ry="2.346" transform="rotate(-27.149 122.564 30.628)" fill="#960000"/>
	<ellipse cx="76.111" cy="30.467" rx="2.346" ry=".96" transform="rotate(-61.197 76.112 30.466)" fill="#960000"/>
	<g fill="#fff">
		<path d="M112.112 30.945H86.158c-4.66 0-4.644 12.383-.269 13.1l9.047-.581c1.094 0 3.278-4.237 3.688-4.57a2.6 2.6 0 0 1 2.29 0c.532.374 1.741 4.143 2.834 4.143l9.047 1.008c4.226-1.944 3.161-13.1-.683-13.1z" opacity=".6" style="isolation:isolate"/>
		<path d="M93.049 33.505c-2.858-.064-7.331-.038-9.774-.018a11.254 11.254 0 0 0-.64 4.7c2.219 0 7.042.011 10.473.011a20.7 20.7 0 0 1 5.417.802.717.717 0 0 1 .1-.109 2.6 2.6 0 0 1 2.29 0 2.885 2.885 0 0 1 .536.85 12.778 12.778 0 0 0 2.508.3c2.338.03 7.816.021 11.341.011a13.039 13.039 0 0 0 .017-4.62c-3.441 0-8.911-.078-11.533-.078-3.7 0-6.922-1.772-10.734-1.857z" opacity=".5" style="isolation:isolate"/>
	</g>
	<path d="M96.951 41.4c-.114-2.671 4.978-3 5.58-.769s-5.329 2.749-5.58.769z"/>
	<path d="M77.322 109h.614q.373 0 .6-.021a2.205 2.205 0 0 0 .468-.093.66.66 0 0 0 .353-.229.8.8 0 0 0-.083-.936.7.7 0 0 0-.541-.218h-.062l-.707.031h-.115a1.054 1.054 0 0 1-.956-.468 3.013 3.013 0 0 1-.3-1.549V99.85h1.914q.686 0 .686-.593a.618.618 0 0 0-.177-.457.668.668 0 0 0-.509-.177h-1.913v-3.015a.7.7 0 0 0-.208-.551.723.723 0 0 0-.519-.2.929.929 0 0 0-.614.239.814.814 0 0 0-.291.572l-.25 2.953h-1.279a.7.7 0 0 0-.519.177.571.571 0 0 0-.177.437.584.584 0 0 0 .177.447.769.769 0 0 0 .53.166h1.268v5.989a3.474 3.474 0 0 0 .707 2.392 2.459 2.459 0 0 0 1.9.769m5.281-.144a1.025 1.025 0 0 0 .666-.228.774.774 0 0 0 .291-.645v-5.355a2.549 2.549 0 0 1 .769-1.944 3.08 3.08 0 0 1 2.184-.728.619.619 0 0 0 .509-.218.86.86 0 0 0 .181-.536.908.908 0 0 0-.2-.582.611.611 0 0 0-.52-.25 2.874 2.874 0 0 0-1.892.655 3.088 3.088 0 0 0-1.04 1.612l.011-1.248a.732.732 0 0 0-.281-.613.978.978 0 0 0-.655-.229 1.02 1.02 0 0 0-.666.229.754.754 0 0 0-.28.634v8.578a.8.8 0 0 0 .27.645.982.982 0 0 0 .655.228m25.436-.005a.99.99 0 0 0 .666-.239.87.87 0 0 0 .28-.686V99.85h1.758q.664 0 .665-.6a.626.626 0 0 0-.166-.447.634.634 0 0 0-.5-.177h-1.758v-.811a10.972 10.972 0 0 1 .063-1.331 1.73 1.73 0 0 1 .26-.759.861.861 0 0 1 .447-.343 2.3 2.3 0 0 1 .7-.083h.884a.577.577 0 0 0 .479-.208.8.8 0 0 0 0-1 .553.553 0 0 0-.468-.218h-1.269a2.947 2.947 0 0 0-2.183.79 3.622 3.622 0 0 0-.796 2.637v1.32h-1.36a.668.668 0 0 0-.509.177.626.626 0 0 0-.166.447.614.614 0 0 0 .166.437.693.693 0 0 0 .509.166h1.36v8.079a.888.888 0 0 0 .271.686.99.99 0 0 0 .665.239m6.564-12.734a1.245 1.245 0 0 0 .884-.311 1.108 1.108 0 0 0 .333-.832 1.085 1.085 0 0 0-.333-.832 1.2 1.2 0 0 0-.873-.322 1.254 1.254 0 0 0-.895.322 1.209 1.209 0 0 0 0 1.664 1.245 1.245 0 0 0 .884.311m-.01 12.737a.969.969 0 0 0 .665-.249.888.888 0 0 0 .291-.7v-8.45a.87.87 0 0 0-.28-.686.919.919 0 0 0-.645-.25 1 1 0 0 0-.676.25.871.871 0 0 0-.281.686v8.453a.911.911 0 0 0 .271.707.95.95 0 0 0 .655.239m5 0a.969.969 0 0 0 .665-.249.869.869 0 0 0 .292-.7v-4.533l4.886 5.2a.81.81 0 0 0 .624.291.828.828 0 0 0 .6-.26.8.8 0 0 0 .271-.593.762.762 0 0 0-.229-.54l-4.128-4.347 3.774-3.379a.719.719 0 0 0 .25-.53.805.805 0 0 0-.26-.582.781.781 0 0 0-.582-.26.737.737 0 0 0-.489.2l-4.72 4.326v-7.955a.873.873 0 0 0-.281-.687.919.919 0 0 0-.645-.249 1.009 1.009 0 0 0-.676.249.872.872 0 0 0-.28.687v12.965a.914.914 0 0 0 .27.707.95.95 0 0 0 .655.239" fill="#333"/>
	<path d="M91.342 108.851a4.434 4.434 0 0 1-2.779-1.1 2.8 2.8 0 0 1-.853-2.463 2.852 2.852 0 0 1 1.608-2.391 5.484 5.484 0 0 1 2.625-.494 13.937 13.937 0 0 1 2.607.254c.264.046.493.083.508.083s.04-.084.089-.42a4.23 4.23 0 0 0 .079-1.062 1.585 1.585 0 0 0-.171-.639 2.357 2.357 0 0 0-1.993-1.051 7.779 7.779 0 0 0-1.3-.01 5.017 5.017 0 0 0-1.422.367c-.369.138-.371.139-.519.13a.59.59 0 0 1-.537-.356.457.457 0 0 1-.054-.258.531.531 0 0 1 .217-.441 3.637 3.637 0 0 1 1.683-.8 4.8 4.8 0 0 1 1.174-.1 7.1 7.1 0 0 1 1.439.127 4.061 4.061 0 0 1 1.963.847 3.073 3.073 0 0 1 .451.507.3.3 0 0 0 .065.079.656.656 0 0 0 .1-.116 4.214 4.214 0 0 1 3.4-1.455 4.866 4.866 0 0 1 2.671.727 3.05 3.05 0 0 1 1.2 1.509 2.3 2.3 0 0 1 .123.915 4.175 4.175 0 0 1-.024.582 2.861 2.861 0 0 1-1.241 2.024 4.526 4.526 0 0 1-2.142.667 12.232 12.232 0 0 1-1.823-.009 14.922 14.922 0 0 1-1.257-.159c-.2-.04-.886-.155-.892-.149s-.035.207-.073.456a4.316 4.316 0 0 0-.069.812 1.641 1.641 0 0 0 .042.526 1.538 1.538 0 0 0 .9 1.045 3.979 3.979 0 0 0 1.784.364 5.283 5.283 0 0 0 .736-.021 4.931 4.931 0 0 0 1.455-.371c.172-.064.349-.121.391-.129a.738.738 0 0 1 .363.067.665.665 0 0 1 .329.532.635.635 0 0 1-.306.551 3.965 3.965 0 0 1-2.07.791 9.2 9.2 0 0 1-1.3.009 5.711 5.711 0 0 1-2.141-.527 2.856 2.856 0 0 1-1.061-.86c-.064-.086-.118-.159-.121-.161a.9.9 0 0 0-.094.11 3.78 3.78 0 0 1-.877.8 4.636 4.636 0 0 1-1.83.632 8.841 8.841 0 0 1-1.054.036zm1.174-1.317a2.732 2.732 0 0 0 1.417-.794 3.5 3.5 0 0 0 .748-1.482 7.981 7.981 0 0 0 .192-1.276.722.722 0 0 0-.164-.027c-.077-.007-.3-.033-.492-.058a14.689 14.689 0 0 0-2.246-.184 3.407 3.407 0 0 0-1.507.323 1.4 1.4 0 0 0-.516.387 1.87 1.87 0 0 0-.366.754 3.044 3.044 0 0 0-.009.984 1.453 1.453 0 0 0 .42.725 2.375 2.375 0 0 0 1.251.643 2.146 2.146 0 0 0 .7.048 2.713 2.713 0 0 0 .573-.043zm7.311-4.337a2.943 2.943 0 0 0 1.106-.279 1.389 1.389 0 0 0 .625-.517 1.883 1.883 0 0 0 .328-1.173 1.447 1.447 0 0 0-.153-.749 2.246 2.246 0 0 0-1.74-1.1 4.394 4.394 0 0 0-.979.01 2.725 2.725 0 0 0-1.063.419 2.96 2.96 0 0 0-1.172 1.731 5.786 5.786 0 0 0-.185.944l-.07.483.094.011c.284.031.924.109 1.3.157.234.03.521.062.637.071a9.7 9.7 0 0 0 1.276 0z" fill="#37abc8"/>
</svg>
