<svg width="209" height="282" xmlns="http://www.w3.org/2000/svg">
	<g fill="none">
		<path d="m78.21 1.118.272.147 23.402 13.191a5.25 5.25 0 0 0 5.152.002l23.206-13.057a7.875 7.875 0 0 1 7.99 13.57l-.266.156-13.4 7.54a2.625 2.625 0 0 0-.002 4.574l36.171 20.391a5.25 5.25 0 0 0 5.156 0l22.366-12.606a7.875 7.875 0 0 1 8 13.563l-.266.157-12.584 7.093a2.625 2.625 0 0 0 0 4.574l12.656 7.135a7.875 7.875 0 0 1-7.462 13.867l-.272-.147-22.438-12.648a5.25 5.25 0 0 0-5.156 0l-36.569 20.614a2.625 2.625 0 0 0 0 4.574l15.11 8.517a7.875 7.875 0 0 1-7.462 13.867l-.273-.147-24.89-14.031a5.25 5.25 0 0 0-5.156 0l-25.103 14.152a7.875 7.875 0 0 1-8-13.563l.266-.157 15.322-8.638a2.625 2.625 0 0 0 0-4.573L47.734 68.802a5.25 5.25 0 0 0-5.153-.002L21.237 80.811a7.875 7.875 0 0 1-7.99-13.57l.266-.156 11.54-6.494a2.625 2.625 0 0 0 .001-4.574l-11.52-6.494a7.875 7.875 0 0 1 7.462-13.867l.272.146 21.322 12.02a5.25 5.25 0 0 0 5.153.001l36.604-20.597a2.625 2.625 0 0 0 .001-4.574l-13.6-7.667a7.875 7.875 0 0 1 7.461-13.867Zm23.666 34.317L65.272 56.032a2.625 2.625 0 0 0-.002 4.574l36.225 20.421a5.25 5.25 0 0 0 5.157 0l36.569-20.614a2.625 2.625 0 0 0 0-4.574l-36.193-20.402a5.25 5.25 0 0 0-5.152-.002Z" fill="#9D0FB0"/>
		<path d="M130.272 249.056c1.579 0 3.093.213 4.544.64 1.45.427 2.73 1.024 3.84 1.792.81.597 1.397 1.12 1.76 1.568.363.448.544.907.544 1.376 0 .299-.107.565-.32.8-.213.235-.47.352-.768.352-.341 0-.896-.32-1.664-.96a17.892 17.892 0 0 0-3.488-2.112c-1.216-.555-2.741-.832-4.576-.832-2.39 0-4.32.565-5.792 1.696-1.472 1.13-2.208 2.613-2.208 4.448 0 1.11.235 2.016.704 2.72.47.704 1.27 1.312 2.4 1.824s2.741 1.003 4.832 1.472c2.944.725 5.205 1.461 6.784 2.208 1.579.747 2.699 1.643 3.36 2.688.661 1.045.992 2.379.992 4 0 2.56-1.056 4.619-3.168 6.176-2.112 1.557-4.917 2.336-8.416 2.336-1.664 0-3.328-.245-4.992-.736-1.664-.49-3.157-1.163-4.48-2.016-.853-.555-1.43-1.013-1.728-1.376a1.907 1.907 0 0 1-.448-1.248c0-.299.107-.565.32-.8.213-.235.47-.352.768-.352.213 0 .501.117.864.352s.608.395.736.48a20.078 20.078 0 0 0 3.872 2.208c1.344.576 3.04.864 5.088.864 2.773 0 4.907-.512 6.4-1.536 1.493-1.024 2.24-2.475 2.24-4.352 0-1.11-.267-2.027-.8-2.752-.533-.725-1.408-1.355-2.624-1.888-1.216-.533-2.955-1.056-5.216-1.568-3.755-.853-6.443-1.941-8.064-3.264-1.621-1.323-2.432-3.072-2.432-5.248 0-2.645 1.035-4.8 3.104-6.464 2.07-1.664 4.747-2.496 8.032-2.496Zm-31.616 0c3.925 0 7.019 1.28 9.28 3.84 2.261 2.56 3.392 6.059 3.392 10.496 0 .768-.15 1.323-.448 1.664-.299.341-.832.512-1.6.512H87.264l.008.444c.111 3.966 1.165 7.04 3.16 9.22 2.07 2.261 4.981 3.392 8.736 3.392 2.048 0 3.744-.277 5.088-.832a20.506 20.506 0 0 0 3.936-2.176c.896-.597 1.472-.896 1.728-.896a1 1 0 0 1 .768.352c.213.235.32.501.32.8 0 .427-.16.843-.48 1.248-.32.405-.885.864-1.696 1.376-3.072 1.835-6.25 2.752-9.536 2.752-4.65 0-8.31-1.43-10.976-4.288-2.667-2.859-4-6.784-4-11.776 0-3.2.597-6.016 1.792-8.448 1.195-2.432 2.88-4.32 5.056-5.664 2.176-1.344 4.672-2.016 7.488-2.016Zm53.12-13.696c.427 0 .757.128.992.384s.352.619.352 1.088v18.432l.17-.349c.936-1.835 2.287-3.255 4.054-4.259 1.877-1.067 4.032-1.6 6.464-1.6 3.712 0 6.517.992 8.416 2.976s2.848 4.917 2.848 8.8v18.816l-.006.171c-.025.387-.14.693-.346.917-.235.256-.565.384-.992.384-.427 0-.757-.128-.992-.384s-.352-.619-.352-1.088v-18.496l-.003-.411c-.053-3.117-.713-5.401-1.981-6.853-1.323-1.515-3.456-2.272-6.4-2.272-3.285 0-5.92 1.013-7.904 3.04s-2.976 4.725-2.976 8.096v16.896l-.006.171c-.025.387-.14.693-.346.917-.235.256-.565.384-.992.384-.384 0-.704-.139-.96-.416-.256-.277-.384-.63-.384-1.056v-42.816l.006-.171c.025-.387.14-.693.346-.917.235-.256.565-.384.992-.384ZM65.44 249.056c6.827 0 10.24 3.925 10.24 11.776v18.816l-.007.178c-.029.348-.144.64-.345.878-.235.277-.565.416-.992.416-.427 0-.757-.139-.992-.416-.235-.277-.352-.63-.352-1.056v-18.496l-.003-.411c-.048-3.117-.644-5.401-1.789-6.853-1.195-1.515-3.093-2.272-5.696-2.272-2.987 0-5.365 1.003-7.136 3.008-1.77 2.005-2.656 4.715-2.656 8.128v16.896l-.007.178c-.029.348-.144.64-.345.878-.235.277-.565.416-.992.416-.427 0-.757-.139-.992-.416-.235-.277-.352-.63-.352-1.056v-18.496l-.003-.411c-.048-3.117-.644-5.401-1.789-6.853-1.195-1.515-3.093-2.272-5.696-2.272-3.03 0-5.419 1.003-7.168 3.008-1.75 2.005-2.624 4.715-2.624 8.128v16.896l-.007.178c-.029.348-.144.64-.345.878-.235.277-.565.416-.992.416-.427 0-.757-.139-.992-.416-.235-.277-.352-.63-.352-1.056v-28.992l.005-.168c.05-.87.496-1.304 1.339-1.304.427 0 .747.128.96.384.213.256.32.619.32 1.088v4.608l.155-.349c.85-1.835 2.067-3.255 3.653-4.259 1.685-1.067 3.68-1.6 5.984-1.6 4.992 0 8.192 2.07 9.6 6.208.853-1.92 2.197-3.435 4.032-4.544 1.835-1.11 3.947-1.664 6.336-1.664Zm33.216 2.496c-3.243 0-5.856 1.013-7.84 3.04s-3.147 4.853-3.488 8.48h21.44c-.085-3.712-1.003-6.56-2.752-8.544-1.75-1.984-4.203-2.976-7.36-2.976ZM177.666 163c1.061 0 1.975.354 2.74 1.062.743.661 1.14 1.554 1.189 2.678l.005.244v34.984l20.112-18.14c.585-.497 1.205-.77 1.862-.82l.22-.008c.945 0 1.772.363 2.48 1.09.74.727 1.108 1.541 1.108 2.442 0 .746-.297 1.432-.893 2.056l-.17.168-16.08 14.173 17.586 18.228c.65.668.975 1.424.975 2.267 0 .93-.384 1.759-1.152 2.486-.738.727-1.595 1.09-2.57 1.09-.959 0-1.792-.35-2.497-1.053l-.16-.168-20.821-21.803v18.996c0 1.157-.36 2.095-1.078 2.815l-.16.15c-.795.709-1.738 1.063-2.828 1.063-1.09 0-2.019-.34-2.785-1.018-.715-.661-1.096-1.58-1.144-2.754l-.005-.256v-55.988c0-1.24.398-2.213 1.193-2.922a4.277 4.277 0 0 1 2.873-1.062Zm-16 19.2c1.061 0 1.975.367 2.74 1.102.743.685 1.14 1.61 1.189 2.776l.005.253v36.492c0 1.285-.413 2.31-1.238 3.075a4.03 4.03 0 0 1-2.828 1.102c-1.09 0-2.019-.352-2.785-1.056-.715-.685-1.096-1.637-1.144-2.856l-.005-.265V186.33c0-1.285.398-2.295 1.193-3.03.825-.734 1.783-1.101 2.873-1.101ZM150.92 163l-.001.003.053.002a2.8 2.8 0 0 1 .078 5.584l-.173.011h-4.152c-1.24 0-2.205.117-2.897.35-.692.204-1.312.761-1.86 1.52-.518.729-.706 2.114-.908 3.515-.161 1.28-.247 2.991-.258 5.135l-.001.466-.001 2.613 7.201.001a2.4 2.4 0 0 1 0 4.8l-7.2-.001v35.973c0 1.157-.36 2.095-1.078 2.815l-.16.15c-.795.709-1.738 1.063-2.828 1.063-1.09 0-2.019-.34-2.785-1.018-.715-.661-1.096-1.58-1.144-2.754l-.005-.256v-35.973l-6.4.001a2.4 2.4 0 0 1 0-4.8l6.399-.001.001-4.757c0-5.222 1.095-8.928 3.286-11.116 2.113-2.138 5.003-3.245 8.67-3.322l.412-.004h5.75Zm-47.254 19.2c4.168 0 8.042 1.074 10.93 3.024 2.291 1.547 4.152 3.93 4.904 6.279.431 1.349.497 1.847.5 3.806.003 1.219-.03 2.041-.097 2.422-.676 3.85-2.285 6.517-5.08 8.417-2.248 1.528-5.07 2.422-8.763 2.775-1.859.178-5.259.16-7.461-.037-1.87-.168-4.164-.463-5.143-.662-.82-.166-3.626-.643-3.65-.62-.01.011-.143.864-.296 1.897-.245 1.649-.28 2.06-.284 3.377v.646c.006.794.043 1.043.172 1.545.51 1.987 1.637 3.316 3.68 4.343 2.009 1.01 4.115 1.448 7.298 1.516 1.41.03 2.131.009 3.013-.086 2.137-.23 3.111-.483 5.95-1.544.708-.265 1.43-.505 1.604-.535.375-.063 1.074.068 1.482.278.735.38 1.353 1.393 1.35 2.212-.005.957-.322 1.537-1.254 2.29-2.23 1.803-5.075 2.908-8.472 3.291-1.21.137-3.976.157-5.312.039-3.762-.332-6.374-.986-8.76-2.194-1.863-.942-3.284-2.11-4.345-3.574l-.463-.634-.03-.04c-.01-.01-.183.197-.385.462-.892 1.17-2.257 2.428-3.591 3.31-1.925 1.272-4.69 2.243-7.487 2.63-.834.115-3.601.21-4.311.147-4.902-.43-8.648-1.932-11.372-4.563-2.772-2.677-3.962-6.166-3.492-10.246.54-4.694 2.734-8.008 6.582-9.942 2.965-1.49 5.923-2.058 10.74-2.059 3.423-.001 6.29.284 10.665 1.057 1.082.191 2.018.348 2.081.348.092 0 .164-.35.363-1.749.359-2.531.423-3.405.325-4.419-.114-1.18-.262-1.742-.702-2.657-1.135-2.36-3.83-3.804-8.156-4.371-1.237-.162-4.093-.185-5.332-.042-2.077.238-3.236.542-5.82 1.527-1.512.576-1.519.577-2.122.541-1.037-.061-1.745-.539-2.199-1.482-.187-.388-.22-.549-.22-1.072 0-.786.202-1.203.903-1.87 1.571-1.494 4.216-2.767 6.886-3.314 1.71-.35 2.551-.423 4.803-.42 2.33.007 3.82.138 5.892.53 3.444.65 6.06 1.798 8.032 3.523.585.512 1.468 1.52 1.846 2.108.115.18.234.327.264.327s.221-.216.425-.48c2.987-3.868 8.016-6.058 13.91-6.055Zm-50.089 0c.997 0 1.776.358 2.336 1.075.592.717.888 1.553.888 2.509 0 .896-.265 1.672-.794 2.33-.53.626-1.293.94-2.29.94-4.205 0-7.076 1.045-9.412 3.136-2.25 2.04-3.45 4.749-3.503 8.126l-.001 22.507c0 1.285-.413 2.31-1.238 3.075A4.03 4.03 0 0 1 36.734 227c-1.09 0-2.019-.352-2.785-1.056-.736-.706-1.119-1.695-1.147-2.967l-.002-.154V186.33c0-1.285.398-2.295 1.193-3.03.825-.734 1.783-1.101 2.873-1.101 1.061 0 1.975.367 2.74 1.102.764.705 1.162 1.664 1.192 2.877l.002.152v5.631l.117-.39c.812-2.603 2.33-4.786 4.555-6.55 2.368-1.881 4.802-2.822 8.104-2.822ZM12.34 169.4c.982 0 1.83.318 2.546.953.743.663 1.114 1.55 1.114 2.662l-.001 9.184 8.801.001a2.4 2.4 0 0 1 2.394 2.236l.006.164a2.4 2.4 0 0 1-2.236 2.394L24.8 187l-8.801-.001.001 23.415.001.466c.01 2.144.097 3.855.258 5.135.202 1.4.39 2.786.909 3.515.547.759 1.167 1.316 1.859 1.52.629.212 1.484.328 2.566.347l.331.003h4.152a2.802 2.802 0 0 1 .262 5.58l-.167.015-.053.002V227h-5.75l-.411-.004c-3.668-.077-6.558-1.184-8.67-3.322-2.125-2.122-3.22-5.67-3.284-10.645L8 212.558l-.001-25.559L2.4 187a2.4 2.4 0 0 1-2.394-2.236L0 184.6a2.4 2.4 0 0 1 2.236-2.394l.164-.006 5.765-.001.635-9.184c0-1.165.345-2.066 1.034-2.701.69-.61 1.525-.914 2.506-.914Zm60.121 36.631c-2.978.171-4.192.437-5.98 1.312-.917.448-1.549.934-2.05 1.575-.717.92-1.15 1.834-1.452 3.066-.22.896-.242 3.243-.038 3.999.343 1.274.751 1.995 1.668 2.95 1.256 1.306 2.912 2.178 4.965 2.614 1.05.223 1.02.22 2.777.194 1.276-.02 1.753-.057 2.275-.175 2.216-.503 4.19-1.637 5.623-3.229 1.308-1.452 2.38-3.627 2.97-6.024.333-1.351.886-5.112.764-5.19-.049-.03-.341-.079-.65-.107a56.617 56.617 0 0 1-1.37-.161l-.392-.05a93.34 93.34 0 0 1-.193-.026c-4.556-.603-7.35-.838-8.917-.748Zm27.782-18.046c-1.622.305-2.994.86-4.203 1.702-2.234 1.556-3.776 3.9-4.635 7.049-.337 1.236-.427 1.71-.728 3.842l-.277 1.966.372.043c1.122.128 3.652.443 5.122.638.924.123 2.06.254 2.521.291 1.234.1 3.37.099 4.723.004l.32-.025c1.846-.167 2.98-.462 4.375-1.136 1.16-.561 1.834-1.135 2.472-2.102.938-1.425 1.304-2.774 1.295-4.777-.007-1.428-.125-2.022-.603-3.047-1.07-2.29-3.584-3.931-6.88-4.491-.823-.14-3.031-.115-3.874.043ZM161.64 163c1.422 0 2.571.393 3.446 1.178.875.76 1.313 1.774 1.313 3.041 0 1.242-.438 2.255-1.313 3.04-.875.761-2.037 1.141-3.487 1.141-1.45 0-2.612-.38-3.487-1.14-.875-.786-1.313-1.8-1.313-3.041 0-1.242.438-2.255 1.313-3.04.902-.786 2.078-1.179 3.528-1.179Z" fill="#000"/>
	</g>
</svg>
