<svg xmlns="http://www.w3.org/2000/svg" viewBox="-7.99 -7.99 415.74 95.74">
	<path d="M23.613.496a3.923 3.923 0 0 1 3.819 0l33.135 18.487a2.134 2.134 0 0 0 1.518.215c.724-.167 1.32-.25 1.794-.25 3.466 0 6.303 2.24 6.303 5.036 0 2.796-2.837 5.037-6.303 5.037-.505 0-1.14-.095-1.911-.284a2.134 2.134 0 0 0-1.546.208l-47.4 26.398a.802.802 0 0 0-.407.576l-.01.128c0 .327.18.63.468.79L43.62 73.883c.645.36 1.433.36 2.077 0l11.32-6.315a.9.9 0 0 0 0-1.576l-13.724-7.657a2.646 2.646 0 0 1 0-4.636l13.957-7.786a.626.626 0 0 0 .318-.447l.007-.104c0-2.796 2.837-5.037 6.303-5.037 3.466 0 6.303 2.241 6.303 5.037 0 1.719-1.072 3.227-2.702 4.135l-.168.09c-.99.514-2.17.812-3.433.812-.523 0-1.181-.102-1.978-.304a2.134 2.134 0 0 0-1.565.204l-8.837 4.93a.9.9 0 0 0 0 1.576l13.724 7.656a2.646 2.646 0 0 1 0 4.635L46.57 79.504a3.923 3.923 0 0 1-3.819 0L9.654 61.037a2.134 2.134 0 0 0-1.526-.213c-.736.173-1.343.26-1.825.26C2.837 61.084 0 58.843 0 56.047s2.837-5.037 6.303-5.037c.497 0 1.122.092 1.88.275.521.126 1.071.05 1.539-.21l47.47-26.44a.742.742 0 0 0 .376-.532l.008-.119a.959.959 0 0 0-.494-.836L26.561 6.118a2.134 2.134 0 0 0-2.077 0L13.17 12.431a.9.9 0 0 0 0 1.576l13.725 7.658a2.646 2.646 0 0 1 0 4.635l-13.952 7.786a.65.65 0 0 0-.33.464l-.007.107c0 2.796-2.837 5.037-6.303 5.037-1.625 0-3.111-.493-4.232-1.304l-.147-.11C.739 37.366 0 36.084 0 34.657c0-2.796 2.837-5.037 6.303-5.037.519 0 1.172.1 1.963.3a2.136 2.136 0 0 0 1.56-.206l8.862-4.943a.9.9 0 0 0 0-1.576L4.963 15.538a2.646 2.646 0 0 1 0-4.636Zm71.242 12.595c.892 0 1.663.289 2.314.867.675.602 1.013 1.408 1.013 2.42v8.349h8c1.152 0 2.096.894 2.176 2.026l.006.156a2.182 2.182 0 0 1-2.026 2.176l-.156.006h-8v21.285l.001.453c.01 1.936.089 3.482.235 4.64.183 1.273.353 2.532.825 3.195.498.69 1.062 1.196 1.69 1.381.567.191 1.334.296 2.304.315l.33.004h3.775a2.547 2.547 0 0 1 .263 5.07l-.165.015-.06.003v.003h-5.228l-.402-.005c-3.32-.074-5.938-1.08-7.853-3.02-1.928-1.924-2.923-5.141-2.985-9.65l-.003-.455V29.091h-5.09a2.182 2.182 0 0 1-2.177-2.026l-.006-.156c0-1.153.894-2.096 2.026-2.176l.156-.006h5.241l.577-8.35c0-1.06.314-1.878.94-2.455.627-.554 1.387-.831 2.279-.831ZM245.15 7.273c.965 0 1.795.322 2.491.966.672.597 1.032 1.403 1.08 2.418l.005.237V42.7l18.284-16.491c.59-.502 1.222-.753 1.893-.753.859 0 1.61.33 2.255.99.671.661 1.007 1.401 1.007 2.22 0 .679-.27 1.302-.812 1.87l-.155.152-14.619 12.884 15.989 16.571c.59.608.886 1.295.886 2.062 0 .846-.35 1.599-1.048 2.26-.67.66-1.45.99-2.335.99-.868 0-1.62-.315-2.26-.945l-.157-.164-18.928-19.822v17.27c0 1.126-.375 2.025-1.125 2.696-.723.644-1.58.966-2.571.966-.991 0-1.835-.309-2.532-.926-.646-.598-.993-1.427-1.04-2.488l-.004-.248v-50.9c0-1.126.361-2.012 1.084-2.655a3.889 3.889 0 0 1 2.612-.966Zm-14.545 17.454c.964 0 1.794.334 2.49 1.002.673.62 1.032 1.456 1.08 2.508l.006.246v33.174c0 1.168-.375 2.1-1.125 2.796a3.664 3.664 0 0 1-2.572 1.002c-.99 0-1.835-.32-2.531-.96-.647-.62-.993-1.48-1.04-2.58l-.005-.258V28.483c0-1.168.362-2.086 1.085-2.754a3.808 3.808 0 0 1 2.612-1.002Zm51.758-17.454c.467 0 .857.176 1.168.529.273.308.427.69.46 1.143l.008.2v54.438l-.007.199c-.034.454-.188.835-.46 1.144a1.495 1.495 0 0 1-1.17.529c-.519 0-.921-.163-1.207-.489-.254-.289-.395-.686-.423-1.19l-.006-.193V9.144l.006-.194c.028-.503.169-.9.423-1.189.286-.326.688-.488 1.208-.488Zm-61.529 0v.003l.06.002a2.546 2.546 0 0 1-.099 5.085h-3.774c-1.127 0-2.005.107-2.634.319-.629.186-1.192.692-1.69 1.381-.472.663-.642 1.923-.826 3.196-.146 1.157-.224 2.704-.234 4.639l-.002.453v2.376h6.546a2.182 2.182 0 1 1 0 4.364h-6.546v32.702c0 1.046-.323 1.896-.97 2.549l-.155.147c-.723.644-1.58.966-2.571.966-.991 0-1.835-.309-2.532-.926-.646-.598-.993-1.427-1.039-2.488l-.005-.248V29.09h-5.819a2.182 2.182 0 1 1 0-4.364h5.818v-4.325c0-4.748.997-8.116 2.988-10.106 1.916-1.938 4.533-2.944 7.854-3.019l.402-.004h5.228Zm86.762 17.454c8.874 0 13.372 4.702 13.491 14.105l.003.389v24.128l-.006.193c-.029.501-.175.896-.438 1.184-.297.324-.714.486-1.253.486-.539 0-.97-.176-1.293-.527a1.839 1.839 0 0 1-.477-1.138l-.008-.198v-5.667l-.191.387c-1.175 2.296-2.822 4.083-4.94 5.361-2.235 1.35-4.78 2.025-7.635 2.025-2.478 0-4.74-.513-6.787-1.539-2.047-1.025-3.677-2.415-4.889-4.17-1.212-1.754-1.845-3.71-1.898-5.87-.054-2.969.673-5.263 2.181-6.882 1.508-1.62 4.04-2.78 7.595-3.482 3.433-.678 8.196-1.028 14.29-1.051l.658-.002h1.616v-3.4l-.003-.422c-.054-3.616-.821-6.27-2.3-7.959-1.535-1.754-3.945-2.631-7.231-2.631-2.586 0-4.888.337-6.908 1.012-2.02.675-3.623 1.444-4.808 2.308-.216.162-.66.472-1.333.93-.674.46-1.226.69-1.657.69-.377 0-.713-.15-1.01-.446a1.488 1.488 0 0 1-.444-1.093c0-1.026.943-2.106 2.828-3.24a23.763 23.763 0 0 1 6.181-2.59 25.88 25.88 0 0 1 6.666-.89Zm-175.255 0c.906 0 1.614.326 2.124.978.538.651.807 1.411.807 2.28 0 .815-.241 1.52-.722 2.118-.482.57-1.176.855-2.082.855-3.823 0-6.432.95-8.556 2.85-2.053 1.863-3.144 4.336-3.186 7.423v20.426c0 1.168-.375 2.1-1.125 2.796a3.664 3.664 0 0 1-2.571 1.002c-.991 0-1.835-.32-2.532-.96-.67-.642-1.017-1.542-1.043-2.698l-.001-.14V28.483c0-1.168.361-2.086 1.084-2.754a3.808 3.808 0 0 1 2.612-1.002c.965 0 1.795.334 2.491 1.002.695.64 1.056 1.513 1.084 2.615l.001.14v5.121c.708-2.525 2.124-4.629 4.248-6.312 2.152-1.71 4.365-2.566 7.367-2.566Zm253.783 0c2.001 0 3.922.27 5.76.81 1.84.54 3.463 1.295 4.87 2.267 1.027.756 1.77 1.417 2.23 1.984.46.567.69 1.147.69 1.74 0 .379-.135.716-.405 1.013a1.27 1.27 0 0 1-.974.445c-.433 0-1.136-.405-2.11-1.214a22.694 22.694 0 0 0-4.422-2.672c-1.542-.702-3.475-1.053-5.802-1.053-3.029 0-5.477.715-7.343 2.146-1.866 1.43-2.8 3.306-2.8 5.627 0 1.403.298 2.55.893 3.441.595.89 1.61 1.66 3.043 2.308 1.434.648 3.476 1.268 6.126 1.862 3.733.918 6.6 1.849 8.601 2.793 2.002.945 3.422 2.079 4.26 3.401.839 1.323 1.258 3.01 1.258 5.06 0 3.24-1.339 5.844-4.017 7.814-2.677 1.97-6.234 2.956-10.67 2.956-2.11 0-4.22-.31-6.329-.932-2.11-.62-4.003-1.47-5.68-2.55-1.082-.702-1.812-1.282-2.19-1.74a2.41 2.41 0 0 1-.569-1.58c0-.378.136-.715.406-1.012a1.27 1.27 0 0 1 .974-.445c.27 0 .635.148 1.095.445.46.297.771.5.933.607a25.47 25.47 0 0 0 4.91 2.794c1.703.728 3.854 1.093 6.45 1.093 3.516 0 6.221-.648 8.114-1.943 1.894-1.296 2.84-3.131 2.84-5.506 0-1.404-.338-2.564-1.014-3.482-.676-.918-1.785-1.714-3.327-2.389-1.541-.674-3.746-1.336-6.613-1.983-4.76-1.08-8.168-2.456-10.224-4.13-2.055-1.673-3.083-3.886-3.083-6.64 0-3.346 1.312-6.072 3.935-8.177 2.624-2.105 6.018-3.158 10.184-3.158ZM330.076 7.273c.544 0 .966.162 1.265.487.266.288.413.684.443 1.186l.005.193v23.938l.184-.4c1.192-2.511 2.912-4.46 5.159-5.848 2.365-1.46 5.206-2.191 8.523-2.191 3.48 0 6.552.839 9.217 2.516 2.664 1.677 4.73 4.03 6.199 7.06 1.468 3.029 2.202 6.572 2.202 10.63 0 4.11-.734 7.722-2.202 10.832-1.469 3.111-3.535 5.518-6.2 7.222-2.664 1.705-5.736 2.557-9.216 2.557-3.317 0-6.158-.73-8.523-2.191-2.253-1.391-3.976-3.371-5.168-5.94l-.175-.39v6.41l-.004.183c-.054 1.123-.624 1.684-1.709 1.684-.543 0-.965-.162-1.264-.487-.266-.288-.413-.684-.443-1.186l-.005-.193V9.139l.004-.182c.054-1.123.624-1.684 1.708-1.684ZM177.878 24.727c3.789 0 7.31.977 9.936 2.75 2.082 1.406 3.774 3.572 4.457 5.707.393 1.227.452 1.68.456 3.46.002 1.109-.028 1.856-.089 2.202-.614 3.5-2.077 5.925-4.618 7.652-2.043 1.389-4.61 2.202-7.967 2.523-1.69.161-4.78.146-6.782-.034-1.7-.152-3.786-.421-4.676-.602-.745-.15-3.296-.584-3.317-.563-.01.01-.131.785-.27 1.724-.222 1.5-.254 1.873-.258 3.07v.588c.006.722.039.948.156 1.405.465 1.806 1.488 3.014 3.345 3.948 1.827.918 3.742 1.316 6.636 1.377 1.28.028 1.937.009 2.738-.078 1.943-.21 2.829-.439 5.41-1.404.643-.24 1.3-.459 1.458-.485.34-.058.977.061 1.347.252.669.346 1.23 1.266 1.227 2.01-.004.87-.293 1.398-1.14 2.083-2.026 1.639-4.613 2.644-7.701 2.992-1.101.124-3.615.142-4.83.035-3.42-.302-5.794-.896-7.964-1.994-1.693-.857-2.985-1.92-3.95-3.25a58.94 58.94 0 0 0-.447-.612c-.01-.01-.167.179-.35.42-.812 1.064-2.052 2.207-3.265 3.009-1.75 1.157-4.263 2.04-6.806 2.39-.758.105-3.274.191-3.92.135-4.456-.39-7.861-1.757-10.338-4.149-2.52-2.433-3.601-5.606-3.174-9.314.49-4.267 2.486-7.28 5.983-9.039 2.696-1.355 5.385-1.87 9.764-1.871 3.112-.002 5.72.257 9.696.96.983.175 1.834.317 1.891.317.084 0 .15-.318.33-1.59.326-2.301.385-3.095.296-4.017-.103-1.073-.239-1.584-.638-2.416-1.032-2.145-3.482-3.458-7.415-3.973-1.124-.148-3.72-.168-4.847-.039-1.888.217-2.942.493-5.291 1.388-1.375.524-1.381.525-1.93.493-.942-.056-1.585-.49-1.998-1.348-.17-.353-.2-.499-.2-.974 0-.715.183-1.094.82-1.7 1.43-1.359 3.834-2.516 6.26-3.013 1.555-.318 2.32-.385 4.367-.382 2.119.006 3.473.125 5.356.481 3.131.592 5.51 1.635 7.302 3.204.532.465 1.334 1.381 1.678 1.916.105.163.213.297.24.297.028 0 .202-.196.387-.436 2.715-3.517 7.287-5.508 12.645-5.505Zm139.94 20.728h-2.144c-5.38.016-9.505.244-12.372.685-2.974.457-5.056 1.236-6.245 2.337-1.19 1.102-1.784 2.728-1.784 4.877 0 2.472.919 4.5 2.757 6.086 1.838 1.586 4.163 2.378 6.975 2.378 2.433 0 4.622-.578 6.569-1.733 1.946-1.155 3.473-2.754 4.582-4.796 1.039-1.915 1.59-4.065 1.656-6.452l.006-.48v-2.902Zm27.555-17.819c-4.389 0-7.776 1.489-10.16 4.466-2.384 2.977-3.577 7.172-3.577 12.585 0 5.467 1.193 9.689 3.577 12.666 2.384 2.977 5.798 4.465 10.242 4.465 4.335 0 7.721-1.515 10.16-4.547 2.438-3.03 3.658-7.28 3.658-12.747 0-5.358-1.22-9.513-3.658-12.463-2.439-2.95-5.852-4.425-10.242-4.425ZM149.51 46.392c-2.707.155-3.811.397-5.437 1.193-.833.407-1.407.849-1.862 1.432-.653.836-1.047 1.667-1.321 2.787-.2.814-.22 2.948-.035 3.635.312 1.158.683 1.813 1.517 2.681 1.142 1.188 2.647 1.98 4.514 2.377.653.139.846.182 1.414.187h.293c.216-.001.48-.006.817-.01 1.16-.019 1.594-.052 2.068-.16 2.014-.457 3.81-1.487 5.112-2.934 1.189-1.32 2.164-3.298 2.7-5.477.115-.466.259-1.247.387-2.041l.068-.433c.175-1.147.3-2.205.24-2.244-.045-.028-.31-.072-.591-.098-.28-.026-1.08-.123-1.778-.215-4.141-.549-6.682-.762-8.106-.68Zm25.256-16.405c-1.475.277-2.721.781-3.82 1.547-2.032 1.414-3.433 3.546-4.214 6.408-.307 1.124-.388 1.555-.662 3.493l-.252 1.787.338.038a343.653 343.653 0 0 1 5.09.637l.441.055c.366.044.72.084 1 .113l.3.03.118.01c1.215.099 3.393.09 4.585-.019 1.677-.152 2.709-.42 3.977-1.033 1.054-.51 1.666-1.03 2.246-1.91.854-1.296 1.186-2.522 1.178-4.343-.006-1.298-.113-1.838-.549-2.77-.972-2.082-3.257-3.574-6.254-4.083-.748-.127-2.755-.104-3.522.04Zm55.817-22.714c1.293 0 2.337.357 3.133 1.07.795.692 1.193 1.613 1.193 2.765 0 1.129-.398 2.05-1.193 2.764-.796.692-1.853 1.037-3.17 1.037-1.318 0-2.375-.345-3.17-1.037-.796-.714-1.194-1.635-1.194-2.764 0-1.129.398-2.05 1.193-2.764.82-.714 1.89-1.071 3.208-1.071Z"/>
</svg>
