<svg xmlns="http://www.w3.org/2000/svg" width="200" height="128">
    <g fill="#ca3248">
        <path d="M32.019 60.827s-7.827 5.509-8.134 7.608l.588-.12s9.373-6.213 16.8-6.971l.168-.943zM44.307 60.039l-6.166 4.374.334.267c.251-.2 10.952-3.471 10.952-3.471l2.256-1.409c-1.514.183-7.376.239-7.376.239zM49.666 65.329c4.378 0 10.941-4.288 10.941-4.288l-2.121-.4c-.1.1-3.422-.117-3.422-.117l-1.574-.437-3.761 4.286-.306.743c.271-.116.243.213.243.213z"/>
    </g>
    <path d="M63.953 79l-1.353.38-6.249-.135-3.909-3.04-4.725 1.183-5.465-.473-3.061 3.344-5.742 1.715-2.867-.889-.145-.124 1.287 3.151s2.915 3.125 4.544 3.493 4.569-.026 6.775-.368 3.966-1.129 4.675-2.416a10.73 10.73 0 0 0 .814-1.655s2.1 2.968 3.913 3.31 7.2-1.5 7.2-1.5 3.283-.893 3.861-2.023 2.1-4.832 2.1-4.832zm-32.77 2.567l-.091-.042-.506-.437z" fill="#ca3248"/>
    <path d="M69.262 56.679a14.404 14.404 0 0 0-.053-.505 6.693 6.693 0 0 0-.054-.358 10.256 10.256 0 0 0-1.5-1.024 19.791 19.791 0 0 0-1.8-.921 34.408 34.408 0 0 0-1.877-.807q-.474-.193-.955-.372c-.319-.124-.642-.24-.965-.358a23.2 23.2 0 0 1 2.016.438c.434.112.865.238 1.293.371-3.047-7.962-10.331-13.148-18.284-13.148S31.846 45.181 28.8 53.143c.429-.133.86-.259 1.293-.371a23.222 23.222 0 0 1 2.017-.438c-.325.118-.646.234-.967.358s-.637.243-.955.372c-.633.255-1.262.517-1.876.807a19.9 19.9 0 0 0-1.8.921 10.385 10.385 0 0 0-1.5 1.024 9.611 9.611 0 0 0-.105.863c-.03.34-.042.68-.045 1.022a15 15 0 0 0 .527 4.04c.091.326.193.647.312.958.06.155.125.308.192.457.034.074.069.147.1.217l.043.083.153.075.3.145c.169.077.4.188.6.274l.031-.028-.563-2.142c.12-.032 1.187-.308 3.027-.658a6.236 6.236 0 0 1-.446-.1 9.191 9.191 0 0 1-1.232-.393 5.552 5.552 0 0 1-.581-.281 1.993 1.993 0 0 1-.512-.389c2.021.659 6.2.361 9.911-.023a101.644 101.644 0 0 1 10.22-.584 101.63 101.63 0 0 1 10.221.584c3.714.384 7.891.682 9.912.023a1.976 1.976 0 0 1-.512.389 5.457 5.457 0 0 1-.581.281 9.145 9.145 0 0 1-1.232.393 6.275 6.275 0 0 1-.187.042c2.017.375 3.192.679 3.317.712l-.537 2.041c.108-.049.217-.1.324-.145l.3-.145.153-.075.042-.083a7.189 7.189 0 0 0 .297-.674c.119-.311.222-.632.313-.958a15 15 0 0 0 .527-4.04 11.975 11.975 0 0 0-.039-1.018z" fill="#f3ecad"/>
    <path d="M49.378 85c-.268.04-.535.074-.8.094-.172.008-.353.026-.518.026H48c.207-.462.364-.82.483-1.091.24.271.548.607.895.971zM49.96 85.591a4.689 4.689 0 0 0 2.994 1.378 16.534 16.534 0 0 1-5.08 1.165 12.505 12.505 0 0 1-4.144-.446c.115-.02.2-.035.3-.047a5.7 5.7 0 0 0 3.674-1.98h.371c.184 0 .351-.015.527-.022a10.915 10.915 0 0 0 1.227-.176z" fill="#e5cbac"/>
    <path d="M52.315 60.952c-.079.1-.169.219-.263.338a21.981 21.981 0 0 1-1.961 2.17q-1.4-.044-2.869-.045c-1.625 0-3.183.043-4.663.115a37.176 37.176 0 0 1 7.323-2.224 28.83 28.83 0 0 1 2.433-.354zM40.079 61.888a18.735 18.735 0 0 0-2.406 2.005c-2.094.21-3.919.464-5.426.707a41.2 41.2 0 0 1 7.832-2.712zM65.651 66.209l-.851 5.957-4.078 2.856-10.636-1.209-1.6-5.273a.348.348 0 0 0-.279-.244 5.622 5.622 0 0 0-2.069 0 .35.35 0 0 0-.278.244l-1.56 5.144-10.58 2.354-4.191-2.938-.829-6.682c.18-.1.363-.2.547-.3q.39-.084.875-.177l.778 6.307a.35.35 0 0 0 .147.243l2.884 2.02a.359.359 0 0 0 .277.054l8.7-1.935a.368.368 0 0 0 .086-.031.35.35 0 0 0 .172-.208l1.566-5.156a10.851 10.851 0 0 1 2.442-.359 10.868 10.868 0 0 1 2.44.359l1.566 5.156a.349.349 0 0 0 .3.246l8.7.988a.355.355 0 0 0 .239-.061l2.881-2.023a.355.355 0 0 0 .145-.238l.77-5.388c.573.111 1.057.212 1.436.294zM66.726 62.474l-.749 2.84a81.882 81.882 0 0 0-9.472-1.446 23.09 23.09 0 0 0 4.41-2.438c2.724.385 4.724.798 5.811 1.044z" fill="#656b67"/>
    <g fill="#e4c9a1">
        <path d="M36.059 71.359a4.828 4.828 0 0 1 2.312-.272h.35l.316-.006c1.081-.01 1.979.092 1.964-1.605s-.771-3.068-1.85-3.057-2.127 1.4-2.062 3.095a2.688 2.688 0 0 0 .186.991 1.707 1.707 0 0 0-1.216.854zm13-6.98a11.749 11.749 0 0 1-1.321.933l-1.533.926a13.087 13.087 0 0 0-1.845.369.312.312 0 0 0-.079.035.352.352 0 0 0-.158.2l-1.562 5.146-8.348 1.857L31.579 72l-.765-6.2a85.11 85.11 0 0 1 5.889-.861c-.258.308-.507.631-.744.97l-1.428 2.05 2.08-1.386a34.056 34.056 0 0 1 3.521-1.953 94.941 94.941 0 0 1 7.09-.266q.933.007 1.832.025zM58.194 70.663c-.01-.04-.238-.723-1.243-.6A2.126 2.126 0 0 0 57.082 69c-.132-1.693-1.117-3.039-2.2-3s-1.771 1.442-1.712 3.139.966 1.684 2.046 1.646c1.454-.027 2.251-.473 2.978-.122zm5.328-4.876l-.753 5.268-2.651 1.856-8.336-.947-1.556-5.122a.353.353 0 0 0-.238-.235 12.734 12.734 0 0 0-2.178-.4l.2-.014a33.057 33.057 0 0 0 6.482-1.548 88.746 88.746 0 0 1 9.03 1.142z"/>
    </g>
    <g fill="#c6b298">
        <path d="M36.059 71.359a4.828 4.828 0 0 1 2.312-.272h.35l.316-.006c1.081-.01 1.979.092 1.964-1.605s-.771-3.068-1.85-3.057-2.127 1.4-2.062 3.095a2.688 2.688 0 0 0 .186.991 1.707 1.707 0 0 0-1.216.854zm13-6.98a11.749 11.749 0 0 1-1.321.933l-1.533.926a13.087 13.087 0 0 0-1.845.369.312.312 0 0 0-.079.035.352.352 0 0 0-.158.2l-1.562 5.146-8.348 1.857L31.579 72l-.765-6.2a85.11 85.11 0 0 1 5.889-.861c-.258.308-.507.631-.744.97l-1.428 2.05 2.08-1.386a34.056 34.056 0 0 1 3.521-1.953 94.941 94.941 0 0 1 7.09-.266q.933.007 1.832.025zM58.194 70.663c-.01-.04-.238-.723-1.243-.6A2.126 2.126 0 0 0 57.082 69c-.132-1.693-1.117-3.039-2.2-3s-1.771 1.442-1.712 3.139.966 1.684 2.046 1.646c1.454-.027 2.251-.473 2.978-.122zm5.328-4.876l-.753 5.268-2.651 1.856-8.336-.947-1.556-5.122a.353.353 0 0 0-.238-.235 12.734 12.734 0 0 0-2.178-.4l.2-.014a33.057 33.057 0 0 0 6.482-1.548 88.746 88.746 0 0 1 9.03 1.142z"/>
    </g>
    <path d="M67.161 68.1c.128.105.229.378.115 1.65a14.706 14.706 0 0 1-1.2 4.729 6.142 6.142 0 0 1-1.957-.15c.1-.392.127-.58.207-.981l1-.7a.349.349 0 0 0 .146-.236l.7-4.9a9.606 9.606 0 0 1 .989.588zM30.3 74.5c.05.177.1.354.157.528a6.43 6.43 0 0 1-2.13.223 15.142 15.142 0 0 1-1.344-4.774c-.137-1.225-.041-1.49.083-1.593a11.208 11.208 0 0 1 1.154-.684l.633 5.144a.341.341 0 0 0 .148.243zM50.525 74.567l-.038.328a5.858 5.858 0 0 1-3.008 1.305 4.875 4.875 0 0 1-3.313-.9 2 2 0 0 0 .568 1.028 13.41 13.41 0 0 0-1.588-.1c-.2 0-.407.006-.6.015-1.142.06-2.748 1.786-3.878 3.526-.554.175-2.286.725-4.291 1.317a22.767 22.767 0 0 1-2.885-5.517c-.037-.106-.075-.211-.111-.32l.482.337 1.189.833.4.277a.346.346 0 0 0 .2.063.336.336 0 0 0 .077-.008l10.926-2.432a.351.351 0 0 0 .258-.239l1.558-5.129a4.5 4.5 0 0 1 1.416 0l1.6 5.281a.348.348 0 0 0 .3.246z" fill="#e5cbac"/>
    <path d="M63 74.283l.352-.248c-.058.245-.122.488-.188.729a25.134 25.134 0 0 1-1.712 4.19c-.142.01-.292.015-.452.015-.5 0-1-.042-1.564-.093-.973-.09-2.517-.266-3.005-.323a736.92 736.92 0 0 0-3.054-2.419l-.127-.106a1.292 1.292 0 0 0-.935-.38 11.044 11.044 0 0 0-2.638.631 1.888 1.888 0 0 0 .813-1.384l.038-.328 10.25 1.164a.353.353 0 0 0 .24-.06l1.03-.722z" fill="#e5cbac"/>
    <path d="M55.453 52.718a14.463 14.463 0 0 1-.417 4.111.346.346 0 0 0 0 .178q-.81-.085-1.621-.149a8.861 8.861 0 0 0 .768-3.1 14.422 14.422 0 0 0 1.27-1.04zM39.987 53.756a8.843 8.843 0 0 0 .766 3.1c-.54.043-1.081.093-1.62.15a.335.335 0 0 0 0-.175 14.517 14.517 0 0 1-.416-4.111 14.134 14.134 0 0 0 1.27 1.036z" fill="#ead498"/>
    <path d="M58.194 70.663c-.727-.351-1.524.095-2.975.122-1.08.038-1.986.05-2.046-1.646s.633-3.1 1.712-3.139 2.065 1.308 2.2 3a2.126 2.126 0 0 1-.131 1.059c1.002-.119 1.23.564 1.24.604zM54.8 68.178a.552.552 0 1 0-.562-.542.554.554 0 0 0 .562.542z" fill="#2c3035"/>
    <path d="M55.343 67.616a.552.552 0 1 1-.562-.542.554.554 0 0 1 .562.542z" fill="#ecf5f9"/>
    <path d="M41 69.475c.015 1.7-.883 1.595-1.964 1.605l-.316.006h-.35a4.828 4.828 0 0 0-2.312.272 1.707 1.707 0 0 1 1.216-.855 2.688 2.688 0 0 1-.186-.991c-.065-1.7.981-3.086 2.062-3.095s1.834 1.361 1.85 3.058zm-1.669-.887a.552.552 0 1 0-.568-.538.552.552 0 0 0 .569.538z" fill="#2c3035"/>
    <path d="M39.868 68.021a.552.552 0 1 1-.566-.537.552.552 0 0 1 .566.537z" fill="#ecf5f9"/>
    <g opacity=".8" fill="#ead498">
        <path d="M32.751 57.955a15.1 15.1 0 0 1 .511-3.025c.177-.431 1.257-.706 2.082-.9s2.14-.589 2.4.57a6.818 6.818 0 0 0 .942 2.376l-.357-4.776-5.676 1.374-.373 4.226.177.334.294-.177M61.469 57.955a15.076 15.076 0 0 0-.51-3.025c-.177-.431-1.257-.706-2.081-.9s-2.141-.589-2.4.57a6.818 6.818 0 0 1-.942 2.376l.353-4.772 5.676 1.374.373 4.223-.177.334-.3-.177"/>
    </g>
    <path d="M53.448 43.673s-.148 11.442-2.824 11.442h-6.949c-2.673 0-2.889-11.438-2.889-11.438l-1.313 3.884.021 5.328.932.742.424 2.288.593 1.335 11.441.021.53-.954.445-1.61.063-1.017 1.264-3.607zM61.865 54.342s.551 3.947 2.006 4.659l-2.038-.614zM32.3 54.342s-.547 3.947-2 4.658l2.038-.614z" fill="#ead498" opacity=".75"/>
    <path d="M62.257 58.369a10.269 10.269 0 0 1 2.022.836 7.9 7.9 0 0 0-1.038-.316c-.35-.09-.7-.165-1.057-.233-.709-.133-1.421-.247-2.137-.333s-1.431-.172-2.15-.233-1.436-.121-2.157-.163c-2.879-.177-5.766-.222-8.655-.225s-5.776.056-8.656.226a70.558 70.558 0 0 0-4.306.396c-.713.095-1.428.2-2.138.334q-.531.1-1.058.231a7.937 7.937 0 0 0-1.037.316 10.312 10.312 0 0 1 2.022-.838l.177-.054c0-.015-.008-.028-.011-.044a16.928 16.928 0 0 1 .179-4.691.336.336 0 0 1 .242-.27l.733-.209c.16-5.691 2.5-8.368 2.577-8.451a15.645 15.645 0 0 0-2.039 8.3l4.56-1.3h.011a.372.372 0 0 1 .057-.008h.019a.333.333 0 0 1 .075.007h.013a.337.337 0 0 1 .056.019l.022.012c.015.008.03.018.045.028l.012.009.008.008.013.011s.125.124.318.3a18.848 18.848 0 0 1 2.078-9.386 26.391 26.391 0 0 0-1.11 10.225c.182.146.374.289.56.414a.338.338 0 0 1 .147.275 8.233 8.233 0 0 0 .792 3.166.387.387 0 0 1 .026.067c1.869-.127 3.743-.178 5.613-.18s3.743.056 5.611.184a.383.383 0 0 1 .027-.071 8.16 8.16 0 0 0 .791-3.166.345.345 0 0 1 .148-.275c.187-.125.376-.268.56-.414a26.369 26.369 0 0 0-1.11-10.225 18.862 18.862 0 0 1 2.079 9.386c.191-.18.313-.3.317-.3l.013-.011.009-.008.012-.009.044-.029.021-.011a.456.456 0 0 1 .059-.02h.012a.318.318 0 0 1 .075-.007h.017a.385.385 0 0 1 .058.008h.011l4.56 1.3a15.631 15.631 0 0 0-2.038-8.3c.072.083 2.417 2.76 2.575 8.451l.735.209a.34.34 0 0 1 .242.27 16.948 16.948 0 0 1 .178 4.691.3.3 0 0 1-.011.045c.06.019.12.036.177.056zm-.829-.244a16.8 16.8 0 0 0-.149-4.226l-5.162-1.468a15.263 15.263 0 0 1-.429 4.578.4.4 0 0 1-.026.065l.153.016a43.387 43.387 0 0 1 4.324.712c.431.098.861.207 1.289.323zm-6.392-1.3a14.463 14.463 0 0 0 .417-4.111 14.422 14.422 0 0 1-1.27 1.038 8.861 8.861 0 0 1-.768 3.1q.81.065 1.621.149a.346.346 0 0 1 0-.172zm-14.283.025a8.843 8.843 0 0 1-.766-3.1 14.134 14.134 0 0 1-1.27-1.038 14.517 14.517 0 0 0 .416 4.111.335.335 0 0 1 0 .175c.539-.051 1.08-.098 1.62-.144zm-2.247.217a.348.348 0 0 1-.024-.062 15.278 15.278 0 0 1-.431-4.578l-5.16 1.473a16.8 16.8 0 0 0-.151 4.225q.643-.174 1.291-.323c.713-.158 1.432-.29 2.152-.412s1.446-.212 2.17-.3c.052-.008.102-.012.153-.019z" fill="#2c3035"/>
    <path d="M52.524 43.822v4.283h-3.036v-1.251H48.8v5.781h1.033v3.232h-5.31v-3.232h1.03v-5.781h-.682v1.251h-3.03v-4.283zm-.912 3.378v-2.467h-8.861V47.2h1.211v-1.256h2.507v7.6h-1.032v1.41h3.488v-1.41h-1.031v-7.6H50.4V47.2z" fill="#2c3035"/>
    <path fill="#ca3248" d="M51.612 44.733v2.462H50.4v-1.251h-2.506v7.603h1.031v1.41h-3.488v-1.41h1.032v-7.603h-2.507v1.251h-1.211v-2.462h8.861z"/>
    <path d="M27.721 62.474c.443-.1 1.041-.229 1.774-.37-.451.307-.984.692-1.565 1.156z" fill="#656b67"/>
    <path d="M43.925 74.211s.124.8-.99 1.137-8.171 2.444-8.976 2.33a12.334 12.334 0 0 1-2.848-1.478l-.5-1.761 3.023 1.884zM50.247 74.057s-.089.8 1.039 1.093 8.27 2.087 9.069 1.938a12.374 12.374 0 0 0 2.78-1.6l.418-1.782-2.778 1.657z" fill="#c6b298"/>
    <path d="M27.147 72.746s.978 1.956 2.557 1.279l1.129.414-.113.827-2.37.3-.639-.376zM67.179 72.209S65.58 74.251 64 73.574l-.508.327.113.828 2.369.3.639-.377zM42.458 87.575a13.346 13.346 0 0 0 12.353-1.054l-2.111-.144s-4.6 1.82-8.235.814z" fill="#c6b298"/>
    <path d="M48.331 82.193l.4.477c.009.012.9 1.072 1.989 2.152a3.58 3.58 0 0 0 2.6 1.081 4.545 4.545 0 0 0 1.066-.132c.337-.082.7-.169 1.078-.259 1.354-.324 2.888-.692 3.632-.9.147-.042.312-.079.484-.119a4.008 4.008 0 0 0 3.066-1.984c.541-1.081 1.27-2.484 1.81-3.512-.468.216-.96.45-1.309.634A4.6 4.6 0 0 1 61 80.05c-.542 0-1.073-.045-1.662-.1a163.218 163.218 0 0 1-3.186-.346L56 79.591l-.12-.1c-.018-.013-1.762-1.4-3.171-2.51l-.156-.129c-.148-.127-.148-.127-.237-.127a31.8 31.8 0 0 0-4.644 1.3l-.177.056-.173-.065a13.325 13.325 0 0 0-4.171-.707c-.185 0-.37 0-.55.014-.227.011-1.5.616-3.126 3.189l-.1.166-.186.059c-.027.01-2.827.913-5.8 1.763l-.192.054-.183-.085c-.019-.007-1.181-.546-2.286-1.054.6.89 1.374 2 2.052 2.873a6.5 6.5 0 0 0 5.543 2.936 10.206 10.206 0 0 0 1.132-.066c2.913-.33 3.664-.462 4.067-.533.137-.023.245-.043.383-.06.022 0 2.408-.311 3.077-1.813.691-1.543.83-1.91.835-1.924l.244-.65a.616.616 0 0 1 .079-.22 1.208 1.208 0 0 1 .191.235zm-18.143-29.13c-.633.255-1.262.519-1.877.808s-1.222.583-1.8.92a10.451 10.451 0 0 0-1.5 1.025c-.02.115-.038.24-.054.358-.019.168-.039.336-.052.506-.03.338-.042.679-.045 1.021a15.018 15.018 0 0 0 .527 4.041c.091.325.193.647.313.957.058.156.123.308.191.457.034.074.069.147.1.217l.043.082c.051.027.1.052.152.076l.3.144c.169.079.4.189.595.275a.289.289 0 0 0 .031-.028l-.561-2.141c.119-.033 1.187-.309 3.027-.659-.149-.028-.3-.06-.447-.095a9.2 9.2 0 0 1-1.232-.394 5.552 5.552 0 0 1-.581-.281 1.993 1.993 0 0 1-.512-.389c2.021.66 6.2.36 9.911-.022a101.645 101.645 0 0 1 10.22-.585 101.611 101.611 0 0 1 10.22.585c3.715.382 7.892.682 9.913.022a1.976 1.976 0 0 1-.512.389 5.634 5.634 0 0 1-.58.281 9.222 9.222 0 0 1-1.234.394l-.186.041c2.017.374 3.192.679 3.317.713l-.538 2.039c.108-.048.218-.095.324-.145l.3-.144.152-.076.042-.082a7.828 7.828 0 0 0 .298-.674c.119-.31.221-.632.311-.957a14.523 14.523 0 0 0 .4-2 14.792 14.792 0 0 0 .127-2.04 12.374 12.374 0 0 0-.098-1.527 8.107 8.107 0 0 0-.053-.358 10.406 10.406 0 0 0-1.5-1.025 20.042 20.042 0 0 0-1.8-.92 35.541 35.541 0 0 0-1.876-.808c-.317-.127-.636-.253-.957-.371s-.642-.241-.964-.358c.678.112 1.35.267 2.015.437.434.113.867.239 1.294.373-3.03-7.965-10.314-13.15-18.267-13.15S31.847 45.18 28.8 53.144c.428-.134.859-.26 1.292-.373.666-.17 1.338-.325 2.017-.437-.325.117-.646.234-.967.358s-.637.244-.954.371zm40.1 4.608a13.438 13.438 0 0 1-.065 2.2 13.906 13.906 0 0 1-.407 2.164c-.1.356-.216.707-.353 1.056a9.076 9.076 0 0 1-.224.521c-.04.086-.083.171-.132.258l-.067.13a1.892 1.892 0 0 1-.088.144l-.074.115-.116.06a7.828 7.828 0 0 1-.337.164l-.327.147c-.219.094-.438.182-.659.268-.153.06-.289.115-.418.17l-.363 1.38-.323-.079-.02.144a12.332 12.332 0 0 1 1.458.856c.54.447.578 1.154.458 2.476a23.389 23.389 0 0 1-.6 3.211c-.539 2.087-.826 2.332-1.2 2.427a3.245 3.245 0 0 1-.756.1 9.106 9.106 0 0 1-1.869-.111 19.983 19.983 0 0 1-1.275 3.261c.038-.019.076-.034.11-.052.935-.491 2.732-1.274 2.807-1.308l1.42-.617-.727 1.367a256.43 256.43 0 0 0-2.53 4.876 5.044 5.044 0 0 1-3.79 2.554c-.16.038-.312.073-.436.107-.763.215-2.309.583-3.672.911l-.05.011a16.179 16.179 0 0 1-2.756 1.361 15.659 15.659 0 0 1-11.029.023c-.569.073-1.316.163-2.312.276a11.437 11.437 0 0 1-1.254.073 7.565 7.565 0 0 1-6.4-3.353c-1.382-1.777-3.072-4.414-3.144-4.524L27.8 78.9l1.656.744c.793.357 3.151 1.449 3.825 1.761l.162-.047a20.285 20.285 0 0 1-2.691-5.442 8.037 8.037 0 0 1-2.064.3 2.8 2.8 0 0 1-.625-.058c-.37-.084-.792-.441-1.366-2.464a22.365 22.365 0 0 1-.655-3.116c-.143-1.288-.117-1.978.418-2.423a14.416 14.416 0 0 1 1.637-.959l-.048-.4a40.664 40.664 0 0 0-5.574 3.865L20 72.833l1.762-2.779A27.129 27.129 0 0 1 26.25 64.7c-.062-.024-.119-.049-.179-.074l-.327-.147a8.445 8.445 0 0 1-.337-.164l-.116-.06-.074-.115c-.042-.062-.06-.1-.087-.144l-.073-.129a6.968 6.968 0 0 1-.354-.779 11.38 11.38 0 0 1-.354-1.056 14.087 14.087 0 0 1-.472-4.361 12.86 12.86 0 0 1 .195-1.645c.036-.181.074-.357.13-.559l.039-.142.1-.079a9.639 9.639 0 0 1 1.832-1.1 19.674 19.674 0 0 1 1.588-.658A22.648 22.648 0 0 1 35.207 43.1a19.434 19.434 0 0 1 23.755 0 22.641 22.641 0 0 1 7.443 10.391c.537.2 1.067.412 1.589.659a9.639 9.639 0 0 1 1.832 1.1l.1.079.039.142c.057.2.094.374.13.559s.065.363.09.545c.053.364.089.73.107 1.096zm-3.013 12.082c.115-1.271.015-1.544-.114-1.649a9.488 9.488 0 0 0-.99-.585l-.7 4.9a.351.351 0 0 1-.146.237l-1 .7c-.079.4-.107.59-.2.982a6.165 6.165 0 0 0 1.956.15 14.643 14.643 0 0 0 1.194-4.735zm-1.3-4.439l.749-2.84a73.24 73.24 0 0 0-5.811-1.044 23.09 23.09 0 0 1-4.41 2.438 81.882 81.882 0 0 1 9.474 1.446zM64.8 72.165l.852-5.956a61.904 61.904 0 0 0-1.442-.294l-.77 5.385a.355.355 0 0 1-.145.237L60.41 73.56a.354.354 0 0 1-.239.061l-8.7-.988a.349.349 0 0 1-.3-.245l-1.567-5.157a10.828 10.828 0 0 0-2.439-.36 10.84 10.84 0 0 0-2.442.36l-1.566 5.157a.346.346 0 0 1-.258.238l-8.7 1.935a.336.336 0 0 1-.077.008.343.343 0 0 1-.2-.063l-2.872-2.019a.348.348 0 0 1-.147-.244l-.778-6.307c-.323.063-.614.123-.875.177q-.277.153-.547.305l.826 6.683 4.192 2.937L44.3 73.685l1.561-5.144a.349.349 0 0 1 .279-.245 5.617 5.617 0 0 1 2.068 0 .346.346 0 0 1 .279.245l1.6 5.271 10.636 1.21zm-2.03-1.109l.753-5.27a89 89 0 0 0-9.03-1.146 33.017 33.017 0 0 1-6.481 1.549l-.2.014a12.625 12.625 0 0 1 2.178.4.353.353 0 0 1 .238.234l1.556 5.123 8.336.947zm.58 2.979l-.35.247-.951.667-1.03.722a.359.359 0 0 1-.24.061l-10.25-1.165-.746-.085a.348.348 0 0 1-.294-.246l-1.6-5.282a4.578 4.578 0 0 0-1.415 0l-1.558 5.129a.346.346 0 0 1-.258.238l-10.935 2.433a.352.352 0 0 1-.277-.056l-.4-.276-1.186-.832-.481-.336c.034.109.073.214.111.32a22.747 22.747 0 0 0 2.884 5.516c2-.591 3.738-1.141 4.291-1.316 1.129-1.74 2.736-3.466 3.878-3.526.2-.009.4-.015.6-.015a13.42 13.42 0 0 1 1.587.1 1.994 1.994 0 0 1-.568-1.028 4.876 4.876 0 0 0 3.313.9 5.86 5.86 0 0 0 3.008-1.31 1.889 1.889 0 0 1-.814 1.385 11.138 11.138 0 0 1 2.639-.632 1.287 1.287 0 0 1 .935.382l.127.105c1.2.942 2.634 2.084 3.055 2.419.487.057 2.031.233 3 .323.561.05 1.068.093 1.564.093.16 0 .31-.006.452-.015a25.278 25.278 0 0 0 1.712-4.189c.074-.243.139-.486.196-.731zm-3.783-12.978h-.008q-1.234-.091-2.472-.164-1.719-.1-3.438-.168c-.066.1-.2.294-.4.56a21.687 21.687 0 0 1-3.447 3.7 24.736 24.736 0 0 0 9.51-3.749c.088-.058.172-.121.255-.179zm-7.515.233c.094-.119.183-.233.262-.337-.825.083-1.638.2-2.432.354a37.089 37.089 0 0 0-7.323 2.223 95.994 95.994 0 0 1 7.532-.071 21.745 21.745 0 0 0 1.961-2.169zm.9 25.679a4.683 4.683 0 0 1-2.994-1.377l-.126-.129a11.487 11.487 0 0 1-1.228.177c-.176.006-.343.022-.526.022h-.373a5.7 5.7 0 0 1-3.674 1.979c-.1.012-.184.026-.3.047a12.5 12.5 0 0 0 4.144.445 16.506 16.506 0 0 0 5.079-1.164zm-4.377-1.876c.266-.021.532-.055.8-.095-.348-.362-.655-.7-.9-.971-.119.273-.276.631-.483 1.092h.061c.171 0 .352-.019.524-.026zm-.844-19.78a12.117 12.117 0 0 0 1.321-.934 92.848 92.848 0 0 0-8.922.248 33.6 33.6 0 0 0-3.521 1.953l-2.08 1.387 1.428-2.05c.236-.34.486-.663.744-.97-2.4.268-4.4.585-5.889.86l.764 6.2 2.63 1.842 8.347-1.856 1.563-5.148a.349.349 0 0 1 .158-.2.268.268 0 0 1 .079-.035 13.421 13.421 0 0 1 1.845-.369zm.96-4.727q-.871-.014-1.744-.015-1.28 0-2.563.027l-1.577.748-.022.012a18.519 18.519 0 0 0-4.256 3.023 43.539 43.539 0 0 1 7.333-3.047 36.164 36.164 0 0 1 2.831-.748zm-11.019 3.307a18.625 18.625 0 0 1 2.406-2 41.067 41.067 0 0 0-7.83 2.711 84.882 84.882 0 0 1 5.424-.711zm.543-2.5c.962-.27 1.955-.505 2.971-.7q-2.187.08-4.375.2c-.847.047-1.689.1-2.532.168a37.245 37.245 0 0 0-1.616.152 35.307 35.307 0 0 0-8.208 6.764 46.921 46.921 0 0 1 13.76-6.587zm-7.76 13.633a17.91 17.91 0 0 1-.157-.528L29 73.586a.35.35 0 0 1-.147-.244L28.22 68.2a11.055 11.055 0 0 0-1.155.681c-.125.1-.22.368-.085 1.593a15.182 15.182 0 0 0 1.345 4.774 6.407 6.407 0 0 0 2.13-.225zM29.5 62.1c-.733.141-1.331.269-1.774.37l.209.786A27.705 27.705 0 0 1 29.5 62.1z" fill="#2c3035"/>
    <g fill="#2c3035">
        <path d="M84.223 57.744h-5.854v-3.035h15.269v3.035h-5.823v17.22h-3.592zM93.316 59.757h2.943l.247 2.7h.124c1.084-1.982 2.7-3.066 4.305-3.066a3.865 3.865 0 0 1 1.735.309l-.62 3.1a4.965 4.965 0 0 0-1.58-.247c-1.207 0-2.663.836-3.592 3.128v9.291h-3.562zM112.394 65.239c-.03-1.61-.712-2.973-2.756-2.973a8.453 8.453 0 0 0-4.274 1.487l-1.3-2.385a11.789 11.789 0 0 1 6.225-1.982c3.81 0 5.668 2.322 5.668 6.565v9.013h-2.911l-.279-1.672h-.093a7.4 7.4 0 0 1-4.707 2.044 4.276 4.276 0 0 1-4.522-4.46c-.001-3.252 2.724-4.955 8.949-5.637zm-3.313 7.309a4.773 4.773 0 0 0 3.313-1.672v-3.407c-4.119.527-5.481 1.611-5.481 3.128 0 1.363.898 1.951 2.168 1.951zM116.975 59.757h3.625l2.416 7.9c.4 1.487.867 3.035 1.27 4.584h.124c.433-1.549.867-3.1 1.3-4.584l2.415-7.9h3.438l-5.172 15.207h-4.119zM132.9 55.081a2.208 2.208 0 1 1 2.2 2.013 2.045 2.045 0 0 1-2.2-2.013zm.4 4.676h3.561v15.207H133.3zM140.576 70.938a6.768 6.768 0 0 0 4.212 1.7c1.642 0 2.416-.774 2.416-1.827 0-1.27-1.642-1.827-3.252-2.447-2.013-.743-4.274-1.889-4.274-4.428 0-2.664 2.137-4.553 5.544-4.553a8.21 8.21 0 0 1 5.048 1.827l-1.641 2.168a5.664 5.664 0 0 0-3.345-1.3c-1.518 0-2.23.712-2.23 1.673 0 1.176 1.517 1.672 3.159 2.26 2.075.775 4.367 1.766 4.367 4.615 0 2.6-2.076 4.708-5.916 4.708a9.627 9.627 0 0 1-5.76-2.106zM168.048 54.337a7.934 7.934 0 0 1 5.761 2.571l-1.983 2.23a5.158 5.158 0 0 0-3.747-1.673c-3.314 0-5.7 2.788-5.7 7.341 0 4.614 2.2 7.4 5.575 7.4a5.488 5.488 0 0 0 4.274-2.013l1.982 2.2a8.089 8.089 0 0 1-6.318 2.942c-5.141 0-9.2-3.717-9.2-10.438.002-6.626 4.152-10.56 9.356-10.56zM176.407 54.709H180v20.255h-3.593z"/>
    </g>
</svg>
