<svg id="Layer_1" data-name="Layer 1" xmlns="http://www.w3.org/2000/svg" viewBox="0 0 462.536 623.899">
	<defs>
		<style>
			.cls-2{fill:#3953a4}
		</style>
	</defs>
	<path d="m60.96 348.888-2.005-2.166-1.966-2.207-3.77-4.572-3.73-4.653-3.851-4.573-.923-1.083-.842-1.123-.722-1.123-.682-1.163-.522-1.164-.481-1.203-.361-1.203-.24-1.204-.161-1.203-.04-1.243.08-1.244.2-1.203.321-1.244.442-1.243.561-1.203.682-1.244.883-1.243.882-1.043.923-.883 1.002-.682 1.003-.521 1.043-.361 1.083-.2 1.083-.08h1.123l1.163.16 1.164.24 1.163.361 2.407.923 2.487 1.123 11.592 5.295 11.752 4.251 11.793 3.13 5.937 1.122 5.976.803 6.017.521 6.017.16 6.057-.12 6.096-.481 6.137-.843 6.137-1.163 6.178-1.524 6.217-1.885 5.896-2.206 5.616-2.568 5.335-2.968 5.054-3.41 4.813-3.85 4.493-4.292 4.211-4.773 3.931-5.335 1.484-2.086 1.484-1.805 1.485-1.524 1.484-1.203 1.444-.963 1.444-.682.722-.2.722-.16.722-.081.722-.04.682.04.722.12.722.2.681.282 1.445.722 1.403 1.042 1.404 1.284 1.364 1.564 1.404 1.845 1.404 2.166 5.335 8.263 5.615 7.782 5.897 7.3 6.177 6.78 6.418 6.337 6.698 5.816 6.94 5.375 7.22 4.853 7.46 4.373 7.742 3.93 7.982 3.45 8.223 2.928 8.504 2.487 8.744 2.046 8.985 1.524 9.225 1.083 7.461.401 7.42-.2 7.381-.722 7.34-1.164 7.301-1.644 7.26-2.006 7.14-2.326 7.14-2.648 9.105-3.85 2.607-.963 1.284-.361 1.283-.32 1.244-.201 1.203-.12h1.204l1.163.12 1.123.24 1.123.401 1.043.562 1.043.682.963.882.922 1.083.883 1.284.802 1.444.682 1.524.481 1.404.28 1.364.121 1.323-.04 1.244-.2 1.203-.362 1.123-.44 1.123-.562 1.043-.682 1.003-.762.963-.843.922-1.845 1.765-1.965 1.685-16.486 12.194-16.927 10.87-17.408 9.466-17.93 8.063-18.371 6.618-18.933 5.134-19.414 3.61-19.975 2.086-5.135.401-5.094.522-10.268 1.123-26.835-1.885-25.872-4.332-12.595-3.049-12.354-3.69-12.114-4.292-11.873-4.934-11.632-5.535-11.392-6.137-22.1-14.12-21.18-16.565Z" style="fill:#97d8e8"/>
	<path class="cls-2" d="m408.967 191.65-9.667-15.643-4.572-6.98-4.613-6.577-4.854-6.338-5.335-6.177-5.976-6.137-6.82-6.258-6.337-4.973-7.06-4.734-15.202-9.265-7.58-4.774-7.22-5.013-6.58-5.335-2.927-2.808-2.688-2.968-2.166-2.808-1.965-2.848-1.685-2.888-1.404-2.928-1.123-2.968-.882-3.009-.602-2.968-.32-3.049-.081-3.008.24-3.048.482-3.009.762-3.048 1.043-3.049 1.324-3.008 1.644-3.008 1.885-3.009 1.244-1.725 1.283-1.684 2.728-3.21 2.928-3.007 3.049-2.848 13.638-11.472-21.781-1.525-21.5.12-21.179 1.806-20.898 3.37-20.617 4.973-20.336 6.458-20.016 7.982-19.815 9.426-18.893 10.99-19.815 13.76-19.775 15.683-18.892 16.766-17.128 17.007-14.52 16.406-6.017 7.742-5.014 7.22-3.93 6.698-2.728 6.017 16.967-5.616 16.847-4.933 16.807-4.292 16.686-3.61 16.646-2.968 16.526-2.287 16.446-1.604 16.365-1.003 7.782 11.753 8.142 9.867 8.424 8.143 8.544 6.578 8.583 5.174 8.424 3.931 8.223 2.848 7.862 1.885 7.38 1.083 6.82.442 6.096-.04 5.214-.362 4.292-.561 3.25-.602 2.687-.642-14.68-43.04 20.656 4.614 20.538 5.816 20.416 7.02 20.297 8.262 20.136 9.467 20.015 10.71 19.895 11.953 19.775 13.196-2.567-9.546-3.289-9.787-1.845-4.734-1.965-4.532-2.046-4.172Z"/>
	<path class="cls-2" d="M48.904 595.82v-63.912H27.21v-15.685h62.512v15.685H68.03v63.911Z"/>
	<path class="cls-2" d="M97.828 533.541h18.602v9.855h.875a15.43 15.43 0 0 1 7.172-8.921 14.787 14.787 0 0 1 7.581-1.808q1.981 0 3.324.116a10.92 10.92 0 0 1 2.274.408v15.803a13.48 13.48 0 0 0-2.857-.554 36.616 36.616 0 0 0-3.966-.204 16.073 16.073 0 0 0-7.872 1.72 10.535 10.535 0 0 0-4.548 4.84 16.982 16.982 0 0 0-1.458 7.26v33.763H97.828Z"/>
	<path class="cls-2" d="M159.377 593.69a23.731 23.731 0 0 1-10.38-9.854q-3.703-6.56-3.702-16.24v-5.948q0-9.738 3.878-16.24a24.714 24.714 0 0 1 10.409-9.738 32.107 32.107 0 0 1 14.461-3.236 30.572 30.572 0 0 1 14.87 3.498 24.868 24.868 0 0 1 10.03 10.06 31.97 31.97 0 0 1 3.615 15.656v6.881h-39.186v2.858a11.624 11.624 0 0 0 3.236 8.6 11.105 11.105 0 0 0 8.193 3.237 14.21 14.21 0 0 0 5.044-.846 9.316 9.316 0 0 0 3.645-2.361 6.054 6.054 0 0 0 1.633-3.44h17.027a18.965 18.965 0 0 1-1.779 6.705 21.507 21.507 0 0 1-4.87 6.677 24.735 24.735 0 0 1-8.367 5.073 38.674 38.674 0 0 1-27.757-1.342Zm25.395-35.6v-.407a14.034 14.034 0 0 0-1.312-6.24 10.112 10.112 0 0 0-3.702-4.198 10.232 10.232 0 0 0-5.598-1.516 10.157 10.157 0 0 0-9.418 5.714 13.53 13.53 0 0 0-1.37 6.24v.408Z"/>
	<path class="cls-2" d="M216.32 533.541h18.019v10.555h.932a17.112 17.112 0 0 1 2.596-5.044 15.53 15.53 0 0 1 5.422-4.55 19.086 19.086 0 0 1 9.068-1.894 20.15 20.15 0 0 1 8.164 1.516 15.07 15.07 0 0 1 8.747 10.205h.758a15.831 15.831 0 0 1 3.324-5.481 18.679 18.679 0 0 1 6.269-4.461 22.024 22.024 0 0 1 9.242-1.779q9.388 0 14.55 5.453 5.16 5.453 5.16 14.548v43.21h-18.544V558.5a13.825 13.825 0 0 0-1.224-6.327 7.712 7.712 0 0 0-3.324-3.44 10.061 10.061 0 0 0-4.665-1.079 9.186 9.186 0 0 0-4.782 1.283 9.08 9.08 0 0 0-3.44 3.79 13.901 13.901 0 0 0-1.283 6.356v36.737h-17.727v-37.145a13.77 13.77 0 0 0-1.283-6.473 7.962 7.962 0 0 0-3.411-3.47 9.99 9.99 0 0 0-4.578-1.078 9.535 9.535 0 0 0-4.752 1.196 8.395 8.395 0 0 0-3.383 3.702 14.331 14.331 0 0 0-1.253 6.415v36.853H216.32Z"/>
	<path class="cls-2" d="M367.38 536.02a25.015 25.015 0 0 1 10.233 10.205 31.805 31.805 0 0 1 3.616 15.481v5.481q0 9.506-3.616 16.182a24.193 24.193 0 0 1-10.234 10.147 37.259 37.259 0 0 1-31.401 0 24.018 24.018 0 0 1-10.234-10.118q-3.586-6.647-3.586-16.152v-5.423a31.54 31.54 0 0 1 3.615-15.365 25.722 25.722 0 0 1 10.263-10.322 31.735 31.735 0 0 1 15.686-3.702 32.399 32.399 0 0 1 15.657 3.586Zm-21.868 12.478a12.844 12.844 0 0 0-3.47 5.715 25.052 25.052 0 0 0-1.107 7.552v5.773a26.237 26.237 0 0 0 1.049 7.464 12.816 12.816 0 0 0 3.411 5.802 8.8 8.8 0 0 0 6.327 2.245 8.7 8.7 0 0 0 6.298-2.245 12.738 12.738 0 0 0 3.353-5.773 26.87 26.87 0 0 0 1.02-7.493v-5.773a25.904 25.904 0 0 0-1.079-7.61 12.556 12.556 0 0 0-3.41-5.685 9.922 9.922 0 0 0-12.392.028Z"/>
	<path class="cls-2" d="M395.457 533.541h18.602v9.855h.875a15.43 15.43 0 0 1 7.172-8.921 14.787 14.787 0 0 1 7.581-1.808q1.981 0 3.324.116a10.919 10.919 0 0 1 2.274.408v15.803a13.48 13.48 0 0 0-2.857-.554 36.616 36.616 0 0 0-3.966-.204 16.073 16.073 0 0 0-7.872 1.72 10.535 10.535 0 0 0-4.548 4.84 16.982 16.982 0 0 0-1.458 7.26v33.763h-19.127Z"/>
</svg>
