<svg xmlns="http://www.w3.org/2000/svg" version="1.2" baseProfile="tiny" width="300" height="102">
	<g fill="#f4bec0">
		<path d="M83 14h1v1h-1z"/>
		<path d="M81 21h1v1h-1z"/>
		<path d="M22 41h1v1h-1z"/>
		<path d="M9 59h1v1H9z"/>
		<path d="M7 67h1v1H7z"/>
		<path d="M71 68h1v1h-1z"/>
		<path d="M56 69h1v1h-1z"/>
		<path d="M66 72h1v1h-1z"/>
		<path d="M51 81h1v1h-1z"/>
	</g>
	<g fill="#fbe6e7">
		<path d="M76 17h1v1h-1z"/>
		<path d="M82 22h1v1h-1z"/>
		<path d="M84 27h1v1h-1z"/>
		<path d="M86 51h1v1h-1z"/>
		<path d="M12 53h1v1h-1z"/>
		<path d="M73 55h1v1h-1z"/>
		<path d="M79 60h1v1h-1z"/>
		<path d="M73 66h1v1h-1z"/>
		<path d="M36 86h1v1h-1z"/>
	</g>
	<path d="M171 23h1v1h-1z"/>
	<path d="M283 24h1v1h-1z"/>
	<path d="M176 25h1v1h-1z"/>
	<path d="M285 25h1v1h-1z"/>
	<path d="M235 26h1v1h-1z"/>
	<path d="M170 30h1v1h-1z"/>
	<path d="M239 33h1v1h-1z"/>
	<path d="M291 33h1v1h-1z"/>
	<path d="M282 34h1v1h-1z"/>
	<path d="M240 35h1v1h-1z"/>
	<path d="M179 36h1v1h-1z"/>
	<path d="M232 38h1v1h-1z"/>
	<path d="M283 38h1v1h-1z"/>
	<path d="M178 39h1v1h-1z"/>
	<path d="M233 40h1v1h-1z"/>
	<path d="M243 40h1v1h-1z"/>
	<path d="M244 42h1v1h-1z"/>
	<path d="M283 42h1v1h-1z"/>
	<path d="M174 43h1v1h-1z"/>
	<path d="M165 44h1v1h-1z"/>
	<path d="M166 46h1v1h-1z"/>
	<path d="M282 46h1v1h-1z"/>
	<path d="M237 47h1v1h-1z"/>
	<path d="M238 49h1v1h-1z"/>
	<path d="M290 49h1v1h-1z"/>
	<path d="M289 51h1v1h-1z"/>
	<path d="M169 53h1v1h-1z"/>
	<path d="M286 54h1v1h-1z"/>
	<path d="M170 56h1v1h-1z"/>
	<path d="M242 56h1v1h-1z"/>
	<path d="M282 56h1v1h-1z"/>
	<path d="M150 57h1v1h-1z"/>
	<path d="M158 57h1v1h-1z"/>
	<path d="M180 57h1v1h-1z"/>
	<path d="M214 57h1v1h-1z"/>
	<path d="M277 57h1v1h-1z"/>
	<path d="M298 63h1v1h-1z"/>
	<path d="M203 65h1v1h-1z"/>
	<path d="M274 65h1v1h-1z"/>
	<path d="M279 65h1v1h-1z"/>
	<path d="M195 66h1v1h-1z"/>
	<path d="M282 66h1v1h-1z"/>
	<path d="M132 67h1v1h-1z"/>
	<path d="M270 67h1v1h-1z"/>
	<path d="M193 68h1v1h-1z"/>
	<path d="M208 69h1v1h-1z"/>
	<path d="M285 69h1v1h-1z"/>
	<path d="M268 70h1v1h-1z"/>
	<path d="M274 70h1v1h-1z"/>
	<path d="M197 71h1v1h-1z"/>
	<path d="M273 71h1v1h-1z"/>
	<path d="M281 72h1v1h-1z"/>
	<path d="M247 73h1v1h-1z"/>
	<path d="M129 74h1v1h-1z"/>
	<path d="M134 76h1v1h-1z"/>
	<path d="M197 79h1v1h-1z"/>
	<path d="M239 79h1v1h-1z"/>
	<path d="M133 80h1v1h-1z"/>
	<path d="M198 80h1v1h-1z"/>
	<path d="M268 80h1v1h-1z"/>
	<path d="M246 81h1v1h-1z"/>
	<path d="M285 81h1v1h-1z"/>
	<path d="M193 82h1v1h-1z"/>
	<path d="M207 82h1v1h-1z"/>
	<path d="M194 83h1v1h-1z"/>
	<path d="M247 83h1v1h-1z"/>
	<path d="M132 84h1v1h-1z"/>
	<path d="M205 84h1v1h-1z"/>
	<path d="M282 84h1v1h-1z"/>
	<path d="M198 85h1v1h-1z"/>
	<path d="M202 85h1v1h-1z"/>
	<path d="M276 85h1v1h-1z"/>
	<path d="M278 85h1v1h-1z"/>
	<g fill="#ea8085">
		<path d="M101 49h1v1h-1z"/>
		<path d="M101 50h1v1h-1z"/>
		<path d="M0 59h1v1H0z"/>
	</g>
	<g fill="#e4656a">
		<path d="M81 13h1v1h-1z"/>
		<path d="M84 14h1v1h-1z"/>
		<path d="M91 43h1v1h-1z"/>
		<path d="M74 53h1v1h-1z"/>
		<path d="M7 75h1v1H7z"/>
	</g>
	<g fill="#f8d6d7">
		<path d="M68 13h1v1h-1z"/>
		<path d="M83 24h1v1h-1z"/>
		<path d="M29 36h1v1h-1z"/>
		<path d="M11 46h1v1h-1z"/>
		<path d="M8 49h1v1H8z"/>
		<path d="M13 51h1v1h-1z"/>
		<path d="M80 59h1v1h-1z"/>
		<path d="M68 60h1v1h-1z"/>
	</g>
	<g fill="#fae2e3">
		<path d="M58 16h1v1h-1z"/>
		<path d="M82 41h1v1h-1z"/>
		<path d="M90 44h1v1h-1z"/>
		<path d="M89 46h1v1h-1z"/>
		<path d="M28 49h7v1h-7z"/>
		<path d="M35 49h1v1h-1z"/>
		<path d="M22 62h1v1h-1z"/>
		<path d="M7 69h1v1H7z"/>
		<path d="M7 70h1v1H7z"/>
		<path d="M67 71h1v1h-1z"/>
		<path d="M19 86h1v1h-1z"/>
		<path d="M26 87h2v1h-2z"/>
		<path d="M28 87h1v1h-1z"/>
	</g>
	<path fill="#fbe3e3" d="M93 23h1v1h-1z"/>
	<g fill="#fdf2f3">
		<path d="M13 49h1v1h-1z"/>
		<path d="M77 62h1v1h-1z"/>
		<path d="M8 63h1v1H8z"/>
		<path d="M76 63h1v1h-1z"/>
		<path d="M75 64h1v1h-1z"/>
		<path d="M61 66h1v1h-1z"/>
		<path d="M29 77h1v1h-1z"/>
	</g>
	<path fill="#f5c4c6" d="M14 84h1v1h-1z"/>
	<g fill="#e66d72">
		<path d="M44 0h1v1h-1z"/>
		<path d="M56 0h1v1h-1z"/>
		<path d="M22 8h1v1h-1z"/>
		<path d="M89 47h1v1h-1z"/>
		<path d="M60 66h1v1h-1z"/>
	</g>
	<g fill="#f2b5b8">
		<path d="M59 16h1v1h-1z"/>
		<path d="M59 67h1v1h-1z"/>
		<path d="M7 73h1v1H7z"/>
		<path d="M37 86h1v1h-1z"/>
		<path d="M23 87h1v1h-1z"/>
	</g>
	<g fill="#060808">
		<path d="M117 23h25v1h-25z"/>
		<path d="M142 23h1v1h-1z"/>
		<path d="M151 23h15v1h-15z"/>
		<path d="M166 23h1v1h-1z"/>
		<path d="M190 23h22v1h-22z"/>
		<path d="M212 23h1v1h-1z"/>
		<path d="M225 23h7v1h-7z"/>
		<path d="M232 23h1v1h-1z"/>
		<path d="M246 23h5v1h-5z"/>
		<path d="M251 23h1v1h-1z"/>
		<path d="M264 23h10v1h-10z"/>
		<path d="M274 23h1v1h-1z"/>
		<path d="M252 24h1v32h-1z"/>
		<path d="M169 29h1v1h-1z"/>
		<path d="M179 32h1v1h-1z"/>
		<path d="M240 36h1v1h-1z"/>
		<path d="M232 37h1v1h-1z"/>
		<path d="M174 45h1v1h-1z"/>
		<path d="M175 47h1v1h-1z"/>
		<path d="M176 49h1v1h-1z"/>
		<path d="M177 51h1v1h-1z"/>
		<path d="M197 51h16v1h-16z"/>
		<path d="M213 51h1v1h-1z"/>
		<path d="M271 51h3v1h-3z"/>
		<path d="M274 51h1v1h-1z"/>
		<path d="M275 51h1v1h-1z"/>
		<path d="M178 53h1v1h-1z"/>
		<path d="M285 54h1v1h-1z"/>
		<path d="M179 55h1v1h-1z"/>
		<path d="M252 56h1v1h-1z"/>
		<path d="M289 58h3v1h-3z"/>
		<path d="M292 58h1v1h-1z"/>
		<path d="M299 58h1v1h-1z"/>
		<path d="M291 59h1v1h-1z"/>
		<path d="M297 62h1v1h-1z"/>
		<path d="M299 64h1v1h-1z"/>
		<path d="M132 69h1v1h-1z"/>
		<path d="M197 70h1v1h-1z"/>
		<path d="M272 72h1v1h-1z"/>
		<path d="M134 74h1v1h-1z"/>
		<path d="M124 75h1v1h-1z"/>
		<path d="M124 76h1v7h-1z"/>
		<path d="M133 78h1v1h-1z"/>
		<path d="M196 78h1v1h-1z"/>
		<path d="M268 78h1v1h-1z"/>
		<path d="M193 81h1v1h-1z"/>
		<path d="M275 81h1v1h-1z"/>
		<path d="M132 82h1v1h-1z"/>
		<path d="M124 83h1v1h-1z"/>
	</g>
	<g fill="#040608">
		<path d="M179 31h1v1h-1z"/>
		<path d="M169 37h1v1h-1z"/>
		<path d="M244 43h1v1h-1z"/>
		<path d="M167 47h1v1h-1z"/>
		<path d="M279 69h1v1h-1z"/>
		<path d="M204 71h1v1h-1z"/>
		<path d="M135 72h1v1h-1z"/>
	</g>
	<g fill="#dc333a">
		<path d="M3 67h1v1H3z"/>
		<path d="M17 87h1v1h-1z"/>
		<path d="M39 98h1v1h-1z"/>
		<path d="M61 98h1v1h-1z"/>
		<path d="M46 99h1v1h-1z"/>
	</g>
	<g fill="#e2555a">
		<path d="M75 93h1v1h-1z"/>
		<path d="M43 99h1v1h-1z"/>
	</g>
	<g fill="#e87c82">
		<path d="M43 0h1v1h-1z"/>
		<path d="M57 0h1v1h-1z"/>
		<path d="M71 4h1v1h-1z"/>
	</g>
	<g fill="#f9dbdc">
		<path d="M14 45h1v1h-1z"/>
		<path d="M29 46h1v1h-1z"/>
		<path d="M25 54h1v1h-1z"/>
		<path d="M84 54h1v1h-1z"/>
		<path d="M72 56h1v1h-1z"/>
		<path d="M23 59h1v1h-1z"/>
	</g>
	<path fill="#e56d72" d="M100 58h1v1h-1z"/>
	<path fill="#e4666b" d="M4 29h1v1H4z"/>
	<g fill="#ea8589">
		<path d="M75 17h1v1h-1z"/>
		<path d="M83 37h1v1h-1z"/>
		<path d="M93 37h1v1h-1z"/>
		<path d="M82 40h1v1h-1z"/>
		<path d="M52 71h1v1h-1z"/>
		<path d="M24 74h1v1h-1z"/>
		<path d="M47 83h1v1h-1z"/>
	</g>
	<g fill="#e66e72">
		<path d="M97 31h1v1h-1z"/>
		<path d="M99 37h1v1h-1z"/>
	</g>
	<g fill="#e35e61">
		<path d="M100 57h1v1h-1z"/>
		<path d="M99 62h1v1h-1z"/>
		<path d="M2 65h1v1H2z"/>
		<path d="M97 68h1v1h-1z"/>
	</g>
	<g fill="#f6c8ca">
		<path d="M59 15h1v1h-1z"/>
		<path d="M79 19h1v1h-1z"/>
		<path d="M91 42h1v1h-1z"/>
		<path d="M36 49h1v1h-1z"/>
		<path d="M26 52h1v1h-1z"/>
		<path d="M36 77h1v1h-1z"/>
		<path d="M30 87h1v1h-1z"/>
	</g>
	<g fill="#fcedee">
		<path d="M93 25h1v1h-1z"/>
		<path d="M93 35h1v1h-1z"/>
		<path d="M77 50h1v1h-1z"/>
		<path d="M11 55h1v1h-1z"/>
		<path d="M78 61h1v1h-1z"/>
		<path d="M66 62h1v1h-1z"/>
		<path d="M74 65h1v1h-1z"/>
		<path d="M58 68h1v1h-1z"/>
		<path d="M49 73h1v1h-1z"/>
	</g>
	<g fill="snow">
		<path d="M27 38h1v1h-1z"/>
		<path d="M68 70h1v1h-1z"/>
		<path d="M64 73h1v1h-1z"/>
	</g>
	<g fill="#fcf0f0">
		<path d="M30 43h1v1h-1z"/>
		<path d="M9 47h1v1H9z"/>
		<path d="M79 47h1v1h-1z"/>
		<path d="M8 76h1v1H8z"/>
		<path d="M58 77h1v1h-1z"/>
		<path d="M43 84h1v1h-1z"/>
	</g>
	<g fill="#eb8c90">
		<path d="M30 44h1v2h-1z"/>
		<path d="M30 46h7v1h-7z"/>
		<path d="M37 46h1v1h-1z"/>
		<path d="M75 52h1v1h-1z"/>
		<path d="M23 60h1v1h-1z"/>
		<path d="M48 73h1v1h-1z"/>
		<path d="M43 75h1v1h-1z"/>
	</g>
	<g fill="red">
		<path d="M93 77h1v1h-1z"/>
		<path d="M18 89h1v1h-1z"/>
	</g>
	<g fill="#db3737">
		<path d="M90 81h1v1h-1z"/>
		<path d="M76 93h1v1h-1z"/>
		<path d="M70 96h1v1h-1z"/>
		<path d="M40 99h1v1h-1z"/>
		<path d="M60 99h1v1h-1z"/>
	</g>
	<g fill="#f2aaae">
		<path d="M67 2h1v1h-1z"/>
		<path d="M84 12h1v1h-1z"/>
		<path d="M5 26h1v1H5z"/>
		<path d="M97 30h1v1h-1z"/>
	</g>
	<g fill="#ee969a">
		<path d="M63 1h1v1h-1z"/>
		<path d="M31 3h1v1h-1z"/>
	</g>
	<g fill="#db2f36">
		<path d="M28 5h1v1h-1z"/>
		<path d="M74 6h1v1h-1z"/>
		<path d="M57 15h1v1h-1z"/>
		<path d="M63 16h1v1h-1z"/>
		<path d="M78 19h1v1h-1z"/>
		<path d="M44 21h1v1h-1z"/>
		<path d="M94 34h1v1h-1z"/>
		<path d="M82 39h1v1h-1z"/>
		<path d="M76 50h1v1h-1z"/>
	</g>
	<g fill="#f2b2b5">
		<path d="M67 13h1v1h-1z"/>
		<path d="M84 33h1v1h-1z"/>
		<path d="M25 39h1v1h-1z"/>
		<path d="M23 73h1v1h-1z"/>
		<path d="M35 77h1v1h-1z"/>
		<path d="M31 87h1v1h-1z"/>
	</g>
	<g fill="#e2565c">
		<path d="M96 29h1v1h-1z"/>
		<path d="M1 38h1v1H1z"/>
		<path d="M100 43h1v1h-1z"/>
	</g>
	<g fill="#e5696d">
		<path d="M0 42h1v1H0z"/>
		<path d="M0 57h1v1H0z"/>
		<path d="M1 62h1v1H1z"/>
		<path d="M3 68h1v1H3z"/>
	</g>
	<g fill="#ed9598">
		<path d="M18 43h1v1h-1z"/>
		<path d="M10 46h1v1h-1z"/>
		<path d="M54 70h1v1h-1z"/>
		<path d="M22 87h1v1h-1z"/>
	</g>
	<g fill="#df4249">
		<path d="M47 0h1v1h-1z"/>
		<path d="M53 0h1v1h-1z"/>
		<path d="M76 7h1v1h-1z"/>
		<path d="M83 12h1v1h-1z"/>
	</g>
	<g fill="#df494f">
		<path d="M62 16h1v1h-1z"/>
		<path d="M83 36h1v1h-1z"/>
		<path d="M27 37h1v1h-1z"/>
		<path d="M9 46h1v1H9z"/>
		<path d="M77 63h1v1h-1z"/>
		<path d="M76 64h1v1h-1z"/>
		<path d="M75 65h1v1h-1z"/>
		<path d="M22 68h1v1h-1z"/>
		<path d="M68 71h1v1h-1z"/>
		<path d="M45 74h1v1h-1z"/>
		<path d="M28 76h1v1h-1z"/>
	</g>
	<g fill="#da2c33">
		<path d="M0 53h1v1H0z"/>
		<path d="M100 54h1v1h-1z"/>
		<path d="M1 60h1v1H1z"/>
		<path d="M88 82h1v1h-1z"/>
		<path d="M16 86h1v1h-1z"/>
		<path d="M21 90h1v1h-1z"/>
		<path d="M76 92h1v1h-1z"/>
	</g>
	<g fill="#e3656c">
		<path d="M87 84h1v1h-1z"/>
		<path d="M85 86h1v1h-1z"/>
	</g>
	<g fill="#db2f38">
		<path d="M83 87h1v1h-1z"/>
		<path d="M24 92h1v1h-1z"/>
		<path d="M54 99h1v1h-1z"/>
	</g>
	<g fill="#e35a60">
		<path d="M69 96h1v1h-1z"/>
		<path d="M42 99h1v1h-1z"/>
		<path d="M58 99h1v1h-1z"/>
	</g>
	<g fill="#ee9698">
		<path d="M23 7h1v1h-1z"/>
		<path d="M20 9h1v1h-1z"/>
		<path d="M86 14h1v1h-1z"/>
		<path d="M99 36h1v1h-1z"/>
	</g>
	<g fill="#ed9799">
		<path d="M37 1h1v1h-1z"/>
		<path d="M77 7h1v1h-1z"/>
		<path d="M80 9h1v1h-1z"/>
	</g>
	<g fill="#efa0a3">
		<path d="M80 13h1v1h-1z"/>
		<path d="M84 32h1v1h-1z"/>
		<path d="M87 50h1v1h-1z"/>
		<path d="M85 53h1v1h-1z"/>
		<path d="M70 69h1v1h-1z"/>
		<path d="M32 77h2v1h-2z"/>
		<path d="M34 77h1v1h-1z"/>
	</g>
	<g fill="#f0a9ac">
		<path d="M62 14h1v1h-1z"/>
		<path d="M55 17h1v1h-1z"/>
		<path d="M51 18h1v1h-1z"/>
		<path d="M78 48h1v1h-1z"/>
		<path d="M24 57h1v1h-1z"/>
		<path d="M46 74h1v1h-1z"/>
		<path d="M25 75h1v1h-1z"/>
		<path d="M41 85h1v1h-1z"/>
	</g>
	<g fill="#000b0b">
		<path d="M279 23h1v1h-1z"/>
		<path d="M116 29h1v1h-1z"/>
		<path d="M213 29h1v1h-1z"/>
		<path d="M170 36h1v1h-1z"/>
		<path d="M236 45h1v1h-1z"/>
		<path d="M252 57h1v1h-1z"/>
		<path d="M286 72h1v1h-1z"/>
		<path d="M196 76h1v1h-1z"/>
		<path d="M281 78h1v1h-1z"/>
		<path d="M192 80h1v1h-1z"/>
		<path d="M208 80h1v1h-1z"/>
		<path d="M120 84h1v1h-1z"/>
		<path d="M199 85h1v1h-1z"/>
	</g>
	<g fill="#dd3a41">
		<path d="M100 55h1v1h-1z"/>
		<path d="M92 77h1v1h-1z"/>
		<path d="M89 81h1v1h-1z"/>
		<path d="M65 97h1v1h-1z"/>
	</g>
	<g fill="#fdd">
		<path d="M40 0h1v1h-1z"/>
		<path d="M70 3h1v1h-1z"/>
		<path d="M76 6h1v1h-1z"/>
		<path d="M101 47h1v1h-1z"/>
	</g>
	<g fill="#fff">
		<path d="M30 3h1v1h-1z"/>
		<path d="M24 6h1v1h-1z"/>
		<path d="M18 10h1v1h-1z"/>
		<path d="M82 10h1v1h-1z"/>
		<path d="M70 13h7v2h-7z"/>
		<path d="M77 13h1v4h-1z"/>
		<path d="M64 14h17v1H64z"/>
		<path d="M81 14h1v6h-1z"/>
		<path d="M62 15h2v1h-2z"/>
		<path d="M64 15h1v1h-1z"/>
		<path d="M68 15h16v1H68z"/>
		<path d="M84 15h1v11h-1z"/>
		<path d="M75 16h11v1H75z"/>
		<path d="M86 16h1v34h-1z"/>
		<path d="M88 16h1v1h-1z"/>
		<path d="M77 17h10v1H77z"/>
		<path d="M87 17h1v31h-1z"/>
		<path d="M88 17h1v1h-1z"/>
		<path d="M89 17h1v1h-1z"/>
		<path d="M10 18h1v1h-1z"/>
		<path d="M79 18h9v1h-9z"/>
		<path d="M88 18h1v29h-1z"/>
		<path d="M89 18h1v1h-1z"/>
		<path d="M90 18h1v1h-1z"/>
		<path d="M80 19h9v1h-9z"/>
		<path d="M89 19h1v26h-1z"/>
		<path d="M90 19h1v1h-1z"/>
		<path d="M81 20h9v1h-9z"/>
		<path d="M90 20h1v23h-1z"/>
		<path d="M91 20h1v1h-1z"/>
		<path d="M82 21h8v1h-8z"/>
		<path d="M92 21h1v1h-1z"/>
		<path d="M83 22h8v1h-8z"/>
		<path d="M91 22h1v19h-1z"/>
		<path d="M92 22h1v1h-1z"/>
		<path d="M93 22h1v1h-1z"/>
		<path d="M83 23h9v1h-9z"/>
		<path d="M92 23h1v15h-1z"/>
		<path d="M85 24h7v17h-7z"/>
		<path d="M84 26h9v1h-9z"/>
		<path d="M93 26h1v8h-1z"/>
		<path d="M93 34h1v1h-1z"/>
		<path d="M30 36h3v2h-3z"/>
		<path d="M33 36h1v1h-1z"/>
		<path d="M84 36h8v5h-8z"/>
		<path d="M29 37h3v3h-3z"/>
		<path d="M28 38h4v2h-4z"/>
		<path d="M32 38h1v1h-1z"/>
		<path d="M92 38h1v1h-1z"/>
		<path d="M26 39h5v3h-5z"/>
		<path d="M25 40h6v2h-6z"/>
		<path d="M31 40h1v1h-1z"/>
		<path d="M83 40h8v3h-8z"/>
		<path d="M23 41h7v3h-7z"/>
		<path d="M91 41h1v1h-1z"/>
		<path d="M22 42h8v2h-8z"/>
		<path d="M30 42h1v1h-1z"/>
		<path d="M82 42h8v3h-8z"/>
		<path d="M20 43h9v5h-9z"/>
		<path d="M90 43h1v1h-1z"/>
		<path d="M18 44h11v4H18z"/>
		<path d="M29 44h1v1h-1z"/>
		<path d="M81 44h8v3h-8z"/>
		<path d="M15 45h13v3H15z"/>
		<path d="M89 45h1v1h-1z"/>
		<path d="M12 46h16v2H12z"/>
		<path d="M80 46h8v2h-8z"/>
		<path d="M10 47h26v1H10z"/>
		<path d="M36 47h1v1h-1z"/>
		<path d="M88 47h1v1h-1z"/>
		<path d="M9 48h27v1H9z"/>
		<path d="M36 48h1v1h-1z"/>
		<path d="M79 48h8v2h-8z"/>
		<path d="M87 48h1v1h-1z"/>
		<path d="M14 49h12v4H14z"/>
		<path d="M26 49h1v2h-1z"/>
		<path d="M78 49h8v2h-8z"/>
		<path d="M86 50h1v1h-1z"/>
		<path d="M26 51h1v1h-1z"/>
		<path d="M77 51h8v2h-8z"/>
		<path d="M85 51h1v1h-1z"/>
		<path d="M13 52h12v3H13z"/>
		<path d="M76 52h8v2h-8z"/>
		<path d="M25 53h1v1h-1z"/>
		<path d="M84 53h1v1h-1z"/>
		<path d="M12 54h12v4H12z"/>
		<path d="M75 54h8v2h-8z"/>
		<path d="M83 54h1v1h-1z"/>
		<path d="M24 55h1v1h-1z"/>
		<path d="M74 55h8v2h-8z"/>
		<path d="M11 56h12v5H11z"/>
		<path d="M73 56h9v1h-9z"/>
		<path d="M82 56h1v1h-1z"/>
		<path d="M72 57h9v1h-9z"/>
		<path d="M81 57h1v1h-1z"/>
		<path d="M10 58h13v3H10z"/>
		<path d="M23 58h1v1h-1z"/>
		<path d="M71 58h9v1h-9z"/>
		<path d="M80 58h1v1h-1z"/>
		<path d="M70 59h9v1h-9z"/>
		<path d="M79 59h1v1h-1z"/>
		<path d="M69 60h9v1h-9z"/>
		<path d="M78 60h1v1h-1z"/>
		<path d="M9 61h13v16H9z"/>
		<path d="M22 61h1v1h-1z"/>
		<path d="M68 61h9v1h-9z"/>
		<path d="M77 61h1v1h-1z"/>
		<path d="M67 62h9v1h-9z"/>
		<path d="M76 62h1v1h-1z"/>
		<path d="M66 63h9v1h-9z"/>
		<path d="M75 63h1v1h-1z"/>
		<path d="M8 64h13v11H8z"/>
		<path d="M64 64h10v1H64z"/>
		<path d="M74 64h1v1h-1z"/>
		<path d="M63 65h10v1H63z"/>
		<path d="M73 65h1v1h-1z"/>
		<path d="M62 66h10v1H62z"/>
		<path d="M72 66h1v1h-1z"/>
		<path d="M60 67h11v1H60z"/>
		<path d="M71 67h1v1h-1z"/>
		<path d="M59 68h11v1H59z"/>
		<path d="M70 68h1v1h-1z"/>
		<path d="M57 69h12v1H57z"/>
		<path d="M69 69h1v1h-1z"/>
		<path d="M56 70h11v1H56z"/>
		<path d="M67 70h1v1h-1z"/>
		<path d="M54 71h12v1H54z"/>
		<path d="M66 71h1v1h-1z"/>
		<path d="M52 72h13v1H52z"/>
		<path d="M65 72h1v1h-1z"/>
		<path d="M22 73h1v13h-1z"/>
		<path d="M50 73h13v1H50z"/>
		<path d="M63 73h1v1h-1z"/>
		<path d="M23 74h1v12h-1z"/>
		<path d="M48 74h14v1H48z"/>
		<path d="M62 74h1v1h-1z"/>
		<path d="M8 75h16v1H8z"/>
		<path d="M24 75h1v11h-1z"/>
		<path d="M45 75h15v1H45z"/>
		<path d="M60 75h1v1h-1z"/>
		<path d="M25 76h1v10h-1z"/>
		<path d="M42 76h17v1H42z"/>
		<path d="M59 76h1v1h-1z"/>
		<path d="M9 77h19v1H9z"/>
		<path d="M28 77h1v9h-1z"/>
		<path d="M38 77h19v1H38z"/>
		<path d="M57 77h1v1h-1z"/>
		<path d="M9 78h1v1H9z"/>
		<path d="M10 78h45v1H10z"/>
		<path d="M55 78h1v1h-1z"/>
		<path d="M9 79h1v1H9z"/>
		<path d="M10 79h44v1H10z"/>
		<path d="M54 79h1v1h-1z"/>
		<path d="M10 80h1v1h-1z"/>
		<path d="M11 80h41v1H11z"/>
		<path d="M52 80h1v1h-1z"/>
		<path d="M11 81h1v1h-1z"/>
		<path d="M12 81h38v1H12z"/>
		<path d="M50 81h1v1h-1z"/>
		<path d="M11 82h1v1h-1z"/>
		<path d="M12 82h1v1h-1z"/>
		<path d="M13 82h34v1H13z"/>
		<path d="M47 82h1v1h-1z"/>
		<path d="M13 83h1v1h-1z"/>
		<path d="M14 83h31v1H14z"/>
		<path d="M45 83h1v1h-1z"/>
		<path d="M15 84h27v1H15z"/>
		<path d="M42 84h1v1h-1z"/>
		<path d="M17 85h22v1H17z"/>
		<path d="M39 85h1v1h-1z"/>
		<path d="M20 86h15v1H20z"/>
		<path d="M35 86h1v1h-1z"/>
	</g>
	<g fill="#eb878b">
		<path d="M9 20h1v1H9z"/>
		<path d="M98 33h1v1h-1z"/>
		<path d="M0 41h1v1H0z"/>
	</g>
	<g fill="#050707">
		<path d="M168 23h1v1h-1z"/>
		<path d="M175 25h1v1h-1z"/>
		<path d="M239 34h1v1h-1z"/>
		<path d="M283 35h1v1h-1z"/>
		<path d="M291 35h1v1h-1z"/>
		<path d="M178 38h1v1h-1z"/>
		<path d="M291 38h1v1h-1z"/>
		<path d="M176 41h1v1h-1z"/>
		<path d="M291 44h1v1h-1z"/>
		<path d="M282 47h1v1h-1z"/>
		<path d="M290 47h1v1h-1z"/>
		<path d="M279 50h1v1h-1z"/>
		<path d="M289 50h1v1h-1z"/>
		<path d="M296 61h1v1h-1z"/>
		<path d="M294 64h1v1h-1z"/>
		<path d="M196 66h1v1h-1z"/>
		<path d="M231 66h1v1h-1z"/>
		<path d="M281 66h1v1h-1z"/>
		<path d="M285 70h1v1h-1z"/>
		<path d="M268 72h1v1h-1z"/>
		<path d="M242 73h1v1h-1z"/>
		<path d="M130 76h1v1h-1z"/>
		<path d="M236 77h1v1h-1z"/>
		<path d="M243 77h1v1h-1z"/>
		<path d="M192 79h1v1h-1z"/>
		<path d="M281 79h1v1h-1z"/>
		<path d="M198 81h1v1h-1z"/>
		<path d="M206 82h1v1h-1z"/>
	</g>
	<g fill="#090909">
		<path d="M143 29h1v1h-1z"/>
		<path d="M179 29h1v1h-1z"/>
		<path d="M291 46h1v1h-1z"/>
		<path d="M284 55h1v1h-1z"/>
		<path d="M276 57h1v1h-1z"/>
		<path d="M293 59h1v1h-1z"/>
		<path d="M275 65h1v1h-1z"/>
		<path d="M120 66h1v1h-1z"/>
		<path d="M203 70h1v1h-1z"/>
		<path d="M128 71h1v1h-1z"/>
		<path d="M240 73h1v1h-1z"/>
		<path d="M196 74h1v1h-1z"/>
		<path d="M246 75h1v1h-1z"/>
		<path d="M283 83h1v1h-1z"/>
		<path d="M201 85h1v1h-1z"/>
	</g>
	<path fill="#e35f66" d="M91 79h1v1h-1z"/>
	<g fill="#d71921">
		<path d="M41 1h18v13H41z"/>
		<path d="M59 1h1v13h-1z"/>
		<path d="M37 2h26v11H37z"/>
		<path d="M63 2h1v11h-1z"/>
		<path d="M34 3h32v9H34z"/>
		<path d="M66 3h1v9h-1z"/>
		<path d="M31 4h38v8H31z"/>
		<path d="M69 4h1v8h-1z"/>
		<path d="M29 5h42v6H29z"/>
		<path d="M71 5h1v6h-1z"/>
		<path d="M27 6h46v5H27z"/>
		<path d="M73 6h1v5h-1z"/>
		<path d="M25 7h50v4H25z"/>
		<path d="M75 7h1v4h-1z"/>
		<path d="M24 8h52v3H24z"/>
		<path d="M76 8h1v3h-1z"/>
		<path d="M22 9h56v2H22z"/>
		<path d="M78 9h1v3h-1z"/>
		<path d="M21 10h58v1H21z"/>
		<path d="M79 10h1v2h-1z"/>
		<path d="M19 11h62v1H19z"/>
		<path d="M81 11h1v1h-1z"/>
		<path d="M18 12h51v1H18z"/>
		<path d="M69 12h1v1h-1z"/>
		<path d="M78 12h4v1h-4z"/>
		<path d="M82 12h1v1h-1z"/>
		<path d="M17 13h46v1H17z"/>
		<path d="M63 13h1v1h-1z"/>
		<path d="M83 13h1v1h-1z"/>
		<path d="M16 14h43v1H16z"/>
		<path d="M59 14h1v1h-1z"/>
		<path d="M15 15h41v1H15z"/>
		<path d="M56 15h1v1h-1z"/>
		<path d="M14 16h39v1H14z"/>
		<path d="M53 16h1v1h-1z"/>
		<path d="M65 16h3v43h-3z"/>
		<path d="M68 16h1v42h-1z"/>
		<path d="M13 17h38v1H13z"/>
		<path d="M51 17h1v1h-1z"/>
		<path d="M58 17h15v37H58z"/>
		<path d="M73 17h1v36h-1z"/>
		<path d="M12 18h37v1H12z"/>
		<path d="M49 18h1v53h-1z"/>
		<path d="M55 18h20v34H55z"/>
		<path d="M75 18h1v33h-1z"/>
		<path d="M11 19h36v1H11z"/>
		<path d="M47 19h1v53h-1z"/>
		<path d="M52 19h25v30H52z"/>
		<path d="M77 19h1v29h-1z"/>
		<path d="M11 20h34v1H11z"/>
		<path d="M45 20h1v53h-1z"/>
		<path d="M50 20h28v28H50z"/>
		<path d="M78 20h1v26h-1z"/>
		<path d="M10 21h33v13H10z"/>
		<path d="M43 21h1v53h-1z"/>
		<path d="M48 21h31v25H48z"/>
		<path d="M79 21h1v23h-1z"/>
		<path d="M9 22h32v12H9z"/>
		<path d="M46 22h34v22H46z"/>
		<path d="M80 22h1v21h-1z"/>
		<path d="M8 23h73v11H8z"/>
		<path d="M81 23h1v17h-1z"/>
		<path d="M82 24h1v14h-1z"/>
		<path d="M7 25h75v9H7z"/>
		<path d="M6 27h77v7H6z"/>
		<path d="M83 27h1v7h-1z"/>
		<path d="M5 29h78v5H5z"/>
		<path d="M95 29h1v42h-1z"/>
		<path d="M4 31h79v3H4z"/>
		<path d="M96 31h1v38h-1z"/>
		<path d="M3 33h80v1H3z"/>
		<path d="M97 33h1v33h-1z"/>
		<path d="M3 34h80v1H3z"/>
		<path d="M83 34h1v1h-1z"/>
		<path d="M3 35h25v1H3z"/>
		<path d="M28 35h1v1h-1z"/>
		<path d="M35 35h47v5H35z"/>
		<path d="M94 35h3v34h-3z"/>
		<path d="M2 36h25v1H2z"/>
		<path d="M27 36h1v1h-1z"/>
		<path d="M98 36h1v27h-1z"/>
		<path d="M2 37h24v1H2z"/>
		<path d="M26 37h1v1h-1z"/>
		<path d="M34 37h48v3H34z"/>
		<path d="M2 38h23v1H2z"/>
		<path d="M25 38h1v1h-1z"/>
		<path d="M82 38h1v1h-1z"/>
		<path d="M2 39h21v1H2z"/>
		<path d="M23 39h1v1h-1z"/>
		<path d="M93 39h5v27h-5z"/>
		<path d="M1 40h21v1H1z"/>
		<path d="M22 40h1v1h-1z"/>
		<path d="M33 40h48v3H33z"/>
		<path d="M81 40h1v1h-1z"/>
		<path d="M99 40h1v19h-1z"/>
		<path d="M1 41h19v1H1z"/>
		<path d="M20 41h1v1h-1z"/>
		<path d="M1 42h17v1H1z"/>
		<path d="M18 42h1v1h-1z"/>
		<path d="M32 42h48v2H32z"/>
		<path d="M92 42h7v21h-7z"/>
		<path d="M1 43h15v1H1z"/>
		<path d="M16 43h1v1h-1z"/>
		<path d="M80 43h1v1h-1z"/>
		<path d="M1 44h13v1H1z"/>
		<path d="M14 44h1v1h-1z"/>
		<path d="M31 44h48v1H31z"/>
		<path d="M79 44h1v1h-1z"/>
		<path d="M1 45h10v1H1z"/>
		<path d="M11 45h1v1h-1z"/>
		<path d="M31 45h47v1H31z"/>
		<path d="M91 45h8v18h-8z"/>
		<path d="M1 46h7v2H1z"/>
		<path d="M8 46h1v1H8z"/>
		<path d="M39 46h39v2H39z"/>
		<path d="M78 46h1v1h-1z"/>
		<path d="M38 47h39v2H38z"/>
		<path d="M90 47h10v12H90z"/>
		<path d="M100 47h1v5h-1z"/>
		<path d="M0 48h7v2H0z"/>
		<path d="M7 48h1v14H7z"/>
		<path d="M77 48h1v1h-1z"/>
		<path d="M89 48h11v11H89z"/>
		<path d="M38 49h38v2H38z"/>
		<path d="M76 49h1v1h-1z"/>
		<path d="M0 50h12v1H0z"/>
		<path d="M12 50h1v1h-1z"/>
		<path d="M28 50h47v2H28z"/>
		<path d="M88 50h12v9H88z"/>
		<path d="M1 51h10v3H1z"/>
		<path d="M11 51h1v1h-1z"/>
		<path d="M75 51h1v1h-1z"/>
		<path d="M11 52h1v1h-1z"/>
		<path d="M27 52h47v1H27z"/>
		<path d="M74 52h1v1h-1z"/>
		<path d="M87 52h13v7H87z"/>
		<path d="M100 52h1v1h-1z"/>
		<path d="M27 53h46v1H27z"/>
		<path d="M73 53h1v1h-1z"/>
		<path d="M86 53h13v10H86z"/>
		<path d="M1 54h9v2H1z"/>
		<path d="M10 54h1v1h-1z"/>
		<path d="M27 54h45v1H27z"/>
		<path d="M72 54h1v1h-1z"/>
		<path d="M26 55h45v1H26z"/>
		<path d="M71 55h1v1h-1z"/>
		<path d="M85 55h14v8H85z"/>
		<path d="M1 56h8v3H1z"/>
		<path d="M9 56h1v1H9z"/>
		<path d="M26 56h44v1H26z"/>
		<path d="M70 56h1v1h-1z"/>
		<path d="M84 56h15v7H84z"/>
		<path d="M25 57h44v1H25z"/>
		<path d="M69 57h1v1h-1z"/>
		<path d="M83 57h16v6H83z"/>
		<path d="M25 58h43v1H25z"/>
		<path d="M68 58h1v1h-1z"/>
		<path d="M1 59h7v1H1z"/>
		<path d="M8 59h1v1H8z"/>
		<path d="M24 59h43v1H24z"/>
		<path d="M67 59h1v1h-1z"/>
		<path d="M82 59h17v4H82z"/>
		<path d="M99 59h1v1h-1z"/>
		<path d="M2 60h5v3H2z"/>
		<path d="M24 60h42v1H24z"/>
		<path d="M66 60h1v1h-1z"/>
		<path d="M81 60h17v6H81z"/>
		<path d="M24 61h41v1H24z"/>
		<path d="M65 61h1v1h-1z"/>
		<path d="M80 61h18v5H80z"/>
		<path d="M7 62h1v1H7z"/>
		<path d="M23 62h41v1H23z"/>
		<path d="M64 62h1v1h-1z"/>
		<path d="M79 62h19v4H79z"/>
		<path d="M2 63h4v1H2z"/>
		<path d="M6 63h1v9H6z"/>
		<path d="M23 63h40v1H23z"/>
		<path d="M63 63h1v1h-1z"/>
		<path d="M78 63h20v3H78z"/>
		<path d="M98 63h1v1h-1z"/>
		<path d="M3 64h3v2H3z"/>
		<path d="M23 64h38v1H23z"/>
		<path d="M61 64h1v1h-1z"/>
		<path d="M77 64h20v5H77z"/>
		<path d="M23 65h37v1H23z"/>
		<path d="M60 65h1v1h-1z"/>
		<path d="M76 65h21v4H76z"/>
		<path d="M3 66h3v1H3z"/>
		<path d="M23 66h36v1H23z"/>
		<path d="M59 66h1v1h-1z"/>
		<path d="M75 66h22v3H75z"/>
		<path d="M97 66h1v1h-1z"/>
		<path d="M4 67h2v1H4z"/>
		<path d="M23 67h34v1H23z"/>
		<path d="M57 67h1v1h-1z"/>
		<path d="M74 67h22v4H74z"/>
		<path d="M4 68h2v1H4z"/>
		<path d="M23 68h33v1H23z"/>
		<path d="M56 68h1v1h-1z"/>
		<path d="M73 68h23v3H73z"/>
		<path d="M5 69h1v1H5z"/>
		<path d="M23 69h31v1H23z"/>
		<path d="M54 69h1v1h-1z"/>
		<path d="M72 69h24v2H72z"/>
		<path d="M96 69h1v1h-1z"/>
		<path d="M5 70h1v1H5z"/>
		<path d="M23 70h29v1H23z"/>
		<path d="M52 70h1v1h-1z"/>
		<path d="M70 70h25v3H70z"/>
		<path d="M23 71h27v1H23z"/>
		<path d="M50 71h1v1h-1z"/>
		<path d="M69 71h26v2H69z"/>
		<path d="M95 71h1v1h-1z"/>
		<path d="M6 72h1v1H6z"/>
		<path d="M24 72h24v1H24z"/>
		<path d="M48 72h1v1h-1z"/>
		<path d="M68 72h26v2H68z"/>
		<path d="M24 73h22v1H24z"/>
		<path d="M46 73h1v1h-1z"/>
		<path d="M67 73h27v1H67z"/>
		<path d="M94 73h1v1h-1z"/>
		<path d="M25 74h19v1H25z"/>
		<path d="M44 74h1v1h-1z"/>
		<path d="M65 74h28v2H65z"/>
		<path d="M93 74h1v1h-1z"/>
		<path d="M27 75h14v1H27z"/>
		<path d="M41 75h1v1h-1z"/>
		<path d="M64 75h28v2H64z"/>
		<path d="M30 76h7v1h-7z"/>
		<path d="M37 76h1v1h-1z"/>
		<path d="M62 76h30v1H62z"/>
		<path d="M92 76h1v1h-1z"/>
		<path d="M61 77h30v2H61z"/>
		<path d="M91 77h1v1h-1z"/>
		<path d="M59 78h31v2H59z"/>
		<path d="M57 79h33v1H57z"/>
		<path d="M90 79h1v1h-1z"/>
		<path d="M55 80h34v1H55z"/>
		<path d="M89 80h1v1h-1z"/>
		<path d="M53 81h35v1H53z"/>
		<path d="M88 81h1v1h-1z"/>
		<path d="M51 82h36v1H51z"/>
		<path d="M87 82h1v1h-1z"/>
		<path d="M49 83h37v1H49z"/>
		<path d="M86 83h1v1h-1z"/>
		<path d="M47 84h38v1H47z"/>
		<path d="M85 84h1v1h-1z"/>
		<path d="M44 85h40v1H44z"/>
		<path d="M84 85h1v1h-1z"/>
		<path d="M40 86h43v1H40z"/>
		<path d="M83 86h1v1h-1z"/>
		<path d="M18 87h1v1h-1z"/>
		<path d="M19 87h1v1h-1z"/>
		<path d="M36 87h46v1H36z"/>
		<path d="M82 87h1v1h-1z"/>
		<path d="M19 88h62v1H19z"/>
		<path d="M81 88h1v1h-1z"/>
		<path d="M21 89h59v1H21z"/>
		<path d="M80 89h1v1h-1z"/>
		<path d="M22 90h56v1H22z"/>
		<path d="M78 90h1v1h-1z"/>
		<path d="M23 91h54v1H23z"/>
		<path d="M77 91h1v1h-1z"/>
		<path d="M25 92h50v1H25z"/>
		<path d="M75 92h1v1h-1z"/>
		<path d="M27 93h46v1H27z"/>
		<path d="M73 93h1v1h-1z"/>
		<path d="M29 94h42v1H29z"/>
		<path d="M71 94h1v1h-1z"/>
		<path d="M31 95h38v1H31z"/>
		<path d="M69 95h1v1h-1z"/>
		<path d="M33 96h34v1H33z"/>
		<path d="M67 96h1v1h-1z"/>
		<path d="M37 97h27v1H37z"/>
		<path d="M64 97h1v1h-1z"/>
		<path d="M41 98h19v1H41z"/>
		<path d="M60 98h1v1h-1z"/>
		<path d="M49 99h3v1h-3z"/>
		<path d="M52 99h1v1h-1z"/>
	</g>
	<g fill="#040609">
		<path d="M143 23h1v1h-1z"/>
		<path d="M167 23h1v1h-1z"/>
		<path d="M224 23h1v1h-1z"/>
		<path d="M263 23h1v1h-1z"/>
		<path d="M275 23h1v1h-1z"/>
		<path d="M245 44h1v1h-1z"/>
		<path d="M237 46h1v1h-1z"/>
		<path d="M245 67h1v1h-1z"/>
		<path d="M196 72h1v1h-1z"/>
		<path d="M235 73h1v1h-1z"/>
	</g>
	<g fill="#e45560">
		<path d="M94 75h1v1h-1z"/>
		<path d="M67 97h1v1h-1z"/>
	</g>
	<path fill="#e76f72" d="M7 76h1v1H7z"/>
	<g fill="#dc373e">
		<path d="M70 4h1v1h-1z"/>
		<path d="M79 9h1v1h-1z"/>
		<path d="M15 14h1v1h-1z"/>
		<path d="M14 15h1v1h-1z"/>
		<path d="M13 16h1v1h-1z"/>
		<path d="M2 35h1v1H2z"/>
	</g>
	<path fill="#ec9093" d="M58 0h1v1h-1z"/>
	<path fill="#e87d82" d="M27 5h1v1h-1z"/>
	<g fill="#030707">
		<path d="M169 23h1v1h-1z"/>
		<path d="M283 36h1v1h-1z"/>
		<path d="M238 69h1v1h-1z"/>
		<path d="M241 73h1v1h-1z"/>
		<path d="M286 73h1v1h-1z"/>
		<path d="M276 81h1v1h-1z"/>
		<path d="M281 84h1v1h-1z"/>
	</g>
	<g fill="#f3babd">
		<path d="M84 28h1v1h-1z"/>
		<path d="M34 35h1v1h-1z"/>
		<path d="M93 36h1v1h-1z"/>
		<path d="M27 50h1v1h-1z"/>
		<path d="M81 58h1v1h-1z"/>
		<path d="M8 62h1v1H8z"/>
		<path d="M55 79h1v1h-1z"/>
	</g>
	<path fill="#e8797e" d="M100 41h1v1h-1z"/>
	<path fill="#f8d9db" d="M8 77h1v1H8z"/>
	<path fill="#df5860" d="M83 88h1v1h-1z"/>
	<g fill="#e14f55">
		<path d="M46 0h1v1h-1z"/>
		<path d="M54 0h1v1h-1z"/>
		<path d="M61 1h1v1h-1z"/>
		<path d="M17 12h1v1h-1z"/>
	</g>
	<g fill="#dd393f">
		<path d="M48 0h1v1h-1z"/>
		<path d="M52 0h1v1h-1z"/>
		<path d="M76 12h1v1h-1z"/>
		<path d="M61 65h1v1h-1z"/>
		<path d="M20 87h1v1h-1z"/>
	</g>
	<g fill="#e2555b">
		<path d="M48 19h1v1h-1z"/>
		<path d="M94 33h1v1h-1z"/>
		<path d="M45 84h1v1h-1z"/>
		<path d="M34 87h1v1h-1z"/>
	</g>
	<g fill="#de3f46">
		<path d="M93 38h1v1h-1z"/>
		<path d="M84 55h1v1h-1z"/>
		<path d="M23 61h1v1h-1z"/>
		<path d="M79 61h1v1h-1z"/>
		<path d="M74 66h1v1h-1z"/>
		<path d="M64 74h1v1h-1z"/>
		<path d="M56 79h1v1h-1z"/>
		<path d="M39 86h1v1h-1z"/>
	</g>
	<g fill="#e15055">
		<path d="M73 94h1v1h-1z"/>
		<path d="M38 98h1v1h-1z"/>
		<path d="M62 98h1v1h-1z"/>
	</g>
	<g fill="#e35d62">
		<path d="M45 0h1v1h-1z"/>
		<path d="M55 0h1v1h-1z"/>
		<path d="M35 2h1v1h-1z"/>
		<path d="M32 3h1v1h-1z"/>
		<path d="M68 3h1v1h-1z"/>
	</g>
	<g fill="#070707">
		<path d="M233 23h1v1h-1z"/>
		<path d="M282 24h1v1h-1z"/>
		<path d="M177 26h1v1h-1z"/>
		<path d="M237 30h1v1h-1z"/>
		<path d="M171 31h1v1h-1z"/>
		<path d="M290 31h1v1h-1z"/>
		<path d="M282 33h1v1h-1z"/>
		<path d="M158 37h1v1h-1z"/>
		<path d="M283 37h1v1h-1z"/>
		<path d="M281 48h1v1h-1z"/>
		<path d="M240 52h1v1h-1z"/>
		<path d="M133 57h1v1h-1z"/>
		<path d="M171 57h1v1h-1z"/>
		<path d="M189 57h1v1h-1z"/>
		<path d="M297 61h1v1h-1z"/>
		<path d="M278 65h1v1h-1z"/>
		<path d="M247 71h1v1h-1z"/>
		<path d="M268 71h1v1h-1z"/>
		<path d="M272 74h1v1h-1z"/>
		<path d="M125 75h1v1h-1z"/>
		<path d="M130 75h1v1h-1z"/>
		<path d="M272 76h1v1h-1z"/>
		<path d="M244 78h1v1h-1z"/>
		<path d="M273 79h1v1h-1z"/>
		<path d="M240 80h1v1h-1z"/>
		<path d="M139 84h1v1h-1z"/>
		<path d="M242 84h1v1h-1z"/>
	</g>
	<g fill="#05050b">
		<path d="M245 23h1v1h-1z"/>
		<path d="M283 43h1v1h-1z"/>
		<path d="M280 49h1v1h-1z"/>
		<path d="M127 57h5v1h-5z"/>
		<path d="M132 57h1v1h-1z"/>
		<path d="M151 57h6v1h-6z"/>
		<path d="M157 57h1v1h-1z"/>
		<path d="M172 57h7v1h-7z"/>
		<path d="M179 57h1v1h-1z"/>
		<path d="M190 57h23v1h-23z"/>
		<path d="M213 57h1v1h-1z"/>
		<path d="M225 57h4v1h-4z"/>
		<path d="M229 57h1v1h-1z"/>
		<path d="M244 57h7v1h-7z"/>
		<path d="M251 57h1v1h-1z"/>
		<path d="M264 57h10v1h-10z"/>
		<path d="M274 57h1v1h-1z"/>
		<path d="M293 58h1v1h-1z"/>
		<path d="M139 67h1v16h-1z"/>
		<path d="M283 67h1v1h-1z"/>
		<path d="M284 68h1v1h-1z"/>
		<path d="M278 69h1v1h-1z"/>
		<path d="M208 72h1v1h-1z"/>
		<path d="M129 75h1v1h-1z"/>
		<path d="M139 83h1v1h-1z"/>
	</g>
	<g fill="#040707">
		<path d="M287 27h1v1h-1z"/>
		<path d="M178 28h1v1h-1z"/>
		<path d="M168 29h1v1h-1z"/>
		<path d="M196 29h1v1h-1z"/>
		<path d="M238 32h1v1h-1z"/>
		<path d="M241 38h1v1h-1z"/>
		<path d="M173 43h1v1h-1z"/>
		<path d="M291 43h1v1h-1z"/>
		<path d="M240 51h1v1h-1z"/>
		<path d="M288 58h1v1h-1z"/>
		<path d="M201 65h1v1h-1z"/>
		<path d="M246 68h1v1h-1z"/>
		<path d="M198 69h1v1h-1z"/>
		<path d="M272 73h1v1h-1z"/>
		<path d="M246 74h1v1h-1z"/>
		<path d="M134 75h1v1h-1z"/>
		<path d="M130 77h1v1h-1z"/>
		<path d="M286 77h1v1h-1z"/>
		<path d="M192 78h1v1h-1z"/>
		<path d="M195 83h1v1h-1z"/>
		<path d="M242 83h1v1h-1z"/>
		<path d="M128 84h1v1h-1z"/>
		<path d="M196 84h1v1h-1z"/>
		<path d="M197 84h1v1h-1z"/>
	</g>
	<g fill="#050909">
		<path d="M171 35h1v1h-1z"/>
		<path d="M168 37h1v1h-1z"/>
		<path d="M298 62h1v1h-1z"/>
		<path d="M244 66h1v1h-1z"/>
		<path d="M241 82h1v1h-1z"/>
	</g>
	<g fill="#f7cdcf">
		<path d="M37 47h1v1h-1z"/>
		<path d="M88 48h1v1h-1z"/>
		<path d="M71 57h1v1h-1z"/>
		<path d="M70 58h1v1h-1z"/>
		<path d="M69 59h1v1h-1z"/>
		<path d="M60 76h1v1h-1z"/>
		<path d="M24 87h1v1h-1z"/>
	</g>
	<path fill="#eea4a8" d="M14 14h1v1h-1z"/>
	<g fill="#050608">
		<path d="M126 29h1v1h-1z"/>
		<path d="M196 30h1v6h-1z"/>
		<path d="M289 30h1v1h-1z"/>
		<path d="M172 33h1v1h-1z"/>
		<path d="M231 35h1v1h-1z"/>
		<path d="M196 36h1v1h-1z"/>
		<path d="M197 42h14v1h-14z"/>
		<path d="M211 42h1v1h-1z"/>
		<path d="M196 43h1v7h-1z"/>
		<path d="M283 45h1v1h-1z"/>
		<path d="M168 49h1v1h-1z"/>
		<path d="M196 50h1v1h-1z"/>
		<path d="M270 68h1v1h-1z"/>
		<path d="M274 69h1v1h-1z"/>
		<path d="M208 71h1v1h-1z"/>
		<path d="M134 73h1v1h-1z"/>
		<path d="M244 76h1v1h-1z"/>
		<path d="M285 79h1v1h-1z"/>
		<path d="M127 81h1v1h-1z"/>
		<path d="M202 81h1v1h-1z"/>
	</g>
	<g fill="#e77277">
		<path d="M12 52h1v1h-1z"/>
		<path d="M8 61h1v1H8z"/>
		<path d="M64 63h1v1h-1z"/>
		<path d="M7 65h1v1H7z"/>
	</g>
	<g fill="#ed9b9f">
		<path d="M15 13h1v1h-1z"/>
		<path d="M13 15h1v1h-1z"/>
		<path d="M4 28h1v1H4z"/>
		<path d="M1 36h1v1H1z"/>
	</g>
	<g fill="#faa">
		<path d="M98 32h1v1h-1z"/>
		<path d="M99 35h1v1h-1z"/>
		<path d="M100 39h1v1h-1z"/>
	</g>
	<g fill="#05050a">
		<path d="M291 34h1v1h-1z"/>
		<path d="M168 50h1v1h-1z"/>
		<path d="M291 64h1v1h-1z"/>
		<path d="M276 65h1v1h-1z"/>
		<path d="M272 66h1v1h-1z"/>
		<path d="M242 70h1v1h-1z"/>
	</g>
	<g fill="#fbe9ea">
		<path d="M28 37h1v1h-1z"/>
		<path d="M24 40h1v1h-1z"/>
		<path d="M31 41h1v1h-1z"/>
		<path d="M51 72h1v1h-1z"/>
		<path d="M37 77h1v1h-1z"/>
		<path d="M40 85h1v1h-1z"/>
	</g>
	<g fill="#e77276">
		<path d="M0 58h1v1H0z"/>
		<path d="M98 66h1v1h-1z"/>
	</g>
	<path fill="#e77077" d="M99 63h1v1h-1z"/>
	<g fill="#e3555b">
		<path d="M19 89h1v1h-1z"/>
		<path d="M29 95h1v1h-1z"/>
	</g>
	<g fill="#ea8689">
		<path d="M34 2h1v1h-1z"/>
		<path d="M66 2h1v1h-1z"/>
		<path d="M25 6h1v1h-1z"/>
	</g>
	<g fill="#000d0d">
		<path d="M174 24h1v1h-1z"/>
		<path d="M236 28h1v1h-1z"/>
		<path d="M289 29h1v1h-1z"/>
		<path d="M167 48h1v1h-1z"/>
		<path d="M288 52h1v1h-1z"/>
		<path d="M287 53h1v1h-1z"/>
		<path d="M194 67h1v1h-1z"/>
		<path d="M277 69h1v1h-1z"/>
		<path d="M286 78h1v1h-1z"/>
		<path d="M206 83h1v1h-1z"/>
		<path d="M272 84h1v1h-1z"/>
	</g>
	<g fill="#e35b61">
		<path d="M94 27h1v1h-1z"/>
		<path d="M34 36h1v1h-1z"/>
		<path d="M39 76h1v1h-1z"/>
		<path d="M42 85h1v1h-1z"/>
	</g>
	<g fill="#e97d82">
		<path d="M94 29h1v2h-1z"/>
		<path d="M94 31h1v1h-1z"/>
		<path d="M25 55h1v1h-1z"/>
		<path d="M22 64h1v1h-1z"/>
		<path d="M50 72h1v1h-1z"/>
		<path d="M33 87h1v1h-1z"/>
	</g>
	<g fill="#e66a73">
		<path d="M97 69h1v1h-1z"/>
		<path d="M5 73h1v1H5z"/>
		<path d="M84 87h1v1h-1z"/>
	</g>
	<path fill="#e46268" d="M15 85h1v1h-1z"/>
	<g fill="#e15258">
		<path d="M81 89h1v1h-1z"/>
		<path d="M27 94h1v1h-1z"/>
		<path d="M71 95h1v1h-1z"/>
		<path d="M57 99h1v1h-1z"/>
	</g>
	<g fill="#e5676d">
		<path d="M61 14h1v2h-1z"/>
		<path d="M61 16h1v1h-1z"/>
		<path d="M82 23h1v1h-1z"/>
		<path d="M33 38h1v1h-1z"/>
		<path d="M23 40h1v1h-1z"/>
	</g>
	<g fill="#e87a7f">
		<path d="M58 15h1v1h-1z"/>
		<path d="M77 18h1v1h-1z"/>
		<path d="M83 25h1v1h-1z"/>
		<path d="M8 48h1v1H8z"/>
		<path d="M10 56h1v1h-1z"/>
		<path d="M38 86h1v1h-1z"/>
	</g>
	<g fill="#fdf5f5">
		<path d="M67 15h1v1h-1z"/>
		<path d="M19 43h1v1h-1z"/>
		<path d="M29 45h1v1h-1z"/>
		<path d="M74 54h1v1h-1z"/>
		<path d="M83 55h1v1h-1z"/>
		<path d="M24 56h1v1h-1z"/>
	</g>
	<g fill="#000010">
		<path d="M150 23h1v1h-1z"/>
		<path d="M278 30h1v1h-1z"/>
		<path d="M281 32h1v1h-1z"/>
		<path d="M159 37h7v1h-7z"/>
		<path d="M166 37h1v1h-1z"/>
		<path d="M174 44h1v1h-1z"/>
		<path d="M175 46h1v1h-1z"/>
		<path d="M176 48h1v1h-1z"/>
		<path d="M177 50h1v1h-1z"/>
		<path d="M178 52h1v1h-1z"/>
		<path d="M179 54h1v1h-1z"/>
		<path d="M241 54h1v1h-1z"/>
		<path d="M180 56h1v1h-1z"/>
		<path d="M295 62h1v1h-1z"/>
		<path d="M127 67h1v1h-1z"/>
		<path d="M200 69h1v1h-1z"/>
		<path d="M247 70h1v1h-1z"/>
		<path d="M131 71h1v1h-1z"/>
		<path d="M204 72h1v1h-1z"/>
		<path d="M236 73h3v1h-3z"/>
		<path d="M239 73h1v1h-1z"/>
		<path d="M196 75h1v1h-1z"/>
		<path d="M277 85h1v1h-1z"/>
	</g>
	<g fill="#e8767a">
		<path d="M73 5h1v1h-1z"/>
		<path d="M81 10h1v1h-1z"/>
		<path d="M10 19h1v1h-1z"/>
	</g>
	<g fill="#050709">
		<path d="M276 23h1v1h-1z"/>
		<path d="M143 24h1v4h-1z"/>
		<path d="M173 24h1v1h-1z"/>
		<path d="M224 24h1v32h-1z"/>
		<path d="M263 24h1v32h-1z"/>
		<path d="M284 25h1v1h-1z"/>
		<path d="M235 27h1v1h-1z"/>
		<path d="M143 28h1v1h-1z"/>
		<path d="M235 28h1v1h-1z"/>
		<path d="M236 29h1v1h-1z"/>
		<path d="M271 29h3v1h-3z"/>
		<path d="M274 29h1v1h-1z"/>
		<path d="M276 29h1v1h-1z"/>
		<path d="M126 30h1v26h-1z"/>
		<path d="M133 30h1v26h-1z"/>
		<path d="M279 30h1v1h-1z"/>
		<path d="M290 32h1v1h-1z"/>
		<path d="M230 35h1v21h-1z"/>
		<path d="M234 40h1v1h-1z"/>
		<path d="M159 43h5v1h-5z"/>
		<path d="M164 43h1v1h-1z"/>
		<path d="M173 44h1v1h-1z"/>
		<path d="M174 46h1v1h-1z"/>
		<path d="M175 48h1v1h-1z"/>
		<path d="M282 48h1v1h-1z"/>
		<path d="M290 48h1v1h-1z"/>
		<path d="M176 50h1v1h-1z"/>
		<path d="M196 51h1v1h-1z"/>
		<path d="M177 52h1v1h-1z"/>
		<path d="M170 53h1v1h-1z"/>
		<path d="M241 53h1v1h-1z"/>
		<path d="M178 54h1v1h-1z"/>
		<path d="M242 55h1v1h-1z"/>
		<path d="M282 55h1v1h-1z"/>
		<path d="M126 56h1v1h-1z"/>
		<path d="M133 56h1v1h-1z"/>
		<path d="M179 56h1v1h-1z"/>
		<path d="M224 56h1v1h-1z"/>
		<path d="M230 56h1v1h-1z"/>
		<path d="M263 56h1v1h-1z"/>
		<path d="M278 56h1v1h-1z"/>
		<path d="M280 56h1v1h-1z"/>
		<path d="M294 58h1v1h-1z"/>
		<path d="M290 60h1v3h-1z"/>
		<path d="M298 61h1v1h-1z"/>
		<path d="M299 61h1v2h-1z"/>
		<path d="M290 63h1v1h-1z"/>
		<path d="M299 63h1v1h-1z"/>
		<path d="M121 66h4v1h-4z"/>
		<path d="M125 66h1v1h-1z"/>
		<path d="M134 66h4v1h-4z"/>
		<path d="M138 66h1v1h-1z"/>
		<path d="M165 66h1v1h-1z"/>
		<path d="M166 66h1v1h-1z"/>
		<path d="M197 66h1v1h-1z"/>
		<path d="M232 66h8v1h-8z"/>
		<path d="M240 66h1v1h-1z"/>
		<path d="M274 66h1v1h-1z"/>
		<path d="M164 67h1v16h-1z"/>
		<path d="M167 67h1v16h-1z"/>
		<path d="M231 67h1v16h-1z"/>
		<path d="M271 67h1v1h-1z"/>
		<path d="M194 68h1v1h-1z"/>
		<path d="M283 68h1v1h-1z"/>
		<path d="M127 69h1v1h-1z"/>
		<path d="M193 69h1v1h-1z"/>
		<path d="M235 69h1v1h-1z"/>
		<path d="M235 70h1v2h-1z"/>
		<path d="M124 72h1v2h-1z"/>
		<path d="M235 72h1v1h-1z"/>
		<path d="M135 73h1v10h-1z"/>
		<path d="M124 74h1v1h-1z"/>
		<path d="M282 75h1v1h-1z"/>
		<path d="M235 78h1v5h-1z"/>
		<path d="M208 79h1v1h-1z"/>
		<path d="M207 81h1v1h-1z"/>
		<path d="M245 81h1v1h-1z"/>
		<path d="M135 83h1v1h-1z"/>
		<path d="M164 83h1v1h-1z"/>
		<path d="M167 83h1v1h-1z"/>
		<path d="M231 83h1v1h-1z"/>
		<path d="M235 83h1v1h-1z"/>
		<path d="M198 84h1v1h-1z"/>
	</g>
	<g fill="#e7757a">
		<path d="M94 28h1v1h-1z"/>
		<path d="M26 38h1v1h-1z"/>
		<path d="M32 40h1v1h-1z"/>
		<path d="M90 45h1v1h-1z"/>
		<path d="M79 46h1v1h-1z"/>
		<path d="M69 70h1v1h-1z"/>
		<path d="M59 77h1v1h-1z"/>
	</g>
	<g fill="#e98185">
		<path d="M31 42h1v1h-1z"/>
		<path d="M22 70h1v1h-1z"/>
		<path d="M65 73h1v1h-1z"/>
	</g>
	<g fill="#e87177">
		<path d="M100 59h1v1h-1z"/>
		<path d="M2 66h1v1H2z"/>
		<path d="M96 71h1v1h-1z"/>
		<path d="M95 73h1v1h-1z"/>
	</g>
	<g fill="#df5960">
		<path d="M89 82h1v1h-1z"/>
		<path d="M16 87h1v1h-1z"/>
		<path d="M79 91h1v1h-1z"/>
		<path d="M74 94h1v1h-1z"/>
		<path d="M72 95h1v1h-1z"/>
		<path d="M33 97h1v1h-1z"/>
	</g>
	<g fill="#dc3139">
		<path d="M85 14h1v1h-1z"/>
		<path d="M57 17h1v1h-1z"/>
		<path d="M74 17h1v1h-1z"/>
		<path d="M83 26h1v1h-1z"/>
		<path d="M28 36h1v1h-1z"/>
		<path d="M17 43h1v1h-1z"/>
		<path d="M72 55h1v1h-1z"/>
		<path d="M80 60h1v1h-1z"/>
		<path d="M73 67h1v1h-1z"/>
		<path d="M23 72h1v1h-1z"/>
	</g>
	<g fill="#d9232b">
		<path d="M33 3h1v1h-1z"/>
		<path d="M70 12h1v1h-1z"/>
		<path d="M77 12h1v1h-1z"/>
		<path d="M4 30h1v1H4z"/>
		<path d="M31 43h1v1h-1z"/>
		<path d="M8 47h1v1H8z"/>
		<path d="M10 55h1v1h-1z"/>
		<path d="M98 64h1v1h-1z"/>
		<path d="M72 68h1v1h-1z"/>
		<path d="M51 71h1v1h-1z"/>
		<path d="M85 85h1v1h-1z"/>
		<path d="M26 93h1v1h-1z"/>
	</g>
	<g fill="#e15056">
		<path d="M73 12h1v1h-1z"/>
		<path d="M50 18h1v1h-1z"/>
		<path d="M53 18h1v1h-1z"/>
		<path d="M65 62h1v1h-1z"/>
		<path d="M22 66h1v1h-1z"/>
		<path d="M54 80h1v1h-1z"/>
		<path d="M52 81h1v1h-1z"/>
	</g>
	<g fill="#0a0a0a">
		<path d="M178 27h1v1h-1z"/>
		<path d="M280 31h1v1h-1z"/>
		<path d="M231 36h1v1h-1z"/>
		<path d="M167 37h1v1h-1z"/>
		<path d="M126 57h1v1h-1z"/>
		<path d="M243 57h1v1h-1z"/>
		<path d="M298 58h1v1h-1z"/>
		<path d="M296 60h1v1h-1z"/>
		<path d="M198 65h1v1h-1z"/>
		<path d="M205 66h1v1h-1z"/>
		<path d="M192 70h1v1h-1z"/>
		<path d="M247 72h1v1h-1z"/>
		<path d="M245 76h1v1h-1z"/>
		<path d="M274 80h1v1h-1z"/>
	</g>
	<path fill="#e1555a" d="M39 1h1v1h-1z"/>
	<g fill="#e88084">
		<path d="M29 4h1v1h-1z"/>
		<path d="M75 6h1v1h-1z"/>
		<path d="M19 10h1v1h-1z"/>
	</g>
	<g fill="#e46066">
		<path d="M65 13h1v1h-1z"/>
		<path d="M37 48h1v1h-1z"/>
		<path d="M77 49h1v1h-1z"/>
		<path d="M13 50h1v1h-1z"/>
		<path d="M9 58h1v1H9z"/>
		<path d="M22 65h1v1h-1z"/>
	</g>
	<g fill="#ed9699">
		<path d="M85 13h1v1h-1z"/>
		<path d="M87 15h1v1h-1z"/>
		<path d="M95 26h1v1h-1z"/>
		<path d="M100 40h1v1h-1z"/>
	</g>
	<g fill="#080808">
		<path d="M150 24h1v32h-1z"/>
		<path d="M117 29h8v1h-8z"/>
		<path d="M125 29h1v1h-1z"/>
		<path d="M134 29h8v1h-8z"/>
		<path d="M142 29h1v1h-1z"/>
		<path d="M159 29h7v1h-7z"/>
		<path d="M166 29h1v1h-1z"/>
		<path d="M197 29h15v1h-15z"/>
		<path d="M212 29h1v1h-1z"/>
		<path d="M241 37h1v1h-1z"/>
		<path d="M278 50h1v1h-1z"/>
		<path d="M214 51h1v1h-1z"/>
		<path d="M150 56h1v1h-1z"/>
		<path d="M275 57h1v1h-1z"/>
		<path d="M120 67h1v16h-1z"/>
		<path d="M201 69h1v1h-1z"/>
		<path d="M276 69h1v1h-1z"/>
		<path d="M242 72h1v1h-1z"/>
		<path d="M272 75h1v1h-1z"/>
		<path d="M126 79h1v1h-1z"/>
		<path d="M284 82h1v1h-1z"/>
		<path d="M120 83h1v1h-1z"/>
		<path d="M127 83h1v1h-1z"/>
	</g>
	<g fill="#e77278">
		<path d="M3 31h1v1H3z"/>
		<path d="M1 37h1v1H1z"/>
	</g>
	<g fill="#e04c52">
		<path d="M0 44h1v1H0z"/>
		<path d="M0 55h1v1H0z"/>
		<path d="M100 56h1v1h-1z"/>
		<path d="M1 61h1v1H1z"/>
		<path d="M96 70h1v1h-1z"/>
	</g>
	<g fill="#e04c53">
		<path d="M15 44h1v1h-1z"/>
		<path d="M88 49h1v1h-1z"/>
		<path d="M27 51h1v1h-1z"/>
		<path d="M24 58h1v1h-1z"/>
		<path d="M90 80h1v1h-1z"/>
		<path d="M22 91h1v1h-1z"/>
	</g>
	<g fill="#db2d34">
		<path d="M40 1h1v1h-1z"/>
		<path d="M64 13h1v1h-1z"/>
		<path d="M69 16h1v1h-1z"/>
		<path d="M19 42h1v1h-1z"/>
		<path d="M67 60h1v1h-1z"/>
		<path d="M47 73h1v1h-1z"/>
		<path d="M58 78h1v1h-1z"/>
		<path d="M48 83h1v1h-1z"/>
	</g>
	<path fill="#e2555c" d="M6 74h1v1H6z"/>
	<g fill="#d82028">
		<path d="M67 3h1v1h-1z"/>
		<path d="M20 10h1v1h-1z"/>
		<path d="M54 16h1v1h-1z"/>
		<path d="M44 22h1v1h-1z"/>
		<path d="M6 26h1v1H6z"/>
		<path d="M99 39h1v1h-1z"/>
		<path d="M0 47h1v1H0z"/>
		<path d="M11 53h1v1h-1z"/>
		<path d="M85 54h1v1h-1z"/>
		<path d="M4 69h1v1H4z"/>
		<path d="M49 72h1v1h-1z"/>
		<path d="M93 75h1v1h-1z"/>
		<path d="M91 78h1v1h-1z"/>
		<path d="M86 84h1v1h-1z"/>
		<path d="M74 93h1v1h-1z"/>
		<path d="M28 94h1v1h-1z"/>
	</g>
	<g fill="#ec9ca1">
		<path d="M12 16h1v1h-1z"/>
		<path d="M0 40h1v1H0z"/>
	</g>
	<g fill="#e56a70">
		<path d="M55 16h1v1h-1z"/>
		<path d="M71 16h1v1h-1z"/>
		<path d="M56 17h1v1h-1z"/>
		<path d="M94 32h1v1h-1z"/>
		<path d="M83 56h1v1h-1z"/>
		<path d="M57 68h1v1h-1z"/>
		<path d="M21 87h1v1h-1z"/>
	</g>
	<g fill="#f1aeb1">
		<path d="M80 20h1v1h-1z"/>
		<path d="M16 44h1v1h-1z"/>
		<path d="M31 77h1v1h-1z"/>
		<path d="M49 82h1v1h-1z"/>
	</g>
	<path fill="#e04b51" d="M99 38h1v1h-1z"/>
	<g fill="#f9dfe0">
		<path d="M32 39h1v1h-1z"/>
		<path d="M44 75h1v1h-1z"/>
		<path d="M25 87h1v1h-1z"/>
		<path d="M29 87h1v1h-1z"/>
	</g>
	<g fill="#e46168">
		<path d="M86 85h1v1h-1z"/>
		<path d="M20 90h1v1h-1z"/>
		<path d="M23 92h1v1h-1z"/>
	</g>
	<g fill="#f3b4b4">
		<path d="M33 2h1v1h-1z"/>
		<path d="M16 12h1v1h-1z"/>
		<path d="M8 21h1v1H8z"/>
		<path d="M94 24h1v1h-1z"/>
	</g>
	<g fill="#e45b61">
		<path d="M31 96h1v1h-1z"/>
		<path d="M37 98h1v1h-1z"/>
		<path d="M63 98h1v1h-1z"/>
	</g>
	<g fill="#e2595f">
		<path d="M65 2h1v1h-1z"/>
		<path d="M82 11h1v1h-1z"/>
		<path d="M11 18h1v1h-1z"/>
		<path d="M8 22h1v1H8z"/>
		<path d="M95 27h1v1h-1z"/>
		<path d="M0 43h1v1H0z"/>
		<path d="M0 56h1v1H0z"/>
		<path d="M4 70h1v1H4z"/>
		<path d="M5 72h1v1H5z"/>
	</g>
	<g fill="#e46469">
		<path d="M78 8h1v1h-1z"/>
		<path d="M18 11h1v1h-1z"/>
	</g>
	<g fill="#f6cbcd">
		<path d="M79 13h1v1h-1z"/>
		<path d="M83 38h1v1h-1z"/>
		<path d="M81 43h1v1h-1z"/>
		<path d="M7 72h1v1H7z"/>
		<path d="M30 77h1v1h-1z"/>
		<path d="M53 80h1v1h-1z"/>
		<path d="M16 85h1v1h-1z"/>
	</g>
	<g fill="#e35e63">
		<path d="M50 19h1v1h-1z"/>
		<path d="M81 42h1v1h-1z"/>
		<path d="M80 44h1v1h-1z"/>
		<path d="M86 52h1v1h-1z"/>
		<path d="M26 53h1v1h-1z"/>
		<path d="M22 69h1v1h-1z"/>
	</g>
	<g fill="#de4248">
		<path d="M99 61h1v1h-1z"/>
		<path d="M95 72h1v1h-1z"/>
	</g>
	<g fill="#dc353c">
		<path d="M49 0h2v1h-2z"/>
		<path d="M51 0h1v1h-1z"/>
		<path d="M26 6h1v1h-1z"/>
		<path d="M71 12h1v1h-1z"/>
		<path d="M84 13h1v1h-1z"/>
		<path d="M48 20h1v1h-1z"/>
		<path d="M21 41h1v1h-1z"/>
	</g>
	<g fill="#f7d2d4">
		<path d="M73 16h1v1h-1z"/>
		<path d="M84 34h1v1h-1z"/>
		<path d="M33 37h1v1h-1z"/>
		<path d="M80 45h1v1h-1z"/>
		<path d="M62 65h1v1h-1z"/>
		<path d="M72 67h1v1h-1z"/>
		<path d="M7 68h1v1H7z"/>
		<path d="M63 74h1v1h-1z"/>
		<path d="M41 76h1v1h-1z"/>
	</g>
	<g fill="#040808">
		<path d="M252 23h1v1h-1z"/>
		<path d="M278 23h1v1h-1z"/>
		<path d="M158 30h1v6h-1z"/>
		<path d="M158 36h1v1h-1z"/>
		<path d="M234 41h1v1h-1z"/>
		<path d="M158 44h1v12h-1z"/>
		<path d="M214 52h1v4h-1z"/>
		<path d="M158 56h1v1h-1z"/>
		<path d="M214 56h1v1h-1z"/>
		<path d="M295 58h1v1h-1z"/>
		<path d="M296 64h1v1h-1z"/>
		<path d="M199 65h1v1h-1z"/>
		<path d="M132 68h1v1h-1z"/>
		<path d="M207 68h1v1h-1z"/>
		<path d="M236 69h1v1h-1z"/>
		<path d="M237 69h1v1h-1z"/>
		<path d="M205 72h2v1h-2z"/>
		<path d="M207 72h1v1h-1z"/>
		<path d="M133 79h1v1h-1z"/>
		<path d="M268 79h1v1h-1z"/>
		<path d="M245 80h1v1h-1z"/>
		<path d="M200 81h1v1h-1z"/>
		<path d="M269 81h1v1h-1z"/>
		<path d="M132 83h1v1h-1z"/>
	</g>
	<g fill="#e4696e">
		<path d="M6 25h1v1H6z"/>
		<path d="M2 34h1v1H2z"/>
		<path d="M100 42h1v1h-1z"/>
	</g>
	<g fill="#ec9396">
		<path d="M96 28h1v1h-1z"/>
		<path d="M2 33h1v1H2z"/>
	</g>
	<g fill="#efa4a7">
		<path d="M84 29h1v1h-1z"/>
		<path d="M22 63h1v1h-1z"/>
		<path d="M63 64h1v1h-1z"/>
		<path d="M57 78h1v1h-1z"/>
		<path d="M44 84h1v1h-1z"/>
	</g>
	<g fill="#fae0e2">
		<path d="M63 14h1v1h-1z"/>
		<path d="M85 15h1v1h-1z"/>
		<path d="M54 17h1v1h-1z"/>
		<path d="M92 39h1v1h-1z"/>
		<path d="M10 57h1v1h-1z"/>
		<path d="M67 61h1v1h-1z"/>
		<path d="M7 71h1v1H7z"/>
		<path d="M46 83h1v1h-1z"/>
	</g>
	<g fill="#d71a22">
		<path d="M77 8h1v1h-1z"/>
		<path d="M54 18h1v1h-1z"/>
		<path d="M95 28h1v1h-1z"/>
		<path d="M81 41h1v1h-1z"/>
		<path d="M79 45h1v1h-1z"/>
		<path d="M37 49h1v1h-1z"/>
		<path d="M12 51h1v1h-1z"/>
		<path d="M26 54h1v1h-1z"/>
		<path d="M5 71h1v1H5z"/>
		<path d="M66 73h1v1h-1z"/>
		<path d="M60 77h1v1h-1z"/>
		<path d="M46 84h1v1h-1z"/>
		<path d="M20 89h1v1h-1z"/>
		<path d="M36 97h1v1h-1z"/>
		<path d="M40 98h1v1h-1z"/>
		<path d="M48 99h1v1h-1z"/>
	</g>
	<g fill="#de434a">
		<path d="M72 12h1v1h-1z"/>
		<path d="M75 12h1v1h-1z"/>
		<path d="M73 54h1v1h-1z"/>
		<path d="M22 67h1v1h-1z"/>
	</g>
	<g fill="#dd3b42">
		<path d="M52 17h1v1h-1z"/>
		<path d="M94 26h1v1h-1z"/>
		<path d="M92 41h1v1h-1z"/>
		<path d="M12 45h1v1h-1z"/>
		<path d="M66 61h1v1h-1z"/>
		<path d="M55 69h1v1h-1z"/>
		<path d="M42 75h1v1h-1z"/>
	</g>
	<g fill="#e6848c">
		<path d="M101 48h1v1h-1z"/>
		<path d="M101 51h1v1h-1z"/>
		<path d="M3 69h1v1H3z"/>
	</g>
	<g fill="#df4040">
		<path d="M100 60h1v1h-1z"/>
		<path d="M99 64h1v1h-1z"/>
		<path d="M98 67h1v1h-1z"/>
		<path d="M82 89h1v1h-1z"/>
		<path d="M24 93h1v1h-1z"/>
		<path d="M30 96h1v1h-1z"/>
	</g>
	<g fill="#f2b5bc">
		<path d="M72 4h1v1h-1z"/>
		<path d="M74 5h1v1h-1z"/>
		<path d="M79 8h1v1h-1z"/>
		<path d="M3 30h1v1H3z"/>
		<path d="M13 84h1v1h-1z"/>
	</g>
	<path fill="#e87b80" d="M86 15h1v1h-1z"/>
	<g fill="#e46166">
		<path d="M94 25h1v1h-1z"/>
		<path d="M5 27h1v1H5z"/>
		<path d="M98 34h1v1h-1z"/>
	</g>
	<g fill="#e04b52">
		<path d="M98 65h1v1h-1z"/>
		<path d="M94 74h1v1h-1z"/>
		<path d="M44 99h1v1h-1z"/>
		<path d="M56 99h1v1h-1z"/>
	</g>
	<g fill="#e25258">
		<path d="M41 99h1v1h-1z"/>
		<path d="M59 99h1v1h-1z"/>
	</g>
	<g fill="#f5b8b8">
		<path d="M21 8h1v1h-1z"/>
		<path d="M17 11h1v1h-1z"/>
		<path d="M11 17h1v1h-1z"/>
		<path d="M6 24h1v1H6z"/>
	</g>
	<g fill="#fcf1f1">
		<path d="M69 13h1v1h-1z"/>
		<path d="M78 13h1v1h-1z"/>
		<path d="M66 15h1v1h-1z"/>
		<path d="M78 18h1v1h-1z"/>
		<path d="M31 35h2v1h-2z"/>
		<path d="M33 35h1v1h-1z"/>
		<path d="M9 49h3v1H9z"/>
		<path d="M12 49h1v1h-1z"/>
		<path d="M53 71h1v1h-1z"/>
		<path d="M26 76h1v1h-1z"/>
	</g>
	<g fill="#ee9c9f">
		<path d="M53 17h1v1h-1z"/>
		<path d="M52 18h1v1h-1z"/>
		<path d="M20 42h1v1h-1z"/>
		<path d="M7 66h1v1H7z"/>
		<path d="M32 87h1v1h-1z"/>
	</g>
	<g fill="#06060a">
		<path d="M234 25h1v1h-1z"/>
		<path d="M281 56h1v1h-1z"/>
		<path d="M289 59h1v1h-1z"/>
		<path d="M292 59h1v1h-1z"/>
		<path d="M291 60h1v3h-1z"/>
		<path d="M291 63h1v1h-1z"/>
		<path d="M206 67h1v1h-1z"/>
		<path d="M127 68h1v1h-1z"/>
		<path d="M239 69h1v1h-1z"/>
		<path d="M240 69h1v1h-1z"/>
		<path d="M272 77h1v1h-1z"/>
		<path d="M203 80h1v1h-1z"/>
		<path d="M201 81h1v1h-1z"/>
	</g>
	<g fill="#ec9296">
		<path d="M84 31h1v1h-1z"/>
		<path d="M92 40h1v1h-1z"/>
		<path d="M62 75h1v1h-1z"/>
		<path d="M40 76h1v1h-1z"/>
	</g>
	<g fill="#fefafa">
		<path d="M84 35h1v1h-1z"/>
		<path d="M21 42h1v1h-1z"/>
		<path d="M17 44h1v1h-1z"/>
		<path d="M9 60h1v1H9z"/>
		<path d="M65 63h1v1h-1z"/>
		<path d="M55 70h1v1h-1z"/>
		<path d="M22 72h1v1h-1z"/>
		<path d="M47 74h1v1h-1z"/>
		<path d="M48 82h1v1h-1z"/>
	</g>
	<g fill="#da2a32">
		<path d="M60 1h1v1h-1z"/>
		<path d="M72 5h1v1h-1z"/>
		<path d="M82 13h1v1h-1z"/>
		<path d="M98 35h1v1h-1z"/>
		<path d="M78 47h1v1h-1z"/>
		<path d="M58 67h1v1h-1z"/>
		<path d="M38 76h1v1h-1z"/>
		<path d="M35 87h1v1h-1z"/>
	</g>
	<g fill="#df454c">
		<path d="M24 7h1v1h-1z"/>
		<path d="M74 12h1v1h-1z"/>
		<path d="M70 16h1v1h-1z"/>
		<path d="M12 17h1v1h-1z"/>
		<path d="M46 20h1v1h-1z"/>
		<path d="M100 44h1v1h-1z"/>
		<path d="M78 62h1v1h-1z"/>
		<path d="M7 64h1v1H7z"/>
		<path d="M61 76h1v1h-1z"/>
		<path d="M50 82h1v1h-1z"/>
		<path d="M17 86h1v1h-1z"/>
		<path d="M18 88h1v1h-1z"/>
		<path d="M78 91h1v1h-1z"/>
	</g>
	<g fill="#eb898d">
		<path d="M66 13h1v1h-1z"/>
		<path d="M60 16h1v1h-1z"/>
		<path d="M13 45h1v1h-1z"/>
		<path d="M11 54h1v1h-1z"/>
		<path d="M7 74h1v1H7z"/>
	</g>
	<g fill="#fefbfc">
		<path d="M65 15h1v1h-1z"/>
		<path d="M91 21h1v1h-1z"/>
		<path d="M61 75h1v1h-1z"/>
		<path d="M56 78h1v1h-1z"/>
	</g>
	<g fill="#ed999d">
		<path d="M72 16h1v1h-1z"/>
		<path d="M84 30h1v1h-1z"/>
		<path d="M82 57h1v1h-1z"/>
		<path d="M27 76h1v1h-1z"/>
		<path d="M18 86h1v1h-1z"/>
	</g>
	<g fill="#050808">
		<path d="M189 23h1v1h-1z"/>
		<path d="M213 23h1v1h-1z"/>
		<path d="M277 23h1v1h-1z"/>
		<path d="M245 24h1v19h-1z"/>
		<path d="M281 24h1v1h-1z"/>
		<path d="M270 29h1v1h-1z"/>
		<path d="M179 30h1v1h-1z"/>
		<path d="M270 30h1v20h-1z"/>
		<path d="M280 30h1v1h-1z"/>
		<path d="M281 31h1v1h-1z"/>
		<path d="M179 34h1v1h-1z"/>
		<path d="M212 37h1v4h-1z"/>
		<path d="M233 39h1v1h-1z"/>
		<path d="M177 40h1v1h-1z"/>
		<path d="M242 40h1v1h-1z"/>
		<path d="M212 41h1v1h-1z"/>
		<path d="M243 41h1v1h-1z"/>
		<path d="M175 42h1v1h-1z"/>
		<path d="M291 42h1v1h-1z"/>
		<path d="M245 43h1v1h-1z"/>
		<path d="M166 45h1v1h-1z"/>
		<path d="M239 49h1v1h-1z"/>
		<path d="M289 49h1v1h-1z"/>
		<path d="M270 50h1v1h-1z"/>
		<path d="M169 51h1v1h-1z"/>
		<path d="M276 51h1v1h-1z"/>
		<path d="M169 52h1v1h-1z"/>
		<path d="M242 54h1v1h-1z"/>
		<path d="M295 61h1v1h-1z"/>
		<path d="M297 64h1v1h-1z"/>
		<path d="M242 66h1v1h-1z"/>
		<path d="M273 66h1v1h-1z"/>
		<path d="M280 66h1v1h-1z"/>
		<path d="M202 69h1v1h-1z"/>
		<path d="M269 69h1v1h-1z"/>
		<path d="M132 70h1v1h-1z"/>
		<path d="M273 70h1v1h-1z"/>
		<path d="M281 70h1v1h-1z"/>
		<path d="M281 71h1v1h-1z"/>
		<path d="M128 72h1v1h-1z"/>
		<path d="M125 73h1v1h-1z"/>
		<path d="M128 73h1v1h-1z"/>
		<path d="M125 74h1v1h-1z"/>
		<path d="M286 74h1v2h-1z"/>
		<path d="M243 76h1v1h-1z"/>
		<path d="M282 76h1v1h-1z"/>
		<path d="M286 76h1v1h-1z"/>
		<path d="M126 77h1v1h-1z"/>
		<path d="M237 77h1v1h-1z"/>
		<path d="M238 77h1v1h-1z"/>
		<path d="M282 77h1v1h-1z"/>
		<path d="M126 78h1v1h-1z"/>
		<path d="M130 78h1v1h-1z"/>
		<path d="M239 78h1v1h-1z"/>
		<path d="M204 79h1v1h-1z"/>
		<path d="M197 80h1v1h-1z"/>
		<path d="M280 80h1v1h-1z"/>
		<path d="M285 80h1v1h-1z"/>
		<path d="M199 81h1v1h-1z"/>
		<path d="M274 81h1v1h-1z"/>
		<path d="M278 81h1v1h-1z"/>
		<path d="M284 81h1v1h-1z"/>
		<path d="M127 82h1v1h-1z"/>
		<path d="M246 82h1v1h-1z"/>
		<path d="M271 83h1v1h-1z"/>
		<path d="M124 84h1v1h-1z"/>
		<path d="M280 84h1v1h-1z"/>
	</g>
	<g fill="#e2585e">
		<path d="M93 76h1v1h-1z"/>
		<path d="M25 93h1v1h-1z"/>
		<path d="M34 97h1v1h-1z"/>
		<path d="M66 97h1v1h-1z"/>
	</g>
	<g fill="#d9252c">
		<path d="M64 2h1v1h-1z"/>
		<path d="M29 35h1v1h-1z"/>
		<path d="M87 51h1v1h-1z"/>
		<path d="M0 52h1v1H0z"/>
		<path d="M70 57h1v1h-1z"/>
		<path d="M69 58h1v1h-1z"/>
		<path d="M68 59h1v1h-1z"/>
		<path d="M81 59h1v1h-1z"/>
		<path d="M87 83h1v1h-1z"/>
		<path d="M84 86h1v1h-1z"/>
		<path d="M70 95h1v1h-1z"/>
		<path d="M53 99h1v1h-1z"/>
	</g>
	<g fill="#ec8c8f">
		<path d="M42 0h1v1h-1z"/>
		<path d="M69 3h1v1h-1z"/>
		<path d="M7 23h1v1H7z"/>
	</g>
	<g fill="#da2830">
		<path d="M36 2h1v1h-1z"/>
		<path d="M60 14h1v1h-1z"/>
		<path d="M46 21h1v1h-1z"/>
		<path d="M81 22h1v1h-1z"/>
		<path d="M24 39h1v1h-1z"/>
		<path d="M38 46h1v1h-1z"/>
		<path d="M25 56h1v1h-1z"/>
		<path d="M71 56h1v1h-1z"/>
		<path d="M8 60h1v1H8z"/>
		<path d="M97 67h1v1h-1z"/>
		<path d="M53 70h1v1h-1z"/>
		<path d="M67 72h1v1h-1z"/>
		<path d="M26 75h1v1h-1z"/>
		<path d="M79 90h1v1h-1z"/>
		<path d="M30 95h1v1h-1z"/>
		<path d="M47 99h1v1h-1z"/>
	</g>
	<g fill="#d81d25">
		<path d="M80 10h1v1h-1z"/>
		<path d="M64 16h1v1h-1z"/>
		<path d="M76 18h1v1h-1z"/>
		<path d="M79 20h1v1h-1z"/>
		<path d="M5 28h1v1H5z"/>
		<path d="M96 30h1v1h-1z"/>
		<path d="M83 35h1v1h-1z"/>
		<path d="M32 41h1v1h-1z"/>
		<path d="M90 46h1v1h-1z"/>
		<path d="M100 46h1v1h-1z"/>
		<path d="M100 53h1v1h-1z"/>
		<path d="M99 60h1v1h-1z"/>
		<path d="M62 64h1v1h-1z"/>
		<path d="M6 73h1v1H6z"/>
		<path d="M63 75h1v1h-1z"/>
		<path d="M43 85h1v1h-1z"/>
		<path d="M72 94h1v1h-1z"/>
	</g>
	<g fill="#f5c3c5">
		<path d="M56 16h1v1h-1z"/>
		<path d="M30 35h1v1h-1z"/>
		<path d="M76 51h1v1h-1z"/>
		<path d="M22 71h1v1h-1z"/>
	</g>
	<path fill="#f9dadb" d="M87 16h1v1h-1z"/>
	<g fill="#050708">
		<path d="M117 24h25v4h-25z"/>
		<path d="M142 24h1v4h-1z"/>
		<path d="M151 24h19v4h-19z"/>
		<path d="M170 24h1v4h-1z"/>
		<path d="M171 24h1v1h-1z"/>
		<path d="M172 24h1v1h-1z"/>
		<path d="M189 24h1v32h-1z"/>
		<path d="M190 24h22v4h-22z"/>
		<path d="M212 24h1v4h-1z"/>
		<path d="M213 24h1v4h-1z"/>
		<path d="M225 24h7v9h-7z"/>
		<path d="M232 24h1v11h-1z"/>
		<path d="M233 24h1v1h-1z"/>
		<path d="M246 24h5v32h-5z"/>
		<path d="M251 24h1v32h-1z"/>
		<path d="M264 24h15v4h-15z"/>
		<path d="M279 24h1v5h-1z"/>
		<path d="M171 25h2v4h-2z"/>
		<path d="M173 25h1v17h-1z"/>
		<path d="M174 25h1v1h-1z"/>
		<path d="M233 25h1v12h-1z"/>
		<path d="M280 25h2v4h-2z"/>
		<path d="M282 25h1v6h-1z"/>
		<path d="M174 26h1v15h-1z"/>
		<path d="M175 26h1v15h-1z"/>
		<path d="M176 26h1v1h-1z"/>
		<path d="M234 26h1v1h-1z"/>
		<path d="M283 26h1v7h-1z"/>
		<path d="M284 26h1v13h-1z"/>
		<path d="M285 26h1v1h-1z"/>
		<path d="M176 27h1v13h-1z"/>
		<path d="M234 27h1v12h-1z"/>
		<path d="M285 27h1v26h-1z"/>
		<path d="M286 27h1v1h-1z"/>
		<path d="M117 28h25v1h-25z"/>
		<path d="M142 28h1v1h-1z"/>
		<path d="M151 28h26v1h-26z"/>
		<path d="M177 28h1v10h-1z"/>
		<path d="M190 28h22v1h-22z"/>
		<path d="M212 28h1v1h-1z"/>
		<path d="M213 28h1v1h-1z"/>
		<path d="M264 28h22v1h-22z"/>
		<path d="M286 28h1v24h-1z"/>
		<path d="M287 28h1v1h-1z"/>
		<path d="M127 29h5v27h-5z"/>
		<path d="M132 29h1v27h-1z"/>
		<path d="M133 29h1v1h-1z"/>
		<path d="M151 29h6v27h-6z"/>
		<path d="M157 29h1v27h-1z"/>
		<path d="M171 29h6v1h-6z"/>
		<path d="M178 29h1v1h-1z"/>
		<path d="M190 29h5v27h-5z"/>
		<path d="M195 29h1v27h-1z"/>
		<path d="M235 29h1v12h-1z"/>
		<path d="M264 29h5v27h-5z"/>
		<path d="M269 29h1v27h-1z"/>
		<path d="M277 29h1v1h-1z"/>
		<path d="M278 29h1v1h-1z"/>
		<path d="M279 29h8v1h-8z"/>
		<path d="M287 29h1v22h-1z"/>
		<path d="M171 30h1v1h-1z"/>
		<path d="M172 30h6v1h-6z"/>
		<path d="M178 30h1v5h-1z"/>
		<path d="M236 30h1v1h-1z"/>
		<path d="M281 30h7v1h-7z"/>
		<path d="M288 30h1v20h-1z"/>
		<path d="M172 31h6v1h-6z"/>
		<path d="M236 31h1v11h-1z"/>
		<path d="M282 31h6v1h-6z"/>
		<path d="M289 31h1v1h-1z"/>
		<path d="M172 32h1v1h-1z"/>
		<path d="M237 32h1v12h-1z"/>
		<path d="M282 32h1v1h-1z"/>
		<path d="M289 32h1v16h-1z"/>
		<path d="M225 33h12v1h-12z"/>
		<path d="M238 33h1v1h-1z"/>
		<path d="M283 33h6v1h-6z"/>
		<path d="M225 34h5v22h-5z"/>
		<path d="M230 34h8v1h-8z"/>
		<path d="M238 34h1v12h-1z"/>
		<path d="M283 34h1v1h-1z"/>
		<path d="M290 34h1v12h-1z"/>
		<path d="M172 35h6v3h-6z"/>
		<path d="M178 35h1v1h-1z"/>
		<path d="M232 35h6v1h-6z"/>
		<path d="M239 35h1v1h-1z"/>
		<path d="M171 36h1v1h-1z"/>
		<path d="M178 36h1v1h-1z"/>
		<path d="M232 36h1v1h-1z"/>
		<path d="M239 36h1v12h-1z"/>
		<path d="M291 36h1v1h-1z"/>
		<path d="M170 37h1v1h-1z"/>
		<path d="M171 37h6v3h-6z"/>
		<path d="M178 37h1v1h-1z"/>
		<path d="M196 37h15v4h-15z"/>
		<path d="M211 37h1v4h-1z"/>
		<path d="M233 37h6v1h-6z"/>
		<path d="M240 37h1v1h-1z"/>
		<path d="M158 38h19v2h-19z"/>
		<path d="M177 38h1v1h-1z"/>
		<path d="M240 38h1v12h-1z"/>
		<path d="M234 39h7v1h-7z"/>
		<path d="M241 39h1v12h-1z"/>
		<path d="M284 39h6v9h-6z"/>
		<path d="M291 39h1v1h-1z"/>
		<path d="M158 40h18v1h-18z"/>
		<path d="M176 40h1v1h-1z"/>
		<path d="M291 40h1v1h-1z"/>
		<path d="M158 41h17v1h-17z"/>
		<path d="M175 41h1v1h-1z"/>
		<path d="M196 41h15v1h-15z"/>
		<path d="M211 41h1v1h-1z"/>
		<path d="M235 41h7v1h-7z"/>
		<path d="M242 41h1v12h-1z"/>
		<path d="M291 41h1v1h-1z"/>
		<path d="M158 42h15v1h-15z"/>
		<path d="M173 42h1v1h-1z"/>
		<path d="M174 42h1v1h-1z"/>
		<path d="M196 42h1v1h-1z"/>
		<path d="M236 42h6v1h-6z"/>
		<path d="M158 43h1v1h-1z"/>
		<path d="M165 43h1v1h-1z"/>
		<path d="M166 43h6v1h-6z"/>
		<path d="M172 43h1v13h-1z"/>
		<path d="M236 43h1v1h-1z"/>
		<path d="M243 43h1v12h-1z"/>
		<path d="M166 44h1v1h-1z"/>
		<path d="M167 44h5v1h-5z"/>
		<path d="M236 44h1v1h-1z"/>
		<path d="M237 44h6v1h-6z"/>
		<path d="M244 44h1v1h-1z"/>
		<path d="M167 45h6v1h-6z"/>
		<path d="M173 45h1v11h-1z"/>
		<path d="M237 45h1v1h-1z"/>
		<path d="M244 45h7v11h-7z"/>
		<path d="M167 46h1v1h-1z"/>
		<path d="M168 46h5v1h-5z"/>
		<path d="M238 46h13v1h-13z"/>
		<path d="M283 46h1v1h-1z"/>
		<path d="M290 46h1v1h-1z"/>
		<path d="M168 47h6v1h-6z"/>
		<path d="M174 47h1v9h-1z"/>
		<path d="M238 47h1v1h-1z"/>
		<path d="M283 47h6v3h-6z"/>
		<path d="M168 48h1v1h-1z"/>
		<path d="M169 48h5v2h-5z"/>
		<path d="M239 48h12v1h-12z"/>
		<path d="M289 48h1v1h-1z"/>
		<path d="M175 49h1v7h-1z"/>
		<path d="M282 49h6v2h-6z"/>
		<path d="M169 50h6v1h-6z"/>
		<path d="M240 50h11v1h-11z"/>
		<path d="M280 50h1v1h-1z"/>
		<path d="M281 50h7v1h-7z"/>
		<path d="M288 50h1v1h-1z"/>
		<path d="M170 51h6v1h-6z"/>
		<path d="M176 51h1v5h-1z"/>
		<path d="M241 51h10v1h-10z"/>
		<path d="M277 51h1v1h-1z"/>
		<path d="M278 51h9v1h-9z"/>
		<path d="M287 51h1v1h-1z"/>
		<path d="M170 52h6v1h-6z"/>
		<path d="M196 52h17v4h-17z"/>
		<path d="M213 52h1v4h-1z"/>
		<path d="M241 52h1v1h-1z"/>
		<path d="M270 52h16v1h-16z"/>
		<path d="M286 52h1v1h-1z"/>
		<path d="M287 52h1v1h-1z"/>
		<path d="M171 53h6v2h-6z"/>
		<path d="M177 53h1v3h-1z"/>
		<path d="M242 53h9v1h-9z"/>
		<path d="M270 53h15v1h-15z"/>
		<path d="M285 53h1v1h-1z"/>
		<path d="M286 53h1v1h-1z"/>
		<path d="M170 54h1v1h-1z"/>
		<path d="M270 54h13v1h-13z"/>
		<path d="M283 54h1v1h-1z"/>
		<path d="M284 54h1v1h-1z"/>
		<path d="M171 55h7v1h-7z"/>
		<path d="M178 55h1v1h-1z"/>
		<path d="M243 55h8v1h-8z"/>
		<path d="M270 55h11v1h-11z"/>
		<path d="M281 55h1v1h-1z"/>
		<path d="M283 55h1v1h-1z"/>
		<path d="M127 56h5v1h-5z"/>
		<path d="M132 56h1v1h-1z"/>
		<path d="M151 56h6v1h-6z"/>
		<path d="M157 56h1v1h-1z"/>
		<path d="M171 56h1v1h-1z"/>
		<path d="M172 56h6v1h-6z"/>
		<path d="M178 56h1v1h-1z"/>
		<path d="M189 56h1v1h-1z"/>
		<path d="M190 56h23v1h-23z"/>
		<path d="M213 56h1v1h-1z"/>
		<path d="M225 56h4v1h-4z"/>
		<path d="M229 56h1v1h-1z"/>
		<path d="M243 56h1v1h-1z"/>
		<path d="M244 56h7v1h-7z"/>
		<path d="M251 56h1v1h-1z"/>
		<path d="M264 56h13v1h-13z"/>
		<path d="M277 56h1v1h-1z"/>
		<path d="M279 56h1v1h-1z"/>
		<path d="M294 59h1v4h-1z"/>
		<path d="M295 59h1v1h-1z"/>
		<path d="M299 59h1v1h-1z"/>
		<path d="M299 60h1v1h-1z"/>
		<path d="M296 62h1v1h-1z"/>
		<path d="M294 63h1v1h-1z"/>
		<path d="M297 63h1v1h-1z"/>
		<path d="M126 66h1v1h-1z"/>
		<path d="M164 66h1v1h-1z"/>
		<path d="M167 66h1v1h-1z"/>
		<path d="M198 66h4v2h-4z"/>
		<path d="M202 66h1v2h-1z"/>
		<path d="M203 66h1v1h-1z"/>
		<path d="M204 66h1v1h-1z"/>
		<path d="M241 66h1v1h-1z"/>
		<path d="M243 66h1v1h-1z"/>
		<path d="M275 66h3v2h-3z"/>
		<path d="M278 66h1v2h-1z"/>
		<path d="M279 66h1v1h-1z"/>
		<path d="M121 67h4v2h-4z"/>
		<path d="M125 67h1v4h-1z"/>
		<path d="M126 67h1v1h-1z"/>
		<path d="M133 67h1v1h-1z"/>
		<path d="M134 67h4v2h-4z"/>
		<path d="M138 67h1v16h-1z"/>
		<path d="M165 67h1v16h-1z"/>
		<path d="M166 67h1v16h-1z"/>
		<path d="M195 67h1v1h-1z"/>
		<path d="M196 67h8v1h-8z"/>
		<path d="M204 67h1v2h-1z"/>
		<path d="M205 67h1v1h-1z"/>
		<path d="M232 67h12v1h-12z"/>
		<path d="M244 67h1v8h-1z"/>
		<path d="M272 67h1v1h-1z"/>
		<path d="M273 67h8v1h-8z"/>
		<path d="M281 67h1v2h-1z"/>
		<path d="M282 67h1v1h-1z"/>
		<path d="M126 68h1v7h-1z"/>
		<path d="M133 68h5v1h-5z"/>
		<path d="M195 68h10v1h-10z"/>
		<path d="M205 68h1v3h-1z"/>
		<path d="M206 68h1v1h-1z"/>
		<path d="M232 68h13v1h-13z"/>
		<path d="M245 68h1v6h-1z"/>
		<path d="M271 68h11v1h-11z"/>
		<path d="M282 68h1v3h-1z"/>
		<path d="M121 69h5v1h-5z"/>
		<path d="M133 69h5v1h-5z"/>
		<path d="M194 69h3v1h-3z"/>
		<path d="M197 69h1v1h-1z"/>
		<path d="M203 69h1v1h-1z"/>
		<path d="M204 69h2v1h-2z"/>
		<path d="M206 69h1v2h-1z"/>
		<path d="M207 69h1v1h-1z"/>
		<path d="M232 69h2v14h-2z"/>
		<path d="M234 69h1v14h-1z"/>
		<path d="M242 69h1v1h-1z"/>
		<path d="M243 69h2v1h-2z"/>
		<path d="M246 69h1v1h-1z"/>
		<path d="M270 69h3v1h-3z"/>
		<path d="M273 69h1v1h-1z"/>
		<path d="M280 69h1v1h-1z"/>
		<path d="M281 69h2v1h-2z"/>
		<path d="M283 69h1v12h-1z"/>
		<path d="M284 69h1v1h-1z"/>
		<path d="M121 70h2v13h-2z"/>
		<path d="M123 70h3v1h-3z"/>
		<path d="M127 70h1v1h-1z"/>
		<path d="M133 70h1v5h-1z"/>
		<path d="M134 70h4v1h-4z"/>
		<path d="M193 70h1v1h-1z"/>
		<path d="M194 70h2v11h-2z"/>
		<path d="M196 70h1v1h-1z"/>
		<path d="M204 70h1v1h-1z"/>
		<path d="M207 70h1v1h-1z"/>
		<path d="M243 70h2v5h-2z"/>
		<path d="M246 70h1v1h-1z"/>
		<path d="M270 70h2v11h-2z"/>
		<path d="M272 70h1v1h-1z"/>
		<path d="M284 70h1v10h-1z"/>
		<path d="M123 71h4v1h-4z"/>
		<path d="M127 71h1v8h-1z"/>
		<path d="M132 71h1v1h-1z"/>
		<path d="M134 71h4v1h-4z"/>
		<path d="M193 71h2v8h-2z"/>
		<path d="M196 71h1v1h-1z"/>
		<path d="M205 71h2v1h-2z"/>
		<path d="M207 71h1v1h-1z"/>
		<path d="M246 71h1v1h-1z"/>
		<path d="M269 71h2v8h-2z"/>
		<path d="M282 71h2v1h-2z"/>
		<path d="M285 71h1v1h-1z"/>
		<path d="M123 72h1v11h-1z"/>
		<path d="M132 72h1v7h-1z"/>
		<path d="M134 72h1v1h-1z"/>
		<path d="M136 72h2v11h-2z"/>
		<path d="M246 72h1v1h-1z"/>
		<path d="M282 72h1v1h-1z"/>
		<path d="M285 72h1v6h-1z"/>
		<path d="M131 73h1v1h-1z"/>
		<path d="M192 73h1v1h-1z"/>
		<path d="M246 73h1v1h-1z"/>
		<path d="M268 73h1v1h-1z"/>
		<path d="M282 73h1v1h-1z"/>
		<path d="M128 74h1v1h-1z"/>
		<path d="M131 74h1v1h-1z"/>
		<path d="M192 74h1v2h-1z"/>
		<path d="M235 74h10v1h-10z"/>
		<path d="M245 74h1v1h-1z"/>
		<path d="M268 74h1v1h-1z"/>
		<path d="M282 74h1v1h-1z"/>
		<path d="M126 75h2v1h-2z"/>
		<path d="M128 75h1v8h-1z"/>
		<path d="M131 75h2v4h-2z"/>
		<path d="M133 75h1v1h-1z"/>
		<path d="M235 75h9v1h-9z"/>
		<path d="M244 75h1v1h-1z"/>
		<path d="M268 75h1v1h-1z"/>
		<path d="M133 76h1v1h-1z"/>
		<path d="M192 76h1v1h-1z"/>
		<path d="M235 76h7v1h-7z"/>
		<path d="M242 76h1v6h-1z"/>
		<path d="M268 76h1v1h-1z"/>
		<path d="M133 77h1v1h-1z"/>
		<path d="M192 77h1v1h-1z"/>
		<path d="M240 77h2v1h-2z"/>
		<path d="M268 77h1v1h-1z"/>
		<path d="M129 78h1v1h-1z"/>
		<path d="M240 78h2v1h-2z"/>
		<path d="M243 78h1v1h-1z"/>
		<path d="M272 78h1v1h-1z"/>
		<path d="M282 78h1v1h-1z"/>
		<path d="M285 78h1v1h-1z"/>
		<path d="M127 79h5v1h-5z"/>
		<path d="M132 79h1v1h-1z"/>
		<path d="M193 79h2v1h-2z"/>
		<path d="M205 79h2v2h-2z"/>
		<path d="M207 79h1v1h-1z"/>
		<path d="M240 79h1v1h-1z"/>
		<path d="M241 79h2v1h-2z"/>
		<path d="M243 79h1v4h-1z"/>
		<path d="M269 79h2v1h-2z"/>
		<path d="M272 79h1v1h-1z"/>
		<path d="M282 79h2v2h-2z"/>
		<path d="M127 80h1v1h-1z"/>
		<path d="M129 80h2v3h-2z"/>
		<path d="M131 80h1v3h-1z"/>
		<path d="M132 80h1v1h-1z"/>
		<path d="M193 80h1v1h-1z"/>
		<path d="M196 80h1v3h-1z"/>
		<path d="M204 80h2v2h-2z"/>
		<path d="M207 80h1v1h-1z"/>
		<path d="M241 80h3v1h-3z"/>
		<path d="M244 80h1v3h-1z"/>
		<path d="M269 80h1v1h-1z"/>
		<path d="M272 80h1v2h-1z"/>
		<path d="M273 80h1v1h-1z"/>
		<path d="M281 80h1v1h-1z"/>
		<path d="M284 80h1v1h-1z"/>
		<path d="M132 81h1v1h-1z"/>
		<path d="M194 81h3v1h-3z"/>
		<path d="M197 81h1v2h-1z"/>
		<path d="M203 81h1v1h-1z"/>
		<path d="M206 81h1v1h-1z"/>
		<path d="M241 81h1v1h-1z"/>
		<path d="M270 81h3v1h-3z"/>
		<path d="M273 81h1v2h-1z"/>
		<path d="M280 81h3v1h-3z"/>
		<path d="M283 81h1v1h-1z"/>
		<path d="M194 82h1v1h-1z"/>
		<path d="M195 82h10v1h-10z"/>
		<path d="M205 82h1v1h-1z"/>
		<path d="M242 82h3v1h-3z"/>
		<path d="M245 82h1v1h-1z"/>
		<path d="M271 82h11v1h-11z"/>
		<path d="M282 82h1v1h-1z"/>
		<path d="M121 83h2v1h-2z"/>
		<path d="M123 83h1v1h-1z"/>
		<path d="M128 83h3v1h-3z"/>
		<path d="M131 83h1v1h-1z"/>
		<path d="M136 83h2v1h-2z"/>
		<path d="M138 83h1v1h-1z"/>
		<path d="M165 83h1v1h-1z"/>
		<path d="M166 83h1v1h-1z"/>
		<path d="M196 83h8v1h-8z"/>
		<path d="M204 83h1v1h-1z"/>
		<path d="M205 83h1v1h-1z"/>
		<path d="M232 83h2v1h-2z"/>
		<path d="M234 83h1v1h-1z"/>
		<path d="M243 83h2v1h-2z"/>
		<path d="M245 83h1v1h-1z"/>
		<path d="M246 83h1v1h-1z"/>
		<path d="M272 83h1v1h-1z"/>
		<path d="M273 83h8v1h-8z"/>
		<path d="M281 83h1v1h-1z"/>
		<path d="M282 83h1v1h-1z"/>
		<path d="M121 84h2v1h-2z"/>
		<path d="M123 84h1v1h-1z"/>
		<path d="M129 84h1v1h-1z"/>
		<path d="M130 84h1v1h-1z"/>
		<path d="M131 84h1v1h-1z"/>
		<path d="M136 84h2v1h-2z"/>
		<path d="M138 84h1v1h-1z"/>
		<path d="M165 84h1v1h-1z"/>
		<path d="M166 84h1v1h-1z"/>
		<path d="M199 84h2v1h-2z"/>
		<path d="M201 84h1v1h-1z"/>
		<path d="M202 84h1v1h-1z"/>
		<path d="M203 84h1v1h-1z"/>
		<path d="M232 84h2v1h-2z"/>
		<path d="M234 84h1v1h-1z"/>
		<path d="M243 84h3v1h-3z"/>
		<path d="M246 84h1v1h-1z"/>
		<path d="M274 84h1v1h-1z"/>
		<path d="M275 84h1v1h-1z"/>
		<path d="M276 84h2v1h-2z"/>
		<path d="M278 84h1v1h-1z"/>
	</g>
	<g fill="#040909">
		<path d="M288 28h1v1h-1z"/>
		<path d="M179 35h1v1h-1z"/>
		<path d="M242 39h1v1h-1z"/>
		<path d="M212 42h1v1h-1z"/>
		<path d="M239 50h1v1h-1z"/>
		<path d="M170 55h1v1h-1z"/>
		<path d="M277 65h1v1h-1z"/>
		<path d="M199 69h1v1h-1z"/>
		<path d="M196 73h1v1h-1z"/>
		<path d="M196 77h1v1h-1z"/>
		<path d="M204 78h1v1h-1z"/>
		<path d="M277 81h1v1h-1z"/>
	</g>
	<g fill="#f2b6b6">
		<path d="M41 0h1v1h-1z"/>
		<path d="M59 0h1v1h-1z"/>
	</g>
	<g fill="#e25d61">
		<path d="M80 90h1v1h-1z"/>
		<path d="M77 92h1v1h-1z"/>
	</g>
	<g fill="#060606">
		<path d="M170 23h1v1h-1z"/>
		<path d="M286 26h1v1h-1z"/>
		<path d="M167 29h1v1h-1z"/>
		<path d="M235 43h1v1h-1z"/>
		<path d="M224 57h1v1h-1z"/>
		<path d="M230 57h1v1h-1z"/>
		<path d="M263 57h1v1h-1z"/>
		<path d="M288 59h1v1h-1z"/>
		<path d="M202 65h1v1h-1z"/>
		<path d="M139 66h1v1h-1z"/>
		<path d="M280 70h1v1h-1z"/>
		<path d="M200 85h1v1h-1z"/>
	</g>
	<g fill="#fff2f2">
		<path d="M60 0h1v1h-1z"/>
		<path d="M36 1h1v1h-1z"/>
		<path d="M8 78h1v1H8z"/>
		<path d="M12 83h1v1h-1z"/>
	</g>
	<path fill="#f3bcc0" d="M93 24h1v1h-1z"/>
	<g fill="#e56d71">
		<path d="M1 63h1v1H1z"/>
		<path d="M4 71h1v1H4z"/>
		<path d="M92 78h1v1h-1z"/>
		<path d="M88 83h1v1h-1z"/>
		<path d="M14 85h1v1h-1z"/>
		<path d="M15 86h1v1h-1z"/>
	</g>
	<g fill="#e04747">
		<path d="M21 91h1v1h-1z"/>
		<path d="M26 94h1v1h-1z"/>
		<path d="M28 95h1v1h-1z"/>
		<path d="M36 98h1v1h-1z"/>
		<path d="M64 98h1v1h-1z"/>
	</g>
	<g fill="#db3037">
		<path d="M9 21h1v1H9z"/>
		<path d="M7 24h1v1H7z"/>
		<path d="M97 32h1v1h-1z"/>
		<path d="M1 39h1v1H1z"/>
		<path d="M100 45h1v1h-1z"/>
		<path d="M0 46h1v1H0z"/>
		<path d="M2 64h1v1H2z"/>
	</g>
	<g fill="#f6caca">
		<path d="M64 1h1v1h-1z"/>
		<path d="M28 4h1v1h-1z"/>
		<path d="M26 5h1v1h-1z"/>
		<path d="M83 11h1v1h-1z"/>
	</g>
	<g fill="#de3d44">
		<path d="M30 4h1v1h-1z"/>
		<path d="M21 9h1v1h-1z"/>
		<path d="M16 13h1v1h-1z"/>
		<path d="M3 32h1v1H3z"/>
		<path d="M0 45h1v1H0z"/>
		<path d="M0 54h1v1H0z"/>
		<path d="M82 88h1v1h-1z"/>
		<path d="M32 96h1v1h-1z"/>
		<path d="M68 96h1v1h-1z"/>
		<path d="M35 97h1v1h-1z"/>
		<path d="M45 99h1v1h-1z"/>
		<path d="M55 99h1v1h-1z"/>
	</g>
	<g fill="#d71b23">
		<path d="M23 8h1v1h-1z"/>
		<path d="M51 19h1v1h-1z"/>
		<path d="M10 20h1v1h-1z"/>
		<path d="M80 21h1v1h-1z"/>
		<path d="M33 39h1v1h-1z"/>
		<path d="M91 44h1v1h-1z"/>
		<path d="M0 51h1v1H0z"/>
		<path d="M9 57h1v1H9z"/>
		<path d="M82 58h1v1h-1z"/>
		<path d="M7 63h1v1H7z"/>
		<path d="M71 69h1v1h-1z"/>
		<path d="M29 76h1v1h-1z"/>
	</g>
	<g fill="#fffdfd">
		<path d="M82 14h1v1h-1z"/>
		<path d="M60 15h1v1h-1z"/>
		<path d="M57 16h1v1h-1z"/>
		<path d="M74 16h1v1h-1z"/>
		<path d="M83 39h1v1h-1z"/>
		<path d="M27 49h1v1h-1z"/>
		<path d="M87 49h1v1h-1z"/>
		<path d="M85 52h1v1h-1z"/>
		<path d="M75 53h1v1h-1z"/>
	</g>
	<g fill="#060609">
		<path d="M116 23h1v1h-1z"/>
		<path d="M158 29h1v1h-1z"/>
		<path d="M283 44h1v1h-1z"/>
		<path d="M291 45h1v1h-1z"/>
		<path d="M238 48h1v1h-1z"/>
		<path d="M290 64h1v1h-1z"/>
		<path d="M200 65h1v1h-1z"/>
		<path d="M275 69h1v1h-1z"/>
		<path d="M208 70h1v1h-1z"/>
		<path d="M131 72h1v1h-1z"/>
		<path d="M135 84h1v1h-1z"/>
		<path d="M204 84h1v1h-1z"/>
		<path d="M231 84h1v1h-1z"/>
		<path d="M235 84h1v1h-1z"/>
		<path d="M247 84h1v1h-1z"/>
	</g>
	<g fill="#040709">
		<path d="M116 24h1v4h-1z"/>
		<path d="M116 28h1v1h-1z"/>
		<path d="M275 29h1v1h-1z"/>
		<path d="M179 33h1v1h-1z"/>
		<path d="M270 51h1v1h-1z"/>
		<path d="M298 59h1v1h-1z"/>
		<path d="M296 63h1v1h-1z"/>
		<path d="M133 66h1v1h-1z"/>
		<path d="M241 69h1v1h-1z"/>
		<path d="M192 71h1v1h-1z"/>
		<path d="M129 76h1v1h-1z"/>
		<path d="M235 77h1v1h-1z"/>
		<path d="M205 78h2v1h-2z"/>
		<path d="M207 78h1v1h-1z"/>
		<path d="M208 78h1v1h-1z"/>
		<path d="M244 79h1v1h-1z"/>
		<path d="M270 82h1v1h-1z"/>
		<path d="M273 84h1v1h-1z"/>
	</g>
	<g fill="#040708">
		<path d="M280 24h1v1h-1z"/>
		<path d="M170 29h1v1h-1z"/>
		<path d="M172 34h1v1h-1z"/>
		<path d="M243 42h1v1h-1z"/>
		<path d="M281 49h1v1h-1z"/>
		<path d="M245 75h1v1h-1z"/>
		<path d="M126 76h1v1h-1z"/>
		<path d="M239 77h1v1h-1z"/>
		<path d="M283 82h1v1h-1z"/>
		<path d="M279 84h1v1h-1z"/>
	</g>
	<g fill="#e7767b">
		<path d="M38 1h1v1h-1z"/>
		<path d="M62 1h1v1h-1z"/>
	</g>
	<g fill="#e9646f">
		<path d="M101 52h1v1h-1z"/>
		<path d="M6 75h1v1H6z"/>
		<path d="M17 88h1v1h-1z"/>
	</g>
	<g fill="#060708">
		<path d="M283 25h1v1h-1z"/>
		<path d="M177 27h1v1h-1z"/>
		<path d="M288 29h1v1h-1z"/>
		<path d="M237 31h1v1h-1z"/>
		<path d="M290 33h1v1h-1z"/>
		<path d="M291 37h1v1h-1z"/>
		<path d="M233 38h1v1h-1z"/>
		<path d="M177 39h1v1h-1z"/>
		<path d="M235 42h1v1h-1z"/>
		<path d="M288 51h1v1h-1z"/>
		<path d="M290 59h1v1h-1z"/>
		<path d="M295 60h1v1h-1z"/>
		<path d="M298 60h1v1h-1z"/>
		<path d="M269 70h1v1h-1z"/>
		<path d="M272 71h1v1h-1z"/>
		<path d="M125 72h1v1h-1z"/>
		<path d="M192 72h1v1h-1z"/>
		<path d="M129 77h1v1h-1z"/>
		<path d="M196 79h1v1h-1z"/>
		<path d="M279 81h1v1h-1z"/>
		<path d="M164 84h1v1h-1z"/>
		<path d="M167 84h1v1h-1z"/>
	</g>
</svg>
