<svg xmlns="http://www.w3.org/2000/svg" width="200" height="128">
	<path fill="#e2231a" d="M88 53.07h9.41l-5-8-9.09 14.46h-4.16l11.11-17.39a2.65 2.65 0 0 1 4.32 0l11.14 17.42h-4.15l-2-3.24h-9.49L88 53.07m43.18 3.23V41.19h-3.53v16.59a1.74 1.74 0 0 0 .52 1.22 1.81 1.81 0 0 0 1.28.53h16.07l2.1-3.23h-16.44m-58.34-2.71a6.2 6.2 0 0 0 0-12.4H57.4v18.34h3.53v-15.1H72.6a3 3 0 1 1 0 5.94h-9.95l10.54 9.17h5.12l-7.08-5.94h1.61M35.7 59.53a9.17 9.17 0 1 1 0-18.34h10.67a9.17 9.17 0 0 1 0 18.34H35.7m10.42-3.22a5.94 5.94 0 1 0 0-11.88H35.94a5.94 5.94 0 0 0 0 11.88h10.18m66.98 3.22a9.17 9.17 0 1 1 0-18.34h12.66l-2.08 3.24h-10.34a5.94 5.94 0 1 0 0 11.88H126l-2 3.22h-10.9m43.13-3.22a6 6 0 0 1-5.72-4.31h15.07l2.08-3.24h-17.15a5.94 5.94 0 0 1 5.72-4.32h10.35l2.07-3.24H156a9.17 9.17 0 0 0 0 18.34h10.89l2.06-3.22h-12.72m14.3-13.17a1.63 1.63 0 1 1 1.64 1.62 1.62 1.62 0 0 1-1.64-1.62m1.64 2.06a2.06 2.06 0 0 0 0-4.12 2.06 2.06 0 1 0 0 4.12m-.2-3.28a2.24 2.24 0 0 1 .61.06.65.65 0 0 1 .44.65 1.12 1.12 0 0 1 0 .19.58.58 0 0 1-.28.4l-.09.05.53 1h-.52l-.47-.89h-.31v.89h-.46v-2.35h.58m.16 1a.43.43 0 0 0 .38-.15.23.23 0 0 0 .07-.19.33.33 0 0 0-.18-.29 1 1 0 0 0-.43-.05h-.12V43h.28"/>
	<path d="M26.53 68.84h142.41v1.02H26.53zm49.58 14.22c0-.41-.2-2.09-1.94-2.09-1.9 0-2.69 2-2.69 4.44 0 .71 0 4.1 2.49 4.1a2.1 2.1 0 0 0 2.15-2.26h2.7a4.11 4.11 0 0 1-1.08 2.81 4.67 4.67 0 0 1-3.48 1.34c-4.12 0-5.46-3.05-5.46-6 0-3.78 2.12-6.3 5.47-6.3 2.61 0 4.45 1.59 4.45 4zm5.1-3.88h2.61v9.9H89v2h-7.79zm14.43-.27a5.55 5.55 0 0 1 4.2 1.62 6.85 6.85 0 0 1 1.52 4.5 7.37 7.37 0 0 1-1.5 4.68 5.69 5.69 0 0 1-4.25 1.7 5.78 5.78 0 0 1-4.23-1.64 6.53 6.53 0 0 1-1.48-4.46c0-3.17 1.44-6.4 5.74-6.4zm-2.16 9.66a2.85 2.85 0 0 0 4.39-.15 5.75 5.75 0 0 0 .81-3.42 6.75 6.75 0 0 0-.29-2.13 2.76 2.76 0 0 0-2.73-2.12 2.72 2.72 0 0 0-2.2 1 5.53 5.53 0 0 0-.88 3.47 5.46 5.46 0 0 0 .9 3.35zM106 79.19v7.28c0 1.31.1 2.94 2.59 2.94a2.66 2.66 0 0 0 2.32-1 3.43 3.43 0 0 0 .38-2v-7.22h2.49v7.46c0 3.56-2.82 4.7-5.24 4.7-1.19 0-3.37-.27-4.5-2.07a5.13 5.13 0 0 1-.61-2.94v-7.15zm10.84 0h4a7.29 7.29 0 0 1 4.12 1.07 5.73 5.73 0 0 1 2 4.7c0 3.67-2 5.59-4.23 6a10.64 10.64 0 0 1-2.15.13h-3.72v-11.9zm2.6 10h1a3.55 3.55 0 0 0 2.77-.83A5.07 5.07 0 0 0 124.3 85c0-1.69-.58-3.24-2.19-3.69a8.12 8.12 0 0 0-2.67-.16v8z"/>
</svg>
