<svg xmlns="http://www.w3.org/2000/svg" viewBox="-15.24 -20.24 1364.48 861.48">
	<path fill="#4696d8" d="M989.502 217.812C977.76 5.114 667.815-84.992 533.512 126.553 446.59 89.196 342.363 146.15 340.861 240.76c-172.568 17.197-190.5 273.482 63.813 273.482h8.497c-7.144-20.186-6.121-41.45 1.467-60.153l-26.649-.123c-122.329-.809-154.627-173.603 8.752-157.565-29.648-95.279 73.502-174.717 160.148-102.903 77.844-176.777 365.324-182.14 378.349 70.423 159.97 10.967 154.965 176.411 37.875 192.03h-163.21c11.728 16.936 14.324 38.874 6.06 58.278h157.15c177.66-3.51 209.864-260.132 16.389-296.417"/>
	<path fill="#4696d8" d="M728.884 464.236c15.248 0 27.602 12.031 27.602 26.882 0 14.849-12.354 26.882-27.602 26.882-15.246 0-27.6-12.033-27.6-26.882 0-14.85 12.354-26.882 27.6-26.882zM618.502 322.704c-11.415 0-20.662-9.006-20.662-20.123 0-11.116 9.247-20.124 20.662-20.124 11.412 0 20.66 9.008 20.66 20.124 0 11.117-9.248 20.123-20.66 20.123zM500.707 518.097c-15.246 0-27.601-12.036-27.601-26.885 0-14.85 12.355-26.883 27.601-26.883 15.245 0 27.601 12.033 27.601 26.883s-12.356 26.885-27.6 26.885zM842.012 264.9c15.247 0 27.6 12.034 27.6 26.884s-12.353 26.882-27.6 26.882c-15.246 0-27.603-12.033-27.603-26.882 0-14.85 12.357-26.884 27.603-26.884zm-164.605 70.084 1.599-2.655c16.31-28.39 81.136-30.242 106.558-7.666 8.31 10.204 15.5 17.824 27.03 23.017 31.857 14.33 69.596.788 84.306-30.24 14.692-31.024.808-67.779-31.056-82.1-31.868-14.32-67.41.288-84.297 30.23-18.873 33.483-91.904 23.241-106.064 8.325-10.129-11.863-22.347-19.891-35.023-23.954-9.717-3.729-20.554-5.053-31.615-3.317-32.822 5.153-55.14 35.243-49.851 67.212.901 5.438.481 5.712 7.147 21.251 6.665 15.542-25.712 85.523-59.542 91.6-13.374.263-23.948 1.232-35.161 7.043-30.968 16.049-42.7 53.524-26.226 83.687 16.476 30.16 54.943 41.598 85.923 25.54 30.959-16.063 40.519-52.478 26.236-83.674-15.969-34.882 31.656-89.893 58.698-91.61 27.043-1.717 74.3 60.56 58.067 89.656-16.744 30.014-10.155 67.052 19.42 85.425 29.602 18.369 68.858 9.905 87.72-18.928 18.861-28.808 10.156-67.054-19.423-85.421-10.712-6.656-21.198-8.423-34.502-9.7-33.232-8.655-67.34-61.728-51.62-90.433a70.73 70.73 0 0 0 1.676-3.288"/>
	<path fill="#100f0d" d="M52.851 640.626H11.406v-12.821h96.764v12.82H66.725v110.112H52.85V640.626m132.232 49.873c18.44 0 31.61-9.482 31.61-25.287v-.352c0-15.102-11.59-24.234-31.434-24.234h-37.933v49.873zm-51.63-62.694h52.86c15.102 0 27.22 4.566 34.947 12.294 5.97 5.97 9.482 14.576 9.482 24.234v.35c0 20.372-14.049 32.315-33.366 35.827l37.757 50.227h-17.034l-35.65-47.769h-35.123v47.769h-13.873V627.805m128.192 0h13.873v122.932h-13.873V627.805m44.426 61.817v-.352c0-33.718 24.762-63.572 61.641-63.572 20.722 0 33.542 5.97 45.835 16.332l-8.956 10.537c-9.484-8.253-20.02-14.05-37.406-14.05-27.22 0-46.713 23.006-46.713 50.402v.35c0 29.33 18.79 51.105 48.644 51.105 14.05 0 27.045-5.444 35.475-12.293v-30.557h-37.406v-12.469h50.753v48.997c-11.415 10.186-28.625 18.79-49.349 18.79-38.635 0-62.518-28.098-62.518-63.22m137.677 0v-.352c0-33.718 24.762-63.572 61.64-63.572 20.723 0 33.543 5.97 45.836 16.332l-8.958 10.537c-9.482-8.253-20.019-14.05-37.405-14.05-27.22 0-46.714 23.006-46.714 50.402v.35c0 29.33 18.792 51.105 48.646 51.105 14.049 0 27.044-5.444 35.473-12.293v-30.557h-37.405v-12.469h50.753v48.997c-11.416 10.186-28.626 18.79-49.348 18.79-38.635 0-62.518-28.098-62.518-63.22m143.12-61.817h88.86v12.645h-74.987v41.972h67.085v12.644h-67.085v43.025h75.866v12.646h-89.739V627.805m169.288 62.694c18.44 0 31.61-9.482 31.61-25.287v-.352c0-15.102-11.59-24.234-31.436-24.234h-37.932v49.873zm-51.63-62.694h52.86c15.101 0 27.218 4.566 34.946 12.294 5.97 5.97 9.483 14.576 9.483 24.234v.35c0 20.372-14.05 32.315-33.366 35.827l37.756 50.227h-17.034l-35.65-47.769h-35.123v47.769h-13.873V627.805m120.465 0h36.002l29.327 47.592 29.327-47.592h36v122.932h-33.892v-70.599l-31.435 48.119h-.703l-31.259-47.943v70.423H824.99V627.805m152.427 0h98.87v28.802h-65.15v18.79h59.004v26.868h-59.005v19.495h66.03v28.977h-99.75V627.805m108 104.667 18.966-22.655c12.294 9.659 25.64 14.752 39.865 14.752 9.307 0 14.224-3.161 14.224-8.429v-.352c0-5.268-4.039-7.902-20.898-11.941-26.166-5.97-46.362-13.348-46.362-38.46v-.351c0-22.83 18.088-39.338 47.591-39.338 20.898 0 37.231 5.62 50.578 16.332l-17.035 24.06c-11.24-8.078-23.532-12.118-34.42-12.118-8.255 0-12.293 3.336-12.293 7.903v.352c0 5.62 4.214 8.077 21.425 11.94 28.098 6.147 45.66 15.279 45.66 38.285v.35c0 25.114-19.845 40.04-49.7 40.04-21.776 0-42.322-6.848-57.601-20.37m123.803-104.667h34.069v46.012h43.728v-46.012h34.07v122.932h-34.07v-46.715h-43.728v46.715h-34.069V627.805M43.553 797v-.103c0-10.143 7.582-18.545 18.135-18.545 6.506 0 10.399 2.305 13.985 5.686l-2.766 2.972c-3.023-2.869-6.404-4.918-11.27-4.918-7.941 0-13.884 6.454-13.884 14.702v.103c0 8.298 5.994 14.805 13.883 14.805 4.918 0 8.146-1.896 11.578-5.175l2.663 2.613c-3.74 3.79-7.837 6.302-14.343 6.302-10.348 0-17.981-8.147-17.981-18.442m39.593-18.033h4.047v32.12h20.184v3.74H83.146v-35.86M143.027 797v-.103c0-8.145-5.942-14.805-14.139-14.805-8.196 0-14.036 6.557-14.036 14.702v.103c0 8.145 5.942 14.805 14.139 14.805 8.196 0 14.036-6.557 14.036-14.702zm-32.376 0v-.103c0-9.887 7.428-18.545 18.34-18.545 10.91 0 18.236 8.556 18.236 18.442v.103c0 9.888-7.428 18.545-18.339 18.545-10.911 0-18.237-8.556-18.237-18.442m44.561 2.817v-20.85h4.048v20.594c0 7.734 4.097 12.09 10.962 12.09 6.608 0 10.81-3.997 10.81-11.834v-20.85h4.046v20.543c0 10.45-5.993 15.88-14.958 15.88-8.863 0-14.908-5.43-14.908-15.573m43.487-17.11v28.38h8.401c9.068 0 14.856-6.147 14.856-14.087v-.103c0-7.94-5.788-14.19-14.856-14.19zm-4.047-3.74H207.1c11.27 0 19.057 7.736 19.057 17.827v.103c0 10.091-7.786 17.93-19.057 17.93h-12.448v-35.86m55.42 0h3.791l22.591 28.74v-28.74h3.944v35.86h-3.226l-23.156-29.405v29.405h-3.945v-35.86m63.722 22.746-8.145-18.29-8.197 18.29zm-9.99-23.003h3.792l16.34 36.117h-4.354l-4.2-9.478h-19.518l-4.252 9.478h-4.149l16.341-36.117m32.115 3.997h-12.09v-3.74h28.227v3.74h-12.09v32.12h-4.047v-32.12m23.868-3.74h4.046v35.86h-4.046v-35.86m11.471 0h4.508l12.756 30.891 12.808-30.891h4.353l-15.42 36.116h-3.585l-15.42-36.116m41.49 0h25.92v3.689h-21.873V794.9h19.568v3.688h-19.568v12.55h22.13v3.69h-26.177v-35.861m50.041 0h4.047v35.86h-4.047v-35.86m14.547 0h3.79l22.592 28.74v-28.74h3.944v35.86h-3.227l-23.155-29.405v29.405h-3.944v-35.86m49.786 3.74h-12.089v-3.74h28.226v3.74h-12.09v32.12h-4.047v-32.12m23.51-3.74h25.92v3.689h-21.874V794.9h19.569v3.688h-19.57v12.55h22.13v3.69H550.63v-35.861M583.36 797v-.103c0-9.836 7.223-18.545 17.981-18.545 6.045 0 9.784 1.743 13.37 4.765l-2.613 3.074c-2.767-2.408-5.84-4.1-10.912-4.1-7.94 0-13.626 6.711-13.626 14.703v.103c0 8.555 5.481 14.907 14.19 14.907 4.099 0 7.89-1.588 10.348-3.586v-8.913h-10.912v-3.638h14.805v14.292c-3.329 2.972-8.349 5.483-14.394 5.483-11.27 0-18.237-8.197-18.237-18.442m56.805.255c5.379 0 9.221-2.766 9.221-7.377v-.101c0-4.406-3.38-7.07-9.17-7.07h-11.065v14.548zm-15.06-18.288h15.419c4.405 0 7.94 1.331 10.194 3.586 1.742 1.742 2.767 4.252 2.767 7.07v.102c0 5.942-4.099 9.427-9.733 10.45l11.013 14.652h-4.97l-10.398-13.934h-10.246v13.934h-4.047v-35.86m60.29 22.746-8.146-18.29-8.195 18.29zm-9.99-23.003h3.791l16.342 36.117h-4.354l-4.201-9.478h-19.517l-4.252 9.478h-4.15l16.341-36.117m32.116 3.997h-12.09v-3.74h28.225v3.74h-12.089v32.12h-4.046v-32.12m23.866-3.74h4.048v35.86h-4.048v-35.86M776.719 797v-.103c0-8.145-5.942-14.805-14.138-14.805-8.197 0-14.037 6.557-14.037 14.702v.103c0 8.145 5.942 14.805 14.14 14.805 8.195 0 14.035-6.557 14.035-14.702zm-32.375 0v-.103c0-9.887 7.428-18.545 18.34-18.545 10.911 0 18.236 8.556 18.236 18.442v.103c0 9.888-7.427 18.545-18.339 18.545-10.912 0-18.237-8.556-18.237-18.442m45.124-18.033h3.792l22.592 28.74v-28.74h3.944v35.86h-3.228l-23.154-29.405v29.405h-3.946v-35.86m55.83 0h25.768v3.74h-21.72v12.806h19.415v3.69h-19.416v15.624H845.3v-35.86M908.919 797v-.103c0-8.145-5.943-14.805-14.14-14.805-8.196 0-14.036 6.557-14.036 14.702v.103c0 8.145 5.943 14.805 14.139 14.805 8.197 0 14.037-6.557 14.037-14.702zm-32.377 0v-.103c0-9.887 7.428-18.545 18.34-18.545 10.911 0 18.237 8.556 18.237 18.442v.103c0 9.888-7.428 18.545-18.34 18.545-10.912 0-18.237-8.556-18.237-18.442m60.187.255c5.378 0 9.22-2.766 9.22-7.377v-.101c0-4.406-3.38-7.07-9.17-7.07h-11.065v14.548zm-15.061-18.288h15.42c4.404 0 7.94 1.331 10.194 3.586 1.741 1.742 2.765 4.252 2.765 7.07v.102c0 5.942-4.097 9.427-9.733 10.45l11.014 14.652h-4.969l-10.4-13.934h-10.245v13.934h-4.046v-35.86m52.397 0h4.047v21.414l20.594-21.414h5.276l-15.42 15.675 16.034 20.185h-5.07l-13.781-17.368-7.633 7.736v9.632h-4.047v-35.86m35.495 20.85v-20.85h4.048v20.594c0 7.734 4.097 12.09 10.962 12.09 6.608 0 10.81-3.997 10.81-11.834v-20.85h4.046v20.543c0 10.45-5.993 15.88-14.958 15.88-8.863 0-14.908-5.43-14.908-15.573m54.756-1.28h-11.321v12.652h12.038c5.43 0 8.812-2.407 8.812-6.403v-.103c0-3.893-3.278-6.146-9.529-6.146zm7.53-10.092c0-3.536-2.817-5.84-7.94-5.84h-10.911v12.345h10.605c4.867 0 8.247-2.202 8.247-6.404zM1049 778.968h15.266c4.099 0 7.326 1.178 9.375 3.177 1.485 1.536 2.305 3.432 2.305 5.737v.103c0 4.661-2.87 7.069-5.686 8.298 4.251 1.282 7.685 3.74 7.685 8.658v.102c0 6.147-5.175 9.785-13.012 9.785h-15.933v-35.86m36.98 0h25.923v3.689h-21.875V794.9h19.57v3.688h-19.57v12.55h22.13v3.69h-26.177v-35.861m49.378 18.288c5.38 0 9.221-2.766 9.221-7.377v-.101c0-4.406-3.38-7.07-9.169-7.07h-11.065v14.548zm-15.06-18.288h15.419c4.406 0 7.941 1.331 10.194 3.586 1.743 1.742 2.767 4.252 2.767 7.07v.102c0 5.942-4.099 9.427-9.733 10.45l11.014 14.652h-4.969l-10.4-13.934h-10.245v13.934h-4.048v-35.86m37.033 0h3.79l22.592 28.74v-28.74h3.945v35.86h-3.228l-23.154-29.405v29.405h-3.945v-35.86m40.464 0h25.92v3.689h-21.873V794.9h19.568v3.688h-19.568v12.55h22.131v3.69h-26.178v-35.861m43.436 3.74h-12.09v-3.74h28.227v3.74h-12.09v32.12h-4.047v-32.12m23.509-3.74h25.92v3.689h-21.873V794.9h19.568v3.688h-19.568v12.55h22.13v3.69h-26.177v-35.861m31.96 30.635 2.511-2.972c3.74 3.381 7.325 5.072 12.295 5.072 4.815 0 7.991-2.562 7.991-6.096v-.102c0-3.33-1.793-5.226-9.323-6.814-8.248-1.793-12.039-4.457-12.039-10.348v-.104c0-5.634 4.97-9.782 11.783-9.782 5.225 0 8.965 1.484 12.602 4.404l-2.356 3.125c-3.33-2.714-6.66-3.893-10.35-3.893-4.66 0-7.632 2.561-7.632 5.789v.103c0 3.38 1.845 5.276 9.734 6.966 7.99 1.742 11.68 4.663 11.68 10.144v.101c0 6.148-5.124 10.144-12.244 10.144-5.686 0-10.348-1.896-14.651-5.737"/>
</svg>
