<svg xmlns="http://www.w3.org/2000/svg" viewBox="-15.99 -15.99 831.48 238.98">
	<path fill="#2f3844" d="M0 34.13v29.652h47.837v136.314h30.992V63.782h47.832V34.129H0m190.127 76.136h27.848c19.984 0 27.62-11.902 27.62-24.03 0-12.577-8.308-23.578-24.254-23.578h-31.214zm20.434 27.627h-20.434v62.207h-30.546V34.132h61.76c37.958 0 55.7 24.931 55.7 51.878 0 20.217-10.557 40.427-34.815 48.288l41.775 65.8h-36.382l-37.058-62.206m143.22 62.21h-30.768V34.135h30.768V200.1m51.113-165.969h30.77v136.546h85.338v29.42H404.894V34.131m180.857 165.97h-30.77V34.135h30.77V200.1"/>
	<path fill="#69c32f" d="M712.25 195.208c20.754 0 39.96-7.841 54.088-22.07 14.282-14.39 22.07-34.044 21.922-55.352 0-43.58-33.387-77.715-76.01-77.715h-8.736v6.009h8.736c39.258 0 70.004 31.506 70.004 71.73.144 19.703-7.025 37.852-20.18 51.099-12.991 13.084-30.687 20.293-49.824 20.293-39.91 0-70-30.701-70-71.419 0-17.805 6.156-34.728 17.358-47.728l-4.287-4.282c-12.306 14.118-19.077 32.566-19.077 52.01 0 44.139 32.674 77.425 76.006 77.425"/>
	<path fill="#69c32f" d="M712.253 207.173c23.947 0 46.117-9.042 62.422-25.466 16.487-16.6 25.47-39.291 25.301-63.896 0-50.063-38.339-89.459-87.286-89.694l-3.233-.013V.01L668.65 43.314l40.807 43.306V58.043h2.796c32.682 0 58.285 26.241 58.285 59.741.119 16.42-5.85 31.536-16.805 42.557-10.812 10.894-25.543 16.894-41.48 16.894-33.231 0-58.288-25.57-58.288-59.477 0-14.592 4.99-28.518 14.066-39.28l-4.284-4.283c-10.185 11.891-15.787 27.339-15.787 43.563 0 37.332 27.64 65.482 64.293 65.482 17.546 0 33.792-6.631 45.747-18.669 12.08-12.17 18.663-28.794 18.54-46.81 0-36.852-28.24-65.72-64.287-65.724h-8.8v19.455L676.9 43.314l26.554-28.179v18.978h8.8c45.823 0 81.718 36.773 81.718 83.722.165 22.994-8.199 44.18-23.556 59.639-15.175 15.28-35.828 23.694-58.162 23.694-46.587 0-81.72-35.84-81.72-83.36 0-21.016 7.331-40.94 20.653-56.174l-4.273-4.27c-14.438 16.363-22.382 37.802-22.382 60.444 0 50.943 37.712 89.365 87.722 89.365"/>
</svg>
