<svg id="Layer_1" data-name="Layer 1" xmlns="http://www.w3.org/2000/svg" viewBox="0 0 126.71 209.24">
	<defs>
		<clipPath id="clip-path" transform="translate(-51.1 -47.13)">
			<path style="stroke:#fff;stroke-miterlimit:10;stroke-width:1.73px;fill:#08b1d5" d="m115.01 191.42-62.18-35.89V83.72l62.18 35.9v71.8z"/>
		</clipPath>
		<clipPath id="clip-path-2" transform="translate(-51.1 -47.13)">
			<path style="fill:#0d819b;stroke:#fff;stroke-miterlimit:10;stroke-width:1.73px" d="m114.45 191.42 62.18-35.89V83.72l-62.18 35.9v71.8z"/>
		</clipPath>
		<style>
			.cls-6{stroke:#fff;stroke-miterlimit:10;stroke-width:1.73px}.cls-3{fill:#464547}.cls-6{fill:none}
		</style>
	</defs>
	<path class="cls-3" d="M69.33 238.06v-14.37h-2.42a2.34 2.34 0 0 1-2.37-2.37 2.37 2.37 0 0 1 2.18-2.32l2.71-.25.35-3.56a2.82 2.82 0 0 1 2.76-2.76 2.72 2.72 0 0 1 2.72 2.76v3.56h5a2.5 2.5 0 1 1 0 5h-5V238c0 2.12.79 3 3 3a11 11 0 0 0 2.32-.25 6.1 6.1 0 0 1 .94-.14A2.43 2.43 0 0 1 84 243a2.49 2.49 0 0 1-1.63 2.33 11.07 11.07 0 0 1-4.69.93c-5.98-.01-8.35-2.92-8.35-8.2Z" transform="translate(-51.1 -47.13)"/>
	<path class="cls-3" d="M88.24 243.44v-22.52a2.56 2.56 0 0 1 2.57-2.61 2.64 2.64 0 0 1 2.57 2.22l.24 1.77c1.14-1.48 3.56-4 6.77-4 1.83 0 3.36 1 3.36 3a2.72 2.72 0 0 1-2.67 2.91c-.39 0-1-.1-1.58-.1a6.66 6.66 0 0 0-5.33 2.89v16.49a3 3 0 0 1-5.93 0Z" transform="translate(-51.1 -47.13)"/>
	<path class="cls-3" d="M106.9 212.28a3.66 3.66 0 1 1 3.66 3.61 3.55 3.55 0 0 1-3.66-3.61Zm.75 31.16v-22.17a3 3 0 0 1 5.92 0v22.17a3 3 0 1 1-5.92 0Z" transform="translate(-51.1 -47.13)"/>
	<path class="cls-3" d="m125.42 243.83-7-21.38a3.85 3.85 0 0 1-.25-1.18 2.87 2.87 0 0 1 3-3 2.78 2.78 0 0 1 2.87 2.27l5.08 17.46h.2l5.09-17.43a2.76 2.76 0 0 1 2.86-2.27 2.87 2.87 0 0 1 3 3 3.8 3.8 0 0 1-.24 1.18l-7 21.38a2.79 2.79 0 0 1-2.86 2.18h-1.88a2.79 2.79 0 0 1-2.87-2.21Z" transform="translate(-51.1 -47.13)"/>
	<path class="cls-3" d="M149.12 253.71a3.16 3.16 0 0 1 .15-1l2.32-7a2.76 2.76 0 0 1-1.58-1.93l-6.87-21.38a4.12 4.12 0 0 1-.24-1.18 2.87 2.87 0 0 1 3-3 2.76 2.76 0 0 1 2.86 2.27l5.05 17.51h.2l5.08-17.43a2.78 2.78 0 0 1 2.87-2.27 2.87 2.87 0 0 1 3 3 3.85 3.85 0 0 1-.25 1.18l-10.27 32a2.72 2.72 0 0 1-2.62 1.93 2.69 2.69 0 0 1-2.7-2.7Z" transform="translate(-51.1 -47.13)"/>
	<path style="fill:#08b1d5" d="M63.91 144.29 1.73 108.4V36.58l62.18 35.91v71.8z"/>
	<g style="clip-path:url(#clip-path)">
		<path class="cls-6" d="M71 93.84c0 .08 0 .15-.07.23-9.35 31.36 11.43 65.24 46.42 75.66" transform="translate(-51.1 -47.13)"/>
		<path class="cls-6" d="M121.25 150c-27.06-5.56-40-30.31-33.81-51.15 0-.07 0-.14.08-.22" transform="translate(-51.1 -47.13)"/>
	</g>
	<path class="cls-6" d="M63.91 144.29 1.73 108.4V36.58l62.18 35.91v71.8z"/>
	<path style="fill:#f69421" d="m63.36 72.16 61.61-35.58L63.36 1 1.73 36.59l61.63 35.57z"/>
	<path class="cls-6" d="m63.36 72.16 61.61-35.58L63.36 1 1.73 36.59l61.63 35.57z"/>
	<path style="fill:#0d819b" d="m63.35 144.29 62.18-35.89V36.58L63.35 72.49v71.8z"/>
	<g style="clip-path:url(#clip-path-2)">
		<path class="cls-6" d="M158.47 93.84a2.09 2.09 0 0 0 .08.23c9.34 31.36-11.44 65.24-46.42 75.66" transform="translate(-51.1 -47.13)"/>
		<path class="cls-6" d="M108.21 150c31.26-6.68 40-30.31 33.81-51.15 0-.07-.05-.14-.07-.22" transform="translate(-51.1 -47.13)"/>
	</g>
	<path class="cls-6" d="m63.35 144.29 62.18-35.89V36.58L63.35 72.49v71.8z"/>
	<path class="cls-6" d="M143.12 103.92c-.3-.66-.63-1.3-1-1.94a30.79 30.79 0 0 0-13.53-13C113.45 81.6 95 87.94 86.1 103.12" transform="translate(-51.1 -47.13)"/>
	<path class="cls-6" d="M158.78 95.13c-.46-.84-1.38-1.74-1.88-2.55A48.67 48.67 0 0 0 136.76 74c-23.85-11.63-52.5-2.51-65.85 20.31" transform="translate(-51.1 -47.13)"/>
	<path d="M103.21 112a1.1 1.1 0 0 0 0 .38v.5c-.39 7.07 3.79 13.58 10.76 16.72l.15.07h.1c8.57-4.18 12-9.78 11.53-17.23v-.18c-.09-.2-.19-.4-.29-.6a12 12 0 0 0-5.35-5.2c-5.93-2.89-13.18-.38-16.82 5.58" transform="translate(-51.1 -47.13)" style="fill:#f0df36;stroke:#fff;stroke-miterlimit:10;stroke-width:1.73px"/>
</svg>
