<svg xmlns="http://www.w3.org/2000/svg" xml:space="preserve" width="631.187" height="132.28">
	<path d="M992.148 992.117H0V793.613h396.77V0h198.535v793.613h396.843v198.504" style="fill:#231f20;fill-opacity:1;fill-rule:nonzero;stroke:none" transform="matrix(.13333 0 0 -.13333 0 132.28)"/>
	<path d="M4733.86 793.699h-992.13v198.418h992.13V793.699" style="fill:#ed1c24;fill-opacity:1;fill-rule:nonzero;stroke:none" transform="matrix(.13333 0 0 -.13333 0 132.28)"/>
	<path d="M4733.86 396.848h-992.13v198.425h992.13V396.848" style="fill:#ed1c24;fill-opacity:1;fill-rule:nonzero;stroke:none" transform="matrix(.13333 0 0 -.13333 0 132.28)"/>
	<path d="M4733.86 0h-992.13v198.418h992.13V0" style="fill:#ed1c24;fill-opacity:1;fill-rule:nonzero;stroke:none" transform="matrix(.13333 0 0 -.13333 0 132.28)"/>
	<path d="M3486.61 496.055C3486.61 222.004 3264.6 0 2990.61 0c-274.01 0-496.13 222.004-496.13 496.055v496.062h198.54V496.055c0-164.317 133.15-297.688 297.59-297.688 164.48 0 297.69 133.371 297.69 297.688v496.062h198.31V496.055" style="fill:#231f20;fill-opacity:1;fill-rule:nonzero;stroke:none" transform="matrix(.13333 0 0 -.13333 0 132.28)"/>
	<path d="M1445.63 595.137v198.476h495.92c54.97 0 99.27-44.402 99.27-99.211 0-54.871-44.3-99.265-99.27-99.265zM2246 0l-304.45 396.738c164.54 0 297.75 133.313 297.75 297.664 0 164.375-133.21 297.715-297.75 297.715h-694.3V0h198.38v396.738h245.8L1995.86 0H2246" style="fill:#231f20;fill-opacity:1;fill-rule:nonzero;stroke:none" transform="matrix(.13333 0 0 -.13333 0 132.28)"/>
</svg>
