<svg xmlns="http://www.w3.org/2000/svg" viewBox="-12.62 -12.62 656.24 157.24">
	<path fill="#231f20" d="M132.286-.002H0v26.467h52.903V132.28h26.47V26.465h52.913V-.002"/>
	<path fill="#ed1c24" d="M631.18 26.454H498.896V-.002H631.18v26.456"/>
	<path fill="#ed1c24" d="M631.18 79.367H498.896V52.91H631.18v26.457"/>
	<path fill="#ed1c24" d="M631.18 132.28H498.896v-26.456H631.18v26.456"/>
	<path fill="#231f20" d="M464.88 66.14c0 36.54-29.601 66.14-66.133 66.14-36.535 0-66.15-29.6-66.15-66.14V-.003h26.471V66.14c0 21.91 17.754 39.692 39.679 39.692 21.93 0 39.692-17.783 39.692-39.692V0h26.441v66.14"/>
	<path fill="#231f20" d="M192.75 52.929V26.465h66.123c7.329 0 13.236 5.92 13.236 13.228a13.22 13.22 0 0 1-13.236 13.236zm106.716 79.351-40.593-52.898c21.938 0 39.7-17.775 39.7-39.689 0-21.916-17.762-39.695-39.7-39.695H166.3V132.28h26.45V79.382h32.773l40.591 52.898h33.352"/>
</svg>
