<svg version="1.1" id="Layer_1" xmlns="http://www.w3.org/2000/svg" x="0" y="0" viewBox="0 0 500 148.7" style="enable-background:new 0 0 500 148.7" xml:space="preserve">
	<style>
		.st0{fill:#cd1416}.st1{fill:#2e3191}
	</style>
	<switch>
		<g>
			<path class="st0" d="M108.1 85.3H88.2l3-13.3h56.9l-3 13.3h-20.2l-12.8 56.6H95.3l12.8-56.6z"/>
			<path class="st0" d="M153.1 125.6c4 2.2 10.4 4.4 17.6 4.4 7.7 0 12.4-3 13.5-7.6 1-4.4-2-6.8-10.2-9.8-11.4-4-18-10.5-15.7-20.6 2.7-11.9 15.3-21 32.8-21 8.4 0 14.1 1.7 18.1 3.5l-6.6 12.7c-2.7-1.3-7.5-3.3-14.7-3.3s-11.5 3.1-12.3 6.7c-1 4.5 2.7 6.4 11.5 9.8 12 4.6 16.7 11 14.5 20.8-2.7 11.7-14.5 21.7-34.8 21.7-8.5 0-16.3-2.1-20-4.3l6.3-13z"/>
			<path class="st1" d="M494.7 30.5c-2.9 0-5.3 2.4-5.3 5.3 0 1.8.9 3.4 2.3 4.3-11 33.4-38.5 105.3-57 105.3-11.4 0-20.3-21-28.8-41.4-9.3-22.1-18-42.9-31.3-42.9-14 0-25 23.9-35.6 46.9-8.4 18.4-17.2 37.3-25.2 37.3-8.6 0-19.6-21.9-29.3-41.2-11.1-22.1-21.6-43-32.2-43-10.4 0-16.4 12.5-22.1 24.5-5.6 11.8-11.4 24-20.9 24H11.9c-.7-2.2-2.7-3.7-5.1-3.7-2.9 0-5.3 2.4-5.3 5.3s2.4 5.3 5.3 5.3c2.4 0 4.4-1.6 5.1-3.7h197.3c11.5 0 17.8-13.1 23.8-25.8 5.6-11.7 10.8-22.7 19.2-22.7 8.6 0 19.6 21.9 29.3 41.2 11.1 22.1 21.6 43 32.2 43 10 0 18.4-18.2 28.1-39.2 9.7-21.1 20.7-45.1 32.7-45.1 11.2 0 19.9 20.8 28.3 40.9 9.4 22.3 18.2 43.3 31.7 43.3 11 0 24.8-19 40.8-56.6 8.9-20.8 16.1-41.7 19.2-50.9h.1c2.9 0 5.3-2.4 5.3-5.3.1-2.7-2.3-5.1-5.2-5.1z"/>
			<circle class="st0" cx="24.8" cy="14.3" r="14.3"/>
			<circle class="st0" cx="12.4" cy="43.9" r="12.4"/>
			<circle class="st0" cx="26.1" cy="70.3" r="10.9"/>
			<circle class="st0" cx="49.7" cy="78.5" r="9.6"/>
			<circle class="st1" cx="72.4" cy="62.9" r="7.9"/>
			<circle class="st1" cx="74.5" cy="32.7" r="7.3"/>
			<circle class="st1" cx="61.6" cy="14.3" r="5.3"/>
			<circle class="st1" cx="46.9" cy="3.7" r="2.6"/>
			<path class="st0" d="m247.2 72-9.1 40.2c-2.7 12 .7 18.1 9.3 18.1 8.8 0 14.9-5.8 17.7-18.1l9.1-40.2h16.7l-8.9 39.2c-4.9 21.6-18.7 31.8-38.1 31.8-18.7 0-27.5-9.7-22.4-32l8.8-39h16.9z"/>
			<path class="st0" d="M295.1 141.8 310.9 72h19.6l9.6 25.6c2.7 7.4 5.2 16.1 6.7 23.9h.3c1-9.2 2.8-18.7 5.2-29.1l4.6-20.4h15.4l-15.8 69.9h-17.6l-9.7-26.9c-2.7-7.5-5.5-16.5-7.3-24.7l-.3.1c-1.6 9.2-3.7 19.1-6.2 30.5l-4.8 21h-15.5z"/>
			<path class="st0" d="M436.8 138.6c-5.5 1.7-15.8 3.9-25.6 3.9-13.5 0-22.6-3.2-28-9.4-5.5-6-7.1-15.1-4.7-25.4 5.4-23.2 26.3-36.5 50.6-36.5 9.6 0 16.5 1.8 19.8 3.4l-6.4 12.6c-3.7-1.7-8.4-3-16.6-3-14 0-26.2 7.5-29.6 22.6-3.3 14.4 4.4 22.9 18.1 22.9 3.8 0 7-.4 8.5-1l3.3-14.6h-11.4l2.8-12.3h27.6l-8.4 36.8z"/>
		</g>
	</switch>
</svg>
