<svg xmlns="http://www.w3.org/2000/svg" height="294.8" width="589.587" xml:space="preserve">
	<defs>
		<linearGradient id="b" spreadMethod="pad" gradientTransform="matrix(-140.052 -560 -562.679 -10 2252 1551.94)" gradientUnits="userSpaceOnUse" y2="0" x2="1" y1="0" x1="0">
			<stop offset="0" style="stop-opacity:1;stop-color:#ec5e1b"/>
			<stop offset="1" style="stop-opacity:1;stop-color:#e22029"/>
		</linearGradient>
		<linearGradient id="d" spreadMethod="pad" gradientTransform="matrix(1291.77 -180 -539.052 -1340 1223.5 873.54)" gradientUnits="userSpaceOnUse" y2="0" x2="1" y1="0" x1="0">
			<stop offset="0" style="stop-opacity:1;stop-color:#ec5e1b"/>
			<stop offset="1" style="stop-opacity:1;stop-color:#e22029"/>
		</linearGradient>
		<linearGradient id="f" spreadMethod="pad" gradientTransform="matrix(1291.77 -180 -539.052 -1340 1224.83 876.86)" gradientUnits="userSpaceOnUse" y2="0" x2="1" y1="0" x1="0">
			<stop offset="0" style="stop-opacity:1;stop-color:#ec5e1b"/>
			<stop offset="1" style="stop-opacity:1;stop-color:#e22029"/>
		</linearGradient>
		<linearGradient id="h" spreadMethod="pad" gradientTransform="matrix(1291.77 -180 -539.052 -1340 1228.24 885.33)" gradientUnits="userSpaceOnUse" y2="0" x2="1" y1="0" x1="0">
			<stop offset="0" style="stop-opacity:1;stop-color:#ec5e1b"/>
			<stop offset="1" style="stop-opacity:1;stop-color:#e22029"/>
		</linearGradient>
		<linearGradient id="j" spreadMethod="pad" gradientTransform="matrix(1291.77 -180 -539.052 -1340 1247.78 933.9)" gradientUnits="userSpaceOnUse" y2="0" x2="1" y1="0" x1="0">
			<stop offset="0" style="stop-opacity:1;stop-color:#ec5e1b"/>
			<stop offset="1" style="stop-opacity:1;stop-color:#e22029"/>
		</linearGradient>
		<linearGradient id="l" spreadMethod="pad" gradientTransform="matrix(1291.77 -180 -539.052 -1340 1260.42 965.34)" gradientUnits="userSpaceOnUse" y2="0" x2="1" y1="0" x1="0">
			<stop offset="0" style="stop-opacity:1;stop-color:#ec5e1b"/>
			<stop offset="1" style="stop-opacity:1;stop-color:#e22029"/>
		</linearGradient>
		<linearGradient id="n" spreadMethod="pad" gradientTransform="matrix(1291.77 -180 -539.052 -1340 1260.28 964.98)" gradientUnits="userSpaceOnUse" y2="0" x2="1" y1="0" x1="0">
			<stop offset="0" style="stop-opacity:1;stop-color:#ec5e1b"/>
			<stop offset="1" style="stop-opacity:1;stop-color:#e22029"/>
		</linearGradient>
		<linearGradient id="p" spreadMethod="pad" gradientTransform="matrix(1291.77 -180 -539.052 -1340 1229.99 889.68)" gradientUnits="userSpaceOnUse" y2="0" x2="1" y1="0" x1="0">
			<stop offset="0" style="stop-opacity:1;stop-color:#ec5e1b"/>
			<stop offset="1" style="stop-opacity:1;stop-color:#e22029"/>
		</linearGradient>
		<linearGradient id="r" spreadMethod="pad" gradientTransform="matrix(1291.77 -180 -539.052 -1340 1267.24 982.29)" gradientUnits="userSpaceOnUse" y2="0" x2="1" y1="0" x1="0">
			<stop offset="0" style="stop-opacity:1;stop-color:#ec5e1b"/>
			<stop offset="1" style="stop-opacity:1;stop-color:#e22029"/>
		</linearGradient>
		<clipPath id="a" clipPathUnits="userSpaceOnUse">
			<path d="m2261.28 1439.7 21.2 77.53c.96 3.57-.36 5.35-3.93 5.35h-58.95c-3.57 0-5.85-1.78-6.81-5.35l-20.86-77.91h-56.48c-3.57 0-5.85-1.79-6.81-5.37l-15.68-58.54c-.96-3.57.36-5.35 3.94-5.35h56.46l-52.69-196.65c-4.64-17.32-12.87-28.59-24.71-33.8-9.97-4.4-19.88-2.88-29.72 4.52-2.3 1.65-4.78 1.11-7.44-1.64l-47.64-47c-3.29-3.03-3.53-5.51-.75-7.43 15.92-13.45 34.57-20.19 56.02-20.19 14.56 0 29.32 3.29 44.28 9.89 18.98 8.25 35.56 20.89 49.73 37.93 8.8 10.77 15.77 22.53 21.3 35.06 3.22 7.29 6.07 14.77 8.18 22.66l12.6 46.98 40.1 149.67h88.88l12.58 46.99c2.11 7.88 4.96 15.36 8.19 22.65z"/>
		</clipPath>
		<clipPath id="c" clipPathUnits="userSpaceOnUse">
			<path d="M1430.05 784.012c2.88-1.672 6.94-1.102 12.18 1.707 1.2.633 2.03.422 2.49-.617l8.5-17.813c.64-1.148.23-2.09-1.22-2.82-8.77-5.098-17.2-7.649-25.33-7.649-5.53 0-10.45 1.25-14.77 3.75-5.53 3.121-9.24 7.91-11.16 14.371-1.81 6.457-1.63 13.75.55 21.879l19.97 74.532h-21.41c-1.35 0-1.84.668-1.48 2.027l5.95 22.191c.36 1.352 1.22 2.032 2.58 2.032h21.4l7.76 29.527c.36 1.351 1.22 2.031 2.57 2.031h22.35c1.35 0 1.84-.68 1.48-2.031l-7.91-29.527h21.41c1.35 0 1.84-.68 1.48-2.032l-5.94-22.191c-.37-1.359-1.24-2.027-2.58-2.027h-21.41l-19.97-74.532c-1.76-6.558-.93-10.84 2.51-12.808z"/>
		</clipPath>
		<clipPath id="e" clipPathUnits="userSpaceOnUse">
			<path d="M1537.83 781.352h1.57c8.61.308 16.67 3.539 24.15 9.687a43.047 43.047 0 0 1 7.76 7.973 50.885 50.885 0 0 1 4.38 7.027c.51 1.141.92 2.082 1.23 2.813l.61 1.718.79 2.34 22.64 83.91c.36 1.352 1.22 2.032 2.58 2.032h22.65c1.35 0 1.85-.68 1.49-2.032L1591 759.941c-.36-1.351-1.23-2.031-2.58-2.031h-22.66c-1.35 0-1.84.68-1.48 2.031l2.01 7.5c-3.11-1.871-6.07-3.429-8.92-4.679-7.79-3.442-15.57-5.453-23.26-5.793-3.25-.137-8.21-.028-11.75.472-3.93.571-7.53 1.821-10.99 3.278-7.01 3.019-12.58 7.711-16.71 14.07-4.13 6.352-6.37 13.539-6.72 21.563-.09 3.949.27 8.019 1.08 12.187.37 1.762.76 3.641 1.2 5.621l.62 2.352.59 2.179c1.23 4.579 2.8 10.469 4.73 17.661l1.13 4.218.93 4.059c.79 2.922 1.45 5.422 2.02 7.5 3.4 13.133 6.27 24.012 8.59 32.66l2.97 11.09c.39 1.461 1.26 2.191 2.62 2.191h22.34c1.35 0 1.83-.73 1.44-2.191l-3.12-11.09c-2.32-8.648-5.29-19.527-8.91-32.66-.97-3.649-2.39-8.91-4.23-15.777l-1.28-4.223-1.18-4.367c-.89-3.34-1.71-6.364-2.43-9.071l-.62-2.339-.59-2.192c-.48-1.769-1.57-5.262-1.55-10.469.05-4.48 1.16-8.492 3.34-12.031 2.26-3.539 5.3-6.199 9.11-7.969a30.765 30.765 0 0 1 6.05-1.871l.9-.16s.63-.109 1.27-.199c1.3-.191 2.87-.109 2.87-.109z"/>
		</clipPath>
		<clipPath id="g" clipPathUnits="userSpaceOnUse">
			<path d="M1855.64 783.07c12.08 0 23.58 4.27 34.52 12.809 10.85 8.641 17.91 19.012 21.14 31.09 3.24 12.082 1.74 22.453-4.47 31.101-6.37 8.539-15.59 12.809-27.67 12.809-12.19 0-23.7-4.27-34.52-12.809-10.98-8.648-18.07-19.019-21.31-31.101-3.23-12.078-1.7-22.449 4.64-31.09 6.25-8.539 15.48-12.809 27.67-12.809zm74.82 112.5c.37 1.352 1.22 2.032 2.58 2.032h22.34c1.35 0 1.86-.68 1.49-2.032l-36.67-136.879c-5.2-19.371-16.51-35.929-33.94-49.679-17.44-13.75-35.84-20.633-55.21-20.633-12.19 0-22.87 2.973-32 8.91-9 6.039-15.31 14.223-18.89 24.531-.42 1.149.03 2.078 1.37 2.809l22.36 11.09c1.34.742 2.21.531 2.64-.617 3-8.231 8.58-14.063 16.71-17.5 8.43-3.543 17.83-3.852 28.2-.942 10.02 2.809 19.03 8.281 27.05 16.41 7.77 8.02 12.99 16.981 15.63 26.871l3.44 12.821c-15.91-10.742-32.24-16.102-49-16.102-9.91 0-18.85 1.981-26.85 5.942-7.62 3.847-13.77 9.269-18.46 16.25-10 14.789-11.58 32.386-4.75 52.808 5.92 17.809 17.08 33.07 33.51 45.781 16.51 12.61 33.8 19.219 51.89 19.848 17.87.621 32.11-4.738 42.71-16.098z"/>
		</clipPath>
		<clipPath id="i" clipPathUnits="userSpaceOnUse">
			<path d="M2055.14 795.961c-.53-1.961-1.88-5.352-2.65-7.109-2.57-5.864-6.45-11.051-11.21-15.633-4.51-4.367-9.6-7.809-15.26-10.309-4.4-1.98-9.19-3.539-14.39-4.691-4.7-.828-8.79-1.297-12.25-1.399 0 0-7.57-.011-10.5.469-2.98.492-6.17 1.09-9.45 2.031-4.86 1.352-9.25 3.379-13.22 6.09a40.939 40.939 0 0 0-5.54 4.379 20.13 20.13 0 0 0-3.03 3.281c-.79.942-.53 1.918.8 2.969l20.39 15.473c1.02.718 1.93.777 2.7.148.63-.73 1.24-1.359 1.84-1.871.77-.629 1.42-1.148 1.92-1.57 2.47-2.117 12.36-8.078 27.82-4.68 2.76.609 5.09 1.352 6.99 2.18 3.93 1.883 6.81 4.64 8.62 8.293 0 0 3.62 6.57 1.05 11.258-1.86 3.23-6.44 7.121-13.27 10.769l-5.07 2.652-2.48 1.25-.97.469-1.23.629c-4.4 2.289-7.89 4.371-10.52 6.25-4.3 3.012-7.59 6.301-9.86 9.84-.31.422-.63.992-.95 1.723l-.74 1.867c-.66 1.461-1.09 2.761-1.3 3.91l-.51 2.191a48.72 48.72 0 0 0-.19 2.192v2.34l.03 1.25s.29 3.07.42 3.91l.43 2.179.07.321.3 1.09s1.47 4.527 2.1 6.089c.35.938 1.02 2.289 2.03 4.071 3.12 5.828 7.24 10.718 12.37 14.679 4.41 3.649 9.43 6.457 15.07 8.438 4.01 1.351 8.41 2.492 13.14 2.973 2.88.289 4.77.289 5.72.308.66.02 4.65.039 5.31 0 2.87-.129 6.04-.519 9.5-1.25 4.98-1.25 9.56-3.18 13.77-5.781a25.536 25.536 0 0 0 4.32-3.117c1.12-.84 3.64-3.5 4.18-4.223.89-.937.67-1.93-.64-2.969l-18.1-13.91c-1.07-.832-1.96-.89-2.7-.148-.67.617-1.3 1.187-1.88 1.707-.88.633-1.58 1.152-2.08 1.57a31.941 31.941 0 0 1-8.19 3.281c-2.29.41-4.21.621-5.77.621h-3.44c-.73 0-2.5-.062-3.34-.14-2.7-.289-5.13-.949-6.96-1.582-2-.828-3.66-1.77-4.97-2.809-1.33-1.039-2.42-2.398-3.28-4.058l-.32-.633-.36-.778-.58-1.562-.22-.777-.2-.782-.23-1.41.02-1.09.23-.941.33-1.09.29-.629.31-.621c1.03-1.57 2.74-3.18 5.1-4.848 2.04-1.351 18.62-9.839 18.62-9.839 4.3-2.192 7.83-4.383 10.58-6.563 4.26-3.129 7.46-6.57 9.58-10.32 2.88-4.789 4.43-10.16 3.77-16.25-.25-2.41-.96-6.36-1.87-9.758z"/>
		</clipPath>
		<clipPath id="k" clipPathUnits="userSpaceOnUse">
			<path d="M2125.72 784.012c2.89-1.672 6.95-1.102 12.19 1.707 1.2.633 2.03.422 2.48-.617l8.52-17.813c.62-1.148.22-2.09-1.22-2.82-8.78-5.098-17.22-7.649-25.35-7.649-5.52 0-10.43 1.25-14.77 3.75-5.52 3.121-9.23 7.91-11.14 14.371-1.82 6.457-1.63 13.75.54 21.879l19.97 74.532h-21.4c-1.36 0-1.86.668-1.49 2.027l5.94 22.191c.37 1.352 1.22 2.032 2.58 2.032h21.41l7.76 29.527c.36 1.351 1.21 2.031 2.57 2.031h22.34c1.35 0 1.86-.68 1.5-2.031l-7.92-29.527h21.4c1.35 0 1.86-.68 1.49-2.032l-5.94-22.191c-.37-1.359-1.23-2.027-2.58-2.027h-21.41l-19.97-74.532c-1.75-6.558-.92-10.84 2.5-12.808z"/>
		</clipPath>
		<clipPath id="m" clipPathUnits="userSpaceOnUse">
			<path d="M2293.44 841.352c.11 8.949-2.73 16.089-8.49 21.41-5.73 5.41-13.6 8.117-23.6 8.117-10.53 0-20.51-3.438-29.95-10.309-9.43-6.769-16.35-15.519-20.78-26.25zm-24.59 55.777c18.61-.109 32.66-6.981 42.13-20.617 9.5-13.551 11.74-29.692 6.71-48.442l-2.39-8.91c-.33-1.25-1.14-1.93-2.42-2.031l-105.51-8.91c1.53-7.5 5.22-13.539 11.09-18.117 5.96-4.59 13.2-6.883 21.75-6.883 7.5 0 15.01 1.769 22.52 5.32 7.63 3.641 14.27 8.59 19.91 14.84 1.02 1.141 2.04 1.41 3.02.781l16.21-11.25c1.08-.621 1.08-1.558.03-2.808-9.13-10.313-19.85-18.442-32.16-24.383-12.22-5.93-24.43-8.899-36.61-8.899-19.28 0-33.94 6.871-44.01 20.621-10.09 13.649-12.54 30.161-7.35 49.528 5.3 19.793 16.39 36.461 33.24 50 16.86 13.543 34.81 20.261 53.84 20.16z"/>
		</clipPath>
		<clipPath id="o" clipPathUnits="userSpaceOnUse">
			<path d="M1743.65 835.719c-.73-2.707-1.52-5.668-2.39-8.899l-1.17-4.379-1.13-4.222c-1.98-6.981-3.42-12.18-4.34-15.617a4819.817 4819.817 0 0 1-8.83-32.34l-3.12-11.102c-.36-1.359.12-2.031 1.48-2.031h22.5c1.35 0 2.22.672 2.58 2.031l2.81 11.102c2.32 8.636 5.15 19.418 8.52 32.34.92 3.437 2.31 8.636 4.18 15.617l.97 4.222 1.18 4.379c.87 3.231 1.66 6.192 2.39 8.899l1.21 4.543c.56 2.078.95 4.109 1.16 6.09.68 4.058.84 8.019.53 11.867-.6 7.922-3.04 14.902-7.36 20.941-4.12 6.039-9.87 10.391-17.03 13.442-5.93 2.527-11.83 3.058-12.44 3.117-.51.07-5.47.41-10.11.16-7.74-.418-15.46-2.66-23.04-6.09-2.61-1.148-5.34-2.609-8.2-4.379l2.84 10.629c.36 1.352-.14 2.031-1.49 2.031h-22.81c-1.36 0-2.22-.679-2.58-2.031l-36.76-137.187c-.36-1.364.13-2.032 1.49-2.032h22.81c1.35 0 2.22.668 2.58 2.032l21.23 79.218s.51 1.871.67 2.352c5.95 17.379 22.47 31.558 39.97 31.558 14.08 0 23.4-9.199 24.14-21.851v-.059c.17-3.058-.27-6.261-1.18-9.648"/>
		</clipPath>
		<clipPath id="q" clipPathUnits="userSpaceOnUse">
			<path d="M2445.52 835.719c-.72-2.707-1.51-5.668-2.38-8.899l-1.18-4.379-1.13-4.222c-1.97-6.981-3.42-12.18-4.33-15.617a3853.504 3853.504 0 0 1-8.83-32.34l-3.13-11.102c-.36-1.359.13-2.031 1.49-2.031h22.5c1.34 0 2.21.672 2.57 2.031l2.82 11.102c2.31 8.636 5.14 19.418 8.51 32.34.92 3.437 2.32 8.636 4.18 15.617l.98 4.222 1.17 4.379c.87 3.231 1.66 6.192 2.38 8.899l1.22 4.543c.56 2.078.95 4.109 1.17 6.09.66 4.058.84 8.019.52 11.867-.59 7.922-3.04 14.902-7.36 20.941-4.11 6.039-9.86 10.391-17.02 13.442-5.94 2.527-11.84 3.046-12.44 3.117-.52.07-5.47.41-10.12.16-7.73-.418-15.46-2.66-23.04-6.09-2.6-1.148-5.34-2.609-8.2-4.379l2.84 10.629c.36 1.352-.13 2.031-1.48 2.031h-22.81c-1.36 0-2.22-.679-2.58-2.031l-36.76-137.187c-.36-1.364.13-2.032 1.48-2.032h22.82c1.34 0 2.21.668 2.57 2.032l21.23 79.218s.51 1.871.68 2.34c5.95 17.391 22.47 31.57 39.97 31.57 14.07 0 23.4-9.199 24.13-21.851 0-.008.01-.02.01-.027v-.032c.17-3.058-.27-6.261-1.18-9.648"/>
		</clipPath>
	</defs>
	<path style="fill:#171b37;fill-opacity:1;fill-rule:nonzero;stroke:none" d="M2438.05 1450.84c9.98 4.4 19.88 2.89 29.71-4.52 2.31-1.65 4.79-1.11 7.45 1.64l47.63 47c3.29 3.03 3.54 5.51.76 7.43-15.92 13.45-34.58 20.19-56.02 20.19-14.56 0-29.33-3.29-44.29-9.88-18.97-8.25-35.55-20.91-49.72-37.93-8.8-10.78-15.78-22.54-21.31-35.07-3.22-7.29-6.07-14.77-8.18-22.65l-12.58-46.99-40.11-149.67h-88.87l-12.6-46.98c-2.11-7.89-4.96-15.37-8.18-22.66h90.99l-21.2-77.53c-.95-3.57.37-5.35 3.93-5.35h58.96c3.56 0 5.84 1.78 6.79 5.35l20.88 77.91h56.47c3.57 0 5.85 1.8 6.8 5.37l15.69 58.54c.95 3.57-.37 5.35-3.94 5.35h-56.46l52.69 196.66c4.64 17.31 12.86 28.59 24.71 33.79" transform="matrix(.13333 0 0 -.13333 0 294.8)"/>
	<g clip-path="url(#a)" transform="matrix(.13333 0 0 -.13333 0 294.8)">
		<path style="fill:url(#b);fill-opacity:1;fill-rule:nonzero;stroke:none" d="m2261.28 1439.7 21.2 77.53c.96 3.57-.36 5.35-3.93 5.35h-58.95c-3.57 0-5.85-1.78-6.81-5.35l-20.86-77.91h-56.48c-3.57 0-5.85-1.79-6.81-5.37l-15.68-58.54c-.96-3.57.36-5.35 3.94-5.35h56.46l-52.69-196.65c-4.64-17.32-12.87-28.59-24.71-33.8-9.97-4.4-19.88-2.88-29.72 4.52-2.3 1.65-4.78 1.11-7.44-1.64l-47.64-47c-3.29-3.03-3.53-5.51-.75-7.43 15.92-13.45 34.57-20.19 56.02-20.19 14.56 0 29.32 3.29 44.28 9.89 18.98 8.25 35.56 20.89 49.73 37.93 8.8 10.77 15.77 22.53 21.3 35.06 3.22 7.29 6.07 14.77 8.18 22.66l12.6 46.98 40.1 149.67h88.88l12.58 46.99c2.11 7.88 4.96 15.36 8.19 22.65h-90.99"/>
	</g>
	<g clip-path="url(#c)" transform="matrix(.13333 0 0 -.13333 0 294.8)">
		<path style="fill:url(#d);fill-opacity:1;fill-rule:nonzero;stroke:none" d="M1430.05 784.012c2.88-1.672 6.94-1.102 12.18 1.707 1.2.633 2.03.422 2.49-.617l8.5-17.813c.64-1.148.23-2.09-1.22-2.82-8.77-5.098-17.2-7.649-25.33-7.649-5.53 0-10.45 1.25-14.77 3.75-5.53 3.121-9.24 7.91-11.16 14.371-1.81 6.457-1.63 13.75.55 21.879l19.97 74.532h-21.41c-1.35 0-1.84.668-1.48 2.027l5.95 22.191c.36 1.352 1.22 2.032 2.58 2.032h21.4l7.76 29.527c.36 1.351 1.22 2.031 2.57 2.031h22.35c1.35 0 1.84-.68 1.48-2.031l-7.91-29.527h21.41c1.35 0 1.84-.68 1.48-2.032l-5.94-22.191c-.37-1.359-1.24-2.027-2.58-2.027h-21.41l-19.97-74.532c-1.76-6.558-.93-10.84 2.51-12.808"/>
	</g>
	<g clip-path="url(#e)" transform="matrix(.13333 0 0 -.13333 0 294.8)">
		<path style="fill:url(#f);fill-opacity:1;fill-rule:nonzero;stroke:none" d="M1537.83 781.352h1.57c8.61.308 16.67 3.539 24.15 9.687a43.047 43.047 0 0 1 7.76 7.973 50.885 50.885 0 0 1 4.38 7.027c.51 1.141.92 2.082 1.23 2.813l.61 1.718.79 2.34 22.64 83.91c.36 1.352 1.22 2.032 2.58 2.032h22.65c1.35 0 1.85-.68 1.49-2.032L1591 759.941c-.36-1.351-1.23-2.031-2.58-2.031h-22.66c-1.35 0-1.84.68-1.48 2.031l2.01 7.5c-3.11-1.871-6.07-3.429-8.92-4.679-7.79-3.442-15.57-5.453-23.26-5.793-3.25-.137-8.21-.028-11.75.472-3.93.571-7.53 1.821-10.99 3.278-7.01 3.019-12.58 7.711-16.71 14.07-4.13 6.352-6.37 13.539-6.72 21.563-.09 3.949.27 8.019 1.08 12.187.37 1.762.76 3.641 1.2 5.621l.62 2.352.59 2.179c1.23 4.579 2.8 10.469 4.73 17.661l1.13 4.218.93 4.059c.79 2.922 1.45 5.422 2.02 7.5 3.4 13.133 6.27 24.012 8.59 32.66l2.97 11.09c.39 1.461 1.26 2.191 2.62 2.191h22.34c1.35 0 1.83-.73 1.44-2.191l-3.12-11.09c-2.32-8.648-5.29-19.527-8.91-32.66-.97-3.649-2.39-8.91-4.23-15.777l-1.28-4.223-1.18-4.367c-.89-3.34-1.71-6.364-2.43-9.071l-.62-2.339-.59-2.192c-.48-1.769-1.57-5.262-1.55-10.469.05-4.48 1.16-8.492 3.34-12.031 2.26-3.539 5.3-6.199 9.11-7.969a30.765 30.765 0 0 1 6.05-1.871l.9-.16s.63-.109 1.27-.199c1.3-.191 2.87-.109 2.87-.109"/>
	</g>
	<g clip-path="url(#g)" transform="matrix(.13333 0 0 -.13333 0 294.8)">
		<path style="fill:url(#h);fill-opacity:1;fill-rule:nonzero;stroke:none" d="M1855.64 783.07c12.08 0 23.58 4.27 34.52 12.809 10.85 8.641 17.91 19.012 21.14 31.09 3.24 12.082 1.74 22.453-4.47 31.101-6.37 8.539-15.59 12.809-27.67 12.809-12.19 0-23.7-4.27-34.52-12.809-10.98-8.648-18.07-19.019-21.31-31.101-3.23-12.078-1.7-22.449 4.64-31.09 6.25-8.539 15.48-12.809 27.67-12.809zm74.82 112.5c.37 1.352 1.22 2.032 2.58 2.032h22.34c1.35 0 1.86-.68 1.49-2.032l-36.67-136.879c-5.2-19.371-16.51-35.929-33.94-49.679-17.44-13.75-35.84-20.633-55.21-20.633-12.19 0-22.87 2.973-32 8.91-9 6.039-15.31 14.223-18.89 24.531-.42 1.149.03 2.078 1.37 2.809l22.36 11.09c1.34.742 2.21.531 2.64-.617 3-8.231 8.58-14.063 16.71-17.5 8.43-3.543 17.83-3.852 28.2-.942 10.02 2.809 19.03 8.281 27.05 16.41 7.77 8.02 12.99 16.981 15.63 26.871l3.44 12.821c-15.91-10.742-32.24-16.102-49-16.102-9.91 0-18.85 1.981-26.85 5.942-7.62 3.847-13.77 9.269-18.46 16.25-10 14.789-11.58 32.386-4.75 52.808 5.92 17.809 17.08 33.07 33.51 45.781 16.51 12.61 33.8 19.219 51.89 19.848 17.87.621 32.11-4.738 42.71-16.098l3.85 14.379"/>
	</g>
	<g clip-path="url(#i)" transform="matrix(.13333 0 0 -.13333 0 294.8)">
		<path style="fill:url(#j);fill-opacity:1;fill-rule:nonzero;stroke:none" d="M2055.14 795.961c-.53-1.961-1.88-5.352-2.65-7.109-2.57-5.864-6.45-11.051-11.21-15.633-4.51-4.367-9.6-7.809-15.26-10.309-4.4-1.98-9.19-3.539-14.39-4.691-4.7-.828-8.79-1.297-12.25-1.399 0 0-7.57-.011-10.5.469-2.98.492-6.17 1.09-9.45 2.031-4.86 1.352-9.25 3.379-13.22 6.09a40.939 40.939 0 0 0-5.54 4.379 20.13 20.13 0 0 0-3.03 3.281c-.79.942-.53 1.918.8 2.969l20.39 15.473c1.02.718 1.93.777 2.7.148.63-.73 1.24-1.359 1.84-1.871.77-.629 1.42-1.148 1.92-1.57 2.47-2.117 12.36-8.078 27.82-4.68 2.76.609 5.09 1.352 6.99 2.18 3.93 1.883 6.81 4.64 8.62 8.293 0 0 3.62 6.57 1.05 11.258-1.86 3.23-6.44 7.121-13.27 10.769l-5.07 2.652-2.48 1.25-.97.469-1.23.629c-4.4 2.289-7.89 4.371-10.52 6.25-4.3 3.012-7.59 6.301-9.86 9.84-.31.422-.63.992-.95 1.723l-.74 1.867c-.66 1.461-1.09 2.761-1.3 3.91l-.51 2.191a48.72 48.72 0 0 0-.19 2.192v2.34l.03 1.25s.29 3.07.42 3.91l.43 2.179.07.321.3 1.09s1.47 4.527 2.1 6.089c.35.938 1.02 2.289 2.03 4.071 3.12 5.828 7.24 10.718 12.37 14.679 4.41 3.649 9.43 6.457 15.07 8.438 4.01 1.351 8.41 2.492 13.14 2.973 2.88.289 4.77.289 5.72.308.66.02 4.65.039 5.31 0 2.87-.129 6.04-.519 9.5-1.25 4.98-1.25 9.56-3.18 13.77-5.781a25.536 25.536 0 0 0 4.32-3.117c1.12-.84 3.64-3.5 4.18-4.223.89-.937.67-1.93-.64-2.969l-18.1-13.91c-1.07-.832-1.96-.89-2.7-.148-.67.617-1.3 1.187-1.88 1.707-.88.633-1.58 1.152-2.08 1.57a31.941 31.941 0 0 1-8.19 3.281c-2.29.41-4.21.621-5.77.621h-3.44c-.73 0-2.5-.062-3.34-.14-2.7-.289-5.13-.949-6.96-1.582-2-.828-3.66-1.77-4.97-2.809-1.33-1.039-2.42-2.398-3.28-4.058l-.32-.633-.36-.778-.58-1.562-.22-.777-.2-.782-.23-1.41.02-1.09.23-.941.33-1.09.29-.629.31-.621c1.03-1.57 2.74-3.18 5.1-4.848 2.04-1.351 18.62-9.839 18.62-9.839 4.3-2.192 7.83-4.383 10.58-6.563 4.26-3.129 7.46-6.57 9.58-10.32 2.88-4.789 4.43-10.16 3.77-16.25-.25-2.41-.96-6.36-1.87-9.758"/>
	</g>
	<g clip-path="url(#k)" transform="matrix(.13333 0 0 -.13333 0 294.8)">
		<path style="fill:url(#l);fill-opacity:1;fill-rule:nonzero;stroke:none" d="M2125.72 784.012c2.89-1.672 6.95-1.102 12.19 1.707 1.2.633 2.03.422 2.48-.617l8.52-17.813c.62-1.148.22-2.09-1.22-2.82-8.78-5.098-17.22-7.649-25.35-7.649-5.52 0-10.43 1.25-14.77 3.75-5.52 3.121-9.23 7.91-11.14 14.371-1.82 6.457-1.63 13.75.54 21.879l19.97 74.532h-21.4c-1.36 0-1.86.668-1.49 2.027l5.94 22.191c.37 1.352 1.22 2.032 2.58 2.032h21.41l7.76 29.527c.36 1.351 1.21 2.031 2.57 2.031h22.34c1.35 0 1.86-.68 1.5-2.031l-7.92-29.527h21.4c1.35 0 1.86-.68 1.49-2.032l-5.94-22.191c-.37-1.359-1.23-2.027-2.58-2.027h-21.41l-19.97-74.532c-1.75-6.558-.92-10.84 2.5-12.808"/>
	</g>
	<g clip-path="url(#m)" transform="matrix(.13333 0 0 -.13333 0 294.8)">
		<path style="fill:url(#n);fill-opacity:1;fill-rule:nonzero;stroke:none" d="M2293.44 841.352c.11 8.949-2.73 16.089-8.49 21.41-5.73 5.41-13.6 8.117-23.6 8.117-10.53 0-20.51-3.438-29.95-10.309-9.43-6.769-16.35-15.519-20.78-26.25zm-24.59 55.777c18.61-.109 32.66-6.981 42.13-20.617 9.5-13.551 11.74-29.692 6.71-48.442l-2.39-8.91c-.33-1.25-1.14-1.93-2.42-2.031l-105.51-8.91c1.53-7.5 5.22-13.539 11.09-18.117 5.96-4.59 13.2-6.883 21.75-6.883 7.5 0 15.01 1.769 22.52 5.32 7.63 3.641 14.27 8.59 19.91 14.84 1.02 1.141 2.04 1.41 3.02.781l16.21-11.25c1.08-.621 1.08-1.558.03-2.808-9.13-10.313-19.85-18.442-32.16-24.383-12.22-5.93-24.43-8.899-36.61-8.899-19.28 0-33.94 6.871-44.01 20.621-10.09 13.649-12.54 30.161-7.35 49.528 5.3 19.793 16.39 36.461 33.24 50 16.86 13.543 34.81 20.261 53.84 20.16"/>
	</g>
	<path style="fill:#171b37;fill-opacity:1;fill-rule:nonzero;stroke:none" d="M2500.99 756.82c-1.36 0-1.84.731-1.45 2.192l48.57 181.25c2.12 7.91 5.64 14.886 10.6 20.929 4.98 6.149 10.9 10.731 17.76 13.75 6.37 2.821 12.68 3.86 18.95 3.129 6.29-.629 11.87-2.968 16.71-7.031 1.03-.84.91-1.879-.36-3.129l-8.48-8.281c-1.14-1.149-2.17-1.301-3.08-.469-6.27 5-13.18 5.891-20.71 2.66-8.29-3.75-13.86-10.941-16.71-21.558l-48.56-181.25c-.39-1.461-1.32-2.192-2.77-2.192zm16.43 121.399c-1.46 0-1.99.73-1.6 2.191l2.77 10.309c.39 1.461 1.3 2.191 2.77 2.191h52.65c1.46 0 2-.73 1.61-2.191l-2.77-10.309c-.39-1.461-1.32-2.191-2.77-2.191h-52.66" transform="matrix(.13333 0 0 -.13333 0 294.8)"/>
	<path style="fill:#171b37;fill-opacity:1;fill-rule:nonzero;stroke:none" d="M2647.49 792.762c3.24 3.949 6.23 8.476 8.96 13.59l1.57 2.968 1.1 4.692 1.37 4.527 1.21 4.531c-1.12.102-2.19.2-3.19.309-4.27.422-8.26.672-11.99.781-5.39.102-10.68 0-15.85-.308-6.79-.422-12.94-1.25-18.49-2.5-7.56-1.774-13.75-4.274-18.58-7.5-5.71-3.864-9.57-8.911-11.55-15.161-2.22-7.5-2.3-13.429-.24-17.812 1.95-4.367 6.34-7.238 13.16-8.59 6.75-1.25 13.37-1.199 19.88.152a57.566 57.566 0 0 1 18.62 7.661c5.03 3.226 9.71 7.449 14.02 12.66zm2.56-35.942c-1.25 0-1.82.621-1.69 1.871 1.07 7.5 2.23 14.528 3.47 21.098-4.02-4.07-8.23-7.559-12.65-10.469-7.53-5.109-15.77-8.699-24.76-10.781a68.117 68.117 0 0 0-25.95-.629c-4.87.942-8.94 2.449-12.23 4.531-3.91 2.5-6.83 5.778-8.77 9.848-3.18 7.18-2.98 16.301.61 27.34a46.977 46.977 0 0 0 7.63 13.91c3.2 4.16 7.19 7.813 12 10.93 6.85 4.582 15.11 8.019 24.79 10.32 6.33 1.449 13.36 2.441 21.1 2.973 5.61.308 11.24.359 16.93.148 2.28 0 4.6-.109 6.94-.308 1.56 0 3.51-.114 5.86-.313l2.3-.16c4.06 15.941 3.97 26.883-.27 32.812-3.8 5.321-11.46 7.969-23.02 7.969-8.55 0-16.76-1.512-24.65-4.531a73.6 73.6 0 0 1-8.39-3.91 49.25 49.25 0 0 1-2.96-1.707c-.77-.532-1.48-1-2.1-1.41-1.16-.84-2.1-.84-2.81 0l-5.93 7.027c-.85 1.141-.56 2.242.88 3.281.89.629 1.83 1.25 2.84 1.879 1.26.832 2.58 1.66 3.96 2.5a94.12 94.12 0 0 0 10.8 5.313c10.51 4.269 21.28 6.41 32.33 6.41 15.72 0 26.54-4.172 32.43-12.5 4.44-6.364 6.05-15.16 4.81-26.41-.45-4.383-1.39-9.43-2.82-15.161l-2.09-7.812-2.01-7.5a357.525 357.525 0 0 1-2.66-9.367c-2.21-8.242-4.34-17.922-6.39-29.071a521.884 521.884 0 0 1-4.21-25.621c-.24-1.672-1.19-2.5-2.85-2.5h-10.47" transform="matrix(.13333 0 0 -.13333 0 294.8)"/>
	<path style="fill:#171b37;fill-opacity:1;fill-rule:nonzero;stroke:none" d="M2768.38 771.512c14.69 0 28.63 5.199 41.85 15.617 13.19 10.422 21.75 22.922 25.66 37.5 3.94 14.691 2.09 27.242-5.53 37.66-7.63 10.41-18.79 15.621-33.47 15.621-14.59 0-28.49-5.211-41.68-15.621-13.22-10.418-21.79-22.969-25.73-37.66-3.9-14.578-2.05-27.078 5.59-37.5 7.62-10.418 18.72-15.617 33.31-15.617zm39.67 120.617c15.2-1.559 26.97-7.969 35.31-19.219 8.34-11.25 11.3-24.691 8.89-40.308-1.54-10-5.14-19.743-10.8-29.223-5.32-8.957-12.16-16.981-20.51-24.059-8.25-7.09-17.17-12.558-26.74-16.41-9.94-4.058-19.86-6.09-29.76-6.09-10.52 0-19.84 2.34-27.95 7.032-7.97 4.476-14.07 10.726-18.27 18.75l-6.31-23.59c-.4-1.461-1.32-2.192-2.78-2.192h-10.31c-1.47 0-1.99.731-1.6 2.192l58.82 219.527c.39 1.449 1.3 2.18 2.77 2.18h10.31c1.46 0 1.99-.731 1.6-2.18l-29.93-111.719c9.48 8.95 20.03 15.668 31.65 20.149 12.09 4.691 23.96 6.41 35.61 5.16" transform="matrix(.13333 0 0 -.13333 0 294.8)"/>
	<path style="fill:#171b37;fill-opacity:1;fill-rule:nonzero;stroke:none" d="M2964.53 891.352c1.37-.313 1.71-1.204 1.01-2.661l-4.76-10.152c-.67-1.359-1.67-1.93-2.96-1.719-1.78.309-3.68.469-5.65.469-10.73 0-20.92-3.809-30.56-11.41-9.65-7.609-15.9-16.77-18.77-27.5l-21.27-79.367c-.39-1.461-1.27-2.192-2.61-2.192h-10.47c-1.47 0-1.99.731-1.6 2.192l35.29 131.707c.39 1.461 1.31 2.191 2.77 2.191h10.47c1.35 0 1.84-.73 1.45-2.191l-4.19-15.617c13.64 11.25 28.11 16.867 43.42 16.867 2.91 0 5.73-.207 8.43-.617" transform="matrix(.13333 0 0 -.13333 0 294.8)"/>
	<path style="fill:#171b37;fill-opacity:1;fill-rule:nonzero;stroke:none" d="M2957.08 756.82c-1.36 0-1.83.731-1.44 2.192l35.12 131.09c.39 1.449 1.26 2.187 2.62 2.187h10.47c1.45 0 1.99-.738 1.6-2.187l-35.13-131.09c-.39-1.461-1.31-2.192-2.77-2.192zm58.74 171.399c-2.65-2.078-5.43-3.117-8.34-3.117-3.03 0-5.25 1.039-6.66 3.117-1.53 2.082-1.9 4.582-1.12 7.5.78 2.922 2.49 5.422 5.14 7.5 2.52 2.082 5.31 3.133 8.34 3.133 2.91 0 5.12-1.051 6.66-3.133 1.52-2.078 1.89-4.578 1.11-7.5-.78-2.918-2.49-5.418-5.13-7.5" transform="matrix(.13333 0 0 -.13333 0 294.8)"/>
	<path style="fill:#171b37;fill-opacity:1;fill-rule:nonzero;stroke:none" d="M3020.87 779.012c-9.69 14.789-10.89 32.226-3.63 52.34 5.67 15.726 15.62 29.367 29.87 40.937 14.22 11.449 29.4 18.172 45.57 20.152 16.8 2.079 30.92-1.203 42.35-9.839 1.04-.84.96-1.883-.2-3.133l-8.25-8.59c-1.04-1.149-2.08-1.359-3.13-.617-7.38 5.508-16.41 8.168-27.09 7.957-14.04-.309-27.46-5.457-40.24-15.457-12.78-10-21.3-21.992-25.56-35.942-4.58-15.109-3.05-28.082 4.57-38.91 7.62-10.832 18.93-16.25 33.93-16.25 10.21 0 20.29 2.66 30.26 7.969 1.34.73 2.26.519 2.8-.617l3.48-8.602c.6-1.25.1-2.289-1.47-3.121-12.91-6.988-25.93-10.469-39.05-10.469-20 0-34.74 7.391-44.21 22.192" transform="matrix(.13333 0 0 -.13333 0 294.8)"/>
	<g clip-path="url(#o)" transform="matrix(.13333 0 0 -.13333 0 294.8)">
		<path style="fill:url(#p);fill-opacity:1;fill-rule:nonzero;stroke:none" d="M1743.65 835.719c-.73-2.707-1.52-5.668-2.39-8.899l-1.17-4.379-1.13-4.222c-1.98-6.981-3.42-12.18-4.34-15.617a4819.817 4819.817 0 0 1-8.83-32.34l-3.12-11.102c-.36-1.359.12-2.031 1.48-2.031h22.5c1.35 0 2.22.672 2.58 2.031l2.81 11.102c2.32 8.636 5.15 19.418 8.52 32.34.92 3.437 2.31 8.636 4.18 15.617l.97 4.222 1.18 4.379c.87 3.231 1.66 6.192 2.39 8.899l1.21 4.543c.56 2.078.95 4.109 1.16 6.09.68 4.058.84 8.019.53 11.867-.6 7.922-3.04 14.902-7.36 20.941-4.12 6.039-9.87 10.391-17.03 13.442-5.93 2.527-11.83 3.058-12.44 3.117-.51.07-5.47.41-10.11.16-7.74-.418-15.46-2.66-23.04-6.09-2.61-1.148-5.34-2.609-8.2-4.379l2.84 10.629c.36 1.352-.14 2.031-1.49 2.031h-22.81c-1.36 0-2.22-.679-2.58-2.031l-36.76-137.187c-.36-1.364.13-2.032 1.49-2.032h22.81c1.35 0 2.22.668 2.58 2.032l21.23 79.218s.51 1.871.67 2.352c5.95 17.379 22.47 31.558 39.97 31.558 14.08 0 23.4-9.199 24.14-21.851v-.059c.17-3.058-.27-6.261-1.18-9.648"/>
	</g>
	<g clip-path="url(#q)" transform="matrix(.13333 0 0 -.13333 0 294.8)">
		<path style="fill:url(#r);fill-opacity:1;fill-rule:nonzero;stroke:none" d="M2445.52 835.719c-.72-2.707-1.51-5.668-2.38-8.899l-1.18-4.379-1.13-4.222c-1.97-6.981-3.42-12.18-4.33-15.617a3853.504 3853.504 0 0 1-8.83-32.34l-3.13-11.102c-.36-1.359.13-2.031 1.49-2.031h22.5c1.34 0 2.21.672 2.57 2.031l2.82 11.102c2.31 8.636 5.14 19.418 8.51 32.34.92 3.437 2.32 8.636 4.18 15.617l.98 4.222 1.17 4.379c.87 3.231 1.66 6.192 2.38 8.899l1.22 4.543c.56 2.078.95 4.109 1.17 6.09.66 4.058.84 8.019.52 11.867-.59 7.922-3.04 14.902-7.36 20.941-4.11 6.039-9.86 10.391-17.02 13.442-5.94 2.527-11.84 3.046-12.44 3.117-.52.07-5.47.41-10.12.16-7.73-.418-15.46-2.66-23.04-6.09-2.6-1.148-5.34-2.609-8.2-4.379l2.84 10.629c.36 1.352-.13 2.031-1.48 2.031h-22.81c-1.36 0-2.22-.679-2.58-2.031l-36.76-137.187c-.36-1.364.13-2.032 1.48-2.032h22.82c1.34 0 2.21.668 2.57 2.032l21.23 79.218s.51 1.871.68 2.34c5.95 17.391 22.47 31.57 39.97 31.57 14.07 0 23.4-9.199 24.13-21.851 0-.008.01-.02.01-.027v-.032c.17-3.058-.27-6.261-1.18-9.648"/>
	</g>
</svg>
