<svg xmlns="http://www.w3.org/2000/svg" width="200" height="128">
    <path d="M28.694 90.476a9.827 9.827 0 0 0 2.858-.521v3.379a10.179 10.179 0 0 1-4.168.759 5.1 5.1 0 0 1-3.968-1.376 6 6 0 0 1-1.243-4.131v-8.024H20v-1.92l2.5-1.519 1.31-3.513h2.9v3.543h4.659v3.409h-4.655v8.024a1.773 1.773 0 0 0 .543 1.429 2.147 2.147 0 0 0 1.437.461zM47.49 93.8l-1.281-5.821-1.7-7.353h-.134L41.342 93.8h-4.883l-4.734-16.647h4.526l1.92 7.369q.327 1.309.908 5.463h.121a30.6 30.6 0 0 1 .521-3.588l.238-1.265 2.055-7.979h5l1.95 7.979q.178.819.44 2.4a20.815 20.815 0 0 1 .29 2.449h.119q.163-1.324.461-3.015t.507-2.448l1.994-7.369h4.451L52.432 93.8zM65.294 94.093a8.591 8.591 0 0 1-6.282-2.217 8.4 8.4 0 0 1-2.263-6.282 9.237 9.237 0 0 1 2.092-6.469 7.447 7.447 0 0 1 5.783-2.284 7.329 7.329 0 0 1 5.493 2.009 7.6 7.6 0 0 1 1.965 5.55v2.2H61.349a4.369 4.369 0 0 0 1.151 3.028 4.035 4.035 0 0 0 3 1.086 12.505 12.505 0 0 0 2.843-.312 14.29 14.29 0 0 0 2.8-1v3.513a10.649 10.649 0 0 1-2.543.885 16.027 16.027 0 0 1-3.306.293zm-.64-14.022a2.881 2.881 0 0 0-2.263.915 4.237 4.237 0 0 0-.938 2.6h6.371a3.787 3.787 0 0 0-.878-2.6 2.975 2.975 0 0 0-2.292-.915zM88.934 93.8h-4.54v-9.725a4.894 4.894 0 0 0-.6-2.7 2.12 2.12 0 0 0-1.9-.9 2.749 2.749 0 0 0-2.531 1.28 8.4 8.4 0 0 0-.789 4.213V93.8h-4.54V77.153H77.5l.611 2.129h.253a4.61 4.61 0 0 1 1.936-1.794 6.29 6.29 0 0 1 2.9-.647q3.737 0 5.061 2.441h.4a4.5 4.5 0 0 1 1.972-1.8 6.578 6.578 0 0 1 2.94-.64 5.8 5.8 0 0 1 4.28 1.451q1.452 1.451 1.452 4.652V93.8h-4.551v-9.725a4.894 4.894 0 0 0-.6-2.7 2.12 2.12 0 0 0-1.9-.9 2.832 2.832 0 0 0-2.494 1.191 6.755 6.755 0 0 0-.826 3.781zM111.1 94.093a5.519 5.519 0 0 1-4.6-2.128h-.238q.239 2.083.238 2.411v6.744h-4.54V77.153h3.692l.64 2.159h.208a5.251 5.251 0 0 1 4.719-2.471 5.4 5.4 0 0 1 4.615 2.277 10.539 10.539 0 0 1 1.667 6.327 12.492 12.492 0 0 1-.781 4.629 6.5 6.5 0 0 1-2.226 2.993 5.708 5.708 0 0 1-3.394 1.026zm-1.34-13.62a2.868 2.868 0 0 0-2.456 1.034 5.944 5.944 0 0 0-.8 3.417v.491a7.012 7.012 0 0 0 .8 3.841 2.844 2.844 0 0 0 2.523 1.161q3.051 0 3.051-5.032a7.186 7.186 0 0 0-.751-3.684 2.567 2.567 0 0 0-2.364-1.228zM128.724 76.841a7.293 7.293 0 0 1 1.534.134l-.343 4.257a5.212 5.212 0 0 0-1.34-.149 4.809 4.809 0 0 0-3.386 1.117 4.034 4.034 0 0 0-1.213 3.126V93.8h-4.541V77.153h3.439l.67 2.8h.223a6.255 6.255 0 0 1 2.092-2.256 5.159 5.159 0 0 1 2.865-.856zM146.492 85.445a8.938 8.938 0 0 1-2.144 6.356 7.77 7.77 0 0 1-5.969 2.292 8.342 8.342 0 0 1-4.227-1.049 6.986 6.986 0 0 1-2.814-3.015 10.124 10.124 0 0 1-.982-4.584 8.9 8.9 0 0 1 2.128-6.342 7.821 7.821 0 0 1 5.985-2.262 8.392 8.392 0 0 1 4.227 1.042 6.951 6.951 0 0 1 2.814 2.992 10.034 10.034 0 0 1 .982 4.57zm-11.507 0a6.982 6.982 0 0 0 .811 3.736 2.9 2.9 0 0 0 2.643 1.266 2.857 2.857 0 0 0 2.612-1.258 7.087 7.087 0 0 0 .8-3.744 6.876 6.876 0 0 0-.8-3.707 3.419 3.419 0 0 0-5.255-.007 6.866 6.866 0 0 0-.811 3.714z"/>
    <path d="M151.36 85.3L146 77.153h5.15l3.231 5.3 3.26-5.3h5.15l-5.417 8.147 5.672 8.5h-5.166l-3.5-5.7-3.513 5.7h-5.151z"/>
    <path d="M162.658 77.153h4.972l3.141 9.364a12.964 12.964 0 0 1 .55 2.888h.089a12.774 12.774 0 0 1 .641-2.888l3.081-9.364H180l-7.041 18.771a8.131 8.131 0 0 1-2.762 3.9 6.971 6.971 0 0 1-4.19 1.3 10.576 10.576 0 0 1-2.307-.253v-3.6a7.753 7.753 0 0 0 1.786.194 3.225 3.225 0 0 0 2.106-.737A4.776 4.776 0 0 0 169 94.5l.268-.819z"/>
    <path d="M134.429 53.527a3.01 3.01 0 0 0-2.634 1.552h-14.772v-1.792L99.652 64.516l-17.37-11.229v1.792H67.51a3.013 3.013 0 1 0 0 2.92h14.772v1.512l17.37 11.229 17.371-11.229V58h14.771a3.013 3.013 0 1 0 2.635-4.472z" fill="#d8326f"/>
    <path d="M134.429 44.841a3.009 3.009 0 0 0-2.634 1.553h-14.772V44.2L99.652 55.427 82.282 44.2v2.2H67.51a3.013 3.013 0 1 0 0 2.92h14.772v1.108l17.37 11.229 17.371-11.229v-1.114h14.772a3.012 3.012 0 1 0 2.634-4.473z" fill="#632ca6"/>
    <path d="M134.429 35.209a3.009 3.009 0 0 0-2.634 1.553h-14.772v-1.653L99.652 23.88l-17.37 11.229v1.653H67.51a3.013 3.013 0 1 0 0 2.919h14.772v1.652l17.37 11.23 17.371-11.23v-1.652h14.772a3.012 3.012 0 1 0 2.634-4.472z" fill="#00aced"/>
</svg>
