<svg xmlns="http://www.w3.org/2000/svg" width="200" height="128">
    <rect x="55" y="19" width="90" height="90" rx="12.11" fill="#e7c659"/>
    <path fill="#fff" d="M83.05 74H69.4v-2.71l6.44-6.86a15.47 15.47 0 002-2.53 4 4 0 00.64-2 3 3 0 00-.67-2.09 2.45 2.45 0 00-1.95-.81 2.61 2.61 0 00-2.12.93 3.66 3.66 0 00-.74 2.42h-4a6.5 6.5 0 01.87-3.35 6.15 6.15 0 012.46-2.36 7.44 7.44 0 013.59-.85 7.08 7.08 0 014.78 1.47 5.22 5.22 0 011.7 4.17 6.68 6.68 0 01-.76 3A16.81 16.81 0 0179 66l-4.52 4.77h8.56zM98.87 65.77a10.07 10.07 0 01-1.71 6.31 6.82 6.82 0 01-10 0A9.79 9.79 0 0185.41 66v-3.69q0-4.17 1.73-6.33a6.84 6.84 0 0110 0 9.74 9.74 0 011.77 6.14zm-4-4a7.33 7.33 0 00-.67-3.61A2.3 2.3 0 0092.12 57a2.24 2.24 0 00-2.05 1.08 6.72 6.72 0 00-.71 3.36v4.84A7.53 7.53 0 0090 69.9a2.25 2.25 0 002.12 1.18A2.19 2.19 0 0094.24 70a7.37 7.37 0 00.67-3.48zM113.22 66.5h2.26v3.19h-2.26V74h-4v-4.31h-8.16l-.18-2.49 8.3-13.11h4zm-8.35 0h4.4v-7l-.26.45zM130.57 59.38a4.62 4.62 0 01-.72 2.57 5.18 5.18 0 01-2 1.79 5.88 5.88 0 012.3 1.92 5 5 0 01.84 2.88 5.21 5.21 0 01-1.8 4.19 8.61 8.61 0 01-9.83 0 5.22 5.22 0 01-1.82-4.19 4.92 4.92 0 01.85-2.88 5.65 5.65 0 012.28-1.92 5.08 5.08 0 01-2-1.79 4.62 4.62 0 01-.72-2.57 5.15 5.15 0 011.7-4.05 6.67 6.67 0 014.61-1.51 6.77 6.77 0 014.6 1.49 5.17 5.17 0 011.71 4.07zM127 68.25a2.86 2.86 0 00-.75-2.07 2.69 2.69 0 00-2-.78 2.72 2.72 0 00-2 .77 2.85 2.85 0 00-.75 2.08 2.89 2.89 0 00.74 2.06 3.1 3.1 0 004.07 0 2.84 2.84 0 00.69-2.06zm-.41-8.68a2.73 2.73 0 00-.62-1.86 2.18 2.18 0 00-1.73-.71 2.22 2.22 0 00-1.73.69 2.69 2.69 0 00-.61 1.88 2.87 2.87 0 00.61 1.92 2.18 2.18 0 001.74.72 2.14 2.14 0 001.73-.72 2.87 2.87 0 00.64-1.92z"/>
</svg>
