<svg xmlns="http://www.w3.org/2000/svg" width="200" height="128">
	<path d="M36.13 69.38V54.44l7.8 14.94zm0-21.51-6.57 6.57-1.31 1.31L20 64l16.13 16.13V69.38h-7.81l7.81-14.94z" fill="#1dc1ea"/>
	<path d="M118.07 60.3c-3.51-.51-4.27-.9-4.27-1.69s1-1.44 3.32-1.44a14.66 14.66 0 0 1 5.4 1.13c.44.17.83.36 1.22.54v-3.43h-.08a15.53 15.53 0 0 0-6.34-1.19c-4.55 0-7.56 2-7.56 4.64 0 2.89 2.43 3.92 7.24 4.6 3.38.47 4.2.84 4.2 1.69s-1.23 1.57-4 1.57a16 16 0 0 1-5.67-1.22c-.45-.18-1-.45-1.52-.71v3.43l.39.17a18.53 18.53 0 0 0 7 1.32c4.43 0 7.86-1.8 7.86-4.75S123 61 118.07 60.3zm-55.85-5.83c4.14 0 6.46 2 6.46 5.06 0 3.27-2.57 5.17-6.67 5.17h-4.5v4.68h-3.89V54.47zm-4.71 7.23h3.94c2.53 0 3.36-.81 3.36-2.1s-.92-2.11-3.18-2.11h-4.12zm21.6 7.68h-3.89V54.47H85c4.09 0 6.26 1.81 6.26 4.88 0 2.42-1.59 4-3.91 4.63l4.65 5.4h-4.47l-4.32-5.11h-4.1zm0-8H84c2.17 0 3.26-.65 3.26-2s-.89-2-3.08-2h-5.07zm23.62-6.92v14.92h-3.92V54.47zm34.38 0 5.21 10.14h.07l5.17-10.14h5.68v14.92h-3.85V58.25L143.6 69.4h-2.78l-5.75-11.15v11.13h-3.6V54.47zm35.95 12.24h-8.55l-1.32 2.67h-4.05l7.59-15H171l7.61 15h-4.21zm-7.21-2.7h5.87l-2.91-5.93h-.05zm11-9.54h1.24v.32h-.42V56h-.39v-1.24h-.43zm3.12 0V56h-.35v-.93l-.36.69a.18.18 0 0 1 0 .07h-.18a.18.18 0 0 1-.05-.07l-.36-.7V56h-.35v-1.56h.37l.39.76v.09-.09l.39-.76h.53z" fill="#040707"/>
	<path d="M53.61 75.61h1.78c.58 0 .94.25.94.71a.61.61 0 0 1-.48.65c.37.15.54.34.54.67 0 .58-.45.79-1.07.79h-1.71zm1.55 1.13c.23 0 .33-.07.33-.25s-.1-.24-.33-.24h-.72v.49zm0 1.05c.25 0 .35-.08.35-.26s-.1-.26-.35-.26h-.76v.53zm2.88-.26-1.23-1.92h.95l.69 1.13.7-1.13h.93l-1.24 1.92v.9h-.85zm4.29-1.92H64a1 1 0 0 1 1.06 1.06A1 1 0 0 1 64 77.74h-.76v.69h-.84zm1.51 1.47a.35.35 0 0 0 .38-.39.34.34 0 0 0-.39-.39h-.66v.78zm2.58-1.47h1.36l1 2.82h-.89l-.2-.58h-1.14l-.2.58h-.87zm.3 1.61h.75l-.3-.89h-.15zm2.78-1.61h.84v2.09h1.5v.73h-2.3zM72.43 77A1.61 1.61 0 1 1 74 78.52 1.45 1.45 0 0 1 72.43 77zm2.38 0a.77.77 0 1 0-.77.78.71.71 0 0 0 .77-.78zm3.94-1.41h1.36l1 2.82h-.88l-.2-.58h-1.18l-.21.58h-.86zm.3 1.61h.76l-.3-.89h-.16zm2.78-1.61h.85v2.11h1.49v.73h-2.34zm3.52.73h-1v-.73h2.76v.73h-1v2.09h-.85zm2.39.68a1.61 1.61 0 1 1 1.61 1.5 1.45 1.45 0 0 1-1.61-1.5zm2.38 0a.77.77 0 1 0-.77.78.71.71 0 0 0 .77-.78zm3.23-1.41h.88l1.21 1.6v-1.6h.8v2.82h-.84l-1.23-1.64v1.64h-.8zm3.91 0h2.46v.69H98.1v.39h1.3v.62h-1.3v.44h1.7v.68h-2.54zm4.19.73h-1v-.73h2.75v.73h-1v2.09h-.85zm2.45-.73h.9l.46 2 .6-2h.82l.59 2 .45-2h.86l-.74 2.82h-1.1l-.52-1.7-.53 1.7h-1.11zm5.32 1.41a1.61 1.61 0 1 1 1.61 1.5 1.45 1.45 0 0 1-1.61-1.5zm2.37 0a.77.77 0 1 0-.77.78.7.7 0 0 0 .77-.78zm1.69-1.41h1.64c.75 0 1.12.36 1.12 1a.89.89 0 0 1-.55.9l.67.9h-1l-.52-.74h-.55v.74h-.85zm1.54 1.41a.34.34 0 0 0 .38-.37c0-.21-.1-.36-.38-.36h-.69V77zm2.09-1.42h.84v1h.35l.83-1h.95L118.8 77l1.14 1.46h-1l-.85-1.08h-.35v1.08h-.84zm3.6 2.64v-.78a3 3 0 0 0 1.33.36q.45 0 .45-.21c0-.15-.1-.18-.7-.28s-1.1-.3-1.1-.87.46-.93 1.37-.93a2.79 2.79 0 0 1 1.09.22v.77a2.48 2.48 0 0 0-1.15-.31c-.32 0-.45.08-.45.2s.2.18.7.27c.66.11 1.1.3 1.1.89s-.35.93-1.35.93a3.37 3.37 0 0 1-1.29-.23z" fill="#808282"/>
</svg>
