<svg xmlns="http://www.w3.org/2000/svg" width="200" height="128">
    <path d="M20.28 41.26h15a13.75 13.75 0 018.89 3.39 13.62 13.62 0 014.7 7.35 15.62 15.62 0 01.53 3.65c.06 4.49 0 9 0 13.47 0 1.12 0 1.15-1.12 1.15h-14a13.75 13.75 0 01-8.78-3.3 14.57 14.57 0 01-5.07-8.72L20.28 57z" fill="#4bbfad"/>
    <path fill="#505173" d="M127.4 43.14h-5.72a5.34 5.34 0 00-5.15 5.36v20.35a5.55 5.55 0 01-.87 3 10.23 10.23 0 01-3 3.19 17.42 17.42 0 01-12.54 2.77 5.77 5.77 0 01-4.28-2.54 8.32 8.32 0 01-1.13-4.71v-22.1a5.35 5.35 0 00-4.62-5.31c-2-.18-4.09 0-6.14 0 0 0-.06 0-.15.12V72.5a23.22 23.22 0 00.68 5.32 12.57 12.57 0 008.8 9.47 25.46 25.46 0 0010.19 1 21 21 0 009.17-2.71 42.82 42.82 0 003.65-2.69c0 .47 0 .94-.11 1.41-.55 4.21-2.52 7.38-6.64 9a17.89 17.89 0 01-5.74 1.07A36.75 36.75 0 0190.28 92a8.81 8.81 0 00-3-.44 3.29 3.29 0 00-3.45 3.58v3.9a1.09 1.09 0 00.63 1.12 33.74 33.74 0 0013.8 4.29c1 .1 1.9.18 2.86.27h3.1c.26 0 .52-.1.79-.12a28.9 28.9 0 008.19-1.51 19.41 19.41 0 0012-11 27.75 27.75 0 002.2-11V43.97c.04-.25.02-.51 0-.83zm-11 39.74zM179.84 87.7c-2.5-6.3-5-12.59-7.47-18.91a7.92 7.92 0 00-2.61-3.74 2.2 2.2 0 00-.3-.19c3-7.32 5.87-14.48 8.78-21.68-2.59 0-5.07-.12-7.53 0a5.41 5.41 0 00-4.94 3.31c-1.61 3.68-3.22 7.36-4.78 11.07a2.45 2.45 0 01-2 1.62 8.55 8.55 0 01-1.34.11H147.47V28.62a5.34 5.34 0 00-5.38-5.4h-5.54v65.13c2 0 4 .13 5.91 0a5.32 5.32 0 005.09-5.7c0-3.84-.08-7.68-.11-11.51v-.75c.11 0 .15-.08.19-.08h12.08a2.21 2.21 0 012.17 1.5c1.76 4.15 3.67 8.24 5.34 12.43a5.86 5.86 0 005.58 4.1c2.31.11 4.63.06 6.95.07a1.36 1.36 0 00.32-.08v-.13a3 3 0 01-.23-.5z"/>
    <path fill="#505173" d="M94.37 34c.41 0 .55-.14.55-.55v-4.58c-.13-3.31-2.43-5.66-5.49-5.66H43.77v5.12A5.4 5.4 0 0049.43 34h14.46v54.33h5.16a5.48 5.48 0 005.77-5.75V35c0-.88 0-.88.86-.89L94.1 34z"/>
</svg>
