<svg xmlns="http://www.w3.org/2000/svg" viewBox="-3.03 -3.03 157.56 30.94">
	<path fill="#558F7B" d="M117.736 20.099H107.44v4.9h10.296v-4.9z"/>
	<path d="M6.114 4.47H0V0h17.21v4.47h-6.083v15.629H6.114V4.47zm20.275 8.7L18.614 0h5.763l4.534 8.493L33.653 0h5.555l-7.79 13.17v6.945h-5.029v-6.944zM40.613 0h4.997l8.748 11.877V0h4.997v20.099h-4.997L45.61 8.222v11.877h-4.997V0zM68.6 13.17 60.808 0h5.763l4.534 8.493L75.846 0h5.572l-7.79 13.17v6.945h-5.03v-6.944zM82.758 0h10.504c3.72 0 6.29 2.14 6.29 5.06 0 1.996-1.022 3.609-2.778 4.47 2.315 1.022 3.688 2.922 3.688 5.125 0 3.225-2.841 5.444-6.816 5.444H82.758V0zm9.275 7.966c1.373 0 2.379-.798 2.379-1.868s-.99-1.851-2.379-1.851H87.74v3.72h4.294zm.766 7.902c1.47 0 2.523-.846 2.523-2.011S94.269 11.83 92.8 11.83h-5.06v4.039h5.06zm34.818-2.697L119.844 0h5.763l4.534 8.493L134.882 0h5.556l-7.775 13.17v6.945h-5.029v-6.944h-.016zM115.406 0h-5.62l-7.966 20.099h5.62l5.156-13.01 5.141 13.01h5.619L115.406 0zm29.965.782h-1.07V0h3.033v.782h-1.069v2.746h-.878V.782h-.016zM150.735 0l-1.022 1.836L148.691 0h-.878v3.544h.878v-2.06l.846 1.533h.352l.846-1.532v2.06h.878V0h-.878z"/>
</svg>
