<svg xmlns="http://www.w3.org/2000/svg" id="图层_1" data-name="图层 1" viewBox="0 0 400 245">
	<defs>
		<style>
			.cls-1{fill:#3264af}
		</style>
	</defs>
	<path class="cls-1" d="m320.137 133.788-3.407 4.397 6.934 8.258h6.852l-10.379-12.655z"/>
	<path class="cls-1" d="M283.858 115.588v22.499a9.987 9.987 0 0 0 .911 4.65c1.318 2.46 3.656 3.707 6.954 3.707h8.425c3.463 0 4.927-1.118 6.954-3.708.294-.545 18.108-25.097 18.108-25.097h-6.816s-14.918 21.018-15.459 21.73l-.146.192c-1.143 1.508-1.57 2.072-3.654 2.072h-6.977c-1.173 0-2.372-.405-2.372-3.41v-22.635Z"/>
	<path class="cls-1" d="M303.141 107.053h27.753v5.068h-27.753z"/>
	<path class="cls-1" d="M313.804 102.79h6.993v4.886h-6.993z"/>
	<path class="cls-1" d="M333.111 107.054h5.157v29.824h-5.157z"/>
	<path class="cls-1" d="M341.18 103.015v36.233a2.23 2.23 0 0 1-2.286 2.44l-3.757.028-1.292 4.878h5.345c5.203 0 7.159-3.003 7.159-7.833v-35.746Z"/>
	<path class="cls-1" d="M390.677 124.198h-24.373v4.402h20.552a1.16 1.16 0 0 1 1.16 1.16v9.396a6.648 6.648 0 0 1-.136 1.632 1.997 1.997 0 0 1-.455.715 2.317 2.317 0 0 1-1.783.617h-2.305l-1.293 4.523h5.237a5.481 5.481 0 0 0 2.647-.722 6.751 6.751 0 0 0 2.611-2.566 8.982 8.982 0 0 0 .853-4.444l.011-11.985a2.726 2.726 0 0 0-2.726-2.728"/>
	<path class="cls-1" d="M369.272 138.725h9.005v4.513h-9.005z"/>
	<path class="cls-1" d="m261.082 102.898-.156.374c-2.424 5.811-4.757 9.765-7.562 12.82l-.151.163v6.642l1.04-.837a37.662 37.662 0 0 0 12.75-18.404l.252-.758Z"/>
	<path class="cls-1" d="m359.466 114.022-.17.285a45.861 45.861 0 0 1-7.023 9.043l-.195.173v5.79l.957-.792a49.87 49.87 0 0 0 11.82-13.624l.502-.875Z"/>
	<path class="cls-1" d="m359.457 102.923-.168.296a42.765 42.765 0 0 1-7.016 9.03l-.195.175v5.792l.958-.795a50.22 50.22 0 0 0 11.82-13.624l.5-.874Z"/>
	<path class="cls-1" d="M257.447 113.694v32.671h5.671v-38.511l-5.671 5.84z"/>
	<path class="cls-1" d="m323.356 125.615-14.697 20.829h6.507l14.696-20.829h-6.506z"/>
	<path class="cls-1" d="M286.186 104.016h6.419v5.166h-6.419z"/>
	<path class="cls-1" d="M310.056 121.687a1.676 1.676 0 0 1 .24-1.617l6.809-9.031-4.319-3.342-7.728 10.207a6.416 6.416 0 0 0-.7 6.41 5.729 5.729 0 0 0 5.208 3.136h5.92l.13-5.128h-4.125a1.522 1.522 0 0 1-1.435-.635"/>
	<path class="cls-1" d="M356.257 119.564v27.08h5.323v-28.535l-5.323 1.455z"/>
	<path class="cls-1" d="M390.278 102.965h-20.034a3.565 3.565 0 0 0-3.56 3.561v12.115a3.565 3.565 0 0 0 3.56 3.561h20.034a3.565 3.565 0 0 0 3.56-3.56v-12.116a3.565 3.565 0 0 0-3.56-3.56m-18.482 14.093v-8.95a.572.572 0 0 1 .571-.571h15.788a.571.571 0 0 1 .571.57v8.951a.572.572 0 0 1-.571.57h-15.788a.572.572 0 0 1-.57-.57"/>
	<path class="cls-1" d="M370.263 110.533h20.291v3.809h-20.291z"/>
	<path class="cls-1" d="M366.305 131.595h28.994v4.328h-28.994z"/>
	<path class="cls-1" d="M265.903 111.643h31.307v5.346h-31.307z"/>
	<path class="cls-1" d="M280.906 102.79h-5.703c0 4.415-1.361 27.994-9.426 43.731h6.038c6.645-11.38 9.09-36.625 9.09-43.731"/>
	<path class="cls-1" d="M137.578 101.185c17.023 0 19.9 12.556 19.9 22.937 0 10.38-3.202 22.936-19.9 22.936s-19.836-11.065-19.836-22.936c0-11.872 2.813-22.937 19.836-22.937m0 7.213c-7.555 0-8.598 10.315-8.598 15.724 0 5.41.924 15.371 8.598 15.371s8.531-9.961 8.531-15.371c0-5.409-.976-15.724-8.531-15.724"/>
	<path class="cls-1" d="M81.97 138.555s-9.315 1.228-14.146-.615c-4.44-1.693-5.915-9.2-5.915-13.423 0-4.22 1.505-13.028 7.339-13.878a62.164 62.164 0 0 1 12.722-.01l1.195-7.365a72.514 72.514 0 0 0-13.786-.87c-10.234.752-18.839 5.052-18.839 22.123 0 15.723 6.199 20.795 18.84 21.9a43.378 43.378 0 0 0 13.785-.87Z"/>
	<path class="cls-1" d="M240.629 107.517c-3.385-4.095-9.443-5.02-16.679-5.02H208.3v7.337h16.57c3.844 0 6.392 1.276 7.483 3.568.889 1.865 1.578 5.735 1.578 11.016 0 5.282-.609 9.713-1.565 11.522-.957 1.808-3.035 2.713-5.737 2.713-2.745 0-6.316-.02-7.523-.062v-22.092l-10.805-1.001v30.217q8.609.623 17.655.623 10.853 0 15.064-4.678c2.807-3.118 4.21-8.715 4.21-17.242 0-8.524-1.927-13.667-4.601-16.901"/>
	<path class="cls-1" d="m100.38 103.262.007 29.274c0 5.848 8.68 6.242 15.673 5.869l1.162 7.273c-9.248 1.563-28.022 2.804-28.022-12.42 0-16.825-.007-2.188-.007-30.997Z"/>
	<path class="cls-1" d="m45.413 102.6.005 29.082c0 5.356-3.42 15.106-18.617 15.106-15.196 0-18.612-9.702-18.613-15.539l-.004-16.41h4.13l-.01-4.192 4.165.017-.001-4.014 3.247-.034.005 25.195c0 5.605 3.269 7.317 7.081 7.317 3.812 0 7.122-2.062 7.122-7.173l-.029-29.355Z"/>
	<path class="cls-1" d="m200.628 102.6.006 29.082c0 5.356-3.42 15.106-18.617 15.106-15.196 0-18.613-9.702-18.613-15.539l-.004-28.65h11.531l.004 29.212c0 5.605 3.27 7.317 7.082 7.317s7.122-2.062 7.122-7.173l-.029-29.355Z"/>
	<path class="cls-1" d="M16.465 102.629h2.706v2.671h-2.706z"/>
	<path class="cls-1" d="M12.481 102.805h2.349v2.319h-2.349z"/>
	<path class="cls-1" d="M12.715 99.327h1.881v1.857h-1.881z"/>
	<path class="cls-1" d="M4.909 103.241h1.467v1.447H4.909z"/>
	<path class="cls-1" d="M8.184 110.812h2.706v2.671H8.184z"/>
	<path class="cls-1" d="M4.701 107.031h1.881v1.856H4.701z"/>
	<path class="cls-1" d="M12.302 106.624h2.706v2.67h-2.706z"/>
	<path class="cls-1" d="M8.363 106.8h2.35v2.319h-2.35z"/>
	<path class="cls-1" d="M8.597 103.036h1.881v1.857H8.597z"/>
	<path class="cls-1" d="M8.804 99.532h1.467v1.447H8.804z"/>
	<path class="cls-1" d="M5.164 99.783h.957v.944h-.957z"/>
	<path style="fill:none" d="M-93.464-84.308h586.928v415H-93.464z"/>
</svg>
