<svg xmlns="http://www.w3.org/2000/svg" viewBox="427.54 371.54 1063.92 335.92" style="enable-background:new 0 0 1920 1080">
	<switch>
		<g>
			<path d="M1471.88 444.78h-56.45v-51.37h56.45v51.37zm-56.44 25.4h56.45v212.89h-56.45V470.18zm-194.49 45.31v-45.31h168.36v46.29l-104.46 120.9h108.17v45.7h-179.49v-43.36l105.53-124.22h-98.11zm-191.6 0v-45.31h168.36v46.29l-104.46 120.9h108.17v45.7h-179.49v-43.36l105.53-124.22h-98.11zm-30.4-70.71H942.5v-51.37h56.45v51.37zm-56.45 25.4h56.45v212.89H942.5V470.18zm-35.49-77.64c2.86.2 6.77.49 11.72.88v45.31c-3.12-.39-8.37-.68-15.72-.88-7.36-.2-12.44 1.44-15.23 4.88-2.8 3.45-4.2 7.26-4.2 11.43v17.97h36.52v39.26h-36.52v171.68h-55.27V511.39h-31.25v-39.26h30.47v-13.67c0-22.78 3.84-38.48 11.52-47.07 8.07-12.76 27.54-19.14 58.4-19.14 3.5 0 6.69.09 9.56.29zm-134.81 0c2.86.2 6.77.49 11.72.88v45.31c-3.12-.39-8.37-.68-15.72-.88-7.36-.2-12.44 1.44-15.23 4.88-2.8 3.45-4.2 7.26-4.2 11.43v17.97h36.52v39.26h-36.52v171.68H693.5V511.39h-31.25v-39.26h30.47v-13.67c0-22.78 3.84-38.48 11.52-47.07 8.07-12.76 27.54-19.14 58.4-19.14 3.51 0 6.7.09 9.56.29zm-266.55 77.64V598.5c0 12.11 1.43 21.23 4.28 27.34 5.05 10.81 14.96 16.21 29.73 16.21 18.92 0 31.87-7.68 38.87-23.05 3.63-8.33 5.44-19.34 5.44-33.01V470.18h56.45v212.89h-54.1v-30.08c-.52.65-1.82 2.61-3.89 5.86-2.08 3.26-4.54 6.12-7.4 8.59-8.7 7.81-17.11 13.15-25.22 16.02-8.12 2.86-17.63 4.3-28.53 4.3-31.42 0-52.58-11.33-63.49-33.98-6.1-12.5-9.15-30.92-9.15-55.27V470.18h57.01z"/>
			<path fill="#fed626" stroke="#8fbcc6" stroke-miterlimit="10" stroke-width=".25" d="M458.59 398.75h170v35h-170z"/>
		</g>
	</switch>
</svg>
