<svg xmlns="http://www.w3.org/2000/svg" viewBox="-20.8 -20.8 1081.6 458.6">
	<g fill="#692469">
		<path d="M622.388 151.12c10.425 0 20.013-1.813 28.777-5.438 8.757-3.626 17.219-10.118 25.375-19.486l10.194 15.86c-11.025 8.462-22.468 14.692-34.325 18.692-11.859 4-24.735 6.004-38.63 6.004-13.446 0-25.567-1.964-36.364-5.89-10.8-3.926-19.976-9.439-27.528-16.54-7.555-7.098-13.368-15.634-17.446-25.602-4.078-9.97-6.117-21.072-6.117-33.306 0-12.988 2.187-24.73 6.57-35.232 4.38-10.496 10.609-19.485 18.693-26.961 8.078-7.478 17.898-13.216 29.453-17.22 11.555-4 24.505-6.004 38.856-6.004 21.448 0 42.597 4.078 63.44 12.234v33.986h-6.57c-3.024-11.176-9.666-19.332-19.937-24.47-10.275-5.133-22.81-7.702-37.612-7.702-8.61 0-16.503 1.245-23.677 3.738-7.175 2.492-13.407 6.308-18.69 11.442-5.29 5.136-9.405 11.632-12.35 19.485-2.945 7.856-4.419 17.145-4.419 27.868 0 12.388 1.55 23.222 4.646 32.512 3.094 9.29 7.398 17.072 12.914 23.337 5.514 6.27 12.083 10.953 19.71 14.048 7.629 3.099 15.975 4.645 25.037 4.645zm-312.893 12.008v-6.797c2.868-.301 5.474-.68 7.818-1.133 2.34-.452 4.34-1.132 6.004-2.039a11.41 11.41 0 0 0 4.077-3.739c1.056-1.585 1.736-3.661 2.04-6.23l12.688-115.1c0-3.32-.227-6.153-.68-8.496-.454-2.34-1.247-4.192-2.379-5.55-1.133-1.36-2.797-2.34-4.984-2.946-2.192-.601-4.95-.981-8.27-1.133V3.169h44.18l48.714 118.723L469.907 3.17h48.94v6.797c-3.476.152-6.27.68-8.383 1.587-2.117.905-3.779 2.304-4.984 4.19-1.21 1.891-2.039 4.344-2.492 7.364-.453 3.024-.68 6.648-.68 10.875 0 35.95.525 63.253 1.585 81.906 1.055 18.656 1.66 28.359 1.814 29.114.752 3.777 2.338 6.421 4.757 7.93 2.415 1.512 6.344 2.646 11.781 3.399v6.797h-65.478v-6.797c3.773-.148 6.796-.68 9.063-1.585 2.265-.907 4-2.302 5.21-4.192 1.208-1.888 2.039-4.38 2.492-7.478.453-3.094.68-6.91.68-11.442 0-10.118-.04-19.484-.112-28.095l-.227-24.81c-.078-7.928-.226-15.667-.453-23.222-.227-7.552-.42-15.181-.568-22.884L417.57 163.128h-10.65L354.356 42.82l-9.742 93.573c-.304 3.324-.418 6.118-.34 8.383.074 2.267.566 4.193 1.473 5.779.905 1.585 2.379 2.832 4.419 3.738 2.038.906 4.87 1.586 8.496 2.039v6.797zm-75.674-77.034c.754 0 1.546.04 2.378.113a25.14 25.14 0 0 0 2.38.113c7.703 0 14.5-1.132 20.391-3.398 5.89-2.265 10.836-5.399 14.84-9.403 4.001-4 7.024-8.684 9.064-14.048 2.039-5.358 3.059-11.137 3.059-17.332 0-9.817-2.872-17.406-8.611-22.77-5.741-5.36-14.047-8.043-24.923-8.043-6.797 0-11.594 1.172-14.386 3.51-2.798 2.345-4.192 6.233-4.192 11.67zM200.969 3.169h12.348c2.945 0 6.19-.035 9.741-.114 3.548-.074 7.137-.112 10.763-.112 8.305 0 17.52-.076 27.641-.226 18.275-.15 32.021 3.701 41.236 11.554 9.212 7.856 13.821 18.504 13.821 31.946-.304 9.669-3.022 18.205-8.157 25.604-2.265 3.172-5.136 6.308-8.61 9.4-3.475 3.1-7.815 5.858-13.027 8.271-5.211 2.418-11.328 4.344-18.352 5.778-7.024 1.437-15.219 2.152-24.583 2.152h-9.97v38.29c0 3.626.227 6.723.68 9.29.454 2.57 1.282 4.645 2.493 6.232 1.206 1.585 2.945 2.796 5.21 3.624 2.267.833 5.212 1.325 8.838 1.473v6.797h-64.347v-6.797c3.626-.148 6.607-.64 8.95-1.473 2.34-.828 4.113-2.074 5.325-3.738 1.206-1.66 2.038-3.814 2.492-6.458.453-2.64.678-5.926.678-9.856v-33.532l.227.68v-72.05c0-7.25-1.324-12.27-3.964-15.067-2.645-2.792-7.668-4.191-15.068-4.191h-9.516c-4.836.304-8.534 1.097-11.101 2.379-2.57 1.285-4.457 3.437-5.664 6.457-.907 2.265-1.473 5.664-1.7 10.196-.227 4.53-.379 10.196-.453 16.992-.078 6.797-.114 14.728-.114 23.79 0 9.063-.226 19.26-.678 30.587-.907 22.51-6.836 39.084-17.787 49.733-10.953 10.648-27.606 15.972-49.959 15.972-22.508 0-39.876-5.664-52.11-16.992-12.235-11.329-18.353-28.094-18.353-50.298V31.943c0-4.078-.113-7.437-.34-10.082-.226-2.642-.906-4.759-2.039-6.344-1.133-1.586-2.832-2.794-5.098-3.626-2.265-.828-5.363-1.472-9.29-1.925V3.169h65.48v6.797c-3.93.305-7.024.907-9.29 1.813-2.265.906-4.004 2.266-5.21 4.078-1.212 1.813-2.005 4.156-2.38 7.024-.379 2.87-.566 6.344-.566 10.421v68.425c0 17.372 3.285 30.552 9.856 39.536 6.57 8.99 17.106 13.483 31.606 13.483 7.852 0 15.067-1.247 21.638-3.739 6.57-2.492 12.196-6.232 16.88-11.216 3.171-3.321 5.624-7.024 7.363-11.103 1.735-4.077 3.019-8.609 3.852-13.593.828-4.985 1.359-10.457 1.585-16.427.227-5.965.34-12.496.34-19.598 0-18.427-.113-32.513-.34-42.255-.226-9.744-1.17-16.2-2.832-19.372-1.36-2.566-3.364-4.38-6.004-5.438-2.644-1.055-6.23-1.734-10.762-2.039V3.169h78.62"/>
		<path d="m111.02 208.502 1.359 36.93h-6.117c-1.813-10.875-6.043-18.387-12.689-22.543-6.648-4.152-16.617-6.23-29.907-6.23-5.137 0-10.727.227-16.767.68v62.758c2.114.152 4.193.227 6.232.227h5.777c5.286 0 9.778-.227 13.481-.68 3.7-.453 6.684-1.359 8.95-2.719 2.265-1.358 3.965-3.398 5.098-6.117s1.773-6.343 1.925-10.875h7.024v52.338h-7.024c-.304-4.984-.945-8.911-1.925-11.782-.985-2.866-2.531-5.02-4.645-6.457-2.117-1.433-4.95-2.378-8.496-2.832-3.551-.453-7.895-.679-13.028-.679h-6.231c-2.191 0-4.57.078-7.138.226v50.298c0 7.25 1.661 12.273 4.986 15.068 3.32 2.798 9.438 4.19 18.352 4.19 13.594 0 23.938-2.491 31.04-7.475 7.098-4.985 11.704-13.517 13.82-25.603h6.798l-2.945 41.236H0v-6.797c3.625-.148 6.605-.64 8.949-1.474 2.34-.828 4.114-2.073 5.324-3.737 1.208-1.66 2.04-3.815 2.493-6.458.453-2.64.68-5.926.68-9.857V235.464c0-3.625-.266-6.684-.793-9.176-.531-2.492-1.437-4.532-2.72-6.117-1.284-1.587-3.058-2.756-5.324-3.512-2.265-.755-5.137-1.208-8.609-1.359v-6.798h111.02"/>
		<path d="M196.662 368.461v-6.797c5.133-.148 8.532-1.168 10.196-3.06 1.66-1.886 2.492-5.247 2.492-10.081v-47.127c0-6.039-1.405-10.61-4.216-13.707-2.81-3.096-6.801-4.645-11.962-4.645-3.498 0-7.144.87-10.94 2.605-3.798 1.739-7.975 4.27-12.531 7.591v54.603c0 5.289.867 8.913 2.605 10.875 1.735 1.966 5.02 2.946 9.856 2.946v6.797H131.41v-6.797c4.832-.148 8.118-1.168 9.856-3.06 1.734-1.886 2.606-5.247 2.606-10.081v-55.736c0-2.868-.379-4.945-1.134-6.23-.757-1.284-2.417-1.926-4.984-1.926-1.812 0-3.852.226-6.118.678v-6.57l37.612-12.688.002 17.673c8.05-5.74 15.227-10.497 21.532-14.275 6.302-3.773 12.341-5.664 18.115-5.664 8.99 0 15.616 3.286 19.881 9.855 4.267 6.57 6.401 15.748 6.401 27.53v47.578c0 4.836.792 8.121 2.38 9.857 1.586 1.739 4.718 2.757 9.402 3.059v6.797h-50.299"/>
		<path d="m319.237 353.961-.227.227c-6.648 4.682-12.652 8.573-18.012 11.668-5.363 3.093-10.461 4.644-15.293 4.644-4.383 0-8.235-1.134-11.555-3.399-2.872-1.961-5.477-5.097-7.817-9.402-2.343-4.305-3.512-10.537-3.512-18.692v-60.948h-17.446v-6.571l43.275-35.572v30.361h33.307l-3.626 11.782H288.65v61.174c0 8.46 2.567 13.141 7.704 14.048 1.207.303 2.113.454 2.719.454 2.113 0 4.378-.68 6.797-2.04 2.413-1.36 5.285-3.247 8.61-5.666l1.131 1.814 3.626 6.118"/>
		<path d="M352.54 305.247h38.744c.15-1.66.227-3.171.227-4.531v-2.945c0-8.61-1.7-14.763-5.097-18.467-3.399-3.699-8.122-5.55-14.162-5.55-6.042 0-10.84 2.418-14.388 7.25-3.55 4.836-5.324 12.688-5.324 23.564zm64.8 54.831c-5.742 3.778-11.594 6.457-17.56 8.043-5.968 1.585-12.425 2.379-19.37 2.379-17.978 0-31.799-4.719-41.464-14.16-9.668-9.439-14.5-22.165-14.5-38.178 0-8.305 1.359-15.782 4.079-22.43 2.718-6.645 6.343-12.348 10.874-17.107 4.532-4.758 9.743-8.418 15.633-10.989 5.892-2.565 12.01-3.85 18.354-3.85 14.046 0 24.997 3.929 32.852 11.78 7.852 7.855 11.782 18.884 11.782 33.08v5.89h-65.253c1.055 16.165 4.72 27.908 10.99 35.232 6.265 7.328 14.386 10.989 24.355 10.989 4.984 0 9.251-.753 12.802-2.265 3.546-1.51 6.91-4.304 10.082-8.384l6.344 9.97"/>
		<path d="M429.574 368.461v-6.797c4.832-.148 8.117-1.168 9.856-3.06 1.734-1.886 2.605-5.247 2.605-10.081v-55.736c0-2.868-.379-4.945-1.133-6.23-.758-1.284-2.418-1.926-4.984-1.926-1.812 0-3.852.226-6.118.678v-6.797l37.61-12.461.453 26.736c4.984-9.516 10.005-16.728 15.068-21.639 5.06-4.905 10.61-7.363 16.653-7.363 1.961 0 4.68.68 8.156 2.039v33.307h-4.984c-1.06-3.172-2.945-5.439-5.664-6.798-2.719-1.36-5.743-2.038-9.063-2.038-3.929 0-7.516 1.21-10.762 3.624-3.25 2.418-6.383 6.043-9.404 10.876v43.048c0 5.289.866 8.913 2.606 10.875 1.735 1.966 5.022 2.946 9.858 2.946v6.797h-50.753"/>
		<path d="M572.993 361.21c9.062 0 16.199-2.98 21.41-8.949 5.212-5.965 7.818-14.84 7.818-26.623 0-6.795-.872-12.914-2.606-18.351-1.738-5.438-4.078-10.083-7.024-13.933-2.946-3.853-6.458-6.798-10.536-8.837-4.078-2.041-8.46-3.06-13.14-3.06-5.743 0-11.556 2.04-17.447 6.119v65.252c3.473 2.87 6.91 4.984 10.31 6.344 3.398 1.358 7.137 2.039 11.215 2.039zm-59.816 55.963v-6.797c4.832-.152 8.118-1.098 9.856-2.832 1.736-1.74 2.607-4.797 2.607-9.176V293.013c0-5.588-2.192-8.382-6.572-8.382-1.21 0-3.172.226-5.89.678v-6.57l37.837-12.688v11.101c6.04-3.625 11.744-6.757 17.106-9.403 5.36-2.64 10.536-3.964 15.52-3.964 6.494 0 12.463 1.246 17.9 3.739 5.437 2.492 10.081 5.93 13.933 10.308 3.852 4.383 6.834 9.67 8.95 15.86 2.114 6.196 3.172 12.915 3.172 20.165 0 8.31-1.323 15.939-3.966 22.884-2.644 6.95-6.382 12.913-11.214 17.899-4.836 4.985-10.614 8.876-17.332 11.668-6.724 2.793-14.161 4.192-22.317 4.192-3.478 0-6.99-.306-10.536-.907a95.887 95.887 0 0 1-10.763-2.492v31.267c0 4.379.867 7.437 2.605 9.176 1.736 1.734 5.022 2.68 9.858 2.832v6.797h-50.754"/>
		<path d="M635.297 368.461v-6.797c4.832-.148 8.117-1.168 9.856-3.06 1.735-1.886 2.607-5.247 2.607-10.081v-55.736c0-2.868-.379-4.945-1.135-6.23-.756-1.284-2.416-1.926-4.984-1.926-1.812 0-3.852.226-6.117.678v-6.797l37.61-12.461.454 26.736c4.984-9.516 10.005-16.728 15.068-21.639 5.058-4.905 10.609-7.363 16.652-7.363 1.96 0 4.68.68 8.156 2.039v33.307h-4.984c-1.06-3.172-2.946-5.439-5.664-6.798-2.72-1.36-5.743-2.038-9.063-2.038-3.93 0-7.516 1.21-10.761 3.624-3.251 2.418-6.384 6.043-9.404 10.876v43.048c0 5.289.866 8.913 2.605 10.875 1.736 1.966 5.021 2.946 9.857 2.946v6.797h-50.753"/>
		<path d="M744.957 214.167c4.378 0 8.042 1.472 10.988 4.417 2.945 2.945 4.418 6.61 4.418 10.99 0 4.382-1.55 8.042-4.644 10.987-3.098 2.946-6.684 4.418-10.762 4.418-1.964 0-3.89-.414-5.778-1.246a16.08 16.08 0 0 1-4.984-3.398 16.107 16.107 0 0 1-3.4-4.984c-.83-1.887-1.245-3.814-1.245-5.778 0-4.078 1.508-7.664 4.532-10.762 3.02-3.095 6.644-4.644 10.875-4.644zm13.368 51.884.452 81.792c0 5.135.868 8.723 2.606 10.762 1.735 2.039 5.02 3.059 9.856 3.059v6.797h-50.751v-6.797c4.832-.148 8.117-1.168 9.854-3.06 1.736-1.886 2.607-5.247 2.607-10.081v-55.736c0-2.868-.379-4.945-1.133-6.23-.758-1.284-2.418-1.926-4.984-1.926-1.814 0-3.852.226-6.118.678v-6.57l37.61-12.688"/>
		<path d="M779.847 338.326h7.024c1.208 8.462 4.04 14.502 8.498 18.127 4.453 3.625 10.308 5.437 17.558 5.437 5.891 0 10.684-1.133 14.388-3.398 3.699-2.266 5.55-5.514 5.55-9.744 0-2.72-.531-4.946-1.586-6.683-1.058-1.734-2.53-3.285-4.417-4.645-1.89-1.359-4.23-2.679-7.025-3.964-2.795-1.281-6.004-2.832-9.628-4.645-4.986-2.566-9.29-5.098-12.915-7.59s-6.648-5.098-9.063-7.817c-2.417-2.719-4.232-5.664-5.438-8.836-1.21-3.172-1.812-6.719-1.812-10.65 0-9.06 3.285-16.347 9.856-21.863 6.57-5.512 15.594-8.27 27.074-8.27 4.682 0 9.439.418 14.275 1.246 4.832.832 9.816 2.004 14.953 3.512l.907 26.509h-5.664c-1.813-8.305-4.645-14.123-8.496-17.447-3.852-3.32-8.95-4.984-15.295-4.984-5.289 0-9.516 1.019-12.688 3.059-3.172 2.039-4.757 5.176-4.757 9.403 0 2.718.488 4.91 1.472 6.57.981 1.664 2.453 3.172 4.419 4.532 1.961 1.36 4.378 2.719 7.249 4.077 2.87 1.36 6.193 3.173 9.97 5.438 4.38 2.57 8.231 4.95 11.555 7.137 3.32 2.19 6.118 4.571 8.383 7.137 2.265 2.57 4 5.403 5.21 8.497 1.207 3.098 1.814 6.762 1.814 10.989 0 9.968-3.552 17.636-10.65 22.997-7.1 5.363-17.671 8.043-31.72 8.043-4.835 0-9.78-.567-14.84-1.699-5.062-1.133-9.855-2.754-14.387-4.872l.226-25.603"/>
		<path d="M891.32 305.247h38.743c.15-1.66.227-3.171.227-4.531v-2.945c0-8.61-1.699-14.763-5.098-18.467-3.398-3.699-8.121-5.55-14.16-5.55-6.042 0-10.84 2.418-14.388 7.25-3.55 4.836-5.324 12.688-5.324 23.564zm64.799 54.831c-5.741 3.778-11.593 6.457-17.56 8.043-5.968 1.585-12.425 2.379-19.37 2.379-17.978 0-31.8-4.719-41.463-14.16-9.67-9.439-14.501-22.165-14.501-38.178 0-8.305 1.36-15.782 4.078-22.43 2.719-6.645 6.345-12.348 10.876-17.107 4.532-4.758 9.743-8.418 15.633-10.989 5.891-2.565 12.008-3.85 18.352-3.85 14.048 0 24.998 3.929 32.854 11.78 7.852 7.855 11.78 18.884 11.78 33.08v5.89h-65.25c1.054 16.165 4.718 27.908 10.987 35.232 6.267 7.328 14.388 10.989 24.356 10.989 4.985 0 9.25-.753 12.801-2.265 3.548-1.51 6.912-4.304 10.083-8.384l6.344 9.97"/>
		<path d="M969.032 338.326h7.023c1.21 8.462 4.041 14.502 8.499 18.127 4.452 3.625 10.308 5.437 17.557 5.437 5.89 0 10.685-1.133 14.388-3.398 3.7-2.266 5.552-5.514 5.552-9.744 0-2.72-.532-4.946-1.587-6.683-1.059-1.734-2.53-3.285-4.417-4.645-1.89-1.359-4.23-2.679-7.026-3.964-2.796-1.281-6.004-2.832-9.629-4.645-4.984-2.566-9.288-5.098-12.913-7.59s-6.648-5.098-9.063-7.817c-2.418-2.719-4.232-5.664-5.438-8.836-1.21-3.172-1.814-6.719-1.814-10.65 0-9.06 3.286-16.347 9.858-21.863 6.57-5.512 15.593-8.27 27.074-8.27 4.68 0 9.439.418 14.275 1.246 4.832.832 9.816 2.004 14.953 3.512l.905 26.509h-5.664c-1.812-8.305-4.644-14.123-8.496-17.447-3.85-3.32-8.949-4.984-15.294-4.984-5.288 0-9.515 1.019-12.687 3.059-3.172 2.039-4.757 5.176-4.757 9.403 0 2.718.488 4.91 1.472 6.57.98 1.664 2.453 3.172 4.417 4.532 1.962 1.36 4.38 2.719 7.25 4.077 2.869 1.36 6.194 3.173 9.971 5.438 4.38 2.57 8.23 4.95 11.555 7.137 3.32 2.19 6.116 4.571 8.383 7.137 2.265 2.57 4 5.403 5.21 8.497 1.207 3.098 1.812 6.762 1.812 10.989 0 9.968-3.55 17.636-10.648 22.997-7.1 5.363-17.672 8.043-31.72 8.043-4.835 0-9.78-.567-14.84-1.699-5.062-1.133-9.857-2.754-14.387-4.872l.226-25.603"/>
	</g>
</svg>
