<svg xmlns="http://www.w3.org/2000/svg" width="200" height="128">
	<linearGradient id="a" x1="65.14" y1="68.91" x2="122.31" y2="97.75" gradientUnits="userSpaceOnUse">
		<stop offset="0" stop-color="#dfd867"/>
		<stop offset=".65" stop-color="#b0aa68"/>
	</linearGradient>
	<linearGradient id="b" x1="94.74" y1="80.08" x2="112.72" y2="35.46" gradientUnits="userSpaceOnUse">
		<stop offset="0" stop-color="#da9c14"/>
		<stop offset="1" stop-color="#f5f7c3"/>
	</linearGradient>
	<linearGradient id="c" x1="99.54" y1="28.59" x2="101.23" y2="62.86" gradientUnits="userSpaceOnUse">
		<stop offset="0" stop-color="#fff" stop-opacity=".5"/>
		<stop offset="1" stop-color="#fff" stop-opacity="0"/>
	</linearGradient>
	<path d="M140.91 77.26c-.15-.25-1.11-.09-1.68 0a8.38 8.38 0 0 0-1.52.61c.08-.59.11-.92.17-1.25.71-3.94 1.77-7.86 2.05-11.83.7-9.78-1.75-19-6-27.71-2.74-5.59-7-10.36-9-16.34-.55-1.6-1.42-1.88-3-1.68-7.38 1-14.8 1.68-22.16 2.73-14.27 2.05-26.3 8-34.64 20.27a2.2 2.2 0 0 1-1.52.68c-1.59.13-2.73.56-2.86 2.45a28.64 28.64 0 0 1-.77 3.7c-1.54 7.39-2.29 14.86-1.19 22.37a51.41 51.41 0 0 0 11.77 25.56l3.72 4.49c-1.6 1-3 1.73-4.32 2.64a1.54 1.54 0 0 0-.36 1.45c1.3 2.64 3.71 3.32 6.21 1.82a22.15 22.15 0 0 0 2.87-1.88 3.18 3.18 0 0 1 3.5-.41c2.47.89 5 1.75 7.51 2.44 13.46 3.69 25.33.94 35.09-9.21 5.68-5.9 11-12.16 16.48-18.21 1.06-1.16.11-1.95-.35-2.69zm-74.2-34.39C71.87 35.38 79 30.58 87.37 27.24c8.52-3.41 17.46-4.55 26.52-5.15 2.46-.16 4.91-.42 7.36-.66a2.5 2.5 0 0 1 2.75 1.48c3.81 6.73 7.77 13.38 10.53 20.65.36.95.57 2 .84 3a99.08 99.08 0 0 1 2.14 9.68c.93 7.51.69 15-2.1 22.15a4.6 4.6 0 0 1-1.67 2 38.31 38.31 0 0 1-6.8 3.55l3.9-8.67c.21-.47.39-1 .61-1.42.47-1 .53-1.78-.57-2.49a1.72 1.72 0 0 0-2.65.36 3.36 3.36 0 0 1-.83.59l-8.57 8.41L115.5 84l-.36-.22c1-2.46 2-4.93 2.94-7.38.52-1.26 1-2.54 1.64-3.76s.54-2.05-.67-2.72a3 3 0 0 0-3.2.25 16.68 16.68 0 0 1-4 1.77l1.09-1.4 7.2-6.54 2-2.05a5.89 5.89 0 0 1 .48-.71c2.82-3.28 2.82-3.28-1.09-5.1l-7-1.34a16.75 16.75 0 0 1-2.65-.38c-.4-.12-.68-.67-1-1l1.74-3.76c.37-1.13 2.72-6.47 3.1-7.59s.92-2.29 1.37-3.44h.32l1.36-3.81c.46-1.25.92-2.51 1.39-3.76v-.36c.86-1.91 1.77-3.81 2.54-5.77.16-.42 0-1.36-.33-1.5a2.14 2.14 0 0 0-1.7.19 11.94 11.94 0 0 0-2.28 1.81c-1 1-3.49 3-3.75 2.87l-3.06 2.76-2.43 2.39 2.74.65 5.93-5a8.51 8.51 0 0 1 .32 1.38.86.86 0 0 1 0 .28 25 25 0 0 1-1.34 3.05l-2.09 4.46-1.65 3.45-3.27 6.84c-.56 1-1.11 2.08-1.66 3.11l-.12.65-1.54 2.81c.35.38.63 1 1.05 1.11 1.82.5 3.67.86 5.5 1.26l7.9 1.5c-1.82 1.6-3.28 2.86-4.74 4.14L112 66.88l-4.09 3.76-7.06 6.75-.73.42c-2.13 2.56-5.43 3.06-8 5-1.09-2.07.08-3.48.49-5l1.75-3.45q2.24-4.65 4.45-9.32l1.51-3.78-14.52-2.83 2.41-2.17 1.68-1.89c.79-.6 1.58-1.2 2.38-1.79.59-.67 1.17-1.34 1.76-2l1.73-1.33 1.71-1.76 2.81-2.61 1.28-.86 5.54-5.48-3-.6-5.86 5.15L94 46.84 90.61 50l-3.88 3.7-.83.45c-1.51 1.71-3.05 3.4-4.52 5.15-1.15 1.37-1 2 .72 2.63 1 .39 2 .71 3.07 1.07l7.56 1.38 2.61.23-3 7c-.14-.46-.46-1-.39-1.39.33-2.1-.64-3-2.63-3.09a4.63 4.63 0 0 1-1.1-.38l-4.43 1.44-6 2-.51-.35c.87-4.81 1.73-9.6 2.6-14.4-.41-2.23-2.1-3.31-3.78-2.41l-3.35 2.46-6 4.66c-.46-2.91-.87-5.37-1.25-7.82a20.37 20.37 0 0 0-.36-2.73c-.75-2.55.16-4.69 1.57-6.73zm7.49 63.28c-.58.12-1.29-.34-2-.55a4.91 4.91 0 0 1 .82-1.46c1.73-1.41 2.1-1.32 3.43.74a9.33 9.33 0 0 1-2.25 1.27zm61.21-22.08c-4.39 5.42-8.81 10.82-14.28 15.25a33.14 33.14 0 0 1-11.26 6c-4.34 1.74-8.84 1.73-13.34 1.06-2.7-.41-5.35-1.15-8-1.74-3.87-1.13-8-1.81-11.53-3.56-2.21-1.07-3.62-3.76-5.39-5.73a48.91 48.91 0 0 1-7.84-14.1l-1.38-4a38 38 0 0 1-1.83-13.7c.18-4.85.87-9.68 1.34-14.51a1.41 1.41 0 0 1 .53-.94c.68 4.46 1.33 8.92 2.07 13.37a14.32 14.32 0 0 0 1 2.65l11-8.12.44.28C75.7 62.67 74.51 69.1 73.22 76c1.51-.53 2.71-.92 3.89-1.37 3.47-1.33 6.92-2.68 10.38-4 .24.5.67 1 .67 1.48v17.45L96.05 85l14-8.3 5.47-3.36.45.34-5.79 18.43.36.21 9.32-9 9-8.48-4.75 12.87c.1.1.2.19.29.29l12.17-6.85.38.42a24.42 24.42 0 0 1-1.54 2.5z"/>
	<path d="M137 81.59a24.42 24.42 0 0 1-1.6 2.48c-4.39 5.42-8.81 10.82-14.28 15.25a33.14 33.14 0 0 1-11.26 6c-4.34 1.74-8.84 1.73-13.34 1.06-2.7-.41-5.35-1.15-8-1.74-3.87-1.13-8-1.81-11.53-3.56-2.21-1.07-3.62-3.76-5.39-5.73a48.91 48.91 0 0 1-7.84-14.1l-1.38-4a38 38 0 0 1-1.83-13.7c.18-4.85.87-9.68 1.34-14.51a1.41 1.41 0 0 1 .53-.94c.68 4.46 1.33 8.92 2.07 13.37a14.32 14.32 0 0 0 1 2.65l11-8.12.44.28C75.7 62.67 74.51 69.1 73.22 76c1.51-.53 2.71-.92 3.89-1.37 3.47-1.33 6.92-2.68 10.38-4 .24.5.67 1 .67 1.48v17.45L96.05 85l14-8.3 5.47-3.36.45.34-5.79 18.43.36.21 9.32-9 9-8.48-4.75 12.87c.1.1.2.19.29.29l12.17-6.85z" fill="url(#a)"/>
	<path d="M76.5 104.88a9.33 9.33 0 0 1-2.3 1.27c-.58.12-1.29-.34-2-.55a4.91 4.91 0 0 1 .82-1.46c1.78-1.41 2.15-1.32 3.48.74z" fill="#9aac65"/>
	<path d="M120.92 59c-1.82 1.6-3.28 2.86-4.74 4.14L112 66.88l-4.09 3.76-7.06 6.75-.73.42c-2.13 2.56-5.43 3.06-8 5-1.09-2.07.08-3.48.49-5l1.75-3.45q2.24-4.65 4.45-9.32l1.51-3.78-14.52-2.83 2.41-2.17 1.68-1.89c.79-.6 1.58-1.2 2.38-1.79.59-.67 1.17-1.34 1.76-2l1.73-1.33 1.71-1.76 2.81-2.61 1.28-.86 5.54-5.48 4.82-4.44 5.93-5a8.51 8.51 0 0 1 .32 1.38.86.86 0 0 1 0 .28 25 25 0 0 1-1.34 3.05l-2.09 4.46-1.65 3.45-3.27 6.84c-.56 1-1.11 2.08-1.66 3.11l-.12.65-1.54 2.81c.35.38.63 1 1.05 1.11 1.82.5 3.67.86 5.5 1.26z" fill="url(#b)"/>
	<path d="M135.41 78.35a4.6 4.6 0 0 1-1.67 2 38.31 38.31 0 0 1-6.8 3.55l3.9-8.67c.21-.47.39-1 .61-1.42.47-1 .53-1.78-.57-2.49a1.72 1.72 0 0 0-2.65.36 3.36 3.36 0 0 1-.83.59l-8.57 8.41L115.5 84l-.36-.22c1-2.46 2-4.93 2.94-7.38.52-1.26 1-2.54 1.64-3.76s.54-2.05-.67-2.72a3 3 0 0 0-3.2.25 16.68 16.68 0 0 1-4 1.77l1.09-1.4 7.2-6.54 2-2.05a5.89 5.89 0 0 1 .48-.71c2.82-3.28 2.82-3.28-1.09-5.1l-7-1.34a16.75 16.75 0 0 1-2.65-.38c-.4-.12-.68-.67-1-1l1.74-3.76c.37-1.13 2.72-6.47 3.1-7.59s.92-2.29 1.37-3.44h.32l1.36-3.81c.46-1.25.92-2.51 1.39-3.76v-.36c.86-1.91 1.77-3.81 2.54-5.77.16-.42 0-1.36-.33-1.5a2.14 2.14 0 0 0-1.7.19 11.94 11.94 0 0 0-2.28 1.81c-1 1-3.49 3-3.75 2.87l-3.06 2.76-2.43 2.39-5.13 4.49-5.86 5.15L94 46.84 90.61 50l-3.88 3.7-.83.45c-1.51 1.71-3.05 3.4-4.52 5.15-1.15 1.37-1 2 .72 2.63 1 .39 2 .71 3.07 1.07l7.56 1.38 2.61.23-3 7c-.14-.46-.46-1-.39-1.39.33-2.1-.64-3-2.63-3.09a4.63 4.63 0 0 1-1.1-.38l-4.43 1.44-6 2-.51-.35c.87-4.81 1.73-9.6 2.6-14.4-.41-2.23-2.1-3.31-3.78-2.41l-3.35 2.46-6 4.66c-.46-2.91-.87-5.37-1.25-7.82a20.37 20.37 0 0 0-.36-2.73c-.78-2.57.13-4.71 1.54-6.75C71.87 35.38 79 30.58 87.37 27.24c8.52-3.41 17.46-4.55 26.52-5.15 2.46-.16 4.91-.42 7.36-.66a2.5 2.5 0 0 1 2.75 1.48c3.81 6.73 7.77 13.38 10.53 20.65.36.95.57 2 .84 3a99.08 99.08 0 0 1 2.14 9.68c.93 7.47.69 14.93-2.1 22.11z" fill="#b97140"/>
	<path d="m111.92 34.1-4.82 4.44-3-.6 5.13-4.49z"/>
	<circle cx="101.05" cy="59.11" r="33.65" fill="url(#c)"/>
</svg>
