<svg xmlns="http://www.w3.org/2000/svg" width="200" height="128">
    <path d="M138.336 19.883c-1.3 4.725-2.459 9.5-3.668 14.247-4.16-.717-8.168-.758-11.731 1.79-4.136 3.064-5.531 7.708-6.1 12.61-.419 4.652-.387 9.836 1.218 14.279 1.338 3.652 3.918 7 7.643 8.425a14.846 14.846 0 0 0 10.054.113c4.12-1.58 6.854-5.579 8.071-9.683A35.619 35.619 0 0 0 144 44.845q-3.4 1.428-6.813 2.8c2.258-8.82 4.6-17.609 6.918-26.413 7.434 5.184 14.868 10.481 22.543 15.287a83.616 83.616 0 0 0-6.571 2.209 51.038 51.038 0 0 1 .17 27.365c-1.831 6.369-5.459 12.505-10.982 16.326-6.442 4.62-15.5 5.2-22.865 2.693a17.871 17.871 0 0 1-9.659-8.224c-.025 10.708.032 21.407-.017 32.114q-8.465-.06-16.931 0c-.041-20.149 0-40.305-.024-60.462.088-6.265 1.015-12.884 4.773-18.093 3.257-4.627 9.062-7.28 14.254-9.1 6.277-1.847 13.082-3.383 19.54-1.464zm-104.871-.112c5.62-.057 11.24.088 16.859-.057.057 12.562-.024 25.148.033 37.7.08 6.313 5.353 12.07 11.811 11.941 6.354 0 11.49-5.7 11.611-11.909.08-12.569-.033-25.171.056-37.741a435.05 435.05 0 0 0 16.867 0c.032 13.642.073 27.3-.016 40.942a26.487 26.487 0 0 1-22.841 24.8c-6.08.613-13.143.613-18.778-2.04a26.659 26.659 0 0 1-14.949-17.97c-1.088-4.378-.669-9.094-.741-13.666.064-10.659-.129-21.358.088-32z" fill="#0074ce"/>
</svg>
