<svg xmlns="http://www.w3.org/2000/svg" width="200" height="128">
    <path d="M60.994 56.26l3.115 11.213c.054.2.116.391.188.63.2-.1.211-.283.266-.422q1.773-4.516 3.54-9.035c.062-.156.141-.3.212-.457.206.026.415.039.618.078 1.429.279 2.852.586 4.285.839 2.046.361 4.094.716 6.15 1.009a17.566 17.566 0 0 0 3.267.357l2.716 6.673c.17.418.337.837.544 1.349.6-2.255 1.176-4.413 1.754-6.571.069-.255.155-.505.234-.757.94.081 1.883.133 2.819.249 1.725.213 3.46.294 5.189.438-.513 1.942-1.016 3.888-1.543 5.827Q91.576 77.892 88.8 88.1c-.119.443-.278.611-.752.577a17.3 17.3 0 0 0-2.112 0 .609.609 0 0 1-.7-.47q-2.832-7.044-5.7-14.074c-1.5-3.688-2.994-7.377-4.5-11.1a2.4 2.4 0 0 0-.412.857q-4.934 12.181-9.849 24.363c-.147.363-.311.537-.735.513a21.767 21.767 0 0 0-2.227 0c-.356.014-.485-.11-.574-.445Q58.4 77.74 55.537 67.17l-3.84-14.226a2.069 2.069 0 0 1-.035-.223.768.768 0 0 1 .435.109 52.94 52.94 0 0 0 8.897 3.43zm79.113 5.107c-1.012.1-2.025.2-3.039.241-.436.019-.86.1-1.292.129a42.6 42.6 0 0 0 1.129 13.686 19.643 19.643 0 0 0 4.165 8.2 14.971 14.971 0 0 0 11.23 5.015 88.955 88.955 0 0 0 12.419-.7 19.034 19.034 0 0 0 3.859-.732.534.534 0 0 0 .449-.595q-.027-11.866-.017-23.732c0-.332-.061-.46-.433-.459q-6.627.015-13.253-.008c-.335 0-.4.106-.4.419a271.91 271.91 0 0 1 0 5.419c-.006.423.142.488.519.484 1.714-.02 3.428.01 5.141-.021.483-.009.593.134.59.6-.018 3.784-.01 7.568-.01 11.352 0 .927 0 .927-.864 1.219-.054.019-.109.034-.163.051a19.541 19.541 0 0 1-6.961.483A7.7 7.7 0 0 1 146.3 77.8a26.979 26.979 0 0 1-2.311-9.459 70.36 70.36 0 0 1-.289-7.288 29.437 29.437 0 0 0-3.593.314zm-15.3.939c-2.163.15-4.332.055-6.5.134-1.538.056-3.079.158-4.612.074-2.034-.112-4.065-.085-6.1-.078.159.132.315.269.479.4a28.477 28.477 0 0 0 7.734 3.811 30.423 30.423 0 0 1 7.827 3.893c3.1 2.283 3.327 4.936 2.752 7.692-.421 2.015-1.981 3.112-3.847 3.687a15.013 15.013 0 0 1-8.878-.255 6.336 6.336 0 0 1-4.091-3.386c-.5-1.041-1.087-2.044-1.607-3.077-.156-.309-.287-.35-.6-.195q-2.805 1.395-5.63 2.745c-.3.143-.379.271-.249.594a29.925 29.925 0 0 0 2.061 4.243 9.993 9.993 0 0 0 5.078 4.468c.728.274 1.457.553 2.2.769a24.665 24.665 0 0 0 15.756-.425 11.223 11.223 0 0 0 7.406-7.625 26.205 26.205 0 0 0 .554-3.882 11.093 11.093 0 0 0-2.125-8.054c-1.817-2.62-4.422-4.233-7.158-5.69-.103.197-.29.145-.457.157zm53.291-9.676a41.747 41.747 0 0 1-6.167 2.606c-.008.1-.024.189-.024.283q0 16.062-.011 32.123c0 .419.141.5.52.492 2.305-.015 4.61-.028 6.914.007.549.009.676-.123.675-.673q-.027-17.66-.015-35.318c0-.19-.011-.38-.017-.569-.629.351-1.245.719-1.88 1.049z" fill="#151316"/>
    <path d="M27.989 73.946a23.745 23.745 0 0 0 .163 3.4c.674 3.207 2.866 4.722 5.879 5.029a7.268 7.268 0 0 0 2.769-.165 5.488 5.488 0 0 0 3.873-4.367 8.153 8.153 0 0 0 .25-2.083c-.006-.644.022-1.288.035-1.932a21.1 21.1 0 0 1 4.136.966 31.2 31.2 0 0 1 3.585 1.436q.007 5.616.021 11.234c0 .315-.1.433-.422.432q-3.456-.016-6.911 0c-.352 0-.46-.117-.454-.461.019-1 .007-2-.039-3.016a7.353 7.353 0 0 1-1.574 2.195 8.681 8.681 0 0 1-4.719 1.967 19.467 19.467 0 0 1-6.193.029 9.378 9.378 0 0 1-7.342-6.3 16.466 16.466 0 0 1-1.029-5 1.694 1.694 0 0 1 .048-.735c.176-.065.358-.117.527-.2a27.317 27.317 0 0 1 3.938-1.6 15.049 15.049 0 0 1 3.459-.829z" fill="#b6ce60"/>
    <path d="M27.989 73.946a15.049 15.049 0 0 0-3.459.832 27.317 27.317 0 0 0-3.938 1.6c-.169.081-.351.133-.527.2-.018-.207-.049-.414-.049-.622q0-9.7-.013-19.4c0-.493.108-.645.625-.639 2.284.031 4.57.017 6.855.009.326 0 .518.02.518.444q-.015 8.729 0 17.457a.9.9 0 0 1-.012.119zm20.712 1.6q0-8.207.007-16.414v-2.736c0-.28-.025-.467-.388-.466q-3.481.017-6.963 0c-.3 0-.409.131-.413.4 0 .171-.01.341-.01.512q0 8.179-.008 16.358c0 .208.02.416.031.624a21.1 21.1 0 0 1 4.136.966 31.2 31.2 0 0 1 3.585 1.436c.011-.226.022-.451.022-.679z" fill="#adc74d"/>
    <path d="M128.637 50.457a2.645 2.645 0 1 1 2.663-2.62 2.66 2.66 0 0 1-2.663 2.62zm.015-3.434a.76.76 0 0 0-.786.789.732.732 0 0 0 .729.784.805.805 0 0 0 .838-.755.822.822 0 0 0-.781-.818z" fill="#b6ce60"/>
    <path d="M125.257 62.152c-.1.194-.29.142-.455.154-2.163.15-4.332.055-6.5.134-1.538.056-3.079.158-4.612.074-2.034-.112-4.065-.085-6.1-.078a11.124 11.124 0 0 1-5.325-9.06 18.2 18.2 0 0 1 .4-5.831c1.024-3.59 3.531-5.757 6.909-7.036a25.332 25.332 0 0 1 10.578-1.309 18.028 18.028 0 0 1 7.058 1.654 8.474 8.474 0 0 1 4.341 4.323c.64 1.52 1.34 3.016 2.03 4.514.14.3.112.449-.214.6q-2.9 1.317-5.786 2.683c-.333.158-.454.071-.6-.221-.566-1.159-1.193-2.29-1.722-3.465a6.222 6.222 0 0 0-4.592-3.549 10.746 10.746 0 0 0-7.081.607 6.237 6.237 0 0 0-3.626 6.779 3.541 3.541 0 0 0 1.378 2.167 15.753 15.753 0 0 0 4.931 2.909c1.732.675 3.551 1.113 5.225 1.945a39.157 39.157 0 0 1 3.763 2.006zm3.38-11.695a2.645 2.645 0 1 0-2.679-2.671 2.644 2.644 0 0 0 2.679 2.671zm15.239 7.871a22.665 22.665 0 0 1 1.924-7.808c3.131-6.6 9.966-6 13.413-2.683a12.808 12.808 0 0 1 3.074 4.807c.123.328.242.447.6.275q2.9-1.387 5.825-2.736c.277-.128.293-.267.2-.528-1.708-4.874-4.754-8.447-9.855-9.939a20.642 20.642 0 0 0-10.39.1 13.854 13.854 0 0 0-10.3 8.406c-1.862 4.312-2.377 8.885-2.59 13.514.432-.031.856-.11 1.292-.129a56.35 56.35 0 0 0 3.039-.241 29.437 29.437 0 0 1 3.595-.31c.055-.909.091-1.821.173-2.728zm-47.918 3.436q2.762-10.16 5.529-20.317c.1-.352.017-.44-.318-.522a330.846 330.846 0 0 1-6.794-1.717c-.5-.133-.669-.067-.805.45-1.295 4.936-2.624 9.863-3.935 14.8-.594 2.235-1.169 4.475-1.752 6.713.94.081 1.883.133 2.819.249 1.725.213 3.46.294 5.189.438.023-.035.058-.058.067-.094zm-13.334-1.4q-2.955-7.389-5.905-14.78c-.1-.253-.247-.284-.474-.282-.818.008-1.637.026-2.454-.007a.574.574 0 0 0-.653.447c-.986 2.564-1.994 5.12-2.988 7.681-.617 1.588-1.224 3.18-1.835 4.77.206.026.415.039.618.078 1.429.279 2.852.586 4.285.839 2.046.361 4.094.716 6.15 1.009a17.566 17.566 0 0 0 3.267.357.406.406 0 0 0-.011-.116zM56.368 39.437c-.1-.352-.255-.347-.525-.278-2.3.593-4.589 1.2-6.894 1.758-.435.106-.442.268-.341.62.269.928.507 1.864.762 2.8q1.145 4.194 2.292 8.387a.768.768 0 0 1 .435.109 52.94 52.94 0 0 0 8.9 3.43q-2.32-8.412-4.629-16.826zM180 40.3c0-.421-.2-.4-.485-.394-2.321 0-4.642.016-6.963-.009-.5-.005-.669.095-.667.641.025 4.711.014 9.423.016 14.134 0 .189.018.378.028.567a41.859 41.859 0 0 0 6.167-2.607c.635-.33 1.251-.7 1.875-1.049.003-3.763.001-7.524.029-11.283zm-52.131 7.514a.732.732 0 0 0 .729.784.805.805 0 0 0 .838-.755.822.822 0 0 0-.781-.818.76.76 0 0 0-.789.787z" fill="#2d2b2e"/>
</svg>
