<svg xmlns="http://www.w3.org/2000/svg" viewBox="-0.87 -0.87 45.37 13.87">
	<path fill="#f74843" d="M0 12.164V0h43.665v12.164zm7.59-9.669-1.456 5.51-1.456-5.51H3.327L5.51 9.772h1.248L8.94 2.495zm7.589 0H13.41l-2.183 7.277h1.456l.447-1.767h2.224l.447 1.767h1.456zm10.188 6.03h-3.119v-6.03h-1.351v7.277h4.47zm6.134-6.03-1.456 5.51-1.455-5.51h-1.352l2.184 7.277h1.247l2.183-7.277zm7.485 4.055h-1.975V5.406h1.767V4.47h-1.767V3.43h1.975v-.935h-3.015v4.99h3.015zM14.243 3.639l.821 3.222h-1.642z" class="st0"/>
</svg>
