<svg width="256" height="256" xmlns="http://www.w3.org/2000/svg" preserveAspectRatio="xMidYMid">
	<path d="M142.843 110.741h14.837V95.9h-14.837v14.842Zm-.128-22.261h14.837V73.637h-14.837V88.48ZM120.58 66.219h14.838V51.376h-14.843v14.843h.005Zm0 22.261h14.838V73.637h-14.843V88.48h.005Zm0 22.261h14.838V95.893h-14.843v14.843l.005.005Zm0 22.262h14.838V118.16h-14.843v14.837l.005.006ZM98.32 66.213h14.843V51.376H98.32v14.843-.006Zm0 22.262h14.843V73.632H98.32v14.843Zm0 22.261h14.843V95.893H98.32v14.843Zm44.395-44.523h14.837V51.376h-14.837v14.843-.006ZM0 0l127.536 256L256 0H0Z" fill-rule="evenodd"/>
</svg>
