<svg width="100" height="68" fill="none" xmlns="http://www.w3.org/2000/svg">
	<path d="M7.228 67.38 0 55.074h4.58l2.814 5.738 2.482-5.738h4.304L7.338 67.38h-.11Z" fill="#0C1F6C"/>
	<path d="M26.278 66.055c-.533.423-1.204.763-2.013 1.021a7.546 7.546 0 0 1-2.346.386c-2.06 0-3.715-.56-4.965-1.683-1.233-1.122-1.849-2.685-1.849-4.69 0-1.342.304-2.483.91-3.42a6 6 0 0 1 2.373-2.18 6.884 6.884 0 0 1 3.118-.745c1.085 0 2.023.147 2.814.441.809.295 1.499.681 2.069 1.16l-1.876 2.482c-.258-.202-.616-.404-1.076-.607-.442-.22-.966-.33-1.573-.33-.79 0-1.471.303-2.041.91-.57.588-.855 1.351-.855 2.29 0 .9.294 1.664.882 2.29.607.624 1.407.937 2.4.937.847 0 1.546-.23 2.097-.69l1.931 2.428Z" fill="#0C1F6C"/>
	<path d="M29.245 49.778h3.862v17.353h-3.862V49.778Z" fill="#0C1F6C"/>
	<path d="M40.974 67.71c-1.085 0-1.995-.33-2.73-.993-.736-.68-1.123-1.554-1.16-2.62v-9.022h3.863v7.587c.037.533.175.965.414 1.297.239.312.643.468 1.214.468.864 0 1.544-.413 2.041-1.241.497-.846.745-1.913.745-3.2v-4.91h3.862V67.13H45.72l-.276-1.931a4.718 4.718 0 0 1-1.738 1.82c-.754.46-1.665.69-2.732.69Z" fill="#0C1F6C"/>
	<path d="M57.113 67.38a7.363 7.363 0 0 1-2.786-.525 6.118 6.118 0 0 1-2.152-1.462l1.6-2.124c.588.533 1.13.92 1.628 1.158.514.221.974.332 1.379.332.478 0 .874-.074 1.186-.221.313-.147.47-.386.47-.717a.87.87 0 0 0-.387-.745c-.24-.184-.552-.331-.938-.442-.386-.129-.8-.257-1.242-.386-1.103-.35-1.903-.855-2.4-1.517-.478-.68-.717-1.416-.717-2.207 0-.607.156-1.214.47-1.821.33-.626.845-1.14 1.544-1.545.717-.423 1.637-.635 2.759-.635 1.011 0 1.867.102 2.566.304a6.293 6.293 0 0 1 1.986.993l-1.462 2.262a5.012 5.012 0 0 0-1.187-.69c-.423-.202-.818-.312-1.186-.33-.496-.019-.883.073-1.159.275-.276.184-.413.405-.413.662-.019.35.11.626.386.828.294.203.662.359 1.103.47.442.11.874.238 1.297.385.864.295 1.554.718 2.069 1.27.515.533.773 1.25.773 2.151 0 .736-.194 1.435-.58 2.097-.368.644-.938 1.168-1.71 1.572-.754.405-1.72.607-2.897.607Z" fill="#0C1F6C"/>
	<path d="m95.117 55.075.303 2.759a5.429 5.429 0 0 1 1.435-1.793c.607-.515 1.205-.901 1.793-1.159.589-.276 1.04-.414 1.352-.414l-.193 3.863c-.901-.11-1.674.036-2.317.441a4.15 4.15 0 0 0-1.49 1.6 4.324 4.324 0 0 0-.524 2.042v4.717H91.64V55.075h3.476Z" fill="#0C1F6C"/>
	<path fill-rule="evenodd" clip-rule="evenodd" d="M76.287 61.274c.06-2.22 1.363-6.15 5.817-6.418 6.108-.366 6.408 5.452 6.468 6.711l-8.538.84c.04.56.535 1.374 2.07 1.805 1.536.432 2.919-.14 3.419-.48l1.739 2.82c-1.14.599-3.958 1.619-6.117.899-2.7-.9-4.688-3.005-4.858-6.177Zm3.708-.953 5.393-.355c.04-.72-.775-2.404-2.993-2.224-1.556.126-2.4 1.38-2.4 2.579Z" fill="#0C1F6C"/>
	<path d="M71.129 49.802h-3.778V54.9h-1.86v2.938h1.86c-.02.72.012 2.123.06 6.058.048 3.934 4.398 4.058 6.597 3.118v-2.879c-2.043 1.328-2.879-2.069-2.879-4.505v-1.792h2.879V54.9h-2.879v-5.098Z" fill="#0C1F6C"/>
	<path d="M50.053 8.791 44.982.007 26.868 0l23.165 40.182L73.048 0 55.074.007l-5.021 8.784Z" fill="#0C1F6C"/>
	<path d="M61.905 19.455 73.048 0H55.074L53.46 2.83l8.445 16.625Z" fill="#FF7521"/>
	<path d="M50.033 8.753 44.983 0H26.868l23.165 40.182 8.621-15.051-8.621-16.378Z" fill="#FF7521"/>
</svg>
