<svg xmlns="http://www.w3.org/2000/svg" width="200" height="128">
    <path d="M100.18 56c-6.18 0-10.7 4-10.7 10.12s5 10.15 11.26 10.15a11.62 11.62 0 009.12-4l-4.31-2.49a6.4 6.4 0 01-4.81 2 6 6 0 01-5.84-3.66h15.79a10.45 10.45 0 00.19-2c0-6.12-4.47-10.12-10.7-10.12zm-5.32 8.17a5.7 5.7 0 0110.64 0zm-1.28-14.38L78 76.83l-15.61-27h5.85L78 66.69l9.75-16.9zM40.82 47l20.81 36H20zm92.71 19.15A5.7 5.7 0 00144.12 69l4.33 2.49c-1.79 3-5.15 4.79-9.28 4.79-6.23 0-10.71-4.06-10.71-10.15S133 56 139.17 56c4.13 0 7.48 1.8 9.28 4.79l-4.33 2.49a5.7 5.7 0 00-10.59 2.86zM180 49.79V75.7h-5.07V49.79zM160.85 56c-6.22 0-10.71 4.06-10.71 10.14s5.05 10.15 11.27 10.15a11.62 11.62 0 009.12-4l-4.31-2.49a6.43 6.43 0 01-4.81 2 6 6 0 01-5.84-3.66h15.78a9.68 9.68 0 00.2-2c0-6.14-4.48-10.14-10.7-10.14zm-5.33 8.17a5.7 5.7 0 0110.65 0zm-28.75-7.6V62a6.17 6.17 0 00-1.8-.28 5.38 5.38 0 00-5.63 5.63v8.35h-5.08V56.55h5.08v5.18c0-2.86 3.32-5.18 7.43-5.18z"/>
</svg>
