<svg xmlns="http://www.w3.org/2000/svg" viewBox="9.96 7.71 391.82 182.57">
	<defs>
		<clipPath id="a" clipPathUnits="userSpaceOnUse">
			<path d="M0 150.078h313.423V0H0Z"/>
		</clipPath>
	</defs>
	<g clip-path="url(#a)" transform="matrix(1.33333 0 0 -1.33333 0 200.104)">
		<path fill="#1d1d1b" d="M64.138 45.164h5.709l4.455-9.973c.913-2.094 1.903-5.52 2.017-5.862.038.19.99 3.654 1.979 5.862l4.34 9.973h5.177L76.471 19.051h-.533Z"/>
		<path fill="#1d1d1b" d="M91.314 45.164h17.13v-4.682h-11.8v-5.938h10.391v-4.568H96.644v-6.015h12.333v-4.682H91.314z"/>
		<path fill="#1d1d1b" d="M123.364 32.754c2.627 0 4.302 1.028 4.302 3.882 0 2.893-1.752 3.845-4.302 3.845h-4.111v-7.727Zm-9.44 12.409h9.592c5.291 0 9.631-2.474 9.631-8.527 0-3.921-2.055-6.395-5.063-7.575l5.9-9.783h-6.091l-5.252 8.984h-3.388v-8.984h-5.329Z"/>
		<path fill="#1d1d1b" d="M137.865 45.43h.419l12.752-14.008 12.563 14.008h.456V19.279h-5.139v9.707c0 1.751.19 4.529.19 4.529s-1.56-2.284-2.779-3.654l-5.138-5.748h-.495l-5.139 5.748c-1.218 1.37-2.779 3.654-2.779 3.654s.19-2.778.19-4.529v-9.707h-5.101Z"/>
		<path fill="#1d1d1b" d="M169.572 45.164h5.328V19.279h-5.328z"/>
		<path fill="#1d1d1b" d="M179.506 32.221c0 7.651 5.9 13.247 13.322 13.247 4.683 0 8.032-1.675 10.355-5.291l-4.073-2.893c-1.218 1.979-3.312 3.388-6.282 3.388-4.681 0-7.841-3.617-7.841-8.451 0-4.834 3.16-8.527 7.841-8.527 3.351 0 5.216 1.599 6.662 3.807l4.15-2.855c-2.246-3.502-5.824-5.71-10.812-5.71-7.422 0-13.322 5.634-13.322 13.285"/>
		<path fill="#1d1d1b" d="M207.481 28.643v16.521h5.329V28.947c0-3.768 1.637-5.214 5.177-5.214 3.502 0 5.101 1.446 5.101 5.214v16.217h5.33V28.643c0-6.547-4.531-9.707-10.431-9.707-5.977 0-10.506 3.16-10.506 9.707"/>
		<path fill="#1d1d1b" d="M233.706 45.164h5.33V23.961h11.724v-4.682h-17.054z"/>
		<path fill="#1d1d1b" d="M253.539 28.49v16.521h5.329V28.794c0-3.768 1.637-5.214 5.178-5.214 3.501 0 5.1 1.446 5.1 5.214v16.217h5.33V28.49c0-6.547-4.531-9.707-10.43-9.707-5.978 0-10.507 3.16-10.507 9.707"/>
		<path fill="#1d1d1b" d="m277.328 24.227 4.34 2.512c1.141-1.865 2.626-3.236 5.253-3.236 2.208 0 3.616 1.104 3.616 2.627 0 1.827-1.446 2.474-3.883 3.54l-1.332.571c-3.845 1.637-6.395 3.693-6.395 8.032 0 3.997 3.046 7.042 7.803 7.042 3.388 0 5.825-1.18 7.577-4.263l-4.15-2.665c-.914 1.637-1.903 2.284-3.427 2.284-1.56 0-2.549-.989-2.549-2.284 0-1.598.989-2.245 3.273-3.235l1.332-.571c4.53-1.941 7.081-3.921 7.081-8.375 0-4.796-3.768-7.423-8.832-7.423-4.948 0-8.146 2.361-9.707 5.444"/>
		<path fill="#d51224" d="M36.514 111.931c-.707-2.558-1.175-5.137-.589-7.159.558-1.996 1.967-3.349 3.816-4.574 1.829-1.227 4.022-2.23 6.265-3.255l3.444-1.526a116.656 116.656 0 0 0 3.521-1.603 64.097 64.097 0 0 0 3.547-1.775 46.516 46.516 0 0 0 3.515-2.048c2.316-1.474 4.574-3.245 6.514-5.468 1.912-2.221 3.463-5.001 3.966-7.974.751-3.39-.287-6.593-.984-8.406-.697-1.814-3.073-4.221-3.073-4.221s1.251 2.556 1.555 4.5c.304 1.943-.6 4.908-1.592 6.88-.982 1.975-2.388 3.599-4.11 5.009-3.429 2.841-7.868 4.92-12.393 7.17-1.139.56-2.294 1.122-3.445 1.731a64.684 64.684 0 0 0-3.479 1.897c-2.317 1.346-4.648 2.886-6.754 4.994-1.03 1.067-2.018 2.29-2.702 3.761a9.212 9.212 0 0 0-.928 4.697c.105 1.577.649 2.989 1.347 4.2.701 1.218 1.586 2.256 2.559 3.17"/>
		<path fill="#d51224" d="M43.616 138.538c-.518-1.271-.935-2.537-1.161-3.765-.212-1.235-.203-2.416.026-3.489.475-2.143 1.816-3.913 3.483-5.59 1.653-1.683 3.644-3.218 5.66-4.795l3.097-2.37a116.788 116.788 0 0 0 3.139-2.461 69.925 69.925 0 0 0 3.113-2.626 50.117 50.117 0 0 0 3.013-2.873c1.957-2.009 3.787-4.258 5.256-6.828 1.44-2.57 2.495-5.506 2.668-8.518.178-4.262-1.229-7.512-1.734-8.447-.909-1.679-2.726-3.09-3.275-3.648 0 0 1.588 2.261 1.819 4.045.15 1.146-.151 5.087-.923 7.301-.764 2.216-1.946 4.207-3.427 6.05-2.95 3.701-6.868 6.884-10.868 10.233-1.004.836-2.024 1.676-3.028 2.557a74.788 74.788 0 0 0-3.021 2.71c-1.995 1.878-3.95 3.926-5.609 6.391-.806 1.245-1.549 2.592-2.047 4.084-.5 1.487-.736 3.128-.563 4.706a9.98 9.98 0 0 0 1.522 4.262c.788 1.224 1.779 2.229 2.86 3.071"/>
		<path fill="#d51224" d="M13.914 16.448c.265-.111 6.669-3.326 11.703-2.05 7.121 1.803 10.244 6.55 11.494 8.684 1.262 2.131 2.087 4.51 2.689 6.996.605 2.49.989 5.096 1.498 7.766.512 2.664 1.145 5.435 2.357 8.107 1.194 2.667 3.008 5.176 5.264 7.111.556.494 1.143.943 1.738 1.377.585.441 1.178.873 1.801 1.275a23.006 23.006 0 0 0 3.979 2.057c2.792 1.131 5.734 1.578 8.24 2.076 2.537.488 4.611 1.122 6.31 2.33.857.59 1.636 1.304 2.368 2.113a27.655 27.655 0 0 1 2.019 2.569c.58.885 1.081 1.77 1.476 2.689.418.908.735 1.846.949 2.837.473 1.965.597 4.153.44 6.518-.162 2.365-.591 4.867-1.024 7.486-.217 1.311-1.734 10.02-.539 12.819.446 1.478 1.29 2.8 2.332 3.837 1.038 1.047 2.263 1.834 3.557 2.4.648.282 1.313.515 2 .681.696.153 1.372.292 2.188.17.862-.129.866-.739-.06-.812-.406-.032-1.06-.053-2.051-.544-.585-.233-.889-.418-1.424-.749-1.066-.667-2.015-1.495-2.747-2.443-1.488-1.908-1.882-4.275-1.159-6.535 1.215-2.588 3.561-7.471 4.139-8.705 1.156-2.465 8.567-16.127.083-25.456-9.775-10.747-21.804-6.294-28.712-9.513-6.908-3.22-9.211-11.95-9.813-14.49-.608-2.54-1.122-5.196-1.898-7.857-.772-2.655-2.19-5.969-3.763-8.365-1.557-2.401-6.057-7.917-15.319-7.918-4.403 0-10.433 3.03-10.433 3.03-.748.41-.546.869.318.509"/>
	</g>
</svg>
