<svg xmlns="http://www.w3.org/2000/svg" xml:space="preserve" width="417.897" height="200.104">
	<defs>
		<clipPath clipPathUnits="userSpaceOnUse" id="a">
			<path d="M0 150.078h313.423V0H0Z"/>
		</clipPath>
	</defs>
	<g clip-path="url(#a)" transform="matrix(1.33333 0 0 -1.33333 0 200.104)">
		<path d="M0 0h5.709l4.455-9.973c.913-2.094 1.903-5.52 2.017-5.862.038.19.99 3.654 1.979 5.862L18.5 0h5.177L12.333-26.113H11.8Z" style="fill:#1d1d1b;fill-opacity:1;fill-rule:nonzero;stroke:none" transform="translate(64.138 45.164)"/>
		<path d="M0 0h17.13v-4.682H5.33v-5.938h10.391v-4.568H5.33v-6.015h12.333v-4.682H0z" style="fill:#1d1d1b;fill-opacity:1;fill-rule:nonzero;stroke:none" transform="translate(91.314 45.164)"/>
		<path d="M0 0c2.627 0 4.302 1.028 4.302 3.882C4.302 6.775 2.55 7.727 0 7.727h-4.111V0Zm-9.44 12.409H.152c5.291 0 9.631-2.474 9.631-8.527 0-3.921-2.055-6.395-5.063-7.575l5.9-9.783H4.529L-.723-4.492h-3.388v-8.984H-9.44Z" style="fill:#1d1d1b;fill-opacity:1;fill-rule:nonzero;stroke:none" transform="translate(123.364 32.754)"/>
		<path d="M0 0h.419l12.752-14.008L25.734 0h.456v-26.151h-5.139v9.707c0 1.751.19 4.529.19 4.529s-1.56-2.284-2.779-3.654l-5.138-5.748h-.495L7.69-15.569c-1.218 1.37-2.779 3.654-2.779 3.654s.19-2.778.19-4.529v-9.707H0Z" style="fill:#1d1d1b;fill-opacity:1;fill-rule:nonzero;stroke:none" transform="translate(137.865 45.43)"/>
		<path d="M169.572 45.164h5.328V19.279h-5.328z" style="fill:#1d1d1b;fill-opacity:1;fill-rule:nonzero;stroke:none"/>
		<path d="M0 0c0 7.651 5.9 13.247 13.322 13.247 4.683 0 8.032-1.675 10.355-5.291l-4.073-2.893c-1.218 1.979-3.312 3.388-6.282 3.388-4.681 0-7.841-3.617-7.841-8.451 0-4.834 3.16-8.527 7.841-8.527 3.351 0 5.216 1.599 6.662 3.807l4.15-2.855c-2.246-3.502-5.824-5.71-10.812-5.71C5.9-13.285 0-7.651 0 0" style="fill:#1d1d1b;fill-opacity:1;fill-rule:nonzero;stroke:none" transform="translate(179.506 32.221)"/>
		<path d="M0 0v16.521h5.329V.304c0-3.768 1.637-5.214 5.177-5.214 3.502 0 5.101 1.446 5.101 5.214v16.217h5.33V0c0-6.547-4.531-9.707-10.431-9.707C4.529-9.707 0-6.547 0 0" style="fill:#1d1d1b;fill-opacity:1;fill-rule:nonzero;stroke:none" transform="translate(207.481 28.643)"/>
		<path d="M0 0h5.33v-21.203h11.724v-4.682H0z" style="fill:#1d1d1b;fill-opacity:1;fill-rule:nonzero;stroke:none" transform="translate(233.706 45.164)"/>
		<path d="M0 0v16.521h5.329V.304c0-3.768 1.637-5.214 5.178-5.214 3.501 0 5.1 1.446 5.1 5.214v16.217h5.33V0c0-6.547-4.531-9.707-10.43-9.707C4.529-9.707 0-6.547 0 0" style="fill:#1d1d1b;fill-opacity:1;fill-rule:nonzero;stroke:none" transform="translate(253.539 28.49)"/>
		<path d="m0 0 4.34 2.512C5.481.647 6.966-.724 9.593-.724c2.208 0 3.616 1.104 3.616 2.627 0 1.827-1.446 2.474-3.883 3.54l-1.332.571c-3.845 1.637-6.395 3.693-6.395 8.032 0 3.997 3.046 7.042 7.803 7.042 3.388 0 5.825-1.18 7.577-4.263l-4.15-2.665c-.914 1.637-1.903 2.284-3.427 2.284-1.56 0-2.549-.989-2.549-2.284 0-1.598.989-2.245 3.273-3.235l1.332-.571c4.53-1.941 7.081-3.921 7.081-8.375 0-4.796-3.768-7.423-8.832-7.423C4.759-5.444 1.561-3.083 0 0" style="fill:#1d1d1b;fill-opacity:1;fill-rule:nonzero;stroke:none" transform="translate(277.328 24.227)"/>
		<path d="M0 0c-.707-2.558-1.175-5.137-.589-7.159.558-1.996 1.967-3.349 3.816-4.574 1.829-1.227 4.022-2.23 6.265-3.255l3.444-1.526a116.656 116.656 0 0 0 3.521-1.603 64.097 64.097 0 0 0 3.547-1.775 46.516 46.516 0 0 0 3.515-2.048c2.316-1.474 4.574-3.245 6.514-5.468 1.912-2.221 3.463-5.001 3.966-7.974.751-3.39-.287-6.593-.984-8.406-.697-1.814-3.073-4.221-3.073-4.221s1.251 2.556 1.555 4.5c.304 1.943-.6 4.908-1.592 6.88-.982 1.975-2.388 3.599-4.11 5.009-3.429 2.841-7.868 4.92-12.393 7.17-1.139.56-2.294 1.122-3.445 1.731a64.684 64.684 0 0 0-3.479 1.897c-2.317 1.346-4.648 2.886-6.754 4.994-1.03 1.067-2.018 2.29-2.702 3.761a9.212 9.212 0 0 0-.928 4.697c.105 1.577.649 2.989 1.347 4.2C-1.858-1.952-.973-.914 0 0" style="fill:#d51224;fill-opacity:1;fill-rule:nonzero;stroke:none" transform="translate(36.514 111.931)"/>
		<path d="M0 0c-.518-1.271-.935-2.537-1.161-3.765-.212-1.235-.203-2.416.026-3.489.475-2.143 1.816-3.913 3.483-5.59 1.653-1.683 3.644-3.218 5.66-4.795l3.097-2.37a116.788 116.788 0 0 0 3.139-2.461 69.925 69.925 0 0 0 3.113-2.626 50.117 50.117 0 0 0 3.013-2.873c1.957-2.009 3.787-4.258 5.256-6.828 1.44-2.57 2.495-5.506 2.668-8.518.178-4.262-1.229-7.512-1.734-8.447-.909-1.679-2.726-3.09-3.275-3.648 0 0 1.588 2.261 1.819 4.045.15 1.146-.151 5.087-.923 7.301-.764 2.216-1.946 4.207-3.427 6.05-2.95 3.701-6.868 6.884-10.868 10.233-1.004.836-2.024 1.676-3.028 2.557a74.788 74.788 0 0 0-3.021 2.71c-1.995 1.878-3.95 3.926-5.609 6.391-.806 1.245-1.549 2.592-2.047 4.084-.5 1.487-.736 3.128-.563 4.706A9.98 9.98 0 0 0-2.86-3.071C-2.072-1.847-1.081-.842 0 0" style="fill:#d51224;fill-opacity:1;fill-rule:nonzero;stroke:none" transform="translate(43.616 138.538)"/>
		<path d="M0 0c.265-.111 6.669-3.326 11.703-2.05C18.824-.247 21.947 4.5 23.197 6.634c1.262 2.131 2.087 4.51 2.689 6.996.605 2.49.989 5.096 1.498 7.766.512 2.664 1.145 5.435 2.357 8.107 1.194 2.667 3.008 5.176 5.264 7.111.556.494 1.143.943 1.738 1.377.585.441 1.178.873 1.801 1.275a23.006 23.006 0 0 0 3.979 2.057c2.792 1.131 5.734 1.578 8.24 2.076 2.537.488 4.611 1.122 6.31 2.33.857.59 1.636 1.304 2.368 2.113a27.655 27.655 0 0 1 2.019 2.569c.58.885 1.081 1.77 1.476 2.689.418.908.735 1.846.949 2.837.473 1.965.597 4.153.44 6.518-.162 2.365-.591 4.867-1.024 7.486-.217 1.311-1.734 10.02-.539 12.819.446 1.478 1.29 2.8 2.332 3.837 1.038 1.047 2.263 1.834 3.557 2.4.648.282 1.313.515 2 .681.696.153 1.372.292 2.188.17.862-.129.866-.739-.06-.812-.406-.032-1.06-.053-2.051-.544-.585-.233-.889-.418-1.424-.749-1.066-.667-2.015-1.495-2.747-2.443-1.488-1.908-1.882-4.275-1.159-6.535 1.215-2.588 3.561-7.471 4.139-8.705 1.156-2.465 8.567-16.127.083-25.456-9.775-10.747-21.804-6.294-28.712-9.513-6.908-3.22-9.211-11.95-9.813-14.49-.608-2.54-1.122-5.196-1.898-7.857-.772-2.655-2.19-5.969-3.763-8.365-1.557-2.401-6.057-7.917-15.319-7.918-4.403 0-10.433 3.03-10.433 3.03C-1.066-.099-.864.36 0 0" style="fill:#d51224;fill-opacity:1;fill-rule:nonzero;stroke:none" transform="translate(13.914 16.448)"/>
	</g>
</svg>
