<svg xmlns="http://www.w3.org/2000/svg" width="200" height="128">
	<defs>
		<linearGradient id="a" x1="44.492" y1="51.782" x2="61.969" y2="63.822" gradientUnits="userSpaceOnUse">
			<stop offset="0" stop-color="#e59500"/>
			<stop offset="1" stop-color="#ffc300"/>
		</linearGradient>
		<linearGradient id="b" x1="20.132" y1="64.446" x2="37.48" y2="76.098" gradientUnits="userSpaceOnUse">
			<stop offset="0" stop-color="#007ebb"/>
			<stop offset="1" stop-color="#005a92"/>
		</linearGradient>
	</defs>
	<path d="M141.767 56.009a3.272 3.272 0 0 0 .332-.377c2.557-4.766 10.563-4.947 13.8-.16a11.931 11.931 0 0 1 1.951 5.434 16.637 16.637 0 0 1-.967 8.6 8.518 8.518 0 0 1-10.733 4.854 7.119 7.119 0 0 1-4.187-3.566c-.038.432-.075.657-.075.882 0 2.09.005 4.179 0 6.268a3.487 3.487 0 0 1-3.834 3.839c-2.134.013-2.134.013-2.134-2.119V53.646c0-1.422 0-1.422 1.468-1.422 1.148 0 2.3.042 3.444-.015.777-.039 1.006.253.958.993-.066.869-.023 1.746-.023 2.807zm.1 6.838a8.789 8.789 0 0 0 1.055 4.878 4.553 4.553 0 0 0 7.889.035 8.464 8.464 0 0 0 .01-8.751 4.543 4.543 0 0 0-7.886.012 7.546 7.546 0 0 0-1.072 3.826zm32.33 8.291a8.5 8.5 0 0 1-10.531 2.891 6.287 6.287 0 0 1-3.866-6.14 5.539 5.539 0 0 1 4.135-5.5A38.5 38.5 0 0 1 170 61.333a29.427 29.427 0 0 1 3.349-.2c.572-.014.8-.188.815-.8.042-2.254-.67-3.409-2.462-3.864-2.357-.6-4.292.185-5.274 2.081a1.056 1.056 0 0 1-.759.479c-1.347.048-2.7.009-4.045.028-.581.008-.751-.211-.659-.784a6.521 6.521 0 0 1 3.575-4.973 12.465 12.465 0 0 1 11.816-.076 6.365 6.365 0 0 1 3.631 6.073c0 4.751-.014 9.5.016 14.253 0 .741-.188 1.079-.962.972a5.708 5.708 0 0 0-.774 0c-2.41-.008-3.567-.946-4.074-3.384zm-.112-6.43c-1.445.105-2.841.182-4.232.317a11.467 11.467 0 0 0-2.271.391 2.4 2.4 0 0 0-1.885 2.449 2.534 2.534 0 0 0 2.009 2.373c3.769 1.167 6.777-1.374 6.375-5.53zm-76.868.029c-.142 5.332 4.523 6.636 7.625 5.2a10.368 10.368 0 0 0 1.84-1.6 2.294 2.294 0 0 1 1.1-.611c1.142-.08 2.293-.042 3.44-.025.936.014 1.2.368.9 1.248a8.166 8.166 0 0 1-5.343 5.2 13.225 13.225 0 0 1-8.04.295 9.871 9.871 0 0 1-7.281-8.83 16.024 16.024 0 0 1 .376-6.127c1.64-5.95 6.585-8.136 11.606-7.545 5.71.672 8.993 4.526 9.161 10.557.071 2.549.079 2.239-2.192 2.242q-6.11.006-12.22 0zm9.553-3.691a4.468 4.468 0 0 0-4.775-4.755 4.637 4.637 0 0 0-4.619 4.755zm8.242 6.733c-.721-.04-.9.226-.745.918a7.209 7.209 0 0 0 5.076 5.455 14.763 14.763 0 0 0 8.479.286 8.456 8.456 0 0 0 4.545-2.62 5.745 5.745 0 0 0-2.21-9.366 21.9 21.9 0 0 0-2.708-.818c-1.828-.472-3.68-.859-5.493-1.381a1.871 1.871 0 0 1-1.515-1.862 2.15 2.15 0 0 1 1.616-2.009 5.564 5.564 0 0 1 3.549-.091 2.859 2.859 0 0 1 2.13 2.041.673.673 0 0 0 .784.579c1.349-.02 2.7-.035 4.046 0 .728.021.808-.329.706-.908a6.467 6.467 0 0 0-2.35-4.069 9.746 9.746 0 0 0-5.483-2.017c-2.893-.236-5.7.063-8.134 1.809a5.986 5.986 0 0 0 .662 10.3 13.187 13.187 0 0 0 2.722 1.026c1.877.512 3.793.886 5.665 1.414 1.162.328 1.617.96 1.622 1.848a2.145 2.145 0 0 1-1.658 2.052 5.944 5.944 0 0 1-4.214-.034c-.628-.255-1.434-.73-1.62-1.285-.454-1.357-1.383-1.346-2.46-1.267-.285.021-.573 0-.86 0-.722.008-1.441.039-2.156-.001zm-33.621 1.262c-.085-.267-.178-.533-.253-.8q-1.83-6.562-3.657-13.123a3.541 3.541 0 0 0-3.817-2.891c-.775 0-1.549-.007-2.324 0-.881.01-.974.132-.688.954q3.59 10.317 7.176 20.636a.878.878 0 0 0 .981.713c1.72-.034 3.442-.04 5.162 0a.911.911 0 0 0 1.04-.748c.654-1.98 1.351-3.945 2.033-5.915Q89.57 60.58 92.1 53.3c.34-.981.277-1.066-.781-1.071h-2.065a3.539 3.539 0 0 0-3.805 2.907c-.414 1.485-.82 2.973-1.234 4.459q-1.317 4.732-2.639 9.465z"/>
	<path fill="url(#a)" d="M44.302 61.793V41.619l17.441 11.76v20.573L44.302 61.793z"/>
	<path fill="#ffc300" d="M44.302 61.793V41.619l-17.441 11.76v20.573l17.441-12.159z"/>
	<path fill="url(#b)" d="M37.441 66.207v20.174L20 74.621V54.048l17.441 12.159z"/>
	<path fill="#007dbb" d="M37.441 66.207v20.174l17.44-11.76V54.048l-17.44 12.159z"/>
</svg>
