<svg xmlns="http://www.w3.org/2000/svg" width="200" height="128">
	<g fill-rule="evenodd">
		<path d="M130.127 49.509A30.509 30.509 0 1 1 99.618 19a30.509 30.509 0 0 1 30.509 30.509z" fill="#fbb040"/>
		<path fill="#2d2d2d" d="m114.112 50.485-2.018-3.48 4.258-6.048-11.768 5.686-.239-1.71 3.439-5.61-.493-.923 1.587-6.596-6.169 6.499-.37-3.589 1.844-5.381-2.462.827-2.15-6.59-2.148 6.59-2.462-.827 1.844 5.381-.37 3.589-6.17-6.499 1.588 6.596-.493.923 3.439 5.61-.239 1.71-11.768-5.686 4.258 6.048-2.019 3.48 9.039 4.574.144 1.525-6.852-2.17 3.445 4.323.288 1.372 4.199 1.887.431 1.296-1.882-.794 5.076 5.901v7.036h1.305v-7.036l5.076-5.901-1.881.794.431-1.296 4.199-1.887.288-1.372 3.444-4.323-6.851 2.17.143-1.525 9.039-4.574z"/>
		<path d="M132.266 101.375c-1.532 0-2.275-1.406-2.275-2.834 0-2.05 1.1-2.926 2.275-2.926 1.351 0 2.275 1.152 2.275 2.926 0 1.82-1.059 2.834-2.275 2.834zm-14.235-.392c-2.411 0-4.348-2.12-4.348-4.93a4.362 4.362 0 1 1 8.695 0c0 2.81-1.937 4.93-4.347 4.93zm-22.457.369a2.656 2.656 0 0 1-2.635-2.852 2.649 2.649 0 1 1 5.27 0 2.656 2.656 0 0 1-2.635 2.857zM142.7 95.41a2.672 2.672 0 0 1 2.3 1.165l1.532-3.107A5.43 5.43 0 0 0 142.7 92.3c-2.488 0-4.706 1.148-4.978 3.106-.823-1.95-1.519-3.106-4.595-3.106s-3.446 1.553-3.446 1.553v-1.144h-3.451l-.024 1.229a8.021 8.021 0 0 0-8.018-6.294 8.4 8.4 0 0 0-8.153 5.668l.112-.991h-.563a4.087 4.087 0 0 0-3.649 3.089v-2.718h-3.784v5.779c-.013-3.719-2.891-6.15-6.554-6.15-3.627 0-6.6 2.442-6.6 6.174 0 .914.27 2.739.09 2.739-.743 0-1.915-.217-1.915-1.553V95.8h2.3v-3.108h-2.3v-3.106h-3.829v3.106h-1.531v.776A7.847 7.847 0 0 0 77.6 92.3a5.733 5.733 0 0 0-5.744 3.91v-3.518h-3.829v12.037h3.829v-3.873c.244 1.649 2.661 3.873 5.744 3.873a7.427 7.427 0 0 0 5.136-2.018l-1.419-2.788a6.628 6.628 0 0 1-3.334 1.311 2.616 2.616 0 0 1-2.748-2.834 2.7 2.7 0 0 1 2.77-2.834 4.187 4.187 0 0 1 2.726 1.152l1.081-1.7v.782h1.531v4.271c0 3.986 3.121 4.66 4.968 4.66h1.159v-3.5a6.714 6.714 0 0 0 6.127 3.5 6.219 6.219 0 0 0 6.554-6.21l-.045 6.21h3.829l.113-4.829a5.505 5.505 0 0 1 .2-1.613 2.928 2.928 0 0 1 3-2.073c.136 0 .258.006.364.014a8.513 8.513 0 0 0 8.578 8.5 8.223 8.223 0 0 0 8.042-6.6V109h3.446v-5.436a6.629 6.629 0 0 0 3.446 1.165c3.086 0 5.361-2.455 5.361-6.21 0-.228.015-.561 0-.779 1.4 2.019 4.8 2.325 4.8 3.151 0 .391-.563.553-1.149.553a4.315 4.315 0 0 1-2.882-1.375l-1.915 3.107a9.032 9.032 0 0 0 4.978 1.553c3 0 4.595-1.788 4.595-3.815 0-3.825-5.361-3.8-5.361-4.7-.005-.414.559-.804 1.149-.804zm-74.673-4.271h3.829v-3.107H64.2L61.473 97.3c-.316 1.037-.608 2.65-.608 2.65-.046 0-.338-1.613-.654-2.65l-2.906-9.265h-4.212l5.744 16.7h3.829l5.361-14.755z" fill="#231f20"/>
	</g>
</svg>
