<svg xmlns="http://www.w3.org/2000/svg" viewBox="-3.1 -3.1 161.33 38.2">
	<path fill="#636C74" d="m54.698 22.06 4.608-10.536h2.538c-1.97 4.496-3.94 8.993-5.877 13.49h-2.571c-1.97-4.497-3.94-8.994-5.877-13.49h2.705l4.474 10.536zM66.05 8.671c-.3.302-.734.47-1.235.47-.5 0-.901-.168-1.235-.47-.3-.302-.501-.705-.501-1.174 0-.47.2-.906.5-1.208.301-.302.735-.47 1.203-.47.467 0 .901.168 1.202.47s.5.704.5 1.14c.067.504-.1.94-.433 1.242zm0 16.376h-2.504V11.523h2.571v13.49h-.067v.034zm5.643-13.423v1.913a4.003 4.003 0 0 1 1.736-1.51c.835-.403 1.837-.604 3.006-.604h.1v2.517h-.1c-.2-.034-.368-.034-.535-.034-1.268 0-2.304.403-3.005 1.141-.7.738-1.068 1.846-1.068 3.255v6.711h-2.571v-13.49h2.47v.101h-.033zM85.983 22.8c.301-.101.602-.269.836-.437l.1-.067.834 1.913-.066.034a4.054 4.054 0 0 1-1.303.704 5.578 5.578 0 0 1-1.669.235c-1.369 0-2.437-.369-3.172-1.107-.734-.738-1.102-1.779-1.102-3.155v-7.214h-2.237v-2.181h2.237v-2.92h2.571v2.92h3.807v2.18h-3.807v7.115c0 .704.167 1.241.501 1.577.334.369.835.537 1.47.537.333.033.667-.034 1-.134zm6.078-10.94c.935-.302 1.97-.436 3.071-.436 1.87 0 3.306.47 4.308 1.41.968.905 1.469 2.281 1.469 4.093v8.12h-2.47V23.47a4.3 4.3 0 0 1-1.604 1.241c-.734.336-1.636.504-2.67.504-1.503 0-2.739-.403-3.607-1.108-.901-.704-1.369-1.711-1.369-2.92 0-1.174.4-2.248 1.403-2.986.868-.637 2.17-1.006 4.006-1.006h3.706v-.403c0-1.007-.3-1.779-.868-2.316-.567-.536-1.435-.805-2.57-.805-.769 0-1.57.134-2.271.37-.701.234-1.369.603-1.87 1.04l-.1.067-1.102-1.98.067-.034c.668-.57 1.536-1.007 2.47-1.275zm.4 10.738c.501.37 1.202.57 2.104.57s1.703-.2 2.337-.603a3.469 3.469 0 0 0 1.402-1.678V19.14h-3.606c-1.168 0-1.903.235-2.37.57-.434.37-.601.84-.601 1.376 0 .638.267 1.141.734 1.51zm20.501 1.51c-1.001.705-2.437 1.074-4.24 1.074-1.069 0-2.17-.168-3.105-.436-1.002-.269-1.87-.705-2.438-1.141l-.066-.034 1.068-2.08.1.067c.568.403 1.302.738 2.137 1.007.768.235 1.636.369 2.471.369 1.068 0 1.836-.168 2.304-.436.501-.302.734-.739.734-1.276 0-1.208-1.502-1.442-3.238-1.744-2.371-.403-5.142-.873-5.142-3.96 0-1.242.567-2.282 1.535-2.987.969-.704 2.371-1.107 4.074-1.107.901 0 1.836.134 2.705.335.834.202 1.602.504 2.17.873l.067.033c-.368.705-.735 1.376-1.102 2.08l-.067-.066a6.815 6.815 0 0 0-1.836-.805 7.473 7.473 0 0 0-1.937-.235c-1.002 0-1.736.167-2.237.47-.534.301-.801.771-.801 1.274 0 1.31 1.569 1.578 3.338 1.88 2.371.402 5.042.872 5.042 3.859.034 1.275-.534 2.282-1.536 2.986zm6.378-12.248c.935-.302 1.97-.436 3.071-.436 1.87 0 3.306.47 4.308 1.41.968.905 1.469 2.281 1.469 4.093v8.12h-2.471V23.47c-.401.503-.935.94-1.603 1.241-.734.336-1.636.504-2.671.504-1.502 0-2.738-.403-3.606-1.108-.901-.704-1.369-1.711-1.369-2.92 0-1.174.401-2.247 1.403-2.986.868-.637 2.17-1.006 4.006-1.006h3.706v-.403c0-1.007-.3-1.779-.868-2.315-.567-.537-1.435-.806-2.571-.806-.768 0-1.569.134-2.27.37-.701.234-1.369.603-1.87 1.04l-.1.067-1.102-1.98.067-.034a6.928 6.928 0 0 1 2.471-1.275zm.434 10.738c.501.37 1.202.57 2.103.57.902 0 1.703-.2 2.338-.603a3.473 3.473 0 0 0 1.402-1.678V19.14h-3.606c-1.169 0-1.903.235-2.371.57-.434.37-.601.84-.601 1.376 0 .638.267 1.141.735 1.51zm15.693-10.637c.834-.37 1.769-.57 2.838-.57 1.703 0 3.138.503 4.14 1.543.935.973 1.469 2.416 1.469 4.329v7.751h-2.571v-7.45c0-1.274-.3-2.214-.901-2.852s-1.469-.973-2.605-.973c-1.268 0-2.304.403-3.038 1.141-.701.738-1.069 1.812-1.069 3.188v6.946h-2.571v-13.49h2.471v1.846c.468-.604 1.102-1.074 1.837-1.41zm17.93 10.839c.3-.101.601-.269.834-.437l.101-.067.834 1.913-.066.034a4.065 4.065 0 0 1-1.303.704 5.577 5.577 0 0 1-1.669.235c-1.369 0-2.438-.369-3.172-1.107-.735-.738-1.135-1.779-1.135-3.155v-7.214h-2.237v-2.181h2.237v-2.92h2.571v2.92h3.806v2.18h-3.806v7.115c0 .704.167 1.241.5 1.577.334.369.835.537 1.47.537.4.033.734-.034 1.035-.134z"/>
	<path fill="#7A828A" d="m21.064 24.38 1.697-2.953c1.408 2.49 2.855 4.96 4.282 7.432l.212-.116-.173.734h-.618c-1.794-1.7-3.607-3.379-5.4-5.097zm11.071-12.605 2.219-9.13c2.662 0 5.343.018 8.005.038-3.415 3.05-6.81 6.12-10.224 9.17v-.078zm-3.761 15.559 3.453-14.246c3.356-2.973 6.674-5.985 10.01-8.977-4.494 7.799-9.007 15.578-13.502 23.377l.039-.154zm2.469-13.34-3.414 14.073c-1.408-2.432-2.797-4.864-4.205-7.297l7.638-6.833-.019.058zm2.7-11.176-2.391 9.864c-2.315 2.066-4.63 4.15-6.944 6.216 3.124-5.405 6.25-10.81 9.355-16.235l-.02.155zM20.697 25.075l4.726 4.401H18.44l-.154-.714.193.116 2.218-3.803zm-4.977-4.633 1.563 7.181-7.137-12.393 5.574 5.212zm4.765 3.436-4.09-3.822c-1.157-5.193-2.275-10.385-3.414-15.578 3.125 5.405 6.23 10.83 9.356 16.215a105.06 105.06 0 0 1-1.852 3.185zM8.159 13.261l9.78 16.95h9.644L43.902 1.948l-10.725-.038-10.416 18.068L12.596 2.355l-.753.308 3.588 16.505-6.365-5.926-.907.02zm9.953 14.71-1.446-6.66 3.472 3.243c-.676 1.158-1.331 2.317-2.006 3.475l-.02-.058z"/>
	<path fill="#7A828A" d="m34.682 2.49 4.282 9.864-.656.29-4.282-9.864.656-.29zM20.35 24.593l14.004-6.12.25.715-14.022 6.12-.232-.715z"/>
	<path fill="#7A828A" d="m31.403 13.358 6.77-1.564-.174-.714-6.77 1.564.174.714z"/>
	<path fill="#7A828A" d="m29.763 8.03 3.607 11.621.694-.232-3.607-11.601-.694.212z"/>
	<path fill="#944A9B" fill-rule="evenodd" d="M2.238.019a2.24 2.24 0 0 0 0 4.478 2.24 2.24 0 0 0 2.237-2.24C4.495 1.023 3.491.02 2.238.02z" clip-rule="evenodd"/>
	<path fill="#CD4039" fill-rule="evenodd" d="M12.133.212a2.067 2.067 0 0 0-2.064 2.065 2.05 2.05 0 0 0 2.064 2.047 2.067 2.067 0 0 0 2.064-2.066A2.05 2.05 0 0 0 12.133.212z" clip-rule="evenodd"/>
	<path fill="#C33B90" fill-rule="evenodd" d="M5.42 6.679c-.598 0-1.1.502-1.1 1.1s.502 1.1 1.1 1.1c.598 0 1.1-.502 1.1-1.1s-.482-1.1-1.1-1.1z" clip-rule="evenodd"/>
	<path fill="#CD4039" fill-rule="evenodd" d="M10.05 6.254c-.85 0-1.525.676-1.525 1.525 0 .85.676 1.525 1.524 1.525.849 0 1.524-.676 1.524-1.525 0-.85-.694-1.525-1.524-1.525z" clip-rule="evenodd"/>
	<path fill="#E05644" fill-rule="evenodd" d="M8.93 11.64c-1.1 0-1.987.888-1.987 1.988s.888 1.988 1.987 1.988c1.1 0 1.987-.888 1.987-1.988S10.03 11.64 8.93 11.64z" clip-rule="evenodd"/>
	<path fill="#F58A23" fill-rule="evenodd" d="M18.151 27.894c1.061 0 1.929.869 1.929 1.93 0 1.062-.868 1.93-1.929 1.93a1.935 1.935 0 0 1-1.929-1.93c0-1.061.868-1.93 1.93-1.93z" clip-rule="evenodd"/>
	<path fill="#1B70BB" fill-rule="evenodd" d="M43.284 0a2.29 2.29 0 0 0-2.295 2.297 2.29 2.29 0 0 0 2.295 2.297 2.29 2.29 0 0 0 2.295-2.297C45.6 1.023 44.557 0 43.284 0z" clip-rule="evenodd"/>
	<path fill="#CADE4E" fill-rule="evenodd" d="M27.39 32.102a2.26 2.26 0 0 0 2.258-2.258 2.26 2.26 0 0 0-2.257-2.259 2.26 2.26 0 0 0-2.257 2.258c-.02 1.255 1.003 2.26 2.257 2.26z" clip-rule="evenodd"/>
	<path fill="#F26D2F" fill-rule="evenodd" d="M16.029 17.798c-1.042 0-1.89.85-1.89 1.892 0 1.042.848 1.891 1.89 1.891s1.89-.849 1.89-1.891a1.894 1.894 0 0 0-1.89-1.892z" clip-rule="evenodd"/>
	<path fill="#E7B62D" fill-rule="evenodd" d="M20.543 23.357c-.752 0-1.37.618-1.37 1.371s.618 1.37 1.37 1.37c.753 0 1.37-.617 1.37-1.37 0-.753-.617-1.37-1.37-1.37z" clip-rule="evenodd"/>
	<path fill="#E9614A" fill-rule="evenodd" d="M18.846 12.027a1.853 1.853 0 1 1-1.852 1.853c0-1.004.83-1.853 1.852-1.853z" clip-rule="evenodd"/>
	<path fill="#E05644" fill-rule="evenodd" d="M14.12 10.058c-.752 0-1.37.617-1.37 1.37 0 .753.618 1.37 1.37 1.37s1.37-.617 1.37-1.37c.019-.753-.598-1.37-1.37-1.37z" clip-rule="evenodd"/>
	<path fill="#E7B62D" fill-rule="evenodd" d="M22.76 21.872a1.874 1.874 0 0 0 0-3.745c-1.04 0-1.87.85-1.87 1.872s.848 1.873 1.87 1.873z" clip-rule="evenodd"/>
	<path fill="#B1DB5F" fill-rule="evenodd" d="M29.59 19.594c-.753 0-1.37.618-1.37 1.37 0 .753.617 1.37 1.37 1.37.752 0 1.369-.617 1.369-1.37 0-.752-.617-1.37-1.37-1.37z" clip-rule="evenodd"/>
	<path fill="#0990CB" fill-rule="evenodd" d="M33.794.231c-1.1 0-1.987.888-1.987 1.989s.887 1.988 1.987 1.988S35.78 3.32 35.78 2.22C35.76 1.12 34.874.23 33.794.23z" clip-rule="evenodd"/>
	<path fill="#B1DB5F" fill-rule="evenodd" d="M26.522 12.683c-.79 0-1.427.637-1.427 1.428 0 .792.636 1.429 1.427 1.429s1.427-.637 1.427-1.429c-.019-.791-.655-1.428-1.427-1.428z" clip-rule="evenodd"/>
	<path fill="#FFD602" fill-rule="evenodd" d="M24.188 22.237c-.578 0-1.022.464-1.022 1.023 0 .58.463 1.023 1.022 1.023.579 0 1.023-.463 1.023-1.023a1.03 1.03 0 0 0-1.023-1.023z" clip-rule="evenodd"/>
	<path fill="#EF7B2E" fill-rule="evenodd" d="M14.389 22.026c-.752 0-1.37.618-1.37 1.37 0 .753.618 1.371 1.37 1.371.752 0 1.37-.618 1.37-1.37.019-.753-.598-1.371-1.37-1.371z" clip-rule="evenodd"/>
	<path fill="#5FC498" fill-rule="evenodd" d="M38.019 10.116c-.753 0-1.37.617-1.37 1.37 0 .753.617 1.37 1.37 1.37.752 0 1.369-.617 1.369-1.37 0-.753-.617-1.37-1.37-1.37z" clip-rule="evenodd"/>
	<path fill="#4FB563" fill-rule="evenodd" d="M31.595 10.907a1.853 1.853 0 1 1-1.851 1.853c0-1.004.83-1.853 1.851-1.853z" clip-rule="evenodd"/>
	<path fill="#82CD80" fill-rule="evenodd" d="M33.871 17.123c1.177 0 2.122.945 2.122 2.123a2.117 2.117 0 0 1-2.122 2.123 2.117 2.117 0 0 1-2.122-2.123c0-1.178.946-2.123 2.122-2.123z" clip-rule="evenodd"/>
	<path fill="#5FC498" fill-rule="evenodd" d="M30.11 6.312c-.887 0-1.601.714-1.601 1.602 0 .888.714 1.602 1.6 1.602s1.602-.714 1.602-1.602c.019-.868-.714-1.602-1.601-1.602z" clip-rule="evenodd"/>
	<path fill="#1AB3C6" fill-rule="evenodd" d="M36.726 6.312c-.868 0-1.582.695-1.582 1.583 0 .869.695 1.583 1.582 1.583.868 0 1.582-.695 1.582-1.583-.02-.869-.714-1.583-1.582-1.583z" clip-rule="evenodd"/>
</svg>
