<svg version="1.1" id="Layer_1" xmlns="http://www.w3.org/2000/svg" x="0" y="0" viewBox="0 0 278.8 77" style="enable-background:new 0 0 278.8 77" xml:space="preserve">
	<style>
		.st1{fill:#1bbfd3}.st2{fill:#79bf43}.st3{fill:#1d4489}
	</style>
	<path d="M54.1 57.3H37.2c-.7 0-1.3-.3-1.7-.8L24.9 43.2c-.4-.5-.6-1.2-.4-1.9L28.6 25c.2-.6.6-1.1 1.1-1.4l15-7.5c.6-.3 1.3-.3 1.9 0l15.2 7.5c.6.3 1 .8 1.2 1.5l3.9 16.3c.2.7 0 1.3-.4 1.9L55.8 56.5c-.5.5-1.1.8-1.7.8zm-16.8-2.2H54l10.7-13.3-3.9-16.3L45.7 18l-15 7.5-4 16.3 10.6 13.3z" style="fill:#238fcf"/>
	<path class="st1" d="m65 20.5 1.9-1.6L46.8 9v2.5z"/>
	<path class="st2" d="m20.9 43.9-2.4.5 14 17.6 1.1-2.2z"/>
	<path class="st1" d="M44.6 11.5V9l-19.9 9.9 1.9 1.6z"/>
	<path class="st3" d="m25.3 22.4-2-1.7L18 42.2l2.5-.5z"/>
	<path class="st3" d="m70.9 41.7 2.5.5-5.1-21.5-1.9 1.6z"/>
	<path class="st2" d="M70.4 43.9 57.6 59.8l1.1 2.2 14.2-17.6z"/>
	<path class="st1" d="M35.6 60.7 34.5 63h22.2l-1.1-2.3z"/>
	<path d="M107.7 26.5 100.6 43H98l-7.1-16.5h2.7l5.8 13.4 5.7-13.4h2.6z"/>
	<path d="M110.8 26.5h2.4l5.8 10.8 5.8-10.8h2.4V43h-2.4V31.2L119 42l-5.8-10.8v11.7h-2.4V26.5z"/>
	<path d="M130 30.5h2.4l2.8 9.2 3.1-9.2h2l3.1 9.2 2.9-9.2h2.4l-4.2 12.4h-2.2l-3-9.2-3 9.2h-2.2L130 30.5z"/>
	<path d="M159.5 31.7c.9.9 1.4 2.2 1.4 3.8V43h-2.3v-1.7c-.4.6-1 1.1-1.8 1.5-.8.3-1.5.5-2.3.5-1.3 0-2.4-.4-3.3-1.1s-1.3-1.7-1.3-2.9c0-.8.2-1.5.7-2.1.4-.6 1-1.1 1.8-1.5.8-.3 1.6-.5 2.5-.5 1.2 0 2.4.2 3.7.7v-.4c0-.9-.2-1.7-.7-2.3s-1.3-.9-2.4-.9c-1 0-2.1.3-3.5 1l-.9-1.8c1.7-.8 3.2-1.2 4.7-1.2 1.6-.1 2.8.4 3.7 1.4zm-2.3 9c.7-.4 1.2-1 1.3-1.7v-1.7c-1.1-.3-2.2-.5-3.4-.5-.8 0-1.6.2-2.2.6s-.9 1-.9 1.6c0 .7.3 1.2.8 1.6.5.4 1.2.6 2 .6 1 .2 1.7 0 2.4-.5z"/>
	<path d="M168.7 31c.8-.5 1.7-.7 2.8-.7v2.1c-.9 0-1.7.2-2.4.5s-1.2.8-1.6 1.4c-.4.6-.6 1.3-.6 2.1V43h-2.4V30.5h2.4V33c.4-.9 1-1.5 1.8-2z"/>
	<path d="M181.8 40.9c.7-.3 1.2-.6 1.6-1l1.4 1.5c-.5.6-1.3 1-2.2 1.4-1 .4-1.9.5-2.8.5-1.1 0-2.2-.3-3.2-.8-1-.6-1.8-1.3-2.4-2.3-.6-1-.9-2.1-.9-3.3 0-1.2.3-2.3.8-3.3.6-1 1.3-1.8 2.3-2.3 1-.6 2-.8 3.1-.8 1.2 0 2.3.3 3.2.9.9.6 1.6 1.4 2.1 2.5s.7 2.4.7 3.8h-9.9c.1 1.1.6 2 1.3 2.7.7.7 1.6 1 2.7 1 .8-.1 1.5-.3 2.2-.5zm-4.7-7.7c-.7.6-1.2 1.5-1.4 2.6h7.6c-.1-1-.5-1.9-1.1-2.5-.6-.7-1.5-1-2.5-1-1.1-.1-1.9.2-2.6.9z"/>
	<path d="M199.1 28.7h-5.4v-2.3h13.2v2.3h-5.4v14.2h-2.4V28.7z"/>
	<path d="M218 31.7c.9.9 1.4 2.2 1.4 3.8V43h-2.3v-1.7c-.4.6-1 1.1-1.8 1.5-.8.3-1.5.5-2.3.5-1.3 0-2.4-.4-3.3-1.1s-1.3-1.7-1.3-2.9c0-.8.2-1.5.7-2.1.4-.6 1-1.1 1.8-1.5.8-.3 1.6-.5 2.5-.5 1.2 0 2.4.2 3.7.7v-.4c0-.9-.2-1.7-.7-2.3s-1.3-.9-2.4-.9c-1 0-2.1.3-3.5 1l-.9-1.8c1.7-.8 3.2-1.2 4.7-1.2 1.5-.1 2.8.4 3.7 1.4zm-2.3 9c.7-.4 1.2-1 1.3-1.7v-1.7c-1.1-.3-2.2-.5-3.4-.5-.8 0-1.6.2-2.2.6s-.9 1-.9 1.6c0 .7.3 1.2.8 1.6.5.4 1.2.6 2 .6.9.2 1.7 0 2.4-.5z"/>
	<path d="M231.7 30.8c.7.4 1.3 1 1.6 1.7.4.7.6 1.6.6 2.5v7.9h-2.3v-7.5c0-.9-.3-1.7-.8-2.3-.5-.6-1.2-.9-2.1-.9-.6 0-1.2.1-1.7.4-.5.3-.9.6-1.2 1.1-.3.4-.5.9-.5 1.5v7.7H223V30.5h2.4v1.8a4.63 4.63 0 0 1 3.9-2.1c.9 0 1.7.2 2.4.6z"/>
	<path d="m236.5 41.2 7-8.5h-6.8v-2.1h10v1.8l-7 8.5h7V43h-10.2v-1.8z"/>
	<path d="M260.1 30.5v12.4h-2.4v-1.8a4.63 4.63 0 0 1-3.9 2.1c-.9 0-1.7-.2-2.4-.6-.7-.4-1.3-1-1.6-1.7-.4-.7-.6-1.6-.6-2.5v-7.9h2.3V38c0 .9.3 1.7.8 2.3.5.6 1.2.9 2.1.9.6 0 1.2-.1 1.7-.4.5-.3.9-.6 1.2-1.1.3-.4.5-.9.5-1.5v-7.7h2.3z"/>
</svg>
