<svg xmlns="http://www.w3.org/2000/svg" width="200" height="128">
	<path d="M46.521 35.788h3.331v3.33c1.436.016 2.871-.023 4.306.018a4.79 4.79 0 0 1 3.117.965 3.127 3.127 0 0 1 .888 2.386v5.694h-3.331v-5.155a2.583 2.583 0 0 0-.243-1.31 1.819 1.819 0 0 0-1.324-.574c-1.127-.11-2.279-.059-3.412-.066v7.1h-3.332V35.788z" fill="#32b7e8"/>
	<path d="M167.5 35.788h.889v8.1c1.544-1.253 3.028-2.584 4.54-3.876h1.227c-1.468 1.288-2.949 2.562-4.424 3.844q2.569 2.137 5.136 4.281h-1.272q-1.979-1.646-3.954-3.292a8.135 8.135 0 0 0-1.251-.95v4.242h-.891zM134.687 37.2c.039.935.016 1.875.021 2.811h2.266v.711h-2.266v4.441a7.849 7.849 0 0 0 .11 1.592.665.665 0 0 0 .4.553 3.208 3.208 0 0 0 2.2-.291v.888a3.349 3.349 0 0 1-2.666.2 1.577 1.577 0 0 1-.933-1.507v-5.873h-2.177v-.711h2.177v-1.963a2.771 2.771 0 0 1 .868-.851z"/>
	<path d="M25.55 39.13c1.777-.026 3.554 0 5.331-.01v1.955c-1.653.026-3.321-.068-4.967.078a2.57 2.57 0 0 0-2.157 1.153 2.618 2.618 0 0 0 .472 3.112 4.106 4.106 0 0 0 2.734.766c1.306.007 2.612-.006 3.916 0v2c-1.482-.005-2.964.011-4.444-.005a11.379 11.379 0 0 1-3.466-.441 4.5 4.5 0 0 1-2.824-3.012 4.423 4.423 0 0 1 1.1-4.226 6.247 6.247 0 0 1 4.305-1.37zm39.629-.001c1.761-.025 3.526 0 5.287-.007v1.951c-1.408.009-2.815-.011-4.222.007a5.245 5.245 0 0 0-1.994.311c-.514.25-.6.787-.789 1.272 2.335.025 4.67 0 7 .013v1.951c-2.337.012-4.676-.016-7.014.016a2.247 2.247 0 0 0 .643 1.073 4.1 4.1 0 0 0 2.141.468c1.41.005 2.819-.006 4.23 0v1.995c-1.408 0-2.815.009-4.222 0a10.651 10.651 0 0 1-3.29-.412 4.879 4.879 0 0 1-2.61-2.033 4.367 4.367 0 0 1 .65-5.116 5.741 5.741 0 0 1 4.19-1.489zm10.483-.009h7.288v1.955c-1.9 0-3.792-.011-5.688.007a6.292 6.292 0 0 0-1.593.151.708.708 0 0 0-.192 1.1 1.3 1.3 0 0 0 .889.348c1.578.142 3.366-.14 4.9.24a2.839 2.839 0 0 1 2.134 1.606 2.714 2.714 0 0 1-1.08 3.025 5.342 5.342 0 0 1-2.925.608c-2.458.05-4.917.012-7.377.021v-2h6.847c.419-.024 1.079 0 1.3-.432a.758.758 0 0 0-.631-1.068c-1.624-.246-3.319.03-4.949-.175a3.182 3.182 0 0 1-2.369-1.406 2.467 2.467 0 0 1 .4-3.114 4.345 4.345 0 0 1 3.046-.866zm9.776 0h3.332v9.059h-3.332zm4.437.003h3.677c.983 2.065 2.028 4.1 3.044 6.145 1.091-2.054 2.215-4.091 3.308-6.145h3.557q-2.591 4.535-5.2 9.06h-3.568q-2.404-4.531-4.818-9.06zm18.665.007c1.775-.028 3.554 0 5.331-.01v1.955c-1.48.01-2.96-.02-4.44.012a3.991 3.991 0 0 0-1.911.382c-.4.261-.506.777-.672 1.2 2.341.021 4.681 0 7.023.009v1.955c-2.342.007-4.682-.016-7.024.012.19.425.3.88.726 1.13a4.315 4.315 0 0 0 2.025.413c1.423.007 2.848-.006 4.272 0v2c-1.953-.023-3.92.066-5.868-.08a5.654 5.654 0 0 1-3.753-1.672 4.323 4.323 0 0 1 .21-5.881 5.789 5.789 0 0 1 4.081-1.425z" fill="#32b7e8"/>
	<path d="M121.376 40.684a3.469 3.469 0 0 1 .85 2.52v4.935h-.889c0-1.527.009-3.054 0-4.58a3.006 3.006 0 0 0-.91-2.47 2.6 2.6 0 0 0-3.224.462c-.316.341-.753.789-.7 1.288v5.3h-.903v-8.131h.89c0 .455 0 .91-.012 1.365A3.733 3.733 0 0 1 118.136 40a3.138 3.138 0 0 1 3.24.684zm42.805-.811c.919-.229 1.644.407 2.323.919-.182.286-.363.574-.546.86-.474-.359-1.128-1-1.772-.924a3.416 3.416 0 0 0-1.979 1.583 1.916 1.916 0 0 0-.487 1.072c-.006 1.583 0 3.17 0 4.756h-.889v-8.131h.889v2.12a4.848 4.848 0 0 1 2.461-2.255zm15.578.636v1a3.988 3.988 0 0 0-2.632-.812c-.7.132-1.42.658-1.322 1.452.078.565.512.825.978 1.059a9.354 9.354 0 0 1 2.687 1.406 2.129 2.129 0 0 1-.116 2.936c-1.253 1.165-3.113.822-4.473.039 0-.308-.009-.615-.012-.923a5.036 5.036 0 0 0 3.156.665 1.348 1.348 0 0 0 1.052-1.607c-.2-.71-1.157-1-1.763-1.281-.873-.378-2.021-.759-2.31-1.78a2.138 2.138 0 0 1 1.315-2.583 3.772 3.772 0 0 1 3.44.429zm-42.359-.501h.915l2.733 6.524q1.266-3.261 2.517-6.526h.535c.8 2.181 1.62 4.354 2.432 6.529l2.8-6.522c.307-.005.615-.007.922-.008-1.047 2.482-2.107 4.959-3.151 7.446-.224.423-.206.872-.783.929-.846-2.2-1.671-4.407-2.508-6.609q-1.188 3.115-2.381 6.234c-.036.361-.487.466-.6.132-1.163-2.698-2.283-5.424-3.431-8.129zm-12.242 5.241a4.349 4.349 0 0 1-.178-1.463c2.14-.005 4.279 0 6.421 0a4.01 4.01 0 0 0-1.011-2.874 3.642 3.642 0 0 0-5.163-.028 4.6 4.6 0 0 0-1.052 4.279 3.984 3.984 0 0 0 2.714 2.973 5.1 5.1 0 0 0 4.355-.879v-1.06a5.032 5.032 0 0 1-2.822 1.2 3.283 3.283 0 0 1-3.264-2.148zm.9-3.883a2.663 2.663 0 0 1 3.3-.142 3.3 3.3 0 0 1 .985 1.8q-2.616.017-5.234 0a3.655 3.655 0 0 1 .946-1.658zm31.566-.492a4.248 4.248 0 0 0-3.86-.93 4.072 4.072 0 0 0-2.9 2.762 4.473 4.473 0 0 0 .852 4.242 4.226 4.226 0 0 0 5.953.254 4.435 4.435 0 0 0-.045-6.328zm-.29 5.287a3.147 3.147 0 0 1-3.3 1.155 3.4 3.4 0 0 1-.094-6.476 3.1 3.1 0 0 1 2.99.7 3.539 3.539 0 0 1 .404 4.621z"/>
	<path d="M42.967 40.19c-1.555-1.173-3.913-1.314-5.782-1.147A6.261 6.261 0 0 0 33 40.888a4.394 4.394 0 0 0-.538 4.825A4.835 4.835 0 0 0 35.686 48a11.511 11.511 0 0 0 4.871.091 5.28 5.28 0 0 0 3.736-2.491 4.427 4.427 0 0 0-1.326-5.41zm-2.013 4.917a2.222 2.222 0 0 1-1.534 1.132 4.2 4.2 0 0 1-2.651-.21 2.158 2.158 0 0 1-1.255-1.583 3.677 3.677 0 0 1 .293-2.355 2.285 2.285 0 0 1 1.557-1.061 4.844 4.844 0 0 1 2.211.064 2.222 2.222 0 0 1 1.539 1.47 3.615 3.615 0 0 1-.16 2.543z" fill="#32b7e8"/>
	<path d="M20 63.023q5.831-.008 11.661 0 4.943 9.959 9.874 19.932 5.39-9.965 10.765-19.933h11.317q-8.341 14.533-16.7 29.054H35.459Q27.721 77.557 20 63.023zm124.26-.135h21.325a40.085 40.085 0 0 1 6.662.374 11 11 0 0 1 3.331 1.03 8.665 8.665 0 0 1 3.881 4.153 8.279 8.279 0 0 1 .465 4.091 8.467 8.467 0 0 1-2.713 5.013 9.043 9.043 0 0 1 2.17 3.061 7.863 7.863 0 0 1-1.017 7.9 9.031 9.031 0 0 1-4.633 3.021 29.549 29.549 0 0 1-7.613.68H144.26v-6.265h19.368c1.006-.035 2.023-.028 3.021-.147a2.86 2.86 0 0 0 1.8-.8 2.434 2.434 0 0 0 0-3.078 3.462 3.462 0 0 0-2.065-1.094 37.673 37.673 0 0 0-5.422-.21c-2.072-.023-4.151.055-6.219-.053v-6.027c2.013-.092 4.025-.039 6.042-.053a38.84 38.84 0 0 0 5.642-.208 3.335 3.335 0 0 0 2.141-1.244 2.474 2.474 0 0 0 .2-2.442 2.309 2.309 0 0 0-1.629-1.19 19.8 19.8 0 0 0-3.356-.219c-.822-.043-1.643-.027-2.466-.028H144.26zm-79.57.134h22.705a36 36 0 0 1 6.763.638 10.926 10.926 0 0 1 5.719 3.133 10.508 10.508 0 0 1 2.266 6.8v18.484H91.48v-16.71a11.461 11.461 0 0 0-.388-3.325 3.592 3.592 0 0 0-2.227-2.074 15.6 15.6 0 0 0-4.84-.68c-2.874-.006-5.749 0-8.625 0v22.789H64.69zm54.51 0h21.636v6.264h-17.9a52.507 52.507 0 0 0-4.105.112 3.078 3.078 0 0 0-2.211.9 2.412 2.412 0 0 0 .309 3.266c1.113 1.036 2.68.93 4.094 1.036 2.888.041 5.781 0 8.669.02a21.434 21.434 0 0 1 8.15 1.487 8.235 8.235 0 0 1 3.97 3.306 7.434 7.434 0 0 1 .759 4.828 9.163 9.163 0 0 1-2.739 5.008 8.542 8.542 0 0 1-4.307 2.291 36.9 36.9 0 0 1-6.194.536h-23.679v-6.263c7.068 0 14.143.011 21.208-.007 1.365-.094 3.115.114 4.335-.571a2.314 2.314 0 0 0 .444-3.451 3.191 3.191 0 0 0-1.813-.959 29.44 29.44 0 0 0-4.043-.251c-2.786-.011-5.574 0-8.361-.007a19.572 19.572 0 0 1-5.992-.862 9.412 9.412 0 0 1-4.944-3.7 7.92 7.92 0 0 1 .144-9.116 8.979 8.979 0 0 1 4.919-3.226 31.125 31.125 0 0 1 7.651-.641z"/>
</svg>
