<svg version="1.1" id="图层_1" xmlns="http://www.w3.org/2000/svg" x="0" y="0" viewBox="0 0 300 204.3" style="enable-background:new 0 0 300 204.3" xml:space="preserve">
	<style>
		.st1{fill:#0f0f0f}
	</style>
	<switch>
		<g>
			<linearGradient id="SVGID_1_" gradientUnits="userSpaceOnUse" x1="150" y1="146.771" x2="150" y2="0">
				<stop offset="0" style="stop-color:#eb5520"/>
				<stop offset=".247" style="stop-color:#eb511f"/>
				<stop offset=".503" style="stop-color:#eb441d"/>
				<stop offset=".763" style="stop-color:#eb301a"/>
				<stop offset="1" style="stop-color:#eb1616"/>
			</linearGradient>
			<path d="M125.8 40.3 106.5 21c-.4-.4-.4-1 0-1.4L125.8.3c.4-.4 1-.4 1.4 0l19.3 19.3c.4.4.4 1 0 1.4l-19.3 19.3c-.4.4-1.1.4-1.4 0zm-5.2 2.8-17-17c-.4-.4-1-.4-1.4 0l-17 17c-.4.4-.4 1 0 1.4l17 17c.4.4 1 .4 1.4 0l17-17c.4-.3.4-1 0-1.4zm47.1 0-17-17c-.4-.4-1-.4-1.4 0l-17 17c-.4.4-.4 1 0 1.4l17 17c.4.4 1 .4 1.4 0l17-17c.4-.3.4-1 0-1.4zM94.8 66.7 80.1 52c-.4-.4-1-.4-1.4 0L64 66.7c-.4.4-.4 1 0 1.4l14.7 14.7c.4.4 1 .4 1.4 0l14.7-14.7c.4-.4.4-1 0-1.4zm47.1 0L127.2 52c-.4-.4-1-.4-1.4 0l-14.7 14.7c-.4.4-.4 1 0 1.4l14.7 14.7c.4.4 1 .4 1.4 0l14.7-14.7c.4-.4.4-1 0-1.4zm47 0L174.2 52c-.4-.4-1-.4-1.4 0l-14.7 14.7c-.4.4-.4 1 0 1.4l14.7 14.7c.4.4 1 .4 1.4 0l14.7-14.7c.4-.4.4-1 0-1.4zM69 90.2 56.6 77.8c-.4-.4-1-.4-1.4 0L42.8 90.2c-.4.4-.4 1 0 1.4L55.2 104c.4.4 1 .4 1.4 0L69 91.6c.4-.4.4-1 0-1.4zm47 0-12.4-12.4c-.4-.4-1-.4-1.4 0L89.8 90.2c-.4.4-.4 1 0 1.4l12.4 12.4c.4.4 1 .4 1.4 0L116 91.6c.4-.4.4-1 0-1.4zm47.1 0-12.4-12.4c-.4-.4-1-.4-1.4 0l-12.4 12.4c-.4.4-.4 1 0 1.4l12.4 12.4c.4.4 1 .4 1.4 0l12.4-12.4c.4-.4.4-1 0-1.4zm47.1 0-12.4-12.4c-.4-.4-1-.4-1.4 0L184 90.2c-.4.4-.4 1 0 1.4l12.4 12.4c.4.4 1 .4 1.4 0l12.4-12.4c.4-.4.4-1 0-1.4zM43.1 113.7 33 103.6c-.4-.4-1-.4-1.4 0l-10.1 10.1c-.4.4-.4 1 0 1.4l10.1 10.1c.4.4 1 .4 1.4 0l10.1-10.1c.4-.3.4-1 0-1.4zm47.1 0-10.1-10.1c-.4-.4-1-.4-1.4 0l-10.1 10.1c-.4.4-.4 1 0 1.4l10.1 10.1c.4.4 1 .4 1.4 0l10.1-10.1c.4-.3.4-1 0-1.4zm47.1 0-10.1-10.1c-.4-.4-1-.4-1.4 0l-10.1 10.1c-.4.4-.4 1 0 1.4l10.1 10.1c.4.4 1 .4 1.4 0l10.1-10.1c.4-.3.4-1 0-1.4zm47 0-10.1-10.1c-.4-.4-1-.4-1.4 0l-10.1 10.1c-.4.4-.4 1 0 1.4l10.1 10.1c.4.4 1 .4 1.4 0l10.1-10.1c.4-.3.4-1 0-1.4zm47.1 0-10.1-10.1c-.4-.4-1-.4-1.4 0l-10.1 10.1c-.4.4-.4 1 0 1.4l10.1 10.1c.4.4 1 .4 1.4 0l10.1-10.1c.4-.3.4-1 0-1.4zM17.3 137.3l-7.8-7.8c-.4-.4-1-.4-1.4 0l-7.8 7.8c-.4.4-.4 1 0 1.4l7.8 7.8c.4.4 1 .4 1.4 0l7.8-7.8c.4-.4.4-1 0-1.4zm47.1 0-7.8-7.8c-.4-.4-1-.4-1.4 0l-7.8 7.8c-.4.4-.4 1 0 1.4l7.8 7.8c.4.4 1 .4 1.4 0l7.8-7.8c.4-.4.4-1 0-1.4zm47 0-7.8-7.8c-.4-.4-1-.4-1.4 0l-7.8 7.8c-.4.4-.4 1 0 1.4l7.8 7.8c.4.4 1 .4 1.4 0l7.8-7.8c.4-.4.4-1 0-1.4zm47.1-.2-7.8-7.8c-.4-.4-1-.4-1.4 0l-7.8 7.8c-.4.4-.4 1 0 1.4l7.8 7.8c.4.4 1 .4 1.4 0l7.8-7.8c.4-.4.4-1 0-1.4zm47.1 0-7.8-7.8c-.4-.4-1-.4-1.4 0l-7.8 7.8c-.4.4-.4 1 0 1.4l7.8 7.8c.4.4 1 .4 1.4 0l7.8-7.8c.4-.4.4-1 0-1.4zm47 0-7.8-7.8c-.4-.4-1-.4-1.4 0l-7.8 7.8c-.4.4-.4 1 0 1.4l7.8 7.8c.4.4 1 .4 1.4 0l7.8-7.8c.4-.4.4-1 0-1.4zm-78.4-96.8L193.5 21c.4-.4.4-1 0-1.4L174.2.3c-.4-.4-1-.4-1.4 0l-19.3 19.3c-.4.4-.4 1 0 1.4l19.3 19.3c.4.4 1.1.4 1.4 0zm23.6 21.2 17-17c.4-.4.4-1 0-1.4l-17-17c-.4-.4-1-.4-1.4 0l-17 17c-.4.4-.4 1 0 1.4l17 17c.4.4 1 .4 1.4 0zm23.5 21.3L236 68.1c.4-.4.4-1 0-1.4L221.3 52c-.4-.4-1-.4-1.4 0l-14.7 14.7c-.4.4-.4 1 0 1.4l14.7 14.7c.4.4 1 .4 1.4 0zm23.5 21.2 12.4-12.4c.4-.4.4-1 0-1.4l-12.4-12.4c-.4-.4-1-.4-1.4 0L231 90.2c-.4.4-.4 1 0 1.4l12.4 12.4c.4.4 1.1.4 1.4 0zm23.6 21.2 10.1-10.1c.4-.4.4-1 0-1.4l-10.1-10.1c-.4-.4-1-.4-1.4 0l-10.1 10.1c-.4.4-.4 1 0 1.4l10.1 10.1c.4.4 1 .4 1.4 0zm23.5 21.1 7.8-7.8c.4-.4.4-1 0-1.4l-7.8-7.8c-.4-.4-1-.4-1.4 0l-7.8 7.8c-.4.4-.4 1 0 1.4l7.8 7.8c.4.4 1 .4 1.4 0z" style="fill:url(#SVGID_1_)"/>
			<path class="st1" d="M85.1 204.3H65.8c-6.1 0-11-4.9-11-11v-5.5c0-6.1 4.9-11 11-11h19.3c6.1 0 11 4.9 11 11v5.5c0 6.1-4.9 11-11 11zm-19.3-22c-3 0-5.5 2.5-5.5 5.5v5.5c0 3 2.5 5.5 5.5 5.5h19.3c3 0 5.5-2.5 5.5-5.5v-5.5c0-3-2.5-5.5-5.5-5.5H65.8z"/>
			<path class="st1" d="M129.2 204.3h-18.8c-6.1 0-11-4.9-11-11v-16c0-.3.2-.5.5-.5h4.5c.3 0 .5.2.5.5v16c0 3 2.5 5.5 5.5 5.5h18.8c.3 0 .5.2.5.5v4.5c0 .3-.2.5-.5.5z"/>
			<path class="st1" d="m47.9 177-15.4 21.9c-.2.3-.6.3-.8 0L16.4 177c-.1-.1-.2-.2-.4-.2h-5.5c-.4 0-.6.5-.4.8l18.6 26.5c.1.1.2.2.4.2h6.2c.2 0 .3-.1.4-.2l18.6-26.5c.2-.3 0-.8-.4-.8h-5.5c-.2 0-.4.1-.5.2z"/>
			<path class="st1" d="M279 204.3h-19.3c-6.1 0-11-4.9-11-11v-5.5c0-6.1 4.9-11 11-11H279c6.1 0 11 4.9 11 11v5.5c0 6.1-4.9 11-11 11zm-19.3-22c-3 0-5.5 2.5-5.5 5.5v5.5c0 3 2.5 5.5 5.5 5.5H279c3 0 5.5-2.5 5.5-5.5v-5.5c0-3-2.5-5.5-5.5-5.5h-19.3z"/>
			<path class="st1" d="M165.6 204.3H144c-6.1 0-11-4.9-11-11v-5.5c0-6.1 4.9-11 11-11h21.5c.3 0 .5.2.5.5v4.5c0 .3-.2.5-.5.5H144c-3 0-5.5 2.5-5.5 5.5v5.5c0 3 2.5 5.5 5.5 5.5h21.5c.3 0 .5.2.5.5v4.5c.1.3-.1.5-.4.5z"/>
			<path class="st1" d="M194.7 176.8H181c-6.1 0-11 4.9-11 11v16c0 .3.2.5.5.5h4.5c.3 0 .5-.2.5-.5v-10c0-.3.2-.5.5-.5h23.8c.3 0 .5.2.5.5v10c0 .3.2.5.5.5h4.5c.3 0 .5-.2.5-.5v-16c-.1-6.1-5-11-11.1-11zm-18.7 11c-.3 0-.5-.2-.5-.5.3-2.8 2.6-5 5.5-5h13.8c2.9 0 5.2 2.2 5.5 5 0 .3-.2.5-.5.5H176z"/>
			<path class="st1" d="M239.9 177.3V197c0 .4-.5.7-.8.4L216.6 177c-.1-.1-.2-.1-.3-.1h-6.2c-.3 0-.5.2-.5.5v26.5c0 .3.2.5.5.5h4.5c.3 0 .5-.2.5-.5v-19.7c0-.4.5-.7.8-.4l22.5 20.4c.1.1.2.1.3.1h6.2c.3 0 .5-.2.5-.5v-26.5c0-.3-.2-.5-.5-.5h-4.5c-.3 0-.5.2-.5.5z"/>
		</g>
	</switch>
</svg>
