<svg xmlns="http://www.w3.org/2000/svg" viewBox="143.98 120.98 1151.04 1197.04">
	<path fill="#4f94cb" d="m915.876 226.014 140.32 81.037v388.213l-336.21 194.114-336.209-194.114V307.05l140.32-81.037-141.996-81.982-140.32 81.036v552.178l478.205 276.096 478.207-276.096V225.068l-140.322-81.036-141.995 81.982"/>
	<path fill="#51ade5" d="m852.777 749.796-132.791 76.677-132.8-76.677V596.44l132.8-76.662 132.791 76.662v153.355M699.007 485.71l-132.793 76.675-132.796-76.675V332.364l132.796-76.668 132.793 76.668V485.71m41.95 0 132.793 76.675 132.809-76.675V332.364L873.75 255.696l-132.793 76.668V485.71"/>
	<path fill="#918f90" d="M273.097 1290.5h-49.71l-55.691-162.667h46.879l34.295 111.068h.63l34.296-111.068h44.361l-55.06 162.667m91.24-81.177c0 6.503.629 12.848 1.886 19.038 1.26 6.185 3.408 11.744 6.45 16.673 3.042 4.932 7.08 8.864 12.113 11.801 5.035 2.935 11.328 4.404 18.879 4.404 7.551 0 13.897-1.47 19.034-4.404 5.14-2.937 9.229-6.869 12.271-11.8 3.04-4.93 5.191-10.489 6.451-16.674 1.257-6.19 1.887-12.535 1.887-19.038 0-6.5-.63-12.897-1.887-19.191-1.26-6.292-3.41-11.852-6.45-16.675-3.043-4.826-7.132-8.757-12.272-11.797-5.137-3.044-11.483-4.562-19.034-4.562-7.55 0-13.844 1.518-18.879 4.562-5.033 3.04-9.071 6.97-12.113 11.797-3.042 4.823-5.19 10.383-6.45 16.675a97.738 97.738 0 0 0-1.887 19.191zm-44.678 0c0-13.002 1.992-24.8 5.978-35.394 3.984-10.593 9.647-19.611 16.99-27.058 7.34-7.446 16.15-13.214 26.43-17.303 10.276-4.09 21.813-6.139 34.608-6.139 12.794 0 24.383 2.05 34.767 6.139 10.382 4.089 19.245 9.857 26.586 17.303 7.34 7.447 13.005 16.465 16.99 27.058 3.985 10.595 5.977 22.392 5.977 35.394 0 13.006-1.992 24.751-5.977 35.24-3.985 10.486-9.65 19.456-16.99 26.904-7.341 7.442-16.204 13.16-26.586 17.145-10.384 3.982-21.973 5.978-34.767 5.978-12.795 0-24.332-1.996-34.609-5.978-10.278-3.984-19.089-9.703-26.43-17.145-7.342-7.448-13.005-16.418-16.989-26.905-3.986-10.488-5.978-22.233-5.978-35.239m828.96-2.045c0 6.504.63 12.849 1.887 19.037 1.26 6.186 3.408 11.746 6.45 16.674 3.042 4.933 7.08 8.864 12.113 11.802 5.034 2.934 11.328 4.404 18.879 4.404 7.551 0 13.895-1.47 19.034-4.404 5.14-2.938 9.23-6.869 12.272-11.802 3.04-4.928 5.19-10.488 6.45-16.674 1.257-6.188 1.887-12.533 1.887-19.037 0-6.499-.63-12.896-1.887-19.192-1.26-6.292-3.408-11.85-6.45-16.673-3.042-4.826-7.132-8.758-12.272-11.798-5.139-3.044-11.483-4.563-19.034-4.563-7.55 0-13.845 1.52-18.879 4.563-5.033 3.04-9.071 6.972-12.113 11.798-3.042 4.823-5.19 10.381-6.45 16.673a97.758 97.758 0 0 0-1.887 19.192zm-44.679 0c0-13.003 1.995-24.8 5.98-35.394 3.984-10.592 9.647-19.61 16.99-27.058 7.34-7.448 16.15-13.214 26.428-17.304 10.278-4.09 21.817-6.137 34.61-6.137 12.795 0 24.383 2.047 34.767 6.137 10.382 4.09 19.245 9.856 26.587 17.304 7.34 7.448 13.004 16.466 16.988 27.058 3.986 10.594 5.978 22.391 5.978 35.394 0 13.006-1.992 24.753-5.978 35.239-3.984 10.488-9.648 19.457-16.988 26.905-7.342 7.443-16.205 13.16-26.587 17.144-10.384 3.984-21.972 5.978-34.767 5.978-12.793 0-24.332-1.994-34.61-5.978-10.277-3.983-19.088-9.7-26.429-17.144-7.342-7.448-13.005-16.417-16.989-26.905-3.985-10.486-5.98-22.233-5.98-35.24m-564.359 9.913v73.31h-44.675v-162.667h42.474v30.205h.63c2.097-5.035 4.928-9.697 8.494-14a55.636 55.636 0 0 1 12.271-11.012 59.943 59.943 0 0 1 14.787-7.077c5.245-1.677 10.698-2.52 16.36-2.52 2.937 0 6.188.526 9.754 1.576v36.87c-60.495 0-60.095 55.315-60.095 55.315m71.806-138.122h44.68v44.599h32.72v38.225h-32.72v76.378c0 7.554 1.258 12.588 3.778 15.101 2.514 2.52 7.549 3.778 15.102 3.778a80.63 80.63 0 0 0 7.235-.314 62.399 62.399 0 0 0 6.605-.944v34.609c-3.772.63-7.968 1.049-12.584 1.257-4.614.212-9.122.317-13.53.317-6.919 0-13.475-.472-19.665-1.416-6.185-.945-11.64-2.78-16.36-5.506-4.72-2.727-8.44-6.61-11.166-11.644-2.727-5.033-4.095-11.638-4.095-19.822v-174.618"/>
	<path fill="#918f90" d="M805.984 1191.705c-2.1-11.325-5.82-19.928-11.172-25.8-5.348-5.873-13.474-8.807-24.38-8.807-7.135 0-13.06 1.205-17.78 3.617-4.717 2.41-8.493 5.401-11.327 8.966-2.831 3.566-4.822 7.342-5.978 11.325-1.15 3.988-1.836 7.554-2.043 10.699zm-72.68 28.318c.627 14.47 4.298 24.958 11.013 31.46 6.71 6.504 16.359 9.756 28.944 9.756 9.02 0 16.782-2.254 23.282-6.764 6.502-4.509 10.49-9.282 11.955-14.317h39.329c-6.29 19.507-15.94 33.457-28.942 41.849-13.008 8.386-28.74 12.583-47.196 12.583-12.796 0-24.332-2.044-34.611-6.137-10.278-4.09-18.981-9.91-26.116-17.46-7.129-7.553-12.635-16.57-16.514-27.057-3.883-10.488-5.824-22.025-5.824-34.613 0-12.165 1.995-23.49 5.979-33.976 3.988-10.488 9.649-19.564 16.99-27.218 7.341-7.655 16.1-13.687 26.274-18.09 10.169-4.407 21.446-6.61 33.822-6.61 13.845 0 25.903 2.675 36.183 8.027 10.276 5.348 18.72 12.529 25.325 21.547 6.609 9.024 11.378 19.3 14.316 30.837 2.934 11.537 3.986 23.6 3.147 36.183H733.304m127.184-92.19h44.676V1290.5h-44.676zm44.676-25.17h-44.676v-36.808h44.676v36.808m140.92 27.215h44.675v162.666h-44.676zm-17.835 166.126h-44.676v-36.809h44.676zm62.51-191.297h-44.676v-36.808h44.676v36.808m-171.123-38.852h44.676V1290.5h-44.676v-224.645"/>
</svg>
