<svg xmlns="http://www.w3.org/2000/svg" viewBox="24.5 25.5 1950 540">
	<defs>
		<style>
			.cls-1{fill:#1394ff}.cls-2{fill:#1494ff}.cls-3{fill:#1595ff}.cls-4{fill:#52d6ff}.cls-5{fill:#33caff}
		</style>
	</defs>
	<path d="M62.81 183.96c.805-2.182.567-4.506.84-6.753a114.661 114.661 0 0 1 28.091-62.02 115.388 115.388 0 0 1 47.002-32.177 110.878 110.878 0 0 1 26.614-6.274 113.524 113.524 0 0 1 17.36-.834 117.907 117.907 0 0 1 42.182 9.503 113.767 113.767 0 0 1 51.361 43.623c6.446 10.082 12.804 20.225 19.321 30.264q10.645 16.395 21.383 32.73c.432.661.916 1.289 1.376 1.932a10.29 10.29 0 0 1-1.734 3.52q-3.397 5.342-6.738 10.72-9.338 15.001-18.658 30.015c-3.804 6.124-7.688 12.2-11.376 18.395a106.1 106.1 0 0 1-15.236 19.798c-2.765 2.84-5.857 5.306-8.84 7.902a106.448 106.448 0 0 1-21.047 13.969 115.029 115.029 0 0 1-21.862 8.436 104.253 104.253 0 0 1-23.277 3.946 115.197 115.197 0 0 1-23.158-.85 134.663 134.663 0 0 1-20.506-4.582 116.404 116.404 0 0 1-44.706-26.628 115.106 115.106 0 0 1-12.107-13.565 1.526 1.526 0 0 0-1.544-.783l.017.01c.122-.882.058-1.636-1.122-1.612a.593.593 0 0 1-.397-.558c.017-.502-.12-.902-.68-1.022a115.956 115.956 0 0 1-19.895-43.647A107.447 107.447 0 0 1 62.85 196.8a2.31 2.31 0 0 0-.627-1.935v-5.822c.665-.315.656-.929.651-1.524-.01-1.187-.04-2.373-.063-3.56z" class="cls-1"/>
	<path d="M1937.777 214.975a23.121 23.121 0 0 1-3.248 6.79 18.334 18.334 0 0 1-14.26 7.396c-2.551.13-5.115.022-7.672.022q-60.064 0-120.127-.047a5.432 5.432 0 0 0-4.86 2.292q-25.714 32.692-51.582 65.263-17.297 21.842-34.621 43.663c-2.844 3.587-5.741 7.133-8.509 10.779a7.537 7.537 0 0 0 1.766 11.105 8.646 8.646 0 0 0 4.22 1.354c.612.05 1.233.01 1.85.01q80.835.001 161.67.034a21.538 21.538 0 0 0 20.997-18.265 22.447 22.447 0 0 0-1.123-10.089q-5.52-17.22-11.123-34.413c-1.21-3.699-1.45-7.24 1.07-10.498a8.734 8.734 0 0 1 6.778-3.527c15.312-.83 29.16 9.862 33.452 23.437 2.732 8.643 5.926 17.14 8.621 25.793 5.396 17.323 2.316 33.04-9.58 46.846-7.817 9.073-17.885 14.016-29.674 15.594a27.961 27.961 0 0 1-3.694.176c-32.016.009-64.033.151-96.048-.033-33.16-.19-66.32.114-99.478-.186-15.021-.136-26.6-6.849-33.755-20.233a37.018 37.018 0 0 1 3.74-40.25q26.287-32.565 52.583-65.121 16.517-20.432 33.07-40.834a8.727 8.727 0 0 0 1.919-2.85h-3.013q-50.273 0-100.546.015c-7.724.007-16.443-5.04-18.26-14.952a18.273 18.273 0 0 1 17.786-21.939q141.956-.02 283.912-.02c8.251-.002 16.22 6.53 17.3 13.613.033.22.288.406.44.608z" class="cls-2"/>
	<path d="M1426.551 63.618c.125.114.24.314.375.33 5.056.564 8.468 3.39 11.101 7.607 3.452 5.53 7.238 10.849 10.697 16.374a4.97 4.97 0 0 0 4.858 2.658c30.956-.09 61.912-.024 92.868-.082a33.548 33.548 0 0 1 23.94 9.453 32.793 32.793 0 0 1 10.252 20.615 45.498 45.498 0 0 1-.044 12.874 17.147 17.147 0 0 1-16.924 14.217c-2.454-.004-4.915.245-7.364-.34a14.117 14.117 0 0 1-10.789-11.968c-.365-2.671-.194-5.46-1.639-7.932-2.35-4.023-5.58-6.683-10.363-7.308a40.36 40.36 0 0 0-5.253-.316q-101.202-.004-202.403.011c-4.73.002-9.283.766-13.17 3.823a17.657 17.657 0 0 0-7.237 14.033c-.193 9.151-5.735 15.936-14.685 17.254a16.654 16.654 0 0 1-19.19-16.004c-.057-2.821.056-5.646-.02-8.466-.52-19.376 14.253-36.586 33.23-39.443a40.385 40.385 0 0 1 6.037-.482q47.095.001 94.19-.008a8.584 8.584 0 0 0 3.017-.21 7.947 7.947 0 0 0-1.934-3.381c-4.308-5.134-2.41-11.719 1.444-15.805a24.141 24.141 0 0 1 13.867-7.07c.496-.089 1.078.115 1.435-.434z" class="cls-1"/>
	<path d="M1223.33 528.802c-1.536-.907-3.33-.858-4.99-1.325-13.61-3.835-22.386-12.635-26.239-26.1-3.777-13.203-3.24-26.354 2.652-38.882 5.543-11.787 14.976-18.934 27.894-21.04 7.537-1.228 15.118-1.071 22.387 1.617a37.101 37.101 0 0 1 15.553 11.007 10.804 10.804 0 0 1 2.016 3.965 4.61 4.61 0 0 1-1.635 5.175c-3.045 2.638-9.295 4.273-13.289-.376a21.462 21.462 0 0 0-8.595-6.438c-10.854-4.065-22.111-1.098-28.554 9.684a34.047 34.047 0 0 0-4.775 17.344c-.076 5.697.456 11.251 2.738 16.53 2.984 6.901 7.832 11.873 15.127 14.122 14.502 4.47 24.867-5.672 26.265-16.271.045-.347.158-.684.214-1.03.368-2.278.255-2.437-2.014-2.454-3.086-.023-6.173-.056-9.257.014a22.832 22.832 0 0 1-4.967-.54c-3.43-.68-4.814-2.99-4.507-7.249.355-4.905 2.796-6.402 7.06-6.483 7.49-.144 14.987-.091 22.48-.02 3.922.037 6.109 1.68 6.61 5.467 1.372 10.37.233 20.417-5.502 29.417-4.737 7.434-11.78 11.678-20.42 13.309-.663.125-1.446-.102-1.962.557zm473.652 0c-2.194-.877-4.581-1.014-6.803-1.838-11.246-4.172-18.166-12.319-21.69-23.56a61.756 61.756 0 0 1-2.607-21.888c.384-7.22 1.489-14.354 4.63-20.975 5.082-10.709 13.468-17.182 25.203-19.075a43.55 43.55 0 0 1 21.62 1.484 32.292 32.292 0 0 1 18.376 15.772 50.014 50.014 0 0 1 5.323 18.1 66.768 66.768 0 0 1-1.163 23.05c-2.493 10.747-7.786 19.556-17.819 24.967a34.637 34.637 0 0 1-9.916 3.455c-.487.095-1.088-.093-1.394.508zm28.64-43.378a44.662 44.662 0 0 0-1.693-14.465c-2.695-9.175-8.55-16.078-19.768-16.257-5.785-.092-10.887 1.583-15.011 5.856a25.056 25.056 0 0 0-5.892 11.048 51.694 51.694 0 0 0-1.467 17.528 38.508 38.508 0 0 0 3.795 14.963c6.058 12.008 18.784 12.834 27.344 9.242 5.98-2.509 9.18-7.484 10.979-13.436a44.581 44.581 0 0 0 1.712-14.479zm-191.64 43.378c-1.004-.844-2.306-.664-3.46-.928-11.792-2.691-20.504-9.323-26.064-20.086a46.289 46.289 0 0 1-4.983-21.104 56.907 56.907 0 0 1 2.78-19.75c3.672-10.442 10.075-18.585 20.492-22.896 12.014-4.974 23.873-4.46 35.264 2.073a18.51 18.51 0 0 1 6.57 6.006c2.77 4.325.658 9.353-4.379 10.376a5.662 5.662 0 0 1-4.028-.89c-2.524-1.436-4.945-3.036-7.524-4.394-9.828-5.174-22.479-2.652-28.943 9.049a36.066 36.066 0 0 0-4.365 16.945 37.947 37.947 0 0 0 2.887 16.495c5.64 12.746 17.527 18.171 30.578 14.159 3.342-1.028 6.036-3.219 8.774-5.3a6.32 6.32 0 0 1 7.624-.46 6.128 6.128 0 0 1 2.196 8.859 22.606 22.606 0 0 1-8.411 7.476 32.567 32.567 0 0 1-11.129 3.977c-.23.032-.432.258-.648.393z" class="cls-3"/>
	<path d="M62.81 183.96c.023 1.186.054 2.372.064 3.56.005.594.014 1.208-.651 1.523v-5.292z" class="cls-4"/>
	<path d="M87.55 264.247a1.526 1.526 0 0 1 1.545.783 115.106 115.106 0 0 0 12.107 13.565 116.404 116.404 0 0 0 44.706 26.628 134.663 134.663 0 0 0 20.506 4.583 115.197 115.197 0 0 0 23.158.849 104.253 104.253 0 0 0 23.277-3.946 115.029 115.029 0 0 0 21.862-8.436 106.448 106.448 0 0 0 21.047-13.97c2.983-2.595 6.075-5.061 8.84-7.902a106.1 106.1 0 0 0 15.236-19.797c3.688-6.194 7.572-12.27 11.376-18.395q9.323-15.011 18.658-30.016 3.345-5.374 6.738-10.718a10.29 10.29 0 0 0 1.734-3.521c2.393-2.838 4.088-6.137 6.045-9.258q13.397-21.373 26.68-42.818c4.046-6.511 8.332-12.862 12.721-19.144 4.468-6.394 10.033-11.768 15.882-16.881a121.343 121.343 0 0 1 30.438-19.798 113.302 113.302 0 0 1 33.678-9.297 109.831 109.831 0 0 1 17.628-.86 118.41 118.41 0 0 1 37.3 7.536 116.753 116.753 0 0 1 35.114 21.129c9.27 8.12 16.966 17.588 24.069 27.58 6.38 8.976 12.011 18.446 18.049 27.648 5.893 8.982 11.605 18.082 17.397 27.13l3.277 5.116c.47.732.808 1.583 1.719 1.92a3.594 3.594 0 0 0 .813 2.453q9.392 14.63 18.799 29.252 11.645 18.193 23.236 36.421 10.105 15.893 20.14 31.83 12.101 19.306 24.087 38.683a4.095 4.095 0 0 1 .787 2.474c-1.122-1.214-2.3-2.382-3.358-3.65a91.43 91.43 0 0 0-17.558-16.25 121.704 121.704 0 0 0-18.246-10.52 109.948 109.948 0 0 0-17.812-6.506 100.847 100.847 0 0 0-25.935-3.867c-2.257-.02-4.584-.824-6.803-.35-3.475.74-6.99.381-10.484.821a134.5 134.5 0 0 0-14.732 2.577 115.58 115.58 0 0 0-53.508 29.718 119.56 119.56 0 0 0-6.128 6.542 121.118 121.118 0 0 0-12.262 16.785c-1.54 2.532-3.187 4.997-4.785 7.493a.515.515 0 0 0-.533.562l.028-.04c-1.858 1.536-3.035 3.622-4.358 5.566-11.304 16.61-22.106 33.548-33.009 50.421-5.595 8.658-11.239 17.285-16.86 25.927-6.1 9.38-12.09 18.834-18.328 28.122-6.492 9.667-13.519 18.922-22.146 26.853a117.881 117.881 0 0 1-24.254 17.264 115.653 115.653 0 0 1-37.942 12.433 113.66 113.66 0 0 1-22.91 1.077 115.196 115.196 0 0 1-47.287-12.663c-19.022-9.888-34.467-23.793-45.57-42.17-6.79-11.238-13.95-22.223-21.101-33.222q-14.982-23.04-30.012-46.048-10.961-16.83-21.897-33.675-18.522-28.464-37.054-56.922l-22.496-34.554a5.344 5.344 0 0 1-1.308-2.547z" class="cls-5"/>
	<path d="M686.2 335.07a4.095 4.095 0 0 0-.788-2.474q-12.035-19.347-24.086-38.683-10.002-15.958-20.141-31.83-11.59-18.228-23.236-36.42-9.373-14.644-18.8-29.253a3.594 3.594 0 0 1-.812-2.453c3.747-5.96 7.465-11.94 11.246-17.88q13.335-20.951 26.718-41.872c5.369-8.407 11.25-16.438 18.424-23.398 16.793-16.29 36.575-26.958 59.643-31.4a114.808 114.808 0 0 1 29.146-1.915 116.239 116.239 0 0 1 39.039 9.387 114.461 114.461 0 0 1 30.044 18.95 115.926 115.926 0 0 1 37.368 63.834 113.974 113.974 0 0 1 1.976 13.814 123.205 123.205 0 0 1 .345 14.234 114.557 114.557 0 0 1-4.03 26.509 122.911 122.911 0 0 1-15.658 34.198q-19.753 30.802-39.386 61.681c-2.079 3.258-3.972 6.636-6.312 9.725l-.703.56.042-.04a.988.988 0 0 0-.553 1.097l.024-.016c-1.16-.077-1.675.87-2.322 1.537-3.116 3.21-6.071 6.55-9.462 9.52a63.284 63.284 0 0 1-25.19 13.253c-6.436 1.798-13.015 1.743-19.607 1.624a40.7 40.7 0 0 1-7.282-.944 60.984 60.984 0 0 1-18.902-7.062A62.223 62.223 0 0 1 686.2 335.07z" class="cls-4"/>
	<path d="M686.2 335.07a62.223 62.223 0 0 0 16.745 14.283 60.984 60.984 0 0 0 18.902 7.062 40.7 40.7 0 0 0 7.282.944c6.592.12 13.17.174 19.607-1.624a63.284 63.284 0 0 0 25.19-13.254c3.39-2.969 6.346-6.31 9.462-9.52.647-.666 1.161-1.613 2.322-1.536a2.543 2.543 0 0 1-.684 1.674q-22.922 35.844-45.85 71.686-21.859 34.315-43.47 68.789a112.33 112.33 0 0 1-36.128 35.73 116.235 116.235 0 0 1-165.756-47.302 112.414 112.414 0 0 1-10.976-37.526 115.397 115.397 0 0 1-.858-15.779 116.32 116.32 0 0 1 11.679-48.586c.265-.541.675-1.055.417-1.726l-.029.04c.458.078.495-.242.533-.562 1.598-2.496 3.246-4.961 4.785-7.493a121.118 121.118 0 0 1 12.262-16.785c1.971-2.258 4-4.445 6.128-6.542a115.58 115.58 0 0 1 53.508-29.718 134.5 134.5 0 0 1 14.732-2.577c3.493-.44 7.01-.08 10.484-.821 2.219-.474 4.546.33 6.803.35a100.847 100.847 0 0 1 25.935 3.866 109.948 109.948 0 0 1 17.812 6.507 121.704 121.704 0 0 1 18.246 10.52 91.43 91.43 0 0 1 17.558 16.25c1.058 1.268 2.236 2.436 3.358 3.65zm229.572-80.396q0-63.633.022-127.266c.014-11.182 4.024-21 11.034-29.59a47.493 47.493 0 0 1 24.163-15.774 45.765 45.765 0 0 1 12.73-1.91q104.776-.06 209.552.037a46.795 46.795 0 0 1 31.18 11.795c9.501 8.19 14.82 18.605 16.63 30.908a30.956 30.956 0 0 1 .205 4.485q.013 128.192.068 256.384c.01 8.322-6.896 16.383-15.447 17.164a17.32 17.32 0 0 1-19.177-17.073c.006-.706 0-1.412 0-2.117q0-121.048.004-242.096a26.675 26.675 0 0 0-23.37-26.383 51.875 51.875 0 0 0-5.517-.319l-179.654-.008c-7.642-.001-14.436 2.31-19.898 7.695a26.057 26.057 0 0 0-7.957 17.633c-.037.704-.005 1.411-.005 2.117q0 121.048.02 242.096a18.617 18.617 0 0 1-3.962 12.283 17.289 17.289 0 0 1-30.668-10.679q.137-64.69.047-129.382z" class="cls-1"/>
	<path d="M1472.08 216.79a7.669 7.669 0 0 0 2.942.21c21.255.012 42.512.135 63.766-.035 14.202-.113 27.113 10.552 29.177 24.781a27.216 27.216 0 0 1 .34 3.929c-.005 45.51-.067 91.019.048 136.528a17.014 17.014 0 0 1-16.907 16.927c-5.866-.082-10.666-1.956-14.3-6.543a14.996 14.996 0 0 1-3.215-7.428c-.373-2.862-.356-2.867-3.377-2.867-23.284-.001-46.568-.094-69.851.057a13.875 13.875 0 0 1-13.845-14.021c.04-7.714 5.624-15.39 15.146-15.344 22.754.108 45.509.04 68.264.029 3.608-.002 3.26.454 3.263-3.227q.016-17.86.004-35.72c0-.617-.03-1.235.002-1.851.052-1.028-.435-1.427-1.43-1.372-.703.04-1.41.004-2.116.004l-68.793.001a22.37 22.37 0 0 1-5.238-.508 13.94 13.94 0 0 1-10.643-14.016c.322-8.61 6.244-12.71 11.685-13.683a25.056 25.056 0 0 1 4.453-.384q34.265.02 68.53.01c.617 0 1.238-.048 1.85.008 1.21.111 1.839-.286 1.712-1.612-.076-.786-.012-1.586-.012-2.38v-29.105c0-.617-.032-1.236-.004-1.852.043-.933-.44-1.243-1.296-1.205-.528.023-1.058-.002-1.587-.002q-55.167-.001-110.334.003c-3.137 0-2.837-.307-2.837 2.838q-.009 58.342-.004 116.684c0 6.438.031 12.877-.008 19.315a15.893 15.893 0 0 1-12.351 15.524c-13.07 2.658-20.5-6.998-20.486-16.09q.105-69.058.03-138.116a29.402 29.402 0 0 1 29.502-29.288c7.23.116 14.464-.013 21.696.047a2.943 2.943 0 0 0 3.09-1.764c3.653-6.931 7.45-13.785 11.187-20.671a2.442 2.442 0 0 0 .066-.706 8.074 8.074 0 0 0-2.745-.161q-22.225-.018-44.451-.01a11.031 11.031 0 0 1-8.326-3.32 10.007 10.007 0 0 1-2.94-6.875 20.125 20.125 0 0 1 16.082-20.414 23.543 23.543 0 0 1 4.711-.463q63.104.021 126.209-.014a20.56 20.56 0 0 1 19.7 13.983 19.289 19.289 0 0 1 .99 7.015c-.316 5.893-4.91 10.068-11.098 10.082-12.348.026-24.695.007-37.043.008-8.643 0-17.287.04-25.93-.036a3.058 3.058 0 0 0-3.225 1.99c-3.072 6.343-6.277 12.622-9.41 18.936a3.185 3.185 0 0 0-.643 2.175zm-341.673 50.72c-1.883 3.418-3.506 6.425-5.184 9.4-9.708 17.208-20.795 33.518-32.269 49.575q-3.993 5.589-8.052 11.13c-2.589 3.53-5.848 6.104-10.3 6.792a15.2 15.2 0 0 1-17.52-12.311 13.69 13.69 0 0 1 .987-8.468 4.428 4.428 0 0 0 .052-3.989c-6.082-13.959-11.89-28.042-18.966-41.545-1.552-2.962-3.24-5.853-4.877-8.77a2.782 2.782 0 0 0-1.258-1.413c-2.137 3.818-4.254 7.657-6.424 11.466-8.34 14.634-17.79 28.555-27.434 42.342-3.987 5.7-8.123 11.298-12.294 16.865a14.104 14.104 0 0 1-14.906 5.693c-6.223-1.238-10.428-5.076-11.916-11.327a15.111 15.111 0 0 1 2.776-12.988q10.535-14.227 20.45-28.897a317.11 317.11 0 0 0 19.284-32.151 152.145 152.145 0 0 0 9.029-21.383 4.195 4.195 0 0 0-.635-4.118c-7.093-10.302-14.38-20.462-22.003-30.379-3.54-4.605-7.18-9.135-10.736-13.728a14.586 14.586 0 0 1-.18-18.128c5.216-7.083 16.745-7.422 22.484-.757 7.012 8.145 13.488 16.709 19.993 25.252.729.957 1.5 1.88 2.526 3.16 1.215-4.816 2.257-9.145 3.404-13.446 2.062-7.734 3.777-15.542 5.282-23.404a14.445 14.445 0 0 1 16.312-11.319 22.172 22.172 0 0 1 5.399 1.11c6.685 2.865 10.107 9.498 8.84 16.823a375.73 375.73 0 0 1-11.843 48.38c-1.184 3.777-2.156 7.622-3.421 11.369a5.22 5.22 0 0 0 .774 5.13q10.629 15.467 20.057 31.702 6.156 10.636 11.56 21.671c.457.937.96 1.85 1.528 2.94a4.559 4.559 0 0 0 1.609-1.81c7.113-10.93 13.94-22.03 19.534-33.835a138.181 138.181 0 0 0 6.657-16.658 4.219 4.219 0 0 0-.617-4.136c-8.955-12.978-18.227-25.721-27.98-38.112-1.743-2.213-3.576-4.36-5.207-6.653a14.485 14.485 0 0 1 2.746-19.875c5.267-4.33 14.25-4.31 19.309 1.047 4.9 5.19 9.216 10.873 13.574 16.514 2.853 3.693 5.663 7.418 8.482 11.138a2.205 2.205 0 0 0 1.206 1.035 19.594 19.594 0 0 0 1.214-4.559c2.186-8.697 4.635-17.33 6.353-26.14.32-1.639.603-3.285.873-4.932a14.672 14.672 0 0 1 16.744-12.112c2.601.521 5.179.811 7.486 2.266a14.685 14.685 0 0 1 6.619 14.982c-2.865 18.116-7.78 35.72-13.097 53.23-.817 2.692-1.566 5.409-2.476 8.07a3.467 3.467 0 0 0 .494 3.404c4.179 6.214 8.372 12.419 12.324 18.783 6.133 9.878 12.034 19.887 17.299 30.258a18.063 18.063 0 0 1-3.479 21.131c-6.162 6.155-17.46 5.002-21.712-2.962-3.65-6.835-7.318-13.657-11.25-20.334-2.274-3.865-4.618-7.689-7.224-12.02zm176.093-19.466c-5.2 5.21-9.865 10.478-14.69 15.607a17.05 17.05 0 0 1-24.746-.002 23.937 23.937 0 0 1-4.414-5.556 16.93 16.93 0 0 1 3.745-20.256 290.748 290.748 0 0 0 24.648-26.482 348.995 348.995 0 0 0 37.836-56.563c1.335-2.482 2.69-4.957 3.901-7.5a16.631 16.631 0 0 1 16.91-8.884 16.273 16.273 0 0 1 14.22 13.044 17.185 17.185 0 0 1-1.533 11.568q-8.303 15.937-17.628 31.296c-1.558 2.557-3.12 5.114-4.761 7.617a6.45 6.45 0 0 0-.849 3.782q.02 33.736.01 67.472 0 55.3-.007 110.6c-.002 5.576-1.85 10.326-6.394 13.83-9.172 7.074-24.334 2.482-25.937-10.811a37.146 37.146 0 0 1-.31-4.46q-.003-65.62-.001-131.24v-3.062zm474.18-157.518c36.066 0 72.133.093 108.2-.073 7.951-.037 15.622 5.428 16.874 14.018 1.767 12.109-5.489 20.876-15.397 22.38a17.33 17.33 0 0 1-2.62.187q-107.936.01-215.872-.004a18.208 18.208 0 0 1-17.863-15.318c-1.919-11.384 7.358-21.318 18.213-21.262 36.154.188 72.31.072 108.464.072z" class="cls-2"/>
	<path d="M988.898 500.96a35.221 35.221 0 0 0 1.41-7.226c1.563-10.333 2.985-20.688 4.47-31.034.687-4.78 1.347-9.566 2.116-14.333.89-5.52 6.29-8.151 11.363-5.613 2.128 1.065 3.137 3.268 2.72 6.058-.337 2.258-.728 4.508-1.094 6.761q-2.85 17.558-5.703 35.115-2.29 14.043-4.619 28.079a15.883 15.883 0 0 1-.64 2.555 9.654 9.654 0 0 1-17.836 1.012c-1.28-2.633-1.822-5.51-2.618-8.294-4.085-14.291-8.082-28.608-12.115-42.914a4.316 4.316 0 0 0-1.094-2.441c-2.349 8.342-4.69 16.63-7.015 24.92q-3.742 13.338-7.448 26.685a15.93 15.93 0 0 1-1.65 3.873 6.602 6.602 0 0 1-4.061 3.191c-4.484 1.156-10.101.689-12.837-5.379a30.337 30.337 0 0 1-2.036-7.89q-3.71-23.555-7.394-47.115c-.884-5.64-1.774-11.28-2.633-16.923a11.948 11.948 0 0 1-.14-2.633 5.435 5.435 0 0 1 4.492-5.166 14.343 14.343 0 0 1 4.996-.025c2.958.466 4.317 2.446 4.731 5.241.58 3.91 1.15 7.823 1.735 11.732q2.028 13.548 4.064 27.094c.583 3.909 1.127 7.823 1.7 11.733a3.956 3.956 0 0 0 1.172 2.83 11.894 11.894 0 0 0 1.533-4.086q6.049-23.373 12.096-46.747c.578-2.236 1.243-4.382 3.12-5.969a9.491 9.491 0 0 1 10.394-.868 5.148 5.148 0 0 1 1.826 1.87 18.611 18.611 0 0 1 1.738 4.124q6.803 23.988 13.675 47.957a10.76 10.76 0 0 0 1.582 3.826z" class="cls-3"/>
	<path d="M1158.154 496.427v-2.923c0-14.81.128-29.622-.08-44.43a6.56 6.56 0 0 1 7.054-6.986 15.24 15.24 0 0 1 4.184.353 5.8 5.8 0 0 1 4.35 5.623c.023.528.005 1.058.005 1.587 0 23.802-.095 47.604.064 71.405.042 6.18-3.216 7.177-8.09 6.615-1.984-.229-3.31-1.599-4.47-3.048-2.309-2.885-4.534-5.838-6.78-8.772q-14.606-19.078-29.223-38.148c-.566-.735-1.002-1.656-2.092-2.111a4.724 4.724 0 0 0-.205 2.286c-.012 14.193-.14 28.388.066 42.578.066 4.566-2.527 7.169-7.022 7.355a12.641 12.641 0 0 1-3.923-.373 5.81 5.81 0 0 1-4.635-5.904c-.033-3.879-.008-7.758-.008-11.636V448.54c0-.705.01-1.41.005-2.115a3.959 3.959 0 0 1 2.08-3.463 8.174 8.174 0 0 1 9.057.982 74.55 74.55 0 0 1 6.492 8.317q15.083 20.216 30.138 40.451a14.832 14.832 0 0 0 3.033 3.714z" class="cls-2"/>
	<path d="m1851.065 484.81.001-35.718a15.296 15.296 0 0 1 .043-2.114c.294-2.085 1.24-2.997 3.359-3.477a15.057 15.057 0 0 1 3.395-.363c7.585.019 15.172-.112 22.754.045 7.239.15 14.129 1.706 20.137 6.078 6.64 4.832 10.551 11.456 12.664 19.251a61.016 61.016 0 0 1 2.008 19.341c-.41 7.581-1.546 15.042-5.203 21.888-5.103 9.55-13.037 14.956-23.72 16.49a53.72 53.72 0 0 1-7.634.373q-10.45.01-20.902.002c-.529 0-1.06.03-1.587-.005-3.581-.24-5.346-1.114-5.33-5.542.043-12.083.015-24.166.015-36.248zm15.718.069q0 13.357.004 26.714c.003 2.278.03 2.295 2.334 2.303 4.056.013 8.114.081 12.167-.018a15.954 15.954 0 0 0 10.984-4.44c3.555-3.377 5.256-7.72 6.182-12.318a63.391 63.391 0 0 0 .039-25.154c-1.47-7.324-5.358-12.786-12.846-14.996-5.85-1.727-11.884-.991-17.85-1.096a.89.89 0 0 0-.99.968c-.025.705-.024 1.41-.024 2.116q-.002 12.96 0 25.92zm-496.943-9.468c0-8.64.147-17.282-.063-25.916a6.883 6.883 0 0 1 7.35-7.41c.792.027 1.59-.042 2.379.017a6.39 6.39 0 0 1 6.207 6.315c.044.703.009 1.41.009 2.116 0 14.721-.024 29.442.014 44.164a26.274 26.274 0 0 0 2.577 12.007 12.569 12.569 0 0 0 7.597 6.533 23.113 23.113 0 0 0 14.504-.015 12.544 12.544 0 0 0 8.188-8.365 29.51 29.51 0 0 0 1.499-9.586c.034-14.898.014-29.795.017-44.693 0-.88-.024-1.767.063-2.64a6.057 6.057 0 0 1 5.033-5.679 13.817 13.817 0 0 1 5.762.068c3.228.78 5.002 2.898 5.007 6.215.03 17.63.226 35.264-.06 52.89-.197 12.092-8.03 20.816-18.79 24.613a40.268 40.268 0 0 1-30.884-1.134c-10.496-4.777-16.328-13.072-16.4-24.906-.049-8.198-.009-16.396-.009-24.594zm459.003-.067c0 8.462.02 16.925-.006 25.388-.032 10.276-4.867 17.798-13.55 22.9-6.987 4.106-14.698 5.197-22.67 4.617-6.506-.472-12.674-2.155-18.056-5.982-6.796-4.831-10.999-11.193-11.58-19.765a114.727 114.727 0 0 1-.287-7.632q-.027-22.215-.01-44.43a12.163 12.163 0 0 1 .35-3.393 6.088 6.088 0 0 1 4.553-4.637 13.281 13.281 0 0 1 6.01-.114c3.306.665 4.961 2.9 4.964 6.47.014 14.898-.047 29.796.042 44.694a32.326 32.326 0 0 0 1.843 11.385c2.127 5.61 6.277 8.455 12.102 9.23a25.027 25.027 0 0 0 9.64-.523 12.743 12.743 0 0 0 9.664-9.481 22.373 22.373 0 0 0 .909-4.641c.2-3.243.595-6.47.584-9.733-.045-13.576.101-27.153-.098-40.726-.054-3.685 2.442-7.034 6.864-6.875a15.14 15.14 0 0 1 4.19.3c3.026.955 4.528 2.803 4.535 5.972q.028 13.488.007 26.976zm-776.182-9.194-8.538 27.533c2.536.505 4.803.185 7.046.265 4.29.154 7.092 3.07 6.965 7.286a6.498 6.498 0 0 1-6.353 6.464 132.95 132.95 0 0 1-8.727-.01 2.496 2.496 0 0 0-2.882 1.969c-1.257 3.659-2.733 7.242-4.124 10.855-.221.575-.454 1.146-.685 1.717-2.544 6.28-8.057 6.308-12.248 4.905a4.819 4.819 0 0 1-3.398-5.82 28.61 28.61 0 0 1 1.214-4.307q6.144-17.984 12.329-35.953 5.829-16.975 11.65-33.953a6.986 6.986 0 0 1 2.614-3.538 9.031 9.031 0 0 1 13.706 4.123c4.304 12.383 8.55 24.786 12.83 37.176q5.686 16.466 11.393 32.924c.143.415.255.842.369 1.266 1.433 5.307-.791 8.364-6.235 8.785-4.923.381-7.857-2.176-9.212-6.546q-8.16-26.336-16.326-52.67c-.26-.838-.55-1.665-.827-2.497zm261.247 62.198c-7.249.364-13.653-1.954-19.696-5.398a13.263 13.263 0 0 1-6.55-7.958 7.22 7.22 0 0 1 .139-4.911c1.717-4.08 5.502-5.317 9.293-2.96 2.167 1.346 4.19 2.934 6.398 4.2a21.777 21.777 0 0 0 11.526 3.289c6.83-.175 12.159-5.126 12.426-11.886a9.641 9.641 0 0 0-2.04-6.144 17.494 17.494 0 0 0-7.594-5.942c-3.585-1.455-7.211-2.818-10.753-4.372-4.467-1.96-8.608-4.438-11.69-8.36a20.462 20.462 0 0 1-4.428-12.166c-.251-5.999 1.167-11.347 5.19-15.875a24.944 24.944 0 0 1 13.822-7.744 34.223 34.223 0 0 1 21.195 2.021 19.645 19.645 0 0 1 7.974 5.909 8.346 8.346 0 0 1 2.112 5.563 6.677 6.677 0 0 1-5.758 6.016 7.624 7.624 0 0 1-5.955-1.458 23.805 23.805 0 0 0-9.623-4.776c-5.309-1.168-9.92 1.042-11.895 5.895-1.202 2.953-1.018 5.844 1.315 8.348a21.41 21.41 0 0 0 7.546 5.198 114.78 114.78 0 0 1 15.02 7.114c4.13 2.476 7.783 5.472 9.888 9.981 1.853 3.969 2.013 8.171 1.594 12.412-.643 6.503-2.922 12.284-7.787 16.861-4.004 3.767-8.909 5.554-14.194 6.483a34.303 34.303 0 0 1-7.475.66zm284.72-45.135c0-11.374.12-22.75-.063-34.12-.069-4.312 2.483-6.196 5.553-6.838a11.195 11.195 0 0 1 5.228.13c3.493.94 4.996 2.806 4.996 6.412q.007 29.89.002 59.779v1.323c.011 2.774-.191 2.573 2.575 2.575 6.613.005 13.226.043 19.838-.019 2.667-.025 5.027.712 6.316 3.054a8.245 8.245 0 0 1-.022 8.115 5.799 5.799 0 0 1-5.29 2.967c-10.405.033-20.81.068-31.213-.01-4.647-.033-7.904-3.598-7.913-8.453q-.035-17.458-.008-34.915z" class="cls-3"/>
	<path d="M86.446 262.645c1.18-.024 1.244.73 1.122 1.612a2.022 2.022 0 0 1-1.122-1.612zm-1.076-1.58c.559.12.696.52.68 1.022a1.184 1.184 0 0 1-.68-1.022z" class="cls-5"/>
	<path d="M785.686 331.44a.988.988 0 0 1 .553-1.096.759.759 0 0 1-.553 1.097z" class="cls-1"/>
	<path d="m786.197 330.384.703-.56c-.141.303-.241.659-.703.56z" class="cls-1"/>
	<path fill="#feffff" d="M494.588 357.863c-.038.32-.075.64-.533.562a.515.515 0 0 1 .533-.562z"/>
</svg>
