<svg viewBox="0 0 300 251" xmlns="http://www.w3.org/2000/svg" xml:space="preserve" style="fill-rule:evenodd;clip-rule:evenodd;stroke-linecap:round;stroke-linejoin:round;stroke-miterlimit:10">
	<path d="M135.629.25H49.375v250.5h250.5V.25h-86.254c.143 10.163-3.664 20.372-11.419 28.127-15.23 15.231-39.924 15.231-55.154 0-7.755-7.755-11.562-17.964-11.419-28.127Z" style="fill:#664ff0;fill-rule:nonzero"/>
	<path d="M.893-.53.695 0H.603L.45-.402.295 0H.203L.006-.53h.091l.154.422.16-.422h.081l.157.424.158-.424h.086Z" style="fill:#fff;fill-rule:nonzero" transform="matrix(61 0 0 61 111.45 207.75)"/>
	<path d="M.284-.535c.073 0 .129.018.169.054.039.036.058.09.058.161V0H.42v-.07a.15.15 0 0 1-.068.056.248.248 0 0 1-.106.02.217.217 0 0 1-.142-.043A.137.137 0 0 1 .05-.15a.14.14 0 0 1 .051-.113c.034-.028.088-.042.162-.042h.152v-.019c0-.041-.012-.073-.036-.095C.355-.441.32-.452.273-.452a.263.263 0 0 0-.168.057l-.04-.072a.294.294 0 0 1 .098-.051.431.431 0 0 1 .121-.017Zm-.022.467a.173.173 0 0 0 .095-.025.136.136 0 0 0 .058-.069v-.074H.267c-.081 0-.122.027-.122.082 0 .027.01.048.031.063a.144.144 0 0 0 .086.023Z" style="fill:#fff;fill-rule:nonzero" transform="matrix(61 0 0 61 165.252 207.75)"/>
	<path d="M.378-.7c.091 0 .162.022.214.065a.22.22 0 0 1 .078.179.22.22 0 0 1-.078.179.325.325 0 0 1-.214.065H.205V0h-.1v-.7h.273Zm-.003.401A.226.226 0 0 0 .52-.34a.14.14 0 0 0 .05-.116.143.143 0 0 0-.05-.117C.487-.6.438-.613.375-.613h-.17v.314h.17Z" style="fill:#fff;fill-rule:nonzero" transform="matrix(61 0 0 61 201.73 207.75)"/>
	<path d="M.418.008a.384.384 0 0 1-.189-.047.334.334 0 0 1-.133-.128.352.352 0 0 1-.048-.183.348.348 0 0 1 .181-.312.401.401 0 0 1 .19-.046.4.4 0 0 1 .15.027.319.319 0 0 1 .116.082L.62-.536a.262.262 0 0 0-.197-.083.289.289 0 0 0-.141.035.245.245 0 0 0-.098.096.27.27 0 0 0-.036.138.264.264 0 0 0 .275.269.26.26 0 0 0 .197-.084l.065.063a.319.319 0 0 1-.116.082.39.39 0 0 1-.151.028Z" style="fill:#fff;fill-rule:nonzero" transform="matrix(61 0 0 61 245.772 207.75)"/>
	<path d="M1.075-.7.839 0H.761L.556-.597.35 0H.273L.037-.7h.076l.202.602L.524-.7h.069l.206.605.205-.605h.071Z" style="fill:#fff;fill-rule:nonzero" transform="matrix(15 0 0 15 60.34 235.55)"/>
	<path d="M.557-.241h-.44a.185.185 0 0 0 .063.132.208.208 0 0 0 .144.051.22.22 0 0 0 .09-.018.187.187 0 0 0 .071-.051l.04.046a.232.232 0 0 1-.087.064.292.292 0 0 1-.116.022.288.288 0 0 1-.143-.035.242.242 0 0 1-.098-.095.277.277 0 0 1-.035-.138c0-.051.011-.097.034-.138A.251.251 0 0 1 .303-.53c.049 0 .092.011.131.034a.242.242 0 0 1 .091.094.288.288 0 0 1 .033.139l-.001.022ZM.303-.469a.178.178 0 0 0-.127.048.192.192 0 0 0-.059.127H.49a.196.196 0 0 0-.058-.127.184.184 0 0 0-.129-.048Z" style="fill:#fff;fill-rule:nonzero" transform="matrix(15 0 0 15 76.18 235.55)"/>
	<path d="M.37-.53c.049 0 .094.011.134.033.04.023.071.054.094.095a.278.278 0 0 1 .034.139.278.278 0 0 1-.034.139.245.245 0 0 1-.094.095.264.264 0 0 1-.134.034.24.24 0 0 1-.118-.028.22.22 0 0 1-.085-.081V0H.099v-.742H.17v.316a.22.22 0 0 1 .085-.078A.253.253 0 0 1 .37-.53Zm-.005.472c.037 0 .07-.009.1-.026a.176.176 0 0 0 .071-.072.22.22 0 0 0 .025-.107.22.22 0 0 0-.025-.107.185.185 0 0 0-.171-.098.182.182 0 0 0-.17.098.22.22 0 0 0-.026.107c0 .04.009.076.026.107s.04.056.07.072a.196.196 0 0 0 .1.026Z" style="fill:#fff;fill-rule:nonzero" transform="matrix(15 0 0 15 85.24 235.55)"/>
	<path d="M.553-.187h-.39L.079 0H.002l.32-.7h.073l.32.7H.637L.553-.187Zm-.027-.06L.358-.623.19-.247h.336Z" style="fill:#fff;fill-rule:nonzero" transform="matrix(15 0 0 15 95.305 235.55)"/>
	<path d="M.24.005A.38.38 0 0 1 .026-.06l.032-.056a.329.329 0 0 0 .187.059.2.2 0 0 0 .107-.023.07.07 0 0 0 .034-.063.058.058 0 0 0-.019-.046.137.137 0 0 0-.048-.025.769.769 0 0 0-.077-.016.743.743 0 0 1-.103-.025.144.144 0 0 1-.066-.042.116.116 0 0 1-.028-.083A.13.13 0 0 1 .1-.488.248.248 0 0 1 .253-.53c.034 0 .068.004.102.013.034.01.062.021.084.036l-.031.057a.265.265 0 0 0-.155-.045.176.176 0 0 0-.102.024.074.074 0 0 0-.035.063c0 .02.007.036.02.048a.112.112 0 0 0 .048.026.67.67 0 0 0 .08.018.902.902 0 0 1 .101.024.153.153 0 0 1 .065.041.112.112 0 0 1 .027.08.127.127 0 0 1-.057.109.276.276 0 0 1-.16.041Z" style="fill:#fff;fill-rule:nonzero" transform="matrix(15 0 0 15 105.985 235.55)"/>
	<path d="M.24.005A.38.38 0 0 1 .026-.06l.032-.056a.329.329 0 0 0 .187.059.2.2 0 0 0 .107-.023.07.07 0 0 0 .034-.063.058.058 0 0 0-.019-.046.137.137 0 0 0-.048-.025.769.769 0 0 0-.077-.016.743.743 0 0 1-.103-.025.144.144 0 0 1-.066-.042.116.116 0 0 1-.028-.083A.13.13 0 0 1 .1-.488.248.248 0 0 1 .253-.53c.034 0 .068.004.102.013.034.01.062.021.084.036l-.031.057a.265.265 0 0 0-.155-.045.176.176 0 0 0-.102.024.074.074 0 0 0-.035.063c0 .02.007.036.02.048a.112.112 0 0 0 .048.026.67.67 0 0 0 .08.018.902.902 0 0 1 .101.024.153.153 0 0 1 .065.041.112.112 0 0 1 .027.08.127.127 0 0 1-.057.109.276.276 0 0 1-.16.041Z" style="fill:#fff;fill-rule:nonzero" transform="matrix(15 0 0 15 113.32 235.55)"/>
	<path d="M.557-.241h-.44a.185.185 0 0 0 .063.132.208.208 0 0 0 .144.051.22.22 0 0 0 .09-.018.187.187 0 0 0 .071-.051l.04.046a.232.232 0 0 1-.087.064.292.292 0 0 1-.116.022.288.288 0 0 1-.143-.035.242.242 0 0 1-.098-.095.277.277 0 0 1-.035-.138c0-.051.011-.097.034-.138A.251.251 0 0 1 .303-.53c.049 0 .092.011.131.034a.242.242 0 0 1 .091.094.288.288 0 0 1 .033.139l-.001.022ZM.303-.469a.178.178 0 0 0-.127.048.192.192 0 0 0-.059.127H.49a.196.196 0 0 0-.058-.127.184.184 0 0 0-.129-.048Z" style="fill:#fff;fill-rule:nonzero" transform="matrix(15 0 0 15 120.655 235.55)"/>
	<path d="M.755-.53a.21.21 0 0 1 .156.057c.037.038.056.094.056.168V0H.896v-.298c0-.055-.013-.096-.039-.125a.145.145 0 0 0-.112-.043.169.169 0 0 0-.129.05.2.2 0 0 0-.047.14V0H.498v-.298c0-.055-.013-.096-.039-.125C.432-.452.395-.466.346-.466a.168.168 0 0 0-.128.05.197.197 0 0 0-.048.14V0H.099v-.526h.068v.096a.192.192 0 0 1 .078-.074A.25.25 0 0 1 .36-.53c.044 0 .082.009.115.028a.173.173 0 0 1 .072.083.201.201 0 0 1 .084-.082.26.26 0 0 1 .124-.029Z" style="fill:#fff;fill-rule:nonzero" transform="matrix(15 0 0 15 129.715 235.55)"/>
	<path d="M.37-.53c.049 0 .094.011.134.033.04.023.071.054.094.095a.278.278 0 0 1 .034.139.278.278 0 0 1-.034.139.245.245 0 0 1-.094.095.264.264 0 0 1-.134.034.24.24 0 0 1-.118-.028.22.22 0 0 1-.085-.081V0H.099v-.742H.17v.316a.22.22 0 0 1 .085-.078A.253.253 0 0 1 .37-.53Zm-.005.472c.037 0 .07-.009.1-.026a.176.176 0 0 0 .071-.072.22.22 0 0 0 .025-.107.22.22 0 0 0-.025-.107.185.185 0 0 0-.171-.098.182.182 0 0 0-.17.098.22.22 0 0 0-.026.107c0 .04.009.076.026.107s.04.056.07.072a.196.196 0 0 0 .1.026Z" style="fill:#fff;fill-rule:nonzero" transform="matrix(15 0 0 15 145.63 235.55)"/>
	<path style="fill:#fff;fill-rule:nonzero" d="M.099-.742H.17V0H.099z" transform="matrix(15 0 0 15 155.8 235.55)"/>
	<path d="M.541-.526.278.063a.253.253 0 0 1-.074.105.164.164 0 0 1-.101.031.208.208 0 0 1-.071-.012.154.154 0 0 1-.057-.036L.008.098a.13.13 0 0 0 .096.04.1.1 0 0 0 .062-.02A.182.182 0 0 0 .213.05l.023-.051-.235-.525h.074l.198.447.198-.447h.07Z" style="fill:#fff;fill-rule:nonzero" transform="matrix(15 0 0 15 159.835 235.55)"/>
	<path d="M.376-.7c.089 0 .159.021.21.064a.217.217 0 0 1 .076.176.213.213 0 0 1-.076.175.316.316 0 0 1-.21.064H.188V0H.114v-.7h.262Zm-.002.414c.069 0 .122-.015.159-.046A.155.155 0 0 0 .588-.46a.16.16 0 0 0-.055-.131.247.247 0 0 0-.159-.045H.188v.35h.186Z" style="fill:#fff;fill-rule:nonzero" transform="matrix(15 0 0 15 171.895 235.55)"/>
	<path d="M.167-.423a.176.176 0 0 1 .075-.08.248.248 0 0 1 .122-.027v.069L.347-.462a.168.168 0 0 0-.13.051.205.205 0 0 0-.047.143V0H.099v-.526h.068v.103Z" style="fill:#fff;fill-rule:nonzero" transform="matrix(15 0 0 15 182.32 235.55)"/>
	<path d="M.314.005A.274.274 0 0 1 .177-.03a.244.244 0 0 1-.096-.095.277.277 0 0 1-.035-.138c0-.051.012-.097.035-.138a.244.244 0 0 1 .096-.095.273.273 0 0 1 .137-.034c.051 0 .096.011.137.034a.244.244 0 0 1 .096.095.277.277 0 0 1 .034.138.277.277 0 0 1-.034.138.244.244 0 0 1-.096.095.274.274 0 0 1-.137.035Zm0-.063a.202.202 0 0 0 .101-.026.178.178 0 0 0 .069-.072.22.22 0 0 0 .025-.107.22.22 0 0 0-.025-.107.187.187 0 0 0-.069-.073.202.202 0 0 0-.101-.025.182.182 0 0 0-.17.098.22.22 0 0 0-.026.107c0 .04.009.076.026.107s.04.056.07.072a.196.196 0 0 0 .1.026Z" style="fill:#fff;fill-rule:nonzero" transform="matrix(15 0 0 15 188.14 235.55)"/>
	<path d="M.317.005a.278.278 0 0 1-.139-.034.242.242 0 0 1-.097-.096.277.277 0 0 1-.035-.138c0-.051.012-.097.035-.138a.24.24 0 0 1 .097-.095.278.278 0 0 1 .139-.034c.045 0 .086.009.122.026a.21.21 0 0 1 .084.078L.47-.39a.163.163 0 0 0-.066-.059.198.198 0 0 0-.087-.019.203.203 0 0 0-.102.025.178.178 0 0 0-.071.073.22.22 0 0 0-.026.107c0 .041.009.076.026.107a.17.17 0 0 0 .071.072c.03.017.064.026.102.026.031 0 .06-.006.087-.019A.16.16 0 0 0 .47-.135l.053.036a.198.198 0 0 1-.085.077.266.266 0 0 1-.121.027Z" style="fill:#fff;fill-rule:nonzero" transform="matrix(15 0 0 15 197.545 235.55)"/>
	<path d="M.557-.241h-.44a.185.185 0 0 0 .063.132.208.208 0 0 0 .144.051.22.22 0 0 0 .09-.018.187.187 0 0 0 .071-.051l.04.046a.232.232 0 0 1-.087.064.292.292 0 0 1-.116.022.288.288 0 0 1-.143-.035.242.242 0 0 1-.098-.095.277.277 0 0 1-.035-.138c0-.051.011-.097.034-.138A.251.251 0 0 1 .303-.53c.049 0 .092.011.131.034a.242.242 0 0 1 .091.094.288.288 0 0 1 .033.139l-.001.022ZM.303-.469a.178.178 0 0 0-.127.048.192.192 0 0 0-.059.127H.49a.196.196 0 0 0-.058-.127.184.184 0 0 0-.129-.048Z" style="fill:#fff;fill-rule:nonzero" transform="matrix(15 0 0 15 205.855 235.55)"/>
	<path d="M.579-.742V0H.511v-.104a.218.218 0 0 1-.084.081.246.246 0 0 1-.119.028.264.264 0 0 1-.134-.034.245.245 0 0 1-.094-.095.278.278 0 0 1-.034-.139c0-.052.011-.098.034-.139a.245.245 0 0 1 .094-.095.274.274 0 0 1 .25-.007.224.224 0 0 1 .084.078v-.316h.071Zm-.265.684a.187.187 0 0 0 .17-.098.22.22 0 0 0 .025-.107.197.197 0 0 0-.095-.18.198.198 0 0 0-.1-.025.182.182 0 0 0-.17.098.22.22 0 0 0-.026.107c0 .04.009.076.026.107s.04.056.07.072a.196.196 0 0 0 .1.026Z" style="fill:#fff;fill-rule:nonzero" transform="matrix(15 0 0 15 214.915 235.55)"/>
	<path d="M.573-.526V0H.505v-.096a.19.19 0 0 1-.077.074.23.23 0 0 1-.112.027.219.219 0 0 1-.162-.058c-.04-.038-.06-.094-.06-.168v-.305h.071v.298c0 .055.014.097.041.126.027.029.066.043.117.043A.172.172 0 0 0 .454-.11a.193.193 0 0 0 .048-.14v-.276h.071Z" style="fill:#fff;fill-rule:nonzero" transform="matrix(15 0 0 15 225.085 235.55)"/>
	<path d="M.167-.423a.176.176 0 0 1 .075-.08.248.248 0 0 1 .122-.027v.069L.347-.462a.168.168 0 0 0-.13.051.205.205 0 0 0-.047.143V0H.099v-.526h.068v.103Z" style="fill:#fff;fill-rule:nonzero" transform="matrix(15 0 0 15 235.18 235.55)"/>
	<path d="M.557-.241h-.44a.185.185 0 0 0 .063.132.208.208 0 0 0 .144.051.22.22 0 0 0 .09-.018.187.187 0 0 0 .071-.051l.04.046a.232.232 0 0 1-.087.064.292.292 0 0 1-.116.022.288.288 0 0 1-.143-.035.242.242 0 0 1-.098-.095.277.277 0 0 1-.035-.138c0-.051.011-.097.034-.138A.251.251 0 0 1 .303-.53c.049 0 .092.011.131.034a.242.242 0 0 1 .091.094.288.288 0 0 1 .033.139l-.001.022ZM.303-.469a.178.178 0 0 0-.127.048.192.192 0 0 0-.059.127H.49a.196.196 0 0 0-.058-.127.184.184 0 0 0-.129-.048Z" style="fill:#fff;fill-rule:nonzero" transform="matrix(15 0 0 15 241 235.55)"/>
	<path d="M.418.006A.376.376 0 0 1 .231-.04a.351.351 0 0 1-.179-.31c0-.067.016-.128.048-.183A.334.334 0 0 1 .231-.66a.382.382 0 0 1 .188-.046c.052 0 .1.009.144.026a.301.301 0 0 1 .112.076l-.047.047A.281.281 0 0 0 .421-.64a.308.308 0 0 0-.151.038.285.285 0 0 0-.145.252.285.285 0 0 0 .145.252.308.308 0 0 0 .151.038.275.275 0 0 0 .207-.084l.047.047a.301.301 0 0 1-.112.076.386.386 0 0 1-.145.027Z" style="fill:#fff;fill-rule:nonzero" transform="matrix(15 0 0 15 253.99 235.55)"/>
	<path d="M.283-.53c.069 0 .121.017.158.051.037.035.055.086.055.153V0H.428v-.082a.161.161 0 0 1-.07.064.253.253 0 0 1-.111.023.216.216 0 0 1-.14-.042.135.135 0 0 1-.052-.111c0-.045.016-.081.049-.108.032-.027.083-.041.154-.041h.167v-.032c0-.045-.013-.08-.038-.104C.362-.456.325-.468.276-.468a.265.265 0 0 0-.175.062L.069-.459a.297.297 0 0 1 .096-.053.383.383 0 0 1 .118-.018Zm-.025.479c.04 0 .074-.009.103-.028a.158.158 0 0 0 .064-.079v-.086H.26c-.09 0-.135.031-.135.094 0 .031.012.055.035.072a.157.157 0 0 0 .098.027Z" style="fill:#fff;fill-rule:nonzero" transform="matrix(15 0 0 15 264.655 235.55)"/>
	<path style="fill:#fff;fill-rule:nonzero" d="M.099-.742H.17V0H.099z" transform="matrix(15 0 0 15 273.505 235.55)"/>
	<path style="fill:#fff;fill-rule:nonzero" d="M.099-.742H.17V0H.099z" transform="matrix(15 0 0 15 277.54 235.55)"/>
	<path d="M.24.005A.38.38 0 0 1 .026-.06l.032-.056a.329.329 0 0 0 .187.059.2.2 0 0 0 .107-.023.07.07 0 0 0 .034-.063.058.058 0 0 0-.019-.046.137.137 0 0 0-.048-.025.769.769 0 0 0-.077-.016.743.743 0 0 1-.103-.025.144.144 0 0 1-.066-.042.116.116 0 0 1-.028-.083A.13.13 0 0 1 .1-.488.248.248 0 0 1 .253-.53c.034 0 .068.004.102.013.034.01.062.021.084.036l-.031.057a.265.265 0 0 0-.155-.045.176.176 0 0 0-.102.024.074.074 0 0 0-.035.063c0 .02.007.036.02.048a.112.112 0 0 0 .048.026.67.67 0 0 0 .08.018.902.902 0 0 1 .101.024.153.153 0 0 1 .065.041.112.112 0 0 1 .027.08.127.127 0 0 1-.057.109.276.276 0 0 1-.16.041Z" style="fill:#fff;fill-rule:nonzero" transform="matrix(15 0 0 15 281.575 235.55)"/>
	<path d="m4.875 168.15 96.4-.2-.1-12.8 32.8 23-32.8 22.8v-13.2l-96.3.8v-20.4Z" style="fill:#fff;fill-rule:nonzero" transform="translate(0 -105.1)"/>
	<g transform="matrix(1 0 0 -1 119 419.9)">
		<clipPath id="a">
			<path d="M-214.125 469.85h329.1v-245.8h-329.1v245.8Zm100-113 96.4.2-.1 12.8 32.8-23-32.8-22.8v13.2l-96.3-.8v20.4Z"/>
		</clipPath>
		<g clip-path="url(#a)">
			<path d="m-114.125 356.85 96.4.2-.1 12.8 32.8-23-32.8-22.8v13.2l-96.3-.8v20.4Zm0 0h0" style="fill:none;fill-rule:nonzero;stroke:#684ef8;stroke-width:8px"/>
		</g>
	</g>
	<path d="m133.975 106.15-96.4-.2.1-12.8-32.8 23 32.8 22.8v-13.2l96.3.8v-20.4Z" style="fill:#fff;fill-rule:nonzero" transform="translate(0 18.9)"/>
	<g transform="matrix(1 0 0 -1 119 543.9)">
		<clipPath id="b">
			<path d="M-214.125 531.85h329.1v-245.8h-329.1v245.8Zm229.1-113-96.4.2.1 12.8-32.8-23 32.8-22.8v13.2l96.3-.8v20.4Z"/>
		</clipPath>
		<g clip-path="url(#b)">
			<path d="m14.975 418.85-96.4.2.1 12.8-32.8-23 32.8-22.8v13.2l96.3-.8v20.4Zm0 0h0" style="fill:none;fill-rule:nonzero;stroke:#684ef8;stroke-width:8px"/>
		</g>
	</g>
</svg>
