<svg width="81" height="96" fill="none" xmlns="http://www.w3.org/2000/svg">
	<path d="M65.337 14.033v.263c0 3.083-1.983 4.428-4.42 3.007-2.438-1.422-4.42-5.074-4.42-8.157v-.262L41.644.224 4.66 29.668V66.92l59.28 2.433 16.27-46.66-14.873-8.66Z" fill="#362B90"/>
	<path d="M24.057 38.09v.262c0 3.084-1.982 4.429-4.42 3.007-2.437-1.421-4.42-5.073-4.42-8.156v-.263L.365 24.28v48.656l38.566 22.469V46.75l-14.874-8.66Z" fill="#4946DD"/>
	<path d="m41.697.222 14.872 8.58L15.283 32.86.413 24.28 41.697.222Z" fill="#4038B7"/>
	<path d="m65.338 14.058 14.871 8.58-41.285 24.058-14.871-8.58 41.285-24.058Z" fill="#4038B7"/>
	<path d="m80.205 71.254.002-48.613-41.285 24.057-.002 48.614 41.285-24.058Z" fill="#362B90"/>
</svg>
