<svg version="1.1" id="Layer_1" xmlns="http://www.w3.org/2000/svg" x="0" y="0" viewBox="0 0 500 112.1" style="enable-background:new 0 0 500 112.1" xml:space="preserve">
	<style>
		.st0{fill:#c22e4a}
	</style>
	<switch>
		<g>
			<path d="M295.2 13.1h-31.6l-57.1 92.7h34.1l7.6-13.7h28.7l3 13.7h31.6l-16.3-92.7zm-34.7 55.3L272.9 46l2.5 22.4h-14.9z"/>
			<path d="M407.4 39.2c0-18.1-15.9-26.2-30.6-26.2h-40.9l-16.1 92.7h29.3l5.6-33.9h2.9l13.1 33.9h34.4S387.5 69.3 387 68.3c8.6-2.8 20.4-11 20.4-29.1zm-41.6 13h-7.4l2.8-14.8h8.4c5.1 0 7 4.7 7 7.4.1 2.7-2.5 7.4-10.8 7.4z"/>
			<path d="M467.2 13.1H428l-16.7 92.7h30.8s1.3-7.7 5.6-29.8c38.8 2.1 52.3-13.2 52.3-32.1s-13.1-30.8-32.8-30.8zm-8.4 39.1h-7.4l2.8-14.8h8.4c5.1 0 7 4.7 7 7.4s-2.5 7.4-10.8 7.4z"/>
			<path d="M108.8 46.2c3 3.3 10.1 8.6 17.8 14.1l-.4-47.2H93.9l1.7 21.6c5.8 4 10.2 8.2 13.2 11.5z"/>
			<path d="M202.5 13.1 181 65.6l-1.2-52.5h-31.3l-20.3 48.3c6.6 4.6 13.4 9.1 18.5 12.5l9.5-20.2 3.3 52.1h30.6l44.1-92.7h-31.7z"/>
			<path d="M137.1 85.2c-21.3 0-31.7 5.5-36.6 9.8l.9 10.8h30.4l9.7-20.5c-1.6-.1-3-.1-4.4-.1z"/>
			<path class="st0" d="M152.9 82.3S114.6 58 106.1 48.7 82.8 28.3 63 26.2 29.7 19.7 20.1 0c-8.6 10.3 0 28.5 0 28.5S8.5 26.9 0 20c-.7 20.2 14.5 39.5 32.3 42.6s35.4-3.6 40 6.1S71 86.3 63 86.4c-8.1.1-18.4-2.6-19.3 11.6s15.3 14.1 23.6 14.1 21.1-9.1 28.4-17.5c7.2-8.4 24-15.7 57.2-12.3z"/>
			<path class="st0" d="M62.5 65.2c-5.3 0-9.6 4.3-9.6 9.6s4.3 9.6 9.6 9.6 9.6-4.3 9.6-9.6-4.3-9.6-9.6-9.6zm0 17.3c-4.2 0-7.7-3.4-7.7-7.7 0-4.2 3.4-7.7 7.7-7.7s7.7 3.4 7.7 7.7c0 4.3-3.5 7.7-7.7 7.7z"/>
			<circle class="st0" cx="62.5" cy="74.9" r="5.5"/>
		</g>
	</switch>
</svg>
