<svg id="Layer_1" data-name="Layer 1" xmlns="http://www.w3.org/2000/svg" viewBox="0 0 210.251 255.627">
	<defs>
		<style>
			.cls-1{fill:#654fef}.cls-2{fill:#fff}
		</style>
	</defs>
	<path class="cls-1" d="M106.39 64.68a6.17 6.17 0 0 0 6.118-6.293 6.138 6.138 0 0 0-12.275.119 6.184 6.184 0 0 0 6.158 6.174Z"/>
	<path class="cls-1" d="M70.282 161.713a6.168 6.168 0 0 0 .078 12.335 6.168 6.168 0 1 0-.078-12.335Z"/>
	<path class="cls-1" d="M135.693 168.033a6.248 6.248 0 0 0 6.338 6.013 6.161 6.161 0 1 0-6.338-6.013Z"/>
	<path class="cls-1" d="M127.42 110.503a2.087 2.087 0 0 1-1.777-2.414 7.003 7.003 0 0 0-9.078-6.683 2.678 2.678 0 0 1-2.725-.544 12.508 12.508 0 0 0-10.413-2.528 12.824 12.824 0 0 0-10.194 10.2c-.334 1.697-1.192 2.242-2.844 1.861a9.89 9.89 0 0 0-4.725-.016 9.753 9.753 0 0 0-7.353 10.308 9.65 9.65 0 0 0 9.774 8.801c1.445.003 2.889.043 4.335.03 5.421-.047 10.844-.019 16.266-.02h7.837c2.64 0 5.28.004 7.921-.005a10.525 10.525 0 0 0 1.784-.096 9.702 9.702 0 0 0 1.193-18.894Z"/>
	<path class="cls-1" d="M140.424 111.882a1.958 1.958 0 0 1-2.146-.338 1.84 1.84 0 0 1-.57-1.858 2.143 2.143 0 0 1 1.543-1.548l7.351-2.892 5.157-2.029-43.444-32.696v12.66c-.001 1.334.021 2.67-.02 4.002a1.935 1.935 0 0 1-3.71.674 3.654 3.654 0 0 1-.173-1.51c-.005-5.053.006-10.107.005-15.16 0-.199.146-.457-.199-.625L59.382 103.09c4.264 1.731 8.385 3.4 12.501 5.08a1.976 1.976 0 1 1-1.448 3.637c-2.39-.967-4.773-1.951-7.16-2.923-1.508-.614-3.02-1.218-4.686-1.89l16.833 50.142c.385-.448.68-.787.971-1.128l11.674-13.654c.93-1.087 2.054-1.257 2.974-.478a2.005 2.005 0 0 1 .012 3.007l-9.856 11.51c-.741.868-1.473 1.743-2.307 2.73l53.89.64c-.342-.505-.577-.856-.817-1.204l-9.56-13.869a2.008 2.008 0 0 1 .339-2.928 1.983 1.983 0 0 1 2.913.75q3.688 5.363 7.388 10.72c.927 1.344 1.856 2.686 2.883 4.17l16.657-50.299c-1.634.638-3.103 1.208-4.57 1.785q-3.796 1.493-7.59 2.994Zm-2.222 9.814a13.643 13.643 0 0 1-11.28 11.532 11.862 11.862 0 0 1-1.945.164c-3.066.007-6.132.002-9.197.002h-9.112v.003c-5.733 0-11.467-.061-17.2.022-3.719.054-7.141-.637-10.085-3.06a13.492 13.492 0 0 1-4.46-14.324c1.735-5.554 5.59-8.788 11.331-9.72a14.604 14.604 0 0 1 2.804-.044c.486.017.715-.067.895-.594a16.737 16.737 0 0 1 16.453-11.482 15.9 15.9 0 0 1 8.71 2.778 2.025 2.025 0 0 0 1.649.39 10.903 10.903 0 0 1 12.591 8.725 1.645 1.645 0 0 0 1.077 1.398 13.605 13.605 0 0 1 7.769 14.21Z"/>
	<path class="cls-1" d="M199.044 11.71q-35.697.104-71.395.048a36.789 36.789 0 0 1-1.315 7.997 21.793 21.793 0 0 1-42.44-6.517c-.012-.494-.027-.987-.04-1.48H10.738c-.776.412-.348 1.127-.348 1.67q-.036 94.36-.023 188.719h166.83c7.36 0 14.722.01 22.083-.023.481-.002 1.15.42 1.484-.348q0-94.108.036-188.215c0-1.418-.164-1.855-1.756-1.85Zm-27.349 96.321a10.122 10.122 0 0 1-15.469.832c-.297.214-.32.573-.42.87q-2.567 7.64-5.109 15.29-5.31 16.082-10.607 32.17c-.218.66-.162.794.58.72a9.905 9.905 0 0 1 11.11 8.463 9.615 9.615 0 0 1-2.23 7.909 10.033 10.033 0 0 1-17.256-9.546c.103-.32.22-.634.373-1.072l-53.445-.638c1.64 3.564 1.64 7.023-.47 10.33a9.707 9.707 0 0 1-6.686 4.43 10.097 10.097 0 1 1-.54-19.978l-16.514-49.195a10.345 10.345 0 0 1-5.351 3.197 10.055 10.055 0 1 1-4.002-19.703 9.986 9.986 0 0 1 11.406 7.07c.214.712.4.452.76.192q10.78-7.817 21.57-15.623c4-2.89 8.022-5.751 12.02-8.646 3.396-2.46 6.773-4.947 10.158-7.425a1.067 1.067 0 0 0 .157-.182 10.177 10.177 0 0 1-4.911-12.138 10.07 10.07 0 0 1 19.252.486 10.165 10.165 0 0 1-5.199 11.706l42.905 32.292a10.038 10.038 0 0 1 7.158-7.518 9.604 9.604 0 0 1 7.935 1.097 10.047 10.047 0 0 1 2.825 14.61Z"/>
	<path class="cls-1" d="M47.415 95.862a6.144 6.144 0 1 0 6.139 6.149 6.142 6.142 0 0 0-6.139-6.149Z"/>
	<path class="cls-1" d="M163.681 95.864a6.145 6.145 0 1 0 6.09 6.2 6.099 6.099 0 0 0-6.09-6.2Z"/>
	<path class="cls-2" d="M168.87 93.42a9.604 9.604 0 0 0-7.935-1.096 10.038 10.038 0 0 0-7.158 7.518L110.872 67.55a10.165 10.165 0 0 0 5.2-11.706 10.07 10.07 0 0 0-19.253-.486 10.177 10.177 0 0 0 4.91 12.138 1.067 1.067 0 0 1-.156.182c-3.385 2.478-6.762 4.966-10.159 7.425-3.997 2.895-8.019 5.756-12.019 8.647q-10.793 7.8-21.57 15.622c-.36.26-.546.52-.76-.193a10.054 10.054 0 0 0-19.494 4.864 10.103 10.103 0 0 0 12.09 7.77 10.345 10.345 0 0 0 5.351-3.197l16.514 49.195a10.097 10.097 0 1 0 .54 19.978 9.707 9.707 0 0 0 6.687-4.43c2.11-3.307 2.109-6.766.47-10.33l53.444.638c-.153.438-.27.753-.373 1.072a10.033 10.033 0 0 0 17.255 9.546 9.615 9.615 0 0 0 2.232-7.909 9.905 9.905 0 0 0-11.111-8.463c-.743.074-.798-.06-.58-.72q5.32-16.08 10.607-32.17 2.528-7.654 5.11-15.29c.1-.297.122-.656.42-.87A10.074 10.074 0 1 0 168.87 93.42ZM47.398 108.152a6.144 6.144 0 0 1 .017-12.289 6.144 6.144 0 1 1-.017 12.289Zm52.835-49.645a6.138 6.138 0 0 1 12.275-.119 6.138 6.138 0 1 1-12.275.119ZM70.36 174.048a6.168 6.168 0 1 1 6.144-6.208 6.191 6.191 0 0 1-6.144 6.208Zm71.264-12.318a6.161 6.161 0 0 1 .407 12.316 6.248 6.248 0 0 1-6.338-6.013 6.182 6.182 0 0 1 5.93-6.303Zm-5.698-4.327c-1.027-1.485-1.956-2.827-2.883-4.171q-3.696-5.36-7.388-10.72a1.983 1.983 0 0 0-2.913-.75 2.008 2.008 0 0 0-.34 2.928q4.772 6.94 9.561 13.87c.24.347.475.698.818 1.203l-53.89-.64c.833-.987 1.565-1.862 2.306-2.73q4.926-5.757 9.856-11.51a2.005 2.005 0 0 0-.012-3.007c-.92-.78-2.044-.609-2.974.478q-5.842 6.823-11.674 13.654l-.97 1.128c-5.62-16.736-11.197-33.352-16.834-50.142 1.667.672 3.178 1.276 4.685 1.89 2.388.972 4.771 1.956 7.16 2.923a1.976 1.976 0 1 0 1.45-3.636c-4.117-1.682-8.238-3.35-12.502-5.081l44.836-32.528c.345.168.198.426.199.624.001 5.054-.01 10.108-.005 15.161a3.654 3.654 0 0 0 .172 1.51 1.935 1.935 0 0 0 3.71-.674c.042-1.333.02-2.668.02-4.002.002-4.142 0-8.283 0-12.66l43.445 32.696-5.157 2.03-7.35 2.89a2.143 2.143 0 0 0-1.545 1.549 1.84 1.84 0 0 0 .571 1.858 1.958 1.958 0 0 0 2.146.338q3.793-1.503 7.59-2.994c1.466-.577 2.935-1.147 4.569-1.785l-16.657 50.3Zm27.805-49.251a6.145 6.145 0 1 1-.05-12.288 6.145 6.145 0 0 1 .05 12.288Z"/>
	<path class="cls-2" d="M130.433 107.486a1.645 1.645 0 0 1-1.077-1.398 10.903 10.903 0 0 0-12.591-8.724 2.025 2.025 0 0 1-1.65-.39 15.9 15.9 0 0 0-8.709-2.78 16.737 16.737 0 0 0-16.453 11.483c-.18.527-.41.61-.895.594a14.604 14.604 0 0 0-2.804.044c-5.74.932-9.596 4.166-11.332 9.72a13.492 13.492 0 0 0 4.46 14.325c2.945 2.422 6.367 3.113 10.087 3.059 5.732-.083 11.466-.022 17.199-.022v-.003h9.112c3.065 0 6.131.005 9.197-.002a11.862 11.862 0 0 0 1.946-.164 13.581 13.581 0 0 0 3.51-25.742Zm-4.205 21.911a10.525 10.525 0 0 1-1.784.096c-2.64.01-5.28.004-7.921.005h-7.837c-5.422.001-10.845-.027-16.266.02-1.446.013-2.89-.027-4.335-.03a9.65 9.65 0 0 1-9.774-8.801 9.753 9.753 0 0 1 7.353-10.308 9.89 9.89 0 0 1 4.726.016c1.651.381 2.51-.164 2.843-1.86a12.824 12.824 0 0 1 10.194-10.201 12.508 12.508 0 0 1 10.413 2.528 2.678 2.678 0 0 0 2.725.544 7.003 7.003 0 0 1 9.078 6.683 2.087 2.087 0 0 0 1.778 2.414 9.702 9.702 0 0 1-1.193 18.894Z"/>
	<path class="cls-1" d="M12.707 241.232 9.6 218.542h3.72c.525 4.897 1.225 12.424 1.398 16.71h.064c.52-4.805 1.469-11.74 2.112-16.71h3.404c.674 5.139 1.618 11.546 2.079 16.55h.072c.267-4.43.931-11.41 1.456-16.55h3.537l-3.354 22.69H20.52c-.64-5.088-1.53-11.14-2.014-15.809h-.064c-.527 4.768-1.517 10.918-2.194 15.809Z"/>
	<path class="cls-1" d="M37.733 237.632c0 1.107.004 2.93.067 3.6h-3.196c-.071-.33-.195-1.04-.225-1.29a3.015 3.015 0 0 1-2.9 1.561c-2.643 0-3.71-2.448-3.71-5.101v-.306c0-4.332 2.918-5.484 6.087-5.484h.403v-2.244c0-1.378-.164-2.152-1.23-2.152-1.037 0-1.277.809-1.277 1.9v.287h-3.44v-.226c0-2.545.977-4.798 4.84-4.798 3.394 0 4.581 1.872 4.581 4.712Zm-3.41-4.37h-.582c-1.597 0-2.649.604-2.649 2.796v.275c0 1.24.45 2.123 1.542 2.123 1.171 0 1.689-.808 1.689-3.18Z"/>
	<path class="cls-1" d="M43.303 235.729v.802c0 1.084.306 2.024 1.426 2.024.95 0 1.357-.58 1.357-1.75 0-1.136-.32-1.921-2.45-3.293-2.418-1.554-3.582-2.83-3.582-5.344 0-2.973 1.597-4.789 4.657-4.789 3.324 0 4.644 1.832 4.644 5.055v.703h-3.38v-1.084c0-1.224-.41-1.726-1.242-1.726-.863 0-1.205.627-1.205 1.556 0 .984.33 1.433 1.929 2.454 3.077 1.957 4.162 3.202 4.162 6.081 0 3.365-1.689 5.085-4.992 5.085-3.952 0-4.857-2.482-4.857-4.993v-.781Z"/>
	<path class="cls-1" d="M51.677 228.747c0-3.499 0-4.303-.034-5.096h3.342a10.778 10.778 0 0 1 .128 1.548 3.274 3.274 0 0 1 3.089-1.82 2.682 2.682 0 0 1 2.816 1.897 3.685 3.685 0 0 1 3.378-1.897c1.908 0 3.47.962 3.47 4.398v13.455h-3.498v-12.817c0-1.224-.323-1.9-1.308-1.9-1.231 0-1.523.954-1.523 2.688v12.029h-3.53V228.5c0-1.601-.475-1.985-1.315-1.985-1.249 0-1.515.962-1.515 2.64v12.077h-3.5Z"/>
	<path class="cls-1" d="M79.02 230.867h-4.987v7.147h5.748l-.444 3.218h-8.804v-22.69h8.763v3.248h-5.263v5.859h4.987Z"/>
	<path class="cls-1" d="M91.386 217.553v18.804c0 2.678 0 3.92.035 4.875h-3.342a18.406 18.406 0 0 1-.128-1.673 3.106 3.106 0 0 1-3.1 1.944c-3.158 0-3.768-2.52-3.768-5.927v-6.883c0-3.057 1.167-5.314 4.035-5.314a2.988 2.988 0 0 1 2.77 1.24v-7.066Zm-6.8 11.357v6.95c0 1.623.384 2.507 1.592 2.507 1.431 0 1.71-1.28 1.71-3.289v-5.41c0-1.902-.174-3.153-1.668-3.153-1.215 0-1.633.923-1.633 2.395Z"/>
	<path class="cls-1" d="M104.118 240.251c0 3.899-.378 7.147-5.384 7.147-4.185 0-4.89-2.627-4.89-4.577v-.072h3.503v.076a1.532 1.532 0 0 0 1.575 1.683c1.452 0 1.697-1.114 1.697-3.331v-1.919a2.943 2.943 0 0 1-2.896 1.615c-3.204 0-3.905-2.491-3.905-5.51v-6.64c0-2.39.9-5.344 4.274-5.344 1.848 0 2.608.861 2.902 1.821a9.111 9.111 0 0 1 .16-1.55h3.031c-.033 1.085-.067 2.54-.067 4.393Zm-6.796-11.315v6.172c0 1.786.418 2.688 1.554 2.688 1.493 0 1.747-1.175 1.747-3.33v-5.15c0-1.497-.153-2.801-1.566-2.801-1.12 0-1.735.718-1.735 2.42Z"/>
	<path class="cls-1" d="M109.963 233.372v2.582c0 1.359.314 2.6 1.642 2.6 1.395 0 1.566-1.247 1.566-2.51v-.086h3.41v.08c0 1.846-.394 5.465-4.894 5.465-4.477 0-5.134-2.773-5.134-6.327v-5.762c0-2.404.758-6.035 5.117-6.035 3.753 0 4.975 2.531 4.975 6.01v3.983Zm3.332-2.74v-1.8c0-1.626-.375-2.505-1.63-2.505-1.127 0-1.672.8-1.672 2.51v1.795Z"/>
	<path class="cls-1" d="M122.524 231.086v10.146h-3.499v-22.69h4.847c3.452 0 5.49 1.383 5.49 5.468v.863c0 3.488-1.43 4.374-2.309 4.734 1.323.62 2.08 1.575 2.08 4.654a62.926 62.926 0 0 0 .207 6.97h-3.379a48.79 48.79 0 0 1-.238-6.745c0-2.766-.355-3.4-2.387-3.4Zm0-2.89h.803c1.851 0 2.532-.698 2.532-3.165v-.778c0-1.754-.362-2.821-2.346-2.821h-.989Z"/>
	<path class="cls-1" d="M141.76 236.097c0 2.586 0 4.212.034 5.135h-3.342a12.888 12.888 0 0 1-.127-1.667 3.108 3.108 0 0 1-3.28 1.938c-1.638 0-3.497-.784-3.497-4.574V223.65h3.5v12.37c0 1.616.466 2.35 1.516 2.35 1.14 0 1.696-.718 1.696-3.006v-11.714h3.5Z"/>
	<path class="cls-1" d="M144.695 229.074c0-3.572 0-4.626-.034-5.423h3.342a11.825 11.825 0 0 1 .127 1.598 3.313 3.313 0 0 1 3.24-1.87c2.14 0 3.612 1.298 3.612 4.62v13.233h-3.499v-12.573c0-1.587-.547-2.144-1.512-2.144-1.246 0-1.776.662-1.776 3.05v11.667h-3.5Z"/>
	<path class="cls-1" d="M156.367 223.65h1.867v-4.22h3.495v4.22h2.205v3.069h-2.205v10.395c0 .831.114 1.497 1.175 1.497a3.769 3.769 0 0 0 .954-.103v2.638a5.373 5.373 0 0 1-2.135.35c-2.197 0-3.489-.71-3.489-3.755V226.72h-1.867Z"/>
	<path class="cls-1" d="M165.75 223.65h3.5v17.582h-3.5Zm.03-6.097h3.5v3.74h-3.5Z"/>
	<path class="cls-1" d="M172.203 228.747c0-3.499 0-4.303-.034-5.096h3.341a10.778 10.778 0 0 1 .128 1.548 3.274 3.274 0 0 1 3.09-1.82 2.682 2.682 0 0 1 2.816 1.897 3.685 3.685 0 0 1 3.378-1.897c1.908 0 3.47.962 3.47 4.398v13.455h-3.499v-12.817c0-1.224-.323-1.9-1.307-1.9-1.232 0-1.524.954-1.524 2.688v12.029h-3.53V228.5c0-1.601-.475-1.985-1.315-1.985-1.249 0-1.514.962-1.514 2.64v12.077h-3.5Z"/>
	<path class="cls-1" d="M194.253 233.372v2.582c0 1.359.313 2.6 1.641 2.6 1.395 0 1.567-1.247 1.567-2.51v-.086h3.41v.08c0 1.846-.395 5.465-4.895 5.465-4.477 0-5.134-2.773-5.134-6.327v-5.762c0-2.404.758-6.035 5.117-6.035 3.754 0 4.975 2.531 4.975 6.01v3.983Zm3.332-2.74v-1.8c0-1.626-.375-2.505-1.63-2.505-1.128 0-1.673.8-1.673 2.51v1.795Z"/>
</svg>
