<svg width="147" height="43" fill="none" xmlns="http://www.w3.org/2000/svg">
	<path d="M48 12.592c1.012 0 1.973-.007 2.932.013.086.002.214.175.246.29.344 1.24.672 2.486 1.006 3.73.85 3.172 1.703 6.343 2.557 9.514.035.13.076.26.142.485.066-.178.105-.265.132-.357 1.276-4.389 2.55-8.78 3.827-13.17.178-.608.07-.497.674-.503.56-.007 1.12-.005 1.68 0 .607.006.492-.09.658.482.798 2.747 1.588 5.498 2.382 8.247.483 1.674.965 3.347 1.45 5.022.02.07.047.14.099.292.095-.324.174-.575.242-.829 1.156-4.303 2.311-8.606 3.462-12.911.056-.21.13-.317.378-.312.835.018 1.67.006 2.504.007.083 0 .166.01.29.02-.023.117-.036.218-.064.314-1.634 5.782-3.27 11.562-4.895 17.346-.081.288-.2.378-.498.37a69.787 69.787 0 0 0-2.726-.002c-.246.004-.337-.077-.406-.316-1.184-4.12-2.38-8.237-3.576-12.353a.795.795 0 0 0-.181-.354c-.133.448-.269.895-.4 1.344-1.107 3.801-2.215 7.602-3.314 11.406-.061.212-.159.277-.377.274-.951-.012-1.903-.012-2.853 0-.226.003-.308-.08-.367-.286-1.641-5.814-3.286-11.625-4.93-17.437-.024-.088-.041-.18-.074-.325Z" fill="#231044"/>
	<path d="M101.39 17.77h2.744v1.385l.066.045c.911-1.272 2.174-1.79 3.684-1.777 1.541.013 2.749.645 3.575 1.983.053-.042.091-.061.114-.093.919-1.314 2.218-1.872 3.781-1.885 1.732-.014 3.164.593 4.124 2.095.607.946.808 2.011.812 3.118.008 2.568 0 5.136.009 7.705.001.247-.091.299-.316.295a45.757 45.757 0 0 0-2.125.003c-.278.007-.357-.069-.356-.352.011-2.43.014-4.862 0-7.292a4.93 4.93 0 0 0-.156-1.283c-.315-1.125-1.21-1.734-2.409-1.7-1.393.04-2.357.855-2.613 2.257a8.031 8.031 0 0 0-.112 1.386c-.011 2.189-.005 4.376-.005 6.564v.39c-.131.01-.222.022-.315.022-.707.001-1.417-.012-2.124.008-.286.007-.356-.085-.354-.36.01-2.398.011-4.798 0-7.197-.003-.44-.022-.895-.127-1.32-.363-1.452-1.784-2.124-3.286-1.578-1.041.378-1.564 1.182-1.754 2.223a7.27 7.27 0 0 0-.095 1.261 763.08 763.08 0 0 0 .001 6.595c.001.283-.066.386-.368.377-.79-.021-1.58-.008-2.394-.008l-.001-12.866Z" fill="#231044"/>
	<path d="M83.482 19.49v-1.717h2.75v12.838h-2.747v-1.765c-.107.1-.163.14-.207.194-1.16 1.4-2.683 1.958-4.46 1.916-3.178-.076-5.723-2.549-6.162-5.657-.348-2.466.34-4.6 2.195-6.308 2.116-1.947 5.596-2.11 7.728-.363.307.251.575.547.903.861Zm-4.063 8.82c2.332-.004 4.063-1.76 4.064-4.12.002-2.351-1.743-4.118-4.067-4.12-2.34-.003-4.092 1.774-4.08 4.138.015 2.362 1.75 4.105 4.083 4.102Z" fill="#231044"/>
	<path d="M125.489 25.382c.361 1.44 1.184 2.405 2.56 2.794 1.868.53 3.559.254 4.906-1.342l2.313 1.35c-.404.429-.746.855-1.151 1.211-1.13.996-2.482 1.462-3.97 1.547-1.733.099-3.371-.217-4.821-1.228-1.483-1.034-2.341-2.475-2.633-4.243-.329-1.984.024-3.838 1.242-5.47 1.056-1.414 2.497-2.208 4.235-2.482 1.382-.218 2.724-.102 3.99.52 1.938.95 3.052 2.545 3.518 4.62.178.8.196 1.61.104 2.427-.03.259-.132.3-.358.3-3.172-.007-6.343-.004-9.514-.004h-.421Zm7.483-2.298c.089-1.537-1.615-3.08-3.472-3.142-2.403-.078-3.775 1.53-3.987 3.142h7.459Z" fill="#231044"/>
	<path d="M90.993 26.584c.084.166.152.318.237.46.616 1.031 1.586 1.39 2.719 1.352.464-.015.958-.103 1.377-.29.93-.415 1-1.57.115-2.06-.593-.327-1.269-.504-1.915-.732-.657-.233-1.334-.409-1.978-.67-1.653-.669-2.45-1.742-2.426-3.28.025-1.68.865-2.87 2.4-3.478 2.103-.832 4.123-.642 5.943.794.467.37.829.837 1.123 1.417l-2.315 1.3c-.069-.106-.127-.19-.18-.277-.679-1.11-2.338-1.54-3.475-.898-.857.484-.922 1.528-.072 2.015.531.305 1.147.47 1.733.676.767.268 1.561.465 2.31.774 2.331.964 3.05 3.669 1.5 5.608-.676.848-1.608 1.284-2.65 1.497-1.507.308-2.987.234-4.406-.404-1.006-.452-1.766-1.179-2.295-2.15-.114-.21-.1-.323.124-.446.63-.345 1.245-.716 1.867-1.077.08-.044.166-.081.264-.13Z" fill="#231044"/>
	<path d="M138.3 30.635v-12.86h2.756v1.938c.884-1.52 2.223-2.163 3.944-2.19v3c-.159 0-.322-.007-.486.002-1.134.063-2.136.405-2.829 1.373-.412.576-.6 1.237-.606 1.936-.018 2.124-.013 4.246-.018 6.37-.001.432-.001.432-.425.432l-2.336-.001Z" fill="#231044"/>
	<path d="M11.75 16.8v.119c0 1.386-.899 1.99-2.005 1.351-1.106-.639-2.006-2.28-2.006-3.667v-.118L1 10.592v21.875l17.5 10.102V20.694L11.75 16.8Z" fill="#4946DD"/>
	<path d="M20.5 11.752v.118c0 1.386-.899 1.99-2.005 1.352-1.106-.64-2.006-2.281-2.006-3.667v-.118L9.75 5.548v7.826l10.716 6.19v14.048l6.784 3.918V15.655l-6.75-3.903Z" fill="#4946DD"/>
	<path d="M29.25 6.709v.118c0 1.386-.899 1.99-2.005 1.351-1.106-.639-2.006-2.28-2.006-3.667v-.118L18.5.5v7.826l10.716 6.189v14.049L36 32.482V10.607l-6.75-3.898Z" fill="#4946DD"/>
</svg>
