<svg version="1.1" id="Layer_1" xmlns="http://www.w3.org/2000/svg" xmlns:xlink="http://www.w3.org/1999/xlink" x="0" y="0" viewBox="0 0 359 291" style="enable-background:new 0 0 359 291" xml:space="preserve">
	<style>
		.st37{fill:#32324b}.st37,.st38,.st39{clip-path:url(#SVGID_4_)}.st38{fill:#00d2ff}.st39{fill:#ff4b19}
	</style>
	<defs>
		<path id="SVGID_1_" d="M-28-10h413v309.8H-28z"/>
	</defs>
	<clipPath id="SVGID_2_">
		<use xlink:href="#SVGID_1_" style="overflow:visible"/>
	</clipPath>
	<path style="clip-path:url(#SVGID_2_);fill:#32324b" d="m42 273.2 6.3-23.8h8.6l-9.5 33.1h-10l-5.6-22.3-5.6 22.3H16.1l-9.4-33.1h8.5l6.4 23.8 6.3-23.8h7.8z"/>
	<g style="clip-path:url(#SVGID_2_)">
		<defs>
			<path id="SVGID_3_" d="M-28-10h413v309.8H-28z"/>
		</defs>
		<clipPath id="SVGID_4_">
			<use xlink:href="#SVGID_3_" style="overflow:visible"/>
		</clipPath>
		<path class="st37" d="M88.3 271.7c-1 6.6-6 11.3-14.7 11.3-9.2 0-16.1-5.6-16.1-16.8 0-11.3 7.1-17.2 16.1-17.2 10 0 15.2 7.3 15.2 17.1v1.8H65.9c0 3.7 1.5 8.3 7.5 8.3 3.3 0 5.9-1.6 6.6-4.7l8.3.2zm-8.2-9.7c-.3-4.6-3.3-6.3-6.6-6.3-3.9 0-6.8 2.4-7.3 6.3h13.9z"/>
		<path class="st37" d="M113.2 261.1V260c0-2.6-1.1-4.3-6-4.3-6.1 0-6.3 3.4-6.3 4.5H93c0-4.9 2.1-11.2 14.4-11.2 11.8 0 13.9 5.9 13.9 10.6v18.2c0 1.3.1 2.4.2 3.3l.2 1.4h-8.3v-3.3c-2.4 2.4-5.6 3.7-10.3 3.7-6.5 0-11.5-3.8-11.5-10.4 0-7.6 7.2-9.2 10.1-9.7l11.5-1.7zm0 6.2-3.2.5c-1.8.3-3.9.6-5.1.8-1.4.2-2.6.5-3.5 1.3-.8.7-1.3 1.6-1.3 2.7 0 1 .4 4 4.9 4 2.7 0 5-1 6.3-2.2 1.6-1.6 1.9-3.7 1.9-5.3v-1.8z"/>
		<path class="st37" d="M144.8 282.5h-11.1l-10.9-33.1h9l7.6 25.3 7.7-25.3h8.7z"/>
		<path class="st37" d="M186.9 271.7c-1 6.6-6 11.3-14.7 11.3-9.2 0-16.1-5.6-16.1-16.8 0-11.3 7.1-17.2 16.1-17.2 10 0 15.2 7.3 15.2 17.1v1.8h-22.8c0 3.7 1.5 8.3 7.5 8.3 3.3 0 5.9-1.6 6.6-4.7l8.2.2zm-8.2-9.7c-.3-4.6-3.3-6.3-6.6-6.3-3.9 0-6.8 2.4-7.3 6.3h13.9z"/>
		<path class="st37" d="m199.1 282.5-9.6-32.2h5.2l7.5 27.3 7.6-27.3h5.6l7.6 27.3 7.6-27.3h5l-9.7 32.2h-6l-7.4-26.7-7.4 26.7z"/>
		<path class="st37" d="M252.3 283c-8.8 0-14.8-5.6-14.8-16.6 0-10.9 6-16.6 14.8-16.6 8.7 0 14.7 5.6 14.7 16.6 0 11.1-6 16.6-14.7 16.6m0-4.2c5.6 0 9.7-3.4 9.7-12.4 0-8.9-4.1-12.4-9.7-12.4s-9.7 3.4-9.7 12.4c-.1 9 4 12.4 9.7 12.4"/>
		<path class="st37" d="M287.2 255.3c-5.8 0-9.8 2-9.8 9.6v17.6h-5v-32.3h4.9v5.6c2.1-4.1 6.4-5.6 9.8-5.6h2.3v5.1h-2.2z"/>
		<path class="st37" d="m322.1 250.3-11.7 11.9 12.3 20.3h-5.8l-10-16.8-7.7 8.1v8.7h-4.9v-44.7h4.9v29.7l16.8-17.2z"/>
		<path class="st37" d="M345.1 259.1c-.3-3.9-3.4-5.1-7.4-5.1-3.4 0-7.7 1.1-7.7 4.9 0 8.2 21.1.7 21.1 13.8 0 4.4-2.5 10.2-13.8 10.2-8.6 0-12.8-4.4-12.9-10.3h5.4c.1 3.6 2.4 6.1 8.1 6.1 6.6 0 8.2-2.8 8.2-5.7 0-6.1-11.2-3.5-17.3-6.9-2.2-1.3-3.8-3.3-3.8-6.9 0-5.3 5-9.4 12.8-9.4 9.6 0 12.4 5.6 12.6 9.2h-5.3z"/>
		<path class="st37" d="m139.3 112.9 97-86.6c-7.7-6.1-16.3-11-25.7-14.4l-71.3 63.7v37.3z"/>
		<path class="st37" d="m111.4 100.4-26.3 23.5c2.4 9.7 6.3 18.9 11.4 27.2l14.9-13.3v-37.4z"/>
		<path class="st38" d="M191.1 29.2V7c-4.4-.6-9-1-13.6-1-4.8 0-9.6.4-14.2 1.1v47.1l27.8-25z"/>
		<path class="st38" d="M191.1 160.1V66.6l-27.9 24.9v103.7c4.6.7 9.4 1.1 14.2 1.1 5.7 0 11.2-.5 16.6-1.5l74.6-66.6c2.5-8.6 3.9-17.6 3.9-27 0-4.4-.3-8.8-.9-13l-80.5 71.9z"/>
		<path class="st39" d="m191.1 132.6 74.7-66.8c-3.6-8.9-8.4-17.2-14.4-24.5L191 95.2v37.4z"/>
		<path class="st39" d="m163.3 120.2-24 21.4V14c-10.4 4.6-19.8 10.9-27.9 18.7v136.8c6.3 6.1 13.4 11.3 21.1 15.5l30.7-27.4v-37.4z"/>
	</g>
</svg>
