<svg xmlns="http://www.w3.org/2000/svg" xmlns:xlink="http://www.w3.org/1999/xlink" contentScriptType="text/ecmascript" width="210" height="210" version="1.0">
	<defs>
		<path d="M22.219 0c-.824-2.113-1.7-4.523-2.625-7.234a112.914 112.914 0 0 1-2.532-8.47 127.492 127.492 0 0 1-2.5 8.47A162.445 162.445 0 0 1 11.97 0H8.406c-1.355-3.02-2.68-6.46-3.969-10.328-1.292-3.875-2.507-8.055-3.64-12.547h4.39c.29 1.387.641 2.887 1.047 4.5.414 1.605.848 3.215 1.297 4.828.457 1.617.938 3.172 1.438 4.672.5 1.492.969 2.793 1.406 3.906a98.59 98.59 0 0 0 1.469-4.375c.488-1.539.953-3.094 1.39-4.656.446-1.57.868-3.113 1.266-4.625.395-1.508.738-2.926 1.031-4.25h3.375c.27 1.324.594 2.742.969 4.25.383 1.512.797 3.055 1.234 4.625a164.22 164.22 0 0 0 1.375 4.656c.489 1.543.985 3 1.485 4.375a66.746 66.746 0 0 0 1.375-3.906 149.87 149.87 0 0 0 2.75-9.5c.414-1.613.77-3.113 1.062-4.5h4.235c-1.149 4.492-2.368 8.672-3.657 12.547C28.441-6.461 27.125-3.02 25.781 0Zm0 0" id="b"/>
		<path d="M2.25-11.39c0-2.02.29-3.786.875-5.297.582-1.508 1.36-2.766 2.328-3.766a9.325 9.325 0 0 1 3.344-2.235c1.258-.5 2.55-.75 3.875-.75 3.07 0 5.43.961 7.078 2.875 1.645 1.918 2.469 4.844 2.469 8.782v.672c0 .28-.016.539-.047.765H6.516c.175 2.375.863 4.184 2.062 5.422 1.195 1.23 3.07 1.844 5.625 1.844 1.438 0 2.645-.125 3.625-.375.988-.25 1.735-.488 2.235-.719l.562 3.422c-.5.262-1.375.54-2.625.828-1.242.3-2.652.453-4.234.453-1.993 0-3.715-.304-5.172-.906-1.45-.602-2.64-1.43-3.578-2.484C4.078-3.91 3.379-5.16 2.922-6.61c-.45-1.457-.672-3.051-.672-4.782Zm15.703-2.25c.02-1.844-.45-3.36-1.406-4.547-.95-1.188-2.258-1.782-3.922-1.782-.938 0-1.766.184-2.484.547a5.812 5.812 0 0 0-1.829 1.438c-.5.586-.89 1.257-1.171 2.015a10.5 10.5 0 0 0-.547 2.328Zm0 0" id="c"/>
		<path d="M7.61-21.86c.5-.32 1.253-.66 2.265-1.015 1.008-.352 2.176-.531 3.5-.531 1.633 0 3.086.297 4.36.89a8.942 8.942 0 0 1 3.234 2.47c.883 1.054 1.55 2.312 2 3.78.457 1.461.687 3.07.687 4.828 0 1.844-.273 3.512-.812 5-.543 1.481-1.313 2.735-2.313 3.766-.992 1.024-2.187 1.813-3.593 2.375-1.407.55-2.993.828-4.75.828-1.907 0-3.594-.136-5.063-.406-1.469-.258-2.672-.52-3.61-.781v-32.766l4.094-.703Zm0 18.297c.406.118.984.227 1.734.329.75.105 1.68.156 2.797.156 2.195 0 3.953-.723 5.265-2.172 1.32-1.457 1.985-3.52 1.985-6.188 0-1.175-.121-2.273-.36-3.296-.23-1.032-.61-1.914-1.14-2.657a5.519 5.519 0 0 0-2.032-1.765c-.836-.426-1.84-.64-3.015-.64-1.117 0-2.14.194-3.078.577-.938.375-1.657.774-2.157 1.188Zm0 0" id="d"/>
		<path d="M11.969-23.36c.344 0 .742.028 1.203.079.457.043.906.101 1.344.172.437.074.836.148 1.203.218.375.075.644.137.812.188l-.703 3.562c-.324-.113-.86-.25-1.61-.406-.741-.164-1.698-.25-2.874-.25-.762 0-1.516.086-2.266.25a38.42 38.42 0 0 0-1.469.328V0H3.516v-21.906c.968-.352 2.171-.68 3.609-.985 1.438-.312 3.05-.468 4.844-.468Zm0 0" id="e"/>
		<path d="M11.266-2.953c.968 0 1.82-.02 2.562-.063.75-.039 1.375-.117 1.875-.234v-6.828c-.293-.145-.773-.266-1.437-.36-.657-.101-1.454-.156-2.391-.156-.617 0-1.266.043-1.953.125a5.903 5.903 0 0 0-1.89.547 4.086 4.086 0 0 0-1.438 1.156c-.375.48-.563 1.118-.563 1.907 0 1.468.469 2.492 1.407 3.062.937.563 2.21.844 3.828.844Zm-.36-20.485c1.645 0 3.031.215 4.156.641 1.133.418 2.047 1.016 2.735 1.797.687.773 1.176 1.695 1.469 2.766.289 1.074.437 2.257.437 3.547V-.392c-.355.055-.851.133-1.484.235-.625.105-1.336.195-2.125.281-.793.094-1.653.176-2.578.25-.918.07-1.829.11-2.735.11-1.293 0-2.48-.137-3.562-.407C6.133-.18 5.19-.594 4.39-1.156c-.793-.57-1.407-1.328-1.844-2.266-.438-.945-.656-2.078-.656-3.39 0-1.258.254-2.344.765-3.25a6.19 6.19 0 0 1 2.094-2.204c.875-.562 1.898-.972 3.078-1.234a16.5 16.5 0 0 1 3.703-.406c.406 0 .828.027 1.266.078.437.043.851.101 1.25.172.394.074.738.14 1.031.203.3.055.508.094.625.125v-1.14c0-.677-.074-1.345-.219-2a4.578 4.578 0 0 0-.796-1.766c-.376-.508-.899-.914-1.563-1.22-.656-.312-1.512-.468-2.563-.468-1.355 0-2.539.094-3.546.281-1.012.188-1.766.387-2.266.594l-.484-3.39c.53-.227 1.41-.454 2.64-.672a22.837 22.837 0 0 1 4-.328Zm0 0" id="f"/>
		<clipPath id="a">
			<path d="M29.277 31h151.5v96h-151.5Zm0 0"/>
		</clipPath>
	</defs>
	<g clip-path="url(#a)">
		<path fill="#BD074A" d="M113.559 31.941c8.796 0 32.683 7.36 32.683 34.637 0 1.656-.328 5.559-.328 5.559s4.336-1.422 9.223-1.422c6.457 0 25.64 5.379 25.64 27.129 0 20.691-16.73 28.785-27.402 28.785-39.031 0-47.703-63.004-85.285-63.004-17.453 0-26.352 13.598-26.352 25.773 0 18.207 12.782 27.895 27.012 27.895 21.355 0 33.426-14.895 35.129-14.895 2.008 0 2.898 1.204 2.898 2.387 0 4.84-19.343 21.844-40.023 21.844-20.188-.008-37.477-13.598-37.477-37.238 0-21.504 16.785-36.996 36.246-36.996 43.649 0 52.22 62.18 85.618 62.18 11.89 0 17.789-8.985 17.789-17.024 0-10.047-6.89-18.32-16.672-18.32-4.008 0-8.23 2.84-11.117 2.84-2.887 0-4.004-2.133-4.004-4.024 0-2.246 1.55-6.031 1.55-10.285 0-7.301-5.386-27.782-27.8-27.782-13.114 0-18.68 9.461-21.125 9.461-2.442 0-2.668-1.296-2.668-2.957 0-1.656 8.453-14.543 26.465-14.543Zm0 0"/>
	</g>
	<use x="32.6" y="164.169" xmlns:xlink="http://www.w3.org/1999/xlink" xlink:href="#b" xlink:type="simple" xlink:actuate="onLoad" xlink:show="embed" fill="#2353A1"/>
	<use x="65.897" y="164.169" xmlns:xlink="http://www.w3.org/1999/xlink" xlink:href="#c" xlink:type="simple" xlink:actuate="onLoad" xlink:show="embed" fill="#2353A1"/>
	<use x="89.605" y="164.169" xmlns:xlink="http://www.w3.org/1999/xlink" xlink:href="#d" xlink:type="simple" xlink:actuate="onLoad" xlink:show="embed" fill="#2353A1"/>
	<use x="114.632" y="164.169" xmlns:xlink="http://www.w3.org/1999/xlink" xlink:href="#c" xlink:type="simple" xlink:actuate="onLoad" xlink:show="embed" fill="#2353A1"/>
	<use x="138.34" y="164.169" xmlns:xlink="http://www.w3.org/1999/xlink" xlink:href="#e" xlink:type="simple" xlink:actuate="onLoad" xlink:show="embed" fill="#2353A1"/>
	<use x="154.439" y="164.169" xmlns:xlink="http://www.w3.org/1999/xlink" xlink:href="#f" xlink:type="simple" xlink:actuate="onLoad" xlink:show="embed" fill="#2353A1"/>
</svg>
