<svg xmlns="http://www.w3.org/2000/svg" width="200" height="128">
	<g fill-rule="evenodd">
		<path d="M42.424 60.4c-1.991 3.346-3.9 6.586-5.844 9.8a2.563 2.563 0 0 0-.348 2.547 4.766 4.766 0 0 1-3.376 6.486 4.867 4.867 0 0 1-5.99-4.041 4.967 4.967 0 0 1 4.423-5.582c.241-.035.488-.039.893-.069l4.382-7.347c-2.756-2.74-4.4-5.944-4.033-9.913a11.271 11.271 0 0 1 3.377-7.218 11.462 11.462 0 0 1 14.3-1.5 11.134 11.134 0 0 1 4.663 12.949l-4-1.087a7.59 7.59 0 0 0-1.614-6.937 6.931 6.931 0 0 0-4.337-2.268 7.055 7.055 0 0 0-7.706 4.993c-1.123 3.776.573 6.861 5.21 9.187z" fill="#c73a63"/>
		<path d="m48.108 56.442 4.236 7.472c7.132-2.206 12.51 1.742 14.439 5.969a11.531 11.531 0 0 1-3.839 14.3 11.344 11.344 0 0 1-14.8-1.473l3.265-2.732c4.111 2.662 7.706 2.537 10.375-.616a7.154 7.154 0 0 0-.116-9.332c-2.7-3.038-6.323-3.131-10.7-.214-1.813-3.216-3.66-6.416-5.417-9.656a3.3 3.3 0 0 0-2.583-1.96 4.6 4.6 0 0 1-3.758-4.449 4.851 4.851 0 0 1 8.631-3.286 4.567 4.567 0 0 1 .842 4.518c-.155.463-.357.911-.575 1.459z" fill="#4b4b4b"/>
		<path d="M51.459 76.663h-8.586a11.766 11.766 0 0 1-5.663 7.856 11.453 11.453 0 0 1-7.678 1.367 11.667 11.667 0 0 1-9.5-10.435 11.548 11.548 0 0 1 8.85-12.061c.365 1.327.734 2.666 1.1 3.989-4.854 2.477-6.533 5.6-5.175 9.5a7.071 7.071 0 0 0 8.281 4.587c3.767-.743 5.666-3.873 5.434-8.9 3.571 0 7.145-.037 10.716.018a3.912 3.912 0 0 0 3.522-1.352 4.628 4.628 0 0 1 6.775.07 4.867 4.867 0 1 1-7.035 6.73 16.565 16.565 0 0 1-1.041-1.369z" fill="#4a4a4a"/>
	</g>
	<g fill="#4b4b4b">
		<path d="M78.7 59.3H82l1.894 8.959 1.94-8.959h3.39l-3.606 12.44h-3.344l-1.952-9.062-1.975 9.062h-3.378L71.477 59.3h3.492l1.94 8.924zm19.576.252a5.053 5.053 0 0 1 2.15 1.84 6.1 6.1 0 0 1 .991 2.572 15.735 15.735 0 0 1 .107 2.469h-9.06a2.985 2.985 0 0 0 1.3 2.625 3.3 3.3 0 0 0 1.793.468 2.755 2.755 0 0 0 1.806-.571 2.72 2.72 0 0 0 .67-.856h3.321a4.064 4.064 0 0 1-1.206 2.248 6.045 6.045 0 0 1-4.68 1.815 6.783 6.783 0 0 1-4.382-1.53q-1.9-1.531-1.9-4.981a6.731 6.731 0 0 1 1.714-4.957 5.994 5.994 0 0 1 4.448-1.725 7.057 7.057 0 0 1 2.928.583zm-4.865 2.81a3.367 3.367 0 0 0-.867 1.925h5.6a2.715 2.715 0 0 0-.866-1.966 2.851 2.851 0 0 0-1.929-.671 2.577 2.577 0 0 0-1.938.712zm20.113-1.562a7.146 7.146 0 0 1 1.4 4.565 7.991 7.991 0 0 1-1.377 4.805 4.994 4.994 0 0 1-6.331 1.289A4.933 4.933 0 0 1 106 70.177v1.563h-3.207v-16.8h3.252v5.98a4.791 4.791 0 0 1 1.367-1.324 4.086 4.086 0 0 1 2.251-.57 4.647 4.647 0 0 1 3.861 1.774zm-2.718 7.578a4.608 4.608 0 0 0 .7-2.671 5.956 5.956 0 0 0-.346-2.191 2.4 2.4 0 0 0-2.416-1.643 2.44 2.44 0 0 0-2.451 1.609 6 6 0 0 0-.345 2.214 4.615 4.615 0 0 0 .713 2.648 2.45 2.45 0 0 0 2.175 1.05 2.26 2.26 0 0 0 1.97-1.021zm14.686-9.01a3.65 3.65 0 0 1 1.539 1.223 3.254 3.254 0 0 1 .625 1.433 17.685 17.685 0 0 1 .114 2.4v7.311h-3.321v-7.571a3.36 3.36 0 0 0-.34-1.622 1.7 1.7 0 0 0-1.677-.869 2.3 2.3 0 0 0-1.943.863 3.977 3.977 0 0 0-.662 2.464v6.74h-3.253V54.974h3.253v5.935a3.976 3.976 0 0 1 1.63-1.512 4.585 4.585 0 0 1 1.95-.428 5.255 5.255 0 0 1 2.085.399zm14.975 10.85a6.855 6.855 0 0 1-9.565 0 7.722 7.722 0 0 1 0-9.345 6.783 6.783 0 0 1 9.565 0 7.718 7.718 0 0 1 0 9.345zm-2.6-1.8a5.81 5.81 0 0 0 0-5.76 2.89 2.89 0 0 0-4.388 0 5.764 5.764 0 0 0 0 5.76 2.881 2.881 0 0 0 4.388 0z"/>
		<path d="M154.108 70.218a6.854 6.854 0 0 1-9.564 0 7.718 7.718 0 0 1 0-9.345 6.782 6.782 0 0 1 9.564 0 7.718 7.718 0 0 1 0 9.345zm-2.6-1.8a5.8 5.8 0 0 0 0-5.76 2.89 2.89 0 0 0-4.388 0 5.771 5.771 0 0 0 0 5.76 2.881 2.881 0 0 0 4.388 0zm5.787-13.444h3.2v9.075l4.1-4.692h4.044l-4.459 4.634 4.632 7.749h-3.959l-3.013-5.315-1.348 1.4v3.915h-3.2z"/>
		<path d="M171.92 67.768a2.174 2.174 0 0 0 .447 1.232 3.037 3.037 0 0 0 2.248.65 3.431 3.431 0 0 0 1.531-.286.955.955 0 0 0 .11-1.689 18.657 18.657 0 0 0-3.4-.981 7.092 7.092 0 0 1-2.988-1.312 2.847 2.847 0 0 1-.868-2.236 3.877 3.877 0 0 1 1.356-2.962 5.45 5.45 0 0 1 3.814-1.238 7.013 7.013 0 0 1 3.8.93 3.982 3.982 0 0 1 1.687 3.213h-3.253a1.926 1.926 0 0 0-.354-.993 2.239 2.239 0 0 0-1.832-.662 2.633 2.633 0 0 0-1.516.331.954.954 0 0 0-.452.776.848.848 0 0 0 .48.81 20.728 20.728 0 0 0 3.4.9 6.24 6.24 0 0 1 2.913 1.381 3.138 3.138 0 0 1 .959 2.34 3.779 3.779 0 0 1-1.378 3.019 8.279 8.279 0 0 1-8.6-.069 4.023 4.023 0 0 1-1.4-3.155h3.3z"/>
	</g>
</svg>
