<svg xmlns="http://www.w3.org/2000/svg" xmlns:xlink="http://www.w3.org/1999/xlink" viewBox="-8.5 -7.75 428.74 151.49">
	<defs>
		<path id="a" d="m113.865 106.641-46.308 26.737a14.167 14.167 0 0 1-14.165 0L7.082 106.64A14.164 14.164 0 0 1 0 94.375V40.9c0-5.06 2.7-9.736 7.082-12.266l46.31-26.737a14.163 14.163 0 0 1 14.164 0l46.31 26.737a14.163 14.163 0 0 1 7.082 12.266v53.474c0 5.06-2.7 9.735-7.083 12.266zM88.464 45.083c-3.473 9.8-6.971 19.624-10.468 29.458h-1.11C73.401 64.683 69.903 54.835 66.418 45H55.544c-3.533 9.943-7.03 19.79-10.527 29.65h-1.015c-3.545-9.956-7.09-19.91-10.516-29.519H20.5c6.315 18.083 12.473 35.712 18.632 53.342h10.719l10.611-29.828h1.075c3.544 10.003 7.078 20.017 10.55 29.804H82.83c6.183-17.701 12.342-35.342 18.633-53.366h-13z"/>
	</defs>
	<g fill="#FA5A28" fill-rule="evenodd">
		<path d="M294.4 88.01h8.77V48.318h-8.77V88.01zm96.784-39.738h-9.168c0 7.836.017 15.281-.01 22.726-.026 4.949-3.544 8.43-8.386 8.386-4.887-.035-7.152-2.514-7.187-8.022-.045-6.512 0-13.033-.027-19.545-.009-1.182-.204-2.363-.31-3.491h-8.565c-.151.355-.302.542-.302.729-.026 9.3-.178 18.62 0 27.922.089 4.53 2.22 8.075 6.69 9.977 4.574-3.048 9.639-2.78 14.712-2.159 4.14.515 8.19.23 12.641-.666-.035-11.994.098-23.899-.088-35.857zm-42.555 9.364c-.107-3.856-2.576-6.69-6.121-8.324-3.66-1.688-7.56-2.417-11.47-1.493-3.233.765-6.316 2.16-9.558 3.314-1.405-1.217-3.013-2.603-4.771-4.14-2.195 1.973-4.096 3.67-5.988 5.366 4.05 5.082 4.05 5.082 4.05 11.7 0 6.824 0 13.655.01 20.478 0 1.102.098 2.212.16 3.457h9.044V65.756c0-4.832 2.523-8.075 7.231-9.293 5.508-1.421 8.387.756 8.405 6.424.026 7.231 0 14.472.017 21.713 0 1.101.107 2.203.17 3.322h8.901c0-10.252.178-20.273-.08-30.286zm-118.62-1.634c4.389.302 6.086 2.078 5.783 6.53-4.442 4.468-9.958 2.575-15.155 2.878.372-5.517 4.699-9.728 9.373-9.408zm12.776 20.14c-2.248.977-4.211 1.883-6.22 2.674-3.144 1.253-6.404 1.617-9.745.942-3.323-.667-4.922-2.257-5.553-5.766 1.893 0 3.723-.009 5.544 0 4.3.044 8.475-.56 12.313-2.603 7.845-4.185 8.813-15.015 1.715-20.203-7.525-5.508-18.754-5.037-25.258 2.702-4.868 5.8-5.819 12.588-4.654 19.855.958 5.935 4.023 10.421 9.363 13.095 7.587 3.802 20.336 1.785 26.963-4.202-1.483-2.15-2.985-4.326-4.468-6.494zm168.086-4.797c-2.532-5.847-9.569-9.746-16.018-8.84-.578.08-1.11.444-1.768.728v9.044c1.217-.195 2.221-.435 3.234-.497 2.54-.16 5.028 1.217 5.934 3.198 1.022 2.221.436 5.392-1.519 7.107-.986.862-2.158 1.733-3.394 2.061-2.967.79-6.005 1.644-9.053 1.768-5.57.24-11.167-.124-16.746.044-4.513.143-8.76 2.453-11.105 6.308-4.069 6.7-2.159 15.991 3.99 20.505 5.969 4.38 14.871 3.598 20.157-1.84 3.812-3.917 5.455-8.803 6.317-14.418h-9.32c-.32 1.013-.604 2.212-1.066 3.34-.506 1.236-1.03 2.496-1.777 3.59-1.848 2.7-5.17 3.588-7.933 2.283-2.186-1.03-3.625-4.025-3.145-6.539.586-3.083 2.168-4.176 6.183-4.185 5.686-.017 11.371.179 17.049-.009 5.686-.195 10.998-1.83 15.538-5.419 5.357-4.228 7.187-11.886 4.442-18.23zm-133.99 4.823c-2.372 3.119-5.712 3.919-9.346 3.9-1.75-.009-3.5-.284-5.765-.48 0-6.21-.231-12.197.098-18.158.159-2.959 2.736-4.602 5.41-5.366 3.118-.898 6.183-.64 8.627 1.901 4.157 4.345 4.628 13.397.977 18.203zm11.434-13.415c-1.483-10.27-9.257-16.444-19.554-15.84-2.23.134-4.424.853-7.01 1.386V31.5h-9.39v55.073c4.211 1.465 12.75 2.531 17.022 2.185 10.217-.826 16.684-5.988 18.683-15.556.711-3.367.746-7.036.25-10.448zm-87.73-14.445c-2.585 7.294-5.188 14.605-7.79 21.926h-.827c-2.594-7.338-5.197-14.668-7.791-21.988h-8.094c-2.63 7.4-5.232 14.73-7.836 22.068h-.755c-2.639-7.41-5.277-14.819-7.827-21.97H150c4.699 13.459 9.283 26.58 13.867 39.702h7.978l7.899-22.2h.799c2.638 7.444 5.268 14.898 7.854 22.183h7.995c4.602-13.175 9.186-26.306 13.868-39.721h-9.674z"/>
		<use xlink:href="#a" transform="translate(0 .5)"/>
	</g>
</svg>
