<svg xmlns="http://www.w3.org/2000/svg" width="200" height="128">
	<path d="M89.27 51.46H98l-4.6-7.4-8.47 13.38h-3.84l10.26-16.07a2.43 2.43 0 0 1 2-1 2.39 2.39 0 0 1 2 1l10.31 16.1h-3.84l-1.81-3h-8.82zm39.9 3v-14h-3.26v15.35a1.6 1.6 0 0 0 .47 1.14 1.66 1.66 0 0 0 1.19.48h14.86l1.92-3zm-53.92-2.52a5.73 5.73 0 1 0 0-11.45H61v16.94h3.25v-14H75A2.75 2.75 0 0 1 75 49h-9.19l9.73 8.48h4.76l-6.54-5.49zm-34.32 5.5a8.48 8.48 0 1 1 0-16.95h9.85a8.48 8.48 0 0 1 0 16.95zm9.63-3a5.49 5.49 0 0 0 0-11h-9.41a5.49 5.49 0 1 0 0 11zm61.89 3a8.48 8.48 0 1 1 0-16.95h11.7l-1.91 3h-9.57a5.49 5.49 0 1 0 0 11h11.75l-1.92 3zm39.86-3a5.48 5.48 0 0 1-5.28-4H161l1.92-3H147a5.49 5.49 0 0 1 5.28-4h9.56l1.93-3h-11.68a8.47 8.47 0 1 0 0 16.94h10l1.92-3zm13.24-12.16A1.49 1.49 0 0 1 167 40.8a1.5 1.5 0 1 1-1.48 1.49zm1.45 1.93a1.91 1.91 0 1 0-1.89-1.91 1.9 1.9 0 0 0 1.89 1.91zm-.17-3a1.44 1.44 0 0 1 .55.06.6.6 0 0 1 .42.6.45.45 0 0 1 0 .17.51.51 0 0 1-.25.37l-.1.05.49.88h-.47l-.44-.81h-.29v.81h-.42v-2.17zm.15 1c.13 0 .27 0 .35-.14a.27.27 0 0 0 0-.19.3.3 0 0 0-.16-.25 1 1 0 0 0-.39 0h-.12v.62z" fill="#f80000"/>
	<path d="M26.48 69.7h148.43v1.01H26.48zm24.74 16.54h-.02l-1.54-6.01h-1.41l-1.58 6.01h-.03l-1.41-6.01h-1.4l2.07 7.86h1.42l1.6-6.01h.02l1.58 6.01h1.39l2.17-7.86h-1.4l-1.46 6.01zm5.77-1.64h3.96v-1.12h-3.96v-2.06h4.28v-1.19h-5.65v7.86h5.73V86.9h-4.36v-2.3zm11.22-.72a1.91 1.91 0 0 0 .84-.65 1.78 1.78 0 0 0 .29-1 1.73 1.73 0 0 0-.64-1.46 2.75 2.75 0 0 0-1.7-.53h-3.81v7.85h3.61a4.63 4.63 0 0 0 1.31-.17 2.92 2.92 0 0 0 .9-.46 1.83 1.83 0 0 0 .51-.7 2.2 2.2 0 0 0 .17-.86 2.35 2.35 0 0 0-.37-1.34 1.73 1.73 0 0 0-1.11-.68zm-3.65-2.52h2.25a1.35 1.35 0 0 1 .86.24 1 1 0 0 1 .29.83 1 1 0 0 1-.33.81 1.2 1.2 0 0 1-.82.28h-2.25zM68 86.64a1.37 1.37 0 0 1-1 .36h-2.44v-2.49H67a1.41 1.41 0 0 1 1 .32 1.13 1.13 0 0 1 .34.89 1.19 1.19 0 0 1-.34.92zm4.94-6.41h-1.37v7.86h5.37V86.9h-4v-6.67zm11.69 1.04a3.51 3.51 0 0 0-1.19-.89 3.92 3.92 0 0 0-3.15 0 3.51 3.51 0 0 0-1.19.89 3.91 3.91 0 0 0-.74 1.31 4.85 4.85 0 0 0-.26 1.58 4.92 4.92 0 0 0 .26 1.6 4 4 0 0 0 .74 1.31 3.49 3.49 0 0 0 1.19.88 3.92 3.92 0 0 0 3.15 0 3.49 3.49 0 0 0 1.19-.88 4 4 0 0 0 .74-1.31 4.92 4.92 0 0 0 .26-1.6 4.85 4.85 0 0 0-.26-1.58 3.91 3.91 0 0 0-.74-1.31zm-.51 4a3.23 3.23 0 0 1-.43 1 2.1 2.1 0 0 1-.74.68 2.48 2.48 0 0 1-2.17 0 2.1 2.1 0 0 1-.74-.68 3 3 0 0 1-.42-1 4 4 0 0 1-.14-1.1 4.1 4.1 0 0 1 .14-1.1 3 3 0 0 1 .42-1 2.2 2.2 0 0 1 .74-.68 2.48 2.48 0 0 1 2.17 0 2.2 2.2 0 0 1 .74.68 3.23 3.23 0 0 1 .43 1 4.53 4.53 0 0 1 .13 1.1 4.48 4.48 0 0 1-.13 1.09zM91 85h2.09a2.83 2.83 0 0 1-.16.9 1.74 1.74 0 0 1-.42.69 1.93 1.93 0 0 1-.69.43 2.47 2.47 0 0 1-.93.13 2.16 2.16 0 0 1-1.08-.25 2 2 0 0 1-.75-.68 3 3 0 0 1-.42-1 4.48 4.48 0 0 1-.14-1.1 4.54 4.54 0 0 1 .14-1.1 3 3 0 0 1 .42-1 2.11 2.11 0 0 1 1.83-.93 2.34 2.34 0 0 1 .71.1 1.7 1.7 0 0 1 .62.3 1.66 1.66 0 0 1 .46.49 1.62 1.62 0 0 1 .23.67h1.34a2.83 2.83 0 0 0-.37-1.16 2.93 2.93 0 0 0-.75-.85 3.18 3.18 0 0 0-1-.5 4 4 0 0 0-1.21-.17 3.66 3.66 0 0 0-1.58.33 3.38 3.38 0 0 0-1.18.89 3.91 3.91 0 0 0-.74 1.31 4.6 4.6 0 0 0-.26 1.58 4.67 4.67 0 0 0 .26 1.6 4 4 0 0 0 .74 1.31 3.35 3.35 0 0 0 1.18.88 3.66 3.66 0 0 0 1.58.33 2.92 2.92 0 0 0 1.26-.2 3.14 3.14 0 0 0 1.1-.87l.21.93h.88V84H91zm5.51-4.76h1.38v7.85h-1.38zm8.85 5.66a2 2 0 0 1-.39.65 1.68 1.68 0 0 1-.61.44 1.89 1.89 0 0 1-.81.16 2.22 2.22 0 0 1-1.09-.25 2.1 2.1 0 0 1-.74-.68 3 3 0 0 1-.42-1 4.48 4.48 0 0 1-.14-1.1 4.54 4.54 0 0 1 .14-1.1 3 3 0 0 1 .42-1 2.2 2.2 0 0 1 .74-.68 2.22 2.22 0 0 1 1.09-.25 2.19 2.19 0 0 1 .75.12 1.59 1.59 0 0 1 .57.32 1.69 1.69 0 0 1 .39.49 2.67 2.67 0 0 1 .25.63h1.37a2.93 2.93 0 0 0-.34-1.13 2.64 2.64 0 0 0-.72-.84 3.24 3.24 0 0 0-1-.53 4.18 4.18 0 0 0-1.24-.18 3.63 3.63 0 0 0-1.58.33 3.38 3.38 0 0 0-1.18.89 3.93 3.93 0 0 0-.75 1.31 4.85 4.85 0 0 0-.26 1.58 4.92 4.92 0 0 0 .26 1.6 4 4 0 0 0 .75 1.31A3.35 3.35 0 0 0 102 88a3.63 3.63 0 0 0 1.58.33 3.51 3.51 0 0 0 1.31-.24 3.06 3.06 0 0 0 1-.65 3.15 3.15 0 0 0 .7-1 3.7 3.7 0 0 0 .3-1.28h-1.34a3 3 0 0 1-.19.74zM118 84.62a2.18 2.18 0 0 0-1.15-.81l-.51-.14-.73-.19-.61-.18-.35-.1a1.7 1.7 0 0 1-.67-.35.83.83 0 0 1-.26-.66.79.79 0 0 1 .14-.49 1 1 0 0 1 .34-.32 1.67 1.67 0 0 1 .46-.16 2.92 2.92 0 0 1 .5 0 2.05 2.05 0 0 1 1.18.31 1.34 1.34 0 0 1 .51 1.08h1.38a2.22 2.22 0 0 0-.9-1.87 2.55 2.55 0 0 0-1-.48 4 4 0 0 0-1.16-.16 3.67 3.67 0 0 0-1 .14 2.92 2.92 0 0 0-.93.42 2.14 2.14 0 0 0-.65.72 2.17 2.17 0 0 0-.16 1.63 1.41 1.41 0 0 0 .28.56 1.91 1.91 0 0 0 .53.48 2.72 2.72 0 0 0 .84.35l1.37.36a8.9 8.9 0 0 1 1 .29 1.19 1.19 0 0 1 .45.3 1 1 0 0 1 .2.67 1.11 1.11 0 0 1-.09.43.92.92 0 0 1-.28.38 1.59 1.59 0 0 1-.52.27 2.48 2.48 0 0 1-.77.1 3.07 3.07 0 0 1-.77-.09 1.8 1.8 0 0 1-.64-.3 1.47 1.47 0 0 1-.43-.52 1.79 1.79 0 0 1-.15-.77H112a2.78 2.78 0 0 0 .27 1.26 2.43 2.43 0 0 0 .7.87 3 3 0 0 0 1 .51 4.68 4.68 0 0 0 1.26.17 5 5 0 0 0 1.15-.14 3 3 0 0 0 1-.44 2.25 2.25 0 0 0 .71-.76 2.22 2.22 0 0 0 .27-1.13 1.86 1.86 0 0 0-.1-.61 1.83 1.83 0 0 0-.26-.63zm3.62-.02h3.96v-1.12h-3.96v-2.06h4.28v-1.19h-5.66v7.86h5.73V86.9h-4.35v-2.3zM134 86a2.15 2.15 0 0 0-.12-.77 1.61 1.61 0 0 0-.29-.5 1.1 1.1 0 0 0-.38-.28 1.16 1.16 0 0 0-.38-.11l.31-.13a1.58 1.58 0 0 0 .44-.33 2 2 0 0 0 .38-.59 2.31 2.31 0 0 0 .17-.93 2 2 0 0 0-.65-1.56 2.87 2.87 0 0 0-1.95-.56h-3.75v7.85h1.38v-3.24h2a2.15 2.15 0 0 1 .84.15.93.93 0 0 1 .47.38 1.62 1.62 0 0 1 .25.64 6.22 6.22 0 0 1 .06.93v.6a1.37 1.37 0 0 0 .18.56h1.48a1.62 1.62 0 0 1-.33-.81A7 7 0 0 1 134 86zm-1.59-2.52a1.46 1.46 0 0 1-1 .31h-2.25v-2.43h2.23a2.78 2.78 0 0 1 .51 0 1.08 1.08 0 0 1 .44.18.8.8 0 0 1 .3.37 1.33 1.33 0 0 1 .11.61 1.22 1.22 0 0 1-.31.98zm6.12 2.97h-.03l-1.97-6.22h-1.43l2.62 7.86h1.53l2.69-7.86h-1.4l-2.01 6.22zm6.2-1.85h3.96v-1.12h-3.96v-2.06h4.28v-1.19h-5.66v7.86h5.74V86.9h-4.36v-2.3zm12.41 1.4a2.15 2.15 0 0 0-.12-.77 1.43 1.43 0 0 0-.29-.5 1.1 1.1 0 0 0-.38-.28 1.16 1.16 0 0 0-.38-.11l.32-.13a1.71 1.71 0 0 0 .43-.33 2 2 0 0 0 .39-.59 2.5 2.5 0 0 0 .16-.93 2 2 0 0 0-.65-1.56 2.87 2.87 0 0 0-2-.56h-3.75v7.85h1.38v-3.24h2a2.11 2.11 0 0 1 .78.13 1 1 0 0 1 .48.38 1.78 1.78 0 0 1 .24.64 6.22 6.22 0 0 1 .06.93v.6a1.37 1.37 0 0 0 .18.56h1.48a1.62 1.62 0 0 1-.33-.81 7 7 0 0 1 0-1.28zm-1.59-2.52a1.46 1.46 0 0 1-1 .31h-2.25v-2.43h2.23a2.78 2.78 0 0 1 .51 0 1.08 1.08 0 0 1 .44.18.88.88 0 0 1 .31.37 1.48 1.48 0 0 1 .11.61 1.22 1.22 0 0 1-.35.98z"/>
</svg>
