<svg version="1.1" id="Layer_1" xmlns="http://www.w3.org/2000/svg" x="0" y="0" viewBox="0 0 500 208.3" style="enable-background:new 0 0 500 208.3" xml:space="preserve">
	<style>
		.st0{fill:#0063f7}
	</style>
	<switch>
		<g>
			<path class="st0" d="M178.6 140.8H162l18-29.7c.7-1.1.7-2.5.1-3.6L124.1 2c-.9-1.7-3-2.4-4.8-1.6L95.6 12l3.2 6.5 10.1-4.9 44.2 128-31.3 51.5-5.4-9.1c13.7-18 18.5-39.9 18.8-41.2.3-1.2-.1-2.5-1-3.3l-9.1-9.1c-.5-.5-.8-1.1-.8-1.8v-22.1c0-4.4-3.6-8-8-8H65.6c-4.4 0-8 3.6-8 8v22.1c0 .7-.3 1.4-.8 1.8l-9.1 9.1c-.9.9-1.2 2.1-1 3.3.3 1.3 5 22.5 18.1 40.3l-6.1 10-28.7-49L43.9 110l24.2-59.5 10.2 7.7 4.4-5.8L60.9 36c-1.6-1.2-3.9-.9-5.1.7L2.1 106.4c-.9 1.2-1 2.8-.3 4.1l17.8 30.3H3.3c-2 0-3.6 1.6-3.6 3.6v60.3c0 2 1.6 3.6 3.6 3.6h175.3c2 0 3.6-1.6 3.6-3.6v-60.3c0-2-1.6-3.6-3.6-3.6zm-98.3 27.7c-5.9-17.5-8.4-33.7-9.1-39.3l7-4.7c-.4 9-.6 25 2.1 44zm5.5-49.2 1.5-1v47.6c-3-22.9-1.9-41.2-1.5-46.6zm54.8-36.1-11-31.8h11v31.8zm7.3-20.8 22.5 42.3-22.5-3V62.4zM119.3 8.5l18.9 35.6h-11.1l-11.7-33.8 3.9-1.8zm30.3 100.8 21.3 2.8-13 21.4-8.3-24.2zm-34.2 87.3h-11.3c2.6-2.1 5.1-4.3 7.3-6.7l4 6.7zm-49.8-91h21.8v3.9l-22.5 15.3v-18.4c-.1-.5.3-.8.7-.8zm-3.9 30.1 2.8-1.9c1.6 10.8 6.1 34.3 16.5 56-17.3-14.5-24.9-39.6-26.8-46.7l7.5-7.4zm16.1 60.9H65.2l4.6-7.5c2.4 2.6 5.1 5.2 8 7.5zm-42.7-84.3-9.7 24-14-24h23.7zM12.4 105l24.5-31.8V105H12.4zm47-61.1 2.7 2L44.2 90V63.7l15.2-19.8z"/>
			<path class="st0" d="M298.2 172.8c-2.1 8.4-3.4 14.9-4 19.6h-.5c-.2-2.1-.7-5.1-1.5-8.9-.9-3.8-1.6-6.7-2.1-8.5l-9.3-33.1h-14.7l-9.6 33.1c-.6 1.8-1.2 4.5-2 8-.8 3.6-1.4 6.8-1.7 9.5h-.3c-.8-5.5-2-12-3.9-19.7l-8-31H227l17.6 62.9h14.8l8.4-29.2c1.3-4.3 3-11.5 5.2-21.8h.5c2.6 11.3 4.4 18.6 5.3 21.7l8.1 29.3h15l17.7-62.9h-13.4l-8 31z"/>
			<path class="st0" d="M360.3 140.7c-8.9 0-16 2.9-21.1 8.8-5.1 5.9-7.7 13.9-7.7 24.2 0 10 2.8 17.9 8.3 23.6 5.5 5.7 13.2 8.6 22.9 8.6 4.3 0 8.1-.3 11.4-1 3.3-.6 6.6-1.7 9.9-3.3v-10.9c-3.7 1.6-7.1 2.8-10.3 3.5-3.2.7-6.7 1.1-10.4 1.1-5.6 0-10-1.6-13.1-4.9-3.1-3.3-4.8-8-4.9-14.1h41.9v-7.2c0-8.8-2.4-15.8-7.2-20.8-4.9-5.1-11.4-7.6-19.7-7.6zm-14.8 25.9c.5-5.2 2-9.1 4.6-11.8 2.6-2.7 6-4 10.2-4 4.2 0 7.6 1.3 10 4 2.4 2.7 3.7 6.6 3.8 11.8h-28.6z"/>
			<path class="st0" d="M428 144c-3.4 2.2-6.1 5.2-8.2 8.9h-.7l-1.8-11.1H407v62.9h13.4v-32.9c0-5.6 1.7-10.1 5-13.6s7.6-5.2 13-5.2c2 0 4 .2 5.9.7l1.3-12.5c-1.7-.4-4-.6-6.7-.6-3.9.1-7.5 1.2-10.9 3.4z"/>
			<path class="st0" d="M480.1 129.3c1.4-1.9 3.6-2.8 6.6-2.8 3 0 6.1.5 9.4 1.6l3.5-10.1c-4.5-1.6-9.2-2.3-13.9-2.3-7.2 0-12.5 1.8-16 5.4-3.5 3.6-5.2 9.1-5.2 16.5v4.1l-10.3 4.1v6.3h10.3v52.8H478V152h15.4v-10.1H478v-4.1c0-3.8.7-6.6 2.1-8.5z"/>
		</g>
	</switch>
</svg>
