<svg width="241" height="251" xmlns="http://www.w3.org/2000/svg">
	<g fill="none" fill-rule="evenodd">
		<path fill="#7BB12A" d="M128.062 155.891h21.502V0h-21.502z"/>
		<path fill="#F4B31A" d="M85.058 155.891h21.502V53.756H85.058z"/>
		<path fill="#E45125" d="M42.054 155.891h21.502v-48.38H42.054z"/>
		<path fill="#2996D3" d="M230.197 0h-59.13v155.892h21.502V21.504h37.628z"/>
		<path fill="#797979" d="M0 192.09h6.99l10.274 36.478 9.233-36.478h5.137l9.201 36.478 10.241-36.478h6.99l-14.304 47.337h-6.21l-8.519-35.34-8.583 35.34h-6.112z"/>
		<path d="M67.43 239.426h-6.437V192.09h6.437v15.638a9.903 9.903 0 0 1 4.048-3.479c1.658-.78 3.593-1.17 5.804-1.17 4.334 0 7.704 1.386 10.109 4.16 2.406 2.776 3.609 6.666 3.609 11.672v20.515h-6.437v-18.434c0-3.965-.671-6.914-2.016-8.842-1.344-1.93-3.401-2.894-6.176-2.894-1.691 0-3.186.39-4.487 1.17-1.301.78-2.341 1.907-3.121 3.382-.477.89-.817 1.972-1.023 3.251-.207 1.28-.31 3.315-.31 6.111v16.256Z" fill="#797979"/>
		<path d="M103.113 221.318c0 3.62 1.198 6.653 3.593 9.104 2.394 2.449 5.327 3.673 8.794 3.673 3.165 0 5.955-1.231 8.372-3.69 2.417-2.459 3.625-5.337 3.625-8.632 0-3.511-1.198-6.518-3.593-9.021-2.394-2.504-5.239-3.756-8.534-3.756-3.38 0-6.27 1.192-8.664 3.577-2.395 2.384-3.593 5.299-3.593 8.745Zm24.06 18.108v-4.388c-1.648 1.712-3.485 3.007-5.512 3.884-2.027.878-4.189 1.318-6.485 1.318-5.376 0-9.84-1.793-13.395-5.381-3.556-3.588-5.333-8.079-5.333-13.476 0-2.515.444-4.898 1.334-7.153a18.021 18.021 0 0 1 3.803-5.949c1.8-1.886 3.766-3.279 5.901-4.178s4.568-1.349 7.3-1.349c2.45 0 4.702.434 6.762 1.3 2.06.867 3.933 2.179 5.624 3.934v-4.324h6.503v35.762h-6.503Z" fill="#797979"/>
		<path fill="#797979" d="M151.304 239.426h-6.86v-40.964h-12.172v-6.372h31.204v6.372h-12.172z"/>
		<path d="M165.708 221.318c0 3.62 1.198 6.653 3.593 9.104 2.393 2.449 5.326 3.673 8.794 3.673 3.165 0 5.954-1.231 8.371-3.69 2.418-2.459 3.626-5.337 3.626-8.632 0-3.511-1.198-6.518-3.593-9.021-2.395-2.504-5.239-3.756-8.534-3.756-3.382 0-6.271 1.192-8.664 3.577-2.395 2.384-3.593 5.299-3.593 8.745Zm24.059 18.108v-4.388c-1.648 1.712-3.485 3.007-5.511 3.884-2.027.878-4.19 1.318-6.486 1.318-5.376 0-9.84-1.793-13.395-5.381-3.556-3.588-5.332-8.079-5.332-13.476 0-2.515.443-4.898 1.333-7.153a18.024 18.024 0 0 1 3.804-5.949c1.799-1.886 3.766-3.279 5.901-4.178 2.134-.899 4.567-1.349 7.299-1.349 2.449 0 4.702.434 6.762 1.3 2.059.867 3.933 2.179 5.625 3.934v-4.324h6.502v35.762h-6.502Z" fill="#797979"/>
		<path d="M209.86 221.318c0 3.532 1.186 6.546 3.56 9.038 2.373 2.492 5.207 3.739 8.502 3.739 3.36 0 6.242-1.198 8.647-3.592 2.406-2.395 3.61-5.305 3.61-8.73 0-3.62-1.192-6.653-3.577-9.103s-5.3-3.674-8.746-3.674c-3.165 0-5.954 1.23-8.37 3.69-2.419 2.46-3.627 5.337-3.627 8.632m.195 13.785v15.898h-6.436v-47.337h6.502v4.389c1.646-1.69 3.483-2.974 5.51-3.852 2.028-.878 4.19-1.318 6.486-1.318 5.397 0 9.873 1.789 13.428 5.366 3.555 3.576 5.332 8.062 5.332 13.46a19.25 19.25 0 0 1-1.333 7.119 18.467 18.467 0 0 1-3.837 6.014c-1.799 1.886-3.766 3.28-5.9 4.178-2.135.9-4.568 1.35-7.3 1.35-2.426 0-4.676-.439-6.746-1.317-2.069-.878-3.97-2.194-5.706-3.95" fill="#797979"/>
	</g>
</svg>
