<svg xmlns="http://www.w3.org/2000/svg" viewBox="-15.99 -15.99 831.48 162.98">
	<path fill="#fff" d="M45.208 109.095 75.305 3.74 78.1 23.73 47.823 129.574l-2.615-20.479m244.702 22.399h-11.125L200.731 9.854v121.64h-8.75V.006h12.4l76.593 119.632zm-8.936-22.397V.006h8.936v129.57l-8.936-20.48M331.73 7.85v115.439h31.734c18.6 0 30.09-4.014 39.39-13.496 9.485-9.849 14.59-24.803 14.59-42.493 0-19.146-5.655-35.926-15.501-45.775C393.004 12.41 380.604 7.85 364.19 7.85zM322.795.006h45.224c35.564 0 58.544 26.628 58.544 68.206 0 20.242-6.02 36.291-17.695 47.78-11.12 10.76-24.98 15.502-46.5 15.502h-39.573V.006m304.05 131.488h-9.118L572.137.006h8.388l41.577 119.632 4.744 11.856m-1.11-22.399L663.318.007h8.575l-44.391 129.567-1.766-20.479M754.708 60.69c19.477-.763 32.142-11.144 32.142-26.762 0-14.955-13.13-26.444-30.454-26.444h-44.5v124.009h-8.935V.007h53.435c23.343 0 39.39 13.86 39.39 34.105 0 9.66-4.011 18.235-11.67 24.619-4.742 4.01-8.026 5.65-16.78 8.205l32.644 64.556h-8.934l-32.281-63.1-4.057-7.703m-248.195 0c19.477-.763 32.142-11.144 32.142-26.762 0-14.955-13.13-26.444-30.456-26.444H463.7v124.009h-8.934V.007h53.433c23.344 0 39.39 13.86 39.39 34.105 0 9.66-4.01 18.235-11.67 24.619-4.74 4.01-8.024 5.65-16.779 8.205l32.645 64.556h-8.936l-32.28-63.1-4.056-7.703M47.23 131.494h-9.485L0 .006h8.387zm74.649-22.397L152.91.568h8.57l-36.986 129.007zM76.29.006h8.934l38.725 131.488h-8.996L76.289.006"/>
	<path fill="#1c1b1a" d="M45.208 109.095 75.305 3.74 78.1 23.73 47.823 129.574l-2.615-20.479m244.702 22.399h-11.125L200.731 9.854v121.64h-8.75V.006h12.4l76.593 119.632zm-8.936-22.397V.006h8.936v129.57l-8.936-20.48M331.73 7.85v115.439h31.734c18.6 0 30.09-4.014 39.39-13.496 9.485-9.849 14.59-24.803 14.59-42.493 0-19.146-5.655-35.926-15.501-45.775C393.004 12.41 380.604 7.85 364.19 7.85zM322.795.006h45.224c35.564 0 58.544 26.628 58.544 68.206 0 20.242-6.02 36.291-17.695 47.78-11.12 10.76-24.98 15.502-46.5 15.502h-39.573V.006m304.05 131.488h-9.118L572.137.006h8.388l41.577 119.632 4.744 11.856"/>
	<path fill="#6accba" d="M625.736 109.095 663.318.007h8.575l-44.391 129.567-1.766-20.479"/>
	<path fill="#1c1b1a" d="M754.708 60.689c19.477-.763 32.142-11.144 32.142-26.762 0-14.955-13.13-26.444-30.454-26.444h-44.5v124.009h-8.935V.007h53.435c23.343 0 39.39 13.86 39.39 34.105 0 9.66-4.011 18.235-11.67 24.619-4.742 4.01-8.026 5.65-16.78 8.205l32.644 64.556h-8.934l-32.281-63.1-4.057-7.703m-248.195 0c19.477-.763 32.142-11.144 32.142-26.762 0-14.955-13.13-26.444-30.456-26.444H463.7v124.009h-8.934V.007h53.433c23.344 0 39.39 13.86 39.39 34.105 0 9.66-4.01 18.235-11.67 24.619-4.74 4.01-8.024 5.65-16.779 8.205l32.645 64.556h-8.936l-32.28-63.1-4.056-7.703M47.23 131.494h-9.485L0 .006h8.387zm74.649-22.397L152.91.568h8.57l-36.986 129.007zM76.29.006h8.934l38.725 131.488h-8.996L76.289.006"/>
</svg>
