<svg xmlns="http://www.w3.org/2000/svg" width="200" height="128">
	<path d="M62.074 62.845h26.175V40.6l-26.175 3.471zm-2.158 0V44.3l-17.432 2.408V62.83zm0 2.346H42.484V80.85l17.422 2.637zm2.158 0v18.514l26.175 3.7V65.191z" fill="#20bdf0"/>
	<path d="m110.223 51.247-3.017 10.682h-1.467l-2.2-7.807a4.907 4.907 0 0 1-.171-1.087h-.03a5.5 5.5 0 0 1-.194 1.073l-2.212 7.821h-1.45l-3.129-10.682h1.378L100 59.441a5.417 5.417 0 0 1 .179 1.073h.037a6.35 6.35 0 0 1 .231-1.073l2.361-8.194h1.2l2.264 8.254a6.1 6.1 0 0 1 .179 1h.03a5.922 5.922 0 0 1 .2-1.028l2.182-8.224zm2.048 1.118a.774.774 0 0 1-.558-.224.755.755 0 0 1-.231-.566.782.782 0 0 1 .789-.8.789.789 0 0 1 .57.227.8.8 0 0 1 0 1.129.781.781 0 0 1-.57.234zm.6 9.564h-1.221V54.3h1.221zm8.801 0h-1.222v-4.35q0-2.428-1.772-2.429a1.923 1.923 0 0 0-1.516.689 2.556 2.556 0 0 0-.6 1.74v4.35h-1.222V54.3h1.222v1.267h.03a2.752 2.752 0 0 1 2.5-1.446 2.333 2.333 0 0 1 1.914.809 3.6 3.6 0 0 1 .663 2.335zm8.812 0h-1.221v-1.3h-.03a2.82 2.82 0 0 1-2.622 1.475 2.85 2.85 0 0 1-2.3-1.024 4.2 4.2 0 0 1-.861-2.79 4.571 4.571 0 0 1 .954-3.032 3.143 3.143 0 0 1 2.54-1.14 2.446 2.446 0 0 1 2.287 1.237h.03v-4.719h1.221zm-1.221-3.449v-1.125a2.184 2.184 0 0 0-.611-1.564 2.051 2.051 0 0 0-1.55-.641 2.11 2.11 0 0 0-1.758.82 3.59 3.59 0 0 0-.64 2.264 3.233 3.233 0 0 0 .614 2.082 2.01 2.01 0 0 0 1.65.764 2.087 2.087 0 0 0 1.658-.738 2.748 2.748 0 0 0 .637-1.862zm6.882 3.628a3.54 3.54 0 0 1-2.7-1.069 3.96 3.96 0 0 1-1.009-2.834 4.124 4.124 0 0 1 1.05-3 3.776 3.776 0 0 1 2.838-1.081 3.422 3.422 0 0 1 2.663 1.051 4.164 4.164 0 0 1 .957 2.912 4.1 4.1 0 0 1-1.031 2.924 3.615 3.615 0 0 1-2.768 1.097zm.09-6.958a2.325 2.325 0 0 0-1.863.8 3.294 3.294 0 0 0-.685 2.209 3.111 3.111 0 0 0 .693 2.138 2.356 2.356 0 0 0 1.855.782 2.235 2.235 0 0 0 1.821-.767 3.329 3.329 0 0 0 .637-2.183 3.386 3.386 0 0 0-.637-2.205 2.226 2.226 0 0 0-1.821-.774zm15.27-.85-2.287 7.628h-1.266l-1.572-5.46a3.624 3.624 0 0 1-.119-.708h-.03a3.365 3.365 0 0 1-.156.693l-1.706 5.475h-1.222l-2.309-7.628h1.281l1.58 5.736a3.517 3.517 0 0 1 .1.685h.059a3.187 3.187 0 0 1 .135-.7l1.757-5.721h1.118l1.579 5.751a4.088 4.088 0 0 1 .112.685h.059a3.138 3.138 0 0 1 .127-.685L150.3 54.3zm.954 7.353v-1.311a3.61 3.61 0 0 0 2.2.738q1.61 0 1.609-1.073a.933.933 0 0 0-.138-.518 1.4 1.4 0 0 0-.372-.376 2.882 2.882 0 0 0-.552-.294 40.326 40.326 0 0 0-.681-.272 8.559 8.559 0 0 1-.89-.406 2.647 2.647 0 0 1-.641-.462 1.722 1.722 0 0 1-.387-.584 2.072 2.072 0 0 1-.131-.768 1.819 1.819 0 0 1 .246-.949 2.179 2.179 0 0 1 .656-.693 3.054 3.054 0 0 1 .935-.421 4.158 4.158 0 0 1 1.083-.142 4.381 4.381 0 0 1 1.773.343V55.7a3.449 3.449 0 0 0-1.936-.552 2.272 2.272 0 0 0-.619.079 1.53 1.53 0 0 0-.473.219 1.033 1.033 0 0 0-.305.339.9.9 0 0 0-.108.436 1.044 1.044 0 0 0 .108.5 1.107 1.107 0 0 0 .316.358 2.453 2.453 0 0 0 .507.283q.3.126.678.275a9.608 9.608 0 0 1 .909.4 3.083 3.083 0 0 1 .685.462 1.794 1.794 0 0 1 .436.592 1.921 1.921 0 0 1 .152.8 1.882 1.882 0 0 1-.249.983 2.152 2.152 0 0 1-.667.693 3.057 3.057 0 0 1-.961.41 4.757 4.757 0 0 1-1.139.134 4.325 4.325 0 0 1-2.044-.458zm-55.398 15.1v-1.475a2.856 2.856 0 0 0 .607.4 4.834 4.834 0 0 0 .745.3 5.766 5.766 0 0 0 .786.191 4.449 4.449 0 0 0 .73.067 2.864 2.864 0 0 0 1.724-.428 1.607 1.607 0 0 0 .38-1.986 2.172 2.172 0 0 0-.525-.585 5.367 5.367 0 0 0-.794-.506q-.457-.242-.987-.51-.558-.284-1.042-.574a4.488 4.488 0 0 1-.842-.64 2.675 2.675 0 0 1-.563-.794 2.71 2.71 0 0 1 .116-2.309 2.744 2.744 0 0 1 .842-.89 3.807 3.807 0 0 1 1.188-.521 5.4 5.4 0 0 1 1.359-.172 5.215 5.215 0 0 1 2.3.38v1.408a4.172 4.172 0 0 0-2.428-.655 3.932 3.932 0 0 0-.82.086 2.3 2.3 0 0 0-.73.279 1.615 1.615 0 0 0-.521.5 1.323 1.323 0 0 0-.2.744 1.528 1.528 0 0 0 .152.708 1.732 1.732 0 0 0 .451.544 4.521 4.521 0 0 0 .726.477q.429.231.987.506.575.284 1.088.6a5.015 5.015 0 0 1 .9.693 3.092 3.092 0 0 1 .615.842 2.367 2.367 0 0 1 .227 1.057 2.688 2.688 0 0 1-.309 1.338 2.543 2.543 0 0 1-.835.89 3.631 3.631 0 0 1-1.21.5 6.682 6.682 0 0 1-1.445.153 5.744 5.744 0 0 1-.626-.042 8.28 8.28 0 0 1-.76-.119 5.81 5.81 0 0 1-.733-.194 2.26 2.26 0 0 1-.553-.263zm14.57-3.077h-5.386a2.854 2.854 0 0 0 .686 1.967 2.36 2.36 0 0 0 1.8.693 3.744 3.744 0 0 0 2.369-.85v1.148a4.431 4.431 0 0 1-2.659.73 3.219 3.219 0 0 1-2.54-1.04 4.25 4.25 0 0 1-.924-2.923 4.173 4.173 0 0 1 1.009-2.9 3.239 3.239 0 0 1 2.507-1.121 2.865 2.865 0 0 1 2.316.969 4.033 4.033 0 0 1 .82 2.689zm-1.252-1.035a2.486 2.486 0 0 0-.51-1.646 1.737 1.737 0 0 0-1.4-.589 1.97 1.97 0 0 0-1.467.619 2.8 2.8 0 0 0-.745 1.616zm7.077-1.847a1.5 1.5 0 0 0-.924-.246 1.56 1.56 0 0 0-1.307.737 3.411 3.411 0 0 0-.525 2.015v3.889h-1.222v-7.632h1.222v1.572h.03a2.666 2.666 0 0 1 .8-1.256 1.822 1.822 0 0 1 1.2-.45 2.007 2.007 0 0 1 .73.1zm7.933-1.237-3.039 7.628h-1.2l-2.891-7.628h1.341l1.937 5.542a4.982 4.982 0 0 1 .268 1.065h.03a5.08 5.08 0 0 1 .238-1.035l2.026-5.572zm1.937-1.937a.774.774 0 0 1-.559-.223.755.755 0 0 1-.231-.566.782.782 0 0 1 .79-.8.793.793 0 0 1 .57.227.762.762 0 0 1 .234.57.754.754 0 0 1-.234.558.784.784 0 0 1-.57.234zm.6 9.565H126.7v-7.628h1.222zm7.668-.35a3.975 3.975 0 0 1-2.086.529 3.459 3.459 0 0 1-2.633-1.061 3.851 3.851 0 0 1-1-2.753 4.228 4.228 0 0 1 1.08-3.028 3.78 3.78 0 0 1 2.883-1.144 4 4 0 0 1 1.773.373V71a3.108 3.108 0 0 0-1.818-.6 2.459 2.459 0 0 0-1.918.838 3.181 3.181 0 0 0-.748 2.2 3.025 3.025 0 0 0 .7 2.116 2.426 2.426 0 0 0 1.888.775 3.062 3.062 0 0 0 1.877-.663zm7.978-3.159h-5.386a2.854 2.854 0 0 0 .686 1.967 2.362 2.362 0 0 0 1.8.693 3.744 3.744 0 0 0 2.369-.85v1.148a4.431 4.431 0 0 1-2.659.73 3.219 3.219 0 0 1-2.54-1.04 4.25 4.25 0 0 1-.924-2.923 4.173 4.173 0 0 1 1.009-2.9 3.239 3.239 0 0 1 2.507-1.121 2.869 2.869 0 0 1 2.317.969 4.038 4.038 0 0 1 .819 2.689zm-1.251-1.035A2.486 2.486 0 0 0 141.81 71a1.735 1.735 0 0 0-1.4-.589 1.972 1.972 0 0 0-1.468.619 2.811 2.811 0 0 0-.745 1.616zm2.636 4.268V75.6a3.615 3.615 0 0 0 2.2.738q1.609 0 1.609-1.073a.931.931 0 0 0-.138-.518 1.383 1.383 0 0 0-.372-.376 2.913 2.913 0 0 0-.552-.294q-.316-.13-.681-.272a8.559 8.559 0 0 1-.89-.406 2.7 2.7 0 0 1-.641-.461 1.74 1.74 0 0 1-.387-.586 2.063 2.063 0 0 1-.131-.767 1.827 1.827 0 0 1 .246-.95 2.186 2.186 0 0 1 .656-.692 3.02 3.02 0 0 1 .935-.421 4.158 4.158 0 0 1 1.083-.142 4.381 4.381 0 0 1 1.773.343v1.237a3.452 3.452 0 0 0-1.937-.552 2.311 2.311 0 0 0-.618.078 1.543 1.543 0 0 0-.473.22 1.026 1.026 0 0 0-.305.34.888.888 0 0 0-.108.435 1.044 1.044 0 0 0 .108.5 1.107 1.107 0 0 0 .316.358 2.453 2.453 0 0 0 .507.283c.2.084.424.176.678.275a9.723 9.723 0 0 1 .909.4 3.117 3.117 0 0 1 .685.462 1.794 1.794 0 0 1 .436.592 1.921 1.921 0 0 1 .152.8 1.882 1.882 0 0 1-.249.983 2.152 2.152 0 0 1-.667.693 3.057 3.057 0 0 1-.961.41 4.759 4.759 0 0 1-1.14.134 4.328 4.328 0 0 1-2.043-.462z" fill="#666"/>
</svg>
