<svg xmlns="http://www.w3.org/2000/svg" width="200" height="128">
    <path fill="#706d6e" d="M84.6 80.35l-2.41 9.11h-2.27l-1.51-5.84a5.2 5.2 0 01-.15-1 6.66 6.66 0 01-.17 1l-1.55 5.84h-2.38l-2.4-9.11H74l1.29 6.06a9.1 9.1 0 01.12 1 4.93 4.93 0 01.19-1.07l1.65-6h2.2L81 86.46a8.71 8.71 0 01.14 1 7.16 7.16 0 01.13-1l1.26-6.08zM86.57 81.93a1.14 1.14 0 01-.83-.31.94.94 0 01-.32-.73.91.91 0 01.32-.74 1.22 1.22 0 01.83-.29 1.24 1.24 0 01.84.29 1 1 0 01.32.74 1 1 0 01-.32.74 1.2 1.2 0 01-.84.3zm1 7.53h-2V83h2zM95.53 89.46h-2v-3.62c0-1-.36-1.51-1.08-1.51a1.1 1.1 0 00-.86.4 1.56 1.56 0 00-.33 1v3.71h-2V83h2v1a2.3 2.3 0 012.09-1.18q2.16 0 2.16 2.67zM103.48 89.46h-2v-.9a2.23 2.23 0 01-2 1 2.45 2.45 0 01-2-.86 3.57 3.57 0 01-.74-2.4 3.86 3.86 0 01.82-2.58 2.65 2.65 0 012.14-1 1.82 1.82 0 011.75.9v-3.79h2zm-2-3.17v-.49a1.51 1.51 0 00-.37-1 1.23 1.23 0 00-1-.42 1.22 1.22 0 00-1 .53 2.4 2.4 0 00-.37 1.43 2.08 2.08 0 00.36 1.32 1.19 1.19 0 001 .47 1.18 1.18 0 001-.49 2 2 0 00.41-1.35zM108.26 89.61a3.48 3.48 0 01-2.55-.91 3.77 3.77 0 010-5 3.62 3.62 0 012.61-.91 3.44 3.44 0 012.54.91 3.24 3.24 0 01.92 2.41 3.42 3.42 0 01-1 2.55 3.52 3.52 0 01-2.52.95zm0-5.28a1.35 1.35 0 00-1.1.49 2.19 2.19 0 00-.4 1.39c0 1.24.51 1.87 1.52 1.87s1.44-.64 1.44-1.93-.44-1.82-1.41-1.82zM122.52 83l-1.87 6.5h-2.11l-1-3.81a3.63 3.63 0 01-.11-.84 4.57 4.57 0 01-.13.81l-1 3.84h-2.1l-1.83-6.5h2l.9 4.24a5.62 5.62 0 01.09.72 3.46 3.46 0 01.12-.75l1.19-4.21h1.91l1 4.24c0 .1 0 .35.08.73a6.09 6.09 0 01.1-.73l.85-4.24zM123.05 89.28v-1.62a3.91 3.91 0 001 .44 3.21 3.21 0 00.93.15 2 2 0 00.84-.15.45.45 0 00.31-.44.43.43 0 00-.14-.32 1.38 1.38 0 00-.36-.22c-.15-.06-.31-.12-.48-.17l-.5-.17a4.84 4.84 0 01-.68-.32 1.81 1.81 0 01-.5-.39 1.63 1.63 0 01-.3-.51 2.08 2.08 0 01-.11-.69 1.75 1.75 0 01.24-.94 2 2 0 01.63-.65 3.22 3.22 0 01.91-.37 5.32 5.32 0 011.07-.11 6.47 6.47 0 01.87.06 6.59 6.59 0 01.88.2v1.55a3.46 3.46 0 00-.82-.34 3.61 3.61 0 00-.85-.11 1.45 1.45 0 00-.37 0 .94.94 0 00-.31.1.51.51 0 00-.21.17.42.42 0 000 .54.78.78 0 00.3.22l.4.17.45.14a7.29 7.29 0 01.73.31 2.26 2.26 0 01.55.39 1.47 1.47 0 01.36.52 2.12 2.12 0 01-.13 1.7 2 2 0 01-.67.66 3 3 0 01-1 .38 6 6 0 01-1.13.11 5.81 5.81 0 01-1.91-.29zM34.74 100.32v3.14h-2.05v-9.11h3.21q3.45 0 3.45 2.9a2.77 2.77 0 01-1 2.22 3.9 3.9 0 01-2.64.85zm0-4.39v2.83h.81c1.09 0 1.64-.47 1.64-1.43s-.55-1.4-1.64-1.4zM45.93 100.78h-4.24c.07.94.67 1.41 1.79 1.41a3.46 3.46 0 001.88-.51v1.45a5 5 0 01-2.34.48 3 3 0 01-3.31-3.3 3.48 3.48 0 01.94-2.57A3.11 3.11 0 0143 96.8a2.86 2.86 0 012.2.84 3.29 3.29 0 01.77 2.29zm-1.86-1.24c0-.93-.37-1.39-1.13-1.39a1.05 1.05 0 00-.83.4 1.83 1.83 0 00-.43 1zM51.37 98.76a1.75 1.75 0 00-.85-.19 1.23 1.23 0 00-1 .48 2.11 2.11 0 00-.37 1.3v3.11h-2V97h2v1.2a1.74 1.74 0 011.71-1.32 1.34 1.34 0 01.5.08zM56.86 95.37a2 2 0 00-.74-.15c-.64 0-1 .34-1 1V97h1.48v1.47h-1.44v5h-2v-5h-1.09V97h1.09v-.81a2.34 2.34 0 01.72-1.79 2.77 2.77 0 012-.68 3.22 3.22 0 011 .13zM60.71 103.61a3.48 3.48 0 01-2.56-.91 3.75 3.75 0 010-5 3.62 3.62 0 012.6-.91 3.44 3.44 0 012.54.91 3.2 3.2 0 01.92 2.41 3.38 3.38 0 01-1 2.55 3.49 3.49 0 01-2.5.95zm0-5.28a1.36 1.36 0 00-1.11.49 2.19 2.19 0 00-.39 1.39c0 1.24.5 1.87 1.51 1.87s1.44-.64 1.44-1.93-.43-1.82-1.4-1.82zM69.79 98.76a1.74 1.74 0 00-.84-.19 1.2 1.2 0 00-1 .48 2.05 2.05 0 00-.37 1.3v3.11h-2V97h2v1.2a1.72 1.72 0 011.71-1.32 1.24 1.24 0 01.49.08zM81.09 103.46h-2v-3.71c0-1-.35-1.42-1-1.42a1 1 0 00-.81.43 1.71 1.71 0 00-.31 1.06v3.64h-2v-3.75q0-1.38-1-1.38a1 1 0 00-.82.41 1.75 1.75 0 00-.31 1.1v3.62h-2V97h2v1a2.37 2.37 0 01.87-.85 2.45 2.45 0 011.23-.32A1.85 1.85 0 0176.78 98 2.41 2.41 0 0179 96.8c1.41 0 2.12.87 2.12 2.61zM88.08 103.46h-1.9v-.94a2.12 2.12 0 01-1.94 1.09 2.07 2.07 0 01-1.49-.53 1.94 1.94 0 01-.54-1.43c0-1.27.75-2 2.24-2.19l1.77-.23c0-.71-.39-1.07-1.16-1.07a4 4 0 00-2.21.69v-1.51A5.13 5.13 0 0184 97a5.92 5.92 0 011.32-.16 2.45 2.45 0 012.78 2.77zm-1.88-2.65v-.43l-1.18.15c-.66.08-1 .38-1 .88a.71.71 0 00.24.56.89.89 0 00.64.22 1.19 1.19 0 00.92-.39 1.4 1.4 0 00.38-.99zM96 103.46h-2v-3.62c0-1-.36-1.51-1.08-1.51a1.1 1.1 0 00-.86.4 1.56 1.56 0 00-.33 1v3.71h-2V97h2v1a2.3 2.3 0 012.09-1.18Q96 96.8 96 99.47zM102.46 103.22a4 4 0 01-2 .39 3.35 3.35 0 01-2.43-.9 3.18 3.18 0 01-.92-2.35 3.47 3.47 0 011-2.61 3.7 3.7 0 012.66-1 3.45 3.45 0 011.66.3v1.7a2.31 2.31 0 00-1.4-.47 1.76 1.76 0 00-1.88 1.9 1.87 1.87 0 00.49 1.36 1.79 1.79 0 001.32.49 2.69 2.69 0 001.47-.47zM109.61 100.78h-4.24c.07.94.67 1.41 1.79 1.41a3.46 3.46 0 001.88-.51v1.45a5 5 0 01-2.34.48 3 3 0 01-3.31-3.3 3.48 3.48 0 01.94-2.57 3.11 3.11 0 012.31-.94 2.86 2.86 0 012.2.84 3.29 3.29 0 01.77 2.29zm-1.86-1.24c0-.93-.37-1.39-1.13-1.39a1.05 1.05 0 00-.83.4 1.76 1.76 0 00-.43 1zM121.12 103.13a6.08 6.08 0 01-2.61.48 4.39 4.39 0 01-3.29-1.23A4.49 4.49 0 01114 99.1a4.79 4.79 0 011.35-3.54 4.69 4.69 0 013.5-1.36 6.42 6.42 0 012.25.34v2A4 4 0 00119 96a2.77 2.77 0 00-2.07.81 3 3 0 00-.78 2.19 2.91 2.91 0 00.74 2.1 2.64 2.64 0 002 .78 4.28 4.28 0 002.2-.58zM125.6 103.61a3.48 3.48 0 01-2.55-.91 3.77 3.77 0 010-5 3.66 3.66 0 012.61-.91 3.44 3.44 0 012.54.91 3.2 3.2 0 01.92 2.41 3.38 3.38 0 01-1 2.55 3.52 3.52 0 01-2.52.95zm.05-5.28a1.35 1.35 0 00-1.1.49 2.19 2.19 0 00-.39 1.39c0 1.24.5 1.87 1.51 1.87s1.44-.64 1.44-1.93-.49-1.82-1.46-1.82zM136.63 103.46h-2v-1a2.27 2.27 0 01-2 1.15c-1.51 0-2.26-.91-2.26-2.73V97h2v3.74c0 .92.36 1.38 1.09 1.38a1.11 1.11 0 00.87-.38 1.55 1.55 0 00.32-1V97h2zM144.6 103.46h-2v-3.62c0-1-.36-1.51-1.08-1.51a1.09 1.09 0 00-.86.4 1.57 1.57 0 00-.34 1v3.71h-2V97h2v1a2.29 2.29 0 012.09-1.18q2.16 0 2.16 2.67zM150.11 103.38a2.9 2.9 0 01-1.34.23c-1.41 0-2.12-.73-2.12-2.2v-3h-1.05V97h1.05v-1.45l2-.57v2h1.46v1.47h-1.46v2.63q0 1 .81 1a1.27 1.27 0 00.65-.19zM157 100.78h-4.24c.07.94.66 1.41 1.78 1.41a3.47 3.47 0 001.89-.51v1.45a5 5 0 01-2.34.48 3.32 3.32 0 01-2.45-.87 3.28 3.28 0 01-.87-2.43 3.52 3.52 0 01.94-2.57 3.14 3.14 0 012.31-.94 2.85 2.85 0 012.2.84 3.24 3.24 0 01.78 2.29zm-1.86-1.24c0-.93-.38-1.39-1.13-1.39a1.05 1.05 0 00-.83.4 1.76 1.76 0 00-.43 1zM162.46 98.76a1.74 1.74 0 00-.84-.19 1.2 1.2 0 00-1 .48 2.05 2.05 0 00-.37 1.3v3.11h-2V97h2v1.2a1.72 1.72 0 011.75-1.36 1.24 1.24 0 01.49.08zM163.05 103.28v-1.62a3.91 3.91 0 001 .44 3.11 3.11 0 00.93.15 2 2 0 00.84-.15.46.46 0 00.3-.44.4.4 0 00-.14-.32 1.31 1.31 0 00-.35-.22c-.15-.06-.31-.12-.48-.17s-.34-.11-.5-.17a5.61 5.61 0 01-.69-.32 1.92 1.92 0 01-.49-.39 1.49 1.49 0 01-.31-.51 2.09 2.09 0 01-.1-.69 1.75 1.75 0 01.24-.94 1.87 1.87 0 01.63-.65 3.22 3.22 0 01.91-.37 5.22 5.22 0 011.06-.11 6.62 6.62 0 01.88.06 6.45 6.45 0 01.87.2v1.55a3.23 3.23 0 00-.81-.34 3.69 3.69 0 00-.86-.11 1.5 1.5 0 00-.37 0 .88.88 0 00-.3.1.51.51 0 00-.21.17.41.41 0 00-.08.24.44.44 0 00.11.3 1 1 0 00.3.22 3.17 3.17 0 00.41.17l.45.14a6.21 6.21 0 01.72.31 2.32 2.32 0 01.56.39 1.45 1.45 0 01.35.52 1.7 1.7 0 01.13.71 2 2 0 01-.25 1 2 2 0 01-.67.66 3.16 3.16 0 01-1 .38 5.91 5.91 0 01-1.12.11 5.81 5.81 0 01-1.96-.3z"/>
    <path fill="#20bdf0" d="M96 44.61h29.89V19.2L96 23.18zM93.55 44.61V23.43l-19.91 2.75v18.43zM93.55 47.33H73.64v17.91l19.91 3zM96 47.33V68.5l29.89 4.23v-25.4z"/>
</svg>
