<svg xmlns="http://www.w3.org/2000/svg" viewBox="5.04 -14.96 1141.92 565.92">
	<defs>
		<style>
			.cls-1{fill:none}.cls-2{fill:#c11d2b}.cls-3{fill:#070707}
		</style>
	</defs>
	<path d="M320.553 287.628c4.339.955 8.487-1.06 11.493-4.5 2.47-2.828 3.412-6.371 3.712-10.055 2.333-28.673.7-57.399.853-86.097.028-5.35-.366-11.238-3.536-16.268-3.033-4.812-7.765-6.854-12.72-5.722-4.873 1.113-2.419 6.168-2.465 9.384-.245 17.18-.115 34.367-.116 51.551 0 17.515-.147 35.032.136 52.542.05 3.098-2.625 8.006 2.643 9.165zm716.781 239.033h6.71a34.826 34.826 0 0 0-6.71 0zm-49.86-17.694c-2.972-16.548-6.167-33.057-9.193-49.597-.535-2.929-.352-6.393-4.691-6.083-4.777.341-3.207 4.25-3.222 6.844-.117 19.497-.372 39.003.103 58.489.13 5.341-1.205 7.432-4.978 8.041h30.835c-5.883-1.083-6.588-5.083-8.853-17.694zm83.925 9.12q-7.579-51.33-15.267-102.645c-.178-1.195-.538-2.364-.986-4.291-2.72 3.59-1.61 6.761-1.617 9.678-.076 32.362-.206 64.725.138 97.083.051 4.77-.631 7.812-3.715 8.749h25.966c-4.567-.9-3.976-4.9-4.519-8.574zm30.822.362c.655-32.35.335-64.718.381-97.08a37.714 37.714 0 0 0-.828-9.597c-3.91 6.953-3.439 14.798-4.645 22.192-4.612 28.288-8.747 56.654-13.037 84.995-.5 3.303-.104 6.854-4.053 7.702h26.267c-2.624-.672-4.195-2.792-4.085-8.212zm10.201 8.212h2.655a15.76 15.76 0 0 0-2.655 0zM501.974 404.869c0 5.921-.048 11.843.01 17.764.088 8.743 3.75 10.732 11.503 6.338a13.362 13.362 0 0 0 6.912-10.24 88.622 88.622 0 0 0-.202-27.496c-1.031-6.088-4.496-9.986-10.512-11.755-5.233-1.54-8.193-.837-7.806 5.656.39 6.556.086 13.153.095 19.733zM949.59 171.987c7.378-.16 11.667-4.32 12.342-11.557.634-6.803-5.23-12.668-13.354-12.867-6.144.555-10.45 4.533-11.248 11.69-.739 6.626 5.35 12.883 12.26 12.734zM443.6 215.695c2.977 1.617 6.447-.144 9.262-1.876 11.861-7.297 11.797-39.414-.043-46.83a13.81 13.81 0 0 0-2.621-1.34c-4.907-1.758-8.278-1.612-7.861 5.212.4 6.55.086 13.144.083 19.718 0 5.917-.084 11.835.039 17.75.053 2.539-1.233 6.077 1.141 7.366z" class="cls-1"/>
	<path d="M848.348 206.12c-6.246 3.743-7.92 9.773-4.26 16.218 3.635 6.398 9.718 8.386 16.074 4.794 3.964-2.24 6.38-1.34 9.69.588q29.944 17.447 60.085 34.554c4.173 2.362 7.194 4.832 8.148 10.034 1.078 5.871 5.878 8.962 11.54 9.133 6.292.19 11.118-3.533 12.061-9.643.751-4.865 3.631-6.513 7.088-8.499 15.455-8.875 30.638-18.253 46.364-26.614 8.947-4.757 16.798-15.11 28-8.16 6.844.295 10.61-2.452 12.647-7.58 2.075-5.219.958-10.421-3.41-13.338-4.329-2.892-4.978-6.152-4.948-10.71q.233-35.18-.005-70.363c-.03-4.24.691-7.349 4.466-10.064 5.196-3.737 6.43-9.32 3.228-14.935-3.298-5.784-8.876-8.842-15.04-5.566-4.89 2.599-8.026.766-11.732-1.369-20.297-11.697-40.545-23.48-60.942-34.999-4.255-2.403-5.469-5.208-5.654-10.13-.29-7.69-5.298-12.028-13.257-11.231-7.287.729-11.629 5.41-10.977 12.61.399 4.403-.54 6.464-4.201 8.53q-31.897 18.002-63.554 36.427c-3.416 1.988-5.934 2.646-9.812.528-6-3.277-11.764-1.58-15.45 4.301-3.938 6.283-2.773 12.388 3.345 16.397 3.95 2.589 4.888 5.477 4.862 9.775-.138 23.454-.1 46.91-.005 70.364.015 3.83-.49 6.635-4.35 8.948zm9.475-79.633c.05-10.472 5.23-13.32 14.158-8.067 16.22 9.543 32.415 19.129 48.678 28.598 1.76 1.024 4.095 3.765 5.886.809 1.691-2.792-1.517-3.88-3.347-4.975-16.43-9.825-32.916-19.558-49.37-29.344-9.739-5.793-9.848-8.575-.434-14.028q31.284-18.121 62.65-36.102c8.396-4.8 11.094-3.224 11.13 6.372.071 18.175-.117 36.352.155 54.523.052 3.458-2.368 9.68 2.84 9.78 4.161.08 2.11-5.996 2.147-9.257.213-18.503.037-37.01.128-55.515.047-9.47 2.932-11.042 11.232-6.269q31.339 18.024 62.613 36.162c8.376 4.882 8.49 12.159.2 16.945-15.147 8.748-30.518 17.111-45.605 25.96-2.748 1.61-8.967 2.546-6.946 6.466 2.377 4.608 6.3-.549 8.95-1.991 15.942-8.678 31.605-17.865 47.453-26.718 8.635-4.824 11.94-2.819 11.978 7.21q.128 34.698.003 69.396c-.034 10.949-5.074 13.58-14.798 7.86-14.798-8.704-29.557-17.476-44.393-26.115-2.936-1.71-5.647-4.741-9.814-3.078-.062 5.21 4.419 5.636 7.206 7.32 14.98 9.044 30.159 17.759 45.192 26.716 9.107 5.426 9.084 10.216.022 15.478q-29.125 16.91-58.322 33.697c-9.12 5.243-14.878 1.89-14.95-8.834-.121-17.844.028-35.69-.104-53.533-.017-2.326 1.513-6.442-2.036-6.564-4.295-.148-3.029 4.296-3.048 6.925-.13 17.513-.006 35.028-.08 52.542-.05 11.74-5.306 14.749-15.361 8.934q-28.718-16.61-57.428-33.232c-10.731-6.205-10.918-10.245-.445-16.258 16.034-9.207 32.186-18.208 48.26-27.347 2.155-1.225 6.052-2.295 4.176-5.424-1.915-3.194-4.739.042-6.768 1.172-16.436 9.155-32.762 18.506-49.155 27.738-9.099 5.125-12.617 3.067-12.655-7.565q-.129-35.193.002-70.387zm-127.928 89.31c3.437 1.206 7.189-.572 9.897-3.253 7.319-7.243 7.183-16.536 6.773-25.833-.359-8.13-1.512-16.162-9.595-20.426-4.87-2.57-9.727-3.528-9.107 5.147.448 6.246.088 12.55.09 18.83 0 5.617-.249 11.25.101 16.846.186 2.972-2.208 7.27 1.841 8.69zm-55.13 247.936c3.788 1.03 5.913-.497 5.145-5.391-2.737-17.449-5.01-34.97-7.458-52.465l-2.019-.28c-2.497 18.02-5.763 35.979-7.143 54.082-.626 8.213 7.494 2.972 11.475 4.054zm-97.518 62.928h18.065a2545.83 2545.83 0 0 0-18.065 0zm109.88-11.998c-.078-2.294-.62-4.57-.887-6.86-1.929-16.634-1.942-16.134-18.327-16.722-7.375-.265-9.925 2.242-10.256 9.037a71.29 71.29 0 0 1-1.913 13.667c-1.051 4.224 1.597 10.89-3.41 12.268-.915.252-1.855.444-2.806.608h41.76c-3.085-1.824-3.974-6.496-4.161-11.998zm291.035-86.267a14.166 14.166 0 0 0 8.196-8.133 45.036 45.036 0 0 0 .13-32.776 13.136 13.136 0 0 0-7.97-8.32c-4.9-1.714-9.04-2.76-8.331 5.198.554 6.22.111 12.53.115 18.8 0 6.6.489 13.245-.13 19.787-.706 7.48 2.612 7.617 7.99 5.444zM125.27 526.66h29.544c-9.825-.43-19.696-.287-29.544 0zm613.388 0h5.354a22.4 22.4 0 0 0-5.354 0z" class="cls-1"/>
	<path d="M871.236 302.893c5.317 6.733 11.658 10.098 20.37 9.97 19.158-.284 38.324-.088 57.486-.1s38.33-.237 57.486.084c9.342.157 16.19-2.976 22.076-10.498 23.398-29.895 47.169-59.5 70.991-89.06 5.586-6.93 7.575-13.952 5.468-22.874q-13.303-56.324-25.764-112.845c-1.885-8.472-6.356-13.934-14.187-17.643-34.303-16.249-68.56-32.603-102.6-49.391-8.797-4.34-16.384-4.553-25.26-.167q-51.024 25.213-102.546 49.415c-8.194 3.874-12.68 9.514-14.63 18.388-8.005 36.406-16.122 72.796-24.965 109.004-2.693 11.03-.937 19.457 6.259 28.247 23.63 28.865 46.698 58.19 69.816 87.47zm-18.532-176.085c.026-4.298-.911-7.186-4.862-9.775-6.118-4.01-7.283-10.114-3.346-16.397 3.687-5.881 9.452-7.578 15.45-4.301 3.88 2.118 6.397 1.46 9.813-.528q31.655-18.424 63.554-36.426c3.661-2.067 4.6-4.128 4.201-8.53-.652-7.2 3.69-11.882 10.977-12.611 7.96-.797 12.967 3.54 13.257 11.231.185 4.922 1.399 7.727 5.654 10.13 20.397 11.52 40.645 23.302 60.942 35 3.706 2.134 6.842 3.967 11.731 1.368 6.165-3.276 11.743-.218 15.041 5.566 3.202 5.615 1.968 11.198-3.228 14.935-3.775 2.715-4.495 5.823-4.466 10.064q.237 35.18.005 70.364c-.03 4.557.62 7.817 4.949 10.709 4.367 2.917 5.484 8.12 3.409 13.339-2.038 5.127-5.803 7.874-12.648 7.58-11.2-6.952-19.052 3.402-28 8.159-15.725 8.361-30.908 17.739-46.363 26.614-3.457 1.986-6.337 3.634-7.088 8.499-.943 6.11-5.769 9.832-12.06 9.643-5.663-.17-10.463-3.262-11.54-9.133-.955-5.202-3.976-7.672-8.149-10.034q-30.157-17.076-60.085-34.554c-3.31-1.928-5.726-2.828-9.69-.588-6.356 3.592-12.44 1.604-16.074-4.794-3.66-6.445-1.986-12.475 4.26-16.218 3.86-2.313 4.366-5.118 4.351-8.948-.094-23.455-.133-46.91.005-70.364z" class="cls-2"/>
	<path d="M1044.044 526.661h5.908c3.084-.937 3.766-3.979 3.715-8.749-.344-32.358-.214-64.721-.138-97.083.007-2.917-1.103-6.087 1.617-9.678.449 1.927.808 3.096.986 4.291q7.662 51.318 15.267 102.645c.543 3.674-.048 7.674 4.52 8.574h4.12c3.95-.848 3.553-4.399 4.053-7.702 4.29-28.34 8.425-56.707 13.037-84.995 1.206-7.394.735-15.239 4.645-22.192a37.714 37.714 0 0 1 .828 9.597c-.046 32.362.275 64.73-.381 97.08-.11 5.42 1.46 7.54 4.085 8.212h6.116a15.76 15.76 0 0 1 2.655 0h6.253c2.293-.646 3.896-2.685 3.823-8.299-.628-48.204-.26-96.421-.26-144.634 0-20.805-.009-20.422-21.07-20.917-7.635-.179-9.926 2.277-11.153 9.608-4.02 24.023-8.982 47.889-13.581 71.815l-2.37.061c-3.687-19.262-7.434-38.512-11.047-57.787-4.588-24.485-4.535-24.27-28.959-23.659-5.896.147-6.99 2.167-6.972 7.513q.258 79.748.006 159.498c-.01 3.764.6 6.149 3.308 6.801h4.28a34.826 34.826 0 0 1 6.709 0zM50.802 305.213c.918 7.255 3.611 8.704 9.889 8.177 5.642-.474 11.113 1.64 12.15-8 2.743-25.5 8.593-59.24 12.485-86.228 3.188 12.88 3.714 22.548 4.611 29.37 2.537 19.283 5.855 38.47 8.045 57.786 1.118 9.86 7.851 6.266 13.073 7.03 5.81.848 8.053-1.371 8.765-7.337 2.535-21.26 5.671-42.447 8.546-63.666 4.292-31.685 8.467-63.386 12.909-95.05.527-3.753.12-6.201-1.789-7.293H121.32c-2.231 1.204-3.104 3.91-3.47 8.006-1.754 19.683-4.313 39.294-6.58 58.932-1.06 9.19-2.17 18.376-3.259 27.564L95.616 148.42c-.427-3.847-.77-7.113-3.536-8.419H79.72c-2.597.66-4.467 2.557-4.826 8.22L61.751 228.48c-2.662-24.252-5.359-47.798-7.795-71.371-1.231-11.918-1.587-15.85-6.518-17.106H31.216c-1.902.748-2.35 2.498-1.78 6.533q11.21 79.267 21.366 158.678zm161.288 8.107c6.647.648 10.741.14 10.523-8.96-.698-29.034-.259-58.095-.259-87.97 3.507 1.917 3.432 4.376 4.012 6.48q10.496 38.11 20.979 76.225c4.125 14.928 4.159 14.676 19.68 14.35 5.14-.108 6.99-1.496 6.8-6.756-.355-9.894-.111-19.809-.11-29.715 0-42.928-.159-85.857.163-128.782.033-4.304-.701-7.01-2.887-8.19h-17.227c-2.86 1.472-3.96 4.921-3.77 10.927.837 26.39.319 52.825.291 79.242a52.23 52.23 0 0 1-.618 5.729 14.27 14.27 0 0 1-3.376-6.486q-11.59-41.896-23.136-83.804c-.783-2.854-1.922-4.59-3.284-5.608h-18.945c-2.624 1.182-1.342 5.53-1.349 8.143-.126 52.174.248 104.352-.35 156.518-.135 11.787 7.032 8.09 12.863 8.657zm91.135.097c8.175-.863 16.48-.46 24.671-1.216 17.919-1.652 28.002-10.931 31.779-28.617a149.12 149.12 0 0 0 3.379-30.364c.158-27.977 2.26-56.054-3.386-83.773-3.593-17.636-11.675-25.154-29.444-28.644a53.439 53.439 0 0 0-5.981-.8h-28.204c-2.454 1.014-3.385 3.44-3.305 8.051.452 26.055.178 52.122.175 78.184-.004 25.732.388 51.474-.224 77.192-.204 8.58 2.589 10.825 10.54 9.987zm14.549-87.496c0-17.184-.129-34.37.116-51.551.046-3.216-2.408-8.271 2.465-9.384 4.955-1.132 9.687.91 12.72 5.722 3.17 5.03 3.564 10.918 3.536 16.268-.153 28.698 1.48 57.424-.853 86.097-.3 3.684-1.242 7.227-3.712 10.055-3.006 3.44-7.154 5.455-11.493 4.5-5.268-1.16-2.593-6.067-2.643-9.165-.282-17.51-.136-35.027-.136-52.542zm99.258-.175v71.314c0 16.47.007 16.089 16.862 16.429 7.116.143 8.84-2.112 8.679-8.93-.452-19.139-.22-38.295-.074-57.443.02-2.535-1.82-6.512 2.974-6.995 4.87-.49 4.696 3.371 5.285 6.62q4.498 24.806 9.149 49.584c3.33 17.552 3.388 17.19 21.15 17.162 6.437-.011 6.62-2.149 5.557-7.359-4.676-22.927-9.042-45.918-13.422-68.905-.592-3.103-2.42-6.52.3-9.405 12.25-12.996 12.546-29.1 12.07-45.445-.742-25.5-13.049-39.836-36.3-42.37h-28.529c-2.974 1.326-4.148 4.53-3.963 10.476.783 25.067.264 50.175.262 75.267zm25.387-35.167c.003-6.574.317-13.168-.083-19.718-.417-6.824 2.954-6.97 7.86-5.211a13.81 13.81 0 0 1 2.622 1.34c11.84 7.415 11.904 39.532.043 46.83-2.815 1.731-6.285 3.492-9.262 1.875-2.374-1.29-1.088-4.827-1.14-7.366-.124-5.915-.04-11.833-.04-17.75zm260.035 35.23q-.005 35.658-.002 71.317c.004 16.411.016 16.037 16.94 16.36 7.078.134 8.883-2.059 8.72-8.916-.455-19.14-.23-38.297-.065-57.445.021-2.494-1.962-6.57 2.89-7.004 4.794-.429 4.62 3.381 5.205 6.686 3.043 17.202 6.317 34.362 9.344 51.566 2.639 14.998 2.568 14.422 18.06 15.157 8.952.425 9.52-2.878 8.001-10.16-4.642-22.248-8.838-44.591-13.117-66.914-.598-3.12-1.936-6.283.763-9.376 14.599-16.727 13.016-36.662 9.977-56.328-2.204-14.262-10.379-24.799-24.938-29.168a43.883 43.883 0 0 0-8.301-1.582h-30.255c-2.557 1.076-3.518 3.64-3.418 8.551.525 25.743.199 51.503.196 77.256zm25.6-18.701c-.35-5.596-.1-11.23-.1-16.847-.003-6.278.357-12.583-.09-18.83-.621-8.674 4.236-7.716 9.106-5.146 8.083 4.264 9.237 12.295 9.595 20.426.41 9.297.546 18.59-6.773 25.833-2.708 2.68-6.46 4.459-9.897 3.254-4.05-1.42-1.655-5.718-1.84-8.69zM970.471 518.62c-.475-19.486-.22-38.992-.103-58.489.016-2.593-1.555-6.503 3.222-6.844 4.339-.31 4.156 3.154 4.691 6.083 3.026 16.54 6.221 33.049 9.194 49.597 2.265 12.611 2.97 16.61 8.853 17.694h14.984c3.568-.502 4.163-2.143 3.193-6.782-4.86-23.226-9.2-46.56-13.638-69.871-.59-3.102-2.397-6.457.458-9.378 13.156-13.455 13.088-30.445 11.993-47.317-1.766-27.222-16.525-40.467-43.652-40.304-5.619.034-11.288.475-16.844-.118-6.817-.727-8.234 2.035-8.154 8.359.328 26.103.137 52.212.135 78.319q-.004 35.195-.003 70.39c0 13.288.005 16.07 8.163 16.702h12.53c3.773-.609 5.108-2.7 4.978-8.041zm-.17-115.456c-.003-6.27.44-12.579-.114-18.8-.71-7.957 3.43-6.91 8.332-5.198a13.136 13.136 0 0 1 7.969 8.32 45.036 45.036 0 0 1-.13 32.777 14.166 14.166 0 0 1-8.196 8.133c-5.378 2.173-8.696 2.036-7.99-5.444.619-6.542.13-13.188.13-19.788zm-317.967 122.89c5.007-1.38 2.359-8.045 3.41-12.268a71.29 71.29 0 0 0 1.913-13.668c.332-6.795 2.881-9.302 10.257-9.037 16.384.588 16.397.088 18.327 16.721.265 2.292.808 4.567.886 6.862.187 5.501 1.076 10.173 4.162 11.997h12.851c9.352-.209 8.989-1.71 7.32-12.601q-10.618-69.307-20.96-138.655c-3.314-22.474-3.068-22.115-25.459-22.602-7.788-.17-9.754 2.46-10.706 9.703-3.171 24.144-7.25 48.167-10.887 72.25-4.181 27.681-8.337 55.366-12.273 83.081-.399 2.808-2.897 7.685 1.553 8.437a74.87 74.87 0 0 0 2.573.387h14.227c.95-.164 1.891-.356 2.806-.608zm10.956-66.375c1.38-18.103 4.646-36.063 7.143-54.081l2.02.279c2.448 17.494 4.72 35.016 7.457 52.465.767 4.894-1.357 6.421-5.145 5.391-3.98-1.082-12.1 4.16-11.475-4.054zm-97.916-152.42c.292 1.895-.31 4.96 1.832 5.156 7.177.657 14.502 1.34 21.611.563 5.27-.577 3.522-6.638 4.045-9.939q11.669-73.722 22.529-147.572c1.684-11.312 2.047-14.45-3.508-15.465H596.53c-2.95 1.075-3.967 3.638-4.46 8.151-2.107 19.332-4.949 38.584-7.536 57.863-1.514 11.28-3.088 22.552-4.635 33.827l-2.22-.027q-5.758-42.081-11.523-84.16c-1.35-9.79-1.952-14.009-5.418-15.654H542.42c-2.305.886-2.556 2.8-2.04 6.1q12.586 80.565 24.994 161.158zm-63.227 210.816c-.492-17.818.02-35.66-.278-53.487-.09-5.457.756-7.547 7.122-8.363 18.484-2.37 30.43-13.21 35.232-31.416a80.92 80.92 0 0 0 .957-36.276c-4.507-23.378-19.867-35.6-43.909-35.516-5.614.02-11.273.44-16.832-.114-6.554-.653-8.294 1.672-8.201 8.162.371 26.08.153 52.17.15 78.256q-.005 35.166-.004 70.333c0 14.242.015 16.478 9.574 17.007h11.007c4.043-.662 5.336-3.02 5.182-8.586zm7.538-138.595c6.016 1.77 9.48 5.667 10.512 11.755a88.622 88.622 0 0 1 .202 27.496 13.362 13.362 0 0 1-6.912 10.24c-7.753 4.394-11.415 2.405-11.502-6.338-.06-5.921-.011-11.843-.011-17.764-.009-6.58.295-13.177-.095-19.733-.387-6.493 2.573-7.196 7.806-5.656zm127.749-66.066c12.546-.355 25.11-.023 37.666-.13 15.16-.129 12.99 2.004 13.11-13.082.103-13.158.017-13.156-13.016-13.134-4.626.008-9.278-.302-13.872.084-5.407.454-6.694-1.87-6.512-6.877.348-9.568.902-19.243-.112-28.716-1.132-10.577 2.733-14.147 12.78-12.354 8.766 1.565 11.88-1.608 11.393-10.958-.852-16.381-.232-16.718-16.383-16.71-6.089.002-8.146-1.665-7.703-7.828.543-7.559.126-15.187.126-22.786 0-15.05 0-15.05 14.817-15.035 19.378.018 19.092.024 18.67-19.497-.082-3.747-1-5.588-2.92-6.389h-52.84c-2.112.99-2.643 3.253-2.633 6.825q.228 79.784-.029 159.568c-.022 5.851 2.045 7.171 7.458 7.019zM815.53 518.245c-.328-19.812.046-39.634-.23-59.447-.079-5.577.706-8.198 7.357-8.172 16.599.063 16.6-.323 16.443-17.347a23.03 23.03 0 0 1 .019-2.97c.521-4.29-1.313-5.71-5.612-5.783-5.808-.099-13.92 2.862-16.838-1.476-2.949-4.383-1.079-12.032-1.245-18.252-.088-3.3-.016-6.606-.017-9.908-.008-16.224-.008-16.224 16.713-16.24 19.076-.018 18.788-.013 18.476-18.78-.1-5.979-2.278-7.06-7.572-6.96-15.19.292-30.398.391-45.582-.043-6.213-.178-7.76 1.795-7.683 7.843.33 26.088.141 52.183.14 78.275q-.004 35.175-.003 70.35c0 13.818.006 16.673 8.306 17.325h12.494c4.17-.745 4.917-3.404 4.834-8.415zm-71.518 8.415h7.333c3.366-1.161 4.36-4.643 4.29-10.584-.502-42.93-.07-85.872-.393-128.806-.053-6.968 1.817-8.962 8.801-8.792 15.908.39 15.917.007 15.855-16.07a30.566 30.566 0 0 1 .026-3.96c.578-4.53-1.708-5.52-5.776-5.493-20.811.135-41.623.04-62.435.084-2.479.005-5.76-.781-5.726 3.385.056 6.9-1.628 14.704 1.062 20.412 2.157 4.577 10.288 1.918 15.614 1.609 7.037-.408 7.98 2.593 7.894 8.61-.308 21.793-.121 43.595-.12 65.393 0 22.129.19 44.26-.129 66.385-.061 4.271.578 7.02 3.438 7.827h4.912a22.4 22.4 0 0 1 5.354 0zm-589.198 0h10.896c4.45-.939 6.061-4.058 5.957-11.302-.138-9.627-1.947-14.133-12.313-12.284-3.518.628-7.296-.306-10.86.174-8.62 1.16-11.746-1.339-11.601-10.931.618-40.897.26-81.808.26-122.714-.001-16.712-.015-16.256-16.38-16.792-7.615-.25-9.29 2.056-9.155 9.37.476 25.722.185 51.458.181 77.19-.004 26.39.23 52.785-.168 79.17-.08 5.25 1.142 7.511 4.857 8.119h8.782c9.848-.287 19.719-.43 29.544 0zm440.498 0h20.547c1.568-.116 2.95-.637 3.04-2.745.267-6.24 1.535-13.131-.608-18.573-1.952-4.956-8.85-1.503-13.514-2.08a44.31 44.31 0 0 0-10.872-.002c-6.606.832-8.907-.99-8.833-8.334.422-41.578.203-83.162.203-124.744 0-17.538-.005-17.144-17.883-17.373-6.988-.09-7.915 2.555-7.851 8.538.277 26.069.119 52.142.12 78.213q.002 39.602.019 79.204c.004 3.34-1.094 7.19 3.43 7.896h14.137a2549.41 2549.41 0 0 1 18.065 0zM502.603 295.82c-.003 17.864 0 17.457 17.63 17.66 7.119.082 7.924-2.712 7.86-8.697-.277-26.103-.118-52.21-.12-78.317s-.264-52.216.17-78.315c.071-4.357-.695-7-2.908-8.149h-19.553c-2.428 1.257-3.301 4.171-3.26 9.097.4 48.904.19 97.813.181 146.721zM154.92 226.53c.005 26.383.187 52.768-.134 79.147-.073 6.023 1.444 8.595 7.67 7.692a26.596 26.596 0 0 1 7.896 0c8.443 1.349 10.195-2.386 10.137-10.33-.36-48.805-.174-97.614-.178-146.423 0-12.184-.019-15.546-6.034-16.614h-16.008c-2.913 1.102-3.558 3.738-3.496 8.371.348 26.049.143 52.105.147 78.158z" class="cls-3"/>
	<path d="M870.476 204.44c16.393-9.233 32.72-18.584 49.155-27.739 2.03-1.13 4.853-4.366 6.768-1.172 1.876 3.129-2.021 4.2-4.177 5.424-16.073 9.139-32.225 18.14-48.259 27.347-10.473 6.013-10.286 10.053.445 16.258q28.72 16.606 57.428 33.232c10.055 5.815 15.311 2.806 15.361-8.934.074-17.514-.05-35.029.08-52.542.02-2.63-1.247-7.073 3.048-6.925 3.55.122 2.019 4.238 2.036 6.564.132 17.844-.017 35.69.103 53.533.073 10.725 5.83 14.077 14.951 8.834q29.198-16.785 58.322-33.697c9.062-5.262 9.085-10.052-.022-15.478-15.033-8.957-30.212-17.672-45.192-26.717-2.787-1.683-7.268-2.109-7.206-7.319 4.167-1.663 6.878 1.369 9.814 3.078 14.836 8.64 29.595 17.411 44.393 26.116 9.724 5.719 14.764 3.088 14.798-7.861q.107-34.698-.003-69.396c-.038-10.029-3.343-12.034-11.978-7.21-15.848 8.853-31.511 18.04-47.453 26.718-2.65 1.442-6.573 6.599-8.95 1.99-2.021-3.919 4.198-4.854 6.946-6.465 15.087-8.849 30.458-17.212 45.606-25.96 8.288-4.786 8.175-12.063-.201-16.945q-31.236-18.202-62.613-36.162c-8.3-4.773-11.185-3.2-11.232 6.269-.091 18.505.085 37.012-.128 55.515-.038 3.26 2.014 9.337-2.148 9.257-5.207-.1-2.787-6.322-2.839-9.78-.272-18.17-.084-36.348-.154-54.523-.038-9.596-2.735-11.173-11.131-6.372q-31.386 17.945-62.65 36.102c-9.414 5.453-9.305 8.235.435 14.028 16.453 9.786 32.939 19.519 49.37 29.344 1.83 1.094 5.037 2.183 3.346 4.975-1.791 2.956-4.126.215-5.886-.81-16.263-9.468-32.458-19.054-48.678-28.597-8.928-5.253-14.107-2.405-14.158 8.067q-.168 35.193-.002 70.387c.038 10.632 3.556 12.69 12.655 7.565zm66.855-45.187c.798-7.157 5.104-11.135 11.248-11.69 8.124.2 13.988 6.064 13.354 12.867-.675 7.238-4.964 11.397-12.342 11.557-6.91.15-12.999-6.108-12.26-12.734z" class="cls-2"/>
	<path fill="#fff" d="M35.59 139.466a12.995 12.995 0 0 0-4.374.536h16.222c-2.516-.64-6.22-.586-11.848-.536zm98.566.07a22.409 22.409 0 0 1-6.92-.01c-2.633-.441-4.534-.27-5.917.476h18.167c-1.169-.669-2.9-.83-5.33-.466zm-46.875-.06c-2.725.287-5.395-.023-7.56.526H92.08a8.982 8.982 0 0 0-4.8-.526zm116.885.378a5.416 5.416 0 0 0-3.24.148h18.945c-4.296-3.21-10.843.776-15.705-.148zm60.89-.293a8.973 8.973 0 0 1-2.964-.002c-3.686-.65-6.402-.547-8.328.443h17.227c-1.36-.733-3.279-.88-5.934-.44zm36.596-.074a12.537 12.537 0 0 0-5.613.515h28.204c-7.525-.612-15.086.057-22.591-.515zm140.587.106c-4.623-.047-9.304.46-13.857-.106-3.306-.41-5.817-.302-7.649.515h28.529a71.286 71.286 0 0 0-7.023-.41zm269.538-.13a13.425 13.425 0 0 0-6.1.54h30.254c-8.014-.801-16.137.098-24.154-.54zm-166.157-.028a10.684 10.684 0 0 0-3.2.567h18.317c-2.71-1.286-7.172-.998-15.117-.567zm55.896-.033a13.694 13.694 0 0 0-4.987.6h15.354a79.427 79.427 0 0 0-10.367-.6zm79.197.105c-7.252.362-14.535.09-21.804.088s-14.568.395-21.8-.126a9.09 9.09 0 0 0-4.472.533h52.84a11.275 11.275 0 0 0-4.764-.495zm-161.41.034a23.358 23.358 0 0 1-6.924-.008c-2.981-.464-5.152-.33-6.697.47h19.553c-1.372-.713-3.297-.853-5.931-.462zm-356.015-.15a13.528 13.528 0 0 0-5.019.611h16.008a84.907 84.907 0 0 0-10.99-.611z"/>
	<path d="M418.957 381.593c-4.167-16.989-13.028-25.599-30.466-27.71-8.476-1.025-17.174-.14-25.682-1.005-8.446-.86-11.344 1.387-11.079 10.562.735 25.41.255 50.856.253 76.288-.001 26.422.176 52.847-.135 79.266-.07 6.034 1.494 8.324 7.731 7.802 8.867-.742 17.838-.33 26.68-1.233 19.775-2.02 28.943-10.118 32.84-29.722 5.314-26.74 3.77-53.875 3.22-80.886-.227-11.151-.667-22.373-3.362-33.362zm-23.858 104.04a22.841 22.841 0 0 1-3.238 10.282c-2.879 4.568-7.7 5.545-12.218 4.565-4.555-.989-2.192-5.56-2.228-8.435-.22-17.512-.11-35.028-.11-52.543.01-17.184-.172-34.371.176-51.549.064-3.179-3.107-8.583 3.42-9.42 5.398-.694 10.012 1.372 12.016 6.667a39.595 39.595 0 0 1 2.832 12.473c.914 29.322 2.067 58.658-.65 87.96zm531.413-102.558c-.945-18.551-13.515-30.903-30.295-32.07-18.4-1.28-30.73 8.133-35.247 27.361a65.889 65.889 0 0 0-1.579 14.665c-.138 31.006-.04 62.013-.092 93.02-.014 7.993.924 15.771 4.217 23.135 8.025 17.945 28.19 25.019 45.448 15.723 11.862-6.39 17.222-17.251 17.678-30.058.645-18.115.163-36.27.163-54.407l-.078-.001c0-19.127.757-38.291-.215-57.368zM902.128 490.35c-.032 6.198-.842 13.083-8.683 13.036-7.677-.047-8.735-6.754-8.74-13.04q-.037-50.515.02-101.03a24.685 24.685 0 0 1 .435-5.909c1.123-4.492 3.65-8.065 8.73-7.81 4.55.229 7.272 3.55 7.597 7.835.572 7.55.58 15.148.641 22.727.091 11.225.024 22.451.024 33.677.005 16.838.062 33.676-.024 50.514zM221.036 351.533c-22.734-4.11-39.702 10.214-40.696 35.317-.69 17.456-.133 34.961-.133 52.444h-.059c0 17.154-.422 34.322.127 51.458.487 15.22 5.095 28.88 20.668 35.25 23.899 9.776 46.51-6.668 47.056-34.928.664-34.296.504-68.618.033-102.92-.269-19.584-11.406-33.803-26.996-36.621zm1.529 139.531c.001 6.028-1.112 12.307-8.278 12.329-7.52.023-9.045-6.381-9.06-12.766-.039-16.837-.013-33.674-.013-50.512h-.03c0-17.166-.048-34.332.024-51.498.027-6.33 1.486-12.847 9.018-12.85 7.1-.003 8.347 6.192 8.343 12.28q-.036 51.509-.004 103.017zm94.919-138.224c-7.443-.23-10.11 1.365-9.968 9.538.54 31.015.22 62.046.214 93.07-.003 12.542.067 25.086-.088 37.626-.068 5.422-2.16 10.208-8.223 10.44-6.205.237-7.837-5.051-9.074-9.97-.31-1.23.081-2.624.083-3.942q.054-59.903.09-119.807c.011-17.02-.001-16.704-17.132-16.949-6.442-.092-8.343 1.64-8.22 8.172.413 21.776.157 43.564.157 65.347h.042c0 21.783-.575 43.586.142 65.345.941 28.548 23.557 44.705 47.345 33.992 15.899-7.16 20.297-21.739 20.408-37.666.274-39.604.087-79.212.087-118.818 0-16.271-.01-15.89-15.863-16.378zM87.54 467.233a24.913 24.913 0 0 1-6.92-.007c-6.028-.839-8.227 1.345-7.809 7.609.437 6.54-.137 13.168-.57 19.738-.348 5.287-3.316 8.838-8.721 8.969-6.057.146-8.57-4.146-9.414-9.484a51.057 51.057 0 0 1-.391-7.904q-.036-46.545 0-93.09a59.023 59.023 0 0 1 .382-7.907c.739-5.42 3.365-9.695 9.321-9.555 5.259.125 8.311 3.659 8.79 8.968.384 4.26.69 8.543.715 12.818.086 15.125.035 15.124 15.341 14.789a13.484 13.484 0 0 1 1.98.002c4.92.625 6.233-1.765 6.006-6.341-.343-6.916.19-13.881-.282-20.783-1.34-19.59-13.478-32.857-30.742-34.051-19.22-1.33-31.546 8.504-35.533 29.338-3.751 19.605-.373 39.509-1.802 59.247 1.43 20.391-1.955 40.948 2 61.209 3.284 16.816 15.233 27.316 31.135 28.32 15.024.95 28.174-9.344 33.334-25.801 2.843-9.066 1.015-18.368 1.932-27.498.717-7.128-1.927-9.576-8.752-8.586z" class="cls-3"/>
</svg>
