<svg xmlns="http://www.w3.org/2000/svg" width="1000" height="550.577">
	<path d="M532.804 5.78c5.692 1.805 11.217 3.707 16.375 5.931-1.56 4.775-3.155 9.68-4.715 14.455-4.966-1.892-10.265-3.593-15.634-5.031 1.369-5.107 2.571-10.117 3.974-15.355zm-20.622 12.017c-5.972-.758-12.014-1.254-18.292-1.393.617-5.448 1.366-10.861 1.984-16.309 6.54.21 13.07.976 19.4 1.97-.975 5.212-1.986 10.555-3.092 15.732zm-37.111-.821a288.096 288.096 0 0 0-20.568 2.909c-.334-5.563-.502-11.222-.67-16.88 7.52-1.353 14.638-2.253 21.912-2.69-.225 5.554-.484 11.238-.674 16.66zm-41.601 8.079c-7.207 2.28-14.65 4.916-22.163 7.815-1.32-5.546-2.475-11.188-3.726-16.997 7.976-3.055 16.109-5.647 24.006-7.882.56 5.763 1.156 11.396 1.883 17.064zm-44.564 18.092a273.872 273.872 0 0 0-23.4 12.956c-2.343-5.399-4.852-10.702-7.325-16.136 8.502-5.02 16.733-9.55 25.252-13.583 1.845 5.687 3.593 11.207 5.473 16.763zM342.758 71.34c-7.857 5.753-15.654 11.804-23.293 18.318-3.671-4.632-7.438-9.43-11.335-14.264 8.434-6.862 16.764-13.331 25.25-19.338 3.233 5.217 6.24 10.233 9.378 15.284zm-45.436 38.628c-7.422 7.274-14.687 15.01-21.665 23.245-5.165-3.77-10.33-7.54-15.33-11.405 7.643-8.618 15.607-16.869 23.764-24.788 4.43 4.415 8.896 8.7 13.231 12.948zm-41.744 47.898c-6.524 8.637-12.76 17.771-18.735 26.976-6.372-2.408-12.613-4.782-18.985-7.191 6.483-10.052 13.323-19.867 20.45-29.184 5.9 3.125 11.668 6.213 17.27 9.399zm-35.22 54.978c-5.26 9.677-10.03 19.626-14.443 29.81-7.22-.811-14.572-1.658-21.889-2.636 4.886-10.9 9.998-21.6 15.765-32.124 6.975 1.729 13.854 3.291 20.567 4.95zm-25.82 59.18c-3.557 10.134-6.39 20.181-8.96 30.298l-.035.13-23.423 2.566.035-.13c2.615-10.807 5.727-21.902 9.495-32.821 7.562.06 15.255.158 22.887-.042zm-14.714 59.63c-1.418 10.006-2.468 19.688-2.89 29.119-7.967 2.496-16.195 4.922-24.162 7.419.335-10.155 1.334-20.693 2.962-31.484 8.018-1.64 16.072-3.413 24.09-5.053zm-2.852 56.214c.575 8.855 1.744 17.588 3.315 25.868-7.794 3.946-15.553 7.761-23.312 11.577-1.823-8.909-3.28-18.14-3.905-27.851 8.177-3.282 16.188-6.469 23.902-9.594zm9.173 49.05c2.47 7.538 5.31 14.754 8.716 21.42-7.219 4.943-14.307 9.92-21.394 14.898-3.694-7.165-7.117-14.818-9.84-22.985 7.636-4.41 15.178-8.985 22.518-13.333zm19.356 39.85c4.21 5.759 8.492 11.256 13.21 16.17-6.145 5.65-12.421 11.266-18.698 16.882-5.338-5.22-10.142-10.857-14.64-17.115 6.764-5.344 13.363-10.593 20.128-15.938zm27.69 29.17c5.096 4.032 10.759 7.514 16.361 10.7-5.229 5.896-10.326 11.828-15.59 17.855-6.293-3.23-12.217-6.782-18.063-11.155 5.883-5.72 11.505-11.512 17.293-17.4zm33.362 18.482a152.102 152.102 0 0 0 18.489 5.375c-4.146 6.047-8.257 11.962-12.202 17.781-7.116-1.204-13.794-2.994-20.236-5.14 4.705-6.037 9.28-12.11 13.95-18.016zm36.99 8.087c6.434.601 12.843.775 19.62.626-3.22 5.733-6.31 11.5-9.363 17.138-7.109.341-14.112.289-21.045-.032 3.552-5.924 7.235-11.814 10.787-17.74zm38.72-.993c6.523-.778 13.187-2.08 19.79-3.679l-6.384 15.972a254.749 254.749 0 0 1-21.084 4.315c2.59-5.48 5.217-11.093 7.678-16.608zm38.755-8.983c6.446-2.061 12.832-4.42 19.454-7.137l-3.823 14.273c-6.99 3.039-13.743 5.72-20.522 7.974 1.595-4.906 3.26-10.073 4.89-15.11zm37.715-15.576a373.238 373.238 0 0 0 18.218-9.854c-.433 4.234-.996 8.434-1.43 12.668-6.344 3.774-12.783 7.381-19.45 10.787.93-4.522 1.731-9.08 2.662-13.601zm35.564-20.644a762.69 762.69 0 0 0 17.007-12.143c.137 3.685.175 7.204.346 10.758-5.865 4.604-11.79 8.91-17.978 13.146.232-4.007.429-7.884.625-11.76zm32.775-24.899c5.271-4.482 10.446-9.13 15.49-13.813.739 3.005 1.477 6.01 2.085 8.98-5.315 5.17-10.822 10.01-16.294 14.72-.407-3.197-.91-6.56-1.28-9.887zm29.836-28.073c4.817-4.884 9.373-9.838 13.998-15.055 1.01 2.517 2.186 4.937 3.232 7.322-4.696 5.478-9.488 10.79-14.541 16.032-.81-2.743-1.784-5.39-2.689-8.299zm26.616-30.198c4.198-5.19 8.134-10.451 12.14-15.974 1.578 1.967 3.06 3.768 4.507 5.699-4.171 5.618-8.343 11.237-12.777 16.785-1.246-2.158-2.623-4.352-3.87-6.51zm23.257-31.8c3.543-5.366 7.025-11.03 10.472-16.56 1.753 1.31 3.507 2.623 5.26 3.935-3.386 5.828-7.069 11.718-10.848 17.442-1.683-1.574-3.332-3.278-4.884-4.817zm19.756-32.879a461.533 461.533 0 0 0 8.77-17.017c2.024.824 4.084 1.516 6.109 2.339-2.863 5.97-5.856 11.903-9.111 17.767-1.955-1.085-3.779-2.134-5.768-3.089zm16.316-33.66c2.495-5.646 4.729-11.363 6.866-17.246 2.296.335 4.592.67 6.793.838-2.304 5.979-4.607 11.958-7.208 17.997-2.095-.561-4.225-.992-6.451-1.588zm12.737-33.916a391.085 391.085 0 0 0 4.953-16.917l7.415-.96c-1.614 6.023-3.49 11.975-5.366 17.928-2.366-.073-4.636.032-7.002-.05zM563.823 18.863c4.852 2.843 9.407 5.748 13.726 9.01-2.145 4.337-4.158 8.71-6.172 13.082a91.32 91.32 0 0 0-12.984-8.11c1.822-4.705 3.643-9.409 5.43-13.982zm25.493 19.04a167.217 167.217 0 0 1 10.693 11.425c-2.432 3.84-4.698 7.583-6.964 11.326-3.227-3.671-6.62-7.247-10.344-10.63l6.615-12.122zm19.795 23.547c2.92 4.291 5.508 8.774 8.027 13.518-2.52 3.114-5.073 6.36-7.626 9.605-2.326-4.413-4.889-8.467-7.749-12.461 2.493-3.543 4.855-7.12 7.348-10.662zm14.472 27.174c2.09 4.77 3.98 9.767 5.572 14.825-2.676 2.65-5.35 5.302-7.895 7.989-1.662-4.796-3.36-9.461-5.389-13.934 2.65-3.08 5.264-6.027 7.712-8.88zm9.693 29.822c1.129 5.215 2.258 10.429 3.055 15.835-2.665 2.093-5.331 4.185-8.032 6.408-.736-5.109-1.77-10.157-2.969-15.11 2.605-2.389 5.341-4.743 7.946-7.133zm4.958 31.782c.5 5.467.834 11.03.836 16.784-2.657 1.533-5.217 3.233-7.873 4.767-.073-5.493-.477-10.794-.916-15.963 2.63-1.962 5.357-3.757 7.953-5.588zm.755 33.322c-.425 5.78-.851 11.56-1.444 17.436-2.516 1.01-5.032 2.02-7.714 3.126.522-5.614.878-11.133 1.198-16.52 2.622-1.403 5.208-2.674 7.96-4.042zm-3.603 34.4c-1.02 5.901-2.04 11.803-3.356 17.765-2.507.451-4.918 1.068-7.46 1.65 1.282-5.831 2.328-11.305 3.146-16.98 2.577-.712 5.058-1.592 7.67-2.435z" style="fill:#2761ab;fill-opacity:1;fill-rule:nonzero;stroke:#fff;stroke-width:.16000001;stroke-linecap:butt;stroke-linejoin:miter;stroke-miterlimit:3.86369991;stroke-opacity:1;stroke-dasharray:none"/>
	<path d="m968.233 423.227 6.16-.346c0 1.758.27 3.256.805 4.496.538 1.239 1.528 2.253 2.972 3.042 1.443.788 3.128 1.183 5.053 1.183 2.686 0 4.7-.541 6.043-1.622 1.343-1.08 2.014-2.354 2.014-3.818 0-1.058-.402-2.06-1.205-3.006-.825-.946-2.839-2.109-6.04-3.489-3.203-1.38-5.257-2.35-6.163-2.913-1.518-.923-2.662-2.008-3.431-3.257-.77-1.249-1.155-2.683-1.155-4.303 0-2.836 1.123-5.266 3.369-7.29 2.246-2.026 5.39-3.039 9.432-3.039 4.491 0 7.91 1.042 10.258 3.125 2.347 2.083 3.565 4.825 3.655 8.226l-5.952.415c-.089-2.172-.85-3.892-2.284-5.159-1.434-1.267-3.46-1.9-6.081-1.9-2.106 0-3.742.485-4.906 1.457-1.165.971-1.747 2.022-1.747 3.152 0 1.13.502 2.124 1.506 2.982.67.588 2.402 1.487 5.198 2.698 4.654 2.02 7.588 3.613 8.803 4.782 1.935 1.865 2.902 4.135 2.902 6.81 0 1.775-.544 3.517-1.634 5.225-1.089 1.708-2.751 3.073-4.986 4.096-2.235 1.022-4.869 1.534-7.902 1.534-4.132 0-7.648-1.025-10.545-3.076-2.898-2.05-4.277-5.386-4.139-10.005zm-12.695.139 5.948.553c-.858 2.948-2.828 5.75-5.91 8.406-3.083 2.655-6.758 3.983-11.026 3.983-2.664 0-5.109-.613-7.333-1.839-2.223-1.225-3.917-3.007-5.08-5.346-1.163-2.339-1.744-5.004-1.744-7.995 0-3.912.909-7.707 2.726-11.384 1.817-3.676 4.171-6.409 7.06-8.197 2.89-1.788 6.018-2.682 9.381-2.682 4.29 0 7.716 1.325 10.278 3.975 2.563 2.65 3.844 6.265 3.844 10.846 0 1.751-.159 3.547-.472 5.389h-26.52a14.7 14.7 0 0 0-.139 1.894c0 3.362.776 5.928 2.327 7.7 1.55 1.77 3.447 2.656 5.688 2.656 2.106 0 4.178-.683 6.216-2.049 2.038-1.366 3.623-3.336 4.755-5.91zm-17.863-8.998h20.23c.031-.628.031-1.076.031-1.345 0-3.05-.77-5.387-2.308-7.013-1.539-1.625-3.519-2.438-5.94-2.438-2.624 0-5.017.897-7.178 2.69-2.161 1.794-3.774 4.496-4.837 8.106zm-15.15-21.454 1.452-6.921h6.078l-1.45 6.92h-6.08zm-8.93 42.633 7.524-35.92h6.08l-7.524 35.92h-6.08zm-38.809 3.252 6.227.554c-.044 1.404.124 2.457.507 3.159.382.702.99 1.245 1.821 1.63 1.103.499 2.531.748 4.286.748 3.688 0 6.342-.959 7.962-2.875 1.057-1.285 2.035-4.081 2.935-8.388l.608-2.907c-3.174 3.218-6.55 4.827-10.13 4.827-3.624 0-6.657-1.335-9.099-4.003s-3.663-6.445-3.663-11.332c0-4.03.961-7.735 2.884-11.112 1.922-3.378 4.21-5.928 6.865-7.65 2.654-1.723 5.387-2.585 8.197-2.585 4.7 0 8.321 2.195 10.863 6.584l1.262-5.822h5.665l-7.301 34.674c-.788 3.814-1.824 6.788-3.108 8.92-1.283 2.134-3.068 3.787-5.353 4.96-2.285 1.174-4.925 1.761-7.92 1.761-2.882 0-5.365-.372-7.448-1.118-2.083-.745-3.637-1.834-4.662-3.268-1.024-1.434-1.536-3.077-1.536-4.928 0-.565.048-1.174.14-1.829zm7.682-19.125c0 2.458.238 4.306.712 5.546.678 1.736 1.643 3.06 2.897 3.974a6.938 6.938 0 0 0 4.183 1.37c2.01 0 4.008-.705 5.996-2.113 1.987-1.408 3.596-3.589 4.826-6.54 1.23-2.952 1.846-5.769 1.846-8.45 0-2.956-.818-5.309-2.456-7.058-1.637-1.75-3.664-2.624-6.08-2.624-1.49 0-2.935.4-4.335 1.2-1.4.8-2.705 2.018-3.913 3.653-1.208 1.635-2.123 3.59-2.744 5.868-.621 2.277-.932 4.002-.932 5.174zm-44.76 2.23c0-6.993 2.06-12.784 6.18-17.372 3.401-3.778 7.86-5.667 13.377-5.667 4.323 0 7.808 1.35 10.454 4.048 2.646 2.699 3.97 6.342 3.97 10.93 0 4.115-.834 7.943-2.5 11.485-1.667 3.542-4.037 6.258-7.11 8.147-3.075 1.888-6.312 2.833-9.712 2.833-2.792 0-5.332-.596-7.617-1.788-2.286-1.191-4.031-2.878-5.236-5.06-1.205-2.181-1.807-4.7-1.807-7.555zm6.09-.603c0 3.378.814 5.939 2.445 7.683 1.63 1.745 3.7 2.618 6.214 2.618 1.314 0 2.616-.264 3.906-.794s2.49-1.334 3.6-2.415a16.332 16.332 0 0 0 2.836-3.698 21.59 21.59 0 0 0 1.884-4.474c.702-2.23 1.053-4.368 1.053-6.417 0-3.242-.82-5.758-2.462-7.548-1.641-1.79-3.707-2.684-6.197-2.684-1.925 0-3.68.456-5.265 1.368-1.585.912-3.017 2.246-4.296 4.001-1.28 1.756-2.219 3.8-2.819 6.13-.6 2.33-.9 4.407-.9 6.23zm-22.986 14.246 10.34-49.554h6.08l-10.342 49.554h-6.078zm-37.05-13.642c0-6.994 2.06-12.785 6.18-17.373 3.401-3.778 7.86-5.667 13.378-5.667 4.323 0 7.808 1.35 10.454 4.048 2.646 2.699 3.969 6.342 3.969 10.93 0 4.115-.833 7.943-2.5 11.485-1.666 3.542-4.036 6.258-7.11 8.147-3.074 1.888-6.311 2.833-9.711 2.833-2.793 0-5.332-.596-7.618-1.788-2.286-1.191-4.03-2.878-5.235-5.06-1.205-2.181-1.808-4.7-1.808-7.555zm6.09-.604c0 3.378.815 5.939 2.445 7.683 1.63 1.745 3.702 2.618 6.215 2.618 1.313 0 2.615-.264 3.906-.794 1.29-.53 2.49-1.334 3.6-2.415a16.342 16.342 0 0 0 2.836-3.698 21.59 21.59 0 0 0 1.884-4.474c.702-2.23 1.053-4.368 1.053-6.417 0-3.242-.82-5.758-2.462-7.548-1.642-1.79-3.708-2.684-6.198-2.684-1.924 0-3.68.456-5.265 1.368-1.584.912-3.016 2.246-4.296 4.001-1.279 1.756-2.219 3.8-2.818 6.13-.6 2.33-.9 4.407-.9 6.23zm-45.73 14.246 7.524-35.92h5.583l-1.3 6.276c2.438-2.451 4.716-4.237 6.835-5.357 2.118-1.12 4.283-1.68 6.492-1.68 2.939 0 5.245.79 6.92 2.374 1.674 1.582 2.51 3.696 2.51 6.341 0 1.327-.31 3.418-.934 6.275l-4.852 21.69h-6.078l5.04-22.717c.5-2.205.75-3.836.75-4.894 0-1.193-.42-2.16-1.259-2.903-.84-.743-2.052-1.114-3.638-1.114-3.196 0-6.04 1.122-8.535 3.368-2.495 2.246-4.328 6.097-5.5 11.555l-3.48 16.706h-6.078zm-38.464 0 10.381-49.554h6.08l-3.99 19.042c2.24-2.202 4.324-3.781 6.253-4.737 1.93-.955 3.914-1.433 5.955-1.433 2.927 0 5.2.783 6.82 2.349 1.618 1.565 2.427 3.632 2.427 6.2 0 1.26-.382 3.58-1.146 6.957l-4.692 21.176h-6.08l4.786-21.705c.685-3.15 1.028-5.131 1.028-5.941 0-1.17-.397-2.127-1.192-2.87-.795-.742-1.943-1.113-3.445-1.113-2.164 0-4.23.579-6.195 1.737a12.379 12.379 0 0 0-4.62 4.757c-1.115 2.012-2.137 5.256-3.064 9.732l-3.226 15.403h-6.08zm-9.897-13.081 6.16.623c-1.534 4.474-3.717 7.796-6.549 9.965-2.832 2.17-6.053 3.254-9.663 3.254-3.904 0-7.069-1.26-9.494-3.778-2.426-2.519-3.639-6.038-3.639-10.558 0-3.913.778-7.758 2.334-11.536 1.556-3.778 3.782-6.65 6.68-8.619 2.898-1.968 6.207-2.952 9.928-2.952 3.856 0 6.91 1.088 9.166 3.264 2.255 2.176 3.383 5.056 3.383 8.64l-6.022.416c-.032-2.276-.683-4.056-1.981-5.34-1.3-1.285-3.01-1.927-5.133-1.927-2.461 0-4.595.775-6.402 2.326-1.806 1.551-3.224 3.906-4.252 7.064-1.027 3.159-1.541 6.2-1.541 9.122 0 3.057.677 5.35 2.031 6.878 1.354 1.53 3.024 2.294 5.009 2.294 1.986 0 3.887-.753 5.704-2.26 1.816-1.505 3.243-3.797 4.281-6.876zm-36.849.9 5.948.553c-.858 2.948-2.828 5.75-5.91 8.406-3.083 2.655-6.758 3.983-11.026 3.983-2.664 0-5.108-.613-7.332-1.839-2.224-1.225-3.918-3.007-5.08-5.346-1.164-2.339-1.745-5.004-1.745-7.995 0-3.912.909-7.707 2.726-11.384 1.818-3.676 4.171-6.409 7.061-8.197 2.89-1.788 6.017-2.682 9.38-2.682 4.29 0 7.716 1.325 10.278 3.975 2.563 2.65 3.844 6.265 3.844 10.846 0 1.751-.158 3.547-.472 5.389h-26.519a14.7 14.7 0 0 0-.14 1.894c0 3.362.776 5.928 2.327 7.7 1.551 1.77 3.447 2.656 5.689 2.656 2.105 0 4.177-.683 6.215-2.049 2.038-1.366 3.623-3.336 4.755-5.91zm-17.863-8.998h20.23c.031-.628.035-1.076.035-1.345 0-3.05-.77-5.387-2.309-7.013-1.539-1.625-3.518-2.438-5.94-2.438-2.624 0-5.017.897-7.178 2.69-2.161 1.794-3.773 4.496-4.837 8.106zm-13.49 16.224-1.013 5c-1.464.385-2.884.578-4.258.578-2.426 0-4.357-.599-5.794-1.796-1.08-.903-1.619-2.134-1.619-3.692 0-.79.292-2.607.878-5.452l4.36-20.897h-4.844l.969-4.706h4.844l1.86-8.799 7-4.213-2.77 13.012h6.022l-1.038 4.706h-5.952l-4.153 19.874c-.516 2.528-.774 4.04-.774 4.537 0 .723.21 1.276.624 1.66.416.383 1.097.575 2.043.575 1.351 0 2.557-.13 3.616-.387z" style="fill:#262425;fill-opacity:1;fill-rule:evenodd;stroke:none"/>
	<path d="m3.73 252.545 38.656 58.976L0 375.656h42.386l24.369-39.53 24.05 39.53h42.784l-41.831-63.421 22.304-35.243-20.558-24.447h-4.921l-21.114 37.941-21.828-37.941H3.73z" style="fill:#262425;fill-opacity:1;fill-rule:evenodd;stroke:none"/>
	<path d="m96.758 252.545 18.733 22.225 14.288-22.225h-33.02z" style="fill:#2761ab;fill-opacity:1;fill-rule:evenodd;stroke:none"/>
	<path d="M141.232 325.544v-15.872h55.552v15.872h-55.552z" style="fill:#262425;fill-opacity:1;fill-rule:evenodd;stroke:none"/>
	<path d="M786.843 370.184V269h15.872v17.459h.397c3.042-7.407 8.002-12.565 14.88-15.475 5.82-2.381 14.482-3.572 25.99-3.572h25.593c28.04 0 42.06 11.442 42.06 34.324v68.448h-17.062v-64.282c0-8.465-2.05-14.417-6.15-17.856-5.423-4.497-15.806-6.746-31.149-6.746h-4.365c-19.575 0-32.636 2.183-39.183 6.548-6.547 4.364-9.821 12.631-9.821 24.8v57.536h-17.062zm-43.937-61.504v-6.746c0-13.756-11.837-20.633-35.513-20.633h-24.998c-13.623 0-22.65 1.719-27.081 5.158-4.431 3.439-7.043 10.846-7.837 22.22h95.43zm-112.491 21.626v-22.023c0-16.534 5.224-27.908 15.673-34.125 7.407-4.497 18.716-6.746 33.926-6.746h27.38c17.062 0 29.627 2.778 37.695 8.333 9.92 6.878 14.88 18.716 14.88 35.514v11.309H647.477v6.348c0 11.243 3.108 18.915 9.325 23.015 5.82 3.968 16.335 5.952 31.545 5.952h23.411c11.242 0 18.98-1.124 23.213-3.373 4.761-2.513 7.406-7.473 7.935-14.88h17.063v1.984c0 11.11-4.497 19.047-13.492 23.808-8.068 4.233-20.567 6.35-37.496 6.35h-30.95c-14.285 0-24.999-2.25-32.141-6.746-10.317-6.482-15.475-18.055-15.475-34.72zm-46.745 39.878V226.542h17.062v143.642H583.67zm-53.69 0V226.542h17.062v143.642H529.98zm-46.317-61.504v-6.746c0-13.756-11.838-20.633-35.513-20.633h-24.998c-13.623 0-22.65 1.719-27.081 5.158-4.431 3.439-7.044 10.846-7.837 22.22h95.43zm-112.491 21.626v-22.023c0-16.534 5.224-27.908 15.673-34.125 7.407-4.497 18.715-6.746 33.926-6.746h27.379c17.062 0 29.627 2.778 37.695 8.333 9.92 6.878 14.88 18.716 14.88 35.514v11.309H388.234v6.348c0 11.243 3.108 18.915 9.324 23.015 5.82 3.968 16.335 5.952 31.546 5.952h23.41c11.243 0 18.98-1.124 23.213-3.373 4.762-2.513 7.407-7.473 7.936-14.88h17.062v1.984c0 11.11-4.497 19.047-13.49 23.808-8.069 4.233-20.568 6.35-37.498 6.35h-30.95c-14.284 0-24.998-2.25-32.14-6.746-10.317-6.482-15.475-18.055-15.475-34.72zm-146.752.595v-22.618c0-16.534 5.357-27.908 16.07-34.125 7.54-4.497 19.112-6.746 34.72-6.746h28.569c29.495 0 44.243 11.442 44.243 34.324v2.777H332.15v-2.38c0-7.937-2.58-13.492-7.738-16.666-4.232-2.778-11.044-4.166-20.435-4.166H272.63c-9.92 0-17.128 1.454-21.625 4.364-6.349 4.1-9.523 11.838-9.523 23.213v21.23c0 10.58 3.174 18.053 9.523 22.418 5.29 3.571 13.623 5.357 24.998 5.357h28.768c19.443 0 29.164-7.076 29.164-21.229v-3.373h15.872v2.976c0 12.83-3.439 21.957-10.317 27.38-6.877 5.423-18.252 8.134-34.124 8.134h-38.489c-28.305 0-42.457-13.624-42.457-40.87zm754.977 44.253c-9.957 0-17.03-2.632-22.59-8.271-5.559-5.64-7.958-13.274-7.958-25.455l.187-52.951H926.86v-14.065h22.176l-.247-44.28 17.313-.032.06 44.3h32.947v14.066h-32.947l.185 43.537c0 5.483-.213 9.204-.032 12.171.193 2.968.937 5.743 2.229 8.324 1.097 2.257 2.873 3.95 5.329 5.08 2.455 1.129 5.782 1.693 9.982 1.693a28.01 28.01 0 0 0 8.624-1.339c2.777-.893 4.78-1.637 6.008-2.232h1.066v16.346a87.823 87.823 0 0 1-10.425 2.276c-3.524.548-6.772.821-9.744.821z" style="fill:#262425;fill-opacity:1;fill-rule:evenodd;stroke:none"/>
</svg>
