<?xml version="1.0" encoding="utf-8"?>
<!-- Generator: Adobe Illustrator 21.1.0, SVG Export Plug-In . SVG Version: 6.00 Build 0)  -->
<svg version="1.1" id="Layer_1" xmlns="http://www.w3.org/2000/svg" xmlns:xlink="http://www.w3.org/1999/xlink" x="0px" y="0px"
	 viewBox="0 0 300 87" style="enable-background:new 0 0 300 87;" xml:space="preserve">
<style type="text/css">
	.st0{fill:#67217A;}
</style>
<g>
	<path class="st0" d="M216.9,16.5h10.1c0.2,1.1,0.3,2.2,0.4,3.4c-0.2,12.8,0,25.6-0.9,38.2c-0.4,7.4-5.6,11.3-12.6,12.9
		c-2.2,0.5-4.4,0.8-6.7,0.9c-15.9,0.4-22.7-5.9-23.2-21.7c-0.3-11.1,0-22.3,0-33.7h10.6c0,7.4,0,14.4,0,21.5c0,5.5,0,11,0.6,16.5
		s4.6,8.8,10.9,8.8s10.3-2.9,10.6-8.8c0.5-10.5,0.3-21.1,0.4-31.6C216.9,20.9,216.9,19,216.9,16.5z"/>
	<path class="st0" d="M173,30.9l-8.3,2.1c-3.5-2.9-5.9-6.3-9.2-7.8c-6.2-2.8-13.5,0-16.3,6.2c-0.4,1-0.7,2-0.9,3
		c-1,6.2-1,12.5,0,18.6c0.8,5.6,5.6,9.7,11.2,9.8c6.2,0.5,10.1-1.9,13-7.9l1.5-3.3l9.2,2.9c-1.9,10.3-8.8,16.2-19.5,17.4
		c-10.7,1.4-20.9-4.4-25.2-14.3c-3.9-9.4-3.6-20.1,0.9-29.3c4.6-9.5,13-13.3,23.1-13c9,0.3,16.3,3.9,19.9,12.9
		C172.7,29.1,172.8,30,173,30.9z"/>
	<path class="st0" d="M300,16.2V25h-16.1v45.8h-10.6V25h-16.9v-8.8H300z"/>
	<path class="st0" d="M249.5,70.8h-9.9V16.7h9.9V70.8z"/>
	<path class="st0" d="M77.8,0.3L35.7,35.2L10.4,19.1L0,22v42.9l10.4,2.9l25.3-16l42,34.9l25.1-9V9.2L77.8,0.3z M10.4,56.1V30.9
		l15.3,12.7L10.4,56.1z M77.8,61.7L48.9,43.5l28.9-18.3V61.7z"/>
</g>
</svg>
