<svg id="Layer_1" data-name="Layer 1" xmlns="http://www.w3.org/2000/svg" viewBox="0 0 500 500">
	<defs>
		<style>
			.cls-2{fill:#2db24a}.cls-6{fill:#ffd536}.cls-7{fill:#fdbc11}.cls-9{fill:#a0c54e}.cls-10{fill:#ffe8a0}.cls-13{fill:#70aeff}.cls-15{fill:#4c9aff}.cls-16{fill:#9caa94}.cls-18{fill:#9dc8ff}.cls-24{fill:#a56b88}.cls-25{fill:#f69988}.cls-28{fill:#3f5d77}
		</style>
	</defs>
	<path d="m361.91 273.52-34.35 12.75-76.77 28.52-74-26-40.67-14.32-43.8 16.69 158.43 56.77 156.92-56.77Z" style="fill:#73c56d"/>
	<path class="cls-2" d="m136.16 274.45 40.67 14.32-43.35 17.09-41.12-14.72 43.8-16.69z"/>
	<path class="cls-2" d="m407.71 291.14-32.44 11.71-47.71-16.58 34.35-12.75 45.8 17.62z"/>
	<path style="fill:#b8dea3" d="M92.36 291.14v32.63l158.42 55.76 156.93-58.29v-30.1L250.78 347.9 92.36 291.14z"/>
	<path style="fill:#e3c919" d="m284 271.15-33.21 12.01-31.3-11.22 31.3-12.33L284 271.15z"/>
	<path style="fill:#d5c612" d="M320.97 257.77 284 271.15l-33.21-11.54-31.3 12.33-39.57-14.17 44.55-16.99h.01l26.31 9.27 25.5-9.48 44.68 17.2z"/>
	<path class="cls-6" d="m224.47 240.78-44.55 16.99-87.56-31.37 41.12 14.72 43.35-17.09 47.64 16.75z"/>
	<path class="cls-6" d="m407.71 226.4-86.74 31.37-44.68-17.2 51.26-19.03h.01l47.71 16.58 32.44-11.72z"/>
	<path class="cls-7" d="m176.83 224.03-43.35 17.09-41.12-14.72 43.8-16.69 40.67 14.32z"/>
	<path class="cls-7" d="m407.71 226.4-32.44 11.72-47.71-16.58 34.34-12.76 45.81 17.62z"/>
	<path style="fill:#c0ce5e" d="m327.56 286.27-76.77 28.52-73.96-26.02 42.66-16.83 31.3 11.22L284 271.15l43.56 15.12z"/>
	<path class="cls-9" d="m219.49 271.94-42.66 16.83-40.67-14.32 43.76-16.68 39.57 14.17z"/>
	<path class="cls-10" d="m179.92 257.77-43.76 16.68-43.8-15.41V226.4l87.56 31.37z"/>
	<path class="cls-9" d="m361.91 273.52-34.35 12.75L284 271.15l36.97-13.38 40.94 15.75z"/>
	<path class="cls-10" d="M407.71 226.4v30.11l-45.8 17.01-40.94-15.75 86.74-31.37z"/>
	<path style="fill:#70a1cf" d="m320.99 193.03-36.97 13.39h-.01l-33.22-11.56-31.32 12.35-39.55-14.18 44.55-16.98 26.32 9.27 25.5-9.48 44.7 17.19z"/>
	<path style="fill:#70a5d7" d="m284.01 206.42-33.22 12.01-31.32-11.22 31.32-12.35 33.22 11.56z"/>
	<path class="cls-13" d="m407.71 161.67-86.72 31.36-44.7-17.19 51.27-19.04 47.71 16.58 32.44-11.71z"/>
	<path class="cls-13" d="m224.47 176.05-44.55 16.98-87.56-31.36 41.12 14.72 43.35-17.09 47.64 16.75z"/>
	<path style="opacity:.8;fill:#4c9aff" d="m204.74 137.19 14.76 5.29h-.03l-14.73-5.29z"/>
	<path class="cls-15" d="m407.71 161.67-32.44 11.71-47.71-16.58 34.34-12.76 45.81 17.63z"/>
	<path class="cls-15" d="m176.83 159.3-43.35 17.09-41.12-14.72 43.8-16.69 40.67 14.32z"/>
	<path class="cls-15" d="M219.5 142.48h-.03l-14.73-5.29 14.76 5.29z"/>
	<path class="cls-16" d="m361.9 208.78-34.34 12.76h-.01l-43.53-15.12 36.97-13.39 40.91 15.75z"/>
	<path style="fill:#9db5a4" d="m327.55 221.54-51.26 19.03-25.5-9.8-26.31 10.01h-.01l-47.64-16.75 42.64-16.82 31.32 11.22 33.22-12.01h.01l43.53 15.12z"/>
	<path class="cls-16" d="m219.47 207.21-42.64 16.82-40.67-14.32 43.76-16.68 39.55 14.18z"/>
	<path class="cls-18" d="m179.92 193.03-43.76 16.68-43.8-15.42v-32.62l87.56 31.36z"/>
	<path style="fill:#8aae94" d="m276.29 240.57-25.5 9.48-26.31-9.27 26.31-10.01 25.5 9.8z"/>
	<path class="cls-18" d="M407.71 161.67v30.1l-45.81 17.01-40.91-15.75 86.72-31.36z"/>
	<path style="fill:#f16a51" d="m407.71 96.94-86.74 31.37-70.18-27-70.86 27-87.57-31.37 41.12 14.7L250.79 65.4l124.48 43.24 32.44-11.7z"/>
	<path style="fill:#cd5651" d="m320.97 128.31-36.96 13.36-33.22-11.54-31.29 12.35-14.76-5.29-6.68-2.4-2.59-.92-10.7-3.84-4.84-1.72 70.86-27 70.18 27z"/>
	<path style="fill:#d45a51" d="m284.01 141.67-33.22 12.02-31.29-11.21 31.29-12.35 33.22 11.54z"/>
	<path style="fill:#ee4526" d="m407.71 96.94-32.44 11.7L250.79 65.4l-117.31 46.24-41.12-14.7 158.43-60.38 156.92 60.38z"/>
	<path class="cls-24" d="m219.47 142.48-42.64 16.82-40.67-14.32 43.77-16.67 4.84 1.72 10.7 3.84 2.59.92 6.68 2.4 14.73 5.29z"/>
	<path class="cls-25" d="m179.93 128.31-43.77 16.67-43.8-15.42V96.94l87.57 31.37z"/>
	<path style="fill:#b67488" d="m327.56 156.8-51.27 19.04-25.5-9.81-26.32 10.02-47.64-16.75 42.64-16.82h.03l31.29 11.21 33.22-12.02 43.55 15.13z"/>
	<path style="fill:#b66f72" d="m276.29 175.84-25.5 9.48-26.32-9.27 26.32-10.02 25.5 9.81z"/>
	<path class="cls-24" d="m361.9 144.04-34.34 12.76-43.55-15.13 36.96-13.36 40.93 15.73z"/>
	<path class="cls-25" d="M407.71 96.94v30.09l-45.81 17.01-40.93-15.73 86.74-31.37z"/>
	<path class="cls-28" d="m36.2 420.82 11-18.93h10.5l-15.83 26 16.19 26.41h-10.6L36.2 435.07l-11.3 19.21H14.32l16.23-26.41-15.87-26h10.51Z"/>
	<path class="cls-28" d="M95.42 430.89H73.9V447h25.15v7.27H64.8v-52.38h34v7.34H73.9v14.47h21.52Z"/>
	<path class="cls-28" d="M148 454.28h-9.1l-23.35-37.17v37.17h-9.11v-52.39h9.11L139 439.21v-37.32h9Z"/>
	<path class="cls-28" d="M200.58 429.45a32.11 32.11 0 0 1-2.66 13.55 20.13 20.13 0 0 1-7.61 8.92 22.34 22.34 0 0 1-22.74 0 20.53 20.53 0 0 1-7.7-8.87 31.24 31.24 0 0 1-2.75-13.28v-2.95a31.89 31.89 0 0 1 2.72-13.53 20.34 20.34 0 0 1 7.66-9 22.39 22.39 0 0 1 22.7 0 20.15 20.15 0 0 1 7.65 8.85 31.73 31.73 0 0 1 2.73 13.44Zm-9.1-2.73q0-8.7-3.29-13.35a11.62 11.62 0 0 0-18.57 0q-3.31 4.63-3.4 13.08v3q0 8.64 3.37 13.35a11.64 11.64 0 0 0 18.64.11q3.26-4.61 3.25-13.46Z"/>
	<path class="cls-28" d="M251.21 454.28h-9.11l-23.35-37.17v37.17h-9.1v-52.39h9.1l23.43 37.32v-37.32h9Z"/>
	<path class="cls-28" d="M289.35 440.79a6.34 6.34 0 0 0-2.43-5.33q-2.43-1.86-8.76-3.77a42.62 42.62 0 0 1-10.08-4.25q-7.15-4.5-7.16-11.73a12.74 12.74 0 0 1 5.17-10.43q5.16-4.11 13.4-4.1a22.72 22.72 0 0 1 9.75 2 16.09 16.09 0 0 1 6.73 5.74 14.71 14.71 0 0 1 2.44 8.26h-9.06a8.21 8.21 0 0 0-2.58-6.43c-1.71-1.54-4.16-2.32-7.35-2.32a11.09 11.09 0 0 0-6.93 1.91 6.37 6.37 0 0 0-2.47 5.33 5.74 5.74 0 0 0 2.67 4.8 30.65 30.65 0 0 0 8.78 3.74 40.31 40.31 0 0 1 9.82 4.14 15.56 15.56 0 0 1 5.43 5.32 13.91 13.91 0 0 1 1.73 7 12.46 12.46 0 0 1-5 10.41q-5 3.87-13.62 3.87a25.64 25.64 0 0 1-10.45-2.1 17.52 17.52 0 0 1-7.41-5.82 14.41 14.41 0 0 1-2.65-8.63h9.11a8.47 8.47 0 0 0 2.95 6.91q2.94 2.44 8.45 2.44 4.76 0 7.14-1.92a6.2 6.2 0 0 0 2.38-5.04Z"/>
	<path class="cls-28" d="M344.29 409.23H328v45h-9v-45h-16.27v-7.34h41.56Z"/>
	<path class="cls-28" d="M376.16 442.08h-20.29l-4.24 12.2h-9.47L362 401.89h8.17l19.82 52.39h-9.49Zm-17.73-7.34h15.18L366 413Z"/>
	<path class="cls-28" d="M435.1 437.23q-.8 8.38-6.19 13.07t-14.36 4.7a20.38 20.38 0 0 1-11-3 19.49 19.49 0 0 1-7.36-8.44 30.32 30.32 0 0 1-2.7-12.7V426a30.7 30.7 0 0 1 2.63-13.06 19.84 19.84 0 0 1 7.53-8.71 21 21 0 0 1 11.35-3.05q8.67 0 14 4.69t6.15 13.29H426c-.43-3.76-1.53-6.48-3.29-8.14s-4.35-2.51-7.75-2.51a10.63 10.63 0 0 0-9.12 4.34q-3.19 4.35-3.26 12.73v4.65q0 8.5 3 13a10.08 10.08 0 0 0 8.9 4.47c3.58 0 6.26-.8 8.06-2.41s2.94-4.28 3.42-8Z"/>
	<path class="cls-28" d="m458.27 431.65-5.94 6.3v16.33h-9.1v-52.39h9.1v24.58l5-6.23 15.33-18.35h11l-19.42 23.21 20.58 29.18H474Z"/>
</svg>
