<svg xmlns="http://www.w3.org/2000/svg" width="200" height="128">
    <linearGradient id="a" x1="-880.84" y1="866.71" x2="-878.24" y2="866.71" gradientTransform="matrix(23.71 0 0 -39.73 20870.42 34501.87)" gradientUnits="userSpaceOnUse">
        <stop offset="0" stop-color="#00eaff"/>
        <stop offset="1" stop-color="#0027ff"/>
    </linearGradient>
    <linearGradient id="b" x1="-878.06" y1="866.64" x2="-880.65" y2="866.64" gradientTransform="matrix(23.64 0 0 -39.61 20823.88 34396.37)" gradientUnits="userSpaceOnUse">
        <stop offset="0" stop-color="#00eaff"/>
        <stop offset="1" stop-color="#2fff5d"/>
    </linearGradient>
    <path d="M100 66.35c0-2.26-1.28-3.44-3.22-3.44s-3.25 1.18-3.25 3.44v7.88h-3.72v-7.88c0-2.26-1.28-3.44-3.22-3.44s-3.28 1.18-3.28 3.44v7.88h-3.67V63.82A4.35 4.35 0 0183.31 60v1.7a5.33 5.33 0 014.28-1.93 5.59 5.59 0 015.11 2.72 5.77 5.77 0 015-2.72c3.49 0 5.95 2.16 5.95 6.1v8.36H100zm12.13-6.61a6.08 6.08 0 014.67 1.8V60a4 4 0 013.69 3.85v10.38h-3.69v-2.08a5.79 5.79 0 01-4.83 2.31c-3.67 0-6.61-3-6.61-7.41s3.03-7.31 6.73-7.31zm.81 3.17a3.83 3.83 0 00-3.83 4.14 3.94 3.94 0 003.83 4.25 4.21 4.21 0 000-8.39zm11 0h-1.6V60h1.6v-1l3.7-2.56V60h3.57v3h-3a.51.51 0 00-.52.51v6.39c0 1 .39 1.36 1.55 1.36h2l-1.93 3h-.7c-2.78 0-4.64-1.15-4.64-4.42v-6.91zm10.07 0h-1.6V60h1.6v-1l3.7-2.56V60h3.57v3h-3a.51.51 0 00-.52.51v6.39c0 1 .4 1.36 1.55 1.36h2l-1.94 3h-.7c-2.77 0-4.63-1.15-4.63-4.42zm15.23 11.53a7 7 0 01-7.29-7.36c0-4.5 3-7.36 7.29-7.36a6.76 6.76 0 017.15 7.05 8.06 8.06 0 01-.1 1.39h-10.71a3.38 3.38 0 003.5 3.3 3 3 0 002.92-1.71h4a6.74 6.74 0 01-6.84 4.71zm-3.54-8.7h6.9a3.21 3.21 0 00-3.46-3.06 3.34 3.34 0 00-3.52 3.08zm16.57 8.47h-3.68V63.82c0-2.82 3.68-3.85 3.68-3.85v1.57c1.05-1.43 2.43-1.78 4.45-1.78v3.79h-1c-2.18 0-3.49.82-3.49 3.58v7.1zm-3.68-10.41a4.14 4.14 0 013.6-3.8m12.1 14.49c-3.64 0-6.19-2.08-6.34-4.73h3a.89.89 0 01.83.52 2.56 2.56 0 002.47 1.38c1.44 0 2.23-.64 2.23-1.47 0-2.54-8.2-.92-8.2-6.15 0-2.36 2.14-4.27 5.74-4.27s5.63 1.88 5.84 4.71h-2.81a.91.91 0 01-.84-.57 2.28 2.28 0 00-2.3-1.28c-1.36 0-2.07.54-2.07 1.36 0 2.61 8.05 1 8.15 6.2 0 2.45-2.17 4.3-5.71 4.3zM70.7 69.8l-2.65 4.43h-3.93l4.22-6.37a1.41 1.41 0 000-1.56L64.06 60h4.14l3 4.4 2.64-4.4h3.93l-4.24 6.32a1.4 1.4 0 000 1.57l4.29 6.37h-4.14z" fill="#231f20"/>
    <path d="M26.6 50.33a3.42 3.42 0 012.44 1l7.19 7.15a10.64 10.64 0 010 15.13L29 80.78a3.46 3.46 0 01-4.88 0 3.42 3.42 0 010-4.86l6.09-6.06a5.37 5.37 0 000-7.61l-6.1-6.06a3.44 3.44 0 012.45-5.86m0-3.07a6.55 6.55 0 00-6.05 4 6.48 6.48 0 001.49 7.1l6.1 6.06a2.32 2.32 0 010 3.27l-6.1 6a6.5 6.5 0 002.9 11 6.57 6.57 0 006.35-1.75l7.19-7.15a13.74 13.74 0 000-19.48l-7.19-7.15a6.5 6.5 0 00-4.65-1.9z" fill="url(#a)"/>
    <path d="M48.9 50.33a3.43 3.43 0 012.44 5.86l-6.08 6.06a5.35 5.35 0 000 7.61l6.08 6a3.43 3.43 0 01-1.53 5.79 3.47 3.47 0 01-3.35-.93l-7.19-7.15a10.67 10.67 0 010-15.14l7.2-7.15a3.45 3.45 0 012.44-1m0-3.07a6.52 6.52 0 00-4.63 1.9l-7.19 7.15a13.74 13.74 0 000 19.48l7.19 7.15a6.56 6.56 0 009.19-.06 6.47 6.47 0 00.06-9.14l-6.09-6a2.3 2.3 0 010-3.27l6.09-6.06a6.5 6.5 0 00-4.63-11.1z" fill="url(#b)"/>
    <path d="M38.42 56.31l-4.85-4.82v4.35l2.66 2.65a10.51 10.51 0 012.4 3.63h3.15v-.33a13.78 13.78 0 00-3.36-5.48z" fill="url(#a)"/>
</svg>
