<svg xmlns="http://www.w3.org/2000/svg" xml:space="preserve" width="432" height="119.151">
	<defs>
		<clipPath clipPathUnits="userSpaceOnUse" id="a">
			<path d="M0 89.363h324V0H0Z"/>
		</clipPath>
	</defs>
	<path d="m0 0-9.762-16.851 2.208-3.603h19.408L21.5-3.719 19.408 0Zm-15.34 20.105h-4.3l-9.762-16.851 9.762-16.851h4.3l9.646 16.851ZM19.408 6.508l2.092 3.719-9.646 16.851H-7.554l-2.208-3.719L0 6.508Z" style="fill:#ffcd32;fill-opacity:1;fill-rule:nonzero;stroke:none" transform="matrix(1.33333 0 0 -1.33333 67.09 63.991)"/>
	<path d="m0 0 9.762-16.851h4.3L4.3 0Zm50.902 6.973-9.646 16.851-2.208-3.719L48.81 3.254ZM48.81-3.254l-9.762-16.851H19.641l2.208-3.603h19.407l9.646 16.735z" style="fill:#db8319;fill-opacity:1;fill-rule:nonzero;stroke:none" transform="matrix(1.33333 0 0 -1.33333 27.887 59.653)"/>
	<path d="M0 0h4.3l9.762 16.851h-4.3zm21.849 23.824-2.208-3.719h19.407l2.208 3.719z" style="fill:#fcf560;fill-opacity:1;fill-rule:nonzero;stroke:none" transform="matrix(1.33333 0 0 -1.33333 27.887 59.653)"/>
	<g clip-path="url(#a)" transform="matrix(1.33333 0 0 -1.33333 0 119.15)">
		<path d="m0 0 9.762 9.529H4.3L-4.765.465V16.27l-3.951 2.324v-29.983h3.951V-.581l9.762-10.808h5.695zm-70.193-8.019a7.044 7.044 0 0 0-7.09 7.089 7.044 7.044 0 0 0 7.09 7.089A7.044 7.044 0 0 0-63.104-.93a7.044 7.044 0 0 0-7.089-7.089m0 18.129c-2.674 0-5.114-.929-7.09-2.556v8.832l-3.951 2.324v-29.983h3.951v2.092c1.86-1.627 4.416-2.557 7.09-2.557 6.043 0 11.04 4.881 11.04 11.041 0 5.81-4.881 10.807-11.04 10.807m-79.491-21.499h3.951V16.27l-3.951 2.324zm-10.46 0h4.068V16.27l-4.068 2.324zm120.98 24.521h3.951v3.951h-3.951zm0-24.521h3.951V9.529h-3.951zM-93.901-6.16h-.117l-5.345 15.689h-4.184l-4.997-15.689h-.117l-4.648 15.689h-4.416l6.624-20.918h4.184l5.113 15.689h.116l5.579-15.689h4.067l6.741 20.918h-4.184zm74.145 12.319c1.743 0 3.37-.697 4.648-1.743l3.486 1.976c-1.975 2.208-4.88 3.719-8.134 3.719-6.044 0-11.041-4.882-11.041-11.041 0-6.159 4.881-11.04 11.041-11.04 3.254 0 6.159 1.394 8.134 3.602l-3.486 1.976a7.483 7.483 0 0 0-4.648-1.627 7.044 7.044 0 0 0-7.09 7.089 7.044 7.044 0 0 0 7.09 7.089M-182.457.813c.814 3.022 3.603 5.346 6.857 5.346s6.043-2.324 6.857-5.346zm6.857 9.297c-6.043 0-11.04-4.881-11.04-11.04 0-6.159 4.881-11.04 11.04-11.04 3.254 0 6.16 1.394 8.135 3.602l-3.486 1.976c-1.279-1.046-2.906-1.743-4.649-1.743-3.37 0-6.275 2.44-6.973 5.578h17.781c.116.465.116.93.116 1.511.116 6.159-4.881 11.156-10.924 11.156m45.324-18.129a7.043 7.043 0 0 0-7.089 7.089 7.043 7.043 0 0 0 7.089 7.089 7.043 7.043 0 0 0 7.088-7.089 7.043 7.043 0 0 0-7.088-7.089m0 18.129c-6.16 0-11.041-4.997-11.041-11.04 0-6.159 4.881-11.04 11.041-11.04 6.159 0 11.04 4.997 11.04 11.04 0 6.043-4.881 11.04-11.04 11.04m-55.318 8.484-8.833-12.086-8.948 12.086h-5.114l12.087-15.805v-14.178h4.183v14.41l11.738 15.573zm130.973-9.065h.117zm8.368.233c-.581-.233-1.163-.465-1.744-.814a7.433 7.433 0 0 1-1.51-1.162c-.465-.465-.814-.93-1.046-1.511h-.116v3.254h-3.835v-20.918h3.951V-.93c0 2.325.465 4.068 1.511 5.114.929 1.045 2.44 1.627 4.416 1.627.232 0 .581 0 .929-.117.233-.116.581-.116.93-.232l.232 4.3a7.047 7.047 0 0 1-1.743.232c-.697 0-1.278 0-1.975-.232" style="fill:#4b5357;fill-opacity:1;fill-rule:nonzero;stroke:none" transform="translate(292.393 41.02)"/>
	</g>
</svg>
