<svg xmlns="http://www.w3.org/2000/svg" width="200" height="128">
    <path fill="#d40000" d="M20 85.05V43.13h160v41.92zm63.9-6.47c4.53 0 8.95.14 13.35-.06a7.85 7.85 0 006-3c2.9-3.76 1.86-10.24-3.11-12a10.48 10.48 0 01-1-.48 6.33 6.33 0 003.45-2.38 7.09 7.09 0 00-2.82-10 11.5 11.5 0 00-4.94-1.07h-9.78c-.35 0-.71.06-1.15.1zm42.64-15.67a5.75 5.75 0 003.18-2.13 7.1 7.1 0 00-2.35-10 10.42 10.42 0 00-4.9-1.24c-3.46-.05-6.93 0-10.39 0-.25 0-.51 0-.85.07v29c.43 0 .79.08 1.15.08 3.57 0 7.14 0 10.7-.06a12.91 12.91 0 003.75-.66c6.48-2.18 6.34-10 3-13a26.1 26.1 0 00-3.29-2.06zm-67.06 8.44h13.25c.89 2.43 1.78 4.85 2.66 7.23h4.14l-11.15-29h-4.59l-11.16 29h4.2zM31.4 75.4l18.51-22.75v-3h-23v3.25H45L26.39 75.7v1.48c0 .48.05.92.09 1.39h23.8V75.4zm121.7 3.22c2.64-4 5.3-7.91 8.06-12.05l8 12h4.39c-3.45-5.24-6.78-10.3-10.11-15.34l9.05-13.63h-4.29L161.25 60l-6.85-10.37H150l9 13.7-10.14 15.29zm-14.6-29V78.7h2.64c.37 0 .74 0 1.21-.09v-29z"/>
    <path fill="#d40000" d="M87.92 75.42V64.85h1.9c2 0 4.06 0 6.07.09a4.5 4.5 0 014.54 4.1c.44 2.83-.53 4.95-2.72 5.84a5.63 5.63 0 01-2 .51c-2.54.06-5.09.03-7.79.03zM87.91 61.52v-8.76c3 .09 5.94-.37 8.83.48 2 .59 2.78 1.93 2.71 4.16a3.59 3.59 0 01-3 3.8 14.37 14.37 0 01-3 .42c-1.65.07-3.3 0-4.95 0a4.37 4.37 0 01-.59-.1zM115.22 64.93c2.78 0 5.44-.14 8.09 0 3 .2 4.54 2.18 4.49 5.32s-1.75 4.85-5 5.13c-.85.07-1.71 0-2.56 0h-5.07zM115.23 61.78c-.07-.59-.12-.84-.12-1.1v-7.74a6.51 6.51 0 011.12-.17c2.34.07 4.69.06 7 .3a3.76 3.76 0 013.56 4c.06 2.3-1.12 4-3.46 4.24-2.63.31-5.33.32-8.1.47zM60.8 67.7q2.56-6.9 5.1-13.7h.36l5.08 13.6c-1.15.45-8.58.55-10.54.1z"/>
</svg>
