<svg xmlns="http://www.w3.org/2000/svg" viewBox="0 0 368 96.39"><defs><style>.cls-1{fill:#d40000;}.cls-2{fill:#fff;}</style></defs><title>zabbix-logo</title><g id="Layer_2" data-name="Layer 2"><g id="Layer_1-2" data-name="Layer 1"><path class="cls-1" d="M0,0H368V96.39H0Z"/><path class="cls-2" d="M15.74,14.69H68.95V21.6L26.12,74.07H70V81.7H14.69V74.79L57.52,22.32H15.74ZM106,23.62,93.55,57h24.91Zm-5.18-8.93H111.2L137,81.7h-9.53l-6.16-17.19H90.78L84.61,81.7H74.94ZM156,49.7V74.25h14.7q7.4,0,11-3T185.24,62q0-6.28-3.56-9.27t-11-3Zm0-27.56v20.2h13.57q6.72,0,10-2.49t3.29-7.6c0-3.38-1.1-5.91-3.29-7.58s-5.53-2.52-10-2.52H156Zm-9.16-7.45h23.41q10.48,0,16.15,4.31t5.66,12.26q0,6.14-2.9,9.79a13.06,13.06,0,0,1-8.53,4.54,17.85,17.85,0,0,1,10.5,6,17.32,17.32,0,0,1,3.75,11.38q0,9-6.17,13.87T171.18,81.7H146.86Zm71.91,35V74.25h14.71q7.4,0,11-3T248,62q0-6.28-3.56-9.27t-11-3Zm0-27.56v20.2h13.57q6.72,0,10-2.49t3.29-7.6c0-3.38-1.09-5.91-3.29-7.58s-5.53-2.52-10-2.52H218.76Zm-9.16-7.45H233q10.48,0,16.15,4.31t5.67,12.26q0,6.14-2.9,9.79a13.06,13.06,0,0,1-8.53,4.54,17.85,17.85,0,0,1,10.5,6,17.32,17.32,0,0,1,3.75,11.38q0,9-6.17,13.87T233.93,81.7H209.6Zm89.28,0H309l15.93,24.06L341,14.69h9.74l-21,31.39L353.32,81.7H343.24l-18.55-28-18.74,28h-9.74l23.63-35.37Zm-26.54,0h9.16v67h-9.16Z"/></g></g></svg>