<svg xmlns="http://www.w3.org/2000/svg" viewBox="-3 -2.87 155.87 105.25">
	<g fill="none">
		<path d="m61.797 63.757 9.956-17.7h-9.988v-3.943h15.15l-.029 3.928-9.932 17.717h9.925v3.804H61.791l.006-3.806" fill="#383838"/>
		<path d="M87.567 57.834h5.018l-1.091-4.316c-.8-3.109-1.054-4.681-1.309-6.29h-.073c-.254 1.645-.545 3.255-1.38 6.29l-1.165 4.316zm.4-15.581h4.654l7.163 25.31h-4.727l-1.6-6.254h-6.835l-1.672 6.254h-4.472l7.49-25.31z" fill="#383838"/>
		<path d="M104.073 42.253h12.87v3.767h-8.507v6.474h6.798v3.694h-6.762v11.375h-4.399v-25.31" fill="#383838"/>
		<path d="M122.035 67.551h4.435V42.253h-4.435z" fill="#383838"/>
		<path d="M133.705 42.253h4.253l6.108 12.801a54.551 54.551 0 0 1 2.327 6.035h.037c-.182-1.61-.473-4.426-.473-6.95V42.254h4.035v25.31h-4.471l-5.672-12.07c-1.382-2.89-1.963-4.718-2.545-6.51h-.073c.182 1.5.473 4.425.473 7.461v11.12h-4V42.252" fill="#383838"/>
		<path d="M16.888 99.488.425 82.926l16.463-16.562 16.463 16.562-16.463 16.562" fill="#383838"/>
		<path d="M.425 16.678 16.888.117l16.463 16.561v33.124L.425 16.678" fill="#D6BF6F"/>
		<path fill="#959595" d="M33.088 49.842 16.544 33.228 0 49.842V83.07l16.544-16.615v.001l16.544-16.614"/>
	</g>
</svg>
