<svg id="Layer_1" data-name="Layer 1" xmlns="http://www.w3.org/2000/svg" viewBox="0 0 800 159">
	<defs>
		<style>
			.cls-1{fill:#ff5100}
		</style>
	</defs>
	<path class="cls-1" d="M568.416 7.418h-37.56v23.957h37.56c27.816 0 49.74 19.893 49.74 47.711 0 27.817-21.924 47.72-49.74 47.72h-37.56v23.95h37.56c41.217 0 75.323-30.656 75.323-71.67 0-41.212-34.106-71.668-75.323-71.668Z"/>
	<path class="cls-1" d="M330.683 7.418H293.12v23.957h37.562c27.814 0 49.742 19.893 49.742 47.711 0 27.817-21.928 47.72-49.742 47.72H293.12v23.95h37.562c41.217 0 75.322-30.656 75.322-71.67 0-41.212-34.105-71.668-75.322-71.668Z"/>
	<path class="cls-1" d="m718.837 7.418-74.428 143.336h27.617l46.282-94.886 45.875 94.886H792L718.837 7.418z"/>
	<path class="cls-1" d="M159.613 67.13h109.242v23.942H159.613z"/>
	<path class="cls-1" d="M159.613 7.418h109.242V31.36H159.613z"/>
	<path class="cls-1" d="M6 7.418h129.351V31.36H6z"/>
	<path class="cls-1" d="M159.613 126.816h109.242v23.938H159.613z"/>
	<path class="cls-1" d="M397.193 150.756h109.435v-23.952h-89.274a95.388 95.388 0 0 1-20.16 23.952Z"/>
	<path class="cls-1" d="M429.558 91.06h77.003V67.124h-76.996a84.686 84.686 0 0 1-.007 23.936Z"/>
	<path class="cls-1" d="M506.628 7.418H397.253a95.148 95.148 0 0 1 20.135 23.937h89.24Z"/>
	<path class="cls-1" d="M6 126.814h129.44v23.942H6z"/>
	<path class="cls-1" d="M6 126.814v.078l.076-.078H6z"/>
	<path style="fill:#96262c" d="m39.906 126.814 95.456-95.454h-34.034L6 126.814h33.906z"/>
</svg>
