<svg xmlns="http://www.w3.org/2000/svg" width="200" height="128">
	<path fill="none" d="M127 109h123.75v90H127z"/>
	<path d="M97.306 33.052v39.15H64.879l32.427-39.15zm0-14.052a16.214 16.214 0 1 1-32.427 0zm5.342 53.2a16.214 16.214 0 0 1 32.428 0zm0-14.05V19h32.431l-32.431 39.15zm18.139 47.544a6.32 6.32 0 0 0 4.492-1.734l2.227 2.4a8.759 8.759 0 0 1-6.681 2.64c-5.435 0-8.946-3.6-8.946-8.485a8.327 8.327 0 0 1 8.16-8.488h.294c5.4 0 8.457 4.107 8.19 9.8h-12.759c.451 2.366 2.113 3.875 5.02 3.875m3.888-6.591c-.347-2.21-1.661-3.837-4.3-3.837a4.372 4.372 0 0 0-4.6 3.837zm-87.662 6.406 9.821-9.976h-9.588v-3.129h14.139v3.195l-9.82 9.973h9.952v3.132H37.01v-3.195zm25.531.177a6.324 6.324 0 0 0 4.493-1.734l2.227 2.4a8.763 8.763 0 0 1-6.682 2.64c-5.435 0-8.946-3.6-8.946-8.485a8.327 8.327 0 0 1 8.16-8.488h.294c5.4 0 8.457 4.107 8.19 9.8H57.518c.451 2.366 2.113 3.875 5.02 3.875m3.888-6.591c-.346-2.21-1.661-3.837-4.3-3.837a4.372 4.372 0 0 0-4.6 3.837zm25.053 1.401a8.153 8.153 0 0 1 8.183-8.478 7.056 7.056 0 0 1 5.436 2.445v-9.615h3.468v23.8H105.1v-2.252a6.975 6.975 0 0 1-5.467 2.574 8.213 8.213 0 0 1-8.152-8.474m13.813-.032a5.176 5.176 0 1 0-5.172 5.315 5.175 5.175 0 0 0 5.172-5.315m25.487 4.725 3.143-1.63a4.663 4.663 0 0 0 4.19 2.379c1.964 0 2.98-1.009 2.98-2.15 0-1.305-1.9-1.6-3.961-2.023-2.776-.586-5.665-1.5-5.665-4.856 0-2.578 2.452-4.957 6.317-4.923a7.505 7.505 0 0 1 6.591 3.161l-2.914 1.6a4.23 4.23 0 0 0-3.667-1.86c-1.866 0-2.817.913-2.817 1.957 0 1.172 1.506 1.5 3.865 2.022 2.685.587 5.727 1.468 5.727 4.857 0 2.248-1.964 5.279-6.612 5.248-3.4 0-5.793-1.37-7.17-3.781m23.2-3.782-2.751 3.001v4.235h-3.469v-23.8h3.469v15.586l7.364-8.086h4.226l-6.387 6.976 6.55 9.324h-3.927l-5.075-7.236zM80.992 92.03c-4.124 0-7.579 2.675-7.579 7.108v9.522h3.535v-9.081c0-2.675 1.536-4.274 4.162-4.274s3.93 1.6 3.93 4.274v9.081h3.518v-9.522c0-4.433-3.469-7.108-7.58-7.108" fill="#03363d"/>
</svg>
