<svg xmlns="http://www.w3.org/2000/svg" height="698.901" width="537.728" xml:space="preserve">
	<defs>
		<clipPath id="a" clipPathUnits="userSpaceOnUse">
			<path d="M0 524.176h403.296V0H0Z"/>
		</clipPath>
	</defs>
	<path style="fill:#000;fill-opacity:1;fill-rule:nonzero;stroke:none" d="M0 0v17.145l35.718 99.334H4.136v18.798h58.351v-17.22L26.619 18.799h35.868V0Z" transform="matrix(1.33333 0 0 -1.33333 17.934 656.632)"/>
	<path style="fill:#000;fill-opacity:1;fill-rule:nonzero;stroke:none" d="M0 0v135.352h56.472v-18.799H27.371V79.707h20.604v-19.25H27.371V18.799h29.101V0Z" transform="matrix(1.33333 0 0 -1.33333 113.515 656.632)"/>
	<path style="fill:#000;fill-opacity:1;fill-rule:nonzero;stroke:none" d="M0 0v135.428h19.701l29.702-70.834v70.834h22.709V0H53.163L23.536 75.121V0Z" transform="matrix(1.33333 0 0 -1.33333 200.611 656.632)"/>
	<path style="fill:#000;fill-opacity:1;fill-rule:nonzero;stroke:none" d="M0 0v135.352h27.371V83.994l21.205 51.358h30.605L51.584 79.934 81.211 0H52.787L32.334 61.887l-4.963-12.783V0Z" transform="matrix(1.33333 0 0 -1.33333 312.468 656.632)"/>
	<g clip-path="url(#a)" transform="matrix(1.33333 0 0 -1.33333 0 698.901)">
		<path style="fill:#000;fill-opacity:1;fill-rule:nonzero;stroke:none" d="M0 0v58.502c0 13.334-4.086 20.002-12.257 20.002-2.457 0-4.537-.613-6.241-1.842-1.705-1.228-2.958-2.908-3.76-5.039a31.915 31.915 0 0 1-1.692-6.316c-.326-2.08-.488-4.348-.488-6.805V0c0-13.285 4.06-19.926 12.181-19.926C-4.086-19.926 0-13.285 0 0m-51.81 6.166V51.66c0 31.983 13.184 47.975 39.553 47.975 26.418 0 39.628-15.992 39.628-47.975V6.844c0-5.414-.401-10.416-1.203-15.002-.803-4.588-2.169-8.936-4.099-13.047-1.929-4.111-4.386-7.608-7.369-10.49-2.982-2.883-6.755-5.151-11.316-6.805-4.563-1.654-9.776-2.48-15.641-2.48-5.815 0-11.004.814-15.565 2.443-4.563 1.629-8.323 3.834-11.28 6.617-2.958 2.781-5.402 6.191-7.331 10.227-1.93 4.035-3.308 8.334-4.136 12.896-.827 4.561-1.241 9.549-1.241 14.963" transform="translate(362.976 70.052)"/>
		<path style="fill:#000;fill-opacity:1;fill-rule:nonzero;stroke:none" d="M0 0a28.708 28.708 0 0 1-20.655 8.775h-2.463A28.719 28.719 0 0 1-43.945-.168a13.512 13.512 0 0 1-3.778-8.887c-.233-6.289 3.909-11.929 9.987-13.539 5.079-1.342 10.71-2.527 13.703-2.656v-.029c.344-.014.687-.008 1.03-.014a51.626 51.626 0 0 1 2.225 0c.344.006.684 0 1.028.014v.029c2.99.129 8.621 1.314 13.705 2.658C.047-20.977 4.183-15.316 3.938-9.021A13.528 13.528 0 0 1 .163-.164C.107-.109.052-.057 0 0" transform="translate(223.94 226.6)"/>
		<path style="fill:#000;fill-opacity:1;fill-rule:nonzero;stroke:none" d="M0 0a22.159 22.159 0 0 1-.807 4.465C-2.041 2.991-3.794 2.06-5.75 2.06c-3.75 0-6.787 3.368-6.787 7.525 0 2.718 1.312 5.079 3.255 6.403-2.658 1.663-5.725 2.623-8.994 2.623-10.133 0-18.349-9.11-18.349-20.354 0-.097.012-.184.014-.28a59.007 59.007 0 0 0-5.558 1.779l-7.535 2.848 9.055 11.137a46.459 46.459 0 0 0 12.31 10.631 20.782 20.782 0 0 0 21.908-.409 20.805 20.805 0 0 0 7.949-9.57L6.246 2.86A58.714 58.714 0 0 0 0 0m-126.97-.244a59.213 59.213 0 0 0-5.559-1.779c0 .096.012.183.012.28 0 2.213-.329 4.335-.913 6.33-1.006-.644-2.146-1.04-3.387-1.04-3.744 0-6.785 3.373-6.785 7.527a7.92 7.92 0 0 0 1.702 4.936c-2.658 1.649-5.707 2.601-8.963 2.601-9.606 0-17.473-8.186-18.268-18.613a58.977 58.977 0 0 0-6.254 2.862l4.728 11.533a20.792 20.792 0 0 0 7.949 9.57 20.782 20.782 0 0 0 21.908.409 46.525 46.525 0 0 0 12.311-10.631l9.054-11.137zM96.317 125.535c-2.222-2.929-5.239-6.658-7.623-9.754l-.067.531c.537 4.139 1.08 8.28 1.619 12.419.549 4.209 1.098 8.423 1.366 12.656.052.768-.945 1.129-1.406.518-1.186-1.561-2.659-3.413-4.075-5.207l-2.463 20.109c-.821 6.7-8.642 9.942-13.962 5.782l-39.7-31.027a33.703 33.703 0 0 0-36.053-3.473l-26.628 13.566c-15.646 7.972-32.674 12.083-49.752 12.379v.003h-.148c-.663.013-1.331.013-1.994.013-.669 0-1.334 0-1.998-.013h-.146v-.003c-17.079-.296-34.107-4.407-49.749-12.379l-26.633-13.566a33.704 33.704 0 0 0-36.053 3.473l-42.191 32.973c-4.224 3.304-10.435.733-11.086-4.589l-2.846-23.248c-1.415 1.794-2.888 3.646-4.073 5.207-.464.611-1.46.25-1.409-.518.267-4.233.817-8.447 1.365-12.656.539-4.139 1.077-8.28 1.619-12.419l-.064-.531c-2.388 3.096-5.404 6.825-7.625 9.754-.602.787-1.844.306-1.779-.681.336-5.334 1.031-10.645 1.722-15.944 1.002-7.711 2.01-15.428 3.018-23.137.631-4.845 2.105-16.823 3.809-28.091.359-2.352 3.72-2.453 4.214-.122l15.66 73.277c1.608 4.1 6.745 5.434 10.141 2.636l5.023-2.999c16.676-9.959 39.085-41.681 39.085-41.681 2.674-2.208 1.825-6.501-1.489-7.524a136.18 136.18 0 0 1-14.297-5.29c-13.248-5.77-25.721-13.275-35.726-22.916-11.174-10.774-15.007-27.111-10.069-41.829l10.057-29.982a43.797 43.797 0 0 1 4.415-12.075 44.443 44.443 0 0 1 5.357-7.765c1.269-1.472 3.628-.144 3.121 1.733-.587 2.204-1.01 4.471-1.344 6.769.035.14.139.251.285.251a.314.314 0 0 0 .276-.164l.05.088c1.578-3.069 3.418-5.984 5.638-8.583 1.289-1.506 3.696-.214 3.186 1.696a60.888 60.888 0 0 0-.791 3.396c0 .194.158.351.356.351.047 0 .09-.008.134-.022v.003l25.247-13.004a20.18 20.18 0 0 1 15.828-1.129l44.64 15.428c9.592 3.32 20.158-1.013 24.665-10.11l7.068-14.263c1.964-3.969 5.498-7.032 9.801-8.082a14.781 14.781 0 0 1 16.823 7.779l7.222 14.566c4.505 9.097 15.068 13.43 24.668 10.11L5.192-47.203a20.188 20.188 0 0 1 15.829 1.129L46.266-33.07l.002-.003a.404.404 0 0 0 .136.022.35.35 0 0 0 .35-.351 62.711 62.711 0 0 0-.789-3.396c-.516-1.91 1.896-3.202 3.182-1.696 2.225 2.599 4.062 5.514 5.639 8.583l.051-.088a.313.313 0 0 0 .273.164c.151 0 .256-.111.286-.251-.333-2.298-.751-4.565-1.343-6.769-.512-1.905 1.873-3.186 3.159-1.687a44.129 44.129 0 0 1 9.214 17.552l10.778 32.53c4.881 14.73 1.014 31.059-10.208 41.779-9.961 9.521-22.333 16.941-35.465 22.66a136.997 136.997 0 0 1-14.296 5.29c-3.316 1.023-1.491 7.524-1.491 7.524a103.675 103.675 0 0 0 39.083 41.681l5.024 2.999c3.397 2.798 8.538 1.464 10.14-2.636l15.471-72.398c.5-2.336 3.863-2.231 4.216.122 1.651 11.008 3.062 22.495 3.68 27.212 1.008 7.709 2.009 15.426 3.017 23.137.69 5.299 1.38 10.61 1.724 15.944.06.987-1.183 1.468-1.782.681" transform="translate(286.62 327.014)"/>
	</g>
</svg>
