<svg xmlns="http://www.w3.org/2000/svg" viewBox="-0.7 57.3 400.4 124.9">
	<defs>
		<style>
			.cls-1{fill:#b90d25}.cls-2{fill:#b90e26}
		</style>
	</defs>
	<path d="M72.328 152.113a1.41 1.41 0 0 1 .252-1.262c.245-.101.697-.189.705-.306a31.205 31.205 0 0 1 1.395-7.383.791.791 0 0 0-.673-1.069l.177-.82c.703-.01.968-.4.947-1.063-.026-.83.48-1.059 1.202-1.029 4.806.2 9.637-.457 14.423.418.123 10.825.24 21.651-.058 32.476l-4.991.008q-37.85 0-75.7.043c-1.938.005-2.499-.542-2.414-2.443.147-3.32.059-6.652.03-9.979a4.209 4.209 0 0 1 .806-2.467c.908-1.401 2.59-2.403 2.489-4.38l-.015.027c.752.072 1.052-.445 1.431-.98q6.406-9.01 12.861-17.986c4.222-5.885 8.467-11.752 12.675-17.647 4.846-6.79 9.655-13.606 14.496-20.399q4.196-5.888 8.448-11.736c.498-.688 1.032-1.31-.323-1.588-10.164.01-20.328.046-30.491.003-1.556-.006-2.249.376-2.651 2.047-.567 2.35-.518 4.78-1.211 7.089-1.468.876-2.255 4.456-1.266 5.784.031.042.127.037.193.055l-.18.825c-1.452 1-3.103.854-4.74.845-3.122-.016-6.249-.106-9.365.035-1.803.08-2.377-.41-2.358-2.295q.146-14.36-.004-28.722c-.023-1.997.64-2.385 2.48-2.381q38.406.081 76.812.037c.416 0 .832.012 1.248.004.764-.016 1.2.329 1.146 1.114-.325 4.789.81 9.655-.756 14.378l.033-.036c-.936.255-.983.943-.843 1.723l.021-.024a1.173 1.173 0 0 0-1.242.545c-1.566 2.178-3.294 4.26-4.645 6.564-.486.829-2.027 1.41-1.222 2.843l-.237.46a3.413 3.413 0 0 0-2.686 3.702l-.417.41a3.98 3.98 0 0 0-2.549 3.731l-.36.437c-.861-.083-1.136.577-1.544 1.144q-5.505 7.673-11.057 15.313c-.386.533-.395.867.336.986a.845.845 0 0 1-.715.886c-1.28.081-2.742 2.16-2.55 3.625-2.368 3.444-4.7 6.913-7.11 10.326-3.154 4.466-6.37 8.888-9.558 13.328l-2.515 3.496c-.379.179-1.248-.038-.707.88a.72.72 0 0 1-.53.79c-1.238-.115-1.233.741-1.24 1.588l-.051.06c-1.213.181-1.207 1.071-1.154 1.987a1.327 1.327 0 0 0 .392.134c11.31.057 22.62.203 33.93-.071.917-.006 1.422-.242.663-1.186l.08-.432a1.683 1.683 0 0 0 .457-2.462zm236.968-12.917-.093-.835c.465-.324.453-.813.453-1.3v-11.173c0-.486.014-.976-.45-1.301l.1-.846c1.68-1.839 1.448-4.03 1.152-6.234l.071-.405a16.22 16.22 0 0 0 2.39-7.35l.019-.147c1.442-.34 1.29-1.476 1.27-2.546l-.014.02a1.047 1.047 0 0 0 .878-.436c1.841-2.443 3.016-5.392 5.587-7.295.275-.204.185-.9.264-1.367l.011-.025c2.377-.289 3.653-2.045 4.982-3.732l.029-.013a5.704 5.704 0 0 0 4.524-2.562.732.732 0 0 1 .865-.272c.182.196.308.125.405-.085l.016-.007c1.253-.098 2.619.074 3.311-1.375a.705.705 0 0 1 .827-.32c.711.598 1.333.774 1.675-.358l.406-.063c2.137-.09 4.446.734 6.242-1.173l.835-.088c.45.61 1.113.446 1.714.448q4.76.018 9.521 0c.601-.002 1.265.161 1.711-.454l.84.107c.798 1.113 4.162 1.776 5.824 1.147l.819.11c1.031.708 1.952 1.834 3.418.905l.33.276c.206 1.186 1.116.737 1.813.78a.195.195 0 0 1 .28.096.852.852 0 0 0 .87.337l-.018-.013c.33 1.354 1.506 1.114 2.456 1.3 5.099 2.437 8.683 6.464 11.557 11.178 3.177 5.209 4.54 10.985 5.385 16.983a67.995 67.995 0 0 1-.068 18.215c-1.217 9.549-4.554 18.222-11.596 24.941a35.313 35.313 0 0 1-18.603 9.12 61.631 61.631 0 0 1-14.236 1.194c-8.943-.5-17.468-2.375-24.672-8.136a24.18 24.18 0 0 1-6.906-8.108c-.072-1.077.178-2.357-1.52-2.408l-.208-.477c.863-1.467-.038-2.245-1.149-2.942a.161.161 0 0 1-.095-.247c-.286-1.355.49-3.12-1.483-3.821l-.16-.5a.851.851 0 0 0 .417-.879 23.132 23.132 0 0 1-.822-6.598c.066-.783-.651-.963-1.174-1.266zm57.763-9.17c.266-2.626-.255-5.724-.403-8.838-.018-.375.21-.912-.316-1.068-.464-.138-.694.277-.926.642-1.362 2.148-2.76 4.274-4.12 6.423q-4.84 7.652-9.657 15.32c-2.594 4.13-5.158 8.279-7.772 12.396-.519.818-.595 1.063.493 1.555a15.493 15.493 0 0 0 8.32 1.087 13.429 13.429 0 0 0 11.423-8.599c2.55-5.902 3.073-12.1 2.958-18.918zm-32.32 11.122c2.827-4.194 5.599-8.342 8.207-12.605 4.046-6.614 8.415-13.029 12.57-19.577 1.834-2.892 1.748-2.945-1.692-3.722a5.466 5.466 0 0 0-.587-.207 16.99 16.99 0 0 0-10.783 2.043c-4.258 2.56-6.177 6.728-7.282 11.27-1.827 7.518-1.124 15.136-.433 22.798z" class="cls-1"/>
	<path d="M170.27 133.347c.02.55.012 1.104.07 1.65.17 1.632-.51 2.115-2.16 2.107-14.777-.063-29.555-.02-44.332-.064-1.546-.004-2.152.102-1.831 2.012.585 3.486 1.25 6.835 3.195 9.902a14.581 14.581 0 0 0 9.488 6.37c6.52 1.533 12.846.196 19.152-1.594 2.845-.807 5.632-1.761 8.436-2.67 1.245-.403 1.859-.253 2.318 1.092 1.481 4.342 3.033 8.663 4.707 12.933.408 1.042.287 1.55-.638 1.937-6.392 2.667-12.755 5.354-19.704 6.391a71.36 71.36 0 0 1-12.782 1.188c-8.753-.272-17.145-1.866-24.528-6.916a30.35 30.35 0 0 1-9.393-10.532c-3.584-6.48-5.035-13.594-5.734-20.891a.82.82 0 0 0 .66-.9q-.003-4.724-.001-9.447a.82.82 0 0 0-.663-.898 53.123 53.123 0 0 1 4.076-16.308 34.562 34.562 0 0 1 14.832-16.337 38.397 38.397 0 0 1 11.423-4.003 47.857 47.857 0 0 1 14.068-.545c8.417.792 16.01 3.61 21.482 10.41a32.035 32.035 0 0 1 6.782 15.27c.41 2.583.896 5.152 1.088 7.764a25.578 25.578 0 0 0-.012 12.079zM134.596 121.8c3.535 0 7.075-.112 10.602.046 1.803.081 2.184-.607 1.897-2.145-.404-2.163-.675-4.358-1.213-6.487-2.265-8.957-11.457-10.201-17.574-6.303-4.639 2.957-5.498 7.947-6.133 12.947-.192 1.507.16 2.053 1.819 1.984 3.529-.145 7.067-.044 10.602-.042zm124.796-17.153c-.024-1.362-.94-1.461-1.991-1.454-2.985.019-5.973-.064-8.955.038-1.31.045-1.65-.363-1.63-1.635.072-4.441.086-8.885-.005-13.326-.03-1.42.503-1.672 1.785-1.774 6.69-.532 12.29-3.156 15.825-9.107a24.807 24.807 0 0 0 3.242-10.89c.09-1.17.413-1.522 1.583-1.504 4.303.064 8.61.086 12.912-.009 1.411-.03 1.56.57 1.553 1.725-.042 5.83.095 11.665-.079 17.49-.066 2.226.712 2.65 2.722 2.616 6.454-.11 12.912.005 19.367-.08 1.368-.019 1.814.3 1.79 1.689a358.48 358.48 0 0 0 .005 13.117c.029 1.426-.456 1.697-1.792 1.69-7.352-.04-14.705.03-22.057.061-.89-.26-.664.407-.667.834-.013 1.733-.005 3.466-.005 5.2 0 12.2-.012 24.402.043 36.604.002.496-.864 1.638.658 1.623.532 1.483.512 3.097 1.332 4.536a8.413 8.413 0 0 0 6.307 4.138c.117.233.2.643.354.671a25.688 25.688 0 0 0 5.863.09c.021 0 .019-.471.028-.723a44.682 44.682 0 0 0 7.017-1.591c.935-.342 1.439-.14 1.853.899 1.498 3.756 3.113 7.467 4.732 11.174.429.981.204 1.587-.744 1.976a72.743 72.743 0 0 1-14.617 4.698 50.006 50.006 0 0 1-13.173 1.128c-5.345-.453-10.743-.923-15.199-4.477.62-.363.5-.757.025-1.131-5.293-4.168-6.889-9.995-6.937-16.308-.117-15.271-.03-30.543-.062-45.815-.002-.816.59-2.113-1.083-2.173zm-53.488-14.194c.498 2.846.97 5.697 1.519 8.533.102.533-.253 1.426.64 1.538.862.107 1.025-.782 1.406-1.33a36.085 36.085 0 0 1 7.504-8.134 22.283 22.283 0 0 1 15.003-4.88c2.356.097 4.709.276 7.065.334.993.025 1.333.403 1.327 1.37-.028 4.649-.05 9.298.012 13.945.016 1.174-.486 1.398-1.483 1.404a53.845 53.845 0 0 0-12.931 1.432c-5.856 1.476-11.368 3.561-15.5 8.255-1.655-.214-.743 1.06-.745 1.522-.056 12.408-.045 24.815-.045 37.223 0 1.317.022 2.635-.01 3.951-.017.664.184.917.839.64.621 1.512 1.79 1.85 3.356 2.135 2.072.377 4.345-.131 6.228 1.198-.637.544-.399 1.286-.405 1.951-.025 2.498-.141 5.005.03 7.49.143 2.051-.404 2.714-2.599 2.693-12.558-.117-25.118-.063-37.677-.04-.779 0-1.698-.357-2.288.54-.778-.744-.336-1.688-.354-2.526-.061-2.974.033-5.951-.052-8.924-.034-1.19.234-1.827 1.526-1.84 1.522-.017 3.022-.477 4.509-.539 1.882-.078 3.116-.712 3.811-2.43a1.018 1.018 0 0 0 .127.164c.048.042.145.104.167.087.591-.458.278-1.104.279-1.649q.032-23.323.015-46.646a4.195 4.195 0 0 0-.084-1.437c-.183-.481-.363.005-.526.138-.77-2.014-2.4-2.897-4.377-3.325-.067-.015-.127-.056-.194-.075-6.72-1.881-6.724-1.882-5.351-8.685.273-1.354-.092-2.788.529-4.095.302.044.852.331.79-.199-.256-2.165 1.189-1.885 2.51-1.884 7.554.009 15.108.028 22.662-.018 1.33-.008 2.178.205 1.962 1.785-.144 1.046.3.794.805.328zM89.348 81.366c1.565-4.723.431-9.59.756-14.378.054-.785-.382-1.13-1.146-1.114-.416.008-.832-.004-1.248-.004q-38.406 0-76.812-.037c-1.84-.004-2.503.384-2.48 2.381q.163 14.36.004 28.722c-.02 1.884.555 2.376 2.358 2.295 3.116-.14 6.243-.05 9.366-.035 1.636.009 3.288.156 4.74-.845.008 1.337-.49 1.9-1.986 1.861-4.504-.113-9.014-.09-13.52-.009-1.284.023-1.64-.328-1.635-1.617q.075-15.91-.008-31.82c-.01-1.558.572-1.775 1.926-1.771q26.21.059 52.419.026c9.013 0 18.028.044 27.04-.04 1.664-.016 2.068.45 2.012 2.071-.131 3.809-.047 7.625-.038 11.438.003 1.325-.241 2.478-1.748 2.876z" class="cls-2"/>
	<path d="M60.49 82.548c1.356.278.822.9.324 1.588q-4.241 5.856-8.448 11.736c-4.841 6.793-9.65 13.61-14.496 20.4-4.208 5.894-8.453 11.761-12.675 17.646q-6.444 8.984-12.86 17.987c-.38.534-.68 1.05-1.432.98 2.035-3.578 4.642-6.766 6.961-10.149 2.756-4.018 5.7-7.906 8.525-11.878q6.802-9.567 13.553-19.17c2.962-4.192 5.91-8.393 8.892-12.569 3.856-5.399 7.741-10.776 11.605-16.168.07-.097.037-.267.052-.403z" class="cls-2"/>
	<path d="M10.918 152.857c.102 1.977-1.58 2.979-2.49 4.38a4.209 4.209 0 0 0-.806 2.467c.03 3.327.118 6.659-.03 9.98-.084 1.9.477 2.447 2.415 2.442q37.85-.097 75.7-.043 2.496 0 4.991-.008c-.384.954-1.204.469-1.8.47q-39.977.037-79.954.06c-1.562.004-1.833-.501-1.79-1.877a57.745 57.745 0 0 0-.036-8.527c-.46-3.925 1.277-6.743 3.8-9.344z" class="cls-2"/>
	<path d="M259.393 104.647c1.673.06 1.081 1.357 1.083 2.173.033 15.272-.055 30.544.062 45.815.048 6.313 1.644 12.14 6.937 16.308.475.374.595.768-.025 1.13-3.25-1.878-4.83-4.982-6.205-8.285-1.755-4.215-1.89-8.668-1.916-13.096-.086-14.338-.037-28.677-.034-43.016 0-.343.064-.686.098-1.029zm24.304 42.908c-1.522.015-.656-1.127-.658-1.623-.055-12.202-.043-24.403-.043-36.605 0-1.733-.008-3.466.005-5.2.003-.426-.223-1.092.667-.833l.029 44.26zm-73.191 8.702c-.655.276-.856.023-.84-.641.033-1.316.01-2.634.01-3.95.001-12.409-.01-24.816.046-37.224.002-.462-.91-1.736.744-1.522l.04 43.337zm-33.354 15.966c.589-.897 1.508-.54 2.287-.54 12.56-.023 25.12-.077 37.678.04 2.194.021 2.74-.642 2.599-2.693-.172-2.485-.056-4.992-.031-7.49.006-.665-.232-1.407.405-1.95.039 3.87.067 7.74.123 11.61.012.823-.158 1.21-1.147 1.206q-20.76-.069-41.521-.058a1.378 1.378 0 0 1-.393-.125z" class="cls-1"/>
	<path d="M62.936 119.164c-.73-.119-.722-.453-.336-.986q5.544-7.646 11.057-15.313c.408-.567.683-1.227 1.545-1.144-1.66 3.174-4.044 5.855-6.015 8.82-1.965 2.953-4.158 5.755-6.251 8.623z" class="cls-2"/>
	<path d="M186.569 106.621c.163-.133.343-.62.526-.138a4.195 4.195 0 0 1 .084 1.437q.004 23.323-.015 46.646c0 .545.313 1.191-.279 1.65-.021.016-.119-.046-.167-.088a1.02 1.02 0 0 1-.127-.164c-.033-5.39-.094-10.779-.092-16.168q.008-16.588.07-33.175z" class="cls-1"/>
	<path d="M90.756 139.599c-4.786-.875-9.617-.218-14.423-.418-.723-.03-1.228.198-1.202 1.03.02.662-.244 1.052-.947 1.061-.035-2.242.969-2.95 3.259-2.814 3.867.23 7.759.041 11.64.079.702.007 1.86-.45 1.673 1.062z" class="cls-2"/>
	<path d="M205.905 90.453c-.504.466-.949.718-.805-.328.216-1.58-.632-1.793-1.962-1.785-7.553.046-15.108.027-22.661.018-1.322-.001-2.766-.28-2.511 1.884.062.53-.488.243-.79.199-.418-2.168.459-2.742 2.63-2.703q11.725.208 23.455-.002c2.194-.04 3.026.576 2.644 2.717z" class="cls-1"/>
	<path d="M309.206 124.587c.464.325.45.815.45 1.3v11.175c0 .486.012.975-.453 1.299a69.848 69.848 0 0 1 .003-13.774zm48.791-36.685c-.446.615-1.11.452-1.71.454q-4.762.018-9.522 0c-.601-.002-1.265.162-1.714-.448a63.518 63.518 0 0 1 12.946-.006zM81.45 92.981c-.805-1.433.736-2.014 1.222-2.843 1.351-2.303 3.079-4.386 4.645-6.564a1.173 1.173 0 0 1 1.242-.545 96.367 96.367 0 0 1-7.109 9.952zm239.473 5c-.08.467.011 1.163-.264 1.367-2.57 1.903-3.746 4.852-5.587 7.295a1.047 1.047 0 0 1-.878.436 26.998 26.998 0 0 1 6.729-9.098z" class="cls-2"/>
	<path d="M170.27 133.347a25.578 25.578 0 0 1 .011-12.079 104.485 104.485 0 0 1-.012 12.079zm-73.74-8.33a.82.82 0 0 1 .663.898q-.002 4.723 0 9.446a.82.82 0 0 1-.66.9q-.273-5.622-.003-11.244z" class="cls-1"/>
	<path d="M74.007 142.093a.791.791 0 0 1 .673 1.07 31.205 31.205 0 0 0-1.395 7.382c-.008.117-.46.205-.705.306-.024-3 1.048-5.822 1.427-8.758zm235.289-2.897c.523.303 1.24.483 1.174 1.266a23.132 23.132 0 0 0 .822 6.598.851.851 0 0 1-.416.878 58.372 58.372 0 0 1-1.58-8.742zM25.065 97.526c-.066-.018-.162-.013-.193-.055-.99-1.328-.203-4.908 1.266-5.784l-1.073 5.839zM312.92 109.75a16.22 16.22 0 0 1-2.39 7.351 21.127 21.127 0 0 1 2.39-7.35zm-2.462 7.756c.296 2.204.528 4.395-1.151 6.234a29.82 29.82 0 0 1 1.151-6.234zm54.203-28.35c-1.662.628-5.026-.035-5.825-1.148a20.748 20.748 0 0 1 5.825 1.147zm-20.445-1.16c-1.796 1.906-4.105 1.082-6.242 1.172a29.524 29.524 0 0 1 6.242-1.173zm-18.3 6.227c-1.329 1.687-2.605 3.443-4.982 3.732 1.558-1.382 2.928-3.013 4.982-3.732z" class="cls-2"/>
	<path d="M297.58 156.267c-.008.252-.006.722-.027.723a25.688 25.688 0 0 1-5.863-.09c-.153-.028-.237-.438-.354-.671z" class="cls-1"/>
	<path d="M78.527 97.143a3.413 3.413 0 0 1 2.686-3.702 14.836 14.836 0 0 1-2.686 3.702zm-2.966 4.141a3.98 3.98 0 0 1 2.548-3.731 8.934 8.934 0 0 1-2.548 3.731zM330.47 91.65a5.704 5.704 0 0 1-4.524 2.562 10.421 10.421 0 0 1 4.524-2.562zm-270.8 32.025c-.191-1.465 1.271-3.544 2.55-3.625a13.85 13.85 0 0 1-2.55 3.625zm251.365 24.764c1.973.7 1.197 2.466 1.483 3.821a9.157 9.157 0 0 1-1.483-3.821zm57.863-58.268c-1.466.93-2.387-.197-3.418-.905a9.931 9.931 0 0 1 3.418.905zm-56.285 62.336c1.11.697 2.012 1.475 1.149 2.942a5.08 5.08 0 0 1-1.149-2.942zm22.453-62.597c-.692 1.449-2.058 1.277-3.311 1.375a5.726 5.726 0 0 1 3.311-1.375zm-20.858 17.149c.02 1.07.172 2.206-1.27 2.546a4.342 4.342 0 0 1 1.27-2.546zm-.238 48.867c1.698.051 1.448 1.331 1.52 2.408a8.294 8.294 0 0 1-1.52-2.408zm60.659-62.979c-.95-.186-2.125.055-2.456-1.3a3.523 3.523 0 0 1 2.456 1.3zM36.806 156.13c-.053-.916-.06-1.806 1.154-1.988a5.092 5.092 0 0 1-1.154 1.988zm1.204-2.047c.008-.847.003-1.703 1.241-1.589a3.847 3.847 0 0 1-1.24 1.589zm333.031-62.856c-.697-.043-1.607.406-1.813-.78.601.268 1.384.113 1.813.78zM72.328 152.113a1.683 1.683 0 0 1-.457 2.462l.457-2.462zm265.24-62.881c-.342 1.132-.964.956-1.675.358zm-249.03-6.179c-.14-.78-.093-1.468.843-1.723a2.128 2.128 0 0 1-.843 1.723zm-16.747 71.954c.76.943.254 1.18-.663 1.186l.663-1.186zm-32.01-3.303c-.541-.917.328-.7.707-.879a1.141 1.141 0 0 1-.707.88z" class="cls-2"/>
	<path d="M372.191 91.66a.852.852 0 0 1-.87-.336.788.788 0 0 1 .87.336zm-40.452-.368c-.097.21-.223.281-.405.085z" class="cls-2"/>
</svg>
