<svg xmlns="http://www.w3.org/2000/svg" viewBox="-5.58 -5.58 290.16 65.16">
	<path fill="#309cdd" d="M22.183 16.062c3.977.499 7.28 3.17 8.686 6.788l10.309-12.475V.006H.978v10.369h25.998l-4.793 5.687"/>
	<path fill="#f68313" d="M20.84 18.636c-4.467 0-8.1 3.633-8.1 8.097 0 4.466 3.633 8.098 8.1 8.098 4.466 0 8.1-3.632 8.1-8.098 0-4.464-3.634-8.097-8.1-8.097"/>
	<path fill="#309cdd" d="M43.762 42.386H14.728l4.188-5.07a10.793 10.793 0 0 1-8.373-7.441L0 42.385v10.821h52.615c-4.147-2.482-7.242-6.234-8.853-10.82"/>
	<path fill="#309cdd" d="M71.075 30.813c.076-3.756-2.855-6.913-6.913-6.913-4.96 0-7.664 3.383-7.965 6.913zm9.542 16.08c-3.606 4.584-9.542 7.214-15.403 7.214-11.272 0-20.288-7.513-20.288-19.161 0-11.646 9.016-19.16 20.288-19.16 10.52 0 17.132 7.514 17.132 19.16v3.531H56.197c.902 4.284 4.133 7.065 8.49 7.065 3.683 0 6.163-1.88 8.04-4.434l7.89 5.786m59.333-21.19v-9.017h-9.918V5.867h-11.271v10.82h-17.133V5.867h-11.27v10.82h-7.214v9.017h7.213V43.06c0 7.966 5.786 11.047 13.3 11.047 2.63 0 5.41-.226 7.89-1.128v-9.392c-.977.903-3.381 1.053-4.584 1.053-4.884 0-5.335-2.856-5.335-6.763V25.704h17.133V43.06c0 7.966 5.785 11.047 13.299 11.047 2.631 0 5.41-.226 7.89-1.128v-9.392c-.977.903-3.381 1.053-4.584 1.053-4.883 0-5.334-2.856-5.334-6.763V25.704h9.918m23.622 11.497c-3.456 0-11.121.301-11.121 5.259 0 2.705 2.857 3.983 5.336 3.983 4.433 0 8.565-2.328 8.565-6.837V37.2zm2.78 11.422h-.15c-2.48 3.907-6.987 5.484-11.571 5.484-6.839 0-13-3.906-13-11.27 0-12.625 15.328-12.85 24.72-12.85 0-3.982-3.303-6.537-7.212-6.537-3.683 0-6.763 1.653-9.167 4.358l-6.012-6.162c4.135-3.907 10.145-5.86 16.081-5.86 13.15 0 16.68 6.687 16.68 18.859v18.561h-10.37v-4.583"/>
	<path fill="#1c3568" d="M202.438 27.432c-1.655-2.029-3.832-3.08-6.538-3.08-1.88 0-4.133.827-4.133 3.005 0 5.41 19.01.827 19.01 14.728 0 9.317-9.017 12.022-16.833 12.022-5.109 0-10.743-1.276-14.35-4.958l6.839-7.591c2.104 2.557 4.582 3.984 7.965 3.984 2.552 0 5.109-.677 5.109-2.63 0-5.862-19.012-.901-19.012-14.803 0-8.566 7.666-12.323 15.33-12.323 4.809 0 10.143 1.202 13.526 4.809l-6.913 6.837m36.335 3.381c.074-3.756-2.855-6.913-6.912-6.913-4.96 0-7.664 3.383-7.967 6.913zm9.543 16.08c-3.606 4.584-9.543 7.214-15.403 7.214-11.272 0-20.289-7.513-20.289-19.161 0-11.646 9.017-19.16 20.289-19.16 10.52 0 17.133 7.514 17.133 19.16v3.531h-26.152c.903 4.284 4.134 7.065 8.492 7.065 3.683 0 6.163-1.88 8.04-4.434l7.89 5.786m30.929-21.19h-9.918v12.173c0 3.907.45 6.763 5.334 6.763 1.204 0 3.608-.15 4.584-1.053v9.392c-2.479.902-5.26 1.128-7.89 1.128-7.514 0-13.3-3.08-13.3-11.047V25.704h-7.213v-9.017h7.213V5.867h11.272v10.82h9.918v9.017"/>
</svg>
