<svg xmlns="http://www.w3.org/2000/svg" xmlns:xlink="http://www.w3.org/1999/xlink" width="200" height="128">
	<defs>
		<linearGradient id="d" x1="20" y1="64" x2="180" y2="64" gradientUnits="userSpaceOnUse">
			<stop offset="0" stop-color="#ffef02"/>
			<stop offset="1" stop-color="#f89617"/>
		</linearGradient>
		<linearGradient id="c" x1="59.031" y1="108.829" x2="134.242" y2="19.197" gradientUnits="userSpaceOnUse">
			<stop offset="0" stop-color="#00aab2"/>
			<stop offset=".27" stop-color="#02abb3"/>
			<stop offset=".417" stop-color="#0aaeb8"/>
			<stop offset=".535" stop-color="#18b3c0"/>
			<stop offset=".637" stop-color="#2bb9cb"/>
			<stop offset=".728" stop-color="#45c2da"/>
			<stop offset=".812" stop-color="#63cdeb"/>
			<stop offset=".855" stop-color="#76d4f6"/>
		</linearGradient>
		<linearGradient id="j" x1="59.031" y1="108.829" x2="134.242" y2="19.197" xlink:href="#c"/>
		<mask id="e" x="25" y="35" width="33" height="31" maskUnits="userSpaceOnUse"/>
		<mask id="g" x="25" y="35" width="33" height="31" maskUnits="userSpaceOnUse">
			<use transform="translate(25 35)" xlink:href="#b" filter="url(#luminosity-noclip-2)"/>
		</mask>
		<mask id="i" x="25" y="35" width="33" height="31" maskUnits="userSpaceOnUse">
			<use transform="translate(25 35)" xlink:href="#b" filter="url(#luminosity-noclip-3)"/>
		</mask>
		<radialGradient id="k" cx="41.502" cy="50.337" r="13.439" gradientUnits="userSpaceOnUse">
			<stop offset="0" stop-color="#fff"/>
			<stop offset=".309" stop-color="#fff" stop-opacity=".991"/>
			<stop offset=".477" stop-color="#fff" stop-opacity=".959"/>
			<stop offset=".611" stop-color="#fff" stop-opacity=".906"/>
			<stop offset=".728" stop-color="#fff" stop-opacity=".83"/>
			<stop offset=".833" stop-color="#fff" stop-opacity=".731"/>
			<stop offset=".928" stop-color="#fff" stop-opacity=".611"/>
			<stop offset="1" stop-color="#fff" stop-opacity=".5"/>
		</radialGradient>
		<radialGradient id="l" cx="41.502" cy="50.337" r="13.439" gradientUnits="userSpaceOnUse">
			<stop offset="0" stop-color="#e77cc4"/>
			<stop offset=".318" stop-color="#e77cc4" stop-opacity=".99"/>
			<stop offset=".491" stop-color="#e77cc4" stop-opacity=".955"/>
			<stop offset=".63" stop-color="#e77cc4" stop-opacity=".896"/>
			<stop offset=".75" stop-color="#e77cc4" stop-opacity=".812"/>
			<stop offset=".858" stop-color="#e77cc4" stop-opacity=".703"/>
			<stop offset=".956" stop-color="#e77cc4" stop-opacity=".571"/>
			<stop offset="1" stop-color="#e77cc4" stop-opacity=".5"/>
		</radialGradient>
		<clipPath id="f">
			<circle cx="46.135" cy="45.031" r="4.83" fill="#0058b7"/>
		</clipPath>
		<clipPath id="h">
			<circle cx="36.24" cy="54.22" r="4.359" fill="none"/>
		</clipPath>
		<filter id="a" x="25" y="35" width="33" height="31" filterUnits="userSpaceOnUse" color-interpolation-filters="sRGB">
			<feFlood flood-color="#fff" result="bg"/>
			<feBlend in="SourceGraphic" in2="bg"/>
		</filter>
	</defs>
	<path d="M56.424 30.751a16.635 16.635 0 0 0-4.089.5c-.326.082-.67.152-1.034.225a14.884 14.884 0 0 0-2.215.572 39.419 39.419 0 0 0-4.733 2.038 38.225 38.225 0 0 0-5.284 3.147 67.937 67.937 0 0 0-6.235 5.252 50.7 50.7 0 0 0-7.354 8.933 37.946 37.946 0 0 0-3.752 7.071 21.714 21.714 0 0 0-1.709 7.268 11.815 11.815 0 0 0 1.681 7.316 9.935 9.935 0 0 0 7.784 4.677c.553.037 1.139.059 1.81.067l-.478.4-1.266 1.065c-1.467 1.236-4.689 4.183-4.825 4.308l-.788.72.213 1.046a3.3 3.3 0 0 0 1.03 1.791c.053.046.123.112.2.181a5.881 5.881 0 0 0 .617.53c.318.23.643.473.958.708a32.273 32.273 0 0 0 2.874 1.986 19.81 19.81 0 0 0 3.771 1.68 22.832 22.832 0 0 0 4.566 1.18 27.054 27.054 0 0 0 3.192.194 22.949 22.949 0 0 0 8.045-1.422 31.048 31.048 0 0 0 5.447-2.618 39.658 39.658 0 0 0 7.283-5.82c.065.2.136.406.215.611a19.907 19.907 0 0 0 1.782 3.567 13.5 13.5 0 0 0 9.89 5.636l.722.011c.618.01 1.257.021 1.893.021 1 0 1.83-.027 2.6-.084a13.9 13.9 0 0 0 2.365-.438c.421-.1.819-.2 1.2-.269.29-.05.553-.12.785-.181a3.276 3.276 0 0 1 .613-.129h.02c.611.231 1.222.434 1.813.63.7.234 1.368.455 2.011.712 2.064.825 7.015 2.768 7.064 2.788l1.6.627.773-1.535c.043-.086.745-1.482 1.359-2.784a7.993 7.993 0 0 0 4.378 1.207c.326 0 .664-.016 1.007-.047a15.186 15.186 0 0 0 4.065-.986 32.048 32.048 0 0 0 5.441-2.842c.08-.049.153-.1.221-.147.638.274 1.28.561 1.906.84l.051.023c.328.146.654.3.98.446.463.213.941.433 1.426.643.534.232 1.074.456 1.6.673.418.173.837.347 1.253.525.9.383 3.191 1.076 3.449 1.154l2.082.626.325-2.15.381-2.524a6.54 6.54 0 0 1 .929.455c1.124.7 2.2 1.466 3.334 2.275l.718.511c.541.383 2.371 1.576 2.578 1.711l2.522 1.642.377-2.986a64.32 64.32 0 0 1 .246-1.789l.072-.415a7.444 7.444 0 0 0 3.978 1.069c.282 0 .575-.013.871-.038a11.343 11.343 0 0 0 4.143-1.143c.308-.152.624-.3.959-.452a19.724 19.724 0 0 0 2.278-1.173 62.205 62.205 0 0 0 4.509-3.11 97.577 97.577 0 0 0 4.887-3.936c1.628-1.4 3.22-2.877 4.76-4.3l.5-.464.452-.417c1.407-1.3 2.863-2.646 4.252-4.038 2.107-2.112 4-4.029 5.839-6.1a24.406 24.406 0 0 0 2.709-3.943 15.331 15.331 0 0 0 1.306-3.125 7.992 7.992 0 0 0-.657-6.34 11.163 11.163 0 0 0-1.439-1.979 10.9 10.9 0 0 0-4.307-2.834 13.44 13.44 0 0 0-2.123-.618l-.22-.051c-.271-.063-.542-.132-.829-.2a17.441 17.441 0 0 0-2.871-.552c-1.579-.13-3.159-.14-4.687-.151l-.917-.007h-.632c-1.031 0-2.081.025-3.124.074-1.56.075-2.95.172-4.248.3-1.037.1-2.078.228-3.085.351-.637.077-1.3.157-1.939.229-1.022.114-2.066.223-3.075.328l-1.614.169a2.394 2.394 0 0 0-.428.087l-.456.1-.468.105a12.048 12.048 0 0 0-1.693.613l-.863.35-.01.035-.106-.042c-1-.391-2.035-.8-3.029-1.215-1.7-.719-5.909-2.463-5.951-2.48l-2.1-.873-.462 2.231c-.039.188-.364 1.757-.48 2.422l-.243-.108c-.958-.43-1.949-.874-2.593-1.167-1.932-.882-6.432-3.01-6.477-3.031l-2.105-1-.535 2.266c-.024.1-.57 2.414-.734 3.265q-.178.932-.364 1.861a26.22 26.22 0 0 0-1-.518c-.49-.236-.982-.468-1.474-.7a147.29 147.29 0 0 1-1.849-.882c-.574-.28-1.159-.576-1.725-.862-.477-.241-.969-.49-1.46-.732-1.093-.54-3.937-1.637-4.258-1.761l-1.947-.749-.548 2.013c-.038.139-.755 2.773-1.262 4.791a16.646 16.646 0 0 0-6.24-4.386 32.377 32.377 0 0 0-2.857-1.028l-.24-.073a15.089 15.089 0 0 0-2.955-.674c-1.01-.1-2-.181-3.028-.181a12.59 12.59 0 0 0-3.974.58 8.888 8.888 0 0 1-.764.2 10 10 0 0 0-1.491.444 18.8 18.8 0 0 0-3.5 1.888c-.165-1.474-.439-2.879-.7-4.159a23.031 23.031 0 0 0-2.2-6.236 16.636 16.636 0 0 0-5.942-6.58 16.238 16.238 0 0 0-7.494-2.326 18.878 18.878 0 0 0-1.417-.054z" fill="url(#d)"/>
	<path d="M156.754 69.112a9.128 9.128 0 0 1-2.428 2.983c-1 .912-2.042 1.768-3.092 2.617a2.4 2.4 0 0 1-.779.257 2.77 2.77 0 0 1-.052-.769c.377-1.776.793-3.545 1.172-5.322.161-.752.419-1.065 1.173-1.181.619-.1 1.244-.148 1.959-.231a9.616 9.616 0 0 1 1.364.182.979.979 0 0 1 .683 1.464zm-70.19 2.671a8.123 8.123 0 0 1-.1 2.391 9.2 9.2 0 0 1-1.04 2.266 10.473 10.473 0 0 1-1.265 1.752 1.369 1.369 0 0 1-.911.392 10.5 10.5 0 0 1-1.927-.179.981.981 0 0 0-1.089.494c-.331.5-.654 1.016-1.006 1.506a1.321 1.321 0 0 1-2.226.089 2.6 2.6 0 0 1-.712-2.165 8.621 8.621 0 0 1 1.887-4.743 12.3 12.3 0 0 1 3.194-3.163 4.836 4.836 0 0 1 2.585-1.006 2.519 2.519 0 0 1 2.61 2.366zm-2.68.458a.911.911 0 0 0-.758.105 13.3 13.3 0 0 0-3.326 3.237c1 .107 1.846.212 2.7.272a.62.62 0 0 0 .42-.287 5.662 5.662 0 0 0 1.128-2.6c.022-.246-.014-.637-.164-.727zm93.943-12.216a13.6 13.6 0 0 1-1.136 2.746 22.82 22.82 0 0 1-2.494 3.645c-1.841 2.078-3.8 4.056-5.762 6.023-1.507 1.51-3.083 2.953-4.65 4.4-1.721 1.592-3.436 3.192-5.212 4.722a94.942 94.942 0 0 1-4.791 3.859 60.481 60.481 0 0 1-4.372 3.017c-.967.6-2.048 1.025-3.076 1.534a9.51 9.51 0 0 1-3.467.954 5.44 5.44 0 0 1-5.563-2.7 2.626 2.626 0 0 0-.205-.287 1.332 1.332 0 0 0-.192-.147c-.221 1.386-.421 2.729-.656 4.067-.081.458-.26 1.879-.26 1.879s-1.991-1.3-2.517-1.669c-1.368-.969-2.724-1.961-4.144-2.847a19.663 19.663 0 0 0-2.492-1.126c-.09-.039-.95-.32-.95-.32l-.73 4.833s-2.426-.729-3.251-1.082c-.945-.4-1.9-.785-2.841-1.194-.8-.348-1.59-.725-2.388-1.081-.836-.373-1.672-.747-2.516-1.1-.61-.255-1 .24-1.423.5a30.172 30.172 0 0 1-5.12 2.683 13.326 13.326 0 0 1-3.563.87 6.147 6.147 0 0 1-5.388-1.865c-.4-.424-.608-.351-.825.2-.489 1.232-2.045 4.324-2.045 4.324s-4.971-1.951-7.054-2.783c-1.264-.505-2.582-.874-3.856-1.355a4.281 4.281 0 0 0-2.409.216c-1.132.2-2.242.6-3.378.683-1.676.125-3.368.071-5.052.047a10.1 10.1 0 0 1-3.873-1.067 9.891 9.891 0 0 1-4.459-3.7 18.015 18.015 0 0 1-1.61-3.229 29.779 29.779 0 0 1-.845-3.108 3.393 3.393 0 0 0-.173-.4 3.461 3.461 0 0 0-.516.385 40.275 40.275 0 0 1-8.706 7.405 29.342 29.342 0 0 1-5.12 2.459 21.839 21.839 0 0 1-10.357 1.125 21 21 0 0 1-4.184-1.095 18.131 18.131 0 0 1-3.421-1.514c-1.289-.763-2.467-1.716-3.685-2.6-.252-.183-.464-.421-.7-.624a1.458 1.458 0 0 1-.4-.727s3.313-3.031 4.767-4.256q2.5-2.1 4.989-4.207a3.75 3.75 0 0 0 .419-.56c-.372-.023-.612-.05-.852-.051-1.9-.008-3.815.088-5.711-.039a8.012 8.012 0 0 1-6.339-3.84 10.011 10.011 0 0 1-1.368-6.2 20.3 20.3 0 0 1 1.579-6.65 36.348 36.348 0 0 1 3.57-6.721 49.118 49.118 0 0 1 7.081-8.606 65.911 65.911 0 0 1 6.061-5.106 36.774 36.774 0 0 1 5.028-2.987 38.177 38.177 0 0 1 4.511-1.94 31.246 31.246 0 0 1 3.065-.74 15.167 15.167 0 0 1 4.9-.391 14.437 14.437 0 0 1 6.646 2.049 14.835 14.835 0 0 1 5.267 5.864 21.3 21.3 0 0 1 2.018 5.733 29.3 29.3 0 0 1 .809 6.984 1.06 1.06 0 0 0 .038.29.993.993 0 0 0 .139.205c.268-.245.518-.483.776-.709a17.683 17.683 0 0 1 5-3.138c.679-.276 1.431-.369 2.133-.6a16.163 16.163 0 0 1 9.065.361c.913.275 1.809.614 2.693.972a14.812 14.812 0 0 1 6.38 4.917c.364.483.685 1 1.019 1.5.118.177.218.366.325.549l.157-.156c.029-.025.077-.045.083-.075.162-.758.309-1.519.48-2.274.419-1.85 1.583-6.122 1.583-6.122s3.054 1.175 4.1 1.692c1.067.527 2.123 1.076 3.192 1.6 1.106.539 2.224 1.053 3.332 1.586.65.313 2.186 1.169 2.186 1.169s-.827 2.939-1.25 4.05c-.236.617-.434 1.25-.623 1.883-.211.707-.383 1.425-.589 2.133a18.477 18.477 0 0 0-.8 6.329 1.955 1.955 0 0 0 .592 1.555c.3-.747.644-1.427.861-2.144.276-.916.453-1.863.675-2.8s.454-1.894.682-2.84c.018-.077.045-.151.059-.228.475-2.535.944-5.071 1.424-7.6.265-1.4.551-2.794.819-4.192.157-.821.716-3.186.716-3.186s4.534 2.145 6.5 3.041c1.468.67 4.772 2.136 5.019 2.265.153-.785.32-1.531.44-2.284.086-.541.484-2.459.484-2.459s4.222 1.75 5.94 2.475c1.25.528 2.517 1.014 3.78 1.51.368.145 1.34.568 1.34.568l.328-1.2s1.145-.463 1.405-.522c.32-.074.641-.142.961-.216a1.47 1.47 0 0 1 .171-.042c1.567-.166 3.134-.323 4.7-.5 1.667-.186 3.33-.414 5-.577a83.482 83.482 0 0 1 4.154-.292q1.821-.086 3.647-.069c1.824.018 3.654 0 5.469.152a24.1 24.1 0 0 1 3.427.713 13.422 13.422 0 0 1 2.057.578 9.073 9.073 0 0 1 3.594 2.321 9.387 9.387 0 0 1 1.205 1.64 6.085 6.085 0 0 1 .519 4.879zm-51.876 7.994c.324-1.426.716-2.837 1.066-4.258.21-.851.353-1.721.6-2.56.458-1.537.987-3.053 1.446-4.59a.683.683 0 0 0-.284-.591c-1.313-.642-2.648-1.238-3.975-1.852-1.54-.712-3.081-1.419-4.615-2.145-.524-.248-.685-.2-.806.383-.378 1.8-.761 3.591-1.121 5.39-.3 1.491-.561 2.989-.846 4.482a39.838 39.838 0 0 1-1.9 7.96A19.55 19.55 0 0 1 114 73.18a2 2 0 0 1-2.465.809 4.8 4.8 0 0 1-1.707-1.964c-.54-.984-.4-2.1-.728-3.123a2.243 2.243 0 0 1 .014-.874c.087-.8.192-1.592.29-2.388a6.1 6.1 0 0 1 .107-.814c.388-1.483.766-2.969 1.2-4.44a41.166 41.166 0 0 1 1.08-3.211c.283-.737.279-.839-.415-1.173-1.806-.869-3.6-1.762-5.409-2.625a10.075 10.075 0 0 0-1.631-.619.638.638 0 0 0-.537.322 18.366 18.366 0 0 0-.4 1.811c-.235 1.191-.463 2.384-.7 3.576-.158.8-.314 1.61-.488 2.411-.223 1.025-.5 2.04-.685 3.071-.219 1.221-.367 2.456-.546 3.685-.008.058-.024.116-.033.174-.25 1.5-.511 3.007-.745 4.514-.115.736-.173 1.481-.272 2.219-.245 1.837-.522 3.671-.741 5.511-.091.764-.241 1.024-.96.885a41.09 41.09 0 0 1-3.691-.9c-.666-.193-.664-.5-.268-1.1a68.005 68.005 0 0 0 2-3.228 24.466 24.466 0 0 0 1.2-2.333 15.953 15.953 0 0 0 .944-2.5c.325-1.268.532-2.566.777-3.853a12.322 12.322 0 0 0-.876-6.907 16.183 16.183 0 0 0-2.142-3.463 11.113 11.113 0 0 0-4.2-3.311 15.566 15.566 0 0 0-3.018-1.085 22.838 22.838 0 0 0-3.916-.727 13.242 13.242 0 0 0-6.5 1.221 14.765 14.765 0 0 0-3.768 2.541 19.8 19.8 0 0 0-3.9 4.961c-.945 1.651-1.689 3.416-2.516 5.133-.277.576-.489 1.187-.812 1.734-.289.488-.5.445-.788-.045a4.062 4.062 0 0 0-1.543-1.649 10.247 10.247 0 0 0-4.529-1.184c-1.765-.058-3.534-.007-5.3 0a3.455 3.455 0 0 0-.527.049c-1.539.246-3.078.5-4.618.743-1.093.175-2.186.344-3.279.517-.057.01-.111.038-.168.052-.924.235-1.845.486-2.775.691a1.754 1.754 0 0 1-.812-.053c-.646-.179-.936-.513-.814-1.157a3.957 3.957 0 0 1 .657-1.528 21.026 21.026 0 0 1 4.511-4.672c1.241-.92 2.445-1.907 4.106-1.919.565 0 1.183-.081 1.579.43a3.475 3.475 0 0 1 .46 3.07c-.045.2-.1.4-.151.593a3.153 3.153 0 0 0 .723-.026c.843-.224 1.672-.506 2.517-.722 1.021-.262 2.058-.461 3.08-.721.768-.2 1.517-.466 2.284-.667.845-.221 1.706-.384 2.551-.6 1.55-.4 3.088-.856 4.643-1.233.431-.1.6-.273.6-.7-.016-1.413 0-2.827-.035-4.24a12.8 12.8 0 0 0-.18-1.811q-.32-1.9-.7-3.8a10.611 10.611 0 0 0-.513-2.028 44.996 44.996 0 0 0-1.7-3.577 11.151 11.151 0 0 0-4.113-4.249l-.87-.549a9.91 9.91 0 0 0-4.483-.884 28.586 28.586 0 0 0-3.437.157l-1.18.25c-.417.092-.824.235-1.233.367a30.708 30.708 0 0 0-3.193 1.062 40.164 40.164 0 0 0-4.3 2.224 39.738 39.738 0 0 0-4.1 2.833 40.677 40.677 0 0 0-3.938 3.5 81.9 81.9 0 0 0-4.6 5.164 37.936 37.936 0 0 0-2.635 3.794 30.173 30.173 0 0 0-1.94 3.421c-.6 1.286-1.057 2.636-1.551 3.968a10.32 10.32 0 0 0-.794 4.145c.037.7.009 1.413.021 2.12a1.778 1.778 0 0 0 .074.58 7.464 7.464 0 0 0 1.35 2.569 5.2 5.2 0 0 0 3.5 1.906c1.8.1 3.609.093 5.413.091a31.565 31.565 0 0 0 3.468-.133c1.686-.189 3.358-.5 5.038-.741 1.492-.214 2.988-.4 4.481-.6.928-.127 1.852-.328 2.784-.381a.893.893 0 0 1 .819 1.477 43.985 43.985 0 0 1-2.324 3.15 6.956 6.956 0 0 1-2.763 2.026 11.477 11.477 0 0 1-2.287.835 3.725 3.725 0 0 1-3.874-2.268c-.248-.465-.4-.409-.724-.13q-3.373 2.869-6.765 5.719c-.9.758-1.813 1.5-2.712 2.256-.268.226-.613.49-.116.818a20.452 20.452 0 0 0 2.429 1.518 24.125 24.125 0 0 0 3.686 1.436 23.024 23.024 0 0 0 4.131.8 15.89 15.89 0 0 0 6.715-.843 27.193 27.193 0 0 0 3.9-1.5 35.106 35.106 0 0 0 4.469-2.861 43.709 43.709 0 0 0 8.412-8.566c.45-.584.851-1.212 1.348-1.752.352-.383.686-.227.729.3.035.429.008.863.011 1.3.019 2.53-.165 5.059.8 7.518a10.006 10.006 0 0 0 2.669 4.188 9.434 9.434 0 0 0 4.195 1.969 14.371 14.371 0 0 0 5.314.134c1.732-.26 3.426-.763 5.143-1.131a2 2 0 0 1 .925.046c.765.213 1.517.479 2.273.727 1.053.345 2.123.649 3.154 1.052 1.3.51 2.569 1.1 3.852 1.657.452.2.721.091.876-.422a16.845 16.845 0 0 1 .657-1.62c.391-.931.79-1.86 1.18-2.792.474-1.133.925-2.276 1.431-3.394a.849.849 0 0 1 .61-.355c.092-.011.309.326.327.519.064.663 0 1.343.107 1.995a8.122 8.122 0 0 0 .618 2.227 3.576 3.576 0 0 0 3.634 2.082 7.024 7.024 0 0 0 1.707-.346 19.591 19.591 0 0 0 3.294-1.169c1.569-.826 3.026-1.862 4.556-2.764a1.35 1.35 0 0 1 .99-.114c.737.245 1.438.6 2.152.913 2.09.916 4.185 1.823 6.267 2.757.446.2.574.021.612-.364.052-.527.076-1.056.134-1.582q.356-3.186.723-6.369.257-2.244.516-4.486c.011-.1.04-.192.058-.288.247-1.324.489-2.648.742-3.97.247-1.287.476-2.58.767-3.861zm-83.336 7.967a1.233 1.233 0 0 0 1.557.448c.771-.369 1.522-.78 2.267-1.2.161-.09.263-.285.393-.432l-.113-.1c-.266.04-.531.084-.8.12-1.005.134-2.013.256-3.017.4-.53.086-.62.352-.287.764zm20.072-14.544c-.129.032-.231.172-.346.262a1.513 1.513 0 0 0 .387.281c1.04.325 2.092.615 3.128.952.46.149.74.069.935-.394.228-.538.52-1.049.757-1.585a4.461 4.461 0 0 0 .176-.755c-1.775.433-3.408.828-5.037 1.239zm-11.768-1.768a16.461 16.461 0 0 0-4.065 3.183 1.44 1.44 0 0 0 .358.083q1.476-.244 2.95-.506a.536.536 0 0 0 .212-.092 3.419 3.419 0 0 0 .545-2.668zm88.293 1.883c.269-1.341.525-2.684.791-4.025.091-.462.193-.922.314-1.5-.089-.135-.174-.418-.356-.508-.681-.34-1.394-.615-2.095-.917-1.667-.719-3.338-1.43-5-2.162-.531-.234-.9-.08-.973.5-.067.505-.06 1.021-.143 1.523-.558 3.4-1.134 6.8-1.7 10.194-.295 1.774-.577 3.551-.872 5.326-.243 1.47-.46 2.945-.756 4.4-.328 1.623-.724 3.232-1.1 4.845q-.619 2.625-1.264 5.244c-.079.325-.067.557.312.692a15.514 15.514 0 0 1 2.11.842c1.613.862 3.2 1.773 4.779 2.7.562.331.843.268.97-.377.165-.844.31-1.693.453-2.541.382-2.261.753-4.524 1.136-6.784q.222-1.3.481-2.6c.208-1.032.458-2.056.654-3.091.222-1.173.381-2.358.61-3.53.537-2.745 1.1-5.488 1.649-8.231zm35.236-6.2c-1.574-1.748-3.754-2.227-5.913-2.616a42.539 42.539 0 0 0-8.745-.519c-1.347.108-2.7.189-4.042.332-3.08.327-6.157.682-9.234 1.035-.76.087-1.516.21-2.274.314a.927.927 0 0 0-.881.8c-.16.748-.37 1.485-.574 2.222-.473 1.714-.929 3.434-1.442 5.137-.693 2.3-1.427 4.592-2.159 6.881-.1.312-.028.461.278.483.333.024.667.016 1 .021.812.012 1.04.259.889 1.043-.36 1.868-.746 3.731-1.113 5.6-.3 1.518-.516 3.055-.89 4.553a13.176 13.176 0 0 0-.249 5.136 2.886 2.886 0 0 0 2.894 2.633 6.709 6.709 0 0 0 2.971-.6A32.667 32.667 0 0 0 150.036 85c2.945-2.14 5.8-4.417 8.581-6.766 2.155-1.819 4.178-3.8 6.2-5.772 2.231-2.18 4.384-4.439 6.583-6.652a14.6 14.6 0 0 0 3.934-6.174 4.236 4.236 0 0 0-.886-4.28z"/>
	<path d="M57.327 35.253c3.777 0 5.2 1.342 5.353 1.433a11.151 11.151 0 0 1 4.113 4.249 41.755 41.755 0 0 1 1.7 3.577 10.611 10.611 0 0 1 .513 2.028q.381 1.893.7 3.8a12.8 12.8 0 0 1 .18 1.811c.033 1.413.019 2.827.035 4.24 0 .425-.167.593-.6.7-1.555.377-3.093.829-4.643 1.233-.845.221-1.706.384-2.551.6-.767.2-1.516.471-2.284.667-1.022.26-2.059.459-3.08.721-.845.216-1.674.5-2.517.722a3.153 3.153 0 0 1-.723.026c.051-.2.106-.394.151-.593a3.475 3.475 0 0 0-.46-3.07c-.4-.511-1.014-.434-1.579-.43-1.661.012-2.865 1-4.106 1.919a21.026 21.026 0 0 0-4.511 4.672 3.957 3.957 0 0 0-.657 1.528c-.122.644.168.978.814 1.157A1.754 1.754 0 0 0 44 66.3c.93-.205 1.851-.456 2.775-.691.057-.014.111-.042.168-.052 1.093-.173 2.186-.342 3.279-.517 1.54-.246 3.079-.5 4.618-.743a3.455 3.455 0 0 1 .527-.049c1.766-.008 3.535-.059 5.3 0a10.247 10.247 0 0 1 4.529 1.184 4.062 4.062 0 0 1 1.543 1.649c.289.49.5.533.788.045.323-.547.535-1.158.812-1.734.826-1.717 1.571-3.482 2.516-5.133a19.8 19.8 0 0 1 3.9-4.961 14.765 14.765 0 0 1 3.768-2.541 13.242 13.242 0 0 1 6.5-1.221 22.838 22.838 0 0 1 3.916.727 15.566 15.566 0 0 1 3.018 1.085 11.113 11.113 0 0 1 4.2 3.311 16.183 16.183 0 0 1 2.142 3.463 12.322 12.322 0 0 1 .876 6.907c-.245 1.287-.452 2.585-.777 3.853a15.953 15.953 0 0 1-.944 2.5 24.466 24.466 0 0 1-1.2 2.333 64.886 64.886 0 0 1-2 3.228c-.4.6-.4.9.268 1.1a41.09 41.09 0 0 0 3.691.9c.719.139.869-.121.96-.885.219-1.84.5-3.674.741-5.511.1-.738.157-1.483.272-2.219.234-1.507.5-3.01.745-4.514.009-.058.025-.115.033-.174.179-1.229.327-2.464.546-3.685.186-1.031.462-2.046.685-3.071.174-.8.33-1.607.488-2.411.235-1.192.463-2.385.7-3.576a18.429 18.429 0 0 1 .4-1.811.638.638 0 0 1 .537-.322 10.075 10.075 0 0 1 1.631.619c1.809.863 3.6 1.756 5.409 2.625.694.334.7.436.415 1.173a41.166 41.166 0 0 0-1.08 3.211c-.43 1.471-.808 2.957-1.2 4.44a6.1 6.1 0 0 0-.107.814c-.1.8-.2 1.591-.29 2.388a2.243 2.243 0 0 0-.014.874c.327 1.021.188 2.139.728 3.123a4.8 4.8 0 0 0 1.707 1.964A2 2 0 0 0 114 73.18a19.55 19.55 0 0 0 1.522-2.942 39.838 39.838 0 0 0 1.9-7.96c.285-1.493.549-2.991.846-4.482.36-1.8.743-3.594 1.121-5.39.121-.578.282-.631.806-.383 1.534.726 3.075 1.433 4.615 2.145 1.327.614 2.662 1.21 3.975 1.852a.683.683 0 0 1 .284.591c-.459 1.537-.988 3.053-1.446 4.59-.25.839-.393 1.709-.6 2.56-.35 1.421-.742 2.832-1.066 4.258-.291 1.28-.52 2.574-.767 3.864-.253 1.322-.5 2.646-.742 3.97-.018.1-.047.191-.058.288q-.26 2.242-.516 4.486-.363 3.185-.723 6.369c-.058.526-.082 1.055-.134 1.582-.038.385-.166.564-.612.364-2.082-.934-4.177-1.841-6.267-2.757-.714-.313-1.415-.668-2.152-.913a1.35 1.35 0 0 0-.99.114c-1.53.9-2.987 1.938-4.556 2.764a19.591 19.591 0 0 1-3.294 1.169 7.024 7.024 0 0 1-1.707.346 3.576 3.576 0 0 1-3.639-2.082 8.122 8.122 0 0 1-.618-2.227c-.11-.652-.043-1.332-.107-1.995-.018-.193-.235-.53-.327-.519a.849.849 0 0 0-.61.355c-.506 1.118-.957 2.261-1.431 3.394-.39.932-.789 1.861-1.18 2.792A16.845 16.845 0 0 0 94.869 91c-.155.513-.424.618-.876.422-1.283-.554-2.551-1.147-3.852-1.657-1.031-.4-2.1-.707-3.154-1.052-.756-.248-1.508-.514-2.273-.727a2 2 0 0 0-.925-.046c-1.717.368-3.411.871-5.143 1.131a14.371 14.371 0 0 1-5.314-.134 9.434 9.434 0 0 1-4.195-1.969 10.006 10.006 0 0 1-2.669-4.188c-.961-2.459-.777-4.988-.8-7.518 0-.432.024-.866-.011-1.3-.043-.528-.377-.684-.729-.3-.5.54-.9 1.168-1.348 1.752a43.709 43.709 0 0 1-8.412 8.566 35.106 35.106 0 0 1-4.468 2.868 27.193 27.193 0 0 1-3.9 1.5 15.89 15.89 0 0 1-6.715.843 23.024 23.024 0 0 1-4.131-.8 24.125 24.125 0 0 1-3.686-1.436 20.452 20.452 0 0 1-2.429-1.518c-.5-.328-.152-.592.116-.818.9-.758 1.813-1.5 2.712-2.256q3.389-2.853 6.765-5.719c.329-.279.476-.335.724.13a3.725 3.725 0 0 0 3.874 2.268 11.477 11.477 0 0 0 2.287-.835 6.956 6.956 0 0 0 2.765-2.029 43.683 43.683 0 0 0 2.324-3.15.893.893 0 0 0-.819-1.477c-.932.053-1.856.254-2.784.381-1.493.2-2.989.389-4.481.6-1.68.24-3.352.552-5.038.741a31.565 31.565 0 0 1-3.468.133c-1.8 0-3.612.01-5.413-.091a5.2 5.2 0 0 1-3.5-1.906 7.464 7.464 0 0 1-1.355-2.569 1.778 1.778 0 0 1-.074-.58c-.012-.707.016-1.415-.021-2.12a10.32 10.32 0 0 1 .794-4.145c.494-1.332.954-2.682 1.551-3.968a30.173 30.173 0 0 1 1.912-3.416 37.936 37.936 0 0 1 2.635-3.794 82.532 82.532 0 0 1 4.6-5.164 40.677 40.677 0 0 1 3.938-3.5 39.738 39.738 0 0 1 4.1-2.833 40.164 40.164 0 0 1 4.305-2.224 30.708 30.708 0 0 1 3.193-1.062c.409-.132.816-.275 1.233-.367.228-.059.843-.414 4.613-.414zm18.958 43.076A2.6 2.6 0 0 0 77 80.494a1.321 1.321 0 0 0 2.232-.089c.352-.49.675-1 1.006-1.506a.981.981 0 0 1 1.089-.494 10.5 10.5 0 0 0 1.927.179 1.369 1.369 0 0 0 .911-.392 10.473 10.473 0 0 0 1.265-1.752 9.2 9.2 0 0 0 1.04-2.266 8.123 8.123 0 0 0 .1-2.391 2.519 2.519 0 0 0-2.613-2.366 4.836 4.836 0 0 0-2.585 1.006 12.3 12.3 0 0 0-3.194 3.163 8.621 8.621 0 0 0-1.893 4.743zm83.505-26.108a42.539 42.539 0 0 1 8.745.519c2.159.389 4.339.868 5.913 2.616a4.236 4.236 0 0 1 .882 4.28 14.6 14.6 0 0 1-3.93 6.174c-2.2 2.213-4.352 4.472-6.583 6.652-2.018 1.973-4.041 3.953-6.2 5.772-2.782 2.349-5.636 4.626-8.581 6.766a32.667 32.667 0 0 1-5.071 2.806 6.709 6.709 0 0 1-2.971.6 2.886 2.886 0 0 1-2.894-2.633 13.176 13.176 0 0 1 .249-5.136c.374-1.5.592-3.035.89-4.553.367-1.867.753-3.73 1.113-5.6.151-.784-.077-1.031-.889-1.043-.334 0-.668 0-1-.021-.306-.022-.377-.171-.278-.483.732-2.289 1.466-4.579 2.159-6.881.513-1.7.969-3.423 1.442-5.137.2-.737.414-1.474.574-2.221a.927.927 0 0 1 .881-.8c.758-.1 1.514-.227 2.274-.314 3.077-.353 6.154-.708 9.234-1.035 1.343-.139 2.694-.22 4.041-.328zm-5.083 15.245c-.715.083-1.34.135-1.959.231-.754.116-1.012.429-1.173 1.181-.379 1.777-.795 3.546-1.172 5.322a2.77 2.77 0 0 0 .052.769 2.4 2.4 0 0 0 .779-.257c1.05-.849 2.1-1.7 3.092-2.617a9.128 9.128 0 0 0 2.428-2.983.979.979 0 0 0-.683-1.464 9.616 9.616 0 0 0-1.364-.182zm-14.746-11.942c-.681-.34-1.394-.615-2.095-.917-1.667-.719-3.338-1.43-5-2.162-.531-.234-.9-.08-.973.5-.067.505-.06 1.021-.143 1.523-.558 3.4-1.134 6.8-1.7 10.194-.295 1.774-.577 3.551-.872 5.326-.243 1.47-.46 2.945-.756 4.4-.328 1.623-.724 3.232-1.1 4.845q-.619 2.625-1.264 5.244c-.079.325-.067.557.312.692a15.514 15.514 0 0 1 2.11.842c1.613.862 3.2 1.773 4.779 2.7.562.331.843.268.97-.377.165-.844.31-1.693.453-2.541.382-2.261.753-4.524 1.136-6.784q.222-1.3.481-2.6c.208-1.032.458-2.056.654-3.091.222-1.173.381-2.358.61-3.53.537-2.746 1.1-5.487 1.651-8.232.269-1.341.525-2.684.791-4.025.091-.462.193-.922.314-1.5-.091-.131-.176-.417-.358-.507z" fill="url(#c)"/>
	<g mask="url(#e)">
		<path d="M38.712 46.372c8.977-8.977 15.453-9.031 16.351-9.191 1.5-.266-8.81 6.789-13.993 11.973S28.089 63.711 27.816 63.5s1.919-8.151 10.896-17.128z" fill="#fff"/>
	</g>
	<circle cx="46.135" cy="45.031" r="4.83" fill="#0058b7"/>
	<g clip-path="url(#f)">
		<circle cx="46.135" cy="45.031" r="4.83" fill="#0058b7"/>
		<g mask="url(#g)">
			<path d="M29.116 59.3a47.126 47.126 0 0 1 9.6-12.931 34.076 34.076 0 0 1 10.324-6.858c8.306-3.791 8.755-2.794 1.217 1.382-3.721 2.062-6.643 5.327-9.434 8.118-3.913 3.914-8 7.716-10.415 11.519-2.793 4.403-3.689 3.92-1.292-1.23z" fill="#e77cc4"/>
		</g>
	</g>
	<g clip-path="url(#h)">
		<circle cx="36.24" cy="54.22" r="4.359" fill="#005bbc"/>
		<g mask="url(#i)">
			<path d="M29.116 59.3a47.126 47.126 0 0 1 9.6-12.931 34.076 34.076 0 0 1 10.324-6.858c8.306-3.791 8.755-2.794 1.217 1.382-3.721 2.062-6.643 5.327-9.434 8.118-3.913 3.914-8 7.716-10.415 11.519-2.793 4.403-3.689 3.92-1.292-1.23z" fill="#e77cc4"/>
		</g>
	</g>
	<circle cx="28.464" cy="63.644" r="2.945" fill="#0073c5"/>
	<path d="M57.584 43.6a4.924 4.924 0 0 0 4.226-7.463 9.91 9.91 0 0 0-4.483-.884 28.586 28.586 0 0 0-3.437.157 4.926 4.926 0 0 0 3.694 8.19z" fill="#004ea9"/>
	<path d="M56.424 30.751a16.635 16.635 0 0 0-4.089.5c-.326.082-.67.152-1.034.225a14.884 14.884 0 0 0-2.215.572 39.419 39.419 0 0 0-4.733 2.038 38.225 38.225 0 0 0-5.284 3.147 67.937 67.937 0 0 0-6.235 5.252 50.7 50.7 0 0 0-7.354 8.933 37.946 37.946 0 0 0-3.752 7.071 21.714 21.714 0 0 0-1.709 7.268 11.815 11.815 0 0 0 1.681 7.316 9.935 9.935 0 0 0 7.784 4.677c.553.037 1.139.059 1.81.067l-.478.4-1.266 1.065c-1.467 1.236-4.689 4.183-4.825 4.308l-.788.72.213 1.046a3.3 3.3 0 0 0 1.03 1.791c.053.046.123.112.2.181a5.881 5.881 0 0 0 .617.53c.318.23.643.473.958.708a32.273 32.273 0 0 0 2.874 1.986 19.81 19.81 0 0 0 3.771 1.68 22.832 22.832 0 0 0 4.566 1.18 27.054 27.054 0 0 0 3.192.194 22.949 22.949 0 0 0 8.045-1.422 31.048 31.048 0 0 0 5.447-2.618 39.658 39.658 0 0 0 7.283-5.82c.065.2.136.406.215.611a19.907 19.907 0 0 0 1.782 3.567 13.5 13.5 0 0 0 9.89 5.636l.722.011c.618.01 1.257.021 1.893.021 1 0 1.83-.027 2.6-.084a13.9 13.9 0 0 0 2.365-.438c.421-.1.819-.2 1.2-.269.29-.05.553-.12.785-.181a3.276 3.276 0 0 1 .613-.129h.02c.611.231 1.222.434 1.813.63.7.234 1.368.455 2.011.712 2.064.825 7.015 2.768 7.064 2.788l1.6.627.773-1.535c.043-.086.745-1.482 1.359-2.784a7.994 7.994 0 0 0 4.379 1.207c.325 0 .663-.016 1.006-.047a15.186 15.186 0 0 0 4.065-.986 32.048 32.048 0 0 0 5.441-2.842c.08-.049.153-.1.221-.147.638.274 1.28.561 1.906.84l.051.023c.328.146.654.3.98.446.463.213.941.433 1.426.643.534.232 1.074.456 1.6.673.418.173.837.347 1.253.525.9.383 3.191 1.076 3.449 1.154l2.082.626.325-2.15.381-2.524a6.54 6.54 0 0 1 .929.455c1.124.7 2.2 1.466 3.334 2.275l.718.511c.541.383 2.371 1.576 2.578 1.711l2.522 1.642.377-2.986a64.32 64.32 0 0 1 .246-1.789l.072-.415a7.444 7.444 0 0 0 3.978 1.069c.282 0 .575-.013.871-.038a11.343 11.343 0 0 0 4.143-1.143c.308-.152.624-.3.959-.452a19.724 19.724 0 0 0 2.278-1.173 62.205 62.205 0 0 0 4.509-3.11 97.577 97.577 0 0 0 4.887-3.936c1.628-1.4 3.22-2.877 4.76-4.3l.5-.464.452-.417c1.407-1.3 2.863-2.646 4.252-4.038 2.107-2.112 4-4.029 5.839-6.1a24.406 24.406 0 0 0 2.709-3.943 15.331 15.331 0 0 0 1.306-3.125 7.992 7.992 0 0 0-.657-6.34 11.163 11.163 0 0 0-1.439-1.979 10.9 10.9 0 0 0-4.307-2.834 13.44 13.44 0 0 0-2.123-.618l-.22-.051c-.271-.063-.542-.132-.829-.2a17.441 17.441 0 0 0-2.871-.552c-1.579-.13-3.159-.14-4.687-.151l-.917-.007h-.632c-1.031 0-2.081.025-3.124.074-1.56.075-2.95.172-4.248.3-1.037.1-2.078.228-3.085.351-.637.077-1.3.157-1.939.229-1.022.114-2.066.223-3.075.328l-1.614.169a2.394 2.394 0 0 0-.428.087l-.456.1-.468.105a12.048 12.048 0 0 0-1.693.613l-.863.35-.01.035-.106-.042c-1-.391-2.035-.8-3.029-1.215-1.7-.719-5.909-2.463-5.951-2.48l-2.1-.873-.462 2.231c-.039.188-.364 1.757-.48 2.422l-.243-.108c-.958-.43-1.949-.874-2.593-1.167-1.932-.882-6.432-3.01-6.477-3.031l-2.105-1-.535 2.266c-.024.1-.57 2.414-.733 3.265q-.18.932-.365 1.861a26.22 26.22 0 0 0-1-.518c-.49-.236-.982-.468-1.474-.7a147.29 147.29 0 0 1-1.849-.882c-.574-.28-1.159-.576-1.725-.862-.477-.241-.969-.49-1.46-.732-1.093-.54-3.937-1.637-4.258-1.761l-1.947-.749-.548 2.013c-.038.139-.755 2.773-1.262 4.791a16.646 16.646 0 0 0-6.24-4.386 32.377 32.377 0 0 0-2.857-1.028l-.24-.073a15.089 15.089 0 0 0-2.955-.674c-1.01-.1-2-.181-3.028-.181a12.59 12.59 0 0 0-3.974.58 8.888 8.888 0 0 1-.764.2 10 10 0 0 0-1.491.444 18.8 18.8 0 0 0-3.5 1.888c-.165-1.474-.439-2.879-.7-4.159a23.031 23.031 0 0 0-2.2-6.236 16.636 16.636 0 0 0-5.942-6.58 16.238 16.238 0 0 0-7.494-2.326 18.878 18.878 0 0 0-1.417-.054z" fill="url(#d)"/>
	<path d="M156.754 69.112a9.128 9.128 0 0 1-2.428 2.983c-1 .912-2.042 1.768-3.092 2.617a2.4 2.4 0 0 1-.779.257 2.77 2.77 0 0 1-.052-.769c.377-1.776.793-3.545 1.172-5.322.161-.752.419-1.065 1.173-1.181.619-.1 1.244-.148 1.959-.231a9.616 9.616 0 0 1 1.364.182.979.979 0 0 1 .683 1.464zm-70.19 2.671a8.123 8.123 0 0 1-.1 2.391 9.2 9.2 0 0 1-1.04 2.266 10.473 10.473 0 0 1-1.265 1.752 1.369 1.369 0 0 1-.911.392 10.5 10.5 0 0 1-1.927-.179.981.981 0 0 0-1.089.494c-.331.5-.654 1.016-1.006 1.506a1.321 1.321 0 0 1-2.226.089 2.6 2.6 0 0 1-.712-2.165 8.621 8.621 0 0 1 1.887-4.743 12.3 12.3 0 0 1 3.194-3.163 4.836 4.836 0 0 1 2.585-1.006 2.519 2.519 0 0 1 2.61 2.366zm-2.68.458a.911.911 0 0 0-.758.105 13.3 13.3 0 0 0-3.326 3.237c1 .107 1.846.212 2.7.272a.62.62 0 0 0 .42-.287 5.662 5.662 0 0 0 1.128-2.6c.022-.246-.014-.637-.164-.727zm93.943-12.216a13.6 13.6 0 0 1-1.136 2.746 22.82 22.82 0 0 1-2.494 3.645c-1.841 2.078-3.8 4.056-5.762 6.023-1.507 1.51-3.083 2.953-4.65 4.4-1.721 1.592-3.436 3.192-5.212 4.722a94.942 94.942 0 0 1-4.791 3.859 60.481 60.481 0 0 1-4.372 3.017c-.967.6-2.048 1.025-3.076 1.534a9.51 9.51 0 0 1-3.467.954 5.44 5.44 0 0 1-5.563-2.7 2.626 2.626 0 0 0-.205-.287 1.332 1.332 0 0 0-.192-.147c-.221 1.386-.421 2.729-.656 4.067-.081.458-.26 1.879-.26 1.879s-1.991-1.3-2.517-1.669c-1.368-.969-2.724-1.961-4.144-2.847a19.663 19.663 0 0 0-2.492-1.126c-.09-.039-.95-.32-.95-.32l-.73 4.833s-2.426-.729-3.251-1.082c-.945-.4-1.9-.785-2.841-1.194-.8-.348-1.59-.725-2.388-1.081-.836-.373-1.672-.747-2.516-1.1-.61-.255-1 .24-1.423.5a30.172 30.172 0 0 1-5.12 2.683 13.326 13.326 0 0 1-3.563.87 6.147 6.147 0 0 1-5.388-1.865c-.4-.424-.608-.351-.825.2-.489 1.232-2.045 4.324-2.045 4.324s-4.971-1.951-7.054-2.783c-1.264-.505-2.582-.874-3.856-1.355a4.281 4.281 0 0 0-2.409.216c-1.132.2-2.242.6-3.378.683-1.676.125-3.368.071-5.052.047a10.1 10.1 0 0 1-3.873-1.067 9.891 9.891 0 0 1-4.459-3.7 18.015 18.015 0 0 1-1.61-3.229 29.779 29.779 0 0 1-.845-3.108 3.393 3.393 0 0 0-.173-.4 3.461 3.461 0 0 0-.516.385 40.275 40.275 0 0 1-8.706 7.405 29.342 29.342 0 0 1-5.12 2.459 21.839 21.839 0 0 1-10.357 1.125 21 21 0 0 1-4.184-1.095 18.131 18.131 0 0 1-3.421-1.514c-1.289-.763-2.467-1.716-3.685-2.6-.252-.183-.464-.421-.7-.624a1.458 1.458 0 0 1-.4-.727s3.313-3.031 4.767-4.256q2.5-2.1 4.989-4.207a3.75 3.75 0 0 0 .419-.56c-.372-.023-.612-.05-.852-.051-1.9-.008-3.815.088-5.711-.039a8.012 8.012 0 0 1-6.339-3.84 10.011 10.011 0 0 1-1.368-6.2 20.3 20.3 0 0 1 1.579-6.65 36.348 36.348 0 0 1 3.57-6.721 49.118 49.118 0 0 1 7.081-8.606 65.911 65.911 0 0 1 6.061-5.106 36.774 36.774 0 0 1 5.028-2.987 38.177 38.177 0 0 1 4.511-1.94 31.246 31.246 0 0 1 3.065-.74 15.167 15.167 0 0 1 4.9-.391 14.437 14.437 0 0 1 6.646 2.049 14.835 14.835 0 0 1 5.267 5.864 21.3 21.3 0 0 1 2.018 5.733 29.3 29.3 0 0 1 .809 6.984 1.06 1.06 0 0 0 .038.29.993.993 0 0 0 .139.205c.268-.245.518-.483.776-.709a17.683 17.683 0 0 1 5-3.138c.679-.276 1.431-.369 2.133-.6a16.163 16.163 0 0 1 9.065.361c.913.275 1.809.614 2.693.972a14.812 14.812 0 0 1 6.38 4.917c.364.483.685 1 1.019 1.5.118.177.218.366.325.549l.157-.156c.029-.025.077-.045.083-.075.162-.758.309-1.519.48-2.274.419-1.85 1.583-6.122 1.583-6.122s3.054 1.175 4.1 1.692c1.067.527 2.123 1.076 3.192 1.6 1.106.539 2.224 1.053 3.332 1.586.65.313 2.186 1.169 2.186 1.169s-.827 2.939-1.25 4.05c-.236.617-.434 1.25-.623 1.883-.211.707-.383 1.425-.589 2.133a18.477 18.477 0 0 0-.8 6.329 1.955 1.955 0 0 0 .592 1.555c.3-.747.644-1.427.861-2.144.276-.916.453-1.863.675-2.8s.454-1.894.682-2.84c.018-.077.045-.151.059-.228.475-2.535.944-5.071 1.424-7.6.265-1.4.551-2.794.819-4.192.157-.821.716-3.186.716-3.186s4.534 2.145 6.5 3.041c1.468.67 4.772 2.136 5.019 2.265.153-.785.32-1.531.44-2.284.086-.541.484-2.459.484-2.459s4.222 1.75 5.94 2.475c1.25.528 2.517 1.014 3.78 1.51.368.145 1.34.568 1.34.568l.328-1.2s1.145-.463 1.405-.522c.32-.074.641-.142.961-.216a1.47 1.47 0 0 1 .171-.042c1.567-.166 3.134-.323 4.7-.5 1.667-.186 3.33-.414 5-.577a83.482 83.482 0 0 1 4.154-.292q1.821-.086 3.647-.069c1.824.018 3.654 0 5.469.152a24.1 24.1 0 0 1 3.427.713 13.422 13.422 0 0 1 2.057.578 9.073 9.073 0 0 1 3.594 2.321 9.387 9.387 0 0 1 1.205 1.64 6.085 6.085 0 0 1 .519 4.879zm-51.876 7.994c.324-1.426.716-2.837 1.066-4.258.21-.851.353-1.721.6-2.56.458-1.537.987-3.053 1.446-4.59a.683.683 0 0 0-.284-.591c-1.313-.642-2.648-1.238-3.975-1.852-1.54-.712-3.081-1.419-4.615-2.145-.524-.248-.685-.2-.806.383-.378 1.8-.761 3.591-1.121 5.39-.3 1.491-.561 2.989-.846 4.482a39.838 39.838 0 0 1-1.9 7.96A19.55 19.55 0 0 1 114 73.18a2 2 0 0 1-2.465.809 4.8 4.8 0 0 1-1.707-1.964c-.54-.984-.4-2.1-.728-3.123a2.243 2.243 0 0 1 .014-.874c.087-.8.192-1.592.29-2.388a6.1 6.1 0 0 1 .107-.814c.388-1.483.766-2.969 1.2-4.44a41.166 41.166 0 0 1 1.08-3.211c.283-.737.279-.839-.415-1.173-1.806-.869-3.6-1.762-5.409-2.625a10.075 10.075 0 0 0-1.631-.619.638.638 0 0 0-.537.322 18.366 18.366 0 0 0-.4 1.811c-.235 1.191-.463 2.384-.7 3.576-.158.8-.314 1.61-.488 2.411-.223 1.025-.5 2.04-.685 3.071-.219 1.221-.367 2.456-.546 3.685-.008.058-.024.116-.033.174-.25 1.5-.511 3.007-.745 4.514-.115.736-.173 1.481-.272 2.219-.245 1.837-.522 3.671-.741 5.511-.091.764-.241 1.024-.96.885a41.09 41.09 0 0 1-3.691-.9c-.666-.193-.664-.5-.268-1.1a68.005 68.005 0 0 0 2-3.228 24.466 24.466 0 0 0 1.2-2.333 15.953 15.953 0 0 0 .944-2.5c.325-1.268.532-2.566.777-3.853a12.322 12.322 0 0 0-.876-6.907 16.183 16.183 0 0 0-2.142-3.463 11.113 11.113 0 0 0-4.2-3.311 15.566 15.566 0 0 0-3.018-1.085 22.838 22.838 0 0 0-3.916-.727 13.242 13.242 0 0 0-6.5 1.221 14.765 14.765 0 0 0-3.768 2.541 19.8 19.8 0 0 0-3.9 4.961c-.945 1.651-1.689 3.416-2.516 5.133-.277.576-.489 1.187-.812 1.734-.289.488-.5.445-.788-.045a4.062 4.062 0 0 0-1.543-1.649 10.247 10.247 0 0 0-4.529-1.184c-1.765-.058-3.534-.007-5.3 0a3.455 3.455 0 0 0-.527.049c-1.539.246-3.078.5-4.618.743-1.093.175-2.186.344-3.279.517-.057.01-.111.038-.168.052-.924.235-1.845.486-2.775.691a1.754 1.754 0 0 1-.812-.053c-.646-.179-.936-.513-.814-1.157a3.957 3.957 0 0 1 .657-1.528 21.026 21.026 0 0 1 4.511-4.672c1.241-.92 2.445-1.907 4.106-1.919.565 0 1.183-.081 1.579.43a3.475 3.475 0 0 1 .46 3.07c-.045.2-.1.4-.151.593a3.153 3.153 0 0 0 .723-.026c.843-.224 1.672-.506 2.517-.722 1.021-.262 2.058-.461 3.08-.721.768-.2 1.517-.466 2.284-.667.845-.221 1.706-.384 2.551-.6 1.55-.4 3.088-.856 4.643-1.233.431-.1.6-.273.6-.7-.016-1.413 0-2.827-.035-4.24a12.8 12.8 0 0 0-.18-1.811q-.32-1.9-.7-3.8a10.611 10.611 0 0 0-.513-2.028 44.996 44.996 0 0 0-1.7-3.577 11.151 11.151 0 0 0-4.113-4.249l-.87-.549a9.91 9.91 0 0 0-4.483-.884 28.586 28.586 0 0 0-3.437.157l-1.18.25c-.417.092-.824.235-1.233.367a30.708 30.708 0 0 0-3.193 1.062 40.164 40.164 0 0 0-4.3 2.224 39.738 39.738 0 0 0-4.1 2.833 40.677 40.677 0 0 0-3.938 3.5 81.9 81.9 0 0 0-4.6 5.164 37.936 37.936 0 0 0-2.635 3.794 30.173 30.173 0 0 0-1.94 3.421c-.6 1.286-1.057 2.636-1.551 3.968a10.32 10.32 0 0 0-.794 4.145c.037.7.009 1.413.021 2.12a1.778 1.778 0 0 0 .074.58 7.464 7.464 0 0 0 1.35 2.569 5.2 5.2 0 0 0 3.5 1.906c1.8.1 3.609.093 5.413.091a31.565 31.565 0 0 0 3.468-.133c1.686-.189 3.358-.5 5.038-.741 1.492-.214 2.988-.4 4.481-.6.928-.127 1.852-.328 2.784-.381a.893.893 0 0 1 .819 1.477 43.985 43.985 0 0 1-2.324 3.15 6.956 6.956 0 0 1-2.763 2.026 11.477 11.477 0 0 1-2.287.835 3.725 3.725 0 0 1-3.874-2.268c-.248-.465-.4-.409-.724-.13q-3.373 2.869-6.765 5.719c-.9.758-1.813 1.5-2.712 2.256-.268.226-.613.49-.116.818a20.452 20.452 0 0 0 2.429 1.518 24.125 24.125 0 0 0 3.686 1.436 23.024 23.024 0 0 0 4.131.8 15.89 15.89 0 0 0 6.715-.843 27.193 27.193 0 0 0 3.9-1.5 35.106 35.106 0 0 0 4.469-2.861 43.709 43.709 0 0 0 8.412-8.566c.45-.584.851-1.212 1.348-1.752.352-.383.686-.227.729.3.035.429.008.863.011 1.3.019 2.53-.165 5.059.8 7.518a10.006 10.006 0 0 0 2.669 4.188 9.434 9.434 0 0 0 4.195 1.969 14.371 14.371 0 0 0 5.314.134c1.732-.26 3.426-.763 5.143-1.131a2 2 0 0 1 .925.046c.765.213 1.517.479 2.273.727 1.053.345 2.123.649 3.154 1.052 1.3.51 2.569 1.1 3.852 1.657.452.2.721.091.876-.422a16.845 16.845 0 0 1 .657-1.62c.391-.931.79-1.86 1.18-2.792.474-1.133.925-2.276 1.431-3.394a.849.849 0 0 1 .61-.355c.092-.011.309.326.327.519.064.663 0 1.343.107 1.995a8.122 8.122 0 0 0 .618 2.227 3.576 3.576 0 0 0 3.634 2.082 7.024 7.024 0 0 0 1.707-.346 19.591 19.591 0 0 0 3.294-1.169c1.569-.826 3.026-1.862 4.556-2.764a1.35 1.35 0 0 1 .99-.114c.737.245 1.438.6 2.152.913 2.09.916 4.185 1.823 6.267 2.757.446.2.574.021.612-.364.052-.527.076-1.056.134-1.582q.356-3.186.723-6.369.257-2.244.516-4.486c.011-.1.04-.192.058-.288.247-1.324.489-2.648.742-3.97.247-1.287.476-2.58.767-3.861zm-83.336 7.967a1.233 1.233 0 0 0 1.557.448c.771-.369 1.522-.78 2.267-1.2.161-.09.263-.285.393-.432l-.113-.1c-.266.04-.531.084-.8.12-1.005.134-2.013.256-3.017.4-.53.086-.62.352-.287.764zm20.072-14.544c-.129.032-.231.172-.346.262a1.513 1.513 0 0 0 .387.281c1.04.325 2.092.615 3.128.952.46.149.74.069.935-.394.228-.538.52-1.049.757-1.585a4.461 4.461 0 0 0 .176-.755c-1.775.433-3.408.828-5.037 1.239zm-11.768-1.768a16.461 16.461 0 0 0-4.065 3.183 1.44 1.44 0 0 0 .358.083q1.476-.244 2.95-.506a.536.536 0 0 0 .212-.092 3.419 3.419 0 0 0 .545-2.668zm88.293 1.883c.269-1.341.525-2.684.791-4.025.091-.462.193-.922.314-1.5-.089-.135-.174-.418-.356-.508-.681-.34-1.394-.615-2.095-.917-1.667-.719-3.338-1.43-5-2.162-.531-.234-.9-.08-.973.5-.067.505-.06 1.021-.143 1.523-.558 3.4-1.134 6.8-1.7 10.194-.295 1.774-.577 3.551-.872 5.326-.243 1.47-.46 2.945-.756 4.4-.328 1.623-.724 3.232-1.1 4.845q-.619 2.625-1.264 5.244c-.079.325-.067.557.312.692a15.514 15.514 0 0 1 2.11.842c1.613.862 3.2 1.773 4.779 2.7.562.331.843.268.97-.377a95.14 95.14 0 0 0 .454-2.541c.381-2.261.752-4.524 1.135-6.784q.222-1.3.481-2.6c.208-1.032.458-2.056.654-3.091.222-1.173.381-2.358.61-3.53.537-2.745 1.1-5.488 1.649-8.231zm35.236-6.2c-1.574-1.748-3.754-2.227-5.913-2.616a42.539 42.539 0 0 0-8.745-.519c-1.347.108-2.7.189-4.042.332-3.08.327-6.157.682-9.234 1.035-.76.087-1.516.21-2.274.314a.927.927 0 0 0-.881.8c-.16.748-.37 1.485-.574 2.222-.473 1.714-.929 3.434-1.442 5.137-.693 2.3-1.427 4.592-2.159 6.881-.1.312-.028.461.278.483.333.024.667.016 1 .021.812.012 1.04.259.889 1.043-.36 1.868-.746 3.731-1.113 5.6-.3 1.518-.516 3.055-.89 4.553a13.176 13.176 0 0 0-.249 5.136 2.886 2.886 0 0 0 2.894 2.633 6.709 6.709 0 0 0 2.971-.6A32.667 32.667 0 0 0 150.036 85c2.945-2.14 5.8-4.417 8.581-6.766 2.155-1.819 4.178-3.8 6.2-5.772 2.231-2.18 4.384-4.439 6.583-6.652a14.6 14.6 0 0 0 3.934-6.174 4.236 4.236 0 0 0-.886-4.28z"/>
	<path d="M57.327 35.253c3.777 0 5.2 1.342 5.353 1.433a11.151 11.151 0 0 1 4.113 4.249 41.755 41.755 0 0 1 1.7 3.577 10.611 10.611 0 0 1 .513 2.028q.381 1.893.7 3.8a12.8 12.8 0 0 1 .18 1.811c.033 1.413.019 2.827.035 4.24 0 .425-.167.593-.6.7-1.555.377-3.093.829-4.643 1.233-.845.221-1.706.384-2.551.6-.767.2-1.516.471-2.284.667-1.022.26-2.059.459-3.08.721-.845.216-1.674.5-2.517.722a3.153 3.153 0 0 1-.723.026c.051-.2.106-.394.151-.593a3.475 3.475 0 0 0-.46-3.07c-.4-.511-1.014-.434-1.579-.43-1.661.012-2.865 1-4.106 1.919a21.026 21.026 0 0 0-4.511 4.672 3.957 3.957 0 0 0-.657 1.528c-.122.644.168.978.814 1.157A1.754 1.754 0 0 0 44 66.3c.93-.205 1.851-.456 2.775-.691.057-.014.111-.042.168-.052 1.093-.173 2.186-.342 3.279-.517 1.54-.246 3.079-.5 4.618-.743a3.455 3.455 0 0 1 .527-.049c1.766-.008 3.535-.059 5.3 0a10.247 10.247 0 0 1 4.529 1.184 4.062 4.062 0 0 1 1.543 1.649c.289.49.5.533.788.045.323-.547.535-1.158.812-1.734.826-1.717 1.571-3.482 2.516-5.133a19.8 19.8 0 0 1 3.9-4.961 14.765 14.765 0 0 1 3.768-2.541 13.242 13.242 0 0 1 6.5-1.221 22.838 22.838 0 0 1 3.916.727 15.566 15.566 0 0 1 3.018 1.085 11.113 11.113 0 0 1 4.2 3.311 16.183 16.183 0 0 1 2.142 3.463 12.322 12.322 0 0 1 .876 6.907c-.245 1.287-.452 2.585-.777 3.853a15.953 15.953 0 0 1-.944 2.5 24.466 24.466 0 0 1-1.2 2.333 64.886 64.886 0 0 1-2 3.228c-.4.6-.4.9.268 1.1a41.09 41.09 0 0 0 3.691.9c.719.139.869-.121.96-.885.219-1.84.5-3.674.741-5.511.1-.738.157-1.483.272-2.219.234-1.507.5-3.01.745-4.514.009-.058.025-.115.033-.174.179-1.229.327-2.464.546-3.685.186-1.031.462-2.046.685-3.071.174-.8.33-1.607.488-2.411.235-1.192.463-2.385.7-3.576a18.429 18.429 0 0 1 .4-1.811.638.638 0 0 1 .537-.322 10.075 10.075 0 0 1 1.631.619c1.809.863 3.6 1.756 5.409 2.625.694.334.7.436.415 1.173a41.166 41.166 0 0 0-1.08 3.211c-.43 1.471-.808 2.957-1.2 4.44a6.1 6.1 0 0 0-.107.814c-.1.8-.2 1.591-.29 2.388a2.243 2.243 0 0 0-.014.874c.327 1.021.188 2.139.728 3.123a4.8 4.8 0 0 0 1.707 1.964A2 2 0 0 0 114 73.18a19.55 19.55 0 0 0 1.522-2.942 39.838 39.838 0 0 0 1.9-7.96c.285-1.493.549-2.991.846-4.482.36-1.8.743-3.594 1.121-5.39.121-.578.282-.631.806-.383 1.534.726 3.075 1.433 4.615 2.145 1.327.614 2.662 1.21 3.975 1.852a.683.683 0 0 1 .284.591c-.459 1.537-.988 3.053-1.446 4.59-.25.839-.393 1.709-.6 2.56-.35 1.421-.742 2.832-1.066 4.258-.291 1.28-.52 2.574-.767 3.864-.253 1.322-.5 2.646-.742 3.97-.018.1-.047.191-.058.288q-.26 2.242-.516 4.486-.363 3.185-.723 6.369c-.058.526-.082 1.055-.134 1.582-.038.385-.166.564-.612.364-2.082-.934-4.177-1.841-6.267-2.757-.714-.313-1.415-.668-2.152-.913a1.35 1.35 0 0 0-.99.114c-1.53.9-2.987 1.938-4.556 2.764a19.591 19.591 0 0 1-3.294 1.169 7.024 7.024 0 0 1-1.707.346 3.576 3.576 0 0 1-3.639-2.082 8.122 8.122 0 0 1-.618-2.227c-.11-.652-.043-1.332-.107-1.995-.018-.193-.235-.53-.327-.519a.849.849 0 0 0-.61.355c-.506 1.118-.957 2.261-1.431 3.394-.39.932-.789 1.861-1.18 2.792A16.845 16.845 0 0 0 94.869 91c-.155.513-.424.618-.876.422-1.283-.554-2.551-1.147-3.852-1.657-1.031-.4-2.1-.707-3.154-1.052-.756-.248-1.508-.514-2.273-.727a2 2 0 0 0-.925-.046c-1.717.368-3.411.871-5.143 1.131a14.371 14.371 0 0 1-5.314-.134 9.434 9.434 0 0 1-4.195-1.969 10.006 10.006 0 0 1-2.669-4.188c-.961-2.459-.777-4.988-.8-7.518 0-.432.024-.866-.011-1.3-.043-.528-.377-.684-.729-.3-.5.54-.9 1.168-1.348 1.752a43.709 43.709 0 0 1-8.412 8.566 35.106 35.106 0 0 1-4.468 2.868 27.193 27.193 0 0 1-3.9 1.5 15.89 15.89 0 0 1-6.715.843 23.024 23.024 0 0 1-4.131-.8 24.125 24.125 0 0 1-3.686-1.436 20.452 20.452 0 0 1-2.429-1.518c-.5-.328-.152-.592.116-.818.9-.758 1.813-1.5 2.712-2.256q3.389-2.853 6.765-5.719c.329-.279.476-.335.724.13a3.725 3.725 0 0 0 3.874 2.268 11.477 11.477 0 0 0 2.287-.835 6.956 6.956 0 0 0 2.765-2.029 43.683 43.683 0 0 0 2.324-3.15.893.893 0 0 0-.819-1.477c-.932.053-1.856.254-2.784.381-1.493.2-2.989.389-4.481.6-1.68.24-3.352.552-5.038.741a31.565 31.565 0 0 1-3.468.133c-1.8 0-3.612.01-5.413-.091a5.2 5.2 0 0 1-3.5-1.906 7.464 7.464 0 0 1-1.355-2.569 1.778 1.778 0 0 1-.074-.58c-.012-.707.016-1.415-.021-2.12a10.32 10.32 0 0 1 .794-4.145c.494-1.332.954-2.682 1.551-3.968a30.173 30.173 0 0 1 1.912-3.416 37.936 37.936 0 0 1 2.635-3.794 82.532 82.532 0 0 1 4.6-5.164 40.677 40.677 0 0 1 3.938-3.5 39.738 39.738 0 0 1 4.1-2.833 40.164 40.164 0 0 1 4.305-2.224 30.708 30.708 0 0 1 3.193-1.062c.409-.132.816-.275 1.233-.367.228-.059.843-.414 4.613-.414zm18.958 43.076A2.6 2.6 0 0 0 77 80.494a1.321 1.321 0 0 0 2.232-.089c.352-.49.675-1 1.006-1.506a.981.981 0 0 1 1.089-.494 10.5 10.5 0 0 0 1.927.179 1.369 1.369 0 0 0 .911-.392 10.473 10.473 0 0 0 1.265-1.752 9.2 9.2 0 0 0 1.04-2.266 8.123 8.123 0 0 0 .1-2.391 2.519 2.519 0 0 0-2.613-2.366 4.836 4.836 0 0 0-2.585 1.006 12.3 12.3 0 0 0-3.194 3.163 8.621 8.621 0 0 0-1.893 4.743zm83.505-26.108a42.539 42.539 0 0 1 8.745.519c2.159.389 4.339.868 5.913 2.616a4.236 4.236 0 0 1 .882 4.28 14.6 14.6 0 0 1-3.93 6.174c-2.2 2.213-4.352 4.472-6.583 6.652-2.018 1.973-4.041 3.953-6.2 5.772-2.782 2.349-5.636 4.626-8.581 6.766a32.667 32.667 0 0 1-5.071 2.806 6.709 6.709 0 0 1-2.971.6 2.886 2.886 0 0 1-2.894-2.633 13.176 13.176 0 0 1 .249-5.136c.374-1.5.592-3.035.89-4.553.367-1.867.753-3.73 1.113-5.6.151-.784-.077-1.031-.889-1.043-.334 0-.668 0-1-.021-.306-.022-.377-.171-.278-.483.732-2.289 1.466-4.579 2.159-6.881.513-1.7.969-3.423 1.442-5.137.2-.737.414-1.474.574-2.221a.927.927 0 0 1 .881-.8c.758-.1 1.514-.227 2.274-.314 3.077-.353 6.154-.708 9.234-1.035 1.343-.139 2.694-.22 4.041-.328zm-5.083 15.245c-.715.083-1.34.135-1.959.231-.754.116-1.012.429-1.173 1.181-.379 1.777-.795 3.546-1.172 5.322a2.77 2.77 0 0 0 .052.769 2.4 2.4 0 0 0 .779-.257c1.05-.849 2.1-1.7 3.092-2.617a9.128 9.128 0 0 0 2.428-2.983.979.979 0 0 0-.683-1.464 9.616 9.616 0 0 0-1.364-.182zm-14.746-11.942c-.681-.34-1.394-.615-2.095-.917-1.667-.719-3.338-1.43-5-2.162-.531-.234-.9-.08-.973.5-.067.505-.06 1.021-.143 1.523-.558 3.4-1.134 6.8-1.7 10.194-.295 1.774-.577 3.551-.872 5.326-.243 1.47-.46 2.945-.756 4.4-.328 1.623-.724 3.232-1.1 4.845q-.619 2.625-1.264 5.244c-.079.325-.067.557.312.692a15.514 15.514 0 0 1 2.11.842c1.613.862 3.2 1.773 4.779 2.7.562.331.843.268.97-.377a95.14 95.14 0 0 0 .454-2.541c.381-2.261.752-4.524 1.135-6.784q.222-1.3.481-2.6c.208-1.032.458-2.056.654-3.091.222-1.173.381-2.358.61-3.53.537-2.746 1.1-5.487 1.651-8.232.269-1.341.525-2.684.791-4.025.091-.462.193-.922.314-1.5-.091-.131-.176-.417-.358-.507z" fill="url(#j)"/>
	<circle cx="46.135" cy="45.031" r="4.83" fill="#0058b7"/>
	<g clip-path="url(#f)">
		<circle cx="46.135" cy="45.031" r="4.83" fill="#0058b7"/>
	</g>
	<g clip-path="url(#h)">
		<circle cx="36.24" cy="54.22" r="4.359" fill="#005bbc"/>
	</g>
	<circle cx="28.464" cy="63.644" r="2.945" fill="#0073c5"/>
	<path d="M57.584 43.6a4.924 4.924 0 0 0 4.226-7.463 9.91 9.91 0 0 0-4.483-.884 28.586 28.586 0 0 0-3.437.157 4.926 4.926 0 0 0 3.694 8.19z" fill="#004ea9"/>
	<path d="M38.712 46.372c8.977-8.977 15.453-9.031 16.351-9.191 1.5-.266-8.81 6.789-13.993 11.973S28.089 63.711 27.816 63.5s1.919-8.151 10.896-17.128z" opacity=".25" fill="url(#k)"/>
	<path d="M38.712 46.372c8.977-8.977 15.453-9.031 16.351-9.191 1.5-.266-8.81 6.789-13.993 11.973S28.089 63.711 27.816 63.5s1.919-8.151 10.896-17.128z" opacity=".25" fill="url(#l)"/>
</svg>
