<svg xmlns="http://www.w3.org/2000/svg" xmlns:xlink="http://www.w3.org/1999/xlink" width="200" height="128">
	<defs>
		<clipPath id="e">
			<path d="M28.93 59.51a5.048 5.048 0 0 1-1.492-.139 4.349 4.349 0 0 0-1.071-.151 2.283 2.283 0 0 1-.383 0 1.3 1.3 0 0 0 .292-.2l-.05-.044a2.587 2.587 0 0 1-.5.316h-.007a3.516 3.516 0 0 0-.957.25 1.024 1.024 0 0 1-.3 0v-.561h.009l.007-.006a1.194 1.194 0 0 0 .276-1.026v-.011l-.2-.18a.219.219 0 0 0 .013-.027c.032-.069.139-.391.25-.734a1.945 1.945 0 0 0 1.081.8l.021-.064a1.876 1.876 0 0 1-1.074-.822c.123-.382.212-.771.231-.845-.022.064-.136.406-.259.763-.134.391-.275.8-.31.876a1.214 1.214 0 0 1-.521.468.851.851 0 0 1-1.011-.049c-.6-.642.086-1.508.092-1.516s.17-.245.669-.813c.692-.787 1.053-.815 1.059-.817v-.035a1.165 1.165 0 0 0-.349.148v-.251l.006.008a1.341 1.341 0 0 1 1.326.325l.012.008a2.586 2.586 0 0 1 .926.858 3.06 3.06 0 0 0 .284.557 3.265 3.265 0 0 0 1.952.912 5.686 5.686 0 0 1-.022 2.002z" fill="none"/>
		</clipPath>
		<clipPath id="f">
			<path fill="none" d="M17.718 49.797h16.309v14.752H17.718z"/>
		</clipPath>
		<clipPath id="g">
			<path d="m38.561 62.257.035 1.182-.113 1.689.326.424-.209 4.395-.237 2.637-.15.374-.474.556.348.348-.057.573-.218.236-.3-.15-.174.052-.006.008a3.682 3.682 0 0 1-3.47.778c-1.58-.43-1.839-1.282-1.882-1.532a4.7 4.7 0 0 0 1.783.794 5.036 5.036 0 0 0 1.1.119 4.965 4.965 0 0 0 1.045-.11 5.964 5.964 0 0 0 1.43-.511l-.118-.019a5.14 5.14 0 0 1-3.441.459 4.087 4.087 0 0 1-2.322-1.31l1.068-1.283.378 1.107v-.2l-.376-1.1-.005-.014-.512-.221.5.136 2.592.386h.006l.629-.122.408-.693.755-2.945-.357-.425-.986-.617-1.713-.446-.357-.227v-.764l1.347-3.01.283-.481 1.244.242.1-.92-1.442-.049-.3-.215.008-.818-.127-.67.095-.562a2.086 2.086 0 0 0 .59-2.119l2.091 1.65.031.024.793-1.881-2.628-1.142-.445.814-3.927 2.829-.412.025.487-.47-.493-1.306-.684-1.005 1.6-1.278 1.676-1.2 2.682-2.361s.231-.139.721-.473a2.138 2.138 0 0 1 .853-.34l-1.122 1.908 1.25.12.02.026-.533.865 2.134 1.107c-.176.153-.4.358-.4.358L39 60.834z" fill="none"/>
		</clipPath>
		<clipPath id="h">
			<path fill="none" d="M25.094 46.109h19.285v34.39H25.094z"/>
		</clipPath>
		<clipPath id="i">
			<path d="M47.534 58.414a14.55 14.55 0 0 0-.836 1.441l-1.1-.43-1.346-.2-.394.545-.036-.376 1.16-2.29.008-.017-.009-.016a1.594 1.594 0 0 0-1.141-.851l-.044-.286-2.375.828-.026.01.412 1.964 1.782-1.2-.052.226-.03 2.207.069 1.6-.089.042-1.357.414-.02.005.169.907.93-.3v.072l.208.515.315.588.233.572.312.32-.438.447-.344.637.005.015a2.46 2.46 0 0 0 .137.271 6.146 6.146 0 0 0-2.96 1.658l-.018.021.019.021a1.3 1.3 0 0 1 .333.772v.034h.089a8.128 8.128 0 0 0 1.17 2.785l.013.019h.022a15.4 15.4 0 0 1 3.326-.408l-.722 1.509a8.261 8.261 0 0 0-1.791-.212v.067a7.556 7.556 0 0 1 1.91.252c.3.107.371.206.376.27.008.091-.109.16-.111.162a2.21 2.21 0 0 1-.606.239l-.024-.007v.013a6.953 6.953 0 0 1-2.266.044l-.011.067a8.122 8.122 0 0 0 1.113.079 5.109 5.109 0 0 0 1.2-.126c.665.193 1.613.552 1.613.791 0 .071-.1.135-.283.188a3.183 3.183 0 0 1-.98.1l-.012-.007v.007a7 7 0 0 1-1.783-.339l-.022.063c.006 0 .171.058.432.126a3.688 3.688 0 0 1-2.093.5 5.144 5.144 0 0 1-2.514-.486 16.441 16.441 0 0 0 .074-5.72l-.129-1.581-.036-1.346-.022-.023.848-.148-.106-.08-.794.17-.01-.012-.318-.413.112-1.667-.033-1.173.439-1.428-.021-5.331 3.477-.569.037-.007-.424-1.461.008-.01 1.6.195.014-1.767a2.467 2.467 0 0 1 1.391 1.39l.006.015h.014a1.941 1.941 0 0 1 1.169 2l.045.191a4.321 4.321 0 0 0 .034-.44 1.471 1.471 0 0 1 .766.506.739.739 0 0 1 0 .787l.04.079a1.184 1.184 0 0 0 .116-.278 1.553 1.553 0 0 1 .539 1.226 1.821 1.821 0 0 1-.359 1.033z" fill="none"/>
		</clipPath>
		<clipPath id="j">
			<path fill="none" d="M33.548 46.893h19.331v32.859H33.548z"/>
		</clipPath>
		<clipPath id="k">
			<path d="M47.45 64.616a1.759 1.759 0 0 1-.908 1.089 2.2 2.2 0 0 1-2.745-.347l.091-.165.478-.492-.344-.352-.233-.568-.315-.589-.2-.493v-.915l.3-.142v.084l.046-.027a5.408 5.408 0 0 1 2.01-.641l-.541.974a.978.978 0 0 0-.158-.089l.045.105a1.586 1.586 0 0 1 .752 1.753.783.783 0 0 0-.251.272.561.561 0 0 0-.03.429 1.4 1.4 0 0 1-.227.283 1.1 1.1 0 0 0 .239-.247.714.714 0 0 0 .026.064.589.589 0 0 0 .394.359 1.059 1.059 0 0 0 .976-.339 1.2 1.2 0 0 1-.793.3 1.259 1.259 0 0 1-.17-.012.493.493 0 0 1-.357-.327.536.536 0 0 1-.009-.482.725.725 0 0 1 .237-.257 2.391 2.391 0 0 1 .766-.3.846.846 0 0 1 .915 1.078z" fill="none"/>
		</clipPath>
		<clipPath id="l">
			<path fill="none" d="M38.272 56.057h14.203v14.977H38.272z"/>
		</clipPath>
		<clipPath id="m">
			<path d="m41.354 77.308-.045-.02h.031a.022.022 0 0 0 .014.02z" fill="none"/>
		</clipPath>
		<clipPath id="n">
			<path fill="none" d="M36.309 72.288h10.046v10.021H36.309z"/>
		</clipPath>
		<clipPath id="o">
			<path d="M44.694 44.312a1.9 1.9 0 0 1-1.194 1.071 1.405 1.405 0 0 0 .147-.249s.019-.031-.036-.1a3.963 3.963 0 0 0-1.628-1.223 6.185 6.185 0 0 0-3.193-.465 5.861 5.861 0 0 0-2.59.854l-.039.081s.029.1.063.241c-.171-.067-.95-.407-.992-1.134-.049-.813 1.37-1.5 1.386-1.513a6.914 6.914 0 0 1 3.441-.731 6.113 6.113 0 0 1 3.667 1.217c.016.014 1.293 1.049.968 1.951z" fill="none"/>
		</clipPath>
		<clipPath id="p">
			<path fill="none" d="M30.234 36.14h19.514v14.244H30.234z"/>
		</clipPath>
		<clipPath id="r">
			<path d="m43.439 46.567.1.843-.175.4a6.375 6.375 0 0 1-.456.449l-.064.009-.012-.1a.424.424 0 0 1-.047.141.556.556 0 0 1-.08.056l.029 1.684-.353.564-1.316 1.552-.231.183-.405.11h-.399l-.306-.042-.366-.213-.7-.725-.618-.566-.43-.474-.183-.369-.135-.909s-.057-.641-.071-.765h.04l-.082-.186v.1H37.1l-.509-.379-.221-.361-.048-.946-.139-.133.005-.09.128-.017.255.127.235.257.317.468.052.043.166.759.174.319a4.641 4.641 0 0 1-.072-1.4l-.2-.244-.028-.485.155-.554.3-.823a15.5 15.5 0 0 1 1.648.27 15.627 15.627 0 0 1 1.642.5 15.392 15.392 0 0 0 1.557.5l.117.661-.135.511a5.212 5.212 0 0 1 .068 1.01l.045.015a1.009 1.009 0 0 1 .105-.253l.023-.9.243-.5.192-.272.174-.12a.907.907 0 0 0 .1 0 .351.351 0 0 0 .084-.014l.021.062-.12.143z" fill="none"/>
		</clipPath>
		<clipPath id="s">
			<path fill="none" d="M31.18 39.848h17.364v17.6H31.18z"/>
		</clipPath>
		<clipPath id="A">
			<path d="M46.284 64.568a.35.35 0 0 1-.2.088.336.336 0 0 1-.35-.2.277.277 0 0 1 .072-.345.473.473 0 0 1 .167-.088z" fill="none"/>
		</clipPath>
		<clipPath id="B">
			<path fill="none" d="M40.714 59.027h10.57v10.629h-10.57z"/>
		</clipPath>
		<clipPath id="C">
			<path d="M42.413 78.556a.612.612 0 0 1-.354.357 1.056 1.056 0 0 1-.835-.023 1.348 1.348 0 0 1-.8-1.521 1.1 1.1 0 0 1 .665-.992l.024.092c-.074.047-.29.2-.279.405.009.172.179.331.505.471a1.7 1.7 0 0 0 .667.119.518.518 0 0 1 .358.187 1.144 1.144 0 0 1 .049.905z" fill="none"/>
		</clipPath>
		<clipPath id="D">
			<path fill="none" d="M35.406 71.377h12.079v12.611H35.406z"/>
		</clipPath>
		<clipPath id="E">
			<path d="M43.8 81.536c-1.266-.008-2.338-.022-2.361-.022a8.4 8.4 0 0 1-1.428-.113c-.046-.01-.122-.088-.188-.279a1.659 1.659 0 0 1 .238-1.544 1.839 1.839 0 0 0 .417-1.293 1.449 1.449 0 0 0 .714.665 1.151 1.151 0 0 0 .481.1 1.01 1.01 0 0 0 .408-.08.675.675 0 0 0 .39-.4 1.192 1.192 0 0 0-.057-.965.415.415 0 0 0-.192-.152 1.97 1.97 0 0 0 .208-.02.477.477 0 0 1 .283.132.5.5 0 0 1 .053.413.861.861 0 0 0 .1.745.317.317 0 0 0 .246.126c.083 0 .3-.04.454-.373a1.1 1.1 0 0 0 .454.46 6.007 6.007 0 0 0-.22 2.6z" fill="none"/>
		</clipPath>
		<clipPath id="F">
			<path fill="none" d="M34.733 72.443h14.296v14.092H34.733z"/>
		</clipPath>
		<clipPath id="G">
			<path d="m43.346 75.353-.231 1.82a1.035 1.035 0 0 1-.216.108 2.054 2.054 0 0 1-.4.109h-.009a2.368 2.368 0 0 1-1.135-.085.022.022 0 0 1-.014-.022 11.655 11.655 0 0 0-.514-2.006 5.707 5.707 0 0 0 1.425.163h.128a5.908 5.908 0 0 0 .966-.087z" fill="none"/>
		</clipPath>
		<clipPath id="H">
			<path fill="none" d="M35.826 70.28h12.519v12.146H35.826z"/>
		</clipPath>
		<clipPath id="N">
			<path fill="none" d="M43.206 61.744v.84l-.894.292-.152-.814 1.046-.318z"/>
		</clipPath>
		<clipPath id="O">
			<path fill="none" d="M37.159 56.744h11.047v11.132H37.159z"/>
		</clipPath>
		<clipPath id="P">
			<path fill="none" d="m43.932 57.231-.32.215h-.004l-.002.004-1.762 1.183-.382-1.826 2.283-.794.187 1.218z"/>
		</clipPath>
		<clipPath id="Q">
			<path fill="none" d="M36.461 51.013h12.47v12.62h-12.47z"/>
		</clipPath>
		<clipPath id="R">
			<path fill="none" d="m36.412 61.7-.093.819-1.178-.228.032-.056-.136-.583 1.375.048z"/>
		</clipPath>
		<clipPath id="S">
			<path fill="none" d="M30.037 56.653h11.375v10.866H30.037z"/>
		</clipPath>
		<clipPath id="T">
			<path fill="none" d="m38.124 57.04-.739 1.753-2.142-1.691v-.001l-.193-.151.119-.216.007-.004-.003-.003.429-.784 2.522 1.097z"/>
		</clipPath>
		<clipPath id="U">
			<path fill="none" d="M30.05 50.942h13.076v12.851H30.05z"/>
		</clipPath>
		<clipPath id="W">
			<path d="m36.641 69.06-.552 2.157-.391.662-.588.114-2.582-.384-.6-.164.386-.632.514-1.318.29-1.264a6.648 6.648 0 0 1 3.523.829z" fill="none"/>
		</clipPath>
		<clipPath id="X">
			<path fill="none" d="M26.932 63.223h14.709v13.769H26.932z"/>
		</clipPath>
		<clipPath id="Y">
			<path d="m36.829 68.32-.172.673a6.6 6.6 0 0 0-4.017-.782l.852-1.375v-.168l.324.206 1.714.447.968.6z" fill="none"/>
		</clipPath>
		<clipPath id="Z">
			<path fill="none" d="M27.646 61.668H41.83v12.325H27.646z"/>
		</clipPath>
		<clipPath id="aa">
			<path d="M44.843 67.392a9.87 9.87 0 0 0-3.67 1.118h-.1a1.366 1.366 0 0 0-.33-.76 6.271 6.271 0 0 1 2.926-1.619 4.105 4.105 0 0 0 1.174 1.261z" fill="none"/>
		</clipPath>
		<clipPath id="ab">
			<path fill="none" d="M35.743 61.131h14.101V73.51H35.743z"/>
		</clipPath>
		<clipPath id="ac">
			<path d="M45.626 70.9a15.155 15.155 0 0 0-3.318.4 8.092 8.092 0 0 1-1.143-2.729h.028l.008-.006a8.663 8.663 0 0 1 3.068-1.028l.283.61.16.576v.239l.554.75-.069.368z" fill="none"/>
		</clipPath>
		<clipPath id="ad">
			<path fill="none" d="M36.165 62.543h14.461v13.764H36.165z"/>
		</clipPath>
		<clipPath id="ae">
			<path d="M44.974 74.467a3.231 3.231 0 0 1-2.6.908 3.718 3.718 0 0 1-2.8-.82 6.029 6.029 0 0 0 1.981.262 3.464 3.464 0 0 0 2.172-.542 6.727 6.727 0 0 0 1.247.192z" fill="none"/>
		</clipPath>
		<clipPath id="af">
			<path fill="none" d="M34.576 69.274H49.97v11.102H34.576z"/>
		</clipPath>
		<clipPath id="ag">
			<path d="M43.645 77.915c-.085.806-.426.874-.527.875a.259.259 0 0 1-.2-.1.84.84 0 0 1-.082-.69.553.553 0 0 0-.067-.467.364.364 0 0 0-.176-.12 2.135 2.135 0 0 0 .32-.094 1.036 1.036 0 0 0 .254-.133l.016-.012a.418.418 0 0 0 .16-.229.422.422 0 0 0-.088-.34l.008-.06a1.724 1.724 0 0 1 .382 1.37z" fill="none"/>
		</clipPath>
		<clipPath id="ah">
			<path fill="none" d="M37.593 71.567h11.064V83.79H37.593z"/>
		</clipPath>
		<clipPath id="ai">
			<path d="M48.809 81.178a.083.083 0 0 1-.025.06c-.069.087-.321.238-1.215.276-.7.031-2.3.03-3.7.022a5.951 5.951 0 0 1 .223-2.582 3.873 3.873 0 0 0 1.131-.643 2.134 2.134 0 0 1 2.117-.461c1.04.335 1.5.844 1.578 1.752l-.111 1.566z" fill="none"/>
		</clipPath>
		<clipPath id="aj">
			<path fill="none" d="M38.815 72.744h15.106V86.54H38.815z"/>
		</clipPath>
		<clipPath id="ak">
			<path d="M49.283 81.851a.68.68 0 0 1-.532.665 12.131 12.131 0 0 1-2.942.242c-1.328-.03-4.458-.123-4.492-.125-.012 0-1.22.036-1.53-.383a.478.478 0 0 1-.1-.39.726.726 0 0 1 .291-.4.07.07 0 0 0 .023.008 8.325 8.325 0 0 0 1.441.115c.032 0 2.137.027 3.94.027.908 0 1.738-.007 2.188-.027.891-.039 1.184-.19 1.272-.308a.176.176 0 0 0 .029-.062.9.9 0 0 1 .412.638z" fill="none"/>
		</clipPath>
		<clipPath id="al">
			<path fill="none" d="M34.68 76.211h19.603v11.551H34.68z"/>
		</clipPath>
		<clipPath id="am">
			<path d="m35.313 75.546-.209.622a.277.277 0 0 0-.153-.058c-.137-.006-.271.1-.4.327-.013.021-.023.043-.035.065a1.8 1.8 0 0 1-.814.048 1.215 1.215 0 0 0-.2-.418.382.382 0 0 0-.279-.166l-.2-.852a4.289 4.289 0 0 0 .816.309 4.055 4.055 0 0 0 1.066.146 3.765 3.765 0 0 0 .408-.023z" fill="none"/>
		</clipPath>
		<clipPath id="an">
			<path fill="none" d="M28.028 70.113h12.277v11.462H28.028z"/>
		</clipPath>
		<clipPath id="ao">
			<path d="M35.369 78.085a3.276 3.276 0 0 0-.726-.266s-.082-.019-.212-.039a2.653 2.653 0 0 1 .179-1.31c.113-.2.229-.3.339-.293.135.006.24.172.3.311a2.883 2.883 0 0 1 .12 1.597z" fill="none"/>
		</clipPath>
		<clipPath id="ap">
			<path fill="none" d="M29.416 71.177h11.012v11.908H29.416z"/>
		</clipPath>
		<clipPath id="aq">
			<path d="M33.7 77.734a3.86 3.86 0 0 0-.941.132 2.439 2.439 0 0 1 .268-1.742.279.279 0 0 1 .188-.092.314.314 0 0 1 .235.143 2.223 2.223 0 0 1 .25 1.559z" fill="none"/>
		</clipPath>
		<clipPath id="ar">
			<path fill="none" d="M27.707 71.032h11.028v11.834H27.707z"/>
		</clipPath>
		<clipPath id="as">
			<path d="M34.36 77.768a3.333 3.333 0 0 0-.59-.03 2.772 2.772 0 0 0-.05-1.12 2.631 2.631 0 0 0 .33.02 1.535 1.535 0 0 0 .43-.05 3.031 3.031 0 0 0-.12 1.18z" fill="none"/>
		</clipPath>
		<clipPath id="at">
			<path fill="none" d="M28.72 71.588h10.76v11.178H28.72z"/>
		</clipPath>
		<clipPath id="au">
			<path d="M36.424 80.808a.766.766 0 0 1-.14.571.862.862 0 0 1-.68.269c-.16 0-.329.01-.508.017a18.929 18.929 0 0 1-3.554-.12c-.089-.025-.32-.123-.33-.259l-.105-1.6a1.714 1.714 0 0 1 1.108-1.546 3.541 3.541 0 0 1 1.569-.342 3.885 3.885 0 0 1 .844.086 2.551 2.551 0 0 1 1.659 1.155 1.46 1.46 0 0 1 .14.822A1 1 0 0 1 36.4 80v.005z" fill="none"/>
		</clipPath>
		<clipPath id="av">
			<path fill="none" d="M26.105 72.799H41.44v13.897H26.105z"/>
		</clipPath>
		<clipPath id="aw">
			<path d="M36.557 82.5a7.471 7.471 0 0 1-3.085.406 10.391 10.391 0 0 1-2.17-.26.748.748 0 0 1-.429-.264.692.692 0 0 1-.144-.432.667.667 0 0 1 .424-.614c.055.182.357.271.374.276a16.273 16.273 0 0 0 2.293.154c.468 0 .892-.016 1.278-.032.178-.007.348-.013.508-.017a.928.928 0 0 0 .729-.294.647.647 0 0 0 .037-.05c.146.018.3.2.366.433a.611.611 0 0 1-.181.694z" fill="none"/>
		</clipPath>
		<clipPath id="ax">
			<path fill="none" d="M25.729 76.334h16.038v11.572H25.729z"/>
		</clipPath>
		<clipPath id="ay">
			<path d="M28.113 82.6a1.847 1.847 0 0 1-.647.26 8.366 8.366 0 0 1-2.006.131A6.271 6.271 0 0 1 21.825 82a1.925 1.925 0 0 1-.5-.674 15.379 15.379 0 0 1-1.276-6.492 17.865 17.865 0 0 0 3.054.575v.267a18.389 18.389 0 0 0 .163 2.289c.366 1.482 1.175 1.774 1.183 1.777l.016.005.084-1.837-.024-2.405a15.5 15.5 0 0 0 2.05-.011c.051.383.7 5.06 1.8 6.189a.459.459 0 0 1 .131.225c.037.172-.006.428-.393.692z" fill="none"/>
		</clipPath>
		<clipPath id="az">
			<path fill="none" d="M15.045 69.839h18.474v18.157H15.045z"/>
		</clipPath>
		<clipPath id="aJ">
			<path d="M46.463 62.819a.924.924 0 0 0-.717.093 1.6 1.6 0 0 0-.319-.588.829.829 0 0 1 .818.057.492.492 0 0 1 .218.438z" fill="none"/>
		</clipPath>
		<clipPath id="aK">
			<path fill="none" d="M40.427 57.243h11.038v10.668H40.427z"/>
		</clipPath>
		<clipPath id="aL">
			<path d="M46.866 63.511a.787.787 0 0 0-.342-.028 2.388 2.388 0 0 0-.719.27 2.1 2.1 0 0 0-.044-.787.888.888 0 0 1 .763-.068.482.482 0 0 1 .342.613z" fill="none"/>
		</clipPath>
		<clipPath id="aM">
			<path fill="none" d="M40.76 57.839h11.128v10.914H40.76z"/>
		</clipPath>
		<linearGradient id="q" x1="36.755" y1="45.997" x2="43.065" y2="43.68" gradientUnits="userSpaceOnUse">
			<stop offset="0" stop-color="#012549"/>
			<stop offset=".586" stop-color="#03468b"/>
			<stop offset=".708" stop-color="#033f7c"/>
			<stop offset=".94" stop-color="#012b56"/>
			<stop offset=".996" stop-color="#01264c"/>
		</linearGradient>
		<linearGradient id="t" x1="38.855" y1="50.184" x2="41.114" y2="50.184" gradientUnits="userSpaceOnUse">
			<stop offset="0" stop-color="#949596"/>
			<stop offset=".048" stop-color="#adaeaf"/>
			<stop offset=".117" stop-color="#c9cacb"/>
			<stop offset=".192" stop-color="#dfe0e1"/>
			<stop offset=".273" stop-color="#eff0f1"/>
			<stop offset=".365" stop-color="#f8f9fa"/>
			<stop offset=".494" stop-color="#fbfcfd"/>
			<stop offset=".606" stop-color="#f8f9fa"/>
			<stop offset=".699" stop-color="#edeeef"/>
			<stop offset=".786" stop-color="#dcddde"/>
			<stop offset=".868" stop-color="#c4c5c6"/>
			<stop offset=".947" stop-color="#a5a6a7"/>
			<stop offset="1" stop-color="#8b8c8d"/>
		</linearGradient>
		<linearGradient id="u" x1="37.664" y1="46.521" x2="43.469" y2="44.39" gradientUnits="userSpaceOnUse">
			<stop offset="0" stop-color="#6b6b6b"/>
			<stop offset=".093" stop-color="#646464"/>
			<stop offset=".229" stop-color="#505050"/>
			<stop offset=".391" stop-color="#303030"/>
			<stop offset=".572" stop-color="#040404"/>
			<stop offset=".586"/>
			<stop offset=".595" stop-color="#020202"/>
			<stop offset=".869" stop-color="#3c3c3c"/>
			<stop offset="1" stop-color="#525252"/>
		</linearGradient>
		<linearGradient id="a" x1="39.595" y1="55.924" x2="40.3" y2="56.429" gradientUnits="userSpaceOnUse">
			<stop offset=".151" stop-color="#f8fb9a"/>
			<stop offset=".239" stop-color="#f3f58c"/>
			<stop offset=".405" stop-color="#e5e768"/>
			<stop offset=".63" stop-color="#d0cf2d"/>
			<stop offset=".74" stop-color="#c4c20e"/>
			<stop offset=".901" stop-color="#c6c40c"/>
			<stop offset=".981" stop-color="#cec906"/>
			<stop offset="1" stop-color="#d1cb04"/>
		</linearGradient>
		<linearGradient id="b" x1="39.632" y1="55.95" x2="40.275" y2="56.411" gradientUnits="userSpaceOnUse">
			<stop offset="0" stop-color="#aec0a3"/>
			<stop offset=".101" stop-color="#a6b999"/>
			<stop offset=".274" stop-color="#8fa77d"/>
			<stop offset=".499" stop-color="#6a8b50"/>
			<stop offset=".545" stop-color="#628446"/>
			<stop offset=".772" stop-color="#8c9c29"/>
			<stop offset="1" stop-color="#b9b70a"/>
		</linearGradient>
		<linearGradient id="w" x1="39.492" y1="58.311" x2="40.197" y2="58.816" xlink:href="#a"/>
		<linearGradient id="x" x1="39.529" y1="58.338" x2="40.173" y2="58.798" xlink:href="#b"/>
		<linearGradient id="y" x1="39.382" y1="60.701" x2="40.087" y2="61.205" xlink:href="#a"/>
		<linearGradient id="z" x1="39.419" y1="60.727" x2="40.062" y2="61.188" xlink:href="#b"/>
		<linearGradient id="c" x1="43.19" y1="76.889" x2="43.312" y2="76.889" gradientUnits="userSpaceOnUse">
			<stop offset="0" stop-color="#331e09"/>
			<stop offset="1" stop-color="#331e09"/>
		</linearGradient>
		<linearGradient id="I" x1="40.965" y1="76.595" x2="41.186" y2="77.326" xlink:href="#c"/>
		<linearGradient id="J" x1="37.846" y1="52.914" x2="42.41" y2="52.914" gradientUnits="userSpaceOnUse">
			<stop offset="0" stop-color="#f9c89a"/>
			<stop offset="1" stop-color="#b7875a"/>
		</linearGradient>
		<linearGradient id="K" x1="36.617" y1="53.012" x2="39.695" y2="53.012" gradientUnits="userSpaceOnUse">
			<stop offset="0" stop-color="#759d60"/>
			<stop offset="1" stop-color="#699352"/>
		</linearGradient>
		<linearGradient id="L" x1="43.548" y1="51.765" x2="39.424" y2="55.63" gradientUnits="userSpaceOnUse">
			<stop offset="0" stop-color="#4e7d36"/>
			<stop offset=".141" stop-color="#54813c"/>
			<stop offset=".605" stop-color="#618c4a"/>
			<stop offset="1" stop-color="#66904f"/>
		</linearGradient>
		<linearGradient id="M" x1="43.604" y1="60.454" x2="46.769" y2="60.454" gradientUnits="userSpaceOnUse">
			<stop offset="0" stop-color="#54803d"/>
			<stop offset=".446" stop-color="#66904f"/>
			<stop offset=".601" stop-color="#6d9657"/>
			<stop offset=".944" stop-color="#6c9556"/>
		</linearGradient>
		<linearGradient id="V" x1="29.357" y1="56.955" x2="30.075" y2="59.889" gradientUnits="userSpaceOnUse">
			<stop offset="0" stop-color="#779f62"/>
			<stop offset=".315" stop-color="#658e50"/>
			<stop offset=".68" stop-color="#4a7635"/>
			<stop offset="1" stop-color="#4e7939"/>
		</linearGradient>
		<linearGradient id="aA" x1="23.317" y1="78.893" x2="24.514" y2="78.893" gradientUnits="userSpaceOnUse">
			<stop offset="0" stop-color="#724129"/>
			<stop offset="1" stop-color="#a44527"/>
		</linearGradient>
		<linearGradient id="d" x1="23.127" y1="67.473" x2="24.502" y2="67.473" gradientUnits="userSpaceOnUse">
			<stop offset="0" stop-color="#c19373"/>
			<stop offset="1" stop-color="#a44527"/>
		</linearGradient>
		<linearGradient id="aB" x1="23.127" y1="52.558" x2="24.411" y2="52.558" gradientUnits="userSpaceOnUse">
			<stop offset="0" stop-color="#c6ae8b"/>
			<stop offset="1" stop-color="#7b4329"/>
		</linearGradient>
		<linearGradient id="aC" x1="22.755" y1="56.366" x2="23.577" y2="55.703" gradientUnits="userSpaceOnUse">
			<stop offset="0" stop-color="#e1b185"/>
			<stop offset=".795" stop-color="#f3c395"/>
			<stop offset="1" stop-color="#f9c89a"/>
		</linearGradient>
		<linearGradient id="aD" x1="21.66" y1="54.276" x2="23.249" y2="56.63" gradientUnits="userSpaceOnUse">
			<stop offset="0" stop-color="#d9aa7e"/>
			<stop offset=".542" stop-color="#f9c89a"/>
			<stop offset=".868" stop-color="#dcad81"/>
			<stop offset=".983" stop-color="#d1a377"/>
		</linearGradient>
		<linearGradient id="aE" x1="22.393" y1="56.923" x2="22.866" y2="56.923" gradientUnits="userSpaceOnUse">
			<stop offset="0" stop-color="#cb9c71"/>
			<stop offset=".843" stop-color="#cfa176"/>
		</linearGradient>
		<linearGradient id="aF" x1="20.696" y1="56.741" x2="22.532" y2="56.741" gradientUnits="userSpaceOnUse">
			<stop offset="0" stop-color="#f9c89a"/>
			<stop offset=".383" stop-color="#e7b689"/>
			<stop offset=".843" stop-color="#cb9c70"/>
		</linearGradient>
		<linearGradient id="aG" x1="22.904" y1="59.088" x2="22.645" y2="57.281" gradientUnits="userSpaceOnUse">
			<stop offset=".134" stop-color="#ddae81"/>
			<stop offset="1" stop-color="#cb9d71"/>
		</linearGradient>
		<linearGradient id="aH" x1="24.202" y1="58.506" x2="24.248" y2="57.972" gradientUnits="userSpaceOnUse">
			<stop offset="0" stop-color="#e6b689"/>
			<stop offset="1" stop-color="#f4c395"/>
		</linearGradient>
		<linearGradient id="aI" x1="23.236" y1="59.233" x2="24.373" y2="57.701" gradientUnits="userSpaceOnUse">
			<stop offset="0" stop-color="#d5a67a"/>
			<stop offset=".622" stop-color="#c99b70"/>
			<stop offset="1" stop-color="#ebba8d"/>
		</linearGradient>
		<linearGradient id="aN" x1="23.127" y1="75.963" x2="23.13" y2="75.963" xlink:href="#d"/>
		<linearGradient id="aO" x1="23.13" y1="77.016" x2="24.52" y2="77.016" gradientUnits="userSpaceOnUse">
			<stop offset="0" stop-color="#7c6a61"/>
			<stop offset=".662" stop-color="#35190b"/>
			<stop offset="1" stop-color="#3d2214"/>
		</linearGradient>
	</defs>
	<path d="m60.205 80.128 10.056-14.477h-9.91v-1.457h11.974v1.311L62.2 79.933h10.4v1.458H60.205zm14.258-4.348a6.274 6.274 0 0 1 .437-2.369 5.664 5.664 0 0 1 1.215-1.87 5.4 5.4 0 0 1 1.87-1.226 6.341 6.341 0 0 1 2.38-.437 6.254 6.254 0 0 1 2.369.437 5.49 5.49 0 0 1 3.1 3.1 6.623 6.623 0 0 1 0 4.737 5.5 5.5 0 0 1-3.1 3.1 6.274 6.274 0 0 1-2.369.437 6.361 6.361 0 0 1-2.38-.437 5.4 5.4 0 0 1-1.87-1.227 5.644 5.644 0 0 1-1.215-1.87 6.265 6.265 0 0 1-.437-2.375zm1.457 0a5.185 5.185 0 0 0 .3 1.785 4.176 4.176 0 0 0 .886 1.458 4.307 4.307 0 0 0 1.409.983 4.863 4.863 0 0 0 3.692 0 4.3 4.3 0 0 0 1.409-.983 4.178 4.178 0 0 0 .887-1.458 5.412 5.412 0 0 0 0-3.571 4.183 4.183 0 0 0-.887-1.457 4.284 4.284 0 0 0-1.409-.984 4.863 4.863 0 0 0-3.692 0 4.294 4.294 0 0 0-1.409.984 4.181 4.181 0 0 0-.886 1.457 5.19 5.19 0 0 0-.3 1.786zm12.971 0a6.254 6.254 0 0 1 .437-2.369 5.662 5.662 0 0 1 1.214-1.87 5.4 5.4 0 0 1 1.87-1.226 6.343 6.343 0 0 1 2.381-.437 6.249 6.249 0 0 1 2.368.437 5.488 5.488 0 0 1 3.1 3.1 6.637 6.637 0 0 1 0 4.737 5.493 5.493 0 0 1-3.1 3.1 6.269 6.269 0 0 1-2.368.437 6.362 6.362 0 0 1-2.381-.437 5.407 5.407 0 0 1-1.87-1.227 5.641 5.641 0 0 1-1.214-1.87 6.245 6.245 0 0 1-.437-2.375zm1.457 0a5.185 5.185 0 0 0 .3 1.785 4.176 4.176 0 0 0 .886 1.458 4.307 4.307 0 0 0 1.409.983 4.863 4.863 0 0 0 3.692 0 4.307 4.307 0 0 0 1.409-.983 4.193 4.193 0 0 0 .887-1.458 5.412 5.412 0 0 0 0-3.571 4.2 4.2 0 0 0-.887-1.457 4.294 4.294 0 0 0-1.409-.984 4.863 4.863 0 0 0-3.692 0 4.294 4.294 0 0 0-1.409.984 4.181 4.181 0 0 0-.886 1.457 5.19 5.19 0 0 0-.3 1.786zm14.015-11.586h1.6v7.578h.146l8.331-7.578h2.21l-8.7 7.869 9.182 9.328h-2.308l-8.719-8.89h-.146v8.89h-1.6zM128.7 79.278a4.911 4.911 0 0 1-2.1 1.845 6.676 6.676 0 0 1-2.757.559 5.99 5.99 0 0 1-2.332-.437 5.248 5.248 0 0 1-1.8-1.227 5.378 5.378 0 0 1-1.154-1.87 6.838 6.838 0 0 1-.4-2.393 6.4 6.4 0 0 1 .413-2.331 5.553 5.553 0 0 1 1.166-1.858 5.436 5.436 0 0 1 4.032-1.688 5.408 5.408 0 0 1 2.271.449 4.982 4.982 0 0 1 1.652 1.19 5.054 5.054 0 0 1 1.008 1.688 5.665 5.665 0 0 1 .34 1.919v1.02h-9.424a4.948 4.948 0 0 0 .182 1.178 4.154 4.154 0 0 0 .668 1.4 4.233 4.233 0 0 0 1.3 1.166 4.054 4.054 0 0 0 2.1.485 4.68 4.68 0 0 0 2.162-.534 3.9 3.9 0 0 0 1.6-1.457zm-1.118-4.446a3.317 3.317 0 0 0-.3-1.408 3.772 3.772 0 0 0-.826-1.154 3.9 3.9 0 0 0-1.239-.789 3.979 3.979 0 0 0-1.518-.292 3.718 3.718 0 0 0-1.98.486 4.325 4.325 0 0 0-1.25 1.117 4.417 4.417 0 0 0-.656 1.227 3.232 3.232 0 0 0-.194.813zm14.623 4.446a4.9 4.9 0 0 1-2.1 1.845 6.675 6.675 0 0 1-2.756.559 5.99 5.99 0 0 1-2.332-.437 5.252 5.252 0 0 1-1.8-1.227 5.393 5.393 0 0 1-1.154-1.87 6.838 6.838 0 0 1-.4-2.393 6.4 6.4 0 0 1 .413-2.331 5.553 5.553 0 0 1 1.166-1.858 5.473 5.473 0 0 1 1.773-1.239 5.536 5.536 0 0 1 2.259-.449 5.408 5.408 0 0 1 2.271.449 4.978 4.978 0 0 1 1.651 1.19 5.037 5.037 0 0 1 1.008 1.688 5.641 5.641 0 0 1 .34 1.919v1.02h-9.424a5 5 0 0 0 .182 1.178 4.173 4.173 0 0 0 .668 1.4 4.237 4.237 0 0 0 1.3 1.166 4.051 4.051 0 0 0 2.1.485 4.679 4.679 0 0 0 2.161-.534 3.9 3.9 0 0 0 1.6-1.457zm-1.117-4.446a3.317 3.317 0 0 0-.3-1.408 3.772 3.772 0 0 0-.826-1.154 3.918 3.918 0 0 0-1.239-.789 3.979 3.979 0 0 0-1.518-.292 3.715 3.715 0 0 0-1.98.486 4.342 4.342 0 0 0-1.251 1.117 4.412 4.412 0 0 0-.655 1.227 3.249 3.249 0 0 0-.195.813zm4.397-4.663h1.457v1.967h.048a3.809 3.809 0 0 1 .851-1.008 5.11 5.11 0 0 1 1.1-.7 5.531 5.531 0 0 1 1.251-.413 6.438 6.438 0 0 1 1.287-.133 6.249 6.249 0 0 1 2.368.437 5.5 5.5 0 0 1 3.1 3.1 6.637 6.637 0 0 1 0 4.737 5.5 5.5 0 0 1-3.1 3.1 6.269 6.269 0 0 1-2.368.437 6.512 6.512 0 0 1-1.287-.133 5.581 5.581 0 0 1-1.251-.413 5.077 5.077 0 0 1-1.1-.7 3.778 3.778 0 0 1-.851-1.008h-.048v7.506h-1.457zm1.315 5.611a4.409 4.409 0 0 0 .365 1.785 4.556 4.556 0 0 0 1 1.458 4.8 4.8 0 0 0 1.482.983 4.635 4.635 0 0 0 1.846.364 4.526 4.526 0 0 0 1.846-.364 4.307 4.307 0 0 0 1.409-.983 4.176 4.176 0 0 0 .886-1.458 5.4 5.4 0 0 0 0-3.571 4.181 4.181 0 0 0-.886-1.457 4.294 4.294 0 0 0-1.409-.984 4.526 4.526 0 0 0-1.846-.364 4.635 4.635 0 0 0-1.846.364 4.784 4.784 0 0 0-1.482.984 4.562 4.562 0 0 0-1 1.457 4.414 4.414 0 0 0-.365 1.786zm23.751 3.498a4.911 4.911 0 0 1-2.1 1.845 6.676 6.676 0 0 1-2.757.559 5.988 5.988 0 0 1-2.331-.437 5.252 5.252 0 0 1-1.8-1.227 5.393 5.393 0 0 1-1.154-1.87 6.838 6.838 0 0 1-.4-2.393 6.424 6.424 0 0 1 .413-2.331 5.569 5.569 0 0 1 1.166-1.858 5.441 5.441 0 0 1 4.033-1.688 5.412 5.412 0 0 1 2.271.449 4.978 4.978 0 0 1 1.651 1.19 5.054 5.054 0 0 1 1.008 1.688 5.641 5.641 0 0 1 .34 1.919v1.02h-9.424a5 5 0 0 0 .182 1.178 4.173 4.173 0 0 0 .668 1.4 4.237 4.237 0 0 0 1.3 1.166 4.051 4.051 0 0 0 2.1.485 4.679 4.679 0 0 0 2.161-.534 3.888 3.888 0 0 0 1.6-1.457zm-1.117-4.446a3.3 3.3 0 0 0-.3-1.408 3.752 3.752 0 0 0-.825-1.154 3.918 3.918 0 0 0-1.239-.789 3.979 3.979 0 0 0-1.518-.292 3.715 3.715 0 0 0-1.98.486 4.342 4.342 0 0 0-1.251 1.117 4.443 4.443 0 0 0-.656 1.227 3.232 3.232 0 0 0-.194.813zm4.712-1.506q0-.315-.024-.765c-.016-.3-.029-.6-.037-.911s-.02-.595-.036-.862-.024-.473-.024-.619h1.457q.024.632.037 1.214a3.853 3.853 0 0 0 .06.753 4.981 4.981 0 0 1 1.433-1.627 3.555 3.555 0 0 1 2.138-.631 2.479 2.479 0 0 1 .425.036c.137.024.279.053.425.085l-.17 1.433a1.759 1.759 0 0 0-.559-.1 4.046 4.046 0 0 0-1.639.3 3.078 3.078 0 0 0-1.142.837 3.52 3.52 0 0 0-.668 1.251 5.255 5.255 0 0 0-.219 1.543v6.121h-1.457z" fill="#7a7a7a"/>
	<path d="m60.232 58.943 6.743-16.12h1.294l6.743 16.12h-1.7l-2.09-5.04h-7.245l-2.066 5.04zm7.4-14.258-3.312 7.969h6.539zm9.12 14.258v-16.12h6.675a5.024 5.024 0 0 1 4.773 5.063 4.862 4.862 0 0 1-4.631 5.107h-5.25v5.948h-1.567zm1.567-7.357h5.153c1.907 0 3.133-1.748 3.133-3.7a3.5 3.5 0 0 0-3.269-3.655h-5.017v7.355zm8.994 7.357 6.743-16.12h1.294l6.743 16.12h-1.7L98.3 53.9h-7.242l-2.066 5.04zm7.4-14.258L91.4 52.654h6.54zm15.008-1.954a6.334 6.334 0 0 1 5.948 3.52l-1.272.772a5.071 5.071 0 0 0-4.768-2.86c-3.861 0-5.971 3.451-5.971 6.7 0 3.565 2.611 6.788 6.038 6.788a5.508 5.508 0 0 0 4.972-3l1.317.68c-1.044 2.406-3.905 3.746-6.379 3.746-4.427 0-7.538-4.222-7.538-8.309.002-3.881 2.794-8.037 7.653-8.037zm21.196.092v16.12h-1.59v-7.538h-9.558v7.538H118.2v-16.12h1.565V50h9.558v-7.177zm14.469 14.711v1.407h-10.829V42.823h10.626v1.408h-9.058v5.812h7.9v1.339h-7.9v6.153h9.261z" fill="#d22128"/>
	<g clip-path="url(#e)">
		<g clip-path="url(#f)"/>
	</g>
	<g clip-path="url(#g)">
		<g clip-path="url(#h)"/>
	</g>
	<g clip-path="url(#i)">
		<g clip-path="url(#j)"/>
	</g>
	<g clip-path="url(#k)">
		<g clip-path="url(#l)"/>
	</g>
	<g clip-path="url(#m)">
		<g clip-path="url(#n)"/>
	</g>
	<g clip-path="url(#o)">
		<g clip-path="url(#p)"/>
	</g>
	<path d="M43.594 45.119a3.183 3.183 0 0 1-.442.587l-.016-.011-.024.011a4.48 4.48 0 0 0-1.146-.733 6.968 6.968 0 0 0-2.7-.484 7.445 7.445 0 0 0-2.882.51 4.235 4.235 0 0 0-.167-.726 5.451 5.451 0 0 1 2.469-.856 5.977 5.977 0 0 1 2.964.339 4.037 4.037 0 0 1 1.944 1.363z" fill="url(#q)"/>
	<g clip-path="url(#r)">
		<g clip-path="url(#s)"/>
	</g>
	<path d="m37.58 47.045.133.042.313-.281.367.197.198-.075.144.08.23.061.367-.039-.119-.098-.3-.046-.2-.16-.257.005-.216-.103-.167-.151-.177.079-.316.489zm-1.168-.46.65.628-.13.425.065.345.028.067-.176-.071a.672.672 0 0 0-.016-.2l-.128.1-.08-.041.026-.039.048.025.11-.084s.051-.022.064.043a1.211 1.211 0 0 1 .018.164l.066.029-.074-.339a1.184 1.184 0 0 0 .046-.359l-.059-.067a.542.542 0 0 0-.061.395l-.072.031a.559.559 0 0 1 .083-.487l-.253-.3-.019.051.008.265-.021.028-.029-.025-.006-.283.046-.126-.14-.165zm6.932-.139-.551.72.194.4-.015.349-.021.072.165-.094s-.032-.178-.011-.2l.146.082.061-.053-.027-.032-.036.033-.123-.069a.046.046 0 0 0-.065.043.952.952 0 0 0 .008.169l-.056.037.014-.353a1.424 1.424 0 0 1-.1-.336l.048-.077a.564.564 0 0 1 .126.387l.075.015a.53.53 0 0 0-.159-.466l.21-.34.019.051.04.26.02.028.03-.026-.039-.272-.06-.124.109-.186z"/>
	<path d="m38.625 47.479-.341.168a.274.274 0 0 1-.039-.2z" fill="#fff"/>
	<path d="M38.868 47.364s.181.306-.227.4a.38.38 0 0 1-.357-.118l.341-.168-.38-.036a.217.217 0 0 1 .064-.108.639.639 0 0 0-.414.238s.073-.31.606-.342.68.242.681.33a.486.486 0 0 0-.314-.196zm.4-.013s.175-.061.171-.1l.237.376-.012.288-.134 1.133a.164.164 0 0 0 .116.185.434.434 0 0 0 .333-.019c.023-.016.055.023.048.061 0 0-.234.073-.245.082a1.013 1.013 0 0 1-.265-.026.626.626 0 0 1-.127-.063l.161-1.365a.314.314 0 0 0 .021-.287.514.514 0 0 0-.304-.265zm.858 1.813s.259-.085.327.075l.091-.028s-.006-.118-.177-.131a.26.26 0 0 0-.241.084z"/>
	<path d="m41.3 47.4-.362.16a.338.338 0 0 1-.032-.207z" fill="#fff"/>
	<path d="M41.485 47.181s.328.27-.095.489a.408.408 0 0 1-.453-.115l.362-.16-.394-.047a.2.2 0 0 1 .068-.113.69.69 0 0 0-.419.358s0-.412.594-.488c.669-.088.86.3.86.39a.635.635 0 0 0-.523-.314zm-1.252-.21.072.108.565-.207s.67-.154.8-.206l.31.137.239.167h.049l-.128-.218-.233-.16-.1-.117-.217-.014-.459.179-.192-.012-.152.034zm-.261 3.853c-.621 0-.8-.224-.813-.241h.033s.174.214.78.214a1.051 1.051 0 0 0 .837-.294h.032a1.074 1.074 0 0 1-.869.321zm1.212-.996a.892.892 0 0 1-.328.147 2.966 2.966 0 0 0-.83.107h-.218a1.488 1.488 0 0 0-.746-.011 1.006 1.006 0 0 1-.3-.089h-.083a.935.935 0 0 0 .128.057c.026.061.249.456 1.134.456.154 0 .987-.012 1.232-.614a.518.518 0 0 0 .069-.047zm-1.248.632c-.768-.012-1.023-.307-1.081-.41a1.567 1.567 0 0 0 .2.051h.007a1.434 1.434 0 0 1 .734.01h.234a3.01 3.01 0 0 1 .824-.1h.005a1.188 1.188 0 0 0 .251-.1c-.264.545-1.164.55-1.174.549z"/>
	<path d="M41.114 49.908c-.268.548-1.168.553-1.178.552-.768-.012-1.023-.307-1.081-.41a1.567 1.567 0 0 0 .2.051h.007a1.434 1.434 0 0 1 .734.01h.234a3.01 3.01 0 0 1 .824-.1h.005a1.188 1.188 0 0 0 .255-.103z" fill="url(#t)"/>
	<path d="M41.416 44.046a.347.347 0 0 1-.426.271.429.429 0 0 1-.384-.481.283.283 0 0 1 .043-.125.409.409 0 0 1 .384-.177.466.466 0 0 1 .389.354.293.293 0 0 1-.006.158z" fill="none" stroke="#edff14" stroke-miterlimit="10" stroke-width=".01"/>
	<path d="M41.416 44.046a.347.347 0 0 1-.426.271.429.429 0 0 1-.384-.481.283.283 0 0 1 .043-.125.409.409 0 0 1 .384-.177.466.466 0 0 1 .389.354.293.293 0 0 1-.006.158zm-1.088-.385" fill="none" stroke="#edff14" stroke-miterlimit="10" stroke-width=".01"/>
	<path d="M43.451 46.231a1.831 1.831 0 0 1-.423-.034 5.464 5.464 0 0 1-.419-.087 14.09 14.09 0 0 1-1.638-.519 16.112 16.112 0 0 0-1.644-.509 16.185 16.185 0 0 0-1.7-.282l-.23-.029a6.85 6.85 0 0 1 2.516-.183 5.9 5.9 0 0 1 3.2 1.118l-.016.006a3 3 0 0 1 .357.272.512.512 0 0 1 .126.16c.026.056-.066.081-.129.087z" fill="url(#u)"/>
	<use transform="matrix(.032 0 0 .032 39.492 55.725)" xlink:href="#v"/>
	<circle cx="39.953" cy="56.181" r=".429" fill="url(#a)"/>
	<path d="M39.953 56.577a.4.4 0 1 1 .4-.4.4.4 0 0 1-.4.4zm0-.779a.383.383 0 1 0 .383.383.383.383 0 0 0-.383-.381z" fill="url(#b)"/>
	<circle cx="39.851" cy="58.568" r=".429" fill="url(#w)"/>
	<path d="M39.851 58.964a.4.4 0 1 1 .4-.4.4.4 0 0 1-.4.4zm0-.779a.383.383 0 1 0 .383.383.384.384 0 0 0-.383-.383z" fill="url(#x)"/>
	<use transform="matrix(.032 0 0 .032 39.279 60.502)" xlink:href="#v"/>
	<circle cx="39.741" cy="60.957" r=".429" fill="url(#y)"/>
	<path d="M39.741 61.353a.4.4 0 1 1 .4-.4.4.4 0 0 1-.4.4zm0-.779a.383.383 0 1 0 .382.383.384.384 0 0 0-.382-.383z" fill="url(#z)"/>
	<path d="m37.413 61.814-.154.876.161-.037.973.062.039.177.046-.006-.04-.943zm.007.792-.1.023.133-.763.942.119.029.685zm3.869.404-.078-.983-1.359-.1.1.756 1.2.147zm-1.383-1.032 1.261.092.063.785-.052-.069-1.184-.145zM46 63.981h-.014a.507.507 0 0 0-.2.1.315.315 0 0 0-.082.391.37.37 0 0 0 .353.219h.036a.393.393 0 0 0 .231-.111l.01-.011zm.091.675a.336.336 0 0 1-.35-.2.277.277 0 0 1 .072-.345.473.473 0 0 1 .167-.088l.306.54a.35.35 0 0 1-.197.093z"/>
	<g clip-path="url(#A)">
		<g clip-path="url(#B)"/>
	</g>
	<path d="m23.141 57.007-.011.012a.67.67 0 0 0-.139.52.569.569 0 0 0 .361.39.727.727 0 0 0 .3.072.777.777 0 0 0 .621-.405l.01-.019-1.132-.563zm.228.885a.536.536 0 0 1-.338-.361.633.633 0 0 1 .12-.472l1.079.536a.654.654 0 0 1-.861.297z"/>
	<path d="M41.99 43.818c-.14-.05-.27-.1-.41-.15a.177.177 0 0 1 .05.08c.01.01.01.01.02.01.08.03.2.07.34.13.02-.02.03-.04.05-.05-.01-.01-.03-.01-.05-.02zm3.27 20.94h.01a.031.031 0 0 0 .01-.02c-.01.01-.02.01-.02.02zm3.62 16.38.11-1.54a1.957 1.957 0 0 0-1.63-1.81 2.183 2.183 0 0 0-2.18.48 4.435 4.435 0 0 1-1.11.63 1.006 1.006 0 0 1-.46-.5 2.21 2.21 0 0 0 .1-.48 1.727 1.727 0 0 0-.44-1.46l.15-1.12a2.537 2.537 0 0 0 1.64-.87h.14a2.974 2.974 0 0 0 .84-.1c.22-.06.33-.15.33-.25 0-.32-1.14-.7-1.56-.83a2.1 2.1 0 0 0 .51-.21c.01-.01.16-.1.15-.23s-.15-.23-.42-.33a.235.235 0 0 1-.08-.02l.75-1.56-.45-.86.07-.38-.56-.75v-.22l-.17-.6-.27-.6c.36-.05.59-.08.6-.08l.1-.01-.08-.05a3.868 3.868 0 0 1-1.39-1.6l.2-.38a2.3 2.3 0 0 0 1.62.68 2.27 2.27 0 0 0 1.18-.34 1.748 1.748 0 0 0 .93-1.12.9.9 0 0 0-.1-.73.926.926 0 0 0-.48-.37.533.533 0 0 0-.38-.68.035.035 0 0 0-.02-.01.515.515 0 0 0-.25-.5.913.913 0 0 0-.88-.06 1.437 1.437 0 0 0-.24-.21l.57-1.02a5.583 5.583 0 0 1 .82-.03h.03l.01-.26.09-.36.18-.48-.09-.04a14.484 14.484 0 0 1 .83-1.43 1.757 1.757 0 0 0 .35-1.08 1.586 1.586 0 0 0-.58-1.3.775.775 0 0 0-.12-.55 1.577 1.577 0 0 0-.84-.54 1.919 1.919 0 0 0-1.19-1.73 2.61 2.61 0 0 0-1.45-1.43v-.04l-1.48-.95.16-.18.37-.58-.04-1.68.08-.06.09-.01.49-.48.18-.41-.1-.94.13-.16-.03-.12V46.2c.02-.02.01-.05 0-.07a.431.431 0 0 0-.13-.17 2.093 2.093 0 0 0-.28-.22 1.989 1.989 0 0 0 .23-.26 2.026 2.026 0 0 0 1.33-1.14c.34-.95-.93-1.98-.99-2.02a6.059 6.059 0 0 0-3.7-1.24 7.107 7.107 0 0 0-3.48.74c-.06.03-1.47.72-1.42 1.58s1.07 1.2 1.08 1.2.06.3.07.45l.05.03-.04.07.12 1.19.05.05-.17-.09-.22.03-.01.19.15.14a7.154 7.154 0 0 0 .05.95l.23.37.56.41h.05l.08.81.13.88.18.38.39.43-.19.14a2.183 2.183 0 0 0-.99.37c-.49.33-.72.47-.72.47l-2.69 2.36-1.67 1.2-1.6 1.27-.05-.07-.47.27-.37.15-.27.07a.341.341 0 0 0-.23.27 2.954 2.954 0 0 1-1.63-.84 2.813 2.813 0 0 1-.27-.54 2.531 2.531 0 0 0-.96-.89 1.389 1.389 0 0 0-1.37-.34l-.03-5.21v-.02l-1.31-.01v5.02a2.718 2.718 0 0 0-.25-.11 2.213 2.213 0 0 0-.81-.26h-.01a.928.928 0 0 0-1.02.71c-.12.38.21.72.42.89a1.193 1.193 0 0 0-.8.92c-.04.61.56.92 1.11 1a.734.734 0 0 0-.12.62.875.875 0 0 0 .51.62.794.794 0 0 0 .22.06.981.981 0 0 0 .75.49v15.87a18.542 18.542 0 0 1-3.07-.58l-.03-.01v.03a15.316 15.316 0 0 0 1.28 6.54 1.943 1.943 0 0 0 .51.69 6.275 6.275 0 0 0 3.67.99c.16.01.32.02.46.02a7.66 7.66 0 0 0 1.56-.15 1.94 1.94 0 0 0 .66-.26c.41-.28.45-.55.41-.73a.426.426 0 0 0-.14-.25c-1.13-1.16-1.79-6.14-1.79-6.19l-.01-.03-.02.01a14.349 14.349 0 0 1-2.07.01l-.06-15.85c.03 0 .09.01.15.01a.985.985 0 0 0 .17-.02 3.637 3.637 0 0 1 .93-.24h.03v-.01a.743.743 0 0 0 .15-.08 1.224 1.224 0 0 0 .48.02 4.2 4.2 0 0 1 1.05.15 5.73 5.73 0 0 0 1.15.16c-.09.47.18.63.19.63l.38.08 1.51-.64.06-.06.51-.03 3.84-2.76-.09.15.21.16a1.386 1.386 0 0 1 .13.64 2.254 2.254 0 0 1-.67 1.53l-.01.01-.09.59.12.68-.01.85.32.22.13.58-.33.56-1.35 3.02.01 1.01-.93 1.49.08-.02c.01 0 .18-.03.47-.05l-.28 1.24-.51 1.31-.45.73.66.29.03.08-1.13 1.35.02.02a2.136 2.136 0 0 0 .52.51 1.714 1.714 0 0 0 1.04 1.31l.21.89a.423.423 0 0 0-.19.12 2.519 2.519 0 0 0-.28 1.8 3.024 3.024 0 0 0-.5.19 1.787 1.787 0 0 0-1.15 1.61l.1 1.58a.747.747 0 0 0-.48.68.762.762 0 0 0 .16.47.792.792 0 0 0 .47.29 9.9 9.9 0 0 0 2.18.26h.24a6.928 6.928 0 0 0 2.88-.41.678.678 0 0 0 .21-.77.659.659 0 0 0-.39-.48.856.856 0 0 0 .08-.51l-.03-.78a.353.353 0 0 0 .03-.14 1.6 1.6 0 0 0-.14-.87 2.023 2.023 0 0 0-.92-.89 2.913 2.913 0 0 0-.12-1.66.9.9 0 0 0-.15-.24l.23-.68a3.483 3.483 0 0 0 1.99-.91l.13-.04.32.17.26-.29.07-.63-.33-.33.44-.51.16-.39.24-2.66.2-4.32.01.01.04 1.33.13 1.58a16.538 16.538 0 0 1-.08 5.73v.02l.02.01a2.346 2.346 0 0 0 .46.2 2.242 2.242 0 0 0 1.3.75c.03.1.19.57.32 1.05a1.187 1.187 0 0 0-.71 1.05 1.61 1.61 0 0 0 .03.67v.01a1.888 1.888 0 0 1-.38 1.5 1.752 1.752 0 0 0-.25 1.61.737.737 0 0 0 .16.27.78.78 0 0 0-.3.43.557.557 0 0 0 .11.44c.33.45 1.54.42 1.59.41.03 0 3.16.1 4.49.13h.32a11.2 11.2 0 0 0 2.64-.25.752.752 0 0 0 .58-.73.981.981 0 0 0-.47-.712zm-4.79-2.18a3.954 3.954 0 0 0 1.13-.65 2.157 2.157 0 0 1 2.12-.46c1.04.34 1.5.85 1.58 1.75l-.11 1.57v.01a.12.12 0 0 1-.03.06c-.07.09-.32.24-1.21.28-.7.03-2.3.03-3.7.02a6.1 6.1 0 0 1 .22-2.58zm-.44-1.04c-.09.8-.43.87-.53.87a.26.26 0 0 1-.2-.1.836.836 0 0 1-.08-.69.589.589 0 0 0-.07-.47.408.408 0 0 0-.18-.12 1.681 1.681 0 0 0 .32-.09 1.048 1.048 0 0 0 .26-.13h.01v-.02a.372.372 0 0 0 .16-.22.438.438 0 0 0-.08-.34v-.06a1.734 1.734 0 0 1 .39 1.37zm-.46-.8.06-.45a.367.367 0 0 1 .05.27.353.353 0 0 1-.11.18zm1.36-8.96.16.57v.24l.56.75-.07.37.43.81a15.208 15.208 0 0 0-3.32.41 8.027 8.027 0 0 1-1.14-2.73h.02l.01-.01a8.536 8.536 0 0 1 3.07-1.02zm.29-.77a10.2 10.2 0 0 0-3.67 1.12h-.1a1.327 1.327 0 0 0-.33-.76 6.394 6.394 0 0 1 2.93-1.62 4.09 4.09 0 0 0 1.17 1.26zm2.03-3.88a.726.726 0 0 0-.35-.02 2.183 2.183 0 0 0-.72.27 2 2 0 0 0-.04-.79.855.855 0 0 1 .76-.07.487.487 0 0 1 .35.61zm-.62-1.13a.493.493 0 0 1 .21.44.941.941 0 0 0-.71.09 1.663 1.663 0 0 0-.32-.58.817.817 0 0 1 .82.05zm-1.15-.35a.409.409 0 0 0-.15-.07l.03.09a1.567 1.567 0 0 1 .75 1.75.952.952 0 0 0-.25.28.6.6 0 0 0-.03.42c0 .01 0 .01-.01.02a.035.035 0 0 1-.01.02c-.01.01-.01.02-.02.03s-.01.02-.02.03a.138.138 0 0 0-.03.04c-.02.03-.04.05-.06.08.02-.01.03-.03.05-.04a1.493 1.493 0 0 0 .12-.14.142.142 0 0 0 .02.06.576.576 0 0 0 .39.36 1.067 1.067 0 0 0 .95-.3 1.244 1.244 0 0 1-.76.26.97.97 0 0 1-.17-.01.492.492 0 0 1-.36-.33.541.541 0 0 1-.01-.48.838.838 0 0 1 .24-.26 2.353 2.353 0 0 1 .77-.3.866.866 0 0 1 .81.39.888.888 0 0 1 .1.69 1.79 1.79 0 0 1-.91 1.09 2.2 2.2 0 0 1-2.74-.35l.09-.17.48-.49-.35-.35-.23-.57-.32-.59-.2-.49v-.91l.31-.15v.09l.05-.03a5.525 5.525 0 0 1 2.01-.64zm-1.43-4.55.31-.21.02-.01-.15-.97a1.562 1.562 0 0 1 1.06.8l-1.16 2.29.04.47-.03.05-.17.62-.02-.55.03-2.2zm-1.83 1.16-.38-1.83 2.29-.8.18 1.22-.32.22zm4.93 1.32-.17.42-.08.37-.01.2a5.776 5.776 0 0 0-2.87.67l-.04-.88.22-.8.46-.64 1.3.19zm-3.08-8.15-.01 1.78-1.57-.19-.05.06.41 1.43-3.35.54c.37-.32 1.69-1.47 2.35-2.03.7-.6.79-.78.8-.81a1.492 1.492 0 0 0-.1-1.63l.07-.08zm-3.95 3.01a13.437 13.437 0 0 1-1.85-2.62 1.448 1.448 0 0 1 .2-1.15l.45.41.78.8.37.22.3.04h.46l.42-.11.27-.23.99-1.17a1.428 1.428 0 0 1 .09 1.56c0 .01-.06.16-.79.79-.43.36-1.15.99-1.69 1.46zm-4.5-11.43c-.05-.81 1.37-1.5 1.38-1.51a6.922 6.922 0 0 1 3.44-.73 6.049 6.049 0 0 1 3.67 1.22c.01.01 1.29 1.04.96 1.94a1.875 1.875 0 0 1-1.19 1.07 1.324 1.324 0 0 0 .15-.24s.02-.03-.04-.1a3.822 3.822 0 0 0-.66-.67 1.81 1.81 0 0 0-.27-.18 2.137 2.137 0 0 0-.32-.2c-.1-.05-.21-.1-.32-.15-.01-.01-.03-.01-.05-.02-.14-.05-.27-.1-.41-.15a5.54 5.54 0 0 0-1.01-.26h-.01a2.321 2.321 0 0 0-.46-.07 2.614 2.614 0 0 0-.4-.02 5.717 5.717 0 0 0-.91.03 5.859 5.859 0 0 0-2.59.86l-.03.08v.02c.01.04.03.12.06.22-.17-.07-.95-.41-.99-1.14zM36.39 45a3.925 3.925 0 0 0-.17-.72 5.474 5.474 0 0 1 2.47-.86 6.375 6.375 0 0 1 .95-.05c.14 0 .28.01.4.02a3.164 3.164 0 0 1 .47.06q.255.045.45.09c.1.02.18.05.26.07.18.06.32.11.41.14.01.01.01.01.02.01.08.03.2.07.34.13.08.04.16.08.26.12.15.08.32.17.49.28v.01a1.526 1.526 0 0 1 .22.16 3.052 3.052 0 0 1 .63.66 2.8 2.8 0 0 1-.44.59.01.01 0 0 0-.01-.01l-.03.01c.12.1.24.18.34.28a.4.4 0 0 1 .13.16c.03.05-.07.08-.13.08a1.981 1.981 0 0 1-.42-.03 3.148 3.148 0 0 1-.42-.09 13.572 13.572 0 0 1-1.64-.52c-.54-.2-1.09-.36-1.64-.51-.56-.12-1.13-.21-1.7-.28l-.23-.03a6.91 6.91 0 0 1 2.52-.18 5.982 5.982 0 0 1 3.15 1.09 4.258 4.258 0 0 0-1.1-.71 7.137 7.137 0 0 0-2.7-.48 7.392 7.392 0 0 0-2.88.51zm6.83 1.26-.1.07-.09.13.09-.17.01-.04c.03-.002.06.008.09.008zm-5.61 4.17-.19-.37-.13-.91s-.06-.64-.07-.76h.04l-.09-.19.01.11h-.08l-.51-.38-.22-.36-.05-.95-.14-.13.01-.09.12-.02.26.13.23.25.32.47.05.04.17.76.16.3a4.69 4.69 0 0 1-.06-1.37l-.2-.25-.03-.48.16-.56.3-.82a15.33 15.33 0 0 1 1.65.27 15.51 15.51 0 0 1 1.64.5c.51.19 1.03.36 1.56.5l.12.66-.14.51a5.255 5.255 0 0 1 .07 1.01l.04.01a1.191 1.191 0 0 1 .11-.25l.02-.9.24-.5.2-.27.17-.12h.1c.03-.01.06-.01.09-.02l.02.07-.12.14v.11l.1.84-.18.4s-.36.38-.46.45l-.06.01-.01-.11s-.02.12-.05.14a.5.5 0 0 1-.08.06l.03 1.68-.35.57-1.32 1.55-.23.18-.4.11h-.4l-.31-.04-.36-.21-.71-.73-.61-.57zm.36.51.08.07a1.473 1.473 0 0 0-.21 1.21 13.539 13.539 0 0 0 1.85 2.64l-.26.23L37.34 54l.52-.84-.07-.08-1.17-.12 1.06-1.81zm-9.09 6.26c.02.08.04.16.05.23a.89.89 0 0 1-.19-.03.3.3 0 0 1 .14-.2zm-5.75-2.61.01-.02h-.01v-5l1.26.01.02 5.52a3.231 3.231 0 0 0-.56.45l-.28-.41-.44-.34zm-.3-.08c.08.04.18.08.27.12v.15l-.46-.35c.06.028.12.048.19.078zm-1.75.41a.846.846 0 0 1 .95-.66 1.287 1.287 0 0 1 .39.08l1.09.84.3.42a.864.864 0 0 0-.13.14c-.17-.25-.31-.28-.32-.28h-.02l-.57.96-.01.02.01.01a.721.721 0 0 0 .26.08.124.124 0 0 1-.02.03 1.393 1.393 0 0 0-.11.16l-.64-.27a7.718 7.718 0 0 0-.65-.61c-.01-.002-.69-.452-.53-.922zm2.58.85c-.33.4-.51.62-.6.72a.631.631 0 0 1-.25-.07l.55-.92a.722.722 0 0 1 .3.268zm-.79 1.01a1.359 1.359 0 0 0-.13.27 1.979 1.979 0 0 0-.35.15 1.393 1.393 0 0 1 .18-.55zm-2.17-.06c.04-.58.68-.84.79-.88.04.03.07.05.08.06a5.257 5.257 0 0 1 .64.6l.01.01.31.13a1.191 1.191 0 0 0-.18.58 1.752 1.752 0 0 0-.56.43c-.13-.022-1.15-.182-1.09-.932zm1.46 2.17a.8.8 0 0 1-.47-.58c-.18-.68.77-1.09 1.02-1.18a1.018 1.018 0 0 0 .21 1.03.655.655 0 0 0 .51.22 1.3 1.3 0 0 0 .47-.1l-.08.14a5.35 5.35 0 0 1-.58.39 1.344 1.344 0 0 1-1.08.078zm.27.13a.808.808 0 0 0 .16.01 1.464 1.464 0 0 0 .69-.16 4.244 4.244 0 0 0 .59-.41l.08-.15.38.24.01-.01a.448.448 0 0 0 .17-.31.381.381 0 0 0-.11-.29 1.09 1.09 0 0 0 .11-.13l.18.16a1.148 1.148 0 0 1-.26.95.87.87 0 0 0-.46.36c-1.01.438-1.43-.08-1.54-.262zm1.55-.75.02-.04h.01a1.521 1.521 0 0 0 .36-.26.344.344 0 0 1 .1.26.443.443 0 0 1-.14.27zm2.59 17.23c.05.38.71 5.06 1.81 6.19a.511.511 0 0 1 .13.22c.03.17-.01.43-.4.69a1.834 1.834 0 0 1-.64.26 9.083 9.083 0 0 1-2.01.13 6.262 6.262 0 0 1-3.63-.98 1.875 1.875 0 0 1-.51-.68 15.516 15.516 0 0 1-1.27-6.49 17.934 17.934 0 0 0 3.05.57v.27a19.3 19.3 0 0 0 .16 2.29c.37 1.48 1.18 1.78 1.19 1.78h.01l.09-1.83-.03-2.41a15.652 15.652 0 0 0 2.05-.01zm-2.07-.01v.47l.02 1.96-.01.15v.01l-.07 1.64a2.315 2.315 0 0 1-1.12-1.64c-.01-.04-.02-.08-.03-.11a18.7 18.7 0 0 1-.16-2V59.508c.04 0 .08.01.12.01a1.841 1.841 0 0 0 .75-.18l.01-.01.01-.01a.948.948 0 0 1 .41-.33zm2.94-16.12a5.134 5.134 0 0 0-1.07-.15 2.381 2.381 0 0 1-.39 0 1.107 1.107 0 0 0 .3-.2l-.05-.05a2.325 2.325 0 0 1-.51.32h-.01a3.463 3.463 0 0 0-.95.25.975.975 0 0 1-.3 0l-.01-.56h.02v-.01a1.174 1.174 0 0 0 .28-1.03v-.01l-.2-.18a.035.035 0 0 1 .01-.02c.03-.07.14-.4.25-.74a1.919 1.919 0 0 0 1.08.8l.02-.06a1.832 1.832 0 0 1-1.07-.82c.09-.31.17-.61.2-.76-.05.15-.14.41-.23.67-.13.39-.28.8-.31.88a1.2 1.2 0 0 1-.52.47.861.861 0 0 1-1.01-.05c-.6-.64.08-1.51.09-1.52s.17-.24.67-.81c.69-.79 1.05-.82 1.06-.82v-.03a1.022 1.022 0 0 0-.35.15v-.25a1.352 1.352 0 0 1 1.33.33h.01a2.707 2.707 0 0 1 .93.86 2.761 2.761 0 0 0 .28.56 3.255 3.255 0 0 0 1.95.91 5.765 5.765 0 0 1-.01 2.01 5.2 5.2 0 0 1-1.49-.142zm1.2.23a2.635 2.635 0 0 0 .28-.02 3.9 3.9 0 0 1-.16.57.539.539 0 0 1-.12-.55zm1.98.01-1.49.63-.31-.06a5.571 5.571 0 0 0 .12-3l.25-.06.38-.16.42-.24.73 1.08.47 1.25zm4.43-2.66.12-.21.01-.01h-.01l.43-.78 2.52 1.09-.74 1.76-2.14-1.7zm-.01 4.7 1.37.05-.09.82-1.18-.23.03-.05zm-2.4 6.56.85-1.37v-.17l.33.21 1.71.44.97.61.33.39-.17.68a6.666 6.666 0 0 0-4.02-.792zm-.32 2.61.51-1.32.29-1.27a6.744 6.744 0 0 1 3.52.83l-.55 2.16-.39.66-.59.11-2.58-.38-.6-.16zm.71 5.31a.251.251 0 0 1 .19-.1c.08 0 .15.05.23.15a2.248 2.248 0 0 1 .25 1.56 3.654 3.654 0 0 0-.94.13 2.44 2.44 0 0 1 .27-1.742zm1.33 1.64a3.333 3.333 0 0 0-.59-.03 2.772 2.772 0 0 0-.05-1.12 2.631 2.631 0 0 0 .33.02 1.535 1.535 0 0 0 .43-.05 3.031 3.031 0 0 0-.12 1.178zm2.38 4.04a.624.624 0 0 1-.18.69 7.677 7.677 0 0 1-3.09.41 11.458 11.458 0 0 1-2.17-.26.8.8 0 0 1-.43-.27.714.714 0 0 1-.14-.43.66.66 0 0 1 .42-.61c.06.18.36.27.38.27a16.45 16.45 0 0 0 2.29.16c.47 0 .89-.02 1.28-.04.18 0 .35-.01.51-.01a.9.9 0 0 0 .72-.3.1.1 0 0 0 .04-.05c.15.018.3.198.37.438zm-.45-2.77a1.446 1.446 0 0 1 .14.82c-.01.06-.02.1-.03.14v.01l.02.8a.716.716 0 0 1-.14.57.846.846 0 0 1-.68.27c-.16 0-.33.01-.5.02a19.69 19.69 0 0 1-3.56-.12c-.09-.03-.32-.13-.33-.26l-.1-1.6a1.716 1.716 0 0 1 1.11-1.55 3.5 3.5 0 0 1 1.56-.34 3.987 3.987 0 0 1 .85.09 2.574 2.574 0 0 1 1.66 1.148zm-1.04-2.55a2.877 2.877 0 0 1 .12 1.6 3.027 3.027 0 0 0-.73-.27s-.08-.02-.21-.04a2.637 2.637 0 0 1 .18-1.31c.11-.2.23-.3.34-.29.13.008.24.168.3.308zm-.15-.32a.24.24 0 0 0-.15-.06c-.14 0-.27.11-.4.33l-.03.06a1.712 1.712 0 0 1-.82.05 1.173 1.173 0 0 0-.2-.42.375.375 0 0 0-.28-.16l-.19-.85a4.592 4.592 0 0 0 .81.31 4.2 4.2 0 0 0 1.07.14c.14 0 .27-.01.4-.02zm3.5-6.22-.24 2.64-.15.37-.47.56.35.34-.06.58-.22.23-.3-.15-.17.05-.01.01a3.672 3.672 0 0 1-3.47.78c-1.58-.43-1.84-1.28-1.88-1.53a4.639 4.639 0 0 0 1.78.79 5.011 5.011 0 0 0 1.1.12 5.12 5.12 0 0 0 1.05-.11 6.054 6.054 0 0 0 1.43-.51l-.12-.02a5.139 5.139 0 0 1-3.44.46 4.051 4.051 0 0 1-2.32-1.31l1.06-1.29.38 1.11.01-.19-.38-1.11-.01-.01-.51-.22.5.14 2.6.38.63-.12.41-.69.75-2.95-.35-.42-.99-.62-1.71-.44-.36-.23v-.76l1.34-3.01.29-.48 1.24.24.1-.92-1.44-.05-.3-.22.01-.81-.13-.68.1-.56a2.1 2.1 0 0 0 .59-2.12l2.09 1.65.03.02.79-1.88-2.62-1.14-.45.81-3.93 2.84-.42.02.49-.47-.49-1.31-.69-1 1.61-1.28 1.67-1.19 2.68-2.37a7.174 7.174 0 0 0 .73-.47 2.164 2.164 0 0 1 .85-.34l-1.12 1.91 1.25.12.02.03-.54.86 2.14 1.11c-.18.15-.4.36-.4.36l.02 5.34-.44 1.42.03 1.19-.11 1.68.33.43zm.44 4.32a16.731 16.731 0 0 0 .08-5.72l-.13-1.58-.04-1.35-.02-.02.85-.15-.11-.08-.79.17-.01-.01-.32-.42.11-1.66-.03-1.18.44-1.42-.03-5.34 3.48-.56.04-.01-.43-1.46.01-.01 1.61.19.01-1.76a2.441 2.441 0 0 1 1.39 1.39l.02.02a1.932 1.932 0 0 1 1.17 1.99l.04.19a3.27 3.27 0 0 0 .04-.44 1.448 1.448 0 0 1 .76.51.717.717 0 0 1 0 .79l.04.07a.87.87 0 0 0 .12-.27 1.533 1.533 0 0 1 .54 1.22 1.863 1.863 0 0 1-.35 1.05 13.461 13.461 0 0 0-.83 1.44l-1.11-.43-1.34-.21-.4.55-.03-.38 1.16-2.29.01-.01-.01-.02a1.6 1.6 0 0 0-1.14-.85l-.05-.29-2.37.83-.03.01.41 1.97 1.79-1.2-.06.22-.03 2.21.07 1.6-.09.04-1.35.42h-.02l.17.91.93-.3v.07l.2.51.32.59.23.57.31.32-.43.45-.35.64.01.01a1.518 1.518 0 0 0 .13.27 6.254 6.254 0 0 0-2.96 1.66l-.01.02.02.02a1.3 1.3 0 0 1 .33.78v.03h.09a7.9 7.9 0 0 0 1.17 2.78l.01.02h.02a15.318 15.318 0 0 1 3.33-.41l-.72 1.51a8.448 8.448 0 0 0-1.79-.21v.06a7.268 7.268 0 0 1 1.9.26c.31.1.38.2.38.27.01.09-.11.16-.11.16a2.586 2.586 0 0 1-.61.24c-.01-.01-.01-.01-.02-.01v.01a7.1 7.1 0 0 1-2.27.05l-.01.06a7.214 7.214 0 0 0 1.11.08 5.49 5.49 0 0 0 1.2-.12c.66.19 1.61.55 1.61.79 0 .07-.1.13-.28.19a3.55 3.55 0 0 1-.98.1l-.02-.01v.01a7.33 7.33 0 0 1-1.78-.34l-.02.06s.17.06.43.13a3.759 3.759 0 0 1-2.09.49 5.116 5.116 0 0 1-2.52-.482zm4.17-12.52v.84l-.9.29-.15-.82zm-3.63 12.81a6.006 6.006 0 0 0 1.98.26 3.508 3.508 0 0 0 2.17-.54 6.621 6.621 0 0 0 1.24.19 3.207 3.207 0 0 1-2.59.91 3.7 3.7 0 0 1-2.8-.822zm1.25.72a5.452 5.452 0 0 0 1.42.17.57.57 0 0 0 .13-.01 4.641 4.641 0 0 0 .97-.09l-.23 1.82a.756.756 0 0 1-.22.11 1.6 1.6 0 0 1-.4.11l-.01.01a2.5 2.5 0 0 1-1.14-.09.031.031 0 0 1-.01-.02 12.179 12.179 0 0 0-.51-2.012zm.44 1.99c-.25-.12-.39-.26-.4-.4-.01-.17.18-.31.25-.36a4.019 4.019 0 0 1 .15.758zm-.18-.89c.01.03.01.06.02.09-.07.05-.29.2-.28.41.01.17.18.33.51.47a1.847 1.847 0 0 0 .67.12.483.483 0 0 1 .35.18 1.141 1.141 0 0 1 .05.91.647.647 0 0 1-.35.36 1.115 1.115 0 0 1-.84-.03 1.361 1.361 0 0 1-.8-1.52 1.1 1.1 0 0 1 .67-.992zm-1.26 4.74a1.67 1.67 0 0 1 .23-1.54 1.789 1.789 0 0 0 .42-1.29 1.423 1.423 0 0 0 .72.66 1.125 1.125 0 0 0 .48.11 1.15 1.15 0 0 0 .41-.08.725.725 0 0 0 .39-.4 1.179 1.179 0 0 0-.06-.96.411.411 0 0 0-.19-.16 1.5 1.5 0 0 0 .2-.02.384.384 0 0 1 .34.55.831.831 0 0 0 .1.74.328.328 0 0 0 .25.13c.08 0 .3-.04.45-.37a1.214 1.214 0 0 0 .46.46 6.078 6.078 0 0 0-.23 2.59l-2.36-.02a8.6 8.6 0 0 1-1.42-.12c-.05-.012-.13-.092-.19-.282zm8.92 1.4a11.964 11.964 0 0 1-2.94.24c-1.33-.03-4.46-.12-4.49-.12-.01 0-1.22.03-1.53-.39a.444.444 0 0 1-.1-.39.7.7 0 0 1 .29-.4c.01 0 .01.01.02.01a8.483 8.483 0 0 0 1.44.11c.04 0 2.14.03 3.94.03.91 0 1.74-.01 2.19-.03.89-.04 1.18-.19 1.27-.31a.086.086 0 0 0 .03-.06.906.906 0 0 1 .41.64.686.686 0 0 1-.53.668zm-3.47-17.78c-.01.01-.02.01-.02.02h.01a.031.031 0 0 0 .01-.022z"/>
	<g clip-path="url(#C)">
		<g clip-path="url(#D)"/>
	</g>
	<g clip-path="url(#E)">
		<g clip-path="url(#F)"/>
	</g>
	<g clip-path="url(#G)">
		<g clip-path="url(#H)"/>
	</g>
	<path d="M28.93 57.431c-.041-.007-.108-.016-.194-.033a.343.343 0 0 1 .145-.2c.019.077.034.155.049.233z" fill="#30561d"/>
	<path d="m35.313 75.546-.209.622a.277.277 0 0 0-.153-.058c-.137-.006-.271.1-.4.327-.013.021-.023.043-.035.065a1.8 1.8 0 0 1-.814.048 1.215 1.215 0 0 0-.2-.418.382.382 0 0 0-.279-.166l-.2-.852a4.289 4.289 0 0 0 .816.309 4.055 4.055 0 0 0 1.066.146 3.765 3.765 0 0 0 .408-.023z" fill="#c5e300"/>
	<path d="M43.305 76.935a.367.367 0 0 1-.115.179l.057-.45a.363.363 0 0 1 .058.271z" fill="url(#c)"/>
	<path d="M41.272 77.27c-.256-.123-.393-.258-.4-.4-.01-.172.173-.311.25-.362a5.082 5.082 0 0 1 .15.762z" fill="url(#I)"/>
	<path d="M42.219 52.569s-.058.161-.789.786c-.429.366-1.146.99-1.692 1.466a13.567 13.567 0 0 1-1.845-2.621 1.44 1.44 0 0 1 .2-1.154l.451.412.776.8.374.213.3.043h.464l.416-.111.269-.232.993-1.17a1.444 1.444 0 0 1 .083 1.568z" fill="url(#J)"/>
	<path d="m39.7 54.859-.263.228L37.339 54l.52-.844-.066-.085-1.176-.112 1.06-1.809.29-.215.081.074a1.5 1.5 0 0 0-.209 1.206 13.416 13.416 0 0 0 1.861 2.644z" fill="url(#K)"/>
	<path d="m42.112 53.394-.051.068.413 1.421-3.349.547c.364-.319 1.689-1.475 2.341-2.032.7-.6.794-.777.806-.811a1.494 1.494 0 0 0-.1-1.625l.069-.083 1.453.932-.013 1.773z" fill="url(#L)"/>
	<path d="m46.769 59.954-.167.427-.083.366-.011.2a5.79 5.79 0 0 0-2.867.663l-.037-.873.212-.807.464-.64 1.3.2z" fill="url(#M)"/>
	<g clip-path="url(#N)">
		<g clip-path="url(#O)"/>
	</g>
	<g clip-path="url(#P)">
		<g clip-path="url(#Q)"/>
	</g>
	<g clip-path="url(#R)">
		<g clip-path="url(#S)"/>
	</g>
	<path d="M28.917 59.578a4.149 4.149 0 0 1-.155.572.533.533 0 0 1-.123-.554 2.265 2.265 0 0 0 .278-.018z" fill="#30561d"/>
	<g clip-path="url(#T)">
		<g clip-path="url(#U)"/>
	</g>
	<path d="m31.194 59.051-.576.558-1.484.632-.311-.063a5.57 5.57 0 0 0 .122-3l.245-.062.384-.156.412-.241.733 1.077z" fill="url(#V)"/>
	<g clip-path="url(#W)">
		<g clip-path="url(#X)"/>
	</g>
	<g clip-path="url(#Y)">
		<g clip-path="url(#Z)"/>
	</g>
	<g clip-path="url(#aa)">
		<g clip-path="url(#ab)"/>
	</g>
	<g clip-path="url(#ac)">
		<g clip-path="url(#ad)"/>
	</g>
	<g clip-path="url(#ae)">
		<g clip-path="url(#af)"/>
	</g>
	<g clip-path="url(#ag)">
		<g clip-path="url(#ah)"/>
	</g>
	<g clip-path="url(#ai)">
		<g clip-path="url(#aj)"/>
	</g>
	<g clip-path="url(#ak)">
		<g clip-path="url(#al)"/>
	</g>
	<g clip-path="url(#am)">
		<g clip-path="url(#an)"/>
	</g>
	<g clip-path="url(#ao)">
		<g clip-path="url(#ap)"/>
	</g>
	<g clip-path="url(#aq)">
		<g clip-path="url(#ar)"/>
	</g>
	<g clip-path="url(#as)">
		<g clip-path="url(#at)"/>
	</g>
	<g clip-path="url(#au)">
		<g clip-path="url(#av)"/>
	</g>
	<g clip-path="url(#aw)">
		<g clip-path="url(#ax)"/>
	</g>
	<g clip-path="url(#ay)">
		<g clip-path="url(#az)"/>
	</g>
	<path d="m24.514 78.073-.076 1.641a2.331 2.331 0 0 1-1.121-1.641z" fill="url(#aA)"/>
	<path d="M24.5 75.96h-1.37V59.506c.041 0 .082.007.125.007a1.883 1.883 0 0 0 .75-.179h.008l.006-.008a.942.942 0 0 1 .411-.335l.069 16.5z" fill="url(#d)"/>
	<path d="M23.1 54.625v.156l-.458-.351.183.079c.089.039.181.077.275.116z" fill="#f9c89a"/>
	<path d="M24.411 55.1a2.972 2.972 0 0 0-.558.448l-.286-.41-.44-.336v-.214l.008-.021h-.008v-5l1.26.01z" fill="url(#aB)"/>
	<path d="M23.658 55.768c-.325.4-.512.624-.6.724a.58.58 0 0 1-.248-.071l.55-.92a.654.654 0 0 1 .298.267z" fill="url(#aC)"/>
	<path d="M23.806 55.6a2.025 2.025 0 0 0-.122.136c-.171-.246-.319-.277-.326-.278h-.014l-.576.963-.009.016.015.011a.519.519 0 0 0 .256.088c-.015.018-.021.026-.023.026s-.048.062-.108.161l-.638-.27a6.37 6.37 0 0 0-.652-.609c-.007-.005-.686-.455-.531-.92a.847.847 0 0 1 .95-.661 1.136 1.136 0 0 1 .389.082l1.1.841z" fill="url(#aD)"/>
	<path d="M22.866 56.777a1.843 1.843 0 0 0-.124.269 3.037 3.037 0 0 0-.349.147 1.209 1.209 0 0 1 .178-.541z" fill="url(#aE)"/>
	<path d="M22.532 56.636a1.208 1.208 0 0 0-.182.58 1.8 1.8 0 0 0-.562.431c-.128-.017-1.143-.177-1.09-.933.042-.576.681-.839.79-.879.045.035.077.055.082.059a6 6 0 0 1 .641.6l.006.009z" fill="url(#aF)"/>
	<path d="m23.9 58.276-.078.138a4.249 4.249 0 0 1-.575.395 1.369 1.369 0 0 1-1.086.078.8.8 0 0 1-.47-.575c-.174-.686.774-1.091 1.027-1.186a1.011 1.011 0 0 0 .2 1.035.673.673 0 0 0 .515.218 1.225 1.225 0 0 0 .467-.103z" fill="url(#aG)"/>
	<path d="M24.472 58.228a.44.44 0 0 1-.143.27l-.354-.226.025-.042h.01a1.543 1.543 0 0 0 .36-.258.359.359 0 0 1 .102.256z" fill="url(#aH)"/>
	<path d="M24.432 58.913a.959.959 0 0 0-.466.364c-1.008.436-1.426-.078-1.536-.254.052 0 .105.009.157.009a1.485 1.485 0 0 0 .69-.164 4.1 4.1 0 0 0 .59-.407l.087-.153.379.241.011-.01a.474.474 0 0 0 .168-.308.4.4 0 0 0-.113-.293 1.1 1.1 0 0 0 .111-.13l.179.158a1.139 1.139 0 0 1-.257.947z" fill="url(#aI)"/>
	<g clip-path="url(#aJ)">
		<g clip-path="url(#aK)"/>
	</g>
	<g clip-path="url(#aL)">
		<g clip-path="url(#aM)"/>
	</g>
	<path fill="url(#aN)" d="M23.13 75.96v.006l-.003-.006h.003z"/>
	<path d="m24.52 77.914-.006.157h-1.2l-.028-.11a19.351 19.351 0 0 1-.159-2v-.001H24.5z" fill="url(#aO)"/>
	<path d="M40.065 44.129a1.233 1.233 0 0 0-.04.205c-.379-.075-1.36-.117-1.36-.117l.722-.627.4.024-.487.436z" fill="#fefefd"/>
	<path d="m40.276 43.178-.489.436-.4-.024.327-.284a17.068 17.068 0 0 0-.741-.057l.041-.205c.422.016 1.262.134 1.262.134z" fill="#bcbcbc"/>
	<path d="M41.7 43.972a.514.514 0 0 1-.024.215.573.573 0 0 1-.7.357.763.763 0 0 1-.69-.719.472.472 0 0 1 .045-.164c.015 0 .135.018.321.05a.283.283 0 0 0-.043.125.429.429 0 0 0 .384.481.347.347 0 0 0 .426-.271.293.293 0 0 0 .006-.158l.275.084z" fill="#fefefd"/>
	<path d="M41.7 43.972c-.095-.029-.188-.058-.279-.084a.466.466 0 0 0-.389-.354.409.409 0 0 0-.384.177 8.884 8.884 0 0 0-.321-.05.694.694 0 0 1 .689-.355.806.806 0 0 1 .684.666zm1.27.628a5.061 5.061 0 0 0-.2-.146.487.487 0 0 0-.317-.454.264.264 0 0 0-.322.137c-.082-.035-.164-.067-.247-.1l.005-.012a.475.475 0 0 1 .643-.227.846.846 0 0 1 .438.802z" fill="#bcbcbc"/>
	<path d="M42.97 44.6a.535.535 0 0 1-.158.367.516.516 0 0 1-.546-.015.8.8 0 0 1-.382-.919c.083.03.165.062.247.1l-.012.026a.478.478 0 0 0 .226.591c.168.073.279.073.366-.074a.4.4 0 0 0 .054-.219c.071.043.135.095.205.143z" fill="#fefefd"/>
</svg>
